<svg xmlns="http://www.w3.org/2000/svg" role="img" xmlns:xlink="http://www.w3.org/1999/xlink" viewBox="142.45 309.95 326.84 171.84"><defs><clipPath id="a"><path d="M144 311.67188h324v168.65625H144zm0 0"/></clipPath><clipPath id="b"><path d="M144 480h4v.32813h-4zm0 0"/></clipPath><clipPath id="c"><path d="M147 480h2v.32813h-2zm0 0"/></clipPath><clipPath id="d"><path d="M146 480h2v.32813h-2zm0 0"/></clipPath><clipPath id="e"><path d="M153 479h9v1.32813h-9zm0 0"/></clipPath><clipPath id="f"><path d="M160 479h3v1.32813h-3zm0 0"/></clipPath><clipPath id="g"><path d="M159 480h2v.32813h-2zm0 0"/></clipPath><clipPath id="h"><path d="M166 479h9v1.32813h-9zm0 0"/></clipPath><clipPath id="i"><path d="M173 479h3v1.32813h-3zm0 0"/></clipPath><clipPath id="j"><path d="M172 479h2v1.32813h-2zm0 0"/></clipPath><clipPath id="k"><path d="M180 480h8v.32813h-8zm0 0"/></clipPath><clipPath id="l"><path d="M187 480h2v.32813h-2zm0 0"/></clipPath><clipPath id="m"><path d="M186 480h2v.32813h-2zm0 0"/></clipPath><clipPath id="n"><path d="M193 479h9v1.32813h-9zm0 0"/></clipPath><clipPath id="o"><path d="M200 480h2v.32813h-2zm0 0"/></clipPath><clipPath id="p"><path d="M206 479h9v1.32813h-9zm0 0"/></clipPath><clipPath id="q"><path d="M213 480h3v.32813h-3zm0 0"/></clipPath><clipPath id="r"><path d="M220 479h8v1.32813h-8zm0 0"/></clipPath><clipPath id="s"><path d="M227 479h2v1.32813h-2zm0 0"/></clipPath><clipPath id="t"><path d="M233 479h8v1.32813h-8zm0 0"/></clipPath><clipPath id="u"><path d="M240 479h3v1.32813h-3zm0 0"/></clipPath><clipPath id="v"><path d="M246 479h9v1.32813h-9zm0 0"/></clipPath><clipPath id="w"><path d="M253 479h3v1.32813h-3zm0 0"/></clipPath><clipPath id="x"><path d="M260 479h8v1.32813h-8zm0 0"/></clipPath><clipPath id="y"><path d="M267 479h3v1.32813h-3zm0 0"/></clipPath><clipPath id="z"><path d="M273 479h8v1.32813h-8zm0 0"/></clipPath><clipPath id="A"><path d="M280 479h3v1.32813h-3zm0 0"/></clipPath><clipPath id="B"><path d="M286 478h9v2.32813h-9zm0 0"/></clipPath><clipPath id="C"><path d="M293 478h3v2.32813h-3zm0 0"/></clipPath><clipPath id="D"><path d="M300 478h8v2.32813h-8zm0 0"/></clipPath><clipPath id="E"><path d="M306 478h4v2.32813h-4zm0 0"/></clipPath><clipPath id="F"><path d="M313 479h8v1.32813h-8zm0 0"/></clipPath><clipPath id="G"><path d="M320 479h3v1.32813h-3zm0 0"/></clipPath><clipPath id="H"><path d="M326 479h9v1.32813h-9zm0 0"/></clipPath><clipPath id="I"><path d="M332 479h2v1.32813h-2zm0 0"/></clipPath><clipPath id="J"><path d="M340 477h7v3.32813h-7zm0 0"/></clipPath><clipPath id="K"><path d="M354 477h6v3.32813h-6zm0 0"/></clipPath><clipPath id="L"><path d="M367 478h7v2.32813h-7zm0 0"/></clipPath><clipPath id="M"><path d="M381 477h6v3.32813h-6zm0 0"/></clipPath><clipPath id="N"><path d="M396 476h2v4.32813h-2zm0 0"/></clipPath><clipPath id="O"><path d="M409 476h3v4.32813h-3zm0 0"/></clipPath><clipPath id="P"><path d="M423 476h2v4.32813h-2zm0 0"/></clipPath><clipPath id="Q"><path d="M436 476h2v4.32813h-2zm0 0"/></clipPath><clipPath id="R"><path d="M449 476h2v4.32813h-2zm0 0"/></clipPath><clipPath id="S"><path d="M462 476h3v4.32813h-3zm0 0"/></clipPath><clipPath id="T"><path d="M144 466h4v2h-4zm0 0"/></clipPath><clipPath id="U"><path d="M144 453h4v2h-4zm0 0"/></clipPath><clipPath id="V"><path d="M465 450h3v3h-3zm0 0"/></clipPath><clipPath id="W"><path d="M144 439h4v3h-4zm0 0"/></clipPath><clipPath id="X"><path d="M144 426h4v3h-4zm0 0"/></clipPath><clipPath id="Y"><path d="M144 412h4v3h-4zm0 0"/></clipPath><clipPath id="Z"><path d="M465 410h3v2h-3zm0 0"/></clipPath><clipPath id="aa"><path d="M144 399h4v3h-4zm0 0"/></clipPath><clipPath id="ab"><path d="M465 397h3v2h-3zm0 0"/></clipPath><clipPath id="ac"><path d="M144 385h4v4h-4zm0 0"/></clipPath><clipPath id="ad"><path d="M465 384h3v2h-3zm0 0"/></clipPath><clipPath id="ae"><path d="M144 372h4v4h-4zm0 0"/></clipPath><clipPath id="af"><path d="M465 370h3v2h-3zm0 0"/></clipPath><clipPath id="ag"><path d="M144 358h3v5h-3zm0 0"/></clipPath><clipPath id="ah"><path d="M466 358h2v2h-2zm0 0"/></clipPath><clipPath id="ai"><path d="M144 343h2v8h-2zm0 0"/></clipPath><clipPath id="aj"><path d="M144 349h1v2h-1zm0 0"/></clipPath><clipPath id="ak"><path d="M466 345h2v3h-2zm0 0"/></clipPath><clipPath id="al"><path d="M144 331h3v6h-3zm0 0"/></clipPath><clipPath id="am"><path d="M466 332h2v3h-2zm0 0"/></clipPath><clipPath id="an"><path d="M465 332h3v3h-3zm0 0"/></clipPath><clipPath id="ao"><path d="M144 317h3v7h-3zm0 0"/></clipPath><clipPath id="ap"><path d="M465 317h3v2h-3zm0 0"/></clipPath><g id="aq" clip-path="url(#clip1)"><path fill="#fff" fill-opacity="0" fill-rule="evenodd" d="M0 0h1000v1000H0zm0 0"/><path fill="#d3d3d3" fill-opacity="0" fill-rule="evenodd" d="M162.15234 355.86719l-.23437.29297.0586.23437.11718.17188.17578.23437.29297.34766.11328.0586.11719-.17188.0586-.23438.17577-.17578.46485-.17578h.69922l.23437.29297.28906.8164.0586.17579.17578.23046.35156.23438.69922.69922.17188.17578.23437.34765.23438.41016.28906.58203.41015.46485.23047.23437.23438.17578.11719.23047.17578.29297.17187 1.16406v.23438l.0586.28906.05859.11719.11719.11719.34765.41015.11719.17188.17578.17578.17578.23437.11719.17188.17188.35156.05859.23438.23437.40625.23438-.0586-.17578.17578-.0586.92969h-.58203l-.23437-.11328-.34766.11328-.11719.11719-.05859.29297-.0586.17578-.11718.17187-.46484.29297-.0586.23438-.0586.11328v.64453l.0586.17187v.41016l.0586.0586v.40624l.05859.40625.11719.17579.05859.05859.23047.64062-.0586.29297v.69922l-.05859.58203v.23438l-.0586.23047-.05468.35156v1.92187l.05469.1172h.42578l-.36719.11718-.02344.35156.89063 1.16797 1.74219.53906 1.33984.35938v.53906l.08984.8086.53516.71484 1.51953.26953.89063-.08594.08984 1.16406.53516.1797 1.16015-.1797 2.05469-.98437 1.16016-.36328 1.8789-.17578 1.69531-.1797-.17968.71876-1.51563.08594-1.25.08984-.80469.26953-1.07421.8086.26953.71875.53515.89843-.17968.625-.26563.8086.26563 1.07812.625.89844.80468.17969 1.25-.1797-.26562.72267.09766.5039.05468.29297v.17188l.0586.29296v.40625l.17578.1172.35156.11718h.40625l.29297-.17578.11328-.11719.0586-.11719.11718-.23047.0586-.17578.35156-.46484.23047-.17578.17578-.0586.17578.0586.0586.17578.11718.98828.05469.46875.0586.17188.11718.23437.17578.0586.8164.05859h.28907l.11719.23437.05859.40625.0586.35156v1.10547l.11718.29297.11719.34766.28906.69922.17578.35156.58203.7539.35157.17579.17187.0586.46875.23437.64063.46484.34765.23438.29297.17578.29297.05468.23047.0625.8164.34766.29297.17578.11328.17188.35157.35156.11719.17578.52343.64063v.28906l.0586.35156v.34766l.05859.35156.0586.28906.11718.0586.17188.05859h.17578l.58203.23437.17578.1172.17578.28905.17578.23438.11328.23437.29297.23047.11719.11719v.41016l.0586.05468.28906.23438.23437.11719.0586.11718.11718.17188.0586.11719.23047.23437.05859.17578.23437.0586.1172.05859-.1172.11328-.05859.11719v.11719l-.11719.29296-.11719.28907v.58203l.17579.11719.11718.05859.0586.11719.11719.11719.11328.05859.17578.34765.0586.35157.05858.40625v.17578l-.05859.17578-.11719.69922v.17187l.1172.17579.29296.29296h.40625l.17578.1172.11719.17187.11719.29296v.23438h-.52735l-.23047-.23438h-.23437l-.17578.0586-.0586.69922.0586.34765.11719.17579.17578.41015.11718.23047.28907.46875.17578.05469h.52344l.23437.0586.75781.64062.0586.29296v.23438l.05859.0586.23047.34765v.35156l-.11719.17188v.29297l.29297.28906.29297.17578.17187.0586.29297.17577.29297.1172.58203.40624.28906.23438.29297.17578.21875.16015.01563.01172.23047.17579.64062.52343.17578.23438.1172.17578.17577.17578.11328.17188v.64062l.1172.17578.46874.11719.58203.11719.23438.05859.23047.11328.29297.11719.11328.0586.58593.35156.28907.17187.17578.0625.17578.05469.17578.0586.69922.35155.28906.17579.23438.05468.28906.17578.23437.1172.64063.40624.29297.11719.17187.0586.23438.05859.41015.05859.23047.0586.23438.11718.0586.17188-.41017.17578.46875.0586.0586.29296.11328.23438.17578.05468.23438.0586.17578.05859.40625.11719.64062.23437.11719.17188.0586.23437v.17578l-.0586.1172-.0586.40624.23438.23438.11719.05859.34766.11719.64062.23047.17578.11718.28906.1172.17578.17577.23438.46485.58203 1.10546.17578.17579.34766.17578.17578.11719.35156.11718 1.04688.52344.23437.0586.46485.11327.29297.0586.46484.17578.75781.58203.23438.23438.34765.46484.17578.17578.28907.23438.8164.69921.29297.17579.28906.28906.29297.17578.29297.28906.69531.64063.17578.17578.29297.23437.28907.23438.46875.28906.64062.58203.34766.23438.23437.29297.34766.34765.35156.46485.9336.99218.34765.40625.11719.17579.23437.05859.11328.11719.64454.17578.23047.11328.23437.0586.29297.17577.23047.1172.9336.69921.40624.40625.23438.17578.40625.17578.23437.11719.8164.34766.34766.23437.23438.11719.29297.28906.23047.11719.7578.35156.35157.17188.23047.05859.29297.11719.23437.0586.8711.17577h.8164l.46875.23047.17188.0586.875.69921.46484.1172.29297.05858.17578.0586.23047.0586.46875.05859.34766.05859.35156.0586.40625.05859h.29297l.17187.0586v.23046l.17578.17578h.29297l.34766.0586.35156.05859.69922.11719h.64063l.46484-.23438.29297-.17578.17187-.11719.41016-.17187.28906-.17578.9336-.46485.46875-.29297.52343-.29296.46485-.17188.46484-.17578 1.05078-.46485.28906-.11718.41016-.11719.28906-.11719.52735-.17578 1.51562-.69922.58203-.34765.28907-.0586.29297-.0586.34765-.11718.875-.23047.35156-.11719h.11329l.23437-.05859.875-.23437.23438-.0586h.8125l.35156-.0586.8164-.11718.17188-.0586.35156-.05468.29297-.0586.23047-.05859.8164-.17578.17579-.0586h.34765l.23438-.05859.46484-.11718.75781-.17188.23438-.0586h.34765l.41016-.11718.28906-.0586 1.28516-.05859h.28906l.41016-.0586.23047-.05858h.17578l.875-.1172h.40625l.41015-.11718h.34766l.35156-.11328.8711-.0586h1.75l1.04687.28907.41016.11719.28906.11718.35156.11719.28907.11719 1.05078.17187.28906.0586h.29297l.29297.05859.17187.0586.41016.05859.17187.0586.1172.05858h.11718l.11719.0586.35156.0586h.11328l.41016.0664 1.92187.39453 1.92578.39453 1.51953.44922 1.69532.71875 2.14453.80469 1.60547-.71875 1.42968-.80469 1.16016-1.07813 1.25-.44921 3.03516-.71875 1.875-.35938 2.14453-1.34765 2.23437-1.25391 2.5-1.25781 1.69531-.44922 1.78516-.17969 1.16016-.26953.625.53906 1.33984-.26953.71485-.98828.98437-1.34375.44531-.17969.80469-.35937 1.875-.53907 1.78516-.44921 1.25-.26954 1.16015-.08984 1.69922-.08984 1.96094-.26954 1.25-.08984h.53906l.625-.08984h.89063l2.14453-.17969 2.41015-.17969 2.58985-.08984 1.69531.17969 1.60938.08984 1.42968.35938 1.16016.71875 1.875.98828 1.16015 1.52734.26563.71484.6289.08985.35548.89844.53515.53906.53516 1.52734 1.07422.35938h.53515l-.80469.53515.08985 1.70703.71484 2.69532.89063.80468.89453.98829.71484 1.2578 1.78516.53907 1.51953-.17969.35547 1.34375 1.60937-.80469.98047-.53906.26953.26953.31641-.21484.21875-.14453.80078.44922.44922-.35938h.35547l.53515-.26953.53907-.71875.53515-.26953.625-.98828 1.16016.44922.83984.3711 1.39454.61718 1.6953-.17969h1.60548l1.78515.08985.17969-1.70704.53516-1.34375.80468.26954.4922.84765.40233.40625-.08984.53906v.35938l.71485.44922.71093-.26953h1.42969l.35938.98828.4453 1.25781.71485 1.34375 1.25.6289 1.69531.62891.71485-.17969.17969-.53906.98046-.08984.44922.35937.08594 1.25782-.26563.6289-.53515.17969v.53906l.71484.98438.26563.53906.98437.98828.80078 1.07813-.26562.35937-.08985.89844-.625 2.33203-.35546 2.0664-.08985 1.79298-.17969.71875-.08984.53906v1.4375l-.98047 1.88281-.35937 1.70703-.53516.89844-.80469 1.16797-.26562.53906 2.05469 1.2539.08593.35938-.35546.53906-.08985-.17968v.80859l.08985 1.4375-.44532.71484-1.07422.09375-.26562.71485.53515.89844.8047.71875 1.16015.80859 1.33984.26953.44531.35938-.35546.44921-1.78907-.08984-1.25-.44922-.71484-.71875-.625-.08984-.17578 3.58984-.1875 1.3086h89.35937V311.70313h-55.26953v49.08203l.76172.125 3.28906.54296 2.02344 2.83594v2.7539l2.35156.33204 2.34766.33203h4.05078l-1.3789 4.16016-2.02344.70703-2.02344.70312-.54297.34375-2.59375 1.6172-.1875.11718-2.02344-2.07813-.73046-2.74218-2.67188-2.07813-1.375-3.5-.0664-.08203-1.95704-2.67188 2.75-1.41796v-49.08204H294.42187v91.41407l.1172.03125.1328.01172.07422.07421.10547.04688.08985.0586.08593.05859.08985.0586.29687.29687.0586.08984.03125.11719.02734.11719.01563.13671-.03125.1172-.0586.08983-.0586.08594-.04296.10547-.04688.10156-.02734.1211v.14453l.17578.26953.14844.14844.07422.08594.07422.07421.04296.10547.0625.08985.0586.08593.04297.10547.0586.08985.04687.10156.04296.10547.0586.08594.11719.17968.07421.07422.0625.08594.0586.08984.04297.10547.0586.08985.05858.08593.0625.08985.0586.08984.04297.10156.11719.17969.07421.07422.0586.08594.07422.07421.08984.0586.10547.04687h.14844l.1328-.01562.13282.01562.10156-.04687.07422-.07422.04688-.10156-.01563-.13281v-.14844l-.04687-.10547-.02735-.11719-.04687-.10156-.02735-.1211-.04296-.10156-.0625-.08984-.04297-.10156-.04297-.10547-.03125-.11719-.01563-.13281-.01171-.13672.08593-.0586.0586-.08593.12109-.03125.04297.10547.01562.1328v.1172l.0586.10156.0586.08984.08983.0586.14844.14843.0586.08985.04296.10547-.01171.10156.08593.0586.10547.04687.08594.0586.08984.05858.07422.07422-.11719.02735-.10546.04687-.08594.0586-.07422.07421-.0586.08985-.0625.08594-.02734.12109-.04687.10156-.04297.10547-.03125.11719-.01172.13281-.01563.13281v.14844l.02735.11719.04687.10547.04297.10156.0586.08984.07421.07422.08985.0586.07422.07421.08984.0586.0586.08984.04296.10547.04688.10156.11719.03125.1328.01563h.14845l.11718-.03125.10547.04297.04297.10547.04688.10156.02734.1211L299.5 410l.02734.11719.03125.1211.02735.11718.10547.04297.10156.04687.13281-.01562.14844.14844.0625.08593.07422.07422.07031.07422.08984.0625.10547.04297.10156.04297.1172.03125.13671.01562.11719-.03125.07422-.07422.02734-.11718-.01172-.13282-.03125-.12109-.02734-.11719.04297-.10547h.11719l.08984.0625.11719.02735h.14843l.13282.01562h.14843l.13282.01563.1328-.01563h.14845l.1328-.01562.13282-.01172.13672.01172.11719-.02735.13281-.01562.1914-.0586-.05859.17579-.01562.1328-.02735.1211-.01562.13281-.0586.08594-.1328.01563-.10548.04687-.10546.04297-.1172.03125-.11718.02735-.26563.03125h-.14843l-.13281.01562-.07422.07422.05859.08594.14844.14843.11719.1797.07421.0703.08985.0625.08984.0586.08594.0586.08984.05858.10156.04297.10547.0625.10547.04297.08594.0586.10547.04687.10156.04297.17969.11719.0586.08984-.04298.10156-.04687.10547.01562.13281.22266.22266.0586.08985.04296.10156.03125.1211.04297.10155.01563.13282.03125.11718.01171.13672.03125.11719.14844.14844.10156.04297.10547.04296.1172.03125.1328.01563.13672.01563h.11719l.11719-.03125.08984-.0586.04297-.10547.04688-.10156.04296-.10547.03125-.11719.01172-.1328v-.14845l-.01172-.1328-.01562-.13282-.03125-.11719-.04297-.10547-.04688-.10547-.04296-.10156-.04297-.10547-.01563-.13281.01563-.13281.02734-.11719.03125-.11719.02735-.1211.04687-.10155.08984-.0586.08594-.0625.07422-.07422.08984-.05859.22266-.22266.0586-.08593.07421-.07422.11719-.17969.0586-.08594v-.14844l-.07423-.07421-.10156-.04688-.10547-.04297-.10156-.04297-.0586-.08984-.04687-.10547-.02734-.11719.08984-.05859.11719-.03125.10156-.04297.17969-.11719.14844-.14843.01172-.13282-.01172-.10546-.08985-.0586-.1328.01563h-.14845l-.1328.01562-.13282-.01562-.1211-.03125-.08593-.0586-.07422-.07422-.0586-.08984-.0625-.08594-.11718-.17969-.0586-.08593.03125-.1211.08594-.05859.1211-.03125.05859-.08594v-.1211l-.03125-.11718-.0586-.08984-.05859-.08594-.04687-.10547-.02735-.11719-.01562-.1328.0586-.08985.07421-.07422.08984-.0586.1172-.17968.07421-.07422.0586-.08594.14843-.14844.1211-.03125.1328-.01562.13282.01562.07422.07422.04297.10547.01562.13281-.03125.1172-.11719.03124-.1328.01172-.14844.14844-.04297.10547-.04688.10156-.02734.1211-.03125.11718v.14844l.03125.11719.04297.10546.05859.08985.07422.07031.07422.07422.11719.03125.12109.02734.11719-.02734.1328-.01563h.1172l.08984.0586.07422.07422.04687.10546.0586.08594.10156.04688.13281.01562.10547.04297.08594.0586-.01172.10546-.07422.07422-.17969.11719-.05859.08984-.08984.0586-.07032.07422-.07421.07421-.0625.08985-.02735.11719-.01562.1328.01562.13282-.01562.13281v.14844l.01562.13281.02735.1172.03125.12108.07421.07422.08985.0586.08594.0586.08984.05858.11719.03125v.08594l-.10157.04688-.08984.0586-.26563.03124-.11718.02735h-.14844l-.10547.04296-.10156.04688-.0586.08984-.0625.23438-.01171.13281-.03125.1211-.01563.1328v.29298l-.01172.1328.01172.13673.01563.1328.1328.01563.13282.01172.1211.03125.08593.0586.07422.07421.04688.10547.04296.10157.01563.1328v.44532l-.01563.13281v.44532l.03125.26562.02735.11719.01562.13281.03125.11719.08594.21094.03125.26562v.14844l-.03125.11719-.02734.11718-.03125.1211-.02735.11719-.03125.11718-.03125.1211-.01171.1328-.01563.13282.08984.0586.1172-.03125.10155.01562.04688.10547-.03125.26562v.44141l-.04297.10547-.04688.10547-.04296.10156-.04297.10547-.0586.08594-.03125.12109-.04296.11719-.03125.11719-.01563.1328.01563.13282.05859.08984.10547.04688.08594.0586.05859.08593-.01172.13672-.03125.11719-.04297.10156v.44531l-.01562.13281v.14844l-.03125.11719-.04297.10547-.02735.11719-.04687.10546-.04297.10157-.03125.12109-.02734.11719-.03125.13281-.03125.11719-.02735.11719-.04297.10546-.03125.1172-.03125.12108-.01171.13282-.01563.13281v.29688l.02734.11718v.14844l.04688.39844.02734.11719.0586.08984.12109.03125h.14844l.13281-.01563.0586.08985v.11719l-.0586.08984-.08984.0586-.10157.04296-.10546.04688-.08985.05859-.08594.0586-.13671.01562-.1172-.03125-.1328-.01563-.10157.04688-.0625.08594-.01172.13671-.01562.13282-.03125.11719-.02735.11718-.01562.13281-.03125.1211v.29687l.01563.13282.03125.11718v.14844l.01171.13281v.14844l-.02734.11719-.04688.10156-.02734.1211-.03125.11718-.0586.08985-.07421.07421-.10156.04297-.10547.04688-.11719.02734-.1211.03125-.10156-.04687.0586-.08594.10547-.04688.02734-.11718.03125-.11719.02734-.1211.03125-.11718v-.14844l.01563-.13281-.03125-.11719-.04297-.10547-.10547.01563-.07422.07422-.10156.04296-.08984.0625-.07422.07422-.04297.10157-.01563.1328-.03125.1172L304.25 426l-.03125.11719-.02734.11719-.03125.12109-.02735.11719-.03125.11718-.04297.10547-.08984.0586h-.08984l-.1172-.03125-.03124-.08594.01562-.13672-.03125-.11719v-.14844l-.01171-.1328v-.14844l-.0625-.23438-.02735-.1211-.04297-.10156-.04687-.10546-.0586-.08594-.05859-.08985-.04297-.10546-.0625-.08594-.14844-.14844-.0703-.07422-.10548-.04687-.10547-.04297-.10156-.04297-.29687-.29688-.08985-.07421-.08594-.0586-.10546-.04297-.08985-.0625-.08594-.0586-.10546-.04296-.08985-.0586-.08594-.0625-.07421-.0703-.10547-.04688-.08594-.0586-.10547-.04296-.08984-.0625-.10156-.04297-.10547-.04297-.08594-.0586-.10547-.04687-.10547-.04297-.10156-.04687-.08985-.0586-.10156-.04297-.10547-.04296-.08984-.0625-.11719-.02735-.13281-.01562-.13281.01562H299.75l-.13281.01563-.11719-.03125-.08984-.0586-.07422-.07422-.08985-.05859-.10156-.04688h-.14844l-.12109-.02734-.10156-.04297-.07422-.07422-.11719-.17968-.08984-.0586-.10156-.04297-.08985-.0625-.10547-.04296-.08984-.0586-.08594-.0586-.10547-.04687-.0586-.08594-.05858-.08984-.04297-.10547-.04688-.10156-.07422-.07422-.08594-.0586-.07421-.07421-.08985-.0586-.22265-.22265-.04297-.10547-.03125-.26563.10547-.04296h.14453l.10547.04296.07421.07422.08985.0586.08594.0586.10546.04687.08985.05859.14844.14844.0703.07422.14845.14843.0625.08594.07421.07422.08594.0586.07422.07421.08985.0625.08984.0586.08594.05859.26953.17578.10156.04688.10547.04296.10156.04297.04688-.07421.05859-.08594.07422-.07422.07031-.07422.10547.04297.07422.07422.0586.08984.04296.10156.04688.10547.04296.10547.1211.02735.11719-.02735.07421-.08984.04297-.10547.0586-.08985.07422-.07421.10546-.04297.1172-.02735.1328.01172.08985.0586.14844.14843.05859.08985.04297.10547.04687.10156.04297.10547.04297.10156.10547.04688.10547.04296.13281.01563.08594-.0586.0586-.08984.07421-.07422.10547-.04297.11719.02735.10547.04687.10156.04297.10547.04297.10156.04688.17969.11718v.11719l-.01563.13281.01563.13281.01562.13672.0586.08594.10156.04688.1211.02734.11718.03125h.14844l.11719-.03125.05859-.08984.17969-.1172.05859-.08983.07422-.07422.0586-.08594.11718-.17969.17969-.11719.11719.03125.08984.0586.04297.07422-.01563.1328v.1172l.08985.05859h.14843l.13282-.01563.1328-.01171.26563-.03125.10547-.04297.11719-.03125.1211-.02735.07421-.07421.07031-.07422.0625-.08985-.01562-.10547-.04688-.10156-.10156-.04297-.10547-.01562-.11718.02734-.26563.03125h-.14844l-.07421-.07422-.08985-.0586-.11719-.03124-.11718-.02735-.13282-.01562h-.14843l-.13282.01563h-.29687l-.10547-.04688-.14844-.14844-.04297-.10156-.05859-.08984.22266-.22266.08593-.0586.10547-.04296.11719-.03125.13281-.01563.13281.01563.13672.01562.10157.04297.1328-.01172.08985-.0625.10156-.04297.0625-.08984-.04687-.10156-.08984-.0586-.1172-.03125-.10155-.04296-.0586-.08985-.0625-.08984v-.11719l.01563-.13281.10547-.04688.07421-.07031v-.1211l-.08984-.05859-.03125-.11719.08985-.05859.07421-.07422.04297-.10547.0586-.08984.04687-.10156.01563-.13281v-.14844l-.04688-.10547-.04297-.10156-.08984-.0586-.13281-.01562-.10157-.04297-.13671-.01563-.1172-.03125h-.4453l-.13282-.01562-.13281-.01172-.13281-.01563-.11719-.03125h-.14844l-.13281-.01562-.13281-.01172-.26563-.03125-.1211-.04297-.08593-.0586-.07422-.07421v-.14844l.01172-.13281.10547-.04688.10156-.04296.13281-.01563h.15235l.13281-.01562h.29297l.1211.03125.10156.04296.08984.0586.23438.0625.12109-.04688.08984-.05859.10156-.04297.13282-.01562.10547.04296.10156.04688.13281.01172.1211-.02735h.14453l.12109-.03125.11719-.02734.10547-.04687.07421-.07422.08594-.0586.14844-.14843.0586-.08594.04687-.10547.02734-.11719.01563-.10547-.10156-.04296-.08985-.0586-.11719-.03125-.10546-.04297-.08985-.0625-.07422-.08594-.07422-.07421-.10156-.04297-.10547-.04688-.10156-.04297-.0586-.08984-.04687-.10156-.08594-.21094-.0625-.08594-.05859-.08984-.07422-.07422-.08594-.0586h-.26953l-.11719.03126-.08984.05859-.10156.04297-.13281.01562-.10547-.01562-.02735-.11719-.0625-.08984-.11718-.03125-.10157-.04297-.14843-.14844-.03125-.11719-.01563-.10546.07422-.07422.17969-.1172.11719-.02733.11718-.03125.13672.01562.10156.04297.10547.04297.10156.04687.10547.04297.1172.03125.1328.01563.1172.02734.1328.01563.10547-.01563.08985-.0586-.07422-.07421-.10547-.04297-.07422-.07422-.07422-.08984-.14844-.14844-.08593-.0586-.08985-.05859-.07422-.07422-.08984-.0586-.10156-.04687-.1211-.02734-.10156-.04688-.10547-.04296-.11719-.03125-.10156-.04297-.1211-.03125h-.14843l-.11719.03125-.10546.04297-.08594.0625-.17969.11718-.08594.0586-.08984.0586-.10547.04687-.08594.05859-.10547.04297-.10156.04297-.10547.04687-.07422.07422-.05859.08985-.0586.08593-.04687.10547-.0586.08594-.07421.07422-.13281-.01172-.1172-.03125h-.11718l-.07422.07422-.08984.0586-.07422.07421-.08984.0586-.08594.05859-.10547.04687-.10156.04297-.13672.01563-.10156-.04297-.14844-.14844-.10547-.04688h-.08594l-.10547.04688-.10156.04297-.1211.03125-.11718-.03125-.07422-.07422v-.11719l.03125-.1211.07422-.0703.0586-.08985.07421-.07422.11719-.03125.10547-.04296h.29297l.13281-.01563.13672-.01563.10156-.04296.08985-.0586.10156-.04687.08984-.0586.13281-.01171.08985.05859.13281.01172.08984-.0586.08594-.05859.10547-.04297.08984-.0586.08594-.0625.08985-.05859.14843-.14843.0586-.08594.05859-.08985.10547-.04296.13281-.01563.11719.02735.1211.03125.05859-.0586.05859-.08984.03125-.26563.02734-.11719.10547.01172.13281.01563.10157-.04297.08984-.0586.0586-.08984.07421-.07422.0586-.08984.04687-.10156.01172-.13281-.01172-.13282-.04687-.10547-.14844-.14843-.0586-.08985-.05859-.08594-.04297-.10546v-.44532l.01563-.1328v-.14845l.01172-.1328-.0586-.0586-.08984.0586-.10156-.04298-.17969-.11719-.08594-.05859-.0625-.08984-.0586-.08985-.07421-.07421-.08594-.0586-.1211.03125-.10155.01172-.10547.04688-.08594.05859-.10547.04297-.14844.14844-.08984.05859-.08594.0586-.08984.0625-.10547.04296-.13281.01563v-.1211l.10547-.04297.11718-.03125.07422-.0703.04297-.10548v-.14844l-.02734-.11718-.14844-.14844-.13281-.01563h-.14844l-.11719.03125-.10547.04297-.10156.04297-.08984.0625-.11719.02735-.07422-.07422.01172-.13281-.04297-.10157-.04297-.10547-.08984-.05859-.11719.02734-.1211.03125-.11718.03125-.10156.04297-.1211.03125-.10156.04297-.10547.04297-.08984.0586-.10156.01562v-.11719l.01562-.13281-.0586-.08985-.07421.04297-.14844.14844-.0586.08985-.07421.07421-.04688.10547-.04296.10156-.07422.07422-.0586.08985-.07422.07422-.05859.08593-.07422.07422-.08984.0625-.07422.07031-.07422.07422-.10156.01563-.13281.01562-.10547-.04296v-.1211l.14843-.14844.04297-.10156.0586-.08984.04687-.10156.04297-.10547.0586-.08985.03124-.11719.04297-.10156.03125-.1211.02735-.11718.04687-.10547.04297-.10156.04297-.10547.07422-.07031.08984-.0625.08985-.0586.10156-.04296h.29687l.26563-.03125.10547-.04297-.07422-.07422-.11719-.03125-.10547-.04297-.08984-.0586-.10156-.04687-.08985-.0586-.10156-.04296-.10547-.04297-.08984-.0625-.08594-.0586-.10547-.04296-.10156-.04297-.1211-.03125-.11718-.03125-.10157-.04297L297.5 410.25l-.10156-.04297-.08985-.0586-.04296-.10546-.01563-.13281.10156-.04297.13281-.01563.13672.01563.13282-.01563.10156-.04297.0586-.08984.01562-.10547-.08985-.0586-.07421-.07421-.10157-.04297-.08984-.0586-.14844-.14843-.04297-.10547-.01562-.13281v-.29297l-.0586-.08985-.08984-.05859-.07422-.07422-.04297-.10547-.03125-.11718-.0586-.08985-.07421-.07422-.11719-.02734-.07422-.07422-.08984-.0586-.08984-.0625-.08594-.05859-.07422-.07421-.0586-.08594-.04687-.10547-.08594-.0586-.14843-.14843-.19532-.0586-.1328.01563-.10157.04297-.07422.07422-.04688.10156-.04296.10547-.0586.08984-.0586.08594-.29687.29687-.08984.0586h-.08594l-.0625-.08594-.04297-.10547.03125-.11719.0586-.08984.02734-.11719-.01172-.13281-.08984-.0625-.10547.04688-.11719.02734-.11719.03125-.26953.17578-.10156.04688-.11719.02734-.10546.04687-.08985.0586-.10156.04297-.0586-.08594-.04687-.10547.01563-.13281.04687-.10547.07031-.07422.07422-.07031.0586-.08985v-.14843l-.04297-.10547h-.23829l-.10156.04687-.03125.11719-.02734.11719-.03125.1211-.07422.04296-.13281.01563-.07422-.04688-.04297-.10156-.04297-.10547-.04687-.10156-.04297-.10547-.1211.03125-.10156.04297-.13281.01562-.11719.03125-.10547.04297-.08984.0586-.10156.04687-.1211.02734-.13281.01563-.10156-.04297-.0586-.08985-.04687-.10546-.04297-.10157-.04297-.10546v-.1172l.0586-.08984.08593-.05859.17969-.11719.10156-.04687.10547-.04297.10547-.0586.10156-.04296.08985-.0625.10156-.04297.10547-.0586.10156-.04687.08984-.0586.10547-.04296.10156-.04297.08985-.0625.10156-.04297.13672-.01563.11719.03125.10156.04297.1211.03125.10156.04297.10546.04688.10157.04296.10547.04297.10156.04688.10547.04297.10156.04297.10547.04687.08594.0586.10546.04296.1172.03125.10546.04297.10156.04688.08985.0586.10547.04296.10156.04297.10547.04687.11719.02735.10156.04687.1211.02735h.14843l.08594-.0586.01562-.10156.0586-.08984-.02735-.1172-.07422-.07421-.11719-.17969-.07421-.07422-.08985-.07421-.17969-.1172-.08593-.05859-.10547-.04296-.10156-.04688-.26954-.17578-.05859-.08985-.07422-.07421-.0586-.08985-.04296-.10156-.03125-.11719-.01563-.13672v-.5625l-.01171-.1328-.01563-.13282-.03125-.11719-.01562-.13281-.01172-.13281-.03125-.1211-.22266-.22265-.0586-.08594-.01562-.10547.03125-.11719.13281-.01562v-91.41406H172.9922v1.45312l-.0586.23438-.35156 1.05078-.17187.52343-.1172.34766-.17577.41016-.11719.17187-.23438.29297-.23046.0586h-.35157l-.11718.05859-.23047.40625v.29297l.11719.17578.23046.23047.1172.23437.64062.75781.29297.46485.17578.23437.23047.35156.23437.34766.64063.8164.17578.46485.17187.41016.11719.69531.17578.46875.11719 1.39844.0586.46484v.875l.11718 1.04688v4.78125l-.0586.46484-.35156 1.28125-.17578.52344-.11328.41015-.35156.9297L172.93359 336l-.23437.58203-.11719.17578-.17187.34766-.17578.40625-.35157.8164-.0586.29297-.11327.29297-.11719.28906-.0586.17579-.11718.875-.0586.40625-.05859.11718-.0586.17579-.05859.17187-.23047.52734-.11718.17188v.23437l-.11719.23438-.0586.17187-.17577.58594v.28906l-.0586.17579v.29296l-.0586.11329-.05859.52734v.17187l-.05468.23438v2.6211l-.17578.8164-.1172.17578-.17577.23438-.1172.17187-.11327.23438-.58594.93359-.23047.28906-.29297.46485-.17578.23437-.28906.35156-.35156.69922-.11328.23047-.17579.41016-.17578.23046-.40625.52735-.8164.69922-.29297.17187-.28906.23438-.17579.11719-.17578.17578-.52344.40625-.52734.17578-.17187.17578-.23438.05469-.64062.17578h-.75782m12.21094 31.02344l-1.07422.44921.35938.89454 1.25-.71485.44531-.53906-.98047-.08985"/><path fill="#d3d3d3" fill-opacity="0" fill-rule="evenodd" d="M201.50781 416.59766h-.89453l.44922.6289.98047.35938.80469-.08985.4453-.98828-.17577.08985-.71485-.35547-.89453.35547m154.6211 59.0703l-.0586-.52343v-.29297l.11328-.29297.0586-.23046.46875-.46875h.11328l.11719-.11329.11718-.05859h.17579l.23437-.0586h.34766l.23437.0586.11719.0586.23047.17187.0586.17578.11718.58203v.29297l-.11719.17578-.17187.28906-.17579.17579-.52734.52343-.23047.23438-.11719.0586h-.17578l-.11718-.0586-.40625-.29297-.17579-.11719-.11718-.0586-.0586-.11327-.05468-.1172m6.64062-10.95702l-.0586-.17188v-1.10937l.0586-.17188.17578-.0586.17188-.05858h.17578l.23437-.0586.1172.0586.05858.69921-.05859.17188-.11719.17578-.11718.0586-.23438.52343-.11328.0586h-.23438l-.05859-.1172m9.61328-14.39062l-.11719-.17578v-.69922l.29297-.875.1172-.17187.17577-.35156.11328-.23047.1172-.29297.35155-.75781.1172-.23047.17187-.23438h.17578l.11719-.0586h.64062l.11719.0586.23437.23438.17188.11328.35156.29297.11719.11718.11328.17579v.11328l.11719.05859.11718.11719v.69922l-.05859.17578v.23047l-.0586.17578-.34765 1.05078-.11719.23047-.11719.23437-.11718.0586-.23047.23437-.64063.28906h-.875l-.41015-.11718-.64063-.46485"/><path fill="none" stroke="#bebebe" stroke-linecap="round" stroke-linejoin="round" stroke-miterlimit="10" stroke-width=".5" d="M467.95703 311.69531H144.02734v168.625h323.9297v-168.625"/><g clip-path="url(#a)"><path fill="#fff" fill-opacity="0" fill-rule="evenodd" d="M144 311.67188v168.65625h324V311.67188H144"/></g><g clip-path="url(#b)"><path fill="none" stroke="#000" stroke-linecap="round" stroke-linejoin="round" stroke-miterlimit="10" stroke-width=".5" d="M147.51172 480.35547l-7.02344-.05469"/></g><g clip-path="url(#c)"><path fill="none" stroke="#000" stroke-linecap="round" stroke-linejoin="round" stroke-miterlimit="10" stroke-width=".5" d="M147.51172 480.35547l1.13672 2.17578"/></g><g clip-path="url(#d)"><path fill="none" stroke="#000" stroke-linecap="round" stroke-linejoin="round" stroke-miterlimit="10" stroke-width=".5" d="M146.49219 480.34766l.5664 1.08593"/></g><g clip-path="url(#e)"><path fill="none" stroke="#000" stroke-linecap="round" stroke-linejoin="round" stroke-miterlimit="10" stroke-width=".5" d="M160.82813 480.21875l-7.02344.21875"/></g><g clip-path="url(#f)"><path fill="none" stroke="#000" stroke-linecap="round" stroke-linejoin="round" stroke-miterlimit="10" stroke-width=".5" d="M160.82813 480.21875l1.21875 2.1289"/></g><g clip-path="url(#g)"><path fill="none" stroke="#000" stroke-linecap="round" stroke-linejoin="round" stroke-miterlimit="10" stroke-width=".5" d="M159.80469 480.25l.60937 1.0664"/></g><g clip-path="url(#h)"><path fill="none" stroke="#000" stroke-linecap="round" stroke-linejoin="round" stroke-miterlimit="10" stroke-width=".5" d="M174.13672 480.13672l-7.01563.38281"/></g><g clip-path="url(#i)"><path fill="none" stroke="#000" stroke-linecap="round" stroke-linejoin="round" stroke-miterlimit="10" stroke-width=".5" d="M174.13672 480.13672l1.26953 2.10156"/></g><g clip-path="url(#j)"><path fill="none" stroke="#000" stroke-linecap="round" stroke-linejoin="round" stroke-miterlimit="10" stroke-width=".5" d="M173.11719 480.1914l.63281 1.05079"/></g><g clip-path="url(#k)"><path fill="none" stroke="#000" stroke-linecap="round" stroke-linejoin="round" stroke-miterlimit="10" stroke-width=".5" d="M187.45703 480.35938l-7.02344-.0625"/></g><g clip-path="url(#l)"><path fill="none" stroke="#000" stroke-linecap="round" stroke-linejoin="round" stroke-miterlimit="10" stroke-width=".5" d="M187.45703 480.35938l1.13281 2.17578"/></g><g clip-path="url(#m)"><path fill="none" stroke="#000" stroke-linecap="round" stroke-linejoin="round" stroke-miterlimit="10" stroke-width=".5" d="M186.4375 480.35156l.5664 1.08594"/></g><g clip-path="url(#n)"><path fill="none" stroke="#000" stroke-linecap="round" stroke-linejoin="round" stroke-miterlimit="10" stroke-width=".5" d="M200.75781 480.67969l-6.99219-.70313"/></g><g clip-path="url(#o)"><path fill="none" stroke="#000" stroke-linecap="round" stroke-linejoin="round" stroke-miterlimit="10" stroke-width=".5" d="M200.75781 480.67969l.92969 2.26953"/></g><g clip-path="url(#p)"><path fill="none" stroke="#000" stroke-linecap="round" stroke-linejoin="round" stroke-miterlimit="10" stroke-width=".5" d="M214.07031 480.6875l-6.98828-.71875"/></g><g clip-path="url(#q)"><path fill="none" stroke="#000" stroke-linecap="round" stroke-linejoin="round" stroke-miterlimit="10" stroke-width=".5" d="M214.07031 480.6875l.92188 2.27344"/></g><g clip-path="url(#r)"><path fill="none" stroke="#000" stroke-linecap="round" stroke-linejoin="round" stroke-miterlimit="10" stroke-width=".5" d="M227.39844 480.13672l-7.01563.38281"/></g><g clip-path="url(#s)"><path fill="none" stroke="#000" stroke-linecap="round" stroke-linejoin="round" stroke-miterlimit="10" stroke-width=".5" d="M227.39844 480.13672l1.26953 2.10156"/></g><g clip-path="url(#t)"><path fill="none" stroke="#000" stroke-linecap="round" stroke-linejoin="round" stroke-miterlimit="10" stroke-width=".5" d="M240.58984 479.38672l-6.76953 1.88672"/></g><g clip-path="url(#u)"><path fill="none" stroke="#000" stroke-linecap="round" stroke-linejoin="round" stroke-miterlimit="10" stroke-width=".5" d="M240.58984 479.38672l1.69141 1.77734"/></g><g clip-path="url(#v)"><path fill="none" stroke="#000" stroke-linecap="round" stroke-linejoin="round" stroke-miterlimit="10" stroke-width=".5" d="M253.92969 479.47656l-6.8164 1.70703"/></g><g clip-path="url(#w)"><path fill="none" stroke="#000" stroke-linecap="round" stroke-linejoin="round" stroke-miterlimit="10" stroke-width=".5" d="M253.92969 479.47656l1.64453 1.82031"/></g><g clip-path="url(#x)"><path fill="none" stroke="#000" stroke-linecap="round" stroke-linejoin="round" stroke-miterlimit="10" stroke-width=".5" d="M267.29688 479.72656l-6.92188 1.20313"/></g><g clip-path="url(#y)"><path fill="none" stroke="#000" stroke-linecap="round" stroke-linejoin="round" stroke-miterlimit="10" stroke-width=".5" d="M267.29688 479.72656l1.5078 1.9375"/></g><g clip-path="url(#z)"><path fill="none" stroke="#000" stroke-linecap="round" stroke-linejoin="round" stroke-miterlimit="10" stroke-width=".5" d="M280.57813 479.5625l-6.85547 1.53516"/></g><g clip-path="url(#A)"><path fill="none" stroke="#000" stroke-linecap="round" stroke-linejoin="round" stroke-miterlimit="10" stroke-width=".5" d="M280.57813 479.5625l1.59765 1.86328"/></g><g clip-path="url(#B)"><path fill="none" stroke="#000" stroke-linecap="round" stroke-linejoin="round" stroke-miterlimit="10" stroke-width=".5" d="M293.8086 479.24219l-6.6836 2.17187"/></g><g clip-path="url(#C)"><path fill="none" stroke="#000" stroke-linecap="round" stroke-linejoin="round" stroke-miterlimit="10" stroke-width=".5" d="M293.8086 479.24219l1.76562 1.70312"/></g><g clip-path="url(#D)"><path fill="none" stroke="#000" stroke-linecap="round" stroke-linejoin="round" stroke-miterlimit="10" stroke-width=".5" d="M307.07422 479.10938l-6.58594 2.4414"/></g><g clip-path="url(#E)"><path fill="none" stroke="#000" stroke-linecap="round" stroke-linejoin="round" stroke-miterlimit="10" stroke-width=".5" d="M307.07422 479.10938l1.83594 1.6289"/></g><g clip-path="url(#F)"><path fill="none" stroke="#000" stroke-linecap="round" stroke-linejoin="round" stroke-miterlimit="10" stroke-width=".5" d="M320.46094 479.3125l-6.72656 2.03125"/></g><g clip-path="url(#G)"><path fill="none" stroke="#000" stroke-linecap="round" stroke-linejoin="round" stroke-miterlimit="10" stroke-width=".5" d="M320.46094 479.3125l1.72656 1.74219"/></g><g clip-path="url(#H)"><path fill="none" stroke="#000" stroke-linecap="round" stroke-linejoin="round" stroke-miterlimit="10" stroke-width=".5" d="M333.82813 479.51953l-6.83594 1.6211"/></g><g clip-path="url(#I)"><path fill="none" stroke="#000" stroke-linecap="round" stroke-linejoin="round" stroke-miterlimit="10" stroke-width=".5" d="M332.83594 479.7539l.8086.92188"/></g><g clip-path="url(#J)"><path fill="none" stroke="#000" stroke-linecap="round" stroke-linejoin="round" stroke-miterlimit="10" stroke-width=".5" d="M346.4375 478.09766l-5.42578 4.46484"/></g><path fill="none" stroke="#000" stroke-linecap="round" stroke-linejoin="round" stroke-miterlimit="10" stroke-width=".5" d="M345.64844 478.7461l1.13281.46874"/><g clip-path="url(#K)"><path fill="none" stroke="#000" stroke-linecap="round" stroke-linejoin="round" stroke-miterlimit="10" stroke-width=".5" d="M358.96484 477.38672l-3.84765 5.88281"/></g><path fill="none" stroke="#000" stroke-linecap="round" stroke-linejoin="round" stroke-miterlimit="10" stroke-width=".5" d="M358.40234 478.24219l1.22266.11328"/><g clip-path="url(#L)"><path fill="none" stroke="#000" stroke-linecap="round" stroke-linejoin="round" stroke-miterlimit="10" stroke-width=".5" d="M373.24219 478.32813l-5.77344 4.0039"/></g><path fill="none" stroke="#000" stroke-linecap="round" stroke-linejoin="round" stroke-miterlimit="10" stroke-width=".5" d="M372.40234 478.91016l1.08985.5625"/><g clip-path="url(#M)"><path fill="none" stroke="#000" stroke-linecap="round" stroke-linejoin="round" stroke-miterlimit="10" stroke-width=".5" d="M385.95313 477.65625L381.39063 483"/></g><g clip-path="url(#N)"><path fill="none" stroke="#000" stroke-linecap="round" stroke-linejoin="round" stroke-miterlimit="10" stroke-width=".5" d="M397.65625 476.8789l-1.33984 6.89844"/></g><g clip-path="url(#O)"><path fill="none" stroke="#000" stroke-linecap="round" stroke-linejoin="round" stroke-miterlimit="10" stroke-width=".5" d="M410.91016 476.86719l-1.21875 6.92187"/></g><path fill="none" stroke="#000" stroke-linecap="round" stroke-linejoin="round" stroke-miterlimit="10" stroke-width=".5" d="M410.73438 477.875l1.16406-.3789"/><g clip-path="url(#P)"><path fill="none" stroke="#000" stroke-linecap="round" stroke-linejoin="round" stroke-miterlimit="10" stroke-width=".5" d="M423.28906 476.83203l.65625 6.9961"/></g><path fill="none" stroke="#000" stroke-linecap="round" stroke-linejoin="round" stroke-miterlimit="10" stroke-width=".5" d="M423.28906 476.83203l2.05078-1.35156"/><g clip-path="url(#Q)"><path fill="none" stroke="#000" stroke-linecap="round" stroke-linejoin="round" stroke-miterlimit="10" stroke-width=".5" d="M437.44922 476.85547l-1.03516 6.94922"/></g><path fill="none" stroke="#000" stroke-linecap="round" stroke-linejoin="round" stroke-miterlimit="10" stroke-width=".5" d="M437.44922 476.85547l2.3125-.82031"/><g clip-path="url(#R)"><path fill="none" stroke="#000" stroke-linecap="round" stroke-linejoin="round" stroke-miterlimit="10" stroke-width=".5" d="M449.83203 476.83984l.83203 6.97657"/></g><path fill="none" stroke="#000" stroke-linecap="round" stroke-linejoin="round" stroke-miterlimit="10" stroke-width=".5" d="M449.83203 476.83984l2.01563-1.39843"/><g clip-path="url(#S)"><path fill="none" stroke="#000" stroke-linecap="round" stroke-linejoin="round" stroke-miterlimit="10" stroke-width=".5" d="M464.09375 476.85547l-1.0664 6.94531"/></g><path fill="none" stroke="#000" stroke-linecap="round" stroke-linejoin="round" stroke-miterlimit="10" stroke-width=".5" d="M463.9375 477.86719l1.16016-.40625"/><g clip-path="url(#T)"><path fill="none" stroke="#000" stroke-linecap="round" stroke-linejoin="round" stroke-miterlimit="10" stroke-width=".5" d="M147.51172 467.13672l-7.02344-.2461"/></g><path fill="none" stroke="#000" stroke-linecap="round" stroke-linejoin="round" stroke-miterlimit="10" stroke-width=".5" d="M147.51172 467.13672l1.07422 2.20703m-2.09766-2.24219l.53906 1.10156m13.80078-1.1328l-7.02734-.11329m7.02734.11328l1.1172 2.1836m-2.14063-2.19922l.5586 1.08984m13.74608-1.61328l-6.96093.96484m6.96094-.96484l1.4414 1.98828m-2.45312-1.84765l.71875.99218m13.6328-.92187l-7.0078.54297m7.0078-.54297l1.31642 2.07031m-2.33594-1.99219l.65625 1.03516m13.66797-1.21094l-6.98828.73828m6.98828-.73828l1.375 2.03125m11.95312-1.88281l-7.01172.4414m7.01172-.4414l1.28516 2.09375m12.03515-1.97266l-7.02343.19922m7.02343-.19922l1.21094 2.13281m12.07813-2.46484l-6.97266.86328m6.97266-.86328l1.41015 2.00781m11.875-2.21093l-6.91015 1.26953m6.91015-1.26953l1.52344 1.92187m11.73438-2.17969l-6.79688 1.78516m6.79688-1.78516l1.66406 1.8047m11.52344-2.19142l-6.54297 2.5586m6.54297-2.5586l1.86328 1.59766m11.47265-1.54687l-6.58203 2.45703m6.58203-2.45703l1.83594 1.6289m11.49219-1.59375l-6.60938 2.38672m6.60938-2.38672l1.82031 1.64453m11.4375-1.78515l-6.4961 2.66797m6.4961-2.66797l1.89063 1.5625m11.28906-1.85547l-6.22656 3.2539m6.22656-3.2539l2.02734 1.38672m11.08985-1.72266l-5.82813 3.92578m4.98047-3.35156l1.08203.57422m12.63281-1.6875l-4.9336 5.0039m4.21485-4.27343l1.17578.34765m13.71485.28516l-6.64844 2.27734m5.6836-1.9453l.89453.83593m12.03906-2.9336l-3.95313 5.8086m18.13672-4.96485l-5.6914 4.1211m4.86328-3.51953l1.10156.53906m13.5-.27344l-6.60938 2.38672m5.64844-2.03906l.91016.82422m12.71094-2.28907l-5.29688 4.6211m5.29688-4.6211l2.29296.87891m10.35938-1.46875l-3.97266 5.80078m3.39453-4.95703l1.21875.13672m11.81641-1.40625l-2.2539 6.65234m2.2539-6.65234l2.42188-.39844m10.64453.32422l-1.75782 6.80078m1.75782-6.80078l2.3828-.57422"/><g clip-path="url(#U)"><path fill="none" stroke="#000" stroke-linecap="round" stroke-linejoin="round" stroke-miterlimit="10" stroke-width=".5" d="M147.5 454.01953l-7-.64062"/></g><path fill="none" stroke="#000" stroke-linecap="round" stroke-linejoin="round" stroke-miterlimit="10" stroke-width=".5" d="M147.5 454.01953l.94922 2.26172m-1.96875-2.35547l.47656 1.13281m13.83203-.83593l-6.94922-1.04688m6.94922 1.04688l.8164 2.3125m12.4922-2.27344l-6.9336-1.1289m6.9336 1.1289l.78906 2.32422m12.55469-2.53125l-6.9922-.71094m6.9922.71094l.92578 2.27344m12.39844-2.41797l-7.01172-.42188m7.01172.42188l1.01953 2.23437m-2.03907-2.29687l.51172 1.11718m13.82813-1.4453l-7.01953.35937m7.01953-.35938l1.25781 2.10547m-2.28125-2.05469l.63281 1.05469m13.6914-1.26172l-6.99218.67188m6.99219-.67188l1.35547 2.04688m-2.3711-1.94922l.67578 1.02344m13.58204-1.58204l-6.84766 1.58985m6.84766-1.58985l1.60937 1.85157m-2.60547-1.6172l.80469.92188m13.2539-1.8789l-6.33984 3.03515m6.33985-3.03515l1.97265 1.45703m-2.89844-1.01563l1.97657 1.45704m12.33594-1.73047l-6.48438 2.70312m6.48438-2.70312l1.89843 1.55859m-2.83984-1.16406l1.89453 1.55469m12.25-2.19532l-6.26172 3.19532m6.26172-3.19532l2.01172 1.40625m-2.92188-.9414l1.00391.70312m13.20703-1.19531l-6.23047 3.25m6.23047-3.25l2.02344 1.39062m-2.92969-.91796l1.01172.6953m13.24219-1.10546l-6.29688 3.125m6.29688-3.125l1.99219 1.42969m11.11718-1.78516l-5.88672 3.83594m5.88672-3.83594l2.14844 1.1875m11.10156-1.28516l-5.75781 4.03125m5.75781-4.03125l2.1875 1.11329m11.17578-1.04297l-5.85156 3.89062m5.85156-3.89062l2.15625 1.16406m10.63282-1.78516l-4.80079 5.1289m4.80079-5.1289l2.37109.64063m9.34375-1.4961l-1.60156 6.84375m1.60156-6.84375l2.3711-.6289m8.33984 1.03515l3.60937 6.02735m-3.60937-6.02735l1.26562-2.10156m10.39063 4.52344l6.92578 1.1836m-5.91797-1.01173l-.38672-1.16406m19.4336 2.85156l-6.5547-2.53515m5.60157 2.16797l.14453 1.21875m14.30078-2.76563l-6.90625 1.29688m6.90625-1.29688l1.53125 1.91797m11.6836-2.32422l-6.70704 2.10938m6.70704-2.10938l1.74609 1.72266m11.04297-2.75781l-5.65235 4.17578m5.65235-4.17578l2.21094 1.05859m10.76562-1.44922l-4.97656 4.96094"/><g clip-path="url(#V)"><path fill="none" stroke="#000" stroke-linecap="round" stroke-linejoin="round" stroke-miterlimit="10" stroke-width=".5" d="M466.05078 451.21875l2.34375.72266"/></g><g clip-path="url(#W)"><path fill="none" stroke="#000" stroke-linecap="round" stroke-linejoin="round" stroke-miterlimit="10" stroke-width=".5" d="M147.38281 441.32813l-6.76562-1.89063"/></g><path fill="none" stroke="#000" stroke-linecap="round" stroke-linejoin="round" stroke-miterlimit="10" stroke-width=".5" d="M147.38281 441.32813l.52735 2.39843m-1.51172-2.67187l.26562 1.19922m13.94922-.66016l-6.59766-2.42188m6.59766 2.42188l.33203 2.4336m-1.29297-2.78516l.16797 1.21484m14.15235-.99219l-6.6836-2.16406m6.6836 2.16406l.42968 2.41797m12.85157-2.32031l-6.6172-2.35938m6.6172 2.35938l.35937 2.42578m13.13672-3.1914l-6.98047-.82813m6.98047.82812l.88672 2.28907m-1.90234-2.40625l.4453 1.14062m13.8711-1.94922l-6.95312 1.02344m6.95312-1.02344l1.45703 1.97657m-2.46875-1.82422l.72656.98437m13.51954-1.53125l-6.78907 1.8125m6.78907-1.8125l1.67187 1.79688m11.64844-1.78125l-6.80078 1.78125m6.80078-1.78125l1.66406 1.80468m11.41406-2.4453l-6.32422 3.0625m6.32422-3.0625l1.98047 1.44921m-2.90234-1.0039l.99219.72656m12.33593-2.33203l-4.51172 5.38671m4.51172-5.38671l2.40235.5039m-3.0586.27735l1.20313.2539m13.40234-.33984l-5.77734 3.9961m5.77734-3.9961l2.17969 1.125m-3.01953-.54297l1.08984.5625m12.92188-1.33984l-5.49219 4.3828m5.49219-4.3828l2.2539.97656m-3.05078-.33985l1.125.48829m13.10938-.96094l-5.73828 4.05469m5.73828-4.0547l2.1914 1.10157m-3.02343-.51172l1.09375.55078m12.41015-1.83203l-4.44922 5.4375m4.44922-5.4375l2.40625.48438m-3.05078.3086l1.20313.23827m13.11718-.6914l-5.17187 4.7578m5.17187-4.7578l2.31641.8164m-3.0664-.125l1.15624.41016m12.79688-1.21875l-4.94531 4.99219m4.9453-4.9922l2.34766.70704m-3.0664.01953l1.17187.35156m12.85938-1.07812l-4.9414 4.9961m4.9414-4.9961l2.35156.70312m-3.07031.02344l1.17578.35156m11.51953-1.90625l-2.26562 6.65235m2.26562-6.65235l2.42188-.39453m-2.75 1.35938l1.21093-.19531m9.91016-.67188l2.78125 6.45313m-2.78125-6.45313l1.53516-1.91406m-1.12891 2.85156l.76562-.95703m11.20704.61328l4.65234 5.26953m-4.65234-5.26953l.86328-2.29687m16.26953 1.75l-2.98438 6.36328m2.98438-6.36328l2.44922-.125m12.42187 1.55859l-6.09765 3.49219m6.09765-3.4922l2.07813 1.3086m-2.96485-.80078l1.03907.65625m12.92187-1.53125L434.125 442.5m5.61328-4.23047l2.22266 1.03516m11.65625.08984L446.875 441.375m6.74219-1.98047l1.71484 1.75m10.42969-3.5l-4.40235 5.47656m3.76172-4.67968l1.20703.23047"/><g clip-path="url(#X)"><path fill="none" stroke="#000" stroke-linecap="round" stroke-linejoin="round" stroke-miterlimit="10" stroke-width=".5" d="M147.44531 427.7539l-6.89062-1.37109"/></g><path fill="none" stroke="#000" stroke-linecap="round" stroke-linejoin="round" stroke-miterlimit="10" stroke-width=".5" d="M147.44531 427.7539l.70703 2.34766m-1.71093-2.54687l.35547 1.17578m13.97656-1.03906l-6.91797-1.2461m6.91797 1.2461l.75 2.33593m-1.75781-2.51953l.375 1.16797m13.96093-1.0625l-6.9414-1.08984m6.9414 1.08984l.80078 2.3164m-1.8125-2.47655l.40235 1.16015m13.91015-.91406l-6.91406-1.26172m6.91406 1.26172l.7422 2.33984m-1.75-2.52344l.375 1.16797m14.0039-1.60547l-7.02735-.01953m7.02735.01953l1.14453 2.17188m12.14453-2.6211l-6.97266.87891m6.97266-.8789l1.41406 2.0039m11.67969-2.86328l-6.53125 2.59766m6.53125-2.59766l1.8711 1.58985m11.6914-.3672l-7.02734.15235m7.02734-.15234l1.19922 2.14062m11.83594-3.4375l-6.46875 2.7461m6.46875-2.7461l1.90625 1.54688m10.42187-2.875l-4.49219 5.40234m4.4922-5.40234l2.40234.5m11.32812-.09375l-5.32422 4.58984m5.32422-4.58984l2.28516.89062m10.30468-1.52734L288.53125 430m3.8711-5.86328l2.4414.23047m11.25781.0625l-4.64062 5.27734m4.64062-5.27734l2.38672.5664m9.97656-1.16406l-2.73828 6.47266m2.73828-6.47266l2.44532-.21484m-2.84375 1.15625l1.22265-.10547m13.23047-.41016l-4.21484 5.6211m4.21484-5.6211l2.42578.3789m-3.03906.4375l1.21094.19142m13.3125-.4375l-5.41016 4.48437m5.41016-4.48437l2.26953.92968m11.20312-.73047l-5.72265 4.08204m5.72265-4.08204l2.19532 1.09375m10.33984-1.8828l-4.16016 5.66405m4.16016-5.66406l2.42578.35156m-3.03125.46875l2.42578.35547m10.96094-1.5l-3.09766 6.3086m3.09766-6.3086l2.45313-.07812m-2.90235.9961l2.45313-.07813m12.46093.0625l-5.39453 4.5039m5.39453-4.5039l2.27344.92187m-3.0586-.26562l2.27345.92187m11.5703-1.85156l-4.8828 5.05078m4.8828-5.05078l2.35938.67578m-3.07031.0586l2.35938.67968m-3.06641.05469l1.17578.33984m13.23438-2.08594l-4.23829 5.60547m4.23829-5.60547l2.42578.38672m-3.04297.4297l2.42578.38671m10.52734-1.72266l-2.27734 6.64453m2.27734-6.64453l2.42188-.39062m-2.7539 1.35547l1.21093-.1914m12.9336-.5625l-3.27344 6.22265m3.27343-6.22266l2.45313-.00781m-2.92969.91406l1.22656-.0039m11.23047-1.29297l-.60156 7.0039m.51172-5.98437l1.1289-.48047"/><g clip-path="url(#Y)"><path fill="none" stroke="#000" stroke-linecap="round" stroke-linejoin="round" stroke-miterlimit="10" stroke-width=".5" d="M147.47266 414.28906l-6.94532-1.07031"/></g><path fill="none" stroke="#000" stroke-linecap="round" stroke-linejoin="round" stroke-miterlimit="10" stroke-width=".5" d="M147.47266 414.28906l.80859 2.3164m-1.82031-2.47265l.40625 1.16016m13.92187-1.0039l-6.94531-1.07032m6.94531 1.07031l.8086 2.3164m-1.82032-2.47265l.40235 1.16016m13.96094-1.42578l-7.02344-.22657m7.02344.22657l1.08203 2.19922m-2.10157-2.23438l.53907 1.10156m13.6914-2.03515l-6.8125 1.71093m6.8125-1.71093l1.64453 1.82031m10.6172-3.57422l-4.70704 5.21875m4.02344-4.46094l1.1875.29688m13.17578-.67188l-5.4375 4.45313m17.0586-2.22656l-.01954-.19922-.0586-.1914-.09374-.1797-.46094-.375-.1914-.05859-.19923-.01953-.19921.01953-.19141.0586-.46094.375-.09375.17968-.0586.1914-.01952.19923.01953.19921.0586.19141.09374.17578.46094.3789.1914.0586.19923.01953.19921-.01953.19141-.0586.46094-.3789.09375-.17578.0586-.1914.01952-.19922m14.91797 2.33593l-5.25-4.67187m5.25 4.67187l-.58203 2.38282m14.76953-4.39454l-6.9961-.64843m6.9961.64843l.94531 2.26563m11.86328-4.42969l-5.98828 3.67578m5.98828-3.67578l2.1172 1.2461m-2.98829-.71094l1.0586.6211m13.10156-1.19923l-5.9336 3.76172m5.9336-3.76172l2.13281 1.21485m9.17578-2.71094l-1.91797 6.75781m1.91797-6.75781l2.39844-.51953m11.42187.70703l-2.93359 6.38281m2.50781-5.45703l1.22656-.07031m13.53907-.14453l-4.97657 4.96093m4.97657-4.96093l2.34375.71875m-3.07032.0039l1.17188.35938m12.24219-1.58203l-3.72266 5.96093m3.72266-5.96093l2.44531.16797m-2.98828.69921l1.22265.08594m12.65625-.9414l-3.76562 5.93359m3.76562-5.9336l2.44532.19141m-2.99219.67188l1.22266.09765m14.02343.71485l-6.53515 2.58593m6.53515-2.58593l1.8672 1.58593m11.2539-1.99609l-6.14844 3.40625m6.14844-3.40625l2.0586 1.33594m-2.95313-.83985l1.02734.66797m12.85937-1.64453l-5.5039 4.36719m5.5039-4.36719l2.25.97656m-3.05078-.34375l2.25.98047m-3.05078-.34375l1.125.4922m13.83203-1.71095l-5.58203 4.26563m5.58203-4.26563l2.23047 1.02344m-3.04297-.40234l2.23047 1.02343m-3.04297-.40234l1.1172.51172m13.39452-2.22266l-4.72656 5.20313m4.72656-5.20313l2.3789.60547m-3.0664.15235l2.3789.60546m10.10938-2.17187l-1.6953 6.82031m1.6953-6.82031l2.37891-.59375m-2.625 1.58594l2.3789-.59375m10.72266-.48047l-.78125 6.98437m.78125-6.98437l2.28125-.90235m-2.39453 1.91797l1.14063-.45312m13.69921-.08985l-3.60156 6.03516m3.60156-6.03516l2.44922.1211m11.32032.20312l-4.51172 5.38672"/><g clip-path="url(#Z)"><path fill="none" stroke="#000" stroke-linecap="round" stroke-linejoin="round" stroke-miterlimit="10" stroke-width=".5" d="M465.8164 411.0586l2.40235.51171"/></g><g clip-path="url(#aa)"><path fill="none" stroke="#000" stroke-linecap="round" stroke-linejoin="round" stroke-miterlimit="10" stroke-width=".5" d="M147.46875 401.0039l-6.9375-1.1289"/></g><path fill="none" stroke="#000" stroke-linecap="round" stroke-linejoin="round" stroke-miterlimit="10" stroke-width=".5" d="M147.46875 401.0039l.78906 2.32032m12.5625-2.63281l-7.00781-.50391m7.00781.5039l.99219 2.2422m12.25-3.25391l-6.86328 1.51562m6.86328-1.51562l1.58984 1.86719m10.4297-3.89844l-4.27345 5.57812m4.27344-5.57812l2.41797.40234m10.5625-.6289l-3.60547 6.03125m3.08203-5.15235l1.22656.0625m7.42579 1.125l6.76562 1.90235m-5.78125-1.625l-.26172-1.19922m17.77344 4.89062l-3.59375-6.03906m3.07031 5.16015l-.63672 1.05079m16.1875-3.34375l-7.01953.30468m7.01953-.30468l1.2461 2.11328m-2.26563-2.07031l.6211 1.05859M254.0078 400l-6.97265.875m6.97265-.875l1.41016 2.00781m-2.42578-1.8789l.70703 1.0039m13.60547-1.26172l-6.9375 1.13672m6.9375-1.13672l1.48437 1.94922m11.875-1.35547l-7.02734-.05078m7.02734.05078l1.13672 2.17579m-2.16016-2.1836l.57032 1.08594m13.27343-2.90235l-6.03906 3.59375m6.03906-3.59375l2.09766 1.27344m-2.97656-.75l1.05078.63672m13.5-.33203l-6.7539 1.9414m6.7539-1.9414l1.70703 1.76172m-2.6875-1.48047l.85156.88281m12.98047-2.16015l-5.82422 3.93359m5.82422-3.9336l2.16797 1.14844m-3.01562-.57812l1.08203.57422m12.95703-1.3164l-5.57813 4.27343m5.57813-4.27344l2.23437 1.01953m-3.04687-.39844l1.11719.51172m13.6875.42188l-6.9297 1.16406m6.9297-1.16406l1.49609 1.94922m-2.5039-1.77735l.74609.97266m13.625-.67578l-7.02344.22656m7.02344-.22656l1.21875 2.1289m-2.24219-2.09375l.60937 1.0625m13.25391-2.75l-6.07422 3.53516m6.07422-3.53515l2.08203 1.29296m-2.96875-.78125l2.08594 1.29297m11.20312-2.83594l-4.25 5.59766m4.25-5.59765l2.42188.39062m-3.04297.42188l2.42188.39453m-3.03907.42187l1.21094.19531m14.16406-.9375l-5.89453 3.82422m5.89453-3.82422l2.14453 1.19141m-3-.63672l1.07032.59766m13.60156.08984l-6.89844 1.33985m6.89844-1.33985l1.54297 1.90625m-2.54688-1.71094l.77344.95313m12.0586-3.39453l-3.92188 5.83203m3.92187-5.83203l2.44141.2539m-3.01172.59375l1.21875.12891m11.96875-1.33984l-2.52734 6.55468m2.52734-6.55468l2.4375-.29297m-2.80469 1.2461l2.4375-.29298m12.4922.16016l-5.01954 4.91797m4.28906-4.20313l1.16797.3711m12.83985-1.1211l-4.94922 4.98828"/><g clip-path="url(#ab)"><path fill="none" stroke="#000" stroke-linecap="round" stroke-linejoin="round" stroke-miterlimit="10" stroke-width=".5" d="M466.03516 397.94531l2.35156.70703"/></g><path fill="none" stroke="#000" stroke-linecap="round" stroke-linejoin="round" stroke-miterlimit="10" stroke-width=".5" d="M465.3164 398.67188l1.17579.35156"/><g clip-path="url(#ac)"><path fill="none" stroke="#000" stroke-linecap="round" stroke-linejoin="round" stroke-miterlimit="10" stroke-width=".5" d="M147.28516 388.375l-6.57032-2.5"/></g><path fill="none" stroke="#000" stroke-linecap="round" stroke-linejoin="round" stroke-miterlimit="10" stroke-width=".5" d="M147.28516 388.375l.30468 2.4336m13.20703-3.21094l-6.96484-.94922m6.96484.94922l.84766 2.30078m10.98828-5.66016l-4.0039 5.77344m4.0039-5.77344l2.4375.28516m9.77735-.79688l-1.8047 6.79297m1.8047-6.79297l2.39062-.55469m10.22266.44532l-.40235 7.01562m.40235-7.01562l2.22656-1.02735m-2.28516 2.04688l1.11328-.51563m15.0547 1.16797l-5.9922 3.66797m5.9922-3.66797l2.11327 1.2461m11.70313.93359l-6.99219-.6914m6.99219.6914l.9336 2.26953m-1.94923-2.3711l.46485 1.13673m13.86719-1.71485l-6.9961.66797m6.9961-.66797l1.35156 2.04688m-2.3711-1.94922l.6797 1.02344m13.65624-1.10547l-7 .63672m7-.63672l1.34375 2.05469M253 386.89844l.67188 1.02734m13.60937-1.48437l-6.89063 1.36328m6.89063-1.36328l1.55078 1.90234m-2.55078-1.70313l1.54688 1.90235m12.83593-1.3125l-7.02344-.21485m7.02344.21485l1.08594 2.19922m-2.10938-2.23047l1.08594 2.19922m13.07422-3.3789l-6.67187 2.20702m6.67187-2.20703l1.77344 1.6914m-2.74219-1.37109l1.77344 1.69532m12.58203-1.77344l-6.8125 1.72656m6.8125-1.72656l1.64844 1.8164m-2.64063-1.5664l.82422.90625m13.44531-1.28906l-6.73828 1.98828m6.73828-1.98828l1.71875 1.7539m-2.69921-1.46484l1.71875 1.7539m12.41406-2.48437l-6.41406 2.8711m6.41406-2.8711l1.9375 1.50781m-2.8711-1.08984l.96875.7539m13.3047-1.11718l-6.46095 2.76172m6.46094-2.76172l1.91016 1.53906m-2.85156-1.13672l.95703.76953m13.43359-.80469l-6.73047 2.02735m6.73047-2.02735l1.72656 1.7422m-2.70703-1.44532l1.72656 1.74219m-2.70312-1.44922l.86328.8711m14.13281-2.1172l-6.17968 3.33985m6.17968-3.33985l2.04688 1.35938m-2.94531-.875l2.04296 1.35938m-2.9414-.8711l2.04297 1.35547m12.76172-2.80469l-5.5625 4.29297m5.5625-4.29297l2.23437 1.01172m-3.04297-.38672l2.23438 1.01172m-3.04688-.38672l2.23828 1.01172m12.88282-1.9961l-5.9336 3.76563m5.9336-3.76562l2.1328 1.21094m-2.99609-.66407L401.22266 387m-2.9961-.66406l1.0664.60547m13.78126-1.97657l-5.54688 4.31641m5.54688-4.3164l2.23828 1.0039m-3.04297-.375l2.23828 1.0039m11.03125-2.41406l-3.84765 5.87891m3.84765-5.8789l2.44532.22265m-3.00391.63281l1.22266.10938m12.8828-.80078l-4.30859 5.55078m4.3086-5.55078l2.41797.41796m-3.04688.39063l1.21094.20703m13.03906-.75l-4.92187 5.01953m4.92187-5.01953l2.35156.69531m-3.0664.03516l1.17578.34766m12.67969-1.23438l-4.57422 5.33203"/><g clip-path="url(#ad)"><path fill="none" stroke="#000" stroke-linecap="round" stroke-linejoin="round" stroke-miterlimit="10" stroke-width=".5" d="M465.84766 384.45703l2.39453.53516"/></g><path fill="none" stroke="#000" stroke-linecap="round" stroke-linejoin="round" stroke-miterlimit="10" stroke-width=".5" d="M465.1836 385.23047l2.39452.53515"/><g clip-path="url(#ae)"><path fill="none" stroke="#000" stroke-linecap="round" stroke-linejoin="round" stroke-miterlimit="10" stroke-width=".5" d="M147.16016 375.34766l-6.32032-3.07813"/></g><path fill="none" stroke="#000" stroke-linecap="round" stroke-linejoin="round" stroke-miterlimit="10" stroke-width=".5" d="M146.23828 374.89844l.04688 1.22656m14.51953-1.91016l-6.98047-.8164m5.96484.69922l.44531 1.14453m11.98047-4.57031l-3.16797 6.27343m3.16797-6.27344l2.45313-.05078m11.375.3711l-4.19531 5.63281m4.1953-5.63281l2.42579.36719m-3.03516.44921l1.21094.1875m13-.76953l-4.76953 5.16406m4.07422-4.41406l1.1875.3125m13.58203-.05078l-6.28516 3.14063m6.28516-3.14063l2 1.42188m-2.91406-.96485l1 .71094m13.0625 2.26563l-5.95313-3.73047m5.95313 3.73046l-.17188 2.44922m13.9375-3.54296l-6.85547-1.53907m6.85547 1.53906l.65235 2.36329m-1.64844-2.58985l.32422 1.1836m14.07422-1.69141l-7.02735-.07031m7.02735.07031l1.1289 2.17969m-2.15234-2.1875l.5664 1.08594m13.75782-1.41797l-7 .60546m7-.60546l1.33594 2.0625m-2.35547-1.97266l.66797 1.03125m13.67968-.86328l-7.02734.09375m7.02734-.09375l1.17969 2.14844m-2.20313-2.13672l.59375 1.07422m13.71485-1.48438l-6.96875.89063m6.96875-.89063l1.41797 2.0039m-2.42969-1.875l.70703 1.00391m13.60938-1.21875l-6.94532 1.0625m6.94532-1.0625l1.46484 1.96875m-2.47656-1.8125l1.46875 1.96485m12.86718-2.05469l-6.96484.92969m6.96484-.92969l1.4297 1.9961m-2.44141-1.85938l1.42578 1.99219m-2.4414-1.85938l.71483 1m14.6172-1.34765l-6.94532 1.08593m6.94531-1.08594l1.47266 1.96485m-2.48438-1.80469l1.47266 1.96094m-2.48047-1.80469l.73438.98047m14.6328-1.02734l-7.0078.54687m7.0078-.54687l1.31641 2.0664m-2.33593-1.98828l1.3164 2.07031m-2.33593-1.98828l.65625 1.03125m14.70312-1.0625l-7.01953.28516m7.01953-.28516l1.23828 2.1211m-2.25781-2.07813l1.23828 2.11719m-2.26172-2.07422l.6211 1.0586m14.6953-1.5586l-6.9375 1.11328m6.9375-1.11328l1.48048 1.95703m-2.48828-1.79297l1.48046 1.95703m-2.49218-1.79687l.74218.98047m14.34766-2.14844l-6.44531 2.80469m6.44531-2.80469l1.91797 1.52734m-2.85547-1.12109l1.91797 1.52734m-2.85547-1.11718l.95703.76171m13.98047-2.05078l-5.9414 3.75m5.9414-3.75l2.1289 1.21485m-2.99218-.67188l2.1289 1.21875m-2.99609-.67187l1.0664.60937m13.65235-2.13672l-5.28906 4.625m5.28906-4.625l2.29297.8711m-3.0625-.19922l2.29297.8711m11.86719-1.45704l-5.4375 4.45313m5.4375-4.45313l2.26172.94531m-3.0547-.29687l1.13282.47265m12.6914-1.42578l-4.87109 5.0625m4.8711-5.0625l2.35937.67188m-3.0664.0625l1.17968.33594m12.75391-1.15235l-4.69531 5.22656m4.69531-5.22656l2.38281.58985m-3.0664.16796l1.1914.29688m12.625-1.21094l-4.32812 5.53516"/><g clip-path="url(#af)"><path fill="none" stroke="#000" stroke-linecap="round" stroke-linejoin="round" stroke-miterlimit="10" stroke-width=".5" d="M465.72656 371.03906l2.41406.42969"/></g><path fill="none" stroke="#000" stroke-linecap="round" stroke-linejoin="round" stroke-miterlimit="10" stroke-width=".5" d="M465.09766 371.84766l2.41406.42578"/><g clip-path="url(#ag)"><path fill="none" stroke="#000" stroke-linecap="round" stroke-linejoin="round" stroke-miterlimit="10" stroke-width=".5" d="M146.73828 362.69531l-5.47656-4.40625"/></g><path fill="none" stroke="#000" stroke-linecap="round" stroke-linejoin="round" stroke-miterlimit="10" stroke-width=".5" d="M145.9414 362.05469l-.23046 1.20703m14.71094-1.125l-6.21094-3.28516m5.30469 2.80469l.0039 1.23047m14.59766-2.82031l-6.97656.85156m5.96093-.72656l.70313 1.0039m13.41406-1.97265l-6.55078 2.54296m6.55078-2.54296l1.85938 1.60156m11.42968-1.67578l-6.49219 2.6914m6.4922-2.6914l1.89062 1.5586m11.14062-2.10548l-5.92578 3.78125m5.92578-3.78125l2.13281 1.20703m11.59375 1.65625l-6.75-1.9414m6.75 1.9414l.50782 2.39844m-1.48828-2.67969l.2539 1.19922m14.07422-1.03906l-6.8164-1.70313m6.8164 1.70313l.59375 2.38281m-1.58594-2.6289l.29688 1.1914m14.02344-.9961l-6.84375-1.60155m6.84375 1.60156l.6289 2.3711m-1.625-2.60157l.3164 1.1836m14.07032-1.42188l-6.9961-.66016m6.9961.66016l.94531 2.26172m-1.96093-2.35938l.47265 1.13281m13.8711-1.22265l-7.01953-.28906m7.01953.28906l1.0625 2.21484m-2.08203-2.25781l1.0625 2.21484m13.27343-2.39062l-7.02344.14844m7.02344-.14844l1.19922 2.14453m-2.21875-2.1211l1.19531 2.14063m13.10938-2.57812l-6.96094.97656m6.96094-.97656l1.4414 1.98828m-2.45703-1.84375l1.44141 1.98437m-2.45313-1.84375l.72266.99219m14.65235-.7461l-7.02735-.08593m7.02735.08594l1.125 2.17968m-2.14844-2.1914l1.125 2.17969m13.05078-3.26563l-6.70313 2.10938m6.70313-2.10938l1.75 1.72266m-2.72656-1.41407l1.75 1.71875m12.625-1.72265l-6.8672 1.5m6.8672-1.5l1.58593 1.8711m-2.58593-1.65235l.79296.9336m13.57813-.79298l-6.98047.78125m6.98047-.78125l1.38672 2.02735m-2.40235-1.91407l1.38672 2.02735m12.92188-2.3164l-6.9375 1.1328m6.9375-1.1328l1.48437 1.95312m-2.49218-1.78907l1.48437 1.95313m-2.4961-1.78516l.7422.97656m14.38671-2.05078l-6.52343 2.6172m6.52343-2.6172l1.875 1.58204m-2.82421-1.19922l1.875 1.58203m-2.82422-1.20313l.9375.79297m14.14062-1.85156l-6.2539 3.21094m6.2539-3.21094l2.01172 1.40234m-2.92188-.9336l2.01172 1.40235m-2.92187-.9375l1.00781.70313m13.61328-2.3789l-5.22265 4.69921m5.22265-4.69922l2.30469.83985m-3.0664-.15625l2.30468.83984m-3.0625-.15625l1.15235.41797m13.4453-2.02735l-4.75 5.1797m4.75-5.1797l2.375.6172m-3.0664.13671l2.375.61719m11.69922-1.3086l-4.88672 5.0547m4.88672-5.0547l2.35547.6797m11.02344-.61329l-5.01563 4.92578m5.01563-4.92578l2.33984.73828m11.26953-.39453l-5.60547 4.23828"/><g clip-path="url(#ah)"><path fill="none" stroke="#000" stroke-linecap="round" stroke-linejoin="round" stroke-miterlimit="10" stroke-width=".5" d="M466.36328 358.375l2.22656 1.03125"/></g><path fill="none" stroke="#000" stroke-linecap="round" stroke-linejoin="round" stroke-miterlimit="10" stroke-width=".5" d="M465.54688 358.99219l1.11328.51562"/><g clip-path="url(#ai)"><path fill="none" stroke="#000" stroke-linecap="round" stroke-linejoin="round" stroke-miterlimit="10" stroke-width=".5" d="M144.8711 350.58203l-1.7422-6.8086"/></g><g clip-path="url(#aj)"><path fill="none" stroke="#000" stroke-linecap="round" stroke-linejoin="round" stroke-miterlimit="10" stroke-width=".5" d="M144.61719 349.59375l-.90625.82422"/></g><path fill="none" stroke="#000" stroke-linecap="round" stroke-linejoin="round" stroke-miterlimit="10" stroke-width=".5" d="M158.8125 350.35547L155.8164 344m2.5586 5.42969l-.73438.98437m15.5547-.83203l-5.12891-4.80469m19.39062 2.5547l-7.02344-.3086m7.02344.3086l1.05469 2.21483m12.23828-1.96484l-6.98047-.8086m6.98047.8086l.89453 2.28516m12.44531-2.6875h-7.02734m7.02734 0l1.15235 2.16406m12.1211-1.625l-6.94532-1.08203m6.94531 1.08203l.80469 2.3164m-1.8164-2.47265l.40234 1.15625m13.75-.32422l-6.59375-2.42969m6.59375 2.4297l.33203 2.42968m-1.29297-2.78516l.16797 1.21485m14.0664-.75782l-6.51562-2.63671m6.51562 2.63671l.25782 2.44141m-1.20703-2.82422l.2578 2.4375m14.16016-2.51953l-6.8203-1.70703m6.8203 1.70703l.58985 2.3789m-1.58203-2.6289l.58984 2.38281m13.78516-2.48047l-6.95313-1.01171m6.95313 1.01171l.82421 2.3125m-1.83593-2.45703l.82422 2.3086m13.48828-2.07813l-6.92578-1.1836m6.92578 1.1836l.76953 2.33203m-1.77735-2.5039l.76954 2.32812m13.58203-2.34765l-6.98438-.79688m6.98438.79688l.89843 2.28125m-1.91406-2.39844l.89844 2.28125m13.45312-2.64453l-7.02734.16015m7.02734-.16015l1.19922 2.13671m-2.22265-2.11328l1.20312 2.13672m-2.22656-2.11328l1.20312 2.13672m14-3.14844l-6.71093 2.08985m6.71093-2.08985l1.7422 1.72656m-2.71876-1.42187l1.7461 1.72656m12.33203-2.5586l-6.28516 3.14454m6.28516-3.14453l2 1.42578m-2.91407-.96875l1 .71094m13.4961-.45703l-6.8164 1.72265m6.8164-1.72265l1.64453 1.8203m-2.63672-1.5703l1.64844 1.8203m12.67578-1.98827l-6.85156 1.5586m6.85156-1.5586l1.60547 1.85937m-2.60156-1.63281l1.60546 1.85938m-2.60156-1.63282l.80078.92969m14.11328-2.3789l-6.0625 3.55077m6.0625-3.55078l2.08985 1.28907m-2.97266-.77344l2.08985 1.28906m-2.97266-.76953l2.08984 1.28516m12.96875-2.35547l-6.01953 3.6211m6.01953-3.6211l2.10547 1.26172m-2.98047-.73438l2.10547 1.26172m12.20313-1.58203l-6.2539 3.20703m6.2539-3.20703l2.01172 1.40234m-2.92188-.9336l2.01172 1.40235m10.83203-3.3164l-3.49219 6.09765m3.4922-6.09765l2.45312.07812m-2.96094.8086l2.45312.07812m11.23438-1.03906l-3.22266 6.2461m3.22266-6.2461l2.45312-.03125m-2.92187.9414l2.45312-.03125m12.16016-.28515l-4.88281 5.0586m4.88281-5.0586l2.35937.67578m-3.0703.0625l1.17968.33594m13.67969.18359l-6.55078 2.54297"/><g clip-path="url(#ak)"><path fill="none" stroke="#000" stroke-linecap="round" stroke-linejoin="round" stroke-miterlimit="10" stroke-width=".5" d="M466.83594 345.90625l1.85937 1.60156"/></g><path fill="none" stroke="#000" stroke-linecap="round" stroke-linejoin="round" stroke-miterlimit="10" stroke-width=".5" d="M465.88281 346.27734l.92969.80079"/><g clip-path="url(#al)"><path fill="none" stroke="#000" stroke-linecap="round" stroke-linejoin="round" stroke-miterlimit="10" stroke-width=".5" d="M141.48047 336.3125l5.03906-4.89844"/></g><path fill="none" stroke="#000" stroke-linecap="round" stroke-linejoin="round" stroke-miterlimit="10" stroke-width=".5" d="M157.03906 337.36719l.55078-7.00781m-.47265 5.98828l-1.125.48828m16.3125.11719l-3.34766-6.1797m2.85938 5.28126l-.6797 1.01953m15.91407-1.5664l-6.21094-3.28907m5.3047 2.8125l.0039 1.22656m14.22656-.76953l-6.23047-3.2539m6.23047 3.2539l.01563 2.45703m12.46875-1.41406l-4.57032-5.33594m4.57031 5.33594l-.89453 2.28516m14.82813-2.97657l-5.80469-3.95703m5.80469 3.95703l-.26563 2.44141m13.26172-2.03516l-5.16797-4.76562m5.16797 4.76562l-.6211 2.3711m-.1328-3.0664l-.3086 1.1875m14.69531-.89063l-5.80078-3.96875m5.80078 3.96875l-.27343 2.4375m-.57031-3.01563l-.27344 2.4375m14.6289-2.1875l-6.1953-3.3125m6.1953 3.3125l-.0039 2.45313m-.89844-2.9336l-.0039 2.45313m14.3828-2.32031l-6.51953-2.6211m6.51954 2.6211l.26172 2.4414m-1.21094-2.82031l.26172 2.4375m14.1914-2.69922l-6.89843-1.33594m6.89843 1.33594l.71875 2.34766m-1.72265-2.54297l.35937 1.17578m13.96485-1.0039l-6.90625-1.28907m6.90625 1.28906l.73437 2.34375m12.38281-1.66797l-6.51172-2.64062m6.51172 2.64062l.2539 2.44141m13.22267-4.58203l-6.83594 1.63672m6.83594-1.63672l1.625 1.83984m-2.6211-1.60156l1.625 1.83984m12.77735-1.43359l-7.01563.34766m7.01563-.34766l1.2578 2.10938m-2.27734-2.0586l.62891 1.05469m13.63281-1.66797l-6.8711 1.47656m6.8711-1.47656l1.58203 1.8789m11.45313-2.68359l-6.3125 3.08594m6.3125-3.08594l1.98828 1.4414m-2.90625-.99218l.99219.71875m12.48047-2.19531l-4.79297 5.14062m4.79297-5.14062l2.37109.63672m-3.0664.11328l2.37109.63281m-3.07031.11328l1.1875.3164m13.33593-1.97655l-4.41797 5.46484m4.41797-5.46484l2.41016.46875m-3.05469.32812l2.41016.46485m-3.05078.33203l1.20312.23046m13.63281-1.61328l-4.89062 5.04688m4.89062-5.04688l2.35938.6797m-3.07031.05468l1.17968.33984m13.40235-.3789l-6.0039 3.65625m6.0039-3.65625l2.10937 1.2539m9.75782-2.57812l-3.10547 6.30469m3.10547-6.3047l2.45312-.07421m12.29297 1.36719l-5.96484 3.71875m5.96484-3.71875l2.1211 1.23046m-2.9922-.6875l1.0625.61329m13.32813-.77735l-6.375 2.96094"/><g clip-path="url(#am)"><path fill="none" stroke="#000" stroke-linecap="round" stroke-linejoin="round" stroke-miterlimit="10" stroke-width=".5" d="M466.75 332.38281l1.95703 1.48047"/></g><g clip-path="url(#an)"><path fill="none" stroke="#000" stroke-linecap="round" stroke-linejoin="round" stroke-miterlimit="10" stroke-width=".5" d="M465.82031 332.8125l1.95703 1.48047"/></g><g clip-path="url(#ao)"><path fill="none" stroke="#000" stroke-linecap="round" stroke-linejoin="round" stroke-miterlimit="10" stroke-width=".5" d="M141.4336 322.94922l5.1328-4.80078"/></g><path fill="none" stroke="#000" stroke-linecap="round" stroke-linejoin="round" stroke-miterlimit="10" stroke-width=".5" d="M155.08984 323.26563l4.45313-5.4375m-3.80469 4.64843l-1.20312-.24219m14.91406 1.625l2.35937-6.62109m-2.01562 5.65625l-1.21094.17969m18.30469-.60547l-5.88281-3.84375m5.02734 3.28516l-.10938 1.22265m14.4922-1.03515L194.10546 319m6.3086 3.09766l.07812 2.45312m11.94922-1.02734l-3.73438-5.95313m3.73438 5.95313l-1.22266 2.1289m14.73047-2.2578l-4.11719-5.69532m4.11719 5.69531l-1.08203 2.20313m.48047-3.03125l-.53907 1.10156m14.57032-.35938l-4.34766-5.51953m4.34766 5.51953l-.98828 2.2461m.35546-3.05078l-.49218 1.125m14.42968-.3125l-4.32812-5.53516m4.32812 5.53516l-.99609 2.24218m.36719-3.04687l-.9961 2.24219m15.37891-1.84375l-5.20313-4.72266m5.20313 4.72266l-.60547 2.3789m-.15234-3.0664l-.60156 2.3789m14.78125-1.8164l-5.41797-4.47266m5.41797 4.47266l-.48829 2.40234m-.30078-3.05469l-.24219 1.20313m14.66407-1.0039l-6.05469-3.56642m6.05469 3.56641l-.10547 2.44922m-.77344-2.96875l-.05469 1.22656m14.39453-.98437l-6.34765-3.01563m6.34765 3.01563l.11329 2.45312m13.51953-3.57031l-6.98047-.77734m6.98047.77734l.90625 2.27734m12.42578-2.87109l-7.01563.40625m7.01563-.40625l1.27734 2.09766m11.96485-2.63282l-6.8672 1.48047m6.8672-1.48047l1.58203 1.875m11.8125-1.20312l-7.02735.13281m6.00391-.11328l.59766 1.07422m13.27343-2.78125l-6.08984 3.50781m6.08984-3.50781l2.07813 1.30469m10.67578-2.03516l-4.96875 4.96875m4.96875-4.96875l2.34766.71875m-3.07032.0039l1.17188.35938m12.39062-1.48047l-4.01953 5.76563m4.01953-5.76563l2.4375.29688m-3.02343.54297l2.4375.29296m11.41406-1.16406l-3.92188 5.83203m3.92188-5.83203l2.4414.2539m-3.01171.59376l2.4414.2539m11.10938-1.30078l-3.2539 6.22657m3.2539-6.22657l2.45312-.01562m6.08985 4.6914l6.29296-3.12109m-5.3789 2.66797l-.9961-.71484m17.34375-3.81641l-1.59765 6.84375m1.59765-6.84375l2.3711-.6289m12.1211 1.14843l-3.95313 5.8086"/><g clip-path="url(#ap)"><path fill="none" stroke="#000" stroke-linecap="round" stroke-linejoin="round" stroke-miterlimit="10" stroke-width=".5" d="M465.53906 317.64453l2.4375.26563"/></g><path fill="none" stroke="#000" stroke-linecap="round" stroke-linejoin="round" stroke-miterlimit="10" stroke-width=".5" d="M464.96484 318.48828l2.4375.26953"/><path fill="#ff3030" fill-rule="evenodd" d="M260.21875 449.89453h7.69531V439.75h-7.69531v10.14453"/><path fill="azure" fill-rule="evenodd" d="M262.05469 441.58203h.83203v5.73828h3.19531v.74219h-4.02734v-6.48047"/><path fill="#ff3030" fill-rule="evenodd" d="M344.55078 449.89453h7.6914V439.75h-7.6914v10.14453"/><path fill="azure" fill-rule="evenodd" d="M346.38281 441.58203h.83203v5.73828h3.19532v.74219h-4.02735v-6.48047"/><path fill="#00f" fill-rule="evenodd" d="M388.23828 432.14063h8.61719v-10.14454h-8.61719v10.14454"/><path fill="azure" fill-rule="evenodd" d="M390.07031 423.82813h.83594v2.82421h3.28516v-2.82421h.83203v6.48046h-.83203v-2.91796h-3.28516v2.91796h-.83594v-6.48046"/><path fill="#00f" fill-rule="evenodd" d="M215.14453 414.38672h8.61719v-10.14453h-8.61719v10.14453"/><path fill="azure" fill-rule="evenodd" d="M216.97656 406.07422h.83203v2.82422h3.28516v-2.82422h.83594v6.48047h-.83594v-2.91406h-3.28516v2.91406h-.83203v-6.48047"/><path fill="#ff3030" fill-rule="evenodd" d="M171.45313 409.94922h7.6914v-10.14453h-7.6914v10.14453"/><path fill="azure" fill-rule="evenodd" d="M173.28516 401.63672h.83593v5.73828h3.19141v.74219h-4.02734v-6.48047"/><path fill="#ff3030" fill-rule="evenodd" d="M451.07031 409.94922h7.6914v-10.14453h-7.6914v10.14453"/><path fill="azure" fill-rule="evenodd" d="M452.90234 401.63672h.83204v5.73828h3.1953v.74219h-4.02734v-6.48047"/><path fill="#ff3030" fill-rule="evenodd" d="M291.28906 405.51172h7.6914v-10.14453h-7.6914v10.14453"/><path fill="azure" fill-rule="evenodd" d="M293.1211 397.19922h.83593v5.73828h3.1914v.74219h-4.02734v-6.48047"/><path fill="#ff3030" fill-rule="evenodd" d="M202.52344 370.0039h7.6914v-10.14452h-7.6914v10.14453"/><path fill="azure" fill-rule="evenodd" d="M204.35547 361.6914h.83203v5.73829h3.19531v.74219h-4.02734v-6.48047"/><path fill="#ffffe0" fill-rule="evenodd" d="M350.6211 392.71875h22.17968v-10.1914H350.6211v10.1914"/><path fill-rule="evenodd" d="M354.1211 384.35938h.5078v6.29296h-.78515v-4.48828h-1.39063v-.55469l.5586-.0664.2539-.05469.23047-.08984.20313-.14063.17187-.21094.14454-.29296.10546-.39454m4.8125 0l.23047.01954.21875.05468.20703.08985.19532.1211.18359.14843.17188.17578.30468.41797.24219.4961.17969.54687.10937.57812.03906.58985-.03906.59375-.10937.58593-.17969.55079-.24219.5039-.30469.42969-.17187.17578-.1836.15625-.1953.1211-.20704.09374-.21875.0547-.23047.01952-.23046-.01953-.21875-.05469-.20704-.09375-.1953-.12109-.1836-.15625-.17188-.17578-.30469-.42969-.24218-.5039-.17969-.55079-.10938-.58593-.03906-.59375h.83203l.03125.5625.07813.5078.1289.44142.16016.375.1914.30078.21094.22265.22266.13672.22656.04688.22657-.04688.22265-.13672.21094-.22265.1914-.30079.16016-.375.1289-.4414.08204-.50781.02734-.5625-.02734-.5586-.08203-.5039-.1289-.4336-.16016-.36719-.19141-.29296-.21094-.21094-.22265-.13281-.22657-.04688-.22656.04688-.22265.1328-.21094.21095-.1914.29296-.16017.3672-.1289.43359-.07813.5039-.03125.5586h-.83203l.03906-.58985.10938-.57812.17969-.54688.24219-.4961.30468-.41796.17188-.17578.1836-.14844.1953-.1211.20704-.08984.21875-.05468.23046-.01954m5.08985 0h.51172v6.29297h-.78907v-4.48828h-1.38671v-.55469l.55859-.0664.2539-.05469.22657-.08984.20703-.14063.17187-.21094.14063-.29296.10547-.39454m2.82422 2.17579h.78906l.01953-.31641.0586-.28906.09765-.25.14063-.21485.18359-.17578.22265-.1289.26563-.07813.30469-.03125.23828.02344.22656.0625.20313.10156.17968.13672.14844.17578.11328.20313.07031.23828.02735.26562-.02344.26563-.0664.22656-.10938.1914-.15625.17188-.19922.16016-.2461.16797-.63671.38671-.53516.31641-.4375.3164-.34765.32423-.26563.33593-.1875.35157-.125.36718-.07031.39454-.01953.41796h4.21094v-.73828h-3.33204l.08204-.28515.11328-.23829.14843-.19921.1875-.1797.23047-.17187.27735-.17578.71875-.41797.41406-.20312.34765-.23438.28125-.25.21875-.26562.16407-.27735.10937-.28515.0664-.28516.01954-.28125-.04297-.38281-.1211-.34766-.1875-.30859-.25-.26172-.30468-.21484-.34375-.15625-.3789-.10156-.41016-.03125-.4336.03125-.39843.09765-.35547.16797-.30469.23438-.2461.30468-.1875.375-.11327.44531-.04297.51954"/><path fill="#ffffe0" fill-rule="evenodd" d="M227.29688 334.73047h22.17968v-10.19531h-22.17969v10.1953"/><path fill-rule="evenodd" d="M230.79688 326.3711h.5078v6.29296h-.78515v-4.48828h-1.39062v-.55469l.55859-.0664.2539-.05469.23048-.08984.20312-.14063.17188-.21094.14453-.29296.10547-.39454m4.8125 0l.23046.01954.21875.05468.20703.08985.19532.12109.1836.14844.17187.17578.30468.41797.2422.4961.17968.54687.10937.57812.03907.58985-.03907.59375-.10937.58593-.17969.55078-.24219.50391-.30468.42578-.17188.17969-.1836.15625-.1953.1211-.20704.09374-.21875.05469-.23047.01953-.23046-.01953-.21875-.05469-.20703-.09375-.19532-.1211-.1836-.15624-.17187-.17969-.30468-.42578-.2422-.5039-.17968-.55079-.10937-.58594-.03907-.59375h.83203l.03125.5625.07813.50782.1289.4414.16016.375.1914.30079.21095.22265.22265.13672.22656.04688.22657-.04688.22265-.13672.21094-.22265.1914-.30079.16016-.375.12891-.4414.07813-.50781.03125-.5625-.03125-.5625-.07813-.5-.1289-.4336-.16016-.36719-.1914-.29296-.21095-.21094-.22265-.13281-.22656-.04688-.22657.04688-.22265.1328-.21094.21094-.1914.29297-.16016.3672-.12891.43358-.07813.5-.03125.5625h-.83203l.03907-.58984.10937-.57812.17969-.54688.24219-.4961.30468-.41796.17188-.17578.1836-.14844.1953-.1211.20704-.08984.21875-.05469.23047-.01953m5.08984 0h.51172v6.29297h-.78906v-4.48828h-1.38672v-.55469l.55859-.0664.2539-.05469.22657-.08984.20703-.14063.17188-.21094.14062-.29296.10547-.39454m2.82422 2.17579h.78906l.01953-.31641.0586-.28906.09765-.25.14063-.21485.18359-.17578.22266-.1289.26562-.08204.30469-.02734.23828.02344.22656.0625.20313.10156.17969.13672.14843.17578.11328.20313.07032.23828.02343.26171-.01953.26954-.0664.22656-.10938.1914-.15625.17188-.19922.16016-.2461.16796-.63671.38672-.53516.3125-.4375.32032-.34765.32421-.26563.33594-.1875.35156-.125.3672-.07031.39452-.01953.41797h4.21094v-.73828h-3.33203l.08203-.28515.11328-.23829.14844-.19921.1875-.1797.23046-.17187.27735-.17578.71875-.41797.41406-.20703.34766-.23047.28125-.25.21875-.26562.16406-.28125.10937-.28125.06641-.28516.01953-.28125-.04297-.38281-.1211-.34766-.1875-.3086-.25-.26171-.30468-.21484-.34375-.15625-.38281-.10157-.40625-.03125-.4336.03125-.39843.09766-.35547.16797-.30469.23437-.2461.3047-.1875.375-.11718.4453-.03906.51954"/><path fill="#ffffe0" fill-rule="evenodd" d="M310.67578 328.17188h22.17969v-10.19141h-22.17969v10.1914"/><path fill-rule="evenodd" d="M314.17578 319.8125h.50781v6.29297h-.78515v-4.48828h-1.39063v-.55469l.5586-.0664.2539-.0547.23047-.08593.20313-.14453.17187-.20703.14453-.29688.10547-.39453m4.8125 0l.23047.01953.21875.05469.20703.08984.19531.1211.1836.14843.17187.17579.30469.42187.24219.49219.17969.54687.10937.57813.03906.58984-.03906.59375-.10938.58594-.17968.55469-.24219.5-.30469.42968-.17187.1797-.1836.15233-.1953.125-.20704.08985-.21875.0586-.23047.01952-.23047-.01953-.21875-.0586-.20703-.08983-.19531-.125-.1836-.15235-.17187-.17969-.30469-.42968-.24219-.5-.17968-.5547-.10938-.58593-.03906-.59375h.83203l.03125.5664.07813.50391.1289.44141.16016.375.1914.30078.21094.22266.22266.13672.22656.04687.22656-.04687.22266-.13672.21094-.22266.1914-.30078.16016-.375.1289-.4414.08204-.50391.02734-.5664-.02734-.5586-.08203-.5-.12891-.4375-.16016-.36719-.1914-.28906-.21094-.21485-.22266-.1328-.22656-.04298-.22656.04297-.22266.13281-.21094.21485-.1914.28906-.16016.36719-.1289.4375-.07813.5-.03125.5586h-.83203l.03906-.58985.10938-.57813.17969-.54687.24218-.49219.30469-.42188.17188-.17578.18359-.14843.19531-.1211.20703-.08984.21875-.05469.23047-.01953m5.08985 0h.51171v6.29297h-.78906v-4.48828h-1.38672v-.55469l.5586-.0664.2539-.0547.23047-.08593.20313-.14453.17187-.20703.14063-.29688.10546-.39453m6.8047 1.6211h-.78516l-.05079-.21485-.08203-.1836-.10937-.16015-.1289-.13281-.14844-.10156-.15625-.07422-.17188-.04297-.17188-.01563-.32812.03906-.28516.1211-.24609.19531-.20313.26953-.16015.33594-.11719.40625-.07031.46484-.02344.52735.1875-.20313.1875-.16015.1836-.1211.1875-.08984.1875-.0586.1914-.03906.40235-.02344.30859.03125.32031.09375.3125.15235.29688.22265.2539.28125.19922.35157.07422.20312.05078.21485.03125.23437.0039.2539-.78906.04298-.02734-.25782-.07422-.25-.125-.23437-.16015-.21094-.19141-.17578-.22266-.13672-.23828-.08984-.2539-.03125-.25782.03125-.23828.08984-.21875.13672-.19531.17578-.16016.21094-.12109.23437-.07813.25-.02734.25782.02735.26171.07812.25.1211.23438.16015.21094.19531.17578.21875.13672.23828.08984.25782.03125.2539-.03125.23828-.08984.22266-.13672.1914-.17578.16016-.21094.125-.23438.07422-.25.02735-.26171.78906-.04297-.03125.36719-.09375.375-.15625.35546-.22266.32813-.28906.28515-.17188.1172-.1875.10546-.20703.08203-.22265.0586-.2422.03906-.2578.01562-.28516-.01562-.25781-.04688-.23828-.07812-.21485-.10547-.19531-.13281-.17578-.15625-.15235-.17969-.13671-.19922-.1172-.22265-.09765-.2422-.14844-.53515-.08593-.59375-.02344-.64062.03516-.7422.11718-.66405.1836-.57813.1211-.2539.13671-.23438.15234-.20313.17188-.18359.1875-.15625.20312-.1289.21485-.10157.23437-.07422.2461-.04296.26171-.01563.3672.03516.33202.09375.29688.15234.2539.19922.21094.24219.16797.27343.11328.30079.0625.32421"/></g></defs><use xlink:href="#aq"/></svg>