<svg xmlns="http://www.w3.org/2000/svg" role="img" xmlns:xlink="http://www.w3.org/1999/xlink" viewBox="196.94 322.44 267.37 115.12"><defs><clipPath id="a"><path d="M144 311.67188h324v168.65625H144zm0 0"/></clipPath><clipPath id="b"><path d="M144 479h4v1.32813h-4zm0 0"/></clipPath><clipPath id="c"><path d="M147 480h2v.32813h-2zm0 0"/></clipPath><clipPath id="d"><path d="M146 480h2v.32813h-2zm0 0"/></clipPath><clipPath id="e"><path d="M153 479h9v1.32813h-9zm0 0"/></clipPath><clipPath id="f"><path d="M160 480h3v.32813h-3zm0 0"/></clipPath><clipPath id="g"><path d="M159 480h2v.32813h-2zm0 0"/></clipPath><clipPath id="h"><path d="M166 480h9v.32813h-9zm0 0"/></clipPath><clipPath id="i"><path d="M173 480h3v.32813h-3zm0 0"/></clipPath><clipPath id="j"><path d="M172 480h2v.32813h-2zm0 0"/></clipPath><clipPath id="k"><path d="M180 479h8v1.32813h-8zm0 0"/></clipPath><clipPath id="l"><path d="M187 480h2v.32813h-2zm0 0"/></clipPath><clipPath id="m"><path d="M186 480h2v.32813h-2zm0 0"/></clipPath><clipPath id="n"><path d="M193 479h8v1.32813h-8zm0 0"/></clipPath><clipPath id="o"><path d="M200 480h2v.32813h-2zm0 0"/></clipPath><clipPath id="p"><path d="M206 479h9v1.32813h-9zm0 0"/></clipPath><clipPath id="q"><path d="M213 480h3v.32813h-3zm0 0"/></clipPath><clipPath id="r"><path d="M220 480h8v.32813h-8zm0 0"/></clipPath><clipPath id="s"><path d="M227 480h2v.32813h-2zm0 0"/></clipPath><clipPath id="t"><path d="M233 479h8v1.32813h-8zm0 0"/></clipPath><clipPath id="u"><path d="M240 479h3v1.32813h-3zm0 0"/></clipPath><clipPath id="v"><path d="M246 479h9v1.32813h-9zm0 0"/></clipPath><clipPath id="w"><path d="M253 479h3v1.32813h-3zm0 0"/></clipPath><clipPath id="x"><path d="M260 479h8v1.32813h-8zm0 0"/></clipPath><clipPath id="y"><path d="M267 479h3v1.32813h-3zm0 0"/></clipPath><clipPath id="z"><path d="M273 479h8v1.32813h-8zm0 0"/></clipPath><clipPath id="A"><path d="M280 479h3v1.32813h-3zm0 0"/></clipPath><clipPath id="B"><path d="M286 478h8v2.32813h-8zm0 0"/></clipPath><clipPath id="C"><path d="M293 478h3v2.32813h-3zm0 0"/></clipPath><clipPath id="D"><path d="M300 478h8v2.32813h-8zm0 0"/></clipPath><clipPath id="E"><path d="M306 478h4v2.32813h-4zm0 0"/></clipPath><clipPath id="F"><path d="M313 479h8v1.32813h-8zm0 0"/></clipPath><clipPath id="G"><path d="M320 479h3v1.32813h-3zm0 0"/></clipPath><clipPath id="H"><path d="M326 479h9v1.32813h-9zm0 0"/></clipPath><clipPath id="I"><path d="M332 479h2v1.32813h-2zm0 0"/></clipPath><clipPath id="J"><path d="M341 477h6v3.32813h-6zm0 0"/></clipPath><clipPath id="K"><path d="M356 476h2v4.32813h-2zm0 0"/></clipPath><clipPath id="L"><path d="M367 477h6v3.32813h-6zm0 0"/></clipPath><clipPath id="M"><path d="M381 476h5v4.32813h-5zm0 0"/></clipPath><clipPath id="N"><path d="M396 476h2v4.32813h-2zm0 0"/></clipPath><clipPath id="O"><path d="M409 476h2v4.32813h-2zm0 0"/></clipPath><clipPath id="P"><path d="M422 476h3v4.32813h-3zm0 0"/></clipPath><clipPath id="Q"><path d="M435 476h3v4.32813h-3zm0 0"/></clipPath><clipPath id="R"><path d="M449 476h3v4.32813h-3zm0 0"/></clipPath><clipPath id="S"><path d="M461 476h5v4.32813h-5zm0 0"/></clipPath><clipPath id="T"><path d="M144 466h4v2h-4zm0 0"/></clipPath><clipPath id="U"><path d="M144 453h4v2h-4zm0 0"/></clipPath><clipPath id="V"><path d="M465 451h3v2h-3zm0 0"/></clipPath><clipPath id="W"><path d="M144 439h4v3h-4zm0 0"/></clipPath><clipPath id="X"><path d="M465 437h3v2h-3zm0 0"/></clipPath><clipPath id="Y"><path d="M144 425h4v4h-4zm0 0"/></clipPath><clipPath id="Z"><path d="M144 412h4v3h-4zm0 0"/></clipPath><clipPath id="aa"><path d="M144 399h4v3h-4zm0 0"/></clipPath><clipPath id="ab"><path d="M465 397h3v2h-3zm0 0"/></clipPath><clipPath id="ac"><path d="M144 385h4v4h-4zm0 0"/></clipPath><clipPath id="ad"><path d="M465 383h3v2h-3zm0 0"/></clipPath><clipPath id="ae"><path d="M144 371h4v5h-4zm0 0"/></clipPath><clipPath id="af"><path d="M144 357h3v7h-3zm0 0"/></clipPath><clipPath id="ag"><path d="M465 357h3v3h-3zm0 0"/></clipPath><clipPath id="ah"><path d="M144 343h1v8h-1zm0 0"/></clipPath><clipPath id="ai"><path d="M144 349h1v2h-1zm0 0"/></clipPath><clipPath id="aj"><path d="M466 345h2v3h-2zm0 0"/></clipPath><clipPath id="ak"><path d="M144 331h4v6h-4zm0 0"/></clipPath><clipPath id="al"><path d="M466 332h2v3h-2zm0 0"/></clipPath><clipPath id="am"><path d="M465 332h3v3h-3zm0 0"/></clipPath><clipPath id="an"><path d="M144 318h3v6h-3zm0 0"/></clipPath><clipPath id="ao"><path d="M465 317h3v2h-3zm0 0"/></clipPath><g id="ap" clip-path="url(#clip1)"><path fill="#fff" fill-opacity="0" fill-rule="evenodd" d="M.0586 0h1000v1000h-1000zm0 0"/><path fill="#d3d3d3" fill-opacity="0" fill-rule="evenodd" d="M162.21094 355.86719l-.23438.29297.0586.23437.11718.17188.17578.23437.29297.34766.11328.0586.1172-.17188.05859-.23438.17578-.17578.46484-.17578h.69922l.23438.29297.28906.8164.0586.17579.17577.23046.35156.23438.69922.69922.17188.17578.23437.34765.23438.41016.28906.58203.41016.46485.23047.23437.23437.17578.11719.23047.17578.29297.17188 1.16406v.23438l.05859.28906.0586.11719.11718.11719.34766.41015.11718.17188.17578.17578.17579.23437.11718.17188.17188.35156.0586.23438.23437.40625.23437-.0586-.17578.17578-.0586.92969h-.58202l-.23438-.11328-.34766.11328-.11718.11719-.0586.29297-.05859.17578-.11719.17187-.46484.29297-.0586.23438-.05859.11328v.64453l.0586.17187v.41016l.05859.0586v.40624l.0586.40625.11718.17579.0586.05859.23046.64062-.0586.29297v.69922l-.05858.58203v.23438l-.0586.23047-.05469.35156v1.92187l.0547.1172h.42577l-.36719.11718-.02343.35156.89062 1.16797 1.74219.53906 1.33984.35938v.53906l.08985.8086.53515.71484 1.51953.26953.89063-.08594.08984 1.16406.53516.1797 1.16016-.1797 2.05468-.98437 1.16016-.36328 1.8789-.17578 1.69532-.1797-.17969.71876-1.51562.08594-1.25.08984-.8047.26953-1.07421.8086.26953.71875.53516.89843-.17969.625-.26563.8086.26563 1.07812.625.89844.80469.17969 1.25-.1797-.26563.72267.09766.5039.05469.29297v.17188l.05859.29296v.40625l.17578.1172.35156.11718h.40625l.29297-.17578.11328-.11719.0586-.11719.11719-.23047.05859-.17578.35156-.46484.23047-.17578.17578-.0586.17578.0586.0586.17578.11718.98828.0547.46875.05858.17188.1172.23437.17577.0586.81641.05859h.28906l.11719.23437.0586.40625.05859.35156v1.10547l.11719.29297.11718.34766.28906.69922.17579.35156.58203.7539.35156.17579.17188.0586.46875.23437.64062.46484.34766.23438.29297.17578.29296.05468.23047.0625.8164.34766.29298.17578.11328.17188.35156.35156.11719.17578.52344.64063v.28906l.05859.35156v.34766l.0586.35156.05859.28906.11719.0586.17187.05859h.17578l.58203.23437.17578.1172.17578.28905.17579.23438.11328.23437.29297.23047.11718.11719v.41016l.0586.05468.28906.23438.23438.11719.05859.11718.11719.17188.05859.11719.23047.23437.0586.17578.23437.0586.11719.05859-.1172.11328-.05859.11719v.11719l-.11718.29296-.1172.28907v.58203l.17579.11719.11719.05859.0586.11719.11718.11719.11328.05859.17578.34765.0586.35157.05859.40625v.17578l-.0586.17578-.11718.69922v.17187l.11719.17579.29296.29296h.40625l.17578.1172.1172.17187.11718.29296v.23438h-.52734l-.23047-.23438h-.23438l-.17578.0586-.0586.69922.0586.34765.11719.17579.17578.41015.11719.23047.28906.46875.17578.05469h.52344l.23437.0586.75782.64062.05859.29296v.23438l.0586.0586.23046.34765v.35156l-.11719.17188v.29297l.29297.28906.29297.17578.17188.0586.29297.17577.29297.1172.58203.40624.28906.23438.29297.17578.21875.16015.01562.01172.23047.17579.64063.52343.17578.23438.11719.17578.17578.17578.11328.17188v.64062l.11719.17578.46875.11719.58203.11719.23437.05859.23047.11328.29297.11719.11328.0586.58594.35156.28906.17187.17578.0625.17578.05469.17578.0586.69922.35155.28906.17579.23438.05468.28906.17578.23438.1172.64062.40624.29297.11719.17188.0586.23437.05859.41016.05859.23047.0586.23437.11718.0586.17188-.41016.17578.46875.0586.0586.29296.11327.23438.17578.05468.23438.0586.17578.05859.40625.11719.64063.23437.11718.17188.0586.23437v.17578l-.0586.1172-.05859.40624.23438.23438.11718.05859.34766.11719.64062.23047.17578.11718.28907.1172.17578.17577.23437.46485.58203 1.10546.17579.17579.34765.17578.17578.11719.35157.11718 1.04687.52344.23438.0586.46484.11327.29297.0586.46484.17578.75781.58203.23438.23438.34766.46484.17578.17578.28906.23438.8164.69921.29298.17579.28906.28906.29297.17578.29297.28906.6953.64063.17579.17578.29297.23437.28906.23438.46875.28906.64063.58203.34765.23438.23438.29297.34765.34765.35156.46485.9336.99218.34766.40625.11718.17579.23438.05859.11328.11719.64453.17578.23047.11328.23437.0586.29297.17577.23047.1172.9336.69921.40625.40625.23437.17578.40625.17578.23438.11719.8164.34766.34766.23437.23437.11719.29297.28906.23047.11719.75781.35156.35156.17188.23047.05859.29297.11719.23438.0586.8711.17577h.8164l.46875.23047.17187.0586.875.69921.46485.1172.29297.05858.17578.0586.23047.0586.46875.05859.34765.05859.35156.0586.40625.05859h.29297l.17188.0586v.23046l.17578.17578h.29297l.34765.0586.35157.05859.69922.11719h.64062l.46484-.23438.29297-.17578.17188-.11719.41015-.17187.28907-.17578.93359-.46485.46875-.29297.52344-.29296.46484-.17188.46484-.17578 1.05079-.46485.28906-.11718.41016-.11719.28906-.11719.52734-.17578 1.51563-.69922.58203-.34765.28906-.0586.29297-.0586.34766-.11718.875-.23047.35156-.11719h.11328l.23437-.05859.875-.23437.23438-.0586h.8125l.35156-.0586.8164-.11718.17188-.0586.35156-.05468.29297-.0586.23047-.05859.8164-.17578.17579-.0586h.34766l.23437-.05859.46485-.11718.7578-.17188.23438-.0586h.34766l.41015-.11718.28907-.0586 1.28515-.05859h.28907l.41015-.0586.23047-.05858h.17578l.875-.1172h.40625l.41016-.11718h.34765l.35157-.11328.8711-.0586h1.75l1.04687.28907.41015.11719.28906.11718.35157.11719.28906.11719 1.05078.17187.28906.0586h.29297l.29297.05859.17188.0586.41015.05859.17188.0586.11719.05858h.11718l.11719.0586.35156.0586h.11328l.41016.0664 1.92188.39453 1.92578.39453 1.51953.44922 1.69531.71875 2.14453.80469 1.60547-.71875 1.42969-.80469 1.16015-1.07813 1.25-.44921 3.03516-.71875 1.875-.35938 2.14453-1.34765 2.23438-1.25391 2.5-1.25781 1.6953-.44922 1.78517-.17969 1.16015-.26953.625.53906 1.33985-.26953.71484-.98828.98437-1.34375.44532-.17969.80468-.35937 1.875-.53907 1.78516-.44921 1.25-.26954 1.16016-.08984 1.69921-.08984 1.96094-.26954 1.25-.08984h.53906l.625-.08984h.89063l2.14453-.17969 2.41016-.17969 2.58984-.08984 1.69531.17969 1.60938.08984 1.42969.35938 1.16015.71875 1.875.98828 1.16016 1.52734.26562.71484.62891.08985.35547.89844.53515.53906.53516 1.52734 1.07422.35938h.53516l-.8047.53515.08985 1.70703.71485 2.69532.89062.80468.89453.98829.71485 1.2578 1.78515.53907 1.51953-.17969.35547 1.34375 1.60938-.80469.98047-.53906.26953.26953.3164-.21484.21875-.14453.80079.44922.44921-.35938h.35547l.53516-.26953.53906-.71875.53516-.26953.625-.98828 1.16015.44922.83985.3711 1.39453.61718 1.69531-.17969h1.60547l1.78516.08985.17968-1.70704.53516-1.34375.80469.26954.49219.84765.40234.40625-.08985.53906v.35938l.71485.44922.71094-.26953h1.42968l.35938.98828.44531 1.25781.71485 1.34375 1.25.6289 1.6953.62891.71485-.17969.17969-.53906.98047-.08984.44922.35937.08593 1.25782-.26562.6289-.53516.17969v.53906l.71485.98438.26562.53906.98438.98828.80078 1.07813-.26563.35937-.08984.89844-.625 2.33203-.35547 2.0664-.08984 1.79298-.1797.71875-.08983.53906v1.4375l-.98047 1.88281-.35938 1.70703-.53515.89844-.8047 1.16797-.26562.53906 2.05469 1.2539.08594.35938-.35547.53906-.08985-.17968v.80859l.08985 1.4375-.44531.71484-1.07422.09375-.26563.71485.53516.89844.80469.71875 1.16015.80859 1.33985.26953.4453.35938-.35546.44921-1.78906-.08984-1.25-.44922-.71485-.71875-.625-.08984-.17578 3.58984-.1875 1.3086h89.35938V311.70313h-55.26953v49.08203l.76171.125 3.28907.54296 2.02344 2.83594v2.7539l2.35156.33204 2.34765.33203h4.05079l-1.37891 4.16016-2.02344.70703-2.02344.70312-.54296.34375-2.59375 1.6172-.1875.11718-2.02344-2.07813-.73047-2.74218-2.67188-2.07813-1.375-3.5-.0664-.08203-1.95703-2.67188 2.75-1.41796v-49.08204h-118.2422v91.41407l.1172.03125.1328.01172.07423.07421.10547.04688.08984.0586.08594.05859.08984.0586.29688.29687.05859.08984.03125.11719.02734.11719.01563.13671-.03125.1172-.0586.08983-.05859.08594-.04297.10547-.04687.10156-.02735.1211v.14453l.17579.26953.14843.14844.07422.08594.07422.07421.04297.10547.0625.08985.0586.08593.04296.10547.0586.08985.04687.10156.04297.10547.0586.08594.11718.17968.07422.07422.0625.08594.0586.08984.04296.10547.0586.08985.05859.08593.0625.08985.0586.08984.04296.10156.11719.17969.07422.07422.0586.08594.07421.07421.08984.0586.10547.04687h.14844l.13281-.01562.13281.01562.10157-.04687.07422-.07422.04687-.10156-.01562-.13281v-.14844l-.04688-.10547-.02734-.11719-.04688-.10156-.02734-.1211-.04297-.10156-.0625-.08984-.04297-.10156-.04297-.10547-.03125-.11719-.01562-.13281-.01172-.13672.08594-.0586.05859-.08593.1211-.03125.04296.10547.01563.1328v.1172l.0586.10156.05858.08984.08985.0586.14844.14843.05859.08985.04297.10547-.01172.10156.08594.0586.10547.04687.08593.0586.08985.05858.07422.07422-.1172.02735-.10546.04687-.08594.0586-.07422.07421-.05859.08985-.0625.08594-.02734.12109-.04688.10156-.04297.10547-.03125.11719-.01172.13281-.01562.13281v.14844l.02734.11719.04688.10547.04297.10156.05859.08984.07422.07422.08984.0586.07422.07421.08985.0586.05859.08984.04297.10547.04687.10156.11719.03125.13281.01563h.14844l.11719-.03125.10547.04297.04296.10547.04688.10156.02734.1211.03125.11718.02735.11719.03125.1211.02734.11718.10547.04297.10156.04687.13281-.01562.14844.14844.0625.08593.07422.07422.07031.07422.08985.0625.10547.04297.10156.04297.11719.03125.13671.01562.1172-.03125.07421-.07422.02735-.11718-.01172-.13282-.03125-.12109-.02735-.11719.04297-.10547h.11719l.08984.0625.11719.02735h.14844l.13281.01562h.14844l.13281.01563.13281-.01563h.14844l.13281-.01562.13281-.01172.13672.01172.1172-.02735.1328-.01562.19141-.0586-.0586.17579-.01562.1328-.02734.1211-.01563.13281-.0586.08594-.1328.01563-.10547.04687-.10547.04297-.11719.03125-.11719.02735-.26562.03125h-.14844l-.13281.01562-.07422.07422.0586.08594.14843.14843.11719.1797.07422.0703.08984.0625.08985.0586.08593.0586.08985.05858.10156.04297.10547.0625.10547.04297.08593.0586.10547.04687.10156.04297.1797.11719.05859.08984-.04297.10156-.04688.10547.01563.13281.22265.22266.0586.08985.04297.10156.03125.1211.04296.10155.01563.13282.03125.11718.01172.13672.03125.11719.14844.14844.10156.04297.10547.04296.11719.03125.1328.01563.13673.01563h.11718l.1172-.03125.08983-.0586.04297-.10547.04688-.10156.04297-.10547.03125-.11719.01172-.1328v-.14845l-.01172-.1328-.01563-.13282-.03125-.11719-.04297-.10547-.04687-.10547-.04297-.10156-.04297-.10547-.01562-.13281.01562-.13281.02735-.11719.03125-.11719.02734-.1211.04687-.10155.08985-.0586.08594-.0625.07421-.07422.08985-.05859.22265-.22266.0586-.08593.07422-.07422.11718-.17969.0586-.08594v-.14844l-.07422-.07421-.10156-.04688-.10547-.04297-.10156-.04297-.0586-.08984-.04687-.10547-.02735-.11719.08985-.05859.11718-.03125.10157-.04297.17968-.11719.14844-.14843.01172-.13282-.01172-.10546-.08984-.0586-.13281.01563h-.14844l-.13281.01562-.13282-.01562-.1211-.03125-.08593-.0586-.07422-.07422-.0586-.08984-.0625-.08594-.11718-.17969-.0586-.08593.03126-.1211.08594-.05859.12109-.03125.0586-.08594v-.1211l-.03126-.11718-.0586-.08984-.05858-.08594-.04688-.10547-.02734-.11719-.01563-.1328.0586-.08985.07421-.07422.08985-.0586.11719-.17968.07421-.07422.0586-.08594.14844-.14844.12109-.03125.13281-.01562.13281.01562.07422.07422.04297.10547.01563.13281-.03125.1172-.1172.03124-.1328.01172-.14844.14844-.04297.10547-.04688.10156-.02734.1211-.03125.11718v.14844l.03125.11719.04297.10546.0586.08985.07421.07031.07422.07422.11719.03125.1211.02734.11718-.02734.13281-.01563h.11719l.08984.0586.07422.07422.04688.10546.0586.08594.10155.04688.13282.01562.10546.04297.08594.0586-.01172.10546-.07421.07422-.1797.11719-.05859.08984-.08984.0586-.07031.07422-.07422.07421-.0625.08985-.02735.11719-.01562.1328.01563.13282-.01563.13281v.14844l.01563.13281.02734.1172.03125.12108.07422.07422.08984.0586.08594.0586.08984.05858.11719.03125v.08594l-.10156.04688-.08985.0586-.26562.03124-.11719.02735h-.14844l-.10546.04296-.10157.04688-.0586.08984-.0625.23438-.01171.13281-.03125.1211-.01563.1328v.29298l-.01171.1328.01171.13673.01563.1328.13281.01563.13281.01172.1211.03125.08594.0586.07421.07421.04688.10547.04297.10157.01562.1328v.44532l-.01562.13281v.44532l.03125.26562.02734.11719.01563.13281.03125.11719.08594.21094.03125.26562v.14844l-.03125.11719-.02735.11718-.03125.1211-.02734.11719-.03125.11718-.03125.1211-.01172.1328-.01563.13282.08985.0586.11719-.03125.10156.01562.04687.10547-.03125.26562v.44141l-.04297.10547-.04687.10547-.04297.10156-.04297.10547-.0586.08594-.03124.12109-.04297.11719-.03125.11719-.01563.1328.01563.13282.0586.08984.10546.04688.08594.0586.0586.08593-.01173.13672-.03125.11719-.04296.10156v.44531l-.01563.13281v.14844l-.03125.11719-.04297.10547-.02734.11719-.04688.10546-.04297.10157-.03125.12109-.02734.11719-.03125.13281-.03125.11719-.02734.11719-.04297.10546-.03125.1172-.03125.12108-.01172.13282-.01563.13281v.29688l.02735.11718v.14844l.04687.39844.02735.11719.05859.08984.1211.03125h.14843l.13281-.01563.0586.08985v.11719l-.0586.08984-.08984.0586-.10156.04296-.10547.04688-.08985.05859-.08593.0586-.13672.01562-.11719-.03125-.13281-.01563-.10156.04688-.0625.08594-.01172.13671-.01563.13282-.03125.11719-.02734.11718-.01563.13281-.03125.1211v.29687l.01563.13282.03125.11718v.14844l.01172.13281v.14844l-.02735.11719-.04687.10156-.02735.1211-.03125.11718-.05859.08985-.07422.07421-.10156.04297-.10547.04688-.11719.02734-.12109.03125-.10156-.04687.0586-.08594.10546-.04688.02734-.11718.03125-.11719.02735-.1211.03125-.11718v-.14844l.01562-.13281-.03125-.11719-.04297-.10547-.10546.01563-.07422.07422-.10157.04296-.08984.0625-.07422.07422-.04297.10157-.01562.1328-.03125.1172-.02735.12109-.03125.11719-.02734.11719-.03125.12109-.02734.11719-.03125.11718-.04297.10547-.08985.0586h-.08984l-.11719-.03125-.03125-.08594.01563-.13672-.03125-.11719v-.14844l-.01172-.1328v-.14844l-.0625-.23438-.02735-.1211-.04296-.10156-.04688-.10546-.0586-.08594-.05859-.08985-.04296-.10546-.0625-.08594-.14844-.14844-.07031-.07422-.10547-.04687-.10547-.04297-.10156-.04297-.29688-.29688-.08984-.07421-.08594-.0586-.10547-.04297-.08984-.0625-.08594-.0586-.10547-.04296-.08984-.0586-.08594-.0625-.07422-.0703-.10547-.04688-.08594-.0586-.10546-.04296-.08985-.0625-.10156-.04297-.10547-.04297-.08594-.0586-.10547-.04687-.10546-.04297-.10157-.04687-.08984-.0586-.10156-.04297-.10547-.04296-.08985-.0625-.11718-.02735-.13282-.01562-.1328.01562h-.14845l-.1328.01563-.1172-.03125-.08984-.0586-.07422-.07422-.08984-.05859-.10156-.04688h-.14844l-.1211-.02734-.10156-.04297-.07422-.07422-.11719-.17968-.08984-.0586-.10156-.04297-.08985-.0625-.10546-.04296-.08985-.0586-.08594-.0586-.10546-.04687-.0586-.08594-.0586-.08984-.04296-.10547-.04688-.10156-.07421-.07422-.08594-.0586-.07422-.07421-.08984-.0586-.22266-.22265-.04297-.10547-.03125-.26563.10547-.04296h.14453l.10547.04296.07422.07422.08984.0586.08594.0586.10547.04687.08984.05859.14844.14844.07031.07422.14844.14843.0625.08594.07422.07422.08594.0586.07421.07421.08985.0625.08984.0586.08594.05859.26953.17578.10156.04688.10547.04296.10156.04297.04688-.07421.0586-.08594.07421-.07422.07031-.07422.10547.04297.07422.07422.0586.08984.04296.10156.04688.10547.04297.10547.1211.02735.11718-.02735.07422-.08984.04297-.10547.0586-.08985.07421-.07421.10547-.04297.11719-.02735.1328.01172.08985.0586.14844.14843.0586.08985.04296.10547.04688.10156.04297.10547.04296.10156.10547.04688.10547.04296.13281.01563.08594-.0586.0586-.08984.07421-.07422.10547-.04297.1172.02735.10546.04687.10156.04297.10547.04297.10156.04688.1797.11718v.11719l-.01563.13281.01562.13281.01563.13672.05859.08594.10156.04688.1211.02734.11718.03125h.14844l.11719-.03125.0586-.08984.17968-.1172.0586-.08983.07421-.07422.0586-.08594.11718-.17969.1797-.11719.11718.03125.08984.0586.04297.07422-.01562.1328v.1172l.08984.05859h.14844l.13281-.01563.13281-.01171.26563-.03125.10547-.04297.11718-.03125.1211-.02735.07422-.07421.0703-.07422.0625-.08985-.01562-.10547-.04687-.10156-.10156-.04297-.10547-.01562-.11719.02734-.26563.03125h-.14843l-.07422-.07422-.08985-.0586-.11718-.03124-.11719-.02735-.13281-.01562H304.25l-.13281.01563h-.29688l-.10547-.04688-.14843-.14844-.04297-.10156-.0586-.08984.22266-.22266.08594-.0586.10547-.04296.11718-.03125.13282-.01563.1328.01563.13673.01562.10156.04297.13281-.01172.08985-.0625.10156-.04297.0625-.08984-.04688-.10156-.08984-.0586-.11719-.03125-.10156-.04296-.0586-.08985-.0625-.08984v-.11719l.01563-.13281.10547-.04688.07422-.07031v-.1211l-.08985-.05859-.03125-.11719.08985-.05859.07422-.07422.04297-.10547.05859-.08984.04688-.10156.01562-.13281v-.14844l-.04688-.10547-.04296-.10156-.08985-.0586-.13281-.01562-.10156-.04297-.13672-.01563-.11719-.03125h-.44531l-.13281-.01562-.13282-.01172-.1328-.01563-.1172-.03125h-.14843l-.13282-.01562-.1328-.01172-.26563-.03125-.1211-.04297-.08594-.0586-.07421-.07421v-.14844l.01171-.13281.10547-.04688.10157-.04296.1328-.01563h.15235l.13281-.01562h.29297l.1211.03125.10156.04296.08984.0586.23438.0625.1211-.04688.08984-.05859.10156-.04297.13281-.01562.10547.04296.10156.04688.13281.01172.1211-.02735h.14453l.1211-.03125.11718-.02734.10547-.04687.07422-.07422.08594-.0586.14843-.14843.0586-.08594.04687-.10547.02735-.11719.01562-.10547-.10156-.04296-.08985-.0586-.11718-.03125-.10547-.04297-.08985-.0625-.07421-.08594-.07422-.07421-.10156-.04297-.10547-.04688-.10157-.04297-.05859-.08984-.04688-.10156-.08593-.21094-.0625-.08594-.0586-.08984-.07421-.07422-.08594-.0586h-.26953l-.1172.03126-.08983.05859-.10157.04297-.13281.01562-.10547-.01562-.02734-.11719-.0625-.08984-.11719-.03125-.10156-.04297-.14844-.14844-.03125-.11719-.01563-.10546.07422-.07422.1797-.1172.11718-.02733.11719-.03125.13671.01562.10157.04297.10547.04297.10156.04687.10547.04297.11719.03125.1328.01563.1172.02734.1328.01563.10548-.01563.08984-.0586-.07422-.07421-.10547-.04297-.07422-.07422-.07421-.08984-.14844-.14844-.08594-.0586-.08984-.05859-.07422-.07422-.08985-.0586-.10156-.04687-.1211-.02734-.10156-.04688-.10546-.04296-.1172-.03125-.10155-.04297-.1211-.03125h-.14844l-.11718.03125-.10547.04297-.08594.0625-.17969.11718-.08593.0586-.08985.0586-.10547.04687-.08593.05859-.10547.04297-.10156.04297-.10547.04687-.07422.07422-.0586.08985-.05859.08593-.04688.10547-.05859.08594-.07422.07422-.13281-.01172-.11719-.03125h-.11719l-.07421.07422-.08985.0586-.07422.07421-.08984.0586-.08594.05859-.10547.04687-.10156.04297-.13672.01563-.10156-.04297-.14844-.14844-.10547-.04688h-.08593l-.10547.04688-.10156.04297-.1211.03125-.11719-.03125-.07421-.07422v-.11719l.03125-.1211.07421-.0703.0586-.08985.07422-.07422.11718-.03125.10547-.04296h.29297l.13281-.01563.13672-.01563.10156-.04296.08985-.0586.10156-.04687.08985-.0586.1328-.01171.08985.05859.13281.01172.08985-.0586.08594-.05859.10546-.04297.08985-.0586.08594-.0625.08984-.05859.14844-.14843.05859-.08594.0586-.08985.10546-.04296.13281-.01563.1172.02735.12109.03125.05859-.0586.0586-.08984.03124-.26563.02735-.11719.10547.01172.1328.01563.10157-.04297.08985-.0586.05859-.08984.07422-.07422.0586-.08984.04687-.10156.01171-.13281-.01171-.13282-.04688-.10547-.14844-.14843-.05859-.08985-.0586-.08594-.04296-.10546v-.44532l.01562-.1328v-.14845l.01172-.1328-.0586-.0586-.08984.0586-.10156-.04298-.17969-.11719-.08593-.05859-.0625-.08984-.0586-.08985-.07422-.07421-.08593-.0586-.1211.03125-.10156.01172-.10547.04688-.08594.05859-.10546.04297-.14844.14844-.08985.05859-.08593.0586-.08985.0625-.10547.04296-.1328.01563v-.1211l.10546-.04297.11719-.03125.07422-.0703.04296-.10548v-.14844l-.02734-.11718-.14844-.14844-.1328-.01563h-.14845l-.11718.03125-.10547.04297-.10156.04297-.08985.0625-.11719.02735-.07421-.07422.01171-.13281-.04296-.10157-.04297-.10547-.08985-.05859-.11719.02734-.12109.03125-.11719.03125-.10156.04297-.1211.03125-.10156.04297-.10546.04297-.08985.0586-.10156.01562v-.11719l.01563-.13281-.0586-.08985-.07422.04297-.14844.14844-.05859.08985-.07422.07421-.04687.10547-.04297.10156-.07422.07422-.0586.08985-.07421.07422-.0586.08593-.07421.07422-.08985.0625-.07422.07031-.07422.07422-.10156.01563-.13281.01562-.10547-.04296v-.1211l.14844-.14844.04297-.10156.05859-.08984.04688-.10156.04296-.10547.0586-.08985.03125-.11719.04297-.10156.03125-.1211.02734-.11718.04688-.10547.04296-.10156.04297-.10547.07422-.07031.08985-.0625.08984-.0586.10156-.04296h.29688l.26562-.03125.10547-.04297-.07422-.07422-.11719-.03125-.10546-.04297-.08985-.0586-.10156-.04687-.08985-.0586-.10156-.04296-.10547-.04297-.08984-.0625-.08594-.0586-.10547-.04296-.10156-.04297-.1211-.03125-.11718-.03125-.10156-.04297-.1211-.03125-.10156-.04297-.08984-.0586-.04297-.10546-.01563-.13281.10157-.04297.1328-.01563.13673.01563.13281-.01563.10156-.04297.0586-.08984.01562-.10547-.08984-.0586-.07422-.07421-.10156-.04297-.08985-.0586-.14844-.14843-.04296-.10547-.01563-.13281v-.29297l-.0586-.08985-.08984-.05859-.07421-.07422-.04297-.10547-.03125-.11718-.0586-.08985-.07422-.07422-.11718-.02734-.07422-.07422-.08985-.0586-.08984-.0625-.08594-.05859-.07422-.07421-.05859-.08594-.04688-.10547-.08593-.0586-.14844-.14843-.19531-.0586-.13281.01563-.10157.04297-.07422.07422-.04687.10156-.04297.10547-.0586.08984-.05859.08594-.29687.29687-.08985.0586h-.08593l-.0625-.08594-.04297-.10547.03125-.11719.0586-.08984.02733-.11719-.01171-.13281-.08985-.0625-.10547.04688-.11718.02734-.1172.03125-.26952.17578-.10156.04688-.1172.02734-.10546.04687-.08985.0586-.10156.04297-.0586-.08594-.04687-.10547.01563-.13281.04687-.10547.07032-.07422.07421-.07031.0586-.08985v-.14843l-.04297-.10547h-.23828l-.10156.04687-.03125.11719-.02735.11719-.03125.1211-.07422.04296-.1328.01563-.07423-.04688-.04297-.10156-.04296-.10547L293 407.1289l-.04297-.10547-.1211.03125-.10156.04297-.1328.01562-.1172.03125-.10546.04297-.08985.0586-.10156.04687-.1211.02734-.1328.01563-.10157-.04297-.0586-.08985-.04687-.10546-.04297-.10157-.04296-.10546v-.1172l.05859-.08984.08594-.05859.17968-.11719.10157-.04687.10546-.04297.10547-.0586.10157-.04296.08984-.0625.10156-.04297.10547-.0586.10156-.04687.08985-.0586.10547-.04296.10156-.04297.08984-.0625.10156-.04297.13672-.01563.1172.03125.10155.04297.1211.03125.10156.04297.10547.04688.10156.04296.10547.04297.10156.04688.10547.04297.10156.04297.10547.04687.08594.0586.10547.04296.11719.03125.10546.04297.10157.04688.08984.0586.10547.04296.10156.04297.10547.04687.11719.02735.10156.04687.1211.02735h.14843l.08594-.0586.01563-.10156.05859-.08984-.02735-.1172-.07421-.07421-.1172-.17969-.07421-.07422-.08984-.07421-.1797-.1172-.08593-.05859-.10547-.04296-.10156-.04688-.26953-.17578-.0586-.08985-.07421-.07421-.0586-.08985-.04297-.10156-.03125-.11719-.01562-.13672v-.5625l-.01172-.1328-.01563-.13282-.03125-.11719-.01562-.13281-.01172-.13281-.03125-.1211-.22265-.22265-.0586-.08594-.01562-.10547.03125-.11719.1328-.01562v-91.41406H173.05079v1.45312l-.0586.23438-.35155 1.05078-.17188.52343-.11719.34766-.17578.41016-.11719.17187-.23437.29297-.23047.0586h-.35156l-.11719.05859-.23047.40625v.29297l.11719.17578.23047.23047.11719.23437.64062.75781.29297.46485.17578.23437.23047.35156.23437.34766.64063.8164.17578.46485.17188.41016.11718.69531.17578.46875.1172 1.39844.05858.46484v.875l.1172 1.04688v4.78125l-.0586.46484-.35156 1.28125-.17578.52344-.11329.41015-.35156.9297L172.9922 336l-.23438.58203-.11719.17578-.17187.34766-.17578.40625-.35156.8164-.0586.29297-.11328.29297-.11719.28906-.05859.17579-.11719.875-.0586.40625-.05858.11718-.0586.17579-.0586.17187-.23046.52734-.11719.17188v.23437l-.11719.23438-.05859.17187-.17578.58594v.28906l-.0586.17579v.29296l-.05859.11329-.0586.52734v.17187l-.05468.23438v2.6211l-.17578.8164-.11719.17578-.17578.23438-.11719.17187-.11328.23438-.58594.93359-.23047.28906-.29296.46485-.17578.23437-.28907.35156-.35156.69922-.11328.23047-.17578.41016-.17578.23046-.40625.52735-.81641.69922-.29297.17187-.28906.23438-.17578.11719-.17578.17578-.52344.40625-.52734.17578-.17188.17578-.23438.05469-.64062.17578h-.75781m12.21094 31.02344l-1.07422.44921.35937.89454 1.25-.71485.44531-.53906-.98047-.08985"/><path fill="#d3d3d3" fill-opacity="0" fill-rule="evenodd" d="M201.5664 416.59766h-.89452l.44921.6289.98047.35938.80469-.08985.44531-.98828-.17578.08985-.71484-.35547-.89453.35547m154.62109 59.0703l-.0586-.52343v-.29297l.11329-.29297.0586-.23046.46874-.46875h.11328l.11719-.11329.11719-.05859h.17578l.23437-.0586h.34766l.23438.0586.11718.0586.23047.17187.0586.17578.11718.58203v.29297l-.11719.17578-.17187.28906-.17578.17579-.52735.52343-.23046.23438-.1172.0586h-.17577l-.11719-.0586-.40625-.29297-.17578-.11719-.11719-.0586-.0586-.11327-.05468-.1172m6.64063-10.95702l-.0586-.17188v-1.10937l.0586-.17188.17578-.0586.17187-.05858h.17578l.23438-.0586.11719.0586.05859.69921-.0586.17188-.11718.17578-.11719.0586-.23438.52343-.11328.0586h-.23437l-.0586-.1172m9.61329-14.39062l-.1172-.17578v-.69922l.29298-.875.11719-.17187.17578-.35156.11328-.23047.11719-.29297.35156-.75781.11719-.23047.17187-.23438h.17578l.11719-.0586h.64062l.1172.0586.23437.23438.17187.11328.35156.29297.1172.11718.11327.17579v.11328l.11719.05859.11719.11719v.69922l-.0586.17578v.23047l-.05859.17578-.34766 1.05078-.11718.23047-.1172.23437-.11718.0586-.23047.23437-.64062.28906h-.875l-.41016-.11718-.64062-.46485"/><path fill="none" stroke="#bebebe" stroke-linecap="round" stroke-linejoin="round" stroke-miterlimit="10" stroke-width=".5" d="M0 311.69531h0v168.625h0v-168.625"/><g clip-path="url(#a)"><path fill="#fff" fill-opacity="0" fill-rule="evenodd" d="M144.0586 311.67188v168.65625h324V311.67188h-324"/></g><g clip-path="url(#b)"><path fill="none" stroke="#000" stroke-linecap="round" stroke-linejoin="round" stroke-miterlimit="10" stroke-width=".5" d="M0 480.58594v-.51563"/></g><g clip-path="url(#c)"><path fill="none" stroke="#000" stroke-linecap="round" stroke-linejoin="round" stroke-miterlimit="10" stroke-width=".5" d="M0 480.58594v2.2461"/></g><g clip-path="url(#d)"><path fill="none" stroke="#000" stroke-linecap="round" stroke-linejoin="round" stroke-miterlimit="10" stroke-width=".5" d="M0 480.51172v1.125"/></g><g clip-path="url(#e)"><path fill="none" stroke="#000" stroke-linecap="round" stroke-linejoin="round" stroke-miterlimit="10" stroke-width=".5" d="M0 480.45313v-.2461"/></g><g clip-path="url(#f)"><path fill="none" stroke="#000" stroke-linecap="round" stroke-linejoin="round" stroke-miterlimit="10" stroke-width=".5" d="M0 480.45313v2.20312"/></g><g clip-path="url(#g)"><path fill="none" stroke="#000" stroke-linecap="round" stroke-linejoin="round" stroke-miterlimit="10" stroke-width=".5" d="M0 480.41406v1.10547"/></g><g clip-path="url(#h)"><path fill="none" stroke="#000" stroke-linecap="round" stroke-linejoin="round" stroke-miterlimit="10" stroke-width=".5" d="M0 480.29297v.07422"/></g><g clip-path="url(#i)"><path fill="none" stroke="#000" stroke-linecap="round" stroke-linejoin="round" stroke-miterlimit="10" stroke-width=".5" d="M0 480.29297v2.15234"/></g><g clip-path="url(#j)"><path fill="none" stroke="#000" stroke-linecap="round" stroke-linejoin="round" stroke-miterlimit="10" stroke-width=".5" d="M0 480.30078v1.07813"/></g><g clip-path="url(#k)"><path fill="none" stroke="#000" stroke-linecap="round" stroke-linejoin="round" stroke-miterlimit="10" stroke-width=".5" d="M0 480.41797v-.17578"/></g><g clip-path="url(#l)"><path fill="none" stroke="#000" stroke-linecap="round" stroke-linejoin="round" stroke-miterlimit="10" stroke-width=".5" d="M0 480.41797v2.1914"/></g><g clip-path="url(#m)"><path fill="none" stroke="#000" stroke-linecap="round" stroke-linejoin="round" stroke-miterlimit="10" stroke-width=".5" d="M0 480.39063v1.09765"/></g><g clip-path="url(#n)"><path fill="none" stroke="#000" stroke-linecap="round" stroke-linejoin="round" stroke-miterlimit="10" stroke-width=".5" d="M0 480.8164v-.97656"/></g><g clip-path="url(#o)"><path fill="none" stroke="#000" stroke-linecap="round" stroke-linejoin="round" stroke-miterlimit="10" stroke-width=".5" d="M0 480.8164v2.3047"/></g><g clip-path="url(#p)"><path fill="none" stroke="#000" stroke-linecap="round" stroke-linejoin="round" stroke-miterlimit="10" stroke-width=".5" d="M0 480.78906v-.92187"/></g><g clip-path="url(#q)"><path fill="none" stroke="#000" stroke-linecap="round" stroke-linejoin="round" stroke-miterlimit="10" stroke-width=".5" d="M0 480.78906v2.29688"/></g><g clip-path="url(#r)"><path fill="none" stroke="#000" stroke-linecap="round" stroke-linejoin="round" stroke-miterlimit="10" stroke-width=".5" d="M0 480.28906v.07813"/></g><g clip-path="url(#s)"><path fill="none" stroke="#000" stroke-linecap="round" stroke-linejoin="round" stroke-miterlimit="10" stroke-width=".5" d="M0 480.28906v2.15235"/></g><g clip-path="url(#t)"><path fill="none" stroke="#000" stroke-linecap="round" stroke-linejoin="round" stroke-miterlimit="10" stroke-width=".5" d="M0 479.42188v1.8125"/></g><g clip-path="url(#u)"><path fill="none" stroke="#000" stroke-linecap="round" stroke-linejoin="round" stroke-miterlimit="10" stroke-width=".5" d="M0 479.42188v1.79687"/></g><g clip-path="url(#v)"><path fill="none" stroke="#000" stroke-linecap="round" stroke-linejoin="round" stroke-miterlimit="10" stroke-width=".5" d="M0 479.46875v1.71875"/></g><g clip-path="url(#w)"><path fill="none" stroke="#000" stroke-linecap="round" stroke-linejoin="round" stroke-miterlimit="10" stroke-width=".5" d="M0 479.46875v1.8164"/></g><g clip-path="url(#x)"><path fill="none" stroke="#000" stroke-linecap="round" stroke-linejoin="round" stroke-miterlimit="10" stroke-width=".5" d="M0 479.7539v1.14844"/></g><g clip-path="url(#y)"><path fill="none" stroke="#000" stroke-linecap="round" stroke-linejoin="round" stroke-miterlimit="10" stroke-width=".5" d="M0 479.7539v1.94923"/></g><g clip-path="url(#z)"><path fill="none" stroke="#000" stroke-linecap="round" stroke-linejoin="round" stroke-miterlimit="10" stroke-width=".5" d="M0 479.4414v1.77735"/></g><g clip-path="url(#A)"><path fill="none" stroke="#000" stroke-linecap="round" stroke-linejoin="round" stroke-miterlimit="10" stroke-width=".5" d="M0 479.4414v1.80079"/></g><g clip-path="url(#B)"><path fill="none" stroke="#000" stroke-linecap="round" stroke-linejoin="round" stroke-miterlimit="10" stroke-width=".5" d="M0 479.01953v2.61719"/></g><g clip-path="url(#C)"><path fill="none" stroke="#000" stroke-linecap="round" stroke-linejoin="round" stroke-miterlimit="10" stroke-width=".5" d="M0 479.01953v1.58203"/></g><g clip-path="url(#D)"><path fill="none" stroke="#000" stroke-linecap="round" stroke-linejoin="round" stroke-miterlimit="10" stroke-width=".5" d="M0 478.875v2.91016"/></g><g clip-path="url(#E)"><path fill="none" stroke="#000" stroke-linecap="round" stroke-linejoin="round" stroke-miterlimit="10" stroke-width=".5" d="M0 478.875v1.4961"/></g><g clip-path="url(#F)"><path fill="none" stroke="#000" stroke-linecap="round" stroke-linejoin="round" stroke-miterlimit="10" stroke-width=".5" d="M0 479.25781v2.14063"/></g><g clip-path="url(#G)"><path fill="none" stroke="#000" stroke-linecap="round" stroke-linejoin="round" stroke-miterlimit="10" stroke-width=".5" d="M0 479.25781v1.71485"/></g><g clip-path="url(#H)"><path fill="none" stroke="#000" stroke-linecap="round" stroke-linejoin="round" stroke-miterlimit="10" stroke-width=".5" d="M0 479.45313v1.75"/></g><g clip-path="url(#I)"><path fill="none" stroke="#000" stroke-linecap="round" stroke-linejoin="round" stroke-miterlimit="10" stroke-width=".5" d="M0 479.70703v.90625"/></g><g clip-path="url(#J)"><path fill="none" stroke="#000" stroke-linecap="round" stroke-linejoin="round" stroke-miterlimit="10" stroke-width=".5" d="M0 477.48438v5.6914"/></g><path fill="none" stroke="#000" stroke-linecap="round" stroke-linejoin="round" stroke-miterlimit="10" stroke-width=".5" d="M0 478.3125v.16797"/><g clip-path="url(#K)"><path fill="none" stroke="#000" stroke-linecap="round" stroke-linejoin="round" stroke-miterlimit="10" stroke-width=".5" d="M0 476.84766v6.96484"/></g><path fill="none" stroke="#000" stroke-linecap="round" stroke-linejoin="round" stroke-miterlimit="10" stroke-width=".5" d="M0 477.85938v-.4297"/><g clip-path="url(#L)"><path fill="none" stroke="#000" stroke-linecap="round" stroke-linejoin="round" stroke-miterlimit="10" stroke-width=".5" d="M0 477.66797v5.32422"/></g><path fill="none" stroke="#000" stroke-linecap="round" stroke-linejoin="round" stroke-miterlimit="10" stroke-width=".5" d="M0 478.4414v.26954"/><g clip-path="url(#M)"><path fill="none" stroke="#000" stroke-linecap="round" stroke-linejoin="round" stroke-miterlimit="10" stroke-width=".5" d="M0 477.1875v6.28125"/></g><g clip-path="url(#N)"><path fill="none" stroke="#000" stroke-linecap="round" stroke-linejoin="round" stroke-miterlimit="10" stroke-width=".5" d="M0 476.86719v6.92187"/></g><g clip-path="url(#O)"><path fill="none" stroke="#000" stroke-linecap="round" stroke-linejoin="round" stroke-miterlimit="10" stroke-width=".5" d="M0 476.83984v6.98047"/></g><path fill="none" stroke="#000" stroke-linecap="round" stroke-linejoin="round" stroke-miterlimit="10" stroke-width=".5" d="M0 477.85547v-.44922"/><g clip-path="url(#P)"><path fill="none" stroke="#000" stroke-linecap="round" stroke-linejoin="round" stroke-miterlimit="10" stroke-width=".5" d="M0 476.88672v6.88281"/></g><path fill="none" stroke="#000" stroke-linecap="round" stroke-linejoin="round" stroke-miterlimit="10" stroke-width=".5" d="M0 477.88672v-.78125"/><g clip-path="url(#Q)"><path fill="none" stroke="#000" stroke-linecap="round" stroke-linejoin="round" stroke-miterlimit="10" stroke-width=".5" d="M0 476.90234v6.85157"/></g><path fill="none" stroke="#000" stroke-linecap="round" stroke-linejoin="round" stroke-miterlimit="10" stroke-width=".5" d="M0 476.90234v-.64062"/><g clip-path="url(#R)"><path fill="none" stroke="#000" stroke-linecap="round" stroke-linejoin="round" stroke-miterlimit="10" stroke-width=".5" d="M0 476.85938v6.9414"/></g><path fill="none" stroke="#000" stroke-linecap="round" stroke-linejoin="round" stroke-miterlimit="10" stroke-width=".5" d="M0 476.85938v-1.47657"/><g clip-path="url(#S)"><path fill="none" stroke="#000" stroke-linecap="round" stroke-linejoin="round" stroke-miterlimit="10" stroke-width=".5" d="M0 477.19531v6.26563"/></g><path fill="none" stroke="#000" stroke-linecap="round" stroke-linejoin="round" stroke-miterlimit="10" stroke-width=".5" d="M0 478.10938v-.02344"/><g clip-path="url(#T)"><path fill="none" stroke="#000" stroke-linecap="round" stroke-linejoin="round" stroke-miterlimit="10" stroke-width=".5" d="M0 467.21875v-.41016"/></g><path fill="none" stroke="#000" stroke-linecap="round" stroke-linejoin="round" stroke-miterlimit="10" stroke-width=".5" d="M0 467.21875v2.23047m0-2.28906v1.11328m0-1.03907v-.4414m0 .4414v2.23438m0-2.29688v1.1172m0-1.5586v.5664m0-.5664v2.0664m0-1.98437v1.03516m0-1.07032v.47266m0-.47266v2.08594m0-2.01562v1.04296m0-1.1289v.5039m0-.5039v2.07812m0-2.0039v1.03906m0-.95703v.1914m0-.1914v2.13672m0-1.97266v-.13672m0 .13672v2.1914m0-2.67187v.82422m0-.82422v2.01563m0-2.2461v1.28516m0-1.28516v1.92188m0-2.32422v2.08984m0-2.08984v1.72266m0-2.00391v2.65234m0-2.65234v1.57031m0-1.60937v2.73047m0-2.73047v1.54687m0-1.53515v2.70703m0-2.70703v1.55468m0-1.77343v3.14453m0-3.14453v1.42187m0-1.85937v4.01953m0-4.01953v1.12109m0-1.66797v5.11719m0-4.375v.32422M0 464v6.02734m0-5.14843v.0625m0-.00391v4.15234m0-3.54687v.53125m0-1.96484v5.80859m0-6.13281v6.45703m0-5.13672v3.8164m0-3.26171v.59765m0-1.76953v5.05078m0-5.05078v.67969m0-1.11328v5.91797m0-5.0586v.09766M0 463.75v6.52734m0-5.57812v-.13281m0-.92188v6.73828m0-6.73828v-.49219"/><g clip-path="url(#U)"><path fill="none" stroke="#000" stroke-linecap="round" stroke-linejoin="round" stroke-miterlimit="10" stroke-width=".5" d="M0 453.95313v-.50782"/></g><path fill="none" stroke="#000" stroke-linecap="round" stroke-linejoin="round" stroke-miterlimit="10" stroke-width=".5" d="M0 453.95313v2.24609m0-2.32031V455m0-.83984v-.92578m0 .92578v2.30078m0-2.4336v1.14844m0-.91015v-1.13282m0 1.13282v2.32421m0-2.46093v-.85938m0 .85938v2.28906m0-2.41406v1.14453m0-1.4375v-.02344m0 .02344v2.16797m0-2.17188v1.08203m0-1.14062v.10156m0-.10156v2.14844m0-2.13282v1.07422m0-1.29297v.5039m0-.5039v2.07813m0-2.0039v1.03905m0-1.4414v1.16406m0-1.16406v1.94531m0-1.77734v.97265m0-1.5664v2.01172m0-2.01172v1.74609m0-1.45313v.875m0-1.30468v2.28515m0-2.28515v1.67578m0-1.34375v.83984m0-1.5586v3.0625m0-3.0625v1.44532m0-1v.72266m0-.97266v2.67188m0-2.67188v1.5625M0 452.75v.78125m0-1.14844v2.6289m0-2.6289v1.57813m0-1.6836v2.83985m0-2.42578v.7578m0-2.10546v4.70703m0-4.70703v.83594m0-.90235v4.84375m0-4.84375v.77344m0-.90234V456.25m0-5.10156v.65234m0-1.53125v6.85938m0-6.85938v-.64844m0 1.0586v6.03515m0-5.15625v-1.05078m0 1.48828v3.40235m0-2.90625v-1.22657m0 2.41016v.04297m0-.03516v1.07813m0-1.90625v1.6875m0-1.6875v1.82812m0-2.26953v2.57031m0-2.5703v1.59374m0-2.46094v4.3047m0-4.3047v1.00782m0-1.30078v4.89062"/><g clip-path="url(#V)"><path fill="none" stroke="#000" stroke-linecap="round" stroke-linejoin="round" stroke-miterlimit="10" stroke-width=".5" d="M0 451.2539v.75391"/></g><g clip-path="url(#W)"><path fill="none" stroke="#000" stroke-linecap="round" stroke-linejoin="round" stroke-miterlimit="10" stroke-width=".5" d="M0 441.33594v-1.90625"/></g><path fill="none" stroke="#000" stroke-linecap="round" stroke-linejoin="round" stroke-miterlimit="10" stroke-width=".5" d="M0 441.33594v2.39844m0-2.67579v1.19922m0-.77344v-2.20312m0 2.20312v2.41797m0-2.76953v-1.4961m0 1.4961v2.35938m0-2.39063v-1.4375m0 1.4375v2.35938m0-2.6836v-.78515m0 .78515v2.28125m0-2.39453v1.14063m0-1.98047v1.11719m0-1.1172v1.95704m0-1.79297v.97656m0-1.83984v2.51563m0-2.51563v1.60938m0-1.46094v2.22265m0-2.22265v1.6914m0-1.91797v2.67188m0-2.67188v1.56641m0-1.17578v.78125m0-2.0586v4.44923m0-4.44922v.9453m0-.30077v.47656m0-.8711v3.94532m0-3.94531v1.14453m0-.57031v.57421m0-1.14843v3.9453m0-3.9453v1.14843m0-.57421v.57421m0-1.1953v4.04296m0-4.04297v1.10938m0-.52344v.55469m0-1.38672v4.53515m0-4.53515v.91015m0-.25v.45313m0-1.1289v4.5625m0-4.5625V439m0-.23437v.44921m0-1.14843v4.63672m0-4.63672v.86718m0-1.28515v5.47265m0-5.47265v.46094m0-1.22657v7m0-7v-.95312m0 1.97265v-.47656m0 .0586v5.79687m0-5.79687v-2.17188m0 3.76953v2.60547m0-2.22656v-1.22266m0-1.125v6.53906m0-5.58593v-.14063m0 .82031v3.27344m0-3.27344v1.38282m0-.90625v1.3828m0-2.48046v4.51563m0-4.51563v.92188m0 .90625v.85937m0-.85937v2.0078m0-4.03905v4.92578"/><g clip-path="url(#X)"><path fill="none" stroke="#000" stroke-linecap="round" stroke-linejoin="round" stroke-miterlimit="10" stroke-width=".5" d="M0 437.92188v.73437"/></g><g clip-path="url(#Y)"><path fill="none" stroke="#000" stroke-linecap="round" stroke-linejoin="round" stroke-miterlimit="10" stroke-width=".5" d="M0 427.89844v-1.66016"/></g><path fill="none" stroke="#000" stroke-linecap="round" stroke-linejoin="round" stroke-miterlimit="10" stroke-width=".5" d="M0 427.89844v2.3789m0-2.62109v1.1914m0-1.03906v-1.48046m0 1.48046v2.35938m0-2.375v-1.44531m0 1.4453v2.35548m0-2.29297v-1.57422m0 1.57422v2.36719m0-2.59766v1.1836m0-1.73048v-.01953m0 .01953v2.16797m0-2.17187v1.08594m0-2.03907v1.89453m0-1.89453v1.77344m0-1.5v.89063m0-1.89454v3.35547m0-3.35547v1.35547m0 .69532v-.7461m0 .63672v1.14063m0-2.60157v2.39453m0-2.39453v1.64063m0-2.99219v5.09766m0-5.09766v.65625m0 .07422v3.64062M0 425.25v1.2539m0-2.28906v5.70703m0-5.70703v.33203m0 .0586v4.92578m0-4.20703v.36719m0-1.8672v6.48829m0-6.48828v-.23047m0 1.17578v-.11719m0-.46093v5.7539m0-5.7539v.30078m0 .53515v.15235m0-.32813v4.4336m0-4.4336v.95313m0-.71485v3.95703m0-3.95703v1.14453m0-2.17578v6.01953m0-6.01953v.12891m0 .7461v.1289m0-1.26563v6.54297m0-6.54297v-.28125M0 424.75v-.28125m0-.34766v5.89844m0-5.89844v.20703m0 .64844v.10547m0-.69922v5.3711m0-5.3711v.51953m0 .26172v.51953m0 .26172v.26172m0-1.78906v5.30078m0-5.30078v.55078m0 .21875v.55469m0-1.9375v6.52734m0-6.52734v-.26953m0 1.21875v-.13282m0-.82422v6.54297m0-6.54297v-.28515M0 424.75v-.14453m0-1.03125v6.98828m0-5.97266v-.45703"/><g clip-path="url(#Z)"><path fill="none" stroke="#000" stroke-linecap="round" stroke-linejoin="round" stroke-miterlimit="10" stroke-width=".5" d="M0 414.36328v-1.22265"/></g><path fill="none" stroke="#000" stroke-linecap="round" stroke-linejoin="round" stroke-miterlimit="10" stroke-width=".5" d="M0 414.36328v2.33594m0-2.51172v1.16797m0-.91016v-1.38281m0 1.38281v2.35156m0-2.55078v1.17578m0-1.43359v-.46875m0 .46875v2.23828m0-2.91015v.87109m0-.8711v2.00782m0-1.95313v.76563m0-.65234v1.01171m0-1.67968v1.875m0-1.60157v.89063m0-.1875v-.07813m0 .06641v1.08984m0 .07813v-2.39063m0 2.39063v2.42969m0-3.6797v.10548m0-.08985v1.07422m0-2.34375v2.61719m0-2.61719v1.58203m0-1.62109v2.69531m0-2.69531v1.5586m0-3.1836v5.9414m0-5.9414v.1836m0-.63282v6.84375m0-5.84766v-.3164m0-.17188v5.82422m0-5.82422v.25782m0 .58984v.1289m0-.83593v5.54687m0-5.54687v.42187m0 .38672V412m0-1.0586v5.625m0-5.625v.375m0 .44141v.1875m0 .85938v1.89844m0-1.6211v.88672m0-2.6875v4.94531m0-4.94531v.72656M0 412v.36328m0-.92969v4.64063m0-4.64063v.8672m0-.19141v.86718m0-.1914v.43359m0-1.66406v4.39844m0-4.39844v.96875m0-.32813v.96875m0-2.21094v5.60157m0-5.60156v.38671m0 .42578v.39063m0-1.7461v6.6875m0-6.6875v-.43359m0 1.40625v-.4336m0-.58202v6.77344m0-6.77344v-.53906m0 1.52343v-.26953m0-.40234v6.14844m0-6.14844v.03515m0-.05859v6.19531m0-6.19531v.0039m0 .89454v.0039"/><g clip-path="url(#aa)"><path fill="none" stroke="#000" stroke-linecap="round" stroke-linejoin="round" stroke-miterlimit="10" stroke-width=".5" d="M0 401.0039v-1.1289"/></g><path fill="none" stroke="#000" stroke-linecap="round" stroke-linejoin="round" stroke-miterlimit="10" stroke-width=".5" d="M0 401.0039v2.32423m0-2.48047v-.81641m0 .8164v2.28516m0-2.98047v.57422m0-.57422v2.06641m0-4.52344v5.48828m0-5.48828v.45313m0 .33984v3.89844m0-3.89844v1.16406m0 2.6172v-3.66017m0 3.125v-.625m0 .22657v-1.79297m0 1.53125v1.19531m0-1.59375v-.47656m0 .47656v2.23828m0-2.3086v1.1211m0-2.02344v1.46875m0-1.46875v1.87891m0-1.66406v.9375m0-1.52344v2.21485m0-2.21485v1.6914m0-.59374v.01562m0-.01562v2.16406m0-2.16016v1.08204m0-3.00391v3.85547m0-3.85547v1.17969m0-.33594v2.16797m0-2.16797v1.70312m0-1.39062v.85547m0-1.91016v3.64844m0-3.64844v1.2539m0-.72265v.625m0-1.8164v4.96875m0-4.96875v.71875m0 .0039v.35938m0-.03907v2.88672m0-2.88672v1.5m0-1.08203v.75m0-.26953v1.08985m0-1.08985v1.96094m0-1.80469v.98047m0-2.57813v3.96875m0-3.96875v1.14063m0-.5625v1.13672m0-.5586v.56641m0-2.54687v5.61718m0-5.61718v.3828m0 .4375v.37892m0-.63282v4.48828m0-4.48828v.92969m0-.27734v.46484m0 .26172v1.73047m0-1.73047v1.8164m0-1.5664v.91015m0-2.92578v5.26172m0-5.26172v.57032m0 .1953v.28517m0-1.88282v6.92188m0-6.92188v-.76562m0 1.77344v-.76563m0 .38281v5.67578m0-4.85156v.17578m0-.98047v5.63282"/><g clip-path="url(#ab)"><path fill="none" stroke="#000" stroke-linecap="round" stroke-linejoin="round" stroke-miterlimit="10" stroke-width=".5" d="M0 397.6211v.375"/></g><path fill="none" stroke="#000" stroke-linecap="round" stroke-linejoin="round" stroke-miterlimit="10" stroke-width=".5" d="M0 398.4414v.1875"/><g clip-path="url(#ac)"><path fill="none" stroke="#000" stroke-linecap="round" stroke-linejoin="round" stroke-miterlimit="10" stroke-width=".5" d="M0 388.49219v-2.73828"/></g><path fill="none" stroke="#000" stroke-linecap="round" stroke-linejoin="round" stroke-miterlimit="10" stroke-width=".5" d="M0 388.49219v2.44531m0-3.01172v-1.60547m0 1.60547v2.3711m0-5.56641v4.78515m0-4.78515v.80469m0-1.67188v6.51953m0-6.51953v-.25781m0 1.20703v-.1289m0-1.02344v6.92578m0-6.92578v-1.5m0 3.4453v3.03517m0-3.03516v1.45312m0 .04297v.04297m0-.04297v2.16016m0-2.6914v1.10546m0-1.10547v1.96094m0-1.80078v.98047m0-.70703v.23828m0-.23828v2.1289m0-2.09375v1.0625m0-2.38672v2.81641m0-2.8164v1.52734m0-1.11719v.76172m0 .17187v.13282m0-.13282v2.14454m0-2.125v2.14062m0-3.1289v2.0664m0-2.0664v1.73046m0-1.42969v.8672m0-1.27344v2.27734m0-2.27735v1.67579m0-1.34375v.83984m0-1.04688v2.02735m0-2.02735v1.7422m0-1.44532v.8711m0-1.58594v2.86328m0-2.86328v1.5078m0-1.08983v.7539m0-1.10156v2.72656m0-2.72656v1.54687m0-1.375v2.37891m0-2.3789v1.64843m0-1.30078v1.64844m0-1.30469v.82422m0-2.19531v3.73828m0-3.73828v1.22265m0-.67969v1.22266m0-.67578v1.21875m0-2.8789v4.8789m0-4.8789v.7578m0-.04687v.75781m0-.05078v.38281m0-1.3789v4.03515m0-4.03515v1.10937m0-.52343v1.11328m0-.52344v.55469M0 384.75v4.7461m0-4.7461v.82031m0-.1289v.8203m0-2.1289v5.98047m0-5.98047v.15625m0 .71485v.07812M0 384v6.2461M0 384v-.02734m0 .9375v-.03125m0-.4961v5.48047m0-5.48047v.45703m0 .33985v.46094m0-1.48829v5.94532"/><g clip-path="url(#ad)"><path fill="none" stroke="#000" stroke-linecap="round" stroke-linejoin="round" stroke-miterlimit="10" stroke-width=".5" d="M0 384.15234v.1797"/></g><path fill="none" stroke="#000" stroke-linecap="round" stroke-linejoin="round" stroke-miterlimit="10" stroke-width=".5" d="M0 385.01563v.17968"/><g clip-path="url(#ae)"><path fill="none" stroke="#000" stroke-linecap="round" stroke-linejoin="round" stroke-miterlimit="10" stroke-width=".5" d="M0 375.4414v-3.26562"/></g><path fill="none" stroke="#000" stroke-linecap="round" stroke-linejoin="round" stroke-miterlimit="10" stroke-width=".5" d="M0 374.96484v1.22657m0-1.1172v-2.53124m0 2.16406v1.21485m0-5.01172v5.79687m0-5.79687v.27343m0-.34375v5.9375m0-5.9375v.1836m0 .67969v.09375m0-.96485v5.95313m0-5.08985v.08985m0 .15234v3.74219m0-3.74219v1.21875m0-.67578v.60937m0 1.9336v-2.42969m0 2.42969v2.42969m0-3.1172v-1.05468m0 1.05469v2.3164m0-2.46875v1.15625m0-1.5703v.07421m0-.07422v2.15625m0-2.14453v1.07813m0-1.66016v1.21484m0-1.21484v1.9375m0-1.75781v.96484m0-.46875v-.13281m0 .13281v2.1875m0-2.20703v1.09375m0-1.32031v.35937m0-.35937v2.10546m0-2.05468v1.05469m0-1.50782v1.16406m0-1.16406v1.94531m0-1.77734v1.94531m0-2.15625v1.25m0-1.25v1.92579m0-1.7422v1.92579m0-1.7461v.96485m0-1.34375v1.27734m0-1.27734v1.92187m0-1.73437v1.92187m0-1.73437V374.5m0-1.09766v.8125m0-.8125v2.01563m0-1.89844v2.01953m0-1.90234v1.01172m0-1.29297v.90625m0-.90625v1.9961m0-1.8672v2m0-1.86718v1m0-1.59766v1.57813m0-1.57813v1.85156M0 373.25v1.85156m0-1.625v.92578m0-2.22265v3.25781m0-3.25781v1.38281m0-.91016v1.38672m0-.91015v.6914m0-2.27344v4.51954m0-4.51954v.91797m0-.2578v.91796m0-.26172v.46094m0-1.66016v4.28516m0-4.28516v1.01563m0-.39063v1.01563m0-1.45703v3.92187m0-3.92187v1.15625m0-.58594v.57812m0-1.53515v4.69531m0-4.69531v.84375m0-.16016v.42188m0-1.33985v5.16406m0-5.16406v.6211m0 .1289v.3125m0-1.60547v6.25m0-6.25v-.03515m0 .94531v-.03906"/><g clip-path="url(#af)"><path fill="none" stroke="#000" stroke-linecap="round" stroke-linejoin="round" stroke-miterlimit="10" stroke-width=".5" d="M0 362.94531v-4.90625"/></g><path fill="none" stroke="#000" stroke-linecap="round" stroke-linejoin="round" stroke-miterlimit="10" stroke-width=".5" d="M0 362.23047v1.17969m0-1.07813v-3.67578m0 3.14063v1.22265m0-3.22265v1.39062M0 360v.94922m0-2.41406v3.91796m0-3.91796v1.15234m0-.32813v2.26954m0-2.26954v1.6797m0-2.51954v3.94922m0-3.94922v1.14453m0 1.00781v-.35937m0 .35938v2.22656m0-2.27735v1.11329m0-.625v-1.23047m0 1.23046v2.33204m0-2.51172v1.16797m0-1.42188v-.36719m0 .3672v2.22655m0-1.9453v-.9297m0 .9297v2.30077m0-2.4336v1.14845m0-1.32032v-.3164m0 .3164v2.21485m0-2.26172v2.21484m0-2.25v-.15625m0 .15625v2.1914m0-2.21483v2.1914m0-2.53906v.58984m0-.58984v2.0586m0-1.97266v2.05859m0-1.97266v1.02735m0-1.0586v.3086m0-.3086v2.11329m0-2.07032v2.11328m0-2.0664v1.05469m0-1.32032v.66016m0-.66016v2.04688m0-1.95313v2.05078m0-2.23046v.83203m0-.83204v2.01563m0-1.89453v2.01562m0-1.85546v.26953m0-.26954v2.1172m0-2.07813v2.11719m0-2.56641v1.08984m0-1.08984v1.96094m0-1.8047v1.96095m0-3.00782v2.8672m0-2.8672v1.50782m0-1.08985v1.50781m0-1.08984v.7539m0-1.93359v3.5547m0-3.5547V360m0-.76563v1.28516m0-.76953v.64453m0-2.36719v4.9336m0-4.9336v.73047m0-.01562v.73437m0-.01562v.73437m0-2.10547v4.8047m0-4.8047v.79297m0-.09375v.79297m0-1.39062v4.60546m0-4.60546v.8828m0-.8125v4.46095m0-4.46094v.9414m0-1.14062v4.85938"/><g clip-path="url(#ag)"><path fill="none" stroke="#000" stroke-linecap="round" stroke-linejoin="round" stroke-miterlimit="10" stroke-width=".5" d="M0 358.0625v.76953"/></g><path fill="none" stroke="#000" stroke-linecap="round" stroke-linejoin="round" stroke-miterlimit="10" stroke-width=".5" d="M0 358.76953v.38672"/><g clip-path="url(#ah)"><path fill="none" stroke="#000" stroke-linecap="round" stroke-linejoin="round" stroke-miterlimit="10" stroke-width=".5" d="M0 350.6836v-7.01173"/></g><g clip-path="url(#ai)"><path fill="none" stroke="#000" stroke-linecap="round" stroke-linejoin="round" stroke-miterlimit="10" stroke-width=".5" d="M0 349.66406v.64844"/></g><path fill="none" stroke="#000" stroke-linecap="round" stroke-linejoin="round" stroke-miterlimit="10" stroke-width=".5" d="M0 350.35156v-6.34765m0 5.42578v.98437m0-1.33594v-3.80078m0 3.2461v1.22265m0-2.41015v-.3125m0 .3125v2.21484m0-2.8789v1.01171m0-1.01171v1.98046m0-1.73046v.51171m0-.51171V349m0-1.13672v-1.36719m0 1.3672v2.34765m0-1.90235v-2.26171m0 2.26171v2.42188m0-2.75v1.21094m0-.88282v-2.26171m0 2.26171v2.42188m0-2.75v1.21094m0-1.32422v-1.3789m0 1.3789v2.35156m0-2.55078v2.35156m0-2.44922v-.78515m0 .78515v2.28125m0-2.39453v2.28125m0-2.10156v-.91797m0 .91797v2.30078m0-2.4336v2.29688m0-2.29687v-.65235m0 .65235v2.26562m0-2.35937v2.26171m0-2.51562v.04297m0-.04297v2.16016m0-2.15235v2.15625m0-2.15234V348.25m0-1.60156v1.0586m0-1.0586v1.96875m0-1.8125v1.96875m0-1.8164v.98437m0-2.0586v2.58985m0-2.58985v1.58985m0-1.21485v.79688m0-.47656v1.19921m0-1.19921v1.9414m0-1.76562v1.9375m0-2.1797v1.33204m0-1.33203v1.91015m0-1.71484v1.91016m0-1.71875v.95703m0-2.25781v3.16015m0-3.16015v1.41796m0-.95703v1.41797m0-.95703v.70703m0-1.83984v3.58203m0-3.58203v1.27734m0-.7539v1.27343m0-1.58984v3.16797m0-3.16797v1.41797m0-.95703v1.41406m0-3.39063v6.19922m0-6.19921v.0039m0 .89844v.0039m0-.80078v5.98829m0-5.98829v.15235m0 .71875v.15234m0-.53515v5.01562m0-5.01563v.69532m0 .42578v2.76953"/><g clip-path="url(#aj)"><path fill="none" stroke="#000" stroke-linecap="round" stroke-linejoin="round" stroke-miterlimit="10" stroke-width=".5" d="M0 345.79297v1.53515"/></g><path fill="none" stroke="#000" stroke-linecap="round" stroke-linejoin="round" stroke-miterlimit="10" stroke-width=".5" d="M0 346.19531v.76953"/><g clip-path="url(#ak)"><path fill="none" stroke="#000" stroke-linecap="round" stroke-linejoin="round" stroke-miterlimit="10" stroke-width=".5" d="M0 335.77734v-3.82812"/></g><path fill="none" stroke="#000" stroke-linecap="round" stroke-linejoin="round" stroke-miterlimit="10" stroke-width=".5" d="M0 337.30078v-6.875m0 5.875v.33594m0-.13281v-5.28125m0 4.51171v1.14844m0-2.07812v-1.88672m0 1.61328v1.19922m0-1.17188v-1.39062m0 1.1875v1.17578m0 .9375v-5.21094m0 5.21094v2.3086m0-3.06641v1.15234m0-1.2461v-3.51171m0 3.51172v2.45312m0-2.96094v1.22657m0-.16406v-4.6172m0 4.6172v2.39062M0 335.5v1.19531m0-.90234v-3.85938m0 3.85938v2.4414m0-3.0039v2.44531m0-2.33984v-2.94531m0 2.9453v2.44923m0-2.87891v2.44922m0-2.32031v-2.34375m0 2.34375v2.42578m0-2.76563v2.42578m0-2.91796v-.6797m0 .6797v2.26562m0-2.36719v2.26953m0-2.30468v-.41016m0 .41016v2.23046m0-2.28906v1.11719m0-.3711v-1.78124m0 1.78125v2.39062m0-3.6211v.6797m0-.6797v2.04688m0-1.94922v1.02344m0-1.25781v.95312m0-.95312v1.98828m0-1.85156v1.99219m0-1.89454v.48438m0-.48438v2.07813m0-3.01563v2.35547m0-2.35547v1.65625m0-1.3125v1.65625m0-3.29687v4.95312m0-4.95312v.72656m0-.0039v.72265m0-.0039v.36328m0-2.00782v5.35547m0-5.35547v.52735m0 .2539v.52344m0 .2539v.26563m0-1.8086v5.32813m0-5.32812v.54297m0 .23437v.26953m0 .04688v3.14062m0-3.14062v1.42187m0-3.32812v6.95312m0-6.95312v-.82813m0 2.21094v4.1836m0-4.1836v1.05469m0-.44531v.52734m0-.50781v2.92969"/><g clip-path="url(#al)"><path fill="none" stroke="#000" stroke-linecap="round" stroke-linejoin="round" stroke-miterlimit="10" stroke-width=".5" d="M0 332.39844v1.48828"/></g><g clip-path="url(#am)"><path fill="none" stroke="#000" stroke-linecap="round" stroke-linejoin="round" stroke-miterlimit="10" stroke-width=".5" d="M0 332.82422v1.48828"/></g><g clip-path="url(#an)"><path fill="none" stroke="#000" stroke-linecap="round" stroke-linejoin="round" stroke-miterlimit="10" stroke-width=".5" d="M0 322.78125v-4.46875"/></g><path fill="none" stroke="#000" stroke-linecap="round" stroke-linejoin="round" stroke-miterlimit="10" stroke-width=".5" d="M0 322.9375v-4.77734m0 4.08203v-.40235m0 1.89454v-6.375m0 5.44921v.06641m0-1.15234v-2.35157m0 2.01172v1.21485m0-1.08594v-1.92578m0 1.92578v2.39844m0-.55079v-5.625m0 5.625v2.22266m0-2.22656v-5.61719m0 5.61719v2.22265m0-3.03906v1.11328m0-.45703v-5.29297m0 5.29297v2.29297m0-3.0664v1.14843m0-.34765v-5.35157m0 5.35157v2.28125m0-3.0586v2.28125m0-1.79297v-4.77343m0 4.77343v2.3711m0-3.0664v2.375m0-2.0586v-4.01563m0 4.01563v2.4375m0-3.01953v1.21875m0-1.25v-2.78516m0 2.78516v2.4453m0-2.85155v1.22265m0-.60937v-3.19922m0 3.19922v2.45312m0-3.78906v-.52734m0 .52734v2.2461m0-2.79298v.56641m0-.5664v2.0664m0-2.55469v1.53907m0-1.53907v1.86329m0-.16407v-1.85937m0 1.58984v1.19922m0-3.46094v3.20703m0-3.20703v1.39844m0-2.25781v4.92187m0-4.92187v.74219m0-.02344v.36719m0-1.5586v5.8711m0-5.8711v.22656m0 .625v.23047m0-1.17187v6.05078m0-6.05078v.10547m0 .77343v.10938m0-1.16016v6.39063m0-6.39063v-.14453m0 5.625v-4.57031m0 3.90625v-.44922m0-4.42969v6.51953m0-6.51953v-.26172m0 .57813v5.88672"/><g clip-path="url(#ao)"><path fill="none" stroke="#000" stroke-linecap="round" stroke-linejoin="round" stroke-miterlimit="10" stroke-width=".5" d="M0 317.60547v.21875"/></g><path fill="none" stroke="#000" stroke-linecap="round" stroke-linejoin="round" stroke-miterlimit="10" stroke-width=".5" d="M0 318.46094v.21875"/><path fill="#ff3030" fill-rule="evenodd" d="M322.41797 436.57813h7.6914v-10.14454h-7.6914v10.14454"/><path fill="azure" fill-rule="evenodd" d="M324.25 428.26563h.83203v5.74218h3.19531v.73828H324.25v-6.48046"/><path fill="#00f" fill-rule="evenodd" d="M388.29688 436.57813h8.61718v-10.14454h-8.61719v10.14454"/><path fill="azure" fill-rule="evenodd" d="M390.1289 428.26563h.83594v2.82421H394.25v-2.82421h.83203v6.48046H394.25v-2.91406h-3.28516v2.91406h-.83593v-6.48046"/><path fill="#ff3030" fill-rule="evenodd" d="M291.34766 409.94922h7.6914v-10.14453h-7.6914v10.14453"/><path fill="azure" fill-rule="evenodd" d="M293.17969 401.63672h.83594v5.73828h3.1914v.74219h-4.02734v-6.48047"/><path fill="#ff3030" fill-rule="evenodd" d="M455.5664 409.94922h7.69141v-10.14453h-7.6914v10.14453"/><path fill="azure" fill-rule="evenodd" d="M457.39844 401.63672h.83594v5.73828h3.1914v.74219h-4.02734v-6.48047"/><path fill="#ff3030" fill-rule="evenodd" d="M198.14063 374.4414h7.6953v-10.14452h-7.6953v10.14453"/><path fill="azure" fill-rule="evenodd" d="M199.97656 366.1289h.83203v5.7422h3.19532v.73827h-4.02735v-6.48046"/><path fill="#ffffe0" fill-rule="evenodd" d="M315.17188 370.83984h22.17968v-10.1914h-22.17969v10.1914"/><path fill-rule="evenodd" d="M318.67188 362.48047h.5078v6.29687h-.78515v-4.49218h-1.39062v-.5547l.5625-.0664.25-.05078.23046-.08984.20313-.14453.17578-.20704.14063-.29687.10546-.39453m4.8125 0l.23047.01953.21875.05469.20704.08984.19921.1211.1836.14843.17187.17578.30078.42188.2422.49219.17968.54687.11328.57813.03516.59375-.03516.58984-.11328.58594-.17969.55469-.24219.5-.30078.42968-.17187.17969-.1836.15234-.19921.125-.20704.08985-.21875.0586-.23046.01952-.22657-.01953-.21875-.0586-.21094-.08984-.1953-.125-.1836-.15234-.17188-.17969-.30078-.42969-.2461-.5-.17968-.55468-.10937-.58594-.03907-.58984h.83204l.03125.5625.08203.5039.125.44531.16406.3711.1875.30078.21094.22266.22265.13671.22656.04688.22657-.04688.22265-.13671.21094-.22266.1914-.30078.16407-.3711.125-.4453.08203-.50391.02735-.5625-.02735-.5625-.08203-.5-.125-.4375-.16406-.36329-.1914-.29296-.21095-.21485-.22265-.13281-.22656-.04297-.22657.04297-.22265.13281-.21094.21485-.1875.29296-.16406.36329-.125.4375-.08204.5-.03125.5625h-.83203l.03907-.59375.10937-.57813.17969-.54687.2461-.4922.30077-.42187.17188-.17578.1836-.14844.1953-.12109.21094-.08984.21875-.05469.22656-.01953m5.09375 0h.50782v6.29687h-.78516v-4.49218h-1.39062v-.5547l.55859-.0664.2539-.05078.23048-.08984.20312-.14453.17188-.20704.14453-.29687.10546-.39453m2.82032 2.17578h.78906l.01953-.3164.0586-.28516.10156-.2539.13672-.21485.18359-.17578.22266-.12891.26562-.07813.3086-.02734.23828.01953.22265.0625.20313.10156.17969.14063.14843.17188.11328.20703.07032.23437.02734.26563-.02344.26953-.0664.22265-.10938.19141-.15625.17188-.19922.16406-.2461.16406-.63671.39063-.53516.3125-.4375.3164-.34765.32422-.26172.33594-.1914.35156-.125.3711-.07032.39062-.01953.42187h4.21094v-.74218h-3.33204l.08204-.28516.11328-.23438.14844-.20312.1875-.17969.23046-.17187.28125-.17578.71485-.41797.41797-.20313.34375-.23047.28125-.2539.21875-.26563.16406-.27734.11328-.28516.0625-.28515.01953-.28125-.04297-.38282-.11719-.34765-.1914-.3086-.25-.26171-.30078-.21485-.34766-.15625-.3789-.09765-.40625-.03516-.4375.03125-.39844.10156-.35156.16406-.3047.23438-.25.30469-.1875.375-.11327.4453-.04297.51954"/><path fill="#ffffe0" fill-rule="evenodd" d="M204.21484 333.66797h22.1797v-10.1914h-22.1797v10.1914"/><path fill-rule="evenodd" d="M207.71094 325.3086h.51172v6.29296h-.78907v-4.48828h-1.38672v-.55469l.5586-.0664.2539-.05469.23047-.08984.20313-.14063.17187-.21094.14063-.29296.10547-.39454m4.8164 0l.23047.01954.21875.05468.20703.08985.19532.12109.18359.14844.17188.17578.30078.41797.24609.4961.17969.54687.10937.57812.03906.58985-.03906.59375-.10937.58593-.17969.55078-.2461.50391-.30077.42969-.17188.17969-.1836.15234-.1953.1211-.20704.09374-.21875.05469-.23047.02344-.23047-.02344-.21875-.05469-.20703-.09375-.1953-.1211-.1875-.15233-.16798-.1797-.30469-.42968-.24218-.5039-.17969-.55079-.11328-.58594-.03516-.59375h.83203l.02735.5625.08203.50782.125.4414.16406.375.1914.30079.21095.22265.22265.13672.22656.04688.22657-.04688.22265-.13672.21094-.22265.1914-.30079.16016-.375.125-.4414.08203-.50781.03125-.5625-.03125-.5586-.08203-.5039-.125-.4336-.16015-.36719-.19141-.28906-.21094-.21484-.22265-.13281-.22657-.04297-.22656.04296-.22266.13282-.21093.21484-.1914.28906-.16407.3672-.125.43358-.08203.50391-.02735.5586h-.83203l.03516-.58985.11328-.57812.17969-.54688.24219-.4961.30468-.41796.16797-.17578.1875-.14844.19531-.1211.20703-.08984.21875-.05469.23047-.01953m5.08985 0h.51172v6.29297h-.78907v-4.48828h-1.38672v-.55469l.5586-.0664.2539-.05469.22657-.08984.20312-.14063.17578-.21094.14063-.29296.10547-.39454m2.82422 2.17579h.78515l.01953-.31641.0625-.28906.09766-.25.14063-.21485.17968-.17578.22266-.1289.26562-.07813.3086-.02734.23828.01953.22266.0625.20703.10156.17578.13672.15234.17578.10938.20313.07422.23828.02343.26562-.01953.26563-.0664.22656-.10938.1914-.15625.17188-.19922.16016-.25.16796-.63281.38672-.53906.31641-.4375.3164-.34375.32423-.26563.33593-.1914.35156-.125.3672-.06641.39452-.02344.41797h4.21484v-.73828h-3.33203l.08203-.28515.11329-.23829.14843-.19921.1875-.1797.23047-.17187.27735-.17578.71875-.41797.41406-.20312.34766-.23438.27734-.25.22266-.26562.16406-.27735.10937-.28515.0625-.28516.02344-.28125-.04297-.38281-.1211-.34766-.1875-.3086-.25-.26171-.30468-.21484-.34375-.15625-.38281-.10157-.40625-.03125-.4336.03125-.39843.09766-.35547.16797-.30469.23437-.25.3047-.1836.375-.11718.4453-.03906.51954"/><path fill="#ffffe0" fill-rule="evenodd" d="M352.05469 343.60547h22.17969v-10.1914h-22.1797v10.1914"/><path fill-rule="evenodd" d="M355.55469 335.2461h.50781v6.29687h-.78516v-4.49219h-1.39062v-.55469l.5586-.0664.2539-.05078.23047-.08985.20312-.14453.17188-.20703.14453-.29688.10547-.39453m4.8125 0l.23047.01954.21875.05468.20703.08985.19531.12109.1836.14844.17187.17578.30469.42187.24218.4922.1797.54687.10937.57812.03906.59375-.03906.58985-.10938.58593-.17969.55469-.24218.5-.3047.42969-.17187.17969-.18359.15234-.19531.125-.20703.08984-.21875.0586-.23047.01953-.23047-.01953-.21875-.0586-.20703-.08984-.19531-.125-.1836-.15235-.17187-.17968-.3047-.42969-.24218-.5-.17969-.55469-.10937-.58594-.03906-.58984h.83203l.03125.5625.07812.5039.1289.44532.16017.3711.1914.30077.21094.22266.22265.13672.22657.04688.22656-.04688.22266-.13672.21093-.22265.19141-.30079.16016-.37109.1289-.44531.08203-.5039.02735-.5625-.02735-.5625-.08203-.5-.1289-.4375-.16016-.36329-.1914-.29297-.21094-.21484-.22266-.13281-.22656-.04297-.22656.04296-.22266.13282-.21094.21484-.1914.29297-.16016.36328-.1289.4375-.07813.5-.03125.5625h-.83203l.03906-.59375.10937-.57812.1797-.54688.24218-.49219.30469-.42187.17187-.17578.1836-.14844.1953-.1211.20704-.08984.21875-.05469.23047-.01953m5.08984 0h.51172v6.29688h-.78906v-4.49219h-1.38672v-.55469l.5586-.0664.2539-.05078.22656-.08985.20703-.14453.17188-.20703.14062-.29688.10547-.39453m6.80469 1.6211h-.78516l-.05078-.21485-.08203-.18359-.10938-.16016-.1289-.1289-.14844-.10547-.15625-.07422-.17187-.04297-.17188-.01562-.32812.03906-.28516.1211-.2461.1953-.20312.26954-.16015.33593-.1172.40625-.0703.46485-.02344.52734.1875-.20312.1875-.16016.1836-.1211.1875-.08593.1875-.0625.1914-.03516.40234-.02734.3086.03125.3203.09375.3125.15625.29688.21875.2539.28515.19923.34766.07422.20313.05078.21484.03125.23438.0039.2539-.78906.04688-.02734-.26172-.07422-.25-.125-.23438-.16016-.21094-.1914-.17578-.22266-.13671-.23828-.08985-.2539-.03125-.25782.03125-.23828.08985-.21875.13671-.19531.17579-.16016.21093-.1211.23438-.07812.25-.02734.26172.02734.2578.07813.25.12109.23438.16016.21094.1953.17578.21876.14063.23828.08594.25781.03125.2539-.03125.23829-.08594.22266-.14063.1914-.17578.16016-.21094.125-.23437.07422-.25.02734-.25781.78906-.04688-.03125.3711-.09375.37109-.15625.35937-.22265.32813-.28906.28125-.17188.1211-.1875.10156-.20703.08203-.22266.0625-.24219.03515-.2578.01563-.28516-.01563-.25782-.04687-.23828-.07813-.21484-.10547-.19531-.1289-.17579-.15625-.15234-.17969-.13672-.20313-.11719-.22265-.09765-.24219-.14844-.53515-.08594-.59375-.02343-.64063.03515-.74219.11719-.66406.1836-.57813.12109-.2539.13672-.23047.15234-.20703.17188-.1836.1875-.15625.19921-.1289.21875-.10156.23438-.07422.2461-.04297.26171-.01563.36719.03516.33203.09375.29688.15234.2539.19922.21094.24219.16797.27344.11328.30078.0625.32422"/></g></defs><use xlink:href="#ap"/></svg>