<svg xmlns="http://www.w3.org/2000/svg" role="img" xmlns:xlink="http://www.w3.org/1999/xlink" viewBox="142.45 309.95 326.84 171.84"><defs><clipPath id="a"><path d="M144 311.67188h1v168.65625h-1zm0 0"/></clipPath><clipPath id="b"><path d="M144 311.67188h324v168.65625H144zm0 0"/></clipPath><clipPath id="c"><path d="M467 311.67188h1v168.65625h-1zm0 0"/></clipPath><clipPath id="d"><path d="M144 479h4v1.32813h-4zm0 0"/></clipPath><clipPath id="e"><path d="M147 479h3v1.32813h-3zm0 0"/></clipPath><clipPath id="f"><path d="M146 479h2v1.32813h-2zm0 0"/></clipPath><clipPath id="g"><path d="M153 479h9v1.32813h-9zm0 0"/></clipPath><clipPath id="h"><path d="M160 479h3v1.32813h-3zm0 0"/></clipPath><clipPath id="i"><path d="M159 479h2v1.32813h-2zm0 0"/></clipPath><clipPath id="j"><path d="M166 479h9v1.32813h-9zm0 0"/></clipPath><clipPath id="k"><path d="M173 479h3v1.32813h-3zm0 0"/></clipPath><clipPath id="l"><path d="M172 479h3v1.32813h-3zm0 0"/></clipPath><clipPath id="m"><path d="M180 479h8v1.32813h-8zm0 0"/></clipPath><clipPath id="n"><path d="M187 479h2v1.32813h-2zm0 0"/></clipPath><clipPath id="o"><path d="M193 479h9v1.32813h-9zm0 0"/></clipPath><clipPath id="p"><path d="M200 479h3v1.32813h-3zm0 0"/></clipPath><clipPath id="q"><path d="M206 479h9v1.32813h-9zm0 0"/></clipPath><clipPath id="r"><path d="M213 479h3v1.32813h-3zm0 0"/></clipPath><clipPath id="s"><path d="M220 479h8v1.32813h-8zm0 0"/></clipPath><clipPath id="t"><path d="M227 479h3v1.32813h-3zm0 0"/></clipPath><clipPath id="u"><path d="M233 479h8v1.32813h-8zm0 0"/></clipPath><clipPath id="v"><path d="M240 479h3v1.32813h-3zm0 0"/></clipPath><clipPath id="w"><path d="M246 479h9v1.32813h-9zm0 0"/></clipPath><clipPath id="x"><path d="M253 479h3v1.32813h-3zm0 0"/></clipPath><clipPath id="y"><path d="M260 479h8v1.32813h-8zm0 0"/></clipPath><clipPath id="z"><path d="M266 479h4v1.32813h-4zm0 0"/></clipPath><clipPath id="A"><path d="M273 479h8v1.32813h-8zm0 0"/></clipPath><clipPath id="B"><path d="M280 479h3v1.32813h-3zm0 0"/></clipPath><clipPath id="C"><path d="M286 479h9v1.32813h-9zm0 0"/></clipPath><clipPath id="D"><path d="M293 479h3v1.32813h-3zm0 0"/></clipPath><clipPath id="E"><path d="M300 478h8v2.32813h-8zm0 0"/></clipPath><clipPath id="F"><path d="M306 478h4v2.32813h-4zm0 0"/></clipPath><clipPath id="G"><path d="M313 478h8v2.32813h-8zm0 0"/></clipPath><clipPath id="H"><path d="M320 478h3v2.32813h-3zm0 0"/></clipPath><clipPath id="I"><path d="M326 478h8v2.32813h-8zm0 0"/></clipPath><clipPath id="J"><path d="M332 479h2v1.32813h-2zm0 0"/></clipPath><clipPath id="K"><path d="M339 479h9v1.32813h-9zm0 0"/></clipPath><clipPath id="L"><path d="M345 479h3v1.32813h-3zm0 0"/></clipPath><clipPath id="M"><path d="M353 479h8v1.32813h-8zm0 0"/></clipPath><clipPath id="N"><path d="M359 479h2v1.32813h-2zm0 0"/></clipPath><clipPath id="O"><path d="M366 479h9v1.32813h-9zm0 0"/></clipPath><clipPath id="P"><path d="M372 479h2v1.32813h-2zm0 0"/></clipPath><clipPath id="Q"><path d="M379 479h9v1.32813h-9zm0 0"/></clipPath><clipPath id="R"><path d="M394 477h6v3.32813h-6zm0 0"/></clipPath><clipPath id="S"><path d="M407 477h6v3.32813h-6zm0 0"/></clipPath><clipPath id="T"><path d="M421 476h5v4.32813h-5zm0 0"/></clipPath><clipPath id="U"><path d="M435 476h4v4.32813h-4zm0 0"/></clipPath><clipPath id="V"><path d="M449 476h2v4.32813h-2zm0 0"/></clipPath><clipPath id="W"><path d="M462 476h3v4.32813h-3zm0 0"/></clipPath><clipPath id="X"><path d="M144 466h4v2h-4zm0 0"/></clipPath><clipPath id="Y"><path d="M144 453h4v2h-4zm0 0"/></clipPath><clipPath id="Z"><path d="M466 451h2v2h-2zm0 0"/></clipPath><clipPath id="aa"><path d="M144 439h4v3h-4zm0 0"/></clipPath><clipPath id="ab"><path d="M144 426h4v2h-4zm0 0"/></clipPath><clipPath id="ac"><path d="M144 413h4v2h-4zm0 0"/></clipPath><clipPath id="ad"><path d="M466 414h2v3h-2zm0 0"/></clipPath><clipPath id="ae"><path d="M144 399h4v2h-4zm0 0"/></clipPath><clipPath id="af"><path d="M466 399h2v3h-2zm0 0"/></clipPath><clipPath id="ag"><path d="M144 386h4v2h-4zm0 0"/></clipPath><clipPath id="ah"><path d="M466 386h2v3h-2zm0 0"/></clipPath><clipPath id="ai"><path d="M144 372h4v4h-4zm0 0"/></clipPath><clipPath id="aj"><path d="M466 373h2v3h-2zm0 0"/></clipPath><clipPath id="ak"><path d="M144 357h3v7h-3zm0 0"/></clipPath><clipPath id="al"><path d="M466 359h2v3h-2zm0 0"/></clipPath><clipPath id="am"><path d="M144 343h1v8h-1zm0 0"/></clipPath><clipPath id="an"><path d="M144 349h1v2h-1zm0 0"/></clipPath><clipPath id="ao"><path d="M466 345h2v3h-2zm0 0"/></clipPath><clipPath id="ap"><path d="M144 330h3v8h-3zm0 0"/></clipPath><clipPath id="aq"><path d="M466 331h2v3h-2zm0 0"/></clipPath><clipPath id="ar"><path d="M144 317h3v7h-3zm0 0"/></clipPath><clipPath id="as"><path d="M465 317h3v2h-3zm0 0"/></clipPath><g id="at" clip-path="url(#clip1)"><path fill="#fff" fill-opacity="0" fill-rule="evenodd" d="M0 0h1000v1000H0zm0 0"/><path fill="#d3d3d3" fill-opacity="0" fill-rule="evenodd" d="M162.15234 355.86719l-.23437.29297.0586.23437.11718.17188.17578.23437.29297.34766.11328.0586.11719-.17188.0586-.23438.17577-.17578.46485-.17578h.69922l.23437.29297.28906.8164.0586.17579.17578.23046.35156.23438.69922.69922.17188.17578.23437.34765.23438.41016.28906.58203.41015.46485.23047.23437.23438.17578.11719.23047.17578.29297.17187 1.16406v.23438l.0586.28906.05859.11719.11719.11719.34765.41015.11719.17188.17578.17578.17578.23437.11719.17188.17188.35156.05859.23438.23437.40625.23438-.0586-.17578.17578-.0586.92969h-.58203l-.23437-.11328-.34766.11328-.11719.11719-.05859.29297-.0586.17578-.11718.17187-.46484.29297-.0586.23438-.0586.11328v.64453l.0586.17187v.41016l.0586.0586v.40624l.05859.40625.11719.17579.05859.05859.23047.64062-.0586.29297v.69922l-.05859.58203v.23438l-.0586.23047-.05468.35156v1.92187l.05469.1172h.42578l-.36719.11718-.02344.35156.89063 1.16797 1.74219.53906 1.33984.35938v.53906l.08984.8086.53516.71484 1.51953.26953.89063-.08594.08984 1.16406.53516.1797 1.16015-.1797 2.05469-.98437 1.16016-.36328 1.8789-.17578 1.69531-.1797-.17968.71876-1.51563.08594-1.25.08984-.80469.26953-1.07421.8086.26953.71875.53515.89843-.17968.625-.26563.8086.26563 1.07812.625.89844.80468.17969 1.25-.1797-.26562.72267.09766.5039.05468.29297v.17188l.0586.29296v.40625l.17578.1172.35156.11718h.40625l.29297-.17578.11328-.11719.0586-.11719.11718-.23047.0586-.17578.35156-.46484.23047-.17578.17578-.0586.17578.0586.0586.17578.11718.98828.05469.46875.0586.17188.11718.23437.17578.0586.8164.05859h.28907l.11719.23437.05859.40625.0586.35156v1.10547l.11718.29297.11719.34766.28906.69922.17578.35156.58203.7539.35157.17579.17187.0586.46875.23437.64063.46484.34765.23438.29297.17578.29297.05468.23047.0625.8164.34766.29297.17578.11328.17188.35157.35156.11719.17578.52343.64063v.28906l.0586.35156v.34766l.05859.35156.0586.28906.11718.0586.17188.05859h.17578l.58203.23437.17578.1172.17578.28905.17578.23438.11328.23437.29297.23047.11719.11719v.41016l.0586.05468.28906.23438.23437.11719.0586.11718.11718.17188.0586.11719.23047.23437.05859.17578.23437.0586.1172.05859-.1172.11328-.05859.11719v.11719l-.11719.29296-.11719.28907v.58203l.17579.11719.11718.05859.0586.11719.11719.11719.11328.05859.17578.34765.0586.35157.05858.40625v.17578l-.05859.17578-.11719.69922v.17187l.1172.17579.29296.29296h.40625l.17578.1172.11719.17187.11719.29296v.23438h-.52735l-.23047-.23438h-.23437l-.17578.0586-.0586.69922.0586.34765.11719.17579.17578.41015.11718.23047.28907.46875.17578.05469h.52344l.23437.0586.75781.64062.0586.29296v.23438l.05859.0586.23047.34765v.35156l-.11719.17188v.29297l.29297.28906.29297.17578.17187.0586.29297.17577.29297.1172.58203.40624.28906.23438.29297.17578.21875.16015.01563.01172.23047.17579.64062.52343.17578.23438.1172.17578.17577.17578.11328.17188v.64062l.1172.17578.46874.11719.58203.11719.23438.05859.23047.11328.29297.11719.11328.0586.58593.35156.28907.17187.17578.0625.17578.05469.17578.0586.69922.35155.28906.17579.23438.05468.28906.17578.23437.1172.64063.40624.29297.11719.17187.0586.23438.05859.41015.05859.23047.0586.23438.11718.0586.17188-.41017.17578.46875.0586.0586.29296.11328.23438.17578.05468.23438.0586.17578.05859.40625.11719.64062.23437.11719.17188.0586.23437v.17578l-.0586.1172-.0586.40624.23438.23438.11719.05859.34766.11719.64062.23047.17578.11718.28906.1172.17578.17577.23438.46485.58203 1.10546.17578.17579.34766.17578.17578.11719.35156.11718 1.04688.52344.23437.0586.46485.11327.29297.0586.46484.17578.75781.58203.23438.23438.34765.46484.17578.17578.28907.23438.8164.69921.29297.17579.28906.28906.29297.17578.29297.28906.69531.64063.17578.17578.29297.23437.28907.23438.46875.28906.64062.58203.34766.23438.23437.29297.34766.34765.35156.46485.9336.99218.34765.40625.11719.17579.23437.05859.11328.11719.64454.17578.23047.11328.23437.0586.29297.17577.23047.1172.9336.69921.40624.40625.23438.17578.40625.17578.23437.11719.8164.34766.34766.23437.23438.11719.29297.28906.23047.11719.7578.35156.35157.17188.23047.05859.29297.11719.23437.0586.8711.17577h.8164l.46875.23047.17188.0586.875.69921.46484.1172.29297.05858.17578.0586.23047.0586.46875.05859.34766.05859.35156.0586.40625.05859h.29297l.17187.0586v.23046l.17578.17578h.29297l.34766.0586.35156.05859.69922.11719h.64063l.46484-.23438.29297-.17578.17187-.11719.41016-.17187.28906-.17578.9336-.46485.46875-.29297.52343-.29296.46485-.17188.46484-.17578 1.05078-.46485.28906-.11718.41016-.11719.28906-.11719.52735-.17578 1.51562-.69922.58203-.34765.28907-.0586.29297-.0586.34765-.11718.875-.23047.35156-.11719h.11329l.23437-.05859.875-.23437.23438-.0586h.8125l.35156-.0586.8164-.11718.17188-.0586.35156-.05468.29297-.0586.23047-.05859.8164-.17578.17579-.0586h.34765l.23438-.05859.46484-.11718.75781-.17188.23438-.0586h.34765l.41016-.11718.28906-.0586 1.28516-.05859h.28906l.41016-.0586.23047-.05858h.17578l.875-.1172h.40625l.41015-.11718h.34766l.35156-.11328.8711-.0586h1.75l1.04687.28907.41016.11719.28906.11718.35156.11719.28907.11719 1.05078.17187.28906.0586h.29297l.29297.05859.17187.0586.41016.05859.17187.0586.1172.05858h.11718l.11719.0586.35156.0586h.11328l.41016.0664 1.92187.39453 1.92578.39453 1.51953.44922 1.69532.71875 2.14453.80469 1.60547-.71875 1.42968-.80469 1.16016-1.07813 1.25-.44921 3.03516-.71875 1.875-.35938 2.14453-1.34765 2.23437-1.25391 2.5-1.25781 1.69531-.44922 1.78516-.17969 1.16016-.26953.625.53906 1.33984-.26953.71485-.98828.98437-1.34375.44531-.17969.80469-.35937 1.875-.53907 1.78516-.44921 1.25-.26954 1.16015-.08984 1.69922-.08984 1.96094-.26954 1.25-.08984h.53906l.625-.08984h.89063l2.14453-.17969 2.41015-.17969 2.58985-.08984 1.69531.17969 1.60938.08984 1.42968.35938 1.16016.71875 1.875.98828 1.16015 1.52734.26563.71484.6289.08985.35548.89844.53515.53906.53516 1.52734 1.07422.35938h.53515l-.80469.53515.08985 1.70703.71484 2.69532.89063.80468.89453.98829.71484 1.2578 1.78516.53907 1.51953-.17969.35547 1.34375 1.60937-.80469.98047-.53906.26953.26953.31641-.21484.21875-.14453.80078.44922.44922-.35938h.35547l.53515-.26953.53907-.71875.53515-.26953.625-.98828 1.16016.44922.83984.3711 1.39454.61718 1.6953-.17969h1.60548l1.78515.08985.17969-1.70704.53516-1.34375.80468.26954.4922.84765.40233.40625-.08984.53906v.35938l.71485.44922.71093-.26953h1.42969l.35938.98828.4453 1.25781.71485 1.34375 1.25.6289 1.69531.62891.71485-.17969.17969-.53906.98046-.08984.44922.35937.08594 1.25782-.26563.6289-.53515.17969v.53906l.71484.98438.26563.53906.98437.98828.80078 1.07813-.26562.35937-.08985.89844-.625 2.33203-.35546 2.0664-.08985 1.79298-.17969.71875-.08984.53906v1.4375l-.98047 1.88281-.35937 1.70703-.53516.89844-.80469 1.16797-.26562.53906 2.05469 1.2539.08593.35938-.35546.53906-.08985-.17968v.80859l.08985 1.4375-.44532.71484-1.07422.09375-.26562.71485.53515.89844.8047.71875 1.16015.80859 1.33984.26953.44531.35938-.35546.44921-1.78907-.08984-1.25-.44922-.71484-.71875-.625-.08984-.17578 3.58984-.1875 1.3086h89.35937V311.70313h-55.26953v49.08203l.76172.125 3.28906.54296 2.02344 2.83594v2.7539l2.35156.33204 2.34766.33203h4.05078l-1.3789 4.16016-2.02344.70703-2.02344.70312-.54297.34375-2.59375 1.6172-.1875.11718-2.02344-2.07813-.73046-2.74218-2.67188-2.07813-1.375-3.5-.0664-.08203-1.95704-2.67188 2.75-1.41796v-49.08204H294.42187v91.41407l.1172.03125.1328.01172.07422.07421.10547.04688.08985.0586.08593.05859.08985.0586.29687.29687.0586.08984.03125.11719.02734.11719.01563.13671-.03125.1172-.0586.08983-.0586.08594-.04296.10547-.04688.10156-.02734.1211v.14453l.17578.26953.14844.14844.07422.08594.07422.07421.04296.10547.0625.08985.0586.08593.04297.10547.0586.08985.04687.10156.04296.10547.0586.08594.11719.17968.07421.07422.0625.08594.0586.08984.04297.10547.0586.08985.05858.08593.0625.08985.0586.08984.04297.10156.11719.17969.07421.07422.0586.08594.07422.07421.08984.0586.10547.04687h.14844l.1328-.01562.13282.01562.10156-.04687.07422-.07422.04688-.10156-.01563-.13281v-.14844l-.04687-.10547-.02735-.11719-.04687-.10156-.02735-.1211-.04296-.10156-.0625-.08984-.04297-.10156-.04297-.10547-.03125-.11719-.01563-.13281-.01171-.13672.08593-.0586.0586-.08593.12109-.03125.04297.10547.01562.1328v.1172l.0586.10156.0586.08984.08983.0586.14844.14843.0586.08985.04296.10547-.01171.10156.08593.0586.10547.04687.08594.0586.08984.05858.07422.07422-.11719.02735-.10546.04687-.08594.0586-.07422.07421-.0586.08985-.0625.08594-.02734.12109-.04687.10156-.04297.10547-.03125.11719-.01172.13281-.01563.13281v.14844l.02735.11719.04687.10547.04297.10156.0586.08984.07421.07422.08985.0586.07422.07421.08984.0586.0586.08984.04296.10547.04688.10156.11719.03125.1328.01563h.14845l.11718-.03125.10547.04297.04297.10547.04688.10156.02734.1211L299.5 410l.02734.11719.03125.1211.02735.11718.10547.04297.10156.04687.13281-.01562.14844.14844.0625.08593.07422.07422.07031.07422.08984.0625.10547.04297.10156.04297.1172.03125.13671.01562.11719-.03125.07422-.07422.02734-.11718-.01172-.13282-.03125-.12109-.02734-.11719.04297-.10547h.11719l.08984.0625.11719.02735h.14843l.13282.01562h.14843l.13282.01563.1328-.01563h.14845l.1328-.01562.13282-.01172.13672.01172.11719-.02735.13281-.01562.1914-.0586-.05859.17579-.01562.1328-.02735.1211-.01562.13281-.0586.08594-.1328.01563-.10548.04687-.10546.04297-.1172.03125-.11718.02735-.26563.03125h-.14843l-.13281.01562-.07422.07422.05859.08594.14844.14843.11719.1797.07421.0703.08985.0625.08984.0586.08594.0586.08984.05858.10156.04297.10547.0625.10547.04297.08594.0586.10547.04687.10156.04297.17969.11719.0586.08984-.04298.10156-.04687.10547.01562.13281.22266.22266.0586.08985.04296.10156.03125.1211.04297.10155.01563.13282.03125.11718.01171.13672.03125.11719.14844.14844.10156.04297.10547.04296.1172.03125.1328.01563.13672.01563h.11719l.11719-.03125.08984-.0586.04297-.10547.04688-.10156.04296-.10547.03125-.11719.01172-.1328v-.14845l-.01172-.1328-.01562-.13282-.03125-.11719-.04297-.10547-.04688-.10547-.04296-.10156-.04297-.10547-.01563-.13281.01563-.13281.02734-.11719.03125-.11719.02735-.1211.04687-.10155.08984-.0586.08594-.0625.07422-.07422.08984-.05859.22266-.22266.0586-.08593.07421-.07422.11719-.17969.0586-.08594v-.14844l-.07423-.07421-.10156-.04688-.10547-.04297-.10156-.04297-.0586-.08984-.04687-.10547-.02734-.11719.08984-.05859.11719-.03125.10156-.04297.17969-.11719.14844-.14843.01172-.13282-.01172-.10546-.08985-.0586-.1328.01563h-.14845l-.1328.01562-.13282-.01562-.1211-.03125-.08593-.0586-.07422-.07422-.0586-.08984-.0625-.08594-.11718-.17969-.0586-.08593.03125-.1211.08594-.05859.1211-.03125.05859-.08594v-.1211l-.03125-.11718-.0586-.08984-.05859-.08594-.04687-.10547-.02735-.11719-.01562-.1328.0586-.08985.07421-.07422.08984-.0586.1172-.17968.07421-.07422.0586-.08594.14843-.14844.1211-.03125.1328-.01562.13282.01562.07422.07422.04297.10547.01562.13281-.03125.1172-.11719.03124-.1328.01172-.14844.14844-.04297.10547-.04688.10156-.02734.1211-.03125.11718v.14844l.03125.11719.04297.10546.05859.08985.07422.07031.07422.07422.11719.03125.12109.02734.11719-.02734.1328-.01563h.1172l.08984.0586.07422.07422.04687.10546.0586.08594.10156.04688.13281.01562.10547.04297.08594.0586-.01172.10546-.07422.07422-.17969.11719-.05859.08984-.08984.0586-.07032.07422-.07421.07421-.0625.08985-.02735.11719-.01562.1328.01562.13282-.01562.13281v.14844l.01562.13281.02735.1172.03125.12108.07421.07422.08985.0586.08594.0586.08984.05858.11719.03125v.08594l-.10157.04688-.08984.0586-.26563.03124-.11718.02735h-.14844l-.10547.04296-.10156.04688-.0586.08984-.0625.23438-.01171.13281-.03125.1211-.01563.1328v.29298l-.01172.1328.01172.13673.01563.1328.1328.01563.13282.01172.1211.03125.08593.0586.07422.07421.04688.10547.04296.10157.01563.1328v.44532l-.01563.13281v.44532l.03125.26562.02735.11719.01562.13281.03125.11719.08594.21094.03125.26562v.14844l-.03125.11719-.02734.11718-.03125.1211-.02735.11719-.03125.11718-.03125.1211-.01171.1328-.01563.13282.08984.0586.1172-.03125.10155.01562.04688.10547-.03125.26562v.44141l-.04297.10547-.04688.10547-.04296.10156-.04297.10547-.0586.08594-.03125.12109-.04296.11719-.03125.11719-.01563.1328.01563.13282.05859.08984.10547.04688.08594.0586.05859.08593-.01172.13672-.03125.11719-.04297.10156v.44531l-.01562.13281v.14844l-.03125.11719-.04297.10547-.02735.11719-.04687.10546-.04297.10157-.03125.12109-.02734.11719-.03125.13281-.03125.11719-.02735.11719-.04297.10546-.03125.1172-.03125.12108-.01171.13282-.01563.13281v.29688l.02734.11718v.14844l.04688.39844.02734.11719.0586.08984.12109.03125h.14844l.13281-.01563.0586.08985v.11719l-.0586.08984-.08984.0586-.10157.04296-.10546.04688-.08985.05859-.08594.0586-.13671.01562-.1172-.03125-.1328-.01563-.10157.04688-.0625.08594-.01172.13671-.01562.13282-.03125.11719-.02735.11718-.01562.13281-.03125.1211v.29687l.01563.13282.03125.11718v.14844l.01171.13281v.14844l-.02734.11719-.04688.10156-.02734.1211-.03125.11718-.0586.08985-.07421.07421-.10156.04297-.10547.04688-.11719.02734-.1211.03125-.10156-.04687.0586-.08594.10547-.04688.02734-.11718.03125-.11719.02734-.1211.03125-.11718v-.14844l.01563-.13281-.03125-.11719-.04297-.10547-.10547.01563-.07422.07422-.10156.04296-.08984.0625-.07422.07422-.04297.10157-.01563.1328-.03125.1172L304.25 426l-.03125.11719-.02734.11719-.03125.12109-.02735.11719-.03125.11718-.04297.10547-.08984.0586h-.08984l-.1172-.03125-.03124-.08594.01562-.13672-.03125-.11719v-.14844l-.01171-.1328v-.14844l-.0625-.23438-.02735-.1211-.04297-.10156-.04687-.10546-.0586-.08594-.05859-.08985-.04297-.10546-.0625-.08594-.14844-.14844-.0703-.07422-.10548-.04687-.10547-.04297-.10156-.04297-.29687-.29688-.08985-.07421-.08594-.0586-.10546-.04297-.08985-.0625-.08594-.0586-.10546-.04296-.08985-.0586-.08594-.0625-.07421-.0703-.10547-.04688-.08594-.0586-.10547-.04296-.08984-.0625-.10156-.04297-.10547-.04297-.08594-.0586-.10547-.04687-.10547-.04297-.10156-.04687-.08985-.0586-.10156-.04297-.10547-.04296-.08984-.0625-.11719-.02735-.13281-.01562-.13281.01562H299.75l-.13281.01563-.11719-.03125-.08984-.0586-.07422-.07422-.08985-.05859-.10156-.04688h-.14844l-.12109-.02734-.10156-.04297-.07422-.07422-.11719-.17968-.08984-.0586-.10156-.04297-.08985-.0625-.10547-.04296-.08984-.0586-.08594-.0586-.10547-.04687-.0586-.08594-.05858-.08984-.04297-.10547-.04688-.10156-.07422-.07422-.08594-.0586-.07421-.07421-.08985-.0586-.22265-.22265-.04297-.10547-.03125-.26563.10547-.04296h.14453l.10547.04296.07421.07422.08985.0586.08594.0586.10546.04687.08985.05859.14844.14844.0703.07422.14845.14843.0625.08594.07421.07422.08594.0586.07422.07421.08985.0625.08984.0586.08594.05859.26953.17578.10156.04688.10547.04296.10156.04297.04688-.07421.05859-.08594.07422-.07422.07031-.07422.10547.04297.07422.07422.0586.08984.04296.10156.04688.10547.04296.10547.1211.02735.11719-.02735.07421-.08984.04297-.10547.0586-.08985.07422-.07421.10546-.04297.1172-.02735.1328.01172.08985.0586.14844.14843.05859.08985.04297.10547.04687.10156.04297.10547.04297.10156.10547.04688.10547.04296.13281.01563.08594-.0586.0586-.08984.07421-.07422.10547-.04297.11719.02735.10547.04687.10156.04297.10547.04297.10156.04688.17969.11718v.11719l-.01563.13281.01563.13281.01562.13672.0586.08594.10156.04688.1211.02734.11718.03125h.14844l.11719-.03125.05859-.08984.17969-.1172.05859-.08983.07422-.07422.0586-.08594.11718-.17969.17969-.11719.11719.03125.08984.0586.04297.07422-.01563.1328v.1172l.08985.05859h.14843l.13282-.01563.1328-.01171.26563-.03125.10547-.04297.11719-.03125.1211-.02735.07421-.07421.07031-.07422.0625-.08985-.01562-.10547-.04688-.10156-.10156-.04297-.10547-.01562-.11718.02734-.26563.03125h-.14844l-.07421-.07422-.08985-.0586-.11719-.03124-.11718-.02735-.13282-.01562h-.14843l-.13282.01563h-.29687l-.10547-.04688-.14844-.14844-.04297-.10156-.05859-.08984.22266-.22266.08593-.0586.10547-.04296.11719-.03125.13281-.01563.13281.01563.13672.01562.10157.04297.1328-.01172.08985-.0625.10156-.04297.0625-.08984-.04687-.10156-.08984-.0586-.1172-.03125-.10155-.04296-.0586-.08985-.0625-.08984v-.11719l.01563-.13281.10547-.04688.07421-.07031v-.1211l-.08984-.05859-.03125-.11719.08985-.05859.07421-.07422.04297-.10547.0586-.08984.04687-.10156.01563-.13281v-.14844l-.04688-.10547-.04297-.10156-.08984-.0586-.13281-.01562-.10157-.04297-.13671-.01563-.1172-.03125h-.4453l-.13282-.01562-.13281-.01172-.13281-.01563-.11719-.03125h-.14844l-.13281-.01562-.13281-.01172-.26563-.03125-.1211-.04297-.08593-.0586-.07422-.07421v-.14844l.01172-.13281.10547-.04688.10156-.04296.13281-.01563h.15235l.13281-.01562h.29297l.1211.03125.10156.04296.08984.0586.23438.0625.12109-.04688.08984-.05859.10156-.04297.13282-.01562.10547.04296.10156.04688.13281.01172.1211-.02735h.14453l.12109-.03125.11719-.02734.10547-.04687.07421-.07422.08594-.0586.14844-.14843.0586-.08594.04687-.10547.02734-.11719.01563-.10547-.10156-.04296-.08985-.0586-.11719-.03125-.10546-.04297-.08985-.0625-.07422-.08594-.07422-.07421-.10156-.04297-.10547-.04688-.10156-.04297-.0586-.08984-.04687-.10156-.08594-.21094-.0625-.08594-.05859-.08984-.07422-.07422-.08594-.0586h-.26953l-.11719.03126-.08984.05859-.10156.04297-.13281.01562-.10547-.01562-.02735-.11719-.0625-.08984-.11718-.03125-.10157-.04297-.14843-.14844-.03125-.11719-.01563-.10546.07422-.07422.17969-.1172.11719-.02733.11718-.03125.13672.01562.10156.04297.10547.04297.10156.04687.10547.04297.1172.03125.1328.01563.1172.02734.1328.01563.10547-.01563.08985-.0586-.07422-.07421-.10547-.04297-.07422-.07422-.07422-.08984-.14844-.14844-.08593-.0586-.08985-.05859-.07422-.07422-.08984-.0586-.10156-.04687-.1211-.02734-.10156-.04688-.10547-.04296-.11719-.03125-.10156-.04297-.1211-.03125h-.14843l-.11719.03125-.10546.04297-.08594.0625-.17969.11718-.08594.0586-.08984.0586-.10547.04687-.08594.05859-.10547.04297-.10156.04297-.10547.04687-.07422.07422-.05859.08985-.0586.08593-.04687.10547-.0586.08594-.07421.07422-.13281-.01172-.1172-.03125h-.11718l-.07422.07422-.08984.0586-.07422.07421-.08984.0586-.08594.05859-.10547.04687-.10156.04297-.13672.01563-.10156-.04297-.14844-.14844-.10547-.04688h-.08594l-.10547.04688-.10156.04297-.1211.03125-.11718-.03125-.07422-.07422v-.11719l.03125-.1211.07422-.0703.0586-.08985.07421-.07422.11719-.03125.10547-.04296h.29297l.13281-.01563.13672-.01563.10156-.04296.08985-.0586.10156-.04687.08984-.0586.13281-.01171.08985.05859.13281.01172.08984-.0586.08594-.05859.10547-.04297.08984-.0586.08594-.0625.08985-.05859.14843-.14843.0586-.08594.05859-.08985.10547-.04296.13281-.01563.11719.02735.1211.03125.05859-.0586.05859-.08984.03125-.26563.02734-.11719.10547.01172.13281.01563.10157-.04297.08984-.0586.0586-.08984.07421-.07422.0586-.08984.04687-.10156.01172-.13281-.01172-.13282-.04687-.10547-.14844-.14843-.0586-.08985-.05859-.08594-.04297-.10546v-.44532l.01563-.1328v-.14845l.01172-.1328-.0586-.0586-.08984.0586-.10156-.04298-.17969-.11719-.08594-.05859-.0625-.08984-.0586-.08985-.07421-.07421-.08594-.0586-.1211.03125-.10155.01172-.10547.04688-.08594.05859-.10547.04297-.14844.14844-.08984.05859-.08594.0586-.08984.0625-.10547.04296-.13281.01563v-.1211l.10547-.04297.11718-.03125.07422-.0703.04297-.10548v-.14844l-.02734-.11718-.14844-.14844-.13281-.01563h-.14844l-.11719.03125-.10547.04297-.10156.04297-.08984.0625-.11719.02735-.07422-.07422.01172-.13281-.04297-.10157-.04297-.10547-.08984-.05859-.11719.02734-.1211.03125-.11718.03125-.10156.04297-.1211.03125-.10156.04297-.10547.04297-.08984.0586-.10156.01562v-.11719l.01562-.13281-.0586-.08985-.07421.04297-.14844.14844-.0586.08985-.07421.07421-.04688.10547-.04296.10156-.07422.07422-.0586.08985-.07422.07422-.05859.08593-.07422.07422-.08984.0625-.07422.07031-.07422.07422-.10156.01563-.13281.01562-.10547-.04296v-.1211l.14843-.14844.04297-.10156.0586-.08984.04687-.10156.04297-.10547.0586-.08985.03124-.11719.04297-.10156.03125-.1211.02735-.11718.04687-.10547.04297-.10156.04297-.10547.07422-.07031.08984-.0625.08985-.0586.10156-.04296h.29687l.26563-.03125.10547-.04297-.07422-.07422-.11719-.03125-.10547-.04297-.08984-.0586-.10156-.04687-.08985-.0586-.10156-.04296-.10547-.04297-.08984-.0625-.08594-.0586-.10547-.04296-.10156-.04297-.1211-.03125-.11718-.03125-.10157-.04297L297.5 410.25l-.10156-.04297-.08985-.0586-.04296-.10546-.01563-.13281.10156-.04297.13281-.01563.13672.01563.13282-.01563.10156-.04297.0586-.08984.01562-.10547-.08985-.0586-.07421-.07421-.10157-.04297-.08984-.0586-.14844-.14843-.04297-.10547-.01562-.13281v-.29297l-.0586-.08985-.08984-.05859-.07422-.07422-.04297-.10547-.03125-.11718-.0586-.08985-.07421-.07422-.11719-.02734-.07422-.07422-.08984-.0586-.08984-.0625-.08594-.05859-.07422-.07421-.0586-.08594-.04687-.10547-.08594-.0586-.14843-.14843-.19532-.0586-.1328.01563-.10157.04297-.07422.07422-.04688.10156-.04296.10547-.0586.08984-.0586.08594-.29687.29687-.08984.0586h-.08594l-.0625-.08594-.04297-.10547.03125-.11719.0586-.08984.02734-.11719-.01172-.13281-.08984-.0625-.10547.04688-.11719.02734-.11719.03125-.26953.17578-.10156.04688-.11719.02734-.10546.04687-.08985.0586-.10156.04297-.0586-.08594-.04687-.10547.01563-.13281.04687-.10547.07031-.07422.07422-.07031.0586-.08985v-.14843l-.04297-.10547h-.23829l-.10156.04687-.03125.11719-.02734.11719-.03125.1211-.07422.04296-.13281.01563-.07422-.04688-.04297-.10156-.04297-.10547-.04687-.10156-.04297-.10547-.1211.03125-.10156.04297-.13281.01562-.11719.03125-.10547.04297-.08984.0586-.10156.04687-.1211.02734-.13281.01563-.10156-.04297-.0586-.08985-.04687-.10546-.04297-.10157-.04297-.10546v-.1172l.0586-.08984.08593-.05859.17969-.11719.10156-.04687.10547-.04297.10547-.0586.10156-.04296.08985-.0625.10156-.04297.10547-.0586.10156-.04687.08984-.0586.10547-.04296.10156-.04297.08985-.0625.10156-.04297.13672-.01563.11719.03125.10156.04297.1211.03125.10156.04297.10546.04688.10157.04296.10547.04297.10156.04688.10547.04297.10156.04297.10547.04687.08594.0586.10546.04296.1172.03125.10546.04297.10156.04688.08985.0586.10547.04296.10156.04297.10547.04687.11719.02735.10156.04687.1211.02735h.14843l.08594-.0586.01562-.10156.0586-.08984-.02735-.1172-.07422-.07421-.11719-.17969-.07421-.07422-.08985-.07421-.17969-.1172-.08593-.05859-.10547-.04296-.10156-.04688-.26954-.17578-.05859-.08985-.07422-.07421-.0586-.08985-.04296-.10156-.03125-.11719-.01563-.13672v-.5625l-.01171-.1328-.01563-.13282-.03125-.11719-.01562-.13281-.01172-.13281-.03125-.1211-.22266-.22265-.0586-.08594-.01562-.10547.03125-.11719.13281-.01562v-91.41406H172.9922v1.45312l-.0586.23438-.35156 1.05078-.17187.52343-.1172.34766-.17577.41016-.11719.17187-.23438.29297-.23046.0586h-.35157l-.11718.05859-.23047.40625v.29297l.11719.17578.23046.23047.1172.23437.64062.75781.29297.46485.17578.23437.23047.35156.23437.34766.64063.8164.17578.46485.17187.41016.11719.69531.17578.46875.11719 1.39844.0586.46484v.875l.11718 1.04688v4.78125l-.0586.46484-.35156 1.28125-.17578.52344-.11328.41015-.35156.9297L172.93359 336l-.23437.58203-.11719.17578-.17187.34766-.17578.40625-.35157.8164-.0586.29297-.11327.29297-.11719.28906-.0586.17579-.11718.875-.0586.40625-.05859.11718-.0586.17579-.05859.17187-.23047.52734-.11718.17188v.23437l-.11719.23438-.0586.17187-.17577.58594v.28906l-.0586.17579v.29296l-.0586.11329-.05859.52734v.17187l-.05468.23438v2.6211l-.17578.8164-.1172.17578-.17577.23438-.1172.17187-.11327.23438-.58594.93359-.23047.28906-.29297.46485-.17578.23437-.28906.35156-.35156.69922-.11328.23047-.17579.41016-.17578.23046-.40625.52735-.8164.69922-.29297.17187-.28906.23438-.17579.11719-.17578.17578-.52344.40625-.52734.17578-.17187.17578-.23438.05469-.64062.17578h-.75782m12.21094 31.02344l-1.07422.44921.35938.89454 1.25-.71485.44531-.53906-.98047-.08985"/><path fill="#d3d3d3" fill-opacity="0" fill-rule="evenodd" d="M201.50781 416.59766h-.89453l.44922.6289.98047.35938.80469-.08985.4453-.98828-.17577.08985-.71485-.35547-.89453.35547m154.6211 59.0703l-.0586-.52343v-.29297l.11328-.29297.0586-.23046.46875-.46875h.11328l.11719-.11329.11718-.05859h.17579l.23437-.0586h.34766l.23437.0586.11719.0586.23047.17187.0586.17578.11718.58203v.29297l-.11719.17578-.17187.28906-.17579.17579-.52734.52343-.23047.23438-.11719.0586h-.17578l-.11718-.0586-.40625-.29297-.17579-.11719-.11718-.0586-.0586-.11327-.05468-.1172m6.64062-10.95702l-.0586-.17188v-1.10937l.0586-.17188.17578-.0586.17188-.05858h.17578l.23437-.0586.1172.0586.05858.69921-.05859.17188-.11719.17578-.11718.0586-.23438.52343-.11328.0586h-.23438l-.05859-.1172m9.61328-14.39062l-.11719-.17578v-.69922l.29297-.875.1172-.17187.17577-.35156.11328-.23047.1172-.29297.35155-.75781.1172-.23047.17187-.23438h.17578l.11719-.0586h.64062l.11719.0586.23437.23438.17188.11328.35156.29297.11719.11718.11328.17579v.11328l.11719.05859.11718.11719v.69922l-.05859.17578v.23047l-.0586.17578-.34765 1.05078-.11719.23047-.11719.23437-.11718.0586-.23047.23437-.64063.28906h-.875l-.41015-.11718-.64063-.46485"/><path fill="none" stroke="#bebebe" stroke-linecap="round" stroke-linejoin="round" stroke-miterlimit="10" stroke-width=".5" d="M467.95703 311.69531H144.02734v168.625h323.9297v-168.625"/><g clip-path="url(#a)"><path fill="#fff" fill-opacity="0" fill-rule="evenodd" d="M144 475.89063v4.4375h.0039H144V311.67188h.0039H144v164.21875"/></g><g clip-path="url(#b)"><path fill="#fff" fill-opacity="0" fill-rule="evenodd" d="M144.0039 480.32813V311.67188h66.57032v112.78125l-4.4375.66015-2.39844 1.95703-2.03906 3.7539-.55469.6836-1.07031 4.4375-2.08203 4.4375.83203 4.4375 2.875 1.76172 4.4375.4414 4-2.20312.4375-.17578 4.4414-.13281 4.4375-3.60156.50391-.52735 3.9336-3.39844.59375-1.03906 1.47265-4.4375-2.0664-2.33984-4.4375-.8086-3.20704-1.28906-1.23047-1.01562-4.4414-1.60156V311.67188h257.42187v168.65625H144.00391"/></g><path fill="#50fcfc" fill-rule="evenodd" d="M198.82422 444.82031l-.83203-4.4375 2.08203-4.4375 1.07031-4.4375.55469-.6836 2.03906-3.7539 2.39844-1.95703 4.4375-.66015 4.4414 1.60156v3.8789l-3.97656 1.57422-.46484.6211-2.34766 3.8164 2.34766 2.51172 2.08203 1.92578 2.35938.90625 1-.90625 3.4375-3.09375 1.39062-1.34375-.54688-4.4375-.84375-.32812-4.4375-1.2461v-3.8789l1.23047 1.01562 3.20703 1.28906 4.4375.8086 2.06641 2.33984-1.47266 4.4375-.59375 1.03906-3.93359 3.39844-.5039.52735-4.4375 3.60156-4.44141.13281-.4375.17578-4 2.20313-4.4375-.4414-2.875-1.76173"/><path fill="#00e8fc" fill-rule="evenodd" d="M210.57422 438.45703l-2.34766-2.51172 2.34766-3.8164.46484-.6211 3.97656-1.57422 4.4375 1.2461.84375.32812.54688 4.4375-1.39063 1.34375-3.4375 3.09375-1 .90625-2.35937-.90625-2.08203-1.92578"/><g clip-path="url(#c)"><path fill="#fff" fill-opacity="0" fill-rule="evenodd" d="M467.9961 480.32813H468V311.67188h-.0039H468v168.65625h-.0039"/></g><g clip-path="url(#d)"><path fill="none" stroke="#000" stroke-linecap="round" stroke-linejoin="round" stroke-miterlimit="10" stroke-width=".5" d="M147.48438 479.875l-6.96875.90625"/></g><g clip-path="url(#e)"><path fill="none" stroke="#000" stroke-linecap="round" stroke-linejoin="round" stroke-miterlimit="10" stroke-width=".5" d="M147.48438 479.875l1.42187 2.0039"/></g><g clip-path="url(#f)"><path fill="none" stroke="#000" stroke-linecap="round" stroke-linejoin="round" stroke-miterlimit="10" stroke-width=".5" d="M146.46875 480.00781l.71094 1"/></g><g clip-path="url(#g)"><path fill="none" stroke="#000" stroke-linecap="round" stroke-linejoin="round" stroke-miterlimit="10" stroke-width=".5" d="M160.78125 479.76172l-6.9336 1.13281"/></g><g clip-path="url(#h)"><path fill="none" stroke="#000" stroke-linecap="round" stroke-linejoin="round" stroke-miterlimit="10" stroke-width=".5" d="M160.78125 479.76172l1.48828 1.95312"/></g><g clip-path="url(#i)"><path fill="none" stroke="#000" stroke-linecap="round" stroke-linejoin="round" stroke-miterlimit="10" stroke-width=".5" d="M159.77344 479.92578l.74219.97656"/></g><g clip-path="url(#j)"><path fill="none" stroke="#000" stroke-linecap="round" stroke-linejoin="round" stroke-miterlimit="10" stroke-width=".5" d="M174.1211 479.91406l-6.98048.82813"/></g><g clip-path="url(#k)"><path fill="none" stroke="#000" stroke-linecap="round" stroke-linejoin="round" stroke-miterlimit="10" stroke-width=".5" d="M174.1211 479.91406l1.39843 2.01953"/></g><g clip-path="url(#l)"><path fill="none" stroke="#000" stroke-linecap="round" stroke-linejoin="round" stroke-miterlimit="10" stroke-width=".5" d="M173.10547 480.03516l.69922 1.0078"/></g><g clip-path="url(#m)"><path fill="none" stroke="#000" stroke-linecap="round" stroke-linejoin="round" stroke-miterlimit="10" stroke-width=".5" d="M187.45313 480.13672l-7.01563.38672"/></g><g clip-path="url(#n)"><path fill="none" stroke="#000" stroke-linecap="round" stroke-linejoin="round" stroke-miterlimit="10" stroke-width=".5" d="M187.45313 480.13672l1.26953 2.09765"/></g><g clip-path="url(#o)"><path fill="none" stroke="#000" stroke-linecap="round" stroke-linejoin="round" stroke-miterlimit="10" stroke-width=".5" d="M200.7539 479.97266l-6.98827.71484"/></g><g clip-path="url(#p)"><path fill="none" stroke="#000" stroke-linecap="round" stroke-linejoin="round" stroke-miterlimit="10" stroke-width=".5" d="M200.7539 479.97266l1.3672 2.03906"/></g><g clip-path="url(#q)"><path fill="none" stroke="#000" stroke-linecap="round" stroke-linejoin="round" stroke-miterlimit="10" stroke-width=".5" d="M214.07031 479.95313l-6.98828.7539"/></g><g clip-path="url(#r)"><path fill="none" stroke="#000" stroke-linecap="round" stroke-linejoin="round" stroke-miterlimit="10" stroke-width=".5" d="M214.07031 479.95313l1.375 2.02734"/></g><g clip-path="url(#s)"><path fill="none" stroke="#000" stroke-linecap="round" stroke-linejoin="round" stroke-miterlimit="10" stroke-width=".5" d="M227.29688 479.47266l-6.8125 1.71093"/></g><g clip-path="url(#t)"><path fill="none" stroke="#000" stroke-linecap="round" stroke-linejoin="round" stroke-miterlimit="10" stroke-width=".5" d="M227.29688 479.47266l1.64453 1.8203"/></g><g clip-path="url(#u)"><path fill="none" stroke="#000" stroke-linecap="round" stroke-linejoin="round" stroke-miterlimit="10" stroke-width=".5" d="M240.5586 479.27344l-6.70313 2.10937"/></g><g clip-path="url(#v)"><path fill="none" stroke="#000" stroke-linecap="round" stroke-linejoin="round" stroke-miterlimit="10" stroke-width=".5" d="M240.5586 479.27344l1.74609 1.72265"/></g><g clip-path="url(#w)"><path fill="none" stroke="#000" stroke-linecap="round" stroke-linejoin="round" stroke-miterlimit="10" stroke-width=".5" d="M253.89063 479.33984l-6.7422 1.98047"/></g><g clip-path="url(#x)"><path fill="none" stroke="#000" stroke-linecap="round" stroke-linejoin="round" stroke-miterlimit="10" stroke-width=".5" d="M253.89063 479.33984l1.71875 1.75391"/></g><g clip-path="url(#y)"><path fill="none" stroke="#000" stroke-linecap="round" stroke-linejoin="round" stroke-miterlimit="10" stroke-width=".5" d="M267.1914 479.28906l-6.71093 2.07813"/></g><g clip-path="url(#z)"><path fill="none" stroke="#000" stroke-linecap="round" stroke-linejoin="round" stroke-miterlimit="10" stroke-width=".5" d="M267.1914 479.28906l1.7422 1.72656"/></g><g clip-path="url(#A)"><path fill="none" stroke="#000" stroke-linecap="round" stroke-linejoin="round" stroke-miterlimit="10" stroke-width=".5" d="M280.54297 479.41797l-6.78516 1.82031"/></g><g clip-path="url(#B)"><path fill="none" stroke="#000" stroke-linecap="round" stroke-linejoin="round" stroke-miterlimit="10" stroke-width=".5" d="M280.54297 479.41797l1.67578 1.79297"/></g><g clip-path="url(#C)"><path fill="none" stroke="#000" stroke-linecap="round" stroke-linejoin="round" stroke-miterlimit="10" stroke-width=".5" d="M293.88672 479.52344l-6.83985 1.60937"/></g><g clip-path="url(#D)"><path fill="none" stroke="#000" stroke-linecap="round" stroke-linejoin="round" stroke-miterlimit="10" stroke-width=".5" d="M293.88672 479.52344l1.61719 1.84765"/></g><g clip-path="url(#E)"><path fill="none" stroke="#000" stroke-linecap="round" stroke-linejoin="round" stroke-miterlimit="10" stroke-width=".5" d="M307.07031 479.09375l-6.57812 2.46875"/></g><g clip-path="url(#F)"><path fill="none" stroke="#000" stroke-linecap="round" stroke-linejoin="round" stroke-miterlimit="10" stroke-width=".5" d="M307.07031 479.09375l1.83985 1.625"/></g><g clip-path="url(#G)"><path fill="none" stroke="#000" stroke-linecap="round" stroke-linejoin="round" stroke-miterlimit="10" stroke-width=".5" d="M320.38281 479.08594l-6.57422 2.48828"/></g><g clip-path="url(#H)"><path fill="none" stroke="#000" stroke-linecap="round" stroke-linejoin="round" stroke-miterlimit="10" stroke-width=".5" d="M320.38281 479.08594l1.84375 1.61719"/></g><g clip-path="url(#I)"><path fill="none" stroke="#000" stroke-linecap="round" stroke-linejoin="round" stroke-miterlimit="10" stroke-width=".5" d="M333.71875 479.14063l-6.61328 2.375"/></g><g clip-path="url(#J)"><path fill="none" stroke="#000" stroke-linecap="round" stroke-linejoin="round" stroke-miterlimit="10" stroke-width=".5" d="M332.7539 479.48438l.91016.82421"/></g><g clip-path="url(#K)"><path fill="none" stroke="#000" stroke-linecap="round" stroke-linejoin="round" stroke-miterlimit="10" stroke-width=".5" d="M347.20703 479.85156l-6.96094.95313"/></g><g clip-path="url(#L)"><path fill="none" stroke="#000" stroke-linecap="round" stroke-linejoin="round" stroke-miterlimit="10" stroke-width=".5" d="M346.19531 479.99219l.71485.99219"/></g><g clip-path="url(#M)"><path fill="none" stroke="#000" stroke-linecap="round" stroke-linejoin="round" stroke-miterlimit="10" stroke-width=".5" d="M360.49219 479.66016l-6.90235 1.33593"/></g><g clip-path="url(#N)"><path fill="none" stroke="#000" stroke-linecap="round" stroke-linejoin="round" stroke-miterlimit="10" stroke-width=".5" d="M359.48828 479.85547l.76953.95312"/></g><g clip-path="url(#O)"><path fill="none" stroke="#000" stroke-linecap="round" stroke-linejoin="round" stroke-miterlimit="10" stroke-width=".5" d="M373.85156 479.98047l-6.99219.69531"/></g><g clip-path="url(#P)"><path fill="none" stroke="#000" stroke-linecap="round" stroke-linejoin="round" stroke-miterlimit="10" stroke-width=".5" d="M372.83594 480.08203l.67969 1.01953"/></g><g clip-path="url(#Q)"><path fill="none" stroke="#000" stroke-linecap="round" stroke-linejoin="round" stroke-miterlimit="10" stroke-width=".5" d="M387.1836 480.23828l-7.02344.17969"/></g><g clip-path="url(#R)"><path fill="none" stroke="#000" stroke-linecap="round" stroke-linejoin="round" stroke-miterlimit="10" stroke-width=".5" d="M399.48047 477.85156l-4.98828 4.95313"/></g><path fill="none" stroke="#000" stroke-linecap="round" stroke-linejoin="round" stroke-miterlimit="10" stroke-width=".5" d="M398.7539 478.57422l1.17188.36328"/><g clip-path="url(#S)"><path fill="none" stroke="#000" stroke-linecap="round" stroke-linejoin="round" stroke-miterlimit="10" stroke-width=".5" d="M412.66406 477.72656l-4.72265 5.20313"/></g><path fill="none" stroke="#000" stroke-linecap="round" stroke-linejoin="round" stroke-miterlimit="10" stroke-width=".5" d="M411.97656 478.48438l1.1875.30078"/><g clip-path="url(#T)"><path fill="none" stroke="#000" stroke-linecap="round" stroke-linejoin="round" stroke-miterlimit="10" stroke-width=".5" d="M425.29688 477.24219l-3.36329 6.17187"/></g><path fill="none" stroke="#000" stroke-linecap="round" stroke-linejoin="round" stroke-miterlimit="10" stroke-width=".5" d="M424.8086 478.14063l1.22656.01171"/><g clip-path="url(#U)"><path fill="none" stroke="#000" stroke-linecap="round" stroke-linejoin="round" stroke-miterlimit="10" stroke-width=".5" d="M437.77344 476.91797l-1.6836 6.82422"/></g><path fill="none" stroke="#000" stroke-linecap="round" stroke-linejoin="round" stroke-miterlimit="10" stroke-width=".5" d="M437.52734 477.91016l1.19141-.30078"/><g clip-path="url(#V)"><path fill="none" stroke="#000" stroke-linecap="round" stroke-linejoin="round" stroke-miterlimit="10" stroke-width=".5" d="M450.58984 476.83203l-.68359 6.99219"/></g><path fill="none" stroke="#000" stroke-linecap="round" stroke-linejoin="round" stroke-miterlimit="10" stroke-width=".5" d="M450.48828 477.84766l1.13672-.46485"/><g clip-path="url(#W)"><path fill="none" stroke="#000" stroke-linecap="round" stroke-linejoin="round" stroke-miterlimit="10" stroke-width=".5" d="M462.52344 476.97266l2.07812 6.71093"/></g><path fill="none" stroke="#000" stroke-linecap="round" stroke-linejoin="round" stroke-miterlimit="10" stroke-width=".5" d="M462.82422 477.94922l.86719-.8711"/><g clip-path="url(#X)"><path fill="none" stroke="#000" stroke-linecap="round" stroke-linejoin="round" stroke-miterlimit="10" stroke-width=".5" d="M147.51172 466.85547l-7.02344.32031"/></g><path fill="none" stroke="#000" stroke-linecap="round" stroke-linejoin="round" stroke-miterlimit="10" stroke-width=".5" d="M147.51172 466.85547l1.2461 2.10937m-2.26954-2.0664l.625 1.0586m13.67578-1.47267l-6.94922 1.0586m6.94922-1.0586l1.46485 1.97266m-2.47657-1.8164l.73438.98437m13.5625-1.3125l-6.88672 1.40234m6.88672-1.40234l1.5586 1.89453m-2.5625-1.6875l.78124.94531m13.58985-.78125l-6.9961.66016m6.9961-.66016l1.35156 2.05078m-2.36719-1.95312l.67578 1.02344m13.63672-1.29688l-6.95312 1.01172m6.95312-1.01172l1.44922 1.98047m-2.46094-1.83203l.72656.98828m13.59375-1.17969l-6.9414 1.09766m6.9414-1.09766l1.47657 1.96094m-2.48828-1.80078l.73828.98047m13.57812-1.19531l-6.92187 1.20703m6.92187-1.20703l1.50781 1.9375m-2.51562-1.76172l.7539.96875m13.46094-1.58985l-6.70703 2.09766m6.70703-2.09766l1.7461 1.72657m-2.72266-1.42188l.875.86328m13.33984-1.39062l-6.55078 2.54297m6.55078-2.54297l1.85547 1.60156m-2.80859-1.23438l.92969.8047m13.1914-1.5l-6.2578 3.19921m6.2578-3.19922l2.01172 1.40235m-2.92187-.9375l1.0039.70312m13.0547-1.45703l-5.92579 3.78125m5.92578-3.78125l2.13672 1.20312m-3-.65625l1.07031.60547m13.21485-.97656l-6.13672 3.42578m6.13672-3.42578l2.05859 1.33203m-2.95313-.83203l1.03125.66406m13.125-1.2539l-6.03125 3.60547m6.03125-3.60547l2.10157 1.26953m11.19922-1.29297l-6.00391 3.65234m6.0039-3.65234l2.10938 1.2539m11.38281-.92187l-6.35937 2.98828m6.35937-2.98828l1.96485 1.46875m11.17187-1.80078l-6 3.65234m6-3.65234l2.10938 1.25m11.05078-1.48438l-5.6914 4.1211m5.6914-4.1211l2.20312 1.08204m10.50391-1.73047l-4.47266 5.41797m3.82032-4.62891l1.20312.2461m11.07813-1.79688l-1.10157 6.9414m.94141-5.92968l1.16016-.39844m10.02734-.19922l3.46875 6.11328m14.17969-5.42187l-5.19531 4.73047m19.1289-3.77735l-6.4336 2.82422m5.5-2.41406l.96094.76172m12.9375-1.79688l-5.73046 4.07422m5.73046-4.07422l2.19141 1.10156m10.11719-2.04687l-3.71875 5.96484m3.71875-5.96484l2.44531.16797m11.78125.65234l-5.54297 4.32422m4.73828-3.69531l1.1172.5"/><g clip-path="url(#Y)"><path fill="none" stroke="#000" stroke-linecap="round" stroke-linejoin="round" stroke-miterlimit="10" stroke-width=".5" d="M147.5 453.98438l-7-.57422"/></g><path fill="none" stroke="#000" stroke-linecap="round" stroke-linejoin="round" stroke-miterlimit="10" stroke-width=".5" d="M147.5 453.98438l.97266 2.2539m-1.98828-2.33594l.48437 1.125m13.83594-.92187l-6.98047-.8125m6.98047.8125l.89453 2.28516m-1.91016-2.40625l.44922 1.14453m13.89844-1.1875l-7.01172-.48828m7.01172.48828l.9961 2.24218m-2.01563-2.3125l.4961 1.1211m13.83202-1l-7-.58594m7 .58594l.96875 2.2539m12.35938-2.47265l-7.02735-.15235m7.02735.15235l1.10547 2.1914m12.20703-2.4414l-7.01953.35156m7.01953-.35156l1.25781 2.10547m12.05469-2.14844l-7.01563.4375m7.01563-.4375l1.28125 2.08984m-2.30469-2.02734l.64453 1.04687m13.6211-1.6328l-6.8711 1.48046m6.8711-1.48047l1.58203 1.875m-2.58203-1.65625l.79296.9375m13.38282-1.625l-6.59375 2.42188m6.59375-2.42188l1.83203 1.63281m-2.78906-1.28125l.91406.81641m13.01562-1.86328l-5.90625 3.8125m5.90625-3.8125l2.14063 1.19531m-3-.64062l2.14062 1.1953m11.88672-1.96093l-5.61328 4.23438m5.61328-4.23438l2.22266 1.03516m-3.03906-.41797l2.22265 1.03516M293.20703 451.5l-5.48047 4.39844m5.48047-4.39844l2.2539.96875m-3.05077-.32812l2.2539.96875m11.7539-1.73047l-5.27733 4.64062m5.27734-4.64062l2.29687.86718m-3.0625-.1914l2.29688.86719m11.8711-1.44141l-5.44923 4.4375m5.44922-4.4375l2.26172.95312m-3.05469-.30859l2.26172.95313m11.95313-1.45704l-5.66406 4.15625m5.66406-4.15625l2.21094 1.06641m-3.03516-.46094l1.10547.53125m12.88281-1.33203l-5.35937 4.54688m5.35937-4.54688l2.27734.90625m10.42188-1.47656l-4.1289 5.6875m4.1289-5.6875l2.42969.33984m10.59375-.53125l-3.54688 6.0664m3.54688-6.0664l2.45312.10157m9.30469-.57422l-.42969 7.01562m.42969-7.01562l2.23047-1.01563M396.5 450.21875l.97266 6.96094m-.82813-5.94922l.99219-.71875m14.96094.52734l-4.58985 5.32032m3.92188-4.54688l1.19531.26953m13.71875.22656l-6.45312 2.78125m6.45312-2.78125l1.91406 1.53516m11.64844-.65625l-6.94922 1.01953m6.94922-1.01953l1.45703 1.97656m-2.46875-1.82812l.73047.98828m13.26953-2.1836l-6.29687 3.1172m6.29687-3.1172l1.9961 1.4336m10.86718-2.125l-5.39453 4.5"/><g clip-path="url(#Z)"><path fill="none" stroke="#000" stroke-linecap="round" stroke-linejoin="round" stroke-miterlimit="10" stroke-width=".5" d="M466.25781 451.44922l2.27344.92187"/></g><g clip-path="url(#aa)"><path fill="none" stroke="#000" stroke-linecap="round" stroke-linejoin="round" stroke-miterlimit="10" stroke-width=".5" d="M147.47266 440.91016l-6.94532-1.0547"/></g><path fill="none" stroke="#000" stroke-linecap="round" stroke-linejoin="round" stroke-miterlimit="10" stroke-width=".5" d="M147.47266 440.91016l.8164 2.3164m-1.82422-2.46875l.40625 1.15625m13.87891-.79687l-6.8711-1.46875m6.8711 1.46875l.67578 2.35937m-1.67578-2.57422l.33984 1.1797m14.01953-1.21485l-6.96093-.96875m6.96094.96875l.84375 2.30469m-1.85547-2.44532l.42187 1.15235m13.9375-1.59766l-7.02344.20313m7.02344-.20313l1.21484 2.13281m12.01954-1.28125l-6.86328-1.5m5.86718 1.28125l.33203 1.1836m13.33203.42968l-5.5664-4.28906m4.7539 3.66797l-.20312 1.20703m15.03906-3.11719l-6.98437.77735m5.96875-.66406l.6914 1.01171m13.64063-1.10156l-6.98828.72656m6.98828-.72656l1.3711 2.03516m11.78905-2.76563l-6.67578 2.1914m6.67578-2.1914l1.76954 1.69532m11.24218-2.3711l-6.0703 3.53906m6.0703-3.53906l2.08594 1.29297m-2.96875-.77734l1.04297.64843m12.82813-1.6328l-5.41797 4.47655m5.41797-4.47656l2.26562.9375m10.89844-1.10937l-5.11328 4.8203m5.11328-4.8203l2.32422.78515m-3.07032-.08203l1.16407.39063m12.84375-1.14844l-5.00782 4.92969m5.00782-4.9297l2.33984.73438m-3.07031-.01562l1.17187.36719m12.65625-1.28907l-4.57422 5.33594m4.57422-5.33594l2.39453.53516m-3.05859.24219l1.19531.26953m13.2461-.5664l-5.5 4.375m5.5-4.375l2.25.98046m11.12109-.90625l-5.61328 4.22656m5.61328-4.22656l2.22656 1.03906m-3.04297-.42187l1.11329.51562m12.41796-1.7539l-4.41015 5.46875m4.41015-5.46875l2.41016.46484m-3.05078.33203l1.20312.23047m11.6797-1.61719l-2.26173 6.65235m2.26172-6.65235l2.42188-.39453m11.3203.57031l-3.11718 6.29688m3.11719-6.29688l2.45312-.0703m11.73829.6875l-4.8711 5.0625m4.8711-5.0625l2.35937.67187m11.32031-.26172l-5.59765 4.2461m5.59765-4.2461l2.22657 1.02734m11.5078-.3125l-6.4414 2.8125m6.4414-2.8125l1.92188 1.52735m-2.85937-1.1172l.96094.76173m12.73828-2.05078l-5.33203 4.57421m4.55859-3.91015l1.14062.44922m12.53125-1.52344l-4.5 5.39453m3.84766-4.60937l1.19922.25m12.89453-.92579l-4.7539 5.17579m4.0625-4.42188l1.1875.3086"/><g clip-path="url(#ab)"><path fill="none" stroke="#000" stroke-linecap="round" stroke-linejoin="round" stroke-miterlimit="10" stroke-width=".5" d="M147.49219 427.46094l-6.98438-.78516"/></g><path fill="none" stroke="#000" stroke-linecap="round" stroke-linejoin="round" stroke-miterlimit="10" stroke-width=".5" d="M147.49219 427.46094l.90234 2.28125m-1.91797-2.39453l.44922 1.14062m13.85938-.875l-6.94141-1.08984m6.9414 1.08984l.8047 2.3164m-1.8125-2.47655l.80077 2.3203m13.56641-2.76952l-7.02734.1289m7.02734-.1289l1.1875 2.14843m-2.21094-2.1289l.59375 1.07422m13.39063-2.56641l-6.32031 3.07422m6.3203-3.07422l1.98438 1.4414m11.41797-1.24609l-6.4961 2.6836m5.55079-2.29297l.94531.78125m6.90625 1.70312l6.32031-3.0664m11.91016 4.57812l-3.50781-6.08984m2.9961 5.20312l-.64845 1.03907m16.21485-2.84375l-6.98828-.70704m5.97265.60547l.46485 1.13672m13.75781-2.32812l-6.76953 1.8789m6.76953-1.8789l1.6875 1.78125m11.38281-2.42188l-6.28125 3.16016m6.28125-3.16016l2 1.42188m10.76563-2.21094l-5.1836 4.73828m5.1836-4.73828l2.3125.82031m10.5-1.27734l-4.17969 5.65234m4.17969-5.65234l2.42578.36328m11.4336.13672l-5.26563 4.65234m5.26562-4.65234l2.29688.86328m11.08203-.78906l-5.39063 4.5078m5.39063-4.5078l2.27344.92187m10.85546-1.125l-5.02343 4.91406m5.02343-4.91406l2.33985.74219m11.67187.28125L340.51562 428.5m6.41797-2.86328l1.9375 1.51172m11.41016-1.44532l-6.47656 2.73047m6.47656-2.73047l1.90234 1.55079m-2.84765-1.15235l1.90234 1.55078M358.39453 426.5l.95313.77344m14.09375-1.88281l-6.17188 3.35546m6.17188-3.35546l2.04687 1.35156m-2.94531-.86328l2.04687 1.35156m-2.9453-.86328l1.02733.67578m13.73047-2.1875l-5.46093 4.42578m5.46093-4.42578l2.25782.95703m-3.0547-.3125l1.12891.47656m13.09766-.96875l-5.6914 4.1211m5.6914-4.1211l2.20313 1.07813m-3.03125-.48047l2.20312 1.07812M413 424.82031l-5.39844 4.4961M413 424.8203l2.27344.92578m-3.0586-.27343l2.27344.92968m10.82031-2.41406l-3.38672 6.16016m3.38672-6.16016l2.45313.03516m-2.94531.86328l2.45312.03125m-2.94531.86328l1.22656.01563m12.8789-1.90625l-2.99609 6.35546m2.9961-6.35546l2.45312-.1172m-2.88672 1.04298l1.22266-.0586m13.9414.34766l-5.82812 3.92578m5.82813-3.92578l2.16406 1.15234m11.45312-.60156l-6.43359 2.82422m5.5-2.41406l.96094.76172"/><g clip-path="url(#ac)"><path fill="none" stroke="#000" stroke-linecap="round" stroke-linejoin="round" stroke-miterlimit="10" stroke-width=".5" d="M147.47656 414.25l-6.95312-.99219"/></g><path fill="none" stroke="#000" stroke-linecap="round" stroke-linejoin="round" stroke-miterlimit="10" stroke-width=".5" d="M147.47656 414.25l.83594 2.3086m-1.84766-2.45313l.41797 1.15234m13.94531-1.41406l-7.02734-.17969m7.02734.17969l1.09766 2.1914m-2.1211-2.21874l.55079 1.09765m13.77734-1.44922l-7.0039.57813m7.0039-.57813l1.32422 2.0625m11.71875-3.16015l-6.46094 2.77343m6.46094-2.77343l1.91016 1.53906m-2.85156-1.13672l.95703.76953m10.61328-3.25781l-1.08985 6.9414m1.08985-6.9414l2.32031-.80078m9.38281.92578l2.13281 6.69531m-1.8203-5.72265l.85546-.875m11.00781.51562l4.41407 5.46875m-3.77344-4.67187l.48047-1.12891m17.74219 4.15234l-6.6836-2.17578m5.71094 1.85938l.21094 1.21093m14.21875-1.51953l-6.96485-.92187m6.96485.92187l.85937 2.29688m12.33984-3.76563l-6.73437 2.01563m5.7539-1.72266l.86329.8711m12.64453-2.54297l-5.16016 4.76953m5.16016-4.76953l2.3164.8125m11.44922-.20703l-6.05859 3.55859m6.0586-3.5586l2.08984 1.28516m11.33203-1.08203l-6.27734 3.15625m6.27734-3.15625l2.0039 1.41797m-2.91406-.96094l1 .71094m13.04688-1.48828l-5.91797 3.79687m5.91797-3.79687l2.13672 1.20312m-3-.64843l1.0703.59765m13.6211.20703l-6.94531 1.07813m6.94531-1.07813l1.47266 1.96485m-2.48438-1.8086l.73829.98047m13.53906.20313l-6.84375-1.60157m6.84375 1.60157l.6289 2.3711m-1.625-2.60548l.62891 2.3711m13.72266-3.53907l-6.92578 1.20313m6.92578-1.20313l1.5039 1.9375m-2.51172-1.76172L361 415.26562M358.48828 413.5l.7539.96875m14.33204-2.1289l-6.4336 2.82812m6.4336-2.82813l1.92578 1.51953m-2.86328-1.10937l1.92578 1.52344m-2.86328-1.10938l1.92578 1.51953m13.14453-2.58593l-6.19922 3.30859m6.19922-3.3086l2.03906 1.3711m-2.9414-.88672l2.03906 1.36719m-2.9375-.88672l2.03516 1.36719m13.17968-2.13672l-6.39453 2.91797m6.39453-2.91797l1.94532 1.49219m-2.875-1.06641l1.9453 1.49219m-2.875-1.0664l1.94532 1.49218m12.89453-2.92188l-5.72656 4.07813m5.72656-4.07813l2.19532 1.09766m-3.02735-.5039l2.19531 1.09765m-3.03125-.5039L413.69141 414m12.13672-2.97656l-4.42188 5.46093m4.42188-5.46093l2.41015.46875m-3.05469.32422l2.41016.46875m11.3164-1.4336l-3.95702 5.80469m3.95703-5.80469l2.4414.26953m-3.01562.57422l1.21875.13281m13.83984.36329l-6.29297 3.125m6.29297-3.125l1.9961 1.42578m-2.91407-.97266l1 .71484m13.5586.91797l-6.94922-1.04687"/><g clip-path="url(#ad)"><path fill="none" stroke="#000" stroke-linecap="round" stroke-linejoin="round" stroke-miterlimit="10" stroke-width=".5" d="M467.03516 414.27734l.8164 2.3125"/></g><g clip-path="url(#ae)"><path fill="none" stroke="#000" stroke-linecap="round" stroke-linejoin="round" stroke-miterlimit="10" stroke-width=".5" d="M147.50781 400.63281l-7.01562-.38672"/></g><path fill="none" stroke="#000" stroke-linecap="round" stroke-linejoin="round" stroke-miterlimit="10" stroke-width=".5" d="M147.50781 400.63281l1.03125 2.22656m12.26953-2.78906l-6.98828.73438m6.98828-.73438l1.3711 2.03516m10.7539-4.32031l-4.60937 5.30468m3.9414-4.53125l1.19532.27735m10.78125-1.89844l-.59375 7m.50781-5.98047l1.1289-.48437m12.09376-.54688l-.23828 7.02344m.23828-7.02344l2.20703-1.07812m8.64844 1.96875l4.67968 5.24218m-4.67969-5.24218l.85157-2.30079m11.3086 4.58594l6.99218.67188m-5.97656-.57422l-.46875-1.13281m19.03906 3.52343l-5.55078-4.30468m5.55078 4.30468l-.41406 2.41797m14.46093-4.76172l-7.01562.38282m7.01562-.38282l1.26953 2.10157m12.04297-2.1797l-7.0078.53907m7.0078-.53906l1.3125 2.07031m12.00391-1.58203l-7.01172-.4375m7.01172.4375l1.01563 2.23438m-2.03516-2.29688l1.01562 2.23438m-2.03515-2.29688l.50781 1.11328m14.85547-1.20703h-7.02735m7.02735 0l1.15234 2.16797m-2.17578-2.16797l1.15234 2.16797m-2.17578-2.16797l.57813 1.08594m14.77344-.82422l-7.00782-.52344m7.00782.52344l.98828 2.2461m-2.00782-2.32032l.98829 2.2461m-2.00782-2.32423l.98828 2.2461m14.36329-2.0586l-7.00391-.59375m7.0039.59375l.96485 2.25782m-1.98438-2.34375l.96485 2.25781m-1.98438-2.34375l.48438 1.1289m14.8711-.96484l-7.00391-.57422m7.0039.57422l.96875 2.25m-1.98828-2.33594l.96875 2.25391m-1.98828-2.33594l.48437 1.125m14.79688-.48046l-6.85938-1.53125m6.85938 1.53125l.65234 2.36718m-1.65234-2.58984l.65234 2.36719m-1.64843-2.58985l.32421 1.1836m14.3125.67578l-5.51171-4.35938m5.51171 4.35938l-.4414 2.41406m-.35938-3.04688l-.22265 1.20704m14.95312-3.75l-6.73828 1.99218m6.73828-1.99218l1.71875 1.75m11.21485-2.59766l-5.98047 3.6875m5.98047-3.6875l2.12109 1.23828m-2.98828-.70312l2.11719 1.24218m-2.98829-.70312l1.0586.6211m14.38672-.80079l-6.76563 1.89844m6.76563-1.89844l1.69531 1.77344m-2.67969-1.4961l1.69531 1.77344m12.51954-2.3164l-6.59375 2.43359m6.59375-2.4336l1.83203 1.63282m-2.79297-1.28125l1.83203 1.63672m11.75-3.13281l-5.20313 4.72265m5.20313-4.72265l2.3086.82812m-3.06641-.14063l2.3086.82813m11.95702-1.28516l-5.58984 4.26172m5.58984-4.26172l2.22656 1.02344m-3.03906-.40625l2.22656 1.02735m12.44532-.60938l-6.67969 2.1875m6.67969-2.1875l1.76953 1.69922m-2.74219-1.3789l.88672.84765m13.51953-.70313l-6.91406 1.25782"/><g clip-path="url(#af)"><path fill="none" stroke="#000" stroke-linecap="round" stroke-linejoin="round" stroke-miterlimit="10" stroke-width=".5" d="M467.01953 399.8086l1.51953 1.92577"/></g><path fill="none" stroke="#000" stroke-linecap="round" stroke-linejoin="round" stroke-miterlimit="10" stroke-width=".5" d="M466.01172 399.99219l.76172.96484"/><g clip-path="url(#ag)"><path fill="none" stroke="#000" stroke-linecap="round" stroke-linejoin="round" stroke-miterlimit="10" stroke-width=".5" d="M147.49219 387.51953l-6.98438-.79297"/></g><path fill="none" stroke="#000" stroke-linecap="round" stroke-linejoin="round" stroke-miterlimit="10" stroke-width=".5" d="M147.49219 387.51953l.89844 2.28125m11.68359-4.85156l-5.51953 4.34765m5.51953-4.34765l2.2461.98828m10.20312-1.77344l-3.78906 5.91797m3.78906-5.91797l2.44531.19922m-2.9961.66016l1.22266.10156m13.5-.1875l-5.5 4.3711m5.5-4.3711l2.25.97656m11.08594-.94922l-5.54297 4.31641m5.54297-4.3164l2.24219 1m-3.04688-.3711l1.1211.5m13.74218 1.03125h-7.02734m7.02734 0l1.15235 2.16406m11.96484-1.01172l-6.63281-2.30859m6.63281 2.3086l.375 2.42577m-1.33984-2.76171l.375 2.42578m14.08203-2.88281l-6.98828-.72266m6.98828.72265l.92578 2.27344m-1.9414-2.3789l.92187 2.27343m13.36719-1.87109l-6.90235-1.3164m6.90235 1.3164l.72656 2.34375m-1.73047-2.53516l.72266 2.34375m13.60156-2.1914l-6.91797-1.23828m6.91797 1.23828l.7539 2.33594m-1.7578-2.51563l.7539 2.33594m-1.76172-2.51563l.375 1.16797m15.00781-1.42578h-7.02734m7.02734 0l1.15235 2.16406m-2.17579-2.16406l1.15235 2.16406m13.1875-2.16406h-7.02735m7.02735 0l1.15234 2.16406m-2.17578-2.16406l1.15234 2.16406m-2.17578-2.16406l.57813 1.08203m14.78125-1.23437l-7.02344.30078m7.02344-.30078l1.24219 2.11328m-2.26563-2.07031l1.2461 2.11328m13.07812-2.33985l-6.9961.66797m6.9961-.66797l1.35156 2.04688m-2.3711-1.94922l1.35548 2.04687m12.9961-1.84375l-7.02735.06641m7.02734-.0664l1.17188 2.15624m-2.19532-2.14453l1.17188 2.15235m13.14062-1.71485l-6.97656-.82812m6.97656.82812l.89063 2.28516m-1.90625-2.40625l.44531 1.14453m13.91016-1.39063l-7.02735-.09765m7.02735.09765l1.1211 2.1797m-2.14454-2.19532l1.1211 2.1836m-2.14454-2.19532l.5625 1.08985m14.73438-1.79297l-6.89453 1.36328m6.89453-1.36328l1.54687 1.90234m-2.55078-1.70313l1.55078 1.90235m-2.55469-1.70313l1.55079 1.90235m13.67578-2.66797l-6.70703 2.09765m6.70703-2.09765l1.7461 1.72656m-2.71876-1.42187l1.74219 1.72656m12.59375-1.85938L393.58594 388m6.80078-1.7539l1.66015 1.80859M399.39844 386.5l.82812.90625m13.125-2.02734l-6.10156 3.48828m6.10156-3.48828l2.07422 1.3125m-2.96094-.8047l1.03516.65626m12.90234-1.5625l-5.5703 4.28515m5.5703-4.28515l2.23438 1.01562m-3.04688-.39062l1.1172.50781m12.58983-1.58984l-4.73046 5.19922m4.73046-5.19922l2.37891.60937m-3.0664.14844l2.375.60547m12.4414-.26172l-6.35547 2.9961m6.35547-2.9961l1.96484 1.46875M452.5 386.0625l1.96484 1.46875m12.5625-.98828l-6.92968 1.16015"/><g clip-path="url(#ah)"><path fill="none" stroke="#000" stroke-linecap="round" stroke-linejoin="round" stroke-miterlimit="10" stroke-width=".5" d="M467.02734 386.54297l1.4922 1.94531"/></g><path fill="none" stroke="#000" stroke-linecap="round" stroke-linejoin="round" stroke-miterlimit="10" stroke-width=".5" d="M466.01953 386.71094l.7461.97265"/><g clip-path="url(#ai)"><path fill="none" stroke="#000" stroke-linecap="round" stroke-linejoin="round" stroke-miterlimit="10" stroke-width=".5" d="M147.34375 374.89063l-6.6875-2.16797"/></g><path fill="none" stroke="#000" stroke-linecap="round" stroke-linejoin="round" stroke-miterlimit="10" stroke-width=".5" d="M146.3711 374.57813l.21093 1.20703m13.55078-4.07813L154.5 375.91016m5.63281-4.20313l2.21875 1.04688m11.51563-.3125l-6.47266 2.73437m6.47266-2.73437l1.90234 1.54687m11.3164-1.75781l-6.28124 3.15234m6.28125-3.15234l2 1.42187m10.53515-2.4453l-4.72265 5.20312m4.72265-5.20313L202 371.8086m-3.0664.15625l1.1914.30079m13.71094 2.85156L207.3164 372.5m6.51953 2.61719l.26172 2.4414m13.01172-2.33984l-6.4375-2.82031m6.4375 2.82031l.18359 2.44531m-1.1211-2.85547l.1875 2.44532m14.3086-2.84766l-6.92578-1.19531m6.92578 1.19531l.76562 2.33203m-1.77343-2.50781l.76562 2.33203m13.4961-1.8789l-6.8047-1.75m6.8047 1.75l.57812 2.38671m-1.5664-2.64062l.57421 2.38281m13.82031-2.60938l-6.98437-.78906m6.98438.78906l.90234 2.28125m-1.91797-2.39843l.90234 2.28125m13.44141-2.77344l-7.01172.42578m7.01172-.42578l1.28125 2.09375m-2.30078-2.03125l1.28125 2.09375m13.0586-2.0625l-7.02345.24219m7.02344-.24219l1.22656 2.125m-2.24609-2.08984l1.22266 2.125m-2.2461-2.08985l.61328 1.0625m14.71094-1.5039l-6.95703.98437m6.95703-.98437l1.44531 1.98046m-2.45703-1.83984l1.44532 1.98438m-2.45704-1.83985l.72266.99219m14.48047-1.86719l-6.6836 2.16406m6.6836-2.16406l1.76563 1.70703m-2.73829-1.39453l1.76563 1.70703m-2.73828-1.39062l.88281.85547m14.39844-1.41797l-6.72656 2.03125m6.72656-2.03125l1.73047 1.74219m-2.70704-1.44532l1.72657 1.7422m12.67969-1.52735L340.25 374.3125m6.95313-1.00781l1.44921 1.98047m-2.46093-1.83204l1.44921 1.97657m-2.46093-1.83203l.72656.98828m14.64844-.89063l-7.02344.22656m7.02344-.22656l1.21875 2.1289m-2.24219-2.09765l1.21875 2.1289m-2.24219-2.09374l1.22266 2.1289m14.11328-2.5l-6.97656.83594m6.97656-.83594l1.40234 2.01563m-2.41796-1.89453l1.40234 2.01562m-2.41406-1.89453l1.39843 2.01563m13.84766-2.76563l-6.78125 1.85156m6.78125-1.85156l1.67969 1.78906m-2.66797-1.51953l1.6836 1.78907m-2.66798-1.51954l.83985.89454m14.41015-1.55079l-6.70703 2.08594m6.70703-2.08594l1.7461 1.72657m-2.72266-1.42578l1.7461 1.72656m12.47265-2.2461l-6.5586 2.52344m6.5586-2.52344l1.85156 1.60938m-2.80859-1.24219l.92969.80469m13.26172-1.35938l-6.40235 2.89844m6.40235-2.89844l1.9453 1.4961m-2.875-1.07422l.96876.75m12.69922-2.0625l-5.2461 4.67578m5.2461-4.67578l2.30078.85156m-3.0625-.16797l1.14844.42188m13.51562-.1914l-6.42187 2.85156m6.42187-2.85157l1.9336 1.51563m-2.8672-1.10156l.96485.7578m13.5586-.1875l-6.97266.88282"/><g clip-path="url(#aj)"><path fill="none" stroke="#000" stroke-linecap="round" stroke-linejoin="round" stroke-miterlimit="10" stroke-width=".5" d="M467.04688 373.36719l1.41406 2.0039"/></g><path fill="none" stroke="#000" stroke-linecap="round" stroke-linejoin="round" stroke-miterlimit="10" stroke-width=".5" d="M466.03125 373.4961l.71094 1"/><g clip-path="url(#ak)"><path fill="none" stroke="#000" stroke-linecap="round" stroke-linejoin="round" stroke-miterlimit="10" stroke-width=".5" d="M146.52734 362.9336l-5.05468-4.88282"/></g><path fill="none" stroke="#000" stroke-linecap="round" stroke-linejoin="round" stroke-miterlimit="10" stroke-width=".5" d="M145.79297 362.22266l-.33984 1.17968m15.16406-1.71093l-6.60547-2.39844m5.64453 2.05078l.17188 1.21484m14.13671-3.17187l-6.66797 2.21094m5.69922-1.88672l.88672.84375m13.54688-.51563l-6.96875.91016m6.96875-.91016l1.42187 2m11.71485-2.73828l-6.60938 2.38672m6.60938-2.38672l1.8164 1.64844m-2.77734-1.30078l1.8164 1.64453m12.25782.84375l-6.21094-3.28516m6.21094 3.28516l.00781 2.45312m-.91016-2.93359l.00782 2.45313m14.28515-2.1172l-6.35937-2.99609m6.35937 2.9961l.11719 2.44922m-1.04297-2.88672l.0586 1.22656m14.33984-1.1914l-6.67578-2.19141m6.67578 2.1914l.41797 2.41797m-1.38672-2.73828l.20703 1.21094m14.14453-1.1289l-6.8125-1.71876m6.8125 1.71875l.58984 2.38281m-1.57812-2.6328l.58594 2.3828m13.8164-2.72265l-7.0078-.53906m7.0078.53906l.98047 2.25m-2-2.32813l.98047 2.25m13.34375-2.07812l-6.98828-.72656m6.98828.72656l.92188 2.27344m-1.9375-2.37891l.92187 2.27344m-1.9375-2.3789l.46094 1.13671m14.875-.8164l-6.96485-.94532m6.96485.94531l.84765 2.30079m-1.86328-2.4375l.85157 2.30078m13.5039-2.85547l-7.01562.4414m7.01562-.4414l1.28516 2.08984m-2.3086-2.02734l1.28907 2.08984m-2.3086-2.02344l.64453 1.04297m14.58594-1.90625l-6.76172 1.91016m6.76172-1.91016l1.69922 1.77344m-2.6836-1.4961l1.69923 1.77344m-2.6836-1.49609l.85156.88672m14.33985-1.72266l-6.57813 2.46875m6.57813-2.46875l1.83984 1.625m-2.79687-1.26562l1.83984 1.625m-2.79687-1.26563l.92187.8125m14.3711-1.34765l-6.70313 2.10156m6.70312-2.10156l1.7461 1.72265m-2.72266-1.41406l1.75 1.72266m-2.72265-1.41797l.87109.85937m14.53906-.73437l-6.9961.6289m6.9961-.6289l1.34375 2.05469m-2.35937-1.96485l1.33984 2.05469m-2.35937-1.96094l.67187 1.02735m14.625-1.59375l-6.88672 1.39062m6.88672-1.39063l1.5586 1.89844M372.79687 360l1.55859 1.89453m-2.5586-1.6914l1.5586 1.89453m13.47265-3.14844l-6.3125 3.08984m6.3125-3.08984l1.98438 1.4414m-2.90234-.99218l1.98437 1.4414m-2.90234-.99218l1.98437 1.4414m12.8125-2.91406l-5.60547 4.23828m5.60547-4.23828l2.22656 1.03125m-3.04296-.41797l2.22656 1.03516m-3.04297-.41797l1.11328.51953m13.78516-1.8125l-5.50782 4.36328m5.50782-4.36328l2.25.98438m-3.05078-.35157l2.25.98438m12-1.4414l-5.77344 4.0078m5.77344-4.0078l2.17968 1.125m-3.01953-.54298l2.17969 1.125m11.52344-2.23437l-4.8711 5.0664m4.8711-5.0664l2.35937.66797m-3.07031.0664l2.36328.67188m12.0664-.94531l-5.67968 4.14062m5.67969-4.14063l2.20703 1.07422m-3.03516-.46875l1.10547.53516m13.5625-.08203l-6.73047 2.02344"/><g clip-path="url(#al)"><path fill="none" stroke="#000" stroke-linecap="round" stroke-linejoin="round" stroke-miterlimit="10" stroke-width=".5" d="M466.92578 359.48047l1.72656 1.74219"/></g><path fill="none" stroke="#000" stroke-linecap="round" stroke-linejoin="round" stroke-miterlimit="10" stroke-width=".5" d="M465.94531 359.77344l.86719.875"/><g clip-path="url(#am)"><path fill="none" stroke="#000" stroke-linecap="round" stroke-linejoin="round" stroke-miterlimit="10" stroke-width=".5" d="M144.74219 350.61328l-1.48438-6.8711"/></g><g clip-path="url(#an)"><path fill="none" stroke="#000" stroke-linecap="round" stroke-linejoin="round" stroke-miterlimit="10" stroke-width=".5" d="M144.52344 349.61328l-.9375.79297"/></g><path fill="none" stroke="#000" stroke-linecap="round" stroke-linejoin="round" stroke-miterlimit="10" stroke-width=".5" d="M156.84766 350.66016l.9375-6.96485m-.80078 5.95313l-1.15235.42578m18.24219-2.19531l-6.88672-1.40235m20.26953.5664l-7.02344.26954m7.02344-.26953l1.23438 2.1211m12.08203-1.9336l-7.02735-.10156m7.02735.10156l1.1211 2.1836m-2.14454-2.19923l.5625 1.08985m13.55078.10937l-6.57812-2.47265m6.57812 2.47265l.3164 2.4336m-1.27343-2.79297l.15625 1.21875m14.03516-.66406l-6.41797-2.86329m6.41797 2.86329l.17187 2.44921m-1.10547-2.86718l.08594 1.22656m13.86719-.27344l-5.82422-3.9336m5.82422 3.9336l-.26172 2.4414m-.58594-3.01171l-.25781 2.4375m14.72266-2.41406l-6.4297-2.83985m6.4297 2.83985l.17968 2.4453m-1.11328-2.85937l.08984 1.22266m14.3086-1.21094l-6.72656-2.03515m6.72656 2.03515l.47265 2.40625m-1.45312-2.70312l.47656 2.41015m13.8164-2.11328l-6.72265-2.03515m6.72266 2.03515l.47656 2.41016m-1.45312-2.70703l.47265 2.41015m13.91797-2.52343l-6.92187-1.21485m6.92187 1.21485l.76172 2.33203m-1.76953-2.50781l.76172 2.33203m-1.76563-2.51172l.3789 1.16797m15-1.28516l-7.02343-.26563m7.02344.26563l1.0664 2.20703m-2.08984-2.2461l1.07031 2.20704m13.21485-2.91016l-6.91797 1.21485m6.91797-1.21485l1.51172 1.9336m-2.51563-1.75782l1.50781 1.9375m12.60157-2.84375l-6.4961 2.6797m6.4961-2.6797l1.89062 1.5625m-2.83594-1.17578l1.89063 1.5664m12.3711-1.94921l-6.5 2.66797m6.5-2.66797l1.88671 1.5664m-2.83203-1.17968l1.88672 1.5664m12.59765-1.1328l-6.94921 1.02734m6.94921-1.02735l1.45704 1.97656m-2.46875-1.82812l1.45703 1.97656m12.86328-2.1836l-6.9336 1.14454m6.9336-1.14453l1.48828 1.94922m-2.5-1.78125l1.49219 1.94922m-2.5-1.78516l.7461.97656m14.3125-2.20703l-6.38282 2.9414m6.38281-2.9414l1.95313 1.48828m-2.88282-1.0586l1.95313 1.48438m-2.88281-1.05859l1.95312 1.48828m12.60156-3.26953l-5.14453 4.79297m5.14453-4.79297l2.31641.80078m-3.0664-.10156l2.3203.80078m11.34376-1.86328l-4.34375 5.52344m4.34375-5.52344l2.41406.4336m-3.04688.36718l2.41797.4336m11.73438-1.0625l-4.75 5.17577m4.75-5.17578l2.375.6172m-3.0664.13671l2.375.61719m11.67968-1.32813l-4.84766 5.08985m4.84766-5.08985l2.36328.66406m-3.07031.07813l2.36328.66016m12.14062-.83594l-5.80859 3.95703m5.8086-3.95703l2.16796 1.14453m-3.01562-.5664l1.08593.5703m13.42579-.49218L460.30469 348.5"/><g clip-path="url(#ao)"><path fill="none" stroke="#000" stroke-linecap="round" stroke-linejoin="round" stroke-miterlimit="10" stroke-width=".5" d="M466.8164 345.85547l1.88282 1.57422"/></g><path fill="none" stroke="#000" stroke-linecap="round" stroke-linejoin="round" stroke-miterlimit="10" stroke-width=".5" d="M465.8711 346.24219l.9414.78515"/><g clip-path="url(#ap)"><path fill="none" stroke="#000" stroke-linecap="round" stroke-linejoin="round" stroke-miterlimit="10" stroke-width=".5" d="M142.13672 336.84375l3.72656-5.96094"/></g><path fill="none" stroke="#000" stroke-linecap="round" stroke-linejoin="round" stroke-miterlimit="10" stroke-width=".5" d="M158.14063 337.27734l-1.65235-6.82812m1.41406 5.83594l-.91797.8125m14.05079.2539l-.8125-6.97656m.6953 5.96094l-1.0078.69922m16.33984-.51954l-4.60938-5.30468m3.94141 4.53125l-.4414 1.14453m15.19921-1.33203l-6.16015-3.38281m6.16015 3.3828l-.03125 2.45313m13.32422-2.41406l-6.11719-3.46094m6.1172 3.46094l-.0625 2.44922m13.33593-2.3789l-6.03125-3.60157m6.03125 3.60156l-.1211 2.44922m-.7539-2.97265l-.0625 1.22265m13.96875-.29297l-5.46484-4.41406m5.46484 4.41406l-.46484 2.41016m-.32813-3.05078l-.23437 1.20312m14.52734-.8086l-5.83203-3.92187m5.83203 3.92188l-.2539 2.4414m-.59766-3.01171l-.2539 2.4414m14.5-1.9961l-5.9922-3.67187m5.9922 3.67188l-.14845 2.44922m-.72265-2.98438l-.15235 2.44922m14.40625-2.03515l-6.1289-3.4336m6.1289 3.4336l-.05078 2.45312m-.83984-2.94922l-.02734 1.22656m14.45312-1.19921l-6.57031-2.4922m6.57031 2.4922l.3125 2.43359m-1.26562-2.79688l.15234 1.21485m14.29687-1.50781l-6.92968-1.1797m6.92968 1.1797l.76954 2.32812m12.46875-3.85156l-6.77735 1.86719m6.77735-1.8672l1.68359 1.78516m-2.67188-1.51171l.84375.89062m13.39063-1.3789l-6.64063 2.29296m6.64063-2.29297l1.79687 1.67579m-2.76171-1.33985l.89843.83594m13.29688-1.39844l-6.46875 2.75m6.46875-2.75l1.90625 1.54297m11.5586-1.11328l-6.76954 1.89062m6.76953-1.89062l1.6914 1.77734m11.6172-1.79297l-6.75782 1.92188m6.75782-1.92188l1.70312 1.76563m-2.6836-1.48828l.84766.88672m13.24219-1.71094l-6.34766 3.01562m6.34766-3.01562l1.97266 1.46094m-2.89453-1.02344l1.96875 1.46484m-2.89454-1.02344l.98829.73047m14.18359-1.59765l-6.36328 2.98828m6.36328-2.98828l1.96094 1.47265m-2.88672-1.03515l1.96094 1.46875m11.74218-2.72266l-5.28906 4.625m5.28906-4.625l2.29297.8711m-3.0625-.19922l1.14844.4375m13.15625-.83204l-5.72656 4.07032m5.72656-4.07031l2.19531 1.09765m11.21875-.94922l-5.92578 3.77344m5.92578-3.77344l2.13672 1.21094m10.85156-1.64453l-5.27343 4.64062m5.27343-4.64062l2.29688.86328m-3.0625-.1875l1.14844.42969m13.28125-.64063l-5.96875 3.71094"/><g clip-path="url(#aq)"><path fill="none" stroke="#000" stroke-linecap="round" stroke-linejoin="round" stroke-miterlimit="10" stroke-width=".5" d="M466.54688 332.00781l2.12109 1.23047"/></g><path fill="none" stroke="#000" stroke-linecap="round" stroke-linejoin="round" stroke-miterlimit="10" stroke-width=".5" d="M465.67578 332.54688l1.0625.61718"/><g clip-path="url(#ar)"><path fill="none" stroke="#000" stroke-linecap="round" stroke-linejoin="round" stroke-miterlimit="10" stroke-width=".5" d="M141.60938 323.1211l4.78125-5.14844"/></g><path fill="none" stroke="#000" stroke-linecap="round" stroke-linejoin="round" stroke-miterlimit="10" stroke-width=".5" d="M155.17969 323.33594l4.27344-5.57813m-4.27344 5.57813l-2.42188-.40235m17.86719 1.12891l.00781-7.02734m-.0039 6.0039l-1.08594.57422m15.19531.35938l-1.58594-6.84766m1.35547 5.85156l-.92578.80469m15.16406-.04688l-2.96875-6.37109m2.96875 6.3711l-1.47656 1.95703m15.21875-2.19532l-3.82812-5.89453m3.82812 5.89453l-1.1875 2.14454m.63281-3.00391l-.59375 1.07422m14.83594-.4961l-4.57031-5.33593m4.57031 5.33593l-.89453 2.28516m.23047-3.0625l-.44922 1.14453m14.52734-.45312l-4.76953-5.16016m4.76953 5.16016l-.80859 2.3164m.11328-3.0664l-.40234 1.15625m14.38281-.37891l-4.71094-5.21484m4.71094 5.21484l-.83594 2.30469m.15235-3.0625l-.83594 2.30469m14.95312-1.66016l-4.9453-4.99219m4.9453 4.99219l-.73047 2.34375m.01172-3.07031l-.36718 1.17187m14.6289-.69531l-5.40234-4.49219m5.40234 4.49219l-.4961 2.40234m-.28905-3.05469l-.25 1.19922m14.83593-1.30859l-6.37109-2.96484m6.3711 2.96484l.1289 2.44922m13.4961-3.60547l-6.9961-.65234m6.9961.65234l.94921 2.26172m12.375-2.34766l-7.01172-.48437m7.01172.48437l1 2.24219m12.30469-2.85156l-6.98828.73437m6.98828-.73437l1.3711 2.03515m11.71093-2.97265l-6.52344 2.61328m5.57422-2.23438l.9375.78907m12.17578-2.67188l-4.22265 5.61719m3.60937-4.79688l1.21094.1875m13.96094.75782L367 321.59375m5.73437-1.78516l.8711.86329m13.16797-1.77344l-6.20313 3.29687m6.20313-3.29687l2.03515 1.375m-2.9375-.89453l1.01563.6875m12.91406-1.6211l-5.6289 4.20313m5.6289-4.20313l2.21875 1.04688m-3.03516-.4336l2.21875 1.04688m11.84375-1.75l-5.49218 4.38281m5.49218-4.38281l2.25391.97656m-3.05078-.33594l2.25.97266m11.19922-2.25l-4.16797 5.65625m4.16797-5.65625l2.42969.35938m7.33593-.72266l2.9297 6.38672m-2.5-5.45703l.74218-.97657m14.98828.00782l-2.75781 6.46484m2.75781-6.46484l2.44531-.21094m11.9336.91406l-4.88282 5.05469"/><g clip-path="url(#as)"><path fill="none" stroke="#000" stroke-linecap="round" stroke-linejoin="round" stroke-miterlimit="10" stroke-width=".5" d="M466.0039 318.01953l2.35938.67969"/></g><path fill="none" stroke="#000" stroke-linecap="round" stroke-linejoin="round" stroke-miterlimit="10" stroke-width=".5" d="M465.29297 318.75781l1.17969.33594"/><path fill="#ff3030" fill-rule="evenodd" d="M317.91797 463.21094h7.69531V453.0625h-7.69531v10.14844"/><path fill="azure" fill-rule="evenodd" d="M319.7539 454.89844h.83204v5.73828h3.1914v.74219h-4.02343v-6.48047"/><path fill="#ff3030" fill-rule="evenodd" d="M180.33203 449.89453h7.6914V439.75h-7.6914v10.14453"/><path fill="azure" fill-rule="evenodd" d="M182.16406 441.58203h.83203v5.73828h3.19532v.74219h-4.02735v-6.48047"/><path fill="#00f" fill-rule="evenodd" d="M383.80078 432.14063h8.61719v-10.14454h-8.61719v10.14454"/><path fill="azure" fill-rule="evenodd" d="M385.63281 423.82813h.83203v2.82421h3.28907v-2.82421h.83203v6.48046h-.83203v-2.91796h-3.28907v2.91796h-.83203v-6.48046"/><path fill="#00f" fill-rule="evenodd" d="M224.01953 414.38672h8.61719v-10.14453h-8.61719v10.14453"/><path fill="azure" fill-rule="evenodd" d="M225.85156 406.07422h.83594v2.82422h3.28516v-2.82422h.83203v6.48047h-.83203v-2.91406h-3.28516v2.91406h-.83594v-6.48047"/><path fill="#ff3030" fill-rule="evenodd" d="M353.42578 405.51172h7.6914v-10.14453h-7.6914v10.14453"/><path fill="azure" fill-rule="evenodd" d="M355.25781 397.19922h.83594v5.73828h3.1914v.74219h-4.02734v-6.48047"/><path fill="#ff3030" fill-rule="evenodd" d="M202.52344 365.5664h7.6914v-10.14452h-7.6914v10.14453"/><path fill="azure" fill-rule="evenodd" d="M204.35547 357.2539h.83203v5.73829h3.19531v.74219h-4.02734v-6.48047"/><path fill="#ffffe0" fill-rule="evenodd" d="M323.99219 413.92969h22.17969v-10.1914h-22.1797v10.1914"/><path fill-rule="evenodd" d="M327.48828 405.57031H328v6.29688h-.78906V407.375h-1.38672v-.55469l.5586-.0625.2539-.05469.22656-.08984.20703-.14062.17188-.21094.14062-.29297.10547-.39844m4.8164 0l.22657.01953.21875.0547.21094.08983.19531.1211.1836.15234.17187.17578.30078.41797.2461.49219.17968.54688.10938.57812.03906.59375-.03906.59375-.10938.58203-.17969.55469-.24609.5039-.30078.42579-.17188.17968-.18359.15235-.19531.125-.21094.08984-.21875.0586-.22656.01953-.23047-.01954-.21875-.05859-.20703-.08984-.19922-.125-.1836-.15235-.17187-.17968-.30078-.42579-.24219-.5039-.17969-.55469-.11328-.58203-.03515-.59375h.83203l.02734.5625.08203.5039.125.44532.16406.375.19141.30078.21094.21875.22265.13672.22657.04687.22656-.04687.22266-.13672.21093-.21875.1875-.30078.16407-.375.125-.44531.08203-.50391.03125-.5625-.03125-.5625-.08203-.5-.125-.4336-.16407-.36718-.1875-.29297-.21093-.21484-.22266-.12891-.22656-.04688-.22656.04688-.22266.1289-.21094.21485-.1914.29297-.16407.36719-.125.43359-.08203.5-.02734.5625h-.83203l.03515-.59375.11328-.57813.1797-.54687.24218-.49219.30078-.41797.17188-.17578.18359-.15234.19922-.1211.20703-.08984.21875-.05469.23047-.01953m5.08984 0h.50781v6.29688h-.78515V407.375h-1.38672v-.55469l.5586-.0625.25-.05469.23046-.08984.20313-.14062.17578-.21094.14062-.29297.10547-.39844m2.82422 2.17578h.78516l.01953-.3164.0625-.28516.09765-.2539.14063-.21485.17969-.17187.22265-.12891.26563-.08203.3086-.02735.23827.02344.22266.0625.20703.10156.17578.13672.14844.17188.11328.20703.07422.23828.02344.26172-.01954.26953-.0664.22266-.10938.19531-.15625.16797-.20312.16406-.2461.16406-.6328.39063-.53907.3125-.4375.3164-.34375.32422-.26563.33594-.1914.35156-.125.3711-.0664.39062-.02344.42188h4.21484v-.74219h-3.33203l.08203-.28516.11328-.23437.14844-.20313.1875-.17968.23047-.17188L342 409.875l.71875-.41406.41406-.20703.34766-.23047.27734-.25.22266-.26953.16406-.27735.10938-.28515.0625-.28516.02343-.28125-.04296-.38281-.1211-.34766-.1875-.3086-.2539-.26171-.30079-.21094-.34375-.16015-.3828-.09766-.40626-.03516-.4336.03516-.39843.09765-.35547.16797-.30469.23438-.25.30078-.18359.375-.11719.44531-.03906.51953"/><path fill="#ffffe0" fill-rule="evenodd" d="M266.29297 376.59375h22.17969v-10.1914h-22.1797v10.1914"/><path fill-rule="evenodd" d="M269.79297 368.23438h.50781v6.29296h-.78906v-4.48828H268.125v-.55469l.5586-.0664.2539-.05469.23047-.08594.20312-.14453.17188-.20703.14062-.29687.10938-.39454m4.8125 0l.23047.01954.21875.05468.20703.08985.19531.1211.1836.14843.17187.17578.30078.42188.2461.49218.17968.54688.10938.57812.03906.58985-.03906.59375-.10938.58593-.17969.5547-.24609.5-.30078.42968-.17188.17969-.18359.15234-.19531.125-.20703.08984-.21875.0586-.23047.01953-.23047-.01953-.21875-.0586-.20703-.08984-.19531-.125-.1875-.15234-.16797-.1797-.30469-.42968-.24219-.5-.17969-.55469-.11328-.58593-.03515-.59375h.83203l.02734.5664.08203.5039.12891.44142.16016.375.1914.30078.21094.22265.22266.13672.22656.04688.22656-.04688.22266-.13672.21094-.22265.1914-.30079.16016-.375.125-.4414.08203-.5039.03125-.56641-.03125-.5586-.08203-.5-.125-.4375-.16016-.36719-.1914-.28906-.21094-.21484-.22266-.13281-.22656-.04297-.22656.04297-.22266.1328-.21094.21485-.1914.28906-.16016.3672-.1289.4375-.08204.5-.02734.55859h-.83203l.03515-.58985.11329-.57812.17968-.54688.24219-.49219.30469-.42187.16797-.17578.1875-.14844.1953-.1211.20704-.08984.21875-.05468.23047-.01954m5.08984 0h.51172v6.29297h-.78906v-4.48828h-1.38672v-.55469l.5586-.0664.2539-.05469.22656-.08594.20313-.14453.17578-.20703.14062-.29687.10547-.39454m2.82422 2.17579h.78906l.01954-.31641.05859-.28516.09765-.2539.14063-.21485.17969-.17578.22265-.1289.26563-.07813.3086-.02734.23827.01953.22266.0625.20703.10156.17969.14063.14844.17187.11328.20703.07031.23438.02344.26562-.01953.26953-.06641.22266-.10938.1914-.15625.17188-.19921.16406-.25.16407-.63282.39062-.53906.3125-.4375.3164-.34375.32423-.26562.33593-.1875.35157-.12891.36718-.0664.39454-.01954.41796h4.21094v-.73828h-3.33203l.08203-.28515.11328-.23438.14844-.20312.1875-.1797.23047-.17187.27734-.17578.71875-.41797.41406-.20312.34766-.23047.28125-.2539.21875-.26563.16406-.27735.10938-.28515.0625-.28516.02344-.28125-.04297-.38281-.1211-.34766-.1875-.30859-.25-.26172-.30469-.21484-.34375-.15625-.3828-.09766-.40626-.03515-.4336.03125-.39843.10156-.35547.16406-.30469.23438-.24609.30468-.1875.375-.11719.44531-.03906.51954"/><path fill="#ffffe0" fill-rule="evenodd" d="M332.86719 335.40625h22.17969v-10.1914h-22.1797v10.1914"/><path fill-rule="evenodd" d="M336.36719 327.04688h.50781v6.29687h-.78516v-4.49219h-1.39062v-.55469l.5625-.0664.25-.05078.23047-.08985.20312-.14453.17578-.20703.14063-.29687.10547-.39454m4.8125 0l.23047.01954.21875.05468.20703.08985.19531.1211.1875.14843.16797.17578.30469.42188.24218.49218.1797.54688.11327.57812.03516.58985-.03516.59375-.11328.58593-.17969.5547-.24218.5-.3047.42968-.16796.17969-.1875.15234-.19531.125-.20703.08984-.21875.0586-.23047.01953-.23047-.01953-.21875-.0586-.20703-.08984-.19531-.125-.1836-.15234-.17187-.1797-.30079-.42968-.24609-.5-.17969-.55469-.10937-.58593-.03906-.59375h.83203l.03125.5664.08203.5039.125.44142.16015.375.19141.30078.21094.22265.22265.13672.22657.04688.22656-.04688.22266-.13672.21093-.22265.19141-.30079.16016-.375.1289-.4414.08203-.5039.02735-.56641-.02735-.5586-.08203-.5-.1289-.4375-.16016-.36328-.1914-.29297-.21094-.21484-.22266-.13281-.22656-.04297-.22656.04297-.22266.1328-.21094.21485-.1914.29297-.16016.36328-.125.4375-.08203.5-.03125.5586h-.83203l.03906-.58985.10937-.57812.1797-.54688.24608-.49219.30079-.42187.17187-.17578.1836-.14844.1953-.1211.20704-.08984.21875-.05468.23047-.01954m5.09375 0h.50781v6.29688h-.78906v-4.49219h-1.38672v-.55469l.5586-.0664.2539-.05078.23047-.08985.20312-.14453.17188-.20703.14062-.29687.10938-.39454m6.80078 1.6211h-.78516l-.05078-.21485-.08203-.18359-.10938-.16015-.1289-.13282-.14453-.10156-.16016-.07422-.16797-.04297-.17578-.01562-.32812.03906-.28516.1211-.2461.1953-.20312.26954-.16015.33594-.1172.40625-.0703.46484-.02344.52734.1875-.20312.1875-.16016.1836-.1211.1875-.08984.1875-.05859.1914-.03906.40234-.02344.3086.03125.3203.09375.31641.15625.29297.21875.2539.28516.19923.34765.07422.20313.05078.21484.03125.23438.0039.2539-.78515.04688-.02735-.26172-.07812-.25-.125-.23438-.16016-.21093-.1914-.17579-.21875-.13671-.2422-.08985-.2539-.03125-.25781.03125-.23828.08985-.21875.13671-.19531.17579-.16016.21093-.1211.23438-.07812.25-.02734.26172.02734.25781.07813.25.12109.23438.16016.21093.1953.17578.21876.13672.23828.08985.25781.03125.2539-.03125.2422-.08985.21875-.13672.1914-.17578.16016-.21094.125-.23437.07812-.25.02735-.25781.78515-.04688-.03125.3711-.09375.37109-.15625.35938-.22265.32812-.28906.28125-.17188.11719-.1875.10547-.20703.08203-.22266.0625-.24219.03515-.2578.01563-.28516-.01563-.25782-.04687-.23828-.07813-.21484-.10546-.19531-.12891-.17579-.15625-.15234-.1836-.13672-.19921-.11719-.22266-.09765-.24219-.14844-.53515-.08203-.59375-.02734-.64063.03906-.74219.11328-.66406.1875-.57812.11719-.25391.13672-.23047.15625-.20703.16796-.1836.1875-.15624.20313-.12891.21484-.10156.23438-.07422.2461-.04297.26171-.01563.36719.03516.33203.09375.29688.15235.2539.19921.21485.2422.16406.27343.11328.30078.0625.32422"/></g></defs><use xlink:href="#at"/></svg>