<svg xmlns="http://www.w3.org/2000/svg" role="img" xmlns:xlink="http://www.w3.org/1999/xlink" viewBox="142.45 309.95 326.84 171.84"><defs><clipPath id="a"><path d="M144 458h1v22.32813h-1zm0 0"/></clipPath><clipPath id="b"><path d="M144 311.67188h1V458h-1zm0 0"/></clipPath><clipPath id="c"><path d="M144 311.67188h324v168.65625H144zm0 0"/></clipPath><clipPath id="d"><path d="M156 479h7v1.32813h-7zm0 0"/></clipPath><clipPath id="e"><path d="M396 480h2v.32813h-2zm0 0"/></clipPath><clipPath id="f"><path d="M467 311.67188h1v168.65625h-1zm0 0"/></clipPath><clipPath id="g"><path d="M144 480h4v.32813h-4zm0 0"/></clipPath><clipPath id="h"><path d="M147 480h2v.32813h-2zm0 0"/></clipPath><clipPath id="i"><path d="M146 480h2v.32813h-2zm0 0"/></clipPath><clipPath id="j"><path d="M153 480h9v.32813h-9zm0 0"/></clipPath><clipPath id="k"><path d="M160 480h3v.32813h-3zm0 0"/></clipPath><clipPath id="l"><path d="M159 480h2v.32813h-2zm0 0"/></clipPath><clipPath id="m"><path d="M166 479h9v1.32813h-9zm0 0"/></clipPath><clipPath id="n"><path d="M173 479h3v1.32813h-3zm0 0"/></clipPath><clipPath id="o"><path d="M172 480h2v.32813h-2zm0 0"/></clipPath><clipPath id="p"><path d="M180 479h8v1.32813h-8zm0 0"/></clipPath><clipPath id="q"><path d="M187 479h3v1.32813h-3zm0 0"/></clipPath><clipPath id="r"><path d="M186 479h2v1.32813h-2zm0 0"/></clipPath><clipPath id="s"><path d="M193 479h8v1.32813h-8zm0 0"/></clipPath><clipPath id="t"><path d="M200 479h3v1.32813h-3zm0 0"/></clipPath><clipPath id="u"><path d="M199 479h2v1.32813h-2zm0 0"/></clipPath><clipPath id="v"><path d="M206 479h9v1.32813h-9zm0 0"/></clipPath><clipPath id="w"><path d="M213 479h3v1.32813h-3zm0 0"/></clipPath><clipPath id="x"><path d="M212 479h3v1.32813h-3zm0 0"/></clipPath><clipPath id="y"><path d="M220 479h8v1.32813h-8zm0 0"/></clipPath><clipPath id="z"><path d="M227 479h3v1.32813h-3zm0 0"/></clipPath><clipPath id="A"><path d="M226 479h2v1.32813h-2zm0 0"/></clipPath><clipPath id="B"><path d="M233 479h8v1.32813h-8zm0 0"/></clipPath><clipPath id="C"><path d="M240 479h3v1.32813h-3zm0 0"/></clipPath><clipPath id="D"><path d="M239 479h2v1.32813h-2zm0 0"/></clipPath><clipPath id="E"><path d="M246 479h9v1.32813h-9zm0 0"/></clipPath><clipPath id="F"><path d="M253 479h3v1.32813h-3zm0 0"/></clipPath><clipPath id="G"><path d="M260 479h8v1.32813h-8zm0 0"/></clipPath><clipPath id="H"><path d="M267 479h3v1.32813h-3zm0 0"/></clipPath><clipPath id="I"><path d="M273 478h8v2.32813h-8zm0 0"/></clipPath><clipPath id="J"><path d="M280 478h3v2.32813h-3zm0 0"/></clipPath><clipPath id="K"><path d="M286 479h9v1.32813h-9zm0 0"/></clipPath><clipPath id="L"><path d="M293 479h3v1.32813h-3zm0 0"/></clipPath><clipPath id="M"><path d="M300 479h8v1.32813h-8zm0 0"/></clipPath><clipPath id="N"><path d="M306 479h4v1.32813h-4zm0 0"/></clipPath><clipPath id="O"><path d="M313 478h8v2.32813h-8zm0 0"/></clipPath><clipPath id="P"><path d="M327 478h7v2.32813h-7zm0 0"/></clipPath><clipPath id="Q"><path d="M332 478h2v2.32813h-2zm0 0"/></clipPath><clipPath id="R"><path d="M340 479h8v1.32813h-8zm0 0"/></clipPath><clipPath id="S"><path d="M345 479h3v1.32813h-3zm0 0"/></clipPath><clipPath id="T"><path d="M353 479h8v1.32813h-8zm0 0"/></clipPath><clipPath id="U"><path d="M369 476h3v4.32813h-3zm0 0"/></clipPath><clipPath id="V"><path d="M381 476h5v4.32813h-5zm0 0"/></clipPath><clipPath id="W"><path d="M394 477h6v3.32813h-6zm0 0"/></clipPath><clipPath id="X"><path d="M407 477h6v3.32813h-6zm0 0"/></clipPath><clipPath id="Y"><path d="M422 476h3v4.32813h-3zm0 0"/></clipPath><clipPath id="Z"><path d="M435 476h3v4.32813h-3zm0 0"/></clipPath><clipPath id="aa"><path d="M449 476h2v4.32813h-2zm0 0"/></clipPath><clipPath id="ab"><path d="M462 476h3v4.32813h-3zm0 0"/></clipPath><clipPath id="ac"><path d="M144 466h4v2h-4zm0 0"/></clipPath><clipPath id="ad"><path d="M144 453h4v2h-4zm0 0"/></clipPath><clipPath id="ae"><path d="M144 439h4v3h-4zm0 0"/></clipPath><clipPath id="af"><path d="M144 426h4v2h-4zm0 0"/></clipPath><clipPath id="ag"><path d="M144 411h4v5h-4zm0 0"/></clipPath><clipPath id="ah"><path d="M144 397h3v6h-3zm0 0"/></clipPath><clipPath id="ai"><path d="M465 397h3v2h-3zm0 0"/></clipPath><clipPath id="aj"><path d="M144 384h4v6h-4zm0 0"/></clipPath><clipPath id="ak"><path d="M465 383h3v2h-3zm0 0"/></clipPath><clipPath id="al"><path d="M144 371h4v6h-4zm0 0"/></clipPath><clipPath id="am"><path d="M465 370h3v2h-3zm0 0"/></clipPath><clipPath id="an"><path d="M144 357h3v7h-3zm0 0"/></clipPath><clipPath id="ao"><path d="M465 357h3v1h-3zm0 0"/></clipPath><clipPath id="ap"><path d="M144 343h1v8h-1zm0 0"/></clipPath><clipPath id="aq"><path d="M466 345h2v3h-2zm0 0"/></clipPath><clipPath id="ar"><path d="M144 332h4v4h-4zm0 0"/></clipPath><clipPath id="as"><path d="M466 332h2v3h-2zm0 0"/></clipPath><clipPath id="at"><path d="M465 332h3v3h-3zm0 0"/></clipPath><clipPath id="au"><path d="M144 319h4v3h-4zm0 0"/></clipPath><clipPath id="av"><path d="M465 317h3v2h-3zm0 0"/></clipPath><g id="aw" clip-path="url(#clip1)"><path fill="#fff" fill-opacity="0" fill-rule="evenodd" d="M0 0h1000v1000H0zm0 0"/><path fill="#d3d3d3" fill-opacity="0" fill-rule="evenodd" d="M162.15234 355.86719l-.23437.29297.0586.23437.11718.17188.17578.23437.29297.34766.11328.0586.11719-.17188.0586-.23438.17577-.17578.46485-.17578h.69922l.23437.29297.28906.8164.0586.17579.17578.23046.35156.23438.69922.69922.17188.17578.23437.34765.23438.41016.28906.58203.41015.46485.23047.23437.23438.17578.11719.23047.17578.29297.17187 1.16406v.23438l.0586.28906.05859.11719.11719.11719.34765.41015.11719.17188.17578.17578.17578.23437.11719.17188.17188.35156.05859.23438.23437.40625.23438-.0586-.17578.17578-.0586.92969h-.58203l-.23437-.11328-.34766.11328-.11719.11719-.05859.29297-.0586.17578-.11718.17187-.46484.29297-.0586.23438-.0586.11328v.64453l.0586.17187v.41016l.0586.0586v.40624l.05859.40625.11719.17579.05859.05859.23047.64062-.0586.29297v.69922l-.05859.58203v.23438l-.0586.23047-.05468.35156v1.92187l.05469.1172h.42578l-.36719.11718-.02344.35156.89063 1.16797 1.74219.53906 1.33984.35938v.53906l.08984.8086.53516.71484 1.51953.26953.89063-.08594.08984 1.16406.53516.1797 1.16015-.1797 2.05469-.98437 1.16016-.36328 1.8789-.17578 1.69531-.1797-.17968.71876-1.51563.08594-1.25.08984-.80469.26953-1.07421.8086.26953.71875.53515.89843-.17968.625-.26563.8086.26563 1.07812.625.89844.80468.17969 1.25-.1797-.26562.72267.09766.5039.05468.29297v.17188l.0586.29296v.40625l.17578.1172.35156.11718h.40625l.29297-.17578.11328-.11719.0586-.11719.11718-.23047.0586-.17578.35156-.46484.23047-.17578.17578-.0586.17578.0586.0586.17578.11718.98828.05469.46875.0586.17188.11718.23437.17578.0586.8164.05859h.28907l.11719.23437.05859.40625.0586.35156v1.10547l.11718.29297.11719.34766.28906.69922.17578.35156.58203.7539.35157.17579.17187.0586.46875.23437.64063.46484.34765.23438.29297.17578.29297.05468.23047.0625.8164.34766.29297.17578.11328.17188.35157.35156.11719.17578.52343.64063v.28906l.0586.35156v.34766l.05859.35156.0586.28906.11718.0586.17188.05859h.17578l.58203.23437.17578.1172.17578.28905.17578.23438.11328.23437.29297.23047.11719.11719v.41016l.0586.05468.28906.23438.23437.11719.0586.11718.11718.17188.0586.11719.23047.23437.05859.17578.23437.0586.1172.05859-.1172.11328-.05859.11719v.11719l-.11719.29296-.11719.28907v.58203l.17579.11719.11718.05859.0586.11719.11719.11719.11328.05859.17578.34765.0586.35157.05858.40625v.17578l-.05859.17578-.11719.69922v.17187l.1172.17579.29296.29296h.40625l.17578.1172.11719.17187.11719.29296v.23438h-.52735l-.23047-.23438h-.23437l-.17578.0586-.0586.69922.0586.34765.11719.17579.17578.41015.11718.23047.28907.46875.17578.05469h.52344l.23437.0586.75781.64062.0586.29296v.23438l.05859.0586.23047.34765v.35156l-.11719.17188v.29297l.29297.28906.29297.17578.17187.0586.29297.17577.29297.1172.58203.40624.28906.23438.29297.17578.21875.16015.01563.01172.23047.17579.64062.52343.17578.23438.1172.17578.17577.17578.11328.17188v.64062l.1172.17578.46874.11719.58203.11719.23438.05859.23047.11328.29297.11719.11328.0586.58593.35156.28907.17187.17578.0625.17578.05469.17578.0586.69922.35155.28906.17579.23438.05468.28906.17578.23437.1172.64063.40624.29297.11719.17187.0586.23438.05859.41015.05859.23047.0586.23438.11718.0586.17188-.41017.17578.46875.0586.0586.29296.11328.23438.17578.05468.23438.0586.17578.05859.40625.11719.64062.23437.11719.17188.0586.23437v.17578l-.0586.1172-.0586.40624.23438.23438.11719.05859.34766.11719.64062.23047.17578.11718.28906.1172.17578.17577.23438.46485.58203 1.10546.17578.17579.34766.17578.17578.11719.35156.11718 1.04688.52344.23437.0586.46485.11327.29297.0586.46484.17578.75781.58203.23438.23438.34765.46484.17578.17578.28907.23438.8164.69921.29297.17579.28906.28906.29297.17578.29297.28906.69531.64063.17578.17578.29297.23437.28907.23438.46875.28906.64062.58203.34766.23438.23437.29297.34766.34765.35156.46485.9336.99218.34765.40625.11719.17579.23437.05859.11328.11719.64454.17578.23047.11328.23437.0586.29297.17577.23047.1172.9336.69921.40624.40625.23438.17578.40625.17578.23437.11719.8164.34766.34766.23437.23438.11719.29297.28906.23047.11719.7578.35156.35157.17188.23047.05859.29297.11719.23437.0586.8711.17577h.8164l.46875.23047.17188.0586.875.69921.46484.1172.29297.05858.17578.0586.23047.0586.46875.05859.34766.05859.35156.0586.40625.05859h.29297l.17187.0586v.23046l.17578.17578h.29297l.34766.0586.35156.05859.69922.11719h.64063l.46484-.23438.29297-.17578.17187-.11719.41016-.17187.28906-.17578.9336-.46485.46875-.29297.52343-.29296.46485-.17188.46484-.17578 1.05078-.46485.28906-.11718.41016-.11719.28906-.11719.52735-.17578 1.51562-.69922.58203-.34765.28907-.0586.29297-.0586.34765-.11718.875-.23047.35156-.11719h.11329l.23437-.05859.875-.23437.23438-.0586h.8125l.35156-.0586.8164-.11718.17188-.0586.35156-.05468.29297-.0586.23047-.05859.8164-.17578.17579-.0586h.34765l.23438-.05859.46484-.11718.75781-.17188.23438-.0586h.34765l.41016-.11718.28906-.0586 1.28516-.05859h.28906l.41016-.0586.23047-.05858h.17578l.875-.1172h.40625l.41015-.11718h.34766l.35156-.11328.8711-.0586h1.75l1.04687.28907.41016.11719.28906.11718.35156.11719.28907.11719 1.05078.17187.28906.0586h.29297l.29297.05859.17187.0586.41016.05859.17187.0586.1172.05858h.11718l.11719.0586.35156.0586h.11328l.41016.0664 1.92187.39453 1.92578.39453 1.51953.44922 1.69532.71875 2.14453.80469 1.60547-.71875 1.42968-.80469 1.16016-1.07813 1.25-.44921 3.03516-.71875 1.875-.35938 2.14453-1.34765 2.23437-1.25391 2.5-1.25781 1.69531-.44922 1.78516-.17969 1.16016-.26953.625.53906 1.33984-.26953.71485-.98828.98437-1.34375.44531-.17969.80469-.35937 1.875-.53907 1.78516-.44921 1.25-.26954 1.16015-.08984 1.69922-.08984 1.96094-.26954 1.25-.08984h.53906l.625-.08984h.89063l2.14453-.17969 2.41015-.17969 2.58985-.08984 1.69531.17969 1.60938.08984 1.42968.35938 1.16016.71875 1.875.98828 1.16015 1.52734.26563.71484.6289.08985.35548.89844.53515.53906.53516 1.52734 1.07422.35938h.53515l-.80469.53515.08985 1.70703.71484 2.69532.89063.80468.89453.98829.71484 1.2578 1.78516.53907 1.51953-.17969.35547 1.34375 1.60937-.80469.98047-.53906.26953.26953.31641-.21484.21875-.14453.80078.44922.44922-.35938h.35547l.53515-.26953.53907-.71875.53515-.26953.625-.98828 1.16016.44922.83984.3711 1.39454.61718 1.6953-.17969h1.60548l1.78515.08985.17969-1.70704.53516-1.34375.80468.26954.4922.84765.40233.40625-.08984.53906v.35938l.71485.44922.71093-.26953h1.42969l.35938.98828.4453 1.25781.71485 1.34375 1.25.6289 1.69531.62891.71485-.17969.17969-.53906.98046-.08984.44922.35937.08594 1.25782-.26563.6289-.53515.17969v.53906l.71484.98438.26563.53906.98437.98828.80078 1.07813-.26562.35937-.08985.89844-.625 2.33203-.35546 2.0664-.08985 1.79298-.17969.71875-.08984.53906v1.4375l-.98047 1.88281-.35937 1.70703-.53516.89844-.80469 1.16797-.26562.53906 2.05469 1.2539.08593.35938-.35546.53906-.08985-.17968v.80859l.08985 1.4375-.44532.71484-1.07422.09375-.26562.71485.53515.89844.8047.71875 1.16015.80859 1.33984.26953.44531.35938-.35546.44921-1.78907-.08984-1.25-.44922-.71484-.71875-.625-.08984-.17578 3.58984-.1875 1.3086h89.35937V311.70313h-55.26953v49.08203l.76172.125 3.28906.54296 2.02344 2.83594v2.7539l2.35156.33204 2.34766.33203h4.05078l-1.3789 4.16016-2.02344.70703-2.02344.70312-.54297.34375-2.59375 1.6172-.1875.11718-2.02344-2.07813-.73046-2.74218-2.67188-2.07813-1.375-3.5-.0664-.08203-1.95704-2.67188 2.75-1.41796v-49.08204H294.42187v91.41407l.1172.03125.1328.01172.07422.07421.10547.04688.08985.0586.08593.05859.08985.0586.29687.29687.0586.08984.03125.11719.02734.11719.01563.13671-.03125.1172-.0586.08983-.0586.08594-.04296.10547-.04688.10156-.02734.1211v.14453l.17578.26953.14844.14844.07422.08594.07422.07421.04296.10547.0625.08985.0586.08593.04297.10547.0586.08985.04687.10156.04296.10547.0586.08594.11719.17968.07421.07422.0625.08594.0586.08984.04297.10547.0586.08985.05858.08593.0625.08985.0586.08984.04297.10156.11719.17969.07421.07422.0586.08594.07422.07421.08984.0586.10547.04687h.14844l.1328-.01562.13282.01562.10156-.04687.07422-.07422.04688-.10156-.01563-.13281v-.14844l-.04687-.10547-.02735-.11719-.04687-.10156-.02735-.1211-.04296-.10156-.0625-.08984-.04297-.10156-.04297-.10547-.03125-.11719-.01563-.13281-.01171-.13672.08593-.0586.0586-.08593.12109-.03125.04297.10547.01562.1328v.1172l.0586.10156.0586.08984.08983.0586.14844.14843.0586.08985.04296.10547-.01171.10156.08593.0586.10547.04687.08594.0586.08984.05858.07422.07422-.11719.02735-.10546.04687-.08594.0586-.07422.07421-.0586.08985-.0625.08594-.02734.12109-.04687.10156-.04297.10547-.03125.11719-.01172.13281-.01563.13281v.14844l.02735.11719.04687.10547.04297.10156.0586.08984.07421.07422.08985.0586.07422.07421.08984.0586.0586.08984.04296.10547.04688.10156.11719.03125.1328.01563h.14845l.11718-.03125.10547.04297.04297.10547.04688.10156.02734.1211L299.5 410l.02734.11719.03125.1211.02735.11718.10547.04297.10156.04687.13281-.01562.14844.14844.0625.08593.07422.07422.07031.07422.08984.0625.10547.04297.10156.04297.1172.03125.13671.01562.11719-.03125.07422-.07422.02734-.11718-.01172-.13282-.03125-.12109-.02734-.11719.04297-.10547h.11719l.08984.0625.11719.02735h.14843l.13282.01562h.14843l.13282.01563.1328-.01563h.14845l.1328-.01562.13282-.01172.13672.01172.11719-.02735.13281-.01562.1914-.0586-.05859.17579-.01562.1328-.02735.1211-.01562.13281-.0586.08594-.1328.01563-.10548.04687-.10546.04297-.1172.03125-.11718.02735-.26563.03125h-.14843l-.13281.01562-.07422.07422.05859.08594.14844.14843.11719.1797.07421.0703.08985.0625.08984.0586.08594.0586.08984.05858.10156.04297.10547.0625.10547.04297.08594.0586.10547.04687.10156.04297.17969.11719.0586.08984-.04298.10156-.04687.10547.01562.13281.22266.22266.0586.08985.04296.10156.03125.1211.04297.10155.01563.13282.03125.11718.01171.13672.03125.11719.14844.14844.10156.04297.10547.04296.1172.03125.1328.01563.13672.01563h.11719l.11719-.03125.08984-.0586.04297-.10547.04688-.10156.04296-.10547.03125-.11719.01172-.1328v-.14845l-.01172-.1328-.01562-.13282-.03125-.11719-.04297-.10547-.04688-.10547-.04296-.10156-.04297-.10547-.01563-.13281.01563-.13281.02734-.11719.03125-.11719.02735-.1211.04687-.10155.08984-.0586.08594-.0625.07422-.07422.08984-.05859.22266-.22266.0586-.08593.07421-.07422.11719-.17969.0586-.08594v-.14844l-.07423-.07421-.10156-.04688-.10547-.04297-.10156-.04297-.0586-.08984-.04687-.10547-.02734-.11719.08984-.05859.11719-.03125.10156-.04297.17969-.11719.14844-.14843.01172-.13282-.01172-.10546-.08985-.0586-.1328.01563h-.14845l-.1328.01562-.13282-.01562-.1211-.03125-.08593-.0586-.07422-.07422-.0586-.08984-.0625-.08594-.11718-.17969-.0586-.08593.03125-.1211.08594-.05859.1211-.03125.05859-.08594v-.1211l-.03125-.11718-.0586-.08984-.05859-.08594-.04687-.10547-.02735-.11719-.01562-.1328.0586-.08985.07421-.07422.08984-.0586.1172-.17968.07421-.07422.0586-.08594.14843-.14844.1211-.03125.1328-.01562.13282.01562.07422.07422.04297.10547.01562.13281-.03125.1172-.11719.03124-.1328.01172-.14844.14844-.04297.10547-.04688.10156-.02734.1211-.03125.11718v.14844l.03125.11719.04297.10546.05859.08985.07422.07031.07422.07422.11719.03125.12109.02734.11719-.02734.1328-.01563h.1172l.08984.0586.07422.07422.04687.10546.0586.08594.10156.04688.13281.01562.10547.04297.08594.0586-.01172.10546-.07422.07422-.17969.11719-.05859.08984-.08984.0586-.07032.07422-.07421.07421-.0625.08985-.02735.11719-.01562.1328.01562.13282-.01562.13281v.14844l.01562.13281.02735.1172.03125.12108.07421.07422.08985.0586.08594.0586.08984.05858.11719.03125v.08594l-.10157.04688-.08984.0586-.26563.03124-.11718.02735h-.14844l-.10547.04296-.10156.04688-.0586.08984-.0625.23438-.01171.13281-.03125.1211-.01563.1328v.29298l-.01172.1328.01172.13673.01563.1328.1328.01563.13282.01172.1211.03125.08593.0586.07422.07421.04688.10547.04296.10157.01563.1328v.44532l-.01563.13281v.44532l.03125.26562.02735.11719.01562.13281.03125.11719.08594.21094.03125.26562v.14844l-.03125.11719-.02734.11718-.03125.1211-.02735.11719-.03125.11718-.03125.1211-.01171.1328-.01563.13282.08984.0586.1172-.03125.10155.01562.04688.10547-.03125.26562v.44141l-.04297.10547-.04688.10547-.04296.10156-.04297.10547-.0586.08594-.03125.12109-.04296.11719-.03125.11719-.01563.1328.01563.13282.05859.08984.10547.04688.08594.0586.05859.08593-.01172.13672-.03125.11719-.04297.10156v.44531l-.01562.13281v.14844l-.03125.11719-.04297.10547-.02735.11719-.04687.10546-.04297.10157-.03125.12109-.02734.11719-.03125.13281-.03125.11719-.02735.11719-.04297.10546-.03125.1172-.03125.12108-.01171.13282-.01563.13281v.29688l.02734.11718v.14844l.04688.39844.02734.11719.0586.08984.12109.03125h.14844l.13281-.01563.0586.08985v.11719l-.0586.08984-.08984.0586-.10157.04296-.10546.04688-.08985.05859-.08594.0586-.13671.01562-.1172-.03125-.1328-.01563-.10157.04688-.0625.08594-.01172.13671-.01562.13282-.03125.11719-.02735.11718-.01562.13281-.03125.1211v.29687l.01563.13282.03125.11718v.14844l.01171.13281v.14844l-.02734.11719-.04688.10156-.02734.1211-.03125.11718-.0586.08985-.07421.07421-.10156.04297-.10547.04688-.11719.02734-.1211.03125-.10156-.04687.0586-.08594.10547-.04688.02734-.11718.03125-.11719.02734-.1211.03125-.11718v-.14844l.01563-.13281-.03125-.11719-.04297-.10547-.10547.01563-.07422.07422-.10156.04296-.08984.0625-.07422.07422-.04297.10157-.01563.1328-.03125.1172L304.25 426l-.03125.11719-.02734.11719-.03125.12109-.02735.11719-.03125.11718-.04297.10547-.08984.0586h-.08984l-.1172-.03125-.03124-.08594.01562-.13672-.03125-.11719v-.14844l-.01171-.1328v-.14844l-.0625-.23438-.02735-.1211-.04297-.10156-.04687-.10546-.0586-.08594-.05859-.08985-.04297-.10546-.0625-.08594-.14844-.14844-.0703-.07422-.10548-.04687-.10547-.04297-.10156-.04297-.29687-.29688-.08985-.07421-.08594-.0586-.10546-.04297-.08985-.0625-.08594-.0586-.10546-.04296-.08985-.0586-.08594-.0625-.07421-.0703-.10547-.04688-.08594-.0586-.10547-.04296-.08984-.0625-.10156-.04297-.10547-.04297-.08594-.0586-.10547-.04687-.10547-.04297-.10156-.04687-.08985-.0586-.10156-.04297-.10547-.04296-.08984-.0625-.11719-.02735-.13281-.01562-.13281.01562H299.75l-.13281.01563-.11719-.03125-.08984-.0586-.07422-.07422-.08985-.05859-.10156-.04688h-.14844l-.12109-.02734-.10156-.04297-.07422-.07422-.11719-.17968-.08984-.0586-.10156-.04297-.08985-.0625-.10547-.04296-.08984-.0586-.08594-.0586-.10547-.04687-.0586-.08594-.05858-.08984-.04297-.10547-.04688-.10156-.07422-.07422-.08594-.0586-.07421-.07421-.08985-.0586-.22265-.22265-.04297-.10547-.03125-.26563.10547-.04296h.14453l.10547.04296.07421.07422.08985.0586.08594.0586.10546.04687.08985.05859.14844.14844.0703.07422.14845.14843.0625.08594.07421.07422.08594.0586.07422.07421.08985.0625.08984.0586.08594.05859.26953.17578.10156.04688.10547.04296.10156.04297.04688-.07421.05859-.08594.07422-.07422.07031-.07422.10547.04297.07422.07422.0586.08984.04296.10156.04688.10547.04296.10547.1211.02735.11719-.02735.07421-.08984.04297-.10547.0586-.08985.07422-.07421.10546-.04297.1172-.02735.1328.01172.08985.0586.14844.14843.05859.08985.04297.10547.04687.10156.04297.10547.04297.10156.10547.04688.10547.04296.13281.01563.08594-.0586.0586-.08984.07421-.07422.10547-.04297.11719.02735.10547.04687.10156.04297.10547.04297.10156.04688.17969.11718v.11719l-.01563.13281.01563.13281.01562.13672.0586.08594.10156.04688.1211.02734.11718.03125h.14844l.11719-.03125.05859-.08984.17969-.1172.05859-.08983.07422-.07422.0586-.08594.11718-.17969.17969-.11719.11719.03125.08984.0586.04297.07422-.01563.1328v.1172l.08985.05859h.14843l.13282-.01563.1328-.01171.26563-.03125.10547-.04297.11719-.03125.1211-.02735.07421-.07421.07031-.07422.0625-.08985-.01562-.10547-.04688-.10156-.10156-.04297-.10547-.01562-.11718.02734-.26563.03125h-.14844l-.07421-.07422-.08985-.0586-.11719-.03124-.11718-.02735-.13282-.01562h-.14843l-.13282.01563h-.29687l-.10547-.04688-.14844-.14844-.04297-.10156-.05859-.08984.22266-.22266.08593-.0586.10547-.04296.11719-.03125.13281-.01563.13281.01563.13672.01562.10157.04297.1328-.01172.08985-.0625.10156-.04297.0625-.08984-.04687-.10156-.08984-.0586-.1172-.03125-.10155-.04296-.0586-.08985-.0625-.08984v-.11719l.01563-.13281.10547-.04688.07421-.07031v-.1211l-.08984-.05859-.03125-.11719.08985-.05859.07421-.07422.04297-.10547.0586-.08984.04687-.10156.01563-.13281v-.14844l-.04688-.10547-.04297-.10156-.08984-.0586-.13281-.01562-.10157-.04297-.13671-.01563-.1172-.03125h-.4453l-.13282-.01562-.13281-.01172-.13281-.01563-.11719-.03125h-.14844l-.13281-.01562-.13281-.01172-.26563-.03125-.1211-.04297-.08593-.0586-.07422-.07421v-.14844l.01172-.13281.10547-.04688.10156-.04296.13281-.01563h.15235l.13281-.01562h.29297l.1211.03125.10156.04296.08984.0586.23438.0625.12109-.04688.08984-.05859.10156-.04297.13282-.01562.10547.04296.10156.04688.13281.01172.1211-.02735h.14453l.12109-.03125.11719-.02734.10547-.04687.07421-.07422.08594-.0586.14844-.14843.0586-.08594.04687-.10547.02734-.11719.01563-.10547-.10156-.04296-.08985-.0586-.11719-.03125-.10546-.04297-.08985-.0625-.07422-.08594-.07422-.07421-.10156-.04297-.10547-.04688-.10156-.04297-.0586-.08984-.04687-.10156-.08594-.21094-.0625-.08594-.05859-.08984-.07422-.07422-.08594-.0586h-.26953l-.11719.03126-.08984.05859-.10156.04297-.13281.01562-.10547-.01562-.02735-.11719-.0625-.08984-.11718-.03125-.10157-.04297-.14843-.14844-.03125-.11719-.01563-.10546.07422-.07422.17969-.1172.11719-.02733.11718-.03125.13672.01562.10156.04297.10547.04297.10156.04687.10547.04297.1172.03125.1328.01563.1172.02734.1328.01563.10547-.01563.08985-.0586-.07422-.07421-.10547-.04297-.07422-.07422-.07422-.08984-.14844-.14844-.08593-.0586-.08985-.05859-.07422-.07422-.08984-.0586-.10156-.04687-.1211-.02734-.10156-.04688-.10547-.04296-.11719-.03125-.10156-.04297-.1211-.03125h-.14843l-.11719.03125-.10546.04297-.08594.0625-.17969.11718-.08594.0586-.08984.0586-.10547.04687-.08594.05859-.10547.04297-.10156.04297-.10547.04687-.07422.07422-.05859.08985-.0586.08593-.04687.10547-.0586.08594-.07421.07422-.13281-.01172-.1172-.03125h-.11718l-.07422.07422-.08984.0586-.07422.07421-.08984.0586-.08594.05859-.10547.04687-.10156.04297-.13672.01563-.10156-.04297-.14844-.14844-.10547-.04688h-.08594l-.10547.04688-.10156.04297-.1211.03125-.11718-.03125-.07422-.07422v-.11719l.03125-.1211.07422-.0703.0586-.08985.07421-.07422.11719-.03125.10547-.04296h.29297l.13281-.01563.13672-.01563.10156-.04296.08985-.0586.10156-.04687.08984-.0586.13281-.01171.08985.05859.13281.01172.08984-.0586.08594-.05859.10547-.04297.08984-.0586.08594-.0625.08985-.05859.14843-.14843.0586-.08594.05859-.08985.10547-.04296.13281-.01563.11719.02735.1211.03125.05859-.0586.05859-.08984.03125-.26563.02734-.11719.10547.01172.13281.01563.10157-.04297.08984-.0586.0586-.08984.07421-.07422.0586-.08984.04687-.10156.01172-.13281-.01172-.13282-.04687-.10547-.14844-.14843-.0586-.08985-.05859-.08594-.04297-.10546v-.44532l.01563-.1328v-.14845l.01172-.1328-.0586-.0586-.08984.0586-.10156-.04298-.17969-.11719-.08594-.05859-.0625-.08984-.0586-.08985-.07421-.07421-.08594-.0586-.1211.03125-.10155.01172-.10547.04688-.08594.05859-.10547.04297-.14844.14844-.08984.05859-.08594.0586-.08984.0625-.10547.04296-.13281.01563v-.1211l.10547-.04297.11718-.03125.07422-.0703.04297-.10548v-.14844l-.02734-.11718-.14844-.14844-.13281-.01563h-.14844l-.11719.03125-.10547.04297-.10156.04297-.08984.0625-.11719.02735-.07422-.07422.01172-.13281-.04297-.10157-.04297-.10547-.08984-.05859-.11719.02734-.1211.03125-.11718.03125-.10156.04297-.1211.03125-.10156.04297-.10547.04297-.08984.0586-.10156.01562v-.11719l.01562-.13281-.0586-.08985-.07421.04297-.14844.14844-.0586.08985-.07421.07421-.04688.10547-.04296.10156-.07422.07422-.0586.08985-.07422.07422-.05859.08593-.07422.07422-.08984.0625-.07422.07031-.07422.07422-.10156.01563-.13281.01562-.10547-.04296v-.1211l.14843-.14844.04297-.10156.0586-.08984.04687-.10156.04297-.10547.0586-.08985.03124-.11719.04297-.10156.03125-.1211.02735-.11718.04687-.10547.04297-.10156.04297-.10547.07422-.07031.08984-.0625.08985-.0586.10156-.04296h.29687l.26563-.03125.10547-.04297-.07422-.07422-.11719-.03125-.10547-.04297-.08984-.0586-.10156-.04687-.08985-.0586-.10156-.04296-.10547-.04297-.08984-.0625-.08594-.0586-.10547-.04296-.10156-.04297-.1211-.03125-.11718-.03125-.10157-.04297L297.5 410.25l-.10156-.04297-.08985-.0586-.04296-.10546-.01563-.13281.10156-.04297.13281-.01563.13672.01563.13282-.01563.10156-.04297.0586-.08984.01562-.10547-.08985-.0586-.07421-.07421-.10157-.04297-.08984-.0586-.14844-.14843-.04297-.10547-.01562-.13281v-.29297l-.0586-.08985-.08984-.05859-.07422-.07422-.04297-.10547-.03125-.11718-.0586-.08985-.07421-.07422-.11719-.02734-.07422-.07422-.08984-.0586-.08984-.0625-.08594-.05859-.07422-.07421-.0586-.08594-.04687-.10547-.08594-.0586-.14843-.14843-.19532-.0586-.1328.01563-.10157.04297-.07422.07422-.04688.10156-.04296.10547-.0586.08984-.0586.08594-.29687.29687-.08984.0586h-.08594l-.0625-.08594-.04297-.10547.03125-.11719.0586-.08984.02734-.11719-.01172-.13281-.08984-.0625-.10547.04688-.11719.02734-.11719.03125-.26953.17578-.10156.04688-.11719.02734-.10546.04687-.08985.0586-.10156.04297-.0586-.08594-.04687-.10547.01563-.13281.04687-.10547.07031-.07422.07422-.07031.0586-.08985v-.14843l-.04297-.10547h-.23829l-.10156.04687-.03125.11719-.02734.11719-.03125.1211-.07422.04296-.13281.01563-.07422-.04688-.04297-.10156-.04297-.10547-.04687-.10156-.04297-.10547-.1211.03125-.10156.04297-.13281.01562-.11719.03125-.10547.04297-.08984.0586-.10156.04687-.1211.02734-.13281.01563-.10156-.04297-.0586-.08985-.04687-.10546-.04297-.10157-.04297-.10546v-.1172l.0586-.08984.08593-.05859.17969-.11719.10156-.04687.10547-.04297.10547-.0586.10156-.04296.08985-.0625.10156-.04297.10547-.0586.10156-.04687.08984-.0586.10547-.04296.10156-.04297.08985-.0625.10156-.04297.13672-.01563.11719.03125.10156.04297.1211.03125.10156.04297.10546.04688.10157.04296.10547.04297.10156.04688.10547.04297.10156.04297.10547.04687.08594.0586.10546.04296.1172.03125.10546.04297.10156.04688.08985.0586.10547.04296.10156.04297.10547.04687.11719.02735.10156.04687.1211.02735h.14843l.08594-.0586.01562-.10156.0586-.08984-.02735-.1172-.07422-.07421-.11719-.17969-.07421-.07422-.08985-.07421-.17969-.1172-.08593-.05859-.10547-.04296-.10156-.04688-.26954-.17578-.05859-.08985-.07422-.07421-.0586-.08985-.04296-.10156-.03125-.11719-.01563-.13672v-.5625l-.01171-.1328-.01563-.13282-.03125-.11719-.01562-.13281-.01172-.13281-.03125-.1211-.22266-.22265-.0586-.08594-.01562-.10547.03125-.11719.13281-.01562v-91.41406H172.9922v1.45312l-.0586.23438-.35156 1.05078-.17187.52343-.1172.34766-.17577.41016-.11719.17187-.23438.29297-.23046.0586h-.35157l-.11718.05859-.23047.40625v.29297l.11719.17578.23046.23047.1172.23437.64062.75781.29297.46485.17578.23437.23047.35156.23437.34766.64063.8164.17578.46485.17187.41016.11719.69531.17578.46875.11719 1.39844.0586.46484v.875l.11718 1.04688v4.78125l-.0586.46484-.35156 1.28125-.17578.52344-.11328.41015-.35156.9297L172.93359 336l-.23437.58203-.11719.17578-.17187.34766-.17578.40625-.35157.8164-.0586.29297-.11327.29297-.11719.28906-.0586.17579-.11718.875-.0586.40625-.05859.11718-.0586.17579-.05859.17187-.23047.52734-.11718.17188v.23437l-.11719.23438-.0586.17187-.17577.58594v.28906l-.0586.17579v.29296l-.0586.11329-.05859.52734v.17187l-.05468.23438v2.6211l-.17578.8164-.1172.17578-.17577.23438-.1172.17187-.11327.23438-.58594.93359-.23047.28906-.29297.46485-.17578.23437-.28906.35156-.35156.69922-.11328.23047-.17579.41016-.17578.23046-.40625.52735-.8164.69922-.29297.17187-.28906.23438-.17579.11719-.17578.17578-.52344.40625-.52734.17578-.17187.17578-.23438.05469-.64062.17578h-.75782m12.21094 31.02344l-1.07422.44921.35938.89454 1.25-.71485.44531-.53906-.98047-.08985"/><path fill="#d3d3d3" fill-opacity="0" fill-rule="evenodd" d="M201.50781 416.59766h-.89453l.44922.6289.98047.35938.80469-.08985.4453-.98828-.17577.08985-.71485-.35547-.89453.35547m154.6211 59.0703l-.0586-.52343v-.29297l.11328-.29297.0586-.23046.46875-.46875h.11328l.11719-.11329.11718-.05859h.17579l.23437-.0586h.34766l.23437.0586.11719.0586.23047.17187.0586.17578.11718.58203v.29297l-.11719.17578-.17187.28906-.17579.17579-.52734.52343-.23047.23438-.11719.0586h-.17578l-.11718-.0586-.40625-.29297-.17579-.11719-.11718-.0586-.0586-.11327-.05468-.1172m6.64062-10.95702l-.0586-.17188v-1.10937l.0586-.17188.17578-.0586.17188-.05858h.17578l.23437-.0586.1172.0586.05858.69921-.05859.17188-.11719.17578-.11718.0586-.23438.52343-.11328.0586h-.23438l-.05859-.1172m9.61328-14.39062l-.11719-.17578v-.69922l.29297-.875.1172-.17187.17577-.35156.11328-.23047.1172-.29297.35155-.75781.1172-.23047.17187-.23438h.17578l.11719-.0586h.64062l.11719.0586.23437.23438.17188.11328.35156.29297.11719.11718.11328.17579v.11328l.11719.05859.11718.11719v.69922l-.05859.17578v.23047l-.0586.17578-.34765 1.05078-.11719.23047-.11719.23437-.11718.0586-.23047.23437-.64063.28906h-.875l-.41015-.11718-.64063-.46485"/><path fill="none" stroke="#bebebe" stroke-linecap="round" stroke-linejoin="round" stroke-miterlimit="10" stroke-width=".5" d="M467.95703 311.69531H144.02734v168.625h323.9297v-168.625"/><g clip-path="url(#a)"><path fill="#fff" fill-opacity="0" fill-rule="evenodd" d="M144 475.89063v4.4375h.0039H144v-21.7461 17.3086"/></g><g clip-path="url(#b)"><path fill="#fff" fill-opacity="0" fill-rule="evenodd" d="M144 453.69922v4.21484-146.24219h.0039H144v142.02735"/></g><path fill="#50fcfc" fill-rule="evenodd" d="M144 457.91406v.66797l.0039-.0039v-.66016l-.0039-.0039"/><g clip-path="url(#c)"><path fill="#fff" fill-opacity="0" fill-rule="evenodd" d="M144.0039 480.32813v-21.75l.27735-.44141-.27734-.21875v-146.2461h26.625v8.40235l-.44141.47265.4414.72657.48829-.72656-.48828-.47266v-8.40235h57.69922v107.00391l-4.4375.60547-4.4375.09375-2.83594 3.2539-1.60156 2.96876-4.44141-1.3086-4.4375.4414-4.4375 1.66798-1.44531.67187-2.9922 1.07422-4.4414 1.14844-4.04687 2.21484-.39063.3711-4.4375 1.2539-4.4375 1.70313-1.27344 1.10937-3.16796 1.4961-3.28125-1.4961-1.15625-.88672-1.25782.88672-3.17968 1.80078-4.4375-1.08984-2.77735 3.72656 1.20313 4.4375-1.8711 4.4414.1797 4.4375-.2422 4.4375-.92968 2.1875-1.90625 2.25 1.90625 1.56642 4.4375.89453 4.4375.24609 4.4375-.39063 4.4375-.85937 4.4414-.32031 4.4375-1.03125.14453-.10547 4.29297-.89063 4.4375-.58203 4.4414-.25 4.4375 1.34766 4.4375.13281 4.4375-.41406 4.44142-.07422 1.59765.73047 2.83984.89453 4.4375.90234 4.4375-.15625 3.19141-1.64062 1.2461-.97266 4.42578-3.46484.01562-.01172 4.4375-3.84375.71875-.58203 3.71875-3.3125.5625-1.125-.5625-1.58985-1.34766-2.85156 1.34766-.55469 3.28125-3.8828 1.125-4.4375.03125-.26563.10156.26562 4.33594 2.34766 4.4414-.96485 1.2422-1.3828 1.46093-4.4375-2.70312-2.19923-4.4414-1.35156-4.4375 2.28516-4.4375-2.10156-1.46485-1.07032-2.97266-2.6211-4.4375 1.77735-4.4414-3.26953-.48047-.32812-3.95703-3.95313v-107.0039h44.3828v117.80078l-4.4375.09765-2.46093 1.9375 2.46094 1.64844 4.4375.00781 3.98047 2.78125.46093.42969 4.4375 2.85156 3.71875-3.28125-3.71875-3.84765-4.4375 2.37109-1.24218-2.96094-3.19922-2.03515V311.67187h17.7539v122.22657l-2.41015 2.04687 2.41015 1.75781 1.79688-1.7578-1.79688-2.04688V311.67188h84.32813v134.42968l-2.85938 3.16016 2.85938 2.71094 2.47265-2.71094-2.47265-3.16016V311.67187h8.8789v148.3047l-1.4375 2.59765 1.00782 4.4414-.22656 4.4375.65625 2.25391 1.28515-2.2539 3.15235-2.57813 1.35156-1.85938-1.35156-2.02734-1.97657-2.41406-2.46094-2.59766V311.67187h84.32422v168.65625h-70.91796l-.09375-.08203-.10547.08204H162.84375l-1.08984-1.26563-4.4375.39453-.71485.8711h-12.59765"/></g><path fill="#50fcfc" fill-rule="evenodd" d="M144.28125 458.13672l-.27734.4414v-.66015l.27734.21875m13.03516 6.0039l-1.90625-1.5664 1.90625-2.25.92968-2.1875.2422-4.4375-.1797-4.4375 1.8711-4.4414-1.20313-4.4375 2.77735-3.72657 4.4375 1.08984 3.17968-1.80078 1.25782-.88672 1.15625.88672 3.28125 1.4961 3.16797-1.4961 1.27343-1.10937 4.4375-1.70313 4.4375-1.2539.39063-.3711 4.04687-2.21484 4.4414-1.14844 2.9922-1.07422 1.4453-.67187 4.4375-1.66797 4.4375-.4414 4.44142 1.30859 1.60156-2.96875 2.83594-3.25391v7.5039l-.60938.19141.60938.08594.47265-.08594-.47266-.1914V419.375l4.4375-.09375V422.25l-1.24218.3789 1.24219.64844 1.90234 3.79297-1.90234 2.57422-4.4375.51172-4.4375-.27344-3.97266-2.8125-.46875-.2461-1.19922.2461-3.23828 1.27344-4.4375 1.95313-2.58594 1.21093-1.85156 1.57813-3.11719 2.85937-1.32422 1.46094-2.51562 2.97656-1.92188 1.97656-1.77344 2.46094-2.66406 2.21875-2.73437 2.22266-1.70313 2.98437-.9414 1.45313-3.5 4.01953-.5547.41797.5547.35937 4.4414 1.2461 4.4375-.0586 4.4375-.24609 4.4375-1.17188.26953-.1289 4.17188-2.60938 4.4375 1.19532 4.4375-.11329 4.4375-.70312 4.4414-1.61328 2.15235-.59375 2.28516-2.10156 1.63671-2.33594 2.80078-4.33985.06641-.10156.32422-4.4375-.39063-1.27344-.64453-3.16406.64453-1.21484 2.9961-3.22266 1.4414-.92187 1.69532.92187.40625 4.4375 2.33594 2.3086 3.4375-2.3086 1.0039-1.94922 2.89063 1.94922 1.54687 2.3711 2.96484 2.0664 1.47266.22656.1914-.22656 1.36329-4.4375-1.14453-4.4375-.41016-.25781-4.4375-3.45703-4.4375 2.51172-3.4961-3.23438-.9453-.8164-4.4375-2.94532-2.59375-.67968-1.84375-.37891v-2.96875l4.4375-.60547 3.95703 3.95313.48047.32812 4.4414 3.26953 4.4375-1.77734 2.97266 2.6211 1.46484 1.0703 4.4375 2.10157 4.4375-2.28516 4.4414 1.35156 2.70313 2.19922-1.46094 4.4375-1.24218 1.38281-4.4414.96485-4.33595-2.34766-.10156-.26562-.03125.26562-1.125 4.4375-3.28125 3.88281-1.34766.5547 1.34766 2.85156.5625 1.58984-.5625 1.125-3.71875 3.3125-.71875.58203-4.4375 3.84375-.01562.01172-4.42578 3.46484-1.2461.97266-3.1914 1.64062-4.4375.15625-4.4375-.90234-2.83985-.89453-1.59766-.73047-4.4414.07422-4.4375.41406-4.4375-.13281-4.4375-1.34766-4.4414.25-4.4375.58203-4.29298.89063-.14453.10547-4.4375 1.03125-4.4414.32031-4.4375.85938-4.4375.39062-4.4375-.2461-4.4375-.89452"/><g clip-path="url(#d)"><path fill="#50fcfc" fill-rule="evenodd" d="M156.60156 480.32813l.71485-.8711 4.4375-.39453 1.08984 1.26563h-6.24219"/></g><path fill="#50fcfc" fill-rule="evenodd" d="M170.6289 321.27344l-.4414-.72656.4414-.47266.48829.47265-.48828.72657"/><path fill="#00e8fc" fill-rule="evenodd" d="M175.0664 458.4961l-.55468-.35938.55469-.41797 3.5-4.01953.9414-1.45313 1.70313-2.98437 2.73437-2.22266 2.66406-2.21875 1.77344-2.46094 1.92188-1.97656 2.51562-2.97656 1.32422-1.46094 3.11719-2.85937 1.85156-1.57813 2.58594-1.21094 4.4375-1.95312 3.23828-1.27344 1.19922-.2461.46875.2461 3.97266 2.8125v4.15625l-4.44141 1.04688-1.53516.85937-2.90234 2.0625-4.4375 1.33203-1.42188 1.04297-3.01562 2.20313-2.27734 2.23437-2.15235 4.4414 4.42969 1.6875 4.4375-1.54296.20703-.14453 4.23047-2.94531 4.4375-.94532 4.4414.28516 1.34766-.83594.57422-4.4375 1.01953-4.4375-2.9414-1.90625v-4.15625l4.4375.27344 4.4375-.51172 1.90234-2.57422-1.90234-3.79297-1.2422-.64843 1.2422-.37891 1.84375.3789 2.59375.6797 4.4375 2.9453.9453.81641 3.4961 3.23438 4.4375-2.51172 4.4375 3.45703.41016.25781 1.14453 4.4375-1.36328 4.4375-.1914.22656-1.47267-.22656-2.96484-2.0664-1.54687-2.3711-2.89063-1.94922-1.0039 1.94922-3.4375 2.3086-2.33594-2.3086-.40625-4.4375-1.69531-.92187-1.44141.92187-2.9961 3.22266-.64453 1.21484.64453 3.16406.39063 1.27344-.32422 4.4375-.0664.10156-2.80079 4.33985-1.63672 2.33594-2.28515 2.10156-2.15234.59375-4.44141 1.61328-4.4375.70313-4.4375.11328-4.4375-1.19532-4.17188 2.60938-.26953.1289-4.4375 1.17188-4.4375.2461-4.4375.05859-4.4414-1.2461"/><path fill="#00d4fc" fill-rule="evenodd" d="M197.26172 450.94922l-4.42969-1.6875 2.15234-4.4414 2.27735-2.23438 3.01562-2.20313 1.42188-1.04297 4.4375-1.33203 2.90234-2.0625 1.53516-.85937 4.4414-1.04688 2.94141 1.90625-1.01953 4.4375-.57422 4.4375-1.34766.83594-4.4414-.28516-4.4375.94532-4.23047 2.9453-.20703.14454-4.4375 1.54297"/><path fill="#fff" fill-opacity="0" fill-rule="evenodd" d="M219.45313 426.8789l-.60938.19141.60938.08594.47265-.08594-.47266-.1914"/><path fill="#50fcfc" fill-rule="evenodd" d="M268.27344 433.15625l-2.46094-1.64844 2.46094-1.9375 4.4375-.09765 3.19922 2.03515 1.24218 2.96094 4.4375-2.3711v2.04298l-2.16406 1.80468 2.16406 1.53906 1.7461-1.53906-1.7461-1.80469v-2.04296l3.71875 3.84765-3.71875 3.28125-4.4375-2.85156-.46093-.42969-3.98047-2.78125-4.4375-.00781"/><path fill="#00e8fc" fill-rule="evenodd" d="M281.58984 437.48438l-2.16406-1.53907 2.16406-1.80469 1.7461 1.8047-1.7461 1.53906"/><path fill="#50fcfc" fill-rule="evenodd" d="M290.46484 437.70313l-2.41015-1.75782 2.41015-2.04687 1.79688 2.04687-1.79688 1.75781m84.32813 14.26954l-2.85938-2.71094 2.85938-3.16016 2.47265 3.16016-2.47265 2.71094m8.44922 15.04296l-1.00781-4.4414 1.4375-2.59766 2.46093 2.59766 1.97656 2.41406 1.35157 2.02735-1.35156 1.85937-3.15235 2.57813-1.28515 2.2539-.65625-2.2539.22656-4.4375"/><g clip-path="url(#e)"><path fill="#50fcfc" fill-rule="evenodd" d="M396.8789 480.32813l.10548-.08204.09375.08204h-.19922"/></g><g clip-path="url(#f)"><path fill="#fff" fill-opacity="0" fill-rule="evenodd" d="M467.9961 480.32813H468V311.67188h-.0039H468v168.65625h-.0039"/></g><path fill="#fff" fill-opacity="0" fill-rule="evenodd" d="M237.40234 428.86719l5.75782.99219 1.6914-9.81641-5.75781-.99219-1.6914 9.8164"/><path fill-rule="evenodd" d="M242.23047 421.45313l.5039.08593-1.0703 6.20313-.77345-.13281.76172-4.42579-1.37109-.23437.09375-.54688.5625.03125.25781-.01171.24219-.05079.22656-.10546.20703-.17579.1875-.26562.17188-.3711"/><path fill="#fff" fill-opacity="0" fill-rule="evenodd" d="M183 468.60156l5.34375-2.35937-4.01953-9.11328-5.34375 2.35937L183 468.60156"/><path fill-rule="evenodd" d="M182.92188 459.7539l.46484-.20702 2.53906 5.7578-.71875.32032-1.8125-4.10938-1.26953.5625-.22266-.51171.48438-.28516.21094-.14844.17187-.17578.1289-.21094.07423-.26171.01172-.32813-.0625-.40234"/><g clip-path="url(#g)"><path fill="none" stroke="#000" stroke-linecap="round" stroke-linejoin="round" stroke-miterlimit="10" stroke-width=".5" d="M147.51172 480.35156l-7.02344-.04297"/></g><g clip-path="url(#h)"><path fill="none" stroke="#000" stroke-linecap="round" stroke-linejoin="round" stroke-miterlimit="10" stroke-width=".5" d="M147.51172 480.35156l1.14062 2.17188"/></g><g clip-path="url(#i)"><path fill="none" stroke="#000" stroke-linecap="round" stroke-linejoin="round" stroke-miterlimit="10" stroke-width=".5" d="M146.49219 480.34375l.5664 1.08594"/></g><g clip-path="url(#j)"><path fill="none" stroke="#000" stroke-linecap="round" stroke-linejoin="round" stroke-miterlimit="10" stroke-width=".5" d="M160.82813 480.36328l-7.02735-.07031"/></g><g clip-path="url(#k)"><path fill="none" stroke="#000" stroke-linecap="round" stroke-linejoin="round" stroke-miterlimit="10" stroke-width=".5" d="M160.82813 480.36328l1.1328 2.17578"/></g><g clip-path="url(#l)"><path fill="none" stroke="#000" stroke-linecap="round" stroke-linejoin="round" stroke-miterlimit="10" stroke-width=".5" d="M159.80469 480.35156l.5664 1.08985"/></g><g clip-path="url(#m)"><path fill="none" stroke="#000" stroke-linecap="round" stroke-linejoin="round" stroke-miterlimit="10" stroke-width=".5" d="M174.14063 480.23047l-7.02344.19531"/></g><g clip-path="url(#n)"><path fill="none" stroke="#000" stroke-linecap="round" stroke-linejoin="round" stroke-miterlimit="10" stroke-width=".5" d="M174.14063 480.23047l1.21484 2.13281"/></g><g clip-path="url(#o)"><path fill="none" stroke="#000" stroke-linecap="round" stroke-linejoin="round" stroke-miterlimit="10" stroke-width=".5" d="M173.1211 480.25781l.60546 1.07031"/></g><g clip-path="url(#p)"><path fill="none" stroke="#000" stroke-linecap="round" stroke-linejoin="round" stroke-miterlimit="10" stroke-width=".5" d="M187.4414 480l-6.99609.65625"/></g><g clip-path="url(#q)"><path fill="none" stroke="#000" stroke-linecap="round" stroke-linejoin="round" stroke-miterlimit="10" stroke-width=".5" d="M187.4414 480l1.35157 2.05078"/></g><g clip-path="url(#r)"><path fill="none" stroke="#000" stroke-linecap="round" stroke-linejoin="round" stroke-miterlimit="10" stroke-width=".5" d="M186.42578 480.09375l.67578 1.02734"/></g><g clip-path="url(#s)"><path fill="none" stroke="#000" stroke-linecap="round" stroke-linejoin="round" stroke-miterlimit="10" stroke-width=".5" d="M200.75 479.91016l-6.97656.83984"/></g><g clip-path="url(#t)"><path fill="none" stroke="#000" stroke-linecap="round" stroke-linejoin="round" stroke-miterlimit="10" stroke-width=".5" d="M200.75 479.91016l1.40234 2.01172"/></g><g clip-path="url(#u)"><path fill="none" stroke="#000" stroke-linecap="round" stroke-linejoin="round" stroke-miterlimit="10" stroke-width=".5" d="M199.73438 480.03125l.69921 1.00781"/></g><g clip-path="url(#v)"><path fill="none" stroke="#000" stroke-linecap="round" stroke-linejoin="round" stroke-miterlimit="10" stroke-width=".5" d="M214.01953 479.63281l-6.88672 1.39063"/></g><g clip-path="url(#w)"><path fill="none" stroke="#000" stroke-linecap="round" stroke-linejoin="round" stroke-miterlimit="10" stroke-width=".5" d="M214.01953 479.63281l1.5586 1.89453"/></g><g clip-path="url(#x)"><path fill="none" stroke="#000" stroke-linecap="round" stroke-linejoin="round" stroke-miterlimit="10" stroke-width=".5" d="M213.01563 479.83594l.78125.94531"/></g><g clip-path="url(#y)"><path fill="none" stroke="#000" stroke-linecap="round" stroke-linejoin="round" stroke-miterlimit="10" stroke-width=".5" d="M227.30078 479.48047l-6.82031 1.69531"/></g><g clip-path="url(#z)"><path fill="none" stroke="#000" stroke-linecap="round" stroke-linejoin="round" stroke-miterlimit="10" stroke-width=".5" d="M227.30078 479.48047l1.64063 1.82422"/></g><g clip-path="url(#A)"><path fill="none" stroke="#000" stroke-linecap="round" stroke-linejoin="round" stroke-miterlimit="10" stroke-width=".5" d="M226.3086 479.72656l.8203.91406"/></g><g clip-path="url(#B)"><path fill="none" stroke="#000" stroke-linecap="round" stroke-linejoin="round" stroke-miterlimit="10" stroke-width=".5" d="M240.61328 479.48047l-6.8164 1.69531"/></g><g clip-path="url(#C)"><path fill="none" stroke="#000" stroke-linecap="round" stroke-linejoin="round" stroke-miterlimit="10" stroke-width=".5" d="M240.61328 479.48047l1.64453 1.82422"/></g><g clip-path="url(#D)"><path fill="none" stroke="#000" stroke-linecap="round" stroke-linejoin="round" stroke-miterlimit="10" stroke-width=".5" d="M239.6211 479.72656l.82421.91406"/></g><g clip-path="url(#E)"><path fill="none" stroke="#000" stroke-linecap="round" stroke-linejoin="round" stroke-miterlimit="10" stroke-width=".5" d="M253.91016 479.41016l-6.78125 1.83593"/></g><g clip-path="url(#F)"><path fill="none" stroke="#000" stroke-linecap="round" stroke-linejoin="round" stroke-miterlimit="10" stroke-width=".5" d="M253.91016 479.41016l1.67968 1.78906"/></g><g clip-path="url(#G)"><path fill="none" stroke="#000" stroke-linecap="round" stroke-linejoin="round" stroke-miterlimit="10" stroke-width=".5" d="M267.2539 479.50781l-6.83593 1.64063"/></g><g clip-path="url(#H)"><path fill="none" stroke="#000" stroke-linecap="round" stroke-linejoin="round" stroke-miterlimit="10" stroke-width=".5" d="M267.2539 479.50781l1.625 1.83985"/></g><g clip-path="url(#I)"><path fill="none" stroke="#000" stroke-linecap="round" stroke-linejoin="round" stroke-miterlimit="10" stroke-width=".5" d="M280.42578 479.0625l-6.55078 2.53516"/></g><g clip-path="url(#J)"><path fill="none" stroke="#000" stroke-linecap="round" stroke-linejoin="round" stroke-miterlimit="10" stroke-width=".5" d="M280.42578 479.0625l1.85938 1.60547"/></g><g clip-path="url(#K)"><path fill="none" stroke="#000" stroke-linecap="round" stroke-linejoin="round" stroke-miterlimit="10" stroke-width=".5" d="M293.82813 479.30469l-6.72266 2.04687"/></g><g clip-path="url(#L)"><path fill="none" stroke="#000" stroke-linecap="round" stroke-linejoin="round" stroke-miterlimit="10" stroke-width=".5" d="M293.82813 479.30469l1.73046 1.73828"/></g><g clip-path="url(#M)"><path fill="none" stroke="#000" stroke-linecap="round" stroke-linejoin="round" stroke-miterlimit="10" stroke-width=".5" d="M307.16016 479.3711l-6.75782 1.91796"/></g><g clip-path="url(#N)"><path fill="none" stroke="#000" stroke-linecap="round" stroke-linejoin="round" stroke-miterlimit="10" stroke-width=".5" d="M307.16016 479.3711l1.69921 1.76952"/></g><g clip-path="url(#O)"><path fill="none" stroke="#000" stroke-linecap="round" stroke-linejoin="round" stroke-miterlimit="10" stroke-width=".5" d="M320.14063 478.57422l-6.08985 3.51172"/></g><path fill="none" stroke="#000" stroke-linecap="round" stroke-linejoin="round" stroke-miterlimit="10" stroke-width=".5" d="M319.2539 479.08203l1.03907.65235"/><g clip-path="url(#P)"><path fill="none" stroke="#000" stroke-linecap="round" stroke-linejoin="round" stroke-miterlimit="10" stroke-width=".5" d="M333.55469 478.75781l-6.28516 3.14063"/></g><g clip-path="url(#Q)"><path fill="none" stroke="#000" stroke-linecap="round" stroke-linejoin="round" stroke-miterlimit="10" stroke-width=".5" d="M332.64063 479.21484l1 .71094"/></g><g clip-path="url(#R)"><path fill="none" stroke="#000" stroke-linecap="round" stroke-linejoin="round" stroke-miterlimit="10" stroke-width=".5" d="M347.07031 479.2539l-6.6914 2.14844"/></g><g clip-path="url(#S)"><path fill="none" stroke="#000" stroke-linecap="round" stroke-linejoin="round" stroke-miterlimit="10" stroke-width=".5" d="M346.09766 479.5664l.8789.85548"/></g><g clip-path="url(#T)"><path fill="none" stroke="#000" stroke-linecap="round" stroke-linejoin="round" stroke-miterlimit="10" stroke-width=".5" d="M360.52344 480.80469l-6.96485-.95313"/></g><g clip-path="url(#U)"><path fill="none" stroke="#000" stroke-linecap="round" stroke-linejoin="round" stroke-miterlimit="10" stroke-width=".5" d="M371.26563 483.72266l-1.82032-6.78907"/></g><g clip-path="url(#V)"><path fill="none" stroke="#000" stroke-linecap="round" stroke-linejoin="round" stroke-miterlimit="10" stroke-width=".5" d="M382.2461 483.53906l2.84765-6.42187"/></g><g clip-path="url(#W)"><path fill="none" stroke="#000" stroke-linecap="round" stroke-linejoin="round" stroke-miterlimit="10" stroke-width=".5" d="M394.41016 482.71875l5.15234-4.78125"/></g><g clip-path="url(#X)"><path fill="none" stroke="#000" stroke-linecap="round" stroke-linejoin="round" stroke-miterlimit="10" stroke-width=".5" d="M408.22266 483.16016l4.16015-5.66407"/></g><g clip-path="url(#Y)"><path fill="none" stroke="#000" stroke-linecap="round" stroke-linejoin="round" stroke-miterlimit="10" stroke-width=".5" d="M422.77734 483.74219l1.6797-6.82422"/></g><g clip-path="url(#Z)"><path fill="none" stroke="#000" stroke-linecap="round" stroke-linejoin="round" stroke-miterlimit="10" stroke-width=".5" d="M436.23047 483.77344l1.40234-6.88672"/></g><g clip-path="url(#aa)"><path fill="none" stroke="#000" stroke-linecap="round" stroke-linejoin="round" stroke-miterlimit="10" stroke-width=".5" d="M450.29297 483.84375l-.09375-7.02734"/></g><g clip-path="url(#ab)"><path fill="none" stroke="#000" stroke-linecap="round" stroke-linejoin="round" stroke-miterlimit="10" stroke-width=".5" d="M463.13672 483.8164l.84765-6.97656"/></g><g clip-path="url(#ac)"><path fill="none" stroke="#000" stroke-linecap="round" stroke-linejoin="round" stroke-miterlimit="10" stroke-width=".5" d="M147.50781 466.83984l-7.01562.34766"/></g><path fill="none" stroke="#000" stroke-linecap="round" stroke-linejoin="round" stroke-miterlimit="10" stroke-width=".5" d="M147.50781 466.83984l1.25781 2.10938m-2.27734-2.0586l.6289 1.0547m13.71095-1.02344l-7.02344.18359m7.02344-.1836l1.20703 2.13672m-2.23047-2.10937l.60547 1.0664m13.73437-1.02343l-7.02734.04297m7.02734-.04297l1.16406 2.16015M173.1211 467l.58203 1.07813m13.73438-1.45313l-6.98438.78125m6.98438-.78125l1.38672 2.02344m-2.40234-1.91016l.6914 1.01172m13.65234-.96484l-7.01171.45703m7.01172-.45703l1.28906 2.08984m-2.3086-2.02344l.64453 1.04297m13.6875-1.17578l-7.0039.58984m7.0039-.58984l1.32813 2.0664m-2.34766-1.98046l.66407 1.03125m13.66406-1.17188l-6.99219.69922m6.99219-.69922l1.36328 2.04297m-2.3789-1.9414l.67968 1.01953m13.5625-1.6211l-6.8164 1.69922m6.8164-1.69922l1.64453 1.82422m-2.63672-1.57422l.82422.91016m13.48438-1.16406l-6.8164 1.70703m6.8164-1.70703l1.64453 1.8203m-2.63672-1.57421l.82031.91406m13.48828-1.15234l-6.8203 1.6914m6.8203-1.6914l1.64063 1.82422m-2.63281-1.57813l.8203.91407m13.38673-1.4922l-6.6211 2.35548m6.6211-2.35547l1.8125 1.65625m-2.77344-1.3125l.90234.82812m13.19922-1.57422l-6.27344 3.16016m6.27344-3.16016l2.0039 1.41407m11.10157-1.77735l-5.85156 3.88672m5.85156-3.88672l2.16016 1.16797m11.10937-1.23437l-5.76172 4.01953m5.76172-4.01953l2.1836 1.11718m10.83203-1.49218l-5.16407 4.76953m5.16407-4.76953l2.3164.8125m10.5547-1.21875l-4.27345 5.58203m4.27344-5.58203l2.41797.40234m10.34766-.7461l-3.17579 6.26954m3.17579-6.26953l2.45703-.04688m10.42968-.13672l-2.3203 6.63672m1.98437-5.67187l1.21093-.1836m7.78907 2.16016l6.98437.7539m-5.96875-.64453l-.45703-1.13671M393.61328 468l6.7461-1.97266M393.61327 468l-1.71484-1.7539m15.1211 2.02343l6.5625-2.51172m-6.5625 2.51172l-1.85157-1.61328m15.63281 2.46094l5.6289-4.20703m-4.80859 3.59375l-1.10937-.52344m19.82031-.08984l-6.80078-1.75391m16.9375 4.38281l-.4414-7.01172m.375 5.99219l-1.04298.64453m15.32813.19531l-2.2539-6.65234m2.2539 6.65234l-1.6836 1.78907"/><g clip-path="url(#ad)"><path fill="none" stroke="#000" stroke-linecap="round" stroke-linejoin="round" stroke-miterlimit="10" stroke-width=".5" d="M147.4961 454.04297l-6.9922-.6875"/></g><path fill="none" stroke="#000" stroke-linecap="round" stroke-linejoin="round" stroke-miterlimit="10" stroke-width=".5" d="M147.4961 454.04297l.93359 2.26953m-1.94922-2.3711l.46484 1.13673m13.8164-.69922l-6.89452-1.35938m6.89453 1.35938l.71094 2.34765m-1.71485-2.54687l.35547 1.17578m13.96484-.98047l-6.89453-1.35156m6.89453 1.35156l.71485 2.34766m12.65625-3.3086l-7.00781.5664m7.0078-.5664l1.32032 2.0664m11.97266-2.24608l-6.96485.92578m6.96485-.92578l1.42969 1.99609m11.86718-2.1211l-6.92578 1.1797m6.92578-1.1797l1.5 1.94141m11.84766-1.01562l-6.99219-.67188m6.99219.67188l.9414 2.26562m12.38282-2.84375l-7.01172.48438m7.01172-.48438l1.29687 2.08203m11.60938-3.4961l-6.19531 3.3125m6.1953-3.3125l2.03907 1.36329m11.40234-1.10937l-6.4453 2.80468m6.4453-2.80468l1.91797 1.52734m-2.85547-1.1211l.96094.76563m13.10547-1.53906l-6.07422 3.53515m6.07422-3.53515l2.08594 1.29297m-2.96875-.77735l1.04297.64453m13.05468-1.3203l-5.875 3.85937m5.875-3.85938l2.15235 1.17969m-3.00781-.61719l1.07812.58985m13.0625-1.19532l-5.8125 3.94532m5.8125-3.94532l2.17188 1.14453m-3.01563-.5703l1.08203.5703m13.125-1.07421l-5.91015 3.80468m5.91015-3.80468l2.14063 1.19921m-3-.64453l1.0703.59766m12.8125-1.54297l-5.32812 4.58594m5.32813-4.58594l2.28516.89063m-3.0586-.22266l1.14063.44531m12.95703-1.10547l-5.34375 4.5664m5.34375-4.5664l2.28125.89844m-3.0586-.23437l1.14063.44921m13.01953-1.03125l-5.48047 4.40235m5.48047-4.40235l2.2539.96875m10.55079-1.48046l-4.46094 5.42968m3.8125-4.64062l1.20313.24219m9.62109-1.71094l1.82031 6.78906m-1.55469-5.80078l.89454-.83594m10.73437.61328l4.66016 5.25782m-3.98438-4.4922l.42969-1.15234m17.89453 4.0547l-6.71094-2.07813m5.73438 1.77343l.23047 1.20704m14.11328-2.8047l-6.8125 1.72657m6.8125-1.72656l1.64844 1.8164m11.14062-2.96875l-5.76172 4.02735m5.76172-4.02735l2.1836 1.1172m9.02734-2.52735l-1.55469 6.85156m1.55469-6.85156l2.36719-.64844m13.28906 5.6914l-6.23438-3.23827"/><g clip-path="url(#ae)"><path fill="none" stroke="#000" stroke-linecap="round" stroke-linejoin="round" stroke-miterlimit="10" stroke-width=".5" d="M147.4336 441.1211l-6.8672-1.47657"/></g><path fill="none" stroke="#000" stroke-linecap="round" stroke-linejoin="round" stroke-miterlimit="10" stroke-width=".5" d="M147.4336 441.1211l.67187 2.35937m-1.66797-2.57422l.33203 1.17969m13.95313-.84375l-6.81641-1.71485m6.8164 1.71485l.58594 2.38281m12.62891-2.0586l-6.61719-2.36718m6.61719 2.36719l.35547 2.42968m13.10937-2.98047l-6.91406-1.26562m6.91406 1.26562l.7422 2.33985m12.6289-2.91797l-7.02735-.10547m7.02735.10547l1.1211 2.1836m12.1914-2.35938l-7.02344.24219m7.02344-.2422l1.22656 2.125m12.07813-2.32812l-7 .64844m7-.64844l1.34375 2.0547m11.66796-.27735l-6.39453-2.90625m5.46485 2.48437l.07812 1.22656m14.38281-3.08593l-6.82812 1.65625m6.82812-1.65625l1.63282 1.83593m11.36718-2.66406l-6.1953 3.3164m6.1953-3.3164l2.03907 1.36328m11.19921-1.5l-6.04296 3.58594m6.04297-3.58594l2.09765 1.27735m11.4414-.83203l-6.48827 2.69921m6.48828-2.69921l1.89453 1.55468m11.1914-2.0078l-6.03124 3.60155m6.03125-3.60156l2.10156 1.26953m-2.97656-.7461l1.04687.63673m13.08594-1.2539l-5.91797 3.78905m5.91797-3.78906l2.13672 1.20313m-2.9961-.65235l2.13672 1.20313m12.13672-1.59375l-6.11328 3.46875m6.11328-3.46875l2.07031 1.3164m-2.96093-.80859l2.0703 1.3164m12.08595-1.90624l-6.01563 3.6328m6.01563-3.6328l2.10546 1.26171m-2.98046-.73046l1.05078.6289m12.32812-2.08594l-4.39453 5.48438m4.39453-5.48438l2.41016.45704m9.67969-1.08985l-1.94532 6.75m1.94532-6.75l2.40234-.50781m8.10156.89062l3.67578 5.98829m-3.67578-5.98829l1.2461-2.11718m10.4414 4.53515l6.9336 1.14844m-6.9336-1.14844l-.78125-2.32422m14.08203 2.41016l6.96094.97656m-5.94531-.83203l-.42188-1.15625m17.78907-1.63281l-3.17579 6.26953m2.71485-5.35937l1.22656-.02344m12.6836-.8164l-3.44141 6.125m3.4414-6.125l2.45313.05859m8.25-.39454l1.78125 6.79688m-1.51953-5.8086l.89844-.83203m14.1289-.10156l-2.16406 6.6875m1.84766-5.71484l1.20703-.21094"/><g clip-path="url(#af)"><path fill="none" stroke="#000" stroke-linecap="round" stroke-linejoin="round" stroke-miterlimit="10" stroke-width=".5" d="M147.50781 426.8789l-7.01562.37891"/></g><path fill="none" stroke="#000" stroke-linecap="round" stroke-linejoin="round" stroke-miterlimit="10" stroke-width=".5" d="M147.50781 426.8789l1.26563 2.10157m12.01172-1.36328l-6.94141-1.09766m6.9414 1.09766l.79688 2.32031m12.17188-1.25781l-6.2461-3.22266m6.2461 3.22266l.03125 2.45312m13.16015-2.23437l-6-3.66016m6 3.66016l-.14844 2.44922m13.5586-2.6172l-6.1914-3.32421m6.1914 3.32422l-.01172 2.45312m13.74219-3.97656l-7.01953-.27734m7.01953.27734l1.0664 2.21094m12.25-2.28906l-7.02343-.1211m7.02343.1211l1.11328 2.1875m12.1797-1.84766l-6.98048-.80078m6.98047.80078l.89844 2.28516m12.375-3.36329l-6.89453 1.35547m6.89453-1.35547l1.54688 1.90625m11.59765-2.49609l-6.55469 2.53516m6.5547-2.53516l1.85546 1.60547m-2.8086-1.23438l.92579.80079m13.2539-1.375l-6.3789 2.9414m6.3789-2.9414l1.95313 1.48437m11.60156-.77344l-6.85937 1.51953m6.85937-1.51953l1.59375 1.86328m11.03125-3.30468l-5.47656 4.40234m5.47656-4.40234l2.2539.96484m10.27735-1.6836l-3.91015 5.83985m3.91015-5.83984l2.4414.2461m11.4297.21483l-5.02344 4.91797m5.02344-4.91797l2.33984.7422m-3.07031-.02735l1.16797.3711m12.96875-.98829l-5.20313 4.72266m5.20313-4.72266l2.30859.83203m-3.0664-.14453l1.15624.41406m12.75782-1.26562l-4.88672 5.05078m4.88672-5.05078l2.35546.67578m9.23829-1.58984l-1.44141 6.8789m1.4414-6.8789l2.35547-.6836m10.70704.64063l-.9375 6.96484m.9375-6.96484l2.29687-.85157m13.57813 2.5547l-6.0586 3.55859m6.0586-3.5586l2.08984 1.28516m-2.97266-.76563l1.04688.64063m12.30469-2.13672l-4.36329 5.51172m4.36329-5.51172l2.41015.44531m-3.04687.35938l2.41406.4414m-3.04688.35938l1.20704.21875m13.3125-1.8711l-4.23829 5.60547m4.23829-5.60547l2.42578.38672m-3.04297.4297l2.42578.38671m10.35156-1.77734l-1.92578 6.7578m1.92578-6.7578l2.39844-.51563m-2.67969 1.4961l1.19922-.25782m10.69922-.78125l1.46875 6.8711m-1.46875-6.8711l1.8789-1.57812m-1.66406 2.57812l.9375-.78906m13.36719-.25781l-.9375 6.96484m.9375-6.96484l2.30078-.85157m-2.4375 1.8672l2.30078-.85548"/><g clip-path="url(#ag)"><path fill="none" stroke="#000" stroke-linecap="round" stroke-linejoin="round" stroke-miterlimit="10" stroke-width=".5" d="M147.01563 411.95313l-6.03125 3.60156"/></g><path fill="none" stroke="#000" stroke-linecap="round" stroke-linejoin="round" stroke-miterlimit="10" stroke-width=".5" d="M147.01563 411.95313l2.10156 1.26953m10.97265-1.625l-5.55078 4.3125m4.74219-3.6836l1.1211.5m13.67577.34766l-6.89453 1.35937m5.89063-1.16406l.77344.95313m13.60547-.3047l-7.01563-.32812m7.01563.32813l1.05078 2.21875m12.26953-2.41016l-7.02735.05469m7.02735-.05469l1.16797 2.15625m11.59375-.23828l-5.92188-3.78515m5.0625 3.23437l-.09766 1.22266m14.17579-.52735l-5.73047-4.07031m4.89844 3.47656l-.15625 1.21875m13.85156-.10547l-4.82422-5.10937m4.82422 5.10937l-.78516 2.32422m15.05078-3.85547l-6.72265-2.04687m6.72265 2.04687l.46875 2.41016m12.73438-4.76562l-6.5 2.66406m6.5-2.66406l1.88672 1.5664m11.3789-1.67969l-6.40234 2.89063m6.40234-2.89063l1.9414 1.5m11.46485-1.28515l-6.58203 2.46094m5.625-2.10547l.91797.8125m12.57422-2.39453l-5.02344 4.91406m5.02344-4.91406l2.33594.74218m11.19922-.49218l-5.46485 4.41406m4.67188-3.77344l1.1289.48047m13.3086-.63672l-6.125 3.4414m6.125-3.4414l2.0664 1.32813m9.90235-2.67188l-3.4336 6.13281m3.4336-6.13281l2.45312.05469m11.7539.65625l-5.21484 4.70703m5.21485-4.70703l2.3086.83984m11.24218-.55078l-5.6836 4.13281m5.6836-4.13281l2.20312 1.07422m-3.03125-.47266l1.10157.53906m12.51562-1.71484l-4.63672 5.28125m4.63672-5.28125l2.39063.5664m-3.0625.20313l2.38672.5625m-3.0625.20313l1.1953.28515m13.91407-1.35156l-5.52734 4.34375m5.52734-4.34375l2.24219.98828m-3.04688-.35547l2.24219.98828m11.21094-2.26953l-4.1914 5.64063m4.1914-5.64063l2.42578.3672m-3.03516.45312l2.42578.36718m-3.03906.45313l1.21485.1836m12.51562-2.27345l-2.57812 6.53907m2.57812-6.53907l2.4375-.27734m-2.8125 1.23047l2.4375-.27734m11.27344-.66797l-2.6211 6.51953m2.6211-6.51953l2.4375-.25782m-2.82031 1.20704l2.4414-.26172m10.73828-.84766l-1.58593 6.84375m1.58593-6.84375l2.3711-.63281m11.47656.80078l-2.65234 6.50781m2.65234-6.50781l2.4414-.25m-2.82421 1.19531l2.4414-.2461m-2.82812 1.19532l1.21875-.125"/><g clip-path="url(#ah)"><path fill="none" stroke="#000" stroke-linecap="round" stroke-linejoin="round" stroke-miterlimit="10" stroke-width=".5" d="M146.71094 398.20313l-5.42188 4.46875"/></g><path fill="none" stroke="#000" stroke-linecap="round" stroke-linejoin="round" stroke-miterlimit="10" stroke-width=".5" d="M146.71094 398.20313l2.26562.9414m11.27735-.63281l-5.87891 3.85156m5.8789-3.85156l2.15235 1.1836m11.50781-.50782l-6.5664 2.5m6.5664-2.5l1.84766 1.61328m11.60937.41406l-6.85156-1.55468m5.85547 1.32812l.32031 1.1836m13.8711-.54297l-6.61328-2.38282m5.65234 2.03516l.17187 1.21484m8.42578.53516l4.7461-5.1836m-4.05469 4.4297l-1.1875-.3086m18.38672 1.20703l-4.40625-5.47265m3.76563 4.67578l-.48047 1.1289m15.28906-1.33594l-6.11328-3.46875m6.11328 3.46875l-.0664 2.45313m-.82423-2.95703l-.03125 1.22656m14.69141-2.58594l-7.02344.26172m7.02344-.26172l1.23438 2.1211m-2.25391-2.08594l.61328 1.0625m13.72266-.9961l-7.02735.0547m7.02735-.0547l1.17187 2.15626m-2.1914-2.14844l1.16796 2.15625m13.125-1.59375l-6.9414-1.08594m6.9414 1.08594l.8047 2.32031m-1.8125-2.47656l.39843 1.16015m13.78906-2.65234l-6.66797 2.21485m6.66797-2.21485l1.77734 1.6914m-2.75-1.37109l.89063.84766m13.52734-.63281l-6.93359 1.14062m6.9336-1.14062l1.48827 1.95312m-2.49609-1.78515l.7461.97656m13.17578-2.29688l-6.12891 3.44532m6.1289-3.44532l2.0625 1.32422m-2.95703-.82031l1.03516.66016m12.42969-2.07813l-4.64063 5.27735m4.64063-5.27735l2.38672.5664m11.27734-.21484l-5.33594 4.57422m4.5586-3.91015l1.14062.44921m13.71875.44141l-6.8711 1.46485m6.8711-1.46485l1.57813 1.8789m11.39453-2.8164l-6.1875 3.33594m6.1875-3.33594l2.04297 1.36328m-2.9414-.875l1.01952.67969m11.96094-2.48047l-3.72266 5.96094m3.72266-5.96094l2.44922.17188m-2.98828.6953l2.44531.17188m-2.98828.69532l1.22265.08593m13.89844-1.21875l-5.16797 4.76172m5.16797-4.76172l2.3164.8125m-3.0703-.12109l2.3164.8125m12.27735-.75781l-6.21875 3.26953m6.21875-3.26953l2.02734 1.38281m-2.92969-.90625l1.01172.6875m11.875-2.5586l-3.5586 6.0586m3.5586-6.0586l2.45313.10157m-2.96875.77734l2.44921.10547m11.45704-.9414l-3.70704 5.97265m3.70704-5.97265l2.4453.16406m-2.98437.70312l2.44532.16406m11.96093-.60546L447.83984 403m4.8125-5.1211l2.3672.64454m-3.06642.10156l1.1836.32031m12.83594-1.0625l-4.82422 5.10938"/><g clip-path="url(#ai)"><path fill="none" stroke="#000" stroke-linecap="round" stroke-linejoin="round" stroke-miterlimit="10" stroke-width=".5" d="M465.97266 397.88281l2.36718.64844"/></g><path fill="none" stroke="#000" stroke-linecap="round" stroke-linejoin="round" stroke-miterlimit="10" stroke-width=".5" d="M465.26953 398.625l2.36719.65234"/><g clip-path="url(#aj)"><path fill="none" stroke="#000" stroke-linecap="round" stroke-linejoin="round" stroke-miterlimit="10" stroke-width=".5" d="M146.80469 385.00781l-5.60938 4.23047"/></g><path fill="none" stroke="#000" stroke-linecap="round" stroke-linejoin="round" stroke-miterlimit="10" stroke-width=".5" d="M146.80469 385.00781l2.22265 1.03516m-3.03906-.42188l1.11328.51954m13.22656-.82422l-6.02734 3.61718m6.02734-3.61718l2.10157 1.26171m10.94531-1.64843l-5.48828 4.38672m5.48828-4.38672l2.25.97265m7.60547-2.21875l1.42969 6.87891m-1.22266-5.8789l.94531-.78516m9.36719 3.35547l7.01953-.26172m-6 .22265l-.61328-1.05859m19.60938 2.4414l-6.37891-2.94921m6.3789 2.94922l.13672 2.44921m-1.0664-2.8789l.07031 1.22656m14.47266-1.84375l-6.97657-.85547m6.97657.85547l.8789 2.28906m-1.89453-2.41406l.4414 1.14453m13.88673-1.02344l-6.97266-.84765m6.97266.84765l.8828 2.29297m-1.89452-2.41406l.4375 1.14453m13.82422-.64062l-6.83985-1.61328m6.83985 1.61328l.625 2.3711m-1.6211-2.60548l.3125 1.1875m14.08985-1.8164l-7.02344.11328m7.02344-.11328l1.1875 2.14843m-2.20703-2.1289l.58984 1.07031m13.74219-1.22266l-7.01954.37891m7.01954-.3789l1.26562 2.10156m-2.28906-2.04688l1.26953 2.10156m13.0039-2.66015l-6.89062 1.38672m6.89063-1.38672l1.55468 1.89844m-2.55859-1.69532l.78125.94922m13.49219-1.34375l-6.79688 1.77344m6.79688-1.77344l1.66406 1.80469m-2.65234-1.54688l.83203.90235m13.38281-1.45703l-6.6211 2.36328m6.6211-2.36328l1.8125 1.65234m-2.77734-1.3086l.90625.82813m13.12109-1.71875l-6.11719 3.45703m6.11719-3.45703l2.07031 1.32031m-2.95703-.8164l2.0664 1.32031m11.8047-2.3125L341 389.33985m5.45313-4.4336l2.2578.95313m-3.05077-.3086l1.1289.47656m13.14063-.90234l-5.77735 3.9961m5.77735-3.9961l2.17969 1.125m-3.01954-.54297l2.1797 1.125m11.91796-1.78906l-5.66406 4.16015m5.66406-4.16015l2.21094 1.0664m-3.03516-.46093l2.21094 1.0625m-3.03516-.45703l1.10547.53125m13.4961-2.16407l-4.9375 5.00391m4.9375-5.0039l2.35156.70312m-3.07031.02734l2.35156.69922m11.8164-1.28906l-5.20703 4.72265m5.20703-4.72265l2.3086.83203m-3.0664-.14453l2.30859.83203m11.52734-1.7539l-4.73438 5.1914m4.73438-5.1914l2.3789.60937m-3.0664.14453l1.1875.30469m12.26172-1.47266l-3.625 6.01953m3.625-6.01953l2.44922.1289m-2.97657.7461l1.22266.0664m13.04688-.64062l-4.48047 5.41797m4.48047-5.41797l2.40234.4961m-3.05469.29296l1.20313.2461m12.4453-1.26953l-3.83983 5.88672m3.83984-5.88672l2.4414.21875m-3 .63672l1.21876.11328m12.64453-.97266l-3.82422 5.89453"/><g clip-path="url(#ak)"><path fill="none" stroke="#000" stroke-linecap="round" stroke-linejoin="round" stroke-miterlimit="10" stroke-width=".5" d="M465.47266 384.17578l2.4453.21094"/></g><path fill="none" stroke="#000" stroke-linecap="round" stroke-linejoin="round" stroke-miterlimit="10" stroke-width=".5" d="M464.91797 385.03125l2.44531.21484m-3.0039.64454l1.22265.10546"/><g clip-path="url(#al)"><path fill="none" stroke="#000" stroke-linecap="round" stroke-linejoin="round" stroke-miterlimit="10" stroke-width=".5" d="M146.82031 371.71484l-5.64062 4.1875"/></g><path fill="none" stroke="#000" stroke-linecap="round" stroke-linejoin="round" stroke-miterlimit="10" stroke-width=".5" d="M146.82031 371.71484l2.21875 1.0547m11.07031-1.08985l-5.58984 4.25781m5.58984-4.25781l2.23047 1.02734m10-1.96875l-3.41797 6.14063m3.41797-6.14063l2.45313.04688m-2.95313.84765l1.22657.02344m12.60156-.91016l-3.44531 6.125m3.4453-6.125l2.45313.0586m-2.95312.83203l1.22656.03125m14.11328.80078l-6.4961 2.67969m6.4961-2.67969l1.89063 1.5664m10.84375 2.0625l-5.33203-4.57812m5.33203 4.57813l-.53906 2.39453m13.8789-2.42578l-5.38281-4.51563m5.38281 4.51563l-.50781 2.39843m-.27344-3.05468l-.2539 1.19921m14.80859-1.24218l-6.29688-3.11719m6.29688 3.11719l.07031 2.45312m-.98828-2.90625l.03516 1.22656m14.30859-1.02734l-6.52344-2.60937m6.52344 2.60937l.26563 2.4375m-1.21485-2.8164l.26563 2.4375m14.1914-2.72657l-6.91015-1.27344m6.91015 1.27344l.74219 2.33985m-1.7461-2.52344l.73829 2.33984m13.64062-2.6836l-7.02343-.21874m7.02343.21875l1.08203 2.20312m-2.10546-2.23437l1.08203 2.20312m13.22265-2.7578l-6.96093.95312m6.96093-.95313l1.4375 1.98828m-2.44922-1.85156l1.4375 1.99219m12.86329-2.3086l-6.90625 1.3125m6.90625-1.3125l1.53515 1.91407m-2.54297-1.72266l1.53907 1.91406m12.58593-2.76562l-6.51172 2.63281m6.51172-2.63281l1.88282 1.57422m-2.82813-1.19141l1.8789 1.57422M333.67189 372.5l-6.52344 2.61719m6.52344-2.61719l1.875 1.58203m-2.82422-1.20312l1.875 1.58203m12.53125-1.52344l-6.8086 1.74219m6.8086-1.74219l1.65234 1.8125m-2.64062-1.5586l1.65234 1.8125m12.66016-2.04296l-6.82032 1.69531m6.82032-1.69531l1.63671 1.82812m-2.6328-1.58203l1.64062 1.82813m-2.63282-1.58204l.82032.91407m14.28515-1.97656l-6.42968 2.83593m6.42968-2.83594l1.92969 1.51954m-2.86328-1.10547l1.92578 1.51562m12.01953-2.48047l-5.82031 3.9375m5.82031-3.9375l2.16797 1.15235m-3.01562-.57813l2.16796 1.14844m11.82422-1.95313l-5.48047 4.39844m5.48047-4.39844l2.2539.96875m-3.05077-.32812l2.2539.96875m11.52735-1.96875l-4.8164 5.11719m4.8164-5.11719l2.36719.64453m-3.07032.10156l1.1836.32032m12.74218-1.14844l-4.6328 5.28125m4.6328-5.28125l2.38672.5625m10.91797-.57031l-4.61719 5.29687m4.6172-5.29687l2.39062.55468m10.11718-1.08203l-3 6.35156m3-6.35156l2.45313-.11719m-2.88672 1.03907l1.22266-.0586m13.22656-.42968l-4.39844 5.48046"/><g clip-path="url(#am)"><path fill="none" stroke="#000" stroke-linecap="round" stroke-linejoin="round" stroke-miterlimit="10" stroke-width=".5" d="M465.76172 371.0664l2.41015.45704"/></g><path fill="none" stroke="#000" stroke-linecap="round" stroke-linejoin="round" stroke-miterlimit="10" stroke-width=".5" d="M465.1211 371.86328l2.41015.46094"/><g clip-path="url(#an)"><path fill="none" stroke="#000" stroke-linecap="round" stroke-linejoin="round" stroke-miterlimit="10" stroke-width=".5" d="M146.14844 357.71094l-4.29688 5.5625"/></g><path fill="none" stroke="#000" stroke-linecap="round" stroke-linejoin="round" stroke-miterlimit="10" stroke-width=".5" d="M145.52344 358.52344l1.20703.20312m12.91797-.85937l-4.66797 5.2539m4.66797-5.2539l2.38281.57422m10.9375-.57032l-4.67578 5.2422m4.67578-5.2422l2.38281.58204m-3.0625.17968l1.1914.29297m13.2461-.57812l-5.5664 4.28906m5.5664-4.28906l2.23828 1.01562m-3.04687-.39062l1.11719.5078m13.73047.7461l-7.00782.53125m7.00781-.53125l1.3086 2.07422m11.60156-.15234l-6.19922-3.3125m6.19922 3.3125l-.00781 2.45312m-.89453-2.9336l-.0039 1.22657m13.96093-.33203l-5.67969-4.13672m5.67969 4.13672l-.34375 2.42969m-.48047-3.03125l-.34375 2.42578m14.85547-2.46875l-6.42578-2.84766m6.42578 2.84766l.17578 2.44531m-1.10938-2.85937l.17579 2.4453m14.0703-2.02733l-6.41796-2.85938m6.41797 2.85938l.17187 2.44921m-1.10547-2.86328l.17188 2.44531m14.22266-2.41406l-6.71094-2.08984m6.71094 2.08984l.45312 2.41016m-1.42969-2.71485l.45704 2.41016m13.94921-2.60937l-6.9414-1.08204m6.9414 1.08204l.8047 2.3164m-1.8125-2.47265l.80468 2.3164m13.54687-2.39844l-7-.60937m7 .60938l.96094 2.26171m-1.97656-2.34765l.95703 2.25781m13.38672-2.625l-7.02344.30078m7.02344-.30078l1.24219 2.11328m-2.26563-2.07031l1.24219 2.11328m13.0664-2.48047l-6.96484.94531m6.96484-.9453l1.4336 1.99218m-2.44922-1.85547l1.4336 1.99219m12.89062-2.17578l-6.94922 1.03906m6.94922-1.03906l1.46094 1.97265M332.875 360.125l1.46094 1.97266m12.6211-2.98829l-6.46095 2.76954m6.46094-2.76954l1.91016 1.53907m-2.85157-1.13672l.95704.76953m13.51171-.4961l-6.8828 1.41798m6.8828-1.41797l1.5625 1.89062m-2.5664-1.6836l1.5664 1.88673m12.70704-2.28125l-6.79688 1.78906m6.79688-1.78906l1.66406 1.80078m-2.65235-1.53906l1.66407 1.80078m12.28125-2.92579L380.6289 362.25m6.08203-3.51563l2.08203 1.30079m-2.96485-.78907l2.08204 1.30079m-2.96875-.78907l1.04296.64844m13.60157-2.27734l-5.19922 4.73046m5.19922-4.73046l2.3086.82812m-3.06642-.14062l2.3125.82812m-3.0664-.14062l1.15234.41406m13.58985-1.8789l-5.02735 4.91015m5.02735-4.91016l2.33593.7461m-3.0703-.03125l2.33983.74218m11.73438-1.43359l-5.07813 4.85938m5.07813-4.85938l2.32812.76953m-3.0703-.0625l2.33202.76953m11.28125-1.86719l-4.1914 5.64063m4.1914-5.64063l2.42578.3711m-3.03515.44922l1.21094.1875m11.99609-1.41797l-2.75781 6.46484m2.75781-6.46484l2.44531-.21094m11.26953.41406l-3.55859 6.0586"/><g clip-path="url(#ao)"><path fill="none" stroke="#000" stroke-linecap="round" stroke-linejoin="round" stroke-miterlimit="10" stroke-width=".5" d="M465.33984 357.46484l2.45313.10157"/></g><g clip-path="url(#ap)"><path fill="none" stroke="#000" stroke-linecap="round" stroke-linejoin="round" stroke-miterlimit="10" stroke-width=".5" d="M144.41016 343.6875l-.82032 6.98047"/></g><path fill="none" stroke="#000" stroke-linecap="round" stroke-linejoin="round" stroke-miterlimit="10" stroke-width=".5" d="M144.41016 343.6875l2.28515-.89063m12.09766 1.19532l-2.95703 6.375m2.95703-6.375l2.44922-.13281m10.80469.10546l-2.83204 6.4297m2.83203-6.4297l2.44922-.18359m11.90235.88281l-4.90625 5.02735m4.90625-5.02735l2.35547.6914m-3.06641.03907l1.17578.34766m13.27344-.58203l-5.75 4.03906m5.75-4.03906l2.1875 1.10937m11.73047 1.38281l-6.96094-.94921m6.96094.94921l.84765 2.3047m-1.85937-2.44142l.42578 1.15235m13.35156.44922l-5.85937-3.8789m5.85937 3.8789l-.23437 2.4414m-.61719-3.0078l-.11719 1.22265m14.40625-.85547l-6.10547-3.48047m6.10547 3.48047l-.07422 2.45312m-.8125-2.95703l-.03906 1.22266m14.14453-.5586l-5.91015-3.80078m5.91015 3.80079l-.20312 2.4453m-.65625-3l-.20313 2.44532m14.44922-2.0039l-6.05469-3.57032m6.0547 3.57031l-.10938 2.44922m-.77344-2.96875l-.10938 2.44922m14.7422-3.11719l-6.92579-1.19921m6.92578 1.19921l.76563 2.33204m-1.77344-2.50391l.38281 1.16406m13.96875-1.1914l-6.98047-.80079m6.98047.80079l.89844 2.28515m-1.91406-2.40234l.89843 2.28515m13.4297-2.15625l-6.97657-.82421m6.97656.82421l.89063 2.28516m-1.90625-2.40625l.4453 1.14453m13.89063-1.05078l-6.98437-.76953m6.98437.76953l.90625 2.28125m-1.92578-2.39063l.91016 2.27735m13.40625-3.07422l-6.94922 1.04297m6.94922-1.04297l1.46094 1.97266m-2.47266-1.82032l1.46094 1.97266m-2.47266-1.82031l.73047.98437m14.28125-2.32812l-6.29687 3.1211m6.29687-3.1211l1.99219 1.42969m-2.91016-.97657l1 .71485m13.09375-1.41797l-6.01953 3.625m6.01953-3.625l2.10547 1.26172m-2.98047-.73438l1.05078.6289m13.60938.1797l-6.96094.94921m6.96094-.94921l1.4375 1.98828m-2.44922-1.85157l1.4336 1.9922m12.76562-2.70704l-6.70313 2.10547m6.70313-2.10547l1.75 1.72266m-2.72656-1.41797l1.75 1.72265m12.45312-2.27343l-6.52734 2.59765m6.52734-2.59765l1.8711 1.58984m-2.82032-1.21094l1.8711 1.58985m11.78906-2.96485l-5.32031 4.58985m5.3203-4.58985l2.28907.88672m-3.0625-.21875l2.28906.88672m10.99219-2.2461l-3.70703 5.97266m3.70703-5.97265l2.44922.16796m-2.98828.70313l2.44922.16406m-2.98828.70313l1.22656.08203m12.98047-1.92969l-3.33203 6.1914m3.33203-6.1914l2.45312.01563m-2.9375.88671l2.45313.01172m-2.9375.88672l1.22656.00781m13.4961-1.52734l-4.20704 5.6289m4.20703-5.6289l2.42188.375m-3.03516.44531l1.21094.1875m13.67578.08594l-6.125 3.44531"/><g clip-path="url(#aq)"><path fill="none" stroke="#000" stroke-linecap="round" stroke-linejoin="round" stroke-miterlimit="10" stroke-width=".5" d="M466.625 345.45703l2.0664 1.32031"/></g><path fill="none" stroke="#000" stroke-linecap="round" stroke-linejoin="round" stroke-miterlimit="10" stroke-width=".5" d="M465.73438 345.95703l1.03125.66016"/><g clip-path="url(#ar)"><path fill="none" stroke="#000" stroke-linecap="round" stroke-linejoin="round" stroke-miterlimit="10" stroke-width=".5" d="M140.63672 332.85156l6.72656 2.02344"/></g><path fill="none" stroke="#000" stroke-linecap="round" stroke-linejoin="round" stroke-miterlimit="10" stroke-width=".5" d="M155.42188 330.90234l3.78515 5.92188m-3.78516-5.92188l1.20704-2.13671m-.65625 3l.60547-1.07032m14.30859-.33594l-.51172 7.00782m.51172-7.00781l2.2461-.9922m-2.32032 2.01173l1.1211-.4961m13.54687-.17969l-3.07031 6.32032m3.0703-6.32031l2.45313-.08985m-2.89843 1.00781l1.22656-.04296m13.74219.09375l-5.48828 4.3828m5.48828-4.3828l2.2539.97265m-3.05078-.33594l2.25.97266m12.63281.65234l-7.02734-.14062m7.02734.14062l1.10547 2.1875m-2.1289-2.20703l.55468 1.09375m13.51563.19922l-6.49219-2.6875m6.49219 2.6875l.23437 2.4414m-1.17968-2.83202l.11718 1.21875m13.57813.09765l-5.36328-4.54297m5.36328 4.54297l-.52344 2.39844m-.25781-3.0586l-.26172 1.19923m14.71484-1.04297l-6.07422-3.53516m6.07422 3.53516l-.09375 2.45312m-.79297-2.96484l-.09375 2.44922m14.48829-2.32813l-6.46485-2.7539m6.46485 2.7539l.21093 2.44531m-1.14843-2.84375l.10547 1.22266m14.17187-.8789l-6.51172-2.64063m6.51172 2.64062l.2539 2.4375m-1.19921-2.82421l.2539 2.4414m14.07422-2.23437l-6.64843-2.28125m6.64843 2.28125l.38672 2.42187m-1.35547-2.7539l.19532 1.21093m14.27734-1.98047l-7.02734-.07812m7.02734.07812l1.1289 2.1797m-2.14843-2.19142l1.125 2.1797m13.19531-2.51954l-6.9961.625m6.9961-.625l1.33984 2.05469m-2.35546-1.96485l1.33984 2.0586m12.97656-2.29297l-6.96875.91406m6.96875-.91406l1.42578 1.9961m-2.4414-1.86329l.71484.9961m13.33594-2.11329l-6.40625 2.88282m6.40625-2.88281l1.9414 1.5m-2.875-1.08204l.97266.75m13.21484-1.29687l-6.28515 3.14062m6.28515-3.14062l2 1.42187m11.67188-.1875l-6.9961.67188m6.9961-.67188l1.35156 2.04688m-2.3711-1.94922l.67579 1.02344m13.16406-2.60938l-6.00781 3.64453m6.00781-3.64453l2.10938 1.25781m-2.98438-.72656l2.10938 1.2539m-2.98438-.72265l1.05469.6289m14.21094-1.3125l-6.41016 2.89063m6.41016-2.89062l1.9375 1.5039m-2.8711-1.08203l.96875.75m13.23828-1.2578l-6.32421 3.0625m6.32421-3.0625l1.98047 1.44921m-2.90234-1.0039l.99219.72265m11.54297-2.83203l-2.92188 6.39062m2.92188-6.39062l2.44921-.14453m-2.875 1.07422l2.44922-.14454m10.29297-1.07421l-.92578 6.96875m.92578-6.96875l2.29688-.85547m-2.4336 1.8711l2.30078-.85938m13.375 1.0625l-5.375 4.53125m5.375-4.53125l2.27735.91406m-3.0586-.2539l1.13672.45702m13.45313-.34765l-6.35938 2.98828"/><g clip-path="url(#as)"><path fill="none" stroke="#000" stroke-linecap="round" stroke-linejoin="round" stroke-miterlimit="10" stroke-width=".5" d="M466.74219 332.36719l1.96484 1.47265"/></g><g clip-path="url(#at)"><path fill="none" stroke="#000" stroke-linecap="round" stroke-linejoin="round" stroke-miterlimit="10" stroke-width=".5" d="M465.8164 332.80469l1.96485 1.46875"/></g><g clip-path="url(#au)"><path fill="none" stroke="#000" stroke-linecap="round" stroke-linejoin="round" stroke-miterlimit="10" stroke-width=".5" d="M140.67578 321.67969l6.64844-2.26563"/></g><path fill="none" stroke="#000" stroke-linecap="round" stroke-linejoin="round" stroke-miterlimit="10" stroke-width=".5" d="M153.80469 320.39063l7.01953.3164m-7.01953-.3164l-1.05078-2.21875m2.07422 2.26171l-1.0547-2.21484m2.07423 2.26172l-.52735-1.10547m12.51953-.96094l5.58203 4.26953m-5.58203-4.26953l.40235-2.42187m.41015 3.04297l.19922-1.21094m15.46875-.76953l-.75 6.98828m.75-6.98828l2.27735-.91406m-2.38672 1.92968l2.27734-.91406m13.41406 1.07422l-5.28125 4.63672m5.28125-4.63672l2.29297.86719m-3.0625-.19141l2.29297.86719m12.04688-1.21094l-5.79688 3.96875m5.79688-3.96875l2.17578 1.13672m-3.01563-.5586l2.17188 1.13672m12.40625-.8789l-6.64063 2.30078m5.67188-1.96875l.90234.83594m13.07031 1.79296l-6.01953-3.62109m6.01953 3.6211l-.1289 2.44921m13.27734-2.1953l-5.6875-4.12892m5.6875 4.12891l-.33984 2.42969m-.48828-3.03125l-.16797 1.21484m14.59765-1.08594l-6.26172-3.1875m6.26172 3.1875l.04688 2.45313m-.95703-2.91406l.04297 2.45312m14.39062-2.48437l-6.67578-2.19922m6.67578 2.19922l.41406 2.41797m-1.38672-2.73829l.41797 2.41797m13.95313-2.39062l-6.83985-1.61719m6.83985 1.61719l.6211 2.375m-1.6172-2.60938l.3125 1.1875m14.06641-1.34765l-6.97656-.82813m6.97656.82813l.89063 2.28906m-1.90625-2.41016l.4453 1.14454m13.82813-2.1875l-6.86328 1.5m6.86328-1.5l1.58985 1.87109m-2.58594-1.65235l1.58594 1.8711m12.41406-2.94922l-6.24219 3.22266m6.24219-3.22266l2.01953 1.39453m-2.92578-.92578l2.01562 1.39453M346.5 318.39453l-5.54688 4.3086m5.54688-4.3086l2.23828 1.0039m-3.04297-.3789l1.11719.5039m12.33203-1.78906l-4.20703 5.625m4.20703-5.625l2.42578.375m12.11328 1.3125l-6.65625 2.25391m6.65625-2.2539l1.78516 1.68359m11.4336-1.9375l-6.46094 2.76172m6.46093-2.76172l1.91016 1.53906m-2.85156-1.13672l.95703.76953m12.26172-2.53906l-4.38672 5.49219m4.38672-5.49219l2.41015.45313m-3.05078.34765l1.20703.22656m11.76953-1.57812l-2.42968 6.59375m2.42968-6.59375l2.4297-.33203m-2.78516 1.29297l1.21875-.16797m11.30078-1.00781l-.125 7.02734m.125-7.02734l2.1875-1.11329m-2.20703 2.13672l2.1875-1.11328m9.35156.54688l3.46484 6.11328m-3.46484-6.11328l1.3164-2.07031m14.9336 1.82421l-2.40625 6.60157m2.05469-5.64063l1.21484-.17187m13.22656-.39063l-3.95703 5.80469"/><g clip-path="url(#av)"><path fill="none" stroke="#000" stroke-linecap="round" stroke-linejoin="round" stroke-miterlimit="10" stroke-width=".5" d="M465.53906 317.64453l2.4414.26953"/></g><path fill="none" stroke="#000" stroke-linecap="round" stroke-linejoin="round" stroke-miterlimit="10" stroke-width=".5" d="M464.96484 318.48828l2.4375.26953"/><path fill="#00f" fill-rule="evenodd" d="M215.14453 472.08594h8.61719V461.9414h-8.61719v10.14453"/><path fill="azure" fill-rule="evenodd" d="M216.97656 463.77344h.83203v2.82422h3.28516v-2.82422h.83594v6.48047h-.83594v-2.91797h-3.28516v2.91797h-.83203v-6.48047"/><path fill="#00f" fill-rule="evenodd" d="M388.23828 472.08594h8.61719V461.9414h-8.61719v10.14453"/><path fill="azure" fill-rule="evenodd" d="M390.07031 463.77344h.83594v2.82422h3.28516v-2.82422h.83203v6.48047h-.83203v-2.91797h-3.28516v2.91797h-.83594v-6.48047"/><path fill="#ff3030" fill-rule="evenodd" d="M180.33203 458.77344h7.6914V448.625h-7.6914v10.14844"/><path fill="azure" fill-rule="evenodd" d="M182.16406 450.45703h.83203v5.74219h3.19532v.73828h-4.02735v-6.48047"/><path fill="#00f" fill-rule="evenodd" d="M383.80078 436.57813h8.61719v-10.14454h-8.61719v10.14454"/><path fill="azure" fill-rule="evenodd" d="M385.63281 428.26563h.83203v2.82421h3.28907v-2.82421h.83203v6.48046h-.83203v-2.91406h-3.28907v2.91406h-.83203v-6.48046"/><path fill="#00f" fill-rule="evenodd" d="M224.01953 418.82813h8.61719v-10.14844h-8.61719v10.14844"/><path fill="azure" fill-rule="evenodd" d="M225.85156 410.51172h.83594v2.82422h3.28516v-2.82422h.83203v6.48047h-.83203v-2.91406h-3.28516v2.91406h-.83594v-6.48047"/><path fill="#ff3030" fill-rule="evenodd" d="M198.08203 370.0039h7.69531v-10.14452h-7.6953v10.14453"/><path fill="azure" fill-rule="evenodd" d="M199.91797 361.6914h.83203v5.73829h3.19531v.74219h-4.02734v-6.48047"/><path fill="#ffffe0" fill-rule="evenodd" d="M322.39844 374.67578h22.1836v-10.19531h-22.1836v10.19531"/><path fill-rule="evenodd" d="M325.89844 366.3164h.51172v6.29298h-.78907v-4.48829h-1.38671v-.55468l.55859-.06641.25-.05469.23047-.08984.20312-.14063.17578-.21093.14063-.29297.10547-.39453m4.8164 0l.22657.01953.21875.05469.21093.08984.19532.1211.18359.14843.17188.17578.30078.41797.24218.4961.1797.54687.11327.57812.03906.58985-.03906.59375-.11328.58594-.17969.55078-.24218.5039-.30079.42578-.17187.1797-.1836.15624-.1953.1211-.21094.09375-.21875.05468-.22657.01953-.23046-.01953-.21875-.05469-.20704-.09375-.19921-.12109-.1836-.15625-.17187-.17969-.30079-.42578-.24218-.5039-.17969-.55079-.11328-.58593-.03906-.59375h.83593l.02735.5625.08203.50781.125.4414.16406.375.1914.30079.21094.22265.22266.13672.22656.04688.22266-.04688.22266-.13672.21093-.22265.19141-.30078.16406-.375.125-.44141.08203-.50781.02735-.5625-.02735-.5625-.08203-.5-.125-.4336-.16406-.36718-.1914-.29297-.21094-.21094-.22266-.13281-.22266-.04688-.22656.04688-.22265.13281-.21094.21094-.1914.29297-.16407.36718-.125.4336-.08203.5-.02735.5625h-.83593l.03906-.58985.11328-.57812.17969-.54688.24219-.49609.30078-.41797.17187-.17578.1836-.14844.19921-.1211.20704-.08983.21875-.0547.23046-.01952m5.08985 0h.50781v6.29296h-.78516v-4.48828h-1.39062v-.55468l.5625-.06641.25-.05469.23047-.08984.20312-.14063.17578-.21093.14063-.29297.10547-.39453m2.82422 2.17578h.78515l.01953-.3164.0586-.28907.10156-.25.14063-.21485.17968-.17578.22266-.1289.26562-.08203.3086-.02735.23828.02344.22265.0625.20313.10156.17969.13672.14844.17578.11328.20313.07421.23828.02344.26172-.02344.26953-.0625.22656-.11328.1914-.15234.17188-.20313.16016-.24609.16797-.63281.38672-.53906.3125-.4375.3203-.34766.32423-.26172.33594-.1914.34765-.125.3711-.06641.39453-.02344.41796h4.21094v-.73828h-3.33203l.08594-.28515.11328-.23828.14843-.19922.1875-.1836.23047-.16796.27735-.17579.71875-.41796.41406-.20704.34375-.23046.28125-.25.21875-.26563.16406-.28125.11328-.28125.0625-.28516.01953-.28125-.03906-.3828-.1211-.34767-.1914-.30859-.25-.26172-.30078-.21484-.34766-.15625-.3789-.10156-.40625-.03125-.4336.03125-.39843.09765-.35547.16797-.30469.23438-.25.30468-.1836.375-.11718.44532-.03906.51953"/><path fill="#ffffe0" fill-rule="evenodd" d="M239.66016 340.44531h22.18359v-10.1914h-22.1836v10.1914"/><path fill-rule="evenodd" d="M243.16016 332.08594h.51172v6.29687h-.78907v-4.49219h-1.38672v-.55468l.5586-.0625.2539-.05469.22657-.08984.20312-.14063.17578-.21094.14063-.29296.10547-.39844m4.8164 0l.22656.01953.21875.05469.21094.08984.19531.1211.1836.15234.17187.17578.30078.41797.2422.49219.17968.54687.11328.57813.03906.59375-.03906.59375-.11328.58203-.17969.55468-.24219.50391-.30078.42578-.17187.17969-.1836.15234-.1953.125-.21095.08985-.21875.05859-.22656.01953-.23047-.01953-.21875-.0586-.20703-.08984-.19922-.125-.18359-.15234-.17188-.17969-.30078-.42578-.24218-.5039-.1797-.5547-.11327-.58202-.03906-.59375h.83593l.02735.5625.08203.5039.125.44531.16406.375.1914.30079.21094.21875.22266.13671.22656.04688.22656-.04688.22266-.13671.20703-.21875.1914-.30079.16407-.375.125-.4453.08203-.50392.02735-.5625-.02735-.5625-.08203-.5-.125-.43359-.16406-.36719-.1914-.29296-.20704-.21485-.22266-.1289-.22656-.04688-.22656.04688-.22266.1289-.21093.21485-.19141.29296-.16406.3672-.125.43358-.08203.5-.02735.5625h-.83594l.03907-.59375.11328-.57812.17969-.54688.24218-.49218.30078-.41797.17188-.17578.1836-.15235.19921-.12109.20703-.08984.21875-.0547.23047-.01952m5.08985 0h.5078v6.29687h-.78515v-4.49219h-1.39062v-.55468l.5625-.0625.25-.05469.23047-.08984.20312-.14063.17578-.21094.14063-.29296.10547-.39844m2.82422 2.17578h.78515l.01953-.3164.0586-.28516.10156-.25391.14062-.21484.1797-.17188.22265-.1289.26562-.08204.3086-.02734.23828.02344.22265.0625.20313.10156.17969.13672.14843.17187.11329.20704.07421.23437.02344.26563-.02344.26953-.0625.22265-.11328.19531-.15234.16797-.20313.16407-.24609.16406-.63281.39062-.53906.3125-.4375.31641-.34766.32422-.26172.33594-.1914.35156-.125.3711-.06641.39062-.02344.42187h4.21094v-.74219h-3.33203l.08593-.28515.11329-.23438.14843-.20312.1875-.17969.23047-.17187.27735-.17579.71875-.41406.41406-.20703.34375-.23047.28125-.25.22265-.26953.16016-.27734.11328-.28516.0625-.28515.01953-.28125-.03906-.38282-.1211-.34765-.1914-.3086-.25-.26172-.30078-.21093-.34766-.16016-.3789-.09766-.40625-.03515-.4336.03515-.39844.09766-.35546.16797-.3047.23437-.25.30079-.18358.375-.1172.4453-.03905.51954"/><path fill="#ffffe0" fill-rule="evenodd" d="M158.03516 423.4961h22.17968v-10.19141h-22.17968v10.1914"/><path fill-rule="evenodd" d="M161.53516 415.13672h.5078v6.29687h-.78905v-4.49218h-1.38672v-.5547l.5586-.0664.2539-.05078.23047-.08984.20312-.14453.17188-.20704.14062-.29687.10938-.39453m4.8125 0l.23047.01953.21875.05469.20703.08984.1953.1211.1836.14843.17188.17578.30078.42188.2461.49219.17968.54687.10938.57813.03906.58984-.03906.59375-.10938.58594-.17969.55469-.2461.5-.30077.42968-.17188.17969-.1836.15234-.1953.125-.20703.08985-.21875.0586-.23047.01952-.23047-.01953-.21875-.0586-.20703-.08984-.19532-.125-.1875-.15234-.16797-.17969-.30468-.42969-.24219-.5-.17969-.55468-.11328-.58594-.03516-.59375h.83204l.02734.5664.08203.50391.1289.4414.16016.375.19141.30079.21094.22266.22265.13671.22657.04688.22656-.04688.22266-.13671.21093-.22266.1914-.30078.16017-.375.125-.4414.08203-.50391.03125-.56641-.03125-.5586-.08203-.5-.125-.4375-.16016-.36327-.1914-.29297-.21095-.21485-.22265-.13281-.22656-.04297-.22657.04297-.22265.13281-.21094.21485-.1914.29296-.16016.36329-.1289.4375-.08204.5-.02734.55859h-.83203l.03515-.58984.11328-.57813.17969-.54687.24219-.4922.30469-.42187.16796-.17578.1875-.14844.19532-.12109.20703-.08984.21875-.05469.23047-.01953m5.08984 0h.51172v6.29687h-.78906v-4.49218h-1.38672v-.5547l.5586-.0664.2539-.05078.22656-.08984.20313-.14453.17578-.20704.14062-.29687.10547-.39453m2.82422 2.17578h.78516l.02343-.3164.0586-.28516.09765-.2539.14063-.21485.17969-.17578.22265-.12891.26563-.07813.30859-.02734.23828.01953.22266.0625.20703.10156.17969.14063.14843.17188.11328.20703.07032.23437.02344.26563-.01954.26953-.0664.22265-.10938.19141-.15625.17188-.19922.16406-.25.16406-.6328.39063-.53907.3125-.4375.3164-.34375.32422-.26563.33594-.1914.35156-.125.3711-.0664.39062-.01954.42187h4.21094v-.74218h-3.33203l.08203-.28516.11328-.23438.14844-.20312.1875-.17969.23047-.17187.27734-.17578.71875-.41797.41406-.20313.34766-.23047.28125-.2539.21875-.26563.16406-.27734.10938-.28516.0625-.28515.02343-.28125-.04297-.38282-.12109-.34765-.1875-.3086-.25-.26171-.30469-.21485-.34375-.15625-.38281-.09765-.40625-.03516-.4336.03125-.39843.10156-.35547.16406-.30469.23438-.2461.30469-.1875.375-.11718.4453-.03906.51954"/><path fill="#ffffe0" fill-rule="evenodd" d="M306.23828 328.3789h22.17969v-10.1953h-22.17969v10.1953"/><path fill-rule="evenodd" d="M309.73828 320.01953h.50781v6.29297h-.78906v-4.48828h-1.38672v-.55469l.5586-.0664.2539-.0547.23047-.08984.20313-.14062.17187-.21094.14063-.29297.10937-.39453m4.8125 0l.23047.01953.21875.05469.20703.08984.19531.1211.1836.14844.17187.17578.30078.41796.2461.4961.17969.54687.10937.57813.03906.58984-.03906.59375-.10938.58594-.17968.55078-.2461.5039-.30078.42579-.17187.17969-.1836.15625-.1953.12109-.20704.09375-.21875.05469-.23047.01953-.23047-.01953-.21875-.05469-.20703-.09375-.19531-.1211-.1875-.15624-.16797-.1797-.30469-.42577-.24219-.5039-.17968-.55079-.11328-.58594-.03516-.59375h.83203l.02735.5625.08203.50781.1289.44141.16016.375.1914.30078.21094.22266.22266.13672.22656.04687.22656-.04687.22266-.13672.21094-.22266.1914-.30078.16016-.375.125-.4414.08203-.50782.03125-.5625-.03125-.5625-.08203-.5-.125-.4336-.16016-.36718-.1914-.29297-.21094-.21094-.22266-.1328-.22656-.04688-.22656.04687-.22266.13281-.21094.21094-.1914.29297-.16016.36719-.1289.4336-.08204.5-.02734.5625h-.83203l.03516-.58985.11328-.57813.17969-.54687.24218-.4961.30469-.41796.16797-.17579.1875-.14843.19531-.1211.20703-.08984.21875-.05469.23047-.01953m5.08985 0h.51171v6.29297h-.78906v-4.48828h-1.38672v-.55469l.5586-.0664.2539-.0547.22656-.08984.20313-.14062.17578-.21094.14063-.29297.10546-.39453m6.8047 1.61719h-.78516l-.05079-.21094-.08203-.1875-.10937-.15625-.1289-.13281-.14844-.10156-.16016-.07422-.16797-.04688-.17188-.01562-.32812.04297-.28516.11718-.24609.19922-.20703.26563-.16016.33984-.11328.40235-.07031.46875-.02344.52734.1875-.20313.1875-.16015.1836-.1211.1875-.08984.1875-.0586.1914-.03906.40235-.02343.30468.03125.32031.08984.31641.15625.29688.21875.2539.28516.19922.35156.07422.19922.05078.21875.02735.23437.0078.25-.78906.04688-.02734-.25781-.07812-.25-.1211-.23438-.16015-.21094-.19532-.17969-.21875-.13671-.23828-.08594-.25781-.03125-.2539.03125-.23829.08594-.22265.13671-.19141.1797-.16016.21093-.125.23438-.07421.25-.02735.2578.02735.25782.07421.2539.125.23438.16016.21094.1914.17578.22266.13672.23828.08984.25391.03125.25781-.03125.23828-.08984.21875-.13672.19532-.17578.16015-.21094.1211-.23437.07812-.25391.02735-.25781.78906-.04688-.03125.3711-.09375.37109-.15625.35938-.22266.32812-.28906.28516-.17188.11718-.1875.10157-.20703.08203-.22265.0625-.2422.03906-.26171.01172-.28125-.01563-.26172-.04687-.23437-.07422-.21875-.10547-.19532-.13281-.17187-.15625-.15625-.17969-.13281-.20312-.1172-.22266-.09765-.24219-.14844-.53515-.08593-.58985-.02735-.64062.03907-.7461.11328-.66015.1875-.57813.1211-.25781.13671-.23047.15234-.20703.17188-.17969.1875-.15625.19922-.1289.21875-.10157.23437-.07421.2461-.04297.26171-.01563.3672.03125.33202.09766.29297.15234.25781.19922.21094.23828.16797.27735.11328.30078.0625.3203"/></g></defs><use xlink:href="#aw"/></svg>