<svg xmlns="http://www.w3.org/2000/svg" role="img" xmlns:xlink="http://www.w3.org/1999/xlink" viewBox="142.45 309.95 326.84 171.84"><defs><clipPath id="a"><path d="M144 311.67188h1v168.65625h-1zm0 0"/></clipPath><clipPath id="b"><path d="M144 311.67188h324v168.65625H144zm0 0"/></clipPath><clipPath id="c"><path d="M391 479h4v1.32813h-4zm0 0"/></clipPath><clipPath id="d"><path d="M467 311.67188h1v168.65625h-1zm0 0"/></clipPath><clipPath id="e"><path d="M144 479h4v1.32813h-4zm0 0"/></clipPath><clipPath id="f"><path d="M147 480h2v.32813h-2zm0 0"/></clipPath><clipPath id="g"><path d="M153 480h9v.32813h-9zm0 0"/></clipPath><clipPath id="h"><path d="M160 480h3v.32813h-3zm0 0"/></clipPath><clipPath id="i"><path d="M166 479h9v1.32813h-9zm0 0"/></clipPath><clipPath id="j"><path d="M173 479h3v1.32813h-3zm0 0"/></clipPath><clipPath id="k"><path d="M180 479h8v1.32813h-8zm0 0"/></clipPath><clipPath id="l"><path d="M187 479h3v1.32813h-3zm0 0"/></clipPath><clipPath id="m"><path d="M193 479h8v1.32813h-8zm0 0"/></clipPath><clipPath id="n"><path d="M200 479h3v1.32813h-3zm0 0"/></clipPath><clipPath id="o"><path d="M206 479h9v1.32813h-9zm0 0"/></clipPath><clipPath id="p"><path d="M213 479h3v1.32813h-3zm0 0"/></clipPath><clipPath id="q"><path d="M220 478h8v2.32813h-8zm0 0"/></clipPath><clipPath id="r"><path d="M225 479h3v1.32813h-3zm0 0"/></clipPath><clipPath id="s"><path d="M234 478h7v2.32813h-7zm0 0"/></clipPath><clipPath id="t"><path d="M247 478h7v2.32813h-7zm0 0"/></clipPath><clipPath id="u"><path d="M252 478h2v2.32813h-2zm0 0"/></clipPath><clipPath id="v"><path d="M260 478h8v2.32813h-8zm0 0"/></clipPath><clipPath id="w"><path d="M265 478h3v2.32813h-3zm0 0"/></clipPath><clipPath id="x"><path d="M273 478h8v2.32813h-8zm0 0"/></clipPath><clipPath id="y"><path d="M279 478h2v2.32813h-2zm0 0"/></clipPath><clipPath id="z"><path d="M286 479h9v1.32813h-9zm0 0"/></clipPath><clipPath id="A"><path d="M292 479h2v1.32813h-2zm0 0"/></clipPath><clipPath id="B"><path d="M300 478h8v2.32813h-8zm0 0"/></clipPath><clipPath id="C"><path d="M305 479h3v1.32813h-3zm0 0"/></clipPath><clipPath id="D"><path d="M313 479h8v1.32813h-8zm0 0"/></clipPath><clipPath id="E"><path d="M319 479h2v1.32813h-2zm0 0"/></clipPath><clipPath id="F"><path d="M326 479h9v1.32813h-9zm0 0"/></clipPath><clipPath id="G"><path d="M332 479h2v1.32813h-2zm0 0"/></clipPath><clipPath id="H"><path d="M340 478h8v2.32813h-8zm0 0"/></clipPath><clipPath id="I"><path d="M353 478h8v2.32813h-8zm0 0"/></clipPath><clipPath id="J"><path d="M366 478h8v2.32813h-8zm0 0"/></clipPath><clipPath id="K"><path d="M380 478h8v2.32813h-8zm0 0"/></clipPath><clipPath id="L"><path d="M395 476h4v4.32813h-4zm0 0"/></clipPath><clipPath id="M"><path d="M409 476h3v4.32813h-3zm0 0"/></clipPath><clipPath id="N"><path d="M419 480h9v.32813h-9zm0 0"/></clipPath><clipPath id="O"><path d="M425 480h2v.32813h-2zm0 0"/></clipPath><clipPath id="P"><path d="M433 479h8v1.32813h-8zm0 0"/></clipPath><clipPath id="Q"><path d="M446 478h8v2.32813h-8zm0 0"/></clipPath><clipPath id="R"><path d="M452 479h2v1.32813h-2zm0 0"/></clipPath><clipPath id="S"><path d="M459 479h9v1.32813h-9zm0 0"/></clipPath><clipPath id="T"><path d="M465 479h3v1.32813h-3zm0 0"/></clipPath><clipPath id="U"><path d="M144 466h4v2h-4zm0 0"/></clipPath><clipPath id="V"><path d="M144 452h4v3h-4zm0 0"/></clipPath><clipPath id="W"><path d="M144 439h4v3h-4zm0 0"/></clipPath><clipPath id="X"><path d="M144 426h4v2h-4zm0 0"/></clipPath><clipPath id="Y"><path d="M144 412h4v3h-4zm0 0"/></clipPath><clipPath id="Z"><path d="M144 399h4v3h-4zm0 0"/></clipPath><clipPath id="aa"><path d="M465 397h3v3h-3zm0 0"/></clipPath><clipPath id="ab"><path d="M144 386h4v2h-4zm0 0"/></clipPath><clipPath id="ac"><path d="M144 373h4v2h-4zm0 0"/></clipPath><clipPath id="ad"><path d="M144 359h4v3h-4zm0 0"/></clipPath><clipPath id="ae"><path d="M144 345h4v4h-4zm0 0"/></clipPath><clipPath id="af"><path d="M466 346h2v4h-2zm0 0"/></clipPath><clipPath id="ag"><path d="M144 332h4v3h-4zm0 0"/></clipPath><clipPath id="ah"><path d="M144 318h4v5h-4zm0 0"/></clipPath><clipPath id="ai"><path d="M466 319h2v3h-2zm0 0"/></clipPath><g id="aj" clip-path="url(#clip1)"><path fill="#fff" fill-opacity="0" fill-rule="evenodd" d="M0 0h1000v1000H0zm0 0"/><path fill="#d3d3d3" fill-opacity="0" fill-rule="evenodd" d="M162.15234 355.86719l-.23437.29297.0586.23437.11718.17188.17578.23437.29297.34766.11328.0586.11719-.17188.0586-.23438.17577-.17578.46485-.17578h.69922l.23437.29297.28906.8164.0586.17579.17578.23046.35156.23438.69922.69922.17188.17578.23437.34765.23438.41016.28906.58203.41015.46485.23047.23437.23438.17578.11719.23047.17578.29297.17187 1.16406v.23438l.0586.28906.05859.11719.11719.11719.34765.41015.11719.17188.17578.17578.17578.23437.11719.17188.17188.35156.05859.23438.23437.40625.23438-.0586-.17578.17578-.0586.92969h-.58203l-.23437-.11328-.34766.11328-.11719.11719-.05859.29297-.0586.17578-.11718.17187-.46484.29297-.0586.23438-.0586.11328v.64453l.0586.17187v.41016l.0586.0586v.40624l.05859.40625.11719.17579.05859.05859.23047.64062-.0586.29297v.69922l-.05859.58203v.23438l-.0586.23047-.05468.35156v1.92187l.05469.1172h.42578l-.36719.11718-.02344.35156.89063 1.16797 1.74219.53906 1.33984.35938v.53906l.08984.8086.53516.71484 1.51953.26953.89063-.08594.08984 1.16406.53516.1797 1.16015-.1797 2.05469-.98437 1.16016-.36328 1.8789-.17578 1.69531-.1797-.17968.71876-1.51563.08594-1.25.08984-.80469.26953-1.07421.8086.26953.71875.53515.89843-.17968.625-.26563.8086.26563 1.07812.625.89844.80468.17969 1.25-.1797-.26562.72267.09766.5039.05468.29297v.17188l.0586.29296v.40625l.17578.1172.35156.11718h.40625l.29297-.17578.11328-.11719.0586-.11719.11718-.23047.0586-.17578.35156-.46484.23047-.17578.17578-.0586.17578.0586.0586.17578.11718.98828.05469.46875.0586.17188.11718.23437.17578.0586.8164.05859h.28907l.11719.23437.05859.40625.0586.35156v1.10547l.11718.29297.11719.34766.28906.69922.17578.35156.58203.7539.35157.17579.17187.0586.46875.23437.64063.46484.34765.23438.29297.17578.29297.05468.23047.0625.8164.34766.29297.17578.11328.17188.35157.35156.11719.17578.52343.64063v.28906l.0586.35156v.34766l.05859.35156.0586.28906.11718.0586.17188.05859h.17578l.58203.23437.17578.1172.17578.28905.17578.23438.11328.23437.29297.23047.11719.11719v.41016l.0586.05468.28906.23438.23437.11719.0586.11718.11718.17188.0586.11719.23047.23437.05859.17578.23437.0586.1172.05859-.1172.11328-.05859.11719v.11719l-.11719.29296-.11719.28907v.58203l.17579.11719.11718.05859.0586.11719.11719.11719.11328.05859.17578.34765.0586.35157.05858.40625v.17578l-.05859.17578-.11719.69922v.17187l.1172.17579.29296.29296h.40625l.17578.1172.11719.17187.11719.29296v.23438h-.52735l-.23047-.23438h-.23437l-.17578.0586-.0586.69922.0586.34765.11719.17579.17578.41015.11718.23047.28907.46875.17578.05469h.52344l.23437.0586.75781.64062.0586.29296v.23438l.05859.0586.23047.34765v.35156l-.11719.17188v.29297l.29297.28906.29297.17578.17187.0586.29297.17577.29297.1172.58203.40624.28906.23438.29297.17578.21875.16015.01563.01172.23047.17579.64062.52343.17578.23438.1172.17578.17577.17578.11328.17188v.64062l.1172.17578.46874.11719.58203.11719.23438.05859.23047.11328.29297.11719.11328.0586.58593.35156.28907.17187.17578.0625.17578.05469.17578.0586.69922.35155.28906.17579.23438.05468.28906.17578.23437.1172.64063.40624.29297.11719.17187.0586.23438.05859.41015.05859.23047.0586.23438.11718.0586.17188-.41017.17578.46875.0586.0586.29296.11328.23438.17578.05468.23438.0586.17578.05859.40625.11719.64062.23437.11719.17188.0586.23437v.17578l-.0586.1172-.0586.40624.23438.23438.11719.05859.34766.11719.64062.23047.17578.11718.28906.1172.17578.17577.23438.46485.58203 1.10546.17578.17579.34766.17578.17578.11719.35156.11718 1.04688.52344.23437.0586.46485.11327.29297.0586.46484.17578.75781.58203.23438.23438.34765.46484.17578.17578.28907.23438.8164.69921.29297.17579.28906.28906.29297.17578.29297.28906.69531.64063.17578.17578.29297.23437.28907.23438.46875.28906.64062.58203.34766.23438.23437.29297.34766.34765.35156.46485.9336.99218.34765.40625.11719.17579.23437.05859.11328.11719.64454.17578.23047.11328.23437.0586.29297.17577.23047.1172.9336.69921.40624.40625.23438.17578.40625.17578.23437.11719.8164.34766.34766.23437.23438.11719.29297.28906.23047.11719.7578.35156.35157.17188.23047.05859.29297.11719.23437.0586.8711.17577h.8164l.46875.23047.17188.0586.875.69921.46484.1172.29297.05858.17578.0586.23047.0586.46875.05859.34766.05859.35156.0586.40625.05859h.29297l.17187.0586v.23046l.17578.17578h.29297l.34766.0586.35156.05859.69922.11719h.64063l.46484-.23438.29297-.17578.17187-.11719.41016-.17187.28906-.17578.9336-.46485.46875-.29297.52343-.29296.46485-.17188.46484-.17578 1.05078-.46485.28906-.11718.41016-.11719.28906-.11719.52735-.17578 1.51562-.69922.58203-.34765.28907-.0586.29297-.0586.34765-.11718.875-.23047.35156-.11719h.11329l.23437-.05859.875-.23437.23438-.0586h.8125l.35156-.0586.8164-.11718.17188-.0586.35156-.05468.29297-.0586.23047-.05859.8164-.17578.17579-.0586h.34765l.23438-.05859.46484-.11718.75781-.17188.23438-.0586h.34765l.41016-.11718.28906-.0586 1.28516-.05859h.28906l.41016-.0586.23047-.05858h.17578l.875-.1172h.40625l.41015-.11718h.34766l.35156-.11328.8711-.0586h1.75l1.04687.28907.41016.11719.28906.11718.35156.11719.28907.11719 1.05078.17187.28906.0586h.29297l.29297.05859.17187.0586.41016.05859.17187.0586.1172.05858h.11718l.11719.0586.35156.0586h.11328l.41016.0664 1.92187.39453 1.92578.39453 1.51953.44922 1.69532.71875 2.14453.80469 1.60547-.71875 1.42968-.80469 1.16016-1.07813 1.25-.44921 3.03516-.71875 1.875-.35938 2.14453-1.34765 2.23437-1.25391 2.5-1.25781 1.69531-.44922 1.78516-.17969 1.16016-.26953.625.53906 1.33984-.26953.71485-.98828.98437-1.34375.44531-.17969.80469-.35937 1.875-.53907 1.78516-.44921 1.25-.26954 1.16015-.08984 1.69922-.08984 1.96094-.26954 1.25-.08984h.53906l.625-.08984h.89063l2.14453-.17969 2.41015-.17969 2.58985-.08984 1.69531.17969 1.60938.08984 1.42968.35938 1.16016.71875 1.875.98828 1.16015 1.52734.26563.71484.6289.08985.35548.89844.53515.53906.53516 1.52734 1.07422.35938h.53515l-.80469.53515.08985 1.70703.71484 2.69532.89063.80468.89453.98829.71484 1.2578 1.78516.53907 1.51953-.17969.35547 1.34375 1.60937-.80469.98047-.53906.26953.26953.31641-.21484.21875-.14453.80078.44922.44922-.35938h.35547l.53515-.26953.53907-.71875.53515-.26953.625-.98828 1.16016.44922.83984.3711 1.39454.61718 1.6953-.17969h1.60548l1.78515.08985.17969-1.70704.53516-1.34375.80468.26954.4922.84765.40233.40625-.08984.53906v.35938l.71485.44922.71093-.26953h1.42969l.35938.98828.4453 1.25781.71485 1.34375 1.25.6289 1.69531.62891.71485-.17969.17969-.53906.98046-.08984.44922.35937.08594 1.25782-.26563.6289-.53515.17969v.53906l.71484.98438.26563.53906.98437.98828.80078 1.07813-.26562.35937-.08985.89844-.625 2.33203-.35546 2.0664-.08985 1.79298-.17969.71875-.08984.53906v1.4375l-.98047 1.88281-.35937 1.70703-.53516.89844-.80469 1.16797-.26562.53906 2.05469 1.2539.08593.35938-.35546.53906-.08985-.17968v.80859l.08985 1.4375-.44532.71484-1.07422.09375-.26562.71485.53515.89844.8047.71875 1.16015.80859 1.33984.26953.44531.35938-.35546.44921-1.78907-.08984-1.25-.44922-.71484-.71875-.625-.08984-.17578 3.58984-.1875 1.3086h89.35937V311.70313h-55.26953v49.08203l.76172.125 3.28906.54296 2.02344 2.83594v2.7539l2.35156.33204 2.34766.33203h4.05078l-1.3789 4.16016-2.02344.70703-2.02344.70312-.54297.34375-2.59375 1.6172-.1875.11718-2.02344-2.07813-.73046-2.74218-2.67188-2.07813-1.375-3.5-.0664-.08203-1.95704-2.67188 2.75-1.41796v-49.08204H294.42187v91.41407l.1172.03125.1328.01172.07422.07421.10547.04688.08985.0586.08593.05859.08985.0586.29687.29687.0586.08984.03125.11719.02734.11719.01563.13671-.03125.1172-.0586.08983-.0586.08594-.04296.10547-.04688.10156-.02734.1211v.14453l.17578.26953.14844.14844.07422.08594.07422.07421.04296.10547.0625.08985.0586.08593.04297.10547.0586.08985.04687.10156.04296.10547.0586.08594.11719.17968.07421.07422.0625.08594.0586.08984.04297.10547.0586.08985.05858.08593.0625.08985.0586.08984.04297.10156.11719.17969.07421.07422.0586.08594.07422.07421.08984.0586.10547.04687h.14844l.1328-.01562.13282.01562.10156-.04687.07422-.07422.04688-.10156-.01563-.13281v-.14844l-.04687-.10547-.02735-.11719-.04687-.10156-.02735-.1211-.04296-.10156-.0625-.08984-.04297-.10156-.04297-.10547-.03125-.11719-.01563-.13281-.01171-.13672.08593-.0586.0586-.08593.12109-.03125.04297.10547.01562.1328v.1172l.0586.10156.0586.08984.08983.0586.14844.14843.0586.08985.04296.10547-.01171.10156.08593.0586.10547.04687.08594.0586.08984.05858.07422.07422-.11719.02735-.10546.04687-.08594.0586-.07422.07421-.0586.08985-.0625.08594-.02734.12109-.04687.10156-.04297.10547-.03125.11719-.01172.13281-.01563.13281v.14844l.02735.11719.04687.10547.04297.10156.0586.08984.07421.07422.08985.0586.07422.07421.08984.0586.0586.08984.04296.10547.04688.10156.11719.03125.1328.01563h.14845l.11718-.03125.10547.04297.04297.10547.04688.10156.02734.1211L299.5 410l.02734.11719.03125.1211.02735.11718.10547.04297.10156.04687.13281-.01562.14844.14844.0625.08593.07422.07422.07031.07422.08984.0625.10547.04297.10156.04297.1172.03125.13671.01562.11719-.03125.07422-.07422.02734-.11718-.01172-.13282-.03125-.12109-.02734-.11719.04297-.10547h.11719l.08984.0625.11719.02735h.14843l.13282.01562h.14843l.13282.01563.1328-.01563h.14845l.1328-.01562.13282-.01172.13672.01172.11719-.02735.13281-.01562.1914-.0586-.05859.17579-.01562.1328-.02735.1211-.01562.13281-.0586.08594-.1328.01563-.10548.04687-.10546.04297-.1172.03125-.11718.02735-.26563.03125h-.14843l-.13281.01562-.07422.07422.05859.08594.14844.14843.11719.1797.07421.0703.08985.0625.08984.0586.08594.0586.08984.05858.10156.04297.10547.0625.10547.04297.08594.0586.10547.04687.10156.04297.17969.11719.0586.08984-.04298.10156-.04687.10547.01562.13281.22266.22266.0586.08985.04296.10156.03125.1211.04297.10155.01563.13282.03125.11718.01171.13672.03125.11719.14844.14844.10156.04297.10547.04296.1172.03125.1328.01563.13672.01563h.11719l.11719-.03125.08984-.0586.04297-.10547.04688-.10156.04296-.10547.03125-.11719.01172-.1328v-.14845l-.01172-.1328-.01562-.13282-.03125-.11719-.04297-.10547-.04688-.10547-.04296-.10156-.04297-.10547-.01563-.13281.01563-.13281.02734-.11719.03125-.11719.02735-.1211.04687-.10155.08984-.0586.08594-.0625.07422-.07422.08984-.05859.22266-.22266.0586-.08593.07421-.07422.11719-.17969.0586-.08594v-.14844l-.07423-.07421-.10156-.04688-.10547-.04297-.10156-.04297-.0586-.08984-.04687-.10547-.02734-.11719.08984-.05859.11719-.03125.10156-.04297.17969-.11719.14844-.14843.01172-.13282-.01172-.10546-.08985-.0586-.1328.01563h-.14845l-.1328.01562-.13282-.01562-.1211-.03125-.08593-.0586-.07422-.07422-.0586-.08984-.0625-.08594-.11718-.17969-.0586-.08593.03125-.1211.08594-.05859.1211-.03125.05859-.08594v-.1211l-.03125-.11718-.0586-.08984-.05859-.08594-.04687-.10547-.02735-.11719-.01562-.1328.0586-.08985.07421-.07422.08984-.0586.1172-.17968.07421-.07422.0586-.08594.14843-.14844.1211-.03125.1328-.01562.13282.01562.07422.07422.04297.10547.01562.13281-.03125.1172-.11719.03124-.1328.01172-.14844.14844-.04297.10547-.04688.10156-.02734.1211-.03125.11718v.14844l.03125.11719.04297.10546.05859.08985.07422.07031.07422.07422.11719.03125.12109.02734.11719-.02734.1328-.01563h.1172l.08984.0586.07422.07422.04687.10546.0586.08594.10156.04688.13281.01562.10547.04297.08594.0586-.01172.10546-.07422.07422-.17969.11719-.05859.08984-.08984.0586-.07032.07422-.07421.07421-.0625.08985-.02735.11719-.01562.1328.01562.13282-.01562.13281v.14844l.01562.13281.02735.1172.03125.12108.07421.07422.08985.0586.08594.0586.08984.05858.11719.03125v.08594l-.10157.04688-.08984.0586-.26563.03124-.11718.02735h-.14844l-.10547.04296-.10156.04688-.0586.08984-.0625.23438-.01171.13281-.03125.1211-.01563.1328v.29298l-.01172.1328.01172.13673.01563.1328.1328.01563.13282.01172.1211.03125.08593.0586.07422.07421.04688.10547.04296.10157.01563.1328v.44532l-.01563.13281v.44532l.03125.26562.02735.11719.01562.13281.03125.11719.08594.21094.03125.26562v.14844l-.03125.11719-.02734.11718-.03125.1211-.02735.11719-.03125.11718-.03125.1211-.01171.1328-.01563.13282.08984.0586.1172-.03125.10155.01562.04688.10547-.03125.26562v.44141l-.04297.10547-.04688.10547-.04296.10156-.04297.10547-.0586.08594-.03125.12109-.04296.11719-.03125.11719-.01563.1328.01563.13282.05859.08984.10547.04688.08594.0586.05859.08593-.01172.13672-.03125.11719-.04297.10156v.44531l-.01562.13281v.14844l-.03125.11719-.04297.10547-.02735.11719-.04687.10546-.04297.10157-.03125.12109-.02734.11719-.03125.13281-.03125.11719-.02735.11719-.04297.10546-.03125.1172-.03125.12108-.01171.13282-.01563.13281v.29688l.02734.11718v.14844l.04688.39844.02734.11719.0586.08984.12109.03125h.14844l.13281-.01563.0586.08985v.11719l-.0586.08984-.08984.0586-.10157.04296-.10546.04688-.08985.05859-.08594.0586-.13671.01562-.1172-.03125-.1328-.01563-.10157.04688-.0625.08594-.01172.13671-.01562.13282-.03125.11719-.02735.11718-.01562.13281-.03125.1211v.29687l.01563.13282.03125.11718v.14844l.01171.13281v.14844l-.02734.11719-.04688.10156-.02734.1211-.03125.11718-.0586.08985-.07421.07421-.10156.04297-.10547.04688-.11719.02734-.1211.03125-.10156-.04687.0586-.08594.10547-.04688.02734-.11718.03125-.11719.02734-.1211.03125-.11718v-.14844l.01563-.13281-.03125-.11719-.04297-.10547-.10547.01563-.07422.07422-.10156.04296-.08984.0625-.07422.07422-.04297.10157-.01563.1328-.03125.1172L304.25 426l-.03125.11719-.02734.11719-.03125.12109-.02735.11719-.03125.11718-.04297.10547-.08984.0586h-.08984l-.1172-.03125-.03124-.08594.01562-.13672-.03125-.11719v-.14844l-.01171-.1328v-.14844l-.0625-.23438-.02735-.1211-.04297-.10156-.04687-.10546-.0586-.08594-.05859-.08985-.04297-.10546-.0625-.08594-.14844-.14844-.0703-.07422-.10548-.04687-.10547-.04297-.10156-.04297-.29687-.29688-.08985-.07421-.08594-.0586-.10546-.04297-.08985-.0625-.08594-.0586-.10546-.04296-.08985-.0586-.08594-.0625-.07421-.0703-.10547-.04688-.08594-.0586-.10547-.04296-.08984-.0625-.10156-.04297-.10547-.04297-.08594-.0586-.10547-.04687-.10547-.04297-.10156-.04687-.08985-.0586-.10156-.04297-.10547-.04296-.08984-.0625-.11719-.02735-.13281-.01562-.13281.01562H299.75l-.13281.01563-.11719-.03125-.08984-.0586-.07422-.07422-.08985-.05859-.10156-.04688h-.14844l-.12109-.02734-.10156-.04297-.07422-.07422-.11719-.17968-.08984-.0586-.10156-.04297-.08985-.0625-.10547-.04296-.08984-.0586-.08594-.0586-.10547-.04687-.0586-.08594-.05858-.08984-.04297-.10547-.04688-.10156-.07422-.07422-.08594-.0586-.07421-.07421-.08985-.0586-.22265-.22265-.04297-.10547-.03125-.26563.10547-.04296h.14453l.10547.04296.07421.07422.08985.0586.08594.0586.10546.04687.08985.05859.14844.14844.0703.07422.14845.14843.0625.08594.07421.07422.08594.0586.07422.07421.08985.0625.08984.0586.08594.05859.26953.17578.10156.04688.10547.04296.10156.04297.04688-.07421.05859-.08594.07422-.07422.07031-.07422.10547.04297.07422.07422.0586.08984.04296.10156.04688.10547.04296.10547.1211.02735.11719-.02735.07421-.08984.04297-.10547.0586-.08985.07422-.07421.10546-.04297.1172-.02735.1328.01172.08985.0586.14844.14843.05859.08985.04297.10547.04687.10156.04297.10547.04297.10156.10547.04688.10547.04296.13281.01563.08594-.0586.0586-.08984.07421-.07422.10547-.04297.11719.02735.10547.04687.10156.04297.10547.04297.10156.04688.17969.11718v.11719l-.01563.13281.01563.13281.01562.13672.0586.08594.10156.04688.1211.02734.11718.03125h.14844l.11719-.03125.05859-.08984.17969-.1172.05859-.08983.07422-.07422.0586-.08594.11718-.17969.17969-.11719.11719.03125.08984.0586.04297.07422-.01563.1328v.1172l.08985.05859h.14843l.13282-.01563.1328-.01171.26563-.03125.10547-.04297.11719-.03125.1211-.02735.07421-.07421.07031-.07422.0625-.08985-.01562-.10547-.04688-.10156-.10156-.04297-.10547-.01562-.11718.02734-.26563.03125h-.14844l-.07421-.07422-.08985-.0586-.11719-.03124-.11718-.02735-.13282-.01562h-.14843l-.13282.01563h-.29687l-.10547-.04688-.14844-.14844-.04297-.10156-.05859-.08984.22266-.22266.08593-.0586.10547-.04296.11719-.03125.13281-.01563.13281.01563.13672.01562.10157.04297.1328-.01172.08985-.0625.10156-.04297.0625-.08984-.04687-.10156-.08984-.0586-.1172-.03125-.10155-.04296-.0586-.08985-.0625-.08984v-.11719l.01563-.13281.10547-.04688.07421-.07031v-.1211l-.08984-.05859-.03125-.11719.08985-.05859.07421-.07422.04297-.10547.0586-.08984.04687-.10156.01563-.13281v-.14844l-.04688-.10547-.04297-.10156-.08984-.0586-.13281-.01562-.10157-.04297-.13671-.01563-.1172-.03125h-.4453l-.13282-.01562-.13281-.01172-.13281-.01563-.11719-.03125h-.14844l-.13281-.01562-.13281-.01172-.26563-.03125-.1211-.04297-.08593-.0586-.07422-.07421v-.14844l.01172-.13281.10547-.04688.10156-.04296.13281-.01563h.15235l.13281-.01562h.29297l.1211.03125.10156.04296.08984.0586.23438.0625.12109-.04688.08984-.05859.10156-.04297.13282-.01562.10547.04296.10156.04688.13281.01172.1211-.02735h.14453l.12109-.03125.11719-.02734.10547-.04687.07421-.07422.08594-.0586.14844-.14843.0586-.08594.04687-.10547.02734-.11719.01563-.10547-.10156-.04296-.08985-.0586-.11719-.03125-.10546-.04297-.08985-.0625-.07422-.08594-.07422-.07421-.10156-.04297-.10547-.04688-.10156-.04297-.0586-.08984-.04687-.10156-.08594-.21094-.0625-.08594-.05859-.08984-.07422-.07422-.08594-.0586h-.26953l-.11719.03126-.08984.05859-.10156.04297-.13281.01562-.10547-.01562-.02735-.11719-.0625-.08984-.11718-.03125-.10157-.04297-.14843-.14844-.03125-.11719-.01563-.10546.07422-.07422.17969-.1172.11719-.02733.11718-.03125.13672.01562.10156.04297.10547.04297.10156.04687.10547.04297.1172.03125.1328.01563.1172.02734.1328.01563.10547-.01563.08985-.0586-.07422-.07421-.10547-.04297-.07422-.07422-.07422-.08984-.14844-.14844-.08593-.0586-.08985-.05859-.07422-.07422-.08984-.0586-.10156-.04687-.1211-.02734-.10156-.04688-.10547-.04296-.11719-.03125-.10156-.04297-.1211-.03125h-.14843l-.11719.03125-.10546.04297-.08594.0625-.17969.11718-.08594.0586-.08984.0586-.10547.04687-.08594.05859-.10547.04297-.10156.04297-.10547.04687-.07422.07422-.05859.08985-.0586.08593-.04687.10547-.0586.08594-.07421.07422-.13281-.01172-.1172-.03125h-.11718l-.07422.07422-.08984.0586-.07422.07421-.08984.0586-.08594.05859-.10547.04687-.10156.04297-.13672.01563-.10156-.04297-.14844-.14844-.10547-.04688h-.08594l-.10547.04688-.10156.04297-.1211.03125-.11718-.03125-.07422-.07422v-.11719l.03125-.1211.07422-.0703.0586-.08985.07421-.07422.11719-.03125.10547-.04296h.29297l.13281-.01563.13672-.01563.10156-.04296.08985-.0586.10156-.04687.08984-.0586.13281-.01171.08985.05859.13281.01172.08984-.0586.08594-.05859.10547-.04297.08984-.0586.08594-.0625.08985-.05859.14843-.14843.0586-.08594.05859-.08985.10547-.04296.13281-.01563.11719.02735.1211.03125.05859-.0586.05859-.08984.03125-.26563.02734-.11719.10547.01172.13281.01563.10157-.04297.08984-.0586.0586-.08984.07421-.07422.0586-.08984.04687-.10156.01172-.13281-.01172-.13282-.04687-.10547-.14844-.14843-.0586-.08985-.05859-.08594-.04297-.10546v-.44532l.01563-.1328v-.14845l.01172-.1328-.0586-.0586-.08984.0586-.10156-.04298-.17969-.11719-.08594-.05859-.0625-.08984-.0586-.08985-.07421-.07421-.08594-.0586-.1211.03125-.10155.01172-.10547.04688-.08594.05859-.10547.04297-.14844.14844-.08984.05859-.08594.0586-.08984.0625-.10547.04296-.13281.01563v-.1211l.10547-.04297.11718-.03125.07422-.0703.04297-.10548v-.14844l-.02734-.11718-.14844-.14844-.13281-.01563h-.14844l-.11719.03125-.10547.04297-.10156.04297-.08984.0625-.11719.02735-.07422-.07422.01172-.13281-.04297-.10157-.04297-.10547-.08984-.05859-.11719.02734-.1211.03125-.11718.03125-.10156.04297-.1211.03125-.10156.04297-.10547.04297-.08984.0586-.10156.01562v-.11719l.01562-.13281-.0586-.08985-.07421.04297-.14844.14844-.0586.08985-.07421.07421-.04688.10547-.04296.10156-.07422.07422-.0586.08985-.07422.07422-.05859.08593-.07422.07422-.08984.0625-.07422.07031-.07422.07422-.10156.01563-.13281.01562-.10547-.04296v-.1211l.14843-.14844.04297-.10156.0586-.08984.04687-.10156.04297-.10547.0586-.08985.03124-.11719.04297-.10156.03125-.1211.02735-.11718.04687-.10547.04297-.10156.04297-.10547.07422-.07031.08984-.0625.08985-.0586.10156-.04296h.29687l.26563-.03125.10547-.04297-.07422-.07422-.11719-.03125-.10547-.04297-.08984-.0586-.10156-.04687-.08985-.0586-.10156-.04296-.10547-.04297-.08984-.0625-.08594-.0586-.10547-.04296-.10156-.04297-.1211-.03125-.11718-.03125-.10157-.04297L297.5 410.25l-.10156-.04297-.08985-.0586-.04296-.10546-.01563-.13281.10156-.04297.13281-.01563.13672.01563.13282-.01563.10156-.04297.0586-.08984.01562-.10547-.08985-.0586-.07421-.07421-.10157-.04297-.08984-.0586-.14844-.14843-.04297-.10547-.01562-.13281v-.29297l-.0586-.08985-.08984-.05859-.07422-.07422-.04297-.10547-.03125-.11718-.0586-.08985-.07421-.07422-.11719-.02734-.07422-.07422-.08984-.0586-.08984-.0625-.08594-.05859-.07422-.07421-.0586-.08594-.04687-.10547-.08594-.0586-.14843-.14843-.19532-.0586-.1328.01563-.10157.04297-.07422.07422-.04688.10156-.04296.10547-.0586.08984-.0586.08594-.29687.29687-.08984.0586h-.08594l-.0625-.08594-.04297-.10547.03125-.11719.0586-.08984.02734-.11719-.01172-.13281-.08984-.0625-.10547.04688-.11719.02734-.11719.03125-.26953.17578-.10156.04688-.11719.02734-.10546.04687-.08985.0586-.10156.04297-.0586-.08594-.04687-.10547.01563-.13281.04687-.10547.07031-.07422.07422-.07031.0586-.08985v-.14843l-.04297-.10547h-.23829l-.10156.04687-.03125.11719-.02734.11719-.03125.1211-.07422.04296-.13281.01563-.07422-.04688-.04297-.10156-.04297-.10547-.04687-.10156-.04297-.10547-.1211.03125-.10156.04297-.13281.01562-.11719.03125-.10547.04297-.08984.0586-.10156.04687-.1211.02734-.13281.01563-.10156-.04297-.0586-.08985-.04687-.10546-.04297-.10157-.04297-.10546v-.1172l.0586-.08984.08593-.05859.17969-.11719.10156-.04687.10547-.04297.10547-.0586.10156-.04296.08985-.0625.10156-.04297.10547-.0586.10156-.04687.08984-.0586.10547-.04296.10156-.04297.08985-.0625.10156-.04297.13672-.01563.11719.03125.10156.04297.1211.03125.10156.04297.10546.04688.10157.04296.10547.04297.10156.04688.10547.04297.10156.04297.10547.04687.08594.0586.10546.04296.1172.03125.10546.04297.10156.04688.08985.0586.10547.04296.10156.04297.10547.04687.11719.02735.10156.04687.1211.02735h.14843l.08594-.0586.01562-.10156.0586-.08984-.02735-.1172-.07422-.07421-.11719-.17969-.07421-.07422-.08985-.07421-.17969-.1172-.08593-.05859-.10547-.04296-.10156-.04688-.26954-.17578-.05859-.08985-.07422-.07421-.0586-.08985-.04296-.10156-.03125-.11719-.01563-.13672v-.5625l-.01171-.1328-.01563-.13282-.03125-.11719-.01562-.13281-.01172-.13281-.03125-.1211-.22266-.22265-.0586-.08594-.01562-.10547.03125-.11719.13281-.01562v-91.41406H172.9922v1.45312l-.0586.23438-.35156 1.05078-.17187.52343-.1172.34766-.17577.41016-.11719.17187-.23438.29297-.23046.0586h-.35157l-.11718.05859-.23047.40625v.29297l.11719.17578.23046.23047.1172.23437.64062.75781.29297.46485.17578.23437.23047.35156.23437.34766.64063.8164.17578.46485.17187.41016.11719.69531.17578.46875.11719 1.39844.0586.46484v.875l.11718 1.04688v4.78125l-.0586.46484-.35156 1.28125-.17578.52344-.11328.41015-.35156.9297L172.93359 336l-.23437.58203-.11719.17578-.17187.34766-.17578.40625-.35157.8164-.0586.29297-.11327.29297-.11719.28906-.0586.17579-.11718.875-.0586.40625-.05859.11718-.0586.17579-.05859.17187-.23047.52734-.11718.17188v.23437l-.11719.23438-.0586.17187-.17577.58594v.28906l-.0586.17579v.29296l-.0586.11329-.05859.52734v.17187l-.05468.23438v2.6211l-.17578.8164-.1172.17578-.17577.23438-.1172.17187-.11327.23438-.58594.93359-.23047.28906-.29297.46485-.17578.23437-.28906.35156-.35156.69922-.11328.23047-.17579.41016-.17578.23046-.40625.52735-.8164.69922-.29297.17187-.28906.23438-.17579.11719-.17578.17578-.52344.40625-.52734.17578-.17187.17578-.23438.05469-.64062.17578h-.75782m12.21094 31.02344l-1.07422.44921.35938.89454 1.25-.71485.44531-.53906-.98047-.08985"/><path fill="#d3d3d3" fill-opacity="0" fill-rule="evenodd" d="M201.50781 416.59766h-.89453l.44922.6289.98047.35938.80469-.08985.4453-.98828-.17577.08985-.71485-.35547-.89453.35547m154.6211 59.0703l-.0586-.52343v-.29297l.11328-.29297.0586-.23046.46875-.46875h.11328l.11719-.11329.11718-.05859h.17579l.23437-.0586h.34766l.23437.0586.11719.0586.23047.17187.0586.17578.11718.58203v.29297l-.11719.17578-.17187.28906-.17579.17579-.52734.52343-.23047.23438-.11719.0586h-.17578l-.11718-.0586-.40625-.29297-.17579-.11719-.11718-.0586-.0586-.11327-.05468-.1172m6.64062-10.95702l-.0586-.17188v-1.10937l.0586-.17188.17578-.0586.17188-.05858h.17578l.23437-.0586.1172.0586.05858.69921-.05859.17188-.11719.17578-.11718.0586-.23438.52343-.11328.0586h-.23438l-.05859-.1172m9.61328-14.39062l-.11719-.17578v-.69922l.29297-.875.1172-.17187.17577-.35156.11328-.23047.1172-.29297.35155-.75781.1172-.23047.17187-.23438h.17578l.11719-.0586h.64062l.11719.0586.23437.23438.17188.11328.35156.29297.11719.11718.11328.17579v.11328l.11719.05859.11718.11719v.69922l-.05859.17578v.23047l-.0586.17578-.34765 1.05078-.11719.23047-.11719.23437-.11718.0586-.23047.23437-.64063.28906h-.875l-.41015-.11718-.64063-.46485"/><path fill="none" stroke="#bebebe" stroke-linecap="round" stroke-linejoin="round" stroke-miterlimit="10" stroke-width=".5" d="M467.95703 311.69531H144.02734v168.625h323.9297v-168.625"/><g clip-path="url(#a)"><path fill="#fff" fill-opacity="0" fill-rule="evenodd" d="M144 475.89063v4.4375h.0039H144V311.67188h.0039H144v164.21875"/></g><g clip-path="url(#b)"><path fill="#fff" fill-opacity="0" fill-rule="evenodd" d="M144.0039 480.32813V311.67188h79.88673V431.3164l-.16407.1914.16406.17188.21094-.17188-.21094-.1914V311.67187h8.875v123.09375l-1.0039 1.1797 1.0039.90624 1.14844-.90625-1.14844-1.17969V311.67188h8.87891v126.25391l-2.67187 2.45703 2.67187 2.24219 2.86719-2.24219-2.86719-2.45703v-126.2539h39.94531v121.30078l-2.5664 2.97265 2.5664 2.58203 3.19532-2.58203-3.19532-2.97265V311.67187h93.20313v132.20704l-1.25781.9414 1.2578 4.04688 1.35548-4.04688-1.35547-.9414V311.67187h4.4414v138.75l-4.4414.04297-.63281 3.23438.6328.67969 1.91017 3.7578.35546 4.4375 2.17579 1.35157 2.98046-1.35156-1.28125-4.4375 2.73829-2.64453 3.36328 2.64453 1.07421 3.03515 4.4375.9375v.82032l-3.01562 4.08594 3.01563 3.39062 3.20312-3.39063-3.20313-4.08593v-.82031l4.28907-3.97266-1.03516-4.4375-3.2539-2.3789-2.3086 2.3789-2.1289 3.22656-2.46875-3.22656-1.96875-2.2539-4.4375-1.02344v-138.75h88.76171v168.65625h-73.9375l-1.51171-.66016-.64063.66015H144.00391"/></g><path fill="#50fcfc" fill-rule="evenodd" d="M223.89063 431.67969l-.16407-.17188.16406-.1914.21094.1914-.21094.17188m8.875 5.17187l-1.0039-.90625 1.0039-1.17969 1.14844 1.1797-1.14844.90624m8.87891 5.77344l-2.67187-2.24219 2.67187-2.45703 2.86719 2.45703-2.86719 2.24219m39.94531-4.09766l-2.5664-2.58203 2.5664-2.97265 3.19532 2.97265-3.19532 2.58203m93.20313 10.33985l-1.25781-4.04688 1.2578-.9414 1.35548.9414-1.35547 4.04688m0 5.51172l-.63281-.6797.6328-3.23437 4.44142-.04296 4.4375 1.02343 1.96875 2.2539 2.46875 3.22657 2.1289-3.22656 2.3086-2.3789 3.2539 2.3789 1.03516 4.4375-4.28906 3.97265-4.4375-.9375-1.07422-3.03515-3.36329-2.64453-2.73828 2.64453 1.28125 4.4375-2.98046 1.35156-2.17579-1.35156-.35546-4.4375-1.91016-3.75781m17.7539 16.02734l-3.01562-3.39063 3.01563-4.08593v3.96875l-.08204.11719.08204.09375.08984-.09375-.08985-.1172v-3.96874l3.20313 4.08594-3.20313 3.39062"/><path fill="#00e8fc" fill-rule="evenodd" d="M392.54688 467.10938l-.08204-.09375.08204-.1172.08984.1172-.08985.09375"/><g clip-path="url(#c)"><path fill="#50fcfc" fill-rule="evenodd" d="M391.90625 480.32813l.64063-.66016 1.51171.66015h-2.15234"/></g><g clip-path="url(#d)"><path fill="#fff" fill-opacity="0" fill-rule="evenodd" d="M467.9961 480.32813H468V311.67188h-.0039H468v168.65625h-.0039"/></g><g clip-path="url(#e)"><path fill="none" stroke="#000" stroke-linecap="round" stroke-linejoin="round" stroke-miterlimit="10" stroke-width=".5" d="M147.48438 480.78516l-6.96875-.91016"/></g><g clip-path="url(#f)"><path fill="none" stroke="#000" stroke-linecap="round" stroke-linejoin="round" stroke-miterlimit="10" stroke-width=".5" d="M147.48438 480.78516l.86328 2.29687"/></g><g clip-path="url(#g)"><path fill="none" stroke="#000" stroke-linecap="round" stroke-linejoin="round" stroke-miterlimit="10" stroke-width=".5" d="M160.82813 480.36328l-7.02735-.07031"/></g><g clip-path="url(#h)"><path fill="none" stroke="#000" stroke-linecap="round" stroke-linejoin="round" stroke-miterlimit="10" stroke-width=".5" d="M160.82813 480.36328l1.1289 2.17969"/></g><g clip-path="url(#i)"><path fill="none" stroke="#000" stroke-linecap="round" stroke-linejoin="round" stroke-miterlimit="10" stroke-width=".5" d="M174.09766 479.76172l-6.9336 1.13672"/></g><g clip-path="url(#j)"><path fill="none" stroke="#000" stroke-linecap="round" stroke-linejoin="round" stroke-miterlimit="10" stroke-width=".5" d="M174.09766 479.76172l1.48828 1.94922"/></g><g clip-path="url(#k)"><path fill="none" stroke="#000" stroke-linecap="round" stroke-linejoin="round" stroke-miterlimit="10" stroke-width=".5" d="M187.32422 479.36719l-6.75781 1.92578"/></g><g clip-path="url(#l)"><path fill="none" stroke="#000" stroke-linecap="round" stroke-linejoin="round" stroke-miterlimit="10" stroke-width=".5" d="M187.32422 479.36719l1.70312 1.76562"/></g><g clip-path="url(#m)"><path fill="none" stroke="#000" stroke-linecap="round" stroke-linejoin="round" stroke-miterlimit="10" stroke-width=".5" d="M200.69531 479.59766l-6.8711 1.46093"/></g><g clip-path="url(#n)"><path fill="none" stroke="#000" stroke-linecap="round" stroke-linejoin="round" stroke-miterlimit="10" stroke-width=".5" d="M200.69531 479.59766l1.57813 1.8828"/></g><g clip-path="url(#o)"><path fill="none" stroke="#000" stroke-linecap="round" stroke-linejoin="round" stroke-miterlimit="10" stroke-width=".5" d="M213.9336 479.29297l-6.71485 2.07031"/></g><g clip-path="url(#p)"><path fill="none" stroke="#000" stroke-linecap="round" stroke-linejoin="round" stroke-miterlimit="10" stroke-width=".5" d="M213.9336 479.29297l1.73827 1.73437"/></g><g clip-path="url(#q)"><path fill="none" stroke="#000" stroke-linecap="round" stroke-linejoin="round" stroke-miterlimit="10" stroke-width=".5" d="M227.10547 478.91406l-6.42969 2.83203"/></g><g clip-path="url(#r)"><path fill="none" stroke="#000" stroke-linecap="round" stroke-linejoin="round" stroke-miterlimit="10" stroke-width=".5" d="M226.17188 479.32422l.96093.75781"/></g><g clip-path="url(#s)"><path fill="none" stroke="#000" stroke-linecap="round" stroke-linejoin="round" stroke-miterlimit="10" stroke-width=".5" d="M240.14844 478.40625l-5.88281 3.84375"/></g><path fill="none" stroke="#000" stroke-linecap="round" stroke-linejoin="round" stroke-miterlimit="10" stroke-width=".5" d="M239.28906 478.96484l1.07813.59375"/><g clip-path="url(#t)"><path fill="none" stroke="#000" stroke-linecap="round" stroke-linejoin="round" stroke-miterlimit="10" stroke-width=".5" d="M253.57813 478.59766l-6.11329 3.46484"/></g><g clip-path="url(#u)"><path fill="none" stroke="#000" stroke-linecap="round" stroke-linejoin="round" stroke-miterlimit="10" stroke-width=".5" d="M252.6875 479.10156l1.03516.65625"/></g><g clip-path="url(#v)"><path fill="none" stroke="#000" stroke-linecap="round" stroke-linejoin="round" stroke-miterlimit="10" stroke-width=".5" d="M266.89844 478.60938l-6.125 3.4375"/></g><g clip-path="url(#w)"><path fill="none" stroke="#000" stroke-linecap="round" stroke-linejoin="round" stroke-miterlimit="10" stroke-width=".5" d="M266.00781 479.10938l1.03125.66406"/></g><g clip-path="url(#x)"><path fill="none" stroke="#000" stroke-linecap="round" stroke-linejoin="round" stroke-miterlimit="10" stroke-width=".5" d="M280.3125 478.79688l-6.32422 3.0625"/></g><g clip-path="url(#y)"><path fill="none" stroke="#000" stroke-linecap="round" stroke-linejoin="round" stroke-miterlimit="10" stroke-width=".5" d="M279.39453 479.24219l.98828.72656"/></g><g clip-path="url(#z)"><path fill="none" stroke="#000" stroke-linecap="round" stroke-linejoin="round" stroke-miterlimit="10" stroke-width=".5" d="M293.89844 479.58203l-6.86719 1.49219"/></g><g clip-path="url(#A)"><path fill="none" stroke="#000" stroke-linecap="round" stroke-linejoin="round" stroke-miterlimit="10" stroke-width=".5" d="M292.89844 479.80078l.79297.9336"/></g><g clip-path="url(#B)"><path fill="none" stroke="#000" stroke-linecap="round" stroke-linejoin="round" stroke-miterlimit="10" stroke-width=".5" d="M307.09766 479.16797l-6.63282 2.32031"/></g><g clip-path="url(#C)"><path fill="none" stroke="#000" stroke-linecap="round" stroke-linejoin="round" stroke-miterlimit="10" stroke-width=".5" d="M306.13281 479.5039l.90235.83594"/></g><g clip-path="url(#D)"><path fill="none" stroke="#000" stroke-linecap="round" stroke-linejoin="round" stroke-miterlimit="10" stroke-width=".5" d="M320.55469 479.70703l-6.91797 1.24219"/></g><g clip-path="url(#E)"><path fill="none" stroke="#000" stroke-linecap="round" stroke-linejoin="round" stroke-miterlimit="10" stroke-width=".5" d="M319.54688 479.88672l.7578.96484"/></g><g clip-path="url(#F)"><path fill="none" stroke="#000" stroke-linecap="round" stroke-linejoin="round" stroke-miterlimit="10" stroke-width=".5" d="M333.85547 479.64453l-6.89063 1.36719"/></g><g clip-path="url(#G)"><path fill="none" stroke="#000" stroke-linecap="round" stroke-linejoin="round" stroke-miterlimit="10" stroke-width=".5" d="M332.85547 479.84375l.77344.94922"/></g><g clip-path="url(#H)"><path fill="none" stroke="#000" stroke-linecap="round" stroke-linejoin="round" stroke-miterlimit="10" stroke-width=".5" d="M346.96875 481.6875l-6.48438-2.71484"/></g><g clip-path="url(#I)"><path fill="none" stroke="#000" stroke-linecap="round" stroke-linejoin="round" stroke-miterlimit="10" stroke-width=".5" d="M353.98828 482.07031l6.10547-3.48437"/></g><g clip-path="url(#J)"><path fill="none" stroke="#000" stroke-linecap="round" stroke-linejoin="round" stroke-miterlimit="10" stroke-width=".5" d="M367.01563 479.23438l6.67968 2.1875"/></g><g clip-path="url(#K)"><path fill="none" stroke="#000" stroke-linecap="round" stroke-linejoin="round" stroke-miterlimit="10" stroke-width=".5" d="M380.5664 478.6836l6.21094 3.28906"/></g><path fill="none" stroke="#000" stroke-linecap="round" stroke-linejoin="round" stroke-miterlimit="10" stroke-width=".5" d="M381.46875 479.16406v-1.22656"/><g clip-path="url(#L)"><path fill="none" stroke="#000" stroke-linecap="round" stroke-linejoin="round" stroke-miterlimit="10" stroke-width=".5" d="M396.11719 476.92578l1.73828 6.8086"/></g><path fill="none" stroke="#000" stroke-linecap="round" stroke-linejoin="round" stroke-miterlimit="10" stroke-width=".5" d="M396.3711 477.91406l.90624-.82422"/><g clip-path="url(#M)"><path fill="none" stroke="#000" stroke-linecap="round" stroke-linejoin="round" stroke-miterlimit="10" stroke-width=".5" d="M409.48047 476.91406l1.64062 6.83203"/></g><g clip-path="url(#N)"><path fill="none" stroke="#000" stroke-linecap="round" stroke-linejoin="round" stroke-miterlimit="10" stroke-width=".5" d="M427.1289 480.28906l-7.02734.07813"/></g><g clip-path="url(#O)"><path fill="none" stroke="#000" stroke-linecap="round" stroke-linejoin="round" stroke-miterlimit="10" stroke-width=".5" d="M426.10938 480.30078l.58593 1.07813"/></g><g clip-path="url(#P)"><path fill="none" stroke="#000" stroke-linecap="round" stroke-linejoin="round" stroke-miterlimit="10" stroke-width=".5" d="M440.28516 479.28516l-6.70704 2.08593"/></g><g clip-path="url(#Q)"><path fill="none" stroke="#000" stroke-linecap="round" stroke-linejoin="round" stroke-miterlimit="10" stroke-width=".5" d="M453.4414 478.8711l-6.39062 2.91796"/></g><g clip-path="url(#R)"><path fill="none" stroke="#000" stroke-linecap="round" stroke-linejoin="round" stroke-miterlimit="10" stroke-width=".5" d="M452.51172 479.29297l.97656.7461"/></g><g clip-path="url(#S)"><path fill="none" stroke="#000" stroke-linecap="round" stroke-linejoin="round" stroke-miterlimit="10" stroke-width=".5" d="M466.98828 479.54688l-6.85156 1.5625"/></g><g clip-path="url(#T)"><path fill="none" stroke="#000" stroke-linecap="round" stroke-linejoin="round" stroke-miterlimit="10" stroke-width=".5" d="M465.99219 479.77344l.80078.92969"/></g><g clip-path="url(#U)"><path fill="none" stroke="#000" stroke-linecap="round" stroke-linejoin="round" stroke-miterlimit="10" stroke-width=".5" d="M147.48047 467.49219l-6.96094-.95703"/></g><path fill="none" stroke="#000" stroke-linecap="round" stroke-linejoin="round" stroke-miterlimit="10" stroke-width=".5" d="M147.48047 467.49219l.84766 2.30469m12.49609-2.58204l-7.01563-.40234m7.01563.40234l1.02344 2.23047m12.29297-2.59765l-7.01954.33203m7.01953-.33203l1.25391 2.10546m12.03125-2.41015l-6.96094.9414m6.96094-.9414l1.4336 1.99219m11.72656-2.65235l-6.65235 2.26172m6.65235-2.26172l1.78906 1.67969m11.4375-1.91406l-6.47266 2.73047m6.47266-2.73047l1.90234 1.54687m11.22657-1.92578l-6.10157 3.48828m6.10157-3.48828l2.07422 1.3086m11.37109-1.0547l-6.36328 2.98048m6.36328-2.98047L242.34766 467m11.15625-1.84375l-5.96485 3.71484m5.96485-3.71484l2.12109 1.23047m11.14063-1.3125l-5.85938 3.8789m5.85938-3.8789l2.15625 1.17187m11.1289-1.21484l-5.80078 3.96484m5.80078-3.96484l2.17578 1.13672m10.8086-1.55078l-5.13672 4.79297m5.13672-4.79297l2.3203.79687m10.97267-.82031l-5.09766 4.83984m4.35937-4.1328l1.16016.38671m13.28125-.60547l-5.8711 3.86328m5.8711-3.86328l2.15234 1.17578m11.26563-1.01172l-6.07422 3.53516m5.1914-3.01953l1.03907.64844m13.1914-1.10547l-6.14062 3.41797m5.2461-2.91797l1.03124.66406m13.08594-1.3164l-5.95703 3.72265m5.08984-3.17969l1.0625.61328m8.51954-2.41015l3.24218 6.23047m-2.76953-5.32422l.69531-1.01172m12.08204.13672l3.375 6.16797m-2.88282-5.26954l.67188-1.02343m14.42187-.2539l-1.16797 6.92577m15.46094-6.60937l-3.1211 6.29297m2.66407-5.37891l1.22656-.03516m12.47657-.91406l-2.98438 6.36328m2.54688-5.4375l1.22656-.0625m13.30078-.36719l-4.53516 5.3711m3.875-4.58985l1.19922.25782m13.04297-.78516l-5.07031 4.86328m4.33203-4.15625l1.16797.38281m13.10156-.84375l-5.5039 4.3711m4.70312-3.73438l1.125.48828"/><g clip-path="url(#V)"><path fill="none" stroke="#000" stroke-linecap="round" stroke-linejoin="round" stroke-miterlimit="10" stroke-width=".5" d="M147.46094 454.3125l-6.92188-1.23047"/></g><path fill="none" stroke="#000" stroke-linecap="round" stroke-linejoin="round" stroke-miterlimit="10" stroke-width=".5" d="M147.46094 454.3125l.7539 2.33594m12.58985-2.54297l-6.98047-.8125m6.98047.8125l.89453 2.28125m12.4414-2.57813l-7.02343-.21875m7.02344.21875l1.08593 2.19922m12.23047-2.40625l-7.02344.19531m6-.16796l.60938 1.0664m13.47266-2.32422l-6.50782 2.65235m5.5586-2.26563l.9414.78516m12.73047-2.13672l-5.32422 4.58594m5.32422-4.58594l2.28516.89063m10.79297-1.14063l-4.85157 5.08594m4.14453-4.34766l1.1836.33203m13.3789-.41406l-5.92968 3.77344m5.0664-3.22266l1.06641.60547m13.46094-.4336l-6.6289 2.32813m5.66405-1.98828l.90235.82813m12.73437-2.28516l-5.34375 4.5625m4.5664-3.89844l1.14063.44922m12.73438-1.34375l-4.91016 5.02344m4.91016-5.02344l2.35547.6914m10.66406-.94921l-4.32031 5.53906m4.32031-5.53906l2.41797.42187m11.15625-.19922l-4.83594 5.09375m4.83594-5.09375l2.36328.65625m10.75-.83593l-4.4336 5.45312m4.4336-5.45312l2.41016.47265m10.80078-.55468l-4.22657 5.61328m3.61329-4.79688l1.21093.1914m12.92578-.83593l-4.64453 5.27344m3.96875-4.50781l1.19532.28515m13.30859-.4961l-5.66406 4.16016m4.83984-3.55468l1.10547.53515m11.71484-2.23047l-3.02734 6.34375m2.58594-5.42187l1.22656-.05078m10.39453-1.16016l1.23828 6.91797m-1.05469-5.91016l.96485-.7578m12.58984-.29688l.39453 7.01562m-.33593-5.9961l1.04687-.63671m14.625.39844l-4.4375 5.44921m3.79297-4.65625l1.20312.23829m12.81641-.98047l-4.55469 5.35156m3.89063-4.57422l1.19922.26563m12.53906-1.23047l-4.07422 5.72656m3.48047-4.89453l1.21875.16016m12.5625-1.07813l-3.82031 5.89844m3.26562-5.04297l1.21875.10547m11.88281-1.33594l-2.28515 6.64453m1.95312-5.67578l1.21094-.1914"/><g clip-path="url(#W)"><path fill="none" stroke="#000" stroke-linecap="round" stroke-linejoin="round" stroke-miterlimit="10" stroke-width=".5" d="M147.48828 440.79688l-6.97656-.82813"/></g><path fill="none" stroke="#000" stroke-linecap="round" stroke-linejoin="round" stroke-miterlimit="10" stroke-width=".5" d="M147.48828 440.79688l.89063 2.28515m12.39453-2.07422l-6.91797-1.2461m6.91797 1.2461l.75 2.33594m12.6211-2.90625l-7.02735-.10937m7.02734.10937l1.11719 2.1836m12.16797-2.69141l-6.96875.91015m6.96875-.91015l1.42187 2m11.8125-2.41797l-6.8086 1.74219m5.81642-1.48828l.82812.90625m13.4961-1.08204l-6.84376 1.58985m5.85157-1.35938l.80468.92578m12.9961-2.32421l-5.82813 3.92187m4.98047-3.35156l1.08203.57812m11.10156-2.57422l-1.87109 6.77344m1.59766-5.78906l1.19922-.26563m10.1914-.60937l2.52735 6.5586m-2.16016-5.60548l.80469-.92578m14.23437-.16406l-1.65625 6.82813m1.41406-5.83594l1.19141-.30078m13.57031-.14063l-4.0664 5.73047m3.47656-4.89844l1.21484.16016m12.4961-1.1211l-3.67969 5.98829m3.67969-5.98828l2.44922.15234m11.1328.02734l-4.21093 5.6289m4.21094-5.6289l2.42187.375m9.6797-.96094l-1.78516 6.79688m1.52734-5.8086l1.1914-.28124m12.23829-.7422l-1.5 6.8672m1.28125-5.8672l1.18359-.33202m14.48438.75781l-5.76563 4.01562m4.92578-3.42968l1.09375.5586m10.86719-2.58204l-1.3789 6.89062m1.17968-5.88671l1.17188-.35157m12.30078-.66015l-1.29297 6.90625m1.29297-6.90625l2.33984-.73438m9.09766 7.48047l2.45703-6.58203m15.53515 3.96484l-6.89453-1.35156m5.89063 1.15625l.35937 1.17188m13.95703-.96875l-6.89062-1.3672m5.89062 1.16798l.35157 1.17578m13.95312-2.40235l-6.86719 1.48438m5.8672-1.26953l.79296.9375m13.58594-.75l-6.9961.67969m6.9961-.6797l1.35547 2.04688m11.64453-3.1914l-6.36719 2.96875m6.36719-2.96875l1.96094 1.47656m11.55468.96094l-6.76562-1.90625m5.78125 1.6289l.25781 1.19922"/><g clip-path="url(#X)"><path fill="none" stroke="#000" stroke-linecap="round" stroke-linejoin="round" stroke-miterlimit="10" stroke-width=".5" d="M147.51172 427.08203l-7.02344-.02734"/></g><path fill="none" stroke="#000" stroke-linecap="round" stroke-linejoin="round" stroke-miterlimit="10" stroke-width=".5" d="M147.51172 427.08203l1.14453 2.17188m12.14844-1.79297l-6.98047-.78516m6.98047.78516l.90625 2.28125m12.33203-1.83594l-6.82422-1.67578m6.82422 1.67578l.60156 2.3789m12.76953-2.67187l-6.9414-1.08984m6.9414 1.08984l.80469 2.32031m12.53516-2.5078l-6.98828-.71485m5.97265.60937l.46484 1.13672m13.6211-2.72656l-6.4961 2.67578m6.4961-2.67578l1.89062 1.5625m10.23828-3.07031l-4.125 5.6914m3.52344-4.86328l1.21485.17188m13.96875.72656l-6.66016 2.23828m5.6914-1.91016l.89063.84375m13.53125-.62109l-6.9336 1.13672m19.14063-3.17188l-4.72265 5.20703m17.1953-5.77343l-3.03515 6.33984m16.15235-6.42578l-2.64063 6.51172m16.57813-6.1836l-3.88282 5.85547m3.32032-5.0039l1.21875.1211m9.87109-1.45704l1.6914 6.82422m-1.6914-6.82422l1.82813-1.63672m14.4414 2.23828l-4.21484 5.6211m4.21484-5.6211l2.42188.375m12.10547 1.29297l-6.64454 2.28516m5.6797-1.95313l.89843.83594m13.5586-.34375l-6.9961.63672m5.98047-.54297l.67187 1.02734m11.48047-4.05859l-2.63672 6.51172m13.33203-6.51953l2.59766 6.52734m-2.21875-5.57812l.79297-.9375m16.36328 5.20312l-5.83984-3.90234m5.83984 3.90234l-.2461 2.4414m13.72266-2.70312l-6.16406-3.375m6.16406 3.375l-.03125 2.45313m13.45703-5.60547l-6.38671 2.92578m6.38671-2.92578l1.95313 1.48828m11.41406-1.3711l-6.49219 2.69141m6.4922-2.6914l1.89452 1.5625m11.1875-2.02735l-6.02343 3.6211m6.02343-3.6211l2.10157 1.26172m11.66015-.08203l-6.91406 1.26172m5.90625-1.07813l.76172.96094"/><g clip-path="url(#Y)"><path fill="none" stroke="#000" stroke-linecap="round" stroke-linejoin="round" stroke-miterlimit="10" stroke-width=".5" d="M147.46094 413.15625l-6.92188 1.19531"/></g><path fill="none" stroke="#000" stroke-linecap="round" stroke-linejoin="round" stroke-miterlimit="10" stroke-width=".5" d="M147.46094 413.15625l1.5039 1.9414m-2.51172-1.76562l.75391.96875m13.46484-1.58203l-6.71484 2.07031m6.71484-2.07031l1.73829 1.73047m11.36328-2.26563l-6.28516 3.14063m6.28516-3.14063l2 1.42578m11.60156-.625l-6.85938 1.53516m6.85938-1.53515l1.59766 1.86328m11.73437-1.76563l-6.89453 1.34375m6.89453-1.34375l1.54688 1.90625m11.76953-1.91015l-6.89453 1.35156m5.89062-1.15625l.77344.95312m13.57422-.98437l-6.95313 1.02344m5.9414-.875l.72657.98828m13.51563-1.53907l-6.78516 1.82813m6.78516-1.82813l1.67578 1.79297m11.75781-.98828l-7.02344.21875m6.0039-.1875l.60938 1.0664m13.62891-.16405l-6.83203-1.64844m5.83984 1.40625l.30469 1.1875m13.75781-3.28516l-6.33984 3.03125m17.99219-4.6914l-3.01172 6.35156m2.57422-5.42578l1.22265-.0586m13.5586-.1211l-5.07422 4.85938m4.33593-4.15234l1.16797.38281m13.4336-.33984l-6.16797 3.35937m5.27344-2.87109l1.02343.67578m13.58594.0625l-6.96875.90625m5.95703-.77734l.71094 1m12.73828 1.67969l-5.21094-4.71485m4.45313 4.03125l-.30078 1.1875m15.0664-1.65234l-6.59765-2.41797m5.63672 2.0664l.16796 1.21485m14.19141-3.02344l-6.76562 1.90235m6.76562-1.90235l1.69531 1.77344m11.20313-2.70703l-5.92969 3.76953m5.92969-3.76953l2.13281 1.21094m10.67969-1.83204l-4.92578 5.01172m4.92578-5.01172l2.35156.69922m11.41406-.15625l-5.82812 3.92969m5.82812-3.92969l2.16407 1.15235m11.1953-1.08594l-5.91405 3.79687m5.05078-3.24609l1.07031.60156m13.5625-.08984l-6.82422 1.67187m5.83203-1.42968l.8164.91406m13.16016-2.01172l-6.16406 3.3789m6.16406-3.3789l2.05079 1.34766m10.71484-2.09375l-5.0625 4.875m4.32422-4.16407l1.16797.37891"/><g clip-path="url(#Z)"><path fill="none" stroke="#000" stroke-linecap="round" stroke-linejoin="round" stroke-miterlimit="10" stroke-width=".5" d="M147.47266 399.90234l-6.94532 1.07422"/></g><path fill="none" stroke="#000" stroke-linecap="round" stroke-linejoin="round" stroke-miterlimit="10" stroke-width=".5" d="M147.47266 399.90234l1.46875 1.96485m-2.48047-1.8086l.73437.98047m13.60547-1.05078l-6.96875.90235m6.96875-.90235l1.41797 2m-2.4336-1.8711l.71094 1m13.64453-.52343l-7.01953-.3086m7.01953.3086l1.0547 2.21484m-2.07813-2.26171l.53125 1.10937m13.79297-.875l-6.9922-.6836m6.9922.6836l.9375 2.26953m-1.95313-2.3711l.46484 1.13673m13.83985-.83204l-6.9414-1.08984m6.9414 1.08985l.80078 2.3203m-1.8086-2.48046l.39844 1.16015m13.57422-3.16015l-6.24219 3.23047m6.2422-3.23047l2.01952 1.39453m11.02735-1.83594l-5.70313 4.10938m5.70313-4.10938l2.19922 1.08594m11.46484-.47656l-6.40234 2.89453m6.40234-2.89453l1.9414 1.4961m11.53126-1.08595l-6.71485 2.07032m5.73828-1.76954l.8672.8672m13.54687-.60157l-6.96094.9375m5.94922-.80078l.71484.9961m13.57031-1.375l-6.8789 1.42187m5.8789-1.21485l.78516.94532m13.39063-1.64454l-6.60157 2.41016m5.64063-2.0586l.91406.82032m13.13672-1.66797l-6.14844 3.39844m19.20703-3.79297l-5.63672 4.1914m4.81641-3.58202l1.10938.52343m13.27734-.7461l-6.14063 3.41407m5.25-2.91406l1.02735.66406m12.8164 2.78516l-5.41406-4.48047m4.625 3.82812l-.2461 1.20313m12.96095.46484l-2.63672-6.51562m14.53906 6.76953l.1875-7.02344m-.16016 6.0039l-1.09765.54688m17.375-5.02734l-5.79297 3.97656m5.79297-3.97656l2.17578 1.13281m11.17969-1.07422l-5.8711 3.86328m5.01563-3.30078l1.07812.58594m13.50781-.27734L406.95313 401.5m5.72265-1.8125l.875.85938m12.95703-2.10157l-5.78515 3.98828m4.9453-3.41015l1.08985.5664m12.95703-1.29687l-5.5664 4.28906m4.75781-3.66406l1.11719.50781m13.20703-.83984l-5.96875 3.70703m5.10156-3.16797l1.0586.61719m12.76562-1.63672l-5.25 4.66797"/><g clip-path="url(#aa)"><path fill="none" stroke="#000" stroke-linecap="round" stroke-linejoin="round" stroke-miterlimit="10" stroke-width=".5" d="M466.1875 398.10547l2.30078.85156"/></g><g clip-path="url(#ab)"><path fill="none" stroke="#000" stroke-linecap="round" stroke-linejoin="round" stroke-miterlimit="10" stroke-width=".5" d="M147.5039 386.86719l-7.0078.51172"/></g><path fill="none" stroke="#000" stroke-linecap="round" stroke-linejoin="round" stroke-miterlimit="10" stroke-width=".5" d="M147.5039 386.86719l1.3047 2.07812m-2.32423-2.0039l1.3047 2.07812m-2.32423-2.0039l.65235 1.03906m14.6875-1.34375l-6.98047.82812m6.98047-.82812l1.39844 2.01562m-2.41407-1.89844l1.39844 2.01563m12.88672-2.41016l-6.89063 1.37891m6.89063-1.3789l1.55469 1.89843m-2.5547-1.69922l1.5547 1.89844m12.71093-2.3086l-6.78906 1.8047m6.78906-1.8047l1.67188 1.79688m10.67969-3.4336l-4.86328 5.07423m4.86328-5.07422l2.35937.66797m11.17188-.44141l-5.29297 4.6211m5.29297-4.6211l2.29297.875m-3.0625-.20313l1.14453.4375m12.65234-1.40234l-4.71875 5.20703m4.71875-5.20703l2.3789.60547m10.73438-.77344l-4.3164 5.54688m3.6875-4.74219l1.21093.21094m12.35156-1.27735l-3.55078 6.06641m3.03125-5.1836l1.22657.05079m12.77343-.82813l-3.88672 5.85547m3.32422-5.0039l1.21875.12109m12.38282-1.13672l-3.33204 6.1836m17.82032-5.16016l-5.67578 4.14062m18.23828-4.89844l-4.17188 5.65235m3.5664-4.83203l1.21095.17969m12.71484-.9961l-4.1836 5.64453m3.57423-4.82422l1.21484.1836m13.66406.07031l-6.09375 3.4961m5.20703-2.98829l1.03907.65625m13.3789-.71875l-6.52344 2.60938m14.16016 1.24219l4.83203-5.09766m14.11719 1.13672l-6.4336 2.82422m5.4961-2.41407l.96484.76172m13.125-1.49219l-6.11328 3.46485m5.22656-2.96094l1.03516.66016m13.13672-1.21875l-6.05078 3.57422m5.16797-3.0547l1.05078.64063m13.22656-1.01953l-6.20703 3.29297m6.20703-3.29297l2.03125 1.375m11.13672-1.6211l-5.91797 3.78517m5.91797-3.78516l2.14062 1.20312m11.23438-1.10937l-6.03516 3.59765m5.15625-3.07421l1.05078.63671m13.10157-1.23046l-5.94922 3.73828m5.08203-3.19531l1.0625.60937m13.51172-.27734l-6.73828 1.99218m5.7578-1.70312l.85938.875"/><g clip-path="url(#ac)"><path fill="none" stroke="#000" stroke-linecap="round" stroke-linejoin="round" stroke-miterlimit="10" stroke-width=".5" d="M147.4961 373.47266l-6.9922.67187"/></g><path fill="none" stroke="#000" stroke-linecap="round" stroke-linejoin="round" stroke-miterlimit="10" stroke-width=".5" d="M147.4961 373.47266l1.35546 2.04296m-2.3711-1.9453l1.35548 2.04296M160.8164 373.5l-7 .61719m7-.61719l1.33593 2.05469m-2.35547-1.96485l1.33594 2.0547m12.79297-3.0586l-6.58984 2.44531m6.58984-2.44531l1.83203 1.6289m-2.79297-1.27343l.91797.8164m13.14453-1.64062L180.86328 375.5m6.16406-3.38281l2.05078 1.34765m-2.94921-.85546l1.02734.67187m12.94531-1.53906l-5.6836 4.1289m5.6836-4.1289l2.20703 1.07812m-3.03125-.47656l1.10157.53906m12.66406-1.57812l-4.9336 5.0039m4.9336-5.0039l2.35156.70312m10.65625-.97265l-4.32031 5.54296m4.32031-5.54296l2.41406.42578m11.17188-.1875l-4.86328 5.07031m4.86328-5.07031l2.35937.66406m10.89453-.72266l-4.73828 5.1875m4.04688-4.43359l1.1875.30469M265.5625 370.75l-3.45313 6.11719m2.95313-5.22656l1.22656.03125m12.8086-.78907l-3.89453 5.85156m3.32812-5l1.21875.1211m13.42969-.28125l-5.42578 4.46484m4.63672-3.8125l1.1328.46875m13.5586-.09375l-6.60156 2.41406m5.64062-2.0625l.91407.82032m13.48437-.75781l-6.84765 1.58203m5.85156-1.35157l.80469.92579m13.54687-.94532l-6.92969 1.16406m5.92188-.99609l.7461.97656m13.60937-.92578l-6.9922.72266m5.97267-.61719l.68359 1.01953m13.64453-1.16015l-6.98047.79687m5.96485-.67969l.6953 1.01172m13.60938-1.32031l-6.92578 1.17969m5.91797-1.00781l.75.96875m13.40625-1.76172l-6.59375 2.42187m5.63281-2.07031l.91406.8164m13.38672-1.09765l-6.64453 2.28125M399.34375 373l.89453.83984m13.08203-1.82812l-6.03906 3.59375m6.03906-3.59375l2.09766 1.27344m11.40625-.90625l-6.41797 2.85937m5.48438-2.44531l.96875.75781m13.01953-1.65625l-5.89454 3.82422m5.03907-3.26563l1.07031.59375m12.67578-1.68359l-5.04297 4.89063m4.3086-4.1797l1.16796.375m13.84375.90235l-6.96875.91406m5.95313-.78125l.71094 1"/><g clip-path="url(#ad)"><path fill="none" stroke="#000" stroke-linecap="round" stroke-linejoin="round" stroke-miterlimit="10" stroke-width=".5" d="M147.44531 359.80469l-6.89062 1.375"/></g><path fill="none" stroke="#000" stroke-linecap="round" stroke-linejoin="round" stroke-miterlimit="10" stroke-width=".5" d="M147.44531 359.80469L149 361.70313m-2.5586-1.69922l.77735.94921m13.52344-1.23437l-6.85547 1.54688m6.85547-1.54688l1.60156 1.85938m-2.59766-1.63282l.80078.92969m13.37891-1.59766l-6.59375 2.4336m6.59375-2.4336l1.83203 1.63282m-2.78906-1.27735l.91406.8164m13.0664-1.77733l-6.0078 3.64453m6.0078-3.64454l2.10938 1.25391m-2.98437-.72265l1.05469.625m12.9414-1.44532l-5.6211 4.21875m5.6211-4.21875l2.22266 1.03906m-3.03906-.42578l1.10937.51954m12.88672-1.30079l-5.34766 4.5586m5.34766-4.5586l2.28125.89844m-3.0586-.23437l1.14063.44921m12.80469-1.27734l-5.05469 4.88281m5.05469-4.8828l2.33203.76171m11.05078-.6875l-5.1914 4.73828m5.1914-4.73828l2.3125.82422m10.8125-1.01953l-4.8086 5.125m4.10938-4.3789l1.1836.3203m12.47656-1.35546l-4.10156 5.70703m3.5039-4.87891l1.21485.16406m13.4375-.27344l-5.58204 4.26954m4.76954-3.64844l1.11718.50781m13.51953-.19922l-6.60156 2.41016m5.64063-2.0586l.91406.82032m13.46484-.84766l-6.80468 1.75781m5.8125-1.5l.82812.90235m13.4375-1.3086l-6.72266 2.0547m5.7422-1.75392l.86718.8672m13.40625-1.23048l-6.67969 2.1797m5.71094-1.85938l.88281.84765m13.53516-.59765l-6.94922 1.04296m5.9414-.89062l.73047.98438m13.6211-.87891l-7.0039.52734m5.98437-.45312l.65625 1.03906m13.65234-1.35938L366.87891 361m5.9414-.86719l.72656.98828m13.5-1.60156l-6.75 1.94922m5.76954-1.66797l.85156.88281m13.39453-1.32421l-6.65234 2.26562m6.65234-2.26563l1.78906 1.6797m11.52344-1.69141l-6.64453 2.28906m6.64453-2.28906l1.79297 1.67187m11.60547-1.3789l-6.8164 1.70312m6.8164-1.70313l1.64453 1.82422m11.66797-1.83593l-6.8086 1.72656m6.8086-1.72656l1.64843 1.8164m11.46094-2.40234l-6.39844 2.90234m5.46875-2.48047l.97266.7461m13.35547 1.53125l-6.5664-2.5m5.61327 2.13672l.15235 1.21875"/><g clip-path="url(#ae)"><path fill="none" stroke="#000" stroke-linecap="round" stroke-linejoin="round" stroke-miterlimit="10" stroke-width=".5" d="M147.36719 346.17188l-6.73438 2.01562"/></g><path fill="none" stroke="#000" stroke-linecap="round" stroke-linejoin="round" stroke-miterlimit="10" stroke-width=".5" d="M147.36719 346.17188l1.72265 1.74218m11.44532-2.14062l-6.44141 2.8086m6.4414-2.8086l1.92188 1.52734m11.32031-1.6875l-6.29297 3.1289m6.29297-3.1289l1.9961 1.42578m11.10156-1.80078l-5.85938 3.8789m5.85938-3.8789l2.15625 1.17188m-3.00781-.60938l1.07812.58594m12.97656-1.3086l-5.63671 4.19922m5.63672-4.19921l2.21875 1.04687m-3.03907-.4375l1.10938.52734m13.27734-.74609l-6.14062 3.41797m6.14062-3.41797l2.0625 1.33594m-2.95312-.83594l1.02734.66406m12.83984-1.66406l-5.46093 4.42188m5.46093-4.42188l2.25782.95703m10.72265-1.32031L234.8125 349.75m4.78906-5.14453l2.36719.63281m10.78516-.77344l-4.46485 5.42579m3.8164-4.63672l1.19923.24609m12.16406-1.4336l-3.26563 6.22266m2.78907-5.3164l1.22656-.00782m13.72266.08204l-5.58203 4.26562m4.76953-3.64844l1.11718.51172m13.69532.48438l-6.94922 1.03515m5.9375-.88281l.73047.98438m13.55468-1.35938l-6.86718 1.48047m5.86718-1.26563l.79297.94141m13.46094-1.40234l-6.7461 1.97265m5.76563-1.6836l.85547.875m13.36719-1.3828l-6.60156 2.41015m5.64062-2.0586l.91406.82032m13.26563-1.41406l-6.40625 2.89453m5.47265-2.47266l.97266.75m13.51953-.40625l-6.89453 1.36329m5.89063-1.16407l.77734.94922m13.60547-.60937l-7.02344.28515m7.02344-.28515l1.23828 2.12109m12.03906-2.4961l-6.94922 1.03907m6.94922-1.03906l1.46094 1.97265m11.75-2.44531l-6.73828 1.98047m6.73828-1.98047l1.71875 1.7539m11.58203-1.8125l-6.70703 2.09766m6.70703-2.09765l1.7461 1.72656m11.6289-1.4961l-6.83203 1.63672m6.83203-1.63671l1.6289 1.83593m11.78126-1.1875l-7.01953.34375m7.01953-.34375l1.2578 2.10547m12.03517-2.35547l-6.97657.83985m6.97657-.83985l1.40234 2.01172m11.9375-1.57031l-7.02734-.04297"/><g clip-path="url(#af)"><path fill="none" stroke="#000" stroke-linecap="round" stroke-linejoin="round" stroke-miterlimit="10" stroke-width=".5" d="M467.07422 347.19922l1.14062 2.17578"/></g><g clip-path="url(#ag)"><path fill="none" stroke="#000" stroke-linecap="round" stroke-linejoin="round" stroke-miterlimit="10" stroke-width=".5" d="M147.41797 333.04688l-6.83594 1.6328"/></g><path fill="none" stroke="#000" stroke-linecap="round" stroke-linejoin="round" stroke-miterlimit="10" stroke-width=".5" d="M147.41797 333.04688l1.625 1.83984m11.57422-2.22656l-6.60547 2.40625m6.60547-2.40625l1.82422 1.64453m11.21875-2.22266l-6.0586 3.5625m6.0586-3.5625l2.08984 1.28516m10.64453-2.02344l-4.89844 5.03516m4.89844-5.03516l2.35547.6875m11.4961-.01953l-5.97266 3.70312m5.97265-3.70312l2.1211 1.23047m11.0039-1.5039l-5.59375 4.25m5.59375-4.25l2.23047 1.02733m10.8789-1.27734l-5.17968 4.75m5.17969-4.75l2.3125.8164m10.89062-.93359l-4.95703 4.98047m4.95703-4.98047l2.34766.71485m10.69922-.95703l-4.41797 5.46484m3.77344-4.66797l1.20703.23438m13.04687-.76172l-5.0078 4.92969m4.27733-4.21094l1.17188.36719m13.875 1.64062l-7.00781-.52344m20.15625 1.35156l-6.67969-2.17968m20.15625 1.375l-7.0039-.57031m5.98827.48437l.48438 1.1289m13.75781-2.16015l-6.82422 1.66406m5.83204-1.42187l.8164.91406m13.19922-1.9414l-6.23828 3.23437m5.32812-2.76563l1.01172.69922m12.14453-2.40234l-4.10546 5.70312m3.5078-4.875l1.21876.16797m8.21094-.67969l4.86718 5.07032m8.32422-.125l5.10938-4.82031m-4.3672 4.12109l-1.16015-.39453m19.7539-1.88672l-6.93358 1.14062m5.92578-.97265l.74609.97265m13.4961-1.51171l-6.76954 1.8828m5.78516-1.60937l.84375.88672m13.5625-.59765l-6.98438.7578m5.96875-.64843l.69141 1.01563m13.63281-1.1797l-6.97265.8672m6.97265-.8672l1.41016 2.01173m11.875-2.21094l-6.91016 1.26562m6.91016-1.26562l1.52344 1.92187m11.83984-1.54687l-7.00781.51562m7.00781-.51562l1.3086 2.07422m11.84765-.74219l-6.6914-2.14844m5.71874 1.83594l.21875 1.20703"/><g clip-path="url(#ah)"><path fill="none" stroke="#000" stroke-linecap="round" stroke-linejoin="round" stroke-miterlimit="10" stroke-width=".5" d="M146.85156 318.4961l-5.70312 4.10546"/></g><path fill="none" stroke="#000" stroke-linecap="round" stroke-linejoin="round" stroke-miterlimit="10" stroke-width=".5" d="M146.85156 318.4961l2.19922 1.08593m10.42578-1.80469l-4.32422 5.53907m4.32422-5.53907l2.41797.42579m10.57422-.64844l-3.67969 5.98437m3.67969-5.98437l2.44922.15234m10.84766-.16406l-3.64063 6.01172m3.10938-5.13672l1.22656.0664m11.8789-1.28125l-2.16015 6.6875m1.84765-5.71484l1.20703-.21484m12.63672-.67969l-2.59375 6.53125m2.59375-6.53125l2.44141-.26953m10.89453.27734l-2.63281 6.51563m2.25-5.5664l1.22266-.12892m12.36718-.85937l-2.41797 6.59766m2.06641-5.63672l1.21484-.16797m11.57032-.99219l-.65625 6.9961m.5625-5.98047l1.1328-.47266m8.44532 2.69922l7.00781.50781m8.66797 3.07031l2.28516-6.64453m-1.95313 5.67578l-1.21093.19532m13.84375.6328l2.98437-6.36327m-2.55078 5.4375l-1.22266.0586m14.67579 1.07421l1.84375-6.78125m-1.57422 5.79688l-1.19532.26953m18.65625-2.28516l-6.98437-.77734m19.66797-1.64844l-5.72656 4.07031m4.89453-3.47656l1.09765.55078m11.92969-2.16016l-3.48437 6.10547m2.97656-5.21875l1.22656.03906m10.47266-1.36718l.76562 6.98437m10.97656-.57031l3.90625-5.83984m-3.33593 4.98828l-1.22266-.1211m18.7539.13282l-5.66406-4.16016m18.90625 4.2539l-5.51953-4.35156m18.1289 5.02735l-4.10937-5.69922m3.51172 4.86719l-.53906 1.10156m14.03906-.01172l-3.28125-6.21484m2.80469 5.30859l-.6914 1.01563m16.22265-2.25391l-6.76172-1.92578m5.77735 1.64453l.2578 1.19922m14.16798-2.0664l-7.01563.36718m7.01563-.36719l1.26562 2.10547m11.98438-2.6211l-6.88672 1.40235"/><g clip-path="url(#ai)"><path fill="none" stroke="#000" stroke-linecap="round" stroke-linejoin="round" stroke-miterlimit="10" stroke-width=".5" d="M467.0039 319.84766l1.5625 1.89062"/></g><path fill="#00f" fill-rule="evenodd" d="M317.22656 449.89453h8.61719V439.75h-8.61719v10.14453"/><path fill="azure" fill-rule="evenodd" d="M319.0586 441.58203h.83202v2.82422h3.28516v-2.82422h.83594v6.48047h-.83594v-2.91797h-3.28515v2.91797h-.83204v-6.48047"/><path fill="#00f" fill-rule="evenodd" d="M419.3086 427.70313h8.61718v-10.14454h-8.61719v10.14454"/><path fill="azure" fill-rule="evenodd" d="M421.14063 419.39063h.83203v2.82421h3.28515v-2.82421h.83594v6.48046h-.83594v-2.91796h-3.28515v2.91796h-.83204v-6.48046"/><path fill="#ff3030" fill-rule="evenodd" d="M380.05469 418.82813H387.75v-10.14844h-7.69531v10.14844"/><path fill="azure" fill-rule="evenodd" d="M381.89063 410.51172h.83203v5.74219h3.1953v.73828h-4.02733v-6.48047"/><path fill="#ff3030" fill-rule="evenodd" d="M184.76953 392.19531h7.6914v-10.14453h-7.6914v10.14453"/><path fill="azure" fill-rule="evenodd" d="M186.60156 383.88281h.83203v5.73828h3.19532v.7422h-4.02735v-6.48048"/><path fill="#ffffe0" fill-rule="evenodd" d="M346.1836 364.24219h22.17968v-10.19531H346.1836v10.1953"/><path fill-rule="evenodd" d="M349.6836 355.88281h.5078v6.29297h-.78906v-4.48828h-1.38671v-.55469l.55859-.0664.2539-.0547.23047-.08983.20313-.14063.17187-.21094.14063-.29297.10937-.39453m4.8125 0l.23047.01563.21875.0586.20703.08983.19532.1211.18359.14844.17188.17578.30078.41797.24609.49609.17969.54297.10937.58203.03906.58984-.03906.59375-.10937.58204-.17969.55468-.2461.5039-.30077.42579-.17188.17969-.1836.15625-.1953.1211-.20704.09374-.21875.05469-.23047.01953-.23046-.01953-.21875-.05469-.20704-.09375-.1953-.1211-.1875-.15624-.16798-.17969-.30469-.42578-.24218-.5039-.17969-.5547-.11328-.58203-.03516-.59375h.83203l.02735.5625.08203.50782.1289.4414.16016.375.1914.30078.21094.22266.22266.13672.22656.04687.22657-.04687.22265-.13672.21094-.22266.1914-.30078.16016-.375.125-.4414.08203-.50782.03125-.5625-.03125-.5625-.08203-.5-.125-.43359-.16015-.36719-.19141-.29297-.21094-.21093-.22265-.13282-.22657-.04687-.22656.04687-.22265.13282-.21094.21093-.1914.29297-.16017.36719-.1289.4336-.08203.5-.02735.5625h-.83203l.03516-.58985.11328-.58203.17969-.54297.24219-.4961.30468-.41796.16797-.17578.1875-.14844.19531-.1211.20704-.08984.21875-.0586.23046-.01562m5.08985 0h.51172v6.29297h-.78907v-4.48828h-1.38671v-.55469l.55859-.0664.2539-.0547.22657-.08983.20312-.14063.17578-.21094.14063-.29297.10547-.39453m2.82422 2.17578h.78515l.02344-.3164.0586-.28906.09765-.25.14063-.21485.17968-.17578.22266-.1289.26562-.08204.3086-.02734.23828.02344.22265.0625.20704.10156.17578.13672.15234.17578.11328.20312.07031.23829.02344.26171-.01953.26954-.0664.22656-.10938.1914-.15625.17188-.19922.16015-.25.16797-.63281.38672-.53906.3125-.4375.32031-.34375.32422-.26563.33594-.1914.34766-.125.3711-.06641.39452-.02344.41797h4.21485v-.73828h-3.33204l.08204-.28516.11328-.23828.14843-.19922.1875-.18359.23047-.16797.27735-.17578.71875-.41797.41406-.20703.34765-.23047.28125-.25.21875-.26562.16407-.28125.10937-.28125.0625-.28516.02344-.28125-.04297-.38281-.1211-.34766-.1875-.3086-.25-.26562-.30468-.21094-.34375-.16015-.38281-.09766-.40625-.03125-.4336.03125-.39843.09766-.35547.16797-.30469.23437-.2461.30469-.1875.375-.11718.44531-.03906.51953"/><path fill="#ffffe0" fill-rule="evenodd" d="M190.83984 359.82031h22.1797v-10.1914h-22.1797v10.1914"/><path fill-rule="evenodd" d="M194.33984 351.46094h.50782v6.29687h-.78516v-4.49219h-1.39063v-.55468l.5625-.0625.25-.05469.23047-.08984.20313-.14063.17578-.21094.14063-.29296.10546-.39844m4.8125 0l.23047.01953.21875.05469.20703.08984.19532.1211.1875.15234.16797.17578.30468.41797.24219.49219.17969.54687.11328.57813.03516.59375-.03516.59375-.11328.58203-.17969.55468-.24219.5-.30469.4297-.16796.17968-.1875.15234-.19532.125-.20703.08985-.21875.05859-.23047.01953-.23047-.01953-.21875-.0586-.20703-.08984-.1953-.125-.1836-.15234-.17188-.17969-.30078-.42969-.2461-.5-.17968-.55468-.10938-.58204-.03906-.59375h.83203l.03125.5625.08203.50391.125.44531.16016.375.1914.30079.21095.21875.22265.13671.22656.04688.22657-.04688.22265-.13671.21094-.21875.1914-.30079.16016-.375.1289-.4453.08204-.50392.02734-.5625-.02734-.5625-.08203-.5-.1289-.43359-.16016-.36719-.19141-.29296-.21094-.21485-.22265-.1289-.22657-.04688-.22656.04688-.22266.1289-.21093.21485-.1914.29296-.16017.3672-.125.43358-.08203.5-.03125.5625h-.83203l.03906-.59375.10938-.57812.17969-.54688.2461-.49218.30077-.41797.17188-.17578.1836-.15235.1953-.12109.20703-.08984.21875-.0547.23047-.01952m5.09375 0h.50782v6.29687h-.78907v-4.49219h-1.38672v-.55468l.5586-.0625.2539-.05469.23047-.08984.20313-.14063.17187-.21094.14063-.29296.10937-.39844m2.82032 2.17578h.78906l.01953-.3164.0586-.28516.09765-.25391.14063-.21484.18359-.17188.22266-.1289.26562-.08204.3086-.02734.23437.02344.22656.0625.20313.10156.17968.13672.14844.17187.11328.20704.07031.23437.02735.26563-.02344.26953-.0664.22265-.10938.19531-.15625.16797-.19922.16407-.2461.16406-.63671.39062-.53516.3125-.4375.31641-.34765.32422-.26563.33594-.1875.35156-.125.3711-.07031.39062-.01953.42187h4.21094v-.74219h-3.33204l.08203-.28515.11329-.23438.14843-.20312.1875-.17969.23047-.17187.28125-.17579.71485-.41406.41406-.20703.34766-.23047.28125-.25.21875-.26953.16406-.27734.10937-.28516.0664-.28515.01954-.28125-.04297-.38282-.1211-.34765-.1875-.3086-.25-.26172-.30468-.21093-.34375-.16016-.3789-.09766-.40626-.03515-.4375.03515-.39843.09766-.35547.16797-.30469.23437-.2461.30079-.1875.375-.11327.4453-.04297.51954"/></g></defs><use xlink:href="#aj"/></svg>