<svg xmlns="http://www.w3.org/2000/svg" role="img" xmlns:xlink="http://www.w3.org/1999/xlink" viewBox="142.45 309.95 326.84 171.84"><defs><clipPath id="a"><path d="M144 311.67188h1v168.65625h-1zm0 0"/></clipPath><clipPath id="b"><path d="M144 311.67188h324v168.65625H144zm0 0"/></clipPath><clipPath id="c"><path d="M391 479h4v1.32813h-4zm0 0"/></clipPath><clipPath id="d"><path d="M467 311.67188h1v168.65625h-1zm0 0"/></clipPath><clipPath id="e"><path d="M144 479h4v1.32813h-4zm0 0"/></clipPath><clipPath id="f"><path d="M147 480h2v.32813h-2zm0 0"/></clipPath><clipPath id="g"><path d="M153 479h9v1.32813h-9zm0 0"/></clipPath><clipPath id="h"><path d="M160 479h3v1.32813h-3zm0 0"/></clipPath><clipPath id="i"><path d="M166 479h9v1.32813h-9zm0 0"/></clipPath><clipPath id="j"><path d="M173 479h3v1.32813h-3zm0 0"/></clipPath><clipPath id="k"><path d="M180 478h8v2.32813h-8zm0 0"/></clipPath><clipPath id="l"><path d="M187 478h3v2.32813h-3zm0 0"/></clipPath><clipPath id="m"><path d="M193 479h8v1.32813h-8zm0 0"/></clipPath><clipPath id="n"><path d="M200 479h3v1.32813h-3zm0 0"/></clipPath><clipPath id="o"><path d="M207 478h8v2.32813h-8zm0 0"/></clipPath><clipPath id="p"><path d="M213 478h3v2.32813h-3zm0 0"/></clipPath><clipPath id="q"><path d="M220 478h8v2.32813h-8zm0 0"/></clipPath><clipPath id="r"><path d="M225 479h3v1.32813h-3zm0 0"/></clipPath><clipPath id="s"><path d="M234 478h7v2.32813h-7zm0 0"/></clipPath><clipPath id="t"><path d="M247 478h7v2.32813h-7zm0 0"/></clipPath><clipPath id="u"><path d="M252 478h2v2.32813h-2zm0 0"/></clipPath><clipPath id="v"><path d="M260 478h8v2.32813h-8zm0 0"/></clipPath><clipPath id="w"><path d="M265 479h3v1.32813h-3zm0 0"/></clipPath><clipPath id="x"><path d="M273 478h8v2.32813h-8zm0 0"/></clipPath><clipPath id="y"><path d="M279 479h2v1.32813h-2zm0 0"/></clipPath><clipPath id="z"><path d="M286 479h9v1.32813h-9zm0 0"/></clipPath><clipPath id="A"><path d="M292 479h2v1.32813h-2zm0 0"/></clipPath><clipPath id="B"><path d="M300 478h8v2.32813h-8zm0 0"/></clipPath><clipPath id="C"><path d="M305 478h3v2.32813h-3zm0 0"/></clipPath><clipPath id="D"><path d="M313 479h8v1.32813h-8zm0 0"/></clipPath><clipPath id="E"><path d="M319 479h2v1.32813h-2zm0 0"/></clipPath><clipPath id="F"><path d="M326 479h9v1.32813h-9zm0 0"/></clipPath><clipPath id="G"><path d="M332 479h2v1.32813h-2zm0 0"/></clipPath><clipPath id="H"><path d="M342 479h3v1.32813h-3zm0 0"/></clipPath><clipPath id="I"><path d="M353 479h8v1.32813h-8zm0 0"/></clipPath><clipPath id="J"><path d="M366 478h8v2.32813h-8zm0 0"/></clipPath><clipPath id="K"><path d="M380 477h7v3.32813h-7zm0 0"/></clipPath><clipPath id="L"><path d="M396 476h2v4.32813h-2zm0 0"/></clipPath><clipPath id="M"><path d="M407 477h7v3.32813h-7zm0 0"/></clipPath><clipPath id="N"><path d="M420 479h8v1.32813h-8zm0 0"/></clipPath><clipPath id="O"><path d="M425 480h2v.32813h-2zm0 0"/></clipPath><clipPath id="P"><path d="M433 479h8v1.32813h-8zm0 0"/></clipPath><clipPath id="Q"><path d="M446 479h8v1.32813h-8zm0 0"/></clipPath><clipPath id="R"><path d="M452 479h2v1.32813h-2zm0 0"/></clipPath><clipPath id="S"><path d="M459 479h9v1.32813h-9zm0 0"/></clipPath><clipPath id="T"><path d="M465 480h2v.32813h-2zm0 0"/></clipPath><clipPath id="U"><path d="M144 466h4v2h-4zm0 0"/></clipPath><clipPath id="V"><path d="M144 453h4v2h-4zm0 0"/></clipPath><clipPath id="W"><path d="M144 439h4v3h-4zm0 0"/></clipPath><clipPath id="X"><path d="M144 426h4v2h-4zm0 0"/></clipPath><clipPath id="Y"><path d="M144 413h4v2h-4zm0 0"/></clipPath><clipPath id="Z"><path d="M144 399h4v3h-4zm0 0"/></clipPath><clipPath id="aa"><path d="M465 397h3v2h-3zm0 0"/></clipPath><clipPath id="ab"><path d="M144 386h4v2h-4zm0 0"/></clipPath><clipPath id="ac"><path d="M144 373h4v2h-4zm0 0"/></clipPath><clipPath id="ad"><path d="M144 359h4v3h-4zm0 0"/></clipPath><clipPath id="ae"><path d="M144 345h4v4h-4zm0 0"/></clipPath><clipPath id="af"><path d="M466 347h2v3h-2zm0 0"/></clipPath><clipPath id="ag"><path d="M144 332h4v4h-4zm0 0"/></clipPath><clipPath id="ah"><path d="M144 317h3v7h-3zm0 0"/></clipPath><clipPath id="ai"><path d="M466 319h2v4h-2zm0 0"/></clipPath><g id="aj" clip-path="url(#clip1)"><path fill="#fff" fill-opacity="0" fill-rule="evenodd" d="M0 0h1000v1000H0zm0 0"/><path fill="#d3d3d3" fill-opacity="0" fill-rule="evenodd" d="M162.15234 355.86719l-.23437.29297.0586.23437.11718.17188.17578.23437.29297.34766.11328.0586.11719-.17188.0586-.23438.17577-.17578.46485-.17578h.69922l.23437.29297.28906.8164.0586.17579.17578.23046.35156.23438.69922.69922.17188.17578.23437.34765.23438.41016.28906.58203.41015.46485.23047.23437.23438.17578.11719.23047.17578.29297.17187 1.16406v.23438l.0586.28906.05859.11719.11719.11719.34765.41015.11719.17188.17578.17578.17578.23437.11719.17188.17188.35156.05859.23438.23437.40625.23438-.0586-.17578.17578-.0586.92969h-.58203l-.23437-.11328-.34766.11328-.11719.11719-.05859.29297-.0586.17578-.11718.17187-.46484.29297-.0586.23438-.0586.11328v.64453l.0586.17187v.41016l.0586.0586v.40624l.05859.40625.11719.17579.05859.05859.23047.64062-.0586.29297v.69922l-.05859.58203v.23438l-.0586.23047-.05468.35156v1.92187l.05469.1172h.42578l-.36719.11718-.02344.35156.89063 1.16797 1.74219.53906 1.33984.35938v.53906l.08984.8086.53516.71484 1.51953.26953.89063-.08594.08984 1.16406.53516.1797 1.16015-.1797 2.05469-.98437 1.16016-.36328 1.8789-.17578 1.69531-.1797-.17968.71876-1.51563.08594-1.25.08984-.80469.26953-1.07421.8086.26953.71875.53515.89843-.17968.625-.26563.8086.26563 1.07812.625.89844.80468.17969 1.25-.1797-.26562.72267.09766.5039.05468.29297v.17188l.0586.29296v.40625l.17578.1172.35156.11718h.40625l.29297-.17578.11328-.11719.0586-.11719.11718-.23047.0586-.17578.35156-.46484.23047-.17578.17578-.0586.17578.0586.0586.17578.11718.98828.05469.46875.0586.17188.11718.23437.17578.0586.8164.05859h.28907l.11719.23437.05859.40625.0586.35156v1.10547l.11718.29297.11719.34766.28906.69922.17578.35156.58203.7539.35157.17579.17187.0586.46875.23437.64063.46484.34765.23438.29297.17578.29297.05468.23047.0625.8164.34766.29297.17578.11328.17188.35157.35156.11719.17578.52343.64063v.28906l.0586.35156v.34766l.05859.35156.0586.28906.11718.0586.17188.05859h.17578l.58203.23437.17578.1172.17578.28905.17578.23438.11328.23437.29297.23047.11719.11719v.41016l.0586.05468.28906.23438.23437.11719.0586.11718.11718.17188.0586.11719.23047.23437.05859.17578.23437.0586.1172.05859-.1172.11328-.05859.11719v.11719l-.11719.29296-.11719.28907v.58203l.17579.11719.11718.05859.0586.11719.11719.11719.11328.05859.17578.34765.0586.35157.05858.40625v.17578l-.05859.17578-.11719.69922v.17187l.1172.17579.29296.29296h.40625l.17578.1172.11719.17187.11719.29296v.23438h-.52735l-.23047-.23438h-.23437l-.17578.0586-.0586.69922.0586.34765.11719.17579.17578.41015.11718.23047.28907.46875.17578.05469h.52344l.23437.0586.75781.64062.0586.29296v.23438l.05859.0586.23047.34765v.35156l-.11719.17188v.29297l.29297.28906.29297.17578.17187.0586.29297.17577.29297.1172.58203.40624.28906.23438.29297.17578.21875.16015.01563.01172.23047.17579.64062.52343.17578.23438.1172.17578.17577.17578.11328.17188v.64062l.1172.17578.46874.11719.58203.11719.23438.05859.23047.11328.29297.11719.11328.0586.58593.35156.28907.17187.17578.0625.17578.05469.17578.0586.69922.35155.28906.17579.23438.05468.28906.17578.23437.1172.64063.40624.29297.11719.17187.0586.23438.05859.41015.05859.23047.0586.23438.11718.0586.17188-.41017.17578.46875.0586.0586.29296.11328.23438.17578.05468.23438.0586.17578.05859.40625.11719.64062.23437.11719.17188.0586.23437v.17578l-.0586.1172-.0586.40624.23438.23438.11719.05859.34766.11719.64062.23047.17578.11718.28906.1172.17578.17577.23438.46485.58203 1.10546.17578.17579.34766.17578.17578.11719.35156.11718 1.04688.52344.23437.0586.46485.11327.29297.0586.46484.17578.75781.58203.23438.23438.34765.46484.17578.17578.28907.23438.8164.69921.29297.17579.28906.28906.29297.17578.29297.28906.69531.64063.17578.17578.29297.23437.28907.23438.46875.28906.64062.58203.34766.23438.23437.29297.34766.34765.35156.46485.9336.99218.34765.40625.11719.17579.23437.05859.11328.11719.64454.17578.23047.11328.23437.0586.29297.17577.23047.1172.9336.69921.40624.40625.23438.17578.40625.17578.23437.11719.8164.34766.34766.23437.23438.11719.29297.28906.23047.11719.7578.35156.35157.17188.23047.05859.29297.11719.23437.0586.8711.17577h.8164l.46875.23047.17188.0586.875.69921.46484.1172.29297.05858.17578.0586.23047.0586.46875.05859.34766.05859.35156.0586.40625.05859h.29297l.17187.0586v.23046l.17578.17578h.29297l.34766.0586.35156.05859.69922.11719h.64063l.46484-.23438.29297-.17578.17187-.11719.41016-.17187.28906-.17578.9336-.46485.46875-.29297.52343-.29296.46485-.17188.46484-.17578 1.05078-.46485.28906-.11718.41016-.11719.28906-.11719.52735-.17578 1.51562-.69922.58203-.34765.28907-.0586.29297-.0586.34765-.11718.875-.23047.35156-.11719h.11329l.23437-.05859.875-.23437.23438-.0586h.8125l.35156-.0586.8164-.11718.17188-.0586.35156-.05468.29297-.0586.23047-.05859.8164-.17578.17579-.0586h.34765l.23438-.05859.46484-.11718.75781-.17188.23438-.0586h.34765l.41016-.11718.28906-.0586 1.28516-.05859h.28906l.41016-.0586.23047-.05858h.17578l.875-.1172h.40625l.41015-.11718h.34766l.35156-.11328.8711-.0586h1.75l1.04687.28907.41016.11719.28906.11718.35156.11719.28907.11719 1.05078.17187.28906.0586h.29297l.29297.05859.17187.0586.41016.05859.17187.0586.1172.05858h.11718l.11719.0586.35156.0586h.11328l.41016.0664 1.92187.39453 1.92578.39453 1.51953.44922 1.69532.71875 2.14453.80469 1.60547-.71875 1.42968-.80469 1.16016-1.07813 1.25-.44921 3.03516-.71875 1.875-.35938 2.14453-1.34765 2.23437-1.25391 2.5-1.25781 1.69531-.44922 1.78516-.17969 1.16016-.26953.625.53906 1.33984-.26953.71485-.98828.98437-1.34375.44531-.17969.80469-.35937 1.875-.53907 1.78516-.44921 1.25-.26954 1.16015-.08984 1.69922-.08984 1.96094-.26954 1.25-.08984h.53906l.625-.08984h.89063l2.14453-.17969 2.41015-.17969 2.58985-.08984 1.69531.17969 1.60938.08984 1.42968.35938 1.16016.71875 1.875.98828 1.16015 1.52734.26563.71484.6289.08985.35548.89844.53515.53906.53516 1.52734 1.07422.35938h.53515l-.80469.53515.08985 1.70703.71484 2.69532.89063.80468.89453.98829.71484 1.2578 1.78516.53907 1.51953-.17969.35547 1.34375 1.60937-.80469.98047-.53906.26953.26953.31641-.21484.21875-.14453.80078.44922.44922-.35938h.35547l.53515-.26953.53907-.71875.53515-.26953.625-.98828 1.16016.44922.83984.3711 1.39454.61718 1.6953-.17969h1.60548l1.78515.08985.17969-1.70704.53516-1.34375.80468.26954.4922.84765.40233.40625-.08984.53906v.35938l.71485.44922.71093-.26953h1.42969l.35938.98828.4453 1.25781.71485 1.34375 1.25.6289 1.69531.62891.71485-.17969.17969-.53906.98046-.08984.44922.35937.08594 1.25782-.26563.6289-.53515.17969v.53906l.71484.98438.26563.53906.98437.98828.80078 1.07813-.26562.35937-.08985.89844-.625 2.33203-.35546 2.0664-.08985 1.79298-.17969.71875-.08984.53906v1.4375l-.98047 1.88281-.35937 1.70703-.53516.89844-.80469 1.16797-.26562.53906 2.05469 1.2539.08593.35938-.35546.53906-.08985-.17968v.80859l.08985 1.4375-.44532.71484-1.07422.09375-.26562.71485.53515.89844.8047.71875 1.16015.80859 1.33984.26953.44531.35938-.35546.44921-1.78907-.08984-1.25-.44922-.71484-.71875-.625-.08984-.17578 3.58984-.1875 1.3086h89.35937V311.70313h-55.26953v49.08203l.76172.125 3.28906.54296 2.02344 2.83594v2.7539l2.35156.33204 2.34766.33203h4.05078l-1.3789 4.16016-2.02344.70703-2.02344.70312-.54297.34375-2.59375 1.6172-.1875.11718-2.02344-2.07813-.73046-2.74218-2.67188-2.07813-1.375-3.5-.0664-.08203-1.95704-2.67188 2.75-1.41796v-49.08204H294.42187v91.41407l.1172.03125.1328.01172.07422.07421.10547.04688.08985.0586.08593.05859.08985.0586.29687.29687.0586.08984.03125.11719.02734.11719.01563.13671-.03125.1172-.0586.08983-.0586.08594-.04296.10547-.04688.10156-.02734.1211v.14453l.17578.26953.14844.14844.07422.08594.07422.07421.04296.10547.0625.08985.0586.08593.04297.10547.0586.08985.04687.10156.04296.10547.0586.08594.11719.17968.07421.07422.0625.08594.0586.08984.04297.10547.0586.08985.05858.08593.0625.08985.0586.08984.04297.10156.11719.17969.07421.07422.0586.08594.07422.07421.08984.0586.10547.04687h.14844l.1328-.01562.13282.01562.10156-.04687.07422-.07422.04688-.10156-.01563-.13281v-.14844l-.04687-.10547-.02735-.11719-.04687-.10156-.02735-.1211-.04296-.10156-.0625-.08984-.04297-.10156-.04297-.10547-.03125-.11719-.01563-.13281-.01171-.13672.08593-.0586.0586-.08593.12109-.03125.04297.10547.01562.1328v.1172l.0586.10156.0586.08984.08983.0586.14844.14843.0586.08985.04296.10547-.01171.10156.08593.0586.10547.04687.08594.0586.08984.05858.07422.07422-.11719.02735-.10546.04687-.08594.0586-.07422.07421-.0586.08985-.0625.08594-.02734.12109-.04687.10156-.04297.10547-.03125.11719-.01172.13281-.01563.13281v.14844l.02735.11719.04687.10547.04297.10156.0586.08984.07421.07422.08985.0586.07422.07421.08984.0586.0586.08984.04296.10547.04688.10156.11719.03125.1328.01563h.14845l.11718-.03125.10547.04297.04297.10547.04688.10156.02734.1211L299.5 410l.02734.11719.03125.1211.02735.11718.10547.04297.10156.04687.13281-.01562.14844.14844.0625.08593.07422.07422.07031.07422.08984.0625.10547.04297.10156.04297.1172.03125.13671.01562.11719-.03125.07422-.07422.02734-.11718-.01172-.13282-.03125-.12109-.02734-.11719.04297-.10547h.11719l.08984.0625.11719.02735h.14843l.13282.01562h.14843l.13282.01563.1328-.01563h.14845l.1328-.01562.13282-.01172.13672.01172.11719-.02735.13281-.01562.1914-.0586-.05859.17579-.01562.1328-.02735.1211-.01562.13281-.0586.08594-.1328.01563-.10548.04687-.10546.04297-.1172.03125-.11718.02735-.26563.03125h-.14843l-.13281.01562-.07422.07422.05859.08594.14844.14843.11719.1797.07421.0703.08985.0625.08984.0586.08594.0586.08984.05858.10156.04297.10547.0625.10547.04297.08594.0586.10547.04687.10156.04297.17969.11719.0586.08984-.04298.10156-.04687.10547.01562.13281.22266.22266.0586.08985.04296.10156.03125.1211.04297.10155.01563.13282.03125.11718.01171.13672.03125.11719.14844.14844.10156.04297.10547.04296.1172.03125.1328.01563.13672.01563h.11719l.11719-.03125.08984-.0586.04297-.10547.04688-.10156.04296-.10547.03125-.11719.01172-.1328v-.14845l-.01172-.1328-.01562-.13282-.03125-.11719-.04297-.10547-.04688-.10547-.04296-.10156-.04297-.10547-.01563-.13281.01563-.13281.02734-.11719.03125-.11719.02735-.1211.04687-.10155.08984-.0586.08594-.0625.07422-.07422.08984-.05859.22266-.22266.0586-.08593.07421-.07422.11719-.17969.0586-.08594v-.14844l-.07423-.07421-.10156-.04688-.10547-.04297-.10156-.04297-.0586-.08984-.04687-.10547-.02734-.11719.08984-.05859.11719-.03125.10156-.04297.17969-.11719.14844-.14843.01172-.13282-.01172-.10546-.08985-.0586-.1328.01563h-.14845l-.1328.01562-.13282-.01562-.1211-.03125-.08593-.0586-.07422-.07422-.0586-.08984-.0625-.08594-.11718-.17969-.0586-.08593.03125-.1211.08594-.05859.1211-.03125.05859-.08594v-.1211l-.03125-.11718-.0586-.08984-.05859-.08594-.04687-.10547-.02735-.11719-.01562-.1328.0586-.08985.07421-.07422.08984-.0586.1172-.17968.07421-.07422.0586-.08594.14843-.14844.1211-.03125.1328-.01562.13282.01562.07422.07422.04297.10547.01562.13281-.03125.1172-.11719.03124-.1328.01172-.14844.14844-.04297.10547-.04688.10156-.02734.1211-.03125.11718v.14844l.03125.11719.04297.10546.05859.08985.07422.07031.07422.07422.11719.03125.12109.02734.11719-.02734.1328-.01563h.1172l.08984.0586.07422.07422.04687.10546.0586.08594.10156.04688.13281.01562.10547.04297.08594.0586-.01172.10546-.07422.07422-.17969.11719-.05859.08984-.08984.0586-.07032.07422-.07421.07421-.0625.08985-.02735.11719-.01562.1328.01562.13282-.01562.13281v.14844l.01562.13281.02735.1172.03125.12108.07421.07422.08985.0586.08594.0586.08984.05858.11719.03125v.08594l-.10157.04688-.08984.0586-.26563.03124-.11718.02735h-.14844l-.10547.04296-.10156.04688-.0586.08984-.0625.23438-.01171.13281-.03125.1211-.01563.1328v.29298l-.01172.1328.01172.13673.01563.1328.1328.01563.13282.01172.1211.03125.08593.0586.07422.07421.04688.10547.04296.10157.01563.1328v.44532l-.01563.13281v.44532l.03125.26562.02735.11719.01562.13281.03125.11719.08594.21094.03125.26562v.14844l-.03125.11719-.02734.11718-.03125.1211-.02735.11719-.03125.11718-.03125.1211-.01171.1328-.01563.13282.08984.0586.1172-.03125.10155.01562.04688.10547-.03125.26562v.44141l-.04297.10547-.04688.10547-.04296.10156-.04297.10547-.0586.08594-.03125.12109-.04296.11719-.03125.11719-.01563.1328.01563.13282.05859.08984.10547.04688.08594.0586.05859.08593-.01172.13672-.03125.11719-.04297.10156v.44531l-.01562.13281v.14844l-.03125.11719-.04297.10547-.02735.11719-.04687.10546-.04297.10157-.03125.12109-.02734.11719-.03125.13281-.03125.11719-.02735.11719-.04297.10546-.03125.1172-.03125.12108-.01171.13282-.01563.13281v.29688l.02734.11718v.14844l.04688.39844.02734.11719.0586.08984.12109.03125h.14844l.13281-.01563.0586.08985v.11719l-.0586.08984-.08984.0586-.10157.04296-.10546.04688-.08985.05859-.08594.0586-.13671.01562-.1172-.03125-.1328-.01563-.10157.04688-.0625.08594-.01172.13671-.01562.13282-.03125.11719-.02735.11718-.01562.13281-.03125.1211v.29687l.01563.13282.03125.11718v.14844l.01171.13281v.14844l-.02734.11719-.04688.10156-.02734.1211-.03125.11718-.0586.08985-.07421.07421-.10156.04297-.10547.04688-.11719.02734-.1211.03125-.10156-.04687.0586-.08594.10547-.04688.02734-.11718.03125-.11719.02734-.1211.03125-.11718v-.14844l.01563-.13281-.03125-.11719-.04297-.10547-.10547.01563-.07422.07422-.10156.04296-.08984.0625-.07422.07422-.04297.10157-.01563.1328-.03125.1172L304.25 426l-.03125.11719-.02734.11719-.03125.12109-.02735.11719-.03125.11718-.04297.10547-.08984.0586h-.08984l-.1172-.03125-.03124-.08594.01562-.13672-.03125-.11719v-.14844l-.01171-.1328v-.14844l-.0625-.23438-.02735-.1211-.04297-.10156-.04687-.10546-.0586-.08594-.05859-.08985-.04297-.10546-.0625-.08594-.14844-.14844-.0703-.07422-.10548-.04687-.10547-.04297-.10156-.04297-.29687-.29688-.08985-.07421-.08594-.0586-.10546-.04297-.08985-.0625-.08594-.0586-.10546-.04296-.08985-.0586-.08594-.0625-.07421-.0703-.10547-.04688-.08594-.0586-.10547-.04296-.08984-.0625-.10156-.04297-.10547-.04297-.08594-.0586-.10547-.04687-.10547-.04297-.10156-.04687-.08985-.0586-.10156-.04297-.10547-.04296-.08984-.0625-.11719-.02735-.13281-.01562-.13281.01562H299.75l-.13281.01563-.11719-.03125-.08984-.0586-.07422-.07422-.08985-.05859-.10156-.04688h-.14844l-.12109-.02734-.10156-.04297-.07422-.07422-.11719-.17968-.08984-.0586-.10156-.04297-.08985-.0625-.10547-.04296-.08984-.0586-.08594-.0586-.10547-.04687-.0586-.08594-.05858-.08984-.04297-.10547-.04688-.10156-.07422-.07422-.08594-.0586-.07421-.07421-.08985-.0586-.22265-.22265-.04297-.10547-.03125-.26563.10547-.04296h.14453l.10547.04296.07421.07422.08985.0586.08594.0586.10546.04687.08985.05859.14844.14844.0703.07422.14845.14843.0625.08594.07421.07422.08594.0586.07422.07421.08985.0625.08984.0586.08594.05859.26953.17578.10156.04688.10547.04296.10156.04297.04688-.07421.05859-.08594.07422-.07422.07031-.07422.10547.04297.07422.07422.0586.08984.04296.10156.04688.10547.04296.10547.1211.02735.11719-.02735.07421-.08984.04297-.10547.0586-.08985.07422-.07421.10546-.04297.1172-.02735.1328.01172.08985.0586.14844.14843.05859.08985.04297.10547.04687.10156.04297.10547.04297.10156.10547.04688.10547.04296.13281.01563.08594-.0586.0586-.08984.07421-.07422.10547-.04297.11719.02735.10547.04687.10156.04297.10547.04297.10156.04688.17969.11718v.11719l-.01563.13281.01563.13281.01562.13672.0586.08594.10156.04688.1211.02734.11718.03125h.14844l.11719-.03125.05859-.08984.17969-.1172.05859-.08983.07422-.07422.0586-.08594.11718-.17969.17969-.11719.11719.03125.08984.0586.04297.07422-.01563.1328v.1172l.08985.05859h.14843l.13282-.01563.1328-.01171.26563-.03125.10547-.04297.11719-.03125.1211-.02735.07421-.07421.07031-.07422.0625-.08985-.01562-.10547-.04688-.10156-.10156-.04297-.10547-.01562-.11718.02734-.26563.03125h-.14844l-.07421-.07422-.08985-.0586-.11719-.03124-.11718-.02735-.13282-.01562h-.14843l-.13282.01563h-.29687l-.10547-.04688-.14844-.14844-.04297-.10156-.05859-.08984.22266-.22266.08593-.0586.10547-.04296.11719-.03125.13281-.01563.13281.01563.13672.01562.10157.04297.1328-.01172.08985-.0625.10156-.04297.0625-.08984-.04687-.10156-.08984-.0586-.1172-.03125-.10155-.04296-.0586-.08985-.0625-.08984v-.11719l.01563-.13281.10547-.04688.07421-.07031v-.1211l-.08984-.05859-.03125-.11719.08985-.05859.07421-.07422.04297-.10547.0586-.08984.04687-.10156.01563-.13281v-.14844l-.04688-.10547-.04297-.10156-.08984-.0586-.13281-.01562-.10157-.04297-.13671-.01563-.1172-.03125h-.4453l-.13282-.01562-.13281-.01172-.13281-.01563-.11719-.03125h-.14844l-.13281-.01562-.13281-.01172-.26563-.03125-.1211-.04297-.08593-.0586-.07422-.07421v-.14844l.01172-.13281.10547-.04688.10156-.04296.13281-.01563h.15235l.13281-.01562h.29297l.1211.03125.10156.04296.08984.0586.23438.0625.12109-.04688.08984-.05859.10156-.04297.13282-.01562.10547.04296.10156.04688.13281.01172.1211-.02735h.14453l.12109-.03125.11719-.02734.10547-.04687.07421-.07422.08594-.0586.14844-.14843.0586-.08594.04687-.10547.02734-.11719.01563-.10547-.10156-.04296-.08985-.0586-.11719-.03125-.10546-.04297-.08985-.0625-.07422-.08594-.07422-.07421-.10156-.04297-.10547-.04688-.10156-.04297-.0586-.08984-.04687-.10156-.08594-.21094-.0625-.08594-.05859-.08984-.07422-.07422-.08594-.0586h-.26953l-.11719.03126-.08984.05859-.10156.04297-.13281.01562-.10547-.01562-.02735-.11719-.0625-.08984-.11718-.03125-.10157-.04297-.14843-.14844-.03125-.11719-.01563-.10546.07422-.07422.17969-.1172.11719-.02733.11718-.03125.13672.01562.10156.04297.10547.04297.10156.04687.10547.04297.1172.03125.1328.01563.1172.02734.1328.01563.10547-.01563.08985-.0586-.07422-.07421-.10547-.04297-.07422-.07422-.07422-.08984-.14844-.14844-.08593-.0586-.08985-.05859-.07422-.07422-.08984-.0586-.10156-.04687-.1211-.02734-.10156-.04688-.10547-.04296-.11719-.03125-.10156-.04297-.1211-.03125h-.14843l-.11719.03125-.10546.04297-.08594.0625-.17969.11718-.08594.0586-.08984.0586-.10547.04687-.08594.05859-.10547.04297-.10156.04297-.10547.04687-.07422.07422-.05859.08985-.0586.08593-.04687.10547-.0586.08594-.07421.07422-.13281-.01172-.1172-.03125h-.11718l-.07422.07422-.08984.0586-.07422.07421-.08984.0586-.08594.05859-.10547.04687-.10156.04297-.13672.01563-.10156-.04297-.14844-.14844-.10547-.04688h-.08594l-.10547.04688-.10156.04297-.1211.03125-.11718-.03125-.07422-.07422v-.11719l.03125-.1211.07422-.0703.0586-.08985.07421-.07422.11719-.03125.10547-.04296h.29297l.13281-.01563.13672-.01563.10156-.04296.08985-.0586.10156-.04687.08984-.0586.13281-.01171.08985.05859.13281.01172.08984-.0586.08594-.05859.10547-.04297.08984-.0586.08594-.0625.08985-.05859.14843-.14843.0586-.08594.05859-.08985.10547-.04296.13281-.01563.11719.02735.1211.03125.05859-.0586.05859-.08984.03125-.26563.02734-.11719.10547.01172.13281.01563.10157-.04297.08984-.0586.0586-.08984.07421-.07422.0586-.08984.04687-.10156.01172-.13281-.01172-.13282-.04687-.10547-.14844-.14843-.0586-.08985-.05859-.08594-.04297-.10546v-.44532l.01563-.1328v-.14845l.01172-.1328-.0586-.0586-.08984.0586-.10156-.04298-.17969-.11719-.08594-.05859-.0625-.08984-.0586-.08985-.07421-.07421-.08594-.0586-.1211.03125-.10155.01172-.10547.04688-.08594.05859-.10547.04297-.14844.14844-.08984.05859-.08594.0586-.08984.0625-.10547.04296-.13281.01563v-.1211l.10547-.04297.11718-.03125.07422-.0703.04297-.10548v-.14844l-.02734-.11718-.14844-.14844-.13281-.01563h-.14844l-.11719.03125-.10547.04297-.10156.04297-.08984.0625-.11719.02735-.07422-.07422.01172-.13281-.04297-.10157-.04297-.10547-.08984-.05859-.11719.02734-.1211.03125-.11718.03125-.10156.04297-.1211.03125-.10156.04297-.10547.04297-.08984.0586-.10156.01562v-.11719l.01562-.13281-.0586-.08985-.07421.04297-.14844.14844-.0586.08985-.07421.07421-.04688.10547-.04296.10156-.07422.07422-.0586.08985-.07422.07422-.05859.08593-.07422.07422-.08984.0625-.07422.07031-.07422.07422-.10156.01563-.13281.01562-.10547-.04296v-.1211l.14843-.14844.04297-.10156.0586-.08984.04687-.10156.04297-.10547.0586-.08985.03124-.11719.04297-.10156.03125-.1211.02735-.11718.04687-.10547.04297-.10156.04297-.10547.07422-.07031.08984-.0625.08985-.0586.10156-.04296h.29687l.26563-.03125.10547-.04297-.07422-.07422-.11719-.03125-.10547-.04297-.08984-.0586-.10156-.04687-.08985-.0586-.10156-.04296-.10547-.04297-.08984-.0625-.08594-.0586-.10547-.04296-.10156-.04297-.1211-.03125-.11718-.03125-.10157-.04297L297.5 410.25l-.10156-.04297-.08985-.0586-.04296-.10546-.01563-.13281.10156-.04297.13281-.01563.13672.01563.13282-.01563.10156-.04297.0586-.08984.01562-.10547-.08985-.0586-.07421-.07421-.10157-.04297-.08984-.0586-.14844-.14843-.04297-.10547-.01562-.13281v-.29297l-.0586-.08985-.08984-.05859-.07422-.07422-.04297-.10547-.03125-.11718-.0586-.08985-.07421-.07422-.11719-.02734-.07422-.07422-.08984-.0586-.08984-.0625-.08594-.05859-.07422-.07421-.0586-.08594-.04687-.10547-.08594-.0586-.14843-.14843-.19532-.0586-.1328.01563-.10157.04297-.07422.07422-.04688.10156-.04296.10547-.0586.08984-.0586.08594-.29687.29687-.08984.0586h-.08594l-.0625-.08594-.04297-.10547.03125-.11719.0586-.08984.02734-.11719-.01172-.13281-.08984-.0625-.10547.04688-.11719.02734-.11719.03125-.26953.17578-.10156.04688-.11719.02734-.10546.04687-.08985.0586-.10156.04297-.0586-.08594-.04687-.10547.01563-.13281.04687-.10547.07031-.07422.07422-.07031.0586-.08985v-.14843l-.04297-.10547h-.23829l-.10156.04687-.03125.11719-.02734.11719-.03125.1211-.07422.04296-.13281.01563-.07422-.04688-.04297-.10156-.04297-.10547-.04687-.10156-.04297-.10547-.1211.03125-.10156.04297-.13281.01562-.11719.03125-.10547.04297-.08984.0586-.10156.04687-.1211.02734-.13281.01563-.10156-.04297-.0586-.08985-.04687-.10546-.04297-.10157-.04297-.10546v-.1172l.0586-.08984.08593-.05859.17969-.11719.10156-.04687.10547-.04297.10547-.0586.10156-.04296.08985-.0625.10156-.04297.10547-.0586.10156-.04687.08984-.0586.10547-.04296.10156-.04297.08985-.0625.10156-.04297.13672-.01563.11719.03125.10156.04297.1211.03125.10156.04297.10546.04688.10157.04296.10547.04297.10156.04688.10547.04297.10156.04297.10547.04687.08594.0586.10546.04296.1172.03125.10546.04297.10156.04688.08985.0586.10547.04296.10156.04297.10547.04687.11719.02735.10156.04687.1211.02735h.14843l.08594-.0586.01562-.10156.0586-.08984-.02735-.1172-.07422-.07421-.11719-.17969-.07421-.07422-.08985-.07421-.17969-.1172-.08593-.05859-.10547-.04296-.10156-.04688-.26954-.17578-.05859-.08985-.07422-.07421-.0586-.08985-.04296-.10156-.03125-.11719-.01563-.13672v-.5625l-.01171-.1328-.01563-.13282-.03125-.11719-.01562-.13281-.01172-.13281-.03125-.1211-.22266-.22265-.0586-.08594-.01562-.10547.03125-.11719.13281-.01562v-91.41406H172.9922v1.45312l-.0586.23438-.35156 1.05078-.17187.52343-.1172.34766-.17577.41016-.11719.17187-.23438.29297-.23046.0586h-.35157l-.11718.05859-.23047.40625v.29297l.11719.17578.23046.23047.1172.23437.64062.75781.29297.46485.17578.23437.23047.35156.23437.34766.64063.8164.17578.46485.17187.41016.11719.69531.17578.46875.11719 1.39844.0586.46484v.875l.11718 1.04688v4.78125l-.0586.46484-.35156 1.28125-.17578.52344-.11328.41015-.35156.9297L172.93359 336l-.23437.58203-.11719.17578-.17187.34766-.17578.40625-.35157.8164-.0586.29297-.11327.29297-.11719.28906-.0586.17579-.11718.875-.0586.40625-.05859.11718-.0586.17579-.05859.17187-.23047.52734-.11718.17188v.23437l-.11719.23438-.0586.17187-.17577.58594v.28906l-.0586.17579v.29296l-.0586.11329-.05859.52734v.17187l-.05468.23438v2.6211l-.17578.8164-.1172.17578-.17577.23438-.1172.17187-.11327.23438-.58594.93359-.23047.28906-.29297.46485-.17578.23437-.28906.35156-.35156.69922-.11328.23047-.17579.41016-.17578.23046-.40625.52735-.8164.69922-.29297.17187-.28906.23438-.17579.11719-.17578.17578-.52344.40625-.52734.17578-.17187.17578-.23438.05469-.64062.17578h-.75782m12.21094 31.02344l-1.07422.44921.35938.89454 1.25-.71485.44531-.53906-.98047-.08985"/><path fill="#d3d3d3" fill-opacity="0" fill-rule="evenodd" d="M201.50781 416.59766h-.89453l.44922.6289.98047.35938.80469-.08985.4453-.98828-.17577.08985-.71485-.35547-.89453.35547m154.6211 59.0703l-.0586-.52343v-.29297l.11328-.29297.0586-.23046.46875-.46875h.11328l.11719-.11329.11718-.05859h.17579l.23437-.0586h.34766l.23437.0586.11719.0586.23047.17187.0586.17578.11718.58203v.29297l-.11719.17578-.17187.28906-.17579.17579-.52734.52343-.23047.23438-.11719.0586h-.17578l-.11718-.0586-.40625-.29297-.17579-.11719-.11718-.0586-.0586-.11327-.05468-.1172m6.64062-10.95702l-.0586-.17188v-1.10937l.0586-.17188.17578-.0586.17188-.05858h.17578l.23437-.0586.1172.0586.05858.69921-.05859.17188-.11719.17578-.11718.0586-.23438.52343-.11328.0586h-.23438l-.05859-.1172m9.61328-14.39062l-.11719-.17578v-.69922l.29297-.875.1172-.17187.17577-.35156.11328-.23047.1172-.29297.35155-.75781.1172-.23047.17187-.23438h.17578l.11719-.0586h.64062l.11719.0586.23437.23438.17188.11328.35156.29297.11719.11718.11328.17579v.11328l.11719.05859.11718.11719v.69922l-.05859.17578v.23047l-.0586.17578-.34765 1.05078-.11719.23047-.11719.23437-.11718.0586-.23047.23437-.64063.28906h-.875l-.41015-.11718-.64063-.46485"/><path fill="none" stroke="#bebebe" stroke-linecap="round" stroke-linejoin="round" stroke-miterlimit="10" stroke-width=".5" d="M467.95703 311.69531H144.02734v168.625h323.9297v-168.625"/><g clip-path="url(#a)"><path fill="#fff" fill-opacity="0" fill-rule="evenodd" d="M144 475.89063v4.4375h.0039H144V311.67188h.0039H144v164.21875"/></g><g clip-path="url(#b)"><path fill="#fff" fill-opacity="0" fill-rule="evenodd" d="M144.0039 480.32813V311.67188h53.25782v119.6289l-.44922.20703.44922.26563.33594-.26563-.33594-.20703v-119.6289h26.6289V431.3164l-.16406.1914.16406.17188.32032-.17188-.32031-.1914V311.67187h8.875v121.4375l-2.61329 2.83594 2.61328 2.47656 3.04688-2.47656-3.04688-2.83594v-121.4375h8.87891v125.73829l-3.16406 2.97265 3.16406 2.77735 4.4375-1.20704 1.57813-1.5703-1.57813-2.01173-4.4375-.96093V311.67187h31.0664v118.73438l-1.40624 1.10156 1.40625.98047 4.4414-.02734 1.70704 3.48437 2.73046 2.7461 4.4375.09375 4.4375-2.19532.66016-.64453-.66016-.67969-4.4375-2.36718-4.4375-.97656-1.66406-.41407-2.77344-1.01172-4.4414-.08984V311.67187h102.08203v132.20704l-1.25781.9414 1.2578 4.09375v1.4336l-.6328 3.35156.6328.67969 1.91017 3.7578.35546 4.4375 2.17579 1.35157 3.03125-1.35156-1.32422-4.4375 2.73046-2.64063 1.92188 2.64063-.91797 4.4375 3.4336 2.11719 1.11718 2.32421 3.32031 3.52344 3.44922-3.52344.98829-4.0078.41015-.4336 1.41016-4.4375-1.82031-2.5586-.84375-1.8789-3.59375-2.78125-2.6172 2.78125-1.8203 1.74219-2.46094-1.7422-1.97656-2.2539-4.4375-1.02344-4.44141-.07421v-1.4336l1.35547-4.09375-1.35547-.9414V311.67187h93.20312v168.65625h-73.9375l-1.51171-.66015-.64063.66015H144.00391"/></g><path fill="#50fcfc" fill-rule="evenodd" d="M197.26172 431.77344l-.44922-.26563.44922-.20703.33594.20703-.33594.26563m26.6289-.09375l-.16406-.17188.16406-.1914.32032.1914-.32031.17188m8.875 6.74219l-2.61329-2.47657 2.61328-2.83594 3.04688 2.83594-3.04688 2.47656m8.87891 4.73829l-3.16406-2.77735 3.16406-2.97265v2.70703l-.28125.26562.28125.2461.57813-.2461-.57813-.26562v-2.70703l4.4375.96093 1.57813 2.01172-1.57813 1.57031-4.4375 1.20704"/><path fill="#00e8fc" fill-rule="evenodd" d="M241.64453 440.6289l-.28125-.24609.28125-.26562.57813.26562-.57813.2461"/><path fill="#50fcfc" fill-rule="evenodd" d="M272.71094 432.48828l-1.40625-.98047 1.40625-1.10156 4.4414.08984 2.77344 1.01172 1.66406.41406 4.4375.97657v2.625l-4.4375.2461-.12109.17577.1211.1211 4.4375.26953.67968-.39063-.67969-.42187v-2.625l4.4375 2.36719.66016.67968-.66016.64453-4.4375 2.19532-4.4375-.09375-2.73046-2.7461-1.70704-3.48437-4.4414.02734"/><path fill="#00e8fc" fill-rule="evenodd" d="M281.58984 436.0664l-.12109-.12109.1211-.17578 4.4375-.2461.67968.42188-.67969.39063-4.4375-.26953"/><path fill="#50fcfc" fill-rule="evenodd" d="M374.79297 448.91406l-1.25781-4.09375 1.2578-.9414 1.35548.9414-1.35547 4.09375m0 5.46485l-.63281-.6797.6328-3.35155 4.44142.07421 4.4375 1.02344 1.97656 2.2539 2.46094 1.7422 1.8203-1.7422 2.6172-2.78124v14.65625l-.5625 1.4414.5625.59766.58593-.59765-.58594-1.44141v-14.65625l3.59375 2.78125.84375 1.8789 1.82032 2.5586-1.41016 4.4375-.41015.4336-.98829 4.0078-3.44921 3.52344-3.32032-3.52344-1.11719-2.32421-3.43359-2.1172.91797-4.4375-1.92188-2.64062-2.73046 2.64063 1.32421 4.4375-3.03125 1.35156-2.17578-1.35156-.35546-4.4375-1.91016-3.75781"/><path fill="#00e8fc" fill-rule="evenodd" d="M392.54688 467.61328l-.5625-.59765.5625-1.44141.58593 1.4414-.58594.59766"/><g clip-path="url(#c)"><path fill="#50fcfc" fill-rule="evenodd" d="M391.90625 480.32813l.64063-.66016 1.51171.66015h-2.15234"/></g><g clip-path="url(#d)"><path fill="#fff" fill-opacity="0" fill-rule="evenodd" d="M467.9961 480.32813H468V311.67188h-.0039H468v168.65625h-.0039"/></g><g clip-path="url(#e)"><path fill="none" stroke="#000" stroke-linecap="round" stroke-linejoin="round" stroke-miterlimit="10" stroke-width=".5" d="M147.4961 480.67578l-6.9922-.69531"/></g><g clip-path="url(#f)"><path fill="none" stroke="#000" stroke-linecap="round" stroke-linejoin="round" stroke-miterlimit="10" stroke-width=".5" d="M147.4961 480.67578l.93359 2.26953"/></g><g clip-path="url(#g)"><path fill="none" stroke="#000" stroke-linecap="round" stroke-linejoin="round" stroke-miterlimit="10" stroke-width=".5" d="M160.82422 480.16797l-7.01953.32031"/></g><g clip-path="url(#h)"><path fill="none" stroke="#000" stroke-linecap="round" stroke-linejoin="round" stroke-miterlimit="10" stroke-width=".5" d="M160.82422 480.16797l1.25 2.10937"/></g><g clip-path="url(#i)"><path fill="none" stroke="#000" stroke-linecap="round" stroke-linejoin="round" stroke-miterlimit="10" stroke-width=".5" d="M174.05469 479.55078l-6.85156 1.55469"/></g><g clip-path="url(#j)"><path fill="none" stroke="#000" stroke-linecap="round" stroke-linejoin="round" stroke-miterlimit="10" stroke-width=".5" d="M174.05469 479.55078l1.60547 1.85938"/></g><g clip-path="url(#k)"><path fill="none" stroke="#000" stroke-linecap="round" stroke-linejoin="round" stroke-miterlimit="10" stroke-width=".5" d="M187.27734 479.21484l-6.66406 2.22657"/></g><g clip-path="url(#l)"><path fill="none" stroke="#000" stroke-linecap="round" stroke-linejoin="round" stroke-miterlimit="10" stroke-width=".5" d="M187.27734 479.21484l1.78125 1.69141"/></g><g clip-path="url(#m)"><path fill="none" stroke="#000" stroke-linecap="round" stroke-linejoin="round" stroke-miterlimit="10" stroke-width=".5" d="M200.70313 479.61719l-6.88282 1.42187"/></g><g clip-path="url(#n)"><path fill="none" stroke="#000" stroke-linecap="round" stroke-linejoin="round" stroke-miterlimit="10" stroke-width=".5" d="M200.70313 479.61719l1.5625 1.89062"/></g><g clip-path="url(#o)"><path fill="none" stroke="#000" stroke-linecap="round" stroke-linejoin="round" stroke-miterlimit="10" stroke-width=".5" d="M213.89063 479.16797l-6.63282 2.32031"/></g><g clip-path="url(#p)"><path fill="none" stroke="#000" stroke-linecap="round" stroke-linejoin="round" stroke-miterlimit="10" stroke-width=".5" d="M213.89063 479.16797l1.80468 1.66797"/></g><g clip-path="url(#q)"><path fill="none" stroke="#000" stroke-linecap="round" stroke-linejoin="round" stroke-miterlimit="10" stroke-width=".5" d="M227.13281 478.97656l-6.48437 2.70313"/></g><g clip-path="url(#r)"><path fill="none" stroke="#000" stroke-linecap="round" stroke-linejoin="round" stroke-miterlimit="10" stroke-width=".5" d="M226.1914 479.3711l.94532.77734"/></g><g clip-path="url(#s)"><path fill="none" stroke="#000" stroke-linecap="round" stroke-linejoin="round" stroke-miterlimit="10" stroke-width=".5" d="M240.15625 478.42578l-5.90234 3.8086"/></g><path fill="none" stroke="#000" stroke-linecap="round" stroke-linejoin="round" stroke-miterlimit="10" stroke-width=".5" d="M239.30078 478.97656l1.07031.60156"/><g clip-path="url(#t)"><path fill="none" stroke="#000" stroke-linecap="round" stroke-linejoin="round" stroke-miterlimit="10" stroke-width=".5" d="M253.6289 478.6914l-6.21874 3.27344"/></g><g clip-path="url(#u)"><path fill="none" stroke="#000" stroke-linecap="round" stroke-linejoin="round" stroke-miterlimit="10" stroke-width=".5" d="M252.72656 479.16797l1.01172.6914"/></g><g clip-path="url(#v)"><path fill="none" stroke="#000" stroke-linecap="round" stroke-linejoin="round" stroke-miterlimit="10" stroke-width=".5" d="M267.0039 478.8125l-6.33593 3.03516"/></g><g clip-path="url(#w)"><path fill="none" stroke="#000" stroke-linecap="round" stroke-linejoin="round" stroke-miterlimit="10" stroke-width=".5" d="M266.08203 479.2539l.98828.72657"/></g><g clip-path="url(#x)"><path fill="none" stroke="#000" stroke-linecap="round" stroke-linejoin="round" stroke-miterlimit="10" stroke-width=".5" d="M280.45313 479.1289l-6.60547 2.40235"/></g><g clip-path="url(#y)"><path fill="none" stroke="#000" stroke-linecap="round" stroke-linejoin="round" stroke-miterlimit="10" stroke-width=".5" d="M279.49219 479.47656l.91015.82031"/></g><g clip-path="url(#z)"><path fill="none" stroke="#000" stroke-linecap="round" stroke-linejoin="round" stroke-miterlimit="10" stroke-width=".5" d="M293.91406 479.64453l-6.89453 1.36719"/></g><g clip-path="url(#A)"><path fill="none" stroke="#000" stroke-linecap="round" stroke-linejoin="round" stroke-miterlimit="10" stroke-width=".5" d="M292.91016 479.84375l.77343.95313"/></g><g clip-path="url(#B)"><path fill="none" stroke="#000" stroke-linecap="round" stroke-linejoin="round" stroke-miterlimit="10" stroke-width=".5" d="M306.86719 478.64844l-6.17188 3.35937"/></g><g clip-path="url(#C)"><path fill="none" stroke="#000" stroke-linecap="round" stroke-linejoin="round" stroke-miterlimit="10" stroke-width=".5" d="M305.96875 479.13672l1.02344.67578"/></g><g clip-path="url(#D)"><path fill="none" stroke="#000" stroke-linecap="round" stroke-linejoin="round" stroke-miterlimit="10" stroke-width=".5" d="M320.60547 480.15625l-7.01953.34766"/></g><g clip-path="url(#E)"><path fill="none" stroke="#000" stroke-linecap="round" stroke-linejoin="round" stroke-miterlimit="10" stroke-width=".5" d="M319.58594 480.20703l.625 1.05078"/></g><g clip-path="url(#F)"><path fill="none" stroke="#000" stroke-linecap="round" stroke-linejoin="round" stroke-miterlimit="10" stroke-width=".5" d="M333.85156 479.60938l-6.8789 1.4375"/></g><g clip-path="url(#G)"><path fill="none" stroke="#000" stroke-linecap="round" stroke-linejoin="round" stroke-miterlimit="10" stroke-width=".5" d="M332.84766 479.82031l.78906.9414"/></g><g clip-path="url(#H)"><path fill="none" stroke="#000" stroke-linecap="round" stroke-linejoin="round" stroke-miterlimit="10" stroke-width=".5" d="M344.75 480.32813l-.01953-.19922-.0586-.19141-.09765-.17578-.45703-.3789-.1914-.0586-.19923-.01953-.19922.01953-.1914.0586-.46094.3789-.09375.17578-.0586.1914-.01952.19923.01953.19921.05859.19141.09375.17969.46094.375.1914.0586.19922.01952.19922-.01953.1914-.0586.45704-.375.09765-.17968.0586-.1914.01953-.19922"/></g><g clip-path="url(#I)"><path fill="none" stroke="#000" stroke-linecap="round" stroke-linejoin="round" stroke-miterlimit="10" stroke-width=".5" d="M353.625 481.14844l6.83203-1.64063"/></g><g clip-path="url(#J)"><path fill="none" stroke="#000" stroke-linecap="round" stroke-linejoin="round" stroke-miterlimit="10" stroke-width=".5" d="M367.01953 479.23047l6.67578 2.19531"/></g><g clip-path="url(#K)"><path fill="none" stroke="#000" stroke-linecap="round" stroke-linejoin="round" stroke-miterlimit="10" stroke-width=".5" d="M380.88672 478.1875l5.57031 4.28125"/></g><path fill="none" stroke="#000" stroke-linecap="round" stroke-linejoin="round" stroke-miterlimit="10" stroke-width=".5" d="M381.69531 478.8125l.20313-1.21094"/><g clip-path="url(#L)"><path fill="none" stroke="#000" stroke-linecap="round" stroke-linejoin="round" stroke-miterlimit="10" stroke-width=".5" d="M396.40625 476.86328l1.16016 6.92969"/></g><path fill="none" stroke="#000" stroke-linecap="round" stroke-linejoin="round" stroke-miterlimit="10" stroke-width=".5" d="M396.57422 477.8711l.97656-.7461"/><g clip-path="url(#M)"><path fill="none" stroke="#000" stroke-linecap="round" stroke-linejoin="round" stroke-miterlimit="10" stroke-width=".5" d="M407.54297 478.15234l5.51562 4.35157"/></g><g clip-path="url(#N)"><path fill="none" stroke="#000" stroke-linecap="round" stroke-linejoin="round" stroke-miterlimit="10" stroke-width=".5" d="M426.97656 481.35938l-6.71875-2.0586"/></g><g clip-path="url(#O)"><path fill="none" stroke="#000" stroke-linecap="round" stroke-linejoin="round" stroke-miterlimit="10" stroke-width=".5" d="M426 481.0586l.23047 1.20312"/></g><g clip-path="url(#P)"><path fill="none" stroke="#000" stroke-linecap="round" stroke-linejoin="round" stroke-miterlimit="10" stroke-width=".5" d="M440.4414 480.16797l-7.01952.32422"/></g><g clip-path="url(#Q)"><path fill="none" stroke="#000" stroke-linecap="round" stroke-linejoin="round" stroke-miterlimit="10" stroke-width=".5" d="M453.61328 479.32031l-6.73047 2.01953"/></g><g clip-path="url(#R)"><path fill="none" stroke="#000" stroke-linecap="round" stroke-linejoin="round" stroke-miterlimit="10" stroke-width=".5" d="M452.63281 479.61328l.86328.8711"/></g><g clip-path="url(#S)"><path fill="none" stroke="#000" stroke-linecap="round" stroke-linejoin="round" stroke-miterlimit="10" stroke-width=".5" d="M467.07031 480.5039l-7.01953-.35156"/></g><g clip-path="url(#T)"><path fill="none" stroke="#000" stroke-linecap="round" stroke-linejoin="round" stroke-miterlimit="10" stroke-width=".5" d="M466.05078 480.45313l.51953 1.10937"/></g><g clip-path="url(#U)"><path fill="none" stroke="#000" stroke-linecap="round" stroke-linejoin="round" stroke-miterlimit="10" stroke-width=".5" d="M147.5039 467.26953l-7.0078-.51172"/></g><path fill="none" stroke="#000" stroke-linecap="round" stroke-linejoin="round" stroke-miterlimit="10" stroke-width=".5" d="M147.5039 467.26953l.9922 2.2461m12.33202-2.62891l-7.02343.2539m7.02344-.2539l1.22656 2.125m12.05469-2.48438l-6.96094.97266m6.96094-.97266l1.4414 1.98828m11.80469-2.33984l-6.82031 1.67578m6.8203-1.67578l1.63673 1.82813m11.53515-2.27735l-6.53515 2.57422m6.53515-2.57422l1.8672 1.58985m11.37108-1.76953l-6.3828 2.93359m6.3828-2.9336l1.95313 1.48438m11.19922-1.80078l-6.05469 3.5664m6.05469-3.5664l2.09375 1.28515m11.45312-.8164l-6.51562 2.6289m6.51562-2.6289l1.87891 1.57812m11.23047-2l-6.10938 3.47266m6.10938-3.47266l2.07422 1.31641m11.125-1.5039l-5.875 3.85156m5.875-3.85157l2.15234 1.1797m11.19531-1.13673l-5.9375 3.76172m5.9375-3.76172l2.12891 1.21485m10.76953-1.7461l-5.10547 4.82422m5.10547-4.82422l2.32422.78125m10.80078-.96875l-4.72656 5.19922m4.03906-4.44531l1.1875.30469m13.40235-.36329l-5.90235 3.8086m5.04297-3.2539l1.07422.59765m13.21875-.95313l-6.14063 3.41016m5.25-2.91406l1.02735.66797m13.09765-1.3047l-5.97656 3.69141m5.10547-3.15625l1.0625.6211m12.78516-1.61719l-5.30079 4.61328m4.52735-3.9414l1.14844.4375m9.375-2.19532l1.83203 6.78516m-1.5664-5.79688l.89452-.83984m12.15625-.14844l1.82813 6.78516m-1.5625-5.79688l.89453-.83984m12.01172-.10547l2.11328 6.69922m-1.80469-5.72656l.85938-.875m14.68359.0664l-2.96094 6.3711m2.53125-5.44531l1.22266-.06641m11.76562-1.11328l-1.44921 6.8789m1.44921-6.8789l2.35938-.67969m11.91015 1.03125l-3.35546 6.17578m3.35546-6.17578l2.45313.02344m11.38672.32422l-4.40235 5.48047m4.40235-5.48047l2.41015.46093m11.42188.0547l-5.4375 4.44921m4.64453-3.80078l1.13281.47266"/><g clip-path="url(#V)"><path fill="none" stroke="#000" stroke-linecap="round" stroke-linejoin="round" stroke-miterlimit="10" stroke-width=".5" d="M147.49219 454.09375l-6.98438-.78906"/></g><path fill="none" stroke="#000" stroke-linecap="round" stroke-linejoin="round" stroke-miterlimit="10" stroke-width=".5" d="M147.49219 454.09375l.89844 2.28125m12.42578-2.38672l-7.00391-.57812m7.0039.57812l.96876 2.2539m12.35937-2.57812l-7.02734.07032m7.02734-.07032l1.17188 2.15235m12.11718-2.52344l-6.98047.8086m5.96485-.69141l.69922 1.01172m13.46094-1.88282l-6.63672 2.3164m5.67187-1.97655l.89844.83203m12.6836-2.35547l-5.23829 4.6875m4.47656-4.0039l1.14844.42187m12.875-1.16016l-5.13281 4.79688m4.38672-4.10157l1.16015.39844m13.5547-.10156l-6.44142 2.8086m5.50391-2.39845l.96094.76172m13.4414-.7539l-6.74218 1.97656m5.76172-1.6914l.85937.8789m12.66406-2.54297l-5.1953 4.73047m4.4414-4.03906l1.15234.41015m12.75781-1.26562l-4.875 5.0625m4.16407-4.32422l1.17968.33594m12.65235-1.2461l-4.48828 5.40625m4.48828-5.40625l2.40234.4961m11.03906-.38672l-4.74218 5.1875m4.05078-4.4336l1.1875.3047m12.35547-1.41798l-3.81641 5.90235m3.26172-5.04297l1.22265.10547m12.54688-1.02344l-3.61719 6.02344m3.09375-5.14844l1.22266.0664m12.77344-.83984l-3.9336 5.82031m3.36328-4.97656l1.21875.1289m13.59766-.05468l-5.79297 3.98047m4.94922-3.39844l1.08984.5664m11.51953-2.40234l-2.6953 6.48829m2.30468-5.54297l1.22266-.11719m11.9414-1.0039l-1.60937 6.83984m1.375-5.84375l1.1875-.3125m12.0039-.7461l-.89453 6.96875m.76563-5.95703l1.14843-.42968m14.1797.27343l-4.66407 5.25782m3.98437-4.4922l1.19532.28907m13.07422-.78125l-5.21485 4.71094m4.45703-4.02735l1.15235.41797m13.10937-.8789l-5.58984 4.26172m4.77734-3.64063l1.11328.51172m11.66016-2.20313l-2.88281 6.40625m2.46484-5.47656l1.22266-.07812m11.7539-1.09375l-1.37109 6.89062m1.17187-5.89062l1.17579-.35157"/><g clip-path="url(#W)"><path fill="none" stroke="#000" stroke-linecap="round" stroke-linejoin="round" stroke-miterlimit="10" stroke-width=".5" d="M147.45703 441.00781l-6.91406-1.25"/></g><path fill="none" stroke="#000" stroke-linecap="round" stroke-linejoin="round" stroke-miterlimit="10" stroke-width=".5" d="M147.45703 441.00781l.75 2.33985m12.57422-2.37891l-6.92969-1.17188m6.92969 1.17188l.77344 2.32813m12.58203-3.12891l-7.01172.42969m5.99219-.3672l.64062 1.04688m13.64063-1.53906l-6.90625 1.28906m6.90625-1.28906l1.53125 1.91797m11.60156-2.55078l-6.54297 2.5586m5.59375-2.1875l.92969.80077m13.44531-.84375l-6.76562 1.90235m5.78125-1.625l.84765.88672m12.97656-2.1875l-5.8125 3.94921m4.96485-3.375l1.08594.57032m11.54687-2.40235l-2.7539 6.46485m2.7539-6.46485l2.44531-.21093m8.5586.05468l1.8711 6.77344m-1.59767-5.78906l.89063-.83985m13.82813-.1914l-1.48438 6.86719m1.26953-5.8672l1.17969-.33593m13.47266-.20703l-3.73047 5.95703m3.1875-5.08984l1.22265.08593m12.44532-1.0625l-3.35157 6.17579m2.86328-5.27735l1.23047.00781m12.82032-.76171l-3.84766 5.8828m3.84766-5.8828l2.4453.22265m10.08985-.60156l-2.28515 6.64453m1.95312-5.67969l1.21094-.1914m13.84765.13281l-5.10937 4.82812m18.90625-4.18359l-6.07031 3.54297m5.1875-3.02734l1.04297.64453m11.02343-2.78516l-1.8086 6.78906m1.54688-5.80078l1.19532-.27734m11.7539-.82031l-.55078 7.0078m.55078-7.0078l2.25-.97657m9.8711 7.8711l1.83593-6.78125m-1.5703 5.79687l-1.19532.27344m18.625-2.08984l-6.92578-1.1797m5.91797 1.00782l.38672 1.16406m13.61328-.0039l-6.27735-3.15625m5.36328 2.69922l.02735 1.22656m14.53125-2.91406l-6.9375 1.1328m6.9375-1.1328l1.48437 1.95312m11.86719-1.59766l-7.01172.42188m7.01172-.42188l1.28125 2.09375m11.88672-2.91015l-6.71875 2.0586m6.71875-2.0586l1.73828 1.73437m11.52344.48438l-6.61328-2.3789m5.65234 2.03124l.17578 1.21485"/><g clip-path="url(#X)"><path fill="none" stroke="#000" stroke-linecap="round" stroke-linejoin="round" stroke-miterlimit="10" stroke-width=".5" d="M147.51172 427.10547l-7.02344-.07422"/></g><path fill="none" stroke="#000" stroke-linecap="round" stroke-linejoin="round" stroke-miterlimit="10" stroke-width=".5" d="M147.51172 427.10547l1.1289 2.17969m12.1875-2.17579l-7.02734-.08203m7.02734.08203l1.12891 2.17579m12.15234-1.73047l-6.96093-.97266m6.96094.97266l.84375 2.30469m12.5039-2.64844l-7.02344-.28516m7.02344.28516l1.0625 2.21094m12.2461-2.59375l-7.01172.48046m7.01172-.48046l1.29687 2.08593m11.46094-3.75781l-5.89844 3.82422m5.89844-3.82422l2.14453 1.1914m9.96875-2.32812l-3.49219 6.09766m2.98438-5.21094l1.22656.03906m14.30078 1.46485l-6.90234 1.3164m5.89843-1.125l.76953.95703m13.48438-1.42968l-6.77344 1.8789m17.72656-.9375l-.01953-.20312-.05859-.1914-.09375-.17579-.46094-.375-.1914-.0586-.19922-.01952-.19922.01953-.1914.05859-.46094.375-.09375.17578-.0586.1914-.01953.20313.01953.19922.0586.1914.09375.17579.46093.375.1914.0586.19923.01952.19922-.01953.1914-.0586.46094-.375.09375-.17577.0586-.1914.01952-.19923m14.0625-3.03906l-3.53906 6.07422m3.02344-5.1875l1.22656.04687m12.53906-.96875l-3.41015 6.14454m2.91406-5.25l1.22656.02343m13.31641-.375l-4.8789 5.0586m4.17187-4.32032l1.17969.33594m9.55078-1.95312l1.70703 6.8164m-1.70703-6.8164l1.82031-1.64453m14.71875 2.45703l-4.73828 5.1914m4.73828-5.1914l2.375.60937m11.7539.5039l-6.37109 2.96485m6.3711-2.96484l1.96093 1.48047m11.6836.0078l-7.02735-.01171m6.00391.01172l.57422 1.08203m8.61719-4.19922l3.26953 6.22266m9.48437-5.85547l4.39063 5.48828m-4.39063-5.48828l.97266-2.2539m16.8789 7.61718l-4.68359-5.23828m4.6836 5.23828l-.84376 2.30078m14.9297-3.29297l-6.22657-3.2539m6.22656 3.2539l.01563 2.45703m13.20703-5.8789l-6.04297 3.58984m6.04297-3.58984l2.09765 1.27734m11.23438-1.2461l-6.07422 3.52735m6.07422-3.52734l2.08594 1.29297m11.07422-1.53907l-5.76172 4.01954m5.76172-4.01954l2.18359 1.1172m11.7461.5703l-6.9961.64454m5.98047-.55079l.67187 1.02735"/><g clip-path="url(#Y)"><path fill="none" stroke="#000" stroke-linecap="round" stroke-linejoin="round" stroke-miterlimit="10" stroke-width=".5" d="M147.49219 413.36719l-6.98438.76953"/></g><path fill="none" stroke="#000" stroke-linecap="round" stroke-linejoin="round" stroke-miterlimit="10" stroke-width=".5" d="M147.49219 413.36719l1.38281 2.02734m-2.39844-1.91406l.6914 1.01562m13.52735-1.70312l-6.76172 1.91797m6.76172-1.91797l1.69922 1.76953m11.48438-2.14453l-6.5 2.67187m6.5-2.67187l1.89062 1.5664m11.67578-.55078l-7 .64063m7-.64063l1.34375 2.0547m-2.36328-1.96095l.67188 1.02735m13.60547-1.5l-6.88672 1.39453m6.88672-1.39453l1.55859 1.89453m-2.5586-1.6914l.77735.94921m13.59375-.79297l-6.9961.67969m5.97657-.58203l.67969 1.02344m13.66406-.9922l-7.01563.42188m5.9961-.35937l.63672 1.04687m13.60546-1.72265l-6.83203 1.64453m6.83203-1.64453l1.62891 1.83984m11.78125-.89453l-7.02344-.24219m6.0039.20703l.53907 1.10157m13.6289-.1172l-6.6914-2.14452m5.71875 1.83203l.21875 1.21094m14.16016-2.71094l-6.8711 1.48437m18.5586-3.7539l-3.61719 6.02343m17.9414-5.11328l-5.6328 4.20313m19.3164-3.58203l-6.3711 2.96093m5.44532-2.53125l.97656.73829m13.54297.89453l-6.92969-1.16797m5.92188 1l.38672 1.16406m12.89062.96875l-4.83594-5.09766m4.13282 4.35938l-.39063 1.16016m15.28125-1.73438l-6.58203-2.46875m5.625 2.10938l.15625 1.21484m14.03906-3.50781l-6.42968 2.83203m6.42968-2.83203l1.92969 1.51953m10.80078-2.4336l-5.25781 4.66407m5.25781-4.66406l2.30078.85937m10.39453-1.41016l-4.01953 5.76563m4.01953-5.76563l2.4375.29688m-3.02343.54297l1.21875.14843m13.375-.35156L407.60156 416m5.40235-4.49219l2.26953.92578m-3.0586-.27343l1.13672.46484m12.92188-1.17188l-5.3164 4.59766m5.3164-4.59765l2.28906.88671m11.55469-.0703l-6.3711 2.96874m5.44141-2.53906l.98047.73828m12.92187-1.75l-5.68359 4.13281m5.6836-4.13281l2.20312 1.07422m9.73437-2.20313l-2.92968 6.39063m2.5-5.46094l1.22656-.07031"/><g clip-path="url(#Z)"><path fill="none" stroke="#000" stroke-linecap="round" stroke-linejoin="round" stroke-miterlimit="10" stroke-width=".5" d="M147.4961 400.09375l-6.9922.6875"/></g><path fill="none" stroke="#000" stroke-linecap="round" stroke-linejoin="round" stroke-miterlimit="10" stroke-width=".5" d="M147.4961 400.09375l1.35937 2.04297m-2.375-1.9414l.67969 1.01952m13.65625-1.05078l-7.00391.54688m7.0039-.54688l1.32032 2.07031m-2.33984-1.98828l.66015 1.03516m13.67969-.64453l-7.01563-.39453m7.01563.39453l1.03125 2.22656m-2.05078-2.28515l.51562 1.11328m13.82422-1.33204l-7.02344.16016m7.02344-.16015l1.20313 2.13671m-2.22266-2.11328l.59766 1.07031m13.67968-.36718l-6.90625-1.29688m6.90625 1.29688l.73047 2.34375m-1.73828-2.53125l.36719 1.17187m13.46094-3.52344l-5.92188 3.78516m5.92188-3.78515l2.13672 1.20312m10.96875-1.5l-5.5 4.375m5.5-4.375l2.25.98047m11.40625-.45703l-6.1836 3.33203m6.1836-3.33203l2.04296 1.35937m11.5-.84375l-6.64062 2.29688m5.67578-1.96094l.89844.83594m13.51562-.66016l-6.91015 1.27344m5.90625-1.08594l.76172.96094m13.48046-1.47656l-6.7539 1.92968m5.77343-1.64843l.85157.8828m13.375-1.38671l-6.61328 2.375m5.64843-2.02734l.91016.82421m12.15625-2.80468l-4.1875 5.64062m18.125-5.04687l-5.4336 4.45312m4.64454-3.80469l1.13281.47266m13.1836-.83594l-5.85548 3.88282m5.00391-3.31641l1.07813.58203M346.5703 402.5l-5.6914-4.1211m4.86328 3.51954l-.16797 1.21484m11.98047.80078l-1.02735-6.95312m13.25 6.9414l1.15625-6.92968m-.98828 5.92187l-1.16015.39063m17.5625-5.125l-5.35157 4.55468m5.35157-4.55468l2.28125.90234m11.20312-.6875l-5.6914 4.125m5.6914-4.125l2.20313 1.07813m11.27343-.83594l-6.01172 3.64062m6.01172-3.64062l2.10547 1.25781m10.9414-1.64063l-5.47655 4.40625m5.47656-4.40625l2.2539.96875m10.47266-1.54296l-4.30078 5.55859m3.67578-4.75l1.20703.20703m13.40625-.32812l-5.64844 4.17968m5.64844-4.17968l2.21485 1.05468m10.4453-1.72656l-4.33984 5.52735"/><g clip-path="url(#aa)"><path fill="none" stroke="#000" stroke-linecap="round" stroke-linejoin="round" stroke-miterlimit="10" stroke-width=".5" d="M465.73047 397.67578l2.41797.42969"/></g><g clip-path="url(#ab)"><path fill="none" stroke="#000" stroke-linecap="round" stroke-linejoin="round" stroke-miterlimit="10" stroke-width=".5" d="M147.50781 386.92969l-7.01562.38672"/></g><path fill="none" stroke="#000" stroke-linecap="round" stroke-linejoin="round" stroke-miterlimit="10" stroke-width=".5" d="M147.50781 386.92969l1.26953 2.09765m-2.28906-2.04296l1.26953 2.10156m13.04297-2.39063l-6.97266.85547m6.97266-.85547l1.41016 2.01172m-2.42188-1.88672l1.40625 2.01172m12.79297-2.73437l-6.71875 2.05468m6.71875-2.05468l1.73828 1.73437m-2.71484-1.4375l1.73437 1.73438m12.10157-2.98829l-5.8047 3.96485m5.8047-3.96485l2.17187 1.14063m10.46875-1.875l-4.45703 5.4336m4.45703-5.4336l2.40625.48828m11.17969-.23828l-5 4.9375m5-4.9375l2.34375.73047m-3.07031-.01563l1.17187.3672m12.57813-1.34767l-4.41407 5.46485m4.41407-5.46485l2.41015.46485m10.61328-.67969l-3.83203 5.89453m3.27344-5.03515l1.22266.10546m12.23437-1.1953l-2.9961 6.35546m2.5586-5.42969l1.22656-.05859m12.21875-.9961l-2.3828 6.61329m2.03515-5.64844l1.21484-.17578m11.99219-.91797l-1.47266 6.8711m1.25781-5.8711l1.1797-.33594m14.07421.26172l-4.91797 5.01953m18.2461-5.0039l-4.94532 4.98828m4.22657-4.26172l1.17578.35156m12.27343-1.54687l-3.77734 5.92578m3.23047-5.0625l1.22266.09765m13.42968-.27343l-5.35547 4.55078m4.57422-3.88672l1.14063.45312m11.40234-2.17187l-2.25 6.66015m11.16406-2.0625l6.55079-2.53515m13.20703-.25l-6.33594 3.03906m5.41406-2.59765l.98828.72656m13.19922-1.26953l-6.23828 3.23828m5.33203-2.76563l1.00781.69531m13.125-1.33203l-6.05859 3.56641m6.0586-3.5664l2.08984 1.28515m11.19922-1.32422l-6.00782 3.64453m6.00782-3.64453l2.10937 1.2539m11.0625-1.47265l-5.71875 4.08203m5.71875-4.08203l2.19531 1.09766m11.1797-1.00781l-5.83985 3.90234m4.99219-3.33594l1.07812.58203m12.95703-1.32812l-5.58594 4.26172m5.58594-4.26172l2.23047 1.01953m11.57422-.14453l-6.5625 2.51172m5.60547-2.14844l.92578.8086"/><g clip-path="url(#ac)"><path fill="none" stroke="#000" stroke-linecap="round" stroke-linejoin="round" stroke-miterlimit="10" stroke-width=".5" d="M147.49219 373.4336l-6.98438.75"/></g><path fill="none" stroke="#000" stroke-linecap="round" stroke-linejoin="round" stroke-miterlimit="10" stroke-width=".5" d="M147.49219 373.4336l1.3789 2.03124m-2.39453-1.92187l1.375 2.03125m12.95703-2.14453l-6.98828.75781m6.98828-.75781l1.37891 2.02734m-2.39453-1.91797l1.3789 2.03125m12.66016-3.20312l-6.40625 2.88281m6.40625-2.88281l1.9414 1.5m11.08204-2.02344l-5.82031 3.92969m5.8203-3.92969l2.16798 1.14844m-3.01172-.57813l1.08203.57422m12.7539-1.5586l-5.17187 4.75782m5.17188-4.75781l2.3125.8164m-3.06641-.125l1.15625.41016m12.45313-1.51953l-4.25391 5.59375m4.2539-5.59375l2.42188.39453m10.77734-.47656l-4.02734 5.75781m4.02734-5.75781l2.4375.29687m11.16016-.07812l-4.58984 5.32031m4.58984-5.32031l2.39453.53906m10.76953-.66406l-4.28906 5.5664m3.66406-4.7539l1.21094.20312m11.96875-1.46094l-2.76563 6.46094m2.36329-5.51953l1.22265-.10547m12.21875-.9414l-2.21484 6.67187m1.89062-5.69922l1.21094-.20703m13.23047-.3789l-3.8164 5.89843m3.26171-5.04297l1.22266.10547m13.92187.5l-6.36718 2.97656m5.4414-2.54296l.98047.73828m13.45703-.64063l-6.76172 1.91016m5.77735-1.6289l.85156.8828m13.5-.96484l-6.86328 1.51563m5.86328-1.29297l.79688.9336m13.47265-1.33204l-6.77344 1.86719m5.78907-1.59766l.84375.89453m13.49609-.9961l-6.85547 1.53126m5.85938-1.3086l.79687.9297m13.46094-1.36329l-6.75 1.95313m5.76953-1.66797l.85156.8789m13.29688-1.58203l-6.45313 2.78906m5.51172-2.3828l.96094.76562M400.40625 373l-6.83984 1.61719m5.84375-1.38281l.80859.92187m13.3164-1.71875l-6.46874 2.74219m6.46875-2.74219l1.90625 1.54688m11.37109-1.63282l-6.39062 2.91406m5.46093-2.49218l.97266.7461m13.23828-1.23829l-6.32422 3.05469m5.40625-2.61328l.98828.72656m12.64453-2.04688l-5.125 4.8125m4.37891-4.11328l1.16016.39844m13.60937.02344l-6.53906 2.57031m5.58594-2.19922l.93359.80078"/><g clip-path="url(#ad)"><path fill="none" stroke="#000" stroke-linecap="round" stroke-linejoin="round" stroke-miterlimit="10" stroke-width=".5" d="M147.39063 359.57031l-6.78125 1.84766"/></g><path fill="none" stroke="#000" stroke-linecap="round" stroke-linejoin="round" stroke-miterlimit="10" stroke-width=".5" d="M147.39063 359.57031l1.67968 1.78516m-2.66797-1.51563l.83985.89063m13.48828-1.0625l-6.83203 1.65234m6.83203-1.65234l1.6289 1.83203m-2.625-1.59375l.81641.91797m13.25781-1.82813l-6.35547 2.9922m6.35547-2.9922l1.96485 1.46875m-2.89063-1.03125l.98438.73438m12.94922-1.69922l-5.7422 4.05078m5.7422-4.05078l2.1914 1.10547m-3.02734-.51563l1.09375.55079m12.91406-1.33204l-5.45703 4.4297m5.45703-4.4297l2.26172.95704m-3.05469-.3125l1.1289.48046m12.73048-1.39843l-4.96094 4.97656m4.96094-4.97656l2.34765.71484m-3.0703.00781l1.17577.35938m12.73438-1.20313l-4.70313 5.22266m4.70313-5.22266l2.3789.59375m11.03516-.5l-4.90234 5.03516m4.90234-5.03516l2.35547.6836m10.66406-.94141l-4.3125 5.54688m4.3125-5.54688l2.41797.42188m10.38672-.75l-3.28906 6.20703m2.8125-5.3047l1.22656-.0039m13.14844-.51172l-4.45704 5.4336m3.8086-4.64453l1.20312.24218m13.27735-.51171l-5.48828 4.39062m4.6875-3.75l1.1289.48438m13.42188-.42579l-6.35938 2.9961m5.4336-2.5625l.98046.73828m13.33985-.98828l-6.51953 2.6289m5.57031-2.24609l.9375.78906m13.51562-.52734l-6.89843 1.33594m5.89453-1.14063l.77344.95313m13.52734-1.23829l-6.85938 1.51563m5.86329-1.29297l.79296.9336m13.58204-.76172l-6.98829.73046m5.97266-.625l.6836 1.01563m13.66406-.83984l-7.02344.16406m6.0039-.14063l.60157 1.07032m13.63281-1.85157l-6.82031 1.6836m5.82812-1.4414l.82032.91405m13.46093-1.2578l-6.76953 1.8828m6.76953-1.8828l1.69141 1.78124m11.74219-1.1289l-7.0039.58203m7.0039-.58204l1.32422 2.0625m11.99609-1.61718l-7.01953-.3086m7.01953.3086l1.0586 2.21484m12.24609-2.04687l-6.9961-.64454m5.98047.55079l.47266 1.1289m13.61719-2.67969l-6.51172 2.64063m5.5625-2.2539l.9414.78515m13.28125 1.5625l-6.43359-2.82813m5.5 2.41797l.08984 1.22266"/><g clip-path="url(#ae)"><path fill="none" stroke="#000" stroke-linecap="round" stroke-linejoin="round" stroke-miterlimit="10" stroke-width=".5" d="M147.33594 346.07031l-6.67188 2.21485"/></g><path fill="none" stroke="#000" stroke-linecap="round" stroke-linejoin="round" stroke-miterlimit="10" stroke-width=".5" d="M147.33594 346.07031l1.77344 1.6914m11.42968-1.98046l-6.44922 2.79297m6.44922-2.79297l1.91797 1.53125m11.16406-1.97656l-5.98437 3.6836m5.98437-3.6836l2.1172 1.24219m11.09765-1.39844l-5.78125 3.9961m5.78125-3.9961l2.17969 1.1289m-3.01954-.54687l1.08985.5664m12.98437-1.2578l-5.6211 4.21874m5.6211-4.21875l2.22266 1.03906m-3.03906-.42578l1.10937.51954m13.25-.78907l-6.07422 3.52735m6.07422-3.52735l2.08594 1.29297m-2.96875-.78125l1.04297.64844m12.70703-1.76953l-5.17969 4.7461m5.17969-4.7461l2.3125.82031m10.64844-1.15625l-4.47266 5.41797m4.47266-5.41797l2.40234.48828m10.57422-.73828l-3.79297 5.91797m3.24219-5.05469l1.22265.09766m12.15235-1.22266l-2.8125 6.4414m2.40234-5.5039l1.22266-.09375m13.375-.29687l-4.5586 5.34765m3.89454-4.57031l1.19921.26563m13.83594.53125l-6.67187 2.20312m5.70312-1.88281l.88672.84765m13.375-1.23828l-6.625 2.33985m5.66016-2l.90625.82812m13.26953-1.42578l-6.41797 2.85547m5.48437-2.4375l.96875.7539m13.37891-.92578l-6.61719 2.36329m5.65625-2.01954l.90625.82813M347 345.90234l-6.54687 2.5547m5.59375-2.1836l.92968.79687m13.47657-.73047l-6.82422 1.67579m5.83203-1.4336l.8164.91406m13.58985-.42968l-7.02344.22265m7.02344-.22265l1.21875 2.1328m12.09375-2.23827l-7.01563.4336m7.01563-.4336l1.28125 2.08984m11.94531-2.6836l-6.83984 1.6211m6.83984-1.6211l1.6211 1.84376m11.66406-1.95313l-6.78125 1.83985m6.78125-1.83985l1.67968 1.78906m11.72657-1.33203l-6.96485.92579m6.96485-.92579l1.42968 1.9961m11.81641-.69531l-6.82422-1.67579m6.82422 1.67579l.60156 2.3789m12.7539-2.5625l-6.90624-1.3086m6.90625 1.3086l.73047 2.34375m12.64453-2.88281l-7.02344-.22656"/><g clip-path="url(#af)"><path fill="none" stroke="#000" stroke-linecap="round" stroke-linejoin="round" stroke-miterlimit="10" stroke-width=".5" d="M467.07422 347.29297l1.08203 2.19922"/></g><g clip-path="url(#ag)"><path fill="none" stroke="#000" stroke-linecap="round" stroke-linejoin="round" stroke-miterlimit="10" stroke-width=".5" d="M147.34375 332.78125l-6.6875 2.16016"/></g><path fill="none" stroke="#000" stroke-linecap="round" stroke-linejoin="round" stroke-miterlimit="10" stroke-width=".5" d="M147.34375 332.78125l1.76172 1.71094m11.33594-2.23047l-6.25391 3.20312m6.2539-3.20312l2.01563 1.40234m11.33594-1.33203l-6.32422 3.0625m6.32422-3.0625l1.98047 1.44922m10.75-2.3086l-5.15625 4.77735m5.15625-4.77734l2.3164.80859m11.32422-.39453l-5.8086 3.95312m5.8086-3.95312l2.17188 1.14062m11.02734-1.30468l-5.57422 4.28125m5.57422-4.28125l2.23047 1.01953m10.71484-1.42578l-4.83984 5.09375m4.83984-5.09375l2.3672.65625m10.6875-.88282l-4.31642 5.54297m4.31641-5.54297l2.41797.42579m10.39844-.75l-3.3164 6.1953m2.83202-5.29296l1.22656.0039m12.56641-.91015l-3.30469 6.20312m2.82422-5.30078h1.22657m14.11328.74219l-6.39453 2.91406m20-1.89453l-6.97266.875m20.3086-.58984l-7.01954.30469m20.07031-1.4961l-6.48828 2.6875m5.54688-2.29687l.94531.77734m12.88281-1.92969l-5.6289 4.21094m4.80859-3.59766l1.10937.52344m11.48829-2.30469l-2.5586 6.54688m12.01563-5.66016l5.16015 4.77344m8.07422-.08984l5.32031-4.59375m-4.54296 3.92578l-1.14454-.44531m19.85547-1.1836h-7.02734m6.00781 0l.57422 1.08203m13.7539-1.28515l-7.01171.40625m5.99219-.34766l.63671 1.04688m13.70704-.88672l-7.02735-.03125m6.0039.02734l.57032 1.08594m13.76172-1.28906l-7.01563.3828m7.01563-.3828l1.26953 2.09765m12.03516-2.2461l-6.9961.6797m6.9961-.6797l1.35547 2.04688m11.78515-.5664l-6.64844-2.28125m5.6797 1.94921l.1953 1.21094m13.75782-.17969l-5.98438-3.67968m5.11328 3.14453l-.07812 1.22656"/><g clip-path="url(#ah)"><path fill="none" stroke="#000" stroke-linecap="round" stroke-linejoin="round" stroke-miterlimit="10" stroke-width=".5" d="M146.2539 317.85156l-4.5078 5.39063"/></g><path fill="none" stroke="#000" stroke-linecap="round" stroke-linejoin="round" stroke-miterlimit="10" stroke-width=".5" d="M146.2539 317.85156l2.40235.50781m10.47656-.8164l-3.63672 6.01172m3.63672-6.01172l2.44922.13281m10.8164-.16406l-3.53905 6.07031m3.53906-6.07031l2.45312.09765m10.875-.08984l-3.5625 6.0586m3.04297-5.17579l1.22656.05079m11.64453-1.32032l-1.63671 6.83203m1.39843-5.83984l1.1875-.3086m12.4961-.65234l-1.89453 6.76563m1.89453-6.76563l2.39453-.52344m10.84766.50391l-1.75 6.80469m1.49609-5.8125l1.1914-.28906m12.125-.75782l-1.24609 6.91407m1.2461-6.91407l2.33593-.75m9.55078.78907l1.61328 6.83984m-1.3789-5.84375l.92187-.8125m9.75391 1.8125l6.42188 2.84766m8.1328 1.48437l3.94141-5.8164m-3.36718 4.96875l-1.21875-.12891m14.17187 1.10937l3.51563-6.08593m-3.00391 5.20312l-1.22656-.04687m14.11718.97656l3.34375-6.17969m-2.85937 5.28125l-1.22656-.00781m16.75-2.1836l-.01953-.19921-.0586-.19141-.09375-.17578-.45703-.3789-.1914-.0547-.19922-.01953-.20313.01954-.1914.05468-.45704.3789-.09375.17579-.05859.1914-.01953.19923.01953.19921.0586.19141.09374.17969.45703.375.19141.0586.20313.01952.19921-.01953.19141-.0586.45703-.375.09375-.17968.0586-.1914.01953-.19923M332.75 317.9297l-4.67969 5.23828m16.24219-6.08594l-1.17578 6.92969m1.00781-5.91797l1.16406-.38672m9.85157-.1289l3.76171 5.9375m9.48047-.04688l3.91016-5.83984m-3.34375 4.98828l-1.21875-.125m16.5586 1.51172l-1.27344-6.91016m1.08984 5.90234l-.96094.76563m13.9336.29687l-.22266-7.02343m14.78906 6.75l-2.72656-6.47657m2.32812 5.53516l-.77343.95313m14.57031-.04688l-2.89063-6.40234m2.46875 5.46875l-.75.97265m16.39063-2.17969l-6.69922-2.12109m5.72266 1.8125l.22265 1.20703m14.23438-1.9375l-7.02735-.04297m7.02735.04297l1.13672 2.17188m12.14453-2.66406l-6.96485.9414"/><g clip-path="url(#ai)"><path fill="none" stroke="#000" stroke-linecap="round" stroke-linejoin="round" stroke-miterlimit="10" stroke-width=".5" d="M467.04297 320.07813l1.4336 1.99218"/></g><path fill="#00f" fill-rule="evenodd" d="M388.23828 467.64844h8.61719V457.5039h-8.61719v10.14453"/><path fill="azure" fill-rule="evenodd" d="M390.07031 459.33594h.83594v2.82422h3.28516v-2.82422h.83203v6.48047h-.83203v-2.91797h-3.28516v2.91797h-.83594v-6.48047"/><path fill="#00f" fill-rule="evenodd" d="M321.66406 454.33203h8.61719V444.1875h-8.61719v10.14453"/><path fill="azure" fill-rule="evenodd" d="M323.4961 446.01953h.83202v2.82422h3.28907v-2.82422h.83203V452.5h-.83203v-2.91406h-3.28906V452.5h-.83204v-6.48047"/><path fill="#00f" fill-rule="evenodd" d="M419.3086 427.70313h8.61718v-10.14454h-8.61719v10.14454"/><path fill="azure" fill-rule="evenodd" d="M421.14063 419.39063h.83203v2.82421h3.28515v-2.82421h.83594v6.48046h-.83594v-2.91796h-3.28515v2.91796h-.83204v-6.48046"/><path fill="#ff3030" fill-rule="evenodd" d="M375.61719 418.82813h7.69531v-10.14844h-7.69531v10.14844"/><path fill="azure" fill-rule="evenodd" d="M377.44922 410.51172h.83594v5.74219h3.1914v.73828h-4.02734v-6.48047"/><path fill="#ff3030" fill-rule="evenodd" d="M295.72656 414.38672h7.69531v-10.14453h-7.6953v10.14453"/><path fill="azure" fill-rule="evenodd" d="M297.5586 406.07422h.83593v5.74219h3.1914v.73828h-4.02734v-6.48047"/><path fill="#ff3030" fill-rule="evenodd" d="M184.76953 387.75781h7.6914v-10.14453h-7.6914v10.14453"/><path fill="azure" fill-rule="evenodd" d="M186.60156 379.44531h.83203v5.73828h3.19532v.7422h-4.02735v-6.48048"/><path fill="#ffffe0" fill-rule="evenodd" d="M341.74219 364.70703h22.1836v-10.1914h-22.1836v10.1914"/><path fill-rule="evenodd" d="M345.24219 356.34766h.51172v6.29296h-.78907v-4.48828h-1.38671v-.55468l.55859-.06641.2539-.05469.22657-.08984.20312-.14063.17578-.21093.14063-.29297.10547-.39453m4.8164 0l.22657.01953.21875.05469.21093.08984.19532.1211.18359.14843.17188.17578.30078.41797.24218.4961.1797.54687.11327.57812.03906.58985-.03906.59375-.11328.58594-.17969.55078-.24218.5039-.30079.42969-.17187.17969-.1836.15234-.1953.1211-.21094.09375-.21875.05468-.22657.01953-.23046-.01953-.21875-.05469-.20704-.09375-.19921-.12109-.1836-.15234-.17187-.17969-.30079-.42969-.24218-.5039-.17969-.55079-.11328-.58593-.03906-.59375h.83593l.02735.5625.08203.50781.125.4414.16406.375.1914.30079.21094.22265.22266.13672.22656.04688.22657-.04688.22265-.13672.21094-.22265.1875-.30078.16406-.375.125-.44141.08203-.50781.03125-.5625-.03125-.5586-.08203-.5039-.125-.4336-.16406-.36718-.1875-.29297-.21094-.21094-.22265-.13281-.22657-.04297-.22656.04297-.22265.13281-.21094.21094-.1914.29297-.16407.36718-.125.4336-.08203.5039-.02735.5586h-.83593l.03906-.58985.11328-.57812.17969-.54688.24219-.49609.30078-.41797.17187-.17578.1836-.14844.19921-.1211.20704-.08983.21875-.0547.23046-.01952m5.08985 0h.50781v6.29296h-.78516v-4.48828h-1.39062v-.55468l.5625-.06641.25-.05469.23047-.08984.20312-.14063.17578-.21093.14063-.29297.10547-.39453m2.82422 2.17578h.78515l.01953-.3164.0586-.28907.10156-.25.14063-.21485.17968-.17578.22266-.1289.26562-.07813.3086-.02734.23828.01953.22265.0625.20313.10156.17969.13672.14844.17578.11328.20313.07421.23828.02344.26562-.01953.26563-.0664.22656-.10938.1914-.15625.17188-.20313.16016-.24609.16797-.63281.38672-.53906.3164-.4375.3164-.34375.32423-.26563.33594-.1914.35156-.125.36719-.06641.39453-.02344.41796h4.21485v-.73828h-3.33594l.08594-.28515.11328-.23828.14843-.19922.1875-.17969.23047-.17188.27735-.17578.71875-.41796.41406-.20313.34375-.23438.28125-.25.22265-.26562.16016-.27734.11328-.28516.0625-.28516.01953-.28125-.03906-.3828-.1211-.34767-.1914-.30859-.25-.26172-.30078-.21484-.34766-.15625-.3789-.10156-.40625-.03125-.4336.03125-.39843.09765-.35547.16797-.30469.23438-.25.30468-.1836.375-.11718.44532-.03906.51953"/><path fill="#ffffe0" fill-rule="evenodd" d="M183.15234 356.92188h22.1836v-10.19141h-22.1836v10.1914"/><path fill-rule="evenodd" d="M186.65234 348.5625h.51172v6.29297h-.78906v-4.48828h-1.38672v-.55469l.5586-.0664.2539-.0547.22656-.08984.20313-.14062.17578-.21094.14063-.29297.10546-.39453m4.81641 0l.22656.01953.21875.05469.21094.08984.19531.1211.1836.14843.17187.17579.30078.41796.24219.4961.17969.54687.11328.57813.03906.58984-.03906.59375-.11328.58594-.17969.55078-.24219.5039-.30078.4297-.17187.17968-.1836.15235-.19531.12109-.21094.09375-.21875.05469-.22656.01953-.23047-.01953-.21875-.0547-.20703-.09374-.19922-.1211-.1836-.15234-.17187-.17969-.30078-.42968-.24219-.50391-.17968-.55078-.11328-.58594-.03907-.59375h.83594l.02734.5625.08203.50781.125.44141.16407.375.1914.30078.21094.22266.22266.13672.22656.04687.22266-.04687.22656-.13672.20703-.22266.1914-.30078.16407-.375.125-.4414.08203-.50782.02734-.5625-.02734-.5586-.08203-.5039-.125-.4336-.16406-.36718-.19141-.29297-.20703-.21094-.22656-.1328-.22266-.04298-.22656.04297-.22266.13281-.21094.21094-.1914.29297-.16406.36719-.125.4336-.08204.5039-.02734.5586h-.83594l.03906-.58985.11329-.57813.17968-.54687.2422-.4961.30077-.41796.17188-.17579.1836-.14843.19921-.1211.20703-.08984.21875-.05469.23047-.01953m5.08984 0h.50782v6.29297h-.78516v-4.48828h-1.39063v-.55469l.5625-.0664.25-.0547.23047-.08984.20313-.14062.17578-.21094.14063-.29297.10546-.39453m2.82422 2.17578h.78516l.01953-.3164.0586-.28907.10156-.25.14062-.21484.17969-.17578.22266-.1289.26562-.07813.3086-.02735.23827.01953.22266.0625.20313.10157.17968.13671.14844.17579.11328.20312.07422.23828.02344.26563-.02344.26562-.0625.22656-.11328.19141-.15234.17188-.20313.16015-.2461.16797-.6328.38672-.53907.3164-.4375.31641-.34765.32422-.26172.33594-.1914.35156-.125.36719-.06642.39453-.02343.41797h4.21094v-.73828h-3.33204l.08594-.28516.11328-.23828.14844-.19922.1875-.17969.23047-.17187.27734-.17578.71875-.41797.41406-.20313.34375-.23437.28125-.25.21875-.26563.16407-.27734.11328-.28516.0625-.28515.01953-.28125-.03906-.38281-.1211-.34766-.1914-.3086-.25-.26171-.30078-.21485-.34766-.15625-.3789-.10156-.40626-.03125-.43359.03125-.39844.09766-.35547.16796-.30468.23438-.25.30469-.1836.375-.11719.44531-.03906.51953"/></g></defs><use xlink:href="#aj"/></svg>