<svg xmlns="http://www.w3.org/2000/svg" role="img" xmlns:xlink="http://www.w3.org/1999/xlink" viewBox="142.45 309.95 326.84 171.84"><defs><clipPath id="a"><path d="M144 311.67188h1v168.65625h-1zm0 0"/></clipPath><clipPath id="b"><path d="M144 311.67188h324v168.65625H144zm0 0"/></clipPath><clipPath id="c"><path d="M467 311.67188h1v168.65625h-1zm0 0"/></clipPath><clipPath id="d"><path d="M144 480h4v.32813h-4zm0 0"/></clipPath><clipPath id="e"><path d="M147 480h2v.32813h-2zm0 0"/></clipPath><clipPath id="f"><path d="M153 479h9v1.32813h-9zm0 0"/></clipPath><clipPath id="g"><path d="M159 479h2v1.32813h-2zm0 0"/></clipPath><clipPath id="h"><path d="M166 479h9v1.32813h-9zm0 0"/></clipPath><clipPath id="i"><path d="M173 479h3v1.32813h-3zm0 0"/></clipPath><clipPath id="j"><path d="M180 479h8v1.32813h-8zm0 0"/></clipPath><clipPath id="k"><path d="M187 479h3v1.32813h-3zm0 0"/></clipPath><clipPath id="l"><path d="M193 478h8v2.32813h-8zm0 0"/></clipPath><clipPath id="m"><path d="M200 478h3v2.32813h-3zm0 0"/></clipPath><clipPath id="n"><path d="M207 478h8v2.32813h-8zm0 0"/></clipPath><clipPath id="o"><path d="M213 478h3v2.32813h-3zm0 0"/></clipPath><clipPath id="p"><path d="M220 477h7v3.32813h-7zm0 0"/></clipPath><clipPath id="q"><path d="M234 477h6v3.32813h-6zm0 0"/></clipPath><clipPath id="r"><path d="M247 477h7v3.32813h-7zm0 0"/></clipPath><clipPath id="s"><path d="M260 478h7v2.32813h-7zm0 0"/></clipPath><clipPath id="t"><path d="M273 478h8v2.32813h-8zm0 0"/></clipPath><clipPath id="u"><path d="M287 478h7v2.32813h-7zm0 0"/></clipPath><clipPath id="v"><path d="M292 478h2v2.32813h-2zm0 0"/></clipPath><clipPath id="w"><path d="M300 478h8v2.32813h-8zm0 0"/></clipPath><clipPath id="x"><path d="M305 478h3v2.32813h-3zm0 0"/></clipPath><clipPath id="y"><path d="M313 478h8v2.32813h-8zm0 0"/></clipPath><clipPath id="z"><path d="M327 478h7v2.32813h-7zm0 0"/></clipPath><clipPath id="A"><path d="M332 478h2v2.32813h-2zm0 0"/></clipPath><clipPath id="B"><path d="M339 479h9v1.32813h-9zm0 0"/></clipPath><clipPath id="C"><path d="M353 479h8v1.32813h-8zm0 0"/></clipPath><clipPath id="D"><path d="M366 478h8v2.32813h-8zm0 0"/></clipPath><clipPath id="E"><path d="M380 478h8v2.32813h-8zm0 0"/></clipPath><clipPath id="F"><path d="M395 476h4v4.32813h-4zm0 0"/></clipPath><clipPath id="G"><path d="M409 476h3v4.32813h-3zm0 0"/></clipPath><clipPath id="H"><path d="M421 477h5v3.32813h-5zm0 0"/></clipPath><clipPath id="I"><path d="M434 477h6v3.32813h-6zm0 0"/></clipPath><clipPath id="J"><path d="M448 476h4v4.32813h-4zm0 0"/></clipPath><clipPath id="K"><path d="M462 476h3v4.32813h-3zm0 0"/></clipPath><clipPath id="L"><path d="M144 466h4v2h-4zm0 0"/></clipPath><clipPath id="M"><path d="M144 453h4v2h-4zm0 0"/></clipPath><clipPath id="N"><path d="M144 439h4v2h-4zm0 0"/></clipPath><clipPath id="O"><path d="M144 426h4v3h-4zm0 0"/></clipPath><clipPath id="P"><path d="M466 425h2v4h-2zm0 0"/></clipPath><clipPath id="Q"><path d="M144 412h4v3h-4zm0 0"/></clipPath><clipPath id="R"><path d="M466 412h2v3h-2zm0 0"/></clipPath><clipPath id="S"><path d="M144 398h4v4h-4zm0 0"/></clipPath><clipPath id="T"><path d="M466 398h2v3h-2zm0 0"/></clipPath><clipPath id="U"><path d="M144 385h4v5h-4zm0 0"/></clipPath><clipPath id="V"><path d="M466 387h2v3h-2zm0 0"/></clipPath><clipPath id="W"><path d="M144 372h4v3h-4zm0 0"/></clipPath><clipPath id="X"><path d="M144 359h4v3h-4zm0 0"/></clipPath><clipPath id="Y"><path d="M144 346h4v2h-4zm0 0"/></clipPath><clipPath id="Z"><path d="M144 333h4v2h-4zm0 0"/></clipPath><clipPath id="aa"><path d="M466 333h2v3h-2zm0 0"/></clipPath><clipPath id="ab"><path d="M144 319h4v4h-4zm0 0"/></clipPath><clipPath id="ac"><path d="M466 318h2v3h-2zm0 0"/></clipPath><g id="ad" clip-path="url(#clip1)"><path fill="#fff" fill-opacity="0" fill-rule="evenodd" d="M0 0h1000v1000H0zm0 0"/><path fill="#d3d3d3" fill-opacity="0" fill-rule="evenodd" d="M162.15234 355.86719l-.23437.29297.0586.23437.11718.17188.17578.23437.29297.34766.11328.0586.11719-.17188.0586-.23438.17577-.17578.46485-.17578h.69922l.23437.29297.28906.8164.0586.17579.17578.23046.35156.23438.69922.69922.17188.17578.23437.34765.23438.41016.28906.58203.41015.46485.23047.23437.23438.17578.11719.23047.17578.29297.17187 1.16406v.23438l.0586.28906.05859.11719.11719.11719.34765.41015.11719.17188.17578.17578.17578.23437.11719.17188.17188.35156.05859.23438.23437.40625.23438-.0586-.17578.17578-.0586.92969h-.58203l-.23437-.11328-.34766.11328-.11719.11719-.05859.29297-.0586.17578-.11718.17187-.46484.29297-.0586.23438-.0586.11328v.64453l.0586.17187v.41016l.0586.0586v.40624l.05859.40625.11719.17579.05859.05859.23047.64062-.0586.29297v.69922l-.05859.58203v.23438l-.0586.23047-.05468.35156v1.92187l.05469.1172h.42578l-.36719.11718-.02344.35156.89063 1.16797 1.74219.53906 1.33984.35938v.53906l.08984.8086.53516.71484 1.51953.26953.89063-.08594.08984 1.16406.53516.1797 1.16015-.1797 2.05469-.98437 1.16016-.36328 1.8789-.17578 1.69531-.1797-.17968.71876-1.51563.08594-1.25.08984-.80469.26953-1.07421.8086.26953.71875.53515.89843-.17968.625-.26563.8086.26563 1.07812.625.89844.80468.17969 1.25-.1797-.26562.72267.09766.5039.05468.29297v.17188l.0586.29296v.40625l.17578.1172.35156.11718h.40625l.29297-.17578.11328-.11719.0586-.11719.11718-.23047.0586-.17578.35156-.46484.23047-.17578.17578-.0586.17578.0586.0586.17578.11718.98828.05469.46875.0586.17188.11718.23437.17578.0586.8164.05859h.28907l.11719.23437.05859.40625.0586.35156v1.10547l.11718.29297.11719.34766.28906.69922.17578.35156.58203.7539.35157.17579.17187.0586.46875.23437.64063.46484.34765.23438.29297.17578.29297.05468.23047.0625.8164.34766.29297.17578.11328.17188.35157.35156.11719.17578.52343.64063v.28906l.0586.35156v.34766l.05859.35156.0586.28906.11718.0586.17188.05859h.17578l.58203.23437.17578.1172.17578.28905.17578.23438.11328.23437.29297.23047.11719.11719v.41016l.0586.05468.28906.23438.23437.11719.0586.11718.11718.17188.0586.11719.23047.23437.05859.17578.23437.0586.1172.05859-.1172.11328-.05859.11719v.11719l-.11719.29296-.11719.28907v.58203l.17579.11719.11718.05859.0586.11719.11719.11719.11328.05859.17578.34765.0586.35157.05858.40625v.17578l-.05859.17578-.11719.69922v.17187l.1172.17579.29296.29296h.40625l.17578.1172.11719.17187.11719.29296v.23438h-.52735l-.23047-.23438h-.23437l-.17578.0586-.0586.69922.0586.34765.11719.17579.17578.41015.11718.23047.28907.46875.17578.05469h.52344l.23437.0586.75781.64062.0586.29296v.23438l.05859.0586.23047.34765v.35156l-.11719.17188v.29297l.29297.28906.29297.17578.17187.0586.29297.17577.29297.1172.58203.40624.28906.23438.29297.17578.21875.16015.01563.01172.23047.17579.64062.52343.17578.23438.1172.17578.17577.17578.11328.17188v.64062l.1172.17578.46874.11719.58203.11719.23438.05859.23047.11328.29297.11719.11328.0586.58593.35156.28907.17187.17578.0625.17578.05469.17578.0586.69922.35155.28906.17579.23438.05468.28906.17578.23437.1172.64063.40624.29297.11719.17187.0586.23438.05859.41015.05859.23047.0586.23438.11718.0586.17188-.41017.17578.46875.0586.0586.29296.11328.23438.17578.05468.23438.0586.17578.05859.40625.11719.64062.23437.11719.17188.0586.23437v.17578l-.0586.1172-.0586.40624.23438.23438.11719.05859.34766.11719.64062.23047.17578.11718.28906.1172.17578.17577.23438.46485.58203 1.10546.17578.17579.34766.17578.17578.11719.35156.11718 1.04688.52344.23437.0586.46485.11327.29297.0586.46484.17578.75781.58203.23438.23438.34765.46484.17578.17578.28907.23438.8164.69921.29297.17579.28906.28906.29297.17578.29297.28906.69531.64063.17578.17578.29297.23437.28907.23438.46875.28906.64062.58203.34766.23438.23437.29297.34766.34765.35156.46485.9336.99218.34765.40625.11719.17579.23437.05859.11328.11719.64454.17578.23047.11328.23437.0586.29297.17577.23047.1172.9336.69921.40624.40625.23438.17578.40625.17578.23437.11719.8164.34766.34766.23437.23438.11719.29297.28906.23047.11719.7578.35156.35157.17188.23047.05859.29297.11719.23437.0586.8711.17577h.8164l.46875.23047.17188.0586.875.69921.46484.1172.29297.05858.17578.0586.23047.0586.46875.05859.34766.05859.35156.0586.40625.05859h.29297l.17187.0586v.23046l.17578.17578h.29297l.34766.0586.35156.05859.69922.11719h.64063l.46484-.23438.29297-.17578.17187-.11719.41016-.17187.28906-.17578.9336-.46485.46875-.29297.52343-.29296.46485-.17188.46484-.17578 1.05078-.46485.28906-.11718.41016-.11719.28906-.11719.52735-.17578 1.51562-.69922.58203-.34765.28907-.0586.29297-.0586.34765-.11718.875-.23047.35156-.11719h.11329l.23437-.05859.875-.23437.23438-.0586h.8125l.35156-.0586.8164-.11718.17188-.0586.35156-.05468.29297-.0586.23047-.05859.8164-.17578.17579-.0586h.34765l.23438-.05859.46484-.11718.75781-.17188.23438-.0586h.34765l.41016-.11718.28906-.0586 1.28516-.05859h.28906l.41016-.0586.23047-.05858h.17578l.875-.1172h.40625l.41015-.11718h.34766l.35156-.11328.8711-.0586h1.75l1.04687.28907.41016.11719.28906.11718.35156.11719.28907.11719 1.05078.17187.28906.0586h.29297l.29297.05859.17187.0586.41016.05859.17187.0586.1172.05858h.11718l.11719.0586.35156.0586h.11328l.41016.0664 1.92187.39453 1.92578.39453 1.51953.44922 1.69532.71875 2.14453.80469 1.60547-.71875 1.42968-.80469 1.16016-1.07813 1.25-.44921 3.03516-.71875 1.875-.35938 2.14453-1.34765 2.23437-1.25391 2.5-1.25781 1.69531-.44922 1.78516-.17969 1.16016-.26953.625.53906 1.33984-.26953.71485-.98828.98437-1.34375.44531-.17969.80469-.35937 1.875-.53907 1.78516-.44921 1.25-.26954 1.16015-.08984 1.69922-.08984 1.96094-.26954 1.25-.08984h.53906l.625-.08984h.89063l2.14453-.17969 2.41015-.17969 2.58985-.08984 1.69531.17969 1.60938.08984 1.42968.35938 1.16016.71875 1.875.98828 1.16015 1.52734.26563.71484.6289.08985.35548.89844.53515.53906.53516 1.52734 1.07422.35938h.53515l-.80469.53515.08985 1.70703.71484 2.69532.89063.80468.89453.98829.71484 1.2578 1.78516.53907 1.51953-.17969.35547 1.34375 1.60937-.80469.98047-.53906.26953.26953.31641-.21484.21875-.14453.80078.44922.44922-.35938h.35547l.53515-.26953.53907-.71875.53515-.26953.625-.98828 1.16016.44922.83984.3711 1.39454.61718 1.6953-.17969h1.60548l1.78515.08985.17969-1.70704.53516-1.34375.80468.26954.4922.84765.40233.40625-.08984.53906v.35938l.71485.44922.71093-.26953h1.42969l.35938.98828.4453 1.25781.71485 1.34375 1.25.6289 1.69531.62891.71485-.17969.17969-.53906.98046-.08984.44922.35937.08594 1.25782-.26563.6289-.53515.17969v.53906l.71484.98438.26563.53906.98437.98828.80078 1.07813-.26562.35937-.08985.89844-.625 2.33203-.35546 2.0664-.08985 1.79298-.17969.71875-.08984.53906v1.4375l-.98047 1.88281-.35937 1.70703-.53516.89844-.80469 1.16797-.26562.53906 2.05469 1.2539.08593.35938-.35546.53906-.08985-.17968v.80859l.08985 1.4375-.44532.71484-1.07422.09375-.26562.71485.53515.89844.8047.71875 1.16015.80859 1.33984.26953.44531.35938-.35546.44921-1.78907-.08984-1.25-.44922-.71484-.71875-.625-.08984-.17578 3.58984-.1875 1.3086h89.35937V311.70313h-55.26953v49.08203l.76172.125 3.28906.54296 2.02344 2.83594v2.7539l2.35156.33204 2.34766.33203h4.05078l-1.3789 4.16016-2.02344.70703-2.02344.70312-.54297.34375-2.59375 1.6172-.1875.11718-2.02344-2.07813-.73046-2.74218-2.67188-2.07813-1.375-3.5-.0664-.08203-1.95704-2.67188 2.75-1.41796v-49.08204H294.42187v91.41407l.1172.03125.1328.01172.07422.07421.10547.04688.08985.0586.08593.05859.08985.0586.29687.29687.0586.08984.03125.11719.02734.11719.01563.13671-.03125.1172-.0586.08983-.0586.08594-.04296.10547-.04688.10156-.02734.1211v.14453l.17578.26953.14844.14844.07422.08594.07422.07421.04296.10547.0625.08985.0586.08593.04297.10547.0586.08985.04687.10156.04296.10547.0586.08594.11719.17968.07421.07422.0625.08594.0586.08984.04297.10547.0586.08985.05858.08593.0625.08985.0586.08984.04297.10156.11719.17969.07421.07422.0586.08594.07422.07421.08984.0586.10547.04687h.14844l.1328-.01562.13282.01562.10156-.04687.07422-.07422.04688-.10156-.01563-.13281v-.14844l-.04687-.10547-.02735-.11719-.04687-.10156-.02735-.1211-.04296-.10156-.0625-.08984-.04297-.10156-.04297-.10547-.03125-.11719-.01563-.13281-.01171-.13672.08593-.0586.0586-.08593.12109-.03125.04297.10547.01562.1328v.1172l.0586.10156.0586.08984.08983.0586.14844.14843.0586.08985.04296.10547-.01171.10156.08593.0586.10547.04687.08594.0586.08984.05858.07422.07422-.11719.02735-.10546.04687-.08594.0586-.07422.07421-.0586.08985-.0625.08594-.02734.12109-.04687.10156-.04297.10547-.03125.11719-.01172.13281-.01563.13281v.14844l.02735.11719.04687.10547.04297.10156.0586.08984.07421.07422.08985.0586.07422.07421.08984.0586.0586.08984.04296.10547.04688.10156.11719.03125.1328.01563h.14845l.11718-.03125.10547.04297.04297.10547.04688.10156.02734.1211L299.5 410l.02734.11719.03125.1211.02735.11718.10547.04297.10156.04687.13281-.01562.14844.14844.0625.08593.07422.07422.07031.07422.08984.0625.10547.04297.10156.04297.1172.03125.13671.01562.11719-.03125.07422-.07422.02734-.11718-.01172-.13282-.03125-.12109-.02734-.11719.04297-.10547h.11719l.08984.0625.11719.02735h.14843l.13282.01562h.14843l.13282.01563.1328-.01563h.14845l.1328-.01562.13282-.01172.13672.01172.11719-.02735.13281-.01562.1914-.0586-.05859.17579-.01562.1328-.02735.1211-.01562.13281-.0586.08594-.1328.01563-.10548.04687-.10546.04297-.1172.03125-.11718.02735-.26563.03125h-.14843l-.13281.01562-.07422.07422.05859.08594.14844.14843.11719.1797.07421.0703.08985.0625.08984.0586.08594.0586.08984.05858.10156.04297.10547.0625.10547.04297.08594.0586.10547.04687.10156.04297.17969.11719.0586.08984-.04298.10156-.04687.10547.01562.13281.22266.22266.0586.08985.04296.10156.03125.1211.04297.10155.01563.13282.03125.11718.01171.13672.03125.11719.14844.14844.10156.04297.10547.04296.1172.03125.1328.01563.13672.01563h.11719l.11719-.03125.08984-.0586.04297-.10547.04688-.10156.04296-.10547.03125-.11719.01172-.1328v-.14845l-.01172-.1328-.01562-.13282-.03125-.11719-.04297-.10547-.04688-.10547-.04296-.10156-.04297-.10547-.01563-.13281.01563-.13281.02734-.11719.03125-.11719.02735-.1211.04687-.10155.08984-.0586.08594-.0625.07422-.07422.08984-.05859.22266-.22266.0586-.08593.07421-.07422.11719-.17969.0586-.08594v-.14844l-.07423-.07421-.10156-.04688-.10547-.04297-.10156-.04297-.0586-.08984-.04687-.10547-.02734-.11719.08984-.05859.11719-.03125.10156-.04297.17969-.11719.14844-.14843.01172-.13282-.01172-.10546-.08985-.0586-.1328.01563h-.14845l-.1328.01562-.13282-.01562-.1211-.03125-.08593-.0586-.07422-.07422-.0586-.08984-.0625-.08594-.11718-.17969-.0586-.08593.03125-.1211.08594-.05859.1211-.03125.05859-.08594v-.1211l-.03125-.11718-.0586-.08984-.05859-.08594-.04687-.10547-.02735-.11719-.01562-.1328.0586-.08985.07421-.07422.08984-.0586.1172-.17968.07421-.07422.0586-.08594.14843-.14844.1211-.03125.1328-.01562.13282.01562.07422.07422.04297.10547.01562.13281-.03125.1172-.11719.03124-.1328.01172-.14844.14844-.04297.10547-.04688.10156-.02734.1211-.03125.11718v.14844l.03125.11719.04297.10546.05859.08985.07422.07031.07422.07422.11719.03125.12109.02734.11719-.02734.1328-.01563h.1172l.08984.0586.07422.07422.04687.10546.0586.08594.10156.04688.13281.01562.10547.04297.08594.0586-.01172.10546-.07422.07422-.17969.11719-.05859.08984-.08984.0586-.07032.07422-.07421.07421-.0625.08985-.02735.11719-.01562.1328.01562.13282-.01562.13281v.14844l.01562.13281.02735.1172.03125.12108.07421.07422.08985.0586.08594.0586.08984.05858.11719.03125v.08594l-.10157.04688-.08984.0586-.26563.03124-.11718.02735h-.14844l-.10547.04296-.10156.04688-.0586.08984-.0625.23438-.01171.13281-.03125.1211-.01563.1328v.29298l-.01172.1328.01172.13673.01563.1328.1328.01563.13282.01172.1211.03125.08593.0586.07422.07421.04688.10547.04296.10157.01563.1328v.44532l-.01563.13281v.44532l.03125.26562.02735.11719.01562.13281.03125.11719.08594.21094.03125.26562v.14844l-.03125.11719-.02734.11718-.03125.1211-.02735.11719-.03125.11718-.03125.1211-.01171.1328-.01563.13282.08984.0586.1172-.03125.10155.01562.04688.10547-.03125.26562v.44141l-.04297.10547-.04688.10547-.04296.10156-.04297.10547-.0586.08594-.03125.12109-.04296.11719-.03125.11719-.01563.1328.01563.13282.05859.08984.10547.04688.08594.0586.05859.08593-.01172.13672-.03125.11719-.04297.10156v.44531l-.01562.13281v.14844l-.03125.11719-.04297.10547-.02735.11719-.04687.10546-.04297.10157-.03125.12109-.02734.11719-.03125.13281-.03125.11719-.02735.11719-.04297.10546-.03125.1172-.03125.12108-.01171.13282-.01563.13281v.29688l.02734.11718v.14844l.04688.39844.02734.11719.0586.08984.12109.03125h.14844l.13281-.01563.0586.08985v.11719l-.0586.08984-.08984.0586-.10157.04296-.10546.04688-.08985.05859-.08594.0586-.13671.01562-.1172-.03125-.1328-.01563-.10157.04688-.0625.08594-.01172.13671-.01562.13282-.03125.11719-.02735.11718-.01562.13281-.03125.1211v.29687l.01563.13282.03125.11718v.14844l.01171.13281v.14844l-.02734.11719-.04688.10156-.02734.1211-.03125.11718-.0586.08985-.07421.07421-.10156.04297-.10547.04688-.11719.02734-.1211.03125-.10156-.04687.0586-.08594.10547-.04688.02734-.11718.03125-.11719.02734-.1211.03125-.11718v-.14844l.01563-.13281-.03125-.11719-.04297-.10547-.10547.01563-.07422.07422-.10156.04296-.08984.0625-.07422.07422-.04297.10157-.01563.1328-.03125.1172L304.25 426l-.03125.11719-.02734.11719-.03125.12109-.02735.11719-.03125.11718-.04297.10547-.08984.0586h-.08984l-.1172-.03125-.03124-.08594.01562-.13672-.03125-.11719v-.14844l-.01171-.1328v-.14844l-.0625-.23438-.02735-.1211-.04297-.10156-.04687-.10546-.0586-.08594-.05859-.08985-.04297-.10546-.0625-.08594-.14844-.14844-.0703-.07422-.10548-.04687-.10547-.04297-.10156-.04297-.29687-.29688-.08985-.07421-.08594-.0586-.10546-.04297-.08985-.0625-.08594-.0586-.10546-.04296-.08985-.0586-.08594-.0625-.07421-.0703-.10547-.04688-.08594-.0586-.10547-.04296-.08984-.0625-.10156-.04297-.10547-.04297-.08594-.0586-.10547-.04687-.10547-.04297-.10156-.04687-.08985-.0586-.10156-.04297-.10547-.04296-.08984-.0625-.11719-.02735-.13281-.01562-.13281.01562H299.75l-.13281.01563-.11719-.03125-.08984-.0586-.07422-.07422-.08985-.05859-.10156-.04688h-.14844l-.12109-.02734-.10156-.04297-.07422-.07422-.11719-.17968-.08984-.0586-.10156-.04297-.08985-.0625-.10547-.04296-.08984-.0586-.08594-.0586-.10547-.04687-.0586-.08594-.05858-.08984-.04297-.10547-.04688-.10156-.07422-.07422-.08594-.0586-.07421-.07421-.08985-.0586-.22265-.22265-.04297-.10547-.03125-.26563.10547-.04296h.14453l.10547.04296.07421.07422.08985.0586.08594.0586.10546.04687.08985.05859.14844.14844.0703.07422.14845.14843.0625.08594.07421.07422.08594.0586.07422.07421.08985.0625.08984.0586.08594.05859.26953.17578.10156.04688.10547.04296.10156.04297.04688-.07421.05859-.08594.07422-.07422.07031-.07422.10547.04297.07422.07422.0586.08984.04296.10156.04688.10547.04296.10547.1211.02735.11719-.02735.07421-.08984.04297-.10547.0586-.08985.07422-.07421.10546-.04297.1172-.02735.1328.01172.08985.0586.14844.14843.05859.08985.04297.10547.04687.10156.04297.10547.04297.10156.10547.04688.10547.04296.13281.01563.08594-.0586.0586-.08984.07421-.07422.10547-.04297.11719.02735.10547.04687.10156.04297.10547.04297.10156.04688.17969.11718v.11719l-.01563.13281.01563.13281.01562.13672.0586.08594.10156.04688.1211.02734.11718.03125h.14844l.11719-.03125.05859-.08984.17969-.1172.05859-.08983.07422-.07422.0586-.08594.11718-.17969.17969-.11719.11719.03125.08984.0586.04297.07422-.01563.1328v.1172l.08985.05859h.14843l.13282-.01563.1328-.01171.26563-.03125.10547-.04297.11719-.03125.1211-.02735.07421-.07421.07031-.07422.0625-.08985-.01562-.10547-.04688-.10156-.10156-.04297-.10547-.01562-.11718.02734-.26563.03125h-.14844l-.07421-.07422-.08985-.0586-.11719-.03124-.11718-.02735-.13282-.01562h-.14843l-.13282.01563h-.29687l-.10547-.04688-.14844-.14844-.04297-.10156-.05859-.08984.22266-.22266.08593-.0586.10547-.04296.11719-.03125.13281-.01563.13281.01563.13672.01562.10157.04297.1328-.01172.08985-.0625.10156-.04297.0625-.08984-.04687-.10156-.08984-.0586-.1172-.03125-.10155-.04296-.0586-.08985-.0625-.08984v-.11719l.01563-.13281.10547-.04688.07421-.07031v-.1211l-.08984-.05859-.03125-.11719.08985-.05859.07421-.07422.04297-.10547.0586-.08984.04687-.10156.01563-.13281v-.14844l-.04688-.10547-.04297-.10156-.08984-.0586-.13281-.01562-.10157-.04297-.13671-.01563-.1172-.03125h-.4453l-.13282-.01562-.13281-.01172-.13281-.01563-.11719-.03125h-.14844l-.13281-.01562-.13281-.01172-.26563-.03125-.1211-.04297-.08593-.0586-.07422-.07421v-.14844l.01172-.13281.10547-.04688.10156-.04296.13281-.01563h.15235l.13281-.01562h.29297l.1211.03125.10156.04296.08984.0586.23438.0625.12109-.04688.08984-.05859.10156-.04297.13282-.01562.10547.04296.10156.04688.13281.01172.1211-.02735h.14453l.12109-.03125.11719-.02734.10547-.04687.07421-.07422.08594-.0586.14844-.14843.0586-.08594.04687-.10547.02734-.11719.01563-.10547-.10156-.04296-.08985-.0586-.11719-.03125-.10546-.04297-.08985-.0625-.07422-.08594-.07422-.07421-.10156-.04297-.10547-.04688-.10156-.04297-.0586-.08984-.04687-.10156-.08594-.21094-.0625-.08594-.05859-.08984-.07422-.07422-.08594-.0586h-.26953l-.11719.03126-.08984.05859-.10156.04297-.13281.01562-.10547-.01562-.02735-.11719-.0625-.08984-.11718-.03125-.10157-.04297-.14843-.14844-.03125-.11719-.01563-.10546.07422-.07422.17969-.1172.11719-.02733.11718-.03125.13672.01562.10156.04297.10547.04297.10156.04687.10547.04297.1172.03125.1328.01563.1172.02734.1328.01563.10547-.01563.08985-.0586-.07422-.07421-.10547-.04297-.07422-.07422-.07422-.08984-.14844-.14844-.08593-.0586-.08985-.05859-.07422-.07422-.08984-.0586-.10156-.04687-.1211-.02734-.10156-.04688-.10547-.04296-.11719-.03125-.10156-.04297-.1211-.03125h-.14843l-.11719.03125-.10546.04297-.08594.0625-.17969.11718-.08594.0586-.08984.0586-.10547.04687-.08594.05859-.10547.04297-.10156.04297-.10547.04687-.07422.07422-.05859.08985-.0586.08593-.04687.10547-.0586.08594-.07421.07422-.13281-.01172-.1172-.03125h-.11718l-.07422.07422-.08984.0586-.07422.07421-.08984.0586-.08594.05859-.10547.04687-.10156.04297-.13672.01563-.10156-.04297-.14844-.14844-.10547-.04688h-.08594l-.10547.04688-.10156.04297-.1211.03125-.11718-.03125-.07422-.07422v-.11719l.03125-.1211.07422-.0703.0586-.08985.07421-.07422.11719-.03125.10547-.04296h.29297l.13281-.01563.13672-.01563.10156-.04296.08985-.0586.10156-.04687.08984-.0586.13281-.01171.08985.05859.13281.01172.08984-.0586.08594-.05859.10547-.04297.08984-.0586.08594-.0625.08985-.05859.14843-.14843.0586-.08594.05859-.08985.10547-.04296.13281-.01563.11719.02735.1211.03125.05859-.0586.05859-.08984.03125-.26563.02734-.11719.10547.01172.13281.01563.10157-.04297.08984-.0586.0586-.08984.07421-.07422.0586-.08984.04687-.10156.01172-.13281-.01172-.13282-.04687-.10547-.14844-.14843-.0586-.08985-.05859-.08594-.04297-.10546v-.44532l.01563-.1328v-.14845l.01172-.1328-.0586-.0586-.08984.0586-.10156-.04298-.17969-.11719-.08594-.05859-.0625-.08984-.0586-.08985-.07421-.07421-.08594-.0586-.1211.03125-.10155.01172-.10547.04688-.08594.05859-.10547.04297-.14844.14844-.08984.05859-.08594.0586-.08984.0625-.10547.04296-.13281.01563v-.1211l.10547-.04297.11718-.03125.07422-.0703.04297-.10548v-.14844l-.02734-.11718-.14844-.14844-.13281-.01563h-.14844l-.11719.03125-.10547.04297-.10156.04297-.08984.0625-.11719.02735-.07422-.07422.01172-.13281-.04297-.10157-.04297-.10547-.08984-.05859-.11719.02734-.1211.03125-.11718.03125-.10156.04297-.1211.03125-.10156.04297-.10547.04297-.08984.0586-.10156.01562v-.11719l.01562-.13281-.0586-.08985-.07421.04297-.14844.14844-.0586.08985-.07421.07421-.04688.10547-.04296.10156-.07422.07422-.0586.08985-.07422.07422-.05859.08593-.07422.07422-.08984.0625-.07422.07031-.07422.07422-.10156.01563-.13281.01562-.10547-.04296v-.1211l.14843-.14844.04297-.10156.0586-.08984.04687-.10156.04297-.10547.0586-.08985.03124-.11719.04297-.10156.03125-.1211.02735-.11718.04687-.10547.04297-.10156.04297-.10547.07422-.07031.08984-.0625.08985-.0586.10156-.04296h.29687l.26563-.03125.10547-.04297-.07422-.07422-.11719-.03125-.10547-.04297-.08984-.0586-.10156-.04687-.08985-.0586-.10156-.04296-.10547-.04297-.08984-.0625-.08594-.0586-.10547-.04296-.10156-.04297-.1211-.03125-.11718-.03125-.10157-.04297L297.5 410.25l-.10156-.04297-.08985-.0586-.04296-.10546-.01563-.13281.10156-.04297.13281-.01563.13672.01563.13282-.01563.10156-.04297.0586-.08984.01562-.10547-.08985-.0586-.07421-.07421-.10157-.04297-.08984-.0586-.14844-.14843-.04297-.10547-.01562-.13281v-.29297l-.0586-.08985-.08984-.05859-.07422-.07422-.04297-.10547-.03125-.11718-.0586-.08985-.07421-.07422-.11719-.02734-.07422-.07422-.08984-.0586-.08984-.0625-.08594-.05859-.07422-.07421-.0586-.08594-.04687-.10547-.08594-.0586-.14843-.14843-.19532-.0586-.1328.01563-.10157.04297-.07422.07422-.04688.10156-.04296.10547-.0586.08984-.0586.08594-.29687.29687-.08984.0586h-.08594l-.0625-.08594-.04297-.10547.03125-.11719.0586-.08984.02734-.11719-.01172-.13281-.08984-.0625-.10547.04688-.11719.02734-.11719.03125-.26953.17578-.10156.04688-.11719.02734-.10546.04687-.08985.0586-.10156.04297-.0586-.08594-.04687-.10547.01563-.13281.04687-.10547.07031-.07422.07422-.07031.0586-.08985v-.14843l-.04297-.10547h-.23829l-.10156.04687-.03125.11719-.02734.11719-.03125.1211-.07422.04296-.13281.01563-.07422-.04688-.04297-.10156-.04297-.10547-.04687-.10156-.04297-.10547-.1211.03125-.10156.04297-.13281.01562-.11719.03125-.10547.04297-.08984.0586-.10156.04687-.1211.02734-.13281.01563-.10156-.04297-.0586-.08985-.04687-.10546-.04297-.10157-.04297-.10546v-.1172l.0586-.08984.08593-.05859.17969-.11719.10156-.04687.10547-.04297.10547-.0586.10156-.04296.08985-.0625.10156-.04297.10547-.0586.10156-.04687.08984-.0586.10547-.04296.10156-.04297.08985-.0625.10156-.04297.13672-.01563.11719.03125.10156.04297.1211.03125.10156.04297.10546.04688.10157.04296.10547.04297.10156.04688.10547.04297.10156.04297.10547.04687.08594.0586.10546.04296.1172.03125.10546.04297.10156.04688.08985.0586.10547.04296.10156.04297.10547.04687.11719.02735.10156.04687.1211.02735h.14843l.08594-.0586.01562-.10156.0586-.08984-.02735-.1172-.07422-.07421-.11719-.17969-.07421-.07422-.08985-.07421-.17969-.1172-.08593-.05859-.10547-.04296-.10156-.04688-.26954-.17578-.05859-.08985-.07422-.07421-.0586-.08985-.04296-.10156-.03125-.11719-.01563-.13672v-.5625l-.01171-.1328-.01563-.13282-.03125-.11719-.01562-.13281-.01172-.13281-.03125-.1211-.22266-.22265-.0586-.08594-.01562-.10547.03125-.11719.13281-.01562v-91.41406H172.9922v1.45312l-.0586.23438-.35156 1.05078-.17187.52343-.1172.34766-.17577.41016-.11719.17187-.23438.29297-.23046.0586h-.35157l-.11718.05859-.23047.40625v.29297l.11719.17578.23046.23047.1172.23437.64062.75781.29297.46485.17578.23437.23047.35156.23437.34766.64063.8164.17578.46485.17187.41016.11719.69531.17578.46875.11719 1.39844.0586.46484v.875l.11718 1.04688v4.78125l-.0586.46484-.35156 1.28125-.17578.52344-.11328.41015-.35156.9297L172.93359 336l-.23437.58203-.11719.17578-.17187.34766-.17578.40625-.35157.8164-.0586.29297-.11327.29297-.11719.28906-.0586.17579-.11718.875-.0586.40625-.05859.11718-.0586.17579-.05859.17187-.23047.52734-.11718.17188v.23437l-.11719.23438-.0586.17187-.17577.58594v.28906l-.0586.17579v.29296l-.0586.11329-.05859.52734v.17187l-.05468.23438v2.6211l-.17578.8164-.1172.17578-.17577.23438-.1172.17187-.11327.23438-.58594.93359-.23047.28906-.29297.46485-.17578.23437-.28906.35156-.35156.69922-.11328.23047-.17579.41016-.17578.23046-.40625.52735-.8164.69922-.29297.17187-.28906.23438-.17579.11719-.17578.17578-.52344.40625-.52734.17578-.17187.17578-.23438.05469-.64062.17578h-.75782m12.21094 31.02344l-1.07422.44921.35938.89454 1.25-.71485.44531-.53906-.98047-.08985"/><path fill="#d3d3d3" fill-opacity="0" fill-rule="evenodd" d="M201.50781 416.59766h-.89453l.44922.6289.98047.35938.80469-.08985.4453-.98828-.17577.08985-.71485-.35547-.89453.35547m154.6211 59.0703l-.0586-.52343v-.29297l.11328-.29297.0586-.23046.46875-.46875h.11328l.11719-.11329.11718-.05859h.17579l.23437-.0586h.34766l.23437.0586.11719.0586.23047.17187.0586.17578.11718.58203v.29297l-.11719.17578-.17187.28906-.17579.17579-.52734.52343-.23047.23438-.11719.0586h-.17578l-.11718-.0586-.40625-.29297-.17579-.11719-.11718-.0586-.0586-.11327-.05468-.1172m6.64062-10.95702l-.0586-.17188v-1.10937l.0586-.17188.17578-.0586.17188-.05858h.17578l.23437-.0586.1172.0586.05858.69921-.05859.17188-.11719.17578-.11718.0586-.23438.52343-.11328.0586h-.23438l-.05859-.1172m9.61328-14.39062l-.11719-.17578v-.69922l.29297-.875.1172-.17187.17577-.35156.11328-.23047.1172-.29297.35155-.75781.1172-.23047.17187-.23438h.17578l.11719-.0586h.64062l.11719.0586.23437.23438.17188.11328.35156.29297.11719.11718.11328.17579v.11328l.11719.05859.11718.11719v.69922l-.05859.17578v.23047l-.0586.17578-.34765 1.05078-.11719.23047-.11719.23437-.11718.0586-.23047.23437-.64063.28906h-.875l-.41015-.11718-.64063-.46485"/><path fill="none" stroke="#bebebe" stroke-linecap="round" stroke-linejoin="round" stroke-miterlimit="10" stroke-width=".5" d="M467.95703 311.69531H144.02734v168.625h323.9297v-168.625"/><g clip-path="url(#a)"><path fill="#fff" fill-opacity="0" fill-rule="evenodd" d="M144 475.89063v4.4375h.0039H144V311.67188h.0039H144v164.21875"/></g><g clip-path="url(#b)"><path fill="#fff" fill-opacity="0" fill-rule="evenodd" d="M144.0039 480.32813V311.67188h239.66798v141.04296l-4.4375.64454-.19532.33984-.47656 4.4375.67188 1.96875.65625-1.96875 3.78125-3.5586.86328-.8789-.86329-.98438V311.67188h84.32422v168.65625H144.00391"/></g><path fill="#50fcfc" fill-rule="evenodd" d="M379.23438 460.10547l-.67188-1.96875.47656-4.4375.19531-.33985 4.4375-.64453.86329.98438-.86329.8789-3.78125 3.5586-.65625 1.96875"/><g clip-path="url(#c)"><path fill="#fff" fill-opacity="0" fill-rule="evenodd" d="M467.9961 480.32813H468V311.67188h-.0039H468v168.65625h-.0039"/></g><g clip-path="url(#d)"><path fill="none" stroke="#000" stroke-linecap="round" stroke-linejoin="round" stroke-miterlimit="10" stroke-width=".5" d="M147.51172 480.3711l-7.02344-.08204"/></g><g clip-path="url(#e)"><path fill="none" stroke="#000" stroke-linecap="round" stroke-linejoin="round" stroke-miterlimit="10" stroke-width=".5" d="M147.51172 480.3711l1.1289 2.17968"/></g><g clip-path="url(#f)"><path fill="none" stroke="#000" stroke-linecap="round" stroke-linejoin="round" stroke-miterlimit="10" stroke-width=".5" d="M160.78516 479.76953l-6.9375 1.11719"/></g><g clip-path="url(#g)"><path fill="none" stroke="#000" stroke-linecap="round" stroke-linejoin="round" stroke-miterlimit="10" stroke-width=".5" d="M159.77344 479.9336l.74219.97656"/></g><g clip-path="url(#h)"><path fill="none" stroke="#000" stroke-linecap="round" stroke-linejoin="round" stroke-miterlimit="10" stroke-width=".5" d="M174.1211 479.94531l-6.98438.76563"/></g><g clip-path="url(#i)"><path fill="none" stroke="#000" stroke-linecap="round" stroke-linejoin="round" stroke-miterlimit="10" stroke-width=".5" d="M174.1211 479.94531l1.3828 2.02735"/></g><g clip-path="url(#j)"><path fill="none" stroke="#000" stroke-linecap="round" stroke-linejoin="round" stroke-miterlimit="10" stroke-width=".5" d="M187.3125 479.32031l-6.73438 2.01563"/></g><g clip-path="url(#k)"><path fill="none" stroke="#000" stroke-linecap="round" stroke-linejoin="round" stroke-miterlimit="10" stroke-width=".5" d="M187.3125 479.32031l1.72266 1.7461"/></g><g clip-path="url(#l)"><path fill="none" stroke="#000" stroke-linecap="round" stroke-linejoin="round" stroke-miterlimit="10" stroke-width=".5" d="M200.48047 478.92188l-6.4414 2.8125"/></g><g clip-path="url(#m)"><path fill="none" stroke="#000" stroke-linecap="round" stroke-linejoin="round" stroke-miterlimit="10" stroke-width=".5" d="M200.48047 478.92188l1.92187 1.52734"/></g><g clip-path="url(#n)"><path fill="none" stroke="#000" stroke-linecap="round" stroke-linejoin="round" stroke-miterlimit="10" stroke-width=".5" d="M213.79297 478.91797l-6.4375 2.82031"/></g><g clip-path="url(#o)"><path fill="none" stroke="#000" stroke-linecap="round" stroke-linejoin="round" stroke-miterlimit="10" stroke-width=".5" d="M213.79297 478.91797l1.92578 1.52344"/></g><g clip-path="url(#p)"><path fill="none" stroke="#000" stroke-linecap="round" stroke-linejoin="round" stroke-miterlimit="10" stroke-width=".5" d="M226.59766 478.08984l-5.41797 4.47657"/></g><path fill="none" stroke="#000" stroke-linecap="round" stroke-linejoin="round" stroke-miterlimit="10" stroke-width=".5" d="M226.59766 478.08984l2.26953.9375"/><g clip-path="url(#q)"><path fill="none" stroke="#000" stroke-linecap="round" stroke-linejoin="round" stroke-miterlimit="10" stroke-width=".5" d="M239.53516 477.69922l-4.66016 5.25781"/></g><path fill="none" stroke="#000" stroke-linecap="round" stroke-linejoin="round" stroke-miterlimit="10" stroke-width=".5" d="M239.53516 477.69922l2.38672.57422"/><g clip-path="url(#r)"><path fill="none" stroke="#000" stroke-linecap="round" stroke-linejoin="round" stroke-miterlimit="10" stroke-width=".5" d="M253.21875 478.07813l-5.39844 4.5"/></g><path fill="none" stroke="#000" stroke-linecap="round" stroke-linejoin="round" stroke-miterlimit="10" stroke-width=".5" d="M253.21875 478.07813l2.27344.92968"/><g clip-path="url(#s)"><path fill="none" stroke="#000" stroke-linecap="round" stroke-linejoin="round" stroke-miterlimit="10" stroke-width=".5" d="M266.70703 478.30469l-5.7461 4.04687"/></g><path fill="none" stroke="#000" stroke-linecap="round" stroke-linejoin="round" stroke-miterlimit="10" stroke-width=".5" d="M266.70703 478.30469l2.1914 1.10937"/><g clip-path="url(#t)"><path fill="none" stroke="#000" stroke-linecap="round" stroke-linejoin="round" stroke-miterlimit="10" stroke-width=".5" d="M280.09766 478.41797l-5.89453 3.82422"/></g><path fill="none" stroke="#000" stroke-linecap="round" stroke-linejoin="round" stroke-miterlimit="10" stroke-width=".5" d="M279.24219 478.97266l1.07031.59765"/><g clip-path="url(#u)"><path fill="none" stroke="#000" stroke-linecap="round" stroke-linejoin="round" stroke-miterlimit="10" stroke-width=".5" d="M293.60156 478.74219l-6.26953 3.17187"/></g><g clip-path="url(#v)"><path fill="none" stroke="#000" stroke-linecap="round" stroke-linejoin="round" stroke-miterlimit="10" stroke-width=".5" d="M292.6875 479.20313l1.0039.70703"/></g><g clip-path="url(#w)"><path fill="none" stroke="#000" stroke-linecap="round" stroke-linejoin="round" stroke-miterlimit="10" stroke-width=".5" d="M306.92188 478.75l-6.28125 3.15625"/></g><g clip-path="url(#x)"><path fill="none" stroke="#000" stroke-linecap="round" stroke-linejoin="round" stroke-miterlimit="10" stroke-width=".5" d="M306.00781 479.21094l1 .70703"/></g><g clip-path="url(#y)"><path fill="none" stroke="#000" stroke-linecap="round" stroke-linejoin="round" stroke-miterlimit="10" stroke-width=".5" d="M320.10938 478.52344l-6.02735 3.60937"/></g><path fill="none" stroke="#000" stroke-linecap="round" stroke-linejoin="round" stroke-miterlimit="10" stroke-width=".5" d="M319.23438 479.05078l1.05078.63281"/><g clip-path="url(#z)"><path fill="none" stroke="#000" stroke-linecap="round" stroke-linejoin="round" stroke-miterlimit="10" stroke-width=".5" d="M333.48828 478.63281l-6.15625 3.39063"/></g><g clip-path="url(#A)"><path fill="none" stroke="#000" stroke-linecap="round" stroke-linejoin="round" stroke-miterlimit="10" stroke-width=".5" d="M332.59375 479.1289l1.02734.66798"/></g><g clip-path="url(#B)"><path fill="none" stroke="#000" stroke-linecap="round" stroke-linejoin="round" stroke-miterlimit="10" stroke-width=".5" d="M347.23438 480.15625l-7.01563.34766"/></g><g clip-path="url(#C)"><path fill="none" stroke="#000" stroke-linecap="round" stroke-linejoin="round" stroke-miterlimit="10" stroke-width=".5" d="M360.52734 480.76563l-6.97265-.8711"/></g><g clip-path="url(#D)"><path fill="none" stroke="#000" stroke-linecap="round" stroke-linejoin="round" stroke-miterlimit="10" stroke-width=".5" d="M373.5625 481.76172l-6.41406-2.86719"/></g><g clip-path="url(#E)"><path fill="none" stroke="#000" stroke-linecap="round" stroke-linejoin="round" stroke-miterlimit="10" stroke-width=".5" d="M386.875 481.77344l-6.40625-2.89063"/></g><g clip-path="url(#F)"><path fill="none" stroke="#000" stroke-linecap="round" stroke-linejoin="round" stroke-miterlimit="10" stroke-width=".5" d="M395.72656 483.60938l2.51953-6.5625"/></g><g clip-path="url(#G)"><path fill="none" stroke="#000" stroke-linecap="round" stroke-linejoin="round" stroke-miterlimit="10" stroke-width=".5" d="M410.84766 483.80078l-1.09375-6.9414"/></g><g clip-path="url(#H)"><path fill="none" stroke="#000" stroke-linecap="round" stroke-linejoin="round" stroke-miterlimit="10" stroke-width=".5" d="M425.375 483.3711l-3.51563-6.08594"/></g><g clip-path="url(#I)"><path fill="none" stroke="#000" stroke-linecap="round" stroke-linejoin="round" stroke-miterlimit="10" stroke-width=".5" d="M439.29297 482.92969l-4.72266-5.20313"/></g><g clip-path="url(#J)"><path fill="none" stroke="#000" stroke-linecap="round" stroke-linejoin="round" stroke-miterlimit="10" stroke-width=".5" d="M451.53516 477.0586l-2.57813 6.53906"/></g><path fill="none" stroke="#000" stroke-linecap="round" stroke-linejoin="round" stroke-miterlimit="10" stroke-width=".5" d="M451.16016 478.01172l1.21875-.14063"/><g clip-path="url(#K)"><path fill="none" stroke="#000" stroke-linecap="round" stroke-linejoin="round" stroke-miterlimit="10" stroke-width=".5" d="M464.2539 476.88281l-1.38671 6.89063"/></g><path fill="none" stroke="#000" stroke-linecap="round" stroke-linejoin="round" stroke-miterlimit="10" stroke-width=".5" d="M464.05469 477.88672l1.17578-.35156"/><g clip-path="url(#L)"><path fill="none" stroke="#000" stroke-linecap="round" stroke-linejoin="round" stroke-miterlimit="10" stroke-width=".5" d="M147.5039 467.26172l-7.0078-.4961"/></g><path fill="none" stroke="#000" stroke-linecap="round" stroke-linejoin="round" stroke-miterlimit="10" stroke-width=".5" d="M147.5039 467.26172l.9961 2.24219m12.3125-2.17188l-6.9961-.63672m5.98048.54688l.47265 1.1289m13.875-1.33593l-7.02734-.04297m7.02734.04297l1.13672 2.17578m12.13672-2.71875l-6.94531 1.04297m5.9375-.89063l.73047.98438m13.53906-1.42579l-6.83985 1.6211m6.83985-1.6211l1.6211 1.84375m11.54687-2.3125l-6.54297 2.5586m6.54297-2.5586l1.86328 1.59766m11.10547-2.26172l-5.85157 3.88672m5.85157-3.88672l2.16015 1.16797m10.80078-1.6211l-5.14062 4.79298m5.14062-4.79297l2.32032.80078m-3.07032-.10156l1.16016.39843m12.98047-1.01172l-5.29297 4.6211m5.29297-4.6211l2.29297.8711m-3.0625-.19922l1.14453.4375m13.09766-.91406l-5.60938 4.23047m5.60938-4.23047l2.22265 1.03515m10.95703-1.20312l-5.33984 4.5664m5.33984-4.5664l2.28516.89844m11.19531-.69141l-5.67187 4.15234m5.67187-4.15234l2.21094 1.07031m10.8125-1.41797l-5.08984 4.84766m5.08984-4.84766l2.32812.77735m10.78125-.97656l-4.67578 5.24609m4.67578-5.2461l2.38282.57813m11.28906-.21094l-5.38672 4.51172m4.60156-3.85547l1.13672.46094m13.36719-.51562l-6.19531 3.30859m5.29297-2.82813l1.01953.6836m13.44922-.5664l-6.69922 2.11327m5.72656-1.80468l.875.85937m13.11719 1.625l-6.10938-3.47266m13.53516-.33984l5.66797 4.15234m6.99609-2.52343l6.97266.89453m-5.95703-.76563l-.4336-1.14843m15.88672 4.96484l.66406-6.9961m-.5664 5.97657l-1.13282.47265m17.22266-.52343l-5.07812-4.85547m4.33984 4.14844l-.33594 1.18359m12.60547.52734l-1.51172-6.86328m1.29297 5.86328l-.9336.79688m14.69923-6.60156l-1.97657 6.74609m1.6875-5.76563l1.20313-.24609m10.11328-.625l2.60156 6.52734m-2.22265-5.57812l.79296-.9375"/><g clip-path="url(#M)"><path fill="none" stroke="#000" stroke-linecap="round" stroke-linejoin="round" stroke-miterlimit="10" stroke-width=".5" d="M147.51172 453.64453l-7.02344.10938"/></g><path fill="none" stroke="#000" stroke-linecap="round" stroke-linejoin="round" stroke-miterlimit="10" stroke-width=".5" d="M147.51172 453.64453l1.1875 2.14844m12.11328-1.73828l-6.99219-.71094m6.99219.71094l.92578 2.26953m12.29297-1.74219l-6.80078-1.76562m5.8125 1.5078l.28516 1.19532m14.125-2.0039l-7.01563.36718m7.01563-.36718l1.26562 2.10546m11.95313-2.76171l-6.82422 1.67968m6.82422-1.67968l1.63671 1.82812m-2.6289-1.58594l.8164.91797m13.3125-1.69531l-6.46875 2.75m6.46875-2.75l1.90625 1.54297m-2.84765-1.14453l.95312.77343m13.1836-1.42187l-6.22657 3.25m6.22657-3.25l2.02343 1.38672m-2.92968-.91406l1.01172.6914m12.65625-1.94531l-5.1211 4.8125m5.1211-4.8125l2.32421.78516m-3.0703-.08594l1.16405.39453m12.85938-1.13281l-5.04688 4.89062m5.04688-4.89062l2.33594.7539m10.91406-.82031l-4.91406 5.02344m4.91406-5.02344l2.35156.6914m11.23047-.39843l-5.44922 4.4375m5.44922-4.4375l2.26172.95312m11.07422-.92968l-5.49219 4.38672m5.49219-4.38672l2.2539.97656m-3.05078-.33594l1.125.48438m12.35547-1.73828l-4.22656 5.61718m4.22656-5.61719l2.42188.38282m-3.03907.4336l1.21485.1914m12.72656-1l-4.2461 5.60156m4.2461-5.60156l2.42187.39062m-3.03906.42578l1.21094.19532m13.46875-.23828l-5.74219 4.05078m5.74219-4.05078l2.1914 1.10937m11.16407-1.04687l-5.82422 3.92968m5.82422-3.92968l2.16797 1.14843m10.78515-1.60156l-5.09765 4.83594m4.35547-4.13281l1.16406.39062m10.60547-2.17969l-.51953 7.00782m.4414-5.98829l1.125-.49609m9.6211.40234l4.77343 5.15625m-4.07812-4.40625l.40234-1.16015m11.33985 1.6836l6.52734 2.60937m-6.52734-2.60938l-.26172-2.4414m13.40625 3.0039l6.86718 1.48047m-6.86718-1.48047l-.67188-2.35937m14.33985 4.79297l6.16015-3.38282m-5.26172 2.89063l-1.02734-.67188M436.5 457.1836l.86328-6.97265m-.73828 5.96093l-1.14453.4375m17.4961-5.125l-5.46095 4.42579m4.66407-3.78125l1.13281.48046m9.54297-2.35156l1.41015 6.88281"/><g clip-path="url(#N)"><path fill="none" stroke="#000" stroke-linecap="round" stroke-linejoin="round" stroke-miterlimit="10" stroke-width=".5" d="M147.5039 440.13672l-7.0078.4961"/></g><path fill="none" stroke="#000" stroke-linecap="round" stroke-linejoin="round" stroke-miterlimit="10" stroke-width=".5" d="M147.5039 440.13672l1.3047 2.07812m12.01952-1.80859l-7.02734-.04297m7.02734.04297l1.14063 2.17188m12.15625-1.84766l-6.99219-.69531m6.99219.6953L175.0586 443m12.39843-2.67578l-7.02344.11719m7.02344-.1172l1.1875 2.14845m-2.20703-2.12891l.59375 1.07422m13.70313-1.5664l-6.94532 1.0625m6.94531-1.0625l1.46485 1.96484m-2.47656-1.8086l.73437.98047m13.45703-1.69922l-6.67578 2.1914m6.67578-2.1914l1.76953 1.69922m11.28125-2.3086l-6.14843 3.40626m6.14843-3.40625l2.0547 1.33984m10.99218-1.75L234.39844 442.5m5.61328-4.23047l2.22266 1.03516m-3.03907-.42188l1.11328.51953m12.4375-1.73828l-4.45312 5.4375m4.45312-5.4375l2.40625.48438m10.64453-.67969l-3.92187 5.82812m3.35156-4.98046l1.21875.125m12.38281-1.14454l-3.35156 6.17579m2.86328-5.27735l1.22657.00781m13.58593-.08203l-5.375 4.52735m5.375-4.52735l2.27735.91407m10.33203-1.5547l-3.96094 5.8047m3.96094-5.8047l2.4375.26954m11.0664-.1289l-4.33984 5.52734m4.33984-5.52735l2.41407.4297m-3.04688.375l1.21094.21483m11.89844-1.5078l-2.66407 6.5m2.66407-6.5l2.4414-.2461m-2.82812 1.1914l1.22265-.12109m12.38282-.86328l-2.47266 6.57813m2.47266-6.57813l2.4336-.3164m11.83983.85937l-4.38671 5.49219m4.38671-5.4922l2.41016.45313m10.54688-.70312l-3.67188 5.99219m3.67188-5.9922l2.44921.15235m8.40235-.61328l1.2539 6.91406m-1.2539-6.91406l1.92578-1.51953m11.48437 1.5039l1.06641 6.94532m-1.0664-6.94531l1.96874-1.46485m11.39454 1.45703l.96875 6.96094m-.82813-5.94531l.99219-.72266m16.09765 2.4336l-6.86328 1.51171m6.86328-1.51171l1.59375 1.86718m10.07032-4.14062l-3.5586 6.0586m3.5586-6.0586l2.44922.10156m-2.96875.77734l2.45312.10547m12.34375-.15234l-5.48437 4.39453m4.6875-3.75781l1.125.48828m11.69921-2.1289l-2.90625 6.39843m2.90625-6.39844l2.44922-.15234"/><g clip-path="url(#O)"><path fill="none" stroke="#000" stroke-linecap="round" stroke-linejoin="round" stroke-miterlimit="10" stroke-width=".5" d="M147.42578 426.28125l-6.85156 1.57422"/></g><path fill="none" stroke="#000" stroke-linecap="round" stroke-linejoin="round" stroke-miterlimit="10" stroke-width=".5" d="M147.42578 426.28125l1.60547 1.85156m-2.60547-1.625l.80469.92969m13.59375-.57031l-7.01563.40234m7.01563-.40234l1.27344 2.09765m-2.29688-2.03906l.63672 1.04688m13.69531-1.16797l-7.00781.52734m7.00781-.52734l1.3125 2.07422m-2.33203-1.9961l1.3125 2.07422m12.94531-2.66797l-6.85156 1.5586m6.85156-1.5586l1.60547 1.85938m-2.60156-1.63281l.80078.92968m13.58203-.71875l-6.9961.6836m6.9961-.6836l1.35547 2.04688m11.97656-1.72266l-7.02734.03516m6.0039-.03125l.58204 1.08203m13.7539-.9375l-7.02343-.26172m6 .22266l.53515 1.10547m13.4961-2.63672L234 428.5078m6.41016-2.8789l1.9375 1.5078m10.64453-2.5625l-4.94531 4.9922m4.9453-4.9922l2.35157.70313m10.8789-.78515l-4.77343 5.15234m4.07812-4.40234l1.1875.3125m13.22657-.6211l-5.58203 4.26954m4.76953-3.64844l1.11718.50781m12.65235-1.53125l-4.86328 5.07422m4.15234-4.33594l1.1836.33203m12.57812-1.29687l-4.33985 5.52734m4.33985-5.52734l2.41797.4336m10.34375-.78907l-3.23047 6.23828m3.23047-6.23828l2.45312-.02734m11.03906.125l-3.58203 6.04296m3.58204-6.04296l2.44921.11328m11.22266.1289l-4.29688 5.5586m4.29688-5.5586l2.41797.41016m12.25781 2.53516l-7.01953-.33204m7.01953.33204l1.04688 2.21875m-2.06641-2.26563l.52344 1.10938m13.47656-2.73438l-6.35156 3.01172m6.35156-3.01172l1.96875 1.46484M372.60547 426l.98437.73438m13.0625-1.52735l-5.96093 3.72266m5.96093-3.72266l2.125 1.23047m11.63282-.15234l-6.84766 1.5664m6.84766-1.5664l1.60546 1.85547m-2.60156-1.625l.80469.92578m13.51172-1.14453l-6.85547 1.54687m6.85547-1.54687l1.59765 1.85937m-2.59765-1.63672l.80078.92969m12.0625-3.28516l-3.95313 5.8086m3.95313-5.8086l2.4375.26563m-3.01172.57812l2.4375.26953m10.57813-1.54296l-2.20704 6.66796m2.20704-6.66796l2.41796-.41407m-2.73828 1.38282l2.41797-.41407m-2.73828 1.38672l1.20703-.20703m14.48828-.46484l-5.6875 4.1289m5.6875-4.1289l2.20313 1.07422m-3.03125-.47266l2.20703 1.07422m12.46875-.58203l-6.7539 1.9414"/><g clip-path="url(#P)"><path fill="none" stroke="#000" stroke-linecap="round" stroke-linejoin="round" stroke-miterlimit="10" stroke-width=".5" d="M466.9375 426.09766l1.70703 1.76562"/></g><path fill="none" stroke="#000" stroke-linecap="round" stroke-linejoin="round" stroke-miterlimit="10" stroke-width=".5" d="M465.95703 426.38281l1.70313 1.76172"/><g clip-path="url(#Q)"><path fill="none" stroke="#000" stroke-linecap="round" stroke-linejoin="round" stroke-miterlimit="10" stroke-width=".5" d="M147.38672 412.8164l-6.77344 1.8711"/></g><path fill="none" stroke="#000" stroke-linecap="round" stroke-linejoin="round" stroke-miterlimit="10" stroke-width=".5" d="M147.38672 412.8164l1.6875 1.78516m-2.67188-1.51172l.84375.89063m13.57813-.3711l-7.01953.28907m7.01953-.28906l1.24219 2.11718m-2.26172-2.07422l.6211 1.0586m13.6953-1.34375l-6.98437.76953m6.98437-.76953l1.38282 2.02734m-2.39844-1.91406l.6914 1.01562m13.52344-1.71875l-6.75 1.95313m6.75-1.95313l1.70703 1.76172m11.125-2.78125L194.3672 415.75m5.78515-3.99219l2.1797 1.1289m11.2578-.9414l-6.02734 3.61719m6.02734-3.61719l2.10157 1.26563m10.97265-1.61328l-5.54687 4.3125m5.54687-4.3125l2.23828 1.0039m11.09375-.98437l-5.57812 4.27344m5.57812-4.27344l2.23047 1.01953m11.20313-.85156l-5.82031 3.9375m5.8203-3.9375l2.16798 1.14453m11.58203-.25l-6.6914 2.14453m6.6914-2.14453l1.76172 1.71094m11.39453-2.1211l-6.3711 2.96485m6.3711-2.96485l1.95703 1.48047m10.23828-2.83984l-4.13281 5.68359m4.13281-5.6836l2.42969.34376m9.32031-.97657l-1 6.95313m.85547-5.9414l1.15234-.41798m14.86719 1.15235l-6.11719 3.46094m6.11719-3.46094l2.0664 1.32031m10.85548-1.8789l-5.33204 4.57812m4.5547-3.91016l1.14452.44532m13.73438.52734l-6.90625 1.29687m6.90625-1.29687l1.53125 1.91406m11.58203.0625l-6.5039-2.66015m6.5039 2.66015l.2461 2.4414m-1.19141-2.82812l.24609 2.4414m14.26172-3.07421l-7-.61719m7 .61719l.95703 2.25781m-1.97656-2.34765l.48047 1.1289m13.85937-1.625l-7.00781.55078m7.00781-.55078l1.3164 2.07032m-2.33593-1.98829l.65625 1.03516m13.66016-1.27734l-6.97266.87109m6.97266-.8711l1.41015 2.00782m-2.42578-1.8789l.70703 1.0039m13.53125-1.61328l-6.78515 1.83203m6.78515-1.83203l1.67578 1.79297m-2.66406-1.52344l1.67578 1.78906m11.75782-3.58594l-5.04688 4.89063m5.04688-4.89063l2.33593.75391m-3.07031-.04297l1.16797.3789m12.63672-1.3203l-4.5586 5.34765m4.5586-5.34765l2.39453.53125m-3.0586.25l1.19922.26171m13.66797.11329l-6.33593 3.03906m6.33593-3.03906l1.97657 1.45703m-2.89844-1.01563l1.97656 1.45703m12.3164-1.77734l-6.44921 2.79297"/><g clip-path="url(#R)"><path fill="none" stroke="#000" stroke-linecap="round" stroke-linejoin="round" stroke-miterlimit="10" stroke-width=".5" d="M466.78516 412.35547l1.91796 1.53125"/></g><path fill="none" stroke="#000" stroke-linecap="round" stroke-linejoin="round" stroke-miterlimit="10" stroke-width=".5" d="M465.84766 412.76172l.95703.76562"/><g clip-path="url(#S)"><path fill="none" stroke="#000" stroke-linecap="round" stroke-linejoin="round" stroke-miterlimit="10" stroke-width=".5" d="M147.30469 399.24219l-6.60938 2.39453"/></g><path fill="none" stroke="#000" stroke-linecap="round" stroke-linejoin="round" stroke-miterlimit="10" stroke-width=".5" d="M147.30469 399.24219l1.82031 1.64453m-2.78125-1.29688l.91016.82032m13.28906-1.36329l-6.45313 2.78125m6.45313-2.78125l1.91406 1.53516m-2.85547-1.1289l.95703.76562m12.79297-2l-5.44531 4.4414m5.44531-4.4414l2.26172.94922m-3.05078-.30469l1.1289.47656m12.75391-1.37109l-5 4.9375m5-4.9375l2.33985.73047m-3.06641-.01172l1.16797.36719m13.66016.14453l-6.57422 2.48047m6.57422-2.48047l1.84375 1.61719m-2.80079-1.25782l.92188.8086m13.41016-1.0039l-6.69141 2.15233m6.6914-2.15234l1.75782 1.70703m-2.73438-1.39453l1.76172 1.71094m12.2461-2.67188l-6.125 3.44922m6.125-3.44922l2.0664 1.32032m-2.95703-.82032l1.03125.66016m13.13672-1.22266l-6.05078 3.57032m6.05078-3.57032l2.09375 1.28125m-2.97266-.76171l1.04688.64062m13.39453-.64844l-6.54688 2.55078m6.54688-2.55078l1.85937 1.59766m11.69532-.42969l-7.02344.21094m6-.17969l.60937 1.0664m12.875 1.3047l-5.3164-4.59375m4.54297 3.92578l-.27344 1.19921m15.15625-3.48437l-6.90234 1.3164m5.89843-1.125l.76563.95704m13.48828.44922L300.39453 399.5m5.78516 1.60547l.26562 1.19531m11.35547 1.57813l-1.41015-6.88282M333.5 398.76563l-6.17969 3.34765m5.28125-2.86328l1.02344.67969m13.53906-.20703l-6.8789 1.42968m6.8789-1.42968l1.57032 1.88671m10.03515 1.88672l-3.45703-6.11718m3.45703 6.11718l-1.32031 2.07032m.8164-2.95704l-.66015 1.03125m13.8711.12891l-2.23829-6.66015m2.23828 6.66015l-1.6875 1.78125m17.375-5.5039l-6.98437.78125m6.98437-.78125l1.38282 2.02734m11.92968-1.22656l-6.98047-.82032m6.98047.82032l.89063 2.28906m-1.90625-2.40625l.44531 1.14062m13.63672-.07812l-6.48438-2.70703m6.48438 2.70703l.23047 2.4414m13.35547-3.77734l-7.02735-.03515m7.02735.03515l1.14062 2.17188m12.10156-2.91016l-6.8789 1.4375m6.8789-1.4375l1.57032 1.88672m11.77734-1.69531l-6.94531 1.05468m6.94531-1.05468l1.46484 1.96875m-2.47265-1.8125l.73047.98437m13.36718-1.95312l-6.49609 2.68359"/><g clip-path="url(#T)"><path fill="none" stroke="#000" stroke-linecap="round" stroke-linejoin="round" stroke-miterlimit="10" stroke-width=".5" d="M466.8086 399.09766l1.89062 1.5625"/></g><path fill="none" stroke="#000" stroke-linecap="round" stroke-linejoin="round" stroke-miterlimit="10" stroke-width=".5" d="M465.86328 399.48828l.94531.78125"/><g clip-path="url(#U)"><path fill="none" stroke="#000" stroke-linecap="round" stroke-linejoin="round" stroke-miterlimit="10" stroke-width=".5" d="M147.01953 385.32813l-6.03906 3.58984"/></g><path fill="none" stroke="#000" stroke-linecap="round" stroke-linejoin="round" stroke-miterlimit="10" stroke-width=".5" d="M147.01953 385.32813l2.09766 1.27343m-2.97656-.75l2.09765 1.27344m-2.97656-.7539l1.05078.63671m14.38672-.82812l-6.76953 1.88672m6.76953-1.88672l1.6914 1.77734m-2.67578-1.5039l1.69141 1.77734m12.64063-1.9336l-6.83204 1.65235m6.83203-1.65235l1.62891 1.83594m-2.625-1.59375l1.6289 1.83203m-2.62109-1.59375l.8125.91797m14.4961-1.3711l-6.84375 1.59767m6.84375-1.59766l1.61328 1.85156m-2.60938-1.61719l1.61328 1.84766m-2.60937-1.61719l.8086.92578m14.58984-.6328l-7.02735.08202m7.02735-.08203l1.17578 2.15625m-2.19922-2.14453l1.17578 2.15625m12.92188-3.41016l-6.54297 2.56641m6.54297-2.5664l1.86328 1.59765m-2.8164-1.22266l1.86327 1.59375m12.16797-2.45703l-6.07031 3.54297m6.07031-3.54297l2.08594 1.29297m11.04687-1.57031l-5.70703 4.09765m5.70703-4.09765l2.19922 1.08984m11.1836-.9961l-5.83985 3.91017m5.83985-3.91016l2.16015 1.16015m11.3164-.88671l-6.16796 3.36718m5.27344-2.8789l1.02344.67578m13.5625-.10156l-6.91797 1.23828m5.91015-1.0586l.75782.96875m11.8203 2.53907l-3.42577-6.13672m2.92578 5.24219l-.66406 1.03125m15.74218-1.33594l-5.95312-3.73828m5.08594 3.1953l-.08985 1.22267m14.64844-1.50391l-6.70703-2.08985m5.73047 1.78516l.23047 1.20703m12.46093 1.09766l-3.5039-6.08985m12.89453 5.8086l4.33984-5.52735m13.78125 5.08985l-5.26953-4.65235m4.5039 3.97657l-.28906 1.1914m15.19141-2.20312l-6.91016-1.27735m6.91016 1.27735l.73438 2.34375M387 385.99609l-6.65625 2.25391M387 385.9961l1.78516 1.68359m11.61718.27344l-6.83203-1.65625m5.83594 1.41406l.30469 1.1875m14.05078-1.17188l-6.92188-1.20703m6.92188 1.20703l.76562 2.33203m12.16797-4.6289l-6.15625 3.38672m6.15625-3.38672l2.05469 1.34375m11.6875.57422l-7.01172-.44922m7.01172.44922l1.01172 2.23828m-2.03125-2.30469l.5039 1.1211m13.76954-.58985l-6.89063-1.3789m6.89063 1.3789l.70703 2.35156m-1.71094-2.55078l.35547 1.17188m14.02734-1.47657l-7.01562-.37109"/><g clip-path="url(#V)"><path fill="none" stroke="#000" stroke-linecap="round" stroke-linejoin="round" stroke-miterlimit="10" stroke-width=".5" d="M467.07031 387.3086l1.03516 2.22656"/></g><path fill="none" stroke="#000" stroke-linecap="round" stroke-linejoin="round" stroke-miterlimit="10" stroke-width=".5" d="M466.05078 387.2539l.51563 1.11329"/><g clip-path="url(#W)"><path fill="none" stroke="#000" stroke-linecap="round" stroke-linejoin="round" stroke-miterlimit="10" stroke-width=".5" d="M147.39063 372.89063l-6.78125 1.83593"/></g><path fill="none" stroke="#000" stroke-linecap="round" stroke-linejoin="round" stroke-miterlimit="10" stroke-width=".5" d="M147.39063 372.89063l1.67968 1.78906m-2.66406-1.52344l1.67578 1.79297m-2.66406-1.52344l.83984.89453m14.51172-1.14844l-6.91016 1.27344m6.91016-1.27344l1.52734 1.91797m-2.53125-1.73437l1.52344 1.92187m12.78125-2.1914l-6.8789 1.4414m6.8789-1.4414l1.57031 1.88672m-2.57421-1.67579l1.57422 1.88282m12.70703-2.25l-6.8047 1.75781m6.8047-1.75781l1.65625 1.8125m-2.64453-1.55469l1.65625 1.8086m12.47656-2.56641l-6.46485 2.75781m6.46485-2.75781l1.91015 1.54297m-2.85156-1.14063l1.91016 1.53906m12.10156-2.41406l-5.97266 3.70313m5.97266-3.70313l2.1211 1.23047m-2.9922-.6914l1.0625.61327m12.08204-2.22656l-3.89063 5.85156m3.89063-5.85156l2.4414.23828m11.64844.46485l-5.4414 4.44531m5.4414-4.44531l2.26172.94922m11.1836-.78125l-5.69923 4.10937m5.69922-4.10937l2.19922 1.08203m11.34375-.71875L260.75391 375.5m5.26562-2.89063l1.02735.67188m13.36328-.78125l-6.51953 2.61719m5.5703-2.23828l.94141.79296m13.56641.41016l-7.0039-.55078m5.98437.47266l.48828 1.125m13.82422-.84766l-6.96094-.94922m6.96094.94922l.84765 2.30469m12.47266-2.34766l-6.97266-.85937m6.97266.85937l.8789 2.29297m12.40235-2.07031l-6.90625-1.3086m5.90234 1.1211l.36329 1.17187m13.80859-.4414l-6.60938-2.39063m5.64844 2.04297l.17188 1.21484m14.07422-.79296l-6.55079-2.53907m6.55079 2.53906l.28906 2.4375m13.16015-2.85937l-6.8203-1.69531m6.8203 1.69531l.59766 2.3789m12.80469-2.8789l-6.99219-.69531m6.99219.69531l.9336 2.26953m12.15234-1.33203l-6.53516-2.57422m6.53516 2.57422l.28125 2.4414m13.04296-2.45702l-6.55078-2.54297m5.59766 2.17578l.14453 1.21875m14.25-2.99219l-6.8086 1.73828m5.82032-1.48437l.82422.90625m13.57812-.00782l-7.0039-.5625m5.98437.48047l.48828 1.125m13.63672-.10156l-6.58594-2.44531m6.58594 2.44531l.32813 2.42969m13.03906-2.57422l-6.6875-2.15625m6.6875 2.15625l.42969 2.41406"/><g clip-path="url(#X)"><path fill="none" stroke="#000" stroke-linecap="round" stroke-linejoin="round" stroke-miterlimit="10" stroke-width=".5" d="M147.45313 359.84766l-6.90625 1.28906"/></g><path fill="none" stroke="#000" stroke-linecap="round" stroke-linejoin="round" stroke-miterlimit="10" stroke-width=".5" d="M147.45313 359.84766l1.53125 1.91796m-2.53516-1.73046l1.53125 1.91796m12.8086-1.99609l-6.94532 1.07031m6.94531-1.0703l1.46485 1.96874m-2.47657-1.8125l.73438.98438m13.60547-1.03907l-6.97266.8672m6.97266-.8672l1.41015 2.00782m-2.42578-1.87891l.70703 1.0039m13.40235-1.99218l-6.53125 2.58594m6.53125-2.58594l1.8711 1.58984m-2.82032-1.21484l.9336.79687m13.27734-1.29687l-6.42578 2.83984m6.42578-2.83984l1.92968 1.51172m-2.86328-1.10156l.96485.7578m12.8164-1.9453l-5.48828 4.39062m5.48828-4.39063l2.25.97266m-3.05078-.33203l1.1289.48438m12.78516-1.35547l-5.08593 4.85156m5.08593-4.85156l2.32813.77343m11.61328.13672l-6.33984 3.03516m5.41797-2.59375l.98828.72656m13.40234-.78515l-6.64844 2.26953m6.64844-2.26954l1.79297 1.67579m11.41406-1.95704l-6.42969 2.83204m6.4297-2.83204l1.92968 1.51954m11.63281-.71094l-6.92187 1.21484m6.92187-1.21484l1.50781 1.9336m11.85547-1.25l-7.02343-.15626m7.02343.15625l1.10547 2.1914m12.19922-1.97655l-7-.58204m7 .58204l.96875 2.2539m-1.98828-2.33984l.48437 1.1289m13.86329-1.4375l-7.02735.20704m7.02735-.20704l1.21484 2.13282m-2.23828-2.10156l.60937 1.0625m13.71094-1.34375l-6.99219.70703m6.99219-.70704l1.36328 2.03907m11.95703-1.98438l-7 .59766m5.98047-.51172l.66797 1.03125m13.60547-1.54297l-6.8789 1.44531m5.8789-1.23437l.78516.9414m13.5-1.27343l-6.82032 1.6875m5.82813-1.4414l.82031.91405m13.53516-.9453l-6.91407 1.26171m6.91407-1.26172l1.51953 1.92578m11.63672-2.50781l-6.59766 2.42578m6.59766-2.42578l1.82812 1.63281m11.67969-.82031l-6.98047.80078m5.96484-.6836l.69532 1.00782m13.27734-2.3164l-6.26562 3.17968m19.04687-3.95312l-5.19922 4.72656m4.44531-4.03906l1.15235.41796m13.82031 1l-7.00781.51563m5.98828-.4375l.65234 1.03516m13.34766.66015l-6.33984-3.02734m5.41796 2.58594l.0547 1.22656"/><g clip-path="url(#Y)"><path fill="none" stroke="#000" stroke-linecap="round" stroke-linejoin="round" stroke-miterlimit="10" stroke-width=".5" d="M147.49219 346.80078l-6.98438.7539"/></g><path fill="none" stroke="#000" stroke-linecap="round" stroke-linejoin="round" stroke-miterlimit="10" stroke-width=".5" d="M147.49219 346.80078l1.3789 2.03125m-2.39453-1.92187l.6875 1.01562m13.66016-.89453l-7.01953.29297m7.01953-.29297l1.24219 2.11719m-2.26172-2.07422l.6211 1.0586m13.59765-1.8672l-6.78516 1.82422m6.78516-1.82421l1.67578 1.79296m-2.66406-1.52734l.83984.89453m13.38281-1.42187l-6.625 2.34765m6.625-2.34765l1.8086 1.66015m-2.77344-1.3164l.90625.82812m12.89062-2.07812l-5.66015 4.16015m5.66015-4.16015l2.21094 1.0625m-3.03516-.45704l1.10547.53125m12.89063-1.3203l-5.375 4.52734m5.375-4.52735l2.27734.91406m-3.0586-.2539l2.27735.91406m11.79297-1.60547l-5.32031 4.58985m5.32031-4.58985l2.28516.88672m-3.0586-.21875l1.14453.4414m13.76563.73048l-6.96484.91015m6.96484-.91015l1.42578 2m11.86719-2.15235l-6.92188 1.21485m6.92188-1.21485l1.51172 1.9336m11.83203-1.73829l-6.97656.82422m6.97656-.82421l1.39844 2.01562m11.9414-1.48828l-7.02344-.23047m7.02344.23047l1.07813 2.20312m12.09765-1.34375l-6.75-1.94921m6.75 1.94921l.50782 2.40235m12.91796-2.91406l-6.96875-.92188m6.96875.92188l.85547 2.29687m12.48828-2.8711l-7.02343.22266m7.02343-.22265l1.21875 2.1289m11.91797-3.1289l-6.66797 2.22265m6.66797-2.22265l1.77735 1.6914m11.45703-1.90234L340.47266 348.5m6.5078-2.64453l1.88282 1.57422m11.2461-1.96485l-6.13672 3.42579m6.13671-3.42579l2.0625 1.32813m11.14063-1.51172l-5.91406 3.79688m5.91406-3.79688l2.14062 1.19922m11.71875.39844l-7 .59765m7-.59765l1.33204 2.05859m11.95312-2.30469l-6.9414 1.08985m6.9414-1.08985l1.47656 1.96094m11.57422-2.84766l-6.41406 2.8672m6.41406-2.8672l1.9375 1.50782m11.3164-1.64063l-6.29296 3.1289m6.29297-3.1289l1.9961 1.42969m10.64062-2.36328l-4.9375 5m4.22265-4.27344l1.17578.35156m13.3047-.53906l-5.83204 3.91797m4.98047-3.34766l1.08594.57813m13.65625.4336l-6.98438.7539m5.96875-.64453l.6875 1.01562"/><g clip-path="url(#Z)"><path fill="none" stroke="#000" stroke-linecap="round" stroke-linejoin="round" stroke-miterlimit="10" stroke-width=".5" d="M147.5 333.54688l-7 .6328"/></g><path fill="none" stroke="#000" stroke-linecap="round" stroke-linejoin="round" stroke-miterlimit="10" stroke-width=".5" d="M147.5 333.54688l1.34375 2.05078m11.98438-1.6875l-7.02735-.09375m7.02734.09375l1.125 2.17968m12.1875-2.34765l-7.02343.24219m7.02344-.2422l1.22656 2.125m-2.2461-2.08984l.61328 1.0625m13.3711-2.51562l-6.32031 3.07812m6.3203-3.07812l1.98438 1.4414m10.60547-2.4375l-4.8711 5.07032m4.8711-5.07031L202.0547 332m11.15234-.46484l-5.26172 4.65625m5.26172-4.65625l2.29688.85937m-3.0625-.1836l1.14843.4297m13.02344-1l-5.44531 4.4453m5.44531-4.4453l2.26172.94921m-3.05469-.30468l2.26172.94921m12.1289-1.1914l-6.01171 3.64062m6.01172-3.64062l2.10547 1.2539m11.71875.51172l-7.02735.10938m6.0039-.09375l.59376 1.07422m13.72656-1.3711l-6.99219.66797m5.97657-.57031l.67578 1.02344m13.66015-.50781l-7.0039-.5547m5.98437.47266l.48828 1.125m13.83985-.96093l-6.99219-.71875m5.97656.61328l.46094 1.13672m13.875-1.6836l-7 .58594m5.98047-.5039l.66797 1.03124m13.48437.33985l-6.63672-2.32031m5.67188 1.98046l.1836 1.21485m14.17187-2.94922l-6.78516 1.82812m6.78516-1.82812l1.67578 1.78906m11.30469-2.60547l-6.1172 3.46094m6.1172-3.46094l2.0703 1.32031m9.625-2.79687l-2.8789 6.41406m2.46094-5.48047l1.22266-.08203m10.7578-1.14453l.62892 7m-.53907-5.98047l1.02735-.67187m15.97656 3.72265l-6.9336-1.14062m5.92579.97265l.39453 1.16407m13.80469-.48047l-6.6836-2.17188m5.71094 1.85547l.21484 1.20703m14.23047-1.66015l-7-.63281m7 .6328l.95313 2.26173m12.24218-3.54297l-6.7578 1.92969m6.7578-1.9297l1.70313 1.76563m-2.6875-1.48437l.85156.88281m13.07031-2.02734l-6.0039 3.65625m6.0039-3.65625l2.10938 1.25m-2.98438-.71875l1.0547.625m13.53515-.21094l-6.80469 1.76562m6.80469-1.76562l1.65625 1.8086m11.76172-1.19141l-7.00782.52734"/><g clip-path="url(#aa)"><path fill="none" stroke="#000" stroke-linecap="round" stroke-linejoin="round" stroke-miterlimit="10" stroke-width=".5" d="M467.0664 333.59766l1.3086 2.07421"/></g><g clip-path="url(#ab)"><path fill="none" stroke="#000" stroke-linecap="round" stroke-linejoin="round" stroke-miterlimit="10" stroke-width=".5" d="M147.27734 319.28125l-6.55468 2.53516"/></g><path fill="none" stroke="#000" stroke-linecap="round" stroke-linejoin="round" stroke-miterlimit="10" stroke-width=".5" d="M147.27734 319.28125l1.85547 1.60547m-2.8086-1.23828l.92579.80469m13.40625-.9961l-6.67969 2.17969m6.67969-2.17969l1.76563 1.70313m10.91015-2.85547l-5.40625 4.48828m4.6211-3.83594l1.13671.46485m11.9375-1.96094l-3.35156 6.17578m2.86328-5.27735l1.22656.01172m13-.64062l-4.1953 5.63672m3.58202-4.8164l1.21485.18358m13.08594-.68359l-4.94532 4.99219m4.94531-4.99219l2.35157.70703m10.85937-.80469l-4.73828 5.19141m4.73828-5.1914l2.3789.60937m10.875-.66406l-4.61327 5.30078m4.61328-5.30078l2.39062.55469m12.08594 2.65625l-6.9375-1.1211m5.92969.95703l.39453 1.16016m13.66406-.11328l-6.40625-2.88672m5.47266 2.46484l.08203 1.22266m13.54297.14062l-5.16016-4.77343m4.41016 4.07812l-.3164 1.1875M293.5 322.31641l-6.07031-3.53907m5.1875 3.02344l-.04688 1.22656m13.02344.53125l-3.625-6.01953m3.09766 5.14063l-.62891 1.05469m15.83594-1.6875l-6.35547-3m5.42969 2.5625l.05859 1.22656m14.2461-3.64063l-6.48438 2.70313m5.54297-2.3086l.94922.77735m12.25-2.57422l-4.3672 5.50781m3.73048-4.70703l1.20703.22266m10.53125-1.78125l.0586 7.02734m-.05079-6.0039l1.07813-.58594m12.2578 6.58984v-7.02734m16.65626 2.42187l-6.67969 2.17969m19.2461-3.46094l-5.1836 4.74219m15.90625-5.88281v7.02734m14.39453-.17188l-2.15625-6.6875m16.73438.72657l-4.6836 5.23437m4.00391-4.47265l1.1914.29296m13.62891.04297l-6.33594 3.04297m6.33594-3.04297l1.97656 1.45313m11.3711-1.38281l-6.40235 2.89843"/><g clip-path="url(#ac)"><path fill="none" stroke="#000" stroke-linecap="round" stroke-linejoin="round" stroke-miterlimit="10" stroke-width=".5" d="M466.76172 319.09766l1.94531 1.5"/></g><path fill="none" stroke="#000" stroke-linecap="round" stroke-linejoin="round" stroke-miterlimit="10" stroke-width=".5" d="M465.83203 319.51953l.96875.75"/><path fill="#ff3030" fill-rule="evenodd" d="M242.46875 454.33203h7.6914V444.1875h-7.6914v10.14453"/><path fill="azure" fill-rule="evenodd" d="M244.30078 446.01953h.83203v5.73828h3.19531V452.5h-4.02734v-6.48047"/><path fill="#ff3030" fill-rule="evenodd" d="M309.04297 449.89453h7.6914V439.75h-7.6914v10.14453"/><path fill="azure" fill-rule="evenodd" d="M310.875 441.58203h.83203v5.73828h3.19531v.74219H310.875v-6.48047"/><path fill="#ff3030" fill-rule="evenodd" d="M171.45313 436.57813h7.6914v-10.14454h-7.6914v10.14454"/><path fill="azure" fill-rule="evenodd" d="M173.28516 428.26563h.83593v5.74218h3.19141v.73828h-4.02734v-6.48046"/><path fill="#00f" fill-rule="evenodd" d="M383.80078 436.57813h8.61719v-10.14454h-8.61719v10.14454"/><path fill="azure" fill-rule="evenodd" d="M385.63281 428.26563h.83203v2.82421h3.28907v-2.82421h.83203v6.48046h-.83203v-2.91406h-3.28907v2.91406h-.83203v-6.48046"/><path fill="#ff3030" fill-rule="evenodd" d="M255.78125 405.51172h7.69531v-10.14453h-7.69531v10.14453"/><path fill="azure" fill-rule="evenodd" d="M257.61719 397.19922h.83203v5.73828h3.1914v.74219h-4.02343v-6.48047"/><path fill="#ff3030" fill-rule="evenodd" d="M437.7539 401.07422h7.69532v-10.14844h-7.69531v10.14844"/><path fill="azure" fill-rule="evenodd" d="M439.58594 392.76172h.83594V398.5h3.1914v.73828h-4.02734v-6.47656"/><path fill="#ff3030" fill-rule="evenodd" d="M167.01563 396.63281h7.6914v-10.14453h-7.6914v10.14453"/><path fill="azure" fill-rule="evenodd" d="M168.84766 388.32031h.83203v5.74219h3.19531v.73828h-4.02734v-6.48047"/><path fill="#ffffe0" fill-rule="evenodd" d="M373.48828 472.3164h22.17969V462.125h-22.17969v10.1914"/><path fill-rule="evenodd" d="M376.98828 463.95703h.50781v6.29688h-.78906v-4.48829h-1.38672v-.55859l.5586-.0625.2539-.05469.23047-.08984.20313-.14063.17187-.21093.14063-.29297.10937-.39844m4.8125 0l.23047.01953.21875.0586.20703.08593.19531.1211.1836.15234.17187.17578.30078.41797.2461.49219.17969.54687.10937.58204.03906.58984-.03906.59375-.10938.58203-.17968.55469-.2461.5039-.30078.42579-.17187.17968-.1836.15235-.1953.125-.20704.09375-.21875.05468-.23047.01954-.23047-.01954-.21875-.05468-.20703-.09375-.19531-.125-.1875-.15235-.16797-.17969-.30469-.42578-.24219-.5039-.17968-.55469-.11328-.58203-.03516-.59375h.83203l.02735.5625.08203.50781.1289.4414.16016.375.1914.30079.21094.21875.22266.13672.22656.04687.22656-.04687.22266-.13672.21094-.21875.1914-.30078.16016-.375.125-.4414.08203-.50782.03125-.5625-.03125-.5625-.08203-.5-.125-.4336-.16016-.36718-.1914-.29297-.21094-.21485-.22266-.1289-.22656-.04688-.22656.04688-.22266.1289-.21094.21485-.1914.29297-.16016.36719-.1289.43359-.08204.5-.02734.5625h-.83203l.03516-.58985.11328-.58203.17969-.54687.24218-.49219.30469-.41797.16797-.17578.1875-.15234.19531-.1211.20703-.08593.21875-.0586.23047-.01953m5.08985 0h.51171v6.29688h-.78906v-4.48829h-1.38672v-.55859l.5586-.0625.2539-.05469.22656-.08984.20313-.14063.17578-.21093.14063-.29297.10546-.39844m2.82422 2.17578h.78907l.01953-.3164.0586-.28516.09765-.2539.14062-.21485.17969-.17188.22266-.1289.26562-.08203.3086-.02735.23828.02344.22265.0625.20703.10156.1797.13672.14843.17188.11328.20703.07031.23828.02344.26172-.01953.26953-.0664.22656-.10938.1914-.15625.16798-.19922.16406-.25.16797-.63281.38672-.53516.3125-.4414.3164-.34376.32422-.26562.33594-.1875.35156-.125.3711-.07031.39453-.01954.41797h4.21094v-.7422h-3.33203l.08203-.28124.11328-.23828.14844-.20313.1875-.17969.23047-.17187.27734-.17578.71875-.41406.41407-.20704.34765-.23046.28125-.25.21875-.26954.16406-.27734.10938-.28125.0625-.28515.02344-.28125-.04297-.38672-.1211-.34766-.1875-.30469-.25-.26562-.30468-.21094-.34375-.16016-.38281-.09765-.40625-.03516-.4336.03516-.39844.09765-.35546.16797-.3047.23438-.24609.30469-.1875.37109-.11718.44922-.03907.51562"/><path fill="#ffffe0" fill-rule="evenodd" d="M332.86719 411.21484h22.17969v-10.1914h-22.1797v10.1914"/><path fill-rule="evenodd" d="M336.36719 402.85547h.50781v6.29297h-.78516v-4.48828h-1.39062v-.5547l.5625-.0664.25-.05469.23047-.08593.20312-.14453.17578-.20704.14063-.29687.10547-.39453m4.8125 0l.23047.01953.21875.05469.20703.08984.19531.1211.1875.14843.16797.17578.30469.42188.24218.49219.1797.54687.11327.57813.03516.58984-.03516.59375-.11328.58594-.17969.55469-.24218.5-.3047.42968-.16796.17969-.1875.15234-.19531.125-.20703.08985-.21875.0586-.23047.01952-.23047-.01953-.21875-.0586-.20703-.08984-.19531-.125-.1836-.15234-.17187-.17969-.30079-.42969-.24609-.5-.17969-.55468-.10937-.58594-.03906-.59375h.83203l.03125.5664.08203.50391.125.4414.16015.375.19141.30079.21094.22266.22265.13671.22657.04688.22656-.04688.22266-.13671.21093-.22266.19141-.30078.16016-.375.1289-.4414.08203-.50391.02735-.56641-.02735-.5586-.08203-.5-.1289-.4375-.16016-.36718-.1914-.28906-.21094-.21485-.22266-.13281-.22656-.04297-.22656.04297-.22266.13281-.21094.21485-.1914.28906-.16016.36719-.125.4375-.08203.5-.03125.55859h-.83203l.03906-.58984.10937-.57813.1797-.54687.24608-.4922.30079-.42187.17187-.17578.1836-.14844.1953-.12109.20704-.08984.21875-.05469.23047-.01953m5.09375 0h.50781v6.29297h-.78906v-4.48828h-1.38672v-.5547l.5586-.0664.2539-.05469.23047-.08593.20312-.14453.17188-.20704.14062-.29687.10938-.39453m2.82031 2.17578h.78906l.01953-.3164.0586-.28516.09765-.2539.14063-.21485.1836-.17578.22265-.12891.26562-.07813.3086-.02734.23437.01953.22656.0625.20313.10156.17969.14063.14844.17188.11328.20703.0703.23437.02735.26563-.02344.26953-.0664.22265-.10938.19141-.15625.17188-.19921.16406-.2461.16406-.63672.39063-.53515.3125-.4375.3164-.34766.32422-.26172.33594-.1914.35156-.125.3711-.07032.39062-.01953.41797h4.21094v-.73828h-3.33203l.08203-.28516.11328-.23438.14844-.20312.1875-.17969.23047-.17187.28125-.17578.71484-.41797.41797-.20313.34375-.23047.28125-.2539.21875-.26563.16406-.27734.10938-.28516.0664-.28515.01953-.28125-.04296-.38282-.1211-.34765-.1875-.3086-.25-.26171-.30078-.21485-.34766-.15625-.3789-.09765-.40625-.03516-.4375.03125-.39844.10156-.35547.16406-.30469.23438-.24609.30469-.1875.375-.11328.4453-.04297.51954"/><path fill="#ffffe0" fill-rule="evenodd" d="M204.03125 401.30469h22.17969v-10.1914h-22.17969v10.1914"/><path fill-rule="evenodd" d="M207.52734 392.94531h.51172v6.29297H207.25V394.75h-1.38672v-.55469l.5586-.0664.2539-.0547.22656-.08593.20703-.14453.17188-.20703.14063-.29688.10546-.39453m4.81641 0l.22656.01953.21875.0547.21094.08983.19531.1211.1836.14844.17187.17578.30078.42187.2461.49219.17968.54688.10938.57812.03906.58984-.03906.59375-.10938.58594-.17968.55469-.2461.5-.30078.42969-.17187.17968-.1836.15235-.19531.125-.21094.08984-.21875.0586-.22656.01953-.23047-.01954-.21875-.05859-.20703-.08984-.19922-.125-.1836-.15235-.17187-.17968-.30078-.4297-.24219-.5-.17968-.55468-.11328-.58594-.03516-.59375h.83203l.02734.56641.08203.5039.125.44141.16407.375.1914.30078.21094.22266.22266.13672.22656.04687.22656-.04687.22266-.13672.21094-.22266.1875-.30078.16406-.375.125-.4414.08203-.50391.03125-.5664-.03125-.5586-.08203-.5-.125-.4375-.16406-.36719-.1875-.28906-.21094-.21484-.22266-.13282-.22656-.04296-.22656.04296-.22266.13282-.21094.21484-.1914.28906-.16406.36719-.125.4375-.08204.5-.02734.5586h-.83203l.03516-.58985.11328-.57813.17968-.54687.2422-.49219.30077-.42187.17188-.17578.1836-.14844.19921-.1211.20703-.08984.21875-.05469.23047-.01953m5.08984 0h.50782v6.29297h-.78516V394.75h-1.38672v-.55469l.5586-.0664.25-.0547.23046-.08593.20313-.14453.17578-.20703.14063-.29688.10546-.39453m2.82422 2.17578h.78516l.01953-.3164.0625-.28516.09766-.2539.14062-.21485.17969-.17578.22266-.1289.26562-.07813.3086-.02735.23827.01954.22266.0625.20703.10156.17578.14062.14844.17188.11328.20703.07422.23438.02344.26562-.01953.26953-.0664.22266-.10938.1914-.15625.17188-.20313.16406-.2461.16406-.6328.39063-.53907.3125-.4375.3164-.34375.32422-.26562.33594-.1914.35156-.125.3711-.06642.39062-.02343.41797h4.21484V398.5h-3.33594l.08594-.28516.11328-.23437.14844-.20313.1875-.17968.23047-.17188.27734-.17578.71875-.41797.41406-.20312.34766-.23047.27734-.2539.22266-.26563.16016-.27735.11328-.28515.0625-.28516.01953-.28125-.03906-.38281-.1211-.34766-.1875-.3086-.2539-.26171-.30078-.21485-.34375-.15625-.38282-.09765-.40625-.03516-.43359.03125-.39844.10156-.35547.16407-.30468.23437-.25.30469-.1836.375-.11719.44531-.03906.51953"/><path fill="#ffffe0" fill-rule="evenodd" d="M319.55078 341.33984h22.1836v-10.1914h-22.1836v10.1914"/><path fill-rule="evenodd" d="M323.05078 332.98438h.51172v6.29296h-.78906v-4.48828h-1.38672v-.5586l.5586-.0625.25-.05468.23046-.08984.20313-.14063.17578-.21094.14062-.29296.10547-.39454m4.8125 0l.23047.01563.21875.0586.21094.08984.19531.11719.1836.15234.17187.17578.30078.41797.24219.49219.17969.54687.11328.58203.03906.58985-.03906.59375-.11329.58203-.17968.55469-.24219.5039-.30078.42578-.17188.17969-.18359.15234-.19531.125-.21094.09375-.21875.0547-.23047.01952-.22656-.01953-.21875-.05469-.21094-.09375-.19531-.125-.1836-.15234-.17187-.17969-.30078-.42578-.24219-.5039-.17969-.5547-.11328-.58202-.03906-.59375h.83594l.02734.5625.08203.5078.125.44142.16406.375.19141.30078.21094.21875.22265.14062.22266.04688.22656-.04688.22266-.14062.21094-.21875.1914-.30079.16407-.375.125-.4414.08203-.50781.02734-.5625-.02734-.5625-.08203-.5-.125-.4336-.16407-.36719-.1914-.29296-.21094-.21485-.22266-.1289-.22656-.04688-.22265.04688-.22266.1289-.21094.21485-.1914.29296-.16407.3672-.125.43359-.08203.5-.02734.5625h-.83594l.03906-.58985.11328-.58203.1797-.54687.24218-.4922.30078-.41796.17188-.17578.18359-.15235.19531-.11718.21094-.08985.21875-.05859.22656-.01563m5.09375 0h.50781v6.29297h-.78515v-4.48828h-1.39063v-.5586l.5625-.0625.25-.05468.23047-.08984.20313-.14063.17578-.21094.14062-.29296.10547-.39454m6.80469 1.6172h-.78906l-.05079-.21094-.08203-.1875-.10546-.15625-.12891-.13282-.14844-.10156-.16015-.07422-.16797-.04687-.17188-.01563-.32812.04297-.28907.11719-.24609.19531-.20313.26953-.16015.33985-.11719.40234-.07031.46875-.02344.52734.1914-.20312.1836-.16016.1875-.1211.1836-.08984.1875-.0625.1953-.03515.39844-.02344.3086.03125.32031.08984.3164.15625.29298.21875.2578.28516.19923.35156.07031.19922.05469.21875.02734.23438.0039.25-.78515.04687-.02734-.25781-.07813-.25-.1211-.23828-.16015-.20703-.19531-.1797-.21875-.13671-.24219-.08594-.2539-.03125-.25391.03125-.24219.08594-.21875.13672-.1914.17969-.16407.20703-.12109.23828-.07813.25-.02734.25781.02735.25781.07812.25391.1211.23438.16406.20703.1914.17968.21875.13672.24219.08985.2539.03125.25391-.03125.24219-.08985.21875-.13672.19531-.17968.16016-.20704.1211-.23437.07812-.2539.02734-.25782.78516-.04687-.03125.37109-.08985.3711-.16015.35937-.22266.32812-.28906.28125-.16797.1211-.1914.10156-.20313.08203-.22656.0625-.23829.03906-.26171.01172-.28125-.01562-.26172-.04688-.23828-.07812-.21485-.10156-.19531-.13282-.17188-.15625-.15625-.17969-.13671-.20312-.11329-.22266-.10156-.24218-.14453-.53516-.08594-.59375-.02734-.63672.03906-.7461.11328-.66406.1875-.57812.1211-.2539.13672-.23048.15234-.20703.16797-.17968.1875-.15625.20312-.12891.21875-.10156.23047-.07422.25-.04688.26172-.01171.36328.03125.33203.09765.29688.14844.25781.19922.21094.24219.16406.27343.11719.30469.0625.32031"/></g></defs><use xlink:href="#ad"/></svg>