<svg xmlns="http://www.w3.org/2000/svg" role="img" xmlns:xlink="http://www.w3.org/1999/xlink" viewBox="142.45 309.95 326.84 171.84"><defs><clipPath id="a"><path d="M144 311.67188h1v168.65625h-1zm0 0"/></clipPath><clipPath id="b"><path d="M144 311.67188h324v168.65625H144zm0 0"/></clipPath><clipPath id="c"><path d="M391 475h7v5.32813h-7zm0 0"/></clipPath><clipPath id="d"><path d="M467 311.67188h1v168.65625h-1zm0 0"/></clipPath><clipPath id="e"><path d="M144 479h4v1.32813h-4zm0 0"/></clipPath><clipPath id="f"><path d="M147 479h3v1.32813h-3zm0 0"/></clipPath><clipPath id="g"><path d="M153 478h8v2.32813h-8zm0 0"/></clipPath><clipPath id="h"><path d="M160 478h3v2.32813h-3zm0 0"/></clipPath><clipPath id="i"><path d="M166 479h9v1.32813h-9zm0 0"/></clipPath><clipPath id="j"><path d="M173 479h3v1.32813h-3zm0 0"/></clipPath><clipPath id="k"><path d="M180 479h8v1.32813h-8zm0 0"/></clipPath><clipPath id="l"><path d="M187 479h3v1.32813h-3zm0 0"/></clipPath><clipPath id="m"><path d="M193 479h8v1.32813h-8zm0 0"/></clipPath><clipPath id="n"><path d="M200 479h3v1.32813h-3zm0 0"/></clipPath><clipPath id="o"><path d="M206 479h9v1.32813h-9zm0 0"/></clipPath><clipPath id="p"><path d="M213 479h3v1.32813h-3zm0 0"/></clipPath><clipPath id="q"><path d="M220 478h8v2.32813h-8zm0 0"/></clipPath><clipPath id="r"><path d="M226 478h4v2.32813h-4zm0 0"/></clipPath><clipPath id="s"><path d="M233 478h8v2.32813h-8zm0 0"/></clipPath><clipPath id="t"><path d="M240 478h3v2.32813h-3zm0 0"/></clipPath><clipPath id="u"><path d="M246 478h9v2.32813h-9zm0 0"/></clipPath><clipPath id="v"><path d="M253 478h3v2.32813h-3zm0 0"/></clipPath><clipPath id="w"><path d="M260 479h8v1.32813h-8zm0 0"/></clipPath><clipPath id="x"><path d="M266 479h4v1.32813h-4zm0 0"/></clipPath><clipPath id="y"><path d="M273 478h8v2.32813h-8zm0 0"/></clipPath><clipPath id="z"><path d="M279 479h2v1.32813h-2zm0 0"/></clipPath><clipPath id="A"><path d="M287 478h7v2.32813h-7zm0 0"/></clipPath><clipPath id="B"><path d="M301 477h6v3.32813h-6zm0 0"/></clipPath><clipPath id="C"><path d="M314 477h6v3.32813h-6zm0 0"/></clipPath><clipPath id="D"><path d="M328 477h5v3.32813h-5zm0 0"/></clipPath><clipPath id="E"><path d="M342 479h3v1.32813h-3zm0 0"/></clipPath><clipPath id="F"><path d="M353 479h8v1.32813h-8zm0 0"/></clipPath><clipPath id="G"><path d="M366 479h8v1.32813h-8zm0 0"/></clipPath><clipPath id="H"><path d="M379 479h9v1.32813h-9zm0 0"/></clipPath><clipPath id="I"><path d="M380 478h2v2.32813h-2zm0 0"/></clipPath><clipPath id="J"><path d="M393 478h8v2.32813h-8zm0 0"/></clipPath><clipPath id="K"><path d="M407 477h7v3.32813h-7zm0 0"/></clipPath><clipPath id="L"><path d="M420 478h7v2.32813h-7zm0 0"/></clipPath><clipPath id="M"><path d="M433 478h8v2.32813h-8zm0 0"/></clipPath><clipPath id="N"><path d="M446 479h8v1.32813h-8zm0 0"/></clipPath><clipPath id="O"><path d="M459 478h9v2.32813h-9zm0 0"/></clipPath><clipPath id="P"><path d="M144 465h4v4h-4zm0 0"/></clipPath><clipPath id="Q"><path d="M144 452h4v3h-4zm0 0"/></clipPath><clipPath id="R"><path d="M144 439h4v3h-4zm0 0"/></clipPath><clipPath id="S"><path d="M144 425h4v4h-4zm0 0"/></clipPath><clipPath id="T"><path d="M465 424h3v1h-3zm0 0"/></clipPath><clipPath id="U"><path d="M144 411h4v5h-4zm0 0"/></clipPath><clipPath id="V"><path d="M465 410h3v2h-3zm0 0"/></clipPath><clipPath id="W"><path d="M144 398h4v4h-4zm0 0"/></clipPath><clipPath id="X"><path d="M465 397h3v2h-3zm0 0"/></clipPath><clipPath id="Y"><path d="M144 385h4v4h-4zm0 0"/></clipPath><clipPath id="Z"><path d="M144 371h4v5h-4zm0 0"/></clipPath><clipPath id="aa"><path d="M144 357h3v7h-3zm0 0"/></clipPath><clipPath id="ab"><path d="M144 343h2v8h-2zm0 0"/></clipPath><clipPath id="ac"><path d="M144 330h2v8h-2zm0 0"/></clipPath><clipPath id="ad"><path d="M144 330h1v2h-1zm0 0"/></clipPath><clipPath id="ae"><path d="M144 317h2v8h-2zm0 0"/></clipPath><clipPath id="af"><path d="M144 315h1v3h-1zm0 0"/></clipPath><g id="ag" clip-path="url(#clip1)"><path fill="#fff" fill-opacity="0" fill-rule="evenodd" d="M0 0h1000v1000H0zm0 0"/><path fill="#d3d3d3" fill-opacity="0" fill-rule="evenodd" d="M162.15234 355.86719l-.23437.29297.0586.23437.11718.17188.17578.23437.29297.34766.11328.0586.11719-.17188.0586-.23438.17577-.17578.46485-.17578h.69922l.23437.29297.28906.8164.0586.17579.17578.23046.35156.23438.69922.69922.17188.17578.23437.34765.23438.41016.28906.58203.41015.46485.23047.23437.23438.17578.11719.23047.17578.29297.17187 1.16406v.23438l.0586.28906.05859.11719.11719.11719.34765.41015.11719.17188.17578.17578.17578.23437.11719.17188.17188.35156.05859.23438.23437.40625.23438-.0586-.17578.17578-.0586.92969h-.58203l-.23437-.11328-.34766.11328-.11719.11719-.05859.29297-.0586.17578-.11718.17187-.46484.29297-.0586.23438-.0586.11328v.64453l.0586.17187v.41016l.0586.0586v.40624l.05859.40625.11719.17579.05859.05859.23047.64062-.0586.29297v.69922l-.05859.58203v.23438l-.0586.23047-.05468.35156v1.92187l.05469.1172h.42578l-.36719.11718-.02344.35156.89063 1.16797 1.74219.53906 1.33984.35938v.53906l.08984.8086.53516.71484 1.51953.26953.89063-.08594.08984 1.16406.53516.1797 1.16015-.1797 2.05469-.98437 1.16016-.36328 1.8789-.17578 1.69531-.1797-.17968.71876-1.51563.08594-1.25.08984-.80469.26953-1.07421.8086.26953.71875.53515.89843-.17968.625-.26563.8086.26563 1.07812.625.89844.80468.17969 1.25-.1797-.26562.72267.09766.5039.05468.29297v.17188l.0586.29296v.40625l.17578.1172.35156.11718h.40625l.29297-.17578.11328-.11719.0586-.11719.11718-.23047.0586-.17578.35156-.46484.23047-.17578.17578-.0586.17578.0586.0586.17578.11718.98828.05469.46875.0586.17188.11718.23437.17578.0586.8164.05859h.28907l.11719.23437.05859.40625.0586.35156v1.10547l.11718.29297.11719.34766.28906.69922.17578.35156.58203.7539.35157.17579.17187.0586.46875.23437.64063.46484.34765.23438.29297.17578.29297.05468.23047.0625.8164.34766.29297.17578.11328.17188.35157.35156.11719.17578.52343.64063v.28906l.0586.35156v.34766l.05859.35156.0586.28906.11718.0586.17188.05859h.17578l.58203.23437.17578.1172.17578.28905.17578.23438.11328.23437.29297.23047.11719.11719v.41016l.0586.05468.28906.23438.23437.11719.0586.11718.11718.17188.0586.11719.23047.23437.05859.17578.23437.0586.1172.05859-.1172.11328-.05859.11719v.11719l-.11719.29296-.11719.28907v.58203l.17579.11719.11718.05859.0586.11719.11719.11719.11328.05859.17578.34765.0586.35157.05858.40625v.17578l-.05859.17578-.11719.69922v.17187l.1172.17579.29296.29296h.40625l.17578.1172.11719.17187.11719.29296v.23438h-.52735l-.23047-.23438h-.23437l-.17578.0586-.0586.69922.0586.34765.11719.17579.17578.41015.11718.23047.28907.46875.17578.05469h.52344l.23437.0586.75781.64062.0586.29296v.23438l.05859.0586.23047.34765v.35156l-.11719.17188v.29297l.29297.28906.29297.17578.17187.0586.29297.17577.29297.1172.58203.40624.28906.23438.29297.17578.21875.16015.01563.01172.23047.17579.64062.52343.17578.23438.1172.17578.17577.17578.11328.17188v.64062l.1172.17578.46874.11719.58203.11719.23438.05859.23047.11328.29297.11719.11328.0586.58593.35156.28907.17187.17578.0625.17578.05469.17578.0586.69922.35155.28906.17579.23438.05468.28906.17578.23437.1172.64063.40624.29297.11719.17187.0586.23438.05859.41015.05859.23047.0586.23438.11718.0586.17188-.41017.17578.46875.0586.0586.29296.11328.23438.17578.05468.23438.0586.17578.05859.40625.11719.64062.23437.11719.17188.0586.23437v.17578l-.0586.1172-.0586.40624.23438.23438.11719.05859.34766.11719.64062.23047.17578.11718.28906.1172.17578.17577.23438.46485.58203 1.10546.17578.17579.34766.17578.17578.11719.35156.11718 1.04688.52344.23437.0586.46485.11327.29297.0586.46484.17578.75781.58203.23438.23438.34765.46484.17578.17578.28907.23438.8164.69921.29297.17579.28906.28906.29297.17578.29297.28906.69531.64063.17578.17578.29297.23437.28907.23438.46875.28906.64062.58203.34766.23438.23437.29297.34766.34765.35156.46485.9336.99218.34765.40625.11719.17579.23437.05859.11328.11719.64454.17578.23047.11328.23437.0586.29297.17577.23047.1172.9336.69921.40624.40625.23438.17578.40625.17578.23437.11719.8164.34766.34766.23437.23438.11719.29297.28906.23047.11719.7578.35156.35157.17188.23047.05859.29297.11719.23437.0586.8711.17577h.8164l.46875.23047.17188.0586.875.69921.46484.1172.29297.05858.17578.0586.23047.0586.46875.05859.34766.05859.35156.0586.40625.05859h.29297l.17187.0586v.23046l.17578.17578h.29297l.34766.0586.35156.05859.69922.11719h.64063l.46484-.23438.29297-.17578.17187-.11719.41016-.17187.28906-.17578.9336-.46485.46875-.29297.52343-.29296.46485-.17188.46484-.17578 1.05078-.46485.28906-.11718.41016-.11719.28906-.11719.52735-.17578 1.51562-.69922.58203-.34765.28907-.0586.29297-.0586.34765-.11718.875-.23047.35156-.11719h.11329l.23437-.05859.875-.23437.23438-.0586h.8125l.35156-.0586.8164-.11718.17188-.0586.35156-.05468.29297-.0586.23047-.05859.8164-.17578.17579-.0586h.34765l.23438-.05859.46484-.11718.75781-.17188.23438-.0586h.34765l.41016-.11718.28906-.0586 1.28516-.05859h.28906l.41016-.0586.23047-.05858h.17578l.875-.1172h.40625l.41015-.11718h.34766l.35156-.11328.8711-.0586h1.75l1.04687.28907.41016.11719.28906.11718.35156.11719.28907.11719 1.05078.17187.28906.0586h.29297l.29297.05859.17187.0586.41016.05859.17187.0586.1172.05858h.11718l.11719.0586.35156.0586h.11328l.41016.0664 1.92187.39453 1.92578.39453 1.51953.44922 1.69532.71875 2.14453.80469 1.60547-.71875 1.42968-.80469 1.16016-1.07813 1.25-.44921 3.03516-.71875 1.875-.35938 2.14453-1.34765 2.23437-1.25391 2.5-1.25781 1.69531-.44922 1.78516-.17969 1.16016-.26953.625.53906 1.33984-.26953.71485-.98828.98437-1.34375.44531-.17969.80469-.35937 1.875-.53907 1.78516-.44921 1.25-.26954 1.16015-.08984 1.69922-.08984 1.96094-.26954 1.25-.08984h.53906l.625-.08984h.89063l2.14453-.17969 2.41015-.17969 2.58985-.08984 1.69531.17969 1.60938.08984 1.42968.35938 1.16016.71875 1.875.98828 1.16015 1.52734.26563.71484.6289.08985.35548.89844.53515.53906.53516 1.52734 1.07422.35938h.53515l-.80469.53515.08985 1.70703.71484 2.69532.89063.80468.89453.98829.71484 1.2578 1.78516.53907 1.51953-.17969.35547 1.34375 1.60937-.80469.98047-.53906.26953.26953.31641-.21484.21875-.14453.80078.44922.44922-.35938h.35547l.53515-.26953.53907-.71875.53515-.26953.625-.98828 1.16016.44922.83984.3711 1.39454.61718 1.6953-.17969h1.60548l1.78515.08985.17969-1.70704.53516-1.34375.80468.26954.4922.84765.40233.40625-.08984.53906v.35938l.71485.44922.71093-.26953h1.42969l.35938.98828.4453 1.25781.71485 1.34375 1.25.6289 1.69531.62891.71485-.17969.17969-.53906.98046-.08984.44922.35937.08594 1.25782-.26563.6289-.53515.17969v.53906l.71484.98438.26563.53906.98437.98828.80078 1.07813-.26562.35937-.08985.89844-.625 2.33203-.35546 2.0664-.08985 1.79298-.17969.71875-.08984.53906v1.4375l-.98047 1.88281-.35937 1.70703-.53516.89844-.80469 1.16797-.26562.53906 2.05469 1.2539.08593.35938-.35546.53906-.08985-.17968v.80859l.08985 1.4375-.44532.71484-1.07422.09375-.26562.71485.53515.89844.8047.71875 1.16015.80859 1.33984.26953.44531.35938-.35546.44921-1.78907-.08984-1.25-.44922-.71484-.71875-.625-.08984-.17578 3.58984-.1875 1.3086h89.35937V311.70313h-55.26953v49.08203l.76172.125 3.28906.54296 2.02344 2.83594v2.7539l2.35156.33204 2.34766.33203h4.05078l-1.3789 4.16016-2.02344.70703-2.02344.70312-.54297.34375-2.59375 1.6172-.1875.11718-2.02344-2.07813-.73046-2.74218-2.67188-2.07813-1.375-3.5-.0664-.08203-1.95704-2.67188 2.75-1.41796v-49.08204H294.42187v91.41407l.1172.03125.1328.01172.07422.07421.10547.04688.08985.0586.08593.05859.08985.0586.29687.29687.0586.08984.03125.11719.02734.11719.01563.13671-.03125.1172-.0586.08983-.0586.08594-.04296.10547-.04688.10156-.02734.1211v.14453l.17578.26953.14844.14844.07422.08594.07422.07421.04296.10547.0625.08985.0586.08593.04297.10547.0586.08985.04687.10156.04296.10547.0586.08594.11719.17968.07421.07422.0625.08594.0586.08984.04297.10547.0586.08985.05858.08593.0625.08985.0586.08984.04297.10156.11719.17969.07421.07422.0586.08594.07422.07421.08984.0586.10547.04687h.14844l.1328-.01562.13282.01562.10156-.04687.07422-.07422.04688-.10156-.01563-.13281v-.14844l-.04687-.10547-.02735-.11719-.04687-.10156-.02735-.1211-.04296-.10156-.0625-.08984-.04297-.10156-.04297-.10547-.03125-.11719-.01563-.13281-.01171-.13672.08593-.0586.0586-.08593.12109-.03125.04297.10547.01562.1328v.1172l.0586.10156.0586.08984.08983.0586.14844.14843.0586.08985.04296.10547-.01171.10156.08593.0586.10547.04687.08594.0586.08984.05858.07422.07422-.11719.02735-.10546.04687-.08594.0586-.07422.07421-.0586.08985-.0625.08594-.02734.12109-.04687.10156-.04297.10547-.03125.11719-.01172.13281-.01563.13281v.14844l.02735.11719.04687.10547.04297.10156.0586.08984.07421.07422.08985.0586.07422.07421.08984.0586.0586.08984.04296.10547.04688.10156.11719.03125.1328.01563h.14845l.11718-.03125.10547.04297.04297.10547.04688.10156.02734.1211L299.5 410l.02734.11719.03125.1211.02735.11718.10547.04297.10156.04687.13281-.01562.14844.14844.0625.08593.07422.07422.07031.07422.08984.0625.10547.04297.10156.04297.1172.03125.13671.01562.11719-.03125.07422-.07422.02734-.11718-.01172-.13282-.03125-.12109-.02734-.11719.04297-.10547h.11719l.08984.0625.11719.02735h.14843l.13282.01562h.14843l.13282.01563.1328-.01563h.14845l.1328-.01562.13282-.01172.13672.01172.11719-.02735.13281-.01562.1914-.0586-.05859.17579-.01562.1328-.02735.1211-.01562.13281-.0586.08594-.1328.01563-.10548.04687-.10546.04297-.1172.03125-.11718.02735-.26563.03125h-.14843l-.13281.01562-.07422.07422.05859.08594.14844.14843.11719.1797.07421.0703.08985.0625.08984.0586.08594.0586.08984.05858.10156.04297.10547.0625.10547.04297.08594.0586.10547.04687.10156.04297.17969.11719.0586.08984-.04298.10156-.04687.10547.01562.13281.22266.22266.0586.08985.04296.10156.03125.1211.04297.10155.01563.13282.03125.11718.01171.13672.03125.11719.14844.14844.10156.04297.10547.04296.1172.03125.1328.01563.13672.01563h.11719l.11719-.03125.08984-.0586.04297-.10547.04688-.10156.04296-.10547.03125-.11719.01172-.1328v-.14845l-.01172-.1328-.01562-.13282-.03125-.11719-.04297-.10547-.04688-.10547-.04296-.10156-.04297-.10547-.01563-.13281.01563-.13281.02734-.11719.03125-.11719.02735-.1211.04687-.10155.08984-.0586.08594-.0625.07422-.07422.08984-.05859.22266-.22266.0586-.08593.07421-.07422.11719-.17969.0586-.08594v-.14844l-.07423-.07421-.10156-.04688-.10547-.04297-.10156-.04297-.0586-.08984-.04687-.10547-.02734-.11719.08984-.05859.11719-.03125.10156-.04297.17969-.11719.14844-.14843.01172-.13282-.01172-.10546-.08985-.0586-.1328.01563h-.14845l-.1328.01562-.13282-.01562-.1211-.03125-.08593-.0586-.07422-.07422-.0586-.08984-.0625-.08594-.11718-.17969-.0586-.08593.03125-.1211.08594-.05859.1211-.03125.05859-.08594v-.1211l-.03125-.11718-.0586-.08984-.05859-.08594-.04687-.10547-.02735-.11719-.01562-.1328.0586-.08985.07421-.07422.08984-.0586.1172-.17968.07421-.07422.0586-.08594.14843-.14844.1211-.03125.1328-.01562.13282.01562.07422.07422.04297.10547.01562.13281-.03125.1172-.11719.03124-.1328.01172-.14844.14844-.04297.10547-.04688.10156-.02734.1211-.03125.11718v.14844l.03125.11719.04297.10546.05859.08985.07422.07031.07422.07422.11719.03125.12109.02734.11719-.02734.1328-.01563h.1172l.08984.0586.07422.07422.04687.10546.0586.08594.10156.04688.13281.01562.10547.04297.08594.0586-.01172.10546-.07422.07422-.17969.11719-.05859.08984-.08984.0586-.07032.07422-.07421.07421-.0625.08985-.02735.11719-.01562.1328.01562.13282-.01562.13281v.14844l.01562.13281.02735.1172.03125.12108.07421.07422.08985.0586.08594.0586.08984.05858.11719.03125v.08594l-.10157.04688-.08984.0586-.26563.03124-.11718.02735h-.14844l-.10547.04296-.10156.04688-.0586.08984-.0625.23438-.01171.13281-.03125.1211-.01563.1328v.29298l-.01172.1328.01172.13673.01563.1328.1328.01563.13282.01172.1211.03125.08593.0586.07422.07421.04688.10547.04296.10157.01563.1328v.44532l-.01563.13281v.44532l.03125.26562.02735.11719.01562.13281.03125.11719.08594.21094.03125.26562v.14844l-.03125.11719-.02734.11718-.03125.1211-.02735.11719-.03125.11718-.03125.1211-.01171.1328-.01563.13282.08984.0586.1172-.03125.10155.01562.04688.10547-.03125.26562v.44141l-.04297.10547-.04688.10547-.04296.10156-.04297.10547-.0586.08594-.03125.12109-.04296.11719-.03125.11719-.01563.1328.01563.13282.05859.08984.10547.04688.08594.0586.05859.08593-.01172.13672-.03125.11719-.04297.10156v.44531l-.01562.13281v.14844l-.03125.11719-.04297.10547-.02735.11719-.04687.10546-.04297.10157-.03125.12109-.02734.11719-.03125.13281-.03125.11719-.02735.11719-.04297.10546-.03125.1172-.03125.12108-.01171.13282-.01563.13281v.29688l.02734.11718v.14844l.04688.39844.02734.11719.0586.08984.12109.03125h.14844l.13281-.01563.0586.08985v.11719l-.0586.08984-.08984.0586-.10157.04296-.10546.04688-.08985.05859-.08594.0586-.13671.01562-.1172-.03125-.1328-.01563-.10157.04688-.0625.08594-.01172.13671-.01562.13282-.03125.11719-.02735.11718-.01562.13281-.03125.1211v.29687l.01563.13282.03125.11718v.14844l.01171.13281v.14844l-.02734.11719-.04688.10156-.02734.1211-.03125.11718-.0586.08985-.07421.07421-.10156.04297-.10547.04688-.11719.02734-.1211.03125-.10156-.04687.0586-.08594.10547-.04688.02734-.11718.03125-.11719.02734-.1211.03125-.11718v-.14844l.01563-.13281-.03125-.11719-.04297-.10547-.10547.01563-.07422.07422-.10156.04296-.08984.0625-.07422.07422-.04297.10157-.01563.1328-.03125.1172L304.25 426l-.03125.11719-.02734.11719-.03125.12109-.02735.11719-.03125.11718-.04297.10547-.08984.0586h-.08984l-.1172-.03125-.03124-.08594.01562-.13672-.03125-.11719v-.14844l-.01171-.1328v-.14844l-.0625-.23438-.02735-.1211-.04297-.10156-.04687-.10546-.0586-.08594-.05859-.08985-.04297-.10546-.0625-.08594-.14844-.14844-.0703-.07422-.10548-.04687-.10547-.04297-.10156-.04297-.29687-.29688-.08985-.07421-.08594-.0586-.10546-.04297-.08985-.0625-.08594-.0586-.10546-.04296-.08985-.0586-.08594-.0625-.07421-.0703-.10547-.04688-.08594-.0586-.10547-.04296-.08984-.0625-.10156-.04297-.10547-.04297-.08594-.0586-.10547-.04687-.10547-.04297-.10156-.04687-.08985-.0586-.10156-.04297-.10547-.04296-.08984-.0625-.11719-.02735-.13281-.01562-.13281.01562H299.75l-.13281.01563-.11719-.03125-.08984-.0586-.07422-.07422-.08985-.05859-.10156-.04688h-.14844l-.12109-.02734-.10156-.04297-.07422-.07422-.11719-.17968-.08984-.0586-.10156-.04297-.08985-.0625-.10547-.04296-.08984-.0586-.08594-.0586-.10547-.04687-.0586-.08594-.05858-.08984-.04297-.10547-.04688-.10156-.07422-.07422-.08594-.0586-.07421-.07421-.08985-.0586-.22265-.22265-.04297-.10547-.03125-.26563.10547-.04296h.14453l.10547.04296.07421.07422.08985.0586.08594.0586.10546.04687.08985.05859.14844.14844.0703.07422.14845.14843.0625.08594.07421.07422.08594.0586.07422.07421.08985.0625.08984.0586.08594.05859.26953.17578.10156.04688.10547.04296.10156.04297.04688-.07421.05859-.08594.07422-.07422.07031-.07422.10547.04297.07422.07422.0586.08984.04296.10156.04688.10547.04296.10547.1211.02735.11719-.02735.07421-.08984.04297-.10547.0586-.08985.07422-.07421.10546-.04297.1172-.02735.1328.01172.08985.0586.14844.14843.05859.08985.04297.10547.04687.10156.04297.10547.04297.10156.10547.04688.10547.04296.13281.01563.08594-.0586.0586-.08984.07421-.07422.10547-.04297.11719.02735.10547.04687.10156.04297.10547.04297.10156.04688.17969.11718v.11719l-.01563.13281.01563.13281.01562.13672.0586.08594.10156.04688.1211.02734.11718.03125h.14844l.11719-.03125.05859-.08984.17969-.1172.05859-.08983.07422-.07422.0586-.08594.11718-.17969.17969-.11719.11719.03125.08984.0586.04297.07422-.01563.1328v.1172l.08985.05859h.14843l.13282-.01563.1328-.01171.26563-.03125.10547-.04297.11719-.03125.1211-.02735.07421-.07421.07031-.07422.0625-.08985-.01562-.10547-.04688-.10156-.10156-.04297-.10547-.01562-.11718.02734-.26563.03125h-.14844l-.07421-.07422-.08985-.0586-.11719-.03124-.11718-.02735-.13282-.01562h-.14843l-.13282.01563h-.29687l-.10547-.04688-.14844-.14844-.04297-.10156-.05859-.08984.22266-.22266.08593-.0586.10547-.04296.11719-.03125.13281-.01563.13281.01563.13672.01562.10157.04297.1328-.01172.08985-.0625.10156-.04297.0625-.08984-.04687-.10156-.08984-.0586-.1172-.03125-.10155-.04296-.0586-.08985-.0625-.08984v-.11719l.01563-.13281.10547-.04688.07421-.07031v-.1211l-.08984-.05859-.03125-.11719.08985-.05859.07421-.07422.04297-.10547.0586-.08984.04687-.10156.01563-.13281v-.14844l-.04688-.10547-.04297-.10156-.08984-.0586-.13281-.01562-.10157-.04297-.13671-.01563-.1172-.03125h-.4453l-.13282-.01562-.13281-.01172-.13281-.01563-.11719-.03125h-.14844l-.13281-.01562-.13281-.01172-.26563-.03125-.1211-.04297-.08593-.0586-.07422-.07421v-.14844l.01172-.13281.10547-.04688.10156-.04296.13281-.01563h.15235l.13281-.01562h.29297l.1211.03125.10156.04296.08984.0586.23438.0625.12109-.04688.08984-.05859.10156-.04297.13282-.01562.10547.04296.10156.04688.13281.01172.1211-.02735h.14453l.12109-.03125.11719-.02734.10547-.04687.07421-.07422.08594-.0586.14844-.14843.0586-.08594.04687-.10547.02734-.11719.01563-.10547-.10156-.04296-.08985-.0586-.11719-.03125-.10546-.04297-.08985-.0625-.07422-.08594-.07422-.07421-.10156-.04297-.10547-.04688-.10156-.04297-.0586-.08984-.04687-.10156-.08594-.21094-.0625-.08594-.05859-.08984-.07422-.07422-.08594-.0586h-.26953l-.11719.03126-.08984.05859-.10156.04297-.13281.01562-.10547-.01562-.02735-.11719-.0625-.08984-.11718-.03125-.10157-.04297-.14843-.14844-.03125-.11719-.01563-.10546.07422-.07422.17969-.1172.11719-.02733.11718-.03125.13672.01562.10156.04297.10547.04297.10156.04687.10547.04297.1172.03125.1328.01563.1172.02734.1328.01563.10547-.01563.08985-.0586-.07422-.07421-.10547-.04297-.07422-.07422-.07422-.08984-.14844-.14844-.08593-.0586-.08985-.05859-.07422-.07422-.08984-.0586-.10156-.04687-.1211-.02734-.10156-.04688-.10547-.04296-.11719-.03125-.10156-.04297-.1211-.03125h-.14843l-.11719.03125-.10546.04297-.08594.0625-.17969.11718-.08594.0586-.08984.0586-.10547.04687-.08594.05859-.10547.04297-.10156.04297-.10547.04687-.07422.07422-.05859.08985-.0586.08593-.04687.10547-.0586.08594-.07421.07422-.13281-.01172-.1172-.03125h-.11718l-.07422.07422-.08984.0586-.07422.07421-.08984.0586-.08594.05859-.10547.04687-.10156.04297-.13672.01563-.10156-.04297-.14844-.14844-.10547-.04688h-.08594l-.10547.04688-.10156.04297-.1211.03125-.11718-.03125-.07422-.07422v-.11719l.03125-.1211.07422-.0703.0586-.08985.07421-.07422.11719-.03125.10547-.04296h.29297l.13281-.01563.13672-.01563.10156-.04296.08985-.0586.10156-.04687.08984-.0586.13281-.01171.08985.05859.13281.01172.08984-.0586.08594-.05859.10547-.04297.08984-.0586.08594-.0625.08985-.05859.14843-.14843.0586-.08594.05859-.08985.10547-.04296.13281-.01563.11719.02735.1211.03125.05859-.0586.05859-.08984.03125-.26563.02734-.11719.10547.01172.13281.01563.10157-.04297.08984-.0586.0586-.08984.07421-.07422.0586-.08984.04687-.10156.01172-.13281-.01172-.13282-.04687-.10547-.14844-.14843-.0586-.08985-.05859-.08594-.04297-.10546v-.44532l.01563-.1328v-.14845l.01172-.1328-.0586-.0586-.08984.0586-.10156-.04298-.17969-.11719-.08594-.05859-.0625-.08984-.0586-.08985-.07421-.07421-.08594-.0586-.1211.03125-.10155.01172-.10547.04688-.08594.05859-.10547.04297-.14844.14844-.08984.05859-.08594.0586-.08984.0625-.10547.04296-.13281.01563v-.1211l.10547-.04297.11718-.03125.07422-.0703.04297-.10548v-.14844l-.02734-.11718-.14844-.14844-.13281-.01563h-.14844l-.11719.03125-.10547.04297-.10156.04297-.08984.0625-.11719.02735-.07422-.07422.01172-.13281-.04297-.10157-.04297-.10547-.08984-.05859-.11719.02734-.1211.03125-.11718.03125-.10156.04297-.1211.03125-.10156.04297-.10547.04297-.08984.0586-.10156.01562v-.11719l.01562-.13281-.0586-.08985-.07421.04297-.14844.14844-.0586.08985-.07421.07421-.04688.10547-.04296.10156-.07422.07422-.0586.08985-.07422.07422-.05859.08593-.07422.07422-.08984.0625-.07422.07031-.07422.07422-.10156.01563-.13281.01562-.10547-.04296v-.1211l.14843-.14844.04297-.10156.0586-.08984.04687-.10156.04297-.10547.0586-.08985.03124-.11719.04297-.10156.03125-.1211.02735-.11718.04687-.10547.04297-.10156.04297-.10547.07422-.07031.08984-.0625.08985-.0586.10156-.04296h.29687l.26563-.03125.10547-.04297-.07422-.07422-.11719-.03125-.10547-.04297-.08984-.0586-.10156-.04687-.08985-.0586-.10156-.04296-.10547-.04297-.08984-.0625-.08594-.0586-.10547-.04296-.10156-.04297-.1211-.03125-.11718-.03125-.10157-.04297L297.5 410.25l-.10156-.04297-.08985-.0586-.04296-.10546-.01563-.13281.10156-.04297.13281-.01563.13672.01563.13282-.01563.10156-.04297.0586-.08984.01562-.10547-.08985-.0586-.07421-.07421-.10157-.04297-.08984-.0586-.14844-.14843-.04297-.10547-.01562-.13281v-.29297l-.0586-.08985-.08984-.05859-.07422-.07422-.04297-.10547-.03125-.11718-.0586-.08985-.07421-.07422-.11719-.02734-.07422-.07422-.08984-.0586-.08984-.0625-.08594-.05859-.07422-.07421-.0586-.08594-.04687-.10547-.08594-.0586-.14843-.14843-.19532-.0586-.1328.01563-.10157.04297-.07422.07422-.04688.10156-.04296.10547-.0586.08984-.0586.08594-.29687.29687-.08984.0586h-.08594l-.0625-.08594-.04297-.10547.03125-.11719.0586-.08984.02734-.11719-.01172-.13281-.08984-.0625-.10547.04688-.11719.02734-.11719.03125-.26953.17578-.10156.04688-.11719.02734-.10546.04687-.08985.0586-.10156.04297-.0586-.08594-.04687-.10547.01563-.13281.04687-.10547.07031-.07422.07422-.07031.0586-.08985v-.14843l-.04297-.10547h-.23829l-.10156.04687-.03125.11719-.02734.11719-.03125.1211-.07422.04296-.13281.01563-.07422-.04688-.04297-.10156-.04297-.10547-.04687-.10156-.04297-.10547-.1211.03125-.10156.04297-.13281.01562-.11719.03125-.10547.04297-.08984.0586-.10156.04687-.1211.02734-.13281.01563-.10156-.04297-.0586-.08985-.04687-.10546-.04297-.10157-.04297-.10546v-.1172l.0586-.08984.08593-.05859.17969-.11719.10156-.04687.10547-.04297.10547-.0586.10156-.04296.08985-.0625.10156-.04297.10547-.0586.10156-.04687.08984-.0586.10547-.04296.10156-.04297.08985-.0625.10156-.04297.13672-.01563.11719.03125.10156.04297.1211.03125.10156.04297.10546.04688.10157.04296.10547.04297.10156.04688.10547.04297.10156.04297.10547.04687.08594.0586.10546.04296.1172.03125.10546.04297.10156.04688.08985.0586.10547.04296.10156.04297.10547.04687.11719.02735.10156.04687.1211.02735h.14843l.08594-.0586.01562-.10156.0586-.08984-.02735-.1172-.07422-.07421-.11719-.17969-.07421-.07422-.08985-.07421-.17969-.1172-.08593-.05859-.10547-.04296-.10156-.04688-.26954-.17578-.05859-.08985-.07422-.07421-.0586-.08985-.04296-.10156-.03125-.11719-.01563-.13672v-.5625l-.01171-.1328-.01563-.13282-.03125-.11719-.01562-.13281-.01172-.13281-.03125-.1211-.22266-.22265-.0586-.08594-.01562-.10547.03125-.11719.13281-.01562v-91.41406H172.9922v1.45312l-.0586.23438-.35156 1.05078-.17187.52343-.1172.34766-.17577.41016-.11719.17187-.23438.29297-.23046.0586h-.35157l-.11718.05859-.23047.40625v.29297l.11719.17578.23046.23047.1172.23437.64062.75781.29297.46485.17578.23437.23047.35156.23437.34766.64063.8164.17578.46485.17187.41016.11719.69531.17578.46875.11719 1.39844.0586.46484v.875l.11718 1.04688v4.78125l-.0586.46484-.35156 1.28125-.17578.52344-.11328.41015-.35156.9297L172.93359 336l-.23437.58203-.11719.17578-.17187.34766-.17578.40625-.35157.8164-.0586.29297-.11327.29297-.11719.28906-.0586.17579-.11718.875-.0586.40625-.05859.11718-.0586.17579-.05859.17187-.23047.52734-.11718.17188v.23437l-.11719.23438-.0586.17187-.17577.58594v.28906l-.0586.17579v.29296l-.0586.11329-.05859.52734v.17187l-.05468.23438v2.6211l-.17578.8164-.1172.17578-.17577.23438-.1172.17187-.11327.23438-.58594.93359-.23047.28906-.29297.46485-.17578.23437-.28906.35156-.35156.69922-.11328.23047-.17579.41016-.17578.23046-.40625.52735-.8164.69922-.29297.17187-.28906.23438-.17579.11719-.17578.17578-.52344.40625-.52734.17578-.17187.17578-.23438.05469-.64062.17578h-.75782m12.21094 31.02344l-1.07422.44921.35938.89454 1.25-.71485.44531-.53906-.98047-.08985"/><path fill="#d3d3d3" fill-opacity="0" fill-rule="evenodd" d="M201.50781 416.59766h-.89453l.44922.6289.98047.35938.80469-.08985.4453-.98828-.17577.08985-.71485-.35547-.89453.35547m154.6211 59.0703l-.0586-.52343v-.29297l.11328-.29297.0586-.23046.46875-.46875h.11328l.11719-.11329.11718-.05859h.17579l.23437-.0586h.34766l.23437.0586.11719.0586.23047.17187.0586.17578.11718.58203v.29297l-.11719.17578-.17187.28906-.17579.17579-.52734.52343-.23047.23438-.11719.0586h-.17578l-.11718-.0586-.40625-.29297-.17579-.11719-.11718-.0586-.0586-.11327-.05468-.1172m6.64062-10.95702l-.0586-.17188v-1.10937l.0586-.17188.17578-.0586.17188-.05858h.17578l.23437-.0586.1172.0586.05858.69921-.05859.17188-.11719.17578-.11718.0586-.23438.52343-.11328.0586h-.23438l-.05859-.1172m9.61328-14.39062l-.11719-.17578v-.69922l.29297-.875.1172-.17187.17577-.35156.11328-.23047.1172-.29297.35155-.75781.1172-.23047.17187-.23438h.17578l.11719-.0586h.64062l.11719.0586.23437.23438.17188.11328.35156.29297.11719.11718.11328.17579v.11328l.11719.05859.11718.11719v.69922l-.05859.17578v.23047l-.0586.17578-.34765 1.05078-.11719.23047-.11719.23437-.11718.0586-.23047.23437-.64063.28906h-.875l-.41015-.11718-.64063-.46485"/><path fill="none" stroke="#bebebe" stroke-linecap="round" stroke-linejoin="round" stroke-miterlimit="10" stroke-width=".5" d="M467.95703 311.69531H144.02734v168.625h323.9297v-168.625"/><g clip-path="url(#a)"><path fill="#fff" fill-opacity="0" fill-rule="evenodd" d="M144 475.89063v4.4375h.0039H144V311.67188h.0039H144v164.21875"/></g><g clip-path="url(#b)"><path fill="#fff" fill-opacity="0" fill-rule="evenodd" d="M144.0039 480.32813V311.67188h17.75v123.63671l-.61327.63672-1.13282 4.4375 1.7461 2.46485V448.75l-.21875.51172-.64453 4.4375.47265 4.4375.39063.53906 4.4375.33985 2.3828-.87891 2.0547-3.3086 1.125-1.1289-1.125-.17969-4.4375-.80469-4.1797-3.45312-.2578-.51172v-5.90234l3.53515-2.46485.90235-2.5664 4.4375-1.82032.2578-.05078-.2578-.04687-4.4375-.375-4.4375-.21485V311.67188h35.5078v117.90234l-3.4375 1.9336 3.4375 3.875 3.6172-3.875-3.6172-1.9336V311.67187h31.06642v110.3672l-1.1797.58984-.21093 4.4414-3.04688.9375-2.15234 3.5-2.28516 2.83203-3.39062 1.60547-1.04688 1.53516-2.51171 2.90234-1.9297 1.13281-4.4375.55079-4.4375 2.46093-.6328.29297-3.8047 1.1211-4.4414 1.55078-3.16015 1.76953-1.27735.95703-4.4375 3.42969-.1875.05078-4.25 1.07812-2.28515 3.35938 2.28515 1.6836 4.4375 1.02343 3.1289-2.70703 1.3086-1.92969 2.47266 1.92969L192.8203 459.5l4.4414 1.13672 4.4375-.0586 3.54298-2.4414.89453-.6836 3.59766-3.7539.83984-1.46875 4.36719 1.46875.07422.03515 4.4375 3.47266 4.4375-1.10937 2.64453-2.39844L224 449.26172l-.10938-.10938-4.4375-2.71093-1.21875-1.6211-1.64453-4.4375 2.86328-2.28515 2.10938-2.15235 2.32813-1.76953 4.4375.32031.53906 1.44922 3.89844 2.80078 3.6875-2.80078-3.6875-4.01953-1.1836-.41797 1.1836-2.01562 3.41015-2.42188-2.21484-4.4414-1.19531-.46875-4.4375-.1211V311.67187h13.3164v124.92188l-4.08203 3.78906 4.08203 3.45313 4.4375-.86719 2.32031-2.58594-2.3203-2.95703-4.4375-.83203V311.67187h13.3125v145.91016l-.69142.55469.69141.30078.46094-.30078-.46094-.55469V311.67188h31.07031v117.16015l-4.4375 1.84375-4.4375-.8164-4.4414-.14063-2.7461 1.78906 2.7461 1.70313 4.4414.02734.59375 2.70703 3.84375 3.96094 4.4375-.1914 4.4375-2.6211 1.1836-1.14844-1.1836-1.26562-1.89843-3.17188-2.53907-2.67578V311.67188h62.13672v124.2539l-.01562.01953.01562.01953 2.41406 4.41797 2.02344 1.90235 2.21875-1.90235-2.21875-1.98047-4.41797-2.45703-.01953-.01953v-124.2539h26.6289v129.6914l-3.17968 3.45703-.03906 4.4414-1.21875 2.72267-4.4375 1.30078-.65235.41406-3.78515 4.07812-4.07031.35938 4.0703.26953.41798-.26953 4.01953-3.6875 3.3086 3.6875 1.1289.79297 3.58594-.79297.85156-.26953.10937.26953.3125 4.4375 4.01954 3.9375 4.4375-1.19922 4.4375 1.5.17968.20313 4.25781 3.9375 4.01954-3.9375.41796-.70313 4.3125-3.73828.12891-.75781 1.4375-3.6797-1.4375-1.0039-4.3125-3.4336-.1289-.13671-4.4375-3.6211-4.4375 1.3672-4.4375-1.69923-4.4375-.10937-.26172-.23828-.14454-4.4414-4.03515-3.45704v-129.6914h93.20312v168.65625h-73.05078l2.03906-3.125.58204-1.3125-.58204-.46875-.79296.46875-3.64454 2.7578-1.17578 1.6797H144.00391"/></g><path fill="#50fcfc" fill-rule="evenodd" d="M161.7539 442.84766l-1.74609-2.46485 1.13281-4.4375.61329-.63672 4.4375.21485 4.4375.375.2578.04687-.2578.05078-4.4375 1.82032-.90235 2.5664-3.53515 2.46485m-.39063 15.28906l-.47266-4.4375.64454-4.4375.21875-.51172.2578.51172 4.1797 3.45312 4.4375.8047 1.125.17968-1.125 1.1289-2.0547 3.3086-2.3828.8789-4.4375-.33984-.39063-.53906m18.14453 1.6836l-2.28515-1.6836 2.28515-3.35938 4.25-1.07812.1875-.05078 4.4375-3.42969 1.27735-.95703 3.16015-1.76953 4.4414-1.55078 3.8047-1.1211.6328-.29297v7.46485l-4.4375.2539-3.3789 1.45313 3.3789 2.1211 4.4375-.39454 2.41017-1.72656-2.41016-1.70703v-7.46485l4.4375-2.46093 4.4375-.55079 1.92969-1.1328 2.51172-2.90235 1.04687-1.53516 3.39063-1.60547 2.28515-2.83203 2.15234-3.5 3.04688-.9375.21094-4.4414 1.17969-.58985 4.4375.1211 1.1953.46875 2.21485 4.4414-3.41016 2.42188-1.18359 2.01562 1.1836.41797 3.6875 4.01953-3.6875 2.80078-3.89844-2.80078-.53906-1.44922-4.4375-.3203-2.32813 1.76952-2.10938 2.15235-2.86328 2.28515 1.64453 4.4375 1.21875 1.6211 4.4375 2.71093.10938.10938 2.53516 4.4375-2.64453 2.39844-4.4375 1.10937-4.4375-3.47265-.07422-.03516-4.3672-1.46875-.83983 1.46875-3.59766 3.7539-.89453.6836-3.54297 2.4414-4.4375.0586-4.4414-1.13672-1.96485-1.36328-2.47266-1.92969-1.3086 1.92969-3.1289 2.70703-4.4375-1.02344m17.7539-24.4375l-3.4375-3.875 3.4375-1.9336 3.6172 1.9336-3.6172 3.875"/><path fill="#00e8fc" fill-rule="evenodd" d="M197.26172 455.82031l-3.3789-2.1211 3.3789-1.45312 4.4375-.2539 2.41016 1.70703-2.41016 1.72656-4.4375.39453"/><path fill="#50fcfc" fill-rule="evenodd" d="M241.64453 443.83594l-4.08203-3.45313 4.08203-3.78906v1.82031l-2.11719 1.96875 2.1172 1.79297 3.41405-1.79297-3.41406-1.96875v-1.82031l4.4375.83203 2.32031 2.95703-2.3203 2.58594-4.4375.86719"/><path fill="#00e8fc" fill-rule="evenodd" d="M241.64453 442.17578l-2.11719-1.79297 2.1172-1.96875 3.41405 1.96875-3.41406 1.79297"/><path fill="#50fcfc" fill-rule="evenodd" d="M254.95703 458.4375l-.6914-.30078.6914-.55469.46094.55469-.46094.30078m17.7539-25.22656l-2.74609-1.70313 2.7461-1.78906 4.4414.14063 4.4375.8164 4.4375-1.84375v3.47656l-4.4375.64454-2.49609 2.99218 2.4961 2.57422 4.4375-.57422 2.6328-2-2.6328-3.63672v-3.47656l2.53906 2.67578 1.89843 3.17188 1.1836 1.26562-1.1836 1.14844-4.4375 2.6211-4.4375.1914-3.84375-3.96094-.59375-2.70703-4.4414-.02734"/><path fill="#00e8fc" fill-rule="evenodd" d="M281.58984 438.51953l-2.49609-2.57422 2.4961-2.99219v2.69532l-.25.29687.25.25781 1.13671-.2578-1.13672-.29688v-2.69531l4.4375-.64454 2.63282 3.63672-2.63282 2-4.4375.57422"/><path fill="#00d4fc" fill-rule="evenodd" d="M281.58984 436.20313l-.25-.25782.25-.29687 1.13672.29687-1.13672.25781"/><path fill="#50fcfc" fill-rule="evenodd" d="M348.16406 435.96484l-.01562-.01953.01562-.01953.01953.01953 4.41797 2.45703 2.21875 1.98047-2.21875 1.90235-2.02344-1.90235-2.41406-4.41797m13.3164 22.44141l-4.0703-.26953 4.0703-.35938 3.78517-4.07812.65234-.41406 4.4375-1.30079 1.21875-2.72265.03906-4.4414 3.17969-3.45704 4.03515 3.45703.14454 4.4414.26171.23829 4.4375.10938v2.9375l-3.35156 1.15234-1.08594 2.36328-.4375 2.07422-.23437 4.4375.67188.66015.91015-.66015-.5664-4.4375 4.09375-3.42578v2.58594l-1.00391.83984 1.0039 2.63672.79297-2.63672-.79296-.83985v-2.58593l3.23828 3.42578-.01954 4.4375 1.21875.96484 3.07813 3.47656 1.35938 1.25782 1.28515-1.25781 1.0664-4.44141 1.46485-4.4375-3.69922-4.4375-.11719-.09766-.15234.09766-4.28515 2.67969-2.91407-2.6797-1.52344-1.15233v-2.9375l4.4375 1.69921 4.4375-1.36718 4.4375 3.62109.12891.13672 4.3125 3.4336 1.4375 1.0039-1.4375 3.67969-.1289.7578-4.3125 3.73829-.41797.70313-4.01954 3.9375-4.2578-3.9375-.1797-.20313-4.4375-1.5-4.4375 1.19922-4.01953-3.9375-.3125-4.4375-.10937-.26953-.85156.26953-3.58594.79297-1.1289-.79297-3.3086-3.6875-4.01953 3.6875-.41797.26953"/><path fill="#00e8fc" fill-rule="evenodd" d="M379.23438 463.23438l-.67188-.66016.23438-4.4375.4375-2.07422 1.08593-2.36328 3.35156-1.15235 1.52344 1.15235 2.91406 2.67969 4.28516-2.6797.15235-.09765.11718.09766 3.69922 4.4375-1.46484 4.4375-1.0664 4.4414-1.28517 1.25782-1.35937-1.25781-3.07813-3.47657-1.21875-.96484.01954-4.4375-3.23829-3.42578-4.09375 3.42578.56641 4.4375-.91015.66015"/><path fill="#fff" fill-opacity="0" fill-rule="evenodd" d="M383.67188 457.29688l-1.00391.83984 1.0039 2.63672.79297-2.63672-.79296-.83985"/><g clip-path="url(#c)"><path fill="#50fcfc" fill-rule="evenodd" d="M391.3711 480.32813l1.17577-1.6797 3.64454-2.7578.79296-.46875.58204.46875-.58204 1.3125-2.03906 3.125h-3.57422"/></g><g clip-path="url(#d)"><path fill="#fff" fill-opacity="0" fill-rule="evenodd" d="M467.9961 480.32813H468V311.67188h-.0039H468v168.65625h-.0039"/></g><path fill="#fff" fill-opacity="0" fill-rule="evenodd" d="M209.17188 458.1914l5.46093-2.07421-3.53906-9.3125-5.46094 2.07812 3.53906 9.3086"/><path fill-rule="evenodd" d="M209.55469 449.35156l.47656-.17969 2.23438 5.88282-.73438.28125-1.59375-4.19922-1.30078.49219-.19531-.51563.5-.26172.21484-.14062.1836-.16406.14062-.20313.08984-.25781.02735-.32813-.04297-.40625"/><g clip-path="url(#e)"><path fill="none" stroke="#000" stroke-linecap="round" stroke-linejoin="round" stroke-miterlimit="10" stroke-width=".5" d="M147.35156 479.27344l-6.70312 2.10937"/></g><g clip-path="url(#f)"><path fill="none" stroke="#000" stroke-linecap="round" stroke-linejoin="round" stroke-miterlimit="10" stroke-width=".5" d="M147.35156 479.27344l1.75 1.72265"/></g><g clip-path="url(#g)"><path fill="none" stroke="#000" stroke-linecap="round" stroke-linejoin="round" stroke-miterlimit="10" stroke-width=".5" d="M160.64453 479.20313l-6.65625 2.25"/></g><g clip-path="url(#h)"><path fill="none" stroke="#000" stroke-linecap="round" stroke-linejoin="round" stroke-miterlimit="10" stroke-width=".5" d="M160.64453 479.20313l1.78516 1.68359"/></g><g clip-path="url(#i)"><path fill="none" stroke="#000" stroke-linecap="round" stroke-linejoin="round" stroke-miterlimit="10" stroke-width=".5" d="M174.07031 479.61719l-6.8789 1.42578"/></g><g clip-path="url(#j)"><path fill="none" stroke="#000" stroke-linecap="round" stroke-linejoin="round" stroke-miterlimit="10" stroke-width=".5" d="M174.07031 479.61719l1.5664 1.88672"/></g><g clip-path="url(#k)"><path fill="none" stroke="#000" stroke-linecap="round" stroke-linejoin="round" stroke-miterlimit="10" stroke-width=".5" d="M187.41016 479.74219l-6.9297 1.17187"/></g><g clip-path="url(#l)"><path fill="none" stroke="#000" stroke-linecap="round" stroke-linejoin="round" stroke-miterlimit="10" stroke-width=".5" d="M187.41016 479.74219l1.49609 1.94531"/></g><g clip-path="url(#m)"><path fill="none" stroke="#000" stroke-linecap="round" stroke-linejoin="round" stroke-miterlimit="10" stroke-width=".5" d="M200.73047 479.77734l-6.9414 1.10157"/></g><g clip-path="url(#n)"><path fill="none" stroke="#000" stroke-linecap="round" stroke-linejoin="round" stroke-miterlimit="10" stroke-width=".5" d="M200.73047 479.77734l1.47656 1.95703"/></g><g clip-path="url(#o)"><path fill="none" stroke="#000" stroke-linecap="round" stroke-linejoin="round" stroke-miterlimit="10" stroke-width=".5" d="M213.94922 479.34766l-6.7461 1.96093"/></g><g clip-path="url(#p)"><path fill="none" stroke="#000" stroke-linecap="round" stroke-linejoin="round" stroke-miterlimit="10" stroke-width=".5" d="M213.94922 479.34766l1.71094 1.7578"/></g><g clip-path="url(#q)"><path fill="none" stroke="#000" stroke-linecap="round" stroke-linejoin="round" stroke-miterlimit="10" stroke-width=".5" d="M227.20703 479.17188l-6.63281 2.3164"/></g><g clip-path="url(#r)"><path fill="none" stroke="#000" stroke-linecap="round" stroke-linejoin="round" stroke-miterlimit="10" stroke-width=".5" d="M227.20703 479.17188l1.80078 1.66406"/></g><g clip-path="url(#s)"><path fill="none" stroke="#000" stroke-linecap="round" stroke-linejoin="round" stroke-miterlimit="10" stroke-width=".5" d="M240.45703 479l-6.5039 2.66016"/></g><g clip-path="url(#t)"><path fill="none" stroke="#000" stroke-linecap="round" stroke-linejoin="round" stroke-miterlimit="10" stroke-width=".5" d="M240.45703 479l1.88672 1.57031"/></g><g clip-path="url(#u)"><path fill="none" stroke="#000" stroke-linecap="round" stroke-linejoin="round" stroke-miterlimit="10" stroke-width=".5" d="M253.84375 479.1836l-6.64453 2.29296"/></g><g clip-path="url(#v)"><path fill="none" stroke="#000" stroke-linecap="round" stroke-linejoin="round" stroke-miterlimit="10" stroke-width=".5" d="M253.84375 479.1836l1.79297 1.67187"/></g><g clip-path="url(#w)"><path fill="none" stroke="#000" stroke-linecap="round" stroke-linejoin="round" stroke-miterlimit="10" stroke-width=".5" d="M267.17969 479.2539l-6.6914 2.14844"/></g><g clip-path="url(#x)"><path fill="none" stroke="#000" stroke-linecap="round" stroke-linejoin="round" stroke-miterlimit="10" stroke-width=".5" d="M267.17969 479.2539l1.76172 1.71094"/></g><g clip-path="url(#y)"><path fill="none" stroke="#000" stroke-linecap="round" stroke-linejoin="round" stroke-miterlimit="10" stroke-width=".5" d="M280.42969 479.0625l-6.55469 2.53125"/></g><g clip-path="url(#z)"><path fill="none" stroke="#000" stroke-linecap="round" stroke-linejoin="round" stroke-miterlimit="10" stroke-width=".5" d="M279.47266 479.42969l.92968.80469"/></g><g clip-path="url(#A)"><path fill="none" stroke="#000" stroke-linecap="round" stroke-linejoin="round" stroke-miterlimit="10" stroke-width=".5" d="M293.3789 478.36719l-5.82812 3.92187"/></g><path fill="none" stroke="#000" stroke-linecap="round" stroke-linejoin="round" stroke-miterlimit="10" stroke-width=".5" d="M292.53125 478.9375l1.08203.57813"/><g clip-path="url(#B)"><path fill="none" stroke="#000" stroke-linecap="round" stroke-linejoin="round" stroke-miterlimit="10" stroke-width=".5" d="M306.25781 477.83594l-4.95312 4.98437"/></g><path fill="none" stroke="#000" stroke-linecap="round" stroke-linejoin="round" stroke-miterlimit="10" stroke-width=".5" d="M306.25781 477.83594l2.34766.71484"/><g clip-path="url(#C)"><path fill="none" stroke="#000" stroke-linecap="round" stroke-linejoin="round" stroke-miterlimit="10" stroke-width=".5" d="M319.32422 477.61328l-4.45703 5.42969"/></g><path fill="none" stroke="#000" stroke-linecap="round" stroke-linejoin="round" stroke-miterlimit="10" stroke-width=".5" d="M318.67578 478.40234l1.20313.2422"/><g clip-path="url(#D)"><path fill="none" stroke="#000" stroke-linecap="round" stroke-linejoin="round" stroke-miterlimit="10" stroke-width=".5" d="M332.17188 477.28906l-3.51954 6.08203"/></g><g clip-path="url(#E)"><path fill="none" stroke="#000" stroke-linecap="round" stroke-linejoin="round" stroke-miterlimit="10" stroke-width=".5" d="M344.75 480.32813l-.01953-.19922-.0586-.19141-.09765-.17578-.45703-.3789-.1914-.0586-.19923-.01953-.19922.01953-.1914.0586-.46094.3789-.09375.17578-.0586.1914-.01952.19923.01953.19921.05859.19141.09375.17969.46094.375.1914.0586.19922.01952.19922-.01953.1914-.0586.45704-.375.09765-.17968.0586-.1914.01953-.19922"/></g><g clip-path="url(#F)"><path fill="none" stroke="#000" stroke-linecap="round" stroke-linejoin="round" stroke-miterlimit="10" stroke-width=".5" d="M353.60156 479.60547l6.8789 1.44531"/></g><g clip-path="url(#G)"><path fill="none" stroke="#000" stroke-linecap="round" stroke-linejoin="round" stroke-miterlimit="10" stroke-width=".5" d="M366.97656 479.3711l6.76172 1.91406"/></g><path fill="none" stroke="#000" stroke-linecap="round" stroke-linejoin="round" stroke-miterlimit="10" stroke-width=".5" d="M367.96094 479.64844l-.26172-1.19531"/><g clip-path="url(#H)"><path fill="none" stroke="#000" stroke-linecap="round" stroke-linejoin="round" stroke-miterlimit="10" stroke-width=".5" d="M380.21094 479.71094l6.91797 1.23437"/></g><g clip-path="url(#I)"><path fill="none" stroke="#000" stroke-linecap="round" stroke-linejoin="round" stroke-miterlimit="10" stroke-width=".5" d="M381.21875 479.89063l-.375-1.16797"/></g><g clip-path="url(#J)"><path fill="none" stroke="#000" stroke-linecap="round" stroke-linejoin="round" stroke-miterlimit="10" stroke-width=".5" d="M393.70703 479.0664l6.5586 2.52735"/></g><path fill="none" stroke="#000" stroke-linecap="round" stroke-linejoin="round" stroke-miterlimit="10" stroke-width=".5" d="M394.66016 479.4336l-.14454-1.21876"/><g clip-path="url(#K)"><path fill="none" stroke="#000" stroke-linecap="round" stroke-linejoin="round" stroke-miterlimit="10" stroke-width=".5" d="M407.82422 477.83984l4.95703 4.98047"/></g><path fill="none" stroke="#000" stroke-linecap="round" stroke-linejoin="round" stroke-miterlimit="10" stroke-width=".5" d="M408.54297 478.5625l.36328-1.17188"/><g clip-path="url(#L)"><path fill="none" stroke="#000" stroke-linecap="round" stroke-linejoin="round" stroke-miterlimit="10" stroke-width=".5" d="M420.53906 478.63672l6.15625 3.38672"/></g><path fill="none" stroke="#000" stroke-linecap="round" stroke-linejoin="round" stroke-miterlimit="10" stroke-width=".5" d="M421.4336 479.1289l.01952-1.22656"/><g clip-path="url(#M)"><path fill="none" stroke="#000" stroke-linecap="round" stroke-linejoin="round" stroke-miterlimit="10" stroke-width=".5" d="M433.6289 479.1289l6.60548 2.40235"/></g><g clip-path="url(#N)"><path fill="none" stroke="#000" stroke-linecap="round" stroke-linejoin="round" stroke-miterlimit="10" stroke-width=".5" d="M446.75 479.98828l6.99219.67969"/></g><g clip-path="url(#O)"><path fill="none" stroke="#000" stroke-linecap="round" stroke-linejoin="round" stroke-miterlimit="10" stroke-width=".5" d="M460.22656 479.22656l6.67188 2.20313"/></g><g clip-path="url(#P)"><path fill="none" stroke="#000" stroke-linecap="round" stroke-linejoin="round" stroke-miterlimit="10" stroke-width=".5" d="M147.30469 465.82031l-6.60938 2.38672"/></g><path fill="none" stroke="#000" stroke-linecap="round" stroke-linejoin="round" stroke-miterlimit="10" stroke-width=".5" d="M147.30469 465.82031l1.82031 1.64453m11.4414-1.78515l-6.5039 2.66797m6.5039-2.66797l1.88673 1.57031m11.3203-1.8086l-6.28515 3.14454m6.28516-3.14453l2 1.42187m11.29297-1.46094l-6.2422 3.22266m6.2422-3.22266l2.01953 1.39844m11.15234-1.65234l-5.95312 3.73047m5.95312-3.73047l2.125 1.22265m-2.99219-.67968l1.0625.60937m13.09375-1.1914l-5.90234 3.80859m5.90234-3.8086l2.14453 1.19532m11.04688-1.375l-5.65625 4.16797m5.65625-4.16797l2.21094 1.0625m11.125-1.03516l-5.69531 4.11328m5.6953-4.11328l2.19923 1.07813m11.23828-.89844l-5.9414 3.7539m5.9414-3.7539l2.1289 1.21484m11.30078-1.01562l-6.17578 3.35547m6.17578-3.35547l2.04688 1.35547m10.98047-1.80079l-5.59766 4.2461m5.59766-4.2461l2.22656 1.03125m10.96484-1.1875l-5.35156 4.5586m5.35156-4.5586l2.28125.90235m10.61329-1.32031l-4.50782 5.39453m4.50782-5.39453l2.40234.5078m10.59766-.73827l-3.87891 5.85547m3.8789-5.85547l2.44141.23437m10.39453-.5039l-2.92187 6.39453m2.92187-6.39453l2.44922-.14454m10.59375.03516l-2.375 6.61328m2.03125-5.65234l1.21094-.17578m11.875-.9375l-1.23047 6.91797m1.05078-5.91016l1.16797-.3789m10.94531-.59766l1.53516 6.85547m-1.3125-5.85938l.92969-.79687m10.50781.68359l4.84375 5.08984m-4.14063-4.35156l.39063-1.16406m11.82422.8711l5.63672 4.19921m-4.8164-3.58594l.18358-1.21484m12.15235.83594l5.95312 3.73047m-5.08593-3.1875l.08593-1.22266m14.88282-.9375l.91406 6.96484m-.78125-5.95312l1-.71094m12.375-.32031l.52734 7.0039m-.45312-5.98437l1.03906-.65625m12.83984-.35547l-.74609 6.98828m.63672-5.97265l1.13672-.45704m12.41015-.54296l-.99218 6.95703m.84765-5.94532l1.15235-.41796"/><g clip-path="url(#Q)"><path fill="none" stroke="#000" stroke-linecap="round" stroke-linejoin="round" stroke-miterlimit="10" stroke-width=".5" d="M147.41797 452.88281l-6.83594 1.63281"/></g><path fill="none" stroke="#000" stroke-linecap="round" stroke-linejoin="round" stroke-miterlimit="10" stroke-width=".5" d="M147.41797 452.88281l1.625 1.83985m-2.6211-1.60157l.8125.91797m13.4297-1.39843l-6.69923 2.11328m6.69922-2.11328l1.7539 1.72265m-2.72655-1.41406l.875.85937m13.24609-1.59765l-6.36719 2.97656m6.36719-2.97656l1.96094 1.47656m11.17578-1.8125l-6.00781 3.64844m6.0078-3.64844l2.10938 1.2539m11.10547-1.41015l-5.8086 3.95703m5.8086-3.95703l2.17188 1.14063m11.04687-1.27735l-5.61328 4.23047m5.61328-4.23047l2.22266 1.03906m10.84375-1.32812l-5.1211 4.8125m5.1211-4.8125l2.32422.78906m10.80078-.97656l-4.73828 5.1875m4.05078-4.4336l1.1875.3047m13.45703-.27344l-6.02344 3.61718m5.14844-3.08984l1.05078.6289m12.83984-1.58593l-5.42187 4.47265m5.42188-4.47265l2.26562.9414m10.74219-1.26562l-4.8086 5.125m4.8086-5.125l2.36718.64453m10.89844-.6875l-4.71094 5.21094m4.71094-5.21094l2.38281.59766m11.1172-.42188l-5.07813 4.85938m5.07812-4.85938l2.32813.76953m-3.0664-.0625l1.16405.38282m12.94532-1.02735L314.5 456.06641m5.1914-4.73438l2.3125.82422m10.73829-1.08594l-4.66407 5.25781m4.66407-5.2578l2.38672.57421m10.85937-.63281l-4.52734 5.375m4.52734-5.375l2.39844.51562m10.28515-.9414l-3.26171 6.22656m3.26171-6.22656l2.45313-.01563m9.8789-.32422l-1.29296 6.90625m1.29297-6.90625l2.33984-.73437m10.61719.6836l-.57813 7.0039m.49219-5.98438l1.1289-.48437m10.59376-.25781l2.77734 6.45312M396 451.41016l.76953-.95703m16.01953.76562l-4.97656 4.96094m4.2539-4.23828l1.17188.35937m12.85547-1.09375l-4.95703 4.98047m4.23828-4.2539l1.17187.35546m9.84375-2.0625l1.08204 6.94532m-.92579-5.9336l.98047-.73828m14.35547.08984l-3.26953 6.21875m2.79297-5.3164l1.22656-.0039m11.46875-1.26173l-1.08203 6.94531m.92578-5.93359l1.16016-.40234"/><g clip-path="url(#R)"><path fill="none" stroke="#000" stroke-linecap="round" stroke-linejoin="round" stroke-miterlimit="10" stroke-width=".5" d="M147.36719 439.38672l-6.73438 1.99219"/></g><path fill="none" stroke="#000" stroke-linecap="round" stroke-linejoin="round" stroke-miterlimit="10" stroke-width=".5" d="M147.36719 439.38672l1.72265 1.75m-2.69922-1.46094l.85938.875m13.4375-1.15625l-6.74219 1.97656m6.74219-1.97656l1.71484 1.75781m-2.6953-1.46875l.85546.875m13.35547-1.41015l-6.57813 2.47265m6.57813-2.47265l1.83984 1.6211m11.33203-1.95313l-6.28906 3.1328m6.28906-3.1328l1.9961 1.42968m11.26562-1.53125l-6.1836 3.33594m6.1836-3.33594l2.04297 1.35938m10.92188-1.89063l-5.48047 4.39844m4.6836-3.75781l1.125.48437m12.86718-1.26172l-5.2461 4.67579m4.48438-3.9961l1.15234.42578m11.5547-2.05078l-2.5 6.5664m2.1328-5.61327l1.21875-.15235m11.5586-1.01562l-.69531 6.99219m.59765-5.97266l1.13281-.46875m14.35547.40234l-4.84375 5.08985m4.84375-5.08985l2.36328.65625m11.29297-.28515l-5.52734 4.34375m4.72265-3.71094l1.1211.4961m12.0039-1.9922l-3.53515 6.07032m3.53515-6.07031l2.45313.09375m11.5625.4453l-4.9414 4.9961m4.9414-4.9961l2.35156.70313m11.42969-.14062l-5.86719 3.86719m5.86719-3.8672l2.15234 1.17579m10.9336-1.48438l-5.41406 4.48438m5.41406-4.48438l2.26953.9375m10.3125-1.60156l-3.94531 5.8125m3.9453-5.8125l2.44142.26563m10.01953-.6875l-2.23829 6.66015m2.23829-6.66015l2.42187-.40235m9.32813.2461l.89062 6.96875m-.89062-6.96875l2.0039-1.41797m9.625 2.10937l4.26563 5.58594m-3.64453-4.77344l.51171-1.11328m17.20313 1.09375l-5.77734 4m4.9375-3.41797l1.08984.5625m12.85547-1.41797l-5.35938 4.54688m4.57813-3.88281l1.14062.45312m13.3086-.6211l-6.0625 3.5547m5.17969-3.03907l1.04296.64453m12.85547-1.58984l-5.46484 4.41797m5.46484-4.41797l2.25781.96094m10.3125-1.64844l-3.97656 5.79297m3.39844-4.95313l1.21875.14063m13.08203-.65625l-4.78906 5.14453m4.08984-4.39844l1.1875.31641"/><g clip-path="url(#S)"><path fill="none" stroke="#000" stroke-linecap="round" stroke-linejoin="round" stroke-miterlimit="10" stroke-width=".5" d="M147.14844 425.50781l-6.29688 3.1211"/></g><path fill="none" stroke="#000" stroke-linecap="round" stroke-linejoin="round" stroke-miterlimit="10" stroke-width=".5" d="M147.14844 425.50781l1.99219 1.42969m-2.91016-.97656l1 .71484m13.30469-1.01172l-6.44141 2.8086m6.4414-2.8086l1.92188 1.52735m-2.85937-1.1172l.96093.76173m13.39453-.91016l-6.64453 2.28516m6.64453-2.28516l1.79297 1.67578m-2.76172-1.34375l.89844.83985m13.41797-1.07032l-6.71094 2.08204m6.71094-2.08204l1.74219 1.73047m11.58594-1.69531l-6.73438 2.01172m6.73438-2.01172l1.72265 1.7461m11.29297-2.44923l-6.14062 3.41797m6.14062-3.41797l2.0625 1.33594m10.17969-2.51953l-3.99219 5.78516m3.41016-4.9414l1.21875.14062m13.71875.14062l-6.07031 3.53516m5.1875-3.02344l1.04296.64844m13.08203-1.27735l-5.92968 3.76954m5.0664-3.22266l1.07032.60547m13.17968-1.03516l-6.0703 3.53516m5.1875-3.01953l1.04296.64453m13.09375-1.26172l-5.94922 3.73828m5.08203-3.19531l1.0664.60937m12.1797-2.14453l-4.07813 5.72266m3.48438-4.89063l1.21875.16016m13.32812-.41016l-5.35156 4.5586m16.27344-5.78125l-.56641 7.0039m.48438-5.98437l1.125-.48828m14.32812.34765l-4.67578 5.2461m4.67578-5.2461l2.38281.58203m10.95313-.55859l-4.72266 5.20313m4.03516-4.44922l1.1914.30468m12.42579-1.36718l-3.94922 5.8164m3.375-4.96875l1.21875.13282m11.47656-1.4961l-1.5625 6.84766m1.33594-5.85156l1.18359-.32032m12.26953-.69531l-1.38281 6.88672m1.38281-6.88672l2.35156-.70312m13.71094 3.42187l-6.8789 1.44922m6.8789-1.44922l1.57031 1.88281m11.47657.35547l-6.34375-3.02734m5.42187 2.58594l.05078 1.22656m13.8789-4.33203l-5.73046 4.0664m5.73047-4.0664l2.19531 1.09765m10.75781-1.53125l-5.0039 4.9336m5.0039-4.9336l2.33985.73047m10.5586-1.08984l-4.17188 5.65234m4.17187-5.65234l2.42578.35547m10.92578-.32813l-4.24218 5.59766"/><g clip-path="url(#T)"><path fill="none" stroke="#000" stroke-linecap="round" stroke-linejoin="round" stroke-miterlimit="10" stroke-width=".5" d="M465.6836 424.26953l2.42187.39063"/></g><g clip-path="url(#U)"><path fill="none" stroke="#000" stroke-linecap="round" stroke-linejoin="round" stroke-miterlimit="10" stroke-width=".5" d="M146.97266 411.8789l-5.94532 3.75"/></g><path fill="none" stroke="#000" stroke-linecap="round" stroke-linejoin="round" stroke-miterlimit="10" stroke-width=".5" d="M146.97266 411.8789l2.1289 1.21485m-2.9961-.67188l1.06642.60938m13.05859-1.23828l-5.82813 3.92187m5.82813-3.92187l2.16406 1.15234m-3.01172-.58203l1.08203.57422m12.82422-1.48047l-5.3164 4.59375m5.3164-4.59375l2.28906.88281m10.70704-1.20703l-4.6797 5.24219m4.6797-5.24219l2.3828.58203m11.56642.17188l-5.94922 3.73437m5.94922-3.73437l2.1289 1.22265m10.90234-1.61718l-5.3789 4.52344m4.59375-3.8672l1.14062.46094m12.35938-1.67968l-4.17969 5.64844m3.57031-4.82813l1.21485.1836m12.92187-.83204l-4.60547 5.30469m3.9375-4.53516l1.19532.27735m12.91015-.9375l-4.85156 5.08203m4.14844-4.33985l1.17969.33204m12.36328-1.45703l-3.89844 5.84765m17.30469-5.78515l-4.07813 5.72265m17.45313-5.67578l-4.20313 5.63281m3.59375-4.8125l1.21094.1875m12.98437-.78515l-4.74218 5.1875m4.05078-4.4336l1.1875.30469m13.65234.09766l-6.41015 2.87109m5.48046-2.45313l.96485.75391m13.53515-.33984l-6.92187 1.20703m20.03906-1.91016l-6.52344 2.61328m19.57813-3.1328l-6.0039 3.65624m5.1289-3.125l1.05469.625m13.01953-1.33594l-5.76953 4.01172m4.92968-3.42578l1.08985.5586m12.375-1.87891l-4.39063 5.48437m3.75-4.6875l1.20703.22657m12.23438-1.3672l-3.36328 6.17188m2.8711-5.27343l1.23046.01171m13.51172-.16796l-5.23438 4.6875m5.23438-4.6875l2.30469.84765m11.20703-.60937l-5.6289 4.20703m5.6289-4.20703l2.21875 1.04687m10.7461-1.44922l-4.92579 5.01563m4.92578-5.01563l2.35156.69532m10.79688-.84766l-4.58984 5.32031m4.58984-5.32031l2.39062.54297m10.40235-.91406l-3.55078 6.0625"/><g clip-path="url(#V)"><path fill="none" stroke="#000" stroke-linecap="round" stroke-linejoin="round" stroke-miterlimit="10" stroke-width=".5" d="M465.33594 410.72266l2.45312.09765"/></g><g clip-path="url(#W)"><path fill="none" stroke="#000" stroke-linecap="round" stroke-linejoin="round" stroke-miterlimit="10" stroke-width=".5" d="M147.27344 399.16016l-6.54688 2.55468"/></g><path fill="none" stroke="#000" stroke-linecap="round" stroke-linejoin="round" stroke-miterlimit="10" stroke-width=".5" d="M147.27344 399.16016l1.85937 1.60156m-2.8125-1.23047l1.85938 1.60156m12.48047-1.77344l-6.6875 2.16016m6.6875-2.16015l1.76172 1.70703m-2.73829-1.39454l1.76563 1.70704m12.5664-1.875l-6.77343 1.87109m6.77344-1.8711l1.6875 1.78126m-2.67188-1.51172l.84375.89062m13.46094-1.15234l-6.78125 1.85156m6.78125-1.85156l1.67969 1.78906m-2.66797-1.51953l.83984.89453m13.5664-.61719l-6.98827.75782m6.98828-.75782l1.3789 2.03125m11.85547-2.48828l-6.82422 1.67578m6.82422-1.67578l1.63281 1.82813m11.28516-2.79688l-6.03125 3.60938m6.03125-3.60938l2.10156 1.26563m11.27344-1.16016l-6.14844 3.40235m6.14844-3.40235l2.05469 1.33594m11.34765-1.16797l-6.32422 3.0625m6.32422-3.0625l1.98047 1.44922m11.28516-1.54688l-6.22656 3.26172m5.3203-2.78906l1.01173.6914m13.59375.1211l-6.9961.6914m5.97657-.58984l.67968 1.01953m13.45703-1.98046l-6.60156 2.40625m5.64063-2.0547l.91406.82032m13.33984-1.23438l-6.55468 2.53125m5.60156-2.16406l.92578.80469m13.47266-.76172l-6.81641 1.71485m5.82422-1.46485l.82422.90625M333.5 398.76172l-6.17578 3.35156m5.27734-2.86328l1.02344.67969m13.47266-.48438l-6.7422 1.98828m5.76173-1.69921l.85547.875m13.04687 1.6914l-5.95703-3.72265m16.71094 5.34765l-.83594-6.97656m.71484 5.96094l-1.0078.70312m17.05468-4.95703l-6.05469 3.5664m5.17188-3.04687l1.04687.64063m12.86328-1.57422l-5.48047 4.39453m4.6836-3.75781l1.1289.48437m12.9297-1.1914l-5.3711 4.53125m4.58984-3.8711l1.13672.45703m12.41406-1.63672l-4.28125 5.57422m3.65625-4.76562l1.21094.20312m12.48828-1.17969l-3.80078 5.91016m3.2461-5.05078l1.22265.10156m12.86328-.8125l-4.23047 5.60938m4.23047-5.60938l2.42188.38281m11.23828-.08203l-4.92578 5.01172"/><g clip-path="url(#X)"><path fill="none" stroke="#000" stroke-linecap="round" stroke-linejoin="round" stroke-miterlimit="10" stroke-width=".5" d="M466.02344 397.9336l2.35156.6953"/></g><g clip-path="url(#Y)"><path fill="none" stroke="#000" stroke-linecap="round" stroke-linejoin="round" stroke-miterlimit="10" stroke-width=".5" d="M147.27344 385.84766l-6.54688 2.55078"/></g><path fill="none" stroke="#000" stroke-linecap="round" stroke-linejoin="round" stroke-miterlimit="10" stroke-width=".5" d="M147.27344 385.84766l1.85937 1.60156m-2.8125-1.23047l1.85938 1.60156m12.4336-1.90625l-6.59767 2.41797m6.59766-2.41797l1.82813 1.63672m-2.78907-1.28515l.91407.8164m13.09765-1.73047l-6.07031 3.54297m6.07031-3.54297l2.08594 1.29297m-2.96875-.77734l1.04297.64453m13.20312-1.07813l-6.16406 3.37891m6.16406-3.3789l2.05078 1.34765m-2.94921-.85547l1.02734.67578m11.88672-2.5039l-3.5664 6.05468m3.5664-6.05468l2.45312.10546m12.1211 1.16016l-6.08203 3.51953m6.08203-3.51953l2.08203 1.30078m11.00781-1.64062l-5.63281 4.19922m5.63281-4.19922l2.21875 1.04687m10.89063-1.30078l-5.22266 4.70703m5.22266-4.70703l2.30468.83985m10.65625-1.17579l-4.51562 5.38282m3.85937-4.60157l1.19922.25391m13.46485-.25781l-5.89844 3.82422m5.03906-3.26563l1.07422.59375m13.46094-.41797l-6.6211 2.35938m5.65625-2.01953l.90625.82812m13.31641-1.3125l-6.50781 2.64844m5.5625-2.26563l.9414.78516m12.67188-2.19922l-5.21485 4.71094m4.45704-4.02735l1.15234.41797m12.07813-1.78515l-3.52735 6.07422m3.01563-5.19141l1.22656.04688m13.01172-.65235l-4.35156 5.51953m3.71875-4.71484l1.20703.21875m13.60546-.02735l-6.07812 3.52735m18.36328 1.1211l-4.01953-5.76954m18.82422 2.58594l-7 .59765m5.98437-.5078l.66407 1.02734m11-4.23047l-1.66797 6.82422m1.42578-5.83204l1.1914-.30078m11.76954-.78515l-.47266 7.01172m.40625-5.9922l1.11719-.5m11.58984-.5l.875 6.97267m-.7461-5.95704l1-.70703m13.07423-.30469l-.89844 6.96875m.76953-5.95703l1.14453-.43359m12.91406-.44531l-2.1289 6.69922m1.82031-5.72266l1.20703-.22266m11.88672-.875l-1.07031 6.94532m.91406-5.9375l1.16016-.40235m14.26171.38281l-4.96875 4.96875m4.2461-4.24609l1.17187.35547"/><g clip-path="url(#Z)"><path fill="none" stroke="#000" stroke-linecap="round" stroke-linejoin="round" stroke-miterlimit="10" stroke-width=".5" d="M146.97656 371.94531l-5.95312 3.72656"/></g><path fill="none" stroke="#000" stroke-linecap="round" stroke-linejoin="round" stroke-miterlimit="10" stroke-width=".5" d="M146.97656 371.94531l2.1289 1.22266m-2.99218-.6836l1.0625.61329m12.96094-1.38282l-5.64453 4.1836m5.64453-4.1836l2.21484 1.0547m10.98047-1.21095l-5.40234 4.4961m5.40234-4.4961l2.26953.9297m10.78516-1.20704l-4.88281 5.05469m4.8828-5.05469l2.35548.67578m11.23828-.3711l-5.4414 4.44532m5.4414-4.44531l2.26172.94531m10.96875-1.04688l-5.27344 4.64454m5.27344-4.64454l2.29687.8672m10.59766-1.26954l-4.42969 5.45313m4.42969-5.45313l2.41016.47266m11.08984-.3125l-4.79688 5.13281m4.79688-5.13281l2.36719.63672m11.10547-.48047l-5.11329 4.82031m4.3672-4.11719l1.16405.39063m12.8672-1.125l-5.0547 4.88281m4.31641-4.17188l1.16797.37891m12.51562-1.42187l-4.3164 5.54296m3.6875-4.73437l1.21093.21094m12.1797-1.375l-3.20704 6.2539m2.73828-5.34375l1.22656-.01562m11.91797-1.14453l-1.92968 6.75781m1.64843-5.77344l1.19922-.25781m12.41016-.72266l-1.95703 6.75m1.67187-5.76953l1.19922-.25m9.70703-.42187l3.4336 6.13281m8.64843-4.97656l5.89844 3.82031m6.85938-1.66797l7.01171-.48437m10.83204.24218l-.01954-.19921-.05859-.19141-.09375-.17578-.46094-.3789-.1914-.0586-.19922-.01953-.19922.01953-.1914.0586-.45704.3789-.09765.17578-.0586.1914-.01953.19922.01953.19922.0586.1914.09765.17579.45703.3789.19141.0586.19922.01953.19922-.01953.1914-.0586.46094-.3789.09375-.17578.0586-.1914.01953-.19923m11.46484-3.41406l1.65625 6.82813m11.39844-6.75782l2.17187 6.6836m-1.85547-5.71094l.85547-.88281m12.49219-.17969l1.48047 6.86719m-1.26563-5.8711l.9375-.78906m12.35157-.24219l1.10156 6.9375m-.9414-5.92968l.98046-.73829m12.30469-.28906l.83984 6.97656m-.71875-5.96093l1.00781-.70313m12.58985-.33984l.03125 7.02734m-.02735-6.0039l1.08204-.58204m15.125 1.0586l-5.75782 4.03125m4.91797-3.44531l1.09375.55859"/><g clip-path="url(#aa)"><path fill="none" stroke="#000" stroke-linecap="round" stroke-linejoin="round" stroke-miterlimit="10" stroke-width=".5" d="M146.15625 357.71875l-4.3125 5.55078"/></g><path fill="none" stroke="#000" stroke-linecap="round" stroke-linejoin="round" stroke-miterlimit="10" stroke-width=".5" d="M146.15625 357.71875l2.41797.41797m10.98047-.35156l-4.48047 5.41406m4.48047-5.41406l2.40625.49609m11.14844-.27734l-4.95704 4.98046m4.95703-4.98046l2.34766.71093m10.91016-.76953l-4.84375 5.09375m4.84375-5.09375l2.36328.66016m11.09375-.51563l-5.1289 4.8047m5.1289-4.8047l2.32031.79297m11.21484-.53125l-5.5664 4.28516m5.5664-4.28516l2.23438 1.01172m10.85547-1.28125l-5.11719 4.82031m5.11719-4.8203l2.32422.78905m10.8789-.90234l-4.89062 5.04688m4.89062-5.04688l2.35547.6836m11.07422-.5625l-5.125 4.80859m4.3789-4.10938l1.16407.39453m12.79297-1.19921l-4.91406 5.01953m4.19921-4.28907l1.17579.34375m12.6875-1.22656l-4.58203 5.32422m3.91796-4.55078l1.19532.26953m11.49609-1.75l-2.00781 6.73438m1.71484-5.75391l1.20313-.24219m13.05468-.47265l-3.30468 6.20312m2.82422-5.30078l1.22656.0039m12.21484-1.0664l-2.59765 6.52734m2.21875-5.57812l1.22265-.13672m12.25781-.89063l-2.17187 6.6836m1.85547-5.71094l1.21094-.21484m9.0664-.10157l4.53516 5.3672m7.6875-3.70313l6.72265 2.03906m6.75-2.46485l6.40625 2.89063m-5.47265-2.46875l-.08203-1.22266m13.30468-.35546l4.72657 5.20312m-4.03907-4.44531l.41407-1.15235m14.12109-.48828l.91016 6.96875m-.77735-5.95312l1-.71094m13.0039-.3125l-.73437 6.98828m.62891-5.97265l1.13672-.46094m11.32031-.52344l1.19531 6.92578m-1.02343-5.91797l.97265-.7539m12-.21875l1.53516 6.85546m-1.3125-5.85937l.92969-.80078m11.52734.00781l2.80469 6.44531m-2.39453-5.5078l.76172-.95704m12.05859.0586l2.97266 6.36718"/><g clip-path="url(#ab)"><path fill="none" stroke="#000" stroke-linecap="round" stroke-linejoin="round" stroke-miterlimit="10" stroke-width=".5" d="M145.15234 343.85938l-2.30468 6.63671"/></g><path fill="none" stroke="#000" stroke-linecap="round" stroke-linejoin="round" stroke-miterlimit="10" stroke-width=".5" d="M145.15234 343.85938l2.42578-.37891m11.125.46875l-2.77734 6.45703m2.375-5.51563l1.22266-.10156m13.28125-.3711l-4.34766 5.51954m4.34766-5.51953l2.41406.4375m11.20703-.16797l-4.96094 4.98047m4.96094-4.98047l2.34766.71094m10.96484-.71094l-4.95703 4.98047m4.95703-4.98047l2.34766.71094m11.11328-.5586l-5.2461 4.67579m5.2461-4.67579l2.30078.85157m10.72656-1.13672l-4.67187 5.25m4.67187-5.25l2.38281.57812m11.06641-.45312l-4.9414 4.9961m4.9414-4.9961l2.35156.70312m11.16016-.49219l-5.33594 4.57422m4.5586-3.90625l1.14453.44532M266.375 344.75l-5.07813 4.85547m4.33985-4.14844l1.16406.38281m12.3789-1.52734l-4.05859 5.73438m3.46875-4.90235l1.21875.15625m12.39063-1.17969l-3.46875 6.11329m2.96484-5.22266l1.22656.03515m12.33204-1.05859l-2.94922 6.3789m2.52343-5.44921l1.22266-.07031m12.84375-.6875l-3.59766 6.03515m3.07422-5.15625l1.22657.0586m11.88671-1.26563l-2.14843 6.6914m1.83593-5.71874l1.20704-.21485m11.29687-.92578l.10156 7.02735m-.08593-6.00391l1.07421-.58984m11.75391-.39454l1.04297 6.94922m-.89063-5.9375l.98438-.73046m10.98437.1289l3.4297 6.13281m-2.9297-5.24218l.66407-1.03125m14.01562-.3047l-.30078 7.01954m.25781-6l1.10547-.52734m11.3086-.40625l1.58984 6.84765m-1.35938-5.85156l.92579-.80469m11.83203-.09765l2.2461 6.66015m13.96093-6.36328l-3.53906 6.07031m16.41015-6.29296l-2.65234 6.51171m13.7539-6.65625l1.77344 6.80079m-1.51562-5.8125l.90234-.82813m15.96094 1.28516l-5.83594 3.91015"/><g clip-path="url(#ac)"><path fill="none" stroke="#000" stroke-linecap="round" stroke-linejoin="round" stroke-miterlimit="10" stroke-width=".5" d="M143.02344 330.48828l1.95312 6.75"/></g><g clip-path="url(#ad)"><path fill="none" stroke="#000" stroke-linecap="round" stroke-linejoin="round" stroke-miterlimit="10" stroke-width=".5" d="M143.3086 331.46875l.8789-.85156"/></g><path fill="none" stroke="#000" stroke-linecap="round" stroke-linejoin="round" stroke-miterlimit="10" stroke-width=".5" d="M155.98828 330.60938l2.65234 6.5078m-2.26562-5.5625l.78516-.9414m12.44922-.11328l2.04296 6.72656m-1.74609-5.7461l.86719-.86718m11.3125.26563l3.71875 5.96484M182.6289 331.75l.61328-1.0625m12.38672.0625l3.26172 6.22266m-2.78907-5.31641l.6914-1.01172m12.48048-.04687l2.60156 6.53125m-2.22266-5.58204l.79297-.93359m14.86719.03516l-2.84375 6.42969m2.42969-5.4922l1.22265-.08984m12.54297-.82812l-2.91797 6.39062m2.4961-5.46093l1.22265-.07422m13.11328-.50781l-4.11718 5.6953m3.51953-4.86718l1.21484.16797m12.48828-1.13672l-3.6953 5.97656m3.15624-5.10547l1.22656.07813m12.8672-.78906l-4.17579 5.65625m3.5664-4.83204l1.21485.1797m12.9414-.81641l-4.63671 5.28125m3.96094-4.51172l1.1953.28125m12.75782-1.08203l-4.5625 5.34375m3.89844-4.56641l1.19922.26563m13.125-.70313l-5.25391 4.66406m4.49219-3.98437l1.14844.42578m12.88671-1.15235l-5.16796 4.75782m5.16796-4.75781l2.31641.8125m10.3086-1.39454l-3.78907 5.91797m3.23828-5.05469l1.22266.09766m8.8125-.9336l3.8711 5.8672m-3.3086-5.01172l.58984-1.07813m10.84375 1.83203l6.50781 2.64844m-6.5078-2.64844l-.25-2.4414m13.33593 3.30859l6.96875.91406m-5.95313-.78125l-.42968-1.15234m13.4375-.67578l5.55078 4.30469m-4.74219-3.6797l.20703-1.20702m11.94531 1.14062l6.26172 3.1875m-5.35156-2.72265l-.02344-1.22657m15.60938-1.15625l-.10547 7.02344m15.64453-6.1875l-4.55078 5.35156m3.88672-4.57422l1.19922.26172m12.33984-1.35937l-3.67187 5.99219m14.72265.49218l.85938-6.97656m-.73438 5.96094l-1.14453.4375"/><g clip-path="url(#ae)"><path fill="none" stroke="#000" stroke-linecap="round" stroke-linejoin="round" stroke-miterlimit="10" stroke-width=".5" d="M142.60547 317.32422l2.78906 6.44922"/></g><g clip-path="url(#af)"><path fill="none" stroke="#000" stroke-linecap="round" stroke-linejoin="round" stroke-miterlimit="10" stroke-width=".5" d="M142.60547 317.32422l1.53125-1.91797"/></g><path fill="none" stroke="#000" stroke-linecap="round" stroke-linejoin="round" stroke-miterlimit="10" stroke-width=".5" d="M155.20313 317.73828l4.22265 5.61719m-4.22266-5.61719l1.03907-2.22265m12.125 2.34375l4.52734 5.375m-4.52734-5.375l.91406-2.27735m11.96094 2.72266l5.40625 4.48437m-5.40625-4.48437l.4961-2.40235m12.3789 3.07422l6.28515 3.14453m-6.28515-3.14453l-.0625-2.45312m13.30078 2.6211l6.4414 2.80858m-5.5039-2.40234l-.09766-1.22265m13.02735-.06641l5.33593 4.57422M222 318.92578l.26563-1.19531m12.85546-.01172l4.17188 5.65625m-3.5664-4.83203l.53124-1.10547m11.94922.46484l4.6289 5.28907m-3.95702-4.51954l.4375-1.14453m13.65625-.38671l1.72656 6.8125m-1.47656-5.82032l.90625-.82422m13.62109-.22265l-1.19922 6.92578m1.02344-5.91797l1.16797-.38281m12.33203-.625l-1.21875 6.92187m13.27734-6.91406L304.42578 324m-1.10156-5.90234l.95703-.76563m12.375-.26953l.8789 6.97266m-.75-5.95704l1.00391-.70703m14.20313.03907l-3.16406 6.27343m2.70703-5.35937l1.22656-.02735m12.52344-.89843l-3.1172 6.29687m2.66407-5.3789l1.22656-.03516m11.6211-1.1875l-1.27735 6.91016m1.27735-6.91016l2.34375-.73828m8.27734 1.34375l4.11328 5.69922m-3.51562-4.8711l.53906-1.10156m11.85156.53906l4.76172 5.16797m-4.0664-4.41797l.40625-1.15625m11.2539 1.90235l6.6836 2.17187m-5.71094-1.85547l-.21094-1.20703m12.57031.83985l6.64844 2.27734m-5.67969-1.94922l-.19531-1.21094m12.76172.375l6.21094 3.28907m-5.3086-2.8086v-1.22656m13.0039-.0625l5.02735 4.91016m8.50782-5.1172l4.58593 5.32423m13.38282-.0586l-4.71875-5.20703m4.03125 4.44922l-.41407 1.15235"/><path fill="#00f" fill-rule="evenodd" d="M383.80078 432.14063h8.61719v-10.14454h-8.61719v10.14454"/><path fill="azure" fill-rule="evenodd" d="M385.63281 423.82813h.83203v2.82421h3.28907v-2.82421h.83203v6.48046h-.83203v-2.91796h-3.28907v2.91796h-.83203v-6.48046"/><path fill="#ff3030" fill-rule="evenodd" d="M295.72656 414.38672h7.69531v-10.14453h-7.6953v10.14453"/><path fill="azure" fill-rule="evenodd" d="M297.5586 406.07422h.83593v5.74219h3.1914v.73828h-4.02734v-6.48047"/><path fill="#00f" fill-rule="evenodd" d="M370.48438 396.63281h8.62109v-10.14453h-8.6211v10.14453"/><path fill="azure" fill-rule="evenodd" d="M372.3164 388.32031h.83594v2.82422h3.28516v-2.82422h.83203v6.48047h-.83203v-2.91406h-3.28516v2.91406h-.83593v-6.48047"/><path fill="#ff3030" fill-rule="evenodd" d="M189.20703 392.19531h7.6914v-10.14453h-7.6914v10.14453"/><path fill="azure" fill-rule="evenodd" d="M191.03906 383.88281h.83594v5.73828h3.1914v.7422h-4.02734v-6.48048"/><path fill="#ffffe0" fill-rule="evenodd" d="M315.11328 359.55469h22.17969v-10.19531h-22.17969v10.1953"/><path fill-rule="evenodd" d="M318.61328 351.19531h.50781v6.29297h-.78515V353h-1.39063v-.55469l.5625-.0664.25-.0547.23047-.08983.20313-.14063.17578-.21094.14062-.29297.10547-.39453m4.8125 0l.23047.01563.21875.0586.20703.08983.19922.1211.1836.14844.17187.17578.30078.41797.24219.49609.17969.54297.11328.58203.03515.58984-.03515.59375-.11329.58204-.17968.55468-.24219.5039-.30078.42579-.17188.17969-.18359.15625-.19922.1211-.20703.09374-.21875.05469-.23047.01953-.22656-.01953-.21875-.05469-.21094-.09375-.19531-.1211-.1836-.15624-.17187-.17969-.30078-.42578-.2461-.5039-.17968-.5547-.10938-.58203-.03906-.59375h.83203l.03125.5625.08203.50782.125.4414.16406.375.1875.30078.21094.22266.22266.13672.22656.04687.22656-.04687.22266-.13672.21094-.22266.1914-.30078.16407-.375.125-.4414.08203-.50782.02734-.5625-.02734-.5625-.08203-.5-.125-.43359-.16407-.36719-.1914-.29297-.21094-.21484-.22266-.1289-.22656-.04688-.22656.04687-.22266.12891-.21094.21484-.1875.29297-.16406.36719-.125.4336-.08203.5-.03125.5625h-.83203l.03906-.58985.10938-.58203.17969-.54297.24609-.4961.30078-.41796.17188-.17578.18359-.14844.19531-.1211.21094-.08984.21875-.0586.22656-.01562m5.09375 0h.50781v6.29297h-.78515V353h-1.39063v-.55469l.5586-.0664.2539-.0547.23047-.08983.20313-.14063.17187-.21094.14453-.29297.10547-.39453m2.82031 2.17188h.78907l.01953-.3125.0586-.28906.10155-.25.13672-.21875.1836-.17188.22265-.1289.26563-.08204.3086-.02734.23827.02344.22266.0625.20312.10156.1797.13672.14843.17578.11328.20312.07031.23829.02735.26171-.02344.26954-.0664.22656-.10938.1914-.15625.17188-.19922.16015-.2461.16797-.63671.38672-.53516.3125-.4375.32031-.34766.32422-.26171.33594-.19141.34766-.125.3711-.07031.39452-.01954.41797h4.21094v-.74219h-3.33203l.08203-.28125.11328-.23828.14844-.19922.1875-.18359.23047-.16797.28125-.17578.71484-.41797.41797-.20703.34375-.23047.28125-.25.21875-.26562.16406-.28125.11329-.28125.0625-.28516.01953-.28125-.04297-.38281-.11719-.34766-.1914-.3086-.25-.26562-.30079-.21094-.34765-.16015-.3789-.09766-.40626-.03125-.4375.03125-.39844.09766-.35156.16797-.30469.23437-.25.30469-.1875.375-.11328.44531-.04297.51563"/><path fill="#ffffe0" fill-rule="evenodd" d="M199.71484 357.53516h22.1836v-10.19141h-22.1836v10.1914"/><path fill-rule="evenodd" d="M203.21484 349.17578h.51172v6.29688h-.78906v-4.4922h-1.38672v-.55468l.5586-.0664.2539-.05079.22656-.08984.20313-.14453.17578-.20703.14063-.29688.10546-.39453m4.81641 0l.22656.01953.21875.05469.21094.08984.19531.1211.1836.14844.17187.17578.30078.42187.24219.49219.17969.54687.11328.57813.03906.59375-.03906.58984-.11328.58594-.17969.55469-.24219.5-.30078.42969-.17187.17968-.1836.15235-.19531.125-.21094.08984-.21875.0586-.22656.01952-.23047-.01953-.21875-.05859-.20703-.08984-.19922-.125-.1836-.15235-.17187-.17969-.30078-.42968-.24219-.5-.17968-.55469-.11328-.58594-.03907-.58984h.83594l.02734.5625.08203.5039.125.44532.16407.3711.1914.30077.21094.22266.22266.13672.22656.04687.22656-.04687.22266-.13672.21094-.22266.1875-.30078.16406-.3711.125-.4453.08203-.50391.03125-.5625-.03125-.5625-.08203-.5-.125-.4375-.16406-.36328-.1875-.29297-.21094-.21485-.22266-.1328-.22656-.04298-.22656.04297-.22266.13281-.21094.21485-.1914.29297-.16406.36328-.125.4375-.08204.5-.02734.5625h-.83594l.03906-.59375.11329-.57813.17968-.54687.2422-.49219.30077-.42187.17188-.17579.1836-.14843.19921-.1211.20703-.08984.21875-.05469.23047-.01953m5.08984 0h.50782v6.29688h-.78516v-4.4922h-1.39063v-.55468l.5625-.0664.25-.05079.23047-.08984.20313-.14453.17578-.20703.14063-.29688.10546-.39453m2.82422 2.17578h.78516l.01953-.3164.0586-.28516.10156-.2539.14062-.21485.17969-.17578.22266-.1289.26562-.07813.3086-.02735.23827.01954.22266.0625.20313.10156.17968.14062.14844.17188.11328.20703.07422.23437.02344.26563-.02344.26953-.0625.22266-.11328.1914-.15234.17188-.20313.16406-.2461.16406-.6328.39063-.53907.3125-.4375.3164-.34765.32422-.26172.33594-.1914.35156-.125.3711-.06642.39062-.02343.42188h4.21484v-.7422h-3.33594l.08594-.28515.11328-.23437.14844-.20313.1875-.17969.23047-.17187.27734-.17578.71875-.41797.41406-.20313.34375-.23046.28125-.25391.22266-.26563.16016-.27734.11328-.28515.0625-.28516.01953-.28125-.03906-.38281-.1211-.34766-.1914-.3086-.25-.26171-.30078-.21485-.34766-.15625-.3789-.09765-.40626-.03516-.43359.03125-.39844.10156-.35547.16407-.30468.23437-.25.30469-.1836.375-.11719.44531-.03906.51953"/></g></defs><use xlink:href="#ag"/></svg>