<svg xmlns="http://www.w3.org/2000/svg" role="img" xmlns:xlink="http://www.w3.org/1999/xlink" viewBox="142.45 309.95 326.84 171.84"><defs><clipPath id="a"><path d="M144 311.67188h1v168.65625h-1zm0 0"/></clipPath><clipPath id="b"><path d="M144 311.67188h324v168.65625H144zm0 0"/></clipPath><clipPath id="c"><path d="M467 311.67188h1v168.65625h-1zm0 0"/></clipPath><clipPath id="d"><path d="M144 479h4v1.32813h-4zm0 0"/></clipPath><clipPath id="e"><path d="M147 480h2v.32813h-2zm0 0"/></clipPath><clipPath id="f"><path d="M153 479h9v1.32813h-9zm0 0"/></clipPath><clipPath id="g"><path d="M160 480h3v.32813h-3zm0 0"/></clipPath><clipPath id="h"><path d="M166 479h9v1.32813h-9zm0 0"/></clipPath><clipPath id="i"><path d="M173 480h3v.32813h-3zm0 0"/></clipPath><clipPath id="j"><path d="M180 479h8v1.32813h-8zm0 0"/></clipPath><clipPath id="k"><path d="M187 480h2v.32813h-2zm0 0"/></clipPath><clipPath id="l"><path d="M193 479h8v1.32813h-8zm0 0"/></clipPath><clipPath id="m"><path d="M200 480h2v.32813h-2zm0 0"/></clipPath><clipPath id="n"><path d="M206 479h9v1.32813h-9zm0 0"/></clipPath><clipPath id="o"><path d="M213 480h2v.32813h-2zm0 0"/></clipPath><clipPath id="p"><path d="M220 479h8v1.32813h-8zm0 0"/></clipPath><clipPath id="q"><path d="M227 480h2v.32813h-2zm0 0"/></clipPath><clipPath id="r"><path d="M233 479h8v1.32813h-8zm0 0"/></clipPath><clipPath id="s"><path d="M240 480h2v.32813h-2zm0 0"/></clipPath><clipPath id="t"><path d="M246 479h9v1.32813h-9zm0 0"/></clipPath><clipPath id="u"><path d="M253 480h2v.32813h-2zm0 0"/></clipPath><clipPath id="v"><path d="M260 479h8v1.32813h-8zm0 0"/></clipPath><clipPath id="w"><path d="M273 479h8v1.32813h-8zm0 0"/></clipPath><clipPath id="x"><path d="M279 480h2v.32813h-2zm0 0"/></clipPath><clipPath id="y"><path d="M286 479h9v1.32813h-9zm0 0"/></clipPath><clipPath id="z"><path d="M292 479h2v1.32813h-2zm0 0"/></clipPath><clipPath id="A"><path d="M300 478h8v2.32813h-8zm0 0"/></clipPath><clipPath id="B"><path d="M305 479h3v1.32813h-3zm0 0"/></clipPath><clipPath id="C"><path d="M314 477h6v3.32813h-6zm0 0"/></clipPath><clipPath id="D"><path d="M328 476h4v4.32813h-4zm0 0"/></clipPath><clipPath id="E"><path d="M341 476h5v4.32813h-5zm0 0"/></clipPath><clipPath id="F"><path d="M355 476h4v4.32813h-4zm0 0"/></clipPath><clipPath id="G"><path d="M366 479h9v1.32813h-9zm0 0"/></clipPath><clipPath id="H"><path d="M379 479h9v1.32813h-9zm0 0"/></clipPath><clipPath id="I"><path d="M380 479h2v1.32813h-2zm0 0"/></clipPath><clipPath id="J"><path d="M393 479h8v1.32813h-8zm0 0"/></clipPath><clipPath id="K"><path d="M391 478h3v2.32813h-3zm0 0"/></clipPath><clipPath id="L"><path d="M409 476h3v4.32813h-3zm0 0"/></clipPath><clipPath id="M"><path d="M422 476h3v4.32813h-3zm0 0"/></clipPath><clipPath id="N"><path d="M436 476h2v4.32813h-2zm0 0"/></clipPath><clipPath id="O"><path d="M447 477h7v3.32813h-7zm0 0"/></clipPath><clipPath id="P"><path d="M460 478h8v2.32813h-8zm0 0"/></clipPath><clipPath id="Q"><path d="M144 466h4v2h-4zm0 0"/></clipPath><clipPath id="R"><path d="M144 453h4v2h-4zm0 0"/></clipPath><clipPath id="S"><path d="M144 439h4v3h-4zm0 0"/></clipPath><clipPath id="T"><path d="M144 424h4v6h-4zm0 0"/></clipPath><clipPath id="U"><path d="M144 411h4v6h-4zm0 0"/></clipPath><clipPath id="V"><path d="M465 410h3v2h-3zm0 0"/></clipPath><clipPath id="W"><path d="M144 398h4v5h-4zm0 0"/></clipPath><clipPath id="X"><path d="M465 397h3v2h-3zm0 0"/></clipPath><clipPath id="Y"><path d="M144 385h4v5h-4zm0 0"/></clipPath><clipPath id="Z"><path d="M465 383h3v2h-3zm0 0"/></clipPath><clipPath id="aa"><path d="M144 371h4v5h-4zm0 0"/></clipPath><clipPath id="ab"><path d="M465 370h3v2h-3zm0 0"/></clipPath><clipPath id="ac"><path d="M144 359h4v3h-4zm0 0"/></clipPath><clipPath id="ad"><path d="M144 346h4v3h-4zm0 0"/></clipPath><clipPath id="ae"><path d="M465 344h3v2h-3zm0 0"/></clipPath><clipPath id="af"><path d="M144 331h4v5h-4zm0 0"/></clipPath><clipPath id="ag"><path d="M466 331h2v3h-2zm0 0"/></clipPath><clipPath id="ah"><path d="M465 332h3v2h-3zm0 0"/></clipPath><clipPath id="ai"><path d="M144 316h1v9h-1zm0 0"/></clipPath><clipPath id="aj"><path d="M144 315h2v3h-2zm0 0"/></clipPath><clipPath id="ak"><path d="M465 317h3v2h-3zm0 0"/></clipPath><g id="al" clip-path="url(#clip1)"><path fill="#fff" fill-opacity="0" fill-rule="evenodd" d="M0 0h1000v1000H0zm0 0"/><path fill="#d3d3d3" fill-opacity="0" fill-rule="evenodd" d="M162.15234 355.86719l-.23437.29297.0586.23437.11718.17188.17578.23437.29297.34766.11328.0586.11719-.17188.0586-.23438.17577-.17578.46485-.17578h.69922l.23437.29297.28906.8164.0586.17579.17578.23046.35156.23438.69922.69922.17188.17578.23437.34765.23438.41016.28906.58203.41015.46485.23047.23437.23438.17578.11719.23047.17578.29297.17187 1.16406v.23438l.0586.28906.05859.11719.11719.11719.34765.41015.11719.17188.17578.17578.17578.23437.11719.17188.17188.35156.05859.23438.23437.40625.23438-.0586-.17578.17578-.0586.92969h-.58203l-.23437-.11328-.34766.11328-.11719.11719-.05859.29297-.0586.17578-.11718.17187-.46484.29297-.0586.23438-.0586.11328v.64453l.0586.17187v.41016l.0586.0586v.40624l.05859.40625.11719.17579.05859.05859.23047.64062-.0586.29297v.69922l-.05859.58203v.23438l-.0586.23047-.05468.35156v1.92187l.05469.1172h.42578l-.36719.11718-.02344.35156.89063 1.16797 1.74219.53906 1.33984.35938v.53906l.08984.8086.53516.71484 1.51953.26953.89063-.08594.08984 1.16406.53516.1797 1.16015-.1797 2.05469-.98437 1.16016-.36328 1.8789-.17578 1.69531-.1797-.17968.71876-1.51563.08594-1.25.08984-.80469.26953-1.07421.8086.26953.71875.53515.89843-.17968.625-.26563.8086.26563 1.07812.625.89844.80468.17969 1.25-.1797-.26562.72267.09766.5039.05468.29297v.17188l.0586.29296v.40625l.17578.1172.35156.11718h.40625l.29297-.17578.11328-.11719.0586-.11719.11718-.23047.0586-.17578.35156-.46484.23047-.17578.17578-.0586.17578.0586.0586.17578.11718.98828.05469.46875.0586.17188.11718.23437.17578.0586.8164.05859h.28907l.11719.23437.05859.40625.0586.35156v1.10547l.11718.29297.11719.34766.28906.69922.17578.35156.58203.7539.35157.17579.17187.0586.46875.23437.64063.46484.34765.23438.29297.17578.29297.05468.23047.0625.8164.34766.29297.17578.11328.17188.35157.35156.11719.17578.52343.64063v.28906l.0586.35156v.34766l.05859.35156.0586.28906.11718.0586.17188.05859h.17578l.58203.23437.17578.1172.17578.28905.17578.23438.11328.23437.29297.23047.11719.11719v.41016l.0586.05468.28906.23438.23437.11719.0586.11718.11718.17188.0586.11719.23047.23437.05859.17578.23437.0586.1172.05859-.1172.11328-.05859.11719v.11719l-.11719.29296-.11719.28907v.58203l.17579.11719.11718.05859.0586.11719.11719.11719.11328.05859.17578.34765.0586.35157.05858.40625v.17578l-.05859.17578-.11719.69922v.17187l.1172.17579.29296.29296h.40625l.17578.1172.11719.17187.11719.29296v.23438h-.52735l-.23047-.23438h-.23437l-.17578.0586-.0586.69922.0586.34765.11719.17579.17578.41015.11718.23047.28907.46875.17578.05469h.52344l.23437.0586.75781.64062.0586.29296v.23438l.05859.0586.23047.34765v.35156l-.11719.17188v.29297l.29297.28906.29297.17578.17187.0586.29297.17577.29297.1172.58203.40624.28906.23438.29297.17578.21875.16015.01563.01172.23047.17579.64062.52343.17578.23438.1172.17578.17577.17578.11328.17188v.64062l.1172.17578.46874.11719.58203.11719.23438.05859.23047.11328.29297.11719.11328.0586.58593.35156.28907.17187.17578.0625.17578.05469.17578.0586.69922.35155.28906.17579.23438.05468.28906.17578.23437.1172.64063.40624.29297.11719.17187.0586.23438.05859.41015.05859.23047.0586.23438.11718.0586.17188-.41017.17578.46875.0586.0586.29296.11328.23438.17578.05468.23438.0586.17578.05859.40625.11719.64062.23437.11719.17188.0586.23437v.17578l-.0586.1172-.0586.40624.23438.23438.11719.05859.34766.11719.64062.23047.17578.11718.28906.1172.17578.17577.23438.46485.58203 1.10546.17578.17579.34766.17578.17578.11719.35156.11718 1.04688.52344.23437.0586.46485.11327.29297.0586.46484.17578.75781.58203.23438.23438.34765.46484.17578.17578.28907.23438.8164.69921.29297.17579.28906.28906.29297.17578.29297.28906.69531.64063.17578.17578.29297.23437.28907.23438.46875.28906.64062.58203.34766.23438.23437.29297.34766.34765.35156.46485.9336.99218.34765.40625.11719.17579.23437.05859.11328.11719.64454.17578.23047.11328.23437.0586.29297.17577.23047.1172.9336.69921.40624.40625.23438.17578.40625.17578.23437.11719.8164.34766.34766.23437.23438.11719.29297.28906.23047.11719.7578.35156.35157.17188.23047.05859.29297.11719.23437.0586.8711.17577h.8164l.46875.23047.17188.0586.875.69921.46484.1172.29297.05858.17578.0586.23047.0586.46875.05859.34766.05859.35156.0586.40625.05859h.29297l.17187.0586v.23046l.17578.17578h.29297l.34766.0586.35156.05859.69922.11719h.64063l.46484-.23438.29297-.17578.17187-.11719.41016-.17187.28906-.17578.9336-.46485.46875-.29297.52343-.29296.46485-.17188.46484-.17578 1.05078-.46485.28906-.11718.41016-.11719.28906-.11719.52735-.17578 1.51562-.69922.58203-.34765.28907-.0586.29297-.0586.34765-.11718.875-.23047.35156-.11719h.11329l.23437-.05859.875-.23437.23438-.0586h.8125l.35156-.0586.8164-.11718.17188-.0586.35156-.05468.29297-.0586.23047-.05859.8164-.17578.17579-.0586h.34765l.23438-.05859.46484-.11718.75781-.17188.23438-.0586h.34765l.41016-.11718.28906-.0586 1.28516-.05859h.28906l.41016-.0586.23047-.05858h.17578l.875-.1172h.40625l.41015-.11718h.34766l.35156-.11328.8711-.0586h1.75l1.04687.28907.41016.11719.28906.11718.35156.11719.28907.11719 1.05078.17187.28906.0586h.29297l.29297.05859.17187.0586.41016.05859.17187.0586.1172.05858h.11718l.11719.0586.35156.0586h.11328l.41016.0664 1.92187.39453 1.92578.39453 1.51953.44922 1.69532.71875 2.14453.80469 1.60547-.71875 1.42968-.80469 1.16016-1.07813 1.25-.44921 3.03516-.71875 1.875-.35938 2.14453-1.34765 2.23437-1.25391 2.5-1.25781 1.69531-.44922 1.78516-.17969 1.16016-.26953.625.53906 1.33984-.26953.71485-.98828.98437-1.34375.44531-.17969.80469-.35937 1.875-.53907 1.78516-.44921 1.25-.26954 1.16015-.08984 1.69922-.08984 1.96094-.26954 1.25-.08984h.53906l.625-.08984h.89063l2.14453-.17969 2.41015-.17969 2.58985-.08984 1.69531.17969 1.60938.08984 1.42968.35938 1.16016.71875 1.875.98828 1.16015 1.52734.26563.71484.6289.08985.35548.89844.53515.53906.53516 1.52734 1.07422.35938h.53515l-.80469.53515.08985 1.70703.71484 2.69532.89063.80468.89453.98829.71484 1.2578 1.78516.53907 1.51953-.17969.35547 1.34375 1.60937-.80469.98047-.53906.26953.26953.31641-.21484.21875-.14453.80078.44922.44922-.35938h.35547l.53515-.26953.53907-.71875.53515-.26953.625-.98828 1.16016.44922.83984.3711 1.39454.61718 1.6953-.17969h1.60548l1.78515.08985.17969-1.70704.53516-1.34375.80468.26954.4922.84765.40233.40625-.08984.53906v.35938l.71485.44922.71093-.26953h1.42969l.35938.98828.4453 1.25781.71485 1.34375 1.25.6289 1.69531.62891.71485-.17969.17969-.53906.98046-.08984.44922.35937.08594 1.25782-.26563.6289-.53515.17969v.53906l.71484.98438.26563.53906.98437.98828.80078 1.07813-.26562.35937-.08985.89844-.625 2.33203-.35546 2.0664-.08985 1.79298-.17969.71875-.08984.53906v1.4375l-.98047 1.88281-.35937 1.70703-.53516.89844-.80469 1.16797-.26562.53906 2.05469 1.2539.08593.35938-.35546.53906-.08985-.17968v.80859l.08985 1.4375-.44532.71484-1.07422.09375-.26562.71485.53515.89844.8047.71875 1.16015.80859 1.33984.26953.44531.35938-.35546.44921-1.78907-.08984-1.25-.44922-.71484-.71875-.625-.08984-.17578 3.58984-.1875 1.3086h89.35937V311.70313h-55.26953v49.08203l.76172.125 3.28906.54296 2.02344 2.83594v2.7539l2.35156.33204 2.34766.33203h4.05078l-1.3789 4.16016-2.02344.70703-2.02344.70312-.54297.34375-2.59375 1.6172-.1875.11718-2.02344-2.07813-.73046-2.74218-2.67188-2.07813-1.375-3.5-.0664-.08203-1.95704-2.67188 2.75-1.41796v-49.08204H294.42187v91.41407l.1172.03125.1328.01172.07422.07421.10547.04688.08985.0586.08593.05859.08985.0586.29687.29687.0586.08984.03125.11719.02734.11719.01563.13671-.03125.1172-.0586.08983-.0586.08594-.04296.10547-.04688.10156-.02734.1211v.14453l.17578.26953.14844.14844.07422.08594.07422.07421.04296.10547.0625.08985.0586.08593.04297.10547.0586.08985.04687.10156.04296.10547.0586.08594.11719.17968.07421.07422.0625.08594.0586.08984.04297.10547.0586.08985.05858.08593.0625.08985.0586.08984.04297.10156.11719.17969.07421.07422.0586.08594.07422.07421.08984.0586.10547.04687h.14844l.1328-.01562.13282.01562.10156-.04687.07422-.07422.04688-.10156-.01563-.13281v-.14844l-.04687-.10547-.02735-.11719-.04687-.10156-.02735-.1211-.04296-.10156-.0625-.08984-.04297-.10156-.04297-.10547-.03125-.11719-.01563-.13281-.01171-.13672.08593-.0586.0586-.08593.12109-.03125.04297.10547.01562.1328v.1172l.0586.10156.0586.08984.08983.0586.14844.14843.0586.08985.04296.10547-.01171.10156.08593.0586.10547.04687.08594.0586.08984.05858.07422.07422-.11719.02735-.10546.04687-.08594.0586-.07422.07421-.0586.08985-.0625.08594-.02734.12109-.04687.10156-.04297.10547-.03125.11719-.01172.13281-.01563.13281v.14844l.02735.11719.04687.10547.04297.10156.0586.08984.07421.07422.08985.0586.07422.07421.08984.0586.0586.08984.04296.10547.04688.10156.11719.03125.1328.01563h.14845l.11718-.03125.10547.04297.04297.10547.04688.10156.02734.1211L299.5 410l.02734.11719.03125.1211.02735.11718.10547.04297.10156.04687.13281-.01562.14844.14844.0625.08593.07422.07422.07031.07422.08984.0625.10547.04297.10156.04297.1172.03125.13671.01562.11719-.03125.07422-.07422.02734-.11718-.01172-.13282-.03125-.12109-.02734-.11719.04297-.10547h.11719l.08984.0625.11719.02735h.14843l.13282.01562h.14843l.13282.01563.1328-.01563h.14845l.1328-.01562.13282-.01172.13672.01172.11719-.02735.13281-.01562.1914-.0586-.05859.17579-.01562.1328-.02735.1211-.01562.13281-.0586.08594-.1328.01563-.10548.04687-.10546.04297-.1172.03125-.11718.02735-.26563.03125h-.14843l-.13281.01562-.07422.07422.05859.08594.14844.14843.11719.1797.07421.0703.08985.0625.08984.0586.08594.0586.08984.05858.10156.04297.10547.0625.10547.04297.08594.0586.10547.04687.10156.04297.17969.11719.0586.08984-.04298.10156-.04687.10547.01562.13281.22266.22266.0586.08985.04296.10156.03125.1211.04297.10155.01563.13282.03125.11718.01171.13672.03125.11719.14844.14844.10156.04297.10547.04296.1172.03125.1328.01563.13672.01563h.11719l.11719-.03125.08984-.0586.04297-.10547.04688-.10156.04296-.10547.03125-.11719.01172-.1328v-.14845l-.01172-.1328-.01562-.13282-.03125-.11719-.04297-.10547-.04688-.10547-.04296-.10156-.04297-.10547-.01563-.13281.01563-.13281.02734-.11719.03125-.11719.02735-.1211.04687-.10155.08984-.0586.08594-.0625.07422-.07422.08984-.05859.22266-.22266.0586-.08593.07421-.07422.11719-.17969.0586-.08594v-.14844l-.07423-.07421-.10156-.04688-.10547-.04297-.10156-.04297-.0586-.08984-.04687-.10547-.02734-.11719.08984-.05859.11719-.03125.10156-.04297.17969-.11719.14844-.14843.01172-.13282-.01172-.10546-.08985-.0586-.1328.01563h-.14845l-.1328.01562-.13282-.01562-.1211-.03125-.08593-.0586-.07422-.07422-.0586-.08984-.0625-.08594-.11718-.17969-.0586-.08593.03125-.1211.08594-.05859.1211-.03125.05859-.08594v-.1211l-.03125-.11718-.0586-.08984-.05859-.08594-.04687-.10547-.02735-.11719-.01562-.1328.0586-.08985.07421-.07422.08984-.0586.1172-.17968.07421-.07422.0586-.08594.14843-.14844.1211-.03125.1328-.01562.13282.01562.07422.07422.04297.10547.01562.13281-.03125.1172-.11719.03124-.1328.01172-.14844.14844-.04297.10547-.04688.10156-.02734.1211-.03125.11718v.14844l.03125.11719.04297.10546.05859.08985.07422.07031.07422.07422.11719.03125.12109.02734.11719-.02734.1328-.01563h.1172l.08984.0586.07422.07422.04687.10546.0586.08594.10156.04688.13281.01562.10547.04297.08594.0586-.01172.10546-.07422.07422-.17969.11719-.05859.08984-.08984.0586-.07032.07422-.07421.07421-.0625.08985-.02735.11719-.01562.1328.01562.13282-.01562.13281v.14844l.01562.13281.02735.1172.03125.12108.07421.07422.08985.0586.08594.0586.08984.05858.11719.03125v.08594l-.10157.04688-.08984.0586-.26563.03124-.11718.02735h-.14844l-.10547.04296-.10156.04688-.0586.08984-.0625.23438-.01171.13281-.03125.1211-.01563.1328v.29298l-.01172.1328.01172.13673.01563.1328.1328.01563.13282.01172.1211.03125.08593.0586.07422.07421.04688.10547.04296.10157.01563.1328v.44532l-.01563.13281v.44532l.03125.26562.02735.11719.01562.13281.03125.11719.08594.21094.03125.26562v.14844l-.03125.11719-.02734.11718-.03125.1211-.02735.11719-.03125.11718-.03125.1211-.01171.1328-.01563.13282.08984.0586.1172-.03125.10155.01562.04688.10547-.03125.26562v.44141l-.04297.10547-.04688.10547-.04296.10156-.04297.10547-.0586.08594-.03125.12109-.04296.11719-.03125.11719-.01563.1328.01563.13282.05859.08984.10547.04688.08594.0586.05859.08593-.01172.13672-.03125.11719-.04297.10156v.44531l-.01562.13281v.14844l-.03125.11719-.04297.10547-.02735.11719-.04687.10546-.04297.10157-.03125.12109-.02734.11719-.03125.13281-.03125.11719-.02735.11719-.04297.10546-.03125.1172-.03125.12108-.01171.13282-.01563.13281v.29688l.02734.11718v.14844l.04688.39844.02734.11719.0586.08984.12109.03125h.14844l.13281-.01563.0586.08985v.11719l-.0586.08984-.08984.0586-.10157.04296-.10546.04688-.08985.05859-.08594.0586-.13671.01562-.1172-.03125-.1328-.01563-.10157.04688-.0625.08594-.01172.13671-.01562.13282-.03125.11719-.02735.11718-.01562.13281-.03125.1211v.29687l.01563.13282.03125.11718v.14844l.01171.13281v.14844l-.02734.11719-.04688.10156-.02734.1211-.03125.11718-.0586.08985-.07421.07421-.10156.04297-.10547.04688-.11719.02734-.1211.03125-.10156-.04687.0586-.08594.10547-.04688.02734-.11718.03125-.11719.02734-.1211.03125-.11718v-.14844l.01563-.13281-.03125-.11719-.04297-.10547-.10547.01563-.07422.07422-.10156.04296-.08984.0625-.07422.07422-.04297.10157-.01563.1328-.03125.1172L304.25 426l-.03125.11719-.02734.11719-.03125.12109-.02735.11719-.03125.11718-.04297.10547-.08984.0586h-.08984l-.1172-.03125-.03124-.08594.01562-.13672-.03125-.11719v-.14844l-.01171-.1328v-.14844l-.0625-.23438-.02735-.1211-.04297-.10156-.04687-.10546-.0586-.08594-.05859-.08985-.04297-.10546-.0625-.08594-.14844-.14844-.0703-.07422-.10548-.04687-.10547-.04297-.10156-.04297-.29687-.29688-.08985-.07421-.08594-.0586-.10546-.04297-.08985-.0625-.08594-.0586-.10546-.04296-.08985-.0586-.08594-.0625-.07421-.0703-.10547-.04688-.08594-.0586-.10547-.04296-.08984-.0625-.10156-.04297-.10547-.04297-.08594-.0586-.10547-.04687-.10547-.04297-.10156-.04687-.08985-.0586-.10156-.04297-.10547-.04296-.08984-.0625-.11719-.02735-.13281-.01562-.13281.01562H299.75l-.13281.01563-.11719-.03125-.08984-.0586-.07422-.07422-.08985-.05859-.10156-.04688h-.14844l-.12109-.02734-.10156-.04297-.07422-.07422-.11719-.17968-.08984-.0586-.10156-.04297-.08985-.0625-.10547-.04296-.08984-.0586-.08594-.0586-.10547-.04687-.0586-.08594-.05858-.08984-.04297-.10547-.04688-.10156-.07422-.07422-.08594-.0586-.07421-.07421-.08985-.0586-.22265-.22265-.04297-.10547-.03125-.26563.10547-.04296h.14453l.10547.04296.07421.07422.08985.0586.08594.0586.10546.04687.08985.05859.14844.14844.0703.07422.14845.14843.0625.08594.07421.07422.08594.0586.07422.07421.08985.0625.08984.0586.08594.05859.26953.17578.10156.04688.10547.04296.10156.04297.04688-.07421.05859-.08594.07422-.07422.07031-.07422.10547.04297.07422.07422.0586.08984.04296.10156.04688.10547.04296.10547.1211.02735.11719-.02735.07421-.08984.04297-.10547.0586-.08985.07422-.07421.10546-.04297.1172-.02735.1328.01172.08985.0586.14844.14843.05859.08985.04297.10547.04687.10156.04297.10547.04297.10156.10547.04688.10547.04296.13281.01563.08594-.0586.0586-.08984.07421-.07422.10547-.04297.11719.02735.10547.04687.10156.04297.10547.04297.10156.04688.17969.11718v.11719l-.01563.13281.01563.13281.01562.13672.0586.08594.10156.04688.1211.02734.11718.03125h.14844l.11719-.03125.05859-.08984.17969-.1172.05859-.08983.07422-.07422.0586-.08594.11718-.17969.17969-.11719.11719.03125.08984.0586.04297.07422-.01563.1328v.1172l.08985.05859h.14843l.13282-.01563.1328-.01171.26563-.03125.10547-.04297.11719-.03125.1211-.02735.07421-.07421.07031-.07422.0625-.08985-.01562-.10547-.04688-.10156-.10156-.04297-.10547-.01562-.11718.02734-.26563.03125h-.14844l-.07421-.07422-.08985-.0586-.11719-.03124-.11718-.02735-.13282-.01562h-.14843l-.13282.01563h-.29687l-.10547-.04688-.14844-.14844-.04297-.10156-.05859-.08984.22266-.22266.08593-.0586.10547-.04296.11719-.03125.13281-.01563.13281.01563.13672.01562.10157.04297.1328-.01172.08985-.0625.10156-.04297.0625-.08984-.04687-.10156-.08984-.0586-.1172-.03125-.10155-.04296-.0586-.08985-.0625-.08984v-.11719l.01563-.13281.10547-.04688.07421-.07031v-.1211l-.08984-.05859-.03125-.11719.08985-.05859.07421-.07422.04297-.10547.0586-.08984.04687-.10156.01563-.13281v-.14844l-.04688-.10547-.04297-.10156-.08984-.0586-.13281-.01562-.10157-.04297-.13671-.01563-.1172-.03125h-.4453l-.13282-.01562-.13281-.01172-.13281-.01563-.11719-.03125h-.14844l-.13281-.01562-.13281-.01172-.26563-.03125-.1211-.04297-.08593-.0586-.07422-.07421v-.14844l.01172-.13281.10547-.04688.10156-.04296.13281-.01563h.15235l.13281-.01562h.29297l.1211.03125.10156.04296.08984.0586.23438.0625.12109-.04688.08984-.05859.10156-.04297.13282-.01562.10547.04296.10156.04688.13281.01172.1211-.02735h.14453l.12109-.03125.11719-.02734.10547-.04687.07421-.07422.08594-.0586.14844-.14843.0586-.08594.04687-.10547.02734-.11719.01563-.10547-.10156-.04296-.08985-.0586-.11719-.03125-.10546-.04297-.08985-.0625-.07422-.08594-.07422-.07421-.10156-.04297-.10547-.04688-.10156-.04297-.0586-.08984-.04687-.10156-.08594-.21094-.0625-.08594-.05859-.08984-.07422-.07422-.08594-.0586h-.26953l-.11719.03126-.08984.05859-.10156.04297-.13281.01562-.10547-.01562-.02735-.11719-.0625-.08984-.11718-.03125-.10157-.04297-.14843-.14844-.03125-.11719-.01563-.10546.07422-.07422.17969-.1172.11719-.02733.11718-.03125.13672.01562.10156.04297.10547.04297.10156.04687.10547.04297.1172.03125.1328.01563.1172.02734.1328.01563.10547-.01563.08985-.0586-.07422-.07421-.10547-.04297-.07422-.07422-.07422-.08984-.14844-.14844-.08593-.0586-.08985-.05859-.07422-.07422-.08984-.0586-.10156-.04687-.1211-.02734-.10156-.04688-.10547-.04296-.11719-.03125-.10156-.04297-.1211-.03125h-.14843l-.11719.03125-.10546.04297-.08594.0625-.17969.11718-.08594.0586-.08984.0586-.10547.04687-.08594.05859-.10547.04297-.10156.04297-.10547.04687-.07422.07422-.05859.08985-.0586.08593-.04687.10547-.0586.08594-.07421.07422-.13281-.01172-.1172-.03125h-.11718l-.07422.07422-.08984.0586-.07422.07421-.08984.0586-.08594.05859-.10547.04687-.10156.04297-.13672.01563-.10156-.04297-.14844-.14844-.10547-.04688h-.08594l-.10547.04688-.10156.04297-.1211.03125-.11718-.03125-.07422-.07422v-.11719l.03125-.1211.07422-.0703.0586-.08985.07421-.07422.11719-.03125.10547-.04296h.29297l.13281-.01563.13672-.01563.10156-.04296.08985-.0586.10156-.04687.08984-.0586.13281-.01171.08985.05859.13281.01172.08984-.0586.08594-.05859.10547-.04297.08984-.0586.08594-.0625.08985-.05859.14843-.14843.0586-.08594.05859-.08985.10547-.04296.13281-.01563.11719.02735.1211.03125.05859-.0586.05859-.08984.03125-.26563.02734-.11719.10547.01172.13281.01563.10157-.04297.08984-.0586.0586-.08984.07421-.07422.0586-.08984.04687-.10156.01172-.13281-.01172-.13282-.04687-.10547-.14844-.14843-.0586-.08985-.05859-.08594-.04297-.10546v-.44532l.01563-.1328v-.14845l.01172-.1328-.0586-.0586-.08984.0586-.10156-.04298-.17969-.11719-.08594-.05859-.0625-.08984-.0586-.08985-.07421-.07421-.08594-.0586-.1211.03125-.10155.01172-.10547.04688-.08594.05859-.10547.04297-.14844.14844-.08984.05859-.08594.0586-.08984.0625-.10547.04296-.13281.01563v-.1211l.10547-.04297.11718-.03125.07422-.0703.04297-.10548v-.14844l-.02734-.11718-.14844-.14844-.13281-.01563h-.14844l-.11719.03125-.10547.04297-.10156.04297-.08984.0625-.11719.02735-.07422-.07422.01172-.13281-.04297-.10157-.04297-.10547-.08984-.05859-.11719.02734-.1211.03125-.11718.03125-.10156.04297-.1211.03125-.10156.04297-.10547.04297-.08984.0586-.10156.01562v-.11719l.01562-.13281-.0586-.08985-.07421.04297-.14844.14844-.0586.08985-.07421.07421-.04688.10547-.04296.10156-.07422.07422-.0586.08985-.07422.07422-.05859.08593-.07422.07422-.08984.0625-.07422.07031-.07422.07422-.10156.01563-.13281.01562-.10547-.04296v-.1211l.14843-.14844.04297-.10156.0586-.08984.04687-.10156.04297-.10547.0586-.08985.03124-.11719.04297-.10156.03125-.1211.02735-.11718.04687-.10547.04297-.10156.04297-.10547.07422-.07031.08984-.0625.08985-.0586.10156-.04296h.29687l.26563-.03125.10547-.04297-.07422-.07422-.11719-.03125-.10547-.04297-.08984-.0586-.10156-.04687-.08985-.0586-.10156-.04296-.10547-.04297-.08984-.0625-.08594-.0586-.10547-.04296-.10156-.04297-.1211-.03125-.11718-.03125-.10157-.04297L297.5 410.25l-.10156-.04297-.08985-.0586-.04296-.10546-.01563-.13281.10156-.04297.13281-.01563.13672.01563.13282-.01563.10156-.04297.0586-.08984.01562-.10547-.08985-.0586-.07421-.07421-.10157-.04297-.08984-.0586-.14844-.14843-.04297-.10547-.01562-.13281v-.29297l-.0586-.08985-.08984-.05859-.07422-.07422-.04297-.10547-.03125-.11718-.0586-.08985-.07421-.07422-.11719-.02734-.07422-.07422-.08984-.0586-.08984-.0625-.08594-.05859-.07422-.07421-.0586-.08594-.04687-.10547-.08594-.0586-.14843-.14843-.19532-.0586-.1328.01563-.10157.04297-.07422.07422-.04688.10156-.04296.10547-.0586.08984-.0586.08594-.29687.29687-.08984.0586h-.08594l-.0625-.08594-.04297-.10547.03125-.11719.0586-.08984.02734-.11719-.01172-.13281-.08984-.0625-.10547.04688-.11719.02734-.11719.03125-.26953.17578-.10156.04688-.11719.02734-.10546.04687-.08985.0586-.10156.04297-.0586-.08594-.04687-.10547.01563-.13281.04687-.10547.07031-.07422.07422-.07031.0586-.08985v-.14843l-.04297-.10547h-.23829l-.10156.04687-.03125.11719-.02734.11719-.03125.1211-.07422.04296-.13281.01563-.07422-.04688-.04297-.10156-.04297-.10547-.04687-.10156-.04297-.10547-.1211.03125-.10156.04297-.13281.01562-.11719.03125-.10547.04297-.08984.0586-.10156.04687-.1211.02734-.13281.01563-.10156-.04297-.0586-.08985-.04687-.10546-.04297-.10157-.04297-.10546v-.1172l.0586-.08984.08593-.05859.17969-.11719.10156-.04687.10547-.04297.10547-.0586.10156-.04296.08985-.0625.10156-.04297.10547-.0586.10156-.04687.08984-.0586.10547-.04296.10156-.04297.08985-.0625.10156-.04297.13672-.01563.11719.03125.10156.04297.1211.03125.10156.04297.10546.04688.10157.04296.10547.04297.10156.04688.10547.04297.10156.04297.10547.04687.08594.0586.10546.04296.1172.03125.10546.04297.10156.04688.08985.0586.10547.04296.10156.04297.10547.04687.11719.02735.10156.04687.1211.02735h.14843l.08594-.0586.01562-.10156.0586-.08984-.02735-.1172-.07422-.07421-.11719-.17969-.07421-.07422-.08985-.07421-.17969-.1172-.08593-.05859-.10547-.04296-.10156-.04688-.26954-.17578-.05859-.08985-.07422-.07421-.0586-.08985-.04296-.10156-.03125-.11719-.01563-.13672v-.5625l-.01171-.1328-.01563-.13282-.03125-.11719-.01562-.13281-.01172-.13281-.03125-.1211-.22266-.22265-.0586-.08594-.01562-.10547.03125-.11719.13281-.01562v-91.41406H172.9922v1.45312l-.0586.23438-.35156 1.05078-.17187.52343-.1172.34766-.17577.41016-.11719.17187-.23438.29297-.23046.0586h-.35157l-.11718.05859-.23047.40625v.29297l.11719.17578.23046.23047.1172.23437.64062.75781.29297.46485.17578.23437.23047.35156.23437.34766.64063.8164.17578.46485.17187.41016.11719.69531.17578.46875.11719 1.39844.0586.46484v.875l.11718 1.04688v4.78125l-.0586.46484-.35156 1.28125-.17578.52344-.11328.41015-.35156.9297L172.93359 336l-.23437.58203-.11719.17578-.17187.34766-.17578.40625-.35157.8164-.0586.29297-.11327.29297-.11719.28906-.0586.17579-.11718.875-.0586.40625-.05859.11718-.0586.17579-.05859.17187-.23047.52734-.11718.17188v.23437l-.11719.23438-.0586.17187-.17577.58594v.28906l-.0586.17579v.29296l-.0586.11329-.05859.52734v.17187l-.05468.23438v2.6211l-.17578.8164-.1172.17578-.17577.23438-.1172.17187-.11327.23438-.58594.93359-.23047.28906-.29297.46485-.17578.23437-.28906.35156-.35156.69922-.11328.23047-.17579.41016-.17578.23046-.40625.52735-.8164.69922-.29297.17187-.28906.23438-.17579.11719-.17578.17578-.52344.40625-.52734.17578-.17187.17578-.23438.05469-.64062.17578h-.75782m12.21094 31.02344l-1.07422.44921.35938.89454 1.25-.71485.44531-.53906-.98047-.08985"/><path fill="#d3d3d3" fill-opacity="0" fill-rule="evenodd" d="M201.50781 416.59766h-.89453l.44922.6289.98047.35938.80469-.08985.4453-.98828-.17577.08985-.71485-.35547-.89453.35547m154.6211 59.0703l-.0586-.52343v-.29297l.11328-.29297.0586-.23046.46875-.46875h.11328l.11719-.11329.11718-.05859h.17579l.23437-.0586h.34766l.23437.0586.11719.0586.23047.17187.0586.17578.11718.58203v.29297l-.11719.17578-.17187.28906-.17579.17579-.52734.52343-.23047.23438-.11719.0586h-.17578l-.11718-.0586-.40625-.29297-.17579-.11719-.11718-.0586-.0586-.11327-.05468-.1172m6.64062-10.95702l-.0586-.17188v-1.10937l.0586-.17188.17578-.0586.17188-.05858h.17578l.23437-.0586.1172.0586.05858.69921-.05859.17188-.11719.17578-.11718.0586-.23438.52343-.11328.0586h-.23438l-.05859-.1172m9.61328-14.39062l-.11719-.17578v-.69922l.29297-.875.1172-.17187.17577-.35156.11328-.23047.1172-.29297.35155-.75781.1172-.23047.17187-.23438h.17578l.11719-.0586h.64062l.11719.0586.23437.23438.17188.11328.35156.29297.11719.11718.11328.17579v.11328l.11719.05859.11718.11719v.69922l-.05859.17578v.23047l-.0586.17578-.34765 1.05078-.11719.23047-.11719.23437-.11718.0586-.23047.23437-.64063.28906h-.875l-.41015-.11718-.64063-.46485"/><path fill="none" stroke="#bebebe" stroke-linecap="round" stroke-linejoin="round" stroke-miterlimit="10" stroke-width=".5" d="M467.95703 311.69531H144.02734v168.625h323.9297v-168.625"/><g clip-path="url(#a)"><path fill="#fff" fill-opacity="0" fill-rule="evenodd" d="M144 475.89063v4.4375h.0039H144V311.67188h.0039H144v164.21875"/></g><g clip-path="url(#b)"><path fill="#fff" fill-opacity="0" fill-rule="evenodd" d="M144.0039 480.32813V311.67188h22.1875v3.17578l-1.32421 1.26171-3.11328 1.60547-3.95313 2.83204-.48437 1.09765-2.19141 3.33985-2.25 3.57421-.6836.8672-3.7539 3.17187-1.21094 1.26562 1.21094 1.17578 1.33594-1.17578 3.10156-3.70703.78906-.73047 3.65235-2.3789 3.97656-2.0625.46094-.1836 4.4375-1.5625 2.64062-2.6914-1.01562-4.4375-1.625-1.26172v-3.17579h48.82422v144.66407l-4.44141.29687-1.91016 1.5039 1.91016 3.17188 4.4414-.46875 4.4375-2.05859.9922-.64453-.9922-.875-4.4375-.92578V311.67188h26.62891v146.4414l-.07031.02344.07031.1914.03516-.1914-.03516-.02344v-146.4414H467.9961v168.65625H144.00391"/></g><path fill="#50fcfc" fill-rule="evenodd" d="M148.4375 335.03906l-1.21094-1.17578 1.21094-1.26562 3.7539-3.17188.6836-.86719 2.25-3.57421 2.1914-3.33985.48438-1.09765 3.95313-2.83204v2.57422l-.36328.25781.36328.39454 3.54687-.39454-3.54687-.2578v-2.57423l3.11328-1.60546 1.32422-1.26172 1.625 1.26171 1.01562 4.4375-2.64062 2.69141-4.4375 1.5625-.46094.1836-3.97656 2.0625-3.65235 2.3789-.78906.73047-3.10156 3.70703-1.33594 1.17578"/><path fill="#00e8fc" fill-rule="evenodd" d="M161.7539 320.9414l-.36327-.39452.36328-.25782 3.54687.25781-3.54687.39454"/><path fill="#50fcfc" fill-rule="evenodd" d="M210.57422 461.3086l-1.91016-3.17188 1.91016-1.5039 4.4414-.29688 4.4375.92578.9922.875-.9922.64453-4.4375 2.0586-4.4414.46874m31.07031-2.98046l-.07031-.19141.07031-.02344.03516.02344-.03516.1914"/><g clip-path="url(#c)"><path fill="#fff" fill-opacity="0" fill-rule="evenodd" d="M467.9961 480.32813H468V311.67188h-.0039H468v168.65625h-.0039"/></g><g clip-path="url(#d)"><path fill="none" stroke="#000" stroke-linecap="round" stroke-linejoin="round" stroke-miterlimit="10" stroke-width=".5" d="M147.4961 480.6914l-6.9922-.72656"/></g><g clip-path="url(#e)"><path fill="none" stroke="#000" stroke-linecap="round" stroke-linejoin="round" stroke-miterlimit="10" stroke-width=".5" d="M147.4961 480.6914l.92187 2.27344"/></g><g clip-path="url(#f)"><path fill="none" stroke="#000" stroke-linecap="round" stroke-linejoin="round" stroke-miterlimit="10" stroke-width=".5" d="M160.8125 480.64453l-6.9961-.63281"/></g><g clip-path="url(#g)"><path fill="none" stroke="#000" stroke-linecap="round" stroke-linejoin="round" stroke-miterlimit="10" stroke-width=".5" d="M160.8125 480.64453l.95313 2.26172"/></g><g clip-path="url(#h)"><path fill="none" stroke="#000" stroke-linecap="round" stroke-linejoin="round" stroke-miterlimit="10" stroke-width=".5" d="M174.1289 480.63281l-7-.60937"/></g><g clip-path="url(#i)"><path fill="none" stroke="#000" stroke-linecap="round" stroke-linejoin="round" stroke-miterlimit="10" stroke-width=".5" d="M174.1289 480.63281l.96094 2.25781"/></g><g clip-path="url(#j)"><path fill="none" stroke="#000" stroke-linecap="round" stroke-linejoin="round" stroke-miterlimit="10" stroke-width=".5" d="M187.42578 480.80078l-6.96094-.9414"/></g><g clip-path="url(#k)"><path fill="none" stroke="#000" stroke-linecap="round" stroke-linejoin="round" stroke-miterlimit="10" stroke-width=".5" d="M187.42578 480.80078l.85156 2.30078"/></g><g clip-path="url(#l)"><path fill="none" stroke="#000" stroke-linecap="round" stroke-linejoin="round" stroke-miterlimit="10" stroke-width=".5" d="M200.70313 481.03516l-6.88282-1.41407"/></g><g clip-path="url(#m)"><path fill="none" stroke="#000" stroke-linecap="round" stroke-linejoin="round" stroke-miterlimit="10" stroke-width=".5" d="M200.70313 481.03516l.6914 2.35547"/></g><g clip-path="url(#n)"><path fill="none" stroke="#000" stroke-linecap="round" stroke-linejoin="round" stroke-miterlimit="10" stroke-width=".5" d="M214.01563 481.04297l-6.87891-1.42578"/></g><g clip-path="url(#o)"><path fill="none" stroke="#000" stroke-linecap="round" stroke-linejoin="round" stroke-miterlimit="10" stroke-width=".5" d="M214.01563 481.04297l.6875 2.35547"/></g><g clip-path="url(#p)"><path fill="none" stroke="#000" stroke-linecap="round" stroke-linejoin="round" stroke-miterlimit="10" stroke-width=".5" d="M227.3789 480.7539l-6.97656-.85156"/></g><g clip-path="url(#q)"><path fill="none" stroke="#000" stroke-linecap="round" stroke-linejoin="round" stroke-miterlimit="10" stroke-width=".5" d="M227.3789 480.7539l.87891 2.29298"/></g><g clip-path="url(#r)"><path fill="none" stroke="#000" stroke-linecap="round" stroke-linejoin="round" stroke-miterlimit="10" stroke-width=".5" d="M240.6836 480.8125l-6.95704-.96875"/></g><g clip-path="url(#s)"><path fill="none" stroke="#000" stroke-linecap="round" stroke-linejoin="round" stroke-miterlimit="10" stroke-width=".5" d="M240.6836 480.8125l.84374 2.30469"/></g><g clip-path="url(#t)"><path fill="none" stroke="#000" stroke-linecap="round" stroke-linejoin="round" stroke-miterlimit="10" stroke-width=".5" d="M253.97266 480.98438l-6.90235-1.3125"/></g><g clip-path="url(#u)"><path fill="none" stroke="#000" stroke-linecap="round" stroke-linejoin="round" stroke-miterlimit="10" stroke-width=".5" d="M253.97266 480.98438l.72656 2.34375"/></g><g clip-path="url(#v)"><path fill="none" stroke="#000" stroke-linecap="round" stroke-linejoin="round" stroke-miterlimit="10" stroke-width=".5" d="M267.22656 481.25l-6.78125-1.83984"/></g><g clip-path="url(#w)"><path fill="none" stroke="#000" stroke-linecap="round" stroke-linejoin="round" stroke-miterlimit="10" stroke-width=".5" d="M280.64844 480.64844l-6.9961-.64063"/></g><g clip-path="url(#x)"><path fill="none" stroke="#000" stroke-linecap="round" stroke-linejoin="round" stroke-miterlimit="10" stroke-width=".5" d="M279.63281 480.55469l.47266 1.13281"/></g><g clip-path="url(#y)"><path fill="none" stroke="#000" stroke-linecap="round" stroke-linejoin="round" stroke-miterlimit="10" stroke-width=".5" d="M293.88281 479.5039l-6.83203 1.64844"/></g><g clip-path="url(#z)"><path fill="none" stroke="#000" stroke-linecap="round" stroke-linejoin="round" stroke-miterlimit="10" stroke-width=".5" d="M292.88672 479.7461l.8164.91406"/></g><g clip-path="url(#A)"><path fill="none" stroke="#000" stroke-linecap="round" stroke-linejoin="round" stroke-miterlimit="10" stroke-width=".5" d="M306.96484 478.84375l-6.36718 2.96875"/></g><g clip-path="url(#B)"><path fill="none" stroke="#000" stroke-linecap="round" stroke-linejoin="round" stroke-miterlimit="10" stroke-width=".5" d="M306.03906 479.27734l.98047.73828"/></g><g clip-path="url(#C)"><path fill="none" stroke="#000" stroke-linecap="round" stroke-linejoin="round" stroke-miterlimit="10" stroke-width=".5" d="M318.94922 477.34375l-3.70703 5.96875"/></g><path fill="none" stroke="#000" stroke-linecap="round" stroke-linejoin="round" stroke-miterlimit="10" stroke-width=".5" d="M318.41016 478.21484l1.22656.08203"/><g clip-path="url(#D)"><path fill="none" stroke="#000" stroke-linecap="round" stroke-linejoin="round" stroke-miterlimit="10" stroke-width=".5" d="M331.66016 477.04688l-2.5 6.5664"/></g><path fill="none" stroke="#000" stroke-linecap="round" stroke-linejoin="round" stroke-miterlimit="10" stroke-width=".5" d="M331.66016 477.04688l2.43359-.3086"/><g clip-path="url(#E)"><path fill="none" stroke="#000" stroke-linecap="round" stroke-linejoin="round" stroke-miterlimit="10" stroke-width=".5" d="M345.25781 477.16797l-3.0625 6.32422"/></g><path fill="none" stroke="#000" stroke-linecap="round" stroke-linejoin="round" stroke-miterlimit="10" stroke-width=".5" d="M344.8125 478.08594l1.22656-.04688"/><g clip-path="url(#F)"><path fill="none" stroke="#000" stroke-linecap="round" stroke-linejoin="round" stroke-miterlimit="10" stroke-width=".5" d="M357.91797 476.92578l-1.7539 6.80469"/></g><g clip-path="url(#G)"><path fill="none" stroke="#000" stroke-linecap="round" stroke-linejoin="round" stroke-miterlimit="10" stroke-width=".5" d="M366.84766 480.47656l7.01953-.29297"/></g><g clip-path="url(#H)"><path fill="none" stroke="#000" stroke-linecap="round" stroke-linejoin="round" stroke-miterlimit="10" stroke-width=".5" d="M380.17578 480.66797l6.99219-.67578"/></g><g clip-path="url(#I)"><path fill="none" stroke="#000" stroke-linecap="round" stroke-linejoin="round" stroke-miterlimit="10" stroke-width=".5" d="M381.1914 480.57031l-.67577-1.02344"/></g><g clip-path="url(#J)"><path fill="none" stroke="#000" stroke-linecap="round" stroke-linejoin="round" stroke-miterlimit="10" stroke-width=".5" d="M393.48828 480.66797l6.9961-.67969"/></g><g clip-path="url(#K)"><path fill="none" stroke="#000" stroke-linecap="round" stroke-linejoin="round" stroke-miterlimit="10" stroke-width=".5" d="M393.48828 480.66797l-1.35547-2.04688"/></g><g clip-path="url(#L)"><path fill="none" stroke="#000" stroke-linecap="round" stroke-linejoin="round" stroke-miterlimit="10" stroke-width=".5" d="M409.26563 476.97266l2.0703 6.71484"/></g><path fill="none" stroke="#000" stroke-linecap="round" stroke-linejoin="round" stroke-miterlimit="10" stroke-width=".5" d="M409.5664 477.94922l.8672-.8711"/><g clip-path="url(#M)"><path fill="none" stroke="#000" stroke-linecap="round" stroke-linejoin="round" stroke-miterlimit="10" stroke-width=".5" d="M422.625 476.95703l1.98438 6.74219"/></g><path fill="none" stroke="#000" stroke-linecap="round" stroke-linejoin="round" stroke-miterlimit="10" stroke-width=".5" d="M422.91406 477.9375l.875-.85547"/><g clip-path="url(#N)"><path fill="none" stroke="#000" stroke-linecap="round" stroke-linejoin="round" stroke-miterlimit="10" stroke-width=".5" d="M436.47266 476.84375l.91796 6.96875"/></g><path fill="none" stroke="#000" stroke-linecap="round" stroke-linejoin="round" stroke-miterlimit="10" stroke-width=".5" d="M436.47266 476.84375l1.99609-1.42188"/><g clip-path="url(#O)"><path fill="none" stroke="#000" stroke-linecap="round" stroke-linejoin="round" stroke-miterlimit="10" stroke-width=".5" d="M447.67578 477.9336l5.14063 4.78906"/></g><path fill="none" stroke="#000" stroke-linecap="round" stroke-linejoin="round" stroke-miterlimit="10" stroke-width=".5" d="M447.67578 477.9336l.63672-2.3711"/><g clip-path="url(#P)"><path fill="none" stroke="#000" stroke-linecap="round" stroke-linejoin="round" stroke-miterlimit="10" stroke-width=".5" d="M460.26563 479.10938l6.59375 2.4375"/></g><path fill="none" stroke="#000" stroke-linecap="round" stroke-linejoin="round" stroke-miterlimit="10" stroke-width=".5" d="M460.26563 479.10938l-.32813-2.4297"/><g clip-path="url(#Q)"><path fill="none" stroke="#000" stroke-linecap="round" stroke-linejoin="round" stroke-miterlimit="10" stroke-width=".5" d="M147.51172 466.91406l-7.02344.19922"/></g><path fill="none" stroke="#000" stroke-linecap="round" stroke-linejoin="round" stroke-miterlimit="10" stroke-width=".5" d="M147.51172 466.91406l1.21094 2.13281m12.09765-1.78515l-7.01172-.4961m7.01172.4961l.9961 2.24219m12.3125-2.1875l-7-.60547m7 .60547l.96484 2.2578m12.36328-2.52343l-7.02344-.07422m7.02344.07422l1.13281 2.17578m12.1797-2.04297l-7.01954-.33984m7.01953.33984l1.04688 2.21875m12.04297-1.14062l-6.57032-2.4961m6.57031 2.4961l.3086 2.4336m13.17969-3.0586l-6.91407-1.2461m6.91407 1.2461l.75 2.33594m12.62109-2.85157l-7.02344-.21484m7.02344.21484l1.08594 2.19922m12.23047-2.32812l-7.02735.04297m7.02735-.04297l1.16406 2.15625m12.14453-2.33985l-7.01563.41016m7.01563-.41016l1.27344 2.09766m12.03906-1.65625l-7.01172-.47266m5.99219.40235l.5 1.1211m13.57812-2.6211l-6.5 2.66797m6.5-2.66797l1.89063 1.5625m11.125-2.13672l-5.89844 3.8164m5.03906-3.26171l1.07422.59765m12.64844-1.71484l-4.9961 4.9414m4.26954-4.22265l1.17187.36328m12.85157-1.10156l-4.96094 4.98047m4.23828-4.25391l1.17578.35547m11.73438-1.83594l-2.70704 6.48828m2.3125-5.54297l1.22266-.11328m9.77734-.82812l2.71485 6.48047m-2.32031-5.53907l.77734-.94921m11.13281.65234l4.73828 5.1914m7.53907-1.72656l6.80859-1.73828m-5.8164 1.48438l-.82813-.90625m13.7461 2.39843l5.62109-4.21484m-4.8047 3.60156l-1.10937-.51953m14.46485 1.94531l3.90625-5.83984m-3.33985 4.99219l-1.21875-.125m19.2461-3.08594l-6.64844 2.27734m5.67969-1.9453l.89453.83593m11.24219-3.33985l-2.35547 6.6211m2.35547-6.6211l2.42968-.35546m9.14453.19922l1.125 6.93359m-1.125-6.9336l1.95313-1.48437m10.58984 1.70313l2.67188 6.49609m-2.67188-6.4961l1.5664-1.89062"/><g clip-path="url(#R)"><path fill="none" stroke="#000" stroke-linecap="round" stroke-linejoin="round" stroke-miterlimit="10" stroke-width=".5" d="M147.5 453.375l-7 .64844"/></g><path fill="none" stroke="#000" stroke-linecap="round" stroke-linejoin="round" stroke-miterlimit="10" stroke-width=".5" d="M147.5 453.375l1.34375 2.05078m11.97266-1.44922l-7.00391-.55468m7.0039.55468l.98048 2.25m12.25-1.70312l-6.83204-1.64844m6.83203 1.64844l.60938 2.375m12.79297-3.47266l-7.00781.54297m5.98828-.46094l.65625 1.03516m13.64062-.27735l-6.9336-1.1328m5.92579.96484l.39453 1.16406m13.875-.72266l-6.82422-1.6836m5.82813 1.44142l.30078 1.1875m13.8086-.35938l-6.42188-2.85156m5.48828 2.4336l.08594 1.22655m14.46484-2.30468l-7.02734.14062m7.02734-.14062l1.19531 2.14453m12.11719-2.20703l-7.02344.26172m7.02344-.26172l1.23047 2.125m11.8711-3.20703l-6.59376 2.42968m6.59375-2.42968l1.82813 1.6328m11.48828-1.6328l-6.59766 2.42578m6.59766-2.42578l1.82812 1.63671m11.4297-1.77343l-6.48438 2.70312m6.48437-2.70312l1.89844 1.55468m11.10547-2.14453l-5.85938 3.88282m5.85938-3.88282l2.15625 1.17188m10.875-1.53906l-5.29297 4.61718m5.29297-4.61718l2.29297.875m11.22265-.625l-5.6914 4.11718m5.6914-4.11718l2.20313 1.07812m10.8711-1.375l-5.21095 4.71094m5.21094-4.71094l2.3086.83203m10.1328-1.53515l-3.46484 6.11328m3.46485-6.11328l2.45312.0664m9.80469-.45703l-1.34766 6.89844m1.34766-6.89844l2.34766-.71484m7.12109 2.64843l6.33984 3.03125M380.5 452.1836l-.10156-2.45312m13.10937 3.46094l6.95703 1.01562m-5.9453-.86719l-.41017-1.15625m17.0547 4.92188l-1.72657-6.8125m1.47656 5.82031l-.91015.82422m16.58984-1.3711l-5.95313-3.73437m5.08594 3.1914l-.08984 1.22266m14.6914-1.64843l-6.79296-1.79688m6.79296 1.79688l.5625 2.38672m12.14454-5.42579l-5.57422 4.28125m5.57422-4.28125l2.23046 1.01563m11.04688-1.0625l-5.5 4.375m4.69922-3.73828l1.125.48828"/><g clip-path="url(#S)"><path fill="none" stroke="#000" stroke-linecap="round" stroke-linejoin="round" stroke-miterlimit="10" stroke-width=".5" d="M147.375 439.40234l-6.75 1.96094"/></g><path fill="none" stroke="#000" stroke-linecap="round" stroke-linejoin="round" stroke-miterlimit="10" stroke-width=".5" d="M147.375 439.40234l1.71094 1.75782m11.71875-.3672l-6.98047-.8203m6.98047.8203l.89062 2.28516M173.96094 441.5l-6.66016-2.23438m6.66016 2.23438l.40234 2.42188m13.01563-2.80079l-6.8711-1.47265m5.875 1.25781l.33594 1.17969m13.85938-.54688l-6.63672-2.3086m5.67187 1.97266l.1875 1.21094m14.0625-.79297l-6.57422-2.47656m6.57422 2.47656l.3125 2.4336m12.76953-1.9375l-6.10937-3.46875m6.10937 3.46875l-.0664 2.45312m13.6289-2.98437l-6.60547-2.40235m5.64453 2.05078l.17188 1.21485m14.3086-2.26953l-7.01563.40625m7.01562-.40625l1.27735 2.09765m11.6914-3.42578l-6.3203 3.0664m6.3203-3.0664l1.98438 1.44531m10.84375-2.1914l-5.34766 4.55469m5.34766-4.5547l2.28125.90235m-3.0586-.23828l1.14063.44922m13.59766.01172l-6.63672 2.30469m6.63672-2.3047l1.79687 1.66798m10.77735-2.90235l-5.15625 4.77344m5.15625-4.77344l2.3164.8086m10.64844-1.13672l-4.45703 5.4336m4.45703-5.4336l2.40625.48047m-3.05469.3086l1.20313.24218m13.21093-.58594l-5.35937 4.54297m5.35937-4.54297l2.28125.90625m-3.05859-.2461l1.14063.45313m12.82421-1.25781l-5.10156 4.82812m5.10156-4.82812l2.32813.78125m10.71094-1.04297l-4.55079 5.35156m4.55079-5.35156l2.39843.52734m8.85938-1.35937l-.4375 7.01562m.4375-7.01562l2.23437-1.01172m-2.29687 2.03516l1.11719-.50782m9.91406.19532l4.25781 5.59375m-4.25781-5.59375l1.02734-2.22657m-.40625 3.04297l.51172-1.11718m11.92578.51953l4.76953 5.16015m-4.76953-5.16015l.8086-2.3164m17.02734 2.10546l-4.26953 5.58203m4.26953-5.58203l2.41797.39844m-3.03906.41406l2.41796.39844m12.23438-.47266l-5.70703 4.10156m5.70703-4.10156l2.19922 1.08594m-3.02735-.48828l1.09766.54297m13.19531 2.73437l-6.0078-3.64453m5.13671 3.11328l-.07031 1.22656m14.1211-.48828l-5.73438-4.0586m4.90234 3.46485l-.15625 1.21875m13.60156.10938l-4.33203-5.53125m4.33203 5.53125l-.9961 2.24218"/><g clip-path="url(#T)"><path fill="none" stroke="#000" stroke-linecap="round" stroke-linejoin="round" stroke-miterlimit="10" stroke-width=".5" d="M146.86719 425.03516l-5.73438 4.0664"/></g><path fill="none" stroke="#000" stroke-linecap="round" stroke-linejoin="round" stroke-miterlimit="10" stroke-width=".5" d="M146.86719 425.03516l2.1914 1.10156m-3.02734-.50781l1.09766.55078m13.3828-.57031l-6.39062 2.91796m5.46094-2.49218l.97266.74609m13.5664.69922l-6.98047-.82422m5.96485.70313l.44531 1.14453m13.63672-.08594l-6.48438-2.69922m6.48438 2.69922l.23047 2.44531m13.20312-2.76953l-6.72265-2.04687m6.72265 2.04687l.47266 2.40625m12.36328-1.42187l-5.76172-4.01954m4.92188 3.4336l-.14453 1.21875m13.58984.11719l-4.34375-5.51954m4.34375 5.51954l-.99219 2.24609m13.5625-1.79688l-2.85547-6.41796m2.44141 5.48437l-.75781.96875m16.49219-2.5039l-6.8672-1.48047m5.8711 1.26562l.33203 1.17969m13.51563-3.58203l-5.9375 3.7539m5.07422-3.20703l1.0664.60547m13.48828-.35156l-6.6914 2.15234m6.6914-2.15234l1.75782 1.70703m11.26172-2.3711l-6.10157 3.48438m6.10157-3.48437l2.07421 1.30859m10.9375-1.75781l-5.49218 4.3828m5.49218-4.3828l2.25.97265m9.97266-1.88281l-3.3086 6.19922m3.3086-6.19922l2.45313.0039m-2.9336.89844h1.22656m12.5586-.90625l-3.28906 6.20704m3.28906-6.20704l2.45703-.0039m-2.9336.90625h1.22657m13.27734-.40625l-4.71094 5.21484m4.71094-5.21484l2.3789.60156m11.76173.51172l-6.36328 2.98828m6.36328-2.98828l1.96093 1.47266m-2.88671-1.03907l.98046.73828m12.23438-2.44921l-4.3125 5.54687m4.3125-5.54687l2.41797.41796m-3.04297.38672l2.41797.42188m-3.04688.38672l1.20703.21093m12.92579-2.11718l-3.4375 6.1289m3.4375-6.1289l2.45312.05468m-2.95312.83594l2.45312.05469m-2.95312.83984l1.22656.02735m13.82031-1.26563l-4.90234 5.03516m4.90234-5.03516l2.35547.6836m-3.07031.05078l2.35547.68359m-3.06641.04688l1.17578.34375m13.91016-1.41797l-5.59375 4.2539m5.59375-4.2539l2.23047 1.03125m-3.04297-.41016l2.22656 1.02734m9.29687-3.03125l-.38671 7.01954m.38671-7.01954l2.22657-1.03125m-2.28125 2.0547l1.11328-.51563m11.58984-.48047l.94922 6.96484m-.94922-6.96484l1.99219-1.4336m-1.85156 2.44922l1.98828-1.4336m-1.85156 2.44532l.99609-.71484m12.70703-1.33985l-.3789 7.01954m.3789-7.01954l2.22266-1.03125m9.67968 1.2461l2.44141 6.58984m-2.08594-5.63281l.8164-.91406"/><g clip-path="url(#U)"><path fill="none" stroke="#000" stroke-linecap="round" stroke-linejoin="round" stroke-miterlimit="10" stroke-width=".5" d="M146.85156 411.69922l-5.70312 4.10937"/></g><path fill="none" stroke="#000" stroke-linecap="round" stroke-linejoin="round" stroke-miterlimit="10" stroke-width=".5" d="M146.85156 411.69922l2.19922 1.08594m-3.02734-.48829l2.19922 1.08594m11.66015-2.02734l-5.13281 4.79687m5.13281-4.79687l2.32031.79297m11.66797.2461l-6.48047 2.71874m5.53516-2.32422l.95313.77735m13.5703.4375l-7.0078-.5m5.98828.42578l.4961 1.1211m12.92187-3.67188l-5.17578 4.75m4.42578-4.0586l1.15625.40625M209.25 410.5l2.64844 6.50781m9.04687-1.33984l5.89063-3.83203m-5.89063 3.83203l-2.14844-1.1875m18.3125 2.78515l.19532-7.02343m-.19531 7.02344l-2.19922 1.08984m19.12109-4.73438l-7.02344.26172m17.83985 3.23438l-2.02344-6.72657m1.73047 5.75l-.875.86329m16.96875-3.58204l-6.9961.66407m6.9961-.66407L282 415.46875m10.01563-4.86719l-3.09766 6.30469m3.09766-6.30469l2.45312-.08203m12.15234 1.16406l-5.67968 4.13672m4.85156-3.53515l1.10547.53906m13.1875-.91797l-5.98047 3.69531m5.98047-3.69531l2.11719 1.23828m10.66796-1.89844l-4.92187 5.01563m4.92187-5.01563l2.35547.69532m10.94532-.71094l-4.89063 5.04687m4.89063-5.04687l2.35546.67969m-3.0664.05468l1.17578.33985m13.64062.08203l-6.47265 2.73047m6.47265-2.73047l1.90625 1.55078m11.23829-1.89844l-6.13282 3.42578m6.13282-3.42578l2.0625 1.33203m-2.95313-.83203l2.0625 1.32813m11.95703-2.125l-5.76172 4.02343m5.76172-4.02343l2.1875 1.11718m-3.02344-.53125l2.1836 1.1172m-3.02344-.53126l1.09375.5586m13.82422-1.83594l-5.61328 4.23437m5.61328-4.23437l2.22266 1.03515m-3.03907-.41796l2.22266 1.03515m-3.03906-.42187l1.10937.51953m13.19922-2.39844l-4.33594 5.53125m4.33594-5.53125l2.41406.42969m-3.04297.375l1.20704.21484m10.42968-1.76562l.28125 7.02343m-.28125-7.02343l2.11719-1.23828m-2.07812 2.26171l2.11718-1.23828m10.89453.23438l.8086 6.98047m-.8086-6.98047l2.02344-1.39063m-1.90625 2.40625l2.02344-1.39062m-1.90625 2.40625l1.01172-.69531m13.98047-1.01563l-3.01563 6.34375m3.01563-6.34375l2.45312-.11328m-2.89062 1.03516l1.22656-.0547m13.09375-.53124l-4.15234 5.67187"/><g clip-path="url(#V)"><path fill="none" stroke="#000" stroke-linecap="round" stroke-linejoin="round" stroke-miterlimit="10" stroke-width=".5" d="M465.63672 410.91797l2.42969.35156"/></g><path fill="none" stroke="#000" stroke-linecap="round" stroke-linejoin="round" stroke-miterlimit="10" stroke-width=".5" d="M465.03516 411.74219l1.21093.17578"/><g clip-path="url(#W)"><path fill="none" stroke="#000" stroke-linecap="round" stroke-linejoin="round" stroke-miterlimit="10" stroke-width=".5" d="M146.76953 398.27344l-5.53906 4.32812"/></g><path fill="none" stroke="#000" stroke-linecap="round" stroke-linejoin="round" stroke-miterlimit="10" stroke-width=".5" d="M146.76953 398.27344l2.24219 1m-3.04688-.36719l2.23828.9961m11.76563-1.76563l-5.3086 4.60547m5.3086-4.60547l2.28906.8789m-3.0625-.21093l2.29297.88281m12.44531-.44922l-6.60547 2.40235m6.60547-2.40235l1.82032 1.64063m11.6953-.1836l-7.0078-.51562m5.98828.4414l.4961 1.1211m13.79687-1.90235l-6.92578 1.19532m5.91796-1.01954l.75391.96875m7.83594-3.22656l4.54297 5.35938m-3.88282-4.57813l.45313-1.14062m10.9961 3.55469l6.95312-1.03125m-5.9414.8828l-.72657-.98827m19.72656 2.03125l-6.4375-2.82032m6.4375 2.82032l.1836 2.4453m-1.1211-2.85546l.09375 1.22266m14.4414-2.48047l-7.0078.51562m7.0078-.51562l1.3086 2.07812m-2.32812-2l.65625 1.03516m13.6875-.83203l-7.02735-.04688m7.02735.04688l1.14062 2.17578m-2.16015-2.17969l.5664 1.08594m13.73828-.63672l-6.96484-.9336m6.96484.9336l.85547 2.30078m-1.86719-2.4375l.42579 1.14844m13.48437-3.19922l-6.1289 3.4375m6.1289-3.4375l2.0625 1.32813m-2.95703-.82813l2.0664 1.32813m12.45313-1.08594l-6.75 1.95703m6.75-1.95703l1.70703 1.75781m-2.6914-1.47266l.85546.87891m13.25782-1.66016l-6.37891 2.94532m6.3789-2.94532l1.95313 1.48829m-2.8789-1.0586l.97656.74219m12.80469-1.91406l-5.45704 4.42968m5.45704-4.42968l2.2578.95703m-3.05468-.3125l2.26172.95703m12.44922-.51563l-6.65625 2.25782m6.65625-2.25782l1.78515 1.6797m-2.7539-1.35157l1.78515 1.6836m12.66797-1.23048l-6.99219.69922m6.9922-.69922l1.35937 2.03907m11.19922-3.88672l-5.48438 4.39062m5.48438-4.39062l2.2539.97265m-3.05078-.33203l2.2539.96875m11.26954-2.1875l-4.3086 5.55078m4.3086-5.55078l2.41797.41797m-3.04297.38672l2.41797.41797m-3.04688.39062l1.21094.21094m14.1875-.90625l-5.96484 3.71094m5.96484-3.71094l2.125 1.23438m-2.99219-.69141l1.0625.61328m13.33985-.7461l-6.40625 2.89454m6.40625-2.89453l1.9414 1.5m9.63672-3.2461l-2.92969 6.38672m2.9297-6.38672l2.44921-.14453m-2.875 1.07031l1.22266-.0703m12.4414-.89063l-2.77734 6.45312m2.77734-6.45312l2.44531-.19922m-2.84765 1.14062l2.44531-.20312m11.91797-.375l-4.0664 5.73047m4.0664-5.73047l2.4336.3125m-3.02735.51953l2.4336.3164m11.96093-.73046l-5.03906 4.89453"/><g clip-path="url(#X)"><path fill="none" stroke="#000" stroke-linecap="round" stroke-linejoin="round" stroke-miterlimit="10" stroke-width=".5" d="M466.08203 397.99219l2.33594.75"/></g><path fill="none" stroke="#000" stroke-linecap="round" stroke-linejoin="round" stroke-miterlimit="10" stroke-width=".5" d="M465.34766 398.70313l2.33593.75m-3.0664-.03907l1.16406.375"/><g clip-path="url(#Y)"><path fill="none" stroke="#000" stroke-linecap="round" stroke-linejoin="round" stroke-miterlimit="10" stroke-width=".5" d="M147.10547 385.48438l-6.21094 3.28125"/></g><path fill="none" stroke="#000" stroke-linecap="round" stroke-linejoin="round" stroke-miterlimit="10" stroke-width=".5" d="M147.10547 385.48438l2.03125 1.375m-2.9336-.89844l2.03125 1.375m11.95704-2.22656l-5.75391 4.03125m5.7539-4.03125l2.1875 1.11328m-3.02343-.52735l2.1875 1.11328m11.74219-1.98828l-5.3086 4.60547m5.3086-4.60547l2.28906.8789m-3.0625-.21093l2.28906.88281m10.05078-2.64062l-1.8125 6.78515m1.8125-6.78515l2.39063-.55469m8.03125 1.05078l3.97265 5.79297m-3.97265-5.79297l1.13281-2.17578m17.60938 4.35938l-6.87891 1.42578m6.8789-1.42578l1.56641 1.88671m11.48438-2.67968l-6.35157 3.01172m6.35157-3.01172l1.96875 1.46484m-2.89453-1.02734l.98437.73437m13.51563 1.07031l-6.8711-1.47265m6.8711 1.47265l.67187 2.35938m12.63672-2.32031l-6.85547-1.55078m6.85547 1.55078l.64453 2.36719m12.70703-2.56641l-6.92969-1.15235m6.9297 1.15235l.78124 2.32812m-1.78906-2.49609l.78125 2.32813m-1.78906-2.4961l.39062 1.16406m14.96485-1l-6.98047-.80859m6.98047.8086l.89453 2.28515m-1.91016-2.40234l.89453 2.28515m13.41016-3.15234L287 387.70312m6.92969-1.16015l1.4961 1.94531m-2.50391-1.77734l.75.97265m13.53906-1.32812l-6.85938 1.53515m6.85938-1.53515l1.59375 1.86328m-2.59375-1.63672l1.59765 1.86328m12.79688-1.50781l-7.01953.3711m7.01953-.3711l1.26172 2.10547m-2.28516-2.05078l1.26563 2.10156m12.83984-3.24219l-6.55078 2.54297m6.55078-2.54297l1.85547 1.60156m-2.8086-1.23046l.9297.80078m13.05859-1.73047l-5.9961 3.66406m5.9961-3.66406l2.11328 1.2461m11.57812-.39844l-6.7461 1.96484m6.7461-1.96485l1.71094 1.75782m-2.6914-1.47266l1.71093 1.75781m12.26953-2.79296l-6.11328 3.46484m6.11328-3.46485l2.07032 1.31641m-2.96094-.8125l2.07031 1.3164m-2.96094-.8125l1.03516.66016m13.5664-2.33984l-5.125 4.8086m5.125-4.8086l2.32032.78906m-3.0664-.08984l2.3203.79297m12.07422-1.07422l-5.79297 3.97265m5.79297-3.97265l2.17578 1.13281m-3.01953-.55469l2.17578 1.13282m-3.01562-.5547l1.08594.56642m13.45312-2.26954l-4.8711 5.06641m4.8711-5.0664l2.35938.67187m-3.07032.0664l2.35938.67188m10.70703-2.0664l-2.95312 6.3789m2.95312-6.3789l2.44922-.13673m-2.8789 1.06641l1.22265-.07031m13.11719-.50781l-4.14453 5.67578m4.14453-5.67578l2.42968.34765m-3.03515.47656l1.21484.17579m12.60156-1.07422l-3.9375 5.82422m3.9375-5.82422l2.4375.26172m-3.01171.58593l2.4414.26172m11.42969-1.1211l-3.89844 5.84767"/><g clip-path="url(#Z)"><path fill="none" stroke="#000" stroke-linecap="round" stroke-linejoin="round" stroke-miterlimit="10" stroke-width=".5" d="M465.51172 384.19922l2.4414.24219"/></g><path fill="none" stroke="#000" stroke-linecap="round" stroke-linejoin="round" stroke-miterlimit="10" stroke-width=".5" d="M464.94531 385.05078l2.4414.24219m-3.01171.60937l1.22266.1211"/><g clip-path="url(#aa)"><path fill="none" stroke="#000" stroke-linecap="round" stroke-linejoin="round" stroke-miterlimit="10" stroke-width=".5" d="M147.14453 372.24219l-6.28906 3.13281"/></g><path fill="none" stroke="#000" stroke-linecap="round" stroke-linejoin="round" stroke-miterlimit="10" stroke-width=".5" d="M147.14453 372.24219l1.9961 1.42578m-2.91016-.97266l1.9961 1.42578m12.46484-1.28515l-6.75391 1.94531m6.7539-1.94531l1.70704 1.76172m-2.6914-1.48047l.85546.88281m13.16016-1.85938l-6.1836 3.33594m6.1836-3.33594l2.04297 1.35938m-2.94141-.875l1.01953.67969m13.29688-.95703l-6.39063 2.92187m6.39063-2.92187l1.94921 1.48828m-2.8789-1.0625l1.94922 1.48828m12.1953-2.11719l-6.1875 3.32813m6.1875-3.32813l2.03907 1.35938m-2.9414-.875l1.01953.67968m13.5703-.05468l-6.9375 1.10937m6.9375-1.10937l1.48048 1.95703m11.11719.78515l-5.5-4.375m5.5 4.375l-.44532 2.41016m14.51563-4.33984l-7.00781-.51563m7.0078.51563l.98829 2.24609m-2.00781-2.32031l.49218 1.1211m13.84375-1.53126l-7.01172.45313m7.01172-.45313l1.28907 2.08985m-2.3086-2.02344l1.28906 2.08984m13.05079-1.82031l-7.02344-.21875m7.02344.21875l1.08593 2.19922m-2.10937-2.23047l1.08594 2.19922m13.23828-1.94922l-6.9961-.65625m6.9961.65625l.94531 2.26562m-1.96094-2.36328l.9414 2.26563m13.40235-2.59375l-7.02343.19531m7.02343-.19531l1.21485 2.13281m-2.23438-2.10547l1.21094 2.13281m-2.23438-2.10546l.60547 1.0664m14.72266-1.4961l-6.96094.94532m6.96094-.94531l1.4336 1.99219m-2.44532-1.85547l1.4336 1.99218m-2.44922-1.85546l1.43359 1.99218m13.85547-2.5664l-6.85547 1.54687m6.85547-1.54687l1.60156 1.85937m-2.59766-1.63281l1.59766 1.85937m-2.59766-1.63671l1.60157 1.85937m13.74218-2.14453l-6.92187 1.21484m6.92187-1.21484l1.50782 1.9375m-2.51563-1.75781l1.51172 1.93359m-2.51562-1.75781l.7539.96875m14.5586-1.40625L340.28125 374.5m6.89063-1.38281l1.55468 1.89453m-2.5586-1.69531l1.5586 1.89843m-2.5625-1.6953l.78125.94921M360.5 373.19141l-6.91797 1.23437m6.91797-1.23437l1.51563 1.92968m-2.52344-1.75l1.51562 1.9297m-2.51953-1.75l.75781.96483m14.48829-1.66796l-6.75782 1.92187m6.75782-1.92187l1.70312 1.76562m-2.6836-1.48828l1.69923 1.76953m-2.6836-1.48828l.85156.88281m13.96485-2.4414l-5.83203 3.92187m5.83203-3.92187l2.16406 1.15625m-3.01172-.58594l2.16406 1.15625m-3.01171-.58594l1.08203.57813m13.47656-2.26172l-4.92578 5.00781m4.92578-5.00781l2.35156.69531m-3.0664.03125l2.35156.69922m11.24219-1.79297l-4.0547 5.74219m4.0547-5.74219l2.43359.3086m-3.02344.52734l2.4336.3086m11.19921-1.32032l-3.5078 6.08984m3.5078-6.08984l2.45313.08594m-2.96484.80078l1.22656.04297m12.4414-1.01172l-3.1953 6.25781m3.1953-6.25781l2.45704-.04297m-2.92188.95312l1.22656-.01953m12.91797-.67578l-3.92187 5.82813m3.92187-5.82813l2.4414.2539m-3.01171.59376l1.21875.125m13-.72266l-4.58594 5.32422"/><g clip-path="url(#ab)"><path fill="none" stroke="#000" stroke-linecap="round" stroke-linejoin="round" stroke-miterlimit="10" stroke-width=".5" d="M465.85547 371.14453l2.39062.54297"/></g><path fill="none" stroke="#000" stroke-linecap="round" stroke-linejoin="round" stroke-miterlimit="10" stroke-width=".5" d="M465.1875 371.92188l2.39453.53906"/><g clip-path="url(#ac)"><path fill="none" stroke="#000" stroke-linecap="round" stroke-linejoin="round" stroke-miterlimit="10" stroke-width=".5" d="M147.41797 359.67578l-6.83594 1.63672"/></g><path fill="none" stroke="#000" stroke-linecap="round" stroke-linejoin="round" stroke-miterlimit="10" stroke-width=".5" d="M147.41797 359.67578l1.625 1.83594m-2.6211-1.59766l1.625 1.83594m-2.61718-1.59766l.8125.91797m14.21484-2.14844l-6.28516 3.14454m6.28516-3.14454l2 1.41797m-2.91406-.96093l2 1.42187m-2.91406-.96484l1 .71094m14.1875-1.53516l-6.3711 2.96094m6.3711-2.96094l1.95703 1.48047m-2.88281-1.05078l1.95703 1.48046m-2.88672-1.04687l.98047.73828m14.22656-1.51953l-6.44531 2.79688m6.4453-2.79688l1.91798 1.53125m-2.85547-1.125l1.91797 1.53125m12.35547-1.89453l-6.48438 2.71094m6.48438-2.71094l1.89453 1.5586m-2.83985-1.16407l1.89844 1.55469m11.60547-3.07422l-4.97656 4.96094m4.97656-4.96094l2.34766.72265m-3.07032 0l1.17188.35938m13.78125 2.27734l-6.80469-1.7578m6.80469 1.7578l.57422 2.38672m-1.5664-2.64062L226.875 363.5m13.79688-2.42969l-6.9336-1.15234m6.9336 1.15234l.78125 2.32422m-1.78907-2.49219l.78125 2.32422M254 360.98437l-6.95703-.98046m6.95703.98046l.83984 2.3047m-1.85156-2.44923l.83594 2.3086m13.51953-2.46485l-7.01563-.3828m7.01563.3828l1.03125 2.22657m-2.05078-2.28125l1.03125 2.22656m13.29687-2.0586l-7.0039-.60546m7.0039.60546l.96094 2.25782m-1.98047-2.34766l.96094 2.25781m-1.98047-2.34375l.48047 1.12891m14.88672-1.19922l-7.02735-.11328m7.02735.11328l1.11328 2.1836m-2.13672-2.19922l1.11719 2.18359m-2.14063-2.20313l.5586 1.09375m14.79687-1.33984l-7.01562.44531m7.01562-.4453l1.28516 2.08983m-2.3086-2.02343l1.28907 2.08984m-2.3086-2.02344l1.28516 2.08594m14.0586-2.3789l-6.98829.76562m6.98828-.76563l1.37891 2.03125m-2.39844-1.91796l1.38281 2.02734m-2.39843-1.91797l1.38281 2.03125m13.78906-3.03906l-6.6289 2.33594m6.6289-2.33594l1.80469 1.66015m-2.76953-1.3203l1.80469 1.66015m-2.76954-1.32031l.90235.83203M347 359.21875l-6.54688 2.55078M347 359.21875l1.85937 1.59766m-2.8125-1.22657l1.85938 1.59766m12.61328-1.19531l-6.95703 1m6.95703-1l1.44922 1.98047m-2.46094-1.83594l.72266.99219m13.53515-1.48047l-6.8203 1.6875m6.8203-1.6875l1.64063 1.82812m-2.63281-1.58203l1.64062 1.82813m12.32031-2.94922l-6.125 3.4414m6.125-3.4414l2.06641 1.32422m-2.95703-.82422l2.0664 1.32422m-2.95703-.82422l1.03125.66406m13.73047-2.15625l-5.45703 4.42188m5.45703-4.42188l2.26172.96094m-3.05469-.3164l2.25782.95702m-3.05078-.3125l1.1289.47656m12.82031-2.58593l-3.55468 6.0625m3.55468-6.0625l2.45313.10547m-2.96875.77734l2.44922.10156m-2.96875.78125l1.22656.05078m12.78906-1.98828l-2.8828 6.41016m2.8828-6.41016l2.44532-.16406m-2.8672 1.09766l2.44923-.16407m11.30078-.76171l-2.91016 6.39453m2.91016-6.39454l2.44922-.15234m-2.8711 1.08203l2.44922-.15234m11.07813-.86719L449 363.77734m2.49219-6.5703l2.4336-.3086m-2.79688 1.26562l1.21875-.15625m12.5-.78515l-2.57032 6.53906m2.57032-6.53906l2.4375-.27735"/><g clip-path="url(#ad)"><path fill="none" stroke="#000" stroke-linecap="round" stroke-linejoin="round" stroke-miterlimit="10" stroke-width=".5" d="M147.39453 346.26953l-6.78906 1.8164"/></g><path fill="none" stroke="#000" stroke-linecap="round" stroke-linejoin="round" stroke-miterlimit="10" stroke-width=".5" d="M147.39453 346.26953l1.67188 1.79688m11.32812-2.58204l-6.16016 3.38672m6.16016-3.38671l2.05078 1.34375m-2.94531-.85157l2.05078 1.34375m12.03906-2.03125l-5.92187 3.78125m5.92187-3.78125l2.13672 1.20313m-2.9961-.65625l2.13673 1.20703m-3-.65625l2.13672 1.20703m-2.9961-.65625l1.0664.60156m14.76954-2.34765l-5.79688 3.97265m5.79688-3.97265l2.17578 1.1328M186 345.76954l2.17578 1.13281m-3.01953-.55468l2.17578 1.1328m12.78516-2.34765l-5.71485 4.08985m5.71485-4.08985l2.19922 1.09375m-3.03125-.4961l2.19922 1.08985m12.26562-1.14453l-6.35156 3.00781m6.35156-3.0078l1.96875 1.46483m-2.89063-1.02734l1.96875 1.46485m12.60547-.3711l-7.02343-.0586m7.02343.0586l1.13672 2.17578m-2.15625-2.1836l1.13281 2.17579m12.96485-.92188l-6.54688-2.55078m6.54688 2.55079l.28516 2.4375m-1.23829-2.8086l.28516 2.4375m14.1836-2.82422l-6.94923-1.03515m6.94922 1.03515l.82032 2.3125m-1.83203-2.46094l.8203 2.3125m-1.83202-2.46484l.41015 1.15625m14.92969-.86328l-6.95313-1.01953m6.95313 1.01953l.82422 2.3125m-1.83594-2.46094l.82422 2.3125m-1.83594-2.46094l.41406 1.15625m14.94922-1.07812l-7.0039-.58203m7.0039.58203l.96875 2.2539m-1.98828-2.33984l.96875 2.2539m-1.98828-2.33593l.48438 1.125m14.875-1.02344l-7.01172-.44921m7.01172.44921l1.01171 2.23438m-2.03125-2.30078l1.01172 2.23437m-2.03515-2.30078l.50781 1.1211m14.85547-1.13672l-7.02344-.15235m7.02344.15235l1.10547 2.1914m-2.1289-2.21484l1.10546 2.1914m-2.125-2.21093l.55078 1.09375m14.80469-1.28906l-7.01953.32421m7.01953-.32421l1.25 2.11328m-2.26953-2.06641l1.25 2.11328m-2.27344-2.0664l.625 1.05859m14.48437-2.29688l-6.52343 2.6172m6.52343-2.6172l1.875 1.57813m-2.82421-1.19922l1.875 1.58203m-2.82422-1.19922l.9375.78906m13.67578-2.53906l-5.32031 4.58985m5.3203-4.58985l2.28907.89063m-3.0625-.22266l2.28516.89063m11.95312-1.3711l-5.6211 4.21485m5.6211-4.21485l2.22266 1.04297m-3.03906-.42969l1.10937.51954m13.45313-.37891l-6.48438 2.70703m6.48438-2.70703l1.89843 1.55469m-2.83984-1.16016l1.89844 1.55469m12.07031-2.5l-5.90625 3.8086m5.90625-3.8086l2.14062 1.19531m-3-.64063l2.14063 1.19532m11.61328-2.28125l-5.0664 4.8711m5.0664-4.8711l2.33203.76562m-3.07031-.05469l2.33203.76172m11.85547-1.32421l-5.33203 4.57812m5.33203-4.57813l2.28516.89063m-3.0625-.22656l2.28515.89453m10.17969-2.625l-2.08203 6.71094m2.08203-6.71094l2.41406-.46094m-2.71484 1.4375l2.41015-.46094m10.9375-.58984l-1.54296 6.85547m1.54296-6.85547l2.3672-.64844m-2.59376 1.64453l1.1836-.32421m12.85156-.52344l-2.52735 6.5586m2.52735-6.5586l2.4336-.29297m-2.80079 1.25l1.21484-.14844m13.75391.05469l-5.10156 4.83203"/><g clip-path="url(#ae)"><path fill="none" stroke="#000" stroke-linecap="round" stroke-linejoin="round" stroke-miterlimit="10" stroke-width=".5" d="M466.11328 344.76172l2.32422.78125"/></g><path fill="none" stroke="#000" stroke-linecap="round" stroke-linejoin="round" stroke-miterlimit="10" stroke-width=".5" d="M465.3711 345.46484l1.16406.39063"/><g clip-path="url(#af)"><path fill="none" stroke="#000" stroke-linecap="round" stroke-linejoin="round" stroke-miterlimit="10" stroke-width=".5" d="M140.89063 335.5l6.21875-3.27344"/></g><path fill="none" stroke="#000" stroke-linecap="round" stroke-linejoin="round" stroke-miterlimit="10" stroke-width=".5" d="M160.8164 334.16016l-7.0039-.59375m19.27344-2.21875l-4.91016 5.02734m4.91016-5.02734l2.35547.6914m-3.07032.04297l1.17578.34375m12.7422-1.17969l-4.6875 5.23438m4.6875-5.23438l2.3828.58985m-3.0625.17187l2.37891.58985m-3.0625.17187l2.38281.58594m-3.0664.17578l1.1914.29297m14.14844-2.59766L194.9375 336.5m4.64453-5.27344l2.38672.5664m-3.0625.19923l2.38672.5664m-3.0625.20313l2.38672.5664m13.35547-.35546l-6.79688 1.78125m6.79688-1.78125l1.66406 1.80468m-2.65234-1.54687l.83203.90234m13.58593-.15234l-7.02343-.23438m7.02343.23438l1.07813 2.20312m-2.10156-2.23828l1.08203 2.20313m13.10547-1.2539l-6.71875-2.0625m6.71875 2.0625l.46484 2.40624m-1.44531-2.70703l.46875 2.41016m-1.44531-2.71094l.23437 1.20703m15.0625-.69922l-6.77344-1.875m6.77344 1.875l.53125 2.39453m-1.51563-2.66797l.53125 2.39844m-1.51562-2.67187l.26563 1.19921m15.08203-.91406l-6.89844-1.35156m6.89844 1.35156l.71093 2.34766m-1.71484-2.54297l.71094 2.34766m13.65625-2.51172l-6.9961-.63281m6.9961.6328l.95312 2.25782m-1.96875-2.35156l.95313 2.26172m13.39062-2.6211L286.95312 334m7.02344-.27344l1.23438 2.1211m-2.25782-2.08204l.6211 1.0625m13.69531-1.36718l-6.98047.80469m6.98047-.8047l1.39453 2.01954m-2.41015-1.90235l.69921 1.00782m13.58204-1.44531l-6.87891 1.4453m6.8789-1.4453l1.57032 1.88671m-2.57031-1.67578l.78515.9414m13.23047-2.01171l-6.27734 3.16016m6.27734-3.16016l2 1.41797m-2.91406-.95703l1 .71094m13.01172-1.53907l-5.84766 3.89844m5.84766-3.89844l2.16015 1.16406m-3.01172-.59765l1.08204.58203m12.3164-1.97656l-4.3086 5.55078m4.3086-5.55078l2.41797.42187m-3.04297.38672l1.20703.21094m12.64453-1.08594l-4.1328 5.6875m4.1328-5.6875l2.4297.34375m-3.03126.48438l1.21485.17187m12.85937-.8789l-4.44531 5.4414m4.44531-5.4414l2.40625.48046m-3.05469.3125l2.40625.48047m10.63282-1.8164l-2.59766 6.53125m2.59766-6.53125l2.4414-.26563m-2.8164 1.21485l2.4375-.26563m10.99609-.77344l-2.08594 6.71094m2.08594-6.71094l2.41016-.45703m-2.71485 1.4336l2.41016-.45704m12.9375.67188l-5.53906 4.32812m5.53906-4.32812l2.23828 1m9.77734-2.02735l-2.9414 6.38282m2.51562-5.45313l1.22266-.07031m13.53906-.14453l-4.98437 4.95312m4.98437-4.95312l2.34375.72265m-3.07031-.0039l1.17578.36328m13.23437-.64844l-5.71875 4.08594"/><g clip-path="url(#ag)"><path fill="none" stroke="#000" stroke-linecap="round" stroke-linejoin="round" stroke-miterlimit="10" stroke-width=".5" d="M466.42188 331.82031l2.1953 1.09375"/></g><g clip-path="url(#ah)"><path fill="none" stroke="#000" stroke-linecap="round" stroke-linejoin="round" stroke-miterlimit="10" stroke-width=".5" d="M465.58984 332.41406l2.19532 1.09375"/></g><g clip-path="url(#ai)"><path fill="none" stroke="#000" stroke-linecap="round" stroke-linejoin="round" stroke-miterlimit="10" stroke-width=".5" d="M143.375 317.08984l1.25 6.91407"/></g><g clip-path="url(#aj)"><path fill="none" stroke="#000" stroke-linecap="round" stroke-linejoin="round" stroke-miterlimit="10" stroke-width=".5" d="M143.375 317.08984l1.92969-1.51953"/></g><path fill="none" stroke="#000" stroke-linecap="round" stroke-linejoin="round" stroke-miterlimit="10" stroke-width=".5" d="M154.10938 321.98438l6.41015-2.875m-6.41016 2.875l-1.9375-1.50391m15.96094 2.53906l4.99219-4.94531m-4.99219 4.94531l-2.33984-.72656m3.0664.00781l-1.17187-.36328m14.77734-4.57422l2.96094 6.3711m-2.96094-6.3711l1.48047-1.96094m15.53125 2.41797l-4.4336 5.45313m4.4336-5.45313l2.41016.47656m-3.05469.32032l2.40625.47265m-3.05078.32032l1.20313.23437m13.70312-1.54687L208.05859 323m5.03516-4.90234l2.33594.74609m-3.07031-.03516l2.33593.75m12.69922 1.25391l-7.00781-.52734m7.00781.52734l.98438 2.2461m-2.00391-2.32423l.98438 2.25m13.28906-1.73046l-6.88281-1.41407m6.8828 1.41407l.69141 2.35546m-1.6953-2.55859l.6953 2.35156m13.625-2.16796l-6.89062-1.3711m6.89062 1.3711l.71094 2.34765m-1.71094-2.54687l.70703 2.34765m13.57422-1.98437l-6.8203-1.69922m6.8203 1.69922l.59375 2.3789m-1.58593-2.6289l.59375 2.38281m-1.58594-2.6289l.29687 1.1914m15.0625-1l-6.9414-1.08984m6.9414 1.08984l.8047 2.3164m-1.8125-2.47656l.80077 2.32032m13.5625-2.79688l-7.02344.1836m7.02344-.1836l1.21094 2.13672m-2.23047-2.10938l1.20703 2.13672m-2.23047-2.10937l.60547 1.0664m14.73438-1.42578l-6.98438.78907m6.98438-.78907l1.38672 2.02344m-2.40235-1.90625l1.38672 2.01953m12.8125-2.76562l-6.72266 2.04687m6.72266-2.04687l1.73438 1.73828m-2.71094-1.4375l.86328.86719m12.47656-2.69922L328 323.10547m4.82031-5.11328l2.36719.64844m-3.0664.09375l1.18359.32421m12.0664-1.61328l-3.28906 6.20703m3.28906-6.20703l2.45313-.0039m-2.92969.90625l1.22656-.00391m11.94532-1.15625l-2.05079 6.71875m2.05079-6.71875l2.41015-.46875m11.72266.83594l-3.6836 5.98437m3.6836-5.98437l2.44531.15625m-2.98437.71484l1.22656.07813m13.0586-.63672l-4.54688 5.35937m4.54687-5.35937l2.39453.52344m-3.05859.2578l1.19922.26173m11.61328-1.69532l-2.21484 6.66797m2.21484-6.66797l2.41797-.41406m-2.74219 1.38281l2.42188-.41015m10.59375-.70703l-.96485 6.96093m.96485-6.96093l2.30078-.84375m-2.4414 1.85937l2.30468-.84375m-2.44531 1.85547l1.15234-.42188m11.96094-1.63671v7.02734m0-7.02734l2.16406-1.15235m9.36328 7.6875l3.57422-6.04687m-3.05469 5.16797l-1.22656-.0547m17.88281-4.92577l-4.14844 5.67187m4.14844-5.67187l2.42969.34765m10.85156-.37109l-4.07812 5.72266"/><g clip-path="url(#ak)"><path fill="none" stroke="#000" stroke-linecap="round" stroke-linejoin="round" stroke-miterlimit="10" stroke-width=".5" d="M465.60156 317.6875l2.4336.32031"/></g><path fill="none" stroke="#000" stroke-linecap="round" stroke-linejoin="round" stroke-miterlimit="10" stroke-width=".5" d="M465.00781 318.51953l2.4336.32031m-3.02735.51172l1.21485.16016"/><path fill="#ff3030" fill-rule="evenodd" d="M455.50781 458.77344h7.6914V448.625h-7.6914v10.14844"/><path fill="azure" fill-rule="evenodd" d="M457.33984 450.45703h.83594v5.74219h3.1914v.73828h-4.02734v-6.48047"/><path fill="#ff3030" fill-rule="evenodd" d="M326.79688 441.01953h7.6914V430.8711h-7.6914v10.14844"/><path fill="azure" fill-rule="evenodd" d="M328.6289 432.70703h.83204v5.73828h3.19531v.73828h-4.02734v-6.47656"/><path fill="#00f" fill-rule="evenodd" d="M383.80078 436.57813h8.61719v-10.14454h-8.61719v10.14454"/><path fill="azure" fill-rule="evenodd" d="M385.63281 428.26563h.83203v2.82421h3.28907v-2.82421h.83203v6.48046h-.83203v-2.91406h-3.28907v2.91406h-.83203v-6.48046"/><path fill="#00f" fill-rule="evenodd" d="M224.01953 418.82813h8.61719v-10.14844h-8.61719v10.14844"/><path fill="azure" fill-rule="evenodd" d="M225.85156 410.51172h.83594v2.82422h3.28516v-2.82422h.83203v6.48047h-.83203v-2.91406h-3.28516v2.91406h-.83594v-6.48047"/><path fill="#ff3030" fill-rule="evenodd" d="M455.50781 418.82813h7.6914v-10.14844h-7.6914v10.14844"/><path fill="azure" fill-rule="evenodd" d="M457.33984 410.51172h.83594v5.74219h3.1914v.73828h-4.02734v-6.48047"/><path fill="#ff3030" fill-rule="evenodd" d="M211.39844 374.4414h7.6914v-10.14452h-7.6914v10.14453"/><path fill="azure" fill-rule="evenodd" d="M213.23047 366.1289h.83594v5.7422h3.1914v.73827h-4.02734v-6.48046"/><path fill="#ffffe0" fill-rule="evenodd" d="M341.74219 394.53125h22.1836v-10.1914h-22.1836v10.1914"/><path fill-rule="evenodd" d="M345.24219 386.17188h.51172v6.29687h-.78907v-4.49219h-1.38671v-.55469l.55859-.0664.2539-.05078.22657-.08985.20312-.14453.17578-.20703.14063-.29687.10547-.39454m4.8164 0l.22657.01954.21875.05468.21093.08985.19532.1211.18359.14843.17188.17578.30078.42188.24218.49218.1797.54688.11327.57812.03906.59375-.03906.58985-.11328.58593-.17969.5547-.24218.5-.30079.42968-.17187.17969-.1836.15234-.1953.125-.21094.08984-.21875.0586-.22657.01953-.23046-.01953-.21875-.0586-.20704-.08984-.19921-.125-.1836-.15234-.17187-.1797-.30079-.42968-.24218-.5-.17969-.55469-.11328-.58593-.03906-.58985h.83593l.02735.5625.08203.5039.125.44532.16406.3711.1914.30078.21094.22265.22266.13672.22656.04688.22657-.04688.22265-.13672.21094-.22265.1875-.30079.16406-.37109.125-.44531.08203-.5039.03125-.5625-.03125-.5625-.08203-.5-.125-.4375-.16406-.36329-.1875-.29297-.21094-.21484-.22265-.13281-.22657-.04297-.22656.04297-.22265.1328-.21094.21485-.1914.29297-.16407.36328-.125.4375-.08203.5-.02735.5625h-.83593l.03906-.59375.11328-.57812.17969-.54688.24219-.49219.30078-.42187.17187-.17578.1836-.14844.19921-.1211.20704-.08984.21875-.05468.23046-.01954m5.08985 0h.50781v6.29688h-.78516v-4.49219h-1.39062v-.55469l.5625-.0664.25-.05078.23047-.08985.20312-.14453.17578-.20703.14063-.29687.10547-.39454m2.82422 2.17579h.78515l.01953-.31641.0586-.28516.10156-.2539.14063-.21485.17968-.17578.22266-.1289.26562-.07813.3086-.02734.23828.01953.22265.0625.20313.10156.17969.14063.14844.17187.11328.20703.07421.23438.02344.26562-.01953.26953-.0664.22266-.10938.1914-.15625.17188-.20313.16406-.24609.16407-.63281.39062-.53906.3125-.4375.3164-.34375.32423-.26563.33593-.1914.35157-.125.37109-.06641.39063-.02344.42187h4.21485v-.74219h-3.33594l.08594-.28515.11328-.23438.14843-.20312.1875-.1797.23047-.17187.27735-.17578.71875-.41797.41406-.20312.34375-.23047.28125-.2539.22265-.26563.16016-.27735.11328-.28515.0625-.28516.01953-.28125-.03906-.38281-.1211-.34766-.1914-.30859-.25-.26172-.30078-.21484-.34766-.15625-.3789-.09766-.40625-.03515-.4336.03125-.39843.10156-.35547.16406-.30469.23438-.25.30468-.1836.375-.11718.44531-.03906.51954"/><path fill="#ffffe0" fill-rule="evenodd" d="M199.71484 350.73828h22.1836v-10.1914h-22.1836v10.1914"/><path fill-rule="evenodd" d="M203.21484 342.3789h.51172v6.29688h-.78906v-4.49219h-1.38672v-.55468l.5586-.0625.2539-.0547.22656-.08983.20313-.14063.17578-.21094.14063-.29687.10546-.39453m4.81641 0l.22656.01953.21875.05469.21094.08984.19531.1211.1836.14843.17187.17578.30078.42188.24219.49218.17969.54688.11328.57812.03906.59375-.03906.58985-.11328.58594-.17969.55468-.24219.5-.30078.42969-.17187.17969-.1836.15234-.19531.125-.21094.08985-.21875.05859-.22656.01953-.23047-.01953-.21875-.0586-.20703-.08984-.19922-.125-.1836-.15234-.17187-.17969-.30078-.42969-.24219-.5-.17968-.55469-.11328-.58593-.03907-.58985h.83594l.02734.5625.08203.50391.125.44531.16407.375.1914.30078.21094.21875.22266.13672.22656.04688.22656-.04688.22266-.13672.21094-.21875.1875-.30078.16406-.375.125-.44531.08203-.5039.03125-.5625-.03125-.5625-.08203-.5-.125-.4375-.16406-.36329-.1875-.29297-.21094-.21484-.22266-.13281-.22656-.04297-.22656.04297-.22266.13281-.21094.21484-.1914.29297-.16406.36328-.125.4375-.08204.5-.02734.5625h-.83594l.03906-.59375.11329-.57812.17968-.54688.2422-.49218.30077-.42188.17188-.17578.1836-.14844.19921-.1211.20703-.08983.21875-.0547.23047-.01952m5.08984 0h.50782v6.29687h-.78516v-4.49219h-1.39063v-.55468l.5625-.0625.25-.0547.23047-.08983.20313-.14063.17578-.21094.14063-.29687.10546-.39453m2.82422 2.17578h.78516l.01953-.3164.0586-.28517.10156-.2539.14062-.21485.17969-.17187.22266-.1289.26562-.08204.3086-.02734.23827.01953.22266.0625.20313.10156.17968.14063.14844.17187.11328.20703.07422.23438.02344.26562-.02344.26954-.0625.22265-.11328.1914-.15234.17188-.20313.16406-.2461.16407-.6328.39062-.53907.3125-.4375.3164-.34765.32423-.26172.33594-.1914.35156-.125.3711-.06642.39062-.02343.42187h4.21484v-.74219h-3.33594l.08594-.28515.11328-.23438.14844-.20312.1875-.17969.23047-.17188.27734-.17578.71875-.41406.41406-.20703.34375-.23047.28125-.25.22266-.26953.16016-.27734.11328-.28516.0625-.28516.01953-.28125-.03906-.3828-.1211-.34767-.1914-.30859-.25-.26172-.30078-.21094-.34766-.16015-.3789-.09766-.40626-.03515-.43359.03515-.39844.09766-.35547.16406-.30468.23828-.25.30078-.1836.375-.11719.44532-.03906.51953"/><path fill="#ffffe0" fill-rule="evenodd" d="M168.64844 432.28125h22.17969v-10.1914h-22.1797v10.1914"/><path fill-rule="evenodd" d="M172.14844 423.92188h.50781v6.29687h-.78516v-4.49219h-1.39062v-.55469l.5586-.0625.2539-.05468.23047-.08985.20312-.14062.17188-.21094.14453-.29297.10547-.39844m4.8125 0l.23047.01954.21875.05468.20703.08985.19531.1211.1836.15233.17187.17579.30469.41796.24218.4922.1797.54687.10937.57812.03906.59375-.03906.59375-.10938.58203-.17969.5547-.24218.5039-.3047.42578-.17187.17969-.18359.15234-.19531.125-.20703.08984-.21875.0586-.23047.01953-.23047-.01953-.21875-.0586-.20703-.08984-.19531-.125-.1836-.15234-.17187-.1797-.3047-.42577-.24218-.5039-.17969-.5547-.10937-.58203-.03906-.59375h.83203l.03125.5625.07812.5039.1289.44532.16017.375.1914.30078.21094.21875.22266.13672.22656.04688.22656-.04688.22266-.13672.21093-.21875.19141-.30078.16016-.375.1289-.44531.08203-.5039.02735-.5625-.02735-.5625-.08203-.5-.1289-.4336-.16016-.36719-.1914-.29297-.21094-.21484-.22266-.1289-.22656-.04688-.22656.04687-.22266.1289-.21094.21485-.1914.29297-.16016.36719-.1289.4336-.07813.5-.03125.5625h-.83203l.03906-.59376.10937-.57812.1797-.54688.24218-.49219.30469-.41796.17187-.17579.1836-.15234.1953-.1211.20704-.08984.21875-.05468.23047-.01954m5.08984 0h.51172v6.29688h-.78906v-4.49219h-1.38672v-.55469l.5586-.0625.2539-.05468.22656-.08985.20703-.14062.17188-.21094.14062-.29297.10547-.39844m2.82422 2.17579h.78906l.01953-.31641.0586-.28516.09765-.2539.14063-.21485.1836-.17187.22265-.1289.26562-.08204.3047-.02734.23827.02344.22656.0625.20313.10156.17969.13672.14844.17187.11328.20703.0703.23828.02735.26172-.02344.26953-.0664.22266-.10938.19531-.15625.16797-.19922.16406-.24609.16407-.63672.39062-.53515.3125-.4375.3164-.34766.32423-.26563.33593-.1875.35157-.125.37109-.0703.39063-.01954.42187h4.21094v-.74219h-3.33203l.08203-.28515.11328-.23438.14844-.20312.1875-.1797.23047-.17187.27734-.17578.71875-.41406.41406-.20703.34766-.23047.28125-.25.21875-.26953.16406-.27735.10938-.28515.0664-.28516.01953-.28125-.04297-.38281-.12109-.34766-.1875-.30859-.25-.26172-.30469-.21094-.34375-.16015-.3789-.09766-.41016-.03515-.4336.03515-.39843.09766-.35547.16797-.30469.23437-.24609.30078-.1875.375-.11328.44531-.04297.51954"/><path fill="#ffffe0" fill-rule="evenodd" d="M310.67578 334.36719h22.17969v-10.1914h-22.17969v10.1914"/><path fill-rule="evenodd" d="M314.17578 326.00781h.50781v6.29688h-.78515v-4.49219h-1.39063v-.55469l.5586-.0664.2539-.05079.23047-.08984.20313-.14453.17187-.20703.14453-.29688.10547-.39453m4.8125 0l.23047.01953.21875.0547.20703.08983.19531.1211.1836.14844.17187.17578.30469.42187.24219.49219.17969.54688.10937.57812.03906.59375-.03906.58984-.10938.58594-.17968.55469-.24219.5-.30469.42969-.17187.17968-.1836.15235-.1953.125-.20704.08984-.21875.0586-.23047.01953-.23047-.01954-.21875-.05859-.20703-.08984-.19531-.125-.1836-.15235-.17187-.17968-.30469-.4297-.24219-.5-.17968-.55468-.10938-.58594-.03906-.58984h.83203l.03125.5625.07813.5039.1289.44532.16016.3711.1914.30077.21094.22266.22266.13672.22656.04687.22656-.04687.22266-.13672.21094-.22266.1914-.30078.16016-.3711.1289-.4453.08204-.50391.02734-.5625-.02734-.5625-.08203-.5L320 327.75l-.16016-.36328-.1914-.29297-.21094-.21484-.22266-.13282-.22656-.04296-.22656.04296-.22266.13282-.21094.21484-.1914.29297-.16016.36328-.1289.4375-.07813.5-.03125.5625h-.83203l.03906-.59375.10938-.57813.17969-.54687.24218-.49219.30469-.42187.17188-.17578.18359-.14844.19531-.1211.20703-.08984.21875-.05469.23047-.01953m5.08985 0h.51171v6.29688h-.78906v-4.49219h-1.38672v-.55469l.5586-.0664.2539-.05079.23047-.08984.20313-.14453.17187-.20703.14063-.29688.10546-.39453m6.8047 1.6211h-.78516l-.05079-.21485-.08203-.1836-.10937-.16015-.1289-.1289-.14844-.10547-.15625-.07422-.17188-.04297-.17188-.01563-.32812.03907-.28516.1211-.24609.1953-.20313.26954-.16015.33593-.11719.40625-.07031.46485-.02344.52734.1875-.20313.1875-.16015.1836-.1211.1875-.08593.1875-.0625.1914-.03516.40235-.02734.30859.03125.32031.09375.3125.15625.29688.21875.2539.28515.19922.34766.07422.20313.05078.21484.03125.23437.0039.25391-.78906.04688-.02734-.26172-.07422-.25-.125-.23438-.16015-.21094-.19141-.17578-.22266-.13672-.23828-.08984-.2539-.03125-.25782.03125-.23828.08984-.21875.13672-.19531.17578-.16016.21094-.12109.23438-.07813.25-.02734.26171.02735.25782.07812.25.1211.23437.16015.21094.19531.17578.21875.14063.23828.08593.25782.03125.2539-.03125.23828-.08593.22266-.14063.1914-.17578.16016-.21094.125-.23437.07422-.25.02735-.25781.78906-.04688-.03125.3711-.09375.37109-.15625.35937-.22266.32813-.28906.28125-.17188.1211-.1875.10155-.20703.08204-.22265.0625-.2422.03515-.2578.01563-.28516-.01563-.25781-.04687-.23828-.07813-.21485-.10547-.19531-.1289-.17578-.15625-.15235-.1797-.13671-.20312-.1172-.22265-.09765-.24219-.14844-.53516-.08593-.59375-.02344-.64062.03516-.74219.11718-.66406.1836-.57813.1211-.2539.13671-.23047.15234-.20703.17188-.1836.1875-.15625.20312-.1289.21485-.10156.23437-.07422.2461-.04297.26171-.01563.3672.03516.33202.09375.29688.15234.2539.19922.21094.24219.16797.27344.11328.30078.0625.32422"/><path fill="#ffffe0" fill-rule="evenodd" d="M207.83203 325.85156h22.17969v-10.1914h-22.17969v10.1914"/><path fill-rule="evenodd" d="M211.33203 317.49219h.50781v6.29687h-.78515v-4.49219h-1.39063v-.55468l.5625-.0664.25-.05079.23047-.08984.20313-.14063.17578-.21094.14062-.29687.10547-.39453m4.8125 0l.23047.01953.21875.05469.20703.08984.19531.1211.1875.14843.16797.17578.30469.42188.24219.49219.17969.54687.11328.57813.03515.59375-.03515.58984-.11328.58594-.1797.55468-.24218.5-.30469.4297-.16797.17968-.1875.15234-.1953.125-.20704.08985L216.375 324l-.23047.01953-.23047-.01953-.21875-.0586-.20703-.08984-.19531-.125-.1836-.15234-.17187-.17969-.30078-.42969-.2461-.5-.17968-.55468-.10938-.58594-.03906-.58985h.83203l.03125.5625.08203.50391.125.44531.16016.375.1914.29688.21094.22265.22266.13672.22656.04688.22656-.04688.22266-.13671.21094-.22266.1914-.29688.16016-.375.1289-.4453.08204-.50392.02734-.5625-.02734-.5625-.08203-.5-.12891-.4375-.16016-.36328-.1914-.29296-.21094-.21485-.22266-.13281-.22656-.04297-.22656.04297-.22266.13281-.21094.21485-.1914.29296-.16016.36329-.125.4375-.08203.5-.03125.5625h-.83203l.03906-.59375.10938-.57813.17969-.54688.24609-.49218.30078-.42188.17188-.17578.18359-.14844.19531-.12109.20703-.08984.21875-.0547.23047-.01952m5.09375 0h.50781v6.29687h-.78906v-4.49219h-1.38672v-.55468l.5586-.0664.2539-.05079.23047-.08984.20313-.14063.17187-.21094.14063-.29687.10937-.39453m6.80078 1.6211h-.78515l-.05078-.21095-.08204-.1875-.10937-.16015-.1289-.1289-.14454-.10548-.16016-.07422-.16796-.04296-.17578-.01563-.32813.03906-.28516.1211-.24609.1953-.20313.26954-.16015.33594-.11719.40625-.07031.46484-.02344.52735.1875-.20313.1875-.15625.1836-.125.1875-.08594.1875-.0625.1914-.03515.40234-.02344.3086.02734.32031.09375.3164.15625.29298.21875.2539.28516.19922.34765.07422.20313.05078.21484.03125.23438.0039.2539-.78905.04688-.02344-.26172-.07813-.25-.125-.23437-.16015-.21094-.19141-.17578-.21875-.13672-.24219-.08985-.2539-.03125-.25782.03125-.23828.08985-.21875.13672-.19531.17578-.16016.21094-.12109.23437-.07813.25-.02734.26172.02734.25781.07813.25.1211.23438.16015.21094.19531.17968.21875.13672.23828.08594.25782.03125.2539-.03125.24219-.08594.21875-.13672.1914-.17969.16016-.21093.125-.23438.07813-.25.02344-.25781.78906-.04688-.03125.3711-.09375.3711-.15625.35937-.22266.32812-.28906.28125-.17188.1211-.1875.10156-.20703.08203-.22265.0625-.2422.03906-.2578.01172-.28516-.01562-.25781-.04688-.23828-.07812-.21485-.10547-.19531-.1289-.17578-.15626-.15234-.17969-.13672-.20312-.1172-.22266-.09765-.24219-.14844-.53515-.08203-.59375-.02734-.64063.03906-.74218.11328-.66407.1836-.57812.1211-.2539.13671-.23048.15625-.20703.16797-.1836.1875-.15624.20312-.1289.21485-.10157.23437-.07031.2461-.04688.26172-.01562.36718.03515.33203.09375.29688.15235.2539.19922.21094.24218.16797.27344.11328.30078.0625.32422"/></g></defs><use xlink:href="#al"/></svg>