<svg xmlns="http://www.w3.org/2000/svg" role="img" xmlns:xlink="http://www.w3.org/1999/xlink" viewBox="142.45 309.95 326.84 171.84"><defs><clipPath id="a"><path d="M144 311.67188h1V347h-1zm0 0"/></clipPath><clipPath id="b"><path d="M144 311.67188h324v168.65625H144zm0 0"/></clipPath><clipPath id="c"><path d="M393 477h8v3.32813h-8zm0 0"/></clipPath><clipPath id="d"><path d="M467 311.67188h1v168.65625h-1zm0 0"/></clipPath><clipPath id="e"><path d="M144 479h4v1.32813h-4zm0 0"/></clipPath><clipPath id="f"><path d="M147 480h2v.32813h-2zm0 0"/></clipPath><clipPath id="g"><path d="M153 479h9v1.32813h-9zm0 0"/></clipPath><clipPath id="h"><path d="M160 480h2v.32813h-2zm0 0"/></clipPath><clipPath id="i"><path d="M166 479h9v1.32813h-9zm0 0"/></clipPath><clipPath id="j"><path d="M173 480h3v.32813h-3zm0 0"/></clipPath><clipPath id="k"><path d="M180 479h8v1.32813h-8zm0 0"/></clipPath><clipPath id="l"><path d="M187 480h2v.32813h-2zm0 0"/></clipPath><clipPath id="m"><path d="M193 479h8v1.32813h-8zm0 0"/></clipPath><clipPath id="n"><path d="M206 479h9v1.32813h-9zm0 0"/></clipPath><clipPath id="o"><path d="M212 480h2v.32813h-2zm0 0"/></clipPath><clipPath id="p"><path d="M220 478h8v2.32813h-8zm0 0"/></clipPath><clipPath id="q"><path d="M233 478h8v2.32813h-8zm0 0"/></clipPath><clipPath id="r"><path d="M247 478h7v2.32813h-7zm0 0"/></clipPath><clipPath id="s"><path d="M262 476h4v4.32813h-4zm0 0"/></clipPath><clipPath id="t"><path d="M275 476h4v4.32813h-4zm0 0"/></clipPath><clipPath id="u"><path d="M287 477h6v3.32813h-6zm0 0"/></clipPath><clipPath id="v"><path d="M300 478h7v2.32813h-7zm0 0"/></clipPath><clipPath id="w"><path d="M315 476h4v4.32813h-4zm0 0"/></clipPath><clipPath id="x"><path d="M329 476h3v4.32813h-3zm0 0"/></clipPath><clipPath id="y"><path d="M341 477h6v3.32813h-6zm0 0"/></clipPath><clipPath id="z"><path d="M353 477h8v3.32813h-8zm0 0"/></clipPath><clipPath id="A"><path d="M366 479h9v1.32813h-9zm0 0"/></clipPath><clipPath id="B"><path d="M367 478h2v2.32813h-2zm0 0"/></clipPath><clipPath id="C"><path d="M379 479h9v1.32813h-9zm0 0"/></clipPath><clipPath id="D"><path d="M378 477h3v3.32813h-3zm0 0"/></clipPath><clipPath id="E"><path d="M393 480h8v.32813h-8zm0 0"/></clipPath><clipPath id="F"><path d="M392 477h2v3.32813h-2zm0 0"/></clipPath><clipPath id="G"><path d="M393 479h2v1.32813h-2zm0 0"/></clipPath><clipPath id="H"><path d="M406 479h9v1.32813h-9zm0 0"/></clipPath><clipPath id="I"><path d="M405 478h3v2.32813h-3zm0 0"/></clipPath><clipPath id="J"><path d="M406 479h3v1.32813h-3zm0 0"/></clipPath><clipPath id="K"><path d="M419 479h9v1.32813h-9zm0 0"/></clipPath><clipPath id="L"><path d="M418 478h3v2.32813h-3zm0 0"/></clipPath><clipPath id="M"><path d="M433 478h8v2.32813h-8zm0 0"/></clipPath><clipPath id="N"><path d="M446 478h8v2.32813h-8zm0 0"/></clipPath><clipPath id="O"><path d="M460 478h8v2.32813h-8zm0 0"/></clipPath><clipPath id="P"><path d="M144 466h4v2h-4zm0 0"/></clipPath><clipPath id="Q"><path d="M144 453h4v2h-4zm0 0"/></clipPath><clipPath id="R"><path d="M144 439h4v3h-4zm0 0"/></clipPath><clipPath id="S"><path d="M144 426h4v2h-4zm0 0"/></clipPath><clipPath id="T"><path d="M144 413h4v2h-4zm0 0"/></clipPath><clipPath id="U"><path d="M144 399h4v3h-4zm0 0"/></clipPath><clipPath id="V"><path d="M144 385h4v5h-4zm0 0"/></clipPath><clipPath id="W"><path d="M144 371h4v6h-4zm0 0"/></clipPath><clipPath id="X"><path d="M144 357h3v7h-3zm0 0"/></clipPath><clipPath id="Y"><path d="M465 357h3v2h-3zm0 0"/></clipPath><clipPath id="Z"><path d="M144 344h3v7h-3zm0 0"/></clipPath><clipPath id="aa"><path d="M466 345h2v3h-2zm0 0"/></clipPath><clipPath id="ab"><path d="M465 345h3v3h-3zm0 0"/></clipPath><clipPath id="ac"><path d="M144 330h2v8h-2zm0 0"/></clipPath><clipPath id="ad"><path d="M466 331h2v2h-2zm0 0"/></clipPath><clipPath id="ae"><path d="M144 317h2v7h-2zm0 0"/></clipPath><clipPath id="af"><path d="M465 317h3v2h-3zm0 0"/></clipPath><g id="ag" clip-path="url(#clip1)"><path fill="#fff" fill-opacity="0" fill-rule="evenodd" d="M0 0h1000v1000H0zm0 0"/><path fill="#d3d3d3" fill-opacity="0" fill-rule="evenodd" d="M162.15234 355.86719l-.23437.29297.0586.23437.11718.17188.17578.23437.29297.34766.11328.0586.11719-.17188.0586-.23438.17577-.17578.46485-.17578h.69922l.23437.29297.28906.8164.0586.17579.17578.23046.35156.23438.69922.69922.17188.17578.23437.34765.23438.41016.28906.58203.41015.46485.23047.23437.23438.17578.11719.23047.17578.29297.17187 1.16406v.23438l.0586.28906.05859.11719.11719.11719.34765.41015.11719.17188.17578.17578.17578.23437.11719.17188.17188.35156.05859.23438.23437.40625.23438-.0586-.17578.17578-.0586.92969h-.58203l-.23437-.11328-.34766.11328-.11719.11719-.05859.29297-.0586.17578-.11718.17187-.46484.29297-.0586.23438-.0586.11328v.64453l.0586.17187v.41016l.0586.0586v.40624l.05859.40625.11719.17579.05859.05859.23047.64062-.0586.29297v.69922l-.05859.58203v.23438l-.0586.23047-.05468.35156v1.92187l.05469.1172h.42578l-.36719.11718-.02344.35156.89063 1.16797 1.74219.53906 1.33984.35938v.53906l.08984.8086.53516.71484 1.51953.26953.89063-.08594.08984 1.16406.53516.1797 1.16015-.1797 2.05469-.98437 1.16016-.36328 1.8789-.17578 1.69531-.1797-.17968.71876-1.51563.08594-1.25.08984-.80469.26953-1.07421.8086.26953.71875.53515.89843-.17968.625-.26563.8086.26563 1.07812.625.89844.80468.17969 1.25-.1797-.26562.72267.09766.5039.05468.29297v.17188l.0586.29296v.40625l.17578.1172.35156.11718h.40625l.29297-.17578.11328-.11719.0586-.11719.11718-.23047.0586-.17578.35156-.46484.23047-.17578.17578-.0586.17578.0586.0586.17578.11718.98828.05469.46875.0586.17188.11718.23437.17578.0586.8164.05859h.28907l.11719.23437.05859.40625.0586.35156v1.10547l.11718.29297.11719.34766.28906.69922.17578.35156.58203.7539.35157.17579.17187.0586.46875.23437.64063.46484.34765.23438.29297.17578.29297.05468.23047.0625.8164.34766.29297.17578.11328.17188.35157.35156.11719.17578.52343.64063v.28906l.0586.35156v.34766l.05859.35156.0586.28906.11718.0586.17188.05859h.17578l.58203.23437.17578.1172.17578.28905.17578.23438.11328.23437.29297.23047.11719.11719v.41016l.0586.05468.28906.23438.23437.11719.0586.11718.11718.17188.0586.11719.23047.23437.05859.17578.23437.0586.1172.05859-.1172.11328-.05859.11719v.11719l-.11719.29296-.11719.28907v.58203l.17579.11719.11718.05859.0586.11719.11719.11719.11328.05859.17578.34765.0586.35157.05858.40625v.17578l-.05859.17578-.11719.69922v.17187l.1172.17579.29296.29296h.40625l.17578.1172.11719.17187.11719.29296v.23438h-.52735l-.23047-.23438h-.23437l-.17578.0586-.0586.69922.0586.34765.11719.17579.17578.41015.11718.23047.28907.46875.17578.05469h.52344l.23437.0586.75781.64062.0586.29296v.23438l.05859.0586.23047.34765v.35156l-.11719.17188v.29297l.29297.28906.29297.17578.17187.0586.29297.17577.29297.1172.58203.40624.28906.23438.29297.17578.21875.16015.01563.01172.23047.17579.64062.52343.17578.23438.1172.17578.17577.17578.11328.17188v.64062l.1172.17578.46874.11719.58203.11719.23438.05859.23047.11328.29297.11719.11328.0586.58593.35156.28907.17187.17578.0625.17578.05469.17578.0586.69922.35155.28906.17579.23438.05468.28906.17578.23437.1172.64063.40624.29297.11719.17187.0586.23438.05859.41015.05859.23047.0586.23438.11718.0586.17188-.41017.17578.46875.0586.0586.29296.11328.23438.17578.05468.23438.0586.17578.05859.40625.11719.64062.23437.11719.17188.0586.23437v.17578l-.0586.1172-.0586.40624.23438.23438.11719.05859.34766.11719.64062.23047.17578.11718.28906.1172.17578.17577.23438.46485.58203 1.10546.17578.17579.34766.17578.17578.11719.35156.11718 1.04688.52344.23437.0586.46485.11327.29297.0586.46484.17578.75781.58203.23438.23438.34765.46484.17578.17578.28907.23438.8164.69921.29297.17579.28906.28906.29297.17578.29297.28906.69531.64063.17578.17578.29297.23437.28907.23438.46875.28906.64062.58203.34766.23438.23437.29297.34766.34765.35156.46485.9336.99218.34765.40625.11719.17579.23437.05859.11328.11719.64454.17578.23047.11328.23437.0586.29297.17577.23047.1172.9336.69921.40624.40625.23438.17578.40625.17578.23437.11719.8164.34766.34766.23437.23438.11719.29297.28906.23047.11719.7578.35156.35157.17188.23047.05859.29297.11719.23437.0586.8711.17577h.8164l.46875.23047.17188.0586.875.69921.46484.1172.29297.05858.17578.0586.23047.0586.46875.05859.34766.05859.35156.0586.40625.05859h.29297l.17187.0586v.23046l.17578.17578h.29297l.34766.0586.35156.05859.69922.11719h.64063l.46484-.23438.29297-.17578.17187-.11719.41016-.17187.28906-.17578.9336-.46485.46875-.29297.52343-.29296.46485-.17188.46484-.17578 1.05078-.46485.28906-.11718.41016-.11719.28906-.11719.52735-.17578 1.51562-.69922.58203-.34765.28907-.0586.29297-.0586.34765-.11718.875-.23047.35156-.11719h.11329l.23437-.05859.875-.23437.23438-.0586h.8125l.35156-.0586.8164-.11718.17188-.0586.35156-.05468.29297-.0586.23047-.05859.8164-.17578.17579-.0586h.34765l.23438-.05859.46484-.11718.75781-.17188.23438-.0586h.34765l.41016-.11718.28906-.0586 1.28516-.05859h.28906l.41016-.0586.23047-.05858h.17578l.875-.1172h.40625l.41015-.11718h.34766l.35156-.11328.8711-.0586h1.75l1.04687.28907.41016.11719.28906.11718.35156.11719.28907.11719 1.05078.17187.28906.0586h.29297l.29297.05859.17187.0586.41016.05859.17187.0586.1172.05858h.11718l.11719.0586.35156.0586h.11328l.41016.0664 1.92187.39453 1.92578.39453 1.51953.44922 1.69532.71875 2.14453.80469 1.60547-.71875 1.42968-.80469 1.16016-1.07813 1.25-.44921 3.03516-.71875 1.875-.35938 2.14453-1.34765 2.23437-1.25391 2.5-1.25781 1.69531-.44922 1.78516-.17969 1.16016-.26953.625.53906 1.33984-.26953.71485-.98828.98437-1.34375.44531-.17969.80469-.35937 1.875-.53907 1.78516-.44921 1.25-.26954 1.16015-.08984 1.69922-.08984 1.96094-.26954 1.25-.08984h.53906l.625-.08984h.89063l2.14453-.17969 2.41015-.17969 2.58985-.08984 1.69531.17969 1.60938.08984 1.42968.35938 1.16016.71875 1.875.98828 1.16015 1.52734.26563.71484.6289.08985.35548.89844.53515.53906.53516 1.52734 1.07422.35938h.53515l-.80469.53515.08985 1.70703.71484 2.69532.89063.80468.89453.98829.71484 1.2578 1.78516.53907 1.51953-.17969.35547 1.34375 1.60937-.80469.98047-.53906.26953.26953.31641-.21484.21875-.14453.80078.44922.44922-.35938h.35547l.53515-.26953.53907-.71875.53515-.26953.625-.98828 1.16016.44922.83984.3711 1.39454.61718 1.6953-.17969h1.60548l1.78515.08985.17969-1.70704.53516-1.34375.80468.26954.4922.84765.40233.40625-.08984.53906v.35938l.71485.44922.71093-.26953h1.42969l.35938.98828.4453 1.25781.71485 1.34375 1.25.6289 1.69531.62891.71485-.17969.17969-.53906.98046-.08984.44922.35937.08594 1.25782-.26563.6289-.53515.17969v.53906l.71484.98438.26563.53906.98437.98828.80078 1.07813-.26562.35937-.08985.89844-.625 2.33203-.35546 2.0664-.08985 1.79298-.17969.71875-.08984.53906v1.4375l-.98047 1.88281-.35937 1.70703-.53516.89844-.80469 1.16797-.26562.53906 2.05469 1.2539.08593.35938-.35546.53906-.08985-.17968v.80859l.08985 1.4375-.44532.71484-1.07422.09375-.26562.71485.53515.89844.8047.71875 1.16015.80859 1.33984.26953.44531.35938-.35546.44921-1.78907-.08984-1.25-.44922-.71484-.71875-.625-.08984-.17578 3.58984-.1875 1.3086h89.35937V311.70313h-55.26953v49.08203l.76172.125 3.28906.54296 2.02344 2.83594v2.7539l2.35156.33204 2.34766.33203h4.05078l-1.3789 4.16016-2.02344.70703-2.02344.70312-.54297.34375-2.59375 1.6172-.1875.11718-2.02344-2.07813-.73046-2.74218-2.67188-2.07813-1.375-3.5-.0664-.08203-1.95704-2.67188 2.75-1.41796v-49.08204H294.42187v91.41407l.1172.03125.1328.01172.07422.07421.10547.04688.08985.0586.08593.05859.08985.0586.29687.29687.0586.08984.03125.11719.02734.11719.01563.13671-.03125.1172-.0586.08983-.0586.08594-.04296.10547-.04688.10156-.02734.1211v.14453l.17578.26953.14844.14844.07422.08594.07422.07421.04296.10547.0625.08985.0586.08593.04297.10547.0586.08985.04687.10156.04296.10547.0586.08594.11719.17968.07421.07422.0625.08594.0586.08984.04297.10547.0586.08985.05858.08593.0625.08985.0586.08984.04297.10156.11719.17969.07421.07422.0586.08594.07422.07421.08984.0586.10547.04687h.14844l.1328-.01562.13282.01562.10156-.04687.07422-.07422.04688-.10156-.01563-.13281v-.14844l-.04687-.10547-.02735-.11719-.04687-.10156-.02735-.1211-.04296-.10156-.0625-.08984-.04297-.10156-.04297-.10547-.03125-.11719-.01563-.13281-.01171-.13672.08593-.0586.0586-.08593.12109-.03125.04297.10547.01562.1328v.1172l.0586.10156.0586.08984.08983.0586.14844.14843.0586.08985.04296.10547-.01171.10156.08593.0586.10547.04687.08594.0586.08984.05858.07422.07422-.11719.02735-.10546.04687-.08594.0586-.07422.07421-.0586.08985-.0625.08594-.02734.12109-.04687.10156-.04297.10547-.03125.11719-.01172.13281-.01563.13281v.14844l.02735.11719.04687.10547.04297.10156.0586.08984.07421.07422.08985.0586.07422.07421.08984.0586.0586.08984.04296.10547.04688.10156.11719.03125.1328.01563h.14845l.11718-.03125.10547.04297.04297.10547.04688.10156.02734.1211L299.5 410l.02734.11719.03125.1211.02735.11718.10547.04297.10156.04687.13281-.01562.14844.14844.0625.08593.07422.07422.07031.07422.08984.0625.10547.04297.10156.04297.1172.03125.13671.01562.11719-.03125.07422-.07422.02734-.11718-.01172-.13282-.03125-.12109-.02734-.11719.04297-.10547h.11719l.08984.0625.11719.02735h.14843l.13282.01562h.14843l.13282.01563.1328-.01563h.14845l.1328-.01562.13282-.01172.13672.01172.11719-.02735.13281-.01562.1914-.0586-.05859.17579-.01562.1328-.02735.1211-.01562.13281-.0586.08594-.1328.01563-.10548.04687-.10546.04297-.1172.03125-.11718.02735-.26563.03125h-.14843l-.13281.01562-.07422.07422.05859.08594.14844.14843.11719.1797.07421.0703.08985.0625.08984.0586.08594.0586.08984.05858.10156.04297.10547.0625.10547.04297.08594.0586.10547.04687.10156.04297.17969.11719.0586.08984-.04298.10156-.04687.10547.01562.13281.22266.22266.0586.08985.04296.10156.03125.1211.04297.10155.01563.13282.03125.11718.01171.13672.03125.11719.14844.14844.10156.04297.10547.04296.1172.03125.1328.01563.13672.01563h.11719l.11719-.03125.08984-.0586.04297-.10547.04688-.10156.04296-.10547.03125-.11719.01172-.1328v-.14845l-.01172-.1328-.01562-.13282-.03125-.11719-.04297-.10547-.04688-.10547-.04296-.10156-.04297-.10547-.01563-.13281.01563-.13281.02734-.11719.03125-.11719.02735-.1211.04687-.10155.08984-.0586.08594-.0625.07422-.07422.08984-.05859.22266-.22266.0586-.08593.07421-.07422.11719-.17969.0586-.08594v-.14844l-.07423-.07421-.10156-.04688-.10547-.04297-.10156-.04297-.0586-.08984-.04687-.10547-.02734-.11719.08984-.05859.11719-.03125.10156-.04297.17969-.11719.14844-.14843.01172-.13282-.01172-.10546-.08985-.0586-.1328.01563h-.14845l-.1328.01562-.13282-.01562-.1211-.03125-.08593-.0586-.07422-.07422-.0586-.08984-.0625-.08594-.11718-.17969-.0586-.08593.03125-.1211.08594-.05859.1211-.03125.05859-.08594v-.1211l-.03125-.11718-.0586-.08984-.05859-.08594-.04687-.10547-.02735-.11719-.01562-.1328.0586-.08985.07421-.07422.08984-.0586.1172-.17968.07421-.07422.0586-.08594.14843-.14844.1211-.03125.1328-.01562.13282.01562.07422.07422.04297.10547.01562.13281-.03125.1172-.11719.03124-.1328.01172-.14844.14844-.04297.10547-.04688.10156-.02734.1211-.03125.11718v.14844l.03125.11719.04297.10546.05859.08985.07422.07031.07422.07422.11719.03125.12109.02734.11719-.02734.1328-.01563h.1172l.08984.0586.07422.07422.04687.10546.0586.08594.10156.04688.13281.01562.10547.04297.08594.0586-.01172.10546-.07422.07422-.17969.11719-.05859.08984-.08984.0586-.07032.07422-.07421.07421-.0625.08985-.02735.11719-.01562.1328.01562.13282-.01562.13281v.14844l.01562.13281.02735.1172.03125.12108.07421.07422.08985.0586.08594.0586.08984.05858.11719.03125v.08594l-.10157.04688-.08984.0586-.26563.03124-.11718.02735h-.14844l-.10547.04296-.10156.04688-.0586.08984-.0625.23438-.01171.13281-.03125.1211-.01563.1328v.29298l-.01172.1328.01172.13673.01563.1328.1328.01563.13282.01172.1211.03125.08593.0586.07422.07421.04688.10547.04296.10157.01563.1328v.44532l-.01563.13281v.44532l.03125.26562.02735.11719.01562.13281.03125.11719.08594.21094.03125.26562v.14844l-.03125.11719-.02734.11718-.03125.1211-.02735.11719-.03125.11718-.03125.1211-.01171.1328-.01563.13282.08984.0586.1172-.03125.10155.01562.04688.10547-.03125.26562v.44141l-.04297.10547-.04688.10547-.04296.10156-.04297.10547-.0586.08594-.03125.12109-.04296.11719-.03125.11719-.01563.1328.01563.13282.05859.08984.10547.04688.08594.0586.05859.08593-.01172.13672-.03125.11719-.04297.10156v.44531l-.01562.13281v.14844l-.03125.11719-.04297.10547-.02735.11719-.04687.10546-.04297.10157-.03125.12109-.02734.11719-.03125.13281-.03125.11719-.02735.11719-.04297.10546-.03125.1172-.03125.12108-.01171.13282-.01563.13281v.29688l.02734.11718v.14844l.04688.39844.02734.11719.0586.08984.12109.03125h.14844l.13281-.01563.0586.08985v.11719l-.0586.08984-.08984.0586-.10157.04296-.10546.04688-.08985.05859-.08594.0586-.13671.01562-.1172-.03125-.1328-.01563-.10157.04688-.0625.08594-.01172.13671-.01562.13282-.03125.11719-.02735.11718-.01562.13281-.03125.1211v.29687l.01563.13282.03125.11718v.14844l.01171.13281v.14844l-.02734.11719-.04688.10156-.02734.1211-.03125.11718-.0586.08985-.07421.07421-.10156.04297-.10547.04688-.11719.02734-.1211.03125-.10156-.04687.0586-.08594.10547-.04688.02734-.11718.03125-.11719.02734-.1211.03125-.11718v-.14844l.01563-.13281-.03125-.11719-.04297-.10547-.10547.01563-.07422.07422-.10156.04296-.08984.0625-.07422.07422-.04297.10157-.01563.1328-.03125.1172L304.25 426l-.03125.11719-.02734.11719-.03125.12109-.02735.11719-.03125.11718-.04297.10547-.08984.0586h-.08984l-.1172-.03125-.03124-.08594.01562-.13672-.03125-.11719v-.14844l-.01171-.1328v-.14844l-.0625-.23438-.02735-.1211-.04297-.10156-.04687-.10546-.0586-.08594-.05859-.08985-.04297-.10546-.0625-.08594-.14844-.14844-.0703-.07422-.10548-.04687-.10547-.04297-.10156-.04297-.29687-.29688-.08985-.07421-.08594-.0586-.10546-.04297-.08985-.0625-.08594-.0586-.10546-.04296-.08985-.0586-.08594-.0625-.07421-.0703-.10547-.04688-.08594-.0586-.10547-.04296-.08984-.0625-.10156-.04297-.10547-.04297-.08594-.0586-.10547-.04687-.10547-.04297-.10156-.04687-.08985-.0586-.10156-.04297-.10547-.04296-.08984-.0625-.11719-.02735-.13281-.01562-.13281.01562H299.75l-.13281.01563-.11719-.03125-.08984-.0586-.07422-.07422-.08985-.05859-.10156-.04688h-.14844l-.12109-.02734-.10156-.04297-.07422-.07422-.11719-.17968-.08984-.0586-.10156-.04297-.08985-.0625-.10547-.04296-.08984-.0586-.08594-.0586-.10547-.04687-.0586-.08594-.05858-.08984-.04297-.10547-.04688-.10156-.07422-.07422-.08594-.0586-.07421-.07421-.08985-.0586-.22265-.22265-.04297-.10547-.03125-.26563.10547-.04296h.14453l.10547.04296.07421.07422.08985.0586.08594.0586.10546.04687.08985.05859.14844.14844.0703.07422.14845.14843.0625.08594.07421.07422.08594.0586.07422.07421.08985.0625.08984.0586.08594.05859.26953.17578.10156.04688.10547.04296.10156.04297.04688-.07421.05859-.08594.07422-.07422.07031-.07422.10547.04297.07422.07422.0586.08984.04296.10156.04688.10547.04296.10547.1211.02735.11719-.02735.07421-.08984.04297-.10547.0586-.08985.07422-.07421.10546-.04297.1172-.02735.1328.01172.08985.0586.14844.14843.05859.08985.04297.10547.04687.10156.04297.10547.04297.10156.10547.04688.10547.04296.13281.01563.08594-.0586.0586-.08984.07421-.07422.10547-.04297.11719.02735.10547.04687.10156.04297.10547.04297.10156.04688.17969.11718v.11719l-.01563.13281.01563.13281.01562.13672.0586.08594.10156.04688.1211.02734.11718.03125h.14844l.11719-.03125.05859-.08984.17969-.1172.05859-.08983.07422-.07422.0586-.08594.11718-.17969.17969-.11719.11719.03125.08984.0586.04297.07422-.01563.1328v.1172l.08985.05859h.14843l.13282-.01563.1328-.01171.26563-.03125.10547-.04297.11719-.03125.1211-.02735.07421-.07421.07031-.07422.0625-.08985-.01562-.10547-.04688-.10156-.10156-.04297-.10547-.01562-.11718.02734-.26563.03125h-.14844l-.07421-.07422-.08985-.0586-.11719-.03124-.11718-.02735-.13282-.01562h-.14843l-.13282.01563h-.29687l-.10547-.04688-.14844-.14844-.04297-.10156-.05859-.08984.22266-.22266.08593-.0586.10547-.04296.11719-.03125.13281-.01563.13281.01563.13672.01562.10157.04297.1328-.01172.08985-.0625.10156-.04297.0625-.08984-.04687-.10156-.08984-.0586-.1172-.03125-.10155-.04296-.0586-.08985-.0625-.08984v-.11719l.01563-.13281.10547-.04688.07421-.07031v-.1211l-.08984-.05859-.03125-.11719.08985-.05859.07421-.07422.04297-.10547.0586-.08984.04687-.10156.01563-.13281v-.14844l-.04688-.10547-.04297-.10156-.08984-.0586-.13281-.01562-.10157-.04297-.13671-.01563-.1172-.03125h-.4453l-.13282-.01562-.13281-.01172-.13281-.01563-.11719-.03125h-.14844l-.13281-.01562-.13281-.01172-.26563-.03125-.1211-.04297-.08593-.0586-.07422-.07421v-.14844l.01172-.13281.10547-.04688.10156-.04296.13281-.01563h.15235l.13281-.01562h.29297l.1211.03125.10156.04296.08984.0586.23438.0625.12109-.04688.08984-.05859.10156-.04297.13282-.01562.10547.04296.10156.04688.13281.01172.1211-.02735h.14453l.12109-.03125.11719-.02734.10547-.04687.07421-.07422.08594-.0586.14844-.14843.0586-.08594.04687-.10547.02734-.11719.01563-.10547-.10156-.04296-.08985-.0586-.11719-.03125-.10546-.04297-.08985-.0625-.07422-.08594-.07422-.07421-.10156-.04297-.10547-.04688-.10156-.04297-.0586-.08984-.04687-.10156-.08594-.21094-.0625-.08594-.05859-.08984-.07422-.07422-.08594-.0586h-.26953l-.11719.03126-.08984.05859-.10156.04297-.13281.01562-.10547-.01562-.02735-.11719-.0625-.08984-.11718-.03125-.10157-.04297-.14843-.14844-.03125-.11719-.01563-.10546.07422-.07422.17969-.1172.11719-.02733.11718-.03125.13672.01562.10156.04297.10547.04297.10156.04687.10547.04297.1172.03125.1328.01563.1172.02734.1328.01563.10547-.01563.08985-.0586-.07422-.07421-.10547-.04297-.07422-.07422-.07422-.08984-.14844-.14844-.08593-.0586-.08985-.05859-.07422-.07422-.08984-.0586-.10156-.04687-.1211-.02734-.10156-.04688-.10547-.04296-.11719-.03125-.10156-.04297-.1211-.03125h-.14843l-.11719.03125-.10546.04297-.08594.0625-.17969.11718-.08594.0586-.08984.0586-.10547.04687-.08594.05859-.10547.04297-.10156.04297-.10547.04687-.07422.07422-.05859.08985-.0586.08593-.04687.10547-.0586.08594-.07421.07422-.13281-.01172-.1172-.03125h-.11718l-.07422.07422-.08984.0586-.07422.07421-.08984.0586-.08594.05859-.10547.04687-.10156.04297-.13672.01563-.10156-.04297-.14844-.14844-.10547-.04688h-.08594l-.10547.04688-.10156.04297-.1211.03125-.11718-.03125-.07422-.07422v-.11719l.03125-.1211.07422-.0703.0586-.08985.07421-.07422.11719-.03125.10547-.04296h.29297l.13281-.01563.13672-.01563.10156-.04296.08985-.0586.10156-.04687.08984-.0586.13281-.01171.08985.05859.13281.01172.08984-.0586.08594-.05859.10547-.04297.08984-.0586.08594-.0625.08985-.05859.14843-.14843.0586-.08594.05859-.08985.10547-.04296.13281-.01563.11719.02735.1211.03125.05859-.0586.05859-.08984.03125-.26563.02734-.11719.10547.01172.13281.01563.10157-.04297.08984-.0586.0586-.08984.07421-.07422.0586-.08984.04687-.10156.01172-.13281-.01172-.13282-.04687-.10547-.14844-.14843-.0586-.08985-.05859-.08594-.04297-.10546v-.44532l.01563-.1328v-.14845l.01172-.1328-.0586-.0586-.08984.0586-.10156-.04298-.17969-.11719-.08594-.05859-.0625-.08984-.0586-.08985-.07421-.07421-.08594-.0586-.1211.03125-.10155.01172-.10547.04688-.08594.05859-.10547.04297-.14844.14844-.08984.05859-.08594.0586-.08984.0625-.10547.04296-.13281.01563v-.1211l.10547-.04297.11718-.03125.07422-.0703.04297-.10548v-.14844l-.02734-.11718-.14844-.14844-.13281-.01563h-.14844l-.11719.03125-.10547.04297-.10156.04297-.08984.0625-.11719.02735-.07422-.07422.01172-.13281-.04297-.10157-.04297-.10547-.08984-.05859-.11719.02734-.1211.03125-.11718.03125-.10156.04297-.1211.03125-.10156.04297-.10547.04297-.08984.0586-.10156.01562v-.11719l.01562-.13281-.0586-.08985-.07421.04297-.14844.14844-.0586.08985-.07421.07421-.04688.10547-.04296.10156-.07422.07422-.0586.08985-.07422.07422-.05859.08593-.07422.07422-.08984.0625-.07422.07031-.07422.07422-.10156.01563-.13281.01562-.10547-.04296v-.1211l.14843-.14844.04297-.10156.0586-.08984.04687-.10156.04297-.10547.0586-.08985.03124-.11719.04297-.10156.03125-.1211.02735-.11718.04687-.10547.04297-.10156.04297-.10547.07422-.07031.08984-.0625.08985-.0586.10156-.04296h.29687l.26563-.03125.10547-.04297-.07422-.07422-.11719-.03125-.10547-.04297-.08984-.0586-.10156-.04687-.08985-.0586-.10156-.04296-.10547-.04297-.08984-.0625-.08594-.0586-.10547-.04296-.10156-.04297-.1211-.03125-.11718-.03125-.10157-.04297L297.5 410.25l-.10156-.04297-.08985-.0586-.04296-.10546-.01563-.13281.10156-.04297.13281-.01563.13672.01563.13282-.01563.10156-.04297.0586-.08984.01562-.10547-.08985-.0586-.07421-.07421-.10157-.04297-.08984-.0586-.14844-.14843-.04297-.10547-.01562-.13281v-.29297l-.0586-.08985-.08984-.05859-.07422-.07422-.04297-.10547-.03125-.11718-.0586-.08985-.07421-.07422-.11719-.02734-.07422-.07422-.08984-.0586-.08984-.0625-.08594-.05859-.07422-.07421-.0586-.08594-.04687-.10547-.08594-.0586-.14843-.14843-.19532-.0586-.1328.01563-.10157.04297-.07422.07422-.04688.10156-.04296.10547-.0586.08984-.0586.08594-.29687.29687-.08984.0586h-.08594l-.0625-.08594-.04297-.10547.03125-.11719.0586-.08984.02734-.11719-.01172-.13281-.08984-.0625-.10547.04688-.11719.02734-.11719.03125-.26953.17578-.10156.04688-.11719.02734-.10546.04687-.08985.0586-.10156.04297-.0586-.08594-.04687-.10547.01563-.13281.04687-.10547.07031-.07422.07422-.07031.0586-.08985v-.14843l-.04297-.10547h-.23829l-.10156.04687-.03125.11719-.02734.11719-.03125.1211-.07422.04296-.13281.01563-.07422-.04688-.04297-.10156-.04297-.10547-.04687-.10156-.04297-.10547-.1211.03125-.10156.04297-.13281.01562-.11719.03125-.10547.04297-.08984.0586-.10156.04687-.1211.02734-.13281.01563-.10156-.04297-.0586-.08985-.04687-.10546-.04297-.10157-.04297-.10546v-.1172l.0586-.08984.08593-.05859.17969-.11719.10156-.04687.10547-.04297.10547-.0586.10156-.04296.08985-.0625.10156-.04297.10547-.0586.10156-.04687.08984-.0586.10547-.04296.10156-.04297.08985-.0625.10156-.04297.13672-.01563.11719.03125.10156.04297.1211.03125.10156.04297.10546.04688.10157.04296.10547.04297.10156.04688.10547.04297.10156.04297.10547.04687.08594.0586.10546.04296.1172.03125.10546.04297.10156.04688.08985.0586.10547.04296.10156.04297.10547.04687.11719.02735.10156.04687.1211.02735h.14843l.08594-.0586.01562-.10156.0586-.08984-.02735-.1172-.07422-.07421-.11719-.17969-.07421-.07422-.08985-.07421-.17969-.1172-.08593-.05859-.10547-.04296-.10156-.04688-.26954-.17578-.05859-.08985-.07422-.07421-.0586-.08985-.04296-.10156-.03125-.11719-.01563-.13672v-.5625l-.01171-.1328-.01563-.13282-.03125-.11719-.01562-.13281-.01172-.13281-.03125-.1211-.22266-.22265-.0586-.08594-.01562-.10547.03125-.11719.13281-.01562v-91.41406H172.9922v1.45312l-.0586.23438-.35156 1.05078-.17187.52343-.1172.34766-.17577.41016-.11719.17187-.23438.29297-.23046.0586h-.35157l-.11718.05859-.23047.40625v.29297l.11719.17578.23046.23047.1172.23437.64062.75781.29297.46485.17578.23437.23047.35156.23437.34766.64063.8164.17578.46485.17187.41016.11719.69531.17578.46875.11719 1.39844.0586.46484v.875l.11718 1.04688v4.78125l-.0586.46484-.35156 1.28125-.17578.52344-.11328.41015-.35156.9297L172.93359 336l-.23437.58203-.11719.17578-.17187.34766-.17578.40625-.35157.8164-.0586.29297-.11327.29297-.11719.28906-.0586.17579-.11718.875-.0586.40625-.05859.11718-.0586.17579-.05859.17187-.23047.52734-.11718.17188v.23437l-.11719.23438-.0586.17187-.17577.58594v.28906l-.0586.17579v.29296l-.0586.11329-.05859.52734v.17187l-.05468.23438v2.6211l-.17578.8164-.1172.17578-.17577.23438-.1172.17187-.11327.23438-.58594.93359-.23047.28906-.29297.46485-.17578.23437-.28906.35156-.35156.69922-.11328.23047-.17579.41016-.17578.23046-.40625.52735-.8164.69922-.29297.17187-.28906.23438-.17579.11719-.17578.17578-.52344.40625-.52734.17578-.17187.17578-.23438.05469-.64062.17578h-.75782m12.21094 31.02344l-1.07422.44921.35938.89454 1.25-.71485.44531-.53906-.98047-.08985"/><path fill="#d3d3d3" fill-opacity="0" fill-rule="evenodd" d="M201.50781 416.59766h-.89453l.44922.6289.98047.35938.80469-.08985.4453-.98828-.17577.08985-.71485-.35547-.89453.35547m154.6211 59.0703l-.0586-.52343v-.29297l.11328-.29297.0586-.23046.46875-.46875h.11328l.11719-.11329.11718-.05859h.17579l.23437-.0586h.34766l.23437.0586.11719.0586.23047.17187.0586.17578.11718.58203v.29297l-.11719.17578-.17187.28906-.17579.17579-.52734.52343-.23047.23438-.11719.0586h-.17578l-.11718-.0586-.40625-.29297-.17579-.11719-.11718-.0586-.0586-.11327-.05468-.1172m6.64062-10.95702l-.0586-.17188v-1.10937l.0586-.17188.17578-.0586.17188-.05858h.17578l.23437-.0586.1172.0586.05858.69921-.05859.17188-.11719.17578-.11718.0586-.23438.52343-.11328.0586h-.23438l-.05859-.1172m9.61328-14.39062l-.11719-.17578v-.69922l.29297-.875.1172-.17187.17577-.35156.11328-.23047.1172-.29297.35155-.75781.1172-.23047.17187-.23438h.17578l.11719-.0586h.64062l.11719.0586.23437.23438.17188.11328.35156.29297.11719.11718.11328.17579v.11328l.11719.05859.11718.11719v.69922l-.05859.17578v.23047l-.0586.17578-.34765 1.05078-.11719.23047-.11719.23437-.11718.0586-.23047.23437-.64063.28906h-.875l-.41015-.11718-.64063-.46485"/><path fill="none" stroke="#bebebe" stroke-linecap="round" stroke-linejoin="round" stroke-miterlimit="10" stroke-width=".5" d="M467.95703 311.69531H144.02734v168.625h323.9297v-168.625"/><g clip-path="url(#a)"><path fill="#fff" fill-opacity="0" fill-rule="evenodd" d="M144 342.73828v4.25-35.3164h.0039H144v31.0664"/></g><path fill="#50fcfc" fill-rule="evenodd" d="M144 465.41797v3.09375l.0039-.0039v-3.08594l-.0039-.00391"/><path fill="#fff" fill-opacity="0" fill-rule="evenodd" d="M144 459.91406v5.5039l.0039.00392v-5.51172l-.0039.0039"/><path fill="#50fcfc" fill-rule="evenodd" d="M144 456.0625v3.85156l.0039-.0039v-3.84375L144 456.0625"/><path fill="#fff" fill-opacity="0" fill-rule="evenodd" d="M144 347.3086v108.7539l.0039.0039V347.3047l-.0039.0039"/><path fill="#50fcfc" fill-rule="evenodd" d="M144 346.98828v.32031l.0039-.0039v-.3125l-.0039-.0039"/><g clip-path="url(#b)"><path fill="#fff" fill-opacity="0" fill-rule="evenodd" d="M144.0039 480.32813V468.5078l1.29298-1.49219-1.29297-1.59375v-5.51171l1.65625-1.77344-1.65625-2.07031V347.30469l.125-.125-.125-.1875v-35.32031h22.1875v3.17578l-1.32422 1.26171-3.11328 1.60547-3.95313 2.83204-.48437 1.09765-2.19141 3.33985-2.25 3.57421-.6914.8672-3.7461 3.14843-1.24219 1.28906 1.24219 1.1914 1.34766-1.1914 3.08984-3.70703.79297-.73047 3.64844-2.375 3.97656-2.0664.46094-.1836 4.4375-1.5625 2.66797-2.6914-1.04297-4.4375-1.625-1.26172v-3.17579h48.82422v106.4375l-.08985.08204-1.21875 4.4375-3.13281 3.875-4.4375-2.26563-4.4375-.40625-4.4375-.75-4.4414.82422-4.4375 1.71875-1.82032 1.44531-2.61719 2.6914-1.84375 1.7461-2.59375 3.52735-1.35547.91015-.54687 4.4375-2.53906 2.10938-4.4375-.09766-4.4375-.32812-3.9297 2.7539-.5078.25-2.625 4.1914-.76172 4.4375-.01563 4.4375.02735 4.4375 3.375.66017 4.4375.08593 4.4375.13281 2.875-.8789 1.5625-.3789.625.3789 3.8164 2.03515 4.4375-.01171 4.4375-.11329 4.4375-1.37109 1.10938-.53906 3.33203-.85547 4.4375.73438.61328.12109 3.82422 1.54687 4.4375 1.38672 4.4414-.69922 4.4375 1.48047 4.4375-.42969 4.4375-2.17578 4.4375.07813 4.44141 1.42969 4.4375.4375 4.4375-.50782 2.79297-2.54687 1.01953-4.4375.27734-4.4375.34766-.48047 3.64063-3.95703-3.64063-3.22266-1.78516-1.21875-.14843-4.4375 1.9336-1.82031 4.4375 1.23438 4.4414.0039 3.69531-3.85547-1.41406-4.4375-2.28125-1.39062-1.60938 1.39062-2.83203.71875-4.4375.7461-.67969-1.46485.6797-3.24219 1.43358-1.1953-1.43359-1.1797-3.42187-3.26171L246.08203 422l-1.95312.6289-2.48438.14454-4.4375-.14063-.28516-.0039-4.15625-.29297-4.4375-.89844-4.4375-2.84375-4.4375.17188-4.09375-.57422-.34375-.08204v-106.4375h62.13672v110.30079l-2.57421.65625 2.57421 1.05859.72657-1.0586-.72657-.65624V311.67187h4.4375v115.48829l-4.4375.10937-4.4414 1.08985-4.4375.89843-3.01563 2.25 3.01563 1.95703 1.16015 2.48047 2.04688 4.4375 1.23047 4.3711.03515.0664 1.8086 4.4414-1.84375.63673-2.96875 3.80078-1.46875 3.3125-4.4375-.625-2.26172 1.75 2.26172 1.42969 4.4375-.72266 4.4375 1.4961 4.4414-1.07423 3.6836-1.1289.7539-.34766 3.4297-4.08984 1.0078-2.15625 1.59766-2.28125-1.59766-3.67578-1.58593 3.67578-2.85157 1.58984-2.7578-1.58984 2.28905-4.4414.46875-.06641 4.4375-1.01172.55079-3.35938 3.88671-1.27734 2.88672-3.16016-2.88672-3.98047-.8828-.45703-3.5547-2.46875-4.4375-1.8789V311.67187h22.19141v144.92188l-4.4375.91016-1.07813.6328 1.07813 1.08204 4.4375.77734 3.0664-1.85937-3.0664-1.54297V311.67187h26.6289v141.81641l-.32421.21094.32422.25781.23437-.25781-.23437-.21094v-141.8164h44.3828v134.8828l-3.9375 2.70704 3.9375 1.69531 2.41017 2.74219 2.03125 2.17969 3.42187-2.1797-3.42188-2.23046-2.55078-2.20703-1.89062-2.70703V311.67188h13.3164v143.99218l-2.0703 2.47266-2.21094 4.4375 2.6953 4.4414 1.58594 1.85938 1.91016-1.85938 1.48828-4.4414-1.10937-4.4375-2.28906-2.47266V311.67187h79.88671v168.65625h-67.80468l-3.20704-2.5703-3.41796 2.5703H144.0039"/></g><path fill="#50fcfc" fill-rule="evenodd" d="M145.29688 467.01563l-1.29297 1.49218v-3.08594l1.29297 1.59375m.36328-8.8789l-1.65625 1.77344v-3.84375l1.65625 2.0703M144.1289 347.1797l-.125.125v-.3125l.125.1875m4.30859-12.125l-1.24219-1.1914 1.24219-1.28907 3.7461-3.14844.6914-.86719 2.25-3.57421 2.1914-3.33985.48438-1.09765 3.95313-2.83204v2.57422l-.36328.25781.36328.39454 3.54687-.39454-3.54687-.2578v-2.57423l3.11328-1.60546 1.32422-1.26172 1.625 1.26171 1.04297 4.4375-2.66797 2.69141-4.4375 1.5625-.46094.1836-3.97656 2.0664-3.64844 2.375-.79297.73047-3.08984 3.70703-1.34766 1.1914m9.9414 127.51954l-.02734-4.4375.01563-4.4375.76172-4.4375 2.625-4.1914.5078-.25 3.9297-2.75391 4.4375.32812 4.4375.09766 2.53906-2.10938.54687-4.4375 1.35547-.91015 2.59375-3.52735 1.84375-1.7461 2.61719-2.6914 1.82031-1.44531 4.4375-1.71875 4.4414-.82422 4.4375.75 4.4375.40625 4.4375 2.26563 3.13282-3.875 1.21875-4.4375.08984-.08204v5.98438l-3.78906 2.97656 3.36328 4.4375.42578.36328 4.4375.35547.83985-.71875-.83984-2.55469-1.22657-1.8828-3.21094-2.97657v-5.98438l.34375.08204 4.09375.57421 4.4375-.17187v3.1875l-2.23437.84766.19922 4.4414 1.39844 4.4375-3.80078 3.25-4.4375-.58203-3.08594-2.66797-1.35547-1.59765-3.76953-2.83985-.66797-.39453-4.4375.3125-.38281.08203-4.0547 1.64844-1.59765-1.64844-2.84375-1.02344-1.82422 1.02344 1.82422 3.11328 1.375 1.32422-1.375 4.10156-.29687.33594-3.7539 4.4375-.38673.08203-4.24219 4.35547-.1953.40625-4.4375-.15234-4.44141 2.47656-2.4375 1.71094-2 3.57422-4.4375-.78906-4.4375-.44922L161 453.69922l.7539 2.71484 4.4375-1.4961 4.4375-.71874 4.4375.16406 4.44141.24219 2.15235-.90625 2.28515-.28125 4.4375-3.99219 4.4375.6289 3.30078 3.64454 1.14063 2.4414 1.28516 1.9961 3.15234.94531 4.4375 1.13281 4.4375.11329 4.4414-1.22657 4.4375.94531 4.4375.27735 4.4375-1.55469 2.8125-.63281 1.625-.71094.58985.71094 3.85156 3.0664 4.4375 1.01563 2.60547-4.08203.4414-4.4375 1.15626-4.4375-4.20313-2.10156-3.86719-2.33985.80078-4.4375 3.06641-1.77344 4.4375.21875 2.9961-2.8828-1.76563-4.4375 1.32813-4.4375-2.5586-2.53907-4.4375-.39453-4.4375-.26953-4.4414.07812-4.4375.3125-3.29297-1.6289-1.14453-.84766v-3.1875l4.4375 2.84375 4.4375.89844 4.15625.29297.28515.0039 4.4375.14063 2.48438-.14453L246.08203 422l1.01563.6289 3.42187 3.26173 1.4336 1.17968-1.4336 1.19531-.67969 3.2422.6797 1.46484 4.4375-.7461 2.83202-.71875 1.60938-1.39062v2.65234l-4.4414 1.5664-2.78517 1.60938 2.78516 1.66797 4.4414.91406 2.47266-2.58203-2.47265-3.17578v-2.65234l2.28125 1.39062 1.41406 4.4375-3.69531 3.85547-4.4414-.0039-4.4375-1.23438-1.9336 1.82031.14844 4.4375 1.78515 1.21875 3.64063 3.22266-3.64063 3.95703-.34766.48047-.27734 4.4375-1.01953 4.4375-2.79297 2.54687-4.4375.50782-4.4375-.4375-4.4414-1.4297-4.4375-.07812-4.4375 2.17579-4.4375.42968-4.4375-1.48047-4.44141.69922-4.4375-1.38672-3.82422-1.54687-.61328-.1211-4.4375-.73437-3.33203.85547-1.10938.53906-4.4375 1.3711-4.4375.11328-4.4375.01171-3.8164-2.03515-.625-.3789-1.5625.3789-2.875.8789-4.4375-.1328-4.4375-.08594-3.375-.66016"/><path fill="#00e8fc" fill-rule="evenodd" d="M161.7539 456.41406L161 453.69922l.7539-2.10156 4.4375.44921 4.4375.78907 2-3.57422 2.4375-1.71094 4.44141-2.47656 4.4375.15234.19531-.40625 4.2422-4.35547.38671-.08203 3.7539-4.4375.29688-.33594 1.375-4.10156-1.375-1.32422-1.82422-3.11328 1.82422-1.02344 2.84375 1.02344 1.59766 1.64844 4.05469-1.64844.3828-.08203 4.4375-.3125v8.60547l-.66405.66406-3.77344 2.21485-4.4375 1.8125-.46875.41015-3.97266 2.73438-4.4375-.96875-2.60156 2.67187-1.83594 3.78906-4.4375-2.75-3.80078 3.40235 3.80078 3.65234 4.4375-2.98047.72266-.67187 3.71484-1.70703 4.4375-1.6211 4.4414-.58203 4.4375 2.17578 4.4375-.73437 4.4375-.36719 4.44142-.49219 4.4375.81641 1.88671-1.92969-1.88672-4.3711-.65234-.0664-3.78516-.1289-4.4414-2.3086-3.55078-2-.88672-.66406v-8.60547l.66797.39453 3.76953 2.83985 1.35547 1.59765 3.08594 2.66797 4.4375.58203 3.80078-3.25-1.39844-4.4375-.19922-4.4414 2.23438-.84766 1.14453.84766 3.29297 1.6289v7.3711l-4.4375 2.11718-1.37891 2.19922 1.3789 1.3789 4.30079 3.0586.13672.07422 4.4375 1.4375 3.0625-1.51172-2.47266-4.4375-.58984-.73437-4.4375-3.58203v-7.3711l4.4375-.3125 4.4414-.07812v2.05469l-4.4414.30468-2.8711.84375 2.8711 1.63672 4.4414.04688 2.10547 2.7539 2.33203 2.71875 2.60938-2.71875-.30078-4.4375-2.3086-.65625-4.4375-.49219v-2.05468l4.4375.26953 4.4375.39453 2.5586 2.53906-1.32813 4.4375 1.76563 4.4375-2.9961 2.88281-4.4375-.21875-3.0664 1.77344-.80079 4.4375 3.8672 2.33985 4.20312 2.10156-1.15625 4.4375-.44141 4.4375-2.60547 4.08203-4.4375-1.01563-3.85156-3.0664-.58984-.71094-1.625.71094-2.8125.63281-4.4375 1.55469-4.4375-.27735-4.4375-.9453-4.44141 1.22656-4.4375-.11329-4.4375-1.1328-3.15234-.94532-1.28516-1.9961-1.14063-2.4414-3.30078-3.64453-4.4375-.6289-4.4375 3.99218-2.28515.28125-2.15235.90625-4.4414-.24219-4.4375-.16406-4.4375.71875-4.4375 1.4961m0-135.47266l-.36328-.39454.36328-.2578 3.54687.2578-3.54687.39454"/><path fill="#00d4fc" fill-rule="evenodd" d="M179.50781 452.91406l-3.80078-3.65234 3.80078-3.40235v.78907l-2.91797 2.61328 2.91797 2.80469 3.5664-2.8047-3.5664-2.61327v-.78906l4.4375 2.75 1.83594-3.78907 2.60156-2.67187v1.6836l-.96484.98827.96484 1.01172 2.05078-1.01172-2.05078-.98828v-1.6836l4.4375.96876 3.97266-2.73438.46875-.41015 4.4375-1.8125 3.77344-2.21485.66406-.66406.88672.66406 3.55078 2 4.4414 2.3086 3.78516.1289.65234.0664 1.88672 4.3711-1.88672 1.92969-4.4375-.8164-4.4414.49218-4.4375.36719-4.4375.73437-4.4375-2.17578-4.4414.58203-4.4375 1.6211-3.71485 1.70703-.72266.67187-4.4375 2.98047"/><path fill="#00c4fc" fill-rule="evenodd" d="M179.50781 452.0664l-2.91797-2.80468 2.91797-2.61328v.78906l-2.03906 1.82422 2.03906 1.95703 2.48828-1.95703-2.48828-1.82422v-.78906l3.5664 2.61328-3.5664 2.80469"/><path fill="#00b8fc" fill-rule="evenodd" d="M179.50781 451.21875l-2.03906-1.95703 2.03906-1.82422v.78906l-1.15625 1.03516 1.15625 1.10937 1.41406-1.10937-1.41406-1.03516v-.78906l2.48828 1.82422-2.48828 1.95703"/><path fill="#00a8fc" fill-rule="evenodd" d="M179.50781 450.3711l-1.15625-1.10938 1.15625-1.03516v.78906l-.27734.2461.27734.26172.33594-.26172-.33594-.2461v-.78906l1.41406 1.03516-1.41406 1.10937"/><path fill="#009800" fill-rule="evenodd" d="M179.50781 449.52344l-.27734-.26172.27734-.2461.33594.2461-.33594.26172"/><path fill="#00c4fc" fill-rule="evenodd" d="M188.38281 445.83203l-.96484-1.01172.96484-.98828 2.05078.98828-2.05078 1.01172"/><path fill="#fff" fill-opacity="0" fill-rule="evenodd" d="M215.01563 424.09375l-3.78907 2.97656 3.36328 4.4375.42578.36328 4.4375.35547.83985-.71875-.83984-2.55469-1.22657-1.8828-3.21094-2.97657"/><path fill="#50fcfc" fill-rule="evenodd" d="M223.89063 433.7461l-1.37891 2.19921 1.3789 1.3789 4.30079 3.0586.13672.07422 4.4375 1.4375 3.0625-1.51172-2.47266-4.4375-.58984-.73437-4.4375-3.58203-4.4375 2.11718"/><path fill="#00d4fc" fill-rule="evenodd" d="M232.76563 428.70703l-2.8711-1.63672 2.8711-.84375 4.4414-.30469 4.4375.4922v5.02343l-.02734.07031.02734.03125.02734-.03125-.02734-.07031v-5.02344l2.3086.65625.30078 4.4375-2.60938 2.71875-2.33203-2.71875-2.10547-2.7539-4.4414-.04688"/><path fill="#00c4fc" fill-rule="evenodd" d="M241.64453 431.53906l-.02734-.03125.02734-.07031.02734.07031-.02734.03125"/><path fill="#00e8fc" fill-rule="evenodd" d="M254.95703 437.61328l-2.78516-1.66797 2.78516-1.60937 4.4414-1.5664v2.61327l-1.26562.5625 1.26563.45703.4375-.45703-.4375-.5625v-2.61328l2.47265 3.17578-2.47265 2.58203-4.4414-.91406"/><path fill="#00d4fc" fill-rule="evenodd" d="M259.39844 436.40234l-1.26563-.45703 1.26563-.5625.4375.5625-.4375.45703"/><path fill="#50fcfc" fill-rule="evenodd" d="M263.83594 459.5664l-2.26172-1.42968 2.26172-1.75 4.4375.625 1.46875-3.3125 2.96875-3.80078 1.84375-.63672-1.8086-4.4414-.03515-.06641-1.23047-4.3711-2.04688-4.4375-1.16015-2.48047-3.01563-1.95703 3.01563-2.25 4.4375-.89844 4.4414-1.08984 4.4375-.10937v1.03515l-4.4375.5-4.0078 2.8125-.4336 1.5586-.92188 2.8789.92188 1.35547L274 440.38281l3.15234 3.27735 4.4375-1.39844 1.98829-1.8789 2.44921-.51954 4.4375-3.32812.53907-.58985-.53907-.7461-4.4375-3.43358-.52734-.25782-3.91016-3.3125v-1.03515l4.4375 1.8789 3.5547 2.46875.8828.45703 2.88672 3.98047-2.88672 3.16016-3.88671 1.27734-.55079 3.35938-4.4375 1.01172-.46875.0664-2.28906 4.4414 2.75781 1.58985 2.85157-1.58984 1.58593-3.67578 1.59766 3.67578-1.59766 2.28125-1.0078 2.15625-3.4297 4.08984-.7539.34766-3.6836 1.1289-4.4414 1.07422-4.4375-1.49609-4.4375.72266"/><path fill="#00e8fc" fill-rule="evenodd" d="M272.71094 437.30078l-.92188-1.35547.92188-2.8789.4336-1.5586 4.0078-2.8125 4.4375-.5v1.72656l-4.4375 1.15235-.61718.4336.61718 1.30859.72266 3.1289-.72266 2.59375-.74609 1.84375.7461.77344 1.60156-.77344 2.83593-.8789 4.4375-.57813 3.4922-2.98047-3.4922-3.17969-2.5664-1.2578-1.8711-1.58594v-1.72657l3.91016 3.3125.52734.25781 4.4375 3.4336.53907.7461-.53907.58984-4.4375 3.32812-2.44921.51953-1.98829 1.8789-4.4375 1.39845L274 440.3828l-1.28906-3.08203"/><path fill="#50fcfc" fill-rule="evenodd" d="M277.15234 423.6875l-2.57421-1.0586 2.57421-.65624.72657.65625-.72657 1.05859"/><path fill="#00d4fc" fill-rule="evenodd" d="M277.15234 441.15625l-.74609-.77344.7461-1.84375.72265-2.59375-.72266-3.1289-.61718-1.3086.61718-.4336 4.4375-1.15233v1.86718l-2.04296 4.15625 2.04296 1.95703 4.4375.08594 2.39454-2.04297-2.39454-2.17969-4.4375-1.97656v-1.86719l1.8711 1.58594 2.5664 1.25781 3.4922 3.1797-3.4922 2.98046-4.4375.57813-2.83593.8789-1.60157.77344"/><path fill="#00c4fc" fill-rule="evenodd" d="M281.58984 437.90234l-2.04296-1.95703 2.04296-4.15625 4.4375 1.97656v1l-4.4375.42188-.375.75781.375.35547 4.4375.75 1.29688-1.10547-1.29688-1.17969v-1l2.39454 2.1797-2.39454 2.04296-4.4375-.08594"/><path fill="#00b8fc" fill-rule="evenodd" d="M281.58984 436.30078l-.375-.35547.375-.75781 4.4375-.42188v1l-.83593.1797.83593.16796.19922-.16797-.19922-.17969v-1l1.29688 1.1797-1.29688 1.10546-4.4375-.75"/><path fill="#00a8fc" fill-rule="evenodd" d="M286.02734 436.11328l-.83593-.16797.83593-.17969.19922.1797-.19922.16796"/><path fill="#50fcfc" fill-rule="evenodd" d="M299.34375 459.21875l-1.07813-1.08203 1.07813-.63281 4.4375-.91016 3.0664 1.54297-3.0664 1.85937-4.4375-.77734m31.0664-5.26172l-.32421-.25781.32422-.21094.23437.21094-.23437.25781m44.3828-3l-3.9375-1.69531 3.9375-2.70703 1.89063 2.70703 2.55079 2.20703 3.42187 2.23047-3.42188 2.17969-2.03125-2.1797-2.41015-2.74218m11.73047 16.0586l-2.69531-4.44141 2.21093-4.4375 2.07031-2.47266v4.69531l-1.4453 2.21485 1.4453 1.72265 1.14844-1.72265-1.14844-2.21485v-4.6953l2.28907 2.47265 1.10937 4.4375-1.48828 4.4414-1.91015 1.85938-1.58594-1.85938"/><path fill="#00e8fc" fill-rule="evenodd" d="M388.10938 464.29688l-1.44532-1.72266 1.44531-2.21485 1.14844 2.21485-1.14844 1.72265"/><g clip-path="url(#c)"><path fill="#50fcfc" fill-rule="evenodd" d="M393.5664 480.32813h6.625l-3.20702-2.57032-3.41797 2.57031"/></g><g clip-path="url(#d)"><path fill="#fff" fill-opacity="0" fill-rule="evenodd" d="M467.9961 480.32813H468V311.67188h-.0039H468v168.65625h-.0039"/></g><path fill="#fff" fill-opacity="0" fill-rule="evenodd" d="M267.25781 440.4336l1.32031-5.69141-9.70312-2.25-1.32031 5.6914 9.70312 2.25"/><path fill-rule="evenodd" d="M260.13281 435.1875l.11328-.4961 6.13282 1.42188-.17579.76563-4.375-1.01172-.3125 1.35156-.54296-.125.0625-.5625.0039-.25781-.03515-.24219-.08985-.23047-.16406-.21484-.25781-.20703-.35938-.19141"/><path fill="#fff" fill-opacity="0" fill-rule="evenodd" d="M167.90625 468.9375l5.78906-.77734-1.32422-9.8711-5.78906.77735 1.32422 9.87109"/><path fill-rule="evenodd" d="M170.29297 460.41797l.5039-.0664.83594 6.23827-.77734.10157-.59766-4.44922-1.375.1875-.07422-.55078.54688-.14063.24219-.08594.21484-.12109.1836-.16797.14452-.23047.10157-.3086.05078-.40624"/><path fill="#fff" fill-opacity="0" fill-rule="evenodd" d="M275.1836 465.0664l5.6328-1.54296-2.6328-9.60938-5.63282 1.54688 2.63281 9.60547"/><path fill-rule="evenodd" d="M276.41016 456.30078l.49218-.13281 1.66407 6.07031-.76172.20703-1.1836-4.32812-1.33984.36719-.14844-.53516.52344-.21094.23047-.1211.19531-.14452.16016-.19141.11328-.25.0586-.32031-.00391-.41016"/><g clip-path="url(#e)"><path fill="none" stroke="#000" stroke-linecap="round" stroke-linejoin="round" stroke-miterlimit="10" stroke-width=".5" d="M147.46484 480.91406l-6.92968-1.17187"/></g><g clip-path="url(#f)"><path fill="none" stroke="#000" stroke-linecap="round" stroke-linejoin="round" stroke-miterlimit="10" stroke-width=".5" d="M147.46484 480.91406l.77344 2.33203"/></g><g clip-path="url(#g)"><path fill="none" stroke="#000" stroke-linecap="round" stroke-linejoin="round" stroke-miterlimit="10" stroke-width=".5" d="M160.79688 480.8086l-6.96094-.96094"/></g><g clip-path="url(#h)"><path fill="none" stroke="#000" stroke-linecap="round" stroke-linejoin="round" stroke-miterlimit="10" stroke-width=".5" d="M160.79688 480.8086l.84375 2.30468"/></g><g clip-path="url(#i)"><path fill="none" stroke="#000" stroke-linecap="round" stroke-linejoin="round" stroke-miterlimit="10" stroke-width=".5" d="M174.10938 480.8164l-6.95704-.97656"/></g><g clip-path="url(#j)"><path fill="none" stroke="#000" stroke-linecap="round" stroke-linejoin="round" stroke-miterlimit="10" stroke-width=".5" d="M174.10938 480.8164l.83984 2.3086"/></g><g clip-path="url(#k)"><path fill="none" stroke="#000" stroke-linecap="round" stroke-linejoin="round" stroke-miterlimit="10" stroke-width=".5" d="M187.34375 481.21875l-6.79688-1.78125"/></g><g clip-path="url(#l)"><path fill="none" stroke="#000" stroke-linecap="round" stroke-linejoin="round" stroke-miterlimit="10" stroke-width=".5" d="M187.34375 481.21875l.5664 2.38672"/></g><g clip-path="url(#m)"><path fill="none" stroke="#000" stroke-linecap="round" stroke-linejoin="round" stroke-miterlimit="10" stroke-width=".5" d="M200.64453 481.27344l-6.76953-1.89063"/></g><g clip-path="url(#n)"><path fill="none" stroke="#000" stroke-linecap="round" stroke-linejoin="round" stroke-miterlimit="10" stroke-width=".5" d="M213.95313 481.30078l-6.75391-1.94531"/></g><g clip-path="url(#o)"><path fill="none" stroke="#000" stroke-linecap="round" stroke-linejoin="round" stroke-miterlimit="10" stroke-width=".5" d="M212.96875 481.01953l.2539 1.19922"/></g><g clip-path="url(#p)"><path fill="none" stroke="#000" stroke-linecap="round" stroke-linejoin="round" stroke-miterlimit="10" stroke-width=".5" d="M226.95703 482.04297l-6.13281-3.42969"/></g><g clip-path="url(#q)"><path fill="none" stroke="#000" stroke-linecap="round" stroke-linejoin="round" stroke-miterlimit="10" stroke-width=".5" d="M240.4414 481.69531l-6.47265-2.73047"/></g><g clip-path="url(#r)"><path fill="none" stroke="#000" stroke-linecap="round" stroke-linejoin="round" stroke-miterlimit="10" stroke-width=".5" d="M253.375 482.375l-5.71094-4.09375"/></g><g clip-path="url(#s)"><path fill="none" stroke="#000" stroke-linecap="round" stroke-linejoin="round" stroke-miterlimit="10" stroke-width=".5" d="M264.84766 483.69531l-2.02344-6.73047"/></g><g clip-path="url(#t)"><path fill="none" stroke="#000" stroke-linecap="round" stroke-linejoin="round" stroke-miterlimit="10" stroke-width=".5" d="M276.04297 476.9961l2.21484 6.66796"/></g><g clip-path="url(#u)"><path fill="none" stroke="#000" stroke-linecap="round" stroke-linejoin="round" stroke-miterlimit="10" stroke-width=".5" d="M292.73438 477.64453l-4.53907 5.36719"/></g><path fill="none" stroke="#000" stroke-linecap="round" stroke-linejoin="round" stroke-miterlimit="10" stroke-width=".5" d="M292.07422 478.42578l1.19922.26172"/><g clip-path="url(#v)"><path fill="none" stroke="#000" stroke-linecap="round" stroke-linejoin="round" stroke-miterlimit="10" stroke-width=".5" d="M306.73828 478.42969l-5.91406 3.79687"/></g><path fill="none" stroke="#000" stroke-linecap="round" stroke-linejoin="round" stroke-miterlimit="10" stroke-width=".5" d="M305.8789 478.98438l1.06641.59765"/><g clip-path="url(#w)"><path fill="none" stroke="#000" stroke-linecap="round" stroke-linejoin="round" stroke-miterlimit="10" stroke-width=".5" d="M318.66406 477.1836l-3.13672 6.28906"/></g><path fill="none" stroke="#000" stroke-linecap="round" stroke-linejoin="round" stroke-miterlimit="10" stroke-width=".5" d="M318.20703 478.09766l1.22656-.03125"/><g clip-path="url(#x)"><path fill="none" stroke="#000" stroke-linecap="round" stroke-linejoin="round" stroke-miterlimit="10" stroke-width=".5" d="M329.29688 476.9961l2.23046 6.66406"/></g><path fill="none" stroke="#000" stroke-linecap="round" stroke-linejoin="round" stroke-miterlimit="10" stroke-width=".5" d="M329.6211 477.96484l.84374-.88672"/><g clip-path="url(#y)"><path fill="none" stroke="#000" stroke-linecap="round" stroke-linejoin="round" stroke-miterlimit="10" stroke-width=".5" d="M341.4336 477.66797l4.58593 5.32031"/></g><path fill="none" stroke="#000" stroke-linecap="round" stroke-linejoin="round" stroke-miterlimit="10" stroke-width=".5" d="M342.09766 478.4414l.4453-1.14452"/><g clip-path="url(#z)"><path fill="none" stroke="#000" stroke-linecap="round" stroke-linejoin="round" stroke-miterlimit="10" stroke-width=".5" d="M354.23438 478.21484l5.61328 4.22657"/></g><path fill="none" stroke="#000" stroke-linecap="round" stroke-linejoin="round" stroke-miterlimit="10" stroke-width=".5" d="M355.05078 478.82813l.1914-1.21094"/><g clip-path="url(#A)"><path fill="none" stroke="#000" stroke-linecap="round" stroke-linejoin="round" stroke-miterlimit="10" stroke-width=".5" d="M366.91016 479.64063l6.89062 1.375"/></g><g clip-path="url(#B)"><path fill="none" stroke="#000" stroke-linecap="round" stroke-linejoin="round" stroke-miterlimit="10" stroke-width=".5" d="M367.91406 479.83984l-.35547-1.17187"/></g><g clip-path="url(#C)"><path fill="none" stroke="#000" stroke-linecap="round" stroke-linejoin="round" stroke-miterlimit="10" stroke-width=".5" d="M380.17578 479.98047l6.99219.69531"/></g><g clip-path="url(#D)"><path fill="none" stroke="#000" stroke-linecap="round" stroke-linejoin="round" stroke-miterlimit="10" stroke-width=".5" d="M380.17578 479.98047l-.9336-2.26953"/></g><g clip-path="url(#E)"><path fill="none" stroke="#000" stroke-linecap="round" stroke-linejoin="round" stroke-miterlimit="10" stroke-width=".5" d="M393.47266 480.3711l7.02734-.08594"/></g><g clip-path="url(#F)"><path fill="none" stroke="#000" stroke-linecap="round" stroke-linejoin="round" stroke-miterlimit="10" stroke-width=".5" d="M393.47266 480.3711l-1.1797-2.15235"/></g><g clip-path="url(#G)"><path fill="none" stroke="#000" stroke-linecap="round" stroke-linejoin="round" stroke-miterlimit="10" stroke-width=".5" d="M394.4961 480.35938l-.58985-1.07422"/></g><g clip-path="url(#H)"><path fill="none" stroke="#000" stroke-linecap="round" stroke-linejoin="round" stroke-miterlimit="10" stroke-width=".5" d="M406.78906 480.41797l7.02344-.17969"/></g><g clip-path="url(#I)"><path fill="none" stroke="#000" stroke-linecap="round" stroke-linejoin="round" stroke-miterlimit="10" stroke-width=".5" d="M406.78906 480.41797l-1.20703-2.13672"/></g><g clip-path="url(#J)"><path fill="none" stroke="#000" stroke-linecap="round" stroke-linejoin="round" stroke-miterlimit="10" stroke-width=".5" d="M407.8125 480.39063l-.60547-1.06641"/></g><g clip-path="url(#K)"><path fill="none" stroke="#000" stroke-linecap="round" stroke-linejoin="round" stroke-miterlimit="10" stroke-width=".5" d="M420.15625 480.9375l6.92188-1.21875"/></g><g clip-path="url(#L)"><path fill="none" stroke="#000" stroke-linecap="round" stroke-linejoin="round" stroke-miterlimit="10" stroke-width=".5" d="M420.15625 480.9375l-1.51172-1.92969"/></g><g clip-path="url(#M)"><path fill="none" stroke="#000" stroke-linecap="round" stroke-linejoin="round" stroke-miterlimit="10" stroke-width=".5" d="M433.61328 479.16797l6.63672 2.32031"/></g><path fill="none" stroke="#000" stroke-linecap="round" stroke-linejoin="round" stroke-miterlimit="10" stroke-width=".5" d="M434.57813 479.50781l-.1836-1.21484"/><g clip-path="url(#N)"><path fill="none" stroke="#000" stroke-linecap="round" stroke-linejoin="round" stroke-miterlimit="10" stroke-width=".5" d="M453.52734 479.0664l-6.55859 2.52344"/></g><g clip-path="url(#O)"><path fill="none" stroke="#000" stroke-linecap="round" stroke-linejoin="round" stroke-miterlimit="10" stroke-width=".5" d="M466.8164 481.64844l-6.51171-2.64063"/></g><g clip-path="url(#P)"><path fill="none" stroke="#000" stroke-linecap="round" stroke-linejoin="round" stroke-miterlimit="10" stroke-width=".5" d="M147.49219 467.39844l-6.98438-.76953"/></g><path fill="none" stroke="#000" stroke-linecap="round" stroke-linejoin="round" stroke-miterlimit="10" stroke-width=".5" d="M147.49219 467.39844l.91015 2.27734m12.41407-2.35156l-7-.6211m7 .6211l.95703 2.25781m12.34375-2.14062l-6.97266-.85547m6.97266.85547l.8789 2.28906m12.41016-2.10156l-6.92188-1.23047m6.92188 1.23047l.7539 2.33203m12.50391-2.07032l-6.80469-1.7539m6.8047 1.7539l.57421 2.38672m12.5586-1.85547l-6.44141-2.8164m6.4414 2.8164l.1875 2.44532m12.50782-1.49219l-5.20313-4.72266m5.20313 4.72266l-.60156 2.3789m13.90625-2.37109l-5.1836-4.73828m5.1836 4.73828l-.60938 2.3789m14.48438-3.1914l-6.30079-3.11328m5.38282 2.66016l.03515 1.22656m14.48828-1.6289l-6.8828-1.40235m5.8828 1.19922l.34766 1.17578m13.03516-4.13281l-5.01953 4.91797m4.28906-4.20313l1.16797.3711m11.65234-1.89844l-2.5664 6.54297m2.1914-5.58985l1.21875-.14062m12.14844-.92188l-1.92188 6.76172m1.64453-5.77734l1.19922-.25781m12.09766-.79688l-1.33203 6.90234m1.13672-5.89843l1.17578-.35938m11.82422-.70312l-.3086 7.01953m.26172-6l1.10938-.52735M344 463.51172l-.55078 7.0039m.47265-5.98437l1.125-.48828m11.59766-.51953l.79297 6.98047m-.67578-5.96485l1.01172-.69531m10.89062.08984l3.38281 6.16016m-2.89062-5.26562l.67578-1.02344m11.0586 1.0586l5.55859 4.30077m-4.75-3.67578l.20703-1.20703m11.8711 1.30078l6.41796 2.86328m-6.41797-2.86328l-.16796-2.44922m13.58203 2.24219l6.21875 3.27734m-6.21875-3.27734l-.00782-2.45312m15.28516.77343l2.29688 6.63672m-2.29688-6.63672l1.66797-1.80078m13.13281 1.6211l-.67578 6.99609m.67578-6.9961l2.26953-.9375m10.74219.92188l-.07031 7.02734m.0586-6.0039l1.08983-.5664m9.32813 5.07812l5.75-4.04297m-4.91406 3.45312l-1.09375-.55468"/><g clip-path="url(#Q)"><path fill="none" stroke="#000" stroke-linecap="round" stroke-linejoin="round" stroke-miterlimit="10" stroke-width=".5" d="M147.5 454.01563l-7-.63282"/></g><path fill="none" stroke="#000" stroke-linecap="round" stroke-linejoin="round" stroke-miterlimit="10" stroke-width=".5" d="M147.5 454.01563l.94922 2.26171m12.10937-1.23047l-6.48828-2.6953m5.54688 2.30077l.11719 1.22266m14.03906-.60547l-6.28516-3.14453m5.3711 2.6875l.02734 1.22656m14.57031-2.26562l-7.02344-.14844m6.00391.125l.55078 1.09766M199.91406 456l-5.3086-4.60156m4.53517 3.9336l-.27344 1.1953m14.54297-.7539l-5.67188-4.14844m4.84766 3.54297l-.17578 1.21484m14.0078-.2461l-5.05468-4.8789m4.32031 4.17188l-.33593 1.17969m13.8828-.03907l-4.05077-5.74218m3.46094 4.90625l-.55079 1.09375m15.60547-1.625l-6.34765-3.01172m5.42187 2.57422l.0586 1.22656m14.11718-3.92969l-6.21875 3.27344m5.3125-2.79688l1.01563.6914m11.91015-2.54296l-3.6289 6.01953m16.8164-6.08984l-3.375 6.16406m3.375-6.16406l2.45313.03125m9.92187-.38281l-1.49218 6.86718m1.49218-6.86718l2.36328-.66407m11.76563.94922l-3.1211 6.29688m2.66797-5.37891l1.22657-.03516m13.30468-.37109l-4.64453 5.27344m4.64453-5.27344l2.38672.5664m10.12891-1.09374l-3.05078 6.32812m3.05078-6.32812l2.45312-.09766m-2.89453 1.01563l1.22657-.04688m12.0078-1.07422l-2.0039 6.73438m2.0039-6.73438l2.40626-.48828m10.4414.38281l-1.0664 6.94531m1.0664-6.9453l2.3125-.8125m11.28125.86718l-1.625 6.83594m1.38672-5.84375l1.1875-.3086m9.85157-.33984l3.40234 6.14844m-3.40234-6.14844l1.33984-2.0586m10.73047 3.21485l5.89062 3.83203m-5.03125-3.27344l.10547-1.22265m13.9375-.66016l2.71875 6.48047m-2.32422-5.53516l.77735-.94922m12.6875-.17187l1.6289 6.83594m-1.39453-5.83985l.92188-.8125m12.33203-.21875l1.28125 6.90625m-1.28125-6.90625l1.91797-1.53125m-1.73047 2.53516l.95703-.76563m11 .20313l3.6211 6.02344m-3.09376-5.14844l.63282-1.05078"/><g clip-path="url(#R)"><path fill="none" stroke="#000" stroke-linecap="round" stroke-linejoin="round" stroke-miterlimit="10" stroke-width=".5" d="M147.40625 441.24219l-6.8125-1.71875"/></g><path fill="none" stroke="#000" stroke-linecap="round" stroke-linejoin="round" stroke-miterlimit="10" stroke-width=".5" d="M147.40625 441.24219l.58984 2.38281m12.64063-2.08984l-6.64063-2.30078m6.64063 2.30078l.3789 2.42187m12.71875-1.92578l-6.20703-3.29688m5.30078 2.82032v1.22656m13.95313-.32422l-5.67188-4.14844m4.84766 3.54688l-.17578 1.21484m14.92969-2.01562l-6.89844-1.34375m19.17188 3.23047l-4.81641-5.1172m19.07812 3.59767l-6.71093-2.07422m5.73437 1.76953l.23047 1.20703m14.02734-.79297l-6.64062-2.29687m19.82422-.32422l-6.3789 2.94922m5.44921-2.51954l.97656.73829m11.48828-2.91016l-2.82422 6.4336m2.82422-6.4336l2.44922-.1836m9.02344-.08593l.86328 6.97265m-.73828-5.96093l1.00781-.70313m14.19531.03906l-3.16015 6.27735m2.69922-5.36328l1.22656-.03125m13.4961-.1836l-5.0586 4.8789m5.0586-4.8789l2.33593.75782m-3.07031-.05079l1.16797.38282m13.41797-.3711l-6.12891 3.4414m6.1289-3.4414l2.06641 1.32422m-2.95703-.82422l1.03125.66407m13-1.44532l-5.77734 4m5.77734-4l2.17969 1.125m-3.02344-.54297l1.09375.5625m12.77734-1.5039l-5.20312 4.71875m5.20312-4.71875l2.3086.83203m-3.0664-.14453l1.15624.41406m12.08594-1.77734l-3.54297 6.0703m3.54297-6.0703l2.45312.10156m-2.96875.78125l1.22657.05078m11.4961-1.34766l-1.32423 6.90235m1.32422-6.90235l2.34375-.72265m-2.53906 1.72656l1.17187-.36328m9.3086.21094l4.73437 5.1953m-4.73437-5.1953l.82422-2.3086m-.13672 3.0664l.41406-1.15624m11.1875 3.91015l6.78516-1.82421m-6.78516 1.82422L391.91797 439.5m18.73828-2.61328l-.71094 6.99219m.71094-6.9922l2.27344-.92577m12.15234 1.23047l-2.9336 6.3828m2.9336-6.3828l2.45313-.14063m-2.87891 1.07031l2.44922-.14453m-2.875 1.07422l1.22265-.07422m13.00391-1.75781l-3.05078 6.32812m3.05078-6.32812l2.45313-.09766m-2.89844 1.01953l2.45312-.09765m9.15235-1.11719l1.25781 6.91406m-1.25781-6.91406l1.92578-1.51953m10.64844 1.74219l2.74218 6.46875m-2.74218-6.46875l1.54296-1.90625"/><g clip-path="url(#S)"><path fill="none" stroke="#000" stroke-linecap="round" stroke-linejoin="round" stroke-miterlimit="10" stroke-width=".5" d="M147.48438 427.53125l-6.96875-.92188"/></g><path fill="none" stroke="#000" stroke-linecap="round" stroke-linejoin="round" stroke-miterlimit="10" stroke-width=".5" d="M147.48438 427.53125l.85546 2.29688m12.44922-2.22657l-6.94531-1.0625m5.9336.90625l.40624 1.15625m13.95313-1.72656l-7.01563.38672m5.9961-.33203l.63672 1.05078m13.39062.54297l-6.39844-2.91016m5.46875 2.48438l.07422 1.22656m14.45703-1.8086l-6.96875-.89453m6.96875.89453l.86328 2.29688m11.90235-4.67188l-5.875 3.85547m5.01953-3.29297l1.07813.58985m9.76171-2.71485l.78907 6.98047m16.16015-2.1289l-6.48047-2.72266m5.53907 2.32813l.10937 1.21875m13.61719-4.41797l-5.42188 4.46484m5.42188-4.46484l2.26953.9375m10.26563-1.64063l-3.85938 5.8711m3.85938-5.8711l2.4414.22656m10.54297-.41796l-3.19922 6.2539m3.19922-6.2539l2.45313-.03907m10.69921-.03906l-2.875 6.41016m2.45703-5.47657l1.22657-.08203m14.17578.71485l-6.21485 3.28125m6.21485-3.28125l2.03125 1.375m9.61719-2.9414l-2.87891 6.41015m2.8789-6.41016l2.44923-.16406m12.32421 1.38281l-5.79296 3.97656m5.79296-3.97656l2.17579 1.13281m-3.01954-.55468l1.08594.5664m12.8086-1.48437l-5.26563 4.65234m5.26563-4.65234l2.29687.86328m-3.0625-.1875l2.29688.86328m11.28125-2.0039l-4.26172 5.58202m4.26171-5.58203l2.42188.39844m10.6875-.54687l-3.85156 5.8789m3.85156-5.8789l2.44531.22265m-3.0039.63281l2.4414.22266m11.5-1.03125l-3.98437 5.78516m3.98437-5.78516l2.4375.27734m-3.01953.5625l2.4375.28125m-3.01562.5625l2.4375.27735m12.02734-1.96875l-3.96484 5.80078m3.96484-5.80078l2.4414.27344m-3.01562.5703l2.4375.27345m-3.01562.5703l2.4375.27345m12.09375-1.91797l-4.08985 5.71484m4.08985-5.71484l2.42968.32422m-3.02734.5078l2.4336.32423m-3.02735.50781l2.4336.32422m10.77343-2.5625L422.8711 430.5m1.4922-6.86328l2.36327-.66797m-2.58203 1.66406l2.36328-.66406m-2.57812 1.66406l1.17969-.33203m11.63671-1.74219l.3711 7.01953m-.3711-7.01953l2.10547-1.26172m-2.05078 2.28516l1.05078-.63281m12.125-.38281l.53906 7.0039m-.53906-7.0039l2.07422-1.31641m-1.9961 2.33594l1.03907-.66016m12.92578-.33984l-.91797 6.96484m.91797-6.96484l2.30078-.85938m-2.4336 1.8711l1.14845-.4297"/><g clip-path="url(#T)"><path fill="none" stroke="#000" stroke-linecap="round" stroke-linejoin="round" stroke-miterlimit="10" stroke-width=".5" d="M147.51172 413.90625l-7.02344-.30469"/></g><path fill="none" stroke="#000" stroke-linecap="round" stroke-linejoin="round" stroke-miterlimit="10" stroke-width=".5" d="M147.51172 413.90625l1.05469 2.21484m12.14453-3.27343l-6.79297 1.80859m5.80469-1.54297l.83593.89844m12.28125-2.99219l-4.41797 5.46485m3.77344-4.66797l1.20703.23437m11.48828-1.67969L183 417.13672m1.61328-5.78125l1.19922-.26563m14.61719 4.1797l-6.33985-3.03126m5.41797 2.58985l.05078 1.22656m14.19141-3.8086l-6.34766 3.01563m5.42188-2.57813l.98828.73438m13.36719-.90235l-6.57813 2.47657m5.6211-2.11719l.91797.8125m12.83203 2.23047l-5.53516-4.32813m5.53516 4.32813l-.42578 2.41797m-.37891-3.04688l-.21484 1.20703m14.91796-3.80078l-6.69922 2.11719m6.69922-2.11719l1.75 1.71875m11.27344-2.38672l-6.11719 3.45313m6.1172-3.45313l2.0703 1.32032m11.32813-1.16407l-6.28516 3.14063m6.28516-3.14063l2 1.42188m10.97656-1.96875l-5.60547 4.23437m5.60547-4.23437l2.22266 1.03125m11.70312.26172l-6.83203 1.64843m6.83203-1.64843l1.6289 1.83593m11.32813-2.74609l-6.11328 3.46875m6.11328-3.46875l2.07032 1.3164m10.95703-1.74218l-5.53906 4.32031m5.53906-4.32031l2.24219.9961m-3.04688-.3672l1.1211.5m12.12109-1.92968l-3.78125 5.92187m3.78125-5.92187l2.44531.19531m11.63281.46094l-5.3086 4.60547m5.3086-4.60547l2.28907.88281m11.21484-.64453l-5.6836 4.13281m5.6836-4.13281l2.20312 1.07813m-3.03125-.47657l1.10157.53906m12.51172-1.71875l-4.62891 5.28516m4.6289-5.28515l2.39063.5625m-3.0625.20703l2.39063.5625m-3.0625.20703l1.1914.28125m13.55469-1.74219l-4.80078 5.13281m4.80078-5.13281l2.36719.63672m-3.06641.10937l2.3711.63672m-3.07032.10938l1.1875.32031m12.96485-2.24219l-3.6797 5.98828m3.6797-5.98828l2.44921.15235m-2.98437.71875l2.44922.15234m10.1875-1.48438l-1.25 6.91407m1.25-6.91406l2.33594-.75m-2.51954 1.7539l2.33985-.7461m10.60547-.3125l-.14844 7.02345m.14844-7.02344l2.1914-1.10547m-2.21093 2.125l2.1914-1.10547m-2.21484 2.1289l1.09765-.55468m13.13672-1.35938l-1.89843 6.76563m1.89843-6.76563l2.39844-.52343m-2.67187 1.5078l1.1953-.26171m12.41407-.71875l-1.9375 6.7539m1.9375-6.7539l2.39844-.50781m-2.67969 1.49219l2.39844-.50782"/><g clip-path="url(#U)"><path fill="none" stroke="#000" stroke-linecap="round" stroke-linejoin="round" stroke-miterlimit="10" stroke-width=".5" d="M147.44922 399.76563l-6.89844 1.34765"/></g><path fill="none" stroke="#000" stroke-linecap="round" stroke-linejoin="round" stroke-miterlimit="10" stroke-width=".5" d="M147.44922 399.76563l1.54687 1.90625m-2.55078-1.71094l.77344.95312m13.3086-1.89844l-6.42579 2.84375m6.42578-2.84375l1.9297 1.51563m-2.86329-1.10156l.96484.75781m12.41016-2.3711l-4.67578 5.2461m4.67578-5.2461l2.38281.57813m11.2539-.25l-5.3203 4.58594m4.54687-3.91797l1.14453.44531m13.75781 1.70313l-6.94921-1.04688m5.9375.89453l.41015 1.15625m9.42969 1.83594l2.02734-6.72656m-1.73437 5.75l-1.20313.23828m18.53516-3.83203l-6.59766 2.41797m6.59766-2.41797l1.82813 1.63672m11.60937-1.23047l-6.83984 1.60547m6.83984-1.60547l1.61719 1.84765m-2.60938-1.61328l.80469.92188m13.32813-1.69922l-6.4922 2.6875m6.4922-2.6875l1.89453 1.5625m-2.83985-1.17188l1.89453 1.5625m12.3047-2.09375l-6.3672 2.97266m6.3672-2.97265l1.96093 1.47265m-2.88672-1.04297l.98047.73828m13.40625-.79687l-6.66016 2.23047m6.66016-2.23047l1.78125 1.6875m-2.75-1.36328l.89062.84375m12.44922-2.63672l-4.76953 5.16406m4.76953-5.16406l2.3711.625m-3.06641.1289l1.1875.3125m13.3789-.40234l-5.8828 3.83985m5.8828-3.83985l2.14844 1.1836m-3.0039-.625l2.14843 1.18359m12.08985-1.63281l-6.01953 3.62109m6.01953-3.6211l2.10547 1.26173m-2.98047-.73438l2.10547 1.26172m11.5-2.51953l-4.85157 5.08203m4.85157-5.08203l2.36328.66015m-3.07031.07813l1.18359.33203m12.91406-.9961l-5.0039 4.9336m5.0039-4.9336l2.34375.73438M345.5 398.6875l2.33984.73438m10.83594-2.09375l-3.26953 6.22265m3.26953-6.22265l2.45313-.01172m11.67578.60156l-4.89844 5.03906m4.89844-5.03906l2.35937.6875m-3.07031.04687l2.35547.6836m11.19531-1.80469l-3.94922 5.8125m3.94922-5.8125l2.4414.26563m-3.01562.58203l2.4414.26562m-3.01562.57813l1.21875.1328m13.26172-1.8125l-3.98047 5.78907m3.98047-5.78906l2.4414.28125m-3.01952.5625l2.4375.27734m-3.01563.5625l1.21875.14063m13.58203-1.5664l-4.64062 5.27733m4.64062-5.27734l2.38672.5625m-3.0625.20313l1.19531.28125m12.79297-1.05079l-4.63672 5.28125m4.63672-5.28125l2.38672.5625m-3.0625.20704l1.19531.28125m11.46485-1.78125l-1.97266 6.74609m1.97266-6.7461l2.40234-.5m-2.6914 1.48048l2.40234-.4961m-2.6875 1.47656l1.19922-.24609m13.67578-1.25l-3.9414 5.8164m3.9414-5.8164l2.4375.25781m-3.01172.58594l1.21875.13281m12.39453-1.14453l-3.39453 6.15235m3.39453-6.15235l2.45313.03516m-2.94532.85937l2.45313.03516"/><g clip-path="url(#V)"><path fill="none" stroke="#000" stroke-linecap="round" stroke-linejoin="round" stroke-miterlimit="10" stroke-width=".5" d="M147.09375 385.45703l-6.1875 3.33203"/></g><path fill="none" stroke="#000" stroke-linecap="round" stroke-linejoin="round" stroke-miterlimit="10" stroke-width=".5" d="M147.09375 385.45703l2.04297 1.35938m-2.94531-.875l1.02343.67968m13.23438-1.08203l-6.26953 3.16797m6.26953-3.16797l2.00781 1.41406M159.53906 386l1.0039.70703m12.23048-2.36719l-4.28906 5.56641m4.28906-5.5664l2.41797.41015m-3.04297.39844l1.21094.20703m10.46875-1.74219l.23437 7.02344m-.23438-7.02344l2.12891-1.22265m9.33984 7.64843l3.92579-5.83203m-3.35157 4.98438l-1.22265-.12891m18.61328.32422l-5.3711-4.52735m5.3711 4.52735l-.51563 2.39844m-.26562-3.0547l-.25781 1.19923m15.15234-2.34766l-6.96875-.91797m6.96875.91797l.85938 2.30078m-1.875-2.4336l.42968 1.14845m13.91797-1.1875l-7.0039-.57422m7.0039.57422l.97266 2.2539m-1.99219-2.33594l.97266 2.25m13.37109-2.28906l-7.01953-.33203m7.01953.33203l1.04688 2.21875m-2.07032-2.26562l.52735 1.10937m13.8125-1.21484l-7.02735-.02735m7.02735.02735l1.14453 2.17187m-2.16406-2.17578l.5703 1.08594m13.72657-1.6289l-6.94531 1.0664m6.94531-1.0664l1.46484 1.96874m-2.47656-1.8125l.73438.98438m13.48828-1.60547l-6.73828 1.9961m6.73828-1.9961l1.71875 1.75m-2.69922-1.46094l1.71875 1.75m12.39062-2.52734l-6.36718 2.97265m6.36718-2.97265l1.96094 1.47656m-2.88672-1.04297l.98047.73828m13.33985-.98437l-6.52735 2.59765m6.52735-2.59765l1.87109 1.58984m-2.82031-1.21094l1.87109 1.58594m12.30469-2.17187l-6.35156 3.01172m6.35156-3.01172l1.96875 1.46484m-2.89453-1.02734l1.97265 1.46484m12.07813-2.2539l-5.96875 3.71484m5.96875-3.71485l2.1211 1.23047m-2.9922-.6875l2.125 1.23047m11.9336-1.96094l-5.71485 4.08985m5.71485-4.08985l2.19922 1.09375m-3.03125-.5l2.19922 1.09375m11.8164-1.85937l-5.45312 4.4336m5.45312-4.4336l2.26172.95313m-3.05469-.3086l2.26172.95313m-3.05469-.3086l1.12891.47656m13.41406-2.14453l-4.73437 5.19141m4.73437-5.1914l2.375.60546m-3.0664.14844l2.3789.60938m11.96485-1.01172l-5.41016 4.48828m5.41016-4.48828l2.26953.93359m-3.0586-.28125l2.26954.9336m11.34765-2.06641l-4.4375 5.44922m4.4375-5.44922l2.41016.47656m-3.05469.3164l2.40625.47657m-3.05078.3164l1.20312.23829m13.21875-1.96094l-4.07421 5.72265m4.07421-5.72265l2.4336.3164m-3.02344.51563l1.21484.16016m12.35938-1.20313l-3.41016 6.14453m3.41016-6.14453l2.45312.04297m-2.94921.85156l2.45312.04297m10.92969-1.13672l-2.55469 6.54688m2.55469-6.54688l2.4375-.28906m10.85937.28125l-2.51562 6.5586m2.51562-6.5586l2.4336-.30078m-2.80078 1.2539l1.21875-.14843"/><g clip-path="url(#W)"><path fill="none" stroke="#000" stroke-linecap="round" stroke-linejoin="round" stroke-miterlimit="10" stroke-width=".5" d="M146.83984 371.74219l-5.67968 4.13281"/></g><path fill="none" stroke="#000" stroke-linecap="round" stroke-linejoin="round" stroke-miterlimit="10" stroke-width=".5" d="M146.83984 371.74219l2.20703 1.07422m-3.03125-.47266l1.10157.53516m13.16015-.95704l-5.92578 3.77344m5.92578-3.77344l2.13672 1.20704m11.11719-1.30079l-5.80469 3.96094m5.80469-3.96094l2.17578 1.14063m-3.01953-.5625l1.08594.5664m12.80469-1.48827l-5.26954 4.64843m5.26953-4.64844l2.30079.86329m11.14453-.71094l-5.52735 4.34375m5.52735-4.34375l2.24219.99219m11.51171 2.6289l-6.40234-2.89844m6.40234 2.89844l.15235 2.44922m-1.08594-2.8711l.07813 1.22657m13.80468-.17969l-5.67187-4.15234m5.67187 4.15234l-.35156 2.42969m-.47656-3.03125l-.17578 1.21484m14.70703-1.28906l-6.44531-2.79687m6.4453 2.79687l.19141 2.44531m-1.1289-2.85156l.09375 1.22266m14.34375-1.35938l-6.8164-1.71094m6.8164 1.71094l.58984 2.3789m-1.58203-2.6289l.58984 2.38281m13.77344-2.41015l-6.92969-1.15625m6.9297 1.15625l.78124 2.32422m-1.78906-2.49219l.78125 2.32422m13.58984-2.67578l-7.02734-.11719m7.02734.11719l1.11328 2.1875m-2.13671-2.20313l1.11718 2.1836m13.16016-2.88282l-6.90234 1.3125m6.90234-1.3125l1.53516 1.91016m-2.53907-1.71875l1.53516 1.91016m12.69531-2.46094l-6.72656 2.03125m6.72656-2.03125l1.73047 1.73828m-2.71094-1.44531l1.73047 1.74219m12.45313-2.34766l-6.50391 2.65625m6.5039-2.65625l1.88673 1.57031m-2.83204-1.1836l1.88672 1.57032m12.11328-2.47266l-5.98046 3.6875m5.98046-3.6875l2.1172 1.23829m-2.98829-.70313l2.11719 1.24219m12.22265-1.4961l-6.29296 3.125m6.29296-3.125l1.9961 1.42579m-2.91016-.97266l1.9961 1.42969m12.3789-1.54688l-6.58203 2.45313m6.58203-2.45313l1.83594 1.6289m-2.79297-1.27343l1.83594 1.6289m12.23047-2.4375l-6.17188 3.35938m6.17188-3.35937l2.04687 1.35156m-2.94531-.86328l2.04687 1.35156m-2.9453-.86328l1.02734.67578m13.61328-2.32031l-5.22657 4.69531m5.22657-4.69531l2.30468.84375m-3.0664-.16016l2.30469.83985m11.45703-1.83204l-4.59766 5.3125m4.59766-5.3125l2.39453.54688m-3.0625.22656l2.39062.54688m11.65235-1.26954l-4.71875 5.21094m4.71875-5.21094l2.3789.60157m-3.0664.15625l1.1914.30078m12.5664-1.25781l-4.22655 5.60937m4.22656-5.60937l2.42187.3828m-3.03515.4336l1.21094.1914m13.0039-.76952l-4.80078 5.1289m4.80078-5.1289l2.3711.64062m10.62109-.91015l-4.15234 5.67187m4.15234-5.67187l2.42578.35156m9.98828-.82422l-2.35547 6.61719m2.35547-6.61719l2.42969-.35938m-2.76953 1.32032l1.21094-.17969"/><g clip-path="url(#X)"><path fill="none" stroke="#000" stroke-linecap="round" stroke-linejoin="round" stroke-miterlimit="10" stroke-width=".5" d="M146.46484 357.98828l-4.92968 5.00781"/></g><path fill="none" stroke="#000" stroke-linecap="round" stroke-linejoin="round" stroke-miterlimit="10" stroke-width=".5" d="M146.46484 357.98828l2.35157.69922m-3.07032.03125l2.35157.69531m11.91015-1.17969L154.6211 362.75m5.38672-4.51563l2.27344.92188m-3.0586-.26563l1.13673.46094m13.34765-.55078l-6.15625 3.38672m6.15625-3.38672l2.05469 1.34375m-2.94922-.85156l1.02734.67187m13.48438-.4375l-6.75781 1.9297m6.7578-1.9297l1.70313 1.76563m11.70703-1.32031l-6.94921 1.04296m6.94922-1.04296l1.46093 1.97265m11.6289-.11328l-6.49608-2.67969m5.55078 2.28907l.11718 1.22265m13.6211.04297l-5.45313-4.42969m5.45313 4.4297l-.47266 2.41015m-.32031-3.05469l-.23828 1.20703m14.83594-1.35937l-6.4336-2.83204m6.4336 2.83204l.17968 2.4453m-1.11719-2.85937l.08985 1.22657m14.19922-.89844l-6.5039-2.66406m6.5039 2.66406l.24219 2.4414m-1.19141-2.82812l.2461 2.4414m14.20702-2.6875l-6.88672-1.39452m6.88672 1.39453l.69922 2.35156m-1.69922-2.55469l.69922 2.35156m13.67969-2.61328l-7.01172-.46875m7.01172.46875l1.0039 2.23828m-2.02343-2.30468l1.0039 2.23828m13.33594-2.53516l-7.02344.25781m7.02344-.2578l1.23047 2.125m-2.25-2.08595l1.23047 2.1211m12.91797-3.16406l-6.64844 2.26953m6.64844-2.26954l1.78906 1.6797m-2.75781-1.35157l1.79297 1.67969m12.57812-1.71485l-6.82422 1.6797m6.82422-1.6797l1.63672 1.82813m-2.6289-1.58203l1.63671 1.82812m12.48047-2.63281l-6.44531 2.79688m6.44531-2.79688l1.92188 1.53125m-2.85938-1.1211l1.91797 1.52735m12.16797-2.27344l-6.10938 3.46875m6.10938-3.46875l2.07031 1.3164m-2.96094-.8125l1.03907.66017m13.23828-1.03516l-6.2539 3.21094m6.2539-3.21094l2.01172 1.40234m-2.92188-.9336l2.01563 1.39845m12.1836-1.91407l-6.19923 3.3086m6.19922-3.3086l2.03516 1.3672m-2.9375-.88673l2.03515 1.36719m11.96875-2.19531l-5.77734 4m5.77734-4l2.1836 1.125m-3.02344-.54297l2.17969 1.125m-3.01953-.54297l1.08984.5625m13.67187-2.03125l-5.30859 4.60938m5.3086-4.60938l2.28906.88281m-3.0625-.21094l2.28906.88282m-3.0625-.21094l1.14844.4375m13.27734-2.20313l-4.4336 5.45313m4.4336-5.45313l2.40625.47657m-3.05078.32031l2.40625.47266m11.41797-1.375l-4.16406 5.66406m4.16406-5.66406l2.42578.35546m-3.03125.46875l1.21094.1797M439 357.65233l-4.13672 5.6797M439 357.65233l2.42969.34375m11.38672.10157l-5.14063 4.79296m5.14063-4.79296l2.3203.79687m10.8711-.92578l-4.89062 5.04688"/><g clip-path="url(#Y)"><path fill="none" stroke="#000" stroke-linecap="round" stroke-linejoin="round" stroke-miterlimit="10" stroke-width=".5" d="M466.00781 357.96875l2.35547.6836"/></g><path fill="none" stroke="#000" stroke-linecap="round" stroke-linejoin="round" stroke-miterlimit="10" stroke-width=".5" d="M465.29688 358.70313l1.17578.33984"/><g clip-path="url(#Z)"><path fill="none" stroke="#000" stroke-linecap="round" stroke-linejoin="round" stroke-miterlimit="10" stroke-width=".5" d="M146.17969 344.42188l-4.35938 5.51171"/></g><path fill="none" stroke="#000" stroke-linecap="round" stroke-linejoin="round" stroke-miterlimit="10" stroke-width=".5" d="M146.17969 344.42188l2.41406.4375m11.64844.37109l-5.85156 3.89453m5.85156-3.89453l2.15625 1.16797m-3.00781-.60156l1.07812.58593m13.20703-.96094l-6.08984 3.51172m6.08984-3.51171l2.07813 1.30468m-2.96485-.79297l2.07813 1.30079m12.16015-1.7461l-6.16406 3.3789m6.16406-3.3789l2.05078 1.34375m11.51172 1.46875l-6.66015-2.2461m6.66015 2.2461l.39844 2.42188m12.66406-5.23829l-6.15625 3.38672m6.15625-3.38671l2.0547 1.34375m11.6953.49218l-7.02343-.28515m7.02343.28515l1.0625 2.21485m-2.08593-2.25391l.53125 1.10547m13.54687.125l-6.5039-2.66797m6.5039 2.66797l.24219 2.4414m-1.1875-2.83203l.1211 1.22266m14.13671-.83203l-6.5-2.66797m6.5 2.66797l.2461 2.4414m-1.19141-2.82812l.24219 2.4414m14.17968-2.54687l-6.8203-1.6836m6.8203 1.6836l.60157 2.3789m-1.59375-2.625l.60156 2.37891m-1.59375-2.62109l.30078 1.1875m15.09375-1.29297l-7.01172-.49219m7.01172.4922l.9961 2.23827m-2.01563-2.3125l.9961 2.24219m13.34765-2.34766l-7.02735-.13671m7.02735.13671l1.10937 2.1875m-2.1328-2.20703l1.10937 2.1875m13.15625-2.9414l-6.88282 1.41015m6.88282-1.41015l1.5625 1.89062m-2.5625-1.6836l.78125.94532m13.44921-1.48047l-6.71484 2.0664m6.71484-2.0664l1.73829 1.73438m-2.71485-1.4336l1.73828 1.73438m12.52344-2.13281l-6.65234 2.26171m6.65234-2.26171l1.78906 1.67968m-2.7578-1.35156l1.78905 1.67969m12.37891-2.29688l-6.42578 2.84375m6.42578-2.84375l1.92969 1.51172m-2.86328-1.09765l1.92968 1.51171m12.3672-1.8164l-6.51954 2.6211m6.51953-2.6211l1.8789 1.58203m-2.82812-1.19922l.9375.78906m13.2539-1.34375l-6.37109 2.96485m6.3711-2.96485l1.95703 1.48047m-2.88672-1.04687l1.96094 1.47656m11.83203-2.63281l-5.46875 4.41015m5.46875-4.41015l2.25781.96093m-3.05469-.3203l2.25782.96093m-3.05469-.32031l1.1289.48437m13.85157-1.67578l-5.61328 4.23047m5.61328-4.23047l2.22265 1.03906m-3.03906-.42187l2.22266 1.03515m12.13281-1.3164l-6.0586 3.5586m6.0586-3.5586l2.08984 1.28515m-2.97265-.76562l2.08984 1.28125m10.7539-3.10938l-3.35546 6.17579m3.35547-6.17579l2.45312.02344m-2.9414.875l1.22656.01172m13.07422-.58203l-4.34766 5.51953m4.34766-5.51953l2.41406.4336m-3.04687.36718l2.41406.4375m11.96875-.82813l-5.21875 4.70313m5.21875-4.70313l2.3086.83594m-3.06641-.15234l1.15234.41797m13.41406-.39844l-6.20703 3.29297"/><g clip-path="url(#aa)"><path fill="none" stroke="#000" stroke-linecap="round" stroke-linejoin="round" stroke-miterlimit="10" stroke-width=".5" d="M466.66406 345.53125l2.03516 1.375"/></g><g clip-path="url(#ab)"><path fill="none" stroke="#000" stroke-linecap="round" stroke-linejoin="round" stroke-miterlimit="10" stroke-width=".5" d="M465.76172 346.01172l2.03515 1.375"/></g><g clip-path="url(#ac)"><path fill="none" stroke="#000" stroke-linecap="round" stroke-linejoin="round" stroke-miterlimit="10" stroke-width=".5" d="M145.4375 330.65625l-2.875 6.41406"/></g><path fill="none" stroke="#000" stroke-linecap="round" stroke-linejoin="round" stroke-miterlimit="10" stroke-width=".5" d="M145.01953 331.58984l1.22266-.08203m10.69922-1.13672l.74609 6.98438m15.17969-6.20313l-4.47266 5.42188m4.47266-5.42188l2.40234.4922m11.05078-.3711l-4.75 5.17969m4.75-5.1797l2.375.61329m-3.0664.14062l2.375.61329m12.58984.10937l-6.66406 2.22656m6.66406-2.22656l1.77734 1.6875m11.70313-.26172l-7-.625m7 .625l.95703 2.26172m12.3711-2.72656l-7.02344.30469m7.02343-.3047l1.2422 2.11329m-2.26563-2.07031L227 334.8125m13.32813.66406l-6.2422-3.22656m6.2422 3.22656l.02734 2.45313m-.9375-2.92188l.02734 2.45313m14.4414-2.58594l-6.73046-2.02344m6.73047 2.02344l.47656 2.40625m-1.45703-2.69922l.23828 1.20313m14.17188-1.44141l-6.96094-.96094m6.96094.96094l.84375 2.30469m-1.85547-2.44531l.42187 1.15234m13.89844-.96094l-6.94922-1.0625m6.94922 1.0625l.8125 2.3125m-1.82422-2.46875l.8125 2.3164m13.55078-2.58984l-7.02343-.20312m7.02343.20312l1.08985 2.19922m-2.10938-2.23047l.54297 1.10157m13.79297-1.27735l-7.02344.21094m7.02344-.21094l1.21484 2.13281m-2.23828-2.10156l.60938 1.0664m13.67968-1.57812l-6.92578 1.17188m6.92578-1.17188l1.5 1.94532m-2.5078-1.77344l1.49609 1.94531m12.85546-1.9336l-6.98046.8047m6.98046-.8047l1.39063 2.01954m-2.40625-1.90235l1.39062 2.01954m12.94532-2.07422l-6.9922.67969m6.9922-.6797l1.35547 2.04298m-2.3711-1.94532l.67578 1.02344m13.375-2.19531l-6.4336 2.82812m6.4336-2.82812l1.92578 1.52344m11.1797-1.92579l-6.01563 3.63282m6.01562-3.63281l2.10547 1.26171m-2.98047-.73046l2.10547 1.2578m11.10938-2.83984l-4.0625 5.73438m4.0625-5.73438l2.43359.3125m-3.02344.52344l2.4336.3125m-3.02735.51953l2.4336.3125m12.15625-1.91406l-4.2461 5.60156m4.2461-5.60156l2.42187.39063m-3.03906.42578l2.42187.39062m12.44922-.13281l-6.1211 3.45312m6.1211-3.45312l2.0664 1.32422m-2.95702-.82031l1.03125.66015m13.48828-.41406l-6.75 1.95312m6.75-1.95312l1.70703 1.76172m10.8711-3.10156l-5.28126 4.6328m5.28125-4.6328l2.29688.86718m-3.0625-.19531l1.14844.4336m13.14062-.84766l-5.6914 4.11719m5.6914-4.1172l2.20313 1.07813m-3.03125-.48047l2.20312 1.07813M451.4375 333l1.10156.54297m13.73438-1.91406l-5.42578 4.46484"/><g clip-path="url(#ad)"><path fill="none" stroke="#000" stroke-linecap="round" stroke-linejoin="round" stroke-miterlimit="10" stroke-width=".5" d="M466.27344 331.6289l2.26562.94141"/></g><path fill="none" stroke="#000" stroke-linecap="round" stroke-linejoin="round" stroke-miterlimit="10" stroke-width=".5" d="M465.48438 332.28125l2.26562.9414m-3.05469-.29296l2.26563.9414"/><g clip-path="url(#ae)"><path fill="none" stroke="#000" stroke-linecap="round" stroke-linejoin="round" stroke-miterlimit="10" stroke-width=".5" d="M145.71484 317.48047l-3.42968 6.13672"/></g><path fill="none" stroke="#000" stroke-linecap="round" stroke-linejoin="round" stroke-miterlimit="10" stroke-width=".5" d="M145.71484 317.48047l2.45313.05078m-2.95313.84375l1.22657.02344m11.08593-1.35938l-.42578 7.01563m.36328-5.99219l1.1172-.51172m9.3164.78516l5.46094 4.42187m-4.66407-3.77734l.23438-1.20313m12.88281-.02343l4.26563 5.58593m-3.64454-4.77343l.51172-1.11329m15.96875-.0039l-3.3086 6.19922m3.3086-6.19922h2.45313m-2.9336.90234h1.22657m14.32812 1.35547l-6.82422 1.67969m6.82422-1.67969l1.63672 1.83203m11.77734-1.0625l-7.02343.14063m7.02343-.14063l1.19532 2.14453m-2.21485-2.125l.59766 1.07422m13.57812.01953l-6.70703-2.08593m6.70703 2.08593l.45703 2.41407m-1.42968-2.71485l.22656 1.20313m13.9336-.54688l-6.44923-2.79297m6.44922 2.79297l.19532 2.44531m-1.13672-2.85156l.09765 1.22266m14.16797-.83985l-6.46875-2.74609m6.46875 2.7461l.21485 2.4414m-1.15625-2.84375l.21484 2.44531m14.19922-2.49609l-6.78125-1.83984m6.78125 1.83984l.54297 2.39063m-1.53125-2.66016l.27343 1.19922m14.14844-1.67578l-7.01953-.35157m7.01953.35157l1.03906 2.22265m-2.0625-2.27344l.52344 1.10938m13.8164-1.3711l-7.02343.27344m7.02344-.27343l1.23437 2.12109m-2.2578-2.07813l.61718 1.0586m13.67187-1.5664l-6.92578 1.20702m6.92578-1.20703l1.50391 1.9336m-2.51172-1.75782l.7539.96485m13.52344-1.35547l-6.83593 1.63672m6.83593-1.63672l1.625 1.83984m-2.62109-1.60156l.8125.91797m13.48047-1.22266l-6.80078 1.76953m6.80078-1.76953l1.66016 1.8086m-2.64844-1.55079l.83203.90235m13.21484-1.84766l-6.28515 3.14453m6.28515-3.14453l2 1.42188m-2.91406-.96485l1 .71094m13.28125-1.0586l-6.39062 2.92188m6.39062-2.92187l1.94922 1.49219m-2.8789-1.06641l.97656.7461m12.47265-2.27735l-4.80078 5.13281m4.80078-5.13281l2.3711.64062m-3.07032.10547l2.3711.64063m-3.0664.10937l1.18358.3164m13.44532-1.88671l-4.63672 5.28125m4.63672-5.28125l2.38672.5625m-3.0625.20703l2.38671.5625m-3.0625.20703l1.19532.28125m13.61718-1.6836l-4.92578 5.01173m4.92578-5.01172l2.35157.69531m-3.07032.03516l2.35157.69531m11.19922 3.98047l-3.96094-5.80469m3.38281 4.96094l-.57031 1.08594m13.89062-6.36329l-2.8203 6.4375m16.83593-6.02734l-4.21875 5.6211m4.21875-5.6211l2.42187.3789m-3.03515.4375l2.42187.37891m11.34766-1.30859l-3.89844 5.84766"/><g clip-path="url(#af)"><path fill="none" stroke="#000" stroke-linecap="round" stroke-linejoin="round" stroke-miterlimit="10" stroke-width=".5" d="M465.51172 317.625l2.4414.24219"/></g><path fill="none" stroke="#000" stroke-linecap="round" stroke-linejoin="round" stroke-miterlimit="10" stroke-width=".5" d="M464.94531 318.47656l2.4414.24219m-3.01171.60547l2.4414.2461m-3.0078.60546l1.22265.1211"/><path fill="#00f" fill-rule="evenodd" d="M383.80078 472.08594h8.61719V461.9414h-8.61719v10.14453"/><path fill="azure" fill-rule="evenodd" d="M385.63281 463.77344h.83203v2.82422h3.28907v-2.82422h.83203v6.48047h-.83203v-2.91797h-3.28907v2.91797h-.83203v-6.48047"/><path fill="#00f" fill-rule="evenodd" d="M232.89453 432.14063h8.6211v-10.14454h-8.6211v10.14454"/><path fill="azure" fill-rule="evenodd" d="M234.73047 423.82813h.83203v2.82421h3.28516v-2.82421h.83593v6.48046h-.83593v-2.91796h-3.28516v2.91796h-.83203v-6.48046"/><path fill="#00f" fill-rule="evenodd" d="M388.23828 432.14063h8.61719v-10.14454h-8.61719v10.14454"/><path fill="azure" fill-rule="evenodd" d="M390.07031 423.82813h.83594v2.82421h3.28516v-2.82421h.83203v6.48046h-.83203v-2.91796h-3.28516v2.91796h-.83594v-6.48046"/><path fill="#ff3030" fill-rule="evenodd" d="M366.74219 423.26563h7.6914v-10.14844h-7.6914v10.14844"/><path fill="azure" fill-rule="evenodd" d="M368.57422 414.95313h.83203v5.73828h3.19531v.74218h-4.02734v-6.48046"/><path fill="#ff3030" fill-rule="evenodd" d="M198.08203 374.4414h7.69531v-10.14452h-7.6953v10.14453"/><path fill="azure" fill-rule="evenodd" d="M199.91797 366.1289h.83203v5.7422h3.19531v.73827h-4.02734v-6.48046"/><path fill="#ffffe0" fill-rule="evenodd" d="M315.11328 369.75781h22.17969v-10.1914h-22.17969v10.1914"/><path fill-rule="evenodd" d="M318.61328 361.39844h.50781v6.29297h-.78515v-4.48829h-1.39063v-.55468l.5625-.0664.25-.0547.23047-.08984.20313-.14063.17578-.21093.14062-.29297.10547-.39453m4.8125 0l.23047.01953.21875.05469.20703.08984.19922.1211.1836.14843.17187.17578.30078.41797.24219.4961.17969.54687.11328.57813.03515.58984-.03515.59375-.11329.58594-.17968.55078-.24219.5039-.30078.4297-.17188.17968-.18359.15234-.19922.1211-.20703.09375-.21875.05859-.23047.01953-.22656-.01953-.21875-.0586-.21094-.09374-.19531-.1211-.1836-.15234-.17187-.17969-.30078-.42969-.2461-.5039-.17968-.55078-.10938-.58594-.03906-.59375h.83203l.03125.5625.08203.50781.125.4414.16406.375.1875.30079.21094.22265.22266.13672.22656.04688.22656-.04688.22266-.13671.21094-.22266.1914-.30078.16407-.375.125-.4414.08203-.50782.02734-.5625-.02734-.5586-.08203-.5039-.125-.4336-.16407-.36718-.1914-.28906-.21094-.21485-.22266-.13281-.22656-.04297-.22656.04297-.22266.13281-.21094.21485-.1875.28906-.16406.36719-.125.43359-.08203.5039-.03125.5586h-.83203l.03906-.58985.10938-.57812.17969-.54688.24609-.49609.30078-.41797.17188-.17578.18359-.14844.19531-.12109.21094-.08984.21875-.0547.22656-.01952m5.09375 0h.50781v6.29297h-.78515v-4.48829h-1.39063v-.55468l.5586-.0664.2539-.0547.23047-.08984.20313-.14063.17187-.21093.14453-.29297.10547-.39453m2.82031 2.17578h.78907l.01953-.3164.0586-.28516.10155-.25391.13672-.21484.1836-.17579.22265-.1289.26563-.07813.3086-.02734.23827.01953.22266.0625.20312.10156.1797.14063.14843.17187.11328.20704.07031.23437.02735.26563-.02344.26562-.0664.22656-.10938.1914-.15625.17188-.19922.16016-.2461.16797-.63671.39062-.53516.3125-.4375.31641-.34766.32422-.26171.33594-.19141.35156-.125.36719-.07031.39453-.01954.41797h4.21094v-.73829h-3.33203l.08203-.28515.11328-.23828.14844-.19922.1875-.17969.23047-.17187.28125-.17579.71484-.41796.41797-.20313.34375-.23047.28125-.2539.21875-.26563.16406-.27734.11329-.28516.0625-.28515.01953-.28125-.04297-.38282-.11719-.34765-.1914-.3086-.25-.26172-.30079-.21484-.34765-.15625-.3789-.09766-.40626-.03515-.4375.03125-.39844.10156-.35156.16406-.30469.23438-.25.30469-.1875.375-.11328.4453-.04297.51954"/><path fill="#ffffe0" fill-rule="evenodd" d="M190.83984 334.2539h22.1797v-10.1953h-22.1797v10.1953"/><path fill-rule="evenodd" d="M194.33984 325.89453h.50782v6.29297h-.78516v-4.48828h-1.39063v-.55469l.5625-.0664.25-.0547.23047-.08984.20313-.14062.17578-.21094.14063-.29297.10546-.39453m4.8125 0l.23047.01563.21875.05859.20703.08984.19532.1211.1875.14844.16797.17578.30468.41796.24219.4961.17969.54297.11328.58203.03516.58984-.03516.59375-.11328.58203-.17969.5547-.24219.5039-.30469.42578-.16796.17969-.1875.15625-.19532.12109-.20703.09375-.21875.05469-.23047.01953-.23047-.01953-.21875-.05469-.20703-.09375-.1953-.1211-.1836-.15624-.17188-.1797-.30078-.42577-.2461-.5039-.17968-.5547-.10938-.58203-.03906-.59375h.83203l.03125.5625.08203.50781.125.44141.16016.375.1914.30078.21095.22266.22265.13672.22656.04687.22657-.04687.22265-.13672.21094-.22266.1914-.30078.16016-.375.1289-.4414.08204-.50782.02734-.5625-.02734-.5625-.08203-.5-.1289-.4336-.16016-.36718-.19141-.29297-.21094-.21094-.22265-.1328-.22657-.04688-.22656.04687-.22266.13281-.21093.21094-.1914.29297-.16017.36719-.125.4336-.08203.5-.03125.5625h-.83203l.03906-.58985.10938-.58203.17969-.54297.2461-.4961.30077-.41796.17188-.17579.1836-.14843.1953-.1211.20703-.08984.21875-.0586.23047-.01562m5.09375 0h.50782v6.29297h-.78907v-4.48828h-1.38672v-.55469l.5586-.0664.2539-.0547.23047-.08984.20313-.14062.17187-.21094.14063-.29297.10937-.39453m2.82032 2.17578h.78906l.01953-.3164.0586-.28907.09765-.25.14063-.21484.18359-.17578.22266-.1289.26562-.08204.3086-.02734.23437.02344.22656.0625.20313.10156.17968.13672.14844.17578.11328.20312.07031.23828.02735.26172-.02344.26953-.0664.22657-.10938.1914-.15625.17188-.19922.16015-.2461.16797-.63671.38672-.53516.3125-.4375.32031-.34765.32422-.26563.33594-.1875.34766-.125.37109-.07031.39453-.01953.41797h4.21094v-.73828h-3.33204l.08203-.28516.11329-.23828.14843-.19922.1875-.1836.23047-.16796.28125-.17578.71485-.41797.41406-.20703.34766-.23047.28125-.25.21875-.26563.16406-.28125.10937-.28125.0664-.28515.01954-.28125-.04297-.38281-.1211-.34766-.1875-.3086-.25-.26562-.30468-.21094-.34375-.16015-.3789-.09766-.40626-.03125-.4375.03125-.39843.09766-.35547.16797-.30469.23437-.2461.30469-.1875.375-.11327.44531-.04297.51953"/><path fill="#ffffe0" fill-rule="evenodd" d="M304.78516 330.28906h22.17968v-10.1914h-22.17968v10.1914"/><path fill-rule="evenodd" d="M308.28516 321.92969h.5078v6.29687h-.78515v-4.48828h-1.39062v-.5586l.5625-.0625.25-.05468.23047-.08984.20312-.14063.17188-.21094.14453-.29296.10547-.39844m4.8125 0l.23046.01953.21875.0586.20704.08593.1953.1211.1875.15234.16798.17578.30469.41797.24218.49219.17969.54687.11328.58203.03516.58985-.03516.59375-.11328.58203-.17969.55468-.24219.50391-.30468.42578-.16797.17969-.1875.15234-.19531.125-.20704.09375-.21875.05469-.23046.01953-.23047-.01953-.21875-.05469-.20703-.09375-.19532-.125-.18359-.15234-.17188-.17969-.30078-.42578-.24609-.5039-.17969-.5547-.10937-.58202-.03906-.59375h.83203l.03125.5625.08203.5078.125.44141.16015.375.19141.30079.21094.21875.22265.13671.22657.04688.22656-.04688.22265-.13671.21094-.21875.1914-.30079.16017-.375.1289-.4414.08203-.50781.02735-.5625-.02735-.5625-.08203-.5-.1289-.4336-.16016-.36719-.1914-.29296-.21094-.21485-.22266-.1289-.22656-.04688-.22657.04688-.22265.1289-.21094.21485-.1914.29296-.16016.3672-.125.43358-.08203.5-.03125.5625h-.83204l.03907-.58984.10937-.58203.17969-.54688.2461-.49218.30077-.41797.17188-.17578.1836-.15235.1953-.12109.20704-.08594.21875-.0586.23047-.01952m5.09375 0h.5078v6.29687h-.78905v-4.48828h-1.38672v-.5586l.5586-.0625.2539-.05468.23047-.08984.20312-.14063.17188-.21094.14062-.29296.10938-.39844m6.80078 1.6211h-.78516l-.05078-.21095-.08203-.1875-.10938-.15625-.1289-.1328-.14453-.10157-.16016-.07422-.16797-.04688-.17578-.01562-.32813.04297-.28515.11719-.2461.1953-.20312.26954-.16016.33984-.11718.40235-.07032.46875-.02343.52344.1875-.19922.1875-.16016.18359-.1211.1875-.08984.1875-.0625.1914-.03515.40235-.02344.3086.03125.3203.08984.31641.15625.29297.21875.2539.28516.19923.35156.07421.19922.05079.21875.03125.23438.0039.25-.78906.04687-.02344-.25781-.07812-.2539-.125-.23438-.16016-.20704-.1914-.17968-.21875-.13672-.2422-.08985-.2539-.03125-.25781.03125-.23828.08985-.21875.13672-.19531.17969-.16016.20703-.1211.23437-.07812.2539-.02734.25782.02734.25781.07813.25.12109.23828.16015.20704.19532.17968.21875.13672.23828.08594.25781.03125.2539-.03125.2422-.08594.21875-.13672.1914-.17969.16016-.20703.125-.23828.07812-.25.02344-.25781.78906-.04688-.03125.3711-.09375.3711-.15625.35937-.22265.32812-.28907.28125-.17187.1211-.1875.10156-.20703.08203-.22266.0625-.24219.03906-.2578.01172-.28517-.01562-.2578-.04688-.23829-.07812-.21484-.10157-.19531-.1328-.17579-.15626-.15234-.17969-.13672-.20312-.11719-.22266-.09765-.24219-.14844-.53515-.08203-.59375-.02735-.64063.03907-.74218.11328-.66407.1875-.57812.11719-.2539.13671-.23048.15625-.20703.16797-.17969.1875-.15625.20313-.1289.21484-.10156.23438-.07422.2461-.04688.26171-.01562.36719.03515.33203.09766.29687.14844.25391.19922.21094.24218.16797.27344.11328.30469.0625.32031"/></g></defs><use xlink:href="#ag"/></svg>