<svg xmlns="http://www.w3.org/2000/svg" role="img" xmlns:xlink="http://www.w3.org/1999/xlink" viewBox="142.45 309.95 326.84 171.84"><defs><clipPath id="a"><path d="M144 311.67188h1v168.65625h-1zm0 0"/></clipPath><clipPath id="b"><path d="M144 311.67188h324v168.65625H144zm0 0"/></clipPath><clipPath id="c"><path d="M426 479h6v1.32813h-6zm0 0"/></clipPath><clipPath id="d"><path d="M467 311.67188h1v168.65625h-1zm0 0"/></clipPath><clipPath id="e"><path d="M144 479h4v1.32813h-4zm0 0"/></clipPath><clipPath id="f"><path d="M147 480h2v.32813h-2zm0 0"/></clipPath><clipPath id="g"><path d="M146 480h2v.32813h-2zm0 0"/></clipPath><clipPath id="h"><path d="M153 479h9v1.32813h-9zm0 0"/></clipPath><clipPath id="i"><path d="M160 480h3v.32813h-3zm0 0"/></clipPath><clipPath id="j"><path d="M166 480h9v.32813h-9zm0 0"/></clipPath><clipPath id="k"><path d="M173 480h3v.32813h-3zm0 0"/></clipPath><clipPath id="l"><path d="M180 479h8v1.32813h-8zm0 0"/></clipPath><clipPath id="m"><path d="M187 480h2v.32813h-2zm0 0"/></clipPath><clipPath id="n"><path d="M193 479h9v1.32813h-9zm0 0"/></clipPath><clipPath id="o"><path d="M200 479h3v1.32813h-3zm0 0"/></clipPath><clipPath id="p"><path d="M206 479h9v1.32813h-9zm0 0"/></clipPath><clipPath id="q"><path d="M213 479h3v1.32813h-3zm0 0"/></clipPath><clipPath id="r"><path d="M220 479h8v1.32813h-8zm0 0"/></clipPath><clipPath id="s"><path d="M227 479h3v1.32813h-3zm0 0"/></clipPath><clipPath id="t"><path d="M233 479h8v1.32813h-8zm0 0"/></clipPath><clipPath id="u"><path d="M240 479h3v1.32813h-3zm0 0"/></clipPath><clipPath id="v"><path d="M246 479h9v1.32813h-9zm0 0"/></clipPath><clipPath id="w"><path d="M253 479h3v1.32813h-3zm0 0"/></clipPath><clipPath id="x"><path d="M260 479h8v1.32813h-8zm0 0"/></clipPath><clipPath id="y"><path d="M267 479h3v1.32813h-3zm0 0"/></clipPath><clipPath id="z"><path d="M273 479h8v1.32813h-8zm0 0"/></clipPath><clipPath id="A"><path d="M280 479h3v1.32813h-3zm0 0"/></clipPath><clipPath id="B"><path d="M286 479h9v1.32813h-9zm0 0"/></clipPath><clipPath id="C"><path d="M292 480h2v.32813h-2zm0 0"/></clipPath><clipPath id="D"><path d="M300 480h8v.32813h-8zm0 0"/></clipPath><clipPath id="E"><path d="M306 480h2v.32813h-2zm0 0"/></clipPath><clipPath id="F"><path d="M313 479h8v1.32813h-8zm0 0"/></clipPath><clipPath id="G"><path d="M319 479h2v1.32813h-2zm0 0"/></clipPath><clipPath id="H"><path d="M326 479h9v1.32813h-9zm0 0"/></clipPath><clipPath id="I"><path d="M332 479h2v1.32813h-2zm0 0"/></clipPath><clipPath id="J"><path d="M340 478h8v2.32813h-8zm0 0"/></clipPath><clipPath id="K"><path d="M345 479h3v1.32813h-3zm0 0"/></clipPath><clipPath id="L"><path d="M353 478h8v2.32813h-8zm0 0"/></clipPath><clipPath id="M"><path d="M366 478h8v2.32813h-8zm0 0"/></clipPath><clipPath id="N"><path d="M372 479h2v1.32813h-2zm0 0"/></clipPath><clipPath id="O"><path d="M379 479h9v1.32813h-9zm0 0"/></clipPath><clipPath id="P"><path d="M385 479h3v1.32813h-3zm0 0"/></clipPath><clipPath id="Q"><path d="M394 477h6v3.32813h-6zm0 0"/></clipPath><clipPath id="R"><path d="M406 479h8v1.32813h-8zm0 0"/></clipPath><clipPath id="S"><path d="M412 479h2v1.32813h-2zm0 0"/></clipPath><clipPath id="T"><path d="M419 479h9v1.32813h-9zm0 0"/></clipPath><clipPath id="U"><path d="M426 479h3v1.32813h-3zm0 0"/></clipPath><clipPath id="V"><path d="M433 479h8v1.32813h-8zm0 0"/></clipPath><clipPath id="W"><path d="M439 479h2v1.32813h-2zm0 0"/></clipPath><clipPath id="X"><path d="M446 479h8v1.32813h-8zm0 0"/></clipPath><clipPath id="Y"><path d="M452 479h2v1.32813h-2zm0 0"/></clipPath><clipPath id="Z"><path d="M459 479h9v1.32813h-9zm0 0"/></clipPath><clipPath id="aa"><path d="M465 479h2v1.32813h-2zm0 0"/></clipPath><clipPath id="ab"><path d="M144 466h4v2h-4zm0 0"/></clipPath><clipPath id="ac"><path d="M144 453h4v2h-4zm0 0"/></clipPath><clipPath id="ad"><path d="M144 439h4v3h-4zm0 0"/></clipPath><clipPath id="ae"><path d="M466 440h2v3h-2zm0 0"/></clipPath><clipPath id="af"><path d="M144 426h4v3h-4zm0 0"/></clipPath><clipPath id="ag"><path d="M466 426h2v3h-2zm0 0"/></clipPath><clipPath id="ah"><path d="M144 413h4v2h-4zm0 0"/></clipPath><clipPath id="ai"><path d="M466 411h2v2h-2zm0 0"/></clipPath><clipPath id="aj"><path d="M144 399h4v3h-4zm0 0"/></clipPath><clipPath id="ak"><path d="M466 398h2v3h-2zm0 0"/></clipPath><clipPath id="al"><path d="M144 386h4v3h-4zm0 0"/></clipPath><clipPath id="am"><path d="M466 385h2v3h-2zm0 0"/></clipPath><clipPath id="an"><path d="M144 372h2v4h-2zm0 0"/></clipPath><clipPath id="ao"><path d="M465 370h3v2h-3zm0 0"/></clipPath><clipPath id="ap"><path d="M144 357h3v7h-3zm0 0"/></clipPath><clipPath id="aq"><path d="M144 346h4v2h-4zm0 0"/></clipPath><clipPath id="ar"><path d="M466 345h2v2h-2zm0 0"/></clipPath><clipPath id="as"><path d="M144 330h2v8h-2zm0 0"/></clipPath><clipPath id="at"><path d="M466 332h2v3h-2zm0 0"/></clipPath><clipPath id="au"><path d="M144 317h2v8h-2zm0 0"/></clipPath><clipPath id="av"><path d="M144 317h1v2h-1zm0 0"/></clipPath><clipPath id="aw"><path d="M466 319h2v3h-2zm0 0"/></clipPath><g id="ax" clip-path="url(#clip1)"><path fill="#fff" fill-opacity="0" fill-rule="evenodd" d="M0 0h1000v1000H0zm0 0"/><path fill="#d3d3d3" fill-opacity="0" fill-rule="evenodd" d="M162.15234 355.86719l-.23437.29297.0586.23437.11718.17188.17578.23437.29297.34766.11328.0586.11719-.17188.0586-.23438.17577-.17578.46485-.17578h.69922l.23437.29297.28906.8164.0586.17579.17578.23046.35156.23438.69922.69922.17188.17578.23437.34765.23438.41016.28906.58203.41015.46485.23047.23437.23438.17578.11719.23047.17578.29297.17187 1.16406v.23438l.0586.28906.05859.11719.11719.11719.34765.41015.11719.17188.17578.17578.17578.23437.11719.17188.17188.35156.05859.23438.23437.40625.23438-.0586-.17578.17578-.0586.92969h-.58203l-.23437-.11328-.34766.11328-.11719.11719-.05859.29297-.0586.17578-.11718.17187-.46484.29297-.0586.23438-.0586.11328v.64453l.0586.17187v.41016l.0586.0586v.40624l.05859.40625.11719.17579.05859.05859.23047.64062-.0586.29297v.69922l-.05859.58203v.23438l-.0586.23047-.05468.35156v1.92187l.05469.1172h.42578l-.36719.11718-.02344.35156.89063 1.16797 1.74219.53906 1.33984.35938v.53906l.08984.8086.53516.71484 1.51953.26953.89063-.08594.08984 1.16406.53516.1797 1.16015-.1797 2.05469-.98437 1.16016-.36328 1.8789-.17578 1.69531-.1797-.17968.71876-1.51563.08594-1.25.08984-.80469.26953-1.07421.8086.26953.71875.53515.89843-.17968.625-.26563.8086.26563 1.07812.625.89844.80468.17969 1.25-.1797-.26562.72267.09766.5039.05468.29297v.17188l.0586.29296v.40625l.17578.1172.35156.11718h.40625l.29297-.17578.11328-.11719.0586-.11719.11718-.23047.0586-.17578.35156-.46484.23047-.17578.17578-.0586.17578.0586.0586.17578.11718.98828.05469.46875.0586.17188.11718.23437.17578.0586.8164.05859h.28907l.11719.23437.05859.40625.0586.35156v1.10547l.11718.29297.11719.34766.28906.69922.17578.35156.58203.7539.35157.17579.17187.0586.46875.23437.64063.46484.34765.23438.29297.17578.29297.05468.23047.0625.8164.34766.29297.17578.11328.17188.35157.35156.11719.17578.52343.64063v.28906l.0586.35156v.34766l.05859.35156.0586.28906.11718.0586.17188.05859h.17578l.58203.23437.17578.1172.17578.28905.17578.23438.11328.23437.29297.23047.11719.11719v.41016l.0586.05468.28906.23438.23437.11719.0586.11718.11718.17188.0586.11719.23047.23437.05859.17578.23437.0586.1172.05859-.1172.11328-.05859.11719v.11719l-.11719.29296-.11719.28907v.58203l.17579.11719.11718.05859.0586.11719.11719.11719.11328.05859.17578.34765.0586.35157.05858.40625v.17578l-.05859.17578-.11719.69922v.17187l.1172.17579.29296.29296h.40625l.17578.1172.11719.17187.11719.29296v.23438h-.52735l-.23047-.23438h-.23437l-.17578.0586-.0586.69922.0586.34765.11719.17579.17578.41015.11718.23047.28907.46875.17578.05469h.52344l.23437.0586.75781.64062.0586.29296v.23438l.05859.0586.23047.34765v.35156l-.11719.17188v.29297l.29297.28906.29297.17578.17187.0586.29297.17577.29297.1172.58203.40624.28906.23438.29297.17578.21875.16015.01563.01172.23047.17579.64062.52343.17578.23438.1172.17578.17577.17578.11328.17188v.64062l.1172.17578.46874.11719.58203.11719.23438.05859.23047.11328.29297.11719.11328.0586.58593.35156.28907.17187.17578.0625.17578.05469.17578.0586.69922.35155.28906.17579.23438.05468.28906.17578.23437.1172.64063.40624.29297.11719.17187.0586.23438.05859.41015.05859.23047.0586.23438.11718.0586.17188-.41017.17578.46875.0586.0586.29296.11328.23438.17578.05468.23438.0586.17578.05859.40625.11719.64062.23437.11719.17188.0586.23437v.17578l-.0586.1172-.0586.40624.23438.23438.11719.05859.34766.11719.64062.23047.17578.11718.28906.1172.17578.17577.23438.46485.58203 1.10546.17578.17579.34766.17578.17578.11719.35156.11718 1.04688.52344.23437.0586.46485.11327.29297.0586.46484.17578.75781.58203.23438.23438.34765.46484.17578.17578.28907.23438.8164.69921.29297.17579.28906.28906.29297.17578.29297.28906.69531.64063.17578.17578.29297.23437.28907.23438.46875.28906.64062.58203.34766.23438.23437.29297.34766.34765.35156.46485.9336.99218.34765.40625.11719.17579.23437.05859.11328.11719.64454.17578.23047.11328.23437.0586.29297.17577.23047.1172.9336.69921.40624.40625.23438.17578.40625.17578.23437.11719.8164.34766.34766.23437.23438.11719.29297.28906.23047.11719.7578.35156.35157.17188.23047.05859.29297.11719.23437.0586.8711.17577h.8164l.46875.23047.17188.0586.875.69921.46484.1172.29297.05858.17578.0586.23047.0586.46875.05859.34766.05859.35156.0586.40625.05859h.29297l.17187.0586v.23046l.17578.17578h.29297l.34766.0586.35156.05859.69922.11719h.64063l.46484-.23438.29297-.17578.17187-.11719.41016-.17187.28906-.17578.9336-.46485.46875-.29297.52343-.29296.46485-.17188.46484-.17578 1.05078-.46485.28906-.11718.41016-.11719.28906-.11719.52735-.17578 1.51562-.69922.58203-.34765.28907-.0586.29297-.0586.34765-.11718.875-.23047.35156-.11719h.11329l.23437-.05859.875-.23437.23438-.0586h.8125l.35156-.0586.8164-.11718.17188-.0586.35156-.05468.29297-.0586.23047-.05859.8164-.17578.17579-.0586h.34765l.23438-.05859.46484-.11718.75781-.17188.23438-.0586h.34765l.41016-.11718.28906-.0586 1.28516-.05859h.28906l.41016-.0586.23047-.05858h.17578l.875-.1172h.40625l.41015-.11718h.34766l.35156-.11328.8711-.0586h1.75l1.04687.28907.41016.11719.28906.11718.35156.11719.28907.11719 1.05078.17187.28906.0586h.29297l.29297.05859.17187.0586.41016.05859.17187.0586.1172.05858h.11718l.11719.0586.35156.0586h.11328l.41016.0664 1.92187.39453 1.92578.39453 1.51953.44922 1.69532.71875 2.14453.80469 1.60547-.71875 1.42968-.80469 1.16016-1.07813 1.25-.44921 3.03516-.71875 1.875-.35938 2.14453-1.34765 2.23437-1.25391 2.5-1.25781 1.69531-.44922 1.78516-.17969 1.16016-.26953.625.53906 1.33984-.26953.71485-.98828.98437-1.34375.44531-.17969.80469-.35937 1.875-.53907 1.78516-.44921 1.25-.26954 1.16015-.08984 1.69922-.08984 1.96094-.26954 1.25-.08984h.53906l.625-.08984h.89063l2.14453-.17969 2.41015-.17969 2.58985-.08984 1.69531.17969 1.60938.08984 1.42968.35938 1.16016.71875 1.875.98828 1.16015 1.52734.26563.71484.6289.08985.35548.89844.53515.53906.53516 1.52734 1.07422.35938h.53515l-.80469.53515.08985 1.70703.71484 2.69532.89063.80468.89453.98829.71484 1.2578 1.78516.53907 1.51953-.17969.35547 1.34375 1.60937-.80469.98047-.53906.26953.26953.31641-.21484.21875-.14453.80078.44922.44922-.35938h.35547l.53515-.26953.53907-.71875.53515-.26953.625-.98828 1.16016.44922.83984.3711 1.39454.61718 1.6953-.17969h1.60548l1.78515.08985.17969-1.70704.53516-1.34375.80468.26954.4922.84765.40233.40625-.08984.53906v.35938l.71485.44922.71093-.26953h1.42969l.35938.98828.4453 1.25781.71485 1.34375 1.25.6289 1.69531.62891.71485-.17969.17969-.53906.98046-.08984.44922.35937.08594 1.25782-.26563.6289-.53515.17969v.53906l.71484.98438.26563.53906.98437.98828.80078 1.07813-.26562.35937-.08985.89844-.625 2.33203-.35546 2.0664-.08985 1.79298-.17969.71875-.08984.53906v1.4375l-.98047 1.88281-.35937 1.70703-.53516.89844-.80469 1.16797-.26562.53906 2.05469 1.2539.08593.35938-.35546.53906-.08985-.17968v.80859l.08985 1.4375-.44532.71484-1.07422.09375-.26562.71485.53515.89844.8047.71875 1.16015.80859 1.33984.26953.44531.35938-.35546.44921-1.78907-.08984-1.25-.44922-.71484-.71875-.625-.08984-.17578 3.58984-.1875 1.3086h89.35937V311.70313h-55.26953v49.08203l.76172.125 3.28906.54296 2.02344 2.83594v2.7539l2.35156.33204 2.34766.33203h4.05078l-1.3789 4.16016-2.02344.70703-2.02344.70312-.54297.34375-2.59375 1.6172-.1875.11718-2.02344-2.07813-.73046-2.74218-2.67188-2.07813-1.375-3.5-.0664-.08203-1.95704-2.67188 2.75-1.41796v-49.08204H294.42187v91.41407l.1172.03125.1328.01172.07422.07421.10547.04688.08985.0586.08593.05859.08985.0586.29687.29687.0586.08984.03125.11719.02734.11719.01563.13671-.03125.1172-.0586.08983-.0586.08594-.04296.10547-.04688.10156-.02734.1211v.14453l.17578.26953.14844.14844.07422.08594.07422.07421.04296.10547.0625.08985.0586.08593.04297.10547.0586.08985.04687.10156.04296.10547.0586.08594.11719.17968.07421.07422.0625.08594.0586.08984.04297.10547.0586.08985.05858.08593.0625.08985.0586.08984.04297.10156.11719.17969.07421.07422.0586.08594.07422.07421.08984.0586.10547.04687h.14844l.1328-.01562.13282.01562.10156-.04687.07422-.07422.04688-.10156-.01563-.13281v-.14844l-.04687-.10547-.02735-.11719-.04687-.10156-.02735-.1211-.04296-.10156-.0625-.08984-.04297-.10156-.04297-.10547-.03125-.11719-.01563-.13281-.01171-.13672.08593-.0586.0586-.08593.12109-.03125.04297.10547.01562.1328v.1172l.0586.10156.0586.08984.08983.0586.14844.14843.0586.08985.04296.10547-.01171.10156.08593.0586.10547.04687.08594.0586.08984.05858.07422.07422-.11719.02735-.10546.04687-.08594.0586-.07422.07421-.0586.08985-.0625.08594-.02734.12109-.04687.10156-.04297.10547-.03125.11719-.01172.13281-.01563.13281v.14844l.02735.11719.04687.10547.04297.10156.0586.08984.07421.07422.08985.0586.07422.07421.08984.0586.0586.08984.04296.10547.04688.10156.11719.03125.1328.01563h.14845l.11718-.03125.10547.04297.04297.10547.04688.10156.02734.1211L299.5 410l.02734.11719.03125.1211.02735.11718.10547.04297.10156.04687.13281-.01562.14844.14844.0625.08593.07422.07422.07031.07422.08984.0625.10547.04297.10156.04297.1172.03125.13671.01562.11719-.03125.07422-.07422.02734-.11718-.01172-.13282-.03125-.12109-.02734-.11719.04297-.10547h.11719l.08984.0625.11719.02735h.14843l.13282.01562h.14843l.13282.01563.1328-.01563h.14845l.1328-.01562.13282-.01172.13672.01172.11719-.02735.13281-.01562.1914-.0586-.05859.17579-.01562.1328-.02735.1211-.01562.13281-.0586.08594-.1328.01563-.10548.04687-.10546.04297-.1172.03125-.11718.02735-.26563.03125h-.14843l-.13281.01562-.07422.07422.05859.08594.14844.14843.11719.1797.07421.0703.08985.0625.08984.0586.08594.0586.08984.05858.10156.04297.10547.0625.10547.04297.08594.0586.10547.04687.10156.04297.17969.11719.0586.08984-.04298.10156-.04687.10547.01562.13281.22266.22266.0586.08985.04296.10156.03125.1211.04297.10155.01563.13282.03125.11718.01171.13672.03125.11719.14844.14844.10156.04297.10547.04296.1172.03125.1328.01563.13672.01563h.11719l.11719-.03125.08984-.0586.04297-.10547.04688-.10156.04296-.10547.03125-.11719.01172-.1328v-.14845l-.01172-.1328-.01562-.13282-.03125-.11719-.04297-.10547-.04688-.10547-.04296-.10156-.04297-.10547-.01563-.13281.01563-.13281.02734-.11719.03125-.11719.02735-.1211.04687-.10155.08984-.0586.08594-.0625.07422-.07422.08984-.05859.22266-.22266.0586-.08593.07421-.07422.11719-.17969.0586-.08594v-.14844l-.07423-.07421-.10156-.04688-.10547-.04297-.10156-.04297-.0586-.08984-.04687-.10547-.02734-.11719.08984-.05859.11719-.03125.10156-.04297.17969-.11719.14844-.14843.01172-.13282-.01172-.10546-.08985-.0586-.1328.01563h-.14845l-.1328.01562-.13282-.01562-.1211-.03125-.08593-.0586-.07422-.07422-.0586-.08984-.0625-.08594-.11718-.17969-.0586-.08593.03125-.1211.08594-.05859.1211-.03125.05859-.08594v-.1211l-.03125-.11718-.0586-.08984-.05859-.08594-.04687-.10547-.02735-.11719-.01562-.1328.0586-.08985.07421-.07422.08984-.0586.1172-.17968.07421-.07422.0586-.08594.14843-.14844.1211-.03125.1328-.01562.13282.01562.07422.07422.04297.10547.01562.13281-.03125.1172-.11719.03124-.1328.01172-.14844.14844-.04297.10547-.04688.10156-.02734.1211-.03125.11718v.14844l.03125.11719.04297.10546.05859.08985.07422.07031.07422.07422.11719.03125.12109.02734.11719-.02734.1328-.01563h.1172l.08984.0586.07422.07422.04687.10546.0586.08594.10156.04688.13281.01562.10547.04297.08594.0586-.01172.10546-.07422.07422-.17969.11719-.05859.08984-.08984.0586-.07032.07422-.07421.07421-.0625.08985-.02735.11719-.01562.1328.01562.13282-.01562.13281v.14844l.01562.13281.02735.1172.03125.12108.07421.07422.08985.0586.08594.0586.08984.05858.11719.03125v.08594l-.10157.04688-.08984.0586-.26563.03124-.11718.02735h-.14844l-.10547.04296-.10156.04688-.0586.08984-.0625.23438-.01171.13281-.03125.1211-.01563.1328v.29298l-.01172.1328.01172.13673.01563.1328.1328.01563.13282.01172.1211.03125.08593.0586.07422.07421.04688.10547.04296.10157.01563.1328v.44532l-.01563.13281v.44532l.03125.26562.02735.11719.01562.13281.03125.11719.08594.21094.03125.26562v.14844l-.03125.11719-.02734.11718-.03125.1211-.02735.11719-.03125.11718-.03125.1211-.01171.1328-.01563.13282.08984.0586.1172-.03125.10155.01562.04688.10547-.03125.26562v.44141l-.04297.10547-.04688.10547-.04296.10156-.04297.10547-.0586.08594-.03125.12109-.04296.11719-.03125.11719-.01563.1328.01563.13282.05859.08984.10547.04688.08594.0586.05859.08593-.01172.13672-.03125.11719-.04297.10156v.44531l-.01562.13281v.14844l-.03125.11719-.04297.10547-.02735.11719-.04687.10546-.04297.10157-.03125.12109-.02734.11719-.03125.13281-.03125.11719-.02735.11719-.04297.10546-.03125.1172-.03125.12108-.01171.13282-.01563.13281v.29688l.02734.11718v.14844l.04688.39844.02734.11719.0586.08984.12109.03125h.14844l.13281-.01563.0586.08985v.11719l-.0586.08984-.08984.0586-.10157.04296-.10546.04688-.08985.05859-.08594.0586-.13671.01562-.1172-.03125-.1328-.01563-.10157.04688-.0625.08594-.01172.13671-.01562.13282-.03125.11719-.02735.11718-.01562.13281-.03125.1211v.29687l.01563.13282.03125.11718v.14844l.01171.13281v.14844l-.02734.11719-.04688.10156-.02734.1211-.03125.11718-.0586.08985-.07421.07421-.10156.04297-.10547.04688-.11719.02734-.1211.03125-.10156-.04687.0586-.08594.10547-.04688.02734-.11718.03125-.11719.02734-.1211.03125-.11718v-.14844l.01563-.13281-.03125-.11719-.04297-.10547-.10547.01563-.07422.07422-.10156.04296-.08984.0625-.07422.07422-.04297.10157-.01563.1328-.03125.1172L304.25 426l-.03125.11719-.02734.11719-.03125.12109-.02735.11719-.03125.11718-.04297.10547-.08984.0586h-.08984l-.1172-.03125-.03124-.08594.01562-.13672-.03125-.11719v-.14844l-.01171-.1328v-.14844l-.0625-.23438-.02735-.1211-.04297-.10156-.04687-.10546-.0586-.08594-.05859-.08985-.04297-.10546-.0625-.08594-.14844-.14844-.0703-.07422-.10548-.04687-.10547-.04297-.10156-.04297-.29687-.29688-.08985-.07421-.08594-.0586-.10546-.04297-.08985-.0625-.08594-.0586-.10546-.04296-.08985-.0586-.08594-.0625-.07421-.0703-.10547-.04688-.08594-.0586-.10547-.04296-.08984-.0625-.10156-.04297-.10547-.04297-.08594-.0586-.10547-.04687-.10547-.04297-.10156-.04687-.08985-.0586-.10156-.04297-.10547-.04296-.08984-.0625-.11719-.02735-.13281-.01562-.13281.01562H299.75l-.13281.01563-.11719-.03125-.08984-.0586-.07422-.07422-.08985-.05859-.10156-.04688h-.14844l-.12109-.02734-.10156-.04297-.07422-.07422-.11719-.17968-.08984-.0586-.10156-.04297-.08985-.0625-.10547-.04296-.08984-.0586-.08594-.0586-.10547-.04687-.0586-.08594-.05858-.08984-.04297-.10547-.04688-.10156-.07422-.07422-.08594-.0586-.07421-.07421-.08985-.0586-.22265-.22265-.04297-.10547-.03125-.26563.10547-.04296h.14453l.10547.04296.07421.07422.08985.0586.08594.0586.10546.04687.08985.05859.14844.14844.0703.07422.14845.14843.0625.08594.07421.07422.08594.0586.07422.07421.08985.0625.08984.0586.08594.05859.26953.17578.10156.04688.10547.04296.10156.04297.04688-.07421.05859-.08594.07422-.07422.07031-.07422.10547.04297.07422.07422.0586.08984.04296.10156.04688.10547.04296.10547.1211.02735.11719-.02735.07421-.08984.04297-.10547.0586-.08985.07422-.07421.10546-.04297.1172-.02735.1328.01172.08985.0586.14844.14843.05859.08985.04297.10547.04687.10156.04297.10547.04297.10156.10547.04688.10547.04296.13281.01563.08594-.0586.0586-.08984.07421-.07422.10547-.04297.11719.02735.10547.04687.10156.04297.10547.04297.10156.04688.17969.11718v.11719l-.01563.13281.01563.13281.01562.13672.0586.08594.10156.04688.1211.02734.11718.03125h.14844l.11719-.03125.05859-.08984.17969-.1172.05859-.08983.07422-.07422.0586-.08594.11718-.17969.17969-.11719.11719.03125.08984.0586.04297.07422-.01563.1328v.1172l.08985.05859h.14843l.13282-.01563.1328-.01171.26563-.03125.10547-.04297.11719-.03125.1211-.02735.07421-.07421.07031-.07422.0625-.08985-.01562-.10547-.04688-.10156-.10156-.04297-.10547-.01562-.11718.02734-.26563.03125h-.14844l-.07421-.07422-.08985-.0586-.11719-.03124-.11718-.02735-.13282-.01562h-.14843l-.13282.01563h-.29687l-.10547-.04688-.14844-.14844-.04297-.10156-.05859-.08984.22266-.22266.08593-.0586.10547-.04296.11719-.03125.13281-.01563.13281.01563.13672.01562.10157.04297.1328-.01172.08985-.0625.10156-.04297.0625-.08984-.04687-.10156-.08984-.0586-.1172-.03125-.10155-.04296-.0586-.08985-.0625-.08984v-.11719l.01563-.13281.10547-.04688.07421-.07031v-.1211l-.08984-.05859-.03125-.11719.08985-.05859.07421-.07422.04297-.10547.0586-.08984.04687-.10156.01563-.13281v-.14844l-.04688-.10547-.04297-.10156-.08984-.0586-.13281-.01562-.10157-.04297-.13671-.01563-.1172-.03125h-.4453l-.13282-.01562-.13281-.01172-.13281-.01563-.11719-.03125h-.14844l-.13281-.01562-.13281-.01172-.26563-.03125-.1211-.04297-.08593-.0586-.07422-.07421v-.14844l.01172-.13281.10547-.04688.10156-.04296.13281-.01563h.15235l.13281-.01562h.29297l.1211.03125.10156.04296.08984.0586.23438.0625.12109-.04688.08984-.05859.10156-.04297.13282-.01562.10547.04296.10156.04688.13281.01172.1211-.02735h.14453l.12109-.03125.11719-.02734.10547-.04687.07421-.07422.08594-.0586.14844-.14843.0586-.08594.04687-.10547.02734-.11719.01563-.10547-.10156-.04296-.08985-.0586-.11719-.03125-.10546-.04297-.08985-.0625-.07422-.08594-.07422-.07421-.10156-.04297-.10547-.04688-.10156-.04297-.0586-.08984-.04687-.10156-.08594-.21094-.0625-.08594-.05859-.08984-.07422-.07422-.08594-.0586h-.26953l-.11719.03126-.08984.05859-.10156.04297-.13281.01562-.10547-.01562-.02735-.11719-.0625-.08984-.11718-.03125-.10157-.04297-.14843-.14844-.03125-.11719-.01563-.10546.07422-.07422.17969-.1172.11719-.02733.11718-.03125.13672.01562.10156.04297.10547.04297.10156.04687.10547.04297.1172.03125.1328.01563.1172.02734.1328.01563.10547-.01563.08985-.0586-.07422-.07421-.10547-.04297-.07422-.07422-.07422-.08984-.14844-.14844-.08593-.0586-.08985-.05859-.07422-.07422-.08984-.0586-.10156-.04687-.1211-.02734-.10156-.04688-.10547-.04296-.11719-.03125-.10156-.04297-.1211-.03125h-.14843l-.11719.03125-.10546.04297-.08594.0625-.17969.11718-.08594.0586-.08984.0586-.10547.04687-.08594.05859-.10547.04297-.10156.04297-.10547.04687-.07422.07422-.05859.08985-.0586.08593-.04687.10547-.0586.08594-.07421.07422-.13281-.01172-.1172-.03125h-.11718l-.07422.07422-.08984.0586-.07422.07421-.08984.0586-.08594.05859-.10547.04687-.10156.04297-.13672.01563-.10156-.04297-.14844-.14844-.10547-.04688h-.08594l-.10547.04688-.10156.04297-.1211.03125-.11718-.03125-.07422-.07422v-.11719l.03125-.1211.07422-.0703.0586-.08985.07421-.07422.11719-.03125.10547-.04296h.29297l.13281-.01563.13672-.01563.10156-.04296.08985-.0586.10156-.04687.08984-.0586.13281-.01171.08985.05859.13281.01172.08984-.0586.08594-.05859.10547-.04297.08984-.0586.08594-.0625.08985-.05859.14843-.14843.0586-.08594.05859-.08985.10547-.04296.13281-.01563.11719.02735.1211.03125.05859-.0586.05859-.08984.03125-.26563.02734-.11719.10547.01172.13281.01563.10157-.04297.08984-.0586.0586-.08984.07421-.07422.0586-.08984.04687-.10156.01172-.13281-.01172-.13282-.04687-.10547-.14844-.14843-.0586-.08985-.05859-.08594-.04297-.10546v-.44532l.01563-.1328v-.14845l.01172-.1328-.0586-.0586-.08984.0586-.10156-.04298-.17969-.11719-.08594-.05859-.0625-.08984-.0586-.08985-.07421-.07421-.08594-.0586-.1211.03125-.10155.01172-.10547.04688-.08594.05859-.10547.04297-.14844.14844-.08984.05859-.08594.0586-.08984.0625-.10547.04296-.13281.01563v-.1211l.10547-.04297.11718-.03125.07422-.0703.04297-.10548v-.14844l-.02734-.11718-.14844-.14844-.13281-.01563h-.14844l-.11719.03125-.10547.04297-.10156.04297-.08984.0625-.11719.02735-.07422-.07422.01172-.13281-.04297-.10157-.04297-.10547-.08984-.05859-.11719.02734-.1211.03125-.11718.03125-.10156.04297-.1211.03125-.10156.04297-.10547.04297-.08984.0586-.10156.01562v-.11719l.01562-.13281-.0586-.08985-.07421.04297-.14844.14844-.0586.08985-.07421.07421-.04688.10547-.04296.10156-.07422.07422-.0586.08985-.07422.07422-.05859.08593-.07422.07422-.08984.0625-.07422.07031-.07422.07422-.10156.01563-.13281.01562-.10547-.04296v-.1211l.14843-.14844.04297-.10156.0586-.08984.04687-.10156.04297-.10547.0586-.08985.03124-.11719.04297-.10156.03125-.1211.02735-.11718.04687-.10547.04297-.10156.04297-.10547.07422-.07031.08984-.0625.08985-.0586.10156-.04296h.29687l.26563-.03125.10547-.04297-.07422-.07422-.11719-.03125-.10547-.04297-.08984-.0586-.10156-.04687-.08985-.0586-.10156-.04296-.10547-.04297-.08984-.0625-.08594-.0586-.10547-.04296-.10156-.04297-.1211-.03125-.11718-.03125-.10157-.04297L297.5 410.25l-.10156-.04297-.08985-.0586-.04296-.10546-.01563-.13281.10156-.04297.13281-.01563.13672.01563.13282-.01563.10156-.04297.0586-.08984.01562-.10547-.08985-.0586-.07421-.07421-.10157-.04297-.08984-.0586-.14844-.14843-.04297-.10547-.01562-.13281v-.29297l-.0586-.08985-.08984-.05859-.07422-.07422-.04297-.10547-.03125-.11718-.0586-.08985-.07421-.07422-.11719-.02734-.07422-.07422-.08984-.0586-.08984-.0625-.08594-.05859-.07422-.07421-.0586-.08594-.04687-.10547-.08594-.0586-.14843-.14843-.19532-.0586-.1328.01563-.10157.04297-.07422.07422-.04688.10156-.04296.10547-.0586.08984-.0586.08594-.29687.29687-.08984.0586h-.08594l-.0625-.08594-.04297-.10547.03125-.11719.0586-.08984.02734-.11719-.01172-.13281-.08984-.0625-.10547.04688-.11719.02734-.11719.03125-.26953.17578-.10156.04688-.11719.02734-.10546.04687-.08985.0586-.10156.04297-.0586-.08594-.04687-.10547.01563-.13281.04687-.10547.07031-.07422.07422-.07031.0586-.08985v-.14843l-.04297-.10547h-.23829l-.10156.04687-.03125.11719-.02734.11719-.03125.1211-.07422.04296-.13281.01563-.07422-.04688-.04297-.10156-.04297-.10547-.04687-.10156-.04297-.10547-.1211.03125-.10156.04297-.13281.01562-.11719.03125-.10547.04297-.08984.0586-.10156.04687-.1211.02734-.13281.01563-.10156-.04297-.0586-.08985-.04687-.10546-.04297-.10157-.04297-.10546v-.1172l.0586-.08984.08593-.05859.17969-.11719.10156-.04687.10547-.04297.10547-.0586.10156-.04296.08985-.0625.10156-.04297.10547-.0586.10156-.04687.08984-.0586.10547-.04296.10156-.04297.08985-.0625.10156-.04297.13672-.01563.11719.03125.10156.04297.1211.03125.10156.04297.10546.04688.10157.04296.10547.04297.10156.04688.10547.04297.10156.04297.10547.04687.08594.0586.10546.04296.1172.03125.10546.04297.10156.04688.08985.0586.10547.04296.10156.04297.10547.04687.11719.02735.10156.04687.1211.02735h.14843l.08594-.0586.01562-.10156.0586-.08984-.02735-.1172-.07422-.07421-.11719-.17969-.07421-.07422-.08985-.07421-.17969-.1172-.08593-.05859-.10547-.04296-.10156-.04688-.26954-.17578-.05859-.08985-.07422-.07421-.0586-.08985-.04296-.10156-.03125-.11719-.01563-.13672v-.5625l-.01171-.1328-.01563-.13282-.03125-.11719-.01562-.13281-.01172-.13281-.03125-.1211-.22266-.22265-.0586-.08594-.01562-.10547.03125-.11719.13281-.01562v-91.41406H172.9922v1.45312l-.0586.23438-.35156 1.05078-.17187.52343-.1172.34766-.17577.41016-.11719.17187-.23438.29297-.23046.0586h-.35157l-.11718.05859-.23047.40625v.29297l.11719.17578.23046.23047.1172.23437.64062.75781.29297.46485.17578.23437.23047.35156.23437.34766.64063.8164.17578.46485.17187.41016.11719.69531.17578.46875.11719 1.39844.0586.46484v.875l.11718 1.04688v4.78125l-.0586.46484-.35156 1.28125-.17578.52344-.11328.41015-.35156.9297L172.93359 336l-.23437.58203-.11719.17578-.17187.34766-.17578.40625-.35157.8164-.0586.29297-.11327.29297-.11719.28906-.0586.17579-.11718.875-.0586.40625-.05859.11718-.0586.17579-.05859.17187-.23047.52734-.11718.17188v.23437l-.11719.23438-.0586.17187-.17577.58594v.28906l-.0586.17579v.29296l-.0586.11329-.05859.52734v.17187l-.05468.23438v2.6211l-.17578.8164-.1172.17578-.17577.23438-.1172.17187-.11327.23438-.58594.93359-.23047.28906-.29297.46485-.17578.23437-.28906.35156-.35156.69922-.11328.23047-.17579.41016-.17578.23046-.40625.52735-.8164.69922-.29297.17187-.28906.23438-.17579.11719-.17578.17578-.52344.40625-.52734.17578-.17187.17578-.23438.05469-.64062.17578h-.75782m12.21094 31.02344l-1.07422.44921.35938.89454 1.25-.71485.44531-.53906-.98047-.08985"/><path fill="#d3d3d3" fill-opacity="0" fill-rule="evenodd" d="M201.50781 416.59766h-.89453l.44922.6289.98047.35938.80469-.08985.4453-.98828-.17577.08985-.71485-.35547-.89453.35547m154.6211 59.0703l-.0586-.52343v-.29297l.11328-.29297.0586-.23046.46875-.46875h.11328l.11719-.11329.11718-.05859h.17579l.23437-.0586h.34766l.23437.0586.11719.0586.23047.17187.0586.17578.11718.58203v.29297l-.11719.17578-.17187.28906-.17579.17579-.52734.52343-.23047.23438-.11719.0586h-.17578l-.11718-.0586-.40625-.29297-.17579-.11719-.11718-.0586-.0586-.11327-.05468-.1172m6.64062-10.95702l-.0586-.17188v-1.10937l.0586-.17188.17578-.0586.17188-.05858h.17578l.23437-.0586.1172.0586.05858.69921-.05859.17188-.11719.17578-.11718.0586-.23438.52343-.11328.0586h-.23438l-.05859-.1172m9.61328-14.39062l-.11719-.17578v-.69922l.29297-.875.1172-.17187.17577-.35156.11328-.23047.1172-.29297.35155-.75781.1172-.23047.17187-.23438h.17578l.11719-.0586h.64062l.11719.0586.23437.23438.17188.11328.35156.29297.11719.11718.11328.17579v.11328l.11719.05859.11718.11719v.69922l-.05859.17578v.23047l-.0586.17578-.34765 1.05078-.11719.23047-.11719.23437-.11718.0586-.23047.23437-.64063.28906h-.875l-.41015-.11718-.64063-.46485"/><path fill="none" stroke="#bebebe" stroke-linecap="round" stroke-linejoin="round" stroke-miterlimit="10" stroke-width=".5" d="M467.95703 311.69531H144.02734v168.625h323.9297v-168.625"/><g clip-path="url(#a)"><path fill="#fff" fill-opacity="0" fill-rule="evenodd" d="M144 475.89063v4.4375h.0039H144V311.67188h.0039H144v164.21875"/></g><g clip-path="url(#b)"><path fill="#fff" fill-opacity="0" fill-rule="evenodd" d="M144.0039 480.32813V311.67188h44.37891v109.4375l-4.4375 1.11328-.50781.40625.50781 2.28906.24219 2.15234-.24219.41797-3.73828 4.01953-.3086 4.4375 4.04688 4.42578v5.71094l-2.69922 3.17969-1.73828 2.16015-4.4414.9961-1.52344 1.28125 1.52344 1.8086 3.87109 2.6289.57031.3164.72656-.3164 2.64063-4.4375 1.07031-.78516 3.14453-3.65234-3.14453-3.17969v-5.71094l.03906.01172 4.39844 3.5664 4.4375.14063 1.66797.73047 2.77344 1.75781 4.4375 1.01563 4.4375.48438 4.4375-.95704 4.4414-.57812 2.12891-1.72266 2.3086-3.85547.7539-.58203-.7539-2.21875-4.4375-.33203-.98047-1.88672-3.46094-1.89062-2.11328-2.54688-1.96485-4.4375-.35937-.6211-4.4375-2.07421-4.11719-1.7461-.32031-.15624-4.4414-1.1211-4.4375-.24219v-109.4375h44.3828v118.08204l-2.01562 1.7539-.85547 4.4375 2.8711 2.3711 4.4414.46093 1.61328 1.60547 2.82422 2.72656 4.4375-2.25.48438-.47656-.48438-.65625-3.39844-3.78125-1.03906-1.51953-4.4375-1.80469-3.07812-1.11328-1.36328-1.7539V311.67187h71.01562v118.33985l-1.5039 1.4961 1.5039 1.49609 1.49219-1.4961-1.49219-1.4961V311.67189h71.01172v135.07421l-2.75 2.51563 2.75 2.40625 2.41015-2.40625-2.41015-2.51563V311.67188h93.20312v168.65625h-36.86718l-3.07422-1.29688-1.65625 1.29688H144.0039"/></g><path fill="#50fcfc" fill-rule="evenodd" d="M175.0664 455.50781l-1.52343-1.8086 1.52344-1.28124 4.4414-.9961 1.73828-2.16015 2.69922-3.17969 3.14453 3.17969-3.14453 3.65234-1.07031.78516-2.64063 4.4375-.72656.3164-.57031-.3164-3.8711-2.6289m8.87891-15.13673l-4.04687-4.42578.3086-4.4375 3.73827-4.01953.24219-.41797-.24219-2.15234-.50781-2.28906.50781-.40625 4.4375-1.11329v5.4336l-.33984.52734.33984 3.78516 1.53906-3.78516-1.53906-.52734v-5.4336l4.4375.2422 4.4414 1.12109.32032.15625 4.11719 1.74609 4.4375 2.07422.35937.6211 1.96485 4.4375 2.11328 2.54687 3.46094 1.89062.98047 1.88672 4.4375.33203.7539 2.21875-.7539.58203-2.3086 3.85547-2.1289 1.72266-4.44141.57812-4.4375.95704-4.4375-.48438-4.4375-1.01563-2.77344-1.7578-1.66797-.73048-4.4375-.14062-4.39844-3.5664-.03906-.01173"/><path fill="#00e8fc" fill-rule="evenodd" d="M188.38281 430.85547l-.33984-3.78516.33984-.52734 1.53906.52734-1.53906 3.78516"/><path fill="#50fcfc" fill-rule="evenodd" d="M232.76563 438.3164l-2.8711-2.37109.85547-4.4375 2.01563-1.7539 1.36328 1.7539 3.07812 1.11328v3.14454l-.80078.17968.80078.15235 4.30078 4.28515.13672.13281.22656-.1328-.22656-.2422-4.16406-4.1953-.27344-.1797v-3.14453l4.4375 1.8047 1.03906 1.51952 3.39844 3.78125.48438.65625-.48438.47656-4.4375 2.25-2.82422-2.72656-1.61328-1.60547-4.4414-.46093"/><path fill="#00e8fc" fill-rule="evenodd" d="M237.20703 436.09766l-.80078-.15235.80078-.17969.27344.1797 4.16406 4.1953.22656.2422-.22656.1328-.13672-.1328-4.30078-4.28516"/><path fill="#50fcfc" fill-rule="evenodd" d="M303.78125 433.0039l-1.5039-1.49609 1.5039-1.4961 1.49219 1.4961-1.49219 1.4961m71.01172 18.66406l-2.75-2.40625 2.75-2.51563 2.41015 2.51563-2.41015 2.40625"/><g clip-path="url(#c)"><path fill="#50fcfc" fill-rule="evenodd" d="M426.39844 480.32813l1.65625-1.29688 3.07422 1.29688h-4.73047"/></g><g clip-path="url(#d)"><path fill="#fff" fill-opacity="0" fill-rule="evenodd" d="M467.9961 480.32813H468V311.67188h-.0039H468v168.65625h-.0039"/></g><g clip-path="url(#e)"><path fill="none" stroke="#000" stroke-linecap="round" stroke-linejoin="round" stroke-miterlimit="10" stroke-width=".5" d="M147.51172 480.42188l-7.02344-.1875"/></g><g clip-path="url(#f)"><path fill="none" stroke="#000" stroke-linecap="round" stroke-linejoin="round" stroke-miterlimit="10" stroke-width=".5" d="M147.51172 480.42188l1.09375 2.1953"/></g><g clip-path="url(#g)"><path fill="none" stroke="#000" stroke-linecap="round" stroke-linejoin="round" stroke-miterlimit="10" stroke-width=".5" d="M146.49219 480.39453l.54687 1.09766"/></g><g clip-path="url(#h)"><path fill="none" stroke="#000" stroke-linecap="round" stroke-linejoin="round" stroke-miterlimit="10" stroke-width=".5" d="M160.82813 480.42188l-7.02344-.1875"/></g><g clip-path="url(#i)"><path fill="none" stroke="#000" stroke-linecap="round" stroke-linejoin="round" stroke-miterlimit="10" stroke-width=".5" d="M160.82813 480.42188l1.09375 2.19921"/></g><g clip-path="url(#j)"><path fill="none" stroke="#000" stroke-linecap="round" stroke-linejoin="round" stroke-miterlimit="10" stroke-width=".5" d="M174.14453 480.30469l-7.02734.04687"/></g><g clip-path="url(#k)"><path fill="none" stroke="#000" stroke-linecap="round" stroke-linejoin="round" stroke-miterlimit="10" stroke-width=".5" d="M174.14453 480.30469l1.16406 2.16015"/></g><g clip-path="url(#l)"><path fill="none" stroke="#000" stroke-linecap="round" stroke-linejoin="round" stroke-miterlimit="10" stroke-width=".5" d="M187.45703 480.42578l-7.02344-.19531"/></g><g clip-path="url(#m)"><path fill="none" stroke="#000" stroke-linecap="round" stroke-linejoin="round" stroke-miterlimit="10" stroke-width=".5" d="M187.45703 480.42578l1.09375 2.19922"/></g><g clip-path="url(#n)"><path fill="none" stroke="#000" stroke-linecap="round" stroke-linejoin="round" stroke-miterlimit="10" stroke-width=".5" d="M200.7539 479.94531l-6.98437.76953"/></g><g clip-path="url(#o)"><path fill="none" stroke="#000" stroke-linecap="round" stroke-linejoin="round" stroke-miterlimit="10" stroke-width=".5" d="M200.7539 479.94531l1.38282 2.02735"/></g><g clip-path="url(#p)"><path fill="none" stroke="#000" stroke-linecap="round" stroke-linejoin="round" stroke-miterlimit="10" stroke-width=".5" d="M214.03516 479.71094l-6.91797 1.23437"/></g><g clip-path="url(#q)"><path fill="none" stroke="#000" stroke-linecap="round" stroke-linejoin="round" stroke-miterlimit="10" stroke-width=".5" d="M214.03516 479.71094l1.51562 1.92969"/></g><g clip-path="url(#r)"><path fill="none" stroke="#000" stroke-linecap="round" stroke-linejoin="round" stroke-miterlimit="10" stroke-width=".5" d="M227.38281 479.9375l-6.98437.78125"/></g><g clip-path="url(#s)"><path fill="none" stroke="#000" stroke-linecap="round" stroke-linejoin="round" stroke-miterlimit="10" stroke-width=".5" d="M227.38281 479.9375l1.38672 2.02344"/></g><g clip-path="url(#t)"><path fill="none" stroke="#000" stroke-linecap="round" stroke-linejoin="round" stroke-miterlimit="10" stroke-width=".5" d="M240.6289 479.53516l-6.84765 1.58593"/></g><g clip-path="url(#u)"><path fill="none" stroke="#000" stroke-linecap="round" stroke-linejoin="round" stroke-miterlimit="10" stroke-width=".5" d="M240.6289 479.53516l1.60938 1.85156"/></g><g clip-path="url(#v)"><path fill="none" stroke="#000" stroke-linecap="round" stroke-linejoin="round" stroke-miterlimit="10" stroke-width=".5" d="M253.94531 479.53516l-6.84765 1.58593"/></g><g clip-path="url(#w)"><path fill="none" stroke="#000" stroke-linecap="round" stroke-linejoin="round" stroke-miterlimit="10" stroke-width=".5" d="M253.94531 479.53516l1.60938 1.85156"/></g><g clip-path="url(#x)"><path fill="none" stroke="#000" stroke-linecap="round" stroke-linejoin="round" stroke-miterlimit="10" stroke-width=".5" d="M267.27734 479.6211l-6.8828 1.41406"/></g><g clip-path="url(#y)"><path fill="none" stroke="#000" stroke-linecap="round" stroke-linejoin="round" stroke-miterlimit="10" stroke-width=".5" d="M267.27734 479.6211l1.5625 1.89062"/></g><g clip-path="url(#z)"><path fill="none" stroke="#000" stroke-linecap="round" stroke-linejoin="round" stroke-miterlimit="10" stroke-width=".5" d="M280.60938 479.71484l-6.91797 1.22657"/></g><g clip-path="url(#A)"><path fill="none" stroke="#000" stroke-linecap="round" stroke-linejoin="round" stroke-miterlimit="10" stroke-width=".5" d="M280.60938 479.71484l1.51562 1.9297"/></g><g clip-path="url(#B)"><path fill="none" stroke="#000" stroke-linecap="round" stroke-linejoin="round" stroke-miterlimit="10" stroke-width=".5" d="M293.97656 480.23047l-7.02344.19531"/></g><g clip-path="url(#C)"><path fill="none" stroke="#000" stroke-linecap="round" stroke-linejoin="round" stroke-miterlimit="10" stroke-width=".5" d="M292.95703 480.26172l.60547 1.0664"/></g><g clip-path="url(#D)"><path fill="none" stroke="#000" stroke-linecap="round" stroke-linejoin="round" stroke-miterlimit="10" stroke-width=".5" d="M307.29297 480.35547l-7.02735-.05078"/></g><g clip-path="url(#E)"><path fill="none" stroke="#000" stroke-linecap="round" stroke-linejoin="round" stroke-miterlimit="10" stroke-width=".5" d="M306.27344 480.34766l.5664 1.08593"/></g><g clip-path="url(#F)"><path fill="none" stroke="#000" stroke-linecap="round" stroke-linejoin="round" stroke-miterlimit="10" stroke-width=".5" d="M320.58203 479.89063l-6.97265.875"/></g><g clip-path="url(#G)"><path fill="none" stroke="#000" stroke-linecap="round" stroke-linejoin="round" stroke-miterlimit="10" stroke-width=".5" d="M319.5664 480.01953l.70704 1"/></g><g clip-path="url(#H)"><path fill="none" stroke="#000" stroke-linecap="round" stroke-linejoin="round" stroke-miterlimit="10" stroke-width=".5" d="M333.84375 479.58594l-6.86719 1.48437"/></g><g clip-path="url(#I)"><path fill="none" stroke="#000" stroke-linecap="round" stroke-linejoin="round" stroke-miterlimit="10" stroke-width=".5" d="M332.84766 479.80469l.78906.9375"/></g><g clip-path="url(#J)"><path fill="none" stroke="#000" stroke-linecap="round" stroke-linejoin="round" stroke-miterlimit="10" stroke-width=".5" d="M347.0625 479.23047l-6.67578 2.19531"/></g><g clip-path="url(#K)"><path fill="none" stroke="#000" stroke-linecap="round" stroke-linejoin="round" stroke-miterlimit="10" stroke-width=".5" d="M346.09375 479.55078l.88281.84766"/></g><g clip-path="url(#L)"><path fill="none" stroke="#000" stroke-linecap="round" stroke-linejoin="round" stroke-miterlimit="10" stroke-width=".5" d="M359.92188 478.32031l-5.76172 4.01953"/></g><path fill="none" stroke="#000" stroke-linecap="round" stroke-linejoin="round" stroke-miterlimit="10" stroke-width=".5" d="M359.08594 478.90234l1.08984.5625"/><g clip-path="url(#M)"><path fill="none" stroke="#000" stroke-linecap="round" stroke-linejoin="round" stroke-miterlimit="10" stroke-width=".5" d="M373.64063 479.08203l-6.57032 2.49219"/></g><g clip-path="url(#N)"><path fill="none" stroke="#000" stroke-linecap="round" stroke-linejoin="round" stroke-miterlimit="10" stroke-width=".5" d="M372.6836 479.44531l.92577.8086"/></g><g clip-path="url(#O)"><path fill="none" stroke="#000" stroke-linecap="round" stroke-linejoin="round" stroke-miterlimit="10" stroke-width=".5" d="M387.1289 479.69922l-6.91406 1.25781"/></g><g clip-path="url(#P)"><path fill="none" stroke="#000" stroke-linecap="round" stroke-linejoin="round" stroke-miterlimit="10" stroke-width=".5" d="M386.1211 479.88281l.76171.96094"/></g><g clip-path="url(#Q)"><path fill="none" stroke="#000" stroke-linecap="round" stroke-linejoin="round" stroke-miterlimit="10" stroke-width=".5" d="M399.5664 477.94531l-5.16015 4.76563"/></g><path fill="none" stroke="#000" stroke-linecap="round" stroke-linejoin="round" stroke-miterlimit="10" stroke-width=".5" d="M398.8164 478.63672l1.15626.40625"/><g clip-path="url(#R)"><path fill="none" stroke="#000" stroke-linecap="round" stroke-linejoin="round" stroke-miterlimit="10" stroke-width=".5" d="M413.74219 479.61328l-6.8789 1.42969"/></g><g clip-path="url(#S)"><path fill="none" stroke="#000" stroke-linecap="round" stroke-linejoin="round" stroke-miterlimit="10" stroke-width=".5" d="M412.74219 479.82031l.78125.94531"/></g><g clip-path="url(#T)"><path fill="none" stroke="#000" stroke-linecap="round" stroke-linejoin="round" stroke-miterlimit="10" stroke-width=".5" d="M427.1211 480.09375l-7.01173.46875"/></g><g clip-path="url(#U)"><path fill="none" stroke="#000" stroke-linecap="round" stroke-linejoin="round" stroke-miterlimit="10" stroke-width=".5" d="M427.1211 480.09375l1.29687 2.08594"/></g><g clip-path="url(#V)"><path fill="none" stroke="#000" stroke-linecap="round" stroke-linejoin="round" stroke-miterlimit="10" stroke-width=".5" d="M440.4414 480.14844l-7.01952.35937"/></g><g clip-path="url(#W)"><path fill="none" stroke="#000" stroke-linecap="round" stroke-linejoin="round" stroke-miterlimit="10" stroke-width=".5" d="M439.41797 480.20313l.63281 1.05078"/></g><g clip-path="url(#X)"><path fill="none" stroke="#000" stroke-linecap="round" stroke-linejoin="round" stroke-miterlimit="10" stroke-width=".5" d="M453.71875 479.78906l-6.94531 1.07813"/></g><g clip-path="url(#Y)"><path fill="none" stroke="#000" stroke-linecap="round" stroke-linejoin="round" stroke-miterlimit="10" stroke-width=".5" d="M452.70703 479.94531l.73828.98438"/></g><g clip-path="url(#Z)"><path fill="none" stroke="#000" stroke-linecap="round" stroke-linejoin="round" stroke-miterlimit="10" stroke-width=".5" d="M467.07031 480.13672l-7.01562.38281"/></g><g clip-path="url(#aa)"><path fill="none" stroke="#000" stroke-linecap="round" stroke-linejoin="round" stroke-miterlimit="10" stroke-width=".5" d="M466.05078 480.19531l.63281 1.04688"/></g><g clip-path="url(#ab)"><path fill="none" stroke="#000" stroke-linecap="round" stroke-linejoin="round" stroke-miterlimit="10" stroke-width=".5" d="M147.5 467.33203l-7-.63672"/></g><path fill="none" stroke="#000" stroke-linecap="round" stroke-linejoin="round" stroke-miterlimit="10" stroke-width=".5" d="M147.5 467.33203l.94922 2.26172m12.3711-2.33594l-7.01173-.48828m7.01172.48828l1 2.24219m12.32031-2.39844l-7.02343-.17578m7.02344.17578l1.09765 2.19532m12.21875-2.33594l-7.02344.10547m7.02344-.10547l1.1836 2.15234m12.10546-2.55078l-6.96875.90234m6.96875-.90234l1.41797 2m11.77344-2.5664l-6.72266 2.03515m6.72266-2.03516l1.73047 1.73828m-2.70703-1.4453l.86328.87109m13.27344-1.57813l-6.41407 2.86328m6.41407-2.86328l1.9375 1.50781m-2.8711-1.09375l.96875.75391m13.3125-1.09375l-6.48047 2.71484m6.48047-2.71484l1.89844 1.55469m-2.83984-1.16016l.94922.77735m13.45312-.75782l-6.76953 1.88672m6.76953-1.88672l1.6914 1.78125m11.56641-1.96875l-6.65625 2.26172m6.65625-2.26172l1.78516 1.6836m11.30078-2.20313l-6.19922 3.30078m6.19922-3.30078l2.03516 1.36719m11.38672-1.15234l-6.41407 2.87109m6.41406-2.8711l1.9375 1.50782m11.53516-1.09375l-6.72656 2.04297m6.72656-2.04297l1.73047 1.73828m11.46094-2.07813l-6.48047 2.72266m6.48047-2.72266l1.89844 1.55079m11.41796-1.54297l-6.48437 2.70703m6.48437-2.70703l1.89844 1.55859m11.21485-1.96484l-6.08204 3.51953m6.08204-3.51953l2.08203 1.29687m10.85546-1.83203l-5.32421 4.58984m5.32421-4.58984l2.28516.89063m10.9375-.9922l-5.14062 4.79298m4.39453-4.09375l1.16015.39843m12.91016 3.6875l-5.15625-4.77734m18.97656.70703l-6.17187 3.36328m5.27734-2.8711l1.02344.67579m13.29297-.96094l-6.3789 2.94922m5.44921-2.51953l.97656.74219m13.52344-.3789l-6.89453 1.36327m6.89453-1.36328l1.55078 1.90235M440.40625 466.5l-6.94922 1.02734m6.94922-1.02734l1.45703 1.97266m11.83203-2.14063l-6.89453 1.36328m6.89453-1.36328l1.54688 1.90235m11.61719-2.4297l-6.59766 2.41798m5.64062-2.06641l.91016.8164"/><g clip-path="url(#ac)"><path fill="none" stroke="#000" stroke-linecap="round" stroke-linejoin="round" stroke-miterlimit="10" stroke-width=".5" d="M147.49219 454.07031l-6.98438-.74219"/></g><path fill="none" stroke="#000" stroke-linecap="round" stroke-linejoin="round" stroke-miterlimit="10" stroke-width=".5" d="M147.49219 454.07031l.91797 2.27344m12.41797-2.6289l-7.02735-.03126m7.02734.03125l1.14063 2.17188m12.15234-1.79297l-6.98047-.79297m6.98047.79297l.89844 2.28516m12.36328-1.96094l-6.8789-1.4375m5.8789 1.22656l.34375 1.17969m14.04688-1.78125l-7.02735.1836m6.00391-.15626l.60547 1.0664m13.57031-2.0625l-6.69922 2.125m5.72266-1.8164l.8789.85938m13.2461-1.58985l-6.36719 2.96875m6.36719-2.96875l1.96094 1.47657m11.33203-1.52344l-6.32422 3.0586m6.32422-3.0586l1.98047 1.44922m11.35937-1.40235l-6.3711 2.96875m6.3711-2.96875l1.95703 1.47657m10.89453-2.21094l-5.44922 4.4375m5.44922-4.4375l2.26172.95312m10.95313-1.07421l-5.24219 4.67968m5.24219-4.67968l2.30078.84765m11.25-.55078l-5.71875 4.08203m5.71875-4.08203l2.19922 1.09766m11.30468-.8047l-6.09375 3.5m6.09375-3.5l2.07813 1.3047m11.0586-1.58203l-5.73829 4.05468m5.73828-4.05468l2.19141 1.10546m11.08984-1.15234l-5.67187 4.14844m5.67187-4.14844l2.21094 1.0664m10.92969-1.28515l-5.32031 4.58594m5.3203-4.58594l2.28907.88672m10.30078-1.52734l-3.8711 5.86718m3.8711-5.86718l2.4414.23046m10.9961-.14453l-4.11719 5.69532m3.51954-4.8672l1.21484.16798m12.71094-.98828l-4.14063 5.67578m3.53906-4.84766l1.21485.17188m13.1875-.57032l-5.11328 4.8164m4.3711-4.11327l1.16015.39453m13.46875-.28516l-6.25782 3.1914m5.34766-2.72655l1.00781.70312m13.1836-1.23828l-6.1875 3.33594m6.1875-3.33594l2.03906 1.35938m11.54687-.70313l-6.73046 2.02344m5.75-1.73047l.86328.8711m13.5586-.53907l-6.98438.76953m5.96875-.65625l.6914 1.01563m13.5586-1.58985l-6.82032 1.6914m5.82813-1.4453l.82031.91406"/><g clip-path="url(#ad)"><path fill="none" stroke="#000" stroke-linecap="round" stroke-linejoin="round" stroke-miterlimit="10" stroke-width=".5" d="M147.48828 440.8125l-6.97656-.85938"/></g><path fill="none" stroke="#000" stroke-linecap="round" stroke-linejoin="round" stroke-miterlimit="10" stroke-width=".5" d="M147.48828 440.8125l.8789 2.29297m12.39845-2.0664l-6.90235-1.3125m6.90234 1.3125l.73047 2.34374m12.48438-1.9414l-6.69922-2.1172m5.72266 1.8086l.22656 1.20703m14.1875-1.41797l-6.94531-1.07812m5.93359.92188l.40234 1.16015m12.63282-4.29687l-4.35938 5.51172m17.0039-5.9297l-3.02343 6.34376m15.45703-6.6289l-1.25781 6.91405m14.85156-6.85156l-1.8164 6.78906m1.55078-5.80078l1.1953-.27734m10.98829-.79297l.98047 6.95703m-.83984-5.94531l.99218-.72266m14.41797.14063l-3.49219 6.09765m3.4922-6.09765l2.45312.07422m11.5078.40234l-4.78515 5.14453m4.78516-5.14453l2.3711.63281m10.45312-1.01562l-3.80078 5.91015m3.80078-5.91015l2.44531.19922m11.67578.51562l-5.41406 4.47656m5.41406-4.47656l2.26953.9375m10.9336-1.0664L314.5 442.75m5.1914-4.73438l2.3125.82422m11.25391-.51172l-5.69531 4.11329m5.69531-4.11328l2.20313 1.08203m10.90234-1.34766l-5.27734 4.64063m5.27734-4.64063l2.29688.86719m9.65234-1.82031l-2.54297 6.55078m2.17188-5.59766l1.21875-.14844m12.9414-.57812l-3.49218 6.09765m3.49218-6.09765l2.45313.07422m12.6211 3.21875l-7.00782-.48829m5.98828.41407l.5 1.1211m13.70313-2.26954l-6.7461 1.95312m6.7461-1.95312l1.71093 1.76172m11.51563-2.02735l-6.57031 2.48438m6.5703-2.48438l1.84376 1.6172M427 439.4414l-6.76953 1.8828M427 439.44142l1.6914 1.78125m11.63282-1.75782l-6.78516 1.83985m6.78516-1.83985L442 441.25m11.71875-1.39063l-6.94531 1.04688m6.94531-1.04688l1.46484 1.96875m11.89063-1.45703l-7.02734.02735"/><g clip-path="url(#ae)"><path fill="none" stroke="#000" stroke-linecap="round" stroke-linejoin="round" stroke-miterlimit="10" stroke-width=".5" d="M467.07422 440.3711l1.16015 2.16015"/></g><g clip-path="url(#af)"><path fill="none" stroke="#000" stroke-linecap="round" stroke-linejoin="round" stroke-miterlimit="10" stroke-width=".5" d="M147.42578 427.85547l-6.85156-1.57422"/></g><path fill="none" stroke="#000" stroke-linecap="round" stroke-linejoin="round" stroke-miterlimit="10" stroke-width=".5" d="M147.42578 427.85547l.63672 2.3711m12.53125-1.89454l-6.5586-2.52734m5.60548 2.16015l.14843 1.21875m14.05078-.6875l-6.41797-2.85547m5.48438 2.44141l.08594 1.22266m14.36719-1.40625l-6.82813-1.65625m17.0625-2.67188l-.66406 6.9961m15.53906-6.45703l-3.78516 5.92187m3.23438-5.0625l1.22266.09766m8.99218-1.03907l3.51563 6.08204m-3.0039-5.19922l.64843-1.03907m13.1836-.23828l1.46093 6.8711m-1.25-5.8711l.9414-.78906m11.2422.1211l3.30077 6.20703m-2.8203-5.3047l.68359-1.01562m10.39453 4.07813l6.8125-1.72266m10.125-2.64453l-.4336 7.01172m15.28516-6.55078l-3.5039 6.08984m2.99218-5.20312l1.22656.03906m13.9922.55469l-6.29298 3.1289m5.3789-2.67187l.9961.71484m11.17188-2.94922l-2.16797 6.6836m2.16797-6.6836l2.41797-.42578m12.41015 1.40235l-5.19531 4.73046m5.19531-4.73047l2.3125.82422m11.34375-.3828l-5.875 3.85155m5.875-3.85156l2.15235 1.17969m11.46875-.60938l-6.48438 2.70703m5.53906-2.3125l.94922.77735m11.85938-2.83985l-3.58203 6.04297m3.05859-5.16406l1.22656.0586m13.6836.04687l-5.72657 4.07422m5.72657-4.07422l2.1953 1.09766m11.71485.33203l-6.91797 1.21875m6.91797-1.21875l1.51172 1.9336m-2.51562-1.75782l.7539.96484m13.52344-1.34765l-6.83594 1.6289m6.83594-1.6289l1.6211 1.84375m-2.61329-1.60547l.8086.92187m13.32421-1.69922l-6.48437 2.71094m6.48437-2.71094l1.89844 1.55079m-2.84375-1.15625l1.89844 1.55078m12.29297-2.09766l-6.34766 3.01172m6.34766-3.01172l1.96875 1.46484M439.18359 426l1.96875 1.46484m12.52735-1.14843l-6.86328 1.5039m6.86328-1.5039l1.58984 1.86718m11.76953-1.60937l-6.95703.98828"/><g clip-path="url(#ag)"><path fill="none" stroke="#000" stroke-linecap="round" stroke-linejoin="round" stroke-miterlimit="10" stroke-width=".5" d="M467.03906 426.57422l1.44531 1.98047"/></g><g clip-path="url(#ah)"><path fill="none" stroke="#000" stroke-linecap="round" stroke-linejoin="round" stroke-miterlimit="10" stroke-width=".5" d="M147.5 414.07813l-7-.64844"/></g><path fill="none" stroke="#000" stroke-linecap="round" stroke-linejoin="round" stroke-miterlimit="10" stroke-width=".5" d="M146.48047 413.98438l.47266 1.1328m13.86328-1.08202l-7.00391-.56641m5.98438.48438l.48828 1.1289m13.72656-2.28125l-6.76172 1.90625m5.77734-1.6289l.84766.88671m12.39063-2.85156l-4.64063 5.28125m3.96484-4.51172l1.19532.28125m12.95312-.90234l-4.95312 4.98437m4.23047-4.26172l1.17578.35547m11.52734-1.90625l-2.28906 6.64063m15.66797-6.6211l-2.41407 6.60157m2.0625-5.64063l1.21485-.16797m12.04687-.91406l-1.60156 6.84375m1.36719-5.84766l1.1875-.3125m10.26562-.52734l2.58594 6.53125m-2.20703-5.58203l.79297-.9336m10.03906 2.35548l6.79688 1.78906m9.57421-4.39063l.6875 6.99219m15.94532-5.36719l-5.94922 3.74219m5.08203-3.19922l1.0664.61328m13.08204-1.20312l-5.88672 3.83594m5.03125-3.27735l1.07422.59375m13.48828-.34765l-6.66797 2.22265m6.66797-2.22265l1.77734 1.6914m11.63281-1.33984l-6.85937 1.52344m5.86328-1.30079l.79687.9297m13.59766-.35938l-7.02734-.06641m6.00781.0586l.5625 1.08984m13.75781-1.45703l-6.9961.6875m6.9961-.6875l1.35938 2.04297m11.73828-2.95704l-6.5625 2.51563m6.5625-2.51563l1.85156 1.60938m11.0664-2.36328l-5.76562 4.02343m5.76563-4.02343l2.1836 1.11718m-3.02345-.53125l1.08985.5586m13.45703-.40625l-6.55078 2.54687m6.55078-2.54687l1.85937 1.60156m-2.8125-1.23047l1.85938 1.60156m12.32031-2.17968l-6.375 2.96093m6.375-2.96093l1.95703 1.48047m-2.88281-1.05079l.97656.7422m13.51563-.40626l-6.8789 1.42969m6.8789-1.42969l1.57031 1.88672m-2.57031-1.67969l.78515.94532m13.44532-1.48438l-6.70704 2.09375m6.70704-2.09375l1.74609 1.72266m-2.72266-1.41797l.875.86328m13.20703-1.6914l-6.28515 3.14062m6.28515-3.14063l1.9961 1.42188m-2.91016-.96485l.9961.71094m12.90234-1.70312l-5.625 4.21094"/><g clip-path="url(#ai)"><path fill="none" stroke="#000" stroke-linecap="round" stroke-linejoin="round" stroke-miterlimit="10" stroke-width=".5" d="M466.375 411.64844l2.21875 1.04297"/></g><path fill="none" stroke="#000" stroke-linecap="round" stroke-linejoin="round" stroke-miterlimit="10" stroke-width=".5" d="M465.55469 412.26172l1.11328.51953"/><g clip-path="url(#aj)"><path fill="none" stroke="#000" stroke-linecap="round" stroke-linejoin="round" stroke-miterlimit="10" stroke-width=".5" d="M147.46094 399.83594l-6.92188 1.20703"/></g><path fill="none" stroke="#000" stroke-linecap="round" stroke-linejoin="round" stroke-miterlimit="10" stroke-width=".5" d="M147.46094 399.83594l1.50781 1.9336m10.72266-3.91798l-4.75391 5.17188M159 398.60547l1.1875.3086m11.82031-1.70704l-2.7539 6.46485m15.96875-6.50782l-2.5547 6.54688m2.1836-5.59375l1.21485-.14453m10.8203 5.96093l.7461-6.98828m13.3086 0l-.73438 6.98828m16.5625-5.5078l-5.75781 4.02733m4.92187-3.4414l1.08985.5586m13.28906-.76954l-6.21484 3.27735m6.21484-3.27735l2.03125 1.3789m11.36328-1.22656l-6.3711 2.96875m6.3711-2.96875l1.95703 1.48047m11.46485-1.21875l-6.58594 2.44532m5.6289-2.08985l.91797.8164m11.08203.05079l-.01953-.19922-.05859-.1914-.09375-.17579-.45703-.3789-.1914-.05469-.19923-.02344-.19922.02344-.1953.05469-.45704.3789-.09375.17579-.0586.1914-.01952.19922.01953.19922.0586.1914.09374.1797.45703.375.19532.05859.19921.01953.19922-.01953.1914-.0586.45704-.375.09375-.17969.0586-.1914.01953-.19922m13.58593-3.26563l-2.58203 6.53516m17.40625-5.38672l-5.60156 4.23828m4.78516-3.625l1.11328.51954m13.67187.33984l-6.91015 1.28906m5.90234-1.10156l.76562.96094m13.4961-1.41407l-6.78906 1.82032m6.78906-1.82032l1.67187 1.79297m11.7539-.64453l-7.01171-.47265m5.99219.40234l.5039 1.1211m13.5547.10156l-6.45704-2.78125m5.51563 2.375l.10156 1.22265m14.4336-2.02734l-7.01563-.35938m5.99609.3086l.51953 1.10937m13.3711-2.95703l-6.125 3.4414m6.125-3.4414l2.0664 1.32422m-2.95703-.82422l1.03125.66406m13.47656-.44922l-6.73047 2.00782m6.73047-2.00782l1.72657 1.7461m-2.70313-1.45313l.85938.875m13.42187-1.19922l-6.71094 2.07422m6.71094-2.07422l1.74219 1.72657m-2.71875-1.42579l.8711.86329m13.38671-1.27344l-6.64453 2.28906m6.64453-2.28906l1.79688 1.67187m-2.76172-1.33984l.89453.83984m13.34375-1.28906l-6.5586 2.52735m6.5586-2.52735l1.85156 1.60547m11.60156-1.15234l-6.83593 1.62109m6.83593-1.6211l1.6211 1.83985m-2.61328-1.60547l.80859.92188m13.32031-1.70313l-6.48047 2.71485"/><g clip-path="url(#ak)"><path fill="none" stroke="#000" stroke-linecap="round" stroke-linejoin="round" stroke-miterlimit="10" stroke-width=".5" d="M466.80078 399.08203l1.90235 1.55078"/></g><path fill="none" stroke="#000" stroke-linecap="round" stroke-linejoin="round" stroke-miterlimit="10" stroke-width=".5" d="M465.85938 399.47656l.94921.77735"/><g clip-path="url(#al)"><path fill="none" stroke="#000" stroke-linecap="round" stroke-linejoin="round" stroke-miterlimit="10" stroke-width=".5" d="M147.40234 386.2539l-6.80468 1.73829"/></g><path fill="none" stroke="#000" stroke-linecap="round" stroke-linejoin="round" stroke-miterlimit="10" stroke-width=".5" d="M146.41406 386.50781l.82422.90625m12.88672-2.39844l-5.6211 4.21485m5.6211-4.21485l2.22266 1.04297m11.01562-1.14453l-5.46484 4.41797m5.46484-4.41797l2.25781.96094m11.53125-.1914l-6.41406 2.8789m5.48047-2.45703l.96875.75m11.23047 3.58594l-2.3164-6.63672m1.98046 5.67187l-.83203.89844m16.67578-2.1914l-6.69922-2.1211m6.69922 2.1211l.4414 2.41406m12.89454-2.48829l-6.74219-1.97265m5.76172 1.6875l.2461 1.19922m13.96874-3.1289l-6.58203 2.45702m5.625-2.09765l.91797.8125m13.33984-1.21094l-6.55078 2.53515m6.55078-2.53515l1.85547 1.60156m11.64453-.92969l-6.92187 1.19532m6.92188-1.19532l1.5039 1.9375m11.83203-1.80859l-6.96484.9336m6.96484-.9336l1.42969 1.99219m11.91016-1.71094l-7.01563.375m5.9961-.32031l.6328 1.05078m13.59766-1.79688L300.37891 388m5.8125-1.5l.82812.90625m13.23438-1.82422l-6.31641 3.08203m5.39844-2.63281l.99219.72266m13.58593.08593l-7.0039.56641m5.98437-.48438l.66016 1.03516m13.66015-.40625l-6.97656-.85547m5.96094.73047l.4375 1.14844m13.88281-.96094l-6.95703-.98047m6.95703.98047l.83985 2.3086m12.51171-2.84375l-7.02734.08984m7.02734-.08985l1.17579 2.15235m12.09375-2.66406l-6.9375 1.11328m6.9375-1.11328l1.48046 1.95703m11.70704-2.48438l-6.6836 2.16797m6.6836-2.16797l1.76562 1.70703m-2.73828-1.39062l.88281.85156m13.19922-1.66406l-6.27344 3.16406m6.27344-3.16406l2.0039 1.41406M412.52735 386l1 .71094m13.0625-1.46094l-5.9453 3.7461m5.9453-3.7461l2.12891 1.22266m-2.99219-.67579l1.0625.60938m12.98438-1.35156l-5.6836 4.13672m5.6836-4.13672l2.20312 1.07422m11.36328-.67579l-6.18359 3.33985m6.1836-3.33985l2.04296 1.35938m11.5039-.82422l-6.65233 2.26953"/><g clip-path="url(#am)"><path fill="none" stroke="#000" stroke-linecap="round" stroke-linejoin="round" stroke-miterlimit="10" stroke-width=".5" d="M466.88672 385.98828l1.78906 1.67969"/></g><g clip-path="url(#an)"><path fill="none" stroke="#000" stroke-linecap="round" stroke-linejoin="round" stroke-miterlimit="10" stroke-width=".5" d="M145.02344 373.8086l-.01953-.19923-.0586-.1914-.09375-.17578-.46094-.3789-.1914-.0586-.19922-.01953-.19922.01953-.1914.0586-.46094.3789-.09375.17578-.0586.1914-.01953.19922.01953.19922.0586.1914.09375.17579.46094.3789.1914.0586.19922.01953.19922-.01953.1914-.0586.46094-.3789.09375-.17578.0586-.1914.01953-.19923"/></g><path fill="none" stroke="#000" stroke-linecap="round" stroke-linejoin="round" stroke-miterlimit="10" stroke-width=".5" d="M157.09766 370.30078l.43359 7.01563m16.1875-5.1836l-6.17969 3.34766m5.28125-2.85938l1.02344.6797m13.4961-.39845l-6.78907 1.8125m5.80078-1.54687l.83594.89844m13.58203-.38672l-7.01953.25781m6-.21875l.61328 1.0586m13.61719-.10938l-6.8125-1.71875m5.82422 1.46875l.29297 1.1914m14.03515-2.5664l-6.85937 1.53125m5.85937-1.3086l.80078.9336m13.36328-1.64844l-6.55859 2.51563m5.60547-2.14844l.92578.80469m12.9961-1.84766l-5.8672 3.86719m5.8672-3.86719l2.15625 1.17188M267 372.28125l-6.32813 3.05469M267 372.28125l1.98047 1.44922m11.45703-1.16406l-6.57422 2.48437m6.57422-2.48437l1.84375 1.61718m11.6836-.6875l-7 .625m5.98046-.53515l.67188 1.02734m13.66015-1.15625l-6.99218.70313m5.97265-.60157l.6836 1.01954m13.66796-.84766l-7.02734.15625m6.0039-.13281l.60157 1.0703m13.72656-1.28905l-7.00781.54296m5.98828-.46093l.65625 1.03515m13.6836-1.03125l-7.01563.375m7.01562-.375l1.26563 2.10547m12.03125-1.51172l-6.98047-.8125m6.98047.8125l.89453 2.28516m12.41797-2.26563l-6.97656-.85156m6.97656.85156l.8789 2.28907m12.25782-3.89453l-6.61719 2.35937m6.61719-2.35937l1.8125 1.65234m11.38281-1.94922l-6.3789 2.95313m6.3789-2.95313l1.95313 1.48438m11.13671-1.89454l-5.92578 3.77344m5.92578-3.77344l2.13282 1.20704m10.96484-1.51172l-5.4961 4.3789m5.4961-4.3789l2.2539.97656m10.62891-1.42969l-4.6289 5.28906m4.6289-5.28906l2.38672.5586m10.8711-.60547L447.98828 376.5m4.51563-5.38281l2.39843.50781m10.71094-.66797l-4.10547 5.70313"/><g clip-path="url(#ao)"><path fill="none" stroke="#000" stroke-linecap="round" stroke-linejoin="round" stroke-miterlimit="10" stroke-width=".5" d="M465.61328 370.95703l2.4336.32813"/></g><g clip-path="url(#ap)"><path fill="none" stroke="#000" stroke-linecap="round" stroke-linejoin="round" stroke-miterlimit="10" stroke-width=".5" d="M141.91406 363.32031l4.17188-5.65625"/></g><path fill="none" stroke="#000" stroke-linecap="round" stroke-linejoin="round" stroke-miterlimit="10" stroke-width=".5" d="M153.8789 361.22656l6.8711-1.46875m-5.8711 1.25781l-.78906-.9414m19.82032-.83985l-6.5586 2.51954m19.57031-3.125l-5.95312 3.73046m5.08594-3.1875l1.0664.61329m13.64844.83984l-7.01953-.26563m20.23047 1l-6.8125-1.73046m5.82031 1.47656l.29297 1.1914m13.53125-3.7578l-5.84375 3.90624m4.99219-3.33594l1.08203.58204m12.83203-1.48438l-5.33984 4.57031m4.5625-3.90234l1.14062.44531m11.70703-2.03906l-2.84765 6.42578m2.43359-5.49219l1.22266-.08593m13.53515-.14844l-4.90625 5.02734m4.1914-4.29687l1.1797.34375m12.92187-1.0039l-5.05078 4.8828m4.3164-4.17187l1.16798.3789m13.11328-.82421l-5.51563 4.35546m4.71485-3.72265l1.12109.49219m13.72265.59375l-6.96875.91796m5.95313-.78515l.71484.9961m12.31641 2.07812l-4.3711-5.5m3.73438 4.69922l-.48828 1.125m14.78125-.63282l-5.05469-4.8828m4.32031 4.17187l-.33984 1.17968m14.8711-1.09375l-6.01563-3.6289m5.14063 3.10156l-.06641 1.22266m14.54687-1.30079l-6.59765-2.42187m5.63672 2.07031l.16796 1.21485m14.3125-1.78516l-7.0039-.57813m5.98437.4961l.48438 1.125m13.69922-2.38672l-6.70313 2.10938m5.72656-1.80079l.875.85938m13.39454-1.23047l-6.66016 2.23828m6.66016-2.23828l1.78125 1.6875m11.30078-2.22656l-6.19531 3.3164m6.1953-3.3164l2.03907 1.36328m10.84766-1.99219l-5.33985 4.57031m5.33985-4.5703l2.28515.89843m10.5039-1.39844l-4.28515 5.57031m4.28516-5.5703l2.41797.40624m10.71484-.53515l-3.92187 5.83203m3.92187-5.83204l2.4414.25391m9.91016-.70703l-1.99218 6.73828m1.69921-5.75781l1.20313-.2461"/><g clip-path="url(#aq)"><path fill="none" stroke="#000" stroke-linecap="round" stroke-linejoin="round" stroke-miterlimit="10" stroke-width=".5" d="M140.50781 347.58203l6.98438-.80469"/></g><path fill="none" stroke="#000" stroke-linecap="round" stroke-linejoin="round" stroke-miterlimit="10" stroke-width=".5" d="M153.98047 348.28516l6.66797-2.21094m-5.69922 1.88672l-.88672-.84766m14.16406 2.6289l4.80469-5.1289m-4.10547 4.38281l-1.1836-.3203m15.22266 1.875l1.96094-6.7461m8.83203 3.11719l7.00781.51171m6.33204.23047l6.95703-.97265m-5.94531.83203l-.72266-.99219m13.0039.35156l7 .58985m-5.98437-.50391l-.48047-1.125m13.47656-.78516l5.60547 4.23829m-4.78906-3.6211l.19531-1.21094m12.39844.47657l5.41797 4.47265m-5.41797-4.47265l.49219-2.40625m12.85937 2.35937l5.34375 4.5664m-5.34375-4.5664l.53125-2.39453m13.63281 1.67578l3.64454 6.0039m-3.11328-5.1328l.625-1.05079m15.61718.07422l-3.27344 6.21875m2.79688-5.3164l1.22656-.00391m14.41016 1.72266l-6.96094.97265m5.94922-.83203l.71875.9961m9.3789 2.78125l1.4961-6.86329m-1.27734 5.8672l-1.1836.33202m14.02735.60156l2-6.73828m-1.70704 5.75782l-1.20312.24609m14.17969.71875l2.09375-6.70703m-1.78906 5.73047l-1.20704.23047m16.6797.60937l-2.82813-6.4336m2.82812 6.4336l-1.51953 1.92578m15.40234-2.24219l-3.96484-5.80078m3.38672 4.95704l-.57031 1.08593m15.2539-.98437l-5.54687-4.3164m4.73828 3.6875l-.21094 1.21093m14.9961-2.0039l-6.8711-1.47266m5.8711 1.2578l.33593 1.1797m13.46875-3.64844l-5.84765 3.89844m4.99609-3.33204l1.07813.58204m11.33203-2.51563l-2.33985 6.6289m2-5.66406l1.21485-.17968m12.90234-.58203l-3.26172 6.22265m3.26172-6.22265l2.45313-.01563m11.5703.5039l-4.67968 5.2461m4-4.48047l1.1914.28906m13.41798-.33203l-5.91016 3.80079"/><g clip-path="url(#ar)"><path fill="none" stroke="#000" stroke-linecap="round" stroke-linejoin="round" stroke-miterlimit="10" stroke-width=".5" d="M466.51563 345.27734l2.14062 1.19922"/></g><g clip-path="url(#as)"><path fill="none" stroke="#000" stroke-linecap="round" stroke-linejoin="round" stroke-miterlimit="10" stroke-width=".5" d="M142.39453 330.73828l3.21094 6.25"/></g><path fill="none" stroke="#000" stroke-linecap="round" stroke-linejoin="round" stroke-miterlimit="10" stroke-width=".5" d="M153.875 334.58203l6.8789-1.4375m-5.8789 1.23047l-.78516-.94531m13.26172 1.69922l6.55469-2.53125m-5.60156 2.16406l-.92578-.80469m13.05859.10938l7.01563-.40625m-5.9961.34765l-.63672-1.05078m14.40235-1.95312l4.07812 5.71875m7.8086-3.4375l6.92968 1.15625m13.23828-1.51563l-6.77343 1.875m19.3125-3.28906l-5.22266 4.70312m15.44922-5.83203l.95312 6.96094M262.5 330.61328l2.67188 6.5m-2.28516-5.55469l.78515-.9453m11.03907.71874l4.8789 5.0586m-4.16797-4.32032l.37891-1.16797m12.28516.37891l4.76172 5.16406m-4.07032-4.41406l.40625-1.15625m11.25782 1.89844l6.67968 2.17578m-5.71093-1.85547l-.21094-1.21094m15.99219-1.53125L317 337.375m.16406-6.0039l1.09766-.54688m9.39062 5.21484l5.51563-4.35156m-5.51563 4.35156l-2.24609-.98828m16.17188 1.59375l4.29296-5.5625m-3.66796 4.7539l-1.20704-.20702m15.47266 1.69921l1.14844-6.92968m-1.14844 6.92969l-2.32812.78515m17.14062-.85937l-1.84766-6.78125m1.84766 6.78125l-1.78906 1.67968m15.32812-1.75l-2.29687-6.64062m2.29687 6.64062l-1.67187 1.79688m16.30078-2.60938l-4.92578-5.01562m4.20703 4.28515l-.36719 1.16797m15.23828-1.73437l-6.59765-2.42188m5.63672 2.06641l.16796 1.21875m14.21875-2.91797l-6.8203 1.6875m5.82812-1.4414l.8203.91015m13.09767-2.10156l-6.04297 3.57812m6.04297-3.57812l2.09765 1.27734m11.14453-1.39453l-5.89843 3.8125m5.89843-3.8125l2.14453 1.1914m11.57422-.34374l-6.70312 2.11719"/><g clip-path="url(#at)"><path fill="none" stroke="#000" stroke-linecap="round" stroke-linejoin="round" stroke-miterlimit="10" stroke-width=".5" d="M466.91406 332.80469l1.75 1.71875"/></g><g clip-path="url(#au)"><path fill="none" stroke="#000" stroke-linecap="round" stroke-linejoin="round" stroke-miterlimit="10" stroke-width=".5" d="M142.67188 317.29688l2.65625 6.5039"/></g><g clip-path="url(#av)"><path fill="none" stroke="#000" stroke-linecap="round" stroke-linejoin="round" stroke-miterlimit="10" stroke-width=".5" d="M143.0586 318.24219l.78515-.9414"/></g><path fill="none" stroke="#000" stroke-linecap="round" stroke-linejoin="round" stroke-miterlimit="10" stroke-width=".5" d="M158.33594 320.54688l-.01953-.19922-.0586-.19141-.09375-.17578-.45703-.3789-.1914-.0547-.19922-.01953-.19922.01954-.19531.05468-.45704.3789-.09375.17579-.05859.1914-.01953.19923.01953.19921.0586.19141.09374.17969.45703.375.19532.0586.19922.01952.19922-.01953.1914-.0586.45703-.375.09375-.17968.0586-.1914.01953-.19923m15.00781 2.23438l-5.42578-4.46484m4.63672 3.8125l-.24219 1.20312m14.52344-.78515l-5.78125-3.9961m19.59375 2.92578l-6.77735-1.85937m5.79297 1.58984l.26953 1.19531m13.97657-.75l-6.67188-2.20703m5.70313 1.88672l.20703 1.20703m14.25-2.16015l-7.01563.33984m7.01563-.33984l1.25781 2.10937m11.88281-3.05078l-6.66797 2.22266m5.69922-1.89844l.88672.84375m12.48438-2.60156l-4.84375 5.08984m4.14062-4.35156l1.17969.33203m11.3164-1.92188l-1.79687 6.79297m1.79688-6.79297l2.38671-.5625m9.98047.44532l.09766 7.02734m-.09766-7.02734l2.15235-1.1836m10.24218 1.32031l1.9375 6.75391m-1.65625-5.77344l.88282-.85156m11.66406.05078l2.91406 6.39453m-2.48828-5.46484l.7461-.97266m13.8203-.26562l-.4414 7.01172m.375-5.99219l1.11719-.50781m8.82422 1.58984l6.4414 2.8086m-5.5039-2.40235l-.09766-1.22265m13.16016 4.65234l5.0703-4.86328m-5.0703 4.86328l-2.33204-.76563m15.69141.8086l4.98047-4.95313m-4.98047 4.95313l-2.34766-.72266m14.92188-.36719l6.46094-2.76953m-6.46094 2.76953l-1.91016-1.53906m18.40235 3.66797l.10937-7.02734m-.10937 7.02734l-2.1875 1.11719m16.6836-1.30469l-2.25392-6.65625m2.25391 6.65625l-1.67969 1.78516m16.35157-2.62891l-4.96875-4.96875m4.24609 4.2461l-.35938 1.17577m15.22657-1.76562l-6.625-2.34375m5.66015 2.0039l.1836 1.21094m14.17578-2.94921l-6.78516 1.8164m5.80078-1.55078l.83594.89453m13.47266-1.13672l-6.80078 1.76953m6.80078-1.76953l1.66015 1.8086m11.63282-1.87891l-6.76172 1.91016"/><g clip-path="url(#aw)"><path fill="none" stroke="#000" stroke-linecap="round" stroke-linejoin="round" stroke-miterlimit="10" stroke-width=".5" d="M466.9414 319.59375l1.69923 1.77344"/></g><path fill="none" stroke="#000" stroke-linecap="round" stroke-linejoin="round" stroke-miterlimit="10" stroke-width=".5" d="M465.96094 319.8711l.84765.88671"/><path fill="#00f" fill-rule="evenodd" d="M419.3086 427.70313h8.61718v-10.14454h-8.61719v10.14454"/><path fill="azure" fill-rule="evenodd" d="M421.14063 419.39063h.83203v2.82421h3.28515v-2.82421h.83594v6.48046h-.83594v-2.91796h-3.28515v2.91796h-.83204v-6.48046"/><path fill="#ff3030" fill-rule="evenodd" d="M380.05469 418.82813H387.75v-10.14844h-7.69531v10.14844"/><path fill="azure" fill-rule="evenodd" d="M381.89063 410.51172h.83203v5.74219h3.1953v.73828h-4.02733v-6.48047"/><path fill="#ff3030" fill-rule="evenodd" d="M295.72656 414.38672h7.69531v-10.14453h-7.6953v10.14453"/><path fill="azure" fill-rule="evenodd" d="M297.5586 406.07422h.83593v5.74219h3.1914v.73828h-4.02734v-6.48047"/><path fill="#00f" fill-rule="evenodd" d="M370.48438 396.63281h8.62109v-10.14453h-8.6211v10.14453"/><path fill="azure" fill-rule="evenodd" d="M372.3164 388.32031h.83594v2.82422h3.28516v-2.82422h.83203v6.48047h-.83203v-2.91406h-3.28516v2.91406h-.83593v-6.48047"/><path fill="#ff3030" fill-rule="evenodd" d="M189.20703 383.32031h7.6914v-10.14844h-7.6914v10.14844"/><path fill="azure" fill-rule="evenodd" d="M191.03906 375.00781h.83594v5.73828h3.1914v.7422h-4.02734v-6.48048"/><path fill="#ffffe0" fill-rule="evenodd" d="M426.07422 461.32813h22.17969v-10.19141h-22.1797v10.1914"/><path fill-rule="evenodd" d="M429.57031 452.96875h.51172v6.29688h-.78906v-4.4922h-1.38672v-.55468l.5586-.0625.2539-.05469.22656-.08984.20703-.14063.17188-.21093.14062-.29297.10547-.39844m4.8164 0l.22657.01953.22266.05469.20703.08984.19531.1211.1836.15234.17187.17578.30078.41797.2461.49219.17968.54687.10938.57813.03906.59375-.03906.59375-.10938.58203-.17969.55469-.24609.5039-.30078.42578-.17188.1797-.18359.15233-.19531.125-.20703.08985-.22266.0586-.22656.01952-.23047-.01953-.21875-.0586-.20703-.08983-.19922-.125-.1836-.15235-.17187-.17969-.30078-.42578-.24219-.5039-.17969-.5547-.11328-.58202-.03515-.59375h.83203l.02734.5625.08203.5039.125.44532.16407.375.1914.30078.21094.21875.22266.13672.22656.04687.22656-.04687.22266-.13672.21094-.21875.1875-.30078.16406-.375.125-.44532.08203-.5039.03125-.5625-.03125-.5625-.08203-.5-.125-.4336-.16406-.36718-.1875-.29297-.21094-.21485-.22266-.1289-.22656-.04688-.22656.04688-.22266.1289-.21094.21485-.1914.29297-.16407.36718-.125.4336-.08203.5-.02734.5625h-.83203l.03515-.59375.11329-.57813.17968-.54687L432.875 454l.30078-.41797.17188-.17578.18359-.15234.19922-.1211.20703-.08984.21875-.05469.23047-.01953m4.95312 0l.22657.01953.21875.05469.21093.08984.19532.1211.18359.15234.17188.17578.30078.41797.24218.49219.1836.54687.10937.57813.03906.59375-.03906.59375-.10937.58203-.1836.55469-.24218.5039-.30079.42578-.17187.1797-.1836.15233-.1953.125-.21094.08985-.21875.0586-.22657.01952-.23046-.01953-.21875-.0586-.20704-.08983-.19921-.125-.1836-.15235-.17187-.17969-.30079-.42578-.24218-.5039-.17969-.5547-.11328-.58202-.03906-.59375h.83593l.02735.5625.08203.5039.125.44532.16406.375.1914.30078.21094.21875.22266.13672.22656.04687.22657-.04687.22265-.13672.21094-.21875.1875-.30078.16406-.375.125-.44532.08203-.5039.03125-.5625-.03125-.5625-.08203-.5-.125-.4336-.16406-.36718-.1875-.29297-.21094-.21485-.22265-.1289-.22657-.04688-.22656.04688-.22265.1289-.21094.21485-.1914.29297-.16407.36718-.125.4336-.08203.5-.02735.5625h-.83593l.03906-.59375.11328-.57813.17969-.54687.24219-.49219.30078-.41797.17187-.17578.1836-.15234.19921-.1211.20704-.08984.21875-.05469.23046-.01953m4.94922 0l.39063.02734.35547.08594.32421.13281.28125.1875.22657.23829.17578.28515.10937.33203.03516.3789-.01953.27345-.0586.23437-.08593.20313-.11328.16796-.12891.14454-.14063.12109-.28515.19922.23047.11719.21094.14453.17968.17187.15235.19531.125.21485.08984.22656.0586.2461.01952.2539-.03515.3125-.10547.32422-.17188.32422-.23828.3086-.30859.26952-.3711.21485-.21484.07812-.22656.0625-.2461.03906-.2578.01172-.26173-.01171-.24218-.03907-.22266-.0625-.20703-.07812-.35547-.21485-.29297-.26953-.22265-.3086-.15625-.32421-.09375-.32422-.03125-.3125h.83593l.02735.2539.07812.23438.1211.21485.16015.18359.1914.15234.22267.11329.23828.07421.2539.02344.25781-.02344.23829-.07421.22265-.11329.1914-.15234.16017-.1836.12109-.21484.07812-.23437.02735-.2539-.02735-.25-.07812-.23829-.1211-.21094-.16015-.1836-.1914-.15233-.22266-.1172-.23829-.0703-.2578-.02735-.25391.02735-.23829.0703-.22265.1172-.1914.15234-.16016.1836-.1211.21093-.07812.23828-.02735.25h-.83593l.01953-.2539.0586-.23829.08983-.22265.1211-.21094.15625-.1875.17969-.17578.21093-.15235.23047-.1289-.28515-.19922-.14063-.1211-.1289-.14452-.11329-.16797-.08593-.20313-.0586-.23437-.01953-.27344h.78516l.02344.21484.0664.1914.10156.16407.14063.14063.16406.11328.1875.08203.20703.04687.21875.01954.22266-.01954.20703-.04687.1875-.08203.16406-.11328.14063-.14063.10156-.16406.0664-.1914.02344-.21485-.02343-.21485-.06641-.1914-.10156-.16797-.14063-.13672-.16406-.11328-.1875-.08203-.20703-.05078-.22266-.01563-.21875.01563-.20703.05078-.1875.08203-.16406.11328-.14063.13672-.10156.16797-.0664.1914-.02344.21485h-.78516l.03516-.3789.10937-.33204.17578-.28515.22657-.23829.28125-.1875.32421-.1328.35547-.08595.38672-.02734"/><path fill="#ffffe0" fill-rule="evenodd" d="M337.30469 335.4414h22.17969V325.25h-22.1797v10.1914"/><path fill-rule="evenodd" d="M340.80469 327.08203h.50781v6.29688h-.78516v-4.4922h-1.39062v-.55468l.5625-.0664.25-.05079.23047-.08984.20312-.14453.17578-.20703.14063-.29688.10547-.39453m4.8125 0l.23047.01953.21875.05469.20703.08984.19922.1211.18359.14844.17188.17578.30078.42187.24218.49219.1797.54687.11327.57813.03906.58984-.03906.59375-.11328.58594-.17969.55469-.24218.5-.30079.42969-.17187.17968-.1836.15235-.19921.125-.20703.08984-.21875.0586-.23047.01952-.22656-.01953-.21875-.05859-.21094-.08984-.19531-.125-.1836-.15235-.17187-.17969-.30079-.42968-.24218-.5-.1836-.55469-.10937-.58594-.03906-.59375h.83203l.03125.5664.08203.50392.125.4414.16406.375.1875.30078.21094.22266.22265.13672.22657.04687.22656-.04687.22266-.13672.21093-.22266.19141-.30078.16406-.375.125-.4414.08203-.50391.02735-.5664-.02735-.5586-.08203-.5-.125-.4375-.16406-.36328-.1914-.29297-.21094-.21485-.22266-.1328-.22656-.04298-.22656.04297-.22266.13281-.21094.21485-.1875.29297-.16406.36328-.125.4375-.08203.5-.03125.5586h-.83203l.03906-.58985.10937-.57813.1836-.54687.24219-.49219.30078-.42187.17187-.17579.1836-.14843.1953-.1211.21094-.08984.21875-.05469.22657-.01953m5.09375 0h.50781v6.29688h-.78516v-4.4922h-1.39062v-.55468l.5625-.0664.25-.05079.23047-.08984.20312-.14453.17188-.20703.14453-.29688.10547-.39453m2.82422 2.17578h.78515l.01953-.3164.0586-.28516.10156-.2539.14063-.21485.17968-.17578.22266-.1289.26562-.07813.3086-.02735.23828.01954.22265.0625.20313.10156.17969.14062.14844.17188.11328.20703.0703.23437.02735.26563-.02344.26953-.0664.22266-.10938.1914-.15234.17188-.20313.16406-.24609.16406-.63281.39063-.53906.3125-.4375.3164-.34766.32422-.26172.33594-.1914.35156-.125.3711-.07032.39062-.01953.42188h4.21094v-.7422h-3.33203l.08203-.28515.11719-.23437.14843-.20313.1836-.17969.23437-.17187.27735-.17578.71484-.41797.41797-.20313.34375-.23046.28125-.25391.21875-.26563.16406-.27734.11328-.28515.0625-.28516.01953-.28125-.04296-.38281-.1172-.34766-.1914-.3086-.25-.26171-.30078-.21485-.34766-.15625-.3789-.09765-.40625-.03516-.4375.03125-.39453.10156-.35547.16407-.30469.23437-.25.30469-.1836.375-.11718.44531-.03906.51953"/><path fill="#ffffe0" fill-rule="evenodd" d="M190.83984 359.7461h22.1797v-10.19532h-22.1797v10.19531"/><path fill-rule="evenodd" d="M194.33984 351.38672h.50782v6.29297h-.78516v-4.48828h-1.39063v-.5547l.5625-.0664.25-.05469.23047-.08984.20313-.14062.17578-.21094.14063-.29297.10546-.39453m4.8125 0l.23047.01953.21875.05469.20703.08984.19532.1211.1875.14843.16797.17578.30468.41797.24219.4961.17969.54687.11328.57813.03516.58984-.03516.59375-.11328.58594-.17969.55078-.24219.5039-.30469.42579-.16796.17968-.1875.15625-.19532.1211-.20703.09375-.21875.05469-.23047.01953-.23047-.01954-.21875-.05468-.20703-.09375-.1953-.1211-.1836-.15625-.17188-.17968-.30078-.42579-.2461-.5039-.17968-.55078-.10938-.58594-.03906-.59375h.83203l.03125.5625.08203.50781.125.4414.16016.375.1914.30079.21095.22266.22265.13671.22656.04688.22657-.04688.22265-.13671.21094-.22266.1914-.30078.16016-.375.1289-.4414.08204-.50782.02734-.5625-.02734-.5625-.08203-.5-.1289-.4336-.16016-.36718-.19141-.29297-.21094-.21094-.22265-.13281-.22657-.04688-.22656.04688-.22266.13281-.21093.21094-.1914.29297-.16017.36719-.125.43359-.08203.5-.03125.5625h-.83203l.03906-.58984.10938-.57813.17969-.54687.2461-.4961.30077-.41797.17188-.17578.1836-.14844.1953-.12109.20703-.08984.21875-.05469.23047-.01953m5.09375 0h.50782v6.29297h-.78907v-4.48828h-1.38672v-.5547l.5586-.0664.2539-.05469.23047-.08984.20313-.14062.17187-.21094.14063-.29297.10937-.39453m2.82032 2.17578h.78906l.01953-.3164.0586-.28907.09765-.25.14063-.21484.18359-.17578.22266-.12891.26562-.08203.3086-.02735.23437.02344.22656.0625.20313.10156.17968.13672.14844.17579.11328.20312.07031.23828.02735.26563-.02344.26562-.0664.22656-.10938.19141-.15625.17188-.19922.16015-.2461.16797-.63671.38672-.53516.3164-.4375.31641-.34765.32422-.26563.33594-.1875.35156-.125.36719-.07031.39453-.01953.41797h4.21094v-.73828h-3.33204l.08203-.28516.11329-.23828.14843-.19922.1875-.17969.23047-.17187.28125-.17578.71485-.41797.41406-.20703.34766-.23047.28125-.25.21875-.26563.16406-.28125.10937-.28125.0664-.28515.01954-.28125-.04297-.38282-.1211-.34765-.1875-.3086-.25-.26171-.30468-.21485-.34375-.15625-.3789-.10156-.40626-.03125-.4375.03125-.39843.09765-.35547.16797-.30469.23438-.2461.30469-.1875.375-.11327.4453-.04297.51954"/><path fill="#ffffe0" fill-rule="evenodd" d="M195.27734 443.3789h22.1797v-10.1953h-22.1797v10.1953"/><path fill-rule="evenodd" d="M198.77734 435.01953h.50782v6.29297H198.5v-4.48828h-1.39063v-.55469l.5625-.0664.25-.0547.23047-.08984.20313-.14062.17578-.21094.14063-.29297.10546-.39453m4.8125 0l.23047.01953.21875.05469.20703.08984.19922.1211.1836.14844.17187.17578.30078.41796.24219.4961.17969.54687.11328.57813.03906.58984-.03906.59375-.11328.58594-.17969.55078-.24219.5039-.30078.42579-.17187.17969-.1836.15625-.19922.12109-.20703.09375-.21875.05469-.23047.01953-.22656-.01953-.21875-.05469-.21094-.09375-.1953-.1211-.1836-.15624-.17188-.1797-.30078-.42577-.24219-.5039-.18359-.55079-.10938-.58594-.03906-.59375h.83203l.03125.5625.08203.50781.125.44141.16407.375.1875.30078.21094.22266.22265.13672.22656.04687.22657-.04687.22265-.13672.21094-.22266.1914-.30078.16407-.375.125-.4414.08203-.50782.02734-.5625-.02734-.5625-.08203-.5-.125-.4336-.16406-.36718-.19141-.29297-.21094-.21094-.22265-.1328-.22657-.04688-.22656.04687-.22266.13281-.21093.21094-.1875.29297-.16406.36719-.125.4336-.08204.5-.03125.5625h-.83203l.03906-.58985.10938-.57813.1836-.54687.24218-.4961.30078-.41796.17188-.17579.1836-.14843.1953-.1211.21094-.08984.21875-.05469.22656-.01953m5.09375 0h.50782v6.29297h-.78516v-4.48828h-1.39063v-.55469l.5625-.0664.25-.0547.23047-.08984.20313-.14062.17187-.21094.14453-.29297.10547-.39453m2.82422 2.17578h.78516l.01953-.3164.0586-.28907.10156-.25.13672-.21484.18359-.17578.22266-.1289.26562-.08204.3086-.02734.23827.02344.22266.0625.20313.10156.17968.13672.14844.17578.11328.20312.07031.23828.02735.26172-.02344.26953-.0664.22657-.10938.1914-.15234.17188-.20313.16015-.2461.16797-.6328.38672-.53907.3125-.4375.32031-.34765.32422-.26172.33594-.1914.35156-.125.36719-.07032.39453-.01953.41797h4.21094v-.73828h-3.33204l.08203-.28516.1172-.23828.14452-.19922.1875-.1836.23047-.16796.28125-.17578.71485-.41797.41797-.20703.34375-.23047.28125-.25.21875-.26563.16406-.28125.11328-.28125.0625-.28515.01953-.28125-.04297-.38281-.11719-.34766-.1914-.3086-.25-.26171-.30078-.21485-.34766-.15625-.3789-.10156-.40626-.03125-.4375.03125-.39843.09766-.35157.16797-.30468.23437-.25.30469-.1836.375-.11719.44531-.03906.51953"/><path fill="#ffffe0" fill-rule="evenodd" d="M186.40234 476.29297h22.1797v-10.1914h-22.1797v10.1914"/><path fill-rule="evenodd" d="M189.90234 467.9336h.50782v6.29687h-.78516v-4.48828h-1.39063v-.5586l.5586-.0625.2539-.05468.23047-.08985.20313-.14062.17187-.21094.14453-.29297.10547-.39844m4.8125 0l.23047.01954.21875.05859.20703.08984.19532.11719.18359.15234.17188.17579.30468.41796.24219.4922.17969.54687.10937.58203.03906.58984-.03906.59375-.10937.58203-.17969.55469-.24219.5039-.30469.42579-.17187.17969-.1836.15234-.1953.125-.20704.09375-.21875.05469-.23047.01953-.23047-.01953-.21875-.0547-.20703-.09374-.1953-.125-.1875-.15235-.16798-.17968-.30469-.42578-.24218-.50391-.17969-.55469-.10938-.58203-.03906-.59375h.83203l.02735.5625.08203.50781.1289.44141.16016.375.1914.30078.21095.21875.22265.13672.22656.04688.22657-.04688.22265-.13672.21094-.21875.1914-.30078.16016-.375.1289-.4414.07813-.50782.03125-.5625-.03125-.5625-.07812-.5-.1289-.4336-.16016-.36718-.19141-.29297-.21094-.21484-.22265-.1289-.22657-.04688-.22656.04687-.22266.1289-.21093.21485-.1914.29297-.16017.36719-.1289.4336-.08203.5-.02735.5625h-.83203l.03906-.58985.10938-.58203.17969-.54688.24219-.49219.30468-.41796.16797-.17579.1875-.15234.19531-.11719.20703-.08984.21875-.0586.23047-.01953m5.08985 0h.51172v6.29688h-.78907v-4.48828h-1.38672v-.5586l.5586-.0625.2539-.05468.22657-.08985.20312-.14062.17578-.21094.14063-.29297.10547-.39844m2.82422 2.17579h.78906l.01953-.31641.0586-.28516.09765-.2539.14063-.21485.17968-.17187.22656-.1289.26172-.08204.3086-.02734.23828.02343.22266.0625.20703.10157.17968.13671.14844.17579.11328.20312.07031.23828.02344.26172-.01953.26953-.0664.22656-.10938.19141-.15625.17188-.19922.16015-.25.16797-.63281.38672-.53516.3125-.4375.3164-.34765.32423-.26563.33593-.1875.35156-.125.3711-.07031.39453-.01953.41797h4.21094v-.74219h-3.33204l.08203-.28125.11329-.23828.14843-.20313.1875-.17968.23047-.17188.27735-.17578.71875-.41406.41406-.20703.34766-.23047.28125-.25.21875-.26953.16406-.27735.10937-.28125.0664-.28515.01954-.28125-.04297-.38281-.1211-.35157-.1875-.30469-.25-.26562-.30468-.21094-.34375-.16015-.38281-.09766-.40625-.03516-.4336.03516-.39843.09766-.35547.16796-.30469.23438-.2461.30469-.1875.3711-.11718.44921-.03906.51563"/><path fill="#ffffe0" fill-rule="evenodd" d="M208.59375 332.61719h22.17969v-10.1914h-22.17969v10.1914"/><path fill-rule="evenodd" d="M212.09375 324.25781h.50781v6.29688h-.78515v-4.49219h-1.39063v-.55469l.5586-.0625.2539-.05469.23047-.08984.20313-.14062.17187-.21094.14453-.29297.10547-.39844m4.8125 0l.23047.01953.21875.0547.20703.08983.19531.1211.1836.15234.17187.17578.30469.41797.24219.49219.17968.54688.10938.57812.03906.59375-.03906.59375-.10938.58203-.17968.55469-.2422.5-.30468.42969-.17187.17968-.1836.15235-.19531.125-.20703.08984-.21875.0586-.23047.01953-.23047-.01954-.21875-.05859-.20703-.08984-.19531-.125-.1836-.15235-.17187-.17968-.30469-.4297-.24219-.5-.17968-.55468-.10938-.58203-.03906-.59375h.83203l.03125.5625.07813.5039.1289.44532.16016.375.1914.30078.21094.21875.22266.13672.22656.04687.22656-.04687.22266-.13672.21094-.21875.1914-.30078.16016-.375.1289-.44531.08204-.50391.02734-.5625-.02734-.5625-.08203-.5-.12891-.4375-.16016-.36328-.1914-.29297-.21094-.21484L217.1328 325l-.22656-.04688-.22656.04688-.22266.1289-.21094.21485-.1914.29297-.16016.36328-.1289.4375-.07813.5-.03125.5625h-.83203l.03906-.59375.10938-.57813.17968-.54687.2422-.49219.30468-.41797.17187-.17578.1836-.15234.19531-.1211.20703-.08984.21875-.05469.23047-.01953m5.08984 0h.51172v6.29688h-.78906v-4.49219h-1.38672v-.55469l.5586-.0625.2539-.05469.22656-.08984.20703-.14062.17188-.21094.14063-.29297.10546-.39844m6.8047 1.6211h-.78517l-.05078-.21094-.08203-.1875-.10937-.16016-.1289-.1289-.14845-.10547-.15625-.07422-.17187-.04297-.17188-.01563-.32812.03907-.28516.1211-.2461.1953-.20312.26954-.16015.33984-.11719.40234-.07031.46875-.02344.52344.1875-.20313.1875-.15625.1836-.125.1875-.08593.1875-.0625.1914-.03516.40234-.02344.3086.02735.32031.09375.3125.15625.29688.21875.2539.28515.19922.35157.07422.19921.05078.21875.03125.23438.0039.25-.78906.04688-.02734-.25782-.07422-.2539-.125-.23438-.16016-.21094-.1914-.17578-.22266-.13672-.23828-.08984-.2539-.03125-.25782.03125-.23828.08984-.21875.13672-.19531.17578-.16016.21094-.1211.23438-.07812.2539-.02734.25781.02734.25782.07813.25.1211.23437.16015.21094.19531.17969.21875.13672.23828.08593.25781.03125.25391-.03125.23828-.08593.22266-.13672.1914-.17969.16016-.21094.125-.23437.07422-.25.02734-.25781.78907-.04688-.03125.3711-.09375.37109-.15625.35937-.22266.32813-.28906.28125-.17188.1211-.1875.10155-.20703.08204-.22266.0625-.24218.03906-.25781.01172-.28516-.01563-.25781-.04687-.23828-.07813-.21875-.10547-.19141-.1289-.17578-.15625-.15235-.1797-.13672-.20312-.11718-.22265-.09766-.24219-.14844-.53516-.08593-.59375-.02344-.64062.03516-.74219.11718-.66406.1836-.57813.12109-.2539.13672-.23047.15234-.20703.17188-.1836.1875-.15234.19922-.13281.21875-.10156.23437-.07032.2461-.04687.26171-.01563.3672.03516.33202.09375.29688.15234.2539.19922.21094.24219.16797.27344.11328.30468.0625.32032"/></g></defs><use xlink:href="#ax"/></svg>