<svg xmlns="http://www.w3.org/2000/svg" role="img" xmlns:xlink="http://www.w3.org/1999/xlink" viewBox="142.45 309.95 326.84 171.84"><defs><clipPath id="a"><path d="M144 311.67188h324v168.65625H144zm0 0"/></clipPath><clipPath id="b"><path d="M144 479h4v1.32813h-4zm0 0"/></clipPath><clipPath id="c"><path d="M147 480h2v.32813h-2zm0 0"/></clipPath><clipPath id="d"><path d="M153 479h9v1.32813h-9zm0 0"/></clipPath><clipPath id="e"><path d="M160 480h3v.32813h-3zm0 0"/></clipPath><clipPath id="f"><path d="M159 480h2v.32813h-2zm0 0"/></clipPath><clipPath id="g"><path d="M166 479h9v1.32813h-9zm0 0"/></clipPath><clipPath id="h"><path d="M173 480h3v.32813h-3zm0 0"/></clipPath><clipPath id="i"><path d="M180 479h8v1.32813h-8zm0 0"/></clipPath><clipPath id="j"><path d="M187 480h2v.32813h-2zm0 0"/></clipPath><clipPath id="k"><path d="M193 480h9v.32813h-9zm0 0"/></clipPath><clipPath id="l"><path d="M200 480h3v.32813h-3zm0 0"/></clipPath><clipPath id="m"><path d="M206 479h9v1.32813h-9zm0 0"/></clipPath><clipPath id="n"><path d="M213 479h3v1.32813h-3zm0 0"/></clipPath><clipPath id="o"><path d="M220 479h8v1.32813h-8zm0 0"/></clipPath><clipPath id="p"><path d="M227 479h2v1.32813h-2zm0 0"/></clipPath><clipPath id="q"><path d="M233 479h8v1.32813h-8zm0 0"/></clipPath><clipPath id="r"><path d="M240 479h3v1.32813h-3zm0 0"/></clipPath><clipPath id="s"><path d="M246 479h9v1.32813h-9zm0 0"/></clipPath><clipPath id="t"><path d="M253 479h3v1.32813h-3zm0 0"/></clipPath><clipPath id="u"><path d="M260 479h8v1.32813h-8zm0 0"/></clipPath><clipPath id="v"><path d="M267 479h3v1.32813h-3zm0 0"/></clipPath><clipPath id="w"><path d="M273 479h8v1.32813h-8zm0 0"/></clipPath><clipPath id="x"><path d="M280 479h3v1.32813h-3zm0 0"/></clipPath><clipPath id="y"><path d="M286 479h9v1.32813h-9zm0 0"/></clipPath><clipPath id="z"><path d="M293 479h3v1.32813h-3zm0 0"/></clipPath><clipPath id="A"><path d="M300 479h8v1.32813h-8zm0 0"/></clipPath><clipPath id="B"><path d="M307 479h2v1.32813h-2zm0 0"/></clipPath><clipPath id="C"><path d="M313 479h8v1.32813h-8zm0 0"/></clipPath><clipPath id="D"><path d="M319 480h2v.32813h-2zm0 0"/></clipPath><clipPath id="E"><path d="M326 479h9v1.32813h-9zm0 0"/></clipPath><clipPath id="F"><path d="M332 479h2v1.32813h-2zm0 0"/></clipPath><clipPath id="G"><path d="M340 479h8v1.32813h-8zm0 0"/></clipPath><clipPath id="H"><path d="M346 479h3v1.32813h-3zm0 0"/></clipPath><clipPath id="I"><path d="M353 479h8v1.32813h-8zm0 0"/></clipPath><clipPath id="J"><path d="M360 479h3v1.32813h-3zm0 0"/></clipPath><clipPath id="K"><path d="M366 478h8v2.32813h-8zm0 0"/></clipPath><clipPath id="L"><path d="M373 478h3v2.32813h-3zm0 0"/></clipPath><clipPath id="M"><path d="M379 479h9v1.32813h-9zm0 0"/></clipPath><clipPath id="N"><path d="M386 479h3v1.32813h-3zm0 0"/></clipPath><clipPath id="O"><path d="M393 480h8v.32813h-8zm0 0"/></clipPath><clipPath id="P"><path d="M400 480h2v.32813h-2zm0 0"/></clipPath><clipPath id="Q"><path d="M399 480h2v.32813h-2zm0 0"/></clipPath><clipPath id="R"><path d="M406 479h8v1.32813h-8zm0 0"/></clipPath><clipPath id="S"><path d="M413 479h3v1.32813h-3zm0 0"/></clipPath><clipPath id="T"><path d="M412 479h2v1.32813h-2zm0 0"/></clipPath><clipPath id="U"><path d="M419 479h9v1.32813h-9zm0 0"/></clipPath><clipPath id="V"><path d="M426 479h3v1.32813h-3zm0 0"/></clipPath><clipPath id="W"><path d="M434 477h6v3.32813h-6zm0 0"/></clipPath><clipPath id="X"><path d="M449 476h2v4.32813h-2zm0 0"/></clipPath><clipPath id="Y"><path d="M463 476h1v4.32813h-1zm0 0"/></clipPath><clipPath id="Z"><path d="M144 466h4v2h-4zm0 0"/></clipPath><clipPath id="aa"><path d="M144 453h4v1h-4zm0 0"/></clipPath><clipPath id="ab"><path d="M144 440h4v1h-4zm0 0"/></clipPath><clipPath id="ac"><path d="M144 426h4v2h-4zm0 0"/></clipPath><clipPath id="ad"><path d="M144 413h4v2h-4zm0 0"/></clipPath><clipPath id="ae"><path d="M466 413h2v4h-2zm0 0"/></clipPath><clipPath id="af"><path d="M144 399h4v3h-4zm0 0"/></clipPath><clipPath id="ag"><path d="M466 399h2v3h-2zm0 0"/></clipPath><clipPath id="ah"><path d="M144 386h4v2h-4zm0 0"/></clipPath><clipPath id="ai"><path d="M466 385h2v3h-2zm0 0"/></clipPath><clipPath id="aj"><path d="M144 372h4v3h-4zm0 0"/></clipPath><clipPath id="ak"><path d="M466 373h2v3h-2zm0 0"/></clipPath><clipPath id="al"><path d="M144 356h1v9h-1zm0 0"/></clipPath><clipPath id="am"><path d="M144 345h2v4h-2zm0 0"/></clipPath><clipPath id="an"><path d="M144 332h4v4h-4zm0 0"/></clipPath><clipPath id="ao"><path d="M466 333h2v3h-2zm0 0"/></clipPath><clipPath id="ap"><path d="M144 318h4v5h-4zm0 0"/></clipPath><clipPath id="aq"><path d="M466 319h2v3h-2zm0 0"/></clipPath><g id="ar" clip-path="url(#clip1)"><path fill="#fff" fill-opacity="0" fill-rule="evenodd" d="M0 0h1000v1000H0zm0 0"/><path fill="#d3d3d3" fill-opacity="0" fill-rule="evenodd" d="M162.15234 355.86719l-.23437.29297.0586.23437.11718.17188.17578.23437.29297.34766.11328.0586.11719-.17188.0586-.23438.17577-.17578.46485-.17578h.69922l.23437.29297.28906.8164.0586.17579.17578.23046.35156.23438.69922.69922.17188.17578.23437.34765.23438.41016.28906.58203.41015.46485.23047.23437.23438.17578.11719.23047.17578.29297.17187 1.16406v.23438l.0586.28906.05859.11719.11719.11719.34765.41015.11719.17188.17578.17578.17578.23437.11719.17188.17188.35156.05859.23438.23437.40625.23438-.0586-.17578.17578-.0586.92969h-.58203l-.23437-.11328-.34766.11328-.11719.11719-.05859.29297-.0586.17578-.11718.17187-.46484.29297-.0586.23438-.0586.11328v.64453l.0586.17187v.41016l.0586.0586v.40624l.05859.40625.11719.17579.05859.05859.23047.64062-.0586.29297v.69922l-.05859.58203v.23438l-.0586.23047-.05468.35156v1.92187l.05469.1172h.42578l-.36719.11718-.02344.35156.89063 1.16797 1.74219.53906 1.33984.35938v.53906l.08984.8086.53516.71484 1.51953.26953.89063-.08594.08984 1.16406.53516.1797 1.16015-.1797 2.05469-.98437 1.16016-.36328 1.8789-.17578 1.69531-.1797-.17968.71876-1.51563.08594-1.25.08984-.80469.26953-1.07421.8086.26953.71875.53515.89843-.17968.625-.26563.8086.26563 1.07812.625.89844.80468.17969 1.25-.1797-.26562.72267.09766.5039.05468.29297v.17188l.0586.29296v.40625l.17578.1172.35156.11718h.40625l.29297-.17578.11328-.11719.0586-.11719.11718-.23047.0586-.17578.35156-.46484.23047-.17578.17578-.0586.17578.0586.0586.17578.11718.98828.05469.46875.0586.17188.11718.23437.17578.0586.8164.05859h.28907l.11719.23437.05859.40625.0586.35156v1.10547l.11718.29297.11719.34766.28906.69922.17578.35156.58203.7539.35157.17579.17187.0586.46875.23437.64063.46484.34765.23438.29297.17578.29297.05468.23047.0625.8164.34766.29297.17578.11328.17188.35157.35156.11719.17578.52343.64063v.28906l.0586.35156v.34766l.05859.35156.0586.28906.11718.0586.17188.05859h.17578l.58203.23437.17578.1172.17578.28905.17578.23438.11328.23437.29297.23047.11719.11719v.41016l.0586.05468.28906.23438.23437.11719.0586.11718.11718.17188.0586.11719.23047.23437.05859.17578.23437.0586.1172.05859-.1172.11328-.05859.11719v.11719l-.11719.29296-.11719.28907v.58203l.17579.11719.11718.05859.0586.11719.11719.11719.11328.05859.17578.34765.0586.35157.05858.40625v.17578l-.05859.17578-.11719.69922v.17187l.1172.17579.29296.29296h.40625l.17578.1172.11719.17187.11719.29296v.23438h-.52735l-.23047-.23438h-.23437l-.17578.0586-.0586.69922.0586.34765.11719.17579.17578.41015.11718.23047.28907.46875.17578.05469h.52344l.23437.0586.75781.64062.0586.29296v.23438l.05859.0586.23047.34765v.35156l-.11719.17188v.29297l.29297.28906.29297.17578.17187.0586.29297.17577.29297.1172.58203.40624.28906.23438.29297.17578.21875.16015.01563.01172.23047.17579.64062.52343.17578.23438.1172.17578.17577.17578.11328.17188v.64062l.1172.17578.46874.11719.58203.11719.23438.05859.23047.11328.29297.11719.11328.0586.58593.35156.28907.17187.17578.0625.17578.05469.17578.0586.69922.35155.28906.17579.23438.05468.28906.17578.23437.1172.64063.40624.29297.11719.17187.0586.23438.05859.41015.05859.23047.0586.23438.11718.0586.17188-.41017.17578.46875.0586.0586.29296.11328.23438.17578.05468.23438.0586.17578.05859.40625.11719.64062.23437.11719.17188.0586.23437v.17578l-.0586.1172-.0586.40624.23438.23438.11719.05859.34766.11719.64062.23047.17578.11718.28906.1172.17578.17577.23438.46485.58203 1.10546.17578.17579.34766.17578.17578.11719.35156.11718 1.04688.52344.23437.0586.46485.11327.29297.0586.46484.17578.75781.58203.23438.23438.34765.46484.17578.17578.28907.23438.8164.69921.29297.17579.28906.28906.29297.17578.29297.28906.69531.64063.17578.17578.29297.23437.28907.23438.46875.28906.64062.58203.34766.23438.23437.29297.34766.34765.35156.46485.9336.99218.34765.40625.11719.17579.23437.05859.11328.11719.64454.17578.23047.11328.23437.0586.29297.17577.23047.1172.9336.69921.40624.40625.23438.17578.40625.17578.23437.11719.8164.34766.34766.23437.23438.11719.29297.28906.23047.11719.7578.35156.35157.17188.23047.05859.29297.11719.23437.0586.8711.17577h.8164l.46875.23047.17188.0586.875.69921.46484.1172.29297.05858.17578.0586.23047.0586.46875.05859.34766.05859.35156.0586.40625.05859h.29297l.17187.0586v.23046l.17578.17578h.29297l.34766.0586.35156.05859.69922.11719h.64063l.46484-.23438.29297-.17578.17187-.11719.41016-.17187.28906-.17578.9336-.46485.46875-.29297.52343-.29296.46485-.17188.46484-.17578 1.05078-.46485.28906-.11718.41016-.11719.28906-.11719.52735-.17578 1.51562-.69922.58203-.34765.28907-.0586.29297-.0586.34765-.11718.875-.23047.35156-.11719h.11329l.23437-.05859.875-.23437.23438-.0586h.8125l.35156-.0586.8164-.11718.17188-.0586.35156-.05468.29297-.0586.23047-.05859.8164-.17578.17579-.0586h.34765l.23438-.05859.46484-.11718.75781-.17188.23438-.0586h.34765l.41016-.11718.28906-.0586 1.28516-.05859h.28906l.41016-.0586.23047-.05858h.17578l.875-.1172h.40625l.41015-.11718h.34766l.35156-.11328.8711-.0586h1.75l1.04687.28907.41016.11719.28906.11718.35156.11719.28907.11719 1.05078.17187.28906.0586h.29297l.29297.05859.17187.0586.41016.05859.17187.0586.1172.05858h.11718l.11719.0586.35156.0586h.11328l.41016.0664 1.92187.39453 1.92578.39453 1.51953.44922 1.69532.71875 2.14453.80469 1.60547-.71875 1.42968-.80469 1.16016-1.07813 1.25-.44921 3.03516-.71875 1.875-.35938 2.14453-1.34765 2.23437-1.25391 2.5-1.25781 1.69531-.44922 1.78516-.17969 1.16016-.26953.625.53906 1.33984-.26953.71485-.98828.98437-1.34375.44531-.17969.80469-.35937 1.875-.53907 1.78516-.44921 1.25-.26954 1.16015-.08984 1.69922-.08984 1.96094-.26954 1.25-.08984h.53906l.625-.08984h.89063l2.14453-.17969 2.41015-.17969 2.58985-.08984 1.69531.17969 1.60938.08984 1.42968.35938 1.16016.71875 1.875.98828 1.16015 1.52734.26563.71484.6289.08985.35548.89844.53515.53906.53516 1.52734 1.07422.35938h.53515l-.80469.53515.08985 1.70703.71484 2.69532.89063.80468.89453.98829.71484 1.2578 1.78516.53907 1.51953-.17969.35547 1.34375 1.60937-.80469.98047-.53906.26953.26953.31641-.21484.21875-.14453.80078.44922.44922-.35938h.35547l.53515-.26953.53907-.71875.53515-.26953.625-.98828 1.16016.44922.83984.3711 1.39454.61718 1.6953-.17969h1.60548l1.78515.08985.17969-1.70704.53516-1.34375.80468.26954.4922.84765.40233.40625-.08984.53906v.35938l.71485.44922.71093-.26953h1.42969l.35938.98828.4453 1.25781.71485 1.34375 1.25.6289 1.69531.62891.71485-.17969.17969-.53906.98046-.08984.44922.35937.08594 1.25782-.26563.6289-.53515.17969v.53906l.71484.98438.26563.53906.98437.98828.80078 1.07813-.26562.35937-.08985.89844-.625 2.33203-.35546 2.0664-.08985 1.79298-.17969.71875-.08984.53906v1.4375l-.98047 1.88281-.35937 1.70703-.53516.89844-.80469 1.16797-.26562.53906 2.05469 1.2539.08593.35938-.35546.53906-.08985-.17968v.80859l.08985 1.4375-.44532.71484-1.07422.09375-.26562.71485.53515.89844.8047.71875 1.16015.80859 1.33984.26953.44531.35938-.35546.44921-1.78907-.08984-1.25-.44922-.71484-.71875-.625-.08984-.17578 3.58984-.1875 1.3086h89.35937V311.70313h-55.26953v49.08203l.76172.125 3.28906.54296 2.02344 2.83594v2.7539l2.35156.33204 2.34766.33203h4.05078l-1.3789 4.16016-2.02344.70703-2.02344.70312-.54297.34375-2.59375 1.6172-.1875.11718-2.02344-2.07813-.73046-2.74218-2.67188-2.07813-1.375-3.5-.0664-.08203-1.95704-2.67188 2.75-1.41796v-49.08204H294.42187v91.41407l.1172.03125.1328.01172.07422.07421.10547.04688.08985.0586.08593.05859.08985.0586.29687.29687.0586.08984.03125.11719.02734.11719.01563.13671-.03125.1172-.0586.08983-.0586.08594-.04296.10547-.04688.10156-.02734.1211v.14453l.17578.26953.14844.14844.07422.08594.07422.07421.04296.10547.0625.08985.0586.08593.04297.10547.0586.08985.04687.10156.04296.10547.0586.08594.11719.17968.07421.07422.0625.08594.0586.08984.04297.10547.0586.08985.05858.08593.0625.08985.0586.08984.04297.10156.11719.17969.07421.07422.0586.08594.07422.07421.08984.0586.10547.04687h.14844l.1328-.01562.13282.01562.10156-.04687.07422-.07422.04688-.10156-.01563-.13281v-.14844l-.04687-.10547-.02735-.11719-.04687-.10156-.02735-.1211-.04296-.10156-.0625-.08984-.04297-.10156-.04297-.10547-.03125-.11719-.01563-.13281-.01171-.13672.08593-.0586.0586-.08593.12109-.03125.04297.10547.01562.1328v.1172l.0586.10156.0586.08984.08983.0586.14844.14843.0586.08985.04296.10547-.01171.10156.08593.0586.10547.04687.08594.0586.08984.05858.07422.07422-.11719.02735-.10546.04687-.08594.0586-.07422.07421-.0586.08985-.0625.08594-.02734.12109-.04687.10156-.04297.10547-.03125.11719-.01172.13281-.01563.13281v.14844l.02735.11719.04687.10547.04297.10156.0586.08984.07421.07422.08985.0586.07422.07421.08984.0586.0586.08984.04296.10547.04688.10156.11719.03125.1328.01563h.14845l.11718-.03125.10547.04297.04297.10547.04688.10156.02734.1211L299.5 410l.02734.11719.03125.1211.02735.11718.10547.04297.10156.04687.13281-.01562.14844.14844.0625.08593.07422.07422.07031.07422.08984.0625.10547.04297.10156.04297.1172.03125.13671.01562.11719-.03125.07422-.07422.02734-.11718-.01172-.13282-.03125-.12109-.02734-.11719.04297-.10547h.11719l.08984.0625.11719.02735h.14843l.13282.01562h.14843l.13282.01563.1328-.01563h.14845l.1328-.01562.13282-.01172.13672.01172.11719-.02735.13281-.01562.1914-.0586-.05859.17579-.01562.1328-.02735.1211-.01562.13281-.0586.08594-.1328.01563-.10548.04687-.10546.04297-.1172.03125-.11718.02735-.26563.03125h-.14843l-.13281.01562-.07422.07422.05859.08594.14844.14843.11719.1797.07421.0703.08985.0625.08984.0586.08594.0586.08984.05858.10156.04297.10547.0625.10547.04297.08594.0586.10547.04687.10156.04297.17969.11719.0586.08984-.04298.10156-.04687.10547.01562.13281.22266.22266.0586.08985.04296.10156.03125.1211.04297.10155.01563.13282.03125.11718.01171.13672.03125.11719.14844.14844.10156.04297.10547.04296.1172.03125.1328.01563.13672.01563h.11719l.11719-.03125.08984-.0586.04297-.10547.04688-.10156.04296-.10547.03125-.11719.01172-.1328v-.14845l-.01172-.1328-.01562-.13282-.03125-.11719-.04297-.10547-.04688-.10547-.04296-.10156-.04297-.10547-.01563-.13281.01563-.13281.02734-.11719.03125-.11719.02735-.1211.04687-.10155.08984-.0586.08594-.0625.07422-.07422.08984-.05859.22266-.22266.0586-.08593.07421-.07422.11719-.17969.0586-.08594v-.14844l-.07423-.07421-.10156-.04688-.10547-.04297-.10156-.04297-.0586-.08984-.04687-.10547-.02734-.11719.08984-.05859.11719-.03125.10156-.04297.17969-.11719.14844-.14843.01172-.13282-.01172-.10546-.08985-.0586-.1328.01563h-.14845l-.1328.01562-.13282-.01562-.1211-.03125-.08593-.0586-.07422-.07422-.0586-.08984-.0625-.08594-.11718-.17969-.0586-.08593.03125-.1211.08594-.05859.1211-.03125.05859-.08594v-.1211l-.03125-.11718-.0586-.08984-.05859-.08594-.04687-.10547-.02735-.11719-.01562-.1328.0586-.08985.07421-.07422.08984-.0586.1172-.17968.07421-.07422.0586-.08594.14843-.14844.1211-.03125.1328-.01562.13282.01562.07422.07422.04297.10547.01562.13281-.03125.1172-.11719.03124-.1328.01172-.14844.14844-.04297.10547-.04688.10156-.02734.1211-.03125.11718v.14844l.03125.11719.04297.10546.05859.08985.07422.07031.07422.07422.11719.03125.12109.02734.11719-.02734.1328-.01563h.1172l.08984.0586.07422.07422.04687.10546.0586.08594.10156.04688.13281.01562.10547.04297.08594.0586-.01172.10546-.07422.07422-.17969.11719-.05859.08984-.08984.0586-.07032.07422-.07421.07421-.0625.08985-.02735.11719-.01562.1328.01562.13282-.01562.13281v.14844l.01562.13281.02735.1172.03125.12108.07421.07422.08985.0586.08594.0586.08984.05858.11719.03125v.08594l-.10157.04688-.08984.0586-.26563.03124-.11718.02735h-.14844l-.10547.04296-.10156.04688-.0586.08984-.0625.23438-.01171.13281-.03125.1211-.01563.1328v.29298l-.01172.1328.01172.13673.01563.1328.1328.01563.13282.01172.1211.03125.08593.0586.07422.07421.04688.10547.04296.10157.01563.1328v.44532l-.01563.13281v.44532l.03125.26562.02735.11719.01562.13281.03125.11719.08594.21094.03125.26562v.14844l-.03125.11719-.02734.11718-.03125.1211-.02735.11719-.03125.11718-.03125.1211-.01171.1328-.01563.13282.08984.0586.1172-.03125.10155.01562.04688.10547-.03125.26562v.44141l-.04297.10547-.04688.10547-.04296.10156-.04297.10547-.0586.08594-.03125.12109-.04296.11719-.03125.11719-.01563.1328.01563.13282.05859.08984.10547.04688.08594.0586.05859.08593-.01172.13672-.03125.11719-.04297.10156v.44531l-.01562.13281v.14844l-.03125.11719-.04297.10547-.02735.11719-.04687.10546-.04297.10157-.03125.12109-.02734.11719-.03125.13281-.03125.11719-.02735.11719-.04297.10546-.03125.1172-.03125.12108-.01171.13282-.01563.13281v.29688l.02734.11718v.14844l.04688.39844.02734.11719.0586.08984.12109.03125h.14844l.13281-.01563.0586.08985v.11719l-.0586.08984-.08984.0586-.10157.04296-.10546.04688-.08985.05859-.08594.0586-.13671.01562-.1172-.03125-.1328-.01563-.10157.04688-.0625.08594-.01172.13671-.01562.13282-.03125.11719-.02735.11718-.01562.13281-.03125.1211v.29687l.01563.13282.03125.11718v.14844l.01171.13281v.14844l-.02734.11719-.04688.10156-.02734.1211-.03125.11718-.0586.08985-.07421.07421-.10156.04297-.10547.04688-.11719.02734-.1211.03125-.10156-.04687.0586-.08594.10547-.04688.02734-.11718.03125-.11719.02734-.1211.03125-.11718v-.14844l.01563-.13281-.03125-.11719-.04297-.10547-.10547.01563-.07422.07422-.10156.04296-.08984.0625-.07422.07422-.04297.10157-.01563.1328-.03125.1172L304.25 426l-.03125.11719-.02734.11719-.03125.12109-.02735.11719-.03125.11718-.04297.10547-.08984.0586h-.08984l-.1172-.03125-.03124-.08594.01562-.13672-.03125-.11719v-.14844l-.01171-.1328v-.14844l-.0625-.23438-.02735-.1211-.04297-.10156-.04687-.10546-.0586-.08594-.05859-.08985-.04297-.10546-.0625-.08594-.14844-.14844-.0703-.07422-.10548-.04687-.10547-.04297-.10156-.04297-.29687-.29688-.08985-.07421-.08594-.0586-.10546-.04297-.08985-.0625-.08594-.0586-.10546-.04296-.08985-.0586-.08594-.0625-.07421-.0703-.10547-.04688-.08594-.0586-.10547-.04296-.08984-.0625-.10156-.04297-.10547-.04297-.08594-.0586-.10547-.04687-.10547-.04297-.10156-.04687-.08985-.0586-.10156-.04297-.10547-.04296-.08984-.0625-.11719-.02735-.13281-.01562-.13281.01562H299.75l-.13281.01563-.11719-.03125-.08984-.0586-.07422-.07422-.08985-.05859-.10156-.04688h-.14844l-.12109-.02734-.10156-.04297-.07422-.07422-.11719-.17968-.08984-.0586-.10156-.04297-.08985-.0625-.10547-.04296-.08984-.0586-.08594-.0586-.10547-.04687-.0586-.08594-.05858-.08984-.04297-.10547-.04688-.10156-.07422-.07422-.08594-.0586-.07421-.07421-.08985-.0586-.22265-.22265-.04297-.10547-.03125-.26563.10547-.04296h.14453l.10547.04296.07421.07422.08985.0586.08594.0586.10546.04687.08985.05859.14844.14844.0703.07422.14845.14843.0625.08594.07421.07422.08594.0586.07422.07421.08985.0625.08984.0586.08594.05859.26953.17578.10156.04688.10547.04296.10156.04297.04688-.07421.05859-.08594.07422-.07422.07031-.07422.10547.04297.07422.07422.0586.08984.04296.10156.04688.10547.04296.10547.1211.02735.11719-.02735.07421-.08984.04297-.10547.0586-.08985.07422-.07421.10546-.04297.1172-.02735.1328.01172.08985.0586.14844.14843.05859.08985.04297.10547.04687.10156.04297.10547.04297.10156.10547.04688.10547.04296.13281.01563.08594-.0586.0586-.08984.07421-.07422.10547-.04297.11719.02735.10547.04687.10156.04297.10547.04297.10156.04688.17969.11718v.11719l-.01563.13281.01563.13281.01562.13672.0586.08594.10156.04688.1211.02734.11718.03125h.14844l.11719-.03125.05859-.08984.17969-.1172.05859-.08983.07422-.07422.0586-.08594.11718-.17969.17969-.11719.11719.03125.08984.0586.04297.07422-.01563.1328v.1172l.08985.05859h.14843l.13282-.01563.1328-.01171.26563-.03125.10547-.04297.11719-.03125.1211-.02735.07421-.07421.07031-.07422.0625-.08985-.01562-.10547-.04688-.10156-.10156-.04297-.10547-.01562-.11718.02734-.26563.03125h-.14844l-.07421-.07422-.08985-.0586-.11719-.03124-.11718-.02735-.13282-.01562h-.14843l-.13282.01563h-.29687l-.10547-.04688-.14844-.14844-.04297-.10156-.05859-.08984.22266-.22266.08593-.0586.10547-.04296.11719-.03125.13281-.01563.13281.01563.13672.01562.10157.04297.1328-.01172.08985-.0625.10156-.04297.0625-.08984-.04687-.10156-.08984-.0586-.1172-.03125-.10155-.04296-.0586-.08985-.0625-.08984v-.11719l.01563-.13281.10547-.04688.07421-.07031v-.1211l-.08984-.05859-.03125-.11719.08985-.05859.07421-.07422.04297-.10547.0586-.08984.04687-.10156.01563-.13281v-.14844l-.04688-.10547-.04297-.10156-.08984-.0586-.13281-.01562-.10157-.04297-.13671-.01563-.1172-.03125h-.4453l-.13282-.01562-.13281-.01172-.13281-.01563-.11719-.03125h-.14844l-.13281-.01562-.13281-.01172-.26563-.03125-.1211-.04297-.08593-.0586-.07422-.07421v-.14844l.01172-.13281.10547-.04688.10156-.04296.13281-.01563h.15235l.13281-.01562h.29297l.1211.03125.10156.04296.08984.0586.23438.0625.12109-.04688.08984-.05859.10156-.04297.13282-.01562.10547.04296.10156.04688.13281.01172.1211-.02735h.14453l.12109-.03125.11719-.02734.10547-.04687.07421-.07422.08594-.0586.14844-.14843.0586-.08594.04687-.10547.02734-.11719.01563-.10547-.10156-.04296-.08985-.0586-.11719-.03125-.10546-.04297-.08985-.0625-.07422-.08594-.07422-.07421-.10156-.04297-.10547-.04688-.10156-.04297-.0586-.08984-.04687-.10156-.08594-.21094-.0625-.08594-.05859-.08984-.07422-.07422-.08594-.0586h-.26953l-.11719.03126-.08984.05859-.10156.04297-.13281.01562-.10547-.01562-.02735-.11719-.0625-.08984-.11718-.03125-.10157-.04297-.14843-.14844-.03125-.11719-.01563-.10546.07422-.07422.17969-.1172.11719-.02733.11718-.03125.13672.01562.10156.04297.10547.04297.10156.04687.10547.04297.1172.03125.1328.01563.1172.02734.1328.01563.10547-.01563.08985-.0586-.07422-.07421-.10547-.04297-.07422-.07422-.07422-.08984-.14844-.14844-.08593-.0586-.08985-.05859-.07422-.07422-.08984-.0586-.10156-.04687-.1211-.02734-.10156-.04688-.10547-.04296-.11719-.03125-.10156-.04297-.1211-.03125h-.14843l-.11719.03125-.10546.04297-.08594.0625-.17969.11718-.08594.0586-.08984.0586-.10547.04687-.08594.05859-.10547.04297-.10156.04297-.10547.04687-.07422.07422-.05859.08985-.0586.08593-.04687.10547-.0586.08594-.07421.07422-.13281-.01172-.1172-.03125h-.11718l-.07422.07422-.08984.0586-.07422.07421-.08984.0586-.08594.05859-.10547.04687-.10156.04297-.13672.01563-.10156-.04297-.14844-.14844-.10547-.04688h-.08594l-.10547.04688-.10156.04297-.1211.03125-.11718-.03125-.07422-.07422v-.11719l.03125-.1211.07422-.0703.0586-.08985.07421-.07422.11719-.03125.10547-.04296h.29297l.13281-.01563.13672-.01563.10156-.04296.08985-.0586.10156-.04687.08984-.0586.13281-.01171.08985.05859.13281.01172.08984-.0586.08594-.05859.10547-.04297.08984-.0586.08594-.0625.08985-.05859.14843-.14843.0586-.08594.05859-.08985.10547-.04296.13281-.01563.11719.02735.1211.03125.05859-.0586.05859-.08984.03125-.26563.02734-.11719.10547.01172.13281.01563.10157-.04297.08984-.0586.0586-.08984.07421-.07422.0586-.08984.04687-.10156.01172-.13281-.01172-.13282-.04687-.10547-.14844-.14843-.0586-.08985-.05859-.08594-.04297-.10546v-.44532l.01563-.1328v-.14845l.01172-.1328-.0586-.0586-.08984.0586-.10156-.04298-.17969-.11719-.08594-.05859-.0625-.08984-.0586-.08985-.07421-.07421-.08594-.0586-.1211.03125-.10155.01172-.10547.04688-.08594.05859-.10547.04297-.14844.14844-.08984.05859-.08594.0586-.08984.0625-.10547.04296-.13281.01563v-.1211l.10547-.04297.11718-.03125.07422-.0703.04297-.10548v-.14844l-.02734-.11718-.14844-.14844-.13281-.01563h-.14844l-.11719.03125-.10547.04297-.10156.04297-.08984.0625-.11719.02735-.07422-.07422.01172-.13281-.04297-.10157-.04297-.10547-.08984-.05859-.11719.02734-.1211.03125-.11718.03125-.10156.04297-.1211.03125-.10156.04297-.10547.04297-.08984.0586-.10156.01562v-.11719l.01562-.13281-.0586-.08985-.07421.04297-.14844.14844-.0586.08985-.07421.07421-.04688.10547-.04296.10156-.07422.07422-.0586.08985-.07422.07422-.05859.08593-.07422.07422-.08984.0625-.07422.07031-.07422.07422-.10156.01563-.13281.01562-.10547-.04296v-.1211l.14843-.14844.04297-.10156.0586-.08984.04687-.10156.04297-.10547.0586-.08985.03124-.11719.04297-.10156.03125-.1211.02735-.11718.04687-.10547.04297-.10156.04297-.10547.07422-.07031.08984-.0625.08985-.0586.10156-.04296h.29687l.26563-.03125.10547-.04297-.07422-.07422-.11719-.03125-.10547-.04297-.08984-.0586-.10156-.04687-.08985-.0586-.10156-.04296-.10547-.04297-.08984-.0625-.08594-.0586-.10547-.04296-.10156-.04297-.1211-.03125-.11718-.03125-.10157-.04297L297.5 410.25l-.10156-.04297-.08985-.0586-.04296-.10546-.01563-.13281.10156-.04297.13281-.01563.13672.01563.13282-.01563.10156-.04297.0586-.08984.01562-.10547-.08985-.0586-.07421-.07421-.10157-.04297-.08984-.0586-.14844-.14843-.04297-.10547-.01562-.13281v-.29297l-.0586-.08985-.08984-.05859-.07422-.07422-.04297-.10547-.03125-.11718-.0586-.08985-.07421-.07422-.11719-.02734-.07422-.07422-.08984-.0586-.08984-.0625-.08594-.05859-.07422-.07421-.0586-.08594-.04687-.10547-.08594-.0586-.14843-.14843-.19532-.0586-.1328.01563-.10157.04297-.07422.07422-.04688.10156-.04296.10547-.0586.08984-.0586.08594-.29687.29687-.08984.0586h-.08594l-.0625-.08594-.04297-.10547.03125-.11719.0586-.08984.02734-.11719-.01172-.13281-.08984-.0625-.10547.04688-.11719.02734-.11719.03125-.26953.17578-.10156.04688-.11719.02734-.10546.04687-.08985.0586-.10156.04297-.0586-.08594-.04687-.10547.01563-.13281.04687-.10547.07031-.07422.07422-.07031.0586-.08985v-.14843l-.04297-.10547h-.23829l-.10156.04687-.03125.11719-.02734.11719-.03125.1211-.07422.04296-.13281.01563-.07422-.04688-.04297-.10156-.04297-.10547-.04687-.10156-.04297-.10547-.1211.03125-.10156.04297-.13281.01562-.11719.03125-.10547.04297-.08984.0586-.10156.04687-.1211.02734-.13281.01563-.10156-.04297-.0586-.08985-.04687-.10546-.04297-.10157-.04297-.10546v-.1172l.0586-.08984.08593-.05859.17969-.11719.10156-.04687.10547-.04297.10547-.0586.10156-.04296.08985-.0625.10156-.04297.10547-.0586.10156-.04687.08984-.0586.10547-.04296.10156-.04297.08985-.0625.10156-.04297.13672-.01563.11719.03125.10156.04297.1211.03125.10156.04297.10546.04688.10157.04296.10547.04297.10156.04688.10547.04297.10156.04297.10547.04687.08594.0586.10546.04296.1172.03125.10546.04297.10156.04688.08985.0586.10547.04296.10156.04297.10547.04687.11719.02735.10156.04687.1211.02735h.14843l.08594-.0586.01562-.10156.0586-.08984-.02735-.1172-.07422-.07421-.11719-.17969-.07421-.07422-.08985-.07421-.17969-.1172-.08593-.05859-.10547-.04296-.10156-.04688-.26954-.17578-.05859-.08985-.07422-.07421-.0586-.08985-.04296-.10156-.03125-.11719-.01563-.13672v-.5625l-.01171-.1328-.01563-.13282-.03125-.11719-.01562-.13281-.01172-.13281-.03125-.1211-.22266-.22265-.0586-.08594-.01562-.10547.03125-.11719.13281-.01562v-91.41406H172.9922v1.45312l-.0586.23438-.35156 1.05078-.17187.52343-.1172.34766-.17577.41016-.11719.17187-.23438.29297-.23046.0586h-.35157l-.11718.05859-.23047.40625v.29297l.11719.17578.23046.23047.1172.23437.64062.75781.29297.46485.17578.23437.23047.35156.23437.34766.64063.8164.17578.46485.17187.41016.11719.69531.17578.46875.11719 1.39844.0586.46484v.875l.11718 1.04688v4.78125l-.0586.46484-.35156 1.28125-.17578.52344-.11328.41015-.35156.9297L172.93359 336l-.23437.58203-.11719.17578-.17187.34766-.17578.40625-.35157.8164-.0586.29297-.11327.29297-.11719.28906-.0586.17579-.11718.875-.0586.40625-.05859.11718-.0586.17579-.05859.17187-.23047.52734-.11718.17188v.23437l-.11719.23438-.0586.17187-.17577.58594v.28906l-.0586.17579v.29296l-.0586.11329-.05859.52734v.17187l-.05468.23438v2.6211l-.17578.8164-.1172.17578-.17577.23438-.1172.17187-.11327.23438-.58594.93359-.23047.28906-.29297.46485-.17578.23437-.28906.35156-.35156.69922-.11328.23047-.17579.41016-.17578.23046-.40625.52735-.8164.69922-.29297.17187-.28906.23438-.17579.11719-.17578.17578-.52344.40625-.52734.17578-.17187.17578-.23438.05469-.64062.17578h-.75782m12.21094 31.02344l-1.07422.44921.35938.89454 1.25-.71485.44531-.53906-.98047-.08985"/><path fill="#d3d3d3" fill-opacity="0" fill-rule="evenodd" d="M201.50781 416.59766h-.89453l.44922.6289.98047.35938.80469-.08985.4453-.98828-.17577.08985-.71485-.35547-.89453.35547m154.6211 59.0703l-.0586-.52343v-.29297l.11328-.29297.0586-.23046.46875-.46875h.11328l.11719-.11329.11718-.05859h.17579l.23437-.0586h.34766l.23437.0586.11719.0586.23047.17187.0586.17578.11718.58203v.29297l-.11719.17578-.17187.28906-.17579.17579-.52734.52343-.23047.23438-.11719.0586h-.17578l-.11718-.0586-.40625-.29297-.17579-.11719-.11718-.0586-.0586-.11327-.05468-.1172m6.64062-10.95702l-.0586-.17188v-1.10937l.0586-.17188.17578-.0586.17188-.05858h.17578l.23437-.0586.1172.0586.05858.69921-.05859.17188-.11719.17578-.11718.0586-.23438.52343-.11328.0586h-.23438l-.05859-.1172m9.61328-14.39062l-.11719-.17578v-.69922l.29297-.875.1172-.17187.17577-.35156.11328-.23047.1172-.29297.35155-.75781.1172-.23047.17187-.23438h.17578l.11719-.0586h.64062l.11719.0586.23437.23438.17188.11328.35156.29297.11719.11718.11328.17579v.11328l.11719.05859.11718.11719v.69922l-.05859.17578v.23047l-.0586.17578-.34765 1.05078-.11719.23047-.11719.23437-.11718.0586-.23047.23437-.64063.28906h-.875l-.41015-.11718-.64063-.46485"/><path fill="none" stroke="#bebebe" stroke-linecap="round" stroke-linejoin="round" stroke-miterlimit="10" stroke-width=".5" d="M467.95703 311.69531H144.02734v168.625h323.9297v-168.625"/><g clip-path="url(#a)"><path fill="#fff" fill-opacity="0" fill-rule="evenodd" d="M144 311.67188v168.65625h324V311.67188H144"/></g><g clip-path="url(#b)"><path fill="none" stroke="#000" stroke-linecap="round" stroke-linejoin="round" stroke-miterlimit="10" stroke-width=".5" d="M147.5039 480.59766l-7.0078-.53516"/></g><g clip-path="url(#c)"><path fill="none" stroke="#000" stroke-linecap="round" stroke-linejoin="round" stroke-miterlimit="10" stroke-width=".5" d="M147.5039 480.59766l.98438 2.24609"/></g><g clip-path="url(#d)"><path fill="none" stroke="#000" stroke-linecap="round" stroke-linejoin="round" stroke-miterlimit="10" stroke-width=".5" d="M160.8164 480.59766l-7.0039-.53907"/></g><g clip-path="url(#e)"><path fill="none" stroke="#000" stroke-linecap="round" stroke-linejoin="round" stroke-miterlimit="10" stroke-width=".5" d="M160.8164 480.59766l.98438 2.25"/></g><g clip-path="url(#f)"><path fill="none" stroke="#000" stroke-linecap="round" stroke-linejoin="round" stroke-miterlimit="10" stroke-width=".5" d="M159.80078 480.51953l.48828 1.125"/></g><g clip-path="url(#g)"><path fill="none" stroke="#000" stroke-linecap="round" stroke-linejoin="round" stroke-miterlimit="10" stroke-width=".5" d="M174.13281 480.59375l-7.00781-.53125"/></g><g clip-path="url(#h)"><path fill="none" stroke="#000" stroke-linecap="round" stroke-linejoin="round" stroke-miterlimit="10" stroke-width=".5" d="M174.13281 480.59375l.98438 2.2461"/></g><g clip-path="url(#i)"><path fill="none" stroke="#000" stroke-linecap="round" stroke-linejoin="round" stroke-miterlimit="10" stroke-width=".5" d="M187.45313 480.48828l-7.01954-.32031"/></g><g clip-path="url(#j)"><path fill="none" stroke="#000" stroke-linecap="round" stroke-linejoin="round" stroke-miterlimit="10" stroke-width=".5" d="M187.45313 480.48828l1.05468 2.21875"/></g><g clip-path="url(#k)"><path fill="none" stroke="#000" stroke-linecap="round" stroke-linejoin="round" stroke-miterlimit="10" stroke-width=".5" d="M200.77344 480.27344l-7.02735.10937"/></g><g clip-path="url(#l)"><path fill="none" stroke="#000" stroke-linecap="round" stroke-linejoin="round" stroke-miterlimit="10" stroke-width=".5" d="M200.77344 480.27344l1.1875 2.14844"/></g><g clip-path="url(#m)"><path fill="none" stroke="#000" stroke-linecap="round" stroke-linejoin="round" stroke-miterlimit="10" stroke-width=".5" d="M214.07813 480.0586l-7.00782.53906"/></g><g clip-path="url(#n)"><path fill="none" stroke="#000" stroke-linecap="round" stroke-linejoin="round" stroke-miterlimit="10" stroke-width=".5" d="M214.07813 480.0586l1.3164 2.07421"/></g><g clip-path="url(#o)"><path fill="none" stroke="#000" stroke-linecap="round" stroke-linejoin="round" stroke-miterlimit="10" stroke-width=".5" d="M227.40234 480.23047l-7.02343.19531"/></g><g clip-path="url(#p)"><path fill="none" stroke="#000" stroke-linecap="round" stroke-linejoin="round" stroke-miterlimit="10" stroke-width=".5" d="M227.40234 480.23047l1.21094 2.13281"/></g><g clip-path="url(#q)"><path fill="none" stroke="#000" stroke-linecap="round" stroke-linejoin="round" stroke-miterlimit="10" stroke-width=".5" d="M240.71875 480.23828l-7.02734.17969"/></g><g clip-path="url(#r)"><path fill="none" stroke="#000" stroke-linecap="round" stroke-linejoin="round" stroke-miterlimit="10" stroke-width=".5" d="M240.71875 480.23828l1.20703 2.13672"/></g><g clip-path="url(#s)"><path fill="none" stroke="#000" stroke-linecap="round" stroke-linejoin="round" stroke-miterlimit="10" stroke-width=".5" d="M253.9961 479.80078l-6.94923 1.05469"/></g><g clip-path="url(#t)"><path fill="none" stroke="#000" stroke-linecap="round" stroke-linejoin="round" stroke-miterlimit="10" stroke-width=".5" d="M253.9961 479.80078l1.46093 1.96875"/></g><g clip-path="url(#u)"><path fill="none" stroke="#000" stroke-linecap="round" stroke-linejoin="round" stroke-miterlimit="10" stroke-width=".5" d="M267.28516 479.65625L260.38672 481"/></g><g clip-path="url(#v)"><path fill="none" stroke="#000" stroke-linecap="round" stroke-linejoin="round" stroke-miterlimit="10" stroke-width=".5" d="M267.28516 479.65625l1.54297 1.90625"/></g><g clip-path="url(#w)"><path fill="none" stroke="#000" stroke-linecap="round" stroke-linejoin="round" stroke-miterlimit="10" stroke-width=".5" d="M280.65234 480.05469l-7.0039.54687"/></g><g clip-path="url(#x)"><path fill="none" stroke="#000" stroke-linecap="round" stroke-linejoin="round" stroke-miterlimit="10" stroke-width=".5" d="M280.65234 480.05469l1.31641 2.07031"/></g><g clip-path="url(#y)"><path fill="none" stroke="#000" stroke-linecap="round" stroke-linejoin="round" stroke-miterlimit="10" stroke-width=".5" d="M293.97656 480.21484l-7.02344.23047"/></g><g clip-path="url(#z)"><path fill="none" stroke="#000" stroke-linecap="round" stroke-linejoin="round" stroke-miterlimit="10" stroke-width=".5" d="M293.97656 480.21484l1.22266 2.125"/></g><g clip-path="url(#A)"><path fill="none" stroke="#000" stroke-linecap="round" stroke-linejoin="round" stroke-miterlimit="10" stroke-width=".5" d="M307.29297 480.20313l-7.02344.25"/></g><g clip-path="url(#B)"><path fill="none" stroke="#000" stroke-linecap="round" stroke-linejoin="round" stroke-miterlimit="10" stroke-width=".5" d="M307.29297 480.20313l1.22656 2.125"/></g><g clip-path="url(#C)"><path fill="none" stroke="#000" stroke-linecap="round" stroke-linejoin="round" stroke-miterlimit="10" stroke-width=".5" d="M320.60938 480.42969l-7.02735-.19922"/></g><g clip-path="url(#D)"><path fill="none" stroke="#000" stroke-linecap="round" stroke-linejoin="round" stroke-miterlimit="10" stroke-width=".5" d="M319.58594 480.39844l.54687 1.10156"/></g><g clip-path="url(#E)"><path fill="none" stroke="#000" stroke-linecap="round" stroke-linejoin="round" stroke-miterlimit="10" stroke-width=".5" d="M333.92188 480.16797l-7.01954.32031"/></g><g clip-path="url(#F)"><path fill="none" stroke="#000" stroke-linecap="round" stroke-linejoin="round" stroke-miterlimit="10" stroke-width=".5" d="M332.89844 480.21484l.625 1.0586"/></g><g clip-path="url(#G)"><path fill="none" stroke="#000" stroke-linecap="round" stroke-linejoin="round" stroke-miterlimit="10" stroke-width=".5" d="M347.19531 479.77344l-6.9375 1.10937"/></g><g clip-path="url(#H)"><path fill="none" stroke="#000" stroke-linecap="round" stroke-linejoin="round" stroke-miterlimit="10" stroke-width=".5" d="M347.19531 479.77344l1.48047 1.95703"/></g><g clip-path="url(#I)"><path fill="none" stroke="#000" stroke-linecap="round" stroke-linejoin="round" stroke-miterlimit="10" stroke-width=".5" d="M360.42578 479.3789l-6.76953 1.89844"/></g><g clip-path="url(#J)"><path fill="none" stroke="#000" stroke-linecap="round" stroke-linejoin="round" stroke-miterlimit="10" stroke-width=".5" d="M360.42578 479.3789l1.6914 1.77735"/></g><g clip-path="url(#K)"><path fill="none" stroke="#000" stroke-linecap="round" stroke-linejoin="round" stroke-miterlimit="10" stroke-width=".5" d="M373.54297 478.84766l-6.375 2.96093"/></g><g clip-path="url(#L)"><path fill="none" stroke="#000" stroke-linecap="round" stroke-linejoin="round" stroke-miterlimit="10" stroke-width=".5" d="M373.54297 478.84766l1.95703 1.48047"/></g><g clip-path="url(#M)"><path fill="none" stroke="#000" stroke-linecap="round" stroke-linejoin="round" stroke-miterlimit="10" stroke-width=".5" d="M387.17969 480.125l-7.01563.40625"/></g><g clip-path="url(#N)"><path fill="none" stroke="#000" stroke-linecap="round" stroke-linejoin="round" stroke-miterlimit="10" stroke-width=".5" d="M387.17969 480.125l1.27344 2.09375"/></g><g clip-path="url(#O)"><path fill="none" stroke="#000" stroke-linecap="round" stroke-linejoin="round" stroke-miterlimit="10" stroke-width=".5" d="M400.5 480.33984l-7.02734-.01953"/></g><g clip-path="url(#P)"><path fill="none" stroke="#000" stroke-linecap="round" stroke-linejoin="round" stroke-miterlimit="10" stroke-width=".5" d="M400.5 480.33984l1.14453 2.16797"/></g><g clip-path="url(#Q)"><path fill="none" stroke="#000" stroke-linecap="round" stroke-linejoin="round" stroke-miterlimit="10" stroke-width=".5" d="M399.47656 480.33594l.57422 1.08594"/></g><g clip-path="url(#R)"><path fill="none" stroke="#000" stroke-linecap="round" stroke-linejoin="round" stroke-miterlimit="10" stroke-width=".5" d="M413.70703 479.46484l-6.8125 1.73047"/></g><g clip-path="url(#S)"><path fill="none" stroke="#000" stroke-linecap="round" stroke-linejoin="round" stroke-miterlimit="10" stroke-width=".5" d="M413.70703 479.46484l1.64844 1.81641"/></g><g clip-path="url(#T)"><path fill="none" stroke="#000" stroke-linecap="round" stroke-linejoin="round" stroke-miterlimit="10" stroke-width=".5" d="M412.71484 479.71484l.82422.91016"/></g><g clip-path="url(#U)"><path fill="none" stroke="#000" stroke-linecap="round" stroke-linejoin="round" stroke-miterlimit="10" stroke-width=".5" d="M427.1289 480.24219l-7.02343.17578"/></g><g clip-path="url(#V)"><path fill="none" stroke="#000" stroke-linecap="round" stroke-linejoin="round" stroke-miterlimit="10" stroke-width=".5" d="M427.1289 480.24219l1.20704 2.13672"/></g><g clip-path="url(#W)"><path fill="none" stroke="#000" stroke-linecap="round" stroke-linejoin="round" stroke-miterlimit="10" stroke-width=".5" d="M439.60156 482.61328l-5.33984-4.57031"/></g><g clip-path="url(#X)"><path fill="none" stroke="#000" stroke-linecap="round" stroke-linejoin="round" stroke-miterlimit="10" stroke-width=".5" d="M450.03906 483.83594l.41406-7.01563"/></g><g clip-path="url(#Y)"><path fill="none" stroke="#000" stroke-linecap="round" stroke-linejoin="round" stroke-miterlimit="10" stroke-width=".5" d="M463.49219 483.83984l.13672-7.02343"/></g><g clip-path="url(#Z)"><path fill="none" stroke="#000" stroke-linecap="round" stroke-linejoin="round" stroke-miterlimit="10" stroke-width=".5" d="M147.48047 467.50781l-6.96094-.98828"/></g><path fill="none" stroke="#000" stroke-linecap="round" stroke-linejoin="round" stroke-miterlimit="10" stroke-width=".5" d="M147.48047 467.50781l.83594 2.30469m12.48828-2.39063l-6.98047-.8164m6.98047.8164l.89062 2.28516m12.4375-2.4336l-7.00781-.51952m7.00781.51953l.98828 2.2461m12.33203-2.69141l-7.01562.37109m7.01563-.3711l1.26562 2.10157m12.05078-2.05078l-7.01953.26953m7.01953-.26953L202.00391 469m12.03125-2.59766l-6.92188 1.22266m6.92188-1.22266l1.51172 1.9336m11.77734-2.0625l-6.86719 1.48047m6.86719-1.48047l1.58203 1.8711m11.71875-1.94532l-6.83594 1.6289m6.83594-1.6289l1.6211 1.83984m-2.6172-1.60156l.8125.91797m13.4297-1.40235l-6.69923 2.1211m6.69922-2.1211l1.75 1.71875m11.65235-1.3789l-6.875 1.4414m6.875-1.4414l1.57422 1.88281m11.74609-1.86719l-6.88672 1.41016m6.88672-1.41016l1.5625 1.89063m11.71484-2.04688l-6.8125 1.72266m6.8125-1.72266l1.64844 1.81641m11.71484-1.59375l-6.91015 1.27734m6.91015-1.27734l1.52735 1.92187m11.71484-2.24218l-6.76172 1.91797m6.76172-1.91797l1.69922 1.76953m11.51563-2.07422l-6.5586 2.52734m6.5586-2.52734l1.85156 1.60938m11.46484-1.59766l-6.5625 2.5039m6.5625-2.5039l1.84766 1.61328m11.01953-2.4375l-5.66797 4.15234m5.66797-4.15234l2.21094 1.07031m11.35547-.67578l-6.16797 3.36328m6.16797-3.36328l2.04687 1.34766m11.64063.96094l-6.91407-1.25391m5.90625 1.07031l.375 1.16797m13.9961-1.82812l-7.01172.43359m5.99219-.3711l.64062 1.04688m13.61328-1.66797l-6.85156 1.55078m6.85156-1.55078l1.60156 1.85938m-2.59765-1.63282l.80078.9297m13.39453-1.5625l-6.61719 2.36327m6.6172-2.36328l1.8125 1.65625m11.70702-.375l-7.02734-.19922m6.0039.17188l.54688 1.09765m12.6211 1.44532l-4.6875-5.23047m4.0078 4.46875l-.42187 1.15234m14.11719-.14844l-4.08985-5.71484m3.4961 4.88281l-.54688 1.09766"/><g clip-path="url(#aa)"><path fill="none" stroke="#000" stroke-linecap="round" stroke-linejoin="round" stroke-miterlimit="10" stroke-width=".5" d="M147.51172 453.74219l-7.02344-.08985"/></g><path fill="none" stroke="#000" stroke-linecap="round" stroke-linejoin="round" stroke-miterlimit="10" stroke-width=".5" d="M147.51172 453.74219l1.125 2.1836m12.16797-1.82423l-6.98047-.80468m6.98047.80468l.89844 2.28516m12.34765-1.88281l-6.83984-1.61328m6.83984 1.61328l.6211 2.375m12.73046-2.55078l-6.91406-1.25782m6.91406 1.25782l.7461 2.33593m12.59375-3.4336l-6.96485.9375m6.96485-.9375l1.42969 1.9922m11.76171-2.5586l-6.71484 2.07032m6.71484-2.07032l1.73828 1.73047m11.3672-2.25781l-6.29688 3.125m6.29687-3.125l1.99219 1.42969m11.21484-1.62891l-6.08203 3.51953m6.08203-3.51953l2.08203 1.30078m11.41797-.9336l-6.44922 2.78907m6.44922-2.78906l1.91797 1.53125m11.40235-1.51953l-6.46094 2.76172m6.46094-2.76172l1.91015 1.53906m-2.85156-1.13672l.95703.76953m13.32422-1.11719l-6.50781 2.65235m6.50781-2.65235l1.88281 1.57422m-2.83203-1.1875l.9414.78516m12.97657-1.8125l-5.82031 3.9375m5.82031-3.9375l2.16797 1.14844m-3.01172-.57422l1.08203.57422m13.08203-1.14063l-5.83203 3.92188m5.83203-3.92188l2.16797 1.15625m-3.01562-.58594l1.08203.57813m13.39062-.58594l-6.44922 2.79297m6.44922-2.79297l1.91797 1.53125m-2.85547-1.125l.95703.76563m13.21485-1.34375l-6.28516 3.14062m6.28516-3.14062l2 1.42187m-2.91406-.96484l1 .71094m13.17578-1.26954l-6.1797 3.34375m6.1797-3.34375l2.04297 1.35547m-2.94141-.8711l1.01953.6797m12.8125-1.73047l-5.41797 4.47656m5.41797-4.47656l2.26563.9336m-3.0547-.28516l1.13282.46875m11.96484-1.95313l-3.40625 6.14844m3.40625-6.14844l2.45313.04297m-2.94922.85156l1.22656.02344m11.07032-1.35156l-.375 7.01562m.375-7.01562l2.22265-1.03516m14.19922 3.32422l-6.58984 2.4375m20.10156-1.625l-6.98047.8125m19.84375-2.17188l-6.07812 3.53125m6.07812-3.53125l2.08203 1.29297m11.52344-.64453l-6.66016 2.23438m6.66016-2.23438l1.78125 1.6875m11.70703-.32812l-7.00781-.48438m5.98828.41406l.5 1.1211m10.23047 2.21875l.19922-7.02344m-.16797 6l-1.10156.54687"/><g clip-path="url(#ab)"><path fill="none" stroke="#000" stroke-linecap="round" stroke-linejoin="round" stroke-miterlimit="10" stroke-width=".5" d="M147.51172 440.32813l-7.02344.10937"/></g><path fill="none" stroke="#000" stroke-linecap="round" stroke-linejoin="round" stroke-miterlimit="10" stroke-width=".5" d="M147.51172 440.32813l1.1875 2.14843m12.125-1.9375l-7.01953-.3125m7.01953.3125l1.05469 2.21485m12.1914-1.66407l-6.88281-1.41406m5.88281 1.20703l.34766 1.17969m13.9375-.82812l-6.82031-1.70313m6.8203 1.70313l.59376 2.3789m12.80078-2.82031l-6.98047-.8164m6.98047.8164l.89453 2.28516m12.41406-3.15235l-6.96484.91797m6.96484-.91797l1.42578 1.9961m11.59766-3.01172l-6.38281 2.9453m6.38281-2.9453l1.95313 1.48437m10.58593-2.5625l-4.83203 5.10156m4.83203-5.10156l2.3672.65625m-3.07032.08594l1.1836.32812m12.64843-1.23437l-4.46094 5.42969m4.46094-5.4297l2.40625.48438m11.34375-.05859l-5.33203 4.57813m4.5586-3.91016l1.14062.44531m13.2461-.71094l-5.92579 3.77735m5.0625-3.23047l1.07031.60547m12.69531-1.6836l-5.09765 4.83594m5.09765-4.83594l2.32422.77735m10.85547-.91406l-4.82812 5.10937m4.82812-5.10937l2.36328.65234m-3.0664.09375l1.1836.32422m12.89843-1.00781l-4.95703 4.98437m4.95703-4.98437l2.34765.71093m-3.0703.01563l1.17577.35547m13.11328-.8047l-5.45703 4.4297m5.45703-4.4297l2.25782.95704m-3.05469-.3125l1.13281.48047m13.16406-.875l-5.82812 3.92969m5.82812-3.9297l2.16407 1.15235m-3.01172-.57812l1.08203.57422m12.92969-1.35157l-5.52735 4.33594m5.52735-4.33594l2.2461.9961M359 438.84766l1.125.49609m11.6914-2.15625l-2.92187 6.39062m2.92188-6.39062l2.44921-.14453m-2.875 1.07422l1.22657-.07422m11.63281-1.125l-1.15625 6.92969m1.15625-6.9297l2.32812-.77734M399 437.50391l-4.02734 5.76171m13.17187-5.65234l4.3164 5.54297m-3.6914-4.73828l.5039-1.1211m16.03907.00782l-3.39063 6.15625m17.47657-5.58203l-4.9336 5.0078m4.21485-4.27734l1.17578.34766m13.82422.67188l-6.86328 1.5078m5.86328-1.28905l.79687.9375m13.5586-.9297l-6.94532 1.0586"/><g clip-path="url(#ac)"><path fill="none" stroke="#000" stroke-linecap="round" stroke-linejoin="round" stroke-miterlimit="10" stroke-width=".5" d="M147.48047 426.58594l-6.96094.96484"/></g><path fill="none" stroke="#000" stroke-linecap="round" stroke-linejoin="round" stroke-miterlimit="10" stroke-width=".5" d="M147.48047 426.58594l1.4375 1.98828m11.86719-2.05469l-6.94141 1.09766m6.9414-1.09766l1.47657 1.96094m11.8789-1.53906l-7.02343.2539m7.02344-.2539l1.23046 2.12109m12.08594-2.09766l-7.02344.21094m7.02344-.21094l1.21484 2.12891m11.78907-.57813l-6.40235-2.89453m5.47266 2.47266l.07813 1.22266m14.3125-1.1797L207.23047 426m20.14844 1.5l-6.97657-.86328m5.96094.73828l.4375 1.14453m13.5-3.11719l-6.1875 3.33203m6.1875-3.33203l2.03906 1.36328m10.19141-2.57812l-4.01953 5.76172m4.01953-5.76172l2.4336.29297m9.48046-.8711l-1.21875 6.91797m1.04297-5.91015l1.16406-.38282m13.60547-.1289l-3.77734 5.92578m3.22656-5.0625l1.22266.09375m13.1289-.58594l-4.74609 5.1836m4.7461-5.1836l2.375.61328m10.39843-1.01953l-3.66406 5.9961m3.66406-5.9961l2.44922.14453m11.08203-.0039l-4.09375 5.71484m4.09375-5.71484l2.42969.32812m11.39062.11719l-5.10937 4.82422m5.10937-4.82422l2.32422.78516m11.48828-.11328l-6.10156 3.48046m6.10156-3.48047l2.07422 1.3086m-2.96093-.80469l1.03515.65625m13.27344-.95703l-6.3164 3.07422m6.3164-3.07422l1.98437 1.4414m-2.90234-.99609l1.98438 1.44532m12.0664-2.21875l-5.95312 3.73046m5.95312-3.73046l2.1289 1.22265m-2.99218-.67969l2.125 1.22266m-2.99219-.67969l1.0625.60938m13.89453-1.83203l-5.77734 4.0039m5.77734-4.0039l2.1797 1.1289m-3.01954-.54687l2.17969 1.1289m12.42578-.80859l-6.67578 2.19922m6.67578-2.19922l1.76953 1.69922m-2.74219-1.3789l1.77344 1.69921m11.52344-3.53515l-4.6914 5.23046m4.6914-5.23046l2.38281.58984m-3.0664.17187l2.3828.58985m-3.0664.17187l1.1914.29297m12.75-2.32422l-3.21093 6.2461m3.21094-6.2461l2.45312-.03515m-2.92187.9414l2.45312-.03125m-2.91797.9414l1.22657-.01562m10.33593-2.01953l2.16016 6.6875m-1.84375-5.71484l.85156-.88281m14.54297-.00391l-2.63281 6.51172m2.63281-6.51172l2.4414-.25781m12.5 1.59375l-5.88671 3.83984"/><g clip-path="url(#ad)"><path fill="none" stroke="#000" stroke-linecap="round" stroke-linejoin="round" stroke-miterlimit="10" stroke-width=".5" d="M147.51172 413.66797l-7.02344.17187"/></g><path fill="none" stroke="#000" stroke-linecap="round" stroke-linejoin="round" stroke-miterlimit="10" stroke-width=".5" d="M147.51172 413.66797l1.20703 2.13672m12.10938-2.10157l-7.02735.10157m7.02734-.10157l1.1836 2.15235m12.125-1.91016l-7.01563-.38281m7.01563.38281l1.03516 2.22266m12.14843-3.39063l-6.75 1.95313m5.76953-1.66797l.85157.8789m11.64843-3.32812l-3.15625 6.27735m12.65235-5.84375l4.48047 5.41406m-3.82813-4.6289l.46875-1.13282m11.17969 4.38281l6.50781-2.65625m-5.5586 2.26953l-.9453-.78515m18.39843 2.83984l-3.66797-5.9961m3.13282 5.125l-.6211 1.0547m15.9336-4.39063l-6.59375 2.42187m6.59375-2.42187l1.83203 1.63281m10.1211-3.35547l-3.8672 5.86719m3.3047-5.01172l1.22265.11328m14.22656 1.70313l-7.00781.52344m5.98828-.44922l.65234 1.03906m12.66016-3.33594l-4.96875 4.96875m4.2461-4.2461l1.17577.35938m12.52735-1.3789l-4.29688 5.5625m4.29688-5.5625l2.41797.41406m10.52343-.66797l-3.54687 6.0664m3.54687-6.0664l2.44922.10156m11.11328.0586l-4.04296 5.75m4.04296-5.75l2.4336.30468m11.23047-.02343l-4.7422 5.1875m4.7422-5.1875l2.375.61328m12.05859 1.5625l-6.98047.83594m6.98047-.83594l1.39844 2.01562m-2.41406-1.89453l.69921 1.00781m13.50782-1.71093l-6.73438 2m6.73438-2L375.4453 414.5m-2.70312-1.45703l1.72265 1.75m12.44532-2.39844l-6.48047 2.71875m6.48047-2.71875l1.90234 1.55078m-2.84375-1.15625l1.89844 1.55078m12.17578-2.3203l-6.11328 3.46483m6.11328-3.46484l2.07031 1.3164m-2.96094-.8125l2.07032 1.31641m-2.95703-.8125l1.03515.66016m13.65625-2.23437l-5.3125 4.60156m5.3125-4.60156l2.28906.88671m-3.0625-.21875l2.28907.88672m-3.0625-.21484l2.28906.88281m12.41016-2.39844l-4.98438 4.95313m4.98438-4.95313l2.34375.72266m-3.07032-.0039l2.34375.72656m-3.07031-.00391l2.34766.72266m12.76562-1.76172l-5.67578 4.14453m5.67578-4.14453l2.20703 1.07031m-3.03515-.46484l1.10547.53515m13.60937.08203l-6.8164 1.70313m6.8164-1.70313l1.64063 1.82032m-2.63282-1.57422l1.64063 1.82422m-2.63281-1.57422l.8203.91015m14.58204-.5664l-7.02734.02344"/><g clip-path="url(#ae)"><path fill="none" stroke="#000" stroke-linecap="round" stroke-linejoin="round" stroke-miterlimit="10" stroke-width=".5" d="M467.07422 413.74219l1.16015 2.16406"/></g><path fill="none" stroke="#000" stroke-linecap="round" stroke-linejoin="round" stroke-miterlimit="10" stroke-width=".5" d="M466.05469 413.7461l1.15625 2.16015m-2.17969-2.15625l.57813 1.07813"/><g clip-path="url(#af)"><path fill="none" stroke="#000" stroke-linecap="round" stroke-linejoin="round" stroke-miterlimit="10" stroke-width=".5" d="M147.5 400.1211l-7 .63671"/></g><path fill="none" stroke="#000" stroke-linecap="round" stroke-linejoin="round" stroke-miterlimit="10" stroke-width=".5" d="M147.5 400.1211l1.34375 2.05077m11.97656-1.49609l-7.01172-.47656m7.01172.47656l1.0039 2.23828m12.32032-2.5625l-7.02734.17188m6.0039-.14453l.60157 1.0664m10.44922-4.51172l-.45313 7.01172m.38672-5.99219l1.11719-.5078m10.35156-.08985l3.3711 6.16797m-2.87891-5.26953l.67578-1.02735m12.0625.17969l3.54297 6.0664m-3.02735-5.18359l.64453-1.04687m17.41407 3.60937l-6.97657-.82812m5.96094.71094l.44531 1.14062m13.64453-2.78125l-6.49609 2.6875m6.4961-2.6875l1.89062 1.5625m-2.83594-1.17188l.94531.78125m13.4922-.60156l-6.85157 1.55078m5.85547-1.32812l.80078.92969m13.42578-1.46875l-6.67969 2.17968m5.70704-1.85937l.8828.84765m9.66798 3.41407l.79297-6.98438m14.95703.63281l-4.07813 5.72266m13.67188-5.94531l3.36718 6.16797m-2.8789-5.27344l.67578-1.02344m16.95312 1.58985l-6.23437 3.24218m6.23437-3.24218l2.01954 1.39062m10.82421-2.07812l-5.29296 4.62109m5.29296-4.6211l2.29297.8711m-3.0625-.19922l1.14453.4375m13.60938.03906l-6.63281 2.32422m6.6328-2.32422l1.80079 1.66407m-2.76562-1.32813l.90234.83203m12.44922 2.57031l-4.77735-5.15625m4.77735 5.15625l-.8086 2.31641m15.0586-3.75l-6.64453-2.28515m5.67578 1.95312l.1914 1.21094m14.14454-2.99219l-6.75391 1.9375m6.7539-1.9375l1.70704 1.76563m-2.6875-1.48438l.85156.88281M400.5 400.3672l-7.02734.14453m7.02734-.14453l1.19531 2.14062m-2.21875-2.1211l.59766 1.07032m13.64844-1.82031l-6.84375 1.60547m6.84375-1.60547l1.61718 1.84375m-2.61328-1.60938l.8086.92188m13.16406-2.04297l-6.16406 3.375m6.16406-3.375l2.05078 1.34766m-2.94922-.85547l2.05078 1.34765m-2.94531-.85546l1.02344.67187m14.25781-1.29297l-6.51172 2.64844m6.51172-2.64844l1.88281 1.57031M439.23828 399.5l1.88281 1.57031m-2.82812-1.1875l.9414.78906m14.41016-1.125l-6.79687 1.78125m6.79687-1.78125l1.66406 1.8047m-2.65234-1.54298l1.66406 1.80079m-2.65234-1.54297l.83203.90234m14.46094-1.42188l-6.79688 1.78516"/><g clip-path="url(#ag)"><path fill="none" stroke="#000" stroke-linecap="round" stroke-linejoin="round" stroke-miterlimit="10" stroke-width=".5" d="M466.96094 399.54688l1.66406 1.80078"/></g><path fill="none" stroke="#000" stroke-linecap="round" stroke-linejoin="round" stroke-miterlimit="10" stroke-width=".5" d="M465.97266 399.80469l1.66406 1.80078m-2.65625-1.53906l.83594.89843"/><g clip-path="url(#ah)"><path fill="none" stroke="#000" stroke-linecap="round" stroke-linejoin="round" stroke-miterlimit="10" stroke-width=".5" d="M147.5 387.4414l-7-.6328"/></g><path fill="none" stroke="#000" stroke-linecap="round" stroke-linejoin="round" stroke-miterlimit="10" stroke-width=".5" d="M147.5 387.4414l.95313 2.25782m12.20312-3.66016l-6.6836 2.16797m6.6836-2.16797l1.76563 1.70703m10.51562-3.27343l-4.61328 5.30078m4.61328-5.30078l2.39063.55468m11.1875-.29687l-5.14063 4.78515m5.14063-4.78515l2.3203.80078m10.26954-1.39844l-3.6914 5.98047m3.15624-5.10937l1.22266.07812m14.28906 1.79688l-7.01172.48828m5.98828-.41797l.65235 1.04297m13.65625-.36719l-6.95313-1.0039m6.95313 1.0039l.83203 2.3086m12.51562-2.96094l-7.01953.30078m6-.25781l.6211 1.05859m13.66015-1.57813L247.0625 387.75m6.91406-1.2539l1.51953 1.92577m11.625-2.54296l-6.5703 2.48828m6.5703-2.48828l1.84375 1.61718m-2.80078-1.2539l.92188.8086m13.21875 1.61718l-6.3086-3.08985m6.3086 3.08985l.08203 2.45312m13.58594-4.1953l-7.01563.39452m7.01563-.39453l1.27343 2.10156m11.96875-1.16406l-6.86718-1.48047m6.86718 1.48047l.67188 2.35938m12.35937-4.65625l-6.30078 3.11328m5.38281-2.66016l.9961.71485m13.46484-.57813l-6.75781 1.9336m5.77344-1.65235l.85156.88281m13.01172-2.1211l-5.88281 3.84767m5.02734-3.28907l1.07422.59375m13.51172 1.80469l-6.71485-2.0664m6.71485 2.0664l.46484 2.41016m13.0039-3.37891l-7.02343-.1289m7.02344.1289l1.11328 2.1875m-2.13281-2.20703l1.10937 2.1875m13.21875-2.46875l-7.01172.47265m7.01172-.47265l1.29688 2.08594m-2.31641-2.01563L386.80469 388m13.6875-1.11328l-7.01172.47265m7.01172-.47265l1.29297 2.08594m-2.3125-2.01563L400.11719 388m13.30078-2.5l-6.23438 3.2461m6.23438-3.2461l2.02344 1.39063m-2.9297-.91797l1.01173.6953m13.16406-1.2539l-6.14063 3.41797m6.14063-3.41797l2.0586 1.33594m-2.95313-.83984l1.03125.66796m13.3164-.8828l-6.41796 2.85546m6.41796-2.85547l1.9336 1.51172m-2.86719-1.09375l1.9336 1.51172m12.34374-1.86328l-6.47656 2.72265m6.47656-2.72265l1.90235 1.55469m-2.84375-1.15625l.94922.77343m13.34765-1.0703l-6.55859 2.51952"/><g clip-path="url(#ai)"><path fill="none" stroke="#000" stroke-linecap="round" stroke-linejoin="round" stroke-miterlimit="10" stroke-width=".5" d="M466.83984 385.86328l1.85547 1.60938"/></g><path fill="none" stroke="#000" stroke-linecap="round" stroke-linejoin="round" stroke-miterlimit="10" stroke-width=".5" d="M465.88672 386.23047l.92578.80469"/><g clip-path="url(#aj)"><path fill="none" stroke="#000" stroke-linecap="round" stroke-linejoin="round" stroke-miterlimit="10" stroke-width=".5" d="M147.46094 374.41406l-6.92188-1.21094"/></g><path fill="none" stroke="#000" stroke-linecap="round" stroke-linejoin="round" stroke-miterlimit="10" stroke-width=".5" d="M160.66406 374.8711l-6.69922-2.125m19.5547-.9375l-5.77735 4m4.9375-3.41798l1.08984.5625m13.46484-.3789l-6.57812 2.46875m6.57813-2.46875l1.83984 1.6211m-2.79688-1.26173l.92188.8086m13.5625-.20313l-7.0039.53516m7.0039-.53516l1.3164 2.07422m-2.33203-1.9961l.65625 1.03907m13.59375-.03906L207.15625 373m6.83984 1.61719l.6211 2.375M213 374.3828l.3125 1.1875m13.80078-.36719l-6.44922-2.78906m6.44922 2.78906l.19922 2.44532m13.24219-2.78125l-6.69922-2.11719m5.72656 1.8086l.22266 1.20702m14.22656-1.77734l-7.01953-.35937m5.9961.30859l.51952 1.10938m13.82032-1.3047l-7.02344.13282m7.02344-.13281l1.1914 2.14453m12.08594-1.5586l-6.94922-1.03906m6.94922 1.03906l.82031 2.3125m-1.83203-2.46484l.41016 1.15625m13.88281-.82031l-6.88281-1.40625m6.88281 1.40625l.69531 2.35156m12.63282-2.40234l-6.90625-1.30469m5.90234 1.11328l.36328 1.17188m13.72266-.23047l-6.44141-2.8086m5.5039 2.40235l.09376 1.22265m14.1328-.7539l-6.38671-2.92969m5.45703 2.5039l.07031 1.22266m14.4922-2.38672l-7.02345.2461m6-.20703l.61329 1.0625m13.60156-.04688l-6.77735-1.85937m6.77735 1.85937l.53515 2.39453m-1.52343-2.66406l.26953 1.19531m14.00781-.83984l-6.72656-2.03125m6.72656 2.03125l.47656 2.40625m-1.45312-2.70313l.23828 1.20704m14.19531-1.66797l-7.00781-.51563m7.00781.51563l.98828 2.24609m12.26563-3.1914l-6.89063 1.375m6.89063-1.375l1.55469 1.89843m11.39453-2.90234L407.22266 375.5m6.15625-3.38281l2.05468 1.34375m10.66016-2.14453l-4.95312 4.98437m4.95312-4.98437l2.34766.71093m11.32812-.28906l-5.67578 4.14063m5.67578-4.14063l2.20703 1.07031m-3.03125-.46875l1.10157.53516m13.41406-.48828l-6.42969 2.83984m6.42969-2.83984l1.92969 1.51953m-2.8672-1.10547l.96485.75781m13.5586-.1875l-6.97266.8711"/><g clip-path="url(#ak)"><path fill="none" stroke="#000" stroke-linecap="round" stroke-linejoin="round" stroke-miterlimit="10" stroke-width=".5" d="M467.04688 373.3711l1.41406 2.0078"/></g><g clip-path="url(#al)"><path fill="none" stroke="#000" stroke-linecap="round" stroke-linejoin="round" stroke-miterlimit="10" stroke-width=".5" d="M144.21484 356.98438L143.78516 364"/></g><path fill="none" stroke="#000" stroke-linecap="round" stroke-linejoin="round" stroke-miterlimit="10" stroke-width=".5" d="M156.5039 363.91016l1.625-6.83594m9.51563 5.26953l5.97266-3.69922m-5.10547 3.16016l-1.0586-.61719m13.39063.95703l6.20313-3.30078m12.51171 4.3086l-4.59375-5.31641m17.875 5.34375l-4.53125-5.3711m3.875 4.58985l-.45703 1.13672m14.42188-.35157l-4.51563-5.3828m3.85938 4.60155l-.46094 1.13672m12.22656.46875l-.10547-7.02734m11.91016 6.71094l2.91797-6.39454m13.0586 6.4961l-2.40626-6.60156m2.05469 5.64062l-.82031.91406m15.9961-1.01953l-5.42579-4.46875m5.42578 4.46875l-.48828 2.40625m14.35156-3.33594l-6.52344-2.60937m6.52344 2.60938l.26563 2.4414m12.8164-1.96094l-6.05468-3.5703m6.05468 3.5703l-.10937 2.45313m13.52734-2.64453l-6.26172-3.1836m5.35157 2.71875l.02343 1.22657m11.89844 1.05859l-1.65625-6.82813M331 362.91406l-.91797.8164m15.09375-.03515l-2.89844-6.40234m2.47657 5.46875l-.75.97265m16.03906-1.41796l-6.0039-3.64844m6.0039 3.64844l-.14063 2.44921m13.66016-2.83984l-6.41406-2.86328m6.41406 2.86328l.17188 2.44922m13.41796-3.41406l-6.96484-.9375m6.96484.9375l.85547 2.30078m12.41797-3.49219l-6.8789 1.44531m6.8789-1.4453l1.57031 1.8828m11.6797-2.14453l-6.7461 1.96875m6.7461-1.96875l1.71093 1.75781m10.92969-3.02343l-5.39844 4.5m5.39844-4.5l2.26953.92969m10.54687-1.41797l-4.40234 5.47656m4.40234-5.47656l2.41016.46093m10.07422-.95703l-2.74219 6.47266m2.34375-5.53125l1.22266-.10938m13.52734-.15625l-4.8164 5.1172m4.11718-4.3711l1.1836.32031"/><g clip-path="url(#am)"><path fill="none" stroke="#000" stroke-linecap="round" stroke-linejoin="round" stroke-miterlimit="10" stroke-width=".5" d="M145.02344 347.17969l-.01953-.19922-.0586-.19531-.09375-.17579-.46094-.375-.1914-.05859-.19922-.01953-.19922.01953-.1914.0586-.46094.375-.09375.17578-.0586.1953-.01953.19923.01953.19922.0586.1914.09375.17578.46094.375.1914.0586.19922.01953.19922-.01953.1914-.0586.46094-.375.09375-.17578.0586-.1914.01953-.19922"/></g><path fill="none" stroke="#000" stroke-linecap="round" stroke-linejoin="round" stroke-miterlimit="10" stroke-width=".5" d="M156.65625 350.6289l1.32031-6.90234m10.91016 6.5l3.48828-6.09765m-2.98047 5.21093l-1.22656-.03515m12.80469-.25781l5.9453-3.73829m-5.9453 3.73829l-2.12891-1.21875m14.97656.0664l6.8789-1.4336m-5.8789 1.22657l-.78515-.94531m13.03515.19531l7.01172.48047m-5.99219-.41016l-.5-1.1211m12.9336 2.30079l6.73437-2.01953m-5.7539 1.72656l-.86328-.875m13.22265 1.2461l6.6836-2.17579m-5.71094 1.85938l-.88281-.85156m13.18359 1.01953l6.76953-1.8789m-5.78516 1.60546l-.84375-.89063m13.27344 1.46875l6.57031-2.48437m-5.61718 2.1211l-.92188-.8086m14.0039 2.32813l5.12891-4.80079m-4.3828 4.10157l-1.16016-.39454m16.0703 2.19922l.44923-7.01171m-.38282 5.99218l-1.12109.5039m15.55469.39063l-1.92188-6.76171m1.64063 5.77734l-.88281.85156m14.21093.19531l-1.38672-6.88671m1.38672 6.88671l-1.89843 1.5586m13.48046-1.64453l2.08204-6.71485m-1.78125 5.73828l-1.20313.22657m13.0039.08593l4.50782-5.38671m-3.85156 4.60546l-1.20313-.2539m16.08594 1.85547l.0586-7.02735m-.0586 7.02735l-2.17578 1.1328m17.47265-1.72655l-3.90625-5.83985m3.90625 5.83985l-1.16015 2.16406m15.79297-3.79688l-6.53907-2.5703m6.53907 2.5703l.27734 2.4375m13.17188-2.85156l-6.8086-1.7461m5.8164 1.4922l.28907 1.1914m13.92578-2.98437l-6.625 2.34765m5.66016-2.00781l.90625.82813m12.39844-2.6172l-4.67188 5.25m4.67188-5.25l2.3828.57813m10.19141-1.08594l-3.1914 6.26172m3.1914-6.26171l2.45313-.04297m10.94531.08593l-3.35547 6.17579m2.86719-5.27735l1.22656.01172m13.73828.11328l-5.68359 4.13281m4.85938-3.53515l1.10156.53906"/><g clip-path="url(#an)"><path fill="none" stroke="#000" stroke-linecap="round" stroke-linejoin="round" stroke-miterlimit="10" stroke-width=".5" d="M147.3086 332.67969l-6.6172 2.36719"/></g><path fill="none" stroke="#000" stroke-linecap="round" stroke-linejoin="round" stroke-miterlimit="10" stroke-width=".5" d="M146.34766 333.02344l.90625.82812M159 336.94531l-3.36719-6.16797m2.875 5.27344l-.67578 1.02344m13.05469.29297l-.51172-7.00781m.4375 5.98828L169.77344 337m12.0586-.32813l4.22655-5.61718m-3.60937 4.80078l-1.21484-.1914m12.52734-1.47657l6.9961-.64844m-5.97657.55469l-.67578-1.02734m17.95703 3.98046l-2.97656-6.36718m17.88672 4.8711l-6.16407-3.375m5.26563 2.8828l-.01563 1.23047m14.53907-1.5039l-6.78125-1.84375m5.79297 1.57421l.26953 1.19922m13.54687.1211l-5.8125-3.94531m12.76953 2.6289l6.90625-1.3125m6.4961 1.66016l6.73437-2.00781m-5.75781 1.71484l-.85938-.8711m13.44922 1.78907l6.22657-3.25781m-6.22657 3.2578l-2.02343-1.3828m15.9375 2.20703l5.02734-4.90625m-5.02734 4.90625l-2.33594-.7422m17.84765 1.78907l.64063-7m-.64063 7l-2.26562.94922m14.80469-1.10938l2.1875-6.67968m-2.1875 6.67969l-2.41797.41796m2.73828-1.39062l-1.21094.21094m13.01953.09375l4.5586-5.34766m-4.5586 5.34766l-2.39453-.52735m3.0586-.25l-1.19922-.26172m13.64843.85157l4.96875-4.96875m-4.96875 4.96875l-2.34765-.71875m17.17578 1.60937l1.9375-6.7539m-1.65625 5.77343l-1.19922.2539m17.94922-.45702l-5.49219-4.38281m4.6914 3.74609l-.22265 1.20312m15.05469-2.16406l-6.92578-1.1914m5.91797 1.01953l.3828 1.16406m13.62892-3.13672l-6.3047 3.10156m5.39063-2.64844l.99219.71875m13.07031-1.47265l-5.97265 3.70312m5.97265-3.70312l2.1211 1.23437m11.2539-1.1328l-6.09375 3.5m6.09375-3.5l2.07813 1.30468m11.48828-.77344l-6.58984 2.4375m6.58984-2.4375l1.83203 1.63281m11.67188-.85937l-6.96875.89062"/><g clip-path="url(#ao)"><path fill="none" stroke="#000" stroke-linecap="round" stroke-linejoin="round" stroke-miterlimit="10" stroke-width=".5" d="M467.04688 333.41797l1.41796 2"/></g><g clip-path="url(#ap)"><path fill="none" stroke="#000" stroke-linecap="round" stroke-linejoin="round" stroke-miterlimit="10" stroke-width=".5" d="M147.15234 319l-6.30468 3.09766"/></g><path fill="none" stroke="#000" stroke-linecap="round" stroke-linejoin="round" stroke-miterlimit="10" stroke-width=".5" d="M146.23438 319.44922l.99609.71875m12.16406 3.21484l-4.15625-5.66797m3.55078 4.84375l-.53515 1.10157m13.62109.17187l-2.48828-6.57031m2.48828 6.57031l-1.61719 1.84766m12.9961-1.6875l1.3828-6.89063m-1.17968 5.89063l-1.17578.35156m14.1836.625l1.59374-6.84375m-1.36328 5.84766l-1.1875.3164m17.875-.6289l-5.61719-4.22266m4.80079 3.60938l-.19141 1.21093m14.97656-2.11719l-6.92578-1.1875m5.92188 1.01563l.3828 1.16406m13.5625-3.26172l-6.17577 3.35547m5.27734-2.86719l1.02344.67579m12.70312-1.84766l-5.20312 4.72266m4.44922-4.03516l1.15234.41406m11.96875-1.83984l-3.30469 6.19922m2.82422-5.29688h1.22657m10.8203-1.3164l.19141 7.02343m-.16406-6l1.0664-.60546m10.0547.40625l4.52734 5.375m-3.8711-4.58985l.45704-1.14062m10.94922 3.04296h7.02734m-6.0039 0l-.57423-1.08203m14.55079 4.08204l3.66015-6m-3.125 5.1289l-1.22656-.07422m16.26172 1.4336l-.84766-6.97657m.84766 6.97657l-2.01172 1.40625m14.01953-1.4922l1.76563-6.80077m-1.76563 6.80078l-2.38672.57031m2.64453-1.5586l-2.38672.57032m14.8086.1836l3.03515-6.33594m-3.03515 6.33593l-2.45313.10547m2.89453-1.02734l-1.22656.05469m13.70313.64453l3.82812-5.89063m-3.82812 5.89063l-2.44532-.21485m17.09766.73438l1.15625-6.92969m-1.15625 6.92969l-2.32813.78125m16.3047-.73438l-.16798-7.02343m.14454 6.0039l-1.07032.60156m15.46875.23047l-2.28515-6.64453m1.94921 5.67578l-.83593.89844m15.75781-.70312l-4.83203-5.10157m4.1289 4.35938l-.39062 1.16406m15.34375-4.03125l-6.69922 2.11719m5.72656-1.8086l.875.85938m13.47657-.9414l-6.82813 1.66796m6.82813-1.66797l1.6328 1.82813m11.625-2.03125l-6.71483 2.07031"/><g clip-path="url(#aq)"><path fill="none" stroke="#000" stroke-linecap="round" stroke-linejoin="round" stroke-miterlimit="10" stroke-width=".5" d="M466.91797 319.51172l1.74219 1.73047"/></g><path fill="none" stroke="#000" stroke-linecap="round" stroke-linejoin="round" stroke-miterlimit="10" stroke-width=".5" d="M465.9414 319.8125l.8711.86719"/><path fill="#ff3030" fill-rule="evenodd" d="M433.3164 472.08594h7.69141V461.9414h-7.6914v10.14453"/><path fill="azure" fill-rule="evenodd" d="M435.14844 463.77344h.83594v5.73828h3.1914v.74219h-4.02734v-6.48047"/><path fill="#00f" fill-rule="evenodd" d="M392.67578 467.64844h8.6211V457.5039h-8.6211v10.14453"/><path fill="azure" fill-rule="evenodd" d="M394.51172 459.33594h.83203v2.82422h3.28516v-2.82422h.83203v6.48047h-.83203v-2.91797h-3.28516v2.91797h-.83203v-6.48047"/><path fill="#ff3030" fill-rule="evenodd" d="M309.04297 445.45703h7.6914V435.3125h-7.6914v10.14453"/><path fill="azure" fill-rule="evenodd" d="M310.875 437.14453h.83203v5.73828h3.19531v.74219H310.875v-6.48047"/><path fill="#00f" fill-rule="evenodd" d="M392.67578 436.57813h8.6211v-10.14454h-8.6211v10.14454"/><path fill="azure" fill-rule="evenodd" d="M394.51172 428.26563h.83203v2.82421h3.28516v-2.82421h.83203v6.48046h-.83203v-2.91406h-3.28516v2.91406h-.83203v-6.48046"/><path fill="#00f" fill-rule="evenodd" d="M219.58203 409.94922h8.61719v-10.14453h-8.61719v10.14453"/><path fill="azure" fill-rule="evenodd" d="M221.41406 401.63672h.83203v2.82422h3.28907v-2.82422h.83203v6.48047h-.83203v-2.91797h-3.28907v2.91797h-.83203v-6.48047"/><path fill="#ff3030" fill-rule="evenodd" d="M180.33203 392.19531h7.6914v-10.14453h-7.6914v10.14453"/><path fill="azure" fill-rule="evenodd" d="M182.16406 383.88281h.83203v5.73828h3.19532v.7422h-4.02735v-6.48048"/><path fill="#ff3030" fill-rule="evenodd" d="M309.04297 392.19531h7.6914v-10.14453h-7.6914v10.14453"/><path fill="azure" fill-rule="evenodd" d="M310.875 383.88281h.83203v5.73828h3.19531v.7422H310.875v-6.48048"/><path fill="#ffffe0" fill-rule="evenodd" d="M386.1289 419.78516h22.1797v-10.19141h-22.1797v10.1914"/><path fill-rule="evenodd" d="M389.625 411.42578h.51172v6.29688h-.78906v-4.4922h-1.38672v-.55468l.5586-.0664.2539-.05079.23047-.08984.20312-.14453.17188-.20703.14062-.29688.10547-.39453m4.8164 0l.22657.01953.22265.05469.20704.08984.1953.1211.1836.14844.17188.17578.30078.42187.2461.49219.17968.54687.10938.57813.03906.59375-.03906.58984-.10938.58594-.17969.55469-.2461.5-.30077.42969-.17188.17968-.1836.15235-.1953.125-.20704.08984-.22265.0586-.22656.01952-.23047-.01953-.21875-.05859-.20703-.08984-.19922-.125-.1836-.15235-.17187-.17969-.30078-.42968-.24219-.5-.17969-.55469-.11328-.58594-.03515-.58984h.83203l.02734.5625.08203.5039.125.44532.16406.3711.19141.30077.21094.22266.22265.13672.22657.04687.22656-.04687.22265-.13672.21094-.22266.1914-.30078.16017-.3711.125-.4453.08203-.50391.03125-.5625-.03125-.5625-.08204-.5-.125-.4375-.16015-.36328-.1914-.29297-.21094-.21485-.22266-.1328-.22656-.04298-.22657.04297-.22265.13281-.21094.21485-.1914.29297-.16407.36328-.125.4375-.08203.5-.02734.5625h-.83204l.03516-.59375.11328-.57813.17969-.54687.24219-.49219.30078-.42187.17187-.17579.1836-.14843.19922-.1211.20703-.08984.21875-.05469.23047-.01953m5.08984 0h.51172v6.29688h-.78906v-4.4922h-1.38672v-.55468l.5586-.0664.2539-.05079.22656-.08984.20313-.14453.17578-.20703.14062-.29688.10547-.39453m2.82422 2.17578h.78515l.01954-.3164.0625-.28516.09765-.2539.14063-.21485.17969-.17578.22265-.1289.26563-.07813.30859-.02735.23828.01954.22266.0625.20703.10156.17578.14062.15234.17188.10938.20703.07422.23437.02344.26563-.01954.26953-.0664.22266-.10938.1914-.15625.17188-.19922.16406-.25.16406-.6328.39063-.53907.3125-.4375.3164-.34375.32422-.26563.33594-.1914.35156-.125.3711-.0664.39062-.02345.42188h4.21485v-.7422h-3.33203l.08203-.28515.11328-.23437.14844-.20313.1875-.17969.23046-.17187.27735-.17578.71875-.41797.41406-.20313.34766-.23046.27734-.25391.22266-.26563.16406-.27734.10938-.28515.0625-.28516.02343-.28125-.04297-.38281-.12109-.34766-.1875-.3086-.25-.26171-.30469-.21485-.34375-.15625-.38281-.09765-.40625-.03516-.4336.03516-.39843.09765-.35547.16407-.30469.23437-.25.30469-.1836.375-.11718.44531-.03906.51953"/><path fill="#ffffe0" fill-rule="evenodd" d="M395.0039 399.77734h22.1797v-10.1914h-22.1797v10.1914"/><path fill-rule="evenodd" d="M398.5039 391.41797h.50782v6.29687h-.78516v-4.48828h-1.39062v-.5586l.5625-.0625.25-.05468.23047-.08984.20312-.14063.17578-.21094.14063-.29296.10547-.39844m4.8125 0l.23046.01953.21875.0586.20704.08593.19921.1211.1836.15234.17187.17578.30079.41797.24218.49219.17969.54687.11328.58203.03516.58985-.03516.59375-.11328.58203-.17969.55469-.24219.5039-.30078.42578-.17187.17969-.1836.15234-.19921.125-.20704.09375-.21875.0547-.23046.01952-.22657-.01953-.22265-.05469-.20703-.09375-.19532-.125-.18359-.15234-.17188-.17969-.30078-.42578-.24609-.5039-.17969-.5547-.10937-.58202-.03906-.59375h.83203l.03125.5625.08203.5078.125.44142.16015.375.19141.30078.21094.21875.22265.13671.22657.04688.22656-.04688.22265-.13671.21094-.21875.1914-.30079.16407-.375.125-.4414.08203-.50781.02735-.5625-.02735-.5625-.08203-.5-.125-.4336-.16406-.36719-.1914-.29296-.21094-.21485-.22266-.1289-.22656-.04688-.22657.04688-.22265.1289-.21094.21485-.1914.29296-.16016.3672-.125.43359-.08203.5-.03125.5625h-.83204l.03907-.58985.10937-.58203.17969-.54687.2461-.4922.30077-.41796.17188-.17578.1836-.15235.1953-.12109.20704-.08594.22265-.05859.22657-.01953m5.09375 0h.5078v6.29687h-.78515v-4.48828h-1.39062v-.5586l.5586-.0625.2539-.05468.23047-.08984.20312-.14063.17188-.21094.14453-.29296.10547-.39844m2.8203 2.17578h.78907l.01953-.3164.0586-.28516.09765-.2539.14063-.21485.1836-.17188.22265-.1289.26562-.08204.3086-.02734.23828.02344.22265.0625.20313.10156.17969.13672.14843.17188.11329.20703.0703.23828.02735.26172-.02344.26953-.0664.22656-.10938.1914-.15625.17188-.19922.16016-.24609.16797-.63672.38671-.53515.3125-.4375.31641-.34766.32422-.26172.33594-.1914.35156-.125.3711-.07032.39452-.01953.41797h4.21094v-.74218h-3.33203l.08203-.28125.11328-.23829.14844-.20312.1875-.17969.23046-.17187.28125-.17578.71485-.41407.41797-.20703.34375-.23047.28125-.25.21875-.26953.16406-.27734.11328-.28125.0625-.28516.01953-.28125-.04297-.38672-.11718-.34765L415 392.1875l-.25-.26563-.30078-.21093-.34766-.16016-.3789-.09765-.40625-.03516-.4375.03515-.39844.09766-.35156.16797-.3047.23438-.25.30468-.1875.3711-.11327.44921-.04297.51563"/><path fill="#ffffe0" fill-rule="evenodd" d="M252.97656 388.84766h22.17969v-10.19532h-22.17969v10.19532"/><path fill-rule="evenodd" d="M256.47656 380.48828h.50781v6.29297h-.78515v-4.48828h-1.39063v-.5586l.5625-.0625.25-.05468.23047-.08985.20313-.14062.17578-.21094.14062-.29297.10547-.39453m4.8125 0l.23047.01563.21875.05859.20703.08984.19531.1211.1875.14844.17188.17578.30078.41796.24219.4961.17969.54297.11328.58203.03515.58984-.03515.59375-.11328.58203-.1797.5547-.24218.5039-.30078.42578-.17188.17969-.1875.15625-.1953.12109-.20704.09375-.21875.05469-.23047.01953-.22656-.01953-.22266-.05469-.20703-.09375-.19531-.1211-.1836-.15624-.17187-.1797-.30078-.42577-.2461-.5039-.17968-.5547-.10938-.58203-.03906-.59375h.83203l.03125.5625.08203.50781.125.44141.16016.375.1914.30078.21094.22266.22266.13672.22656.04687.22656-.04687.22266-.13672.21094-.22266.1914-.30078.16407-.375.125-.4414.08203-.50782.02734-.5625-.02734-.5625-.08203-.5-.125-.4336-.16406-.36718-.19141-.29297-.21094-.21484-.22265-.1289-.22657-.04688-.22656.04687-.22266.1289-.21093.21485-.19141.29297-.16016.36719-.125.4336-.08203.5-.03125.5625h-.83203l.03906-.58985.10938-.58203.17969-.54297.24609-.4961.30078-.41796.17188-.17579.18359-.14843.19531-.1211.20703-.08984.22266-.0586.22656-.01562m5.09375 0h.50781v6.29297h-.78515v-4.48828h-1.39063v-.5586l.5586-.0625.2539-.05468.23047-.08985.20313-.14062.17187-.21094.14453-.29297.10547-.39453m2.82031 2.17188h.78907l.01953-.3125.0586-.28907.09765-.25.14062-.21875.1836-.17187.22265-.1289.26563-.08204.3086-.02734.23437.02344.22656.0625.20313.10156.17968.13672.14844.17578.11328.20312.07031.23828.02735.26172-.02344.26953-.0664.22657-.10938.1914-.15625.17188-.19922.16015-.2461.16797-.63671.38672-.53516.3125-.4375.32031-.34765.32422-.26172.33594-.19141.34766-.125.37109-.07031.39453-.01953.41797h4.21093v-.74219h-3.33203l.08203-.28125.11329-.23828.14843-.19922.1875-.1836.23047-.16796.28125-.17578.71485-.41797.41796-.20703.34375-.23047.28125-.25.21875-.26563.16407-.28125.11328-.28125.0625-.28515.01953-.28125-.04297-.38281-.11719-.34766-.1914-.3086-.25-.26562-.30079-.21094-.34765-.16015-.3789-.09766-.40626-.03125-.4375.03125-.39844.09766-.35156.16797-.3086.23437-.24608.30469-.1875.375-.11329.44531-.04296.51563"/><path fill="#ffffe0" fill-rule="evenodd" d="M155.71094 410.17969h22.17969v-10.1914h-22.1797v10.1914"/><path fill-rule="evenodd" d="M159.21094 401.82031h.50781v6.29688h-.78516v-4.48828h-1.39062v-.5586l.5586-.0625.2539-.05469.23047-.08984.20312-.14062.17188-.21094.14453-.29297.10547-.39844m4.8125 0l.23047.01953.21875.0586.20703.08594.19531.12109.1836.15234.17187.17578.30469.41797.24218.49219.1797.54688.10937.58203.03906.58984-.03906.59375-.10938.58203-.17969.55469-.24218.5039-.3047.42579-.17187.17968-.18359.15235-.19531.125-.20703.09375-.21875.05469-.23047.01953-.23047-.01954-.21875-.05468-.20703-.09375-.19531-.125-.1836-.15235-.17187-.17968-.3047-.42579-.24218-.5039-.17969-.55469-.10937-.58203-.03906-.59375h.83203l.02734.5625.08203.5039.1289.44532.16017.375.1914.30078.21094.21875.22266.13672.22656.04687.22656-.04687.22266-.13672.21093-.21875.19141-.30078.16016-.375.1289-.44531.07813-.50391.03125-.5625-.03125-.5625-.07813-.5-.1289-.4336-.16016-.36718-.1914-.29297-.21094-.21484-.22266-.12891-.22656-.04688-.22656.04688-.22266.1289-.21094.21485-.1914.29297-.16016.36719-.1289.43359-.08204.5-.02734.5625h-.83203l.03906-.58984.10937-.58204.1797-.54687.24218-.49219.30469-.41797.17187-.17578.1836-.15234.1953-.1211.20704-.08593.21875-.0586.23047-.01953m5.08984 0h.51172v6.29688h-.78906v-4.48828h-1.38672v-.5586l.5586-.0625.2539-.05469.22656-.08984.20313-.14062.17578-.21094.14062-.29297.10547-.39844m2.82422 2.17578h.78906l.01953-.3164.0586-.28516.09765-.2539.14063-.21485.17969-.17187.22656-.12891.26172-.08203.3086-.02735.23827.02344.22656.0625.20313.10156.17969.13672.14844.17188.11328.20703.0703.23828.02345.26172-.01953.26953-.06641.22266-.10938.19531-.15625.16797-.19922.16406-.24609.16406-.63672.39063-.53515.3125-.4375.3164-.34766.32422-.26563.33594-.1875.35156-.125.3711-.0703.39453-.01954.41797h4.21094v-.74219h-3.33203l.08203-.28125.11328-.23828.14844-.20313.1875-.17968.23047-.17188.27734-.17578.71875-.41406.41406-.20703.34766-.23047.28125-.25.21875-.26953.16406-.27735.10938-.28515.0664-.28125.01953-.28125-.04297-.38672-.12109-.34766-.1875-.30469-.25-.26562-.30469-.21094-.34375-.16015-.3828-.09766-.40626-.03516-.4336.03516-.39843.09765-.35547.16797-.30469.23438-.24609.30078-.1875.375-.11719.44922-.03906.51562"/></g></defs><use xlink:href="#ar"/></svg>