<svg xmlns="http://www.w3.org/2000/svg" role="img" xmlns:xlink="http://www.w3.org/1999/xlink" viewBox="142.45 309.95 326.84 171.84"><defs><clipPath id="a"><path d="M144 311.67188h324v168.65625H144zm0 0"/></clipPath><clipPath id="b"><path d="M144 479h4v1.32813h-4zm0 0"/></clipPath><clipPath id="c"><path d="M147 480h2v.32813h-2zm0 0"/></clipPath><clipPath id="d"><path d="M146 480h2v.32813h-2zm0 0"/></clipPath><clipPath id="e"><path d="M153 479h9v1.32813h-9zm0 0"/></clipPath><clipPath id="f"><path d="M160 480h3v.32813h-3zm0 0"/></clipPath><clipPath id="g"><path d="M159 480h2v.32813h-2zm0 0"/></clipPath><clipPath id="h"><path d="M166 479h9v1.32813h-9zm0 0"/></clipPath><clipPath id="i"><path d="M173 480h3v.32813h-3zm0 0"/></clipPath><clipPath id="j"><path d="M172 480h2v.32813h-2zm0 0"/></clipPath><clipPath id="k"><path d="M180 479h8v1.32813h-8zm0 0"/></clipPath><clipPath id="l"><path d="M187 480h2v.32813h-2zm0 0"/></clipPath><clipPath id="m"><path d="M186 480h2v.32813h-2zm0 0"/></clipPath><clipPath id="n"><path d="M193 480h9v.32813h-9zm0 0"/></clipPath><clipPath id="o"><path d="M200 480h3v.32813h-3zm0 0"/></clipPath><clipPath id="p"><path d="M199 480h2v.32813h-2zm0 0"/></clipPath><clipPath id="q"><path d="M206 479h9v1.32813h-9zm0 0"/></clipPath><clipPath id="r"><path d="M213 479h3v1.32813h-3zm0 0"/></clipPath><clipPath id="s"><path d="M212 480h2v.32813h-2zm0 0"/></clipPath><clipPath id="t"><path d="M220 479h8v1.32813h-8zm0 0"/></clipPath><clipPath id="u"><path d="M227 479h2v1.32813h-2zm0 0"/></clipPath><clipPath id="v"><path d="M226 479h2v1.32813h-2zm0 0"/></clipPath><clipPath id="w"><path d="M233 479h8v1.32813h-8zm0 0"/></clipPath><clipPath id="x"><path d="M240 479h3v1.32813h-3zm0 0"/></clipPath><clipPath id="y"><path d="M246 479h9v1.32813h-9zm0 0"/></clipPath><clipPath id="z"><path d="M253 480h3v.32813h-3zm0 0"/></clipPath><clipPath id="A"><path d="M260 479h8v1.32813h-8zm0 0"/></clipPath><clipPath id="B"><path d="M267 479h2v1.32813h-2zm0 0"/></clipPath><clipPath id="C"><path d="M273 479h8v1.32813h-8zm0 0"/></clipPath><clipPath id="D"><path d="M280 479h3v1.32813h-3zm0 0"/></clipPath><clipPath id="E"><path d="M286 480h9v.32813h-9zm0 0"/></clipPath><clipPath id="F"><path d="M293 480h3v.32813h-3zm0 0"/></clipPath><clipPath id="G"><path d="M300 479h8v1.32813h-8zm0 0"/></clipPath><clipPath id="H"><path d="M307 479h2v1.32813h-2zm0 0"/></clipPath><clipPath id="I"><path d="M313 479h8v1.32813h-8zm0 0"/></clipPath><clipPath id="J"><path d="M320 479h3v1.32813h-3zm0 0"/></clipPath><clipPath id="K"><path d="M326 479h9v1.32813h-9zm0 0"/></clipPath><clipPath id="L"><path d="M333 479h3v1.32813h-3zm0 0"/></clipPath><clipPath id="M"><path d="M340 478h8v2.32813h-8zm0 0"/></clipPath><clipPath id="N"><path d="M346 478h4v2.32813h-4zm0 0"/></clipPath><clipPath id="O"><path d="M353 478h8v2.32813h-8zm0 0"/></clipPath><clipPath id="P"><path d="M359 478h4v2.32813h-4zm0 0"/></clipPath><clipPath id="Q"><path d="M366 478h8v2.32813h-8zm0 0"/></clipPath><clipPath id="R"><path d="M373 478h3v2.32813h-3zm0 0"/></clipPath><clipPath id="S"><path d="M380 478h8v2.32813h-8zm0 0"/></clipPath><clipPath id="T"><path d="M386 478h4v2.32813h-4zm0 0"/></clipPath><clipPath id="U"><path d="M393 478h8v2.32813h-8zm0 0"/></clipPath><clipPath id="V"><path d="M400 478h3v2.32813h-3zm0 0"/></clipPath><clipPath id="W"><path d="M407 478h7v2.32813h-7zm0 0"/></clipPath><clipPath id="X"><path d="M420 478h8v2.32813h-8zm0 0"/></clipPath><clipPath id="Y"><path d="M426 478h4v2.32813h-4zm0 0"/></clipPath><clipPath id="Z"><path d="M433 478h8v2.32813h-8zm0 0"/></clipPath><clipPath id="aa"><path d="M446 479h8v1.32813h-8zm0 0"/></clipPath><clipPath id="ab"><path d="M463 476h2v4.32813h-2zm0 0"/></clipPath><clipPath id="ac"><path d="M144 466h4v2h-4zm0 0"/></clipPath><clipPath id="ad"><path d="M144 453h4v2h-4zm0 0"/></clipPath><clipPath id="ae"><path d="M144 439h4v3h-4zm0 0"/></clipPath><clipPath id="af"><path d="M144 426h4v2h-4zm0 0"/></clipPath><clipPath id="ag"><path d="M144 412h4v3h-4zm0 0"/></clipPath><clipPath id="ah"><path d="M466 411h2v3h-2zm0 0"/></clipPath><clipPath id="ai"><path d="M465 412h3v2h-3zm0 0"/></clipPath><clipPath id="aj"><path d="M144 399h4v3h-4zm0 0"/></clipPath><clipPath id="ak"><path d="M466 398h2v3h-2zm0 0"/></clipPath><clipPath id="al"><path d="M465 399h3v2h-3zm0 0"/></clipPath><clipPath id="am"><path d="M144 386h4v2h-4zm0 0"/></clipPath><clipPath id="an"><path d="M466 385h2v3h-2zm0 0"/></clipPath><clipPath id="ao"><path d="M144 371h4v5h-4zm0 0"/></clipPath><clipPath id="ap"><path d="M466 372h2v4h-2zm0 0"/></clipPath><clipPath id="aq"><path d="M144 357h2v7h-2zm0 0"/></clipPath><clipPath id="ar"><path d="M144 343h1v8h-1zm0 0"/></clipPath><clipPath id="as"><path d="M144 330h2v8h-2zm0 0"/></clipPath><clipPath id="at"><path d="M466 332h2v4h-2zm0 0"/></clipPath><clipPath id="au"><path d="M144 318h3v6h-3zm0 0"/></clipPath><clipPath id="av"><path d="M466 319h2v3h-2zm0 0"/></clipPath><g id="aw" clip-path="url(#clip1)"><path fill="#fff" fill-opacity="0" fill-rule="evenodd" d="M0 0h1000v1000H0zm0 0"/><path fill="#d3d3d3" fill-opacity="0" fill-rule="evenodd" d="M162.15234 355.86719l-.23437.29297.0586.23437.11718.17188.17578.23437.29297.34766.11328.0586.11719-.17188.0586-.23438.17577-.17578.46485-.17578h.69922l.23437.29297.28906.8164.0586.17579.17578.23046.35156.23438.69922.69922.17188.17578.23437.34765.23438.41016.28906.58203.41015.46485.23047.23437.23438.17578.11719.23047.17578.29297.17187 1.16406v.23438l.0586.28906.05859.11719.11719.11719.34765.41015.11719.17188.17578.17578.17578.23437.11719.17188.17188.35156.05859.23438.23437.40625.23438-.0586-.17578.17578-.0586.92969h-.58203l-.23437-.11328-.34766.11328-.11719.11719-.05859.29297-.0586.17578-.11718.17187-.46484.29297-.0586.23438-.0586.11328v.64453l.0586.17187v.41016l.0586.0586v.40624l.05859.40625.11719.17579.05859.05859.23047.64062-.0586.29297v.69922l-.05859.58203v.23438l-.0586.23047-.05468.35156v1.92187l.05469.1172h.42578l-.36719.11718-.02344.35156.89063 1.16797 1.74219.53906 1.33984.35938v.53906l.08984.8086.53516.71484 1.51953.26953.89063-.08594.08984 1.16406.53516.1797 1.16015-.1797 2.05469-.98437 1.16016-.36328 1.8789-.17578 1.69531-.1797-.17968.71876-1.51563.08594-1.25.08984-.80469.26953-1.07421.8086.26953.71875.53515.89843-.17968.625-.26563.8086.26563 1.07812.625.89844.80468.17969 1.25-.1797-.26562.72267.09766.5039.05468.29297v.17188l.0586.29296v.40625l.17578.1172.35156.11718h.40625l.29297-.17578.11328-.11719.0586-.11719.11718-.23047.0586-.17578.35156-.46484.23047-.17578.17578-.0586.17578.0586.0586.17578.11718.98828.05469.46875.0586.17188.11718.23437.17578.0586.8164.05859h.28907l.11719.23437.05859.40625.0586.35156v1.10547l.11718.29297.11719.34766.28906.69922.17578.35156.58203.7539.35157.17579.17187.0586.46875.23437.64063.46484.34765.23438.29297.17578.29297.05468.23047.0625.8164.34766.29297.17578.11328.17188.35157.35156.11719.17578.52343.64063v.28906l.0586.35156v.34766l.05859.35156.0586.28906.11718.0586.17188.05859h.17578l.58203.23437.17578.1172.17578.28905.17578.23438.11328.23437.29297.23047.11719.11719v.41016l.0586.05468.28906.23438.23437.11719.0586.11718.11718.17188.0586.11719.23047.23437.05859.17578.23437.0586.1172.05859-.1172.11328-.05859.11719v.11719l-.11719.29296-.11719.28907v.58203l.17579.11719.11718.05859.0586.11719.11719.11719.11328.05859.17578.34765.0586.35157.05858.40625v.17578l-.05859.17578-.11719.69922v.17187l.1172.17579.29296.29296h.40625l.17578.1172.11719.17187.11719.29296v.23438h-.52735l-.23047-.23438h-.23437l-.17578.0586-.0586.69922.0586.34765.11719.17579.17578.41015.11718.23047.28907.46875.17578.05469h.52344l.23437.0586.75781.64062.0586.29296v.23438l.05859.0586.23047.34765v.35156l-.11719.17188v.29297l.29297.28906.29297.17578.17187.0586.29297.17577.29297.1172.58203.40624.28906.23438.29297.17578.21875.16015.01563.01172.23047.17579.64062.52343.17578.23438.1172.17578.17577.17578.11328.17188v.64062l.1172.17578.46874.11719.58203.11719.23438.05859.23047.11328.29297.11719.11328.0586.58593.35156.28907.17187.17578.0625.17578.05469.17578.0586.69922.35155.28906.17579.23438.05468.28906.17578.23437.1172.64063.40624.29297.11719.17187.0586.23438.05859.41015.05859.23047.0586.23438.11718.0586.17188-.41017.17578.46875.0586.0586.29296.11328.23438.17578.05468.23438.0586.17578.05859.40625.11719.64062.23437.11719.17188.0586.23437v.17578l-.0586.1172-.0586.40624.23438.23438.11719.05859.34766.11719.64062.23047.17578.11718.28906.1172.17578.17577.23438.46485.58203 1.10546.17578.17579.34766.17578.17578.11719.35156.11718 1.04688.52344.23437.0586.46485.11327.29297.0586.46484.17578.75781.58203.23438.23438.34765.46484.17578.17578.28907.23438.8164.69921.29297.17579.28906.28906.29297.17578.29297.28906.69531.64063.17578.17578.29297.23437.28907.23438.46875.28906.64062.58203.34766.23438.23437.29297.34766.34765.35156.46485.9336.99218.34765.40625.11719.17579.23437.05859.11328.11719.64454.17578.23047.11328.23437.0586.29297.17577.23047.1172.9336.69921.40624.40625.23438.17578.40625.17578.23437.11719.8164.34766.34766.23437.23438.11719.29297.28906.23047.11719.7578.35156.35157.17188.23047.05859.29297.11719.23437.0586.8711.17577h.8164l.46875.23047.17188.0586.875.69921.46484.1172.29297.05858.17578.0586.23047.0586.46875.05859.34766.05859.35156.0586.40625.05859h.29297l.17187.0586v.23046l.17578.17578h.29297l.34766.0586.35156.05859.69922.11719h.64063l.46484-.23438.29297-.17578.17187-.11719.41016-.17187.28906-.17578.9336-.46485.46875-.29297.52343-.29296.46485-.17188.46484-.17578 1.05078-.46485.28906-.11718.41016-.11719.28906-.11719.52735-.17578 1.51562-.69922.58203-.34765.28907-.0586.29297-.0586.34765-.11718.875-.23047.35156-.11719h.11329l.23437-.05859.875-.23437.23438-.0586h.8125l.35156-.0586.8164-.11718.17188-.0586.35156-.05468.29297-.0586.23047-.05859.8164-.17578.17579-.0586h.34765l.23438-.05859.46484-.11718.75781-.17188.23438-.0586h.34765l.41016-.11718.28906-.0586 1.28516-.05859h.28906l.41016-.0586.23047-.05858h.17578l.875-.1172h.40625l.41015-.11718h.34766l.35156-.11328.8711-.0586h1.75l1.04687.28907.41016.11719.28906.11718.35156.11719.28907.11719 1.05078.17187.28906.0586h.29297l.29297.05859.17187.0586.41016.05859.17187.0586.1172.05858h.11718l.11719.0586.35156.0586h.11328l.41016.0664 1.92187.39453 1.92578.39453 1.51953.44922 1.69532.71875 2.14453.80469 1.60547-.71875 1.42968-.80469 1.16016-1.07813 1.25-.44921 3.03516-.71875 1.875-.35938 2.14453-1.34765 2.23437-1.25391 2.5-1.25781 1.69531-.44922 1.78516-.17969 1.16016-.26953.625.53906 1.33984-.26953.71485-.98828.98437-1.34375.44531-.17969.80469-.35937 1.875-.53907 1.78516-.44921 1.25-.26954 1.16015-.08984 1.69922-.08984 1.96094-.26954 1.25-.08984h.53906l.625-.08984h.89063l2.14453-.17969 2.41015-.17969 2.58985-.08984 1.69531.17969 1.60938.08984 1.42968.35938 1.16016.71875 1.875.98828 1.16015 1.52734.26563.71484.6289.08985.35548.89844.53515.53906.53516 1.52734 1.07422.35938h.53515l-.80469.53515.08985 1.70703.71484 2.69532.89063.80468.89453.98829.71484 1.2578 1.78516.53907 1.51953-.17969.35547 1.34375 1.60937-.80469.98047-.53906.26953.26953.31641-.21484.21875-.14453.80078.44922.44922-.35938h.35547l.53515-.26953.53907-.71875.53515-.26953.625-.98828 1.16016.44922.83984.3711 1.39454.61718 1.6953-.17969h1.60548l1.78515.08985.17969-1.70704.53516-1.34375.80468.26954.4922.84765.40233.40625-.08984.53906v.35938l.71485.44922.71093-.26953h1.42969l.35938.98828.4453 1.25781.71485 1.34375 1.25.6289 1.69531.62891.71485-.17969.17969-.53906.98046-.08984.44922.35937.08594 1.25782-.26563.6289-.53515.17969v.53906l.71484.98438.26563.53906.98437.98828.80078 1.07813-.26562.35937-.08985.89844-.625 2.33203-.35546 2.0664-.08985 1.79298-.17969.71875-.08984.53906v1.4375l-.98047 1.88281-.35937 1.70703-.53516.89844-.80469 1.16797-.26562.53906 2.05469 1.2539.08593.35938-.35546.53906-.08985-.17968v.80859l.08985 1.4375-.44532.71484-1.07422.09375-.26562.71485.53515.89844.8047.71875 1.16015.80859 1.33984.26953.44531.35938-.35546.44921-1.78907-.08984-1.25-.44922-.71484-.71875-.625-.08984-.17578 3.58984-.1875 1.3086h89.35937V311.70313h-55.26953v49.08203l.76172.125 3.28906.54296 2.02344 2.83594v2.7539l2.35156.33204 2.34766.33203h4.05078l-1.3789 4.16016-2.02344.70703-2.02344.70312-.54297.34375-2.59375 1.6172-.1875.11718-2.02344-2.07813-.73046-2.74218-2.67188-2.07813-1.375-3.5-.0664-.08203-1.95704-2.67188 2.75-1.41796v-49.08204H294.42187v91.41407l.1172.03125.1328.01172.07422.07421.10547.04688.08985.0586.08593.05859.08985.0586.29687.29687.0586.08984.03125.11719.02734.11719.01563.13671-.03125.1172-.0586.08983-.0586.08594-.04296.10547-.04688.10156-.02734.1211v.14453l.17578.26953.14844.14844.07422.08594.07422.07421.04296.10547.0625.08985.0586.08593.04297.10547.0586.08985.04687.10156.04296.10547.0586.08594.11719.17968.07421.07422.0625.08594.0586.08984.04297.10547.0586.08985.05858.08593.0625.08985.0586.08984.04297.10156.11719.17969.07421.07422.0586.08594.07422.07421.08984.0586.10547.04687h.14844l.1328-.01562.13282.01562.10156-.04687.07422-.07422.04688-.10156-.01563-.13281v-.14844l-.04687-.10547-.02735-.11719-.04687-.10156-.02735-.1211-.04296-.10156-.0625-.08984-.04297-.10156-.04297-.10547-.03125-.11719-.01563-.13281-.01171-.13672.08593-.0586.0586-.08593.12109-.03125.04297.10547.01562.1328v.1172l.0586.10156.0586.08984.08983.0586.14844.14843.0586.08985.04296.10547-.01171.10156.08593.0586.10547.04687.08594.0586.08984.05858.07422.07422-.11719.02735-.10546.04687-.08594.0586-.07422.07421-.0586.08985-.0625.08594-.02734.12109-.04687.10156-.04297.10547-.03125.11719-.01172.13281-.01563.13281v.14844l.02735.11719.04687.10547.04297.10156.0586.08984.07421.07422.08985.0586.07422.07421.08984.0586.0586.08984.04296.10547.04688.10156.11719.03125.1328.01563h.14845l.11718-.03125.10547.04297.04297.10547.04688.10156.02734.1211L299.5 410l.02734.11719.03125.1211.02735.11718.10547.04297.10156.04687.13281-.01562.14844.14844.0625.08593.07422.07422.07031.07422.08984.0625.10547.04297.10156.04297.1172.03125.13671.01562.11719-.03125.07422-.07422.02734-.11718-.01172-.13282-.03125-.12109-.02734-.11719.04297-.10547h.11719l.08984.0625.11719.02735h.14843l.13282.01562h.14843l.13282.01563.1328-.01563h.14845l.1328-.01562.13282-.01172.13672.01172.11719-.02735.13281-.01562.1914-.0586-.05859.17579-.01562.1328-.02735.1211-.01562.13281-.0586.08594-.1328.01563-.10548.04687-.10546.04297-.1172.03125-.11718.02735-.26563.03125h-.14843l-.13281.01562-.07422.07422.05859.08594.14844.14843.11719.1797.07421.0703.08985.0625.08984.0586.08594.0586.08984.05858.10156.04297.10547.0625.10547.04297.08594.0586.10547.04687.10156.04297.17969.11719.0586.08984-.04298.10156-.04687.10547.01562.13281.22266.22266.0586.08985.04296.10156.03125.1211.04297.10155.01563.13282.03125.11718.01171.13672.03125.11719.14844.14844.10156.04297.10547.04296.1172.03125.1328.01563.13672.01563h.11719l.11719-.03125.08984-.0586.04297-.10547.04688-.10156.04296-.10547.03125-.11719.01172-.1328v-.14845l-.01172-.1328-.01562-.13282-.03125-.11719-.04297-.10547-.04688-.10547-.04296-.10156-.04297-.10547-.01563-.13281.01563-.13281.02734-.11719.03125-.11719.02735-.1211.04687-.10155.08984-.0586.08594-.0625.07422-.07422.08984-.05859.22266-.22266.0586-.08593.07421-.07422.11719-.17969.0586-.08594v-.14844l-.07423-.07421-.10156-.04688-.10547-.04297-.10156-.04297-.0586-.08984-.04687-.10547-.02734-.11719.08984-.05859.11719-.03125.10156-.04297.17969-.11719.14844-.14843.01172-.13282-.01172-.10546-.08985-.0586-.1328.01563h-.14845l-.1328.01562-.13282-.01562-.1211-.03125-.08593-.0586-.07422-.07422-.0586-.08984-.0625-.08594-.11718-.17969-.0586-.08593.03125-.1211.08594-.05859.1211-.03125.05859-.08594v-.1211l-.03125-.11718-.0586-.08984-.05859-.08594-.04687-.10547-.02735-.11719-.01562-.1328.0586-.08985.07421-.07422.08984-.0586.1172-.17968.07421-.07422.0586-.08594.14843-.14844.1211-.03125.1328-.01562.13282.01562.07422.07422.04297.10547.01562.13281-.03125.1172-.11719.03124-.1328.01172-.14844.14844-.04297.10547-.04688.10156-.02734.1211-.03125.11718v.14844l.03125.11719.04297.10546.05859.08985.07422.07031.07422.07422.11719.03125.12109.02734.11719-.02734.1328-.01563h.1172l.08984.0586.07422.07422.04687.10546.0586.08594.10156.04688.13281.01562.10547.04297.08594.0586-.01172.10546-.07422.07422-.17969.11719-.05859.08984-.08984.0586-.07032.07422-.07421.07421-.0625.08985-.02735.11719-.01562.1328.01562.13282-.01562.13281v.14844l.01562.13281.02735.1172.03125.12108.07421.07422.08985.0586.08594.0586.08984.05858.11719.03125v.08594l-.10157.04688-.08984.0586-.26563.03124-.11718.02735h-.14844l-.10547.04296-.10156.04688-.0586.08984-.0625.23438-.01171.13281-.03125.1211-.01563.1328v.29298l-.01172.1328.01172.13673.01563.1328.1328.01563.13282.01172.1211.03125.08593.0586.07422.07421.04688.10547.04296.10157.01563.1328v.44532l-.01563.13281v.44532l.03125.26562.02735.11719.01562.13281.03125.11719.08594.21094.03125.26562v.14844l-.03125.11719-.02734.11718-.03125.1211-.02735.11719-.03125.11718-.03125.1211-.01171.1328-.01563.13282.08984.0586.1172-.03125.10155.01562.04688.10547-.03125.26562v.44141l-.04297.10547-.04688.10547-.04296.10156-.04297.10547-.0586.08594-.03125.12109-.04296.11719-.03125.11719-.01563.1328.01563.13282.05859.08984.10547.04688.08594.0586.05859.08593-.01172.13672-.03125.11719-.04297.10156v.44531l-.01562.13281v.14844l-.03125.11719-.04297.10547-.02735.11719-.04687.10546-.04297.10157-.03125.12109-.02734.11719-.03125.13281-.03125.11719-.02735.11719-.04297.10546-.03125.1172-.03125.12108-.01171.13282-.01563.13281v.29688l.02734.11718v.14844l.04688.39844.02734.11719.0586.08984.12109.03125h.14844l.13281-.01563.0586.08985v.11719l-.0586.08984-.08984.0586-.10157.04296-.10546.04688-.08985.05859-.08594.0586-.13671.01562-.1172-.03125-.1328-.01563-.10157.04688-.0625.08594-.01172.13671-.01562.13282-.03125.11719-.02735.11718-.01562.13281-.03125.1211v.29687l.01563.13282.03125.11718v.14844l.01171.13281v.14844l-.02734.11719-.04688.10156-.02734.1211-.03125.11718-.0586.08985-.07421.07421-.10156.04297-.10547.04688-.11719.02734-.1211.03125-.10156-.04687.0586-.08594.10547-.04688.02734-.11718.03125-.11719.02734-.1211.03125-.11718v-.14844l.01563-.13281-.03125-.11719-.04297-.10547-.10547.01563-.07422.07422-.10156.04296-.08984.0625-.07422.07422-.04297.10157-.01563.1328-.03125.1172L304.25 426l-.03125.11719-.02734.11719-.03125.12109-.02735.11719-.03125.11718-.04297.10547-.08984.0586h-.08984l-.1172-.03125-.03124-.08594.01562-.13672-.03125-.11719v-.14844l-.01171-.1328v-.14844l-.0625-.23438-.02735-.1211-.04297-.10156-.04687-.10546-.0586-.08594-.05859-.08985-.04297-.10546-.0625-.08594-.14844-.14844-.0703-.07422-.10548-.04687-.10547-.04297-.10156-.04297-.29687-.29688-.08985-.07421-.08594-.0586-.10546-.04297-.08985-.0625-.08594-.0586-.10546-.04296-.08985-.0586-.08594-.0625-.07421-.0703-.10547-.04688-.08594-.0586-.10547-.04296-.08984-.0625-.10156-.04297-.10547-.04297-.08594-.0586-.10547-.04687-.10547-.04297-.10156-.04687-.08985-.0586-.10156-.04297-.10547-.04296-.08984-.0625-.11719-.02735-.13281-.01562-.13281.01562H299.75l-.13281.01563-.11719-.03125-.08984-.0586-.07422-.07422-.08985-.05859-.10156-.04688h-.14844l-.12109-.02734-.10156-.04297-.07422-.07422-.11719-.17968-.08984-.0586-.10156-.04297-.08985-.0625-.10547-.04296-.08984-.0586-.08594-.0586-.10547-.04687-.0586-.08594-.05858-.08984-.04297-.10547-.04688-.10156-.07422-.07422-.08594-.0586-.07421-.07421-.08985-.0586-.22265-.22265-.04297-.10547-.03125-.26563.10547-.04296h.14453l.10547.04296.07421.07422.08985.0586.08594.0586.10546.04687.08985.05859.14844.14844.0703.07422.14845.14843.0625.08594.07421.07422.08594.0586.07422.07421.08985.0625.08984.0586.08594.05859.26953.17578.10156.04688.10547.04296.10156.04297.04688-.07421.05859-.08594.07422-.07422.07031-.07422.10547.04297.07422.07422.0586.08984.04296.10156.04688.10547.04296.10547.1211.02735.11719-.02735.07421-.08984.04297-.10547.0586-.08985.07422-.07421.10546-.04297.1172-.02735.1328.01172.08985.0586.14844.14843.05859.08985.04297.10547.04687.10156.04297.10547.04297.10156.10547.04688.10547.04296.13281.01563.08594-.0586.0586-.08984.07421-.07422.10547-.04297.11719.02735.10547.04687.10156.04297.10547.04297.10156.04688.17969.11718v.11719l-.01563.13281.01563.13281.01562.13672.0586.08594.10156.04688.1211.02734.11718.03125h.14844l.11719-.03125.05859-.08984.17969-.1172.05859-.08983.07422-.07422.0586-.08594.11718-.17969.17969-.11719.11719.03125.08984.0586.04297.07422-.01563.1328v.1172l.08985.05859h.14843l.13282-.01563.1328-.01171.26563-.03125.10547-.04297.11719-.03125.1211-.02735.07421-.07421.07031-.07422.0625-.08985-.01562-.10547-.04688-.10156-.10156-.04297-.10547-.01562-.11718.02734-.26563.03125h-.14844l-.07421-.07422-.08985-.0586-.11719-.03124-.11718-.02735-.13282-.01562h-.14843l-.13282.01563h-.29687l-.10547-.04688-.14844-.14844-.04297-.10156-.05859-.08984.22266-.22266.08593-.0586.10547-.04296.11719-.03125.13281-.01563.13281.01563.13672.01562.10157.04297.1328-.01172.08985-.0625.10156-.04297.0625-.08984-.04687-.10156-.08984-.0586-.1172-.03125-.10155-.04296-.0586-.08985-.0625-.08984v-.11719l.01563-.13281.10547-.04688.07421-.07031v-.1211l-.08984-.05859-.03125-.11719.08985-.05859.07421-.07422.04297-.10547.0586-.08984.04687-.10156.01563-.13281v-.14844l-.04688-.10547-.04297-.10156-.08984-.0586-.13281-.01562-.10157-.04297-.13671-.01563-.1172-.03125h-.4453l-.13282-.01562-.13281-.01172-.13281-.01563-.11719-.03125h-.14844l-.13281-.01562-.13281-.01172-.26563-.03125-.1211-.04297-.08593-.0586-.07422-.07421v-.14844l.01172-.13281.10547-.04688.10156-.04296.13281-.01563h.15235l.13281-.01562h.29297l.1211.03125.10156.04296.08984.0586.23438.0625.12109-.04688.08984-.05859.10156-.04297.13282-.01562.10547.04296.10156.04688.13281.01172.1211-.02735h.14453l.12109-.03125.11719-.02734.10547-.04687.07421-.07422.08594-.0586.14844-.14843.0586-.08594.04687-.10547.02734-.11719.01563-.10547-.10156-.04296-.08985-.0586-.11719-.03125-.10546-.04297-.08985-.0625-.07422-.08594-.07422-.07421-.10156-.04297-.10547-.04688-.10156-.04297-.0586-.08984-.04687-.10156-.08594-.21094-.0625-.08594-.05859-.08984-.07422-.07422-.08594-.0586h-.26953l-.11719.03126-.08984.05859-.10156.04297-.13281.01562-.10547-.01562-.02735-.11719-.0625-.08984-.11718-.03125-.10157-.04297-.14843-.14844-.03125-.11719-.01563-.10546.07422-.07422.17969-.1172.11719-.02733.11718-.03125.13672.01562.10156.04297.10547.04297.10156.04687.10547.04297.1172.03125.1328.01563.1172.02734.1328.01563.10547-.01563.08985-.0586-.07422-.07421-.10547-.04297-.07422-.07422-.07422-.08984-.14844-.14844-.08593-.0586-.08985-.05859-.07422-.07422-.08984-.0586-.10156-.04687-.1211-.02734-.10156-.04688-.10547-.04296-.11719-.03125-.10156-.04297-.1211-.03125h-.14843l-.11719.03125-.10546.04297-.08594.0625-.17969.11718-.08594.0586-.08984.0586-.10547.04687-.08594.05859-.10547.04297-.10156.04297-.10547.04687-.07422.07422-.05859.08985-.0586.08593-.04687.10547-.0586.08594-.07421.07422-.13281-.01172-.1172-.03125h-.11718l-.07422.07422-.08984.0586-.07422.07421-.08984.0586-.08594.05859-.10547.04687-.10156.04297-.13672.01563-.10156-.04297-.14844-.14844-.10547-.04688h-.08594l-.10547.04688-.10156.04297-.1211.03125-.11718-.03125-.07422-.07422v-.11719l.03125-.1211.07422-.0703.0586-.08985.07421-.07422.11719-.03125.10547-.04296h.29297l.13281-.01563.13672-.01563.10156-.04296.08985-.0586.10156-.04687.08984-.0586.13281-.01171.08985.05859.13281.01172.08984-.0586.08594-.05859.10547-.04297.08984-.0586.08594-.0625.08985-.05859.14843-.14843.0586-.08594.05859-.08985.10547-.04296.13281-.01563.11719.02735.1211.03125.05859-.0586.05859-.08984.03125-.26563.02734-.11719.10547.01172.13281.01563.10157-.04297.08984-.0586.0586-.08984.07421-.07422.0586-.08984.04687-.10156.01172-.13281-.01172-.13282-.04687-.10547-.14844-.14843-.0586-.08985-.05859-.08594-.04297-.10546v-.44532l.01563-.1328v-.14845l.01172-.1328-.0586-.0586-.08984.0586-.10156-.04298-.17969-.11719-.08594-.05859-.0625-.08984-.0586-.08985-.07421-.07421-.08594-.0586-.1211.03125-.10155.01172-.10547.04688-.08594.05859-.10547.04297-.14844.14844-.08984.05859-.08594.0586-.08984.0625-.10547.04296-.13281.01563v-.1211l.10547-.04297.11718-.03125.07422-.0703.04297-.10548v-.14844l-.02734-.11718-.14844-.14844-.13281-.01563h-.14844l-.11719.03125-.10547.04297-.10156.04297-.08984.0625-.11719.02735-.07422-.07422.01172-.13281-.04297-.10157-.04297-.10547-.08984-.05859-.11719.02734-.1211.03125-.11718.03125-.10156.04297-.1211.03125-.10156.04297-.10547.04297-.08984.0586-.10156.01562v-.11719l.01562-.13281-.0586-.08985-.07421.04297-.14844.14844-.0586.08985-.07421.07421-.04688.10547-.04296.10156-.07422.07422-.0586.08985-.07422.07422-.05859.08593-.07422.07422-.08984.0625-.07422.07031-.07422.07422-.10156.01563-.13281.01562-.10547-.04296v-.1211l.14843-.14844.04297-.10156.0586-.08984.04687-.10156.04297-.10547.0586-.08985.03124-.11719.04297-.10156.03125-.1211.02735-.11718.04687-.10547.04297-.10156.04297-.10547.07422-.07031.08984-.0625.08985-.0586.10156-.04296h.29687l.26563-.03125.10547-.04297-.07422-.07422-.11719-.03125-.10547-.04297-.08984-.0586-.10156-.04687-.08985-.0586-.10156-.04296-.10547-.04297-.08984-.0625-.08594-.0586-.10547-.04296-.10156-.04297-.1211-.03125-.11718-.03125-.10157-.04297L297.5 410.25l-.10156-.04297-.08985-.0586-.04296-.10546-.01563-.13281.10156-.04297.13281-.01563.13672.01563.13282-.01563.10156-.04297.0586-.08984.01562-.10547-.08985-.0586-.07421-.07421-.10157-.04297-.08984-.0586-.14844-.14843-.04297-.10547-.01562-.13281v-.29297l-.0586-.08985-.08984-.05859-.07422-.07422-.04297-.10547-.03125-.11718-.0586-.08985-.07421-.07422-.11719-.02734-.07422-.07422-.08984-.0586-.08984-.0625-.08594-.05859-.07422-.07421-.0586-.08594-.04687-.10547-.08594-.0586-.14843-.14843-.19532-.0586-.1328.01563-.10157.04297-.07422.07422-.04688.10156-.04296.10547-.0586.08984-.0586.08594-.29687.29687-.08984.0586h-.08594l-.0625-.08594-.04297-.10547.03125-.11719.0586-.08984.02734-.11719-.01172-.13281-.08984-.0625-.10547.04688-.11719.02734-.11719.03125-.26953.17578-.10156.04688-.11719.02734-.10546.04687-.08985.0586-.10156.04297-.0586-.08594-.04687-.10547.01563-.13281.04687-.10547.07031-.07422.07422-.07031.0586-.08985v-.14843l-.04297-.10547h-.23829l-.10156.04687-.03125.11719-.02734.11719-.03125.1211-.07422.04296-.13281.01563-.07422-.04688-.04297-.10156-.04297-.10547-.04687-.10156-.04297-.10547-.1211.03125-.10156.04297-.13281.01562-.11719.03125-.10547.04297-.08984.0586-.10156.04687-.1211.02734-.13281.01563-.10156-.04297-.0586-.08985-.04687-.10546-.04297-.10157-.04297-.10546v-.1172l.0586-.08984.08593-.05859.17969-.11719.10156-.04687.10547-.04297.10547-.0586.10156-.04296.08985-.0625.10156-.04297.10547-.0586.10156-.04687.08984-.0586.10547-.04296.10156-.04297.08985-.0625.10156-.04297.13672-.01563.11719.03125.10156.04297.1211.03125.10156.04297.10546.04688.10157.04296.10547.04297.10156.04688.10547.04297.10156.04297.10547.04687.08594.0586.10546.04296.1172.03125.10546.04297.10156.04688.08985.0586.10547.04296.10156.04297.10547.04687.11719.02735.10156.04687.1211.02735h.14843l.08594-.0586.01562-.10156.0586-.08984-.02735-.1172-.07422-.07421-.11719-.17969-.07421-.07422-.08985-.07421-.17969-.1172-.08593-.05859-.10547-.04296-.10156-.04688-.26954-.17578-.05859-.08985-.07422-.07421-.0586-.08985-.04296-.10156-.03125-.11719-.01563-.13672v-.5625l-.01171-.1328-.01563-.13282-.03125-.11719-.01562-.13281-.01172-.13281-.03125-.1211-.22266-.22265-.0586-.08594-.01562-.10547.03125-.11719.13281-.01562v-91.41406H172.9922v1.45312l-.0586.23438-.35156 1.05078-.17187.52343-.1172.34766-.17577.41016-.11719.17187-.23438.29297-.23046.0586h-.35157l-.11718.05859-.23047.40625v.29297l.11719.17578.23046.23047.1172.23437.64062.75781.29297.46485.17578.23437.23047.35156.23437.34766.64063.8164.17578.46485.17187.41016.11719.69531.17578.46875.11719 1.39844.0586.46484v.875l.11718 1.04688v4.78125l-.0586.46484-.35156 1.28125-.17578.52344-.11328.41015-.35156.9297L172.93359 336l-.23437.58203-.11719.17578-.17187.34766-.17578.40625-.35157.8164-.0586.29297-.11327.29297-.11719.28906-.0586.17579-.11718.875-.0586.40625-.05859.11718-.0586.17579-.05859.17187-.23047.52734-.11718.17188v.23437l-.11719.23438-.0586.17187-.17577.58594v.28906l-.0586.17579v.29296l-.0586.11329-.05859.52734v.17187l-.05468.23438v2.6211l-.17578.8164-.1172.17578-.17577.23438-.1172.17187-.11327.23438-.58594.93359-.23047.28906-.29297.46485-.17578.23437-.28906.35156-.35156.69922-.11328.23047-.17579.41016-.17578.23046-.40625.52735-.8164.69922-.29297.17187-.28906.23438-.17579.11719-.17578.17578-.52344.40625-.52734.17578-.17187.17578-.23438.05469-.64062.17578h-.75782m12.21094 31.02344l-1.07422.44921.35938.89454 1.25-.71485.44531-.53906-.98047-.08985"/><path fill="#d3d3d3" fill-opacity="0" fill-rule="evenodd" d="M201.50781 416.59766h-.89453l.44922.6289.98047.35938.80469-.08985.4453-.98828-.17577.08985-.71485-.35547-.89453.35547m154.6211 59.0703l-.0586-.52343v-.29297l.11328-.29297.0586-.23046.46875-.46875h.11328l.11719-.11329.11718-.05859h.17579l.23437-.0586h.34766l.23437.0586.11719.0586.23047.17187.0586.17578.11718.58203v.29297l-.11719.17578-.17187.28906-.17579.17579-.52734.52343-.23047.23438-.11719.0586h-.17578l-.11718-.0586-.40625-.29297-.17579-.11719-.11718-.0586-.0586-.11327-.05468-.1172m6.64062-10.95702l-.0586-.17188v-1.10937l.0586-.17188.17578-.0586.17188-.05858h.17578l.23437-.0586.1172.0586.05858.69921-.05859.17188-.11719.17578-.11718.0586-.23438.52343-.11328.0586h-.23438l-.05859-.1172m9.61328-14.39062l-.11719-.17578v-.69922l.29297-.875.1172-.17187.17577-.35156.11328-.23047.1172-.29297.35155-.75781.1172-.23047.17187-.23438h.17578l.11719-.0586h.64062l.11719.0586.23437.23438.17188.11328.35156.29297.11719.11718.11328.17579v.11328l.11719.05859.11718.11719v.69922l-.05859.17578v.23047l-.0586.17578-.34765 1.05078-.11719.23047-.11719.23437-.11718.0586-.23047.23437-.64063.28906h-.875l-.41015-.11718-.64063-.46485"/><path fill="none" stroke="#bebebe" stroke-linecap="round" stroke-linejoin="round" stroke-miterlimit="10" stroke-width=".5" d="M467.95703 311.69531H144.02734v168.625h323.9297v-168.625"/><g clip-path="url(#a)"><path fill="#fff" fill-opacity="0" fill-rule="evenodd" d="M144 311.67188v168.65625h324V311.67188H144"/></g><g clip-path="url(#b)"><path fill="none" stroke="#000" stroke-linecap="round" stroke-linejoin="round" stroke-miterlimit="10" stroke-width=".5" d="M147.50781 480.55469l-7.01562-.45313"/></g><g clip-path="url(#c)"><path fill="none" stroke="#000" stroke-linecap="round" stroke-linejoin="round" stroke-miterlimit="10" stroke-width=".5" d="M147.50781 480.55469l1.00781 2.23828"/></g><g clip-path="url(#d)"><path fill="none" stroke="#000" stroke-linecap="round" stroke-linejoin="round" stroke-miterlimit="10" stroke-width=".5" d="M146.48438 480.48828l.5078 1.1211"/></g><g clip-path="url(#e)"><path fill="none" stroke="#000" stroke-linecap="round" stroke-linejoin="round" stroke-miterlimit="10" stroke-width=".5" d="M160.82813 480.4414l-7.02344-.22265"/></g><g clip-path="url(#f)"><path fill="none" stroke="#000" stroke-linecap="round" stroke-linejoin="round" stroke-miterlimit="10" stroke-width=".5" d="M160.82813 480.4414l1.08203 2.20313"/></g><g clip-path="url(#g)"><path fill="none" stroke="#000" stroke-linecap="round" stroke-linejoin="round" stroke-miterlimit="10" stroke-width=".5" d="M159.80469 480.40625l.54297 1.10156"/></g><g clip-path="url(#h)"><path fill="none" stroke="#000" stroke-linecap="round" stroke-linejoin="round" stroke-miterlimit="10" stroke-width=".5" d="M174.13672 480.52344l-7.01563-.39063"/></g><g clip-path="url(#i)"><path fill="none" stroke="#000" stroke-linecap="round" stroke-linejoin="round" stroke-miterlimit="10" stroke-width=".5" d="M174.13672 480.52344l1.03125 2.22656"/></g><g clip-path="url(#j)"><path fill="none" stroke="#000" stroke-linecap="round" stroke-linejoin="round" stroke-miterlimit="10" stroke-width=".5" d="M173.11719 480.46875l.51562 1.11328"/></g><g clip-path="url(#k)"><path fill="none" stroke="#000" stroke-linecap="round" stroke-linejoin="round" stroke-miterlimit="10" stroke-width=".5" d="M187.44531 480.63281l-7-.60937"/></g><g clip-path="url(#l)"><path fill="none" stroke="#000" stroke-linecap="round" stroke-linejoin="round" stroke-miterlimit="10" stroke-width=".5" d="M187.44531 480.63281l.96094 2.26172"/></g><g clip-path="url(#m)"><path fill="none" stroke="#000" stroke-linecap="round" stroke-linejoin="round" stroke-miterlimit="10" stroke-width=".5" d="M186.42578 480.54688l.48047 1.1289"/></g><g clip-path="url(#n)"><path fill="none" stroke="#000" stroke-linecap="round" stroke-linejoin="round" stroke-miterlimit="10" stroke-width=".5" d="M200.77344 480.3711l-7.02735-.08594"/></g><g clip-path="url(#o)"><path fill="none" stroke="#000" stroke-linecap="round" stroke-linejoin="round" stroke-miterlimit="10" stroke-width=".5" d="M200.77344 480.3711l1.125 2.17968"/></g><g clip-path="url(#p)"><path fill="none" stroke="#000" stroke-linecap="round" stroke-linejoin="round" stroke-miterlimit="10" stroke-width=".5" d="M199.75 480.35938l.5625 1.08984"/></g><g clip-path="url(#q)"><path fill="none" stroke="#000" stroke-linecap="round" stroke-linejoin="round" stroke-miterlimit="10" stroke-width=".5" d="M214.08984 480.2461l-7.02734.16406"/></g><g clip-path="url(#r)"><path fill="none" stroke="#000" stroke-linecap="round" stroke-linejoin="round" stroke-miterlimit="10" stroke-width=".5" d="M214.08984 480.2461l1.19922 2.14062"/></g><g clip-path="url(#s)"><path fill="none" stroke="#000" stroke-linecap="round" stroke-linejoin="round" stroke-miterlimit="10" stroke-width=".5" d="M213.0664 480.26953l.60157 1.07031"/></g><g clip-path="url(#t)"><path fill="none" stroke="#000" stroke-linecap="round" stroke-linejoin="round" stroke-miterlimit="10" stroke-width=".5" d="M227.39844 480.15234l-7.01563.35157"/></g><g clip-path="url(#u)"><path fill="none" stroke="#000" stroke-linecap="round" stroke-linejoin="round" stroke-miterlimit="10" stroke-width=".5" d="M227.39844 480.15234l1.26172 2.10547"/></g><g clip-path="url(#v)"><path fill="none" stroke="#000" stroke-linecap="round" stroke-linejoin="round" stroke-miterlimit="10" stroke-width=".5" d="M226.3789 480.20313l.62891 1.05468"/></g><g clip-path="url(#w)"><path fill="none" stroke="#000" stroke-linecap="round" stroke-linejoin="round" stroke-miterlimit="10" stroke-width=".5" d="M240.71875 480.24219l-7.02734.17187"/></g><g clip-path="url(#x)"><path fill="none" stroke="#000" stroke-linecap="round" stroke-linejoin="round" stroke-miterlimit="10" stroke-width=".5" d="M240.71875 480.24219l1.20313 2.13672"/></g><g clip-path="url(#y)"><path fill="none" stroke="#000" stroke-linecap="round" stroke-linejoin="round" stroke-miterlimit="10" stroke-width=".5" d="M254.03125 480.42969l-7.02344-.20313"/></g><g clip-path="url(#z)"><path fill="none" stroke="#000" stroke-linecap="round" stroke-linejoin="round" stroke-miterlimit="10" stroke-width=".5" d="M254.03125 480.42969l1.08984 2.19922"/></g><g clip-path="url(#A)"><path fill="none" stroke="#000" stroke-linecap="round" stroke-linejoin="round" stroke-miterlimit="10" stroke-width=".5" d="M267.34375 480.15625l-7.01563.34375"/></g><g clip-path="url(#B)"><path fill="none" stroke="#000" stroke-linecap="round" stroke-linejoin="round" stroke-miterlimit="10" stroke-width=".5" d="M267.34375 480.15625l1.25781 2.10547"/></g><g clip-path="url(#C)"><path fill="none" stroke="#000" stroke-linecap="round" stroke-linejoin="round" stroke-miterlimit="10" stroke-width=".5" d="M280.66016 480.17188l-7.01953.3164"/></g><g clip-path="url(#D)"><path fill="none" stroke="#000" stroke-linecap="round" stroke-linejoin="round" stroke-miterlimit="10" stroke-width=".5" d="M280.66016 480.17188l1.25 2.10937"/></g><g clip-path="url(#E)"><path fill="none" stroke="#000" stroke-linecap="round" stroke-linejoin="round" stroke-miterlimit="10" stroke-width=".5" d="M293.98047 480.35547l-7.02735-.05078"/></g><g clip-path="url(#F)"><path fill="none" stroke="#000" stroke-linecap="round" stroke-linejoin="round" stroke-miterlimit="10" stroke-width=".5" d="M293.98047 480.35547l1.13672 2.17578"/></g><g clip-path="url(#G)"><path fill="none" stroke="#000" stroke-linecap="round" stroke-linejoin="round" stroke-miterlimit="10" stroke-width=".5" d="M307.28906 480.14844l-7.01562.35937"/></g><g clip-path="url(#H)"><path fill="none" stroke="#000" stroke-linecap="round" stroke-linejoin="round" stroke-miterlimit="10" stroke-width=".5" d="M307.28906 480.14844l1.26172 2.10547"/></g><g clip-path="url(#I)"><path fill="none" stroke="#000" stroke-linecap="round" stroke-linejoin="round" stroke-miterlimit="10" stroke-width=".5" d="M320.57813 479.85156l-6.96485.95313"/></g><g clip-path="url(#J)"><path fill="none" stroke="#000" stroke-linecap="round" stroke-linejoin="round" stroke-miterlimit="10" stroke-width=".5" d="M320.57813 479.85156l1.43359 1.99219"/></g><g clip-path="url(#K)"><path fill="none" stroke="#000" stroke-linecap="round" stroke-linejoin="round" stroke-miterlimit="10" stroke-width=".5" d="M333.83984 479.5664l-6.85937 1.52344"/></g><g clip-path="url(#L)"><path fill="none" stroke="#000" stroke-linecap="round" stroke-linejoin="round" stroke-miterlimit="10" stroke-width=".5" d="M333.83984 479.5664l1.59375 1.86329"/></g><g clip-path="url(#M)"><path fill="none" stroke="#000" stroke-linecap="round" stroke-linejoin="round" stroke-miterlimit="10" stroke-width=".5" d="M347.05469 479.20313l-6.65625 2.25"/></g><g clip-path="url(#N)"><path fill="none" stroke="#000" stroke-linecap="round" stroke-linejoin="round" stroke-miterlimit="10" stroke-width=".5" d="M347.05469 479.20313l1.78515 1.68359"/></g><g clip-path="url(#O)"><path fill="none" stroke="#000" stroke-linecap="round" stroke-linejoin="round" stroke-miterlimit="10" stroke-width=".5" d="M360.1914 478.76953l-6.29687 3.11719"/></g><g clip-path="url(#P)"><path fill="none" stroke="#000" stroke-linecap="round" stroke-linejoin="round" stroke-miterlimit="10" stroke-width=".5" d="M360.1914 478.76953l1.9922 1.42969"/></g><g clip-path="url(#Q)"><path fill="none" stroke="#000" stroke-linecap="round" stroke-linejoin="round" stroke-miterlimit="10" stroke-width=".5" d="M373.59375 478.96484l-6.47656 2.72657"/></g><g clip-path="url(#R)"><path fill="none" stroke="#000" stroke-linecap="round" stroke-linejoin="round" stroke-miterlimit="10" stroke-width=".5" d="M373.59375 478.96484l1.90234 1.55078"/></g><g clip-path="url(#S)"><path fill="none" stroke="#000" stroke-linecap="round" stroke-linejoin="round" stroke-miterlimit="10" stroke-width=".5" d="M387 479.19922l-6.65625 2.25781"/></g><g clip-path="url(#T)"><path fill="none" stroke="#000" stroke-linecap="round" stroke-linejoin="round" stroke-miterlimit="10" stroke-width=".5" d="M387 479.19922l1.78516 1.6836"/></g><g clip-path="url(#U)"><path fill="none" stroke="#000" stroke-linecap="round" stroke-linejoin="round" stroke-miterlimit="10" stroke-width=".5" d="M400.32813 479.24219l-6.6836 2.17187"/></g><g clip-path="url(#V)"><path fill="none" stroke="#000" stroke-linecap="round" stroke-linejoin="round" stroke-miterlimit="10" stroke-width=".5" d="M400.32813 479.24219l1.76562 1.70703"/></g><g clip-path="url(#W)"><path fill="none" stroke="#000" stroke-linecap="round" stroke-linejoin="round" stroke-miterlimit="10" stroke-width=".5" d="M413.17578 478.30469l-5.7461 4.04687"/></g><path fill="none" stroke="#000" stroke-linecap="round" stroke-linejoin="round" stroke-miterlimit="10" stroke-width=".5" d="M413.17578 478.30469l2.1875 1.10937m-3.02344-.51953l1.09375.55469"/><g clip-path="url(#X)"><path fill="none" stroke="#000" stroke-linecap="round" stroke-linejoin="round" stroke-miterlimit="10" stroke-width=".5" d="M426.7539 478.7461l-6.27343 3.16406"/></g><g clip-path="url(#Y)"><path fill="none" stroke="#000" stroke-linecap="round" stroke-linejoin="round" stroke-miterlimit="10" stroke-width=".5" d="M426.7539 478.7461l2.00391 1.41406"/></g><g clip-path="url(#Z)"><path fill="none" stroke="#000" stroke-linecap="round" stroke-linejoin="round" stroke-miterlimit="10" stroke-width=".5" d="M440.14063 481.7539l-6.41797-2.85156"/></g><g clip-path="url(#aa)"><path fill="none" stroke="#000" stroke-linecap="round" stroke-linejoin="round" stroke-miterlimit="10" stroke-width=".5" d="M453.74219 479.97266l-6.99219.71093"/></g><g clip-path="url(#ab)"><path fill="none" stroke="#000" stroke-linecap="round" stroke-linejoin="round" stroke-miterlimit="10" stroke-width=".5" d="M463.79297 483.83594l-.46485-7.01172"/></g><g clip-path="url(#ac)"><path fill="none" stroke="#000" stroke-linecap="round" stroke-linejoin="round" stroke-miterlimit="10" stroke-width=".5" d="M147.4961 466.67188l-6.9922.68359"/></g><path fill="none" stroke="#000" stroke-linecap="round" stroke-linejoin="round" stroke-miterlimit="10" stroke-width=".5" d="M147.4961 466.67188l1.35546 2.04687m-2.3711-1.94531l.67579 1.01953m13.65625-.4375l-6.99219-.6836m6.99219.6836l.9336 2.26953m12.39452-2.44922l-7.01953-.32422m7.01953.32422l1.05079 2.21875m12.2539-2.66797l-7 .57422m7-.57422l1.32813 2.0664m12-1.73437l-7.02735-.08984m7.02735.08984l1.125 2.1797m12.17578-2.52735l-7 .60547m7-.60547l1.33594 2.0625m11.95312-2.28516l-6.94531 1.05078m6.94531-1.05078l1.46484 1.96875m11.84766-1.98047l-6.9414 1.07422m6.9414-1.07422l1.47266 1.96094m11.78515-2.26172l-6.82422 1.67578m6.82422-1.67578l1.63672 1.82813m11.69531-1.75782l-6.85937 1.53516m6.85938-1.53516l1.59765 1.86328m11.66797-2.05468l-6.76172 1.91797m6.76172-1.91797l1.69922 1.76953m11.45703-2.21094l-6.44531 2.80078m6.44531-2.80078l1.92188 1.52735m11.53515-1.14454l-6.72656 2.03516m6.72656-2.03516l1.73047 1.7422m11.69531-1.2461l-6.94922 1.04297m6.94922-1.04297l1.46094 1.97265m11.69922-2.59765l-6.64063 2.29297m5.67579-1.96094l.89843.83594m13.29297-1.40235l-6.46094 2.76172m6.46094-2.76172l1.91016 1.53906m11.40625-1.53515l-6.46485 2.7539m6.46485-2.7539l1.91015 1.53906m11.5625-1.09375l-6.77734 1.86328m6.77734-1.86328l1.6836 1.78516m11.58984.21484l-6.69531-2.13672m6.69531 2.13672l.4375 2.41406m12.92188-2.5625l-6.78516-1.83593m6.78516 1.83593l.54296 2.39063m12.23829-5.35156l-5.71875 4.08203m5.71875-4.08203l2.19921 1.09375m11.45313-.51563l-6.39063 2.92578m6.39063-2.92578l1.94922 1.49219m-2.8789-1.0664l.97265.74609m13.39453-.85938l-6.64063 2.30078m5.67579-1.96484l.89843.83594m10.57422 3.45312l-1.01953-6.94922m.8711 5.9414l-.98829.72657m12.59766.05469l2.6836-6.4961"/><g clip-path="url(#ad)"><path fill="none" stroke="#000" stroke-linecap="round" stroke-linejoin="round" stroke-miterlimit="10" stroke-width=".5" d="M147.50781 453.88281l-7.01562-.36719"/></g><path fill="none" stroke="#000" stroke-linecap="round" stroke-linejoin="round" stroke-miterlimit="10" stroke-width=".5" d="M147.50781 453.88281l1.03906 2.22266m12.27344-2.17578l-7.01172-.46094m7.01172.46094l1.00781 2.23828m12.28516-2.01172l-6.96484-.91797m6.96484.91797l.85938 2.30078m12.48437-2.71094l-7.02344-.09375m7.02344.09375l1.125 2.1836m12.1875-2.05078l-7.01953-.36328m7.01953.36328l1.03906 2.22656m12.21485-3.07031l-6.89844 1.32812m6.89844-1.32812l1.54297 1.90625m11.73047-2.10157l-6.8125 1.71875m6.8125-1.71875l1.64843 1.81641m11.48438-2.35156l-6.44922 2.78906m6.44922-2.78906l1.91797 1.52734m11.22265-1.8789l-6.10156 3.48828m6.10156-3.48828l2.07422 1.30859m-2.96094-.80078l1.03907.65625m13.38672-.69532l-6.54688 2.5547m6.54688-2.5547l1.85937 1.59766m-2.8125-1.22656l.92969.80078m13.49219-.66406l-6.85547 1.53906m6.85547-1.53906l1.59765 1.86328m11.67188-2.04688l-6.76563 1.90625m6.76563-1.90625l1.6953 1.77344m11.60938-1.80469l-6.74609 1.96485m6.7461-1.96485l1.71484 1.75782m11.3086-2.46094l-6.16016 3.375m6.16015-3.375l2.05078 1.34765m11.36328-1.15625l-6.35937 2.9922m6.35937-2.9922l1.96485 1.46875m11.33984-1.49609l-6.33594 3.04688m6.33594-3.04688l1.97656 1.45313m-2.89843-1.00782l.98828.72657m12.59765-2.09766l-5.03515 4.89844m5.03515-4.89844l2.33594.7461m-3.0664-.03516l1.16796.375m12.54297-1.39063l-4.36328 5.50781m4.36328-5.5078l2.41407.4414m12.16406 1.63281l-6.89453 1.35938m17.82812 2.66796l-2.1289-6.6953m2.1289 6.6953l-1.71484 1.75391m17.47656-5.16406l-7.02344.125m6.0039-.10547l.59376 1.07031m13.72656-1.3789l-6.99219.69921m6.9922-.69921l1.35937 2.04296m11.26562-3.80859l-5.61328 4.23047m5.61328-4.23047l2.22266 1.03906m4.97265-.09765l6.625 2.34765m7.9336 1.66797l4.13672-5.67969m-3.53516 4.85157l-1.21484-.17188"/><g clip-path="url(#ae)"><path fill="none" stroke="#000" stroke-linecap="round" stroke-linejoin="round" stroke-miterlimit="10" stroke-width=".5" d="M147.48438 440.83203l-6.96875-.89844"/></g><path fill="none" stroke="#000" stroke-linecap="round" stroke-linejoin="round" stroke-miterlimit="10" stroke-width=".5" d="M147.48438 440.83203l.86718 2.29688m12.38281-1.9375l-6.83984-1.6172m6.83984 1.6172l.6211 2.375m12.6875-2.35547l-6.82813-1.65625m6.82813 1.65625l.60937 2.3789m12.77735-2.75l-6.96875-.91406m6.96875.91406l.85937 2.30079m12.46094-3.1797l-6.97656.84766m6.97656-.84765l1.40234 2.01172m11.82813-2.44922l-6.8125 1.72265m6.8125-1.72265l1.64844 1.8164m11.43359-2.46875l-6.34375 3.02344m6.34375-3.02344l1.97266 1.46094m10.59765-2.48828l-4.85547 5.07813m4.85547-5.07813l2.36328.66406m10.8125-.78906l-4.57422 5.33203m4.57422-5.33203l2.39453.53516m10.78907-.64453l-4.3125 5.54687m4.3125-5.54687l2.41797.42187m11.65625.39063l-5.82813 3.92578m5.82813-3.92578l2.16406 1.15234m11.03516-1.3164l-5.59766 4.25m5.59765-4.25l2.22657 1.03124m10.75-1.41015l-4.92188 5.01172m4.92188-5.01172l2.35547.6953m-3.07032.03126l1.17579.34766m13.40234-.37891l-6.01953 3.6211m6.01953-3.6211l2.10547 1.26172m-2.98047-.73438l2.10547 1.26172m11.8086-2.1875l-5.46485 4.41797m5.46484-4.41797l2.25781.96094m-3.05468-.32031l1.1289.48046m12.85156-1.27734l-5.20312 4.72656m5.20313-4.72656l2.30859.83203m-3.0664-.14453l1.15624.41797m12.5039-1.49219l-4.3789 5.5m4.3789-5.5l2.41017.44922m-3.04688.35156l1.20703.22657m11.01563-1.75782l-.92188 6.96485m.92188-6.96485l2.30078-.85937m-2.4336 1.8711l2.30079-.85548m9.84375-.08593l1.6875 6.8203m-1.6875-6.8203l1.82421-1.63672m-1.57812 2.6289l.91015-.8203m9.67188 2.125l6.66016 2.23046m-6.66016-2.23047l-.40625-2.42187m14.3789 5.8203l5.34376-4.5664m-4.56641 3.90235l-1.14063-.44922m17.69532 2.07422l-2.6914-6.4922m2.30077 5.54688l-.78125.94922m16.38281-4.60156l-6.48437 2.70703m5.54297-2.3164l.94922.78125m9.48437-3.28516l1.16797 6.92969m10.41797-.81641l4.6211-5.29297m-3.94923 4.51953l-1.1953-.27734"/><g clip-path="url(#af)"><path fill="none" stroke="#000" stroke-linecap="round" stroke-linejoin="round" stroke-miterlimit="10" stroke-width=".5" d="M147.47656 426.55469l-6.95312 1.02734"/></g><path fill="none" stroke="#000" stroke-linecap="round" stroke-linejoin="round" stroke-miterlimit="10" stroke-width=".5" d="M147.47656 426.55469l1.45313 1.97656m11.8711-1.00781l-6.96876-.91016m6.96875.91016l.85938 2.29687m12.35547-1.8125l-6.76954-1.8789m6.76953 1.8789l.53125 2.39453m12.85157-2.68359l-6.90625-1.30078m6.90625 1.30078l.73047 2.34375m12.4414-4.16797l-6.6211 2.34766m6.6211-2.34766l1.8125 1.65625m11.70703-.50781l-7.02734.05078m7.02734-.05078l1.16407 2.16016m12.08593-2.80079l-6.89843 1.33204m6.89843-1.33204l1.54297 1.91016m11.3086-3.09766l-5.97266 3.70704m5.97266-3.70704l2.12109 1.23438m9.67969-2.57031l-2.9414 6.3789m2.9414-6.3789l2.44922-.14063m9.61718-.17578l-.44922 7.01172m.44922-7.01172l2.23828-1.01172m11.58985 1.08203l-1.46875 6.8711m1.2539-5.8711l1.1797-.33593m14.09374.28125l-4.96094 4.98046m4.23829-4.2539l1.17578.35547m12.17187-1.61328l-3.57812 6.04687m3.0586-5.16797l1.22655.05469m12.32813-1.08203l-3.01953 6.34375m3.01953-6.34375l2.45312-.10938m11.91407.875l-5.125 4.8086m5.125-4.8086l2.32421.79297m-3.0703-.09375l1.16406.39844m13.14062-.8086l-5.60938 4.23047m5.60938-4.23047l2.22266 1.03907m-3.03907-.42188l1.11329.51563m13.05078-1.08985l-5.67579 4.14453m5.67579-4.14453l2.20703 1.07032m-3.03125-.46875l1.10156.53906m11.97266-2.10156l-3.54688 6.0664m3.54688-6.0664l2.45312.09765m-2.96875.78516l2.45313.09765M384.5 423.65235l-1.65625 6.83203m1.65625-6.83203l2.375-.60547m-2.61719 1.60157l2.3789-.60938m12.91798.63281l-5.13672 4.79297m5.13672-4.79297l2.32031.80079m-3.0664-.10157l1.16015.39844m12.97656-1.01562l-5.28515 4.6289m5.28515-4.6289l2.29297.86718m-3.0625-.1953l2.29297.87109m12.29688-.78516l-6.30079 3.11328m6.30079-3.11328l1.99218 1.4336m-2.90625-.98048l.9961.71875m13.59375.25391l-7.01954.26172m6-.22266l.61329 1.0625m9.8828-4.46875l.65626 6.9961m-.5586-5.97657l1.02344-.67578m10.95703.00781l3.13282 6.29297m-3.13282-6.29297l1.42579-1.99609"/><g clip-path="url(#ag)"><path fill="none" stroke="#000" stroke-linecap="round" stroke-linejoin="round" stroke-miterlimit="10" stroke-width=".5" d="M147.39063 412.83203l-6.78125 1.84375"/></g><path fill="none" stroke="#000" stroke-linecap="round" stroke-linejoin="round" stroke-miterlimit="10" stroke-width=".5" d="M147.39063 412.83203l1.67968 1.78906m11.71875-1.39062l-6.94922 1.04687m6.94922-1.04687l1.46094 1.96875m11.88281-1.71094l-7.00781.53125m7.00781-.53125l1.3125 2.07422m12-2.09375l-7 .57031m7-.57031l1.32813 2.0625m12-1.8125l-7.02735.07031m7.02735-.07031l1.17187 2.15625m11.1914-4.52344l-5.125 4.80469m4.38282-4.10547l1.16016.39453m13.11719 3.45703l-5.5625-4.29687m18.85156 4.32812l-5.51172-4.35937m5.51172 4.35937l-.4414 2.41407m14.5078-4.81641l-7.01172.4414m5.9922-.375l.64062 1.04298m12.21484-3.75782l-4.05469 5.73828m3.46485-4.90234l1.21484.15625m14.16797 1.64844l-7.01172.46094m18.96875-3.01172l-4.29297 5.5625m3.66797-4.75391l1.20703.20703m12.7539-1l-4.33593 5.53125m3.70313-4.72656l1.20703.21484m11.04687-1.73437l-.94922 6.96094m.94922-6.96094l2.30078-.85156m12.48829 1.40625l-3.89844 5.84765m3.89844-5.84765l2.4414.24609m11.4961.28125l-5.14063 4.79297m5.14063-4.79297l2.3203.80078m11.73829.42578l-6.6289 2.33985m6.6289-2.33985l1.80469 1.66016m11.41015-1.91016l-6.42578 2.84375m6.42578-2.84375l1.92969 1.51172m11.125-1.99219l-5.91016 3.80078m5.91016-3.80078l2.14063 1.20313m-3-.64844l2.14062 1.19922m-3-.64453l1.07031.59765m13.83594-1.89453l-5.65234 4.17969m5.65234-4.17969l2.21484 1.0586m-3.03906-.44922l2.21485 1.05469m11.1914-2.39844l-4.1875 5.64453m4.1875-5.64453l2.42578.36719m-3.03515.45703l2.42578.36328m10.36719-1.74219l-1.92579 6.75781m1.92579-6.75781l2.40234-.51562m-2.67969 1.5l2.39844-.51563m-2.67969 1.4961l2.39844-.51172m13.11719-.4336l-5.21094 4.71485m5.21094-4.71485l2.30859.83594m10.76172-1.08203l-4.71484 5.21094m4.71484-5.21094l2.3789.59765m-3.0664.16016l1.1914.30078m13.33594-.45703l-5.76953 4.00781"/><g clip-path="url(#ah)"><path fill="none" stroke="#000" stroke-linecap="round" stroke-linejoin="round" stroke-miterlimit="10" stroke-width=".5" d="M466.44531 411.75l2.1836 1.1211"/></g><g clip-path="url(#ai)"><path fill="none" stroke="#000" stroke-linecap="round" stroke-linejoin="round" stroke-miterlimit="10" stroke-width=".5" d="M465.60938 412.33203l2.17968 1.1211"/></g><g clip-path="url(#aj)"><path fill="none" stroke="#000" stroke-linecap="round" stroke-linejoin="round" stroke-miterlimit="10" stroke-width=".5" d="M147.4375 399.71484l-6.875 1.44922"/></g><path fill="none" stroke="#000" stroke-linecap="round" stroke-linejoin="round" stroke-miterlimit="10" stroke-width=".5" d="M147.4375 399.71484l1.57422 1.88282m-2.57422-1.67188l.78906.9414m13.53906-1.08202l-6.90234 1.30859m6.90234-1.3086l1.53516 1.91407m-2.53906-1.72266l.76953.95703m13.60938-.61328l-7.02344.23438m7.02344-.23438l1.22265 2.1289m12.02734-2.69921L180.5 401.125m5.88672-1.17578l.77734.95312m12.6836-2.83984l-5.17578 4.7539m4.42187-4.0625l1.15625.40626m11.39063-2.07032l-2.13282 6.69532m1.82422-5.71875l1.20703-.22266m14.7539 1.71094l-6.80468 1.76562m6.80469-1.76562l1.65625 1.8086m-2.64844-1.55079l.83203.90625m13.46485-1.1875l-6.78516 1.8164m6.78516-1.8164l1.67578 1.79297m-2.66016-1.53125l.83594.89844m13.29687-1.64844l-6.44922 2.79297m6.44922-2.79297l1.91797 1.53125m10.7461-2.52735l-5.14844 4.78516m4.39844-4.08984l1.16015.40234m13.75 2.10156l-6.83984-1.61328m5.84375 1.3789l.3125 1.1836m13.21484-4.08203l-5.26953 4.64844m18.4336.16015l-4.96875-4.96875m4.24609 4.2461l-.35938 1.17578m15.32813-3.7539l-6.83203 1.6328m6.83203-1.6328l1.625 1.83984m11.64453-2.01953l-6.73828 1.99218m6.73828-1.99218l1.71875 1.7539m11.21484-2.60156l-5.98046 3.6914m5.11328-3.15624l1.05859.62109m13.46484-.42969l-6.66015 2.23438m5.6914-1.90625l.89063.84375m13.57422-.15235l-7.02344.19922m6.0039-.17187l.60548 1.0664m13.53515-2.15234l-6.63281 2.3164m6.63281-2.3164l1.80078 1.66406m-2.76562-1.32812l1.80078 1.66406m12.14453-2.69531l-5.96484 3.70703m5.96484-3.70703l2.125 1.23047m-2.99219-.69141l1.0625.61328m13.27735-.8789l-6.27735 3.15625m6.27735-3.15625l2 1.41796m10.16015-2.73828l-3.96875 5.80078m3.96875-5.80078l2.4375.26953m-3.01562.57422l2.4375.26953m-3.01563.57422l1.21875.13672m13.69922-1.46094L434.5 402.97656m4.86328-5.07422l2.35938.66407m-3.06641.07421l2.35938.66407m12.3164-.54688l-6.17187 3.35938m6.17187-3.35938l2.04688 1.35156m-2.94532-.86328l2.04688 1.35157m12.17187-1.83204l-6.17968 3.34375"/><g clip-path="url(#ak)"><path fill="none" stroke="#000" stroke-linecap="round" stroke-linejoin="round" stroke-miterlimit="10" stroke-width=".5" d="M466.65234 398.76563l2.04297 1.35937"/></g><g clip-path="url(#al)"><path fill="none" stroke="#000" stroke-linecap="round" stroke-linejoin="round" stroke-miterlimit="10" stroke-width=".5" d="M465.7539 399.2539l2.04298 1.35548"/></g><g clip-path="url(#am)"><path fill="none" stroke="#000" stroke-linecap="round" stroke-linejoin="round" stroke-miterlimit="10" stroke-width=".5" d="M147.51172 387.21484l-7.02344-.18359"/></g><path fill="none" stroke="#000" stroke-linecap="round" stroke-linejoin="round" stroke-miterlimit="10" stroke-width=".5" d="M147.51172 387.21484l1.09766 2.19532m12.21484-2.15625l-7.01953-.26172m7.01953.26172l1.07422 2.20703m11.3711-4.65625l-5.27735 4.63672m5.27734-4.63672l2.29688.86719m8.51562-2.0586l-.27344 7.01953m.27344-7.01953l2.21094-1.0664m9.92187 1.22265l2.08985 6.70703m-2.08985-6.70703l1.72657-1.7461m16.0664 5.85157l-6.86328-1.5039m6.86328 1.5039l.66406 2.36328m12.73047-3.05078l-7.02343-.1289m6.0039.10937l.55469 1.09375m13.77734-1.30078l-7.01953.32422m6-.27735l.625 1.05469m13.51953-2.08984l-6.64062 2.30078m6.64062-2.30078l1.79688 1.67187m11.40625-1.95703l-6.41406 2.8711m6.41406-2.8711l1.9375 1.50781m11.54687-1.03906l-6.7539 1.9336m6.7539-1.9336l1.70313 1.76953m11.73047-1.16015l-6.99219.71484m6.99219-.71485l1.36718 2.03907m11.79688-2.76563l-6.6875 2.16797m6.6875-2.16797l1.76172 1.70703m11.70703-.28125l-6.9961-.68359m5.97657.58203l.46875 1.13672m13.82812-.76563l-6.92187-1.22265m6.92187 1.22265l.75782 2.33594m12.38671-4.17578l-6.58203 2.45703m5.625-2.10156l.91797.8164m13.57813.10548l-7.02735-.09766m7.02735.09765l1.1211 2.1836m12.1914-2.16406l-7.02344-.13672m7.02344.13672l1.10937 2.1914m-2.1289-2.21094l1.10937 2.1875m13.16797-2.8789l-6.90625 1.28906m6.90625-1.28906l1.53125 1.91797m-2.53516-1.73047l.76563.95703m13.60156-.80469l-7.0039.60547m7.0039-.60547l1.33203 2.0625m-2.35156-1.97265l1.33203 2.05859m12.94922-2.52734l-6.89453 1.36328m6.89453-1.36328l1.54687 1.90234m-2.55078-1.70313l.77344.95313m12.66797-2.86719l-5.14063 4.79297m5.14063-4.79297l2.32031.80078m-3.07031-.10156l1.16016.39844m13.01171-.97656l-5.35546 4.55078m5.35546-4.55078l2.28125.90234m-3.0625-.24219l2.28125.90625m11.79688-1.58594l-5.32031 4.58985m5.32031-4.58985l2.28906.88672m-3.0625-.21875l2.28906.88672m12.27344-.85156l-6.26562 3.1836"/><g clip-path="url(#an)"><path fill="none" stroke="#000" stroke-linecap="round" stroke-linejoin="round" stroke-miterlimit="10" stroke-width=".5" d="M466.69531 385.53125l2.00781 1.41016"/></g><path fill="none" stroke="#000" stroke-linecap="round" stroke-linejoin="round" stroke-miterlimit="10" stroke-width=".5" d="M465.78125 385.9961l1.0039.70312"/><g clip-path="url(#ao)"><path fill="none" stroke="#000" stroke-linecap="round" stroke-linejoin="round" stroke-miterlimit="10" stroke-width=".5" d="M147.00781 375.625l-6.01562-3.63281"/></g><path fill="none" stroke="#000" stroke-linecap="round" stroke-linejoin="round" stroke-miterlimit="10" stroke-width=".5" d="M160.3789 375.52344l-6.1289-3.4336m5.23828 2.9336l-.02734 1.22656m14.66406-2.08203l-6.98828-.71875m5.97266.61328l.46093 1.13672m12.85156-3.88281l-4.95312 4.98046m4.95313-4.98046l2.35156.71484m11.83594.71875l-6.69922 2.11719m6.69922-2.11719l1.7539 1.71875m11.69531-.21484l-6.96875-.89063m6.96875.89063l.8711 2.29687m12.41797-3.3711l-6.91407 1.25782m6.91407-1.25781l1.51953 1.92578m-2.52735-1.74219l.76172.96094m13.61328-.38281l-7.01953-.26563m7.01953.26563l1.07032 2.20703m12.24609-2.44922l-7.02344.21484m6.0039-.1836l.60938 1.06642m13.625-.14844l-6.8203-1.67969m6.8203 1.67969l.60157 2.3789m12.76953-3.78906l-6.9336 1.14063m6.9336-1.14063l1.48828 1.95313m-2.4961-1.78516l.7422.97266m13.61718-.85547l-7.0039.57031m7.0039-.57031l1.32422 2.0664m11.98828-2.09375l-7 .625m5.98047-.53515l.67187 1.02734m13.42188.51172l-6.51953-2.63281m5.57031 2.25l.1289 1.21875m13.82423-.24219l-5.89844-3.82031m5.89844 3.82031l-.21094 2.44531m13.50781-2.41406l-5.85938-3.88281m5.00782 3.3164l-.1211 1.22266m14.86329-2.3711l-7.01172-.45312m7.01171.45313l1.01172 2.23437m12.3047-2.25781l-7.01563-.41016m7.01562.41016l1.02344 2.23047m-2.04297-2.28906l.51172 1.11718m13.82812-1.33984l-7.02343.15625m7.02343-.15625l1.19922 2.14062m-2.22265-2.11718l.60156 1.0703m13.72265-1.33202l-6.99609.63281m6.9961-.63281l1.34375 2.05469m-2.35938-1.96485l.66797 1.02735m13.67578-.89844l-7.02344.19531m7.02344-.19531l1.21094 2.13672m11.7539-3.57422l-6.3203 3.07031m6.3203-3.07031l1.98047 1.44531m11.32031-1.47266l-6.29296 3.125m6.29296-3.125l1.9961 1.42579m11.27734-1.50782l-6.21094 3.28906m6.21094-3.28906l2.03125 1.375m-2.9336-.89844l1.01563.6875m13.50782-.36718l-6.82032 1.6914"/><g clip-path="url(#ap)"><path fill="none" stroke="#000" stroke-linecap="round" stroke-linejoin="round" stroke-miterlimit="10" stroke-width=".5" d="M466.97266 372.96094l1.64062 1.82812"/></g><path fill="none" stroke="#000" stroke-linecap="round" stroke-linejoin="round" stroke-miterlimit="10" stroke-width=".5" d="M465.98047 373.20703l.82031.91406"/><g clip-path="url(#aq)"><path fill="none" stroke="#000" stroke-linecap="round" stroke-linejoin="round" stroke-miterlimit="10" stroke-width=".5" d="M145.65625 357.39453l-3.3125 6.19531"/></g><path fill="none" stroke="#000" stroke-linecap="round" stroke-linejoin="round" stroke-miterlimit="10" stroke-width=".5" d="M159.51563 363.23438l-4.39844-5.48047m15.16797 6.23437l.6875-6.99219m-.58594 5.97657l-1.13672.46875m17.53906-5.01172l-5.6875 4.1289m4.85938-3.53125l1.10156.53907m11.92578 3.98437l-3.45703-6.11719m17.69922 5.36329l-5.3086-4.60547m4.53516 3.93359l-.27734 1.19531m13.48437.20703l-3.54687-6.0664m3.03125 5.1836l-.64453 1.04296m15.41406-.96484l-5.42578-4.46094m4.63672 3.8125l-.2422 1.20312m13.29298.3125l-3.32031-6.1914m2.83984 5.28906l-.6836 1.01953m15.1172-.55469l-4.59376-5.3203m3.92578 4.54687l-.4453 1.14453m14.90233-.86719l-5.53906-4.32422m5.53906 4.32422l-.42578 2.41406m14.20703-3.20703l-6.47265-2.73828m6.47265 2.73828l.21485 2.44531m13.19531-2.6953l-6.66406-2.23829m5.6914 1.91016l.20313 1.21093m11.59766 1.40625l-1.69141-6.8203m15.10938 6.79296l-1.89454-6.76563m1.6172 5.78125l-.88673.84766m15.11328-.10547l-3.16406-6.27734m3.16406 6.27734l-1.41796 2m16.03906-3.14062l-5.77735-4m5.77735 4l-.28516 2.4375m13.875-2.90625l-6.32812-3.0586m6.32812 3.0586l.09375 2.45312m13.57031-3.92969l-7.02734-.10937m7.02734.10938l1.1172 2.18359m12.03124-3.3125l-6.6914 2.14844m6.6914-2.14844l1.75781 1.71094m11.45313-1.98829l-6.48438 2.70704m6.48438-2.70704l1.89844 1.5547m11.30078-1.8086l-6.25 3.21094m6.25-3.21094l2.01562 1.39844m11.03516-1.83204l-5.72266 4.08204m5.72266-4.08204l2.19531 1.09375m11.05078-1.18359l-5.58594 4.26172m4.77344-3.64453l1.11719.51172m12.82031-1.35938l-5.20312 4.72266m4.44531-4.03516l1.15625.41406"/><g clip-path="url(#ar)"><path fill="none" stroke="#000" stroke-linecap="round" stroke-linejoin="round" stroke-miterlimit="10" stroke-width=".5" d="M143.77344 343.67188l.45312 7.01171"/></g><path fill="none" stroke="#000" stroke-linecap="round" stroke-linejoin="round" stroke-miterlimit="10" stroke-width=".5" d="M154.6836 349.50781l5.26171-4.66015m7.69531 4.17578l5.98047-3.6914m13.82032 2.18358l-6.9922-.67578m5.97657.57813l.46875 1.13281m6.85547-1.21094l7.01953-.32421m-5.9961.27734l-.625-1.05469m13.29688 2.53906l6.25781-3.19921m-5.34765 2.73437l-1.0039-.70313m13.37109 1.08594l6.33593-3.03515m-5.41406 2.59375l-.98828-.72657m13.14844-1.22656l6.80469 1.7539m7.12109 1.25782l5.58203-4.26953m7.91797 4.49219l5.21094-4.71485m-4.45313 4.02735l-1.15625-.41797m14.85547 1.94531l2.92578-6.39063m-2.5 5.46094l-1.22265.07031m15.87109 1.16407l-.59375-7.0039m.59375 7.0039l-2.0586 1.33203m16.0625-1.46094l-1.96875-6.7461m1.6797 5.76563l-.87891.85547m13.90234.24219l-.8086-6.98047m.69141 5.96484l-1.01172.69532m13.34766.27343l1.38672-6.88671m-1.1875 5.88671l-1.17578.35157m14.1836.6289l1.59765-6.84375m-1.59766 6.84375l-2.3711.6289m16.8086-.55468l-.64453-6.9961m.64453 6.9961l-2.05078 1.34766M372 350.28125l-3.28906-6.20703M372 350.28125l-1.375 2.03516m16.13672-3.46485l-6.17969-3.34765m6.17969 3.34765l-.01953 2.45313m13.75-4.36719l-7.01172.48047m5.99219-.41016l.64843 1.04297m13.23829-2.60156l-6.1172 3.45703m5.23048-2.95313l1.03125.66016m12.2539-2.21875l-4.28515 5.57031m4.28515-5.5703l2.42188.40624m10.5586-.63672l-3.61329 6.02735m3.61328-6.02735l2.45313.1289m11.40625.27345l-4.70313 5.22265m4.01953-4.46094l1.1914.29688m13.35157-.4375l-5.78906 3.98438m4.94531-3.40625l1.08985.5664"/><g clip-path="url(#as)"><path fill="none" stroke="#000" stroke-linecap="round" stroke-linejoin="round" stroke-miterlimit="10" stroke-width=".5" d="M145.55469 330.71094l-3.10938 6.30469"/></g><path fill="none" stroke="#000" stroke-linecap="round" stroke-linejoin="round" stroke-miterlimit="10" stroke-width=".5" d="M145.10156 331.6289l1.22656-.03906m14.4922 2.48438l-7.01173-.42578m5.9922.36719l.51171 1.11328m12.65234 1.36328l-4.66797-5.25781m3.98829 4.49218l-.4297 1.14844m13.96876-.04297l-3.75781-5.9375m3.21093 5.07422l-.60547 1.0664m11.1211.01954l2.9336-6.38672m14.33593 5.67578l-4.97656-4.96094m19.26953 1.90235l-6.92969 1.15625m5.92188-.98829l.74609.97266m12.92969-2.66015l-5.63672 4.1953m4.8164-3.58593l1.10938.52344m12.76172-1.44922l-5.10547 4.82812m4.36328-4.125l1.16016.39063m10.625-2.1836l-.5664 7.00391m.48437-5.98437l1.1289-.48438m8.61328 1.99219l6.7461 1.95312m7.10937 1.10157l5.66797-4.15625m-5.66797 4.15625l-2.21093-1.06641m16.39453 1.90234l3.92968-5.82812m-3.92968 5.82812l-2.44141-.2578m18.64453.73437l-1.84765-6.78125m1.57812 5.79296l-.89062.83985m12.64062.15234l1.82422-6.78906M329.5 337.25781l-2.39453.54688m15.1289-.76172l2.98438-6.35938m-2.98437 6.35938l-2.44922.125m14.95703-.64844l4.59765-5.3125m-4.59765 5.3125l-2.39063-.54687m17.91797 1.40234l.17578-7.02344m-.15234 6l-1.09766.55078m16.85547-.45703l-4.76172-5.16406m4.76172 5.16406l-.8125 2.3164m14.67969-2.96093l-5.86328-3.875m5.00781 3.3125l-.11719 1.21875m14.65235-3.8086l-6.59375 2.4297m5.63672-2.07422l.91406.8164m12.36719-2.60937l-4.60938 5.30469m3.9375-4.53125l1.19531.27343m12.96094-.88672l-4.94922 4.98438m4.94922-4.98438l2.34766.70704m11.71875.39453l-6.45313 2.78125m6.45313-2.78125l1.91406 1.53125m11.625-.8047l-6.89844 1.32813"/><g clip-path="url(#at)"><path fill="none" stroke="#000" stroke-linecap="round" stroke-linejoin="round" stroke-miterlimit="10" stroke-width=".5" d="M467.01172 333.19922l1.53906 1.91015"/></g><path fill="none" stroke="#000" stroke-linecap="round" stroke-linejoin="round" stroke-miterlimit="10" stroke-width=".5" d="M466.00781 333.39063l.76953.95703"/><g clip-path="url(#au)"><path fill="none" stroke="#000" stroke-linecap="round" stroke-linejoin="round" stroke-miterlimit="10" stroke-width=".5" d="M146.67188 318.26563l-5.34375 4.5664"/></g><path fill="none" stroke="#000" stroke-linecap="round" stroke-linejoin="round" stroke-miterlimit="10" stroke-width=".5" d="M145.89453 318.92969l1.14063.44922m13.79297 1.26171l-7.02735-.18359m6.0039.15625l.54688 1.09766m13.4414.36719l-6.32421-3.0625m6.32422 3.0625l.09375 2.45312m12.21875-1.21484l-4.32031-5.53907m3.6914 4.73438l-.5 1.1211m14.6211-.46094l-4.67578-5.2461m3.99609 4.48047l-.42578 1.15234m15.40625-1.87109l-6.64844-2.27734m5.6836 1.9453l.1914 1.21095m14.27734-1.96485l-7.02343-.10547m7.02343.10547l1.1211 2.1836m11.78515-3.88672l-6.20312 3.30078m5.30078-2.82031l1.01563.68359m12.16015-2.35938l-4.1211 5.69141m3.51954-4.86328l1.21484.16797m11.20313-1.6211l-1.125 6.9375m.96094-5.92578l1.16015-.39843m11.29297-.625l.92578 6.96484m-.79297-5.95313l1-.71484m10.75.22656l3.78907 5.91797m-3.23829-5.0586l.60157-1.0703m10.89843 4.70312l6.32032-3.07031m-5.40235 2.625l-.99218-.72266m13.78906 1.8086l5.51953-4.35157m-4.71484 3.71875l-1.125-.49218m15.9375 2.43359l.91406-6.96875m-.91406 6.96875l-2.29688.85938m15.95703-.83204l.22656-7.02343m-.22656 7.02343l-2.20312 1.08204m14.7539-1.19141l1.7539-6.80469m-1.7539 6.80469l-2.38672.57422m14.16016-1.42578l4.83594-5.10157m-4.13281 4.35938l-1.1797-.32813m16.10938 2.03125l.20313-7.02343m-.17188 6.0039l-1.10156.54297m14.08594.45703l.80078-6.98047m-.6836 5.96485l-1.14062.44922m15.875.40234l-2.26953-6.65234m1.9375 5.68359l-.83984.89453m16.74609-4.15234l-6.79297 1.80078m5.80469-1.53906l.83594.89843m12.3203-2.96093l-4.49609 5.39843m3.84375-4.61328l1.19922.2539m13.42188-.3203l-5.80078 3.96484m5.80078-3.96484l2.17187 1.13671m11.50782-.44921l-6.53125 2.58984"/><g clip-path="url(#av)"><path fill="none" stroke="#000" stroke-linecap="round" stroke-linejoin="round" stroke-miterlimit="10" stroke-width=".5" d="M466.82813 319.2539l1.86718 1.58985"/></g><path fill="none" stroke="#000" stroke-linecap="round" stroke-linejoin="round" stroke-miterlimit="10" stroke-width=".5" d="M465.8789 319.6289l1.8672 1.58985"/><path fill="#ff3030" fill-rule="evenodd" d="M317.91797 436.57813h7.69531v-10.14454h-7.69531v10.14454"/><path fill="azure" fill-rule="evenodd" d="M319.7539 428.26563h.83204v5.74218h3.1914v.73828h-4.02343v-6.48046"/><path fill="#ff3030" fill-rule="evenodd" d="M198.08203 432.14063h7.69531v-10.14454h-7.6953v10.14454"/><path fill="azure" fill-rule="evenodd" d="M199.91797 423.82813h.83203v5.73828h3.19531v.74218h-4.02734v-6.48046"/><path fill="#00f" fill-rule="evenodd" d="M388.23828 432.14063h8.61719v-10.14454h-8.61719v10.14454"/><path fill="azure" fill-rule="evenodd" d="M390.07031 423.82813h.83594v2.82421h3.28516v-2.82421h.83203v6.48046h-.83203v-2.91796h-3.28516v2.91796h-.83594v-6.48046"/><path fill="#00f" fill-rule="evenodd" d="M224.01953 418.82813h8.61719v-10.14844h-8.61719v10.14844"/><path fill="azure" fill-rule="evenodd" d="M225.85156 410.51172h.83594v2.82422h3.28516v-2.82422h.83203v6.48047h-.83203v-2.91406h-3.28516v2.91406h-.83594v-6.48047"/><path fill="#ff3030" fill-rule="evenodd" d="M291.28906 405.51172h7.6914v-10.14453h-7.6914v10.14453"/><path fill="azure" fill-rule="evenodd" d="M293.1211 397.19922h.83593v5.73828h3.1914v.74219h-4.02734v-6.48047"/><path fill="#00f" fill-rule="evenodd" d="M197.39063 392.19531h8.61718v-10.14453h-8.61719v10.14453"/><path fill="azure" fill-rule="evenodd" d="M199.22266 383.88281h.83203v2.82422h3.28515v-2.82422h.83594v6.48047h-.83594v-2.91406h-3.28515v2.91406h-.83203v-6.48047"/><path fill="#ffffe0" fill-rule="evenodd" d="M323.99219 372.8125h22.17969v-10.1914h-22.1797v10.1914"/><path fill-rule="evenodd" d="M327.48828 364.45313H328V370.75h-.78906v-4.49219h-1.38672v-.55469l.5586-.0664.2539-.05078.22656-.08985.20703-.14453.17188-.20703.14062-.29687.10547-.39454m4.8164 0l.22657.01954.21875.05468.21094.08985.19531.1211.1836.14843.17187.17578.30078.42188.2461.49218.17968.54688.10938.57812.03906.59375-.03906.58985-.10938.58593-.17969.5547-.24609.5-.30078.42968-.17188.17969-.18359.15234-.19531.125-.21094.08984-.21875.0586-.22656.01953-.23047-.01953-.21875-.0586-.20703-.08984-.19922-.125-.1836-.15234-.17187-.1797-.30078-.42968-.24219-.5-.17969-.55469-.11328-.58593-.03515-.58985h.83203l.02734.5625.08203.5039.125.44532.16406.3711.19141.30078.21094.22265.22265.13672.22657.04688.22656-.04688.22266-.13672.21093-.22265.1875-.30079.16407-.37109.125-.44531.08203-.5039.03125-.5625-.03125-.5625-.08203-.5-.125-.4375-.16407-.36329-.1875-.29297-.21093-.21484-.22266-.13281-.22656-.04297-.22656.04297-.22266.1328-.21094.21485-.1914.29297-.16407.36328-.125.4375-.08203.5-.02734.5625h-.83203l.03515-.59375.11328-.57812.1797-.54688.24218-.49219.30078-.42187.17188-.17578.18359-.14844.19922-.1211.20703-.08984.21875-.05468.23047-.01954m5.08984 0h.50781V370.75h-.78515v-4.49219h-1.38672v-.55469l.5586-.0664.25-.05078.23046-.08985.20313-.14453.17578-.20703.14062-.29687.10547-.39454m2.82422 2.17579h.78516l.01953-.31641.0625-.28516.09765-.2539.14063-.21485.17969-.17578.22265-.1289.26563-.07813.3086-.02734.23827.01953.22266.0625.20703.10156.17578.14063.14844.17187.11328.20703.07422.23438.02344.26562-.01954.26953-.0664.22266-.10938.1914-.15625.17188-.20312.16406-.2461.16407-.6328.39062-.53907.3125-.4375.3164-.34375.32423-.26563.33593-.1914.35157-.125.37109-.0664.39063-.02344.42187h4.21484v-.74219h-3.33203l.08203-.28515.11328-.23438.14844-.20312.1875-.1797.23047-.17187.27734-.17578.71875-.41797.41406-.20312.34766-.23047.27734-.2539.22266-.26563.16406-.27735.10938-.28515.0625-.28516.02343-.28125-.04296-.38281-.1211-.34766-.1875-.30859-.2539-.26172-.30079-.21484-.34375-.15625-.3828-.09766-.40626-.03515-.4336.03125-.39843.10156-.35547.16406-.30469.23438-.25.30468-.18359.375-.11719.44531-.03906.51954"/><path fill="#ffffe0" fill-rule="evenodd" d="M239.66016 386.39844h22.18359v-10.19531h-22.1836v10.1953"/><path fill-rule="evenodd" d="M243.16016 378.03906h.51172v6.29297h-.78907v-4.48828h-1.38672v-.55469l.5586-.0664.2539-.0547.22657-.08983.20312-.14063.17578-.21094.14063-.29297.10547-.39453m4.8164 0l.22656.01953.21875.0547.21094.08983.19531.1211.1836.14844.17187.17578.30078.41797.2422.49609.17968.54688.11328.57812.03906.58984-.03906.59375-.11328.58204-.17969.55468-.24219.5039-.30078.42579-.17187.17969-.1836.15625-.1953.1211-.21095.09374-.21875.05469-.22656.01953-.23047-.01953-.21875-.05469-.20703-.09375-.19922-.1211-.18359-.15624-.17188-.17969-.30078-.42578-.24218-.5039-.1797-.5547-.11327-.58203-.03906-.59375h.83593l.02735.5625.08203.50782.125.4414.16406.375.1914.30078.21094.22266.22266.13672.22656.04687.22656-.04687.22266-.13672.20703-.22266.1914-.30078.16407-.375.125-.4414.08203-.50782.02735-.5625-.02735-.5625-.08203-.5-.125-.43359-.16406-.36719-.1914-.29297-.20704-.21093-.22266-.13282-.22656-.04687-.22656.04687-.22266.13282-.21093.21093-.19141.29297-.16406.36719-.125.4336-.08203.5-.02735.5625h-.83594l.03907-.58985.11328-.57813.17969-.54687.24218-.4961.30078-.41796.17188-.17578.1836-.14844.19921-.1211.20703-.08984.21875-.05469.23047-.01953m5.08985 0h.5078v6.29297h-.78515v-4.48828h-1.39062v-.55469l.5625-.0664.25-.0547.23047-.08983.20312-.14063.17578-.21094.14063-.29297.10547-.39453m2.82422 2.17578h.78515l.01953-.3164.0586-.28906.10156-.25.14062-.21485.1797-.17578.22265-.1289.26562-.08204.3086-.02734.23828.02344.22265.0625.20313.10156.17969.13672.14843.17578.11329.20312.07421.23829.02344.26171-.02344.26954-.0625.22656-.11328.1914-.15234.17188-.20313.16015-.24609.16797-.63281.38672-.53906.3125-.4375.32031-.34766.32422-.26172.33594-.1914.34766-.125.3711-.06641.39452-.02344.41797h4.21094v-.73828h-3.33203l.08593-.28516.11329-.23828.14843-.19922.1875-.18359.23047-.16797.27735-.17578.71875-.41797.41406-.20703.34375-.23047.28125-.25.22265-.26562.16016-.28125.11328-.28125.0625-.28516.01953-.28125-.03906-.38281-.1211-.34766-.1914-.3086-.25-.26562-.30078-.21094-.34766-.15625-.3789-.10156-.40625-.03125-.4336.03125-.39844.09766-.35546.16797-.3047.23437-.25.30469-.18358.375-.1172.44531-.03905.51953"/><path fill="#ffffe0" fill-rule="evenodd" d="M266.29297 472.01563h22.17969V461.8203h-22.1797v10.19531"/><path fill-rule="evenodd" d="M269.79297 463.65625h.50781v6.29297h-.78906v-4.48828H268.125v-.55469l.5586-.0664.2539-.0547.23047-.08984.20312-.14062.17188-.21094.14062-.29297.10938-.39453m4.8125 0l.23047.01563.21875.05859.20703.08984.19531.1211.1836.14843.17187.17579.30078.41796.2461.4961.17968.54297.10938.58203.03906.58984-.03906.59375-.10938.58203-.17969.55469-.24609.5039-.30078.42579-.17188.17969-.18359.15625-.19531.12109-.20703.09375-.21875.05469-.23047.01953-.23047-.01953-.21875-.0547-.20703-.09374-.19531-.1211-.1875-.15625-.16797-.17968-.30469-.42578-.24219-.50391-.17969-.55469-.11328-.58203-.03515-.59375h.83203l.02734.5625.08203.50781.12891.44141.16016.375.1914.30078.21094.22266.22266.13672.22656.04687.22656-.04687.22266-.13672.21094-.22266.1914-.30078.16016-.375.125-.4414.08203-.50782.03125-.5625-.03125-.5625-.08203-.5-.125-.4336-.16016-.36718-.1914-.29297-.21094-.21094-.22266-.1328-.22656-.04688-.22656.04687-.22266.13281-.21094.21094-.1914.29297-.16016.36719-.1289.4336-.08204.5-.02734.5625h-.83203l.03515-.58985.11329-.58203.17968-.54297.24219-.4961.30469-.41796.16797-.17579.1875-.14843.1953-.1211.20704-.08984.21875-.0586.23047-.01562m5.08984 0h.51172v6.29297h-.78906v-4.48828h-1.38672v-.55469l.5586-.0664.2539-.0547.22656-.08984.20313-.14062.17578-.21094.14062-.29297.10547-.39453m2.82422 2.17578h.78906l.01954-.3164.05859-.28907.09765-.25.14063-.21484.17969-.17578.22265-.1289.26563-.08204.3086-.02734.23827.02343.22266.0625.20703.10157.17969.13671.14844.17579.11328.20312.07031.23828.02344.26172-.01953.26953-.06641.22656-.10938.19141-.15625.17188-.19921.16015-.25.16797-.63282.38672-.53906.3125-.4375.32031-.34375.32422-.26562.33594-.1875.34765-.12891.3711-.0664.39453-.01954.41797h4.21094v-.73828h-3.33203l.08203-.28516.11328-.23828.14844-.19922.1875-.1836.23047-.16796.27734-.17578.71875-.41797.41406-.20703.34766-.23047.28125-.25.21875-.26563.16406-.28125.10938-.28125.0625-.28515.02344-.28125-.04297-.38281-.1211-.34766-.1875-.3086-.25-.26562-.30469-.21094-.34375-.16015-.3828-.09766-.40626-.03125-.4336.03125-.39843.09766-.35547.16796-.30469.23438-.24609.30469-.1875.375-.11719.44531-.03906.51953"/><path fill="#ffffe0" fill-rule="evenodd" d="M381.6875 456.7461h22.1836v-10.19141h-22.1836v10.1914"/><path fill-rule="evenodd" d="M385.1875 448.38672h.51172v6.29297h-.78906v-4.48828h-1.38672v-.5547l.5586-.0664.2539-.05469.22656-.08984.20313-.14062.17578-.21094.14062-.29297.10547-.39453m4.8164 0l.22657.01953.21875.05469.21094.08984.1953.1211.1836.14843.17188.17578.30078.41797.24219.4961.17968.54687.11329.57813.03906.58984-.03906.59375-.11329.58594-.17968.55078-.2422.5039-.30077.4297-.17188.17968-.1836.15234-.1953.1211-.21094.09375-.21875.0586-.22656.01952-.23047-.01953-.21875-.0586-.20703-.09374-.19922-.1211-.1836-.15234-.17187-.17969-.30078-.42969-.24219-.5039-.17969-.55078-.11328-.58594-.03906-.59375h.83594l.02734.5625.08203.50781.125.4414.16406.375.19141.30079.21094.22266.22265.13671.22657.04688.22656-.04688.22265-.13671.20704-.22266.1914-.30078.16406-.375.125-.4414.08204-.50782.02734-.5625-.02734-.5586-.08204-.5039-.125-.4336-.16406-.36718-.1914-.28906-.20704-.21485-.22265-.13281-.22656-.04297-.22657.04297-.22265.13281-.21094.21485-.1914.28906-.16407.36719-.125.43359-.08203.5039-.02734.5586h-.83594l.03906-.58984.11328-.57813.17969-.54687.24219-.4961.30078-.41797.17187-.17578.1836-.14844.19922-.12109.20703-.08984.21875-.05469.23047-.01953m5.08984 0h.50781v6.29297h-.78515v-4.48828h-1.39063v-.5547l.5625-.0664.25-.05469.23047-.08984.20313-.14062.17578-.21094.14062-.29297.10547-.39453m2.82422 2.17578h.78515l.01954-.3164.05859-.28907.10156-.25.14063-.21484.17969-.17578.22265-.12891.26563-.07813.30859-.02734.23828.01953.22266.0625.20312.10156.17969.13672.14844.17579.11328.20703.07422.23437.02344.26563-.02344.26562-.0625.22656-.11328.19141-.15235.17188-.20312.16015-.2461.16797-.6328.38672-.53907.3164-.4375.31641-.34766.32422-.26172.33594-.1914.35156-.125.36719-.0664.39453-.02345.41797h4.21485v-.73828h-3.33594l.08594-.28516.11328-.23828.14844-.19922.1875-.17969.23046-.17187.27735-.17578.71875-.41797.41406-.20313.34375-.23437.28125-.25.22266-.26563.16015-.27734.11329-.28516.0625-.28515.01953-.28125-.03907-.38282-.12109-.34765-.1914-.3086-.25-.26171-.30079-.21485-.34765-.15625-.37891-.10156-.40625-.03125-.4336.03125-.39843.10156-.35547.16406-.30469.23438-.25.30469-.1836.375-.11718.4453-.03906.51954"/><path fill="#ffffe0" fill-rule="evenodd" d="M208.59375 340.61719h22.17969v-10.1914h-22.17969v10.1914"/><path fill-rule="evenodd" d="M212.09375 332.25781h.50781v6.29688h-.78515v-4.48828h-1.39063v-.5586l.5586-.0625.2539-.05469.23047-.08984.20313-.14062.17187-.21094.14453-.29297.10547-.39844m4.8125 0l.23047.01953.21875.0586.20703.08594.19531.12109.1836.15234.17187.17578.30469.41797.24219.49219.17968.54688.10938.58203.03906.58984-.03906.59375-.10938.58203-.17968.55469-.2422.5039-.30468.42579-.17187.17968-.1836.15235-.19531.125-.20703.09375-.21875.05469-.23047.01953-.23047-.01954-.21875-.05468-.20703-.09375-.19531-.125-.1836-.15235-.17187-.17968-.30469-.42579-.24219-.5039-.17968-.55469-.10938-.58203-.03906-.59375h.83203l.03125.5625.07813.50781.1289.4414.16016.375.1914.30079.21094.21875.22266.13672.22656.04687.22656-.04687.22266-.13672.21094-.21875.1914-.30078.16016-.375.1289-.4414.08204-.50782.02734-.5625-.02734-.5625-.08203-.5-.12891-.4336-.16016-.36718-.1914-.29297-.21094-.21484L217.1328 333l-.22656-.04688-.22656.04688-.22266.1289-.21094.21485-.1914.29297-.16016.36719-.1289.43359-.07813.5-.03125.5625h-.83203l.03906-.58984.10938-.58204.17968-.54687.2422-.49219.30468-.41797.17187-.17578.1836-.15234.19531-.1211.20703-.08593.21875-.0586.23047-.01953m5.08984 0h.51172v6.29688h-.78906v-4.48828h-1.38672v-.5586l.5586-.0625.2539-.05469.22656-.08984.20703-.14062.17188-.21094.14063-.29297.10546-.39844m6.8047 1.6211h-.78517l-.05078-.21094-.08203-.1875-.10937-.15625-.1289-.13281-.14845-.10157-.15625-.07421-.17187-.04688-.17188-.01563-.32812.04297-.28516.1172-.2461.1953-.20312.26954-.16015.33984-.11719.40234-.07031.46875-.02344.52735.1875-.20313.1875-.16015.1836-.1211.1875-.08984.1875-.0625.1914-.03516.40234-.02344.3086.03125.32031.08985.3125.15625.29688.21875.2539.28515.19922.35157.07422.19921.05078.21875.03125.23438.0039.25-.78906.04688-.02734-.25782-.07422-.2539-.125-.23438-.16016-.20703-.1914-.17969-.22266-.13672-.23828-.08984-.2539-.02734-.25782.02734-.23828.08984-.21875.13672-.19531.17969-.16016.20703-.1211.23438-.07812.2539-.02734.25781.02734.25782.07813.25.1211.23828.16015.20703.19531.17969.21875.13672.23828.08593.25781.03125.25391-.03125.23828-.08593.22266-.13672.1914-.17969.16016-.20703.125-.23828.07422-.25.02734-.25781.78907-.04688-.03125.3711-.09375.37109-.15625.35937-.22266.32813-.28906.28125-.17188.1211-.1875.10155-.20703.08204-.22266.0625-.24218.03906-.25781.01172-.28516-.01563-.25781-.04687-.23828-.07813-.21875-.10156-.19141-.13281-.17578-.15625-.15235-.1797-.13672-.20312-.11718-.22265-.09766-.24219-.14844-.53516-.08593-.59375-.02344-.64062.03516-.74219.11718-.66406.1836-.57813.12109-.2539.13672-.23047.15234-.20703.17188-.17969.1875-.15625.19922-.1289.21875-.10157.23437-.07422.2461-.04687.26171-.01563.3672.03516.33202.09765.29688.14844.2539.19922.21094.24219.16797.27344.11328.30468.0625.32032"/></g></defs><use xlink:href="#aw"/></svg>