<svg xmlns="http://www.w3.org/2000/svg" role="img" xmlns:xlink="http://www.w3.org/1999/xlink" viewBox="142.45 309.95 326.84 171.84"><defs><clipPath id="a"><path d="M144 311.67188h1v168.65625h-1zm0 0"/></clipPath><clipPath id="b"><path d="M144 311.67188h324v168.65625H144zm0 0"/></clipPath><clipPath id="c"><path d="M467 311.67188h1v168.65625h-1zm0 0"/></clipPath><clipPath id="d"><path d="M144 479h4v1.32813h-4zm0 0"/></clipPath><clipPath id="e"><path d="M147 480h2v.32813h-2zm0 0"/></clipPath><clipPath id="f"><path d="M146 480h2v.32813h-2zm0 0"/></clipPath><clipPath id="g"><path d="M153 479h9v1.32813h-9zm0 0"/></clipPath><clipPath id="h"><path d="M160 480h3v.32813h-3zm0 0"/></clipPath><clipPath id="i"><path d="M166 479h9v1.32813h-9zm0 0"/></clipPath><clipPath id="j"><path d="M173 480h3v.32813h-3zm0 0"/></clipPath><clipPath id="k"><path d="M180 479h8v1.32813h-8zm0 0"/></clipPath><clipPath id="l"><path d="M187 480h2v.32813h-2zm0 0"/></clipPath><clipPath id="m"><path d="M193 479h9v1.32813h-9zm0 0"/></clipPath><clipPath id="n"><path d="M200 479h3v1.32813h-3zm0 0"/></clipPath><clipPath id="o"><path d="M206 479h9v1.32813h-9zm0 0"/></clipPath><clipPath id="p"><path d="M213 479h3v1.32813h-3zm0 0"/></clipPath><clipPath id="q"><path d="M220 479h8v1.32813h-8zm0 0"/></clipPath><clipPath id="r"><path d="M227 479h2v1.32813h-2zm0 0"/></clipPath><clipPath id="s"><path d="M233 479h8v1.32813h-8zm0 0"/></clipPath><clipPath id="t"><path d="M240 479h3v1.32813h-3zm0 0"/></clipPath><clipPath id="u"><path d="M246 479h9v1.32813h-9zm0 0"/></clipPath><clipPath id="v"><path d="M253 479h3v1.32813h-3zm0 0"/></clipPath><clipPath id="w"><path d="M260 479h8v1.32813h-8zm0 0"/></clipPath><clipPath id="x"><path d="M267 479h3v1.32813h-3zm0 0"/></clipPath><clipPath id="y"><path d="M273 479h8v1.32813h-8zm0 0"/></clipPath><clipPath id="z"><path d="M280 479h3v1.32813h-3zm0 0"/></clipPath><clipPath id="A"><path d="M286 479h9v1.32813h-9zm0 0"/></clipPath><clipPath id="B"><path d="M293 479h3v1.32813h-3zm0 0"/></clipPath><clipPath id="C"><path d="M300 479h8v1.32813h-8zm0 0"/></clipPath><clipPath id="D"><path d="M307 480h2v.32813h-2zm0 0"/></clipPath><clipPath id="E"><path d="M313 480h8v.32813h-8zm0 0"/></clipPath><clipPath id="F"><path d="M319 480h2v.32813h-2zm0 0"/></clipPath><clipPath id="G"><path d="M326 479h9v1.32813h-9zm0 0"/></clipPath><clipPath id="H"><path d="M332 479h2v1.32813h-2zm0 0"/></clipPath><clipPath id="I"><path d="M340 479h8v1.32813h-8zm0 0"/></clipPath><clipPath id="J"><path d="M346 479h3v1.32813h-3zm0 0"/></clipPath><clipPath id="K"><path d="M353 478h8v2.32813h-8zm0 0"/></clipPath><clipPath id="L"><path d="M360 478h3v2.32813h-3zm0 0"/></clipPath><clipPath id="M"><path d="M366 478h8v2.32813h-8zm0 0"/></clipPath><clipPath id="N"><path d="M373 478h3v2.32813h-3zm0 0"/></clipPath><clipPath id="O"><path d="M379 479h9v1.32813h-9zm0 0"/></clipPath><clipPath id="P"><path d="M385 479h3v1.32813h-3zm0 0"/></clipPath><clipPath id="Q"><path d="M393 479h8v1.32813h-8zm0 0"/></clipPath><clipPath id="R"><path d="M400 479h3v1.32813h-3zm0 0"/></clipPath><clipPath id="S"><path d="M406 479h9v1.32813h-9zm0 0"/></clipPath><clipPath id="T"><path d="M413 479h3v1.32813h-3zm0 0"/></clipPath><clipPath id="U"><path d="M419 479h9v1.32813h-9zm0 0"/></clipPath><clipPath id="V"><path d="M426 480h3v.32813h-3zm0 0"/></clipPath><clipPath id="W"><path d="M433 478h8v2.32813h-8zm0 0"/></clipPath><clipPath id="X"><path d="M447 477h7v3.32813h-7zm0 0"/></clipPath><clipPath id="Y"><path d="M461 476h5v4.32813h-5zm0 0"/></clipPath><clipPath id="Z"><path d="M144 466h4v2h-4zm0 0"/></clipPath><clipPath id="aa"><path d="M144 453h4v2h-4zm0 0"/></clipPath><clipPath id="ab"><path d="M144 440h4v1h-4zm0 0"/></clipPath><clipPath id="ac"><path d="M144 426h4v2h-4zm0 0"/></clipPath><clipPath id="ad"><path d="M144 413h4v2h-4zm0 0"/></clipPath><clipPath id="ae"><path d="M466 413h2v3h-2zm0 0"/></clipPath><clipPath id="af"><path d="M144 399h4v3h-4zm0 0"/></clipPath><clipPath id="ag"><path d="M466 399h2v3h-2zm0 0"/></clipPath><clipPath id="ah"><path d="M144 386h4v2h-4zm0 0"/></clipPath><clipPath id="ai"><path d="M466 385h2v4h-2zm0 0"/></clipPath><clipPath id="aj"><path d="M144 372h4v3h-4zm0 0"/></clipPath><clipPath id="ak"><path d="M466 372h2v4h-2zm0 0"/></clipPath><clipPath id="al"><path d="M144 357h3v7h-3zm0 0"/></clipPath><clipPath id="am"><path d="M144 345h4v5h-4zm0 0"/></clipPath><clipPath id="an"><path d="M144 332h4v4h-4zm0 0"/></clipPath><clipPath id="ao"><path d="M466 333h2v3h-2zm0 0"/></clipPath><clipPath id="ap"><path d="M144 318h4v5h-4zm0 0"/></clipPath><clipPath id="aq"><path d="M466 319h2v3h-2zm0 0"/></clipPath><g id="ar" clip-path="url(#clip1)"><path fill="#fff" fill-opacity="0" fill-rule="evenodd" d="M0 0h1000v1000H0zm0 0"/><path fill="#d3d3d3" fill-opacity="0" fill-rule="evenodd" d="M162.15234 355.86719l-.23437.29297.0586.23437.11718.17188.17578.23437.29297.34766.11328.0586.11719-.17188.0586-.23438.17577-.17578.46485-.17578h.69922l.23437.29297.28906.8164.0586.17579.17578.23046.35156.23438.69922.69922.17188.17578.23437.34765.23438.41016.28906.58203.41015.46485.23047.23437.23438.17578.11719.23047.17578.29297.17187 1.16406v.23438l.0586.28906.05859.11719.11719.11719.34765.41015.11719.17188.17578.17578.17578.23437.11719.17188.17188.35156.05859.23438.23437.40625.23438-.0586-.17578.17578-.0586.92969h-.58203l-.23437-.11328-.34766.11328-.11719.11719-.05859.29297-.0586.17578-.11718.17187-.46484.29297-.0586.23438-.0586.11328v.64453l.0586.17187v.41016l.0586.0586v.40624l.05859.40625.11719.17579.05859.05859.23047.64062-.0586.29297v.69922l-.05859.58203v.23438l-.0586.23047-.05468.35156v1.92187l.05469.1172h.42578l-.36719.11718-.02344.35156.89063 1.16797 1.74219.53906 1.33984.35938v.53906l.08984.8086.53516.71484 1.51953.26953.89063-.08594.08984 1.16406.53516.1797 1.16015-.1797 2.05469-.98437 1.16016-.36328 1.8789-.17578 1.69531-.1797-.17968.71876-1.51563.08594-1.25.08984-.80469.26953-1.07421.8086.26953.71875.53515.89843-.17968.625-.26563.8086.26563 1.07812.625.89844.80468.17969 1.25-.1797-.26562.72267.09766.5039.05468.29297v.17188l.0586.29296v.40625l.17578.1172.35156.11718h.40625l.29297-.17578.11328-.11719.0586-.11719.11718-.23047.0586-.17578.35156-.46484.23047-.17578.17578-.0586.17578.0586.0586.17578.11718.98828.05469.46875.0586.17188.11718.23437.17578.0586.8164.05859h.28907l.11719.23437.05859.40625.0586.35156v1.10547l.11718.29297.11719.34766.28906.69922.17578.35156.58203.7539.35157.17579.17187.0586.46875.23437.64063.46484.34765.23438.29297.17578.29297.05468.23047.0625.8164.34766.29297.17578.11328.17188.35157.35156.11719.17578.52343.64063v.28906l.0586.35156v.34766l.05859.35156.0586.28906.11718.0586.17188.05859h.17578l.58203.23437.17578.1172.17578.28905.17578.23438.11328.23437.29297.23047.11719.11719v.41016l.0586.05468.28906.23438.23437.11719.0586.11718.11718.17188.0586.11719.23047.23437.05859.17578.23437.0586.1172.05859-.1172.11328-.05859.11719v.11719l-.11719.29296-.11719.28907v.58203l.17579.11719.11718.05859.0586.11719.11719.11719.11328.05859.17578.34765.0586.35157.05858.40625v.17578l-.05859.17578-.11719.69922v.17187l.1172.17579.29296.29296h.40625l.17578.1172.11719.17187.11719.29296v.23438h-.52735l-.23047-.23438h-.23437l-.17578.0586-.0586.69922.0586.34765.11719.17579.17578.41015.11718.23047.28907.46875.17578.05469h.52344l.23437.0586.75781.64062.0586.29296v.23438l.05859.0586.23047.34765v.35156l-.11719.17188v.29297l.29297.28906.29297.17578.17187.0586.29297.17577.29297.1172.58203.40624.28906.23438.29297.17578.21875.16015.01563.01172.23047.17579.64062.52343.17578.23438.1172.17578.17577.17578.11328.17188v.64062l.1172.17578.46874.11719.58203.11719.23438.05859.23047.11328.29297.11719.11328.0586.58593.35156.28907.17187.17578.0625.17578.05469.17578.0586.69922.35155.28906.17579.23438.05468.28906.17578.23437.1172.64063.40624.29297.11719.17187.0586.23438.05859.41015.05859.23047.0586.23438.11718.0586.17188-.41017.17578.46875.0586.0586.29296.11328.23438.17578.05468.23438.0586.17578.05859.40625.11719.64062.23437.11719.17188.0586.23437v.17578l-.0586.1172-.0586.40624.23438.23438.11719.05859.34766.11719.64062.23047.17578.11718.28906.1172.17578.17577.23438.46485.58203 1.10546.17578.17579.34766.17578.17578.11719.35156.11718 1.04688.52344.23437.0586.46485.11327.29297.0586.46484.17578.75781.58203.23438.23438.34765.46484.17578.17578.28907.23438.8164.69921.29297.17579.28906.28906.29297.17578.29297.28906.69531.64063.17578.17578.29297.23437.28907.23438.46875.28906.64062.58203.34766.23438.23437.29297.34766.34765.35156.46485.9336.99218.34765.40625.11719.17579.23437.05859.11328.11719.64454.17578.23047.11328.23437.0586.29297.17577.23047.1172.9336.69921.40624.40625.23438.17578.40625.17578.23437.11719.8164.34766.34766.23437.23438.11719.29297.28906.23047.11719.7578.35156.35157.17188.23047.05859.29297.11719.23437.0586.8711.17577h.8164l.46875.23047.17188.0586.875.69921.46484.1172.29297.05858.17578.0586.23047.0586.46875.05859.34766.05859.35156.0586.40625.05859h.29297l.17187.0586v.23046l.17578.17578h.29297l.34766.0586.35156.05859.69922.11719h.64063l.46484-.23438.29297-.17578.17187-.11719.41016-.17187.28906-.17578.9336-.46485.46875-.29297.52343-.29296.46485-.17188.46484-.17578 1.05078-.46485.28906-.11718.41016-.11719.28906-.11719.52735-.17578 1.51562-.69922.58203-.34765.28907-.0586.29297-.0586.34765-.11718.875-.23047.35156-.11719h.11329l.23437-.05859.875-.23437.23438-.0586h.8125l.35156-.0586.8164-.11718.17188-.0586.35156-.05468.29297-.0586.23047-.05859.8164-.17578.17579-.0586h.34765l.23438-.05859.46484-.11718.75781-.17188.23438-.0586h.34765l.41016-.11718.28906-.0586 1.28516-.05859h.28906l.41016-.0586.23047-.05858h.17578l.875-.1172h.40625l.41015-.11718h.34766l.35156-.11328.8711-.0586h1.75l1.04687.28907.41016.11719.28906.11718.35156.11719.28907.11719 1.05078.17187.28906.0586h.29297l.29297.05859.17187.0586.41016.05859.17187.0586.1172.05858h.11718l.11719.0586.35156.0586h.11328l.41016.0664 1.92187.39453 1.92578.39453 1.51953.44922 1.69532.71875 2.14453.80469 1.60547-.71875 1.42968-.80469 1.16016-1.07813 1.25-.44921 3.03516-.71875 1.875-.35938 2.14453-1.34765 2.23437-1.25391 2.5-1.25781 1.69531-.44922 1.78516-.17969 1.16016-.26953.625.53906 1.33984-.26953.71485-.98828.98437-1.34375.44531-.17969.80469-.35937 1.875-.53907 1.78516-.44921 1.25-.26954 1.16015-.08984 1.69922-.08984 1.96094-.26954 1.25-.08984h.53906l.625-.08984h.89063l2.14453-.17969 2.41015-.17969 2.58985-.08984 1.69531.17969 1.60938.08984 1.42968.35938 1.16016.71875 1.875.98828 1.16015 1.52734.26563.71484.6289.08985.35548.89844.53515.53906.53516 1.52734 1.07422.35938h.53515l-.80469.53515.08985 1.70703.71484 2.69532.89063.80468.89453.98829.71484 1.2578 1.78516.53907 1.51953-.17969.35547 1.34375 1.60937-.80469.98047-.53906.26953.26953.31641-.21484.21875-.14453.80078.44922.44922-.35938h.35547l.53515-.26953.53907-.71875.53515-.26953.625-.98828 1.16016.44922.83984.3711 1.39454.61718 1.6953-.17969h1.60548l1.78515.08985.17969-1.70704.53516-1.34375.80468.26954.4922.84765.40233.40625-.08984.53906v.35938l.71485.44922.71093-.26953h1.42969l.35938.98828.4453 1.25781.71485 1.34375 1.25.6289 1.69531.62891.71485-.17969.17969-.53906.98046-.08984.44922.35937.08594 1.25782-.26563.6289-.53515.17969v.53906l.71484.98438.26563.53906.98437.98828.80078 1.07813-.26562.35937-.08985.89844-.625 2.33203-.35546 2.0664-.08985 1.79298-.17969.71875-.08984.53906v1.4375l-.98047 1.88281-.35937 1.70703-.53516.89844-.80469 1.16797-.26562.53906 2.05469 1.2539.08593.35938-.35546.53906-.08985-.17968v.80859l.08985 1.4375-.44532.71484-1.07422.09375-.26562.71485.53515.89844.8047.71875 1.16015.80859 1.33984.26953.44531.35938-.35546.44921-1.78907-.08984-1.25-.44922-.71484-.71875-.625-.08984-.17578 3.58984-.1875 1.3086h89.35937V311.70313h-55.26953v49.08203l.76172.125 3.28906.54296 2.02344 2.83594v2.7539l2.35156.33204 2.34766.33203h4.05078l-1.3789 4.16016-2.02344.70703-2.02344.70312-.54297.34375-2.59375 1.6172-.1875.11718-2.02344-2.07813-.73046-2.74218-2.67188-2.07813-1.375-3.5-.0664-.08203-1.95704-2.67188 2.75-1.41796v-49.08204H294.42187v91.41407l.1172.03125.1328.01172.07422.07421.10547.04688.08985.0586.08593.05859.08985.0586.29687.29687.0586.08984.03125.11719.02734.11719.01563.13671-.03125.1172-.0586.08983-.0586.08594-.04296.10547-.04688.10156-.02734.1211v.14453l.17578.26953.14844.14844.07422.08594.07422.07421.04296.10547.0625.08985.0586.08593.04297.10547.0586.08985.04687.10156.04296.10547.0586.08594.11719.17968.07421.07422.0625.08594.0586.08984.04297.10547.0586.08985.05858.08593.0625.08985.0586.08984.04297.10156.11719.17969.07421.07422.0586.08594.07422.07421.08984.0586.10547.04687h.14844l.1328-.01562.13282.01562.10156-.04687.07422-.07422.04688-.10156-.01563-.13281v-.14844l-.04687-.10547-.02735-.11719-.04687-.10156-.02735-.1211-.04296-.10156-.0625-.08984-.04297-.10156-.04297-.10547-.03125-.11719-.01563-.13281-.01171-.13672.08593-.0586.0586-.08593.12109-.03125.04297.10547.01562.1328v.1172l.0586.10156.0586.08984.08983.0586.14844.14843.0586.08985.04296.10547-.01171.10156.08593.0586.10547.04687.08594.0586.08984.05858.07422.07422-.11719.02735-.10546.04687-.08594.0586-.07422.07421-.0586.08985-.0625.08594-.02734.12109-.04687.10156-.04297.10547-.03125.11719-.01172.13281-.01563.13281v.14844l.02735.11719.04687.10547.04297.10156.0586.08984.07421.07422.08985.0586.07422.07421.08984.0586.0586.08984.04296.10547.04688.10156.11719.03125.1328.01563h.14845l.11718-.03125.10547.04297.04297.10547.04688.10156.02734.1211L299.5 410l.02734.11719.03125.1211.02735.11718.10547.04297.10156.04687.13281-.01562.14844.14844.0625.08593.07422.07422.07031.07422.08984.0625.10547.04297.10156.04297.1172.03125.13671.01562.11719-.03125.07422-.07422.02734-.11718-.01172-.13282-.03125-.12109-.02734-.11719.04297-.10547h.11719l.08984.0625.11719.02735h.14843l.13282.01562h.14843l.13282.01563.1328-.01563h.14845l.1328-.01562.13282-.01172.13672.01172.11719-.02735.13281-.01562.1914-.0586-.05859.17579-.01562.1328-.02735.1211-.01562.13281-.0586.08594-.1328.01563-.10548.04687-.10546.04297-.1172.03125-.11718.02735-.26563.03125h-.14843l-.13281.01562-.07422.07422.05859.08594.14844.14843.11719.1797.07421.0703.08985.0625.08984.0586.08594.0586.08984.05858.10156.04297.10547.0625.10547.04297.08594.0586.10547.04687.10156.04297.17969.11719.0586.08984-.04298.10156-.04687.10547.01562.13281.22266.22266.0586.08985.04296.10156.03125.1211.04297.10155.01563.13282.03125.11718.01171.13672.03125.11719.14844.14844.10156.04297.10547.04296.1172.03125.1328.01563.13672.01563h.11719l.11719-.03125.08984-.0586.04297-.10547.04688-.10156.04296-.10547.03125-.11719.01172-.1328v-.14845l-.01172-.1328-.01562-.13282-.03125-.11719-.04297-.10547-.04688-.10547-.04296-.10156-.04297-.10547-.01563-.13281.01563-.13281.02734-.11719.03125-.11719.02735-.1211.04687-.10155.08984-.0586.08594-.0625.07422-.07422.08984-.05859.22266-.22266.0586-.08593.07421-.07422.11719-.17969.0586-.08594v-.14844l-.07423-.07421-.10156-.04688-.10547-.04297-.10156-.04297-.0586-.08984-.04687-.10547-.02734-.11719.08984-.05859.11719-.03125.10156-.04297.17969-.11719.14844-.14843.01172-.13282-.01172-.10546-.08985-.0586-.1328.01563h-.14845l-.1328.01562-.13282-.01562-.1211-.03125-.08593-.0586-.07422-.07422-.0586-.08984-.0625-.08594-.11718-.17969-.0586-.08593.03125-.1211.08594-.05859.1211-.03125.05859-.08594v-.1211l-.03125-.11718-.0586-.08984-.05859-.08594-.04687-.10547-.02735-.11719-.01562-.1328.0586-.08985.07421-.07422.08984-.0586.1172-.17968.07421-.07422.0586-.08594.14843-.14844.1211-.03125.1328-.01562.13282.01562.07422.07422.04297.10547.01562.13281-.03125.1172-.11719.03124-.1328.01172-.14844.14844-.04297.10547-.04688.10156-.02734.1211-.03125.11718v.14844l.03125.11719.04297.10546.05859.08985.07422.07031.07422.07422.11719.03125.12109.02734.11719-.02734.1328-.01563h.1172l.08984.0586.07422.07422.04687.10546.0586.08594.10156.04688.13281.01562.10547.04297.08594.0586-.01172.10546-.07422.07422-.17969.11719-.05859.08984-.08984.0586-.07032.07422-.07421.07421-.0625.08985-.02735.11719-.01562.1328.01562.13282-.01562.13281v.14844l.01562.13281.02735.1172.03125.12108.07421.07422.08985.0586.08594.0586.08984.05858.11719.03125v.08594l-.10157.04688-.08984.0586-.26563.03124-.11718.02735h-.14844l-.10547.04296-.10156.04688-.0586.08984-.0625.23438-.01171.13281-.03125.1211-.01563.1328v.29298l-.01172.1328.01172.13673.01563.1328.1328.01563.13282.01172.1211.03125.08593.0586.07422.07421.04688.10547.04296.10157.01563.1328v.44532l-.01563.13281v.44532l.03125.26562.02735.11719.01562.13281.03125.11719.08594.21094.03125.26562v.14844l-.03125.11719-.02734.11718-.03125.1211-.02735.11719-.03125.11718-.03125.1211-.01171.1328-.01563.13282.08984.0586.1172-.03125.10155.01562.04688.10547-.03125.26562v.44141l-.04297.10547-.04688.10547-.04296.10156-.04297.10547-.0586.08594-.03125.12109-.04296.11719-.03125.11719-.01563.1328.01563.13282.05859.08984.10547.04688.08594.0586.05859.08593-.01172.13672-.03125.11719-.04297.10156v.44531l-.01562.13281v.14844l-.03125.11719-.04297.10547-.02735.11719-.04687.10546-.04297.10157-.03125.12109-.02734.11719-.03125.13281-.03125.11719-.02735.11719-.04297.10546-.03125.1172-.03125.12108-.01171.13282-.01563.13281v.29688l.02734.11718v.14844l.04688.39844.02734.11719.0586.08984.12109.03125h.14844l.13281-.01563.0586.08985v.11719l-.0586.08984-.08984.0586-.10157.04296-.10546.04688-.08985.05859-.08594.0586-.13671.01562-.1172-.03125-.1328-.01563-.10157.04688-.0625.08594-.01172.13671-.01562.13282-.03125.11719-.02735.11718-.01562.13281-.03125.1211v.29687l.01563.13282.03125.11718v.14844l.01171.13281v.14844l-.02734.11719-.04688.10156-.02734.1211-.03125.11718-.0586.08985-.07421.07421-.10156.04297-.10547.04688-.11719.02734-.1211.03125-.10156-.04687.0586-.08594.10547-.04688.02734-.11718.03125-.11719.02734-.1211.03125-.11718v-.14844l.01563-.13281-.03125-.11719-.04297-.10547-.10547.01563-.07422.07422-.10156.04296-.08984.0625-.07422.07422-.04297.10157-.01563.1328-.03125.1172L304.25 426l-.03125.11719-.02734.11719-.03125.12109-.02735.11719-.03125.11718-.04297.10547-.08984.0586h-.08984l-.1172-.03125-.03124-.08594.01562-.13672-.03125-.11719v-.14844l-.01171-.1328v-.14844l-.0625-.23438-.02735-.1211-.04297-.10156-.04687-.10546-.0586-.08594-.05859-.08985-.04297-.10546-.0625-.08594-.14844-.14844-.0703-.07422-.10548-.04687-.10547-.04297-.10156-.04297-.29687-.29688-.08985-.07421-.08594-.0586-.10546-.04297-.08985-.0625-.08594-.0586-.10546-.04296-.08985-.0586-.08594-.0625-.07421-.0703-.10547-.04688-.08594-.0586-.10547-.04296-.08984-.0625-.10156-.04297-.10547-.04297-.08594-.0586-.10547-.04687-.10547-.04297-.10156-.04687-.08985-.0586-.10156-.04297-.10547-.04296-.08984-.0625-.11719-.02735-.13281-.01562-.13281.01562H299.75l-.13281.01563-.11719-.03125-.08984-.0586-.07422-.07422-.08985-.05859-.10156-.04688h-.14844l-.12109-.02734-.10156-.04297-.07422-.07422-.11719-.17968-.08984-.0586-.10156-.04297-.08985-.0625-.10547-.04296-.08984-.0586-.08594-.0586-.10547-.04687-.0586-.08594-.05858-.08984-.04297-.10547-.04688-.10156-.07422-.07422-.08594-.0586-.07421-.07421-.08985-.0586-.22265-.22265-.04297-.10547-.03125-.26563.10547-.04296h.14453l.10547.04296.07421.07422.08985.0586.08594.0586.10546.04687.08985.05859.14844.14844.0703.07422.14845.14843.0625.08594.07421.07422.08594.0586.07422.07421.08985.0625.08984.0586.08594.05859.26953.17578.10156.04688.10547.04296.10156.04297.04688-.07421.05859-.08594.07422-.07422.07031-.07422.10547.04297.07422.07422.0586.08984.04296.10156.04688.10547.04296.10547.1211.02735.11719-.02735.07421-.08984.04297-.10547.0586-.08985.07422-.07421.10546-.04297.1172-.02735.1328.01172.08985.0586.14844.14843.05859.08985.04297.10547.04687.10156.04297.10547.04297.10156.10547.04688.10547.04296.13281.01563.08594-.0586.0586-.08984.07421-.07422.10547-.04297.11719.02735.10547.04687.10156.04297.10547.04297.10156.04688.17969.11718v.11719l-.01563.13281.01563.13281.01562.13672.0586.08594.10156.04688.1211.02734.11718.03125h.14844l.11719-.03125.05859-.08984.17969-.1172.05859-.08983.07422-.07422.0586-.08594.11718-.17969.17969-.11719.11719.03125.08984.0586.04297.07422-.01563.1328v.1172l.08985.05859h.14843l.13282-.01563.1328-.01171.26563-.03125.10547-.04297.11719-.03125.1211-.02735.07421-.07421.07031-.07422.0625-.08985-.01562-.10547-.04688-.10156-.10156-.04297-.10547-.01562-.11718.02734-.26563.03125h-.14844l-.07421-.07422-.08985-.0586-.11719-.03124-.11718-.02735-.13282-.01562h-.14843l-.13282.01563h-.29687l-.10547-.04688-.14844-.14844-.04297-.10156-.05859-.08984.22266-.22266.08593-.0586.10547-.04296.11719-.03125.13281-.01563.13281.01563.13672.01562.10157.04297.1328-.01172.08985-.0625.10156-.04297.0625-.08984-.04687-.10156-.08984-.0586-.1172-.03125-.10155-.04296-.0586-.08985-.0625-.08984v-.11719l.01563-.13281.10547-.04688.07421-.07031v-.1211l-.08984-.05859-.03125-.11719.08985-.05859.07421-.07422.04297-.10547.0586-.08984.04687-.10156.01563-.13281v-.14844l-.04688-.10547-.04297-.10156-.08984-.0586-.13281-.01562-.10157-.04297-.13671-.01563-.1172-.03125h-.4453l-.13282-.01562-.13281-.01172-.13281-.01563-.11719-.03125h-.14844l-.13281-.01562-.13281-.01172-.26563-.03125-.1211-.04297-.08593-.0586-.07422-.07421v-.14844l.01172-.13281.10547-.04688.10156-.04296.13281-.01563h.15235l.13281-.01562h.29297l.1211.03125.10156.04296.08984.0586.23438.0625.12109-.04688.08984-.05859.10156-.04297.13282-.01562.10547.04296.10156.04688.13281.01172.1211-.02735h.14453l.12109-.03125.11719-.02734.10547-.04687.07421-.07422.08594-.0586.14844-.14843.0586-.08594.04687-.10547.02734-.11719.01563-.10547-.10156-.04296-.08985-.0586-.11719-.03125-.10546-.04297-.08985-.0625-.07422-.08594-.07422-.07421-.10156-.04297-.10547-.04688-.10156-.04297-.0586-.08984-.04687-.10156-.08594-.21094-.0625-.08594-.05859-.08984-.07422-.07422-.08594-.0586h-.26953l-.11719.03126-.08984.05859-.10156.04297-.13281.01562-.10547-.01562-.02735-.11719-.0625-.08984-.11718-.03125-.10157-.04297-.14843-.14844-.03125-.11719-.01563-.10546.07422-.07422.17969-.1172.11719-.02733.11718-.03125.13672.01562.10156.04297.10547.04297.10156.04687.10547.04297.1172.03125.1328.01563.1172.02734.1328.01563.10547-.01563.08985-.0586-.07422-.07421-.10547-.04297-.07422-.07422-.07422-.08984-.14844-.14844-.08593-.0586-.08985-.05859-.07422-.07422-.08984-.0586-.10156-.04687-.1211-.02734-.10156-.04688-.10547-.04296-.11719-.03125-.10156-.04297-.1211-.03125h-.14843l-.11719.03125-.10546.04297-.08594.0625-.17969.11718-.08594.0586-.08984.0586-.10547.04687-.08594.05859-.10547.04297-.10156.04297-.10547.04687-.07422.07422-.05859.08985-.0586.08593-.04687.10547-.0586.08594-.07421.07422-.13281-.01172-.1172-.03125h-.11718l-.07422.07422-.08984.0586-.07422.07421-.08984.0586-.08594.05859-.10547.04687-.10156.04297-.13672.01563-.10156-.04297-.14844-.14844-.10547-.04688h-.08594l-.10547.04688-.10156.04297-.1211.03125-.11718-.03125-.07422-.07422v-.11719l.03125-.1211.07422-.0703.0586-.08985.07421-.07422.11719-.03125.10547-.04296h.29297l.13281-.01563.13672-.01563.10156-.04296.08985-.0586.10156-.04687.08984-.0586.13281-.01171.08985.05859.13281.01172.08984-.0586.08594-.05859.10547-.04297.08984-.0586.08594-.0625.08985-.05859.14843-.14843.0586-.08594.05859-.08985.10547-.04296.13281-.01563.11719.02735.1211.03125.05859-.0586.05859-.08984.03125-.26563.02734-.11719.10547.01172.13281.01563.10157-.04297.08984-.0586.0586-.08984.07421-.07422.0586-.08984.04687-.10156.01172-.13281-.01172-.13282-.04687-.10547-.14844-.14843-.0586-.08985-.05859-.08594-.04297-.10546v-.44532l.01563-.1328v-.14845l.01172-.1328-.0586-.0586-.08984.0586-.10156-.04298-.17969-.11719-.08594-.05859-.0625-.08984-.0586-.08985-.07421-.07421-.08594-.0586-.1211.03125-.10155.01172-.10547.04688-.08594.05859-.10547.04297-.14844.14844-.08984.05859-.08594.0586-.08984.0625-.10547.04296-.13281.01563v-.1211l.10547-.04297.11718-.03125.07422-.0703.04297-.10548v-.14844l-.02734-.11718-.14844-.14844-.13281-.01563h-.14844l-.11719.03125-.10547.04297-.10156.04297-.08984.0625-.11719.02735-.07422-.07422.01172-.13281-.04297-.10157-.04297-.10547-.08984-.05859-.11719.02734-.1211.03125-.11718.03125-.10156.04297-.1211.03125-.10156.04297-.10547.04297-.08984.0586-.10156.01562v-.11719l.01562-.13281-.0586-.08985-.07421.04297-.14844.14844-.0586.08985-.07421.07421-.04688.10547-.04296.10156-.07422.07422-.0586.08985-.07422.07422-.05859.08593-.07422.07422-.08984.0625-.07422.07031-.07422.07422-.10156.01563-.13281.01562-.10547-.04296v-.1211l.14843-.14844.04297-.10156.0586-.08984.04687-.10156.04297-.10547.0586-.08985.03124-.11719.04297-.10156.03125-.1211.02735-.11718.04687-.10547.04297-.10156.04297-.10547.07422-.07031.08984-.0625.08985-.0586.10156-.04296h.29687l.26563-.03125.10547-.04297-.07422-.07422-.11719-.03125-.10547-.04297-.08984-.0586-.10156-.04687-.08985-.0586-.10156-.04296-.10547-.04297-.08984-.0625-.08594-.0586-.10547-.04296-.10156-.04297-.1211-.03125-.11718-.03125-.10157-.04297L297.5 410.25l-.10156-.04297-.08985-.0586-.04296-.10546-.01563-.13281.10156-.04297.13281-.01563.13672.01563.13282-.01563.10156-.04297.0586-.08984.01562-.10547-.08985-.0586-.07421-.07421-.10157-.04297-.08984-.0586-.14844-.14843-.04297-.10547-.01562-.13281v-.29297l-.0586-.08985-.08984-.05859-.07422-.07422-.04297-.10547-.03125-.11718-.0586-.08985-.07421-.07422-.11719-.02734-.07422-.07422-.08984-.0586-.08984-.0625-.08594-.05859-.07422-.07421-.0586-.08594-.04687-.10547-.08594-.0586-.14843-.14843-.19532-.0586-.1328.01563-.10157.04297-.07422.07422-.04688.10156-.04296.10547-.0586.08984-.0586.08594-.29687.29687-.08984.0586h-.08594l-.0625-.08594-.04297-.10547.03125-.11719.0586-.08984.02734-.11719-.01172-.13281-.08984-.0625-.10547.04688-.11719.02734-.11719.03125-.26953.17578-.10156.04688-.11719.02734-.10546.04687-.08985.0586-.10156.04297-.0586-.08594-.04687-.10547.01563-.13281.04687-.10547.07031-.07422.07422-.07031.0586-.08985v-.14843l-.04297-.10547h-.23829l-.10156.04687-.03125.11719-.02734.11719-.03125.1211-.07422.04296-.13281.01563-.07422-.04688-.04297-.10156-.04297-.10547-.04687-.10156-.04297-.10547-.1211.03125-.10156.04297-.13281.01562-.11719.03125-.10547.04297-.08984.0586-.10156.04687-.1211.02734-.13281.01563-.10156-.04297-.0586-.08985-.04687-.10546-.04297-.10157-.04297-.10546v-.1172l.0586-.08984.08593-.05859.17969-.11719.10156-.04687.10547-.04297.10547-.0586.10156-.04296.08985-.0625.10156-.04297.10547-.0586.10156-.04687.08984-.0586.10547-.04296.10156-.04297.08985-.0625.10156-.04297.13672-.01563.11719.03125.10156.04297.1211.03125.10156.04297.10546.04688.10157.04296.10547.04297.10156.04688.10547.04297.10156.04297.10547.04687.08594.0586.10546.04296.1172.03125.10546.04297.10156.04688.08985.0586.10547.04296.10156.04297.10547.04687.11719.02735.10156.04687.1211.02735h.14843l.08594-.0586.01562-.10156.0586-.08984-.02735-.1172-.07422-.07421-.11719-.17969-.07421-.07422-.08985-.07421-.17969-.1172-.08593-.05859-.10547-.04296-.10156-.04688-.26954-.17578-.05859-.08985-.07422-.07421-.0586-.08985-.04296-.10156-.03125-.11719-.01563-.13672v-.5625l-.01171-.1328-.01563-.13282-.03125-.11719-.01562-.13281-.01172-.13281-.03125-.1211-.22266-.22265-.0586-.08594-.01562-.10547.03125-.11719.13281-.01562v-91.41406H172.9922v1.45312l-.0586.23438-.35156 1.05078-.17187.52343-.1172.34766-.17577.41016-.11719.17187-.23438.29297-.23046.0586h-.35157l-.11718.05859-.23047.40625v.29297l.11719.17578.23046.23047.1172.23437.64062.75781.29297.46485.17578.23437.23047.35156.23437.34766.64063.8164.17578.46485.17187.41016.11719.69531.17578.46875.11719 1.39844.0586.46484v.875l.11718 1.04688v4.78125l-.0586.46484-.35156 1.28125-.17578.52344-.11328.41015-.35156.9297L172.93359 336l-.23437.58203-.11719.17578-.17187.34766-.17578.40625-.35157.8164-.0586.29297-.11327.29297-.11719.28906-.0586.17579-.11718.875-.0586.40625-.05859.11718-.0586.17579-.05859.17187-.23047.52734-.11718.17188v.23437l-.11719.23438-.0586.17187-.17577.58594v.28906l-.0586.17579v.29296l-.0586.11329-.05859.52734v.17187l-.05468.23438v2.6211l-.17578.8164-.1172.17578-.17577.23438-.1172.17187-.11327.23438-.58594.93359-.23047.28906-.29297.46485-.17578.23437-.28906.35156-.35156.69922-.11328.23047-.17579.41016-.17578.23046-.40625.52735-.8164.69922-.29297.17187-.28906.23438-.17579.11719-.17578.17578-.52344.40625-.52734.17578-.17187.17578-.23438.05469-.64062.17578h-.75782m12.21094 31.02344l-1.07422.44921.35938.89454 1.25-.71485.44531-.53906-.98047-.08985"/><path fill="#d3d3d3" fill-opacity="0" fill-rule="evenodd" d="M201.50781 416.59766h-.89453l.44922.6289.98047.35938.80469-.08985.4453-.98828-.17577.08985-.71485-.35547-.89453.35547m154.6211 59.0703l-.0586-.52343v-.29297l.11328-.29297.0586-.23046.46875-.46875h.11328l.11719-.11329.11718-.05859h.17579l.23437-.0586h.34766l.23437.0586.11719.0586.23047.17187.0586.17578.11718.58203v.29297l-.11719.17578-.17187.28906-.17579.17579-.52734.52343-.23047.23438-.11719.0586h-.17578l-.11718-.0586-.40625-.29297-.17579-.11719-.11718-.0586-.0586-.11327-.05468-.1172m6.64062-10.95702l-.0586-.17188v-1.10937l.0586-.17188.17578-.0586.17188-.05858h.17578l.23437-.0586.1172.0586.05858.69921-.05859.17188-.11719.17578-.11718.0586-.23438.52343-.11328.0586h-.23438l-.05859-.1172m9.61328-14.39062l-.11719-.17578v-.69922l.29297-.875.1172-.17187.17577-.35156.11328-.23047.1172-.29297.35155-.75781.1172-.23047.17187-.23438h.17578l.11719-.0586h.64062l.11719.0586.23437.23438.17188.11328.35156.29297.11719.11718.11328.17579v.11328l.11719.05859.11718.11719v.69922l-.05859.17578v.23047l-.0586.17578-.34765 1.05078-.11719.23047-.11719.23437-.11718.0586-.23047.23437-.64063.28906h-.875l-.41015-.11718-.64063-.46485"/><path fill="none" stroke="#bebebe" stroke-linecap="round" stroke-linejoin="round" stroke-miterlimit="10" stroke-width=".5" d="M467.95703 311.69531H144.02734v168.625h323.9297v-168.625"/><g clip-path="url(#a)"><path fill="#fff" fill-opacity="0" fill-rule="evenodd" d="M144 475.89063v4.4375h.0039H144V311.67188h.0039H144v164.21875"/></g><g clip-path="url(#b)"><path fill="#fff" fill-opacity="0" fill-rule="evenodd" d="M144.0039 480.32813V311.67188h31.0625v141.30859l-.8789.71875.8789.88281 1.97657-.88281-1.97656-.71875v-141.3086h22.1953v112.15625l-4.4414 2.89063-.1211.35156.1211.32031 4.4414 2.9297 2.21095 1.1875 2.22656.92968 4.4375.07813.90625-1.00782-.90625-2.6211-1.16016-1.8164-3.27734-1.95312-4.4375-1.28906V311.67188h270.73437v168.65625H144.00391"/></g><path fill="#50fcfc" fill-rule="evenodd" d="M175.0664 454.58203l-.8789-.88281.8789-.71875 1.97657.71875-1.97656.88281m17.7539-27.1914l-.1211-.32032.1211-.35156 4.4414-2.89063 4.4375 1.28907 3.27735 1.95312 1.16016 1.8164.90625 2.6211-.90625 1.00781-4.4375-.07812-2.22656-.92969-2.21094-1.1875-4.4414-2.92969"/><g clip-path="url(#c)"><path fill="#fff" fill-opacity="0" fill-rule="evenodd" d="M467.9961 480.32813H468V311.67188h-.0039H468v168.65625h-.0039"/></g><g clip-path="url(#d)"><path fill="none" stroke="#000" stroke-linecap="round" stroke-linejoin="round" stroke-miterlimit="10" stroke-width=".5" d="M147.50781 480.5039l-7.01562-.35156"/></g><g clip-path="url(#e)"><path fill="none" stroke="#000" stroke-linecap="round" stroke-linejoin="round" stroke-miterlimit="10" stroke-width=".5" d="M147.50781 480.5039l1.04297 2.22266"/></g><g clip-path="url(#f)"><path fill="none" stroke="#000" stroke-linecap="round" stroke-linejoin="round" stroke-miterlimit="10" stroke-width=".5" d="M146.48828 480.45313l.51953 1.10937"/></g><g clip-path="url(#g)"><path fill="none" stroke="#000" stroke-linecap="round" stroke-linejoin="round" stroke-miterlimit="10" stroke-width=".5" d="M160.82031 480.54297l-7.01172-.42578"/></g><g clip-path="url(#h)"><path fill="none" stroke="#000" stroke-linecap="round" stroke-linejoin="round" stroke-miterlimit="10" stroke-width=".5" d="M160.82031 480.54297l1.01953 2.23047"/></g><g clip-path="url(#i)"><path fill="none" stroke="#000" stroke-linecap="round" stroke-linejoin="round" stroke-miterlimit="10" stroke-width=".5" d="M174.13672 480.51563l-7.01563-.375"/></g><g clip-path="url(#j)"><path fill="none" stroke="#000" stroke-linecap="round" stroke-linejoin="round" stroke-miterlimit="10" stroke-width=".5" d="M174.13672 480.51563l1.03516 2.22656"/></g><g clip-path="url(#k)"><path fill="none" stroke="#000" stroke-linecap="round" stroke-linejoin="round" stroke-miterlimit="10" stroke-width=".5" d="M187.45313 480.5l-7.01563-.34375"/></g><g clip-path="url(#l)"><path fill="none" stroke="#000" stroke-linecap="round" stroke-linejoin="round" stroke-miterlimit="10" stroke-width=".5" d="M187.45313 480.5l1.04687 2.22266"/></g><g clip-path="url(#m)"><path fill="none" stroke="#000" stroke-linecap="round" stroke-linejoin="round" stroke-miterlimit="10" stroke-width=".5" d="M200.76563 480.11719l-7.01172.42187"/></g><g clip-path="url(#n)"><path fill="none" stroke="#000" stroke-linecap="round" stroke-linejoin="round" stroke-miterlimit="10" stroke-width=".5" d="M200.76563 480.11719l1.28125 2.09375"/></g><g clip-path="url(#o)"><path fill="none" stroke="#000" stroke-linecap="round" stroke-linejoin="round" stroke-miterlimit="10" stroke-width=".5" d="M214.0664 479.94531l-6.98437.76563"/></g><g clip-path="url(#p)"><path fill="none" stroke="#000" stroke-linecap="round" stroke-linejoin="round" stroke-miterlimit="10" stroke-width=".5" d="M214.0664 479.94531l1.38282 2.02735"/></g><g clip-path="url(#q)"><path fill="none" stroke="#000" stroke-linecap="round" stroke-linejoin="round" stroke-miterlimit="10" stroke-width=".5" d="M227.40234 480.17188l-7.02343.3125"/></g><g clip-path="url(#r)"><path fill="none" stroke="#000" stroke-linecap="round" stroke-linejoin="round" stroke-miterlimit="10" stroke-width=".5" d="M227.40234 480.17188l1.2461 2.11328"/></g><g clip-path="url(#s)"><path fill="none" stroke="#000" stroke-linecap="round" stroke-linejoin="round" stroke-miterlimit="10" stroke-width=".5" d="M240.69922 479.94531l-6.98438.76563"/></g><g clip-path="url(#t)"><path fill="none" stroke="#000" stroke-linecap="round" stroke-linejoin="round" stroke-miterlimit="10" stroke-width=".5" d="M240.69922 479.94531l1.3789 2.02735"/></g><g clip-path="url(#u)"><path fill="none" stroke="#000" stroke-linecap="round" stroke-linejoin="round" stroke-miterlimit="10" stroke-width=".5" d="M253.98047 479.71875l-6.92188 1.21875"/></g><g clip-path="url(#v)"><path fill="none" stroke="#000" stroke-linecap="round" stroke-linejoin="round" stroke-miterlimit="10" stroke-width=".5" d="M253.98047 479.71875l1.51172 1.9375"/></g><g clip-path="url(#w)"><path fill="none" stroke="#000" stroke-linecap="round" stroke-linejoin="round" stroke-miterlimit="10" stroke-width=".5" d="M267.28906 479.6875l-6.91015 1.28125"/></g><g clip-path="url(#x)"><path fill="none" stroke="#000" stroke-linecap="round" stroke-linejoin="round" stroke-miterlimit="10" stroke-width=".5" d="M267.28906 479.6875l1.52735 1.92188"/></g><g clip-path="url(#y)"><path fill="none" stroke="#000" stroke-linecap="round" stroke-linejoin="round" stroke-miterlimit="10" stroke-width=".5" d="M280.63672 479.88672l-6.97266.88281"/></g><g clip-path="url(#z)"><path fill="none" stroke="#000" stroke-linecap="round" stroke-linejoin="round" stroke-miterlimit="10" stroke-width=".5" d="M280.63672 479.88672l1.41406 2.0039"/></g><g clip-path="url(#A)"><path fill="none" stroke="#000" stroke-linecap="round" stroke-linejoin="round" stroke-miterlimit="10" stroke-width=".5" d="M293.97656 480.22266l-7.02344.21093"/></g><g clip-path="url(#B)"><path fill="none" stroke="#000" stroke-linecap="round" stroke-linejoin="round" stroke-miterlimit="10" stroke-width=".5" d="M293.97656 480.22266l1.21875 2.1289"/></g><g clip-path="url(#C)"><path fill="none" stroke="#000" stroke-linecap="round" stroke-linejoin="round" stroke-miterlimit="10" stroke-width=".5" d="M307.29297 480.48047l-7.02344-.30078"/></g><g clip-path="url(#D)"><path fill="none" stroke="#000" stroke-linecap="round" stroke-linejoin="round" stroke-miterlimit="10" stroke-width=".5" d="M307.29297 480.48047l1.05469 2.21094"/></g><g clip-path="url(#E)"><path fill="none" stroke="#000" stroke-linecap="round" stroke-linejoin="round" stroke-miterlimit="10" stroke-width=".5" d="M320.60938 480.40234l-7.02735-.14453"/></g><g clip-path="url(#F)"><path fill="none" stroke="#000" stroke-linecap="round" stroke-linejoin="round" stroke-miterlimit="10" stroke-width=".5" d="M319.58594 480.3789l.55469 1.09766"/></g><g clip-path="url(#G)"><path fill="none" stroke="#000" stroke-linecap="round" stroke-linejoin="round" stroke-miterlimit="10" stroke-width=".5" d="M333.91016 480.03125l-7 .59375"/></g><g clip-path="url(#H)"><path fill="none" stroke="#000" stroke-linecap="round" stroke-linejoin="round" stroke-miterlimit="10" stroke-width=".5" d="M332.89453 480.11719l.66406 1.03125"/></g><g clip-path="url(#I)"><path fill="none" stroke="#000" stroke-linecap="round" stroke-linejoin="round" stroke-miterlimit="10" stroke-width=".5" d="M347.16016 479.58984l-6.8672 1.48047"/></g><g clip-path="url(#J)"><path fill="none" stroke="#000" stroke-linecap="round" stroke-linejoin="round" stroke-miterlimit="10" stroke-width=".5" d="M347.16016 479.58984l1.58203 1.875"/></g><g clip-path="url(#K)"><path fill="none" stroke="#000" stroke-linecap="round" stroke-linejoin="round" stroke-miterlimit="10" stroke-width=".5" d="M360.28906 478.99219l-6.4961 2.67187"/></g><g clip-path="url(#L)"><path fill="none" stroke="#000" stroke-linecap="round" stroke-linejoin="round" stroke-miterlimit="10" stroke-width=".5" d="M360.28906 478.99219l1.89063 1.5664"/></g><g clip-path="url(#M)"><path fill="none" stroke="#000" stroke-linecap="round" stroke-linejoin="round" stroke-miterlimit="10" stroke-width=".5" d="M373.58984 478.94922l-6.46484 2.75781"/></g><g clip-path="url(#N)"><path fill="none" stroke="#000" stroke-linecap="round" stroke-linejoin="round" stroke-miterlimit="10" stroke-width=".5" d="M373.58984 478.94922l1.90625 1.54297"/></g><g clip-path="url(#O)"><path fill="none" stroke="#000" stroke-linecap="round" stroke-linejoin="round" stroke-miterlimit="10" stroke-width=".5" d="M387.17188 480.01953l-7 .61719"/></g><g clip-path="url(#P)"><path fill="none" stroke="#000" stroke-linecap="round" stroke-linejoin="round" stroke-miterlimit="10" stroke-width=".5" d="M386.15234 480.10938l.66797 1.02734"/></g><g clip-path="url(#Q)"><path fill="none" stroke="#000" stroke-linecap="round" stroke-linejoin="round" stroke-miterlimit="10" stroke-width=".5" d="M400.46094 479.8125l-6.94922 1.03125"/></g><g clip-path="url(#R)"><path fill="none" stroke="#000" stroke-linecap="round" stroke-linejoin="round" stroke-miterlimit="10" stroke-width=".5" d="M400.46094 479.8125l1.45703 1.97656"/></g><g clip-path="url(#S)"><path fill="none" stroke="#000" stroke-linecap="round" stroke-linejoin="round" stroke-miterlimit="10" stroke-width=".5" d="M413.76172 479.71484l-6.91797 1.22657"/></g><g clip-path="url(#T)"><path fill="none" stroke="#000" stroke-linecap="round" stroke-linejoin="round" stroke-miterlimit="10" stroke-width=".5" d="M413.76172 479.71484l1.51172 1.9297"/></g><g clip-path="url(#U)"><path fill="none" stroke="#000" stroke-linecap="round" stroke-linejoin="round" stroke-miterlimit="10" stroke-width=".5" d="M427.11719 480.6289l-7-.59765"/></g><g clip-path="url(#V)"><path fill="none" stroke="#000" stroke-linecap="round" stroke-linejoin="round" stroke-miterlimit="10" stroke-width=".5" d="M427.11719 480.6289l.96484 2.25391"/></g><g clip-path="url(#W)"><path fill="none" stroke="#000" stroke-linecap="round" stroke-linejoin="round" stroke-miterlimit="10" stroke-width=".5" d="M440.1836 481.65625L433.67968 479"/></g><g clip-path="url(#X)"><path fill="none" stroke="#000" stroke-linecap="round" stroke-linejoin="round" stroke-miterlimit="10" stroke-width=".5" d="M452.91016 482.6211l-5.32813-4.58594"/></g><g clip-path="url(#Y)"><path fill="none" stroke="#000" stroke-linecap="round" stroke-linejoin="round" stroke-miterlimit="10" stroke-width=".5" d="M465.08203 483.4961l-3.04297-6.33594"/></g><g clip-path="url(#Z)"><path fill="none" stroke="#000" stroke-linecap="round" stroke-linejoin="round" stroke-miterlimit="10" stroke-width=".5" d="M147.46875 467.58594l-6.9375-1.14453"/></g><path fill="none" stroke="#000" stroke-linecap="round" stroke-linejoin="round" stroke-miterlimit="10" stroke-width=".5" d="M147.46875 467.58594l.78125 2.32422m12.57031-2.64453l-7.00781-.50391m7.00781.5039l.99219 2.2422m12.33203-2.47266l-7.02734-.04297m7.02734.04297l1.13672 2.17578m12.17578-2.3086l-7.02344.22266m7.02344-.22266l1.21875 2.13282m12.07031-2.46485l-6.97265.88672m6.97265-.88672l1.41797 2.0039m11.78516-2.53905l-6.7461 1.95703m6.7461-1.95703l1.71094 1.7578m-2.69141-1.47265l.85547.8789m13.38281-1.34374l-6.63281 2.3164m6.63281-2.3164l1.80078 1.66406m-2.76562-1.32812l.90234.83203m13.39453-1.11719l-6.66797 2.21484m6.66797-2.21484l1.77735 1.6914m-2.7461-1.37109l.88672.84766m13.40625-1.14453l-6.6836 2.16797m6.6836-2.16797l1.76172 1.70703m-2.73438-1.39063l.88282.85157m13.4336-1.07032L260.46483 468m6.7422-1.97266l1.71484 1.75391m11.55078-1.91016l-6.64453 2.28516m6.64453-2.28516l1.79297 1.67188m11.45312-1.85547l-6.50781 2.65234m6.50781-2.65234l1.88672 1.57031m11.55078-1.21875l-6.75 1.94922m6.75-1.94922l1.70703 1.76172m11.50781-2.0625l-6.55078 2.55078m6.55078-2.55078l1.85938 1.60156m11.42187-1.6875l-6.48046 2.72266m6.48046-2.72266l1.89844 1.5547m11.26563-1.86329l-6.1797 3.33984m6.1797-3.33984l2.04296 1.35547m-2.9414-.8711l1.01953.6797m12.85156-1.6836l-5.4961 4.3789m5.4961-4.3789l2.25.97656m-3.05078-.33984l1.125.48828m12.9375-1.1914l-5.39062 4.51171m5.39062-4.51172l2.27344.92188m11.61328.03906l-6.53125 2.58984m5.58203-2.21093l.9336.79297m12.99609-1.8125l-5.86328 3.87109m5.01172-3.3086l1.07812.58985m13.66406.55078l-7.01171.46484m7.01171-.46484l1.28907 2.08594m12.02343-2.07813l-7.01171.44922m7.01171-.44922l1.28907 2.08594m12.03125-1.69531l-7.01954-.33203m7.01954.33203l1.04687 2.22265m11.70313-.46875l-5.88672-3.83984m5.02734 3.28125l-.10937 1.22266m14.0039-.29297l-5.32812-4.58203m4.55078 3.91406l-.26953 1.19922"/><g clip-path="url(#aa)"><path fill="none" stroke="#000" stroke-linecap="round" stroke-linejoin="round" stroke-miterlimit="10" stroke-width=".5" d="M147.5 454.01953l-7-.64062"/></g><path fill="none" stroke="#000" stroke-linecap="round" stroke-linejoin="round" stroke-miterlimit="10" stroke-width=".5" d="M147.5 454.01953l.94922 2.26172m-1.96875-2.35547l.47656 1.1289M160.81641 454l-7-.60547m7 .60547l.96093 2.25781m12.31641-1.97656l-6.92969-1.16406m6.92969 1.16406l.78125 2.32422m12.54688-2.38672l-6.95313-1.03906m6.95313 1.03906l.8164 2.3125m12.4961-3.35547l-6.94922 1.04688m6.94922-1.04688l1.46093 1.96875m11.6836-2.64453l-6.60547 2.39453M213.8789 452.5l1.8203 1.64453m11.17579-2.30469l-5.96875 3.71485m5.96875-3.71485l2.1211 1.23047m-2.9922-.6875l1.0625.61328m12.82813-1.55859l-5.3789 4.52344m5.3789-4.52344l2.27734.91406m11.52735-.15234l-6.35547 2.9961m6.35547-2.9961l1.96484 1.46875m11.38672-1.39063l-6.42969 2.83985m6.4297-2.83985l1.92968 1.51563m11.3125-1.66406l-6.28516 3.14062m6.28516-3.14062l2 1.42187m-2.91406-.96484l1 .71094m12.58984-2.0625l-5.0039 4.92968m5.0039-4.92968l2.33984.73437m-3.0703-.01953l1.17187.36719m13.48047-.25391l-6.21875 3.27344m6.21875-3.27344l2.02734 1.3789m-2.9336-.90234l1.01563.6914m13.14453-1.27733l-6.09765 3.49218m6.09765-3.49218l2.07813 1.30468m-2.96485-.79687l1.03907.65234m13.15625-1.17578l-6.08204 3.52344m6.08204-3.52344l2.08203 1.29688m-2.96875-.78516l1.04297.64844m13.27734-.9297l-6.32422 3.0625m6.32422-3.0625l1.98437 1.44532m-2.90234-1l.98828.72266m12.77735-1.89453l-5.38672 4.51172m5.38672-4.51172l2.27343.92187m-3.0586-.26562l1.13673.46093m12.0625-1.8828l-3.58594 6.04296m3.58594-6.04297l2.45312.11719m10-.48047l-1.86328 6.77344m1.59375-5.78906l1.19531-.26954m8.46875.82813l5.98047 3.6875m13.79688-2.39063l-6.9414 1.09375m20.29687-.41796l-7.02344-.25782m6 .21875l.53516 1.10547m13.75-.58203l-6.91797-1.22656m6.91797 1.22656l.7578 2.33203m12.44532-1.875l-6.6914-2.14062m5.71484 1.82812l.21875 1.20703m13.84765-.35547l-6.24218-3.22265m5.33203 2.7539l.01562 1.22657"/><g clip-path="url(#ab)"><path fill="none" stroke="#000" stroke-linecap="round" stroke-linejoin="round" stroke-miterlimit="10" stroke-width=".5" d="M147.51172 440.48047l-7.02344-.19531"/></g><path fill="none" stroke="#000" stroke-linecap="round" stroke-linejoin="round" stroke-miterlimit="10" stroke-width=".5" d="M147.51172 440.48047l1.08984 2.19922m12.22656-2.29688h-7.02734m7.02734 0l1.15235 2.16797m12.13672-1.73828l-6.97266-.85547m6.97266.85547l.8789 2.28906m12.35938-1.8789l-6.82422-1.67579m5.83203 1.4297l.30078 1.1914m13.97656-.82422l-6.7578-1.92188m5.77343 1.64454l.25781 1.19921m14.1289-2.46093l-6.93358 1.15625m5.92187-.98828l.7461.97656m13.02734-2.52735l-5.82813 3.92188m4.98047-3.35156l1.08203.57812m12.90235-1.39062l-5.47266 4.41015m5.47266-4.41015l2.2578.96484m10.8047-1.2461l-4.96875 4.96876m4.96875-4.96875l2.34765.71875m11.41406-.17188l-5.85937 3.875m5.00781-3.3086l1.07813.58595m12.60156-1.73829l-4.88672 5.05079m4.88672-5.05079l2.35938.6797m10.70312-.90235l-4.3789 5.4961m4.3789-5.4961l2.41016.44922m-3.04688.35156l1.20703.22266m12.82031-.96094l-4.53125 5.3711m4.53125-5.3711l2.39844.51562m11.16406-.28906l-5.02734 4.91406m5.02735-4.91406l2.33593.7461m-3.07031-.03126l1.17188.3711m13.20312-.69531l-5.67969 4.13671m5.67969-4.13671l2.20703 1.0703m-3.03125-.46874l1.10156.53515m13.27344-.76953l-6.14844 3.39844m6.14844-3.39844l2.05469 1.33985m-2.94922-.84375l1.02734.66797m12.83204-1.6836l-5.44922 4.4414m5.44921-4.4414l2.26172.94922m-3.05468-.30469l1.1289.47657m12.46485-1.63282l-4.41797 5.46485m4.41797-5.46485l2.40625.46485m-3.05079.32812l1.20704.23438m13.0078-.80078l-4.92968 5.0078m4.92969-5.0078l2.35156.69921m11.1836-.46093l-5.3711 4.53125m4.58985-3.8711l1.13671.45703m10.09375-2.35937l.35938 7.01562m-.35938-7.01562l2.10547-1.26172m8.78906 2.40625l5.19922 4.72656m-5.19921-4.72656l.60546-2.3789m15.40625 1.23046l-.1914 7.02344m16.88281-4.05469l-6.9414 1.08985m5.92968-.9336l.73828.98047m13.53906.19531l-6.84765-1.57421m5.85156 1.34375l.32031 1.18359"/><g clip-path="url(#ac)"><path fill="none" stroke="#000" stroke-linecap="round" stroke-linejoin="round" stroke-miterlimit="10" stroke-width=".5" d="M147.51172 427.1211l-7.02344-.10548"/></g><path fill="none" stroke="#000" stroke-linecap="round" stroke-linejoin="round" stroke-miterlimit="10" stroke-width=".5" d="M147.51172 427.1211l1.1211 2.18359m12.1953-2.32032l-7.02734.16797m7.02734-.16797l1.20313 2.13672m12.10938-2.14453l-7.02344.1836m7.02344-.1836l1.21093 2.13281m12.01172-2.85937l-6.83594 1.64062m5.83985-1.40234l.8125.91797m12.80078-2.5625l-5.4414 4.44922m15.58202-5.70703l.91016 6.96484m15.86328-1.65625l-6.00781-3.65234m19.26562-.08594l-5.89453 3.82422m5.03906-3.26563l1.07032.59375m13.16797-1.04297l-6.03125 3.60547m5.15625-3.08203l1.04687.63672m12.53125-1.91797l-4.8086 5.1211m4.10938-4.375l1.1836.3203m12.62109-1.25l-4.38672 5.48829m3.75-4.6875l1.20703.22656m13.15625-.64453l-5.20703 4.72266m5.20703-4.72266l2.3086.83203m10.45312-1.32422l-4.10547 5.70703m4.10547-5.70703l2.4336.33203m10.80468-.38671l-3.94531 5.8164m3.94531-5.8164l2.4375.26562m11.67578.48828l-5.54687 4.3125m5.54687-4.3125l2.2422 1m11.59765-.0625l-6.59375 2.4336m6.59375-2.4336l1.82812 1.63281m-2.78906-1.28125l.91406.81641m13.29297-1.33984l-6.45703 2.77734m6.45703-2.77734l1.91406 1.53125m-2.85546-1.1289l1.91406 1.53515m12.36719-1.8789l-6.50391 2.66015m6.5039-2.66016l1.88672 1.57031m-2.83593-1.18359l1.88672 1.57031m12.34765-2.02344l-6.44922 2.79297m6.44922-2.79297l1.91797 1.53125m-2.85547-1.125l.96094.76563m13.33594-1.0625l-6.53516 2.57422m6.53516-2.57422l1.86718 1.59375m-2.8164-1.21875l1.86328 1.59375m11.41797-3.35156l-4.57031 5.33984m4.5703-5.33984l2.39454.53515m-3.0586.2422l2.39454.53515m11.4453-1.42578l-4.28905 5.5664m4.28906-5.5664l2.41797.41015m-3.04297.39844l2.41797.41016m11.58594-1.16797l-4.41797 5.46484m4.41797-5.46484l2.41015.46484m11.33985-.04297l-5.28907 4.6211m4.51953-3.94922l1.14844.4375m13.66016 2.19922l-6.73828-1.9961m5.7578 1.70313l.2461 1.20312"/><g clip-path="url(#ad)"><path fill="none" stroke="#000" stroke-linecap="round" stroke-linejoin="round" stroke-miterlimit="10" stroke-width=".5" d="M147.51172 413.89063l-7.02344-.27344"/></g><path fill="none" stroke="#000" stroke-linecap="round" stroke-linejoin="round" stroke-miterlimit="10" stroke-width=".5" d="M147.51172 413.89063l1.0664 2.20703m12.22266-1.90625l-6.97266-.875m5.95704.74609l.4375 1.14844m13.91015-1.17188l-7.0039-.57031m5.98437.48828l.48438 1.125m13.83984-.95312l-6.98438-.75m5.96875.64062l.45704 1.13672m9.95703-4.89063l.84765 6.97657m12.02735-6.89453l1.73047 6.8125m-1.48047-5.82032l.91015-.82421m9.65625 2.21484l6.72657 2.04297m-5.7461-1.7461l-.23828-1.20312m13.32813-.42188l5.21875 4.70313m13.91797-3.76953l-6.4297 2.83203m5.4961-2.41797l.96484.75781m11.09375.2461l-.01953-.19922-.05859-.1914-.09375-.1797-.46094-.375-.1914-.05859-.19922-.01953-.19922.01953-.1914.0586-.46094.375-.09375.17968-.0586.1914-.01953.19923.01953.19921.0586.19141.09375.17578.46093.3789.1914.0586.19923.01953.19922-.01953.1914-.0586.46094-.3789.09375-.17578.0586-.1914.01952-.19922m15.55079 1.30859l-6.51953-2.61719m5.5703 2.23828l.13282 1.21875m13.26172-4.72656l-4.77735 5.15234m4.08204-4.40234l1.1875.3164m12.4375-1.375l-4.01172 5.76954m4.01172-5.76953l2.4375.29297m11.07421-.14454l-4.40234 5.47657m4.40235-5.47657l2.41015.46094m10.54297-.71875l-3.67578 5.98828m3.67578-5.98828l2.44922.15235m12.39062 1.82812l-6.72656 2.02734m6.72656-2.02734l1.72657 1.74219m11.71093-1.16406l-6.97265.875m6.97265-.875l1.41407 2.0039m-2.4297-1.8789l.70704 1.0039m13.46484-1.82422l-6.65234 2.26563m6.65234-2.26563l1.78907 1.6797m-2.75782-1.34767l1.78907 1.6797m12.4414-2.15235l-6.55078 2.54687m6.55078-2.54687l1.85938 1.60156m-2.8125-1.23047l1.85937 1.60156m-2.8125-1.23046l.92969.80078m14.27734-1.58203l-6.51953 2.62109m6.51953-2.6211l1.87891 1.58204m-2.82813-1.19922l1.87891 1.58203m-2.82812-1.19922l.9414.78906m13.98438-2.11328l-5.94531 3.74219m5.9453-3.74219l2.12891 1.21875m-2.99218-.67578l2.1289 1.21875m-2.9961-.67578l2.12892 1.22266m13.21093-1.73438l-6.53125 2.58984m6.53125-2.58984l1.86719 1.58984m-2.8164-1.21093l1.86718 1.58984m-2.82031-1.21484l1.8711 1.58984m13.55468-1.57031l-6.94922 1.04687m6.94922-1.04687l1.46094 1.97265m-2.47266-1.8203l1.46094 1.97265m-2.47266-1.82031l.73047.98437m14.61719-1.21875l-6.96875.90625m6.96875-.90625l1.42187 2m-2.43359-1.86719l1.41797 2m-2.4336-1.86718l.71094 1m14.65625-1.01954l-7.01562.41016"/><g clip-path="url(#ae)"><path fill="none" stroke="#000" stroke-linecap="round" stroke-linejoin="round" stroke-miterlimit="10" stroke-width=".5" d="M467.07031 413.54688l1.27735 2.09765"/></g><path fill="none" stroke="#000" stroke-linecap="round" stroke-linejoin="round" stroke-miterlimit="10" stroke-width=".5" d="M466.04688 413.60938l1.27734 2.09375"/><g clip-path="url(#af)"><path fill="none" stroke="#000" stroke-linecap="round" stroke-linejoin="round" stroke-miterlimit="10" stroke-width=".5" d="M147.48438 399.97266l-6.96875.92968"/></g><path fill="none" stroke="#000" stroke-linecap="round" stroke-linejoin="round" stroke-miterlimit="10" stroke-width=".5" d="M147.48438 399.97266l1.42578 1.99609m11.86328-2.15625l-6.91406 1.25m6.91406-1.25l1.51953 1.92578m11.61328-2.57031l-6.55078 2.53906m5.59766-2.16797l.92968.80078m8.53906-3.0664l3.04688 6.33203m-2.60156-5.41406l.72656-.98829m11.22266.71094l4.88672 5.04688m-4.17579-4.3125l.375-1.16797M208 398.05078l5.15234 4.77735m-4.40234-4.08204l.3125-1.1875m17.20703.29688l-4.75781 5.16797m4.0664-4.41797l1.1875.3086m13.46875-.25391l-6.05859 3.55859m6.0586-3.5586l2.08984 1.28516m-2.96875-.76953l1.04297.64453m13.38672-.6836l-6.52735 2.60548m6.52735-2.60547l1.87109 1.58203m9.20313-.28125l-.01954-.19922-.05859-.1914-.09375-.17579-.46094-.3789-.1914-.05469-.19922-.02344-.19922.02344-.1914.05469-.46094.3789-.09375.17579-.0586.1914-.01953.19922.01953.19922.0586.1914.09375.1797.46093.375.1914.05859.19923.01953.19922-.01953.1914-.0586.46094-.375.09375-.17969.0586-.1914.01952-.19922m9.28907 1.82422l6.0039-3.64844m-5.1289 3.11719l-1.05469-.625m19.8125-1.83203l-6.6289 2.32812m19.33984-3.39844l-5.42188 4.46875m4.63281-3.8164l1.13282.46875m13.60156.03125l-6.6836 2.16797m6.6836-2.16797l1.76562 1.70703m11-2.75781l-5.58203 4.26562m5.58203-4.26562l2.23047 1.02344m-3.04297-.40235l1.11329.51172m13.49218-.28125l-6.54297 2.5625m6.54297-2.5625l1.86328 1.59766m10.8125 2.01171l-5.26171-4.65625m5.26171 4.65625l-.5703 2.38672m14.67187-3.90625l-6.83594-1.61718m6.83594 1.61718l.625 2.375m12.64062-4.17968l-6.73828 1.99218m6.73828-1.99218l1.71875 1.75m-2.69922-1.46094l1.71875 1.7539m12.71875-1.22656l-7.01953.35938m7.01953-.35938l1.26172 2.10547m-2.28515-2.05469l1.26171 2.10547m-2.28125-2.05078l.63282 1.05078m14.65234-1.70703l-6.875 1.46094m6.875-1.46094l1.57813 1.88281m-2.57813-1.66796l1.57813 1.8789m-2.57813-1.66797l.78906.9414m14.48438-1.53515l-6.79297 1.79688m6.79297-1.79688l1.66797 1.80078m-2.65625-1.53906l1.66797 1.80078m-2.65625-1.53906l.83593.90234m14.5586-.84765l-6.9961.64453m6.9961-.64453l1.34765 2.05078m-2.36328-1.95703l1.34375 2.05078m-2.36328-1.95703l.67188 1.02344m14.6289-1.5586l-6.89844 1.33594m6.89844-1.33594l1.54297 1.91016m-2.54687-1.71485l1.54296 1.91016m-2.54687-1.71484l.77344.95312m14.50781-1.53515l-6.8125 1.71875"/><g clip-path="url(#ag)"><path fill="none" stroke="#000" stroke-linecap="round" stroke-linejoin="round" stroke-miterlimit="10" stroke-width=".5" d="M466.96875 399.57813l1.64453 1.8203"/></g><path fill="none" stroke="#000" stroke-linecap="round" stroke-linejoin="round" stroke-miterlimit="10" stroke-width=".5" d="M465.97656 399.82813l1.64844 1.8203"/><g clip-path="url(#ah)"><path fill="none" stroke="#000" stroke-linecap="round" stroke-linejoin="round" stroke-miterlimit="10" stroke-width=".5" d="M147.5 386.83594l-7 .57422"/></g><path fill="none" stroke="#000" stroke-linecap="round" stroke-linejoin="round" stroke-miterlimit="10" stroke-width=".5" d="M147.5 386.83594l1.32813 2.0625m11.41796-3.71485l-5.85937 3.87891m5.85937-3.8789l2.15625 1.17187m10.8711-1.54688l-5.28516 4.62891m5.28516-4.6289l2.29297.87109m11.70312.30469l-6.64844 2.27734m6.64844-2.27735l1.79297 1.67579m11.6875-.95704l-6.97656.84375m5.96094-.72265l.69921 1.00781m13.53516.19922l-6.78906-1.8164m6.78906 1.8164l.55078 2.39063m12.73438-2.27735l-6.72657-2.04297m6.72657 2.04297l.46875 2.41016m-1.44922-2.70703l.23828 1.20312m14.1914-1.59765l-6.99609-.65625m6.9961.65625l.9453 2.26171m12.3125-3.3125l-6.8789 1.44141m6.8789-1.4414l1.57032 1.8828m-2.57422-1.67187l.78906.9414m13.48047-1.34765l-6.78515 1.83203m6.78515-1.83203L268.90234 388m-2.66015-1.52344l.83594.89453m13.57421.0547l-7.0039-.60548m7.0039.60547l.96094 2.25781m12.35547-2.27343l-7.0039-.57422m7.0039.57422l.97266 2.2539m-1.9922-2.33984l.48438 1.1289m13.73438-.40234l-6.77734-1.85547m6.77734 1.85547l.53906 2.39453m-1.52344-2.66406l.26954 1.19922m14.15625-1.92578l-7.02735.14062m6.0039-.1211l.59766 1.07032m13.65625-1.78906l-6.85546 1.53515m5.85546-1.3125l.80079.9297m13.1875-2.03516l-6.20313 3.30078m5.30078-2.82031l1.01563.6875m12.91406 2.58593l-5.6289-4.20312m5.6289 4.20312l-.3711 2.42188m14.35547-4.07813l-6.96875-.89453m6.96875.89453l.8672 2.29688m-1.87891-2.42578l.42968 1.14843m13.83594-2.26953l-6.84375 1.60547m6.84375-1.60547l1.61328 1.84766m-2.60937-1.61328l.80859.92187m13.55078-.89453l-6.9414 1.08203m6.9414-1.08203l1.47266 1.96094m-2.48047-1.80469l.73437.98438m13.19532-2.29297l-6.15625 3.38672m6.15625-3.38672l2.05468 1.34375m-2.94921-.85156l2.05468 1.34375m12.35157-1.41797l-6.54688 2.55078m6.54688-2.55078l1.85937 1.59765m-2.8125-1.22656l1.85938 1.59766m12.54296-1.54688l-6.8164 1.70703m6.8164-1.70703l1.64454 1.82422m-2.63672-1.57422l1.64453 1.82031m12.71094-1.84765l-6.91407 1.26172m6.91407-1.26172l1.52343 1.92578m-2.52734-1.74219l.75781.96094m13.4961-1.42969l-6.78516 1.83203"/><g clip-path="url(#ai)"><path fill="none" stroke="#000" stroke-linecap="round" stroke-linejoin="round" stroke-miterlimit="10" stroke-width=".5" d="M466.95313 386.20703l1.67578 1.78906"/></g><path fill="none" stroke="#000" stroke-linecap="round" stroke-linejoin="round" stroke-miterlimit="10" stroke-width=".5" d="M465.96484 386.47266l.83985.89453"/><g clip-path="url(#aj)"><path fill="none" stroke="#000" stroke-linecap="round" stroke-linejoin="round" stroke-miterlimit="10" stroke-width=".5" d="M147.46875 374.3711l-6.9375-1.12891"/></g><path fill="none" stroke="#000" stroke-linecap="round" stroke-linejoin="round" stroke-miterlimit="10" stroke-width=".5" d="M160.19922 371.80078l-5.76953 4.01563m4.92969-3.4297l1.09375.5586m12.85156-1.41406l-5.35156 4.55469m4.57421-3.89063l1.14063.44922m13.73828.5586l-6.92188 1.21093m6.92188-1.21094l1.50781 1.9336m11.82031-.8086l-6.94921-1.04296m6.94922 1.04296l.8203 2.31641m12.15235-1.23828l-6.26172-3.19531m6.26172 3.19531l.03906 2.45313m13.08594-2.12891l-5.88281-3.84766m5.02734 3.28906l-.11328 1.22266m14.28125-.66015l-5.8789-3.85157m5.02343 3.28906l-.10937 1.22266m14.83984-2.91015l-6.9961.64843M253 373.57812l.67578 1.02344m13.64453-.33203l-6.96875-.92187m6.96875.92187l.85547 2.30078m-1.8711-2.4336l.4297 1.14845m13.88671-.9375l-6.9414-1.07813m6.9414 1.07813l.8086 2.3164m12.50781-2.3086l-6.9414-1.09374m6.9414 1.09375l.79688 2.32031m12.48046-2.125l-6.86718-1.48828m6.86718 1.48828l.66797 2.36328m11.96875-.92578l-5.51172-4.35937m4.71094 3.72656l-.22265 1.20703m14.32421-.55469l-5.48046-4.39844m4.68359 3.75782l-.23047 1.20703m14.9375-1.66797l-6.67187-2.19922m5.70312 1.8789l.20703 1.21094m13.95703-.57421l-6.4336-2.82813m6.4336 2.82813l.17969 2.44921m-1.11719-2.85937l.09375 1.22266m14.1875-.87891l-6.49218-2.69531m6.49218 2.69531l.23438 2.4414m-1.17969-2.83593l.11719 1.22265m14.41015-2.1289l-7.02734-.09375m7.02734.09375l1.1211 2.1836m12.03906-3.26954l-6.71484 2.07813m6.71484-2.07813l1.73828 1.72656m11-2.83593l-5.5625 4.29687m5.5625-4.29687l2.23438 1.01171m-3.04297-.38671l1.11719.5078m12.71093-1.46874l-4.96875 4.96875m4.96875-4.96875l2.34766.71875m-3.07031.0039l1.17187.35938m13.17969-.72266l-5.59766 4.2461m5.59766-4.2461l2.22656 1.03125m-3.03906-.41015l1.11328.51172m13.54297-.13282l-6.65625 2.25m6.65625-2.25l1.78516 1.6836m11.65234-1.22656l-6.89844 1.33593"/><g clip-path="url(#ak)"><path fill="none" stroke="#000" stroke-linecap="round" stroke-linejoin="round" stroke-miterlimit="10" stroke-width=".5" d="M467.01172 373.14063l1.54297 1.91015"/></g><g clip-path="url(#al)"><path fill="none" stroke="#000" stroke-linecap="round" stroke-linejoin="round" stroke-miterlimit="10" stroke-width=".5" d="M146.23047 363.20703l-4.46094-5.42969"/></g><path fill="none" stroke="#000" stroke-linecap="round" stroke-linejoin="round" stroke-miterlimit="10" stroke-width=".5" d="M157.39844 364.0039l-.16797-7.02343m.14453 6.0039l-1.07031.60157m10.83203-3.46094l6.98828.73438m13.30078.11718l-6.96094-.96875m19.42188 2.82031l-5.25-4.67187m4.48437 3.99219l-.28906 1.1914m13.3711.26563l-3.25782-6.22656m2.78516 5.3203l-.6914 1.01173m14.125.05469l-2.54688-6.54688m2.17578 5.59766l-.80078.92968m12.33203.14844l1.76172-6.80078m10.75 6.48438l3.36719-6.16797m13.5703 6.01171l-3.875-5.85937m18.16407 4.89453l-5.82422-3.92969m4.97656 3.35938l-.125 1.21875m14.33985-.72266l-5.92578-3.77734m5.92578 3.77734l-.1914 2.44531m13.4414-2.35156l-5.80078-3.96484m4.95703 3.38672l-.13281 1.21875m14.55859-1.10156l-6.33203-3.04688m5.41015 2.60547l.05079 1.22656m11.66406 1.14453l-1.28906-6.90625m16.3164 6.0586l-4.71484-5.21094m4.03125 4.45312l-.41797 1.15235m14.89062-.91797l-5.66015-4.16406m5.66015 4.16406l-.35546 2.42969m13.71093-2.48829l-5.74218-4.04687m5.74218 4.04688l-.30468 2.4375m14.12109-3.46875l-6.74219-1.98047m6.74219 1.98046l.49219 2.40235m12.89843-4.07813l-6.89453 1.3672m6.89453-1.3672l1.55079 1.90235m11.55468-2.58594l-6.47265 2.73438m6.47265-2.73438l1.90235 1.54688m10.99218-2.28125l-5.6328 4.20312m5.6328-4.20313l2.21875 1.04688m10.375-1.76563l-4.1914 5.64063m4.1914-5.64063l2.42579.3672m9.85546-.89454l-2.125 6.69922M451 358.11719l1.20703-.21875m13.39063-.26953l-4.07422 5.72656m3.48437-4.89063l1.21485.15625"/><g clip-path="url(#am)"><path fill="none" stroke="#000" stroke-linecap="round" stroke-linejoin="round" stroke-miterlimit="10" stroke-width=".5" d="M141.05469 349.09375l5.89062-3.83203"/></g><path fill="none" stroke="#000" stroke-linecap="round" stroke-linejoin="round" stroke-miterlimit="10" stroke-width=".5" d="M155.82031 350.35938L158.8125 344m-2.5586 5.4336l-1.22265.05859m13.08203.13672l5.03516-4.90235m-4.30078 4.1914l-1.17188-.375m12.98438-.11718l6.5703-2.4961m-6.5703 2.4961l-1.84766-1.61328m14.97266.88672l6.94922-1.04297m-6.94922 1.04297l-1.46094-1.96875m14.74219 1.63281l7.01953-.36719m-6 .3125l-.6289-1.05078m12.92187 1.05078l7.02343-.26171m-6 .22265l-.61718-1.0586m12.91015 1.09376l7.01953-.2539m-6 .21874l-.61328-1.0625m12.9414 1.46875l6.95704-.9961m-5.94531.85157l-.72266-.99219m13.20313 1.83985l6.60156-2.40235m-5.64063 2.05469l-.91406-.82422m13.72266 2.03516l5.6914-4.125m-4.86328 3.52344l-1.10156-.53907m15.54297 2.47656l1.78516-6.79687m-1.52735 5.80469l-1.19531.28125m15.39062.8164l-.49218-7.01171m.42187 5.99218l-1.04297.64844m14.28907.3789l-.21485-7.02343m.21485 7.02344l-2.13282 1.21484m13.875-1.53516l2.92969-6.38671m-2.5 5.45703l-1.22656.07421m12.89453-.0664l5.36328-4.54297m-4.58203 3.88281l-1.14063-.45703m16.40235 2.35938l-.08985-7.02735m.07813 6.0039L356 350.25782m16.63281-.40625l-4.55468-5.34765m3.89453 4.5703l-.45313 1.14063m15.1836-1.26171l-6.06641-3.54688m6.0664 3.54688l-.09765 2.44921m13.55469-2.71484l-6.34766-3.01953m5.42188 2.58203l.05468 1.22656m14.52344-2.19531l-7.02344-.20313m6.0039.17188l.54298 1.10156m12.67969-3.74219l-4.79688 5.13672m4.09766-4.38671l1.18359.3164m11.71875-1.76562l-2.57422 6.53906m2.57422-6.53906l2.4375-.28125m10.80469.25l-2.42578 6.59765m2.0703-5.63672l1.21485-.16796m14.16016.54687l-5.83594 3.91797m4.98438-3.34766l1.08203.57813"/><g clip-path="url(#an)"><path fill="none" stroke="#000" stroke-linecap="round" stroke-linejoin="round" stroke-miterlimit="10" stroke-width=".5" d="M147.36328 332.84375l-6.72656 2.03906"/></g><path fill="none" stroke="#000" stroke-linecap="round" stroke-linejoin="round" stroke-miterlimit="10" stroke-width=".5" d="M157.33594 337.375l-.04297-7.02344m.03906 6.0039l-1.08203.58204m12.9961.15625l2.76952-6.46094m-2.36718 5.51953l-1.22266.10157m12.4375-.70704l6.16406-3.37109m-5.26953 2.88281l-1.02344-.67578m13.01563-.69531l7.01953.34766m-5.9961-.29688l-.52343-1.10937m13.88672 3.76171l4.8789-5.05468m11.69532 5.9414l-1.64453-6.83203m14.51562 6.91016l-.7539-6.98438m11.91796 6.52344l3.54688-6.0625m-3.03125 5.17969l-1.22656-.04688m12.83984-.21093l5.92188-3.78125m-5.0625 3.23046l-1.06641-.60156m13.27734.70313l6.41016-2.88281m-5.47656 2.46484l-.96875-.7539m13.37109 1.21484l6.36719-2.96875m-6.36719 2.96875l-1.96094-1.47657m15.73047 2.20313l5.46094-4.42188m-5.46094 4.42188l-2.26172-.96094m16.98438 2.0039l2.64844-6.5078m-2.64844 6.5078l-2.4414.25m15.71874-.26562l2.71875-6.47656m-2.71875 6.47656l-2.4414.22656m2.83593-1.16796l-1.21875.11328m12.82813-.1289l5.34375-4.56642m-5.34375 4.56641l-2.28125-.89453m3.0586.23047l-1.14063-.44922m13.83984 1.28906l5.01953-4.91406m-5.01953 4.91406l-2.33984-.74219m18.0078 1.79297l.31642-7.01953m-.27344 6l-1.10547.52735m16.89453-.41016l-4.71875-5.21094m4.03125 4.45313l-.41406 1.15234m15.2461-1.52344l-6.37892-2.95312m5.44922 2.52344l.06641 1.22656m14.48828-2.58594l-7 .625m5.98047-.53515l.67188 1.02734m13.55468-1.72656l-6.78125 1.84375m6.78125-1.84375l1.67969 1.78906m11.3086-2.58594l-6.12891 3.4336m6.1289-3.4336l2.06641 1.32813m11.44531-.91407l-6.52344 2.60938m6.52344-2.60938l1.875 1.58204m11.64453-.84766l-6.93359 1.14062"/><g clip-path="url(#ao)"><path fill="none" stroke="#000" stroke-linecap="round" stroke-linejoin="round" stroke-miterlimit="10" stroke-width=".5" d="M467.02734 333.29297l1.48829 1.95312"/></g><g clip-path="url(#ap)"><path fill="none" stroke="#000" stroke-linecap="round" stroke-linejoin="round" stroke-miterlimit="10" stroke-width=".5" d="M146.91797 318.58984l-5.83594 3.91407"/></g><path fill="none" stroke="#000" stroke-linecap="round" stroke-linejoin="round" stroke-miterlimit="10" stroke-width=".5" d="M158.5 323.85547l-2.3711-6.61328m2.02735 5.65234l-.82422.90625m13.89063.21094l-1.1875-6.92578m1.01562 5.91797l-.96875.75m12.23047-.09375l3.26563-6.22266m-2.78907 5.3164l-1.22656.00782m13.9414.82812l3.51563-6.08203m14.5625 4.85938l-6.01172-3.63672m5.13672 3.10547l-.0664 1.22656m14.66406-1.6875l-6.82813-1.65625m5.83594 1.41797l.30469 1.1875m13.97656-2.69922l-6.77734 1.84766m5.79297-1.58204l.83984.89454m13.07812-2.0547l-6.01172 3.63673m5.13672-3.10938l1.0547.6289m11.76952-2.4453l-3.28125 6.21484M265 318.34375h1.22656m10.07031-1.20313l1.70704 6.81641m-1.45703-5.82422l.91015-.82422m10.41797.8672l5.1836 4.74608m-4.4297-4.05468l.3047-1.1875M300.3086 320l6.9414 1.09375m-5.92969-.9336L300.91797 319m13.875 4.19922l4.60547-5.30469m-3.9375 4.53516l-1.19531-.27735M329.7539 324l1.3164-6.90234M329.75391 324l-2.34375.72656m14.97656-.92969l2.67969-6.49609m-2.6797 6.4961l-2.4414.23828m2.83203-1.1836l-1.22265.1211m13.83203.67578l3.3086-6.19922m-3.3086 6.19922l-2.45313-.0039m2.9375-.89845h-1.23046m13.69921.6797l4.03516-5.75392m-4.03516 5.75391l-2.4375-.30469m17.44532.92579l.64453-6.9961m-.64453 6.9961l-2.26172.94921m16.40625-.97265l-1.01172-6.95313m.86328 5.9414l-.98828.72657m16.1836-.48047l-4.47657-5.41797m3.82422 4.62891l-.46484 1.13281m14.92578-.84375l-5.46094-4.42187m4.66406 3.78125l-.23437 1.20312m15.02343-3.6289l-6.8164 1.71093m5.82422-1.46093l.82422.91015m13.53906-.89453l-6.92969 1.17969m6.92969-1.17969l1.5 1.9414m11.73437-2.29687l-6.76562 1.89063"/><g clip-path="url(#aq)"><path fill="none" stroke="#000" stroke-linecap="round" stroke-linejoin="round" stroke-miterlimit="10" stroke-width=".5" d="M466.94531 319.60156l1.6914 1.77735"/></g><path fill="none" stroke="#000" stroke-linecap="round" stroke-linejoin="round" stroke-miterlimit="10" stroke-width=".5" d="M465.96094 319.8789l.84765.88673"/><path fill="#00f" fill-rule="evenodd" d="M388.23828 432.14063h8.61719v-10.14454h-8.61719v10.14454"/><path fill="azure" fill-rule="evenodd" d="M390.07031 423.82813h.83594v2.82421h3.28516v-2.82421h.83203v6.48046h-.83203v-2.91796h-3.28516v2.91796h-.83594v-6.48046"/><path fill="#00f" fill-rule="evenodd" d="M224.01953 405.51172h8.61719v-10.14453h-8.61719v10.14453"/><path fill="azure" fill-rule="evenodd" d="M225.85156 397.19922h.83594v2.82422h3.28516v-2.82422h.83203v6.48047h-.83203v-2.91797h-3.28516v2.91797h-.83594v-6.48047"/><path fill="#ff3030" fill-rule="evenodd" d="M175.89063 392.19531h7.6953v-10.14453h-7.6953v10.14453"/><path fill="azure" fill-rule="evenodd" d="M177.72656 383.88281h.83203v5.73828H181.75v.7422h-4.02344v-6.48048"/><path fill="#ffffe0" fill-rule="evenodd" d="M350.6211 405.84375h22.17968v-10.1914H350.6211v10.1914"/><path fill-rule="evenodd" d="M354.1211 397.48438h.5078v6.29687h-.78515v-4.49219h-1.39063v-.55469l.5586-.0664.2539-.05078.23047-.08985.20313-.14062.17187-.21094.14454-.29687.10546-.39454m4.8125 0l.23047.01954.21875.05468.20703.08985.19532.1211.18359.14843.17188.17578.30468.42188.24219.49218.17969.54688.10937.57812.03906.59375-.03906.58985-.10937.58593-.17969.5547-.24219.5-.30469.42968-.17187.17969-.1836.15234-.1953.125-.20704.08984-.21875.0586-.23047.01953-.23046-.01953-.21875-.0586-.20704-.08984-.1953-.125-.1836-.15234-.17188-.1797-.30469-.42968-.24218-.5-.17969-.55469-.10938-.58593-.03906-.58985h.83203l.03125.5625.07813.5039.1289.44532.16016.375.1914.29688.21094.22265.22266.13672.22656.04688.22657-.04688.22265-.13672.21094-.22265.1914-.29688.16016-.375.1289-.44531.08204-.5039.02734-.5625-.02734-.5625-.08203-.5-.1289-.4375-.16016-.36329-.19141-.29297-.21094-.21484-.22265-.13281-.22657-.04297-.22656.04297-.22265.1328-.21094.21485-.1914.29297-.16017.36328-.1289.4375-.07813.5-.03125.5625h-.83203l.03906-.59375.10938-.57812.17969-.54688.24219-.49219.30468-.42187.17188-.17578.1836-.14844.1953-.1211.20704-.08984.21875-.05468.23046-.01954m5.08985 0h.51172v6.29688h-.78907v-4.49219h-1.38671v-.55469l.55859-.0664.2539-.05078.22657-.08985.20703-.14062.17187-.21094.14063-.29687.10547-.39454m2.82422 2.17579h.78906l.01953-.31641.0586-.28516.09765-.2539.14063-.21485.18359-.17187.22265-.1289.26563-.08204.30469-.02734.23828.01953.22656.0625.20313.10156.17968.14063.14844.17187.11328.20703.07031.23438.02735.26562-.02344.26953-.0664.22266-.10938.1914-.15625.17188-.19922.16406-.2461.16407-.63671.39062-.53516.3125-.4375.3164-.34765.32423-.26563.33593-.1875.35157-.125.37109-.07031.39063-.01953.42187h4.21094v-.74219h-3.33204l.08204-.28515.11328-.23438.14843-.20312.1875-.1797.23047-.17187.27735-.17578.71875-.41406.41406-.20703.34765-.23047.28125-.25.21875-.26953.16407-.27735.10937-.28515.0664-.28516.01954-.28125-.04297-.38281-.1211-.34766-.1875-.30859-.25-.26172-.30468-.21094-.34375-.16015-.3789-.09766-.41016-.03515-.4336.03515-.39843.09766-.35547.16406-.30469.23438-.2461.30468-.1875.375-.11327.44531-.04297.51954"/><path fill="#ffffe0" fill-rule="evenodd" d="M257.41406 435.52734h22.17969v-10.1914h-22.17969v10.1914"/><path fill-rule="evenodd" d="M260.91406 427.16797h.50781v6.29687h-.78515v-4.49218H259.25v-.5547l.5586-.0625.25-.05468.23046-.08984.20313-.14063.17578-.21094.14062-.29296.10547-.39844m4.8125 0l.23047.01953.21875.05469.20703.08984.19922.1211.1836.15234.17187.17578.30078.41797.24219.49219.17969.54687.11328.57813.03906.59375-.03906.59375-.11328.58203-.1797.55469-.24218.5039-.30078.42578-.17188.17969-.18359.15234-.19922.125-.20703.08985-.21875.0586-.23047.01952-.22656-.01953-.21875-.0586-.21094-.08984-.19531-.125-.1836-.15234-.17187-.17969-.30078-.42578-.24219-.5039-.17969-.5547-.11328-.58202-.03906-.59375h.83594l.02734.5625.08203.5039.125.44531.16407.375.1914.30079.20703.21875.22266.13671.22656.04688.22656-.04688.22266-.13671.21094-.21875.1914-.30079.16407-.375.125-.4453.08203-.50391.02734-.5625-.02734-.5625-.08203-.5-.125-.4336-.16406-.36719-.19141-.29296-.21094-.21485-.22265-.1289-.22657-.04688-.22656.04688-.22266.1289-.20703.21485-.1914.29296-.16407.3672-.125.43359-.08203.5-.02734.5625h-.83594l.03906-.59375.11329-.57813.17968-.54687.24219-.4922.30078-.41796.17188-.17578.18359-.15235.19531-.12109.21094-.08984.21875-.05469.22656-.01953m5.09375 0h.50781v6.29687h-.78515v-4.49218h-1.39063v-.5547l.5625-.0625.25-.05468.23047-.08984.20313-.14063.17578-.21094.14062-.29296.10547-.39844m2.82422 2.17578h.78516l.01953-.3164.0586-.28516.10156-.2539.14062-.21485.17969-.17188.22265-.1289.26563-.08204.3086-.02734.23827.02344.22266.0625.20313.10156.17968.13672.14844.17188.11328.20703.07031.23828.02735.26172-.02344.26953-.0625.22265-.11328.19532-.15235.16796-.20312.16407-.2461.16406-.6328.39063-.53907.3125-.4375.3164-.34765.32422-.26172.33594-.19141.35156-.125.3711-.07031.39062-.01953.42187h4.21093v-.74218h-3.33203l.08594-.28125.11328-.23829.14844-.20312.1836-.17969.23437-.17187.27734-.17578.71485-.41407.41796-.20703.34375-.23047.28125-.25.21875-.26953.16407-.27734.11328-.28516.0625-.28515.01953-.28125-.04297-.38282-.11719-.34765-.1914-.30469-.25-.26563-.30079-.21093-.34765-.16016-.3789-.09765-.40626-.03516-.4375.03515-.39453.09766-.35547.16797-.30469.23438-.25.30078-.18359.375-.11719.4453-.03906.51954"/><path fill="#ffffe0" fill-rule="evenodd" d="M413.5 432.3711h22.17969v-10.19141H413.5v10.1914"/><path fill-rule="evenodd" d="M417 424.01172h.50781v6.29687h-.78515v-4.48828h-1.39063v-.5586l.5625-.0625.25-.05468.23047-.08984.20313-.14063.17578-.21094.14062-.29296.10547-.39844m4.8125 0l.23047.01953.21875.0586.20703.08984.19531.11719.1875.15234.16797.17578.30469.41797.24219.49219.17968.54687.11329.58203.03515.58985-.03515.59375-.11329.58203-.17968.55469-.2422.5039-.30468.42578-.16797.17969-.1875.15234-.19531.125-.20703.09375-.21875.0547-.23047.01952-.23047-.01953-.21875-.05469-.20703-.09375-.19531-.125-.1836-.15234-.17187-.17969-.30078-.42578-.2461-.5039-.17968-.5547-.10938-.58202-.03906-.59375h.83203l.03125.5625.08203.5078.125.44142.16016.375.1914.30078.21094.21875.22266.13671.22656.04688.22656-.04688.22266-.13671.21094-.21875.1914-.30079.16016-.375.1289-.4414.08204-.50781.02734-.5625-.02734-.5625-.08204-.5-.1289-.4336-.16016-.36719-.1914-.29296-.21094-.21485-.22266-.1289-.22656-.04688-.22656.04688-.22266.1289-.21094.21485-.1914.29296-.16016.3672-.125.43359-.08203.5-.03125.5625h-.83203l.03906-.58985.10938-.58203.17968-.54687.2461-.4922.30078-.41796.17187-.17578.1836-.15235.19531-.11718.20703-.08985.21875-.05859.23047-.01953m5.09375 0h.50781v6.29687h-.78515v-4.48828h-1.39063v-.5586l.5586-.0625.2539-.05468.23047-.08984.20313-.14063.17187-.21094.14453-.29296.10547-.39844m2.82031 2.17578h.78906l.01954-.3164.05859-.28516.09766-.2539.14062-.21485.1836-.17188.22265-.1289.26563-.08204.30859-.02734.23438.02344.22656.0625.20312.10156.17969.13672.14844.17578.11328.20313.07031.23828.02735.26172-.02344.26953-.0664.22656-.10938.1914-.15625.17188-.19922.16016-.2461.16797-.63671.38671-.53516.3125-.4375.31641-.34766.32422-.26172.33594-.1914.35156-.125.3711-.07031.39452-.01954.41797h4.21094v-.74218h-3.33203l.08203-.28125.11328-.23829.14844-.20312.1875-.17969.23047-.17187.28125-.17578.71484-.41407.41797-.20703.34375-.23047.28125-.25.21875-.26953.16406-.27734.10938-.28125.0664-.28516.01954-.28125-.04297-.38281-.11719-.35156-.1914-.30469-.25-.26563-.30079-.21093-.34765-.16016-.37891-.09765-.40625-.03516-.4375.03515-.39844.09766-.35156.16797-.3086.23438-.24609.30468-.1875.3711-.11328.44921-.04297.51563"/><path fill="#ffffe0" fill-rule="evenodd" d="M156.95703 325.85156h22.17969v-10.1914h-22.17969v10.1914"/><path fill-rule="evenodd" d="M160.45313 317.49219h.51171v6.29687h-.78906v-4.49219h-1.38672v-.55468l.5586-.0664.2539-.05079.22656-.08984.20704-.14063.17187-.21094.14063-.29687.10547-.39453m4.8164 0l.22656.01953.21875.05469.21094.08984.19531.1211.1836.14843.17187.17578.30078.42188.2461.49219.17969.54687.10937.57813.03906.59375-.03906.58984-.10938.58594-.17968.55468-.2461.5-.30078.4297-.17187.17968-.1836.15234-.1953.125-.21095.08985-.21875.05859-.22656.01953-.23047-.01953-.21875-.0586-.20703-.08984-.19922-.125-.1836-.15234-.17187-.17969-.30078-.42969-.24219-.5-.17968-.55468-.11328-.58594-.03516-.58985h.83203l.02734.5625.08204.50391.125.44531.16406.375.1914.29688.21094.22265.22266.13672.22656.04688.22656-.04688.22266-.13671.21094-.22266.1875-.29688.16406-.375.125-.4453.08203-.50392.03125-.5625-.03125-.5625-.08203-.5-.125-.4375-.16406-.36328-.1875-.29296-.21094-.21485-.22266-.13281-.22656-.04297-.22656.04297-.22266.13281-.21094.21485-.1914.29296-.16406.36329-.125.4375-.08203.5-.02735.5625h-.83203l.03516-.59375.11328-.57813.17969-.54688.24218-.49218.30078-.42188.17188-.17578.1836-.14844.19921-.12109.20703-.08984.21875-.0547.23047-.01952m5.08984 0h.50782v6.29687h-.78516v-4.49219h-1.38672v-.55468l.5586-.0664.25-.05079.23047-.08984.20312-.14063.17578-.21094.14063-.29687.10547-.39453m6.80468 1.6211h-.78515l-.0547-.21095-.08202-.1875-.10547-.16015-.1289-.1289-.14845-.10548-.16015-.07422-.16797-.04296-.17188-.01563-.32812.03906-.28906.1211-.2461.1953-.20312.26954-.16016.33594-.11328.40625-.07031.46484-.02344.52735.1875-.20313.1875-.15625.1836-.125.1875-.08594.1875-.0625.1914-.03515.40234-.02344.3047.02734.3203.09375.31641.15625.29688.21875.2539.28516.19922.34765.07031.20313.0547.21484.02733.23438.00782.2539-.78906.04688-.02735-.26172-.07812-.25-.1211-.23437-.16015-.21094-.19532-.17578-.21875-.13672-.23828-.08985-.25781-.03125-.2539.03125-.2422.08985-.21874.13672-.19141.17578-.16016.21094-.125.23437-.07812.25-.02344.26172.02344.25781.07812.25.125.23438.16016.21094.1914.17968.21876.13672.24218.08594.25391.03125.25781-.03125.23828-.08594.21875-.13672.19532-.17969.16015-.21093.1211-.23438.07812-.25.02734-.25781.78907-.04688-.03125.3711-.09375.3711-.15625.35937-.22266.32812-.29297.28125-.16797.1211-.1875.10156-.20703.08203-.22265.0625-.2422.03906-.26171.01172-.28125-.01562-.26172-.04688-.23828-.07812-.21484-.10547-.19532-.1289-.17187-.15626-.15625-.17969-.13281-.20312-.1172-.22266-.10155-.24219-.14453-.53515-.08594-.59375-.02735-.64063.03907-.74218.11328-.66407.1875-.57812.1211-.2539.13671-.23048.15234-.20703.17188-.1836.1836-.15624.20312-.1289.21875-.10157.23047-.07031.25-.04688.26172-.01562.36718.03515.33203.09375.29297.15235.25781.19922.21094.24218.16406.27344.1172.30078.0625.32422"/></g></defs><use xlink:href="#ar"/></svg>