<svg xmlns="http://www.w3.org/2000/svg" role="img" xmlns:xlink="http://www.w3.org/1999/xlink" viewBox="142.45 309.95 326.84 171.84"><defs><clipPath id="a"><path d="M144 311.67188h1v168.65625h-1zm0 0"/></clipPath><clipPath id="b"><path d="M144 311.67188h324v168.65625H144zm0 0"/></clipPath><clipPath id="c"><path d="M426 479h6v1.32813h-6zm0 0"/></clipPath><clipPath id="d"><path d="M467 311.67188h1v168.65625h-1zm0 0"/></clipPath><clipPath id="e"><path d="M144 479h4v1.32813h-4zm0 0"/></clipPath><clipPath id="f"><path d="M147 479h3v1.32813h-3zm0 0"/></clipPath><clipPath id="g"><path d="M146 479h2v1.32813h-2zm0 0"/></clipPath><clipPath id="h"><path d="M153 479h9v1.32813h-9zm0 0"/></clipPath><clipPath id="i"><path d="M160 479h3v1.32813h-3zm0 0"/></clipPath><clipPath id="j"><path d="M159 479h2v1.32813h-2zm0 0"/></clipPath><clipPath id="k"><path d="M166 479h9v1.32813h-9zm0 0"/></clipPath><clipPath id="l"><path d="M173 479h3v1.32813h-3zm0 0"/></clipPath><clipPath id="m"><path d="M180 479h8v1.32813h-8zm0 0"/></clipPath><clipPath id="n"><path d="M187 479h3v1.32813h-3zm0 0"/></clipPath><clipPath id="o"><path d="M193 479h8v1.32813h-8zm0 0"/></clipPath><clipPath id="p"><path d="M200 479h3v1.32813h-3zm0 0"/></clipPath><clipPath id="q"><path d="M206 479h9v1.32813h-9zm0 0"/></clipPath><clipPath id="r"><path d="M213 479h3v1.32813h-3zm0 0"/></clipPath><clipPath id="s"><path d="M220 478h8v2.32813h-8zm0 0"/></clipPath><clipPath id="t"><path d="M226 478h4v2.32813h-4zm0 0"/></clipPath><clipPath id="u"><path d="M233 478h8v2.32813h-8zm0 0"/></clipPath><clipPath id="v"><path d="M240 478h3v2.32813h-3zm0 0"/></clipPath><clipPath id="w"><path d="M247 478h7v2.32813h-7zm0 0"/></clipPath><clipPath id="x"><path d="M253 478h3v2.32813h-3zm0 0"/></clipPath><clipPath id="y"><path d="M260 478h8v2.32813h-8zm0 0"/></clipPath><clipPath id="z"><path d="M273 478h8v2.32813h-8zm0 0"/></clipPath><clipPath id="A"><path d="M287 478h7v2.32813h-7zm0 0"/></clipPath><clipPath id="B"><path d="M292 479h2v1.32813h-2zm0 0"/></clipPath><clipPath id="C"><path d="M300 478h8v2.32813h-8zm0 0"/></clipPath><clipPath id="D"><path d="M305 479h3v1.32813h-3zm0 0"/></clipPath><clipPath id="E"><path d="M313 478h8v2.32813h-8zm0 0"/></clipPath><clipPath id="F"><path d="M327 477h7v3.32813h-7zm0 0"/></clipPath><clipPath id="G"><path d="M341 477h5v3.32813h-5zm0 0"/></clipPath><clipPath id="H"><path d="M356 476h2v4.32813h-2zm0 0"/></clipPath><clipPath id="I"><path d="M368 477h5v3.32813h-5zm0 0"/></clipPath><clipPath id="J"><path d="M382 476h3v4.32813h-3zm0 0"/></clipPath><clipPath id="K"><path d="M394 477h6v3.32813h-6zm0 0"/></clipPath><clipPath id="L"><path d="M406 478h8v2.32813h-8zm0 0"/></clipPath><clipPath id="M"><path d="M413 478h3v2.32813h-3zm0 0"/></clipPath><clipPath id="N"><path d="M420 478h8v2.32813h-8zm0 0"/></clipPath><clipPath id="O"><path d="M426 478h3v2.32813h-3zm0 0"/></clipPath><clipPath id="P"><path d="M433 478h8v2.32813h-8zm0 0"/></clipPath><clipPath id="Q"><path d="M439 478h4v2.32813h-4zm0 0"/></clipPath><clipPath id="R"><path d="M446 478h8v2.32813h-8zm0 0"/></clipPath><clipPath id="S"><path d="M452 478h2v2.32813h-2zm0 0"/></clipPath><clipPath id="T"><path d="M459 480h9v.32813h-9zm0 0"/></clipPath><clipPath id="U"><path d="M465 480h2v.32813h-2zm0 0"/></clipPath><clipPath id="V"><path d="M144 466h4v2h-4zm0 0"/></clipPath><clipPath id="W"><path d="M144 453h4v2h-4zm0 0"/></clipPath><clipPath id="X"><path d="M144 439h4v3h-4zm0 0"/></clipPath><clipPath id="Y"><path d="M144 426h4v2h-4zm0 0"/></clipPath><clipPath id="Z"><path d="M465 424h3v2h-3zm0 0"/></clipPath><clipPath id="aa"><path d="M144 413h4v2h-4zm0 0"/></clipPath><clipPath id="ab"><path d="M465 410h3v2h-3zm0 0"/></clipPath><clipPath id="ac"><path d="M144 398h4v5h-4zm0 0"/></clipPath><clipPath id="ad"><path d="M466 398h2v2h-2zm0 0"/></clipPath><clipPath id="ae"><path d="M144 385h4v4h-4zm0 0"/></clipPath><clipPath id="af"><path d="M465 384h3v2h-3zm0 0"/></clipPath><clipPath id="ag"><path d="M144 370h3v7h-3zm0 0"/></clipPath><clipPath id="ah"><path d="M144 359h4v3h-4zm0 0"/></clipPath><clipPath id="ai"><path d="M144 344h3v6h-3zm0 0"/></clipPath><clipPath id="aj"><path d="M144 330h1v8h-1zm0 0"/></clipPath><clipPath id="ak"><path d="M144 330h2v2h-2zm0 0"/></clipPath><clipPath id="al"><path d="M466 332h2v3h-2zm0 0"/></clipPath><clipPath id="am"><path d="M144 316h2v9h-2zm0 0"/></clipPath><clipPath id="an"><path d="M466 319h2v3h-2zm0 0"/></clipPath><g id="ao" clip-path="url(#clip1)"><path fill="#fff" fill-opacity="0" fill-rule="evenodd" d="M0 0h1000v1000H0zm0 0"/><path fill="#d3d3d3" fill-opacity="0" fill-rule="evenodd" d="M162.15234 355.86719l-.23437.29297.0586.23437.11718.17188.17578.23437.29297.34766.11328.0586.11719-.17188.0586-.23438.17577-.17578.46485-.17578h.69922l.23437.29297.28906.8164.0586.17579.17578.23046.35156.23438.69922.69922.17188.17578.23437.34765.23438.41016.28906.58203.41015.46485.23047.23437.23438.17578.11719.23047.17578.29297.17187 1.16406v.23438l.0586.28906.05859.11719.11719.11719.34765.41015.11719.17188.17578.17578.17578.23437.11719.17188.17188.35156.05859.23438.23437.40625.23438-.0586-.17578.17578-.0586.92969h-.58203l-.23437-.11328-.34766.11328-.11719.11719-.05859.29297-.0586.17578-.11718.17187-.46484.29297-.0586.23438-.0586.11328v.64453l.0586.17187v.41016l.0586.0586v.40624l.05859.40625.11719.17579.05859.05859.23047.64062-.0586.29297v.69922l-.05859.58203v.23438l-.0586.23047-.05468.35156v1.92187l.05469.1172h.42578l-.36719.11718-.02344.35156.89063 1.16797 1.74219.53906 1.33984.35938v.53906l.08984.8086.53516.71484 1.51953.26953.89063-.08594.08984 1.16406.53516.1797 1.16015-.1797 2.05469-.98437 1.16016-.36328 1.8789-.17578 1.69531-.1797-.17968.71876-1.51563.08594-1.25.08984-.80469.26953-1.07421.8086.26953.71875.53515.89843-.17968.625-.26563.8086.26563 1.07812.625.89844.80468.17969 1.25-.1797-.26562.72267.09766.5039.05468.29297v.17188l.0586.29296v.40625l.17578.1172.35156.11718h.40625l.29297-.17578.11328-.11719.0586-.11719.11718-.23047.0586-.17578.35156-.46484.23047-.17578.17578-.0586.17578.0586.0586.17578.11718.98828.05469.46875.0586.17188.11718.23437.17578.0586.8164.05859h.28907l.11719.23437.05859.40625.0586.35156v1.10547l.11718.29297.11719.34766.28906.69922.17578.35156.58203.7539.35157.17579.17187.0586.46875.23437.64063.46484.34765.23438.29297.17578.29297.05468.23047.0625.8164.34766.29297.17578.11328.17188.35157.35156.11719.17578.52343.64063v.28906l.0586.35156v.34766l.05859.35156.0586.28906.11718.0586.17188.05859h.17578l.58203.23437.17578.1172.17578.28905.17578.23438.11328.23437.29297.23047.11719.11719v.41016l.0586.05468.28906.23438.23437.11719.0586.11718.11718.17188.0586.11719.23047.23437.05859.17578.23437.0586.1172.05859-.1172.11328-.05859.11719v.11719l-.11719.29296-.11719.28907v.58203l.17579.11719.11718.05859.0586.11719.11719.11719.11328.05859.17578.34765.0586.35157.05858.40625v.17578l-.05859.17578-.11719.69922v.17187l.1172.17579.29296.29296h.40625l.17578.1172.11719.17187.11719.29296v.23438h-.52735l-.23047-.23438h-.23437l-.17578.0586-.0586.69922.0586.34765.11719.17579.17578.41015.11718.23047.28907.46875.17578.05469h.52344l.23437.0586.75781.64062.0586.29296v.23438l.05859.0586.23047.34765v.35156l-.11719.17188v.29297l.29297.28906.29297.17578.17187.0586.29297.17577.29297.1172.58203.40624.28906.23438.29297.17578.21875.16015.01563.01172.23047.17579.64062.52343.17578.23438.1172.17578.17577.17578.11328.17188v.64062l.1172.17578.46874.11719.58203.11719.23438.05859.23047.11328.29297.11719.11328.0586.58593.35156.28907.17187.17578.0625.17578.05469.17578.0586.69922.35155.28906.17579.23438.05468.28906.17578.23437.1172.64063.40624.29297.11719.17187.0586.23438.05859.41015.05859.23047.0586.23438.11718.0586.17188-.41017.17578.46875.0586.0586.29296.11328.23438.17578.05468.23438.0586.17578.05859.40625.11719.64062.23437.11719.17188.0586.23437v.17578l-.0586.1172-.0586.40624.23438.23438.11719.05859.34766.11719.64062.23047.17578.11718.28906.1172.17578.17577.23438.46485.58203 1.10546.17578.17579.34766.17578.17578.11719.35156.11718 1.04688.52344.23437.0586.46485.11327.29297.0586.46484.17578.75781.58203.23438.23438.34765.46484.17578.17578.28907.23438.8164.69921.29297.17579.28906.28906.29297.17578.29297.28906.69531.64063.17578.17578.29297.23437.28907.23438.46875.28906.64062.58203.34766.23438.23437.29297.34766.34765.35156.46485.9336.99218.34765.40625.11719.17579.23437.05859.11328.11719.64454.17578.23047.11328.23437.0586.29297.17577.23047.1172.9336.69921.40624.40625.23438.17578.40625.17578.23437.11719.8164.34766.34766.23437.23438.11719.29297.28906.23047.11719.7578.35156.35157.17188.23047.05859.29297.11719.23437.0586.8711.17577h.8164l.46875.23047.17188.0586.875.69921.46484.1172.29297.05858.17578.0586.23047.0586.46875.05859.34766.05859.35156.0586.40625.05859h.29297l.17187.0586v.23046l.17578.17578h.29297l.34766.0586.35156.05859.69922.11719h.64063l.46484-.23438.29297-.17578.17187-.11719.41016-.17187.28906-.17578.9336-.46485.46875-.29297.52343-.29296.46485-.17188.46484-.17578 1.05078-.46485.28906-.11718.41016-.11719.28906-.11719.52735-.17578 1.51562-.69922.58203-.34765.28907-.0586.29297-.0586.34765-.11718.875-.23047.35156-.11719h.11329l.23437-.05859.875-.23437.23438-.0586h.8125l.35156-.0586.8164-.11718.17188-.0586.35156-.05468.29297-.0586.23047-.05859.8164-.17578.17579-.0586h.34765l.23438-.05859.46484-.11718.75781-.17188.23438-.0586h.34765l.41016-.11718.28906-.0586 1.28516-.05859h.28906l.41016-.0586.23047-.05858h.17578l.875-.1172h.40625l.41015-.11718h.34766l.35156-.11328.8711-.0586h1.75l1.04687.28907.41016.11719.28906.11718.35156.11719.28907.11719 1.05078.17187.28906.0586h.29297l.29297.05859.17187.0586.41016.05859.17187.0586.1172.05858h.11718l.11719.0586.35156.0586h.11328l.41016.0664 1.92187.39453 1.92578.39453 1.51953.44922 1.69532.71875 2.14453.80469 1.60547-.71875 1.42968-.80469 1.16016-1.07813 1.25-.44921 3.03516-.71875 1.875-.35938 2.14453-1.34765 2.23437-1.25391 2.5-1.25781 1.69531-.44922 1.78516-.17969 1.16016-.26953.625.53906 1.33984-.26953.71485-.98828.98437-1.34375.44531-.17969.80469-.35937 1.875-.53907 1.78516-.44921 1.25-.26954 1.16015-.08984 1.69922-.08984 1.96094-.26954 1.25-.08984h.53906l.625-.08984h.89063l2.14453-.17969 2.41015-.17969 2.58985-.08984 1.69531.17969 1.60938.08984 1.42968.35938 1.16016.71875 1.875.98828 1.16015 1.52734.26563.71484.6289.08985.35548.89844.53515.53906.53516 1.52734 1.07422.35938h.53515l-.80469.53515.08985 1.70703.71484 2.69532.89063.80468.89453.98829.71484 1.2578 1.78516.53907 1.51953-.17969.35547 1.34375 1.60937-.80469.98047-.53906.26953.26953.31641-.21484.21875-.14453.80078.44922.44922-.35938h.35547l.53515-.26953.53907-.71875.53515-.26953.625-.98828 1.16016.44922.83984.3711 1.39454.61718 1.6953-.17969h1.60548l1.78515.08985.17969-1.70704.53516-1.34375.80468.26954.4922.84765.40233.40625-.08984.53906v.35938l.71485.44922.71093-.26953h1.42969l.35938.98828.4453 1.25781.71485 1.34375 1.25.6289 1.69531.62891.71485-.17969.17969-.53906.98046-.08984.44922.35937.08594 1.25782-.26563.6289-.53515.17969v.53906l.71484.98438.26563.53906.98437.98828.80078 1.07813-.26562.35937-.08985.89844-.625 2.33203-.35546 2.0664-.08985 1.79298-.17969.71875-.08984.53906v1.4375l-.98047 1.88281-.35937 1.70703-.53516.89844-.80469 1.16797-.26562.53906 2.05469 1.2539.08593.35938-.35546.53906-.08985-.17968v.80859l.08985 1.4375-.44532.71484-1.07422.09375-.26562.71485.53515.89844.8047.71875 1.16015.80859 1.33984.26953.44531.35938-.35546.44921-1.78907-.08984-1.25-.44922-.71484-.71875-.625-.08984-.17578 3.58984-.1875 1.3086h89.35937V311.70313h-55.26953v49.08203l.76172.125 3.28906.54296 2.02344 2.83594v2.7539l2.35156.33204 2.34766.33203h4.05078l-1.3789 4.16016-2.02344.70703-2.02344.70312-.54297.34375-2.59375 1.6172-.1875.11718-2.02344-2.07813-.73046-2.74218-2.67188-2.07813-1.375-3.5-.0664-.08203-1.95704-2.67188 2.75-1.41796v-49.08204H294.42187v91.41407l.1172.03125.1328.01172.07422.07421.10547.04688.08985.0586.08593.05859.08985.0586.29687.29687.0586.08984.03125.11719.02734.11719.01563.13671-.03125.1172-.0586.08983-.0586.08594-.04296.10547-.04688.10156-.02734.1211v.14453l.17578.26953.14844.14844.07422.08594.07422.07421.04296.10547.0625.08985.0586.08593.04297.10547.0586.08985.04687.10156.04296.10547.0586.08594.11719.17968.07421.07422.0625.08594.0586.08984.04297.10547.0586.08985.05858.08593.0625.08985.0586.08984.04297.10156.11719.17969.07421.07422.0586.08594.07422.07421.08984.0586.10547.04687h.14844l.1328-.01562.13282.01562.10156-.04687.07422-.07422.04688-.10156-.01563-.13281v-.14844l-.04687-.10547-.02735-.11719-.04687-.10156-.02735-.1211-.04296-.10156-.0625-.08984-.04297-.10156-.04297-.10547-.03125-.11719-.01563-.13281-.01171-.13672.08593-.0586.0586-.08593.12109-.03125.04297.10547.01562.1328v.1172l.0586.10156.0586.08984.08983.0586.14844.14843.0586.08985.04296.10547-.01171.10156.08593.0586.10547.04687.08594.0586.08984.05858.07422.07422-.11719.02735-.10546.04687-.08594.0586-.07422.07421-.0586.08985-.0625.08594-.02734.12109-.04687.10156-.04297.10547-.03125.11719-.01172.13281-.01563.13281v.14844l.02735.11719.04687.10547.04297.10156.0586.08984.07421.07422.08985.0586.07422.07421.08984.0586.0586.08984.04296.10547.04688.10156.11719.03125.1328.01563h.14845l.11718-.03125.10547.04297.04297.10547.04688.10156.02734.1211L299.5 410l.02734.11719.03125.1211.02735.11718.10547.04297.10156.04687.13281-.01562.14844.14844.0625.08593.07422.07422.07031.07422.08984.0625.10547.04297.10156.04297.1172.03125.13671.01562.11719-.03125.07422-.07422.02734-.11718-.01172-.13282-.03125-.12109-.02734-.11719.04297-.10547h.11719l.08984.0625.11719.02735h.14843l.13282.01562h.14843l.13282.01563.1328-.01563h.14845l.1328-.01562.13282-.01172.13672.01172.11719-.02735.13281-.01562.1914-.0586-.05859.17579-.01562.1328-.02735.1211-.01562.13281-.0586.08594-.1328.01563-.10548.04687-.10546.04297-.1172.03125-.11718.02735-.26563.03125h-.14843l-.13281.01562-.07422.07422.05859.08594.14844.14843.11719.1797.07421.0703.08985.0625.08984.0586.08594.0586.08984.05858.10156.04297.10547.0625.10547.04297.08594.0586.10547.04687.10156.04297.17969.11719.0586.08984-.04298.10156-.04687.10547.01562.13281.22266.22266.0586.08985.04296.10156.03125.1211.04297.10155.01563.13282.03125.11718.01171.13672.03125.11719.14844.14844.10156.04297.10547.04296.1172.03125.1328.01563.13672.01563h.11719l.11719-.03125.08984-.0586.04297-.10547.04688-.10156.04296-.10547.03125-.11719.01172-.1328v-.14845l-.01172-.1328-.01562-.13282-.03125-.11719-.04297-.10547-.04688-.10547-.04296-.10156-.04297-.10547-.01563-.13281.01563-.13281.02734-.11719.03125-.11719.02735-.1211.04687-.10155.08984-.0586.08594-.0625.07422-.07422.08984-.05859.22266-.22266.0586-.08593.07421-.07422.11719-.17969.0586-.08594v-.14844l-.07423-.07421-.10156-.04688-.10547-.04297-.10156-.04297-.0586-.08984-.04687-.10547-.02734-.11719.08984-.05859.11719-.03125.10156-.04297.17969-.11719.14844-.14843.01172-.13282-.01172-.10546-.08985-.0586-.1328.01563h-.14845l-.1328.01562-.13282-.01562-.1211-.03125-.08593-.0586-.07422-.07422-.0586-.08984-.0625-.08594-.11718-.17969-.0586-.08593.03125-.1211.08594-.05859.1211-.03125.05859-.08594v-.1211l-.03125-.11718-.0586-.08984-.05859-.08594-.04687-.10547-.02735-.11719-.01562-.1328.0586-.08985.07421-.07422.08984-.0586.1172-.17968.07421-.07422.0586-.08594.14843-.14844.1211-.03125.1328-.01562.13282.01562.07422.07422.04297.10547.01562.13281-.03125.1172-.11719.03124-.1328.01172-.14844.14844-.04297.10547-.04688.10156-.02734.1211-.03125.11718v.14844l.03125.11719.04297.10546.05859.08985.07422.07031.07422.07422.11719.03125.12109.02734.11719-.02734.1328-.01563h.1172l.08984.0586.07422.07422.04687.10546.0586.08594.10156.04688.13281.01562.10547.04297.08594.0586-.01172.10546-.07422.07422-.17969.11719-.05859.08984-.08984.0586-.07032.07422-.07421.07421-.0625.08985-.02735.11719-.01562.1328.01562.13282-.01562.13281v.14844l.01562.13281.02735.1172.03125.12108.07421.07422.08985.0586.08594.0586.08984.05858.11719.03125v.08594l-.10157.04688-.08984.0586-.26563.03124-.11718.02735h-.14844l-.10547.04296-.10156.04688-.0586.08984-.0625.23438-.01171.13281-.03125.1211-.01563.1328v.29298l-.01172.1328.01172.13673.01563.1328.1328.01563.13282.01172.1211.03125.08593.0586.07422.07421.04688.10547.04296.10157.01563.1328v.44532l-.01563.13281v.44532l.03125.26562.02735.11719.01562.13281.03125.11719.08594.21094.03125.26562v.14844l-.03125.11719-.02734.11718-.03125.1211-.02735.11719-.03125.11718-.03125.1211-.01171.1328-.01563.13282.08984.0586.1172-.03125.10155.01562.04688.10547-.03125.26562v.44141l-.04297.10547-.04688.10547-.04296.10156-.04297.10547-.0586.08594-.03125.12109-.04296.11719-.03125.11719-.01563.1328.01563.13282.05859.08984.10547.04688.08594.0586.05859.08593-.01172.13672-.03125.11719-.04297.10156v.44531l-.01562.13281v.14844l-.03125.11719-.04297.10547-.02735.11719-.04687.10546-.04297.10157-.03125.12109-.02734.11719-.03125.13281-.03125.11719-.02735.11719-.04297.10546-.03125.1172-.03125.12108-.01171.13282-.01563.13281v.29688l.02734.11718v.14844l.04688.39844.02734.11719.0586.08984.12109.03125h.14844l.13281-.01563.0586.08985v.11719l-.0586.08984-.08984.0586-.10157.04296-.10546.04688-.08985.05859-.08594.0586-.13671.01562-.1172-.03125-.1328-.01563-.10157.04688-.0625.08594-.01172.13671-.01562.13282-.03125.11719-.02735.11718-.01562.13281-.03125.1211v.29687l.01563.13282.03125.11718v.14844l.01171.13281v.14844l-.02734.11719-.04688.10156-.02734.1211-.03125.11718-.0586.08985-.07421.07421-.10156.04297-.10547.04688-.11719.02734-.1211.03125-.10156-.04687.0586-.08594.10547-.04688.02734-.11718.03125-.11719.02734-.1211.03125-.11718v-.14844l.01563-.13281-.03125-.11719-.04297-.10547-.10547.01563-.07422.07422-.10156.04296-.08984.0625-.07422.07422-.04297.10157-.01563.1328-.03125.1172L304.25 426l-.03125.11719-.02734.11719-.03125.12109-.02735.11719-.03125.11718-.04297.10547-.08984.0586h-.08984l-.1172-.03125-.03124-.08594.01562-.13672-.03125-.11719v-.14844l-.01171-.1328v-.14844l-.0625-.23438-.02735-.1211-.04297-.10156-.04687-.10546-.0586-.08594-.05859-.08985-.04297-.10546-.0625-.08594-.14844-.14844-.0703-.07422-.10548-.04687-.10547-.04297-.10156-.04297-.29687-.29688-.08985-.07421-.08594-.0586-.10546-.04297-.08985-.0625-.08594-.0586-.10546-.04296-.08985-.0586-.08594-.0625-.07421-.0703-.10547-.04688-.08594-.0586-.10547-.04296-.08984-.0625-.10156-.04297-.10547-.04297-.08594-.0586-.10547-.04687-.10547-.04297-.10156-.04687-.08985-.0586-.10156-.04297-.10547-.04296-.08984-.0625-.11719-.02735-.13281-.01562-.13281.01562H299.75l-.13281.01563-.11719-.03125-.08984-.0586-.07422-.07422-.08985-.05859-.10156-.04688h-.14844l-.12109-.02734-.10156-.04297-.07422-.07422-.11719-.17968-.08984-.0586-.10156-.04297-.08985-.0625-.10547-.04296-.08984-.0586-.08594-.0586-.10547-.04687-.0586-.08594-.05858-.08984-.04297-.10547-.04688-.10156-.07422-.07422-.08594-.0586-.07421-.07421-.08985-.0586-.22265-.22265-.04297-.10547-.03125-.26563.10547-.04296h.14453l.10547.04296.07421.07422.08985.0586.08594.0586.10546.04687.08985.05859.14844.14844.0703.07422.14845.14843.0625.08594.07421.07422.08594.0586.07422.07421.08985.0625.08984.0586.08594.05859.26953.17578.10156.04688.10547.04296.10156.04297.04688-.07421.05859-.08594.07422-.07422.07031-.07422.10547.04297.07422.07422.0586.08984.04296.10156.04688.10547.04296.10547.1211.02735.11719-.02735.07421-.08984.04297-.10547.0586-.08985.07422-.07421.10546-.04297.1172-.02735.1328.01172.08985.0586.14844.14843.05859.08985.04297.10547.04687.10156.04297.10547.04297.10156.10547.04688.10547.04296.13281.01563.08594-.0586.0586-.08984.07421-.07422.10547-.04297.11719.02735.10547.04687.10156.04297.10547.04297.10156.04688.17969.11718v.11719l-.01563.13281.01563.13281.01562.13672.0586.08594.10156.04688.1211.02734.11718.03125h.14844l.11719-.03125.05859-.08984.17969-.1172.05859-.08983.07422-.07422.0586-.08594.11718-.17969.17969-.11719.11719.03125.08984.0586.04297.07422-.01563.1328v.1172l.08985.05859h.14843l.13282-.01563.1328-.01171.26563-.03125.10547-.04297.11719-.03125.1211-.02735.07421-.07421.07031-.07422.0625-.08985-.01562-.10547-.04688-.10156-.10156-.04297-.10547-.01562-.11718.02734-.26563.03125h-.14844l-.07421-.07422-.08985-.0586-.11719-.03124-.11718-.02735-.13282-.01562h-.14843l-.13282.01563h-.29687l-.10547-.04688-.14844-.14844-.04297-.10156-.05859-.08984.22266-.22266.08593-.0586.10547-.04296.11719-.03125.13281-.01563.13281.01563.13672.01562.10157.04297.1328-.01172.08985-.0625.10156-.04297.0625-.08984-.04687-.10156-.08984-.0586-.1172-.03125-.10155-.04296-.0586-.08985-.0625-.08984v-.11719l.01563-.13281.10547-.04688.07421-.07031v-.1211l-.08984-.05859-.03125-.11719.08985-.05859.07421-.07422.04297-.10547.0586-.08984.04687-.10156.01563-.13281v-.14844l-.04688-.10547-.04297-.10156-.08984-.0586-.13281-.01562-.10157-.04297-.13671-.01563-.1172-.03125h-.4453l-.13282-.01562-.13281-.01172-.13281-.01563-.11719-.03125h-.14844l-.13281-.01562-.13281-.01172-.26563-.03125-.1211-.04297-.08593-.0586-.07422-.07421v-.14844l.01172-.13281.10547-.04688.10156-.04296.13281-.01563h.15235l.13281-.01562h.29297l.1211.03125.10156.04296.08984.0586.23438.0625.12109-.04688.08984-.05859.10156-.04297.13282-.01562.10547.04296.10156.04688.13281.01172.1211-.02735h.14453l.12109-.03125.11719-.02734.10547-.04687.07421-.07422.08594-.0586.14844-.14843.0586-.08594.04687-.10547.02734-.11719.01563-.10547-.10156-.04296-.08985-.0586-.11719-.03125-.10546-.04297-.08985-.0625-.07422-.08594-.07422-.07421-.10156-.04297-.10547-.04688-.10156-.04297-.0586-.08984-.04687-.10156-.08594-.21094-.0625-.08594-.05859-.08984-.07422-.07422-.08594-.0586h-.26953l-.11719.03126-.08984.05859-.10156.04297-.13281.01562-.10547-.01562-.02735-.11719-.0625-.08984-.11718-.03125-.10157-.04297-.14843-.14844-.03125-.11719-.01563-.10546.07422-.07422.17969-.1172.11719-.02733.11718-.03125.13672.01562.10156.04297.10547.04297.10156.04687.10547.04297.1172.03125.1328.01563.1172.02734.1328.01563.10547-.01563.08985-.0586-.07422-.07421-.10547-.04297-.07422-.07422-.07422-.08984-.14844-.14844-.08593-.0586-.08985-.05859-.07422-.07422-.08984-.0586-.10156-.04687-.1211-.02734-.10156-.04688-.10547-.04296-.11719-.03125-.10156-.04297-.1211-.03125h-.14843l-.11719.03125-.10546.04297-.08594.0625-.17969.11718-.08594.0586-.08984.0586-.10547.04687-.08594.05859-.10547.04297-.10156.04297-.10547.04687-.07422.07422-.05859.08985-.0586.08593-.04687.10547-.0586.08594-.07421.07422-.13281-.01172-.1172-.03125h-.11718l-.07422.07422-.08984.0586-.07422.07421-.08984.0586-.08594.05859-.10547.04687-.10156.04297-.13672.01563-.10156-.04297-.14844-.14844-.10547-.04688h-.08594l-.10547.04688-.10156.04297-.1211.03125-.11718-.03125-.07422-.07422v-.11719l.03125-.1211.07422-.0703.0586-.08985.07421-.07422.11719-.03125.10547-.04296h.29297l.13281-.01563.13672-.01563.10156-.04296.08985-.0586.10156-.04687.08984-.0586.13281-.01171.08985.05859.13281.01172.08984-.0586.08594-.05859.10547-.04297.08984-.0586.08594-.0625.08985-.05859.14843-.14843.0586-.08594.05859-.08985.10547-.04296.13281-.01563.11719.02735.1211.03125.05859-.0586.05859-.08984.03125-.26563.02734-.11719.10547.01172.13281.01563.10157-.04297.08984-.0586.0586-.08984.07421-.07422.0586-.08984.04687-.10156.01172-.13281-.01172-.13282-.04687-.10547-.14844-.14843-.0586-.08985-.05859-.08594-.04297-.10546v-.44532l.01563-.1328v-.14845l.01172-.1328-.0586-.0586-.08984.0586-.10156-.04298-.17969-.11719-.08594-.05859-.0625-.08984-.0586-.08985-.07421-.07421-.08594-.0586-.1211.03125-.10155.01172-.10547.04688-.08594.05859-.10547.04297-.14844.14844-.08984.05859-.08594.0586-.08984.0625-.10547.04296-.13281.01563v-.1211l.10547-.04297.11718-.03125.07422-.0703.04297-.10548v-.14844l-.02734-.11718-.14844-.14844-.13281-.01563h-.14844l-.11719.03125-.10547.04297-.10156.04297-.08984.0625-.11719.02735-.07422-.07422.01172-.13281-.04297-.10157-.04297-.10547-.08984-.05859-.11719.02734-.1211.03125-.11718.03125-.10156.04297-.1211.03125-.10156.04297-.10547.04297-.08984.0586-.10156.01562v-.11719l.01562-.13281-.0586-.08985-.07421.04297-.14844.14844-.0586.08985-.07421.07421-.04688.10547-.04296.10156-.07422.07422-.0586.08985-.07422.07422-.05859.08593-.07422.07422-.08984.0625-.07422.07031-.07422.07422-.10156.01563-.13281.01562-.10547-.04296v-.1211l.14843-.14844.04297-.10156.0586-.08984.04687-.10156.04297-.10547.0586-.08985.03124-.11719.04297-.10156.03125-.1211.02735-.11718.04687-.10547.04297-.10156.04297-.10547.07422-.07031.08984-.0625.08985-.0586.10156-.04296h.29687l.26563-.03125.10547-.04297-.07422-.07422-.11719-.03125-.10547-.04297-.08984-.0586-.10156-.04687-.08985-.0586-.10156-.04296-.10547-.04297-.08984-.0625-.08594-.0586-.10547-.04296-.10156-.04297-.1211-.03125-.11718-.03125-.10157-.04297L297.5 410.25l-.10156-.04297-.08985-.0586-.04296-.10546-.01563-.13281.10156-.04297.13281-.01563.13672.01563.13282-.01563.10156-.04297.0586-.08984.01562-.10547-.08985-.0586-.07421-.07421-.10157-.04297-.08984-.0586-.14844-.14843-.04297-.10547-.01562-.13281v-.29297l-.0586-.08985-.08984-.05859-.07422-.07422-.04297-.10547-.03125-.11718-.0586-.08985-.07421-.07422-.11719-.02734-.07422-.07422-.08984-.0586-.08984-.0625-.08594-.05859-.07422-.07421-.0586-.08594-.04687-.10547-.08594-.0586-.14843-.14843-.19532-.0586-.1328.01563-.10157.04297-.07422.07422-.04688.10156-.04296.10547-.0586.08984-.0586.08594-.29687.29687-.08984.0586h-.08594l-.0625-.08594-.04297-.10547.03125-.11719.0586-.08984.02734-.11719-.01172-.13281-.08984-.0625-.10547.04688-.11719.02734-.11719.03125-.26953.17578-.10156.04688-.11719.02734-.10546.04687-.08985.0586-.10156.04297-.0586-.08594-.04687-.10547.01563-.13281.04687-.10547.07031-.07422.07422-.07031.0586-.08985v-.14843l-.04297-.10547h-.23829l-.10156.04687-.03125.11719-.02734.11719-.03125.1211-.07422.04296-.13281.01563-.07422-.04688-.04297-.10156-.04297-.10547-.04687-.10156-.04297-.10547-.1211.03125-.10156.04297-.13281.01562-.11719.03125-.10547.04297-.08984.0586-.10156.04687-.1211.02734-.13281.01563-.10156-.04297-.0586-.08985-.04687-.10546-.04297-.10157-.04297-.10546v-.1172l.0586-.08984.08593-.05859.17969-.11719.10156-.04687.10547-.04297.10547-.0586.10156-.04296.08985-.0625.10156-.04297.10547-.0586.10156-.04687.08984-.0586.10547-.04296.10156-.04297.08985-.0625.10156-.04297.13672-.01563.11719.03125.10156.04297.1211.03125.10156.04297.10546.04688.10157.04296.10547.04297.10156.04688.10547.04297.10156.04297.10547.04687.08594.0586.10546.04296.1172.03125.10546.04297.10156.04688.08985.0586.10547.04296.10156.04297.10547.04687.11719.02735.10156.04687.1211.02735h.14843l.08594-.0586.01562-.10156.0586-.08984-.02735-.1172-.07422-.07421-.11719-.17969-.07421-.07422-.08985-.07421-.17969-.1172-.08593-.05859-.10547-.04296-.10156-.04688-.26954-.17578-.05859-.08985-.07422-.07421-.0586-.08985-.04296-.10156-.03125-.11719-.01563-.13672v-.5625l-.01171-.1328-.01563-.13282-.03125-.11719-.01562-.13281-.01172-.13281-.03125-.1211-.22266-.22265-.0586-.08594-.01562-.10547.03125-.11719.13281-.01562v-91.41406H172.9922v1.45312l-.0586.23438-.35156 1.05078-.17187.52343-.1172.34766-.17577.41016-.11719.17187-.23438.29297-.23046.0586h-.35157l-.11718.05859-.23047.40625v.29297l.11719.17578.23046.23047.1172.23437.64062.75781.29297.46485.17578.23437.23047.35156.23437.34766.64063.8164.17578.46485.17187.41016.11719.69531.17578.46875.11719 1.39844.0586.46484v.875l.11718 1.04688v4.78125l-.0586.46484-.35156 1.28125-.17578.52344-.11328.41015-.35156.9297L172.93359 336l-.23437.58203-.11719.17578-.17187.34766-.17578.40625-.35157.8164-.0586.29297-.11327.29297-.11719.28906-.0586.17579-.11718.875-.0586.40625-.05859.11718-.0586.17579-.05859.17187-.23047.52734-.11718.17188v.23437l-.11719.23438-.0586.17187-.17577.58594v.28906l-.0586.17579v.29296l-.0586.11329-.05859.52734v.17187l-.05468.23438v2.6211l-.17578.8164-.1172.17578-.17577.23438-.1172.17187-.11327.23438-.58594.93359-.23047.28906-.29297.46485-.17578.23437-.28906.35156-.35156.69922-.11328.23047-.17579.41016-.17578.23046-.40625.52735-.8164.69922-.29297.17187-.28906.23438-.17579.11719-.17578.17578-.52344.40625-.52734.17578-.17187.17578-.23438.05469-.64062.17578h-.75782m12.21094 31.02344l-1.07422.44921.35938.89454 1.25-.71485.44531-.53906-.98047-.08985"/><path fill="#d3d3d3" fill-opacity="0" fill-rule="evenodd" d="M201.50781 416.59766h-.89453l.44922.6289.98047.35938.80469-.08985.4453-.98828-.17577.08985-.71485-.35547-.89453.35547m154.6211 59.0703l-.0586-.52343v-.29297l.11328-.29297.0586-.23046.46875-.46875h.11328l.11719-.11329.11718-.05859h.17579l.23437-.0586h.34766l.23437.0586.11719.0586.23047.17187.0586.17578.11718.58203v.29297l-.11719.17578-.17187.28906-.17579.17579-.52734.52343-.23047.23438-.11719.0586h-.17578l-.11718-.0586-.40625-.29297-.17579-.11719-.11718-.0586-.0586-.11327-.05468-.1172m6.64062-10.95702l-.0586-.17188v-1.10937l.0586-.17188.17578-.0586.17188-.05858h.17578l.23437-.0586.1172.0586.05858.69921-.05859.17188-.11719.17578-.11718.0586-.23438.52343-.11328.0586h-.23438l-.05859-.1172m9.61328-14.39062l-.11719-.17578v-.69922l.29297-.875.1172-.17187.17577-.35156.11328-.23047.1172-.29297.35155-.75781.1172-.23047.17187-.23438h.17578l.11719-.0586h.64062l.11719.0586.23437.23438.17188.11328.35156.29297.11719.11718.11328.17579v.11328l.11719.05859.11718.11719v.69922l-.05859.17578v.23047l-.0586.17578-.34765 1.05078-.11719.23047-.11719.23437-.11718.0586-.23047.23437-.64063.28906h-.875l-.41015-.11718-.64063-.46485"/><path fill="none" stroke="#bebebe" stroke-linecap="round" stroke-linejoin="round" stroke-miterlimit="10" stroke-width=".5" d="M467.95703 311.69531H144.02734v168.625h323.9297v-168.625"/><g clip-path="url(#a)"><path fill="#fff" fill-opacity="0" fill-rule="evenodd" d="M144 475.89063v4.4375h.0039H144V311.67188h.0039H144v164.21875"/></g><g clip-path="url(#b)"><path fill="#fff" fill-opacity="0" fill-rule="evenodd" d="M144.0039 480.32813V311.67188h48.81641v108.73046l-4.4375.31641-4.4375.89844-1.21875 1.01172-3.21875 4.3828-.10156.0586-4.33984 1.28906-3.40235 3.14844-1.03515.75-4.4375 1.46094-2.3086 2.22656-2.1289 2.53906-2.39063 1.89844-.8711 4.4375.75391 4.4414 2.13282 4.4375.375 1.21095 2.26562 3.22656 2.17188 1.40234 4.4375 1.26563 4.4375.04297 4.4414-.25782 4.4375-.8203 4.4375.01171 4.4375-.65234 4.4414 1.12109 4.4375-.53516 4.4375-.14843 4.4375 1.67578 4.44142-1.75 4.4375-1.33203.04687-.02344 3.76563-4.4375.625-1.71875 2.42578-2.71875.9414-4.4414-3.36719-2.8672-1.71484-1.5703-.47266-4.4375-2.25-1.00782-4.4375-.21875-4.4414-1.32813-1.94531-1.8828-2.09766-4.4375-.39453-.67579-4.4375-2.11719-3.9961-1.64843-.4414-.23047-4.4414-1.9961V311.67188h13.3164v104.8828l-1.65234 1.63673 1.65234 2.7539 2.25781-2.7539-2.25781-1.63672V311.67188h13.3164v110.91406l-.23437.04297-.91016 4.4414 1.14453 1.42578 4.4375 2.07422 1.78125.9375 2.65625 1.73828 1.35938 2.69922 3.07813 3.02344 4.4414.8086 1.10156.60546 3.33594 3.11328 4.4375-1.14453 1.98047-1.96875 2.01172-4.4375-1.60938-4.4375-2.3828-2.10156-4.4375-1.9336-4.4375-.21093-2.94142-.1914-1.5-1.10157-4.4375-2.98828-4.4375.5-4.35546-.85156-.08203-.04297V311.67188h39.9453v121.47265l-2.65234 2.80078 2.65235 1.3789 1.32422-1.3789-1.32422-2.80078V311.67188h17.7539v136.55859l-1.96875 1.03125 1.96875 1.28125 1.23438-1.28125-1.23438-1.03125v-136.5586h4.4375v115.875l-4.29687 3.96094 4.29687 4.23828.61329.19922 3.82421 2.82813 3.58985-2.82813-1.46485-4.4375-2.125-1.53515-4.4375-2.42579v-115.875h17.75391v113.08204l-2.54297 2.3164 2.54297 3.23438.72656 1.20312 3.71094 2.95313 2.95313-2.95313-2.95313-3.34765-1.6914-1.08985-2.7461-2.3164V311.67187h75.44922V446.7461l-2.75781 2.51563 2.7578 2.45312 2.41407-2.45312-2.41406-2.51563V311.67188h13.3164v143.23046l-4.22265 3.23438-.21485.53515-2.26171 3.90235 2.26171 2.92187 4.4375.39454 3.96875-3.31641-.49218-4.4375-3.47656-3.23438V311.67188h79.88671v168.65625h-36.86718l-3.07422-1.29688-1.65625 1.29688H144.0039"/></g><path fill="#50fcfc" fill-rule="evenodd" d="M159.2461 449.26172l-.75391-4.4414.8711-4.4375 2.39062-1.89844 2.1289-2.53907 2.3086-2.22656 4.4375-1.46094 1.03515-.75 3.40235-3.14844 4.33984-1.28906.10156-.0586 3.21875-4.3828 1.21875-1.01172 4.4375-.89844v4.26953l-1.82031 2.08203-2.61719 2.3164-4.4375.89845-2.4961 1.22265-1.9453 3.77735-4.4375.46875-.46485.1914-3.97265 2.11328-1.98828 2.32422-1.80079 4.4375 3.78907 2.83203L170 444.82031l.6289-1.23047 3.79688 1.23047-3.75 4.4414 2.89063 4.4375 1.5 2.12892 4.4414-.3711 4.4375-1.16797 1.25781-.58984 1.77344-4.4375 1.39063-4.4414.00781-4.4375.00781-.00391 3.72656-4.4336.71094-1.95703 3.25-2.48047-.82812-4.4375-2.42188-1.57422-4.4375-.5078v-4.26954l4.4375-.3164 4.4414 1.99609.44142.23047 3.99609 1.64843v27.2422l-4.4375 1.1289-3.32813 1.05078 3.32813 1.07422 4.4375.76953 2.1289-1.84375-2.1289-2.17969v-27.24219l4.4375 2.1172.39453.67577 2.09766 4.4375 1.9453 1.88281 4.44142 1.32813 4.4375.21875 2.25 1.00781.47265 4.4375 1.71484 1.57031 3.3672 2.8672-.94141 4.4414-2.42578 2.71875-.625 1.71875-3.76563 4.4375-.04688.02344-4.4375 1.33203-4.4414 1.75-4.4375-1.67578-4.4375.14843-4.4375.53516-4.4414-1.1211-4.4375.65235-4.4375-.01172-4.4375.82031-4.44141.25782-4.4375-.04297-4.4375-1.26563-2.17188-1.40234-2.26562-3.22656-.375-1.21094-2.13282-4.4375"/><path fill="#00e8fc" fill-rule="evenodd" d="M166.1914 447.65234l-3.78906-2.83203 1.80078-4.4375 1.98829-2.32422 3.97265-2.11328.46485-.1914 4.4375-.46875 1.9453-3.77735 2.4961-1.22265 4.4375-.89844 2.61719-2.3164 1.82031-2.08204 4.4375.50781 2.42188 1.57422.82812 4.4375-3.25 2.48047-.71094 1.95703-3.72656 4.4336-.00781.0039-.00781 4.4375-1.39063 4.4414-1.77344 4.4375-1.2578.58985-4.4375 1.16797-4.44141.3711-1.5-2.12891-2.89063-4.4375 3.75-4.4414-3.79687-1.23048L170 444.82031l-3.8086 2.83203m31.07032 7.1211l-3.32813-1.07422 3.32813-1.05078 4.4375-1.1289 2.1289 2.17968-2.1289 1.84375-4.4375-.76953"/><path fill="#50fcfc" fill-rule="evenodd" d="M206.13672 420.94531l-1.65234-2.7539 1.65234-1.63672 2.25781 1.63672-2.25781 2.7539m13.3164 7.55078l-1.14453-1.42578.91016-4.4414.23438-.04297.08203.04297 4.35547.85156 4.4375-.5 4.4375 2.98828v2.22656l-3.47657 3.3125 3.47656 4.29688.1836.14062 4.25781 2.57813 3.39063 1.85937 1.04687.97656 2.16797-.97656 2.26953-.83203 2.6914-3.60547-2.6914-3.3711-1.59375-1.0664-2.84375-2.17578-4.4375-.91406-4.4414-.22266v-2.22656l1.5 1.10156 2.9414.1914 4.4375.21095 4.4375 1.93359 2.38281 2.10156 1.60938 4.4375-2.01172 4.4375-1.98047 1.96875-4.4375 1.14453-3.33594-3.11328-1.10156-.60547-4.4414-.80859-3.07813-3.02344-1.35938-2.69922-2.65625-1.73828-1.78125-.9375-4.4375-2.07422"/><path fill="#00e8fc" fill-rule="evenodd" d="M232.76563 435.80469l-3.47657-4.29688 3.47656-3.3125v2.0586l-1.3164 1.2539 1.3164 1.625 3.63282 2.8125.8086.48828 4.4375 2.71094 4.4375-2.5.51952-.69922-.51953-.65234-4.4375-3.17969-1.46484-.60547-2.97266-1.16406-4.4414-.08984v-2.0586l4.4414.22266 4.4375.91406 2.84375 2.17578 1.59375 1.0664 2.6914 3.3711-2.6914 3.60547-2.26953.83203-2.16797.97656-1.04687-.97656-3.39063-1.85937-4.25781-2.57813-.1836-.14062"/><path fill="#00d4fc" fill-rule="evenodd" d="M232.76563 433.13281l-1.31641-1.625 1.3164-1.2539 4.44141.08984 2.97266 1.16406 1.46484.60547v2.03906l-2.3711 1.79297 2.3711 1.4961 2.3789-1.4961-2.3789-1.79297v-2.03906l4.4375 3.17969.51953.65234-.51953.69922-4.4375 2.5-4.4375-2.71094-.8086-.48828-3.6328-2.8125"/><path fill="#00c4fc" fill-rule="evenodd" d="M241.64453 437.4414l-2.3711-1.49609 2.3711-1.79297 2.3789 1.79297-2.3789 1.4961"/><path fill="#50fcfc" fill-rule="evenodd" d="M259.39844 437.32422l-2.65235-1.3789 2.65235-2.80079 1.32422 2.80078-1.32422 1.3789m17.7539 13.21876l-1.96875-1.28125 1.96875-1.03125 1.23438 1.03125-1.23438 1.28125m4.4375-14.79688l-4.29687-4.23828 4.29687-3.96094v1.03125l-3.17578 2.9297 3.17578 3.1328 4.0586 1.3047.3789.27734.35547-.27735-.35547-.63281-.83984-3.80469-3.59766-2.92969v-1.03125l4.4375 2.42579 2.125 1.53515 1.46485 4.4375-3.58985 2.82813-3.82421-2.82813-.61329-.19922"/><path fill="#00e8fc" fill-rule="evenodd" d="M281.58984 434.64063l-3.17578-3.13282 3.17578-2.92969v1.72266l-1.30859 1.20703 1.3086 1.29297 1.48046-1.29297-1.48047-1.20703v-1.72265l3.59766 2.92968.83984 3.80469.35547.63281-.35547.27735-.3789-.27735-4.0586-1.30469"/><path fill="#00d4fc" fill-rule="evenodd" d="M281.58984 432.80078l-1.30859-1.29297 1.3086-1.20703 1.48046 1.20703-1.48047 1.29297"/><path fill="#50fcfc" fill-rule="evenodd" d="M299.34375 430.30469l-2.54297-3.23438 2.54297-2.3164 2.7461 2.3164 1.6914 1.08985v2.52343l-.91016.82422.91016.72266.72266-.72266-.72266-.82422v-2.52343l2.95313 3.34765-2.95313 2.95313-3.71094-2.95313-.72656-1.20312"/><path fill="#00e8fc" fill-rule="evenodd" d="M303.78125 432.23047l-.91016-.72266.91016-.82422.72266.82422-.72266.72266"/><path fill="#50fcfc" fill-rule="evenodd" d="M374.79297 451.71484l-2.75781-2.45312 2.7578-2.51563 2.41407 2.51563-2.41406 2.45312m8.8789 13.78125l-2.26171-2.92187 2.26171-3.90235.21485-.53515 4.22265-3.23438v1.84375l-1.8164 1.39063-.38672 4.4375 2.20313.85156 1.01953-.85156.47656-4.4375-1.4961-1.39063v-1.84375l3.47657 3.23438.49219 4.4375-3.96875 3.3164-4.4375-.39453"/><path fill="#00e8fc" fill-rule="evenodd" d="M388.10938 463.42578l-2.20313-.85156.38672-4.4375 1.8164-1.39063 1.4961 1.39063-.47656 4.4375-1.01954.85156"/><g clip-path="url(#c)"><path fill="#50fcfc" fill-rule="evenodd" d="M426.39844 480.32813l1.65625-1.29688 3.07422 1.29688h-4.73047"/></g><g clip-path="url(#d)"><path fill="#fff" fill-opacity="0" fill-rule="evenodd" d="M467.9961 480.32813H468V311.67188h-.0039H468v168.65625h-.0039"/></g><path fill="#fff" fill-opacity="0" fill-rule="evenodd" d="M193.51563 465.09375l5.82812.3711.63281-9.9375-5.82812-.375-.63281 9.9414"/><path fill-rule="evenodd" d="M197.52344 457.20703l.50781.03125-.39844 6.28125-.78515-.05078.28515-4.48047-1.38672-.08594.03516-.55468.5625-.03125.2539-.03516.23829-.07422.21094-.1289.1875-.19922.16015-.28516.1289-.38672"/><g clip-path="url(#e)"><path fill="none" stroke="#000" stroke-linecap="round" stroke-linejoin="round" stroke-miterlimit="10" stroke-width=".5" d="M147.48828 479.91406l-6.97656.83203"/></g><g clip-path="url(#f)"><path fill="none" stroke="#000" stroke-linecap="round" stroke-linejoin="round" stroke-miterlimit="10" stroke-width=".5" d="M147.48828 479.91406l1.40234 2.01172"/></g><g clip-path="url(#g)"><path fill="none" stroke="#000" stroke-linecap="round" stroke-linejoin="round" stroke-miterlimit="10" stroke-width=".5" d="M146.47266 480.03516l.70312 1.0039"/></g><g clip-path="url(#h)"><path fill="none" stroke="#000" stroke-linecap="round" stroke-linejoin="round" stroke-miterlimit="10" stroke-width=".5" d="M160.80078 479.89453l-6.97266.8711"/></g><g clip-path="url(#i)"><path fill="none" stroke="#000" stroke-linecap="round" stroke-linejoin="round" stroke-miterlimit="10" stroke-width=".5" d="M160.80078 479.89453l1.41406 2.00781"/></g><g clip-path="url(#j)"><path fill="none" stroke="#000" stroke-linecap="round" stroke-linejoin="round" stroke-miterlimit="10" stroke-width=".5" d="M159.78516 480.01953l.70703 1.0039"/></g><g clip-path="url(#k)"><path fill="none" stroke="#000" stroke-linecap="round" stroke-linejoin="round" stroke-miterlimit="10" stroke-width=".5" d="M174.08984 479.72266l-6.92187 1.21093"/></g><g clip-path="url(#l)"><path fill="none" stroke="#000" stroke-linecap="round" stroke-linejoin="round" stroke-miterlimit="10" stroke-width=".5" d="M174.08984 479.72266l1.50782 1.93359"/></g><g clip-path="url(#m)"><path fill="none" stroke="#000" stroke-linecap="round" stroke-linejoin="round" stroke-miterlimit="10" stroke-width=".5" d="M187.41016 479.74219l-6.9297 1.17187"/></g><g clip-path="url(#n)"><path fill="none" stroke="#000" stroke-linecap="round" stroke-linejoin="round" stroke-miterlimit="10" stroke-width=".5" d="M187.41016 479.74219l1.49609 1.94531"/></g><g clip-path="url(#o)"><path fill="none" stroke="#000" stroke-linecap="round" stroke-linejoin="round" stroke-miterlimit="10" stroke-width=".5" d="M200.73047 479.78906l-6.9414 1.07813"/></g><g clip-path="url(#p)"><path fill="none" stroke="#000" stroke-linecap="round" stroke-linejoin="round" stroke-miterlimit="10" stroke-width=".5" d="M200.73047 479.78906l1.47266 1.96485"/></g><g clip-path="url(#q)"><path fill="none" stroke="#000" stroke-linecap="round" stroke-linejoin="round" stroke-miterlimit="10" stroke-width=".5" d="M213.96094 479.39063l-6.77344 1.875"/></g><g clip-path="url(#r)"><path fill="none" stroke="#000" stroke-linecap="round" stroke-linejoin="round" stroke-miterlimit="10" stroke-width=".5" d="M213.96094 479.39063l1.6875 1.78125"/></g><g clip-path="url(#s)"><path fill="none" stroke="#000" stroke-linecap="round" stroke-linejoin="round" stroke-miterlimit="10" stroke-width=".5" d="M227.13672 478.98828l-6.49219 2.6836"/></g><g clip-path="url(#t)"><path fill="none" stroke="#000" stroke-linecap="round" stroke-linejoin="round" stroke-miterlimit="10" stroke-width=".5" d="M227.13672 478.98828l1.89453 1.5625"/></g><g clip-path="url(#u)"><path fill="none" stroke="#000" stroke-linecap="round" stroke-linejoin="round" stroke-miterlimit="10" stroke-width=".5" d="M240.35547 478.77344l-6.30078 3.10937"/></g><g clip-path="url(#v)"><path fill="none" stroke="#000" stroke-linecap="round" stroke-linejoin="round" stroke-miterlimit="10" stroke-width=".5" d="M240.35547 478.77344l1.99219 1.4336"/></g><g clip-path="url(#w)"><path fill="none" stroke="#000" stroke-linecap="round" stroke-linejoin="round" stroke-miterlimit="10" stroke-width=".5" d="M253.59375 478.625l-6.14844 3.40625"/></g><g clip-path="url(#x)"><path fill="none" stroke="#000" stroke-linecap="round" stroke-linejoin="round" stroke-miterlimit="10" stroke-width=".5" d="M253.59375 478.625l2.0586 1.33984"/></g><g clip-path="url(#y)"><path fill="none" stroke="#000" stroke-linecap="round" stroke-linejoin="round" stroke-miterlimit="10" stroke-width=".5" d="M266.8789 478.57422l-6.08593 3.51172"/></g><path fill="none" stroke="#000" stroke-linecap="round" stroke-linejoin="round" stroke-miterlimit="10" stroke-width=".5" d="M265.99219 479.08203l1.04297.65235"/><g clip-path="url(#z)"><path fill="none" stroke="#000" stroke-linecap="round" stroke-linejoin="round" stroke-miterlimit="10" stroke-width=".5" d="M280.19922 478.58594l-6.09766 3.48828"/></g><path fill="none" stroke="#000" stroke-linecap="round" stroke-linejoin="round" stroke-miterlimit="10" stroke-width=".5" d="M279.3125 479.09375l1.03906.65234"/><g clip-path="url(#A)"><path fill="none" stroke="#000" stroke-linecap="round" stroke-linejoin="round" stroke-miterlimit="10" stroke-width=".5" d="M293.64844 478.83984l-6.36328 2.98047"/></g><g clip-path="url(#B)"><path fill="none" stroke="#000" stroke-linecap="round" stroke-linejoin="round" stroke-miterlimit="10" stroke-width=".5" d="M292.72266 479.27344l.98046.73437"/></g><g clip-path="url(#C)"><path fill="none" stroke="#000" stroke-linecap="round" stroke-linejoin="round" stroke-miterlimit="10" stroke-width=".5" d="M306.97656 478.8711l-6.39062 2.91796"/></g><g clip-path="url(#D)"><path fill="none" stroke="#000" stroke-linecap="round" stroke-linejoin="round" stroke-miterlimit="10" stroke-width=".5" d="M306.04688 479.29297l.97265.7461"/></g><g clip-path="url(#E)"><path fill="none" stroke="#000" stroke-linecap="round" stroke-linejoin="round" stroke-miterlimit="10" stroke-width=".5" d="M319.99219 478.33984l-5.79297 3.97657"/></g><path fill="none" stroke="#000" stroke-linecap="round" stroke-linejoin="round" stroke-miterlimit="10" stroke-width=".5" d="M319.14844 478.91797l1.08984.5664"/><g clip-path="url(#F)"><path fill="none" stroke="#000" stroke-linecap="round" stroke-linejoin="round" stroke-miterlimit="10" stroke-width=".5" d="M332.94922 477.89844l-5.07813 4.85937"/></g><path fill="none" stroke="#000" stroke-linecap="round" stroke-linejoin="round" stroke-miterlimit="10" stroke-width=".5" d="M332.21094 478.60547l1.16406.38672"/><g clip-path="url(#G)"><path fill="none" stroke="#000" stroke-linecap="round" stroke-linejoin="round" stroke-miterlimit="10" stroke-width=".5" d="M345.57422 477.33984l-3.69531 5.97657"/></g><path fill="none" stroke="#000" stroke-linecap="round" stroke-linejoin="round" stroke-miterlimit="10" stroke-width=".5" d="M345.03516 478.21094l1.22656.07812"/><g clip-path="url(#H)"><path fill="none" stroke="#000" stroke-linecap="round" stroke-linejoin="round" stroke-miterlimit="10" stroke-width=".5" d="M357.70703 476.8789l-1.32812 6.89844"/></g><g clip-path="url(#I)"><path fill="none" stroke="#000" stroke-linecap="round" stroke-linejoin="round" stroke-miterlimit="10" stroke-width=".5" d="M372.40625 477.47656l-4.10156 5.70703"/></g><path fill="none" stroke="#000" stroke-linecap="round" stroke-linejoin="round" stroke-miterlimit="10" stroke-width=".5" d="M371.8086 478.30469l1.21874.16406"/><g clip-path="url(#J)"><path fill="none" stroke="#000" stroke-linecap="round" stroke-linejoin="round" stroke-miterlimit="10" stroke-width=".5" d="M382.64453 476.96875l2.05469 6.71875"/></g><path fill="none" stroke="#000" stroke-linecap="round" stroke-linejoin="round" stroke-miterlimit="10" stroke-width=".5" d="M382.9414 477.94531l.8672-.86719"/><g clip-path="url(#K)"><path fill="none" stroke="#000" stroke-linecap="round" stroke-linejoin="round" stroke-miterlimit="10" stroke-width=".5" d="M394.6914 477.66797l4.58985 5.32031"/></g><path fill="none" stroke="#000" stroke-linecap="round" stroke-linejoin="round" stroke-miterlimit="10" stroke-width=".5" d="M395.35938 478.4414l.4453-1.14062"/><g clip-path="url(#L)"><path fill="none" stroke="#000" stroke-linecap="round" stroke-linejoin="round" stroke-miterlimit="10" stroke-width=".5" d="M413.42578 478.72266l-6.25 3.21093"/></g><g clip-path="url(#M)"><path fill="none" stroke="#000" stroke-linecap="round" stroke-linejoin="round" stroke-miterlimit="10" stroke-width=".5" d="M413.42578 478.72266l2.01563 1.39843"/></g><g clip-path="url(#N)"><path fill="none" stroke="#000" stroke-linecap="round" stroke-linejoin="round" stroke-miterlimit="10" stroke-width=".5" d="M426.9375 479.1836l-6.64453 2.28906"/></g><g clip-path="url(#O)"><path fill="none" stroke="#000" stroke-linecap="round" stroke-linejoin="round" stroke-miterlimit="10" stroke-width=".5" d="M426.9375 479.1836l1.79688 1.67577"/></g><g clip-path="url(#P)"><path fill="none" stroke="#000" stroke-linecap="round" stroke-linejoin="round" stroke-miterlimit="10" stroke-width=".5" d="M440.08203 478.77734l-6.30469 3.10157"/></g><g clip-path="url(#Q)"><path fill="none" stroke="#000" stroke-linecap="round" stroke-linejoin="round" stroke-miterlimit="10" stroke-width=".5" d="M440.08203 478.77734l1.99219 1.4336"/></g><g clip-path="url(#R)"><path fill="none" stroke="#000" stroke-linecap="round" stroke-linejoin="round" stroke-miterlimit="10" stroke-width=".5" d="M453.32031 478.625l-6.14844 3.40625"/></g><g clip-path="url(#S)"><path fill="none" stroke="#000" stroke-linecap="round" stroke-linejoin="round" stroke-miterlimit="10" stroke-width=".5" d="M452.42578 479.1211l1.02735.66796"/></g><g clip-path="url(#T)"><path fill="none" stroke="#000" stroke-linecap="round" stroke-linejoin="round" stroke-miterlimit="10" stroke-width=".5" d="M467.07422 480.38672l-7.02735-.11719"/></g><g clip-path="url(#U)"><path fill="none" stroke="#000" stroke-linecap="round" stroke-linejoin="round" stroke-miterlimit="10" stroke-width=".5" d="M466.05078 480.3711l.5586 1.09374"/></g><g clip-path="url(#V)"><path fill="none" stroke="#000" stroke-linecap="round" stroke-linejoin="round" stroke-miterlimit="10" stroke-width=".5" d="M147.5039 466.77734l-7.0078.47266"/></g><path fill="none" stroke="#000" stroke-linecap="round" stroke-linejoin="round" stroke-miterlimit="10" stroke-width=".5" d="M147.5039 466.77734l1.29688 2.08594m12.02344-2.0586l-7.01563.41798m7.01563-.41797l1.27734 2.09375m12.01953-2.26563l-6.98437.76172m6.98437-.76172l1.38282 2.02735m11.90234-2.25782l-6.92188 1.22266m6.92188-1.22266l1.51172 1.9336m11.8086-1.88672l-6.9336 1.1289m6.9336-1.1289l1.48827 1.95312m11.76172-2.26562l-6.80469 1.7539m6.8047-1.7539l1.65624 1.8125m11.4375-2.42969l-6.35937 2.98828m6.35937-2.98828l1.96485 1.47266m11.20312-1.7539l-6.0664 3.55077m6.0664-3.55078l2.08984 1.28516m11.02344-1.59375l-5.66015 4.16797m5.66015-4.16797l2.21094 1.0625m11.05469-1.1211l-5.5664 4.28516m5.5664-4.28516l2.23828 1.01172m11.23437-.79297l-5.8789 3.84766m5.8789-3.84766l2.15235 1.1836m10.96484-1.45703l-5.48437 4.39453m5.48437-4.39453l2.2539.96875m10.69923-1.35547l-4.76172 5.16797m4.76172-5.16797l2.375.6211m10.55468-.9297l-3.98828 5.78516m3.41016-4.9414l1.21875.14062m12.22266-1.25l-3.08204 6.3164m2.63282-5.39843l1.22656-.04297m12.46875-.90625l-2.94531 6.3789m2.51562-5.45312l1.22656-.0664m12.20313-.98829l-2.3164 6.63672m1.98046-5.67187l1.21094-.1875m13.36328-.28907l-4.16406 5.66016m3.5586-4.83594l1.21484.17578m11.6875-1.51953l-2.125 6.69922m1.8164-5.72266l1.20703-.22265m11.8164-.88672l-.92577 6.96484m.79297-5.95312l1.14843-.42578m14.06641.17968l-4.46094 5.4336m4.46094-5.4336l2.40625.48829m11.21484-.20704l-5.0703 4.8711m5.0703-4.8711l2.32813.76563m11.42969-.1914l-5.95703 3.72265m5.95703-3.72266l2.125 1.22657m11.19922-1.21094l-5.97657 3.6914m5.10938-3.15625l1.0586.6211m12.1328-2.19922l-3.99609 5.77734"/><g clip-path="url(#W)"><path fill="none" stroke="#000" stroke-linecap="round" stroke-linejoin="round" stroke-miterlimit="10" stroke-width=".5" d="M147.5039 453.46094l-7.0078.47656"/></g><path fill="none" stroke="#000" stroke-linecap="round" stroke-linejoin="round" stroke-miterlimit="10" stroke-width=".5" d="M147.5039 453.46094l1.29688 2.08203m11.99219-2.33203l-6.95703.97265m5.94531-.82812l.72266.99219m13.63672-.52735l-7.02344-.24219m6.0039.20704l.53516 1.10156m13.75781-1.7461l-6.9375 1.1172m5.92969-.95313l.73828.97656m13.42188-1.77344l-6.60938 2.38281m5.64844-2.03906l.90625.82422m13.1914-1.58203l-6.2539 3.21094m5.34375-2.74219l1.0039.69922m13.22657-1.15235l-6.26563 3.1797m5.35547-2.71876l1.0039.70703m12.45704-2.17578l-4.73438 5.19531m4.04297-4.4375l1.1875.30079m12.51563-1.3047l-4.1289 5.6875m4.1289-5.6875l2.42969.33985m10.94921-.29297l-4.2578 5.59375m4.2578-5.59375l2.42188.39453m11.63672.37891l-5.7461 4.04688m4.91016-3.45704l1.09375.5547m12.94531-1.29688l-5.51953 4.35156m5.51953-4.35156l2.2461.98828m10.67578-1.41016l-4.73438 5.19531m4.73438-5.1953l2.375.60937m10.72265-.78907l-4.30078 5.5547m4.30078-5.5547l2.41797.41407m10.39453-.73828l-3.29687 6.20312m2.82031-5.30078h1.22656m11.82032-1.19531l-1.8086 6.78906m1.54688-5.80078l1.19531-.28125m12.98828-.48438l-3.01953 6.34375m3.01953-6.34375L361 450.41406m12.40234 1.53125l-6.08984 3.5039m6.08984-3.5039l2.07813 1.30469m11.66016-.09375l-6.94141 1.08594m6.9414-1.08594l1.47657 1.96094m11.64062-.13282l-6.54297-2.5703m5.58985 2.1953l.14062 1.21875m14.07813-.72656l-6.4414-2.8086m5.5039 2.40235l.09375 1.22266m13.3711.3164l-4.8672-5.0703m4.15625 4.33202l-.3828 1.16407m15.3164-4.05079l-6.6836 2.1797m5.71094-1.86329l.88281.85156m11.82032-3.12109l-3.51563 6.08594m3.0039-5.19922l1.22657.04297m13.28906-.40625l-4.89453 5.03906m4.1836-4.3086l1.17968.34376"/><g clip-path="url(#X)"><path fill="none" stroke="#000" stroke-linecap="round" stroke-linejoin="round" stroke-miterlimit="10" stroke-width=".5" d="M147.48047 440.85938l-6.96094-.95313"/></g><path fill="none" stroke="#000" stroke-linecap="round" stroke-linejoin="round" stroke-miterlimit="10" stroke-width=".5" d="M147.48047 440.85938l.84766 2.30468m12.46875-2.3164l-6.96485-.9297m5.95313.79688l.42578 1.14844m13.9336-1.4336l-7.02735-.08984m20.24219-.78125l-6.82813 1.64844m5.83594-1.41015l.8125.91796m12.24219-3.10156l-4.32422 5.53906m3.6953-4.73437L200 438.6328m12.72266-1.03125l-4.29297 5.5625m3.66797-4.7539l1.21093.20703m12.42188-1.22656l-3.67969 5.98828m3.14453-5.1172l1.22266.07423m11.05078-1.45703l-.52344 7.0078m.44531-5.98827l1.125-.49219m12.15625-.53125l-.30468 7.01953m.26172-6l1.10547-.52734M264 436.875l-.32813 7.01953M264 436.875l2.21875-1.05078m11.52344 1.09765l-1.1836 6.92579m1.01172-5.91797l1.16406-.38672m13.54688-.16797l-3.6289 6.01563m3.10156-5.14063l1.22265.0664m12.71094-.8828l-3.8125 5.90234m3.8125-5.90235l2.44531.20704m11.11328-.03516l-4.30078 5.55469m4.30078-5.5547l2.41797.41407m-3.04297.39453l1.20703.20703m12.84766-.92578l-4.52734 5.375m4.52734-5.375l2.39844.51563m-3.0586.26562l1.19922.25782m12.48438-1.25782l-3.94531 5.8125m3.9453-5.8125l2.4375.26172m10.34376-.5625l-2.8789 6.41406m2.8789-6.41406l2.44531-.16406m8.98047-.11328l.89844 6.96875m-.89844-6.96875l2.0039-1.41797m-1.87109 2.4336l1-.71094m9.77735 1.1328l5.70703 4.09766m-5.70703-4.09765l.32812-2.4336m16.07422 7.98829l-.46484-7.01172m.39843 5.99218l-1.04297.64454m16.75391-.72657l-5.1211-4.8125m4.375 4.11328l-.3203 1.1836m15.15624-1.79297l-6.67578-2.1914m6.67578 2.1914l.42188 2.41797m12.34766-1.3789l-5.58204-4.26954m4.76954 3.64844l-.19922 1.20703m14.34765-4.82813l-5.62109 4.21485m5.6211-4.21485l2.21874 1.03907m8.76563-2.41407l-.96485 6.96094m.82422-5.94922l1.15235-.42187"/><g clip-path="url(#Y)"><path fill="none" stroke="#000" stroke-linecap="round" stroke-linejoin="round" stroke-miterlimit="10" stroke-width=".5" d="M147.5 427.39453l-7-.65234"/></g><path fill="none" stroke="#000" stroke-linecap="round" stroke-linejoin="round" stroke-miterlimit="10" stroke-width=".5" d="M146.48047 427.30078l.47266 1.13281m13.85937-1.69921l-6.9961.67187m5.97657-.57422l.67969 1.02344m13.32812-2.30078l-6.33984 3.02734m5.41797-2.58594l.98437.73047m13.22656-1.22265l-6.28906 3.1328m5.375-2.67968l.9961.71485m12.89843-1.71485l-5.61719 4.22266m4.79688-3.60938l1.11328.51953m12.09375-1.98828l-3.76172 5.9336m3.76172-5.9336l2.44531.1875m10.47266-.40234l-2.97266 6.36719m2.54297-5.44141l1.22266-.0664m13.40234-.27735l-4.72656 5.19922m4.03906-4.4414l1.1875.30077m11.29688-1.86718l-1.6914 6.8203m1.6914-6.8203l2.3789-.59766m9.19532.60938l1.78906 6.79296m-1.53125-5.80468l.90234-.83203m13.14844-.27344l-.19922 7.02734m.17188-6.0039l1.09765-.54297m12.86719-.40625l-1.44531 6.8789m16.33984-6.09375l-4.60156 5.3086m3.9336-4.53516l1.1953.27344m12.44532-1.3086l-3.91797 5.83204m3.91797-5.83204l2.4414.25m11.0547-.12109l-4.27735 5.57422m4.27734-5.57422l2.41797.40234m-3.04297.41016l1.21094.19922m12.89844-.8711l-4.6211 5.29297m4.6211-5.29296l2.39062.55468m-3.0625.21485l1.19531.27734m13.14063-.69531l-5.3164 4.58984m5.3164-4.58984l2.28906.88672m8.46485-2.10547l-.19532 7.02734m.19532-7.02734l2.19921-1.08985m9.3672 1.50391l3.30468 6.19922m-3.30469-6.19922l1.3711-2.03516m16.9414 4.0586l-6.6914 2.15234m6.6914-2.15234l1.75781 1.70703m-2.73046-1.39453l1.7578 1.70703m12.32032-2.52344l-6.27344 3.16016m6.27344-3.16016l2.0039 1.41797m-2.91406-.95703l2.00391 1.41406m-2.91797-.95703l1 .71094m13.79297-2.1836l-5.58203 4.26954m5.58203-4.26954l2.23047 1.01954m-3.04297-.39844l2.23438 1.01953m11.71093-1.85938l-5.21875 4.70704m5.21875-4.70704l2.3086.83985m-3.06641-.15625l2.30469.83984m-3.0625-.15234l1.15234.41797m13.10938-2.29688l-4.07422 5.72266m4.07422-5.72266l2.43359.3164m-3.02734.51563l2.43359.3164m11.75781-.92577l-4.64062 5.27734"/><g clip-path="url(#Z)"><path fill="none" stroke="#000" stroke-linecap="round" stroke-linejoin="round" stroke-miterlimit="10" stroke-width=".5" d="M465.88281 424.42969l2.38672.5664"/></g><path fill="none" stroke="#000" stroke-linecap="round" stroke-linejoin="round" stroke-miterlimit="10" stroke-width=".5" d="M465.20703 425.19922l2.38672.5664m-3.0625.19922l1.19531.28516"/><g clip-path="url(#aa)"><path fill="none" stroke="#000" stroke-linecap="round" stroke-linejoin="round" stroke-miterlimit="10" stroke-width=".5" d="M147.51172 413.85547l-7.02344-.20313"/></g><path fill="none" stroke="#000" stroke-linecap="round" stroke-linejoin="round" stroke-miterlimit="10" stroke-width=".5" d="M146.48828 413.82422l.54688 1.10156m13.33984-2.90234l-6.11719 3.45703m5.22656-2.95313l1.03516.66016m12.95313-1.4961l-5.6875 4.125m4.86328-3.52734l1.10156.53907m13.07813-1.08204l-5.76563 4.01563m5.76563-4.01563l2.18359 1.1211m11.23437-.96875l-5.96875 3.70703m5.96875-3.70703l2.1211 1.23437m10.21094-2.26562l-4.00391 5.77344m4.0039-5.77344l2.4375.28906m7.65625-.69922l2.4336 6.59375m-2.07813-5.63281l.81641-.91797m15.7461.67188l-4.76954 5.16015m15.6289-6.08984l.14454 7.02344m-.125-6.00391l1.07031-.59766m14.8164.64063l-5.03905 4.89453m4.30468-4.17969l1.16797.375m8.22266-1.42969l4.27734 5.57813m-3.65625-4.76563l.51172-1.11718m17.24219 5.04687l-5.84375-3.90625m4.99219 3.33594l-.1211 1.22266m14.01172-4.91797l-5.28906 4.625m4.51953-3.95313l1.14844.4375m12.10937-1.80469l-3.63672 6.01172m3.63672-6.01172l2.45313.14063m12.16406 1.25l-6.23828 3.23437m5.32812-2.76562l1.01172.69922m13.44531-.60156l-6.70312 2.10156m6.70312-2.10156l1.7461 1.72265m11.16015-2.59375l-5.88671 3.84375m5.88671-3.84375l2.14844 1.1836m10.89844-1.53907l-5.35156 4.55469m5.35156-4.55469l2.28125.90625m-3.0586-.24218l2.28126.90234m11.94921-1.39453l-5.625 4.21094m5.625-4.21094l2.21875 1.04687m-3.03515-.4336l2.21875 1.04298m-3.03906-.42969l1.10937.51953m14.17969-1.19922l-6.30078 3.11719m6.30078-3.11719l1.99219 1.42969m-2.91016-.97656l1.99219 1.4336m11.46484-2.91798l-4.75 5.17969m4.75-5.17969l2.375.61719m-3.0664.13672l2.375.61719m12.29296-.55078l-6.0703 3.53906m6.0703-3.53906l2.08594 1.28906m-2.96875-.77344l1.04297.64453m13.11328-1.22656l-5.99219 3.67187m5.9922-3.67187l2.11718 1.2461m-2.98828-.71094l1.0586.62109m12.33593-2.0586l-4.40625 5.47657m4.40625-5.47656l2.41015.46093m-3.05078.33594l2.41016.46094m11.46484-1.32031l-4.24218 5.60156"/><g clip-path="url(#ab)"><path fill="none" stroke="#000" stroke-linecap="round" stroke-linejoin="round" stroke-miterlimit="10" stroke-width=".5" d="M465.6836 410.95313l2.42187.39062"/></g><path fill="none" stroke="#000" stroke-linecap="round" stroke-linejoin="round" stroke-miterlimit="10" stroke-width=".5" d="M465.0664 411.76563l2.42188.39062"/><g clip-path="url(#ac)"><path fill="none" stroke="#000" stroke-linecap="round" stroke-linejoin="round" stroke-miterlimit="10" stroke-width=".5" d="M147.21875 399.03125l-6.4375 2.8125"/></g><path fill="none" stroke="#000" stroke-linecap="round" stroke-linejoin="round" stroke-miterlimit="10" stroke-width=".5" d="M147.21875 399.03125l1.92578 1.52344m10.76563-2.48828l-5.1875 4.74218m5.1875-4.74218l2.30859.82421m10.27734-1.42968l-3.73047 5.95312m3.73047-5.95312l2.44532.17187m11.58203.42188l-5.15625 4.76953m4.40625-4.07813l1.16015.40625m13.77735.61329l-6.89844 1.34375m6.89844-1.34375l1.54297 1.90625m11.46484-2.80079l-6.28906 3.13672m5.375-2.67969l1 .71094m12.92578-1.66797l-5.67969 4.13282m5.67969-4.13282l2.20703 1.07422m10.23438-1.91797l-3.9336 5.82422m3.35938-4.97656l1.22265.1289m13.82031.32032l-6.24218 3.23047m6.24219-3.23047l2.01953 1.39453m11.30468-1.38281l-6.2578 3.20312m5.34765-2.73437l1.0039.69922m12.17188-2.39454l-4.16016 5.66016m4.16016-5.66015l2.42969.35546m11.26171-.03906l-4.91015 5.02735m4.19531-4.29688l1.17578.34375m10.8789-2.04297l-.96093 6.96094m.82031-5.94922l1.15235-.42188m14.73437.92579l-5.82422 3.93359m4.97657-3.36328l1.08203.57812m13.57812-.03515l-6.8164 1.70312m6.8164-1.70312l1.64063 1.82422m11.72265-.34375l-6.91406-1.25391m19.82422-1.11719l-6.10156 3.48438m19.47265-3.38281l-6.21484 3.28125m6.21484-3.28125l2.02735 1.3789m-2.9336-.90234l1.01563.6914m12.95703-1.5664l-5.71875 4.08203m5.71875-4.08203l2.19531 1.09375m-3.02734-.5l2.19531 1.09375m12.33984-.98828l-6.49609 2.67968m6.4961-2.67968l1.89062 1.5625m-2.83594-1.17188l1.89063 1.5625m11.98437-2.65234l-5.72265 4.07812m5.72265-4.07812l2.19531 1.09765m-3.02734-.5039l2.19531 1.09765m11.6797-2.02343l-5.1797 4.74609m5.1797-4.7461l2.3125.81641m-3.06642-.1289l2.3125.8203m12.1836-.93358l-6.03516 3.59375m6.03516-3.59375l2.09765 1.27343m-2.97656-.75l2.10156 1.27344m12.2422-1.51563l-6.33595 3.03516m6.33594-3.03515l1.97656 1.45312m-2.89843-1.01172l.98828.72656m13.02344-1.5703l-5.88672 3.83593"/><g clip-path="url(#ad)"><path fill="none" stroke="#000" stroke-linecap="round" stroke-linejoin="round" stroke-miterlimit="10" stroke-width=".5" d="M466.5039 398.51953l2.14844 1.1875"/></g><path fill="none" stroke="#000" stroke-linecap="round" stroke-linejoin="round" stroke-miterlimit="10" stroke-width=".5" d="M465.64844 399.07813l1.07422.59375"/><g clip-path="url(#ae)"><path fill="none" stroke="#000" stroke-linecap="round" stroke-linejoin="round" stroke-miterlimit="10" stroke-width=".5" d="M147.25 385.78906l-6.5 2.66797"/></g><path fill="none" stroke="#000" stroke-linecap="round" stroke-linejoin="round" stroke-miterlimit="10" stroke-width=".5" d="M146.30469 386.17578l.94531.78516m13.1836-1.45313l-6.23829 3.23047m6.23828-3.23047l2.01953 1.39063m10.8711-2.02735l-5.39063 4.50782m5.39063-4.50782l2.27344.92188m-3.0547-.26953l1.13673.46484m11.57812-2.125l-2.625 6.51953m2.625-6.51953l2.4375-.25781m8.20703.27734l2.71875 6.48047m-2.71875-6.48047l1.55078-1.89844m16.4961 6.1211l-6.7461-1.96485m6.7461 1.96485l.5 2.40234m12.95312-3.29297l-7.02343-.18359m6 .15625l.55078 1.09766m12.7539-3.65235l-4.95312 4.98438m4.95312-4.98438l2.34766.70703m11.40234-.18359l-5.82422 3.9336m5.82422-3.9336l2.16797 1.15234m-3.01562-.57812l1.08203.57422m13.08594-1.13672l-5.83594 3.91015m5.83594-3.91015l2.16406 1.16015m11.35156-.82421l-6.23828 3.23828m6.23828-3.23828l2.01953 1.39062m11.38672-1.19922l-6.41797 2.85938m5.48438-2.44531l.96484.7539m11.91406-2.73437l-3.67968 5.98828M305.08594 385l1.22265.07813m13.60157-.0586l-5.62891 4.20703m5.6289-4.20703l2.21876 1.04297m11.5625-.19922l-6.5586 2.51953m6.5586-2.51953l1.85156 1.60938m9.55469-3.58594l-2.7422 6.47265m2.34376-5.53125l1.21875-.10546m14.63281 2.22656l-7.01953.34765m7.01953-.34765l1.25781 2.10547M359.52734 387l.62891 1.05469m13.49219-2.15235l-6.58594 2.44532m6.58594-2.44532l1.83594 1.62891m-2.79297-1.27344l.91797.8125m13.23828-1.45312l-6.35157 3.01172m6.35157-3.01172l1.96875 1.46484m-2.89453-1.02734l1.96875 1.46484m12.08203-2.25L394 388.97656m5.97266-3.70703l2.12109 1.23438m-2.99219-.69532l2.1211 1.23438m11.85156-2.07813l-5.54688 4.31641m5.54688-4.3164l2.23828 1.0039m-3.04297-.375l1.11719.5m12.48828-1.66016l-4.51953 5.37891m4.51953-5.3789l2.40234.51171m-3.05859.26953l1.19922.25782m12.69922-1.09766l-4.3711 5.5m4.3711-5.5l2.41406.44531m-3.05078.35156l2.41406.44922m-3.04687.35157l1.20312.22265m14.4414-.42187l-6.48827 2.69922m6.48828-2.69922l1.89453 1.5586m-2.83984-1.16798l.94921.78125m12.64454-2.20703l-5.15625 4.77344"/><g clip-path="url(#af)"><path fill="none" stroke="#000" stroke-linecap="round" stroke-linejoin="round" stroke-miterlimit="10" stroke-width=".5" d="M466.14063 384.73828l2.3164.80469"/></g><path fill="none" stroke="#000" stroke-linecap="round" stroke-linejoin="round" stroke-miterlimit="10" stroke-width=".5" d="M465.39063 385.42969l1.15625.40625"/><g clip-path="url(#ag)"><path fill="none" stroke="#000" stroke-linecap="round" stroke-linejoin="round" stroke-miterlimit="10" stroke-width=".5" d="M141.71484 371.13672l4.57032 5.33984"/></g><path fill="none" stroke="#000" stroke-linecap="round" stroke-linejoin="round" stroke-miterlimit="10" stroke-width=".5" d="M160.6211 372.6211l-6.61329 2.375m5.65235-2.02735l.90625.82422m13.125-1.71094l-6.1211 3.45313m6.1211-3.45313l2.0664 1.32031m9.86328-2.68359l-3.35156 6.17969m2.86328-5.28125l1.22656.01172m13.29688-.39063l-4.79297 5.14063m4.79297-5.14063l2.3711.63672m11.76171.50781l-6.42578 2.84766m6.42578-2.84766l1.92969 1.51563m10.76172-2.46485l-5.17969 4.7461m5.17969-4.7461l2.3125.82032m11.7461.44921l-6.66798 2.21094m6.66797-2.21094l1.77735 1.69141m-2.7461-1.3711l.88672.84766m13.22656-1.58984l-6.32812 3.05469m5.41016-2.60938l.98828.72266m12.35156-2.32031l-4.53906 5.35937m4.53906-5.35937l2.39844.51953m-3.0586.25781l1.19922.26172m12.8086-1.01172l-4.60547 5.30469m4.60546-5.30469l2.39063.55078m11.53125.1289l-5.8164 3.94532m5.8164-3.94531l2.16797 1.14844m11.13281-1.16797l-5.78906 3.98046m4.94531-3.39843l1.08984.5664m13.10547-1.09375l-5.86328 3.875m5.86328-3.875l2.15625 1.17188m10.19141-2.14844l-3.92578 5.82813m3.92578-5.82813l2.4414.2539m11.75391.59766l-5.6914 4.1211m5.6914-4.1211l2.20703 1.08204m-3.03515-.48047l1.10156.53906m13.67578.42969l-6.95703.98437m6.95703-.98437l1.44531 1.98046m-2.45703-1.83984l.72266.99219m13.60547-1.13672l-6.95703.99219m6.95703-.99219l1.44531 1.98047m-2.45703-1.83594l.72265.98828m13.4922-1.63672l-6.73829 1.9961m6.73828-1.9961l1.72266 1.75m-2.70313-1.45703l.85938.875m13.51953-.82422l-6.90234 1.3086m6.90234-1.3086l1.53516 1.91407m-2.53907-1.72266l.76953.95703m13.22657-2.08984l-6.25782 3.19531m6.25782-3.19531l2.01172 1.40625m-2.92188-.9414l1.00781.70312m12.52735-2.09766l-4.8789 5.05469m4.8789-5.05469l2.35937.67188m10.42969-1.09375l-3.82422 5.89843m3.82422-5.89844l2.44531.21485m-3 .64453l1.21875.10547m12.61328-.98828l-3.75 5.94531m3.75-5.94531l2.44922.1836M464.7422 370.5l-2.36328 6.61719m2.36328-6.61719l2.42968-.35547"/><g clip-path="url(#ah)"><path fill="none" stroke="#000" stroke-linecap="round" stroke-linejoin="round" stroke-miterlimit="10" stroke-width=".5" d="M140.51953 360l6.96094.98438"/></g><path fill="none" stroke="#000" stroke-linecap="round" stroke-linejoin="round" stroke-miterlimit="10" stroke-width=".5" d="M153.80469 360.66016l7.01953-.33594m13.28906.61719l-6.96875-.89844m5.95703.76953l.4336 1.14844m13.22656-3.5664l-5.63281 4.19921m4.8125-3.58984l1.10937.52343m13.32031-.67187l-6.21875 3.27344m5.3125-2.79688l1.01563.6914m13.57812.01173l-6.96484.91796m5.95313-.78515l.71093 1m13.64453-.76953l-7.02343.1875m6-.16016l.60547 1.0664m13.66015-1.72656l-6.875 1.45313m5.875-1.24219l.78516.9414m13.28515-1.88671l-6.38672 2.92578m5.45704-2.5l.97656.74219m12.58984-2.16016l-5.03125 4.91016m18.40235-4.85156l-5.14453 4.78906m18.90625-4.1914l-6.03516 3.59765m5.15625-3.07422l1.05078.63281m13.05078-1.30078l-5.85156 3.88672m5-3.32422l1.07812.58594m11.97657-2.21485l-3.62891 6.01954m3.10156-5.14454l1.22266.06641m13.99219.58985l-6.375 2.95312m5.44921-2.52344l.97657.74219m12.70703-2.02344l-5.26172 4.65625m4.4961-3.97656l1.15234.42578m13.73828.50781l-6.8789 1.4336m5.8789-1.22656l.78515.9414m13.59375-.14062l-7.0039-.58204m5.98437.4961l.48438 1.1289m13.72656-2.29687l-6.75781 1.92188m5.77344-1.64063l.85156.88281m12.98828-2.15625l-5.83984 3.91016m5.83984-3.91016l2.16406 1.16016m10.57813-1.82031l-4.69532 5.22656m4.69532-5.22656l2.38281.59375m10.30078-1.04688l-3.42969 6.13281m3.4297-6.1328l2.45312.05468m10.26953-.3164l-2.2461 6.65624m2.2461-6.65625l2.42187-.39844m10.41406.27344l-1.28515 6.91016m1.28515-6.91016l2.33985-.73828m12.24219 1.24219l-3.82032 5.89844m3.26563-5.03907l1.21875.10547"/><g clip-path="url(#ai)"><path fill="none" stroke="#000" stroke-linecap="round" stroke-linejoin="round" stroke-miterlimit="10" stroke-width=".5" d="M141.5664 344.64453l4.8672 5.0664"/></g><path fill="none" stroke="#000" stroke-linecap="round" stroke-linejoin="round" stroke-miterlimit="10" stroke-width=".5" d="M154.10156 345.75781l6.42578 2.83985M170.75 350.6914l-.23828-7.02344m.20312 6l-1.0625.61328m13.85547.38281l.875-6.97265m10.17578 5.73437l5.40235-4.4961m7.66797 4.16407l5.89062-3.83203m-5.03125 3.27344l-1.07422-.59375m18.64844 1.99609l-4.34375-5.51953m18.94531 2.13672l-6.91797 1.2461m5.91016-1.06642l.76172.96485m12.9375-2.59375l-5.67188 4.14453m15.79297-5.5664l.71485 6.98827m9.47265-3.05468l6.97266-.8789m6.48437 1.51952l6.6875-2.16015m-5.71484 1.84765l-.8789-.85547m18.14453 3.22657l-3.15625-6.27735m13.3203 6.28125l3.14454-6.28515m10.21094-.01954l3.0625 6.32422m10.59765-6.46875l2.375 6.61329m-2.03125-5.65235l.82813-.90625m12.45703 6.65625l1.75-6.8086m-1.4961 5.81641l-1.1953.28907m12.90624.01953l4.44532-5.4414m14.59765 2.95312l-7.01172-.46094m5.99219.39062l.5039 1.1211m13.57032-2.63672l-6.48828 2.70703m5.54297-2.3125l.94922.77734m12.26953-2.55468l-4.40625 5.47265m3.76562-4.67578l1.20313.23047m12.64062-1.11719l-4.17969 5.65235m4.1797-5.65235l2.42577.36328m10.27735-.72656l-2.95703 6.3789m2.95703-6.3789l2.44922-.13281m10.68359.0586l-2.59375 6.53124m2.59375-6.53125l2.4375-.27344m12.46484 1.52735l-5.76562 4.01953m4.92578-3.4336l1.09375.5586"/><g clip-path="url(#aj)"><path fill="none" stroke="#000" stroke-linecap="round" stroke-linejoin="round" stroke-miterlimit="10" stroke-width=".5" d="M143.98438 330.34766l.03125 7.02734"/></g><g clip-path="url(#ak)"><path fill="none" stroke="#000" stroke-linecap="round" stroke-linejoin="round" stroke-miterlimit="10" stroke-width=".5" d="M143.98828 331.3711l1.08203-.57813"/></g><path fill="none" stroke="#000" stroke-linecap="round" stroke-linejoin="round" stroke-miterlimit="10" stroke-width=".5" d="M159.95703 331.54297l-5.28125 4.63672m4.51172-3.96094l1.14844.4336m13.1211 3.29687l-5.65626-4.17188m4.83594 3.5625l-.17969 1.21485m12.03516.77734l-1.09375-6.9414m.9336 5.93359l-.98048.73828m16.67969-1.03906l-5.54297-4.32031m18.99219 4.1328l-5.8125-3.9453m4.96875 3.37109l-.13281 1.21875m13.99218-.26172l-5.21484-4.71094m4.45703 4.02344l-.29687 1.1914m15.01953-1.53515l-6.50781-2.65234m19.26171-.92579l-5.39062 4.50782m4.60937-3.85156l1.13672.46093m11.57813-2.1211l-2.625 6.51563m2.24219-5.5703l1.22265-.12892m10.9961-1.0664l.33593 7.01562m-.28906-5.99609l1.05469-.6289m9.53125 1.05859l5.69531 4.11719m-4.86719-3.51954l.17188-1.21484m12.07031 4.33984l6.1875-3.32812m-5.28906 2.84375l-1.01953-.67969m17.89843 2.73438l-2.73828-6.47266m2.33985 5.53125l-.77344.95313m10.49219-.91407l5.2539-4.66406m-5.2539 4.66406l-2.30079-.85547M342 336.92578l3.44922-6.125m-2.94531 5.23438l-1.22657-.03125m16.09375 1.35546l-.66015-6.99609m.5625 5.98047l-1.02344.67578m12.08203-.28515l4.04688-5.7461m-3.45704 4.91016l-1.21875-.15235m15.89454 1.62891l.14843-7.02344m-.1289 6.0039l-1.09375.55079m17.33984-1.02344l-5.7539-4.03906m4.91406 3.44922l-.14844 1.21875m14.6914-3.94922l-6.52734 2.60156m5.57422-2.22265l.9375.78906m12.92578-1.91016l-5.71875 4.08594m5.71875-4.08594l2.19531 1.09375m9.81641-2.19922l-3.11328 6.29688m3.11328-6.29688l2.45313-.07421m-2.90625.98828l1.22656-.03516m13.34765-.33203l-4.72265 5.20312m4.72265-5.20312l2.375.60156m11.79688.59375l-6.4414 2.8125"/><g clip-path="url(#al)"><path fill="none" stroke="#000" stroke-linecap="round" stroke-linejoin="round" stroke-miterlimit="10" stroke-width=".5" d="M466.78125 332.45703l1.92188 1.52344"/></g><g clip-path="url(#am)"><path fill="none" stroke="#000" stroke-linecap="round" stroke-linejoin="round" stroke-miterlimit="10" stroke-width=".5" d="M144.76563 317.11719l-1.53125 6.85937"/></g><path fill="none" stroke="#000" stroke-linecap="round" stroke-linejoin="round" stroke-miterlimit="10" stroke-width=".5" d="M144.54297 318.11719l1.17969-.32813m15.05859 2.17969l-6.9336 1.15625m5.92579-.98828l.7461.97265m13.60937-.90234l-6.9961.67969m5.97656-.57813l.6797 1.01954m13.66796-.65625l-7.02344-.25m6 .21484l.53907 1.10156m13.54687.1211L194 319.23438m5.57031 2.24609l.1289 1.21875m14.36329-1.71485l-6.97266-.87109m5.95703.74219l.4375 1.14844m13.7461-2.54688l-6.67969 2.1836m6.67969-2.1836L229 321.15625m11.33984-2.19922l-6.26953 3.17969m6.26953-3.17969l2.00782 1.41406m10.57422-2.39062l-4.80079 5.13281m4.80078-5.13281l2.3672.64062m10.34765-1.08984l-3.60156 6.03516m3.60156-6.03516l2.44922.11719m10.26562-.40235l-2.40234 6.60547m2.40234-6.60547l2.42969-.34375m10.39844.20704l-1.42578 6.8789m1.42578-6.8789l2.35547-.69141m10.0703.6211l.35157 7.01952m-.30078-6l1.05078-.6289m9.33203 1.38281l6.11328 3.46875m7.08203-3.23047l6.35547 2.9961m-5.43359-2.5625l-.0586-1.22266m12.6797 4.19922l5.89452-3.82422m-5.89453 3.82422l-2.14453-1.1914m15.98047 1.8164l4.85547-5.07813m-4.85547 5.07813l-2.36328-.66406m14.73828-.87891l6.73828-1.98828m-5.75781 1.69922l-.85938-.875m15.14844 3.38671l2.82422-6.43359m-2.82422 6.4336l-2.44531.18359m2.85547-1.1211l-1.22266.09375m15.10156 1.11329l.87891-6.97266m-.8789 6.97266l-2.29297.87109m17.60156-1.20703l-3.10547-6.30469m2.65234 5.38672l-.71875.9961m16.3711-3.95313l-6.875 1.44531m5.875-1.23437l.78515.9414m11.97266-3.39844l-3.76172 5.9375m3.76172-5.9375l2.44531.1875m11.96485.91407l-5.95313 3.73437m5.95313-3.73437l2.1289 1.22656m11.53516-.5l-6.64844 2.28125"/><g clip-path="url(#an)"><path fill="none" stroke="#000" stroke-linecap="round" stroke-linejoin="round" stroke-miterlimit="10" stroke-width=".5" d="M466.88672 319.40625l1.79297 1.67578"/></g><path fill="none" stroke="#000" stroke-linecap="round" stroke-linejoin="round" stroke-miterlimit="10" stroke-width=".5" d="M465.91797 319.73828l.89453.83985"/><path fill="#00f" fill-rule="evenodd" d="M383.80078 436.57813h8.61719v-10.14454h-8.61719v10.14454"/><path fill="azure" fill-rule="evenodd" d="M385.63281 428.26563h.83203v2.82421h3.28907v-2.82421h.83203v6.48046h-.83203v-2.91406h-3.28907v2.91406h-.83203v-6.48046"/><path fill="#ff3030" fill-rule="evenodd" d="M375.61719 418.82813h7.69531v-10.14844h-7.69531v10.14844"/><path fill="azure" fill-rule="evenodd" d="M377.44922 410.51172h.83594v5.74219h3.1914v.73828h-4.02734v-6.48047"/><path fill="#ff3030" fill-rule="evenodd" d="M295.72656 409.94922h7.69531v-10.14453h-7.6953v10.14453"/><path fill="azure" fill-rule="evenodd" d="M297.5586 401.63672h.83593v5.73828h3.1914v.74219h-4.02734v-6.48047"/><path fill="#00f" fill-rule="evenodd" d="M370.48438 396.63281h8.62109v-10.14453h-8.6211v10.14453"/><path fill="azure" fill-rule="evenodd" d="M372.3164 388.32031h.83594v2.82422h3.28516v-2.82422h.83203v6.48047h-.83203v-2.91406h-3.28516v2.91406h-.83593v-6.48047"/><path fill="#ff3030" fill-rule="evenodd" d="M189.20703 378.88281h7.6914v-10.14844h-7.6914v10.14844"/><path fill="azure" fill-rule="evenodd" d="M191.03906 370.5664h.83594v5.7422h3.1914v.73827h-4.02734v-6.48046"/><path fill="#ffffe0" fill-rule="evenodd" d="M328.42969 354.63281h22.17969V344.4375h-22.1797v10.19531"/><path fill-rule="evenodd" d="M331.92969 346.27344h.50781v6.29297h-.78516v-4.48829h-1.39062v-.55468l.5586-.0664.2539-.0547.23047-.08984.20312-.14063.17188-.21093.14453-.29297.10547-.39453m4.8125 0l.23047.01953.21875.05469.20703.08984.19531.1211.1836.14843.17187.17578.30469.41797.24218.4961.1797.54687.10937.57813.03906.58984-.03906.59375-.10938.58594-.17969.55078-.24218.5039-.3047.42579-.17187.17968-.18359.15625-.19531.1211-.20703.09375-.21875.05468-.23047.01954-.23047-.01954-.21875-.05468-.20703-.09375-.19531-.1211-.1836-.15625-.17187-.17969-.3047-.42578-.24218-.5039-.17969-.55078-.10937-.58594-.03906-.59375h.83203l.02734.5625.08203.50781.1289.4414.16017.375.1914.30079.21094.22265.22265.13672.22657.04688.22656-.04688.22266-.13671.21093-.22266.19141-.30078.16016-.375.1289-.4414.07813-.50782.03125-.5625-.03125-.5625-.07813-.5-.1289-.4336-.16016-.36718-.1914-.29297-.21094-.21094-.22266-.13281-.22656-.04688-.22656.04688-.22266.13281-.21094.21094-.1914.29297-.16016.36719-.1289.43359-.08204.5-.02734.5625h-.83203l.03906-.58985.10937-.57812.1797-.54688.24218-.49609.30469-.41797.17187-.17578.1836-.14844.1953-.12109.20704-.08984.21875-.0547.23047-.01952m5.08984 0h.51172v6.29297h-.78906v-4.48829h-1.38672v-.55468l.5586-.0664.2539-.0547.22656-.08984.20313-.14063.17578-.21093.14062-.29297.10547-.39453m2.82422 2.17578h.78906l.01953-.3164.0586-.28907.09765-.25.14063-.21484.17969-.17579.22656-.1289.26172-.08203.3086-.02735.23827.02344.22266.0625.20703.10156.17969.13672.14844.17578.11328.20313.0703.23828.02345.26563-.01954.26562-.0664.22656-.10938.1914-.15625.17188-.19921.16016-.25.16797-.63282.38672-.53515.3164-.4375.31641-.34766.32422-.26563.33594-.1875.35156-.125.36719-.0703.39453-.01954.41797h4.21094v-.73829h-3.33203l.08203-.28515.11328-.23828.14844-.19922.1875-.17969.23047-.17187.27734-.17579.71875-.41796.41406-.20704.34766-.23046.28125-.25.21875-.26563.16406-.28125.10938-.28125.0664-.28515.01953-.28125-.04296-.38282-.1211-.34765-.1875-.3086-.25-.26172-.30469-.21484-.34375-.15625-.3828-.10156-.40626-.03125-.4336.03125-.39843.09765-.35547.16797-.30469.23438-.24609.30469-.1875.375-.11719.4453-.03906.51954"/><path fill="#ffffe0" fill-rule="evenodd" d="M204.15625 383.95313h22.17969v-10.19141h-22.17969v10.1914"/><path fill-rule="evenodd" d="M207.65234 375.59375h.51172v6.29297h-.78906v-4.48828h-1.38672v-.55469l.5586-.0664.2539-.0547.23047-.08984.20313-.14062.17187-.21094.14063-.29297.10546-.39453m4.81641 0l.23047.01953.21875.05469.20703.08984.19531.1211.1836.14843.17187.17579.30078.41796.2461.4961.17968.54687.10938.57813.03906.58984-.03906.59375-.10938.58594-.17968.55078-.2461.5039-.30078.4297-.17187.17968-.1836.15235-.19531.12109-.20703.09375-.21875.05469-.23047.01953-.23047-.01953-.21875-.0547-.20703-.09374-.19531-.1211-.1875-.15234-.16797-.17969-.30469-.42968-.24219-.50391-.17968-.55078-.11328-.58594-.03516-.59375h.83203l.02734.5625.08203.50781.125.44141.16407.375.1914.30078.21094.22266.22266.13672.22656.04687.22656-.04687.22266-.13672.21094-.22266.1914-.30078.16016-.375.125-.4414.08203-.50782.03125-.5625-.03125-.5586-.08203-.5039-.125-.4336-.16016-.36718-.1914-.29297-.21094-.21094-.22266-.1328-.22656-.04688-.22656.04687-.22266.13281-.21094.21094-.1914.29297-.16406.36719-.125.4336-.08204.5039-.02734.5586h-.83203l.03516-.58985.11328-.57813.17968-.54687.2422-.4961.30468-.41796.16797-.17579.1875-.14843.19531-.1211.20703-.08984.21875-.05469.23047-.01953m5.08984 0h.51172v6.29297h-.78906v-4.48828h-1.38672v-.55469l.5586-.0664.2539-.0547.22656-.08984.20313-.14062.17578-.21094.14063-.29297.10546-.39453m2.82422 2.17578h.78516l.01953-.3164.0625-.28907.09766-.25.14062-.21484.17969-.17578.22266-.1289.26562-.07813.3086-.03125.23827.02343.22266.0625.20703.10157.17578.13671.15235.17579.10937.20312.07422.23828.02344.26563-.01953.26562-.0664.22656-.10938.19141-.15625.17188-.19922.16015-.25.16797-.63281.38672-.53907.3164-.4375.31641-.34375.32422-.26562.33594-.1914.35156-.125.36719-.06642.39453-.02343.41797h4.21484v-.73828H221.125l.08203-.28516.11328-.23828.14844-.19922.1875-.17969.23047-.17187.27734-.17578.71875-.41797.41406-.20313.34766-.23437.27734-.25.22266-.26563.16406-.27734.10938-.28516.0625-.28515.02344-.28125-.04297-.38281-.1211-.34766-.1875-.3086-.25-.26171-.30468-.21485-.34375-.15625-.38282-.10156-.40625-.03125-.43359.03125-.39844.09766-.35547.16796-.30468.23438-.25.30469-.1836.375-.11719.44531-.03906.51953"/><path fill="#ffffe0" fill-rule="evenodd" d="M244.10156 436.48828h22.17969v-10.1914h-22.17969v10.1914"/><path fill-rule="evenodd" d="M247.59766 428.1289h.51172v6.29688h-.78907v-4.49219h-1.38672v-.55468l.5586-.06641.2539-.05078.23047-.08985.20313-.14062.17187-.21094.14063-.29687.10547-.39453m4.8164 0l.22656.01953.22266.05469.20703.08984.19531.1211.1836.14843.17187.17578.30078.42188.2461.49218.17969.54688.10937.57812.03906.59375-.03906.58985-.10937.58594-.1797.55468-.24608.5-.30079.42969-.17187.17969-.1836.15234-.1953.125-.20704.08985-.22266.05859-.22656.01953-.23047-.01953-.21875-.0586-.20703-.08984-.19922-.125-.18359-.15234-.17188-.17969-.30078-.42969-.24218-.5-.1797-.55469-.11327-.58593-.03516-.58985h.83203l.02735.5625.08203.50391.125.44531.16406.3711.1914.30078.21094.22265.22266.13672.22656.04688.22656-.04688.22266-.13672.21094-.22265.1914-.30078.16016-.3711.125-.44531.08203-.5039.03125-.5625-.03125-.5625-.08203-.5-.125-.4375-.16016-.36329-.1914-.29297-.21094-.21484-.22266-.13281-.22656-.04297-.22656.04297-.22266.13281-.21093.21484-.19141.29297-.16406.36328-.125.4375-.08203.5-.02735.5625h-.83203l.03516-.59375.11328-.57812.17969-.54688.24218-.49218.30078-.42188.17188-.17578.1836-.14844.19921-.1211.20703-.08983.21875-.0547.23047-.01952m5.08985 0h.51171v6.29687h-.78906v-4.49219h-1.38672v-.55468l.5586-.06641.25-.05078.23047-.08985.20312-.14062.17578-.21094.14063-.29687.10547-.39453m2.82421 2.17578h.78516l.01953-.3164.0625-.28517.09766-.2539.14062-.21485.1797-.17187.22265-.1289.26562-.08204.3086-.02734.23828.01953.22265.0625.20704.10156.17578.14063.15234.17187.10938.20703.07421.23438.02344.26562-.01953.26954-.0664.22265-.10938.1914-.15625.17188-.19922.16406-.25.16407-.63281.39062-.53906.3125-.4375.3164-.34375.32423-.26563.33594-.1914.35156-.125.3711-.06641.39062-.02344.42187h4.21484v-.74219h-3.33203l.08203-.28515.11329-.23438.14843-.20312.1875-.17969.23047-.17188.27735-.17578.71875-.41406.41406-.20703.34765-.23047.27735-.25.22265-.26953.16407-.27734.10937-.28516.0625-.28516.02344-.28125-.04297-.3828-.1211-.34767-.1875-.30859-.25-.26172-.30468-.21094-.34375-.16015-.38281-.09766-.40625-.03515-.4336.03515-.39844.09766-.35546.16406-.3047.23438-.25.30468-.18358.375-.1172.44532-.03906.51953"/><path fill="#ffffe0" fill-rule="evenodd" d="M221.91016 345.32813h22.17968v-10.19141h-22.17968v10.1914"/><path fill-rule="evenodd" d="M225.40625 336.96875h.51172v6.29688h-.78906v-4.4922h-1.38672v-.55468l.5586-.0664.2539-.05079.22656-.08984.20313-.14063.17578-.21093.14062-.29688.10547-.39453m4.8164 0l.22657.01953.21875.05469.21094.08984.1953.1211.1836.14843.17188.17579.30078.42187.2461.49219.17968.54687.10938.57813.03906.59375-.03906.58984-.10938.58594-.17969.55469-.2461.5-.30077.42968-.17188.1797-.1836.15233-.1953.125-.21094.08985-.21875.0586-.22656.01952-.23047-.01953-.21875-.0586-.20703-.08983-.19922-.125-.1836-.15235-.17187-.17969-.30078-.42968-.24219-.5-.17969-.5547-.11328-.58593-.03906-.58984h.83594l.02734.5625.08203.5039.125.44532.16406.375.19141.29687.21094.22266.22265.13672.22657.04687.22656-.04687.22266-.13672.21093-.22266.1875-.29687.16406-.375.125-.44532.08204-.5039.03125-.5625-.03125-.5625-.08203-.5-.125-.4375-.16407-.36328-.1875-.29297-.21094-.21485-.22265-.1328-.22656-.04298-.22657.04297-.22265.13281-.21094.21485-.1914.29297-.16407.36328-.125.4375-.08203.5-.02734.5625h-.83594l.03906-.59375.11328-.57813.17969-.54687.24219-.49219.30078-.42188.17187-.17578.1836-.14843.19922-.1211.20703-.08984.21875-.05469.23047-.01953m5.08984 0h.50781v6.29688h-.78515v-4.4922h-1.38672v-.55468l.5586-.0664.25-.05079.23046-.08984.20313-.14063.17578-.21093.14062-.29688.10547-.39453m6.80469 1.6211h-.78906l-.05079-.21094-.08203-.1875-.10547-.16016-.1289-.1289-.14844-.10548-.16016-.07421-.16797-.04297-.17187-.01563-.32813.03906-.28906.1211-.2461.19531-.20312.26953-.16015.33594-.11328.40625-.07032.46484-.02734.52735.1914-.20313.1875-.16015.1836-.1211.1875-.08594.1875-.0625.1914-.03515.39844-.02344.3086.02735.32031.09375.3164.15625.29298.21875.2578.28515.19923.34766.0703.20312.0547.21485.02734.23437.0039.2539-.78515.04688-.02734-.26172-.07813-.25-.1211-.23437-.16015-.21094-.19531-.17578-.21875-.13672-.23828-.08984-.25781-.03125-.25391.03125-.24219.08984-.21875.13672-.1914.17578-.16016.21094-.125.23437-.07813.25-.02734.26172.02734.25781.07813.25.125.23438.16016.21094.1914.17969.21875.13671.24219.08594.2539.03125.25782-.03125.23828-.08594.21875-.13671.19531-.1797.16016-.21093.1211-.23438.07812-.25.02734-.2578.78516-.04688-.02735.3711-.09375.37108-.15625.35938-.22265.32813-.29297.28125-.16797.12109-.1875.10156-.20703.08203-.22266.0625-.24219.03906-.26172.01172-.28125-.01562-.26171-.04688-.23828-.07812-.21485-.10547-.19531-.1289-.17188-.15626-.15625-.17968-.1328-.20313-.1172-.22265-.10156-.2422-.14453-.53515-.08594-.59375-.02734-.64062.03906-.7422.11328-.66405.1875-.57813.1211-.2539.13672-.23047.15234-.20704.17187-.18359.1836-.15625.20312-.1289.21875-.10157.23047-.07422.25-.04296.26172-.01563.36719.03516.33203.09375.29297.15234.25781.19922.21094.24219.16406.27343.11719.30079.0625.32421"/></g></defs><use xlink:href="#ao"/></svg>