<svg xmlns="http://www.w3.org/2000/svg" role="img" xmlns:xlink="http://www.w3.org/1999/xlink" viewBox="142.45 309.95 326.84 171.84"><defs><clipPath id="a"><path d="M144 311.67188h1v168.65625h-1zm0 0"/></clipPath><clipPath id="b"><path d="M144 311.67188h324v168.65625H144zm0 0"/></clipPath><clipPath id="c"><path d="M426 479h6v1.32813h-6zm0 0"/></clipPath><clipPath id="d"><path d="M467 311.67188h1v168.65625h-1zm0 0"/></clipPath><clipPath id="e"><path d="M144 479h4v1.32813h-4zm0 0"/></clipPath><clipPath id="f"><path d="M147 479h3v1.32813h-3zm0 0"/></clipPath><clipPath id="g"><path d="M153 479h9v1.32813h-9zm0 0"/></clipPath><clipPath id="h"><path d="M160 479h3v1.32813h-3zm0 0"/></clipPath><clipPath id="i"><path d="M159 479h2v1.32813h-2zm0 0"/></clipPath><clipPath id="j"><path d="M166 479h9v1.32813h-9zm0 0"/></clipPath><clipPath id="k"><path d="M173 479h3v1.32813h-3zm0 0"/></clipPath><clipPath id="l"><path d="M180 479h8v1.32813h-8zm0 0"/></clipPath><clipPath id="m"><path d="M187 479h3v1.32813h-3zm0 0"/></clipPath><clipPath id="n"><path d="M193 479h8v1.32813h-8zm0 0"/></clipPath><clipPath id="o"><path d="M200 479h3v1.32813h-3zm0 0"/></clipPath><clipPath id="p"><path d="M206 479h9v1.32813h-9zm0 0"/></clipPath><clipPath id="q"><path d="M213 479h3v1.32813h-3zm0 0"/></clipPath><clipPath id="r"><path d="M220 478h8v2.32813h-8zm0 0"/></clipPath><clipPath id="s"><path d="M226 478h4v2.32813h-4zm0 0"/></clipPath><clipPath id="t"><path d="M233 478h8v2.32813h-8zm0 0"/></clipPath><clipPath id="u"><path d="M240 478h3v2.32813h-3zm0 0"/></clipPath><clipPath id="v"><path d="M247 478h7v2.32813h-7zm0 0"/></clipPath><clipPath id="w"><path d="M253 478h3v2.32813h-3zm0 0"/></clipPath><clipPath id="x"><path d="M260 478h8v2.32813h-8zm0 0"/></clipPath><clipPath id="y"><path d="M265 479h3v1.32813h-3zm0 0"/></clipPath><clipPath id="z"><path d="M273 478h8v2.32813h-8zm0 0"/></clipPath><clipPath id="A"><path d="M279 479h2v1.32813h-2zm0 0"/></clipPath><clipPath id="B"><path d="M286 479h9v1.32813h-9zm0 0"/></clipPath><clipPath id="C"><path d="M292 479h2v1.32813h-2zm0 0"/></clipPath><clipPath id="D"><path d="M300 478h8v2.32813h-8zm0 0"/></clipPath><clipPath id="E"><path d="M305 479h3v1.32813h-3zm0 0"/></clipPath><clipPath id="F"><path d="M313 478h8v2.32813h-8zm0 0"/></clipPath><clipPath id="G"><path d="M319 478h2v2.32813h-2zm0 0"/></clipPath><clipPath id="H"><path d="M327 478h7v2.32813h-7zm0 0"/></clipPath><clipPath id="I"><path d="M340 477h7v3.32813h-7zm0 0"/></clipPath><clipPath id="J"><path d="M354 477h6v3.32813h-6zm0 0"/></clipPath><clipPath id="K"><path d="M367 477h7v3.32813h-7zm0 0"/></clipPath><clipPath id="L"><path d="M382 476h4v4.32813h-4zm0 0"/></clipPath><clipPath id="M"><path d="M395 476h4v4.32813h-4zm0 0"/></clipPath><clipPath id="N"><path d="M406 478h8v2.32813h-8zm0 0"/></clipPath><clipPath id="O"><path d="M413 478h3v2.32813h-3zm0 0"/></clipPath><clipPath id="P"><path d="M420 479h8v1.32813h-8zm0 0"/></clipPath><clipPath id="Q"><path d="M426 479h3v1.32813h-3zm0 0"/></clipPath><clipPath id="R"><path d="M433 478h8v2.32813h-8zm0 0"/></clipPath><clipPath id="S"><path d="M439 478h4v2.32813h-4zm0 0"/></clipPath><clipPath id="T"><path d="M446 478h8v2.32813h-8zm0 0"/></clipPath><clipPath id="U"><path d="M452 478h2v2.32813h-2zm0 0"/></clipPath><clipPath id="V"><path d="M459 479h9v1.32813h-9zm0 0"/></clipPath><clipPath id="W"><path d="M465 479h2v1.32813h-2zm0 0"/></clipPath><clipPath id="X"><path d="M144 466h4v2h-4zm0 0"/></clipPath><clipPath id="Y"><path d="M144 453h4v2h-4zm0 0"/></clipPath><clipPath id="Z"><path d="M144 439h4v3h-4zm0 0"/></clipPath><clipPath id="aa"><path d="M144 426h4v2h-4zm0 0"/></clipPath><clipPath id="ab"><path d="M465 424h3v2h-3zm0 0"/></clipPath><clipPath id="ac"><path d="M144 413h4v2h-4zm0 0"/></clipPath><clipPath id="ad"><path d="M465 410h3v2h-3zm0 0"/></clipPath><clipPath id="ae"><path d="M144 399h4v3h-4zm0 0"/></clipPath><clipPath id="af"><path d="M466 398h2v3h-2zm0 0"/></clipPath><clipPath id="ag"><path d="M144 385h4v4h-4zm0 0"/></clipPath><clipPath id="ah"><path d="M465 384h3v2h-3zm0 0"/></clipPath><clipPath id="ai"><path d="M144 371h3v6h-3zm0 0"/></clipPath><clipPath id="aj"><path d="M144 359h4v3h-4zm0 0"/></clipPath><clipPath id="ak"><path d="M465 357h3v1h-3zm0 0"/></clipPath><clipPath id="al"><path d="M144 344h4v6h-4zm0 0"/></clipPath><clipPath id="am"><path d="M144 330h1v8h-1zm0 0"/></clipPath><clipPath id="an"><path d="M144 330h1v2h-1zm0 0"/></clipPath><clipPath id="ao"><path d="M466 332h2v3h-2zm0 0"/></clipPath><clipPath id="ap"><path d="M144 316h1v9h-1zm0 0"/></clipPath><clipPath id="aq"><path d="M144 317h2v2h-2zm0 0"/></clipPath><clipPath id="ar"><path d="M466 319h2v3h-2zm0 0"/></clipPath><g id="as" clip-path="url(#clip1)"><path fill="#fff" fill-opacity="0" fill-rule="evenodd" d="M0 0h1000v1000H0zm0 0"/><path fill="#d3d3d3" fill-opacity="0" fill-rule="evenodd" d="M162.15234 355.86719l-.23437.29297.0586.23437.11718.17188.17578.23437.29297.34766.11328.0586.11719-.17188.0586-.23438.17577-.17578.46485-.17578h.69922l.23437.29297.28906.8164.0586.17579.17578.23046.35156.23438.69922.69922.17188.17578.23437.34765.23438.41016.28906.58203.41015.46485.23047.23437.23438.17578.11719.23047.17578.29297.17187 1.16406v.23438l.0586.28906.05859.11719.11719.11719.34765.41015.11719.17188.17578.17578.17578.23437.11719.17188.17188.35156.05859.23438.23437.40625.23438-.0586-.17578.17578-.0586.92969h-.58203l-.23437-.11328-.34766.11328-.11719.11719-.05859.29297-.0586.17578-.11718.17187-.46484.29297-.0586.23438-.0586.11328v.64453l.0586.17187v.41016l.0586.0586v.40624l.05859.40625.11719.17579.05859.05859.23047.64062-.0586.29297v.69922l-.05859.58203v.23438l-.0586.23047-.05468.35156v1.92187l.05469.1172h.42578l-.36719.11718-.02344.35156.89063 1.16797 1.74219.53906 1.33984.35938v.53906l.08984.8086.53516.71484 1.51953.26953.89063-.08594.08984 1.16406.53516.1797 1.16015-.1797 2.05469-.98437 1.16016-.36328 1.8789-.17578 1.69531-.1797-.17968.71876-1.51563.08594-1.25.08984-.80469.26953-1.07421.8086.26953.71875.53515.89843-.17968.625-.26563.8086.26563 1.07812.625.89844.80468.17969 1.25-.1797-.26562.72267.09766.5039.05468.29297v.17188l.0586.29296v.40625l.17578.1172.35156.11718h.40625l.29297-.17578.11328-.11719.0586-.11719.11718-.23047.0586-.17578.35156-.46484.23047-.17578.17578-.0586.17578.0586.0586.17578.11718.98828.05469.46875.0586.17188.11718.23437.17578.0586.8164.05859h.28907l.11719.23437.05859.40625.0586.35156v1.10547l.11718.29297.11719.34766.28906.69922.17578.35156.58203.7539.35157.17579.17187.0586.46875.23437.64063.46484.34765.23438.29297.17578.29297.05468.23047.0625.8164.34766.29297.17578.11328.17188.35157.35156.11719.17578.52343.64063v.28906l.0586.35156v.34766l.05859.35156.0586.28906.11718.0586.17188.05859h.17578l.58203.23437.17578.1172.17578.28905.17578.23438.11328.23437.29297.23047.11719.11719v.41016l.0586.05468.28906.23438.23437.11719.0586.11718.11718.17188.0586.11719.23047.23437.05859.17578.23437.0586.1172.05859-.1172.11328-.05859.11719v.11719l-.11719.29296-.11719.28907v.58203l.17579.11719.11718.05859.0586.11719.11719.11719.11328.05859.17578.34765.0586.35157.05858.40625v.17578l-.05859.17578-.11719.69922v.17187l.1172.17579.29296.29296h.40625l.17578.1172.11719.17187.11719.29296v.23438h-.52735l-.23047-.23438h-.23437l-.17578.0586-.0586.69922.0586.34765.11719.17579.17578.41015.11718.23047.28907.46875.17578.05469h.52344l.23437.0586.75781.64062.0586.29296v.23438l.05859.0586.23047.34765v.35156l-.11719.17188v.29297l.29297.28906.29297.17578.17187.0586.29297.17577.29297.1172.58203.40624.28906.23438.29297.17578.21875.16015.01563.01172.23047.17579.64062.52343.17578.23438.1172.17578.17577.17578.11328.17188v.64062l.1172.17578.46874.11719.58203.11719.23438.05859.23047.11328.29297.11719.11328.0586.58593.35156.28907.17187.17578.0625.17578.05469.17578.0586.69922.35155.28906.17579.23438.05468.28906.17578.23437.1172.64063.40624.29297.11719.17187.0586.23438.05859.41015.05859.23047.0586.23438.11718.0586.17188-.41017.17578.46875.0586.0586.29296.11328.23438.17578.05468.23438.0586.17578.05859.40625.11719.64062.23437.11719.17188.0586.23437v.17578l-.0586.1172-.0586.40624.23438.23438.11719.05859.34766.11719.64062.23047.17578.11718.28906.1172.17578.17577.23438.46485.58203 1.10546.17578.17579.34766.17578.17578.11719.35156.11718 1.04688.52344.23437.0586.46485.11327.29297.0586.46484.17578.75781.58203.23438.23438.34765.46484.17578.17578.28907.23438.8164.69921.29297.17579.28906.28906.29297.17578.29297.28906.69531.64063.17578.17578.29297.23437.28907.23438.46875.28906.64062.58203.34766.23438.23437.29297.34766.34765.35156.46485.9336.99218.34765.40625.11719.17579.23437.05859.11328.11719.64454.17578.23047.11328.23437.0586.29297.17577.23047.1172.9336.69921.40624.40625.23438.17578.40625.17578.23437.11719.8164.34766.34766.23437.23438.11719.29297.28906.23047.11719.7578.35156.35157.17188.23047.05859.29297.11719.23437.0586.8711.17577h.8164l.46875.23047.17188.0586.875.69921.46484.1172.29297.05858.17578.0586.23047.0586.46875.05859.34766.05859.35156.0586.40625.05859h.29297l.17187.0586v.23046l.17578.17578h.29297l.34766.0586.35156.05859.69922.11719h.64063l.46484-.23438.29297-.17578.17187-.11719.41016-.17187.28906-.17578.9336-.46485.46875-.29297.52343-.29296.46485-.17188.46484-.17578 1.05078-.46485.28906-.11718.41016-.11719.28906-.11719.52735-.17578 1.51562-.69922.58203-.34765.28907-.0586.29297-.0586.34765-.11718.875-.23047.35156-.11719h.11329l.23437-.05859.875-.23437.23438-.0586h.8125l.35156-.0586.8164-.11718.17188-.0586.35156-.05468.29297-.0586.23047-.05859.8164-.17578.17579-.0586h.34765l.23438-.05859.46484-.11718.75781-.17188.23438-.0586h.34765l.41016-.11718.28906-.0586 1.28516-.05859h.28906l.41016-.0586.23047-.05858h.17578l.875-.1172h.40625l.41015-.11718h.34766l.35156-.11328.8711-.0586h1.75l1.04687.28907.41016.11719.28906.11718.35156.11719.28907.11719 1.05078.17187.28906.0586h.29297l.29297.05859.17187.0586.41016.05859.17187.0586.1172.05858h.11718l.11719.0586.35156.0586h.11328l.41016.0664 1.92187.39453 1.92578.39453 1.51953.44922 1.69532.71875 2.14453.80469 1.60547-.71875 1.42968-.80469 1.16016-1.07813 1.25-.44921 3.03516-.71875 1.875-.35938 2.14453-1.34765 2.23437-1.25391 2.5-1.25781 1.69531-.44922 1.78516-.17969 1.16016-.26953.625.53906 1.33984-.26953.71485-.98828.98437-1.34375.44531-.17969.80469-.35937 1.875-.53907 1.78516-.44921 1.25-.26954 1.16015-.08984 1.69922-.08984 1.96094-.26954 1.25-.08984h.53906l.625-.08984h.89063l2.14453-.17969 2.41015-.17969 2.58985-.08984 1.69531.17969 1.60938.08984 1.42968.35938 1.16016.71875 1.875.98828 1.16015 1.52734.26563.71484.6289.08985.35548.89844.53515.53906.53516 1.52734 1.07422.35938h.53515l-.80469.53515.08985 1.70703.71484 2.69532.89063.80468.89453.98829.71484 1.2578 1.78516.53907 1.51953-.17969.35547 1.34375 1.60937-.80469.98047-.53906.26953.26953.31641-.21484.21875-.14453.80078.44922.44922-.35938h.35547l.53515-.26953.53907-.71875.53515-.26953.625-.98828 1.16016.44922.83984.3711 1.39454.61718 1.6953-.17969h1.60548l1.78515.08985.17969-1.70704.53516-1.34375.80468.26954.4922.84765.40233.40625-.08984.53906v.35938l.71485.44922.71093-.26953h1.42969l.35938.98828.4453 1.25781.71485 1.34375 1.25.6289 1.69531.62891.71485-.17969.17969-.53906.98046-.08984.44922.35937.08594 1.25782-.26563.6289-.53515.17969v.53906l.71484.98438.26563.53906.98437.98828.80078 1.07813-.26562.35937-.08985.89844-.625 2.33203-.35546 2.0664-.08985 1.79298-.17969.71875-.08984.53906v1.4375l-.98047 1.88281-.35937 1.70703-.53516.89844-.80469 1.16797-.26562.53906 2.05469 1.2539.08593.35938-.35546.53906-.08985-.17968v.80859l.08985 1.4375-.44532.71484-1.07422.09375-.26562.71485.53515.89844.8047.71875 1.16015.80859 1.33984.26953.44531.35938-.35546.44921-1.78907-.08984-1.25-.44922-.71484-.71875-.625-.08984-.17578 3.58984-.1875 1.3086h89.35937V311.70313h-55.26953v49.08203l.76172.125 3.28906.54296 2.02344 2.83594v2.7539l2.35156.33204 2.34766.33203h4.05078l-1.3789 4.16016-2.02344.70703-2.02344.70312-.54297.34375-2.59375 1.6172-.1875.11718-2.02344-2.07813-.73046-2.74218-2.67188-2.07813-1.375-3.5-.0664-.08203-1.95704-2.67188 2.75-1.41796v-49.08204H294.42187v91.41407l.1172.03125.1328.01172.07422.07421.10547.04688.08985.0586.08593.05859.08985.0586.29687.29687.0586.08984.03125.11719.02734.11719.01563.13671-.03125.1172-.0586.08983-.0586.08594-.04296.10547-.04688.10156-.02734.1211v.14453l.17578.26953.14844.14844.07422.08594.07422.07421.04296.10547.0625.08985.0586.08593.04297.10547.0586.08985.04687.10156.04296.10547.0586.08594.11719.17968.07421.07422.0625.08594.0586.08984.04297.10547.0586.08985.05858.08593.0625.08985.0586.08984.04297.10156.11719.17969.07421.07422.0586.08594.07422.07421.08984.0586.10547.04687h.14844l.1328-.01562.13282.01562.10156-.04687.07422-.07422.04688-.10156-.01563-.13281v-.14844l-.04687-.10547-.02735-.11719-.04687-.10156-.02735-.1211-.04296-.10156-.0625-.08984-.04297-.10156-.04297-.10547-.03125-.11719-.01563-.13281-.01171-.13672.08593-.0586.0586-.08593.12109-.03125.04297.10547.01562.1328v.1172l.0586.10156.0586.08984.08983.0586.14844.14843.0586.08985.04296.10547-.01171.10156.08593.0586.10547.04687.08594.0586.08984.05858.07422.07422-.11719.02735-.10546.04687-.08594.0586-.07422.07421-.0586.08985-.0625.08594-.02734.12109-.04687.10156-.04297.10547-.03125.11719-.01172.13281-.01563.13281v.14844l.02735.11719.04687.10547.04297.10156.0586.08984.07421.07422.08985.0586.07422.07421.08984.0586.0586.08984.04296.10547.04688.10156.11719.03125.1328.01563h.14845l.11718-.03125.10547.04297.04297.10547.04688.10156.02734.1211L299.5 410l.02734.11719.03125.1211.02735.11718.10547.04297.10156.04687.13281-.01562.14844.14844.0625.08593.07422.07422.07031.07422.08984.0625.10547.04297.10156.04297.1172.03125.13671.01562.11719-.03125.07422-.07422.02734-.11718-.01172-.13282-.03125-.12109-.02734-.11719.04297-.10547h.11719l.08984.0625.11719.02735h.14843l.13282.01562h.14843l.13282.01563.1328-.01563h.14845l.1328-.01562.13282-.01172.13672.01172.11719-.02735.13281-.01562.1914-.0586-.05859.17579-.01562.1328-.02735.1211-.01562.13281-.0586.08594-.1328.01563-.10548.04687-.10546.04297-.1172.03125-.11718.02735-.26563.03125h-.14843l-.13281.01562-.07422.07422.05859.08594.14844.14843.11719.1797.07421.0703.08985.0625.08984.0586.08594.0586.08984.05858.10156.04297.10547.0625.10547.04297.08594.0586.10547.04687.10156.04297.17969.11719.0586.08984-.04298.10156-.04687.10547.01562.13281.22266.22266.0586.08985.04296.10156.03125.1211.04297.10155.01563.13282.03125.11718.01171.13672.03125.11719.14844.14844.10156.04297.10547.04296.1172.03125.1328.01563.13672.01563h.11719l.11719-.03125.08984-.0586.04297-.10547.04688-.10156.04296-.10547.03125-.11719.01172-.1328v-.14845l-.01172-.1328-.01562-.13282-.03125-.11719-.04297-.10547-.04688-.10547-.04296-.10156-.04297-.10547-.01563-.13281.01563-.13281.02734-.11719.03125-.11719.02735-.1211.04687-.10155.08984-.0586.08594-.0625.07422-.07422.08984-.05859.22266-.22266.0586-.08593.07421-.07422.11719-.17969.0586-.08594v-.14844l-.07423-.07421-.10156-.04688-.10547-.04297-.10156-.04297-.0586-.08984-.04687-.10547-.02734-.11719.08984-.05859.11719-.03125.10156-.04297.17969-.11719.14844-.14843.01172-.13282-.01172-.10546-.08985-.0586-.1328.01563h-.14845l-.1328.01562-.13282-.01562-.1211-.03125-.08593-.0586-.07422-.07422-.0586-.08984-.0625-.08594-.11718-.17969-.0586-.08593.03125-.1211.08594-.05859.1211-.03125.05859-.08594v-.1211l-.03125-.11718-.0586-.08984-.05859-.08594-.04687-.10547-.02735-.11719-.01562-.1328.0586-.08985.07421-.07422.08984-.0586.1172-.17968.07421-.07422.0586-.08594.14843-.14844.1211-.03125.1328-.01562.13282.01562.07422.07422.04297.10547.01562.13281-.03125.1172-.11719.03124-.1328.01172-.14844.14844-.04297.10547-.04688.10156-.02734.1211-.03125.11718v.14844l.03125.11719.04297.10546.05859.08985.07422.07031.07422.07422.11719.03125.12109.02734.11719-.02734.1328-.01563h.1172l.08984.0586.07422.07422.04687.10546.0586.08594.10156.04688.13281.01562.10547.04297.08594.0586-.01172.10546-.07422.07422-.17969.11719-.05859.08984-.08984.0586-.07032.07422-.07421.07421-.0625.08985-.02735.11719-.01562.1328.01562.13282-.01562.13281v.14844l.01562.13281.02735.1172.03125.12108.07421.07422.08985.0586.08594.0586.08984.05858.11719.03125v.08594l-.10157.04688-.08984.0586-.26563.03124-.11718.02735h-.14844l-.10547.04296-.10156.04688-.0586.08984-.0625.23438-.01171.13281-.03125.1211-.01563.1328v.29298l-.01172.1328.01172.13673.01563.1328.1328.01563.13282.01172.1211.03125.08593.0586.07422.07421.04688.10547.04296.10157.01563.1328v.44532l-.01563.13281v.44532l.03125.26562.02735.11719.01562.13281.03125.11719.08594.21094.03125.26562v.14844l-.03125.11719-.02734.11718-.03125.1211-.02735.11719-.03125.11718-.03125.1211-.01171.1328-.01563.13282.08984.0586.1172-.03125.10155.01562.04688.10547-.03125.26562v.44141l-.04297.10547-.04688.10547-.04296.10156-.04297.10547-.0586.08594-.03125.12109-.04296.11719-.03125.11719-.01563.1328.01563.13282.05859.08984.10547.04688.08594.0586.05859.08593-.01172.13672-.03125.11719-.04297.10156v.44531l-.01562.13281v.14844l-.03125.11719-.04297.10547-.02735.11719-.04687.10546-.04297.10157-.03125.12109-.02734.11719-.03125.13281-.03125.11719-.02735.11719-.04297.10546-.03125.1172-.03125.12108-.01171.13282-.01563.13281v.29688l.02734.11718v.14844l.04688.39844.02734.11719.0586.08984.12109.03125h.14844l.13281-.01563.0586.08985v.11719l-.0586.08984-.08984.0586-.10157.04296-.10546.04688-.08985.05859-.08594.0586-.13671.01562-.1172-.03125-.1328-.01563-.10157.04688-.0625.08594-.01172.13671-.01562.13282-.03125.11719-.02735.11718-.01562.13281-.03125.1211v.29687l.01563.13282.03125.11718v.14844l.01171.13281v.14844l-.02734.11719-.04688.10156-.02734.1211-.03125.11718-.0586.08985-.07421.07421-.10156.04297-.10547.04688-.11719.02734-.1211.03125-.10156-.04687.0586-.08594.10547-.04688.02734-.11718.03125-.11719.02734-.1211.03125-.11718v-.14844l.01563-.13281-.03125-.11719-.04297-.10547-.10547.01563-.07422.07422-.10156.04296-.08984.0625-.07422.07422-.04297.10157-.01563.1328-.03125.1172L304.25 426l-.03125.11719-.02734.11719-.03125.12109-.02735.11719-.03125.11718-.04297.10547-.08984.0586h-.08984l-.1172-.03125-.03124-.08594.01562-.13672-.03125-.11719v-.14844l-.01171-.1328v-.14844l-.0625-.23438-.02735-.1211-.04297-.10156-.04687-.10546-.0586-.08594-.05859-.08985-.04297-.10546-.0625-.08594-.14844-.14844-.0703-.07422-.10548-.04687-.10547-.04297-.10156-.04297-.29687-.29688-.08985-.07421-.08594-.0586-.10546-.04297-.08985-.0625-.08594-.0586-.10546-.04296-.08985-.0586-.08594-.0625-.07421-.0703-.10547-.04688-.08594-.0586-.10547-.04296-.08984-.0625-.10156-.04297-.10547-.04297-.08594-.0586-.10547-.04687-.10547-.04297-.10156-.04687-.08985-.0586-.10156-.04297-.10547-.04296-.08984-.0625-.11719-.02735-.13281-.01562-.13281.01562H299.75l-.13281.01563-.11719-.03125-.08984-.0586-.07422-.07422-.08985-.05859-.10156-.04688h-.14844l-.12109-.02734-.10156-.04297-.07422-.07422-.11719-.17968-.08984-.0586-.10156-.04297-.08985-.0625-.10547-.04296-.08984-.0586-.08594-.0586-.10547-.04687-.0586-.08594-.05858-.08984-.04297-.10547-.04688-.10156-.07422-.07422-.08594-.0586-.07421-.07421-.08985-.0586-.22265-.22265-.04297-.10547-.03125-.26563.10547-.04296h.14453l.10547.04296.07421.07422.08985.0586.08594.0586.10546.04687.08985.05859.14844.14844.0703.07422.14845.14843.0625.08594.07421.07422.08594.0586.07422.07421.08985.0625.08984.0586.08594.05859.26953.17578.10156.04688.10547.04296.10156.04297.04688-.07421.05859-.08594.07422-.07422.07031-.07422.10547.04297.07422.07422.0586.08984.04296.10156.04688.10547.04296.10547.1211.02735.11719-.02735.07421-.08984.04297-.10547.0586-.08985.07422-.07421.10546-.04297.1172-.02735.1328.01172.08985.0586.14844.14843.05859.08985.04297.10547.04687.10156.04297.10547.04297.10156.10547.04688.10547.04296.13281.01563.08594-.0586.0586-.08984.07421-.07422.10547-.04297.11719.02735.10547.04687.10156.04297.10547.04297.10156.04688.17969.11718v.11719l-.01563.13281.01563.13281.01562.13672.0586.08594.10156.04688.1211.02734.11718.03125h.14844l.11719-.03125.05859-.08984.17969-.1172.05859-.08983.07422-.07422.0586-.08594.11718-.17969.17969-.11719.11719.03125.08984.0586.04297.07422-.01563.1328v.1172l.08985.05859h.14843l.13282-.01563.1328-.01171.26563-.03125.10547-.04297.11719-.03125.1211-.02735.07421-.07421.07031-.07422.0625-.08985-.01562-.10547-.04688-.10156-.10156-.04297-.10547-.01562-.11718.02734-.26563.03125h-.14844l-.07421-.07422-.08985-.0586-.11719-.03124-.11718-.02735-.13282-.01562h-.14843l-.13282.01563h-.29687l-.10547-.04688-.14844-.14844-.04297-.10156-.05859-.08984.22266-.22266.08593-.0586.10547-.04296.11719-.03125.13281-.01563.13281.01563.13672.01562.10157.04297.1328-.01172.08985-.0625.10156-.04297.0625-.08984-.04687-.10156-.08984-.0586-.1172-.03125-.10155-.04296-.0586-.08985-.0625-.08984v-.11719l.01563-.13281.10547-.04688.07421-.07031v-.1211l-.08984-.05859-.03125-.11719.08985-.05859.07421-.07422.04297-.10547.0586-.08984.04687-.10156.01563-.13281v-.14844l-.04688-.10547-.04297-.10156-.08984-.0586-.13281-.01562-.10157-.04297-.13671-.01563-.1172-.03125h-.4453l-.13282-.01562-.13281-.01172-.13281-.01563-.11719-.03125h-.14844l-.13281-.01562-.13281-.01172-.26563-.03125-.1211-.04297-.08593-.0586-.07422-.07421v-.14844l.01172-.13281.10547-.04688.10156-.04296.13281-.01563h.15235l.13281-.01562h.29297l.1211.03125.10156.04296.08984.0586.23438.0625.12109-.04688.08984-.05859.10156-.04297.13282-.01562.10547.04296.10156.04688.13281.01172.1211-.02735h.14453l.12109-.03125.11719-.02734.10547-.04687.07421-.07422.08594-.0586.14844-.14843.0586-.08594.04687-.10547.02734-.11719.01563-.10547-.10156-.04296-.08985-.0586-.11719-.03125-.10546-.04297-.08985-.0625-.07422-.08594-.07422-.07421-.10156-.04297-.10547-.04688-.10156-.04297-.0586-.08984-.04687-.10156-.08594-.21094-.0625-.08594-.05859-.08984-.07422-.07422-.08594-.0586h-.26953l-.11719.03126-.08984.05859-.10156.04297-.13281.01562-.10547-.01562-.02735-.11719-.0625-.08984-.11718-.03125-.10157-.04297-.14843-.14844-.03125-.11719-.01563-.10546.07422-.07422.17969-.1172.11719-.02733.11718-.03125.13672.01562.10156.04297.10547.04297.10156.04687.10547.04297.1172.03125.1328.01563.1172.02734.1328.01563.10547-.01563.08985-.0586-.07422-.07421-.10547-.04297-.07422-.07422-.07422-.08984-.14844-.14844-.08593-.0586-.08985-.05859-.07422-.07422-.08984-.0586-.10156-.04687-.1211-.02734-.10156-.04688-.10547-.04296-.11719-.03125-.10156-.04297-.1211-.03125h-.14843l-.11719.03125-.10546.04297-.08594.0625-.17969.11718-.08594.0586-.08984.0586-.10547.04687-.08594.05859-.10547.04297-.10156.04297-.10547.04687-.07422.07422-.05859.08985-.0586.08593-.04687.10547-.0586.08594-.07421.07422-.13281-.01172-.1172-.03125h-.11718l-.07422.07422-.08984.0586-.07422.07421-.08984.0586-.08594.05859-.10547.04687-.10156.04297-.13672.01563-.10156-.04297-.14844-.14844-.10547-.04688h-.08594l-.10547.04688-.10156.04297-.1211.03125-.11718-.03125-.07422-.07422v-.11719l.03125-.1211.07422-.0703.0586-.08985.07421-.07422.11719-.03125.10547-.04296h.29297l.13281-.01563.13672-.01563.10156-.04296.08985-.0586.10156-.04687.08984-.0586.13281-.01171.08985.05859.13281.01172.08984-.0586.08594-.05859.10547-.04297.08984-.0586.08594-.0625.08985-.05859.14843-.14843.0586-.08594.05859-.08985.10547-.04296.13281-.01563.11719.02735.1211.03125.05859-.0586.05859-.08984.03125-.26563.02734-.11719.10547.01172.13281.01563.10157-.04297.08984-.0586.0586-.08984.07421-.07422.0586-.08984.04687-.10156.01172-.13281-.01172-.13282-.04687-.10547-.14844-.14843-.0586-.08985-.05859-.08594-.04297-.10546v-.44532l.01563-.1328v-.14845l.01172-.1328-.0586-.0586-.08984.0586-.10156-.04298-.17969-.11719-.08594-.05859-.0625-.08984-.0586-.08985-.07421-.07421-.08594-.0586-.1211.03125-.10155.01172-.10547.04688-.08594.05859-.10547.04297-.14844.14844-.08984.05859-.08594.0586-.08984.0625-.10547.04296-.13281.01563v-.1211l.10547-.04297.11718-.03125.07422-.0703.04297-.10548v-.14844l-.02734-.11718-.14844-.14844-.13281-.01563h-.14844l-.11719.03125-.10547.04297-.10156.04297-.08984.0625-.11719.02735-.07422-.07422.01172-.13281-.04297-.10157-.04297-.10547-.08984-.05859-.11719.02734-.1211.03125-.11718.03125-.10156.04297-.1211.03125-.10156.04297-.10547.04297-.08984.0586-.10156.01562v-.11719l.01562-.13281-.0586-.08985-.07421.04297-.14844.14844-.0586.08985-.07421.07421-.04688.10547-.04296.10156-.07422.07422-.0586.08985-.07422.07422-.05859.08593-.07422.07422-.08984.0625-.07422.07031-.07422.07422-.10156.01563-.13281.01562-.10547-.04296v-.1211l.14843-.14844.04297-.10156.0586-.08984.04687-.10156.04297-.10547.0586-.08985.03124-.11719.04297-.10156.03125-.1211.02735-.11718.04687-.10547.04297-.10156.04297-.10547.07422-.07031.08984-.0625.08985-.0586.10156-.04296h.29687l.26563-.03125.10547-.04297-.07422-.07422-.11719-.03125-.10547-.04297-.08984-.0586-.10156-.04687-.08985-.0586-.10156-.04296-.10547-.04297-.08984-.0625-.08594-.0586-.10547-.04296-.10156-.04297-.1211-.03125-.11718-.03125-.10157-.04297L297.5 410.25l-.10156-.04297-.08985-.0586-.04296-.10546-.01563-.13281.10156-.04297.13281-.01563.13672.01563.13282-.01563.10156-.04297.0586-.08984.01562-.10547-.08985-.0586-.07421-.07421-.10157-.04297-.08984-.0586-.14844-.14843-.04297-.10547-.01562-.13281v-.29297l-.0586-.08985-.08984-.05859-.07422-.07422-.04297-.10547-.03125-.11718-.0586-.08985-.07421-.07422-.11719-.02734-.07422-.07422-.08984-.0586-.08984-.0625-.08594-.05859-.07422-.07421-.0586-.08594-.04687-.10547-.08594-.0586-.14843-.14843-.19532-.0586-.1328.01563-.10157.04297-.07422.07422-.04688.10156-.04296.10547-.0586.08984-.0586.08594-.29687.29687-.08984.0586h-.08594l-.0625-.08594-.04297-.10547.03125-.11719.0586-.08984.02734-.11719-.01172-.13281-.08984-.0625-.10547.04688-.11719.02734-.11719.03125-.26953.17578-.10156.04688-.11719.02734-.10546.04687-.08985.0586-.10156.04297-.0586-.08594-.04687-.10547.01563-.13281.04687-.10547.07031-.07422.07422-.07031.0586-.08985v-.14843l-.04297-.10547h-.23829l-.10156.04687-.03125.11719-.02734.11719-.03125.1211-.07422.04296-.13281.01563-.07422-.04688-.04297-.10156-.04297-.10547-.04687-.10156-.04297-.10547-.1211.03125-.10156.04297-.13281.01562-.11719.03125-.10547.04297-.08984.0586-.10156.04687-.1211.02734-.13281.01563-.10156-.04297-.0586-.08985-.04687-.10546-.04297-.10157-.04297-.10546v-.1172l.0586-.08984.08593-.05859.17969-.11719.10156-.04687.10547-.04297.10547-.0586.10156-.04296.08985-.0625.10156-.04297.10547-.0586.10156-.04687.08984-.0586.10547-.04296.10156-.04297.08985-.0625.10156-.04297.13672-.01563.11719.03125.10156.04297.1211.03125.10156.04297.10546.04688.10157.04296.10547.04297.10156.04688.10547.04297.10156.04297.10547.04687.08594.0586.10546.04296.1172.03125.10546.04297.10156.04688.08985.0586.10547.04296.10156.04297.10547.04687.11719.02735.10156.04687.1211.02735h.14843l.08594-.0586.01562-.10156.0586-.08984-.02735-.1172-.07422-.07421-.11719-.17969-.07421-.07422-.08985-.07421-.17969-.1172-.08593-.05859-.10547-.04296-.10156-.04688-.26954-.17578-.05859-.08985-.07422-.07421-.0586-.08985-.04296-.10156-.03125-.11719-.01563-.13672v-.5625l-.01171-.1328-.01563-.13282-.03125-.11719-.01562-.13281-.01172-.13281-.03125-.1211-.22266-.22265-.0586-.08594-.01562-.10547.03125-.11719.13281-.01562v-91.41406H172.9922v1.45312l-.0586.23438-.35156 1.05078-.17187.52343-.1172.34766-.17577.41016-.11719.17187-.23438.29297-.23046.0586h-.35157l-.11718.05859-.23047.40625v.29297l.11719.17578.23046.23047.1172.23437.64062.75781.29297.46485.17578.23437.23047.35156.23437.34766.64063.8164.17578.46485.17187.41016.11719.69531.17578.46875.11719 1.39844.0586.46484v.875l.11718 1.04688v4.78125l-.0586.46484-.35156 1.28125-.17578.52344-.11328.41015-.35156.9297L172.93359 336l-.23437.58203-.11719.17578-.17187.34766-.17578.40625-.35157.8164-.0586.29297-.11327.29297-.11719.28906-.0586.17579-.11718.875-.0586.40625-.05859.11718-.0586.17579-.05859.17187-.23047.52734-.11718.17188v.23437l-.11719.23438-.0586.17187-.17577.58594v.28906l-.0586.17579v.29296l-.0586.11329-.05859.52734v.17187l-.05468.23438v2.6211l-.17578.8164-.1172.17578-.17577.23438-.1172.17187-.11327.23438-.58594.93359-.23047.28906-.29297.46485-.17578.23437-.28906.35156-.35156.69922-.11328.23047-.17579.41016-.17578.23046-.40625.52735-.8164.69922-.29297.17187-.28906.23438-.17579.11719-.17578.17578-.52344.40625-.52734.17578-.17187.17578-.23438.05469-.64062.17578h-.75782m12.21094 31.02344l-1.07422.44921.35938.89454 1.25-.71485.44531-.53906-.98047-.08985"/><path fill="#d3d3d3" fill-opacity="0" fill-rule="evenodd" d="M201.50781 416.59766h-.89453l.44922.6289.98047.35938.80469-.08985.4453-.98828-.17577.08985-.71485-.35547-.89453.35547m154.6211 59.0703l-.0586-.52343v-.29297l.11328-.29297.0586-.23046.46875-.46875h.11328l.11719-.11329.11718-.05859h.17579l.23437-.0586h.34766l.23437.0586.11719.0586.23047.17187.0586.17578.11718.58203v.29297l-.11719.17578-.17187.28906-.17579.17579-.52734.52343-.23047.23438-.11719.0586h-.17578l-.11718-.0586-.40625-.29297-.17579-.11719-.11718-.0586-.0586-.11327-.05468-.1172m6.64062-10.95702l-.0586-.17188v-1.10937l.0586-.17188.17578-.0586.17188-.05858h.17578l.23437-.0586.1172.0586.05858.69921-.05859.17188-.11719.17578-.11718.0586-.23438.52343-.11328.0586h-.23438l-.05859-.1172m9.61328-14.39062l-.11719-.17578v-.69922l.29297-.875.1172-.17187.17577-.35156.11328-.23047.1172-.29297.35155-.75781.1172-.23047.17187-.23438h.17578l.11719-.0586h.64062l.11719.0586.23437.23438.17188.11328.35156.29297.11719.11718.11328.17579v.11328l.11719.05859.11718.11719v.69922l-.05859.17578v.23047l-.0586.17578-.34765 1.05078-.11719.23047-.11719.23437-.11718.0586-.23047.23437-.64063.28906h-.875l-.41015-.11718-.64063-.46485"/><path fill="none" stroke="#bebebe" stroke-linecap="round" stroke-linejoin="round" stroke-miterlimit="10" stroke-width=".5" d="M467.95703 311.69531H144.02734v168.625h323.9297v-168.625"/><g clip-path="url(#a)"><path fill="#fff" fill-opacity="0" fill-rule="evenodd" d="M144 475.89063v4.4375h.0039H144V311.67188h.0039H144v164.21875"/></g><g clip-path="url(#b)"><path fill="#fff" fill-opacity="0" fill-rule="evenodd" d="M144.0039 480.32813V311.67188h48.81641v108.74218l-4.4375.3125-4.4375.89063-1.21875 1.01172-3.21875 4.42578-.02344.01562-4.41796 1.5039-3.1875 2.9336-1.25.90625-4.4375 1.95313-1.57813 1.57812-2.85937 2.82813-1.98047 1.60937-.19922 4.4375 2.17969 4.13281.47656.3086 1.66797 4.4375 2.29297 1.65234 1.65625 2.78516 2.78125 1.83984 4.4375.6211 4.4414-.21875 4.4375-.97266 4.4375-.48438 2.28906-.78515 2.14844-.26563.66797.26563 3.77344 1.66015 4.4375-.9375 3.625-.72265.8125-.23438.34375.23438 4.09375 1.54687 4.4414-1.0039.97657-.54297 3.46094-1.73047 2.76562-2.70703 1.67188-3.10547 2.42578-1.33203.91797-4.4414-3.34375-2.8086-2.41797-1.6289-2.01953-3.63673-2.47657-.80078-1.96094-.30078-4.4414-2.02734-1.97266-2.10938-2.07031-4.4375-.39453-.67578-4.4375-2.11719-3.9961-1.64843-.4414-.23047-4.4414-1.98438V311.67187h13.3164V416.5547l-1.65234 1.63672 1.65234 2.7539 2.25781-2.7539-2.25781-1.63672V311.67188h13.3164v110.91406l-.23437.04297-.91016 4.4414 1.14453 1.42578 4.4375 2.07422 1.78125.9375 2.65625 1.73438 1.36329 2.70312 3.07422 3.02344 4.4414.80078 1.11328.61328 3.32422 3.08594 4.4375-1.1211 1.98047-1.96484 2.01172-4.4375-1.60938-4.4375-2.3828-2.10156-4.4375-1.9336-4.4375-.21093-2.94142-.1914-1.5-1.10157-4.4375-2.98828-4.4375.5-4.35546-.85156-.08203-.04297V311.67188h39.9453v121.47265l-2.65234 2.80078 2.65235 1.3789 1.32422-1.3789-1.32422-2.80078V311.67188h22.1914v115.875l-4.29687 3.96093 4.29687 4.23828.61329.19922 3.82421 2.82422 3.58985-2.82422-1.46485-4.4375-2.125-1.53515-4.4375-2.42579v-115.875h17.75391v113.08204l-2.54297 2.3164 2.54297 3.23438.72656 1.20312 3.71094 2.95313 2.95313-2.95313-2.95313-3.34765-1.6914-1.08985-2.7461-2.3164V311.67187h75.44922V446.7461l-2.75781 2.51563 2.7578 2.45312 2.41407-2.45312-2.41406-2.51563V311.67188h13.3164v143.23046l-4.22265 3.23438-.21485.53515-2.26171 3.90235 2.26171 2.92187 4.4375.39454 3.96875-3.31641-.49218-4.4375-3.47656-3.23438V311.67188h79.88671v168.65625h-36.86718l-3.07422-1.29688-1.65625 1.29688H144.0039"/></g><path fill="#50fcfc" fill-rule="evenodd" d="M161.7539 448.95313l-2.17968-4.13282.19922-4.4375 1.98047-1.60937 2.85937-2.82813 1.57813-1.57812v4.94922l-1.07813 1.0664.71094 4.4375.36719.29688.49609-.29688 2.84766-4.4375-3.34375-1.0664v-4.94922l4.4375-1.95313 1.25-.90625 3.1875-2.9336 4.41797-1.5039.02343-.01562 3.21875-4.42578 1.21875-1.01172 4.4375-.89063v4.36719l-1.60547 1.97656-2.83203 2.6836-4.4375 1.27343-.96484.48047-3.47656 4.22656-.58594.21094-.57422 4.4375 1.16016.5039 2.96875 3.9336-1.96094 4.4414-1.00781 3.19142-.20313 1.24609.20313.3711 4.4414 1.13671 4.4375-1.46484.10156-.04297 2.79297-4.4375-2.73828-4.4414 2.96094-4.4375 1.32031-.8672 2.95703-3.5703 1.48047-3.39063 1.99219-1.04688.38672-4.4375-2.3789-1.55078-4.4375-.42578v-4.36719l4.4375-.3125 4.4414 1.98438.4414.23047 3.9961 1.64843v27.28125l-4.4375 1.13672-3.32031 1.0039 3.3203.84376 4.4375.6875 2.12892-1.53125-2.12891-2.14063v-27.28125l4.4375 2.1172.39453.67577 2.07031 4.4375 1.97266 2.10938 4.4414 2.02734 1.96094.30078 2.47656.80078v12.32813l-.11328.1875.11328.10937.39454-.10937-.39453-.1875v-12.32813l2.01953 3.63672 2.41797 1.6289 3.34375 2.8086-.91797 4.4414-2.42578 1.33204-1.67188 3.10547-2.76563 2.70703-3.46093 1.73047-.97656.54297-4.44141 1.0039-4.09375-1.54687-.34375-.23438-.8125.23438-3.625.72265-4.4375.9375-3.77344-1.66015-.66797-.26563-2.14844.26563-2.28906.78515-4.4375.48438-4.4375.97266-4.4414.21875-4.4375-.6211-2.78125-1.83984-1.65625-2.78516-2.29297-1.65234-1.66797-4.4375-.47656-.3086"/><path fill="#00e8fc" fill-rule="evenodd" d="M165.82422 444.82031l-.71094-4.4375 1.07813-1.0664 3.34375 1.0664-2.84766 4.4375-.4961.29688-.36718-.29688m9.24219-3.9336l-1.16016-.5039.57422-4.4375.58594-.21094 3.47656-4.22656.96484-.48047 4.4375-1.27343 2.83203-2.6836 1.60547-1.97656 4.4375.42578 2.3789 1.55078-.38671 4.4375-1.99219 1.04688-1.48047 3.39062-2.95703 3.57031-1.32031.8672-2.96094 4.4375 2.73828 4.4414-2.79297 4.4375-.10156.04297-4.4375 1.46484-4.4414-1.13672-.20313-.3711.20313-1.24608 1.0078-3.19141 1.96095-4.4414-2.96875-3.9336m22.1953 13.65625l-3.3203-.84375 3.3203-1.0039 4.4375-1.13673 2.12892 2.14063-2.12891 1.53125-4.4375-.6875"/><path fill="#50fcfc" fill-rule="evenodd" d="M206.13672 420.94531l-1.65234-2.7539 1.65234-1.63672 2.25781 1.63672-2.25781 2.7539m13.3164 7.55078l-1.14453-1.42578.91016-4.4414.23438-.04297.08203.04297 4.35547.85156 4.4375-.5 4.4375 2.98828v2.22656l-3.47657 3.3125 3.47656 4.29688.1836.14062 4.25781 2.57422 3.39453 1.86328 1.04297.96875 2.16797-.96875 2.26953-.83203 2.6914-3.60547-2.6914-3.3711-1.59375-1.0664-2.84375-2.17578-4.4375-.91406-4.4414-.22266v-2.22656l1.5 1.10156 2.9414.1914 4.4375.21095 4.4375 1.93359 2.38281 2.10156 1.60938 4.4375-2.01172 4.4375-1.98047 1.96485-4.4375 1.12109-3.32422-3.08594-1.11328-.61328-4.4414-.80078-3.07422-3.02344-1.36328-2.70312-2.65625-1.73438-1.78125-.9375-4.4375-2.07422"/><path fill="#fff" fill-opacity="0" fill-rule="evenodd" d="M219.45313 449.07422l-.11329.1875.11328.10937.39454-.10937-.39453-.1875"/><path fill="#00e8fc" fill-rule="evenodd" d="M232.76563 435.80469l-3.47657-4.29688 3.47656-3.3125v2.0586l-1.3164 1.2539 1.3164 1.625 3.63282 2.8125.8086.48828 4.4375 2.71094 4.4375-2.5.51952-.69922-.51953-.65234-4.4375-3.17969-1.46484-.60547-2.97266-1.16406-4.4414-.08984v-2.0586l4.4414.22266 4.4375.91406 2.84375 2.17578 1.59375 1.0664 2.6914 3.3711-2.6914 3.60547-2.26953.83203-2.16797.96875-1.04297-.96875-3.39453-1.86328-4.25781-2.57422-.1836-.14062"/><path fill="#00d4fc" fill-rule="evenodd" d="M232.76563 433.13281l-1.31641-1.625 1.3164-1.2539 4.44141.08984 2.97266 1.16406 1.46484.60547v2.03906l-2.3711 1.79297 2.3711 1.4961 2.3789-1.4961-2.3789-1.79297v-2.03906l4.4375 3.17969.51953.65234-.51953.69922-4.4375 2.5-4.4375-2.71094-.8086-.48828-3.6328-2.8125"/><path fill="#00c4fc" fill-rule="evenodd" d="M241.64453 437.4414l-2.3711-1.49609 2.3711-1.79297 2.3789 1.79297-2.3789 1.4961"/><path fill="#50fcfc" fill-rule="evenodd" d="M259.39844 437.32422l-2.65235-1.3789 2.65235-2.80079 1.32422 2.80078-1.32422 1.3789m22.1914-1.57812l-4.29687-4.23828 4.29687-3.96094v1.03125l-3.17578 2.9297 3.17578 3.1328 4.0586 1.3047.3789.27734.35547-.27735-.35547-.63281-.83984-3.80469-3.59766-2.92969v-1.03125l4.4375 2.42579 2.125 1.53515 1.46485 4.4375-3.58985 2.82422-3.82421-2.82422-.61329-.19922"/><path fill="#00e8fc" fill-rule="evenodd" d="M281.58984 434.64063l-3.17578-3.13282 3.17578-2.92969v1.72266l-1.30859 1.20703 1.3086 1.29297 1.48046-1.29297-1.48047-1.20703v-1.72265l3.59766 2.92968.83984 3.80469.35547.63281-.35547.27735-.3789-.27735-4.0586-1.30469"/><path fill="#00d4fc" fill-rule="evenodd" d="M281.58984 432.80078l-1.30859-1.29297 1.3086-1.20703 1.48046 1.20703-1.48047 1.29297"/><path fill="#50fcfc" fill-rule="evenodd" d="M299.34375 430.30469l-2.54297-3.23438 2.54297-2.3164 2.7461 2.3164 1.6914 1.08985v2.52343l-.91016.82422.91016.72266.72266-.72266-.72266-.82422v-2.52343l2.95313 3.34765-2.95313 2.95313-3.71094-2.95313-.72656-1.20312"/><path fill="#00e8fc" fill-rule="evenodd" d="M303.78125 432.23047l-.91016-.72266.91016-.82422.72266.82422-.72266.72266"/><path fill="#50fcfc" fill-rule="evenodd" d="M374.79297 451.71484l-2.75781-2.45312 2.7578-2.51563 2.41407 2.51563-2.41406 2.45312m8.8789 13.78125l-2.26171-2.92187 2.26171-3.90235.21485-.53515 4.22265-3.23438v1.84375l-1.8164 1.39063-.38672 4.4375 2.20313.85156 1.01953-.85156.47656-4.4375-1.4961-1.39063v-1.84375l3.47657 3.23438.49219 4.4375-3.96875 3.3164-4.4375-.39453"/><path fill="#00e8fc" fill-rule="evenodd" d="M388.10938 463.42578l-2.20313-.85156.38672-4.4375 1.8164-1.39063 1.4961 1.39063-.47656 4.4375-1.01954.85156"/><g clip-path="url(#c)"><path fill="#50fcfc" fill-rule="evenodd" d="M426.39844 480.32813l1.65625-1.29688 3.07422 1.29688h-4.73047"/></g><g clip-path="url(#d)"><path fill="#fff" fill-opacity="0" fill-rule="evenodd" d="M467.9961 480.32813H468V311.67188h-.0039H468v168.65625h-.0039"/></g><path fill="#fff" fill-opacity="0" fill-rule="evenodd" d="M188.36328 461.49219l5.39063 2.2539 3.84765-9.1875-5.39062-2.2539-3.84766 9.1875"/><path fill-rule="evenodd" d="M194.73047 455.34766l.47266.1953-2.4336 5.8047-.72656-.30079 1.73437-4.14453-1.28125-.53515.21485-.51172.54297.15625.2539.04687.2461.00782.24218-.0547.2422-.125.24218-.21874.25-.32031"/><g clip-path="url(#e)"><path fill="none" stroke="#000" stroke-linecap="round" stroke-linejoin="round" stroke-miterlimit="10" stroke-width=".5" d="M147.5039 480.07813l-7.0078.5039"/></g><g clip-path="url(#f)"><path fill="none" stroke="#000" stroke-linecap="round" stroke-linejoin="round" stroke-miterlimit="10" stroke-width=".5" d="M147.5039 480.07813l1.3047 2.07812"/></g><g clip-path="url(#g)"><path fill="none" stroke="#000" stroke-linecap="round" stroke-linejoin="round" stroke-miterlimit="10" stroke-width=".5" d="M160.8164 480.01953l-7 .6211"/></g><g clip-path="url(#h)"><path fill="none" stroke="#000" stroke-linecap="round" stroke-linejoin="round" stroke-miterlimit="10" stroke-width=".5" d="M160.8164 480.01953l1.33594 2.05469"/></g><g clip-path="url(#i)"><path fill="none" stroke="#000" stroke-linecap="round" stroke-linejoin="round" stroke-miterlimit="10" stroke-width=".5" d="M159.79688 480.10938l.66796 1.02734"/></g><g clip-path="url(#j)"><path fill="none" stroke="#000" stroke-linecap="round" stroke-linejoin="round" stroke-miterlimit="10" stroke-width=".5" d="M174.10547 479.80078l-6.94922 1.05469"/></g><g clip-path="url(#k)"><path fill="none" stroke="#000" stroke-linecap="round" stroke-linejoin="round" stroke-miterlimit="10" stroke-width=".5" d="M174.10547 479.80078l1.46094 1.97266"/></g><g clip-path="url(#l)"><path fill="none" stroke="#000" stroke-linecap="round" stroke-linejoin="round" stroke-miterlimit="10" stroke-width=".5" d="M187.42578 479.86328l-6.96484.92969"/></g><g clip-path="url(#m)"><path fill="none" stroke="#000" stroke-linecap="round" stroke-linejoin="round" stroke-miterlimit="10" stroke-width=".5" d="M187.42578 479.86328l1.42969 1.9961"/></g><g clip-path="url(#n)"><path fill="none" stroke="#000" stroke-linecap="round" stroke-linejoin="round" stroke-miterlimit="10" stroke-width=".5" d="M200.73438 479.8086l-6.94922 1.03906"/></g><g clip-path="url(#o)"><path fill="none" stroke="#000" stroke-linecap="round" stroke-linejoin="round" stroke-miterlimit="10" stroke-width=".5" d="M200.73438 479.8086l1.46093 1.97265"/></g><g clip-path="url(#p)"><path fill="none" stroke="#000" stroke-linecap="round" stroke-linejoin="round" stroke-miterlimit="10" stroke-width=".5" d="M213.96875 479.42578l-6.78906 1.8086"/></g><g clip-path="url(#q)"><path fill="none" stroke="#000" stroke-linecap="round" stroke-linejoin="round" stroke-miterlimit="10" stroke-width=".5" d="M213.96875 479.42578l1.67188 1.79688"/></g><g clip-path="url(#r)"><path fill="none" stroke="#000" stroke-linecap="round" stroke-linejoin="round" stroke-miterlimit="10" stroke-width=".5" d="M227.20313 479.16406l-6.62891 2.33203"/></g><g clip-path="url(#s)"><path fill="none" stroke="#000" stroke-linecap="round" stroke-linejoin="round" stroke-miterlimit="10" stroke-width=".5" d="M227.20313 479.16406l1.80859 1.66016"/></g><g clip-path="url(#t)"><path fill="none" stroke="#000" stroke-linecap="round" stroke-linejoin="round" stroke-miterlimit="10" stroke-width=".5" d="M240.4336 478.94531l-6.45704 2.76563"/></g><g clip-path="url(#u)"><path fill="none" stroke="#000" stroke-linecap="round" stroke-linejoin="round" stroke-miterlimit="10" stroke-width=".5" d="M240.4336 478.94531l1.91406 1.53516"/></g><g clip-path="url(#v)"><path fill="none" stroke="#000" stroke-linecap="round" stroke-linejoin="round" stroke-miterlimit="10" stroke-width=".5" d="M253.6914 478.8125l-6.33984 3.03125"/></g><g clip-path="url(#w)"><path fill="none" stroke="#000" stroke-linecap="round" stroke-linejoin="round" stroke-miterlimit="10" stroke-width=".5" d="M253.6914 478.8125l1.97266 1.45703"/></g><g clip-path="url(#x)"><path fill="none" stroke="#000" stroke-linecap="round" stroke-linejoin="round" stroke-miterlimit="10" stroke-width=".5" d="M267.02344 478.85156l-6.375 2.95313"/></g><g clip-path="url(#y)"><path fill="none" stroke="#000" stroke-linecap="round" stroke-linejoin="round" stroke-miterlimit="10" stroke-width=".5" d="M266.09766 479.28125l.97656.74219"/></g><g clip-path="url(#z)"><path fill="none" stroke="#000" stroke-linecap="round" stroke-linejoin="round" stroke-miterlimit="10" stroke-width=".5" d="M280.38281 478.94922l-6.46484 2.75781"/></g><g clip-path="url(#A)"><path fill="none" stroke="#000" stroke-linecap="round" stroke-linejoin="round" stroke-miterlimit="10" stroke-width=".5" d="M279.4414 479.35156l.95704.76953"/></g><g clip-path="url(#B)"><path fill="none" stroke="#000" stroke-linecap="round" stroke-linejoin="round" stroke-miterlimit="10" stroke-width=".5" d="M293.8164 479.26563l-6.69921 2.125"/></g><g clip-path="url(#C)"><path fill="none" stroke="#000" stroke-linecap="round" stroke-linejoin="round" stroke-miterlimit="10" stroke-width=".5" d="M292.83984 479.57422l.87891.85937"/></g><g clip-path="url(#D)"><path fill="none" stroke="#000" stroke-linecap="round" stroke-linejoin="round" stroke-miterlimit="10" stroke-width=".5" d="M307.10938 479.20703l-6.66016 2.24219"/></g><g clip-path="url(#E)"><path fill="none" stroke="#000" stroke-linecap="round" stroke-linejoin="round" stroke-miterlimit="10" stroke-width=".5" d="M306.14063 479.53516l.89453.84375"/></g><g clip-path="url(#F)"><path fill="none" stroke="#000" stroke-linecap="round" stroke-linejoin="round" stroke-miterlimit="10" stroke-width=".5" d="M320.21094 478.70703l-6.23047 3.2461"/></g><g clip-path="url(#G)"><path fill="none" stroke="#000" stroke-linecap="round" stroke-linejoin="round" stroke-miterlimit="10" stroke-width=".5" d="M319.30469 479.17969l1.01172.6914"/></g><g clip-path="url(#H)"><path fill="none" stroke="#000" stroke-linecap="round" stroke-linejoin="round" stroke-miterlimit="10" stroke-width=".5" d="M333.33984 478.38672l-5.85546 3.88281"/></g><path fill="none" stroke="#000" stroke-linecap="round" stroke-linejoin="round" stroke-miterlimit="10" stroke-width=".5" d="M332.48828 478.95313l1.07813.58203"/><g clip-path="url(#I)"><path fill="none" stroke="#000" stroke-linecap="round" stroke-linejoin="round" stroke-miterlimit="10" stroke-width=".5" d="M346.41016 478.0625l-5.3711 4.53125"/></g><path fill="none" stroke="#000" stroke-linecap="round" stroke-linejoin="round" stroke-miterlimit="10" stroke-width=".5" d="M345.6289 478.72266l1.14063.45703"/><g clip-path="url(#J)"><path fill="none" stroke="#000" stroke-linecap="round" stroke-linejoin="round" stroke-miterlimit="10" stroke-width=".5" d="M359.11328 477.48828l-4.14062 5.67969"/></g><g clip-path="url(#K)"><path fill="none" stroke="#000" stroke-linecap="round" stroke-linejoin="round" stroke-miterlimit="10" stroke-width=".5" d="M372.98438 478l-5.25782 4.66016"/></g><path fill="none" stroke="#000" stroke-linecap="round" stroke-linejoin="round" stroke-miterlimit="10" stroke-width=".5" d="M372.21875 478.67578l1.15234.42969"/><g clip-path="url(#L)"><path fill="none" stroke="#000" stroke-linecap="round" stroke-linejoin="round" stroke-miterlimit="10" stroke-width=".5" d="M384.85156 477.01953l-2.36328 6.61719"/></g><g clip-path="url(#M)"><path fill="none" stroke="#000" stroke-linecap="round" stroke-linejoin="round" stroke-miterlimit="10" stroke-width=".5" d="M395.5039 477.14453l2.96485 6.3711"/></g><path fill="none" stroke="#000" stroke-linecap="round" stroke-linejoin="round" stroke-miterlimit="10" stroke-width=".5" d="M395.9336 478.07031l.74218-.98047"/><g clip-path="url(#N)"><path fill="none" stroke="#000" stroke-linecap="round" stroke-linejoin="round" stroke-miterlimit="10" stroke-width=".5" d="M413.36719 478.61328l-6.13281 3.4336"/></g><g clip-path="url(#O)"><path fill="none" stroke="#000" stroke-linecap="round" stroke-linejoin="round" stroke-miterlimit="10" stroke-width=".5" d="M413.36719 478.61328l2.0625 1.32422"/></g><g clip-path="url(#P)"><path fill="none" stroke="#000" stroke-linecap="round" stroke-linejoin="round" stroke-miterlimit="10" stroke-width=".5" d="M426.98047 479.3125l-6.72656 2.03516"/></g><g clip-path="url(#Q)"><path fill="none" stroke="#000" stroke-linecap="round" stroke-linejoin="round" stroke-miterlimit="10" stroke-width=".5" d="M426.98047 479.3125l1.73047 1.73828"/></g><g clip-path="url(#R)"><path fill="none" stroke="#000" stroke-linecap="round" stroke-linejoin="round" stroke-miterlimit="10" stroke-width=".5" d="M440.04688 478.70313l-6.23047 3.25"/></g><g clip-path="url(#S)"><path fill="none" stroke="#000" stroke-linecap="round" stroke-linejoin="round" stroke-miterlimit="10" stroke-width=".5" d="M440.04688 478.70313l2.02343 1.39062"/></g><g clip-path="url(#T)"><path fill="none" stroke="#000" stroke-linecap="round" stroke-linejoin="round" stroke-miterlimit="10" stroke-width=".5" d="M453.39453 478.76563l-6.29297 3.1289"/></g><g clip-path="url(#U)"><path fill="none" stroke="#000" stroke-linecap="round" stroke-linejoin="round" stroke-miterlimit="10" stroke-width=".5" d="M452.47656 479.21875l1 .71484"/></g><g clip-path="url(#V)"><path fill="none" stroke="#000" stroke-linecap="round" stroke-linejoin="round" stroke-miterlimit="10" stroke-width=".5" d="M467.0625 480.01172l-7 .63281"/></g><g clip-path="url(#W)"><path fill="none" stroke="#000" stroke-linecap="round" stroke-linejoin="round" stroke-miterlimit="10" stroke-width=".5" d="M466.04297 480.10547l.67187 1.02734"/></g><g clip-path="url(#X)"><path fill="none" stroke="#000" stroke-linecap="round" stroke-linejoin="round" stroke-miterlimit="10" stroke-width=".5" d="M147.50781 466.84766l-7.01562.33203"/></g><path fill="none" stroke="#000" stroke-linecap="round" stroke-linejoin="round" stroke-miterlimit="10" stroke-width=".5" d="M147.50781 466.84766l1.2539 2.10937m12.0625-2.1289l-7.01952.37109m7.01953-.3711l1.26562 2.10547m12.04688-2.15234l-7.01172.46484m7.01172-.46484l1.29297 2.08594m11.9961-2.32422l-6.96095.9414m6.96094-.9414l1.4336 1.99219m11.88671-1.95704l-6.97265.8711m6.97265-.8711l1.41407 2.00782m11.83593-2.375l-6.83984 1.60547m6.83984-1.60547l1.6172 1.84375m11.51952-2.39844l-6.48437 2.71484m6.48437-2.71484l1.89844 1.55469m11.2461-1.90235l-6.14454 3.41016m6.14453-3.41016l2.0586 1.33594m11.1289-1.54687l-5.89062 3.83203m5.89062-3.83203l2.14844 1.1875m11.1875-1.15625l-5.92969 3.76953m5.9297-3.76953l2.1328 1.20703m11.28125-1.04297l-6.1289 3.4414m6.1289-3.4414l2.06641 1.32422m11.17188-1.44922l-5.97657 3.6914m5.97657-3.6914l2.12109 1.23828m10.94922-1.58594l-5.48438 4.38672m5.48438-4.38672l2.2539.96875m10.66016-1.39453l-4.6836 5.23828m4.00391-4.47656l1.1914.29297m12.73438-1.11328l-4.54687 5.35547m3.88672-4.57813l1.19922.26172m12.54687-1.21875l-4.08594 5.71484m3.4922-4.8828l1.21484.16015m12.375-1.19531l-3.44922 6.12109m2.94922-5.23047l1.22656.03125m12.96484-.67578l-4.20312 5.6289m3.59375-4.8125l1.21093.1875m11.25391-1.64453l-1.28125 6.91016m1.09375-5.90625l1.17188-.36719m12.2539-.64843l-1.1289 6.93359m.96484-5.92578l1.16016-.39453m14.0625.20312l-4.61329 5.30078m4.61329-5.30078l2.39062.55078m11.3125-.15625l-5.39062 4.51172m5.39062-4.51172l2.27344.92578m11.39453-.41406l-6.09766 3.48828m6.09766-3.48828l2.07812 1.3086m11.15235-1.44922l-5.92969 3.76953m5.0664-3.22266l1.07032.60547m12.84766-1.50781l-5.41016 4.48047m4.625-3.82813l1.13281.46485"/><g clip-path="url(#Y)"><path fill="none" stroke="#000" stroke-linecap="round" stroke-linejoin="round" stroke-miterlimit="10" stroke-width=".5" d="M147.51172 453.5625l-7.02344.27344"/></g><path fill="none" stroke="#000" stroke-linecap="round" stroke-linejoin="round" stroke-miterlimit="10" stroke-width=".5" d="M147.51172 453.5625l1.23437 2.11719m12.08203-2.07031l-7.02734.17968m6.0039-.15625l.60548 1.07031m13.73437-1.05078l-7.02734.09375m6.0039-.07812l.58985 1.07422m13.7461-.98438l-7.02345-.11719m6.00391.10157l.55469 1.08984m13.71875-1.78906l-6.90235 1.3125m5.89844-1.1211l.76953.95313m13.45703-1.52344l-6.71484 2.07031m5.73828-1.76953l.86719.8672m13.28516-1.53907l-6.4375 2.8125m5.5-2.40235l.96484.76172m12.65625-2.14453l-5.17578 4.7539m4.42187-4.0625l1.15625.41016m12.46485-1.5078l-4.28125 5.5703m4.28125-5.5703l2.42187.40624m11.01563-.3086l-4.52344 5.375m4.52344-5.375l2.39843.51173m11.61329.27734l-5.91797 3.79297m5.05468-3.23828l1.07032.60156m13.0703-1.21484l-5.83983 3.91015m5.83984-3.91015l2.16016 1.16015m10.78515-1.62109l-5.10156 4.83203m5.10156-4.83203l2.32422.78125m10.6875-1.0664l-4.4961 5.40234m4.4961-5.40235l2.40234.5m10.60938-.72265l-3.89063 5.85156m3.32422-5l1.22266.11719m12.13672-1.25782l-2.84375 6.42579m2.42969-5.48829l1.22265-.08984m12.44922-.8711l-2.73047 6.47657m2.73047-6.47656l2.4414-.22266m12.58594 1.76563l-6.15625 3.38671m6.15625-3.38671l2.0547 1.34375m11.5664-.59375l-6.76563 1.89062m6.76563-1.89062l1.6914 1.77734m11.71485-.30078l-6.94922-1.0664m5.9375.91405l.40625 1.15625m13.94922-1.27734l-7.00781-.51562m5.98828.4414l.49609 1.1211m13.26563.6328l-5.85938-3.875m5.00781 3.3125l-.11718 1.21876m14.86718-2.60156l-7.02734.01562m6.0039-.01562L440 454.77344m11.72266-4.26172l-2.95313 6.375m2.52344-5.44922l1.22656-.0664m13.83594.1953l-5.58594 4.26172m4.77344-3.64062l1.11328.51172"/><g clip-path="url(#Z)"><path fill="none" stroke="#000" stroke-linecap="round" stroke-linejoin="round" stroke-miterlimit="10" stroke-width=".5" d="M147.46875 440.94922l-6.9375-1.1289"/></g><path fill="none" stroke="#000" stroke-linecap="round" stroke-linejoin="round" stroke-miterlimit="10" stroke-width=".5" d="M147.46875 440.94922l.78906 2.32031M160.8086 440.75l-6.98828-.73438m5.97266.62891l.46094 1.13672m13.79297-.57813l-6.83204-1.64062m20.19922.26953l-6.9375 1.10547m5.92969-.94531l.73828.97656m12.60938-3.0625l-4.98828 4.95313m4.26171-4.23047l1.17188.36328m12.57812-1.34375l-4.40625 5.47265m3.76563-4.67578l1.20703.23047m12.48438-1.22265l-3.875 5.85937m3.3125-5.00781l1.21875.11719m10.85937-1.55079l-.27734 7.02344m.23828-6l1.10547-.53125m12.02734-.49219l.16406 7.02344m-.14062-6l1.07031-.60156m12.71094-.39844l-.8164 6.98047m.8164-6.98047L266.53125 436m11.61719 1.01563l-1.9961 6.73828m1.70704-5.75782l1.19921-.24609m13.29297-.33203l-3.76953 5.92969m3.21875-5.06641l1.22266.09375m12.69922-.91797l-3.88672 5.85156m3.88672-5.85156l2.4453.23828m11.15626-.03125l-4.45703 5.4375m4.45703-5.4375l2.40625.48438m-3.05469.3086l1.20313.24218m12.91797-.89453l-4.77344 5.15625m4.77344-5.15625l2.375.6289m-3.06641.1211l1.1836.3164m12.5664-1.28125l-4.25781 5.58985m4.2578-5.58985l2.42188.39844m10.03907-.8789l-2.55078 6.54687m2.55078-6.54687l2.4375-.28516m9.5039.04687l.19922 7.02344m-.19922-7.02344l2.13282-1.21093m7.76953 4.65234l7.02343.14063m-6.0039-.1211l-.55469-1.09375m19.5039 2.71485l-6.28515-3.14063m5.3711 2.6836l.03124 1.22656m13.89454-.26953l-5.6797-4.13672m4.85548 3.53515l-.17188 1.21485m14.95313-2.21875l-6.96485-.92578m6.96485.92578l.85937 2.29687m12.22656-1.42969l-6.5039-2.66406m6.5039 2.66406l.2422 2.44141m12.90624-5.44922l-6.17187 3.35547m6.17187-3.35547l2.04688 1.35156m9.21093-3.03515l-2.05859 6.71875M464.29297 438l1.20312-.23047"/><g clip-path="url(#aa)"><path fill="none" stroke="#000" stroke-linecap="round" stroke-linejoin="round" stroke-miterlimit="10" stroke-width=".5" d="M147.47656 427.57422l-6.95312-1.01172"/></g><path fill="none" stroke="#000" stroke-linecap="round" stroke-linejoin="round" stroke-miterlimit="10" stroke-width=".5" d="M146.46484 427.42578l.41407 1.15625m13.94922-1.625l-7.02344.22266m6-.1914l.60937 1.0664m13.47266-2.3086l-6.51172 2.64454m5.5625-2.25782l.9414.78516m12.69923-2.17578l-5.26563 4.65234m4.5-3.97656l1.14844.42969m12.46875-1.54297l-4.33594 5.52734m3.70313-4.72265l1.20703.21484m12.17968-1.3789l-3.21484 6.24609m3.21484-6.2461l2.45313-.03515m10.2539-.21094l-2 6.73828m1.70704-5.75781l1.20312-.24219m12.875-.5586l-2.9414 6.37891m2.51562-5.45312l1.22266-.0664m10.54687-1.14845l1 6.95703m-.85547-5.9453l.99219-.72266m11.24219-.01563l2.875 6.41016m-2.45703-5.47657l.7539-.96875m13.58203-.27343v7.02734m0-6.0039L278.23438 424m11.30078-.32031l1.85937 6.77734m14.66406-6.0625l-4.55468 5.34766m3.89062-4.57032l1.19922.26563m12.07422-1.51172l-3.14453 6.28516m3.14453-6.28516l2.45312-.0625m11.46485.44531l-4.35156 5.51953m4.35156-5.51953l2.41406.4375m-3.04687.3672l1.20703.21874m12.95312-.84375l-4.77344 5.16016m4.77344-5.16016l2.3711.625m-3.06641.125l1.1875.3164m13.41797-.34765l-5.96485 3.72266m5.96485-3.72266l2.1211 1.23047m8.3164-2.88281l-.21094 7.02734m.17969-6.0039l1.10156-.54297m10.52344-.08594l3.23437 6.23828m-3.23437-6.23828l1.39453-2.01953m-.92578 2.92578l.69922-1.00781m17.03906 1.9453l-6.55078 2.55079m6.55078-2.55078l1.85937 1.59765m-2.8125-1.22656l1.85938 1.59766m12.3086-2.19531l-6.35157 3.0039m6.35156-3.0039l1.96875 1.46484m-2.89062-1.02734l1.96484 1.46484m-2.89062-1.02734l.98437.73437m13.97656-1.97656l-5.94921 3.73828m5.94921-3.73828l2.12891 1.22265m-2.99219-.67968l2.1289 1.22265m11.7422-2.1875l-5.33203 4.58203m5.33203-4.58203l2.28515.89063m-3.0625-.22266l2.28516.89063m11.53125-1.84375l-4.78125 5.15234m4.78125-5.15234l2.3711.6289m-3.06641.1211l1.18359.3164m12.8164-1.07422l-4.7578 5.16797"/><g clip-path="url(#ab)"><path fill="none" stroke="#000" stroke-linecap="round" stroke-linejoin="round" stroke-miterlimit="10" stroke-width=".5" d="M465.9414 424.48438l2.375.61718"/></g><path fill="none" stroke="#000" stroke-linecap="round" stroke-linejoin="round" stroke-miterlimit="10" stroke-width=".5" d="M465.25 425.23438l2.3711.62109"/><g clip-path="url(#ac)"><path fill="none" stroke="#000" stroke-linecap="round" stroke-linejoin="round" stroke-miterlimit="10" stroke-width=".5" d="M147.51172 413.85156l-7.02344-.19531"/></g><path fill="none" stroke="#000" stroke-linecap="round" stroke-linejoin="round" stroke-miterlimit="10" stroke-width=".5" d="M146.48828 413.82422l.54688 1.09765m13.42968-2.72656l-6.30078 3.11328m5.38281-2.66015l.9961.71875m13.15234-1.32813l-6.13281 3.42969m5.24219-2.92969l1.03125.66406m12.89453-1.58984l-5.57031 4.28125m5.5703-4.28125l2.23438 1.01563M200 411.55469l-5.48047 4.39843M200 411.5547l2.2539.96875M212.5 410.8125l-3.84766 5.88281m3.28516-5.02734l1.22266.11328m9.6953-1.38672l2.07032 6.71485m-1.76953-5.73829l.86719-.86718m16.05078 1.21875l-5.73438 4.0625m4.89844-3.47266l1.09766.55078m10.7461-2.57812l-1.125 6.9375m.96093-5.9297l1.16406-.39452m14.08594.22656l-4.66406 5.2539m3.98437-4.48827l1.19531.28906m8.5586-1.375l3.8164 5.89844m-3.26172-5.03907l.59766-1.07422m17.57813 2.91797L286.96094 414m5.98828-.42188l.65234 1.04297m13.52344-1.9414l-6.6914 2.14843m5.71874-1.83593l.87891.85547m12.27734-2.82422l-4.42578 5.46093m4.42578-5.46093l2.40625.46875m11.91016.84375l-6.42969 2.83593m5.4961-2.42578l.96484.75782m13.57813.05859l-7.01563.38281m7.01563-.38281l1.26953 2.10156m11.57812-3.67187L354 415.51563m6.08203-3.52344l2.08203 1.29687m10.83985-1.84765l-5.29297 4.625m5.29297-4.625l2.29297.875m-3.0625-.20313l2.28906.875m11.90625-1.41015l-5.51953 4.35156m5.51953-4.35156l2.2461.98828m-3.04688-.35547l2.24609.98828m-3.05078-.35547l1.125.4961m14.1875-1.14454l-6.30078 3.11719m6.30078-3.11719l1.99219 1.42969m-2.91016-.97656l1.99219 1.42969m11.72656-2.64844l-5.26953 4.64844m5.26953-4.64844l2.29688.85937m-3.06641-.1836l1.14844.4297m13.60937.03906l-6.61719 2.35937m6.6172-2.35937l1.8125 1.65234m-2.77735-1.3086l.91015.82423m13.20313-1.5586l-6.28516 3.14063m6.28516-3.14063l2 1.42188m-2.91406-.96484l2 1.42187m11.3125-3.02734l-4.45313 5.4375m4.45313-5.4375l2.40625.48047m-3.0547.30859l1.20313.24219m12.625-1.13672l-4.17968 5.64844"/><g clip-path="url(#ad)"><path fill="none" stroke="#000" stroke-linecap="round" stroke-linejoin="round" stroke-miterlimit="10" stroke-width=".5" d="M465.65234 410.92969l2.42579.36328"/></g><path fill="none" stroke="#000" stroke-linecap="round" stroke-linejoin="round" stroke-miterlimit="10" stroke-width=".5" d="M465.04297 411.75l2.42578.36328"/><g clip-path="url(#ae)"><path fill="none" stroke="#000" stroke-linecap="round" stroke-linejoin="round" stroke-miterlimit="10" stroke-width=".5" d="M147.33203 399.32031l-6.66406 2.23438"/></g><path fill="none" stroke="#000" stroke-linecap="round" stroke-linejoin="round" stroke-miterlimit="10" stroke-width=".5" d="M147.33203 399.32031l1.78125 1.6875m10.79688-2.9414l-5.1875 4.74218m4.42968-4.05078l1.15625.41016m12.00782-1.8125l-3.375 6.16406m2.88672-5.26562l1.22656.01562m13.21484-.46875l-4.64844 5.27344m3.97266-4.5039l1.1914.28515m13.91016.83984l-6.86719 1.48828m6.8672-1.48828l1.58202 1.8711m11.26172-3.01954l-5.92578 3.78125m5.0625-3.23046l1.0664.60546m12.98829-1.33203l-5.67969 4.13672m5.67969-4.13672l2.20703 1.07032m10.7461-1.4961l-4.95704 4.98438m4.23438-4.25781l1.17578.35546m13.60547.00782l-6.44531 2.80468m6.4453-2.80468l1.92188 1.52734m11.3789-1.55469l-6.41796 2.86328m5.48438-2.44921l.96875.7578m12.1289-2.58984l-4.10937 5.69922m3.51172-4.8711l1.21484.16407m13-.75l-4.71485 5.21094m4.02735-4.45313l1.1914.30079m11.13672-1.89844l-1.36718 6.89453m1.16796-5.89063l1.17579-.35546m14.64453.94921l-5.98047 3.69532m5.10937-3.15625l1.0586.61718m13.44922-.48437l-6.6211 2.35156m6.6211-2.35156l1.80859 1.66015m11.07812 1.52344l-5.76562-4.01562m4.92578 3.42969l-.14453 1.21875m12.4375-2.64063l-.01953-.19922-.0586-.1914-.09375-.17579-.45703-.3789-.1914-.05469-.19922-.02344-.20313.02344-.1914.05469-.45703.3789-.09375.17579-.0586.1914-.01953.19922.01953.19922.0586.1914.09375.1797.45703.375.1914.05859.20313.01953.19922-.01953.1914-.0586.45703-.375.09375-.17969.0586-.1914.01953-.19922m15.50781-1.42188l-6.42578 2.84375m6.42578-2.84375l1.92969 1.51563m-2.86719-1.10156l.96485.75781m13.0625-1.59375l-5.98047 3.6914m5.98047-3.6914l2.12109 1.23828m-2.98828-.70312l2.11719 1.23828m12.33203-1.2461l-6.51172 2.63282m6.51172-2.63282l1.88281 1.57813m-2.82813-1.19531l1.87891 1.57812m12.10547-2.5039l-5.96094 3.71875m5.96094-3.71875l2.125 1.23046m-2.99219-.6875l2.125 1.23047m11.53125-2.42969l-4.90625 5.03125m4.90625-5.03125l2.35547.6875m-3.07031.04688l2.35547.6875m12.16015-.82813l-5.8789 3.84766m5.8789-3.84765l2.15235 1.17968m-3.00782-.6211l2.15235 1.1836M453.5 399.10937l-6.50781 2.65625m6.50781-2.65625l1.88672 1.57032m-2.83203-1.1836l.9414.78516m13.0625-1.67578l-5.99609 3.66406"/><g clip-path="url(#af)"><path fill="none" stroke="#000" stroke-linecap="round" stroke-linejoin="round" stroke-miterlimit="10" stroke-width=".5" d="M466.5586 398.60547l2.11327 1.2461"/></g><path fill="none" stroke="#000" stroke-linecap="round" stroke-linejoin="round" stroke-miterlimit="10" stroke-width=".5" d="M465.6875 399.14063l1.05469.62109"/><g clip-path="url(#ag)"><path fill="none" stroke="#000" stroke-linecap="round" stroke-linejoin="round" stroke-miterlimit="10" stroke-width=".5" d="M147.35547 386.07813l-6.71094 2.08984"/></g><path fill="none" stroke="#000" stroke-linecap="round" stroke-linejoin="round" stroke-miterlimit="10" stroke-width=".5" d="M146.3789 386.38281l.8711.86328m13.11719-1.86718l-6.10156 3.48828m6.10156-3.48828l2.07422 1.3125m10.78125-1.94141l-5.1836 4.7461m5.1836-4.7461l2.3125.82031m-3.06641-.1289l1.15625.41015m12.05469-1.78515l-3.46875 6.11328m3.46875-6.11328l2.45312.0703m7.32813-.03124l3.59765 6.03515m-3.07422-5.15625l.63672-1.05078m17.39063 3.91407l-6.875-1.44922m6.875 1.44922l.67969 2.35937m12.71093-3.22656l-7.02343.28515m6-.24218l.62109 1.0586m12.78125-3.34767l-5.15234 4.77735m5.15234-4.77735l2.3164.8047m11.29298-.44141l-5.7422 4.05078m5.7422-4.05078l2.1914 1.10937m-3.02734-.51953l1.09765.55469m13.16797-.97266l-5.96875 3.70703m5.96875-3.70703l2.1211 1.23047m11.40234-.84766l-6.38281 2.94141m6.38281-2.9414l1.94922 1.48827m11.45312-1.27734l-6.55859 2.51953m6.5586-2.51953l1.85156 1.60547m10.35546-3.10547l-4.34375 5.51953m3.71094-4.71875l1.20703.21875m13.29297-.48047l-5.44922 4.44141m5.44922-4.4414l2.26172.95312m11.6211.04297l-6.58594 2.44922m6.58593-2.44922l1.83594 1.6289m10.72266-2.83593l-5.07031 4.86328m4.33203-4.15625l1.16406.38281m13.84375.9375l-6.98047.8086m6.98047-.8086l1.39453 2.02344m-2.41016-1.90625l.69532 1.01172m13.4961-1.78516l-6.69923 2.1211m6.69922-2.1211l1.75 1.71484m-2.72656-1.40625l.875.85938m13.28515-1.51563l-6.4375 2.82032m6.4375-2.82032l1.92188 1.51954m-2.85938-1.10938l1.92579 1.51953m12.17187-2.24219l-6.1289 3.44141m6.1289-3.4414l2.0625 1.32421m-2.95703-.82422l2.0664 1.32422m11.9922-2.0664l-5.82813 3.92578m5.82812-3.92578l2.16797 1.15234m-3.01562-.58203l1.08203.57812m12.59375-1.72656l-4.85156 5.08203m4.85156-5.08203l2.36328.66406m-3.07031.07422l1.1836.33203m12.39452-1.42968l-3.96484 5.80078m3.96484-5.80078l2.4414.27343m-3.01562.57032l2.4375.27343m12.73828.5l-6.53906 2.56641m6.53906-2.5664l1.8672 1.59765m-2.81641-1.22266l.92968.79688m12.70703-2.20703l-5.28125 4.63672"/><g clip-path="url(#ah)"><path fill="none" stroke="#000" stroke-linecap="round" stroke-linejoin="round" stroke-miterlimit="10" stroke-width=".5" d="M466.20313 384.80469l2.29296.86719"/></g><path fill="none" stroke="#000" stroke-linecap="round" stroke-linejoin="round" stroke-miterlimit="10" stroke-width=".5" d="M465.4336 385.48047l1.14843.4336"/><g clip-path="url(#ai)"><path fill="none" stroke="#000" stroke-linecap="round" stroke-linejoin="round" stroke-miterlimit="10" stroke-width=".5" d="M141.52734 371.3125l4.94532 4.99219"/></g><path fill="none" stroke="#000" stroke-linecap="round" stroke-linejoin="round" stroke-miterlimit="10" stroke-width=".5" d="M160.44922 372.22266l-6.26953 3.17187m5.35937-2.71094l1 .70704m13.24219-1.13672l-6.30078 3.10937m6.30078-3.10937l1.99219 1.42968m9.94531-2.91015l-3.54688 6.0664m3.03125-5.18359l1.22657.05078m13.03906-.63281l-4.41797 5.46484m4.41797-5.46484l2.41016.46875m11.73047.4961l-6.07032 3.53906m6.07031-3.53907l2.08594 1.29297m10.52344-2.15625l-4.65625 5.26563m4.65625-5.26563l2.38281.57031m11.8164.64063l-6.42577 2.84375m6.42578-2.84375l1.92969 1.51172m-2.86328-1.09766l.96484.7539m13.05469-1.60546l-5.96485 3.71484m5.96485-3.71484l2.12109 1.23047m10.42578-2.09766l-4.42969 5.45313m4.4297-5.45313l2.41015.47266m-3.05469.32031l1.20313.23438m12.71875-1.0586l-4.35547 5.51563m4.35547-5.51563l2.41406.4375m11.4375.08985l-5.42969 4.46093m5.42969-4.46094l2.26562.94141m11.17578-.77734l-5.67968 4.13281m4.85546-3.53125l1.10157.53516m13.2539-.8047l-6.11328 3.46485m6.11328-3.46484l2.07032 1.3164M332.52344 371l-4.22266 5.61719M332.52344 371l2.42187.38281m11.52344.23047l-5.48438 4.39063m5.48438-4.39063l2.2539.97266m11.78126.63672l-6.92579 1.17187m6.92579-1.17187L362 375.16796m-2.5039-1.77343l.75.97266m13.57421-1.14844l-6.92578 1.17969m6.92578-1.17969l1.5 1.9414m11.63672-2.59765l-6.57031 2.49219m6.57031-2.49219l1.84375 1.61719M386 372.92579l.92188.80858m13.4414-.89453l-6.7539 1.9375m6.7539-1.9375l1.70313 1.76563m-2.6836-1.48438l.85156.88282m13.1875-1.8086l-6.24218 3.22656m6.24219-3.22656l2.01953 1.39453m-2.92579-.92578l1.00782.69531m12.88672-1.68359l-5.58594 4.26563m5.58594-4.26563l2.23046 1.02344m10.57422-1.5625l-4.5664 5.34375m4.5664-5.34375l2.39454.53125m-3.0586.2461l1.19531.26562m12.5547-1.22266l-4.10938 5.70313m4.10937-5.70313l2.42969.33203m9.94922-.8125l-2.23438 6.66406m2.23438-6.66406l2.42187-.40234"/><g clip-path="url(#aj)"><path fill="none" stroke="#000" stroke-linecap="round" stroke-linejoin="round" stroke-miterlimit="10" stroke-width=".5" d="M140.5039 360.14453l6.9922.69922"/></g><path fill="none" stroke="#000" stroke-linecap="round" stroke-linejoin="round" stroke-miterlimit="10" stroke-width=".5" d="M153.82813 360.9375l6.97265-.89063m-5.95703.76172l-.70703-1m20.0039.78125l-7.02343-.1953m6.0039.16796l.54688 1.09766m13.19531-3.1211l-5.83594 3.91016m4.98828-3.34375l1.08204.58203m12.93359-1.35156l-5.54297 4.3164m4.73828-3.6875l1.1211.5m13.57812-.03125l-6.69922 2.1211m5.72266-1.8125l.8789.85937m13.39454-1.22265l-6.66407 2.23046m5.69532-1.90625l.89062.84375m13.21484-1.60156l-6.30859 3.09375m5.39063-2.64062l.99609.71875m12.86719-1.76563l-5.5664 4.28516m4.7578-3.66406l1.1172.5078m13.15233-.92577l-5.86328 3.875m5.01172-3.3086l1.07813.58594m13.1211-1.10156l-5.92579 3.77344m5.0625-3.22266l1.07031.60156m12.98047-1.33984l-5.66797 4.15234m4.84375-3.55078l1.10156.53516m12.58594-1.64063l-4.76953 5.16016m4.07813-4.41016l1.18359.3125m11.28125-1.89453l-1.6836 6.82422m1.4375-5.83203l1.19141-.30078m14.89063 1.70312l-6.72657 2.03125m5.75-1.73437l.86329.8711m13.34765-1.41017l-6.5625 2.51563m5.60547-2.14844l.92578.80469m13.53125-.48047l-6.9336 1.13672m5.92579-.97266l.74219.97657m13.60156-.14063l-6.97266-.86719m6.97266.8672l.875 2.29296m12.3125-3.7461l-6.72266 2.04298m5.7461-1.7461l.86718.86719m13.00782-2.0586l-5.88672 3.83204m5.88672-3.83204l2.14843 1.1875m10.76172-1.70312l-5.07422 4.86328m5.07422-4.86328l2.32813.76563m10.26953-1.33985l-3.64453 6.00781m3.64453-6.0078l2.45312.14062m10.60547-.28125l-3.1289 6.29296m3.1289-6.29296l2.45313-.06641m9.69531-.27734l-.79687 6.98046m.79687-6.98046l2.28125-.90235m12.47266 1.39453l-3.67188 5.9922"/><g clip-path="url(#ak)"><path fill="none" stroke="#000" stroke-linecap="round" stroke-linejoin="round" stroke-miterlimit="10" stroke-width=".5" d="M465.39844 357.4961l2.44922.14843"/></g><g clip-path="url(#al)"><path fill="none" stroke="#000" stroke-linecap="round" stroke-linejoin="round" stroke-miterlimit="10" stroke-width=".5" d="M141.10938 345.17969l5.78125 3.9961"/></g><path fill="none" stroke="#000" stroke-linecap="round" stroke-linejoin="round" stroke-miterlimit="10" stroke-width=".5" d="M154.01563 345.96875l6.59765 2.41797m10.6289 2.25l-1.22265-6.91797m1.04297 5.91406l-.96484.7539m15.17187.04688l-2.64844-6.5078m11.67578 5.14062l5.92579-3.77344m8.14453 4.6211l4.41406-5.46876m12.13281 2.73438l-.01953-.19922-.0586-.19531-.09374-.17579-.46094-.375-.1914-.05859-.19923-.01953-.19921.01953-.19141.0586-.46094.375-.09375.17578-.0586.1953-.01952.19923.01953.19922.0586.1914.09374.17578.46094.375.1914.0586.19923.01953.19921-.01953.19141-.0586.46094-.375.09375-.17578.0586-.1914.01952-.19922m15.38281-1.67188l-6.18359 3.33985m5.28516-2.85547l1.01953.67969m12.51953-2.04297l-4.83594 5.09765m4.13281-4.35547l1.1836.32813m11.84766-1.73047l-2.85938 6.41797m2.4414-5.48438l1.22657-.08593m13.0586-.53907l-3.96094 5.8047m12.61328-5.17579l5.35937 4.54297m14.04688-1.42188l-6.82032-1.6953m5.82813 1.4453l.29687 1.19141m8.03516-4.1914l5.1289 4.80077m8.01173-4.60156l5.47656 4.40235m8.42578-4.98047l4.30078 5.5586m-3.67187-4.75l.5039-1.1172m14.28516 6.60157l.09765-7.02735m-.08593 6.0039l-1.08985.5625m13.79297.40235l1.30078-6.90625m16.07813 4.28125l-6.82813-1.66015m5.83594 1.41796l.30078 1.19141m13.875-3.03125l-6.5664 2.5039m5.60937-2.13671l.92578.80469m12.16406-2.73829l-4.19921 5.63672m3.58593-4.8164l1.21485.1875m12.60937-1.08203l-3.99219 5.78515m3.9922-5.78515l2.4375.28515m10.38671-.5664l-3.01562 6.34765m3.01562-6.34765l2.45313-.10938m10.40234-.07031l-2.09375 6.70703m2.09375-6.70703l2.41016-.45313m12.79296 1.875l-5.87109 3.86329m5.01953-3.30079l1.07422.58985"/><g clip-path="url(#am)"><path fill="none" stroke="#000" stroke-linecap="round" stroke-linejoin="round" stroke-miterlimit="10" stroke-width=".5" d="M143.52734 330.38281l.94532 6.96094"/></g><g clip-path="url(#an)"><path fill="none" stroke="#000" stroke-linecap="round" stroke-linejoin="round" stroke-miterlimit="10" stroke-width=".5" d="M143.66406 331.39453l.9961-.71484"/></g><path fill="none" stroke="#000" stroke-linecap="round" stroke-linejoin="round" stroke-miterlimit="10" stroke-width=".5" d="M158.65625 330.61719l-2.6836 6.49219m2.29298-5.54688l1.22265-.1211m14.49219 3.47266l-6.70313-2.10156m5.73047 1.79688l.22266 1.20703m11.72266 1.41015l-2.01563-6.73047m1.72266 5.75391l-.8711.86328m16.86328-2.33203l-6.78515-1.83594m5.79687 1.5664l.27344 1.19532m14.04688-.98828l-6.81641-1.71094m5.82422 1.46094l.29297 1.1914m13.70312-.13671l-6.19531-3.32031m5.29297 2.83593l-.0039 1.22656m14.14452-.60937l-6.04297-3.58594m18.89063-.6211l-5.10547 4.82813m4.36328-4.125l1.16016.39063m11.26562-2.07031l-1.84765 6.78125m1.58203-5.79297l1.19531-.27344m11.26563-.83203l.39453 7.01562m-.33985-5.99609l1.05078-.63672m9.8125.7539l5.1875 4.73829m-4.43359-4.04688l.30469-1.1875m11.76172 4.53907l6.17968-3.34375m-5.28125 2.85937l-1.02343-.67969m19.7578.88282l-6.45702-2.78125m5.51562 2.375l.10157 1.22265m8.09765-.1211l5.65625-4.17187m-5.65625 4.17188l-2.21094-1.0586m16.76172 2.10547l3.1875-6.26562m-2.72265 5.35156l-1.22657.02344m13.90235.79297l3.53515-6.07031m-3.01953 5.1875l-1.22656-.04688m15.01563 1.32031l1.55859-6.85156m-1.33203 5.85547l-1.1836.32031m15.14454.76172l-.19141-7.02344m.16406 6l-1.0664.60547m17.43359-1.47265l-6.23828-3.2422m5.32812 2.76954l.01172 1.22656m14.39063-3.58594l-6.59375 2.42188m5.63672-2.07031l.91406.8164m13.17578-1.58594l-6.22656 3.25782m6.22656-3.25781l2.02344 1.3828m9.57422-2.97656l-2.79297 6.44532m2.79297-6.44531l2.4453-.19532m11.66407.67188l-4.38281 5.49219m4.38281-5.4922l2.41406.44923m11.9336.90234l-6.44922 2.78906"/><g clip-path="url(#ao)"><path fill="none" stroke="#000" stroke-linecap="round" stroke-linejoin="round" stroke-miterlimit="10" stroke-width=".5" d="M466.78516 332.46875L468.70312 334"/></g><g clip-path="url(#ap)"><path fill="none" stroke="#000" stroke-linecap="round" stroke-linejoin="round" stroke-miterlimit="10" stroke-width=".5" d="M143.98828 317.03516l.02344 7.02734"/></g><g clip-path="url(#aq)"><path fill="none" stroke="#000" stroke-linecap="round" stroke-linejoin="round" stroke-miterlimit="10" stroke-width=".5" d="M143.99219 318.0586l1.08203-.58204"/></g><path fill="none" stroke="#000" stroke-linecap="round" stroke-linejoin="round" stroke-miterlimit="10" stroke-width=".5" d="M160.45313 318.96484l-6.27344 3.16407m5.35937-2.70313l1.0039.70703m13.53517-.26562l-6.89454 1.36328m5.89063-1.16406l.77344.94921m13.5625-1.05468l-6.9297 1.17187m5.92188-1l.7461.97266m13.59375-.09375l-6.96485-.92969m5.95313.79688l.42578 1.14843m13.91797-1.17968l-7-.59766m5.98437.51172l.48047 1.125m13.60156-2.67578l-6.5 2.67578m6.5-2.67578l1.89063 1.5625m11.14453-2.09766l-5.9414 3.7461m5.9414-3.7461l2.13281 1.21485m10.41797-2.07813l-4.41406 5.46875m4.41406-5.46875l2.41016.46484m10.29687-.85937l-3.1953 6.25781m3.1953-6.25781l2.45313-.04297m10.39453-.15234l-2.26172 6.65234m2.26172-6.65234l2.42188-.39454m10.6914.33204l-1.85547 6.77734m1.85547-6.77734l2.39453-.53907m10.05078.41407l-.11718 7.02734m.10156-6.0039l1.09375-.5586m12.8711-.39844l-1.38673 6.89063m11.38282-5.77735l5.2539 4.66407m-4.49218-3.98438l.28906-1.1914m11.92578 4.73046l5.92969-3.77343m-5.9297 3.77343l-2.13671-1.20703m15.91797 1.79297l4.9961-4.9414m-4.9961 4.9414l-2.34375-.73047m14.73047-.96094l6.85156-1.55859m-6.85156 1.5586l-1.60156-1.85938m17.16796 4.39063l2.35157-6.6211m-2.35157 6.6211l-2.42968.35937m16.94922-.15625l-.0586-7.02734m.0586 7.02734l-2.15625 1.16797m17.1875-1.63281l-3.4922-6.09766m2.98438 5.21094l-.65234 1.03515m16.21094-3.67187l-6.96094.94922m5.94922-.8125l.71484.9961m12.08985-3.57423l-3.91797 5.83203m3.91797-5.83203l2.4414.25m11.89063.79688l-5.95313 3.73828m5.95313-3.73828l2.1289 1.22265m11.5586-.41796l-6.69532 2.1289"/><g clip-path="url(#ar)"><path fill="none" stroke="#000" stroke-linecap="round" stroke-linejoin="round" stroke-miterlimit="10" stroke-width=".5" d="M466.91016 319.48438l1.7539 1.71484"/></g><path fill="none" stroke="#000" stroke-linecap="round" stroke-linejoin="round" stroke-miterlimit="10" stroke-width=".5" d="M465.9336 319.79297l.8789.85547"/><path fill="#00f" fill-rule="evenodd" d="M388.23828 467.64844h8.61719V457.5039h-8.61719v10.14453"/><path fill="azure" fill-rule="evenodd" d="M390.07031 459.33594h.83594v2.82422h3.28516v-2.82422h.83203v6.48047h-.83203v-2.91797h-3.28516v2.91797h-.83594v-6.48047"/><path fill="#00f" fill-rule="evenodd" d="M383.80078 436.57813h8.61719v-10.14454h-8.61719v10.14454"/><path fill="azure" fill-rule="evenodd" d="M385.63281 428.26563h.83203v2.82421h3.28907v-2.82421h.83203v6.48046h-.83203v-2.91406h-3.28907v2.91406h-.83203v-6.48046"/><path fill="#ff3030" fill-rule="evenodd" d="M375.61719 418.82813h7.69531v-10.14844h-7.69531v10.14844"/><path fill="azure" fill-rule="evenodd" d="M377.44922 410.51172h.83594v5.74219h3.1914v.73828h-4.02734v-6.48047"/><path fill="#ff3030" fill-rule="evenodd" d="M295.72656 409.94922h7.69531v-10.14453h-7.6953v10.14453"/><path fill="azure" fill-rule="evenodd" d="M297.5586 401.63672h.83593v5.73828h3.1914v.74219h-4.02734v-6.48047"/><path fill="#00f" fill-rule="evenodd" d="M370.48438 396.63281h8.62109v-10.14453h-8.6211v10.14453"/><path fill="azure" fill-rule="evenodd" d="M372.3164 388.32031h.83594v2.82422h3.28516v-2.82422h.83203v6.48047h-.83203v-2.91406h-3.28516v2.91406h-.83593v-6.48047"/><path fill="#ff3030" fill-rule="evenodd" d="M189.20703 378.88281h7.6914v-10.14844h-7.6914v10.14844"/><path fill="azure" fill-rule="evenodd" d="M191.03906 370.5664h.83594v5.7422h3.1914v.73827h-4.02734v-6.48046"/><path fill="#ffffe0" fill-rule="evenodd" d="M341.74219 358.3789h22.1836v-10.1953h-22.1836v10.1953"/><path fill-rule="evenodd" d="M345.24219 350.01953h.51172v6.29297h-.78907v-4.48828h-1.38671v-.55469l.55859-.0664.2539-.0547.22657-.08984.20312-.14062.17578-.21094.14063-.29297.10547-.39453m4.8164 0l.22657.01953.21875.05469.21093.08984.19532.1211.18359.14844.17188.17578.30078.41796.24218.4961.1797.54687.11327.57813.03906.58984-.03906.59375-.11328.58203-.17969.5547-.24218.5039-.30079.42578-.17187.17969-.1836.15625-.1953.12109-.21094.09375-.21875.05469-.22657.01953-.23046-.01953-.21875-.05469-.20704-.09375-.19921-.1211-.1836-.15624-.17187-.1797-.30079-.42577-.24218-.5039-.17969-.5547-.11328-.58203-.03906-.59375h.83593l.02735.5625.08203.50781.125.44141.16406.375.1914.30078.21094.22266.22266.13672.22656.04687.22657-.04687.22265-.13672.21094-.22266.1875-.30078.16406-.375.125-.4414.08203-.50782.03125-.5625-.03125-.5625-.08203-.5-.125-.4336-.16406-.36718-.1875-.29297-.21094-.21094-.22265-.1328-.22657-.04688-.22656.04687-.22265.13281-.21094.21094-.1914.29297-.16407.36719-.125.4336-.08203.5-.02735.5625h-.83593l.03906-.58985.11328-.57813.17969-.54687.24219-.4961.30078-.41796.17187-.17579.1836-.14843.19921-.1211.20704-.08984.21875-.05469.23046-.01953m5.08985 0h.50781v6.29297h-.78516v-4.48828h-1.39062v-.55469l.5625-.0664.25-.0547.23047-.08984.20312-.14062.17578-.21094.14063-.29297.10547-.39453m2.82422 2.17578h.78515l.01953-.3164.0586-.28907.10156-.25.14063-.21484.17968-.17578.22266-.1289.26562-.08204.3086-.02734.23828.02344.22265.0625.20313.10156.17969.13672.14844.17578.11328.20312.07421.23828.02344.26172-.01953.26953-.0664.22657-.10938.1914-.15625.17188-.20313.16015-.24609.16797-.63281.38672-.53906.3125-.4375.32031-.34375.32422-.26563.33594-.1914.34766-.125.37109-.06641.39453-.02344.41797h4.21485v-.73828h-3.33594l.08594-.28516.11328-.23828.14843-.19922.1875-.1836.23047-.16796.27735-.17578.71875-.41797.41406-.20703.34375-.23047.28125-.25.22265-.26563.16016-.28125.11328-.28125.0625-.28515.01953-.28125-.03906-.38281-.1211-.34766-.1914-.3086-.25-.26562-.30078-.21094-.34766-.15625-.3789-.10156-.40625-.03125-.4336.03125-.39843.09766-.35547.16797-.30469.23437-.25.30469-.1836.375-.11718.44531-.03906.51953"/><path fill="#ffffe0" fill-rule="evenodd" d="M221.91016 380.07813h22.17968v-10.19141h-22.17968v10.1914"/><path fill-rule="evenodd" d="M225.40625 371.71875h.51172v6.29297h-.78906v-4.48828h-1.38672v-.55469l.5586-.0664.2539-.05079.22656-.08984.20313-.14453.17578-.20703.14062-.29688.10547-.39453m4.8164 0l.22657.01953.21875.05469.21094.08984.1953.1211.1836.14843.17188.17579.30078.42187.2461.49219.17968.54687.10938.57813.03906.58984-.03906.59375-.10938.58594-.17969.55469-.2461.5-.30077.42968-.17188.1797-.1836.15233-.1953.125-.21094.08985-.21875.0586-.22656.01952-.23047-.01953-.21875-.0586-.20703-.08983-.19922-.125-.1836-.15235-.17187-.17969-.30078-.42968-.24219-.5-.17969-.5547-.11328-.58593-.03906-.59375h.83594l.02734.5664.08203.50391.125.44141.16406.375.19141.30078.21094.22266.22265.13672.22657.04687.22656-.04687.22266-.13672.21093-.22266.1875-.30078.16406-.375.125-.4414.08204-.50391.03125-.5664-.03125-.5586-.08203-.5-.125-.4375-.16407-.36328-.1875-.29297-.21094-.21485-.22265-.1328-.22656-.04298-.22657.04297-.22265.13281-.21094.21485-.1914.29297-.16407.36328-.125.4375-.08203.5-.02734.5586h-.83594l.03906-.58985.11328-.57813.17969-.54687.24219-.49219.30078-.42188.17187-.17578.1836-.14843.19922-.1211.20703-.08984.21875-.05469.23047-.01953m5.08984 0h.50781v6.29297h-.78515v-4.48828h-1.38672v-.55469l.5586-.0664.25-.05079.23046-.08984.20313-.14453.17578-.20703.14062-.29688.10547-.39453m2.82422 2.17578h.78516l.01953-.3164.0625-.28516.09765-.2539.14063-.21485.17969-.17578.22265-.1289.26563-.07813.30859-.02735.23828.01953.22266.0625.20312.10157.17969.14062.14844.17188.11328.20703.07422.23437.02344.26563-.01954.26953-.0664.22265-.10938.19141-.15625.17188-.20312.16406-.2461.16406-.6328.39063-.53907.3125-.4375.3164-.34375.32422-.26563.33594-.1914.35156-.125.3711-.0664.39062-.02345.41797h4.21485v-.73828H238.875l.08594-.28516.11328-.23437.14844-.20313.1875-.17969.23047-.17187.27734-.17578.71875-.41797.41406-.20313.34766-.23046.27734-.25391.22266-.26563.16015-.27734.11328-.28516.0625-.28515.01954-.28125-.03907-.38281-.12109-.34766-.1914-.3086-.25-.26171-.30079-.21485-.34375-.15625-.38281-.09765-.40625-.03516-.4336.03125-.39843.10156-.35547.16406-.30469.23438-.25.30469-.1836.375-.11718.44531-.03906.51953"/><path fill="#ffffe0" fill-rule="evenodd" d="M199.71484 424.95313h22.1836V414.7578h-22.1836v10.19531"/><path fill-rule="evenodd" d="M203.21484 416.59375h.51172v6.29297h-.78906v-4.48828h-1.38672v-.55469l.5586-.0664.2539-.0547.22656-.08984.20313-.14062.17578-.21094.14063-.29297.10546-.39453m4.81641 0l.22656.01953.21875.05469.21094.08984.19531.1211.1836.14843.17187.17579.30078.41796.24219.4961.17969.54687.11328.57813.03906.58984-.03906.59375-.11328.58594-.17969.55078-.24219.5039-.30078.42579-.17187.17969-.1836.15625-.19531.12109-.21094.09375-.21875.05469-.22656.01953-.23047-.01953-.21875-.0547-.20703-.09374-.19922-.1211-.1836-.15625-.17187-.17968-.30078-.42578-.24219-.50391-.17968-.55078-.11328-.58594-.03907-.59375h.83594l.02734.5625.08203.50781.125.44141.16407.375.1914.30078.21094.22266.22266.13672.22656.04687.22656-.04687.22266-.13672.21094-.22266.1875-.30078.16406-.375.125-.4414.08203-.50782.03125-.5625-.03125-.5625-.08203-.5-.125-.4336-.16406-.36718-.1875-.29297-.21094-.21094-.22266-.1328-.22656-.04688-.22656.04687-.22266.13281-.21094.21094-.1914.29297-.16406.36719-.125.4336-.08204.5-.02734.5625h-.83594l.03906-.58985.11329-.57813.17968-.54687.2422-.4961.30077-.41796.17188-.17579.1836-.14843.19921-.1211.20703-.08984.21875-.05469.23047-.01953m5.08984 0h.50782v6.29297h-.78516v-4.48828h-1.39063v-.55469l.5625-.0664.25-.0547.23047-.08984.20313-.14062.17578-.21094.14063-.29297.10546-.39453m2.82422 2.17578h.78516l.01953-.3164.0586-.28907.10156-.25.14062-.21484.17969-.17578.22266-.1289.26562-.08204.3086-.02734.23827.02343.22266.0625.20313.10157.17968.13671.14844.17579.11328.20312.07422.23828.02344.26172-.02344.26953-.0625.22656-.11328.19141-.15234.17188-.20313.16015-.2461.16797-.6328.38672-.53907.3164-.4375.31641-.34765.32422-.26172.33594-.1914.35156-.125.36719-.06642.39453-.02343.41797h4.21484v-.73828h-3.33594l.08594-.28516.11328-.23828.14844-.19922.1875-.17969.23047-.17187.27734-.17578.71875-.41797.41406-.20703.34375-.23047.28125-.25.22266-.26563.16016-.28125.11328-.28125.0625-.28515.01953-.28125-.03906-.38281-.1211-.34766-.1914-.3086-.25-.26171-.30078-.21485-.34766-.15625-.3789-.10156-.40626-.03125-.43359.03125-.39844.09766-.35547.16796-.30468.23438-.25.30469-.1836.375-.11719.44531-.03906.51953"/><path fill="#ffffe0" fill-rule="evenodd" d="M240.3125 454.5664h22.1836v-10.1953h-22.1836v10.1953"/><path fill-rule="evenodd" d="M243.8125 446.20703h.51172V452.5h-.78906v-4.48828h-1.38672v-.55469l.5586-.0664.2539-.0547.22656-.08984.20313-.14062.17578-.21094.14062-.29297.10547-.39453m4.8164 0l.22657.01563.21875.05859.21094.08984.1953.1211.1836.14844.17188.17578.30078.41796.24219.4961.17968.54297.11328.58203.03907.58984-.03906.59375-.11329.58203-.17968.5547-.2422.5039-.30077.42578-.17188.17969-.1836.15625-.1953.12109-.21094.09375-.21875.05469-.22656.01953-.23047-.01953-.21875-.05469-.20703-.09375-.19922-.1211-.1836-.15624-.17187-.1797-.30078-.42577-.24219-.5039-.17969-.5547-.11328-.58203-.03906-.59375h.83594l.02734.5625.08203.50781.125.44141.16406.375.19141.30078.21094.22266.22265.13672.22657.04687.22656-.04687.22266-.13672.20703-.22266.1914-.30078.16406-.375.125-.4414.08204-.50782.02734-.5625-.02734-.5625-.08203-.5-.125-.4336-.16407-.36718-.1914-.29297-.20703-.21484-.22266-.1289-.22656-.04688-.22657.04687-.22265.1289-.21094.21485-.1914.29297-.16407.36719-.125.4336-.08203.5-.02734.5625h-.83594l.03906-.58985.11328-.58203.17969-.54297.24219-.4961.30078-.41796.17187-.17579.1836-.14843.19922-.1211.20703-.08984.21875-.0586.23047-.01562m5.08984 0h.50781V452.5h-.78515v-4.48828h-1.39063v-.55469l.5625-.0664.25-.0547.23047-.08984.20313-.14062.17578-.21094.14062-.29297.10547-.39453m2.82422 2.17188h.78515l.01954-.3125.05859-.28907.10156-.25.14063-.21875.17969-.17187.22265-.1289.26563-.08204.30859-.02734.23828.02344.22266.0625.20312.10156.17969.13672.14844.17578.11328.20312.07422.23828.02344.26172-.02344.26953-.0625.22657-.11328.1914-.15235.17188-.20312.16015-.2461.16797-.6328.38672-.53907.3125-.4375.32031-.34766.32422-.26172.33594-.1914.34766-.125.37109-.0664.39453-.02345.41797h4.21094v-.74219h-3.33203l.08594-.28125.11328-.23828.14844-.19922.1875-.1836.23046-.16796.27735-.17578.71875-.41797.41406-.20703.34375-.23047.28125-.25.22266-.26563.16015-.28125.11329-.28125.0625-.28515.01953-.28125-.03907-.38281-.12109-.34766-.1914-.3086-.25-.26562-.30079-.21094-.34765-.16015-.37891-.09766-.40625-.03125-.4336.03125-.39843.09766-.35547.16797-.30469.23437-.25.30469-.1836.375-.11718.44531-.03906.51563"/><path fill="#ffffe0" fill-rule="evenodd" d="M199.71484 334.78125h22.1836v-10.1914h-22.1836v10.1914"/><path fill-rule="evenodd" d="M203.21484 326.42188h.51172v6.29687h-.78906v-4.49219h-1.38672v-.55469l.5586-.0664.2539-.05078.22656-.08985.20313-.14062.17578-.21094.14063-.29687.10546-.39454m4.81641 0l.22656.01954.21875.05468.21094.08985.19531.1211.1836.14843.17187.17578.30078.42188.24219.49218.17969.54688.11328.57812.03906.59375-.03906.58985-.11328.58593-.17969.5547-.24219.5-.30078.42968-.17187.17969-.1836.15234-.19531.125-.21094.08984-.21875.0586-.22656.01953-.23047-.01953-.21875-.0586-.20703-.08984-.19922-.125-.1836-.15234-.17187-.1797-.30078-.42968-.24219-.5-.17968-.55469-.11328-.58593-.03907-.58985h.83594l.02734.5625.08203.5039.125.44532.16407.375.1914.29688.21094.22265.22266.13672.22656.04688.22656-.04688.22266-.13672.21094-.22265.1875-.29688.16406-.375.125-.44531.08203-.5039.03125-.5625-.03125-.5625-.08203-.5-.125-.4375-.16406-.36329-.1875-.29297-.21094-.21484-.22266-.13281-.22656-.04297-.22656.04297-.22266.1328-.21094.21485-.1914.29297-.16406.36328-.125.4375-.08204.5-.02734.5625h-.83594l.03906-.59375.11329-.57812.17968-.54688.2422-.49219.30077-.42187.17188-.17578.1836-.14844.19921-.1211.20703-.08984.21875-.05468.23047-.01954m5.08984 0h.50782v6.29688h-.78516v-4.49219h-1.39063v-.55469l.5625-.0664.25-.05078.23047-.08985.20313-.14062.17578-.21094.14063-.29687.10546-.39454m6.8047 1.6211h-.78907l-.05078-.21094-.08203-.1875-.10547-.16015-.1289-.12891-.14845-.10547-.16015-.07422-.16797-.04297-.17188-.01562-.32812.03906-.28906.1211-.2461.1953-.20312.26954-.16016.33594-.11719.40625-.0703.46484-.02345.52734.19141-.20312.1836-.15625.1875-.125.18359-.08594.1914-.0625.19141-.03516.39844-.02343.3086.02734.3203.09375.31641.15625.29297.21875.25781.28516.19922.34765.07031.20313.05469.21484.02734.23438.00391.2539-.78516.04688-.02734-.26172-.07813-.25-.12109-.23438-.16016-.21093-.1953-.17579-.21876-.13671-.24219-.08985-.2539-.03125-.2539.03125-.2422.08985-.21875.13671-.1914.17579-.16406.21093-.1211.23438-.07812.25-.02735.26172.02735.25781.07812.25.1211.23438.16406.21093.1914.17969.21875.13672.2422.08594.2539.03125.2539-.03125.2422-.08594.21874-.13672.19531-.17969.16016-.21094.1211-.23437.07812-.25.02734-.25781.78516-.04688-.02734.3711-.09375.37109-.15625.35938-.22266.32812-.29297.28125-.16797.1211-.1914.10156-.20313.08203-.22266.0625-.24218.03906-.26172.01172-.28125-.01563-.26172-.04687-.23828-.07813-.21484-.10546-.19532-.12891-.17187-.15625-.15625-.17969-.13281-.20312-.1172-.22266-.10155-.24219-.14454-.53515-.08593-.59375-.02735-.64063.03906-.74219.11329-.66406.1875-.57812.12109-.25391.13672-.23047.15234-.20703.17188-.1836.1836-.15624.20312-.12891.21875-.10156.23047-.07031.25-.04688.26171-.01563.36328.03516.33594.09375.29297.15235.25781.19921.21094.2422.16406.27343.1172.30078.0625.32422"/></g></defs><use xlink:href="#as"/></svg>