<svg xmlns="http://www.w3.org/2000/svg" role="img" xmlns:xlink="http://www.w3.org/1999/xlink" viewBox="142.45 309.95 326.84 171.84"><defs><clipPath id="a"><path d="M144 373h1v107.32813h-1zm0 0"/></clipPath><clipPath id="b"><path d="M144 311.67188h324v168.65625H144zm0 0"/></clipPath><clipPath id="c"><path d="M144 311.67188h3V315h-3zm0 0"/></clipPath><clipPath id="d"><path d="M467 311.67188h1v168.65625h-1zm0 0"/></clipPath><clipPath id="e"><path d="M144 479h4v1.32813h-4zm0 0"/></clipPath><clipPath id="f"><path d="M146 480h1v.32813h-1zm0 0"/></clipPath><clipPath id="g"><path d="M153 479h9v1.32813h-9zm0 0"/></clipPath><clipPath id="h"><path d="M160 480h2v.32813h-2zm0 0"/></clipPath><clipPath id="i"><path d="M159 480h2v.32813h-2zm0 0"/></clipPath><clipPath id="j"><path d="M166 479h9v1.32813h-9zm0 0"/></clipPath><clipPath id="k"><path d="M173 480h3v.32813h-3zm0 0"/></clipPath><clipPath id="l"><path d="M180 479h8v1.32813h-8zm0 0"/></clipPath><clipPath id="m"><path d="M187 480h2v.32813h-2zm0 0"/></clipPath><clipPath id="n"><path d="M193 479h9v1.32813h-9zm0 0"/></clipPath><clipPath id="o"><path d="M200 480h2v.32813h-2zm0 0"/></clipPath><clipPath id="p"><path d="M199 480h2v.32813h-2zm0 0"/></clipPath><clipPath id="q"><path d="M206 479h9v1.32813h-9zm0 0"/></clipPath><clipPath id="r"><path d="M213 479h3v1.32813h-3zm0 0"/></clipPath><clipPath id="s"><path d="M212 479h3v1.32813h-3zm0 0"/></clipPath><clipPath id="t"><path d="M220 479h8v1.32813h-8zm0 0"/></clipPath><clipPath id="u"><path d="M227 479h3v1.32813h-3zm0 0"/></clipPath><clipPath id="v"><path d="M233 479h8v1.32813h-8zm0 0"/></clipPath><clipPath id="w"><path d="M240 479h3v1.32813h-3zm0 0"/></clipPath><clipPath id="x"><path d="M246 479h9v1.32813h-9zm0 0"/></clipPath><clipPath id="y"><path d="M253 479h3v1.32813h-3zm0 0"/></clipPath><clipPath id="z"><path d="M260 479h8v1.32813h-8zm0 0"/></clipPath><clipPath id="A"><path d="M266 479h2v1.32813h-2zm0 0"/></clipPath><clipPath id="B"><path d="M273 479h8v1.32813h-8zm0 0"/></clipPath><clipPath id="C"><path d="M279 479h2v1.32813h-2zm0 0"/></clipPath><clipPath id="D"><path d="M287 478h7v2.32813h-7zm0 0"/></clipPath><clipPath id="E"><path d="M292 479h2v1.32813h-2zm0 0"/></clipPath><clipPath id="F"><path d="M301 477h6v3.32813h-6zm0 0"/></clipPath><clipPath id="G"><path d="M314 477h6v3.32813h-6zm0 0"/></clipPath><clipPath id="H"><path d="M327 477h6v3.32813h-6zm0 0"/></clipPath><clipPath id="I"><path d="M341 477h5v3.32813h-5zm0 0"/></clipPath><clipPath id="J"><path d="M355 476h4v4.32813h-4zm0 0"/></clipPath><clipPath id="K"><path d="M368 477h5v3.32813h-5zm0 0"/></clipPath><clipPath id="L"><path d="M381 477h5v3.32813h-5zm0 0"/></clipPath><clipPath id="M"><path d="M393 478h8v2.32813h-8zm0 0"/></clipPath><clipPath id="N"><path d="M409 476h2v4.32813h-2zm0 0"/></clipPath><clipPath id="O"><path d="M419 479h9v1.32813h-9zm0 0"/></clipPath><clipPath id="P"><path d="M434 477h6v3.32813h-6zm0 0"/></clipPath><clipPath id="Q"><path d="M449 476h2v4.32813h-2zm0 0"/></clipPath><clipPath id="R"><path d="M462 476h3v4.32813h-3zm0 0"/></clipPath><clipPath id="S"><path d="M144 465h4v4h-4zm0 0"/></clipPath><clipPath id="T"><path d="M144 452h4v3h-4zm0 0"/></clipPath><clipPath id="U"><path d="M144 439h4v3h-4zm0 0"/></clipPath><clipPath id="V"><path d="M144 424h4v6h-4zm0 0"/></clipPath><clipPath id="W"><path d="M144 410h3v7h-3zm0 0"/></clipPath><clipPath id="X"><path d="M144 397h3v7h-3zm0 0"/></clipPath><clipPath id="Y"><path d="M465 397h3v3h-3zm0 0"/></clipPath><clipPath id="Z"><path d="M144 383h2v8h-2zm0 0"/></clipPath><clipPath id="aa"><path d="M466 385h2v3h-2zm0 0"/></clipPath><clipPath id="ab"><path d="M144 370h3v7h-3zm0 0"/></clipPath><clipPath id="ac"><path d="M466 371h2v3h-2zm0 0"/></clipPath><clipPath id="ad"><path d="M144 357h3v7h-3zm0 0"/></clipPath><clipPath id="ae"><path d="M466 359h2v3h-2zm0 0"/></clipPath><clipPath id="af"><path d="M144 344h3v7h-3zm0 0"/></clipPath><clipPath id="ag"><path d="M466 345h2v3h-2zm0 0"/></clipPath><clipPath id="ah"><path d="M465 345h3v3h-3zm0 0"/></clipPath><clipPath id="ai"><path d="M144 330h1v8h-1zm0 0"/></clipPath><clipPath id="aj"><path d="M466 332h2v3h-2zm0 0"/></clipPath><clipPath id="ak"><path d="M144 316h2v9h-2zm0 0"/></clipPath><clipPath id="al"><path d="M144 323h2v3h-2zm0 0"/></clipPath><clipPath id="am"><path d="M144 322h1v3h-1zm0 0"/></clipPath><clipPath id="an"><path d="M466 318h2v3h-2zm0 0"/></clipPath><clipPath id="ao"><path d="M465 319h3v2h-3zm0 0"/></clipPath><g id="ap" clip-path="url(#clip1)"><path fill="#fff" fill-opacity="0" fill-rule="evenodd" d="M0 0h1000v1000H0zm0 0"/><path fill="#d3d3d3" fill-opacity="0" fill-rule="evenodd" d="M162.15234 355.86719l-.23437.29297.0586.23437.11718.17188.17578.23437.29297.34766.11328.0586.11719-.17188.0586-.23438.17577-.17578.46485-.17578h.69922l.23437.29297.28906.8164.0586.17579.17578.23046.35156.23438.69922.69922.17188.17578.23437.34765.23438.41016.28906.58203.41015.46485.23047.23437.23438.17578.11719.23047.17578.29297.17187 1.16406v.23438l.0586.28906.05859.11719.11719.11719.34765.41015.11719.17188.17578.17578.17578.23437.11719.17188.17188.35156.05859.23438.23437.40625.23438-.0586-.17578.17578-.0586.92969h-.58203l-.23437-.11328-.34766.11328-.11719.11719-.05859.29297-.0586.17578-.11718.17187-.46484.29297-.0586.23438-.0586.11328v.64453l.0586.17187v.41016l.0586.0586v.40624l.05859.40625.11719.17579.05859.05859.23047.64062-.0586.29297v.69922l-.05859.58203v.23438l-.0586.23047-.05468.35156v1.92187l.05469.1172h.42578l-.36719.11718-.02344.35156.89063 1.16797 1.74219.53906 1.33984.35938v.53906l.08984.8086.53516.71484 1.51953.26953.89063-.08594.08984 1.16406.53516.1797 1.16015-.1797 2.05469-.98437 1.16016-.36328 1.8789-.17578 1.69531-.1797-.17968.71876-1.51563.08594-1.25.08984-.80469.26953-1.07421.8086.26953.71875.53515.89843-.17968.625-.26563.8086.26563 1.07812.625.89844.80468.17969 1.25-.1797-.26562.72267.09766.5039.05468.29297v.17188l.0586.29296v.40625l.17578.1172.35156.11718h.40625l.29297-.17578.11328-.11719.0586-.11719.11718-.23047.0586-.17578.35156-.46484.23047-.17578.17578-.0586.17578.0586.0586.17578.11718.98828.05469.46875.0586.17188.11718.23437.17578.0586.8164.05859h.28907l.11719.23437.05859.40625.0586.35156v1.10547l.11718.29297.11719.34766.28906.69922.17578.35156.58203.7539.35157.17579.17187.0586.46875.23437.64063.46484.34765.23438.29297.17578.29297.05468.23047.0625.8164.34766.29297.17578.11328.17188.35157.35156.11719.17578.52343.64063v.28906l.0586.35156v.34766l.05859.35156.0586.28906.11718.0586.17188.05859h.17578l.58203.23437.17578.1172.17578.28905.17578.23438.11328.23437.29297.23047.11719.11719v.41016l.0586.05468.28906.23438.23437.11719.0586.11718.11718.17188.0586.11719.23047.23437.05859.17578.23437.0586.1172.05859-.1172.11328-.05859.11719v.11719l-.11719.29296-.11719.28907v.58203l.17579.11719.11718.05859.0586.11719.11719.11719.11328.05859.17578.34765.0586.35157.05858.40625v.17578l-.05859.17578-.11719.69922v.17187l.1172.17579.29296.29296h.40625l.17578.1172.11719.17187.11719.29296v.23438h-.52735l-.23047-.23438h-.23437l-.17578.0586-.0586.69922.0586.34765.11719.17579.17578.41015.11718.23047.28907.46875.17578.05469h.52344l.23437.0586.75781.64062.0586.29296v.23438l.05859.0586.23047.34765v.35156l-.11719.17188v.29297l.29297.28906.29297.17578.17187.0586.29297.17577.29297.1172.58203.40624.28906.23438.29297.17578.21875.16015.01563.01172.23047.17579.64062.52343.17578.23438.1172.17578.17577.17578.11328.17188v.64062l.1172.17578.46874.11719.58203.11719.23438.05859.23047.11328.29297.11719.11328.0586.58593.35156.28907.17187.17578.0625.17578.05469.17578.0586.69922.35155.28906.17579.23438.05468.28906.17578.23437.1172.64063.40624.29297.11719.17187.0586.23438.05859.41015.05859.23047.0586.23438.11718.0586.17188-.41017.17578.46875.0586.0586.29296.11328.23438.17578.05468.23438.0586.17578.05859.40625.11719.64062.23437.11719.17188.0586.23437v.17578l-.0586.1172-.0586.40624.23438.23438.11719.05859.34766.11719.64062.23047.17578.11718.28906.1172.17578.17577.23438.46485.58203 1.10546.17578.17579.34766.17578.17578.11719.35156.11718 1.04688.52344.23437.0586.46485.11327.29297.0586.46484.17578.75781.58203.23438.23438.34765.46484.17578.17578.28907.23438.8164.69921.29297.17579.28906.28906.29297.17578.29297.28906.69531.64063.17578.17578.29297.23437.28907.23438.46875.28906.64062.58203.34766.23438.23437.29297.34766.34765.35156.46485.9336.99218.34765.40625.11719.17579.23437.05859.11328.11719.64454.17578.23047.11328.23437.0586.29297.17577.23047.1172.9336.69921.40624.40625.23438.17578.40625.17578.23437.11719.8164.34766.34766.23437.23438.11719.29297.28906.23047.11719.7578.35156.35157.17188.23047.05859.29297.11719.23437.0586.8711.17577h.8164l.46875.23047.17188.0586.875.69921.46484.1172.29297.05858.17578.0586.23047.0586.46875.05859.34766.05859.35156.0586.40625.05859h.29297l.17187.0586v.23046l.17578.17578h.29297l.34766.0586.35156.05859.69922.11719h.64063l.46484-.23438.29297-.17578.17187-.11719.41016-.17187.28906-.17578.9336-.46485.46875-.29297.52343-.29296.46485-.17188.46484-.17578 1.05078-.46485.28906-.11718.41016-.11719.28906-.11719.52735-.17578 1.51562-.69922.58203-.34765.28907-.0586.29297-.0586.34765-.11718.875-.23047.35156-.11719h.11329l.23437-.05859.875-.23437.23438-.0586h.8125l.35156-.0586.8164-.11718.17188-.0586.35156-.05468.29297-.0586.23047-.05859.8164-.17578.17579-.0586h.34765l.23438-.05859.46484-.11718.75781-.17188.23438-.0586h.34765l.41016-.11718.28906-.0586 1.28516-.05859h.28906l.41016-.0586.23047-.05858h.17578l.875-.1172h.40625l.41015-.11718h.34766l.35156-.11328.8711-.0586h1.75l1.04687.28907.41016.11719.28906.11718.35156.11719.28907.11719 1.05078.17187.28906.0586h.29297l.29297.05859.17187.0586.41016.05859.17187.0586.1172.05858h.11718l.11719.0586.35156.0586h.11328l.41016.0664 1.92187.39453 1.92578.39453 1.51953.44922 1.69532.71875 2.14453.80469 1.60547-.71875 1.42968-.80469 1.16016-1.07813 1.25-.44921 3.03516-.71875 1.875-.35938 2.14453-1.34765 2.23437-1.25391 2.5-1.25781 1.69531-.44922 1.78516-.17969 1.16016-.26953.625.53906 1.33984-.26953.71485-.98828.98437-1.34375.44531-.17969.80469-.35937 1.875-.53907 1.78516-.44921 1.25-.26954 1.16015-.08984 1.69922-.08984 1.96094-.26954 1.25-.08984h.53906l.625-.08984h.89063l2.14453-.17969 2.41015-.17969 2.58985-.08984 1.69531.17969 1.60938.08984 1.42968.35938 1.16016.71875 1.875.98828 1.16015 1.52734.26563.71484.6289.08985.35548.89844.53515.53906.53516 1.52734 1.07422.35938h.53515l-.80469.53515.08985 1.70703.71484 2.69532.89063.80468.89453.98829.71484 1.2578 1.78516.53907 1.51953-.17969.35547 1.34375 1.60937-.80469.98047-.53906.26953.26953.31641-.21484.21875-.14453.80078.44922.44922-.35938h.35547l.53515-.26953.53907-.71875.53515-.26953.625-.98828 1.16016.44922.83984.3711 1.39454.61718 1.6953-.17969h1.60548l1.78515.08985.17969-1.70704.53516-1.34375.80468.26954.4922.84765.40233.40625-.08984.53906v.35938l.71485.44922.71093-.26953h1.42969l.35938.98828.4453 1.25781.71485 1.34375 1.25.6289 1.69531.62891.71485-.17969.17969-.53906.98046-.08984.44922.35937.08594 1.25782-.26563.6289-.53515.17969v.53906l.71484.98438.26563.53906.98437.98828.80078 1.07813-.26562.35937-.08985.89844-.625 2.33203-.35546 2.0664-.08985 1.79298-.17969.71875-.08984.53906v1.4375l-.98047 1.88281-.35937 1.70703-.53516.89844-.80469 1.16797-.26562.53906 2.05469 1.2539.08593.35938-.35546.53906-.08985-.17968v.80859l.08985 1.4375-.44532.71484-1.07422.09375-.26562.71485.53515.89844.8047.71875 1.16015.80859 1.33984.26953.44531.35938-.35546.44921-1.78907-.08984-1.25-.44922-.71484-.71875-.625-.08984-.17578 3.58984-.1875 1.3086h89.35937V311.70313h-55.26953v49.08203l.76172.125 3.28906.54296 2.02344 2.83594v2.7539l2.35156.33204 2.34766.33203h4.05078l-1.3789 4.16016-2.02344.70703-2.02344.70312-.54297.34375-2.59375 1.6172-.1875.11718-2.02344-2.07813-.73046-2.74218-2.67188-2.07813-1.375-3.5-.0664-.08203-1.95704-2.67188 2.75-1.41796v-49.08204H294.42187v91.41407l.1172.03125.1328.01172.07422.07421.10547.04688.08985.0586.08593.05859.08985.0586.29687.29687.0586.08984.03125.11719.02734.11719.01563.13671-.03125.1172-.0586.08983-.0586.08594-.04296.10547-.04688.10156-.02734.1211v.14453l.17578.26953.14844.14844.07422.08594.07422.07421.04296.10547.0625.08985.0586.08593.04297.10547.0586.08985.04687.10156.04296.10547.0586.08594.11719.17968.07421.07422.0625.08594.0586.08984.04297.10547.0586.08985.05858.08593.0625.08985.0586.08984.04297.10156.11719.17969.07421.07422.0586.08594.07422.07421.08984.0586.10547.04687h.14844l.1328-.01562.13282.01562.10156-.04687.07422-.07422.04688-.10156-.01563-.13281v-.14844l-.04687-.10547-.02735-.11719-.04687-.10156-.02735-.1211-.04296-.10156-.0625-.08984-.04297-.10156-.04297-.10547-.03125-.11719-.01563-.13281-.01171-.13672.08593-.0586.0586-.08593.12109-.03125.04297.10547.01562.1328v.1172l.0586.10156.0586.08984.08983.0586.14844.14843.0586.08985.04296.10547-.01171.10156.08593.0586.10547.04687.08594.0586.08984.05858.07422.07422-.11719.02735-.10546.04687-.08594.0586-.07422.07421-.0586.08985-.0625.08594-.02734.12109-.04687.10156-.04297.10547-.03125.11719-.01172.13281-.01563.13281v.14844l.02735.11719.04687.10547.04297.10156.0586.08984.07421.07422.08985.0586.07422.07421.08984.0586.0586.08984.04296.10547.04688.10156.11719.03125.1328.01563h.14845l.11718-.03125.10547.04297.04297.10547.04688.10156.02734.1211L299.5 410l.02734.11719.03125.1211.02735.11718.10547.04297.10156.04687.13281-.01562.14844.14844.0625.08593.07422.07422.07031.07422.08984.0625.10547.04297.10156.04297.1172.03125.13671.01562.11719-.03125.07422-.07422.02734-.11718-.01172-.13282-.03125-.12109-.02734-.11719.04297-.10547h.11719l.08984.0625.11719.02735h.14843l.13282.01562h.14843l.13282.01563.1328-.01563h.14845l.1328-.01562.13282-.01172.13672.01172.11719-.02735.13281-.01562.1914-.0586-.05859.17579-.01562.1328-.02735.1211-.01562.13281-.0586.08594-.1328.01563-.10548.04687-.10546.04297-.1172.03125-.11718.02735-.26563.03125h-.14843l-.13281.01562-.07422.07422.05859.08594.14844.14843.11719.1797.07421.0703.08985.0625.08984.0586.08594.0586.08984.05858.10156.04297.10547.0625.10547.04297.08594.0586.10547.04687.10156.04297.17969.11719.0586.08984-.04298.10156-.04687.10547.01562.13281.22266.22266.0586.08985.04296.10156.03125.1211.04297.10155.01563.13282.03125.11718.01171.13672.03125.11719.14844.14844.10156.04297.10547.04296.1172.03125.1328.01563.13672.01563h.11719l.11719-.03125.08984-.0586.04297-.10547.04688-.10156.04296-.10547.03125-.11719.01172-.1328v-.14845l-.01172-.1328-.01562-.13282-.03125-.11719-.04297-.10547-.04688-.10547-.04296-.10156-.04297-.10547-.01563-.13281.01563-.13281.02734-.11719.03125-.11719.02735-.1211.04687-.10155.08984-.0586.08594-.0625.07422-.07422.08984-.05859.22266-.22266.0586-.08593.07421-.07422.11719-.17969.0586-.08594v-.14844l-.07423-.07421-.10156-.04688-.10547-.04297-.10156-.04297-.0586-.08984-.04687-.10547-.02734-.11719.08984-.05859.11719-.03125.10156-.04297.17969-.11719.14844-.14843.01172-.13282-.01172-.10546-.08985-.0586-.1328.01563h-.14845l-.1328.01562-.13282-.01562-.1211-.03125-.08593-.0586-.07422-.07422-.0586-.08984-.0625-.08594-.11718-.17969-.0586-.08593.03125-.1211.08594-.05859.1211-.03125.05859-.08594v-.1211l-.03125-.11718-.0586-.08984-.05859-.08594-.04687-.10547-.02735-.11719-.01562-.1328.0586-.08985.07421-.07422.08984-.0586.1172-.17968.07421-.07422.0586-.08594.14843-.14844.1211-.03125.1328-.01562.13282.01562.07422.07422.04297.10547.01562.13281-.03125.1172-.11719.03124-.1328.01172-.14844.14844-.04297.10547-.04688.10156-.02734.1211-.03125.11718v.14844l.03125.11719.04297.10546.05859.08985.07422.07031.07422.07422.11719.03125.12109.02734.11719-.02734.1328-.01563h.1172l.08984.0586.07422.07422.04687.10546.0586.08594.10156.04688.13281.01562.10547.04297.08594.0586-.01172.10546-.07422.07422-.17969.11719-.05859.08984-.08984.0586-.07032.07422-.07421.07421-.0625.08985-.02735.11719-.01562.1328.01562.13282-.01562.13281v.14844l.01562.13281.02735.1172.03125.12108.07421.07422.08985.0586.08594.0586.08984.05858.11719.03125v.08594l-.10157.04688-.08984.0586-.26563.03124-.11718.02735h-.14844l-.10547.04296-.10156.04688-.0586.08984-.0625.23438-.01171.13281-.03125.1211-.01563.1328v.29298l-.01172.1328.01172.13673.01563.1328.1328.01563.13282.01172.1211.03125.08593.0586.07422.07421.04688.10547.04296.10157.01563.1328v.44532l-.01563.13281v.44532l.03125.26562.02735.11719.01562.13281.03125.11719.08594.21094.03125.26562v.14844l-.03125.11719-.02734.11718-.03125.1211-.02735.11719-.03125.11718-.03125.1211-.01171.1328-.01563.13282.08984.0586.1172-.03125.10155.01562.04688.10547-.03125.26562v.44141l-.04297.10547-.04688.10547-.04296.10156-.04297.10547-.0586.08594-.03125.12109-.04296.11719-.03125.11719-.01563.1328.01563.13282.05859.08984.10547.04688.08594.0586.05859.08593-.01172.13672-.03125.11719-.04297.10156v.44531l-.01562.13281v.14844l-.03125.11719-.04297.10547-.02735.11719-.04687.10546-.04297.10157-.03125.12109-.02734.11719-.03125.13281-.03125.11719-.02735.11719-.04297.10546-.03125.1172-.03125.12108-.01171.13282-.01563.13281v.29688l.02734.11718v.14844l.04688.39844.02734.11719.0586.08984.12109.03125h.14844l.13281-.01563.0586.08985v.11719l-.0586.08984-.08984.0586-.10157.04296-.10546.04688-.08985.05859-.08594.0586-.13671.01562-.1172-.03125-.1328-.01563-.10157.04688-.0625.08594-.01172.13671-.01562.13282-.03125.11719-.02735.11718-.01562.13281-.03125.1211v.29687l.01563.13282.03125.11718v.14844l.01171.13281v.14844l-.02734.11719-.04688.10156-.02734.1211-.03125.11718-.0586.08985-.07421.07421-.10156.04297-.10547.04688-.11719.02734-.1211.03125-.10156-.04687.0586-.08594.10547-.04688.02734-.11718.03125-.11719.02734-.1211.03125-.11718v-.14844l.01563-.13281-.03125-.11719-.04297-.10547-.10547.01563-.07422.07422-.10156.04296-.08984.0625-.07422.07422-.04297.10157-.01563.1328-.03125.1172L304.25 426l-.03125.11719-.02734.11719-.03125.12109-.02735.11719-.03125.11718-.04297.10547-.08984.0586h-.08984l-.1172-.03125-.03124-.08594.01562-.13672-.03125-.11719v-.14844l-.01171-.1328v-.14844l-.0625-.23438-.02735-.1211-.04297-.10156-.04687-.10546-.0586-.08594-.05859-.08985-.04297-.10546-.0625-.08594-.14844-.14844-.0703-.07422-.10548-.04687-.10547-.04297-.10156-.04297-.29687-.29688-.08985-.07421-.08594-.0586-.10546-.04297-.08985-.0625-.08594-.0586-.10546-.04296-.08985-.0586-.08594-.0625-.07421-.0703-.10547-.04688-.08594-.0586-.10547-.04296-.08984-.0625-.10156-.04297-.10547-.04297-.08594-.0586-.10547-.04687-.10547-.04297-.10156-.04687-.08985-.0586-.10156-.04297-.10547-.04296-.08984-.0625-.11719-.02735-.13281-.01562-.13281.01562H299.75l-.13281.01563-.11719-.03125-.08984-.0586-.07422-.07422-.08985-.05859-.10156-.04688h-.14844l-.12109-.02734-.10156-.04297-.07422-.07422-.11719-.17968-.08984-.0586-.10156-.04297-.08985-.0625-.10547-.04296-.08984-.0586-.08594-.0586-.10547-.04687-.0586-.08594-.05858-.08984-.04297-.10547-.04688-.10156-.07422-.07422-.08594-.0586-.07421-.07421-.08985-.0586-.22265-.22265-.04297-.10547-.03125-.26563.10547-.04296h.14453l.10547.04296.07421.07422.08985.0586.08594.0586.10546.04687.08985.05859.14844.14844.0703.07422.14845.14843.0625.08594.07421.07422.08594.0586.07422.07421.08985.0625.08984.0586.08594.05859.26953.17578.10156.04688.10547.04296.10156.04297.04688-.07421.05859-.08594.07422-.07422.07031-.07422.10547.04297.07422.07422.0586.08984.04296.10156.04688.10547.04296.10547.1211.02735.11719-.02735.07421-.08984.04297-.10547.0586-.08985.07422-.07421.10546-.04297.1172-.02735.1328.01172.08985.0586.14844.14843.05859.08985.04297.10547.04687.10156.04297.10547.04297.10156.10547.04688.10547.04296.13281.01563.08594-.0586.0586-.08984.07421-.07422.10547-.04297.11719.02735.10547.04687.10156.04297.10547.04297.10156.04688.17969.11718v.11719l-.01563.13281.01563.13281.01562.13672.0586.08594.10156.04688.1211.02734.11718.03125h.14844l.11719-.03125.05859-.08984.17969-.1172.05859-.08983.07422-.07422.0586-.08594.11718-.17969.17969-.11719.11719.03125.08984.0586.04297.07422-.01563.1328v.1172l.08985.05859h.14843l.13282-.01563.1328-.01171.26563-.03125.10547-.04297.11719-.03125.1211-.02735.07421-.07421.07031-.07422.0625-.08985-.01562-.10547-.04688-.10156-.10156-.04297-.10547-.01562-.11718.02734-.26563.03125h-.14844l-.07421-.07422-.08985-.0586-.11719-.03124-.11718-.02735-.13282-.01562h-.14843l-.13282.01563h-.29687l-.10547-.04688-.14844-.14844-.04297-.10156-.05859-.08984.22266-.22266.08593-.0586.10547-.04296.11719-.03125.13281-.01563.13281.01563.13672.01562.10157.04297.1328-.01172.08985-.0625.10156-.04297.0625-.08984-.04687-.10156-.08984-.0586-.1172-.03125-.10155-.04296-.0586-.08985-.0625-.08984v-.11719l.01563-.13281.10547-.04688.07421-.07031v-.1211l-.08984-.05859-.03125-.11719.08985-.05859.07421-.07422.04297-.10547.0586-.08984.04687-.10156.01563-.13281v-.14844l-.04688-.10547-.04297-.10156-.08984-.0586-.13281-.01562-.10157-.04297-.13671-.01563-.1172-.03125h-.4453l-.13282-.01562-.13281-.01172-.13281-.01563-.11719-.03125h-.14844l-.13281-.01562-.13281-.01172-.26563-.03125-.1211-.04297-.08593-.0586-.07422-.07421v-.14844l.01172-.13281.10547-.04688.10156-.04296.13281-.01563h.15235l.13281-.01562h.29297l.1211.03125.10156.04296.08984.0586.23438.0625.12109-.04688.08984-.05859.10156-.04297.13282-.01562.10547.04296.10156.04688.13281.01172.1211-.02735h.14453l.12109-.03125.11719-.02734.10547-.04687.07421-.07422.08594-.0586.14844-.14843.0586-.08594.04687-.10547.02734-.11719.01563-.10547-.10156-.04296-.08985-.0586-.11719-.03125-.10546-.04297-.08985-.0625-.07422-.08594-.07422-.07421-.10156-.04297-.10547-.04688-.10156-.04297-.0586-.08984-.04687-.10156-.08594-.21094-.0625-.08594-.05859-.08984-.07422-.07422-.08594-.0586h-.26953l-.11719.03126-.08984.05859-.10156.04297-.13281.01562-.10547-.01562-.02735-.11719-.0625-.08984-.11718-.03125-.10157-.04297-.14843-.14844-.03125-.11719-.01563-.10546.07422-.07422.17969-.1172.11719-.02733.11718-.03125.13672.01562.10156.04297.10547.04297.10156.04687.10547.04297.1172.03125.1328.01563.1172.02734.1328.01563.10547-.01563.08985-.0586-.07422-.07421-.10547-.04297-.07422-.07422-.07422-.08984-.14844-.14844-.08593-.0586-.08985-.05859-.07422-.07422-.08984-.0586-.10156-.04687-.1211-.02734-.10156-.04688-.10547-.04296-.11719-.03125-.10156-.04297-.1211-.03125h-.14843l-.11719.03125-.10546.04297-.08594.0625-.17969.11718-.08594.0586-.08984.0586-.10547.04687-.08594.05859-.10547.04297-.10156.04297-.10547.04687-.07422.07422-.05859.08985-.0586.08593-.04687.10547-.0586.08594-.07421.07422-.13281-.01172-.1172-.03125h-.11718l-.07422.07422-.08984.0586-.07422.07421-.08984.0586-.08594.05859-.10547.04687-.10156.04297-.13672.01563-.10156-.04297-.14844-.14844-.10547-.04688h-.08594l-.10547.04688-.10156.04297-.1211.03125-.11718-.03125-.07422-.07422v-.11719l.03125-.1211.07422-.0703.0586-.08985.07421-.07422.11719-.03125.10547-.04296h.29297l.13281-.01563.13672-.01563.10156-.04296.08985-.0586.10156-.04687.08984-.0586.13281-.01171.08985.05859.13281.01172.08984-.0586.08594-.05859.10547-.04297.08984-.0586.08594-.0625.08985-.05859.14843-.14843.0586-.08594.05859-.08985.10547-.04296.13281-.01563.11719.02735.1211.03125.05859-.0586.05859-.08984.03125-.26563.02734-.11719.10547.01172.13281.01563.10157-.04297.08984-.0586.0586-.08984.07421-.07422.0586-.08984.04687-.10156.01172-.13281-.01172-.13282-.04687-.10547-.14844-.14843-.0586-.08985-.05859-.08594-.04297-.10546v-.44532l.01563-.1328v-.14845l.01172-.1328-.0586-.0586-.08984.0586-.10156-.04298-.17969-.11719-.08594-.05859-.0625-.08984-.0586-.08985-.07421-.07421-.08594-.0586-.1211.03125-.10155.01172-.10547.04688-.08594.05859-.10547.04297-.14844.14844-.08984.05859-.08594.0586-.08984.0625-.10547.04296-.13281.01563v-.1211l.10547-.04297.11718-.03125.07422-.0703.04297-.10548v-.14844l-.02734-.11718-.14844-.14844-.13281-.01563h-.14844l-.11719.03125-.10547.04297-.10156.04297-.08984.0625-.11719.02735-.07422-.07422.01172-.13281-.04297-.10157-.04297-.10547-.08984-.05859-.11719.02734-.1211.03125-.11718.03125-.10156.04297-.1211.03125-.10156.04297-.10547.04297-.08984.0586-.10156.01562v-.11719l.01562-.13281-.0586-.08985-.07421.04297-.14844.14844-.0586.08985-.07421.07421-.04688.10547-.04296.10156-.07422.07422-.0586.08985-.07422.07422-.05859.08593-.07422.07422-.08984.0625-.07422.07031-.07422.07422-.10156.01563-.13281.01562-.10547-.04296v-.1211l.14843-.14844.04297-.10156.0586-.08984.04687-.10156.04297-.10547.0586-.08985.03124-.11719.04297-.10156.03125-.1211.02735-.11718.04687-.10547.04297-.10156.04297-.10547.07422-.07031.08984-.0625.08985-.0586.10156-.04296h.29687l.26563-.03125.10547-.04297-.07422-.07422-.11719-.03125-.10547-.04297-.08984-.0586-.10156-.04687-.08985-.0586-.10156-.04296-.10547-.04297-.08984-.0625-.08594-.0586-.10547-.04296-.10156-.04297-.1211-.03125-.11718-.03125-.10157-.04297L297.5 410.25l-.10156-.04297-.08985-.0586-.04296-.10546-.01563-.13281.10156-.04297.13281-.01563.13672.01563.13282-.01563.10156-.04297.0586-.08984.01562-.10547-.08985-.0586-.07421-.07421-.10157-.04297-.08984-.0586-.14844-.14843-.04297-.10547-.01562-.13281v-.29297l-.0586-.08985-.08984-.05859-.07422-.07422-.04297-.10547-.03125-.11718-.0586-.08985-.07421-.07422-.11719-.02734-.07422-.07422-.08984-.0586-.08984-.0625-.08594-.05859-.07422-.07421-.0586-.08594-.04687-.10547-.08594-.0586-.14843-.14843-.19532-.0586-.1328.01563-.10157.04297-.07422.07422-.04688.10156-.04296.10547-.0586.08984-.0586.08594-.29687.29687-.08984.0586h-.08594l-.0625-.08594-.04297-.10547.03125-.11719.0586-.08984.02734-.11719-.01172-.13281-.08984-.0625-.10547.04688-.11719.02734-.11719.03125-.26953.17578-.10156.04688-.11719.02734-.10546.04687-.08985.0586-.10156.04297-.0586-.08594-.04687-.10547.01563-.13281.04687-.10547.07031-.07422.07422-.07031.0586-.08985v-.14843l-.04297-.10547h-.23829l-.10156.04687-.03125.11719-.02734.11719-.03125.1211-.07422.04296-.13281.01563-.07422-.04688-.04297-.10156-.04297-.10547-.04687-.10156-.04297-.10547-.1211.03125-.10156.04297-.13281.01562-.11719.03125-.10547.04297-.08984.0586-.10156.04687-.1211.02734-.13281.01563-.10156-.04297-.0586-.08985-.04687-.10546-.04297-.10157-.04297-.10546v-.1172l.0586-.08984.08593-.05859.17969-.11719.10156-.04687.10547-.04297.10547-.0586.10156-.04296.08985-.0625.10156-.04297.10547-.0586.10156-.04687.08984-.0586.10547-.04296.10156-.04297.08985-.0625.10156-.04297.13672-.01563.11719.03125.10156.04297.1211.03125.10156.04297.10546.04688.10157.04296.10547.04297.10156.04688.10547.04297.10156.04297.10547.04687.08594.0586.10546.04296.1172.03125.10546.04297.10156.04688.08985.0586.10547.04296.10156.04297.10547.04687.11719.02735.10156.04687.1211.02735h.14843l.08594-.0586.01562-.10156.0586-.08984-.02735-.1172-.07422-.07421-.11719-.17969-.07421-.07422-.08985-.07421-.17969-.1172-.08593-.05859-.10547-.04296-.10156-.04688-.26954-.17578-.05859-.08985-.07422-.07421-.0586-.08985-.04296-.10156-.03125-.11719-.01563-.13672v-.5625l-.01171-.1328-.01563-.13282-.03125-.11719-.01562-.13281-.01172-.13281-.03125-.1211-.22266-.22265-.0586-.08594-.01562-.10547.03125-.11719.13281-.01562v-91.41406H172.9922v1.45312l-.0586.23438-.35156 1.05078-.17187.52343-.1172.34766-.17577.41016-.11719.17187-.23438.29297-.23046.0586h-.35157l-.11718.05859-.23047.40625v.29297l.11719.17578.23046.23047.1172.23437.64062.75781.29297.46485.17578.23437.23047.35156.23437.34766.64063.8164.17578.46485.17187.41016.11719.69531.17578.46875.11719 1.39844.0586.46484v.875l.11718 1.04688v4.78125l-.0586.46484-.35156 1.28125-.17578.52344-.11328.41015-.35156.9297L172.93359 336l-.23437.58203-.11719.17578-.17187.34766-.17578.40625-.35157.8164-.0586.29297-.11327.29297-.11719.28906-.0586.17579-.11718.875-.0586.40625-.05859.11718-.0586.17579-.05859.17187-.23047.52734-.11718.17188v.23437l-.11719.23438-.0586.17187-.17577.58594v.28906l-.0586.17579v.29296l-.0586.11329-.05859.52734v.17187l-.05468.23438v2.6211l-.17578.8164-.1172.17578-.17577.23438-.1172.17187-.11327.23438-.58594.93359-.23047.28906-.29297.46485-.17578.23437-.28906.35156-.35156.69922-.11328.23047-.17579.41016-.17578.23046-.40625.52735-.8164.69922-.29297.17187-.28906.23438-.17579.11719-.17578.17578-.52344.40625-.52734.17578-.17187.17578-.23438.05469-.64062.17578h-.75782m12.21094 31.02344l-1.07422.44921.35938.89454 1.25-.71485.44531-.53906-.98047-.08985"/><path fill="#d3d3d3" fill-opacity="0" fill-rule="evenodd" d="M201.50781 416.59766h-.89453l.44922.6289.98047.35938.80469-.08985.4453-.98828-.17577.08985-.71485-.35547-.89453.35547m154.6211 59.0703l-.0586-.52343v-.29297l.11328-.29297.0586-.23046.46875-.46875h.11328l.11719-.11329.11718-.05859h.17579l.23437-.0586h.34766l.23437.0586.11719.0586.23047.17187.0586.17578.11718.58203v.29297l-.11719.17578-.17187.28906-.17579.17579-.52734.52343-.23047.23438-.11719.0586h-.17578l-.11718-.0586-.40625-.29297-.17579-.11719-.11718-.0586-.0586-.11327-.05468-.1172m6.64062-10.95702l-.0586-.17188v-1.10937l.0586-.17188.17578-.0586.17188-.05858h.17578l.23437-.0586.1172.0586.05858.69921-.05859.17188-.11719.17578-.11718.0586-.23438.52343-.11328.0586h-.23438l-.05859-.1172m9.61328-14.39062l-.11719-.17578v-.69922l.29297-.875.1172-.17187.17577-.35156.11328-.23047.1172-.29297.35155-.75781.1172-.23047.17187-.23438h.17578l.11719-.0586h.64062l.11719.0586.23437.23438.17188.11328.35156.29297.11719.11718.11328.17579v.11328l.11719.05859.11718.11719v.69922l-.05859.17578v.23047l-.0586.17578-.34765 1.05078-.11719.23047-.11719.23437-.11718.0586-.23047.23437-.64063.28906h-.875l-.41015-.11718-.64063-.46485"/><path fill="none" stroke="#bebebe" stroke-linecap="round" stroke-linejoin="round" stroke-miterlimit="10" stroke-width=".5" d="M467.95703 311.69531H144.02734v168.625h323.9297v-168.625"/><g clip-path="url(#a)"><path fill="#fff" fill-opacity="0" fill-rule="evenodd" d="M144 475.89063v4.4375h.0039H144V373.90233v101.98829"/></g><path fill="#50fcfc" fill-rule="evenodd" d="M144 373.32813v.57421h.0039v-.57421H144"/><path fill="#fff" fill-opacity="0" fill-rule="evenodd" d="M144 330.39453v42.9336h.0039v-42.9336H144"/><path fill="#50fcfc" fill-rule="evenodd" d="M144 324.91797v5.47656h.0039v-5.47265l-.0039-.00391"/><path fill="#fff" fill-opacity="0" fill-rule="evenodd" d="M144 314.57813v10.33984l.0039.0039v-10.34765l-.0039.0039"/><g clip-path="url(#b)"><path fill="#fff" fill-opacity="0" fill-rule="evenodd" d="M144.0039 480.32813V373.90233l.57813-.09375-.57812-.48046v-42.9336l.94922-.96875-.90235-4.4414-.04687-.0625v-10.34766l2.14453-2.90235h2.28906V412.4961l-2.47266 1.25782 2.47266.77343.63281-.77343-.63281-1.25782V311.67188h8.8789v1.28515l-2.9375 3.15235 2.9375 3.41796v39.96875l-1 .9961 1 2.01172 4.0586-2.01172-4.0586-.9961v-39.96875l3.48829-3.41796-3.48828-3.15235v-1.28515h4.4375v97.78125l-4.1875 4.30078.84375 4.4375-.34375 4.4375.16015 4.4414.16797 4.4375.19531 4.4375.19141 4.4375.46094 4.4375-.66016 4.4414 1.42969 4.4375 1.74219 2.15235 4.4375-.97265 4.4375.4414 4.4375-.55469 4.4414.59766 4.4375.11719 4.4375-1.36328 4.4375.85937 3.5625-1.27734-3.5625-1.83594-4.4375 1.5-4.4375-2.0586-1.71875-2.04296-.28125-4.4414 2-1.35938 3.78906-3.07813.64844-1.21094 4.4375-1.02734 4.4414 2.00781.44532.23047 3.99219 2.90625 2.72266-2.90625 1.71484-.3086 4.4375-.08983 4.4414-.5625 4.4375.35546 4.4375-1.4375 4.4375-1.3164 4.4375 1.14062 4.44141.34375 1.9414 1.875 2.4961 2.33594 4.38672-2.33594-4.38672-4.09375-.32422-.34375-4.11328-3.08984-.96875-1.34766.96875-4.4375h.03125l2.6875-4.4414-2.71875-1.50782-4.4414 1.19532-4.4375.27734-.35157.03516-4.08594.22265-.58203-.22265-3.85547-3.97266-.28125-.46484-4.15625-2.35157-4.4414.08204-4.4375-1.31641-1.76172-.85156-2.67578-1.72266-4.4375.44922-2.0625 1.27344-2.3789.65234-4.4375.79688-4.4375.14843-4.4375-.52734-4.44141.5039-1.67578-1.57421-2.76172-2.15625-4.4375-1.01954-4.4375-1.125v-97.78125h4.4375v41.46094l-.83985 2.92188.83985.72656 1.30078-.72656-1.30078-2.92188v-41.46094h13.3164v29.75l-2.8711 1.31641-.84765 4.4414 3.71875 3.01954 2.96094-3.01953-1.92188-4.4414-1.03906-1.31642v-29.75h22.1914v11.0586l-4.14843 2.2539-.28906.16797-4.4414 1.61329-2.64454 2.66015-1.79297 3.91016-.5625.52734.5625.54688 4.4375.96484 4.4414 1.66797 4.4375.70703v4.64453l-.1328.34375.1328.11328.23438-.11328-.23437-.34375V337.75l4.4375-2.21875.4414-1.66797.67579-4.4375-1.1172-1.55469-.97655-2.88671-3.46094-2.25391v-11.0586h13.3164v10.39063l-2.16015 2.92188 2.16016 2.34765 1.89843-2.34765-1.89844-2.92188v-10.39063h53.25782V429.9961l-2.76172 1.51172 2.76172 1.48438 1.5625-1.48438-1.5625-1.51172V311.67188h106.51953v136.29687l-1.52735 1.29297 1.52735 1.9414 3.8086 2.4961.6328.6289.42579-.6289-.42579-.35938-3.13671-4.07812-1.3047-1.29297V311.67187h8.87892V461.0547l-.51563 1.51953-2.07031 4.4414 2.58594 3.96875 2.58593-3.96875-1.98828-4.4414-.59765-1.51953V311.67188h84.32421v168.65625H144.00391"/></g><path fill="#50fcfc" fill-rule="evenodd" d="M144.58203 373.8086l-.57812.09374v-.57421l.57812.48046m.3711-44.3828l-.94922.96874v-5.47265l.04687.0625.90234 4.4414"/><g clip-path="url(#c)"><path fill="#50fcfc" fill-rule="evenodd" d="M146.14844 311.67188l-2.14453 2.90234v-2.90235h2.14453"/></g><path fill="#50fcfc" fill-rule="evenodd" d="M148.4375 414.52734l-2.47266-.77343 2.47266-1.25782.63281 1.25782-.63281.77343m8.8789-95l-2.9375-3.41796 2.9375-3.15235v2.63672l-.48046.51563.48047.55859.5703-.5586-.5703-.51562v-2.63672l3.48828 3.15235-3.48828 3.41796m0 42.97657l-1-2.01172 1-.9961 4.05859.9961-4.0586 2.01172"/><path fill="#00e8fc" fill-rule="evenodd" d="M157.3164 316.66797l-.48046-.5586.48047-.51562.5703.51563-.5703.55859"/><path fill="#50fcfc" fill-rule="evenodd" d="M158.41016 418.1914l-.84375-4.4375 4.1875-4.30077v2.5664l-1.69141 1.73438 1.0586 4.4375-1.52344 4.4375.74218 4.4414.61328 4.4375.73438 4.4375-.02344 4.4375.08985.50781v5.69532l-.83594 2.67578.83594 1.55078 1.41406-1.55078-1.41406-2.67578v-5.69531l.16015-.50782.00781-4.4375 2.88672-4.4375 1.38282-3.44531v16.17969l-.15235.57812.15235.46094.17968-.46094-.17968-.57812V428.0625l1.76953 3.44531 2.66797 2.28125 4.4375 1.89063 4.08984-4.17188.35156-.05469 4.4375-3.41015 4.4375 3.13281.55469.33203 3.88281 2.52735 4.4414 1 1.08204.91015 3.35547 2.83985 4.4375-.40235 4.4375-.75 3.64453-1.6875.79688-.22265 4.4375-.2461 4.4375-.60937 3.01171-3.35938 1.42578-1.53906 3.625 1.53906.8125 1.36328.51563-1.36328-.51563-1.24219-1.03906-3.1953-3.39844-2.64454-4.4375 2.60156-.76562.04297-3.67188.11328-.15625-.11328-4.28125-2.94531-1.17968-1.4961-3.26172-3.54687-3.57031-.89062-.8672-.375-4.4375-2.52735-4.4375.9414-4.4414.33595-3.39453 1.625-1.04297 1.01953-4.4375-.65235-3.8125-.36718-.625-.17188-.38281.17188-4.0586 2.28515-.61718-2.28515-3.82031-3.78125-4.4375-.38672-1-.26953-3.4375-1.73438v-2.5664l4.4375 1.125 4.4375 1.01953 2.76172 2.15625 1.67578 1.57421 4.4414-.5039 4.4375.52734 4.4375-.14844 4.4375-.79687 2.3789-.65234 2.0625-1.27344 4.4375-.44922 2.67579 1.72266 1.76172.85156 4.4375 1.3164 4.4414-.08203 4.15625 2.35157.28125.46484 3.85547 3.97266.58203.22265 4.08594-.22265.35156-.03516 4.4375-.27734 4.44141-1.19532 2.71875 1.50782-2.6875 4.4414h-.03125l-.96875 4.4375.96875 1.34766 4.11328 3.08984.32422.34375 4.38672 4.09375-4.38672 2.33594-2.4961-2.33594-1.9414-1.875-4.4414-.34375-4.4375-1.14062-4.4375 1.3164-4.4375 1.4375-4.4375-.35546-4.44141.5625-4.4375.08984-1.71484.3086-2.72266 2.90624-3.99219-2.90625-.44531-.23047-4.4414-2.0078-4.4375 1.02733-.64845 1.21094-3.78906 3.07813-2 1.35937.28125 4.4414 1.71875 2.04298 4.4375 2.0586 4.4375-1.5 3.5625 1.83593-3.5625 1.27734-4.4375-.85937-4.4375 1.36328-4.4375-.11719-4.4414-.59765-4.4375.55468-4.4375-.4414-4.4375.97265-1.7422-2.15234-1.42968-4.4375.66016-4.4414-.46094-4.4375-.1914-4.4375-.19532-4.4375-.16797-4.4375-.16015-4.44141.34375-4.4375"/><path fill="#00e8fc" fill-rule="evenodd" d="M160.33984 427.07031l-.74218-4.4414 1.52343-4.4375-1.05859-4.4375 1.6914-1.73438 3.4375 1.73438 1 .26953 4.4375.38672v1.77343l-4.4375.13672-2.16015 1.8711 2.16016 2.91015 4.4375-.26172 2.03125-2.64843-2.03125-2.00782v-1.77343l3.8203 3.78125.6172 2.28515 4.05859-2.28515.38281-.17188.625.17188 3.8125.36718 4.4375.65235 1.04297-1.01953 3.39453-1.625v3.45703l-2.63281 2.60547-1.80469 3.85156-1.36328-3.85156-3.07422-2.22266-4.4375.01953-2.60156 2.20313-1.83984 3.39453-.94532 1.04687.94532 1.27344 4.4414 1.83984 3.23828-3.11328 1.19922-1.90625 4.07031 1.90625.3672.3086 4.4375 3.57812 4.4414.46094.4336.08984 4.0039 3.00781 4.4375 1.07422 4.4375-1.23046 4.4414-1.01563 4.4375-1.45703 3.80079-.3789-3.80078-.41407-4.4375-3.17969-.53907-.84375-3.48047-4.4414-.42187-.45704-4.4375-.80468-4.4375-.39844-4.4375.35156-4.4414-1.29687v-3.45703l4.4414-.33594 4.4375-.9414 4.4375 2.52734.86719.375 3.5703.89062 3.26173 3.54688 1.17969 1.49609 4.28125 2.94531.15625.11328 3.67187-.11328.76563-.04297 4.4375-2.60156 3.39843 2.64453 1.03906 3.19531.51563 1.2422-.51563 1.36327-.8125-1.36328-3.625-1.53906-1.42578 1.53906-3.01172 3.35938-4.4375.60937-4.4375.2461-.79687.22265-3.64453 1.6875-4.4375.75-4.4375.40235-3.35547-2.83985-1.08203-.91015-4.4414-1-3.88282-2.52735-.55469-.33203-4.4375-3.13281-4.4375 3.41015-.35156.0547-4.08984 4.17187-4.4375-1.89063-2.66797-2.28125-1.76953-3.44531-1.38282 3.44531-2.88672 4.4375-.0078 4.4375-.16016.50781-.08985-.5078.02344-4.4375-.73438-4.4375-.61328-4.4375m1.41407 23.74218l-.83594-1.55078.83594-2.67578 1.41406 2.67578-1.41406 1.55078"/><path fill="#00d4fc" fill-rule="evenodd" d="M166.1914 421.10156l-2.16015-2.91015 2.16016-1.8711 4.4375-.13672v1.76954l-1.86328.23828 1.86328.3125.24218-.3125-.24218-.23829v-1.76953l2.03125 2.00782-2.03125 2.64843-4.4375.26172"/><path fill="#50fcfc" fill-rule="evenodd" d="M166.1914 356.78125l-.83984-.72656.83985-2.92188 1.30078 2.92188-1.30078.72656"/><path fill="#fff" fill-opacity="0" fill-rule="evenodd" d="M166.1914 444.24219l-.15234.57812.15235.46094.17968-.46094-.17968-.57812"/><path fill="#00c4fc" fill-rule="evenodd" d="M170.6289 418.5039l-1.86327-.3125 1.86328-.23827.24218.23828-.24218.3125"/><path fill="#00d4fc" fill-rule="evenodd" d="M175.0664 428.34375l-.9453-1.27344.9453-1.04687 1.83985-3.39453 2.60156-2.20313 4.4375-.01953v1.84766l-3.6289.375-.8086.13671-2.8711 4.3047 2.8711 1.83984 1.91406-1.83985 2.52344-4.01172.52344-.42968-.52344-.375v-1.84766l3.07422 2.22266 1.36328 3.85156 1.80469-3.85156 2.63281-2.60547v3.10156l-2.91406 3.94531 2.91406 2.47656 4.4414.25782 4.4375-.26172 2.08985 1.96484 2.34766 1.44531 4.4375-1.375.4414-.0703.50391-4.4375-.94531-1.21485-4.4375-1.86328-4.4375 1.15625-4.4375-1.1875-4.4414-.83594v-3.10156l4.4414 1.29687 4.4375-.35156 4.4375.39844 4.4375.80469.42187.45703 3.48047 4.4414.53906.84375 4.4375 3.17969 3.80079.41406-3.80078.3789-4.4375 1.45704-4.44141 1.01563-4.4375 1.23046-4.4375-1.07421-4.0039-3.00782-.4336-.08984-4.4414-.46094-4.4375-3.57812-.3672-.3086-4.0703-1.90625-1.19923 1.90625-3.23828 3.11328-4.4414-1.83984"/><path fill="#50fcfc" fill-rule="evenodd" d="M179.50781 350.19922l-3.71875-3.01953.84766-4.4414 2.8711-1.31642v4.6836l-.78126 1.07422.78125.63281.6211-.63281-.6211-1.07422v-4.6836l1.03906 1.31641 1.92188 4.4414-2.96094 3.01954"/><path fill="#00c4fc" fill-rule="evenodd" d="M179.50781 428.91016l-2.8711-1.83985 2.8711-4.30469v2.96875l-.89062 1.33594.89062.57031.59375-.5703-.59375-1.33594v-2.96875l.8086-.13672 3.6289-.375.52344.375-.52344.42968-2.52344 4.01172-1.91406 1.83985"/><path fill="#00b8fc" fill-rule="evenodd" d="M179.50781 427.64063l-.89062-.57032.89062-1.33594.59375 1.33594-.59375.57031"/><path fill="#00e8fc" fill-rule="evenodd" d="M179.50781 347.8125l-.78125-.63281.78125-1.07422.6211 1.07422-.6211.63281"/><path fill="#50fcfc" fill-rule="evenodd" d="M188.38281 334.41016l-.5625-.54688.5625-.52734 1.79297-3.91016 2.64453-2.66015 4.4414-1.61329.28907-.16796 4.14844-2.25391v3.66797l-4.4375 2.22265-1.48828.8047 1.48828 1.1875 2.53125 3.25 1.90625 1.2539 1.46875-1.2539.42969-4.4375-1.89844-3.02735v-3.66797l3.46094 2.2539.97656 2.88672 1.11719 1.5547-.67578 4.4375-.44141 1.66796-4.4375 2.21875-4.4375-.70703-4.4414-1.66797-4.4375-.96484"/><path fill="#00c4fc" fill-rule="evenodd" d="M192.82031 429.54688l-2.91406-2.47657 2.91406-3.94531v2.2461l-1.2539 1.69921 1.2539 1.0664 4.4414.0547 2.85938-1.1211-2.85937-1.27734-4.4414-.42188V423.125l4.4414.83594 4.4375 1.1875 4.4375-1.15625v2.16015l-2.32813.91797 2.32813 2.14844 1.70312-2.14844-1.70312-.91797v-2.16015l4.4375 1.86328.94531 1.21484-.5039 4.4375-.44141.07031-4.4375 1.375-2.34766-1.4453-2.08984-1.96485-4.4375.26172-4.4414-.25781"/><path fill="#00b8fc" fill-rule="evenodd" d="M192.82031 428.13672l-1.2539-1.0664 1.2539-1.69923 4.4414.42188 2.85938 1.27734-2.85937 1.1211-4.4414-.0547"/><path fill="#00e8fc" fill-rule="evenodd" d="M197.26172 330.61328l-1.48828-1.1875 1.48828-.80469 4.4375-2.22265 1.89844 3.02734-.4297 4.4375-1.46874 1.2539-1.90625-1.2539-2.53125-3.25"/><path fill="#50fcfc" fill-rule="evenodd" d="M201.69922 342.85156l-.13281-.11328.1328-.34375.23438.34375-.23437.11328"/><path fill="#00b8fc" fill-rule="evenodd" d="M206.13672 429.21875l-2.32813-2.14844 2.32813-.91797 1.70312.91797-1.70312 2.14844"/><path fill="#50fcfc" fill-rule="evenodd" d="M215.01563 327.33203l-2.16016-2.34765 2.16016-2.92188 1.89843 2.92188-1.89844 2.34765m53.25782 105.66016l-2.76172-1.48438 2.76172-1.51172 1.5625 1.51172-1.5625 1.48438m106.51953 18.21094l-1.52735-1.94141 1.52735-1.29297 1.30469 1.29297 3.13671 4.07812.42579.35938-.42579.6289-.6328-.6289-3.8086-2.4961m8.8789 19.78125l-2.58593-3.96875 2.07031-4.4414.51563-1.51953.59765 1.51953 1.98828 4.4414-2.58594 3.96875"/><g clip-path="url(#d)"><path fill="#fff" fill-opacity="0" fill-rule="evenodd" d="M467.9961 480.32813H468V311.67188h-.0039H468v168.65625h-.0039"/></g><path fill="#fff" fill-opacity="0" fill-rule="evenodd" d="M217.65625 424.98828l4.88281 3.20703 5.46875-8.32812-4.88281-3.20703-5.46875 8.32812"/><path fill-rule="evenodd" d="M225.04297 420.11328l.42578.28125-3.45313 5.26172-.66015-.4336 2.46484-3.75-1.16015-.76171.30468-.46485.50391.25.23828.09375.24219.05079.2461-.00391.26171-.08203.28125-.16797.30469-.27344"/><path fill="#fff" fill-opacity="0" fill-rule="evenodd" d="M185.23047 459.36328l5.83203-.3086-.53125-9.94921-5.83203.3125.53125 9.94531"/><path fill-rule="evenodd" d="M188.28906 451.0625l.50781-.02734.33594 6.28515-.78515.04297-.23828-4.48437-1.38672.07421-.03125-.55468.55859-.09375.2461-.0664.22656-.10157.1953-.15235.16017-.21875.1289-.30468.08203-.39844"/><g clip-path="url(#e)"><path fill="none" stroke="#000" stroke-linecap="round" stroke-linejoin="round" stroke-miterlimit="10" stroke-width=".5" d="M147.3711 481.3164l-6.7422-1.97265"/></g><g clip-path="url(#f)"><path fill="none" stroke="#000" stroke-linecap="round" stroke-linejoin="round" stroke-miterlimit="10" stroke-width=".5" d="M146.39063 481.02734l.25 1.20313"/></g><g clip-path="url(#g)"><path fill="none" stroke="#000" stroke-linecap="round" stroke-linejoin="round" stroke-miterlimit="10" stroke-width=".5" d="M160.77344 480.94531l-6.91797-1.23437"/></g><g clip-path="url(#h)"><path fill="none" stroke="#000" stroke-linecap="round" stroke-linejoin="round" stroke-miterlimit="10" stroke-width=".5" d="M160.77344 480.94531l.7539 2.33594"/></g><g clip-path="url(#i)"><path fill="none" stroke="#000" stroke-linecap="round" stroke-linejoin="round" stroke-miterlimit="10" stroke-width=".5" d="M159.76563 480.76563l.3789 1.16796"/></g><g clip-path="url(#j)"><path fill="none" stroke="#000" stroke-linecap="round" stroke-linejoin="round" stroke-miterlimit="10" stroke-width=".5" d="M174.14453 480.41016l-7.02734-.16407"/></g><g clip-path="url(#k)"><path fill="none" stroke="#000" stroke-linecap="round" stroke-linejoin="round" stroke-miterlimit="10" stroke-width=".5" d="M174.14453 480.41016l1.09766 2.1953"/></g><g clip-path="url(#l)"><path fill="none" stroke="#000" stroke-linecap="round" stroke-linejoin="round" stroke-miterlimit="10" stroke-width=".5" d="M187.44531 480.61328l-7-.57031"/></g><g clip-path="url(#m)"><path fill="none" stroke="#000" stroke-linecap="round" stroke-linejoin="round" stroke-miterlimit="10" stroke-width=".5" d="M187.44531 480.61328l.97266 2.2539"/></g><g clip-path="url(#n)"><path fill="none" stroke="#000" stroke-linecap="round" stroke-linejoin="round" stroke-miterlimit="10" stroke-width=".5" d="M200.75781 480.6836l-6.99219-.70704"/></g><g clip-path="url(#o)"><path fill="none" stroke="#000" stroke-linecap="round" stroke-linejoin="round" stroke-miterlimit="10" stroke-width=".5" d="M200.75781 480.6836l.92578 2.26952"/></g><g clip-path="url(#p)"><path fill="none" stroke="#000" stroke-linecap="round" stroke-linejoin="round" stroke-miterlimit="10" stroke-width=".5" d="M199.73828 480.57813l.46484 1.13671"/></g><g clip-path="url(#q)"><path fill="none" stroke="#000" stroke-linecap="round" stroke-linejoin="round" stroke-miterlimit="10" stroke-width=".5" d="M214.01563 479.625l-6.88282 1.41016"/></g><g clip-path="url(#r)"><path fill="none" stroke="#000" stroke-linecap="round" stroke-linejoin="round" stroke-miterlimit="10" stroke-width=".5" d="M214.01563 479.625l1.5664 1.89063"/></g><g clip-path="url(#s)"><path fill="none" stroke="#000" stroke-linecap="round" stroke-linejoin="round" stroke-miterlimit="10" stroke-width=".5" d="M213.01563 479.82813l.78125.9453"/></g><g clip-path="url(#t)"><path fill="none" stroke="#000" stroke-linecap="round" stroke-linejoin="round" stroke-miterlimit="10" stroke-width=".5" d="M227.27734 479.39453l-6.77343 1.86719"/></g><g clip-path="url(#u)"><path fill="none" stroke="#000" stroke-linecap="round" stroke-linejoin="round" stroke-miterlimit="10" stroke-width=".5" d="M227.27734 479.39453l1.6875 1.78125"/></g><g clip-path="url(#v)"><path fill="none" stroke="#000" stroke-linecap="round" stroke-linejoin="round" stroke-miterlimit="10" stroke-width=".5" d="M240.58203 479.35156l-6.75 1.95313"/></g><g clip-path="url(#w)"><path fill="none" stroke="#000" stroke-linecap="round" stroke-linejoin="round" stroke-miterlimit="10" stroke-width=".5" d="M240.58203 479.35156l1.70703 1.76172"/></g><g clip-path="url(#x)"><path fill="none" stroke="#000" stroke-linecap="round" stroke-linejoin="round" stroke-miterlimit="10" stroke-width=".5" d="M253.94531 479.53516l-6.84765 1.58593"/></g><g clip-path="url(#y)"><path fill="none" stroke="#000" stroke-linecap="round" stroke-linejoin="round" stroke-miterlimit="10" stroke-width=".5" d="M253.94531 479.53516l1.60938 1.85156"/></g><g clip-path="url(#z)"><path fill="none" stroke="#000" stroke-linecap="round" stroke-linejoin="round" stroke-miterlimit="10" stroke-width=".5" d="M267.25781 479.53516l-6.84375 1.58593"/></g><g clip-path="url(#A)"><path fill="none" stroke="#000" stroke-linecap="round" stroke-linejoin="round" stroke-miterlimit="10" stroke-width=".5" d="M266.26172 479.76563l.80469.92578"/></g><g clip-path="url(#B)"><path fill="none" stroke="#000" stroke-linecap="round" stroke-linejoin="round" stroke-miterlimit="10" stroke-width=".5" d="M280.5 479.26563l-6.69922 2.125"/></g><g clip-path="url(#C)"><path fill="none" stroke="#000" stroke-linecap="round" stroke-linejoin="round" stroke-miterlimit="10" stroke-width=".5" d="M279.52734 479.57813l.875.85546"/></g><g clip-path="url(#D)"><path fill="none" stroke="#000" stroke-linecap="round" stroke-linejoin="round" stroke-miterlimit="10" stroke-width=".5" d="M293.66797 478.88672l-6.40625 2.88281"/></g><g clip-path="url(#E)"><path fill="none" stroke="#000" stroke-linecap="round" stroke-linejoin="round" stroke-miterlimit="10" stroke-width=".5" d="M292.73828 479.30469l.96875.7539"/></g><g clip-path="url(#F)"><path fill="none" stroke="#000" stroke-linecap="round" stroke-linejoin="round" stroke-miterlimit="10" stroke-width=".5" d="M306.29297 477.875l-5.02735 4.91016"/></g><path fill="none" stroke="#000" stroke-linecap="round" stroke-linejoin="round" stroke-miterlimit="10" stroke-width=".5" d="M305.5625 478.58984l1.16797.3711"/><g clip-path="url(#G)"><path fill="none" stroke="#000" stroke-linecap="round" stroke-linejoin="round" stroke-miterlimit="10" stroke-width=".5" d="M319.6211 477.88672l-5.05079 4.88672"/></g><path fill="none" stroke="#000" stroke-linecap="round" stroke-linejoin="round" stroke-miterlimit="10" stroke-width=".5" d="M318.88672 478.59766l1.16797.3789"/><g clip-path="url(#H)"><path fill="none" stroke="#000" stroke-linecap="round" stroke-linejoin="round" stroke-miterlimit="10" stroke-width=".5" d="M332.66797 477.63672l-4.51172 5.38672"/></g><path fill="none" stroke="#000" stroke-linecap="round" stroke-linejoin="round" stroke-miterlimit="10" stroke-width=".5" d="M332.01172 478.41797l1.19922.2539"/><g clip-path="url(#I)"><path fill="none" stroke="#000" stroke-linecap="round" stroke-linejoin="round" stroke-miterlimit="10" stroke-width=".5" d="M345.64063 477.38281l-3.82813 5.89063"/></g><path fill="none" stroke="#000" stroke-linecap="round" stroke-linejoin="round" stroke-miterlimit="10" stroke-width=".5" d="M345.08203 478.23828l1.22266.10938"/><g clip-path="url(#J)"><path fill="none" stroke="#000" stroke-linecap="round" stroke-linejoin="round" stroke-miterlimit="10" stroke-width=".5" d="M358.28516 477.04297l-2.48829 6.57031"/></g><path fill="none" stroke="#000" stroke-linecap="round" stroke-linejoin="round" stroke-miterlimit="10" stroke-width=".5" d="M357.92578 478l1.21485-.15625"/><g clip-path="url(#K)"><path fill="none" stroke="#000" stroke-linecap="round" stroke-linejoin="round" stroke-miterlimit="10" stroke-width=".5" d="M372.375 477.45313l-4.03906 5.75"/></g><path fill="none" stroke="#000" stroke-linecap="round" stroke-linejoin="round" stroke-miterlimit="10" stroke-width=".5" d="M371.78906 478.28906l1.21485.15235"/><g clip-path="url(#L)"><path fill="none" stroke="#000" stroke-linecap="round" stroke-linejoin="round" stroke-miterlimit="10" stroke-width=".5" d="M385.625 477.41016l-3.91016 5.83984"/></g><g clip-path="url(#M)"><path fill="none" stroke="#000" stroke-linecap="round" stroke-linejoin="round" stroke-miterlimit="10" stroke-width=".5" d="M393.65625 479.21094l6.66016 2.23437"/></g><g clip-path="url(#N)"><path fill="none" stroke="#000" stroke-linecap="round" stroke-linejoin="round" stroke-miterlimit="10" stroke-width=".5" d="M410.3711 476.8164l-.14063 7.02344"/></g><g clip-path="url(#O)"><path fill="none" stroke="#000" stroke-linecap="round" stroke-linejoin="round" stroke-miterlimit="10" stroke-width=".5" d="M427.0039 481.25781l-6.77734-1.85937"/></g><g clip-path="url(#P)"><path fill="none" stroke="#000" stroke-linecap="round" stroke-linejoin="round" stroke-miterlimit="10" stroke-width=".5" d="M439.53125 477.96875l-5.19922 4.72266"/></g><path fill="none" stroke="#000" stroke-linecap="round" stroke-linejoin="round" stroke-miterlimit="10" stroke-width=".5" d="M438.77734 478.65234l1.15235.41797"/><g clip-path="url(#Q)"><path fill="none" stroke="#000" stroke-linecap="round" stroke-linejoin="round" stroke-miterlimit="10" stroke-width=".5" d="M450.3125 476.8164l-.13281 7.02344"/></g><path fill="none" stroke="#000" stroke-linecap="round" stroke-linejoin="round" stroke-miterlimit="10" stroke-width=".5" d="M450.29297 477.83984l1.09765-.55859"/><g clip-path="url(#R)"><path fill="none" stroke="#000" stroke-linecap="round" stroke-linejoin="round" stroke-miterlimit="10" stroke-width=".5" d="M464.40625 476.91797l-1.6875 6.82031"/></g><path fill="none" stroke="#000" stroke-linecap="round" stroke-linejoin="round" stroke-miterlimit="10" stroke-width=".5" d="M464.16016 477.91016l1.1875-.30078"/><g clip-path="url(#S)"><path fill="none" stroke="#000" stroke-linecap="round" stroke-linejoin="round" stroke-miterlimit="10" stroke-width=".5" d="M147.38281 467.96094l-6.76562-1.89453"/></g><path fill="none" stroke="#000" stroke-linecap="round" stroke-linejoin="round" stroke-miterlimit="10" stroke-width=".5" d="M147.38281 467.96094l.52344 2.39844m12.86719-2.72657l-6.91797-1.23828m6.91797 1.23828l.7539 2.33594m-1.76172-2.51562l.37891 1.16796m14-1.58203l-7.02734-.05078m7.02734.05078l1.13281 2.17578m-2.15625-2.18359l.56641 1.08984m13.76953-1.01562l-7.02344-.1836m7.02344.1836l1.09766 2.19531m-2.1211-2.22265l.55078 1.09765m13.77735-.89453l-7.0039-.53516m7.0039.53516l.98437 2.25m-2-2.32812l.48828 1.125m13.82422-1.76172l-6.96875.89453m6.96875-.89453l1.41797 2.0039m-2.42969-1.875l.70704 1.0039m13.54297-1.53905l-6.81641 1.70703m6.8164-1.70703l1.64454 1.8203m-2.63282-1.5703l.82032.91015m13.33984-1.60937l-6.52734 2.60547m6.52734-2.60547l1.8711 1.58594m-2.82032-1.20704l.9375.79297m13.17969-1.49218l-6.23438 3.24609m6.23438-3.2461l2.02344 1.39063m11.21093-1.53906l-6.0703 3.54297m6.0703-3.54297l2.08594 1.29297m11.09766-1.5l-5.8086 3.95703m5.8086-3.95703l2.17187 1.14453m10.5586-1.80469l-4.64063 5.27734m4.64063-5.27734l2.38671.5664m10.81641-.66015l-4.41406 5.46484m3.77344-4.67187l1.20312.23437m11.96484-1.5078l-2.83593 6.42577m2.42187-5.49218l1.22266-.08985m12.86719-.66015l-3.5625 6.05859m3.04687-5.17578l1.22266.05078m12.09375-1.1836l-2.53125 6.5586m2.16406-5.60156l1.21484-.14844m12.05078-.9375l-1.69921 6.8164m1.45312-5.82421l1.1875-.29688m13.73438-.01953l-4.41797 5.46484m3.77343-4.66796l1.20704.23046m10.69921-1.80468l-.3125 7.01953m.26563-6L384.89062 464m8.79297 4.21094l6.60547-2.39453m-5.64453 2.04687l-.91016-.82422m16.70704-3.53515l-.28125 7.01953m.24218-6l1.10547-.53125m15.4375 1.89844l-6.65625 2.24609m19.01563-3.71484l-4.7461 5.18359m4.0547-4.42969l1.1875.3086m12.75-1.125l-4.60548 5.30859m3.9336-4.53516l1.1953.27344m13.41407-.33984l-5.85156 3.89453m5-3.32813l1.07812.58203"/><g clip-path="url(#T)"><path fill="none" stroke="#000" stroke-linecap="round" stroke-linejoin="round" stroke-miterlimit="10" stroke-width=".5" d="M147.3789 454.66016l-6.7578-1.92188"/></g><path fill="none" stroke="#000" stroke-linecap="round" stroke-linejoin="round" stroke-miterlimit="10" stroke-width=".5" d="M147.3789 454.66016l.51563 2.39843m-1.5-2.67968l.26172 1.19922m13.97266-.71094L154 452.53125m6.6289 2.33594l.3672 2.42578m13.1289-3.23047l-6.98828-.72656m6.98828.72656l.92188 2.27344m12.41015-2.6289l-7.02344-.01563m7.02344.01562l1.14844 2.16797m12.15625-2.44531l-7.0039.53515m7.0039-.53515l1.3164 2.07422m11.96875-2.35547l-6.9414 1.09765m6.9414-1.09765l1.47657 1.96093m11.6875-2.55859l-6.64063 2.29688m6.64063-2.29688l1.79687 1.66797m11.36719-2.03516l-6.33984 3.03125m6.33984-3.03125l1.97266 1.45703m-2.89453-1.01562l.98828.72656m12.86328-1.79687l-5.5664 4.28906m5.5664-4.28906l2.23437 1.01562m-3.04297-.39062l1.1172.50781m12.77733-1.39844l-5.11328 4.82031m5.11328-4.8203l2.32422.78515m-3.0664-.08594l1.16015.39453m12.70703-1.28515l-4.72656 5.19921m4.72656-5.19921l2.375.60546m-3.0625.15235l1.1875.30078m12.8125-1.0586l-4.72265 5.20313m4.72265-5.20312l2.37891.60156m-3.0664.15625l1.1875.30078m12.47265-1.33203l-4.04297 5.7461m4.04297-5.7461l2.4375.30469m11.34375.08593l-4.96875 4.96875m4.96875-4.96875l2.34375.71485m11.10938-.5664l-5.25 4.67187m5.25-4.67188l2.30078.85156m10.64453-1.21093l-4.50781 5.39062m4.5078-5.39062l2.40235.5078m9.95313-1.07812l-2.58985 6.53125m2.58985-6.53125l2.4375-.27343m10.53906.15625l-1.91406 6.76171m1.63672-5.77734l1.19921-.25781m11.67188-.85156l-.47266 7.01171m.40625-5.98828l1.1172-.5039m8.99608 1.21093l6.06641 3.55079m-5.1836-3.03125l.05079-1.22657m12.91797 4.95703l4.99219-4.9453m-4.26563 4.22655l-1.17188-.36328m18.41016 1.38672l-4.30469-5.55469m3.6797 4.7461l-.50392 1.11719m15.38282-4.75391l-6.1836 3.33594m5.28516-2.85157l1.01953.6797m11.82031-2.5625l-3.4375 6.1289m3.4375-6.1289l2.45313.05468m10.44531-.2539l-2.60547 6.52734"/><g clip-path="url(#U)"><path fill="none" stroke="#000" stroke-linecap="round" stroke-linejoin="round" stroke-miterlimit="10" stroke-width=".5" d="M147.36328 441.40625l-6.72656-2.04297"/></g><path fill="none" stroke="#000" stroke-linecap="round" stroke-linejoin="round" stroke-miterlimit="10" stroke-width=".5" d="M147.36328 441.40625l.47266 2.40625m12.85156-2.44531l-6.7461-1.96485m6.7461 1.96485l.5 2.40234m12.83984-2.4961l-6.79687-1.78124m6.79687 1.78125l.56641 2.39062m12.6211-1.99219l-6.53907-2.57812m6.53906 2.57812l.27344 2.4375m13.27734-3.96093l-7.01171.47265m7.01172-.47265l1.29687 2.08203m11.8164-3.03906l-6.60937 2.38671m6.60938-2.38671l1.8203 1.64453m10.83985-2.75781l-5.30078 4.61328m5.30078-4.61328l2.29297.875m11.19922-.65625l-5.65234 4.17187m5.65234-4.17188l2.21484 1.0586m10.3086-1.83594l-4.0664 5.73047m4.0664-5.73047l2.4336.3125m10.6289-.47656l-3.5625 6.05469m3.5625-6.0547l2.45312.10548m-2.97265.77734l1.22656.05078m12.61719-.92578l-3.58203 6.04297m3.58203-6.04297l2.45312.11328m11.16406.08594l-4.1875 5.64063m4.1875-5.64063l2.42579.36719m10.71484-.48828l-3.83984 5.8828m3.83984-5.8828l2.44531.21875m11.01953-.1172l-4.13672 5.6797m4.13672-5.6797l2.42969.34376m-3.03125.48437l1.21484.17188m13.0547-.70313l-4.84376 5.08985m4.84375-5.08985l2.36328.65625m-3.0664.08204l1.17968.33203m12.98047-.9297l-5.1289 4.8047m5.1289-4.8047l2.32422.79688m-3.07031-.09765l2.32422.79687m11.1211-2.01562l-3.89454 5.84765m3.89453-5.84765l2.44531.24219m-3.01171.60937l2.4414.24219m10.97266-1.35547l-2.96094 6.3711m2.96094-6.3711l2.45312-.13281m-2.88281 1.05859l1.22656-.0664m9.66407-.91016l2.75 6.46875m-2.75-6.46875l1.54296-1.90625m-1.14453 2.84765l.77344-.95312m10.11719 2.35937l6.80078 1.77735m-6.80078-1.77735l-.5664-2.38671m1.55468 2.64453l-.28125-1.19532m13.6836-.80859l4.64843 5.26953m-3.97266-4.5039l.4297-1.14844m16.86327.38672l-4.65625 5.26172m4.65625-5.26172l2.38672.57422m-3.0625.1914l1.1914.28516m12.94923-.91016l-4.95703 4.98047m4.95703-4.98047l2.34765.71094m9.21485-1.66016l-1.45313 6.875m1.45313-6.875l2.35937-.67968m9.23438.75l1.99218 6.73828m-1.99218-6.73828l1.75-1.71875"/><g clip-path="url(#V)"><path fill="none" stroke="#000" stroke-linecap="round" stroke-linejoin="round" stroke-miterlimit="10" stroke-width=".5" d="M146.84375 429.13281l-5.6875-4.1289"/></g><path fill="none" stroke="#000" stroke-linecap="round" stroke-linejoin="round" stroke-miterlimit="10" stroke-width=".5" d="M146.01563 428.53125l-.16797 1.21484m13.72265.01563l-4.51172-5.38672m19.07032 2.38281l-7 .6211m5.98437-.53125l.66797 1.02734m13.20703.94922l-6.08594-3.51172m5.19922 3l-.03906 1.22656m14.71094-2.42578l-7.02735-.08984m6.00391.07812l.5625 1.08985m13.35156-2.80078l-6.17578 3.35546m6.17578-3.35547l2.04688 1.35547m11.41406-1.05078l-6.46875 2.7461m6.46875-2.7461l1.90625 1.54297m11.33984-1.69531l-6.33203 3.05078m6.33203-3.05078l1.97657 1.44922m-2.89844-1.00782l.98828.72657m11.99219-2.59375l-3.8164 5.90234m3.8164-5.90234l2.44531.21093m-3 .64844l1.22266.10547m12.8164-.84375l-4.16015 5.66016m4.16015-5.66016l2.42969.35156m-3.03125.47266l1.21094.17578m12.88672-.85937l-4.51953 5.3789m4.51953-5.3789l2.40234.51171m-3.0586.26954l1.19923.2578m11.98828-1.53905l-2.95313 6.3789m2.95313-6.3789l2.44922-.13282m11.30468.375l-3.82812 5.89453m3.82812-5.89453l2.44531.21485m11.20313.03125l-4.4961 5.40234m4.4961-5.40234l2.40234.5m-3.05468.28515l1.19921.25m12.94141-.8789l-4.84375 5.08984m4.84375-5.08984l2.36328.66015m-3.0664.08203l2.36328.65625M346.125 424.5l-4.79688 5.13672M346.125 424.5l2.36719.63672m-3.0664.10937l2.37108.63672m11.90235-1.10937l-5.3164 4.58984m5.3164-4.58984l2.28906.88672m11.29297-.53907l-5.85156 3.89453m5.85156-3.89453l2.16016 1.16797m-3.01172-.60156l1.07812.58203m11.9961-2.19922l-3.66797 5.9961m3.66797-5.9961l2.44921.15235m-2.98046.72265l2.44921.14844m-2.98437.72266l1.22656.07421m13.3164-1.71484l-3.98827 5.78516m3.98828-5.78516l2.4375.28125m-3.01953.5586l2.4375.28124m11.58984-1.02734l-4.25 5.59766m4.25-5.59766l2.42188.39453m-3.03907.42188l2.42188.39453m11.3789-1.30469l-3.98828 5.78516m3.98829-5.78516l2.4375.28125m-3.01563.5586l2.4375.28124m-3.01953.5625l1.21875.14063m12.4961-2.22266l-2.46485 6.58203m2.46484-6.58203l2.4336-.3164m-2.79297 1.27343l2.4336-.3164m9.60937-.83985l.79687 6.98047m-.79687-6.98047l2.02343-1.39062m-1.90625 2.40625l1.01172-.69531m13.41797-.24219l-1.66406 6.82422m1.66406-6.82422l2.3789-.60547m-2.62109 1.59766l2.37891-.60547m-2.6211 1.59765l1.1875-.30078"/><g clip-path="url(#W)"><path fill="none" stroke="#000" stroke-linecap="round" stroke-linejoin="round" stroke-miterlimit="10" stroke-width=".5" d="M146.13281 416.54688l-4.26562-5.58594"/></g><path fill="none" stroke="#000" stroke-linecap="round" stroke-linejoin="round" stroke-miterlimit="10" stroke-width=".5" d="M145.51172 415.73438L145 416.84765m12.5.41406l-.3711-7.01563m.31641 5.9961l-1.05078.63281m17.7461-2.96094l-7.01954-.32422m5.9961.27735l.52734 1.10937m13.75-.5586l-6.89844-1.33202m6.89844 1.33203l.72266 2.34766m12.40625-4.3125l-6.52735 2.60156m6.52735-2.60156l1.8711 1.58203m11.45702-1.54688l-6.55469 2.53125m6.5547-2.53125l1.85546 1.60547m11.67578-.73828l-6.98437.79687m5.96875-.68359l.69531 1.01172m13.41406-2.00781l-6.54297 2.5625m6.54297-2.5625l1.86328 1.59765m11.10547-2.26562l-5.84765 3.89453m5.84765-3.89453l2.16016 1.16797m-3.01172-.60157l1.08203.58594m13.23828-.89453l-6.15625 3.38281m6.15625-3.38281l2.05469 1.34375m10.71094-2.08984l-5.0586 4.875m5.0586-4.875l2.33593.76172m-3.0703-.05079l1.16796.37891m12.29297-1.58203l-3.8789 5.85937m3.8789-5.85937l2.4414.23437m-3.0078.6172l1.22265.11718m12.72656-.92188l-4.01562 5.76563m4.01562-5.76563l2.4375.29297m11.51563.28125l-5.29297 4.61719m5.29297-4.61719l2.29297.875m-3.0625-.20312l1.14453.4375m12.30078-1.6836l-4.01563 5.76563m4.01563-5.76563l2.4375.29297m-3.01953.54688l1.21875.14453m12.83984-.86328l-4.33984 5.52343m4.33984-5.52343l2.41797.42968m12.24219 2.28125l-7.02735.09766m7.02735-.09766l1.1836 2.15235m12-3.05078l-6.76563 1.89843m6.76562-1.89843l1.69531 1.77343m11.17578-2.7539l-5.875 3.85547m5.875-3.85547l2.15235 1.17969m-3.00781-.6172l2.15234 1.1797m11.9414-1.85157l-5.72265 4.07813m5.72266-4.07813l2.1953 1.09375m-3.02734-.5l2.19532 1.09375m11.44531-2.2539l-4.71094 5.21093m4.71094-5.21093l2.3789.59765m-3.0625.16016l2.37891.59766m11.23438-1.66016l-3.9375 5.82031m3.9375-5.82031l2.4414.26172m-3.01562.58594l1.22265.1289m12.6211-1.0039l-3.84766 5.875m3.84766-5.875l2.44531.22265m-3.0039.6289l1.22265.11329m11.82422-1.36719l-2.19531 6.67578m2.19531-6.67578l2.41797-.41797m11.30469.58203l-3.00782 6.35157m3.00782-6.35157l2.44921-.11328m-2.88671 1.03907l2.44921-.11329"/><g clip-path="url(#X)"><path fill="none" stroke="#000" stroke-linecap="round" stroke-linejoin="round" stroke-miterlimit="10" stroke-width=".5" d="M145.89453 403.39844l-3.78906-5.91797"/></g><path fill="none" stroke="#000" stroke-linecap="round" stroke-linejoin="round" stroke-miterlimit="10" stroke-width=".5" d="M145.34375 402.53516l-.60156 1.0703m13.2461.28126l-1.34767-6.89453m1.15235 5.89062l-.95313.77344m16.66016-1.1914l-5.73828-4.0547m4.90234 3.46485l-.15625 1.21875m14.91016-2.11719l-6.94531-1.07812m6.9453 1.07812l.8047 2.32031m12.03906-4.6875l-6 3.65625m5.125-3.125l1.05469.625m8.66797-2.51953l2.93359 6.38672m-2.50781-5.45703l.74609-.97656m17.08984 3.70312l-6.96484-.92968m6.96484.92968l.85547 2.30079m-1.86719-2.4336l.42579 1.14844m13.93359-1.42188l-7.02734-.11718m7.02734.11718l1.11719 2.1875m-2.14063-2.20312l.5586 1.09375m13.48047-2.5586l-6.42579 2.84375m6.42578-2.84375l1.9297 1.51563m-2.8672-1.10156l.96485.75781m13.40625-.85938l-6.66406 2.22266m6.66406-2.22265l1.77734 1.6914m-2.7461-1.36719l1.77735 1.6875m12.38672-2.32812l-6.42187 2.85156m6.42187-2.85156l1.92969 1.51172m-2.86719-1.09766l.96875.75781m12.97656-1.72265l-5.80859 3.95703m5.8086-3.95703l2.17187 1.14062m11.46875-.53906l-6.46485 2.7539m6.46485-2.7539l1.91015 1.54297m-2.84765-1.14453l.95312.77344m12.96875-1.77735l-5.80078 3.96485m5.80078-3.96485l2.17578 1.13672m-3.01953-.5625l1.08594.57031m13.10547-1.09765l-5.86719 3.86718m5.86719-3.86718l2.15625 1.17578m-3.00781-.61328l1.07422.58984m12.85156-1.47656l-5.38281 4.51562m5.3828-4.51562l2.27345.91797m4.88671.7578l6.92579 1.16798m-5.91797-1l-.39063-1.16406m18.29297-1.21485l-4.26172 5.58594m4.26172-5.58594l2.42188.39844m10.86718-.41797l-4.21093 5.625m4.21093-5.625l2.42578.3789m-3.03906.44141l2.42578.375m11.91797-.82812l-5.04297 4.89062m5.04297-4.89062l2.33594.7539m-3.07031-.04296l1.16797.3789m13.74218.41016l-6.76562 1.89453m5.78125-1.6211l.84765.89063m12.88672-2.3164l-5.63672 4.1953m5.63672-4.1953l2.21875 1.05077m10.7422-1.46093l-4.92579 5.01562m4.92578-5.01562l2.35156.69922m11.36328-.22657l-5.72656 4.07422m5.72656-4.07422L455.3047 399.5m-3.02735-.5039l1.09766.54687m12.85937-1.38672l-5.34375 4.5664"/><g clip-path="url(#Y)"><path fill="none" stroke="#000" stroke-linecap="round" stroke-linejoin="round" stroke-miterlimit="10" stroke-width=".5" d="M466.23438 398.15625l2.28125.89844"/></g><path fill="none" stroke="#000" stroke-linecap="round" stroke-linejoin="round" stroke-miterlimit="10" stroke-width=".5" d="M465.45703 398.82031l1.14063.44922"/><g clip-path="url(#Z)"><path fill="none" stroke="#000" stroke-linecap="round" stroke-linejoin="round" stroke-miterlimit="10" stroke-width=".5" d="M142.49219 390.29688l3.01562-6.34766"/></g><path fill="none" stroke="#000" stroke-linecap="round" stroke-linejoin="round" stroke-miterlimit="10" stroke-width=".5" d="M158.48047 390.4375l-2.32813-6.6289m2.32813 6.6289l-1.66406 1.80469m15.97265-2.34766l-4.3164-5.54297m4.3164 5.54297l-1.0039 2.24219m13.2578-8.35156l-2.1953 6.67578m2.1953-6.67578l2.41798-.41407m9.66797.2422l.26172 7.01952m-.22266-6l1.0586-.61328m15.78124 3.84766l-6.86719-1.48828m6.8672 1.48828l.66796 2.35937m-1.66406-2.57812l.33203 1.1836m14.0586-1.65626l-7.02344-.10547m7.02343.10547l1.1211 2.1836m-2.14063-2.19922l.5586 1.08984m13.6289-2.14063l-6.73047 2.02735m6.73047-2.02735l1.72656 1.7422m-2.70703-1.44532l1.73047 1.74219m12.53516-2.125l-6.67188 2.20312m6.67188-2.20312l1.77344 1.69531m-2.7422-1.375l1.77345 1.69531m12.43359-2.23047l-6.51563 2.62891m6.51563-2.6289l1.8789 1.57812m-2.82812-1.19531l1.8789 1.57812m12.40626-1.90625l-6.5586 2.51953m6.5586-2.51953l1.85156 1.60938m-2.80469-1.2422l1.85157 1.60938m12.3203-2.20703l-6.36327 2.98047m6.36328-2.98047l1.96094 1.47266m-2.88672-1.03906l1.96093 1.47265M291.79688 386.5l.98046.73438m14.15625-1.66407l-6.30468 3.10547m6.30468-3.10547l1.98829 1.4336m-2.90625-.98047l1.99218 1.4336m-2.91015-.98438l.99609.71875m14.2539-1.40235l-6.5 2.66797m6.5-2.66797l1.88673 1.5664m-2.83594-1.17968l1.89062 1.5664m12.3125-2.09374l-6.3789 2.94922m6.3789-2.94922l1.95313 1.48437m-2.88281-1.05469l1.95312 1.48438m12.03125-2.3789l-5.85937 3.8789m5.85937-3.8789l2.15625 1.17187m-3.00781-.60547l1.07812.58594m13.26953-.84375l-6.22265 3.26562m6.22265-3.26562l2.02735 1.38281m-2.9336-.91016l2.02735 1.38282m12.2461-1.75782l-6.32423 3.06641m6.32422-3.0664l1.98047 1.44921m-2.90234-1l1.98047 1.44531m-2.89844-1l.98828.72266m13.97266-1.96094L380.69922 389m5.9414-3.7539l2.13282 1.21874m-2.9961-.67187l1.06641.60937m12.88672-1.47265l-5.48828 4.38672m5.48828-4.38672l2.2539.97265m-3.05468-.33593l2.2539.97265m11.83204-1.64453l-5.4297 4.45703m5.4297-4.45703l2.26562.9414m-3.05469-.29296l1.13282.47265m13.20312-.80468l-5.89062 3.82812m5.89062-3.82812l2.14844 1.1875m10.9375-1.5039l-5.4336 4.45702m5.4336-4.45703l2.26562.94531m11.55469-.11328l-6.44531 2.79297m6.44531-2.79297l1.92188 1.52735m11.39843-1.51954l-6.45703 2.77735"/><g clip-path="url(#aa)"><path fill="none" stroke="#000" stroke-linecap="round" stroke-linejoin="round" stroke-miterlimit="10" stroke-width=".5" d="M466.78906 385.73438l1.91406 1.53906"/></g><g clip-path="url(#ab)"><path fill="none" stroke="#000" stroke-linecap="round" stroke-linejoin="round" stroke-miterlimit="10" stroke-width=".5" d="M141.6914 376.45703l4.6172-5.29687"/></g><path fill="none" stroke="#000" stroke-linecap="round" stroke-linejoin="round" stroke-miterlimit="10" stroke-width=".5" d="M157.83984 377.28125l-1.05078-6.94531m1.05078 6.94531l-1.96875 1.46484m17.39844-2.62109l-5.28125-4.63281m5.28125 4.63281l-.5625 2.39063m13.77344-2.27344l-5.07031-4.86719m5.0703 4.86719l-.67187 2.35937m-.0664-3.0664l-.33594 1.17968m15.34375-3.30468l-6.98047.79687m6.98047-.79687l1.39063 2.02343m-2.40625-1.90625l1.39062 2.01954m-2.40625-1.90625l.69531 1.01171m14.67578-.82812l-7.02734-.03125m7.02734.03125l1.14063 2.17187m-2.16406-2.17578l1.14062 2.17188m-2.16406-2.17578l1.14453 2.17187m14.21484-2.14453l-7.02343-.07031m7.02343.07031l1.13282 2.17578m-2.15235-2.1875l1.1289 2.17969m-2.15233-2.1875L226.48827 376m14.22656-2.35156l-7.01953.3164m7.01953-.3164l1.25 2.11328m-2.26953-2.0664l1.2461 2.11327m-2.26953-2.0664l.625 1.05469m14.72656-1.27735l-7.0039.57813m7.0039-.57813l1.32422 2.0625m-2.34375-1.98047l1.32422 2.0664m-2.34375-1.98046l.66406 1.03125m14.64844-1.51953l-6.92188 1.21875m6.92188-1.21875l1.5078 1.9336m-2.51562-1.75782l1.51172 1.9336m12.75781-2.35938l-6.8164 1.71875m6.8164-1.71875l1.64454 1.8164m-2.63672-1.5664l.82422.91015m13.55078-.82812l-6.94922 1.05469m6.94922-1.05469l1.46093 1.96875m-2.47265-1.8164l1.46094 1.96874m12.83203-2.29296l-6.88672 1.39843m6.88672-1.39844l1.5625 1.89454m-2.5625-1.69141l1.55859 1.89453m-2.5625-1.6914l.78125.94921m14.24219-2.21875l-6.29297 3.125m6.29297-3.125l1.9961 1.4297m-2.91016-.97657l1.99609 1.42969m-2.91406-.97266l1 .71484m14.08203-1.75l-6.16406 3.375m6.16406-3.375l2.05078 1.34766m-2.94531-.85547l2.05078 1.34766m12.24219-1.67578l-6.32813 3.04687m6.32813-3.04687l1.98046 1.44921m-2.90234-1.0078l1.98047 1.45312m12.22656-1.95703l-6.26953 3.16796m6.26953-3.16796l2.00781 1.41406m-2.91796-.95313l2.0039 1.41407m12.2461-1.83204l-6.31641 3.08204m6.3164-3.08204l1.98438 1.44532m-2.90625-.9961l1.98828 1.44141m-2.90625-.99219l.99219.72266m14.08594-1.76563l-6.16407 3.375m6.16407-3.375l2.05078 1.34766m-2.94922-.85547l2.05078 1.34766m12.09766-1.94922l-6.03516 3.59375m6.03516-3.59375l2.09765 1.27344m-2.97265-.75l1.04687.63671m13.22656-1.01171l-6.20312 3.29687m6.20312-3.29687l2.03516 1.37109m-2.9375-.89453l1.01953.6875m13.33203-.88672l-6.47265 2.73828m6.47265-2.73828l1.90625 1.54688m-2.84765-1.14844l.95312.77344m13.10547-1.57032l-6.07422 3.53906m6.07422-3.53906l2.08594 1.29297m11.52734-.625l-6.67187 2.20313m6.67187-2.20313l1.77344 1.69531m11.3086-2.24218l-6.20704 3.29687"/><g clip-path="url(#ac)"><path fill="none" stroke="#000" stroke-linecap="round" stroke-linejoin="round" stroke-miterlimit="10" stroke-width=".5" d="M466.66406 372.16016l2.03516 1.375"/></g><g clip-path="url(#ad)"><path fill="none" stroke="#000" stroke-linecap="round" stroke-linejoin="round" stroke-miterlimit="10" stroke-width=".5" d="M141.85547 363.27734l4.28906-5.5664"/></g><path fill="none" stroke="#000" stroke-linecap="round" stroke-linejoin="round" stroke-miterlimit="10" stroke-width=".5" d="M156.9375 363.98438L157.6914 357m-.7539 6.98438l-2.27734.91406m2.38672-1.92969l-1.14063.45703m16.6836-.01562l-3.91798-5.83204m3.91797 5.83204l-1.15625 2.16406m.58594-3.01172l-.57812 1.08203m14.35547-.16406l-3.70313-5.97266m3.70313 5.97266l-1.23438 2.1211m.69531-2.9922l-.61719 1.0625m14.53516-.23437l-3.83203-5.89063m3.83203 5.89063l-1.1875 2.14844m.6289-3.0039l-1.1875 2.14452m.63282-3l-.59766 1.07031m16.48438-3.28125l-6.75 1.95313m6.75-1.95313l1.71094 1.76172m-2.69141-1.47656l1.70703 1.76172m-2.6914-1.47656l1.71093 1.75781m-2.6914-1.47656l.85547.88281m15.46484-1.49219l-6.8711 1.47266m6.8711-1.47266l1.58203 1.875m-2.57813-1.66015l1.57813 1.875m-2.57813-1.66407l1.57813 1.87891m13.80469-1.79688l-7.01172.45704m7.01172-.45704L242 362.35156m-2.3086-2.01953l1.28907 2.08594m-2.3086-2.01953l.64454 1.04297m14.71484-1.10157l-7.01953.3047m7.01953-.3047l1.2461 2.11329m-2.26954-2.07032l1.2461 2.11719m-2.26563-2.07031l.6211 1.05469m14.6914-1.57032l-6.92969 1.15625m6.9297-1.15625l1.49218 1.94922m-2.5-1.78125l1.49219 1.94922m12.72656-2.5625l-6.72266 2.05078m6.72266-2.05078l1.73437 1.73438m-2.71093-1.4375l1.73047 1.73437m-2.71094-1.4375l.86719.8711m14.35546-1.6172l-6.62109 2.35548m6.6211-2.35547l1.80859 1.65625m-2.77344-1.3125l1.8125 1.65234m12.61719-1.42188l-6.92188 1.20313m6.92188-1.20313l1.50781 1.9375m-2.51562-1.76171l1.5078 1.9375m12.78907-2.25l-6.8711 1.47656m6.8711-1.47656l1.58203 1.8789m-2.58203-1.66406l1.58203 1.8789m12.3086-3.16406l-6.02344 3.6211m6.02344-3.6211l2.10546 1.26172m-2.98046-.73437l2.10156 1.26172m12.14453-1.69141l-6.13672 3.42188m6.13672-3.42188l2.0625 1.33203m-2.95313-.83203l2.0625 1.33203m12.38672-1.30078l-6.6211 2.35938m6.6211-2.35938l1.8125 1.65234m-2.77734-1.30859l1.8125 1.65234m12.47266-1.97656l-6.63282 2.32031m6.63282-2.3203L375.47656 361m-2.76953-1.32813l1.80469 1.66407m-2.76953-1.32813l.90234.83203m13.92578-2.33203l-5.79687 3.97266m5.79687-3.97266l2.17578 1.13672m-3.01953-.5586l2.17578 1.13673m-3.01953-.5586l1.08594.5664m13.80078-1.8828l-5.5664 4.28906m5.5664-4.28906l2.23438 1.01171m-3.04297-.38671l2.23437 1.01171m-3.04687-.38671l1.11719.5039M413.1953 358.5l-5.78515 3.98828M413.1953 358.5l2.17578 1.1289m-3.01953-.55077l2.17969 1.1289m12.08594-1.54297l-6 3.65625m6-3.65625l2.10937 1.25m-2.98437-.71875l1.0586.625m13.46874-.42578l-6.67578 2.19922m6.67578-2.19922l1.76953 1.69531m-2.74218-1.375l1.77343 1.69532m12.51563-2.00782l-6.67969 2.1797m6.67969-2.1797l1.76953 1.70313m-2.74219-1.38672l.88672.85156m13.36328-1.28515l-6.60156 2.41406"/><g clip-path="url(#ae)"><path fill="none" stroke="#000" stroke-linecap="round" stroke-linejoin="round" stroke-miterlimit="10" stroke-width=".5" d="M466.86328 359.28516l1.82422 1.64062"/></g><path fill="none" stroke="#000" stroke-linecap="round" stroke-linejoin="round" stroke-miterlimit="10" stroke-width=".5" d="M465.90234 359.63672l.91016.82031"/><g clip-path="url(#af)"><path fill="none" stroke="#000" stroke-linecap="round" stroke-linejoin="round" stroke-miterlimit="10" stroke-width=".5" d="M142.05078 350.10156l3.89844-5.84765"/></g><path fill="none" stroke="#000" stroke-linecap="round" stroke-linejoin="round" stroke-miterlimit="10" stroke-width=".5" d="M157.375 350.6914l-.1211-7.02734m.1211 7.02735l-2.14844 1.1875m2.13281-2.21094l-2.14843 1.1914m16.125-.23828l-1.41406-6.8828m1.41406 6.8828l-1.89063 1.5625m1.6875-2.5664l-1.89062 1.5664m16.98437-1.33593l-4.5625-5.33985m4.5625 5.33985l-.89844 2.28515m.23438-3.0625l-.44922 1.14453m11.98047.47266l.33203-7.01953m-.33203 7.01953l-2.21875 1.04688m2.26563-2.06641l-2.21875 1.04687m2.26953-2.0703l-1.10938.52343m15.05469 1.48047l-1.1211-6.9375m1.1211 6.9375l-1.95313 1.48047m1.78907-2.4922l-1.95313 1.48438m1.78906-2.49218l-.97656.74218m16.83203-4.34765l-5.54687 4.3086m5.54687-4.3086l2.23828 1.0039m-3.04297-.3789l2.23829 1.00781m12.57422-.0586l-6.9297 1.16407m6.9297-1.16406l1.49218 1.9453m-2.5-1.77733l1.49219 1.9453m-2.5039-1.77734l.75.97266m14.61718-1.03906l-7 .6211m7-.6211l1.33984 2.0586m-2.35546-1.96876l1.33593 2.0586m-2.35547-1.96875l.66797 1.03125m14.63672-1.53516l-6.91015 1.27344m6.91015-1.27344l1.52735 1.91797m-2.53125-1.73438l1.52734 1.92188m-2.53125-1.73828l.76172.96093m14.51953-1.53906l-6.82031 1.6914m6.82031-1.6914l1.63672 1.82422m-2.6289-1.57813l1.63671 1.82422m-2.63281-1.57812l.82031.91406m14.32031-1.90234l-6.49609 2.6836m6.4961-2.6836l1.89062 1.5625m-2.83594-1.17188l1.89063 1.5625m12.45703-1.71484l-6.67188 2.20703m6.67188-2.20703l1.77343 1.69531m-2.74609-1.375l1.77344 1.69531m12.6875-1.11328l-7.01563.40235m7.01563-.40235l1.27344 2.09766m-2.29688-2.03906l1.27344 2.09765m13.04297-2.375l-6.97657.83985m6.97657-.83985l1.40234 2.01172m-2.41797-1.89062l1.40235 2.01562m12.47265-3.48828l-6.0664 3.54297m6.0664-3.54297l2.08985 1.28906m-2.97266-.77344l2.08984 1.28907m11.9922-1.99219l-5.83204 3.91797m5.83203-3.91797l2.16406 1.16016m-3.01172-.58985l2.16407 1.15625m12.58203-.09765l-6.9961.66015m6.9961-.66015l1.34765 2.05078m-2.36718-1.95313l1.35156 2.04688m12.90625-2.61719l-6.84375 1.60547m6.84375-1.60547l1.61328 1.84766m-2.60937-1.61329l1.61328 1.84766m-2.60938-1.61328l.8086.92188m14.20312-2.1875l-6.2539 3.19921m6.2539-3.19921l2.01172 1.40625m-2.92188-.94141l2.01172 1.40625m-2.92187-.9375l1.00781.69922m13.72266-2.2539l-5.44532 4.4414m5.44532-4.4414l2.26172.94921m-3.0547-.30469l2.26173.95313m-3.05469-.30469l1.13281.47266m14.11328-1.25782l-6.13672 3.42579m6.13672-3.42579l2.0625 1.33204m-2.95312-.83204l2.0586 1.33204m-2.95313-.83594l1.03125.66797m14.4336-.69532l-6.8672 1.48829m6.8672-1.48829l1.58593 1.8711m-2.58203-1.65625l1.58593 1.875m12.6797-2.28516l-6.76954 1.88281m6.76953-1.8828l1.6875 1.77733m-2.67187-1.5039l1.6875 1.77734m-2.67578-1.5039l.84765.88671m14.25781-1.9414l-6.40625 2.89453"/><g clip-path="url(#ag)"><path fill="none" stroke="#000" stroke-linecap="round" stroke-linejoin="round" stroke-miterlimit="10" stroke-width=".5" d="M466.76563 345.73047l1.9414 1.5"/></g><g clip-path="url(#ah)"><path fill="none" stroke="#000" stroke-linecap="round" stroke-linejoin="round" stroke-miterlimit="10" stroke-width=".5" d="M465.83203 346.15234l1.9414 1.5"/></g><g clip-path="url(#ai)"><path fill="none" stroke="#000" stroke-linecap="round" stroke-linejoin="round" stroke-miterlimit="10" stroke-width=".5" d="M143.6289 337.35547l.7422-6.98438"/></g><path fill="none" stroke="#000" stroke-linecap="round" stroke-linejoin="round" stroke-miterlimit="10" stroke-width=".5" d="M158.58203 337.14063l-2.53125-6.5547m2.53125 6.5547l-1.60937 1.85546m1.23828-2.80859l-1.60547 1.85547m1.23828-2.8086l-.80469.92579m15.63672.55859l-4.09375-5.71094m4.09375 5.71094l-1.08984 2.19922m.4961-3.03125l-1.08985 2.19922m.49219-3.02735l-.54297 1.09766m14.29297.97656l-2.57813-6.53906m2.57813 6.53906L183.64452 339m1.21484-2.82031l-1.58984 1.86719m15.625-1.07422l-3.26953-6.21875m3.26953 6.21875L197.51172 339m.90625-2.92969l-1.38281 2.02735m.91015-2.9336l-.6914 1.01172m15.55468.39844l-4.46875-5.42188m4.46875 5.42188l-.9375 2.26562m.28907-3.05468l-.94141 2.26562m.28906-3.05469l-.46875 1.13282m13.14844 1.23437l-.59375-7m.59375 7l-2.0586 1.33203m1.97266-2.35156l-2.0625 1.33203m18.64844-3.33203l-6.96094-.96094m6.96094.96094l.84375 2.30078m12.47656-3.22265l-6.97265.8828m6.97265-.8828l1.41406 2.0039m-2.42968-1.875l1.41406 2.0039m12.90625-2.1914l-6.95313 1m6.95313-1l1.44922 1.98047m-2.46094-1.83594l1.44922 1.98047m-2.46094-1.83594l.72656.9922m14.54297-1.63673l-6.8164 1.71094m6.8164-1.71094l1.64453 1.8164m-2.63671-1.5703l1.64453 1.8203m-2.63672-1.5703l.82422.91015m14.28906-1.94922l-6.44531 2.79688m6.44531-2.79688l1.92188 1.52735m-2.85938-1.1211l1.92188 1.52735m-2.85938-1.1211l.96094.76563m14.125-1.79688l-6.23828 3.23438m6.23828-3.23438l2.01953 1.39063m-2.92578-.92188l2.01953 1.39454m-2.92578-.92188l1.00781.69531m14.2539-1.35156l-6.5039 2.66406m6.5039-2.66406l1.88673 1.57031m-2.83204-1.1836l1.88672 1.57032m-2.83593-1.1836l.9453.78516m14.35548-1.30859l-6.6836 2.16406m6.6836-2.16406l1.76172 1.70313m-2.73438-1.39063l.88281.85547m13.57032-.28906l-7.01563.40625m7.01563-.40625l1.27343 2.09375m10.77735-4.59766l-4.48438 5.41016m4.48438-5.41016l2.40234.4961m11.8125.64062l-6.28516 3.14062m6.28516-3.14062l1.9961 1.42187m-2.91016-.96484l.9961.71094m13.36718-.86328l-6.55469 2.53125m6.55469-2.53125l1.85547 1.60546m-2.8086-1.23828l.92579.8047m13.57421-.06642l-7.01953.32032m7.01953-.32031l1.25 2.11328m-2.26953-2.06641l.6211 1.0586m13.42187-2.35548l-6.4375 2.82032m6.4375-2.82031l1.92578 1.52343m-2.86328-1.11328l1.92578 1.52344m12.33594-1.91016l-6.45703 2.77344m6.45703-2.77344l1.91406 1.53516m-2.85156-1.13281l1.91406 1.53515m-2.85547-1.1289l.95704.76562m14.42578-1.01562l-6.83203 1.65625m6.83203-1.65625l1.6289 1.83593m-2.625-1.59375l1.63282 1.83204m-2.625-1.59375l.8164.91796m14.5039-1.3203l-6.86718 1.5m6.86719-1.5l1.58594 1.87108m-2.58594-1.65234l1.58594 1.8711m-2.58204-1.65235l1.58594 1.8711m13.59375-2.76172l-6.60156 2.40625"/><g clip-path="url(#aj)"><path fill="none" stroke="#000" stroke-linecap="round" stroke-linejoin="round" stroke-miterlimit="10" stroke-width=".5" d="M466.86328 332.66016l1.82422 1.64062"/></g><path fill="none" stroke="#000" stroke-linecap="round" stroke-linejoin="round" stroke-miterlimit="10" stroke-width=".5" d="M465.90234 333.01172l1.82422 1.64062m-2.78515-1.29296L466.76562 335"/><g clip-path="url(#ak)"><path fill="none" stroke="#000" stroke-linecap="round" stroke-linejoin="round" stroke-miterlimit="10" stroke-width=".5" d="M145.03516 323.90625l-2.07032-6.71484"/></g><g clip-path="url(#al)"><path fill="none" stroke="#000" stroke-linecap="round" stroke-linejoin="round" stroke-miterlimit="10" stroke-width=".5" d="M145.03516 323.90625l-1.73047 1.73828"/></g><g clip-path="url(#am)"><path fill="none" stroke="#000" stroke-linecap="round" stroke-linejoin="round" stroke-miterlimit="10" stroke-width=".5" d="M144.73438 322.92969l-1.73047 1.73828"/></g><path fill="none" stroke="#000" stroke-linecap="round" stroke-linejoin="round" stroke-miterlimit="10" stroke-width=".5" d="M159.54688 323.26172l-4.46485-5.42578m4.46484 5.42578l-.9414 2.26562m.29297-3.05468l-.9414 2.26562m.29296-3.05469l-.47266 1.13282m15.30078.25l-4.89843-5.03907m4.89844 5.03907l-.75 2.33593m.03906-3.0703l-.75 2.33983m.03515-3.0703l-.75 2.33593m15.1875-.60547l-4.28906-5.5664m4.28906 5.5664l-1.01172 2.23438m.38672-3.04688l-1.01172 2.23828m.39063-3.04687l-1.01563 2.23437m.39063-3.04297l-.50781 1.1172m15.49219 1.45702l-3.88282-5.85547m3.88281 5.85547l-1.17187 2.15625m.60547-3.00781l-1.16797 2.15625m.60156-3.00781l-1.16797 2.15625m16.47657-1.26563l-5.60938-4.23437m5.60938 4.23437l-.38672 2.42578m-.42969-3.03906l-.38672 2.42188m-.42969-3.03907l-.3828 2.42188m-.4336-3.03906l-.1914 1.21093m16.24608.1836l-6.1875-3.32813m6.1875 3.32813l-.01171 2.45312m-.88672-2.9375l-.01172 2.45313m-.89063-2.9375l-.01172 2.45312m15.4375-2.27344l-6.80859-1.74609m6.8086 1.7461l.57812 2.3828m-1.57031-2.63671l.57812 2.38281m-1.5664-2.63672l.57812 2.38281m14.82813-2.6875l-7.02735-.125m7.02735.125l1.11328 2.1875m-2.13672-2.20312l1.11328 2.1836m-2.13672-2.20313l1.11328 2.1875m14.1875-2.85938l-6.90625 1.29297m6.90625-1.29297l1.53125 1.91407m-2.53515-1.72657l1.53125 1.91797m-2.53907-1.73047l.76954.95704m14.46093-1.72657l-6.71484 2.07813m6.71484-2.07813l1.74219 1.73047m-2.71875-1.42578l1.73828 1.72656m-2.71484-1.42578l.8711.86328m14.3203-1.6914l-6.55859 2.52343m6.5586-2.52343l1.85156 1.60937m-2.8086-1.24219l1.85547 1.60938m-2.8086-1.24219l.92579.80469m14.26562-1.61719l-6.49609 2.67969m6.4961-2.67969l1.89452 1.5625m-2.83984-1.17187l1.89453 1.5625m-2.83984-1.17188l.94922.78125m14.16797-1.75781l-6.31641 3.07422m6.3164-3.07422l1.98438 1.44531m-2.90234-1l1.98437 1.44531m-2.90234-.99609l.99219.72266m14.02734-1.8672l-6.05469 3.57032m6.05469-3.57031l2.09375 1.28125m-2.97656-.76172l2.09375 1.28125m-2.97266-.76172l1.04688.64063m13.90234-1.87891l-5.79688 3.97266m5.79688-3.97266l2.17578 1.13281m-3.01953-.55469l2.17578 1.13282m12.0664-1.58594l-5.96484 3.71875m5.96485-3.71875l2.1211 1.23047m-2.98829-.6875l1.0625.61328m12.97656-1.36719l-5.67578 4.14453m5.67578-4.14453l2.20703 1.07031m10.96094-1.2539l-5.38672 4.51172m5.38672-4.51172l2.27734.92187m-3.05859-.26562l1.13672.46094m13.08984-.95313l-5.64453 4.17969m5.64453-4.17969l2.21485 1.05469m11.38672 2.67187l-6.21875-3.27343m5.3125 2.79687l.0078 1.22656m14.60157-2.05859l-6.9961-.65625m5.98048.5625l.47265 1.13281m10.09766-4.8711l.52734 7.00782m-.52734-7.00781l2.07031-1.3125m13.71875 2.08984l-4.42187 5.45703m4.42187-5.45703l2.41016.46875m-3.05078.32422l1.20312.23438m13.59766-.03516l-6.10938 3.47266"/><g clip-path="url(#an)"><path fill="none" stroke="#000" stroke-linecap="round" stroke-linejoin="round" stroke-miterlimit="10" stroke-width=".5" d="M466.61719 318.8125l2.07031 1.3125"/></g><g clip-path="url(#ao)"><path fill="none" stroke="#000" stroke-linecap="round" stroke-linejoin="round" stroke-miterlimit="10" stroke-width=".5" d="M465.72656 319.3164l2.07422 1.31641"/></g><path fill="none" stroke="#000" stroke-linecap="round" stroke-linejoin="round" stroke-miterlimit="10" stroke-width=".5" d="M464.83984 319.82031l1.03516.66016"/><path fill="#ff3030" fill-rule="evenodd" d="M340.10938 441.01953h7.6953V430.8711h-7.6953v10.14844"/><path fill="azure" fill-rule="evenodd" d="M341.94531 432.70703h.83203v5.73828h3.19532v.73828h-4.02735v-6.47656"/><path fill="#00f" fill-rule="evenodd" d="M388.23828 432.14063h8.61719v-10.14454h-8.61719v10.14454"/><path fill="azure" fill-rule="evenodd" d="M390.07031 423.82813h.83594v2.82421h3.28516v-2.82421h.83203v6.48046h-.83203v-2.91796h-3.28516v2.91796h-.83594v-6.48046"/><path fill="#ff3030" fill-rule="evenodd" d="M198.08203 423.26563h7.69531v-10.14844h-7.6953v10.14844"/><path fill="azure" fill-rule="evenodd" d="M199.91797 414.95313h.83203v5.73828h3.19531v.74218h-4.02734v-6.48046"/><path fill="#00f" fill-rule="evenodd" d="M224.01953 414.38672h8.61719v-10.14453h-8.61719v10.14453"/><path fill="azure" fill-rule="evenodd" d="M225.85156 406.07422h.83594v2.82422h3.28516v-2.82422h.83203v6.48047h-.83203v-2.91406h-3.28516v2.91406h-.83594v-6.48047"/><path fill="#ff3030" fill-rule="evenodd" d="M184.76953 365.5664h7.6914v-10.14452h-7.6914v10.14453"/><path fill="azure" fill-rule="evenodd" d="M186.60156 357.2539h.83203v5.73829h3.19532v.74219h-4.02735v-6.48047"/><path fill="#ffffe0" fill-rule="evenodd" d="M364.89063 454.5664h22.18359v-10.1953h-22.1836v10.1953"/><path fill-rule="evenodd" d="M368.39063 446.20703h.51171V452.5h-.78906v-4.48828h-1.38672v-.55469l.5586-.0664.2539-.0547.22656-.08984.20313-.14062.17578-.21094.14063-.29297.10546-.39453m4.81641 0l.22656.01563.21875.05859.21094.08984.19531.1211.1836.14844.17187.17578.30078.41796.2422.4961.17968.54297.11328.58203.03906.58984-.03906.59375-.11328.58203-.17969.5547-.24219.5039-.30078.42578-.17187.17969-.1836.15625-.1953.12109-.21095.09375-.21875.05469-.22656.01953-.23047-.01953-.21875-.05469-.20703-.09375-.19922-.1211-.1836-.15624-.17187-.1797-.30078-.42577-.24219-.5039-.17968-.5547-.11328-.58203-.03907-.59375h.83594l.02735.5625.08203.50781.125.44141.16406.375.1914.30078.21094.22266.22266.13672.22656.04687.22656-.04687.22266-.13672.20703-.22266.1914-.30078.16407-.375.125-.4414.08203-.50782.02735-.5625-.02735-.5625-.08203-.5-.125-.4336-.16406-.36718-.1914-.29297-.20704-.21484-.22266-.1289-.22656-.04688-.22656.04687-.22266.1289-.21094.21485-.1914.29297-.16406.36719-.125.4336-.08204.5-.02734.5625h-.83594l.03907-.58985.11328-.58203.17969-.54297.24218-.4961.30078-.41796.17188-.17579.1836-.14843.19921-.1211.20703-.08984.21875-.0586.23047-.01562m5.08985 0h.5078V452.5h-.78515v-4.48828h-1.39062v-.55469l.5625-.0664.25-.0547.23046-.08984.20313-.14062.17578-.21094.14063-.29297.10546-.39453m2.82422 2.17188h.78516l.01953-.3125.0586-.28907.10156-.25.14062-.21875.17969-.17187.22266-.1289.26562-.08204.3086-.02734.23828.02344.22265.0625.20313.10156.17969.13672.14843.17578.11328.20312.07422.23828.02344.26172-.02344.26953-.0625.22657-.11328.1914-.15234.17188-.20313.16015-.2461.16797-.6328.38672-.53907.3125-.4375.32031-.34765.32422-.26172.33594-.1914.34766-.125.37109-.06641.39453-.02344.41797h4.21094v-.74219h-3.33204l.08594-.28125.11328-.23828.14844-.19922.1875-.1836.23047-.16796.27734-.17578.71875-.41797.41407-.20703.34375-.23047.28125-.25.21875-.26563.16406-.28125.11328-.28125.0625-.28515.01953-.28125-.03906-.38281-.1211-.34766-.1914-.3086-.25-.26562-.30078-.21094-.34766-.16015-.3789-.09766-.40625-.03125-.4336.03125-.39844.09766-.35546.16797-.3047.23437-.25.30469-.18359.375-.11718.44531-.03907.51563"/><path fill="#ffffe0" fill-rule="evenodd" d="M343.23438 472.3164h22.17968V462.125h-22.17969v10.1914"/><path fill-rule="evenodd" d="M346.73438 463.95703h.5078v6.29688h-.78515v-4.48829h-1.39062v-.55859l.55859-.0625.2539-.05469.23048-.08984.20312-.14063.17188-.21093.14453-.29297.10546-.39844m4.8125 0l.23047.01953.21875.0586.20704.08593.1953.1211.1836.15234.17188.17578.30468.41797.2422.49219.17968.54687.10937.58204.03907.58984-.03907.59375-.10937.58203-.17969.55469-.24219.5039-.30468.42579-.17188.17968-.1836.15235-.1953.125-.20704.09375-.21875.05468-.23046.01954-.23047-.01954-.21875-.05468-.20704-.09375-.1953-.125-.1836-.15235-.17188-.17969-.30468-.42578-.2422-.5039-.17968-.55469-.10937-.58203-.03907-.59375h.83204l.03125.5625.07812.50781.1289.4414.16016.375.1914.30079.21095.21875.22265.13672.22656.04687.22657-.04687.22265-.13672.21094-.21875.1914-.30078.16016-.375.12891-.4414.08203-.50782.02735-.5625-.02735-.5625-.08203-.5-.1289-.4336-.16016-.36718-.1914-.29297-.21095-.21485-.22265-.1289-.22656-.04688-.22657.04688-.22265.1289-.21094.21485-.1914.29297-.16016.36719-.12891.43359-.07813.5-.03125.5625h-.83203l.03907-.58985.10937-.58203.17969-.54687.24219-.49219.30468-.41797.17188-.17578.1836-.15234.1953-.1211.20704-.08593.21875-.0586.23046-.01953m5.08985 0h.51172v6.29688h-.78906v-4.48829h-1.38672v-.55859l.55859-.0625.2539-.05469.23048-.08984.20312-.14063.17188-.21093.14062-.29297.10547-.39844m2.82422 2.17578h.78906l.01953-.3164.0586-.28516.09765-.2539.14063-.21485.18359-.17188.22266-.1289.26562-.08203.30469-.02735.23828.02344.22656.0625.20313.10156.17969.13672.14843.17188.11328.20703.07032.23828.02734.26172-.02344.26953-.0664.22656-.10938.1914-.15625.16798-.19922.16406-.2461.16797-.63671.38672-.53516.3125-.4375.3164-.34765.32422-.26563.33594-.1875.35156-.125.3711-.07031.39453-.01953.41797h4.21094v-.7422h-3.33204l.08204-.28124.11328-.23828.14844-.20313.1875-.17969.23046-.17187.27735-.17578.71875-.41406.41406-.20704.34766-.23046.28125-.25.21875-.26954.16406-.27734.10937-.28125.06641-.28515.01953-.28125-.04297-.38672-.1211-.34766-.1875-.30469-.25-.26562-.30468-.21094-.34375-.16016-.3789-.09765-.41016-.03516-.4336.03516-.39843.09765-.35547.16797-.30469.23438-.2461.30469-.1875.37109-.11327.44922-.04297.51562"/><path fill="#ffffe0" fill-rule="evenodd" d="M319.55078 368.58984h22.1836v-10.1914h-22.1836v10.1914"/><path fill-rule="evenodd" d="M323.05078 360.23047h.51172v6.29687h-.78906v-4.49218h-1.38672v-.5547l.5586-.0625.25-.05468.23046-.08984.20313-.14063.17578-.21094.14062-.29296.10547-.39844m4.8125 0l.23047.01953.21875.05469.21094.08984.19531.1211.1836.15234.17187.17187.30078.42188.24219.49219.17969.54687.11328.57813.03906.59375-.03906.59375-.11329.58203-.17968.55469-.24219.5-.30078.42968-.17188.17969-.18359.15234-.19531.125-.21094.08985-.21875.0586-.23047.01952-.22656-.01953-.21875-.0586-.21094-.08984-.19531-.125-.1836-.15234-.17187-.17969-.30078-.42969-.24219-.5-.17969-.55468-.11328-.58203-.03906-.59375h.83594l.02734.5625.08203.5039.125.44531.16406.375.19141.30079.21094.21875.22265.13671.22266.04688.22656-.04688.22266-.13671.21094-.21875.1914-.30079.16407-.375.125-.4453.08203-.50391.02734-.5625-.02734-.5625-.08203-.5-.125-.4375-.16407-.36329-.1914-.29296-.21094-.21485-.22266-.13281-.22656-.04297-.22265.04297-.22266.13281-.21094.21485-.1914.29296-.16407.36329-.125.4375-.08203.5-.02734.5625h-.83594l.03906-.59375.11328-.57813.1797-.54687.24218-.4922.30078-.42187.17188-.17187.18359-.15235.19531-.12109.21094-.08984.21875-.05469.22656-.01953m5.09375 0h.50781v6.29687h-.78515v-4.49218h-1.39063v-.5547l.5625-.0625.25-.05468.23047-.08984.20313-.14063.17578-.21094.14062-.29296.10547-.39844m6.80469 1.6211h-.78906l-.05079-.21094-.08203-.1875-.10546-.16016-.12891-.1289-.14844-.10548-.16015-.07421-.16797-.04297-.17188-.01563-.32812.03906-.28907.1211-.24609.19531-.20313.26953-.16015.33594-.11719.40625-.07031.46484-.02344.52735.1914-.20313.1836-.15625.1875-.125.1836-.08594.1875-.0625.1953-.03515.39844-.02344.3086.02734.32031.09375.3164.15625.29298.21875.2578.28516.19923.35156.07031.19922.05469.21485.02734.23828.0039.25-.78515.04687-.02734-.26172-.07813-.25-.1211-.23437-.16015-.21094-.19531-.17578-.21875-.13672-.24219-.08984-.2539-.03125-.25391.03125-.24219.08984-.21875.13672-.1914.17578-.16407.21094-.12109.23437-.07813.25-.02734.26172.02735.25781.07812.25.1211.23438.16406.21094.1914.17968.21875.13672.24219.08594.2539.03125.25391-.03125.24219-.08594.21875-.13672.19531-.17968.16016-.21094.1211-.23438.07812-.25.02734-.2578.78516-.04688-.03125.37109-.08985.3711-.16015.35937-.22266.32812-.28906.28125-.16797.1211-.1914.10156-.20313.08203-.22656.0625-.23829.03906-.26171.01172-.28125-.01562-.26172-.04688-.23828-.07812-.21485-.10547-.19531-.1289-.17188-.15626-.15625-.17969-.13671-.20312-.11329-.22266-.10156-.24218-.14453-.53516-.08594-.59375-.02734-.64063.03906-.74218.11328-.66406.1875-.57813.1211-.2539.13672-.23048.15234-.20703.16797-.18359.1875-.15234.20312-.13282.21875-.10156.23047-.07031.25-.04688.26172-.01562.36328.03515.33203.09375.29688.15235.25781.19922.21094.24219.16406.27343.11719.30469.0625.32031"/><path fill="#ffffe0" fill-rule="evenodd" d="M217.46875 364.82422h22.17969V354.6289h-22.17969v10.1953"/><path fill-rule="evenodd" d="M220.96875 356.46484h.50781v6.29297h-.78515v-4.48828h-1.38672v-.55469l.5586-.0664.25-.05469.23046-.08984.20313-.14063.17578-.21094.14062-.29296.10547-.39454m4.8125 0l.23047.01954.21875.05468.20703.08985.19922.12109.1836.14844.17187.17578.30078.41797.24219.4961.17968.54687.11328.57812.03907.58985-.03906.59375-.11329.58593-.17968.55078-.2422.50391-.30077.42578-.17188.17969-.1836.15625-.19921.1211-.20703.09374-.21875.05469-.23047.01953-.22656-.01953-.21875-.05469-.21094-.09375-.19531-.1211-.1836-.15624-.17187-.17969-.30078-.42578-.24219-.5039-.17969-.55079-.11328-.58594-.03906-.59375h.83594l.02734.5625.08203.50782.125.4414.16406.375.19141.30079.20703.22265.22266.13672.22656.04688.22656-.04688.22266-.13672.21094-.22265.1914-.30079.16406-.375.125-.4414.08204-.50781.02734-.5625-.02734-.5625-.08203-.5-.125-.4336-.16407-.36719-.1914-.29296-.21094-.21094-.22266-.13281-.22656-.04688-.22656.04688-.22266.1328-.20703.21094-.1914.29297-.16407.3672-.125.43358-.08203.5-.02734.5625h-.83594l.03906-.58984.11328-.57812.17969-.54688.24219-.4961.30078-.41796.17187-.17578.1836-.14844.19531-.1211.21094-.08984.21875-.05469.22656-.01953m5.09375 0h.50781v6.29297h-.78515v-4.48828h-1.39063v-.55469l.5625-.0664.25-.05469.23047-.08984.20313-.14063.17578-.21094.14062-.29296.10547-.39454m6.80469 1.6172h-.78906l-.05079-.21095-.08203-.1875-.10547-.15625-.1328-.1328-.14454-.10157-.16016-.07422-.16797-.04688-.17187-.01562-.32813.04297-.28906.11719-.2461.19921-.20312.26563-.16015.33984-.11719.40235-.07031.46875-.02344.52734.1914-.20312.1836-.16016.1875-.1211.1836-.08984.1875-.0586.1953-.03905.39844-.02344.3086.03125.32031.08984.3164.15625.29298.21875.2578.28516.19923.35156.0703.19922.0547.21875.02734.23438.0039.25-.78515.04687-.02734-.25781-.07813-.25-.1211-.23438-.16015-.21094-.19531-.17968-.21875-.13672-.24219-.08594-.2539-.03125-.25391.03125-.24219.08594-.21875.13672-.19531.17969-.16016.21093-.1211.23438-.07812.25-.02734.25781.02734.25781.07813.2539.1211.23438.16015.21094.19531.17578.21875.13672.24219.08985.2539.03125.25391-.03125.24219-.08985.21875-.13672.19531-.17578.16016-.21094.1211-.23437.07812-.2539.02734-.25782.78516-.04688-.03125.3711-.08985.3711-.16015.35937-.22266.32812-.28906.28516-.17188.11719-.1875.10156-.20312.08203-.22656.0625-.23829.03906-.26172.01172-.28125-.01562-.26171-.04688-.23828-.07422-.21485-.10547-.19531-.1328-.17188-.15626-.15625-.17969-.13672-.20312-.11328-.22266-.10156-.24219-.14844-.53515-.08203-.58985-.02734-.64062.03906-.7461.11328-.66015.1875-.57813.11719-.2578.14063-.23048.15234-.20703.16797-.17969.1875-.15625.20312-.1289.21875-.10156.23047-.07422.25-.04297.26172-.01563.36328.03125.33203.09766.29688.15234.25781.19922.21094.23828.16406.27735.11719.30078.0625.32031"/><path fill="#ffffe0" fill-rule="evenodd" d="M319.55078 329.19922h22.13672v-10.1914h-22.13672v10.1914"/><path fill-rule="evenodd" d="M323.05078 320.83984h.51172v6.29297h-.78906v-4.48828h-1.38672v-.55469l.5586-.0664.25-.05469.23046-.08984.20313-.14063.17578-.21094.14062-.29296.10547-.39454m4.8125 0l.23047.01954.21875.05468.21094.08985.19531.12109.1836.14844.17187.17578.30078.41797.24219.4961.17969.54687.11328.57812.03906.58985-.03906.59375-.11329.58593-.17968.55078-.24219.50391-.30078.42969-.17188.17578-.18359.15625-.19531.1211-.21094.09374-.21875.05469-.23047.01953-.22656-.01953-.21875-.05469-.21094-.09375-.19531-.1211-.1836-.15624-.17187-.17578-.30078-.42969-.24219-.5039-.17969-.55079-.11328-.58594-.03906-.59375h.83594l.02734.5625.08203.50782.125.4414.16406.375.19141.30079.21094.22265.22265.13672.22266.04688.22656-.04688.22266-.13672.21094-.22265.1914-.30079.16407-.375.125-.4414.08203-.50781.02734-.5625-.02734-.5586-.08203-.5039-.125-.4336-.16407-.36719-.1914-.29296-.21094-.21094-.22266-.13281-.22656-.04688-.22265.04688-.22266.1328-.21094.21094-.1914.29297-.16407.3672-.125.43358-.08203.50391-.02734.5586h-.83594l.03906-.58985.11328-.57812.1797-.54688.24218-.4961.30078-.41796.17188-.17578.18359-.14844.19531-.1211.21094-.08984.21875-.05469.22656-.01953m2.96485 2.17579h.78515l.01953-.31641.0586-.28906.10156-.25.14062-.21485.1797-.17578.22265-.1289.26562-.07813.3086-.03125.23828.02344.22265.0625.20313.10156.17969.13672.14843.17578.11329.20313.07421.23828.02344.26562-.01953.26563-.0664.22656-.10938.1914-.15625.17188-.20313.16016-.24609.16796-.63281.38672-.53906.31641-.4375.3164-.34375.32423-.26563.33593-.1914.35156-.125.3672-.06641.39452-.02344.41797h4.21484v-.73828h-3.33593l.08593-.28515.11329-.23829.14843-.19921.1875-.1797.23047-.17187.27735-.17578.71875-.41797.41406-.20312.34375-.23438.28125-.25.22265-.26562.16016-.27735.11328-.28515.0625-.28516.01953-.28125-.03906-.38281-.1211-.34766-.1914-.3086-.25-.26171-.30078-.21484-.34766-.15625-.3789-.10157-.40625-.03125-.4336.03125-.39844.09766-.35546.16797-.3047.23437-.25.3047-.18358.375-.1172.4453-.03906.51954m6.94141-2.17579l.23047.01954.21875.05468.20703.08985.19922.12109.1836.14844.17187.17578.30078.41797.24219.4961.17969.54687.11328.57812.03515.58985-.03515.59375-.11329.58593-.17968.55078-.24219.50391-.30078.42969-.17188.17578-.18359.15625-.19922.1211-.20703.09374-.21875.05469-.23047.01953-.22656-.01953-.22266-.05469-.20703-.09375-.19531-.1211-.1836-.15624-.17187-.17578-.30078-.42969-.2461-.5039-.17968-.55079-.10938-.58594-.03906-.59375h.83203l.03125.5625.08203.50782.125.4414.16406.375.1875.30079.21094.22265.22266.13672.22656.04688.22656-.04688.22266-.13672.21094-.22265.1914-.30079.16407-.375.125-.4414.08203-.50781.02734-.5625-.02734-.5586-.08203-.5039-.125-.4336-.16407-.36719-.1914-.29296-.21094-.21094-.22266-.13281-.22656-.04688-.22656.04688-.22266.1328-.21094.21094-.1875.29297-.16406.3672-.125.43358-.08203.50391-.03125.5586h-.83203l.03906-.58985.10938-.57812.17969-.54688.24609-.4961.30078-.41796.17188-.17578.18359-.14844.19531-.1211.20703-.08984.22266-.05469.22656-.01953"/><path fill="#ffffe0" fill-rule="evenodd" d="M226.34766 330.22656h22.1328v-10.1914h-22.1328v10.1914"/><path fill-rule="evenodd" d="M229.84766 321.86719h.5078v6.29687h-.78905v-4.48828h-1.38672v-.5586l.5586-.0625.2539-.05468.23047-.08984.20312-.14063.17188-.21094.14453-.29296.10547-.39844m4.8125 0l.23047.01953.21875.0586.20703.08593.1953.1211.1836.15234.17188.17578.30078.41797.2461.49219.17968.54687.10938.58203.03906.58985-.03906.59375-.10938.58203-.17969.55468-.2461.50391-.30077.42578-.17188.17969-.1836.15234-.1953.125-.20703.09375-.21875.05469-.23047.01953-.23047-.01953-.21875-.05469-.20703-.09375-.19532-.125-.1875-.15234-.16797-.17969-.30468-.42578-.24219-.5039-.17969-.5547-.11328-.58202-.03516-.59375h.83204l.02734.5625.08203.5078.1289.44141.16016.375.19141.30079.21094.21875.22265.13671.22657.04688.22656-.04688.22266-.13671.21093-.21875.1914-.30079.16017-.375.1289-.4414.07813-.50781.03125-.5625-.03125-.5625-.07813-.5-.1289-.4336-.16016-.36719-.1914-.29296-.21095-.21485-.22265-.1289-.22656-.04688-.22657.04688-.22265.1289-.21094.21485-.1914.29296-.16016.3672-.1289.43358-.08204.5-.02734.5625h-.83203l.03515-.58984.11328-.58203.17969-.54688.24219-.49218.30469-.41797.16796-.17578.1875-.15235.19532-.12109.20703-.08594.21875-.0586.23047-.01952m2.96093 2.17578h.78907l.01953-.3164.0586-.28516.09765-.25391.14062-.21484.1836-.17188.22265-.1289.26563-.08204.30469-.02734.23828.02344.22656.0625.20312.10156.1797.13672.14843.17187.11328.20704.07031.23828.02735.26171-.02344.26954-.0664.22656-.10938.1914-.15625.16797-.19922.16407-.2461.16796-.63671.38672-.53516.3125-.4375.31641-.34766.32422-.26562.33594-.1875.35156-.125.3711-.07031.39452-.01953.41797h4.21093v-.74219h-3.33203l.08203-.28125.11328-.23828.14844-.20312.1875-.17969.23047-.17187.27734-.17579.71875-.41406.41407-.20703.34765-.23047.28125-.25.21875-.26953.16406-.27734.10938-.28125.0664-.28516.01954-.28125-.04297-.38672-.1211-.34765-.1875-.3047-.25-.26562-.30468-.21093-.34375-.16016-.3789-.09766-.41017-.03515-.43359.03515-.39844.09766-.35547.16797-.30468.23437-.2461.3047-.1875.37108-.11328.44922-.04297.51563m6.94532-2.17578l.22656.01953.21875.0586.21094.08593.1953.1211.1836.15234.17188.17578.30078.41797.24219.49219.18359.54687.10938.58203.03906.58985-.03906.59375-.10938.58203-.1836.55468-.24218.50391-.30078.42578-.17188.17969-.1836.15234-.1953.125-.21094.09375-.21875.05469-.22656.01953-.23047-.01953-.21875-.05469-.20703-.09375-.19922-.125-.1836-.15234-.17187-.17969-.30078-.42578-.24219-.5039-.17969-.5547-.11328-.58202-.03906-.59375h.83594l.02734.5625.08203.5078.125.44141.16406.375.19141.30079.21094.21875.22265.13671.22657.04688.22656-.04688.22266-.13671.21093-.21875.1875-.30079.16406-.375.125-.4414.08204-.50781.03125-.5625-.03125-.5625-.08203-.5-.125-.4336-.16407-.36719-.1875-.29296-.21094-.21485-.22265-.1289-.22656-.04688-.22657.04688-.22265.1289-.21094.21485-.1914.29296-.16407.3672-.125.43358-.08203.5-.02734.5625h-.83594l.03906-.58984.11328-.58203.17969-.54688.24219-.49218.30078-.41797.17187-.17578.1836-.15235.19922-.12109.20703-.08594.21875-.0586.23047-.01952"/></g></defs><use xlink:href="#ap"/></svg>