<svg xmlns="http://www.w3.org/2000/svg" role="img" xmlns:xlink="http://www.w3.org/1999/xlink" viewBox="142.45 309.95 326.84 171.84"><defs><clipPath id="a"><path d="M144 330h1v150.32813h-1zm0 0"/></clipPath><clipPath id="b"><path d="M144 311.67188h324v168.65625H144zm0 0"/></clipPath><clipPath id="c"><path d="M144 311.67188h3V315h-3zm0 0"/></clipPath><clipPath id="d"><path d="M467 311.67188h1v168.65625h-1zm0 0"/></clipPath><clipPath id="e"><path d="M144 478h4v2.32813h-4zm0 0"/></clipPath><clipPath id="f"><path d="M146 480h1v.32813h-1zm0 0"/></clipPath><clipPath id="g"><path d="M153 479h8v1.32813h-8zm0 0"/></clipPath><clipPath id="h"><path d="M160 480h2v.32813h-2zm0 0"/></clipPath><clipPath id="i"><path d="M159 480h2v.32813h-2zm0 0"/></clipPath><clipPath id="j"><path d="M166 479h9v1.32813h-9zm0 0"/></clipPath><clipPath id="k"><path d="M173 480h3v.32813h-3zm0 0"/></clipPath><clipPath id="l"><path d="M180 479h8v1.32813h-8zm0 0"/></clipPath><clipPath id="m"><path d="M187 480h2v.32813h-2zm0 0"/></clipPath><clipPath id="n"><path d="M193 479h8v1.32813h-8zm0 0"/></clipPath><clipPath id="o"><path d="M200 480h2v.32813h-2zm0 0"/></clipPath><clipPath id="p"><path d="M199 480h2v.32813h-2zm0 0"/></clipPath><clipPath id="q"><path d="M206 480h9v.32813h-9zm0 0"/></clipPath><clipPath id="r"><path d="M213 480h3v.32813h-3zm0 0"/></clipPath><clipPath id="s"><path d="M212 480h2v.32813h-2zm0 0"/></clipPath><clipPath id="t"><path d="M220 479h8v1.32813h-8zm0 0"/></clipPath><clipPath id="u"><path d="M227 479h3v1.32813h-3zm0 0"/></clipPath><clipPath id="v"><path d="M233 479h8v1.32813h-8zm0 0"/></clipPath><clipPath id="w"><path d="M240 479h3v1.32813h-3zm0 0"/></clipPath><clipPath id="x"><path d="M246 479h9v1.32813h-9zm0 0"/></clipPath><clipPath id="y"><path d="M253 479h3v1.32813h-3zm0 0"/></clipPath><clipPath id="z"><path d="M260 479h8v1.32813h-8zm0 0"/></clipPath><clipPath id="A"><path d="M266 479h2v1.32813h-2zm0 0"/></clipPath><clipPath id="B"><path d="M273 479h8v1.32813h-8zm0 0"/></clipPath><clipPath id="C"><path d="M279 479h2v1.32813h-2zm0 0"/></clipPath><clipPath id="D"><path d="M286 478h8v2.32813h-8zm0 0"/></clipPath><clipPath id="E"><path d="M292 479h2v1.32813h-2zm0 0"/></clipPath><clipPath id="F"><path d="M300 478h7v2.32813h-7zm0 0"/></clipPath><clipPath id="G"><path d="M314 478h7v2.32813h-7zm0 0"/></clipPath><clipPath id="H"><path d="M327 477h7v3.32813h-7zm0 0"/></clipPath><clipPath id="I"><path d="M341 477h6v3.32813h-6zm0 0"/></clipPath><clipPath id="J"><path d="M354 477h6v3.32813h-6zm0 0"/></clipPath><clipPath id="K"><path d="M367 477h6v3.32813h-6zm0 0"/></clipPath><clipPath id="L"><path d="M379 480h9v.32813h-9zm0 0"/></clipPath><clipPath id="M"><path d="M396 476h2v4.32813h-2zm0 0"/></clipPath><clipPath id="N"><path d="M409 476h3v4.32813h-3zm0 0"/></clipPath><clipPath id="O"><path d="M421 477h5v3.32813h-5zm0 0"/></clipPath><clipPath id="P"><path d="M434 477h5v3.32813h-5zm0 0"/></clipPath><clipPath id="Q"><path d="M449 476h2v4.32813h-2zm0 0"/></clipPath><clipPath id="R"><path d="M461 476h5v4.32813h-5zm0 0"/></clipPath><clipPath id="S"><path d="M144 465h4v4h-4zm0 0"/></clipPath><clipPath id="T"><path d="M144 452h4v4h-4zm0 0"/></clipPath><clipPath id="U"><path d="M144 438h4v4h-4zm0 0"/></clipPath><clipPath id="V"><path d="M144 424h3v6h-3zm0 0"/></clipPath><clipPath id="W"><path d="M144 410h3v7h-3zm0 0"/></clipPath><clipPath id="X"><path d="M144 396h2v8h-2zm0 0"/></clipPath><clipPath id="Y"><path d="M144 402h2v2h-2zm0 0"/></clipPath><clipPath id="Z"><path d="M465 397h3v2h-3zm0 0"/></clipPath><clipPath id="aa"><path d="M144 384h3v7h-3zm0 0"/></clipPath><clipPath id="ab"><path d="M466 384h2v3h-2zm0 0"/></clipPath><clipPath id="ac"><path d="M144 370h3v7h-3zm0 0"/></clipPath><clipPath id="ad"><path d="M465 371h3v2h-3zm0 0"/></clipPath><clipPath id="ae"><path d="M144 357h3v7h-3zm0 0"/></clipPath><clipPath id="af"><path d="M466 358h2v3h-2zm0 0"/></clipPath><clipPath id="ag"><path d="M144 344h3v6h-3zm0 0"/></clipPath><clipPath id="ah"><path d="M466 345h2v3h-2zm0 0"/></clipPath><clipPath id="ai"><path d="M465 345h3v3h-3zm0 0"/></clipPath><clipPath id="aj"><path d="M144 330h2v8h-2zm0 0"/></clipPath><clipPath id="ak"><path d="M466 332h2v3h-2zm0 0"/></clipPath><clipPath id="al"><path d="M144 316h2v9h-2zm0 0"/></clipPath><clipPath id="am"><path d="M144 323h2v3h-2zm0 0"/></clipPath><clipPath id="an"><path d="M144 322h1v3h-1zm0 0"/></clipPath><clipPath id="ao"><path d="M466 318h2v3h-2zm0 0"/></clipPath><clipPath id="ap"><path d="M465 319h3v2h-3zm0 0"/></clipPath><g id="aq" clip-path="url(#clip1)"><path fill="#fff" fill-opacity="0" fill-rule="evenodd" d="M0 0h1000v1000H0zm0 0"/><path fill="#d3d3d3" fill-opacity="0" fill-rule="evenodd" d="M162.15234 355.86719l-.23437.29297.0586.23437.11718.17188.17578.23437.29297.34766.11328.0586.11719-.17188.0586-.23438.17577-.17578.46485-.17578h.69922l.23437.29297.28906.8164.0586.17579.17578.23046.35156.23438.69922.69922.17188.17578.23437.34765.23438.41016.28906.58203.41015.46485.23047.23437.23438.17578.11719.23047.17578.29297.17187 1.16406v.23438l.0586.28906.05859.11719.11719.11719.34765.41015.11719.17188.17578.17578.17578.23437.11719.17188.17188.35156.05859.23438.23437.40625.23438-.0586-.17578.17578-.0586.92969h-.58203l-.23437-.11328-.34766.11328-.11719.11719-.05859.29297-.0586.17578-.11718.17187-.46484.29297-.0586.23438-.0586.11328v.64453l.0586.17187v.41016l.0586.0586v.40624l.05859.40625.11719.17579.05859.05859.23047.64062-.0586.29297v.69922l-.05859.58203v.23438l-.0586.23047-.05468.35156v1.92187l.05469.1172h.42578l-.36719.11718-.02344.35156.89063 1.16797 1.74219.53906 1.33984.35938v.53906l.08984.8086.53516.71484 1.51953.26953.89063-.08594.08984 1.16406.53516.1797 1.16015-.1797 2.05469-.98437 1.16016-.36328 1.8789-.17578 1.69531-.1797-.17968.71876-1.51563.08594-1.25.08984-.80469.26953-1.07421.8086.26953.71875.53515.89843-.17968.625-.26563.8086.26563 1.07812.625.89844.80468.17969 1.25-.1797-.26562.72267.09766.5039.05468.29297v.17188l.0586.29296v.40625l.17578.1172.35156.11718h.40625l.29297-.17578.11328-.11719.0586-.11719.11718-.23047.0586-.17578.35156-.46484.23047-.17578.17578-.0586.17578.0586.0586.17578.11718.98828.05469.46875.0586.17188.11718.23437.17578.0586.8164.05859h.28907l.11719.23437.05859.40625.0586.35156v1.10547l.11718.29297.11719.34766.28906.69922.17578.35156.58203.7539.35157.17579.17187.0586.46875.23437.64063.46484.34765.23438.29297.17578.29297.05468.23047.0625.8164.34766.29297.17578.11328.17188.35157.35156.11719.17578.52343.64063v.28906l.0586.35156v.34766l.05859.35156.0586.28906.11718.0586.17188.05859h.17578l.58203.23437.17578.1172.17578.28905.17578.23438.11328.23437.29297.23047.11719.11719v.41016l.0586.05468.28906.23438.23437.11719.0586.11718.11718.17188.0586.11719.23047.23437.05859.17578.23437.0586.1172.05859-.1172.11328-.05859.11719v.11719l-.11719.29296-.11719.28907v.58203l.17579.11719.11718.05859.0586.11719.11719.11719.11328.05859.17578.34765.0586.35157.05858.40625v.17578l-.05859.17578-.11719.69922v.17187l.1172.17579.29296.29296h.40625l.17578.1172.11719.17187.11719.29296v.23438h-.52735l-.23047-.23438h-.23437l-.17578.0586-.0586.69922.0586.34765.11719.17579.17578.41015.11718.23047.28907.46875.17578.05469h.52344l.23437.0586.75781.64062.0586.29296v.23438l.05859.0586.23047.34765v.35156l-.11719.17188v.29297l.29297.28906.29297.17578.17187.0586.29297.17577.29297.1172.58203.40624.28906.23438.29297.17578.21875.16015.01563.01172.23047.17579.64062.52343.17578.23438.1172.17578.17577.17578.11328.17188v.64062l.1172.17578.46874.11719.58203.11719.23438.05859.23047.11328.29297.11719.11328.0586.58593.35156.28907.17187.17578.0625.17578.05469.17578.0586.69922.35155.28906.17579.23438.05468.28906.17578.23437.1172.64063.40624.29297.11719.17187.0586.23438.05859.41015.05859.23047.0586.23438.11718.0586.17188-.41017.17578.46875.0586.0586.29296.11328.23438.17578.05468.23438.0586.17578.05859.40625.11719.64062.23437.11719.17188.0586.23437v.17578l-.0586.1172-.0586.40624.23438.23438.11719.05859.34766.11719.64062.23047.17578.11718.28906.1172.17578.17577.23438.46485.58203 1.10546.17578.17579.34766.17578.17578.11719.35156.11718 1.04688.52344.23437.0586.46485.11327.29297.0586.46484.17578.75781.58203.23438.23438.34765.46484.17578.17578.28907.23438.8164.69921.29297.17579.28906.28906.29297.17578.29297.28906.69531.64063.17578.17578.29297.23437.28907.23438.46875.28906.64062.58203.34766.23438.23437.29297.34766.34765.35156.46485.9336.99218.34765.40625.11719.17579.23437.05859.11328.11719.64454.17578.23047.11328.23437.0586.29297.17577.23047.1172.9336.69921.40624.40625.23438.17578.40625.17578.23437.11719.8164.34766.34766.23437.23438.11719.29297.28906.23047.11719.7578.35156.35157.17188.23047.05859.29297.11719.23437.0586.8711.17577h.8164l.46875.23047.17188.0586.875.69921.46484.1172.29297.05858.17578.0586.23047.0586.46875.05859.34766.05859.35156.0586.40625.05859h.29297l.17187.0586v.23046l.17578.17578h.29297l.34766.0586.35156.05859.69922.11719h.64063l.46484-.23438.29297-.17578.17187-.11719.41016-.17187.28906-.17578.9336-.46485.46875-.29297.52343-.29296.46485-.17188.46484-.17578 1.05078-.46485.28906-.11718.41016-.11719.28906-.11719.52735-.17578 1.51562-.69922.58203-.34765.28907-.0586.29297-.0586.34765-.11718.875-.23047.35156-.11719h.11329l.23437-.05859.875-.23437.23438-.0586h.8125l.35156-.0586.8164-.11718.17188-.0586.35156-.05468.29297-.0586.23047-.05859.8164-.17578.17579-.0586h.34765l.23438-.05859.46484-.11718.75781-.17188.23438-.0586h.34765l.41016-.11718.28906-.0586 1.28516-.05859h.28906l.41016-.0586.23047-.05858h.17578l.875-.1172h.40625l.41015-.11718h.34766l.35156-.11328.8711-.0586h1.75l1.04687.28907.41016.11719.28906.11718.35156.11719.28907.11719 1.05078.17187.28906.0586h.29297l.29297.05859.17187.0586.41016.05859.17187.0586.1172.05858h.11718l.11719.0586.35156.0586h.11328l.41016.0664 1.92187.39453 1.92578.39453 1.51953.44922 1.69532.71875 2.14453.80469 1.60547-.71875 1.42968-.80469 1.16016-1.07813 1.25-.44921 3.03516-.71875 1.875-.35938 2.14453-1.34765 2.23437-1.25391 2.5-1.25781 1.69531-.44922 1.78516-.17969 1.16016-.26953.625.53906 1.33984-.26953.71485-.98828.98437-1.34375.44531-.17969.80469-.35937 1.875-.53907 1.78516-.44921 1.25-.26954 1.16015-.08984 1.69922-.08984 1.96094-.26954 1.25-.08984h.53906l.625-.08984h.89063l2.14453-.17969 2.41015-.17969 2.58985-.08984 1.69531.17969 1.60938.08984 1.42968.35938 1.16016.71875 1.875.98828 1.16015 1.52734.26563.71484.6289.08985.35548.89844.53515.53906.53516 1.52734 1.07422.35938h.53515l-.80469.53515.08985 1.70703.71484 2.69532.89063.80468.89453.98829.71484 1.2578 1.78516.53907 1.51953-.17969.35547 1.34375 1.60937-.80469.98047-.53906.26953.26953.31641-.21484.21875-.14453.80078.44922.44922-.35938h.35547l.53515-.26953.53907-.71875.53515-.26953.625-.98828 1.16016.44922.83984.3711 1.39454.61718 1.6953-.17969h1.60548l1.78515.08985.17969-1.70704.53516-1.34375.80468.26954.4922.84765.40233.40625-.08984.53906v.35938l.71485.44922.71093-.26953h1.42969l.35938.98828.4453 1.25781.71485 1.34375 1.25.6289 1.69531.62891.71485-.17969.17969-.53906.98046-.08984.44922.35937.08594 1.25782-.26563.6289-.53515.17969v.53906l.71484.98438.26563.53906.98437.98828.80078 1.07813-.26562.35937-.08985.89844-.625 2.33203-.35546 2.0664-.08985 1.79298-.17969.71875-.08984.53906v1.4375l-.98047 1.88281-.35937 1.70703-.53516.89844-.80469 1.16797-.26562.53906 2.05469 1.2539.08593.35938-.35546.53906-.08985-.17968v.80859l.08985 1.4375-.44532.71484-1.07422.09375-.26562.71485.53515.89844.8047.71875 1.16015.80859 1.33984.26953.44531.35938-.35546.44921-1.78907-.08984-1.25-.44922-.71484-.71875-.625-.08984-.17578 3.58984-.1875 1.3086h89.35937V311.70313h-55.26953v49.08203l.76172.125 3.28906.54296 2.02344 2.83594v2.7539l2.35156.33204 2.34766.33203h4.05078l-1.3789 4.16016-2.02344.70703-2.02344.70312-.54297.34375-2.59375 1.6172-.1875.11718-2.02344-2.07813-.73046-2.74218-2.67188-2.07813-1.375-3.5-.0664-.08203-1.95704-2.67188 2.75-1.41796v-49.08204H294.42187v91.41407l.1172.03125.1328.01172.07422.07421.10547.04688.08985.0586.08593.05859.08985.0586.29687.29687.0586.08984.03125.11719.02734.11719.01563.13671-.03125.1172-.0586.08983-.0586.08594-.04296.10547-.04688.10156-.02734.1211v.14453l.17578.26953.14844.14844.07422.08594.07422.07421.04296.10547.0625.08985.0586.08593.04297.10547.0586.08985.04687.10156.04296.10547.0586.08594.11719.17968.07421.07422.0625.08594.0586.08984.04297.10547.0586.08985.05858.08593.0625.08985.0586.08984.04297.10156.11719.17969.07421.07422.0586.08594.07422.07421.08984.0586.10547.04687h.14844l.1328-.01562.13282.01562.10156-.04687.07422-.07422.04688-.10156-.01563-.13281v-.14844l-.04687-.10547-.02735-.11719-.04687-.10156-.02735-.1211-.04296-.10156-.0625-.08984-.04297-.10156-.04297-.10547-.03125-.11719-.01563-.13281-.01171-.13672.08593-.0586.0586-.08593.12109-.03125.04297.10547.01562.1328v.1172l.0586.10156.0586.08984.08983.0586.14844.14843.0586.08985.04296.10547-.01171.10156.08593.0586.10547.04687.08594.0586.08984.05858.07422.07422-.11719.02735-.10546.04687-.08594.0586-.07422.07421-.0586.08985-.0625.08594-.02734.12109-.04687.10156-.04297.10547-.03125.11719-.01172.13281-.01563.13281v.14844l.02735.11719.04687.10547.04297.10156.0586.08984.07421.07422.08985.0586.07422.07421.08984.0586.0586.08984.04296.10547.04688.10156.11719.03125.1328.01563h.14845l.11718-.03125.10547.04297.04297.10547.04688.10156.02734.1211L299.5 410l.02734.11719.03125.1211.02735.11718.10547.04297.10156.04687.13281-.01562.14844.14844.0625.08593.07422.07422.07031.07422.08984.0625.10547.04297.10156.04297.1172.03125.13671.01562.11719-.03125.07422-.07422.02734-.11718-.01172-.13282-.03125-.12109-.02734-.11719.04297-.10547h.11719l.08984.0625.11719.02735h.14843l.13282.01562h.14843l.13282.01563.1328-.01563h.14845l.1328-.01562.13282-.01172.13672.01172.11719-.02735.13281-.01562.1914-.0586-.05859.17579-.01562.1328-.02735.1211-.01562.13281-.0586.08594-.1328.01563-.10548.04687-.10546.04297-.1172.03125-.11718.02735-.26563.03125h-.14843l-.13281.01562-.07422.07422.05859.08594.14844.14843.11719.1797.07421.0703.08985.0625.08984.0586.08594.0586.08984.05858.10156.04297.10547.0625.10547.04297.08594.0586.10547.04687.10156.04297.17969.11719.0586.08984-.04298.10156-.04687.10547.01562.13281.22266.22266.0586.08985.04296.10156.03125.1211.04297.10155.01563.13282.03125.11718.01171.13672.03125.11719.14844.14844.10156.04297.10547.04296.1172.03125.1328.01563.13672.01563h.11719l.11719-.03125.08984-.0586.04297-.10547.04688-.10156.04296-.10547.03125-.11719.01172-.1328v-.14845l-.01172-.1328-.01562-.13282-.03125-.11719-.04297-.10547-.04688-.10547-.04296-.10156-.04297-.10547-.01563-.13281.01563-.13281.02734-.11719.03125-.11719.02735-.1211.04687-.10155.08984-.0586.08594-.0625.07422-.07422.08984-.05859.22266-.22266.0586-.08593.07421-.07422.11719-.17969.0586-.08594v-.14844l-.07423-.07421-.10156-.04688-.10547-.04297-.10156-.04297-.0586-.08984-.04687-.10547-.02734-.11719.08984-.05859.11719-.03125.10156-.04297.17969-.11719.14844-.14843.01172-.13282-.01172-.10546-.08985-.0586-.1328.01563h-.14845l-.1328.01562-.13282-.01562-.1211-.03125-.08593-.0586-.07422-.07422-.0586-.08984-.0625-.08594-.11718-.17969-.0586-.08593.03125-.1211.08594-.05859.1211-.03125.05859-.08594v-.1211l-.03125-.11718-.0586-.08984-.05859-.08594-.04687-.10547-.02735-.11719-.01562-.1328.0586-.08985.07421-.07422.08984-.0586.1172-.17968.07421-.07422.0586-.08594.14843-.14844.1211-.03125.1328-.01562.13282.01562.07422.07422.04297.10547.01562.13281-.03125.1172-.11719.03124-.1328.01172-.14844.14844-.04297.10547-.04688.10156-.02734.1211-.03125.11718v.14844l.03125.11719.04297.10546.05859.08985.07422.07031.07422.07422.11719.03125.12109.02734.11719-.02734.1328-.01563h.1172l.08984.0586.07422.07422.04687.10546.0586.08594.10156.04688.13281.01562.10547.04297.08594.0586-.01172.10546-.07422.07422-.17969.11719-.05859.08984-.08984.0586-.07032.07422-.07421.07421-.0625.08985-.02735.11719-.01562.1328.01562.13282-.01562.13281v.14844l.01562.13281.02735.1172.03125.12108.07421.07422.08985.0586.08594.0586.08984.05858.11719.03125v.08594l-.10157.04688-.08984.0586-.26563.03124-.11718.02735h-.14844l-.10547.04296-.10156.04688-.0586.08984-.0625.23438-.01171.13281-.03125.1211-.01563.1328v.29298l-.01172.1328.01172.13673.01563.1328.1328.01563.13282.01172.1211.03125.08593.0586.07422.07421.04688.10547.04296.10157.01563.1328v.44532l-.01563.13281v.44532l.03125.26562.02735.11719.01562.13281.03125.11719.08594.21094.03125.26562v.14844l-.03125.11719-.02734.11718-.03125.1211-.02735.11719-.03125.11718-.03125.1211-.01171.1328-.01563.13282.08984.0586.1172-.03125.10155.01562.04688.10547-.03125.26562v.44141l-.04297.10547-.04688.10547-.04296.10156-.04297.10547-.0586.08594-.03125.12109-.04296.11719-.03125.11719-.01563.1328.01563.13282.05859.08984.10547.04688.08594.0586.05859.08593-.01172.13672-.03125.11719-.04297.10156v.44531l-.01562.13281v.14844l-.03125.11719-.04297.10547-.02735.11719-.04687.10546-.04297.10157-.03125.12109-.02734.11719-.03125.13281-.03125.11719-.02735.11719-.04297.10546-.03125.1172-.03125.12108-.01171.13282-.01563.13281v.29688l.02734.11718v.14844l.04688.39844.02734.11719.0586.08984.12109.03125h.14844l.13281-.01563.0586.08985v.11719l-.0586.08984-.08984.0586-.10157.04296-.10546.04688-.08985.05859-.08594.0586-.13671.01562-.1172-.03125-.1328-.01563-.10157.04688-.0625.08594-.01172.13671-.01562.13282-.03125.11719-.02735.11718-.01562.13281-.03125.1211v.29687l.01563.13282.03125.11718v.14844l.01171.13281v.14844l-.02734.11719-.04688.10156-.02734.1211-.03125.11718-.0586.08985-.07421.07421-.10156.04297-.10547.04688-.11719.02734-.1211.03125-.10156-.04687.0586-.08594.10547-.04688.02734-.11718.03125-.11719.02734-.1211.03125-.11718v-.14844l.01563-.13281-.03125-.11719-.04297-.10547-.10547.01563-.07422.07422-.10156.04296-.08984.0625-.07422.07422-.04297.10157-.01563.1328-.03125.1172L304.25 426l-.03125.11719-.02734.11719-.03125.12109-.02735.11719-.03125.11718-.04297.10547-.08984.0586h-.08984l-.1172-.03125-.03124-.08594.01562-.13672-.03125-.11719v-.14844l-.01171-.1328v-.14844l-.0625-.23438-.02735-.1211-.04297-.10156-.04687-.10546-.0586-.08594-.05859-.08985-.04297-.10546-.0625-.08594-.14844-.14844-.0703-.07422-.10548-.04687-.10547-.04297-.10156-.04297-.29687-.29688-.08985-.07421-.08594-.0586-.10546-.04297-.08985-.0625-.08594-.0586-.10546-.04296-.08985-.0586-.08594-.0625-.07421-.0703-.10547-.04688-.08594-.0586-.10547-.04296-.08984-.0625-.10156-.04297-.10547-.04297-.08594-.0586-.10547-.04687-.10547-.04297-.10156-.04687-.08985-.0586-.10156-.04297-.10547-.04296-.08984-.0625-.11719-.02735-.13281-.01562-.13281.01562H299.75l-.13281.01563-.11719-.03125-.08984-.0586-.07422-.07422-.08985-.05859-.10156-.04688h-.14844l-.12109-.02734-.10156-.04297-.07422-.07422-.11719-.17968-.08984-.0586-.10156-.04297-.08985-.0625-.10547-.04296-.08984-.0586-.08594-.0586-.10547-.04687-.0586-.08594-.05858-.08984-.04297-.10547-.04688-.10156-.07422-.07422-.08594-.0586-.07421-.07421-.08985-.0586-.22265-.22265-.04297-.10547-.03125-.26563.10547-.04296h.14453l.10547.04296.07421.07422.08985.0586.08594.0586.10546.04687.08985.05859.14844.14844.0703.07422.14845.14843.0625.08594.07421.07422.08594.0586.07422.07421.08985.0625.08984.0586.08594.05859.26953.17578.10156.04688.10547.04296.10156.04297.04688-.07421.05859-.08594.07422-.07422.07031-.07422.10547.04297.07422.07422.0586.08984.04296.10156.04688.10547.04296.10547.1211.02735.11719-.02735.07421-.08984.04297-.10547.0586-.08985.07422-.07421.10546-.04297.1172-.02735.1328.01172.08985.0586.14844.14843.05859.08985.04297.10547.04687.10156.04297.10547.04297.10156.10547.04688.10547.04296.13281.01563.08594-.0586.0586-.08984.07421-.07422.10547-.04297.11719.02735.10547.04687.10156.04297.10547.04297.10156.04688.17969.11718v.11719l-.01563.13281.01563.13281.01562.13672.0586.08594.10156.04688.1211.02734.11718.03125h.14844l.11719-.03125.05859-.08984.17969-.1172.05859-.08983.07422-.07422.0586-.08594.11718-.17969.17969-.11719.11719.03125.08984.0586.04297.07422-.01563.1328v.1172l.08985.05859h.14843l.13282-.01563.1328-.01171.26563-.03125.10547-.04297.11719-.03125.1211-.02735.07421-.07421.07031-.07422.0625-.08985-.01562-.10547-.04688-.10156-.10156-.04297-.10547-.01562-.11718.02734-.26563.03125h-.14844l-.07421-.07422-.08985-.0586-.11719-.03124-.11718-.02735-.13282-.01562h-.14843l-.13282.01563h-.29687l-.10547-.04688-.14844-.14844-.04297-.10156-.05859-.08984.22266-.22266.08593-.0586.10547-.04296.11719-.03125.13281-.01563.13281.01563.13672.01562.10157.04297.1328-.01172.08985-.0625.10156-.04297.0625-.08984-.04687-.10156-.08984-.0586-.1172-.03125-.10155-.04296-.0586-.08985-.0625-.08984v-.11719l.01563-.13281.10547-.04688.07421-.07031v-.1211l-.08984-.05859-.03125-.11719.08985-.05859.07421-.07422.04297-.10547.0586-.08984.04687-.10156.01563-.13281v-.14844l-.04688-.10547-.04297-.10156-.08984-.0586-.13281-.01562-.10157-.04297-.13671-.01563-.1172-.03125h-.4453l-.13282-.01562-.13281-.01172-.13281-.01563-.11719-.03125h-.14844l-.13281-.01562-.13281-.01172-.26563-.03125-.1211-.04297-.08593-.0586-.07422-.07421v-.14844l.01172-.13281.10547-.04688.10156-.04296.13281-.01563h.15235l.13281-.01562h.29297l.1211.03125.10156.04296.08984.0586.23438.0625.12109-.04688.08984-.05859.10156-.04297.13282-.01562.10547.04296.10156.04688.13281.01172.1211-.02735h.14453l.12109-.03125.11719-.02734.10547-.04687.07421-.07422.08594-.0586.14844-.14843.0586-.08594.04687-.10547.02734-.11719.01563-.10547-.10156-.04296-.08985-.0586-.11719-.03125-.10546-.04297-.08985-.0625-.07422-.08594-.07422-.07421-.10156-.04297-.10547-.04688-.10156-.04297-.0586-.08984-.04687-.10156-.08594-.21094-.0625-.08594-.05859-.08984-.07422-.07422-.08594-.0586h-.26953l-.11719.03126-.08984.05859-.10156.04297-.13281.01562-.10547-.01562-.02735-.11719-.0625-.08984-.11718-.03125-.10157-.04297-.14843-.14844-.03125-.11719-.01563-.10546.07422-.07422.17969-.1172.11719-.02733.11718-.03125.13672.01562.10156.04297.10547.04297.10156.04687.10547.04297.1172.03125.1328.01563.1172.02734.1328.01563.10547-.01563.08985-.0586-.07422-.07421-.10547-.04297-.07422-.07422-.07422-.08984-.14844-.14844-.08593-.0586-.08985-.05859-.07422-.07422-.08984-.0586-.10156-.04687-.1211-.02734-.10156-.04688-.10547-.04296-.11719-.03125-.10156-.04297-.1211-.03125h-.14843l-.11719.03125-.10546.04297-.08594.0625-.17969.11718-.08594.0586-.08984.0586-.10547.04687-.08594.05859-.10547.04297-.10156.04297-.10547.04687-.07422.07422-.05859.08985-.0586.08593-.04687.10547-.0586.08594-.07421.07422-.13281-.01172-.1172-.03125h-.11718l-.07422.07422-.08984.0586-.07422.07421-.08984.0586-.08594.05859-.10547.04687-.10156.04297-.13672.01563-.10156-.04297-.14844-.14844-.10547-.04688h-.08594l-.10547.04688-.10156.04297-.1211.03125-.11718-.03125-.07422-.07422v-.11719l.03125-.1211.07422-.0703.0586-.08985.07421-.07422.11719-.03125.10547-.04296h.29297l.13281-.01563.13672-.01563.10156-.04296.08985-.0586.10156-.04687.08984-.0586.13281-.01171.08985.05859.13281.01172.08984-.0586.08594-.05859.10547-.04297.08984-.0586.08594-.0625.08985-.05859.14843-.14843.0586-.08594.05859-.08985.10547-.04296.13281-.01563.11719.02735.1211.03125.05859-.0586.05859-.08984.03125-.26563.02734-.11719.10547.01172.13281.01563.10157-.04297.08984-.0586.0586-.08984.07421-.07422.0586-.08984.04687-.10156.01172-.13281-.01172-.13282-.04687-.10547-.14844-.14843-.0586-.08985-.05859-.08594-.04297-.10546v-.44532l.01563-.1328v-.14845l.01172-.1328-.0586-.0586-.08984.0586-.10156-.04298-.17969-.11719-.08594-.05859-.0625-.08984-.0586-.08985-.07421-.07421-.08594-.0586-.1211.03125-.10155.01172-.10547.04688-.08594.05859-.10547.04297-.14844.14844-.08984.05859-.08594.0586-.08984.0625-.10547.04296-.13281.01563v-.1211l.10547-.04297.11718-.03125.07422-.0703.04297-.10548v-.14844l-.02734-.11718-.14844-.14844-.13281-.01563h-.14844l-.11719.03125-.10547.04297-.10156.04297-.08984.0625-.11719.02735-.07422-.07422.01172-.13281-.04297-.10157-.04297-.10547-.08984-.05859-.11719.02734-.1211.03125-.11718.03125-.10156.04297-.1211.03125-.10156.04297-.10547.04297-.08984.0586-.10156.01562v-.11719l.01562-.13281-.0586-.08985-.07421.04297-.14844.14844-.0586.08985-.07421.07421-.04688.10547-.04296.10156-.07422.07422-.0586.08985-.07422.07422-.05859.08593-.07422.07422-.08984.0625-.07422.07031-.07422.07422-.10156.01563-.13281.01562-.10547-.04296v-.1211l.14843-.14844.04297-.10156.0586-.08984.04687-.10156.04297-.10547.0586-.08985.03124-.11719.04297-.10156.03125-.1211.02735-.11718.04687-.10547.04297-.10156.04297-.10547.07422-.07031.08984-.0625.08985-.0586.10156-.04296h.29687l.26563-.03125.10547-.04297-.07422-.07422-.11719-.03125-.10547-.04297-.08984-.0586-.10156-.04687-.08985-.0586-.10156-.04296-.10547-.04297-.08984-.0625-.08594-.0586-.10547-.04296-.10156-.04297-.1211-.03125-.11718-.03125-.10157-.04297L297.5 410.25l-.10156-.04297-.08985-.0586-.04296-.10546-.01563-.13281.10156-.04297.13281-.01563.13672.01563.13282-.01563.10156-.04297.0586-.08984.01562-.10547-.08985-.0586-.07421-.07421-.10157-.04297-.08984-.0586-.14844-.14843-.04297-.10547-.01562-.13281v-.29297l-.0586-.08985-.08984-.05859-.07422-.07422-.04297-.10547-.03125-.11718-.0586-.08985-.07421-.07422-.11719-.02734-.07422-.07422-.08984-.0586-.08984-.0625-.08594-.05859-.07422-.07421-.0586-.08594-.04687-.10547-.08594-.0586-.14843-.14843-.19532-.0586-.1328.01563-.10157.04297-.07422.07422-.04688.10156-.04296.10547-.0586.08984-.0586.08594-.29687.29687-.08984.0586h-.08594l-.0625-.08594-.04297-.10547.03125-.11719.0586-.08984.02734-.11719-.01172-.13281-.08984-.0625-.10547.04688-.11719.02734-.11719.03125-.26953.17578-.10156.04688-.11719.02734-.10546.04687-.08985.0586-.10156.04297-.0586-.08594-.04687-.10547.01563-.13281.04687-.10547.07031-.07422.07422-.07031.0586-.08985v-.14843l-.04297-.10547h-.23829l-.10156.04687-.03125.11719-.02734.11719-.03125.1211-.07422.04296-.13281.01563-.07422-.04688-.04297-.10156-.04297-.10547-.04687-.10156-.04297-.10547-.1211.03125-.10156.04297-.13281.01562-.11719.03125-.10547.04297-.08984.0586-.10156.04687-.1211.02734-.13281.01563-.10156-.04297-.0586-.08985-.04687-.10546-.04297-.10157-.04297-.10546v-.1172l.0586-.08984.08593-.05859.17969-.11719.10156-.04687.10547-.04297.10547-.0586.10156-.04296.08985-.0625.10156-.04297.10547-.0586.10156-.04687.08984-.0586.10547-.04296.10156-.04297.08985-.0625.10156-.04297.13672-.01563.11719.03125.10156.04297.1211.03125.10156.04297.10546.04688.10157.04296.10547.04297.10156.04688.10547.04297.10156.04297.10547.04687.08594.0586.10546.04296.1172.03125.10546.04297.10156.04688.08985.0586.10547.04296.10156.04297.10547.04687.11719.02735.10156.04687.1211.02735h.14843l.08594-.0586.01562-.10156.0586-.08984-.02735-.1172-.07422-.07421-.11719-.17969-.07421-.07422-.08985-.07421-.17969-.1172-.08593-.05859-.10547-.04296-.10156-.04688-.26954-.17578-.05859-.08985-.07422-.07421-.0586-.08985-.04296-.10156-.03125-.11719-.01563-.13672v-.5625l-.01171-.1328-.01563-.13282-.03125-.11719-.01562-.13281-.01172-.13281-.03125-.1211-.22266-.22265-.0586-.08594-.01562-.10547.03125-.11719.13281-.01562v-91.41406H172.9922v1.45312l-.0586.23438-.35156 1.05078-.17187.52343-.1172.34766-.17577.41016-.11719.17187-.23438.29297-.23046.0586h-.35157l-.11718.05859-.23047.40625v.29297l.11719.17578.23046.23047.1172.23437.64062.75781.29297.46485.17578.23437.23047.35156.23437.34766.64063.8164.17578.46485.17187.41016.11719.69531.17578.46875.11719 1.39844.0586.46484v.875l.11718 1.04688v4.78125l-.0586.46484-.35156 1.28125-.17578.52344-.11328.41015-.35156.9297L172.93359 336l-.23437.58203-.11719.17578-.17187.34766-.17578.40625-.35157.8164-.0586.29297-.11327.29297-.11719.28906-.0586.17579-.11718.875-.0586.40625-.05859.11718-.0586.17579-.05859.17187-.23047.52734-.11718.17188v.23437l-.11719.23438-.0586.17187-.17577.58594v.28906l-.0586.17579v.29296l-.0586.11329-.05859.52734v.17187l-.05468.23438v2.6211l-.17578.8164-.1172.17578-.17577.23438-.1172.17187-.11327.23438-.58594.93359-.23047.28906-.29297.46485-.17578.23437-.28906.35156-.35156.69922-.11328.23047-.17579.41016-.17578.23046-.40625.52735-.8164.69922-.29297.17187-.28906.23438-.17579.11719-.17578.17578-.52344.40625-.52734.17578-.17187.17578-.23438.05469-.64062.17578h-.75782m12.21094 31.02344l-1.07422.44921.35938.89454 1.25-.71485.44531-.53906-.98047-.08985"/><path fill="#d3d3d3" fill-opacity="0" fill-rule="evenodd" d="M201.50781 416.59766h-.89453l.44922.6289.98047.35938.80469-.08985.4453-.98828-.17577.08985-.71485-.35547-.89453.35547m154.6211 59.0703l-.0586-.52343v-.29297l.11328-.29297.0586-.23046.46875-.46875h.11328l.11719-.11329.11718-.05859h.17579l.23437-.0586h.34766l.23437.0586.11719.0586.23047.17187.0586.17578.11718.58203v.29297l-.11719.17578-.17187.28906-.17579.17579-.52734.52343-.23047.23438-.11719.0586h-.17578l-.11718-.0586-.40625-.29297-.17579-.11719-.11718-.0586-.0586-.11327-.05468-.1172m6.64062-10.95702l-.0586-.17188v-1.10937l.0586-.17188.17578-.0586.17188-.05858h.17578l.23437-.0586.1172.0586.05858.69921-.05859.17188-.11719.17578-.11718.0586-.23438.52343-.11328.0586h-.23438l-.05859-.1172m9.61328-14.39062l-.11719-.17578v-.69922l.29297-.875.1172-.17187.17577-.35156.11328-.23047.1172-.29297.35155-.75781.1172-.23047.17187-.23438h.17578l.11719-.0586h.64062l.11719.0586.23437.23438.17188.11328.35156.29297.11719.11718.11328.17579v.11328l.11719.05859.11718.11719v.69922l-.05859.17578v.23047l-.0586.17578-.34765 1.05078-.11719.23047-.11719.23437-.11718.0586-.23047.23437-.64063.28906h-.875l-.41015-.11718-.64063-.46485"/><path fill="none" stroke="#bebebe" stroke-linecap="round" stroke-linejoin="round" stroke-miterlimit="10" stroke-width=".5" d="M467.95703 311.69531H144.02734v168.625h323.9297v-168.625"/><g clip-path="url(#a)"><path fill="#fff" fill-opacity="0" fill-rule="evenodd" d="M144 475.89063v4.4375h.0039H144v-149.9336 145.4961"/></g><path fill="#50fcfc" fill-rule="evenodd" d="M144 324.91797v5.47656h.0039v-5.47265l-.0039-.00391"/><path fill="#fff" fill-opacity="0" fill-rule="evenodd" d="M144 314.57813v10.33984l.0039.0039v-10.34765l-.0039.0039"/><g clip-path="url(#b)"><path fill="#fff" fill-opacity="0" fill-rule="evenodd" d="M144.0039 480.32813v-149.9336l.94923-.96875-.90235-4.4414-.04687-.0625v-10.34766l2.14453-2.90235h11.16797v1.28516l-2.9375 3.15235 2.9375 3.41796 3.48828-3.41796-3.48828-3.15235v-1.28515h4.4375v97.90625l-3.84375 4.17578.68359 4.4375-.32031 4.4375.6211 4.4414.6875 4.4375.84374 4.4375-.25 4.4375-.10156 4.4375-.59766 4.4414 1.84766 4.4375.42969.46485 1.35937-.46484 2.47266-4.4375.25781-4.4414-1.33984-4.4375 1.26953-4.4375.41797-.40235 4.4375.34765 4.4375-.5 4.4414.48438.17578.07031-.17578.19922-4.4414 3.21875-.9922 1.01953.9922 1.23047 4.03125 3.20703-4.03125.98047-4.4375 2.35938-2.02735 1.10156 2.02735 2.10937 4.4375 1.45313 4.4414.15625 1.98438.71875 2.45312.40234.88672-.40234-.88672-.51563-2.86328-3.92187-1.47656-4.4414 4.33984-2.51563 3.16797-1.92188 1.26953-1.85156 4.4375-1.19922 4.4414 2.70313.66017.34765 3.77734 2.76172 2.42187-2.76172 2.01563-.36328 4.4375-.04297 4.4414-.55469 4.4375.35547 4.4375-1.4375 4.4375-1.3164 4.4375 1.09375 4.44141.28125 2.04688 1.98437 2.39062 2.33203 4.38672-2.33203-4.38672-4.09375-.32422-.34375-4.11328-3.08594-.96875-1.35156.96875-4.4375h.03125l2.6875-4.4414-2.71875-1.50782-4.4414 1.19532-4.4375.27734-.35157.03516-4.08594.22265-.58203-.22265-3.85547-3.97266-.28125-.46484-4.15625-2.35157-4.4414.08204-4.4375-1.31641-1.76172-.85156-2.67578-1.72266-4.4375.44922-2.0625 1.27344-2.3789.65234-4.4375.79688-4.4375.14843-4.4375-.52344-4.44141.53125-1.67578-1.60546-2.76172-2.15625-4.4375-1.01954-4.4375-1v-97.90625h17.7539v30.28907l-.82031.77734-2.26563 4.4414 3.08594 2.80079 2.73828-2.80078-2.0625-4.4414-.67578-.77735v-30.28906h22.1914v11.05859l-4.14843 2.2539-.28906.16797-4.4414 1.61329-2.64454 2.66015-1.79297 4.19922-.19531.23828.19531.2461 4.4375 1.26562 4.4414 1.66797 4.4375.70703v4.64453l-.1328.34375.1328.11328.23438-.11328-.23437-.34375V337.75l4.4375-2.82031.29297-1.0664.82422-4.4375-1.1172-1.5547-.97655-2.88671-3.46094-2.25391v-11.0586h13.3164v10.39063l-2.16015 2.92188 2.16016 2.34765 1.89843-2.34765-1.89844-2.92188v-10.39063h53.25782V429.9961l-2.76172 1.51172 2.76172 1.48438 1.5625-1.48438-1.5625-1.51172V311.67188h106.51953v136.29687l-1.52735 1.29297 1.52735 1.9414 3.8086 2.4961.6328.6289.41797-.6289-.41796-.35938-3.13672-4.07812-1.3047-1.29297V311.67187h8.87892V461.0547l-.51563 1.51953-2.07031 4.4414 2.58594 3.96875 2.58593-3.96875-1.98828-4.4414-.59765-1.51953V311.67188h84.32421v168.65625H144.00391"/></g><path fill="#50fcfc" fill-rule="evenodd" d="M144.95313 329.42578l-.94922.96875v-5.47265l.04687.0625.90234 4.4414"/><g clip-path="url(#c)"><path fill="#50fcfc" fill-rule="evenodd" d="M146.14844 311.67188l-2.14453 2.90234v-2.90235h2.14453"/></g><path fill="#50fcfc" fill-rule="evenodd" d="M157.3164 319.52734l-2.9375-3.41796 2.9375-3.15235v2.63672l-.48046.51563.48047.55859.5703-.5586-.5703-.51562v-2.63672l3.48828 3.15235-3.48828 3.41796"/><path fill="#00e8fc" fill-rule="evenodd" d="M157.3164 316.66797l-.48046-.5586.48047-.51562.5703.51563-.5703.55859"/><path fill="#50fcfc" fill-rule="evenodd" d="M158.59375 418.1914l-.6836-4.4375 3.84376-4.17577v2.58984l-1.46094 1.58594 1.45703 4.4375-1.53516 4.4375 1.53907 3.80468 4.4375-2.61718 3.33593-1.1875 1.10157-.09375.71484.09375.05078 4.4414 3.32422 4.4375.34766.20313.54687-.20313 3.89453-.32031 4.4375-3.20313 4.4375 3.02735.88672.4961 3.55078 2.20702 4.4414 1.14063 1.19532 1.08984 3.24219 2.79297 4.4375-.39453 4.4375-.78125 3.59766-1.61719.84375-.22265 4.4375-.2461 4.4375-.60937 3.01171-3.35938 1.42578-1.53906 3.625 1.53906.8125 1.36328.51563-1.36328-.51563-1.24219-1.03906-3.1953-3.39844-2.64454-4.4375 2.60156-.76562.04297-3.67188.11328-.15625-.11328-4.28125-2.94531-1.17968-1.4961-3.26172-3.54687-3.57031-.89062-.8672-.375-4.4375-2.52735-4.4375.9414-4.4414.33595-3.39453 1.625-1.04297 1.01953-4.4375-.65235-3.86328-.36718-.57422-.15625-.34375.15625-4.09765 2.80078-.71485-2.80078-3.72265-3.69141-4.4375-.3789-1.07813-.3672-3.35937-1.58593v-2.58985l4.4375 1 4.4375 1.01954 2.76172 2.15625 1.67578 1.60546 4.4414-.53125 4.4375.52344 4.4375-.14844 4.4375-.79687 2.3789-.65234 2.0625-1.27344 4.4375-.44922 2.67579 1.72266 1.76172.85156 4.4375 1.3164 4.4414-.08203 4.15625 2.35157.28125.46484 3.85547 3.97266.58203.22265 4.08594-.22265.35156-.03516 4.4375-.27734 4.44141-1.19532 2.71875 1.50782-2.6875 4.4414h-.03125l-.96875 4.4375.96875 1.35156 4.11328 3.08594.32422.34375 4.38672 4.09375-4.38672 2.33203-2.39062-2.33203-2.04688-1.98437-4.4414-.28125-4.4375-1.09375-4.4375 1.3164-4.4375 1.4375-4.4375-.35546-4.44141.55468-4.4375.04297-2.01563.36328-2.42187 2.76172-3.77734-2.76172-.66016-.34765-4.4414-2.70313-4.4375 1.19922-1.26954 1.85156-3.16797 1.92188-4.33984 2.51562 1.47656 4.4414 2.86328 3.92188.88672.51563-.88672.40234-2.45312-.40234-1.98438-.71875-4.4414-.15625-4.4375-1.45313-2.02735-2.10937 2.02735-1.10156 4.4375-2.35938 4.03125-.98047-4.03125-3.20703-.9922-1.23047.9922-1.01953 4.4414-3.21875.17578-.19922-.17578-.07031-4.4414-.48438-4.4375.5-4.4375-.34765-.41797.40234-1.26953 4.4375 1.33984 4.4375-.25781 4.4414-2.47266 4.4375-1.35937.46485-.4297-.46484-1.84765-4.4375.59766-4.4414.10156-4.4375.25-4.4375-.84375-4.4375-.6875-4.4375-.6211-4.44141.32032-4.4375"/><path fill="#00e8fc" fill-rule="evenodd" d="M161.7539 426.4336l-1.53906-3.8047 1.53516-4.4375-1.45703-4.4375 1.46094-1.58593 3.35937 1.58594 1.07813.36718 4.4375.37891v2.01563l-4.4375.72265-1.03907.95313 1.03907 1.14453 4.4375.82812 1.6875-1.97265-1.6875-1.67579V414.5l3.72265 3.6914.71485 2.80079 4.09765-2.80078.34375-.15625.57422.15625 3.86328.36718 4.4375.65235 1.04297-1.01953 3.39453-1.625v3.47656l-2.61328 2.58594-1.82422 4.26562-1.3711-4.26562-3.0664-2.21485-4.4375.04297-2.39453 2.17188-1.78906 4.4414 4.1836 2.77344 3.08593-2.77344 1.35156-1.91797 4.33594 1.91797.10156.08203 4.4375 3.64454 4.4414.46484 1.06642.2461 3.37109 2.89062 4.4375 1.17578 4.4375-1.26563 4.4414-.96484 4.4375-1.45703 3.80079-.3789-3.80078-.41407-4.4375-3.17969-.53907-.84375-3.48047-4.4414-.42187-.45704-4.4375-.80468-4.4375-.3711-4.4375.42579-4.4414-1.37891v-3.47656l4.4414-.33594 4.4375-.9414 4.4375 2.52734.86719.375 3.5703.89062 3.26173 3.54688 1.17969 1.49609 4.28125 2.94531.15625.11328 3.67187-.11328.76563-.04297 4.4375-2.60156 3.39843 2.64453 1.03906 3.19531.51563 1.2422-.51563 1.36327-.8125-1.36328-3.625-1.53906-1.42578 1.53906-3.01172 3.35938-4.4375.60937-4.4375.2461-.84375.22265-3.59765 1.61719-4.4375.78125-4.4375.39453-3.24219-2.79297-1.19531-1.08984-4.4414-1.14063-3.55079-2.20703-.88672-.4961-4.4375-3.02733-4.4375 3.20312-3.89453.32031-.54687.20313-.34766-.20313-3.32422-4.4375-.05078-4.4414-.71484-.09375-1.10157.09375-3.33593 1.1875-4.4375 2.61718"/><path fill="#00d4fc" fill-rule="evenodd" d="M166.1914 419.33594l-1.03906-1.14453 1.03907-.95313 4.4375-.72265 1.6875 1.67578-1.6875 1.97265-4.4375-.82812m13.3164 10.50781l-4.1836-2.77344 1.78907-4.4414 2.39453-2.17188 4.4375-.04297v1.85547l-3.26172.35938-1.17578.27343-2.16015 4.16797 2.16015 1.4336 1.59375-1.4336 2.84375-4.03125.5-.41015-.5-.35938v-1.85547l3.0664 2.21485 1.3711 4.26562 1.82422-4.26562 2.61328-2.58594v3.16797l-2.72265 3.85937 2.72265 2.26953 4.4414.26563 4.4375-.42578 2.22267 2.32812 2.21484 1.42188 4.4375-1.35547.4414-.0664.50391-4.4375-.94531-1.21485-4.4375-1.84375-4.4375 1.38672-4.4375-1.29688-4.4414-.89062v-3.16797l4.4414 1.3789 4.4375-.42578 4.4375.3711 4.4375.80469.42187.45703 3.48047 4.4414.53906.84375 4.4375 3.17969 3.80079.41406-3.80078.3789-4.4375 1.45704-4.44141.96484-4.4375 1.26563-4.4375-1.17578-3.3711-2.89063-1.0664-.2461-4.4414-.46483-4.4375-3.64454-.10157-.08203-4.33594-1.91797-1.35156 1.91797-3.08594 2.77344"/><path fill="#50fcfc" fill-rule="evenodd" d="M179.50781 349.98047l-3.08594-2.80078 2.26563-4.4414.82031-.77735v5.15234l-.04297.0664.04297.03516.03516-.03515-.03516-.0664v-5.15235l.67578.77734 2.0625 4.4414-2.73828 2.80079"/><path fill="#00c4fc" fill-rule="evenodd" d="M179.50781 428.5039l-2.16015-1.43359 2.16015-4.16797v3.89454l-.14062.27343.14062.08985.10156-.08985-.10156-.27344v-3.89453l1.17578-.27343 3.26172-.35938.5.35938-.5.41015-2.84375 4.03125-1.59375 1.4336"/><path fill="#00b8fc" fill-rule="evenodd" d="M179.50781 427.16016l-.14062-.08985.14062-.27344.10156.27344-.10156.08985"/><path fill="#00e8fc" fill-rule="evenodd" d="M179.50781 347.21484l-.04297-.03515.04297-.0664.03516.0664-.03516.03515"/><path fill="#50fcfc" fill-rule="evenodd" d="M188.38281 334.10938l-.19531-.2461.19531-.23828 1.79297-4.19922 2.64453-2.66015 4.4414-1.61329.28907-.16796 4.14844-2.25391v3.66797l-4.4375 2.22265-1.48828.8047 1.48828 1.1875 2.53125 3.25 1.90625 1.2539 1.45703-1.2539.4414-4.4375-1.89843-3.02735v-3.66797l3.46094 2.2539.97656 2.88672 1.11719 1.5547-.82422 4.4375-.29297 1.0664-4.4375 2.82031-4.4375-.70703-4.4414-1.66797-4.4375-1.26563"/><path fill="#00c4fc" fill-rule="evenodd" d="M192.82031 429.33984l-2.72265-2.26953 2.72265-3.85937v2.48047l-.96875 1.3789.96875.8086 4.4414.0664 2.25392-.875-2.25391-1.02734-4.4414-.35156v-2.48047l4.4414.89062 4.4375 1.29688 4.4375-1.38672v2.1875l-1.9375.8711 1.9375 2.04296 1.63281-2.04297-1.63281-.8711v-2.1875l4.4375 1.84376.94531 1.21484-.5039 4.4375-.44141.0664-4.4375 1.35548-2.21484-1.42188-2.22266-2.32812-4.4375.42578-4.4414-.26563"/><path fill="#00b8fc" fill-rule="evenodd" d="M192.82031 427.8789l-.96875-.80859.96875-1.3789 4.4414.35156 2.25392 1.02734-2.25391.875-4.4414-.0664"/><path fill="#00e8fc" fill-rule="evenodd" d="M197.26172 330.61328l-1.48828-1.1875 1.48828-.80469 4.4375-2.22265 1.89844 3.02734-.44141 4.4375-1.45703 1.2539-1.90625-1.2539-2.53125-3.25"/><path fill="#50fcfc" fill-rule="evenodd" d="M201.69922 342.85156l-.13281-.11328.1328-.34375.23438.34375-.23437.11328"/><path fill="#00b8fc" fill-rule="evenodd" d="M206.13672 429.11328l-1.9375-2.04297 1.9375-.8711 1.63281.8711-1.63281 2.04297"/><path fill="#50fcfc" fill-rule="evenodd" d="M215.01563 327.33203l-2.16016-2.34765 2.16016-2.92188 1.89843 2.92188-1.89844 2.34765m53.25782 105.66016l-2.76172-1.48438 2.76172-1.51172 1.5625 1.51172-1.5625 1.48438m106.51953 18.21094l-1.52735-1.94141 1.52735-1.29297 1.30469 1.29297 3.13671 4.07812.41797.35938-.41796.6289-.63282-.6289-3.8086-2.4961m8.87892 19.78125l-2.58594-3.96875 2.07031-4.4414.51563-1.51953.59765 1.51953 1.98828 4.4414-2.58594 3.96875"/><g clip-path="url(#d)"><path fill="#fff" fill-opacity="0" fill-rule="evenodd" d="M467.9961 480.32813H468V311.67188h-.0039H468v168.65625h-.0039"/></g><path fill="#fff" fill-opacity="0" fill-rule="evenodd" d="M230.20703 427.8789l5.76172-.9453-1.61328-9.82813-5.76563.94531 1.6172 9.82813"/><path fill-rule="evenodd" d="M232.33984 419.29297l.50391-.08203 1.01953 6.21094-.77734.1289-.72656-4.4336-1.3711.22657-.08984-.54688.54297-.15625.23828-.09375.21094-.125.17968-.17187.13672-.23828.09375-.3125.03906-.40625"/><path fill="#fff" fill-opacity="0" fill-rule="evenodd" d="M164.67188 441.47656l5.5-1.96875-3.35547-9.3789-5.5 1.96875 3.35547 9.3789"/><path fill-rule="evenodd" d="M165.23047 432.64453l.47656-.17187 2.1211 5.92968-.7422.26172-1.51171-4.22656-1.3086.46875-.18359-.52344.5039-.25.21876-.13672.1875-.16015.14062-.20313.09375-.2539.03516-.32813-.03125-.40625"/><g clip-path="url(#e)"><path fill="none" stroke="#000" stroke-linecap="round" stroke-linejoin="round" stroke-miterlimit="10" stroke-width=".5" d="M147.3164 481.49219l-6.6328-2.32813"/></g><g clip-path="url(#f)"><path fill="none" stroke="#000" stroke-linecap="round" stroke-linejoin="round" stroke-miterlimit="10" stroke-width=".5" d="M146.35156 481.15625l.1836 1.21094"/></g><g clip-path="url(#g)"><path fill="none" stroke="#000" stroke-linecap="round" stroke-linejoin="round" stroke-miterlimit="10" stroke-width=".5" d="M160.73047 481.15234l-6.83203-1.64453"/></g><g clip-path="url(#h)"><path fill="none" stroke="#000" stroke-linecap="round" stroke-linejoin="round" stroke-miterlimit="10" stroke-width=".5" d="M160.73047 481.15234l.61328 2.375"/></g><g clip-path="url(#i)"><path fill="none" stroke="#000" stroke-linecap="round" stroke-linejoin="round" stroke-miterlimit="10" stroke-width=".5" d="M159.73828 480.91406l.30469 1.1875"/></g><g clip-path="url(#j)"><path fill="none" stroke="#000" stroke-linecap="round" stroke-linejoin="round" stroke-miterlimit="10" stroke-width=".5" d="M174.13672 480.54688l-7.01172-.4375"/></g><g clip-path="url(#k)"><path fill="none" stroke="#000" stroke-linecap="round" stroke-linejoin="round" stroke-miterlimit="10" stroke-width=".5" d="M174.13672 480.54688l1.01562 2.23437"/></g><g clip-path="url(#l)"><path fill="none" stroke="#000" stroke-linecap="round" stroke-linejoin="round" stroke-miterlimit="10" stroke-width=".5" d="M187.44922 480.60547l-7.00781-.55469"/></g><g clip-path="url(#m)"><path fill="none" stroke="#000" stroke-linecap="round" stroke-linejoin="round" stroke-miterlimit="10" stroke-width=".5" d="M187.44922 480.60547l.97656 2.25"/></g><g clip-path="url(#n)"><path fill="none" stroke="#000" stroke-linecap="round" stroke-linejoin="round" stroke-miterlimit="10" stroke-width=".5" d="M200.70313 481.02344l-6.88672-1.39063"/></g><g clip-path="url(#o)"><path fill="none" stroke="#000" stroke-linecap="round" stroke-linejoin="round" stroke-miterlimit="10" stroke-width=".5" d="M200.70313 481.02344l.70312 2.35156"/></g><g clip-path="url(#p)"><path fill="none" stroke="#000" stroke-linecap="round" stroke-linejoin="round" stroke-miterlimit="10" stroke-width=".5" d="M199.70313 480.82031l.34765 1.17578"/></g><g clip-path="url(#q)"><path fill="none" stroke="#000" stroke-linecap="round" stroke-linejoin="round" stroke-miterlimit="10" stroke-width=".5" d="M214.08984 480.29297l-7.02734.07422"/></g><g clip-path="url(#r)"><path fill="none" stroke="#000" stroke-linecap="round" stroke-linejoin="round" stroke-miterlimit="10" stroke-width=".5" d="M214.08984 480.29297l1.17188 2.15234"/></g><g clip-path="url(#s)"><path fill="none" stroke="#000" stroke-linecap="round" stroke-linejoin="round" stroke-miterlimit="10" stroke-width=".5" d="M213.0664 480.30469l.58594 1.07422"/></g><g clip-path="url(#t)"><path fill="none" stroke="#000" stroke-linecap="round" stroke-linejoin="round" stroke-miterlimit="10" stroke-width=".5" d="M227.32422 479.58594l-6.86719 1.48437"/></g><g clip-path="url(#u)"><path fill="none" stroke="#000" stroke-linecap="round" stroke-linejoin="round" stroke-miterlimit="10" stroke-width=".5" d="M227.32422 479.58594l1.58203 1.875"/></g><g clip-path="url(#v)"><path fill="none" stroke="#000" stroke-linecap="round" stroke-linejoin="round" stroke-miterlimit="10" stroke-width=".5" d="M240.625 479.51172l-6.83594 1.63281"/></g><g clip-path="url(#w)"><path fill="none" stroke="#000" stroke-linecap="round" stroke-linejoin="round" stroke-miterlimit="10" stroke-width=".5" d="M240.625 479.51172l1.6211 1.84375"/></g><g clip-path="url(#x)"><path fill="none" stroke="#000" stroke-linecap="round" stroke-linejoin="round" stroke-miterlimit="10" stroke-width=".5" d="M253.97266 479.6836l-6.90625 1.29296"/></g><g clip-path="url(#y)"><path fill="none" stroke="#000" stroke-linecap="round" stroke-linejoin="round" stroke-miterlimit="10" stroke-width=".5" d="M253.97266 479.6836l1.53125 1.91796"/></g><g clip-path="url(#z)"><path fill="none" stroke="#000" stroke-linecap="round" stroke-linejoin="round" stroke-miterlimit="10" stroke-width=".5" d="M267.26172 479.55078l-6.85156 1.5586"/></g><g clip-path="url(#A)"><path fill="none" stroke="#000" stroke-linecap="round" stroke-linejoin="round" stroke-miterlimit="10" stroke-width=".5" d="M266.26563 479.77734l.80078.9297"/></g><g clip-path="url(#B)"><path fill="none" stroke="#000" stroke-linecap="round" stroke-linejoin="round" stroke-miterlimit="10" stroke-width=".5" d="M280.51172 479.3086l-6.72266 2.04296"/></g><g clip-path="url(#C)"><path fill="none" stroke="#000" stroke-linecap="round" stroke-linejoin="round" stroke-miterlimit="10" stroke-width=".5" d="M279.53516 479.60547l.86328.86719"/></g><g clip-path="url(#D)"><path fill="none" stroke="#000" stroke-linecap="round" stroke-linejoin="round" stroke-miterlimit="10" stroke-width=".5" d="M293.74219 479.0586l-6.55078 2.53906"/></g><g clip-path="url(#E)"><path fill="none" stroke="#000" stroke-linecap="round" stroke-linejoin="round" stroke-miterlimit="10" stroke-width=".5" d="M292.78906 479.42969l.92969.80078"/></g><g clip-path="url(#F)"><path fill="none" stroke="#000" stroke-linecap="round" stroke-linejoin="round" stroke-miterlimit="10" stroke-width=".5" d="M306.71484 478.39453l-5.86718 3.8711"/></g><path fill="none" stroke="#000" stroke-linecap="round" stroke-linejoin="round" stroke-miterlimit="10" stroke-width=".5" d="M305.85938 478.95703l1.07812.58594"/><g clip-path="url(#G)"><path fill="none" stroke="#000" stroke-linecap="round" stroke-linejoin="round" stroke-miterlimit="10" stroke-width=".5" d="M319.9375 478.26172l-5.6836 4.13281"/></g><path fill="none" stroke="#000" stroke-linecap="round" stroke-linejoin="round" stroke-miterlimit="10" stroke-width=".5" d="M319.10938 478.86328l1.10546.53516"/><g clip-path="url(#H)"><path fill="none" stroke="#000" stroke-linecap="round" stroke-linejoin="round" stroke-miterlimit="10" stroke-width=".5" d="M332.95703 477.91016l-5.09375 4.83984"/></g><path fill="none" stroke="#000" stroke-linecap="round" stroke-linejoin="round" stroke-miterlimit="10" stroke-width=".5" d="M332.21875 478.61328l1.16016.38672"/><g clip-path="url(#I)"><path fill="none" stroke="#000" stroke-linecap="round" stroke-linejoin="round" stroke-miterlimit="10" stroke-width=".5" d="M346.125 477.76172l-4.79688 5.13281"/></g><path fill="none" stroke="#000" stroke-linecap="round" stroke-linejoin="round" stroke-miterlimit="10" stroke-width=".5" d="M345.42578 478.50781l1.1875.32031"/><g clip-path="url(#J)"><path fill="none" stroke="#000" stroke-linecap="round" stroke-linejoin="round" stroke-miterlimit="10" stroke-width=".5" d="M359.09766 477.48047l-4.11329 5.69922"/></g><g clip-path="url(#K)"><path fill="none" stroke="#000" stroke-linecap="round" stroke-linejoin="round" stroke-miterlimit="10" stroke-width=".5" d="M372.70703 477.71484l-4.69922 5.22657"/></g><path fill="none" stroke="#000" stroke-linecap="round" stroke-linejoin="round" stroke-miterlimit="10" stroke-width=".5" d="M372.02344 478.47656l1.1875.29688"/><g clip-path="url(#L)"><path fill="none" stroke="#000" stroke-linecap="round" stroke-linejoin="round" stroke-miterlimit="10" stroke-width=".5" d="M387.1836 480.35938l-7.02735-.0586"/></g><g clip-path="url(#M)"><path fill="none" stroke="#000" stroke-linecap="round" stroke-linejoin="round" stroke-miterlimit="10" stroke-width=".5" d="M396.42969 476.85938l1.11328 6.9375"/></g><g clip-path="url(#N)"><path fill="none" stroke="#000" stroke-linecap="round" stroke-linejoin="round" stroke-miterlimit="10" stroke-width=".5" d="M411.28125 476.95313l-1.96094 6.75"/></g><path fill="none" stroke="#000" stroke-linecap="round" stroke-linejoin="round" stroke-miterlimit="10" stroke-width=".5" d="M410.9961 477.9375l1.20312-.25"/><g clip-path="url(#O)"><path fill="none" stroke="#000" stroke-linecap="round" stroke-linejoin="round" stroke-miterlimit="10" stroke-width=".5" d="M425.65625 477.46875l-4.07813 5.71875"/></g><g clip-path="url(#P)"><path fill="none" stroke="#000" stroke-linecap="round" stroke-linejoin="round" stroke-miterlimit="10" stroke-width=".5" d="M438.63672 477.2539l-3.41016 6.14844"/></g><path fill="none" stroke="#000" stroke-linecap="round" stroke-linejoin="round" stroke-miterlimit="10" stroke-width=".5" d="M438.14063 478.14844l1.22656.02344"/><g clip-path="url(#Q)"><path fill="none" stroke="#000" stroke-linecap="round" stroke-linejoin="round" stroke-miterlimit="10" stroke-width=".5" d="M450.51563 476.82422l-.53907 7.00781"/></g><path fill="none" stroke="#000" stroke-linecap="round" stroke-linejoin="round" stroke-miterlimit="10" stroke-width=".5" d="M450.4375 477.84375l1.125-.49219"/><g clip-path="url(#R)"><path fill="none" stroke="#000" stroke-linecap="round" stroke-linejoin="round" stroke-miterlimit="10" stroke-width=".5" d="M465.02344 477.13281l-2.92578 6.39063"/></g><path fill="none" stroke="#000" stroke-linecap="round" stroke-linejoin="round" stroke-miterlimit="10" stroke-width=".5" d="M464.59766 478.0625l1.22656-.07031"/><g clip-path="url(#S)"><path fill="none" stroke="#000" stroke-linecap="round" stroke-linejoin="round" stroke-miterlimit="10" stroke-width=".5" d="M147.33984 468.10156l-6.67968-2.17578"/></g><path fill="none" stroke="#000" stroke-linecap="round" stroke-linejoin="round" stroke-miterlimit="10" stroke-width=".5" d="M147.33984 468.10156l.42578 2.41797m12.97266-2.72265l-6.84766-1.56641m6.84766 1.5664l.64063 2.3672m-1.63672-2.59376l.32031 1.1836m14.07813-1.60157l-7.01954-.27734m7.01953.27734l1.06641 2.21094m-2.08594-2.25l.53125 1.10547m13.80078-1.39453l-7.01562.3789m7.01563-.3789l1.26953 2.09765m-2.28907-2.04296l.63282 1.05078m13.66406-.35547l-6.9375-1.1211m6.9375 1.1211l.79297 2.32031m-1.80469-2.48437l.39844 1.16015m13.97265-1.6289l-7.02734.14453m7.02734-.14453l1.19532 2.14062m-2.21875-2.1211l.59765 1.07423m13.6836-1.64844l-6.91407 1.2539m6.91407-1.2539l1.51953 1.92578m-2.52735-1.7461l.76172.96485m13.42188-1.67578l-6.63672 2.3164m6.63672-2.3164l1.80078 1.66406m-2.76563-1.32812l.89844.83203m13.30078-1.3789l-6.47265 2.73827m6.47265-2.73828l1.90235 1.54688m11.28515-1.8125l-6.21875 3.26953m6.21875-3.26953l2.02735 1.3789m10.95703-1.89062l-5.5586 4.29297m5.5586-4.29297l2.23828 1.00781m10.67578-1.44922l-4.7539 5.17578m4.0625-4.42187l1.1875.3086m12.80859-1.07032l-4.73438 5.1914m4.04688-4.4375l1.1875.3086m12.04687-1.59375l-3.19922 6.2539m2.73438-5.34375l1.22656-.02343m12.51953-.90625l-3.13281 6.29297m2.67969-5.375L332.75 464.75m12.28125-1l-2.60937 6.52734m2.23046-5.57812l1.21875-.13281m12.01954-.96094l-1.69922 6.8164m1.45312-5.82421l1.1914-.29688m14.02735.2539l-5.01562 4.91798m4.28515-4.20313l1.17188.3711m11.0664-2.07032l-1.39843 6.88672m1.1953-5.88281l1.17579-.35156m8.91797.57421l5.44922 4.4336m-4.65625-3.78906l.23828-1.20313m16.05469-.57812l-2.09375 6.70703m1.78906-5.73047l1.20703-.22656m12.66797-.66016l-2.60156 6.52734m2.22265-5.57812l1.21875-.13281m14.1211.53515l-5.89453 3.82422m5.03906-3.26562l1.07031.59375m12.21875-2.08204l-4.1289 5.6836M451.71093 465l1.21484.16797m13.19531-.5586L461 469.41797m4.3789-4.10938l1.16016.39453"/><g clip-path="url(#T)"><path fill="none" stroke="#000" stroke-linecap="round" stroke-linejoin="round" stroke-miterlimit="10" stroke-width=".5" d="M147.33984 454.79297l-6.67968-2.1875"/></g><path fill="none" stroke="#000" stroke-linecap="round" stroke-linejoin="round" stroke-miterlimit="10" stroke-width=".5" d="M147.33984 454.79297l.41797 2.41797m-1.39062-2.73828l.21094 1.21093m14.0703-.875l-6.66796-2.21875m6.66797 2.21875l.41015 2.41797m-1.3789-2.74219l.20312 1.21094m14.15625-1.14062l-6.8164-1.71094m6.8164 1.71094l.58985 2.3789m12.82812-3.10156l-7.02344-.26562m7.02344.26562l1.07031 2.20703m12.2461-2.30078l-7.02735-.07812m7.02735.07812l1.1289 2.17578m12.1875-2.19922l-7.02734-.03125m7.02734.03125l1.14063 2.17188m12.13672-2.6836l-6.95313.9922m6.95313-.9922l1.44922 1.98047m11.73047-2.5703l-6.6836 2.17187m6.6836-2.17188l1.76562 1.70313m-2.73828-1.38672l.88281.85156m13.14844-1.76172l-6.17188 3.35938m6.17188-3.35938l2.04687 1.35156m-2.9453-.86328l1.02343.67578m13.22266-1.10547l-6.23438 3.23829m6.23438-3.23828l2.01953 1.39453m11.35156-1.28516l-6.34375 3.02344m6.34375-3.02344l1.96875 1.46094m-2.89453-1.02344l.98828.73047m13-1.60938l-5.84375 3.90625m5.84375-3.90625l2.16016 1.16016m11.1328-1.1914l-5.80077 3.96874m5.80078-3.96875l2.17578 1.13672m11.17187-1.08594l-5.86328 3.8672m5.01172-3.3047l1.07813.58594m13.01953-1.2539l-5.72266 4.07812m5.72266-4.07812l2.19531 1.09765m10.70703-1.57812l-4.89844 5.03515m4.89844-5.03515l2.35547.6875m9.36328-1.57813l-1.70703 6.8164m1.70703-6.8164l2.38281-.58984m11.48438.77734l-2.8086 6.4414m2.39844-5.5039l1.22266-.09375m14.28516.90625l-6.37891 2.94531m5.45312-2.51953l.97657.7422m9.52734-3.16798l1.09766 6.9414m-.9375-5.92968l.98047-.73828m11.61718 6.53516l2.21094-6.67188m-1.89062 5.69922l-1.20704.20703m18.28125-.69531l-5.9453-3.75m5.07812 3.20312l-.08985 1.22266m14.16016-4.58984l-5.72266 4.07422m4.89063-3.48047l1.09765.54687m12.45313-1.78906l-4.53125 5.3711m4.53125-5.3711l2.39844.51953m11.30078-.14062l-5.29688 4.61718m4.52344-3.94531l1.14844.4375"/><g clip-path="url(#U)"><path fill="none" stroke="#000" stroke-linecap="round" stroke-linejoin="round" stroke-miterlimit="10" stroke-width=".5" d="M147.32422 441.51953l-6.64844-2.27344"/></g><path fill="none" stroke="#000" stroke-linecap="round" stroke-linejoin="round" stroke-miterlimit="10" stroke-width=".5" d="M147.32422 441.51953l.39062 2.42188m12.95703-2.51953l-6.71484-2.07813m6.71484 2.07813l.45704 2.41015m12.67578-1.9375l-6.34766-3.01953m6.34766 3.01953l.10937 2.44922m13.19922-2.44531l-6.33984-3.03125m6.33984 3.03125l.10547 2.45312m13.54297-3.66015l-7-.6172m7 .6172l.95703 2.2578m12.32422-3.12108l-6.9375 1.10937m6.9375-1.10938l1.48047 1.95704m11.53906-2.91407l-6.34375 3.02344m6.34375-3.02344l1.97266 1.46094m11.05468-1.95312l-5.76953 4.0078m5.76953-4.0078l2.1836 1.12109m9.60547-2.35547l-2.71485 6.48047m2.71485-6.48047l2.4414-.22656m10.91016.23828l-2.78906 6.45313m2.78906-6.45313l2.44531-.19531m11.08203.29687l-3.21484 6.25m3.21484-6.25l2.45313-.03125m-2.92188.9414l1.22656-.01562m12.14063-1.07422l-2.3789 6.61329m2.3789-6.61328l2.42578-.35157m11.54297.66797l-3.6875 5.98047m3.6875-5.98047l2.44922.15625m11.33203.1836l-4.6211 5.29687m4.6211-5.29688l2.38672.5547m11.30469-.16798l-5.375 4.52344m5.375-4.52344l2.27734.91407m-3.0586-.25782l1.13673.46094m12.4414-1.6211l-4.33594 5.53126m4.33594-5.53125l2.41406.42968m-3.04687.375l1.21094.21485m11.70703-1.57813l-2.27735 6.64844m2.27735-6.64844l2.42187-.38672m-2.7539 1.35547l1.21093-.1953m13.04688-.4961l-3.5 6.09375m3.5-6.09375l2.45312.08203m6.89844.23828l4.42969 5.45703m-3.78516-4.66406l.47656-1.1289m15.5586 6.3828l-2.30078-6.64062m1.96484 5.67578l-.83203.89844m10.08984-1.90234l6.48829-2.69922M408 441.33984l-.94531-.77734m19.84765-1.41797l-6.57421 2.48047m6.57421-2.48047l1.84375 1.61719m10.98829-2.4961L434.1289 442.5m5.60546-4.23438l2.22657 1.03516m9.90625-2.03515L448.625 443.5m3.24219-6.23438l2.45312-.01953m9.03906-.37109l.40235 7.01563m-.34375-5.9922l1.05078-.64062"/><g clip-path="url(#V)"><path fill="none" stroke="#000" stroke-linecap="round" stroke-linejoin="round" stroke-miterlimit="10" stroke-width=".5" d="M146.45313 429.58203l-4.90625-5.02734"/></g><path fill="none" stroke="#000" stroke-linecap="round" stroke-linejoin="round" stroke-miterlimit="10" stroke-width=".5" d="M145.73828 428.85156l-.3711 1.16797m13.25782.3086l-2.6211-6.51954m2.2422 5.57032l-.79298.9375m16.37891-1.8047l-6.40625-2.88671m5.47656 2.46484l.07813 1.22657m13.9414-.38282l-5.95312-3.73047m5.08594 3.1875l-.08594 1.22266m14.7539-1.94922l-6.92577-1.1914m5.91796 1.01953l.38282 1.16406m13.22656-3.77344l-5.5 4.3711m4.70312-3.73438l1.125.48828m12.73438-1.41406l-4.99219 4.94922m4.99219-4.94922l2.34375.73047m11.75.47266l-6.55078 2.54296m6.55078-2.54296l1.85937 1.60546m10.32813-3.11328l-4.29688 5.5586m4.29688-5.5586l2.41797.41407m10.39453-.73829l-3.28906 6.20704m3.28906-6.20704l2.45312-.0039m11.85547.78515l-5.27734 4.64454m5.27734-4.64454l2.29688.8672m10.21093-1.54298l-3.66406 5.9961m3.66406-5.9961l2.44922.14844m10.73828-.22266l-3.41015 6.14454m3.41015-6.14454l2.45313.04297m10.33594-.28125l-2.35547 6.6211m2.35547-6.6211l2.42968-.35937m11.95313.96875l-4.49219 5.40234m4.49219-5.40234l2.40234.4961m-3.05468.28905l1.19921.25m13.03516-.78906l-5.02734 4.91016m5.02734-4.91016l2.33984.7461m-3.0703-.03125l2.33984.74609m11.375-1.75781l-4.36329 5.5039m4.36329-5.5039l2.41406.4414m11.0664-.30469l-4.6953 5.23047m4.6953-5.23047l2.38282.58985m10.09375-1.14844l-3.01953 6.34766m3.01953-6.34766l2.45312-.10937m-2.89062 1.03515l2.44922-.10937m-2.89063 1.03125l1.22656-.05469m13.4922-1.48438l-4.06642 5.73047m4.06641-5.73047l2.4336.3125m-3.02735.51954l2.4336.3164m11.55859-1.08593l-4.23438 5.60546m4.23438-5.60546l2.42578.38671m-3.03906.4297l2.42187.38671m-3.03906.42969l1.21094.1914m12.90234-2.10546l-3.3711 6.16796m3.3711-6.16796l2.45313.03125m-2.94141.86718l2.45312.02735m-2.9453.87109l1.22655.01172m12.88282-1.90234l-2.9961 6.35546m2.9961-6.35546l2.44922-.1211m-2.88672 1.04688l1.22656-.0625m11.08984-1.19922l-.125 7.02734m.125-7.02734l2.1875-1.11328m-2.20703 2.13672l1.09375-.5586m12.8164-.40625l-1.27343 6.91016m1.27344-6.91016l2.33984-.74219m-2.52734 1.7461l1.17187-.36719"/><g clip-path="url(#W)"><path fill="none" stroke="#000" stroke-linecap="round" stroke-linejoin="round" stroke-miterlimit="10" stroke-width=".5" d="M146.32422 416.39063l-4.64844-5.27344"/></g><path fill="none" stroke="#000" stroke-linecap="round" stroke-linejoin="round" stroke-miterlimit="10" stroke-width=".5" d="M145.64844 415.6211l-.4336 1.14843m10.7422.22656l2.71483-6.48437m15.3086 2.1875l-6.70313 2.10937m20.09766-.29297l-6.85938-1.52734m5.85938 1.30469l.32813 1.1836m13.92578-2.72266l-6.73828 2m6.73828-2l1.72265 1.74609m11.625-1.6289l-6.80078 1.76562m6.80078-1.76563l1.66016 1.8047m11.76172-1.12892l-7.01563.41016m5.9961-.34765l.63672 1.04687m13.6914-1.1836l-7.0039.5625m7.0039-.5625l1.32422 2.06641m11.42578-3.71875l-5.8711 3.86328m5.8711-3.86328l2.15234 1.17578M267.1172 412.5l-6.5625 2.50781m5.60937-2.14453l.92188.8086m12.98047-1.875l-5.83203 3.91406m5.83203-3.91406l2.16406 1.15625m-3.01172-.58985l1.08203.57813m12.5039-1.8125l-4.67577 5.24609m4.67578-5.2461l2.38281.58204m11.33594-.15235l-5.48438 4.39063m5.48438-4.39063l2.2539.96875m10.35547-1.63671l-4.07422 5.72656m4.07422-5.72656l2.4336.3164m11.09765-.14844l-4.50781 5.39063m4.50781-5.39063l2.40235.50391m-3.0586.28125l1.19922.25m12.10938-1.47266l-3.1797 6.26563m3.1797-6.26563l2.45312-.05078m10.57813-.07812l-2.61328 6.52344m2.61328-6.52344l2.4414-.26172m11.58985.64844l-4.04297 5.75m4.04297-5.75l2.43359.30468m11.34766.08985l-4.98047 4.96094m4.98047-4.96094l2.34375.72265m-3.06641 0l2.34375.72266m11.36328-1.73828l-4.3164 5.54687m4.3164-5.54687l2.41797.42187m-3.04687.38672l2.41796.41797m11.35547-1.35156l-3.97656 5.79687m3.97656-5.79687l2.4375.27734m-3.01562.5664l1.21875.13673m11.80078-1.41406L422.5 417.08594m2.23047-6.66406l2.42187-.40625m-2.74609 1.375l1.21094-.20313m12.73437-.64844l-2.83984 6.42969m2.83984-6.42969l2.44532-.17968m-2.85938 1.11328l1.22266-.08594m11.70703-1.08984l-1.24219 6.91406m1.24219-6.91406l2.33594-.75m-2.51563 1.7539l1.16797-.375m12.7461-.52734l-2.08204 6.71094m2.08203-6.71094l2.41016-.46094m-2.71094 1.4375l1.20313-.23047"/><g clip-path="url(#X)"><path fill="none" stroke="#000" stroke-linecap="round" stroke-linejoin="round" stroke-miterlimit="10" stroke-width=".5" d="M145.32031 403.69531l-2.64062-6.51172"/></g><g clip-path="url(#Y)"><path fill="none" stroke="#000" stroke-linecap="round" stroke-linejoin="round" stroke-miterlimit="10" stroke-width=".5" d="M144.9375 402.7461l-.78906.9414"/></g><path fill="none" stroke="#000" stroke-linecap="round" stroke-linejoin="round" stroke-miterlimit="10" stroke-width=".5" d="M157.15625 403.94922l.32031-7.01953m-.27344 5.9961l-1.10937.52733m16.34375 0l-3.61328-6.02734m3.08594 5.14844l-.62891 1.05078m15.98438-2.03516l-6.64063-2.30078m6.64063 2.30078l.3789 2.42188m12.9414-4.70703l-6.65234 2.26562m6.65235-2.26562l1.78906 1.67969m10.58984 2.03125l-4.77734-5.15625m19.21484 2.53125l-7.02343.09765m7.02343-.09765l1.1836 2.14843m-2.20313-2.13672l.58985 1.07813m13.72656-.65625l-6.98438-.77344m6.98438.77344l.90625 2.28125m12.23828-3.8086l-6.64453 2.28516m6.64453-2.28515l1.79297 1.67187m11.35156-2.08203l-6.30469 3.10156m6.3047-3.10156l1.98827 1.4375m-2.90625-.98438l.9961.71875m13.07422-1.46875l-5.97657 3.69532m5.97656-3.69532l2.1172 1.23829m-2.98829-.69922l1.0586.61718m12.8828-1.5l-5.49218 4.38282m5.49219-4.38282l2.2539.97657m11.33985-.57032l-6.04688 3.57422m6.04688-3.57422l2.09375 1.27735m-2.97266-.75781l1.04688.64062m13.39843-.64844l-6.55078 2.54688m6.55078-2.54688l1.85938 1.60156m10.73047-2.74609l-5.09766 4.83594m5.09766-4.83594l2.32422.78125m-3.06641-.07812l1.16406.39062M346.25781 398l-5.0625 4.875m5.0625-4.875l2.33203.76172m-3.0703-.05078l1.16796.3789m13.08594-.85937l-5.46485 4.41797m4.66797-3.77735l1.1289.48047m12.19923-1.83594l-3.89844 5.84766m3.89844-5.84765l2.4414.24218m-3.0078.60938l1.21874.1211m12.55078-1.04688l-3.67187 5.99218m3.67187-5.99218l2.44922.14843m-2.98437.72266l2.44921.15234m11.5547-.92187l-3.98048 5.79297m3.98047-5.79297l2.4375.27734m-3.01953.5625l1.22266.14063m13.55078-.11719l-5.73047 4.0664m4.89453-3.47656l1.09766.55079m12.3789-1.85547l-4.3828 5.49218m4.3828-5.49218l2.41016.44921m-3.05078.35157l1.20703.22265m13.21875-.5703l-5.32422 4.58593m5.32422-4.58594l2.28516.89063m10.05468-1.6797l-3.37109 6.16407m3.3711-6.16406l2.45312.02734m-2.94531.8711l1.22656.01171m13.17187-.5l-4.55859 5.34766"/><g clip-path="url(#Z)"><path fill="none" stroke="#000" stroke-linecap="round" stroke-linejoin="round" stroke-miterlimit="10" stroke-width=".5" d="M465.83984 397.76563l2.39844.52734"/></g><path fill="none" stroke="#000" stroke-linecap="round" stroke-linejoin="round" stroke-miterlimit="10" stroke-width=".5" d="M465.17578 398.54297l1.19922.26562"/><g clip-path="url(#aa)"><path fill="none" stroke="#000" stroke-linecap="round" stroke-linejoin="round" stroke-miterlimit="10" stroke-width=".5" d="M141.67188 389.7539l4.65625-5.26171"/></g><path fill="none" stroke="#000" stroke-linecap="round" stroke-linejoin="round" stroke-miterlimit="10" stroke-width=".5" d="M156.69531 390.58203l1.23828-6.91797m-1.05859 5.91016l-1.16797.3789m16.6289.2422l-3.41405-6.14454m2.91796 5.25l-.66797 1.03125m16.2422-3.76172l-6.9375 1.10547m14.16405-2.89453l5.23829 4.6836m-4.47657-4l.29297-1.19141m18.1875 4.03906l-6.61328-2.3789m6.61328 2.3789l.34766 2.42969m-1.3125-2.77344l.17578 1.21484m14.26563-1.5039l-6.9375-1.11328m6.9375 1.11328L228.15233 390m12.3711-4.03906l-6.63281 2.32422m6.6328-2.32422l1.80079 1.66406m-2.76953-1.32422l.90234.83203m13.2539-1.48437l-6.3789 2.94922m6.3789-2.94922l1.95313 1.48437m-2.88281-1.05469l.97656.7422m13.1875-1.33594l-6.21875 3.27734m6.21875-3.27735l2.02735 1.38282m-2.9336-.90625l1.01563.6914m13.13672-1.29296l-6.08203 3.52734m6.08203-3.52735l2.08203 1.29688m-2.96875-.78125l1.04297.64844M293.5 385.35156l-6.0664 3.54688m6.0664-3.54688l2.08594 1.28516m-2.96875-.76953l2.08594 1.28906m12.0703-1.8711l-5.98827 3.67579m5.98828-3.67578l2.11719 1.24218m-2.98829-.70703l2.1172 1.24219m12.27733-1.38281l-6.40234 2.88672m6.40235-2.88672l1.9414 1.5m-2.8711-1.08203l1.94141 1.5039m12.26172-2.01172l-6.32031 3.06641m6.32031-3.0664l1.98438 1.4453m-2.90235-1l1.98047 1.44923m12.23047-1.94141l-6.27344 3.16015m6.27344-3.16015l2.0039 1.41797m-2.91796-.95703l1.0039.70703m13.19532-1.22266l-6.21485 3.26953m6.21485-3.26953l2.03125 1.3789m-2.9336-.90234l2.02735 1.37891m12.04297-2.11719l-5.91797 3.79297m5.91797-3.79297l2.13671 1.20313m-3-.64844l2.14063 1.19922m-3-.64844l1.07031.60156M386.5 385.03906l-5.66016 4.16797m5.66016-4.16797l2.21484 1.0625m-3.03906-.45312l2.21485 1.0625m11.84375-1.77735l-5.4961 4.37891m5.4961-4.3789l2.25.97265m-3.05079-.33594l2.25.97656m11.15625-2.28515l-4.07812 5.72265m4.07812-5.72265l2.4336.32031m-3.02735.51172l2.4336.32031m11.64453-1.02344l-4.41406 5.46485m4.41406-5.46485l2.41015.46485m11.0625-.33203l-4.73046 5.19922m4.73046-5.19922l2.375.60547m10.17579-1.13282l-3.20313 6.25391m3.20313-6.2539l2.45312-.03907m12.07422 1.0625l-5.625 4.20703"/><g clip-path="url(#ab)"><path fill="none" stroke="#000" stroke-linecap="round" stroke-linejoin="round" stroke-miterlimit="10" stroke-width=".5" d="M466.375 385.01953l2.21875 1.04297"/></g><g clip-path="url(#ac)"><path fill="none" stroke="#000" stroke-linecap="round" stroke-linejoin="round" stroke-miterlimit="10" stroke-width=".5" d="M141.72656 376.48828l4.54688-5.35937"/></g><path fill="none" stroke="#000" stroke-linecap="round" stroke-linejoin="round" stroke-miterlimit="10" stroke-width=".5" d="M157.35547 377.32031l-.07813-7.02344m.07813 7.02344l-2.15625 1.17578m17.54297-1.8789L168.51953 371m4.22266 5.61719l-1.04297 2.22265m14.98437-2.83203l-5.47656-4.39844m5.47656 4.39844l-.45703 2.41016m14.53516-4.89844l-7.0039.57813m7.0039-.57813l1.32812 2.0625m-2.34765-1.98047l.66406 1.03516m13.5625.07812l-6.78906-1.8125m6.78906 1.8125l.55469 2.39063m-1.54297-2.65235l.55469 2.39063m13.85547-3.35156l-7 .63281m7-.63281l1.33984 2.05469m-2.35938-1.96094l1.34375 2.05469m12.95313-2.42579l-6.92578 1.1875m6.92578-1.1875l1.5039 1.9375m-2.51171-1.76562l1.5039 1.9414m12.7539-2.41796l-6.79296 1.79687m6.79297-1.79687l1.66797 1.79687m-2.65625-1.53515l1.66797 1.79687m12.65625-1.97656l-6.83594 1.63281m6.83594-1.63281l1.62109 1.83984m-2.61719-1.60156l1.625 1.83594m12.5039-2.62891l-6.47265 2.74219m6.47266-2.74219l1.90625 1.54688m-2.84766-1.14844l1.90625 1.54687m12.40625-1.80469l-6.58203 2.46094m6.58203-2.46094l1.83594 1.625m-2.79297-1.26562l1.83594 1.625m12.3711-2.14844l-6.45313 2.78906m6.45312-2.78906l1.91406 1.53125m-2.85546-1.125l1.91796 1.53125m12.07813-2.42578l-5.9336 3.76172m5.9336-3.76172l2.13281 1.21485m-2.9961-.66797l2.13282 1.21484m11.89844-1.97656l-5.64063 4.1914m5.64063-4.1914l2.21875 1.05469m-3.03906-.44141l2.21875 1.05078m12.39062-.79688l-6.58594 2.45704m6.58594-2.45704l1.83594 1.62891m-2.79688-1.26953l1.83985 1.625m12.4336-1.98828l-6.58204 2.46875m6.58203-2.46875l1.83984 1.625m-2.79687-1.26563l1.83984 1.625m-2.79687-1.26562l.91797.8125m14.11328-1.96485l-6.1875 3.33594m6.1875-3.33594l2.04297 1.36329m-2.9414-.87891l2.03905 1.36328m12.10938-1.96484l-6.05469 3.57031m6.05469-3.57031l2.08984 1.28125m-2.97265-.76172l2.09375 1.28125m12.26953-1.48438l-6.38672 2.9375m6.38672-2.9375l1.94922 1.48438m-2.87891-1.0586l.97656.7422m13.13281-1.4297l-6.11718 3.46094m6.11718-3.46094l2.07032 1.31641m-2.96094-.8125l1.03516.65625m13.33984-.82031l-6.45313 2.78125m6.45313-2.78125l1.91406 1.53515m-2.85547-1.1289l.96094.76562m12.98438-1.74609l-5.83204 3.92578m5.83204-3.92578L442.01172 373m-3.01563-.58203l1.08594.57422m13.38672-.58203l-6.44531 2.79687m6.44531-2.79687l1.92187 1.52734m10.85547-2.39453l-5.37109 4.53125"/><g clip-path="url(#ad)"><path fill="none" stroke="#000" stroke-linecap="round" stroke-linejoin="round" stroke-miterlimit="10" stroke-width=".5" d="M466.2461 371.54297l2.27734.91015"/></g><g clip-path="url(#ae)"><path fill="none" stroke="#000" stroke-linecap="round" stroke-linejoin="round" stroke-miterlimit="10" stroke-width=".5" d="M141.3711 362.82422l5.2578-4.66016"/></g><path fill="none" stroke="#000" stroke-linecap="round" stroke-linejoin="round" stroke-miterlimit="10" stroke-width=".5" d="M156.6836 363.94922l1.26171-6.91406m-1.26172 6.91406l-2.33593.7461m2.51953-1.75l-1.16797.37109m17.34766-.27344l-4.83594-5.09766m4.83594 5.09766l-.77735 2.32422m13.55469-1.90235l-3.75781-5.9414m3.7578 5.9414l-1.21874 2.12891m.67187-2.9961l-.60937 1.06641m14.54687-.25l-3.90625-5.84375m3.90625 5.84375l-1.16406 2.16016m.59375-3.01172l-1.16016 2.16406m16.59766-4.00781l-7.01172-.45313m7.01172.45313l1.01172 2.23438m-2.03125-2.30079l.5039 1.1172m13.78516-1.88673l-6.92187 1.21875m6.92187-1.21875l1.50781 1.9336m-2.51562-1.75391l1.51172 1.9336m-2.51953-1.75782l.75781.96485m14.60938-1.03125l-6.9961.64453m6.9961-.64454l1.34765 2.05079m-2.36328-1.95704l1.34375 2.05079m-2.36328-1.95704l.67187 1.02344m14.625-1.58203l-6.89062 1.38281m6.89062-1.3828l1.5547 1.89843m-2.5547-1.69531l1.5547 1.89843m-2.5586-1.69921l.77734.94921m14.41406-1.8203l-6.6328 2.32421m6.6328-2.32422l1.80078 1.66406m-2.76562-1.32812l1.80078 1.66406m-2.76562-1.32422l.90234.83203m14.30469-1.60546l-6.5586 2.51953m6.5586-2.51954l1.85156 1.60938m-2.80469-1.24219l1.85156 1.60547m12.30079-2.2461l-6.32422 3.0625m6.32422-3.0625l1.98046 1.44923m-2.90234-1.00391l1.98047 1.44922m12.33594-1.71485l-6.48438 2.70704m6.48438-2.70704l1.89843 1.5547m-2.84375-1.16016l1.89844 1.55468m12.51953-1.47656l-6.80078 1.75781m6.80078-1.7578l1.66016 1.8125m-2.64844-1.5547l1.65625 1.8086m12.39453-2.75l-6.29297 3.1289m6.29297-3.1289l1.9961 1.42578m-2.91407-.97266l1.9961 1.42969m12.04297-2.21875l-5.91016 3.80078m5.91016-3.80078l2.14062 1.19922m-3-.64844l1.07031.60156m13.42579-.52343l-6.55079 2.53906m6.55079-2.53906l1.85937 1.60546m-2.8125-1.23437l1.85938 1.60547m12.46093-1.83203l-6.65625 2.2539m6.65625-2.2539l1.78516 1.6836m-2.7539-1.35548L374.5 361.375m12.10547-2.8164l-5.86719 3.87109m5.86719-3.8711l2.15234 1.17188m-3.00781-.60938l2.15625 1.17579m-3.00781-.61329l1.07422.58594m13.87109-1.82031l-5.71484 4.08984m5.71484-4.08984l2.19922 1.08984m-3.03125-.4961l2.19922 1.09376m-3.03125-.5l1.10156.54687m14.04687-1.47265l-6.05468 3.5664m6.05468-3.5664l2.09375 1.28125m-2.97265-.76172l2.08984 1.28125m12.21485-1.59766l-6.27735 3.16016m6.27735-3.16016l2.0039 1.41797m-2.91797-.95703l2.00391 1.41406m12.23437-1.86328l-6.29296 3.13281m6.29296-3.1328l1.9961 1.42968m-2.91406-.97266l1 .71485m13.39453-.78516l-6.61719 2.35938m6.61719-2.35938l1.8125 1.65625m-2.77344-1.3125l1.8125 1.65625m12.27734-2.4336l-6.24218 3.22657"/><g clip-path="url(#af)"><path fill="none" stroke="#000" stroke-linecap="round" stroke-linejoin="round" stroke-miterlimit="10" stroke-width=".5" d="M466.6836 358.8789l2.01562 1.39454"/></g><path fill="none" stroke="#000" stroke-linecap="round" stroke-linejoin="round" stroke-miterlimit="10" stroke-width=".5" d="M465.77344 359.34766l1.01172.69921"/><g clip-path="url(#ag)"><path fill="none" stroke="#000" stroke-linecap="round" stroke-linejoin="round" stroke-miterlimit="10" stroke-width=".5" d="M141.55078 349.69922l4.89844-5.04297"/></g><path fill="none" stroke="#000" stroke-linecap="round" stroke-linejoin="round" stroke-miterlimit="10" stroke-width=".5" d="M157.36328 350.6914l-.09766-7.02734m.09766 7.02735l-2.14844 1.18359m2.13672-2.20703l-2.15234 1.1836m17.28125-.6875l-3.69922-5.97266m3.69922 5.97265l-1.23438 2.1211m.69532-2.98829l-1.23438 2.1172m15.82422-1.85938l-5.17188-4.7539m5.17188 4.7539l-.61719 2.375m12.66016-1.49219l-2.6289-6.51563m2.6289 6.51563L197 352.3164m1.1914-2.82812l-1.57421 1.8789m1.1914-2.82812l-.78515.9414m12.6875 1.10157l1.72656-6.8086m-1.72656 6.8086l-2.38281.58594m2.63671-1.57422l-1.1953.29297m18.60937-2.27735l-6.97657-.86328m6.97657.86329l.875 2.29296m12.45703-2.98437l-7.00781.51953m7.0078-.51953l1.3086 2.07812m-2.32812-2L241 349.07031m13.02734-2.09375l-7.01562.40235m7.01562-.40235l1.27735 2.09375m-2.29688-2.03515l1.27344 2.09765m-2.29297-2.03906l.63672 1.04688m14.65234-1.67579l-6.8828 1.42579m6.8828-1.42579l1.56641 1.88672m-2.57031-1.67969l1.57031 1.89063m-2.57031-1.6836l.78515.94532m14.35157-1.95313l-6.51954 2.6172m6.51954-2.6172l1.8789 1.57813m-2.82812-1.19922l1.8789 1.58203m-2.82421-1.19922l.9375.78906m14.25-1.61328l-6.47266 2.73829m6.47266-2.73829l1.90234 1.54688m-2.84766-1.14844l1.90625 1.54688m12.20313-2.25782l-6.17188 3.36329m6.17188-3.36329l2.04687 1.35157m-2.94531-.86329l2.04688 1.35157m12.42187-1.2461l-6.6836 2.17579m6.6836-2.17579l1.76563 1.70313m-2.73829-1.38672l1.76563 1.70313m12.63281-1.57422l-6.90625 1.28515m6.90625-1.28515l1.53125 1.91796m-2.53515-1.73046l1.53125 1.91796m12.4414-3.10546l-6.21094 3.28906m6.21094-3.28906l2.03125 1.375m-2.9375-.89844l2.03516 1.375m11.97656-2.19922l-5.79297 3.98047m5.79297-3.98047l2.17578 1.13281m-3.01953-.55469l2.17578 1.13282m12.4336-.79297l-6.69141 2.14844m6.6914-2.14844l1.75782 1.71094m-2.73438-1.39844l1.76172 1.71094m12.48438-2.15625l-6.60157 2.41015m6.60157-2.41015l1.82422 1.64062m-2.78516-1.28906l1.82422 1.64062m12.07422-2.73437l-5.84766 3.89844m5.84766-3.89844l2.16015 1.16406m-3.01172-.59765l2.16016 1.16406m-3.01172-.59766l1.08203.58203m13.79688-1.91015l-5.5664 4.28515m5.5664-4.28515l2.23437 1.01171m-3.04687-.39062l2.23437 1.01563m-3.04297-.39063l1.1172.50781m13.8164-1.7539l-5.5664 4.28515m5.5664-4.28515l2.23828 1.01171m-3.04688-.38671l2.23438 1.01171m12.38281-.76171l-6.55469 2.53515m6.5547-2.53515l1.85546 1.60546m-2.8086-1.23437l1.85548 1.60547m12.5664-1.46485l-6.85937 1.51172m6.85937-1.51171l1.59375 1.86718m-2.58984-1.64844l1.58984 1.8672m12.51563-2.72657l-6.44922 2.79297"/><g clip-path="url(#ah)"><path fill="none" stroke="#000" stroke-linecap="round" stroke-linejoin="round" stroke-miterlimit="10" stroke-width=".5" d="M466.78516 345.78125l1.91796 1.53125"/></g><g clip-path="url(#ai)"><path fill="none" stroke="#000" stroke-linecap="round" stroke-linejoin="round" stroke-miterlimit="10" stroke-width=".5" d="M465.84766 346.1875l1.91796 1.53125"/></g><g clip-path="url(#aj)"><path fill="none" stroke="#000" stroke-linecap="round" stroke-linejoin="round" stroke-miterlimit="10" stroke-width=".5" d="M143.16406 337.27734l1.67188-6.82812"/></g><path fill="none" stroke="#000" stroke-linecap="round" stroke-linejoin="round" stroke-miterlimit="10" stroke-width=".5" d="M158.375 337.21094l-2.1211-6.69922m2.1211 6.69922l-1.71484 1.7539m1.40625-2.72656l-1.71485 1.7539m1.40625-2.73046l-.85937.8789m15.94531.44922l-4.42578-5.45703m4.42578 5.45703l-.95703 2.26172m.3125-3.05469l-.95703 2.26172m.3125-3.05468l-.95703 2.2578m14.96484-.27733l-3.23438-6.2422m3.23438 6.2422l-1.39453 2.01953m.92187-2.9297l-1.39453 2.01954m16.125-1.82422l-5.1211-4.8125m5.1211 4.8125l-.64453 2.36719m-.10156-3.0664l-.64453 2.36718m-.09766-3.0664l-.64844 2.36718m16.0625-1.85937l-6.33984-3.03125m6.33984 3.03125l.10547 2.45312m-1.02734-2.89453l.10156 2.45313m-1.02344-2.89454l.10157 2.45313m-1.02735-2.89453l.10547 2.45312m15.5-.38672l-5.38281-4.51562m5.38281 4.51562l-.50781 2.39844m-.27344-3.05469l-.51172 2.39844m-.27344-3.05469l-.5078 2.39844m16.125-2.5664l-6.85548-1.5547m6.85547 1.5547l.64453 2.36718m-1.64062-2.59375l.64062 2.36719m13.75-3.15234l-7.01172.46875m7.01172-.46875l1.29297 2.08593m-2.3125-2.01953l1.29297 2.08594m-2.3164-2.01563l.64843 1.04297m14.70703-1.1875l-7.0078.48438m7.0078-.48438l1.30078 2.07813m-2.3203-2.00781l1.30077 2.08203m-2.3203-2.01172l.64843 1.03906m14.66015-1.5625l-6.91406 1.25m6.91406-1.25l1.51954 1.92578m-2.52735-1.7461l1.51953 1.92579m-2.52343-1.74219l.7578.96094m14.47267-1.72266l-6.72266 2.04688m6.72266-2.04688l1.73046 1.73438m-2.71093-1.4375l1.73437 1.73828m12.32813-2.60938l-6.25782 3.19532m6.25782-3.19531l2.01172 1.40234M306 332.73047l2.01172 1.40625m12.33203-1.61719l-6.4961 2.6875m6.4961-2.6875l1.89063 1.5625m-2.83594-1.17187l1.89062 1.5625m12.41016-1.85157l-6.57422 2.48438m6.57422-2.48438l1.84375 1.6172m-2.80078-1.25782l.92187.8125m13.57422-.00781l-7.02344.15234m7.02344-.15234l1.19922 2.14062m12.04688-2.76172l-6.88672 1.39844m6.88672-1.39844l1.55859 1.89453m11.13281-3.29296l-5.63672 4.1953m5.63672-4.1953l2.21485 1.05078m-3.03516-.44141l1.10937.52734m13.29688-.71093l-6.17969 3.34375m6.17969-3.34375l2.04297 1.35546m-2.9414-.87109l1.01952.67969m13.61719.4414l-7.02734.13282m7.02734-.13281l1.1914 2.14453m12.06641-2.71094l-6.91406 1.26562m6.91406-1.26562l1.52344 1.92187m-2.53125-1.73828l1.52734 1.92188m12.28125-3.39453l-5.8828 3.84375m5.8828-3.84375l2.14844 1.18359m-3.0039-.625l2.14843 1.1836m12.35547-1.08985l-6.55078 2.53516m6.55078-2.53516l1.85547 1.60547m-2.8086-1.23438l1.85548 1.60547m-2.8086-1.23828l.92969.80469m14.48437-.83203l-6.9375 1.11328m6.9375-1.11328l1.48047 1.95703m-2.48828-1.79297l1.48047 1.95703m-2.49219-1.79687l.74219.98046m14.42578-1.9453l-6.60547 2.39843"/><g clip-path="url(#ak)"><path fill="none" stroke="#000" stroke-linecap="round" stroke-linejoin="round" stroke-miterlimit="10" stroke-width=".5" d="M466.86328 332.66406l1.82422 1.64453"/></g><path fill="none" stroke="#000" stroke-linecap="round" stroke-linejoin="round" stroke-miterlimit="10" stroke-width=".5" d="M465.90234 333.01563l1.82422 1.64062m-2.78515-1.29297l.91015.82031"/><g clip-path="url(#al)"><path fill="none" stroke="#000" stroke-linecap="round" stroke-linejoin="round" stroke-miterlimit="10" stroke-width=".5" d="M145.04688 323.90234l-2.09375-6.70703"/></g><g clip-path="url(#am)"><path fill="none" stroke="#000" stroke-linecap="round" stroke-linejoin="round" stroke-miterlimit="10" stroke-width=".5" d="M145.04688 323.90234l-1.72266 1.7461"/></g><g clip-path="url(#an)"><path fill="none" stroke="#000" stroke-linecap="round" stroke-linejoin="round" stroke-miterlimit="10" stroke-width=".5" d="M144.74219 322.92578l-.86328.8711"/></g><path fill="none" stroke="#000" stroke-linecap="round" stroke-linejoin="round" stroke-miterlimit="10" stroke-width=".5" d="M159.05078 323.60156l-3.47266-6.10937m3.47266 6.10937l-1.3125 2.07422m.8086-2.96094l-1.31641 2.07032m.8086-2.96094l-.65626 1.03515M173.14453 323l-5.02734-4.90625M173.14453 323l-.6875 2.35547m-.04297-3.0664l-.6914 2.35546m-.04297-3.07031l-.6875 2.35547m15.51562-.98047l-5.1289-4.80469m5.1289 4.80469l-.63672 2.3711m-.10937-3.07032l-.63672 2.3711m-.10938-3.07032l-.63671 2.3711m15.52734-1.0625l-5.29297-4.625m5.29297 4.625l-.5586 2.39062m-.21093-3.0625l-.5586 2.39063m-.21093-3.0625l-.28125 1.1953m15.78515-.9414l-6.58984-2.4414m6.58984 2.4414l.32813 2.42969m-1.28906-2.78516l.32812 2.42969m-1.28516-2.78516l.32813 2.4297m-1.28906-2.78517l.16406 1.21485m16.13672-.48828l-6.80469-1.76172m6.80469 1.76172l.57031 2.38672m-1.5625-2.64454l.57422 2.38672m-1.5625-2.64062l.57031 2.38672m14.8164-2.38672l-6.98827-.74219m6.98828.74219l.91797 2.27734m-1.9336-2.38281l.91407 2.27344m-1.9336-2.38281l.91797 2.27734m14.44922-2.51563l-7.02344.16407m7.02344-.16407l1.20313 2.14063m-2.22266-2.11719l1.20312 2.14063m-2.22656-2.11329l1.20313 2.13672m14.0625-2.91406l-6.83594 1.6211m6.83594-1.6211l1.62109 1.83985m-2.61719-1.60547l1.6211 1.84375m-2.61328-1.60938l.80859.92188m14.40234-1.71094l-6.65234 2.26172m6.65234-2.26172l1.78906 1.67969m-2.7578-1.35157l1.78905 1.6797m-2.7539-1.35157l.89062.83984m14.22657-1.82812l-6.39063 2.92187m6.39063-2.92187l1.94921 1.49219m-2.8789-1.06641l1.94922 1.49219m-2.8789-1.06641l.97655.7461m14.13672-1.72266l-6.26562 3.17578m6.26562-3.17578l2.00781 1.41015m-2.91796-.94921l2.0078 1.41015m12.13282-2.03125l-6.09766 3.49219m6.09766-3.49219l2.07813 1.3086m-2.96485-.80079l2.07422 1.3086m12.10547-1.85547l-6.05469 3.57031m6.05469-3.57031l2.09375 1.28125m-2.97266-.76172l2.08985 1.28125m12.00781-1.95703l-5.85938 3.88281m5.85938-3.88281l2.15625 1.17187m-3.01172-.60546l2.16016 1.16796m12.07031-1.63671l-5.98047 3.6914m5.98047-3.6914l2.11719 1.23828m-2.98828-.70313l1.05859.6211m12.96094-1.40235l-5.64844 4.17969m5.64844-4.17969l2.21484 1.0586M386.08984 318l-4.83984 5.09375M386.08984 318l2.3672.65625m-3.07032.08594l1.1836.32812m12.98046-.92187l-5.1289 4.80078m5.1289-4.80078l2.32422.79297m11.8125 2.54296l-6.77344-1.87109m5.78906 1.59766l.26563 1.19922m14.03906-.9375l-6.78125-1.84766m5.79297 1.57813l.26953 1.1953m12.07422-5.05859L435.5 323.75781m2.44922-5.48437l1.22265-.08594m13.60547-.07813l-5.0625 4.875m5.0625-4.875l2.33203.76172m-3.0703-.05078l1.16796.3789m13.35156-.48437l-5.99609 3.66407"/><g clip-path="url(#ao)"><path fill="none" stroke="#000" stroke-linecap="round" stroke-linejoin="round" stroke-miterlimit="10" stroke-width=".5" d="M466.5586 318.71484l2.11327 1.2461"/></g><g clip-path="url(#ap)"><path fill="none" stroke="#000" stroke-linecap="round" stroke-linejoin="round" stroke-miterlimit="10" stroke-width=".5" d="M465.6875 319.25l2.11328 1.2461"/></g><path fill="none" stroke="#000" stroke-linecap="round" stroke-linejoin="round" stroke-miterlimit="10" stroke-width=".5" d="M464.8164 319.78125l1.0547.625"/><path fill="#00f" fill-rule="evenodd" d="M388.23828 467.64844h8.61719V457.5039h-8.61719v10.14453"/><path fill="azure" fill-rule="evenodd" d="M390.07031 459.33594h.83594v2.82422h3.28516v-2.82422h.83203v6.48047h-.83203v-2.91797h-3.28516v2.91797h-.83594v-6.48047"/><path fill="#ff3030" fill-rule="evenodd" d="M455.50781 454.33203h7.6914V444.1875h-7.6914v10.14453"/><path fill="azure" fill-rule="evenodd" d="M457.33984 446.01953h.83594v5.73828h3.1914V452.5h-4.02734v-6.48047"/><path fill="#ff3030" fill-rule="evenodd" d="M344.55078 436.57813h7.6914v-10.14454h-7.6914v10.14454"/><path fill="azure" fill-rule="evenodd" d="M346.38281 428.26563h.83203v5.74218h3.19532v.73828h-4.02735v-6.48046"/><path fill="#00f" fill-rule="evenodd" d="M383.80078 432.14063h8.61719v-10.14454h-8.61719v10.14454"/><path fill="azure" fill-rule="evenodd" d="M385.63281 423.82813h.83203v2.82421h3.28907v-2.82421h.83203v6.48046h-.83203v-2.91796h-3.28907v2.91796h-.83203v-6.48046"/><path fill="#00f" fill-rule="evenodd" d="M228.45703 414.38672h8.6211v-10.14453h-8.6211v10.14453"/><path fill="azure" fill-rule="evenodd" d="M230.28906 406.07422h.83594v2.82422h3.28516v-2.82422h.83203v6.48047h-.83203v-2.91406H231.125v2.91406h-.83594v-6.48047"/><path fill="#ff3030" fill-rule="evenodd" d="M295.72656 414.38672h7.69531v-10.14453h-7.6953v10.14453"/><path fill="azure" fill-rule="evenodd" d="M297.5586 406.07422h.83593v5.74219h3.1914v.73828h-4.02734v-6.48047"/><path fill="#ff3030" fill-rule="evenodd" d="M198.08203 409.94922h7.69531v-10.14453h-7.6953v10.14453"/><path fill="azure" fill-rule="evenodd" d="M199.91797 401.63672h.83203v5.73828h3.19531v.74219h-4.02734v-6.48047"/><path fill="#ff3030" fill-rule="evenodd" d="M184.76953 383.32031h7.6914v-10.14844h-7.6914v10.14844"/><path fill="azure" fill-rule="evenodd" d="M186.60156 375.00781h.83203v5.73828h3.19532v.7422h-4.02735v-6.48048"/><path fill="#ffffe0" fill-rule="evenodd" d="M379.82422 414.6211h22.17969v-10.19532h-22.1797v10.19531"/><path fill-rule="evenodd" d="M383.32422 406.26172h.50781v6.29297h-.78515v-4.48828h-1.39063v-.5547l.5586-.0664.2539-.05469.23047-.08984.20312-.14062.17188-.21094.14453-.29297.10547-.39453m4.8125 0l.23047.01953.21875.05469.20703.08984.19531.1211.1836.14843.17187.17578.30469.41797.24219.4961.17968.54296.10938.58204.03906.58984-.03906.59375-.10938.58203-.17969.55469-.24218.5039-.30469.42579-.17188.17968-.18359.15625-.19531.1211-.20703.09375-.21875.05469-.23047.01953-.23047-.01954-.21875-.05468-.20703-.09375-.19531-.1211-.1836-.15625-.17187-.17968-.30469-.42579-.24219-.5039-.17969-.55469-.10937-.58203-.03906-.59375h.83203l.03125.5625.07812.50781.12891.4414.16016.375.1914.30079.21094.22266.22266.13671.22656.04688.22656-.04688.22266-.13671.21094-.22266.1914-.30078.16016-.375.1289-.4414.08204-.50782.02734-.5625-.02735-.5625-.08203-.5-.1289-.4336-.16016-.36718-.1914-.29297-.21094-.21094-.22266-.13281-.22656-.04688-.22656.04688-.22266.13281-.21094.21094-.1914.29297-.16016.36719-.1289.43359-.07813.5-.03125.5625h-.83203l.03906-.58984.10938-.58204.17968-.54296.24219-.4961.30469-.41797.17187-.17578.1836-.14844.1953-.12109.20704-.08984.21875-.05469.23047-.01953m5.08984 0h.51172v6.29297h-.78906v-4.48828h-1.38672v-.5547l.5586-.0664.2539-.05469.22656-.08984.20703-.14062.17188-.21094.14062-.29297.10547-.39453m2.82422 2.17578h.78906l.01954-.3164.05859-.28907.09765-.25.14063-.21484.1836-.17578.22265-.12891.26563-.08203.30468-.02735.23828.02344.22657.0625.20312.10156.17969.13672.14844.17579.11328.20312.07031.23828.02734.26172-.02343.26953-.06641.22656-.10938.19141-.15625.17188-.19921.16015-.2461.16797-.63672.38672-.53515.3125-.4375.32031-.34766.32422-.26562.33594-.1875.34765-.125.3711-.07032.39453-.01953.41797h4.21094v-.73828h-3.33203l.08203-.28516.11328-.23828.14844-.19922.1875-.1836.23047-.16796.27734-.17578.71875-.41797.41406-.20703.34766-.23047.28125-.25.21875-.26563.16406-.28125.10938-.28125.0664-.28515.01954-.28125-.04297-.38282-.1211-.34765-.1875-.3086-.25-.26562-.30469-.21094-.34375-.16015-.3828-.09766-.40626-.03125-.4336.03125-.39843.09765-.35547.16797-.30469.23438-.24609.30469-.1875.375-.11328.4453-.04297.51954"/><path fill="#ffffe0" fill-rule="evenodd" d="M257.41406 401.8125h22.17969v-10.1914h-22.17969v10.1914"/><path fill-rule="evenodd" d="M260.91406 393.45313h.50781v6.29296h-.78515v-4.48828H259.25v-.55469l.5586-.0664.25-.05469.23046-.08984.20313-.14063.17578-.21094.14062-.29296.10547-.39454m4.8125 0l.23047.01954.21875.05468.20703.08985.19922.1211.1836.14843.17187.17578.30078.41797.24219.4961.17969.54687.11328.57812.03906.58985-.03906.59375-.11328.58593-.1797.55079-.24218.5039-.30078.42969-.17188.17969-.18359.15234-.19922.1211-.20703.09374-.21875.0586-.23047.01953-.22656-.01953-.21875-.0586-.21094-.09375-.19531-.12109-.1836-.15234-.17187-.1797-.30078-.42968-.24219-.5039-.17969-.55079-.11328-.58593-.03906-.59375h.83594l.02734.5625.08203.5078.125.44142.16407.375.1914.30078.20703.22265.22266.13672.22656.04688.22656-.04688.22266-.13672.21094-.22265.1914-.30079.16407-.375.125-.4414.08203-.50781.02734-.5625-.02734-.5586-.08203-.5039-.125-.4336-.16406-.36719-.19141-.28906-.21094-.21484-.22265-.13281-.22657-.04297-.22656.04297-.22266.1328-.20703.21485-.1914.28906-.16407.3672-.125.43359-.08203.5039-.02734.5586h-.83594l.03906-.58985.11329-.57812.17968-.54688.24219-.4961.30078-.41796.17188-.17578.18359-.14844.19531-.1211.21094-.08984.21875-.05468.22656-.01954m5.09375 0h.50781v6.29297h-.78515v-4.48828h-1.39063v-.55469l.5625-.0664.25-.05469.23047-.08984.20313-.14063.17578-.21094.14062-.29296.10547-.39454m2.82422 2.17579h.78516l.01953-.31641.0586-.28516.10156-.2539.14062-.21485.17969-.17578.22265-.1289.26563-.07813.3086-.02734.23827.01953.22266.0625.20313.10156.17968.14063.14844.17187.11328.20703.07031.23438.02735.26562-.02344.26563-.0625.22656-.11328.1914-.15235.17188-.20312.16016-.2461.16797-.6328.39062-.53907.3125-.4375.3164-.34765.32423-.26172.33593-.19141.35157-.125.36718-.07031.39454-.01953.41796h4.21093v-.73828h-3.33203l.08594-.28515.11328-.23829.14844-.19921.1836-.1797.23437-.17187.27734-.17578.71485-.41797.41796-.20312.34375-.23047.28125-.2539.21875-.26563.16407-.27735.11328-.28515.0625-.28516.01953-.28125-.04297-.38281-.11719-.34766-.1914-.30859-.25-.26172-.30079-.21484-.34765-.15625-.3789-.09766-.40626-.03515-.4375.03125-.39453.10156-.35547.16406-.30469.23438-.25.30468-.18359.375-.11719.44531-.03906.51954"/><path fill="#ffffe0" fill-rule="evenodd" d="M199.71484 476.73828h22.1836v-10.1914h-22.1836v10.1914"/><path fill-rule="evenodd" d="M203.21484 468.3789h.51172v6.29688h-.78906v-4.49219h-1.38672v-.55468l.5586-.06641.2539-.05078.22656-.08985.20313-.14062.17578-.21094.14063-.29687.10546-.39453m4.81641 0l.22656.01953.21875.05469.21094.08984.19531.1211.1836.14843.17187.17578.30078.42188.24219.49218.17969.54688.11328.57812.03906.59375-.03906.58985-.11328.58594-.17969.55468-.24219.5-.30078.42969-.17187.17969-.1836.15234-.19531.125-.21094.08985-.21875.05859-.22656.01953-.23047-.01953-.21875-.0586-.20703-.08984-.19922-.125-.1836-.15234-.17187-.17969-.30078-.42969-.24219-.5-.17968-.55469-.11328-.58593-.03907-.58985h.83594l.02734.5625.08203.50391.125.44531.16407.375.1914.29688.21094.22265.22266.13672.22656.04688.22656-.04688.22266-.13672.21094-.22265.1875-.29688.16406-.375.125-.44531.08203-.5039.03125-.5625-.03125-.5625-.08203-.5-.125-.4375-.16406-.36329-.1875-.29297-.21094-.21484-.22266-.13281-.22656-.04297-.22656.04297-.22266.13281-.21094.21484-.1914.29297-.16406.36328-.125.4375-.08204.5-.02734.5625h-.83594l.03906-.59375.11329-.57812.17968-.54688.2422-.49218.30077-.42188.17188-.17578.1836-.14844.19921-.1211.20703-.08983.21875-.0547.23047-.01952m5.08984 0h.50782v6.29687h-.78516v-4.49219h-1.39063v-.55468l.5625-.06641.25-.05078.23047-.08985.20313-.14062.17578-.21094.14063-.29687.10546-.39453m2.82422 2.17578h.78516l.01953-.3164.0586-.28517.10156-.2539.14062-.21485.17969-.17187.22266-.1289.26562-.08204.3086-.02734.23827.01953.22266.0625.20313.10156.17968.14063.14844.17187.11328.20703.07422.23438.02344.26562-.02344.26954-.0625.22265-.11328.1914-.15234.17188-.20313.16406-.2461.16407-.6328.39062-.53907.3125-.4375.3164-.34765.32423-.26172.33594-.1914.35156-.125.3711-.06642.39062-.02343.42187h4.21484v-.74219h-3.33594l.08594-.28515.11328-.23438.14844-.20312.1875-.17969.23047-.17188.27734-.17578.71875-.41406.41406-.20703.34375-.23047.28125-.25.22266-.26953.16016-.27734.11328-.28516.0625-.28516.01953-.28125-.03906-.3828-.1211-.34767-.1914-.30859-.25-.26172-.30078-.21094-.34766-.16015-.3789-.09766-.40626-.03515-.43359.03515-.39844.09766-.35547.16406-.30468.23438-.25.30468-.1836.375-.11719.44532-.03906.51953"/><path fill="#ffffe0" fill-rule="evenodd" d="M190.83984 427.8086h22.1797v-10.19141h-22.1797v10.1914"/><path fill-rule="evenodd" d="M194.33984 419.44922h.50782v6.29297h-.78516v-4.48828h-1.39063v-.5547l.5625-.0664.25-.05469.23047-.08984.20313-.14062.17578-.21094.14063-.29297.10546-.39453m4.8125 0l.23047.01953.21875.05469.20703.08984.19532.1211.1875.14843.16797.17578.30468.42188.24219.49219.17969.54687.11328.57813.03516.58984-.03516.59375-.11328.58594-.17969.55469-.24219.5-.30469.42968-.16796.17969-.1875.15234-.19532.1211-.20703.09375-.21875.0586-.23047.01952-.23047-.01953-.21875-.0586-.20703-.09374-.1953-.1211-.1836-.15234-.17188-.17969-.30078-.42969-.2461-.5-.17968-.55468-.10938-.58594-.03906-.59375h.83203l.03125.5625.08203.50781.125.4414.16016.375.1914.30079.21095.22266.22265.13671.22656.04688.22657-.04688.22265-.13671.21094-.22266.1914-.30078.16016-.375.1289-.4414.08204-.50782.02734-.5625-.02734-.5586-.08203-.5-.1289-.4375-.16016-.36718-.19141-.28906-.21094-.21485-.22265-.13281-.22657-.04297-.22656.04297-.22266.13281-.21093.21485-.1914.28906-.16017.36719-.125.4375-.08203.5-.03125.55859h-.83203l.03906-.58984.10938-.57813.17969-.54687.2461-.4922.30077-.42187.17188-.17578.1836-.14844.1953-.12109.20703-.08984.21875-.05469.23047-.01953m5.09375 0h.50782v6.29297h-.78907v-4.48828h-1.38672v-.5547l.5586-.0664.2539-.05469.23047-.08984.20313-.14062.17187-.21094.14063-.29297.10937-.39453m2.82032 2.17578h.78906l.01953-.3164.0586-.28516.09765-.2539.14063-.21485.18359-.17578.22266-.12891.26562-.07813.3086-.02734.23437.01953.22656.0625.20313.10156.17968.14063.14844.17188.11328.20703.07031.23437.02735.26563-.02344.26953-.0664.22265-.10938.19141-.15625.17188-.19922.16015-.2461.16797-.63671.39063-.53516.3125-.4375.3164-.34765.32422-.26563.33594-.1875.35156-.125.36719-.07031.39453-.01953.41797h4.21094v-.73828h-3.33204l.08203-.28516.11329-.23828.14843-.19922.1875-.17969.23047-.17187.28125-.17578.71485-.41797.41406-.20313.34766-.23047.28125-.2539.21875-.26563.16406-.27734.10937-.28516.0664-.28515.01954-.28125-.04297-.38282-.1211-.34765-.1875-.3086-.25-.26171-.30468-.21485-.34375-.15625-.3789-.09765-.40626-.03516-.4375.03125-.39843.10156-.35547.16406-.30469.23438-.2461.30469-.1875.375-.11327.4453-.04297.51954"/><path fill="#ffffe0" fill-rule="evenodd" d="M315.11328 360.9375h22.17969v-10.1914h-22.17969v10.1914"/><path fill-rule="evenodd" d="M318.61328 352.57813h.50781v6.29687h-.78515v-4.49219h-1.39063v-.55469l.5625-.0664.25-.05078.23047-.08985.20313-.14453.17578-.20703.14062-.29687.10547-.39454m4.8125 0l.23047.01954.21875.05468.20703.08985.19922.1211.1836.14843.17187.17578.30078.42188.24219.49218.17969.54688.11328.57812.03515.59375-.03515.58985-.11329.58593-.17968.5547-.24219.5-.30078.42968-.17188.17969-.18359.15234-.19922.125-.20703.08984-.21875.0586-.23047.01953-.22656-.01953-.21875-.0586-.21094-.08984-.19531-.125-.1836-.15234-.17187-.1797-.30078-.42968-.2461-.5-.17968-.55469-.10938-.58593-.03906-.58985h.83203l.03125.5625.08203.5039.125.44532.16406.3711.1875.30078.21094.22265.22266.13672.22656.04688.22656-.04688.22266-.13672.21094-.22265.1914-.30079.16407-.37109.125-.44531.08203-.5039.02734-.5625-.02734-.5625-.08203-.5-.125-.4375-.16407-.36329-.1914-.29297-.21094-.21484-.22266-.13281-.22656-.04297-.22656.04297-.22266.1328-.21094.21485-.1875.29297-.16406.36328-.125.4375-.08203.5-.03125.5625h-.83203l.03906-.59375.10938-.57812.17969-.54688.24609-.49219.30078-.42187.17188-.17578.18359-.14844.19531-.1211.21094-.08984.21875-.05468.22656-.01954m5.09375 0h.50781v6.29688h-.78515v-4.49219h-1.39063v-.55469l.5586-.0664.2539-.05078.23047-.08985.20313-.14453.17187-.20703.14453-.29687.10547-.39454m6.80469 1.6211h-.78906l-.05079-.21485-.08203-.18359-.10937-.16015-.1289-.12891-.14454-.10547-.16015-.07422-.16797-.04297-.17579-.01562-.32421.03906-.28907.1211-.24609.1953-.20313.26954-.16015.33594-.11719.40625-.07031.46484-.02344.52734.1875-.20312.1875-.16016.1875-.1211.1836-.08593.1875-.0625.1914-.03516.40235-.02734.30859.03125.32031.09375.3164.15625.29298.21875.2539.28516.19922.34765.07422.20313.05078.21484.03125.23438.0039.2539-.78515.04688-.02734-.26172-.07813-.25-.1211-.23438-.16405-.21093-.19141-.17579-.21875-.13671-.24219-.08985-.2539-.03125-.25391.03125-.24219.08985-.21875.13671-.19531.17579-.16016.21093-.12109.23438-.07813.25-.02734.26172.02735.25781.07812.25.1211.23438.16015.21093.19531.17578.21875.14063.24219.08594.2539.03125.25391-.03125.24219-.08594.21875-.14063.1914-.17578.16407-.21094.1211-.23437.07812-.25.02734-.25781.78516-.04688-.03125.3711-.09375.37109-.15625.35938-.22266.32812-.28906.28125-.17188.1211-.1875.10156-.20703.08203-.22265.0625-.2422.03515-.2578.01563-.28516-.01563-.25781-.04687-.23828-.07813-.21485-.10546-.19531-.12891-.17578-.15625-.15235-.17969-.13671-.20312-.1172-.22266-.09765-.24219-.14844-.53515-.08203-.59375-.02734-.64063.03906-.74219.11328-.66406.1875-.57812.1172-.25391.13671-.23047.15625-.20703.16797-.1836.1875-.15624.20312-.12891.21485-.10156.23437-.07422.2461-.04297.26171-.01563.3672.03516.33202.09375.29688.15235.2539.19921.21485.2422.16406.27343.11719.30078.0625.32422"/><path fill="#ffffe0" fill-rule="evenodd" d="M200.92578 343.60547h22.17969v-10.1914h-22.17969v10.1914"/><path fill-rule="evenodd" d="M204.42578 335.2461h.50781v6.29687h-.78515v-4.49219h-1.39063v-.55469l.5625-.0664.25-.05078.23047-.08985.20313-.14453.17187-.20703.14453-.29688.10547-.39453m4.8125 0l.23047.01954.21875.05468.20703.08985.19531.12109.1875.14844.16797.17578.30469.42187.24219.4922.17969.54687.11328.57812.03515.59375-.03515.58985-.11328.58593-.1797.55469-.24218.5-.30469.42969-.16797.17969-.1875.15234-.1953.125-.20704.08984-.21875.0586-.23047.01953-.23047-.01953-.21875-.0586-.20703-.08984-.19531-.125-.1836-.15235-.17187-.17968-.30078-.42969-.2461-.5-.17968-.55469-.10938-.58594-.03906-.58984h.83203l.03125.5625.08203.5039.125.44532.16016.3711.1914.30077.21094.22266.22266.13672.22656.04688.22656-.04688.22266-.13672.21094-.22265.1914-.30079L210.25 340l.1289-.44531.08204-.5039.02734-.5625-.02734-.5625-.08203-.5-.12891-.4375-.16016-.36329-.1914-.29297-.21094-.21484-.22266-.13281-.22656-.04297-.22656.04296-.22266.13282-.21094.21484-.1914.29297-.16016.36328-.125.4375-.08203.5-.03125.5625h-.83203l.03906-.59375.10938-.57812.17969-.54688.24609-.49219.30078-.42187.17188-.17578.18359-.14844.19531-.1211.20703-.08984.21875-.05469.23047-.01953m5.09375 0h.50781v6.29688h-.78906v-4.49219h-1.38672v-.55469l.5586-.0664.2539-.05078.23047-.08985.20313-.14453.17187-.20703.14063-.29688.10937-.39453m6.80078 1.6211h-.78515l-.05078-.21485-.08204-.18359-.10937-.16016-.1289-.1289-.14454-.10547-.16016-.07422-.17187-.04297-.17188-.01562-.32812.03906-.28516.1211-.24609.1953-.20313.26954-.16015.33593-.11719.40625-.07031.46485-.02344.52734.1875-.20312.1875-.16016.1836-.1211.1875-.08593.1875-.0625.1914-.03516.40234-.02734.3086.03125.32031.09375.3164.15625.29298.21875.2539.28515.19922.34766.07422.20313.05078.21484.03125.23438.0039.2539-.78905.04688-.02735-.26172-.07422-.25-.125-.23438-.16015-.21094-.19141-.17578-.21875-.13671-.24219-.08985-.2539-.03125-.25782.03125-.23828.08985-.21875.13671-.19531.17579-.16016.21093-.12109.23438-.07813.25-.02734.26172.02734.2578.07813.25.1211.23438.16015.21094.19531.17578.21875.14063.23828.08594.25782.03125.2539-.03125.24219-.08594.21875-.14063.1914-.17578.16016-.21094.125-.23437.07422-.25.02734-.25781.78907-.04688-.03125.3711-.09375.37109-.15625.35937-.22266.32813-.28906.28125-.17188.1211-.1875.10156-.20703.08203-.22265.0625-.2422.03515-.2578.01563-.28516-.01563-.25781-.04687-.23828-.07813-.21485-.10547-.19531-.1289-.17578-.15625-.15234-.17969-.13672-.20313-.1172-.22265-.09765-.24219-.14844-.53515-.08203-.59375-.02734-.64063.03906-.74219.11328-.66406.1836-.57813.1211-.2539.13671-.23047.15625-.20703.16797-.1836.1875-.15625.20312-.1289.21485-.10156.23437-.07422.2461-.04297.26172-.01563.36718.03516.33203.09375.29688.15234.2539.19922.21094.24219.16797.27344.11328.30078.0625.32422"/><path fill="#ffffe0" fill-rule="evenodd" d="M328.42969 325.08984h22.13281v-10.1914h-22.13281v10.1914"/><path fill-rule="evenodd" d="M331.92969 316.73047h.50781v6.29687h-.78516v-4.49218h-1.39062v-.5547l.5586-.0664.2539-.05078.23047-.08984.20312-.14063.17188-.21094.14453-.29687.10547-.39453m4.8125 0l.23047.01953.21875.05469.20703.08984.19531.1211.1836.14843.17187.17578.30469.42188.24218.49219.1797.54687.10937.57813.03906.59375-.03906.58984-.10938.58594-.17969.55469-.24218.5-.3047.42968-.17187.17969-.18359.15234-.19531.125-.20703.08985-.21875.0586-.23047.01952-.23047-.01953-.21875-.0586-.20703-.08984-.19531-.125-.1836-.15234-.17187-.17969-.3047-.42969-.24218-.5-.17969-.55468-.10937-.58594-.03906-.58984h.83203l.02734.5625.08203.5039.1289.44531.16017.375.1914.29688.21094.22266.22265.13671.22657.04688.22656-.04688.22266-.13671.21093-.22266.19141-.29688.16016-.375.1289-.4453.07813-.50391.03125-.5625-.03125-.5625-.07813-.5-.1289-.4375-.16016-.36329-.1914-.29296-.21094-.21485-.22266-.13281-.22656-.04297-.22656.04297-.22266.13281-.21094.21485-.1914.29296-.16016.36329-.1289.4375-.08204.5-.02734.5625h-.83203l.03906-.59375.10937-.57813.1797-.54687.24218-.4922.30469-.42187.17187-.17578.1836-.14844.1953-.12109.20704-.08984.21875-.05469.23047-.01953m2.96094 2.17578h.78906l.01953-.3164.0586-.28516.09765-.2539.14062-.21485.1836-.17188.22265-.1289.26563-.08204.3086-.02734.23437.01953.22656.0625.20313.10156.17968.14063.14844.17188.11328.20703.07031.23437.02735.26563-.02344.26953-.0664.22265-.10938.19141-.15625.17188-.19922.16406-.2461.16406-.63671.39063-.53516.3125-.4375.3164-.34765.32422-.26563.33594-.1875.35156-.125.3711-.07031.39062-.01953.42187h4.21093v-.74218h-3.33203l.08203-.28516.11329-.23438.14843-.20312.1875-.17969.23047-.17187.27735-.17578.71875-.41407.41406-.20703.34765-.23047.28125-.25.21875-.26953.16407-.27734.10937-.28516.0664-.28515.01954-.28125-.04297-.38282-.1211-.34765-.1875-.3086-.25-.26171-.30468-.21094-.34375-.16016-.3789-.09765-.40626-.03516-.4375.03515-.39844.09766-.35546.16406-.3047.23438-.24608.30469-.1875.375-.11329.4453-.04296.51954m6.9453-2.17578l.22657.01953.21875.05469.21094.08984.19531.1211.1836.14843.17187.17578.30078.42188.2461.49219.17968.54687.10938.57813.03906.59375-.03906.58984-.10938.58594-.17969.55469-.24609.5-.30078.42968-.17188.17969-.18359.15234-.19531.125-.21094.08985-.21875.0586-.22656.01952-.23047-.01953-.21875-.0586-.20703-.08984-.19922-.125-.1836-.15234-.17187-.17969-.30078-.42969-.24219-.5-.17969-.55468-.11328-.58594-.03906-.58984h.83594l.02734.5625.08203.5039.125.44531.16406.375.19141.29688.21094.22266.22265.13671.22657.04688.22656-.04688.22266-.13671.21093-.22266.1875-.29688.16407-.375.125-.4453.08203-.50391.03125-.5625-.03125-.5625-.08203-.5-.125-.4375-.16407-.36329-.1875-.29296-.21093-.21485-.22266-.13281-.22656-.04297-.22656.04297-.22266.13281-.21094.21485-.1914.29296-.16407.36329-.125.4375-.08203.5-.02734.5625h-.83594l.03906-.59375.11328-.57813.1797-.54687.24218-.4922.30078-.42187.17188-.17578.18359-.14844.19922-.12109.20703-.08984.21875-.05469.23047-.01953"/></g></defs><use xlink:href="#aq"/></svg>