<svg xmlns="http://www.w3.org/2000/svg" role="img" xmlns:xlink="http://www.w3.org/1999/xlink" viewBox="142.45 309.95 326.84 171.84"><defs><clipPath id="a"><path d="M144 330h1v150.32813h-1zm0 0"/></clipPath><clipPath id="b"><path d="M144 311.67188h324v168.65625H144zm0 0"/></clipPath><clipPath id="c"><path d="M144 311.67188h3V315h-3zm0 0"/></clipPath><clipPath id="d"><path d="M467 311.67188h1v168.65625h-1zm0 0"/></clipPath><clipPath id="e"><path d="M144 478h4v2.32813h-4zm0 0"/></clipPath><clipPath id="f"><path d="M146 480h1v.32813h-1zm0 0"/></clipPath><clipPath id="g"><path d="M153 479h8v1.32813h-8zm0 0"/></clipPath><clipPath id="h"><path d="M159 480h2v.32813h-2zm0 0"/></clipPath><clipPath id="i"><path d="M166 479h9v1.32813h-9zm0 0"/></clipPath><clipPath id="j"><path d="M173 480h3v.32813h-3zm0 0"/></clipPath><clipPath id="k"><path d="M180 479h8v1.32813h-8zm0 0"/></clipPath><clipPath id="l"><path d="M187 480h2v.32813h-2zm0 0"/></clipPath><clipPath id="m"><path d="M193 479h8v1.32813h-8zm0 0"/></clipPath><clipPath id="n"><path d="M200 480h2v.32813h-2zm0 0"/></clipPath><clipPath id="o"><path d="M206 479h9v1.32813h-9zm0 0"/></clipPath><clipPath id="p"><path d="M213 480h3v.32813h-3zm0 0"/></clipPath><clipPath id="q"><path d="M212 480h2v.32813h-2zm0 0"/></clipPath><clipPath id="r"><path d="M220 479h8v1.32813h-8zm0 0"/></clipPath><clipPath id="s"><path d="M227 479h3v1.32813h-3zm0 0"/></clipPath><clipPath id="t"><path d="M233 479h8v1.32813h-8zm0 0"/></clipPath><clipPath id="u"><path d="M240 479h3v1.32813h-3zm0 0"/></clipPath><clipPath id="v"><path d="M246 479h9v1.32813h-9zm0 0"/></clipPath><clipPath id="w"><path d="M253 479h3v1.32813h-3zm0 0"/></clipPath><clipPath id="x"><path d="M260 479h8v1.32813h-8zm0 0"/></clipPath><clipPath id="y"><path d="M265 479h3v1.32813h-3zm0 0"/></clipPath><clipPath id="z"><path d="M273 479h8v1.32813h-8zm0 0"/></clipPath><clipPath id="A"><path d="M279 479h2v1.32813h-2zm0 0"/></clipPath><clipPath id="B"><path d="M286 478h9v2.32813h-9zm0 0"/></clipPath><clipPath id="C"><path d="M292 479h2v1.32813h-2zm0 0"/></clipPath><clipPath id="D"><path d="M300 478h8v2.32813h-8zm0 0"/></clipPath><clipPath id="E"><path d="M305 479h3v1.32813h-3zm0 0"/></clipPath><clipPath id="F"><path d="M313 478h8v2.32813h-8zm0 0"/></clipPath><clipPath id="G"><path d="M319 478h2v2.32813h-2zm0 0"/></clipPath><clipPath id="H"><path d="M327 477h7v3.32813h-7zm0 0"/></clipPath><clipPath id="I"><path d="M340 477h7v3.32813h-7zm0 0"/></clipPath><clipPath id="J"><path d="M353 478h8v2.32813h-8zm0 0"/></clipPath><clipPath id="K"><path d="M367 477h7v3.32813h-7zm0 0"/></clipPath><clipPath id="L"><path d="M379 479h9v1.32813h-9zm0 0"/></clipPath><clipPath id="M"><path d="M385 480h2v.32813h-2zm0 0"/></clipPath><clipPath id="N"><path d="M396 476h2v4.32813h-2zm0 0"/></clipPath><clipPath id="O"><path d="M408 476h5v4.32813h-5zm0 0"/></clipPath><clipPath id="P"><path d="M422 476h3v4.32813h-3zm0 0"/></clipPath><clipPath id="Q"><path d="M436 476h2v4.32813h-2zm0 0"/></clipPath><clipPath id="R"><path d="M449 476h3v4.32813h-3zm0 0"/></clipPath><clipPath id="S"><path d="M461 477h5v3.32813h-5zm0 0"/></clipPath><clipPath id="T"><path d="M144 465h4v4h-4zm0 0"/></clipPath><clipPath id="U"><path d="M144 452h4v4h-4zm0 0"/></clipPath><clipPath id="V"><path d="M144 438h4v4h-4zm0 0"/></clipPath><clipPath id="W"><path d="M144 424h3v7h-3zm0 0"/></clipPath><clipPath id="X"><path d="M144 411h4v5h-4zm0 0"/></clipPath><clipPath id="Y"><path d="M144 396h2v9h-2zm0 0"/></clipPath><clipPath id="Z"><path d="M144 402h1v2h-1zm0 0"/></clipPath><clipPath id="aa"><path d="M465 397h3v1h-3zm0 0"/></clipPath><clipPath id="ab"><path d="M144 384h3v6h-3zm0 0"/></clipPath><clipPath id="ac"><path d="M465 384h3v2h-3zm0 0"/></clipPath><clipPath id="ad"><path d="M144 370h3v7h-3zm0 0"/></clipPath><clipPath id="ae"><path d="M144 358h4v5h-4zm0 0"/></clipPath><clipPath id="af"><path d="M466 358h2v2h-2zm0 0"/></clipPath><clipPath id="ag"><path d="M144 345h4v5h-4zm0 0"/></clipPath><clipPath id="ah"><path d="M466 345h2v3h-2zm0 0"/></clipPath><clipPath id="ai"><path d="M144 330h2v8h-2zm0 0"/></clipPath><clipPath id="aj"><path d="M466 332h2v3h-2zm0 0"/></clipPath><clipPath id="ak"><path d="M144 316h2v9h-2zm0 0"/></clipPath><clipPath id="al"><path d="M144 323h2v3h-2zm0 0"/></clipPath><clipPath id="am"><path d="M466 318h2v3h-2zm0 0"/></clipPath><clipPath id="an"><path d="M465 318h3v3h-3zm0 0"/></clipPath><g id="ao" clip-path="url(#clip1)"><path fill="#fff" fill-opacity="0" fill-rule="evenodd" d="M0 0h1000v1000H0zm0 0"/><path fill="#d3d3d3" fill-opacity="0" fill-rule="evenodd" d="M162.15234 355.86719l-.23437.29297.0586.23437.11718.17188.17578.23437.29297.34766.11328.0586.11719-.17188.0586-.23438.17577-.17578.46485-.17578h.69922l.23437.29297.28906.8164.0586.17579.17578.23046.35156.23438.69922.69922.17188.17578.23437.34765.23438.41016.28906.58203.41015.46485.23047.23437.23438.17578.11719.23047.17578.29297.17187 1.16406v.23438l.0586.28906.05859.11719.11719.11719.34765.41015.11719.17188.17578.17578.17578.23437.11719.17188.17188.35156.05859.23438.23437.40625.23438-.0586-.17578.17578-.0586.92969h-.58203l-.23437-.11328-.34766.11328-.11719.11719-.05859.29297-.0586.17578-.11718.17187-.46484.29297-.0586.23438-.0586.11328v.64453l.0586.17187v.41016l.0586.0586v.40624l.05859.40625.11719.17579.05859.05859.23047.64062-.0586.29297v.69922l-.05859.58203v.23438l-.0586.23047-.05468.35156v1.92187l.05469.1172h.42578l-.36719.11718-.02344.35156.89063 1.16797 1.74219.53906 1.33984.35938v.53906l.08984.8086.53516.71484 1.51953.26953.89063-.08594.08984 1.16406.53516.1797 1.16015-.1797 2.05469-.98437 1.16016-.36328 1.8789-.17578 1.69531-.1797-.17968.71876-1.51563.08594-1.25.08984-.80469.26953-1.07421.8086.26953.71875.53515.89843-.17968.625-.26563.8086.26563 1.07812.625.89844.80468.17969 1.25-.1797-.26562.72267.09766.5039.05468.29297v.17188l.0586.29296v.40625l.17578.1172.35156.11718h.40625l.29297-.17578.11328-.11719.0586-.11719.11718-.23047.0586-.17578.35156-.46484.23047-.17578.17578-.0586.17578.0586.0586.17578.11718.98828.05469.46875.0586.17188.11718.23437.17578.0586.8164.05859h.28907l.11719.23437.05859.40625.0586.35156v1.10547l.11718.29297.11719.34766.28906.69922.17578.35156.58203.7539.35157.17579.17187.0586.46875.23437.64063.46484.34765.23438.29297.17578.29297.05468.23047.0625.8164.34766.29297.17578.11328.17188.35157.35156.11719.17578.52343.64063v.28906l.0586.35156v.34766l.05859.35156.0586.28906.11718.0586.17188.05859h.17578l.58203.23437.17578.1172.17578.28905.17578.23438.11328.23437.29297.23047.11719.11719v.41016l.0586.05468.28906.23438.23437.11719.0586.11718.11718.17188.0586.11719.23047.23437.05859.17578.23437.0586.1172.05859-.1172.11328-.05859.11719v.11719l-.11719.29296-.11719.28907v.58203l.17579.11719.11718.05859.0586.11719.11719.11719.11328.05859.17578.34765.0586.35157.05858.40625v.17578l-.05859.17578-.11719.69922v.17187l.1172.17579.29296.29296h.40625l.17578.1172.11719.17187.11719.29296v.23438h-.52735l-.23047-.23438h-.23437l-.17578.0586-.0586.69922.0586.34765.11719.17579.17578.41015.11718.23047.28907.46875.17578.05469h.52344l.23437.0586.75781.64062.0586.29296v.23438l.05859.0586.23047.34765v.35156l-.11719.17188v.29297l.29297.28906.29297.17578.17187.0586.29297.17577.29297.1172.58203.40624.28906.23438.29297.17578.21875.16015.01563.01172.23047.17579.64062.52343.17578.23438.1172.17578.17577.17578.11328.17188v.64062l.1172.17578.46874.11719.58203.11719.23438.05859.23047.11328.29297.11719.11328.0586.58593.35156.28907.17187.17578.0625.17578.05469.17578.0586.69922.35155.28906.17579.23438.05468.28906.17578.23437.1172.64063.40624.29297.11719.17187.0586.23438.05859.41015.05859.23047.0586.23438.11718.0586.17188-.41017.17578.46875.0586.0586.29296.11328.23438.17578.05468.23438.0586.17578.05859.40625.11719.64062.23437.11719.17188.0586.23437v.17578l-.0586.1172-.0586.40624.23438.23438.11719.05859.34766.11719.64062.23047.17578.11718.28906.1172.17578.17577.23438.46485.58203 1.10546.17578.17579.34766.17578.17578.11719.35156.11718 1.04688.52344.23437.0586.46485.11327.29297.0586.46484.17578.75781.58203.23438.23438.34765.46484.17578.17578.28907.23438.8164.69921.29297.17579.28906.28906.29297.17578.29297.28906.69531.64063.17578.17578.29297.23437.28907.23438.46875.28906.64062.58203.34766.23438.23437.29297.34766.34765.35156.46485.9336.99218.34765.40625.11719.17579.23437.05859.11328.11719.64454.17578.23047.11328.23437.0586.29297.17577.23047.1172.9336.69921.40624.40625.23438.17578.40625.17578.23437.11719.8164.34766.34766.23437.23438.11719.29297.28906.23047.11719.7578.35156.35157.17188.23047.05859.29297.11719.23437.0586.8711.17577h.8164l.46875.23047.17188.0586.875.69921.46484.1172.29297.05858.17578.0586.23047.0586.46875.05859.34766.05859.35156.0586.40625.05859h.29297l.17187.0586v.23046l.17578.17578h.29297l.34766.0586.35156.05859.69922.11719h.64063l.46484-.23438.29297-.17578.17187-.11719.41016-.17187.28906-.17578.9336-.46485.46875-.29297.52343-.29296.46485-.17188.46484-.17578 1.05078-.46485.28906-.11718.41016-.11719.28906-.11719.52735-.17578 1.51562-.69922.58203-.34765.28907-.0586.29297-.0586.34765-.11718.875-.23047.35156-.11719h.11329l.23437-.05859.875-.23437.23438-.0586h.8125l.35156-.0586.8164-.11718.17188-.0586.35156-.05468.29297-.0586.23047-.05859.8164-.17578.17579-.0586h.34765l.23438-.05859.46484-.11718.75781-.17188.23438-.0586h.34765l.41016-.11718.28906-.0586 1.28516-.05859h.28906l.41016-.0586.23047-.05858h.17578l.875-.1172h.40625l.41015-.11718h.34766l.35156-.11328.8711-.0586h1.75l1.04687.28907.41016.11719.28906.11718.35156.11719.28907.11719 1.05078.17187.28906.0586h.29297l.29297.05859.17187.0586.41016.05859.17187.0586.1172.05858h.11718l.11719.0586.35156.0586h.11328l.41016.0664 1.92187.39453 1.92578.39453 1.51953.44922 1.69532.71875 2.14453.80469 1.60547-.71875 1.42968-.80469 1.16016-1.07813 1.25-.44921 3.03516-.71875 1.875-.35938 2.14453-1.34765 2.23437-1.25391 2.5-1.25781 1.69531-.44922 1.78516-.17969 1.16016-.26953.625.53906 1.33984-.26953.71485-.98828.98437-1.34375.44531-.17969.80469-.35937 1.875-.53907 1.78516-.44921 1.25-.26954 1.16015-.08984 1.69922-.08984 1.96094-.26954 1.25-.08984h.53906l.625-.08984h.89063l2.14453-.17969 2.41015-.17969 2.58985-.08984 1.69531.17969 1.60938.08984 1.42968.35938 1.16016.71875 1.875.98828 1.16015 1.52734.26563.71484.6289.08985.35548.89844.53515.53906.53516 1.52734 1.07422.35938h.53515l-.80469.53515.08985 1.70703.71484 2.69532.89063.80468.89453.98829.71484 1.2578 1.78516.53907 1.51953-.17969.35547 1.34375 1.60937-.80469.98047-.53906.26953.26953.31641-.21484.21875-.14453.80078.44922.44922-.35938h.35547l.53515-.26953.53907-.71875.53515-.26953.625-.98828 1.16016.44922.83984.3711 1.39454.61718 1.6953-.17969h1.60548l1.78515.08985.17969-1.70704.53516-1.34375.80468.26954.4922.84765.40233.40625-.08984.53906v.35938l.71485.44922.71093-.26953h1.42969l.35938.98828.4453 1.25781.71485 1.34375 1.25.6289 1.69531.62891.71485-.17969.17969-.53906.98046-.08984.44922.35937.08594 1.25782-.26563.6289-.53515.17969v.53906l.71484.98438.26563.53906.98437.98828.80078 1.07813-.26562.35937-.08985.89844-.625 2.33203-.35546 2.0664-.08985 1.79298-.17969.71875-.08984.53906v1.4375l-.98047 1.88281-.35937 1.70703-.53516.89844-.80469 1.16797-.26562.53906 2.05469 1.2539.08593.35938-.35546.53906-.08985-.17968v.80859l.08985 1.4375-.44532.71484-1.07422.09375-.26562.71485.53515.89844.8047.71875 1.16015.80859 1.33984.26953.44531.35938-.35546.44921-1.78907-.08984-1.25-.44922-.71484-.71875-.625-.08984-.17578 3.58984-.1875 1.3086h89.35937V311.70313h-55.26953v49.08203l.76172.125 3.28906.54296 2.02344 2.83594v2.7539l2.35156.33204 2.34766.33203h4.05078l-1.3789 4.16016-2.02344.70703-2.02344.70312-.54297.34375-2.59375 1.6172-.1875.11718-2.02344-2.07813-.73046-2.74218-2.67188-2.07813-1.375-3.5-.0664-.08203-1.95704-2.67188 2.75-1.41796v-49.08204H294.42187v91.41407l.1172.03125.1328.01172.07422.07421.10547.04688.08985.0586.08593.05859.08985.0586.29687.29687.0586.08984.03125.11719.02734.11719.01563.13671-.03125.1172-.0586.08983-.0586.08594-.04296.10547-.04688.10156-.02734.1211v.14453l.17578.26953.14844.14844.07422.08594.07422.07421.04296.10547.0625.08985.0586.08593.04297.10547.0586.08985.04687.10156.04296.10547.0586.08594.11719.17968.07421.07422.0625.08594.0586.08984.04297.10547.0586.08985.05858.08593.0625.08985.0586.08984.04297.10156.11719.17969.07421.07422.0586.08594.07422.07421.08984.0586.10547.04687h.14844l.1328-.01562.13282.01562.10156-.04687.07422-.07422.04688-.10156-.01563-.13281v-.14844l-.04687-.10547-.02735-.11719-.04687-.10156-.02735-.1211-.04296-.10156-.0625-.08984-.04297-.10156-.04297-.10547-.03125-.11719-.01563-.13281-.01171-.13672.08593-.0586.0586-.08593.12109-.03125.04297.10547.01562.1328v.1172l.0586.10156.0586.08984.08983.0586.14844.14843.0586.08985.04296.10547-.01171.10156.08593.0586.10547.04687.08594.0586.08984.05858.07422.07422-.11719.02735-.10546.04687-.08594.0586-.07422.07421-.0586.08985-.0625.08594-.02734.12109-.04687.10156-.04297.10547-.03125.11719-.01172.13281-.01563.13281v.14844l.02735.11719.04687.10547.04297.10156.0586.08984.07421.07422.08985.0586.07422.07421.08984.0586.0586.08984.04296.10547.04688.10156.11719.03125.1328.01563h.14845l.11718-.03125.10547.04297.04297.10547.04688.10156.02734.1211L299.5 410l.02734.11719.03125.1211.02735.11718.10547.04297.10156.04687.13281-.01562.14844.14844.0625.08593.07422.07422.07031.07422.08984.0625.10547.04297.10156.04297.1172.03125.13671.01562.11719-.03125.07422-.07422.02734-.11718-.01172-.13282-.03125-.12109-.02734-.11719.04297-.10547h.11719l.08984.0625.11719.02735h.14843l.13282.01562h.14843l.13282.01563.1328-.01563h.14845l.1328-.01562.13282-.01172.13672.01172.11719-.02735.13281-.01562.1914-.0586-.05859.17579-.01562.1328-.02735.1211-.01562.13281-.0586.08594-.1328.01563-.10548.04687-.10546.04297-.1172.03125-.11718.02735-.26563.03125h-.14843l-.13281.01562-.07422.07422.05859.08594.14844.14843.11719.1797.07421.0703.08985.0625.08984.0586.08594.0586.08984.05858.10156.04297.10547.0625.10547.04297.08594.0586.10547.04687.10156.04297.17969.11719.0586.08984-.04298.10156-.04687.10547.01562.13281.22266.22266.0586.08985.04296.10156.03125.1211.04297.10155.01563.13282.03125.11718.01171.13672.03125.11719.14844.14844.10156.04297.10547.04296.1172.03125.1328.01563.13672.01563h.11719l.11719-.03125.08984-.0586.04297-.10547.04688-.10156.04296-.10547.03125-.11719.01172-.1328v-.14845l-.01172-.1328-.01562-.13282-.03125-.11719-.04297-.10547-.04688-.10547-.04296-.10156-.04297-.10547-.01563-.13281.01563-.13281.02734-.11719.03125-.11719.02735-.1211.04687-.10155.08984-.0586.08594-.0625.07422-.07422.08984-.05859.22266-.22266.0586-.08593.07421-.07422.11719-.17969.0586-.08594v-.14844l-.07423-.07421-.10156-.04688-.10547-.04297-.10156-.04297-.0586-.08984-.04687-.10547-.02734-.11719.08984-.05859.11719-.03125.10156-.04297.17969-.11719.14844-.14843.01172-.13282-.01172-.10546-.08985-.0586-.1328.01563h-.14845l-.1328.01562-.13282-.01562-.1211-.03125-.08593-.0586-.07422-.07422-.0586-.08984-.0625-.08594-.11718-.17969-.0586-.08593.03125-.1211.08594-.05859.1211-.03125.05859-.08594v-.1211l-.03125-.11718-.0586-.08984-.05859-.08594-.04687-.10547-.02735-.11719-.01562-.1328.0586-.08985.07421-.07422.08984-.0586.1172-.17968.07421-.07422.0586-.08594.14843-.14844.1211-.03125.1328-.01562.13282.01562.07422.07422.04297.10547.01562.13281-.03125.1172-.11719.03124-.1328.01172-.14844.14844-.04297.10547-.04688.10156-.02734.1211-.03125.11718v.14844l.03125.11719.04297.10546.05859.08985.07422.07031.07422.07422.11719.03125.12109.02734.11719-.02734.1328-.01563h.1172l.08984.0586.07422.07422.04687.10546.0586.08594.10156.04688.13281.01562.10547.04297.08594.0586-.01172.10546-.07422.07422-.17969.11719-.05859.08984-.08984.0586-.07032.07422-.07421.07421-.0625.08985-.02735.11719-.01562.1328.01562.13282-.01562.13281v.14844l.01562.13281.02735.1172.03125.12108.07421.07422.08985.0586.08594.0586.08984.05858.11719.03125v.08594l-.10157.04688-.08984.0586-.26563.03124-.11718.02735h-.14844l-.10547.04296-.10156.04688-.0586.08984-.0625.23438-.01171.13281-.03125.1211-.01563.1328v.29298l-.01172.1328.01172.13673.01563.1328.1328.01563.13282.01172.1211.03125.08593.0586.07422.07421.04688.10547.04296.10157.01563.1328v.44532l-.01563.13281v.44532l.03125.26562.02735.11719.01562.13281.03125.11719.08594.21094.03125.26562v.14844l-.03125.11719-.02734.11718-.03125.1211-.02735.11719-.03125.11718-.03125.1211-.01171.1328-.01563.13282.08984.0586.1172-.03125.10155.01562.04688.10547-.03125.26562v.44141l-.04297.10547-.04688.10547-.04296.10156-.04297.10547-.0586.08594-.03125.12109-.04296.11719-.03125.11719-.01563.1328.01563.13282.05859.08984.10547.04688.08594.0586.05859.08593-.01172.13672-.03125.11719-.04297.10156v.44531l-.01562.13281v.14844l-.03125.11719-.04297.10547-.02735.11719-.04687.10546-.04297.10157-.03125.12109-.02734.11719-.03125.13281-.03125.11719-.02735.11719-.04297.10546-.03125.1172-.03125.12108-.01171.13282-.01563.13281v.29688l.02734.11718v.14844l.04688.39844.02734.11719.0586.08984.12109.03125h.14844l.13281-.01563.0586.08985v.11719l-.0586.08984-.08984.0586-.10157.04296-.10546.04688-.08985.05859-.08594.0586-.13671.01562-.1172-.03125-.1328-.01563-.10157.04688-.0625.08594-.01172.13671-.01562.13282-.03125.11719-.02735.11718-.01562.13281-.03125.1211v.29687l.01563.13282.03125.11718v.14844l.01171.13281v.14844l-.02734.11719-.04688.10156-.02734.1211-.03125.11718-.0586.08985-.07421.07421-.10156.04297-.10547.04688-.11719.02734-.1211.03125-.10156-.04687.0586-.08594.10547-.04688.02734-.11718.03125-.11719.02734-.1211.03125-.11718v-.14844l.01563-.13281-.03125-.11719-.04297-.10547-.10547.01563-.07422.07422-.10156.04296-.08984.0625-.07422.07422-.04297.10157-.01563.1328-.03125.1172L304.25 426l-.03125.11719-.02734.11719-.03125.12109-.02735.11719-.03125.11718-.04297.10547-.08984.0586h-.08984l-.1172-.03125-.03124-.08594.01562-.13672-.03125-.11719v-.14844l-.01171-.1328v-.14844l-.0625-.23438-.02735-.1211-.04297-.10156-.04687-.10546-.0586-.08594-.05859-.08985-.04297-.10546-.0625-.08594-.14844-.14844-.0703-.07422-.10548-.04687-.10547-.04297-.10156-.04297-.29687-.29688-.08985-.07421-.08594-.0586-.10546-.04297-.08985-.0625-.08594-.0586-.10546-.04296-.08985-.0586-.08594-.0625-.07421-.0703-.10547-.04688-.08594-.0586-.10547-.04296-.08984-.0625-.10156-.04297-.10547-.04297-.08594-.0586-.10547-.04687-.10547-.04297-.10156-.04687-.08985-.0586-.10156-.04297-.10547-.04296-.08984-.0625-.11719-.02735-.13281-.01562-.13281.01562H299.75l-.13281.01563-.11719-.03125-.08984-.0586-.07422-.07422-.08985-.05859-.10156-.04688h-.14844l-.12109-.02734-.10156-.04297-.07422-.07422-.11719-.17968-.08984-.0586-.10156-.04297-.08985-.0625-.10547-.04296-.08984-.0586-.08594-.0586-.10547-.04687-.0586-.08594-.05858-.08984-.04297-.10547-.04688-.10156-.07422-.07422-.08594-.0586-.07421-.07421-.08985-.0586-.22265-.22265-.04297-.10547-.03125-.26563.10547-.04296h.14453l.10547.04296.07421.07422.08985.0586.08594.0586.10546.04687.08985.05859.14844.14844.0703.07422.14845.14843.0625.08594.07421.07422.08594.0586.07422.07421.08985.0625.08984.0586.08594.05859.26953.17578.10156.04688.10547.04296.10156.04297.04688-.07421.05859-.08594.07422-.07422.07031-.07422.10547.04297.07422.07422.0586.08984.04296.10156.04688.10547.04296.10547.1211.02735.11719-.02735.07421-.08984.04297-.10547.0586-.08985.07422-.07421.10546-.04297.1172-.02735.1328.01172.08985.0586.14844.14843.05859.08985.04297.10547.04687.10156.04297.10547.04297.10156.10547.04688.10547.04296.13281.01563.08594-.0586.0586-.08984.07421-.07422.10547-.04297.11719.02735.10547.04687.10156.04297.10547.04297.10156.04688.17969.11718v.11719l-.01563.13281.01563.13281.01562.13672.0586.08594.10156.04688.1211.02734.11718.03125h.14844l.11719-.03125.05859-.08984.17969-.1172.05859-.08983.07422-.07422.0586-.08594.11718-.17969.17969-.11719.11719.03125.08984.0586.04297.07422-.01563.1328v.1172l.08985.05859h.14843l.13282-.01563.1328-.01171.26563-.03125.10547-.04297.11719-.03125.1211-.02735.07421-.07421.07031-.07422.0625-.08985-.01562-.10547-.04688-.10156-.10156-.04297-.10547-.01562-.11718.02734-.26563.03125h-.14844l-.07421-.07422-.08985-.0586-.11719-.03124-.11718-.02735-.13282-.01562h-.14843l-.13282.01563h-.29687l-.10547-.04688-.14844-.14844-.04297-.10156-.05859-.08984.22266-.22266.08593-.0586.10547-.04296.11719-.03125.13281-.01563.13281.01563.13672.01562.10157.04297.1328-.01172.08985-.0625.10156-.04297.0625-.08984-.04687-.10156-.08984-.0586-.1172-.03125-.10155-.04296-.0586-.08985-.0625-.08984v-.11719l.01563-.13281.10547-.04688.07421-.07031v-.1211l-.08984-.05859-.03125-.11719.08985-.05859.07421-.07422.04297-.10547.0586-.08984.04687-.10156.01563-.13281v-.14844l-.04688-.10547-.04297-.10156-.08984-.0586-.13281-.01562-.10157-.04297-.13671-.01563-.1172-.03125h-.4453l-.13282-.01562-.13281-.01172-.13281-.01563-.11719-.03125h-.14844l-.13281-.01562-.13281-.01172-.26563-.03125-.1211-.04297-.08593-.0586-.07422-.07421v-.14844l.01172-.13281.10547-.04688.10156-.04296.13281-.01563h.15235l.13281-.01562h.29297l.1211.03125.10156.04296.08984.0586.23438.0625.12109-.04688.08984-.05859.10156-.04297.13282-.01562.10547.04296.10156.04688.13281.01172.1211-.02735h.14453l.12109-.03125.11719-.02734.10547-.04687.07421-.07422.08594-.0586.14844-.14843.0586-.08594.04687-.10547.02734-.11719.01563-.10547-.10156-.04296-.08985-.0586-.11719-.03125-.10546-.04297-.08985-.0625-.07422-.08594-.07422-.07421-.10156-.04297-.10547-.04688-.10156-.04297-.0586-.08984-.04687-.10156-.08594-.21094-.0625-.08594-.05859-.08984-.07422-.07422-.08594-.0586h-.26953l-.11719.03126-.08984.05859-.10156.04297-.13281.01562-.10547-.01562-.02735-.11719-.0625-.08984-.11718-.03125-.10157-.04297-.14843-.14844-.03125-.11719-.01563-.10546.07422-.07422.17969-.1172.11719-.02733.11718-.03125.13672.01562.10156.04297.10547.04297.10156.04687.10547.04297.1172.03125.1328.01563.1172.02734.1328.01563.10547-.01563.08985-.0586-.07422-.07421-.10547-.04297-.07422-.07422-.07422-.08984-.14844-.14844-.08593-.0586-.08985-.05859-.07422-.07422-.08984-.0586-.10156-.04687-.1211-.02734-.10156-.04688-.10547-.04296-.11719-.03125-.10156-.04297-.1211-.03125h-.14843l-.11719.03125-.10546.04297-.08594.0625-.17969.11718-.08594.0586-.08984.0586-.10547.04687-.08594.05859-.10547.04297-.10156.04297-.10547.04687-.07422.07422-.05859.08985-.0586.08593-.04687.10547-.0586.08594-.07421.07422-.13281-.01172-.1172-.03125h-.11718l-.07422.07422-.08984.0586-.07422.07421-.08984.0586-.08594.05859-.10547.04687-.10156.04297-.13672.01563-.10156-.04297-.14844-.14844-.10547-.04688h-.08594l-.10547.04688-.10156.04297-.1211.03125-.11718-.03125-.07422-.07422v-.11719l.03125-.1211.07422-.0703.0586-.08985.07421-.07422.11719-.03125.10547-.04296h.29297l.13281-.01563.13672-.01563.10156-.04296.08985-.0586.10156-.04687.08984-.0586.13281-.01171.08985.05859.13281.01172.08984-.0586.08594-.05859.10547-.04297.08984-.0586.08594-.0625.08985-.05859.14843-.14843.0586-.08594.05859-.08985.10547-.04296.13281-.01563.11719.02735.1211.03125.05859-.0586.05859-.08984.03125-.26563.02734-.11719.10547.01172.13281.01563.10157-.04297.08984-.0586.0586-.08984.07421-.07422.0586-.08984.04687-.10156.01172-.13281-.01172-.13282-.04687-.10547-.14844-.14843-.0586-.08985-.05859-.08594-.04297-.10546v-.44532l.01563-.1328v-.14845l.01172-.1328-.0586-.0586-.08984.0586-.10156-.04298-.17969-.11719-.08594-.05859-.0625-.08984-.0586-.08985-.07421-.07421-.08594-.0586-.1211.03125-.10155.01172-.10547.04688-.08594.05859-.10547.04297-.14844.14844-.08984.05859-.08594.0586-.08984.0625-.10547.04296-.13281.01563v-.1211l.10547-.04297.11718-.03125.07422-.0703.04297-.10548v-.14844l-.02734-.11718-.14844-.14844-.13281-.01563h-.14844l-.11719.03125-.10547.04297-.10156.04297-.08984.0625-.11719.02735-.07422-.07422.01172-.13281-.04297-.10157-.04297-.10547-.08984-.05859-.11719.02734-.1211.03125-.11718.03125-.10156.04297-.1211.03125-.10156.04297-.10547.04297-.08984.0586-.10156.01562v-.11719l.01562-.13281-.0586-.08985-.07421.04297-.14844.14844-.0586.08985-.07421.07421-.04688.10547-.04296.10156-.07422.07422-.0586.08985-.07422.07422-.05859.08593-.07422.07422-.08984.0625-.07422.07031-.07422.07422-.10156.01563-.13281.01562-.10547-.04296v-.1211l.14843-.14844.04297-.10156.0586-.08984.04687-.10156.04297-.10547.0586-.08985.03124-.11719.04297-.10156.03125-.1211.02735-.11718.04687-.10547.04297-.10156.04297-.10547.07422-.07031.08984-.0625.08985-.0586.10156-.04296h.29687l.26563-.03125.10547-.04297-.07422-.07422-.11719-.03125-.10547-.04297-.08984-.0586-.10156-.04687-.08985-.0586-.10156-.04296-.10547-.04297-.08984-.0625-.08594-.0586-.10547-.04296-.10156-.04297-.1211-.03125-.11718-.03125-.10157-.04297L297.5 410.25l-.10156-.04297-.08985-.0586-.04296-.10546-.01563-.13281.10156-.04297.13281-.01563.13672.01563.13282-.01563.10156-.04297.0586-.08984.01562-.10547-.08985-.0586-.07421-.07421-.10157-.04297-.08984-.0586-.14844-.14843-.04297-.10547-.01562-.13281v-.29297l-.0586-.08985-.08984-.05859-.07422-.07422-.04297-.10547-.03125-.11718-.0586-.08985-.07421-.07422-.11719-.02734-.07422-.07422-.08984-.0586-.08984-.0625-.08594-.05859-.07422-.07421-.0586-.08594-.04687-.10547-.08594-.0586-.14843-.14843-.19532-.0586-.1328.01563-.10157.04297-.07422.07422-.04688.10156-.04296.10547-.0586.08984-.0586.08594-.29687.29687-.08984.0586h-.08594l-.0625-.08594-.04297-.10547.03125-.11719.0586-.08984.02734-.11719-.01172-.13281-.08984-.0625-.10547.04688-.11719.02734-.11719.03125-.26953.17578-.10156.04688-.11719.02734-.10546.04687-.08985.0586-.10156.04297-.0586-.08594-.04687-.10547.01563-.13281.04687-.10547.07031-.07422.07422-.07031.0586-.08985v-.14843l-.04297-.10547h-.23829l-.10156.04687-.03125.11719-.02734.11719-.03125.1211-.07422.04296-.13281.01563-.07422-.04688-.04297-.10156-.04297-.10547-.04687-.10156-.04297-.10547-.1211.03125-.10156.04297-.13281.01562-.11719.03125-.10547.04297-.08984.0586-.10156.04687-.1211.02734-.13281.01563-.10156-.04297-.0586-.08985-.04687-.10546-.04297-.10157-.04297-.10546v-.1172l.0586-.08984.08593-.05859.17969-.11719.10156-.04687.10547-.04297.10547-.0586.10156-.04296.08985-.0625.10156-.04297.10547-.0586.10156-.04687.08984-.0586.10547-.04296.10156-.04297.08985-.0625.10156-.04297.13672-.01563.11719.03125.10156.04297.1211.03125.10156.04297.10546.04688.10157.04296.10547.04297.10156.04688.10547.04297.10156.04297.10547.04687.08594.0586.10546.04296.1172.03125.10546.04297.10156.04688.08985.0586.10547.04296.10156.04297.10547.04687.11719.02735.10156.04687.1211.02735h.14843l.08594-.0586.01562-.10156.0586-.08984-.02735-.1172-.07422-.07421-.11719-.17969-.07421-.07422-.08985-.07421-.17969-.1172-.08593-.05859-.10547-.04296-.10156-.04688-.26954-.17578-.05859-.08985-.07422-.07421-.0586-.08985-.04296-.10156-.03125-.11719-.01563-.13672v-.5625l-.01171-.1328-.01563-.13282-.03125-.11719-.01562-.13281-.01172-.13281-.03125-.1211-.22266-.22265-.0586-.08594-.01562-.10547.03125-.11719.13281-.01562v-91.41406H172.9922v1.45312l-.0586.23438-.35156 1.05078-.17187.52343-.1172.34766-.17577.41016-.11719.17187-.23438.29297-.23046.0586h-.35157l-.11718.05859-.23047.40625v.29297l.11719.17578.23046.23047.1172.23437.64062.75781.29297.46485.17578.23437.23047.35156.23437.34766.64063.8164.17578.46485.17187.41016.11719.69531.17578.46875.11719 1.39844.0586.46484v.875l.11718 1.04688v4.78125l-.0586.46484-.35156 1.28125-.17578.52344-.11328.41015-.35156.9297L172.93359 336l-.23437.58203-.11719.17578-.17187.34766-.17578.40625-.35157.8164-.0586.29297-.11327.29297-.11719.28906-.0586.17579-.11718.875-.0586.40625-.05859.11718-.0586.17579-.05859.17187-.23047.52734-.11718.17188v.23437l-.11719.23438-.0586.17187-.17577.58594v.28906l-.0586.17579v.29296l-.0586.11329-.05859.52734v.17187l-.05468.23438v2.6211l-.17578.8164-.1172.17578-.17577.23438-.1172.17187-.11327.23438-.58594.93359-.23047.28906-.29297.46485-.17578.23437-.28906.35156-.35156.69922-.11328.23047-.17579.41016-.17578.23046-.40625.52735-.8164.69922-.29297.17187-.28906.23438-.17579.11719-.17578.17578-.52344.40625-.52734.17578-.17187.17578-.23438.05469-.64062.17578h-.75782m12.21094 31.02344l-1.07422.44921.35938.89454 1.25-.71485.44531-.53906-.98047-.08985"/><path fill="#d3d3d3" fill-opacity="0" fill-rule="evenodd" d="M201.50781 416.59766h-.89453l.44922.6289.98047.35938.80469-.08985.4453-.98828-.17577.08985-.71485-.35547-.89453.35547m154.6211 59.0703l-.0586-.52343v-.29297l.11328-.29297.0586-.23046.46875-.46875h.11328l.11719-.11329.11718-.05859h.17579l.23437-.0586h.34766l.23437.0586.11719.0586.23047.17187.0586.17578.11718.58203v.29297l-.11719.17578-.17187.28906-.17579.17579-.52734.52343-.23047.23438-.11719.0586h-.17578l-.11718-.0586-.40625-.29297-.17579-.11719-.11718-.0586-.0586-.11327-.05468-.1172m6.64062-10.95702l-.0586-.17188v-1.10937l.0586-.17188.17578-.0586.17188-.05858h.17578l.23437-.0586.1172.0586.05858.69921-.05859.17188-.11719.17578-.11718.0586-.23438.52343-.11328.0586h-.23438l-.05859-.1172m9.61328-14.39062l-.11719-.17578v-.69922l.29297-.875.1172-.17187.17577-.35156.11328-.23047.1172-.29297.35155-.75781.1172-.23047.17187-.23438h.17578l.11719-.0586h.64062l.11719.0586.23437.23438.17188.11328.35156.29297.11719.11718.11328.17579v.11328l.11719.05859.11718.11719v.69922l-.05859.17578v.23047l-.0586.17578-.34765 1.05078-.11719.23047-.11719.23437-.11718.0586-.23047.23437-.64063.28906h-.875l-.41015-.11718-.64063-.46485"/><path fill="none" stroke="#bebebe" stroke-linecap="round" stroke-linejoin="round" stroke-miterlimit="10" stroke-width=".5" d="M467.95703 311.69531H144.02734v168.625h323.9297v-168.625"/><g clip-path="url(#a)"><path fill="#fff" fill-opacity="0" fill-rule="evenodd" d="M144 475.89063v4.4375h.0039H144v-149.9336 145.4961"/></g><path fill="#50fcfc" fill-rule="evenodd" d="M144 324.91797v5.47656l.0039-.0039v-5.46875l-.0039-.00391"/><path fill="#fff" fill-opacity="0" fill-rule="evenodd" d="M144 314.57813v10.33984l.0039.0039v-10.34765l-.0039.0039"/><g clip-path="url(#b)"><path fill="#fff" fill-opacity="0" fill-rule="evenodd" d="M144.0039 480.32813v-149.9375l.94923-.96485-.90235-4.4414-.04687-.0625v-10.34766l2.14453-2.90235h11.16797v1.28907l-2.9336 3.14844 2.9336 3.41796 3.48828-3.41796-3.48828-3.14844v-1.28906h4.4375v98.59765l-2.78907 3.48438.22266 4.4375-.73047 4.4375 1.55078 4.4414 1.7461 3.78125v9.89453l-.4336 4.07422-1.03906 4.4414 1.47266 4.28907 2.73047-4.28906-2.22657-4.4414-.5039-4.07423v-9.89453l4.4375-2.75781 4.4375.90625 4.4375 1.69531v17.70703l-.8125.85938.8125.88281 4.4414-.69531.08985-.1875-.08985-.15625-4.4414-.70313v-17.70703l2.86328.8125 1.57812 1.27735 4.4375 1.48828 1.97656 1.67187 2.46094 1.08203 4.4375.14063 4.4414 2.64062 1.05079.57422 3.38672 2.75 2.35547-2.75 2.08203-.3789 4.4375-.03907 4.4414-.55078 4.4375.36328 4.4375-1.4375 4.4375-1.3164 4.4375 1.04297 4.44141.28125 2.10547 2.03515 2.33203 2.3086 4.3789-2.3086-4.3789-3.27344-1.10937-1.16406-3.32813-2.94922-2.125-1.48828 2.125-4.4375h.03125l2.6875-4.4414-2.71875-1.50782-4.4414 1.19532-4.4375.27734-.35157.03516-4.08594.24609-1.21093-.2461-3.22656-3.4375-4.4375-.32812-.42579-.67187-4.01562-2.26954-4.4375-1.3164-1.76172-.85156-2.67578-1.72266-4.4375.44922-2.0625 1.27344-2.3789.65625-4.4375.79296-4.4375.14844-4.4375-.5039-4.44141.71875-4.4375-1.4375-.59766-.375-3.83984-2.69922-4.4375-.78516v-98.59765h17.7539v32.99609l-1.8789 2.51172 1.8789 1.58203 1.52344-1.58203-1.52344-2.51172v-32.9961h22.1914v11.0586l-4.14843 2.2539-.28906.16797-4.4414 1.61329-2.64454 2.66015-1.79297 4.19922-.19531.23828.19531.2461 4.4375 1.26562 4.4414 1.66797 4.4375.70703v4.64453l-.1328.34375.1328.11328.23438-.11328-.23437-.34375V337.75l4.4375-2.82031.29297-1.0664.82422-4.4375-1.1172-1.5547-.97655-2.88671-3.46094-2.25391v-11.0586h13.3164v10.39063l-2.16015 2.92188 2.16016 2.34765 1.89843-2.34765-1.89844-2.92188v-10.39063h53.25782V429.9961l-2.76172 1.51172 2.76172 1.48438 1.5625-1.48438-1.5625-1.51172V311.67188h106.51953v136.29687l-1.52735 1.29297 1.52735 1.9414 3.8086 2.4961.6328.6289.41797-.6289-.41796-.35938-3.13672-4.07812-1.3047-1.29297V311.67187h8.87892V461.0547l-.51563 1.51953-2.07031 4.4414 2.58594 3.96875 2.58593-3.96875-1.98828-4.4414-.59765-1.51953V311.67188h84.32421v168.65625H144.00391"/></g><path fill="#50fcfc" fill-rule="evenodd" d="M144.95313 329.42578l-.94922.96485v-5.46875l.04687.0625.90234 4.4414"/><g clip-path="url(#c)"><path fill="#50fcfc" fill-rule="evenodd" d="M146.14844 311.67188l-2.14453 2.90234v-2.90235h2.14453"/></g><path fill="#50fcfc" fill-rule="evenodd" d="M157.3164 319.52734l-2.93359-3.41796 2.9336-3.14844v2.64062l-.47657.50781.47657.5547.5625-.5547-.5625-.5078v-2.64063l3.48828 3.14844-3.48828 3.41796"/><path fill="#00e8fc" fill-rule="evenodd" d="M157.3164 316.66406l-.47656-.55469.47657-.5078.5625.5078-.5625.5547"/><path fill="#50fcfc" fill-rule="evenodd" d="M160.00781 427.07031l-1.55078-4.4414.73047-4.4375-.22266-4.4375 2.78907-3.48438v10.0586l-1 2.30078 1 1.80468 3.48437-1.80468-3.48437-2.30079v-10.05859l4.4375.78516 3.83984 2.69922.59766.375 4.4375 1.4375 4.4414-.71875 4.4375.5039 4.4375-.14844 4.4375-.79296 2.3789-.65625 2.0625-1.27344 4.4375-.44922v3.25781l-4.4375.9414-4.4414.35548-3.3789 1.60547-1.0586 1.07812-4.4375-.69922-4.10937-.3789-.32813-.08594-.17578.08594-3.79297 4.4375-.0586 4.4414 4.02735 3.33203 4.10156-3.33203.33594-.26562.73828.26562 3.69922 3.6289 1.05078.8086 3.38672 2.14063 4.4414 1.20312 1.19532 1.09375 3.24219 2.78906 4.4375-.39843 4.4375-.84766 3.50781-1.54297.9336-.23437 4.4375-.23438 4.4375-.60937 3.0078-3.35938 1.4297-2.54687 2.375-1.89063-2.375-1.63281-3.77344 1.63281-.66406.25781-4.4375-.14453-.15625-.11328-4.28125-2.94531-1.1797-1.4961-3.26171-3.54687-3.57031-.89062-.8672-.375-4.4375-2.52735v-3.25781l2.67579 1.72266 1.76172.85156 4.4375 1.3164 4.01562 2.26954.42578.67187 4.4375.32813 3.22657 3.4375 1.21094.24609 4.08593-.2461.35156-.03515 4.4375-.27734 4.44141-1.19532 2.71875 1.50782-2.6875 4.4414h-.03125l-2.125 4.4375 2.125 1.48828 3.32813 2.94922 1.10937 1.16406 4.3789 3.27344-4.3789 2.3086-2.33203-2.3086-2.10547-2.03515-4.4414-.28125-4.4375-1.04297-4.4375 1.3164-4.4375 1.4375-4.4375-.36328-4.44141.55078-4.4375.03907-2.08203.3789-2.35547 2.75-3.38672-2.75-1.05078-.57422-4.4414-2.64062-4.4375-.14063-2.46095-1.08203-1.97656-1.67187-4.4375-1.48828-1.57812-1.27735-2.86328-.8125L170.6289 429l-4.4375-.90625-4.4375 2.75781-1.7461-3.78125m1.7461 26.48047l-1.47266-4.28906 1.03906-4.4414.4336-4.07423.5039 4.07422 2.22656 4.4414-2.73046 4.28907"/><path fill="#00e8fc" fill-rule="evenodd" d="M161.7539 424.4336l-1-1.8047 1-2.30077 3.48438 2.30078-3.48437 1.80468"/><path fill="#50fcfc" fill-rule="evenodd" d="M175.0664 450.14453l-.8125-.88281.8125-.85938 4.44141.70313.08985.15625-.08985.1875-4.4414.69531"/><path fill="#00e8fc" fill-rule="evenodd" d="M179.50781 430.40234l-4.02734-3.33203.0586-4.4414 3.79296-4.4375.17578-.08594.32813.08594 4.10937.3789v1.91016l-4.4375 1.03906-.98047 1.10938-.60937 4.4414 1.58984 1.3164 1.6211-1.3164 2.8164-2.23047 2.94922-2.21093-2.94922-2.14844v-1.91016l4.4375.69922 1.0586-1.07812 3.3789-1.60547v3.65234l-2.36719 2.39063-1.53906 4.4414 3.90625 3.65235 4.4414.53125 1.1211.2539 3.3164 2.85156 4.4375 1.21094 4.4375-1.3086 4.44142-.92187 4.4375-1.45312 3.80078-.3789-3.80078-.41407-4.4375-3.17969-.53907-.84375-3.48047-4.4414-.42187-.45704-4.4375-.78515-4.4375-.32422-4.4375.53906-4.4414-1.36328v-3.65234l4.4414-.35547 4.4375-.9414 4.4375 2.52734.86719.375 3.5703.89062 3.26173 3.54688 1.17969 1.49609 4.28125 2.94531.15625.11328 4.4375.14454.66406-.25782 3.77344-1.63281 2.375 1.63281-2.375 1.89063-1.4297 2.54687-3.0078 3.35938-4.4375.60937-4.4375.23438-.9336.23437-3.50781 1.54297-4.4375.84766-4.4375.39844-3.24219-2.78907-1.19531-1.09375-4.4414-1.20312-3.38673-2.14063-1.05078-.8086-3.69922-3.6289-.73828-.26562-.33594.26562-4.10156 3.33203"/><path fill="#50fcfc" fill-rule="evenodd" d="M179.50781 348.76172l-1.8789-1.58203 1.8789-2.51172 1.52344 2.51172-1.52344 1.58203"/><path fill="#00d4fc" fill-rule="evenodd" d="M179.50781 428.38672l-1.58984-1.3164.60937-4.44141.98047-1.10938 4.4375-1.03906v1.91015l-.69922.23829.69922.24609.32813-.2461-.32813-.23827v-1.91016l2.94922 2.14844-2.94922 2.21093-2.8164 2.23047-1.6211 1.3164"/><path fill="#00c4fc" fill-rule="evenodd" d="M183.94531 422.875l-.69922-.2461.69922-.23827.32813.23828-.32813.24609"/><path fill="#50fcfc" fill-rule="evenodd" d="M188.38281 334.10938l-.19531-.2461.19531-.23828 1.79297-4.19922 2.64453-2.66015 4.4414-1.61329.28907-.16796 4.14844-2.25391v3.66797l-4.4375 2.22265-1.48828.8047 1.48828 1.1875 2.53125 3.25 1.90625 1.2539 1.45703-1.2539.4414-4.4375-1.89843-3.02735v-3.66797l3.46094 2.2539.97656 2.88672 1.11719 1.5547-.82422 4.4375-.29297 1.0664-4.4375 2.82031-4.4375-.70703-4.4414-1.66797-4.4375-1.26563"/><path fill="#00d4fc" fill-rule="evenodd" d="M192.82031 430.72266l-3.90625-3.65235 1.53906-4.4414 2.3672-2.39063v3.28516l-2.26954 3.54687 2.26953 2.1211 4.4414.36718 4.4375-.47265L204 431.5078l2.13672 1.38281 4.4375-1.3164.42969-.0664.51562-4.4375-.94531-1.21485-4.4375-1.82813-4.4375 1.44141-4.4375-1.26953-4.4414-.67578v-3.28516l4.4414 1.36328 4.4375-.53906 4.4375.32422 4.4375.78515.42187.45704 3.48047 4.4414.53906.84375 4.4375 3.17969 3.80079.41406-3.80078.3789-4.4375 1.45313-4.44141.92188-4.4375 1.3086-4.4375-1.21094-3.3164-2.85157-1.1211-.2539-4.4414-.53125"/><path fill="#00c4fc" fill-rule="evenodd" d="M192.82031 429.1914l-2.26953-2.12109 2.26953-3.54687v2.55469l-.63281.99218.63281.58985 4.4414.20312 2.07032-.79297-2.07031-.91797-4.4414-.07421v-2.5547l4.4414.67579 4.4375 1.26953 4.4375-1.4414v2.1914l-1.85938.85156 1.85938 1.97266 1.60937-1.97266-1.60937-.85156v-2.1914l4.4375 1.82812.94531 1.21484-.51562 4.4375-.4297.0664-4.4375 1.31642L204 431.5078l-2.30078-2.42187-4.4375.47265-4.4414-.36718"/><path fill="#00b8fc" fill-rule="evenodd" d="M192.82031 427.66016l-.63281-.58985.63281-.99219 4.4414.07422 2.07032.91797-2.07031.79297-4.4414-.20312"/><path fill="#00e8fc" fill-rule="evenodd" d="M197.26172 330.61328l-1.48828-1.1875 1.48828-.80469 4.4375-2.22265 1.89844 3.02734-.44141 4.4375-1.45703 1.2539-1.90625-1.2539-2.53125-3.25"/><path fill="#50fcfc" fill-rule="evenodd" d="M201.69922 342.85156l-.13281-.11328.1328-.34375.23438.34375-.23437.11328"/><path fill="#00b8fc" fill-rule="evenodd" d="M206.13672 429.04297l-1.85938-1.97266 1.85938-.85156 1.60937.85156-1.60937 1.97266"/><path fill="#50fcfc" fill-rule="evenodd" d="M215.01563 327.33203l-2.16016-2.34765 2.16016-2.92188 1.89843 2.92188-1.89844 2.34765m53.25782 105.66016l-2.76172-1.48438 2.76172-1.51172 1.5625 1.51172-1.5625 1.48438m106.51953 18.21094l-1.52735-1.94141 1.52735-1.29297 1.30469 1.29297 3.13671 4.07812.41797.35938-.41796.6289-.63282-.6289-3.8086-2.4961m8.87892 19.78125l-2.58594-3.96875 2.07031-4.4414.51563-1.51953.59765 1.51953 1.98828 4.4414-2.58594 3.96875"/><g clip-path="url(#d)"><path fill="#fff" fill-opacity="0" fill-rule="evenodd" d="M467.9961 480.32813H468V311.67188h-.0039H468v168.65625h-.0039"/></g><path fill="#fff" fill-opacity="0" fill-rule="evenodd" d="M208.60547 419.5l4.23047 4.02734 6.8711-7.21484-4.23048-4.02734-6.8711 7.21484"/><path fill-rule="evenodd" d="M216.7461 416.02734l.36718.35157-4.33984 4.55859-.57031-.54297 3.09765-3.25-1.00781-.95703.38281-.40234.45313.33593.21875.13672.22656.09375.2461.03516.26952-.03125.3047-.11328.35155-.21485"/><g clip-path="url(#e)"><path fill="none" stroke="#000" stroke-linecap="round" stroke-linejoin="round" stroke-miterlimit="10" stroke-width=".5" d="M147.26953 481.61328l-6.53906-2.57031"/></g><g clip-path="url(#f)"><path fill="none" stroke="#000" stroke-linecap="round" stroke-linejoin="round" stroke-miterlimit="10" stroke-width=".5" d="M146.32031 481.23828l.13672 1.21875"/></g><g clip-path="url(#g)"><path fill="none" stroke="#000" stroke-linecap="round" stroke-linejoin="round" stroke-miterlimit="10" stroke-width=".5" d="M160.67969 481.34375l-6.73047-2.02734"/></g><g clip-path="url(#h)"><path fill="none" stroke="#000" stroke-linecap="round" stroke-linejoin="round" stroke-miterlimit="10" stroke-width=".5" d="M159.69922 481.04688l.23828 1.20312"/></g><g clip-path="url(#i)"><path fill="none" stroke="#000" stroke-linecap="round" stroke-linejoin="round" stroke-miterlimit="10" stroke-width=".5" d="M174.1211 480.73438l-6.98048-.8125"/></g><g clip-path="url(#j)"><path fill="none" stroke="#000" stroke-linecap="round" stroke-linejoin="round" stroke-miterlimit="10" stroke-width=".5" d="M174.1211 480.73438l.89062 2.28515"/></g><g clip-path="url(#k)"><path fill="none" stroke="#000" stroke-linecap="round" stroke-linejoin="round" stroke-miterlimit="10" stroke-width=".5" d="M187.44531 480.625l-7-.58984"/></g><g clip-path="url(#l)"><path fill="none" stroke="#000" stroke-linecap="round" stroke-linejoin="round" stroke-miterlimit="10" stroke-width=".5" d="M187.44531 480.625l.96875 2.2539"/></g><g clip-path="url(#m)"><path fill="none" stroke="#000" stroke-linecap="round" stroke-linejoin="round" stroke-miterlimit="10" stroke-width=".5" d="M200.65625 481.23438l-6.78906-1.8125"/></g><g clip-path="url(#n)"><path fill="none" stroke="#000" stroke-linecap="round" stroke-linejoin="round" stroke-miterlimit="10" stroke-width=".5" d="M200.65625 481.23438l.55469 2.39062"/></g><g clip-path="url(#o)"><path fill="none" stroke="#000" stroke-linecap="round" stroke-linejoin="round" stroke-miterlimit="10" stroke-width=".5" d="M214.04297 480.90234l-6.9336-1.14453"/></g><g clip-path="url(#p)"><path fill="none" stroke="#000" stroke-linecap="round" stroke-linejoin="round" stroke-miterlimit="10" stroke-width=".5" d="M214.04297 480.90234l.78125 2.32422"/></g><g clip-path="url(#q)"><path fill="none" stroke="#000" stroke-linecap="round" stroke-linejoin="round" stroke-miterlimit="10" stroke-width=".5" d="M213.03516 480.73438l.39062 1.16406"/></g><g clip-path="url(#r)"><path fill="none" stroke="#000" stroke-linecap="round" stroke-linejoin="round" stroke-miterlimit="10" stroke-width=".5" d="M227.36328 479.78906l-6.94531 1.08203"/></g><g clip-path="url(#s)"><path fill="none" stroke="#000" stroke-linecap="round" stroke-linejoin="round" stroke-miterlimit="10" stroke-width=".5" d="M227.36328 479.78906l1.47266 1.96094"/></g><g clip-path="url(#t)"><path fill="none" stroke="#000" stroke-linecap="round" stroke-linejoin="round" stroke-miterlimit="10" stroke-width=".5" d="M240.63672 479.57813l-6.86328 1.5"/></g><g clip-path="url(#u)"><path fill="none" stroke="#000" stroke-linecap="round" stroke-linejoin="round" stroke-miterlimit="10" stroke-width=".5" d="M240.63672 479.57813l1.58984 1.87109"/></g><g clip-path="url(#v)"><path fill="none" stroke="#000" stroke-linecap="round" stroke-linejoin="round" stroke-miterlimit="10" stroke-width=".5" d="M253.96094 479.6211l-6.88281 1.41406"/></g><g clip-path="url(#w)"><path fill="none" stroke="#000" stroke-linecap="round" stroke-linejoin="round" stroke-miterlimit="10" stroke-width=".5" d="M253.96094 479.6211l1.5664 1.89062"/></g><g clip-path="url(#x)"><path fill="none" stroke="#000" stroke-linecap="round" stroke-linejoin="round" stroke-miterlimit="10" stroke-width=".5" d="M267.21875 479.3789l-6.76563 1.89844"/></g><g clip-path="url(#y)"><path fill="none" stroke="#000" stroke-linecap="round" stroke-linejoin="round" stroke-miterlimit="10" stroke-width=".5" d="M266.23438 479.65625l.84765.88672"/></g><g clip-path="url(#z)"><path fill="none" stroke="#000" stroke-linecap="round" stroke-linejoin="round" stroke-miterlimit="10" stroke-width=".5" d="M280.53125 479.36328l-6.75781 1.92969"/></g><g clip-path="url(#A)"><path fill="none" stroke="#000" stroke-linecap="round" stroke-linejoin="round" stroke-miterlimit="10" stroke-width=".5" d="M279.54688 479.64453l.85156.88281"/></g><g clip-path="url(#B)"><path fill="none" stroke="#000" stroke-linecap="round" stroke-linejoin="round" stroke-miterlimit="10" stroke-width=".5" d="M293.80469 479.23438l-6.67969 2.1875"/></g><g clip-path="url(#C)"><path fill="none" stroke="#000" stroke-linecap="round" stroke-linejoin="round" stroke-miterlimit="10" stroke-width=".5" d="M292.83203 479.55469l.88672.84765"/></g><g clip-path="url(#D)"><path fill="none" stroke="#000" stroke-linecap="round" stroke-linejoin="round" stroke-miterlimit="10" stroke-width=".5" d="M307.0625 479.07422l-6.5625 2.51172"/></g><g clip-path="url(#E)"><path fill="none" stroke="#000" stroke-linecap="round" stroke-linejoin="round" stroke-miterlimit="10" stroke-width=".5" d="M306.10547 479.4375l.92578.80469"/></g><g clip-path="url(#F)"><path fill="none" stroke="#000" stroke-linecap="round" stroke-linejoin="round" stroke-miterlimit="10" stroke-width=".5" d="M320.22656 478.73047l-6.26172 3.19531"/></g><g clip-path="url(#G)"><path fill="none" stroke="#000" stroke-linecap="round" stroke-linejoin="round" stroke-miterlimit="10" stroke-width=".5" d="M319.3164 479.19531l1.00391.70313"/></g><g clip-path="url(#H)"><path fill="none" stroke="#000" stroke-linecap="round" stroke-linejoin="round" stroke-miterlimit="10" stroke-width=".5" d="M333.15234 478.1289l-5.48046 4.39844"/></g><path fill="none" stroke="#000" stroke-linecap="round" stroke-linejoin="round" stroke-miterlimit="10" stroke-width=".5" d="M332.35547 478.76953l1.125.48438"/><g clip-path="url(#I)"><path fill="none" stroke="#000" stroke-linecap="round" stroke-linejoin="round" stroke-miterlimit="10" stroke-width=".5" d="M346.51563 478.19531l-5.57813 4.26953"/></g><path fill="none" stroke="#000" stroke-linecap="round" stroke-linejoin="round" stroke-miterlimit="10" stroke-width=".5" d="M345.70313 478.8164l1.11718.50782"/><g clip-path="url(#J)"><path fill="none" stroke="#000" stroke-linecap="round" stroke-linejoin="round" stroke-miterlimit="10" stroke-width=".5" d="M359.91797 478.3125l-5.7539 4.03125"/></g><path fill="none" stroke="#000" stroke-linecap="round" stroke-linejoin="round" stroke-miterlimit="10" stroke-width=".5" d="M359.08203 478.89844l1.09375.5586"/><g clip-path="url(#K)"><path fill="none" stroke="#000" stroke-linecap="round" stroke-linejoin="round" stroke-miterlimit="10" stroke-width=".5" d="M373.01563 478.03125l-5.31641 4.59375"/></g><path fill="none" stroke="#000" stroke-linecap="round" stroke-linejoin="round" stroke-miterlimit="10" stroke-width=".5" d="M372.24219 478.69922l1.14453.44531"/><g clip-path="url(#L)"><path fill="none" stroke="#000" stroke-linecap="round" stroke-linejoin="round" stroke-miterlimit="10" stroke-width=".5" d="M387.13281 480.9336l-6.92187-1.20704"/></g><g clip-path="url(#M)"><path fill="none" stroke="#000" stroke-linecap="round" stroke-linejoin="round" stroke-miterlimit="10" stroke-width=".5" d="M386.125 480.75781l.38281 1.16406"/></g><g clip-path="url(#N)"><path fill="none" stroke="#000" stroke-linecap="round" stroke-linejoin="round" stroke-miterlimit="10" stroke-width=".5" d="M397.0586 476.8164l-.14454 7.02344"/></g><path fill="none" stroke="#000" stroke-linecap="round" stroke-linejoin="round" stroke-miterlimit="10" stroke-width=".5" d="M397.03906 477.83984l1.09375-.55468"/><g clip-path="url(#O)"><path fill="none" stroke="#000" stroke-linecap="round" stroke-linejoin="round" stroke-miterlimit="10" stroke-width=".5" d="M411.88281 477.1914l-3.16015 6.27735"/></g><path fill="none" stroke="#000" stroke-linecap="round" stroke-linejoin="round" stroke-miterlimit="10" stroke-width=".5" d="M411.42188 478.10547l1.22656-.02735"/><g clip-path="url(#P)"><path fill="none" stroke="#000" stroke-linecap="round" stroke-linejoin="round" stroke-miterlimit="10" stroke-width=".5" d="M424.25781 476.875l-1.28515 6.90625"/></g><path fill="none" stroke="#000" stroke-linecap="round" stroke-linejoin="round" stroke-miterlimit="10" stroke-width=".5" d="M424.07422 477.8789l1.16797-.36718"/><g clip-path="url(#Q)"><path fill="none" stroke="#000" stroke-linecap="round" stroke-linejoin="round" stroke-miterlimit="10" stroke-width=".5" d="M437.5586 476.8711l-1.25391 6.91406"/></g><path fill="none" stroke="#000" stroke-linecap="round" stroke-linejoin="round" stroke-miterlimit="10" stroke-width=".5" d="M437.3789 477.8789l1.16798-.375"/><g clip-path="url(#R)"><path fill="none" stroke="#000" stroke-linecap="round" stroke-linejoin="round" stroke-miterlimit="10" stroke-width=".5" d="M451.00781 476.89844l-1.52344 6.85937"/></g><path fill="none" stroke="#000" stroke-linecap="round" stroke-linejoin="round" stroke-miterlimit="10" stroke-width=".5" d="M450.78516 477.89844l1.18359-.32813"/><g clip-path="url(#S)"><path fill="none" stroke="#000" stroke-linecap="round" stroke-linejoin="round" stroke-miterlimit="10" stroke-width=".5" d="M465.58594 477.45703l-4.04688 5.7461"/></g><path fill="none" stroke="#000" stroke-linecap="round" stroke-linejoin="round" stroke-miterlimit="10" stroke-width=".5" d="M464.9961 478.29297l1.21874.15234"/><g clip-path="url(#T)"><path fill="none" stroke="#000" stroke-linecap="round" stroke-linejoin="round" stroke-miterlimit="10" stroke-width=".5" d="M147.33984 468.09766l-6.67968-2.16797"/></g><path fill="none" stroke="#000" stroke-linecap="round" stroke-linejoin="round" stroke-miterlimit="10" stroke-width=".5" d="M147.33984 468.09766l.4297 2.41797m12.94921-2.63672l-6.8086-1.73047m6.8086 1.73047l.58594 2.3828m-1.57422-2.63671l.28906 1.1914m14.11719-1.57421l-7.01172-.45703m7.01172.45703l1.00781 2.23437m-2.02734-2.30078l.5039 1.11719m13.82422-1.58203l-7 .60547m7-.60547l1.33594 2.0586m-2.35547-1.97266l.66797 1.03125m13.66016-.45704l-6.98828-.71484m6.98828.71484l.92968 2.26953m-1.9453-2.375l.46483 1.13672m13.88672-1.33984l-7.02734-.09766m7.02734.09766l1.1211 2.17969m-2.14453-2.19531l.5625 1.08984m13.71875-1.75781l-6.91407 1.26953m6.91407-1.26953l1.52343 1.92187m-2.53125-1.73828l.76172.96484m13.45703-1.55859l-6.70703 2.08984m6.70703-2.08984l1.7461 1.72656m-2.71875-1.42187l.8711.86328m13.37108-1.30469l-6.61718 2.36328m6.61719-2.36328l1.8164 1.65234m-2.77734-1.30859l.90625.82422m13.24219-1.48438l-6.35938 2.9961m6.35938-2.9961l1.96484 1.46875m10.9961-2.05468l-5.65235 4.16797m5.65234-4.16797l2.21485 1.0586m10.6914-1.52345l-4.83203 5.09766m4.83203-5.09766l2.36328.65235m10.96875-.63672l-4.86718 5.0664m4.86718-5.0664l2.35938.66797M318.89844 464l-3.60547 6.03125m3.08203-5.15625l1.22266.0625m12.54296-.98047l-3.46093 6.11328m2.95703-5.22656l1.22656.03516m12.32031-1.0625l-2.91406 6.39453m2.48828-5.46485l1.22656-.07422m12.14844-.99609l-2.1836 6.67578m1.8672-5.70703l1.20703-.20703m14.02343.3164l-5.3828 4.51954m4.60155-3.86328l1.13672.46093m13.75782.71094l-6.97657.86328m16.53907-3.9336l.52734 7.00391m14.82422-6.53515l-3.54688 6.0664m3.03125-5.18359l1.22657.04688m11.65625-1.3125l-1.65235 6.83203m1.41406-5.83594l1.1875-.30469m14.23438.46875l-5.39063 4.51172m4.60938-3.85547l1.13672.46485m12.02734-1.90625l-3.52344 6.08203m3.01172-5.19532l1.22657.04297m12.57812-.9414l-3.47656 6.10547m2.96875-5.21875l1.22656.03515"/><g clip-path="url(#U)"><path fill="none" stroke="#000" stroke-linecap="round" stroke-linejoin="round" stroke-miterlimit="10" stroke-width=".5" d="M147.32031 454.85156l-6.64062-2.30469"/></g><path fill="none" stroke="#000" stroke-linecap="round" stroke-linejoin="round" stroke-miterlimit="10" stroke-width=".5" d="M147.32031 454.85156l.375 2.42578m-1.34375-2.76172l.1914 1.21094m14.13673-1.01172l-6.72656-2.03125m6.72656 2.03125l.47656 2.40625m-1.45703-2.70312l.23828 1.20312m14.1289-1.1953l-6.875-1.45704m6.875 1.45703l.6797 2.35938m-1.6797-2.57032l.33985 1.1797m14.04297-1.44141l-7.00781-.50782m7.0078.50781l.9922 2.2461m12.33203-2.46485l-7.02735-.07421m7.02735.07422l1.1289 2.17968m12.1836-2.0625l-7.01953-.30469m7.01953.3047l1.05469 2.21484m12.26171-2.31641l-7.02343-.10156m7.02343.10156l1.1211 2.17969m12.16406-2.70313l-6.96484.94531m6.96484-.9453l1.4336 1.98827m11.70702-2.70312l-6.61328 2.375m6.61328-2.375l1.81641 1.64844m11.48047-1.69141l-6.57813 2.46094m6.57813-2.46094l1.83984 1.625m11.32813-1.96484l-6.28516 3.14062m6.28516-3.14062l2 1.42187m11.375-1.30078l-6.40235 2.89453m6.40235-2.89453l1.9414 1.5m11.35547-1.53906l-6.36718 2.97656m5.4375-2.54688l.98437.73829m12.77344-1.9336l-5.39453 4.50782m4.60937-3.85157l1.13672.46094m13.26563-.6914l-6 3.65624m5.1289-3.125l1.05469.625m13.2539-.9414l-6.24218 3.22656m5.33203-2.75781l1.01172.69922m11.3125-2.85157l-2.4414 6.58985m2.08593-5.6289l1.21484-.16407m13.78907.08984l-5.10938 4.82032m4.36719-4.1211l1.16406.39453m13.32031-.54297l-5.96093 3.71875m5.09375-3.17968l1.0625.61718m12.10546-2.20703l-3.93359 5.82032m18.69531-2.07032l-6.82422-1.67968m5.82813 1.43359l.30078 1.1914m13.8125-.36718l-6.42969-2.83985m5.4922 2.4297l.08983 1.22265m13.89063-4.14844l-5.88672 3.83594m5.03125-3.27735l1.07422.59375m12.02344-2.21093l-3.73828 5.94922m3.1914-5.08204l1.22656.08594m12.6211-.96094l-3.71485 5.96485m3.17579-5.09375l1.22265.08203"/><g clip-path="url(#V)"><path fill="none" stroke="#000" stroke-linecap="round" stroke-linejoin="round" stroke-miterlimit="10" stroke-width=".5" d="M147.26953 441.67578l-6.53906-2.58203"/></g><path fill="none" stroke="#000" stroke-linecap="round" stroke-linejoin="round" stroke-miterlimit="10" stroke-width=".5" d="M147.26953 441.67578l.27344 2.4375m13.04687-2.45703l-6.55078-2.54688m6.55078 2.54688l.28907 2.4375m12.98437-2.33594l-6.46875-2.7461m6.46875 2.7461l.21484 2.4414m13.13672-2.53124l-6.53906-2.5664m6.53906 2.5664l.28125 2.4375m13.1172-2.67578l-6.70704-2.09375m6.70703 2.09375l.45313 2.41406m13.02343-3.51172l-7.02734.10547m7.02734-.10547l1.1836 2.14844m12.09375-2.60156l-6.95313 1.0078m6.95313-1.0078l1.44922 1.98046m11.5703-2.96875l-6.36327 2.98438m6.36328-2.98438l1.96094 1.47266m9.13672-3.35937l-1.92579 6.7578m1.92578-6.7578l2.39844-.51563m11.76953.88672l-3.6328 6.01562m3.6328-6.01562l2.44922.13281m11-.04687l-3.89844 5.84765m3.89844-5.84765l2.4414.24218m10.14845-.61328l-2.45313 6.58594m2.45313-6.58594l2.43359-.3203m11.61719.69921l-3.92578 5.82812m3.92578-5.82812l2.4414.25781m-3.01171.58985l1.22265.1289m13.41797-.28906l-5.4336 4.45312m5.4336-4.45312l2.26563.94531m11.27734-.63672l-5.88672 3.83594m5.88672-3.83594l2.14844 1.1875m10.78906-1.66797l-5.13281 4.80079m5.1328-4.80078l2.32032.79296m8.9414-1.87109l-1.02734 6.95313m.87891-5.94141l1.15234-.41016m14.61329.77735l-5.63282 4.19921m4.8125-3.58984l1.10938.52344m10.875 4.41406l-1.32813-6.89844m1.13281 5.89453l-.95312.77344m16.51563-.99219l-5.4336-4.45312m4.64453 3.80469l-.24219 1.20312m9.39844-.0664l4.46094-5.4297m-3.8125 4.64063l-1.20313-.24218m19.54688-2.375l-6.89063 1.38671m6.89063-1.38671l1.55469 1.89453m11.34765-2.97657l-6.0664 3.55079m6.0664-3.55079l2.08594 1.28516M452.5 437.6875l-4.50781 5.39062M452.5 437.6875l2.40234.5039m9.95313-1.07421l-2.58985 6.53125m2.21485-5.58203l1.21875-.13672"/><g clip-path="url(#W)"><path fill="none" stroke="#000" stroke-linecap="round" stroke-linejoin="round" stroke-miterlimit="10" stroke-width=".5" d="M146.17969 429.82422l-4.35938-5.51172"/></g><path fill="none" stroke="#000" stroke-linecap="round" stroke-linejoin="round" stroke-miterlimit="10" stroke-width=".5" d="M145.54688 429.02344l-.4922 1.1211m14.09376-.07813l-3.66797-5.9922m3.13672 5.1172l-.625 1.05859m15.09375-.67188l-4.91406-5.01953m4.19921 4.28907L172 430.01953m14.69922-.76562l-5.50781-4.3672m19.55859 2.58595l-6.98047-.8086m5.96484.6914l.44922 1.14063m13.77735-2.36328l-6.77344 1.8711m5.78906-1.59766l.84375.89062m11.48438-3.4453l-2.82813 6.43359m2.41406-5.4961l1.22657-.09375m14.375 1.125l-6.57031 2.4961m5.61328-2.13282l.92187.8086m12.6836-2.26563l-5.2422 4.6836m4.48048-4l1.15234.42187m12.36328-1.61328l-4.11719 5.69922m3.51563-4.86719l1.21484.16406m13.98438.76563l-6.6836 2.17578m5.71094-1.85938l.88281.85157m12.97266-2.04688l-5.82031 3.9336m4.97656-3.36329l1.08203.57813m12.22656-2.02734l-4.11718 5.6914m3.51953-4.86328l1.21484.16797m12.11719-1.33594l-2.95703 6.3711m2.95703-6.3711l2.44922-.13672m11.53906.54297l-4.30469 5.5586m4.30469-5.5586l2.41797.41797m10.96094-.36328l-4.4336 5.44922m4.4336-5.44922l2.41015.47266m-3.05468.3203l1.20312.23438m13.28516-.49609l-5.48828 4.38672m5.48828-4.38672l2.2539.97266m10.82032-1.2461l-5.00782 4.9336m4.27735-4.21485l1.17187.36719m10.4961-2.1289l-.25 7.01952m.25-7.01953l2.20703-1.07422m-2.2422 2.09375l1.10157-.53515m14.89063.86328l-5.53516 4.32422m4.73047-3.69531l1.1211.5m11.80077-2.10938l-3.14062 6.28516m3.14062-6.28516l2.45313-.0625m11.21484.26172l-3.84375 5.88672m3.84375-5.88672l2.4414.22266m-3 .63671l1.21876.10938m12.6914-.9414l-3.91796 5.83202m3.91797-5.83203l2.4414.25M438.32031 425l1.21875.125m11.70703-1.42578l-2 6.73828m2-6.73828l2.40625-.48438m10.28125.35938l-.74609 6.98828m.7461-6.98828l2.27734-.91406"/><g clip-path="url(#X)"><path fill="none" stroke="#000" stroke-linecap="round" stroke-linejoin="round" stroke-miterlimit="10" stroke-width=".5" d="M146.95313 415.66016l-5.90625-3.8125"/></g><path fill="none" stroke="#000" stroke-linecap="round" stroke-linejoin="round" stroke-miterlimit="10" stroke-width=".5" d="M146.09375 415.10547l-.10547 1.22265m9.57813.47266l3.49609-6.09375m-2.98828 5.20703l-1.22656-.03906m16.80468-2.1211l-.01953-.19921-.0586-.1914-.09374-.1797-.46094-.375-.1914-.05859-.19922-.01953-.19922.01953-.1914.0586-.45704.375-.09375.17968-.0586.1914-.01952.19923.01953.19921.05859.19141.09375.17578.45703.3789.1914.0586.19923.01953.19922-.01953.1914-.0586.46094-.3789.09375-.17578.0586-.1914.01952-.19922m15.56641 1.27734l-6.54688-2.55469m5.59375 2.17969l.14454 1.21875m14.35937-1.91797l-7.01562-.41016m5.99218.35157l.51172 1.11718m13.2461-3.20312l-5.85547 3.88281m5.0039-3.32031l1.07813.58594m13.66406.52734l-7.00781.53125m5.98828-.45703l.65625 1.03906m13.6289-.21094L233.75 413.1172m6.91016 1.27343l.74218 2.33985m12.50782-3.89844l-6.78125 1.83984m5.79687-1.5703l.83984.89452m13.5-1.0078l-6.85937 1.53124m5.85938-1.3086l.80078.9297m13.37109-1.63282L273.86719 415m6.57031-2.49219l1.84375 1.61719m11.14844-2.25781L287.5 415.64062m5.92969-3.77343l2.13672 1.21093m11.15625-1.24218l-5.88672 3.83593m5.88672-3.83593l2.14843 1.1836m11.27735-1.00392l-6.10547 3.47657m6.10547-3.47657l2.07422 1.3125m10.57812-2.14843l-4.78125 5.14843m4.78125-5.14843l2.3711.6289m10.16406-1.17968l-3.21875 6.25m3.21875-6.25l2.45312-.03125m10.4336-.15235l-2.36329 6.61719m2.36329-6.61719l2.42578-.35937m11.6875.76562l-3.95703 5.80469m3.95703-5.80469l2.4375.26563m-3.01563.57812l1.22266.13281m13.11719-.61718l-4.85157 5.08203m4.85157-5.08203l2.36328.66406m-3.07031.07812l1.18359.32813m12.63672-1.2461l-4.44922 5.4375m4.44922-5.4375l2.40625.47657m-3.05469.3125l1.20313.24219m12.46093-1.25391l-3.85156 5.8789m3.85156-5.8789l2.4414.22656m9.9961-.64062l-2.09765 6.70703m2.09765-6.70703l2.41406-.44922m-2.71875 1.42578l1.20704-.22656m12.79296-.60547l-2.85546 6.42187m2.85546-6.42187l2.44532-.17188m10.27734-.03125l-1.66797 6.82813m1.66797-6.82813l2.375-.60547m10.55078.53516l-.89062 6.96875m.89062-6.96875l2.29297-.8711"/><g clip-path="url(#Y)"><path fill="none" stroke="#000" stroke-linecap="round" stroke-linejoin="round" stroke-miterlimit="10" stroke-width=".5" d="M144.80078 403.85938l-1.60156-6.84375"/></g><g clip-path="url(#Z)"><path fill="none" stroke="#000" stroke-linecap="round" stroke-linejoin="round" stroke-miterlimit="10" stroke-width=".5" d="M144.5664 402.86328l-.92187.8086"/></g><path fill="none" stroke="#000" stroke-linecap="round" stroke-linejoin="round" stroke-miterlimit="10" stroke-width=".5" d="M156.89063 403.92578l.84765-6.97656m-.72656 5.96094l-1.14453.4414m15.4961.52344l-1.46485-6.8711m1.25 5.8711l-.9375.78906m16.8164-1.54297l-6.16406-3.36718m5.26953 2.8789l-.01562 1.22656m14.39844-3.74609l-6.50782 2.65235m5.5586-2.26563l.9414.78516m11.29297 3.4453l-2.44922-6.58593m2.08985 5.6289l-.8125.91798m16.77343-3.1836l-7.02343-.13672m7.02343.13672l1.10938 2.1875m12.16016-1.6875l-6.9336-1.14062m6.9336 1.14062l.78515 2.32422m12.54688-3.36328l-6.96485.9414m6.96485-.9414l1.42968 1.99219m11.69532-2.7461l-6.58594 2.44532m6.58594-2.44532l1.83593 1.63282m11.2422-2.14063l-6.11329 3.46485m6.11328-3.46485l2.07031 1.3164m10.96485-1.73827l-5.55078 4.30859m5.55078-4.3086l2.23828 1.00391m11.0664-1.01562l-5.53515 4.32812m5.53516-4.32812l2.24218.9961m11.3125-.65235l-6.01172 3.64062m6.01172-3.64062l2.10547 1.25781m10.54688-2.05469l-4.6875 5.23438m4.6875-5.23438l2.3828.58594m10.4961-.92188l-3.8125 5.90625m3.8125-5.90625l2.44532.21094m11.15234-.0039l-4.3789 5.49218m4.3789-5.49218l2.41406.44921m10.8711-.47265l-4.31641 5.54297m4.3164-5.54297l2.41797.42187m-3.04687.38282l1.20703.21093m12.35547-1.27734l-3.55469 6.0625m3.55469-6.0625l2.44922.10156m-2.96875.78125l2.45312.10156m11.6836-.78515l-4.16016 5.66406m4.16016-5.66406l2.42578.35547m-3.03125.46875l1.21484.17969m12.73438-.98047L408.1914 403.25m4.21875-5.6211l2.42187.37891m10.40235-.6875L422 403.5586m3.23438-6.23828l2.45312-.02734m-2.92578.9336l1.22656-.01173m12.76953-.77734l-3.65234 6.0039m3.65234-6.0039l2.44922.14063m10.07422-.4961l-2.0664 6.71485m2.0664-6.71485l2.40625-.46484m11.71875.83203l-3.6914 5.98047"/><g clip-path="url(#aa)"><path fill="none" stroke="#000" stroke-linecap="round" stroke-linejoin="round" stroke-miterlimit="10" stroke-width=".5" d="M465.40625 397.44922l2.44922.15625"/></g><g clip-path="url(#ab)"><path fill="none" stroke="#000" stroke-linecap="round" stroke-linejoin="round" stroke-miterlimit="10" stroke-width=".5" d="M141.39063 389.47266l5.22265-4.69922"/></g><path fill="none" stroke="#000" stroke-linecap="round" stroke-linejoin="round" stroke-miterlimit="10" stroke-width=".5" d="M156.1836 390.44922l2.26562-6.65235m-1.9375 5.6836l-1.21094.19531m16.20313.85156l-1.7461-6.80859m1.49219 5.8164l-.90625.82813m17.09766-3.57031l-6.9922.66015m5.97657-.5625l.67578 1.02344m10.1875 2.72266l-.0586-7.02735m.05079 6.00391l-1.07813.58594m17.51563-1.5039l-6.28516-3.14454m6.28516 3.14453l.0625 2.45313m-.97656-2.91016l.03125 1.22656m14.4375-1.39453l-6.76563-1.89453m6.76563 1.89453l.52734 2.39453m12.83984-4.07421l-6.87109 1.46484m6.8711-1.46485l1.57812 1.87891m11.48047-2.64453l-6.35547 2.9961m6.35547-2.9961l1.96484 1.46875m-2.89062-1.03125l.98437.73438m13.13281-1.41016l-6.10937 3.47265m6.10938-3.47265l2.0703 1.3125M266 385.89062l1.03906.65625m13.17188-1.15234l-6.11719 3.45703m6.11719-3.45703l2.0664 1.32031m-2.95703-.8164l1.03516.66015m13.25781-.99609l-6.29687 3.1211m6.29687-3.1211l1.9961 1.42969m-2.91016-.97656l.9961.71484m13.16405-1.30078l-6.15625 3.39062m6.15625-3.39062l2.0547 1.33984m-2.95313-.84765l1.02734.67187m13.22656-1.08984l-6.23828 3.23828m6.23828-3.23828l2.01953 1.39062m-2.92968-.91797l1.01172.69531m13.07812-1.40625l-5.96484 3.71485m5.96484-3.71485l2.1211 1.23047m-2.98829-.6875l1.0586.61329m13.08593-1.21094l-5.89453 3.82422m5.89453-3.82422l2.14844 1.1875m-3.0039-.63281l1.0703.59765m13.17579-1.03125l-6.04297 3.58203m6.04297-3.58203l2.09766 1.27344m-2.97657-.7539l2.09766 1.27734m11.91016-2.08204l-5.66797 4.15235m5.66797-4.15235l2.20703 1.06641m-3.03125-.46094l2.20703 1.06641m11.6211-2.03906l-5.04688 4.88672m5.04687-4.88672l2.33594.7539m-3.07031-.04296l2.33593.7539m11.51563-1.65625l-4.65234 5.26953m4.65234-5.26953l2.38672.57031m-3.0664.19532l2.38671.5703m11.28516-1.58593l-4.00782 5.76953m4.00782-5.76953l2.4375.28906m-3.01953.55079l1.21875.14453m12.46093-1.125l-3.57422 6.05078m3.57422-6.05078l2.45313.10937m10.95312-.05469l-3.7539 5.94141m3.7539-5.9414l2.44532.18359m9.6953-.65625l-1.40624 6.88672m1.40625-6.88672l2.35156-.69531m12.58594 1.5039l-4.64844 5.26953"/><g clip-path="url(#ac)"><path fill="none" stroke="#000" stroke-linecap="round" stroke-linejoin="round" stroke-miterlimit="10" stroke-width=".5" d="M465.88672 384.48828l2.38672.57031"/></g><g clip-path="url(#ad)"><path fill="none" stroke="#000" stroke-linecap="round" stroke-linejoin="round" stroke-miterlimit="10" stroke-width=".5" d="M141.8711 376.60156l4.2578-5.58984"/></g><path fill="none" stroke="#000" stroke-linecap="round" stroke-linejoin="round" stroke-miterlimit="10" stroke-width=".5" d="M157.23438 377.32031l.16015-7.02344m-.16016 7.02344l-2.1914 1.10156m17.46484-1.64453l-3.7539-5.9414m3.20703 5.07812l-.60938 1.0664m15.34375-.98437l-5.5-4.375m4.69922 3.73829l-.22266 1.20703m15.08985-2.46485l-7.0039-.58594m7.0039.58594l.96875 2.2539m12.22266-1.58202l-6.75782-1.92969m6.75781 1.92969l.51172 2.39844m-1.49609-2.6797l.25781 1.19923m14.17578-1.92188l-7.02343.07813m7.02343-.07813l1.17578 2.15235m-2.1953-2.14063l.58593 1.07813m13.6914-1.69532l-6.91015 1.28906m6.91016-1.28906l1.52734 1.92188m-2.53125-1.73438l.76172.96094m13.45312-1.5625l-6.69922 2.11719m6.69922-2.11719l1.75 1.71484m-2.72656-1.41015l.8789.85937m13.4375-1.07812l-6.7539 1.9414m6.7539-1.9414l1.70704 1.76562m-2.6875-1.48047l1.70312 1.76172m12.44922-2.45312l-6.46484 2.7539m6.46484-2.7539l1.91016 1.54297m-2.85156-1.14063l1.91015 1.54297m12.19532-2.25781L287.38672 375.5m6.16016-3.38281l2.05078 1.34765m-2.94922-.85546l2.05469 1.34375m12.0625-1.9961l-5.97266 3.70313m5.97266-3.70313l2.12109 1.23438m-2.98828-.69532l2.1211 1.23438m11.91796-1.99219l-5.67969 4.13672m5.67969-4.13672l2.20313 1.07422m-3.03125-.47266l2.20703 1.07422m12.08593-1.44922l-5.98046 3.6875m5.98046-3.6875l2.1172 1.23829m-2.98829-.70313l2.11719 1.24219m12.375-1.14844l-6.59375 2.42969m6.59375-2.42969l1.82812 1.63281m-2.78906-1.28125l1.83203 1.63672M360.25 372.375l-6.41797 2.86719M360.25 372.375l1.9336 1.50781m-2.8672-1.08984l1.9336 1.50781m12.07813-2.36719l-5.94532 3.75m5.94532-3.75l2.1289 1.21875m-2.99219-.67187l2.12891 1.21484m11.85547-2.03906l-5.55469 4.30469m5.55469-4.30469l2.23437 1.0039m-3.04296-.3789l2.23828 1.0039m12.01953-1.4414l-5.82422 3.92969m5.82422-3.92969L402.0664 373m-3.01563-.58203l2.16797 1.15234m11.8711-1.89844l-5.57813 4.27344m5.57812-4.27344l2.23438 1.02344m-3.04297-.40234l1.11328.51172m13.00781-1.14063l-5.5703 4.28516m5.5703-4.28516l2.23438 1.01563m-3.04688-.39063l1.1172.50781m12.9375-1.22265l-5.42579 4.46875m5.42578-4.46875l2.26563.9414m-3.0547-.28906l1.13282.46875m12.7539-1.36328l-4.98827 4.94922m4.98828-4.94922l2.34375.73047m10.88281-.8164l-4.8125 5.125m4.10938-4.37891l1.18359.32031"/><g clip-path="url(#ae)"><path fill="none" stroke="#000" stroke-linecap="round" stroke-linejoin="round" stroke-miterlimit="10" stroke-width=".5" d="M140.92578 362.1914l6.14844-3.39843"/></g><path fill="none" stroke="#000" stroke-linecap="round" stroke-linejoin="round" stroke-miterlimit="10" stroke-width=".5" d="M156.75 363.96094l1.1289-6.9336m-1.1289 6.9336l-2.32422.78906m2.48828-1.79688l-1.16015.39454m17.78515-.88282l-5.8164-3.9453m4.96875 3.37108l-.13282 1.22266m13.57422.1289l-4.375-5.49609m4.375 5.4961l-.97656 2.25m.33984-3.05078l-.48828 1.125m13.91016.02734l-3.3125-6.19922m3.3125 6.19922l-1.3711 2.03516m.88672-2.9375l-.68359 1.01562m15.8789-1.47265l-6.10546-3.48047m6.10547 3.48046l-.07422 2.45313m-.8164-2.96094l-.03517 1.22656m14.69922-2.54687l-7.02343.17578m7.02343-.17578l1.20703 2.13672m-2.23046-2.11328l1.20703 2.13672m13.0586-2.79688l-6.87892 1.44922m6.87891-1.44922l1.57422 1.88281m-2.57422-1.67187l1.57031 1.88281m12.69922-2.27734l-6.78906 1.8125m6.78906-1.8125l1.67188 1.79687m-2.66016-1.53125l1.67188 1.79297m12.55859-2.30078l-6.64063 2.29688m6.64063-2.29688l1.79688 1.67188m-2.76172-1.33594l1.79687 1.66797m12.39063-2.2422l-6.45703 2.77735m6.45703-2.77734l1.91406 1.53125m-2.85547-1.1289l1.91797 1.53515m12.22656-2.17578l-6.23047 3.25m6.23047-3.25l2.02344 1.38672m-2.92969-.91407l2.02344 1.38672M306.96094 359l-6.35938 2.98828M306.96094 359l1.96484 1.46875m-2.89062-1.03516L308 360.90625M320.27734 359l-6.36328 2.98828M320.27734 359l1.96094 1.47266m-2.88672-1.03907l1.96094 1.47266m12.17578-2.10938l-6.15625 3.39063m6.15625-3.39063l2.05469 1.34375m-2.94922-.84765l2.05469 1.33984m12.17187-1.80469l-6.1875 3.32813m6.1875-3.32813l2.03906 1.36329m-2.9375-.87891l1.01954.6836m13.34765-.83985l-6.4961 2.67578m6.4961-2.67578l1.89063 1.5625m-2.83594-1.17578l1.89062 1.5664m12.45704-1.72265l-6.67188 2.21094m6.67188-2.21094l1.77343 1.69531m-2.74218-1.3711l1.77343 1.69141m11.9961-3l-5.64453 4.1836m5.64453-4.1836l2.21875 1.0547m-3.03907-.44923l2.21485 1.05469m11.9336-1.64844l-5.66798 4.15625m5.66797-4.15625l2.21094 1.0664m-3.03516-.46093l2.21094 1.0664m12.08594-1.43359l-5.98438 3.6797m5.98438-3.6797l2.11719 1.2422m-2.98829-.70704l2.1172 1.24219m12.17968-1.58594l-6.20313 3.29688m6.20313-3.29688l2.03516 1.3711m-2.9375-.89063l2.03515 1.3711m12.15625-1.90235l-6.15234 3.39844m6.15234-3.39844l2.05469 1.33984m-2.94922-.84375l2.05469 1.33594m12.32812-1.46875l-6.5 2.67578m6.5-2.67578l1.89063 1.5625m-2.83594-1.17578l.94531.78515m12.95313-1.83593l-5.77735 4.0039"/><g clip-path="url(#af)"><path fill="none" stroke="#000" stroke-linecap="round" stroke-linejoin="round" stroke-miterlimit="10" stroke-width=".5" d="M466.44922 358.49219l2.17969 1.125"/></g><path fill="none" stroke="#000" stroke-linecap="round" stroke-linejoin="round" stroke-miterlimit="10" stroke-width=".5" d="M465.60938 359.07422l1.08984.5625"/><g clip-path="url(#ag)"><path fill="none" stroke="#000" stroke-linecap="round" stroke-linejoin="round" stroke-miterlimit="10" stroke-width=".5" d="M140.90234 348.83984l6.19532-3.32421"/></g><path fill="none" stroke="#000" stroke-linecap="round" stroke-linejoin="round" stroke-miterlimit="10" stroke-width=".5" d="M157.46875 350.6875l-.3086-7.01953m.3086 7.01953l-2.11328 1.2461m2.07031-2.26563l-1.0586.6211m16.20704-.1836L168.6875 344.25m3.88672 5.85547l-1.16797 2.15625m.60156-3.00781l-1.16797 2.15625m15.50782-1.66797l-4.8047-5.125m4.8047 5.125l-.78907 2.32031m.08985-3.0664l-.39453 1.16015m14.17187-.21094l-4.32812-5.53515m4.32812 5.53515l-1 2.24219m.36719-3.04688l-.9961 2.2422m.3672-3.04688l-.4961 1.1211m15.0625.49608l-4.3086-5.55078m4.3086 5.55079l-1.0039 2.23828m.375-3.04688l-1.00391 2.23828m16.1953-3.32812l-6.80468-1.7539m6.80469 1.7539l.57422 2.38672m12.8125-3.79688l-6.94531 1.0664m6.9453-1.0664l1.46485 1.96875m-2.47656-1.8125l1.46484 1.96875m12.89453-1.8164l-7.01172.44921m7.01172-.44921l1.28907 2.08593m-2.3086-2.01953l1.28906 2.08594m12.95313-2.75781l-6.82813 1.66015m6.82813-1.66015l1.63281 1.83203m-2.625-1.58985l1.6289 1.83204m12.60157-2.33985l-6.67578 2.1914m6.67578-2.1914l1.76953 1.69922m-2.73828-1.3789l1.76953 1.69921m12.32422-2.48828l-6.29297 3.1289m6.29297-3.1289l1.9961 1.42578m-2.91407-.96875l1.9961 1.42578m12.21875-1.91406l-6.25782 3.1914m6.25782-3.1914l2.01172 1.40625M306 346.04688l2.01172 1.40625m12.13672-2.01954l-6.10156 3.48829m6.10156-3.48829l2.07422 1.3125m-2.96485-.80468l1.03907.65625m13.44921-.53125l-6.66796 2.22265m6.66796-2.22265l1.77735 1.6914m-2.75-1.36719l1.77734 1.69141m12.3789-2.34375l-6.40624 2.8789m6.40625-2.8789l1.9414 1.5039m-2.875-1.08593l1.94141 1.5039m12.16797-2.19921l-6.1289 3.4336m6.1289-3.4336l2.0664 1.32422m-2.95703-.82422l2.0625 1.32422m12.23047-1.65625l-6.30468 3.09765m6.30468-3.09765L375.5 347.0625m-2.91016-.98438l1.9922 1.4375m12.18359-2l-6.19141 3.32422m6.1914-3.32421l2.03907 1.36328M385.86719 346l2.03906 1.36328m11.95703-2.20312l-5.7539 4.03515m5.7539-4.03515l2.1875 1.11718m-3.02344-.52734l2.1875 1.11328m11.96094-1.70312l-5.75 4.03515m5.75-4.03515l2.1875 1.11328m-3.02344-.52735l2.1875 1.11329m-3.02343-.52344l1.09375.55469m14.04297-1.5l-6.04688 3.57812m6.04688-3.57813l2.09375 1.27735m-2.97266-.75781l2.09375 1.27734m-2.97656-.75781l1.05078.64062m14.14062-1.47265l-6.27734 3.16015m6.27734-3.16015l2.0039 1.41796m-2.91796-.95703l2.0039 1.41797m12.51563-1.0586l-6.85937 1.51954m6.85937-1.51953l1.59375 1.86719m-2.58984-1.64454l1.59375 1.8672m12.5625-2.60938l-6.54688 2.5586"/><g clip-path="url(#ah)"><path fill="none" stroke="#000" stroke-linecap="round" stroke-linejoin="round" stroke-miterlimit="10" stroke-width=".5" d="M466.83594 345.89844l1.85937 1.59765"/></g><path fill="none" stroke="#000" stroke-linecap="round" stroke-linejoin="round" stroke-miterlimit="10" stroke-width=".5" d="M465.88281 346.26953l1.85938 1.60156"/><g clip-path="url(#ai)"><path fill="none" stroke="#000" stroke-linecap="round" stroke-linejoin="round" stroke-miterlimit="10" stroke-width=".5" d="M142.375 336.98047l3.25-6.23438"/></g><path fill="none" stroke="#000" stroke-linecap="round" stroke-linejoin="round" stroke-miterlimit="10" stroke-width=".5" d="M158.21094 337.26172l-1.79297-6.79688m1.79297 6.79688l-1.80078 1.66406m1.53906-2.65234l-1.80078 1.66406m1.54297-2.65625l-.90235.83594m15.83985.63672l-3.9961-5.78125m3.9961 5.78125L171.5 338.93359m.54688-3.02343l-1.125 2.17968m.54296-3.01953l-.5625 1.08985m15.7461-.0547l-5.41016-4.48437m5.41016 4.48438l-.49219 2.40234m-.29297-3.05469l-.4961 2.40235m14.59376-1.7461l-5.40235-4.49218m5.40235 4.49219l-.5 2.40234m-.28516-3.05469l-.5 2.40235m-.28516-3.0586l-.5 2.40235m16.03125-2.26563l-6.6914-2.14844m6.6914 2.14844l.4336 2.41797m-1.41016-2.73047l.4336 2.41406m-1.40625-2.72656l.43359 2.41406M211 334l.21875 1.20703m15.82813.20313l-6.3125-3.09375m6.3125 3.09375l.07812 2.45312m-.9961-2.90234l.07813 2.45312m-.9961-2.90625l.07813 2.45313m15.39844-2.61719l-6.96094-.96094m6.96094.96094l.84375 2.30469m-1.85938-2.44531l.84375 2.30468m13.4961-3.05469l-6.98047.81641m6.98047-.8164l1.39453 2.01953m-2.41016-1.89844l1.39453 2.01562m-2.41015-1.89843l.69531 1.01171m14.51953-1.86328l-6.72265 2.04688m6.72265-2.04688l1.73438 1.73829m-2.71094-1.44141l1.73438 1.73828m12.5039-2.20703l-6.60937 2.38672m6.60937-2.38672l1.8164 1.64844m-2.78124-1.30079l1.82031 1.64844m12.3711-2.21484l-6.4336 2.82812m6.4336-2.82812l1.92578 1.51953m-2.86329-1.10938l1.92579 1.52344m12.1953-2.19531l-6.17577 3.35156m6.17578-3.35156l2.04687 1.35547m-2.94531-.86719l2.04688 1.35547m12.22265-1.73828l-6.28515 3.14062m6.28515-3.14062l2 1.42187m-2.91406-.96484l2 1.42188m12.14453-2.03907l-6.11328 3.46094m6.11328-3.46094l2.07031 1.3164m-2.96093-.8125l1.03515.65626m13.39063-.69531l-6.5547 2.53125m6.5547-2.53125l1.85547 1.60546m11.49609-1.5078l-6.6289 2.33593m6.6289-2.33594l1.80469 1.66016m11.24609-2.23828l-6.09766 3.49219m6.09766-3.4922l2.07422 1.3086m-2.96094-.80078l1.03516.65234m12.89453-1.5625l-5.5586 4.29688m5.5586-4.29688l2.23828 1.00782m-3.04687-.38282l1.12109.50391m13.51562-.21484l-6.58203 2.46875m6.58203-2.46875l1.83985 1.625m11.39453-1.82032l-6.41797 2.85938m6.41797-2.85938l1.9336 1.51172m-2.8672-1.09765l.96485.7578m13.26172-1.21483l-6.3789 2.9453m6.3789-2.9453l1.95703 1.48437m-2.88281-1.05469l1.95312 1.48438m12.23828-2.01953l-6.27734 3.15625m6.27734-3.15625l2.0039 1.42187m-2.91796-.96094l2.0039 1.41797m12.54688-.91406l-6.92187 1.22656m6.92187-1.22656l1.51172 1.9336m-2.51953-1.75391l1.51172 1.9336m-2.51953-1.75782l.7578.96875m14.41798-1.90625l-6.60938 2.39062"/><g clip-path="url(#aj)"><path fill="none" stroke="#000" stroke-linecap="round" stroke-linejoin="round" stroke-miterlimit="10" stroke-width=".5" d="M466.86719 332.66797l1.82031 1.64844"/></g><path fill="none" stroke="#000" stroke-linecap="round" stroke-linejoin="round" stroke-miterlimit="10" stroke-width=".5" d="M465.90625 333.01563l1.8164 1.64843m-2.78124-1.30078l.91015.82422"/><g clip-path="url(#ak)"><path fill="none" stroke="#000" stroke-linecap="round" stroke-linejoin="round" stroke-miterlimit="10" stroke-width=".5" d="M145.11328 323.8789l-2.22656-6.66406"/></g><g clip-path="url(#al)"><path fill="none" stroke="#000" stroke-linecap="round" stroke-linejoin="round" stroke-miterlimit="10" stroke-width=".5" d="M145.11328 323.8789l-1.6914 1.78126"/></g><path fill="none" stroke="#000" stroke-linecap="round" stroke-linejoin="round" stroke-miterlimit="10" stroke-width=".5" d="M158.39453 323.89063l-2.16016-6.6875m2.16016 6.6875l-1.70703 1.76171m1.39453-2.73437l-1.70703 1.76172m1.39063-2.73438l-.85157.88281m16.26172.14454l-5.08984-4.84766m5.08984 4.84766l-.66016 2.36328m-.08203-3.07031l-.66015 2.36328m-.07813-3.06641l-.66015 2.36328m15.71875-1.26562l-5.6172-4.22266m5.6172 4.22266l-.38282 2.42187m-.43359-3.03515l-.38281 2.42187m-.4375-3.03906l-.3789 2.42578m15.6875-1.78516l-6.33204-3.04297m6.33203 3.04297l.10156 2.44922m-1.02343-2.89453l.10156 2.45313m-1.01953-2.89454l.09765 2.45313m15.37891-2.66406l-6.97656-.85157m6.97656.85157l.88281 2.29296m-1.89844-2.41406l.88282 2.28906m-1.89453-2.41406l.8789 2.28906m-1.89453-2.41406l.8789 2.28906m15.4922-2.02734l-7-.63281m7 .63281l.95312 2.26172m-1.97266-2.35156l.95313 2.26172m-1.97266-2.35547l.95313 2.26172m-1.96875-2.35157l.47656 1.12891m15.90625-1.20313l-7.02734.06641m7.02734-.0664l1.17188 2.15625m-2.19532-2.14844l1.17188 2.15625m-2.1914-2.14453l1.17187 2.15234m14.18359-2.22656l-7.02344.17578m7.02344-.17578l1.20703 2.13281m-2.22656-2.10938l1.20703 2.13672m-2.23047-2.10937l.60547 1.0664m14.63281-1.94921l-6.78125 1.83984m6.78125-1.83984l1.67969 1.78906m-2.66797-1.52344l1.67969 1.78906m-2.66406-1.51953l.83984.89453m14.35938-1.70703l-6.60547 2.39453m6.60547-2.39453l1.8203 1.64453m-2.78124-1.29687l1.82031 1.64453m-2.78125-1.29688l.91016.82422m14.19922-1.82421l-6.35157 3.0039m6.35156-3.0039l1.96875 1.46484m-2.89062-1.02735l1.96484 1.46485m-2.89062-1.02735l.98437.73047m14.05078-1.85156l-6.09765 3.49219m6.09765-3.49219l2.07813 1.3086m-2.96484-.80079l2.07812 1.3086m12.02734-1.97656l-5.90234 3.8164m5.90234-3.8164l2.14454 1.1914m-3.00391-.63672l2.14453 1.19531m12.125-1.59375l-6.09375 3.5m6.09375-3.5l2.07813 1.3047m-2.96485-.79298l2.07813 1.3047m12.11718-1.82813l-6.07812 3.52734m6.07812-3.52734l2.08204 1.29687m-2.96875-.78515l2.08593 1.29687m12.01563-1.96875l-5.8789 3.84766m5.8789-3.84766l2.15234 1.17969m-3.00781-.6211l1.07422.58985m13.32031-.75781l-6.32422 3.0625m5.40235-2.6172l.99218.72657m12.19141-2.44922l-4.21875 5.6211m4.21875-5.6211l2.42187.3789m-3.03906.4375l1.21485.19141m12.99218-.77734l-4.76953 5.15625m4.76953-5.15625l2.375.625m12.06641 1.78906l-7.01953.32813m5.9961-.27735l.625 1.0547m13.61718-.1211l-6.83203-1.64063m5.83984 1.40235l.30469 1.1875m13.66406-3.46875l-6.15234 3.39843m6.15234-3.39843l2.05469 1.33984m11.04297-1.67969l-5.71875 4.08203m5.71875-4.08203l2.19922 1.09375m-3.03125-.5l2.19531 1.09375m12.02344-1.58984l-5.85938 3.88281"/><g clip-path="url(#am)"><path fill="none" stroke="#000" stroke-linecap="round" stroke-linejoin="round" stroke-miterlimit="10" stroke-width=".5" d="M466.49219 318.60547l2.15625 1.17187"/></g><g clip-path="url(#an)"><path fill="none" stroke="#000" stroke-linecap="round" stroke-linejoin="round" stroke-miterlimit="10" stroke-width=".5" d="M465.63672 319.17188l2.16015 1.16796"/></g><path fill="none" stroke="#000" stroke-linecap="round" stroke-linejoin="round" stroke-miterlimit="10" stroke-width=".5" d="M464.78516 319.73828l2.15625 1.16797"/><path fill="#00f" fill-rule="evenodd" d="M312.78516 454.33203h8.62109V444.1875h-8.6211v10.14453"/><path fill="azure" fill-rule="evenodd" d="M314.6211 446.01953h.83202v2.82422h3.28516v-2.82422h.83203V452.5h-.83203v-2.91406h-3.28515V452.5h-.83204v-6.48047"/><path fill="#ff3030" fill-rule="evenodd" d="M357.86328 436.57813h7.69531v-10.14454h-7.6953v10.14454"/><path fill="azure" fill-rule="evenodd" d="M359.69922 428.26563h.83203v5.74218h3.1914v.73828h-4.02343v-6.48046"/><path fill="#ff3030" fill-rule="evenodd" d="M295.72656 414.38672h7.69531v-10.14453h-7.6953v10.14453"/><path fill="azure" fill-rule="evenodd" d="M297.5586 406.07422h.83593v5.74219h3.1914v.73828h-4.02734v-6.48047"/><path fill="#ff3030" fill-rule="evenodd" d="M189.20703 383.32031h7.6914v-10.14844h-7.6914v10.14844"/><path fill="azure" fill-rule="evenodd" d="M191.03906 375.00781h.83594v5.73828h3.1914v.7422h-4.02734v-6.48048"/><path fill="#ffffe0" fill-rule="evenodd" d="M328.42969 389.4414h22.17969V379.25h-22.1797v10.1914"/><path fill-rule="evenodd" d="M331.92969 381.08203h.50781v6.29688h-.78516v-4.48829h-1.39062v-.55859l.5586-.0625.2539-.05469.23047-.08984.20312-.14063.17188-.21093.14453-.29297.10547-.39844m4.8125 0l.23047.01953.21875.0586.20703.08593.19531.1211.1836.15234.17187.17578.30469.41797.24218.49219.1797.54687.10937.58204.03906.58984-.03906.59375-.10938.58203-.17969.55469-.24218.5039-.3047.42579-.17187.17968-.18359.15235-.19531.125-.20703.08984-.21875.0586-.23047.01952-.23047-.01953-.21875-.05859-.20703-.08984-.19531-.125-.1836-.15235-.17187-.17969-.3047-.42578-.24218-.5039-.17969-.55469-.10937-.58203-.03906-.59375h.83203l.02734.5625.08203.5039.1289.44532.16017.375.1914.30078.21094.21875.22265.13672.22657.04687.22656-.04687.22266-.13672.21093-.21875.19141-.30078.16016-.375.1289-.44531.07813-.50391.03125-.5625-.03125-.5625-.07813-.5-.1289-.4336-.16016-.36718-.1914-.29297-.21094-.21485-.22266-.1289-.22656-.04688-.22656.04688-.22266.1289-.21094.21485-.1914.29297-.16016.36719-.1289.43359-.08204.5-.02734.5625h-.83203l.03906-.58985.10937-.58203.1797-.54687.24218-.49219.30469-.41797.17187-.17578.1836-.15234.1953-.1211.20704-.08593.21875-.0586.23047-.01953m5.08984 0h.51172v6.29688h-.78906v-4.48829h-1.38672v-.55859l.5586-.0625.2539-.05469.22656-.08984.20313-.14063.17578-.21093.14062-.29297.10547-.39844m2.82422 2.17578h.78906l.01953-.3164.0586-.28516.09765-.2539.14063-.21485.17969-.17188.22656-.1289.26172-.08203.3086-.02735.23827.02344.22266.0625.20703.10156.17969.13672.14844.17188.11328.20703.0703.23828.02345.26172-.01954.26953-.0664.22266-.10938.1953-.15625.16798-.19921.16406-.25.16406-.63282.39063-.53515.3125-.4375.3164-.34766.32422-.26563.33594-.1875.35156-.125.3711-.0703.39453-.01954.41797h4.21094v-.7422h-3.33203l.08203-.28124.11328-.23828.14844-.20313.1875-.17969.23047-.17187.27734-.17578.71875-.41406.41406-.20704.34766-.23046.28125-.25.21875-.26954.16406-.27734.10938-.28515.0664-.28125.01953-.28125-.04296-.38672-.1211-.34766-.1875-.30469-.25-.26562-.30469-.21094-.34375-.16016-.3828-.09765-.40626-.03516-.4336.03516-.39843.09765-.35547.16797-.30469.23438-.24609.30078-.1875.375-.11719.44922-.03906.51562"/><path fill="#ffffe0" fill-rule="evenodd" d="M181.46875 348.04297h22.17969v-10.1914h-22.17969v10.1914"/><path fill-rule="evenodd" d="M184.96875 339.6836h.50781v6.29687h-.78515v-4.49219h-1.39063v-.55469l.5625-.0625.25-.05468.23047-.08985.20313-.14062.17578-.21094.14062-.29297.10547-.39844m4.8125 0l.23047.01954.21875.05468.20703.08985.19531.12109.1875.15234.16797.17579.30469.41796.24219.4922.17968.54687.11328.57812.03516.59375-.03516.59375-.11328.58203-.17968.55469-.2422.5-.30468.42969-.16797.17969-.1875.15234-.19531.125-.20703.08984-.21875.0586-.23047.01953-.23047-.01953-.21875-.0586-.20703-.08984-.19531-.125-.1836-.15235-.17187-.17968-.30078-.42969-.2461-.5-.17968-.55469-.10938-.58203-.03906-.59375h.83203l.03125.5625.08203.5039.125.44532.16016.375.1914.30078.21094.21875.22266.13672.22656.04688.22656-.04688.22266-.13672.21094-.21875.1914-.30078.16016-.375.1289-.44531.08204-.5039.02734-.5625-.02734-.5625-.08203-.5-.12891-.4336-.16016-.36719-.1914-.29297-.21094-.21484-.22266-.1289-.22656-.04688-.22656.04687-.22266.1289-.21094.21485-.1914.29297-.16016.36719-.125.4336-.08203.5-.03125.5625h-.83203l.03906-.59376.10938-.57812.17968-.54688.2461-.49219.30078-.41796.17187-.17579.1836-.15234.19531-.1211.20703-.08984.21875-.05469.23047-.01953m5.09375 0h.50781v6.29688h-.78906v-4.49219h-1.38672v-.55469l.5586-.0625.2539-.05468.23047-.08985.20313-.14062.17187-.21094.14453-.29297.10547-.39844m2.82031 2.17579h.78906l.01954-.31641.05859-.28516.09766-.2539.14062-.21485.1836-.17187.22265-.1289.26563-.08204.30859-.02734.23438.02343.22656.0625.20312.10157.17969.13671.14844.17188.11328.20703.07031.23438.02734.26562-.02343.26953-.0664.22266-.10938.19531-.15625.16797-.19922.16406-.2461.16406-.63672.39063-.53515.3125-.4375.3164-.34766.32423-.26172.33593-.1914.35156-.125.3711-.07031.39062-.01954.42188h4.21094v-.74219h-3.33203l.08203-.28515.11328-.23438.14844-.20313.1875-.17968.23047-.17188.28125-.17578.71484-.41406.41797-.20703.34375-.23047.28125-.25.21875-.26953.16406-.27735.10938-.28515.0664-.28516.01954-.28125-.04297-.38281-.1211-.34766-.1875-.3086-.25-.26171-.30078-.21094-.34765-.16015-.37891-.09766-.40625-.03516-.4375.03516-.39844.09766-.35547.16796-.30468.23438-.2461.30078-.1875.375-.11328.44531-.04297.51954"/><path fill="#ffffe0" fill-rule="evenodd" d="M333.97656 356.92188h22.17969v-10.19141h-22.17969v10.1914"/><path fill-rule="evenodd" d="M337.47656 348.5625h.50781v6.29297h-.78906v-4.48828h-1.38672v-.55469l.5586-.0664.2539-.0547.23047-.08984.20313-.14062.17187-.21094.14453-.29297.10547-.39453m4.8125 0l.23047.01953.21875.05469.20703.08984.19531.1211.1836.14843.17187.17579.30079.41796.24609.4961.17969.54687.10937.57813.03906.58984-.03906.59375-.10937.58594-.1797.55078-.24608.5039-.30079.4297-.17187.17968-.1836.15235-.1953.12109-.20704.09375-.21875.05469-.23047.01953-.23047-.01953-.21875-.0547-.20703-.09374-.19531-.1211-.1875-.15234-.16797-.17969-.30469-.42968-.24218-.50391-.1797-.55078-.11327-.58594-.03516-.59375h.83203l.02735.5625.08203.50781.1289.44141.16016.375.1914.30078.21094.22266.22266.13672.22656.04687.22656-.04687.22266-.13672.21094-.22266.1914-.30078.16016-.375.1289-.4414.07813-.50782.03125-.5625-.03125-.5586-.07812-.5039-.1289-.4336-.16017-.36718-.1914-.29297-.21094-.21094-.22265-.1328-.22657-.04298-.22656.04297-.22266.13281-.21093.21094-.19141.29297-.16016.36719-.1289.4336-.08203.5039-.02735.5586h-.83203l.03516-.58985.11328-.57813.17969-.54687.24218-.4961.3047-.41796.16796-.17579.1875-.14843.19531-.1211.20703-.08984.21875-.05469.23047-.01953m5.08985 0h.51171v6.29297h-.78906v-4.48828h-1.38672v-.55469l.5586-.0664.2539-.0547.22657-.08984.20312-.14062.17578-.21094.14063-.29297.10547-.39453m6.80468 1.61719h-.78515l-.05078-.21094-.08204-.1875-.10937-.15625-.1289-.13281-.14844-.10156-.16016-.07422-.16797-.04688-.17187-.01172-.32813.03906-.28515.1211-.2461.19531-.20312.26563-.16407.33984-.11328.40234-.07031.46875-.02344.52735.1875-.20313.1875-.16015.1836-.1211.1875-.08984.1875-.0586.1914-.03906.40235-.02344.30468.03125.32032.09375.3164.15235.29688.21875.2539.28515.19922.35157.07422.19922.05078.21875.03125.23437.0039.25-.78905.04688-.02735-.25782-.07812-.25-.1211-.23437-.16015-.21094-.1914-.17969-.22267-.13671-.23828-.08594-.2578-.03125-.25392.03125-.23828.08594-.22265.13671-.1914.1797-.16017.21093-.12109.23437-.07812.25-.02735.25782.02735.26171.07812.25.1211.23438.16015.21094.1914.17578.22266.13672.23829.08984.2539.03125.25781-.03125.23829-.08984.22265-.13672.1914-.17578.16016-.21094.1211-.23438.07812-.25.02735-.26171.78906-.04688-.03125.3711-.09375.375-.15625.35546-.22266.32813-.28906.28515-.17188.1172-.1875.10156-.20703.08593-.22265.0586-.24219.03906-.26172.01172-.28125-.01563-.26172-.04687-.23437-.07422-.21875-.10547-.1914-.13281-.17579-.15625-.15625-.17969-.13281-.20313-.11719-.22265-.09766-.23828-.14843-.53516-.08594-.59375-.02735-.64062.03907-.7461.11328-.66015.1875-.57813.1211-.25781.13671-.23047.15235-.20703.17187-.17969.1875-.15625.19922-.1289.21875-.10157.23437-.07422.2461-.04296.26172-.01563.36718.03125.33204.09766.29687.15234.2539.19922.21094.23828.16797.27734.11328.30079.0625.3203"/></g></defs><use xlink:href="#ao"/></svg>