<svg xmlns="http://www.w3.org/2000/svg" role="img" xmlns:xlink="http://www.w3.org/1999/xlink" viewBox="142.45 309.95 326.84 171.84"><defs><clipPath id="a"><path d="M144 311.67188h1v168.65625h-1zm0 0"/></clipPath><clipPath id="b"><path d="M144 311.67188h324v168.65625H144zm0 0"/></clipPath><clipPath id="c"><path d="M393 476h11v4.32813h-11zm0 0"/></clipPath><clipPath id="d"><path d="M395 478h5v2.32813h-5zm0 0"/></clipPath><clipPath id="e"><path d="M418 477h10v3.32813h-10zm0 0"/></clipPath><clipPath id="f"><path d="M467 311.67188h1v168.65625h-1zm0 0"/></clipPath><clipPath id="g"><path d="M144 479h4v1.32813h-4zm0 0"/></clipPath><clipPath id="h"><path d="M147 480h2v.32813h-2zm0 0"/></clipPath><clipPath id="i"><path d="M153 479h9v1.32813h-9zm0 0"/></clipPath><clipPath id="j"><path d="M160 480h3v.32813h-3zm0 0"/></clipPath><clipPath id="k"><path d="M166 479h9v1.32813h-9zm0 0"/></clipPath><clipPath id="l"><path d="M173 479h3v1.32813h-3zm0 0"/></clipPath><clipPath id="m"><path d="M180 479h8v1.32813h-8zm0 0"/></clipPath><clipPath id="n"><path d="M186 479h2v1.32813h-2zm0 0"/></clipPath><clipPath id="o"><path d="M193 478h8v2.32813h-8zm0 0"/></clipPath><clipPath id="p"><path d="M200 478h3v2.32813h-3zm0 0"/></clipPath><clipPath id="q"><path d="M207 478h7v2.32813h-7zm0 0"/></clipPath><clipPath id="r"><path d="M213 478h3v2.32813h-3zm0 0"/></clipPath><clipPath id="s"><path d="M220 478h8v2.32813h-8zm0 0"/></clipPath><clipPath id="t"><path d="M234 477h6v3.32813h-6zm0 0"/></clipPath><clipPath id="u"><path d="M248 477h5v3.32813h-5zm0 0"/></clipPath><clipPath id="v"><path d="M261 477h6v3.32813h-6zm0 0"/></clipPath><clipPath id="w"><path d="M274 477h6v3.32813h-6zm0 0"/></clipPath><clipPath id="x"><path d="M287 477h7v3.32813h-7zm0 0"/></clipPath><clipPath id="y"><path d="M301 477h5v3.32813h-5zm0 0"/></clipPath><clipPath id="z"><path d="M315 476h4v4.32813h-4zm0 0"/></clipPath><clipPath id="A"><path d="M329 476h3v4.32813h-3zm0 0"/></clipPath><clipPath id="B"><path d="M343 476h2v4.32813h-2zm0 0"/></clipPath><clipPath id="C"><path d="M356 476h2v4.32813h-2zm0 0"/></clipPath><clipPath id="D"><path d="M367 477h6v3.32813h-6zm0 0"/></clipPath><clipPath id="E"><path d="M381 477h5v3.32813h-5zm0 0"/></clipPath><clipPath id="F"><path d="M395 476h4v4.32813h-4zm0 0"/></clipPath><clipPath id="G"><path d="M409 476h2v4.32813h-2zm0 0"/></clipPath><clipPath id="H"><path d="M421 477h5v3.32813h-5zm0 0"/></clipPath><clipPath id="I"><path d="M434 477h6v3.32813h-6zm0 0"/></clipPath><clipPath id="J"><path d="M447 477h6v3.32813h-6zm0 0"/></clipPath><clipPath id="K"><path d="M460 478h8v2.32813h-8zm0 0"/></clipPath><clipPath id="L"><path d="M466 478h2v2.32813h-2zm0 0"/></clipPath><clipPath id="M"><path d="M144 466h4v2h-4zm0 0"/></clipPath><clipPath id="N"><path d="M466 465h2v4h-2zm0 0"/></clipPath><clipPath id="O"><path d="M144 453h4v2h-4zm0 0"/></clipPath><clipPath id="P"><path d="M466 451h2v3h-2zm0 0"/></clipPath><clipPath id="Q"><path d="M144 440h4v1h-4zm0 0"/></clipPath><clipPath id="R"><path d="M466 440h2v4h-2zm0 0"/></clipPath><clipPath id="S"><path d="M144 426h4v2h-4zm0 0"/></clipPath><clipPath id="T"><path d="M466 426h2v4h-2zm0 0"/></clipPath><clipPath id="U"><path d="M144 412h4v3h-4zm0 0"/></clipPath><clipPath id="V"><path d="M465 410h3v2h-3zm0 0"/></clipPath><clipPath id="W"><path d="M144 399h4v3h-4zm0 0"/></clipPath><clipPath id="X"><path d="M466 398h2v2h-2zm0 0"/></clipPath><clipPath id="Y"><path d="M144 385h4v4h-4zm0 0"/></clipPath><clipPath id="Z"><path d="M466 385h2v2h-2zm0 0"/></clipPath><clipPath id="aa"><path d="M144 372h4v4h-4zm0 0"/></clipPath><clipPath id="ab"><path d="M466 371h2v3h-2zm0 0"/></clipPath><clipPath id="ac"><path d="M144 358h4v5h-4zm0 0"/></clipPath><clipPath id="ad"><path d="M466 358h2v3h-2zm0 0"/></clipPath><clipPath id="ae"><path d="M144 346h4v2h-4zm0 0"/></clipPath><clipPath id="af"><path d="M466 346h2v3h-2zm0 0"/></clipPath><clipPath id="ag"><path d="M144 333h4v2h-4zm0 0"/></clipPath><clipPath id="ah"><path d="M466 332h2v3h-2zm0 0"/></clipPath><clipPath id="ai"><path d="M465 332h3v3h-3zm0 0"/></clipPath><clipPath id="aj"><path d="M144 320h4v1h-4zm0 0"/></clipPath><clipPath id="ak"><path d="M466 318h2v2h-2zm0 0"/></clipPath><clipPath id="al"><path d="M465 318h3v3h-3zm0 0"/></clipPath><g id="am" clip-path="url(#clip1)"><path fill="#fff" fill-opacity="0" fill-rule="evenodd" d="M0 0h1000v1000H0zm0 0"/><path fill="#d3d3d3" fill-opacity="0" fill-rule="evenodd" d="M162.15234 355.86719l-.23437.29297.0586.23437.11718.17188.17578.23437.29297.34766.11328.0586.11719-.17188.0586-.23438.17577-.17578.46485-.17578h.69922l.23437.29297.28906.8164.0586.17579.17578.23046.35156.23438.69922.69922.17188.17578.23437.34765.23438.41016.28906.58203.41015.46485.23047.23437.23438.17578.11719.23047.17578.29297.17187 1.16406v.23438l.0586.28906.05859.11719.11719.11719.34765.41015.11719.17188.17578.17578.17578.23437.11719.17188.17188.35156.05859.23438.23437.40625.23438-.0586-.17578.17578-.0586.92969h-.58203l-.23437-.11328-.34766.11328-.11719.11719-.05859.29297-.0586.17578-.11718.17187-.46484.29297-.0586.23438-.0586.11328v.64453l.0586.17187v.41016l.0586.0586v.40624l.05859.40625.11719.17579.05859.05859.23047.64062-.0586.29297v.69922l-.05859.58203v.23438l-.0586.23047-.05468.35156v1.92187l.05469.1172h.42578l-.36719.11718-.02344.35156.89063 1.16797 1.74219.53906 1.33984.35938v.53906l.08984.8086.53516.71484 1.51953.26953.89063-.08594.08984 1.16406.53516.1797 1.16015-.1797 2.05469-.98437 1.16016-.36328 1.8789-.17578 1.69531-.1797-.17968.71876-1.51563.08594-1.25.08984-.80469.26953-1.07421.8086.26953.71875.53515.89843-.17968.625-.26563.8086.26563 1.07812.625.89844.80468.17969 1.25-.1797-.26562.72267.09766.5039.05468.29297v.17188l.0586.29296v.40625l.17578.1172.35156.11718h.40625l.29297-.17578.11328-.11719.0586-.11719.11718-.23047.0586-.17578.35156-.46484.23047-.17578.17578-.0586.17578.0586.0586.17578.11718.98828.05469.46875.0586.17188.11718.23437.17578.0586.8164.05859h.28907l.11719.23437.05859.40625.0586.35156v1.10547l.11718.29297.11719.34766.28906.69922.17578.35156.58203.7539.35157.17579.17187.0586.46875.23437.64063.46484.34765.23438.29297.17578.29297.05468.23047.0625.8164.34766.29297.17578.11328.17188.35157.35156.11719.17578.52343.64063v.28906l.0586.35156v.34766l.05859.35156.0586.28906.11718.0586.17188.05859h.17578l.58203.23437.17578.1172.17578.28905.17578.23438.11328.23437.29297.23047.11719.11719v.41016l.0586.05468.28906.23438.23437.11719.0586.11718.11718.17188.0586.11719.23047.23437.05859.17578.23437.0586.1172.05859-.1172.11328-.05859.11719v.11719l-.11719.29296-.11719.28907v.58203l.17579.11719.11718.05859.0586.11719.11719.11719.11328.05859.17578.34765.0586.35157.05858.40625v.17578l-.05859.17578-.11719.69922v.17187l.1172.17579.29296.29296h.40625l.17578.1172.11719.17187.11719.29296v.23438h-.52735l-.23047-.23438h-.23437l-.17578.0586-.0586.69922.0586.34765.11719.17579.17578.41015.11718.23047.28907.46875.17578.05469h.52344l.23437.0586.75781.64062.0586.29296v.23438l.05859.0586.23047.34765v.35156l-.11719.17188v.29297l.29297.28906.29297.17578.17187.0586.29297.17577.29297.1172.58203.40624.28906.23438.29297.17578.21875.16015.01563.01172.23047.17579.64062.52343.17578.23438.1172.17578.17577.17578.11328.17188v.64062l.1172.17578.46874.11719.58203.11719.23438.05859.23047.11328.29297.11719.11328.0586.58593.35156.28907.17187.17578.0625.17578.05469.17578.0586.69922.35155.28906.17579.23438.05468.28906.17578.23437.1172.64063.40624.29297.11719.17187.0586.23438.05859.41015.05859.23047.0586.23438.11718.0586.17188-.41017.17578.46875.0586.0586.29296.11328.23438.17578.05468.23438.0586.17578.05859.40625.11719.64062.23437.11719.17188.0586.23437v.17578l-.0586.1172-.0586.40624.23438.23438.11719.05859.34766.11719.64062.23047.17578.11718.28906.1172.17578.17577.23438.46485.58203 1.10546.17578.17579.34766.17578.17578.11719.35156.11718 1.04688.52344.23437.0586.46485.11327.29297.0586.46484.17578.75781.58203.23438.23438.34765.46484.17578.17578.28907.23438.8164.69921.29297.17579.28906.28906.29297.17578.29297.28906.69531.64063.17578.17578.29297.23437.28907.23438.46875.28906.64062.58203.34766.23438.23437.29297.34766.34765.35156.46485.9336.99218.34765.40625.11719.17579.23437.05859.11328.11719.64454.17578.23047.11328.23437.0586.29297.17577.23047.1172.9336.69921.40624.40625.23438.17578.40625.17578.23437.11719.8164.34766.34766.23437.23438.11719.29297.28906.23047.11719.7578.35156.35157.17188.23047.05859.29297.11719.23437.0586.8711.17577h.8164l.46875.23047.17188.0586.875.69921.46484.1172.29297.05858.17578.0586.23047.0586.46875.05859.34766.05859.35156.0586.40625.05859h.29297l.17187.0586v.23046l.17578.17578h.29297l.34766.0586.35156.05859.69922.11719h.64063l.46484-.23438.29297-.17578.17187-.11719.41016-.17187.28906-.17578.9336-.46485.46875-.29297.52343-.29296.46485-.17188.46484-.17578 1.05078-.46485.28906-.11718.41016-.11719.28906-.11719.52735-.17578 1.51562-.69922.58203-.34765.28907-.0586.29297-.0586.34765-.11718.875-.23047.35156-.11719h.11329l.23437-.05859.875-.23437.23438-.0586h.8125l.35156-.0586.8164-.11718.17188-.0586.35156-.05468.29297-.0586.23047-.05859.8164-.17578.17579-.0586h.34765l.23438-.05859.46484-.11718.75781-.17188.23438-.0586h.34765l.41016-.11718.28906-.0586 1.28516-.05859h.28906l.41016-.0586.23047-.05858h.17578l.875-.1172h.40625l.41015-.11718h.34766l.35156-.11328.8711-.0586h1.75l1.04687.28907.41016.11719.28906.11718.35156.11719.28907.11719 1.05078.17187.28906.0586h.29297l.29297.05859.17187.0586.41016.05859.17187.0586.1172.05858h.11718l.11719.0586.35156.0586h.11328l.41016.0664 1.92187.39453 1.92578.39453 1.51953.44922 1.69532.71875 2.14453.80469 1.60547-.71875 1.42968-.80469 1.16016-1.07813 1.25-.44921 3.03516-.71875 1.875-.35938 2.14453-1.34765 2.23437-1.25391 2.5-1.25781 1.69531-.44922 1.78516-.17969 1.16016-.26953.625.53906 1.33984-.26953.71485-.98828.98437-1.34375.44531-.17969.80469-.35937 1.875-.53907 1.78516-.44921 1.25-.26954 1.16015-.08984 1.69922-.08984 1.96094-.26954 1.25-.08984h.53906l.625-.08984h.89063l2.14453-.17969 2.41015-.17969 2.58985-.08984 1.69531.17969 1.60938.08984 1.42968.35938 1.16016.71875 1.875.98828 1.16015 1.52734.26563.71484.6289.08985.35548.89844.53515.53906.53516 1.52734 1.07422.35938h.53515l-.80469.53515.08985 1.70703.71484 2.69532.89063.80468.89453.98829.71484 1.2578 1.78516.53907 1.51953-.17969.35547 1.34375 1.60937-.80469.98047-.53906.26953.26953.31641-.21484.21875-.14453.80078.44922.44922-.35938h.35547l.53515-.26953.53907-.71875.53515-.26953.625-.98828 1.16016.44922.83984.3711 1.39454.61718 1.6953-.17969h1.60548l1.78515.08985.17969-1.70704.53516-1.34375.80468.26954.4922.84765.40233.40625-.08984.53906v.35938l.71485.44922.71093-.26953h1.42969l.35938.98828.4453 1.25781.71485 1.34375 1.25.6289 1.69531.62891.71485-.17969.17969-.53906.98046-.08984.44922.35937.08594 1.25782-.26563.6289-.53515.17969v.53906l.71484.98438.26563.53906.98437.98828.80078 1.07813-.26562.35937-.08985.89844-.625 2.33203-.35546 2.0664-.08985 1.79298-.17969.71875-.08984.53906v1.4375l-.98047 1.88281-.35937 1.70703-.53516.89844-.80469 1.16797-.26562.53906 2.05469 1.2539.08593.35938-.35546.53906-.08985-.17968v.80859l.08985 1.4375-.44532.71484-1.07422.09375-.26562.71485.53515.89844.8047.71875 1.16015.80859 1.33984.26953.44531.35938-.35546.44921-1.78907-.08984-1.25-.44922-.71484-.71875-.625-.08984-.17578 3.58984-.1875 1.3086h89.35937V311.70313h-55.26953v49.08203l.76172.125 3.28906.54296 2.02344 2.83594v2.7539l2.35156.33204 2.34766.33203h4.05078l-1.3789 4.16016-2.02344.70703-2.02344.70312-.54297.34375-2.59375 1.6172-.1875.11718-2.02344-2.07813-.73046-2.74218-2.67188-2.07813-1.375-3.5-.0664-.08203-1.95704-2.67188 2.75-1.41796v-49.08204H294.42187v91.41407l.1172.03125.1328.01172.07422.07421.10547.04688.08985.0586.08593.05859.08985.0586.29687.29687.0586.08984.03125.11719.02734.11719.01563.13671-.03125.1172-.0586.08983-.0586.08594-.04296.10547-.04688.10156-.02734.1211v.14453l.17578.26953.14844.14844.07422.08594.07422.07421.04296.10547.0625.08985.0586.08593.04297.10547.0586.08985.04687.10156.04296.10547.0586.08594.11719.17968.07421.07422.0625.08594.0586.08984.04297.10547.0586.08985.05858.08593.0625.08985.0586.08984.04297.10156.11719.17969.07421.07422.0586.08594.07422.07421.08984.0586.10547.04687h.14844l.1328-.01562.13282.01562.10156-.04687.07422-.07422.04688-.10156-.01563-.13281v-.14844l-.04687-.10547-.02735-.11719-.04687-.10156-.02735-.1211-.04296-.10156-.0625-.08984-.04297-.10156-.04297-.10547-.03125-.11719-.01563-.13281-.01171-.13672.08593-.0586.0586-.08593.12109-.03125.04297.10547.01562.1328v.1172l.0586.10156.0586.08984.08983.0586.14844.14843.0586.08985.04296.10547-.01171.10156.08593.0586.10547.04687.08594.0586.08984.05858.07422.07422-.11719.02735-.10546.04687-.08594.0586-.07422.07421-.0586.08985-.0625.08594-.02734.12109-.04687.10156-.04297.10547-.03125.11719-.01172.13281-.01563.13281v.14844l.02735.11719.04687.10547.04297.10156.0586.08984.07421.07422.08985.0586.07422.07421.08984.0586.0586.08984.04296.10547.04688.10156.11719.03125.1328.01563h.14845l.11718-.03125.10547.04297.04297.10547.04688.10156.02734.1211L299.5 410l.02734.11719.03125.1211.02735.11718.10547.04297.10156.04687.13281-.01562.14844.14844.0625.08593.07422.07422.07031.07422.08984.0625.10547.04297.10156.04297.1172.03125.13671.01562.11719-.03125.07422-.07422.02734-.11718-.01172-.13282-.03125-.12109-.02734-.11719.04297-.10547h.11719l.08984.0625.11719.02735h.14843l.13282.01562h.14843l.13282.01563.1328-.01563h.14845l.1328-.01562.13282-.01172.13672.01172.11719-.02735.13281-.01562.1914-.0586-.05859.17579-.01562.1328-.02735.1211-.01562.13281-.0586.08594-.1328.01563-.10548.04687-.10546.04297-.1172.03125-.11718.02735-.26563.03125h-.14843l-.13281.01562-.07422.07422.05859.08594.14844.14843.11719.1797.07421.0703.08985.0625.08984.0586.08594.0586.08984.05858.10156.04297.10547.0625.10547.04297.08594.0586.10547.04687.10156.04297.17969.11719.0586.08984-.04298.10156-.04687.10547.01562.13281.22266.22266.0586.08985.04296.10156.03125.1211.04297.10155.01563.13282.03125.11718.01171.13672.03125.11719.14844.14844.10156.04297.10547.04296.1172.03125.1328.01563.13672.01563h.11719l.11719-.03125.08984-.0586.04297-.10547.04688-.10156.04296-.10547.03125-.11719.01172-.1328v-.14845l-.01172-.1328-.01562-.13282-.03125-.11719-.04297-.10547-.04688-.10547-.04296-.10156-.04297-.10547-.01563-.13281.01563-.13281.02734-.11719.03125-.11719.02735-.1211.04687-.10155.08984-.0586.08594-.0625.07422-.07422.08984-.05859.22266-.22266.0586-.08593.07421-.07422.11719-.17969.0586-.08594v-.14844l-.07423-.07421-.10156-.04688-.10547-.04297-.10156-.04297-.0586-.08984-.04687-.10547-.02734-.11719.08984-.05859.11719-.03125.10156-.04297.17969-.11719.14844-.14843.01172-.13282-.01172-.10546-.08985-.0586-.1328.01563h-.14845l-.1328.01562-.13282-.01562-.1211-.03125-.08593-.0586-.07422-.07422-.0586-.08984-.0625-.08594-.11718-.17969-.0586-.08593.03125-.1211.08594-.05859.1211-.03125.05859-.08594v-.1211l-.03125-.11718-.0586-.08984-.05859-.08594-.04687-.10547-.02735-.11719-.01562-.1328.0586-.08985.07421-.07422.08984-.0586.1172-.17968.07421-.07422.0586-.08594.14843-.14844.1211-.03125.1328-.01562.13282.01562.07422.07422.04297.10547.01562.13281-.03125.1172-.11719.03124-.1328.01172-.14844.14844-.04297.10547-.04688.10156-.02734.1211-.03125.11718v.14844l.03125.11719.04297.10546.05859.08985.07422.07031.07422.07422.11719.03125.12109.02734.11719-.02734.1328-.01563h.1172l.08984.0586.07422.07422.04687.10546.0586.08594.10156.04688.13281.01562.10547.04297.08594.0586-.01172.10546-.07422.07422-.17969.11719-.05859.08984-.08984.0586-.07032.07422-.07421.07421-.0625.08985-.02735.11719-.01562.1328.01562.13282-.01562.13281v.14844l.01562.13281.02735.1172.03125.12108.07421.07422.08985.0586.08594.0586.08984.05858.11719.03125v.08594l-.10157.04688-.08984.0586-.26563.03124-.11718.02735h-.14844l-.10547.04296-.10156.04688-.0586.08984-.0625.23438-.01171.13281-.03125.1211-.01563.1328v.29298l-.01172.1328.01172.13673.01563.1328.1328.01563.13282.01172.1211.03125.08593.0586.07422.07421.04688.10547.04296.10157.01563.1328v.44532l-.01563.13281v.44532l.03125.26562.02735.11719.01562.13281.03125.11719.08594.21094.03125.26562v.14844l-.03125.11719-.02734.11718-.03125.1211-.02735.11719-.03125.11718-.03125.1211-.01171.1328-.01563.13282.08984.0586.1172-.03125.10155.01562.04688.10547-.03125.26562v.44141l-.04297.10547-.04688.10547-.04296.10156-.04297.10547-.0586.08594-.03125.12109-.04296.11719-.03125.11719-.01563.1328.01563.13282.05859.08984.10547.04688.08594.0586.05859.08593-.01172.13672-.03125.11719-.04297.10156v.44531l-.01562.13281v.14844l-.03125.11719-.04297.10547-.02735.11719-.04687.10546-.04297.10157-.03125.12109-.02734.11719-.03125.13281-.03125.11719-.02735.11719-.04297.10546-.03125.1172-.03125.12108-.01171.13282-.01563.13281v.29688l.02734.11718v.14844l.04688.39844.02734.11719.0586.08984.12109.03125h.14844l.13281-.01563.0586.08985v.11719l-.0586.08984-.08984.0586-.10157.04296-.10546.04688-.08985.05859-.08594.0586-.13671.01562-.1172-.03125-.1328-.01563-.10157.04688-.0625.08594-.01172.13671-.01562.13282-.03125.11719-.02735.11718-.01562.13281-.03125.1211v.29687l.01563.13282.03125.11718v.14844l.01171.13281v.14844l-.02734.11719-.04688.10156-.02734.1211-.03125.11718-.0586.08985-.07421.07421-.10156.04297-.10547.04688-.11719.02734-.1211.03125-.10156-.04687.0586-.08594.10547-.04688.02734-.11718.03125-.11719.02734-.1211.03125-.11718v-.14844l.01563-.13281-.03125-.11719-.04297-.10547-.10547.01563-.07422.07422-.10156.04296-.08984.0625-.07422.07422-.04297.10157-.01563.1328-.03125.1172L304.25 426l-.03125.11719-.02734.11719-.03125.12109-.02735.11719-.03125.11718-.04297.10547-.08984.0586h-.08984l-.1172-.03125-.03124-.08594.01562-.13672-.03125-.11719v-.14844l-.01171-.1328v-.14844l-.0625-.23438-.02735-.1211-.04297-.10156-.04687-.10546-.0586-.08594-.05859-.08985-.04297-.10546-.0625-.08594-.14844-.14844-.0703-.07422-.10548-.04687-.10547-.04297-.10156-.04297-.29687-.29688-.08985-.07421-.08594-.0586-.10546-.04297-.08985-.0625-.08594-.0586-.10546-.04296-.08985-.0586-.08594-.0625-.07421-.0703-.10547-.04688-.08594-.0586-.10547-.04296-.08984-.0625-.10156-.04297-.10547-.04297-.08594-.0586-.10547-.04687-.10547-.04297-.10156-.04687-.08985-.0586-.10156-.04297-.10547-.04296-.08984-.0625-.11719-.02735-.13281-.01562-.13281.01562H299.75l-.13281.01563-.11719-.03125-.08984-.0586-.07422-.07422-.08985-.05859-.10156-.04688h-.14844l-.12109-.02734-.10156-.04297-.07422-.07422-.11719-.17968-.08984-.0586-.10156-.04297-.08985-.0625-.10547-.04296-.08984-.0586-.08594-.0586-.10547-.04687-.0586-.08594-.05858-.08984-.04297-.10547-.04688-.10156-.07422-.07422-.08594-.0586-.07421-.07421-.08985-.0586-.22265-.22265-.04297-.10547-.03125-.26563.10547-.04296h.14453l.10547.04296.07421.07422.08985.0586.08594.0586.10546.04687.08985.05859.14844.14844.0703.07422.14845.14843.0625.08594.07421.07422.08594.0586.07422.07421.08985.0625.08984.0586.08594.05859.26953.17578.10156.04688.10547.04296.10156.04297.04688-.07421.05859-.08594.07422-.07422.07031-.07422.10547.04297.07422.07422.0586.08984.04296.10156.04688.10547.04296.10547.1211.02735.11719-.02735.07421-.08984.04297-.10547.0586-.08985.07422-.07421.10546-.04297.1172-.02735.1328.01172.08985.0586.14844.14843.05859.08985.04297.10547.04687.10156.04297.10547.04297.10156.10547.04688.10547.04296.13281.01563.08594-.0586.0586-.08984.07421-.07422.10547-.04297.11719.02735.10547.04687.10156.04297.10547.04297.10156.04688.17969.11718v.11719l-.01563.13281.01563.13281.01562.13672.0586.08594.10156.04688.1211.02734.11718.03125h.14844l.11719-.03125.05859-.08984.17969-.1172.05859-.08983.07422-.07422.0586-.08594.11718-.17969.17969-.11719.11719.03125.08984.0586.04297.07422-.01563.1328v.1172l.08985.05859h.14843l.13282-.01563.1328-.01171.26563-.03125.10547-.04297.11719-.03125.1211-.02735.07421-.07421.07031-.07422.0625-.08985-.01562-.10547-.04688-.10156-.10156-.04297-.10547-.01562-.11718.02734-.26563.03125h-.14844l-.07421-.07422-.08985-.0586-.11719-.03124-.11718-.02735-.13282-.01562h-.14843l-.13282.01563h-.29687l-.10547-.04688-.14844-.14844-.04297-.10156-.05859-.08984.22266-.22266.08593-.0586.10547-.04296.11719-.03125.13281-.01563.13281.01563.13672.01562.10157.04297.1328-.01172.08985-.0625.10156-.04297.0625-.08984-.04687-.10156-.08984-.0586-.1172-.03125-.10155-.04296-.0586-.08985-.0625-.08984v-.11719l.01563-.13281.10547-.04688.07421-.07031v-.1211l-.08984-.05859-.03125-.11719.08985-.05859.07421-.07422.04297-.10547.0586-.08984.04687-.10156.01563-.13281v-.14844l-.04688-.10547-.04297-.10156-.08984-.0586-.13281-.01562-.10157-.04297-.13671-.01563-.1172-.03125h-.4453l-.13282-.01562-.13281-.01172-.13281-.01563-.11719-.03125h-.14844l-.13281-.01562-.13281-.01172-.26563-.03125-.1211-.04297-.08593-.0586-.07422-.07421v-.14844l.01172-.13281.10547-.04688.10156-.04296.13281-.01563h.15235l.13281-.01562h.29297l.1211.03125.10156.04296.08984.0586.23438.0625.12109-.04688.08984-.05859.10156-.04297.13282-.01562.10547.04296.10156.04688.13281.01172.1211-.02735h.14453l.12109-.03125.11719-.02734.10547-.04687.07421-.07422.08594-.0586.14844-.14843.0586-.08594.04687-.10547.02734-.11719.01563-.10547-.10156-.04296-.08985-.0586-.11719-.03125-.10546-.04297-.08985-.0625-.07422-.08594-.07422-.07421-.10156-.04297-.10547-.04688-.10156-.04297-.0586-.08984-.04687-.10156-.08594-.21094-.0625-.08594-.05859-.08984-.07422-.07422-.08594-.0586h-.26953l-.11719.03126-.08984.05859-.10156.04297-.13281.01562-.10547-.01562-.02735-.11719-.0625-.08984-.11718-.03125-.10157-.04297-.14843-.14844-.03125-.11719-.01563-.10546.07422-.07422.17969-.1172.11719-.02733.11718-.03125.13672.01562.10156.04297.10547.04297.10156.04687.10547.04297.1172.03125.1328.01563.1172.02734.1328.01563.10547-.01563.08985-.0586-.07422-.07421-.10547-.04297-.07422-.07422-.07422-.08984-.14844-.14844-.08593-.0586-.08985-.05859-.07422-.07422-.08984-.0586-.10156-.04687-.1211-.02734-.10156-.04688-.10547-.04296-.11719-.03125-.10156-.04297-.1211-.03125h-.14843l-.11719.03125-.10546.04297-.08594.0625-.17969.11718-.08594.0586-.08984.0586-.10547.04687-.08594.05859-.10547.04297-.10156.04297-.10547.04687-.07422.07422-.05859.08985-.0586.08593-.04687.10547-.0586.08594-.07421.07422-.13281-.01172-.1172-.03125h-.11718l-.07422.07422-.08984.0586-.07422.07421-.08984.0586-.08594.05859-.10547.04687-.10156.04297-.13672.01563-.10156-.04297-.14844-.14844-.10547-.04688h-.08594l-.10547.04688-.10156.04297-.1211.03125-.11718-.03125-.07422-.07422v-.11719l.03125-.1211.07422-.0703.0586-.08985.07421-.07422.11719-.03125.10547-.04296h.29297l.13281-.01563.13672-.01563.10156-.04296.08985-.0586.10156-.04687.08984-.0586.13281-.01171.08985.05859.13281.01172.08984-.0586.08594-.05859.10547-.04297.08984-.0586.08594-.0625.08985-.05859.14843-.14843.0586-.08594.05859-.08985.10547-.04296.13281-.01563.11719.02735.1211.03125.05859-.0586.05859-.08984.03125-.26563.02734-.11719.10547.01172.13281.01563.10157-.04297.08984-.0586.0586-.08984.07421-.07422.0586-.08984.04687-.10156.01172-.13281-.01172-.13282-.04687-.10547-.14844-.14843-.0586-.08985-.05859-.08594-.04297-.10546v-.44532l.01563-.1328v-.14845l.01172-.1328-.0586-.0586-.08984.0586-.10156-.04298-.17969-.11719-.08594-.05859-.0625-.08984-.0586-.08985-.07421-.07421-.08594-.0586-.1211.03125-.10155.01172-.10547.04688-.08594.05859-.10547.04297-.14844.14844-.08984.05859-.08594.0586-.08984.0625-.10547.04296-.13281.01563v-.1211l.10547-.04297.11718-.03125.07422-.0703.04297-.10548v-.14844l-.02734-.11718-.14844-.14844-.13281-.01563h-.14844l-.11719.03125-.10547.04297-.10156.04297-.08984.0625-.11719.02735-.07422-.07422.01172-.13281-.04297-.10157-.04297-.10547-.08984-.05859-.11719.02734-.1211.03125-.11718.03125-.10156.04297-.1211.03125-.10156.04297-.10547.04297-.08984.0586-.10156.01562v-.11719l.01562-.13281-.0586-.08985-.07421.04297-.14844.14844-.0586.08985-.07421.07421-.04688.10547-.04296.10156-.07422.07422-.0586.08985-.07422.07422-.05859.08593-.07422.07422-.08984.0625-.07422.07031-.07422.07422-.10156.01563-.13281.01562-.10547-.04296v-.1211l.14843-.14844.04297-.10156.0586-.08984.04687-.10156.04297-.10547.0586-.08985.03124-.11719.04297-.10156.03125-.1211.02735-.11718.04687-.10547.04297-.10156.04297-.10547.07422-.07031.08984-.0625.08985-.0586.10156-.04296h.29687l.26563-.03125.10547-.04297-.07422-.07422-.11719-.03125-.10547-.04297-.08984-.0586-.10156-.04687-.08985-.0586-.10156-.04296-.10547-.04297-.08984-.0625-.08594-.0586-.10547-.04296-.10156-.04297-.1211-.03125-.11718-.03125-.10157-.04297L297.5 410.25l-.10156-.04297-.08985-.0586-.04296-.10546-.01563-.13281.10156-.04297.13281-.01563.13672.01563.13282-.01563.10156-.04297.0586-.08984.01562-.10547-.08985-.0586-.07421-.07421-.10157-.04297-.08984-.0586-.14844-.14843-.04297-.10547-.01562-.13281v-.29297l-.0586-.08985-.08984-.05859-.07422-.07422-.04297-.10547-.03125-.11718-.0586-.08985-.07421-.07422-.11719-.02734-.07422-.07422-.08984-.0586-.08984-.0625-.08594-.05859-.07422-.07421-.0586-.08594-.04687-.10547-.08594-.0586-.14843-.14843-.19532-.0586-.1328.01563-.10157.04297-.07422.07422-.04688.10156-.04296.10547-.0586.08984-.0586.08594-.29687.29687-.08984.0586h-.08594l-.0625-.08594-.04297-.10547.03125-.11719.0586-.08984.02734-.11719-.01172-.13281-.08984-.0625-.10547.04688-.11719.02734-.11719.03125-.26953.17578-.10156.04688-.11719.02734-.10546.04687-.08985.0586-.10156.04297-.0586-.08594-.04687-.10547.01563-.13281.04687-.10547.07031-.07422.07422-.07031.0586-.08985v-.14843l-.04297-.10547h-.23829l-.10156.04687-.03125.11719-.02734.11719-.03125.1211-.07422.04296-.13281.01563-.07422-.04688-.04297-.10156-.04297-.10547-.04687-.10156-.04297-.10547-.1211.03125-.10156.04297-.13281.01562-.11719.03125-.10547.04297-.08984.0586-.10156.04687-.1211.02734-.13281.01563-.10156-.04297-.0586-.08985-.04687-.10546-.04297-.10157-.04297-.10546v-.1172l.0586-.08984.08593-.05859.17969-.11719.10156-.04687.10547-.04297.10547-.0586.10156-.04296.08985-.0625.10156-.04297.10547-.0586.10156-.04687.08984-.0586.10547-.04296.10156-.04297.08985-.0625.10156-.04297.13672-.01563.11719.03125.10156.04297.1211.03125.10156.04297.10546.04688.10157.04296.10547.04297.10156.04688.10547.04297.10156.04297.10547.04687.08594.0586.10546.04296.1172.03125.10546.04297.10156.04688.08985.0586.10547.04296.10156.04297.10547.04687.11719.02735.10156.04687.1211.02735h.14843l.08594-.0586.01562-.10156.0586-.08984-.02735-.1172-.07422-.07421-.11719-.17969-.07421-.07422-.08985-.07421-.17969-.1172-.08593-.05859-.10547-.04296-.10156-.04688-.26954-.17578-.05859-.08985-.07422-.07421-.0586-.08985-.04296-.10156-.03125-.11719-.01563-.13672v-.5625l-.01171-.1328-.01563-.13282-.03125-.11719-.01562-.13281-.01172-.13281-.03125-.1211-.22266-.22265-.0586-.08594-.01562-.10547.03125-.11719.13281-.01562v-91.41406H172.9922v1.45312l-.0586.23438-.35156 1.05078-.17187.52343-.1172.34766-.17577.41016-.11719.17187-.23438.29297-.23046.0586h-.35157l-.11718.05859-.23047.40625v.29297l.11719.17578.23046.23047.1172.23437.64062.75781.29297.46485.17578.23437.23047.35156.23437.34766.64063.8164.17578.46485.17187.41016.11719.69531.17578.46875.11719 1.39844.0586.46484v.875l.11718 1.04688v4.78125l-.0586.46484-.35156 1.28125-.17578.52344-.11328.41015-.35156.9297L172.93359 336l-.23437.58203-.11719.17578-.17187.34766-.17578.40625-.35157.8164-.0586.29297-.11327.29297-.11719.28906-.0586.17579-.11718.875-.0586.40625-.05859.11718-.0586.17579-.05859.17187-.23047.52734-.11718.17188v.23437l-.11719.23438-.0586.17187-.17577.58594v.28906l-.0586.17579v.29296l-.0586.11329-.05859.52734v.17187l-.05468.23438v2.6211l-.17578.8164-.1172.17578-.17577.23438-.1172.17187-.11327.23438-.58594.93359-.23047.28906-.29297.46485-.17578.23437-.28906.35156-.35156.69922-.11328.23047-.17579.41016-.17578.23046-.40625.52735-.8164.69922-.29297.17187-.28906.23438-.17579.11719-.17578.17578-.52344.40625-.52734.17578-.17187.17578-.23438.05469-.64062.17578h-.75782m12.21094 31.02344l-1.07422.44921.35938.89454 1.25-.71485.44531-.53906-.98047-.08985"/><path fill="#d3d3d3" fill-opacity="0" fill-rule="evenodd" d="M201.50781 416.59766h-.89453l.44922.6289.98047.35938.80469-.08985.4453-.98828-.17577.08985-.71485-.35547-.89453.35547m154.6211 59.0703l-.0586-.52343v-.29297l.11328-.29297.0586-.23046.46875-.46875h.11328l.11719-.11329.11718-.05859h.17579l.23437-.0586h.34766l.23437.0586.11719.0586.23047.17187.0586.17578.11718.58203v.29297l-.11719.17578-.17187.28906-.17579.17579-.52734.52343-.23047.23438-.11719.0586h-.17578l-.11718-.0586-.40625-.29297-.17579-.11719-.11718-.0586-.0586-.11327-.05468-.1172m6.64062-10.95702l-.0586-.17188v-1.10937l.0586-.17188.17578-.0586.17188-.05858h.17578l.23437-.0586.1172.0586.05858.69921-.05859.17188-.11719.17578-.11718.0586-.23438.52343-.11328.0586h-.23438l-.05859-.1172m9.61328-14.39062l-.11719-.17578v-.69922l.29297-.875.1172-.17187.17577-.35156.11328-.23047.1172-.29297.35155-.75781.1172-.23047.17187-.23438h.17578l.11719-.0586h.64062l.11719.0586.23437.23438.17188.11328.35156.29297.11719.11718.11328.17579v.11328l.11719.05859.11718.11719v.69922l-.05859.17578v.23047l-.0586.17578-.34765 1.05078-.11719.23047-.11719.23437-.11718.0586-.23047.23437-.64063.28906h-.875l-.41015-.11718-.64063-.46485"/><path fill="none" stroke="#bebebe" stroke-linecap="round" stroke-linejoin="round" stroke-miterlimit="10" stroke-width=".5" d="M467.95703 311.69531H144.02734v168.625h323.9297v-168.625"/><g clip-path="url(#a)"><path fill="#fff" fill-opacity="0" fill-rule="evenodd" d="M144 475.89063v4.4375h.0039H144V311.67188h.0039H144v164.21875"/></g><g clip-path="url(#b)"><path fill="#fff" fill-opacity="0" fill-rule="evenodd" d="M144.0039 480.32813V311.67188h17.75v139.17187l-2.67187 2.85547-.89453 4.4375 1.83984 4.4375 1.72657 1.1211 2.21875-1.1211 1.54687-4.4375-.71094-4.4375-3.05468-2.85547V311.67187h8.875V456.5625l-1.9922 1.57422 1.9922 2.8125 4.4375-2.24219 1.20312-.57031-1.20312-.44922-4.4375-1.125V311.67187h31.0703v109.91797l-1.0078 1.03907 1.0078 1.3164 1.14845-1.3164-1.14844-1.03907V311.67188h177.53516v145.3203l-1.40235 1.14454 1.19922 4.4375.20313.58203 4.4375 2.78516 3.13671 1.07421 1.30079 1.72657 1.54296-1.72656 2.89454-.72266 3.6953-3.71875-3.02734-4.4375-.66796-.59375-3.94532.59375-.49219.00781-4.4375 1.58594-3.2578-1.59375-1.1797-1.14453V311.67188h88.76172v168.65625h-40.71875l-3.66015-2.66797-4.4375 1.99218-1.04297.67579h-14.80078l-1.91016-1.94922-4.4414-1.8125-3.51563 3.76171H144.00391"/></g><path fill="#50fcfc" fill-rule="evenodd" d="M160.02734 462.57422l-1.83984-4.4375.89453-4.4375 2.67188-2.85547v6.47656l-.34766.8164.34766.4922.36718-.4922-.36718-.8164v-6.47656l3.05468 2.85547.71094 4.4375-1.54687 4.4375-2.21875 1.1211-1.72657-1.1211"/><path fill="#00e8fc" fill-rule="evenodd" d="M161.7539 458.6289l-.34765-.49218.34766-.8164.36718.8164-.36718.49219"/><path fill="#50fcfc" fill-rule="evenodd" d="M170.6289 460.94922l-1.99218-2.8125 1.99219-1.57422 4.4375 1.125 1.20312.44922-1.20312.57031-4.4375 2.24219m31.0703-37.0039l-1.0078-1.31641 1.0078-1.03907 1.14845 1.03907-1.14844 1.3164m177.33203 38.6289l-1.19922-4.4375 1.40235-1.14452 1.17968 1.14453 3.25781 1.59375 4.4375-1.58594v.84766l-4.28515 3.58203 4.28515 3.66797 4.4375-3.36719.29688-.30078-.29688-.3789-4.4375-3.20313v-.84766l.4922-.00781 3.9453-.59375.66797.59375 3.02735 4.4375-3.69531 3.71875-2.89454.72265-1.54296 1.72657-1.30079-1.72656-3.13671-1.07422-4.4375-2.78516-.20313-.58203"/><path fill="#00e8fc" fill-rule="evenodd" d="M388.10938 466.24219l-4.28516-3.66797 4.28515-3.58203v1.41797l-2.58984 2.16406 2.58985 2.21875 2.74218-2.21875-2.74219-2.16406v-1.41797l4.4375 3.20312.29688.3789-.29688.30079-4.4375 3.36719"/><path fill="#00d4fc" fill-rule="evenodd" d="M388.10938 464.79297l-2.58985-2.21875 2.58985-2.16406v1.41406l-.89844.75.89844.76953.94921-.76953-.94921-.75v-1.41406l2.74218 2.16406-2.74219 2.21875"/><path fill="#00c4fc" fill-rule="evenodd" d="M388.10938 463.34375l-.89844-.76953.89844-.75.94921.75-.94921.76953"/><g clip-path="url(#c)"><path fill="#50fcfc" fill-rule="evenodd" d="M393.46875 480.32813h1.90625l1.60938-1.72266 2.35546 1.72265h3.9961l-1.91016-1.94921-4.4414-1.8125-3.51563 3.76171"/></g><g clip-path="url(#d)"><path fill="#00e8fc" fill-rule="evenodd" d="M395.375 480.32813l1.60938-1.72266 2.35546 1.72265H395.375"/></g><g clip-path="url(#e)"><path fill="#50fcfc" fill-rule="evenodd" d="M418.13672 480.32813l1.04297-.67579 4.4375-1.99218 3.66015 2.66796h-9.14062"/></g><g clip-path="url(#f)"><path fill="#fff" fill-opacity="0" fill-rule="evenodd" d="M467.9961 480.32813H468V311.67188h-.0039H468v168.65625h-.0039"/></g><g clip-path="url(#g)"><path fill="none" stroke="#000" stroke-linecap="round" stroke-linejoin="round" stroke-miterlimit="10" stroke-width=".5" d="M147.51172 480.45313l-7.02344-.25"/></g><g clip-path="url(#h)"><path fill="none" stroke="#000" stroke-linecap="round" stroke-linejoin="round" stroke-miterlimit="10" stroke-width=".5" d="M147.51172 480.45313l1.07422 2.20703"/></g><g clip-path="url(#i)"><path fill="none" stroke="#000" stroke-linecap="round" stroke-linejoin="round" stroke-miterlimit="10" stroke-width=".5" d="M160.82813 480.42578l-7.02344-.19531"/></g><g clip-path="url(#j)"><path fill="none" stroke="#000" stroke-linecap="round" stroke-linejoin="round" stroke-miterlimit="10" stroke-width=".5" d="M160.82813 480.42578l1.08984 2.19922"/></g><g clip-path="url(#k)"><path fill="none" stroke="#000" stroke-linecap="round" stroke-linejoin="round" stroke-miterlimit="10" stroke-width=".5" d="M174.10547 479.8164l-6.95313 1.02344"/></g><g clip-path="url(#l)"><path fill="none" stroke="#000" stroke-linecap="round" stroke-linejoin="round" stroke-miterlimit="10" stroke-width=".5" d="M174.10547 479.8164l1.45703 1.97657"/></g><g clip-path="url(#m)"><path fill="none" stroke="#000" stroke-linecap="round" stroke-linejoin="round" stroke-miterlimit="10" stroke-width=".5" d="M187.41797 479.79688l-6.94531 1.0625"/></g><g clip-path="url(#n)"><path fill="none" stroke="#000" stroke-linecap="round" stroke-linejoin="round" stroke-miterlimit="10" stroke-width=".5" d="M186.40625 479.95313l.73438.98437"/></g><g clip-path="url(#o)"><path fill="none" stroke="#000" stroke-linecap="round" stroke-linejoin="round" stroke-miterlimit="10" stroke-width=".5" d="M200.58203 479.1836l-6.64453 2.29296"/></g><g clip-path="url(#p)"><path fill="none" stroke="#000" stroke-linecap="round" stroke-linejoin="round" stroke-miterlimit="10" stroke-width=".5" d="M200.58203 479.1836l1.79688 1.67187"/></g><g clip-path="url(#q)"><path fill="none" stroke="#000" stroke-linecap="round" stroke-linejoin="round" stroke-miterlimit="10" stroke-width=".5" d="M213.71094 478.7461l-6.27344 3.16406"/></g><g clip-path="url(#r)"><path fill="none" stroke="#000" stroke-linecap="round" stroke-linejoin="round" stroke-miterlimit="10" stroke-width=".5" d="M213.71094 478.7461l2.0039 1.41796"/></g><g clip-path="url(#s)"><path fill="none" stroke="#000" stroke-linecap="round" stroke-linejoin="round" stroke-miterlimit="10" stroke-width=".5" d="M226.83203 478.40625l-5.88281 3.84375"/></g><path fill="none" stroke="#000" stroke-linecap="round" stroke-linejoin="round" stroke-miterlimit="10" stroke-width=".5" d="M226.83203 478.40625l2.14844 1.1836"/><g clip-path="url(#t)"><path fill="none" stroke="#000" stroke-linecap="round" stroke-linejoin="round" stroke-miterlimit="10" stroke-width=".5" d="M239.70703 477.86328l-5.0039 4.92969"/></g><path fill="none" stroke="#000" stroke-linecap="round" stroke-linejoin="round" stroke-miterlimit="10" stroke-width=".5" d="M239.70703 477.86328l2.34375.73438"/><g clip-path="url(#u)"><path fill="none" stroke="#000" stroke-linecap="round" stroke-linejoin="round" stroke-miterlimit="10" stroke-width=".5" d="M252.65625 477.53906l-4.26953 5.58203"/></g><path fill="none" stroke="#000" stroke-linecap="round" stroke-linejoin="round" stroke-miterlimit="10" stroke-width=".5" d="M252.65625 477.53906l2.41797.40235"/><g clip-path="url(#v)"><path fill="none" stroke="#000" stroke-linecap="round" stroke-linejoin="round" stroke-miterlimit="10" stroke-width=".5" d="M266.01563 477.57422l-4.35938 5.50781"/></g><path fill="none" stroke="#000" stroke-linecap="round" stroke-linejoin="round" stroke-miterlimit="10" stroke-width=".5" d="M266.01563 477.57422l2.41406.4414"/><g clip-path="url(#w)"><path fill="none" stroke="#000" stroke-linecap="round" stroke-linejoin="round" stroke-miterlimit="10" stroke-width=".5" d="M279.42578 477.64844l-4.54687 5.35937"/></g><path fill="none" stroke="#000" stroke-linecap="round" stroke-linejoin="round" stroke-miterlimit="10" stroke-width=".5" d="M279.42578 477.64844l2.39453.52344"/><g clip-path="url(#x)"><path fill="none" stroke="#000" stroke-linecap="round" stroke-linejoin="round" stroke-miterlimit="10" stroke-width=".5" d="M292.84375 477.74219l-4.7539 5.17578"/></g><path fill="none" stroke="#000" stroke-linecap="round" stroke-linejoin="round" stroke-miterlimit="10" stroke-width=".5" d="M292.15234 478.49219l1.1875.3086"/><g clip-path="url(#y)"><path fill="none" stroke="#000" stroke-linecap="round" stroke-linejoin="round" stroke-miterlimit="10" stroke-width=".5" d="M305.6914 477.3789l-3.8203 5.89844"/></g><path fill="none" stroke="#000" stroke-linecap="round" stroke-linejoin="round" stroke-miterlimit="10" stroke-width=".5" d="M305.6914 477.3789l2.44532.21094"/><g clip-path="url(#z)"><path fill="none" stroke="#000" stroke-linecap="round" stroke-linejoin="round" stroke-miterlimit="10" stroke-width=".5" d="M318.41016 477.07031l-2.62891 6.51563"/></g><path fill="none" stroke="#000" stroke-linecap="round" stroke-linejoin="round" stroke-miterlimit="10" stroke-width=".5" d="M318.41016 477.07031l2.4414-.25781"/><g clip-path="url(#A)"><path fill="none" stroke="#000" stroke-linecap="round" stroke-linejoin="round" stroke-miterlimit="10" stroke-width=".5" d="M331.36328 476.94531l-1.90234 6.76563"/></g><path fill="none" stroke="#000" stroke-linecap="round" stroke-linejoin="round" stroke-miterlimit="10" stroke-width=".5" d="M331.36328 476.94531l2.39453-.51953"/><g clip-path="url(#B)"><path fill="none" stroke="#000" stroke-linecap="round" stroke-linejoin="round" stroke-miterlimit="10" stroke-width=".5" d="M344.04297 476.82813l-.63672 7"/></g><path fill="none" stroke="#000" stroke-linecap="round" stroke-linejoin="round" stroke-miterlimit="10" stroke-width=".5" d="M343.95313 477.84766l1.1289-.47657"/><g clip-path="url(#C)"><path fill="none" stroke="#000" stroke-linecap="round" stroke-linejoin="round" stroke-miterlimit="10" stroke-width=".5" d="M356.36328 476.88281l1.35938 6.89453"/></g><path fill="none" stroke="#000" stroke-linecap="round" stroke-linejoin="round" stroke-miterlimit="10" stroke-width=".5" d="M356.5586 477.88281l.95312-.77344"/><g clip-path="url(#D)"><path fill="none" stroke="#000" stroke-linecap="round" stroke-linejoin="round" stroke-miterlimit="10" stroke-width=".5" d="M368.07422 477.65625L372.63672 483"/></g><path fill="none" stroke="#000" stroke-linecap="round" stroke-linejoin="round" stroke-miterlimit="10" stroke-width=".5" d="M368.73828 478.4336l.44922-1.14063"/><g clip-path="url(#E)"><path fill="none" stroke="#000" stroke-linecap="round" stroke-linejoin="round" stroke-miterlimit="10" stroke-width=".5" d="M381.70313 477.41797l3.93359 5.82031"/></g><path fill="none" stroke="#000" stroke-linecap="round" stroke-linejoin="round" stroke-miterlimit="10" stroke-width=".5" d="M382.27734 478.26563l.57422-1.08594"/><g clip-path="url(#F)"><path fill="none" stroke="#000" stroke-linecap="round" stroke-linejoin="round" stroke-miterlimit="10" stroke-width=".5" d="M395.51953 477.13672l2.9336 6.38672"/></g><path fill="none" stroke="#000" stroke-linecap="round" stroke-linejoin="round" stroke-miterlimit="10" stroke-width=".5" d="M395.94531 478.0664l.7461-.97656"/><g clip-path="url(#G)"><path fill="none" stroke="#000" stroke-linecap="round" stroke-linejoin="round" stroke-miterlimit="10" stroke-width=".5" d="M410.02734 476.82422l.54688 7.00781"/></g><path fill="none" stroke="#000" stroke-linecap="round" stroke-linejoin="round" stroke-miterlimit="10" stroke-width=".5" d="M410.10547 477.84375l1.03515-.65625"/><g clip-path="url(#H)"><path fill="none" stroke="#000" stroke-linecap="round" stroke-linejoin="round" stroke-miterlimit="10" stroke-width=".5" d="M425.53125 477.38281l-3.82813 5.89063"/></g><path fill="none" stroke="#000" stroke-linecap="round" stroke-linejoin="round" stroke-miterlimit="10" stroke-width=".5" d="M425.53125 477.38281l2.44531.21485"/><g clip-path="url(#I)"><path fill="none" stroke="#000" stroke-linecap="round" stroke-linejoin="round" stroke-miterlimit="10" stroke-width=".5" d="M439.10156 477.5664l-4.33984 5.52735"/></g><path fill="none" stroke="#000" stroke-linecap="round" stroke-linejoin="round" stroke-miterlimit="10" stroke-width=".5" d="M439.10156 477.5664l2.41406.4297"/><g clip-path="url(#J)"><path fill="none" stroke="#000" stroke-linecap="round" stroke-linejoin="round" stroke-miterlimit="10" stroke-width=".5" d="M452.64453 477.76172l-4.79687 5.13672"/></g><path fill="none" stroke="#000" stroke-linecap="round" stroke-linejoin="round" stroke-miterlimit="10" stroke-width=".5" d="M452.64453 477.76172l2.3711.63672"/><g clip-path="url(#K)"><path fill="none" stroke="#000" stroke-linecap="round" stroke-linejoin="round" stroke-miterlimit="10" stroke-width=".5" d="M466.82422 479.02344l-6.52344 2.61328"/></g><g clip-path="url(#L)"><path fill="none" stroke="#000" stroke-linecap="round" stroke-linejoin="round" stroke-miterlimit="10" stroke-width=".5" d="M466.82422 479.02344l1.875 1.58203"/></g><g clip-path="url(#M)"><path fill="none" stroke="#000" stroke-linecap="round" stroke-linejoin="round" stroke-miterlimit="10" stroke-width=".5" d="M147.5039 466.75781l-7.0078.51172"/></g><path fill="none" stroke="#000" stroke-linecap="round" stroke-linejoin="round" stroke-miterlimit="10" stroke-width=".5" d="M147.5039 466.75781l1.3086 2.07422m11.9961-2.20312l-6.98438.76953m6.98437-.76953l1.37891 2.03125m11.92578-2.1172l-6.96484.94142m6.96484-.94141l1.42969 1.9961m11.79687-2.4375l-6.78906 1.82421m6.78906-1.82422l1.67188 1.79688m11.46875-2.28907l-6.4414 2.8086m6.4414-2.8086l1.92187 1.52344m-2.85937-1.11719l.96094.76172m13.11718-1.51172l-6.09375 3.5m6.09375-3.5l2.07813 1.3047m10.94531-1.73829l-5.50781 4.36328m5.50781-4.36328l2.25.98438m10.98828-1.07813l-5.35156 4.55078m5.35156-4.55078l2.28125.90235m11.01953-.91797l-5.32812 4.58203m5.32812-4.58203l2.28907.89453m10.8164-1.11719l-4.91015 5.02734m4.91015-5.02734l2.35547.6914m10.92578-.72656l-4.83984 5.09766m4.83984-5.09766l2.36328.66016m10.96485-.64844l-4.86328 5.07422m4.86328-5.07422l2.35937.66797m10.60938-.95703l-4.17188 5.65234m4.17188-5.65234l2.42578.35547m10.1914-.75781l-2.77734 6.45703m2.77735-6.45703l2.4453-.20313m10.83204.1875l-2.69922 6.48828m2.69922-6.48828l2.4414-.23047m10.70313.16407l-2.35937 6.62109m2.35937-6.6211l2.42578-.35937m10.21485.1914l-1.01172 6.95704m.86718-5.94531l1.15235-.41016m11.4336-.61719l.73827 6.98828m-.63281-5.97265l1.01953-.6836m10.76172.14453l3.59375 6.03516m12.47656-6.39844l-1.91797 6.76172m1.63672-5.77734l1.19922-.25781m12.52344-.6875l-2.17188 6.68359m1.85547-5.71094l1.21094-.21484m12.16406-.83203l-1.65625 6.83203m1.65625-6.83203l2.375-.60547m11.15625.66797l-2.09375 6.70703m2.09375-6.70703l2.41407-.45313m11.53515.72266l-3.35937 6.16797m3.35937-6.16797l2.45703.02344m12.60547 2.28906l-6.85547 1.54297"/><g clip-path="url(#N)"><path fill="none" stroke="#000" stroke-linecap="round" stroke-linejoin="round" stroke-miterlimit="10" stroke-width=".5" d="M466.98828 466.24219l1.60156 1.86328"/></g><g clip-path="url(#O)"><path fill="none" stroke="#000" stroke-linecap="round" stroke-linejoin="round" stroke-miterlimit="10" stroke-width=".5" d="M147.51172 453.6289l-7.02344.13673"/></g><path fill="none" stroke="#000" stroke-linecap="round" stroke-linejoin="round" stroke-miterlimit="10" stroke-width=".5" d="M147.51172 453.6289l1.19531 2.14454m12.11328-2.30078l-7.01172.45312m7.01172-.45312l1.28906 2.08593m-2.30859-2.01953l.64453 1.04297m13.6289-1.57422l-6.89062 1.3789m6.89063-1.3789l1.55469 1.89844m-2.5547-1.69531l.77735.94922m13.44531-1.51563l-6.70312 2.10938m6.70313-2.10938l1.75 1.72266m-2.72657-1.41406l.875.85937m13.27344-1.54687l-6.41797 2.86718m6.41797-2.86718l1.9336 1.5078m-2.8672-1.08984l.96876.75391m12.96875-1.72656l-5.79297 3.97656m5.79297-3.97656l2.17578 1.13281m-3.01953-.55469l1.08984.5664m12.92578-1.33983l-5.50781 4.36718m5.50781-4.36718l2.2461.98437m-3.04688-.34766l1.125.48829m13.07031-1.01563l-5.66797 4.14844m5.66797-4.14844l2.21094 1.0664m-3.03516-.46484l1.10547.53516m12.97656-1.21484l-5.55468 4.30468m5.55469-4.30468l2.23828 1.0039M266.08594 451l-4.5039 5.39453M266.08593 451l2.40234.50781m10.98828-.44531l-4.65234 5.26953m4.65234-5.26953l2.38672.57031m11.15625-.34765l-5.10547 4.82812m5.10547-4.82812l2.32422.78125m11.38281-.28516l-5.89062 3.83203m5.89062-3.83203l2.14453 1.1875m-3.0039-.6289l1.07422.59374m13.05468-1.22265l-5.79687 3.97265m5.79687-3.97265l2.17188 1.13672m-3.01563-.5586l1.08594.57032m12.875-1.40625l-5.40625 4.48828m5.40625-4.48828l2.26953.93359m10.97266-1.01953l-5.25781 4.66406m5.2578-4.66406l2.29688.85547m-3.0625-.17578l1.14844.42578m11.91797-1.89453l-3.23047 6.24218m3.23047-6.24219l2.45313-.02734m-2.92188.9336l1.22656-.01172m12.74219-.79297l-3.59766 6.03515m3.07422-5.15625l1.22266.0586m13.04687-.63281l-4.46093 5.42968m4.46093-5.42968l2.40625.48437m11.08594-.32812l-4.8164 5.11718m4.11718-4.375l1.1836.32422m13.36718-.42187l-5.89062 3.82812m5.03516-3.27344l1.07421.59766m12.66407-1.69531l-5.02735 4.91015m4.29688-4.1953l1.16797.375m13.4453-.32423l-6.16015 3.3789M439.1172 452.5l1.02344.67188m13.52734-.28125l-6.83984 1.61328m5.84375-1.37891l.80859.92188m13.16016-2.03907l-6.15625 3.38281"/><g clip-path="url(#P)"><path fill="none" stroke="#000" stroke-linecap="round" stroke-linejoin="round" stroke-miterlimit="10" stroke-width=".5" d="M466.64063 452.00781l2.05468 1.34375"/></g><g clip-path="url(#Q)"><path fill="none" stroke="#000" stroke-linecap="round" stroke-linejoin="round" stroke-miterlimit="10" stroke-width=".5" d="M147.51172 440.2539l-7.02344.25782"/></g><path fill="none" stroke="#000" stroke-linecap="round" stroke-linejoin="round" stroke-miterlimit="10" stroke-width=".5" d="M147.51172 440.2539l1.23047 2.125m-2.2539-2.08593l.61718 1.0625m13.66406-1.6211l-6.90625 1.29688m6.90625-1.29688l1.53125 1.91797m-2.53906-1.72656l.76953.95703m13.3711-1.78125l-6.54298 2.5625m6.54297-2.5625l1.86328 1.59766m-2.8164-1.22266l.9336.79688m13.14843-1.57032l-6.17188 3.35938m6.17188-3.35938l2.04688 1.35157m-2.94532-.86328l1.02344.67578m12.8711-1.65235l-5.53126 4.33594m5.53125-4.33594l2.2422.9961m-3.04688-.36328l1.12109.49609m12.7539-1.40625l-5.04687 4.89062m5.04688-4.89062l2.33593.7539m11.3086-.35937l-5.70313 4.10547m5.70313-4.10547l2.19922 1.08594m10.42578-1.80469l-4.32031 5.54297m4.3203-5.54297l2.41407.42188m-3.04297.3828l1.20703.21485m11.5664-1.6211l-1.98437 6.7422m1.98438-6.7422l2.40234-.49218m11.73438.85547l-3.625 6.01953m3.625-6.01953l2.44922.1289m11.53906.39454l-4.96875 4.96875m4.96875-4.96875l2.34375.71875m10.29687-1.2461l-3.62109 6.02344m3.6211-6.02344l2.44921.13282m12.16797 1.25l-6.22656 3.2578m6.22656-3.2578l2.02344 1.38672m-2.92969-.91016l1.01172.6914m13.4336-.6328l-6.67579 2.1875m6.67578-2.1875l1.76954 1.70312m-2.73829-1.38281l.88282.84765m13.27343-1.4961l-6.42187 2.84766m6.42187-2.84765l1.9336 1.51172m-2.86719-1.09766l.96484.7539m12.90235-1.83202l-5.65625 4.17187m5.65625-4.17187l2.21094 1.0625m-3.03516-.45313l1.10547.52734m11.9414-2.10546l-3.47265 6.10937m2.96875-5.21875l1.22656.03516m13.04297-.6211l-4.375 5.5m4.375-5.5l2.41406.44922m12.08985 3.26953l-6.75391-1.9375m5.77344 1.65625l.2539 1.19922M400.5 440.31641l-7.02734.13672m6.0039-.1172l.59766 1.07032m13.74219-.97656l-7.02735-.08985m6.0039.07422l.5625 1.09375m13.60548-2.19531l-6.6914 2.14453m6.6914-2.14453l1.75781 1.71094m-2.73047-1.40235l.8789.85938m13.4297-1.10547l-6.73047 2.01563m6.73047-2.01563l1.72656 1.7461m-2.70703-1.45313l.86328.875m13.5664.15234l-7-.625m7 .625l.95313 2.26172m-1.97266-2.35156l.47657 1.1289m13.86718-1.14062l-7.01562-.42188"/><g clip-path="url(#R)"><path fill="none" stroke="#000" stroke-linecap="round" stroke-linejoin="round" stroke-miterlimit="10" stroke-width=".5" d="M467.07031 440.59375l1.01953 2.23438"/></g><g clip-path="url(#S)"><path fill="none" stroke="#000" stroke-linecap="round" stroke-linejoin="round" stroke-miterlimit="10" stroke-width=".5" d="M147.46094 426.45703l-6.92188 1.22266"/></g><path fill="none" stroke="#000" stroke-linecap="round" stroke-linejoin="round" stroke-miterlimit="10" stroke-width=".5" d="M147.46094 426.45703l1.51172 1.9336m-2.51953-1.75782l.7539.96875m13.54297-1.26953l-6.8711 1.47266m6.8711-1.47266l1.58203 1.8789m-2.58203-1.66405l.78906.9414m13.35156-1.73437l-6.51953 2.6289m6.51953-2.6289l1.875 1.57812m11.36329-1.7539l-6.3672 2.98046m6.3672-2.98047l1.96093 1.47266m11.23438-1.69922l-6.1289 3.4336m6.1289-3.4336l2.0664 1.32813m11.1836-1.4414l-6 3.66015m6-3.66016l2.11328 1.25m-2.98438-.71875l1.0547.625m12.58202-1.84375l-4.89843 5.03516m4.1875-4.30078l1.17578.33984m13.4375-.32031l-6.07422 3.52734m5.1914-3.01562l1.04297.64843m12.84375-1.61328l-5.44922 4.4336m4.65625-3.78907l1.12891.47657m12.8164-1.3086l-5.125 4.8086m5.125-4.8086l2.32032.78907m11.375-.3047l-5.88672 3.83985m5.88672-3.83984l2.14844 1.1875m11.26953-1.01563l-6.09375 3.4961m5.20703-2.98828l1.03906.65234m13.60547 1.0039l-6.97656-.83203m5.96094.71094l.4453 1.14453m12.82032-3.98437l-4.84765 5.08984m4.84765-5.08984l2.36328.66015m11.5.00782l-5.9414 3.7539m5.9414-3.7539l2.1289 1.21484m-2.99608-.66797l1.0664.60547m13.28125-.85547l-6.27344 3.16406m6.27344-3.16406l2.0039 1.41406m11.22266-1.57812l-6.09765 3.48828m6.09765-3.48828l2.07813 1.3125m10.28515-2.39063l-4.1914 5.64453m4.1914-5.64453l2.42579.3711m10.9453-.32422l-4.30468 5.55078m4.30469-5.55078l2.41797.41406m-3.04297.39063l1.20703.21093m14.0625 1.30078l-6.96484.91797m6.96484-.91797l1.42578 1.9961m-2.4375-1.86328l.71094 1m13.48828-1.71094l-6.71094 2.07422m6.71094-2.07422l1.74219 1.72656m-2.71875-1.42578l1.74219 1.73047m12.24609-2.73438l-6.10547 3.48047m6.10547-3.48047l2.07422 1.31641m-2.96094-.8086l2.07422 1.3125m12.05078-1.94921l-5.94922 3.73828m5.94922-3.73828l2.1289 1.21875m-2.99609-.67578l1.0664.60937m13.65626.72266l-7.02735-.01172m7.02735.01172l1.14453 2.17187m-2.16797-2.17187l.57422 1.08594m13.76172-1.20704l-7.02344.23047"/><g clip-path="url(#T)"><path fill="none" stroke="#000" stroke-linecap="round" stroke-linejoin="round" stroke-miterlimit="10" stroke-width=".5" d="M467.07422 426.95313l1.22265 2.125"/></g><g clip-path="url(#U)"><path fill="none" stroke="#000" stroke-linecap="round" stroke-linejoin="round" stroke-miterlimit="10" stroke-width=".5" d="M147.38672 412.8125l-6.77344 1.8789"/></g><path fill="none" stroke="#000" stroke-linecap="round" stroke-linejoin="round" stroke-miterlimit="10" stroke-width=".5" d="M147.38672 412.8125l1.6875 1.78125m-2.67188-1.50781l.84375.89062m13.3047-1.58984l-6.47267 2.73047m6.47266-2.73047l1.90625 1.55078m-2.84766-1.15234l.95313.77343m13.02344-1.70312l-5.91406 3.79687m5.91406-3.79687l2.14062 1.20312m11.46094-.65625l-6.48438 2.69922m6.48438-2.69922l1.89844 1.5586m11.3086-1.79688l-6.26563 3.17969m6.26562-3.17969l2.00781 1.41016m-2.92187-.94922l1.0039.70703m13.40625-.73828l-6.6328 2.3164m5.66796-1.97656l.90234.83204m13.53907-.52735l-6.95313 1.03125m6.95313-1.03125l1.45703 1.97656m11.83594-2.10156l-6.91016 1.28125m6.91016-1.28125l1.52734 1.91797m-2.53125-1.73047l.76172.95703m13.57812-1.01953l-6.94922 1.03125m6.94922-1.03125l1.45703 1.97266m11.58204-2.91406l-6.39844 2.91015m6.39844-2.91015l1.9453 1.49609m11.08204-2.00781l-5.82031 3.9375m5.82031-3.9375l2.16797 1.14843m11.17578-1.10546l-5.8789 3.85156m5.8789-3.85156l2.14844 1.17968m11.6914.16407l-6.92968 1.16406m5.92187-.9961l.7461.97657m13.5703-1.1875l-6.91796 1.25m5.91015-1.07032l.76172.96485m13.61329-.42969l-7.02344-.17969m7.02344.17969l1.09765 2.19531m12.17188-2.86328l-6.9297 1.15625m6.9297-1.15625l1.49218 1.94922m11.50782-2.92969l-6.30079 3.11719m6.30079-3.11719l1.99218 1.42969m11.0625-1.8711l-5.78125 3.9961m5.78125-3.9961l2.1797 1.12891m-3.01954-.54687l1.08984.5625m12.89454-1.3711l-5.4375 4.44922m5.4375-4.44922l2.26171.94922m-3.05468-.30078l2.26562.94922m12.07031-1.28125l-5.89453 3.82031m5.89453-3.82031l2.14454 1.1914m-3-.63671l2.14453 1.1914m11.84765-1.99609l-5.53906 4.32031m5.53906-4.32031l2.24219 1m-3.04688-.3711l1.1211.5m13.0586-1.05077l-5.66016 4.16406m5.66015-4.16406l2.21485 1.0625m-3.03516-.45704l1.10547.53125m13.07031-1.08203l-5.73828 4.05469m5.73828-4.05469l2.1914 1.10157m-3.02734-.51172l1.09766.55078m13.21484-.89063l-6.0625 3.55078m6.0625-3.55078l2.08985 1.28907m-2.97266-.76954l1.04688.64063m12.25-2.17969l-4.25782 5.59375"/><g clip-path="url(#V)"><path fill="none" stroke="#000" stroke-linecap="round" stroke-linejoin="round" stroke-miterlimit="10" stroke-width=".5" d="M465.6914 410.95703l2.41798.39453"/></g><g clip-path="url(#W)"><path fill="none" stroke="#000" stroke-linecap="round" stroke-linejoin="round" stroke-miterlimit="10" stroke-width=".5" d="M147.33984 399.35156l-6.67968 2.17188"/></g><path fill="none" stroke="#000" stroke-linecap="round" stroke-linejoin="round" stroke-miterlimit="10" stroke-width=".5" d="M147.33984 399.35156l1.76563 1.70313m11.3086-2.26953l-6.19923 3.30859m6.19922-3.3086l2.03516 1.3672m11.16406-1.57032l-5.96484 3.71094m5.96484-3.71094l2.1211 1.23047m11.67578 1.20313l-6.9297-1.15235m6.9297 1.15235l.78125 2.32421m12.55859-2.5l-6.98047-.80468m6.98047.80468l.89844 2.28516m12.4336-2.90625l-7.01173.4375m7.01172-.4375l1.28516 2.08984m11.95312-2.625l-6.85937 1.51172m6.85937-1.51172l1.59375 1.8672m-2.58984-1.64845l.79297.9336m13.40234-1.57031l-6.625 2.34375m6.625-2.34375l1.8086 1.65625m11.17968-2.33594l-5.97265 3.70312m5.97265-3.70312l2.1211 1.23437m10.79687-1.75781l-5.17969 4.75m5.1797-4.75l2.3125.82031m11.09374-.71484l-5.36328 4.53906m5.36328-4.53906l2.28125.91015m11.09766-.83593l-5.48828 4.39062m5.48828-4.39062l2.25.97265m11.1836-.8125l-5.72657 4.07032m4.89453-3.47657l1.09766.55079m13.58984.02343l-6.8086 1.73438m5.82032-1.48047l.82422.90625m13.32031-1.63281l-6.49219 2.68359m6.49219-2.6836l1.89453 1.5625m11.48047-1.41796l-6.60937 2.39453m5.64453-2.04688l.91406.82422m12.71484-2.27734l-5.3086 4.60156m4.53907-3.92969l1.14453.44141m13.375-.48438l-6.17968 3.34375m6.17968-3.34375l2.04688 1.35938m10.52344-2.30469l-4.6875 5.23828m4.6875-5.23828l2.3828.58594m-3.0664.17578l1.1914.29297m13.25-.57422l-5.57421 4.27735m5.57422-4.27735l2.23437 1.01563m-3.04687-.39454l1.11719.50782m13.13671-.95703l-5.82812 3.92968m5.82812-3.92968l2.16407 1.15234m-3.01172-.57813l1.08203.57422m12.75-1.5664l-5.16406 4.76562m5.16406-4.76562l2.3164.8125m-3.0703-.11719l1.16015.40234m12.59375-1.39843l-4.53516 5.36718m4.53516-5.36718l2.39844.51953m-3.0586.26172l1.19922.26171m13.47656-.23828l-5.9375 3.76172m5.9375-3.76172l2.13282 1.21485m-2.9961-.66797l1.0664.60547m12.97657-1.35156l-5.66406 4.15625"/><g clip-path="url(#X)"><path fill="none" stroke="#000" stroke-linecap="round" stroke-linejoin="round" stroke-miterlimit="10" stroke-width=".5" d="M466.39453 398.35938l2.21094 1.0664"/></g><path fill="none" stroke="#000" stroke-linecap="round" stroke-linejoin="round" stroke-miterlimit="10" stroke-width=".5" d="M465.57031 398.96484l1.10547.53125"/><g clip-path="url(#Y)"><path fill="none" stroke="#000" stroke-linecap="round" stroke-linejoin="round" stroke-miterlimit="10" stroke-width=".5" d="M147.33203 386.01563l-6.66406 2.21875"/></g><path fill="none" stroke="#000" stroke-linecap="round" stroke-linejoin="round" stroke-miterlimit="10" stroke-width=".5" d="M147.33203 386.01563l1.77734 1.6914m11.63282-1.36719l-6.85156 1.56641m6.85156-1.5664l1.60547 1.85546m11.73047-1.7461l-6.89454 1.34767m6.89453-1.34766l1.54688 1.90625m-2.55078-1.71094l.77344.95313m13.53906.23828l-6.88281-1.42578m6.8828 1.42578l.6875 2.35547m12.40235-1.65235l-6.42969-2.83203m6.4297 2.83203l.17968 2.44922m13.42578-3.63281l-7.01172-.46094m7.01172.46094l1.00781 2.23437m12.25-3.14062l-6.89843 1.35156m6.89843-1.35156l1.54688 1.90234m-2.55078-1.70703l.77344.95313m13.29296-1.9297l-6.39453 2.91017m6.39453-2.91016l1.94532 1.49219m-2.875-1.07032l.97265.7461m12.9414-1.7461l-5.73046 4.06641m5.73047-4.0664l2.1914 1.10156m-3.02734-.50782l1.09766.55079m12.74219-1.52344l-5.10938 4.82422m5.10938-4.82422l2.32421.78515m-3.0664-.08203l1.16015.39063m12.90625-1.08203l-5.1289 4.80078m5.1289-4.80078l2.32422.79687m11.42188-.23047l-5.99219 3.66797m5.99219-3.66797l2.11328 1.2461m11.21875-1.22266l-6.02344 3.6211m5.14453-3.09376l1.05469.63282m13.08594-1.2422l-5.91797 3.78517m5.0586-3.23438l1.0664.60156m13.0625-1.22656l-5.82422 3.9336m4.97656-3.35938l1.08203.57422m12.79688-1.51172l-5.25781 4.66406m4.49218-3.98828l1.14844.42969m13.5039-.22656l-6.40234 2.90234m6.40235-2.90235l1.9414 1.4961m11.3711-1.5l-6.39453 2.91015m6.39453-2.91015l1.94531 1.49219m-2.875-1.07032l.97266.7461m12.91796-1.77344l-5.6914 4.1211m5.6914-4.1211l2.20313 1.07813m11.02344-1.19922l-5.51172 4.36328m5.51172-4.36328l2.2461.98437m-3.05079-.34765l1.125.48828m13.11719-.95704l-5.75782 4.02735m5.75782-4.02735l2.1875 1.11329m-3.02344-.52735l1.09375.5586m12.73437-1.54297l-5.10937 4.82422m5.10937-4.82422l2.32422.78515m-3.0703-.08203l1.16405.39063m12.69532-1.28906l-4.70704 5.21484m4.70704-5.21485l2.3789.59375m-3.0625.16407l1.1875.29687m13.27344-.54687l-5.63281 4.19922m5.63281-4.19922l2.21875 1.05078m-3.03516-.4375l1.10547.52344m13.24219-.8125l-6.0625 3.55078"/><g clip-path="url(#Z)"><path fill="none" stroke="#000" stroke-linecap="round" stroke-linejoin="round" stroke-miterlimit="10" stroke-width=".5" d="M466.59375 385.34766l2.08984 1.28515"/></g><path fill="none" stroke="#000" stroke-linecap="round" stroke-linejoin="round" stroke-miterlimit="10" stroke-width=".5" d="M465.71094 385.86328l1.04297.64453"/><g clip-path="url(#aa)"><path fill="none" stroke="#000" stroke-linecap="round" stroke-linejoin="round" stroke-miterlimit="10" stroke-width=".5" d="M147.25781 372.4961l-6.51562 2.625"/></g><path fill="none" stroke="#000" stroke-linecap="round" stroke-linejoin="round" stroke-miterlimit="10" stroke-width=".5" d="M147.25781 372.4961l1.8789 1.57812m-2.82421-1.19531l.9375.78906m13.48828-.64453l-6.84766 1.57031m6.84766-1.57031l1.60938 1.85547m-2.60547-1.62891l.80469.92969m13.59375-.55078l-7.01954.35937m7.01953-.35937l1.26172 2.10156m12.01172-1.36719l-6.9375-1.10937m6.9375 1.10937l.79688 2.32031m12.51172-3.48437l-6.92188 1.21875m6.92188-1.21875l1.5078 1.9336m11.83595-1.73438l-6.98047.8164m6.98047-.8164l1.39453 2.01953m11.86719-2.32813l-6.875 1.4375m6.875-1.4375l1.57421 1.88282m11.54688-2.51954l-6.48438 2.71094m6.48438-2.71094l1.89453 1.5547m10.85156-2.48048l-5.34765 4.5586m5.34765-4.5586l2.28125.90235m10.67969-1.26172l-4.64063 5.28125m4.64063-5.28125l2.38672.5664m11.03515-.46875l-4.85156 5.08594m4.85156-5.08594l2.35938.66407m11.53516.0586l-6.01172 3.64062m6.01172-3.64063l2.10546 1.25781m11.44141-.80078l-6.47656 2.72656m6.47656-2.72656l1.90235 1.54688m11.43359-1.5l-6.51953 2.6289m6.51953-2.6289l1.8789 1.57812m11.55079-1.2461l-6.7461 1.96876m5.76172-1.6836l.85938.87891m13.4375-1.17187l-6.7422 1.98046m6.7422-1.98046l1.71484 1.7539m11.6289-1.64844l-6.80077 1.77344m6.80078-1.77344l1.66015 1.8047m11.59375-2.01563l-6.67578 2.19531m6.67578-2.19531l1.76953 1.69531m-2.74218-1.3789l.88671.85156m13.16797-1.71485l-6.21093 3.28906m6.21093-3.28906l2.03125 1.375m-2.9375-.89844l1.01563.6875m13.2461-1.08203l-6.29298 3.125m6.29297-3.125l1.9961 1.4297m11.0625-1.8672l-5.78125 4m5.78125-4l2.17968 1.12891m-3.01953-.54688l1.08985.5625m13.14062-1.02734l-5.9336 3.76563m5.9336-3.76563l2.13281 1.21094m-2.99609-.66406l1.0664.60546m13.0547-1.24218l-5.81641 3.94531m5.8164-3.94531l2.16797 1.14453m-3.01562-.57031l1.08594.5703m13.01171-1.23827l-5.6875 4.1289m5.6875-4.1289l2.20313 1.07812m-3.03125-.47656l1.10156.53906M466.57422 372l-6.02735 3.61719"/><g clip-path="url(#ab)"><path fill="none" stroke="#000" stroke-linecap="round" stroke-linejoin="round" stroke-miterlimit="10" stroke-width=".5" d="M466.57422 372l2.10156 1.26563"/></g><g clip-path="url(#ac)"><path fill="none" stroke="#000" stroke-linecap="round" stroke-linejoin="round" stroke-miterlimit="10" stroke-width=".5" d="M147.23047 359.10938l-6.46094 2.76562"/></g><path fill="none" stroke="#000" stroke-linecap="round" stroke-linejoin="round" stroke-miterlimit="10" stroke-width=".5" d="M147.23047 359.10938l1.91016 1.53906m11.65234-.64453l-6.95703.98046m6.95703-.98046l1.44531 1.98437m11.8789-1.0664l-6.97265-.85938m6.97266.85938l.8789 2.29296m-1.89453-2.41796l.4414 1.14843m13.83985-.73437l-6.8789-1.4336m6.8789 1.4336l.6875 2.35547m-1.6875-2.5625l.34375 1.17578m14.04297-1.53125l-7.01953-.3125m7.01953.3125l1.05469 2.21875m-2.07422-2.26172l.52734 1.10547m13.80078-1.51172l-7.0039.58984m7.0039-.58984l1.32813 2.0586m11.91016-2.54298l-6.85157 1.5586m6.85157-1.5586l1.60547 1.85547m11.35156-2.78906l-6.13672 3.42578m6.13672-3.42578l2.0625 1.32813m10.59375-2.17579l-4.8164 5.1172m4.8164-5.1172l2.36719.64454m10.6914-.86329l-4.30469 5.5547m4.3047-5.5547l2.41796.41407m11.69531.45312l-5.89844 3.82031m5.89844-3.8203l2.14453 1.1953m11.48828-.5664l-6.53906 2.5664m6.53906-2.5664l1.8672 1.59375m11.54687-1.3164L300.41406 361.5m6.73438-2.01172l1.72265 1.7461m11.71485-1.14844l-6.98047.8125m6.98047-.8125l1.39453 2.01953m11.92578-1.96094l-6.99219.69922m6.99219-.69922l1.36328 2.03906m11.94531-2.11718l-6.97656.85156m6.97656-.85156l1.40625 2.01171m11.85938-2.30468l-6.8789 1.4375m6.8789-1.4375l1.57031 1.88672m-2.57031-1.67579l.78515.94141m13.51563-1.22265l-6.84766 1.58203m6.84766-1.58204l1.60938 1.85157m-2.60547-1.6211l.80468.92579m13.35547-1.64063l-6.54687 2.55078m6.54687-2.55078l1.85938 1.59766m-2.8125-1.22657l.92969.80079m13.42578-.91407l-6.72266 2.03516m6.72266-2.03516l1.73046 1.73828m-2.70703-1.4453l.86329.87108m13.5078-.85937l-6.8828 1.42578m6.8828-1.42578l1.56641 1.88672m-2.5664-1.67969l.78125.94531m13.51172-1.25l-6.83594 1.6211m6.83594-1.6211l1.62109 1.83985m-2.61719-1.60547l.8125.92187m13.45313-1.32812l-6.7461 1.96094m6.7461-1.96094l1.71094 1.75781m-2.69141-1.47265l.85547.8789m13.35547-1.42187l-6.57813 2.47656m6.57813-2.47656l1.83984 1.625m-2.79688-1.26172l.92188.8086m13.21094-1.48829l-6.30078 3.11328"/><g clip-path="url(#ad)"><path fill="none" stroke="#000" stroke-linecap="round" stroke-linejoin="round" stroke-miterlimit="10" stroke-width=".5" d="M466.71094 358.9375l1.99219 1.42969"/></g><path fill="none" stroke="#000" stroke-linecap="round" stroke-linejoin="round" stroke-miterlimit="10" stroke-width=".5" d="M465.79688 359.39063l.99609.71484"/><g clip-path="url(#ae)"><path fill="none" stroke="#000" stroke-linecap="round" stroke-linejoin="round" stroke-miterlimit="10" stroke-width=".5" d="M147.5039 346.9414l-7.0078.47657"/></g><path fill="none" stroke="#000" stroke-linecap="round" stroke-linejoin="round" stroke-miterlimit="10" stroke-width=".5" d="M147.5039 346.9414l1.29688 2.08204m12.01563-2.14453l-7.00391.59765m7.0039-.59765l1.33204 2.0625m-2.35156-1.97657l.66796 1.03125m13.6797-.78125l-7.02735-.07421m7.02734.07421l1.1289 2.1797m-2.15234-2.1875l.5625 1.08983m13.76563-1.35937l-7.00781.48047m7.0078-.48047l1.30079 2.08203m12.02344-1.89453l-7.02735.10938m7.02735-.10938l1.1836 2.14844m12.07421-2.72656l-6.91016 1.26562m6.91016-1.26563l1.52344 1.92188m11.60547-2.57813l-6.53907 2.57813m6.53907-2.57813l1.86328 1.58985m11.0625-2.3164l-5.76172 4.02734m5.76172-4.02735l2.1836 1.11719m10.9453-1.35938l-5.38672 4.51172m5.38672-4.51171l2.27344.91796m11.38672-.42578l-6.07813 3.52735m6.07813-3.52735l2.08203 1.29688m11.59375-.41797L273.75 348.0625m6.80078-1.76953l1.66016 1.8086m11.72656-1.46094l-6.94531 1.07812m6.94531-1.07813l1.47266 1.96094m11.875-1.6836l-7.00782.51954m7.00782-.51953l1.30859 2.07422m12.01172-1.96875l-7.01953.3086m7.01953-.3086l1.2461 2.11719m-2.26563-2.07032l.6211 1.05469m13.70312-1.26953l-6.9961.64844m6.9961-.64844l1.34765 2.05078m11.98047-1.7461l-7.02734.03516m7.02734-.03515l1.16406 2.16015m-2.18359-2.15625l.57813 1.08203m13.7578-.99609l-7.02734-.14453m7.02735.14453l1.10547 2.1875m-2.12891-2.20703l.55469 1.09375m13.76562-1.50781l-6.98828.72265m6.98828-.72265l1.36719 2.03515m-2.38281-1.92969l1.36719 2.03516m12.80468-2.875l-6.67578 2.1914m6.67578-2.1914l1.77344 1.69922m-2.74219-1.3789l1.76953 1.69921m12.42579-2.26562l-6.4961 2.6875m6.4961-2.6875l1.89062 1.5586m-2.83594-1.16798l1.89063 1.5586m12.39062-1.89063l-6.53906 2.57031m6.53906-2.5703l1.86719 1.59374m-2.8164-1.22265l1.86328 1.59765m12.40234-1.96875l-6.53906 2.5664m6.53906-2.5664l1.86328 1.59375m-2.8164-1.22265l.93359.80078m13.25781-1.35157l-6.38672 2.92579m6.38672-2.92579l1.94922 1.48829m-2.8789-1.0625l1.94921 1.48828m12.35938-1.76563l-6.51563 2.6289m6.51563-2.6289l1.8789 1.57813m-2.82422-1.19532l.9375.78907m13.46875-.72657l-6.80859 1.7422"/><g clip-path="url(#af)"><path fill="none" stroke="#000" stroke-linecap="round" stroke-linejoin="round" stroke-miterlimit="10" stroke-width=".5" d="M466.96484 346.3086l1.65235 1.8125"/></g><path fill="none" stroke="#000" stroke-linecap="round" stroke-linejoin="round" stroke-miterlimit="10" stroke-width=".5" d="M465.97656 346.5586l.82422.91015"/><g clip-path="url(#ag)"><path fill="none" stroke="#000" stroke-linecap="round" stroke-linejoin="round" stroke-miterlimit="10" stroke-width=".5" d="M147.51172 333.83203l-7.02344.0625"/></g><path fill="none" stroke="#000" stroke-linecap="round" stroke-linejoin="round" stroke-miterlimit="10" stroke-width=".5" d="M147.51172 333.83203l1.17187 2.15625m-2.1914-2.14844l.58594 1.07813m13.73046-1.42969l-6.98828.75m6.98828-.75l1.37891 2.03125m-2.39453-1.92187l.6875 1.01562m13.66406-.6875l-7.02734-.125m7.02734.125l1.10938 2.1875m-2.13282-2.20703l1.11328 2.1875m13.22266-2.13672l-7.02344-.1875m7.02344.1875l1.09375 2.19531m-2.11719-2.22265l.55078 1.09765m13.65625-2.11718l-6.76171 1.90625m6.76172-1.90625l1.69921 1.77343m-2.68359-1.49609l.85156.88672m13.38281-1.3711l-6.6328 2.32032m6.6328-2.32031l1.8047 1.66406m-2.76954-1.32813l.90234.83594m13.28125-1.41797l-6.4375 2.8125m6.4375-2.8125l1.92188 1.52735m11.26172-1.79688l-6.17578 3.35156m6.17578-3.35156l2.04687 1.35156m11.57813-.5664l-6.79688 1.78125m6.79688-1.78125l1.66406 1.80078m11.72266-1.46485l-6.9375 1.10938m6.9375-1.10938l1.48047 1.95704m11.82812-2.00782l-6.92187 1.21094m6.92187-1.21094l1.50781 1.9336m11.85547-1.46094l-7.02343.26172m7.02343-.26172l1.23047 2.125m12.04297-1.4336l-6.9375-1.11718m6.9375 1.11719l.79297 2.3203m12.55469-2.57812l-7.00391-.60156m7.0039.60156l.96094 2.2539m-1.98046-2.34374l.48046 1.1289m13.8672-1.3125l-7.02735-.05468m7.02734.05469l1.13281 2.17578m-2.15625-2.1836l.56641 1.08985m13.76953-1.01954l-7.02344-.17968m7.02344.17969l1.09766 2.1953m-2.1211-2.22265l.55079 1.09766m13.78906-1.05078l-7.02344-.21875m7.02344.21875l1.08203 2.20312m-2.10547-2.23437l.54297 1.10156m13.75781-1.69531l-6.95312 1.03125m6.95312-1.03125l1.45703 1.97265m-2.46875-1.82422l.73047.98829m13.26172-2.19141l-6.28516 3.14062m6.28516-3.14062l2 1.42187m-2.91406-.96484l1 .71094m13.26953-1.08985l-6.36328 2.98438m6.36328-2.98438l1.96094 1.47266m-2.88672-1.03906l.98047.73828m13.3828-.875l-6.60937 2.39062m6.60938-2.39062l1.82031 1.64453m-2.78125-1.29688l.91016.82032m13.40625-1.04688l-6.6914 2.14844m6.6914-2.14844l1.75781 1.71094m-2.73047-1.39844l1.75781 1.71094m12.38672-2.39453l-6.40234 2.89062m6.40234-2.89062l1.9414 1.5m-2.87108-1.07813l1.9414 1.5m12.16797-2.1914l-6.13281 3.42969m6.13281-3.4297l2.0625 1.32813m-2.95312-.82812l1.03125.66406m13.28515-.95313l-6.35156 3.00782"/><g clip-path="url(#ah)"><path fill="none" stroke="#000" stroke-linecap="round" stroke-linejoin="round" stroke-miterlimit="10" stroke-width=".5" d="M466.73828 332.35938l1.96875 1.46484"/></g><g clip-path="url(#ai)"><path fill="none" stroke="#000" stroke-linecap="round" stroke-linejoin="round" stroke-miterlimit="10" stroke-width=".5" d="M465.8125 332.79688l1.96875 1.46484"/></g><g clip-path="url(#aj)"><path fill="none" stroke="#000" stroke-linecap="round" stroke-linejoin="round" stroke-miterlimit="10" stroke-width=".5" d="M147.51172 320.4414l-7.02344.21094"/></g><path fill="none" stroke="#000" stroke-linecap="round" stroke-linejoin="round" stroke-miterlimit="10" stroke-width=".5" d="M147.51172 320.4414l1.21484 2.13282m-2.23828-2.10156l.60938 1.0664m13.73047-1.09375l-7.02344.20703m7.02344-.20703l1.21484 2.13281m-2.23828-2.10156l.60937 1.0664m13.70313-1.4375l-6.97266.88282m6.97266-.88281l1.41406 2.0039m-2.42969-1.875l.70703 1.00391m13.45703-1.83984l-6.64062 2.30078m6.64063-2.30078l1.79687 1.66797m-2.76172-1.33594l.89844.83594m12.48047-2.5625l-4.83985 5.08984m4.83985-5.08984l2.36719.65625m-3.07032.08203l1.1836.32812m13.39453-.38281l-5.96094 3.72266m5.96094-3.72266l2.125 1.22656m11.5625-.41797l-6.70313 2.10157m6.70313-2.10157l1.75 1.72266m11.66015-1.35938l-6.89453 1.375m6.89453-1.375l1.55078 1.90235m11.82422-1.42969l-7.01562.42969m7.01562-.42969l1.28125 2.09375m12.03907-1.73437l-7.02344-.28907m7.02344.28907l1.05859 2.21484m12.23828-2.7461l-6.98437.77344m6.98437-.77343l1.38281 2.02734m11.92188-2.11328l-6.96484.94531m6.96484-.94531l1.42969 1.99219m11.7539-.46875L300.42578 319.5m6.70703 2.09766l.45313 2.41015m12.91015-2.57422l-6.80078-1.77343m6.80078 1.77343l.56641 2.38672m12.85547-3.08594l-7.01563-.37109m7.01563.3711l1.03906 2.22265m12.25-2.875l-6.96484.9336m6.96484-.9336l1.42969 1.99219m11.83984-.78906l-6.8711-1.47657m5.8711 1.26172l.33594 1.17969m14.04297-1.38672l-7-.6289m5.98047.53515l.47656 1.13281m13.45313-3.01953l-6.1875 3.32813m6.1875-3.32813l2.03906 1.36328m11.35547-1.20312l-6.34766 3.01172m5.42578-2.57422l.98438.73047m13.1875-1.29688l-6.21875 3.26953m5.3164-2.79296l1.01172.6875m13.60547.67968l-7.01562-.41797m5.99218.35547l.51172 1.11719m13.5625-2.61719l-6.48828 2.70703m5.54297-2.3125l.94922.77735m12.89844-1.90235l-5.66016 4.16407m5.66016-4.16407l2.21093 1.0625m-3.03515-.45703l1.10547.53125m12.96875-1.21875l-5.53125 4.33203"/><g clip-path="url(#ak)"><path fill="none" stroke="#000" stroke-linecap="round" stroke-linejoin="round" stroke-miterlimit="10" stroke-width=".5" d="M466.32813 318.38281l2.24218.99219"/></g><g clip-path="url(#al)"><path fill="none" stroke="#000" stroke-linecap="round" stroke-linejoin="round" stroke-miterlimit="10" stroke-width=".5" d="M465.52344 319.01172l2.24219.9961"/></g><path fill="none" stroke="#000" stroke-linecap="round" stroke-linejoin="round" stroke-miterlimit="10" stroke-width=".5" d="M464.71875 319.64063l1.1211.5"/><path fill="#00f" fill-rule="evenodd" d="M388.23828 472.08594h8.61719V461.9414h-8.61719v10.14453"/><path fill="azure" fill-rule="evenodd" d="M390.07031 463.77344h.83594v2.82422h3.28516v-2.82422h.83203v6.48047h-.83203v-2.91797h-3.28516v2.91797h-.83594v-6.48047"/><path fill="#ff3030" fill-rule="evenodd" d="M366.74219 432.14063h7.6914v-10.14454h-7.6914v10.14454"/><path fill="azure" fill-rule="evenodd" d="M368.57422 423.82813h.83203v5.73828h3.19531v.74218h-4.02734v-6.48046"/><path fill="#ff3030" fill-rule="evenodd" d="M295.72656 414.38672h7.69531v-10.14453h-7.6953v10.14453"/><path fill="azure" fill-rule="evenodd" d="M297.5586 406.07422h.83593v5.74219h3.1914v.73828h-4.02734v-6.48047"/><path fill="#ff3030" fill-rule="evenodd" d="M202.52344 409.94922h7.6914v-10.14453h-7.6914v10.14453"/><path fill="azure" fill-rule="evenodd" d="M204.35547 401.63672h.83203v5.73828h3.19531v.74219h-4.02734v-6.48047"/><path fill="#ff3030" fill-rule="evenodd" d="M184.76953 383.32031h7.6914v-10.14844h-7.6914v10.14844"/><path fill="azure" fill-rule="evenodd" d="M186.60156 375.00781h.83203v5.73828h3.19532v.7422h-4.02735v-6.48048"/><path fill="#ffffe0" fill-rule="evenodd" d="M355.0586 396.86719h22.17968v-10.1914H355.0586v10.1914"/><path fill-rule="evenodd" d="M358.5586 388.50781h.5078v6.29688h-.78515v-4.49219h-1.39063v-.55469l.5625-.0664.25-.05079.23047-.08984.20313-.14453.17578-.20703.14063-.29688.10546-.39453m4.8125 0l.23047.01953.21875.0547.20703.08983.19922.1211.1836.14844.17187.17578.30078.42187.24219.49219.17969.54688.11328.57812.03515.58984-.03515.59375-.11328.58594-.17969.55469-.24219.5-.30078.42969-.17187.17968-.1836.15235-.19922.125-.20703.08984-.21875.0586-.23047.01953-.22656-.01954-.21875-.05859-.21094-.08984-.1953-.125-.1836-.15235-.17188-.17968-.30078-.4297-.2461-.5-.17968-.55468-.10938-.58594-.03906-.59375h.83203l.03125.56641.08204.5039.125.44141.16406.375.1875.30078.21094.22266.22265.13672.22656.04687.22657-.04687.22265-.13672.21094-.22266.1914-.30078.16407-.375.125-.4414.08203-.50391.02734-.5664-.02734-.5586-.08203-.5-.125-.4375-.16406-.36328-.19141-.29297-.21094-.21484-.22265-.13282-.22657-.04296-.22656.04296-.22265.13282-.21094.21484-.1875.29297-.16406.36328-.125.4375-.08204.5-.03125.5586h-.83203l.03906-.58985.10938-.57813.17969-.54687.2461-.49219.30077-.42187.17188-.17578.1836-.14844.1953-.1211.21094-.08984.21875-.05469.22656-.01953m5.09375 0h.50782v6.29688h-.78516v-4.49219h-1.39063v-.55469l.5586-.0664.2539-.05079.23047-.08984.20313-.14453.17187-.20703.14454-.29688.10546-.39453m2.82032 2.17578h.78906l.01953-.3164.0586-.28516.10156-.2539.13671-.21485.1836-.17578.22265-.1289.26563-.07813.3086-.02735.23827.01954.22266.0625.20313.10156.17968.14062.14844.17188.11328.20703.07031.23438.02735.26562-.02344.26953-.0664.22266-.10938.1914-.15625.17188-.19922.16406-.2461.16406-.63671.39063-.53516.3125-.4375.3164-.34765.32422-.26172.33594-.1914.35156-.125.3711-.07032.39062-.01953.42188h4.21094v-.74219h-3.33204l.08204-.28516.11328-.23437.14843-.20313.1875-.17968.23047-.17188.28125-.17578.71485-.41797.41796-.20312.34375-.23047.28125-.2539.21875-.26563.16407-.27735.11328-.28515.0625-.28516.01953-.28125-.04297-.38281-.11719-.34766-.1914-.3086-.25-.26171-.30078-.21485-.34766-.15625-.3789-.09765-.40626-.03516-.4375.03125-.39843.10156-.35157.16407-.30468.23437-.25.30469-.1875.375-.11329.44531-.04296.51953"/><path fill="#ffffe0" fill-rule="evenodd" d="M209.41797 370.23438h22.17969v-10.19141h-22.1797v10.1914"/><path fill-rule="evenodd" d="M212.91797 361.875h.50781v6.29688h-.78516v-4.48829H211.25v-.55859l.5625-.0625.25-.05469.23047-.08984.20312-.14063.17578-.21093.14063-.29297.10547-.39844m4.8125 0l.23047.01953.21875.0586.20703.08593.19922.1211.1836.15234.17187.17578.30078.41797.24219.49219.17968.54687.11328.58203.03907.58985-.03907.59375-.11328.58203-.17969.55469-.24218.5039-.30078.42578-.17188.1797-.1836.15233-.19921.125-.20703.09375-.21875.0547-.23047.01952-.22656-.01953-.21875-.05469-.21094-.09375-.19531-.125-.1836-.15234-.17187-.17969-.30078-.42578-.2461-.5039-.17969-.5547-.10937-.58202-.03906-.59375h.83203l.03125.5625.08203.50781.125.4414.16406.375.1875.30079.21094.21875.22266.13672.22656.04687.22656-.04687.22266-.13672.21094-.21875.1914-.30078.16406-.375.125-.44141.08203-.50781.02735-.5625-.02734-.5625-.08204-.5-.125-.4336-.16406-.36718-.1914-.29297-.21094-.21485-.22266-.1289-.22656-.04688-.22656.04688-.22266.1289-.21094.21485-.1875.29297-.16406.36718-.125.4336-.08203.5-.03125.5625h-.83203l.03906-.58985.10938-.58203.17968-.54687.2461-.49219.30078-.41797.17187-.17578.1836-.15234.1953-.1211.21095-.08594.21875-.05859.22656-.01953m5.09375 0h.50781v6.29688h-.78516v-4.48829h-1.39062v-.55859l.5586-.0625.2539-.05469.23047-.08984.20312-.14063.17188-.21093.14453-.29297.10547-.39844m2.82422 2.17578h.78515l.01953-.3164.0586-.28516.10156-.2539.13672-.21485.1836-.17188.22265-.1289.26563-.08203.30859-.02735.23828.02344.22266.0625.20312.10156.17969.13672.14844.17188.11328.20703.07031.23828.02734.26172-.02343.26953-.06641.22656-.10938.1914-.15625.16798-.19921.16406-.2461.16797-.63281.38672-.53906.3125-.4375.3164-.34766.32422-.26172.33594-.1914.35156-.125.3711-.07032.39453-.01953.41796h4.21094v-.74218h-3.33203l.08203-.28125.11328-.23828.14844-.20313.1875-.17969.23047-.17187.28125-.17578.71484-.41406.41797-.20704.34375-.23046.28125-.25.21875-.26954.16406-.27734.11328-.28125.0625-.28516.01953-.28125-.04296-.38671-.1172-.34766-.1914-.30469-.25-.26562-.30078-.21094-.34766-.16016-.3789-.09765-.40625-.03516-.4375.03516-.39844.09765-.35156.16797-.30469.23438-.25.30078-.1836.375-.11718.44922-.03906.51562"/><path fill="#ffffe0" fill-rule="evenodd" d="M311.19922 343.60547h22.17969v-10.1914h-22.1797v10.1914"/><path fill-rule="evenodd" d="M314.69922 335.2461h.50781v6.29687h-.78515v-4.49219h-1.39063v-.55469l.5625-.0664.25-.05078.23047-.08985.20312-.14453.17579-.20703.14062-.29688.10547-.39453m4.8125 0l.23047.01954.21875.05468.20703.08985.19531.12109.1875.14844.16797.17578.30469.42187.24219.4922.17968.54687.11328.57812.03516.59375-.03516.58985-.11328.58593-.17969.55469-.24218.5-.30469.42969-.16797.17969-.1875.15234-.19531.125-.20703.08984-.21875.0586-.23047.01953-.23047-.01953-.21875-.0586-.20703-.08984-.19531-.125-.1836-.15235-.17187-.17968-.30078-.42969-.2461-.5-.17969-.55469-.10937-.58594-.03906-.58984h.83203l.03125.5625.08203.5039.125.44532.16016.3711.1914.30077.21094.22266.22266.13672.22656.04688.22656-.04688.22266-.13672.21094-.22265.1914-.30079.16016-.37109.1289-.44531.08204-.5039.02734-.5625-.02735-.5625-.08203-.5-.1289-.4375-.16016-.36329-.1914-.29297-.21094-.21484-.22266-.13281-.22656-.04297-.22656.04296-.22266.13282-.21094.21484-.1914.29297-.16016.36328-.125.4375-.08203.5-.03125.5625h-.83203l.03906-.59375.10938-.57812.17968-.54688.2461-.49219.30078-.42187.17187-.17578.1836-.14844.1953-.1211.20704-.08984.21875-.05469.23047-.01953m5.09375 0h.50781v6.29688h-.78906v-4.49219h-1.38672v-.55469l.5586-.0664.2539-.05078.23047-.08985.20312-.14453.17188-.20703.14062-.29688.10938-.39453m6.80078 1.6211h-.78516l-.05078-.21485-.08203-.18359-.10937-.16016-.12891-.1289-.14453-.10547L329.9453 336l-.16797-.04297-.17578-.01562-.32812.03906-.28516.1211-.2461.1953-.20312.26954-.16015.33593-.1172.40625-.0703.46485-.02344.52734.1875-.20312.1875-.16016.1836-.1211.1875-.08593.1875-.0625.1914-.03516.40234-.02734.3086.03125.3203.09375.31642.15625.29296.21875.25391.28515.19922.34766.07422.20313.05078.21484.03125.23438.0039.2539-.78906.04688-.02344-.26172-.07812-.25-.125-.23438-.16016-.21094-.1914-.17578-.21875-.13671-.24219-.08985-.2539-.03125-.25782.03125-.23828.08985-.21875.13671-.19531.17579-.16016.21093-.1211.23438-.07812.25-.02734.26172.02734.2578.07813.25.1211.23438.16015.21094.19531.17578.21875.14063.23828.08594.25781.03125.25391-.03125.24219-.08594.21875-.14063.1914-.17578.16016-.21094.125-.23437.07813-.25.02343-.25781.78906-.04688-.03125.3711-.09375.37109-.15625.35937-.22265.32813-.28906.28125-.17188.1211-.1875.10156-.20703.08203-.22266.0625-.24218.03515-.25782.01563-.28515-.01563-.25781-.04687-.23829-.07813-.21484-.10547-.19531-.1289-.17578-.15625-.15235-.17969-.13672-.20313-.11718-.22265-.09766-.24219-.14844-.53515-.08203-.59375-.02734-.64063.03906-.74219.11328-.66406.1875-.57813.11719-.2539.13672-.23047.15625-.20703.16797-.1836.1875-.15625.20312-.1289.21485-.10156.23437-.07422.2461-.04297.26171-.01563.36719.03516.33203.09375.29688.15234.2539.19922.21094.24219.16797.27344.11328.30078.0625.32422"/><path fill="#ffffe0" fill-rule="evenodd" d="M155.33203 324.96094h22.17969v-10.19531h-22.17969v10.1953"/><path fill-rule="evenodd" d="M158.83203 316.60156h.50781v6.29297h-.78515v-4.48828h-1.38672v-.55469l.5586-.0664.25-.0547.23046-.08983.20313-.14063.17578-.21094.14062-.29297.10547-.39453m4.8125 0l.23047.01953.21875.0547.20703.08983.19922.1211.1836.14844.17187.17578.30078.41797.24219.49609.17969.54688.11328.57812.03906.58984-.03906.59375-.11328.58594-.1797.55078-.24218.5039-.30078.42579-.17188.17969-.18359.15625-.19922.1211-.20703.09374-.21875.05469-.23047.01953-.22656-.01953-.21875-.05469-.21094-.09375-.19531-.1211-.1836-.15624-.17187-.17969-.30078-.42578-.24219-.5039-.17969-.55079-.11328-.58594-.03906-.59375h.83203l.03125.5625.08203.50782.125.4414.16406.375.1875.30078.21094.22266.22266.13672.22656.04687.22656-.04687.22266-.13672.21094-.22266.1914-.30078.16407-.375.125-.4414.08203-.50782.02734-.5625-.02734-.5625-.08203-.5-.125-.43359-.16407-.36719-.1914-.29297-.21094-.21093-.22266-.13282-.22656-.04687-.22656.04687-.22266.13282-.21094.21093-.1875.29297-.16406.36719-.125.4336-.08203.5-.03125.5625h-.83203l.03906-.58985.11328-.57813.1797-.54687.24218-.4961.30078-.41796.17188-.17578.18359-.14844.19531-.1211.21094-.08984.21875-.05469.22656-.01953m5.09375 0h.50781v6.29297h-.78515v-4.48828h-1.39063v-.55469l.5625-.0664.25-.0547.23047-.08983.20313-.14063.17187-.21094.14453-.29297.10547-.39453m6.80469 1.61719h-.78906l-.05078-.21094-.08204-.1875-.10547-.15625-.1328-.13281-.14454-.10156-.16016-.07422-.16796-.04688-.17188-.01562-.32812.04297-.28907.11719-.24609.19921-.20313.26563-.16015.33984-.11719.40235-.07031.46875-.02344.52734.1914-.20313.1836-.16015.1875-.1211.1836-.08984.1875-.0586.1914-.03906.40234-.02343.3086.03125.32031.08984.3164.15625.29298.21875.2578.28516.19532.35156.07422.19922.05078.21875.03125.23437.0039.25-.78515.04688-.02734-.25781-.07813-.25-.1211-.23438-.16405-.21094-.19141-.17968-.21875-.13672-.24219-.08594-.2539-.03125-.25391.03125-.24219.08594-.21875.13672-.19531.17968-.16016.21094-.12109.23438-.07813.25-.02734.2578.02734.25782.07813.2539.1211.23438.16015.21094.19531.17578.21875.13672.24219.08984.2539.03125.25391-.03125.24219-.08984.21875-.13672.1914-.17578.16407-.21094.1211-.23437.07812-.2539.02734-.25782.78516-.04688-.03125.3711-.08985.3711-.16015.35937-.22266.32812-.28906.28516-.17188.11719-.1875.10156-.20312.08203-.22656.0625-.2422.03906-.2578.01172-.28516-.01563-.25781-.04687-.23828-.07422-.21485-.10547-.19531-.13281-.17578-.15625-.15234-.17969-.13672-.20312-.1172-.22266-.09765-.24219-.14844-.53515-.08203-.58985-.02734-.64062.03906-.7461.11328-.66015.1875-.57813.1172-.2578.13671-.23048.15625-.20703.16797-.17969.1875-.15625.20312-.1289.21875-.10156.23047-.07422.2461-.04297.26562-.01563.36328.03125.33203.09766.29688.15234.2539.19922.21485.23828.16406.27735.11719.30078.0625.32031"/></g></defs><use xlink:href="#am"/></svg>