<svg xmlns="http://www.w3.org/2000/svg" role="img" xmlns:xlink="http://www.w3.org/1999/xlink" viewBox="142.45 309.95 326.84 171.84"><defs><clipPath id="a"><path d="M144 311.67188h1v168.65625h-1zm0 0"/></clipPath><clipPath id="b"><path d="M144 311.67188h324v168.65625H144zm0 0"/></clipPath><clipPath id="c"><path d="M393 476h10v4.32813h-10zm0 0"/></clipPath><clipPath id="d"><path d="M395 478h4v2.32813h-4zm0 0"/></clipPath><clipPath id="e"><path d="M467 311.67188h1v168.65625h-1zm0 0"/></clipPath><clipPath id="f"><path d="M144 479h4v1.32813h-4zm0 0"/></clipPath><clipPath id="g"><path d="M147 480h2v.32813h-2zm0 0"/></clipPath><clipPath id="h"><path d="M146 480h2v.32813h-2zm0 0"/></clipPath><clipPath id="i"><path d="M153 479h9v1.32813h-9zm0 0"/></clipPath><clipPath id="j"><path d="M160 480h2v.32813h-2zm0 0"/></clipPath><clipPath id="k"><path d="M166 479h9v1.32813h-9zm0 0"/></clipPath><clipPath id="l"><path d="M173 480h3v.32813h-3zm0 0"/></clipPath><clipPath id="m"><path d="M180 479h8v1.32813h-8zm0 0"/></clipPath><clipPath id="n"><path d="M187 480h2v.32813h-2zm0 0"/></clipPath><clipPath id="o"><path d="M193 479h9v1.32813h-9zm0 0"/></clipPath><clipPath id="p"><path d="M200 480h2v.32813h-2zm0 0"/></clipPath><clipPath id="q"><path d="M206 479h9v1.32813h-9zm0 0"/></clipPath><clipPath id="r"><path d="M212 479h3v1.32813h-3zm0 0"/></clipPath><clipPath id="s"><path d="M220 478h8v2.32813h-8zm0 0"/></clipPath><clipPath id="t"><path d="M225 479h3v1.32813h-3zm0 0"/></clipPath><clipPath id="u"><path d="M234 477h7v3.32813h-7zm0 0"/></clipPath><clipPath id="v"><path d="M247 477h7v3.32813h-7zm0 0"/></clipPath><clipPath id="w"><path d="M261 477h6v3.32813h-6zm0 0"/></clipPath><clipPath id="x"><path d="M275 476h4v4.32813h-4zm0 0"/></clipPath><clipPath id="y"><path d="M289 476h2v4.32813h-2zm0 0"/></clipPath><clipPath id="z"><path d="M302 476h4v4.32813h-4zm0 0"/></clipPath><clipPath id="A"><path d="M316 476h3v4.32813h-3zm0 0"/></clipPath><clipPath id="B"><path d="M329 476h3v4.32813h-3zm0 0"/></clipPath><clipPath id="C"><path d="M343 476h2v4.32813h-2zm0 0"/></clipPath><clipPath id="D"><path d="M355 476h4v4.32813h-4zm0 0"/></clipPath><clipPath id="E"><path d="M369 476h3v4.32813h-3zm0 0"/></clipPath><clipPath id="F"><path d="M379 479h9v1.32813h-9zm0 0"/></clipPath><clipPath id="G"><path d="M380 479h2v1.32813h-2zm0 0"/></clipPath><clipPath id="H"><path d="M393 478h8v2.32813h-8zm0 0"/></clipPath><clipPath id="I"><path d="M391 479h3v1.32813h-3zm0 0"/></clipPath><clipPath id="J"><path d="M408 476h4v4.32813h-4zm0 0"/></clipPath><clipPath id="K"><path d="M420 477h7v3.32813h-7zm0 0"/></clipPath><clipPath id="L"><path d="M433 479h8v1.32813h-8zm0 0"/></clipPath><clipPath id="M"><path d="M440 479h3v1.32813h-3zm0 0"/></clipPath><clipPath id="N"><path d="M446 478h8v2.32813h-8zm0 0"/></clipPath><clipPath id="O"><path d="M453 478h3v2.32813h-3zm0 0"/></clipPath><clipPath id="P"><path d="M459 479h9v1.32813h-9zm0 0"/></clipPath><clipPath id="Q"><path d="M466 479h2v1.32813h-2zm0 0"/></clipPath><clipPath id="R"><path d="M144 466h4v2h-4zm0 0"/></clipPath><clipPath id="S"><path d="M144 453h4v2h-4zm0 0"/></clipPath><clipPath id="T"><path d="M144 439h4v3h-4zm0 0"/></clipPath><clipPath id="U"><path d="M144 425h4v4h-4zm0 0"/></clipPath><clipPath id="V"><path d="M144 412h4v3h-4zm0 0"/></clipPath><clipPath id="W"><path d="M465 410h3v2h-3zm0 0"/></clipPath><clipPath id="X"><path d="M144 399h4v2h-4zm0 0"/></clipPath><clipPath id="Y"><path d="M466 398h2v2h-2zm0 0"/></clipPath><clipPath id="Z"><path d="M465 398h3v3h-3zm0 0"/></clipPath><clipPath id="aa"><path d="M144 386h4v3h-4zm0 0"/></clipPath><clipPath id="ab"><path d="M466 384h2v3h-2zm0 0"/></clipPath><clipPath id="ac"><path d="M465 385h3v3h-3zm0 0"/></clipPath><clipPath id="ad"><path d="M144 372h4v4h-4zm0 0"/></clipPath><clipPath id="ae"><path d="M466 371h2v3h-2zm0 0"/></clipPath><clipPath id="af"><path d="M144 358h4v5h-4zm0 0"/></clipPath><clipPath id="ag"><path d="M466 358h2v3h-2zm0 0"/></clipPath><clipPath id="ah"><path d="M144 345h4v4h-4zm0 0"/></clipPath><clipPath id="ai"><path d="M466 345h2v3h-2zm0 0"/></clipPath><clipPath id="aj"><path d="M144 332h4v4h-4zm0 0"/></clipPath><clipPath id="ak"><path d="M466 332h2v3h-2zm0 0"/></clipPath><clipPath id="al"><path d="M144 319h4v3h-4zm0 0"/></clipPath><clipPath id="am"><path d="M465 317h3v3h-3zm0 0"/></clipPath><g id="an" clip-path="url(#clip1)"><path fill="#fff" fill-opacity="0" fill-rule="evenodd" d="M0 0h1000v1000H0zm0 0"/><path fill="#d3d3d3" fill-opacity="0" fill-rule="evenodd" d="M162.15234 355.86719l-.23437.29297.0586.23437.11718.17188.17578.23437.29297.34766.11328.0586.11719-.17188.0586-.23438.17577-.17578.46485-.17578h.69922l.23437.29297.28906.8164.0586.17579.17578.23046.35156.23438.69922.69922.17188.17578.23437.34765.23438.41016.28906.58203.41015.46485.23047.23437.23438.17578.11719.23047.17578.29297.17187 1.16406v.23438l.0586.28906.05859.11719.11719.11719.34765.41015.11719.17188.17578.17578.17578.23437.11719.17188.17188.35156.05859.23438.23437.40625.23438-.0586-.17578.17578-.0586.92969h-.58203l-.23437-.11328-.34766.11328-.11719.11719-.05859.29297-.0586.17578-.11718.17187-.46484.29297-.0586.23438-.0586.11328v.64453l.0586.17187v.41016l.0586.0586v.40624l.05859.40625.11719.17579.05859.05859.23047.64062-.0586.29297v.69922l-.05859.58203v.23438l-.0586.23047-.05468.35156v1.92187l.05469.1172h.42578l-.36719.11718-.02344.35156.89063 1.16797 1.74219.53906 1.33984.35938v.53906l.08984.8086.53516.71484 1.51953.26953.89063-.08594.08984 1.16406.53516.1797 1.16015-.1797 2.05469-.98437 1.16016-.36328 1.8789-.17578 1.69531-.1797-.17968.71876-1.51563.08594-1.25.08984-.80469.26953-1.07421.8086.26953.71875.53515.89843-.17968.625-.26563.8086.26563 1.07812.625.89844.80468.17969 1.25-.1797-.26562.72267.09766.5039.05468.29297v.17188l.0586.29296v.40625l.17578.1172.35156.11718h.40625l.29297-.17578.11328-.11719.0586-.11719.11718-.23047.0586-.17578.35156-.46484.23047-.17578.17578-.0586.17578.0586.0586.17578.11718.98828.05469.46875.0586.17188.11718.23437.17578.0586.8164.05859h.28907l.11719.23437.05859.40625.0586.35156v1.10547l.11718.29297.11719.34766.28906.69922.17578.35156.58203.7539.35157.17579.17187.0586.46875.23437.64063.46484.34765.23438.29297.17578.29297.05468.23047.0625.8164.34766.29297.17578.11328.17188.35157.35156.11719.17578.52343.64063v.28906l.0586.35156v.34766l.05859.35156.0586.28906.11718.0586.17188.05859h.17578l.58203.23437.17578.1172.17578.28905.17578.23438.11328.23437.29297.23047.11719.11719v.41016l.0586.05468.28906.23438.23437.11719.0586.11718.11718.17188.0586.11719.23047.23437.05859.17578.23437.0586.1172.05859-.1172.11328-.05859.11719v.11719l-.11719.29296-.11719.28907v.58203l.17579.11719.11718.05859.0586.11719.11719.11719.11328.05859.17578.34765.0586.35157.05858.40625v.17578l-.05859.17578-.11719.69922v.17187l.1172.17579.29296.29296h.40625l.17578.1172.11719.17187.11719.29296v.23438h-.52735l-.23047-.23438h-.23437l-.17578.0586-.0586.69922.0586.34765.11719.17579.17578.41015.11718.23047.28907.46875.17578.05469h.52344l.23437.0586.75781.64062.0586.29296v.23438l.05859.0586.23047.34765v.35156l-.11719.17188v.29297l.29297.28906.29297.17578.17187.0586.29297.17577.29297.1172.58203.40624.28906.23438.29297.17578.21875.16015.01563.01172.23047.17579.64062.52343.17578.23438.1172.17578.17577.17578.11328.17188v.64062l.1172.17578.46874.11719.58203.11719.23438.05859.23047.11328.29297.11719.11328.0586.58593.35156.28907.17187.17578.0625.17578.05469.17578.0586.69922.35155.28906.17579.23438.05468.28906.17578.23437.1172.64063.40624.29297.11719.17187.0586.23438.05859.41015.05859.23047.0586.23438.11718.0586.17188-.41017.17578.46875.0586.0586.29296.11328.23438.17578.05468.23438.0586.17578.05859.40625.11719.64062.23437.11719.17188.0586.23437v.17578l-.0586.1172-.0586.40624.23438.23438.11719.05859.34766.11719.64062.23047.17578.11718.28906.1172.17578.17577.23438.46485.58203 1.10546.17578.17579.34766.17578.17578.11719.35156.11718 1.04688.52344.23437.0586.46485.11327.29297.0586.46484.17578.75781.58203.23438.23438.34765.46484.17578.17578.28907.23438.8164.69921.29297.17579.28906.28906.29297.17578.29297.28906.69531.64063.17578.17578.29297.23437.28907.23438.46875.28906.64062.58203.34766.23438.23437.29297.34766.34765.35156.46485.9336.99218.34765.40625.11719.17579.23437.05859.11328.11719.64454.17578.23047.11328.23437.0586.29297.17577.23047.1172.9336.69921.40624.40625.23438.17578.40625.17578.23437.11719.8164.34766.34766.23437.23438.11719.29297.28906.23047.11719.7578.35156.35157.17188.23047.05859.29297.11719.23437.0586.8711.17577h.8164l.46875.23047.17188.0586.875.69921.46484.1172.29297.05858.17578.0586.23047.0586.46875.05859.34766.05859.35156.0586.40625.05859h.29297l.17187.0586v.23046l.17578.17578h.29297l.34766.0586.35156.05859.69922.11719h.64063l.46484-.23438.29297-.17578.17187-.11719.41016-.17187.28906-.17578.9336-.46485.46875-.29297.52343-.29296.46485-.17188.46484-.17578 1.05078-.46485.28906-.11718.41016-.11719.28906-.11719.52735-.17578 1.51562-.69922.58203-.34765.28907-.0586.29297-.0586.34765-.11718.875-.23047.35156-.11719h.11329l.23437-.05859.875-.23437.23438-.0586h.8125l.35156-.0586.8164-.11718.17188-.0586.35156-.05468.29297-.0586.23047-.05859.8164-.17578.17579-.0586h.34765l.23438-.05859.46484-.11718.75781-.17188.23438-.0586h.34765l.41016-.11718.28906-.0586 1.28516-.05859h.28906l.41016-.0586.23047-.05858h.17578l.875-.1172h.40625l.41015-.11718h.34766l.35156-.11328.8711-.0586h1.75l1.04687.28907.41016.11719.28906.11718.35156.11719.28907.11719 1.05078.17187.28906.0586h.29297l.29297.05859.17187.0586.41016.05859.17187.0586.1172.05858h.11718l.11719.0586.35156.0586h.11328l.41016.0664 1.92187.39453 1.92578.39453 1.51953.44922 1.69532.71875 2.14453.80469 1.60547-.71875 1.42968-.80469 1.16016-1.07813 1.25-.44921 3.03516-.71875 1.875-.35938 2.14453-1.34765 2.23437-1.25391 2.5-1.25781 1.69531-.44922 1.78516-.17969 1.16016-.26953.625.53906 1.33984-.26953.71485-.98828.98437-1.34375.44531-.17969.80469-.35937 1.875-.53907 1.78516-.44921 1.25-.26954 1.16015-.08984 1.69922-.08984 1.96094-.26954 1.25-.08984h.53906l.625-.08984h.89063l2.14453-.17969 2.41015-.17969 2.58985-.08984 1.69531.17969 1.60938.08984 1.42968.35938 1.16016.71875 1.875.98828 1.16015 1.52734.26563.71484.6289.08985.35548.89844.53515.53906.53516 1.52734 1.07422.35938h.53515l-.80469.53515.08985 1.70703.71484 2.69532.89063.80468.89453.98829.71484 1.2578 1.78516.53907 1.51953-.17969.35547 1.34375 1.60937-.80469.98047-.53906.26953.26953.31641-.21484.21875-.14453.80078.44922.44922-.35938h.35547l.53515-.26953.53907-.71875.53515-.26953.625-.98828 1.16016.44922.83984.3711 1.39454.61718 1.6953-.17969h1.60548l1.78515.08985.17969-1.70704.53516-1.34375.80468.26954.4922.84765.40233.40625-.08984.53906v.35938l.71485.44922.71093-.26953h1.42969l.35938.98828.4453 1.25781.71485 1.34375 1.25.6289 1.69531.62891.71485-.17969.17969-.53906.98046-.08984.44922.35937.08594 1.25782-.26563.6289-.53515.17969v.53906l.71484.98438.26563.53906.98437.98828.80078 1.07813-.26562.35937-.08985.89844-.625 2.33203-.35546 2.0664-.08985 1.79298-.17969.71875-.08984.53906v1.4375l-.98047 1.88281-.35937 1.70703-.53516.89844-.80469 1.16797-.26562.53906 2.05469 1.2539.08593.35938-.35546.53906-.08985-.17968v.80859l.08985 1.4375-.44532.71484-1.07422.09375-.26562.71485.53515.89844.8047.71875 1.16015.80859 1.33984.26953.44531.35938-.35546.44921-1.78907-.08984-1.25-.44922-.71484-.71875-.625-.08984-.17578 3.58984-.1875 1.3086h89.35937V311.70313h-55.26953v49.08203l.76172.125 3.28906.54296 2.02344 2.83594v2.7539l2.35156.33204 2.34766.33203h4.05078l-1.3789 4.16016-2.02344.70703-2.02344.70312-.54297.34375-2.59375 1.6172-.1875.11718-2.02344-2.07813-.73046-2.74218-2.67188-2.07813-1.375-3.5-.0664-.08203-1.95704-2.67188 2.75-1.41796v-49.08204H294.42187v91.41407l.1172.03125.1328.01172.07422.07421.10547.04688.08985.0586.08593.05859.08985.0586.29687.29687.0586.08984.03125.11719.02734.11719.01563.13671-.03125.1172-.0586.08983-.0586.08594-.04296.10547-.04688.10156-.02734.1211v.14453l.17578.26953.14844.14844.07422.08594.07422.07421.04296.10547.0625.08985.0586.08593.04297.10547.0586.08985.04687.10156.04296.10547.0586.08594.11719.17968.07421.07422.0625.08594.0586.08984.04297.10547.0586.08985.05858.08593.0625.08985.0586.08984.04297.10156.11719.17969.07421.07422.0586.08594.07422.07421.08984.0586.10547.04687h.14844l.1328-.01562.13282.01562.10156-.04687.07422-.07422.04688-.10156-.01563-.13281v-.14844l-.04687-.10547-.02735-.11719-.04687-.10156-.02735-.1211-.04296-.10156-.0625-.08984-.04297-.10156-.04297-.10547-.03125-.11719-.01563-.13281-.01171-.13672.08593-.0586.0586-.08593.12109-.03125.04297.10547.01562.1328v.1172l.0586.10156.0586.08984.08983.0586.14844.14843.0586.08985.04296.10547-.01171.10156.08593.0586.10547.04687.08594.0586.08984.05858.07422.07422-.11719.02735-.10546.04687-.08594.0586-.07422.07421-.0586.08985-.0625.08594-.02734.12109-.04687.10156-.04297.10547-.03125.11719-.01172.13281-.01563.13281v.14844l.02735.11719.04687.10547.04297.10156.0586.08984.07421.07422.08985.0586.07422.07421.08984.0586.0586.08984.04296.10547.04688.10156.11719.03125.1328.01563h.14845l.11718-.03125.10547.04297.04297.10547.04688.10156.02734.1211L299.5 410l.02734.11719.03125.1211.02735.11718.10547.04297.10156.04687.13281-.01562.14844.14844.0625.08593.07422.07422.07031.07422.08984.0625.10547.04297.10156.04297.1172.03125.13671.01562.11719-.03125.07422-.07422.02734-.11718-.01172-.13282-.03125-.12109-.02734-.11719.04297-.10547h.11719l.08984.0625.11719.02735h.14843l.13282.01562h.14843l.13282.01563.1328-.01563h.14845l.1328-.01562.13282-.01172.13672.01172.11719-.02735.13281-.01562.1914-.0586-.05859.17579-.01562.1328-.02735.1211-.01562.13281-.0586.08594-.1328.01563-.10548.04687-.10546.04297-.1172.03125-.11718.02735-.26563.03125h-.14843l-.13281.01562-.07422.07422.05859.08594.14844.14843.11719.1797.07421.0703.08985.0625.08984.0586.08594.0586.08984.05858.10156.04297.10547.0625.10547.04297.08594.0586.10547.04687.10156.04297.17969.11719.0586.08984-.04298.10156-.04687.10547.01562.13281.22266.22266.0586.08985.04296.10156.03125.1211.04297.10155.01563.13282.03125.11718.01171.13672.03125.11719.14844.14844.10156.04297.10547.04296.1172.03125.1328.01563.13672.01563h.11719l.11719-.03125.08984-.0586.04297-.10547.04688-.10156.04296-.10547.03125-.11719.01172-.1328v-.14845l-.01172-.1328-.01562-.13282-.03125-.11719-.04297-.10547-.04688-.10547-.04296-.10156-.04297-.10547-.01563-.13281.01563-.13281.02734-.11719.03125-.11719.02735-.1211.04687-.10155.08984-.0586.08594-.0625.07422-.07422.08984-.05859.22266-.22266.0586-.08593.07421-.07422.11719-.17969.0586-.08594v-.14844l-.07423-.07421-.10156-.04688-.10547-.04297-.10156-.04297-.0586-.08984-.04687-.10547-.02734-.11719.08984-.05859.11719-.03125.10156-.04297.17969-.11719.14844-.14843.01172-.13282-.01172-.10546-.08985-.0586-.1328.01563h-.14845l-.1328.01562-.13282-.01562-.1211-.03125-.08593-.0586-.07422-.07422-.0586-.08984-.0625-.08594-.11718-.17969-.0586-.08593.03125-.1211.08594-.05859.1211-.03125.05859-.08594v-.1211l-.03125-.11718-.0586-.08984-.05859-.08594-.04687-.10547-.02735-.11719-.01562-.1328.0586-.08985.07421-.07422.08984-.0586.1172-.17968.07421-.07422.0586-.08594.14843-.14844.1211-.03125.1328-.01562.13282.01562.07422.07422.04297.10547.01562.13281-.03125.1172-.11719.03124-.1328.01172-.14844.14844-.04297.10547-.04688.10156-.02734.1211-.03125.11718v.14844l.03125.11719.04297.10546.05859.08985.07422.07031.07422.07422.11719.03125.12109.02734.11719-.02734.1328-.01563h.1172l.08984.0586.07422.07422.04687.10546.0586.08594.10156.04688.13281.01562.10547.04297.08594.0586-.01172.10546-.07422.07422-.17969.11719-.05859.08984-.08984.0586-.07032.07422-.07421.07421-.0625.08985-.02735.11719-.01562.1328.01562.13282-.01562.13281v.14844l.01562.13281.02735.1172.03125.12108.07421.07422.08985.0586.08594.0586.08984.05858.11719.03125v.08594l-.10157.04688-.08984.0586-.26563.03124-.11718.02735h-.14844l-.10547.04296-.10156.04688-.0586.08984-.0625.23438-.01171.13281-.03125.1211-.01563.1328v.29298l-.01172.1328.01172.13673.01563.1328.1328.01563.13282.01172.1211.03125.08593.0586.07422.07421.04688.10547.04296.10157.01563.1328v.44532l-.01563.13281v.44532l.03125.26562.02735.11719.01562.13281.03125.11719.08594.21094.03125.26562v.14844l-.03125.11719-.02734.11718-.03125.1211-.02735.11719-.03125.11718-.03125.1211-.01171.1328-.01563.13282.08984.0586.1172-.03125.10155.01562.04688.10547-.03125.26562v.44141l-.04297.10547-.04688.10547-.04296.10156-.04297.10547-.0586.08594-.03125.12109-.04296.11719-.03125.11719-.01563.1328.01563.13282.05859.08984.10547.04688.08594.0586.05859.08593-.01172.13672-.03125.11719-.04297.10156v.44531l-.01562.13281v.14844l-.03125.11719-.04297.10547-.02735.11719-.04687.10546-.04297.10157-.03125.12109-.02734.11719-.03125.13281-.03125.11719-.02735.11719-.04297.10546-.03125.1172-.03125.12108-.01171.13282-.01563.13281v.29688l.02734.11718v.14844l.04688.39844.02734.11719.0586.08984.12109.03125h.14844l.13281-.01563.0586.08985v.11719l-.0586.08984-.08984.0586-.10157.04296-.10546.04688-.08985.05859-.08594.0586-.13671.01562-.1172-.03125-.1328-.01563-.10157.04688-.0625.08594-.01172.13671-.01562.13282-.03125.11719-.02735.11718-.01562.13281-.03125.1211v.29687l.01563.13282.03125.11718v.14844l.01171.13281v.14844l-.02734.11719-.04688.10156-.02734.1211-.03125.11718-.0586.08985-.07421.07421-.10156.04297-.10547.04688-.11719.02734-.1211.03125-.10156-.04687.0586-.08594.10547-.04688.02734-.11718.03125-.11719.02734-.1211.03125-.11718v-.14844l.01563-.13281-.03125-.11719-.04297-.10547-.10547.01563-.07422.07422-.10156.04296-.08984.0625-.07422.07422-.04297.10157-.01563.1328-.03125.1172L304.25 426l-.03125.11719-.02734.11719-.03125.12109-.02735.11719-.03125.11718-.04297.10547-.08984.0586h-.08984l-.1172-.03125-.03124-.08594.01562-.13672-.03125-.11719v-.14844l-.01171-.1328v-.14844l-.0625-.23438-.02735-.1211-.04297-.10156-.04687-.10546-.0586-.08594-.05859-.08985-.04297-.10546-.0625-.08594-.14844-.14844-.0703-.07422-.10548-.04687-.10547-.04297-.10156-.04297-.29687-.29688-.08985-.07421-.08594-.0586-.10546-.04297-.08985-.0625-.08594-.0586-.10546-.04296-.08985-.0586-.08594-.0625-.07421-.0703-.10547-.04688-.08594-.0586-.10547-.04296-.08984-.0625-.10156-.04297-.10547-.04297-.08594-.0586-.10547-.04687-.10547-.04297-.10156-.04687-.08985-.0586-.10156-.04297-.10547-.04296-.08984-.0625-.11719-.02735-.13281-.01562-.13281.01562H299.75l-.13281.01563-.11719-.03125-.08984-.0586-.07422-.07422-.08985-.05859-.10156-.04688h-.14844l-.12109-.02734-.10156-.04297-.07422-.07422-.11719-.17968-.08984-.0586-.10156-.04297-.08985-.0625-.10547-.04296-.08984-.0586-.08594-.0586-.10547-.04687-.0586-.08594-.05858-.08984-.04297-.10547-.04688-.10156-.07422-.07422-.08594-.0586-.07421-.07421-.08985-.0586-.22265-.22265-.04297-.10547-.03125-.26563.10547-.04296h.14453l.10547.04296.07421.07422.08985.0586.08594.0586.10546.04687.08985.05859.14844.14844.0703.07422.14845.14843.0625.08594.07421.07422.08594.0586.07422.07421.08985.0625.08984.0586.08594.05859.26953.17578.10156.04688.10547.04296.10156.04297.04688-.07421.05859-.08594.07422-.07422.07031-.07422.10547.04297.07422.07422.0586.08984.04296.10156.04688.10547.04296.10547.1211.02735.11719-.02735.07421-.08984.04297-.10547.0586-.08985.07422-.07421.10546-.04297.1172-.02735.1328.01172.08985.0586.14844.14843.05859.08985.04297.10547.04687.10156.04297.10547.04297.10156.10547.04688.10547.04296.13281.01563.08594-.0586.0586-.08984.07421-.07422.10547-.04297.11719.02735.10547.04687.10156.04297.10547.04297.10156.04688.17969.11718v.11719l-.01563.13281.01563.13281.01562.13672.0586.08594.10156.04688.1211.02734.11718.03125h.14844l.11719-.03125.05859-.08984.17969-.1172.05859-.08983.07422-.07422.0586-.08594.11718-.17969.17969-.11719.11719.03125.08984.0586.04297.07422-.01563.1328v.1172l.08985.05859h.14843l.13282-.01563.1328-.01171.26563-.03125.10547-.04297.11719-.03125.1211-.02735.07421-.07421.07031-.07422.0625-.08985-.01562-.10547-.04688-.10156-.10156-.04297-.10547-.01562-.11718.02734-.26563.03125h-.14844l-.07421-.07422-.08985-.0586-.11719-.03124-.11718-.02735-.13282-.01562h-.14843l-.13282.01563h-.29687l-.10547-.04688-.14844-.14844-.04297-.10156-.05859-.08984.22266-.22266.08593-.0586.10547-.04296.11719-.03125.13281-.01563.13281.01563.13672.01562.10157.04297.1328-.01172.08985-.0625.10156-.04297.0625-.08984-.04687-.10156-.08984-.0586-.1172-.03125-.10155-.04296-.0586-.08985-.0625-.08984v-.11719l.01563-.13281.10547-.04688.07421-.07031v-.1211l-.08984-.05859-.03125-.11719.08985-.05859.07421-.07422.04297-.10547.0586-.08984.04687-.10156.01563-.13281v-.14844l-.04688-.10547-.04297-.10156-.08984-.0586-.13281-.01562-.10157-.04297-.13671-.01563-.1172-.03125h-.4453l-.13282-.01562-.13281-.01172-.13281-.01563-.11719-.03125h-.14844l-.13281-.01562-.13281-.01172-.26563-.03125-.1211-.04297-.08593-.0586-.07422-.07421v-.14844l.01172-.13281.10547-.04688.10156-.04296.13281-.01563h.15235l.13281-.01562h.29297l.1211.03125.10156.04296.08984.0586.23438.0625.12109-.04688.08984-.05859.10156-.04297.13282-.01562.10547.04296.10156.04688.13281.01172.1211-.02735h.14453l.12109-.03125.11719-.02734.10547-.04687.07421-.07422.08594-.0586.14844-.14843.0586-.08594.04687-.10547.02734-.11719.01563-.10547-.10156-.04296-.08985-.0586-.11719-.03125-.10546-.04297-.08985-.0625-.07422-.08594-.07422-.07421-.10156-.04297-.10547-.04688-.10156-.04297-.0586-.08984-.04687-.10156-.08594-.21094-.0625-.08594-.05859-.08984-.07422-.07422-.08594-.0586h-.26953l-.11719.03126-.08984.05859-.10156.04297-.13281.01562-.10547-.01562-.02735-.11719-.0625-.08984-.11718-.03125-.10157-.04297-.14843-.14844-.03125-.11719-.01563-.10546.07422-.07422.17969-.1172.11719-.02733.11718-.03125.13672.01562.10156.04297.10547.04297.10156.04687.10547.04297.1172.03125.1328.01563.1172.02734.1328.01563.10547-.01563.08985-.0586-.07422-.07421-.10547-.04297-.07422-.07422-.07422-.08984-.14844-.14844-.08593-.0586-.08985-.05859-.07422-.07422-.08984-.0586-.10156-.04687-.1211-.02734-.10156-.04688-.10547-.04296-.11719-.03125-.10156-.04297-.1211-.03125h-.14843l-.11719.03125-.10546.04297-.08594.0625-.17969.11718-.08594.0586-.08984.0586-.10547.04687-.08594.05859-.10547.04297-.10156.04297-.10547.04687-.07422.07422-.05859.08985-.0586.08593-.04687.10547-.0586.08594-.07421.07422-.13281-.01172-.1172-.03125h-.11718l-.07422.07422-.08984.0586-.07422.07421-.08984.0586-.08594.05859-.10547.04687-.10156.04297-.13672.01563-.10156-.04297-.14844-.14844-.10547-.04688h-.08594l-.10547.04688-.10156.04297-.1211.03125-.11718-.03125-.07422-.07422v-.11719l.03125-.1211.07422-.0703.0586-.08985.07421-.07422.11719-.03125.10547-.04296h.29297l.13281-.01563.13672-.01563.10156-.04296.08985-.0586.10156-.04687.08984-.0586.13281-.01171.08985.05859.13281.01172.08984-.0586.08594-.05859.10547-.04297.08984-.0586.08594-.0625.08985-.05859.14843-.14843.0586-.08594.05859-.08985.10547-.04296.13281-.01563.11719.02735.1211.03125.05859-.0586.05859-.08984.03125-.26563.02734-.11719.10547.01172.13281.01563.10157-.04297.08984-.0586.0586-.08984.07421-.07422.0586-.08984.04687-.10156.01172-.13281-.01172-.13282-.04687-.10547-.14844-.14843-.0586-.08985-.05859-.08594-.04297-.10546v-.44532l.01563-.1328v-.14845l.01172-.1328-.0586-.0586-.08984.0586-.10156-.04298-.17969-.11719-.08594-.05859-.0625-.08984-.0586-.08985-.07421-.07421-.08594-.0586-.1211.03125-.10155.01172-.10547.04688-.08594.05859-.10547.04297-.14844.14844-.08984.05859-.08594.0586-.08984.0625-.10547.04296-.13281.01563v-.1211l.10547-.04297.11718-.03125.07422-.0703.04297-.10548v-.14844l-.02734-.11718-.14844-.14844-.13281-.01563h-.14844l-.11719.03125-.10547.04297-.10156.04297-.08984.0625-.11719.02735-.07422-.07422.01172-.13281-.04297-.10157-.04297-.10547-.08984-.05859-.11719.02734-.1211.03125-.11718.03125-.10156.04297-.1211.03125-.10156.04297-.10547.04297-.08984.0586-.10156.01562v-.11719l.01562-.13281-.0586-.08985-.07421.04297-.14844.14844-.0586.08985-.07421.07421-.04688.10547-.04296.10156-.07422.07422-.0586.08985-.07422.07422-.05859.08593-.07422.07422-.08984.0625-.07422.07031-.07422.07422-.10156.01563-.13281.01562-.10547-.04296v-.1211l.14843-.14844.04297-.10156.0586-.08984.04687-.10156.04297-.10547.0586-.08985.03124-.11719.04297-.10156.03125-.1211.02735-.11718.04687-.10547.04297-.10156.04297-.10547.07422-.07031.08984-.0625.08985-.0586.10156-.04296h.29687l.26563-.03125.10547-.04297-.07422-.07422-.11719-.03125-.10547-.04297-.08984-.0586-.10156-.04687-.08985-.0586-.10156-.04296-.10547-.04297-.08984-.0625-.08594-.0586-.10547-.04296-.10156-.04297-.1211-.03125-.11718-.03125-.10157-.04297L297.5 410.25l-.10156-.04297-.08985-.0586-.04296-.10546-.01563-.13281.10156-.04297.13281-.01563.13672.01563.13282-.01563.10156-.04297.0586-.08984.01562-.10547-.08985-.0586-.07421-.07421-.10157-.04297-.08984-.0586-.14844-.14843-.04297-.10547-.01562-.13281v-.29297l-.0586-.08985-.08984-.05859-.07422-.07422-.04297-.10547-.03125-.11718-.0586-.08985-.07421-.07422-.11719-.02734-.07422-.07422-.08984-.0586-.08984-.0625-.08594-.05859-.07422-.07421-.0586-.08594-.04687-.10547-.08594-.0586-.14843-.14843-.19532-.0586-.1328.01563-.10157.04297-.07422.07422-.04688.10156-.04296.10547-.0586.08984-.0586.08594-.29687.29687-.08984.0586h-.08594l-.0625-.08594-.04297-.10547.03125-.11719.0586-.08984.02734-.11719-.01172-.13281-.08984-.0625-.10547.04688-.11719.02734-.11719.03125-.26953.17578-.10156.04688-.11719.02734-.10546.04687-.08985.0586-.10156.04297-.0586-.08594-.04687-.10547.01563-.13281.04687-.10547.07031-.07422.07422-.07031.0586-.08985v-.14843l-.04297-.10547h-.23829l-.10156.04687-.03125.11719-.02734.11719-.03125.1211-.07422.04296-.13281.01563-.07422-.04688-.04297-.10156-.04297-.10547-.04687-.10156-.04297-.10547-.1211.03125-.10156.04297-.13281.01562-.11719.03125-.10547.04297-.08984.0586-.10156.04687-.1211.02734-.13281.01563-.10156-.04297-.0586-.08985-.04687-.10546-.04297-.10157-.04297-.10546v-.1172l.0586-.08984.08593-.05859.17969-.11719.10156-.04687.10547-.04297.10547-.0586.10156-.04296.08985-.0625.10156-.04297.10547-.0586.10156-.04687.08984-.0586.10547-.04296.10156-.04297.08985-.0625.10156-.04297.13672-.01563.11719.03125.10156.04297.1211.03125.10156.04297.10546.04688.10157.04296.10547.04297.10156.04688.10547.04297.10156.04297.10547.04687.08594.0586.10546.04296.1172.03125.10546.04297.10156.04688.08985.0586.10547.04296.10156.04297.10547.04687.11719.02735.10156.04687.1211.02735h.14843l.08594-.0586.01562-.10156.0586-.08984-.02735-.1172-.07422-.07421-.11719-.17969-.07421-.07422-.08985-.07421-.17969-.1172-.08593-.05859-.10547-.04296-.10156-.04688-.26954-.17578-.05859-.08985-.07422-.07421-.0586-.08985-.04296-.10156-.03125-.11719-.01563-.13672v-.5625l-.01171-.1328-.01563-.13282-.03125-.11719-.01562-.13281-.01172-.13281-.03125-.1211-.22266-.22265-.0586-.08594-.01562-.10547.03125-.11719.13281-.01562v-91.41406H172.9922v1.45312l-.0586.23438-.35156 1.05078-.17187.52343-.1172.34766-.17577.41016-.11719.17187-.23438.29297-.23046.0586h-.35157l-.11718.05859-.23047.40625v.29297l.11719.17578.23046.23047.1172.23437.64062.75781.29297.46485.17578.23437.23047.35156.23437.34766.64063.8164.17578.46485.17187.41016.11719.69531.17578.46875.11719 1.39844.0586.46484v.875l.11718 1.04688v4.78125l-.0586.46484-.35156 1.28125-.17578.52344-.11328.41015-.35156.9297L172.93359 336l-.23437.58203-.11719.17578-.17187.34766-.17578.40625-.35157.8164-.0586.29297-.11327.29297-.11719.28906-.0586.17579-.11718.875-.0586.40625-.05859.11718-.0586.17579-.05859.17187-.23047.52734-.11718.17188v.23437l-.11719.23438-.0586.17187-.17577.58594v.28906l-.0586.17579v.29296l-.0586.11329-.05859.52734v.17187l-.05468.23438v2.6211l-.17578.8164-.1172.17578-.17577.23438-.1172.17187-.11327.23438-.58594.93359-.23047.28906-.29297.46485-.17578.23437-.28906.35156-.35156.69922-.11328.23047-.17579.41016-.17578.23046-.40625.52735-.8164.69922-.29297.17187-.28906.23438-.17579.11719-.17578.17578-.52344.40625-.52734.17578-.17187.17578-.23438.05469-.64062.17578h-.75782m12.21094 31.02344l-1.07422.44921.35938.89454 1.25-.71485.44531-.53906-.98047-.08985"/><path fill="#d3d3d3" fill-opacity="0" fill-rule="evenodd" d="M201.50781 416.59766h-.89453l.44922.6289.98047.35938.80469-.08985.4453-.98828-.17577.08985-.71485-.35547-.89453.35547m154.6211 59.0703l-.0586-.52343v-.29297l.11328-.29297.0586-.23046.46875-.46875h.11328l.11719-.11329.11718-.05859h.17579l.23437-.0586h.34766l.23437.0586.11719.0586.23047.17187.0586.17578.11718.58203v.29297l-.11719.17578-.17187.28906-.17579.17579-.52734.52343-.23047.23438-.11719.0586h-.17578l-.11718-.0586-.40625-.29297-.17579-.11719-.11718-.0586-.0586-.11327-.05468-.1172m6.64062-10.95702l-.0586-.17188v-1.10937l.0586-.17188.17578-.0586.17188-.05858h.17578l.23437-.0586.1172.0586.05858.69921-.05859.17188-.11719.17578-.11718.0586-.23438.52343-.11328.0586h-.23438l-.05859-.1172m9.61328-14.39062l-.11719-.17578v-.69922l.29297-.875.1172-.17187.17577-.35156.11328-.23047.1172-.29297.35155-.75781.1172-.23047.17187-.23438h.17578l.11719-.0586h.64062l.11719.0586.23437.23438.17188.11328.35156.29297.11719.11718.11328.17579v.11328l.11719.05859.11718.11719v.69922l-.05859.17578v.23047l-.0586.17578-.34765 1.05078-.11719.23047-.11719.23437-.11718.0586-.23047.23437-.64063.28906h-.875l-.41015-.11718-.64063-.46485"/><path fill="none" stroke="#bebebe" stroke-linecap="round" stroke-linejoin="round" stroke-miterlimit="10" stroke-width=".5" d="M467.95703 311.69531H144.02734v168.625h323.9297v-168.625"/><g clip-path="url(#a)"><path fill="#fff" fill-opacity="0" fill-rule="evenodd" d="M144 475.89063v4.4375h.0039H144V311.67188h.0039H144v164.21875"/></g><g clip-path="url(#b)"><path fill="#fff" fill-opacity="0" fill-rule="evenodd" d="M144.0039 480.32813V311.67188h17.75v140.41406l-1.375 1.61328-.51171 4.4375.57422 4.4375 1.3125.82031 1.77343-.82031.28516-4.4375-.24219-4.4375-1.8164-1.61328V311.67188h217.48047V457.0039l-1.33204 1.1328 1.33204 1.44532.99218-1.44531-.99219-1.13281V311.67187h8.875v147.21485l-4.20312 3.6875 4.20313 3.91015 4.4375-2.03515 2.32421-1.875-2.32421-2.05078-4.4375-1.63672V311.67187h79.88671v168.65625h-65.6875l-.8828-.6875-4.44142-2.71484-3.28515 3.40235H144.0039"/></g><path fill="#50fcfc" fill-rule="evenodd" d="M160.4414 462.57422l-.57421-4.4375.51172-4.4375 1.375-1.61328 1.8164 1.61328.24219 4.4375-.28516 4.4375-1.77343.82031-1.3125-.82031m218.79297-2.99219l-1.33204-1.44531 1.33204-1.13281.99218 1.1328-.99219 1.44532m8.875 6.90235l-4.20312-3.91016 4.20313-3.6875v2.09765l-1.8125 1.58985 1.8125 1.6875 2.42187-1.6875-2.42188-1.58985v-2.09765l4.4375 1.63672 2.32422 2.05078-2.32421 1.875-4.4375 2.03515"/><path fill="#00e8fc" fill-rule="evenodd" d="M388.10938 464.26172l-1.8125-1.6875 1.8125-1.58985 2.42187 1.58985-2.42188 1.6875"/><g clip-path="url(#c)"><path fill="#50fcfc" fill-rule="evenodd" d="M393.69922 480.32813h1.89844l1.38671-1.4375 1.97266 1.4375h3.35156l-.8828-.6875-4.44142-2.71485-3.28515 3.40235"/></g><g clip-path="url(#d)"><path fill="#00e8fc" fill-rule="evenodd" d="M395.59766 480.32813h3.35937l-1.97265-1.4375-1.38672 1.4375"/></g><g clip-path="url(#e)"><path fill="#fff" fill-opacity="0" fill-rule="evenodd" d="M467.9961 480.32813H468V311.67188h-.0039H468v168.65625h-.0039"/></g><g clip-path="url(#f)"><path fill="none" stroke="#000" stroke-linecap="round" stroke-linejoin="round" stroke-miterlimit="10" stroke-width=".5" d="M147.4414 481.04297l-6.8828-1.42578"/></g><g clip-path="url(#g)"><path fill="none" stroke="#000" stroke-linecap="round" stroke-linejoin="round" stroke-miterlimit="10" stroke-width=".5" d="M147.4414 481.04297l.6875 2.35547"/></g><g clip-path="url(#h)"><path fill="none" stroke="#000" stroke-linecap="round" stroke-linejoin="round" stroke-miterlimit="10" stroke-width=".5" d="M146.4375 480.83594l.34766 1.17578"/></g><g clip-path="url(#i)"><path fill="none" stroke="#000" stroke-linecap="round" stroke-linejoin="round" stroke-miterlimit="10" stroke-width=".5" d="M160.75781 481.03906l-6.88281-1.42187"/></g><g clip-path="url(#j)"><path fill="none" stroke="#000" stroke-linecap="round" stroke-linejoin="round" stroke-miterlimit="10" stroke-width=".5" d="M160.75781 481.03906l.6875 2.35547"/></g><g clip-path="url(#k)"><path fill="none" stroke="#000" stroke-linecap="round" stroke-linejoin="round" stroke-miterlimit="10" stroke-width=".5" d="M174.11328 480.80469l-6.96484-.95313"/></g><g clip-path="url(#l)"><path fill="none" stroke="#000" stroke-linecap="round" stroke-linejoin="round" stroke-miterlimit="10" stroke-width=".5" d="M174.11328 480.80469l.84766 2.30078"/></g><g clip-path="url(#m)"><path fill="none" stroke="#000" stroke-linecap="round" stroke-linejoin="round" stroke-miterlimit="10" stroke-width=".5" d="M187.41016 480.90234l-6.9297-1.14843"/></g><g clip-path="url(#n)"><path fill="none" stroke="#000" stroke-linecap="round" stroke-linejoin="round" stroke-miterlimit="10" stroke-width=".5" d="M187.41016 480.90234l.78515 2.32422"/></g><g clip-path="url(#o)"><path fill="none" stroke="#000" stroke-linecap="round" stroke-linejoin="round" stroke-miterlimit="10" stroke-width=".5" d="M200.75781 480.64453l-6.9961-.63281"/></g><g clip-path="url(#p)"><path fill="none" stroke="#000" stroke-linecap="round" stroke-linejoin="round" stroke-miterlimit="10" stroke-width=".5" d="M200.75781 480.64453l.95313 2.26172"/></g><g clip-path="url(#q)"><path fill="none" stroke="#000" stroke-linecap="round" stroke-linejoin="round" stroke-miterlimit="10" stroke-width=".5" d="M214.03125 479.6836l-6.91016 1.28906"/></g><g clip-path="url(#r)"><path fill="none" stroke="#000" stroke-linecap="round" stroke-linejoin="round" stroke-miterlimit="10" stroke-width=".5" d="M213.02344 479.8711l.76562.96093"/></g><g clip-path="url(#s)"><path fill="none" stroke="#000" stroke-linecap="round" stroke-linejoin="round" stroke-miterlimit="10" stroke-width=".5" d="M227.17188 479.07422l-6.5625 2.51172"/></g><g clip-path="url(#t)"><path fill="none" stroke="#000" stroke-linecap="round" stroke-linejoin="round" stroke-miterlimit="10" stroke-width=".5" d="M226.21875 479.4375l.92188.80469"/></g><g clip-path="url(#u)"><path fill="none" stroke="#000" stroke-linecap="round" stroke-linejoin="round" stroke-miterlimit="10" stroke-width=".5" d="M239.99219 478.1875l-5.57031 4.28125"/></g><path fill="none" stroke="#000" stroke-linecap="round" stroke-linejoin="round" stroke-miterlimit="10" stroke-width=".5" d="M239.17969 478.8086l1.11719.5078"/><g clip-path="url(#v)"><path fill="none" stroke="#000" stroke-linecap="round" stroke-linejoin="round" stroke-miterlimit="10" stroke-width=".5" d="M253.3125 478.19531l-5.58203 4.26563"/></g><path fill="none" stroke="#000" stroke-linecap="round" stroke-linejoin="round" stroke-miterlimit="10" stroke-width=".5" d="M252.5 478.8164l1.11328.51173"/><g clip-path="url(#w)"><path fill="none" stroke="#000" stroke-linecap="round" stroke-linejoin="round" stroke-miterlimit="10" stroke-width=".5" d="M266.10547 477.64844l-4.53906 5.36328"/></g><path fill="none" stroke="#000" stroke-linecap="round" stroke-linejoin="round" stroke-miterlimit="10" stroke-width=".5" d="M265.44531 478.42969l1.19922.25781"/><g clip-path="url(#x)"><path fill="none" stroke="#000" stroke-linecap="round" stroke-linejoin="round" stroke-miterlimit="10" stroke-width=".5" d="M278.375 477.03516l-2.44922 6.58593"/></g><path fill="none" stroke="#000" stroke-linecap="round" stroke-linejoin="round" stroke-miterlimit="10" stroke-width=".5" d="M278.01953 477.99219l1.21485-.16016"/><g clip-path="url(#y)"><path fill="none" stroke="#000" stroke-linecap="round" stroke-linejoin="round" stroke-miterlimit="10" stroke-width=".5" d="M290.2461 476.82031l.4375 7.01563"/></g><path fill="none" stroke="#000" stroke-linecap="round" stroke-linejoin="round" stroke-miterlimit="10" stroke-width=".5" d="M290.3125 477.84375l1.04297-.64453"/><g clip-path="url(#z)"><path fill="none" stroke="#000" stroke-linecap="round" stroke-linejoin="round" stroke-miterlimit="10" stroke-width=".5" d="M302.7539 476.96875l2.0547 6.71875"/></g><path fill="none" stroke="#000" stroke-linecap="round" stroke-linejoin="round" stroke-miterlimit="10" stroke-width=".5" d="M303.05078 477.94531l.86719-.86719"/><g clip-path="url(#A)"><path fill="none" stroke="#000" stroke-linecap="round" stroke-linejoin="round" stroke-miterlimit="10" stroke-width=".5" d="M316.35938 476.89453l1.47265 6.8711"/></g><path fill="none" stroke="#000" stroke-linecap="round" stroke-linejoin="round" stroke-miterlimit="10" stroke-width=".5" d="M316.57422 477.89453l.9414-.79297"/><g clip-path="url(#B)"><path fill="none" stroke="#000" stroke-linecap="round" stroke-linejoin="round" stroke-miterlimit="10" stroke-width=".5" d="M329.89063 476.85547l1.04296 6.94922"/></g><path fill="none" stroke="#000" stroke-linecap="round" stroke-linejoin="round" stroke-miterlimit="10" stroke-width=".5" d="M330.04297 477.86328l.98437-.72656"/><g clip-path="url(#C)"><path fill="none" stroke="#000" stroke-linecap="round" stroke-linejoin="round" stroke-miterlimit="10" stroke-width=".5" d="M344.02734 476.82813l-.60546 7"/></g><path fill="none" stroke="#000" stroke-linecap="round" stroke-linejoin="round" stroke-miterlimit="10" stroke-width=".5" d="M343.9414 477.84766l1.12891-.48047"/><g clip-path="url(#D)"><path fill="none" stroke="#000" stroke-linecap="round" stroke-linejoin="round" stroke-miterlimit="10" stroke-width=".5" d="M356.01953 476.96484l2.04297 6.72657"/></g><path fill="none" stroke="#000" stroke-linecap="round" stroke-linejoin="round" stroke-miterlimit="10" stroke-width=".5" d="M356.3164 477.94531l.8711-.86719"/><g clip-path="url(#E)"><path fill="none" stroke="#000" stroke-linecap="round" stroke-linejoin="round" stroke-miterlimit="10" stroke-width=".5" d="M369.60156 476.89844l1.50781 6.86328"/></g><path fill="none" stroke="#000" stroke-linecap="round" stroke-linejoin="round" stroke-miterlimit="10" stroke-width=".5" d="M369.82031 477.89453l.9336-.79297"/><g clip-path="url(#F)"><path fill="none" stroke="#000" stroke-linecap="round" stroke-linejoin="round" stroke-miterlimit="10" stroke-width=".5" d="M380.2461 481.11328l6.85156-1.5664"/></g><g clip-path="url(#G)"><path fill="none" stroke="#000" stroke-linecap="round" stroke-linejoin="round" stroke-miterlimit="10" stroke-width=".5" d="M381.24219 480.88281l-.80078-.92578"/></g><g clip-path="url(#H)"><path fill="none" stroke="#000" stroke-linecap="round" stroke-linejoin="round" stroke-miterlimit="10" stroke-width=".5" d="M393.67188 481.49219l6.6289-2.32813"/></g><g clip-path="url(#I)"><path fill="none" stroke="#000" stroke-linecap="round" stroke-linejoin="round" stroke-miterlimit="10" stroke-width=".5" d="M393.67188 481.49219l-1.8047-1.66406"/></g><g clip-path="url(#J)"><path fill="none" stroke="#000" stroke-linecap="round" stroke-linejoin="round" stroke-miterlimit="10" stroke-width=".5" d="M409.15625 483.64844l2.29297-6.64063"/></g><g clip-path="url(#K)"><path fill="none" stroke="#000" stroke-linecap="round" stroke-linejoin="round" stroke-miterlimit="10" stroke-width=".5" d="M426.0664 482.84766l-4.90234-5.03516"/></g><g clip-path="url(#L)"><path fill="none" stroke="#000" stroke-linecap="round" stroke-linejoin="round" stroke-miterlimit="10" stroke-width=".5" d="M440.3086 479.36328l-6.75391 1.9336"/></g><g clip-path="url(#M)"><path fill="none" stroke="#000" stroke-linecap="round" stroke-linejoin="round" stroke-miterlimit="10" stroke-width=".5" d="M440.3086 479.36328l1.70312 1.76563"/></g><g clip-path="url(#N)"><path fill="none" stroke="#000" stroke-linecap="round" stroke-linejoin="round" stroke-miterlimit="10" stroke-width=".5" d="M453.4336 478.85156l-6.375 2.95313"/></g><g clip-path="url(#O)"><path fill="none" stroke="#000" stroke-linecap="round" stroke-linejoin="round" stroke-miterlimit="10" stroke-width=".5" d="M453.4336 478.85156l1.95702 1.48438"/></g><g clip-path="url(#P)"><path fill="none" stroke="#000" stroke-linecap="round" stroke-linejoin="round" stroke-miterlimit="10" stroke-width=".5" d="M467.0586 479.99219l-6.9961.67187"/></g><g clip-path="url(#Q)"><path fill="none" stroke="#000" stroke-linecap="round" stroke-linejoin="round" stroke-miterlimit="10" stroke-width=".5" d="M467.0586 479.99219l1.35546 2.04687"/></g><g clip-path="url(#R)"><path fill="none" stroke="#000" stroke-linecap="round" stroke-linejoin="round" stroke-miterlimit="10" stroke-width=".5" d="M147.51172 467.01563h-7.02344"/></g><path fill="none" stroke="#000" stroke-linecap="round" stroke-linejoin="round" stroke-miterlimit="10" stroke-width=".5" d="M147.51172 467.01563l1.15234 2.16406m-2.17187-2.16406l.57422 1.08203m13.73828-1.48828l-6.98047.80859m6.98047-.8086l1.39453 2.01954m-2.41016-1.90235l.69531 1.01172m13.58204-1.46094l-6.8711 1.47266m6.8711-1.47266l1.57812 1.875m11.6836-2.09375l-6.76563 1.91016m6.76563-1.91016l1.6953 1.76953m11.58204-1.88671l-6.6914 2.14453m6.6914-2.14453l1.75781 1.71093m11.46484-1.96875l-6.5039 2.66016m6.5039-2.66016l1.88672 1.57032m11.1836-2.0586l-6.01563 3.63672m6.01563-3.63672l2.10547 1.25781m10.97656-1.59375l-5.55078 4.3086m5.55078-4.3086l2.23828 1.00391m10.83984-1.27734l-5.07812 4.85547m5.07812-4.85547l2.33203.76953m10.52344-1.17578l-4.15625 5.66797m4.15625-5.66797l2.42578.35156m10.59375-.54297l-3.5664 6.05078m3.5664-6.05078l2.45313.10547m10.4414-.32031l-2.72265 6.48047m2.72265-6.48047l2.44141-.22266m10.33594.04688l-1.64844 6.83203m1.64844-6.83203l2.3789-.60938m10.42188.52735l-.6211 6.99609m.53126-5.98047l1.1289-.47656m11.32813-.4961l1.27344 6.91016m-1.08594-5.90625l.96094-.76172m12.35156-.26953l.90625 6.96875m-.77344-5.95703l1-.71094m11.84766-.24219l1.57421 6.84766m-1.34765-5.85156l.92969-.80469m12.26562-.21484l1.35938 6.89453m-1.16016-5.89063l.94922-.77343m10.88672.30078l3.92187 5.83203m-3.35156-4.98438l.57813-1.08203m10.62109 2.91797l7.01172.46484m-5.99219-.39843l-.5039-1.1172m13.25-.44921l6.10937 3.46484m-5.22266-2.96093l.03516-1.22657m18.25781.34375l-5.61719 4.22266m4.79688-3.60938l1.11328.51954m12.67969-1.52344l-4.9336 5.0039m4.21485-4.27734l1.17578.35156m13.90234 1.57032l-7.02344-.29297m6 .25l.53125 1.10547m13.69532-.32032l-6.79688-1.77734m6.79688 1.77734l.5664 2.38672"/><g clip-path="url(#S)"><path fill="none" stroke="#000" stroke-linecap="round" stroke-linejoin="round" stroke-miterlimit="10" stroke-width=".5" d="M147.51172 453.5664l-7.02344.26563"/></g><path fill="none" stroke="#000" stroke-linecap="round" stroke-linejoin="round" stroke-miterlimit="10" stroke-width=".5" d="M147.51172 453.5664l1.23047 2.1211m-2.2539-2.08203l.61718 1.0625M160.82422 453.5l-7.01563.39453m7.01563-.39453l1.26953 2.10156m12.01953-2.36719l-6.96484.92579m6.96484-.92578l1.42578 1.99609m11.83594-2.30078l-6.85938 1.53515m6.85938-1.53515l1.59766 1.86328m11.46093-2.60547l-6.34765 3.01953m6.34765-3.01953l1.96875 1.46094m-2.89453-1.01953l.98828.73047m13.35157-.9375l-6.54688 2.55468m6.54688-2.55469l1.86328 1.59766m-2.8164-1.22656l.93358.80078m12.89844-1.97266l-5.67187 4.15235m5.67187-4.15235l2.20703 1.06641m-3.03515-.46094l1.10547.53516m12.35547-1.83985l-4.3086 5.55079m4.3086-5.55078l2.41796.41796m-3.04297.39063l1.20704.21094m12.36328-1.26954l-3.5664 6.0547m3.5664-6.0547l2.44922.10547m-2.96875.77344l1.22656.05469m12.63281-.91797l-3.6211 6.02344m3.6211-6.02344l2.45313.1289m10.99218-.04687l-3.8789 5.85938m3.8789-5.85938l2.44141.23438m-3.0039.61718l1.21874.1172m11.78907-1.38673l-2.14063 6.69532m2.14063-6.69532l2.41406-.4375m-2.72266 1.41016l1.20703-.21484m12.33204-.78516l-1.96875 6.7461m1.96875-6.7461l2.39843-.5m10.83203.47656l-1.80078 6.79297m1.80078-6.79297l2.38672-.5586m11.48828.76173l-2.91796 6.39062m2.91796-6.39062l2.44922-.14844m11.91016.8789l-5.00781 4.9297m5.0078-4.9297l2.33985.73438m10.10938-1.3789l-3.27735 6.21484m3.27735-6.21485l2.45312-.0078m11.39063.35155l-4.33203 5.53125m3.69922-4.72656l1.21093.21485m13.29297-.47266l-5.44922 4.4375m4.65625-3.79297l1.13282.47656m8.76953-2.08984l2.96484 6.3711m-2.53516-5.44141l.7422-.98047m12.76171 6.64453l1.73047-6.8125m-1.48047 5.82031l-1.1914.29297m18.61328-3.10156l-6.98438.78515m5.96875-.66796l.6914 1.01171m13.26954-2.34765l-6.2461 3.22656m6.2461-3.22656l2.01562 1.39844m11.6914.23046l-7.02733-.03125m6.0039.02735l.57031 1.08594m12.38282 1.6953l-4.26172-5.58593"/><g clip-path="url(#T)"><path fill="none" stroke="#000" stroke-linecap="round" stroke-linejoin="round" stroke-miterlimit="10" stroke-width=".5" d="M147.47656 440.8789l-6.95312-.99218"/></g><path fill="none" stroke="#000" stroke-linecap="round" stroke-linejoin="round" stroke-miterlimit="10" stroke-width=".5" d="M147.47656 440.8789l.83594 2.3086m-1.84766-2.45313l.41797 1.15625m13.9414-1.35156l-7.01952-.3125m7.01953.3125l1.05469 2.21485m-2.07422-2.26172l.52734 1.10937M174 439.39063l-6.74219 1.98437M174 439.39063l1.71875 1.7539m11.50781-2.01562l-6.5625 2.51172m6.5625-2.51172l1.85156 1.60937m11.41016-1.74219l-6.45703 2.77344m6.45703-2.77344l1.91406 1.53516m-2.85156-1.13281l.95703.76953m12.875-1.89453l-5.61719 4.22265m5.6172-4.22265l2.22265 1.03906m-3.03906-.42578l1.11328.51953m12.875-1.3125l-5.32813 4.57813m5.32813-4.57813l2.28515.89453m-3.05859-.22656l1.14063.44531m12.03906-1.86719l-3.51172 6.08594m3.51172-6.08594l2.45312.08594m-2.96484.80078l1.22656.04297m11.0625-1.39453l-.4336 7.01563m.4336-7.01563l2.23047-1.01563m12.96094 1.70313l-4.1914 5.64063m4.1914-5.64063l2.42578.36719m10.82812-.41016l-4.0664 5.73047m4.0664-5.73047l2.4336.3125m10.14062-.71484l-2.58203 6.53515m2.58203-6.53515l2.4375-.27735m10.92578.29688l-2.68359 6.49219m2.6836-6.4922l2.4453-.23827m10.95704.27344l-2.85547 6.42187m2.85547-6.42187L320.96875 437m11.8789.85156l-4.87109 5.0625m4.8711-5.0625l2.35937.67188m10.85547-.76563l-4.67187 5.25m4.67187-5.25l2.38281.58203m-3.0625.1836l1.1914.28906m12.31642-1.41797l-3.69922 5.97656m3.69922-5.97656l2.44921.16406m-2.98828.70704l1.22657.08203m12.36328-1.10157l-3.16797 6.27344m3.16797-6.27344l2.45312-.05078m-2.91406.96485l1.22656-.02735m9.61719-.9961l2.6914 6.4922m-2.6914-6.4922l1.5625-1.89452m9.59375 5.34765l7.01172-.41015m-5.99219.35156l-.64062-1.05078m13.07421 1.90625l6.73438-2.00781m-5.7539 1.71875l-.86329-.875m18.95703-2.41016l-4.78515 5.14453m4.78515-5.14453l2.3711.6289m11.14453-.43359l-5.1836 4.75m5.1836-4.75l2.3125.82032m11.67578.26171l-6.53125 2.58985m5.58203-2.21485l.9336.79688m13.32812 1.42578l-6.52344-2.60937m5.57422 2.23046l.13281 1.21875"/><g clip-path="url(#U)"><path fill="none" stroke="#000" stroke-linecap="round" stroke-linejoin="round" stroke-miterlimit="10" stroke-width=".5" d="M147.41016 427.92188l-6.82032-1.70704"/></g><path fill="none" stroke="#000" stroke-linecap="round" stroke-linejoin="round" stroke-miterlimit="10" stroke-width=".5" d="M147.41016 427.92188l.58984 2.3789m-1.58203-2.6289l.29297 1.1914m14.05469-1.14062l-6.90235-1.3086m6.90234 1.3086l.73047 2.34375m-1.73437-2.53516l.36328 1.17188m14.00781-1.35157l-7.0039-.5664m7.0039.5664l.97266 2.25m12.34766-2.69922l-7.01563.33204m7.01563-.33204l1.2539 2.11329m-2.27344-2.0625l.625 1.05468m13.4922-2.17187l-6.58204 2.46484m6.58203-2.46484l1.83984 1.625m-2.79687-1.26563l.91797.8125m13.16797-1.58203l-6.21094 3.28516m6.21094-3.28516l2.03125 1.3789m-2.9336-.89843l1.01563.6875m13.08984-1.36328l-5.98828 3.67578m5.98828-3.67578L229 426.47266m-2.98828-.70703l1.0586.62109m13.23437-.96875l-6.19922 3.30078m6.19922-3.30078l2.03515 1.36719m10.78907-2.07032l-5.21485 4.70704m5.21485-4.70704l2.30468.83594m10.4922-1.3086l-4.1797 5.65235m4.1797-5.65234l2.42577.36328m-3.03515.46094l1.21484.17968m13.10547-.66015l-4.96875 4.96875m4.96875-4.96875l2.34375.71484m10.63672-1.01172l-4.30469 5.5586m4.30469-5.5586l2.41797.41797m10.07421-.89062l-2.65625 6.5039m2.65625-6.5039l2.44141-.25m10.78125.21093l-2.47266 6.58204m2.47266-6.58204l2.4336-.3164m11.6914.75l-4.08984 5.71484m4.08984-5.71484l2.42969.32422m-3.02735.5078l1.21875.16017m13.5625-.09375l-5.83203 3.91796m5.83203-3.91797l2.16797 1.15625m-3.01562-.58593l1.08203.57812m12.63672-1.6875l-4.9414 4.9961m4.9414-4.9961l2.35156.70313m10.8164-.83985l-4.64843 5.26954m4.64844-5.26954L375.0664 425m10.58203-.83594l-3.95703 5.8086m3.95703-5.8086l2.4414.26953m-3.01562.57422l2.4375.26953m-3.01172.57813l1.21875.13281M400 425.26172l-6.02734 3.61328M400 425.26172l2.10156 1.26562m-2.98047-.73828l2.10547 1.26563m11.89063-2.08985l-5.6289 4.20704m5.6289-4.20704l2.21875 1.04688m-3.03907-.4336l2.21875 1.04297m11.19141-2.3789l-4.17969 5.65234m4.1797-5.65234l2.42577.36328m-3.03515.46094l2.42578.35937m9.89843-1.83594l-.98046 6.95704m.98046-6.95704l2.3047-.83984m-2.44923 1.85156l2.3047-.83984m-2.44532 1.85156l1.15234-.41797m12.80469-1.53515l-1.69531 6.8164m1.69531-6.8164l2.38281-.59766m-2.6289 1.58984l2.3789-.59765m11.6875-.23047l-2.70703 6.48828m2.70703-6.48828l2.44531-.22656m-2.83984 1.17187l1.22266-.11328"/><g clip-path="url(#V)"><path fill="none" stroke="#000" stroke-linecap="round" stroke-linejoin="round" stroke-miterlimit="10" stroke-width=".5" d="M147.44531 414.4336l-6.89062-1.35938"/></g><path fill="none" stroke="#000" stroke-linecap="round" stroke-linejoin="round" stroke-miterlimit="10" stroke-width=".5" d="M147.44531 414.4336l.71485 2.34765m-1.71485-2.54688l.35547 1.17579m14.0039-1.2422l-6.98046-.82812m6.98047.82813l.88672 2.28516m-1.90235-2.40625l.44531 1.14453m13.90235-1.22657l-7.01563-.42187m7.01563.42187l1.01953 2.23047m-2.03906-2.29297l.51172 1.1172m13.78125-1.83985l-6.9297 1.14844m6.9297-1.14844l1.49218 1.94531m-2.5-1.78125l.7461.97656m13.45312-1.64843l-6.6836 2.16406m6.6836-2.16406l1.76563 1.70703m-2.73828-1.39063l.8828.85156m13.53126-.64453l-6.9375 1.11719m6.9375-1.11719l1.48437 1.95313m-2.49218-1.79297l.74218.98047m13.54297-1.34375l-6.85937 1.51953m6.85937-1.51953l1.59375 1.86719m10.72266-3.64454l-4.86328 5.07422m4.86328-5.07422l2.35937.66797m11.1797-.42968l-5.3125 4.60156m5.3125-4.60156l2.28905.8828m-3.0625-.21484l1.14453.44141m12.12891-1.80469l-3.67969 5.98828m3.6797-5.98828l2.44921.15235m11.46094.30859l-4.8711 5.0664m4.8711-5.0664l2.35937.67188m-3.07031.0664l1.1836.33594m12.44921-1.39844l-4.08594 5.71875m4.08594-5.71875l2.4336.32031m8.74218-.97265l.19532 7.02344m-.16797-6.00391l1.0664-.60547m13.35938-.25781l-2.08203 6.71094m2.08203-6.71094l2.41015-.46094m11.9961 1.02344l-4.26172 5.58594m4.26172-5.58594l2.42187.39844m10.67578-.55079l-3.82812 5.89063m3.82812-5.89063l2.44532.21485m9.8086-.67969l-1.70704 6.8164m1.70703-6.8164l2.38281-.58984m12.84375 1.83203l-5.53125 4.33203m5.53125-4.33203l2.2422.9961m11.21874-.79688l-5.82031 3.9375m5.82031-3.9375l2.16797 1.14843m-3.01563-.57812l2.16797 1.14844m11.83594-1.9336l-5.5039 4.36719m5.5039-4.36719l2.25.98047m-3.05078-.34375l2.25.98047m11.58594-1.9336l-4.9414 4.9961m4.9414-4.9961l2.34765.70704m-3.0664.02343l2.34765.70313m11.28125-1.77344l-4.1328 5.67969m4.1328-5.67969l2.4297.34375m-3.03126.48047l1.21484.17188m11.72657-1.4961l-2.1836 6.67969m2.1836-6.67969l2.41797-.42187m-2.73438 1.39453l2.41406-.42188m11.62891-.38672l-3.00781 6.35157m3.00781-6.35156l2.45312-.11329m-2.89062 1.03907l2.45312-.1172m12.10547-.28124l-4.61718 5.29687"/><g clip-path="url(#W)"><path fill="none" stroke="#000" stroke-linecap="round" stroke-linejoin="round" stroke-miterlimit="10" stroke-width=".5" d="M465.8711 411.10547l2.39062.55469"/></g><path fill="none" stroke="#000" stroke-linecap="round" stroke-linejoin="round" stroke-miterlimit="10" stroke-width=".5" d="M465.19922 411.875l2.39062.5586m-3.0625.21484l2.39063.55468"/><g clip-path="url(#X)"><path fill="none" stroke="#000" stroke-linecap="round" stroke-linejoin="round" stroke-miterlimit="10" stroke-width=".5" d="M147.5039 400.69922l-7.0078-.52344"/></g><path fill="none" stroke="#000" stroke-linecap="round" stroke-linejoin="round" stroke-miterlimit="10" stroke-width=".5" d="M147.5039 400.69922l.98829 2.25m12.32031-2.83203l-6.9961.64453m6.9961-.64453l1.34766 2.05078m11.98047-1.82031l-7.02344.18359m7.02344-.1836l1.21093 2.13282m-2.23047-2.10547l.60157 1.0664m13.51172-2.24218l-6.57813 2.48047m6.57813-2.48047l1.83984 1.6211m-2.79688-1.26173l.92188.8125m13.33594-1.21093l-6.54688 2.55468m6.54688-2.55468l1.85937 1.60156m11.36719-1.80469l-6.3711 2.96485m6.3711-2.96485l1.95703 1.47656m11.41797-1.33984l-6.49219 2.6914m6.49219-2.6914l1.89453 1.5586m11.30078-1.81641l-6.2539 3.20703m6.2539-3.20703l2.01172 1.40234m-2.92188-.9375l1.00782.70313m13.32812-.9336l-6.47265 2.73828m6.47265-2.73828l1.90235 1.54297m11.26562-1.84375l-6.1836 3.33985m6.1836-3.33985l2.04297 1.35938m11.1836-1.51563l-6.00391 3.65235m6.0039-3.65235l2.10938 1.25m11.34375-1.0039l-6.27735 3.16015m18.89844-4.10547l-4.89062 5.04688m4.17968-4.3125l1.1797.33984m13.91015 1.2461l-7.01563.40625m7.01563-.40625l1.27344 2.09765m11.6875-3.4375l-6.3125 3.08985m6.3125-3.08985l1.98828 1.4375m9.19922-3.2539l-2.0547 6.71875m1.75391-5.7422l1.20704-.23437m11.66796-.88281l-.57421 7.0039m.49218-5.98437l1.125-.48437m13.50391-.20313l-3.03516 6.33594m3.03516-6.33594l2.44922-.10156m11.38672.41015l-4.08203 5.71875m4.08203-5.71875l2.4336.32032m-3.02735.51172l2.4336.3203m12.16796-.5039l-5.46484 4.42188m5.46484-4.42188l2.25781.96094m-3.05469-.3164l1.12891.48046m13.71875.52735L406.83203 401m6.9375-1.1211l1.48438 1.95313m-2.4922-1.79297l.7422.98047m13.1328-2.375l-6.04296 3.58594m6.04297-3.58594l2.09765 1.27735m-2.97656-.75391l1.05078.63672m12.58594-1.8711l-4.92578 5.00782m4.92578-5.00782l2.35156.69922m-3.0664.03125l2.35156.69531m12.10156-.92578l-5.77344 4.00782m5.77344-4.00782l2.17969 1.1211m-3.01953-.53906l2.17969 1.125m11.99609-1.67188l-5.8164 3.9414"/><g clip-path="url(#Y)"><path fill="none" stroke="#000" stroke-linecap="round" stroke-linejoin="round" stroke-miterlimit="10" stroke-width=".5" d="M466.46875 398.46875l2.17188 1.14453"/></g><g clip-path="url(#Z)"><path fill="none" stroke="#000" stroke-linecap="round" stroke-linejoin="round" stroke-miterlimit="10" stroke-width=".5" d="M465.625 399.03906l2.16797 1.14844"/></g><path fill="none" stroke="#000" stroke-linecap="round" stroke-linejoin="round" stroke-miterlimit="10" stroke-width=".5" d="M464.77734 399.61328l1.08594.57422"/><g clip-path="url(#aa)"><path fill="none" stroke="#000" stroke-linecap="round" stroke-linejoin="round" stroke-miterlimit="10" stroke-width=".5" d="M147.44922 386.45703l-6.89844 1.33203"/></g><path fill="none" stroke="#000" stroke-linecap="round" stroke-linejoin="round" stroke-miterlimit="10" stroke-width=".5" d="M147.44922 386.45703l1.54297 1.91016m11.69531-2.23438l-6.74219 1.98047m6.74219-1.98047l1.71484 1.7539M173.96094 386l-6.66016 2.2461M173.96094 386l1.78125 1.6875m10.6211-3.11328l-4.83595 5.09765m4.83594-5.09765l2.36328.65625m-3.0664.08594l1.18359.32812m11.92578-1.69531l-3.01953 6.34765m3.01953-6.34765l2.44922-.10938m-2.89063 1.03516l1.22657-.0586m14.53125 2.19532l-7.02344.22265m7.02344-.22265l1.22265 2.1289m-2.24218-2.09765l.60937 1.0664m13.6289-1.8125l-6.82812 1.65235m6.82813-1.65235l1.6289 1.83594m11.66407-1.92187l-6.78516 1.82422m6.78516-1.82422l1.67578 1.79687m-2.66016-1.53125l1.67188 1.79688m12.40625-2.66016l-6.34375 3.01953m6.34375-3.01953l1.97265 1.46094m-2.89453-1.02344l1.97266 1.46094m12.13672-2.14453l-6.08594 3.51172m6.08594-3.51172l2.08203 1.30078m-2.96875-.78906l1.04297.64843m12.78515-1.6875l-5.33984 4.56641m5.33984-4.5664l2.28516.89843m-3.0625-.23437l1.14453.44921m13.05469-.98437l-5.55078 4.3086m5.55078-4.3086l2.23828 1.00781m11.3086-.67187l-6.01563 3.63672m5.14062-3.10547l1.05078.6289m13.4375-.53125l-6.61328 2.38282m5.64844-2.03907l.91016.82422m13.46093-.875l-6.79687 1.79297m6.79687-1.79297l1.66407 1.80469m10.83593-3.28906l-5.16406 4.76172m4.41406-4.07032l1.15625.40625m13.76954.58985l-6.88672 1.39062m6.88672-1.39062l1.55859 1.89453m11.63672-2.33985l-6.64844 2.27735m6.64844-2.27735l1.79297 1.6797m-2.75782-1.34766l.89454.83984m13.29687-1.40625l-6.46875 2.7461m6.46875-2.7461l1.90625 1.54688m-2.84766-1.14844l.95313.77344m13.05469-1.64844L394 388.97266m5.97266-3.69922l2.12109 1.23437m-2.98828-.69531l1.0586.61719m13.21874-.99219l-6.16406 3.3711m6.16406-3.3711l2.05078 1.35156m-2.9453-.85937l1.02343.67187m13.27344-1l-6.33594 3.04297m6.33594-3.04297l1.97656 1.45703m11.39844-1.32421l-6.45703 2.77734m6.45703-2.77735l1.91406 1.53516m-2.85547-1.13281l.95703.76953m13.4336-.80078l-6.72657 2.03515m6.72657-2.03515l1.73046 1.74219m-2.70703-1.44532l.86328.8711m12.96875-2.125l-5.80859 3.95312"/><g clip-path="url(#ab)"><path fill="none" stroke="#000" stroke-linecap="round" stroke-linejoin="round" stroke-miterlimit="10" stroke-width=".5" d="M466.46484 385.14844l2.17188 1.14062"/></g><g clip-path="url(#ac)"><path fill="none" stroke="#000" stroke-linecap="round" stroke-linejoin="round" stroke-miterlimit="10" stroke-width=".5" d="M465.6211 385.72266l2.17187 1.14062"/></g><g clip-path="url(#ad)"><path fill="none" stroke="#000" stroke-linecap="round" stroke-linejoin="round" stroke-miterlimit="10" stroke-width=".5" d="M147.33594 372.70703l-6.67188 2.20313"/></g><path fill="none" stroke="#000" stroke-linecap="round" stroke-linejoin="round" stroke-miterlimit="10" stroke-width=".5" d="M147.33594 372.70703l1.77344 1.69531m-2.7422-1.375l.88673.84766m13.45703-.96875l-6.79297 1.80469m6.79297-1.80469l1.66797 1.79688m-2.65625-1.53516l.83593.89844m13.30078-1.64454l-6.45703 2.77344m6.45703-2.77344l1.91407 1.53516m-2.85547-1.13281l.95703.76562m13.01953-1.6914l-5.89844 3.82031m5.89844-3.82031l2.14453 1.19531m11.39453-.79688l-6.34375 3.02344m6.34375-3.02344l1.96875 1.46094m-2.89453-1.01953l.98828.73047m13.58203.05078l-7.0039.57813m7.0039-.57813l1.32422 2.0625m-2.34375-1.98047l1.32422 2.0664m13-2.25l-6.98437.78126m6.98437-.78125l1.38281 2.02734m-2.39843-1.91406l1.38281 2.02734m12.92188-2.33203l-6.9297 1.16406m6.9297-1.16406l1.49218 1.94922m-2.5-1.77734l1.49219 1.94531m12.63672-2.8164l-6.54297 2.5625m6.54297-2.5625l1.86328 1.59374m-2.8164-1.22265l.92968.79687m13.34375-1.14844l-6.55469 2.52344m6.5547-2.52344l1.85546 1.60547m-2.8086-1.23828l.92579.80078m12.98047-1.86718l-5.83203 3.92187m5.83203-3.92187l2.16406 1.15625m-3.01172-.58594l1.08203.57812m13.3164-.74218l-6.30077 3.10937m6.30078-3.10937l1.99219 1.43359m-2.91016-.98047l.9961.71485m13.45702-.60157l-6.74218 1.97266m6.74218-1.97266l1.71485 1.75781m-2.69531-1.46875l.85546.87891m13.34375-1.45312l-6.55078 2.54687m6.55078-2.54687l1.85938 1.60156m-2.8125-1.23047l.92969.80078m13.5664.38281l-7.0039-.5625m7.0039.5625l.97266 2.25391m12.33984-2.24219l-7-.58984m7 .58984l.96485 2.25781m12.36328-2.625l-7.02735.14844m7.02735-.14844L361.75 375.875m-2.21875-2.11719l.59766 1.07031m13.73047-1.28125l-7.00782.52344m7.00782-.52344l1.3125 2.07422m-2.33204-2l.65625 1.03907m13.66797-1.21485l-6.98828.72656m6.98828-.72656l1.3711 2.03516m-2.38672-1.92969l.6836 1.01953m13.60155-1.44531l-6.89453 1.36719m6.89453-1.36719l1.55079 1.89844m-2.5547-1.69922l.77735.94922m13.53906-1.16406l-6.88671 1.39843m6.88671-1.39844l1.5586 1.89454m11.7539-1.89844l-6.88671 1.40625m6.88671-1.40625L428.6211 375m11.6797-2.19531l-6.73829 2.00781m6.73828-2.00781l1.71875 1.75m11.5-2.02735l-6.54297 2.5625m6.54297-2.5625l1.85938 1.59766m11.01953-2.39063l-5.67188 4.14844"/><g clip-path="url(#ae)"><path fill="none" stroke="#000" stroke-linecap="round" stroke-linejoin="round" stroke-miterlimit="10" stroke-width=".5" d="M466.39844 371.73438l2.20703 1.0664"/></g><path fill="none" stroke="#000" stroke-linecap="round" stroke-linejoin="round" stroke-miterlimit="10" stroke-width=".5" d="M465.57031 372.33594l1.10547.53515"/><g clip-path="url(#af)"><path fill="none" stroke="#000" stroke-linecap="round" stroke-linejoin="round" stroke-miterlimit="10" stroke-width=".5" d="M146.85156 358.4414l-5.70312 4.10157"/></g><path fill="none" stroke="#000" stroke-linecap="round" stroke-linejoin="round" stroke-miterlimit="10" stroke-width=".5" d="M146.85156 358.4414l2.19922 1.08594m-3.02734-.48828l1.09765.54297m13.6875.53125l-6.98828.76172m6.98828-.76172l1.37891 2.02735m11.78125-.55079l-6.67578-2.1914m6.67578 2.1914l.41797 2.41797m13.05469-3.86328l-6.9922.69922m6.9922-.69922l1.36328 2.03906m11.90234-2.37109l-6.89453 1.36328m6.89453-1.36328l1.55078 1.90234m-2.55469-1.70703l.77735.95313m13.58984-.09375l-6.98828-.7461m6.98828.7461l.91406 2.27734m-1.93359-2.38672l.46094 1.13672m13.89062-1.52344l-7.02343.2461m7.02343-.2461l1.22657 2.125m-2.25-2.08984l1.22656 2.125m13.07812-2.54688l-6.95312 1.01954m6.95312-1.01954l1.45313 1.97657m-2.46484-1.82813l1.45312 1.97656m12.78906-2.52343l-6.78906 1.8125m6.78906-1.8125l1.67188 1.79687m-2.66016-1.53125l.83594.89844m13.10547-2.03125l-6.0625 3.55078m6.0625-3.55078l2.08984 1.28516m-2.97265-.76954l1.04687.64454m12.92578-1.5l-5.61328 4.23046m5.61328-4.23046l2.22266 1.03515m-3.03906-.42187l1.11328.51953m13.29297-.70313l-6.16407 3.3711m6.16406-3.3711l2.05079 1.34766m11.6875.10938l-7.01172.45703m7.01172-.45704l1.29296 2.08594m-2.3125-2.01953l.64454 1.04297m13.69921-.94531l-7.02734.1289m7.02735-.1289l1.1914 2.14453m-2.21484-2.125l1.1914 2.14453m13.06641-2.84375l-6.86719 1.48828m6.86719-1.48828l1.58594 1.8711m11.6875-.20313l-6.78125-1.84766m6.78125 1.84766l.53906 2.39453m12.875-2.92969l-6.98047-.78125m6.98047.78125l.90625 2.28125m-1.92188-2.39453l.45313 1.14063m13.89844-1.50391l-7.02344.17188m7.02344-.17188l1.20703 2.14063m-2.22656-2.11329l1.20312 2.13672m13.03125-2.91797l-6.82031 1.6836m6.82031-1.6836l1.63672 1.82813m-2.6289-1.58203l1.63671 1.82422m12.58985-2.35157l-6.66016 2.2461m6.66016-2.2461l1.78125 1.6836m-2.75-1.35938l1.78125 1.6875m12.52343-1.94531l-6.70312 2.11328m6.70312-2.11328l1.75 1.71875m-2.72656-1.41406l.875.85937m13.42578-1.13672l-6.71875 2.0547m6.71875-2.0547l1.73438 1.73438M426 359.76562l.86719.8672m13.29297-1.52344l-6.45704 2.76953m6.45704-2.76954l1.91406 1.53907m10.95703-2.29688l-5.57031 4.28516m5.57031-4.28516l2.23438 1.01172m11.4375-.4414l-6.28516 3.14453"/><g clip-path="url(#ag)"><path fill="none" stroke="#000" stroke-linecap="round" stroke-linejoin="round" stroke-miterlimit="10" stroke-width=".5" d="M466.70313 358.92188l2 1.42187"/></g><g clip-path="url(#ah)"><path fill="none" stroke="#000" stroke-linecap="round" stroke-linejoin="round" stroke-miterlimit="10" stroke-width=".5" d="M147.3164 346.01563l-6.6328 2.32421"/></g><path fill="none" stroke="#000" stroke-linecap="round" stroke-linejoin="round" stroke-miterlimit="10" stroke-width=".5" d="M147.3164 346.01563l1.8047 1.66015m-2.76954-1.32422l.90235.83203m13.57422.03516l-7.02735-.08203m7.02734.08203l1.125 2.17969m-2.14843-2.1914l.5664 1.08983m13.76953-.9414L167.1211 347m7.01953.35547l1.03907 2.22265m-2.0625-2.27343l.51953 1.10937m13.8164-1.07031l-7.01562-.33203m7.01563.33203l1.05078 2.21875m12.24218-1.95313l-6.97265-.85937m6.97265.85938l.87891 2.28906m12.35938-1.86719l-6.81641-1.70703m6.8164 1.70703l.58985 2.3789m-1.58203-2.6289l.29687 1.1914m14.11328-1.71484l-7.02343-.16015m7.02343.16015l1.10157 2.1914m-2.1211-2.21483l.55078 1.09765m13.77344-1.42578l-7.0039.54297m7.0039-.54297l1.3164 2.07031m-2.33593-1.99219l.66016 1.03516m13.23828-2.55469l-6.13281 3.42579m6.1328-3.42579l2.0625 1.32813m-2.95312-.82813l1.03125.66407m12.57813-1.94922l-4.9414 4.9961m4.9414-4.9961l2.35156.70703m-3.07031.01953l1.17578.35156m13.33203-.5l-5.88672 3.83985m5.88672-3.83985l2.14844 1.1875m11.63672-.09765l-6.82813 1.66015m6.82813-1.66015l1.6328 1.83593m11.76954-.71875l-7.0039-.57421m7.0039.57421l.97266 2.25391m12.29297-1.89063l-6.90235-1.30078m6.90235 1.30079l.73046 2.34375m-1.73437-2.53125l.73047 2.33984m13.55078-3.63672l-6.82813 1.66797m6.82813-1.66797l1.63281 1.83203m-2.625-1.58984l1.63281 1.83203m12.76563-1.4961l-7.00781.51563m7.0078-.51563l1.3086 2.07422m-2.32812-2l.65234 1.03907m13.5625.08984l-6.76953-1.89453m6.76953 1.89453l.52344 2.39844m-1.50781-2.67578l.52343 2.39843m13.8672-2.5625l-6.95313-1.01171m6.95312 1.01171l.82813 2.3086m-1.83985-2.45703l.82813 2.3125m-1.83985-2.45704l.41407 1.15235m14.92187-1.89453l-6.94531 1.0586m6.94531-1.0586l1.46485 1.96875m-2.47657-1.8125l1.46485 1.96875m-2.47266-1.8164l.73047.98437m14.46094-1.88672l-6.66016 2.2461m6.66016-2.2461l1.78515 1.6836m-2.7539-1.35548l1.78515 1.6836m-2.7539-1.35938l.89062.84375m14.1289-2.03125l-6.1953 3.3164m6.1953-3.3164l2.03907 1.36719m-2.9375-.88281l2.03516 1.36718m12.11718-1.96484l-6.0703 3.54297m6.0703-3.54297l2.08594 1.28906m-2.96875-.77344l2.08594 1.28907m12.05078-1.89844l-5.94922 3.73438m5.94922-3.73438l2.1289 1.22266m-2.99218-.6797l1.0625.60938m13.28125-.86718l-6.27734 3.16015m6.27734-3.16015l2 1.41796m-2.91406-.95703l1 .70704M466.87109 346l-6.62109 2.35547"/><g clip-path="url(#ai)"><path fill="none" stroke="#000" stroke-linecap="round" stroke-linejoin="round" stroke-miterlimit="10" stroke-width=".5" d="M466.8711 346l1.8125 1.65625"/></g><path fill="none" stroke="#000" stroke-linecap="round" stroke-linejoin="round" stroke-miterlimit="10" stroke-width=".5" d="M465.91016 346.34375l.90234.82813"/><g clip-path="url(#aj)"><path fill="none" stroke="#000" stroke-linecap="round" stroke-linejoin="round" stroke-miterlimit="10" stroke-width=".5" d="M147.35156 332.8125l-6.70312 2.09766"/></g><path fill="none" stroke="#000" stroke-linecap="round" stroke-linejoin="round" stroke-miterlimit="10" stroke-width=".5" d="M147.35156 332.8125l1.7461 1.72656m-2.71875-1.41797l.87109.85938m13.55078-.55078l-6.97266.86719m6.97266-.8672l1.41016 2.00782m-2.42188-1.88281l.70313 1.0039m13.57812.02735l-6.8789-1.44531m6.8789 1.4453l.67969 2.35548m12.69922-2.82813l-7.00781-.5m7.0078.5l.9961 2.24219m-2.01562-2.3164l.4961 1.12109m13.76562-.53516l-6.85938-1.52344m6.85938 1.52344l.65234 2.36328m-1.65234-2.58594l.32812 1.1836m14.0625-1.48828l-7.01172-.46875m7.01172.46875l1.0039 2.23828m-2.02343-2.3086l1.0039 2.23829m13.25391-3.16016l-6.85937 1.51562m6.85937-1.51562l1.59375 1.86719m-2.58984-1.64844l.79297.9336m13.04297-2.29688l-5.91016 3.80469m5.91016-3.8047l2.14062 1.19532m-3-.64063l1.07031.59766m12.83985-1.50781l-5.38281 4.51562m5.3828-4.51562l2.27735.91797m11.32031-.53125l-5.94922 3.74219m5.94922-3.7422l2.12891 1.22266m11.72656.57032l-7.02734.15625m7.02734-.15625l1.19922 2.13671m12.11328-2.22265l-7.01953.32812m7.01953-.32812l1.25 2.10937m11.80078-3.28515l-6.49218 2.67969m6.49218-2.6797l1.89453 1.5625m11.63282.39844l-6.91797-1.24609m6.91797 1.2461l.75 2.33984m-1.75782-2.51953l.375 1.16797m13.8086-.45704l-6.64063-2.30468m6.64063 2.30469l.3789 2.42578m-1.34375-2.76172l.375 2.42578m14.05079-2.65625l-6.9297-1.17188m6.9297 1.17188l.77343 2.32812m-1.78125-2.5l.38672 1.16407m13.98438-1.53516l-7.02735-.08594m7.02735.08594l1.125 2.17969m-2.14844-2.19531l.5625 1.09375m13.65234-.19532l-6.77734-1.85156m6.77734 1.85156l.53907 2.39453m-1.52735-2.66406l.27344 1.19531m14.14844-2.07421l-7.01563.4414m7.01563-.4414l1.28515 2.08984m-2.30859-2.02344l.64453 1.04297m13.6914-.64063l-7.01171-.49218m7.01172.49219l.9961 2.23828m-2.01563-2.3125l.49609 1.12109m13.8164-1.74219l-6.96874.89844m6.96875-.89844l1.42187 2m-2.4336-1.8711l1.41798 2.00392m12.49218-3.39844l-6.1328 3.42969m6.1328-3.4297l2.0625 1.32813m-2.95703-.82812l1.03125.66406m13.16797-1.17969l-6.11328 3.46094m6.11328-3.46094l2.07031 1.32031m-2.95703-.8164l2.0664 1.32031m12.28516-1.52734l-6.41406 2.86719m6.41406-2.8672l1.9375 1.51173m-2.86718-1.09375l1.9336 1.5078m12.39062-1.73437l-6.57422 2.48438"/><g clip-path="url(#ak)"><path fill="none" stroke="#000" stroke-linecap="round" stroke-linejoin="round" stroke-miterlimit="10" stroke-width=".5" d="M466.84766 332.6211l1.84375 1.62109"/></g><path fill="none" stroke="#000" stroke-linecap="round" stroke-linejoin="round" stroke-miterlimit="10" stroke-width=".5" d="M465.89063 332.98438l1.84375 1.61718"/><g clip-path="url(#al)"><path fill="none" stroke="#000" stroke-linecap="round" stroke-linejoin="round" stroke-miterlimit="10" stroke-width=".5" d="M147.45313 319.89453l-6.90625 1.30469"/></g><path fill="none" stroke="#000" stroke-linecap="round" stroke-linejoin="round" stroke-miterlimit="10" stroke-width=".5" d="M147.45313 319.89453l1.53515 1.91797m-2.53906-1.72656L147.98047 322m12.76953-2.19922l-6.86719 1.49219m6.86719-1.49219l1.58594 1.875m-2.58594-1.65625l1.58594 1.8711m12.77344-1.82032l-6.96094.95313m6.96094-.95313l1.4375 1.99219m-2.44922-1.85156l1.43359 1.98828m12.91797-1.38672l-7.00781-.52734m7.0078.52734l.98829 2.2461m-2.00781-2.32423l.49219 1.125m13.85156-1.39843l-7.02735.17578m7.02735-.17578l1.20703 2.13672m-2.23047-2.11329l.60547 1.07032m13.51562-2.22266l-6.58984 2.4336m6.58984-2.4336l1.83203 1.63281m-2.78906-1.28125l1.82813 1.63282m11.95312-2.88282l-5.61328 4.22657m5.61328-4.22657l2.22656 1.03907m-3.04296-.42188l1.11328.51563m13.0586-1.07813l-5.69142 4.1211m5.69141-4.1211l2.20313 1.07813m-3.03125-.48047l1.10156.54297m13.48437-.32032l-6.57422 2.48047m6.57422-2.48047l1.83985 1.6211m-2.79688-1.26172l.92188.8125m13.35937-1.14453l-6.59375 2.42578m6.59375-2.42578l1.82813 1.63281m-2.78906-1.28125l.91796.8164m13.54297-.42187l-6.96484.9336m6.96484-.9336l1.42969 1.99219m-2.4414-1.85938l.71484 1m13.60156-.1328l-6.94531-1.07032m6.94531 1.07031l.8086 2.32031m12.34765-4.01953l-6.6289 2.33203m6.6289-2.33203l1.8086 1.66016m11.67968-.9336l-6.97266.87891m6.97266-.8789l1.41406 2.0039m-2.42968-1.8789l.70703 1.0039m13.65234-.67187l-7.02734-.03516m7.02734.03516l1.14063 2.17187m-2.16407-2.17969l.57032 1.08594m13.45703.34375l-6.40625-2.88281m6.40625 2.88281l.16406 2.44922m13.33984-2.98047l-6.78515-1.8164m5.80078 1.55078l.27344 1.1953m13.91796-3.08983l-6.5664 2.5m6.5664-2.5l1.84766 1.61718m11.47656-1.58984l-6.58593 2.44531m6.58593-2.44531l1.83594 1.63281m-2.79297-1.27734l.91406.8164m13.40625-1.03125l-6.68359 2.16407m6.6836-2.16407l1.76562 1.70704m11.57422-1.63282l-6.73047 2.01563m5.75-1.72266l.86328.875m13.57813-.16015h-7.02735m6.00781 0l.57422 1.08593m11.3125-4.4336l-2.1289 6.69923m1.8164-5.72656l1.20703-.21875m13.8672.14062l-5.02345 4.91016m5.02344-4.91016l2.33985.74219m-3.07032-.02735l1.16797.3711m12.88672-1.07813l-5.04297 4.89453"/><g clip-path="url(#am)"><path fill="none" stroke="#000" stroke-linecap="round" stroke-linejoin="round" stroke-miterlimit="10" stroke-width=".5" d="M466.08203 318.10156l2.33594.75"/></g><path fill="none" stroke="#000" stroke-linecap="round" stroke-linejoin="round" stroke-miterlimit="10" stroke-width=".5" d="M465.34766 318.8125l2.33593.7539m-3.0664-.04296l1.16797.3789"/><path fill="#00f" fill-rule="evenodd" d="M179.63672 458.77344h8.61719V448.625h-8.6172v10.14844"/><path fill="azure" fill-rule="evenodd" d="M181.46875 450.45703h.83203v2.82422h3.28906v-2.82422h.83203v6.48047h-.83203v-2.91406h-3.28906v2.91406h-.83203v-6.48047"/><path fill="#ff3030" fill-rule="evenodd" d="M348.98828 445.45703h7.6914V435.3125h-7.6914v10.14453"/><path fill="azure" fill-rule="evenodd" d="M350.82031 437.14453h.83203v5.73828h3.19532v.74219h-4.02735v-6.48047"/><path fill="#00f" fill-rule="evenodd" d="M388.23828 432.14063h8.61719v-10.14454h-8.61719v10.14454"/><path fill="azure" fill-rule="evenodd" d="M390.07031 423.82813h.83594v2.82421h3.28516v-2.82421h.83203v6.48046h-.83203v-2.91796h-3.28516v2.91796h-.83594v-6.48046"/><path fill="#ff3030" fill-rule="evenodd" d="M202.52344 427.70313h7.6914v-10.14454h-7.6914v10.14454"/><path fill="azure" fill-rule="evenodd" d="M204.35547 419.39063h.83203v5.73828h3.19531v.74218h-4.02734v-6.48046"/><path fill="#ff3030" fill-rule="evenodd" d="M193.64453 374.4414h7.69531v-10.14452h-7.6953v10.14453"/><path fill="azure" fill-rule="evenodd" d="M195.47656 366.1289h.83594v5.7422h3.1914v.73827h-4.02734v-6.48046"/><path fill="#ffffe0" fill-rule="evenodd" d="M310.67578 411.01172h22.17969v-10.1914h-22.17969v10.1914"/><path fill-rule="evenodd" d="M314.17578 402.65234h.50781v6.29297h-.78515v-4.48828h-1.39063v-.55469l.5586-.0664.2539-.05469.23047-.08594.20313-.14453.17187-.20703.14453-.29688.10547-.39453m4.8125 0l.23047.01954.21875.05468.20703.08985.19531.12109.1836.14844.17187.17578.30469.42187.24219.4922.17969.54687.10937.57812.03906.58985-.03906.59375-.10938.58593-.17968.55469-.24219.5-.30469.42969-.17187.17969-.1836.15234-.1953.125-.20704.08984-.21875.0586-.23047.01953-.23047-.01953-.21875-.0586-.20703-.08984-.19531-.125-.1836-.15235-.17187-.17968-.30469-.42969-.24219-.5-.17968-.55469-.10938-.58594-.03906-.59375h.83203l.03125.56641.07813.5039.1289.44141.16016.375.1914.30079.21094.22265.22266.13672.22656.04688.22656-.04688.22266-.13672.21094-.22265.1914-.30079.16016-.375.1289-.4414.08204-.5039.02734-.56642-.02734-.55859-.08203-.5-.12891-.4375-.16016-.36719-.1914-.28906-.21094-.21484-.22266-.13281-.22656-.04297-.22656.04296-.22266.13282-.21094.21484-.1914.28906-.16016.3672-.1289.4375-.07813.5-.03125.55858h-.83203l.03906-.58984.10938-.57812.17969-.54688.24218-.49219.30469-.42187.17188-.17578.18359-.14844.19531-.1211.20703-.08984.21875-.05469.23047-.01953m5.08985 0h.51171v6.29297h-.78906v-4.48828h-1.38672v-.55469l.5586-.0664.2539-.05469.23047-.08594.20313-.14453.17187-.20703.14063-.29688.10546-.39453m2.82422 2.17579h.78907l.01953-.31641.0586-.28516.09765-.2539.14062-.21485.1836-.17578.22265-.1289.26563-.07813.30469-.02734.23828.01953.22656.0625.20312.10156.1797.14063.14843.17187.11328.20703.07031.23438.02735.26562-.02344.26953-.0664.22266-.10938.1914-.15625.17188-.19922.16406-.2461.16406-.63671.39063-.53516.3125-.4375.3164-.34766.32423-.26562.33593-.1875.35156-.125.3711-.07031.39062-.01954.41797h4.21094v-.73828h-3.33203l.08203-.28515.11328-.23438.14844-.20313.1875-.17968.23047-.17188.27734-.17578.71875-.41797.41407-.20312.34765-.23047.28125-.2539.21875-.26563.16406-.27735.10938-.28515.0664-.28516.01954-.28125-.04297-.38281-.1211-.34766-.1875-.3086-.25-.26171-.30468-.21484-.34375-.15625-.3789-.09766-.41017-.03516-.43359.03125-.39844.10157-.35546.16406-.3047.23437-.24609.3047-.1875.375-.11328.4453-.04297.51954"/><path fill="#ffffe0" fill-rule="evenodd" d="M238.52344 432.3711h22.17969v-10.19141h-22.1797v10.1914"/><path fill-rule="evenodd" d="M242.02344 424.01172h.50781v6.29687h-.78516v-4.48828h-1.39062v-.5586l.5625-.0625.25-.05468.23047-.08984.20312-.14063.17578-.21094.14063-.29296.10547-.39844m4.8125 0l.23047.01953.21875.0586.20703.08984.19922.11719.18359.15234.17188.17578.30078.41797.24218.49219.1797.54687.11327.58203.03516.58985-.03516.59375-.11328.58203-.17969.55469-.24218.5039-.30078.42578-.17188.17969-.1836.15234-.19921.125-.20703.09375-.21875.0547-.23047.01952-.22656-.01953-.22266-.05469-.20703-.09375-.19531-.125-.1836-.15234-.17187-.17969-.30078-.42578-.2461-.5039-.17969-.5547-.10937-.58202-.03906-.59375h.83203l.03125.5625.08203.5078.125.44142.16406.375.1875.30078.21094.21875.22266.13671.22656.04688.22656-.04688.22266-.13671.21093-.21875.19141-.30079.16406-.375.125-.4414.08203-.50781.02735-.5625-.02735-.5625-.08203-.5-.125-.4336-.16406-.36719-.1914-.29296-.21094-.21485-.22266-.1289-.22656-.04688-.22656.04688-.22266.1289-.21094.21485-.1875.29296-.16406.3672-.125.43359-.08203.5-.03125.5625h-.83203l.03906-.58985.10937-.58203.1797-.54687.24608-.4922.30079-.41796.17187-.17578.1836-.15235.1953-.11718.20704-.08985.22266-.05859.22656-.01953m5.09375 0h.50781v6.29687h-.78516v-4.48828h-1.39062v-.5586l.5586-.0625.2539-.05468.23047-.08984.20312-.14063.17188-.21094.14453-.29296.10547-.39844m2.82031 2.17578h.78906l.01953-.3164.0586-.28516.09765-.2539.14063-.21485.1836-.17188.22265-.1289.26562-.08204.3086-.02734.23828.02344.22265.0625.20313.10156.17969.13672.14844.17578.11328.20313.0703.23828.02735.26172-.02344.26953-.0664.22656-.10938.1914-.15625.17188-.19921.16016-.2461.16797-.63672.38671-.53515.3125-.4375.31641-.34766.32422-.26172.33594-.1914.35156-.125.3711-.07032.39452-.01953.41797h4.21094v-.74218h-3.33203l.08203-.28125.11328-.23829.14844-.20312.1875-.17969.23047-.17187.28125-.17578.71484-.41407.41797-.20703.34375-.23047.28125-.25.21875-.26953.16406-.27734.11328-.28125.0625-.28516.01953-.28125-.04296-.38281-.1172-.35156-.1914-.30469-.25-.26563-.30078-.21093-.34766-.16016-.3789-.09765-.40625-.03516-.4375.03515-.39844.09766-.35156.16797-.30469.23438-.25.30468-.1875.3711-.11328.44921-.04297.51563"/><path fill="#ffffe0" fill-rule="evenodd" d="M199.71484 444.97266h22.1836v-10.19141h-22.1836v10.1914"/><path fill-rule="evenodd" d="M203.21484 436.61719h.51172v6.29297h-.78906v-4.48829h-1.38672v-.55859l.5586-.0625.2539-.05469.22656-.08984.20313-.14063.17578-.21093.14063-.29297.10546-.39453m4.81641 0l.22656.01562.21875.0586.21094.08984.19531.11719.1836.15234.17187.17578.30078.41797.24219.49219.17969.54687.11328.58204.03906.58984-.03906.59375-.11328.58203-.17969.55469-.24219.5039-.30078.42579-.17187.17968-.1836.15235-.19531.125-.21094.09375-.21875.05468-.22656.01954-.23047-.01954-.21875-.05468-.20703-.09375-.19922-.125-.1836-.15235-.17187-.17969-.30078-.42578-.24219-.5039-.17968-.55469-.11328-.58203-.03907-.59375h.83594l.02734.5625.08203.50781.125.4414.16407.375.1914.30079.21094.21875.22266.14062.22656.04688.22656-.04688.22266-.14062.21094-.21875.1875-.30078.16406-.375.125-.4414.08203-.50782.03125-.5625-.03125-.5625-.08203-.5-.125-.4336-.16406-.36718-.1875-.29297-.21094-.21485-.22266-.1289-.22656-.04688-.22656.04688-.22266.1289-.21094.21485-.1914.29297-.16406.36719-.125.43359-.08204.5-.02734.5625h-.83594l.03906-.58985.11329-.58203.17968-.54687.2422-.49219.30077-.41797.17188-.17578.1836-.15234.19921-.11719.20703-.08984.21875-.0586.23047-.01562m5.08984 0h.50782v6.29297h-.78516v-4.48829h-1.39063v-.55859l.5625-.0625.25-.05469.23047-.08984.20313-.14063.17578-.21093.14063-.29297.10546-.39453m2.82422 2.17187h.78516l.01953-.3164.0586-.28516.10156-.25.14062-.21875.17969-.17188.22266-.1289.26562-.08203.3086-.02735.23827.02344.22266.0625.20313.10156.17968.13672.14844.17578.11328.20313.07422.23828.02344.26172-.02344.26953-.0625.22656-.11328.1914-.15234.17188-.20313.16016-.2461.16797-.6328.38672-.53907.3125-.4375.3164-.34765.32813-.26172.33594-.1914.34765-.125.3711-.06642.39453-.02343.41797h4.21484v-.7422h-3.33594l.08594-.28124.11328-.23828.14844-.20313.1875-.17969.23047-.17187.27734-.17578.71875-.41406.41406-.20704.34375-.23046.28125-.25.22266-.26954.16016-.27734.11328-.28125.0625-.28515.01953-.28125-.03906-.38282-.1211-.35156-.1914-.30469-.25-.26562-.30078-.21094-.34766-.16016-.3789-.09765-.40626-.03125-.43359.03125-.39844.09765-.35547.16797-.30468.23438-.25.30469-.1836.37109-.11719.44922-.03906.51562"/><path fill="#ffffe0" fill-rule="evenodd" d="M332.86719 356.69531h22.17969v-10.1914h-22.1797v10.1914"/><path fill-rule="evenodd" d="M336.36719 348.33594h.50781v6.29687h-.78516v-4.49219h-1.39062v-.55468l.5625-.0625.25-.05469.23047-.08984.20312-.14063.17578-.21094.14063-.29296.10547-.39844m4.8125 0l.23047.01953.21875.05469.20703.08984.19531.1211.1875.15234.16797.17578.30469.41797.24218.49219.1797.54687.11327.57813.03516.59375-.03516.59375-.11328.58203-.17969.55468-.24218.5-.3047.4297-.16796.17968-.1875.15234-.19531.125-.20703.08985-.21875.05859-.23047.01953-.23047-.01953-.21875-.0586-.20703-.08984-.19531-.125-.1836-.15234-.17187-.17969-.30079-.42969-.24609-.5-.17969-.55468-.10937-.58204-.03906-.59375h.83203l.03125.5625.08203.50391.125.44531.16015.375.19141.30079.21094.21875.22265.13671.22657.04688.22656-.04688.22266-.13671.21093-.21875.19141-.30079.16016-.375.1289-.4453.08203-.50392.02735-.5625-.02735-.5625-.08203-.5-.1289-.4375-.16016-.36328-.1914-.29296-.21094-.21485-.22266-.1289-.22656-.04688-.22656.04688-.22266.1289-.21094.21485-.1914.29296-.16016.36329-.125.4375-.08203.5-.03125.5625h-.83203l.03906-.59375.10937-.57813.1797-.54688.24608-.49218.30079-.41797.17187-.17578.1836-.15235.1953-.12109.20704-.08984.21875-.0547.23047-.01952m5.09375 0h.50781v6.29687h-.78906v-4.49219h-1.38672v-.55468l.5586-.0625.2539-.05469.23047-.08984.20312-.14063.17188-.21094.14062-.29296.10938-.39844m6.80078 1.6211h-.78516l-.05078-.21095-.08203-.1875-.10938-.16015-.1289-.1289-.14453-.10548-.16016-.07422-.16797-.04296-.17578-.01563-.32812.03906-.28516.1211-.2461.1953-.20312.26954-.16015.33984-.1172.40235-.0703.46875-.02344.52344.1875-.20313.1875-.15625.1836-.125.1875-.08594.1875-.0625.1914-.03515.40234-.02344.3086.02734.3203.09375.31641.15625.29297.21875.2539.28516.19923.35156.07422.19922.05078.21875.03125.23438.0039.25-.78515.04687-.02735-.25781-.07812-.2539-.125-.23438-.16016-.21094-.1914-.17578-.21875-.13672-.2422-.08985-.2539-.03125-.25781.03125-.23828.08985-.21875.13672-.19531.17578-.16016.21094-.1211.23437-.07812.2539-.02734.25782.02734.25781.07813.25.12109.23438.16016.21094.1953.17968.21876.13672.23828.08594.25781.03125.2539-.03125.2422-.08594.21875-.13672.1914-.17969.16016-.21093.125-.23438.07812-.25.02735-.25781.78515-.04688-.03125.3711-.09375.3711-.15625.35937-.22265.32812-.28906.28125-.17188.1211-.1875.10156-.20703.08203-.22266.0625-.24219.03906-.2578.01172-.28516-.01562-.25782-.04688-.23828-.07812-.21484-.10547-.19531-.1289-.17579-.15626-.15234-.17969-.13672-.20312-.11719-.22266-.09765-.24219-.14844-.53515-.08203-.59375-.02734-.64063.03906-.74218.11328-.66407.1875-.57812.11719-.2539.13672-.23048.15625-.20703.16796-.1836.1875-.15233.20313-.13282.21484-.10156.23438-.07031.2461-.04688.26171-.01562.36719.03515.33203.09375.29688.15235.2539.19922.21485.24218.16406.27344.11328.30469.0625.32031"/><path fill="#ffffe0" fill-rule="evenodd" d="M168.64844 327.19531h22.17969V317h-22.1797v10.19531"/><path fill-rule="evenodd" d="M172.14844 318.83594h.50781v6.29297h-.78516v-4.48829h-1.39062v-.55468l.5586-.0664.2539-.0547.23047-.08984.20312-.14063.17188-.21093.14453-.29297.10547-.39453m4.8125 0l.23047.01953.21875.05469.20703.08984.19531.1211.1836.14843.17187.17578.30469.41797.24218.4961.1797.54687.10937.57813.03906.58984-.03906.59375-.10938.58594-.17969.55078-.24218.5039-.3047.42579-.17187.17968-.18359.15625-.19531.1211-.20703.09375-.21875.05468-.23047.01954-.23047-.01954-.21875-.05468-.20703-.09375-.19531-.1211-.1836-.15625-.17187-.17969-.3047-.42578-.24218-.5039-.17969-.55078-.10937-.58594-.03906-.59375h.83203l.03125.5625.07812.50781.1289.4414.16017.375.1914.30079.21094.22265.22266.13672.22656.04688.22656-.04688.22266-.13671.21093-.22266.19141-.30078.16016-.375.1289-.4414.08203-.50782.02735-.5625-.02735-.5625-.08203-.5-.1289-.4336-.16016-.36718-.1914-.29297-.21094-.21094-.22266-.13281-.22656-.04688-.22656.04688-.22266.13281-.21094.21094-.1914.29297-.16016.36719-.1289.43359-.07813.5-.03125.5625h-.83203l.03906-.58985.10937-.57812.1797-.54688.24218-.49609.30469-.41797.17187-.17578.1836-.14844.1953-.12109.20704-.08984.21875-.0547.23047-.01952m5.08984 0h.51172v6.29297h-.78906v-4.48829h-1.38672v-.55468l.5586-.0664.2539-.0547.22656-.08984.20703-.14063.17188-.21093.14062-.29297.10547-.39453m6.80469 1.61719h-.78516l-.05078-.21094-.08203-.1875-.10938-.15625-.1289-.13281-.14844-.10157-.15625-.07422-.17187-.04687-.17188-.01563-.32812.04297-.28516.1211-.2461.1953-.20312.26563-.16016.33985-.11718.40234-.07031.46875-.02344.52735.1875-.20313.1875-.16016.1836-.12109.1875-.08984.1875-.0586.1914-.03906.40234-.02344.3086.03125.3203.08985.3125.15625.29688.21875.2539.28515.19923.35156.07422.19922.05078.21875.03125.23438.0039.25-.78906.04687-.02734-.2578-.07422-.25-.125-.23438-.16016-.21094-.1914-.17969-.22266-.13672-.23828-.08594-.2539-.03125-.25782.03125-.23828.08594-.21875.13672-.19531.17969-.16016.21094-.1211.23437-.07812.25-.02734.25781.02734.26172.07813.25.12109.23438.16016.21094.1953.17578.21876.13671.23828.08985.25781.03125.2539-.03125.23829-.08985.22266-.13671.1914-.17579.16016-.21093.125-.23438.07422-.25.02734-.26172.78906-.04687-.03125.3711-.09375.375-.15625.35546-.22265.32813-.28906.28515-.17188.11719-.1875.10156-.20703.08203-.22266.0625-.24219.03907-.2578.01171-.28516-.01562-.25782-.04688-.23828-.07421-.21875-.10547-.1914-.13281-.17578-.15625-.15235-.1797-.13672-.20312-.11719-.22265-.09765-.23829-.14844-.53515-.08594-.59375-.02343-.64063.03515-.74609.11719-.66016.1836-.57812.12109-.25781.13672-.23047.15234-.20703.17188-.1797.1875-.15624.19921-.1289.21875-.10157.23438-.07422.2461-.04297.26171-.01562.36719.03125.33203.09765.29688.15235.2539.19922.21094.23828.16797.27734.11328.30078.0625.32031"/></g></defs><use xlink:href="#an"/></svg>