<svg xmlns="http://www.w3.org/2000/svg" role="img" xmlns:xlink="http://www.w3.org/1999/xlink" viewBox="142.45 309.95 326.84 171.84"><defs><clipPath id="a"><path d="M144 311.67188h1v168.65625h-1zm0 0"/></clipPath><clipPath id="b"><path d="M144 311.67188h324v168.65625H144zm0 0"/></clipPath><clipPath id="c"><path d="M393 476h10v4.32813h-10zm0 0"/></clipPath><clipPath id="d"><path d="M395 478h4v2.32813h-4zm0 0"/></clipPath><clipPath id="e"><path d="M467 311.67188h1v168.65625h-1zm0 0"/></clipPath><clipPath id="f"><path d="M144 479h4v1.32813h-4zm0 0"/></clipPath><clipPath id="g"><path d="M147 480h2v.32813h-2zm0 0"/></clipPath><clipPath id="h"><path d="M146 480h2v.32813h-2zm0 0"/></clipPath><clipPath id="i"><path d="M153 479h8v1.32813h-8zm0 0"/></clipPath><clipPath id="j"><path d="M160 480h2v.32813h-2zm0 0"/></clipPath><clipPath id="k"><path d="M166 479h9v1.32813h-9zm0 0"/></clipPath><clipPath id="l"><path d="M173 480h2v.32813h-2zm0 0"/></clipPath><clipPath id="m"><path d="M180 479h8v1.32813h-8zm0 0"/></clipPath><clipPath id="n"><path d="M187 480h2v.32813h-2zm0 0"/></clipPath><clipPath id="o"><path d="M193 479h8v1.32813h-8zm0 0"/></clipPath><clipPath id="p"><path d="M200 480h2v.32813h-2zm0 0"/></clipPath><clipPath id="q"><path d="M206 479h9v1.32813h-9zm0 0"/></clipPath><clipPath id="r"><path d="M212 480h2v.32813h-2zm0 0"/></clipPath><clipPath id="s"><path d="M220 479h8v1.32813h-8zm0 0"/></clipPath><clipPath id="t"><path d="M226 479h2v1.32813h-2zm0 0"/></clipPath><clipPath id="u"><path d="M233 478h8v2.32813h-8zm0 0"/></clipPath><clipPath id="v"><path d="M239 479h2v1.32813h-2zm0 0"/></clipPath><clipPath id="w"><path d="M247 477h7v3.32813h-7zm0 0"/></clipPath><clipPath id="x"><path d="M261 477h5v3.32813h-5zm0 0"/></clipPath><clipPath id="y"><path d="M275 476h4v4.32813h-4zm0 0"/></clipPath><clipPath id="z"><path d="M289 476h3v4.32813h-3zm0 0"/></clipPath><clipPath id="A"><path d="M302 476h3v4.32813h-3zm0 0"/></clipPath><clipPath id="B"><path d="M315 476h4v4.32813h-4zm0 0"/></clipPath><clipPath id="C"><path d="M328 476h4v4.32813h-4zm0 0"/></clipPath><clipPath id="D"><path d="M341 477h6v3.32813h-6zm0 0"/></clipPath><clipPath id="E"><path d="M354 477h6v3.32813h-6zm0 0"/></clipPath><clipPath id="F"><path d="M367 477h7v3.32813h-7zm0 0"/></clipPath><clipPath id="G"><path d="M380 478h8v2.32813h-8zm0 0"/></clipPath><clipPath id="H"><path d="M396 476h2v4.32813h-2zm0 0"/></clipPath><clipPath id="I"><path d="M408 476h5v4.32813h-5zm0 0"/></clipPath><clipPath id="J"><path d="M420 478h8v2.32813h-8zm0 0"/></clipPath><clipPath id="K"><path d="M425 479h3v1.32813h-3zm0 0"/></clipPath><clipPath id="L"><path d="M434 477h6v3.32813h-6zm0 0"/></clipPath><clipPath id="M"><path d="M447 477h6v3.32813h-6zm0 0"/></clipPath><clipPath id="N"><path d="M461 477h5v3.32813h-5zm0 0"/></clipPath><clipPath id="O"><path d="M465 477h3v2h-3zm0 0"/></clipPath><clipPath id="P"><path d="M144 466h4v2h-4zm0 0"/></clipPath><clipPath id="Q"><path d="M466 464h2v3h-2zm0 0"/></clipPath><clipPath id="R"><path d="M144 453h4v2h-4zm0 0"/></clipPath><clipPath id="S"><path d="M466 453h2v3h-2zm0 0"/></clipPath><clipPath id="T"><path d="M144 439h4v2h-4zm0 0"/></clipPath><clipPath id="U"><path d="M466 440h2v3h-2zm0 0"/></clipPath><clipPath id="V"><path d="M144 426h4v2h-4zm0 0"/></clipPath><clipPath id="W"><path d="M466 427h2v4h-2zm0 0"/></clipPath><clipPath id="X"><path d="M144 412h4v3h-4zm0 0"/></clipPath><clipPath id="Y"><path d="M465 410h3v2h-3zm0 0"/></clipPath><clipPath id="Z"><path d="M144 399h4v3h-4zm0 0"/></clipPath><clipPath id="aa"><path d="M465 397h3v2h-3zm0 0"/></clipPath><clipPath id="ab"><path d="M144 386h4v2h-4zm0 0"/></clipPath><clipPath id="ac"><path d="M466 385h2v3h-2zm0 0"/></clipPath><clipPath id="ad"><path d="M144 372h4v4h-4zm0 0"/></clipPath><clipPath id="ae"><path d="M144 358h4v5h-4zm0 0"/></clipPath><clipPath id="af"><path d="M466 358h2v3h-2zm0 0"/></clipPath><clipPath id="ag"><path d="M144 345h4v5h-4zm0 0"/></clipPath><clipPath id="ah"><path d="M466 345h2v3h-2zm0 0"/></clipPath><clipPath id="ai"><path d="M144 333h4v2h-4zm0 0"/></clipPath><clipPath id="aj"><path d="M466 331h2v3h-2zm0 0"/></clipPath><clipPath id="ak"><path d="M465 332h3v3h-3zm0 0"/></clipPath><clipPath id="al"><path d="M144 320h4v1h-4zm0 0"/></clipPath><clipPath id="am"><path d="M465 317h3v3h-3zm0 0"/></clipPath><g id="an" clip-path="url(#clip1)"><path fill="#fff" fill-opacity="0" fill-rule="evenodd" d="M0 0h1000v1000H0zm0 0"/><path fill="#d3d3d3" fill-opacity="0" fill-rule="evenodd" d="M162.15234 355.86719l-.23437.29297.0586.23437.11718.17188.17578.23437.29297.34766.11328.0586.11719-.17188.0586-.23438.17577-.17578.46485-.17578h.69922l.23437.29297.28906.8164.0586.17579.17578.23046.35156.23438.69922.69922.17188.17578.23437.34765.23438.41016.28906.58203.41015.46485.23047.23437.23438.17578.11719.23047.17578.29297.17187 1.16406v.23438l.0586.28906.05859.11719.11719.11719.34765.41015.11719.17188.17578.17578.17578.23437.11719.17188.17188.35156.05859.23438.23437.40625.23438-.0586-.17578.17578-.0586.92969h-.58203l-.23437-.11328-.34766.11328-.11719.11719-.05859.29297-.0586.17578-.11718.17187-.46484.29297-.0586.23438-.0586.11328v.64453l.0586.17187v.41016l.0586.0586v.40624l.05859.40625.11719.17579.05859.05859.23047.64062-.0586.29297v.69922l-.05859.58203v.23438l-.0586.23047-.05468.35156v1.92187l.05469.1172h.42578l-.36719.11718-.02344.35156.89063 1.16797 1.74219.53906 1.33984.35938v.53906l.08984.8086.53516.71484 1.51953.26953.89063-.08594.08984 1.16406.53516.1797 1.16015-.1797 2.05469-.98437 1.16016-.36328 1.8789-.17578 1.69531-.1797-.17968.71876-1.51563.08594-1.25.08984-.80469.26953-1.07421.8086.26953.71875.53515.89843-.17968.625-.26563.8086.26563 1.07812.625.89844.80468.17969 1.25-.1797-.26562.72267.09766.5039.05468.29297v.17188l.0586.29296v.40625l.17578.1172.35156.11718h.40625l.29297-.17578.11328-.11719.0586-.11719.11718-.23047.0586-.17578.35156-.46484.23047-.17578.17578-.0586.17578.0586.0586.17578.11718.98828.05469.46875.0586.17188.11718.23437.17578.0586.8164.05859h.28907l.11719.23437.05859.40625.0586.35156v1.10547l.11718.29297.11719.34766.28906.69922.17578.35156.58203.7539.35157.17579.17187.0586.46875.23437.64063.46484.34765.23438.29297.17578.29297.05468.23047.0625.8164.34766.29297.17578.11328.17188.35157.35156.11719.17578.52343.64063v.28906l.0586.35156v.34766l.05859.35156.0586.28906.11718.0586.17188.05859h.17578l.58203.23437.17578.1172.17578.28905.17578.23438.11328.23437.29297.23047.11719.11719v.41016l.0586.05468.28906.23438.23437.11719.0586.11718.11718.17188.0586.11719.23047.23437.05859.17578.23437.0586.1172.05859-.1172.11328-.05859.11719v.11719l-.11719.29296-.11719.28907v.58203l.17579.11719.11718.05859.0586.11719.11719.11719.11328.05859.17578.34765.0586.35157.05858.40625v.17578l-.05859.17578-.11719.69922v.17187l.1172.17579.29296.29296h.40625l.17578.1172.11719.17187.11719.29296v.23438h-.52735l-.23047-.23438h-.23437l-.17578.0586-.0586.69922.0586.34765.11719.17579.17578.41015.11718.23047.28907.46875.17578.05469h.52344l.23437.0586.75781.64062.0586.29296v.23438l.05859.0586.23047.34765v.35156l-.11719.17188v.29297l.29297.28906.29297.17578.17187.0586.29297.17577.29297.1172.58203.40624.28906.23438.29297.17578.21875.16015.01563.01172.23047.17579.64062.52343.17578.23438.1172.17578.17577.17578.11328.17188v.64062l.1172.17578.46874.11719.58203.11719.23438.05859.23047.11328.29297.11719.11328.0586.58593.35156.28907.17187.17578.0625.17578.05469.17578.0586.69922.35155.28906.17579.23438.05468.28906.17578.23437.1172.64063.40624.29297.11719.17187.0586.23438.05859.41015.05859.23047.0586.23438.11718.0586.17188-.41017.17578.46875.0586.0586.29296.11328.23438.17578.05468.23438.0586.17578.05859.40625.11719.64062.23437.11719.17188.0586.23437v.17578l-.0586.1172-.0586.40624.23438.23438.11719.05859.34766.11719.64062.23047.17578.11718.28906.1172.17578.17577.23438.46485.58203 1.10546.17578.17579.34766.17578.17578.11719.35156.11718 1.04688.52344.23437.0586.46485.11327.29297.0586.46484.17578.75781.58203.23438.23438.34765.46484.17578.17578.28907.23438.8164.69921.29297.17579.28906.28906.29297.17578.29297.28906.69531.64063.17578.17578.29297.23437.28907.23438.46875.28906.64062.58203.34766.23438.23437.29297.34766.34765.35156.46485.9336.99218.34765.40625.11719.17579.23437.05859.11328.11719.64454.17578.23047.11328.23437.0586.29297.17577.23047.1172.9336.69921.40624.40625.23438.17578.40625.17578.23437.11719.8164.34766.34766.23437.23438.11719.29297.28906.23047.11719.7578.35156.35157.17188.23047.05859.29297.11719.23437.0586.8711.17577h.8164l.46875.23047.17188.0586.875.69921.46484.1172.29297.05858.17578.0586.23047.0586.46875.05859.34766.05859.35156.0586.40625.05859h.29297l.17187.0586v.23046l.17578.17578h.29297l.34766.0586.35156.05859.69922.11719h.64063l.46484-.23438.29297-.17578.17187-.11719.41016-.17187.28906-.17578.9336-.46485.46875-.29297.52343-.29296.46485-.17188.46484-.17578 1.05078-.46485.28906-.11718.41016-.11719.28906-.11719.52735-.17578 1.51562-.69922.58203-.34765.28907-.0586.29297-.0586.34765-.11718.875-.23047.35156-.11719h.11329l.23437-.05859.875-.23437.23438-.0586h.8125l.35156-.0586.8164-.11718.17188-.0586.35156-.05468.29297-.0586.23047-.05859.8164-.17578.17579-.0586h.34765l.23438-.05859.46484-.11718.75781-.17188.23438-.0586h.34765l.41016-.11718.28906-.0586 1.28516-.05859h.28906l.41016-.0586.23047-.05858h.17578l.875-.1172h.40625l.41015-.11718h.34766l.35156-.11328.8711-.0586h1.75l1.04687.28907.41016.11719.28906.11718.35156.11719.28907.11719 1.05078.17187.28906.0586h.29297l.29297.05859.17187.0586.41016.05859.17187.0586.1172.05858h.11718l.11719.0586.35156.0586h.11328l.41016.0664 1.92187.39453 1.92578.39453 1.51953.44922 1.69532.71875 2.14453.80469 1.60547-.71875 1.42968-.80469 1.16016-1.07813 1.25-.44921 3.03516-.71875 1.875-.35938 2.14453-1.34765 2.23437-1.25391 2.5-1.25781 1.69531-.44922 1.78516-.17969 1.16016-.26953.625.53906 1.33984-.26953.71485-.98828.98437-1.34375.44531-.17969.80469-.35937 1.875-.53907 1.78516-.44921 1.25-.26954 1.16015-.08984 1.69922-.08984 1.96094-.26954 1.25-.08984h.53906l.625-.08984h.89063l2.14453-.17969 2.41015-.17969 2.58985-.08984 1.69531.17969 1.60938.08984 1.42968.35938 1.16016.71875 1.875.98828 1.16015 1.52734.26563.71484.6289.08985.35548.89844.53515.53906.53516 1.52734 1.07422.35938h.53515l-.80469.53515.08985 1.70703.71484 2.69532.89063.80468.89453.98829.71484 1.2578 1.78516.53907 1.51953-.17969.35547 1.34375 1.60937-.80469.98047-.53906.26953.26953.31641-.21484.21875-.14453.80078.44922.44922-.35938h.35547l.53515-.26953.53907-.71875.53515-.26953.625-.98828 1.16016.44922.83984.3711 1.39454.61718 1.6953-.17969h1.60548l1.78515.08985.17969-1.70704.53516-1.34375.80468.26954.4922.84765.40233.40625-.08984.53906v.35938l.71485.44922.71093-.26953h1.42969l.35938.98828.4453 1.25781.71485 1.34375 1.25.6289 1.69531.62891.71485-.17969.17969-.53906.98046-.08984.44922.35937.08594 1.25782-.26563.6289-.53515.17969v.53906l.71484.98438.26563.53906.98437.98828.80078 1.07813-.26562.35937-.08985.89844-.625 2.33203-.35546 2.0664-.08985 1.79298-.17969.71875-.08984.53906v1.4375l-.98047 1.88281-.35937 1.70703-.53516.89844-.80469 1.16797-.26562.53906 2.05469 1.2539.08593.35938-.35546.53906-.08985-.17968v.80859l.08985 1.4375-.44532.71484-1.07422.09375-.26562.71485.53515.89844.8047.71875 1.16015.80859 1.33984.26953.44531.35938-.35546.44921-1.78907-.08984-1.25-.44922-.71484-.71875-.625-.08984-.17578 3.58984-.1875 1.3086h89.35937V311.70313h-55.26953v49.08203l.76172.125 3.28906.54296 2.02344 2.83594v2.7539l2.35156.33204 2.34766.33203h4.05078l-1.3789 4.16016-2.02344.70703-2.02344.70312-.54297.34375-2.59375 1.6172-.1875.11718-2.02344-2.07813-.73046-2.74218-2.67188-2.07813-1.375-3.5-.0664-.08203-1.95704-2.67188 2.75-1.41796v-49.08204H294.42187v91.41407l.1172.03125.1328.01172.07422.07421.10547.04688.08985.0586.08593.05859.08985.0586.29687.29687.0586.08984.03125.11719.02734.11719.01563.13671-.03125.1172-.0586.08983-.0586.08594-.04296.10547-.04688.10156-.02734.1211v.14453l.17578.26953.14844.14844.07422.08594.07422.07421.04296.10547.0625.08985.0586.08593.04297.10547.0586.08985.04687.10156.04296.10547.0586.08594.11719.17968.07421.07422.0625.08594.0586.08984.04297.10547.0586.08985.05858.08593.0625.08985.0586.08984.04297.10156.11719.17969.07421.07422.0586.08594.07422.07421.08984.0586.10547.04687h.14844l.1328-.01562.13282.01562.10156-.04687.07422-.07422.04688-.10156-.01563-.13281v-.14844l-.04687-.10547-.02735-.11719-.04687-.10156-.02735-.1211-.04296-.10156-.0625-.08984-.04297-.10156-.04297-.10547-.03125-.11719-.01563-.13281-.01171-.13672.08593-.0586.0586-.08593.12109-.03125.04297.10547.01562.1328v.1172l.0586.10156.0586.08984.08983.0586.14844.14843.0586.08985.04296.10547-.01171.10156.08593.0586.10547.04687.08594.0586.08984.05858.07422.07422-.11719.02735-.10546.04687-.08594.0586-.07422.07421-.0586.08985-.0625.08594-.02734.12109-.04687.10156-.04297.10547-.03125.11719-.01172.13281-.01563.13281v.14844l.02735.11719.04687.10547.04297.10156.0586.08984.07421.07422.08985.0586.07422.07421.08984.0586.0586.08984.04296.10547.04688.10156.11719.03125.1328.01563h.14845l.11718-.03125.10547.04297.04297.10547.04688.10156.02734.1211L299.5 410l.02734.11719.03125.1211.02735.11718.10547.04297.10156.04687.13281-.01562.14844.14844.0625.08593.07422.07422.07031.07422.08984.0625.10547.04297.10156.04297.1172.03125.13671.01562.11719-.03125.07422-.07422.02734-.11718-.01172-.13282-.03125-.12109-.02734-.11719.04297-.10547h.11719l.08984.0625.11719.02735h.14843l.13282.01562h.14843l.13282.01563.1328-.01563h.14845l.1328-.01562.13282-.01172.13672.01172.11719-.02735.13281-.01562.1914-.0586-.05859.17579-.01562.1328-.02735.1211-.01562.13281-.0586.08594-.1328.01563-.10548.04687-.10546.04297-.1172.03125-.11718.02735-.26563.03125h-.14843l-.13281.01562-.07422.07422.05859.08594.14844.14843.11719.1797.07421.0703.08985.0625.08984.0586.08594.0586.08984.05858.10156.04297.10547.0625.10547.04297.08594.0586.10547.04687.10156.04297.17969.11719.0586.08984-.04298.10156-.04687.10547.01562.13281.22266.22266.0586.08985.04296.10156.03125.1211.04297.10155.01563.13282.03125.11718.01171.13672.03125.11719.14844.14844.10156.04297.10547.04296.1172.03125.1328.01563.13672.01563h.11719l.11719-.03125.08984-.0586.04297-.10547.04688-.10156.04296-.10547.03125-.11719.01172-.1328v-.14845l-.01172-.1328-.01562-.13282-.03125-.11719-.04297-.10547-.04688-.10547-.04296-.10156-.04297-.10547-.01563-.13281.01563-.13281.02734-.11719.03125-.11719.02735-.1211.04687-.10155.08984-.0586.08594-.0625.07422-.07422.08984-.05859.22266-.22266.0586-.08593.07421-.07422.11719-.17969.0586-.08594v-.14844l-.07423-.07421-.10156-.04688-.10547-.04297-.10156-.04297-.0586-.08984-.04687-.10547-.02734-.11719.08984-.05859.11719-.03125.10156-.04297.17969-.11719.14844-.14843.01172-.13282-.01172-.10546-.08985-.0586-.1328.01563h-.14845l-.1328.01562-.13282-.01562-.1211-.03125-.08593-.0586-.07422-.07422-.0586-.08984-.0625-.08594-.11718-.17969-.0586-.08593.03125-.1211.08594-.05859.1211-.03125.05859-.08594v-.1211l-.03125-.11718-.0586-.08984-.05859-.08594-.04687-.10547-.02735-.11719-.01562-.1328.0586-.08985.07421-.07422.08984-.0586.1172-.17968.07421-.07422.0586-.08594.14843-.14844.1211-.03125.1328-.01562.13282.01562.07422.07422.04297.10547.01562.13281-.03125.1172-.11719.03124-.1328.01172-.14844.14844-.04297.10547-.04688.10156-.02734.1211-.03125.11718v.14844l.03125.11719.04297.10546.05859.08985.07422.07031.07422.07422.11719.03125.12109.02734.11719-.02734.1328-.01563h.1172l.08984.0586.07422.07422.04687.10546.0586.08594.10156.04688.13281.01562.10547.04297.08594.0586-.01172.10546-.07422.07422-.17969.11719-.05859.08984-.08984.0586-.07032.07422-.07421.07421-.0625.08985-.02735.11719-.01562.1328.01562.13282-.01562.13281v.14844l.01562.13281.02735.1172.03125.12108.07421.07422.08985.0586.08594.0586.08984.05858.11719.03125v.08594l-.10157.04688-.08984.0586-.26563.03124-.11718.02735h-.14844l-.10547.04296-.10156.04688-.0586.08984-.0625.23438-.01171.13281-.03125.1211-.01563.1328v.29298l-.01172.1328.01172.13673.01563.1328.1328.01563.13282.01172.1211.03125.08593.0586.07422.07421.04688.10547.04296.10157.01563.1328v.44532l-.01563.13281v.44532l.03125.26562.02735.11719.01562.13281.03125.11719.08594.21094.03125.26562v.14844l-.03125.11719-.02734.11718-.03125.1211-.02735.11719-.03125.11718-.03125.1211-.01171.1328-.01563.13282.08984.0586.1172-.03125.10155.01562.04688.10547-.03125.26562v.44141l-.04297.10547-.04688.10547-.04296.10156-.04297.10547-.0586.08594-.03125.12109-.04296.11719-.03125.11719-.01563.1328.01563.13282.05859.08984.10547.04688.08594.0586.05859.08593-.01172.13672-.03125.11719-.04297.10156v.44531l-.01562.13281v.14844l-.03125.11719-.04297.10547-.02735.11719-.04687.10546-.04297.10157-.03125.12109-.02734.11719-.03125.13281-.03125.11719-.02735.11719-.04297.10546-.03125.1172-.03125.12108-.01171.13282-.01563.13281v.29688l.02734.11718v.14844l.04688.39844.02734.11719.0586.08984.12109.03125h.14844l.13281-.01563.0586.08985v.11719l-.0586.08984-.08984.0586-.10157.04296-.10546.04688-.08985.05859-.08594.0586-.13671.01562-.1172-.03125-.1328-.01563-.10157.04688-.0625.08594-.01172.13671-.01562.13282-.03125.11719-.02735.11718-.01562.13281-.03125.1211v.29687l.01563.13282.03125.11718v.14844l.01171.13281v.14844l-.02734.11719-.04688.10156-.02734.1211-.03125.11718-.0586.08985-.07421.07421-.10156.04297-.10547.04688-.11719.02734-.1211.03125-.10156-.04687.0586-.08594.10547-.04688.02734-.11718.03125-.11719.02734-.1211.03125-.11718v-.14844l.01563-.13281-.03125-.11719-.04297-.10547-.10547.01563-.07422.07422-.10156.04296-.08984.0625-.07422.07422-.04297.10157-.01563.1328-.03125.1172L304.25 426l-.03125.11719-.02734.11719-.03125.12109-.02735.11719-.03125.11718-.04297.10547-.08984.0586h-.08984l-.1172-.03125-.03124-.08594.01562-.13672-.03125-.11719v-.14844l-.01171-.1328v-.14844l-.0625-.23438-.02735-.1211-.04297-.10156-.04687-.10546-.0586-.08594-.05859-.08985-.04297-.10546-.0625-.08594-.14844-.14844-.0703-.07422-.10548-.04687-.10547-.04297-.10156-.04297-.29687-.29688-.08985-.07421-.08594-.0586-.10546-.04297-.08985-.0625-.08594-.0586-.10546-.04296-.08985-.0586-.08594-.0625-.07421-.0703-.10547-.04688-.08594-.0586-.10547-.04296-.08984-.0625-.10156-.04297-.10547-.04297-.08594-.0586-.10547-.04687-.10547-.04297-.10156-.04687-.08985-.0586-.10156-.04297-.10547-.04296-.08984-.0625-.11719-.02735-.13281-.01562-.13281.01562H299.75l-.13281.01563-.11719-.03125-.08984-.0586-.07422-.07422-.08985-.05859-.10156-.04688h-.14844l-.12109-.02734-.10156-.04297-.07422-.07422-.11719-.17968-.08984-.0586-.10156-.04297-.08985-.0625-.10547-.04296-.08984-.0586-.08594-.0586-.10547-.04687-.0586-.08594-.05858-.08984-.04297-.10547-.04688-.10156-.07422-.07422-.08594-.0586-.07421-.07421-.08985-.0586-.22265-.22265-.04297-.10547-.03125-.26563.10547-.04296h.14453l.10547.04296.07421.07422.08985.0586.08594.0586.10546.04687.08985.05859.14844.14844.0703.07422.14845.14843.0625.08594.07421.07422.08594.0586.07422.07421.08985.0625.08984.0586.08594.05859.26953.17578.10156.04688.10547.04296.10156.04297.04688-.07421.05859-.08594.07422-.07422.07031-.07422.10547.04297.07422.07422.0586.08984.04296.10156.04688.10547.04296.10547.1211.02735.11719-.02735.07421-.08984.04297-.10547.0586-.08985.07422-.07421.10546-.04297.1172-.02735.1328.01172.08985.0586.14844.14843.05859.08985.04297.10547.04687.10156.04297.10547.04297.10156.10547.04688.10547.04296.13281.01563.08594-.0586.0586-.08984.07421-.07422.10547-.04297.11719.02735.10547.04687.10156.04297.10547.04297.10156.04688.17969.11718v.11719l-.01563.13281.01563.13281.01562.13672.0586.08594.10156.04688.1211.02734.11718.03125h.14844l.11719-.03125.05859-.08984.17969-.1172.05859-.08983.07422-.07422.0586-.08594.11718-.17969.17969-.11719.11719.03125.08984.0586.04297.07422-.01563.1328v.1172l.08985.05859h.14843l.13282-.01563.1328-.01171.26563-.03125.10547-.04297.11719-.03125.1211-.02735.07421-.07421.07031-.07422.0625-.08985-.01562-.10547-.04688-.10156-.10156-.04297-.10547-.01562-.11718.02734-.26563.03125h-.14844l-.07421-.07422-.08985-.0586-.11719-.03124-.11718-.02735-.13282-.01562h-.14843l-.13282.01563h-.29687l-.10547-.04688-.14844-.14844-.04297-.10156-.05859-.08984.22266-.22266.08593-.0586.10547-.04296.11719-.03125.13281-.01563.13281.01563.13672.01562.10157.04297.1328-.01172.08985-.0625.10156-.04297.0625-.08984-.04687-.10156-.08984-.0586-.1172-.03125-.10155-.04296-.0586-.08985-.0625-.08984v-.11719l.01563-.13281.10547-.04688.07421-.07031v-.1211l-.08984-.05859-.03125-.11719.08985-.05859.07421-.07422.04297-.10547.0586-.08984.04687-.10156.01563-.13281v-.14844l-.04688-.10547-.04297-.10156-.08984-.0586-.13281-.01562-.10157-.04297-.13671-.01563-.1172-.03125h-.4453l-.13282-.01562-.13281-.01172-.13281-.01563-.11719-.03125h-.14844l-.13281-.01562-.13281-.01172-.26563-.03125-.1211-.04297-.08593-.0586-.07422-.07421v-.14844l.01172-.13281.10547-.04688.10156-.04296.13281-.01563h.15235l.13281-.01562h.29297l.1211.03125.10156.04296.08984.0586.23438.0625.12109-.04688.08984-.05859.10156-.04297.13282-.01562.10547.04296.10156.04688.13281.01172.1211-.02735h.14453l.12109-.03125.11719-.02734.10547-.04687.07421-.07422.08594-.0586.14844-.14843.0586-.08594.04687-.10547.02734-.11719.01563-.10547-.10156-.04296-.08985-.0586-.11719-.03125-.10546-.04297-.08985-.0625-.07422-.08594-.07422-.07421-.10156-.04297-.10547-.04688-.10156-.04297-.0586-.08984-.04687-.10156-.08594-.21094-.0625-.08594-.05859-.08984-.07422-.07422-.08594-.0586h-.26953l-.11719.03126-.08984.05859-.10156.04297-.13281.01562-.10547-.01562-.02735-.11719-.0625-.08984-.11718-.03125-.10157-.04297-.14843-.14844-.03125-.11719-.01563-.10546.07422-.07422.17969-.1172.11719-.02733.11718-.03125.13672.01562.10156.04297.10547.04297.10156.04687.10547.04297.1172.03125.1328.01563.1172.02734.1328.01563.10547-.01563.08985-.0586-.07422-.07421-.10547-.04297-.07422-.07422-.07422-.08984-.14844-.14844-.08593-.0586-.08985-.05859-.07422-.07422-.08984-.0586-.10156-.04687-.1211-.02734-.10156-.04688-.10547-.04296-.11719-.03125-.10156-.04297-.1211-.03125h-.14843l-.11719.03125-.10546.04297-.08594.0625-.17969.11718-.08594.0586-.08984.0586-.10547.04687-.08594.05859-.10547.04297-.10156.04297-.10547.04687-.07422.07422-.05859.08985-.0586.08593-.04687.10547-.0586.08594-.07421.07422-.13281-.01172-.1172-.03125h-.11718l-.07422.07422-.08984.0586-.07422.07421-.08984.0586-.08594.05859-.10547.04687-.10156.04297-.13672.01563-.10156-.04297-.14844-.14844-.10547-.04688h-.08594l-.10547.04688-.10156.04297-.1211.03125-.11718-.03125-.07422-.07422v-.11719l.03125-.1211.07422-.0703.0586-.08985.07421-.07422.11719-.03125.10547-.04296h.29297l.13281-.01563.13672-.01563.10156-.04296.08985-.0586.10156-.04687.08984-.0586.13281-.01171.08985.05859.13281.01172.08984-.0586.08594-.05859.10547-.04297.08984-.0586.08594-.0625.08985-.05859.14843-.14843.0586-.08594.05859-.08985.10547-.04296.13281-.01563.11719.02735.1211.03125.05859-.0586.05859-.08984.03125-.26563.02734-.11719.10547.01172.13281.01563.10157-.04297.08984-.0586.0586-.08984.07421-.07422.0586-.08984.04687-.10156.01172-.13281-.01172-.13282-.04687-.10547-.14844-.14843-.0586-.08985-.05859-.08594-.04297-.10546v-.44532l.01563-.1328v-.14845l.01172-.1328-.0586-.0586-.08984.0586-.10156-.04298-.17969-.11719-.08594-.05859-.0625-.08984-.0586-.08985-.07421-.07421-.08594-.0586-.1211.03125-.10155.01172-.10547.04688-.08594.05859-.10547.04297-.14844.14844-.08984.05859-.08594.0586-.08984.0625-.10547.04296-.13281.01563v-.1211l.10547-.04297.11718-.03125.07422-.0703.04297-.10548v-.14844l-.02734-.11718-.14844-.14844-.13281-.01563h-.14844l-.11719.03125-.10547.04297-.10156.04297-.08984.0625-.11719.02735-.07422-.07422.01172-.13281-.04297-.10157-.04297-.10547-.08984-.05859-.11719.02734-.1211.03125-.11718.03125-.10156.04297-.1211.03125-.10156.04297-.10547.04297-.08984.0586-.10156.01562v-.11719l.01562-.13281-.0586-.08985-.07421.04297-.14844.14844-.0586.08985-.07421.07421-.04688.10547-.04296.10156-.07422.07422-.0586.08985-.07422.07422-.05859.08593-.07422.07422-.08984.0625-.07422.07031-.07422.07422-.10156.01563-.13281.01562-.10547-.04296v-.1211l.14843-.14844.04297-.10156.0586-.08984.04687-.10156.04297-.10547.0586-.08985.03124-.11719.04297-.10156.03125-.1211.02735-.11718.04687-.10547.04297-.10156.04297-.10547.07422-.07031.08984-.0625.08985-.0586.10156-.04296h.29687l.26563-.03125.10547-.04297-.07422-.07422-.11719-.03125-.10547-.04297-.08984-.0586-.10156-.04687-.08985-.0586-.10156-.04296-.10547-.04297-.08984-.0625-.08594-.0586-.10547-.04296-.10156-.04297-.1211-.03125-.11718-.03125-.10157-.04297L297.5 410.25l-.10156-.04297-.08985-.0586-.04296-.10546-.01563-.13281.10156-.04297.13281-.01563.13672.01563.13282-.01563.10156-.04297.0586-.08984.01562-.10547-.08985-.0586-.07421-.07421-.10157-.04297-.08984-.0586-.14844-.14843-.04297-.10547-.01562-.13281v-.29297l-.0586-.08985-.08984-.05859-.07422-.07422-.04297-.10547-.03125-.11718-.0586-.08985-.07421-.07422-.11719-.02734-.07422-.07422-.08984-.0586-.08984-.0625-.08594-.05859-.07422-.07421-.0586-.08594-.04687-.10547-.08594-.0586-.14843-.14843-.19532-.0586-.1328.01563-.10157.04297-.07422.07422-.04688.10156-.04296.10547-.0586.08984-.0586.08594-.29687.29687-.08984.0586h-.08594l-.0625-.08594-.04297-.10547.03125-.11719.0586-.08984.02734-.11719-.01172-.13281-.08984-.0625-.10547.04688-.11719.02734-.11719.03125-.26953.17578-.10156.04688-.11719.02734-.10546.04687-.08985.0586-.10156.04297-.0586-.08594-.04687-.10547.01563-.13281.04687-.10547.07031-.07422.07422-.07031.0586-.08985v-.14843l-.04297-.10547h-.23829l-.10156.04687-.03125.11719-.02734.11719-.03125.1211-.07422.04296-.13281.01563-.07422-.04688-.04297-.10156-.04297-.10547-.04687-.10156-.04297-.10547-.1211.03125-.10156.04297-.13281.01562-.11719.03125-.10547.04297-.08984.0586-.10156.04687-.1211.02734-.13281.01563-.10156-.04297-.0586-.08985-.04687-.10546-.04297-.10157-.04297-.10546v-.1172l.0586-.08984.08593-.05859.17969-.11719.10156-.04687.10547-.04297.10547-.0586.10156-.04296.08985-.0625.10156-.04297.10547-.0586.10156-.04687.08984-.0586.10547-.04296.10156-.04297.08985-.0625.10156-.04297.13672-.01563.11719.03125.10156.04297.1211.03125.10156.04297.10546.04688.10157.04296.10547.04297.10156.04688.10547.04297.10156.04297.10547.04687.08594.0586.10546.04296.1172.03125.10546.04297.10156.04688.08985.0586.10547.04296.10156.04297.10547.04687.11719.02735.10156.04687.1211.02735h.14843l.08594-.0586.01562-.10156.0586-.08984-.02735-.1172-.07422-.07421-.11719-.17969-.07421-.07422-.08985-.07421-.17969-.1172-.08593-.05859-.10547-.04296-.10156-.04688-.26954-.17578-.05859-.08985-.07422-.07421-.0586-.08985-.04296-.10156-.03125-.11719-.01563-.13672v-.5625l-.01171-.1328-.01563-.13282-.03125-.11719-.01562-.13281-.01172-.13281-.03125-.1211-.22266-.22265-.0586-.08594-.01562-.10547.03125-.11719.13281-.01562v-91.41406H172.9922v1.45312l-.0586.23438-.35156 1.05078-.17187.52343-.1172.34766-.17577.41016-.11719.17187-.23438.29297-.23046.0586h-.35157l-.11718.05859-.23047.40625v.29297l.11719.17578.23046.23047.1172.23437.64062.75781.29297.46485.17578.23437.23047.35156.23437.34766.64063.8164.17578.46485.17187.41016.11719.69531.17578.46875.11719 1.39844.0586.46484v.875l.11718 1.04688v4.78125l-.0586.46484-.35156 1.28125-.17578.52344-.11328.41015-.35156.9297L172.93359 336l-.23437.58203-.11719.17578-.17187.34766-.17578.40625-.35157.8164-.0586.29297-.11327.29297-.11719.28906-.0586.17579-.11718.875-.0586.40625-.05859.11718-.0586.17579-.05859.17187-.23047.52734-.11718.17188v.23437l-.11719.23438-.0586.17187-.17577.58594v.28906l-.0586.17579v.29296l-.0586.11329-.05859.52734v.17187l-.05468.23438v2.6211l-.17578.8164-.1172.17578-.17577.23438-.1172.17187-.11327.23438-.58594.93359-.23047.28906-.29297.46485-.17578.23437-.28906.35156-.35156.69922-.11328.23047-.17579.41016-.17578.23046-.40625.52735-.8164.69922-.29297.17187-.28906.23438-.17579.11719-.17578.17578-.52344.40625-.52734.17578-.17187.17578-.23438.05469-.64062.17578h-.75782m12.21094 31.02344l-1.07422.44921.35938.89454 1.25-.71485.44531-.53906-.98047-.08985"/><path fill="#d3d3d3" fill-opacity="0" fill-rule="evenodd" d="M201.50781 416.59766h-.89453l.44922.6289.98047.35938.80469-.08985.4453-.98828-.17577.08985-.71485-.35547-.89453.35547m154.6211 59.0703l-.0586-.52343v-.29297l.11328-.29297.0586-.23046.46875-.46875h.11328l.11719-.11329.11718-.05859h.17579l.23437-.0586h.34766l.23437.0586.11719.0586.23047.17187.0586.17578.11718.58203v.29297l-.11719.17578-.17187.28906-.17579.17579-.52734.52343-.23047.23438-.11719.0586h-.17578l-.11718-.0586-.40625-.29297-.17579-.11719-.11718-.0586-.0586-.11327-.05468-.1172m6.64062-10.95702l-.0586-.17188v-1.10937l.0586-.17188.17578-.0586.17188-.05858h.17578l.23437-.0586.1172.0586.05858.69921-.05859.17188-.11719.17578-.11718.0586-.23438.52343-.11328.0586h-.23438l-.05859-.1172m9.61328-14.39062l-.11719-.17578v-.69922l.29297-.875.1172-.17187.17577-.35156.11328-.23047.1172-.29297.35155-.75781.1172-.23047.17187-.23438h.17578l.11719-.0586h.64062l.11719.0586.23437.23438.17188.11328.35156.29297.11719.11718.11328.17579v.11328l.11719.05859.11718.11719v.69922l-.05859.17578v.23047l-.0586.17578-.34765 1.05078-.11719.23047-.11719.23437-.11718.0586-.23047.23437-.64063.28906h-.875l-.41015-.11718-.64063-.46485"/><path fill="none" stroke="#bebebe" stroke-linecap="round" stroke-linejoin="round" stroke-miterlimit="10" stroke-width=".5" d="M467.95703 311.69531H144.02734v168.625h323.9297v-168.625"/><g clip-path="url(#a)"><path fill="#fff" fill-opacity="0" fill-rule="evenodd" d="M144 475.89063v4.4375h.0039H144V311.67188h.0039H144v164.21875"/></g><g clip-path="url(#b)"><path fill="#fff" fill-opacity="0" fill-rule="evenodd" d="M144.0039 480.32813V311.67188h235.23048V457.0039l-1.3086 1.1328 1.3086 1.44532.99218-1.44531-.99219-1.13281V311.67187h8.875v148.46875l-3.52343 2.4336 3.52344 2.23828 2.72656-2.23828-2.72656-2.4336V311.67188h79.88671v168.65625h-65.6875l-.8828-.6875-4.44142-2.71484-3.28515 3.40235H144.0039"/></g><path fill="#50fcfc" fill-rule="evenodd" d="M379.23438 459.58203l-1.3086-1.44531 1.3086-1.13281.99218 1.1328-.99219 1.44532m8.875 5.23047l-3.52343-2.23828 3.52344-2.4336 2.72656 2.4336-2.72656 2.23828"/><g clip-path="url(#c)"><path fill="#50fcfc" fill-rule="evenodd" d="M393.69922 480.32813h1.89844l1.38671-1.4375 1.97266 1.4375h3.35156l-.8828-.6875-4.44142-2.71485-3.28515 3.40235"/></g><g clip-path="url(#d)"><path fill="#00e8fc" fill-rule="evenodd" d="M395.59766 480.32813h3.35937l-1.97265-1.4375-1.38672 1.4375"/></g><g clip-path="url(#e)"><path fill="#fff" fill-opacity="0" fill-rule="evenodd" d="M467.9961 480.32813H468V311.67188h-.0039H468v168.65625h-.0039"/></g><g clip-path="url(#f)"><path fill="none" stroke="#000" stroke-linecap="round" stroke-linejoin="round" stroke-miterlimit="10" stroke-width=".5" d="M147.44531 481.02344l-6.89062-1.39063"/></g><g clip-path="url(#g)"><path fill="none" stroke="#000" stroke-linecap="round" stroke-linejoin="round" stroke-miterlimit="10" stroke-width=".5" d="M147.44531 481.02344l.69922 2.35156"/></g><g clip-path="url(#h)"><path fill="none" stroke="#000" stroke-linecap="round" stroke-linejoin="round" stroke-miterlimit="10" stroke-width=".5" d="M146.4414 480.82031l.35157 1.17578"/></g><g clip-path="url(#i)"><path fill="none" stroke="#000" stroke-linecap="round" stroke-linejoin="round" stroke-miterlimit="10" stroke-width=".5" d="M160.72656 481.16797l-6.82422-1.67969"/></g><g clip-path="url(#j)"><path fill="none" stroke="#000" stroke-linecap="round" stroke-linejoin="round" stroke-miterlimit="10" stroke-width=".5" d="M160.72656 481.16797l.60156 2.3789"/></g><g clip-path="url(#k)"><path fill="none" stroke="#000" stroke-linecap="round" stroke-linejoin="round" stroke-miterlimit="10" stroke-width=".5" d="M174.0586 481.10156l-6.85548-1.54687"/></g><g clip-path="url(#l)"><path fill="none" stroke="#000" stroke-linecap="round" stroke-linejoin="round" stroke-miterlimit="10" stroke-width=".5" d="M174.0586 481.10156l.64452 2.36719"/></g><g clip-path="url(#m)"><path fill="none" stroke="#000" stroke-linecap="round" stroke-linejoin="round" stroke-miterlimit="10" stroke-width=".5" d="M187.35547 481.16797l-6.82031-1.67969"/></g><g clip-path="url(#n)"><path fill="none" stroke="#000" stroke-linecap="round" stroke-linejoin="round" stroke-miterlimit="10" stroke-width=".5" d="M187.35547 481.16797l.60156 2.3789"/></g><g clip-path="url(#o)"><path fill="none" stroke="#000" stroke-linecap="round" stroke-linejoin="round" stroke-miterlimit="10" stroke-width=".5" d="M200.74219 480.8086l-6.96094-.95704"/></g><g clip-path="url(#p)"><path fill="none" stroke="#000" stroke-linecap="round" stroke-linejoin="round" stroke-miterlimit="10" stroke-width=".5" d="M200.74219 480.8086l.84375 2.30077"/></g><g clip-path="url(#q)"><path fill="none" stroke="#000" stroke-linecap="round" stroke-linejoin="round" stroke-miterlimit="10" stroke-width=".5" d="M214.08984 480.41016l-7.02734-.16407"/></g><g clip-path="url(#r)"><path fill="none" stroke="#000" stroke-linecap="round" stroke-linejoin="round" stroke-miterlimit="10" stroke-width=".5" d="M213.0664 480.38672l.55079 1.09765"/></g><g clip-path="url(#s)"><path fill="none" stroke="#000" stroke-linecap="round" stroke-linejoin="round" stroke-miterlimit="10" stroke-width=".5" d="M227.36328 479.78906l-6.94531 1.08203"/></g><g clip-path="url(#t)"><path fill="none" stroke="#000" stroke-linecap="round" stroke-linejoin="round" stroke-miterlimit="10" stroke-width=".5" d="M226.35156 479.94531l.73438.98047"/></g><g clip-path="url(#u)"><path fill="none" stroke="#000" stroke-linecap="round" stroke-linejoin="round" stroke-miterlimit="10" stroke-width=".5" d="M240.375 478.8125l-6.33984 3.03125"/></g><g clip-path="url(#v)"><path fill="none" stroke="#000" stroke-linecap="round" stroke-linejoin="round" stroke-miterlimit="10" stroke-width=".5" d="M239.45313 479.2539l.98828.73048"/></g><g clip-path="url(#w)"><path fill="none" stroke="#000" stroke-linecap="round" stroke-linejoin="round" stroke-miterlimit="10" stroke-width=".5" d="M253.13281 477.97656l-5.22265 4.70313"/></g><path fill="none" stroke="#000" stroke-linecap="round" stroke-linejoin="round" stroke-miterlimit="10" stroke-width=".5" d="M252.3711 478.66016l1.15234.42187"/><g clip-path="url(#x)"><path fill="none" stroke="#000" stroke-linecap="round" stroke-linejoin="round" stroke-miterlimit="10" stroke-width=".5" d="M265.75 477.38281l-3.82813 5.89453"/></g><path fill="none" stroke="#000" stroke-linecap="round" stroke-linejoin="round" stroke-miterlimit="10" stroke-width=".5" d="M265.1914 478.23828l1.22266.10938"/><g clip-path="url(#y)"><path fill="none" stroke="#000" stroke-linecap="round" stroke-linejoin="round" stroke-miterlimit="10" stroke-width=".5" d="M278.25 476.99219l-2.19922 6.67578"/></g><path fill="none" stroke="#000" stroke-linecap="round" stroke-linejoin="round" stroke-miterlimit="10" stroke-width=".5" d="M277.92969 477.96094l1.21094-.20703"/><g clip-path="url(#z)"><path fill="none" stroke="#000" stroke-linecap="round" stroke-linejoin="round" stroke-miterlimit="10" stroke-width=".5" d="M290.16016 476.82813l.61328 7"/></g><path fill="none" stroke="#000" stroke-linecap="round" stroke-linejoin="round" stroke-miterlimit="10" stroke-width=".5" d="M290.25 477.84766l1.02734-.66797"/><g clip-path="url(#A)"><path fill="none" stroke="#000" stroke-linecap="round" stroke-linejoin="round" stroke-miterlimit="10" stroke-width=".5" d="M302.91406 476.92188l1.73047 6.8125"/></g><path fill="none" stroke="#000" stroke-linecap="round" stroke-linejoin="round" stroke-miterlimit="10" stroke-width=".5" d="M303.16797 477.91406l.90625-.82422"/><g clip-path="url(#B)"><path fill="none" stroke="#000" stroke-linecap="round" stroke-linejoin="round" stroke-miterlimit="10" stroke-width=".5" d="M316.23828 476.92188l1.71485 6.8125"/></g><path fill="none" stroke="#000" stroke-linecap="round" stroke-linejoin="round" stroke-miterlimit="10" stroke-width=".5" d="M316.48828 477.91406l.91016-.82422"/><g clip-path="url(#C)"><path fill="none" stroke="#000" stroke-linecap="round" stroke-linejoin="round" stroke-miterlimit="10" stroke-width=".5" d="M329.16797 477.04297l2.48828 6.57031"/></g><path fill="none" stroke="#000" stroke-linecap="round" stroke-linejoin="round" stroke-miterlimit="10" stroke-width=".5" d="M329.52734 478l.8086-.92188"/><g clip-path="url(#D)"><path fill="none" stroke="#000" stroke-linecap="round" stroke-linejoin="round" stroke-miterlimit="10" stroke-width=".5" d="M341.5625 477.5625l4.32813 5.53516"/></g><path fill="none" stroke="#000" stroke-linecap="round" stroke-linejoin="round" stroke-miterlimit="10" stroke-width=".5" d="M342.1914 478.36719l.5-1.1211"/><g clip-path="url(#E)"><path fill="none" stroke="#000" stroke-linecap="round" stroke-linejoin="round" stroke-miterlimit="10" stroke-width=".5" d="M354.71094 477.69922l4.66015 5.25781"/></g><path fill="none" stroke="#000" stroke-linecap="round" stroke-linejoin="round" stroke-miterlimit="10" stroke-width=".5" d="M355.38672 478.46484l.42969-1.14843"/><g clip-path="url(#F)"><path fill="none" stroke="#000" stroke-linecap="round" stroke-linejoin="round" stroke-miterlimit="10" stroke-width=".5" d="M367.91016 477.8086l4.89453 5.03906"/></g><path fill="none" stroke="#000" stroke-linecap="round" stroke-linejoin="round" stroke-miterlimit="10" stroke-width=".5" d="M368.6211 478.54297l.375-1.16797"/><g clip-path="url(#G)"><path fill="none" stroke="#000" stroke-linecap="round" stroke-linejoin="round" stroke-miterlimit="10" stroke-width=".5" d="M380.40625 479.03516l6.53125 2.58593"/></g><g clip-path="url(#H)"><path fill="none" stroke="#000" stroke-linecap="round" stroke-linejoin="round" stroke-miterlimit="10" stroke-width=".5" d="M396.35938 476.8711l1.2539 6.91406"/></g><g clip-path="url(#I)"><path fill="none" stroke="#000" stroke-linecap="round" stroke-linejoin="round" stroke-miterlimit="10" stroke-width=".5" d="M411.8125 477.15625L408.79297 483.5"/></g><g clip-path="url(#J)"><path fill="none" stroke="#000" stroke-linecap="round" stroke-linejoin="round" stroke-miterlimit="10" stroke-width=".5" d="M426.80469 478.85156l-6.375 2.95313"/></g><g clip-path="url(#K)"><path fill="none" stroke="#000" stroke-linecap="round" stroke-linejoin="round" stroke-miterlimit="10" stroke-width=".5" d="M425.8789 479.28125l.97657.74219"/></g><g clip-path="url(#L)"><path fill="none" stroke="#000" stroke-linecap="round" stroke-linejoin="round" stroke-miterlimit="10" stroke-width=".5" d="M439.14453 477.60156l-4.42578 5.45703"/></g><path fill="none" stroke="#000" stroke-linecap="round" stroke-linejoin="round" stroke-miterlimit="10" stroke-width=".5" d="M438.5 478.39453l1.20313.23438"/><g clip-path="url(#M)"><path fill="none" stroke="#000" stroke-linecap="round" stroke-linejoin="round" stroke-miterlimit="10" stroke-width=".5" d="M452.42188 477.57031l-4.35157 5.51563"/></g><path fill="none" stroke="#000" stroke-linecap="round" stroke-linejoin="round" stroke-miterlimit="10" stroke-width=".5" d="M452.42188 477.57031l2.41406.4375"/><g clip-path="url(#N)"><path fill="none" stroke="#000" stroke-linecap="round" stroke-linejoin="round" stroke-miterlimit="10" stroke-width=".5" d="M465.6914 477.53516l-4.2578 5.58984"/></g><g clip-path="url(#O)"><path fill="none" stroke="#000" stroke-linecap="round" stroke-linejoin="round" stroke-miterlimit="10" stroke-width=".5" d="M465.6914 477.53516l2.42188.39453"/></g><g clip-path="url(#P)"><path fill="none" stroke="#000" stroke-linecap="round" stroke-linejoin="round" stroke-miterlimit="10" stroke-width=".5" d="M147.49219 467.39063l-6.98438-.75391"/></g><path fill="none" stroke="#000" stroke-linecap="round" stroke-linejoin="round" stroke-miterlimit="10" stroke-width=".5" d="M147.49219 467.39063l.91406 2.28125m12.41406-2.42579l-7.01172-.46484m7.01172.46484l1.00781 2.23828m12.31641-2.39453l-7.02734-.15234m7.02734.15234l1.10156 2.19532m12.17188-2.79297l-6.94922 1.04297m6.94922-1.04297l1.46094 1.97265m11.73828-2.48437l-6.71485 2.0664m6.71485-2.0664l1.73828 1.73047m11.46875-2.03516l-6.4961 2.67578m6.4961-2.67578l1.89062 1.5625m11.20313-2.00781l-6.05469 3.5664m6.05469-3.5664l2.09375 1.28125m10.85547-1.79297l-5.32031 4.58984m5.3203-4.58984l2.28516.88672M252.97656 464.5l-4.91015 5.02734m4.91015-5.02734l2.35156.6875m10.58204-1.01172l-4.14844 5.67578m4.14844-5.67578l2.42578.34766m10.82031-.39453l-4.01172 5.76953m4.01172-5.76953l2.4375.28906m10.54297-.4961l-3.33985 6.1836m3.33985-6.1836l2.45312.01954m10.3047-.26172l-2.22657 6.66797m2.22656-6.66797l2.41797-.40625m10.07422.23828l-.58203 7.0039m.58203-7.0039l2.25781-.96875m11.29297.9961l-1.05469 6.94921m1.05469-6.94922l2.3164-.8125m10.60157.77735l-.25781 7.01953m.21875-6l1.10546-.53516m10.89454-.26953l2.44921 6.58984m-2.08984-5.6289l.8125-.91797m11.01563.64062l4.70312 5.22266m-4.01953-4.46094l.41797-1.15234m11.8086.82422l5.51562 4.35547m-4.71485-3.72266l.21875-1.20703m13.19141-.22656l3.72266 5.95703m-3.1797-5.08985l.61329-1.0625m16 .26953l-3.95703 5.8086m3.3789-4.96485l1.21875.13672m13.1836-.55468l-4.98047 4.95703m4.98047-4.95703l2.34765.72265m11.01172-.67969l-5.0664 4.8711m4.32812-4.16406l1.16797.3828m13.09766-.84765l-5.48828 4.38672m4.6875-3.75l1.1289.48828m13.21875-.79687l-5.95312 3.73047"/><g clip-path="url(#Q)"><path fill="none" stroke="#000" stroke-linecap="round" stroke-linejoin="round" stroke-miterlimit="10" stroke-width=".5" d="M466.53906 465.14844l2.125 1.22265"/></g><g clip-path="url(#R)"><path fill="none" stroke="#000" stroke-linecap="round" stroke-linejoin="round" stroke-miterlimit="10" stroke-width=".5" d="M147.51172 453.84375l-7.02344-.28906"/></g><path fill="none" stroke="#000" stroke-linecap="round" stroke-linejoin="round" stroke-miterlimit="10" stroke-width=".5" d="M147.51172 453.84375l1.0586 2.21094m-2.08204-2.2539l.53125 1.10546m13.8086-1.19531l-7.02735-.02344m7.02734.02344l1.14454 2.16797m-2.16797-2.17188l.57422 1.08203m13.73828-1.51562l-6.97656.85156m6.97656-.85156l1.40625 2.01172m-2.42188-1.88672l.70313 1.0039m13.5625-1.5039L180.52344 454.5m6.84375-1.60156l1.61328 1.84765m-2.60938-1.61328l.8086.92188m13.41406-1.46485l-6.66797 2.21875m6.66797-2.21875l1.77734 1.69141m-2.74609-1.36719l.88672.84375m13.3125-1.39453l-6.5 2.66797m6.5-2.66797l1.89062 1.57031m11.27735-1.88671l-6.20313 3.30468m6.20313-3.30468l2.03515 1.37109m11.19532-1.52344L234.1914 455.5m6.03125-3.60547l2.09765 1.26953m10.73047-1.90234l-5.0625 4.875m5.0625-4.875l2.33203.76172m9.89844-1.52735l-2.89063 6.40625m2.89063-6.40625l2.44922-.16015m11.19531.33203l-3.55078 6.0625m3.55078-6.0625l2.45313.10156m11.04297.01172l-3.91407 5.83594m3.91406-5.83594l2.44141.25m10.09766-.64062l-2.35938 6.61718m2.35938-6.61718l2.42578-.35938m10.59765.26953l-1.77734 6.79688m1.51953-5.8086l1.19531-.28515m11.79297-.8047l-.60937 7m.52344-5.98046l1.1289-.48047m11.84375-.55078l.25 7.02344m-.21484-6l1.0625-.61719m12.76953-.38281l-.85156 6.97656m.72656-5.96094l1.14453-.4414m13.66406-.10547l-3.59375 6.03906m3.07032-5.16016l1.22656.0586m12.2539-1.125l-2.875 6.41406m2.45704-5.48047l1.22265-.08203m13.46094-.22266l-4.77734 5.15235m4.08203-4.40235l1.1875.31641m13.7461.33594l-6.6211 2.35156m5.65625-2.00781l.90625.82812m13.30078-1.35547l-6.47656 2.71875m5.53515-2.32421l.94922.77343m13.09766-1.58593l-6.0586 3.55468m5.17579-3.03906l1.04687.64453m13.44922-.50781l-6.65625 2.25m5.6875-1.92188l.89453.83985m13.55078-.44922l-6.98047.8125"/><g clip-path="url(#S)"><path fill="none" stroke="#000" stroke-linecap="round" stroke-linejoin="round" stroke-miterlimit="10" stroke-width=".5" d="M467.05078 453.29297l1.39453 2.01953"/></g><g clip-path="url(#T)"><path fill="none" stroke="#000" stroke-linecap="round" stroke-linejoin="round" stroke-miterlimit="10" stroke-width=".5" d="M147.4961 440.71875l-6.9922-.66797"/></g><path fill="none" stroke="#000" stroke-linecap="round" stroke-linejoin="round" stroke-miterlimit="10" stroke-width=".5" d="M147.4961 440.71875l.9414 2.26563m12.3789-2.29297l-7-.6172m7 .6172l.95704 2.2578m-1.97656-2.34765l.48046 1.1289m13.8672-1.375l-7.02735.0547m7.02734-.0547l1.16797 2.15626m-2.1914-2.14844l.58593 1.07813m13.69922-1.65235l-6.92188 1.1914m6.92188-1.1914l1.5039 1.9375m-2.51171-1.76562l.7539.96875m13.41797-1.72656l-6.61719 2.36328m6.6172-2.36328l1.8125 1.65234m-2.77735-1.3086l.90625.82422m12.9375-2.0078l-5.75 4.03905m5.75-4.03906l2.1875 1.10938m11.33984-.76954l-6.17187 3.35938m6.17187-3.35938l2.04688 1.35547m10.48047-2.33203l-4.59766 5.3164m4.59766-5.3164l2.39062.54297m8.15625-1.36719l.9375 6.96485m-.9375-6.96485l1.9961-1.42968m13.11328 1.65625l-2.64844 6.5078m2.64844-6.5078l2.4414-.25m11.98438.97265l-4.8711 5.0664m4.8711-5.0664l2.35937.67188m8.99219-1.6211l-.9414 6.96485m.9414-6.96485l2.30078-.85156m11.42578.9336l-1.76953 6.80078m1.76953-6.80078l2.38672-.57032m11.54297.79297l-2.9961 6.35547m2.5586-5.4336l1.22656-.05859m13.53125-.15234l-5.00781 4.92969m5.00781-4.9297l2.33985.73438m11.59765.12891l-6.25 3.20703m6.25-3.20703l2.01563 1.40234m9.10156-3.1875l-1.85547 6.77735m1.58594-5.79297l1.19531-.26953m12.85938-.55078l-2.79297 6.44922m2.38672-5.51172L372.5703 438m12.46094 5.6211l-2.72266-6.47657m2.32813 5.53516l-.77344.94922M400 442.1914l-6.02734-3.6172m5.14843 3.08985l-.0625 1.22656m13.41797.25L408.125 437.625m3.71875 4.71484l-.49219 1.1211m15.65235-4.01563l-6.77344 1.875m6.77344-1.875l1.6875 1.78125m11.39453-2.39062l-6.3086 3.09375m6.3086-3.09375l1.98828 1.4375m-2.90625-.98828l.9961.71875m13.58984.19921l-7.01563.35938m7.01563-.35938l1.26172 2.10547m12.05859-1.8203l-7.02344-.20704"/><g clip-path="url(#U)"><path fill="none" stroke="#000" stroke-linecap="round" stroke-linejoin="round" stroke-miterlimit="10" stroke-width=".5" d="M467.07422 440.48828l1.08594 2.19922"/></g><g clip-path="url(#V)"><path fill="none" stroke="#000" stroke-linecap="round" stroke-linejoin="round" stroke-miterlimit="10" stroke-width=".5" d="M147.47656 427.5664l-6.95312-.99218"/></g><path fill="none" stroke="#000" stroke-linecap="round" stroke-linejoin="round" stroke-miterlimit="10" stroke-width=".5" d="M147.47656 427.5664l.83594 2.3047m12.42578-2.00782l-6.84766-1.58984m6.84766 1.58984l.63281 2.3711m-1.6289-2.60157l.3164 1.1836m14.05078-1.25l-6.95703-.9961m6.95703.9961l.83204 2.30468m12.48437-3.26953l-6.96484.9336m6.96484-.9336l1.42969 1.9961m11.78906-2.47657l-6.76953 1.89454m5.78516-1.6172l.84375.88673m13.05859-2.07032l-5.97266 3.70704m5.97266-3.70704l2.1211 1.23438m10.03515-2.38281l-3.65625 6.0039m3.125-5.1289l1.22266.0703m13.33984-.36718l-5.08984 4.84766m4.35156-4.14063l1.16406.38672m12.89453-1.08594l-5.10156 4.83203m4.35938-4.1289l1.16406.39062m13.05469-.91406l-5.42188 4.47266m4.63281-3.82032l1.13281.46875m13.62891.1211l-6.73828 1.98828m5.75781-1.69922l.85938.875m12.63281-2.57031l-5.13281 4.80078m4.38672-4.10156l1.16015.39843m13.41406-.39062l-6.15625 3.38672m18.0547-4.78906l-3.32032 6.1914m3.32031-6.1914l2.45313.0078m12.28515 1.40626l-6.17187 3.36328m5.27344-2.875l1.02343.67578m13.375-.76562l-6.53906 2.5664m6.53906-2.5664l1.86329 1.59375m11.40625-1.70704l-6.44922 2.79297m6.44921-2.79297l1.91797 1.53125m10.46094-2.80078l-4.57812 5.33203m3.91406-4.55468l1.19531.26562m9.52344-1.7539l1.94531 6.7539m-1.94531-6.7539l1.76172-1.70704m15.67187 6.64844l-6.29297-3.125m6.29297 3.125l.07031 2.44922m13.40235-2.8164L407 425.87108m6.60547 2.39453l.34375 2.4297m12.66406-5.46095l-5.99219 3.66797m5.9922-3.66797l2.11327 1.2461m-2.98437-.71485l1.05469.625m12.85937-1.54296l-5.44922 4.4414m5.44922-4.4414l2.26172.95312m-3.05469-.30469l1.1289.47266m13.45313-.35547l-6.39844 2.91016m6.39844-2.91016l1.94531 1.4961m11.66016.375l-6.97656-.83204"/><g clip-path="url(#W)"><path fill="none" stroke="#000" stroke-linecap="round" stroke-linejoin="round" stroke-miterlimit="10" stroke-width=".5" d="M467.05078 427.48438l.88672 2.28906"/></g><g clip-path="url(#X)"><path fill="none" stroke="#000" stroke-linecap="round" stroke-linejoin="round" stroke-miterlimit="10" stroke-width=".5" d="M147.46094 414.3711l-6.91797-1.23438"/></g><path fill="none" stroke="#000" stroke-linecap="round" stroke-linejoin="round" stroke-miterlimit="10" stroke-width=".5" d="M147.46094 414.3711l.75 2.33593m-1.75781-2.51562l.375 1.16796m13.90625-.80468l-6.83985-1.60156m6.83984 1.60156l.62891 2.3711m-1.6211-2.60548l.3125 1.1875m13.97657-.8789l-6.80469-1.75m6.80469 1.75l.57813 2.3828m12.84375-3.41796l-7.01954.32031m7.01953-.32031l1.25391 2.10938m11.95703-2.81641l-6.8086 1.73437m6.8086-1.73437l1.65235 1.8164m11.7578-1.26953l-6.99608.63672m5.97656-.54297l.67187 1.02735m13.64453-1.29297l-6.96093.98047m5.9453-.83594l.72267.99219m13.58593-1.26953l-6.91406 1.25m6.91406-1.25l1.51953 1.92578m11.75391-2.1211l-6.83203 1.63672m6.83203-1.63672l1.625 1.83985m11.53125-2.33594l-6.51563 2.63281m5.56641-2.25l.9414.78906m13.10548-1.61718l-6.08203 3.52343m5.1953-3.01171l1.04298.64843m13.14843-1.17578l-6.05859 3.55469m5.17578-3.03906l1.04688.64453m13.3789-.70313l-6.51562 2.64063m5.5664-2.25781l.94141.78906m13.57422.00781l-7.01953.28125m6-.24219l.61719 1.0586m13.25.80078l-6.08204-3.51953M332.56641 415l-.04297 1.22656m14.67969-1.96484l-6.95313-1.01953m5.9414.8711l.41407 1.15624m13.72266-2.76172l-6.57422 2.48828m5.61718-2.125l.92188.8086m12.61719-2.33594l-5.10938 4.82031m5.10938-4.82031l2.32812.78516m11.57422.04687l-6.28125 3.15625m5.36719-2.69922l1 .71094m12.2539-2.35547l-4.33203 5.53125m4.33203-5.53125l2.41407.42578m-3.04297.3789l1.20703.21095m13.27344-.4922l-5.40625 4.48438m5.40625-4.48437l2.27343.92969m11.19141-.73829l-5.70312 4.10157m5.70312-4.10156l2.19922 1.08203m10.92578-1.32422l-5.32422 4.58594m5.32422-4.58594l2.28516.89062m11.01172-.91015l-5.28907 4.625m5.28907-4.625l2.29296.875m10.5586-1.32032l-4.35938 5.51172"/><g clip-path="url(#Y)"><path fill="none" stroke="#000" stroke-linecap="round" stroke-linejoin="round" stroke-miterlimit="10" stroke-width=".5" d="M465.74219 410.9961l2.41406.4414"/></g><g clip-path="url(#Z)"><path fill="none" stroke="#000" stroke-linecap="round" stroke-linejoin="round" stroke-miterlimit="10" stroke-width=".5" d="M147.41406 401.26953l-6.82812-1.66015"/></g><path fill="none" stroke="#000" stroke-linecap="round" stroke-linejoin="round" stroke-miterlimit="10" stroke-width=".5" d="M147.41406 401.26953l.60938 2.375M160.78516 401l-6.9375-1.125m6.9375 1.125l.78906 2.32422m12.57031-2.83203l-7.02734-.10938m7.02734.10938l1.11719 2.1836m12.13281-1.57032l-6.89844-1.33594m6.89844 1.33594l.71875 2.34765m-1.72266-2.54296l.35938 1.17578m14.01953-1.47266l-7.01953-.34765m6 .29687l.51953 1.10938M214.0625 400l-6.97266.875m6.97266-.875l1.41406 2.0039m11.70703-2.78515l-6.58593 2.4414m6.58593-2.4414l1.83594 1.6289m11.28906-2.05468l-6.20703 3.28906m6.20703-3.28906l2.03516 1.375m10.99219-1.83203l-5.63281 4.20312m5.6328-4.20312l2.21876 1.04687m10.96484-1.21094l-5.3711 4.53125m5.3711-4.53125l2.27735.91407m11.11718-.82031l-5.52344 4.34375m4.71875-3.71094l1.1211.4961m13.08203-1.01173l-5.69531 4.11328m4.86719-3.51562l1.10156.53906m12.54687-1.6914l-4.70703 5.21875m4.02344-4.45704l1.1914.29688m13.51563-.17578l-6.1211 3.45312m19.71485-2.82422l-6.67578 2.19532m19.13672-3.58204l-4.96875 4.96875M357.7578 397l-1.4336 6.8789m16.48438-5.95702l-4.90625 5.03125m17.95313-5.26954l-4.36719 5.50782m4.36719-5.50782l2.41015.44532m10.98829-.375l-4.53516 5.36718m4.53516-5.36718l2.39843.51953m11.5547.1914l-5.8125 3.94532m5.8125-3.94532l2.17187 1.14844m11-1.34765l-5.52344 4.34375m5.52344-4.34375l2.24609.99218m10.78125-1.3164l-4.94922 4.99218m4.94922-4.99218l2.34766.70703m11.32421-.29297l-5.66406 4.16406m5.66406-4.16406l2.21094 1.0664m10.77735-1.4453l-5.01172 4.92577"/><g clip-path="url(#aa)"><path fill="none" stroke="#000" stroke-linecap="round" stroke-linejoin="round" stroke-miterlimit="10" stroke-width=".5" d="M466.0664 397.97656l2.33985.73438"/></g><g clip-path="url(#ab)"><path fill="none" stroke="#000" stroke-linecap="round" stroke-linejoin="round" stroke-miterlimit="10" stroke-width=".5" d="M147.51172 387.22656l-7.02344-.20703"/></g><path fill="none" stroke="#000" stroke-linecap="round" stroke-linejoin="round" stroke-miterlimit="10" stroke-width=".5" d="M147.51172 387.22656l1.08984 2.19922m12.07422-1.28125l-6.72266-2.04297m5.7461 1.7461l.23437 1.20312m13.65235-.02344l-5.91016-3.80468m5.91016 3.80468l-.20703 2.44532m14.0625-4.00782l-6.9922-.67968m5.97657.57812l.46875 1.13281m13.6875-.22656l-6.64453-2.29297m5.67969 1.95703l.1914 1.21485m14.25782-2.41797l-6.98438.78515m6.98438-.78515l1.38672 2.02344m11.87109-2.3672l-6.8711 1.47267m6.8711-1.47266l1.58203 1.875m11.6211-2.27735l-6.64454 2.28125m6.64453-2.28125l1.79297 1.67188m11.42969-1.91406l-6.46094 2.76172m6.46094-2.76172l1.91016 1.53906m11.30078-1.76563l-6.25 3.21485m6.25-3.21485l2.01562 1.39844m-2.92578-.92969l1.00781.69922m13.04297-1.46484l-5.90234 3.8125m5.90234-3.8125l2.14453 1.1914m11.1172-1.27343l-5.79688 3.97265m5.79687-3.97265l2.17578 1.13672m10.9375-1.40235l-5.39453 4.50391m5.39453-4.5039l2.27344.92577m11.46875-.28515l-6.2461 3.22265m5.33594-2.7539l1.00782.69922m13.11718-1.34766l-6.04296 3.58203m5.16406-3.0625l1.04687.64063m12.97657-1.42188l-5.70313 4.10547m4.8711-3.50781l1.10156.54297m13.61328.10937l-6.83985 1.60938m5.84375-1.3789l.8086.92577m13.36719-1.59765l-6.57032 2.49218m6.57032-2.49218l1.84765 1.61718m10.98047-2.5L380.875 389.25m5.59375-4.2539l2.22656 1.02734m11.00782-1.1289l-5.4336 4.45702m5.4336-4.45703l2.26562.9414m11.03516-.95702l-5.40625 4.48828m5.40625-4.48828l2.26953.92968m10.85937-1.13671l-5.03515 4.90234m5.03515-4.90235l2.33985.75m10.99609-.73046l-5.07422 4.86328m5.07422-4.86328l2.33203.76953m11.4375-.17969l-5.98437 3.6836m5.98437-3.6836l2.11719 1.24219m11.41797-.82813l-6.42188 2.85547"/><g clip-path="url(#ac)"><path fill="none" stroke="#000" stroke-linecap="round" stroke-linejoin="round" stroke-miterlimit="10" stroke-width=".5" d="M466.77344 385.69531l1.92969 1.51172"/></g><g clip-path="url(#ad)"><path fill="none" stroke="#000" stroke-linecap="round" stroke-linejoin="round" stroke-miterlimit="10" stroke-width=".5" d="M147.36328 372.78516l-6.72656 2.04687"/></g><path fill="none" stroke="#000" stroke-linecap="round" stroke-linejoin="round" stroke-miterlimit="10" stroke-width=".5" d="M147.36328 372.78516l1.73047 1.73828m-2.71094-1.4414l.86719.87108m13.55078-.60156l-6.96875.91406m6.96875-.91406l1.42188 2m-2.4375-1.86719l.71093 1m13.64844-.75l-7.02734.14844m7.02734-.14844l1.19531 2.14063m11.47657-.04297l-5.7422-4.04687m5.7422 4.04687l-.3047 2.4336m14.25782-4.60938l-7.01953.30469m6-.26172l.6211 1.0586m13.70312-1.28126l-6.9961.66406m6.9961-.66406l1.35156 2.04688m11.96875-1.97266l-7.00781.51172m7.00781-.51172l1.3086 2.07813m11.96875-2.40235l-6.9297 1.16016m6.9297-1.16016l1.49218 1.94922m-2.5-1.77734l.7461.97265m13.44922-1.65625l-6.67579 2.1875m6.67578-2.1875l1.76954 1.69922m-2.7422-1.38281l.88673.85156m13.1875-1.67578l-6.2539 3.20313m6.2539-3.20313l2.01562 1.40235m-2.92578-.9375l1.00781.70312m13.09766-1.38672l-6.01172 3.64063m6.01172-3.64063l2.10938 1.25781m-2.98438-.72656l1.05469.6289m13.1289-1.17187l-5.99609 3.66406m5.9961-3.66406l2.11327 1.25m-2.98828-.71875l1.0586.625m13.14844-1.125l-6.03125 3.60156m6.03125-3.60156l2.10156 1.26563m-2.98047-.74219l1.05078.63281m13.33594-.79297l-6.41406 2.8711m6.41406-2.8711l1.9336 1.50782m11.55077-1.03907l-6.7539 1.9375m6.7539-1.9375l1.70313 1.76172m11.70703-1.32031l-6.94531 1.05469m6.9453-1.05469l1.46485 1.96875m11.88672-1.59375l-7.01953.30469m7.01953-.30469l1.2461 2.11719m12.0039-2.66406l-6.88672 1.39453m6.88672-1.39454l1.5586 1.89844m11.39843-2.8789l-6.17187 3.35937m6.17187-3.35937l2.04688 1.35546m-2.94531-.86718l1.02343.67578m13.16016-1.21875l-6.11328 3.46875m6.11328-3.46875l2.07031 1.3164m11.02344-1.66015l-5.66797 4.15234m5.66797-4.15234l2.20703 1.07031m-3.03125-.46484l1.10156.53515m13.17578-.93359l-5.94921 3.73828m5.94921-3.73828l2.12891 1.22266m11.05469-1.41797l-5.6836 4.13281m5.6836-4.13281l2.20312 1.07031m-3.03125-.46875l1.10156.53516m12.88672-1.33594l-5.37109 4.53125m5.3711-4.53125l2.27734.91406m11.71875.35156l-6.73828 1.9961m5.7578-1.70313l.85938.875"/><g clip-path="url(#ae)"><path fill="none" stroke="#000" stroke-linecap="round" stroke-linejoin="round" stroke-miterlimit="10" stroke-width=".5" d="M146.90234 358.51172l-5.80468 3.96484"/></g><path fill="none" stroke="#000" stroke-linecap="round" stroke-linejoin="round" stroke-miterlimit="10" stroke-width=".5" d="M146.90234 358.51172l2.17188 1.14062m-3.01563-.5625l1.08594.56641m13.3125-.73828l-6.28516 3.14844m6.28516-3.14844l2 1.42187m11.66016.59375l-6.97266-.8789m6.97266.8789l.8711 2.29297m12.32812-1.73828l-6.7422-1.99219m6.7422 1.9922l.48828 2.40233m-1.46875-2.6914l.24219 1.20312M200.73827 361l-6.95312-1.01172M200.73828 361l.82813 2.3086m12.51953-2.91407l-7.02344.19922m7.02344-.19922l1.21484 2.13281m12.09766-2.19921l-7.01953.33203m7.01953-.33204l1.2539 2.10938m-2.27343-2.0625l.625 1.05469m13.63672-1.66797l-6.8711 1.46094m6.8711-1.46094l1.57812 1.88281m-2.57813-1.66797l.78907.9375m13.36328-1.70312l-6.54297 2.5625m6.54297-2.5625l1.86328 1.59765m-2.8164-1.22265l.93359.79687m13.09765-1.66015l-6.0703 3.53906m6.0703-3.53906l2.08594 1.29296m-2.96875-.77734l1.04297.64453m12.98438-1.42578l-5.72657 4.07031m5.72656-4.0703l2.19141 1.09765m-3.02734-.5039l1.09765.54687m13.16407-.97657l-5.94922 3.7422m5.94922-3.7422l2.1289 1.22266m-2.9961-.67578l1.06642.60937m13.36328-.68359l-6.44532 2.80078m6.44532-2.80078l1.91797 1.52734M306.0664 359.5l.96093.76172m13.44922-.72656l-6.76172 1.91406m6.76172-1.91406l1.69922 1.77343m11.67188-1.55078l-6.8711 1.47266m6.8711-1.47266l1.57812 1.875m11.76563-1.73047l-6.9297 1.1797m6.9297-1.1797l1.49609 1.94141m-2.5039-1.76953l.74609.97265m13.53125-1.35937l-6.83985 1.60938m6.83985-1.60938l1.61719 1.84375m-2.61329-1.60938l.8086.92188m13.51172-1.11328l-6.85938 1.52734m6.85938-1.52734l1.59765 1.86328m-2.59375-1.64063l.79688.9297m13.39453-1.57423l-6.61719 2.3711m6.61719-2.3711l1.8125 1.64844m-2.77734-1.30469l.91015.82422m13.38281-1.125l-6.64453 2.28125m6.64453-2.28125l1.79297 1.67578m-2.75781-1.34375l1.79297 1.67579m12.51172-1.9336l-6.69531 2.13672m6.6953-2.13672l1.75782 1.71094m-2.73047-1.40235l.875.85938m13.45703-1.01563l-6.78515 1.83204m6.78515-1.83204l1.67578 1.78907m-2.66406-1.52344l.83985.89453m13.375-1.4414l-6.60547 2.39062m6.60547-2.39063l1.8203 1.64844m-2.78124-1.30078l.91015.82422m13.19141-1.57813l-6.25781 3.20313m6.25781-3.20313l2.01172 1.40625m-2.92188-.9375l1.00391.69922m13.26172-1.08593l-6.33594 3.03906"/><g clip-path="url(#af)"><path fill="none" stroke="#000" stroke-linecap="round" stroke-linejoin="round" stroke-miterlimit="10" stroke-width=".5" d="M466.73047 358.97266l1.97656 1.45703"/></g><g clip-path="url(#ag)"><path fill="none" stroke="#000" stroke-linecap="round" stroke-linejoin="round" stroke-miterlimit="10" stroke-width=".5" d="M147.07813 345.48828l-6.15625 3.38281"/></g><path fill="none" stroke="#000" stroke-linecap="round" stroke-linejoin="round" stroke-miterlimit="10" stroke-width=".5" d="M147.07813 345.48828l2.05468 1.34375m-2.94922-.85156l1.02735.67187m13.4414-.57812l-6.67187 2.20703m6.67187-2.20703l1.77344 1.69531m11.66797-.0039l-6.92578-1.17579m6.92578 1.17579l.77344 2.32812m12.5586-2.42578l-6.96095-.97656m6.96094.97656l.83984 2.30469m12.46875-2.26954l-6.94921-1.05078m6.94922 1.05079l.8125 2.3164m12.54296-2.80469l-7.02734-.07421m7.02734.07421l1.12891 2.1797m-2.15234-2.19142l.5664 1.08985m13.75-1.4961l-6.98437.76172m6.98437-.76171l1.3789 2.02734m-2.39452-1.91797l.6914 1.01563m13.54297-1.64844l-6.79297 1.8086m6.79297-1.8086l1.66797 1.79687m-2.65625-1.53515l.83594.90234m13.40625-1.36328l-6.67188 2.20703m6.67188-2.20703l1.77344 1.69531m-2.7422-1.375l.88673.84766m12.92969-2.09375l-5.73438 4.0586m5.73438-4.0586l2.1914 1.10156m11.07813-1.16406l-5.64453 4.1836m5.64453-4.1836l2.21484 1.05469m11.51172-.33985l-6.46485 2.7539m6.46485-2.7539l1.90625 1.53906m11.67578-.47656l-7 .6289m7-.6289l1.33984 2.05469m-2.35937-1.96094l.67187 1.02735m13.64063-1.29688l-6.95703.98047m6.95703-.98047l1.44531 1.98438m-2.45703-1.83985l.72266.99219m13.5078-1.59766l-6.76562 1.90235m6.76563-1.90235l1.69531 1.77735m-2.67969-1.5l.84766.88671m13.55469-.65625l-6.96875.88672m6.96875-.88671l1.41797 2.0039m-2.4336-1.875l.71094 1.0039m13.64844-.6875h-7.02735m7.02735 0l1.15234 2.16407m-2.17578-2.16406l1.15234 2.16406m13.17579-2.4375l-7.00782.54297m7.00781-.54297l1.31641 2.07422m-2.33594-1.9961l1.31641 2.07422m12.9375-2.67578l-6.84375 1.58985m6.84375-1.58985l1.61328 1.85156m-2.60937-1.61718l1.61328 1.84765m12.58203-2.47656l-6.61328 2.3789m6.61328-2.3789l1.8164 1.64844m-2.78125-1.30469l1.82032 1.64844m12.44531-2.02735l-6.58594 2.44922m6.58594-2.44921l1.83594 1.6289m-2.79297-1.27344l1.83594 1.62891m12.44921-1.95313l-6.60937 2.38672m6.60938-2.38671l1.8203 1.64453m-2.78124-1.29688l1.8164 1.64453m12.33985-2.28125l-6.3711 2.96485m6.3711-2.96485l1.95703 1.48047m-2.88281-1.04687l.97656.73828m13.2461-1.21094l-6.33204 3.04688m6.33203-3.04688l1.97656 1.44922m-2.89843-1.00781l.98828.72656M466.87109 346l-6.62109 2.35547"/><g clip-path="url(#ah)"><path fill="none" stroke="#000" stroke-linecap="round" stroke-linejoin="round" stroke-miterlimit="10" stroke-width=".5" d="M466.8711 346l1.8125 1.65625"/></g><path fill="none" stroke="#000" stroke-linecap="round" stroke-linejoin="round" stroke-miterlimit="10" stroke-width=".5" d="M465.91016 346.34375l.90234.82813"/><g clip-path="url(#ai)"><path fill="none" stroke="#000" stroke-linecap="round" stroke-linejoin="round" stroke-miterlimit="10" stroke-width=".5" d="M147.47266 333.33984l-6.94532 1.04688"/></g><path fill="none" stroke="#000" stroke-linecap="round" stroke-linejoin="round" stroke-miterlimit="10" stroke-width=".5" d="M147.47266 333.33984l1.46484 1.97266m11.70313-2.58984L153.99219 335m6.64844-2.27734l1.78906 1.67968m-2.75781-1.34765l.89453.83984m13.53125-.58594l-6.9375 1.10938m6.9375-1.10938l1.48047 1.95704m11.86718-1.1172l-7.0039-.5703m7.0039.5703l.97656 2.25m12.35157-2.4414l-7.02735-.1875m7.02735.1875l1.09375 2.19531m12.22265-2.2578l-7.02734-.0625m7.02734.0625l1.12891 2.17968m-2.15234-2.1875l1.1328 2.17578m13.16017-2.76563l-6.9375 1.13282m6.9375-1.13281l1.48437 1.95312m-2.4961-1.78906l1.48829 1.95312m12.72265-2.59765l-6.70703 2.09375m6.70703-2.09375l1.7461 1.72656m-2.72266-1.42188l.875.86329m13.29297-1.50391l-6.46094 2.76562m6.46094-2.76562l1.91406 1.53906m10.98438-2.26172l-5.6289 4.20703m5.6289-4.20703l2.22265 1.04688m11.17579-.92969l-5.79297 3.97656m5.79297-3.97656l2.17578 1.13672m11.67578.10156l-6.86719 1.5m5.86719-1.28125l.79297.9336m13.55468.18359l-6.92968-1.17188m6.92968 1.17188l.77344 2.32812m12.58985-2.91406h-7.02735m7.02735 0l1.15234 2.16797m-2.17578-2.16797l.57812 1.08203m13.61328-2.08594l-6.73437 2.00782m6.73437-2.00781l1.72266 1.74609m-2.70312-1.45703l.86328.875m13.57812-.20313l-7.02734.08594m7.02734-.08594l1.17969 2.15235m12.09766-1.59766l-6.94922-1.02344m6.94922 1.02344l.82812 2.3086m-1.83594-2.45704l.41016 1.15235m13.9375-1.82813l-7 .625m7-.625l1.33984 2.05469m-2.35937-1.96485l.67187 1.02735m13.30469-2.375l-6.28516 3.14062m6.28516-3.14062l2 1.42187m11.3711-1.3125l-6.39454 2.92188m6.39453-2.92188l1.94532 1.4922m11.41797-1.375l-6.4922 2.6875m6.4922-2.6875l1.89453 1.5625m-2.83985-1.17188l.94922.78125m13.33203-1.1211l-6.53125 2.58594m6.53125-2.58594l1.86719 1.58985m-2.8164-1.21485l.93359.79688m13.24219-1.3789l-6.35547 3m6.35547-3l1.96484 1.46874m-2.89063-1.03125l1.96875 1.46485m12.15235-2.13282l-6.11719 3.46094m6.11719-3.46094l2.07031 1.32031m-2.96094-.8164l2.07032 1.32031m12.12109-1.85156l-6.08594 3.51562"/><g clip-path="url(#aj)"><path fill="none" stroke="#000" stroke-linecap="round" stroke-linejoin="round" stroke-miterlimit="10" stroke-width=".5" d="M466.60547 332.10547l2.07812 1.30078"/></g><g clip-path="url(#ak)"><path fill="none" stroke="#000" stroke-linecap="round" stroke-linejoin="round" stroke-miterlimit="10" stroke-width=".5" d="M465.71875 332.61719l2.08203 1.30078"/></g><g clip-path="url(#al)"><path fill="none" stroke="#000" stroke-linecap="round" stroke-linejoin="round" stroke-miterlimit="10" stroke-width=".5" d="M147.51172 320.41406l-7.02344.26563"/></g><path fill="none" stroke="#000" stroke-linecap="round" stroke-linejoin="round" stroke-miterlimit="10" stroke-width=".5" d="M147.51172 320.41406l1.23047 2.125m-2.2539-2.08594l.61718 1.0625m13.67187-1.5664l-6.92578 1.19531m6.92578-1.19531l1.50391 1.9414m-2.51172-1.76562l.7539.96875m13.58204-1.05469l-6.95313 1.01953m6.95313-1.01953l1.45312 1.97656m-2.46484-1.82812l.72656.98828m13.63281-.41015l-7.01562-.4336m7.01563.4336L188.46875 323m-2.03906-2.29688l.50781 1.1172m13.82031-.92579l-6.99219-.6914m6.9922.6914l.93359 2.26563m-1.95313-2.3672l.9336 2.26954m13.41015-2.72656l-7.01562.42578m7.01562-.42578l1.28125 2.09375m-2.30078-2.03125l1.28125 2.08984m12.83203-3.1836l-6.57031 2.48438m6.57031-2.48437l1.84375 1.6211m-2.80078-1.25782l1.84375 1.61719m12.23438-2.41016l-6.1797 3.34375m6.1797-3.34375l2.04296 1.35938m-2.9453-.8711l1.02343.67969m13.2539-1.04688l-6.30468 3.10157m6.30469-3.10157l1.99218 1.4375m11.38281-1.30859l-6.42578 2.84375m6.42578-2.84375l1.9336 1.51563m11.3711-1.53907l-6.40235 2.89453m6.40234-2.89453l1.9414 1.5m11.65626-.5039L286.98047 321m6.96875-.90234l1.42187 2m11.88672-1.03907l-6.95312-1.02343m6.95312 1.02343l.82422 2.3125m12.52344-2.65234l-7.01953-.34375m7.01953.34375l1.04297 2.21875m12.14062-3.36328l-6.7539 1.94531m6.7539-1.94531l1.70313 1.76562m-2.6875-1.48046l.85156.8828m13.48437-1.02343l-6.82812 1.65625m6.82812-1.65625l1.62891 1.83203m-2.6211-1.58984l.8125.91797m13.59376-.33204h-7.02735m6.00391 0l.57812 1.08594m13.75391-1.28125l-7.01562.39453m5.99609-.33984l.63672 1.05078m12.83594-3.22265l-5.28907 4.625m5.28907-4.625l2.29296.875m11.1836-.67188l-5.61328 4.22266m4.79687-3.60938l1.11328.51953m12.33203-1.82422l-4.24218 5.60547m18.53125-4.46875l-6.1875 3.32813m19.8711-2.2539l-6.92579 1.18358m5.91797-1.01171l.75.96875m12.92187-2.65625l-5.62109 4.21484m5.6211-4.21484l2.21874 1.03906m-3.03906-.42578l1.11328.51953m12.6836-1.52344l-4.94532 4.99219"/><g clip-path="url(#am)"><path fill="none" stroke="#000" stroke-linecap="round" stroke-linejoin="round" stroke-miterlimit="10" stroke-width=".5" d="M466.03516 318.05078l2.34765.70703"/></g><path fill="none" stroke="#000" stroke-linecap="round" stroke-linejoin="round" stroke-miterlimit="10" stroke-width=".5" d="M465.3164 318.77734l2.34766.70704m-3.07031.01953l1.17578.35546"/><path fill="#ff3030" fill-rule="evenodd" d="M167.01563 458.77344h7.6914V448.625h-7.6914v10.14844"/><path fill="azure" fill-rule="evenodd" d="M168.84766 450.45703h.83203v5.74219h3.19531v.73828h-4.02734v-6.48047"/><path fill="#00f" fill-rule="evenodd" d="M321.66406 449.89453h8.61719V439.75h-8.61719v10.14453"/><path fill="azure" fill-rule="evenodd" d="M323.4961 441.58203h.83202v2.82422h3.28907v-2.82422h.83203v6.48047h-.83203v-2.91797h-3.28906v2.91797h-.83204v-6.48047"/><path fill="#ff3030" fill-rule="evenodd" d="M295.72656 414.38672h7.69531v-10.14453h-7.6953v10.14453"/><path fill="azure" fill-rule="evenodd" d="M297.5586 406.07422h.83593v5.74219h3.1914v.73828h-4.02734v-6.48047"/><path fill="#ff3030" fill-rule="evenodd" d="M202.52344 409.94922h7.6914v-10.14453h-7.6914v10.14453"/><path fill="azure" fill-rule="evenodd" d="M204.35547 401.63672h.83203v5.73828h3.19531v.74219h-4.02734v-6.48047"/><path fill="#ff3030" fill-rule="evenodd" d="M189.20703 383.32031h7.6914v-10.14844h-7.6914v10.14844"/><path fill="azure" fill-rule="evenodd" d="M191.03906 375.00781h.83594v5.73828h3.1914v.7422h-4.02734v-6.48048"/><path fill="#ffffe0" fill-rule="evenodd" d="M332.86719 379.67188h22.17969v-10.19141h-22.1797v10.1914"/><path fill-rule="evenodd" d="M336.36719 371.3125h.50781v6.29297h-.78516v-4.48828h-1.39062v-.55469l.5625-.0664.25-.0547.23047-.08984.20312-.14062.17578-.21094.14063-.29297.10547-.39453m4.8125 0l.23047.01953.21875.05469.20703.08984.19531.1211.1875.14843.16797.17579.30469.41796.24218.4961.1797.54687.11327.57813.03516.58984-.03516.59375-.11328.58594-.17969.55078-.24218.5039-.3047.4297-.16796.17968-.1875.15235-.19531.12109-.20703.09375-.21875.05469-.23047.02343-.23047-.02343-.21875-.0547-.20703-.09374-.19531-.1211-.1836-.15234-.17187-.17969-.30079-.42968-.24609-.50391-.17969-.55078-.10937-.58594-.03906-.59375h.83203l.03125.5625.08203.50781.125.44141.16015.375.19141.30078.21094.22266.22265.13672.22657.04687.22656-.04687.22266-.13672.21093-.22266.19141-.30078.16016-.375.1289-.4414.08203-.50782.02735-.5625-.02735-.5586-.08203-.5039-.1289-.4336-.16016-.36718-.1914-.29297-.21094-.21094-.22266-.1328-.22656-.04298-.22656.04297-.22266.13281-.21094.21094-.1914.29297-.16016.36719-.125.4336-.08203.5039-.03125.5586h-.83203l.03906-.58985.10937-.57813.1797-.54687.24608-.4961.30079-.41796.17187-.17579.1836-.14843.1953-.1211.20704-.08984.21875-.05469.23047-.01953m5.09375 0h.50781v6.29297h-.78906v-4.48828h-1.38672v-.55469l.5586-.0664.2539-.0547.23047-.08984.20312-.14062.17188-.21094.14062-.29297.10938-.39453m2.82031 2.17578h.78906l.01953-.3164.0586-.28907.09765-.25.14063-.21484.1836-.17578.22265-.1289.26562-.07813.3086-.02735.23437.01953.22656.0625.20313.10157.17969.13671.14844.17579.11328.20312.0703.23828.02735.26563-.02344.26562-.0664.22656-.10938.19141-.15625.17188-.19921.16015-.2461.16797-.63672.38672-.53515.3164-.4375.31641-.34766.32422-.26172.33594-.1914.35156-.125.36719-.07032.39453-.01953.41797h4.21094v-.73828h-3.33203l.08203-.28516.11328-.23828.14844-.19922.1875-.17969.23047-.17187.28125-.17578.71484-.41797.41797-.20313.34375-.23437.28125-.25.21875-.26563.16406-.27734.10938-.28516.0664-.28515.01953-.28125-.04296-.38281-.1211-.34766-.1875-.3086-.25-.26171-.30078-.21485-.34766-.15625-.3789-.10156-.40625-.03125-.4375.03125-.39844.09766-.35547.16796-.30469.23438-.24609.30469-.1875.375-.11328.44531-.04297.51953"/><path fill="#ffffe0" fill-rule="evenodd" d="M208.59375 367.4375h22.17969v-10.1914h-22.17969v10.1914"/><path fill-rule="evenodd" d="M212.09375 359.07813h.50781v6.29687h-.78515v-4.49219h-1.39063v-.55469l.5586-.0625.2539-.05468.23047-.08985.20313-.14062.17187-.21094.14453-.29687.10547-.39454m4.8125 0l.23047.01954.21875.05468.20703.08985.19531.1211.1836.14843.17187.17578.30469.42188.24219.49218.17968.54688.10938.57812.03906.59375-.03906.59375-.10938.58203-.17968.5547-.2422.5-.30468.42968-.17187.17969-.1836.15234-.19531.125-.20703.08984-.21875.0586-.23047.01953-.23047-.01953-.21875-.0586-.20703-.08984-.19531-.125-.1836-.15234-.17187-.1797-.30469-.42968-.24219-.5-.17968-.55469-.10938-.58203-.03906-.59375h.83203l.03125.5625.07813.5039.1289.44532.16016.375.1914.30078.21094.21875.22266.13672.22656.04688.22656-.04688.22266-.13672.21094-.21875.1914-.30078.16016-.375.1289-.44531.08204-.5039.02734-.5625-.02734-.5625-.08203-.5-.12891-.4375-.16016-.36329-.1914-.29297-.21094-.21484-.22266-.13281-.22656-.04297-.22656.04297-.22266.1328-.21094.21485-.1914.29297-.16016.36328-.1289.4375-.07813.5-.03125.5625h-.83203l.03906-.59375.10938-.57812.17968-.54688.2422-.49219.30468-.42187.17187-.17578.1836-.14844.19531-.1211.20703-.08984.21875-.05468.23047-.01954m5.08984 0h.51172v6.29688h-.78906v-4.49219h-1.38672v-.55469l.5586-.0625.2539-.05468.22656-.08985.20703-.14062.17188-.21094.14063-.29687.10546-.39454m2.82422 2.17579h.78906l.01954-.31641.05859-.28516.09766-.2539.14062-.21485.1836-.17187.22265-.1289.26563-.08204.30468-.02734.23828.01953.22657.0625.20312.10156.17969.14063.14844.17187.11328.20703.07031.23438.02734.26562-.02343.26953-.0664.22266-.10938.1914-.15625.17188-.19922.16406-.2461.16407-.63672.39062-.53515.3125-.4375.3164-.34766.32423-.26562.33593-.1875.35157-.125.37109-.07031.39063-.01954.42187h4.21094v-.74219h-3.33203l.08203-.28515.11328-.23438.14844-.20312.1875-.1797.23047-.17187.27734-.17578.71875-.41406.41406-.20703.34766-.23047.28125-.25.21875-.26953.16406-.27735.10938-.28515.0664-.28516.01954-.28125-.04297-.38281-.1211-.34766-.1875-.30859-.25-.26172-.30468-.21094-.34375-.16015-.38282-.09766-.40625-.03515-.43359.03515-.39844.09766-.35547.16406-.30468.23828-.2461.30078-.1875.375-.11328.44531-.04297.51954"/><path fill="#ffffe0" fill-rule="evenodd" d="M333.57031 348.04297H355.75v-10.1914h-22.17969v10.1914"/><path fill-rule="evenodd" d="M337.0664 339.6836h.51173v6.29687h-.78907v-4.49219h-1.38672v-.55469l.5586-.0625.2539-.05468.22657-.08985.20312-.14062.17578-.21094.14063-.29297.10547-.39844m4.8164 0l.22656.01954.21875.05468.21094.08985.19531.12109.1836.15234.17187.17579.30079.41796.24218.4922.1836.54687.10937.57812.03906.59375-.03906.59375-.10937.58203-.1836.55469-.24219.5-.30078.42969-.17187.17969-.1836.15234-.1953.125-.21094.08984-.21875.0586-.22657.01953-.23047-.01953-.21875-.0586-.20703-.08984-.19922-.125-.18359-.15235-.17188-.17968-.30078-.42969-.24218-.5-.1797-.55469-.11327-.58203-.03906-.59375h.83593l.02735.5625.08203.5039.125.44532.16406.375.1914.30078.21094.21875.22266.13672.22656.04688.22656-.04688.22266-.13672.21094-.21875.1875-.30078.16406-.375.125-.44531.08203-.5039.03125-.5625-.03125-.5625-.08203-.5-.125-.4336-.16406-.36719-.1875-.29297-.21094-.21484-.22265-.1289-.22657-.04688-.22656.04687-.22266.1289-.21093.21485-.19141.29297-.16406.36719-.125.4336-.08203.5-.02735.5625h-.83594l.03907-.59376.11328-.57812.17969-.54688.24218-.49219.30079-.41796.17187-.17579.1836-.15234.19921-.1211.20703-.08984.21875-.05469.23047-.01953m5.08985 0h.5078v6.29688h-.78515v-4.49219h-1.39062v-.55469l.5625-.0625.25-.05468.23047-.08985.20312-.14062.17578-.21094.14063-.29297.10547-.39844m6.80468 1.6211h-.78906l-.05078-.21094-.08203-.1875-.10547-.16016-.1289-.1289-.14844-.10547-.16016-.07422-.16797-.04297-.17187-.01562-.32813.03906-.28906.1211-.2461.1953-.20312.26954-.16016.33984-.11328.40234-.07031.46875-.02734.52344.1914-.19922.1875-.16015.1836-.125.1875-.08594.1875-.0625.1914-.03516.39844-.02344.3086.02735.3203.09375.31641.15625.29297.21875.25781.28515.19922.35157.07031.19922.0547.21875.02734.23437.0039.25-.78515.04688-.02735-.25782-.07812-.2539-.1211-.23438-.16015-.21094-.19531-.17578-.21875-.13671-.23829-.08985-.2578-.03125-.25392.03125-.24218.08985-.21875.13671-.1914.17579-.16017.21093-.125.23438-.07812.2539-.02734.25782.02734.2578.07813.25.125.23438.16015.21094.1914.17969.21876.13672.24219.08594.2539.03125.25781-.03125.23829-.08594.21875-.13672.1953-.17969.16016-.21094.1211-.23437.07812-.25.02735-.25781.78515-.04688-.02734.3711-.09375.37109-.15625.35937-.22266.32813-.29297.28125-.16796.1211-.1875.10156-.20704.08203-.22265.0625-.24219.03906-.26172.01172-.28125-.01563-.26172-.04687-.23828-.07813-.21484-.10547-.19531-.1289-.17188-.15625-.15625-.17969-.13281-.20313-.11719-.22265-.10156-.24219-.14453-.53515-.08594-.59375-.02735-.64063.03907-.74219.11328-.66406.1875-.57813.1211-.2539.13671-.23047.15235-.20703.17187-.1836.1836-.15234.20312-.1289.21875-.10547.23047-.07032.25-.04687.26172-.01563.36328.03516.33594.09375.29296.15234.25782.19922.21093.24219.16407.27344.11718.30469.0625.3203"/><path fill="#ffffe0" fill-rule="evenodd" d="M155.33203 324.6875h22.17969v-10.1914h-22.17969v10.1914"/><path fill-rule="evenodd" d="M158.83203 316.32813h.50781v6.29687h-.78515v-4.49219h-1.38672v-.55469l.5586-.0664.25-.05078.23046-.08985.20313-.14062.17578-.21094.14062-.29687.10547-.39454m4.8125 0l.23047.01954.21875.05468.20703.08985.19922.1211.1836.14843.17187.17578.30078.42188.24219.49218.17969.54688.11328.57812.03906.59375-.03906.58985-.11328.58593-.1797.5547-.24218.5-.30078.42968-.17188.17969-.18359.15234-.19922.125-.20703.08984-.21875.0586-.23047.01953-.22656-.01953-.21875-.0586-.21094-.08984-.19531-.125-.1836-.15234-.17187-.1797-.30078-.42968-.24219-.5-.17969-.55469-.11328-.58593-.03906-.58985h.83203l.03125.5625.08203.5039.125.44532.16406.3711.1875.30078.21094.22265.22266.13672.22656.04688.22656-.04688.22266-.13672.21094-.22265.1914-.30079.16407-.37109.125-.44531.08203-.5039.02734-.5625-.02734-.5625-.08203-.5-.125-.4375-.16407-.36329-.1914-.29297-.21094-.21484-.22266-.13281-.22656-.04297-.22656.04297-.22266.1328-.21094.21485-.1875.29297-.16406.36328-.125.4375-.08203.5-.03125.5625h-.83203l.03906-.59375.11328-.57812.1797-.54688.24218-.49219.30078-.42187.17188-.17578.18359-.14844.19531-.1211.21094-.08984.21875-.05468.22656-.01954m5.09375 0h.50781v6.29688h-.78515v-4.49219h-1.39063v-.55469l.5625-.0664.25-.05078.23047-.08985.20313-.14062.17187-.21094.14453-.29687.10547-.39454m6.80469 1.6211h-.78906l-.05078-.21485-.08204-.18359-.10547-.16015-.1328-.12891-.14454-.10547-.16016-.07422-.16796-.04297-.17188-.01562-.32812.03906-.28907.1211-.24609.1953-.20313.26954-.16015.33594-.11719.40625-.07031.46484-.02344.52734.1914-.20312.1836-.16016.1875-.1211.1836-.08593.1875-.0625.1914-.03516.40234-.02734.3086.03125.32031.09375.3164.15625.29298.21875.2578.28516.19532.34765.07422.20313.05078.21484.03125.23438.0039.2539-.78515.04688-.02734-.26172-.07813-.25-.1211-.23438-.16405-.21093-.19141-.17579-.21875-.13671-.24219-.08985-.2539-.03125-.25391.03125-.24219.08985-.21875.13671-.19531.17579-.16016.21093-.12109.23438-.07813.25-.02734.26172.02734.25781.07813.25.1211.23438.16015.21093.19531.17969.21875.13672.24219.08594.2539.03125.25391-.03125.24219-.08594.21875-.13672.1914-.17969.16407-.21094.1211-.23437.07812-.25.02734-.25781.78516-.04688-.03125.3711-.08985.37109-.16015.35938-.22266.32812-.28906.28125-.17188.1211-.1875.10156-.20312.08203-.22656.0625-.2422.03515-.2578.01563-.28516-.01563-.25781-.04687-.23828-.07813-.21485-.10546-.19531-.12891-.17578-.15625-.15234-.17969-.13672-.20312-.1172-.22266-.09765-.24219-.14844-.53515-.08203-.59375-.02734-.64063.03906-.74219.11328-.66406.1875-.57812.1172-.25391.13671-.23047.15625-.20703.16797-.1836.1875-.15624.20312-.12891.21875-.10156.23047-.07422.2461-.04297.26562-.01563.36328.03516.33203.09375.29688.15235.2539.19921.21485.2422.16406.27343.11719.30078.0625.32422"/></g></defs><use xlink:href="#an"/></svg>