<svg xmlns="http://www.w3.org/2000/svg" role="img" xmlns:xlink="http://www.w3.org/1999/xlink" viewBox="142.45 309.95 326.84 171.84"><defs><clipPath id="a"><path d="M144 311.67188h1v168.65625h-1zm0 0"/></clipPath><clipPath id="b"><path d="M144 311.67188h324v168.65625H144zm0 0"/></clipPath><clipPath id="c"><path d="M393 476h11v4.32813h-11zm0 0"/></clipPath><clipPath id="d"><path d="M395 478h5v2.32813h-5zm0 0"/></clipPath><clipPath id="e"><path d="M418 477h10v3.32813h-10zm0 0"/></clipPath><clipPath id="f"><path d="M422 479h3v1.32813h-3zm0 0"/></clipPath><clipPath id="g"><path d="M467 311.67188h1v168.65625h-1zm0 0"/></clipPath><clipPath id="h"><path d="M144 479h4v1.32813h-4zm0 0"/></clipPath><clipPath id="i"><path d="M147 480h2v.32813h-2zm0 0"/></clipPath><clipPath id="j"><path d="M153 479h9v1.32813h-9zm0 0"/></clipPath><clipPath id="k"><path d="M160 480h3v.32813h-3zm0 0"/></clipPath><clipPath id="l"><path d="M166 479h9v1.32813h-9zm0 0"/></clipPath><clipPath id="m"><path d="M173 479h3v1.32813h-3zm0 0"/></clipPath><clipPath id="n"><path d="M180 479h8v1.32813h-8zm0 0"/></clipPath><clipPath id="o"><path d="M187 479h3v1.32813h-3zm0 0"/></clipPath><clipPath id="p"><path d="M193 478h8v2.32813h-8zm0 0"/></clipPath><clipPath id="q"><path d="M200 478h3v2.32813h-3zm0 0"/></clipPath><clipPath id="r"><path d="M207 478h7v2.32813h-7zm0 0"/></clipPath><clipPath id="s"><path d="M213 478h3v2.32813h-3zm0 0"/></clipPath><clipPath id="t"><path d="M220 478h8v2.32813h-8zm0 0"/></clipPath><clipPath id="u"><path d="M234 477h6v3.32813h-6zm0 0"/></clipPath><clipPath id="v"><path d="M248 477h5v3.32813h-5zm0 0"/></clipPath><clipPath id="w"><path d="M261 477h6v3.32813h-6zm0 0"/></clipPath><clipPath id="x"><path d="M274 477h6v3.32813h-6zm0 0"/></clipPath><clipPath id="y"><path d="M287 477h7v3.32813h-7zm0 0"/></clipPath><clipPath id="z"><path d="M301 477h6v3.32813h-6zm0 0"/></clipPath><clipPath id="A"><path d="M316 476h3v4.32813h-3zm0 0"/></clipPath><clipPath id="B"><path d="M329 476h3v4.32813h-3zm0 0"/></clipPath><clipPath id="C"><path d="M343 476h2v4.32813h-2zm0 0"/></clipPath><clipPath id="D"><path d="M355 476h4v4.32813h-4zm0 0"/></clipPath><clipPath id="E"><path d="M368 477h5v3.32813h-5zm0 0"/></clipPath><clipPath id="F"><path d="M382 476h4v4.32813h-4zm0 0"/></clipPath><clipPath id="G"><path d="M395 476h4v4.32813h-4zm0 0"/></clipPath><clipPath id="H"><path d="M409 476h2v4.32813h-2zm0 0"/></clipPath><clipPath id="I"><path d="M421 477h5v3.32813h-5zm0 0"/></clipPath><clipPath id="J"><path d="M434 477h6v3.32813h-6zm0 0"/></clipPath><clipPath id="K"><path d="M447 477h7v3.32813h-7zm0 0"/></clipPath><clipPath id="L"><path d="M459 478h9v2.32813h-9zm0 0"/></clipPath><clipPath id="M"><path d="M466 478h2v2.32813h-2zm0 0"/></clipPath><clipPath id="N"><path d="M144 466h4v2h-4zm0 0"/></clipPath><clipPath id="O"><path d="M466 466h2v3h-2zm0 0"/></clipPath><clipPath id="P"><path d="M144 453h4v1h-4zm0 0"/></clipPath><clipPath id="Q"><path d="M466 451h2v3h-2zm0 0"/></clipPath><clipPath id="R"><path d="M144 439h4v2h-4zm0 0"/></clipPath><clipPath id="S"><path d="M466 439h2v3h-2zm0 0"/></clipPath><clipPath id="T"><path d="M144 426h4v2h-4zm0 0"/></clipPath><clipPath id="U"><path d="M465 424h3v2h-3zm0 0"/></clipPath><clipPath id="V"><path d="M144 412h4v3h-4zm0 0"/></clipPath><clipPath id="W"><path d="M465 410h3v2h-3zm0 0"/></clipPath><clipPath id="X"><path d="M144 399h4v3h-4zm0 0"/></clipPath><clipPath id="Y"><path d="M466 397h2v3h-2zm0 0"/></clipPath><clipPath id="Z"><path d="M465 398h3v3h-3zm0 0"/></clipPath><clipPath id="aa"><path d="M144 385h4v4h-4zm0 0"/></clipPath><clipPath id="ab"><path d="M466 385h2v3h-2zm0 0"/></clipPath><clipPath id="ac"><path d="M144 372h4v4h-4zm0 0"/></clipPath><clipPath id="ad"><path d="M466 372h2v3h-2zm0 0"/></clipPath><clipPath id="ae"><path d="M144 358h4v5h-4zm0 0"/></clipPath><clipPath id="af"><path d="M466 358h2v3h-2zm0 0"/></clipPath><clipPath id="ag"><path d="M144 346h4v2h-4zm0 0"/></clipPath><clipPath id="ah"><path d="M466 346h2v3h-2zm0 0"/></clipPath><clipPath id="ai"><path d="M144 333h4v2h-4zm0 0"/></clipPath><clipPath id="aj"><path d="M466 332h2v3h-2zm0 0"/></clipPath><clipPath id="ak"><path d="M144 320h4v1h-4zm0 0"/></clipPath><clipPath id="al"><path d="M466 318h2v2h-2zm0 0"/></clipPath><clipPath id="am"><path d="M465 318h3v3h-3zm0 0"/></clipPath><g id="an" clip-path="url(#clip1)"><path fill="#fff" fill-opacity="0" fill-rule="evenodd" d="M0 0h1000v1000H0zm0 0"/><path fill="#d3d3d3" fill-opacity="0" fill-rule="evenodd" d="M162.15234 355.86719l-.23437.29297.0586.23437.11718.17188.17578.23437.29297.34766.11328.0586.11719-.17188.0586-.23438.17577-.17578.46485-.17578h.69922l.23437.29297.28906.8164.0586.17579.17578.23046.35156.23438.69922.69922.17188.17578.23437.34765.23438.41016.28906.58203.41015.46485.23047.23437.23438.17578.11719.23047.17578.29297.17187 1.16406v.23438l.0586.28906.05859.11719.11719.11719.34765.41015.11719.17188.17578.17578.17578.23437.11719.17188.17188.35156.05859.23438.23437.40625.23438-.0586-.17578.17578-.0586.92969h-.58203l-.23437-.11328-.34766.11328-.11719.11719-.05859.29297-.0586.17578-.11718.17187-.46484.29297-.0586.23438-.0586.11328v.64453l.0586.17187v.41016l.0586.0586v.40624l.05859.40625.11719.17579.05859.05859.23047.64062-.0586.29297v.69922l-.05859.58203v.23438l-.0586.23047-.05468.35156v1.92187l.05469.1172h.42578l-.36719.11718-.02344.35156.89063 1.16797 1.74219.53906 1.33984.35938v.53906l.08984.8086.53516.71484 1.51953.26953.89063-.08594.08984 1.16406.53516.1797 1.16015-.1797 2.05469-.98437 1.16016-.36328 1.8789-.17578 1.69531-.1797-.17968.71876-1.51563.08594-1.25.08984-.80469.26953-1.07421.8086.26953.71875.53515.89843-.17968.625-.26563.8086.26563 1.07812.625.89844.80468.17969 1.25-.1797-.26562.72267.09766.5039.05468.29297v.17188l.0586.29296v.40625l.17578.1172.35156.11718h.40625l.29297-.17578.11328-.11719.0586-.11719.11718-.23047.0586-.17578.35156-.46484.23047-.17578.17578-.0586.17578.0586.0586.17578.11718.98828.05469.46875.0586.17188.11718.23437.17578.0586.8164.05859h.28907l.11719.23437.05859.40625.0586.35156v1.10547l.11718.29297.11719.34766.28906.69922.17578.35156.58203.7539.35157.17579.17187.0586.46875.23437.64063.46484.34765.23438.29297.17578.29297.05468.23047.0625.8164.34766.29297.17578.11328.17188.35157.35156.11719.17578.52343.64063v.28906l.0586.35156v.34766l.05859.35156.0586.28906.11718.0586.17188.05859h.17578l.58203.23437.17578.1172.17578.28905.17578.23438.11328.23437.29297.23047.11719.11719v.41016l.0586.05468.28906.23438.23437.11719.0586.11718.11718.17188.0586.11719.23047.23437.05859.17578.23437.0586.1172.05859-.1172.11328-.05859.11719v.11719l-.11719.29296-.11719.28907v.58203l.17579.11719.11718.05859.0586.11719.11719.11719.11328.05859.17578.34765.0586.35157.05858.40625v.17578l-.05859.17578-.11719.69922v.17187l.1172.17579.29296.29296h.40625l.17578.1172.11719.17187.11719.29296v.23438h-.52735l-.23047-.23438h-.23437l-.17578.0586-.0586.69922.0586.34765.11719.17579.17578.41015.11718.23047.28907.46875.17578.05469h.52344l.23437.0586.75781.64062.0586.29296v.23438l.05859.0586.23047.34765v.35156l-.11719.17188v.29297l.29297.28906.29297.17578.17187.0586.29297.17577.29297.1172.58203.40624.28906.23438.29297.17578.21875.16015.01563.01172.23047.17579.64062.52343.17578.23438.1172.17578.17577.17578.11328.17188v.64062l.1172.17578.46874.11719.58203.11719.23438.05859.23047.11328.29297.11719.11328.0586.58593.35156.28907.17187.17578.0625.17578.05469.17578.0586.69922.35155.28906.17579.23438.05468.28906.17578.23437.1172.64063.40624.29297.11719.17187.0586.23438.05859.41015.05859.23047.0586.23438.11718.0586.17188-.41017.17578.46875.0586.0586.29296.11328.23438.17578.05468.23438.0586.17578.05859.40625.11719.64062.23437.11719.17188.0586.23437v.17578l-.0586.1172-.0586.40624.23438.23438.11719.05859.34766.11719.64062.23047.17578.11718.28906.1172.17578.17577.23438.46485.58203 1.10546.17578.17579.34766.17578.17578.11719.35156.11718 1.04688.52344.23437.0586.46485.11327.29297.0586.46484.17578.75781.58203.23438.23438.34765.46484.17578.17578.28907.23438.8164.69921.29297.17579.28906.28906.29297.17578.29297.28906.69531.64063.17578.17578.29297.23437.28907.23438.46875.28906.64062.58203.34766.23438.23437.29297.34766.34765.35156.46485.9336.99218.34765.40625.11719.17579.23437.05859.11328.11719.64454.17578.23047.11328.23437.0586.29297.17577.23047.1172.9336.69921.40624.40625.23438.17578.40625.17578.23437.11719.8164.34766.34766.23437.23438.11719.29297.28906.23047.11719.7578.35156.35157.17188.23047.05859.29297.11719.23437.0586.8711.17577h.8164l.46875.23047.17188.0586.875.69921.46484.1172.29297.05858.17578.0586.23047.0586.46875.05859.34766.05859.35156.0586.40625.05859h.29297l.17187.0586v.23046l.17578.17578h.29297l.34766.0586.35156.05859.69922.11719h.64063l.46484-.23438.29297-.17578.17187-.11719.41016-.17187.28906-.17578.9336-.46485.46875-.29297.52343-.29296.46485-.17188.46484-.17578 1.05078-.46485.28906-.11718.41016-.11719.28906-.11719.52735-.17578 1.51562-.69922.58203-.34765.28907-.0586.29297-.0586.34765-.11718.875-.23047.35156-.11719h.11329l.23437-.05859.875-.23437.23438-.0586h.8125l.35156-.0586.8164-.11718.17188-.0586.35156-.05468.29297-.0586.23047-.05859.8164-.17578.17579-.0586h.34765l.23438-.05859.46484-.11718.75781-.17188.23438-.0586h.34765l.41016-.11718.28906-.0586 1.28516-.05859h.28906l.41016-.0586.23047-.05858h.17578l.875-.1172h.40625l.41015-.11718h.34766l.35156-.11328.8711-.0586h1.75l1.04687.28907.41016.11719.28906.11718.35156.11719.28907.11719 1.05078.17187.28906.0586h.29297l.29297.05859.17187.0586.41016.05859.17187.0586.1172.05858h.11718l.11719.0586.35156.0586h.11328l.41016.0664 1.92187.39453 1.92578.39453 1.51953.44922 1.69532.71875 2.14453.80469 1.60547-.71875 1.42968-.80469 1.16016-1.07813 1.25-.44921 3.03516-.71875 1.875-.35938 2.14453-1.34765 2.23437-1.25391 2.5-1.25781 1.69531-.44922 1.78516-.17969 1.16016-.26953.625.53906 1.33984-.26953.71485-.98828.98437-1.34375.44531-.17969.80469-.35937 1.875-.53907 1.78516-.44921 1.25-.26954 1.16015-.08984 1.69922-.08984 1.96094-.26954 1.25-.08984h.53906l.625-.08984h.89063l2.14453-.17969 2.41015-.17969 2.58985-.08984 1.69531.17969 1.60938.08984 1.42968.35938 1.16016.71875 1.875.98828 1.16015 1.52734.26563.71484.6289.08985.35548.89844.53515.53906.53516 1.52734 1.07422.35938h.53515l-.80469.53515.08985 1.70703.71484 2.69532.89063.80468.89453.98829.71484 1.2578 1.78516.53907 1.51953-.17969.35547 1.34375 1.60937-.80469.98047-.53906.26953.26953.31641-.21484.21875-.14453.80078.44922.44922-.35938h.35547l.53515-.26953.53907-.71875.53515-.26953.625-.98828 1.16016.44922.83984.3711 1.39454.61718 1.6953-.17969h1.60548l1.78515.08985.17969-1.70704.53516-1.34375.80468.26954.4922.84765.40233.40625-.08984.53906v.35938l.71485.44922.71093-.26953h1.42969l.35938.98828.4453 1.25781.71485 1.34375 1.25.6289 1.69531.62891.71485-.17969.17969-.53906.98046-.08984.44922.35937.08594 1.25782-.26563.6289-.53515.17969v.53906l.71484.98438.26563.53906.98437.98828.80078 1.07813-.26562.35937-.08985.89844-.625 2.33203-.35546 2.0664-.08985 1.79298-.17969.71875-.08984.53906v1.4375l-.98047 1.88281-.35937 1.70703-.53516.89844-.80469 1.16797-.26562.53906 2.05469 1.2539.08593.35938-.35546.53906-.08985-.17968v.80859l.08985 1.4375-.44532.71484-1.07422.09375-.26562.71485.53515.89844.8047.71875 1.16015.80859 1.33984.26953.44531.35938-.35546.44921-1.78907-.08984-1.25-.44922-.71484-.71875-.625-.08984-.17578 3.58984-.1875 1.3086h89.35937V311.70313h-55.26953v49.08203l.76172.125 3.28906.54296 2.02344 2.83594v2.7539l2.35156.33204 2.34766.33203h4.05078l-1.3789 4.16016-2.02344.70703-2.02344.70312-.54297.34375-2.59375 1.6172-.1875.11718-2.02344-2.07813-.73046-2.74218-2.67188-2.07813-1.375-3.5-.0664-.08203-1.95704-2.67188 2.75-1.41796v-49.08204H294.42187v91.41407l.1172.03125.1328.01172.07422.07421.10547.04688.08985.0586.08593.05859.08985.0586.29687.29687.0586.08984.03125.11719.02734.11719.01563.13671-.03125.1172-.0586.08983-.0586.08594-.04296.10547-.04688.10156-.02734.1211v.14453l.17578.26953.14844.14844.07422.08594.07422.07421.04296.10547.0625.08985.0586.08593.04297.10547.0586.08985.04687.10156.04296.10547.0586.08594.11719.17968.07421.07422.0625.08594.0586.08984.04297.10547.0586.08985.05858.08593.0625.08985.0586.08984.04297.10156.11719.17969.07421.07422.0586.08594.07422.07421.08984.0586.10547.04687h.14844l.1328-.01562.13282.01562.10156-.04687.07422-.07422.04688-.10156-.01563-.13281v-.14844l-.04687-.10547-.02735-.11719-.04687-.10156-.02735-.1211-.04296-.10156-.0625-.08984-.04297-.10156-.04297-.10547-.03125-.11719-.01563-.13281-.01171-.13672.08593-.0586.0586-.08593.12109-.03125.04297.10547.01562.1328v.1172l.0586.10156.0586.08984.08983.0586.14844.14843.0586.08985.04296.10547-.01171.10156.08593.0586.10547.04687.08594.0586.08984.05858.07422.07422-.11719.02735-.10546.04687-.08594.0586-.07422.07421-.0586.08985-.0625.08594-.02734.12109-.04687.10156-.04297.10547-.03125.11719-.01172.13281-.01563.13281v.14844l.02735.11719.04687.10547.04297.10156.0586.08984.07421.07422.08985.0586.07422.07421.08984.0586.0586.08984.04296.10547.04688.10156.11719.03125.1328.01563h.14845l.11718-.03125.10547.04297.04297.10547.04688.10156.02734.1211L299.5 410l.02734.11719.03125.1211.02735.11718.10547.04297.10156.04687.13281-.01562.14844.14844.0625.08593.07422.07422.07031.07422.08984.0625.10547.04297.10156.04297.1172.03125.13671.01562.11719-.03125.07422-.07422.02734-.11718-.01172-.13282-.03125-.12109-.02734-.11719.04297-.10547h.11719l.08984.0625.11719.02735h.14843l.13282.01562h.14843l.13282.01563.1328-.01563h.14845l.1328-.01562.13282-.01172.13672.01172.11719-.02735.13281-.01562.1914-.0586-.05859.17579-.01562.1328-.02735.1211-.01562.13281-.0586.08594-.1328.01563-.10548.04687-.10546.04297-.1172.03125-.11718.02735-.26563.03125h-.14843l-.13281.01562-.07422.07422.05859.08594.14844.14843.11719.1797.07421.0703.08985.0625.08984.0586.08594.0586.08984.05858.10156.04297.10547.0625.10547.04297.08594.0586.10547.04687.10156.04297.17969.11719.0586.08984-.04298.10156-.04687.10547.01562.13281.22266.22266.0586.08985.04296.10156.03125.1211.04297.10155.01563.13282.03125.11718.01171.13672.03125.11719.14844.14844.10156.04297.10547.04296.1172.03125.1328.01563.13672.01563h.11719l.11719-.03125.08984-.0586.04297-.10547.04688-.10156.04296-.10547.03125-.11719.01172-.1328v-.14845l-.01172-.1328-.01562-.13282-.03125-.11719-.04297-.10547-.04688-.10547-.04296-.10156-.04297-.10547-.01563-.13281.01563-.13281.02734-.11719.03125-.11719.02735-.1211.04687-.10155.08984-.0586.08594-.0625.07422-.07422.08984-.05859.22266-.22266.0586-.08593.07421-.07422.11719-.17969.0586-.08594v-.14844l-.07423-.07421-.10156-.04688-.10547-.04297-.10156-.04297-.0586-.08984-.04687-.10547-.02734-.11719.08984-.05859.11719-.03125.10156-.04297.17969-.11719.14844-.14843.01172-.13282-.01172-.10546-.08985-.0586-.1328.01563h-.14845l-.1328.01562-.13282-.01562-.1211-.03125-.08593-.0586-.07422-.07422-.0586-.08984-.0625-.08594-.11718-.17969-.0586-.08593.03125-.1211.08594-.05859.1211-.03125.05859-.08594v-.1211l-.03125-.11718-.0586-.08984-.05859-.08594-.04687-.10547-.02735-.11719-.01562-.1328.0586-.08985.07421-.07422.08984-.0586.1172-.17968.07421-.07422.0586-.08594.14843-.14844.1211-.03125.1328-.01562.13282.01562.07422.07422.04297.10547.01562.13281-.03125.1172-.11719.03124-.1328.01172-.14844.14844-.04297.10547-.04688.10156-.02734.1211-.03125.11718v.14844l.03125.11719.04297.10546.05859.08985.07422.07031.07422.07422.11719.03125.12109.02734.11719-.02734.1328-.01563h.1172l.08984.0586.07422.07422.04687.10546.0586.08594.10156.04688.13281.01562.10547.04297.08594.0586-.01172.10546-.07422.07422-.17969.11719-.05859.08984-.08984.0586-.07032.07422-.07421.07421-.0625.08985-.02735.11719-.01562.1328.01562.13282-.01562.13281v.14844l.01562.13281.02735.1172.03125.12108.07421.07422.08985.0586.08594.0586.08984.05858.11719.03125v.08594l-.10157.04688-.08984.0586-.26563.03124-.11718.02735h-.14844l-.10547.04296-.10156.04688-.0586.08984-.0625.23438-.01171.13281-.03125.1211-.01563.1328v.29298l-.01172.1328.01172.13673.01563.1328.1328.01563.13282.01172.1211.03125.08593.0586.07422.07421.04688.10547.04296.10157.01563.1328v.44532l-.01563.13281v.44532l.03125.26562.02735.11719.01562.13281.03125.11719.08594.21094.03125.26562v.14844l-.03125.11719-.02734.11718-.03125.1211-.02735.11719-.03125.11718-.03125.1211-.01171.1328-.01563.13282.08984.0586.1172-.03125.10155.01562.04688.10547-.03125.26562v.44141l-.04297.10547-.04688.10547-.04296.10156-.04297.10547-.0586.08594-.03125.12109-.04296.11719-.03125.11719-.01563.1328.01563.13282.05859.08984.10547.04688.08594.0586.05859.08593-.01172.13672-.03125.11719-.04297.10156v.44531l-.01562.13281v.14844l-.03125.11719-.04297.10547-.02735.11719-.04687.10546-.04297.10157-.03125.12109-.02734.11719-.03125.13281-.03125.11719-.02735.11719-.04297.10546-.03125.1172-.03125.12108-.01171.13282-.01563.13281v.29688l.02734.11718v.14844l.04688.39844.02734.11719.0586.08984.12109.03125h.14844l.13281-.01563.0586.08985v.11719l-.0586.08984-.08984.0586-.10157.04296-.10546.04688-.08985.05859-.08594.0586-.13671.01562-.1172-.03125-.1328-.01563-.10157.04688-.0625.08594-.01172.13671-.01562.13282-.03125.11719-.02735.11718-.01562.13281-.03125.1211v.29687l.01563.13282.03125.11718v.14844l.01171.13281v.14844l-.02734.11719-.04688.10156-.02734.1211-.03125.11718-.0586.08985-.07421.07421-.10156.04297-.10547.04688-.11719.02734-.1211.03125-.10156-.04687.0586-.08594.10547-.04688.02734-.11718.03125-.11719.02734-.1211.03125-.11718v-.14844l.01563-.13281-.03125-.11719-.04297-.10547-.10547.01563-.07422.07422-.10156.04296-.08984.0625-.07422.07422-.04297.10157-.01563.1328-.03125.1172L304.25 426l-.03125.11719-.02734.11719-.03125.12109-.02735.11719-.03125.11718-.04297.10547-.08984.0586h-.08984l-.1172-.03125-.03124-.08594.01562-.13672-.03125-.11719v-.14844l-.01171-.1328v-.14844l-.0625-.23438-.02735-.1211-.04297-.10156-.04687-.10546-.0586-.08594-.05859-.08985-.04297-.10546-.0625-.08594-.14844-.14844-.0703-.07422-.10548-.04687-.10547-.04297-.10156-.04297-.29687-.29688-.08985-.07421-.08594-.0586-.10546-.04297-.08985-.0625-.08594-.0586-.10546-.04296-.08985-.0586-.08594-.0625-.07421-.0703-.10547-.04688-.08594-.0586-.10547-.04296-.08984-.0625-.10156-.04297-.10547-.04297-.08594-.0586-.10547-.04687-.10547-.04297-.10156-.04687-.08985-.0586-.10156-.04297-.10547-.04296-.08984-.0625-.11719-.02735-.13281-.01562-.13281.01562H299.75l-.13281.01563-.11719-.03125-.08984-.0586-.07422-.07422-.08985-.05859-.10156-.04688h-.14844l-.12109-.02734-.10156-.04297-.07422-.07422-.11719-.17968-.08984-.0586-.10156-.04297-.08985-.0625-.10547-.04296-.08984-.0586-.08594-.0586-.10547-.04687-.0586-.08594-.05858-.08984-.04297-.10547-.04688-.10156-.07422-.07422-.08594-.0586-.07421-.07421-.08985-.0586-.22265-.22265-.04297-.10547-.03125-.26563.10547-.04296h.14453l.10547.04296.07421.07422.08985.0586.08594.0586.10546.04687.08985.05859.14844.14844.0703.07422.14845.14843.0625.08594.07421.07422.08594.0586.07422.07421.08985.0625.08984.0586.08594.05859.26953.17578.10156.04688.10547.04296.10156.04297.04688-.07421.05859-.08594.07422-.07422.07031-.07422.10547.04297.07422.07422.0586.08984.04296.10156.04688.10547.04296.10547.1211.02735.11719-.02735.07421-.08984.04297-.10547.0586-.08985.07422-.07421.10546-.04297.1172-.02735.1328.01172.08985.0586.14844.14843.05859.08985.04297.10547.04687.10156.04297.10547.04297.10156.10547.04688.10547.04296.13281.01563.08594-.0586.0586-.08984.07421-.07422.10547-.04297.11719.02735.10547.04687.10156.04297.10547.04297.10156.04688.17969.11718v.11719l-.01563.13281.01563.13281.01562.13672.0586.08594.10156.04688.1211.02734.11718.03125h.14844l.11719-.03125.05859-.08984.17969-.1172.05859-.08983.07422-.07422.0586-.08594.11718-.17969.17969-.11719.11719.03125.08984.0586.04297.07422-.01563.1328v.1172l.08985.05859h.14843l.13282-.01563.1328-.01171.26563-.03125.10547-.04297.11719-.03125.1211-.02735.07421-.07421.07031-.07422.0625-.08985-.01562-.10547-.04688-.10156-.10156-.04297-.10547-.01562-.11718.02734-.26563.03125h-.14844l-.07421-.07422-.08985-.0586-.11719-.03124-.11718-.02735-.13282-.01562h-.14843l-.13282.01563h-.29687l-.10547-.04688-.14844-.14844-.04297-.10156-.05859-.08984.22266-.22266.08593-.0586.10547-.04296.11719-.03125.13281-.01563.13281.01563.13672.01562.10157.04297.1328-.01172.08985-.0625.10156-.04297.0625-.08984-.04687-.10156-.08984-.0586-.1172-.03125-.10155-.04296-.0586-.08985-.0625-.08984v-.11719l.01563-.13281.10547-.04688.07421-.07031v-.1211l-.08984-.05859-.03125-.11719.08985-.05859.07421-.07422.04297-.10547.0586-.08984.04687-.10156.01563-.13281v-.14844l-.04688-.10547-.04297-.10156-.08984-.0586-.13281-.01562-.10157-.04297-.13671-.01563-.1172-.03125h-.4453l-.13282-.01562-.13281-.01172-.13281-.01563-.11719-.03125h-.14844l-.13281-.01562-.13281-.01172-.26563-.03125-.1211-.04297-.08593-.0586-.07422-.07421v-.14844l.01172-.13281.10547-.04688.10156-.04296.13281-.01563h.15235l.13281-.01562h.29297l.1211.03125.10156.04296.08984.0586.23438.0625.12109-.04688.08984-.05859.10156-.04297.13282-.01562.10547.04296.10156.04688.13281.01172.1211-.02735h.14453l.12109-.03125.11719-.02734.10547-.04687.07421-.07422.08594-.0586.14844-.14843.0586-.08594.04687-.10547.02734-.11719.01563-.10547-.10156-.04296-.08985-.0586-.11719-.03125-.10546-.04297-.08985-.0625-.07422-.08594-.07422-.07421-.10156-.04297-.10547-.04688-.10156-.04297-.0586-.08984-.04687-.10156-.08594-.21094-.0625-.08594-.05859-.08984-.07422-.07422-.08594-.0586h-.26953l-.11719.03126-.08984.05859-.10156.04297-.13281.01562-.10547-.01562-.02735-.11719-.0625-.08984-.11718-.03125-.10157-.04297-.14843-.14844-.03125-.11719-.01563-.10546.07422-.07422.17969-.1172.11719-.02733.11718-.03125.13672.01562.10156.04297.10547.04297.10156.04687.10547.04297.1172.03125.1328.01563.1172.02734.1328.01563.10547-.01563.08985-.0586-.07422-.07421-.10547-.04297-.07422-.07422-.07422-.08984-.14844-.14844-.08593-.0586-.08985-.05859-.07422-.07422-.08984-.0586-.10156-.04687-.1211-.02734-.10156-.04688-.10547-.04296-.11719-.03125-.10156-.04297-.1211-.03125h-.14843l-.11719.03125-.10546.04297-.08594.0625-.17969.11718-.08594.0586-.08984.0586-.10547.04687-.08594.05859-.10547.04297-.10156.04297-.10547.04687-.07422.07422-.05859.08985-.0586.08593-.04687.10547-.0586.08594-.07421.07422-.13281-.01172-.1172-.03125h-.11718l-.07422.07422-.08984.0586-.07422.07421-.08984.0586-.08594.05859-.10547.04687-.10156.04297-.13672.01563-.10156-.04297-.14844-.14844-.10547-.04688h-.08594l-.10547.04688-.10156.04297-.1211.03125-.11718-.03125-.07422-.07422v-.11719l.03125-.1211.07422-.0703.0586-.08985.07421-.07422.11719-.03125.10547-.04296h.29297l.13281-.01563.13672-.01563.10156-.04296.08985-.0586.10156-.04687.08984-.0586.13281-.01171.08985.05859.13281.01172.08984-.0586.08594-.05859.10547-.04297.08984-.0586.08594-.0625.08985-.05859.14843-.14843.0586-.08594.05859-.08985.10547-.04296.13281-.01563.11719.02735.1211.03125.05859-.0586.05859-.08984.03125-.26563.02734-.11719.10547.01172.13281.01563.10157-.04297.08984-.0586.0586-.08984.07421-.07422.0586-.08984.04687-.10156.01172-.13281-.01172-.13282-.04687-.10547-.14844-.14843-.0586-.08985-.05859-.08594-.04297-.10546v-.44532l.01563-.1328v-.14845l.01172-.1328-.0586-.0586-.08984.0586-.10156-.04298-.17969-.11719-.08594-.05859-.0625-.08984-.0586-.08985-.07421-.07421-.08594-.0586-.1211.03125-.10155.01172-.10547.04688-.08594.05859-.10547.04297-.14844.14844-.08984.05859-.08594.0586-.08984.0625-.10547.04296-.13281.01563v-.1211l.10547-.04297.11718-.03125.07422-.0703.04297-.10548v-.14844l-.02734-.11718-.14844-.14844-.13281-.01563h-.14844l-.11719.03125-.10547.04297-.10156.04297-.08984.0625-.11719.02735-.07422-.07422.01172-.13281-.04297-.10157-.04297-.10547-.08984-.05859-.11719.02734-.1211.03125-.11718.03125-.10156.04297-.1211.03125-.10156.04297-.10547.04297-.08984.0586-.10156.01562v-.11719l.01562-.13281-.0586-.08985-.07421.04297-.14844.14844-.0586.08985-.07421.07421-.04688.10547-.04296.10156-.07422.07422-.0586.08985-.07422.07422-.05859.08593-.07422.07422-.08984.0625-.07422.07031-.07422.07422-.10156.01563-.13281.01562-.10547-.04296v-.1211l.14843-.14844.04297-.10156.0586-.08984.04687-.10156.04297-.10547.0586-.08985.03124-.11719.04297-.10156.03125-.1211.02735-.11718.04687-.10547.04297-.10156.04297-.10547.07422-.07031.08984-.0625.08985-.0586.10156-.04296h.29687l.26563-.03125.10547-.04297-.07422-.07422-.11719-.03125-.10547-.04297-.08984-.0586-.10156-.04687-.08985-.0586-.10156-.04296-.10547-.04297-.08984-.0625-.08594-.0586-.10547-.04296-.10156-.04297-.1211-.03125-.11718-.03125-.10157-.04297L297.5 410.25l-.10156-.04297-.08985-.0586-.04296-.10546-.01563-.13281.10156-.04297.13281-.01563.13672.01563.13282-.01563.10156-.04297.0586-.08984.01562-.10547-.08985-.0586-.07421-.07421-.10157-.04297-.08984-.0586-.14844-.14843-.04297-.10547-.01562-.13281v-.29297l-.0586-.08985-.08984-.05859-.07422-.07422-.04297-.10547-.03125-.11718-.0586-.08985-.07421-.07422-.11719-.02734-.07422-.07422-.08984-.0586-.08984-.0625-.08594-.05859-.07422-.07421-.0586-.08594-.04687-.10547-.08594-.0586-.14843-.14843-.19532-.0586-.1328.01563-.10157.04297-.07422.07422-.04688.10156-.04296.10547-.0586.08984-.0586.08594-.29687.29687-.08984.0586h-.08594l-.0625-.08594-.04297-.10547.03125-.11719.0586-.08984.02734-.11719-.01172-.13281-.08984-.0625-.10547.04688-.11719.02734-.11719.03125-.26953.17578-.10156.04688-.11719.02734-.10546.04687-.08985.0586-.10156.04297-.0586-.08594-.04687-.10547.01563-.13281.04687-.10547.07031-.07422.07422-.07031.0586-.08985v-.14843l-.04297-.10547h-.23829l-.10156.04687-.03125.11719-.02734.11719-.03125.1211-.07422.04296-.13281.01563-.07422-.04688-.04297-.10156-.04297-.10547-.04687-.10156-.04297-.10547-.1211.03125-.10156.04297-.13281.01562-.11719.03125-.10547.04297-.08984.0586-.10156.04687-.1211.02734-.13281.01563-.10156-.04297-.0586-.08985-.04687-.10546-.04297-.10157-.04297-.10546v-.1172l.0586-.08984.08593-.05859.17969-.11719.10156-.04687.10547-.04297.10547-.0586.10156-.04296.08985-.0625.10156-.04297.10547-.0586.10156-.04687.08984-.0586.10547-.04296.10156-.04297.08985-.0625.10156-.04297.13672-.01563.11719.03125.10156.04297.1211.03125.10156.04297.10546.04688.10157.04296.10547.04297.10156.04688.10547.04297.10156.04297.10547.04687.08594.0586.10546.04296.1172.03125.10546.04297.10156.04688.08985.0586.10547.04296.10156.04297.10547.04687.11719.02735.10156.04687.1211.02735h.14843l.08594-.0586.01562-.10156.0586-.08984-.02735-.1172-.07422-.07421-.11719-.17969-.07421-.07422-.08985-.07421-.17969-.1172-.08593-.05859-.10547-.04296-.10156-.04688-.26954-.17578-.05859-.08985-.07422-.07421-.0586-.08985-.04296-.10156-.03125-.11719-.01563-.13672v-.5625l-.01171-.1328-.01563-.13282-.03125-.11719-.01562-.13281-.01172-.13281-.03125-.1211-.22266-.22265-.0586-.08594-.01562-.10547.03125-.11719.13281-.01562v-91.41406H172.9922v1.45312l-.0586.23438-.35156 1.05078-.17187.52343-.1172.34766-.17577.41016-.11719.17187-.23438.29297-.23046.0586h-.35157l-.11718.05859-.23047.40625v.29297l.11719.17578.23046.23047.1172.23437.64062.75781.29297.46485.17578.23437.23047.35156.23437.34766.64063.8164.17578.46485.17187.41016.11719.69531.17578.46875.11719 1.39844.0586.46484v.875l.11718 1.04688v4.78125l-.0586.46484-.35156 1.28125-.17578.52344-.11328.41015-.35156.9297L172.93359 336l-.23437.58203-.11719.17578-.17187.34766-.17578.40625-.35157.8164-.0586.29297-.11327.29297-.11719.28906-.0586.17579-.11718.875-.0586.40625-.05859.11718-.0586.17579-.05859.17187-.23047.52734-.11718.17188v.23437l-.11719.23438-.0586.17187-.17577.58594v.28906l-.0586.17579v.29296l-.0586.11329-.05859.52734v.17187l-.05468.23438v2.6211l-.17578.8164-.1172.17578-.17577.23438-.1172.17187-.11327.23438-.58594.93359-.23047.28906-.29297.46485-.17578.23437-.28906.35156-.35156.69922-.11328.23047-.17579.41016-.17578.23046-.40625.52735-.8164.69922-.29297.17187-.28906.23438-.17579.11719-.17578.17578-.52344.40625-.52734.17578-.17187.17578-.23438.05469-.64062.17578h-.75782m12.21094 31.02344l-1.07422.44921.35938.89454 1.25-.71485.44531-.53906-.98047-.08985"/><path fill="#d3d3d3" fill-opacity="0" fill-rule="evenodd" d="M201.50781 416.59766h-.89453l.44922.6289.98047.35938.80469-.08985.4453-.98828-.17577.08985-.71485-.35547-.89453.35547m154.6211 59.0703l-.0586-.52343v-.29297l.11328-.29297.0586-.23046.46875-.46875h.11328l.11719-.11329.11718-.05859h.17579l.23437-.0586h.34766l.23437.0586.11719.0586.23047.17187.0586.17578.11718.58203v.29297l-.11719.17578-.17187.28906-.17579.17579-.52734.52343-.23047.23438-.11719.0586h-.17578l-.11718-.0586-.40625-.29297-.17579-.11719-.11718-.0586-.0586-.11327-.05468-.1172m6.64062-10.95702l-.0586-.17188v-1.10937l.0586-.17188.17578-.0586.17188-.05858h.17578l.23437-.0586.1172.0586.05858.69921-.05859.17188-.11719.17578-.11718.0586-.23438.52343-.11328.0586h-.23438l-.05859-.1172m9.61328-14.39062l-.11719-.17578v-.69922l.29297-.875.1172-.17187.17577-.35156.11328-.23047.1172-.29297.35155-.75781.1172-.23047.17187-.23438h.17578l.11719-.0586h.64062l.11719.0586.23437.23438.17188.11328.35156.29297.11719.11718.11328.17579v.11328l.11719.05859.11718.11719v.69922l-.05859.17578v.23047l-.0586.17578-.34765 1.05078-.11719.23047-.11719.23437-.11718.0586-.23047.23437-.64063.28906h-.875l-.41015-.11718-.64063-.46485"/><path fill="none" stroke="#bebebe" stroke-linecap="round" stroke-linejoin="round" stroke-miterlimit="10" stroke-width=".5" d="M467.95703 311.69531H144.02734v168.625h323.9297v-168.625"/><g clip-path="url(#a)"><path fill="#fff" fill-opacity="0" fill-rule="evenodd" d="M144 475.89063v4.4375h.0039H144V311.67188h.0039H144v164.21875"/></g><g clip-path="url(#b)"><path fill="#fff" fill-opacity="0" fill-rule="evenodd" d="M144.0039 480.32813V311.67188h17.75v139.17187l-2.67577 2.85547-1.01563 4.4375 1.48047 4.4375 2.21094 1.48437 2.65625-1.48437 1.19922-4.4375-.80079-4.4375-3.05468-2.85547V311.67187h8.875v144.85547l-2 1.60938 2 2.8164 4.4375-2.24609 1.20312-.57031-1.20312-.44922-4.4375-1.16016V311.67188h31.0703v109.91796l-1.0078 1.03907 1.0078 1.3164 1.14845-1.3164-1.14844-1.03907V311.67188h177.53516v145.3203l-1.70704 1.14454 1.4961 4.4375.21094.58203 4.4375 2.83984 3.07421 1.01954 1.36329 1.72656 1.54296-1.72656 2.89454-.64063 3.87109-3.80078-3.1836-4.4375-.6875-.60938-4.4375-.375-1.1875.98438-3.25 1.58984-3.2578-1.58984-1.1797-1.14453V311.67188h88.76172v168.65625h-40.47265l-3.90625-3.05079-4.4375 2.375-1.04297.67579h-14.80078l-1.91016-1.95704-4.4414-1.80468-3.51563 3.76171H144.00391"/></g><path fill="#50fcfc" fill-rule="evenodd" d="M159.54297 462.57422l-1.48047-4.4375 1.01563-4.4375 2.67578-2.85547v5.55078l-.8711 1.74219.8711 1.23437.91015-1.23437-.91015-1.74219v-5.55078l3.05468 2.85547.80078 4.4375-1.19921 4.4375-2.65625 1.48437-2.21094-1.48437"/><path fill="#00e8fc" fill-rule="evenodd" d="M161.7539 459.3711l-.87109-1.23438.8711-1.74219.91015 1.74219-.91015 1.23437"/><path fill="#50fcfc" fill-rule="evenodd" d="M170.6289 460.95313l-2-2.81641 2-1.60938 4.4375 1.16016 1.20313.44922-1.20312.57031-4.4375 2.2461m31.0703-37.00782l-1.0078-1.3164 1.0078-1.03907 1.14845 1.03907-1.14844 1.3164m177.32422 38.6289l-1.4961-4.4375 1.70704-1.14452 1.17968 1.14453 3.25781 1.58984 3.25-1.58984 1.1875-.98438v1.65235l-4.30078 3.76953 4.30079 3.73047 4.4375-2.96094.78515-.76953-.78515-.94922-4.4375-2.82031v-1.65235l4.4375.375.6875.60938 3.18359 4.4375-3.8711 3.80078-2.89453.64063-1.54296 1.72656-1.36329-1.72656-3.07421-1.01954-4.4375-2.83984-.21094-.58203"/><path fill="#00e8fc" fill-rule="evenodd" d="M388.10938 466.30469l-4.30079-3.73047 4.30079-3.76953v1.34375l-2.76563 2.42578 2.76563 2.40234 3.01953-2.40234-3.01954-2.42578v-1.34375l4.4375 2.82031.78516.94922-.78515.76953-4.4375 2.96094"/><path fill="#00d4fc" fill-rule="evenodd" d="M388.10938 464.97656l-2.76563-2.40234 2.76563-2.42578v1.34375l-1.23438 1.08203 1.23438 1.07031 1.34765-1.07031-1.34765-1.08203v-1.34375l3.01953 2.42578-3.01954 2.40234"/><path fill="#00c4fc" fill-rule="evenodd" d="M388.10938 463.64453l-1.23438-1.07031 1.23438-1.08203 1.34765 1.08203-1.34765 1.07031"/><g clip-path="url(#c)"><path fill="#50fcfc" fill-rule="evenodd" d="M393.46875 480.32813h1.90625l1.60938-1.72266 2.35546 1.72265h3.9961l-1.91016-1.95703-4.4414-1.80468-3.51563 3.76171"/></g><g clip-path="url(#d)"><path fill="#00e8fc" fill-rule="evenodd" d="M395.375 480.32813l1.60938-1.72266 2.35546 1.72265H395.375"/></g><g clip-path="url(#e)"><path fill="#50fcfc" fill-rule="evenodd" d="M418.13672 480.32813l1.04297-.67579 4.4375-2.375 3.90625 3.05079h-2.96485l-.9414-.73438-1.17578.73438h-4.3047"/></g><g clip-path="url(#f)"><path fill="#00e8fc" fill-rule="evenodd" d="M422.4414 480.32813l1.17579-.73438.9414.73438h-2.11718"/></g><g clip-path="url(#g)"><path fill="#fff" fill-opacity="0" fill-rule="evenodd" d="M467.9961 480.32813H468V311.67188h-.0039H468v168.65625h-.0039"/></g><g clip-path="url(#h)"><path fill="none" stroke="#000" stroke-linecap="round" stroke-linejoin="round" stroke-miterlimit="10" stroke-width=".5" d="M147.48828 480.73828l-6.97656-.82031"/></g><g clip-path="url(#i)"><path fill="none" stroke="#000" stroke-linecap="round" stroke-linejoin="round" stroke-miterlimit="10" stroke-width=".5" d="M147.48828 480.73828l.89063 2.28516"/></g><g clip-path="url(#j)"><path fill="none" stroke="#000" stroke-linecap="round" stroke-linejoin="round" stroke-miterlimit="10" stroke-width=".5" d="M160.82422 480.51953l-7.01953-.3789"/></g><g clip-path="url(#k)"><path fill="none" stroke="#000" stroke-linecap="round" stroke-linejoin="round" stroke-miterlimit="10" stroke-width=".5" d="M160.82422 480.51953l1.03125 2.22266"/></g><g clip-path="url(#l)"><path fill="none" stroke="#000" stroke-linecap="round" stroke-linejoin="round" stroke-miterlimit="10" stroke-width=".5" d="M174.08594 479.6914l-6.91016 1.27344"/></g><g clip-path="url(#m)"><path fill="none" stroke="#000" stroke-linecap="round" stroke-linejoin="round" stroke-miterlimit="10" stroke-width=".5" d="M174.08594 479.6914l1.52344 1.92188"/></g><g clip-path="url(#n)"><path fill="none" stroke="#000" stroke-linecap="round" stroke-linejoin="round" stroke-miterlimit="10" stroke-width=".5" d="M187.32422 479.36328l-6.75781 1.9336"/></g><g clip-path="url(#o)"><path fill="none" stroke="#000" stroke-linecap="round" stroke-linejoin="round" stroke-miterlimit="10" stroke-width=".5" d="M187.32422 479.36328l1.70312 1.76563"/></g><g clip-path="url(#p)"><path fill="none" stroke="#000" stroke-linecap="round" stroke-linejoin="round" stroke-miterlimit="10" stroke-width=".5" d="M200.52344 479.02344L194 481.63672"/></g><g clip-path="url(#q)"><path fill="none" stroke="#000" stroke-linecap="round" stroke-linejoin="round" stroke-miterlimit="10" stroke-width=".5" d="M200.52344 479.02344l1.875 1.58203"/></g><g clip-path="url(#r)"><path fill="none" stroke="#000" stroke-linecap="round" stroke-linejoin="round" stroke-miterlimit="10" stroke-width=".5" d="M213.66797 478.66406l-6.1875 3.33203"/></g><g clip-path="url(#s)"><path fill="none" stroke="#000" stroke-linecap="round" stroke-linejoin="round" stroke-miterlimit="10" stroke-width=".5" d="M213.66797 478.66406l2.04297 1.35938"/></g><g clip-path="url(#t)"><path fill="none" stroke="#000" stroke-linecap="round" stroke-linejoin="round" stroke-miterlimit="10" stroke-width=".5" d="M226.7539 478.29297l-5.72656 4.07031"/></g><path fill="none" stroke="#000" stroke-linecap="round" stroke-linejoin="round" stroke-miterlimit="10" stroke-width=".5" d="M226.7539 478.29297l2.19532 1.10156"/><g clip-path="url(#u)"><path fill="none" stroke="#000" stroke-linecap="round" stroke-linejoin="round" stroke-miterlimit="10" stroke-width=".5" d="M239.67969 477.83203l-4.94531 4.99219"/></g><path fill="none" stroke="#000" stroke-linecap="round" stroke-linejoin="round" stroke-miterlimit="10" stroke-width=".5" d="M239.67969 477.83203l2.34765.70703"/><g clip-path="url(#v)"><path fill="none" stroke="#000" stroke-linecap="round" stroke-linejoin="round" stroke-miterlimit="10" stroke-width=".5" d="M252.75 477.61328l-4.46094 5.42969"/></g><path fill="none" stroke="#000" stroke-linecap="round" stroke-linejoin="round" stroke-miterlimit="10" stroke-width=".5" d="M252.75 477.61328l2.40625.48438"/><g clip-path="url(#w)"><path fill="none" stroke="#000" stroke-linecap="round" stroke-linejoin="round" stroke-miterlimit="10" stroke-width=".5" d="M265.99219 477.55469l-4.3125 5.54687"/></g><path fill="none" stroke="#000" stroke-linecap="round" stroke-linejoin="round" stroke-miterlimit="10" stroke-width=".5" d="M265.99219 477.55469l2.41797.42187"/><g clip-path="url(#x)"><path fill="none" stroke="#000" stroke-linecap="round" stroke-linejoin="round" stroke-miterlimit="10" stroke-width=".5" d="M279.36719 477.60156l-4.42969 5.45313"/></g><path fill="none" stroke="#000" stroke-linecap="round" stroke-linejoin="round" stroke-miterlimit="10" stroke-width=".5" d="M279.36719 477.60156l2.40625.47266"/><g clip-path="url(#y)"><path fill="none" stroke="#000" stroke-linecap="round" stroke-linejoin="round" stroke-miterlimit="10" stroke-width=".5" d="M292.80469 477.70703l-4.67578 5.2461"/></g><path fill="none" stroke="#000" stroke-linecap="round" stroke-linejoin="round" stroke-miterlimit="10" stroke-width=".5" d="M292.125 478.46875l1.1914.28906"/><g clip-path="url(#z)"><path fill="none" stroke="#000" stroke-linecap="round" stroke-linejoin="round" stroke-miterlimit="10" stroke-width=".5" d="M305.8164 477.46484l-4.07421 5.72657"/></g><path fill="none" stroke="#000" stroke-linecap="round" stroke-linejoin="round" stroke-miterlimit="10" stroke-width=".5" d="M305.22656 478.30078l1.21485.15625"/><g clip-path="url(#A)"><path fill="none" stroke="#000" stroke-linecap="round" stroke-linejoin="round" stroke-miterlimit="10" stroke-width=".5" d="M317.7539 476.8789l-1.3164 6.90235"/></g><path fill="none" stroke="#000" stroke-linecap="round" stroke-linejoin="round" stroke-miterlimit="10" stroke-width=".5" d="M317.5625 477.88281l1.17188-.36328"/><g clip-path="url(#B)"><path fill="none" stroke="#000" stroke-linecap="round" stroke-linejoin="round" stroke-miterlimit="10" stroke-width=".5" d="M330.8789 476.84766l-.9375 6.96484"/></g><path fill="none" stroke="#000" stroke-linecap="round" stroke-linejoin="round" stroke-miterlimit="10" stroke-width=".5" d="M330.74219 477.85938l1.15234-.42579"/><g clip-path="url(#C)"><path fill="none" stroke="#000" stroke-linecap="round" stroke-linejoin="round" stroke-miterlimit="10" stroke-width=".5" d="M343.9414 476.82031l-.42968 7.01563"/></g><path fill="none" stroke="#000" stroke-linecap="round" stroke-linejoin="round" stroke-miterlimit="10" stroke-width=".5" d="M343.8789 477.84375l1.1172-.51172"/><g clip-path="url(#D)"><path fill="none" stroke="#000" stroke-linecap="round" stroke-linejoin="round" stroke-miterlimit="10" stroke-width=".5" d="M356.23438 476.91016l1.61328 6.83984"/></g><path fill="none" stroke="#000" stroke-linecap="round" stroke-linejoin="round" stroke-miterlimit="10" stroke-width=".5" d="M356.46875 477.90234l.92188-.80859"/><g clip-path="url(#E)"><path fill="none" stroke="#000" stroke-linecap="round" stroke-linejoin="round" stroke-miterlimit="10" stroke-width=".5" d="M368.46094 477.3711l3.79297 5.91406"/></g><path fill="none" stroke="#000" stroke-linecap="round" stroke-linejoin="round" stroke-miterlimit="10" stroke-width=".5" d="M369.01172 478.23047l.60156-1.0664"/><g clip-path="url(#F)"><path fill="none" stroke="#000" stroke-linecap="round" stroke-linejoin="round" stroke-miterlimit="10" stroke-width=".5" d="M382.41406 477.04688l2.51563 6.5625"/></g><path fill="none" stroke="#000" stroke-linecap="round" stroke-linejoin="round" stroke-miterlimit="10" stroke-width=".5" d="M382.77734 478.0039l.8086-.92577"/><g clip-path="url(#G)"><path fill="none" stroke="#000" stroke-linecap="round" stroke-linejoin="round" stroke-miterlimit="10" stroke-width=".5" d="M395.60156 477.10156l2.76953 6.45703"/></g><path fill="none" stroke="#000" stroke-linecap="round" stroke-linejoin="round" stroke-miterlimit="10" stroke-width=".5" d="M396.0039 478.03906l.76954-.95703"/><g clip-path="url(#H)"><path fill="none" stroke="#000" stroke-linecap="round" stroke-linejoin="round" stroke-miterlimit="10" stroke-width=".5" d="M410.53125 476.82422l-.46094 7.01172"/></g><path fill="none" stroke="#000" stroke-linecap="round" stroke-linejoin="round" stroke-miterlimit="10" stroke-width=".5" d="M410.53125 476.82422l2.23828-1.00781"/><g clip-path="url(#I)"><path fill="none" stroke="#000" stroke-linecap="round" stroke-linejoin="round" stroke-miterlimit="10" stroke-width=".5" d="M425.47266 477.34766l-3.71094 5.96484"/></g><path fill="none" stroke="#000" stroke-linecap="round" stroke-linejoin="round" stroke-miterlimit="10" stroke-width=".5" d="M425.47266 477.34766l2.44921.16406"/><g clip-path="url(#J)"><path fill="none" stroke="#000" stroke-linecap="round" stroke-linejoin="round" stroke-miterlimit="10" stroke-width=".5" d="M438.96875 477.46484l-4.07422 5.72657"/></g><path fill="none" stroke="#000" stroke-linecap="round" stroke-linejoin="round" stroke-miterlimit="10" stroke-width=".5" d="M438.96875 477.46484l2.42969.31641m-3.02344.51563l1.21484.16015"/><g clip-path="url(#K)"><path fill="none" stroke="#000" stroke-linecap="round" stroke-linejoin="round" stroke-miterlimit="10" stroke-width=".5" d="M452.8789 478.0039l-5.26562 4.65235"/></g><path fill="none" stroke="#000" stroke-linecap="round" stroke-linejoin="round" stroke-miterlimit="10" stroke-width=".5" d="M452.11328 478.67969l1.14844.42969"/><g clip-path="url(#L)"><path fill="none" stroke="#000" stroke-linecap="round" stroke-linejoin="round" stroke-miterlimit="10" stroke-width=".5" d="M466.89453 479.21875l-6.66797 2.21875"/></g><g clip-path="url(#M)"><path fill="none" stroke="#000" stroke-linecap="round" stroke-linejoin="round" stroke-miterlimit="10" stroke-width=".5" d="M466.89453 479.21875l1.77735 1.6914"/></g><g clip-path="url(#N)"><path fill="none" stroke="#000" stroke-linecap="round" stroke-linejoin="round" stroke-miterlimit="10" stroke-width=".5" d="M147.5039 466.7461l-7.0078.53515"/></g><path fill="none" stroke="#000" stroke-linecap="round" stroke-linejoin="round" stroke-miterlimit="10" stroke-width=".5" d="M147.5039 466.7461l1.3125 2.07421m11.96876-2.35156l-6.94141 1.08984m6.9414-1.08984l1.47657 1.96094m11.8086-2.125l-6.88282 1.41797m6.88281-1.41797l1.5664 1.88672m11.64063-2.28907l-6.66406 2.22266m6.66406-2.22266l1.77735 1.69141m11.36719-2.11328l-6.32422 3.0664m6.32422-3.0664l1.98046 1.44531m11.14453-1.78906l-5.9414 3.7539m5.9414-3.7539l2.12891 1.21875m11-1.48438l-5.57031 4.28516m5.57031-4.28516l2.23438 1.01172m10.85547-1.27344l-5.1211 4.8086m5.1211-4.8086l2.32421.78907m10.67578-1.08594l-4.49218 5.40234m4.49219-5.40234l2.40234.4961m10.7461-.62891l-4.15626 5.66797m4.15625-5.66797l2.42578.35156m11.06641-.21094l-4.50781 5.38672m4.50781-5.38672l2.39844.5039m10.98828-.4453l-4.65235 5.26953m4.65235-5.26953l2.38672.57421m10.86719-.625l-4.53125 5.3711m4.53125-5.3711l2.39843.51563m10.5625-.77734l-3.82422 5.89453m3.82422-5.89453l2.44531.21093m10.44532-.44922l-2.97266 6.3711m2.97266-6.3711l2.44922-.125m10.71484.0625l-2.67188 6.4961m2.28125-5.55078l1.22266-.1211m11.8789-1.01172l-1.46484 6.8711m1.25391-5.8711l1.17578-.33984m12.3086-.66797l-1.37891 6.89063m1.17578-5.89063l1.17578-.35156m12.875-.5l-2.44922 6.58984m2.09375-5.6289l1.21485-.16407m13.8828.19141l-5.30077 4.61328m4.52734-3.9414l1.14844.4375m11.51562-2.09766l-2.44921 6.58984m2.44921-6.58984l2.4297-.32422m11.04687.39063l-2.77735 6.45703m2.77735-6.45703l2.4453-.19922m-2.84765 1.14062l1.22266-.10156m13.09765-.50781l-3.98046 5.79297m3.98046-5.79297l2.4375.27734m-3.01562.5664l1.21875.13673m12.89844-.8125l-4.42969 5.45703m4.42969-5.45703l2.41015.47265m12.14844 1.6289l-6.91406 1.25391"/><g clip-path="url(#O)"><path fill="none" stroke="#000" stroke-linecap="round" stroke-linejoin="round" stroke-miterlimit="10" stroke-width=".5" d="M467.01953 466.38672l1.51953 1.92578"/></g><g clip-path="url(#P)"><path fill="none" stroke="#000" stroke-linecap="round" stroke-linejoin="round" stroke-miterlimit="10" stroke-width=".5" d="M147.51172 453.66797l-7.02344.0625"/></g><path fill="none" stroke="#000" stroke-linecap="round" stroke-linejoin="round" stroke-miterlimit="10" stroke-width=".5" d="M147.51172 453.66797l1.17187 2.15625m12.14063-2.32813l-7.01563.40625m7.01563-.40625l1.27344 2.09375m-2.29688-2.03515l.64063 1.04687m13.6328-1.59765l-6.88671 1.39062m6.88672-1.39062l1.5586 1.89453m-2.5625-1.69532l.78124.94922m13.3711-1.71484l-6.5586 2.52344m6.5586-2.52344l1.85547 1.60938m-2.8086-1.2422l.92578.8047m13.16016-1.57032l-6.1914 3.32031m6.1914-3.3203l2.03906 1.36327m-2.9375-.8789l1.01953.67968m13.08594-1.35546l-5.97266 3.70312m5.97266-3.70312l2.1211 1.23437m-2.9922-.69531l1.0625.61719m13.23438-.96094l-6.19531 3.3125m6.19531-3.3125l2.03906 1.36719m-2.9414-.88672l1.01953.6836m12.82422-1.72657l-5.44922 4.4375m5.44922-4.4375l2.26172.95312m-3.0547-.30859l2.26173.95312m11.69922-1.76953l-5.15235 4.78125m5.15235-4.78125l2.3164.8047m-3.0664-.10938l1.15625.40234m13.04297-.94531l-5.42188 4.47656m5.42188-4.47656l2.26562.9375m11.20703-.73047l-5.73828 4.0625m5.73828-4.0625l2.1914 1.10156m11.0625-1.1875l-5.61327 4.23047m5.61328-4.23047l2.22265 1.03906m11.59766-.08984l-6.625 2.33594m6.625-2.33594l1.8086 1.66016m-2.77344-1.32032l.90625.82813m13.34765-1.23828l-6.57422 2.47656m6.57422-2.47656l1.84375 1.6211m-2.80078-1.26173l.92188.8125m13.10937-1.6836l-6.09375 3.4961m6.09375-3.4961l2.07813 1.3086m-2.96485-.79687l1.03907.65234m12.4414-2.04687l-4.65234 5.26562m4.65234-5.26562l2.38672.5703m-3.0625.19532l1.19531.28516m12.17188-1.49219l-3.40235 6.14844m3.40235-6.14844l2.45312.04297m-2.94531.85156l1.22656.01953m13.48438-.19922L367.75 456.0586m5.21094-4.71875l2.3086.83203m11.47265-.17968l-6.14063 3.41406m6.14063-3.41406l2.0586 1.33203m8.99218-3.04688l-1.61328 6.83985m1.3789-5.84375l1.1875-.3125m13.6836-.0586l-4.2539 5.59375m3.6328-4.78125l1.21094.19922m13.66406.07031l-6.1328 3.4297m6.1328-3.4297l2.0625 1.32813m11.6836.07812l-7 .61329m7-.61329l1.33984 2.0586m11.58594-3.38672l-6.21875 3.26953m6.21875-3.26953l2.02734 1.38281m11.09375-1.70703l-5.83203 3.91797"/><g clip-path="url(#Q)"><path fill="none" stroke="#000" stroke-linecap="round" stroke-linejoin="round" stroke-miterlimit="10" stroke-width=".5" d="M466.47656 451.73828l2.16797 1.15625"/></g><g clip-path="url(#R)"><path fill="none" stroke="#000" stroke-linecap="round" stroke-linejoin="round" stroke-miterlimit="10" stroke-width=".5" d="M147.5039 440.125l-7.0078.51563"/></g><path fill="none" stroke="#000" stroke-linecap="round" stroke-linejoin="round" stroke-miterlimit="10" stroke-width=".5" d="M147.5039 440.125l1.3086 2.07813m-2.32813-2.00391l.65235 1.03906m13.6211-1.5664l-6.88282 1.42187m6.88281-1.42188l1.5664 1.89063m-2.5703-1.6836l.78515.94532m13.32813-1.80469l-6.47266 2.73047m6.47266-2.73047l1.90234 1.54688m-2.84375-1.15235l.95313.77735m13.05859-1.64844l-5.98438 3.67969m5.98438-3.6797l2.11719 1.2422m-2.98828-.70703l1.05859.62109m12.82422-1.57422l-5.3789 4.51953m5.3789-4.51953l2.27734.91797m11.33594-.50781l-5.97266 3.69921m5.97266-3.69921l2.1211 1.23437m-2.9922-.69922l1.0625.6211m12.76173-1.64453l-5.25 4.67578m5.25-4.67578l2.30078.85156m-3.06641-.17188l1.15234.42578m12.7422-1.30078l-4.875 5.0625m4.875-5.0625l2.35937.67578m-3.07032.0625l1.1797.33594m11.4375-1.90234l-2.0586 6.71875m2.0586-6.71875l2.40624-.46485m11.76953.86328l-3.78125 5.92188m3.78125-5.92188l2.44531.19532m-2.99609.66797l1.22266.09765m12.58203-.9961l-3.66016 5.9961m3.66016-5.9961l2.44922.14454m10.26172-.4414l-2.45313 6.58593m2.45313-6.58594l2.43359-.3203m12.35938 1.37109l-5.40625 4.48437m5.40625-4.48437l2.26953.93359m-3.0547-.28125l1.13282.46484m13.45703-.33984l-6.38672 2.92969m6.38672-2.9297l1.94922 1.48829m-2.8789-1.0625l.97656.7461m13.21875-1.27735l-6.28516 3.14063m6.28516-3.14063l2 1.42188m-2.91406-.96485l1.99609 1.42188m12.00781-2.26172l-5.83984 3.91015m5.83984-3.91015l2.16406 1.16015m-3.01171-.59375l1.08203.58204m12.29687-1.98438l-4.26953 5.58203m4.26953-5.58203l2.42188.39844m-3.04297.41406l1.21094.19922m11.91406-1.47656l-2.64453 6.51172m2.64453-6.51172l2.4375-.25391m13.0039 4.17188l-6.90234-1.32422m5.89844 1.1289l.36328 1.17188m13.92578-2.44922l-6.83984 1.61719m5.84375-1.38282l.80859.92188m13.29297-1.77344l-6.42188 2.85156m5.48829-2.4375l.96484.75782m12.9414-1.77735l-5.73437 4.0625m5.73438-4.0625l2.1914 1.10157m-3.02734-.50782l2.1914 1.10157m12.58985.67578l-6.9961-.6797m6.9961.6797l.9375 2.26562m-1.95703-2.36328l.9375 2.26563m13.40234-2.75l-7.00781.48437m7.00781-.48437l1.30078 2.08203m11.88281-2.83203l-6.74218 1.98437"/><g clip-path="url(#S)"><path fill="none" stroke="#000" stroke-linecap="round" stroke-linejoin="round" stroke-miterlimit="10" stroke-width=".5" d="M466.9336 439.39063l1.71484 1.7539"/></g><g clip-path="url(#T)"><path fill="none" stroke="#000" stroke-linecap="round" stroke-linejoin="round" stroke-miterlimit="10" stroke-width=".5" d="M147.45703 426.4375l-6.91406 1.26172"/></g><path fill="none" stroke="#000" stroke-linecap="round" stroke-linejoin="round" stroke-miterlimit="10" stroke-width=".5" d="M147.45703 426.4375l1.51953 1.92578m-2.52734-1.74219l.76172.96485m13.49219-1.45313l-6.77344 1.8711m6.77344-1.8711l1.6875 1.78125m-2.67579-1.50781l.84375.89063m13.3047-1.60547l-6.46485 2.7539m6.46484-2.7539l1.90625 1.54297m11.55078-1.14063l-6.75 1.94922m6.75-1.94922l1.70703 1.76172m11.45313-2.19531l-6.4375 2.8164m6.4375-2.8164l1.92187 1.51953m-2.85937-1.10938l.96094.76172m13.02343-1.67187l-5.90234 3.8164m5.90234-3.8164l2.14063 1.1953m-3-.64062l1.07031.59766m13.08594-1.17578L220.95312 429m5.8711-3.86328l2.15625 1.17969m-3.00781-.6172l1.07422.58985m13.58203-.00781l-6.84766 1.57422m6.84766-1.57422l1.60937 1.85156m11.11719-3.14062l-5.67188 4.15234m5.67188-4.15234l2.21094 1.07031m-3.03516-.46484l1.10547.53515m12.76953-1.46094l-5.14063 4.79297m5.14063-4.79297l2.32031.80079m-3.0664-.10157l1.15625.39844m13.10547-.86328l-5.53907 4.32422m5.53906-4.32422l2.23829 1m-3.04688-.3711l1.1211.5m13.02734-1.09765l-5.58985 4.26172m5.58985-4.26172l2.22656 1.02734m9.8789-2.03125l-3.17187 6.26953m2.71094-5.35546l1.22656-.02735m12.75-.77734l-3.57422 6.05078m3.57422-6.05078l2.45313.10937m11.82422.72657l-5.4961 4.3789m5.4961-4.3789l2.25.97656m-3.05079-.33984l1.125.48828m13.22657-.78907l-5.96875 3.70704m5.96875-3.70704l2.1211 1.23047m-2.9922-.6914l2.125 1.23046m11.80079-2.1328l-5.44922 4.43359m5.44921-4.4336l2.26172.95313m-3.05468-.3086l1.1328.47657m12.69923-1.42188l-4.89844 5.03516m4.89844-5.03516l2.35937.6836m-3.07031.04687l2.35547.6875m11.5625-1.51953l-4.67969 5.23828m4.67969-5.23828l2.38281.58203m-3.0625.17969l2.38281.58203m-3.0664.17969l1.1914.29296m14.08204-1.125l-5.8711 3.85547m5.8711-3.85547l2.15234 1.17579m-3.0039-.6172l2.14843 1.1797m11.96094-1.82422l-5.75781 4.02734m5.7578-4.02734l2.1875 1.11718m-3.02343-.53125l2.1836 1.1172m-3.02344-.53126l1.09375.5586m13.42187-2.28125l-4.80469 5.1289m4.8047-5.1289l2.36718.64062m-3.0664.10547l2.36718.64062m11.49219-1.52343l-4.4961 5.40234m4.4961-5.40234l2.40234.5m-3.0586.28515l2.40235.5m-3.05469.28516l1.19922.25m14.20313-.89844l-6.05469 3.5586m6.05469-3.5586l2.09375 1.28125m-2.97266-.76562l1.04688.64453m12.45312-2.00781l-4.66797 5.2539"/><g clip-path="url(#U)"><path fill="none" stroke="#000" stroke-linecap="round" stroke-linejoin="round" stroke-miterlimit="10" stroke-width=".5" d="M465.89453 424.4414l2.38672.57813"/></g><g clip-path="url(#V)"><path fill="none" stroke="#000" stroke-linecap="round" stroke-linejoin="round" stroke-miterlimit="10" stroke-width=".5" d="M147.375 412.77734l-6.75 1.95313"/></g><path fill="none" stroke="#000" stroke-linecap="round" stroke-linejoin="round" stroke-miterlimit="10" stroke-width=".5" d="M147.375 412.77734l1.70703 1.76172m-2.6875-1.47656l.85156.8789m13.23047-1.72265l-6.32422 3.0664m6.32422-3.0664l1.98047 1.44922m-2.90234-1l.99219.72265m13.49218-.49218l-6.8164 1.70703m6.8164-1.70703l1.64453 1.82422m11.76563-1.2422l-7.00781.54688m7.0078-.54687l1.31642 2.07031m-2.33594-1.99219l.65625 1.03516m13.5625-1.76563l-6.77735 1.84766m6.77735-1.84766l1.6836 1.78907m-2.66798-1.51953l1.67969 1.78906m12.6875-1.77344l-6.91016 1.28125m6.91016-1.28125l1.52734 1.92188m-2.53515-1.73438l.76562.96094m13.41797-1.67188l-6.63281 2.32813m6.63281-2.32813l1.80469 1.66407m11.49219-1.71485l-6.59375 2.42969m6.59375-2.42969l1.82812 1.63672m-2.78906-1.28516l.91406.82032m13.3711-1.14453l-6.61329 2.375m6.61328-2.375l1.81641 1.64843m11.03125-2.53125l-5.67969 4.13672m5.6797-4.13672l2.20702 1.07422m11.04688-1.15625l-5.55469 4.30469m5.55469-4.30469l2.23437 1.00781m11.10157-.98046l-5.59766 4.24609m5.59766-4.2461l2.22656 1.03126m11.70312.26562l-6.82812 1.65625m5.83594-1.41797l.8125.91797m12.875-2.45703l-5.58985 4.25781m5.58985-4.25781l2.23046 1.02734m11.54688-.21875l-6.51172 2.64063m6.51172-2.64063l1.8789 1.57032m11.27735-1.90625l-6.19922 3.30859m6.19922-3.3086l2.03906 1.3711m11.11328-1.64844l-5.8711 3.86328m5.8711-3.86328l2.15235 1.17578m10.8164-1.61718l-5.17968 4.74609m5.17968-4.7461l2.3164.82032m-3.0703-.1289l2.3164.8203m12.0039-1.20312l-5.68358 4.13281m5.68359-4.13281l2.20703 1.07422m-3.03125-.47266l2.20313 1.07422m-3.03125-.47266l1.10156.53516m14.04297-1.46875l-6.03516 3.59375m6.03516-3.59375l2.09765 1.26953m-2.97656-.7461l2.10156 1.26954m-2.97656-.7461l1.04688.63282m13.38671-2.46875l-4.76171 5.16797m4.76171-5.16797l2.3711.6211m-3.0664.1328l2.375.6211m-3.06641.1289l1.1875.3125m13.1328-2.11718l-4.0039 5.77344m4.0039-5.77344l2.4375.28515m-3.01952.5547l2.4375.28515m11.54297-1.07032l-4.16797 5.66016m4.16797-5.66016l2.42578.35938m-3.03516.46484l2.42969.35938m11.33984-1.28906l-3.85937 5.875m3.85937-5.875l2.4414.22656m-3.0039.6289l1.22266.11329m12.95312-.7461l-4.45703 5.42969"/><g clip-path="url(#W)"><path fill="none" stroke="#000" stroke-linecap="round" stroke-linejoin="round" stroke-miterlimit="10" stroke-width=".5" d="M465.78906 411.03906l2.40625.48047"/></g><path fill="none" stroke="#000" stroke-linecap="round" stroke-linejoin="round" stroke-miterlimit="10" stroke-width=".5" d="M465.14063 411.82813l2.40625.48437"/><g clip-path="url(#X)"><path fill="none" stroke="#000" stroke-linecap="round" stroke-linejoin="round" stroke-miterlimit="10" stroke-width=".5" d="M147.39063 399.51953l-6.78125 1.83985"/></g><path fill="none" stroke="#000" stroke-linecap="round" stroke-linejoin="round" stroke-miterlimit="10" stroke-width=".5" d="M147.39063 399.51953l1.67968 1.78906m11.46485-2.27343l-6.44141 2.80468m6.4414-2.80468l1.92188 1.52734m11.6875-.17969l-7.02734.11328m7.02734-.11328l1.1836 2.14453m12.10546-2.5l-6.97656.82032m6.97656-.82032l1.39844 2.01563m-2.41406-1.89453l1.39844 2.01562m12.76953-2.85937l-6.65235 2.26953m6.65235-2.26953l1.78906 1.67578m-2.75781-1.34766l.89453.83985m13.53516-.58594l-6.94141 1.10547m6.9414-1.10547l1.47657 1.95703m-2.48828-1.79688l.73828.97657m13.53125-1.41016l-6.82813 1.65235m6.82813-1.65235l1.6289 1.83594m-2.62109-1.59766l.8125.91797m13.3086-1.72265l-6.45313 2.78125m6.45312-2.78125l1.91407 1.53515m-2.85547-1.1289l.95703.76562m13.17969-1.41797l-6.21875 3.27344m6.21875-3.27344l2.02734 1.3789m-2.92969-.90234l1.01172.69141m12.82422-1.7461l-5.45313 4.4297m5.45313-4.4297l2.26172.95704m-3.05469-.3125l1.1289.47656m13.06641-1.01172l-5.625 4.21094m5.625-4.21094l2.21875 1.04297m11.07813-1.0664l-5.58985 4.26171m4.77344-3.64062l1.11719.51172m13.16797-.91016l-5.89844 3.8164m5.89844-3.8164l2.14453 1.19531m11.54687-.42578l-6.65234 2.27344m6.65234-2.27344l1.78907 1.67969m11.20312-2.36328l-6.00781 3.64062m6.00781-3.64062l2.10938 1.25781m10.83593-1.76563l-5.26562 4.65625m5.26562-4.65625l2.29688.85938m10.75781-1.1211l-4.7461 5.1797m4.7461-5.1797l2.375.6172m11.6836.35156l-6.23438 3.24609m6.23438-3.2461l2.02343 1.38673m-2.92968-.91407l2.02343 1.38672m11.6211-2.66406l-5.08203 4.85156m5.08203-4.85156l2.33203.77344m-3.07031-.06641l2.32812.76953m12.29688-.67969l-6.22266 3.25782m6.22266-3.25782l2.02734 1.38672m-2.92969-.91015l2.02344 1.3828m12.38281-1.43358L407 401.64063m6.60156-2.40625l1.82422 1.64062m-2.78516-1.28906l1.82422 1.64062m11.91407-2.96094l-5.52344 4.34766m5.52344-4.34765l2.24218.98828m-3.04687-.35547l2.2461.98828m11.32812-2.17578l-4.4336 5.45312m4.4336-5.45312l2.40625.47265m-3.05078.32032l2.40625.47265m-3.05079.32031l1.20313.23829m14.1289-1.01563l-5.89062 3.83594m5.89063-3.83594l2.14843 1.1875m-3.0078-.6289l1.07421.59375m12.89453-1.4375l-5.47656 4.40625"/><g clip-path="url(#Y)"><path fill="none" stroke="#000" stroke-linecap="round" stroke-linejoin="round" stroke-miterlimit="10" stroke-width=".5" d="M466.30078 398.23438l2.2539.96875"/></g><g clip-path="url(#Z)"><path fill="none" stroke="#000" stroke-linecap="round" stroke-linejoin="round" stroke-miterlimit="10" stroke-width=".5" d="M465.5039 398.8789l2.25391.96485"/></g><g clip-path="url(#aa)"><path fill="none" stroke="#000" stroke-linecap="round" stroke-linejoin="round" stroke-miterlimit="10" stroke-width=".5" d="M147.38281 386.16797l-6.76562 1.91015"/></g><path fill="none" stroke="#000" stroke-linecap="round" stroke-linejoin="round" stroke-miterlimit="10" stroke-width=".5" d="M147.38281 386.16797l1.69531 1.77344m11.6172-1.77344l-6.76173 1.91015m6.76172-1.91015l1.69922 1.77344m-2.6836-1.4961l.85157.88672m13.58203-.1914l-7.02734-.03516m7.02734.03515l1.14063 2.17188m-2.16407-2.17578l.57032 1.08594m13.6875-1.85157l-6.8672 1.50391m6.8672-1.5039l1.58593 1.87109m-2.58593-1.65235l.79297.9375m13.53515.28125l-6.89453-1.37109m6.89453 1.3711l.70703 2.35156m12.67578-3l-7.02734-.07032m7.02734.07032l1.12891 2.17578m-2.15234-2.1875l.5664 1.08984m13.66016-1.9961l-6.80469 1.76173m6.80469-1.76172l1.65625 1.8086M226.30078 386.5l.83203.90234m13.1914-1.89843l-6.23827 3.23828m6.23828-3.23828l2.01953 1.39453m-2.92578-.92188l1.00781.69531m13.04688-1.45703l-5.90235 3.81641m5.90235-3.8164l2.14062 1.1953m-3-.63671l1.07031.59375m12.87891-1.46094l-5.45313 4.4336m5.45313-4.4336l2.25781.95313m-3.05078-.3086l1.1289.47656m12.9375-1.16796l-5.37109 4.52734m5.3711-4.52735l2.27734.91407m11.70703.3125l-6.71093 2.07812m6.71093-2.07812l1.74219 1.72656m11.5039-1.9336l-6.5703 2.48829m5.61328-2.125l.92187.8086m13.13281-1.63673l-6.13672 3.41797m6.13672-3.41797l2.0625 1.33203m11.26953-1.30468l-6.17187 3.36328m6.17187-3.36328l2.04688 1.35156m-2.94531-.86328l1.02343.67578m12.91797-1.58594l-5.6289 4.20703m5.6289-4.20703l2.22266 1.04688m11.58984-.1172l-6.6211 2.34767m6.6211-2.34766l1.8125 1.65625m-2.77343-1.3164l.90234.82812m13.3711-1.17969l-6.61329 2.3711m6.61328-2.3711l1.8164 1.64844m-2.78124-1.30469l.91016.82813m13.29296-1.3672l-6.46093 2.76173m6.46093-2.76172l1.91016 1.54297m-2.85156-1.14063l1.91015 1.53906m11.96485-2.61328l-5.69922 4.10547m5.69922-4.10547l2.20312 1.08594m-3.03125-.48828l2.19922 1.08594m12.11328-1.42579l-6.03906 3.58985m6.03906-3.58985l2.09766 1.27344m-2.97656-.75l2.09765 1.27344m12.24219-1.52734l-6.32812 3.05078m6.32812-3.05078l1.98047 1.44921m-2.90234-1.0039l.98828.72265m12.57422-2.12109l-4.98047 4.95703m4.98047-4.95703l2.34375.72656m-3.06641-.0039l2.34375.72265m12.47266-.2539l-6.53907 2.57422m6.53907-2.57422l1.86718 1.59375m-2.82031-1.21875l.9336.79687m13.23828-1.39062l-6.34766 3.01172"/><g clip-path="url(#ab)"><path fill="none" stroke="#000" stroke-linecap="round" stroke-linejoin="round" stroke-miterlimit="10" stroke-width=".5" d="M466.73438 385.61719l1.97265 1.46094"/></g><path fill="none" stroke="#000" stroke-linecap="round" stroke-linejoin="round" stroke-miterlimit="10" stroke-width=".5" d="M465.8125 386.05469l.98438.73047"/><g clip-path="url(#ac)"><path fill="none" stroke="#000" stroke-linecap="round" stroke-linejoin="round" stroke-miterlimit="10" stroke-width=".5" d="M147.33984 372.71875l-6.67968 2.17969"/></g><path fill="none" stroke="#000" stroke-linecap="round" stroke-linejoin="round" stroke-miterlimit="10" stroke-width=".5" d="M147.33984 372.71875l1.76563 1.70313m-2.73828-1.38672l.88281.85156m13.50781-.77344l-6.88672 1.39063m6.88672-1.39063l1.5586 1.89453m-2.5586-1.6914l.77735.9453m13.60547-.59374l-7.01954.27734m7.01953-.27734l1.23829 2.1211m-2.25782-2.07813l.6172 1.0586m13.71874-1.01563l-7.02344.10937m7.02344-.10937l1.1875 2.14843m12.00781-3.0039l-6.78515 1.82031m6.78515-1.82031l1.67578 1.79297m11.73047-1.32813l-6.96875.89063m6.96875-.89063l1.41797 2.0039m-2.42969-1.875l.70704 1m13.61718-1.16406l-6.96093.96094m6.96093-.96094l1.4375 1.98829m-2.44922-1.84766l.71875.9961m13.33985-2.08204l-6.42188 2.85156m6.42188-2.85156l1.92969 1.51172m-2.8672-1.09765l.96876.7539m12.88672-1.84375l-5.63281 4.20313m5.6328-4.20313l2.21876 1.04688m-3.03906-.4375l1.10937.52734m12.64453-1.57031l-4.86719 5.07031m4.8672-5.07031l2.35937.66797m11.42578-.11329l-5.8086 3.95704m5.8086-3.95704l2.17187 1.14454m11.3789-.7422l-6.28124 3.15626m6.28125-3.15625l2 1.41797m11.5-.97266l-6.64844 2.26563m6.64844-2.26563l1.78906 1.67578m11.41016-1.97265l-6.41797 2.85937m6.41797-2.85937l1.9336 1.51171m11.6289-.71093l-6.91406 1.25781m5.91015-1.07422l.75781.96094m13.6172-.58203l-7.02345.13281m7.02344-.13281l1.19531 2.14062m12.04688-2.79687l-6.8789 1.44531m6.8789-1.44531l1.57422 1.88281m-2.57422-1.67188l.78516.94141m13.49218-1.3164l-6.80078 1.77343m6.80078-1.77344l1.66016 1.8047m-2.65234-1.54688l.83203.90234m13.48828-1.10547l-6.82813 1.66406m6.82813-1.66406l1.63281 1.83203m-2.6289-1.58984l.8164.91797m13.5586-.82031l-6.95704.98437m6.95703-.98437l1.44532 1.98437m-2.45703-1.83984l1.4414 1.98437m12.78906-2.59375l-6.76171 1.91406m6.76171-1.91406l1.69532 1.76953m-2.6797-1.49218l.84767.88671m13.51953-.87109l-6.90235 1.32422m6.90235-1.32422l1.53906 1.91406m-2.54297-1.71875l.76953.95313m13.42578-1.61719l-6.65234 2.26563m6.65234-2.26563l1.78907 1.67969m-2.75782-1.35156l.89453.83984m13.41407-1.08594l-6.70313 2.10156m6.70313-2.10156l1.75 1.71875m11.41015-2.13281l-6.39062 2.92969"/><g clip-path="url(#ad)"><path fill="none" stroke="#000" stroke-linecap="round" stroke-linejoin="round" stroke-miterlimit="10" stroke-width=".5" d="M466.75781 372.34375l1.94922 1.49219"/></g><path fill="none" stroke="#000" stroke-linecap="round" stroke-linejoin="round" stroke-miterlimit="10" stroke-width=".5" d="M465.82813 372.76953l.97265.7461"/><g clip-path="url(#ae)"><path fill="none" stroke="#000" stroke-linecap="round" stroke-linejoin="round" stroke-miterlimit="10" stroke-width=".5" d="M147.24219 359.14063l-6.48438 2.70312"/></g><path fill="none" stroke="#000" stroke-linecap="round" stroke-linejoin="round" stroke-miterlimit="10" stroke-width=".5" d="M147.24219 359.14063l1.89844 1.55859m11.6875-.25l-7.02735.08594m7.02734-.08594l1.1797 2.15234m12.10937-1.69531l-6.97656-.82813m6.97656.82813l.89062 2.28906m12.44922-2.70312h-7.02344m7.02344 0l1.15234 2.16797m12.10938-2.78907l-6.91797 1.2461m6.91797-1.2461l1.51563 1.92579m-2.52344-1.7461l.76172.96485m13.51172-1.375l-6.81641 1.70703m6.8164-1.70704l1.64454 1.82032m-2.63672-1.57422l.82031.91015m13.35156-1.58203l-6.54687 2.5547m6.54687-2.5547l1.85938 1.60157m-2.8125-1.23047l.92969.80078m13.19921-1.48047l-6.26953 3.17578m6.26953-3.17578l2.00782 1.41406m-2.91797-.95312l1 .70703m12.74219-1.88672l-5.3047 4.60938m5.3047-4.60938l2.29296.8789m-3.0625-.20702l1.14453.4375m12.86329-1.19532l-5.14844 4.78516m5.14844-4.78516l2.3164.80078m11.53125-.05468l-6.21093 3.28906m6.21093-3.28906l2.03125 1.3789m11.50782-.85156l-6.66407 2.23438m6.66407-2.23438l1.78125 1.6875m11.71484-.64453l-7.02344.15234m7.02344-.15234l1.19922 2.14062m12.08594-1.60937l-6.96485-.91406m6.96485.91406l.86328 2.29687m12.46093-3.15625l-6.98046.8086m6.98046-.8086l1.39063 2.01954m-2.40625-1.90235l.69531 1.01172m13.65625-.66406l-7.02344-.125m7.02344.125l1.11328 2.1875m-2.13281-2.20313l.55469 1.08985m13.73047-.55079l-6.92578-1.17187m6.92578 1.17188l.77734 2.32812m-1.78516-2.4961l.38672 1.16407m13.98438-1.6875l-7.02344.21094m7.02344-.21094l1.21875 2.13281m-2.23828-2.10156l1.21484 2.13281m13.03516-2.83984l-6.85157 1.5625m6.85157-1.5625l1.60547 1.85547m-2.60157-1.62891l1.60157 1.85938m12.65625-2.28125l-6.75 1.95312m6.75-1.95313l1.71093 1.76172m-2.6914-1.47656l.85547.8789m13.47265-1.04687l-6.8125 1.71875m6.8125-1.71875l1.64844 1.82031m-2.63672-1.5703l.82031.91015m13.54297-.8789l-6.92969 1.15624m6.9297-1.15625l1.49218 1.94922m-2.5-1.78125l.7461.97656m13.53124-1.375l-6.83984 1.6211m6.83984-1.6211l1.6211 1.83985m11.60156-2.16406l-6.65234 2.26562m6.65234-2.26563l1.78906 1.6797m11.40235-1.98438l-6.41016 2.875"/><g clip-path="url(#af)"><path fill="none" stroke="#000" stroke-linecap="round" stroke-linejoin="round" stroke-miterlimit="10" stroke-width=".5" d="M466.76563 359.05469l1.9414 1.50781"/></g><path fill="none" stroke="#000" stroke-linecap="round" stroke-linejoin="round" stroke-miterlimit="10" stroke-width=".5" d="M465.83594 359.47266l.96875.7539"/><g clip-path="url(#ag)"><path fill="none" stroke="#000" stroke-linecap="round" stroke-linejoin="round" stroke-miterlimit="10" stroke-width=".5" d="M147.47266 346.63672l-6.94532 1.08203"/></g><path fill="none" stroke="#000" stroke-linecap="round" stroke-linejoin="round" stroke-miterlimit="10" stroke-width=".5" d="M147.47266 346.63672l1.46875 1.96484m-2.48047-1.80469l.73437.98047m13.63281-.46875l-7.02343-.26171m7.02344.26171l1.0703 2.20704m-2.09374-2.2461l.53515 1.10547m13.80078-1.36719l-7.01953.33985m7.01953-.33985l1.25391 2.10938m-2.27734-2.0586l.6289 1.0547m13.6797-1.40626l-6.96095.9414m6.96094-.9414l1.4336 1.99219m11.91406-1.63281l-7.02344.22265m7.02344-.22265l1.21875 2.1289m12.03906-2.65234l-6.91016 1.26953m6.91016-1.26953l1.52344 1.92187m11.76172-2.05859l-6.85547 1.54297m6.85547-1.54297l1.60156 1.85938m11.33594-2.83204l-6.09766 3.48829m6.09766-3.48829l2.07812 1.3047m11.10547-1.51563l-5.83594 3.91406m4.98828-3.34766l1.08203.58203m13.67579.85938l-7.02344-.10547m6.0039.08984l.5586 1.09375m13.7461-.66015l-6.96485-.9414m6.96484.9414l.85156 2.30078m12.45313-3.3164l-6.9414 1.08984m6.9414-1.08985l1.47266 1.96094m11.87109-1.70313l-7.0039.57813m7.0039-.57813l1.32813 2.0625m-2.34766-1.98046l.66406 1.03125m13.66406-.46485l-6.98828-.72265m6.98828.72265l.92579 2.27344m-1.94141-2.3789l.46094 1.13671m13.86718-1.00781l-6.98437-.76953m6.98437.76953l.91016 2.28125m-1.92578-2.39453l.45312 1.14062m13.89844-1.33203l-7.02344-.16015m7.02344.16015l1.10156 2.1914m-2.125-2.21483l.55079 1.09765m13.77343-.84375l-6.9961-.6211m6.9961.6211l.95703 2.26172m-1.97265-2.35156l.95312 2.26172m13.39063-2.3672l-7.02344-.23046m7.02344.23047l1.08203 2.20312m-2.10156-2.23828l1.07812 2.20313m-2.10156-2.23438l.53906 1.10156m14.73828-1.91406l-6.85937 1.52735m6.85937-1.52735l1.59375 1.86719m-2.59375-1.64453l1.59766 1.86719m-2.59375-1.64454l.79687.9336m14.35157-1.90625l-6.53516 2.58203m6.53516-2.58203l1.86718 1.58984m-2.8164-1.21484l1.86719 1.58984m-2.82032-1.21484l.9336.79687m14.16796-1.80859l-6.30468 3.10547m6.30469-3.10547l1.99218 1.4336m-2.91015-.98048l1.99218 1.4336m12.23047-1.90625l-6.28515 3.14453m6.28515-3.14453l2 1.42578m-2.91406-.96875l2 1.42578m12.26563-1.8125l-6.35547 3.0039m6.35546-3.0039l1.96485 1.46875m-2.89063-1.03125l.98438.73438m13.40234-.8125l-6.64453 2.28515m6.64453-2.28515l1.79297 1.67578m11.65235-1.17188l-6.91016 1.27735"/><g clip-path="url(#ah)"><path fill="none" stroke="#000" stroke-linecap="round" stroke-linejoin="round" stroke-miterlimit="10" stroke-width=".5" d="M467.01563 346.53906l1.52734 1.92188"/></g><path fill="none" stroke="#000" stroke-linecap="round" stroke-linejoin="round" stroke-miterlimit="10" stroke-width=".5" d="M466.01172 346.72656l.76172.96094"/><g clip-path="url(#ai)"><path fill="none" stroke="#000" stroke-linecap="round" stroke-linejoin="round" stroke-miterlimit="10" stroke-width=".5" d="M147.49219 333.48438l-6.98438.7578"/></g><path fill="none" stroke="#000" stroke-linecap="round" stroke-linejoin="round" stroke-miterlimit="10" stroke-width=".5" d="M147.49219 333.48438l1.3789 2.02734m-2.39453-1.91797l.6914 1.01563m13.66017-.70313l-7.02735-.08594m7.02734.08594l1.125 2.17969m-2.14843-2.1914l.5625 1.08983m13.76562-.84375l-7.0039-.55468m7.0039.55469l.97656 2.25m-1.99609-2.33204l.48828 1.125m13.85547-1.3203h-7.02344m7.02344 0l1.15234 2.16796m-2.17187-2.16797l.57422 1.08203m13.57812-2.20312l-6.66015 2.24219m6.66015-2.2422l1.78516 1.6836m-2.7539-1.35937l.89062.84375m13.44922-.98438l-6.77344 1.875m6.77344-1.875l1.6875 1.78125m-2.67188-1.50781l.84375.89062m13.33985-1.51171l-6.53907 2.5703m6.53907-2.5703l1.86328 1.59765m11.53906-1.34765l-6.71484 2.0664m6.71484-2.0664l1.73828 1.73437m11.73438-.66797l-7.02735-.0625m7.02735.0625l1.1328 2.17578m12.17188-2.48047l-7.0078.54688m7.0078-.54688l1.31641 2.07032m11.98828-2.16797l-6.98828.73828m6.98828-.73828l1.375 2.03515m11.96094-1.60156l-7.02734-.125m7.02734.125l1.11328 2.1836m12.1836-1.89844l-6.9922-.69531m6.9922.6953l.93359 2.26954m12.39062-2.3789l-7.01172-.47657m7.01172.47656l1.0039 2.23828m-2.02343-2.30859l.5 1.1211m13.83203-1.00391l-7.0039-.57031m7.0039.5703l.96875 2.25391m-1.98828-2.33593l.97266 2.2539m13.3711-2.51562l-7.02345.11719m7.02344-.1172l1.1875 2.14454m-2.20703-2.1289l1.1875 2.14843m13.1211-2.53516l-6.97266.85938m6.97265-.85938l1.41016 2.01172m-2.42578-1.88672l.70703 1.00391m13.60547-.1289l-6.9336-1.14063m6.9336 1.14062l.78516 2.32422m-1.79688-2.49219l.39453 1.16407m13.95313-1.9961l-6.97657.85938m6.97657-.85938l1.40625 2.00782m-2.42188-1.88282l.70313 1.00391m13.65234-.59766l-7.02734-.20312m7.02734.20312l1.08594 2.19922m-2.10938-2.23047l.54297 1.10157m13.79297-1.26563l-7.02344.1875m7.02344-.1875l1.21094 2.13281m-2.23047-2.10546L414 335.92967m12.89844-3.32421l-6.5625 2.51562m6.5625-2.51562l1.85156 1.60937m-2.8086-1.24609l1.85157 1.61328m12.01172-2.73828l-5.7461 4.03906m5.7461-4.03906l2.1914 1.10938m-3.02734-.52344l2.1875 1.10937m12.29688-1.11719l-6.41016 2.88282m6.41016-2.88281l1.9375 1.5039m-2.8711-1.08203l1.9375 1.5m12.41797-1.64844l-6.625 2.33594"/><g clip-path="url(#aj)"><path fill="none" stroke="#000" stroke-linecap="round" stroke-linejoin="round" stroke-miterlimit="10" stroke-width=".5" d="M466.875 332.69531l1.8086 1.66016"/></g><path fill="none" stroke="#000" stroke-linecap="round" stroke-linejoin="round" stroke-miterlimit="10" stroke-width=".5" d="M465.91016 333.03516l1.80859 1.66015"/><g clip-path="url(#ak)"><path fill="none" stroke="#000" stroke-linecap="round" stroke-linejoin="round" stroke-miterlimit="10" stroke-width=".5" d="M147.51172 320.39063l-7.02344.3164"/></g><path fill="none" stroke="#000" stroke-linecap="round" stroke-linejoin="round" stroke-miterlimit="10" stroke-width=".5" d="M147.51172 320.39063l1.2461 2.11328m-2.26954-2.06641l.625 1.05469m13.70703-1.1914l-7.01172.49218m7.01172-.49219l1.30078 2.08203m-2.3203-2.00781l.64843 1.03906m13.5625-1.8164l-6.76563 1.89843m6.76563-1.89843l1.69531 1.77343m-2.67969-1.49609l.84766.88672m13.14844-1.91016l-6.15625 3.39453m6.15625-3.39453l2.05469 1.33985m-2.95313-.84766l1.02734.67188m12.32422-2.19141l-4.4336 5.44922m4.4336-5.44922l2.41016.47265m-3.05469.32032l1.20313.23437m13.71484.1914l-6.34766 3.01173m6.34766-3.01172l1.96875 1.46484m11.5664-.85937l-6.78906 1.80078m6.78907-1.80078l1.67187 1.79687m11.73047-1.35547l-6.96484.91797m6.96484-.91797l1.42578 1.9961m11.91016-1.79297l-7.00781.51172m7.0078-.51172l1.3086 2.07422m12.0039-2.14063l-7 .64453m7-.64453l1.34376 2.05078m11.97656-1.98828l-7.00781.51563m7.00781-.51563l1.30469 2.07813m12.01172-1.6289l-7.01563-.38282m7.01563.38281l1.03515 2.22656m12.10938-1.3203l-6.67578-2.19532m6.67578 2.19531l.41797 2.41797m13.03515-2.9961l-6.94922-1.03906m6.94922 1.03907l.82032 2.3164m12.53125-2.96875l-7.02344.26563m7.02344-.26563l1.23437 2.1211m12.07422-2.21875l-7.01172.46484m7.01172-.46484l1.29297 2.08593m12-1.3828l-6.96485-.94142m6.96485.94141l.85156 2.30078m12.25781-4.03515l-6.55468 2.52734m5.60156-2.16016l.92969.8047m13.1289-1.625l-6.13281 3.43358m6.13281-3.43359l2.0625 1.32422m11.1914-1.42578l-6.01171 3.63672m6.01172-3.63672l2.10547 1.25781m11.32812-1.05078l-6.2461 3.22266m5.33595-2.75391l1.0078.69922m13.60548.33984l-7.02344.20703m6-.17578l.60937 1.0664m11.58985-4.23046l-2.7461 6.46875m2.34766-5.52734l1.22266-.10547m13.55078-.13672l-4.86328 5.07422m4.86328-5.07422l2.35937.66797m-3.0664.07031l1.17968.33203m13.23047-.6289l-5.64062 4.1914"/><g clip-path="url(#al)"><path fill="none" stroke="#000" stroke-linecap="round" stroke-linejoin="round" stroke-miterlimit="10" stroke-width=".5" d="M466.38281 318.45313l2.21485 1.05078"/></g><g clip-path="url(#am)"><path fill="none" stroke="#000" stroke-linecap="round" stroke-linejoin="round" stroke-miterlimit="10" stroke-width=".5" d="M465.5625 319.0625l2.21484 1.05078"/></g><path fill="none" stroke="#000" stroke-linecap="round" stroke-linejoin="round" stroke-miterlimit="10" stroke-width=".5" d="M464.74219 319.67188l1.10547.52734"/><path fill="#00f" fill-rule="evenodd" d="M210.70313 472.08594h8.62109V461.9414h-8.6211v10.14453"/><path fill="azure" fill-rule="evenodd" d="M212.53906 463.77344h.83203v2.82422h3.28516v-2.82422h.83203v6.48047h-.83203v-2.91797h-3.28516v2.91797h-.83203v-6.48047"/><path fill="#00f" fill-rule="evenodd" d="M388.23828 472.08594h8.61719V461.9414h-8.61719v10.14453"/><path fill="azure" fill-rule="evenodd" d="M390.07031 463.77344h.83594v2.82422h3.28516v-2.82422h.83203v6.48047h-.83203v-2.91797h-3.28516v2.91797h-.83594v-6.48047"/><path fill="#ff3030" fill-rule="evenodd" d="M455.50781 454.33203h7.6914V444.1875h-7.6914v10.14453"/><path fill="azure" fill-rule="evenodd" d="M457.33984 446.01953h.83594v5.73828h3.1914V452.5h-4.02734v-6.48047"/><path fill="#ff3030" fill-rule="evenodd" d="M371.17969 423.26563h7.6914v-10.14844h-7.6914v10.14844"/><path fill="azure" fill-rule="evenodd" d="M373.01172 414.95313h.83594v5.73828h3.1914v.74218h-4.02734v-6.48046"/><path fill="#00f" fill-rule="evenodd" d="M144.1289 414.38672h8.6172v-10.14453h-8.6172v10.14453"/><path fill="azure" fill-rule="evenodd" d="M145.96094 406.07422h.83594v2.82422h3.28515v-2.82422h.83203v6.48047h-.83203v-2.91406h-3.28516v2.91406h-.83593v-6.48047"/><path fill="#ff3030" fill-rule="evenodd" d="M198.08203 414.38672h7.69531v-10.14453h-7.6953v10.14453"/><path fill="azure" fill-rule="evenodd" d="M199.91797 406.07422h.83203v5.74219h3.19531v.73828h-4.02734v-6.48047"/><path fill="#ff3030" fill-rule="evenodd" d="M184.76953 383.32031h7.6914v-10.14844h-7.6914v10.14844"/><path fill="azure" fill-rule="evenodd" d="M186.60156 375.00781h.83203v5.73828h3.19532v.7422h-4.02735v-6.48048"/><path fill="#ffffe0" fill-rule="evenodd" d="M332.86719 389.16797h22.17969v-10.1914h-22.1797v10.1914"/><path fill-rule="evenodd" d="M336.36719 380.8086h.50781v6.29687h-.78516v-4.49219h-1.39062v-.55469l.5625-.0664.25-.05078.23047-.08985.20312-.14453.17578-.20703.14063-.29688.10547-.39453m4.8125 0l.23047.01954.21875.05468.20703.08985.19531.12109.1875.14844.16797.17578.30469.42187.24218.4922.1797.54687.11327.57812.03516.59375-.03516.58985-.11328.58593-.17969.55469-.24218.5-.3047.42969-.16796.17969-.1875.15234-.19531.125-.20703.08984-.21875.0586-.23047.01953-.23047-.01953-.21875-.0586-.20703-.08984-.19531-.125-.1836-.15235-.17187-.17968-.30079-.42969-.24609-.5-.17969-.55469-.10937-.58594-.03906-.58984h.83203l.03125.5625.08203.5039.125.44532.16015.3711.19141.30077.21094.22266.22265.13672.22657.04688.22656-.04688.22266-.13672.21093-.22265.19141-.30079.16016-.37109.1289-.44531.08203-.5039.02735-.5625-.02735-.5625-.08203-.5-.1289-.4375-.16016-.36329-.1914-.29297-.21094-.21484-.22266-.13281-.22656-.04297-.22656.04296-.22266.13282-.21094.21484-.1914.29297-.16016.36328-.125.4375-.08203.5-.03125.5625h-.83203l.03906-.59375.10937-.57812.1797-.54688.24608-.49219.30079-.42187.17187-.17578.1836-.14844.1953-.1211.20704-.08984.21875-.05469.23047-.01953m5.09375 0h.50781v6.29688h-.78906v-4.49219h-1.38672v-.55469l.5586-.0664.2539-.05078.23047-.08985.20312-.14453.17188-.20703.14062-.29688.10938-.39453m2.82031 2.17579h.78906l.01953-.31641.0586-.28516.09765-.2539.14063-.21485.1836-.17578.22265-.1289.26562-.07813.3086-.02734.23437.01953.22656.0625.20313.10156.17969.14063.14844.17187.11328.20703.0703.23438.02735.26562-.02344.26953-.0664.22266-.10938.1914-.15625.17188-.19921.16406-.2461.16406-.63672.39063-.53515.3125-.4375.3164-.34766.32423-.26172.33593-.1914.35156-.125.3711-.07032.39062-.01953.42188h4.21094v-.74219h-3.33203l.08203-.28515.11328-.23438.14844-.20313.1875-.17968.23047-.17188.28125-.17578.71484-.41797.41797-.20312.34375-.23047.28125-.2539.21875-.26563.16406-.27735.10938-.28515.0664-.28516.01953-.28125-.04296-.38281-.1211-.34766-.1875-.3086-.25-.26171-.30078-.21484-.34766-.15625-.3789-.09766-.40625-.03516-.4375.03125-.39844.10157-.35547.16406-.30469.23437-.24609.3047-.1875.375-.11328.4453-.04297.51954"/><path fill="#ffffe0" fill-rule="evenodd" d="M231.48438 414.6211h22.17968v-10.19532h-22.17969v10.19531"/><path fill-rule="evenodd" d="M234.98438 406.26172h.5078v6.29297h-.78515v-4.48828h-1.39062v-.5547l.5625-.0664.25-.05469.23047-.08984.20312-.14062.17578-.21094.14063-.29297.10547-.39453m4.8125 0l.23046.01953.21875.05469.20703.08984.19922.1211.1836.14843.17187.17578.30078.41797.2422.4961.17968.54296.11328.58204.03906.58984-.03906.59375-.11328.58203-.17969.55469-.24219.5039-.30078.42579-.17187.17968-.1836.15625-.19922.1211-.20703.09375-.21875.05469-.23047.01953-.22656-.01954-.21875-.05468-.21094-.09375-.1953-.1211-.1836-.15625-.17188-.17968-.30078-.42579-.24219-.5039-.18359-.55469-.10937-.58203-.03907-.59375h.83203l.03125.5625.08204.50781.125.4414.16406.375.1875.30079.21094.22266.22265.13671.22656.04688.22657-.04688.22265-.13671.21094-.22266.1914-.30078.16407-.375.125-.4414.08203-.50782.02734-.5625-.02734-.5625-.08203-.5-.125-.4336-.16406-.36718-.1914-.29297-.21095-.21094-.22265-.13281-.22656-.04688-.22657.04688-.22265.13281-.21094.21094-.1875.29297-.16406.36719-.125.43359-.08203.5-.03125.5625h-.83204l.03907-.58984.10937-.58204.1836-.54296.24218-.4961.30078-.41797.17188-.17578.1836-.14844.1953-.12109.21094-.08984.21875-.05469.22656-.01953m5.09375 0h.50782v6.29297h-.78516v-4.48828h-1.39062v-.5547l.5625-.0664.25-.05469.23047-.08984.20312-.14062.17188-.21094.14453-.29297.10547-.39453m2.82421 2.17578H248.5l.01953-.3164.0586-.28907.10156-.25.13672-.21484.18359-.17578.22266-.12891.26562-.08203.3086-.02735.23828.02344.22265.0625.20313.10156.17969.13672.14843.17579.11328.20312.07032.23828.02734.26172-.02344.26953-.0664.22656-.10938.19141-.15234.17188-.20313.16015-.2461.16797-.6328.38672-.53907.3125-.4375.32031-.34765.32422-.26172.33594-.1914.34765-.125.3711-.07032.39453-.01953.41797h4.21094v-.73828h-3.33203l.08203-.28516.11718-.23828.14453-.19922.1875-.1836.23047-.16796.28125-.17578.71485-.41797.41797-.20703.34375-.23047.28125-.25.21875-.26563.16406-.28125.11328-.28125.0625-.28515.01953-.28125-.04297-.38282-.11719-.34765-.1914-.3086-.25-.26562-.30078-.21094-.34766-.16015-.3789-.09766-.40625-.03125-.4375.03125-.39844.09765-.35156.16797-.3047.23438-.25.30469-.18359.375-.11718.4453-.03907.51954"/><path fill="#ffffe0" fill-rule="evenodd" d="M319.55078 347.52734h22.1836v-10.1953h-22.1836v10.1953"/><path fill-rule="evenodd" d="M323.05078 339.16797h.51172v6.29297h-.78906v-4.48828h-1.38672v-.5547l.5586-.0664.25-.05469.23046-.08984.20313-.14062.17578-.21094.14062-.29297.10547-.39453m4.8125 0l.23047.01953.21875.05469.21094.08984.19531.1211.1836.14843.17187.17578.30078.41797.24219.4961.17969.54687.11328.57813.03906.58984-.03906.59375-.11329.58594-.17968.55078-.24219.5039-.30078.42579-.17188.17968-.18359.15625-.19531.1211-.21094.09375-.21875.05469-.23047.01953-.22656-.01954-.21875-.05468-.21094-.09375-.19531-.1211-.1836-.15625-.17187-.17968-.30078-.42579-.24219-.5039-.17969-.55078-.11328-.58594-.03906-.59375h.83594l.02734.5625.08203.50781.125.4414.16406.375.19141.30079.21094.22266.22265.13671.22266.04688.22656-.04688.22266-.13671.21094-.22266.1914-.30078.16407-.375.125-.4414.08203-.50782.02734-.5625-.02734-.5625-.08203-.5-.125-.4336-.16407-.36718-.1914-.29297-.21094-.21094-.22266-.13281-.22656-.04688-.22265.04688-.22266.13281-.21094.21094-.1914.29297-.16407.36719-.125.43359-.08203.5-.02734.5625h-.83594l.03906-.58984.11328-.57813.1797-.54687.24218-.4961.30078-.41797.17188-.17578.18359-.14844.19531-.12109.21094-.08984.21875-.05469.22656-.01953m5.09375 0h.50781v6.29297h-.78515v-4.48828h-1.39063v-.5547l.5625-.0664.25-.05469.23047-.08984.20313-.14062.17578-.21094.14062-.29297.10547-.39453m6.80469 1.61719h-.78906l-.05079-.21094-.08203-.1875-.10546-.15625-.12891-.13281-.14844-.10157-.16015-.07421-.16797-.04688-.17188-.01563-.32812.04297-.28907.1211-.24609.19531-.20313.26563-.16015.33984-.11719.40234-.07031.46875-.02344.52735.1914-.20313.1836-.16015.1875-.1211.1836-.08984.1875-.0586.1953-.03906.39844-.02344.3086.03125.32031.09375.3164.15235.29298.21875.2578.28515.19923.35157.07031.19921.05469.21875.02734.23438.0039.25-.78515.04688-.02734-.25782-.07813-.25-.1211-.23437-.16015-.21094-.19531-.17969-.21875-.13672-.24219-.08593-.2539-.03125-.25391.03125-.24219.08593-.21875.13672-.1914.17969-.16407.21094-.12109.23437-.07813.25-.02734.25781.02735.26172.07812.25.1211.23438.16406.21094.1914.17578.21875.13672.24219.08984.2539.03125.25391-.03125.24219-.08984.21875-.13672.19531-.17578.16016-.21094.1211-.23438.07812-.25.02734-.26171.78516-.04688-.03125.3711-.08985.375-.16015.35546-.22266.32813-.28906.28515-.16797.1172-.1914.10155-.20313.08204-.22656.0625-.23829.03906-.26171.01172-.28125-.01563-.26172-.04687-.23828-.07422-.21485-.10547-.19531-.13281-.17188-.15625-.15625-.1797-.13671-.20312-.11329-.22265-.10156-.23828-.14453-.53516-.08594-.59375-.02734-.64063.03906-.74609.11328-.66015.1875-.57813.1211-.25781.13672-.23047.15234-.20703.16797-.17969.1875-.15625.20312-.1289.21875-.10157.23047-.07422.25-.04297.26172-.01562.36328.03125.33203.09765.29688.15235.25781.19922.21094.23828.16406.27734.11719.30078.0625.32032"/><path fill="#ffffe0" fill-rule="evenodd" d="M186.40234 326.66797h22.1797v-10.1914h-22.1797v10.1914"/><path fill-rule="evenodd" d="M189.90234 318.3086h.50782v6.29296h-.78516v-4.48828h-1.39063v-.55469l.5586-.0664.2539-.05469.23047-.08984.20313-.14063.17187-.21094.14453-.29296.10547-.39454m4.8125 0l.23047.01954.21875.05468.20703.08985.19532.12109.18359.14844.17188.17578.30468.41797.24219.4961.17969.54687.10937.57812.03906.58985-.03906.59375-.10937.58593-.17969.55078-.24219.50391-.30469.42969-.17187.17969-.1836.15234-.1953.1211-.20704.09374-.21875.05469-.23047.01953-.23047-.01953-.21875-.05469-.20703-.09375-.1953-.1211-.1875-.15233-.16798-.1797-.30469-.42968-.24218-.5039-.17969-.55079-.10938-.58594-.03906-.59375h.83203l.02735.5625.08203.50782.1289.4414.16016.375.1914.30079.21095.22265.22265.13672.22656.04688.22657-.04688.22265-.13672.21094-.22265.1914-.30079.16016-.375.1289-.4414.07813-.50781.03125-.5625-.03125-.5586-.07812-.5039-.1289-.4336-.16016-.36719-.19141-.29296-.21094-.21094-.22265-.13281-.22657-.04297-.22656.04296-.22266.13282-.21093.21094-.1914.29296-.16017.3672-.1289.43358-.08203.50391-.02735.5586h-.83203l.03906-.58985.10938-.57812.17969-.54688.24219-.4961.30468-.41796.16797-.17578.1875-.14844.19531-.1211.20703-.08984.21875-.05469.23047-.01953m5.08985 0h.51172v6.29297h-.78907v-4.48828h-1.38672v-.55469l.5586-.0664.2539-.05469.22657-.08984.20312-.14063.17578-.21094.14063-.29296.10547-.39454m6.80469 1.6172h-.78516l-.05078-.21095-.08203-.1875-.10938-.15625-.1289-.1328-.14844-.10157-.16016-.07422-.16797-.04688-.17187-.01171-.32813.03906-.28515.1211-.2461.1953-.20312.26563-.16406.33984-.11329.40235-.0703.46875-.02345.52734.1875-.20312.1875-.16016.1836-.1211.1875-.08984.1875-.0586.1914-.03905.40235-.02344.30469.03125.3203.09375.31641.15234.29688.21875.2539.28516.19922.35156.07422.19922.05078.21875.03125.23438.00391.25-.78906.04687-.02735-.25781-.07812-.25-.1211-.23438-.16015-.21094-.1914-.17968-.22266-.13672-.23828-.08594-.25782-.03125-.2539.03125-.23828.08594-.22266.13672-.1914.17969-.16016.21093-.1211.23438-.07812.25-.02735.25781.02735.26172.07812.25.1211.23437.16015.21094.1914.17578.22267.13672.23828.08985.2539.03125.25781-.03125.23829-.08985.22265-.13672.1914-.17578.16017-.21094.12109-.23437.07812-.25.02735-.26172.78906-.04688-.03125.3711-.09375.375-.15625.35547-.22266.32812-.28906.28516-.17187.11719-.1875.10156-.20703.08594-.22266.05859-.24219.03906-.26172.01172-.28125-.01562-.26172-.04688-.23437-.07422-.21875-.10547-.1914-.1328-.17579-.15626-.15625-.17969-.13281-.20312-.11719-.22266-.09766-.23828-.14843-.53515-.08594-.59375-.02734-.64063.03906-.7461.11328-.66015.1875-.57813.1211-.2578.13671-.23048.15235-.20703.17187-.17969.1875-.15625.19922-.1289.21875-.10156.23438-.07422.24609-.04297.26172-.01563.36719.03125.33203.09766.29687.15234.2539.19922.21095.23828.16796.27735.11328.30078.0625.32031"/></g></defs><use xlink:href="#an"/></svg>