<svg xmlns="http://www.w3.org/2000/svg" role="img" xmlns:xlink="http://www.w3.org/1999/xlink" viewBox="142.45 309.95 326.84 171.84"><defs><clipPath id="a"><path d="M144 311.67188h324v168.65625H144zm0 0"/></clipPath><clipPath id="b"><path d="M144 479h4v1.32813h-4zm0 0"/></clipPath><clipPath id="c"><path d="M147 480h2v.32813h-2zm0 0"/></clipPath><clipPath id="d"><path d="M146 480h2v.32813h-2zm0 0"/></clipPath><clipPath id="e"><path d="M153 479h9v1.32813h-9zm0 0"/></clipPath><clipPath id="f"><path d="M160 480h2v.32813h-2zm0 0"/></clipPath><clipPath id="g"><path d="M159 480h2v.32813h-2zm0 0"/></clipPath><clipPath id="h"><path d="M166 479h9v1.32813h-9zm0 0"/></clipPath><clipPath id="i"><path d="M173 480h3v.32813h-3zm0 0"/></clipPath><clipPath id="j"><path d="M172 480h2v.32813h-2zm0 0"/></clipPath><clipPath id="k"><path d="M180 479h8v1.32813h-8zm0 0"/></clipPath><clipPath id="l"><path d="M187 480h2v.32813h-2zm0 0"/></clipPath><clipPath id="m"><path d="M193 479h9v1.32813h-9zm0 0"/></clipPath><clipPath id="n"><path d="M200 480h2v.32813h-2zm0 0"/></clipPath><clipPath id="o"><path d="M206 480h9v.32813h-9zm0 0"/></clipPath><clipPath id="p"><path d="M213 480h3v.32813h-3zm0 0"/></clipPath><clipPath id="q"><path d="M220 479h8v1.32813h-8zm0 0"/></clipPath><clipPath id="r"><path d="M226 479h2v1.32813h-2zm0 0"/></clipPath><clipPath id="s"><path d="M233 479h8v1.32813h-8zm0 0"/></clipPath><clipPath id="t"><path d="M239 479h2v1.32813h-2zm0 0"/></clipPath><clipPath id="u"><path d="M246 479h9v1.32813h-9zm0 0"/></clipPath><clipPath id="v"><path d="M252 479h2v1.32813h-2zm0 0"/></clipPath><clipPath id="w"><path d="M260 479h8v1.32813h-8zm0 0"/></clipPath><clipPath id="x"><path d="M266 479h2v1.32813h-2zm0 0"/></clipPath><clipPath id="y"><path d="M273 479h8v1.32813h-8zm0 0"/></clipPath><clipPath id="z"><path d="M288 477h5v3.32813h-5zm0 0"/></clipPath><clipPath id="A"><path d="M301 477h6v3.32813h-6zm0 0"/></clipPath><clipPath id="B"><path d="M314 477h6v3.32813h-6zm0 0"/></clipPath><clipPath id="C"><path d="M328 477h5v3.32813h-5zm0 0"/></clipPath><clipPath id="D"><path d="M340 477h7v3.32813h-7zm0 0"/></clipPath><clipPath id="E"><path d="M355 476h4v4.32813h-4zm0 0"/></clipPath><clipPath id="F"><path d="M368 476h4v4.32813h-4zm0 0"/></clipPath><clipPath id="G"><path d="M380 478h8v2.32813h-8zm0 0"/></clipPath><clipPath id="H"><path d="M393 479h8v1.32813h-8zm0 0"/></clipPath><clipPath id="I"><path d="M393 479h2v1.32813h-2zm0 0"/></clipPath><clipPath id="J"><path d="M408 476h4v4.32813h-4zm0 0"/></clipPath><clipPath id="K"><path d="M420 478h8v2.32813h-8zm0 0"/></clipPath><clipPath id="L"><path d="M425 479h3v1.32813h-3zm0 0"/></clipPath><clipPath id="M"><path d="M434 477h6v3.32813h-6zm0 0"/></clipPath><clipPath id="N"><path d="M447 477h6v3.32813h-6zm0 0"/></clipPath><clipPath id="O"><path d="M461 477h5v3.32813h-5zm0 0"/></clipPath><clipPath id="P"><path d="M144 466h4v2h-4zm0 0"/></clipPath><clipPath id="Q"><path d="M144 453h4v1h-4zm0 0"/></clipPath><clipPath id="R"><path d="M144 440h4v1h-4zm0 0"/></clipPath><clipPath id="S"><path d="M465 437h3v2h-3zm0 0"/></clipPath><clipPath id="T"><path d="M144 426h4v2h-4zm0 0"/></clipPath><clipPath id="U"><path d="M465 424h3v2h-3zm0 0"/></clipPath><clipPath id="V"><path d="M144 413h4v2h-4zm0 0"/></clipPath><clipPath id="W"><path d="M466 411h2v3h-2zm0 0"/></clipPath><clipPath id="X"><path d="M465 412h3v2h-3zm0 0"/></clipPath><clipPath id="Y"><path d="M144 399h4v3h-4zm0 0"/></clipPath><clipPath id="Z"><path d="M466 398h2v3h-2zm0 0"/></clipPath><clipPath id="aa"><path d="M144 385h4v4h-4zm0 0"/></clipPath><clipPath id="ab"><path d="M466 386h2v3h-2zm0 0"/></clipPath><clipPath id="ac"><path d="M144 372h4v4h-4zm0 0"/></clipPath><clipPath id="ad"><path d="M466 373h2v4h-2zm0 0"/></clipPath><clipPath id="ae"><path d="M144 358h4v5h-4zm0 0"/></clipPath><clipPath id="af"><path d="M466 360h2v4h-2zm0 0"/></clipPath><clipPath id="ag"><path d="M144 344h3v6h-3zm0 0"/></clipPath><clipPath id="ah"><path d="M466 346h2v3h-2zm0 0"/></clipPath><clipPath id="ai"><path d="M144 331h4v5h-4zm0 0"/></clipPath><clipPath id="aj"><path d="M466 332h2v3h-2zm0 0"/></clipPath><clipPath id="ak"><path d="M144 319h4v3h-4zm0 0"/></clipPath><clipPath id="al"><path d="M465 317h3v3h-3zm0 0"/></clipPath><g id="am" clip-path="url(#clip1)"><path fill="#fff" fill-opacity="0" fill-rule="evenodd" d="M0 0h1000v1000H0zm0 0"/><path fill="#d3d3d3" fill-opacity="0" fill-rule="evenodd" d="M162.15234 355.86719l-.23437.29297.0586.23437.11718.17188.17578.23437.29297.34766.11328.0586.11719-.17188.0586-.23438.17577-.17578.46485-.17578h.69922l.23437.29297.28906.8164.0586.17579.17578.23046.35156.23438.69922.69922.17188.17578.23437.34765.23438.41016.28906.58203.41015.46485.23047.23437.23438.17578.11719.23047.17578.29297.17187 1.16406v.23438l.0586.28906.05859.11719.11719.11719.34765.41015.11719.17188.17578.17578.17578.23437.11719.17188.17188.35156.05859.23438.23437.40625.23438-.0586-.17578.17578-.0586.92969h-.58203l-.23437-.11328-.34766.11328-.11719.11719-.05859.29297-.0586.17578-.11718.17187-.46484.29297-.0586.23438-.0586.11328v.64453l.0586.17187v.41016l.0586.0586v.40624l.05859.40625.11719.17579.05859.05859.23047.64062-.0586.29297v.69922l-.05859.58203v.23438l-.0586.23047-.05468.35156v1.92187l.05469.1172h.42578l-.36719.11718-.02344.35156.89063 1.16797 1.74219.53906 1.33984.35938v.53906l.08984.8086.53516.71484 1.51953.26953.89063-.08594.08984 1.16406.53516.1797 1.16015-.1797 2.05469-.98437 1.16016-.36328 1.8789-.17578 1.69531-.1797-.17968.71876-1.51563.08594-1.25.08984-.80469.26953-1.07421.8086.26953.71875.53515.89843-.17968.625-.26563.8086.26563 1.07812.625.89844.80468.17969 1.25-.1797-.26562.72267.09766.5039.05468.29297v.17188l.0586.29296v.40625l.17578.1172.35156.11718h.40625l.29297-.17578.11328-.11719.0586-.11719.11718-.23047.0586-.17578.35156-.46484.23047-.17578.17578-.0586.17578.0586.0586.17578.11718.98828.05469.46875.0586.17188.11718.23437.17578.0586.8164.05859h.28907l.11719.23437.05859.40625.0586.35156v1.10547l.11718.29297.11719.34766.28906.69922.17578.35156.58203.7539.35157.17579.17187.0586.46875.23437.64063.46484.34765.23438.29297.17578.29297.05468.23047.0625.8164.34766.29297.17578.11328.17188.35157.35156.11719.17578.52343.64063v.28906l.0586.35156v.34766l.05859.35156.0586.28906.11718.0586.17188.05859h.17578l.58203.23437.17578.1172.17578.28905.17578.23438.11328.23437.29297.23047.11719.11719v.41016l.0586.05468.28906.23438.23437.11719.0586.11718.11718.17188.0586.11719.23047.23437.05859.17578.23437.0586.1172.05859-.1172.11328-.05859.11719v.11719l-.11719.29296-.11719.28907v.58203l.17579.11719.11718.05859.0586.11719.11719.11719.11328.05859.17578.34765.0586.35157.05858.40625v.17578l-.05859.17578-.11719.69922v.17187l.1172.17579.29296.29296h.40625l.17578.1172.11719.17187.11719.29296v.23438h-.52735l-.23047-.23438h-.23437l-.17578.0586-.0586.69922.0586.34765.11719.17579.17578.41015.11718.23047.28907.46875.17578.05469h.52344l.23437.0586.75781.64062.0586.29296v.23438l.05859.0586.23047.34765v.35156l-.11719.17188v.29297l.29297.28906.29297.17578.17187.0586.29297.17577.29297.1172.58203.40624.28906.23438.29297.17578.21875.16015.01563.01172.23047.17579.64062.52343.17578.23438.1172.17578.17577.17578.11328.17188v.64062l.1172.17578.46874.11719.58203.11719.23438.05859.23047.11328.29297.11719.11328.0586.58593.35156.28907.17187.17578.0625.17578.05469.17578.0586.69922.35155.28906.17579.23438.05468.28906.17578.23437.1172.64063.40624.29297.11719.17187.0586.23438.05859.41015.05859.23047.0586.23438.11718.0586.17188-.41017.17578.46875.0586.0586.29296.11328.23438.17578.05468.23438.0586.17578.05859.40625.11719.64062.23437.11719.17188.0586.23437v.17578l-.0586.1172-.0586.40624.23438.23438.11719.05859.34766.11719.64062.23047.17578.11718.28906.1172.17578.17577.23438.46485.58203 1.10546.17578.17579.34766.17578.17578.11719.35156.11718 1.04688.52344.23437.0586.46485.11327.29297.0586.46484.17578.75781.58203.23438.23438.34765.46484.17578.17578.28907.23438.8164.69921.29297.17579.28906.28906.29297.17578.29297.28906.69531.64063.17578.17578.29297.23437.28907.23438.46875.28906.64062.58203.34766.23438.23437.29297.34766.34765.35156.46485.9336.99218.34765.40625.11719.17579.23437.05859.11328.11719.64454.17578.23047.11328.23437.0586.29297.17577.23047.1172.9336.69921.40624.40625.23438.17578.40625.17578.23437.11719.8164.34766.34766.23437.23438.11719.29297.28906.23047.11719.7578.35156.35157.17188.23047.05859.29297.11719.23437.0586.8711.17577h.8164l.46875.23047.17188.0586.875.69921.46484.1172.29297.05858.17578.0586.23047.0586.46875.05859.34766.05859.35156.0586.40625.05859h.29297l.17187.0586v.23046l.17578.17578h.29297l.34766.0586.35156.05859.69922.11719h.64063l.46484-.23438.29297-.17578.17187-.11719.41016-.17187.28906-.17578.9336-.46485.46875-.29297.52343-.29296.46485-.17188.46484-.17578 1.05078-.46485.28906-.11718.41016-.11719.28906-.11719.52735-.17578 1.51562-.69922.58203-.34765.28907-.0586.29297-.0586.34765-.11718.875-.23047.35156-.11719h.11329l.23437-.05859.875-.23437.23438-.0586h.8125l.35156-.0586.8164-.11718.17188-.0586.35156-.05468.29297-.0586.23047-.05859.8164-.17578.17579-.0586h.34765l.23438-.05859.46484-.11718.75781-.17188.23438-.0586h.34765l.41016-.11718.28906-.0586 1.28516-.05859h.28906l.41016-.0586.23047-.05858h.17578l.875-.1172h.40625l.41015-.11718h.34766l.35156-.11328.8711-.0586h1.75l1.04687.28907.41016.11719.28906.11718.35156.11719.28907.11719 1.05078.17187.28906.0586h.29297l.29297.05859.17187.0586.41016.05859.17187.0586.1172.05858h.11718l.11719.0586.35156.0586h.11328l.41016.0664 1.92187.39453 1.92578.39453 1.51953.44922 1.69532.71875 2.14453.80469 1.60547-.71875 1.42968-.80469 1.16016-1.07813 1.25-.44921 3.03516-.71875 1.875-.35938 2.14453-1.34765 2.23437-1.25391 2.5-1.25781 1.69531-.44922 1.78516-.17969 1.16016-.26953.625.53906 1.33984-.26953.71485-.98828.98437-1.34375.44531-.17969.80469-.35937 1.875-.53907 1.78516-.44921 1.25-.26954 1.16015-.08984 1.69922-.08984 1.96094-.26954 1.25-.08984h.53906l.625-.08984h.89063l2.14453-.17969 2.41015-.17969 2.58985-.08984 1.69531.17969 1.60938.08984 1.42968.35938 1.16016.71875 1.875.98828 1.16015 1.52734.26563.71484.6289.08985.35548.89844.53515.53906.53516 1.52734 1.07422.35938h.53515l-.80469.53515.08985 1.70703.71484 2.69532.89063.80468.89453.98829.71484 1.2578 1.78516.53907 1.51953-.17969.35547 1.34375 1.60937-.80469.98047-.53906.26953.26953.31641-.21484.21875-.14453.80078.44922.44922-.35938h.35547l.53515-.26953.53907-.71875.53515-.26953.625-.98828 1.16016.44922.83984.3711 1.39454.61718 1.6953-.17969h1.60548l1.78515.08985.17969-1.70704.53516-1.34375.80468.26954.4922.84765.40233.40625-.08984.53906v.35938l.71485.44922.71093-.26953h1.42969l.35938.98828.4453 1.25781.71485 1.34375 1.25.6289 1.69531.62891.71485-.17969.17969-.53906.98046-.08984.44922.35937.08594 1.25782-.26563.6289-.53515.17969v.53906l.71484.98438.26563.53906.98437.98828.80078 1.07813-.26562.35937-.08985.89844-.625 2.33203-.35546 2.0664-.08985 1.79298-.17969.71875-.08984.53906v1.4375l-.98047 1.88281-.35937 1.70703-.53516.89844-.80469 1.16797-.26562.53906 2.05469 1.2539.08593.35938-.35546.53906-.08985-.17968v.80859l.08985 1.4375-.44532.71484-1.07422.09375-.26562.71485.53515.89844.8047.71875 1.16015.80859 1.33984.26953.44531.35938-.35546.44921-1.78907-.08984-1.25-.44922-.71484-.71875-.625-.08984-.17578 3.58984-.1875 1.3086h89.35937V311.70313h-55.26953v49.08203l.76172.125 3.28906.54296 2.02344 2.83594v2.7539l2.35156.33204 2.34766.33203h4.05078l-1.3789 4.16016-2.02344.70703-2.02344.70312-.54297.34375-2.59375 1.6172-.1875.11718-2.02344-2.07813-.73046-2.74218-2.67188-2.07813-1.375-3.5-.0664-.08203-1.95704-2.67188 2.75-1.41796v-49.08204H294.42187v91.41407l.1172.03125.1328.01172.07422.07421.10547.04688.08985.0586.08593.05859.08985.0586.29687.29687.0586.08984.03125.11719.02734.11719.01563.13671-.03125.1172-.0586.08983-.0586.08594-.04296.10547-.04688.10156-.02734.1211v.14453l.17578.26953.14844.14844.07422.08594.07422.07421.04296.10547.0625.08985.0586.08593.04297.10547.0586.08985.04687.10156.04296.10547.0586.08594.11719.17968.07421.07422.0625.08594.0586.08984.04297.10547.0586.08985.05858.08593.0625.08985.0586.08984.04297.10156.11719.17969.07421.07422.0586.08594.07422.07421.08984.0586.10547.04687h.14844l.1328-.01562.13282.01562.10156-.04687.07422-.07422.04688-.10156-.01563-.13281v-.14844l-.04687-.10547-.02735-.11719-.04687-.10156-.02735-.1211-.04296-.10156-.0625-.08984-.04297-.10156-.04297-.10547-.03125-.11719-.01563-.13281-.01171-.13672.08593-.0586.0586-.08593.12109-.03125.04297.10547.01562.1328v.1172l.0586.10156.0586.08984.08983.0586.14844.14843.0586.08985.04296.10547-.01171.10156.08593.0586.10547.04687.08594.0586.08984.05858.07422.07422-.11719.02735-.10546.04687-.08594.0586-.07422.07421-.0586.08985-.0625.08594-.02734.12109-.04687.10156-.04297.10547-.03125.11719-.01172.13281-.01563.13281v.14844l.02735.11719.04687.10547.04297.10156.0586.08984.07421.07422.08985.0586.07422.07421.08984.0586.0586.08984.04296.10547.04688.10156.11719.03125.1328.01563h.14845l.11718-.03125.10547.04297.04297.10547.04688.10156.02734.1211L299.5 410l.02734.11719.03125.1211.02735.11718.10547.04297.10156.04687.13281-.01562.14844.14844.0625.08593.07422.07422.07031.07422.08984.0625.10547.04297.10156.04297.1172.03125.13671.01562.11719-.03125.07422-.07422.02734-.11718-.01172-.13282-.03125-.12109-.02734-.11719.04297-.10547h.11719l.08984.0625.11719.02735h.14843l.13282.01562h.14843l.13282.01563.1328-.01563h.14845l.1328-.01562.13282-.01172.13672.01172.11719-.02735.13281-.01562.1914-.0586-.05859.17579-.01562.1328-.02735.1211-.01562.13281-.0586.08594-.1328.01563-.10548.04687-.10546.04297-.1172.03125-.11718.02735-.26563.03125h-.14843l-.13281.01562-.07422.07422.05859.08594.14844.14843.11719.1797.07421.0703.08985.0625.08984.0586.08594.0586.08984.05858.10156.04297.10547.0625.10547.04297.08594.0586.10547.04687.10156.04297.17969.11719.0586.08984-.04298.10156-.04687.10547.01562.13281.22266.22266.0586.08985.04296.10156.03125.1211.04297.10155.01563.13282.03125.11718.01171.13672.03125.11719.14844.14844.10156.04297.10547.04296.1172.03125.1328.01563.13672.01563h.11719l.11719-.03125.08984-.0586.04297-.10547.04688-.10156.04296-.10547.03125-.11719.01172-.1328v-.14845l-.01172-.1328-.01562-.13282-.03125-.11719-.04297-.10547-.04688-.10547-.04296-.10156-.04297-.10547-.01563-.13281.01563-.13281.02734-.11719.03125-.11719.02735-.1211.04687-.10155.08984-.0586.08594-.0625.07422-.07422.08984-.05859.22266-.22266.0586-.08593.07421-.07422.11719-.17969.0586-.08594v-.14844l-.07423-.07421-.10156-.04688-.10547-.04297-.10156-.04297-.0586-.08984-.04687-.10547-.02734-.11719.08984-.05859.11719-.03125.10156-.04297.17969-.11719.14844-.14843.01172-.13282-.01172-.10546-.08985-.0586-.1328.01563h-.14845l-.1328.01562-.13282-.01562-.1211-.03125-.08593-.0586-.07422-.07422-.0586-.08984-.0625-.08594-.11718-.17969-.0586-.08593.03125-.1211.08594-.05859.1211-.03125.05859-.08594v-.1211l-.03125-.11718-.0586-.08984-.05859-.08594-.04687-.10547-.02735-.11719-.01562-.1328.0586-.08985.07421-.07422.08984-.0586.1172-.17968.07421-.07422.0586-.08594.14843-.14844.1211-.03125.1328-.01562.13282.01562.07422.07422.04297.10547.01562.13281-.03125.1172-.11719.03124-.1328.01172-.14844.14844-.04297.10547-.04688.10156-.02734.1211-.03125.11718v.14844l.03125.11719.04297.10546.05859.08985.07422.07031.07422.07422.11719.03125.12109.02734.11719-.02734.1328-.01563h.1172l.08984.0586.07422.07422.04687.10546.0586.08594.10156.04688.13281.01562.10547.04297.08594.0586-.01172.10546-.07422.07422-.17969.11719-.05859.08984-.08984.0586-.07032.07422-.07421.07421-.0625.08985-.02735.11719-.01562.1328.01562.13282-.01562.13281v.14844l.01562.13281.02735.1172.03125.12108.07421.07422.08985.0586.08594.0586.08984.05858.11719.03125v.08594l-.10157.04688-.08984.0586-.26563.03124-.11718.02735h-.14844l-.10547.04296-.10156.04688-.0586.08984-.0625.23438-.01171.13281-.03125.1211-.01563.1328v.29298l-.01172.1328.01172.13673.01563.1328.1328.01563.13282.01172.1211.03125.08593.0586.07422.07421.04688.10547.04296.10157.01563.1328v.44532l-.01563.13281v.44532l.03125.26562.02735.11719.01562.13281.03125.11719.08594.21094.03125.26562v.14844l-.03125.11719-.02734.11718-.03125.1211-.02735.11719-.03125.11718-.03125.1211-.01171.1328-.01563.13282.08984.0586.1172-.03125.10155.01562.04688.10547-.03125.26562v.44141l-.04297.10547-.04688.10547-.04296.10156-.04297.10547-.0586.08594-.03125.12109-.04296.11719-.03125.11719-.01563.1328.01563.13282.05859.08984.10547.04688.08594.0586.05859.08593-.01172.13672-.03125.11719-.04297.10156v.44531l-.01562.13281v.14844l-.03125.11719-.04297.10547-.02735.11719-.04687.10546-.04297.10157-.03125.12109-.02734.11719-.03125.13281-.03125.11719-.02735.11719-.04297.10546-.03125.1172-.03125.12108-.01171.13282-.01563.13281v.29688l.02734.11718v.14844l.04688.39844.02734.11719.0586.08984.12109.03125h.14844l.13281-.01563.0586.08985v.11719l-.0586.08984-.08984.0586-.10157.04296-.10546.04688-.08985.05859-.08594.0586-.13671.01562-.1172-.03125-.1328-.01563-.10157.04688-.0625.08594-.01172.13671-.01562.13282-.03125.11719-.02735.11718-.01562.13281-.03125.1211v.29687l.01563.13282.03125.11718v.14844l.01171.13281v.14844l-.02734.11719-.04688.10156-.02734.1211-.03125.11718-.0586.08985-.07421.07421-.10156.04297-.10547.04688-.11719.02734-.1211.03125-.10156-.04687.0586-.08594.10547-.04688.02734-.11718.03125-.11719.02734-.1211.03125-.11718v-.14844l.01563-.13281-.03125-.11719-.04297-.10547-.10547.01563-.07422.07422-.10156.04296-.08984.0625-.07422.07422-.04297.10157-.01563.1328-.03125.1172L304.25 426l-.03125.11719-.02734.11719-.03125.12109-.02735.11719-.03125.11718-.04297.10547-.08984.0586h-.08984l-.1172-.03125-.03124-.08594.01562-.13672-.03125-.11719v-.14844l-.01171-.1328v-.14844l-.0625-.23438-.02735-.1211-.04297-.10156-.04687-.10546-.0586-.08594-.05859-.08985-.04297-.10546-.0625-.08594-.14844-.14844-.0703-.07422-.10548-.04687-.10547-.04297-.10156-.04297-.29687-.29688-.08985-.07421-.08594-.0586-.10546-.04297-.08985-.0625-.08594-.0586-.10546-.04296-.08985-.0586-.08594-.0625-.07421-.0703-.10547-.04688-.08594-.0586-.10547-.04296-.08984-.0625-.10156-.04297-.10547-.04297-.08594-.0586-.10547-.04687-.10547-.04297-.10156-.04687-.08985-.0586-.10156-.04297-.10547-.04296-.08984-.0625-.11719-.02735-.13281-.01562-.13281.01562H299.75l-.13281.01563-.11719-.03125-.08984-.0586-.07422-.07422-.08985-.05859-.10156-.04688h-.14844l-.12109-.02734-.10156-.04297-.07422-.07422-.11719-.17968-.08984-.0586-.10156-.04297-.08985-.0625-.10547-.04296-.08984-.0586-.08594-.0586-.10547-.04687-.0586-.08594-.05858-.08984-.04297-.10547-.04688-.10156-.07422-.07422-.08594-.0586-.07421-.07421-.08985-.0586-.22265-.22265-.04297-.10547-.03125-.26563.10547-.04296h.14453l.10547.04296.07421.07422.08985.0586.08594.0586.10546.04687.08985.05859.14844.14844.0703.07422.14845.14843.0625.08594.07421.07422.08594.0586.07422.07421.08985.0625.08984.0586.08594.05859.26953.17578.10156.04688.10547.04296.10156.04297.04688-.07421.05859-.08594.07422-.07422.07031-.07422.10547.04297.07422.07422.0586.08984.04296.10156.04688.10547.04296.10547.1211.02735.11719-.02735.07421-.08984.04297-.10547.0586-.08985.07422-.07421.10546-.04297.1172-.02735.1328.01172.08985.0586.14844.14843.05859.08985.04297.10547.04687.10156.04297.10547.04297.10156.10547.04688.10547.04296.13281.01563.08594-.0586.0586-.08984.07421-.07422.10547-.04297.11719.02735.10547.04687.10156.04297.10547.04297.10156.04688.17969.11718v.11719l-.01563.13281.01563.13281.01562.13672.0586.08594.10156.04688.1211.02734.11718.03125h.14844l.11719-.03125.05859-.08984.17969-.1172.05859-.08983.07422-.07422.0586-.08594.11718-.17969.17969-.11719.11719.03125.08984.0586.04297.07422-.01563.1328v.1172l.08985.05859h.14843l.13282-.01563.1328-.01171.26563-.03125.10547-.04297.11719-.03125.1211-.02735.07421-.07421.07031-.07422.0625-.08985-.01562-.10547-.04688-.10156-.10156-.04297-.10547-.01562-.11718.02734-.26563.03125h-.14844l-.07421-.07422-.08985-.0586-.11719-.03124-.11718-.02735-.13282-.01562h-.14843l-.13282.01563h-.29687l-.10547-.04688-.14844-.14844-.04297-.10156-.05859-.08984.22266-.22266.08593-.0586.10547-.04296.11719-.03125.13281-.01563.13281.01563.13672.01562.10157.04297.1328-.01172.08985-.0625.10156-.04297.0625-.08984-.04687-.10156-.08984-.0586-.1172-.03125-.10155-.04296-.0586-.08985-.0625-.08984v-.11719l.01563-.13281.10547-.04688.07421-.07031v-.1211l-.08984-.05859-.03125-.11719.08985-.05859.07421-.07422.04297-.10547.0586-.08984.04687-.10156.01563-.13281v-.14844l-.04688-.10547-.04297-.10156-.08984-.0586-.13281-.01562-.10157-.04297-.13671-.01563-.1172-.03125h-.4453l-.13282-.01562-.13281-.01172-.13281-.01563-.11719-.03125h-.14844l-.13281-.01562-.13281-.01172-.26563-.03125-.1211-.04297-.08593-.0586-.07422-.07421v-.14844l.01172-.13281.10547-.04688.10156-.04296.13281-.01563h.15235l.13281-.01562h.29297l.1211.03125.10156.04296.08984.0586.23438.0625.12109-.04688.08984-.05859.10156-.04297.13282-.01562.10547.04296.10156.04688.13281.01172.1211-.02735h.14453l.12109-.03125.11719-.02734.10547-.04687.07421-.07422.08594-.0586.14844-.14843.0586-.08594.04687-.10547.02734-.11719.01563-.10547-.10156-.04296-.08985-.0586-.11719-.03125-.10546-.04297-.08985-.0625-.07422-.08594-.07422-.07421-.10156-.04297-.10547-.04688-.10156-.04297-.0586-.08984-.04687-.10156-.08594-.21094-.0625-.08594-.05859-.08984-.07422-.07422-.08594-.0586h-.26953l-.11719.03126-.08984.05859-.10156.04297-.13281.01562-.10547-.01562-.02735-.11719-.0625-.08984-.11718-.03125-.10157-.04297-.14843-.14844-.03125-.11719-.01563-.10546.07422-.07422.17969-.1172.11719-.02733.11718-.03125.13672.01562.10156.04297.10547.04297.10156.04687.10547.04297.1172.03125.1328.01563.1172.02734.1328.01563.10547-.01563.08985-.0586-.07422-.07421-.10547-.04297-.07422-.07422-.07422-.08984-.14844-.14844-.08593-.0586-.08985-.05859-.07422-.07422-.08984-.0586-.10156-.04687-.1211-.02734-.10156-.04688-.10547-.04296-.11719-.03125-.10156-.04297-.1211-.03125h-.14843l-.11719.03125-.10546.04297-.08594.0625-.17969.11718-.08594.0586-.08984.0586-.10547.04687-.08594.05859-.10547.04297-.10156.04297-.10547.04687-.07422.07422-.05859.08985-.0586.08593-.04687.10547-.0586.08594-.07421.07422-.13281-.01172-.1172-.03125h-.11718l-.07422.07422-.08984.0586-.07422.07421-.08984.0586-.08594.05859-.10547.04687-.10156.04297-.13672.01563-.10156-.04297-.14844-.14844-.10547-.04688h-.08594l-.10547.04688-.10156.04297-.1211.03125-.11718-.03125-.07422-.07422v-.11719l.03125-.1211.07422-.0703.0586-.08985.07421-.07422.11719-.03125.10547-.04296h.29297l.13281-.01563.13672-.01563.10156-.04296.08985-.0586.10156-.04687.08984-.0586.13281-.01171.08985.05859.13281.01172.08984-.0586.08594-.05859.10547-.04297.08984-.0586.08594-.0625.08985-.05859.14843-.14843.0586-.08594.05859-.08985.10547-.04296.13281-.01563.11719.02735.1211.03125.05859-.0586.05859-.08984.03125-.26563.02734-.11719.10547.01172.13281.01563.10157-.04297.08984-.0586.0586-.08984.07421-.07422.0586-.08984.04687-.10156.01172-.13281-.01172-.13282-.04687-.10547-.14844-.14843-.0586-.08985-.05859-.08594-.04297-.10546v-.44532l.01563-.1328v-.14845l.01172-.1328-.0586-.0586-.08984.0586-.10156-.04298-.17969-.11719-.08594-.05859-.0625-.08984-.0586-.08985-.07421-.07421-.08594-.0586-.1211.03125-.10155.01172-.10547.04688-.08594.05859-.10547.04297-.14844.14844-.08984.05859-.08594.0586-.08984.0625-.10547.04296-.13281.01563v-.1211l.10547-.04297.11718-.03125.07422-.0703.04297-.10548v-.14844l-.02734-.11718-.14844-.14844-.13281-.01563h-.14844l-.11719.03125-.10547.04297-.10156.04297-.08984.0625-.11719.02735-.07422-.07422.01172-.13281-.04297-.10157-.04297-.10547-.08984-.05859-.11719.02734-.1211.03125-.11718.03125-.10156.04297-.1211.03125-.10156.04297-.10547.04297-.08984.0586-.10156.01562v-.11719l.01562-.13281-.0586-.08985-.07421.04297-.14844.14844-.0586.08985-.07421.07421-.04688.10547-.04296.10156-.07422.07422-.0586.08985-.07422.07422-.05859.08593-.07422.07422-.08984.0625-.07422.07031-.07422.07422-.10156.01563-.13281.01562-.10547-.04296v-.1211l.14843-.14844.04297-.10156.0586-.08984.04687-.10156.04297-.10547.0586-.08985.03124-.11719.04297-.10156.03125-.1211.02735-.11718.04687-.10547.04297-.10156.04297-.10547.07422-.07031.08984-.0625.08985-.0586.10156-.04296h.29687l.26563-.03125.10547-.04297-.07422-.07422-.11719-.03125-.10547-.04297-.08984-.0586-.10156-.04687-.08985-.0586-.10156-.04296-.10547-.04297-.08984-.0625-.08594-.0586-.10547-.04296-.10156-.04297-.1211-.03125-.11718-.03125-.10157-.04297L297.5 410.25l-.10156-.04297-.08985-.0586-.04296-.10546-.01563-.13281.10156-.04297.13281-.01563.13672.01563.13282-.01563.10156-.04297.0586-.08984.01562-.10547-.08985-.0586-.07421-.07421-.10157-.04297-.08984-.0586-.14844-.14843-.04297-.10547-.01562-.13281v-.29297l-.0586-.08985-.08984-.05859-.07422-.07422-.04297-.10547-.03125-.11718-.0586-.08985-.07421-.07422-.11719-.02734-.07422-.07422-.08984-.0586-.08984-.0625-.08594-.05859-.07422-.07421-.0586-.08594-.04687-.10547-.08594-.0586-.14843-.14843-.19532-.0586-.1328.01563-.10157.04297-.07422.07422-.04688.10156-.04296.10547-.0586.08984-.0586.08594-.29687.29687-.08984.0586h-.08594l-.0625-.08594-.04297-.10547.03125-.11719.0586-.08984.02734-.11719-.01172-.13281-.08984-.0625-.10547.04688-.11719.02734-.11719.03125-.26953.17578-.10156.04688-.11719.02734-.10546.04687-.08985.0586-.10156.04297-.0586-.08594-.04687-.10547.01563-.13281.04687-.10547.07031-.07422.07422-.07031.0586-.08985v-.14843l-.04297-.10547h-.23829l-.10156.04687-.03125.11719-.02734.11719-.03125.1211-.07422.04296-.13281.01563-.07422-.04688-.04297-.10156-.04297-.10547-.04687-.10156-.04297-.10547-.1211.03125-.10156.04297-.13281.01562-.11719.03125-.10547.04297-.08984.0586-.10156.04687-.1211.02734-.13281.01563-.10156-.04297-.0586-.08985-.04687-.10546-.04297-.10157-.04297-.10546v-.1172l.0586-.08984.08593-.05859.17969-.11719.10156-.04687.10547-.04297.10547-.0586.10156-.04296.08985-.0625.10156-.04297.10547-.0586.10156-.04687.08984-.0586.10547-.04296.10156-.04297.08985-.0625.10156-.04297.13672-.01563.11719.03125.10156.04297.1211.03125.10156.04297.10546.04688.10157.04296.10547.04297.10156.04688.10547.04297.10156.04297.10547.04687.08594.0586.10546.04296.1172.03125.10546.04297.10156.04688.08985.0586.10547.04296.10156.04297.10547.04687.11719.02735.10156.04687.1211.02735h.14843l.08594-.0586.01562-.10156.0586-.08984-.02735-.1172-.07422-.07421-.11719-.17969-.07421-.07422-.08985-.07421-.17969-.1172-.08593-.05859-.10547-.04296-.10156-.04688-.26954-.17578-.05859-.08985-.07422-.07421-.0586-.08985-.04296-.10156-.03125-.11719-.01563-.13672v-.5625l-.01171-.1328-.01563-.13282-.03125-.11719-.01562-.13281-.01172-.13281-.03125-.1211-.22266-.22265-.0586-.08594-.01562-.10547.03125-.11719.13281-.01562v-91.41406H172.9922v1.45312l-.0586.23438-.35156 1.05078-.17187.52343-.1172.34766-.17577.41016-.11719.17187-.23438.29297-.23046.0586h-.35157l-.11718.05859-.23047.40625v.29297l.11719.17578.23046.23047.1172.23437.64062.75781.29297.46485.17578.23437.23047.35156.23437.34766.64063.8164.17578.46485.17187.41016.11719.69531.17578.46875.11719 1.39844.0586.46484v.875l.11718 1.04688v4.78125l-.0586.46484-.35156 1.28125-.17578.52344-.11328.41015-.35156.9297L172.93359 336l-.23437.58203-.11719.17578-.17187.34766-.17578.40625-.35157.8164-.0586.29297-.11327.29297-.11719.28906-.0586.17579-.11718.875-.0586.40625-.05859.11718-.0586.17579-.05859.17187-.23047.52734-.11718.17188v.23437l-.11719.23438-.0586.17187-.17577.58594v.28906l-.0586.17579v.29296l-.0586.11329-.05859.52734v.17187l-.05468.23438v2.6211l-.17578.8164-.1172.17578-.17577.23438-.1172.17187-.11327.23438-.58594.93359-.23047.28906-.29297.46485-.17578.23437-.28906.35156-.35156.69922-.11328.23047-.17579.41016-.17578.23046-.40625.52735-.8164.69922-.29297.17187-.28906.23438-.17579.11719-.17578.17578-.52344.40625-.52734.17578-.17187.17578-.23438.05469-.64062.17578h-.75782m12.21094 31.02344l-1.07422.44921.35938.89454 1.25-.71485.44531-.53906-.98047-.08985"/><path fill="#d3d3d3" fill-opacity="0" fill-rule="evenodd" d="M201.50781 416.59766h-.89453l.44922.6289.98047.35938.80469-.08985.4453-.98828-.17577.08985-.71485-.35547-.89453.35547m154.6211 59.0703l-.0586-.52343v-.29297l.11328-.29297.0586-.23046.46875-.46875h.11328l.11719-.11329.11718-.05859h.17579l.23437-.0586h.34766l.23437.0586.11719.0586.23047.17187.0586.17578.11718.58203v.29297l-.11719.17578-.17187.28906-.17579.17579-.52734.52343-.23047.23438-.11719.0586h-.17578l-.11718-.0586-.40625-.29297-.17579-.11719-.11718-.0586-.0586-.11327-.05468-.1172m6.64062-10.95702l-.0586-.17188v-1.10937l.0586-.17188.17578-.0586.17188-.05858h.17578l.23437-.0586.1172.0586.05858.69921-.05859.17188-.11719.17578-.11718.0586-.23438.52343-.11328.0586h-.23438l-.05859-.1172m9.61328-14.39062l-.11719-.17578v-.69922l.29297-.875.1172-.17187.17577-.35156.11328-.23047.1172-.29297.35155-.75781.1172-.23047.17187-.23438h.17578l.11719-.0586h.64062l.11719.0586.23437.23438.17188.11328.35156.29297.11719.11718.11328.17579v.11328l.11719.05859.11718.11719v.69922l-.05859.17578v.23047l-.0586.17578-.34765 1.05078-.11719.23047-.11719.23437-.11718.0586-.23047.23437-.64063.28906h-.875l-.41015-.11718-.64063-.46485"/><path fill="none" stroke="#bebebe" stroke-linecap="round" stroke-linejoin="round" stroke-miterlimit="10" stroke-width=".5" d="M467.95703 311.69531H144.02734v168.625h323.9297v-168.625"/><g clip-path="url(#a)"><path fill="#fff" fill-opacity="0" fill-rule="evenodd" d="M144 311.67188v168.65625h324V311.67188H144"/></g><g clip-path="url(#b)"><path fill="none" stroke="#000" stroke-linecap="round" stroke-linejoin="round" stroke-miterlimit="10" stroke-width=".5" d="M147.48438 480.78516l-6.96875-.91407"/></g><g clip-path="url(#c)"><path fill="none" stroke="#000" stroke-linecap="round" stroke-linejoin="round" stroke-miterlimit="10" stroke-width=".5" d="M147.48438 480.78516l.85937 2.29687"/></g><g clip-path="url(#d)"><path fill="none" stroke="#000" stroke-linecap="round" stroke-linejoin="round" stroke-miterlimit="10" stroke-width=".5" d="M146.46875 480.65234l.4336 1.14844"/></g><g clip-path="url(#e)"><path fill="none" stroke="#000" stroke-linecap="round" stroke-linejoin="round" stroke-miterlimit="10" stroke-width=".5" d="M160.77344 480.94531l-6.91797-1.23437"/></g><g clip-path="url(#f)"><path fill="none" stroke="#000" stroke-linecap="round" stroke-linejoin="round" stroke-miterlimit="10" stroke-width=".5" d="M160.77344 480.94531l.7539 2.33594"/></g><g clip-path="url(#g)"><path fill="none" stroke="#000" stroke-linecap="round" stroke-linejoin="round" stroke-miterlimit="10" stroke-width=".5" d="M159.76563 480.76563l.3789 1.16796"/></g><g clip-path="url(#h)"><path fill="none" stroke="#000" stroke-linecap="round" stroke-linejoin="round" stroke-miterlimit="10" stroke-width=".5" d="M174.07031 481.04688l-6.8789-1.4375"/></g><g clip-path="url(#i)"><path fill="none" stroke="#000" stroke-linecap="round" stroke-linejoin="round" stroke-miterlimit="10" stroke-width=".5" d="M174.07031 481.04688l.6836 2.35546"/></g><g clip-path="url(#j)"><path fill="none" stroke="#000" stroke-linecap="round" stroke-linejoin="round" stroke-miterlimit="10" stroke-width=".5" d="M173.07031 480.83984l.33985 1.17578"/></g><g clip-path="url(#k)"><path fill="none" stroke="#000" stroke-linecap="round" stroke-linejoin="round" stroke-miterlimit="10" stroke-width=".5" d="M187.42578 480.82031l-6.96094-.98047"/></g><g clip-path="url(#l)"><path fill="none" stroke="#000" stroke-linecap="round" stroke-linejoin="round" stroke-miterlimit="10" stroke-width=".5" d="M187.42578 480.82031l.83594 2.30469"/></g><g clip-path="url(#m)"><path fill="none" stroke="#000" stroke-linecap="round" stroke-linejoin="round" stroke-miterlimit="10" stroke-width=".5" d="M200.7539 480.71094l-6.98827-.76172"/></g><g clip-path="url(#n)"><path fill="none" stroke="#000" stroke-linecap="round" stroke-linejoin="round" stroke-miterlimit="10" stroke-width=".5" d="M200.7539 480.71094l.91016 2.27734"/></g><g clip-path="url(#o)"><path fill="none" stroke="#000" stroke-linecap="round" stroke-linejoin="round" stroke-miterlimit="10" stroke-width=".5" d="M214.08984 480.30078l-7.02734.05469"/></g><g clip-path="url(#p)"><path fill="none" stroke="#000" stroke-linecap="round" stroke-linejoin="round" stroke-miterlimit="10" stroke-width=".5" d="M214.08984 480.30078l1.16797 2.16016"/></g><g clip-path="url(#q)"><path fill="none" stroke="#000" stroke-linecap="round" stroke-linejoin="round" stroke-miterlimit="10" stroke-width=".5" d="M227.39844 480.10156l-7.01563.45313"/></g><g clip-path="url(#r)"><path fill="none" stroke="#000" stroke-linecap="round" stroke-linejoin="round" stroke-miterlimit="10" stroke-width=".5" d="M226.375 480.16797l.64453 1.04297"/></g><g clip-path="url(#s)"><path fill="none" stroke="#000" stroke-linecap="round" stroke-linejoin="round" stroke-miterlimit="10" stroke-width=".5" d="M240.71484 480.13281l-7.01562.39453"/></g><g clip-path="url(#t)"><path fill="none" stroke="#000" stroke-linecap="round" stroke-linejoin="round" stroke-miterlimit="10" stroke-width=".5" d="M239.6914 480.1875l.63673 1.05078"/></g><g clip-path="url(#u)"><path fill="none" stroke="#000" stroke-linecap="round" stroke-linejoin="round" stroke-miterlimit="10" stroke-width=".5" d="M253.94922 479.5625l-6.85938 1.53125"/></g><g clip-path="url(#v)"><path fill="none" stroke="#000" stroke-linecap="round" stroke-linejoin="round" stroke-miterlimit="10" stroke-width=".5" d="M252.95313 479.78516l.79687.93359"/></g><g clip-path="url(#w)"><path fill="none" stroke="#000" stroke-linecap="round" stroke-linejoin="round" stroke-miterlimit="10" stroke-width=".5" d="M267.3125 479.83203l-6.95313.9961"/></g><g clip-path="url(#x)"><path fill="none" stroke="#000" stroke-linecap="round" stroke-linejoin="round" stroke-miterlimit="10" stroke-width=".5" d="M266.30078 479.97656l.72266.98828"/></g><g clip-path="url(#y)"><path fill="none" stroke="#000" stroke-linecap="round" stroke-linejoin="round" stroke-miterlimit="10" stroke-width=".5" d="M280.5625 479.48438l-6.82031 1.6914"/></g><g clip-path="url(#z)"><path fill="none" stroke="#000" stroke-linecap="round" stroke-linejoin="round" stroke-miterlimit="10" stroke-width=".5" d="M292.1914 477.26953l-3.45312 6.11719"/></g><g clip-path="url(#A)"><path fill="none" stroke="#000" stroke-linecap="round" stroke-linejoin="round" stroke-miterlimit="10" stroke-width=".5" d="M301.57031 477.59766l4.42188 5.46093"/></g><g clip-path="url(#B)"><path fill="none" stroke="#000" stroke-linecap="round" stroke-linejoin="round" stroke-miterlimit="10" stroke-width=".5" d="M315.16016 477.39844l3.875 5.85937"/></g><path fill="none" stroke="#000" stroke-linecap="round" stroke-linejoin="round" stroke-miterlimit="10" stroke-width=".5" d="M315.72266 478.25l.58593-1.07813"/><g clip-path="url(#C)"><path fill="none" stroke="#000" stroke-linecap="round" stroke-linejoin="round" stroke-miterlimit="10" stroke-width=".5" d="M328.53906 477.35547l3.74219 5.94531"/></g><path fill="none" stroke="#000" stroke-linecap="round" stroke-linejoin="round" stroke-miterlimit="10" stroke-width=".5" d="M329.08594 478.21875l.60937-1.0625"/><g clip-path="url(#D)"><path fill="none" stroke="#000" stroke-linecap="round" stroke-linejoin="round" stroke-miterlimit="10" stroke-width=".5" d="M340.97266 478.14453l5.5039 4.36719"/></g><path fill="none" stroke="#000" stroke-linecap="round" stroke-linejoin="round" stroke-miterlimit="10" stroke-width=".5" d="M341.77344 478.78125l.22265-1.20703"/><g clip-path="url(#E)"><path fill="none" stroke="#000" stroke-linecap="round" stroke-linejoin="round" stroke-miterlimit="10" stroke-width=".5" d="M355.64453 477.10547l2.79297 6.44531"/></g><path fill="none" stroke="#000" stroke-linecap="round" stroke-linejoin="round" stroke-miterlimit="10" stroke-width=".5" d="M356.05078 478.04297l.76563-.96094"/><g clip-path="url(#F)"><path fill="none" stroke="#000" stroke-linecap="round" stroke-linejoin="round" stroke-miterlimit="10" stroke-width=".5" d="M369.1211 477.03906l2.46874 6.57813"/></g><path fill="none" stroke="#000" stroke-linecap="round" stroke-linejoin="round" stroke-miterlimit="10" stroke-width=".5" d="M369.48047 477.9961l.8125-.91798"/><g clip-path="url(#G)"><path fill="none" stroke="#000" stroke-linecap="round" stroke-linejoin="round" stroke-miterlimit="10" stroke-width=".5" d="M380.47266 478.875l6.39843 2.91016"/></g><path fill="none" stroke="#000" stroke-linecap="round" stroke-linejoin="round" stroke-miterlimit="10" stroke-width=".5" d="M381.40234 479.29688l-.07421-1.22266"/><g clip-path="url(#H)"><path fill="none" stroke="#000" stroke-linecap="round" stroke-linejoin="round" stroke-miterlimit="10" stroke-width=".5" d="M393.48047 480.57031l7.01172-.48437"/></g><g clip-path="url(#I)"><path fill="none" stroke="#000" stroke-linecap="round" stroke-linejoin="round" stroke-miterlimit="10" stroke-width=".5" d="M394.5 480.5l-.64844-1.03906"/></g><g clip-path="url(#J)"><path fill="none" stroke="#000" stroke-linecap="round" stroke-linejoin="round" stroke-miterlimit="10" stroke-width=".5" d="M409.19531 483.66406l2.21094-6.67187"/></g><g clip-path="url(#K)"><path fill="none" stroke="#000" stroke-linecap="round" stroke-linejoin="round" stroke-miterlimit="10" stroke-width=".5" d="M426.79297 478.82813l-6.35547 3"/></g><g clip-path="url(#L)"><path fill="none" stroke="#000" stroke-linecap="round" stroke-linejoin="round" stroke-miterlimit="10" stroke-width=".5" d="M425.8711 479.26563l.98046.73437"/></g><g clip-path="url(#M)"><path fill="none" stroke="#000" stroke-linecap="round" stroke-linejoin="round" stroke-miterlimit="10" stroke-width=".5" d="M439.53125 477.96484l-5.19922 4.72657"/></g><path fill="none" stroke="#000" stroke-linecap="round" stroke-linejoin="round" stroke-miterlimit="10" stroke-width=".5" d="M439.53125 477.96484l2.3086.83203"/><g clip-path="url(#N)"><path fill="none" stroke="#000" stroke-linecap="round" stroke-linejoin="round" stroke-miterlimit="10" stroke-width=".5" d="M452.66797 477.78516l-4.84375 5.08593"/></g><path fill="none" stroke="#000" stroke-linecap="round" stroke-linejoin="round" stroke-miterlimit="10" stroke-width=".5" d="M452.66797 477.78516l2.36328.66015"/><g clip-path="url(#O)"><path fill="none" stroke="#000" stroke-linecap="round" stroke-linejoin="round" stroke-miterlimit="10" stroke-width=".5" d="M465.28906 477.26953l-3.45312 6.1211"/></g><path fill="none" stroke="#000" stroke-linecap="round" stroke-linejoin="round" stroke-miterlimit="10" stroke-width=".5" d="M464.78516 478.16016l1.22656.03125"/><g clip-path="url(#P)"><path fill="none" stroke="#000" stroke-linecap="round" stroke-linejoin="round" stroke-miterlimit="10" stroke-width=".5" d="M147.50781 467.19922l-7.01562-.3711"/></g><path fill="none" stroke="#000" stroke-linecap="round" stroke-linejoin="round" stroke-miterlimit="10" stroke-width=".5" d="M147.50781 467.19922l1.03906 2.22265m-2.05859-2.27734l.51953 1.11328m13.82031-1.29687l-7.02734.10547m7.02734-.10547l1.1836 2.14844m-2.20703-2.13282l.59375 1.07422m13.7461-1.01953l-7.02735-.03516m7.02734.03516l1.14063 2.17578m-2.16407-2.17969l.57032 1.08594m13.76562-1.24219l-7.02344.28516m7.02344-.28516l1.23828 2.1172m12.07813-2.04298l-7.02735.13672m7.02735-.13672l1.1914 2.14453m12.125-2.03906l-7.02734-.07422m7.02734.07422l1.12891 2.17969m12.17188-2.5039l-7 .57421m7-.57422l1.32812 2.0625m11.97656-2.1914l-6.97656.83203m5.96094-.71094l.69922 1.00781M254 466.53125l-6.96094.96484m5.94922-.82422l.71875.9961m13.55469-1.4375l-6.85156 1.5664m5.85546-1.33984l.80079.92578m13.34765-1.67187l-6.52734 2.60547m5.57812-2.22657l.9375.79297m13.375-1.03906l-6.625 2.33984m5.66016-2l.90625.82813m12.03125-2.90625l-3.9375 5.8164m18.78906-2.6953l-7.01172-.42579m19.96094-1.36328l-6.27734 3.15234m19.11719-3.86718l-5.32813 4.58203m4.55078-3.91797l1.14453.44531m11.61719-2.07031l-2.66797 6.5039m2.28125-5.55859l1.21875-.1211m11.80469-1.02343l-1.3125 6.90234m1.125-5.89843l1.17187-.36328m8.8086.78125l5.73437 4.05859m-4.90234-3.46875l.15625-1.21875m11.6875 2.8711l7.01172-.42579m-5.99219.36328l-.64062-1.04687m14.8203 4.01562l3.2422-6.23828m-2.76954 5.32813l-1.22656.01172m18.48828-4.34375l-5.59765 4.24609m4.78515-3.6289l1.11328.51562m12.87891-1.30469l-5.32422 4.58984m4.54688-3.92187l1.14453.44531m12.14062-1.80078l-3.71093 5.96484m3.71093-5.96484l2.44922.16406m10.59766-.3164l-3.17188 6.26953m2.71094-5.35938l1.22656-.02343"/><g clip-path="url(#Q)"><path fill="none" stroke="#000" stroke-linecap="round" stroke-linejoin="round" stroke-miterlimit="10" stroke-width=".5" d="M147.51172 453.64844l-7.02344.10156"/></g><path fill="none" stroke="#000" stroke-linecap="round" stroke-linejoin="round" stroke-miterlimit="10" stroke-width=".5" d="M147.51172 453.64844l1.1836 2.14844m-2.20313-2.13282l.58984 1.07422m13.7461-1.01953l-7.02735-.03906m7.02734.03906l1.14063 2.17188m-2.16406-2.17579l.57031 1.08594m13.76953-1.16797l-7.02734.1289m7.02734-.1289l1.1914 2.14453m12.11329-1.8125l-7.00781-.53515m7.0078.53515l.98438 2.25m12.33594-2.35547l-7.01953-.32421m7.01953.32422l1.05078 2.21875m12.17188-3.19922l-6.83203 1.63672m6.83203-1.63672l1.625 1.83984m-2.6211-1.60156l.8125.92187m13.41016-1.46484l-6.65625 2.2461m6.65625-2.2461l1.78516 1.6875m-2.75391-1.35938l.89453.84375m12.8711-2.15625l-5.6211 4.21875m5.6211-4.21875l2.22265 1.04297m-3.03906-.42969l1.10937.52344m12.14063-1.96484l-3.85938 5.875m3.85938-5.875l2.44531.22656m11.69922.53516l-5.51563 4.35156m5.51563-4.35156l2.2461.98828m10.69921-1.39063l-4.77734 5.15235m4.77734-5.15235l2.3711.62891m10.6328-.88672l-4.15234 5.67188m4.15235-5.67188l2.42578.35156m10.5586-.5664l-3.4922 6.09765m3.4922-6.09765l2.45312.07812m11.1836.13282l-4.13673 5.67968m4.13672-5.67968l2.42969.34375m11.28906 0l-4.94531 4.99218m4.94531-4.99218l2.35156.70703m10.70704-.9375l-4.4297 5.45312m4.4297-5.45312l2.40625.46875m-3.05079.32422L346.5 452m11.83594-1.5664l-2.58985 6.53124m2.58985-6.53125l2.4375-.27343m-2.8164 1.22265l1.21874-.13672m10.88672-1.04687l.58984 7m-.58984-7l2.0625-1.33203m8.98828 2.42187l5.11328 4.82031m-5.11328-4.8203l.64844-2.3672m.09765 3.06641l.32422-1.1836m11.78125 1.10157l6.04297 3.58594m-6.04297-3.58594l.1172-2.45313m13.46483 2.0625l5.50782 4.3672m-5.50782-4.3672l.44532-2.41406m18.46484 2.52735l-5.67969 4.14062m5.6797-4.14062l2.20702 1.07421m10.13672-1.98046l-3.73828 5.95312m3.73828-5.95312l2.44531.17578m10.26563-.47657l-2.53125 6.5547m2.53125-6.5547l2.4375-.29296m9.58594.05468l.05468 7.02735m-.04687-6.0039l1.07812-.58204"/><g clip-path="url(#R)"><path fill="none" stroke="#000" stroke-linecap="round" stroke-linejoin="round" stroke-miterlimit="10" stroke-width=".5" d="M147.51172 440.41797l-7.02344-.0664"/></g><path fill="none" stroke="#000" stroke-linecap="round" stroke-linejoin="round" stroke-miterlimit="10" stroke-width=".5" d="M147.51172 440.41797l1.13281 2.17578m12.14844-1.71094l-6.95703-1m6.95703 1l.83203 2.3086m12.32422-1.66016l-6.64063-2.29688m6.64063 2.29688l.38281 2.42578m13.09375-3.08984l-6.96094-.96875m6.96094.96875l.84375 2.30469m12.46094-3.32813l-6.9414 1.07813m6.9414-1.07813l1.47266 1.96484M199.72266 440l.73437.98438m13.41406-1.82032l-6.58984 2.4375m6.58984-2.4375l1.83203 1.63282m-2.79296-1.27735l.91797.8164m13.24218-1.4414l-6.36328 2.98047m6.36328-2.98047l1.96485 1.47266m10.875-2.22656L234.5 442.625m5.41016-4.48437l2.26953.93359m10.625-1.35938l-4.5664 5.33985m4.5664-5.33985l2.39453.53125m10.39453-.90625l-3.51563 6.08594m3.51563-6.08594l2.45313.08594m10.5078-.26172l-2.80859 6.4414m2.8086-6.4414l2.44922-.1914m10.91406.21093l-2.90235 6.39844m2.90235-6.39844l2.44922-.15625m10.67187.07422l-2.51562 6.5625m2.51562-6.5625l2.4336-.30078m-2.80079 1.25781l1.21875-.15234m13.12891-.46484l-3.84375 5.8828m3.84375-5.8828l2.4414.22265m-3.0039.63282l1.22266.11328m12.67187-.95703l-3.8789 5.85937m3.8789-5.85937l2.4414.23437m-3.0078.61719l1.22265.11719m11.85547-1.36329l-2.27734 6.64844m2.27734-6.64844l2.42578-.38671m11.75781.82812l-4.01171 5.76953m4.01171-5.76953l2.4375.28906m9.72266-.8125l-1.70312 6.8164m1.70312-6.8164l2.38281-.59375m-2.6289 1.58203l1.1914-.29296m10.4961-.64844l2.04297 6.72265m-2.04297-6.72265l1.73828-1.73438m13.78125 1.78516l-2.36328 6.61719m2.36328-6.6172l2.42578-.35937m12.27734 1.26954l-5.13672 4.79687m5.13672-4.79687l2.32032.80078m-3.07032-.10157l1.16016.39844m13.82422 1.71094l-6.98047-.82031m6.98047.8203l.89062 2.28517m10.45703-5.85938l-3.04296 6.33203m3.04296-6.33203l2.45313-.10156m-2.89453 1.01953l2.44922-.09766m11.27734-.83593l-2.98437 6.35937m2.98437-6.35937l2.45313-.1211m-2.88672 1.04688l2.44922-.125m-2.88282 1.05078l1.22657-.0625m13.97656-1.0664l-5.02344 4.91405"/><g clip-path="url(#S)"><path fill="none" stroke="#000" stroke-linecap="round" stroke-linejoin="round" stroke-miterlimit="10" stroke-width=".5" d="M466.07422 437.92578l2.33594.7461"/></g><g clip-path="url(#T)"><path fill="none" stroke="#000" stroke-linecap="round" stroke-linejoin="round" stroke-miterlimit="10" stroke-width=".5" d="M147.5039 427.32422l-7.0078-.51172"/></g><path fill="none" stroke="#000" stroke-linecap="round" stroke-linejoin="round" stroke-miterlimit="10" stroke-width=".5" d="M147.5039 427.32422l.9922 2.2461m12.26952-1.85157l-6.90234-1.30078m6.90234 1.30078l.73047 2.34375m12.62891-2.6289l-6.98828-.73048m6.98828.73047l.92188 2.27344m12.40625-2.83594l-7.01563.39453m7.01563-.39453l1.27343 2.09766m-2.29297-2.03906l.63282 1.04687m13.66015-1.48437l-6.9336 1.15234m6.9336-1.15234l1.49219 1.94922m-2.5-1.78125l.7461.97265m13.55859-1.2461L207.1289 427.75m6.89453-1.36328l1.55078 1.90234m-2.55469-1.70312l.77344.94922m13.52344-1.25l-6.85157 1.5664m6.85157-1.5664l1.60547 1.85547m10.96875-3.33985l-5.3672 4.53516m5.3672-4.53516l2.27734.91016m10.75-1.21094l-4.79297 5.13672m4.79297-5.13672l2.36719.63281m10.08203-1.22656l-3.0625 6.32422m3.0625-6.32422l2.44922-.09375m11.32812.36328l-3.98437 5.78516m3.98437-5.78516l2.4375.27735m10.6289-.4336l-3.49218 6.09766m3.49219-6.09766l2.45312.07813m9.66407-.5l-1.09375 6.9414m1.09375-6.9414l2.3203-.80078m11.96095 1.10156l-3.02735 6.33984m3.02735-6.33984l2.44921-.10938m10.1836-.13281l-1.66406 6.82422m1.66406-6.82422l2.3789-.60937m12.32422 1.29687l-4.4375 5.44922m4.4375-5.44922l2.40625.47656m12.05469 1.23438l-6.73047 2.02734m6.73047-2.02734l1.72656 1.7461m-2.70703-1.44923l.86328.8711m12.78516-2.37891l-5.4375 4.44922m5.4375-4.44922l2.26562.94531m-3.05468-.30078l1.1289.47656m12.94532-1.15625l-5.37891 4.51954m5.3789-4.51954l2.27735.91407m-3.0586-.25782l2.27735.91797m12.03906-1.28906l-5.8164 3.94922m5.8164-3.94922l2.16797 1.14844m-3.01562-.57422l1.08593.57422m13.53907-.16406l-6.7422 1.98046m6.7422-1.98046l1.71484 1.7539m-2.69531-1.46484l1.71484 1.7539m11.76953-3.46093l-5.11719 4.8164m5.1172-4.8164l2.32421.78906m-3.07031-.08594l1.16406.39453m11.3086-2.0664l-1.94141 6.7539m1.9414-6.7539l2.39844-.51172m-2.6836 1.4961l2.40235-.51173m11.96485-.14843l-3.47657 6.10546m3.47657-6.10546l2.45312.0703m-2.95703.81641l2.45312.07422m-2.96093.8164l1.22656.03517m13.92969-1.16016l-5.13282 4.80078"/><g clip-path="url(#U)"><path fill="none" stroke="#000" stroke-linecap="round" stroke-linejoin="round" stroke-miterlimit="10" stroke-width=".5" d="M466.1289 424.66797l2.32032.79687"/></g><path fill="none" stroke="#000" stroke-linecap="round" stroke-linejoin="round" stroke-miterlimit="10" stroke-width=".5" d="M465.38281 425.36719l2.32031.79687"/><g clip-path="url(#V)"><path fill="none" stroke="#000" stroke-linecap="round" stroke-linejoin="round" stroke-miterlimit="10" stroke-width=".5" d="M147.51172 413.8086l-7.02344-.10938"/></g><path fill="none" stroke="#000" stroke-linecap="round" stroke-linejoin="round" stroke-miterlimit="10" stroke-width=".5" d="M147.51172 413.8086l1.1211 2.18359m-2.14063-2.19922l.5586 1.08984m13.77343-.94922l-7.01953-.35937m7.01953.35937l1.03906 2.21875m-2.0586-2.27343l1.03907 2.22265m13.29688-2.45312l-7.02344.21093m7.02344-.21093l1.21875 2.13281m-2.23829-2.10156l1.21485 2.1289M187.44922 413.5l-7.00781.50781m7.0078-.50781l1.3047 2.07813m-2.32422-2.00391l1.30469 2.07812m12.98046-2.53515l-6.91015 1.27343m6.91015-1.27343l1.52735 1.91797m11.64844-2.44532l-6.62891 2.32813m6.6289-2.32813l1.8047 1.66016m11.70702-.64844l-7.02343.30469m7.02343-.30469l1.2422 2.11719m12-2.6836l-6.87892 1.4375m6.87891-1.4375l1.57031 1.88672m11.6875-2.11718l-6.76562 1.89843m6.76562-1.89843l1.69532 1.77343m11.23828-2.65234l-6 3.65625m6-3.65625l2.10937 1.25m10.69922-1.89844l-4.98437 4.95313m4.2578-4.23438l1.17188.36328m13.50391-.20703l-6.2539 3.20313m5.34374-2.73828l1.00782.70312m12.96875-1.57812l-5.75782 4.02343m4.92188-3.4414l1.08984.5586m12.53906-1.73438l-4.71484 5.21093m4.02734-4.45312l1.19141.29687m13.52344 3.25782l-6.14063-3.41407m5.25 2.91797l-.02343 1.22657m14.67187-2.57422l-7.02344.27343m6-.23437l.6172 1.0586m13.6328-1.75391l-6.84765 1.58593m5.85156-1.35546l.80469.92578m13.5039-1.16016l-6.84375 1.58984m6.84375-1.58984l1.61328 1.85156m11.54297-2.36328l-6.52343 2.61719m6.52343-2.61719l1.875 1.58203m-2.82422-1.20312l1.875 1.58203m12.41797-1.88672l-6.58203 2.46875m6.58203-2.46875l1.83985 1.625m-2.79688-1.26562l1.83594 1.625m12.23828-2.41797l-6.1875 3.33593m6.1875-3.33593l2.04297 1.36328m-2.9414-.8789l2.03906 1.36327m11.11718-3.04297l-4.07422 5.72657m4.07422-5.72656l2.4336.3203m10.28515-.66406l-2.8789 6.41016m2.8789-6.41015l2.44922-.16016m-2.86719 1.09375l1.22266-.08203m13.8125.15625l-5.48437 4.39453m5.48437-4.39453l2.2539.97265m-3.05077-.33203l2.2539.96875m12.08594-1.29297l-5.9375 3.76172"/><g clip-path="url(#W)"><path fill="none" stroke="#000" stroke-linecap="round" stroke-linejoin="round" stroke-miterlimit="10" stroke-width=".5" d="M466.53125 411.8711l2.13281 1.21484"/></g><g clip-path="url(#X)"><path fill="none" stroke="#000" stroke-linecap="round" stroke-linejoin="round" stroke-miterlimit="10" stroke-width=".5" d="M465.66406 412.42188l2.13281 1.21093"/></g><g clip-path="url(#Y)"><path fill="none" stroke="#000" stroke-linecap="round" stroke-linejoin="round" stroke-miterlimit="10" stroke-width=".5" d="M147.47266 399.91016l-6.94532 1.05468"/></g><path fill="none" stroke="#000" stroke-linecap="round" stroke-linejoin="round" stroke-miterlimit="10" stroke-width=".5" d="M147.47266 399.91016l1.46484 1.96875m-2.47266-1.8125l.73047.98437m13.63281-.70703l-7.02343.1875m7.02344-.1875l1.21093 2.13672m-2.23437-2.10938l.60547 1.06641m13.60937-1.92578l-6.77734 1.85547m6.77734-1.85547l1.6836 1.78515m-2.67188-1.51562l.84375.89063m13.3086-1.59375l-6.47657 2.71875m6.47656-2.71875l1.90235 1.55078m-2.84375-1.15625l.94922.77734m13.5-.5625l-6.86328 1.5m6.86328-1.5l1.58984 1.8711m-2.58594-1.65235l.79297.9375M214 399.65625l-6.85156 1.5625M214 399.65625l1.60547 1.85547m-2.60156-1.6289l.80468.92968m13.51172-1.13672l-6.85937 1.52735m6.85937-1.52735l1.59375 1.86328m-2.59375-1.64062l.80078.92969m13.51172-1.16407l-6.85547 1.54688m6.85547-1.54688l1.60156 1.86328m11.62891-2.17187l-6.6836 2.16797m5.71095-1.85547l.8828.85547m13.19923-1.66797l-6.27344 3.16406m6.27344-3.16406l2.0039 1.41797m10.45703-2.50781l-4.5664 5.34375m3.90234-4.56641l1.19531.26562m14.00782 1.4375l-7.01563.38282m5.9961-.32422l.6328 1.04687m13.66407-.35547l-6.9375-1.11718m5.92969.95312l.39453 1.16406m11.71875 1.72266l-2.51953-6.5586m2.15234 5.60548l-.80469.92578m16.7422-3.28125l-7.02735.05468m20.27344-.70703l-6.89454 1.35938m5.89454-1.16016l.77343.94922m13 1.51172l-5.8086-3.95703m19.58204 2.99219l-6.72656-2.02735m5.75 1.73047l.23828 1.20313m13.73047-3.6836l-6.07813 3.52344m6.07813-3.52344l2.08203 1.29688m-2.96485-.78516l1.03907.64844m13.54687-.16016l-6.85547 1.52735m6.85547-1.52735l1.59766 1.86328m-2.59375-1.64453l.79687.9336m13.28125 1.07421l-6.38671-2.92968m6.38671 2.92968l.14454 2.44922m13.48046-4.15234l-7.01171.48047m7.01171-.48047l1.29688 2.08203m11.60937-3.50781l-6.1914 3.32812m6.1914-3.32812l2.03907 1.36328m11.5664-.63672l-6.77344 1.875m6.77344-1.875l1.6875 1.78125m-2.67187-1.50781l.84375.89062m13.32812-1.53515l-6.51953 2.62109"/><g clip-path="url(#Z)"><path fill="none" stroke="#000" stroke-linecap="round" stroke-linejoin="round" stroke-miterlimit="10" stroke-width=".5" d="M466.82031 399.1289l1.8789 1.57813"/></g><path fill="none" stroke="#000" stroke-linecap="round" stroke-linejoin="round" stroke-miterlimit="10" stroke-width=".5" d="M465.875 399.50781l1.875 1.58203"/><g clip-path="url(#aa)"><path fill="none" stroke="#000" stroke-linecap="round" stroke-linejoin="round" stroke-miterlimit="10" stroke-width=".5" d="M147.1875 385.64844l-6.375 2.94922"/></g><path fill="none" stroke="#000" stroke-linecap="round" stroke-linejoin="round" stroke-miterlimit="10" stroke-width=".5" d="M147.1875 385.64844l1.95703 1.48437m-2.88281-1.05469l1.95312 1.48047m12.42188-1.57812l-6.64453 2.28906m6.64453-2.28906l1.79687 1.67187m10.95703-2.70312l-5.52343 4.34765m5.52344-4.34765l2.24609.99219m-3.04688-.35938l1.1211.4961m13.21094-.82032l-5.95313 3.73047m5.95313-3.73047l2.1289 1.22656m-2.99219-.68359l1.0625.61328m13.53125 1.625l-6.78515-1.83203m6.78515 1.83203l.54688 2.39063m12.89062-3.35938l-7.02734.10547m7.02734-.10547l1.1836 2.14844m-2.20703-2.13281l.59375 1.07422m13.70703-1.54688l-6.95313 1.01953m6.95313-1.01953l1.45312 1.97656m11.82813-2.17187l-6.88672 1.41015m6.88672-1.41015l1.5625 1.89062m11.75-1.89843l-6.8789 1.42968m6.8789-1.42968l1.5664 1.88671m11.66407-2.21484l-6.71094 2.08203m6.71094-2.08203l1.74218 1.72656m11.32032-2.33203l-6.20703 3.29297m6.20703-3.29297l2.03515 1.3711m11.5039-.85157l-6.65624 2.25782m6.65625-2.25782l1.78516 1.6797m11.39453-2.02345l-6.38282 2.94141m5.45313-2.51172l.97656.74219m13.58985.40234l-7.02735-.20703m6.0039.17578l.54298 1.10156m13.66797-2.10937l-6.77344 1.8711m5.78906-1.59766l.84375.89062m12.88672 1.8711l-5.63281-4.19922m19.59375 2.6875l-6.92578-1.17578m5.91796 1.0039l.38672 1.16406m13.9336-2.1914l-6.92188 1.22265m6.92188-1.22265l1.51172 1.9336m-2.51954-1.75391l1.51172 1.93359m12.7539-2.3711l-6.80858 1.7422m6.80859-1.7422l1.65234 1.8125m-2.64062-1.5625l1.65234 1.81641m12.75781-1.36328l-7.01953.33203m7.01953-.33203l1.25391 2.10938m-2.27344-2.0625l.625 1.05468m13.69922-1.24609l-7 .6211m7-.6211l1.33985 2.0586m11.95703-2.21094l-6.96485.92578m5.95313-.79297l.71484 1m13.64453-.6836l-7.02734.03125m7.02734-.03125l1.16016 2.16016m12.15234-2.0039l-7.02343-.28516m7.02343.28515l1.0625 2.21094m-2.08593-2.2539l.53125 1.10546m13.77734-1.67578l-6.96484.94141"/><g clip-path="url(#ab)"><path fill="none" stroke="#000" stroke-linecap="round" stroke-linejoin="round" stroke-miterlimit="10" stroke-width=".5" d="M467.04297 386.65234l1.4336 1.9922"/></g><path fill="none" stroke="#000" stroke-linecap="round" stroke-linejoin="round" stroke-miterlimit="10" stroke-width=".5" d="M466.03125 386.78906l.71484.9961"/><g clip-path="url(#ac)"><path fill="none" stroke="#000" stroke-linecap="round" stroke-linejoin="round" stroke-miterlimit="10" stroke-width=".5" d="M147.35547 372.77344l-6.71094 2.07031"/></g><path fill="none" stroke="#000" stroke-linecap="round" stroke-linejoin="round" stroke-miterlimit="10" stroke-width=".5" d="M147.35547 372.77344l1.74219 1.73047m-2.71875-1.4297l1.74218 1.73048m12.54297-2.0625l-6.69531 2.13281m6.69531-2.13281l1.7539 1.71484m-2.73046-1.40625l1.75781 1.71485m12.66016-1.46485l-6.95313 1.01563m6.95313-1.01563l1.45312 1.97656m-2.46484-1.82812l1.45313 1.97656m12.91015-1.6875l-7.02344.14063m7.02344-.14063l1.19531 2.14063m-2.21484-2.1211l1.19531 2.14063m13.11328-1.64063l-6.96875-.89844m6.96875.89844l.86328 2.29688m-1.8789-2.42578l.4336 1.14843m13.85937-.79687l-6.89844-1.34375m6.89844 1.34375l.71484 2.34765m-1.71875-2.54296l.35938 1.17187m14.02343-1.5664l-7.02343-.16407m7.02343.16406l1.10157 2.19141m-2.1211-2.21484l.54688 1.09375m13.78125-1.39844l-7.01172.49219m7.01172-.49219l1.30078 2.08203m-2.32031-2.01172l.64843 1.04297m13.625-1.5664l-6.88672 1.39843m6.88672-1.39844L255.52344 375m-2.5625-1.6875l.78125.94531m13.34375-1.78125l-6.5 2.66406m6.5-2.66406l1.88672 1.57031m-2.83203-1.18359l.9453.78516m13.39454-.95703l-6.66016 2.23437m6.66016-2.23437l1.78125 1.6875m-2.75-1.36329l.89062.84375m13.35938-1.26953l-6.58985 2.4375m6.58985-2.4375l1.83203 1.62891m-2.79297-1.27344l.91797.8125m13.35156-1.1875l-6.57812 2.47656m6.57812-2.47656l1.83985 1.6211m-2.79688-1.26172l1.83984 1.6211m12.51563-1.72657l-6.7461 1.96875m6.7461-1.96875l1.71484 1.7539m-2.6953-1.46875l.85546.87891m13.53906-.71484l-6.94531 1.07031m6.94531-1.07031l1.46875 1.96484m11.8125-.70703l-6.875-1.44531m6.875 1.44531l.6836 2.35547m-1.6836-2.5664l.33985 1.17968m13.95703-.88281L353.62109 373m6.83985 1.61719l.6211 2.375m-1.6172-2.60938l.3125 1.1875M373.86328 374l-7.01562-.38281m7.01562.38281l1.03516 2.22266m-2.05469-2.28125l1.03125 2.22656m13.29297-2.69531l-6.9961.66796m6.9961-.66796l1.35547 2.04687m-2.3711-1.94922l.67578 1.02344m13.5625-1.66016l-6.80859 1.75m6.8086-1.75l1.65234 1.8125m-2.64453-1.55859l.82812.90625m13.51563-.99219l-6.88282 1.41406m6.88282-1.41406l1.5664 1.89063m-2.5664-1.6836l.78125.94532m13.60156-.64844l-7.01563.40625m7.01563-.40625l1.27344 2.09765m12.04297-2.02734l-7.01954.26563m7.01954-.26563l1.23437 2.1211m12.03906-1.42579l-6.9375-1.125m6.9375 1.125l.78907 2.32422m12.5703-2.80078l-7.02343-.17578"/><g clip-path="url(#ad)"><path fill="none" stroke="#000" stroke-linecap="round" stroke-linejoin="round" stroke-miterlimit="10" stroke-width=".5" d="M467.07422 373.89453l1.09765 2.19531"/></g><g clip-path="url(#ae)"><path fill="none" stroke="#000" stroke-linecap="round" stroke-linejoin="round" stroke-miterlimit="10" stroke-width=".5" d="M147.24219 359.14063l-6.48438 2.70312"/></g><path fill="none" stroke="#000" stroke-linecap="round" stroke-linejoin="round" stroke-miterlimit="10" stroke-width=".5" d="M147.24219 359.14063l1.89844 1.55859m-2.83985-1.16406l.94531.77734m13.20313-1.41016l-6.26563 3.1836m6.26563-3.1836l2.00781 1.41016m11.67969-.03906l-7.01172.4414m7.01172-.4414l1.28516 2.08984m11.95703-1.1289l-6.8672-1.48438m6.8672 1.48438l.66797 2.36328m12.17187-1.21094l-5.91797-3.78516m5.91797 3.78516l-.19531 2.44531m-.66406-2.9961l-.09766 1.22266m14.4414-.96484l-6.2539-3.20313m6.2539 3.20313l.03516 2.45703m-.94531-2.92187l.01953 1.22656m14.53906-1.76953l-6.92578-1.1875m6.92578 1.1875l.77344 2.33203m-1.77734-2.5039l.3828 1.16406m13.98829-1.50782l-7.02734-.15234m7.02734.15234l1.10547 2.1914m-2.1289-2.21483l.55468 1.09765m13.67578-2.00781l-6.8125 1.71484m6.8125-1.71484l1.64844 1.8164m-2.63672-1.5703l.82031.91015m13.36719-1.53516l-6.57813 2.47266m6.57813-2.47266l1.83984 1.6211m-2.79687-1.26172l.91797.8086m13.42187-.96876l-6.71484 2.07422m6.71484-2.07422l1.73828 1.73047m-2.71484-1.42969l1.73828 1.73047m12.65235-1.625l-6.91407 1.25781m6.91406-1.2578l1.52344 1.92577m-2.52734-1.74219l1.51953 1.92579m12.78516-2.19141l-6.88282 1.42188m6.88282-1.42188l1.5664 1.89063m-2.57031-1.6836l1.5664 1.89063m12.63282-2.52344l-6.64453 2.27734m6.64453-2.27734l1.79297 1.67578m-2.75781-1.34375l1.79296 1.67578m12.63672-1.41406l-6.9414 1.08594m6.9414-1.08594l1.47266 1.96484m-2.48438-1.80469l.73829.98047m13.5664.07813l-6.89844-1.35156m6.89844 1.35156l.71094 2.34765m-1.71485-2.54296l.71094 2.34765m13.5586-1.9375l-6.80079-1.78125m6.80079 1.78125l.5664 2.38672m-1.5586-2.64453l.56642 2.38672m-1.5547-2.64844l.28516 1.19531m15.10547-1.21875l-6.99219-.6914m6.9922.6914l.93359 2.26563m-1.94922-2.36719l.9336 2.26953m-1.95313-2.3711l.46875 1.13673m14.8203-2.02735l-6.86718 1.4961m6.86719-1.4961l1.58594 1.8711m-2.58594-1.65625l1.58594 1.8711m-2.58594-1.65235l.79297.9375m14.39062-1.82813l-6.60547 2.40625m6.60547-2.40625l1.82422 1.64453m-2.78515-1.29296l1.82421 1.64062m12.3711-2.1914l-6.4414 2.80859m6.4414-2.8086l1.92187 1.52344m-2.85937-1.11719l.96094.76172m13.36328-.98437l-6.58985 2.4414m6.58985-2.4414l1.83203 1.63281m-2.78906-1.27734l.91406.8164m13.47265-.8086l-6.8164 1.71095m6.8164-1.71094l1.64454 1.82031m-2.63672-1.57031l.82421.91015m13.58594-.23437l-7.02344-.14063m7.02344.14063l1.10938 2.1875m12.19922-1.99219l-7.00782-.53125"/><g clip-path="url(#af)"><path fill="none" stroke="#000" stroke-linecap="round" stroke-linejoin="round" stroke-miterlimit="10" stroke-width=".5" d="M467.0664 360.75781l.98438 2.2461"/></g><path fill="none" stroke="#000" stroke-linecap="round" stroke-linejoin="round" stroke-miterlimit="10" stroke-width=".5" d="M466.04688 360.67969l.49218 1.125"/><g clip-path="url(#ag)"><path fill="none" stroke="#000" stroke-linecap="round" stroke-linejoin="round" stroke-miterlimit="10" stroke-width=".5" d="M146.54297 344.7539l-5.08594 4.84766"/></g><path fill="none" stroke="#000" stroke-linecap="round" stroke-linejoin="round" stroke-miterlimit="10" stroke-width=".5" d="M146.54297 344.7539l2.32812.77344m-3.0664-.0703l1.16406.38671m13.82813.8711l-6.96485.92577m6.96484-.92578l1.4297 1.9961m11.91015-1.76172l-7.01172.46094m7.01172-.46094l1.29297 2.08594m-2.3125-2.01954l.64453 1.04297m13.52734.20313l-6.6875-2.16797m6.6875 2.16797l.42578 2.41406m-1.39843-2.73047l.21484 1.20703m13.78516-.24218l-6.11328-3.46485m6.11328 3.46485l-.06641 2.45312m-.82422-2.95703l-.03125 1.22656m14.34766-.9336l-6.33203-3.04296m6.33203 3.04297l.10156 2.45312m-1.02344-2.89453l.05078 1.22656m14.38282-1.29296l-6.72657-2.02344m6.72657 2.02344l.48047 2.40625m-1.45704-2.70313l.23828 1.20313m14.125-1.1797l-6.87109-1.48046m6.8711 1.48047l.66796 2.36328m-1.66797-2.57813l.33594 1.1797m14.03516-1.3047l-6.98047-.80078m6.98047.80079l.89844 2.28515m-1.91407-2.40234l.44922 1.14453m13.89844-1.26172l-7.01953-.33203m7.01953.33203l1.05078 2.21875m-2.07031-2.26563l.52344 1.10938m13.78906-1.67188l-6.97266.88672m6.97266-.88671l1.41406 2.0039m-2.42969-1.875l.70704 1.0039m13.6289-1.0664l-6.98437.7539m6.98437-.7539l1.3789 2.02735m11.94923-1.40235l-7.00782-.4961m7.00782.4961l.99609 2.2461m-2.01562-2.31641l.49609 1.1211m13.80469-1.85548l-6.94141 1.11329m6.9414-1.11329l1.48048 1.95704m-2.4922-1.79297l1.48048 1.95312m12.79297-2.3711l-6.83594 1.6211m6.83594-1.6211l1.62109 1.83985m-2.61328-1.60547l1.6211 1.84375m12.75-1.73047l-6.96485.92579m6.96484-.92579l1.42969 1.9922m-2.4414-1.85938l1.42968 1.99609m12.89844-1.1914l-6.96485-.94923m6.96485.94922l.84765 2.30079m-1.86328-2.4375l.85157 2.30078m-1.86329-2.44141l.42579 1.15234m14.9375-1.07812l-7.00782-.54297m7.00782.54297l.98046 2.25m-2-2.32813l.98047 2.25m-2-2.32812l.49219 1.125m14.84766-1.65625l-6.97657.83594m6.97657-.83594l1.40234 2.01172m-2.41797-1.89063l1.40235 2.01172m-2.41797-1.89062l1.40234 2.01171m13.72656-3.11718l-6.54297 2.5586m6.54297-2.5586l1.86328 1.59765m-2.8164-1.22656l1.86328 1.60156m-2.8125-1.22656l.92969.79688m14.36718-1.31641l-6.70312 2.10938m6.70312-2.10938l1.75 1.71875m-2.72656-1.41406l1.75 1.72265m-2.72265-1.41406l.875.85938m14.42578-1.35547l-6.77344 1.8711m6.77344-1.8711l1.6875 1.78125m-2.67578-1.50781l1.6914 1.77734m-2.67578-1.50781l.84375.89062m14.4961-1.22265l-6.87891 1.45312m6.8789-1.45313l1.57422 1.87891m-2.57812-1.66797l1.57812 1.8789m12.77735-1.88671l-6.94922 1.04297m6.94922-1.04297l1.46093 1.97266m-2.47265-1.82032l1.46094 1.96875m12.83203-2.30468l-6.88282 1.41406"/><g clip-path="url(#ah)"><path fill="none" stroke="#000" stroke-linecap="round" stroke-linejoin="round" stroke-miterlimit="10" stroke-width=".5" d="M467.0039 346.47266l1.5625 1.89062"/></g><path fill="none" stroke="#000" stroke-linecap="round" stroke-linejoin="round" stroke-miterlimit="10" stroke-width=".5" d="M466 346.67578l1.5664 1.89063"/><g clip-path="url(#ai)"><path fill="none" stroke="#000" stroke-linecap="round" stroke-linejoin="round" stroke-miterlimit="10" stroke-width=".5" d="M147.10156 332.21484l-6.20312 3.29688"/></g><path fill="none" stroke="#000" stroke-linecap="round" stroke-linejoin="round" stroke-miterlimit="10" stroke-width=".5" d="M147.10156 332.21484l2.03516 1.3711m11.64844.82812l-6.94141-1.10156m6.9414 1.10156l.79688 2.32031m12.5586-2.7539l-7.02344-.23438m7.02344.23438l1.08203 2.20312m-2.10157-2.23828l.53907 1.10156m13.74609-.58593l-6.92188-1.19922m6.92188 1.19922l.76563 2.33203m-1.77344-2.5039l.38281 1.16406m13.84375-.57032l-6.72656-2.03906m6.72656 2.03906l.47266 2.40625m-1.45313-2.70312l.23828 1.20312m14.13672-1.23047l-6.88672-1.39062m6.88672 1.39062l.69922 2.35157m-1.70313-2.5547l.70313 2.35157m13.6836-2.79297l-7.02344-.10156m7.02343.10156l1.1211 2.1836m-2.14063-2.19922l1.11719 2.1836m13.21875-2.3125l-7.02734.1875m7.02734-.1875l1.20703 2.1328m-2.23047-2.10546l.60547 1.0664m13.64844-1.76172l-6.85938 1.52344m6.85938-1.52344l1.59375 1.86328m-2.58984-1.64062l.79687.92969m13.45703-1.38672l-6.74219 1.98828m6.7422-1.98828l1.71484 1.7539m-2.69532-1.46093l.85547.875m13.57813-.33594l-7.01953.32812m7.01953-.32812l1.25 2.11328m11.78906-3.32031l-6.46875 2.74219m5.52734-2.34375l.95313.77343m13.58203.11328l-7.02344.17188m6-.14844l.60547 1.07031m13.3125.66407l-6.17969-3.34375m6.17969 3.34375l-.01953 2.45312m-.88281-2.9375l-.00782 1.22656m14.5625-1.65234l-6.85937-1.52344m6.85937 1.52344l.65625 2.36328m-1.65234-2.58594l.32813 1.1836m13.99609-2.4336l-6.88281 1.42188m6.8828-1.42188l1.56642 1.88672m11.625-2.33203l-6.63672 2.3125m6.63672-2.3125l1.80078 1.66406m-2.76563-1.32812l.89844.83203m13.57422-.10547l-7.02344.1875m7.02344-.1875l1.21094 2.13672m-2.23047-2.10938l1.20703 2.13672m12.90234-3.3125l-6.57422 2.48438m6.57422-2.48438l1.84375 1.6211M386 332.98438l1.84375 1.61718m12.6289-.3125L393.5 333.4375m6.97266.85156l.8828 2.28906m-1.89452-2.41406l.4375 1.14453m13.85937-2.07812l-6.91406 1.26562m6.91406-1.26562l1.52344 1.92578m-2.53125-1.74219l.76172.96485m13.39062-1.76172l-6.5703 2.49219m6.5703-2.4922l1.84375 1.61329m-2.80078-1.25l1.84766 1.61328m12.2461-2.3711l-6.21485 3.28126m6.21484-3.28125l2.03125 1.375m-2.9375-.89844l2.03125 1.375m-2.9336-.89844l1.01563.6914m14.3086-1.18359l-6.61719 2.35938m6.61719-2.35938l1.8125 1.65235m-2.77344-1.3086l1.8125 1.65235m-2.77734-1.3086l.90625.82422m14.32422-1.54297l-6.59375 2.42188"/><g clip-path="url(#aj)"><path fill="none" stroke="#000" stroke-linecap="round" stroke-linejoin="round" stroke-miterlimit="10" stroke-width=".5" d="M466.85938 332.65234l1.82812 1.63282"/></g><path fill="none" stroke="#000" stroke-linecap="round" stroke-linejoin="round" stroke-miterlimit="10" stroke-width=".5" d="M465.89844 333.0039l1.83203 1.63673m-2.78906-1.28516l.91406.82031"/><g clip-path="url(#ak)"><path fill="none" stroke="#000" stroke-linecap="round" stroke-linejoin="round" stroke-miterlimit="10" stroke-width=".5" d="M147.5 320.85156l-7-.60937"/></g><path fill="none" stroke="#000" stroke-linecap="round" stroke-linejoin="round" stroke-miterlimit="10" stroke-width=".5" d="M147.5 320.85156l.96094 2.25781m-1.98047-2.34375l.48047 1.12891m13.86719-1.41406l-7.02735.13281m7.02734-.13281l1.19141 2.14453m-2.21484-2.125L161 322.64453m13.14453-2.09765h-7.02734m7.02734 0l1.15234 2.16796m-2.17578-2.16796l.57422 1.08593m13.75781-.91406l-7.01562-.33984m7.01563.33984L188.5 322.9375m-2.0664-2.26953l.52343 1.10937m13.79688-.85937l-6.98828-.74219m6.98828.74219l.91797 2.27734m-1.9336-2.38281l.91406 2.27344m13.4375-2.52344l-7.02734-.02734m7.02734.02734l1.14063 2.17188m-2.16406-2.17579l1.14453 2.17188m13.16015-2.66016l-6.96093.95313m6.96093-.95313l1.4336 1.99219m-2.44531-1.85156l1.43359 1.98828m12.72656-2.82422l-6.625 2.34375m6.625-2.34375l1.8086 1.66016m-2.77344-1.31641l1.8086 1.65625m12.2578-2.48438l-6.19922 3.3125m6.19922-3.3125l2.03516 1.3711m-2.9375-.88672l1.01563.6836m13.26171-1.04298l-6.32422 3.0625m6.32422-3.0625l1.98438 1.44922m-2.90235-1.0039l.98829.72656m13.5625-.14063l-6.95703 1m6.95703-1l1.44922 1.98047m11.74218-2.52343l-6.70703 2.08984m6.70703-2.08984l1.7461 1.72265m11.62109-1.53125l-6.8164 1.70313m6.8164-1.70313l1.64453 1.82422m11.53125.3164l-6.53515-2.57421m6.53515 2.57422l.28125 2.4375m-1.23047-2.8125l.14063 1.21875m14.28515-1.35938l-6.85546-1.54297m6.85546 1.54297l.64844 2.36719m-1.64844-2.59375l.32422 1.1836m14.0586-1.3711l-6.9922-.71484m6.9922.71484l.92187 2.27344m12.08203-4.11328l-6.3711 2.96484m5.44532-2.53516l.97656.7422m13.45313-.66798l-6.75 1.95313m6.75-1.95313l1.71094 1.76172m11.28125-2.52344l-6.10547 3.47657m6.10547-3.47657l2.07422 1.3125m-2.96094-.80468l2.07422 1.3125m12.3164-1.4375l-6.48047 2.71093m6.48047-2.71093l1.89844 1.55468m9.95313 2.83204l-3.5547-6.0625m3.03907 5.17968l-.64453 1.04688m14.60547-6.14453l-3.8125 5.90234m15.8789-6.40234L436.27344 324m1.3164-6.90234l2.34375-.72657m12.51954 1.44532l-4.41407 5.46484m4.41407-5.46484l2.41015.46484m-3.05078.32813l1.20313.23437m13.15625-.64844l-5.21875 4.70703"/><g clip-path="url(#al)"><path fill="none" stroke="#000" stroke-linecap="round" stroke-linejoin="round" stroke-miterlimit="10" stroke-width=".5" d="M466.17188 318.19531l2.30468.83594"/></g><path fill="none" stroke="#000" stroke-linecap="round" stroke-linejoin="round" stroke-miterlimit="10" stroke-width=".5" d="M465.41016 318.8789l2.30859.83594m-3.0664-.15234l2.30468.83984"/><path fill="#ff3030" fill-rule="evenodd" d="M353.42578 458.77344h7.6914V448.625h-7.6914v10.14844"/><path fill="azure" fill-rule="evenodd" d="M355.25781 450.45703h.83594v5.74219h3.1914v.73828h-4.02734v-6.48047"/><path fill="#00f" fill-rule="evenodd" d="M161.88281 449.89453H170.5V439.75h-8.61719v10.14453"/><path fill="azure" fill-rule="evenodd" d="M163.71484 441.58203h.83203v2.82422h3.28907v-2.82422h.83203v6.48047h-.83203v-2.91797h-3.28906v2.91797h-.83204v-6.48047"/><path fill="#ff3030" fill-rule="evenodd" d="M180.33203 423.26563h7.6914v-10.14844h-7.6914v10.14844"/><path fill="azure" fill-rule="evenodd" d="M182.16406 414.95313h.83203v5.73828h3.19532v.74218h-4.02735v-6.48046"/><path fill="#ffffe0" fill-rule="evenodd" d="M374.73438 454.5664h22.17968v-10.1953h-22.17969v10.1953"/><path fill-rule="evenodd" d="M378.23047 446.20703h.51172V452.5h-.78906v-4.48828h-1.38672v-.55469l.55859-.0664.2539-.0547.22657-.08984.20312-.14062.17579-.21094.14062-.29297.10547-.39453m4.8164 0l.22657.01563.21875.05859.21094.08984.1953.1211.1836.14844.17188.17578.30078.41796.2461.4961.17968.54297.10937.58203.03907.58984-.03907.59375-.10937.58203-.17969.5547-.2461.5039-.30077.42578-.17188.17969-.1836.15625-.1953.12109-.21094.09375-.21875.05469-.22656.01953-.23047-.01953-.21875-.05469-.20704-.09375-.19921-.1211-.1836-.15624-.17187-.1797-.30078-.42577-.2422-.5039-.17968-.5547-.11328-.58203-.03516-.59375h.83204l.02734.5625.08203.50781.125.44141.16406.375.1914.30078.21095.22266.22265.13672.22656.04687.22657-.04687.22265-.13672.21094-.22266.1875-.30078.16406-.375.125-.4414.08204-.50782.03125-.5625-.03125-.5625-.08204-.5-.125-.4336-.16406-.36718-.1875-.29297-.21094-.21484-.22265-.1289-.22656-.04688-.22657.04687-.22265.1289-.21094.21485-.1914.29297-.16407.36719-.125.4336-.08203.5-.02735.5625h-.83203l.03516-.58985.11328-.58203.17969-.54297.24219-.4961.30078-.41796.17187-.17579.1836-.14843.19921-.1211.20704-.08984.21875-.0586.23046-.01562m5.08985 0h.50781V452.5h-.78515v-4.48828h-1.38672v-.55469l.55859-.0664.25-.0547.23047-.08984.20312-.14062.17579-.21094.14062-.29297.10547-.39453m2.82422 2.17188h.78515l.01954-.3125.0625-.28907.09765-.25.14063-.21875.17968-.17187.22266-.1289.26563-.08204.30859-.02734.23828.02344.22266.0625.20703.10156.17578.13672.14844.17578.11328.20312.07422.23828.02343.26172-.01953.26953-.0664.22657-.10938.1914-.15625.17188-.20312.16015-.2461.16797-.63281.38672-.53906.3125-.4375.32031-.34375.32422-.26563.33594-.1914.34766-.125.37109-.06641.39453-.02344.41797h4.21485v-.74219h-3.33204l.08204-.28125.11328-.23828.14844-.19922.1875-.1836.23046-.16796.27735-.17578.71875-.41797.41406-.20703.34766-.23047.27734-.25.22266-.26563.16406-.28125.10937-.28125.0625-.28515.02344-.28125-.04297-.38281-.1211-.34766-.1875-.3086-.2539-.26562-.30078-.21094-.34375-.16015-.38281-.09766-.40625-.03125-.4336.03125-.39843.09766-.35547.16797-.30469.23437-.25.30469-.1836.375-.11718.44531-.03906.51563"/><path fill="#ffffe0" fill-rule="evenodd" d="M279.60547 409.89063h22.1836v-10.19141h-22.1836v10.1914"/><path fill-rule="evenodd" d="M283.10547 401.53516h.51172v6.29296h-.78906v-4.48828h-1.38672v-.55859l.55859-.0625.2539-.05469.22657-.08984.20312-.14063.17579-.21093.14062-.29297.10547-.39453m4.8164 0l.22657.01562.21875.0586.21094.08984.1953.11719.1836.15234.17188.17578.30078.41797.24219.49219.17968.54687.11328.58203.03907.58985-.03907.59375-.11328.58203-.17969.55469-.24218.5039-.30078.42578-.17188.1797-.1836.15233-.1953.125-.21094.09375-.21875.0547-.22656.01952-.23047-.01953-.21875-.05469-.20704-.09375-.19921-.125-.1836-.15234-.17187-.17969-.30078-.42578-.2422-.5039-.17968-.5547-.11328-.58202-.03906-.59375h.83594l.02734.5625.08203.50781.125.4414.16406.375.1914.30079.21095.21875.22265.14062.22656.04688.22266-.04688.22656-.14062.20704-.21875.1914-.30078.16406-.375.125-.44141.08204-.50781.02734-.5625-.02735-.5625-.08203-.5-.125-.4336-.16406-.36718-.1914-.29297-.20704-.21485-.22656-.1289-.22265-.04688-.22657.04688-.22265.1289-.21094.21485-.1914.29297-.16407.36718-.125.4336-.08203.5-.02735.5625h-.83593l.03906-.58985.11328-.58203.17969-.54687.24219-.49219.30078-.41797.17187-.17578.1836-.15234.19921-.1172.20704-.08983.21875-.0586.23046-.01562m5.08985 0h.50781v6.29296h-.78515v-4.48828h-1.39063v-.55859l.5625-.0625.25-.05469.23047-.08984.20312-.14063.17579-.21093.14062-.29297.10547-.39453m2.82422 2.17187h.78515l.01954-.3125.05859-.28906.10156-.25.14063-.21875.17968-.17188.22266-.1289.26563-.08203.30859-.02735.23828.02344.22266.0625.20312.10156.17969.13672.14844.17578.11328.20313.07422.23828.02343.26172-.02343.26953-.0625.22656-.11329.1914-.15234.17188-.20312.16016-.2461.16797-.63281.38672-.53906.3125-.4375.3164-.34766.32813-.26172.33594-.1914.34765-.125.3711-.06641.39453-.02344.41796h4.21094v-.74218h-3.33203l.08594-.28125.11328-.23828.14844-.20313.1875-.17969.23046-.17187.27735-.17578.71875-.41406.41406-.20704.34375-.23046.28125-.25.21875-.26954.16406-.27734.11328-.28125.0625-.28516.01954-.28125-.03907-.3828-.1211-.35157-.1914-.30469-.25-.26562-.30078-.21094-.34765-.16016-.37891-.09765-.40625-.03125-.4336.03125-.39843.09765-.35547.16797-.30469.23438-.25.30468-.1836.3711-.11718.44922-.03906.51562"/><path fill="#ffffe0" fill-rule="evenodd" d="M180.35156 392.42578h22.1836v-10.1914h-22.1836v10.1914"/><path fill-rule="evenodd" d="M183.85156 384.07031h.51172v6.29297h-.78906V385.875h-1.38672v-.5586l.5586-.0625.2539-.05468.22656-.08985.20313-.14062.17578-.21094.14062-.29297.10547-.39453m4.8164 0l.22657.01563.21875.0586.21094.08983.19531.1172.1836.15234.17187.17578.30078.41797.24219.49218.17969.54688.11328.58203.03906.58984-.03906.59375-.11328.58204-.1797.55468-.24218.5039-.30078.42579-.17188.17969-.18359.15234-.19531.125-.21094.09375-.21875.05469-.22656.01953-.23047-.01953-.21875-.05469-.20703-.09375-.19922-.125-.1836-.15234-.17187-.17969-.30078-.42578-.24219-.5039-.17969-.5547-.11328-.58203-.03906-.59375h.83594l.02734.5625.08203.50782.125.4414.16407.375.1914.30078.21094.21875.22266.14063.22656.04687.22266-.04687.22265-.14063.21094-.21875.1914-.30078.16407-.375.125-.4414.08203-.50782.02734-.5625-.02734-.5625-.08203-.5-.125-.43359-.16406-.36719-.19141-.29297-.21094-.21484-.22266-.1289-.22265-.04688-.22656.04687-.22266.12891-.21094.21484-.1914.29297-.16407.36719-.125.4336-.08203.5-.02734.5625h-.83594l.03906-.58985.11328-.58203.1797-.54688.24218-.49218.30078-.41797.17188-.17578.18359-.15235.19922-.11719.20703-.08984.21875-.0586.23047-.01562m5.08984 0h.50781v6.29297h-.78515V385.875h-1.39063v-.5586l.5625-.0625.25-.05468.23047-.08985.20313-.14062.17578-.21094.14062-.29297.10547-.39453m2.82422 2.17188h.78516l.01953-.3164.0586-.28517.10155-.25.14063-.21875.17969-.17187.22265-.1289.26563-.08204.3086-.02734.23827.02344.22266.0625.20313.10156.17968.13672.14844.17578.11328.20312.07422.23829.02344.26171-.02344.26954-.0625.22656-.11328.1914-.15234.17188-.20313.16015-.2461.16797-.6328.38672-.53907.3125-.4375.3164-.34766.32813-.26171.33204-.19141.35156-.125.3711-.0664.39452-.02344.41797h4.21093v-.74219h-3.33203l.08594-.28125.11328-.23828.14844-.20312.1875-.17969.23047-.17188.27734-.17578.71875-.41406.41406-.20703.34375-.23047.28125-.25.21875-.26953.16407-.27734.11328-.28125.0625-.28516.01953-.28125-.03906-.38281-.1211-.35156-.1914-.3047-.25-.26562-.30078-.21094-.34766-.16015-.3789-.09766-.40626-.03125-.4336.03125-.39843.09766-.35547.16797-.30469.23437-.25.30469-.18359.3711-.11719.44921-.03906.51563"/><path fill="#ffffe0" fill-rule="evenodd" d="M319.55078 364.89453h22.1836v-10.1914h-22.1836v10.1914"/><path fill-rule="evenodd" d="M323.05078 356.53516h.51172v6.29687h-.78906v-4.49219h-1.38672v-.55468l.5586-.0625.25-.0547.23046-.08983.20313-.14063.17578-.21094.14062-.29297.10547-.39843m4.8125 0l.23047.01953.21875.05469.21094.08984.19531.1211.1836.15234.17187.17578.30078.41797.24219.49218.17969.54688.11328.57812.03906.59375-.03906.59375-.11329.58204-.17968.55468-.24219.5039-.30078.42579-.17188.17969-.18359.15234-.19531.125-.21094.08985-.21875.05859-.23047.01953-.22656-.01953-.21875-.0586-.21094-.08984-.19531-.125-.1836-.15234-.17187-.17969-.30078-.42578-.24219-.5039-.17969-.5547-.11328-.58203-.03906-.59375h.83594l.02734.5625.08203.50391.125.44531.16406.375.19141.30078.21094.21875.22265.13672.22266.04688.22656-.04688.22266-.13672.21094-.21875.1914-.30078.16407-.375.125-.44531.08203-.5039.02734-.5625-.02734-.5625-.08203-.5-.125-.4336-.16407-.36719-.1914-.29297-.21094-.21484-.22266-.1289-.22656-.04688-.22265.04687-.22266.12891-.21094.21484-.1914.29297-.16407.36719-.125.4336-.08203.5-.02734.5625h-.83594l.03906-.59376.11328-.57812.1797-.54688.24218-.49218.30078-.41797.17188-.17578.18359-.15235.19531-.1211.21094-.08983.21875-.0547.22656-.01952m5.09375 0h.50781v6.29687h-.78515v-4.49219h-1.39063v-.55468l.5625-.0625.25-.0547.23047-.08983.20313-.14063.17578-.21094.14062-.29297.10547-.39843m6.80469 1.62109h-.78906l-.05079-.21094-.08203-.1875-.10546-.16015-.12891-.12891-.14844-.10547-.16015-.07422-.16797-.04297-.17188-.01562-.32812.03906-.28907.1211-.24609.1953-.20313.26954-.16015.33984-.11719.40235-.07031.46875-.02344.52343.1914-.19921.1836-.16016.1875-.125.1836-.08594.1875-.0625.1953-.03515.39844-.02344.3086.02734.32031.09375.3164.15625.29298.21875.2578.28516.19923.35156.07031.19922.05469.21875.02734.23437.0039.25-.78515.04688-.02734-.25781-.07813-.25391-.1211-.23438-.16015-.21093-.19531-.17578-.21875-.13672-.24219-.08985-.2539-.03125-.25391.03125-.24219.08985-.21875.13672-.1914.17578-.16407.21094-.12109.23437-.07813.2539-.02734.25782.02735.25781.07812.25.1211.23438.16406.21093.1914.1797.21875.13671.24219.08594.2539.03125.25391-.03125.24219-.08594.21875-.13672.19531-.17969.16016-.21093.1211-.23438.07812-.25.02734-.25781.78516-.04688-.03125.3711-.08985.3711-.16015.35937-.22266.32812-.28906.28125-.16797.1211-.1914.10156-.20313.08203-.22656.0625-.23829.03906-.26171.01172-.28125-.01563-.26172-.04687-.23828-.07813-.21485-.10546-.19531-.12891-.17188-.15625-.15625-.17969-.13671-.20312-.11329-.22266-.10156-.24219-.14453-.53515-.08594-.59375-.02734-.64063.03906-.74219.11328-.66406.1875-.57812.1211-.2539.13672-.23048.15234-.20703.16797-.1836.1875-.15234.20312-.1289.21875-.10547.23047-.07031.25-.04688.26172-.01562.36328.03515.33203.09375.29688.15235.25781.19921.21094.2422.16406.27343.11719.30469.0625.32031"/><path fill="#ffffe0" fill-rule="evenodd" d="M173.96094 325.85156h22.1836v-10.1914h-22.1836v10.1914"/><path fill-rule="evenodd" d="M177.46094 317.49219h.51172v6.29687h-.78907v-4.49219h-1.38672v-.55468l.5586-.0664.2539-.05079.22657-.08984.20312-.14063.17578-.21094.14063-.29687.10547-.39453m4.8164 0l.22657.01953.21875.05469.21093.08984.19532.1211.18359.14843.17188.17578.30078.42188.24218.49219.1797.54687.11327.57813.03906.59375-.03906.58984-.11328.58594-.17969.55468-.24218.5-.30078.4297-.17188.17968-.1836.15234-.1953.125-.21094.08985-.21875.05859-.22657.01953-.23047-.01953-.21875-.0586-.20703-.08984-.19922-.125-.18359-.15234-.17187-.17969-.30078-.42969-.2422-.5-.17968-.55468-.11328-.58594-.03906-.58985h.83593l.02735.5625.08203.50391.125.44531.16406.375.1914.29688.21095.22265.22265.13672.22656.04688.22657-.04688.22265-.13671.20703-.22266.19141-.29688.16406-.375.125-.4453.08203-.50392.02735-.5625-.02735-.5625-.08203-.5-.125-.4375-.16406-.36328-.1914-.29296-.20704-.21485-.22265-.13281-.22657-.04297-.22656.04297-.22266.13281-.21093.21485-.1914.29296-.16407.36329-.125.4375-.08203.5-.02735.5625h-.83593l.03906-.59375.11328-.57813.17969-.54688.24219-.49218.30078-.42188.17187-.17578.1836-.14844.19921-.12109.20703-.08984.21875-.0547.23047-.01952m5.08985 0h.50781v6.29687h-.78516v-4.49219h-1.39062v-.55468l.5625-.0664.25-.05079.23047-.08984.20312-.14063.17578-.21094.14063-.29687.10547-.39453m6.80469 1.6211h-.78907l-.05078-.21095-.08203-.1875-.10547-.16015-.1289-.1289-.14844-.10548-.16016-.07422-.16797-.04296-.17187-.01563-.32813.03906-.28906.1211-.2461.1953-.20312.26954-.16016.33594-.11718.40625-.07031.46484-.02344.52735.1914-.20313.1836-.15625.1875-.125.1836-.08594.1914-.0625.1914-.03515.39844-.02344.3086.02734.3203.09375.31641.15625.29297.21875.25781.28516.19922.34765.07032.20313.05468.21484.02735.23438.0039.2539-.78515.04688-.02735-.26172-.07812-.25-.1211-.23437-.16015-.21094-.19531-.17578-.21875-.13672-.2422-.08985-.2539-.03125-.2539.03125-.2422.08985-.21874.13672-.1914.17578-.16407.21094-.1211.23437-.07812.25-.02734.26172.02734.25781.07813.25.12109.23438.16406.21094.1914.17968.21876.13672.24219.08594.2539.03125.2539-.03125.2422-.08594.21875-.13672.1953-.17969.16017-.21093.12109-.23438.07812-.25.02735-.25781.78515-.04688-.03125.3711-.08984.3711-.16016.35937-.22265.32812-.28906.28125-.16797.1211-.19141.10156-.20313.08203-.22656.0625-.23828.03906-.26172.01172-.28125-.01562-.26172-.04688-.23828-.07812-.21484-.10547-.19531-.1289-.17188-.15626-.15625-.17969-.13281-.20312-.11719-.22266-.10156-.24219-.14453-.53515-.08594-.59375-.02734-.64063.03906-.74218.11328-.66407.1875-.57812.1211-.2539.13671-.23048.15235-.20703.17187-.1836.1836-.15624.20312-.1289.21875-.10157.23047-.07031.25-.04688.26172-.01562.36328.03515.33594.09375.29297.15235.2578.19922.21095.24218.16406.27344.11719.30078.0625.32422"/></g></defs><use xlink:href="#am"/></svg>