<svg xmlns="http://www.w3.org/2000/svg" role="img" xmlns:xlink="http://www.w3.org/1999/xlink" viewBox="142.45 309.95 326.84 171.84"><defs><clipPath id="a"><path d="M144 446h1v34.32813h-1zm0 0"/></clipPath><clipPath id="b"><path d="M144 311.67188h1V437h-1zm0 0"/></clipPath><clipPath id="c"><path d="M144 311.67188h324v168.65625H144zm0 0"/></clipPath><clipPath id="d"><path d="M436 479h3v1.32813h-3zm0 0"/></clipPath><clipPath id="e"><path d="M467 311.67188h1v168.65625h-1zm0 0"/></clipPath><clipPath id="f"><path d="M144 479h4v1.32813h-4zm0 0"/></clipPath><clipPath id="g"><path d="M147 480h2v.32813h-2zm0 0"/></clipPath><clipPath id="h"><path d="M153 478h8v2.32813h-8zm0 0"/></clipPath><clipPath id="i"><path d="M166 479h9v1.32813h-9zm0 0"/></clipPath><clipPath id="j"><path d="M173 480h3v.32813h-3zm0 0"/></clipPath><clipPath id="k"><path d="M180 480h8v.32813h-8zm0 0"/></clipPath><clipPath id="l"><path d="M187 480h2v.32813h-2zm0 0"/></clipPath><clipPath id="m"><path d="M193 480h9v.32813h-9zm0 0"/></clipPath><clipPath id="n"><path d="M200 480h3v.32813h-3zm0 0"/></clipPath><clipPath id="o"><path d="M207 478h8v2.32813h-8zm0 0"/></clipPath><clipPath id="p"><path d="M212 480h2v.32813h-2zm0 0"/></clipPath><clipPath id="q"><path d="M220 479h8v1.32813h-8zm0 0"/></clipPath><clipPath id="r"><path d="M227 480h2v.32813h-2zm0 0"/></clipPath><clipPath id="s"><path d="M233 479h8v1.32813h-8zm0 0"/></clipPath><clipPath id="t"><path d="M240 479h3v1.32813h-3zm0 0"/></clipPath><clipPath id="u"><path d="M246 479h9v1.32813h-9zm0 0"/></clipPath><clipPath id="v"><path d="M253 479h3v1.32813h-3zm0 0"/></clipPath><clipPath id="w"><path d="M260 479h8v1.32813h-8zm0 0"/></clipPath><clipPath id="x"><path d="M266 480h1v.32813h-1zm0 0"/></clipPath><clipPath id="y"><path d="M273 479h8v1.32813h-8zm0 0"/></clipPath><clipPath id="z"><path d="M279 480h2v.32813h-2zm0 0"/></clipPath><clipPath id="A"><path d="M286 479h9v1.32813h-9zm0 0"/></clipPath><clipPath id="B"><path d="M292 480h2v.32813h-2zm0 0"/></clipPath><clipPath id="C"><path d="M300 479h8v1.32813h-8zm0 0"/></clipPath><clipPath id="D"><path d="M306 479h2v1.32813h-2zm0 0"/></clipPath><clipPath id="E"><path d="M313 478h8v2.32813h-8zm0 0"/></clipPath><clipPath id="F"><path d="M327 478h7v2.32813h-7zm0 0"/></clipPath><clipPath id="G"><path d="M343 476h2v4.32813h-2zm0 0"/></clipPath><clipPath id="H"><path d="M354 477h6v3.32813h-6zm0 0"/></clipPath><clipPath id="I"><path d="M367 478h7v2.32813h-7zm0 0"/></clipPath><clipPath id="J"><path d="M379 479h9v1.32813h-9zm0 0"/></clipPath><clipPath id="K"><path d="M380 478h2v2.32813h-2zm0 0"/></clipPath><clipPath id="L"><path d="M393 479h8v1.32813h-8zm0 0"/></clipPath><clipPath id="M"><path d="M407 478h7v2.32813h-7zm0 0"/></clipPath><clipPath id="N"><path d="M419 479h9v1.32813h-9zm0 0"/></clipPath><clipPath id="O"><path d="M420 478h2v2.32813h-2zm0 0"/></clipPath><clipPath id="P"><path d="M433 477h8v3.32813h-8zm0 0"/></clipPath><clipPath id="Q"><path d="M446 479h8v1.32813h-8zm0 0"/></clipPath><clipPath id="R"><path d="M461 476h5v4.32813h-5zm0 0"/></clipPath><clipPath id="S"><path d="M144 466h4v3h-4zm0 0"/></clipPath><clipPath id="T"><path d="M144 452h4v4h-4zm0 0"/></clipPath><clipPath id="U"><path d="M144 439h4v3h-4zm0 0"/></clipPath><clipPath id="V"><path d="M144 426h4v2h-4zm0 0"/></clipPath><clipPath id="W"><path d="M466 425h2v3h-2zm0 0"/></clipPath><clipPath id="X"><path d="M144 413h4v2h-4zm0 0"/></clipPath><clipPath id="Y"><path d="M466 411h2v2h-2zm0 0"/></clipPath><clipPath id="Z"><path d="M144 399h4v2h-4zm0 0"/></clipPath><clipPath id="aa"><path d="M466 398h2v2h-2zm0 0"/></clipPath><clipPath id="ab"><path d="M144 386h4v2h-4zm0 0"/></clipPath><clipPath id="ac"><path d="M466 384h2v3h-2zm0 0"/></clipPath><clipPath id="ad"><path d="M144 373h4v2h-4zm0 0"/></clipPath><clipPath id="ae"><path d="M465 370h3v2h-3zm0 0"/></clipPath><clipPath id="af"><path d="M144 360h4v1h-4zm0 0"/></clipPath><clipPath id="ag"><path d="M465 357h3v2h-3zm0 0"/></clipPath><clipPath id="ah"><path d="M144 346h4v3h-4zm0 0"/></clipPath><clipPath id="ai"><path d="M466 344h2v3h-2zm0 0"/></clipPath><clipPath id="aj"><path d="M144 332h4v4h-4zm0 0"/></clipPath><clipPath id="ak"><path d="M466 331h2v3h-2zm0 0"/></clipPath><clipPath id="al"><path d="M465 332h3v3h-3zm0 0"/></clipPath><clipPath id="am"><path d="M144 318h4v5h-4zm0 0"/></clipPath><clipPath id="an"><path d="M465 318h3v2h-3zm0 0"/></clipPath><g id="ao" clip-path="url(#clip1)"><path fill="#fff" fill-opacity="0" fill-rule="evenodd" d="M0 0h1000v1000H0zm0 0"/><path fill="#d3d3d3" fill-opacity="0" fill-rule="evenodd" d="M162.15234 355.86719l-.23437.29297.0586.23437.11718.17188.17578.23437.29297.34766.11328.0586.11719-.17188.0586-.23438.17577-.17578.46485-.17578h.69922l.23437.29297.28906.8164.0586.17579.17578.23046.35156.23438.69922.69922.17188.17578.23437.34765.23438.41016.28906.58203.41015.46485.23047.23437.23438.17578.11719.23047.17578.29297.17187 1.16406v.23438l.0586.28906.05859.11719.11719.11719.34765.41015.11719.17188.17578.17578.17578.23437.11719.17188.17188.35156.05859.23438.23437.40625.23438-.0586-.17578.17578-.0586.92969h-.58203l-.23437-.11328-.34766.11328-.11719.11719-.05859.29297-.0586.17578-.11718.17187-.46484.29297-.0586.23438-.0586.11328v.64453l.0586.17187v.41016l.0586.0586v.40624l.05859.40625.11719.17579.05859.05859.23047.64062-.0586.29297v.69922l-.05859.58203v.23438l-.0586.23047-.05468.35156v1.92187l.05469.1172h.42578l-.36719.11718-.02344.35156.89063 1.16797 1.74219.53906 1.33984.35938v.53906l.08984.8086.53516.71484 1.51953.26953.89063-.08594.08984 1.16406.53516.1797 1.16015-.1797 2.05469-.98437 1.16016-.36328 1.8789-.17578 1.69531-.1797-.17968.71876-1.51563.08594-1.25.08984-.80469.26953-1.07421.8086.26953.71875.53515.89843-.17968.625-.26563.8086.26563 1.07812.625.89844.80468.17969 1.25-.1797-.26562.72267.09766.5039.05468.29297v.17188l.0586.29296v.40625l.17578.1172.35156.11718h.40625l.29297-.17578.11328-.11719.0586-.11719.11718-.23047.0586-.17578.35156-.46484.23047-.17578.17578-.0586.17578.0586.0586.17578.11718.98828.05469.46875.0586.17188.11718.23437.17578.0586.8164.05859h.28907l.11719.23437.05859.40625.0586.35156v1.10547l.11718.29297.11719.34766.28906.69922.17578.35156.58203.7539.35157.17579.17187.0586.46875.23437.64063.46484.34765.23438.29297.17578.29297.05468.23047.0625.8164.34766.29297.17578.11328.17188.35157.35156.11719.17578.52343.64063v.28906l.0586.35156v.34766l.05859.35156.0586.28906.11718.0586.17188.05859h.17578l.58203.23437.17578.1172.17578.28905.17578.23438.11328.23437.29297.23047.11719.11719v.41016l.0586.05468.28906.23438.23437.11719.0586.11718.11718.17188.0586.11719.23047.23437.05859.17578.23437.0586.1172.05859-.1172.11328-.05859.11719v.11719l-.11719.29296-.11719.28907v.58203l.17579.11719.11718.05859.0586.11719.11719.11719.11328.05859.17578.34765.0586.35157.05858.40625v.17578l-.05859.17578-.11719.69922v.17187l.1172.17579.29296.29296h.40625l.17578.1172.11719.17187.11719.29296v.23438h-.52735l-.23047-.23438h-.23437l-.17578.0586-.0586.69922.0586.34765.11719.17579.17578.41015.11718.23047.28907.46875.17578.05469h.52344l.23437.0586.75781.64062.0586.29296v.23438l.05859.0586.23047.34765v.35156l-.11719.17188v.29297l.29297.28906.29297.17578.17187.0586.29297.17577.29297.1172.58203.40624.28906.23438.29297.17578.21875.16015.01563.01172.23047.17579.64062.52343.17578.23438.1172.17578.17577.17578.11328.17188v.64062l.1172.17578.46874.11719.58203.11719.23438.05859.23047.11328.29297.11719.11328.0586.58593.35156.28907.17187.17578.0625.17578.05469.17578.0586.69922.35155.28906.17579.23438.05468.28906.17578.23437.1172.64063.40624.29297.11719.17187.0586.23438.05859.41015.05859.23047.0586.23438.11718.0586.17188-.41017.17578.46875.0586.0586.29296.11328.23438.17578.05468.23438.0586.17578.05859.40625.11719.64062.23437.11719.17188.0586.23437v.17578l-.0586.1172-.0586.40624.23438.23438.11719.05859.34766.11719.64062.23047.17578.11718.28906.1172.17578.17577.23438.46485.58203 1.10546.17578.17579.34766.17578.17578.11719.35156.11718 1.04688.52344.23437.0586.46485.11327.29297.0586.46484.17578.75781.58203.23438.23438.34765.46484.17578.17578.28907.23438.8164.69921.29297.17579.28906.28906.29297.17578.29297.28906.69531.64063.17578.17578.29297.23437.28907.23438.46875.28906.64062.58203.34766.23438.23437.29297.34766.34765.35156.46485.9336.99218.34765.40625.11719.17579.23437.05859.11328.11719.64454.17578.23047.11328.23437.0586.29297.17577.23047.1172.9336.69921.40624.40625.23438.17578.40625.17578.23437.11719.8164.34766.34766.23437.23438.11719.29297.28906.23047.11719.7578.35156.35157.17188.23047.05859.29297.11719.23437.0586.8711.17577h.8164l.46875.23047.17188.0586.875.69921.46484.1172.29297.05858.17578.0586.23047.0586.46875.05859.34766.05859.35156.0586.40625.05859h.29297l.17187.0586v.23046l.17578.17578h.29297l.34766.0586.35156.05859.69922.11719h.64063l.46484-.23438.29297-.17578.17187-.11719.41016-.17187.28906-.17578.9336-.46485.46875-.29297.52343-.29296.46485-.17188.46484-.17578 1.05078-.46485.28906-.11718.41016-.11719.28906-.11719.52735-.17578 1.51562-.69922.58203-.34765.28907-.0586.29297-.0586.34765-.11718.875-.23047.35156-.11719h.11329l.23437-.05859.875-.23437.23438-.0586h.8125l.35156-.0586.8164-.11718.17188-.0586.35156-.05468.29297-.0586.23047-.05859.8164-.17578.17579-.0586h.34765l.23438-.05859.46484-.11718.75781-.17188.23438-.0586h.34765l.41016-.11718.28906-.0586 1.28516-.05859h.28906l.41016-.0586.23047-.05858h.17578l.875-.1172h.40625l.41015-.11718h.34766l.35156-.11328.8711-.0586h1.75l1.04687.28907.41016.11719.28906.11718.35156.11719.28907.11719 1.05078.17187.28906.0586h.29297l.29297.05859.17187.0586.41016.05859.17187.0586.1172.05858h.11718l.11719.0586.35156.0586h.11328l.41016.0664 1.92187.39453 1.92578.39453 1.51953.44922 1.69532.71875 2.14453.80469 1.60547-.71875 1.42968-.80469 1.16016-1.07813 1.25-.44921 3.03516-.71875 1.875-.35938 2.14453-1.34765 2.23437-1.25391 2.5-1.25781 1.69531-.44922 1.78516-.17969 1.16016-.26953.625.53906 1.33984-.26953.71485-.98828.98437-1.34375.44531-.17969.80469-.35937 1.875-.53907 1.78516-.44921 1.25-.26954 1.16015-.08984 1.69922-.08984 1.96094-.26954 1.25-.08984h.53906l.625-.08984h.89063l2.14453-.17969 2.41015-.17969 2.58985-.08984 1.69531.17969 1.60938.08984 1.42968.35938 1.16016.71875 1.875.98828 1.16015 1.52734.26563.71484.6289.08985.35548.89844.53515.53906.53516 1.52734 1.07422.35938h.53515l-.80469.53515.08985 1.70703.71484 2.69532.89063.80468.89453.98829.71484 1.2578 1.78516.53907 1.51953-.17969.35547 1.34375 1.60937-.80469.98047-.53906.26953.26953.31641-.21484.21875-.14453.80078.44922.44922-.35938h.35547l.53515-.26953.53907-.71875.53515-.26953.625-.98828 1.16016.44922.83984.3711 1.39454.61718 1.6953-.17969h1.60548l1.78515.08985.17969-1.70704.53516-1.34375.80468.26954.4922.84765.40233.40625-.08984.53906v.35938l.71485.44922.71093-.26953h1.42969l.35938.98828.4453 1.25781.71485 1.34375 1.25.6289 1.69531.62891.71485-.17969.17969-.53906.98046-.08984.44922.35937.08594 1.25782-.26563.6289-.53515.17969v.53906l.71484.98438.26563.53906.98437.98828.80078 1.07813-.26562.35937-.08985.89844-.625 2.33203-.35546 2.0664-.08985 1.79298-.17969.71875-.08984.53906v1.4375l-.98047 1.88281-.35937 1.70703-.53516.89844-.80469 1.16797-.26562.53906 2.05469 1.2539.08593.35938-.35546.53906-.08985-.17968v.80859l.08985 1.4375-.44532.71484-1.07422.09375-.26562.71485.53515.89844.8047.71875 1.16015.80859 1.33984.26953.44531.35938-.35546.44921-1.78907-.08984-1.25-.44922-.71484-.71875-.625-.08984-.17578 3.58984-.1875 1.3086h89.35937V311.70313h-55.26953v49.08203l.76172.125 3.28906.54296 2.02344 2.83594v2.7539l2.35156.33204 2.34766.33203h4.05078l-1.3789 4.16016-2.02344.70703-2.02344.70312-.54297.34375-2.59375 1.6172-.1875.11718-2.02344-2.07813-.73046-2.74218-2.67188-2.07813-1.375-3.5-.0664-.08203-1.95704-2.67188 2.75-1.41796v-49.08204H294.42187v91.41407l.1172.03125.1328.01172.07422.07421.10547.04688.08985.0586.08593.05859.08985.0586.29687.29687.0586.08984.03125.11719.02734.11719.01563.13671-.03125.1172-.0586.08983-.0586.08594-.04296.10547-.04688.10156-.02734.1211v.14453l.17578.26953.14844.14844.07422.08594.07422.07421.04296.10547.0625.08985.0586.08593.04297.10547.0586.08985.04687.10156.04296.10547.0586.08594.11719.17968.07421.07422.0625.08594.0586.08984.04297.10547.0586.08985.05858.08593.0625.08985.0586.08984.04297.10156.11719.17969.07421.07422.0586.08594.07422.07421.08984.0586.10547.04687h.14844l.1328-.01562.13282.01562.10156-.04687.07422-.07422.04688-.10156-.01563-.13281v-.14844l-.04687-.10547-.02735-.11719-.04687-.10156-.02735-.1211-.04296-.10156-.0625-.08984-.04297-.10156-.04297-.10547-.03125-.11719-.01563-.13281-.01171-.13672.08593-.0586.0586-.08593.12109-.03125.04297.10547.01562.1328v.1172l.0586.10156.0586.08984.08983.0586.14844.14843.0586.08985.04296.10547-.01171.10156.08593.0586.10547.04687.08594.0586.08984.05858.07422.07422-.11719.02735-.10546.04687-.08594.0586-.07422.07421-.0586.08985-.0625.08594-.02734.12109-.04687.10156-.04297.10547-.03125.11719-.01172.13281-.01563.13281v.14844l.02735.11719.04687.10547.04297.10156.0586.08984.07421.07422.08985.0586.07422.07421.08984.0586.0586.08984.04296.10547.04688.10156.11719.03125.1328.01563h.14845l.11718-.03125.10547.04297.04297.10547.04688.10156.02734.1211L299.5 410l.02734.11719.03125.1211.02735.11718.10547.04297.10156.04687.13281-.01562.14844.14844.0625.08593.07422.07422.07031.07422.08984.0625.10547.04297.10156.04297.1172.03125.13671.01562.11719-.03125.07422-.07422.02734-.11718-.01172-.13282-.03125-.12109-.02734-.11719.04297-.10547h.11719l.08984.0625.11719.02735h.14843l.13282.01562h.14843l.13282.01563.1328-.01563h.14845l.1328-.01562.13282-.01172.13672.01172.11719-.02735.13281-.01562.1914-.0586-.05859.17579-.01562.1328-.02735.1211-.01562.13281-.0586.08594-.1328.01563-.10548.04687-.10546.04297-.1172.03125-.11718.02735-.26563.03125h-.14843l-.13281.01562-.07422.07422.05859.08594.14844.14843.11719.1797.07421.0703.08985.0625.08984.0586.08594.0586.08984.05858.10156.04297.10547.0625.10547.04297.08594.0586.10547.04687.10156.04297.17969.11719.0586.08984-.04298.10156-.04687.10547.01562.13281.22266.22266.0586.08985.04296.10156.03125.1211.04297.10155.01563.13282.03125.11718.01171.13672.03125.11719.14844.14844.10156.04297.10547.04296.1172.03125.1328.01563.13672.01563h.11719l.11719-.03125.08984-.0586.04297-.10547.04688-.10156.04296-.10547.03125-.11719.01172-.1328v-.14845l-.01172-.1328-.01562-.13282-.03125-.11719-.04297-.10547-.04688-.10547-.04296-.10156-.04297-.10547-.01563-.13281.01563-.13281.02734-.11719.03125-.11719.02735-.1211.04687-.10155.08984-.0586.08594-.0625.07422-.07422.08984-.05859.22266-.22266.0586-.08593.07421-.07422.11719-.17969.0586-.08594v-.14844l-.07423-.07421-.10156-.04688-.10547-.04297-.10156-.04297-.0586-.08984-.04687-.10547-.02734-.11719.08984-.05859.11719-.03125.10156-.04297.17969-.11719.14844-.14843.01172-.13282-.01172-.10546-.08985-.0586-.1328.01563h-.14845l-.1328.01562-.13282-.01562-.1211-.03125-.08593-.0586-.07422-.07422-.0586-.08984-.0625-.08594-.11718-.17969-.0586-.08593.03125-.1211.08594-.05859.1211-.03125.05859-.08594v-.1211l-.03125-.11718-.0586-.08984-.05859-.08594-.04687-.10547-.02735-.11719-.01562-.1328.0586-.08985.07421-.07422.08984-.0586.1172-.17968.07421-.07422.0586-.08594.14843-.14844.1211-.03125.1328-.01562.13282.01562.07422.07422.04297.10547.01562.13281-.03125.1172-.11719.03124-.1328.01172-.14844.14844-.04297.10547-.04688.10156-.02734.1211-.03125.11718v.14844l.03125.11719.04297.10546.05859.08985.07422.07031.07422.07422.11719.03125.12109.02734.11719-.02734.1328-.01563h.1172l.08984.0586.07422.07422.04687.10546.0586.08594.10156.04688.13281.01562.10547.04297.08594.0586-.01172.10546-.07422.07422-.17969.11719-.05859.08984-.08984.0586-.07032.07422-.07421.07421-.0625.08985-.02735.11719-.01562.1328.01562.13282-.01562.13281v.14844l.01562.13281.02735.1172.03125.12108.07421.07422.08985.0586.08594.0586.08984.05858.11719.03125v.08594l-.10157.04688-.08984.0586-.26563.03124-.11718.02735h-.14844l-.10547.04296-.10156.04688-.0586.08984-.0625.23438-.01171.13281-.03125.1211-.01563.1328v.29298l-.01172.1328.01172.13673.01563.1328.1328.01563.13282.01172.1211.03125.08593.0586.07422.07421.04688.10547.04296.10157.01563.1328v.44532l-.01563.13281v.44532l.03125.26562.02735.11719.01562.13281.03125.11719.08594.21094.03125.26562v.14844l-.03125.11719-.02734.11718-.03125.1211-.02735.11719-.03125.11718-.03125.1211-.01171.1328-.01563.13282.08984.0586.1172-.03125.10155.01562.04688.10547-.03125.26562v.44141l-.04297.10547-.04688.10547-.04296.10156-.04297.10547-.0586.08594-.03125.12109-.04296.11719-.03125.11719-.01563.1328.01563.13282.05859.08984.10547.04688.08594.0586.05859.08593-.01172.13672-.03125.11719-.04297.10156v.44531l-.01562.13281v.14844l-.03125.11719-.04297.10547-.02735.11719-.04687.10546-.04297.10157-.03125.12109-.02734.11719-.03125.13281-.03125.11719-.02735.11719-.04297.10546-.03125.1172-.03125.12108-.01171.13282-.01563.13281v.29688l.02734.11718v.14844l.04688.39844.02734.11719.0586.08984.12109.03125h.14844l.13281-.01563.0586.08985v.11719l-.0586.08984-.08984.0586-.10157.04296-.10546.04688-.08985.05859-.08594.0586-.13671.01562-.1172-.03125-.1328-.01563-.10157.04688-.0625.08594-.01172.13671-.01562.13282-.03125.11719-.02735.11718-.01562.13281-.03125.1211v.29687l.01563.13282.03125.11718v.14844l.01171.13281v.14844l-.02734.11719-.04688.10156-.02734.1211-.03125.11718-.0586.08985-.07421.07421-.10156.04297-.10547.04688-.11719.02734-.1211.03125-.10156-.04687.0586-.08594.10547-.04688.02734-.11718.03125-.11719.02734-.1211.03125-.11718v-.14844l.01563-.13281-.03125-.11719-.04297-.10547-.10547.01563-.07422.07422-.10156.04296-.08984.0625-.07422.07422-.04297.10157-.01563.1328-.03125.1172L304.25 426l-.03125.11719-.02734.11719-.03125.12109-.02735.11719-.03125.11718-.04297.10547-.08984.0586h-.08984l-.1172-.03125-.03124-.08594.01562-.13672-.03125-.11719v-.14844l-.01171-.1328v-.14844l-.0625-.23438-.02735-.1211-.04297-.10156-.04687-.10546-.0586-.08594-.05859-.08985-.04297-.10546-.0625-.08594-.14844-.14844-.0703-.07422-.10548-.04687-.10547-.04297-.10156-.04297-.29687-.29688-.08985-.07421-.08594-.0586-.10546-.04297-.08985-.0625-.08594-.0586-.10546-.04296-.08985-.0586-.08594-.0625-.07421-.0703-.10547-.04688-.08594-.0586-.10547-.04296-.08984-.0625-.10156-.04297-.10547-.04297-.08594-.0586-.10547-.04687-.10547-.04297-.10156-.04687-.08985-.0586-.10156-.04297-.10547-.04296-.08984-.0625-.11719-.02735-.13281-.01562-.13281.01562H299.75l-.13281.01563-.11719-.03125-.08984-.0586-.07422-.07422-.08985-.05859-.10156-.04688h-.14844l-.12109-.02734-.10156-.04297-.07422-.07422-.11719-.17968-.08984-.0586-.10156-.04297-.08985-.0625-.10547-.04296-.08984-.0586-.08594-.0586-.10547-.04687-.0586-.08594-.05858-.08984-.04297-.10547-.04688-.10156-.07422-.07422-.08594-.0586-.07421-.07421-.08985-.0586-.22265-.22265-.04297-.10547-.03125-.26563.10547-.04296h.14453l.10547.04296.07421.07422.08985.0586.08594.0586.10546.04687.08985.05859.14844.14844.0703.07422.14845.14843.0625.08594.07421.07422.08594.0586.07422.07421.08985.0625.08984.0586.08594.05859.26953.17578.10156.04688.10547.04296.10156.04297.04688-.07421.05859-.08594.07422-.07422.07031-.07422.10547.04297.07422.07422.0586.08984.04296.10156.04688.10547.04296.10547.1211.02735.11719-.02735.07421-.08984.04297-.10547.0586-.08985.07422-.07421.10546-.04297.1172-.02735.1328.01172.08985.0586.14844.14843.05859.08985.04297.10547.04687.10156.04297.10547.04297.10156.10547.04688.10547.04296.13281.01563.08594-.0586.0586-.08984.07421-.07422.10547-.04297.11719.02735.10547.04687.10156.04297.10547.04297.10156.04688.17969.11718v.11719l-.01563.13281.01563.13281.01562.13672.0586.08594.10156.04688.1211.02734.11718.03125h.14844l.11719-.03125.05859-.08984.17969-.1172.05859-.08983.07422-.07422.0586-.08594.11718-.17969.17969-.11719.11719.03125.08984.0586.04297.07422-.01563.1328v.1172l.08985.05859h.14843l.13282-.01563.1328-.01171.26563-.03125.10547-.04297.11719-.03125.1211-.02735.07421-.07421.07031-.07422.0625-.08985-.01562-.10547-.04688-.10156-.10156-.04297-.10547-.01562-.11718.02734-.26563.03125h-.14844l-.07421-.07422-.08985-.0586-.11719-.03124-.11718-.02735-.13282-.01562h-.14843l-.13282.01563h-.29687l-.10547-.04688-.14844-.14844-.04297-.10156-.05859-.08984.22266-.22266.08593-.0586.10547-.04296.11719-.03125.13281-.01563.13281.01563.13672.01562.10157.04297.1328-.01172.08985-.0625.10156-.04297.0625-.08984-.04687-.10156-.08984-.0586-.1172-.03125-.10155-.04296-.0586-.08985-.0625-.08984v-.11719l.01563-.13281.10547-.04688.07421-.07031v-.1211l-.08984-.05859-.03125-.11719.08985-.05859.07421-.07422.04297-.10547.0586-.08984.04687-.10156.01563-.13281v-.14844l-.04688-.10547-.04297-.10156-.08984-.0586-.13281-.01562-.10157-.04297-.13671-.01563-.1172-.03125h-.4453l-.13282-.01562-.13281-.01172-.13281-.01563-.11719-.03125h-.14844l-.13281-.01562-.13281-.01172-.26563-.03125-.1211-.04297-.08593-.0586-.07422-.07421v-.14844l.01172-.13281.10547-.04688.10156-.04296.13281-.01563h.15235l.13281-.01562h.29297l.1211.03125.10156.04296.08984.0586.23438.0625.12109-.04688.08984-.05859.10156-.04297.13282-.01562.10547.04296.10156.04688.13281.01172.1211-.02735h.14453l.12109-.03125.11719-.02734.10547-.04687.07421-.07422.08594-.0586.14844-.14843.0586-.08594.04687-.10547.02734-.11719.01563-.10547-.10156-.04296-.08985-.0586-.11719-.03125-.10546-.04297-.08985-.0625-.07422-.08594-.07422-.07421-.10156-.04297-.10547-.04688-.10156-.04297-.0586-.08984-.04687-.10156-.08594-.21094-.0625-.08594-.05859-.08984-.07422-.07422-.08594-.0586h-.26953l-.11719.03126-.08984.05859-.10156.04297-.13281.01562-.10547-.01562-.02735-.11719-.0625-.08984-.11718-.03125-.10157-.04297-.14843-.14844-.03125-.11719-.01563-.10546.07422-.07422.17969-.1172.11719-.02733.11718-.03125.13672.01562.10156.04297.10547.04297.10156.04687.10547.04297.1172.03125.1328.01563.1172.02734.1328.01563.10547-.01563.08985-.0586-.07422-.07421-.10547-.04297-.07422-.07422-.07422-.08984-.14844-.14844-.08593-.0586-.08985-.05859-.07422-.07422-.08984-.0586-.10156-.04687-.1211-.02734-.10156-.04688-.10547-.04296-.11719-.03125-.10156-.04297-.1211-.03125h-.14843l-.11719.03125-.10546.04297-.08594.0625-.17969.11718-.08594.0586-.08984.0586-.10547.04687-.08594.05859-.10547.04297-.10156.04297-.10547.04687-.07422.07422-.05859.08985-.0586.08593-.04687.10547-.0586.08594-.07421.07422-.13281-.01172-.1172-.03125h-.11718l-.07422.07422-.08984.0586-.07422.07421-.08984.0586-.08594.05859-.10547.04687-.10156.04297-.13672.01563-.10156-.04297-.14844-.14844-.10547-.04688h-.08594l-.10547.04688-.10156.04297-.1211.03125-.11718-.03125-.07422-.07422v-.11719l.03125-.1211.07422-.0703.0586-.08985.07421-.07422.11719-.03125.10547-.04296h.29297l.13281-.01563.13672-.01563.10156-.04296.08985-.0586.10156-.04687.08984-.0586.13281-.01171.08985.05859.13281.01172.08984-.0586.08594-.05859.10547-.04297.08984-.0586.08594-.0625.08985-.05859.14843-.14843.0586-.08594.05859-.08985.10547-.04296.13281-.01563.11719.02735.1211.03125.05859-.0586.05859-.08984.03125-.26563.02734-.11719.10547.01172.13281.01563.10157-.04297.08984-.0586.0586-.08984.07421-.07422.0586-.08984.04687-.10156.01172-.13281-.01172-.13282-.04687-.10547-.14844-.14843-.0586-.08985-.05859-.08594-.04297-.10546v-.44532l.01563-.1328v-.14845l.01172-.1328-.0586-.0586-.08984.0586-.10156-.04298-.17969-.11719-.08594-.05859-.0625-.08984-.0586-.08985-.07421-.07421-.08594-.0586-.1211.03125-.10155.01172-.10547.04688-.08594.05859-.10547.04297-.14844.14844-.08984.05859-.08594.0586-.08984.0625-.10547.04296-.13281.01563v-.1211l.10547-.04297.11718-.03125.07422-.0703.04297-.10548v-.14844l-.02734-.11718-.14844-.14844-.13281-.01563h-.14844l-.11719.03125-.10547.04297-.10156.04297-.08984.0625-.11719.02735-.07422-.07422.01172-.13281-.04297-.10157-.04297-.10547-.08984-.05859-.11719.02734-.1211.03125-.11718.03125-.10156.04297-.1211.03125-.10156.04297-.10547.04297-.08984.0586-.10156.01562v-.11719l.01562-.13281-.0586-.08985-.07421.04297-.14844.14844-.0586.08985-.07421.07421-.04688.10547-.04296.10156-.07422.07422-.0586.08985-.07422.07422-.05859.08593-.07422.07422-.08984.0625-.07422.07031-.07422.07422-.10156.01563-.13281.01562-.10547-.04296v-.1211l.14843-.14844.04297-.10156.0586-.08984.04687-.10156.04297-.10547.0586-.08985.03124-.11719.04297-.10156.03125-.1211.02735-.11718.04687-.10547.04297-.10156.04297-.10547.07422-.07031.08984-.0625.08985-.0586.10156-.04296h.29687l.26563-.03125.10547-.04297-.07422-.07422-.11719-.03125-.10547-.04297-.08984-.0586-.10156-.04687-.08985-.0586-.10156-.04296-.10547-.04297-.08984-.0625-.08594-.0586-.10547-.04296-.10156-.04297-.1211-.03125-.11718-.03125-.10157-.04297L297.5 410.25l-.10156-.04297-.08985-.0586-.04296-.10546-.01563-.13281.10156-.04297.13281-.01563.13672.01563.13282-.01563.10156-.04297.0586-.08984.01562-.10547-.08985-.0586-.07421-.07421-.10157-.04297-.08984-.0586-.14844-.14843-.04297-.10547-.01562-.13281v-.29297l-.0586-.08985-.08984-.05859-.07422-.07422-.04297-.10547-.03125-.11718-.0586-.08985-.07421-.07422-.11719-.02734-.07422-.07422-.08984-.0586-.08984-.0625-.08594-.05859-.07422-.07421-.0586-.08594-.04687-.10547-.08594-.0586-.14843-.14843-.19532-.0586-.1328.01563-.10157.04297-.07422.07422-.04688.10156-.04296.10547-.0586.08984-.0586.08594-.29687.29687-.08984.0586h-.08594l-.0625-.08594-.04297-.10547.03125-.11719.0586-.08984.02734-.11719-.01172-.13281-.08984-.0625-.10547.04688-.11719.02734-.11719.03125-.26953.17578-.10156.04688-.11719.02734-.10546.04687-.08985.0586-.10156.04297-.0586-.08594-.04687-.10547.01563-.13281.04687-.10547.07031-.07422.07422-.07031.0586-.08985v-.14843l-.04297-.10547h-.23829l-.10156.04687-.03125.11719-.02734.11719-.03125.1211-.07422.04296-.13281.01563-.07422-.04688-.04297-.10156-.04297-.10547-.04687-.10156-.04297-.10547-.1211.03125-.10156.04297-.13281.01562-.11719.03125-.10547.04297-.08984.0586-.10156.04687-.1211.02734-.13281.01563-.10156-.04297-.0586-.08985-.04687-.10546-.04297-.10157-.04297-.10546v-.1172l.0586-.08984.08593-.05859.17969-.11719.10156-.04687.10547-.04297.10547-.0586.10156-.04296.08985-.0625.10156-.04297.10547-.0586.10156-.04687.08984-.0586.10547-.04296.10156-.04297.08985-.0625.10156-.04297.13672-.01563.11719.03125.10156.04297.1211.03125.10156.04297.10546.04688.10157.04296.10547.04297.10156.04688.10547.04297.10156.04297.10547.04687.08594.0586.10546.04296.1172.03125.10546.04297.10156.04688.08985.0586.10547.04296.10156.04297.10547.04687.11719.02735.10156.04687.1211.02735h.14843l.08594-.0586.01562-.10156.0586-.08984-.02735-.1172-.07422-.07421-.11719-.17969-.07421-.07422-.08985-.07421-.17969-.1172-.08593-.05859-.10547-.04296-.10156-.04688-.26954-.17578-.05859-.08985-.07422-.07421-.0586-.08985-.04296-.10156-.03125-.11719-.01563-.13672v-.5625l-.01171-.1328-.01563-.13282-.03125-.11719-.01562-.13281-.01172-.13281-.03125-.1211-.22266-.22265-.0586-.08594-.01562-.10547.03125-.11719.13281-.01562v-91.41406H172.9922v1.45312l-.0586.23438-.35156 1.05078-.17187.52343-.1172.34766-.17577.41016-.11719.17187-.23438.29297-.23046.0586h-.35157l-.11718.05859-.23047.40625v.29297l.11719.17578.23046.23047.1172.23437.64062.75781.29297.46485.17578.23437.23047.35156.23437.34766.64063.8164.17578.46485.17187.41016.11719.69531.17578.46875.11719 1.39844.0586.46484v.875l.11718 1.04688v4.78125l-.0586.46484-.35156 1.28125-.17578.52344-.11328.41015-.35156.9297L172.93359 336l-.23437.58203-.11719.17578-.17187.34766-.17578.40625-.35157.8164-.0586.29297-.11327.29297-.11719.28906-.0586.17579-.11718.875-.0586.40625-.05859.11718-.0586.17579-.05859.17187-.23047.52734-.11718.17188v.23437l-.11719.23438-.0586.17187-.17577.58594v.28906l-.0586.17579v.29296l-.0586.11329-.05859.52734v.17187l-.05468.23438v2.6211l-.17578.8164-.1172.17578-.17577.23438-.1172.17187-.11327.23438-.58594.93359-.23047.28906-.29297.46485-.17578.23437-.28906.35156-.35156.69922-.11328.23047-.17579.41016-.17578.23046-.40625.52735-.8164.69922-.29297.17187-.28906.23438-.17579.11719-.17578.17578-.52344.40625-.52734.17578-.17187.17578-.23438.05469-.64062.17578h-.75782m12.21094 31.02344l-1.07422.44921.35938.89454 1.25-.71485.44531-.53906-.98047-.08985"/><path fill="#d3d3d3" fill-opacity="0" fill-rule="evenodd" d="M201.50781 416.59766h-.89453l.44922.6289.98047.35938.80469-.08985.4453-.98828-.17577.08985-.71485-.35547-.89453.35547m154.6211 59.0703l-.0586-.52343v-.29297l.11328-.29297.0586-.23046.46875-.46875h.11328l.11719-.11329.11718-.05859h.17579l.23437-.0586h.34766l.23437.0586.11719.0586.23047.17187.0586.17578.11718.58203v.29297l-.11719.17578-.17187.28906-.17579.17579-.52734.52343-.23047.23438-.11719.0586h-.17578l-.11718-.0586-.40625-.29297-.17579-.11719-.11718-.0586-.0586-.11327-.05468-.1172m6.64062-10.95702l-.0586-.17188v-1.10937l.0586-.17188.17578-.0586.17188-.05858h.17578l.23437-.0586.1172.0586.05858.69921-.05859.17188-.11719.17578-.11718.0586-.23438.52343-.11328.0586h-.23438l-.05859-.1172m9.61328-14.39062l-.11719-.17578v-.69922l.29297-.875.1172-.17187.17577-.35156.11328-.23047.1172-.29297.35155-.75781.1172-.23047.17187-.23438h.17578l.11719-.0586h.64062l.11719.0586.23437.23438.17188.11328.35156.29297.11719.11718.11328.17579v.11328l.11719.05859.11718.11719v.69922l-.05859.17578v.23047l-.0586.17578-.34765 1.05078-.11719.23047-.11719.23437-.11718.0586-.23047.23437-.64063.28906h-.875l-.41015-.11718-.64063-.46485"/><path fill="none" stroke="#bebebe" stroke-linecap="round" stroke-linejoin="round" stroke-miterlimit="10" stroke-width=".5" d="M467.95703 311.69531H144.02734v168.625h323.9297v-168.625"/><g clip-path="url(#a)"><path fill="#fff" fill-opacity="0" fill-rule="evenodd" d="M144 475.89063v4.4375h.0039H144V446.125v29.76563"/></g><g clip-path="url(#b)"><path fill="#fff" fill-opacity="0" fill-rule="evenodd" d="M144 435.94531v.74219-125.01563h.0039H144v124.27344"/></g><path fill="#50fcfc" fill-rule="evenodd" d="M144 443.24219v2.88281l.0039.0039v-2.89062l-.0039.0039"/><path fill="#00e8fc" fill-rule="evenodd" d="M144 438.17578v5.0664l.0039-.0039v-5.0586l-.0039-.0039"/><path fill="#50fcfc" fill-rule="evenodd" d="M144 436.6875v1.48828l.0039.0039v-1.48827L144 436.6875"/><g clip-path="url(#c)"><path fill="#fff" fill-opacity="0" fill-rule="evenodd" d="M144.0039 480.32813V446.1289l2.48048 3.1328 1.95312 3.54688 1.3086.89063.63671 4.4375 2.49219 1.40625 4.4414-.07422 4.4375 2.82813 4.4375-.45313 2.3125.73047 2.125 1.34375 2.44923-1.34375 1.98828-.60938 4.4414.40235.89063.20703 3.54687 1.2461 4.4375-.6875 3.60938-.5586.82812-.02344 4.4414-.24219 4.4375-.33203 4.4375-.42578 4.4375-.04297 4.44142.89844.73046.16797 3.70703.84765 1.375-.84765 3.0625-3.61328 1.75-.82422 2.6875-1.2461 3.59375-3.1914.84375-.5039 4.44141-1.98048 4.4375-1.09375 4.4375-.42968 1.10547-.4297 3.33203-1.60546 4.4375-2.14063.86719-.6953 3.57422-3.88282 1.61719-.55469-1.6172-1.36719-2.67577 1.3672-1.76563 1.24609-4.4375 1.47656-2.16406-2.72266 1.71484-4.4375.1289-4.4375-.5078-4.4375-3.60938-3.6289-4.4375-.26172-4.4375-.48047-4.4414-.04297-.1875-.02734-4.25-3.78907-4.4375-.48437-4.4375.24219-4.4375 1.89843-3.17188 2.13282-1.26953.35937-4.4375.85938-4.4375 1.19921-3.0625 2.02344-1.375.27735-4.4414.47656-4.4336 3.6836h-.0039l-4.4375.24609-4.4375 1.10546-3.33985 3.08594-1.10156.16797-4.4375.89063-4.14063 3.3789-.29687.0664-4.4375.22657-4.4375 3.8711-1.04297.27343-3.39844.89453-4.4375.19141-1.6836-1.08594.79298-4.4375-3.54297-3.6914V311.67187h142.02343v108.375l-3.26953 2.58204-1.16797 3.60156-2.71875.83984-1.71875.35156-4.4414 3.27735-.84766.8086.84766 1.75 1.44922 2.6875 2.125 4.4375.86718.16406 3.42188 4.27343-3.42188 3.71485-.35546.72656.35546.85156 4.4375 1.29688 4.4375-.82032 1.375-1.32812 3.0625-2.70313v9.89454l-2.1914 1.68359-2.2461.91015-4.4375 1.72657-2.82421 1.80078 2.82421 2.17187 1.0547 2.26954 3.3828 3.02343 3.92579-3.02344.51171-2.82421.57813-1.6172.84765-4.4375-1.42578-1.68358v-9.89454l3.00782-1.73828-3.00782-2.5586-2.3203-1.8789 2.3203-.82031 3.08594-3.61719 1.35156-3.91406 4.44141-.30078 1.08984-.22266.89063-4.4375-1.98047-1.3711-3.36328 1.3711-1.07813 2.33594-.22265-2.33594-4.21485-3.73437-1.20703-.70703-3.23047-2.58204v-108.375h35.50782v141.375l-1.875.65235-2.5625 3.27734-4.44141-1.85937-4.4375 1.07422-4.4375.45312-.67969 1.49219.67969.45312 4.4375.72657 4.4375.51171 4.4414-1.4453.60548-.2461 3.83203-3.34375 2.03515 3.34375 2.40235.89844 1.14453-.89844-1.14453-3.9336-1.40235-.5039-3.03515-.65235v-141.375h13.3125v109.15625l-1.73047 1.80079 1.73047.68359 1.5078-.6836-1.5078-1.80077V311.67188h8.8789v112.1328l-4.32422 3.26563 4.32422 3.08985 1.98828 1.34765-1.03906 4.4375 3.48828 3.32813 1.03516 1.10937 3.40234 4.0039 4.4414-.16405 2.6836.59765L357.04296 447l-4.4414-.03906-1.5625 2.30078 1.5625 1.46094 4.4414.40234 4.4375.10547 2.48048-1.96875 1.95703-1.08985 4.4375-1.33203.90234 2.42188 1.46875 4.4375 2.0664 2.94531 4.44142 1.1211.18359.37109-.1836 3.14844-.10156 1.28906.10156.10937 4.4375 2.8672 3.09766 1.46483 1.33985 2.48047 4.4375.65625 4.02343-3.13671.41406-.85938 1.875-3.58203-1.62109-4.4375.40235-4.4375.16015-4.4375-.1289-4.4414-.6875-.38282-4.4375-1.67578-4.4375-1.1914-3.57813-1.1875.26172-4.4375-1.1211-1.13673-2.98828-3.30078-1.44921-4.20312-4.44141 2.79297-.35156 1.41015-2.66797 4.4375-1.41797.41016-3.89063 4.02734-.54687.75-.80078-.75-3.63672-4-4.4375.14063-1.23828-.57813-3.20313-2.78906-1.40625-1.64844-3.03125-3.17969-.77734-1.2578-3.66016-3.26563V311.67188h17.7539v113.98437l-2.41405 1.41406 2.41406 1.85547 2.03515-1.85547-2.03515-1.41406V311.67187h106.51562v168.65625h-29.65234l-1.41406-.83593-.83203.83594H144.0039"/></g><path fill="#50fcfc" fill-rule="evenodd" d="M146.48438 449.26172l-2.48047-3.13281v-2.89063l2.11328-2.85547-2.11328-2.20312v-1.48828l3.54297 3.6914-.79297 4.4375 1.68359 1.08594 4.4375-.1914 3.39844-.89454 1.04297-.27344 4.4375-3.87109 4.4375-.22656.29687-.0664 4.14063-3.37891 4.4375-.89063 1.10156-.16797 3.33984-3.08594 4.4375-1.10546 4.4375-.2461h.0039l4.4336-3.6836 4.4414-.47655 1.375-.27735 3.0625-2.02344 4.4375-1.19921 4.4375-.85938 1.26954-.35937 3.17188-2.13282 4.4375-1.89843 4.4375-.2422v1.36329l-4.4375.20703-3.6172 2.70313-.8203 1.43359-4.44141.59766-4.4375 1.13671-2.61328 1.27344-1.82422.8086-4.4375.61328-4.4414.57422-2.9375 2.4414-1.5.45703-4.4375.34375-4.4375 2.89063-.8086.7461-3.63281.55859-4.4375 2.19921-2.0586 1.6797-2.3789.52734-4.4375.5625-3.60938 3.34765-.28906 4.4414.1836 4.4375.9453 4.4375 2.76954 2.3125 4.4375-.92968 4.4375 1.24219 4.4375-1.39844 4.4414-.25 4.4375 1.65235 4.4375.3164 4.4375-.34765 4.4414-.77735 4.4375-.29297 3.3711-1.52734 1.0664-1.44922 4.4375-1.32422 4.44142.64844 4.4375-.04297 2.28906-2.26953 2.14844-3.08203 1.375-1.35547 2.91406-4.4414-4.28906-4.13673-.33594-.30078-4.10156-2.28906-3.04297-2.14844-.53907-4.4375 2.97266-4.4375.60938-.3164.36718.3164 4.07031 3.30469 1.0547 1.13281 3.3828 2.67578v1.4297l-2.6875.33202 2.6875 1.77735.64844-1.77735-.64844-.33203v-1.42969l3.4297 1.76172 1.0078 1.625 4.44141 1.23828 3.78906 1.57422.64844.54688v3.40625l-3.32031.48437 3.32031 3.1289 2.4375-3.1289-2.4375-.48437v-3.40625l1.21094-.54688 3.22656-1 2.3711-3.4375-.75782-4.4375.16406-4.4375-1.77734-1.78906-4.4375-.54297-4.4375-.88281-4.4414.41015-4.4375-1.1328-1.00782-.50391-3.42969-2.91016v-1.36328l4.4375.48437 4.25 3.78907.1875.02734 4.44141.04297 4.4375.48047 4.4375.26172 3.60938 3.6289.5078 4.4375-.1289 4.4375-1.71484 4.4375 2.16406 2.72266 4.4375-1.47656 1.76563-1.2461 2.67578-1.36719 1.61719 1.3672-1.6172.55468-3.57421 3.88281-.86719.69531-4.4375 2.14063-3.33203 1.60547-1.10547.42969-4.4375.42968-4.4375 1.09375-4.4414 1.98047-.84375.5039-3.59375 3.19142-2.6875 1.24609-1.75.82422-3.0625 3.61328-1.375.84765-3.70704-.84765-.73047-.16797-4.4414-.89844-4.4375.04297-4.4375.42578-4.4375.33203-4.4414.2422-.82813.02343-3.60938.5586-4.4375.6875-3.54687-1.2461-.89063-.20703-4.4414-.40235-1.98828.60938-2.44922 1.34375-2.125-1.34375-2.3125-.73047-4.4375.45313-4.4375-2.82813-4.44141.07422-2.49219-1.40625-.63672-4.4375-1.30859-.89063-1.95313-3.54687"/><path fill="#00e8fc" fill-rule="evenodd" d="M146.11719 440.38281l-2.11328 2.85547v-5.0586l2.11328 2.20313m11.92187 13.3164l-.1836-4.4375.28907-4.4414 3.60938-3.34765 4.4375-.5625 2.3789-.52735 2.0586-1.67969 4.4375-2.19921 3.6328-.5586.8086-.7461 4.4375-2.89062 4.4375-.34375 1.5-.45703 2.9375-2.4414 4.4414-.57422v1.90625l-4.4414.73828-.44531.3711-3.99219 1.22265-4.4375.4961-3.48437 2.71874-.95313.80078-4.4414.40235-4.10157 3.23437-.33593.85938-4.4375.4336-4.4375 1.1328-2.17188 2.01172-.20703 4.4414.28906 4.4375 2.08985 3.71485 4.4375-1.89062 2.6289-1.82422 1.8086-.74219 4.4375-.79687 1.97656 1.53906 2.46484 1.42187 4.4375.10547 3.33203 2.91016 1.10547.3086 2.0039-.3086 2.4336-.72266 4.4414-1.05469 3-2.66015-3-4.36328-.08983-.07422.08984-.33985 2.08203-4.10156 2.35547-1.9336 4.4375-1.80858 2.2539-.69532.89454-4.4375-3.14844-2.01953-1.57813-2.41797-2.85937-.65625-4.4375-.45312v-1.90625l4.4375-.61328 1.82422-.8086 2.61328-1.27344 4.4375-1.13671 4.4414-.59766.82032-1.4336 3.61719-2.70312 4.4375-.20703v2.27734l-4.4375.14063-.66016.49219.66016.7539 4.34765 3.6875.08984.07031 4.0586 4.3672.3789.30077 4.4375 2.23047 4.30079 1.90625.14062.07031 4.4375 1.35547 3.47656-1.42578-1.6914-4.4375-1.78516-3.55078-.59766-.88672-3.83984-1.28906-4.4414 1.16797-4.4375-2.47656-3.6875-1.84375-.75-.63282v-2.27734l3.42968 2.91016 1.00781.5039 4.4375 1.13281 4.44141-.41015 4.4375.88281 4.4375.54297 1.77734 1.78906-.16406 4.4375.75781 4.4375-2.37109 3.4375-3.22656 1-1.21094.54688-.64844-.54688-3.78906-1.57422-4.4414-1.23828-1.00782-1.625-3.42969-1.76172-3.3828-2.67578-1.0547-1.13281-4.0703-3.30469-.3672-.3164-.60937.3164-2.97266 4.4375.53907 4.4375 3.04297 2.14844 4.10156 2.28906.33594.30078 4.28906 4.13672-2.91406 4.4414-1.375 1.35548-2.14844 3.08203-2.28906 2.26953-4.4375.04297-4.44141-.64844-4.4375 1.32422-1.0664 1.44922-3.3711 1.52734-4.4375.29297-4.4414.77735-4.4375.34765-4.4375-.3164-4.4375-1.65235-4.44141.25-4.4375 1.39844-4.4375-1.24219-4.4375.92969-2.76953-2.3125-.94532-4.4375"/><path fill="#00d4fc" fill-rule="evenodd" d="M159.66406 453.69922l-.28906-4.4375.20703-4.4414 2.17188-2.01173 4.4375-1.1328 4.4375-.4336.33593-.85938 4.10157-3.23437 4.4414-.40235.95313-.80078 3.48437-2.71875 4.4375-.4961 3.99219-1.22265.44531-.3711v1.82813l-4.4375.52735-4.4375.65625-2.30469 1.79687-2.1328 1.79297-4.44141.0586-3.28125 2.58593-1.15625 2.96485-4.4375-.90625-4.4375 1.69921-.73438.6797-.1289 4.4414.39453 4.4375.46875.82812 1.51953-.82812 2.86328-4.4375.05469-.01172.05859.01172 4.3789 1.30078 2.51563-1.30078 1.92188-2.07422 3.66797-2.36719.77343-.16015 4.4375.01953v.5039l-2.16015 4.07813 2.16015 1.80078 4.4375-.5586 1.54297-1.24218-1.54297-1.625-4.4375-2.45313v-.5039l4.4375-1.50781 4.4375-1.47657 1.39844-1.3125 3.04297-2.79297 1.36328-1.64453-1.36328-1.51953-4.4414-1.46094v-1.82812l4.4414-.73828 4.4375.45312 2.85937.65625 1.57813 2.41797 3.14844 2.01953-.89453 4.4375-2.25391.69531-4.4375 1.8086-2.35547 1.9336-2.08203 4.10156-.08984.33984.08984.07422 3 4.36328-3 2.66015-4.4414 1.0547-2.4336.72265-2.0039.3086-1.10548-.3086-3.33203-2.91016-4.4375-.10547-2.46484-1.42187-1.97656-1.53906-4.4375.79687-1.8086.74219-2.6289 1.82422-4.4375 1.89062-2.08985-3.71484"/><path fill="#00c4fc" fill-rule="evenodd" d="M161.28516 453.69922l-.39453-4.4375.1289-4.4414.73438-.6797 4.4375-1.69921v.76953l-3.59766 1.60937 3.59766 3 3.8828-3-3.8828-1.60937v-.76953l4.4375.90625 1.15625-2.96485 3.28125-2.58594 4.4414-.05859 2.13281-1.79297 2.3047-1.79687 4.4375-.65625v.76172l-4.4375.8164-1.125.875-3.3125 2.78516-4.44141-.28516-2.46094 1.9375 2.46094 3.77735 4.4414-1.10157 4.4375-1.21484 2.24219-1.46094 2.19531-.82031 4.4375-1.6211 2.0625-1.99609-2.0625-1.20703-4.4375-.48437v-.76172l4.4375-.52735 4.4414 1.46094 1.36329 1.51953-1.36328 1.64453-3.04297 2.79297-1.39844 1.3125-4.4375 1.47656-4.4375 1.50782-4.4375-.01953-.77344.16015-3.66796 2.36719-1.92188 2.07422-2.51562 1.30078-4.37891-1.30078-.0586-.01172-.05468.01172-2.86328 4.4375-1.51953.82812-.46875-.82812"/><path fill="#00b8fc" fill-rule="evenodd" d="M166.1914 447.82031l-3.59765-3 3.59766-1.60937v.76562l-1.88672.84375 1.88672 1.57422 2.03515-1.57422-2.03515-.84375v-.76562l3.8828 1.60937-3.8828 3"/><path fill="#00a8fc" fill-rule="evenodd" d="M166.1914 446.39453l-1.88671-1.57422 1.88672-.84375v.76953l-.17188.07422.17188.14844.1875-.14844-.1875-.07422v-.76953l2.03515.84375-2.03515 1.57422"/><path fill="#009800" fill-rule="evenodd" d="M166.1914 444.96875l-.17187-.14844.17188-.07422.1875.07422-.1875.14844"/><path fill="#00b8fc" fill-rule="evenodd" d="M175.0664 444.16016l-2.46093-3.77735 2.46094-1.9375v.64453l-1.63672 1.29297 1.63672 2.51953 4.4414-1.4453 2.57031-1.07423-2.5703-.66406-4.44141-.6289v-.64454l4.4414.28516 3.3125-2.78516 1.125-.875 4.4375-.8164v.76171l-4.26953.9297 4.26953 1.98437 3.51563-1.98438-3.51563-.92969v-.76171l4.4375.48437 2.0625 1.20703-2.0625 1.9961-4.4375 1.62109-2.19531.82031-2.24219 1.46094-4.4375 1.21484-4.4414 1.10157"/><path fill="#00a8fc" fill-rule="evenodd" d="M175.0664 442.90234l-1.63671-2.51953 1.63672-1.29297v.64844l-.81641.64453.8164 1.25781 3.33594-1.2578-3.33593-.64454v-.64844l4.4414.62891 2.57031.66406-2.5703 1.07422-4.44141 1.44531"/><path fill="#009800" fill-rule="evenodd" d="M175.0664 441.64063l-.8164-1.25782.8164-.64453 3.33594.64453-3.33593 1.25781"/><path fill="#00c4fc" fill-rule="evenodd" d="M183.94531 451.0625l-2.16015-1.80078 2.16015-4.07813 4.4375 2.45313 1.54297 1.625-1.54297 1.24219-4.4375.55859"/><path fill="#00a8fc" fill-rule="evenodd" d="M188.38281 437.92969l-4.26953-1.98438 4.26953-.92969v.76563l-.75781.16406.75781.35156.625-.35156-.625-.16406v-.76563l3.51563.9297-3.51563 1.98437"/><path fill="#009800" fill-rule="evenodd" d="M188.38281 436.29688l-.75781-.35157.75781-.16406.625.16406-.625.35156"/><path fill="#00d4fc" fill-rule="evenodd" d="M219.45313 423.38281l-.66016-.7539.66016-.4922 4.4375-.14062.75.63282 3.6875 1.84375v1.33984l-2.17579 1.25781 2.17578 2.29688 4.25782 2.14062.17969.08985 4.4414 1.3164 1.9336-1.40625-1.9336-2.5625-4.4414 2.39453-2.23829-4.26953-2.19922-1.25781v-1.33984l4.4375 2.47656 4.44141-1.16797 3.83984 1.28906.59766.88672 1.78516 3.55078 1.6914 4.4375-3.47656 1.42578-4.4375-1.35546-.14062-.07032-4.30078-1.90625-4.4375-2.23047-.37891-.30078-4.0586-4.36719-.08984-.0703-4.34766-3.6875"/><path fill="#fff" fill-opacity="0" fill-rule="evenodd" d="M228.32813 435.61328l-2.6875.33203 2.6875 1.77735.64843-1.77735-.64844-.33203"/><path fill="#00c4fc" fill-rule="evenodd" d="M228.32813 429.36719l-2.17579-2.29688 2.17578-1.25781 2.19922 1.25781 2.23828 4.26953 4.44141-2.39453 1.9336 2.5625-1.9336 1.40625-4.4414-1.3164-.1797-.08985-4.2578-2.14062"/><path fill="#fff" fill-opacity="0" fill-rule="evenodd" d="M241.64453 444.33594l-3.32031.48437 3.32031 3.1289 2.4375-3.1289-2.4375-.48437"/><path fill="#50fcfc" fill-rule="evenodd" d="M272.71094 433.25781l-.84766-1.75.84766-.8086 4.4414-3.27733 1.71875-.35157 2.71875-.83984 1.16797-3.60156 3.26953-2.58204v3.16407l-2.84375 3.85937-1.59375 2.15625-2.86328 2.28125 2.86328 2.66016 3.25782 1.77734 1.17968 1.0664 4.4375-.48827.4961-.57813 1.5-4.4375-.63672-4.4375-1.35938-1.20703-4.4375-2.65234v-3.16406l3.23047 2.58203 1.20703.70703 4.21485 3.73437.22265 2.33594 1.07813-2.33594 3.36328-1.3711 1.98047 1.3711-.89063 4.4375-1.08984.22266-4.4414.30078-1.35157 3.91406-3.08594 3.61719-2.3203.82031 2.3203 1.8789 3.00782 2.5586-3.00782 1.73828-3.0625 2.70313-1.375 1.32812-4.4375.82032-4.4375-1.29688-.35546-.85156.35546-.72656 3.42188-3.71485-3.42188-4.27344-.86718-.16406-2.125-4.4375-1.44922-2.6875"/><path fill="#00e8fc" fill-rule="evenodd" d="M281.58984 434.16797l-2.86328-2.66016 2.86328-2.28125 1.59375-2.15625 2.84375-3.85937v3.84375l-.0078.01562-3.52345 4.4375 3.53125 2.8789 3.30079-2.8789-3.28125-4.4375-.01954-.01562v-3.84375l4.4375 2.65234 1.35938 1.20703.63672 4.4375-1.5 4.4375-.4961.57813-4.4375.48828-1.17968-1.0664-3.25782-1.77735"/><path fill="#50fcfc" fill-rule="evenodd" d="M281.58984 464.7461l-2.82421-2.17188 2.82421-1.80078 4.4375-1.72656v5.625l-.72265 2.34375.72265.64062.83594-.64063-.83594-2.34375v-5.625l2.2461-.91015 2.1914-1.6836 1.42579 1.6836-.84766 4.4375-.57813 1.61719-.51171 2.82421-3.92579 3.02344-3.3828-3.02344-1.0547-2.26953"/><path fill="#00d4fc" fill-rule="evenodd" d="M286.02734 434.38672l-3.53125-2.8789 3.52344-4.4375.00781-.01563v2.82031l-1.29687 1.63281 1.29687 1.05469 1.21094-1.05469-1.21094-1.63281v-2.82031l.01954.01562 3.28125 4.4375-3.30079 2.8789"/><path fill="#00c4fc" fill-rule="evenodd" d="M286.02734 432.5625l-1.29687-1.05469 1.29687-1.63281 1.21094 1.63281-1.21094 1.05469"/><path fill="#00e8fc" fill-rule="evenodd" d="M286.02734 467.65625l-.72265-.64063.72265-2.34375.83594 2.34375-.83594.64063"/><path fill="#50fcfc" fill-rule="evenodd" d="M303.78125 458.58984l-.67969-.45312.67969-1.49219 4.4375-.45312 4.4375-1.07422 4.4414 1.85937 2.5625-3.27734 1.875-.65235 3.03516.65235 1.40235.5039 1.14453 3.9336-1.14453.89844-2.40235-.89844-2.03515-3.34375-3.83204 3.34375-.60546.2461-4.44141 1.4453-4.4375-.51171-4.4375-.72657m31.0664-35.27734l-1.73046-.6836 1.73047-1.80077 1.5078 1.80078-1.5078.68359m8.8789 6.84766l-4.32422-3.08985 4.32422-3.26562 3.66016 3.26562.77734 1.25781v6.2461l-.64844 1.3711.64844.61718 3.5664 3.82031.8711 1.02735 4.38281-1.02735-4.3828-1.59375-3.23438-2.84375-1.20313-1.3711v-6.24608l3.03125 3.17968 1.40625 1.64844 3.20313 2.78906 1.23828.57813 4.4375-.14063 3.63672 4 .80078.75.54687-.75 3.89063-4.02734 1.41797-.41016 2.66797-4.4375.35156-1.41015v18.44921l-.47656.71485.47656.75781.46094-.75781-.46094-.71485v-18.44921l4.4414-2.79297v17.55078l-1.01953 4.40625 1.01954 2.25 2.02734-2.25-2.02735-4.40625v-17.55078l1.44922 4.20312 2.98829 3.30078v17.69532l-1.09375 1.1953 1.09375 1.89845.4375 2.53906 1.02343 4.4375 2.97656 1.1836 4.4375 2.44921 3.38282-3.63281-1.80469-4.4375-1.57813-2.21094-4.4375-1.28906-3.39453-.9375-1.04296-1.19531v-17.69532l1.12109 1.13672-.26172 4.4375 3.57813 1.1875 4.4375 1.1914 4.4375 1.67579.6875.38281.1289 4.4414-.16015 4.4375-.40235 4.4375 1.6211 4.4375-1.875 3.58204-.41407.85938-4.02344 3.13671-4.4375-.65625-1.33984-2.48046-3.09765-1.46485-4.4375-2.86719-.10157-.10937.10156-1.28906.1836-3.14844-.1836-.3711-4.4414-1.12109-2.0664-2.94531-1.46876-4.4375-.90234-2.42188-4.4375 1.33204-1.95703 1.08984-2.48047 1.96875-4.4375-.10547-4.4414-.40234-1.5625-1.46094 1.5625-2.30078 4.4414.03906 2.6836-2.17969-2.6836-.59765-4.4414.16406-3.40235-4.0039-1.03516-1.10938-3.48828-3.32813 1.03906-4.4375-1.98828-1.34765"/><path fill="#00e8fc" fill-rule="evenodd" d="M348.16406 436.5625l-.64844-.61719.64844-1.3711 1.20313 1.3711 3.23437 2.84375 4.38281 1.59375-4.3828 1.02735-.8711-1.02735-3.5664-3.82031"/><path fill="#50fcfc" fill-rule="evenodd" d="M361.48047 428.92578l-2.41406-1.85547 2.41406-1.41406 2.03515 1.41406-2.03515 1.85547"/><path fill="#00e8fc" fill-rule="evenodd" d="M374.79297 450.01953l-.47656-.75781.47656-.71485.46094.71485-.46094.75781"/><path fill="#fff" fill-opacity="0" fill-rule="evenodd" d="M379.23438 444.85547l-1.01954 4.40625 1.01954 2.25 2.02734-2.25-2.02735-4.40625"/><path fill="#00e8fc" fill-rule="evenodd" d="M383.67188 455.59766l-1.09375-1.89844 1.09375-1.19531 1.04296 1.1953 3.39454.9375v2.19923l-1.48438 1.30078 1.48438 1.85547 2.6289 2.58203 1.8086 1.3125 1.22265-1.3125-1.22265-2.02344-2.3672-2.41406-2.0703-1.30078v-2.19922l4.4375 1.28906 1.57812 2.21094 1.80469 4.4375-3.38281 3.63281-4.4375-2.44922-2.97657-1.1836-1.02344-4.4375-.4375-2.53905"/><path fill="#00d4fc" fill-rule="evenodd" d="M388.10938 459.99219l-1.48438-1.85547 1.48438-1.30078 2.0703 1.30078 2.3672 2.41406 1.22265 2.02344-1.22265 1.3125-1.8086-1.3125-2.6289-2.58203"/><g clip-path="url(#d)"><path fill="#50fcfc" fill-rule="evenodd" d="M436.09766 480.32813l.83203-.83594 1.41406.83594h-2.2461"/></g><g clip-path="url(#e)"><path fill="#fff" fill-opacity="0" fill-rule="evenodd" d="M467.9961 480.32813H468V311.67188h-.0039H468v168.65625h-.0039"/></g><path fill="#fff" fill-opacity="0" fill-rule="evenodd" d="M233.48438 427.5625l5.83203.34375.58203-9.94531-5.83203-.33985-.58203 9.94141"/><path fill-rule="evenodd" d="M237.45313 419.65625l.5078.02734-.36718 6.28516-.78516-.04688.26172-4.48046-1.38672-.08204.03516-.55468.5625-.03125.2539-.03906.23438-.07813.21094-.1289.1875-.19923.15625-.28515.1289-.38672"/><path fill="#fff" fill-opacity="0" fill-rule="evenodd" d="M162.26172 466.54297l5.8125.59375 1.01562-9.90625-5.8125-.59766-1.01562 9.91016"/><path fill-rule="evenodd" d="M166.57422 458.8125l.5039.05469-.64062 6.26172-.78516-.08204.46094-4.46484-1.38281-.14453.0586-.55078.5625-.00781.2578-.02735.23438-.0664.21875-.1211.19531-.1914.16797-.27735.14844-.38281"/><path fill="#fff" fill-opacity="0" fill-rule="evenodd" d="M374.3125 430.95313l5.51172 1.9375 3.30469-9.39454-5.50782-1.9414-3.30859 9.39844"/><path fill-rule="evenodd" d="M380.3125 424.44531l.48047.17188-2.08985 5.9375-.74218-.26172 1.48828-4.23438-1.3086-.46093.1836-.52344.55078.1211.25781.03515.2461-.00781.23828-.06641.23437-.14063.23047-.23046.23047-.33985"/><g clip-path="url(#f)"><path fill="none" stroke="#000" stroke-linecap="round" stroke-linejoin="round" stroke-miterlimit="10" stroke-width=".5" d="M147.41797 481.14453l-6.83594-1.6289"/></g><g clip-path="url(#g)"><path fill="none" stroke="#000" stroke-linecap="round" stroke-linejoin="round" stroke-miterlimit="10" stroke-width=".5" d="M147.41797 481.14453l.61719 2.3711"/></g><g clip-path="url(#h)"><path fill="none" stroke="#000" stroke-linecap="round" stroke-linejoin="round" stroke-miterlimit="10" stroke-width=".5" d="M160.65234 481.42969l-6.67578-2.19922"/></g><g clip-path="url(#i)"><path fill="none" stroke="#000" stroke-linecap="round" stroke-linejoin="round" stroke-miterlimit="10" stroke-width=".5" d="M174.125 480.70703l-6.98828-.7539"/></g><g clip-path="url(#j)"><path fill="none" stroke="#000" stroke-linecap="round" stroke-linejoin="round" stroke-miterlimit="10" stroke-width=".5" d="M174.125 480.70703l.91016 2.27735"/></g><g clip-path="url(#k)"><path fill="none" stroke="#000" stroke-linecap="round" stroke-linejoin="round" stroke-miterlimit="10" stroke-width=".5" d="M187.45703 480.30469l-7.02344.04687"/></g><g clip-path="url(#l)"><path fill="none" stroke="#000" stroke-linecap="round" stroke-linejoin="round" stroke-miterlimit="10" stroke-width=".5" d="M187.45703 480.30469l1.16797 2.16015"/></g><g clip-path="url(#m)"><path fill="none" stroke="#000" stroke-linecap="round" stroke-linejoin="round" stroke-miterlimit="10" stroke-width=".5" d="M200.77344 480.33984l-7.02735-.02343"/></g><g clip-path="url(#n)"><path fill="none" stroke="#000" stroke-linecap="round" stroke-linejoin="round" stroke-miterlimit="10" stroke-width=".5" d="M200.77344 480.33984l1.14453 2.17188"/></g><g clip-path="url(#o)"><path fill="none" stroke="#000" stroke-linecap="round" stroke-linejoin="round" stroke-miterlimit="10" stroke-width=".5" d="M213.88281 481.51563l-6.61328-2.375"/></g><g clip-path="url(#p)"><path fill="none" stroke="#000" stroke-linecap="round" stroke-linejoin="round" stroke-miterlimit="10" stroke-width=".5" d="M212.92188 481.17188l.17578 1.21093"/></g><g clip-path="url(#q)"><path fill="none" stroke="#000" stroke-linecap="round" stroke-linejoin="round" stroke-miterlimit="10" stroke-width=".5" d="M227.36719 480.82813l-6.95313-1"/></g><g clip-path="url(#r)"><path fill="none" stroke="#000" stroke-linecap="round" stroke-linejoin="round" stroke-miterlimit="10" stroke-width=".5" d="M227.36719 480.82813l.83203 2.30859"/></g><g clip-path="url(#s)"><path fill="none" stroke="#000" stroke-linecap="round" stroke-linejoin="round" stroke-miterlimit="10" stroke-width=".5" d="M240.6875 479.875l-6.96484.91016"/></g><g clip-path="url(#t)"><path fill="none" stroke="#000" stroke-linecap="round" stroke-linejoin="round" stroke-miterlimit="10" stroke-width=".5" d="M240.6875 479.875l1.42578 1.9961"/></g><g clip-path="url(#u)"><path fill="none" stroke="#000" stroke-linecap="round" stroke-linejoin="round" stroke-miterlimit="10" stroke-width=".5" d="M254.01953 480.01563l-7 .625"/></g><g clip-path="url(#v)"><path fill="none" stroke="#000" stroke-linecap="round" stroke-linejoin="round" stroke-miterlimit="10" stroke-width=".5" d="M254.01953 480.01563l1.33984 2.05859"/></g><g clip-path="url(#w)"><path fill="none" stroke="#000" stroke-linecap="round" stroke-linejoin="round" stroke-miterlimit="10" stroke-width=".5" d="M267.2539 481.14844l-6.83593-1.63672"/></g><g clip-path="url(#x)"><path fill="none" stroke="#000" stroke-linecap="round" stroke-linejoin="round" stroke-miterlimit="10" stroke-width=".5" d="M266.25781 480.91016l.3086 1.1875"/></g><g clip-path="url(#y)"><path fill="none" stroke="#000" stroke-linecap="round" stroke-linejoin="round" stroke-miterlimit="10" stroke-width=".5" d="M280.61719 480.91016l-6.92969-1.16407"/></g><g clip-path="url(#z)"><path fill="none" stroke="#000" stroke-linecap="round" stroke-linejoin="round" stroke-miterlimit="10" stroke-width=".5" d="M279.60938 480.74219l.38671 1.16406"/></g><g clip-path="url(#A)"><path fill="none" stroke="#000" stroke-linecap="round" stroke-linejoin="round" stroke-miterlimit="10" stroke-width=".5" d="M293.84375 481.30078l-6.7539-1.94531"/></g><g clip-path="url(#B)"><path fill="none" stroke="#000" stroke-linecap="round" stroke-linejoin="round" stroke-miterlimit="10" stroke-width=".5" d="M292.85938 481.01953l.2539 1.19922"/></g><g clip-path="url(#C)"><path fill="none" stroke="#000" stroke-linecap="round" stroke-linejoin="round" stroke-miterlimit="10" stroke-width=".5" d="M307.29297 480.21484l-7.02344.22657"/></g><g clip-path="url(#D)"><path fill="none" stroke="#000" stroke-linecap="round" stroke-linejoin="round" stroke-miterlimit="10" stroke-width=".5" d="M306.26953 480.2461l.61328 1.0664"/></g><g clip-path="url(#E)"><path fill="none" stroke="#000" stroke-linecap="round" stroke-linejoin="round" stroke-miterlimit="10" stroke-width=".5" d="M320.30078 481.76563l-6.41015-2.875"/></g><g clip-path="url(#F)"><path fill="none" stroke="#000" stroke-linecap="round" stroke-linejoin="round" stroke-miterlimit="10" stroke-width=".5" d="M333.28125 482.35547l-5.74219-4.05469"/></g><g clip-path="url(#G)"><path fill="none" stroke="#000" stroke-linecap="round" stroke-linejoin="round" stroke-miterlimit="10" stroke-width=".5" d="M343.26953 483.8125l.91016-6.96875"/></g><g clip-path="url(#H)"><path fill="none" stroke="#000" stroke-linecap="round" stroke-linejoin="round" stroke-miterlimit="10" stroke-width=".5" d="M355.21094 483.32813l3.66015-6"/></g><g clip-path="url(#I)"><path fill="none" stroke="#000" stroke-linecap="round" stroke-linejoin="round" stroke-miterlimit="10" stroke-width=".5" d="M367.30078 482.0664l6.10938-3.47265"/></g><g clip-path="url(#J)"><path fill="none" stroke="#000" stroke-linecap="round" stroke-linejoin="round" stroke-miterlimit="10" stroke-width=".5" d="M380.16797 480.05078l7.0039.55469"/></g><g clip-path="url(#K)"><path fill="none" stroke="#000" stroke-linecap="round" stroke-linejoin="round" stroke-miterlimit="10" stroke-width=".5" d="M381.1875 480.13281l-.48828-1.125"/></g><g clip-path="url(#L)"><path fill="none" stroke="#000" stroke-linecap="round" stroke-linejoin="round" stroke-miterlimit="10" stroke-width=".5" d="M393.59375 479.40625l6.78516 1.84375"/></g><path fill="none" stroke="#000" stroke-linecap="round" stroke-linejoin="round" stroke-miterlimit="10" stroke-width=".5" d="M394.58203 479.67578l-.27344-1.19531"/><g clip-path="url(#M)"><path fill="none" stroke="#000" stroke-linecap="round" stroke-linejoin="round" stroke-miterlimit="10" stroke-width=".5" d="M407.27734 478.53906l6.04688 3.57813"/></g><path fill="none" stroke="#000" stroke-linecap="round" stroke-linejoin="round" stroke-miterlimit="10" stroke-width=".5" d="M408.15625 479.0586l.0586-1.22266"/><g clip-path="url(#N)"><path fill="none" stroke="#000" stroke-linecap="round" stroke-linejoin="round" stroke-miterlimit="10" stroke-width=".5" d="M420.17969 479.58984l6.8711 1.48047"/></g><g clip-path="url(#O)"><path fill="none" stroke="#000" stroke-linecap="round" stroke-linejoin="round" stroke-miterlimit="10" stroke-width=".5" d="M421.17969 479.80469l-.33203-1.17969"/></g><g clip-path="url(#P)"><path fill="none" stroke="#000" stroke-linecap="round" stroke-linejoin="round" stroke-miterlimit="10" stroke-width=".5" d="M434.10156 478.24219l5.65625 4.17187"/></g><path fill="none" stroke="#000" stroke-linecap="round" stroke-linejoin="round" stroke-miterlimit="10" stroke-width=".5" d="M434.92578 478.85156l.17969-1.21484"/><g clip-path="url(#Q)"><path fill="none" stroke="#000" stroke-linecap="round" stroke-linejoin="round" stroke-miterlimit="10" stroke-width=".5" d="M446.79297 479.6836l6.90625 1.29296"/></g><g clip-path="url(#R)"><path fill="none" stroke="#000" stroke-linecap="round" stroke-linejoin="round" stroke-miterlimit="10" stroke-width=".5" d="M461.91797 477.22266l3.28906 6.21093"/></g><path fill="none" stroke="#000" stroke-linecap="round" stroke-linejoin="round" stroke-miterlimit="10" stroke-width=".5" d="M462.39453 478.1289l.6875-1.01952"/><g clip-path="url(#S)"><path fill="none" stroke="#000" stroke-linecap="round" stroke-linejoin="round" stroke-miterlimit="10" stroke-width=".5" d="M147.4336 467.76172l-6.8672-1.4961"/></g><path fill="none" stroke="#000" stroke-linecap="round" stroke-linejoin="round" stroke-miterlimit="10" stroke-width=".5" d="M147.4336 467.76172l.66406 2.35937m12.53515-1.95703l-6.63672-2.30078m6.63672 2.30078l.3789 2.42578m13.02345-2.71093l-6.8086-1.73047m5.8164 1.48047l.29298 1.1914m14.04687-1.07812l-6.875-1.45703m5.875 1.24609l.33985 1.17969m14.03515-2.03125l-6.9961.66797m5.97657-.57032l.67969 1.02344m13.57812-1.58984l-6.83984 1.60547M213 466.4453l.8086.92188m13.41406-1.46875l-6.66407 2.23047m5.69532-1.90625l.89062.84375M240.2422 465.25l-6.07422 3.52734m5.1914-3.01562l1.04297.64844m13.375-.71094l-6.51562 2.6289m6.51562-2.6289l1.87891 1.57422m11.66797.14453l-6.98047-.8086m5.96484.69141l.44922 1.14453m13.48047.25l-6.17187-3.36328m5.27343 2.8711l-.01172 1.22656m14.17188-.64453l-6.07031-3.54297m5.1875 3.02734l-.04688 1.22656m14.69922-2.05078l-6.97656-.86328m5.96094.73828l.4375 1.14453m13.7539-2.51953l-6.69531 2.13672m5.71875-1.82422l.8789.85547m13.35938-1.32031l-6.58984 2.4414m5.6289-2.08593l.91797.8164m13.03125-1.82812l-5.9414 3.7539m5.07812-3.20703l1.0664.60938m12.51563-1.8711l-4.7461 5.1836m4.0547-4.42969l1.1875.3086m6.93359 1.45312l7.02344.15234m6.33593-.6289l6.9375 1.10547m-5.92968-.94532l-.39844-1.16015m13.17187-.27344l6.00391 3.65234m-5.1289-3.12109l.0703-1.22266m12.3086.79688l6.125 3.4414m-5.23437-2.9414l.02734-1.22656m13.80078-.65235l3.3164 6.19922m-2.83202-5.29687l.68359-1.01954m11.69531.40625l4.21875 5.6211m-3.60156-4.80469l.51953-1.10937m11.77344.64843l5.03125 4.91016m-5.03125-4.91016l.6914-2.35547m13.28907 1.82422L465.41016 470m-3.16016-5.10547l.61719-1.0586"/><g clip-path="url(#T)"><path fill="none" stroke="#000" stroke-linecap="round" stroke-linejoin="round" stroke-miterlimit="10" stroke-width=".5" d="M147.23047 455.07813l-6.46094-2.75782"/></g><path fill="none" stroke="#000" stroke-linecap="round" stroke-linejoin="round" stroke-miterlimit="10" stroke-width=".5" d="M146.29297 454.67578l.10547 1.22266m13.94531-.42188l-6.0586-3.5586m5.1797 3.04298l-.0547 1.22656m13.35548.30078l-4.27344-5.57812m3.65234 4.76562l-.50781 1.11719m14.88672-.70703l-5.15625-4.77735m19.21484 3.53516l-6.64453-2.28906m19.75781-.46875l-6.24219 3.22656m19.35157-3.57812l-5.82813 3.92578m4.98047-3.35547l1.08203.57812m12.52735-1.78515l-4.72266 5.20312m4.03516-4.44531l1.1914.30078m13.76953.39063l-6.63672 2.30468m5.67188-1.97265l.89844.83593m13.55469.375l-6.98438-.78125m5.96875.66797l.44922 1.14063m13.89844-1.27735l-7.01954-.28125m7.01954.28125l1.0664 2.21094m12.23438-1.97656l-6.98828-.75m6.98828.75l.91406 2.27734m12.41797-2.63672l-7.02734-.03125m7.02734.03125l1.14453 2.16797m12.11719-2.8086l-6.91797 1.25m6.91797-1.25l1.51562 1.9297m11.55078-2.73828l-6.41796 2.86328m6.41796-2.86328l1.9336 1.51171m10.35156-2.83203l-4.35937 5.50782m3.72656-4.70704l1.20703.21875m11.28125-1.70703l-1.4414 6.8789m1.23046-5.875l1.17969-.34374m11.58594-.73438l.08203 7.02735m-.07031-6.0039l1.07421-.58985m11.14454-.2461l2.25 6.65625m-1.92579-5.6875l.84375-.89453m11.25.3789l4.04297 5.7461m-4.04297-5.7461l1.10938-2.1875m14.04297 1.5547l.36719 7.01562m-.3125-5.9961l1.05078-.6328m11.32422-.22657l2.13671 6.69532m-1.82421-5.72266l.85546-.875m10.46485 1.0664l5.5039 4.3672m-5.5039-4.3672l.4414-2.41406m12.1875 3.8711l6.875 1.44922m-6.875-1.44922l-.67968-2.35547m14.64843.9375l5.57032 4.28515m-4.76172-3.66015l.20703-1.21094"/><g clip-path="url(#U)"><path fill="none" stroke="#000" stroke-linecap="round" stroke-linejoin="round" stroke-miterlimit="10" stroke-width=".5" d="M147.32813 441.51172l-6.65625-2.25781"/></g><path fill="none" stroke="#000" stroke-linecap="round" stroke-linejoin="round" stroke-miterlimit="10" stroke-width=".5" d="M146.35938 441.1836l.1953 1.21093m14.01563-.6836l-6.50781-2.65234m5.5586 2.26563l.125 1.21875m13.71093-.07422l-5.65234-4.17188m4.82812 3.56641l-.17969 1.21485m14.05079-.28907l-5.1172-4.8125m16.89454 2.40625l-.01953-.19922-.0586-.1914-.09375-.17578-.45703-.37891-.1914-.0586-.19922-.01953-.19922.01954-.19531.05859-.45703.3789-.09375.17579-.0586.1914-.01953.19922.01953.19922.0586.1914.09375.1797.45703.375.19531.05859.19922.01953.19922-.01953.1914-.0586.45703-.375.09375-.17968.0586-.1914.01953-.19923m13.3164 0l-.01952-.19922-.0586-.1914-.09375-.17578-.46094-.37891-.1914-.0586-.19922-.01952-.19922.01953-.1914.05859-.45704.3789-.09765.17579-.0547.1914-.01952.19922.01953.19922.05469.1914.09765.1797.45703.375.19141.05859.19922.01953.19922-.01953.1914-.0586.46094-.375.09375-.17968.0586-.1914.01953-.19923m12.57422-3.5l-.56641 7.0039m16.01953-6.05077l-4.83984 5.09375m4.13672-4.35156l1.18359.32812m8.09375-1.16016l4.64062 5.27735m-3.96484-4.51172l.4336-1.14844m17.91015 2.0664l-6.76563 1.91016m5.78125-1.6328l.84766.88671m13.52344-.84766l-6.91016 1.27735m5.90625-1.09375l.76172.96094m13.3125-1.9375l-6.41797 2.85937m5.48438-2.4414l.96484.7539m13.53906-.3125l-6.93359 1.14063m6.9336-1.14063l1.48828 1.95313m11.70312-2.47266l-6.67969 2.17969m6.67969-2.1797l1.76563 1.70313m11.18359-2.48046l-5.95313 3.73437m5.95313-3.73437l2.1289 1.22265m10.54297-1.98047l-4.66796 5.25m4.66796-5.25l2.38672.57813m8.95313-1.44922l-.71485 6.99219m.61329-5.97266l1.1328-.46484m10.73438-.36328l2.38282 6.60937m-2.38282-6.60937l1.64844-1.81641m12.03125 1.70703l1.65625 6.82813m-1.41797-5.83594l.91797-.8125m14.6211.125l-3.26954 6.21875m3.26953-6.21875l2.45313-.01172m11.41406.3711l-4.375 5.5m4.375-5.5l2.41406.44921m11.3047-.07031l-5.1836 4.7461m5.1836-4.7461l2.3125.82031m10.85155-.97656l-4.8789 5.0586m4.8789-5.0586l2.35938.67578m10.60937-.96875l-4.1875 5.64453m4.1875-5.64453l2.42579.36328m11.17578-.125l-4.76172 5.16797m4.07031-4.41797l1.1875.3086"/><g clip-path="url(#V)"><path fill="none" stroke="#000" stroke-linecap="round" stroke-linejoin="round" stroke-miterlimit="10" stroke-width=".5" d="M147.51172 426.9414l-7.02344.25391"/></g><path fill="none" stroke="#000" stroke-linecap="round" stroke-linejoin="round" stroke-miterlimit="10" stroke-width=".5" d="M147.51172 426.9414l1.23047 2.1211m11.59375-3.78906l-6.04297 3.58984m5.16406-3.0664l1.04688.63671m11.73437-2.48828l-3.21484 6.2461m18.29297-2.125l-6.7422-1.9961m5.76173 1.70313l.24219 1.20312m11.91015 1.38281l-2.45312-6.58203m2.09375 5.625l-.8125.91797m13.3164.26172l-.11719-7.02734m9.92188 4.15625l6.90625-1.28125m6.84375 2.4375l6.03516-3.59766m-5.15625 3.07422l-1.05078-.63672m13.63671 1.39063l5.73438-4.0586m8.0664 4.61328l4.76172-5.16797m-4.0664 4.41797l-1.1875-.3125m13.41797.63672l5.54296-4.3164m-4.73437 3.6914l-1.1211-.5039m17.98438 2.10546l-3.17187-6.26953m17.5078 5.4922l-5.21093-4.71485m4.45313 4.02734l-.30079 1.1914m14.625-4.90234l-5.71484 4.08203m4.88281-3.48828l1.10157.54688m13.07812-1.10156l-5.77734 4.0039m5.77734-4.0039l2.17969 1.1289m10.2539-2.00781l-4.01953 5.76172m4.01953-5.76172l2.4375.29297m10.6836-.42188l-3.6289 6.01953m3.10155-5.14453l1.22266.06641m12.4375-1.04297l-3.26562 6.22266m2.78906-5.3164l1.23047-.00782m12.0625-1.11328l-2.26563 6.65234m2.26563-6.65234l2.42187-.39063M399.5 424.61328l-5.02734 4.91016m5.02734-4.91016l2.33984.7461m-3.0703-.03126l1.16796.375m13.76562.4922l-6.80468 1.75m6.80468-1.75l1.65625 1.80859m10.83985-3.31641l-5.16406 4.76172m5.16406-4.76172l2.3164.8086m-3.0664-.1172l1.15625.40626m12.59375-1.39844l-4.53516 5.36328m4.53516-5.36328l2.39844.51562m-3.0586.26172l1.19922.26172m12.61719-1.16797l-4.21875 5.6211m4.21875-5.6211l2.42578.38281m-3.03906.4375l1.21093.1875m13.71094.15625l-6.20703 3.29297"/><g clip-path="url(#W)"><path fill="none" stroke="#000" stroke-linecap="round" stroke-linejoin="round" stroke-miterlimit="10" stroke-width=".5" d="M466.66406 425.42188l2.03516 1.375"/></g><path fill="none" stroke="#000" stroke-linecap="round" stroke-linejoin="round" stroke-miterlimit="10" stroke-width=".5" d="M465.76172 425.90234l1.01562.6875"/><g clip-path="url(#X)"><path fill="none" stroke="#000" stroke-linecap="round" stroke-linejoin="round" stroke-miterlimit="10" stroke-width=".5" d="M147.5 413.42969l-7 .64844"/></g><path fill="none" stroke="#000" stroke-linecap="round" stroke-linejoin="round" stroke-miterlimit="10" stroke-width=".5" d="M147.5 413.42969l1.34375 2.05078m11.55078-3.41797l-6.16016 3.3789m6.16016-3.3789l2.05469 1.34766m9.32812-2.97657l-2.29297 6.64063m1.95704-5.67578l1.21484-.1914m7.80469 2.08593l6.96875.92187m6.66406 1.0625l6.33203-3.04687m-5.41016 2.60156l-.98828-.72656m13.80078 1.83984l5.4922-4.38281m-4.69141 3.7461l-1.125-.48829m15.1875 2.23438l2.39843-6.60547m-2.04687 5.64453l-1.21484.17188m14.1875.79296l2.3789-6.60937m-2.03125 5.64844l-1.21484.17578m13.3125.32812l4.1211-5.69531m11.05468 6.35547l.39844-7.01563m11.0664 6.35938l4.10156-5.70313m13.625 5.45313l-4.72265-5.20313m18.86719 4.06641l-6.38672-2.92969m5.45703 2.5039l.07422 1.22657m14.46484-2.71484l-6.97266.89844m5.95704-.76954l.71093 1.00391m13.47266-1.77344l-6.67969 2.17969m5.71094-1.86328l.88281.85156m13.39844-1.17578l-6.67578 2.19531m6.67578-2.19531l1.77344 1.69531m11.65625-1.25l-6.90235 1.30078m6.90235-1.30078l1.53515 1.91797m-2.53906-1.72656l.76563.95703m13.43359-1.61719l-6.66016 2.23828m6.66016-2.23828l1.78125 1.6875m11.05078-2.625l-5.69531 4.11719m5.69531-4.11719l2.20313 1.08203m10.24218-1.92578l-3.95703 5.80469m3.95703-5.80469l2.44141.26953m11.1289-.08203l-4.46484 5.42969m4.46485-5.42969l2.40234.48828m-3.05469.30078l1.20313.2461m12.6914-1.08985l-4.32422 5.53907m4.32422-5.53906l2.41797.42578m-3.04687.3789l1.21093.21485m12.6875-1.0547l-4.23046 5.60938m4.23046-5.60937l2.42188.38281m-3.03906.4336l1.21093.1914m13.03907-.73828l-4.86719 5.07031m4.86719-5.07031l2.35937.66797m-3.0664.07031l1.17968.33594m13.16016-.72656l-5.5 4.375"/><g clip-path="url(#Y)"><path fill="none" stroke="#000" stroke-linecap="round" stroke-linejoin="round" stroke-miterlimit="10" stroke-width=".5" d="M466.3125 411.5664l2.25.98048"/></g><path fill="none" stroke="#000" stroke-linecap="round" stroke-linejoin="round" stroke-miterlimit="10" stroke-width=".5" d="M465.51172 412.20313l1.125.48828"/><g clip-path="url(#Z)"><path fill="none" stroke="#000" stroke-linecap="round" stroke-linejoin="round" stroke-miterlimit="10" stroke-width=".5" d="M147.50781 400.23828l-7.01562.39844"/></g><path fill="none" stroke="#000" stroke-linecap="round" stroke-linejoin="round" stroke-miterlimit="10" stroke-width=".5" d="M147.50781 400.23828l1.27344 2.09766m11.69531-3.42969l-6.32422 3.0625m6.32422-3.0625l1.98047 1.44922m11.05469-1.92969l-5.76172 4.02344m5.76172-4.02344l2.1836 1.11719m10.97265-1.32813l-5.44531 4.44532m4.65234-3.79688l1.13281.47266m11.8164-2.04297l-3.125 6.29297m2.66798-5.3789l1.22656-.03517m7.4961 2.69922l6.97265-.86718m-5.96094.74218l-.70312-1.0039m13.42969 2.42187l6.125-3.44922m-6.125 3.44922l-2.06641-1.32422m18.01953 3.08594l.85156-6.97656m-.73047 5.96094l-1.14453.4414m17.13281-.32031l-4.74218-5.1875m4.05469 4.4336l-.41407 1.15624m15.42969-2.05078l-6.76563-1.89062m5.78125 1.61719l.26172 1.19921m13.8125-.33203l-6.3164-3.07422m5.39843 2.625l.04297 1.22657m14.03125-.48438l-5.99609-3.66406m5.1211 3.13281l-.07032 1.22266m14.69922-1.80469l-6.8789-1.4375m5.8789 1.23047l.34375 1.17578m13.98828-2.32813l-6.91016 1.28125m6.91016-1.28125l1.52734 1.92188m11.84375-1.38672l-7.02343.21094m7.02343-.21094l1.21875 2.13281m12.05079-1.43359l-6.9297-1.1836m6.9297 1.1836l.76953 2.32813m12.4961-2.09766l-6.83204-1.64453m6.83203 1.64453l.61328 2.375m12.57813-4.42969l-6.58203 2.46485m6.58203-2.46485l1.83593 1.625m-2.79687-1.26562l.92187.8125m12.8711-2.05079l-5.61719 4.22266m5.61719-4.22265l2.22265 1.03906m-3.03906-.42578l1.10938.51953m12.53515-1.66016l-4.64453 5.27344m4.64453-5.27344l2.38672.5664m10.91797-.57421l-4.625 5.29297m4.625-5.29297l2.39063.5586m10.66406-.76563l-4.10156 5.70312m4.10156-5.70312l2.42969.32812m-3.02735.5l1.21485.16797m12.66796-1.01953l-4.04296 5.75m4.04296-5.75l2.4336.30469m-3.02344.53125l1.21875.15234m13.34766-.38281l-5.36328 4.53906m5.36328-4.53906l2.27734.91015m-3.0586-.25l1.14063.45704m13.1914-.8047l-5.83593 3.91407"/><g clip-path="url(#aa)"><path fill="none" stroke="#000" stroke-linecap="round" stroke-linejoin="round" stroke-miterlimit="10" stroke-width=".5" d="M466.48047 398.48047l2.16406 1.16015"/></g><path fill="none" stroke="#000" stroke-linecap="round" stroke-linejoin="round" stroke-miterlimit="10" stroke-width=".5" d="M465.6289 399.05078l1.08204.57813"/><g clip-path="url(#ab)"><path fill="none" stroke="#000" stroke-linecap="round" stroke-linejoin="round" stroke-miterlimit="10" stroke-width=".5" d="M147.51172 387.125h-7.02344"/></g><path fill="none" stroke="#000" stroke-linecap="round" stroke-linejoin="round" stroke-miterlimit="10" stroke-width=".5" d="M147.51172 387.125l1.15234 2.16406m12.03125-3.11719l-6.76172 1.90625m6.76172-1.90625l1.69922 1.76954m11.25781-2.60938l-6.04687 3.58203m6.04687-3.58203l2.09766 1.28125m10.8125-1.83203l-5.23438 4.6836m5.23438-4.6836l2.30469.84766m11.03906-.81641l-5.29297 4.6211m5.29297-4.6211l2.29297.875m11.63672.125l-6.51953 2.6211m6.51953-2.6211l1.875 1.58203m7.29687 3.1289l1.76563-6.80077m10.91406 6.5703l3.03516-6.33983m-3.03516 6.33984l-2.45313.10156m19.21094-.33203l-3.84765-5.8789m3.84765 5.8789l-1.17969 2.15234m15.83985-3.80078l-6.53906-2.58203m5.58593 2.20703l.13672 1.21875m13.82031-.24219l-5.91796-3.78515m5.05859 3.23437l-.09766 1.22266m14.41016-.90625l-6.19531-3.3125m6.19531 3.3125l-.0039 2.45313m13.6875-3.53516l-6.9297-1.15235m5.92188.98438l.39063 1.16406m13.89062-.78906l-6.84766-1.5664m5.85157 1.33984l.32031 1.1836m13.89453-.60548l-6.65234-2.26953m6.65234 2.26953l.39063 2.42188M347 388.40234l-6.54688-2.55859M347 388.40235l.28125 2.4375m13.14453-4.65626l-6.76953 1.88282m6.76953-1.88282l1.6914 1.77735m11.3047-2.5586l-6.12891 3.44141m6.1289-3.4414l2.0625 1.32812m-2.95703-.82813l1.03516.66407m12.71484-1.79688l-5.21484 4.70703m5.21484-4.70703l2.3086.83594m-3.0664-.15235l1.15233.41797m12.8711-1.15625l-5.11328 4.81641m5.11328-4.8164l2.32422.78515m-3.0664-.08594l1.16015.39453m12.6289-1.35156l-4.57812 5.33203m4.57812-5.33203l2.39453.53906m-3.05859.23829l1.19531.26562m12.6172-1.17969l-4.2422 5.60547m4.2422-5.60547l2.42187.39063m-3.03907.42578l1.21094.19531m13.01953-.75781l-4.83984 5.09765m4.83984-5.09765l2.36328.65625m-3.0664.08594l1.17968.32812m12.98438-.92187l-5.13281 4.80078m5.13281-4.80078l2.32031.79687m11.25-.48828l-5.64453 4.1875"/><g clip-path="url(#ac)"><path fill="none" stroke="#000" stroke-linecap="round" stroke-linejoin="round" stroke-miterlimit="10" stroke-width=".5" d="M466.38281 385.03125l2.21485 1.05078"/></g><g clip-path="url(#ad)"><path fill="none" stroke="#000" stroke-linecap="round" stroke-linejoin="round" stroke-miterlimit="10" stroke-width=".5" d="M147.5039 373.53906l-7.0078.53906"/></g><path fill="none" stroke="#000" stroke-linecap="round" stroke-linejoin="round" stroke-miterlimit="10" stroke-width=".5" d="M146.48438 373.61719l.65625 1.03515m13.54687-1.82812l-6.7461 1.96484m5.76563-1.67578l.85547.8789m13.01563-2.09765l-5.89454 3.82813m5.89453-3.82813l2.14454 1.1875m10.70703-1.75781l-4.96875 4.96875m4.96875-4.96875l2.34765.71875m11.0625-.61719l-5.16015 4.76563m5.16015-4.76563l2.31641.8086m10.8125-1l-4.78516 5.14453m4.78516-5.14454l2.3711.63282m11.88671 3.04687l-6.67187-2.21094m5.69922 1.88672l.20703 1.21094m12.24219 1.1875l-2.9961-6.35937m2.5586 5.43359l-.73438.98047m13.21875.26953l-.46094-7.01172m.39453 5.99219l-1.04297.64844m16.51172-.4922l-4.6328-5.28124m4.6328 5.28125l-.87109 2.29687m15.01953-3.3789l-6.29687-3.11719m6.29687 3.11719l.07031 2.45312m13.19922-2.36719l-6.21093-3.28906m6.21093 3.28906l.0039 2.45313m-.90624-2.9336v1.22657m14.34766-1.02344l-6.46875-2.73828m6.46875 2.73828l.21875 2.44531m-1.16016-2.84375L306.18359 376m13.94532-.41797l-6.06641-3.54687m6.0664 3.54687l-.09765 2.44922m-.78516-2.96484l-.09765 2.44921m14.58203-2.55468l-6.64063-2.30469m6.64063 2.30469l.3789 2.42187m-1.34374-2.75781l.1875 1.21094m14.23437-2.6211l-6.92578 1.1875m6.92578-1.1875l1.5039 1.94141m11.8086-1.96484l-6.91797 1.23437m6.91797-1.23437l1.51563 1.93359m-2.52344-1.7539l.75781.96484m13.5039-1.42969l-6.79296 1.80078m6.79297-1.80078l1.66797 1.80078m-2.65625-1.53906l.83203.90234m13.04297-2.14453l-5.9375 3.76172m5.9375-3.76172l2.1328 1.21485m-2.99609-.66407l1.06641.60547m12.88281-1.46875l-5.48437 4.39063m5.48437-4.39063l2.2539.96875m-3.05077-.33203l1.1289.48438m12.6875-1.44922l-4.89062 5.04687m4.89062-5.04687l2.35938.67968m-3.07031.0547l1.17968.33983m12.76954-1.14453l-4.73829 5.1875m4.73829-5.1875l2.3789.60938m-3.0664.14453l1.1875.30469m12.92968-.94922l-4.96875 4.96875m4.96875-4.96875l2.34766.71875m-3.07031.0039l1.17578.35938m12.78515-1.16016l-4.8125 5.1211m4.8125-5.1211l2.3672.64454m-3.06641.10156l1.18359.32422m12.65625-1.22266l-4.46094 5.42969"/><g clip-path="url(#ae)"><path fill="none" stroke="#000" stroke-linecap="round" stroke-linejoin="round" stroke-miterlimit="10" stroke-width=".5" d="M465.79297 371.09375l2.40234.48438"/></g><g clip-path="url(#af)"><path fill="none" stroke="#000" stroke-linecap="round" stroke-linejoin="round" stroke-miterlimit="10" stroke-width=".5" d="M147.51172 360.41797l-7.02344.14844"/></g><path fill="none" stroke="#000" stroke-linecap="round" stroke-linejoin="round" stroke-miterlimit="10" stroke-width=".5" d="M146.49219 360.4414l.59765 1.07032m10.26953-4.53125l-.08593 7.02734m15.59375-6.22265l-4.47266 5.41796m3.82031-4.6328l1.20313.24609m12.67969-1.10157l-4.3047 5.5547m3.6797-4.7461l1.20703.21094m12.91015-.8711l-4.66015 5.26172m3.98047-4.4961l1.1953.28516m13.32032-.47265l-5.70312 4.10546m5.70312-4.10546l2.20313 1.08593m11.68359.16407l-6.84375 1.60156m6.84375-1.60156l1.61328 1.84765m11.30469.74219l-6.05078-3.57422m5.17187 3.05469l-.0586 1.22656m10.39845.91797l1.66015-6.82813m-1.41797 5.83594l-1.1914.30469m16.05078.65625l-1.91406-6.76172m1.91406 6.76172l-1.76953 1.69922m16.66797-2.65235l-5.07813-4.85546m5.07813 4.85546l-.66797 2.36329m14.10937-2.50391l-5.33203-4.57813m5.33203 4.57813l-.53906 2.39453m-.23828-3.0586l-.26953 1.19532m14.3711-.54297l-5.35157-4.55469m5.35156 4.5547l-.52734 2.39843m-.25-3.0625l-.52735 2.39844m14.82032-1.9922l-5.75391-4.03515m5.7539 4.03516l-.30078 2.4336m-.53515-3.02344l-.15235 1.21875m14.88672-2.03516l-6.91797-1.22656m6.91797 1.22656l.75782 2.33594m12.60546-2.75l-7.01562-.39454m7.01562.39454l1.02735 2.22656m-2.04688-2.28516l.51172 1.11328m13.78125-1.83203l-6.9336 1.15625m6.9336-1.15625L362 361.86328m-2.5-1.78125l.7461.97656m13.51952-1.41796l-6.8164 1.70312m6.8164-1.70313l1.64063 1.82422m-2.63281-1.57421l.82031.91015m13.25781-1.79687l-6.36328 2.98046m6.36328-2.98046l1.96485 1.47265m-2.89063-1.03906l.98438.73828m12.9414-1.71875l-5.73047 4.07031m5.73047-4.0703l2.1914 1.10155m-3.02734-.5078l1.09766.55077m13.00781-1.20312l-5.64062 4.1875m5.64062-4.1875l2.21875 1.05469m-3.03906-.44532l1.10938.52735m13.1289-.9922l-5.84765 3.89845m5.84765-3.89844l2.16016 1.16406m-3.01172-.59765l1.08203.58203m13.07813-1.16016l-5.83204 3.92188m5.83204-3.92188l2.16406 1.15625M439 359.10156l1.08203.57813m12.92969-1.35547l-5.53125 4.33594m5.53125-4.33594l2.24219.9961m-3.04688-.36329l1.1211.4961m12.65624-1.50391l-4.84765 5.08594"/><g clip-path="url(#ag)"><path fill="none" stroke="#000" stroke-linecap="round" stroke-linejoin="round" stroke-miterlimit="10" stroke-width=".5" d="M465.98438 357.94922l2.36328.66015"/></g><path fill="none" stroke="#000" stroke-linecap="round" stroke-linejoin="round" stroke-miterlimit="10" stroke-width=".5" d="M465.28125 358.6914l1.17969.32813"/><g clip-path="url(#ah)"><path fill="none" stroke="#000" stroke-linecap="round" stroke-linejoin="round" stroke-miterlimit="10" stroke-width=".5" d="M147.42969 346.42188l-6.85938 1.51171"/></g><path fill="none" stroke="#000" stroke-linecap="round" stroke-linejoin="round" stroke-miterlimit="10" stroke-width=".5" d="M146.4336 346.64063l.79296.93359m10.71875-3.85156l-1.26172 6.91015m1.07813-5.90625l1.16797-.3711m13.27344-.3203l-3.14454 6.28515m2.6875-5.3711l1.22266-.03124m10.35938-1.19922l1.23437 6.91797m11.08203-6.57813l3.23047 6.2422m-2.75781-5.33595l.69531-1.0078m15.98828.5039l-4.45312 5.4375m3.80468-4.64844l1.20313.24219m13.9961 1.07812l-6.92188 1.21485m6.92187-1.21485l1.50781 1.9336m11.84766-1.0547l-7.0039-.54296m7.0039.54297l.98047 2.25m11.17578.09765l-4.6875-5.23437m4.6875 5.23438l-.84375 2.30078m11.3789-1.4336l.8711-6.97265m-.8711 6.97265l-2.29296.875m17.72656-1.27734l-3.36328-6.16797m3.36328 6.16797l-1.34765 2.05078m15.19921-2.41016l-4.4375-5.44921m4.4375 5.44921l-.94921 2.26172m.30468-3.05469l-.47656 1.12891m14.77734-.65234l-5.11718-4.8164m5.11718 4.8164l-.64453 2.36719m-.10156-3.07032l-.64453 2.3711m14.94531-1.94922l-5.59765-4.2539m5.59765 4.2539l-.39453 2.42187m-.42187-3.04297l-.19532 1.21094m14.8711-1.63281l-6.6836-2.16797m6.6836 2.16797l.42578 2.41797m13.03906-3.13672l-6.98828-.73047m6.98828.73047l.92188 2.27344m12.37109-2.08985l-6.9414-1.09375m6.9414 1.09375l.80078 2.3164m-1.8125-2.47655l.40234 1.16015m13.94532-1.94922l-6.98047.80079m6.98047-.80079l1.39062 2.02344m11.75-2.77734l-6.63672 2.3086m6.63672-2.3086l1.80078 1.66797m11.125-2.45313l-5.85547 3.8789m5.85547-3.8789l2.16016 1.17188m-3.01172-.60938l1.07813.58594m12.99609-1.28125l-5.67188 4.14453m5.67188-4.14453l2.21094 1.07031m-3.03516-.46875l1.10547.53516m13.35156-.61719l-6.30469 3.10547m6.3047-3.10547l1.98827 1.4336m-2.90625-.98048l.9961.71485m13.21093-1.21875l-6.2539 3.20703m6.2539-3.20703l2.01172 1.40234m-2.92187-.9336l1.00781.69923m13.07031-1.42188l-5.96093 3.71875m5.96093-3.71875l2.125 1.22656m-2.99218-.6875l1.0625.61329m12.91406-1.45313l-5.54688 4.3164"/><g clip-path="url(#ai)"><path fill="none" stroke="#000" stroke-linecap="round" stroke-linejoin="round" stroke-miterlimit="10" stroke-width=".5" d="M466.33594 345.01953l2.23828 1.0039"/></g><path fill="none" stroke="#000" stroke-linecap="round" stroke-linejoin="round" stroke-miterlimit="10" stroke-width=".5" d="M465.52734 345.64844l1.1211.5"/><g clip-path="url(#aj)"><path fill="none" stroke="#000" stroke-linecap="round" stroke-linejoin="round" stroke-miterlimit="10" stroke-width=".5" d="M147.15625 332.3164l-6.3125 3.09376"/></g><path fill="none" stroke="#000" stroke-linecap="round" stroke-linejoin="round" stroke-miterlimit="10" stroke-width=".5" d="M147.15625 332.3164l1.98828 1.44141m10.46875-2.55078l-4.59766 5.3125m3.9297-4.53906l1.1953.26953m11.94922-1.58203l-2.91797 6.39062m2.4922-5.46093l1.22655-.07422m12.44532-.88672l-2.78125 6.45312m2.375-5.51562l1.22265-.09766m8.14063.50781l5.9336 3.75782m-5.07032-3.21094l.09375-1.22656m13.01172-.08594l4.6289 5.28906m-3.95703-4.51953l.4375-1.14453m12.96485-.13281l3.10937 6.30078m14.86719-1.5039l-6.21094-3.28907m5.30469 2.8086l.0039 1.22656m13.6836 0l-5.14844-4.78125m5.14844 4.78125l-.6289 2.37109m13.32421-1.84375l-3.90625-5.83984m3.90625 5.83984l-1.16015 2.16406m.59375-3.01172l-.58203 1.08204m13.49218.21875l-1.96484-6.7461m1.96484 6.7461l-1.75781 1.71484m1.47266-2.69531l-.87891.85546m15.08984-.11328l-3.18359-6.26562m3.1836 6.26562l-1.41016 2.00782m.94531-2.92188l-.70313 1.00781m14.70704-.21875l-3.63282-6.01562m3.63282 6.01562l-1.25782 2.10547m.73047-2.98047l-.6289 1.05079m14.82421-.41797l-4.33593-5.53125m4.33593 5.53125l-.99609 2.24218m.36328-3.04687l-.4961 1.1211m15.2422-1.20313l-5.9375-3.75781m5.9375 3.7578l-.1836 2.44532m13.9414-3.48828l-6.82421-1.67578m6.82422 1.67578l.60156 2.3789m12.58594-1.96093l-6.5664-2.50781m6.5664 2.5078l.30078 2.4336m13.23047-3.35547l-6.9961-.66406m6.9961.66406l.9414 2.26172m12.25782-3.53515l-6.76953 1.8828m6.76953-1.8828l1.6914 1.78125m11.52735-2.07813l-6.57422 2.47656m6.57422-2.47656l1.84375 1.6211m11.57812-1.29688l-6.78515 1.82812m6.78515-1.82812l1.67578 1.79297m11.69532-1.53906l-6.90235 1.3164m6.90235-1.3164l1.53906 1.91406m-2.54297-1.72266l.76953.95703m13.32031-1.89453l-6.4414 2.8125m6.4414-2.8125l1.92188 1.52344m-2.85938-1.11719l.96094.76172m13.26563-1.22266l-6.39063 2.92188m6.39063-2.92188l1.94921 1.4922m-2.8789-1.06642l.97656.7461m13.16406-1.38281l-6.17968 3.34375"/><g clip-path="url(#ak)"><path fill="none" stroke="#000" stroke-linecap="round" stroke-linejoin="round" stroke-miterlimit="10" stroke-width=".5" d="M466.65234 332.1914l2.04297 1.35548"/></g><g clip-path="url(#al)"><path fill="none" stroke="#000" stroke-linecap="round" stroke-linejoin="round" stroke-miterlimit="10" stroke-width=".5" d="M465.7539 332.67578l2.04298 1.35938"/></g><g clip-path="url(#am)"><path fill="none" stroke="#000" stroke-linecap="round" stroke-linejoin="round" stroke-miterlimit="10" stroke-width=".5" d="M146.86328 318.51172l-5.72656 4.07031"/></g><path fill="none" stroke="#000" stroke-linecap="round" stroke-linejoin="round" stroke-miterlimit="10" stroke-width=".5" d="M146.86328 318.51172l2.19531 1.10156m-3.02734-.50781l1.09766.55078m12.5625-1.69531l-4.75391 5.17187m4.7539-5.17187l2.375.6211m-3.0664.1328l1.1875.3086m12.48047-1.33594l-4.07422 5.72266m4.07422-5.72266l2.4336.3164m10.35546-.6289l-3.02344 6.34375m2.58203-5.42188l1.22657-.05468m10.76562-1.19922l.50781 7.00781m-.43359-5.98828l1.03906-.65234m11.81641-.31641l1.27734 6.91016m-1.08984-5.90625l.95703-.76172m9.38672 2.42187l6.84375 1.58203m6.71875-2.29687l6.35156 3.00781m-5.42969-2.57031l-.05468-1.22266m12.92578 4.54297l5.39062-4.5039m10.34375 5.7539l.5547-7.0039m-.47657 5.98437l-1.125.48828m15.17187.5l-1.0664-6.94531m1.0664 6.94531l-1.96484 1.46875m15.84375-1.60156l-2.1914-6.67578m2.1914 6.67578l-1.69922 1.76953m15.03516-1.77734l-2.23438-6.66407m2.23438 6.66407l-1.6914 1.78125m1.36718-2.75l-.84766.89062m15.5625-.50781l-4.38672-5.48828m4.38672 5.48828l-.96875 2.25m.33203-3.05078l-.48437 1.1289m14.35156-.26171l-4.21484-5.6211m4.21484 5.6211l-1.04297 2.22265m13.82813-1.89453l-3.15625-6.27734m2.69531 5.36328l-.70703 1m15.70312-1.10156l-5.59765-4.25m4.78125 3.6328l-.19531 1.21094m15.02734-3.01953l-7 .60157m5.98437-.51172l.66407 1.02734m13.54687.14844l-6.75781-1.92578m5.77344 1.64453l.2578 1.19922m14.1211-2.5l-6.91797 1.23828m5.91016-1.0586l.75781.96485m13.52735.28125l-6.83985-1.61328m5.84375 1.3789l.3125 1.1875m13.65625-.0664l-6.15625-3.38672m5.26172 2.89062l-.01953 1.22657m14.65234-2.72266l-7.0039.59375m5.98437-.50781l.66407 1.03125m13.5-1.92969l-6.66407 2.22266m6.66407-2.22266l1.78125 1.6914m-2.75-1.36718l.89062.84375m12.71875-2.35547l-5.3125 4.59766"/><g clip-path="url(#an)"><path fill="none" stroke="#000" stroke-linecap="round" stroke-linejoin="round" stroke-miterlimit="10" stroke-width=".5" d="M466.21875 318.25l2.28906.88281"/></g><path fill="none" stroke="#000" stroke-linecap="round" stroke-linejoin="round" stroke-miterlimit="10" stroke-width=".5" d="M465.44531 318.91797l2.28906.88672"/><path fill="#00f" fill-rule="evenodd" d="M357.17188 458.77344h8.61718V448.625h-8.61719v10.14844"/><path fill="azure" fill-rule="evenodd" d="M359.0039 450.45703h.83204v2.82422h3.28515v-2.82422h.83594v6.48047h-.83594v-2.91406h-3.28515v2.91406h-.83203v-6.48047"/><path fill="#00f" fill-rule="evenodd" d="M219.58203 414.38672h8.61719v-10.14453h-8.61719v10.14453"/><path fill="azure" fill-rule="evenodd" d="M221.41406 406.07422h.83203v2.82422h3.28907v-2.82422h.83203v6.48047h-.83203v-2.91406h-3.28907v2.91406h-.83203v-6.48047"/><path fill="#ff3030" fill-rule="evenodd" d="M291.28906 405.51172h7.6914v-10.14453h-7.6914v10.14453"/><path fill="azure" fill-rule="evenodd" d="M293.1211 397.19922h.83593v5.73828h3.1914v.74219h-4.02734v-6.48047"/><path fill="#ff3030" fill-rule="evenodd" d="M273.53516 370.0039h7.6914v-10.14452h-7.6914v10.14453"/><path fill="azure" fill-rule="evenodd" d="M275.36719 361.6914h.83594v5.73829h3.1914v.74219h-4.02734v-6.48047"/><path fill="#ffffe0" fill-rule="evenodd" d="M419.05469 450.125h22.17969v-10.1914h-22.1797v10.1914"/><path fill-rule="evenodd" d="M422.55469 441.76563h.50781v6.29687h-.78906v-4.49219h-1.38672v-.55469l.5586-.0625.2539-.05468.23047-.08985.20312-.14062.17188-.21094.14062-.29297.10938-.39844m4.8125 0l.23047.01954.21875.05468.20703.08985.19531.1211.1836.15233.17187.17579.30078.41796.2461.4922.17968.54687.10938.57812.03906.59375-.03906.59375-.10938.58203-.17969.5547-.24609.5039-.30078.42578-.17188.17969-.18359.15234-.19531.125-.20703.08984-.21875.0586-.23047.01953-.23047-.01953-.21875-.0586-.20703-.08984-.19531-.125-.1875-.15234-.16797-.1797-.3047-.42577-.24218-.5039-.17969-.5547-.11328-.58203-.03515-.59375h.83203l.02734.5625.08203.5039.1289.44532.16017.375.1914.30078.21094.21875.22265.13672.22657.04688.22656-.04688.22266-.13672.21093-.21875.19141-.30078.16016-.375.125-.44531.08203-.5039.03125-.5625-.03125-.5625-.08203-.5-.125-.4336-.16016-.36719-.1914-.29297-.21094-.21484-.22266-.1289-.22656-.04688-.22656.04687-.22266.1289-.21094.21485-.1914.29297-.16016.36719-.1289.4336-.08204.5-.02734.5625h-.83203l.03515-.59376.11328-.57812.1797-.54688.24218-.49219.30469-.41796.16796-.17579.1875-.15234.19532-.1211.20703-.08984.21875-.05468.23047-.01954m4.95312 0l.22656.01954.21875.05468.21094.08985.19531.1211.1836.15233.17187.17579.30079.41796.24609.4922.17969.54687.10937.57812.03906.59375-.03906.59375-.10937.58203-.1797.5547-.24608.5039-.30079.42578-.17187.17969-.1836.15234-.1953.125-.21094.08984-.21875.0586-.22657.01953-.23047-.01953-.21875-.0586-.20703-.08984-.19922-.125-.18359-.15234-.17188-.1797-.30078-.42577-.24218-.5039-.1797-.5547-.11327-.58203-.03906-.59375h.83593l.02735.5625.08203.5039.125.44532.16406.375.1914.30078.21094.21875.22266.13672.22656.04688.22656-.04688.22266-.13672.21094-.21875.1875-.30078.16406-.375.125-.44531.08203-.5039.03125-.5625-.03125-.5625-.08203-.5-.125-.4336-.16406-.36719-.1875-.29297-.21094-.21484-.22265-.1289-.22657-.04688-.22656.04687-.22266.1289-.21093.21485-.19141.29297-.16406.36719-.125.4336-.08203.5-.02735.5625h-.83594l.03907-.59376.11328-.57812.17969-.54688.24218-.49219.30079-.41796.17187-.17579.1836-.15234.19921-.1211.20703-.08984.21875-.05468.23047-.01954m4.95313 0l.38672.03125.35546.08204.32422.1328.28125.1875.23047.23829.17188.28516.10937.33203.03516.3789-.01953.27344-.0586.23438-.08593.20312-.11329.16797-.1289.14453-.14063.1211-.28515.19921.23047.1172.21093.14843.1797.16797.15624.19531.1211.21484.08984.22657.0586.24609.01952.2539-.03515.3125-.10547.32423-.17188.32421-.23828.3086-.3086.26953-.37108.21484-.21094.07813-.23047.0625-.2461.03906-.2578.01172-.26173-.01172-.24218-.03906-.22266-.0625-.20703-.07813-.35547-.21484-.29297-.26953-.22265-.3086-.15625-.32421-.09375-.32422-.02735-.3125h.83203l.02735.2539.07812.23438.1211.21484.16015.1836.1914.15234.22266.11328.23829.07422.2578.02344.25391-.02344.23829-.07422.22265-.11328.1914-.15235.16016-.18359.1211-.21484.07812-.23438.02735-.2539-.02735-.25-.07812-.23829-.1211-.21093-.16015-.1836-.1914-.15234-.22267-.11719-.23828-.07031-.2539-.02344-.25781.02344-.23829.07031-.22265.11719-.1914.15234-.16017.1836-.12109.21094-.07812.23828-.02735.25h-.83203l.01563-.25391.05859-.23828.08984-.22266.125-.21094.15235-.1875.17969-.17187.21093-.15625.23047-.1289-.28515-.19923-.14063-.12109-.1289-.14453-.11329-.16797-.08594-.20312-.05859-.23438-.01953-.27344h.78516l.02343.21485.06641.1914.10547.16407.13672.14062.16406.11328.1875.08203.20703.04688.22266.01953.21875-.01953.20703-.04688.1875-.08203.16797-.11328.13672-.14062.10156-.16407.0664-.1914.02344-.21485-.02344-.21484-.0664-.1914-.10156-.16407-.13672-.14062-.16797-.11329-.1875-.08203-.20703-.05078-.21875-.01562-.22266.01562-.20703.05078-.1875.08204-.16406.11328-.13672.14062-.10547.16406-.0664.19141-.02344.21484h-.78516l.03516-.3789.10937-.33203.17578-.28516.22656-.23828.28125-.1875.32422-.13281.35547-.08204.39063-.03125"/><path fill="#ffffe0" fill-rule="evenodd" d="M342.48438 356.92188h22.17968v-10.19141h-22.17969v10.1914"/><path fill-rule="evenodd" d="M345.98047 348.5625h.51172v6.29297h-.78906v-4.48828h-1.38672v-.55469l.55859-.0664.2539-.0547.22657-.08984.20312-.14062.17579-.21094.14062-.29297.10547-.39453m4.8164 0l.22657.01953.21875.05469.21094.08984.1953.1211.1836.14843.17188.17579.30078.41796.24219.4961.18359.54687.10937.57813.03907.58984-.03907.59375-.10937.58594-.1836.55078-.24218.5039-.30078.4297-.17188.17968-.1836.15235-.1953.12109-.21094.09375-.21875.05469-.22656.01953-.23047-.01953-.21875-.0547-.20704-.09374-.19921-.1211-.1836-.15234-.17187-.17969-.30078-.42968-.2422-.50391-.17968-.55078-.11328-.58594-.03906-.59375h.83594l.02734.5625.08203.50781.125.44141.16406.375.1914.30078.21095.22266.22265.13672.22656.04687.22657-.04687.22265-.13672.21094-.22266.1875-.30078.16406-.375.125-.4414.08204-.50782.03125-.5625-.03125-.5586-.08204-.5039-.125-.4336-.16406-.36718-.1875-.29297-.21094-.21094-.22265-.1328-.22656-.04298-.22657.04297-.22265.13281-.21094.21094-.1914.29297-.16407.36719-.125.4336-.08203.5039-.02735.5586h-.83593l.03906-.58985.11328-.57813.17969-.54687.24219-.4961.30078-.41796.17187-.17579.1836-.14843.19921-.1211.20704-.08984.21875-.05469.23046-.01953m5.08985 0h.50781v6.29297h-.78515v-4.48828h-1.39063v-.55469l.5625-.0664.25-.0547.23047-.08984.20312-.14062.17579-.21094.14062-.29297.10547-.39453m2.82422 2.17578h.78515l.01954-.3164.05859-.28907.10156-.25.14063-.21484.17968-.17578.22266-.1289.26563-.07813.30859-.02735.23828.01953.22266.0625.20312.10157.17969.13671.14844.17579.11328.20312.07422.23828.02343.26563-.01953.26562-.0664.22656-.10938.19141-.15625.17188-.20312.16015-.2461.16797-.63281.38672-.53906.3164-.4375.31641-.34375.32422-.26563.33594-.1914.35156-.125.36719-.06641.39453-.02344.41797h4.21485v-.73828h-3.33594l.08594-.28516.11328-.23828.14844-.19922.1875-.17969.23046-.17187.27735-.17578.71875-.41797.41406-.20313.34375-.23437.28125-.25.22266-.26563.16015-.27734.11328-.28516.0625-.28515.01954-.28125-.03907-.38281-.1211-.34766-.1914-.3086-.25-.26171-.30078-.21485-.34375-.15625-.38281-.10156-.40625-.03125-.4336.03125-.39843.09766-.35547.16796-.30469.23438-.25.30469-.1836.375-.11718.44531-.03906.51953"/><path fill="#ffffe0" fill-rule="evenodd" d="M195.27734 348.77734h22.1797v-10.1914h-22.1797v10.1914"/><path fill-rule="evenodd" d="M198.77734 340.41797h.50782v6.29687H198.5v-4.48828h-1.39063v-.5586l.5625-.0625.25-.05468.23047-.08984.20313-.14063.17578-.21094.14063-.29296.10546-.39844m4.8125 0l.23047.01953.21875.0586.20703.08984.19922.11719.1836.15234.17187.17578.30078.41797.24219.49219.17969.54687.11328.58203.03906.58985-.03906.59375-.11328.58203-.17969.55469-.24219.5039-.30078.42578-.17187.17969-.1836.15234-.19922.125-.20703.09375-.21875.0547-.23047.01952-.22656-.01953-.21875-.05469-.21094-.09375-.1953-.125-.1836-.15234-.17188-.17969-.30078-.42578-.24219-.5039-.18359-.5547-.10938-.58202-.03906-.59375h.83203l.03125.5625.08203.5078.125.44142.16407.375.1875.30078.21094.21875.22265.13671.22656.04688.22657-.04688.22265-.13671.21094-.21875.1914-.30079.16407-.375.125-.4414.08203-.50781.02734-.5625-.02734-.5625-.08203-.5-.125-.4336-.16406-.36719-.19141-.29296-.21094-.21485-.22265-.1289-.22657-.04688-.22656.04688-.22266.1289-.21093.21485-.1875.29296-.16406.3672-.125.43359-.08204.5-.03125.5625h-.83203l.03906-.58985.10938-.58203.1836-.54687.24218-.4922.30078-.41796.17188-.17578.1836-.15235.1953-.11718.21094-.08985.21875-.05859.22656-.01953m5.09375 0h.50782v6.29687h-.78516v-4.48828h-1.39063v-.5586l.5625-.0625.25-.05468.23047-.08984.20313-.14063.17187-.21094.14453-.29296.10547-.39844m2.82422 2.17578h.78516l.01953-.3164.0586-.28516.10156-.2539.13672-.21485.18359-.17188.22266-.1289.26562-.08204.3086-.02734.23827.02344.22266.0625.20313.10156.17968.13672.14844.17578.11328.20313.07031.23828.02735.26172-.02344.26953-.0664.22656-.10938.1914-.15234.17188-.20313.16016-.2461.16797-.6328.38671-.53907.3125-.4375.31641-.34765.32422-.26172.33594-.1914.35156-.125.3711-.07032.39452-.01953.41797h4.21094v-.74218h-3.33204l.08203-.28125.1172-.23829.14452-.20312.1875-.17969.23047-.17187.28125-.17578.71485-.41407.41797-.20703.34375-.23047.28125-.25.21875-.26953.16406-.27734.11328-.28125.0625-.28516.01953-.28125-.04297-.38672-.11719-.34765-.1914-.30469-.25-.26563-.30078-.21093-.34766-.16016-.3789-.09765-.40626-.03516-.4375.03515-.39843.09766-.35157.16797-.30468.23438-.25.30468-.1836.3711-.11719.44921-.03906.51563"/></g></defs><use xlink:href="#ao"/></svg>