<svg xmlns="http://www.w3.org/2000/svg" role="img" xmlns:xlink="http://www.w3.org/1999/xlink" viewBox="142.45 309.95 326.84 171.84"><defs><clipPath id="a"><path d="M144 311.67188h1v168.65625h-1zm0 0"/></clipPath><clipPath id="b"><path d="M144 311.67188h324v168.65625H144zm0 0"/></clipPath><clipPath id="c"><path d="M467 311.67188h1v168.65625h-1zm0 0"/></clipPath><clipPath id="d"><path d="M144 478h4v2.32813h-4zm0 0"/></clipPath><clipPath id="e"><path d="M146 479h2v1.32813h-2zm0 0"/></clipPath><clipPath id="f"><path d="M153 480h9v.32813h-9zm0 0"/></clipPath><clipPath id="g"><path d="M159 480h2v.32813h-2zm0 0"/></clipPath><clipPath id="h"><path d="M166 479h9v1.32813h-9zm0 0"/></clipPath><clipPath id="i"><path d="M172 480h2v.32813h-2zm0 0"/></clipPath><clipPath id="j"><path d="M180 479h8v1.32813h-8zm0 0"/></clipPath><clipPath id="k"><path d="M186 480h1v.32813h-1zm0 0"/></clipPath><clipPath id="l"><path d="M193 479h8v1.32813h-8zm0 0"/></clipPath><clipPath id="m"><path d="M199 480h2v.32813h-2zm0 0"/></clipPath><clipPath id="n"><path d="M206 479h9v1.32813h-9zm0 0"/></clipPath><clipPath id="o"><path d="M212 480h2v.32813h-2zm0 0"/></clipPath><clipPath id="p"><path d="M220 479h8v1.32813h-8zm0 0"/></clipPath><clipPath id="q"><path d="M227 480h2v.32813h-2zm0 0"/></clipPath><clipPath id="r"><path d="M233 479h8v1.32813h-8zm0 0"/></clipPath><clipPath id="s"><path d="M240 480h2v.32813h-2zm0 0"/></clipPath><clipPath id="t"><path d="M246 479h9v1.32813h-9zm0 0"/></clipPath><clipPath id="u"><path d="M253 479h3v1.32813h-3zm0 0"/></clipPath><clipPath id="v"><path d="M260 478h8v2.32813h-8zm0 0"/></clipPath><clipPath id="w"><path d="M266 478h4v2.32813h-4zm0 0"/></clipPath><clipPath id="x"><path d="M265 479h3v1.32813h-3zm0 0"/></clipPath><clipPath id="y"><path d="M273 479h8v1.32813h-8zm0 0"/></clipPath><clipPath id="z"><path d="M279 480h2v.32813h-2zm0 0"/></clipPath><clipPath id="A"><path d="M287 477h7v3.32813h-7zm0 0"/></clipPath><clipPath id="B"><path d="M301 477h6v3.32813h-6zm0 0"/></clipPath><clipPath id="C"><path d="M316 476h2v4.32813h-2zm0 0"/></clipPath><clipPath id="D"><path d="M329 476h3v4.32813h-3zm0 0"/></clipPath><clipPath id="E"><path d="M340 478h8v2.32813h-8zm0 0"/></clipPath><clipPath id="F"><path d="M354 477h6v3.32813h-6zm0 0"/></clipPath><clipPath id="G"><path d="M369 476h3v4.32813h-3zm0 0"/></clipPath><clipPath id="H"><path d="M380 478h8v2.32813h-8zm0 0"/></clipPath><clipPath id="I"><path d="M393 479h8v1.32813h-8zm0 0"/></clipPath><clipPath id="J"><path d="M393 478h2v2.32813h-2zm0 0"/></clipPath><clipPath id="K"><path d="M409 476h2v4.32813h-2zm0 0"/></clipPath><clipPath id="L"><path d="M422 476h3v4.32813h-3zm0 0"/></clipPath><clipPath id="M"><path d="M436 476h2v4.32813h-2zm0 0"/></clipPath><clipPath id="N"><path d="M447 477h6v3.32813h-6zm0 0"/></clipPath><clipPath id="O"><path d="M462 476h3v4.32813h-3zm0 0"/></clipPath><clipPath id="P"><path d="M144 465h4v4h-4zm0 0"/></clipPath><clipPath id="Q"><path d="M144 453h4v2h-4zm0 0"/></clipPath><clipPath id="R"><path d="M144 438h4v5h-4zm0 0"/></clipPath><clipPath id="S"><path d="M144 425h4v4h-4zm0 0"/></clipPath><clipPath id="T"><path d="M466 425h2v3h-2zm0 0"/></clipPath><clipPath id="U"><path d="M144 413h4v2h-4zm0 0"/></clipPath><clipPath id="V"><path d="M465 410h3v2h-3zm0 0"/></clipPath><clipPath id="W"><path d="M144 399h4v3h-4zm0 0"/></clipPath><clipPath id="X"><path d="M465 397h3v2h-3zm0 0"/></clipPath><clipPath id="Y"><path d="M144 385h4v4h-4zm0 0"/></clipPath><clipPath id="Z"><path d="M144 370h1v8h-1zm0 0"/></clipPath><clipPath id="aa"><path d="M144 370h2v2h-2zm0 0"/></clipPath><clipPath id="ab"><path d="M144 356h2v8h-2zm0 0"/></clipPath><clipPath id="ac"><path d="M144 356h1v3h-1zm0 0"/></clipPath><clipPath id="ad"><path d="M144 343h1v8h-1zm0 0"/></clipPath><clipPath id="ae"><path d="M144 343h2v2h-2zm0 0"/></clipPath><clipPath id="af"><path d="M465 344h3v2h-3zm0 0"/></clipPath><clipPath id="ag"><path d="M144 330h2v8h-2zm0 0"/></clipPath><clipPath id="ah"><path d="M466 331h2v3h-2zm0 0"/></clipPath><clipPath id="ai"><path d="M465 332h3v2h-3zm0 0"/></clipPath><clipPath id="aj"><path d="M144 317h2v7h-2zm0 0"/></clipPath><clipPath id="ak"><path d="M465 317h3v2h-3zm0 0"/></clipPath><g id="al" clip-path="url(#clip1)"><path fill="#fff" fill-opacity="0" fill-rule="evenodd" d="M0 0h1000v1000H0zm0 0"/><path fill="#d3d3d3" fill-opacity="0" fill-rule="evenodd" d="M162.15234 355.86719l-.23437.29297.0586.23437.11718.17188.17578.23437.29297.34766.11328.0586.11719-.17188.0586-.23438.17577-.17578.46485-.17578h.69922l.23437.29297.28906.8164.0586.17579.17578.23046.35156.23438.69922.69922.17188.17578.23437.34765.23438.41016.28906.58203.41015.46485.23047.23437.23438.17578.11719.23047.17578.29297.17187 1.16406v.23438l.0586.28906.05859.11719.11719.11719.34765.41015.11719.17188.17578.17578.17578.23437.11719.17188.17188.35156.05859.23438.23437.40625.23438-.0586-.17578.17578-.0586.92969h-.58203l-.23437-.11328-.34766.11328-.11719.11719-.05859.29297-.0586.17578-.11718.17187-.46484.29297-.0586.23438-.0586.11328v.64453l.0586.17187v.41016l.0586.0586v.40624l.05859.40625.11719.17579.05859.05859.23047.64062-.0586.29297v.69922l-.05859.58203v.23438l-.0586.23047-.05468.35156v1.92187l.05469.1172h.42578l-.36719.11718-.02344.35156.89063 1.16797 1.74219.53906 1.33984.35938v.53906l.08984.8086.53516.71484 1.51953.26953.89063-.08594.08984 1.16406.53516.1797 1.16015-.1797 2.05469-.98437 1.16016-.36328 1.8789-.17578 1.69531-.1797-.17968.71876-1.51563.08594-1.25.08984-.80469.26953-1.07421.8086.26953.71875.53515.89843-.17968.625-.26563.8086.26563 1.07812.625.89844.80468.17969 1.25-.1797-.26562.72267.09766.5039.05468.29297v.17188l.0586.29296v.40625l.17578.1172.35156.11718h.40625l.29297-.17578.11328-.11719.0586-.11719.11718-.23047.0586-.17578.35156-.46484.23047-.17578.17578-.0586.17578.0586.0586.17578.11718.98828.05469.46875.0586.17188.11718.23437.17578.0586.8164.05859h.28907l.11719.23437.05859.40625.0586.35156v1.10547l.11718.29297.11719.34766.28906.69922.17578.35156.58203.7539.35157.17579.17187.0586.46875.23437.64063.46484.34765.23438.29297.17578.29297.05468.23047.0625.8164.34766.29297.17578.11328.17188.35157.35156.11719.17578.52343.64063v.28906l.0586.35156v.34766l.05859.35156.0586.28906.11718.0586.17188.05859h.17578l.58203.23437.17578.1172.17578.28905.17578.23438.11328.23437.29297.23047.11719.11719v.41016l.0586.05468.28906.23438.23437.11719.0586.11718.11718.17188.0586.11719.23047.23437.05859.17578.23437.0586.1172.05859-.1172.11328-.05859.11719v.11719l-.11719.29296-.11719.28907v.58203l.17579.11719.11718.05859.0586.11719.11719.11719.11328.05859.17578.34765.0586.35157.05858.40625v.17578l-.05859.17578-.11719.69922v.17187l.1172.17579.29296.29296h.40625l.17578.1172.11719.17187.11719.29296v.23438h-.52735l-.23047-.23438h-.23437l-.17578.0586-.0586.69922.0586.34765.11719.17579.17578.41015.11718.23047.28907.46875.17578.05469h.52344l.23437.0586.75781.64062.0586.29296v.23438l.05859.0586.23047.34765v.35156l-.11719.17188v.29297l.29297.28906.29297.17578.17187.0586.29297.17577.29297.1172.58203.40624.28906.23438.29297.17578.21875.16015.01563.01172.23047.17579.64062.52343.17578.23438.1172.17578.17577.17578.11328.17188v.64062l.1172.17578.46874.11719.58203.11719.23438.05859.23047.11328.29297.11719.11328.0586.58593.35156.28907.17187.17578.0625.17578.05469.17578.0586.69922.35155.28906.17579.23438.05468.28906.17578.23437.1172.64063.40624.29297.11719.17187.0586.23438.05859.41015.05859.23047.0586.23438.11718.0586.17188-.41017.17578.46875.0586.0586.29296.11328.23438.17578.05468.23438.0586.17578.05859.40625.11719.64062.23437.11719.17188.0586.23437v.17578l-.0586.1172-.0586.40624.23438.23438.11719.05859.34766.11719.64062.23047.17578.11718.28906.1172.17578.17577.23438.46485.58203 1.10546.17578.17579.34766.17578.17578.11719.35156.11718 1.04688.52344.23437.0586.46485.11327.29297.0586.46484.17578.75781.58203.23438.23438.34765.46484.17578.17578.28907.23438.8164.69921.29297.17579.28906.28906.29297.17578.29297.28906.69531.64063.17578.17578.29297.23437.28907.23438.46875.28906.64062.58203.34766.23438.23437.29297.34766.34765.35156.46485.9336.99218.34765.40625.11719.17579.23437.05859.11328.11719.64454.17578.23047.11328.23437.0586.29297.17577.23047.1172.9336.69921.40624.40625.23438.17578.40625.17578.23437.11719.8164.34766.34766.23437.23438.11719.29297.28906.23047.11719.7578.35156.35157.17188.23047.05859.29297.11719.23437.0586.8711.17577h.8164l.46875.23047.17188.0586.875.69921.46484.1172.29297.05858.17578.0586.23047.0586.46875.05859.34766.05859.35156.0586.40625.05859h.29297l.17187.0586v.23046l.17578.17578h.29297l.34766.0586.35156.05859.69922.11719h.64063l.46484-.23438.29297-.17578.17187-.11719.41016-.17187.28906-.17578.9336-.46485.46875-.29297.52343-.29296.46485-.17188.46484-.17578 1.05078-.46485.28906-.11718.41016-.11719.28906-.11719.52735-.17578 1.51562-.69922.58203-.34765.28907-.0586.29297-.0586.34765-.11718.875-.23047.35156-.11719h.11329l.23437-.05859.875-.23437.23438-.0586h.8125l.35156-.0586.8164-.11718.17188-.0586.35156-.05468.29297-.0586.23047-.05859.8164-.17578.17579-.0586h.34765l.23438-.05859.46484-.11718.75781-.17188.23438-.0586h.34765l.41016-.11718.28906-.0586 1.28516-.05859h.28906l.41016-.0586.23047-.05858h.17578l.875-.1172h.40625l.41015-.11718h.34766l.35156-.11328.8711-.0586h1.75l1.04687.28907.41016.11719.28906.11718.35156.11719.28907.11719 1.05078.17187.28906.0586h.29297l.29297.05859.17187.0586.41016.05859.17187.0586.1172.05858h.11718l.11719.0586.35156.0586h.11328l.41016.0664 1.92187.39453 1.92578.39453 1.51953.44922 1.69532.71875 2.14453.80469 1.60547-.71875 1.42968-.80469 1.16016-1.07813 1.25-.44921 3.03516-.71875 1.875-.35938 2.14453-1.34765 2.23437-1.25391 2.5-1.25781 1.69531-.44922 1.78516-.17969 1.16016-.26953.625.53906 1.33984-.26953.71485-.98828.98437-1.34375.44531-.17969.80469-.35937 1.875-.53907 1.78516-.44921 1.25-.26954 1.16015-.08984 1.69922-.08984 1.96094-.26954 1.25-.08984h.53906l.625-.08984h.89063l2.14453-.17969 2.41015-.17969 2.58985-.08984 1.69531.17969 1.60938.08984 1.42968.35938 1.16016.71875 1.875.98828 1.16015 1.52734.26563.71484.6289.08985.35548.89844.53515.53906.53516 1.52734 1.07422.35938h.53515l-.80469.53515.08985 1.70703.71484 2.69532.89063.80468.89453.98829.71484 1.2578 1.78516.53907 1.51953-.17969.35547 1.34375 1.60937-.80469.98047-.53906.26953.26953.31641-.21484.21875-.14453.80078.44922.44922-.35938h.35547l.53515-.26953.53907-.71875.53515-.26953.625-.98828 1.16016.44922.83984.3711 1.39454.61718 1.6953-.17969h1.60548l1.78515.08985.17969-1.70704.53516-1.34375.80468.26954.4922.84765.40233.40625-.08984.53906v.35938l.71485.44922.71093-.26953h1.42969l.35938.98828.4453 1.25781.71485 1.34375 1.25.6289 1.69531.62891.71485-.17969.17969-.53906.98046-.08984.44922.35937.08594 1.25782-.26563.6289-.53515.17969v.53906l.71484.98438.26563.53906.98437.98828.80078 1.07813-.26562.35937-.08985.89844-.625 2.33203-.35546 2.0664-.08985 1.79298-.17969.71875-.08984.53906v1.4375l-.98047 1.88281-.35937 1.70703-.53516.89844-.80469 1.16797-.26562.53906 2.05469 1.2539.08593.35938-.35546.53906-.08985-.17968v.80859l.08985 1.4375-.44532.71484-1.07422.09375-.26562.71485.53515.89844.8047.71875 1.16015.80859 1.33984.26953.44531.35938-.35546.44921-1.78907-.08984-1.25-.44922-.71484-.71875-.625-.08984-.17578 3.58984-.1875 1.3086h89.35937V311.70313h-55.26953v49.08203l.76172.125 3.28906.54296 2.02344 2.83594v2.7539l2.35156.33204 2.34766.33203h4.05078l-1.3789 4.16016-2.02344.70703-2.02344.70312-.54297.34375-2.59375 1.6172-.1875.11718-2.02344-2.07813-.73046-2.74218-2.67188-2.07813-1.375-3.5-.0664-.08203-1.95704-2.67188 2.75-1.41796v-49.08204H294.42187v91.41407l.1172.03125.1328.01172.07422.07421.10547.04688.08985.0586.08593.05859.08985.0586.29687.29687.0586.08984.03125.11719.02734.11719.01563.13671-.03125.1172-.0586.08983-.0586.08594-.04296.10547-.04688.10156-.02734.1211v.14453l.17578.26953.14844.14844.07422.08594.07422.07421.04296.10547.0625.08985.0586.08593.04297.10547.0586.08985.04687.10156.04296.10547.0586.08594.11719.17968.07421.07422.0625.08594.0586.08984.04297.10547.0586.08985.05858.08593.0625.08985.0586.08984.04297.10156.11719.17969.07421.07422.0586.08594.07422.07421.08984.0586.10547.04687h.14844l.1328-.01562.13282.01562.10156-.04687.07422-.07422.04688-.10156-.01563-.13281v-.14844l-.04687-.10547-.02735-.11719-.04687-.10156-.02735-.1211-.04296-.10156-.0625-.08984-.04297-.10156-.04297-.10547-.03125-.11719-.01563-.13281-.01171-.13672.08593-.0586.0586-.08593.12109-.03125.04297.10547.01562.1328v.1172l.0586.10156.0586.08984.08983.0586.14844.14843.0586.08985.04296.10547-.01171.10156.08593.0586.10547.04687.08594.0586.08984.05858.07422.07422-.11719.02735-.10546.04687-.08594.0586-.07422.07421-.0586.08985-.0625.08594-.02734.12109-.04687.10156-.04297.10547-.03125.11719-.01172.13281-.01563.13281v.14844l.02735.11719.04687.10547.04297.10156.0586.08984.07421.07422.08985.0586.07422.07421.08984.0586.0586.08984.04296.10547.04688.10156.11719.03125.1328.01563h.14845l.11718-.03125.10547.04297.04297.10547.04688.10156.02734.1211L299.5 410l.02734.11719.03125.1211.02735.11718.10547.04297.10156.04687.13281-.01562.14844.14844.0625.08593.07422.07422.07031.07422.08984.0625.10547.04297.10156.04297.1172.03125.13671.01562.11719-.03125.07422-.07422.02734-.11718-.01172-.13282-.03125-.12109-.02734-.11719.04297-.10547h.11719l.08984.0625.11719.02735h.14843l.13282.01562h.14843l.13282.01563.1328-.01563h.14845l.1328-.01562.13282-.01172.13672.01172.11719-.02735.13281-.01562.1914-.0586-.05859.17579-.01562.1328-.02735.1211-.01562.13281-.0586.08594-.1328.01563-.10548.04687-.10546.04297-.1172.03125-.11718.02735-.26563.03125h-.14843l-.13281.01562-.07422.07422.05859.08594.14844.14843.11719.1797.07421.0703.08985.0625.08984.0586.08594.0586.08984.05858.10156.04297.10547.0625.10547.04297.08594.0586.10547.04687.10156.04297.17969.11719.0586.08984-.04298.10156-.04687.10547.01562.13281.22266.22266.0586.08985.04296.10156.03125.1211.04297.10155.01563.13282.03125.11718.01171.13672.03125.11719.14844.14844.10156.04297.10547.04296.1172.03125.1328.01563.13672.01563h.11719l.11719-.03125.08984-.0586.04297-.10547.04688-.10156.04296-.10547.03125-.11719.01172-.1328v-.14845l-.01172-.1328-.01562-.13282-.03125-.11719-.04297-.10547-.04688-.10547-.04296-.10156-.04297-.10547-.01563-.13281.01563-.13281.02734-.11719.03125-.11719.02735-.1211.04687-.10155.08984-.0586.08594-.0625.07422-.07422.08984-.05859.22266-.22266.0586-.08593.07421-.07422.11719-.17969.0586-.08594v-.14844l-.07423-.07421-.10156-.04688-.10547-.04297-.10156-.04297-.0586-.08984-.04687-.10547-.02734-.11719.08984-.05859.11719-.03125.10156-.04297.17969-.11719.14844-.14843.01172-.13282-.01172-.10546-.08985-.0586-.1328.01563h-.14845l-.1328.01562-.13282-.01562-.1211-.03125-.08593-.0586-.07422-.07422-.0586-.08984-.0625-.08594-.11718-.17969-.0586-.08593.03125-.1211.08594-.05859.1211-.03125.05859-.08594v-.1211l-.03125-.11718-.0586-.08984-.05859-.08594-.04687-.10547-.02735-.11719-.01562-.1328.0586-.08985.07421-.07422.08984-.0586.1172-.17968.07421-.07422.0586-.08594.14843-.14844.1211-.03125.1328-.01562.13282.01562.07422.07422.04297.10547.01562.13281-.03125.1172-.11719.03124-.1328.01172-.14844.14844-.04297.10547-.04688.10156-.02734.1211-.03125.11718v.14844l.03125.11719.04297.10546.05859.08985.07422.07031.07422.07422.11719.03125.12109.02734.11719-.02734.1328-.01563h.1172l.08984.0586.07422.07422.04687.10546.0586.08594.10156.04688.13281.01562.10547.04297.08594.0586-.01172.10546-.07422.07422-.17969.11719-.05859.08984-.08984.0586-.07032.07422-.07421.07421-.0625.08985-.02735.11719-.01562.1328.01562.13282-.01562.13281v.14844l.01562.13281.02735.1172.03125.12108.07421.07422.08985.0586.08594.0586.08984.05858.11719.03125v.08594l-.10157.04688-.08984.0586-.26563.03124-.11718.02735h-.14844l-.10547.04296-.10156.04688-.0586.08984-.0625.23438-.01171.13281-.03125.1211-.01563.1328v.29298l-.01172.1328.01172.13673.01563.1328.1328.01563.13282.01172.1211.03125.08593.0586.07422.07421.04688.10547.04296.10157.01563.1328v.44532l-.01563.13281v.44532l.03125.26562.02735.11719.01562.13281.03125.11719.08594.21094.03125.26562v.14844l-.03125.11719-.02734.11718-.03125.1211-.02735.11719-.03125.11718-.03125.1211-.01171.1328-.01563.13282.08984.0586.1172-.03125.10155.01562.04688.10547-.03125.26562v.44141l-.04297.10547-.04688.10547-.04296.10156-.04297.10547-.0586.08594-.03125.12109-.04296.11719-.03125.11719-.01563.1328.01563.13282.05859.08984.10547.04688.08594.0586.05859.08593-.01172.13672-.03125.11719-.04297.10156v.44531l-.01562.13281v.14844l-.03125.11719-.04297.10547-.02735.11719-.04687.10546-.04297.10157-.03125.12109-.02734.11719-.03125.13281-.03125.11719-.02735.11719-.04297.10546-.03125.1172-.03125.12108-.01171.13282-.01563.13281v.29688l.02734.11718v.14844l.04688.39844.02734.11719.0586.08984.12109.03125h.14844l.13281-.01563.0586.08985v.11719l-.0586.08984-.08984.0586-.10157.04296-.10546.04688-.08985.05859-.08594.0586-.13671.01562-.1172-.03125-.1328-.01563-.10157.04688-.0625.08594-.01172.13671-.01562.13282-.03125.11719-.02735.11718-.01562.13281-.03125.1211v.29687l.01563.13282.03125.11718v.14844l.01171.13281v.14844l-.02734.11719-.04688.10156-.02734.1211-.03125.11718-.0586.08985-.07421.07421-.10156.04297-.10547.04688-.11719.02734-.1211.03125-.10156-.04687.0586-.08594.10547-.04688.02734-.11718.03125-.11719.02734-.1211.03125-.11718v-.14844l.01563-.13281-.03125-.11719-.04297-.10547-.10547.01563-.07422.07422-.10156.04296-.08984.0625-.07422.07422-.04297.10157-.01563.1328-.03125.1172L304.25 426l-.03125.11719-.02734.11719-.03125.12109-.02735.11719-.03125.11718-.04297.10547-.08984.0586h-.08984l-.1172-.03125-.03124-.08594.01562-.13672-.03125-.11719v-.14844l-.01171-.1328v-.14844l-.0625-.23438-.02735-.1211-.04297-.10156-.04687-.10546-.0586-.08594-.05859-.08985-.04297-.10546-.0625-.08594-.14844-.14844-.0703-.07422-.10548-.04687-.10547-.04297-.10156-.04297-.29687-.29688-.08985-.07421-.08594-.0586-.10546-.04297-.08985-.0625-.08594-.0586-.10546-.04296-.08985-.0586-.08594-.0625-.07421-.0703-.10547-.04688-.08594-.0586-.10547-.04296-.08984-.0625-.10156-.04297-.10547-.04297-.08594-.0586-.10547-.04687-.10547-.04297-.10156-.04687-.08985-.0586-.10156-.04297-.10547-.04296-.08984-.0625-.11719-.02735-.13281-.01562-.13281.01562H299.75l-.13281.01563-.11719-.03125-.08984-.0586-.07422-.07422-.08985-.05859-.10156-.04688h-.14844l-.12109-.02734-.10156-.04297-.07422-.07422-.11719-.17968-.08984-.0586-.10156-.04297-.08985-.0625-.10547-.04296-.08984-.0586-.08594-.0586-.10547-.04687-.0586-.08594-.05858-.08984-.04297-.10547-.04688-.10156-.07422-.07422-.08594-.0586-.07421-.07421-.08985-.0586-.22265-.22265-.04297-.10547-.03125-.26563.10547-.04296h.14453l.10547.04296.07421.07422.08985.0586.08594.0586.10546.04687.08985.05859.14844.14844.0703.07422.14845.14843.0625.08594.07421.07422.08594.0586.07422.07421.08985.0625.08984.0586.08594.05859.26953.17578.10156.04688.10547.04296.10156.04297.04688-.07421.05859-.08594.07422-.07422.07031-.07422.10547.04297.07422.07422.0586.08984.04296.10156.04688.10547.04296.10547.1211.02735.11719-.02735.07421-.08984.04297-.10547.0586-.08985.07422-.07421.10546-.04297.1172-.02735.1328.01172.08985.0586.14844.14843.05859.08985.04297.10547.04687.10156.04297.10547.04297.10156.10547.04688.10547.04296.13281.01563.08594-.0586.0586-.08984.07421-.07422.10547-.04297.11719.02735.10547.04687.10156.04297.10547.04297.10156.04688.17969.11718v.11719l-.01563.13281.01563.13281.01562.13672.0586.08594.10156.04688.1211.02734.11718.03125h.14844l.11719-.03125.05859-.08984.17969-.1172.05859-.08983.07422-.07422.0586-.08594.11718-.17969.17969-.11719.11719.03125.08984.0586.04297.07422-.01563.1328v.1172l.08985.05859h.14843l.13282-.01563.1328-.01171.26563-.03125.10547-.04297.11719-.03125.1211-.02735.07421-.07421.07031-.07422.0625-.08985-.01562-.10547-.04688-.10156-.10156-.04297-.10547-.01562-.11718.02734-.26563.03125h-.14844l-.07421-.07422-.08985-.0586-.11719-.03124-.11718-.02735-.13282-.01562h-.14843l-.13282.01563h-.29687l-.10547-.04688-.14844-.14844-.04297-.10156-.05859-.08984.22266-.22266.08593-.0586.10547-.04296.11719-.03125.13281-.01563.13281.01563.13672.01562.10157.04297.1328-.01172.08985-.0625.10156-.04297.0625-.08984-.04687-.10156-.08984-.0586-.1172-.03125-.10155-.04296-.0586-.08985-.0625-.08984v-.11719l.01563-.13281.10547-.04688.07421-.07031v-.1211l-.08984-.05859-.03125-.11719.08985-.05859.07421-.07422.04297-.10547.0586-.08984.04687-.10156.01563-.13281v-.14844l-.04688-.10547-.04297-.10156-.08984-.0586-.13281-.01562-.10157-.04297-.13671-.01563-.1172-.03125h-.4453l-.13282-.01562-.13281-.01172-.13281-.01563-.11719-.03125h-.14844l-.13281-.01562-.13281-.01172-.26563-.03125-.1211-.04297-.08593-.0586-.07422-.07421v-.14844l.01172-.13281.10547-.04688.10156-.04296.13281-.01563h.15235l.13281-.01562h.29297l.1211.03125.10156.04296.08984.0586.23438.0625.12109-.04688.08984-.05859.10156-.04297.13282-.01562.10547.04296.10156.04688.13281.01172.1211-.02735h.14453l.12109-.03125.11719-.02734.10547-.04687.07421-.07422.08594-.0586.14844-.14843.0586-.08594.04687-.10547.02734-.11719.01563-.10547-.10156-.04296-.08985-.0586-.11719-.03125-.10546-.04297-.08985-.0625-.07422-.08594-.07422-.07421-.10156-.04297-.10547-.04688-.10156-.04297-.0586-.08984-.04687-.10156-.08594-.21094-.0625-.08594-.05859-.08984-.07422-.07422-.08594-.0586h-.26953l-.11719.03126-.08984.05859-.10156.04297-.13281.01562-.10547-.01562-.02735-.11719-.0625-.08984-.11718-.03125-.10157-.04297-.14843-.14844-.03125-.11719-.01563-.10546.07422-.07422.17969-.1172.11719-.02733.11718-.03125.13672.01562.10156.04297.10547.04297.10156.04687.10547.04297.1172.03125.1328.01563.1172.02734.1328.01563.10547-.01563.08985-.0586-.07422-.07421-.10547-.04297-.07422-.07422-.07422-.08984-.14844-.14844-.08593-.0586-.08985-.05859-.07422-.07422-.08984-.0586-.10156-.04687-.1211-.02734-.10156-.04688-.10547-.04296-.11719-.03125-.10156-.04297-.1211-.03125h-.14843l-.11719.03125-.10546.04297-.08594.0625-.17969.11718-.08594.0586-.08984.0586-.10547.04687-.08594.05859-.10547.04297-.10156.04297-.10547.04687-.07422.07422-.05859.08985-.0586.08593-.04687.10547-.0586.08594-.07421.07422-.13281-.01172-.1172-.03125h-.11718l-.07422.07422-.08984.0586-.07422.07421-.08984.0586-.08594.05859-.10547.04687-.10156.04297-.13672.01563-.10156-.04297-.14844-.14844-.10547-.04688h-.08594l-.10547.04688-.10156.04297-.1211.03125-.11718-.03125-.07422-.07422v-.11719l.03125-.1211.07422-.0703.0586-.08985.07421-.07422.11719-.03125.10547-.04296h.29297l.13281-.01563.13672-.01563.10156-.04296.08985-.0586.10156-.04687.08984-.0586.13281-.01171.08985.05859.13281.01172.08984-.0586.08594-.05859.10547-.04297.08984-.0586.08594-.0625.08985-.05859.14843-.14843.0586-.08594.05859-.08985.10547-.04296.13281-.01563.11719.02735.1211.03125.05859-.0586.05859-.08984.03125-.26563.02734-.11719.10547.01172.13281.01563.10157-.04297.08984-.0586.0586-.08984.07421-.07422.0586-.08984.04687-.10156.01172-.13281-.01172-.13282-.04687-.10547-.14844-.14843-.0586-.08985-.05859-.08594-.04297-.10546v-.44532l.01563-.1328v-.14845l.01172-.1328-.0586-.0586-.08984.0586-.10156-.04298-.17969-.11719-.08594-.05859-.0625-.08984-.0586-.08985-.07421-.07421-.08594-.0586-.1211.03125-.10155.01172-.10547.04688-.08594.05859-.10547.04297-.14844.14844-.08984.05859-.08594.0586-.08984.0625-.10547.04296-.13281.01563v-.1211l.10547-.04297.11718-.03125.07422-.0703.04297-.10548v-.14844l-.02734-.11718-.14844-.14844-.13281-.01563h-.14844l-.11719.03125-.10547.04297-.10156.04297-.08984.0625-.11719.02735-.07422-.07422.01172-.13281-.04297-.10157-.04297-.10547-.08984-.05859-.11719.02734-.1211.03125-.11718.03125-.10156.04297-.1211.03125-.10156.04297-.10547.04297-.08984.0586-.10156.01562v-.11719l.01562-.13281-.0586-.08985-.07421.04297-.14844.14844-.0586.08985-.07421.07421-.04688.10547-.04296.10156-.07422.07422-.0586.08985-.07422.07422-.05859.08593-.07422.07422-.08984.0625-.07422.07031-.07422.07422-.10156.01563-.13281.01562-.10547-.04296v-.1211l.14843-.14844.04297-.10156.0586-.08984.04687-.10156.04297-.10547.0586-.08985.03124-.11719.04297-.10156.03125-.1211.02735-.11718.04687-.10547.04297-.10156.04297-.10547.07422-.07031.08984-.0625.08985-.0586.10156-.04296h.29687l.26563-.03125.10547-.04297-.07422-.07422-.11719-.03125-.10547-.04297-.08984-.0586-.10156-.04687-.08985-.0586-.10156-.04296-.10547-.04297-.08984-.0625-.08594-.0586-.10547-.04296-.10156-.04297-.1211-.03125-.11718-.03125-.10157-.04297L297.5 410.25l-.10156-.04297-.08985-.0586-.04296-.10546-.01563-.13281.10156-.04297.13281-.01563.13672.01563.13282-.01563.10156-.04297.0586-.08984.01562-.10547-.08985-.0586-.07421-.07421-.10157-.04297-.08984-.0586-.14844-.14843-.04297-.10547-.01562-.13281v-.29297l-.0586-.08985-.08984-.05859-.07422-.07422-.04297-.10547-.03125-.11718-.0586-.08985-.07421-.07422-.11719-.02734-.07422-.07422-.08984-.0586-.08984-.0625-.08594-.05859-.07422-.07421-.0586-.08594-.04687-.10547-.08594-.0586-.14843-.14843-.19532-.0586-.1328.01563-.10157.04297-.07422.07422-.04688.10156-.04296.10547-.0586.08984-.0586.08594-.29687.29687-.08984.0586h-.08594l-.0625-.08594-.04297-.10547.03125-.11719.0586-.08984.02734-.11719-.01172-.13281-.08984-.0625-.10547.04688-.11719.02734-.11719.03125-.26953.17578-.10156.04688-.11719.02734-.10546.04687-.08985.0586-.10156.04297-.0586-.08594-.04687-.10547.01563-.13281.04687-.10547.07031-.07422.07422-.07031.0586-.08985v-.14843l-.04297-.10547h-.23829l-.10156.04687-.03125.11719-.02734.11719-.03125.1211-.07422.04296-.13281.01563-.07422-.04688-.04297-.10156-.04297-.10547-.04687-.10156-.04297-.10547-.1211.03125-.10156.04297-.13281.01562-.11719.03125-.10547.04297-.08984.0586-.10156.04687-.1211.02734-.13281.01563-.10156-.04297-.0586-.08985-.04687-.10546-.04297-.10157-.04297-.10546v-.1172l.0586-.08984.08593-.05859.17969-.11719.10156-.04687.10547-.04297.10547-.0586.10156-.04296.08985-.0625.10156-.04297.10547-.0586.10156-.04687.08984-.0586.10547-.04296.10156-.04297.08985-.0625.10156-.04297.13672-.01563.11719.03125.10156.04297.1211.03125.10156.04297.10546.04688.10157.04296.10547.04297.10156.04688.10547.04297.10156.04297.10547.04687.08594.0586.10546.04296.1172.03125.10546.04297.10156.04688.08985.0586.10547.04296.10156.04297.10547.04687.11719.02735.10156.04687.1211.02735h.14843l.08594-.0586.01562-.10156.0586-.08984-.02735-.1172-.07422-.07421-.11719-.17969-.07421-.07422-.08985-.07421-.17969-.1172-.08593-.05859-.10547-.04296-.10156-.04688-.26954-.17578-.05859-.08985-.07422-.07421-.0586-.08985-.04296-.10156-.03125-.11719-.01563-.13672v-.5625l-.01171-.1328-.01563-.13282-.03125-.11719-.01562-.13281-.01172-.13281-.03125-.1211-.22266-.22265-.0586-.08594-.01562-.10547.03125-.11719.13281-.01562v-91.41406H172.9922v1.45312l-.0586.23438-.35156 1.05078-.17187.52343-.1172.34766-.17577.41016-.11719.17187-.23438.29297-.23046.0586h-.35157l-.11718.05859-.23047.40625v.29297l.11719.17578.23046.23047.1172.23437.64062.75781.29297.46485.17578.23437.23047.35156.23437.34766.64063.8164.17578.46485.17187.41016.11719.69531.17578.46875.11719 1.39844.0586.46484v.875l.11718 1.04688v4.78125l-.0586.46484-.35156 1.28125-.17578.52344-.11328.41015-.35156.9297L172.93359 336l-.23437.58203-.11719.17578-.17187.34766-.17578.40625-.35157.8164-.0586.29297-.11327.29297-.11719.28906-.0586.17579-.11718.875-.0586.40625-.05859.11718-.0586.17579-.05859.17187-.23047.52734-.11718.17188v.23437l-.11719.23438-.0586.17187-.17577.58594v.28906l-.0586.17579v.29296l-.0586.11329-.05859.52734v.17187l-.05468.23438v2.6211l-.17578.8164-.1172.17578-.17577.23438-.1172.17187-.11327.23438-.58594.93359-.23047.28906-.29297.46485-.17578.23437-.28906.35156-.35156.69922-.11328.23047-.17579.41016-.17578.23046-.40625.52735-.8164.69922-.29297.17187-.28906.23438-.17579.11719-.17578.17578-.52344.40625-.52734.17578-.17187.17578-.23438.05469-.64062.17578h-.75782m12.21094 31.02344l-1.07422.44921.35938.89454 1.25-.71485.44531-.53906-.98047-.08985"/><path fill="#d3d3d3" fill-opacity="0" fill-rule="evenodd" d="M201.50781 416.59766h-.89453l.44922.6289.98047.35938.80469-.08985.4453-.98828-.17577.08985-.71485-.35547-.89453.35547m154.6211 59.0703l-.0586-.52343v-.29297l.11328-.29297.0586-.23046.46875-.46875h.11328l.11719-.11329.11718-.05859h.17579l.23437-.0586h.34766l.23437.0586.11719.0586.23047.17187.0586.17578.11718.58203v.29297l-.11719.17578-.17187.28906-.17579.17579-.52734.52343-.23047.23438-.11719.0586h-.17578l-.11718-.0586-.40625-.29297-.17579-.11719-.11718-.0586-.0586-.11327-.05468-.1172m6.64062-10.95702l-.0586-.17188v-1.10937l.0586-.17188.17578-.0586.17188-.05858h.17578l.23437-.0586.1172.0586.05858.69921-.05859.17188-.11719.17578-.11718.0586-.23438.52343-.11328.0586h-.23438l-.05859-.1172m9.61328-14.39062l-.11719-.17578v-.69922l.29297-.875.1172-.17187.17577-.35156.11328-.23047.1172-.29297.35155-.75781.1172-.23047.17187-.23438h.17578l.11719-.0586h.64062l.11719.0586.23437.23438.17188.11328.35156.29297.11719.11718.11328.17579v.11328l.11719.05859.11718.11719v.69922l-.05859.17578v.23047l-.0586.17578-.34765 1.05078-.11719.23047-.11719.23437-.11718.0586-.23047.23437-.64063.28906h-.875l-.41015-.11718-.64063-.46485"/><path fill="none" stroke="#bebebe" stroke-linecap="round" stroke-linejoin="round" stroke-miterlimit="10" stroke-width=".5" d="M467.95703 311.69531H144.02734v168.625h323.9297v-168.625"/><g clip-path="url(#a)"><path fill="#fff" fill-opacity="0" fill-rule="evenodd" d="M144 475.89063v4.4375h.0039H144V311.67188h.0039H144v164.21875"/></g><g clip-path="url(#b)"><path fill="#fff" fill-opacity="0" fill-rule="evenodd" d="M144.0039 480.32813V311.67188h17.75v132.80468l-.28124.34375.28125.3164.57422-.3164-.57422-.34375V311.67187h48.8203v114.73829l-4.4375.16406-1.13671.4961-3.23047 4.4375 4.36719 3.69921 1.0625.73828 3.375 1.44922 4.4414-1.17187.47266-.27735.80078-4.4375-1.27344-.96875-3.47656-3.46875-.96484-.66015V311.67187h17.7539v116.8672l-2.80468 2.96874 2.80469 2.21875 2.5625-2.21875-2.5625-2.96875V311.67187h13.3164v126.25391l-2.39453 2.45703 2.39453 1.69922 2.25781-1.69922-2.2578-2.45703v-126.2539h44.3828V460.0664l-4.4375.96875-2.64843 1.53906 2.64843 1.89844 1.14844 2.54296 3.28906 2.91407 3.79297-2.91406.64453-3.59766.3125-.84375-.3125-.6875-4.4375-1.82031V311.67187h66.57422v126.85157l-1.64844 1.85937 1.64844 1.66406 2.22656-1.66406-2.22656-1.85937V311.67188h35.50781v132.66796l-1.1875.48047-3.25 3.23047-.47656 1.21094-1.63672 4.4375 2.11329 2.85547 2.7539-2.85547-.64062-4.4375 2.32421-2.35547 2.56641-2.08594-2.5664-.48047V311.67188h79.88671v168.65625H144.00391"/></g><path fill="#50fcfc" fill-rule="evenodd" d="M161.7539 445.13672l-.28124-.3164.28125-.34376.57422.34375-.57422.3164m44.3828-9.92968l-4.36718-3.69922L205 427.07031l1.13672-.4961 4.4375-.16405.96484.66015 3.47656 3.46875 1.27344.96875-.80078 4.4375-.47266.27735-4.4414 1.17187-3.375-1.44922-1.0625-.73828m22.1914-1.48047l-2.80468-2.21875 2.80469-2.96875 2.5625 2.96875-2.5625 2.21875m13.3164 8.35547l-2.39453-1.69922 2.39453-2.45703 2.25781 2.45703-2.2578 1.69922m39.9453 22.39063l-2.64843-1.89844 2.64843-1.53906 4.4375-.96875v5.02734l-.62109 1.92188.6211.55078.71874-.55079-.71875-1.92187v-5.02734l4.4375 1.8203.3125.6875-.3125.84376-.64453 3.59765-3.79297 2.91407-3.28906-2.91406-1.14844-2.54297"/><path fill="#00e8fc" fill-rule="evenodd" d="M286.02734 467.5664l-.62109-.55077.6211-1.92188.71874 1.92188-.71875.55078"/><path fill="#50fcfc" fill-rule="evenodd" d="M352.60156 442.04688l-1.64844-1.66407 1.64844-1.85937 2.22656 1.85937-2.22656 1.66406m31.07031 14.50782l-2.11328-2.85547 1.63672-4.4375.47656-1.21094 3.25-3.23047 1.1875-.48047 2.56641.48047-2.5664 2.08594-2.32422 2.35547.64062 4.4375-2.7539 2.85547"/><g clip-path="url(#c)"><path fill="#fff" fill-opacity="0" fill-rule="evenodd" d="M467.9961 480.32813H468V311.67188h-.0039H468v168.65625h-.0039"/></g><g clip-path="url(#d)"><path fill="none" stroke="#000" stroke-linecap="round" stroke-linejoin="round" stroke-miterlimit="10" stroke-width=".5" d="M147.26953 479.04688l-6.53906 2.5625"/></g><g clip-path="url(#e)"><path fill="none" stroke="#000" stroke-linecap="round" stroke-linejoin="round" stroke-miterlimit="10" stroke-width=".5" d="M146.32031 479.42188l.92969.79687"/></g><g clip-path="url(#f)"><path fill="none" stroke="#000" stroke-linecap="round" stroke-linejoin="round" stroke-miterlimit="10" stroke-width=".5" d="M160.82813 480.34375l-7.02735-.03125"/></g><g clip-path="url(#g)"><path fill="none" stroke="#000" stroke-linecap="round" stroke-linejoin="round" stroke-miterlimit="10" stroke-width=".5" d="M159.80469 480.33984l.57422 1.08594"/></g><g clip-path="url(#h)"><path fill="none" stroke="#000" stroke-linecap="round" stroke-linejoin="round" stroke-miterlimit="10" stroke-width=".5" d="M174.01953 481.2539l-6.78125-1.84765"/></g><g clip-path="url(#i)"><path fill="none" stroke="#000" stroke-linecap="round" stroke-linejoin="round" stroke-miterlimit="10" stroke-width=".5" d="M173.03516 480.98438l.26953 1.1953"/></g><g clip-path="url(#j)"><path fill="none" stroke="#000" stroke-linecap="round" stroke-linejoin="round" stroke-miterlimit="10" stroke-width=".5" d="M187.35938 481.15234l-6.82813-1.64843"/></g><g clip-path="url(#k)"><path fill="none" stroke="#000" stroke-linecap="round" stroke-linejoin="round" stroke-miterlimit="10" stroke-width=".5" d="M186.36719 480.91406l.30469 1.1875"/></g><g clip-path="url(#l)"><path fill="none" stroke="#000" stroke-linecap="round" stroke-linejoin="round" stroke-miterlimit="10" stroke-width=".5" d="M200.6836 481.1289l-6.84376-1.59765"/></g><g clip-path="url(#m)"><path fill="none" stroke="#000" stroke-linecap="round" stroke-linejoin="round" stroke-miterlimit="10" stroke-width=".5" d="M199.6875 480.89453l.3125 1.1875"/></g><g clip-path="url(#n)"><path fill="none" stroke="#000" stroke-linecap="round" stroke-linejoin="round" stroke-miterlimit="10" stroke-width=".5" d="M213.9375 481.34766l-6.72656-2.03907"/></g><g clip-path="url(#o)"><path fill="none" stroke="#000" stroke-linecap="round" stroke-linejoin="round" stroke-miterlimit="10" stroke-width=".5" d="M212.96094 481.05078l.23437 1.20313"/></g><g clip-path="url(#p)"><path fill="none" stroke="#000" stroke-linecap="round" stroke-linejoin="round" stroke-miterlimit="10" stroke-width=".5" d="M227.375 480.78906l-6.96875-.92187"/></g><g clip-path="url(#q)"><path fill="none" stroke="#000" stroke-linecap="round" stroke-linejoin="round" stroke-miterlimit="10" stroke-width=".5" d="M227.375 480.78906l.85547 2.30078"/></g><g clip-path="url(#r)"><path fill="none" stroke="#000" stroke-linecap="round" stroke-linejoin="round" stroke-miterlimit="10" stroke-width=".5" d="M240.6875 480.80078l-6.96484-.9414"/></g><g clip-path="url(#s)"><path fill="none" stroke="#000" stroke-linecap="round" stroke-linejoin="round" stroke-miterlimit="10" stroke-width=".5" d="M240.6875 480.80078l.85156 2.30078"/></g><g clip-path="url(#t)"><path fill="none" stroke="#000" stroke-linecap="round" stroke-linejoin="round" stroke-miterlimit="10" stroke-width=".5" d="M253.98047 479.71094l-6.91797 1.23437"/></g><g clip-path="url(#u)"><path fill="none" stroke="#000" stroke-linecap="round" stroke-linejoin="round" stroke-miterlimit="10" stroke-width=".5" d="M253.98047 479.71094l1.51562 1.92969"/></g><g clip-path="url(#v)"><path fill="none" stroke="#000" stroke-linecap="round" stroke-linejoin="round" stroke-miterlimit="10" stroke-width=".5" d="M267.11719 479.07031l-6.5625 2.51953"/></g><g clip-path="url(#w)"><path fill="none" stroke="#000" stroke-linecap="round" stroke-linejoin="round" stroke-miterlimit="10" stroke-width=".5" d="M267.11719 479.07031l1.85156 1.60938"/></g><g clip-path="url(#x)"><path fill="none" stroke="#000" stroke-linecap="round" stroke-linejoin="round" stroke-miterlimit="10" stroke-width=".5" d="M266.16016 479.4336l.92578.80468"/></g><g clip-path="url(#y)"><path fill="none" stroke="#000" stroke-linecap="round" stroke-linejoin="round" stroke-miterlimit="10" stroke-width=".5" d="M280.625 480.84375l-6.94922-1.03125"/></g><g clip-path="url(#z)"><path fill="none" stroke="#000" stroke-linecap="round" stroke-linejoin="round" stroke-miterlimit="10" stroke-width=".5" d="M279.61328 480.69531l.41016 1.15625"/></g><g clip-path="url(#A)"><path fill="none" stroke="#000" stroke-linecap="round" stroke-linejoin="round" stroke-miterlimit="10" stroke-width=".5" d="M293.07422 482.6836l-5.21485-4.71094"/></g><g clip-path="url(#B)"><path fill="none" stroke="#000" stroke-linecap="round" stroke-linejoin="round" stroke-miterlimit="10" stroke-width=".5" d="M306.11328 482.95313l-4.66797-5.25"/></g><g clip-path="url(#C)"><path fill="none" stroke="#000" stroke-linecap="round" stroke-linejoin="round" stroke-miterlimit="10" stroke-width=".5" d="M317.72656 483.78516l-1.26172-6.91407"/></g><g clip-path="url(#D)"><path fill="none" stroke="#000" stroke-linecap="round" stroke-linejoin="round" stroke-miterlimit="10" stroke-width=".5" d="M329.9336 483.8086l.95702-6.96094"/></g><g clip-path="url(#E)"><path fill="none" stroke="#000" stroke-linecap="round" stroke-linejoin="round" stroke-miterlimit="10" stroke-width=".5" d="M346.96875 478.97656l-6.48438 2.70703"/></g><g clip-path="url(#F)"><path fill="none" stroke="#000" stroke-linecap="round" stroke-linejoin="round" stroke-miterlimit="10" stroke-width=".5" d="M359.73047 482.58984l-5.3789-4.52343"/></g><g clip-path="url(#G)"><path fill="none" stroke="#000" stroke-linecap="round" stroke-linejoin="round" stroke-miterlimit="10" stroke-width=".5" d="M369.78516 476.86328l1.14453 6.9336"/></g><g clip-path="url(#H)"><path fill="none" stroke="#000" stroke-linecap="round" stroke-linejoin="round" stroke-miterlimit="10" stroke-width=".5" d="M380.42578 481.67188l6.49219-2.6875"/></g><g clip-path="url(#I)"><path fill="none" stroke="#000" stroke-linecap="round" stroke-linejoin="round" stroke-miterlimit="10" stroke-width=".5" d="M393.5586 479.5625l6.85546 1.53516"/></g><g clip-path="url(#J)"><path fill="none" stroke="#000" stroke-linecap="round" stroke-linejoin="round" stroke-miterlimit="10" stroke-width=".5" d="M394.55469 479.78516l-.32422-1.1836"/></g><g clip-path="url(#K)"><path fill="none" stroke="#000" stroke-linecap="round" stroke-linejoin="round" stroke-miterlimit="10" stroke-width=".5" d="M410.74219 476.84375l-.8789 6.97266"/></g><path fill="none" stroke="#000" stroke-linecap="round" stroke-linejoin="round" stroke-miterlimit="10" stroke-width=".5" d="M410.61328 477.85547l1.14453-.4336"/><g clip-path="url(#L)"><path fill="none" stroke="#000" stroke-linecap="round" stroke-linejoin="round" stroke-miterlimit="10" stroke-width=".5" d="M424.57031 476.94531l-1.90625 6.76563"/></g><path fill="none" stroke="#000" stroke-linecap="round" stroke-linejoin="round" stroke-miterlimit="10" stroke-width=".5" d="M424.29297 477.92969l1.19922-.25781"/><g clip-path="url(#M)"><path fill="none" stroke="#000" stroke-linecap="round" stroke-linejoin="round" stroke-miterlimit="10" stroke-width=".5" d="M436.92969 476.8164v7.02735"/></g><g clip-path="url(#N)"><path fill="none" stroke="#000" stroke-linecap="round" stroke-linejoin="round" stroke-miterlimit="10" stroke-width=".5" d="M452.51953 477.64844l-4.54687 5.35937"/></g><g clip-path="url(#O)"><path fill="none" stroke="#000" stroke-linecap="round" stroke-linejoin="round" stroke-miterlimit="10" stroke-width=".5" d="M462.78516 476.90234l1.55078 6.85157"/></g><path fill="none" stroke="#000" stroke-linecap="round" stroke-linejoin="round" stroke-miterlimit="10" stroke-width=".5" d="M463.01172 477.89844l.92969-.80078"/><g clip-path="url(#P)"><path fill="none" stroke="#000" stroke-linecap="round" stroke-linejoin="round" stroke-miterlimit="10" stroke-width=".5" d="M147.09766 465.35547l-6.19532 3.3164"/></g><path fill="none" stroke="#000" stroke-linecap="round" stroke-linejoin="round" stroke-miterlimit="10" stroke-width=".5" d="M146.19531 465.83594l1.01953.6836m13.26172-1.03516l-6.32422 3.05859m5.40625-2.61328l.98828.72265m13.5547.89453l-6.94532-1.0664m5.9375.91406l.40234 1.15625m13.92578-1.03125l-6.95312-1.01172m5.9414.86328l.41407 1.15625m13.92187-1.05859l-6.96875-.91016m6.96875.91016l.85938 2.29688m12.46484-2.375l-6.98828-.75391m6.98828.7539l.91016 2.27735m12.41406-2.41797l-7.00781-.47266m7.00781.47266l1.0039 2.23828m12.29688-2.07031l-6.98047-.8086m5.96485.69141l.44922 1.14063m13.70703-.26172l-6.6289-2.33203m5.66405 1.99218l.1836 1.21094m14.25-2.59375l-6.9375 1.11328m6.9375-1.11328l1.48047 1.95703m11.8125-2.08593l-6.89453 1.37109m5.89062-1.17188l.77734.94922m13.21485-2.07422l-6.24219 3.22266m5.33594-2.7539l1.00781.6953m13.46094-.55859l-6.73438 2.01172m5.7539-1.71875l.86329.8711m13.3711-1.34766l-6.61329 2.3789m5.65235-2.03515l.90625.82422m13.51171-.64844l-6.89843 1.33984m5.89453-1.14453l.77344.95313m12.66796-2.875l-5.14062 4.79297m4.39062-4.09375l1.16016.39843m13.6914.26172l-6.71484 2.07422m5.73828-1.77344l.8711.8672m6.71094-1.1875l6.70312 2.11327m7.24219 1.16406l5.44531-4.4414m8.3125-.45313l4.5586 5.34766m-3.89454-4.57031l.45313-1.14063m13.75-.39844l1.45703 6.8711m14.14453-6.58203l-3.1211 6.29297m2.66798-5.37891l1.22656-.03516m12.46484-.91797l-2.96484 6.3711m2.53515-5.44531l1.22266-.0625m13.3711-.3047l-4.66407 5.25391m3.98828-4.48828l1.19141.28907m13.10937-.7461l-5.28125 4.63672m4.51172-3.96094l1.14844.4336"/><g clip-path="url(#Q)"><path fill="none" stroke="#000" stroke-linecap="round" stroke-linejoin="round" stroke-miterlimit="10" stroke-width=".5" d="M147.51172 453.79297l-7.02344-.1875"/></g><path fill="none" stroke="#000" stroke-linecap="round" stroke-linejoin="round" stroke-miterlimit="10" stroke-width=".5" d="M146.49219 453.76563l.54687 1.09765m13.67188-.26953l-6.79297-1.78906m5.80469 1.52734l.28125 1.19531m14.10156-1.30468l-6.94922-1.04688m5.9375.89453l.40625 1.15625m13.85547-.6875l-6.82031-1.67968m5.82812 1.43359l.30078 1.1914m13.8125-.36718l-6.42969-2.83594m5.4922 2.42188l.08984 1.22656m14.1875-.875l-6.48047-2.71485m18.99219 3.89063l-4.875-5.0625m4.16406 4.32422l-.3789 1.16797m14.09374-.16407l-4.25-5.59375m3.6289 4.78125l-.51171 1.11329m15.80469-2.64063l-6.96875-.91406m5.95703.78125l.42969 1.14844m13.92187-1.30079l-7.01563-.34765m5.9961.29687l.51953 1.11328m13.76563-.62109l-6.91797-1.22656m5.91015 1.04687l.3789 1.16797m13.375-3.60156l-5.77733 4m4.9375-3.41797l1.08984.5625m13.26172-.82031l-6.17188 3.35156m5.27344-2.86719l1.02344.67969m13.30469-.9336l-6.40235 2.89063m5.47266-2.46875l.96875.75m13.1289-1.46484l-6.10546 3.47656m5.21484-2.97266l1.03906.65625m12.96875-1.46875l-5.71094 4.08985M345.75 452.25l1.10156.54297m11.8789-2.17578l-3.3789 6.16015m2.88672-5.26171l1.22656.01562m13.79688.19531l-5.8125 3.94532m4.96875-3.3711l1.08594.57031m12.84765-1.4453l-5.35937 4.54687m4.57812-3.88672l1.14063.45312m11.08984-2.25781l-1.6289 6.83594m1.39062-5.83985l1.1875-.3125m12.73828-.57421l-2.3711 6.61718m2.02345-5.65234l1.21484-.17969m10.875-.96875l.77344 6.98438m-.66016-5.96875l1.01172-.69141m9.25 2.03125l6.64844 2.27344m-5.6797-1.94531l-.1953-1.21094m12.39453 1.48828l6.94531 1.0625m-5.9336-.91016l-.40624-1.15625m18.91797-.67187l-5.46875 4.41406m4.67187-3.77344l1.1289.48047"/><g clip-path="url(#R)"><path fill="none" stroke="#000" stroke-linecap="round" stroke-linejoin="round" stroke-miterlimit="10" stroke-width=".5" d="M147.08984 442.0586l-6.17968-3.34766"/></g><path fill="none" stroke="#000" stroke-linecap="round" stroke-linejoin="round" stroke-miterlimit="10" stroke-width=".5" d="M146.1914 441.57031l-.01171 1.22656m14.38672-1.08203l-6.50391-2.66015m5.5586 2.27343l.12109 1.21875m14.30078-1.32421l-6.82422-1.6797m17.90625-2.46874l-2.35938 6.6211m11.3086-4.79298l6.3711 2.96094m6.6953-.73828l6.8711-1.48047m6.46484 1.57422l6.82813-1.67188m-5.83594 1.4297l-.8164-.91798m13.1953-.71484l6.71485 2.08203m6.6289.07422l6.66016-2.23438m-5.6914 1.91016l-.89063-.84375m19.72656 1.58203l-6.3203-3.0625m5.40233 2.61719l.04688 1.22656m13.64063.03516l-5.23047-4.69531m16.41406-1.13282l-.96484 6.96094m.82421-5.94922l1.15235-.42187m13.01953-.41016l-2.39844 6.60547m16.57031-6.15234l-4.11328 5.69922m3.51563-4.8711l1.21484.16797m12.61328-1.05469l-3.94531 5.8125m3.3711-4.96484l1.22265.1289m12.1836-1.2539l-2.97657 6.36719m2.54297-5.44141l1.22266-.0625m11.17578-1.1914l-.27344 7.02343m.23047-6l1.10547-.53516m12.11328-.48828v7.02735m0-6.00782l1.08203-.57421m15.7461 3.10937l-7.02735-.08203m20.08984-1.26563l-6.51953 2.61329m6.51953-2.61329l1.875 1.58204m11.5547-1.26172l-6.7461 1.96875m6.7461-1.96875l1.71093 1.75781m11.40234-2.28516l-6.34375 3.02735m6.34375-3.02735l1.97266 1.45703m11.33203-1.47265l-6.32422 3.05469m5.40625-2.60938l.98828.72266m13.0664-1.4961l-5.96484 3.71485m5.09766-3.17578l1.0586.61718m13.60937.15235l-6.9414 1.09765m5.93359-.9375l.73828.98047"/><g clip-path="url(#S)"><path fill="none" stroke="#000" stroke-linecap="round" stroke-linejoin="round" stroke-miterlimit="10" stroke-width=".5" d="M147.39844 427.96484l-6.79688-1.79297"/></g><path fill="none" stroke="#000" stroke-linecap="round" stroke-linejoin="round" stroke-miterlimit="10" stroke-width=".5" d="M146.41016 427.70313l.28125 1.1953m14.10547-1.34765l-6.96094-.96484m5.94531.82422l.42188 1.15234m13.01171-3.8711l-5.17187 4.75391m13.30469-4.74218l5.1953 4.73046m7.76173-4.26562l5.91015 3.80078m7.25-3.53125l6.22266 3.26172m-5.32031-2.78516l-.0039-1.23047m12.42968.72657l6.19531 3.3164m-5.29297-2.83203l.0039-1.23047m12.03126 2.9336l6.94922-1.0586m-5.9375.90625l-.73047-.98437m13.88281 2.94531l5.25-4.67187m-4.48437 3.99218l-1.15235-.42968m15.84766 2.2539l.96094-6.96484m-.82032 5.94922l-1.15234.42578m15.94922.42969l-2.28516-6.64454m10.94531 3.35157l7.02735-.0586m-6.0039.05078l-.58595-1.07812m12.88672 1.30078l7.00782-.48828m8.98828-3.17188l1.64453 6.83204m-1.40625-5.83594l.91797-.8164m15.91406 1.30468L327.47656 429m5.01563-3.30078l1.07422.58594m12.8164-1.51563l-5.3125 4.59766m4.53906-3.92969l1.14454.4414m13.63671.12891l-6.69921 2.1211m5.72265-1.8125l.8789.85937m12.73829-2.38672l-5.34766 4.5586m4.56641-3.89453l1.14453.44921M385.38281 424l-3.42578 6.13672M385.38281 424l2.45313.05078m12.65234 2.7461l-7.0039.54296m7.0039-.54297l1.3164 2.07032m11.94532-1.13281l-6.89844-1.33204m6.89844 1.33203l.72266 2.34375m11.89453-5.1953l-5.5 4.37109m5.5-4.3711l2.25.98047m-3.05078-.34375l1.125.48828m12.83593-1.3086l-5.1914 4.73829m5.1914-4.73828l2.3086.82422m-3.0664-.13672l1.15624.41406m12.40625-1.5625l-4.16797 5.66016m4.16797-5.66016l2.42578.35938m12.0586 1.14843l-6.50782 2.64454"/><g clip-path="url(#T)"><path fill="none" stroke="#000" stroke-linecap="round" stroke-linejoin="round" stroke-miterlimit="10" stroke-width=".5" d="M466.8164 425.7461l1.88282 1.57421"/></g><g clip-path="url(#U)"><path fill="none" stroke="#000" stroke-linecap="round" stroke-linejoin="round" stroke-miterlimit="10" stroke-width=".5" d="M147.51172 413.8164l-7.02344-.125"/></g><path fill="none" stroke="#000" stroke-linecap="round" stroke-linejoin="round" stroke-miterlimit="10" stroke-width=".5" d="M146.49219 413.79688l.55469 1.09375m13.7539-.70313l-6.97266-.86719m17.82422.4336l-.01953-.19922-.0586-.1914-.09374-.1797-.46094-.375-.1914-.05859-.19922-.01953-.19922.01953-.1914.0586-.45704.375-.09375.17968-.0586.1914-.01952.19923.01953.19921.05859.19141.09375.17578.45703.3789.1914.0586.19923.01953.19922-.01953.1914-.0586.46094-.3789.09375-.17578.0586-.1914.01952-.19922m8.79688-.33204l6.99219.66407m8.125-3.41016l3.38672 6.15625m-2.89063-5.26172l.67188-1.02734m11.67187.44531l4.33984 5.52734m-3.70703-4.72265l.4961-1.1211m11.67578.8125l5.35937 4.53907m-4.58203-3.8789l.26172-1.19923m11.95313.98438l6.0078 3.64844m-5.13671-3.1172l.07031-1.22655m12.14844 3.90234l6.45703-2.76563m-5.51953 2.36329l-.95703-.76954m17.14453 3.25391l-1.16797-6.92969m1 5.92188l-.97266.7461m11.28125-.83204l5.1875-4.74219m8.46094-.32031l4.51563 5.38281m-3.85938-4.60156l.46094-1.13672m16.72656.36328l-4.53906 5.36328m19.01172-3.44921l-6.85547 1.53906m20.21094-.20703l-6.9375-1.125m5.92968.96093l.39453 1.16407m13.87891-2.37891l-6.83594 1.63281m6.83594-1.63281l1.6211 1.83984m11.77343-1.33203l-6.9961.61719m6.9961-.61719l1.33985 2.05469m11.9414-2.34375l-6.92578 1.1914m6.92578-1.1914l1.5 1.9414m11.0039-3.64452l-5.30859 4.60156m5.3086-4.60156l2.29297.8828m10.66797-1.23827l-4.59766 5.3125m4.59766-5.3125l2.39453.54687m11.60547.25l-5.96485 3.71485m5.96485-3.71485l2.12109 1.23047m-2.99219-.6875l1.0625.61328m12.70313-1.69922l-5.1289 4.80469m5.1289-4.80469l2.32422.79297m10.86718-.91797l-4.8789 5.05469m4.8789-5.05469l2.35938.67578m10.88672-.74218l-4.74219 5.1875m4.74219-5.1875l2.3789.61328m10.92188-.625l-4.71094 5.21094"/><g clip-path="url(#V)"><path fill="none" stroke="#000" stroke-linecap="round" stroke-linejoin="round" stroke-miterlimit="10" stroke-width=".5" d="M465.91797 411.14844l2.3789.59765"/></g><g clip-path="url(#W)"><path fill="none" stroke="#000" stroke-linecap="round" stroke-linejoin="round" stroke-miterlimit="10" stroke-width=".5" d="M147.44922 399.77734l-6.89844 1.32422"/></g><path fill="none" stroke="#000" stroke-linecap="round" stroke-linejoin="round" stroke-miterlimit="10" stroke-width=".5" d="M146.44531 399.96875l.76953.95703m12.71094-2.83984l-5.21875 4.70703m4.45703-4.02344l1.15235.41797m8.32812-1.64844l3.96875 5.80078m10.64453.54297l1.375-6.89062m11.4414.14062l2.375 6.61328m-2.03124-5.65234l.82422-.90625m11.67969.15234l3.30859 6.19922m-2.82813-5.29687l.6836-1.01953m17.03906 1.83984l-6.46875 2.75m5.52734-2.34766l.95313.76954m13.47656-.65235l-6.8164 1.71485m6.8164-1.71485l1.64453 1.8164m11.71485-.30077l-6.90235-1.32032m6.90235 1.32032l.72265 2.34375m12.32813-1.52735l-6.375-2.95312m6.375 2.95312l.13281 2.45313m13.48438-4.35156l-6.97657.84375m5.96094-.71875l.69922 1.0039m12.8711-2.91797l-5.45704 4.42578m4.66406-3.78125l1.12891.47657m13.76172 1.13671l-7.02344-.09375m6.0039.08204l.5586 1.08984m13.77734-1.14453l-7.02734.04297m7.02734-.04297l1.16407 2.16015m12.13281-1.79296l-6.99219-.69141m6.99219.6914l.9336 2.26954m12.35937-2.09766l-6.94922-1.03906m6.94922 1.03906l.82031 2.3125m12.52344-2.53515l-7.0039-.58985m7.0039.58985l.96484 2.2539m12.33985-2.95312l-6.98047.80468m6.98047-.80468l1.39062 2.01953m-2.40625-1.90235l.69531 1.01172m13.29688-2.27734l-6.30469 3.10156m6.30469-3.10156l1.98828 1.4375m-2.90625-.98438l.9961.71485m13.15234-1.32422l-6.13672 3.41797m6.13672-3.41797l2.0625 1.33203m11.23437-1.36719L407.25 402.1797m6.10156-3.48438l2.07422 1.3086m10.71094-2.01172l-5.03906 4.89453m5.03906-4.89453l2.33594.75m10.34765-1.26563l-3.77734 5.92578m3.77734-5.92578l2.44531.1914m11.01172-.09765l-4.0625 5.73438m4.0625-5.73438l2.4336.3125m10.83593-.34375l-3.97265 5.79688"/><g clip-path="url(#X)"><path fill="none" stroke="#000" stroke-linecap="round" stroke-linejoin="round" stroke-miterlimit="10" stroke-width=".5" d="M465.54688 397.53906l2.4375.27344"/></g><g clip-path="url(#Y)"><path fill="none" stroke="#000" stroke-linecap="round" stroke-linejoin="round" stroke-miterlimit="10" stroke-width=".5" d="M147.32031 385.98047l-6.64062 2.28906"/></g><path fill="none" stroke="#000" stroke-linecap="round" stroke-linejoin="round" stroke-miterlimit="10" stroke-width=".5" d="M146.35547 386.3125l.89844.83594m12.67578-2.375l-5.22656 4.69922m4.46484-4.01563l1.15234.42188m12.71875-1.3125l-4.82031 5.11328m4.1211-4.3711l1.18359.32422m13.1875-.67969l-5.53125 4.33985m4.72656-3.70703l1.1211.4961m13.63671 1.91015l-6.8086-1.73828m19.87892 2.41015l-6.31641-3.08203m6.3164 3.08203l.08594 2.45313m13.44922-3.02735l-6.75781-1.93359m6.75781 1.9336l.51172 2.39843m-1.4961-2.67969l.25782 1.19922m14.16016-1.55469l-6.9961-.66015m6.9961.66015l.9414 2.26563m-1.95703-2.35938l.46875 1.13282m13.84766-.91797l-6.96875-.90235m6.96875.90235l.86328 2.29687m-1.875-2.42578l.42969 1.14844m13.83203-.65234l-6.83594-1.63672m6.83594 1.63672l.61328 2.375m-1.60938-2.61329l.3086 1.1875m14.02734-1.0625l-6.88672-1.41015m6.88672 1.41015l.69531 2.35157m12.625-3.73047l-6.89453 1.35156m6.89453-1.35156l1.54688 1.90234m-2.55078-1.70703l1.54687 1.90235m12.83594-1.5547l-7.02344.26173m7.02344-.26172l1.23047 2.1211m-2.2539-2.08204l1.23437 2.1211m13.10547-1.95704l-7.02735-.14453m7.02735.14453l1.10546 2.1914m-2.1289-2.21093l.55469 1.09375m13.76171-.7461l-6.98046-.80077m6.98046.80078l.89844 2.28125m-1.91406-2.39844l.44922 1.14063m13.83984-.75l-6.89844-1.34766m6.89844 1.34765l.71094 2.34766m12.54297-3.94922l-6.77735 1.85547m6.77735-1.85547l1.6836 1.78516m-2.66798-1.51563l.83985.89454m13.26172-1.70704l-6.38282 2.94141m6.38282-2.9414l1.95312 1.48827m-2.88281-1.05859l.97656.74219m12.89063-1.80469l-5.62891 4.20703m5.6289-4.20703l2.22266 1.04688m-3.03906-.4336l1.10937.52344m12.98438-1.1875l-5.55078 4.3086m5.55078-4.3086L402 385.97656m-3.04687-.3789l1.12109.5m12.73828-1.4336l-5.02344 4.91797m5.02344-4.91797l2.33984.7461m-3.0703-.03125l1.16796.375m12.3164-1.5547l-3.89843 5.84767m3.89844-5.84766l2.4414.24219M425 385.05078l1.21875.1211m12.3086-1.1797l-3.19141 6.26173m3.1914-6.26172l2.45313-.03906m-2.91797.95312l1.22656-.02344m12.52735-.90234l-3.14063 6.28515m3.14063-6.28515l2.45312-.0625m10.83985.05078l-3.09766 6.3086m3.09766-6.3086l2.45312-.07813"/><g clip-path="url(#Z)"><path fill="none" stroke="#000" stroke-linecap="round" stroke-linejoin="round" stroke-miterlimit="10" stroke-width=".5" d="M143.78125 370.30078l.4375 7.01563"/></g><g clip-path="url(#aa)"><path fill="none" stroke="#000" stroke-linecap="round" stroke-linejoin="round" stroke-miterlimit="10" stroke-width=".5" d="M143.84375 371.32031l1.04688-.64062"/></g><path fill="none" stroke="#000" stroke-linecap="round" stroke-linejoin="round" stroke-miterlimit="10" stroke-width=".5" d="M157.26172 370.29688l.10547 7.02343m16.73828-4.01562l-6.95313 1.00781m5.94141-.86328l.72656.99219m13.54688-1.4375l-6.84375 1.60937m6.84375-1.60937l1.61719 1.84375m11.67578-.14844l-6.79688-1.78516m6.79688 1.78516l.5625 2.39062m12.21093-1.23828l-5.71484-4.08594m5.71484 4.08594l-.32422 2.4336m13.63672-2.4297l-5.71093-4.09374m5.71093 4.09375l-.32812 2.4336m14.2539-3.90235l-6.92968-1.16016m6.92969 1.16016l.77734 2.32812m-1.78516-2.49609l.38672 1.16406M254 374.28906l-6.96094-.96094m6.96094.96094l.84375 2.30469m-1.85547-2.44531l.42188 1.15234m13.91015-1.0586l-6.97265-.87109m6.97265.8711l.875 2.29297m12.3789-1.9297l-6.84765-1.59374m6.84766 1.59375l.6289 2.36719m12.77344-3.08594l-7.02343-.15625m7.02343.15625l1.10547 2.1914m-2.125-2.21484l.55078 1.09766m13.78516-1.07813l-7.02344-.14844m7.02344.14844l1.10937 2.1875m-2.1328-2.21094l.55468 1.09375m13.76953-.80078l-6.9961-.6914m6.9961.6914l.9336 2.26954m-1.95313-2.3672l.9336 2.26954m13.41406-2.39844l-7.02344-.23437m7.02344.23437l1.08203 2.20313m-2.10157-2.23829l.53907 1.10157m13.73437-1.85156l-6.89844 1.33593m6.89844-1.33594l1.54297 1.90625m-2.54687-1.71093l.76953.95312m13.46875-1.47265l-6.73828 1.98437m6.73828-1.98437l1.71875 1.7539m-2.69922-1.46484l.85937.875m13.35938-1.39453l-6.58594 2.44531m6.58594-2.44531l1.83594 1.6289m-2.79297-1.27343l.91797.8125m12.91796-1.98829l-5.71484 4.08594m5.71484-4.08594l2.19922 1.08985m-3.02734-.4961l1.09766.54688m12.6953-1.5586l-5.01171 4.92188m5.01172-4.92187l2.33984.73828m-3.07031-.02344l1.17187.36719m12.60157-1.33203l-4.46875 5.42187m4.46875-5.42187l2.40625.48828m-3.0547.30078l1.20313.24219m12.5625-1.1836l-4.0703 5.72656m4.0703-5.72656l2.4336.3164m-3.02735.51563l1.21875.16016m12.48829-1.125l-3.66797 5.99219m3.66797-5.99219l2.44921.14453m-2.98437.72656l1.22656.07422m12.38672-1.07812l-3.19531 6.25781m3.19531-6.25781l2.45313-.04297m-2.91797.95312l1.22656-.01953m12.33203-.9961l-2.75 6.46876m2.75-6.46875l2.44531-.21094"/><g clip-path="url(#ab)"><path fill="none" stroke="#000" stroke-linecap="round" stroke-linejoin="round" stroke-miterlimit="10" stroke-width=".5" d="M142.67188 357.24219l2.65625 6.5039"/></g><g clip-path="url(#ac)"><path fill="none" stroke="#000" stroke-linecap="round" stroke-linejoin="round" stroke-miterlimit="10" stroke-width=".5" d="M143.0586 358.1875l.78515-.9414"/></g><path fill="none" stroke="#000" stroke-linecap="round" stroke-linejoin="round" stroke-miterlimit="10" stroke-width=".5" d="M154.09766 359.08203l6.43359 2.82422m-5.4961-2.41406l-.09374-1.22266m16.35937-1.22656l-1.33984 6.89844m16.42187-.91797l-4.875-5.0625m4.16406 4.32812l-.3789 1.16406m14.83984-.9375l-5.7461-4.04687m4.91017 3.46094l-.15235 1.21484m13.80078-.0586l-4.73828-5.1875m4.04688 4.4336l-.41016 1.15625m14.36328-.35547l-4.63281-5.28125m4.63281 5.28125l-.8711 2.29688m14.89063-3.14453l-6.04297-3.58204m6.04297 3.58204l-.11328 2.44921m13.71484-3.05468l-6.61328-2.375m6.61328 2.375l.35157 2.42969m-1.3164-2.77344l.17968 1.21484m14.30469-1.94922l-7.02344-.21484m7.02344.21484l1.08593 2.19922m12.16016-1.60156l-6.88672-1.41016m6.88672 1.41016l.6914 2.35156m12.57032-2.14062l-6.78125-1.83594m6.78125 1.83594l.54687 2.39453m12.8672-2.90625l-6.98048-.8086m6.98047.8086l.89453 2.28515m12.41407-2.21875l-6.96485-.9453m6.96485.9453l.84765 2.3047m12.4961-2.69923l-7.02344-.15234m7.02344.15234l1.10546 2.1914m12.19532-2.60155l-6.9961.66796m6.9961-.66796l1.35547 2.04687m11.85546-2.63281l-6.78515 1.83594m6.78515-1.83594l1.67579 1.79297m11.49609-2.21094l-6.5 2.67188m6.5-2.67188l1.89062 1.5664m11.00391-2.3125l-5.65625 4.16798m5.65625-4.16797l2.21094 1.0625m10.71484-1.50782l-4.8789 5.0586m4.8789-5.0586l2.35938.67188m-3.07032.0625l1.1797.33594m12.33202-1.48047l-3.84765 5.8789m3.84765-5.8789l2.4414.21875m-3.0039.63672l1.22266.10937m12.72266-.92187l-3.98438 5.78906m3.98438-5.78906l2.4375.28125m-3.01954.5625l1.21875.14062m12.48047-1.10937l-3.58984 6.03906m3.58984-6.03906l2.45313.11718m-2.97656.76172l1.22656.0586m12.72656-.8672l-3.82031 5.89845m3.82031-5.89844l2.44531.21094m-3 .64843l1.22266.10547m12.4336-1.08984l-3.39454 6.15234m3.39453-6.15234l2.45313.03515m-2.94531.85938l1.22656.01953"/><g clip-path="url(#ad)"><path fill="none" stroke="#000" stroke-linecap="round" stroke-linejoin="round" stroke-miterlimit="10" stroke-width=".5" d="M143.97656 343.66406l.04688 7.02735"/></g><g clip-path="url(#ae)"><path fill="none" stroke="#000" stroke-linecap="round" stroke-linejoin="round" stroke-miterlimit="10" stroke-width=".5" d="M143.98438 344.6875l1.07812-.58203"/></g><path fill="none" stroke="#000" stroke-linecap="round" stroke-linejoin="round" stroke-miterlimit="10" stroke-width=".5" d="M156.35156 343.80078l1.92969 6.7539m-1.65234-5.77343l.88672-.85156m9.66015 2.60547l6.91016 1.28515m-5.90625-1.09765l-.36719-1.16797m12.72656 2.48828l6.8125-1.73047m-5.82031 1.47656l-.82422-.90625m15.51953 3.65235l2.0664-6.71485m-1.76562 5.73828l-1.20312.23047m14.25.75781l2-6.73828m-1.70703 5.75782l-1.20313.24218m15.08985.87891l.27343-7.01953m-.23437 6l-1.10547.53125m16.28906.01562l-3.53906-6.07421m3.53906 6.07421l-1.29297 2.08594m14.20313-1.88672l-2.73438-6.47265m2.73438 6.47265l-1.54688 1.90625m16.17578-2.8711l-5.35937-4.54296m5.35938 4.54297l-.51954 2.39844m14.4336-3.41016l-6.5586-2.51953m6.5586 2.51953l.30078 2.4336m13.1211-2.75l-6.76954-1.88282m6.76953 1.88281l.52735 2.39454m12.83203-2.58204l-6.86328-1.51171m6.86328 1.51171l.66015 2.36329m12.67188-2.4297l-6.89063-1.3789m6.89063 1.3789l.70312 2.35157m12.63282-2.48047l-6.9375-1.1211m6.9375 1.1211l.79296 2.32422m12.54688-3.26953l-6.98438.76953m5.96875-.65625l.69141 1.01172m13.66016-.8086l-7.02735.13672m7.02735-.13671l1.1914 2.14453m11.7461-3.66016l-6.27344 3.16797m5.35937-2.70703l1.00391.70703m12.79688-1.82031l-5.41797 4.47265m5.41797-4.47265l2.26953.9375m10.58984-1.39844l-4.5039 5.39453m4.5039-5.39453l2.40234.5039m-3.05859.28125l1.19922.25m12.375-1.3203l-3.70703 5.96874m3.70703-5.96875l2.44922.16406m-2.98828.70313l1.22265.08203m12.13672-1.20703l-2.71875 6.48047m2.71875-6.48047l2.4414-.22656m-2.83984 1.16797l1.22266-.10938m12.86328-.64844l-3.46875 6.11329m3.46875-6.11329l2.45313.07032m11.04297.03906l-3.82422 5.89453m3.82422-5.89453l2.4414.21094m11.27344.09375l-4.6289 5.28515"/><g clip-path="url(#af)"><path fill="none" stroke="#000" stroke-linecap="round" stroke-linejoin="round" stroke-miterlimit="10" stroke-width=".5" d="M465.875 344.53516l2.39063.5625"/></g><path fill="none" stroke="#000" stroke-linecap="round" stroke-linejoin="round" stroke-miterlimit="10" stroke-width=".5" d="M465.20313 345.30469l1.1953.28125"/><g clip-path="url(#ag)"><path fill="none" stroke="#000" stroke-linecap="round" stroke-linejoin="round" stroke-miterlimit="10" stroke-width=".5" d="M144.84375 330.45313l-1.6875 6.8203"/></g><path fill="none" stroke="#000" stroke-linecap="round" stroke-linejoin="round" stroke-miterlimit="10" stroke-width=".5" d="M144.84375 330.45313l2.3789-.60157m10.34376.50781l-.50391 7.00782m.5039-7.00781l2.2461-.9961m11.41406 1.03906l-1.1914 6.92188m1.01562-5.91797l1.16797-.38281m8.32813 1.95312l6.79687 1.77344m-5.8086-1.51563l-.28515-1.1914m12.6875 2.96094l6.64453-2.28125m-5.67969 1.94921l-.89453-.83593m13.67188 2.01562l5.79297-3.97656m-4.94922 3.39844l-1.08985-.5664m15.29688 2.47265l2.3164-6.63281m-2.3164 6.6328l-2.42188.375m16.95313-.17968l-.11328-7.02344m.11328 7.02344l-2.14453 1.1875m15.86719-1.21484l-.92579-6.96875m.78907 5.95312l-.9961.71485m14.34766.3125l-.72656-6.9922m.62109 5.97266l-1.01953.6875m14.28906.34375l-.42578-7.01562m.36328 5.99219l-1.04297.64453m14.70313.34765l-.98828-6.95703m.84375 5.94531l-.9922.72266m16.67188-.95703l-5.42968-4.46094m4.64062 3.8125l-.24219 1.20313m14.84375-1.36328l-6.42578-2.84375m5.49219 2.42968l.08594 1.22266m14.35937-1.375l-6.8164-1.71094m5.82422 1.46094l.29296 1.1914M347.2383 334l-7.02345-.27734m19.71485 2.14062l-5.77735-4m4.9375 3.41797l-.14453 1.21875m14.0039-5.00781l-5.1875 4.74219m4.4336-4.05079l1.15625.41016m11.75-1.9414l-2.85937 6.42187m2.85937-6.42188l2.44922-.16796m10.97656.22265l-3.08203 6.3125m3.08203-6.3125l2.45313-.08594m-2.90234 1.00391l1.22656-.04297m12.6836-.80078l-3.375 6.16406m3.375-6.16406l2.45312.03125m11.3125.26172l-4.27735 5.57422m4.27735-5.57422l2.42187.40625m12.04688 1.15625l-6.58594 2.45312m6.58594-2.45312l1.83593 1.6289m11.3125-2.01171l-6.24609 3.21875m6.2461-3.21875l2.01562 1.39843m11.10547-1.73046l-5.85938 3.8828"/><g clip-path="url(#ah)"><path fill="none" stroke="#000" stroke-linecap="round" stroke-linejoin="round" stroke-miterlimit="10" stroke-width=".5" d="M466.49219 331.92188l2.15625 1.17187"/></g><g clip-path="url(#ai)"><path fill="none" stroke="#000" stroke-linecap="round" stroke-linejoin="round" stroke-miterlimit="10" stroke-width=".5" d="M465.63672 332.48828l2.16015 1.16797"/></g><g clip-path="url(#aj)"><path fill="none" stroke="#000" stroke-linecap="round" stroke-linejoin="round" stroke-miterlimit="10" stroke-width=".5" d="M145.58203 317.41016l-3.16406 6.27734"/></g><path fill="none" stroke="#000" stroke-linecap="round" stroke-linejoin="round" stroke-miterlimit="10" stroke-width=".5" d="M145.58203 317.41016l2.45313-.0547m-2.91407.96876l1.22657-.02735m11.41406-1.23437l-.89453 6.96875m.89453-6.96875l2.29297-.86719m10.95703.85938l-.76172 6.98437m.64844-5.96875l1.14062-.45312m12.21094-.57031l-.60938 7m.51954-5.98047l1.1289-.48047m8.96094 4.77344l6.01953-3.625m8.3164 4.70703l3.98048-5.78907m-3.40235 4.94922l-1.21875-.14062m13.83594.89844L226 317.73827m-3.60547 4.80078l-1.21094-.1875m14.69532 1.44922l2.65234-6.50781m-2.26563 5.5625l-1.21875.125m14.40235.91406l2.14062-6.6914m-2.14062 6.6914l-2.41406.4375m15.73437-.4375l2.13281-6.69531m-2.1328 6.69531l-2.41407.4414m15.73047-.4414l2.1289-6.69531m-2.1289 6.69531l-2.41406.4414m16.01562-.35937l1.55469-6.85547m-1.55469 6.85547l-2.36719.64453m15.625-.66015l1.67188-6.82422m-1.42969 5.83203l-1.1875.30078m16.6289.4414l-3.0664-6.32421m2.6211 5.40234l-.72266.99219m15.64062-.97266l-5.38281-4.51953m4.60156 3.85938l-.25781 1.20312m14.34375-.53125l-5.35937-4.54687m4.57812 3.88672l-.26172 1.19921m14.78125-1.16796l-6.20703-3.28907m17.63672-1.64843l-2.4375 6.58984m15.65234-6.625l-2.23828 6.66016m2.23828-6.66016l2.42188-.40234m10.71094.34375l-1.8711 6.77343m1.8711-6.77343l2.39453-.53125m10.85547.51562l-1.7422 6.8086m1.7422-6.8086l2.3828-.57812m-2.63671 1.5664l1.1914-.28906m11.69922-.80469l-.38671 7.01563m.33203-5.99219l1.11328-.51563m13.83984 6.03125l-3.55078-6.0625m3.03516 5.1797l-.64453 1.04687m16.16015-3.79688l-6.92187 1.20313m6.92187-1.20313l1.50781 1.9375m10.75-3.89844l-4.80859 5.125"/><g clip-path="url(#ak)"><path fill="none" stroke="#000" stroke-linecap="round" stroke-linejoin="round" stroke-miterlimit="10" stroke-width=".5" d="M465.96484 317.98438l2.3672.64453"/></g><path fill="none" stroke="#000" stroke-linecap="round" stroke-linejoin="round" stroke-miterlimit="10" stroke-width=".5" d="M465.26563 318.73047l2.36718.64453"/><path fill="#00f" fill-rule="evenodd" d="M330.53906 449.89453h8.6211V439.75h-8.6211v10.14453"/><path fill="azure" fill-rule="evenodd" d="M332.3711 441.58203h.83593v2.82422h3.28516v-2.82422h.83203v6.48047h-.83203v-2.91797h-3.28516v2.91797h-.83594v-6.48047"/><path fill="#ff3030" fill-rule="evenodd" d="M304.60547 401.07422h7.6914v-10.14844h-7.6914v10.14844"/><path fill="azure" fill-rule="evenodd" d="M306.4375 392.76172h.83203V398.5h3.19531v.73828h-4.02734v-6.47656"/><path fill="#ff3030" fill-rule="evenodd" d="M193.64453 383.32031h7.69531v-10.14844h-7.6953v10.14844"/><path fill="azure" fill-rule="evenodd" d="M195.47656 375.00781h.83594v5.73828h3.1914v.7422h-4.02734v-6.48048"/><path fill="#ffffe0" fill-rule="evenodd" d="M421.63281 436.26172h22.1836v-10.1914h-22.1836v10.1914"/><path fill-rule="evenodd" d="M425.13281 427.90234h.51172v6.29688h-.78906v-4.49219h-1.38672v-.55469l.5586-.0664.2539-.05078.22656-.08985.20313-.14453.17578-.20703.14062-.29688.10547-.39453m4.8164 0l.22657.01954.21875.05468.21094.08985.19531.12109.1836.14844.17187.17578.30078.42187.24219.4922.17969.54687.11328.57812.03906.58985-.03906.59375-.11328.58593-.1797.55469-.24218.5-.30078.42969-.17188.17969-.18359.15234-.19531.125-.21094.08984-.21875.0586-.22656.01953-.23047-.01953-.21875-.0586-.20703-.08984-.19922-.125-.1836-.15235-.17187-.17968-.30078-.42969-.24219-.5-.17969-.55469-.11328-.58594-.03906-.59375h.83594l.02734.56641.08203.5039.125.44141.16407.375.1914.30079.21094.22265.22266.13672.22656.04688.22656-.04688.22266-.13672.20703-.22265.1914-.30079.16407-.375.125-.4414.08203-.5039.02734-.56642-.02734-.55859-.08203-.5-.125-.4375-.16406-.36328-.19141-.29297-.20703-.21484-.22266-.13281-.22656-.04297-.22656.04296-.22266.13282-.21094.21484-.1914.29297-.16407.36328-.125.4375-.08203.5-.02734.5586h-.83594l.03906-.58985.11329-.57812.17968-.54688.24219-.49219.30078-.42187.17188-.17578.18359-.14844.19922-.1211.20703-.08984.21875-.05469.23047-.01953m4.94922 0l.23047.01954.21875.05468.20703.08985.19922.12109.18359.14844.17188.17578.30078.42187.24218.4922.1797.54687.11327.57812.03906.58985-.03906.59375-.11328.58593-.17969.55469-.24218.5-.30079.42969-.17187.17969-.1836.15234-.19921.125-.20703.08984-.21875.0586-.23047.01953-.22656-.01953-.21875-.0586-.21094-.08984-.19531-.125-.1836-.15235-.17187-.17968-.30079-.42969-.24218-.5-.17969-.55469-.11328-.58594-.03906-.59375h.83203l.03125.56641.08203.5039.125.44141.16406.375.1875.30079.21094.22265.22265.13672.22657.04688.22656-.04688.22266-.13672.21093-.22265.19141-.30079.16406-.375.125-.4414.08203-.5039.02735-.56642-.02735-.55859-.08203-.5-.125-.4375-.16406-.36328-.1914-.29297-.21094-.21484-.22266-.13281-.22656-.04297-.22656.04296-.22266.13282-.21094.21484-.1875.29297-.16406.36328-.125.4375-.08203.5-.03125.5586h-.83203l.03906-.58985.11328-.57812.17969-.54688.24219-.49219.30078-.42187.17187-.17578.1836-.14844.1953-.1211.21094-.08984.21875-.05469.22657-.01953m4.95312 0l.38672.02735.35938.08203.32421.13672.27735.1875.23047.23828.17578.28515.10547.33204.03906.3789-.01953.27344-.0586.23438-.08593.19921-.11328.17188-.12891.14453-.14063.1211-.28515.1953.23047.1211.20703.14453.1836.17188.15234.1953.125.21095.08984.23046.05469.2461.01953.2539-.03516.3086-.10156.32812-.17188.32422-.23828.30469-.30859.26953-.375.21485-.21094.08203-.22656.0625-.2461.03515-.26171.01563-.25781-.01563-.2422-.03515-.22265-.0625-.20703-.08204-.35938-.21484-.28906-.26953-.22265-.30469-.15625-.32422-.09375-.32812-.03125-.3086h.83593l.02344.25391.07813.23438.125.21093.16015.1875.1914.15235.21876.11328.24219.07422.2539.02344.25781-.02344.23829-.07422.21875-.11328.1953-.15235.16017-.1875.12109-.21093.07812-.23438.02735-.2539-.02735-.25391-.07812-.23438-.1211-.21093-.16015-.1875-.19531-.14844-.21875-.11719-.23829-.07031-.2578-.02735-.25391.02735-.2422.07031-.21874.11719-.1914.14844-.16016.1875-.125.21093-.07813.23438-.02344.2539h-.83593l.01953-.2539.05469-.23828.09375-.22656.12109-.20704.15625-.1914.17969-.17188.20703-.15234.23437-.13281-.28906-.19532-.13672-.12109-.1289-.14453-.11329-.17188-.08984-.19921-.05469-.23438-.02344-.27344h.78907l.02344.21485.0664.1875.10156.16796.13672.14063.16797.10938.1875.08203.20703.05078.21875.01562.22266-.01562.20703-.05078.1875-.08204.16406-.10937.13672-.14063.10547-.16796.0664-.1875.02344-.21485-.02343-.21484-.06641-.1914-.10547-.16798-.13672-.14062-.16406-.10938-.1875-.08203-.20703-.05078-.22266-.01562-.21875.01562-.20703.05078-.1875.08203-.16797.10938-.13672.14062-.10156.16797-.0664.1914-.02344.21485h-.78906l.03906-.3789.10937-.33204.17188-.28515.23047-.23828.28125-.1875.3203-.13672.35938-.08203.38672-.02735"/><path fill="#ffffe0" fill-rule="evenodd" d="M306.23828 337.64453h22.17969v-10.1914h-22.17969v10.1914"/><path fill-rule="evenodd" d="M309.73828 329.28516h.50781v6.29687h-.78906v-4.48828h-1.38672v-.5586l.5586-.0625.2539-.05468.23047-.08985.20313-.14062.17187-.21094.14063-.29297.10937-.39843m4.8125 0l.23047.01953.21875.0586.20703.08593.19531.1211.1836.15234.17187.17578.30078.41797.2461.49218.17969.54688.10937.58203.03906.58984-.03906.59375-.10938.58204-.17968.55468-.2461.5039-.30078.42579-.17187.17969-.1836.15234-.1953.125-.20704.08985-.21875.05859-.23047.01953-.23047-.01953-.21875-.0586-.20703-.08984-.19531-.125-.1875-.15234-.16797-.17969-.30469-.42578-.24219-.5039-.17968-.5547-.11328-.58203-.03516-.59375h.83203l.02735.5625.08203.50391.1289.44531.16016.375.1914.30078.21094.21875.22266.13672.22656.04688.22656-.04688.22266-.13672.21094-.21875.1914-.30078.16016-.375.125-.44531.08203-.5039.03125-.5625-.03125-.5625-.08203-.5-.125-.4336-.16016-.36719-.1914-.29297-.21094-.21484-.22266-.1289-.22656-.04688-.22656.04687-.22266.12891-.21094.21484-.1914.29297-.16016.36719-.1289.4336-.08204.5-.02734.5625h-.83203l.03516-.58985.11328-.58203.17969-.54688.24218-.49218.30469-.41797.16797-.17578.1875-.15235.19531-.1211.20703-.08593.21875-.0586.23047-.01952m5.08985 0h.51171v6.29687h-.78906v-4.48828h-1.38672v-.5586l.5586-.0625.2539-.05468.22656-.08985.20313-.14062.17578-.21094.14063-.29297.10546-.39843m2.82422 2.17578h.78516l.02344-.3164.0586-.28517.09765-.2539.14062-.21485.17969-.17187.22266-.1289.26562-.08204.3086-.02734.23828.02344.22265.0625.20703.10156.1797.13672.14843.17187.11328.20703.07031.23829.02344.26171-.01953.26954-.0664.22265-.10938.19531-.15625.16797-.19922.16406-.25.16407-.63281.39062-.53907.3125-.4375.3164-.34375.32423-.26562.33594-.1914.35156-.125.3711-.06641.39452-.01954.41797h4.21094v-.74219h-3.33203l.08203-.28125.11328-.23828.14844-.20312.1875-.17969.23047-.17188.27734-.17578.71875-.41406.41407-.20703.34765-.23047.28125-.25.21875-.26953.16406-.27734.10938-.28516.0625-.28125.02344-.28125-.04297-.38672-.1211-.34765-.1875-.3047-.25-.26562-.30468-.21094-.34375-.16015-.38281-.09766-.40625-.03515-.4336.03515-.39844.09766-.35546.16797-.3047.23437-.24609.30078-.1875.375-.11718.44922-.03907.51563"/><path fill="#ffffe0" fill-rule="evenodd" d="M186.40234 350.66797h22.1797v-10.1914h-22.1797v10.1914"/><path fill-rule="evenodd" d="M189.90234 342.3086h.50782v6.29687h-.78516v-4.49219h-1.39063v-.55469l.5586-.0664.2539-.05078.23047-.08985.20313-.14062.17187-.21094.14453-.29688.10547-.39453m4.8125 0l.23047.01954.21875.05468.20703.08985.19532.12109.18359.14844.17188.17578.30468.42187.24219.4922.17969.54687.10937.57812.03906.59375-.03906.58985-.10937.58593-.17969.55469-.24219.5-.30469.42969-.17187.17969-.1836.15234-.1953.125-.20704.08984-.21875.0586-.23047.01953-.23047-.01953-.21875-.0586-.20703-.08984-.1953-.125-.1875-.15235-.16798-.17968-.30469-.42969-.24218-.5-.17969-.55469-.10938-.58594-.03906-.58984h.83203l.02735.5625.08203.5039.1289.44532.16016.3711.1914.30077.21095.22266.22265.13672.22656.04688.22657-.04688.22265-.13672.21094-.22265.1914-.30079.16016-.37109.1289-.44531.07813-.5039.03125-.5625-.03125-.5625-.07812-.5-.1289-.4375-.16016-.36329-.19141-.29297-.21094-.21484-.22265-.13281-.22657-.04297-.22656.04296-.22266.13282-.21093.21484-.1914.29297-.16017.36328-.1289.4375-.08203.5-.02735.5625h-.83203l.03906-.59375.10938-.57812.17969-.54688.24219-.49219.30468-.42187.16797-.17578.1875-.14844.19531-.1211.20703-.08984.21875-.05469.23047-.01953m5.08985 0h.51172v6.29688h-.78907v-4.49219h-1.38672v-.55469l.5586-.0664.2539-.05078.22657-.08985.20312-.14062.17578-.21094.14063-.29688.10547-.39453m2.82422 2.17579h.78906l.01953-.31641.0586-.28516.09765-.2539.14063-.21485.17968-.17187.22656-.1289.26172-.08204.3086-.02734.23828.01953.22266.0625.20703.10156.17968.14063.14844.17187.11328.20703.07031.23438.02344.26562-.01953.26953-.0664.22266-.10938.1914-.15625.17188-.19922.16406-.25.16406-.63281.39063-.53516.3125-.4375.3164-.34765.32423-.26563.33593-.1875.35156-.125.3711-.07031.39062-.01953.42188h4.21094v-.74219h-3.33204l.08203-.28515.11329-.23438.14843-.20313.1875-.17968.23047-.17188.27735-.17578.71875-.41406.41406-.20703.34766-.23047.28125-.25.21875-.26953.16406-.27735.10937-.28515.0664-.28516.01954-.28125-.04297-.38281-.1211-.34766-.1875-.3086-.25-.26171-.30468-.21094-.34375-.16015-.38281-.09766-.40625-.03516-.4336.03516-.39843.09766-.35547.16406-.30469.23437-.2461.3047-.1875.375-.11718.4453-.03906.51954"/><path fill="#ffffe0" fill-rule="evenodd" d="M153.28125 472.3164h22.17969V462.125h-22.17969v10.1914"/><path fill-rule="evenodd" d="M156.78125 463.95703h.50781v6.29688h-.78515v-4.48829h-1.38672v-.55859l.5586-.0625.25-.05469.23046-.08984.20313-.14063.17578-.21093.14062-.29297.10547-.39844m4.8125 0l.23047.01953.21875.0586.20703.08593.19922.1211.1836.15234.17187.17578.30078.41797.24219.49219.17968.54687.11328.58204.03907.58984-.03906.59375-.11329.58203-.17968.55469-.2422.5039-.30077.42579-.17188.17968-.1836.15235-.19921.125-.20703.09375-.21875.05468-.23047.01954-.22656-.01954-.21875-.05468-.21094-.09375-.19531-.125-.1836-.15235-.17187-.17969-.30078-.42578-.24219-.5039-.17969-.55469-.11328-.58203-.03906-.59375h.83594l.02734.5625.08203.50781.125.4414.16406.375.19141.30079.20703.21875.22266.13672.22656.04687.22656-.04687.22266-.13672.21094-.21875.1914-.30078.16406-.375.125-.4414.08204-.50782.02734-.5625-.02734-.5625-.08203-.5-.125-.4336-.16407-.36718-.1914-.29297-.21094-.21485-.22266-.1289-.22656-.04688-.22656.04688-.22266.1289-.20703.21485-.1914.29297-.16407.36719-.125.43359-.08203.5-.02734.5625h-.83594l.03906-.58985.11328-.58203.17969-.54687.24219-.49219.30078-.41797.17187-.17578.1836-.15234.19531-.1211.21094-.08593.21875-.0586.22656-.01953m5.09375 0h.50781v6.29688h-.78515v-4.48829h-1.39063v-.55859l.5625-.0625.25-.05469.23047-.08984.20313-.14063.17578-.21093.14062-.29297.10547-.39844m2.82422 2.17578h.78516l.01953-.3164.05859-.28516.10156-.2539.14063-.21485.17969-.17188.22265-.1289.26563-.08203.30859-.02735.23828.02344.22266.0625.20312.10156.17969.13672.14844.17188.11328.20703.07422.23828.02344.26172-.02344.26953-.0625.22656-.11328.1914-.15235.16798-.20312.16406-.2461.16797-.6328.38672-.53907.3125-.4375.3164-.34766.32422-.26172.33594-.1914.35156-.125.3711-.07031.39453-.01954.41797h4.21094v-.7422H170.25l.08594-.28124.11328-.23828.14844-.20313.1875-.17969.23047-.17187.27734-.17578.71875-.41406.41406-.20704.34375-.23046.28125-.25.21875-.26954.16406-.27734.11328-.28125.0625-.28515.01954-.28125-.04297-.38672-.11719-.34766-.1914-.30469-.25-.26562-.30079-.21094-.34765-.16016L172 463.9922l-.40625-.03516-.4375.03516-.39453.09765-.35547.16797-.30469.23438-.25.30469-.1836.37109-.11718.44922-.03906.51562"/></g></defs><use xlink:href="#al"/></svg>