<svg xmlns="http://www.w3.org/2000/svg" role="img" xmlns:xlink="http://www.w3.org/1999/xlink" viewBox="142.45 309.95 326.84 171.84"><defs><clipPath id="a"><path d="M144 446h1v34.32813h-1zm0 0"/></clipPath><clipPath id="b"><path d="M144 311.67188h1V437h-1zm0 0"/></clipPath><clipPath id="c"><path d="M144 311.67188h324v168.65625H144zm0 0"/></clipPath><clipPath id="d"><path d="M434 477h7v3.32813h-7zm0 0"/></clipPath><clipPath id="e"><path d="M467 311.67188h1v168.65625h-1zm0 0"/></clipPath><clipPath id="f"><path d="M144 479h4v1.32813h-4zm0 0"/></clipPath><clipPath id="g"><path d="M153 478h8v2.32813h-8zm0 0"/></clipPath><clipPath id="h"><path d="M166 479h9v1.32813h-9zm0 0"/></clipPath><clipPath id="i"><path d="M173 480h3v.32813h-3zm0 0"/></clipPath><clipPath id="j"><path d="M180 479h8v1.32813h-8zm0 0"/></clipPath><clipPath id="k"><path d="M187 480h2v.32813h-2zm0 0"/></clipPath><clipPath id="l"><path d="M193 479h9v1.32813h-9zm0 0"/></clipPath><clipPath id="m"><path d="M200 480h2v.32813h-2zm0 0"/></clipPath><clipPath id="n"><path d="M206 479h9v1.32813h-9zm0 0"/></clipPath><clipPath id="o"><path d="M212 480h2v.32813h-2zm0 0"/></clipPath><clipPath id="p"><path d="M220 479h8v1.32813h-8zm0 0"/></clipPath><clipPath id="q"><path d="M227 480h2v.32813h-2zm0 0"/></clipPath><clipPath id="r"><path d="M233 479h8v1.32813h-8zm0 0"/></clipPath><clipPath id="s"><path d="M240 479h3v1.32813h-3zm0 0"/></clipPath><clipPath id="t"><path d="M246 480h9v.32813h-9zm0 0"/></clipPath><clipPath id="u"><path d="M253 480h3v.32813h-3zm0 0"/></clipPath><clipPath id="v"><path d="M260 478h8v2.32813h-8zm0 0"/></clipPath><clipPath id="w"><path d="M265 480h2v.32813h-2zm0 0"/></clipPath><clipPath id="x"><path d="M273 479h8v1.32813h-8zm0 0"/></clipPath><clipPath id="y"><path d="M279 480h2v.32813h-2zm0 0"/></clipPath><clipPath id="z"><path d="M286 478h9v2.32813h-9zm0 0"/></clipPath><clipPath id="A"><path d="M292 480h2v.32813h-2zm0 0"/></clipPath><clipPath id="B"><path d="M300 479h8v1.32813h-8zm0 0"/></clipPath><clipPath id="C"><path d="M306 480h2v.32813h-2zm0 0"/></clipPath><clipPath id="D"><path d="M313 478h8v2.32813h-8zm0 0"/></clipPath><clipPath id="E"><path d="M326 478h8v2.32813h-8zm0 0"/></clipPath><clipPath id="F"><path d="M343 476h2v4.32813h-2zm0 0"/></clipPath><clipPath id="G"><path d="M354 477h6v3.32813h-6zm0 0"/></clipPath><clipPath id="H"><path d="M366 478h8v2.32813h-8zm0 0"/></clipPath><clipPath id="I"><path d="M379 479h9v1.32813h-9zm0 0"/></clipPath><clipPath id="J"><path d="M380 478h2v2.32813h-2zm0 0"/></clipPath><clipPath id="K"><path d="M393 479h8v1.32813h-8zm0 0"/></clipPath><clipPath id="L"><path d="M407 477h6v3.32813h-6zm0 0"/></clipPath><clipPath id="M"><path d="M420 478h7v2.32813h-7zm0 0"/></clipPath><clipPath id="N"><path d="M435 476h4v4.32813h-4zm0 0"/></clipPath><clipPath id="O"><path d="M447 477h7v3.32813h-7zm0 0"/></clipPath><clipPath id="P"><path d="M461 477h5v3.32813h-5zm0 0"/></clipPath><clipPath id="Q"><path d="M144 465h4v4h-4zm0 0"/></clipPath><clipPath id="R"><path d="M144 452h4v4h-4zm0 0"/></clipPath><clipPath id="S"><path d="M144 439h4v3h-4zm0 0"/></clipPath><clipPath id="T"><path d="M144 426h4v2h-4zm0 0"/></clipPath><clipPath id="U"><path d="M466 424h2v3h-2zm0 0"/></clipPath><clipPath id="V"><path d="M144 413h4v2h-4zm0 0"/></clipPath><clipPath id="W"><path d="M465 410h3v3h-3zm0 0"/></clipPath><clipPath id="X"><path d="M144 399h4v2h-4zm0 0"/></clipPath><clipPath id="Y"><path d="M466 398h2v2h-2zm0 0"/></clipPath><clipPath id="Z"><path d="M144 386h4v2h-4zm0 0"/></clipPath><clipPath id="aa"><path d="M465 384h3v2h-3zm0 0"/></clipPath><clipPath id="ab"><path d="M144 373h4v2h-4zm0 0"/></clipPath><clipPath id="ac"><path d="M465 370h3v2h-3zm0 0"/></clipPath><clipPath id="ad"><path d="M144 359h4v3h-4zm0 0"/></clipPath><clipPath id="ae"><path d="M465 357h3v2h-3zm0 0"/></clipPath><clipPath id="af"><path d="M144 346h4v2h-4zm0 0"/></clipPath><clipPath id="ag"><path d="M466 344h2v3h-2zm0 0"/></clipPath><clipPath id="ah"><path d="M144 331h4v5h-4zm0 0"/></clipPath><clipPath id="ai"><path d="M466 332h2v3h-2zm0 0"/></clipPath><clipPath id="aj"><path d="M465 332h3v3h-3zm0 0"/></clipPath><clipPath id="ak"><path d="M144 318h4v5h-4zm0 0"/></clipPath><clipPath id="al"><path d="M465 317h3v3h-3zm0 0"/></clipPath><g id="am" clip-path="url(#clip1)"><path fill="#fff" fill-opacity="0" fill-rule="evenodd" d="M0 0h1000v1000H0zm0 0"/><path fill="#d3d3d3" fill-opacity="0" fill-rule="evenodd" d="M162.15234 355.86719l-.23437.29297.0586.23437.11718.17188.17578.23437.29297.34766.11328.0586.11719-.17188.0586-.23438.17577-.17578.46485-.17578h.69922l.23437.29297.28906.8164.0586.17579.17578.23046.35156.23438.69922.69922.17188.17578.23437.34765.23438.41016.28906.58203.41015.46485.23047.23437.23438.17578.11719.23047.17578.29297.17187 1.16406v.23438l.0586.28906.05859.11719.11719.11719.34765.41015.11719.17188.17578.17578.17578.23437.11719.17188.17188.35156.05859.23438.23437.40625.23438-.0586-.17578.17578-.0586.92969h-.58203l-.23437-.11328-.34766.11328-.11719.11719-.05859.29297-.0586.17578-.11718.17187-.46484.29297-.0586.23438-.0586.11328v.64453l.0586.17187v.41016l.0586.0586v.40624l.05859.40625.11719.17579.05859.05859.23047.64062-.0586.29297v.69922l-.05859.58203v.23438l-.0586.23047-.05468.35156v1.92187l.05469.1172h.42578l-.36719.11718-.02344.35156.89063 1.16797 1.74219.53906 1.33984.35938v.53906l.08984.8086.53516.71484 1.51953.26953.89063-.08594.08984 1.16406.53516.1797 1.16015-.1797 2.05469-.98437 1.16016-.36328 1.8789-.17578 1.69531-.1797-.17968.71876-1.51563.08594-1.25.08984-.80469.26953-1.07421.8086.26953.71875.53515.89843-.17968.625-.26563.8086.26563 1.07812.625.89844.80468.17969 1.25-.1797-.26562.72267.09766.5039.05468.29297v.17188l.0586.29296v.40625l.17578.1172.35156.11718h.40625l.29297-.17578.11328-.11719.0586-.11719.11718-.23047.0586-.17578.35156-.46484.23047-.17578.17578-.0586.17578.0586.0586.17578.11718.98828.05469.46875.0586.17188.11718.23437.17578.0586.8164.05859h.28907l.11719.23437.05859.40625.0586.35156v1.10547l.11718.29297.11719.34766.28906.69922.17578.35156.58203.7539.35157.17579.17187.0586.46875.23437.64063.46484.34765.23438.29297.17578.29297.05468.23047.0625.8164.34766.29297.17578.11328.17188.35157.35156.11719.17578.52343.64063v.28906l.0586.35156v.34766l.05859.35156.0586.28906.11718.0586.17188.05859h.17578l.58203.23437.17578.1172.17578.28905.17578.23438.11328.23437.29297.23047.11719.11719v.41016l.0586.05468.28906.23438.23437.11719.0586.11718.11718.17188.0586.11719.23047.23437.05859.17578.23437.0586.1172.05859-.1172.11328-.05859.11719v.11719l-.11719.29296-.11719.28907v.58203l.17579.11719.11718.05859.0586.11719.11719.11719.11328.05859.17578.34765.0586.35157.05858.40625v.17578l-.05859.17578-.11719.69922v.17187l.1172.17579.29296.29296h.40625l.17578.1172.11719.17187.11719.29296v.23438h-.52735l-.23047-.23438h-.23437l-.17578.0586-.0586.69922.0586.34765.11719.17579.17578.41015.11718.23047.28907.46875.17578.05469h.52344l.23437.0586.75781.64062.0586.29296v.23438l.05859.0586.23047.34765v.35156l-.11719.17188v.29297l.29297.28906.29297.17578.17187.0586.29297.17577.29297.1172.58203.40624.28906.23438.29297.17578.21875.16015.01563.01172.23047.17579.64062.52343.17578.23438.1172.17578.17577.17578.11328.17188v.64062l.1172.17578.46874.11719.58203.11719.23438.05859.23047.11328.29297.11719.11328.0586.58593.35156.28907.17187.17578.0625.17578.05469.17578.0586.69922.35155.28906.17579.23438.05468.28906.17578.23437.1172.64063.40624.29297.11719.17187.0586.23438.05859.41015.05859.23047.0586.23438.11718.0586.17188-.41017.17578.46875.0586.0586.29296.11328.23438.17578.05468.23438.0586.17578.05859.40625.11719.64062.23437.11719.17188.0586.23437v.17578l-.0586.1172-.0586.40624.23438.23438.11719.05859.34766.11719.64062.23047.17578.11718.28906.1172.17578.17577.23438.46485.58203 1.10546.17578.17579.34766.17578.17578.11719.35156.11718 1.04688.52344.23437.0586.46485.11327.29297.0586.46484.17578.75781.58203.23438.23438.34765.46484.17578.17578.28907.23438.8164.69921.29297.17579.28906.28906.29297.17578.29297.28906.69531.64063.17578.17578.29297.23437.28907.23438.46875.28906.64062.58203.34766.23438.23437.29297.34766.34765.35156.46485.9336.99218.34765.40625.11719.17579.23437.05859.11328.11719.64454.17578.23047.11328.23437.0586.29297.17577.23047.1172.9336.69921.40624.40625.23438.17578.40625.17578.23437.11719.8164.34766.34766.23437.23438.11719.29297.28906.23047.11719.7578.35156.35157.17188.23047.05859.29297.11719.23437.0586.8711.17577h.8164l.46875.23047.17188.0586.875.69921.46484.1172.29297.05858.17578.0586.23047.0586.46875.05859.34766.05859.35156.0586.40625.05859h.29297l.17187.0586v.23046l.17578.17578h.29297l.34766.0586.35156.05859.69922.11719h.64063l.46484-.23438.29297-.17578.17187-.11719.41016-.17187.28906-.17578.9336-.46485.46875-.29297.52343-.29296.46485-.17188.46484-.17578 1.05078-.46485.28906-.11718.41016-.11719.28906-.11719.52735-.17578 1.51562-.69922.58203-.34765.28907-.0586.29297-.0586.34765-.11718.875-.23047.35156-.11719h.11329l.23437-.05859.875-.23437.23438-.0586h.8125l.35156-.0586.8164-.11718.17188-.0586.35156-.05468.29297-.0586.23047-.05859.8164-.17578.17579-.0586h.34765l.23438-.05859.46484-.11718.75781-.17188.23438-.0586h.34765l.41016-.11718.28906-.0586 1.28516-.05859h.28906l.41016-.0586.23047-.05858h.17578l.875-.1172h.40625l.41015-.11718h.34766l.35156-.11328.8711-.0586h1.75l1.04687.28907.41016.11719.28906.11718.35156.11719.28907.11719 1.05078.17187.28906.0586h.29297l.29297.05859.17187.0586.41016.05859.17187.0586.1172.05858h.11718l.11719.0586.35156.0586h.11328l.41016.0664 1.92187.39453 1.92578.39453 1.51953.44922 1.69532.71875 2.14453.80469 1.60547-.71875 1.42968-.80469 1.16016-1.07813 1.25-.44921 3.03516-.71875 1.875-.35938 2.14453-1.34765 2.23437-1.25391 2.5-1.25781 1.69531-.44922 1.78516-.17969 1.16016-.26953.625.53906 1.33984-.26953.71485-.98828.98437-1.34375.44531-.17969.80469-.35937 1.875-.53907 1.78516-.44921 1.25-.26954 1.16015-.08984 1.69922-.08984 1.96094-.26954 1.25-.08984h.53906l.625-.08984h.89063l2.14453-.17969 2.41015-.17969 2.58985-.08984 1.69531.17969 1.60938.08984 1.42968.35938 1.16016.71875 1.875.98828 1.16015 1.52734.26563.71484.6289.08985.35548.89844.53515.53906.53516 1.52734 1.07422.35938h.53515l-.80469.53515.08985 1.70703.71484 2.69532.89063.80468.89453.98829.71484 1.2578 1.78516.53907 1.51953-.17969.35547 1.34375 1.60937-.80469.98047-.53906.26953.26953.31641-.21484.21875-.14453.80078.44922.44922-.35938h.35547l.53515-.26953.53907-.71875.53515-.26953.625-.98828 1.16016.44922.83984.3711 1.39454.61718 1.6953-.17969h1.60548l1.78515.08985.17969-1.70704.53516-1.34375.80468.26954.4922.84765.40233.40625-.08984.53906v.35938l.71485.44922.71093-.26953h1.42969l.35938.98828.4453 1.25781.71485 1.34375 1.25.6289 1.69531.62891.71485-.17969.17969-.53906.98046-.08984.44922.35937.08594 1.25782-.26563.6289-.53515.17969v.53906l.71484.98438.26563.53906.98437.98828.80078 1.07813-.26562.35937-.08985.89844-.625 2.33203-.35546 2.0664-.08985 1.79298-.17969.71875-.08984.53906v1.4375l-.98047 1.88281-.35937 1.70703-.53516.89844-.80469 1.16797-.26562.53906 2.05469 1.2539.08593.35938-.35546.53906-.08985-.17968v.80859l.08985 1.4375-.44532.71484-1.07422.09375-.26562.71485.53515.89844.8047.71875 1.16015.80859 1.33984.26953.44531.35938-.35546.44921-1.78907-.08984-1.25-.44922-.71484-.71875-.625-.08984-.17578 3.58984-.1875 1.3086h89.35937V311.70313h-55.26953v49.08203l.76172.125 3.28906.54296 2.02344 2.83594v2.7539l2.35156.33204 2.34766.33203h4.05078l-1.3789 4.16016-2.02344.70703-2.02344.70312-.54297.34375-2.59375 1.6172-.1875.11718-2.02344-2.07813-.73046-2.74218-2.67188-2.07813-1.375-3.5-.0664-.08203-1.95704-2.67188 2.75-1.41796v-49.08204H294.42187v91.41407l.1172.03125.1328.01172.07422.07421.10547.04688.08985.0586.08593.05859.08985.0586.29687.29687.0586.08984.03125.11719.02734.11719.01563.13671-.03125.1172-.0586.08983-.0586.08594-.04296.10547-.04688.10156-.02734.1211v.14453l.17578.26953.14844.14844.07422.08594.07422.07421.04296.10547.0625.08985.0586.08593.04297.10547.0586.08985.04687.10156.04296.10547.0586.08594.11719.17968.07421.07422.0625.08594.0586.08984.04297.10547.0586.08985.05858.08593.0625.08985.0586.08984.04297.10156.11719.17969.07421.07422.0586.08594.07422.07421.08984.0586.10547.04687h.14844l.1328-.01562.13282.01562.10156-.04687.07422-.07422.04688-.10156-.01563-.13281v-.14844l-.04687-.10547-.02735-.11719-.04687-.10156-.02735-.1211-.04296-.10156-.0625-.08984-.04297-.10156-.04297-.10547-.03125-.11719-.01563-.13281-.01171-.13672.08593-.0586.0586-.08593.12109-.03125.04297.10547.01562.1328v.1172l.0586.10156.0586.08984.08983.0586.14844.14843.0586.08985.04296.10547-.01171.10156.08593.0586.10547.04687.08594.0586.08984.05858.07422.07422-.11719.02735-.10546.04687-.08594.0586-.07422.07421-.0586.08985-.0625.08594-.02734.12109-.04687.10156-.04297.10547-.03125.11719-.01172.13281-.01563.13281v.14844l.02735.11719.04687.10547.04297.10156.0586.08984.07421.07422.08985.0586.07422.07421.08984.0586.0586.08984.04296.10547.04688.10156.11719.03125.1328.01563h.14845l.11718-.03125.10547.04297.04297.10547.04688.10156.02734.1211L299.5 410l.02734.11719.03125.1211.02735.11718.10547.04297.10156.04687.13281-.01562.14844.14844.0625.08593.07422.07422.07031.07422.08984.0625.10547.04297.10156.04297.1172.03125.13671.01562.11719-.03125.07422-.07422.02734-.11718-.01172-.13282-.03125-.12109-.02734-.11719.04297-.10547h.11719l.08984.0625.11719.02735h.14843l.13282.01562h.14843l.13282.01563.1328-.01563h.14845l.1328-.01562.13282-.01172.13672.01172.11719-.02735.13281-.01562.1914-.0586-.05859.17579-.01562.1328-.02735.1211-.01562.13281-.0586.08594-.1328.01563-.10548.04687-.10546.04297-.1172.03125-.11718.02735-.26563.03125h-.14843l-.13281.01562-.07422.07422.05859.08594.14844.14843.11719.1797.07421.0703.08985.0625.08984.0586.08594.0586.08984.05858.10156.04297.10547.0625.10547.04297.08594.0586.10547.04687.10156.04297.17969.11719.0586.08984-.04298.10156-.04687.10547.01562.13281.22266.22266.0586.08985.04296.10156.03125.1211.04297.10155.01563.13282.03125.11718.01171.13672.03125.11719.14844.14844.10156.04297.10547.04296.1172.03125.1328.01563.13672.01563h.11719l.11719-.03125.08984-.0586.04297-.10547.04688-.10156.04296-.10547.03125-.11719.01172-.1328v-.14845l-.01172-.1328-.01562-.13282-.03125-.11719-.04297-.10547-.04688-.10547-.04296-.10156-.04297-.10547-.01563-.13281.01563-.13281.02734-.11719.03125-.11719.02735-.1211.04687-.10155.08984-.0586.08594-.0625.07422-.07422.08984-.05859.22266-.22266.0586-.08593.07421-.07422.11719-.17969.0586-.08594v-.14844l-.07423-.07421-.10156-.04688-.10547-.04297-.10156-.04297-.0586-.08984-.04687-.10547-.02734-.11719.08984-.05859.11719-.03125.10156-.04297.17969-.11719.14844-.14843.01172-.13282-.01172-.10546-.08985-.0586-.1328.01563h-.14845l-.1328.01562-.13282-.01562-.1211-.03125-.08593-.0586-.07422-.07422-.0586-.08984-.0625-.08594-.11718-.17969-.0586-.08593.03125-.1211.08594-.05859.1211-.03125.05859-.08594v-.1211l-.03125-.11718-.0586-.08984-.05859-.08594-.04687-.10547-.02735-.11719-.01562-.1328.0586-.08985.07421-.07422.08984-.0586.1172-.17968.07421-.07422.0586-.08594.14843-.14844.1211-.03125.1328-.01562.13282.01562.07422.07422.04297.10547.01562.13281-.03125.1172-.11719.03124-.1328.01172-.14844.14844-.04297.10547-.04688.10156-.02734.1211-.03125.11718v.14844l.03125.11719.04297.10546.05859.08985.07422.07031.07422.07422.11719.03125.12109.02734.11719-.02734.1328-.01563h.1172l.08984.0586.07422.07422.04687.10546.0586.08594.10156.04688.13281.01562.10547.04297.08594.0586-.01172.10546-.07422.07422-.17969.11719-.05859.08984-.08984.0586-.07032.07422-.07421.07421-.0625.08985-.02735.11719-.01562.1328.01562.13282-.01562.13281v.14844l.01562.13281.02735.1172.03125.12108.07421.07422.08985.0586.08594.0586.08984.05858.11719.03125v.08594l-.10157.04688-.08984.0586-.26563.03124-.11718.02735h-.14844l-.10547.04296-.10156.04688-.0586.08984-.0625.23438-.01171.13281-.03125.1211-.01563.1328v.29298l-.01172.1328.01172.13673.01563.1328.1328.01563.13282.01172.1211.03125.08593.0586.07422.07421.04688.10547.04296.10157.01563.1328v.44532l-.01563.13281v.44532l.03125.26562.02735.11719.01562.13281.03125.11719.08594.21094.03125.26562v.14844l-.03125.11719-.02734.11718-.03125.1211-.02735.11719-.03125.11718-.03125.1211-.01171.1328-.01563.13282.08984.0586.1172-.03125.10155.01562.04688.10547-.03125.26562v.44141l-.04297.10547-.04688.10547-.04296.10156-.04297.10547-.0586.08594-.03125.12109-.04296.11719-.03125.11719-.01563.1328.01563.13282.05859.08984.10547.04688.08594.0586.05859.08593-.01172.13672-.03125.11719-.04297.10156v.44531l-.01562.13281v.14844l-.03125.11719-.04297.10547-.02735.11719-.04687.10546-.04297.10157-.03125.12109-.02734.11719-.03125.13281-.03125.11719-.02735.11719-.04297.10546-.03125.1172-.03125.12108-.01171.13282-.01563.13281v.29688l.02734.11718v.14844l.04688.39844.02734.11719.0586.08984.12109.03125h.14844l.13281-.01563.0586.08985v.11719l-.0586.08984-.08984.0586-.10157.04296-.10546.04688-.08985.05859-.08594.0586-.13671.01562-.1172-.03125-.1328-.01563-.10157.04688-.0625.08594-.01172.13671-.01562.13282-.03125.11719-.02735.11718-.01562.13281-.03125.1211v.29687l.01563.13282.03125.11718v.14844l.01171.13281v.14844l-.02734.11719-.04688.10156-.02734.1211-.03125.11718-.0586.08985-.07421.07421-.10156.04297-.10547.04688-.11719.02734-.1211.03125-.10156-.04687.0586-.08594.10547-.04688.02734-.11718.03125-.11719.02734-.1211.03125-.11718v-.14844l.01563-.13281-.03125-.11719-.04297-.10547-.10547.01563-.07422.07422-.10156.04296-.08984.0625-.07422.07422-.04297.10157-.01563.1328-.03125.1172L304.25 426l-.03125.11719-.02734.11719-.03125.12109-.02735.11719-.03125.11718-.04297.10547-.08984.0586h-.08984l-.1172-.03125-.03124-.08594.01562-.13672-.03125-.11719v-.14844l-.01171-.1328v-.14844l-.0625-.23438-.02735-.1211-.04297-.10156-.04687-.10546-.0586-.08594-.05859-.08985-.04297-.10546-.0625-.08594-.14844-.14844-.0703-.07422-.10548-.04687-.10547-.04297-.10156-.04297-.29687-.29688-.08985-.07421-.08594-.0586-.10546-.04297-.08985-.0625-.08594-.0586-.10546-.04296-.08985-.0586-.08594-.0625-.07421-.0703-.10547-.04688-.08594-.0586-.10547-.04296-.08984-.0625-.10156-.04297-.10547-.04297-.08594-.0586-.10547-.04687-.10547-.04297-.10156-.04687-.08985-.0586-.10156-.04297-.10547-.04296-.08984-.0625-.11719-.02735-.13281-.01562-.13281.01562H299.75l-.13281.01563-.11719-.03125-.08984-.0586-.07422-.07422-.08985-.05859-.10156-.04688h-.14844l-.12109-.02734-.10156-.04297-.07422-.07422-.11719-.17968-.08984-.0586-.10156-.04297-.08985-.0625-.10547-.04296-.08984-.0586-.08594-.0586-.10547-.04687-.0586-.08594-.05858-.08984-.04297-.10547-.04688-.10156-.07422-.07422-.08594-.0586-.07421-.07421-.08985-.0586-.22265-.22265-.04297-.10547-.03125-.26563.10547-.04296h.14453l.10547.04296.07421.07422.08985.0586.08594.0586.10546.04687.08985.05859.14844.14844.0703.07422.14845.14843.0625.08594.07421.07422.08594.0586.07422.07421.08985.0625.08984.0586.08594.05859.26953.17578.10156.04688.10547.04296.10156.04297.04688-.07421.05859-.08594.07422-.07422.07031-.07422.10547.04297.07422.07422.0586.08984.04296.10156.04688.10547.04296.10547.1211.02735.11719-.02735.07421-.08984.04297-.10547.0586-.08985.07422-.07421.10546-.04297.1172-.02735.1328.01172.08985.0586.14844.14843.05859.08985.04297.10547.04687.10156.04297.10547.04297.10156.10547.04688.10547.04296.13281.01563.08594-.0586.0586-.08984.07421-.07422.10547-.04297.11719.02735.10547.04687.10156.04297.10547.04297.10156.04688.17969.11718v.11719l-.01563.13281.01563.13281.01562.13672.0586.08594.10156.04688.1211.02734.11718.03125h.14844l.11719-.03125.05859-.08984.17969-.1172.05859-.08983.07422-.07422.0586-.08594.11718-.17969.17969-.11719.11719.03125.08984.0586.04297.07422-.01563.1328v.1172l.08985.05859h.14843l.13282-.01563.1328-.01171.26563-.03125.10547-.04297.11719-.03125.1211-.02735.07421-.07421.07031-.07422.0625-.08985-.01562-.10547-.04688-.10156-.10156-.04297-.10547-.01562-.11718.02734-.26563.03125h-.14844l-.07421-.07422-.08985-.0586-.11719-.03124-.11718-.02735-.13282-.01562h-.14843l-.13282.01563h-.29687l-.10547-.04688-.14844-.14844-.04297-.10156-.05859-.08984.22266-.22266.08593-.0586.10547-.04296.11719-.03125.13281-.01563.13281.01563.13672.01562.10157.04297.1328-.01172.08985-.0625.10156-.04297.0625-.08984-.04687-.10156-.08984-.0586-.1172-.03125-.10155-.04296-.0586-.08985-.0625-.08984v-.11719l.01563-.13281.10547-.04688.07421-.07031v-.1211l-.08984-.05859-.03125-.11719.08985-.05859.07421-.07422.04297-.10547.0586-.08984.04687-.10156.01563-.13281v-.14844l-.04688-.10547-.04297-.10156-.08984-.0586-.13281-.01562-.10157-.04297-.13671-.01563-.1172-.03125h-.4453l-.13282-.01562-.13281-.01172-.13281-.01563-.11719-.03125h-.14844l-.13281-.01562-.13281-.01172-.26563-.03125-.1211-.04297-.08593-.0586-.07422-.07421v-.14844l.01172-.13281.10547-.04688.10156-.04296.13281-.01563h.15235l.13281-.01562h.29297l.1211.03125.10156.04296.08984.0586.23438.0625.12109-.04688.08984-.05859.10156-.04297.13282-.01562.10547.04296.10156.04688.13281.01172.1211-.02735h.14453l.12109-.03125.11719-.02734.10547-.04687.07421-.07422.08594-.0586.14844-.14843.0586-.08594.04687-.10547.02734-.11719.01563-.10547-.10156-.04296-.08985-.0586-.11719-.03125-.10546-.04297-.08985-.0625-.07422-.08594-.07422-.07421-.10156-.04297-.10547-.04688-.10156-.04297-.0586-.08984-.04687-.10156-.08594-.21094-.0625-.08594-.05859-.08984-.07422-.07422-.08594-.0586h-.26953l-.11719.03126-.08984.05859-.10156.04297-.13281.01562-.10547-.01562-.02735-.11719-.0625-.08984-.11718-.03125-.10157-.04297-.14843-.14844-.03125-.11719-.01563-.10546.07422-.07422.17969-.1172.11719-.02733.11718-.03125.13672.01562.10156.04297.10547.04297.10156.04687.10547.04297.1172.03125.1328.01563.1172.02734.1328.01563.10547-.01563.08985-.0586-.07422-.07421-.10547-.04297-.07422-.07422-.07422-.08984-.14844-.14844-.08593-.0586-.08985-.05859-.07422-.07422-.08984-.0586-.10156-.04687-.1211-.02734-.10156-.04688-.10547-.04296-.11719-.03125-.10156-.04297-.1211-.03125h-.14843l-.11719.03125-.10546.04297-.08594.0625-.17969.11718-.08594.0586-.08984.0586-.10547.04687-.08594.05859-.10547.04297-.10156.04297-.10547.04687-.07422.07422-.05859.08985-.0586.08593-.04687.10547-.0586.08594-.07421.07422-.13281-.01172-.1172-.03125h-.11718l-.07422.07422-.08984.0586-.07422.07421-.08984.0586-.08594.05859-.10547.04687-.10156.04297-.13672.01563-.10156-.04297-.14844-.14844-.10547-.04688h-.08594l-.10547.04688-.10156.04297-.1211.03125-.11718-.03125-.07422-.07422v-.11719l.03125-.1211.07422-.0703.0586-.08985.07421-.07422.11719-.03125.10547-.04296h.29297l.13281-.01563.13672-.01563.10156-.04296.08985-.0586.10156-.04687.08984-.0586.13281-.01171.08985.05859.13281.01172.08984-.0586.08594-.05859.10547-.04297.08984-.0586.08594-.0625.08985-.05859.14843-.14843.0586-.08594.05859-.08985.10547-.04296.13281-.01563.11719.02735.1211.03125.05859-.0586.05859-.08984.03125-.26563.02734-.11719.10547.01172.13281.01563.10157-.04297.08984-.0586.0586-.08984.07421-.07422.0586-.08984.04687-.10156.01172-.13281-.01172-.13282-.04687-.10547-.14844-.14843-.0586-.08985-.05859-.08594-.04297-.10546v-.44532l.01563-.1328v-.14845l.01172-.1328-.0586-.0586-.08984.0586-.10156-.04298-.17969-.11719-.08594-.05859-.0625-.08984-.0586-.08985-.07421-.07421-.08594-.0586-.1211.03125-.10155.01172-.10547.04688-.08594.05859-.10547.04297-.14844.14844-.08984.05859-.08594.0586-.08984.0625-.10547.04296-.13281.01563v-.1211l.10547-.04297.11718-.03125.07422-.0703.04297-.10548v-.14844l-.02734-.11718-.14844-.14844-.13281-.01563h-.14844l-.11719.03125-.10547.04297-.10156.04297-.08984.0625-.11719.02735-.07422-.07422.01172-.13281-.04297-.10157-.04297-.10547-.08984-.05859-.11719.02734-.1211.03125-.11718.03125-.10156.04297-.1211.03125-.10156.04297-.10547.04297-.08984.0586-.10156.01562v-.11719l.01562-.13281-.0586-.08985-.07421.04297-.14844.14844-.0586.08985-.07421.07421-.04688.10547-.04296.10156-.07422.07422-.0586.08985-.07422.07422-.05859.08593-.07422.07422-.08984.0625-.07422.07031-.07422.07422-.10156.01563-.13281.01562-.10547-.04296v-.1211l.14843-.14844.04297-.10156.0586-.08984.04687-.10156.04297-.10547.0586-.08985.03124-.11719.04297-.10156.03125-.1211.02735-.11718.04687-.10547.04297-.10156.04297-.10547.07422-.07031.08984-.0625.08985-.0586.10156-.04296h.29687l.26563-.03125.10547-.04297-.07422-.07422-.11719-.03125-.10547-.04297-.08984-.0586-.10156-.04687-.08985-.0586-.10156-.04296-.10547-.04297-.08984-.0625-.08594-.0586-.10547-.04296-.10156-.04297-.1211-.03125-.11718-.03125-.10157-.04297L297.5 410.25l-.10156-.04297-.08985-.0586-.04296-.10546-.01563-.13281.10156-.04297.13281-.01563.13672.01563.13282-.01563.10156-.04297.0586-.08984.01562-.10547-.08985-.0586-.07421-.07421-.10157-.04297-.08984-.0586-.14844-.14843-.04297-.10547-.01562-.13281v-.29297l-.0586-.08985-.08984-.05859-.07422-.07422-.04297-.10547-.03125-.11718-.0586-.08985-.07421-.07422-.11719-.02734-.07422-.07422-.08984-.0586-.08984-.0625-.08594-.05859-.07422-.07421-.0586-.08594-.04687-.10547-.08594-.0586-.14843-.14843-.19532-.0586-.1328.01563-.10157.04297-.07422.07422-.04688.10156-.04296.10547-.0586.08984-.0586.08594-.29687.29687-.08984.0586h-.08594l-.0625-.08594-.04297-.10547.03125-.11719.0586-.08984.02734-.11719-.01172-.13281-.08984-.0625-.10547.04688-.11719.02734-.11719.03125-.26953.17578-.10156.04688-.11719.02734-.10546.04687-.08985.0586-.10156.04297-.0586-.08594-.04687-.10547.01563-.13281.04687-.10547.07031-.07422.07422-.07031.0586-.08985v-.14843l-.04297-.10547h-.23829l-.10156.04687-.03125.11719-.02734.11719-.03125.1211-.07422.04296-.13281.01563-.07422-.04688-.04297-.10156-.04297-.10547-.04687-.10156-.04297-.10547-.1211.03125-.10156.04297-.13281.01562-.11719.03125-.10547.04297-.08984.0586-.10156.04687-.1211.02734-.13281.01563-.10156-.04297-.0586-.08985-.04687-.10546-.04297-.10157-.04297-.10546v-.1172l.0586-.08984.08593-.05859.17969-.11719.10156-.04687.10547-.04297.10547-.0586.10156-.04296.08985-.0625.10156-.04297.10547-.0586.10156-.04687.08984-.0586.10547-.04296.10156-.04297.08985-.0625.10156-.04297.13672-.01563.11719.03125.10156.04297.1211.03125.10156.04297.10546.04688.10157.04296.10547.04297.10156.04688.10547.04297.10156.04297.10547.04687.08594.0586.10546.04296.1172.03125.10546.04297.10156.04688.08985.0586.10547.04296.10156.04297.10547.04687.11719.02735.10156.04687.1211.02735h.14843l.08594-.0586.01562-.10156.0586-.08984-.02735-.1172-.07422-.07421-.11719-.17969-.07421-.07422-.08985-.07421-.17969-.1172-.08593-.05859-.10547-.04296-.10156-.04688-.26954-.17578-.05859-.08985-.07422-.07421-.0586-.08985-.04296-.10156-.03125-.11719-.01563-.13672v-.5625l-.01171-.1328-.01563-.13282-.03125-.11719-.01562-.13281-.01172-.13281-.03125-.1211-.22266-.22265-.0586-.08594-.01562-.10547.03125-.11719.13281-.01562v-91.41406H172.9922v1.45312l-.0586.23438-.35156 1.05078-.17187.52343-.1172.34766-.17577.41016-.11719.17187-.23438.29297-.23046.0586h-.35157l-.11718.05859-.23047.40625v.29297l.11719.17578.23046.23047.1172.23437.64062.75781.29297.46485.17578.23437.23047.35156.23437.34766.64063.8164.17578.46485.17187.41016.11719.69531.17578.46875.11719 1.39844.0586.46484v.875l.11718 1.04688v4.78125l-.0586.46484-.35156 1.28125-.17578.52344-.11328.41015-.35156.9297L172.93359 336l-.23437.58203-.11719.17578-.17187.34766-.17578.40625-.35157.8164-.0586.29297-.11327.29297-.11719.28906-.0586.17579-.11718.875-.0586.40625-.05859.11718-.0586.17579-.05859.17187-.23047.52734-.11718.17188v.23437l-.11719.23438-.0586.17187-.17577.58594v.28906l-.0586.17579v.29296l-.0586.11329-.05859.52734v.17187l-.05468.23438v2.6211l-.17578.8164-.1172.17578-.17577.23438-.1172.17187-.11327.23438-.58594.93359-.23047.28906-.29297.46485-.17578.23437-.28906.35156-.35156.69922-.11328.23047-.17579.41016-.17578.23046-.40625.52735-.8164.69922-.29297.17187-.28906.23438-.17579.11719-.17578.17578-.52344.40625-.52734.17578-.17187.17578-.23438.05469-.64062.17578h-.75782m12.21094 31.02344l-1.07422.44921.35938.89454 1.25-.71485.44531-.53906-.98047-.08985"/><path fill="#d3d3d3" fill-opacity="0" fill-rule="evenodd" d="M201.50781 416.59766h-.89453l.44922.6289.98047.35938.80469-.08985.4453-.98828-.17577.08985-.71485-.35547-.89453.35547m154.6211 59.0703l-.0586-.52343v-.29297l.11328-.29297.0586-.23046.46875-.46875h.11328l.11719-.11329.11718-.05859h.17579l.23437-.0586h.34766l.23437.0586.11719.0586.23047.17187.0586.17578.11718.58203v.29297l-.11719.17578-.17187.28906-.17579.17579-.52734.52343-.23047.23438-.11719.0586h-.17578l-.11718-.0586-.40625-.29297-.17579-.11719-.11718-.0586-.0586-.11327-.05468-.1172m6.64062-10.95702l-.0586-.17188v-1.10937l.0586-.17188.17578-.0586.17188-.05858h.17578l.23437-.0586.1172.0586.05858.69921-.05859.17188-.11719.17578-.11718.0586-.23438.52343-.11328.0586h-.23438l-.05859-.1172m9.61328-14.39062l-.11719-.17578v-.69922l.29297-.875.1172-.17187.17577-.35156.11328-.23047.1172-.29297.35155-.75781.1172-.23047.17187-.23438h.17578l.11719-.0586h.64062l.11719.0586.23437.23438.17188.11328.35156.29297.11719.11718.11328.17579v.11328l.11719.05859.11718.11719v.69922l-.05859.17578v.23047l-.0586.17578-.34765 1.05078-.11719.23047-.11719.23437-.11718.0586-.23047.23437-.64063.28906h-.875l-.41015-.11718-.64063-.46485"/><path fill="none" stroke="#bebebe" stroke-linecap="round" stroke-linejoin="round" stroke-miterlimit="10" stroke-width=".5" d="M467.95703 311.69531H144.02734v168.625h323.9297v-168.625"/><g clip-path="url(#a)"><path fill="#fff" fill-opacity="0" fill-rule="evenodd" d="M144 475.89063v4.4375h.0039H144v-34.14844 29.71094"/></g><g clip-path="url(#b)"><path fill="#fff" fill-opacity="0" fill-rule="evenodd" d="M144 435.94531v.74219-125.01563h.0039H144v124.27344"/></g><path fill="#50fcfc" fill-rule="evenodd" d="M144 443.25v2.92969l.0039.0039v-2.9375L144 443.25"/><path fill="#00e8fc" fill-rule="evenodd" d="M144 438.17578V443.25l.0039-.0039v-5.06641l-.0039-.0039"/><path fill="#50fcfc" fill-rule="evenodd" d="M144 436.6875v1.48828l.0039.0039v-1.48827L144 436.6875"/><g clip-path="url(#c)"><path fill="#fff" fill-opacity="0" fill-rule="evenodd" d="M144.0039 480.32813v-34.14454l2.27344 3.07813 2.16016 3.6875 1.21875.75.33594 4.4375 2.88281 1.64062 4.4414-.10546 4.4375 2.68359 4.4375-.48047 2.29688.69922 2.14063 1.34375 2.44922-1.34375 1.98828-.60547 4.4414.39844.88672.20703 3.55078 1.2461 4.4375-.6875 3.74219-.5586.69531-.01953 4.4414-.2461 4.4375-.33203 4.4375-.42578 4.4375-.04297 4.44142.9375.5664.1289 3.8711.88282 1.4414-.88281 2.9961-2.91016 4.09765-1.52734.33984-.1914 3.8672-4.2461.5703-.34766 4.44141-1.91406 4.4375-1.17969 4.4375-.5586 1.125-.4375 3.3125-1.60546 4.4375-2.10547.92578-.73047 3.51563-3.8711 1.61719-.5664-1.6172-1.67969-2.67577 1.6797-1.76563 1.1914-4.4375 1.53125-1.60156-2.72266 1.15234-4.4375.44531-4.4375-.80078-4.4375-3.6328-3.65234-4.4375-.2461-4.4375-.5-4.21485-.04296-.22656-.10157-4.4375-4.05078-4.4375-.17969-4.4375.2461-4.4375 1.625-3.33594 2.46094-1.10547.35156-4.4375.8125-4.4375 1.17969-3.13281 2.09765-1.3047.26953-4.4414.47657-4.4336 3.6914h-.0039l-4.4375.2461-4.4375 1.10546-3.33984 3.08594-1.10156.16797-4.4375.89063-4.14063 3.3789-.29687.0664-4.4375.22267-4.4375 3.61718-2.03125.53125-2.41016.65235-4.4375.16406-1.44531-.8164.55469-4.4375-3.54297-3.69141V311.67187h142.02343v108.1875l-3.66406 2.76954-.77344 3.3203-2.79296 1.1211-1.64454.29297-4.4414 1.5664-4.26563 2.57813 4.26563 3.55469 1.44922.88281 2.07421 4.4375.91797.17578 3.42188 4.26172-3.42188 3.71485-.35546.72656.35546.85156 4.4375 1.29688 4.4375-.82032 1.37891-1.32812 3.0586-2.6836v9.875l-2.19141 1.6836-2.2461.91015-4.4375 1.72657-2.82421 1.80078 2.82421 2.17187 1.0547 2.26954 3.3828 3.02343 3.92579-3.02344.51171-2.82421.57813-1.6172.84765-4.4375-1.42578-1.68358v-9.875l3.0625-1.75782-3.0625-2.58203-2.3203-1.85547 2.3203-.75781 3.17188-3.67969 1.26562-3.51953 4.44141-.30469 2.54688-.61328-.38282-4.4375-2.16406-1.55078-3.8789 1.55078-.5625 1.03516-.11329-1.03516-4.32422-3.875-.91015-.5664-3.52735-2.76954v-108.1875h35.50782v141.375l-1.875.65235-2.5625 3.27734-4.44141-1.85937-4.4375 1.07422-4.4375.45312-.67969 1.49219.67969.45312 4.4375.72657 4.4375.51171 4.4414-1.4453.60548-.2461 3.83203-3.34375 2.03515 3.34375 2.40235.89844 1.14453-.89844-1.14453-3.9336-1.40235-.5039-3.03515-.65235v-141.375h13.3125v108.45704l-4.4375 2.26953-.53907.23047.53907.09765 4.4375.98047 4.4414 1.28906.11328 2.07422 4.32422 3.09766 1.67969 1.33984-.8789 4.4375 3.63671 3.4961.86328.9414 3.57422 4.08594 4.4414-.24219 2.6836.59375L357.04296 447l-4.4414-.3711-2.64062 2.63282 2.64062 3.21875 3.85156 1.21875.58985.09765.3711-.09765 4.0664-1.73438 2.5039-2.70312 1.9336-1.08985 4.4375-1.33203.875 2.42188 1.22656 4.4375 2.33594 3.5586 4.4414.5078.1797.3711-.1797 3.14062-3.53906 1.29688 3.53906.10937 4.4375 3.00391 3.05079 1.32813 1.38671 2.58593 4.4375.58985 4.07813-3.17579.35938-.73437 1.92578-3.70703-.32813-4.4375-.9414-4.4375.16796-4.4375-.13671-4.4414-.6875-.38282-4.4375-1.67578-4.4375-1.1914-3.57032-1.1875.2539-4.4375-1.12108-1.13673-2.98829-3.30078-1.44921-4.20312-4.44141 2.79297-.35156 1.41015-2.89454 4.4375-1.1914.35547-3.90625 4.08203-.53125.72656-.77735-.72656-3.66015-4.0586-4.4375.1836-1.21094-.5625-3.23047-2.86719-1.09765-1.5703-3.33985-3.47657-.72656-.96094-3.71094-3.28125-4.08984-1.16015-.34766-.91407-4.4414-1.58593V311.67187h26.6328v113.98438l-2.41405 1.41406 2.41406 1.85547 2.03515-1.85547-2.03515-1.41406V311.67187h106.51562v168.65625h-27.84765l-3.21875-2.51953-2.6875 2.51954H144.0039"/></g><path fill="#50fcfc" fill-rule="evenodd" d="M146.27734 449.26172l-2.27343-3.07813v-2.9375l2.11328-2.86328-2.11328-2.20312v-1.48828l3.54297 3.6914-.5547 4.4375 1.44532.8164 4.4375-.16405 2.41016-.65235 2.03125-.53125 4.4375-3.61719 4.4375-.22265.29687-.0664 4.14063-3.37891 4.4375-.89063 1.10156-.16797 3.33984-3.08594 4.4375-1.10546 4.4375-.2461h.0039l4.4336-3.6914 4.4414-.47657 1.3047-.26953 3.1328-2.09765 4.4375-1.1797 4.4375-.8125 1.10548-.35155 3.33594-2.46094 4.4375-1.625 4.4375-.2461v1.38282l-4.4375.20703-3.78516 2.74219-.65234 1.17968-4.44141.8086-4.4375 1.03515-2.86328 1.41797-1.57422.7461-4.4375.64453-4.4414.57812-2.96095 2.46875-1.47656.45703-4.4375.34375-4.4375 2.89063-.8086.7461-3.6328.55859-4.4375 2.19921-2.0586 1.6797-2.3789.52734-4.4375.55468-3.64844 3.35547-.3164 4.4414.17968 4.4375.91797 4.4375L161.7539 460.5l4.4375-.88672 4.4375 1.19531 4.4375-1.42968 4.4414-.25782 4.4375 1.64454 4.4375.3164 4.4375-.33594 4.4414-.78125 4.4375-.30078 3.3711-1.52734 1.0664-1.4414 4.4375-1.33204 4.44142.7461 4.4375.15234 2.67968-2.5625 1.75781-2.92969 1.50391-1.50781 2.80078-4.4414-4.28906-4.4375-.01563-.01563-4.4375-2.78125-2.60937-1.64063-.85156-4.4375 2.85156-4.4375.60938-.3125.36328.3125 4.07422 3.3086.95703 1.1289 3.48047 2.80469v1.32422l-2.08594.3086 2.08594 1.68359.55468-1.6836-.55469-.3086v-1.32421l2.92579 1.63281 1.51172 2.23438 4.4414.63281 3.01563 1.57031 1.42187 1.23828v2.80079l-2.86719.39843 2.8672 3.02344 2.4375-3.02344-2.4375-.39844v-2.80078l4.10155-1.23828.33594-.10547 2.3711-4.33203-.5586-4.4375.03516-4.4375-1.84766-1.85547-4.4375-.5039-4.4375-.90235-4.4414.4375-4.4375-1.11328-1.00782-.5039-3.42969-2.94922v-1.38281l4.4375.17968 4.4375 4.05078.22657.10157 4.21484.04296 4.4375.5 4.4375.2461 3.63281 3.65234.80078 4.4375-.4453 4.4375-1.15235 4.4375 1.60156 2.72266 4.4375-1.53125 1.76563-1.1914 2.67578-1.6797 1.61719 1.6797-1.6172.5664-3.51562 3.8711-.92578.73046-4.4375 2.10547-3.3125 1.60547-1.125.4375-4.4375.5586-4.4375 1.17968-4.4414 1.91406-.57032.34766-3.86719 4.2461-.33984.1914-4.09766 1.52734-2.99609 2.91016-1.4414.88281-3.8711-.88281-.5664-.1289-4.44141-.9375-4.4375.04296-4.4375.42578-4.4375.33203-4.4414.2461-.69532.01953-3.74219.5586-4.4375.6875-3.55078-1.2461-.88672-.20703-4.4414-.39844-1.98828.60547-2.44922 1.34375-2.14063-1.34375-2.29687-.69922-4.4375.48047-4.4375-2.6836-4.44141.10547-2.88281-1.64062-.33594-4.4375-1.21875-.75-2.16016-3.6875"/><path fill="#00e8fc" fill-rule="evenodd" d="M146.11719 440.38281l-2.11328 2.86328v-5.0664l2.11328 2.20312m11.85156 13.3164l-.17969-4.4375.3164-4.4414 3.64845-3.35547 4.4375-.55468 2.3789-.52735 2.0586-1.67969 4.4375-2.19921 3.6328-.5586.8086-.7461 4.4375-2.89062 4.4375-.34375 1.47656-.45703 2.96094-2.46875 4.4414-.57812v1.86328l-4.4414.75781-.50781.42578-3.92969 1.21485-4.4375.5039-3.48437 2.71875-.95313.79688-4.4414.40625-4.10157 3.23437-.33593.85156-4.4375.44141-4.4375 1.11328-2.21094 2.03125-.28125 4.4414.3086 4.4375 2.18359 3.78517 4.4375-1.78125 2.88672-2.00391 1.55078-.64063 4.4375-.85156 1.91406 1.49219 2.52734 1.4375 4.4375.10937 3.33203 2.89063 1.10547.3086 2.04297-.3086 2.39453-.69922 4.4414-1.07031 3.00392-2.66797-3.00391-4.41016-.03906-.02734.03906-.14063 2.53516-4.30078 1.90234-1.3711 4.4375-.39452 4.4375-1.42578.85937-1.2461-.71875-4.4375-.13672-4.4375-.0039-.02344-.01953.02344-4.41797 1.25781-1.33203-1.2578-3.10547-.71094-4.4375-.47266v-1.86328l4.4375-.64453 1.57422-.7461 2.86328-1.41797 4.4375-1.03515 4.4414-.8086.65235-1.17968 3.78516-2.7422 4.4375-.20702v2.30469l-4.4375.14453-.69532.5.69531.7578 4.32422 3.6836.11328.08985 3.69532 4.34765.74219.59766 4.4375 2.1875 4.24609 1.65234.19531.07813 4.4375 1.55469 3.47656-1.63282-1.63672-4.4375-1.83984-3.71484-.44531-.72266-3.99219-1.3711-4.4414 1.25-4.4375-2.47655-3.6875-1.84375-.75-.64454v-2.30468l3.42968 2.94922 1.00781.5039 4.4375 1.11328 4.44141-.4375 4.4375.90235 4.4375.5039 1.84766 1.85547-.03516 4.4375.5586 4.4375-2.3711 4.33203-.33594.10547-4.10156 1.23828-1.42187-1.23828-3.01563-1.57031-4.4414-.63281-1.51172-2.23438-2.92578-1.63281-3.48047-2.80469-.95703-1.1289-4.07422-3.3086-.36328-.3125-.60938.3125-2.85156 4.4375.85156 4.4375 2.60938 1.64063 4.4375 2.78125.01562.01562 4.28906 4.4375-2.80078 4.4414-1.5039 1.50782-1.75782 2.92969-2.67969 2.5625-4.4375-.15235-4.4414-.74609-4.4375 1.33203-1.0664 1.4414-3.3711 1.52735-4.4375.30078-4.4414.78125-4.4375.33594-4.4375-.3164-4.4375-1.64454-4.44141.25782-4.4375 1.42968-4.4375-1.1953-4.4375.88671-2.8672-2.36328-.91796-4.4375"/><path fill="#00d4fc" fill-rule="evenodd" d="M159.57031 453.69922l-.3086-4.4375.28126-4.4414 2.21094-2.03126 4.4375-1.11328 4.4375-.4414.33593-.85157 4.10157-3.23437 4.4414-.40625.95313-.79688 3.48437-2.71875 4.4375-.5039 3.92969-1.21485.50781-.42578v1.79297l-4.4375.60547-4.4375.66797-2.30469 1.79687-2.1328 1.78125-4.44141.07031-3.28125 2.58594-1.15625 2.9414-4.4375-.8828-4.4375 1.67187-.77344.70703-.2461 4.4414.4336 4.4375.58594 1.01563 1.875-1.01562 2.5625-3.3086 4.4375.29688 2.63672-1.42578 1.80078-1.96094 3.8789-2.48047.5625-.1211 4.4375-.0039v.47266l-2.16406 4.09375 2.16406 1.8086 4.4375-.55079 1.57813-1.25781-1.57813-1.64063-4.4375-2.45312v-.47266l4.4375-1.42578 4.4375-1.45312 1.54297-1.4336 2.89844-2.2539 2.14844-2.1836-2.14844-2.14453-4.4414-.92578v-1.79297l4.4414-.75781 4.4375.47265 3.10547.71094 1.33203 1.25781 4.41797-1.2578.01953-.02344.0039.02343.13672 4.4375.71875 4.4375-.85937 1.2461-4.4375 1.42578-4.4375.39453-1.90234 1.3711-2.53516 4.30077-.03906.14063.03906.02734 3.0039 4.41016-3.0039 2.66797-4.4414 1.07031-2.39454.69922-2.04297.3086-1.10547-.3086-3.33203-2.89063-4.4375-.10937-2.52734-1.4375-1.91406-1.49219-4.4375.85156-1.55078.64063-2.88672 2.0039-4.4375 1.78125-2.1836-3.78515"/><path fill="#00c4fc" fill-rule="evenodd" d="M161.16797 453.69922l-.4336-4.4375.2461-4.4414.77344-.70704 4.4375-1.67187v.76953l-3.63672 1.60937 3.63672 3.1836 3.91406-3.1836-3.91406-1.60937v-.76953l4.4375.8828 1.15625-2.9414 3.28125-2.58594 4.4414-.0703 2.13281-1.78126 2.3047-1.79687 4.4375-.66797v.75781l-4.4375.82813-1.125.8789-3.3125 2.76953-4.44141-.26953-2.46094 1.9375 2.46094 3.82813 4.4414-1.11328 4.4375-1.11329 2.4961-1.60156 1.9414-.75 4.4375-1.51562 2.40625-2.17188-2.40625-1.34375-4.4375-.36328v-.75781l4.4375-.60547 4.4414.92578 2.14845 2.14453-2.14844 2.1836-2.89844 2.2539-1.54297 1.4336-4.4375 1.45312-4.4375 1.42578-4.4375.0039-.5625.1211-3.8789 2.48047-1.80078 1.96094-2.63672 1.42578-4.4375-.29688-2.5625 3.3086-1.875 1.01562-.58594-1.01562"/><path fill="#00b8fc" fill-rule="evenodd" d="M166.1914 448.0039l-3.63671-3.18359 3.63672-1.60937v.76562l-1.90625.84375 1.90625 1.66797 2.05078-1.66797-2.05078-.84375v-.76562l3.91406 1.60937-3.91406 3.1836"/><path fill="#00a8fc" fill-rule="evenodd" d="M166.1914 446.48828l-1.90624-1.66797 1.90625-.84375v.76953l-.17578.07422.17578.15625.1875-.15625-.1875-.07422v-.76953l2.05078.84375-2.05078 1.66797"/><path fill="#009800" fill-rule="evenodd" d="M166.1914 444.97656l-.17577-.15625.17578-.07422.1875.07422-.1875.15625"/><path fill="#00b8fc" fill-rule="evenodd" d="M175.0664 444.21094l-2.46093-3.82813 2.46094-1.9375v.64453l-1.63672 1.29297 1.63672 2.55078 4.4414-1.4375 2.78906-1.11328-2.78906-.6836-4.4414-.60937v-.64453l4.4414.26953 3.3125-2.76953 1.125-.8789 4.4375-.82813v.75781l-4.27734.94922 4.27734 2.05078 3.76953-2.05078-3.76953-.94922v-.7578l4.4375.36327 2.40625 1.34375-2.40625 2.17188-4.4375 1.51562-1.9414.75-2.4961 1.60156-4.4375 1.11329-4.4414 1.11328"/><path fill="#00a8fc" fill-rule="evenodd" d="M175.0664 442.9336l-1.63671-2.55079 1.63672-1.29297v.64844l-.81641.64453.8164 1.27344 3.39454-1.27344-3.39453-.64453v-.64844l4.4414.60938 2.78906.6836-2.78906 1.11327-4.4414 1.4375"/><path fill="#009800" fill-rule="evenodd" d="M175.0664 441.65625l-.8164-1.27344.8164-.64453 3.39454.64453-3.39453 1.27344"/><path fill="#00c4fc" fill-rule="evenodd" d="M183.94531 451.07031l-2.16406-1.8086 2.16406-4.09374 4.4375 2.45312 1.57813 1.64063-1.57813 1.25781-4.4375.55078"/><path fill="#00a8fc" fill-rule="evenodd" d="M188.38281 437.9961l-4.27734-2.05079 4.27734-.94922v.75782l-.86719.1914.8672.41406.76562-.41406-.76563-.1914v-.75782l3.76953.94922-3.76953 2.05078"/><path fill="#009800" fill-rule="evenodd" d="M188.38281 436.35938l-.86719-.41407.8672-.1914.76562.1914-.76563.41406"/><path fill="#00d4fc" fill-rule="evenodd" d="M219.45313 423.38672l-.69532-.75781.69531-.5 4.4375-.14454.75.64454 3.6875 1.84375v1.33593l-2.18359 1.26172 2.1836 2.5 4.20703 1.9375.23047.10547 4.4414 1.30469 1.9336-1.41016-1.9336-2.76562-4.4414 2.58594-2.23438-4.25782-2.20313-1.26172v-1.33593l4.4375 2.47656 4.44141-1.25 3.99219 1.3711.44531.72265 1.83984 3.71484 1.63672 4.4375-3.47656 1.63281-4.4375-1.55468-.19531-.07813-4.2461-1.65234-4.4375-2.1875-.74218-.59766-3.69531-4.34765-.11329-.08985-4.32422-3.6836"/><path fill="#00c4fc" fill-rule="evenodd" d="M228.32813 429.57031l-2.1836-2.5 2.1836-1.26172 2.20312 1.26172 2.23438 4.25781 4.4414-2.58593 1.9336 2.76562-1.9336 1.41016-4.4414-1.30469-.23047-.10547-4.20703-1.9375"/><path fill="#fff" fill-opacity="0" fill-rule="evenodd" d="M228.32813 435.63672l-2.08594.3086 2.08594 1.68359.55468-1.6836-.55469-.3086m13.31641 8.78517l-2.86719.39843 2.8672 3.02344 2.4375-3.02344-2.4375-.39844"/><path fill="#50fcfc" fill-rule="evenodd" d="M272.71094 435.0625l-4.26563-3.55469 4.26563-2.57812 4.4414-1.5664 1.64454-.29298 2.79296-1.1211.77344-3.3203 3.66406-2.76954v3.03907l-2.875 4.17187-1.5625 2.1289-3.01953 2.3086 3.01953 4.39063.15235.04687 4.28515 1.23438 4.4375-.36719.75-.86719 1.32813-4.4375-.5039-4.4375-1.57423-1.41015-4.4375-2.76172v-3.03906l3.52735 2.76953.91015.5664 4.32422 3.875.11328 1.03516.5625-1.03516 3.87891-1.55078 2.16406 1.55078.38281 4.4375-2.54687.61328-4.4414.3047-1.26563 3.51952-3.17188 3.67969-2.3203.75781 2.3203 1.85547 3.0625 2.58203-3.0625 1.75781-3.05859 2.6836-1.3789 1.32812-4.4375.82032-4.4375-1.29688-.35548-.85156.35547-.72656 3.42188-3.71485-3.42188-4.26172-.91796-.17578-2.07422-4.4375-1.44922-.88281"/><path fill="#00e8fc" fill-rule="evenodd" d="M281.58984 435.89844l-3.01953-4.39063 3.01953-2.3086 1.5625-2.1289 2.875-4.17187v4.03125l-.09375.14062-3.46875 4.4375 3.5625 2.92188 3.3086-2.92188-3.08985-4.4375-.21875-.14062v-4.03125l4.4375 2.76172 1.57422 1.41015.5039 4.4375-1.32812 4.4375-.75.86719-4.4375.36719-4.28515-1.23438-.15235-.04687"/><path fill="#50fcfc" fill-rule="evenodd" d="M281.58984 464.7461l-2.82421-2.17188 2.82421-1.80078 4.4375-1.72656v5.625l-.72265 2.34375.72265.64062.83594-.64063-.83594-2.34375v-5.625l2.2461-.91015 2.1914-1.6836 1.42579 1.6836-.84766 4.4375-.57813 1.61719-.51171 2.82421-3.92579 3.02344-3.3828-3.02344-1.0547-2.26953"/><path fill="#00d4fc" fill-rule="evenodd" d="M286.02734 434.42969l-3.5625-2.92188 3.46875-4.4375.09375-.14062v2.89062l-1.32421 1.6875 1.32421 1.08594 1.23047-1.08594-1.23047-1.6875v-2.89062l.21875.14062 3.08985 4.4375-3.3086 2.92188"/><path fill="#00c4fc" fill-rule="evenodd" d="M286.02734 432.59375l-1.32421-1.08594 1.32421-1.6875 1.23047 1.6875-1.23047 1.08594"/><path fill="#00e8fc" fill-rule="evenodd" d="M286.02734 467.65625l-.72265-.64063.72265-2.34375.83594 2.34375-.83594.64063"/><path fill="#50fcfc" fill-rule="evenodd" d="M303.78125 458.58984l-.67969-.45312.67969-1.49219 4.4375-.45312 4.4375-1.07422 4.4414 1.85937 2.5625-3.27734 1.875-.65235 3.03516.65235 1.40235.5039 1.14453 3.9336-1.14453.89844-2.40235-.89844-2.03515-3.34375-3.83204 3.34375-.60546.2461-4.44141 1.4453-4.4375-.51171-4.4375-.72657m26.6289-35.86328l-.53906-.09765.53907-.23047 4.4375-2.26953 4.4414 1.58593.34766.91407 4.08984 1.16015 3.71094 3.28125.72656.96094v5.26172l-1.23828 2.65234 1.23828 1.1914 2.97266 3.2461 1.46484 1.67578 4.4414-1.65234.04688-.02344-.04687-.02344-4.4414-2.33984-2.39844-2.07422-2.03907-2.65234v-5.26172l3.33985 3.47656 1.09765 1.57031 3.23047 2.8672 1.21094.5625 4.4375-.1836 3.66015 4.0586.77735.72656.53125-.72657 3.90625-4.08203 1.1914-.35547 2.89454-4.4375.35156-1.41015v18.28125l-.59766.8828.59766.95704.58203-.95703-.58203-.88281v-18.28125l4.4414-2.79297v18.82812l-.98828 3.1289.98829 2.25 1.69921-2.25-1.69921-3.1289V427.3047l1.44921 4.20312 2.98829 3.30078v17.4336l-1.09375 1.45703 1.09375 1.9336.36328 2.5039-.29688 4.4375 4.3711 3.11719 4.4375.59765 3.48437-3.71484-.91016-4.4375-2.57421-4.14844-4.4375.32422-3.10157-.61328-1.33594-1.45703v-17.4336l1.1211 1.13672-.2539 4.4375 3.5703 1.1875 4.4375 1.1914 4.4375 1.67579.6875.38281.13672 4.4414-.16796 4.4375.9414 4.4375.32813 4.4375-1.92579 3.70704-.35937.73438-4.07813 3.17578-4.4375-.58985-1.38671-2.58594-3.05079-1.32812-4.4375-3.0039-3.53906-.10938 3.53906-1.29688.1797-3.14062-.1797-.3711-4.4414-.5078-2.33594-3.5586-1.22656-4.4375-.875-2.42188-4.4375 1.33204-1.9336 1.08984-2.5039 2.70312-4.0664 1.73438-.3711.09765-.58985-.09765-3.85156-1.21875-2.64062-3.21875 2.64062-2.63281 4.4414.37109 2.6836-2.17969-2.6836-.59375-4.4414.24219-3.57422-4.08594-.86328-.9414-3.63672-3.4961.87891-4.4375-1.67969-1.33984-4.32422-3.09766-.11328-2.07422-4.4414-1.28906-4.4375-.98047"/><path fill="#00e8fc" fill-rule="evenodd" d="M348.16406 437.13672l-1.23828-1.1914 1.23828-2.65235 2.03906 2.65234 2.39844 2.07422 4.4414 2.33985.04688.02343-.04687.02344-4.4414 1.65234-1.46485-1.67578-2.97266-3.2461"/><path fill="#50fcfc" fill-rule="evenodd" d="M361.48047 428.92578l-2.41406-1.85547 2.41406-1.41406 2.03515 1.41406-2.03515 1.85547"/><path fill="#00e8fc" fill-rule="evenodd" d="M374.79297 450.21875l-.59766-.95703.59766-.88281.58203.8828-.58203.95704"/><path fill="#fff" fill-opacity="0" fill-rule="evenodd" d="M379.23438 446.13281l-.98829 3.1289.98829 2.25 1.69921-2.25-1.69921-3.1289"/><path fill="#00e8fc" fill-rule="evenodd" d="M383.67188 455.63281l-1.09375-1.9336 1.09375-1.45702 1.33593 1.45703 3.10156.61328v2.02344l-1.91796 1.80078 1.35937 4.4375.5586.39844 4.4375 1.21484 1.51171-1.61328-1.51171-3.19531-1.11329-1.2422-3.32421-1.80077v-2.02344l4.4375-.32422 2.57421 4.14844.91016 4.4375-3.48438 3.71484-4.4375-.59765-4.37109-3.1172.29688-4.4375-.36329-2.5039"/><path fill="#00d4fc" fill-rule="evenodd" d="M387.55078 462.57422l-1.35937-4.4375 1.91796-1.80078 3.32422 1.80078 1.11329 1.24219 1.51171 3.1953-1.51171 1.61329-4.4375-1.21484-.5586-.39844"/><g clip-path="url(#d)"><path fill="#50fcfc" fill-rule="evenodd" d="M434.24219 480.32813l2.6875-2.51954 3.21875 2.51954h-5.90625"/></g><g clip-path="url(#e)"><path fill="#fff" fill-opacity="0" fill-rule="evenodd" d="M467.9961 480.32813H468V311.67188h-.0039H468v168.65625h-.0039"/></g><path fill="#fff" fill-opacity="0" fill-rule="evenodd" d="M240.875 426.64453l5.33203 2.39063 4.07422-9.08985-5.32813-2.39062-4.07812 9.08984"/><path fill-rule="evenodd" d="M247.39453 420.66016l.46484.20703-2.57421 5.7461-.71875-.32423 1.83593-4.09375-1.26562-.57031.22656-.50781.53906.17187.25.05469.2461.01172.2461-.04688.24218-.12109.25-.21094.25781-.3164"/><path fill="#fff" fill-opacity="0" fill-rule="evenodd" d="M148.3125 463.85938l5.66406 1.42578 2.4336-9.66016-5.66797-1.42578-2.42969 9.66015"/><path fill-rule="evenodd" d="M153.6914 456.83203l.4922.125-1.53516 6.10156-.76563-.1914 1.09766-4.35156-1.34766-.33985.13672-.53906.5586.07422.2578.00781.2422-.03125.23437-.08594.21875-.16015.21094-.25391.19922-.35547"/><path fill="#fff" fill-opacity="0" fill-rule="evenodd" d="M326.04688 427.02344l5.72656 1.15234 1.96484-9.76562-5.72656-1.14844-1.96485 9.76172"/><path fill-rule="evenodd" d="M331.08203 419.7461l.5.10156-1.24219 6.17187-.77343-.15625.88671-4.40234-1.36328-.27344.11329-.54297.55859.04688.25781-.00391.24219-.04297.23047-.09765.21094-.17188.1953-.26172.1836-.36719"/><path fill="#fff" fill-opacity="0" fill-rule="evenodd" d="M200.6211 454.8711l3.02734-7.32032-9.41797-3.89453-3.02734 7.32031 9.41796 3.89453"/><path fill-rule="evenodd" d="M193.84375 449.38672l1.25781-3.03906.6836.28515-1.00782 2.4375 1.57813.90235-.0625-.26954-.01953-.30078.04297-.33203.11328-.36719.15234-.28906.20703-.28125.26172-.2539.32031-.20313.3711-.14062.20312-.04297.21875-.01563.23047.0039.24219.03517.2539.0664.26954.09375.39453.20313.34765.2539.28907.30469.22265.35156.14453.39453.03907.20704.01562.21875-.00781.22656-.03125.23047-.0625.24218-.08594.2461-.21484.41797-.2461.32812-.27734.2461-.30469.17187-.32422.10547-.33984.04687-.35547-.01171-.35937-.0547.30078-.72656.24219.01563.23437-.01563.21484-.04296.19532-.07813.17968-.10547.15625-.14062.13282-.17188.10547-.20703.09765-.30078.03906-.28516-.01562-.27343-.07422-.25391-.13672-.23828-.19531-.21094-.25781-.1875-.32032-.16015-.25-.08204-.26562-.04296-.26953-.00391-.26563.05078-.2539.10156-.23047.16406-.20313.23047-.16015.29688-.09766.32812-.00781.30079.07031.32421.1289.39063-.26562.64062-2.98828-1.73437"/><g clip-path="url(#f)"><path fill="none" stroke="#000" stroke-linecap="round" stroke-linejoin="round" stroke-miterlimit="10" stroke-width=".5" d="M147.3711 481.3164l-6.7422-1.97656"/></g><g clip-path="url(#g)"><path fill="none" stroke="#000" stroke-linecap="round" stroke-linejoin="round" stroke-miterlimit="10" stroke-width=".5" d="M160.6289 481.4961L154 479.16405"/></g><g clip-path="url(#h)"><path fill="none" stroke="#000" stroke-linecap="round" stroke-linejoin="round" stroke-miterlimit="10" stroke-width=".5" d="M174.10156 480.86719l-6.94531-1.07422"/></g><g clip-path="url(#i)"><path fill="none" stroke="#000" stroke-linecap="round" stroke-linejoin="round" stroke-miterlimit="10" stroke-width=".5" d="M174.10156 480.86719l.8086 2.3164"/></g><g clip-path="url(#j)"><path fill="none" stroke="#000" stroke-linecap="round" stroke-linejoin="round" stroke-miterlimit="10" stroke-width=".5" d="M187.45313 480.53516l-7.01563-.41407"/></g><g clip-path="url(#k)"><path fill="none" stroke="#000" stroke-linecap="round" stroke-linejoin="round" stroke-miterlimit="10" stroke-width=".5" d="M187.45313 480.53516l1.02343 2.23047"/></g><g clip-path="url(#l)"><path fill="none" stroke="#000" stroke-linecap="round" stroke-linejoin="round" stroke-miterlimit="10" stroke-width=".5" d="M200.76172 480.60938l-7.0039-.5586"/></g><g clip-path="url(#m)"><path fill="none" stroke="#000" stroke-linecap="round" stroke-linejoin="round" stroke-miterlimit="10" stroke-width=".5" d="M200.76172 480.60938l.97656 2.25"/></g><g clip-path="url(#n)"><path fill="none" stroke="#000" stroke-linecap="round" stroke-linejoin="round" stroke-miterlimit="10" stroke-width=".5" d="M213.94531 481.32422l-6.73828-1.99219"/></g><g clip-path="url(#o)"><path fill="none" stroke="#000" stroke-linecap="round" stroke-linejoin="round" stroke-miterlimit="10" stroke-width=".5" d="M212.96484 481.03516l.2461 1.19922"/></g><g clip-path="url(#p)"><path fill="none" stroke="#000" stroke-linecap="round" stroke-linejoin="round" stroke-miterlimit="10" stroke-width=".5" d="M227.375 480.78125l-6.96875-.90625"/></g><g clip-path="url(#q)"><path fill="none" stroke="#000" stroke-linecap="round" stroke-linejoin="round" stroke-miterlimit="10" stroke-width=".5" d="M227.375 480.78125l.86328 2.29688"/></g><g clip-path="url(#r)"><path fill="none" stroke="#000" stroke-linecap="round" stroke-linejoin="round" stroke-miterlimit="10" stroke-width=".5" d="M240.71094 480.09766l-7.01172.46093"/></g><g clip-path="url(#s)"><path fill="none" stroke="#000" stroke-linecap="round" stroke-linejoin="round" stroke-miterlimit="10" stroke-width=".5" d="M240.71094 480.09766l1.29297 2.08984"/></g><g clip-path="url(#t)"><path fill="none" stroke="#000" stroke-linecap="round" stroke-linejoin="round" stroke-miterlimit="10" stroke-width=".5" d="M254.03516 480.32031l-7.02735.01953"/></g><g clip-path="url(#u)"><path fill="none" stroke="#000" stroke-linecap="round" stroke-linejoin="round" stroke-miterlimit="10" stroke-width=".5" d="M254.03516 480.32031l1.15625 2.16016"/></g><g clip-path="url(#v)"><path fill="none" stroke="#000" stroke-linecap="round" stroke-linejoin="round" stroke-miterlimit="10" stroke-width=".5" d="M267.14453 481.51563l-6.61719-2.375"/></g><g clip-path="url(#w)"><path fill="none" stroke="#000" stroke-linecap="round" stroke-linejoin="round" stroke-miterlimit="10" stroke-width=".5" d="M266.17969 481.17188l.17578 1.21093"/></g><g clip-path="url(#x)"><path fill="none" stroke="#000" stroke-linecap="round" stroke-linejoin="round" stroke-miterlimit="10" stroke-width=".5" d="M280.53125 481.28125l-6.76172-1.90234"/></g><g clip-path="url(#y)"><path fill="none" stroke="#000" stroke-linecap="round" stroke-linejoin="round" stroke-miterlimit="10" stroke-width=".5" d="M279.54688 481.0039l.26171 1.19923"/></g><g clip-path="url(#z)"><path fill="none" stroke="#000" stroke-linecap="round" stroke-linejoin="round" stroke-miterlimit="10" stroke-width=".5" d="M293.75781 481.5586l-6.58203-2.46094"/></g><g clip-path="url(#A)"><path fill="none" stroke="#000" stroke-linecap="round" stroke-linejoin="round" stroke-miterlimit="10" stroke-width=".5" d="M292.80078 481.20313l.15625 1.21484"/></g><g clip-path="url(#B)"><path fill="none" stroke="#000" stroke-linecap="round" stroke-linejoin="round" stroke-miterlimit="10" stroke-width=".5" d="M307.28516 480.58203l-7.00782-.5039"/></g><g clip-path="url(#C)"><path fill="none" stroke="#000" stroke-linecap="round" stroke-linejoin="round" stroke-miterlimit="10" stroke-width=".5" d="M306.26563 480.50781l.49609 1.1211"/></g><g clip-path="url(#D)"><path fill="none" stroke="#000" stroke-linecap="round" stroke-linejoin="round" stroke-miterlimit="10" stroke-width=".5" d="M320.33594 481.6914l-6.48047-2.72656"/></g><g clip-path="url(#E)"><path fill="none" stroke="#000" stroke-linecap="round" stroke-linejoin="round" stroke-miterlimit="10" stroke-width=".5" d="M333.64453 481.69922l-6.46875-2.74219"/></g><g clip-path="url(#F)"><path fill="none" stroke="#000" stroke-linecap="round" stroke-linejoin="round" stroke-miterlimit="10" stroke-width=".5" d="M343.4414 483.83203l.56641-7.0039"/></g><g clip-path="url(#G)"><path fill="none" stroke="#000" stroke-linecap="round" stroke-linejoin="round" stroke-miterlimit="10" stroke-width=".5" d="M354.64063 482.89453l4.80078-5.13281"/></g><g clip-path="url(#H)"><path fill="none" stroke="#000" stroke-linecap="round" stroke-linejoin="round" stroke-miterlimit="10" stroke-width=".5" d="M367.11328 481.67578l6.48828-2.69531"/></g><g clip-path="url(#I)"><path fill="none" stroke="#000" stroke-linecap="round" stroke-linejoin="round" stroke-miterlimit="10" stroke-width=".5" d="M380.24219 479.5664l6.85937 1.52735"/></g><g clip-path="url(#J)"><path fill="none" stroke="#000" stroke-linecap="round" stroke-linejoin="round" stroke-miterlimit="10" stroke-width=".5" d="M381.23828 479.78906l-.32422-1.1836"/></g><g clip-path="url(#K)"><path fill="none" stroke="#000" stroke-linecap="round" stroke-linejoin="round" stroke-miterlimit="10" stroke-width=".5" d="M393.63281 479.28516l6.70703 2.08593"/></g><path fill="none" stroke="#000" stroke-linecap="round" stroke-linejoin="round" stroke-miterlimit="10" stroke-width=".5" d="M394.60938 479.58984l-.23047-1.20703"/><g clip-path="url(#L)"><path fill="none" stroke="#000" stroke-linecap="round" stroke-linejoin="round" stroke-miterlimit="10" stroke-width=".5" d="M407.86719 477.79297l4.86719 5.07031"/></g><path fill="none" stroke="#000" stroke-linecap="round" stroke-linejoin="round" stroke-miterlimit="10" stroke-width=".5" d="M408.57813 478.53125l.3828-1.16406"/><g clip-path="url(#M)"><path fill="none" stroke="#000" stroke-linecap="round" stroke-linejoin="round" stroke-miterlimit="10" stroke-width=".5" d="M420.74219 478.3086l5.75 4.03906"/></g><path fill="none" stroke="#000" stroke-linecap="round" stroke-linejoin="round" stroke-miterlimit="10" stroke-width=".5" d="M421.57813 478.89844l.15234-1.21875"/><g clip-path="url(#N)"><path fill="none" stroke="#000" stroke-linecap="round" stroke-linejoin="round" stroke-miterlimit="10" stroke-width=".5" d="M435.42188 477.15625L438.4414 483.5"/></g><path fill="none" stroke="#000" stroke-linecap="round" stroke-linejoin="round" stroke-miterlimit="10" stroke-width=".5" d="M435.85938 478.07813l.73046-.98438"/><g clip-path="url(#O)"><path fill="none" stroke="#000" stroke-linecap="round" stroke-linejoin="round" stroke-miterlimit="10" stroke-width=".5" d="M447.67188 477.9375l5.14843 4.78125"/></g><path fill="none" stroke="#000" stroke-linecap="round" stroke-linejoin="round" stroke-miterlimit="10" stroke-width=".5" d="M448.42188 478.63281l.3125-1.1836"/><g clip-path="url(#P)"><path fill="none" stroke="#000" stroke-linecap="round" stroke-linejoin="round" stroke-miterlimit="10" stroke-width=".5" d="M461.65234 477.3789l3.82032 5.89844"/></g><path fill="none" stroke="#000" stroke-linecap="round" stroke-linejoin="round" stroke-miterlimit="10" stroke-width=".5" d="M462.20703 478.23828l.59766-1.07422"/><g clip-path="url(#Q)"><path fill="none" stroke="#000" stroke-linecap="round" stroke-linejoin="round" stroke-miterlimit="10" stroke-width=".5" d="M147.38281 467.96484l-6.76562-1.90234"/></g><path fill="none" stroke="#000" stroke-linecap="round" stroke-linejoin="round" stroke-miterlimit="10" stroke-width=".5" d="M147.38281 467.96484l.51953 2.39844m12.65625-2l-6.48828-2.69922m6.48828 2.69922l.23047 2.44531m13.16797-2.66797l-6.65625-2.2539m5.6875 1.92578l.19922 1.21094m14.17188-1.17969l-6.82813-1.66016m5.83594 1.41797l.30078 1.1875m14.10547-1.86328l-7.02735.17578m6.00391-.14844l.60156 1.06641m13.67969-1.63281l-6.91406 1.2539m5.91015-1.0703l.75782.96093m13.47265-1.51953l-6.73437 2.0039m5.7539-1.71093l.86328.8711m13.21094-1.72657l-6.29297 3.1289m5.37891-2.67578l.9961.71485m13.32421-.96875l-6.47265 2.73047m6.47265-2.73047l1.90235 1.54687m11.67187.17969l-6.99219-.72266m5.97266.6172l.46094 1.13671m13.40625.38672l-6.0586-3.5586m5.1797 3.03907l-.0547 1.22656m14.16797-.57813l-5.89844-3.8164m5.04297 3.26172l-.10547 1.22265m14.81641-2.14453l-6.97656-.86328m5.96094.73828l.4375 1.14453m13.80468-2.33984l-6.80078 1.77734m5.8125-1.51562l.82813.90234m13.39453-1.42969l-6.63672 2.3086m5.67187-1.97266l.89844.83203m12.9336-2.03906l-5.7422 4.05078m4.90626-3.46094l1.09375.55079m12.02734-2.10547l-3.6836 5.98047m3.14845-5.10938l1.22265.07422m7.32031 1.46875l6.9336 1.15234m6.34375-.82812l7.00781.5039m-5.98828-.42968l-.4961-1.1211m13.14454-.2539l6.30078 3.10547m-5.38672-2.65235l-.03516-1.22656m13.34766-.3789l4.48047 5.41015m-3.83203-4.625l.46875-1.13281m13.4961-.33203l1.8789 6.76953m-1.60547-5.78516l.89062-.84375m11.58594.07031l3.01172 6.34766m-3.01172-6.34766l1.46484-1.96875m11.46094 2.1836l3.79297 5.91797m-3.79297-5.91797l1.19922-2.13672m11.95313 2.25l4.11718 5.6914m-3.51953-4.86328l.53906-1.10156"/><g clip-path="url(#R)"><path fill="none" stroke="#000" stroke-linecap="round" stroke-linejoin="round" stroke-miterlimit="10" stroke-width=".5" d="M147.22266 455.09375l-6.44532-2.79297"/></g><path fill="none" stroke="#000" stroke-linecap="round" stroke-linejoin="round" stroke-miterlimit="10" stroke-width=".5" d="M146.28516 454.6875l.09765 1.22266m13.85156-.25782l-5.83984-3.90625m4.99219 3.33594l-.125 1.22266m13.20703.38672l-3.67969-5.98438m3.14453 5.11328l-.62109 1.0586m14.83594-.44141l-4.40625-5.47656m18.65625 4.3164l-6.27735-3.15625m19.90625.92578l-6.90625 1.3047m19.94141-2.16798l-6.34375 3.02735m5.41797-2.58594l.98828.73047m12.6914-2.00781l-5.22265 4.70312m4.46484-4.01953l1.15235.42188m13.73828.48046l-6.85938 1.52735m5.86328-1.30469l.79688.9336m13.49219.46484l-6.8125-1.71485m5.82031 1.46485l.29688 1.1914m14.03906-1.0625l-6.8711-1.46875m6.8711 1.46875l.67578 2.35938m12.60156-2.19531l-6.79297-1.80079m6.79297 1.80079l.5586 2.39062m12.82421-2.69922l-6.92968-1.17968m6.92968 1.17968l.76953 2.32813m12.58204-3.1875l-7.00391.53515m7.0039-.53515l1.31641 2.07422m11.66406-3.32813l-6.33203 3.04688m6.33203-3.04688l1.97657 1.44922m10.04297-2.89844l-3.7422 5.94531m3.19923-5.08203l1.22265.08985m10.98828-1.48828l-.44921 7.01171m.3828-5.99218l1.1172-.5039m11.23046-.42579l1.6211 6.83594m-1.38672-5.84375l.92187-.8086m11.1211.2461l3.6914 5.97656m-3.15234-5.10938l.61719-1.05859m12.67578-.07422l2.66016 6.5039m-2.27344-5.55468l.78515-.94531m13.84375-.2461l-.73828 6.98829m.62891-5.96875l1.13672-.46094m11.98437-.57422l-.13672 7.02344m.1172-6.0039l1.09374-.5547m10.2539.10157l3.83985 5.88671m-3.83984-5.88671l1.1875-2.14844m10.58594 4.48828l6.92187 1.21094m-6.92187-1.21094l-.76172-2.33594m14.75.80469l5.57812 4.27344m-4.76562-3.65235l.19922-1.21093"/><g clip-path="url(#S)"><path fill="none" stroke="#000" stroke-linecap="round" stroke-linejoin="round" stroke-miterlimit="10" stroke-width=".5" d="M147.32813 441.50781l-6.65625-2.25"/></g><path fill="none" stroke="#000" stroke-linecap="round" stroke-linejoin="round" stroke-miterlimit="10" stroke-width=".5" d="M146.35938 441.1836l.19921 1.20702m14.01953-.70312l-6.52343-2.60938m5.57422 2.23047l.1328 1.21875m12.76563.8125l-3.79687-5.91406m3.2461 5.05469l-.60157 1.07031m14.08594 0l-3.03125-6.33594m2.58984 5.41407l-.72656.98828m10.375-.86328l5.1875-4.7422m8.4414 5.04688l4.5586-5.34765m11.57812-.79688l-1.08593 6.9414m16.05859-6.21093l-4.39844 5.48047m3.75781-4.6836l1.20313.22657m8.64453-1.23438l3.8164 5.90235m-3.26171-5.04297l.59766-1.07422m17.52343 2.51563l-6.90625 1.29687m5.90235-1.10937l.76562.96093m13.5625.09766l-6.92578-1.19531m5.91797 1.02343l.38281 1.16407m13.74219-2.89063l-6.52735 2.60156m5.57813-2.22265l.9336.79297m13.53515-.42188l-6.9375 1.10156m6.9375-1.10156l1.47656 1.96094m11.76953-2.28906l-6.80078 1.7578m6.80078-1.7578l1.66016 1.80859m11.38672-2.51953l-6.26563 3.17969m6.26563-3.1797l2.00781 1.41407m10.625-2.34375l-4.89844 5.03906m4.89844-5.03906l2.35547.6836m8.9414-1.64844l-.86328 6.97265m.73829-5.96093l1.14453-.4375m10.54297-.34375l2.64062 6.51171m-2.64062-6.51171l1.57421-1.88282m11.25782 2.1211l3.60937 6.03125m14.21485-5.25781l-5.41016 4.48437m5.41016-4.48437l2.26953.93359m11.11328-.85156l-5.54297 4.3203m5.54297-4.3203l2.23828 1.0039m11.17578-.86328l-5.7461 4.04297m5.7461-4.04297l2.1914 1.10938m10.75391-1.5547l-5.0039 4.9336m5.0039-4.9336l2.33985.73438m-3.0664-.01953L439.875 439m12.73437-1.21484l-4.72656 5.1953m4.72656-5.1953l2.37891.60547m11.20703-.33204l-5.26562 4.65235m4.5-3.97657l1.14843.4297"/><g clip-path="url(#T)"><path fill="none" stroke="#000" stroke-linecap="round" stroke-linejoin="round" stroke-miterlimit="10" stroke-width=".5" d="M147.50781 427.27734l-7.01562-.41797"/></g><path fill="none" stroke="#000" stroke-linecap="round" stroke-linejoin="round" stroke-miterlimit="10" stroke-width=".5" d="M146.48828 427.21875l.50781 1.11328m13.3672-3.00781l-6.09767 3.48828m5.21094-2.98047l1.03906.65235m10.23438-2.92579l-.23828 7.01953m16.54297-1.875l-6.21875-3.26562m5.3164 2.78906l.00391 1.22656m12.26953.9297l-2.33203-6.62891m1.99219 5.66406l-.82813.90234m14.58985.02344l-2.54297-6.55078m2.17187 5.59766l-.80078.92968m9.73438-2.77343l6.96093-.95704m7.67578 3.25391l4.31641-5.54687m-3.6875 4.73828l-1.20703-.21094m13.73438.88672l4.6328-5.28516m9.44923 5.79688l3.09765-6.3086m-2.64453 5.39063l-1.22656.03906m12.9961.03906l5.28515-4.6289m-4.51563 3.95703l-1.14843-.4336m17.15625 2.20704l-1.63672-6.83204m1.39844 5.83985l-.92188.8125m16.34375-.97656l-5.3789-4.51954m4.59765 3.86329l-.2539 1.19921m14.20703-5.22656l-5.08985 4.84766m4.34766-4.14063l1.16406.38672m12.98438-.99219l-5.27344 4.64454m5.27344-4.64454l2.29687.86329m10.66016-1.21485l-4.5547 5.34766m4.5547-5.34766l2.39843.52735m11.28125-.16797l-5.28515 4.6289m4.51562-3.95312l1.14844.4336m12.48438-1.53907l-4.38282 5.48828m3.7461-4.6914l1.20703.22656m11.85937-1.54297l-2.60937 6.52734m2.60937-6.52734l2.4375-.26172m12.40625 1.44531l-5.66797 4.16016m5.66797-4.16016l2.20703 1.0664m-3.03125-.46093l1.10547.53125m13.5586-.08984l-6.71875 2.0664m6.71875-2.0664l1.73828 1.73437m10.79687-3.08984l-5.15625 4.77734m5.15625-4.77734l2.3164.8086m-3.0664-.11329l1.15625.40625m12.64063-1.35938l-4.6211 5.29297m4.6211-5.29297l2.39062.5586m-3.0625.21094l1.19532.27734m12.73046-1.09766l-4.5 5.39453m4.5-5.39453l2.40235.50391m-3.05469.28125l1.19922.25m13.50781-.1836l-5.97656 3.69532"/><g clip-path="url(#U)"><path fill="none" stroke="#000" stroke-linecap="round" stroke-linejoin="round" stroke-miterlimit="10" stroke-width=".5" d="M466.55078 425.22266l2.11719 1.23437"/></g><path fill="none" stroke="#000" stroke-linecap="round" stroke-linejoin="round" stroke-miterlimit="10" stroke-width=".5" d="M465.67969 425.75781l1.0586.61719"/><g clip-path="url(#V)"><path fill="none" stroke="#000" stroke-linecap="round" stroke-linejoin="round" stroke-miterlimit="10" stroke-width=".5" d="M147.5 413.4414l-7 .625"/></g><path fill="none" stroke="#000" stroke-linecap="round" stroke-linejoin="round" stroke-miterlimit="10" stroke-width=".5" d="M147.5 413.4414l1.33984 2.0547m11.46875-3.58204l-5.98437 3.67969m5.98437-3.67969l2.1172 1.24219m8.96483-2.83203l-1.51953 6.85937m1.29688-5.86328l1.1836-.32812m8.6875.78515l5.8125 3.95313m7.64062.1836l5.53906-4.32423m8.1836 4.76563l4.72265-5.20313m-4.03516 4.44532l-1.1914-.30078m15.98047 1.96484l.39843-7.01563m-.33984 5.9961l-1.11328.51172m17.11328-.57813l-5.08984-4.84375m4.35156 4.14063l-.33203 1.17968m14.07422-.1875l-4.46875-5.42187m3.8203 4.63281l-.47265 1.13281m14.48438-.3828l-4.5625-5.34376m3.89844 4.5664l-.44922 1.14063m14.8164-.75l-5.33984-4.57031m4.5625 3.90234l-.26563 1.19922m14.82422-1.23047l-6.26953-3.17187m5.35547 2.71094l.02734 1.22656m14.47266-1.48828l-6.8125-1.72656m6.8125 1.72656L307.76953 417m12.8125-3.67187l-6.97265.85156m6.97265-.85156l1.40625 2.01171m11.82422-2.46875l-6.80078 1.76563m6.80078-1.76563l1.66016 1.8086m11.70312-1.58594l-6.90234 1.32031m6.90234-1.32031l1.53906 1.91016M360.5 413.1367l-6.91797 1.23048m6.91797-1.23047l1.51563 1.9336m-2.52344-1.75391l.75781.96484m13.41797-1.70313l-6.625 2.34766m6.625-2.34765l1.8086 1.66015m10.91406-2.70703l-5.44141 4.44531m5.4414-4.44531l2.26563.94531m10.38281-1.57422l-4.10547 5.70313m4.10547-5.70313l2.4336.33203m11.15234-.11718l-4.64453 5.27344m4.64453-5.27344l2.38672.5664m-3.0625.19922l1.1914.28516m12.69532-1.13672l-4.4414 5.44531m4.4414-5.44531l2.40625.47656m-3.05078.3164l1.20312.23829m12.67969-1.09375l-4.28516 5.57031m4.28516-5.57031l2.41797.40625m11.28515-.0586l-5.0625 4.875m5.0625-4.875l2.33204.76173m-3.06641-.05079l1.16406.37891m12.72266-1.2461l-4.73828 5.1875"/><g clip-path="url(#W)"><path fill="none" stroke="#000" stroke-linecap="round" stroke-linejoin="round" stroke-miterlimit="10" stroke-width=".5" d="M465.92969 411.16016l2.3789.60937"/></g><path fill="none" stroke="#000" stroke-linecap="round" stroke-linejoin="round" stroke-miterlimit="10" stroke-width=".5" d="M465.24219 411.91406l1.1875.30469"/><g clip-path="url(#X)"><path fill="none" stroke="#000" stroke-linecap="round" stroke-linejoin="round" stroke-miterlimit="10" stroke-width=".5" d="M147.50781 400.23828l-7.01562.39844"/></g><path fill="none" stroke="#000" stroke-linecap="round" stroke-linejoin="round" stroke-miterlimit="10" stroke-width=".5" d="M147.50781 400.23828l1.27344 2.09766m11.71875-3.3789l-6.3711 2.96483m6.3711-2.96484l1.96094 1.47656m11.07422-1.96875l-5.8125 3.94532m5.8125-3.94532l2.17187 1.14454m10.6875-1.69141l-4.89844 5.03906m4.1836-4.30469l1.17969.33985m12.94921-.97656l-5.09375 4.84375m12.71485-.85547l6.29297-3.13282m-5.37891 2.67579l-.9961-.71094m14.35548 2.35156l4.375-5.5m-3.73829 4.69922l-1.20703-.22266m18.4375.875l-4.72656-5.19922m4.03906 4.44141l-.41406 1.15625m14.76563-.76953l-5.4297-4.46094m4.64063 3.8125l-.24219 1.20313m15.07813-2.09375l-6.89063-1.38282m5.88672 1.1836l.35157 1.17578m13.86718-.59766l-6.6914-2.14062m5.71875 1.82812l.21875 1.20703m13.98047-.64843l-6.51563-2.62891m6.51563 2.6289l.26171 2.4375m13.25782-3.15234l-6.92188-1.19922m5.91406 1.02344l.38282 1.16797m13.99218-1.54297l-7.02734-.10156m7.02734.10156l1.1211 2.1836m12.19531-2.1875l-7.02734-.08985m7.02734.08985l1.1211 2.17968m12.15234-1.6836l-6.94531-1.08593m6.9453 1.08594L348 403.30078m12.54687-2.60156l-7.0078-.51953m7.0078.51953l.98438 2.2461m11.9336-4.14454l-6.21485 3.27735m6.21484-3.27735l2.02735 1.3789m10.92187-1.9375l-5.48437 4.39063m5.48437-4.39062l2.2539.97265m-3.05077-.33203l1.125.48438m12.38672-1.71485l-4.28516 5.57032m4.28516-5.57032l2.41796.41016m11.0625-.27344l-4.61328 5.30078m4.61328-5.30078l2.39063.55078m10.70312-.72656l-4.17578 5.65235m4.17578-5.65235l2.4297.35938m-3.03516.46093l1.21484.1836m12.625-1.0625l-4.01172 5.76953m4.01172-5.76953l2.4375.28906m11.65234.44922l-5.5625 4.29297m5.5625-4.29297l2.23828 1.01172m-3.04687-.38672l1.11719.5039m13.01953-1.11328l-5.58985 4.25782"/><g clip-path="url(#Y)"><path fill="none" stroke="#000" stroke-linecap="round" stroke-linejoin="round" stroke-miterlimit="10" stroke-width=".5" d="M466.35547 398.3086l2.23047 1.02734"/></g><path fill="none" stroke="#000" stroke-linecap="round" stroke-linejoin="round" stroke-miterlimit="10" stroke-width=".5" d="M465.54297 398.92969l1.11328.51172"/><g clip-path="url(#Z)"><path fill="none" stroke="#000" stroke-linecap="round" stroke-linejoin="round" stroke-miterlimit="10" stroke-width=".5" d="M147.51172 387.2539l-7.02344-.26171"/></g><path fill="none" stroke="#000" stroke-linecap="round" stroke-linejoin="round" stroke-miterlimit="10" stroke-width=".5" d="M146.48828 387.21484l.53516 1.10547m13.66797-2.16406l-6.75391 1.9336m6.7539-1.9336l1.70704 1.76563m11.35156-2.41016l-6.24219 3.22656m6.24219-3.22656l2.01953 1.39453m10.625-2.30469l-4.89844 5.04297m4.89844-5.04297l2.35547.6875m11.17969-.44922l-5.33985 4.56641m4.5625-3.90234l1.14063.44921m13.77734.82032l-6.99219.69922m5.97657-.59766l.67969 1.02344m12.32812 1.98828l-4.34375-5.52735m3.71094 4.72266l-.4961 1.1211m12.58594.41796l-.6289-6.99609m.53515 5.98047l-1.02734.66797m16.44531-.51172l-4.64453-5.27344m3.96875 4.5039l-.4336 1.14844m15.41407-1.84765l-6.625-2.33985m5.66015 2l.1836 1.21485m13.94531-.51563l-6.32422-3.05859m5.40625 2.61328l.04688 1.22656m14.29296-1.01953l-6.53515-2.57812m6.53515 2.57812l.27735 2.4375m13.25-3.25l-6.96094-.95703m6.96094.95703l.84765 2.30469m12.47657-2.38672l-6.98047-.79297m6.98047.79297l.90234 2.28125m12.35938-1.9375l-6.8711-1.48047m6.8711 1.48047l.66796 2.35938m12.65235-2.39063l-6.88281-1.41797m5.8789 1.21094l.34766 1.17969m13.77734-3.02735l-6.49219 2.69141m6.4922-2.6914l1.89062 1.5625m11.0664-2.21485l-5.78125 3.9961m5.78125-3.9961l2.1797 1.125m10.71093-1.6289l-4.9336 5.0039m4.9336-5.0039l2.35156.69921m-3.0664.02735l1.17578.35156m12.85546-1.07813l-4.93359 5.00391m4.9336-5.0039l2.35156.70312m-3.07032.02344l1.17579.35156m12.63671-1.27735l-4.49218 5.40235m4.49218-5.40235l2.40235.5m-3.05469.28516l1.19922.25m12.64453-1.13281l-4.2461 5.59765m4.2461-5.59765l2.42578.39062m-3.04297.42188l1.21094.19922m12.91406-.85547l-4.6289 5.28515m4.6289-5.28515l2.38672.5586m-3.0625.21093l1.19531.27734m12.8672-.98437l-4.76954 5.16015m4.76953-5.16015l2.3711.625m11.03515-.53906l-4.95312 4.98828"/><g clip-path="url(#aa)"><path fill="none" stroke="#000" stroke-linecap="round" stroke-linejoin="round" stroke-miterlimit="10" stroke-width=".5" d="M466.03906 384.6289l2.34766.71094"/></g><g clip-path="url(#ab)"><path fill="none" stroke="#000" stroke-linecap="round" stroke-linejoin="round" stroke-miterlimit="10" stroke-width=".5" d="M147.51172 373.7461l-7.02344.125"/></g><path fill="none" stroke="#000" stroke-linecap="round" stroke-linejoin="round" stroke-miterlimit="10" stroke-width=".5" d="M146.49219 373.76563l.59375 1.0703m13.60937-1.99218l-6.75781 1.92969m5.77344-1.64844l.85156.88281m12.52344-2.71094l-4.91406 5.02344m4.91406-5.02344l2.35547.69141m10.52343-1.05469l-4.03906 5.75m4.03906-5.75l2.4336.30079m11.3125.05468l-4.89844 5.03906m4.89844-5.03906l2.35547.6836m10.84765-.78516l-4.67969 5.24219m4.6797-5.24219l2.3828.58203m11.95313 3.07422l-6.71875-2.07031m5.73828 1.76953l.23438 1.20312m13.26172.46875l-5.1211-4.8125m4.375 4.11329l-.32031 1.18359m13.6836.08984l-3.72266-5.96094m3.17968 5.09375l-.61328 1.0625m15.23438-.83984l-5.25-4.67187m5.25 4.67187l-.58203 2.38281m14.375-3.0703l-6.20703-3.29688m6.20703 3.29687l.0039 2.45313m13.41407-2.66016l-6.41016-2.88281m6.41016 2.88281l.16015 2.44922m13.25781-2.70703l-6.61718-2.3711m6.61718 2.3711l.35157 2.42969m-1.31641-2.77344l.17578 1.21484m14.02344-.66406l-6.45313-2.78125m6.45313 2.78125l.19922 2.44531m-1.14063-2.85156l.10157 1.22265m14.30859-1.25l-6.76172-1.91406m6.76172 1.91406l.51562 2.39844m12.77735-4.3789l-6.72266 2.04687m6.72266-2.04687l1.73437 1.73437m11.63282-1.5586l-6.82032 1.69141m6.82032-1.6914l1.63671 1.82812m11.60938-2.0586l-6.6875 2.15626m6.6875-2.15625l1.76172 1.70703m-2.73438-1.39453l.88282.85547m12.9414-2.10156l-5.76172 4.02343m5.76172-4.02344l2.1875 1.1172m-3.02344-.53126l1.08985.5586m12.70312-1.57813l-5.04297 4.89063m5.04297-4.89063l2.33594.7539m-3.07031-.04296l1.16797.3789m12.67187-1.29296l-4.625 5.29296m4.625-5.29296l2.39063.55859m-3.0625.21484l1.1953.27735m12.79298-1.04688l-4.625 5.28906m4.625-5.28906l2.39062.5586m-3.0625.21093l1.19532.28125m12.76562-1.07421l-4.57422 5.33593m4.57422-5.33594l2.39453.53516m-3.0625.24219l1.19922.26562m12.86328-.97265l-4.73437 5.19531m4.73437-5.19531l2.3789.60937m-3.0664.14844l1.1875.30078m12.4375-1.35937l-3.97656 5.79296"/><g clip-path="url(#ac)"><path fill="none" stroke="#000" stroke-linecap="round" stroke-linejoin="round" stroke-miterlimit="10" stroke-width=".5" d="M465.55078 370.91016l2.4375.27734"/></g><g clip-path="url(#ad)"><path fill="none" stroke="#000" stroke-linecap="round" stroke-linejoin="round" stroke-miterlimit="10" stroke-width=".5" d="M147.48828 360.92969l-6.97656-.8711"/></g><path fill="none" stroke="#000" stroke-linecap="round" stroke-linejoin="round" stroke-miterlimit="10" stroke-width=".5" d="M146.47266 360.80078l.4375 1.14844m11.41406-4.82031l-2.01953 6.73046m16.55078-6.08593l-4.44922 5.4375m3.80078-4.64453l1.20313.23828m12.6914-1.08594l-4.3125 5.54688m3.6875-4.73829l1.20703.21094m12.78907-.97656l-4.42188 5.46094m4.42188-5.46094l2.40625.46875m11.33984-.05469l-5.28516 4.63281m5.28516-4.6328l2.29297.87108m11.85547.94922l-6.95703.9922m5.9453-.84767l.72267.9922m13.04687 1.3164l-5.83984-3.91016m4.99218 3.33985l-.125 1.21875m11.85547.875l-.97265-6.96094m.82812 5.94922l-.99219.71875m14.62891.26172l-1.32813-6.89844m1.13282 5.89453l-.95313.77344m16.1836-.63672l-4.76953-5.16016m4.76953 5.16016l-.8086 2.3164m14.29297-2.48437l-5.10937-4.82422m5.10937 4.82422l-.64844 2.36719m-.09375-3.07031l-.32421 1.18359m14.59375-.72656l-5.53125-4.33204m5.53125 4.33204l-.4297 2.41406m-.375-3.04688l-.21484 1.21094m14.57422-.92969l-6.01172-3.6328m6.01172 3.6328l-.13281 2.45313m13.94922-4.05078l-7.01563-.4375m7.01563.4375l1.01562 2.23437m12.29297-2.14844l-7-.60546m7 .60546l.96094 2.25782m12.33203-3.0586l-6.95703.9922m6.95703-.9922l1.44531 1.98047m-2.45703-1.83594l.72266.9922m13.52344-1.52735l-6.79688 1.77734m6.79688-1.77734l1.66406 1.80469m11.38672-2.50391l-6.26953 3.17188m6.26953-3.17188l2.00781 1.41406m-2.91797-.95312l1.0039.70703m13.00782-1.53516l-5.83984 3.91016m5.83984-3.91016l2.16406 1.16016m-3.01562-.59375l1.08203.58203m13.0586-1.1875l-5.78907 3.98828m5.78906-3.98828l2.17578 1.1289m-3.01953-.55077l1.08985.5664m13.10156-1.09375l-5.85156 3.88672m5.85156-3.88672l2.16016 1.16797m-3.01172-.60547l1.07812.58594m13.0664-1.1836l-5.80859 3.95704m5.8086-3.95704l2.17187 1.14063m-3.01953-.5664l1.08594.5703m12.83203-1.46484l-5.3164 4.59375m5.3164-4.59375l2.28516.88672m-3.0586-.21875l1.14453.44531m12.75782-1.3125l-4.94532 4.9922"/><g clip-path="url(#ae)"><path fill="none" stroke="#000" stroke-linecap="round" stroke-linejoin="round" stroke-miterlimit="10" stroke-width=".5" d="M466.03516 357.9961l2.34765.70702"/></g><path fill="none" stroke="#000" stroke-linecap="round" stroke-linejoin="round" stroke-miterlimit="10" stroke-width=".5" d="M465.3164 358.72266l1.17188.35546"/><g clip-path="url(#af)"><path fill="none" stroke="#000" stroke-linecap="round" stroke-linejoin="round" stroke-miterlimit="10" stroke-width=".5" d="M147.51172 347.10547l-7.02344.14453"/></g><path fill="none" stroke="#000" stroke-linecap="round" stroke-linejoin="round" stroke-miterlimit="10" stroke-width=".5" d="M146.49219 347.125l.59765 1.07422m11.31641-4.35938l-2.1836 6.6797m17.01173-5.69923l-5.21094 4.71485m4.45312-4.02735l1.15625.41406m11.36328-2.09765l-2.10156 6.70703m1.79297-5.73047l1.20703-.22656m12.01172-.84766l-1.29297 6.90625m1.10547-5.90234l1.17188-.36719m14.29296.45703l-5.21484 4.71485m4.45313-4.02735l1.15625.41797m13.46093-.30469l-6.29687 3.11329m6.29687-3.11329l1.99219 1.4297m11.33594-1.40626l-6.32422 3.0664m6.32422-3.0664l1.98047 1.44922m11.68359.16406l-7.02344-.16015m6.0039.13671l.55079 1.09766m11.19531 2.23438l-1.84375-6.77735m1.57422 5.79297l-.89062.83985m14.96875-.02735l-2.83203-6.4336m2.42187 5.4961l-.76172.96485m15.21485-.46094l-4.28516-5.5664m4.28515 5.5664l-1.01562 2.23437m14.33594-2.23828l-4.29688-5.5586m4.29688 5.5586l-1.00781 2.23828m.3828-3.04687l-.5039 1.11719m14.875-.69922l-5.16015-4.77344m5.16015 4.77344l-.6289 2.37109m14.7578-3.84766l-6.78515-1.82421m6.78516 1.82421l.54687 2.39063m12.88672-3.23828l-7.02344-.1289m7.02344.1289l1.11328 2.1875m12.16797-1.7461l-6.95703-1.01171m6.95703 1.01171l.82813 2.3086m-1.83985-2.45703l.41406 1.15625m13.94532-1.6836l-7.01953.33985m7.01953-.33985l1.2539 2.10938m11.91797-2.9375l-6.73828 1.9961m6.73828-1.9961l1.72266 1.75m-2.70313-1.46094l.85938.875m13.1914-1.77734l-6.24609 3.22265m6.2461-3.22265l2.01562 1.39843m-2.92578-.92968l1.00781.69921m13.23438-1.1328l-6.28125 3.15234m6.28125-3.15235l2 1.41797m-2.91407-.96094l1 .71094m13.30079-1.01172l-6.42579 2.83985m6.42579-2.83985l1.92968 1.51563m-2.86328-1.10156l.96485.7578m13.17578-1.39843l-6.20704 3.29297m6.20704-3.29297l2.03125 1.375m-2.9336-.89453l1.01563.6875m13.03515-1.44922l-5.875 3.85547m5.875-3.85547l2.15235 1.17578m-3.00781-.61719l1.07812.58985m13.07031-1.1836l-5.82812 3.92579"/><g clip-path="url(#ag)"><path fill="none" stroke="#000" stroke-linecap="round" stroke-linejoin="round" stroke-miterlimit="10" stroke-width=".5" d="M466.47656 345.21484l2.16406 1.15625"/></g><path fill="none" stroke="#000" stroke-linecap="round" stroke-linejoin="round" stroke-miterlimit="10" stroke-width=".5" d="M465.6289 345.78906l1.08204.57422"/><g clip-path="url(#ah)"><path fill="none" stroke="#000" stroke-linecap="round" stroke-linejoin="round" stroke-miterlimit="10" stroke-width=".5" d="M147.11328 332.23828l-6.22656 3.25"/></g><path fill="none" stroke="#000" stroke-linecap="round" stroke-linejoin="round" stroke-miterlimit="10" stroke-width=".5" d="M147.11328 332.23828l2.02344 1.38672m10.6211-2.28906l-4.88282 5.05469m4.17188-4.32032l1.17968.33985m13.3789-.41407l-5.94921 3.73438m5.08203-3.1914l1.0664.60937m12.16798-2.15625l-4.0547 5.73828m3.46485-4.90235l1.21875.15625m10.3789-1.625l.5586 7.00782m-.47656-5.98828l1.03516-.66016m13.99218-.02734l-3.02734 6.34375m2.58594-5.41797l1.22656-.05469m12.7461-.75781l-3.46485 6.11328m2.96094-5.22266l1.22656.03516m14.375 2.22265l-7.02734-.17968m6.0039.15234l.54688 1.10156m13.38281-2.80859l-6.20703 3.28906m6.20703-3.28906l2.03125 1.375m11.66797.69922l-6.97656-.86328m6.97656.86328l.875 2.29297m9.6836.71484l-1.46095-6.875m1.46094 6.875L276 338.875m15.96484-1.83203l-2.99609-6.35938m2.9961 6.35938l-1.46876 1.96484m14.82813-1.98828l-3.08594-6.3125m3.08594 6.3125l-1.4414 1.98828m.99218-2.90625l-.71875.99219m15.24219-.57813l-4.60547-5.30859m4.60547 5.3086l-.88282 2.29296m.21094-3.0625l-.4414 1.14454m15.10937-1.17188l-5.96875-3.71094m5.96875 3.71094l-.16406 2.44531m13.89062-3.40234l-6.79297-1.79688m6.79297 1.79688l.5625 2.38672m12.73047-2.29688l-6.74219-1.98047m6.7422 1.98047l.49218 2.40625m12.96094-3.32422l-7.02344-.14062m7.02344.14062l1.10937 2.1875m12.02735-3.37109l-6.66407 2.22266m6.66407-2.22266l1.77734 1.6914m11.60937-1.4453l-6.80859 1.73437m6.8086-1.73438l1.65234 1.8125m11.73047-1.47265l-6.94532 1.05469m6.94532-1.0547l1.46484 1.96876m11.84766-1.99219l-6.9375 1.10156m6.9375-1.10156l1.47656 1.95703m-2.48438-1.79687l.73829.98046m13.38671-1.875l-6.54296 2.56641m6.54296-2.5664l1.86329 1.59765m-2.81641-1.22265l.9336.79687m13.23437-1.39844l-6.34375 3.02344m6.34375-3.02344l1.97265 1.46094m-2.89453-1.02344l1.97266 1.46094m12.27734-1.8711l-6.36718 2.96876"/><g clip-path="url(#ai)"><path fill="none" stroke="#000" stroke-linecap="round" stroke-linejoin="round" stroke-miterlimit="10" stroke-width=".5" d="M466.7461 332.3789l1.96093 1.47657"/></g><g clip-path="url(#aj)"><path fill="none" stroke="#000" stroke-linecap="round" stroke-linejoin="round" stroke-miterlimit="10" stroke-width=".5" d="M465.82031 332.8086l1.95703 1.47656"/></g><g clip-path="url(#ak)"><path fill="none" stroke="#000" stroke-linecap="round" stroke-linejoin="round" stroke-miterlimit="10" stroke-width=".5" d="M146.9336 318.61328l-5.8672 3.8711"/></g><path fill="none" stroke="#000" stroke-linecap="round" stroke-linejoin="round" stroke-miterlimit="10" stroke-width=".5" d="M146.9336 318.61328l2.15234 1.17188m-3.00781-.60938l1.07812.58594m12.71094-1.6289l-5.10547 4.82812m5.10547-4.82813l2.32422.78125m-3.06641-.07812l1.16406.39062m12.69922-1.28125l-4.71875 5.20703m4.71875-5.20703l2.3789.60156m10.92579-.61328l-4.69531 5.22657m4.01172-4.46485l1.1914.29688m11.23828-1.8711l-1.5586 6.85157m1.33204-5.85547l1.1836-.32031m13.30077-.3125l-3.4453 6.125m2.9453-5.23438l1.22657.03125m11.97265-1.1914l-2.21093 6.66796m1.89062-5.69922l1.21094-.20703m11.54687-.9336l-.45703 7.01173m.39063-5.99219l1.1211-.5039m11.125-.40626l1.8125 6.78907m12.53515.11718l-.25-7.02343m.21484 6.0039l-1.0625.61328m15.10938.3125l-1.64453-6.83203m1.64453 6.83203l-1.83594 1.625m15.29687-1.66406l-1.93359-6.7539m1.9336 6.7539l-1.76563 1.70313m15.21875-1.7461l-2.21094-6.67187m2.21094 6.67187l-1.69531 1.77344m1.375-2.74219l-.84766.88672m15.41406-.39062l-4.07422-5.72657m4.07422 5.72657l-1.09765 2.1953m14.43359-2.21093l-4.11719-5.69531m4.11719 5.69531l-1.07813 2.20313m14.00782-1.96094l-3.34375-6.17969m2.85547 5.28125l-.67579 1.02344m15.85157-1.45703L354 318.79297m5.19922 3l-.04297 1.22656m14.46484-3.77344l-6.52734 2.60157m5.57812-2.22266l.9336.79297m13.51172.8086l-6.89453-1.35548m5.89453 1.15625l.35547 1.17579m13.97265-2.27344l-6.91797 1.23828m5.91016-1.0586l.75781.96485m13.5625.10156l-6.91406-1.2539m5.91016 1.0703l.37109 1.16798m13.76172-.32813l-6.53906-2.57031m5.58593 2.19531l.14063 1.21875m14.33984-2.59765l-6.96484.9414m5.94922-.80469l.71875.9961m13.4336-1.85156l-6.60938 2.3789m6.60937-2.3789l1.82031 1.64843m-2.78125-1.30469l.91016.82422m12.71484-2.28125l-5.30859 4.60547"/><g clip-path="url(#al)"><path fill="none" stroke="#000" stroke-linecap="round" stroke-linejoin="round" stroke-miterlimit="10" stroke-width=".5" d="M466.21484 318.2461l2.28907.8828"/></g><path fill="none" stroke="#000" stroke-linecap="round" stroke-linejoin="round" stroke-miterlimit="10" stroke-width=".5" d="M465.44531 318.91406l2.28906.88281"/><path fill="#00f" fill-rule="evenodd" d="M348.29297 458.77344h8.61719V448.625h-8.6172v10.14844"/><path fill="azure" fill-rule="evenodd" d="M350.125 450.45703h.83594v2.82422h3.28515v-2.82422h.83204v6.48047h-.83204v-2.91406h-3.28515v2.91406h-.83594v-6.48047"/><path fill="#ff3030" fill-rule="evenodd" d="M459.94531 445.45703h7.69531V435.3125h-7.6953v10.14453"/><path fill="azure" fill-rule="evenodd" d="M461.78125 437.14453h.83203v5.73828h3.1914v.74219h-4.02343v-6.48047"/><path fill="#ff3030" fill-rule="evenodd" d="M291.28906 405.51172h7.6914v-10.14453h-7.6914v10.14453"/><path fill="azure" fill-rule="evenodd" d="M293.1211 397.19922h.83593v5.73828h3.1914v.74219h-4.02734v-6.48047"/><path fill="#ffffe0" fill-rule="evenodd" d="M417.19531 437.0586H439.375v-10.19141h-22.17969v10.1914"/><path fill-rule="evenodd" d="M420.69531 428.69922h.50781v6.29297h-.78515v-4.48828h-1.39063v-.5547l.5625-.0664.25-.05469.23047-.08984.20313-.14062.17578-.21094.14062-.29297.10547-.39453m4.8125 0l.23047.01953.21875.05469.20703.08984.19922.1211.1836.14843.17187.17578.30078.41797.24219.4961.17969.54687.11328.57813.03906.58984-.03906.59375-.11328.58594-.1797.55078-.24218.5039-.30078.4297-.17188.17968-.18359.15234-.19922.1211-.20703.09375-.21875.05469-.23047.01953-.22656-.01954-.21875-.05468-.21094-.09375-.19531-.1211-.1836-.15234-.17187-.17969-.30078-.42969-.2461-.5039-.17968-.55078-.10938-.58594-.03906-.59375h.83203l.03125.5625.08203.50781.125.4414.16407.375.1875.30079.21093.22266.22266.13671.22656.04688.22656-.04688.22266-.13671.21094-.22266.1914-.30078.16407-.375.125-.4414.08203-.50782.02734-.5625-.02734-.5586-.08203-.5039-.125-.4336-.16406-.36718-.19141-.29297-.21094-.21094-.22265-.13281-.22657-.04688-.22656.04688-.22266.13281-.21093.21094-.1875.29297-.16407.36719-.125.43359-.08203.5039-.03125.5586h-.83203l.03906-.58984.10938-.57813.17969-.54687.24609-.4961.30078-.41797.17188-.17578.18359-.14844.19531-.12109.21094-.08984.21875-.05469.22656-.01953m4.95313 0l.23047.01953.21875.05469.20703.08984.19531.1211.1875.14843.16797.17578.30469.41797.24218.4961.1797.54687.11327.57813.03516.58984-.03516.59375-.11328.58594-.17969.55078-.24218.5039-.3047.4297-.16796.17968-.1875.15234-.19531.1211-.20703.09375-.21875.05469-.23047.01953-.23047-.01954-.21875-.05468-.20703-.09375-.19531-.1211-.1836-.15234-.17187-.17969-.30079-.42969-.24609-.5039-.17969-.55078-.10937-.58594-.03906-.59375h.83203l.03125.5625.08203.50781.125.4414.16015.375.19141.30079.21094.22266.22265.13671.22657.04688.22656-.04688.22266-.13671.21093-.22266.19141-.30078.16406-.375.125-.4414.08203-.50782.02735-.5625-.02735-.5586-.08203-.5039-.125-.4336-.16406-.36718-.1914-.29297-.21094-.21094-.22266-.13281-.22656-.04688-.22656.04688-.22266.13281-.21094.21094-.1914.29297-.16016.36719-.125.43359-.08203.5039-.03125.5586h-.83203l.03906-.58984.10937-.57813.1797-.54687.24608-.4961.30079-.41797.17187-.17578.1836-.14844.1953-.12109.20704-.08984.21875-.05469.23047-.01953m4.95312 0l.38672.02734.35938.08203.32421.13672.27735.1875.23047.23828.17187.28516.10938.33203.03906.375-.01953.27344-.0586.23828-.08984.19922-.10937.16797-.12891.14453-.14063.125-.28515.19531.23047.11719.20703.14844.1836.17187.15234.1914.125.21485.08984.23047.05469.24219.01953.25781-.03516.3086-.10156.32812-.17188.32422-.24218.30469-.30469.26953-.375.21484-.21094.08203-.22656.0586-.2461.03906-.26171.01172-.25781-.01172-.2422-.03906-.22265-.0586-.20703-.08203-.35938-.21484-.28906-.26954-.22265-.30468-.15625-.32422-.09375-.32813-.03125-.30859h.83203l.02734.2539.07813.23438.12109.21094.16406.1836.1914.15234.21876.11718.24219.07032.2539.02734.2539-.02734.2422-.07032.21875-.11718.1953-.15235.16017-.1836.12109-.21093.07812-.23437.02735-.25391-.02735-.2539-.07812-.23438-.1211-.21485-.16015-.18359-.19531-.15234-.21875-.11328-.2422-.07422-.2539-.02344-.2539.02344-.2422.07422-.21874.11328-.1914.15234-.16407.1836-.1211.21484-.07812.23437-.02734.25391h-.83203l.01953-.2539.05469-.23829.08984-.22656.125-.20703.15234-.1914.1836-.17188.20703-.15235.23437-.1328-.28906-.19532-.14063-.125-.1289-.14453-.10938-.16797-.08984-.19922-.05469-.23828-.02344-.27344h.78907l.02344.21485.0625.1914.10546.16797.13672.14063.16406.10937.19141.08203.20703.05078.21875.01563.22266-.01563.20312-.05078.19141-.08203.16406-.10938.13672-.14062.10547-.16797.0664-.1914.01954-.21485-.01953-.21484-.06641-.1914-.10547-.16407-.13672-.14063-.16406-.10937-.1914-.08203-.20313-.05078-.22266-.01954-.21875.01954-.20703.05078-.1914.08203-.16407.10937-.13672.14063-.10546.16406-.0625.1914-.02344.21485h-.78906l.03906-.375.10937-.33203.17188-.28516.23047-.23828.28125-.1875.3203-.13672.35938-.08203.38672-.02734"/><path fill="#ffffe0" fill-rule="evenodd" d="M235.22266 373.20313h22.17968v-10.19141h-22.17968v10.1914"/><path fill-rule="evenodd" d="M238.72266 364.84375h.5078v6.29688h-.78515v-4.4922h-1.39062v-.55468l.5625-.0664.25-.05079.23047-.08984.20312-.14453.17578-.20703.14063-.29688.10547-.39453m4.8125 0l.23047.01953.21875.05469.20703.08984.19922.1211.18359.14843.17187.17579.30078.42187.2422.49219.17968.54687.11328.57813.03906.59375-.03906.58984-.11328.58594-.17969.55469-.24219.5-.30078.42968-.17187.1797-.1836.15233-.19921.125-.20703.08985-.21875.0586-.23047.01952-.22657-.01953-.21875-.0586-.21093-.08983-.19532-.125-.18359-.15235-.17188-.17969-.30078-.42968-.24609-.5-.17969-.5547-.10937-.58593-.03906-.58984h.83203l.03125.5625.08203.5039.125.44141.16406.375.1875.30078.21094.22266.22265.13672.22657.04687.22656-.04687.22266-.13672.21093-.22266.1914-.30078.16407-.375.125-.4414.08203-.50391.02735-.5625-.02735-.5625-.08203-.5-.125-.4375-.16406-.36328-.1914-.29297-.21095-.21485-.22265-.1328-.22656-.04298-.22657.04297-.22265.13281-.21094.21485-.1875.29297-.16406.36328-.125.4375-.08203.5-.03125.5625h-.83203l.03906-.59375.10937-.57813.17969-.54687.2461-.49219.30077-.42188.17188-.17578.1836-.14843.1953-.1211.21094-.08984.21875-.05469.22657-.01953m4.95312 0l.23047.01953.21875.05469.20703.08984.19531.1211.1875.14843.17188.17579.30078.42187.24219.49219.17969.54687.11328.57813.03515.59375-.03515.58984-.11328.58594-.1797.55469-.24218.5-.30078.42968-.17188.1797-.1875.15233-.1953.125-.20704.08985-.21875.0586-.23047.01952-.23047-.01953-.21875-.0586-.20703-.08983-.19531-.125-.1836-.15235-.17187-.17969-.30078-.42968-.2461-.5-.17968-.5547-.10938-.58593-.03906-.58984h.83203l.03125.5625.08203.5039.125.44141.16016.375.1914.30078.21094.22266.22266.13672.22656.04687.22656-.04687.22266-.13672.21094-.22266.1914-.30078.16407-.375.125-.4414.08203-.50391.02734-.5625-.02734-.5625-.08203-.5-.125-.4375-.16407-.36328-.1914-.29297-.21094-.21485-.22266-.1328-.22656-.04298-.22656.04297-.22266.13281-.21094.21485-.1914.29297-.16016.36328-.125.4375-.08203.5-.03125.5625h-.83203l.03906-.59375.10938-.57813.17969-.54687.24609-.49219.30078-.42188.17188-.17578.18359-.14843.19531-.1211.20703-.08984.21875-.05469.23047-.01953m4.95313 0l.38672.02734.35937.08204.32422.13671.27734.1875.23047.23829.17188.28515.10937.33203.03906.3789-.01953.27345-.0586.23437-.08983.19922-.10938.17188-.1289.14453-.14063.12109-.28516.19531.23047.1211.20703.14453.1836.17187.15234.19531.125.21094.08984.23047.0547.2461.01952.2539-.03515.3086-.10157.32812-.17187.32422-.24219.30469-.30469.26953-.375.21484-.21093.08203-.22657.0625-.24609.03516-.26172.01562-.25781-.01562-.24219-.03516-.22266-.0625-.20703-.08203-.35937-.21484-.28906-.26953-.22266-.3047-.15625-.32421-.09375-.32813-.03125-.30859h.83203l.02734.2539.07813.23438.1211.21094.16406.1875.1914.15234.21875.11329.24219.07421.2539.02344.25391-.02344.24219-.07421.21875-.11329.19531-.15234.16016-.1875.1211-.21094.07812-.23437.02734-.2539-.02734-.25392-.07813-.23437-.1211-.21094-.16015-.1836-.19531-.15233-.21875-.1172-.24219-.0703-.2539-.02735-.25391.02735-.24219.0703-.21875.1172-.1914.15234-.16407.1836-.12109.21093-.07813.23438-.02734.2539h-.83203l.01953-.2539.05469-.23829.08984-.22656.125-.20703.15235-.1914.18359-.17188.20703-.15235.23438-.1328-.28907-.19532-.14062-.1211-.1289-.14452-.10938-.17188-.08985-.19922-.05468-.23437-.02344-.27344h.78906l.02344.21484.0625.1875.10547.16797.13672.14063.16406.10937.1914.08203.20704.05078.21875.01563.22265-.01563.20313-.05078.1914-.08203.16407-.10937.13672-.14063.10546-.16797.06641-.1875.01953-.21484-.01953-.21485-.0664-.1914-.10548-.16797-.13671-.14063-.16407-.10937-.1914-.08203-.20313-.05078-.22265-.01563-.21875.01563-.20703.05078-.19141.08203-.16406.10938-.13672.14062-.10547.16797-.0625.1914-.02344.21485h-.78906l.03906-.3789.10938-.33204.17187-.28515.23047-.23829.28125-.1875.32031-.13671.35938-.08204.38672-.02734"/><path fill="#ffffe0" fill-rule="evenodd" d="M348.8164 352.48438h22.1797v-10.19532h-22.1797v10.19531"/><path fill-rule="evenodd" d="M352.3164 344.125h.50782v6.29297h-.78516v-4.48828h-1.39062v-.5586l.5586-.0625.2539-.05468.23047-.08985.20312-.14062.17188-.21094.14453-.29297.10547-.39453m4.8125 0l.23046.01563.21875.05859.20704.08984.1953.11719.1836.15234.17188.17579.30469.41796.24218.4961.17969.54297.10938.58203.03906.58984-.03906.59375-.10938.58203-.17969.55469-.24219.5039-.30468.42579-.17188.17969-.1836.15234-.1953.125-.20704.09375-.21875.05469-.23046.01953-.23047-.01953-.21875-.0547-.20703-.09374-.19532-.125-.18359-.15235-.17188-.17968-.30468-.42578-.24219-.50391-.17969-.55469-.10937-.58203-.03906-.59375h.83203l.02734.5625.08203.50781.1289.44141.16016.375.19141.30078.21094.22266.22265.13672.22657.04687.22656-.04687.22265-.13672.21094-.22266.1914-.30078.16017-.375.1289-.4414.07813-.50782.03125-.5625-.03125-.5625-.07813-.5-.1289-.4336-.16016-.36718-.1914-.29297-.21094-.21484-.22266-.1289-.22656-.04688-.22657.04687-.22265.1289-.21094.21485-.1914.29297-.16016.36719-.1289.4336-.08204.5-.02734.5625h-.83204l.03907-.58985.10937-.58203.17969-.54297.24219-.4961.30469-.41796.17187-.17579.1836-.15234.1953-.11719.20704-.08984.21875-.0586.23047-.01562m5.08984 0h.51172v6.29297h-.78906v-4.48828h-1.38672v-.5586l.5586-.0625.2539-.05468.22656-.08985.20703-.14062.17188-.21094.14062-.29297.10547-.39453m2.82422 2.17188h.78906l.01953-.3125.0586-.28907.09765-.25.14063-.21875.1836-.17187.22265-.1289.26562-.08204.30469-.02734.23828.02343.22656.0625.20313.10157.17969.13671.14843.17579.11329.20312.0703.23828.02344.26172-.01953.26953-.0664.22656-.10938.19141-.15625.17188-.19922.16015-.24609.16797-.63672.38672-.53515.3125-.4375.3164-.34766.32813-.26563.33594-.1875.34765-.125.3711-.0703.39453-.01954.41797h4.21094v-.74219h-3.33203l.08203-.28125.11328-.23828.14844-.20313.1875-.17968.23046-.16797.27735-.17578.71875-.41797.41406-.20703.34766-.23047.28125-.25.21875-.26953.16406-.27735.10938-.28125.0664-.28515.01953-.28125-.04297-.38281L369 345.1953l-.1875-.30469-.25-.26562-.30469-.21094-.34375-.16015-.38281-.09766-.40625-.03125-.4336.03125-.39843.09766-.35547.16796-.30469.23438-.2461.30469-.1875.3711-.11718.44921-.03906.51563"/><path fill="#ffffe0" fill-rule="evenodd" d="M217.46875 336.51953h22.17969v-10.1914h-22.17969v10.1914"/><path fill-rule="evenodd" d="M220.96875 328.16016h.50781v6.29687h-.78515v-4.49219h-1.38672v-.55468l.5586-.06641.25-.05078.23046-.08985.20313-.14062.17578-.21094.14062-.29687.10547-.39453m4.8125 0l.23047.01953.21875.05469.20703.08984.19922.1211.1836.14843.17187.17578.30078.42188.24219.49218.17968.54688.11328.57812.03907.59375-.03906.58985-.11329.58594-.17968.55468-.2422.5-.30077.42969-.17188.17969-.1836.15234-.19921.125-.20703.08985-.21875.05859-.23047.01953-.22656-.01953-.21875-.0586-.21094-.08984-.19531-.125-.1836-.15234-.17187-.17969-.30078-.42969-.24219-.5-.17969-.55469-.11328-.58593-.03906-.58985h.83594l.02734.5625.08203.50391.125.44531.16406.3711.19141.30078.20703.22265.22266.13672.22656.04688.22656-.04688.22266-.13672.21094-.22265.1914-.30078.16406-.3711.125-.44531.08204-.5039.02734-.5625-.02734-.5625-.08203-.5-.125-.4375-.16407-.36329-.1914-.29297-.21094-.21484-.22266-.13281-.22656-.04297-.22656.04297-.22266.13281-.20703.21484-.1914.29297-.16407.36328-.125.4375-.08203.5-.02734.5625h-.83594l.03906-.59375.11328-.57812.17969-.54688.24219-.49218.30078-.42188.17187-.17578.1836-.14844.19531-.1211.21094-.08983.21875-.0547.22656-.01952m5.09375 0h.50781v6.29687h-.78515v-4.49219h-1.39063v-.55468l.5625-.06641.25-.05078.23047-.08985.20313-.14062.17578-.21094.14062-.29687.10547-.39453m2.82422 2.17578h.78516l.01953-.3164.05859-.28517.10156-.2539.14063-.21485.17969-.17187.22265-.1289.26563-.08204.30859-.02734.23828.01953.22266.0625.20312.10156.17969.14063.14844.17187.11328.20703.07422.23438.02344.26562-.02344.26954-.0625.22265-.11328.1914-.15235.17188-.20312.16406-.2461.16407-.6328.39062-.53907.3125-.4375.3164-.34766.32423-.26172.33594-.1914.35156-.125.3711-.07031.39062-.01954.42187h4.21094v-.74219h-3.33203l.08594-.28515.11328-.23438.14844-.20312.1875-.17969.23047-.17188.27734-.17578.71875-.41406.41406-.20703.34375-.23047.28125-.25.21875-.26953.16406-.27734.11328-.28516.0625-.28516.01954-.28125-.03907-.3828-.12109-.34767-.1914-.30859-.25-.26172-.30079-.21094-.34765-.16015-.37891-.09766-.40625-.03515-.4336.03515-.39843.09766-.35547.16406-.30469.23438-.25.30468-.1836.375-.11718.44532-.03906.51953"/></g></defs><use xlink:href="#am"/></svg>