<svg xmlns="http://www.w3.org/2000/svg" role="img" xmlns:xlink="http://www.w3.org/1999/xlink" viewBox="142.45 309.95 326.84 171.84"><defs><clipPath id="a"><path d="M144 311.67188h1v168.65625h-1zm0 0"/></clipPath><clipPath id="b"><path d="M144 311.67188h324v168.65625H144zm0 0"/></clipPath><clipPath id="c"><path d="M467 311.67188h1v168.65625h-1zm0 0"/></clipPath><clipPath id="d"><path d="M144 479h4v1.32813h-4zm0 0"/></clipPath><clipPath id="e"><path d="M146 479h2v1.32813h-2zm0 0"/></clipPath><clipPath id="f"><path d="M153 479h9v1.32813h-9zm0 0"/></clipPath><clipPath id="g"><path d="M159 479h2v1.32813h-2zm0 0"/></clipPath><clipPath id="h"><path d="M166 479h9v1.32813h-9zm0 0"/></clipPath><clipPath id="i"><path d="M172 479h3v1.32813h-3zm0 0"/></clipPath><clipPath id="j"><path d="M180 480h8v.32813h-8zm0 0"/></clipPath><clipPath id="k"><path d="M186 480h2v.32813h-2zm0 0"/></clipPath><clipPath id="l"><path d="M193 479h8v1.32813h-8zm0 0"/></clipPath><clipPath id="m"><path d="M199 479h2v1.32813h-2zm0 0"/></clipPath><clipPath id="n"><path d="M207 478h7v2.32813h-7zm0 0"/></clipPath><clipPath id="o"><path d="M212 478h3v2.32813h-3zm0 0"/></clipPath><clipPath id="p"><path d="M220 478h8v2.32813h-8zm0 0"/></clipPath><clipPath id="q"><path d="M233 478h8v2.32813h-8zm0 0"/></clipPath><clipPath id="r"><path d="M246 479h9v1.32813h-9zm0 0"/></clipPath><clipPath id="s"><path d="M252 479h2v1.32813h-2zm0 0"/></clipPath><clipPath id="t"><path d="M260 477h7v3.32813h-7zm0 0"/></clipPath><clipPath id="u"><path d="M276 476h2v4.32813h-2zm0 0"/></clipPath><clipPath id="v"><path d="M288 476h4v4.32813h-4zm0 0"/></clipPath><clipPath id="w"><path d="M302 479h4v1.32813h-4zm0 0"/></clipPath><clipPath id="x"><path d="M315 476h4v4.32813h-4zm0 0"/></clipPath><clipPath id="y"><path d="M327 478h7v2.32813h-7zm0 0"/></clipPath><clipPath id="z"><path d="M326 480h3v.32813h-3zm0 0"/></clipPath><clipPath id="A"><path d="M339 479h9v1.32813h-9zm0 0"/></clipPath><clipPath id="B"><path d="M340 478h2v2.32813h-2zm0 0"/></clipPath><clipPath id="C"><path d="M353 478h8v2.32813h-8zm0 0"/></clipPath><clipPath id="D"><path d="M366 478h8v2.32813h-8zm0 0"/></clipPath><clipPath id="E"><path d="M380 478h8v2.32813h-8zm0 0"/></clipPath><clipPath id="F"><path d="M393 478h8v2.32813h-8zm0 0"/></clipPath><clipPath id="G"><path d="M406 478h8v2.32813h-8zm0 0"/></clipPath><clipPath id="H"><path d="M420 478h8v2.32813h-8zm0 0"/></clipPath><clipPath id="I"><path d="M434 477h6v3.32813h-6zm0 0"/></clipPath><clipPath id="J"><path d="M448 479h4v1.32813h-4zm0 0"/></clipPath><clipPath id="K"><path d="M462 476h3v4.32813h-3zm0 0"/></clipPath><clipPath id="L"><path d="M144 466h4v2h-4zm0 0"/></clipPath><clipPath id="M"><path d="M144 453h4v2h-4zm0 0"/></clipPath><clipPath id="N"><path d="M144 439h4v2h-4zm0 0"/></clipPath><clipPath id="O"><path d="M466 438h2v2h-2zm0 0"/></clipPath><clipPath id="P"><path d="M144 425h4v4h-4zm0 0"/></clipPath><clipPath id="Q"><path d="M144 411h4v6h-4zm0 0"/></clipPath><clipPath id="R"><path d="M144 398h4v5h-4zm0 0"/></clipPath><clipPath id="S"><path d="M465 397h3v1h-3zm0 0"/></clipPath><clipPath id="T"><path d="M144 386h4v2h-4zm0 0"/></clipPath><clipPath id="U"><path d="M144 372h2v4h-2zm0 0"/></clipPath><clipPath id="V"><path d="M144 358h4v5h-4zm0 0"/></clipPath><clipPath id="W"><path d="M144 345h2v4h-2zm0 0"/></clipPath><clipPath id="X"><path d="M144 331h3v6h-3zm0 0"/></clipPath><clipPath id="Y"><path d="M144 318h4v5h-4zm0 0"/></clipPath><g id="Z" clip-path="url(#clip1)"><path fill="#fff" fill-opacity="0" fill-rule="evenodd" d="M0 0h1000v1000H0zm0 0"/><path fill="#d3d3d3" fill-opacity="0" fill-rule="evenodd" d="M162.15234 355.86719l-.23437.29297.0586.23437.11718.17188.17578.23437.29297.34766.11328.0586.11719-.17188.0586-.23438.17577-.17578.46485-.17578h.69922l.23437.29297.28906.8164.0586.17579.17578.23046.35156.23438.69922.69922.17188.17578.23437.34765.23438.41016.28906.58203.41015.46485.23047.23437.23438.17578.11719.23047.17578.29297.17187 1.16406v.23438l.0586.28906.05859.11719.11719.11719.34765.41015.11719.17188.17578.17578.17578.23437.11719.17188.17188.35156.05859.23438.23437.40625.23438-.0586-.17578.17578-.0586.92969h-.58203l-.23437-.11328-.34766.11328-.11719.11719-.05859.29297-.0586.17578-.11718.17187-.46484.29297-.0586.23438-.0586.11328v.64453l.0586.17187v.41016l.0586.0586v.40624l.05859.40625.11719.17579.05859.05859.23047.64062-.0586.29297v.69922l-.05859.58203v.23438l-.0586.23047-.05468.35156v1.92187l.05469.1172h.42578l-.36719.11718-.02344.35156.89063 1.16797 1.74219.53906 1.33984.35938v.53906l.08984.8086.53516.71484 1.51953.26953.89063-.08594.08984 1.16406.53516.1797 1.16015-.1797 2.05469-.98437 1.16016-.36328 1.8789-.17578 1.69531-.1797-.17968.71876-1.51563.08594-1.25.08984-.80469.26953-1.07421.8086.26953.71875.53515.89843-.17968.625-.26563.8086.26563 1.07812.625.89844.80468.17969 1.25-.1797-.26562.72267.09766.5039.05468.29297v.17188l.0586.29296v.40625l.17578.1172.35156.11718h.40625l.29297-.17578.11328-.11719.0586-.11719.11718-.23047.0586-.17578.35156-.46484.23047-.17578.17578-.0586.17578.0586.0586.17578.11718.98828.05469.46875.0586.17188.11718.23437.17578.0586.8164.05859h.28907l.11719.23437.05859.40625.0586.35156v1.10547l.11718.29297.11719.34766.28906.69922.17578.35156.58203.7539.35157.17579.17187.0586.46875.23437.64063.46484.34765.23438.29297.17578.29297.05468.23047.0625.8164.34766.29297.17578.11328.17188.35157.35156.11719.17578.52343.64063v.28906l.0586.35156v.34766l.05859.35156.0586.28906.11718.0586.17188.05859h.17578l.58203.23437.17578.1172.17578.28905.17578.23438.11328.23437.29297.23047.11719.11719v.41016l.0586.05468.28906.23438.23437.11719.0586.11718.11718.17188.0586.11719.23047.23437.05859.17578.23437.0586.1172.05859-.1172.11328-.05859.11719v.11719l-.11719.29296-.11719.28907v.58203l.17579.11719.11718.05859.0586.11719.11719.11719.11328.05859.17578.34765.0586.35157.05858.40625v.17578l-.05859.17578-.11719.69922v.17187l.1172.17579.29296.29296h.40625l.17578.1172.11719.17187.11719.29296v.23438h-.52735l-.23047-.23438h-.23437l-.17578.0586-.0586.69922.0586.34765.11719.17579.17578.41015.11718.23047.28907.46875.17578.05469h.52344l.23437.0586.75781.64062.0586.29296v.23438l.05859.0586.23047.34765v.35156l-.11719.17188v.29297l.29297.28906.29297.17578.17187.0586.29297.17577.29297.1172.58203.40624.28906.23438.29297.17578.21875.16015.01563.01172.23047.17579.64062.52343.17578.23438.1172.17578.17577.17578.11328.17188v.64062l.1172.17578.46874.11719.58203.11719.23438.05859.23047.11328.29297.11719.11328.0586.58593.35156.28907.17187.17578.0625.17578.05469.17578.0586.69922.35155.28906.17579.23438.05468.28906.17578.23437.1172.64063.40624.29297.11719.17187.0586.23438.05859.41015.05859.23047.0586.23438.11718.0586.17188-.41017.17578.46875.0586.0586.29296.11328.23438.17578.05468.23438.0586.17578.05859.40625.11719.64062.23437.11719.17188.0586.23437v.17578l-.0586.1172-.0586.40624.23438.23438.11719.05859.34766.11719.64062.23047.17578.11718.28906.1172.17578.17577.23438.46485.58203 1.10546.17578.17579.34766.17578.17578.11719.35156.11718 1.04688.52344.23437.0586.46485.11327.29297.0586.46484.17578.75781.58203.23438.23438.34765.46484.17578.17578.28907.23438.8164.69921.29297.17579.28906.28906.29297.17578.29297.28906.69531.64063.17578.17578.29297.23437.28907.23438.46875.28906.64062.58203.34766.23438.23437.29297.34766.34765.35156.46485.9336.99218.34765.40625.11719.17579.23437.05859.11328.11719.64454.17578.23047.11328.23437.0586.29297.17577.23047.1172.9336.69921.40624.40625.23438.17578.40625.17578.23437.11719.8164.34766.34766.23437.23438.11719.29297.28906.23047.11719.7578.35156.35157.17188.23047.05859.29297.11719.23437.0586.8711.17577h.8164l.46875.23047.17188.0586.875.69921.46484.1172.29297.05858.17578.0586.23047.0586.46875.05859.34766.05859.35156.0586.40625.05859h.29297l.17187.0586v.23046l.17578.17578h.29297l.34766.0586.35156.05859.69922.11719h.64063l.46484-.23438.29297-.17578.17187-.11719.41016-.17187.28906-.17578.9336-.46485.46875-.29297.52343-.29296.46485-.17188.46484-.17578 1.05078-.46485.28906-.11718.41016-.11719.28906-.11719.52735-.17578 1.51562-.69922.58203-.34765.28907-.0586.29297-.0586.34765-.11718.875-.23047.35156-.11719h.11329l.23437-.05859.875-.23437.23438-.0586h.8125l.35156-.0586.8164-.11718.17188-.0586.35156-.05468.29297-.0586.23047-.05859.8164-.17578.17579-.0586h.34765l.23438-.05859.46484-.11718.75781-.17188.23438-.0586h.34765l.41016-.11718.28906-.0586 1.28516-.05859h.28906l.41016-.0586.23047-.05858h.17578l.875-.1172h.40625l.41015-.11718h.34766l.35156-.11328.8711-.0586h1.75l1.04687.28907.41016.11719.28906.11718.35156.11719.28907.11719 1.05078.17187.28906.0586h.29297l.29297.05859.17187.0586.41016.05859.17187.0586.1172.05858h.11718l.11719.0586.35156.0586h.11328l.41016.0664 1.92187.39453 1.92578.39453 1.51953.44922 1.69532.71875 2.14453.80469 1.60547-.71875 1.42968-.80469 1.16016-1.07813 1.25-.44921 3.03516-.71875 1.875-.35938 2.14453-1.34765 2.23437-1.25391 2.5-1.25781 1.69531-.44922 1.78516-.17969 1.16016-.26953.625.53906 1.33984-.26953.71485-.98828.98437-1.34375.44531-.17969.80469-.35937 1.875-.53907 1.78516-.44921 1.25-.26954 1.16015-.08984 1.69922-.08984 1.96094-.26954 1.25-.08984h.53906l.625-.08984h.89063l2.14453-.17969 2.41015-.17969 2.58985-.08984 1.69531.17969 1.60938.08984 1.42968.35938 1.16016.71875 1.875.98828 1.16015 1.52734.26563.71484.6289.08985.35548.89844.53515.53906.53516 1.52734 1.07422.35938h.53515l-.80469.53515.08985 1.70703.71484 2.69532.89063.80468.89453.98829.71484 1.2578 1.78516.53907 1.51953-.17969.35547 1.34375 1.60937-.80469.98047-.53906.26953.26953.31641-.21484.21875-.14453.80078.44922.44922-.35938h.35547l.53515-.26953.53907-.71875.53515-.26953.625-.98828 1.16016.44922.83984.3711 1.39454.61718 1.6953-.17969h1.60548l1.78515.08985.17969-1.70704.53516-1.34375.80468.26954.4922.84765.40233.40625-.08984.53906v.35938l.71485.44922.71093-.26953h1.42969l.35938.98828.4453 1.25781.71485 1.34375 1.25.6289 1.69531.62891.71485-.17969.17969-.53906.98046-.08984.44922.35937.08594 1.25782-.26563.6289-.53515.17969v.53906l.71484.98438.26563.53906.98437.98828.80078 1.07813-.26562.35937-.08985.89844-.625 2.33203-.35546 2.0664-.08985 1.79298-.17969.71875-.08984.53906v1.4375l-.98047 1.88281-.35937 1.70703-.53516.89844-.80469 1.16797-.26562.53906 2.05469 1.2539.08593.35938-.35546.53906-.08985-.17968v.80859l.08985 1.4375-.44532.71484-1.07422.09375-.26562.71485.53515.89844.8047.71875 1.16015.80859 1.33984.26953.44531.35938-.35546.44921-1.78907-.08984-1.25-.44922-.71484-.71875-.625-.08984-.17578 3.58984-.1875 1.3086h89.35937V311.70313h-55.26953v49.08203l.76172.125 3.28906.54296 2.02344 2.83594v2.7539l2.35156.33204 2.34766.33203h4.05078l-1.3789 4.16016-2.02344.70703-2.02344.70312-.54297.34375-2.59375 1.6172-.1875.11718-2.02344-2.07813-.73046-2.74218-2.67188-2.07813-1.375-3.5-.0664-.08203-1.95704-2.67188 2.75-1.41796v-49.08204H294.42187v91.41407l.1172.03125.1328.01172.07422.07421.10547.04688.08985.0586.08593.05859.08985.0586.29687.29687.0586.08984.03125.11719.02734.11719.01563.13671-.03125.1172-.0586.08983-.0586.08594-.04296.10547-.04688.10156-.02734.1211v.14453l.17578.26953.14844.14844.07422.08594.07422.07421.04296.10547.0625.08985.0586.08593.04297.10547.0586.08985.04687.10156.04296.10547.0586.08594.11719.17968.07421.07422.0625.08594.0586.08984.04297.10547.0586.08985.05858.08593.0625.08985.0586.08984.04297.10156.11719.17969.07421.07422.0586.08594.07422.07421.08984.0586.10547.04687h.14844l.1328-.01562.13282.01562.10156-.04687.07422-.07422.04688-.10156-.01563-.13281v-.14844l-.04687-.10547-.02735-.11719-.04687-.10156-.02735-.1211-.04296-.10156-.0625-.08984-.04297-.10156-.04297-.10547-.03125-.11719-.01563-.13281-.01171-.13672.08593-.0586.0586-.08593.12109-.03125.04297.10547.01562.1328v.1172l.0586.10156.0586.08984.08983.0586.14844.14843.0586.08985.04296.10547-.01171.10156.08593.0586.10547.04687.08594.0586.08984.05858.07422.07422-.11719.02735-.10546.04687-.08594.0586-.07422.07421-.0586.08985-.0625.08594-.02734.12109-.04687.10156-.04297.10547-.03125.11719-.01172.13281-.01563.13281v.14844l.02735.11719.04687.10547.04297.10156.0586.08984.07421.07422.08985.0586.07422.07421.08984.0586.0586.08984.04296.10547.04688.10156.11719.03125.1328.01563h.14845l.11718-.03125.10547.04297.04297.10547.04688.10156.02734.1211L299.5 410l.02734.11719.03125.1211.02735.11718.10547.04297.10156.04687.13281-.01562.14844.14844.0625.08593.07422.07422.07031.07422.08984.0625.10547.04297.10156.04297.1172.03125.13671.01562.11719-.03125.07422-.07422.02734-.11718-.01172-.13282-.03125-.12109-.02734-.11719.04297-.10547h.11719l.08984.0625.11719.02735h.14843l.13282.01562h.14843l.13282.01563.1328-.01563h.14845l.1328-.01562.13282-.01172.13672.01172.11719-.02735.13281-.01562.1914-.0586-.05859.17579-.01562.1328-.02735.1211-.01562.13281-.0586.08594-.1328.01563-.10548.04687-.10546.04297-.1172.03125-.11718.02735-.26563.03125h-.14843l-.13281.01562-.07422.07422.05859.08594.14844.14843.11719.1797.07421.0703.08985.0625.08984.0586.08594.0586.08984.05858.10156.04297.10547.0625.10547.04297.08594.0586.10547.04687.10156.04297.17969.11719.0586.08984-.04298.10156-.04687.10547.01562.13281.22266.22266.0586.08985.04296.10156.03125.1211.04297.10155.01563.13282.03125.11718.01171.13672.03125.11719.14844.14844.10156.04297.10547.04296.1172.03125.1328.01563.13672.01563h.11719l.11719-.03125.08984-.0586.04297-.10547.04688-.10156.04296-.10547.03125-.11719.01172-.1328v-.14845l-.01172-.1328-.01562-.13282-.03125-.11719-.04297-.10547-.04688-.10547-.04296-.10156-.04297-.10547-.01563-.13281.01563-.13281.02734-.11719.03125-.11719.02735-.1211.04687-.10155.08984-.0586.08594-.0625.07422-.07422.08984-.05859.22266-.22266.0586-.08593.07421-.07422.11719-.17969.0586-.08594v-.14844l-.07423-.07421-.10156-.04688-.10547-.04297-.10156-.04297-.0586-.08984-.04687-.10547-.02734-.11719.08984-.05859.11719-.03125.10156-.04297.17969-.11719.14844-.14843.01172-.13282-.01172-.10546-.08985-.0586-.1328.01563h-.14845l-.1328.01562-.13282-.01562-.1211-.03125-.08593-.0586-.07422-.07422-.0586-.08984-.0625-.08594-.11718-.17969-.0586-.08593.03125-.1211.08594-.05859.1211-.03125.05859-.08594v-.1211l-.03125-.11718-.0586-.08984-.05859-.08594-.04687-.10547-.02735-.11719-.01562-.1328.0586-.08985.07421-.07422.08984-.0586.1172-.17968.07421-.07422.0586-.08594.14843-.14844.1211-.03125.1328-.01562.13282.01562.07422.07422.04297.10547.01562.13281-.03125.1172-.11719.03124-.1328.01172-.14844.14844-.04297.10547-.04688.10156-.02734.1211-.03125.11718v.14844l.03125.11719.04297.10546.05859.08985.07422.07031.07422.07422.11719.03125.12109.02734.11719-.02734.1328-.01563h.1172l.08984.0586.07422.07422.04687.10546.0586.08594.10156.04688.13281.01562.10547.04297.08594.0586-.01172.10546-.07422.07422-.17969.11719-.05859.08984-.08984.0586-.07032.07422-.07421.07421-.0625.08985-.02735.11719-.01562.1328.01562.13282-.01562.13281v.14844l.01562.13281.02735.1172.03125.12108.07421.07422.08985.0586.08594.0586.08984.05858.11719.03125v.08594l-.10157.04688-.08984.0586-.26563.03124-.11718.02735h-.14844l-.10547.04296-.10156.04688-.0586.08984-.0625.23438-.01171.13281-.03125.1211-.01563.1328v.29298l-.01172.1328.01172.13673.01563.1328.1328.01563.13282.01172.1211.03125.08593.0586.07422.07421.04688.10547.04296.10157.01563.1328v.44532l-.01563.13281v.44532l.03125.26562.02735.11719.01562.13281.03125.11719.08594.21094.03125.26562v.14844l-.03125.11719-.02734.11718-.03125.1211-.02735.11719-.03125.11718-.03125.1211-.01171.1328-.01563.13282.08984.0586.1172-.03125.10155.01562.04688.10547-.03125.26562v.44141l-.04297.10547-.04688.10547-.04296.10156-.04297.10547-.0586.08594-.03125.12109-.04296.11719-.03125.11719-.01563.1328.01563.13282.05859.08984.10547.04688.08594.0586.05859.08593-.01172.13672-.03125.11719-.04297.10156v.44531l-.01562.13281v.14844l-.03125.11719-.04297.10547-.02735.11719-.04687.10546-.04297.10157-.03125.12109-.02734.11719-.03125.13281-.03125.11719-.02735.11719-.04297.10546-.03125.1172-.03125.12108-.01171.13282-.01563.13281v.29688l.02734.11718v.14844l.04688.39844.02734.11719.0586.08984.12109.03125h.14844l.13281-.01563.0586.08985v.11719l-.0586.08984-.08984.0586-.10157.04296-.10546.04688-.08985.05859-.08594.0586-.13671.01562-.1172-.03125-.1328-.01563-.10157.04688-.0625.08594-.01172.13671-.01562.13282-.03125.11719-.02735.11718-.01562.13281-.03125.1211v.29687l.01563.13282.03125.11718v.14844l.01171.13281v.14844l-.02734.11719-.04688.10156-.02734.1211-.03125.11718-.0586.08985-.07421.07421-.10156.04297-.10547.04688-.11719.02734-.1211.03125-.10156-.04687.0586-.08594.10547-.04688.02734-.11718.03125-.11719.02734-.1211.03125-.11718v-.14844l.01563-.13281-.03125-.11719-.04297-.10547-.10547.01563-.07422.07422-.10156.04296-.08984.0625-.07422.07422-.04297.10157-.01563.1328-.03125.1172L304.25 426l-.03125.11719-.02734.11719-.03125.12109-.02735.11719-.03125.11718-.04297.10547-.08984.0586h-.08984l-.1172-.03125-.03124-.08594.01562-.13672-.03125-.11719v-.14844l-.01171-.1328v-.14844l-.0625-.23438-.02735-.1211-.04297-.10156-.04687-.10546-.0586-.08594-.05859-.08985-.04297-.10546-.0625-.08594-.14844-.14844-.0703-.07422-.10548-.04687-.10547-.04297-.10156-.04297-.29687-.29688-.08985-.07421-.08594-.0586-.10546-.04297-.08985-.0625-.08594-.0586-.10546-.04296-.08985-.0586-.08594-.0625-.07421-.0703-.10547-.04688-.08594-.0586-.10547-.04296-.08984-.0625-.10156-.04297-.10547-.04297-.08594-.0586-.10547-.04687-.10547-.04297-.10156-.04687-.08985-.0586-.10156-.04297-.10547-.04296-.08984-.0625-.11719-.02735-.13281-.01562-.13281.01562H299.75l-.13281.01563-.11719-.03125-.08984-.0586-.07422-.07422-.08985-.05859-.10156-.04688h-.14844l-.12109-.02734-.10156-.04297-.07422-.07422-.11719-.17968-.08984-.0586-.10156-.04297-.08985-.0625-.10547-.04296-.08984-.0586-.08594-.0586-.10547-.04687-.0586-.08594-.05858-.08984-.04297-.10547-.04688-.10156-.07422-.07422-.08594-.0586-.07421-.07421-.08985-.0586-.22265-.22265-.04297-.10547-.03125-.26563.10547-.04296h.14453l.10547.04296.07421.07422.08985.0586.08594.0586.10546.04687.08985.05859.14844.14844.0703.07422.14845.14843.0625.08594.07421.07422.08594.0586.07422.07421.08985.0625.08984.0586.08594.05859.26953.17578.10156.04688.10547.04296.10156.04297.04688-.07421.05859-.08594.07422-.07422.07031-.07422.10547.04297.07422.07422.0586.08984.04296.10156.04688.10547.04296.10547.1211.02735.11719-.02735.07421-.08984.04297-.10547.0586-.08985.07422-.07421.10546-.04297.1172-.02735.1328.01172.08985.0586.14844.14843.05859.08985.04297.10547.04687.10156.04297.10547.04297.10156.10547.04688.10547.04296.13281.01563.08594-.0586.0586-.08984.07421-.07422.10547-.04297.11719.02735.10547.04687.10156.04297.10547.04297.10156.04688.17969.11718v.11719l-.01563.13281.01563.13281.01562.13672.0586.08594.10156.04688.1211.02734.11718.03125h.14844l.11719-.03125.05859-.08984.17969-.1172.05859-.08983.07422-.07422.0586-.08594.11718-.17969.17969-.11719.11719.03125.08984.0586.04297.07422-.01563.1328v.1172l.08985.05859h.14843l.13282-.01563.1328-.01171.26563-.03125.10547-.04297.11719-.03125.1211-.02735.07421-.07421.07031-.07422.0625-.08985-.01562-.10547-.04688-.10156-.10156-.04297-.10547-.01562-.11718.02734-.26563.03125h-.14844l-.07421-.07422-.08985-.0586-.11719-.03124-.11718-.02735-.13282-.01562h-.14843l-.13282.01563h-.29687l-.10547-.04688-.14844-.14844-.04297-.10156-.05859-.08984.22266-.22266.08593-.0586.10547-.04296.11719-.03125.13281-.01563.13281.01563.13672.01562.10157.04297.1328-.01172.08985-.0625.10156-.04297.0625-.08984-.04687-.10156-.08984-.0586-.1172-.03125-.10155-.04296-.0586-.08985-.0625-.08984v-.11719l.01563-.13281.10547-.04688.07421-.07031v-.1211l-.08984-.05859-.03125-.11719.08985-.05859.07421-.07422.04297-.10547.0586-.08984.04687-.10156.01563-.13281v-.14844l-.04688-.10547-.04297-.10156-.08984-.0586-.13281-.01562-.10157-.04297-.13671-.01563-.1172-.03125h-.4453l-.13282-.01562-.13281-.01172-.13281-.01563-.11719-.03125h-.14844l-.13281-.01562-.13281-.01172-.26563-.03125-.1211-.04297-.08593-.0586-.07422-.07421v-.14844l.01172-.13281.10547-.04688.10156-.04296.13281-.01563h.15235l.13281-.01562h.29297l.1211.03125.10156.04296.08984.0586.23438.0625.12109-.04688.08984-.05859.10156-.04297.13282-.01562.10547.04296.10156.04688.13281.01172.1211-.02735h.14453l.12109-.03125.11719-.02734.10547-.04687.07421-.07422.08594-.0586.14844-.14843.0586-.08594.04687-.10547.02734-.11719.01563-.10547-.10156-.04296-.08985-.0586-.11719-.03125-.10546-.04297-.08985-.0625-.07422-.08594-.07422-.07421-.10156-.04297-.10547-.04688-.10156-.04297-.0586-.08984-.04687-.10156-.08594-.21094-.0625-.08594-.05859-.08984-.07422-.07422-.08594-.0586h-.26953l-.11719.03126-.08984.05859-.10156.04297-.13281.01562-.10547-.01562-.02735-.11719-.0625-.08984-.11718-.03125-.10157-.04297-.14843-.14844-.03125-.11719-.01563-.10546.07422-.07422.17969-.1172.11719-.02733.11718-.03125.13672.01562.10156.04297.10547.04297.10156.04687.10547.04297.1172.03125.1328.01563.1172.02734.1328.01563.10547-.01563.08985-.0586-.07422-.07421-.10547-.04297-.07422-.07422-.07422-.08984-.14844-.14844-.08593-.0586-.08985-.05859-.07422-.07422-.08984-.0586-.10156-.04687-.1211-.02734-.10156-.04688-.10547-.04296-.11719-.03125-.10156-.04297-.1211-.03125h-.14843l-.11719.03125-.10546.04297-.08594.0625-.17969.11718-.08594.0586-.08984.0586-.10547.04687-.08594.05859-.10547.04297-.10156.04297-.10547.04687-.07422.07422-.05859.08985-.0586.08593-.04687.10547-.0586.08594-.07421.07422-.13281-.01172-.1172-.03125h-.11718l-.07422.07422-.08984.0586-.07422.07421-.08984.0586-.08594.05859-.10547.04687-.10156.04297-.13672.01563-.10156-.04297-.14844-.14844-.10547-.04688h-.08594l-.10547.04688-.10156.04297-.1211.03125-.11718-.03125-.07422-.07422v-.11719l.03125-.1211.07422-.0703.0586-.08985.07421-.07422.11719-.03125.10547-.04296h.29297l.13281-.01563.13672-.01563.10156-.04296.08985-.0586.10156-.04687.08984-.0586.13281-.01171.08985.05859.13281.01172.08984-.0586.08594-.05859.10547-.04297.08984-.0586.08594-.0625.08985-.05859.14843-.14843.0586-.08594.05859-.08985.10547-.04296.13281-.01563.11719.02735.1211.03125.05859-.0586.05859-.08984.03125-.26563.02734-.11719.10547.01172.13281.01563.10157-.04297.08984-.0586.0586-.08984.07421-.07422.0586-.08984.04687-.10156.01172-.13281-.01172-.13282-.04687-.10547-.14844-.14843-.0586-.08985-.05859-.08594-.04297-.10546v-.44532l.01563-.1328v-.14845l.01172-.1328-.0586-.0586-.08984.0586-.10156-.04298-.17969-.11719-.08594-.05859-.0625-.08984-.0586-.08985-.07421-.07421-.08594-.0586-.1211.03125-.10155.01172-.10547.04688-.08594.05859-.10547.04297-.14844.14844-.08984.05859-.08594.0586-.08984.0625-.10547.04296-.13281.01563v-.1211l.10547-.04297.11718-.03125.07422-.0703.04297-.10548v-.14844l-.02734-.11718-.14844-.14844-.13281-.01563h-.14844l-.11719.03125-.10547.04297-.10156.04297-.08984.0625-.11719.02735-.07422-.07422.01172-.13281-.04297-.10157-.04297-.10547-.08984-.05859-.11719.02734-.1211.03125-.11718.03125-.10156.04297-.1211.03125-.10156.04297-.10547.04297-.08984.0586-.10156.01562v-.11719l.01562-.13281-.0586-.08985-.07421.04297-.14844.14844-.0586.08985-.07421.07421-.04688.10547-.04296.10156-.07422.07422-.0586.08985-.07422.07422-.05859.08593-.07422.07422-.08984.0625-.07422.07031-.07422.07422-.10156.01563-.13281.01562-.10547-.04296v-.1211l.14843-.14844.04297-.10156.0586-.08984.04687-.10156.04297-.10547.0586-.08985.03124-.11719.04297-.10156.03125-.1211.02735-.11718.04687-.10547.04297-.10156.04297-.10547.07422-.07031.08984-.0625.08985-.0586.10156-.04296h.29687l.26563-.03125.10547-.04297-.07422-.07422-.11719-.03125-.10547-.04297-.08984-.0586-.10156-.04687-.08985-.0586-.10156-.04296-.10547-.04297-.08984-.0625-.08594-.0586-.10547-.04296-.10156-.04297-.1211-.03125-.11718-.03125-.10157-.04297L297.5 410.25l-.10156-.04297-.08985-.0586-.04296-.10546-.01563-.13281.10156-.04297.13281-.01563.13672.01563.13282-.01563.10156-.04297.0586-.08984.01562-.10547-.08985-.0586-.07421-.07421-.10157-.04297-.08984-.0586-.14844-.14843-.04297-.10547-.01562-.13281v-.29297l-.0586-.08985-.08984-.05859-.07422-.07422-.04297-.10547-.03125-.11718-.0586-.08985-.07421-.07422-.11719-.02734-.07422-.07422-.08984-.0586-.08984-.0625-.08594-.05859-.07422-.07421-.0586-.08594-.04687-.10547-.08594-.0586-.14843-.14843-.19532-.0586-.1328.01563-.10157.04297-.07422.07422-.04688.10156-.04296.10547-.0586.08984-.0586.08594-.29687.29687-.08984.0586h-.08594l-.0625-.08594-.04297-.10547.03125-.11719.0586-.08984.02734-.11719-.01172-.13281-.08984-.0625-.10547.04688-.11719.02734-.11719.03125-.26953.17578-.10156.04688-.11719.02734-.10546.04687-.08985.0586-.10156.04297-.0586-.08594-.04687-.10547.01563-.13281.04687-.10547.07031-.07422.07422-.07031.0586-.08985v-.14843l-.04297-.10547h-.23829l-.10156.04687-.03125.11719-.02734.11719-.03125.1211-.07422.04296-.13281.01563-.07422-.04688-.04297-.10156-.04297-.10547-.04687-.10156-.04297-.10547-.1211.03125-.10156.04297-.13281.01562-.11719.03125-.10547.04297-.08984.0586-.10156.04687-.1211.02734-.13281.01563-.10156-.04297-.0586-.08985-.04687-.10546-.04297-.10157-.04297-.10546v-.1172l.0586-.08984.08593-.05859.17969-.11719.10156-.04687.10547-.04297.10547-.0586.10156-.04296.08985-.0625.10156-.04297.10547-.0586.10156-.04687.08984-.0586.10547-.04296.10156-.04297.08985-.0625.10156-.04297.13672-.01563.11719.03125.10156.04297.1211.03125.10156.04297.10546.04688.10157.04296.10547.04297.10156.04688.10547.04297.10156.04297.10547.04687.08594.0586.10546.04296.1172.03125.10546.04297.10156.04688.08985.0586.10547.04296.10156.04297.10547.04687.11719.02735.10156.04687.1211.02735h.14843l.08594-.0586.01562-.10156.0586-.08984-.02735-.1172-.07422-.07421-.11719-.17969-.07421-.07422-.08985-.07421-.17969-.1172-.08593-.05859-.10547-.04296-.10156-.04688-.26954-.17578-.05859-.08985-.07422-.07421-.0586-.08985-.04296-.10156-.03125-.11719-.01563-.13672v-.5625l-.01171-.1328-.01563-.13282-.03125-.11719-.01562-.13281-.01172-.13281-.03125-.1211-.22266-.22265-.0586-.08594-.01562-.10547.03125-.11719.13281-.01562v-91.41406H172.9922v1.45312l-.0586.23438-.35156 1.05078-.17187.52343-.1172.34766-.17577.41016-.11719.17187-.23438.29297-.23046.0586h-.35157l-.11718.05859-.23047.40625v.29297l.11719.17578.23046.23047.1172.23437.64062.75781.29297.46485.17578.23437.23047.35156.23437.34766.64063.8164.17578.46485.17187.41016.11719.69531.17578.46875.11719 1.39844.0586.46484v.875l.11718 1.04688v4.78125l-.0586.46484-.35156 1.28125-.17578.52344-.11328.41015-.35156.9297L172.93359 336l-.23437.58203-.11719.17578-.17187.34766-.17578.40625-.35157.8164-.0586.29297-.11327.29297-.11719.28906-.0586.17579-.11718.875-.0586.40625-.05859.11718-.0586.17579-.05859.17187-.23047.52734-.11718.17188v.23437l-.11719.23438-.0586.17187-.17577.58594v.28906l-.0586.17579v.29296l-.0586.11329-.05859.52734v.17187l-.05468.23438v2.6211l-.17578.8164-.1172.17578-.17577.23438-.1172.17187-.11327.23438-.58594.93359-.23047.28906-.29297.46485-.17578.23437-.28906.35156-.35156.69922-.11328.23047-.17579.41016-.17578.23046-.40625.52735-.8164.69922-.29297.17187-.28906.23438-.17579.11719-.17578.17578-.52344.40625-.52734.17578-.17187.17578-.23438.05469-.64062.17578h-.75782m12.21094 31.02344l-1.07422.44921.35938.89454 1.25-.71485.44531-.53906-.98047-.08985"/><path fill="#d3d3d3" fill-opacity="0" fill-rule="evenodd" d="M201.50781 416.59766h-.89453l.44922.6289.98047.35938.80469-.08985.4453-.98828-.17577.08985-.71485-.35547-.89453.35547m154.6211 59.0703l-.0586-.52343v-.29297l.11328-.29297.0586-.23046.46875-.46875h.11328l.11719-.11329.11718-.05859h.17579l.23437-.0586h.34766l.23437.0586.11719.0586.23047.17187.0586.17578.11718.58203v.29297l-.11719.17578-.17187.28906-.17579.17579-.52734.52343-.23047.23438-.11719.0586h-.17578l-.11718-.0586-.40625-.29297-.17579-.11719-.11718-.0586-.0586-.11327-.05468-.1172m6.64062-10.95702l-.0586-.17188v-1.10937l.0586-.17188.17578-.0586.17188-.05858h.17578l.23437-.0586.1172.0586.05858.69921-.05859.17188-.11719.17578-.11718.0586-.23438.52343-.11328.0586h-.23438l-.05859-.1172m9.61328-14.39062l-.11719-.17578v-.69922l.29297-.875.1172-.17187.17577-.35156.11328-.23047.1172-.29297.35155-.75781.1172-.23047.17187-.23438h.17578l.11719-.0586h.64062l.11719.0586.23437.23438.17188.11328.35156.29297.11719.11718.11328.17579v.11328l.11719.05859.11718.11719v.69922l-.05859.17578v.23047l-.0586.17578-.34765 1.05078-.11719.23047-.11719.23437-.11718.0586-.23047.23437-.64063.28906h-.875l-.41015-.11718-.64063-.46485"/><path fill="none" stroke="#bebebe" stroke-linecap="round" stroke-linejoin="round" stroke-miterlimit="10" stroke-width=".5" d="M467.95703 311.69531H144.02734v168.625h323.9297v-168.625"/><g clip-path="url(#a)"><path fill="#fff" fill-opacity="0" fill-rule="evenodd" d="M144 475.89063v4.4375h.0039H144V311.67188h.0039H144v164.21875"/></g><g clip-path="url(#b)"><path fill="#fff" fill-opacity="0" fill-rule="evenodd" d="M144.0039 480.32813V311.67188h48.81641V417.8789l-.51172.3125-3.92578 1.10937-4.4375 1.02735-3.51953 2.30078-.91797.37109-4.4414 1.70703-2.82032 2.36328-1.61718.86719-3.9336 3.57031-.5039.34766-4.4375 1.83203-2.61328 2.25781-.58594 4.4375 2.83594 4.4375.36328.96485 4.4375 2.47265 3.01562 1.0039-3.01562 3.32813-4.4375-.33203-.5625 1.4414.5625 3.17188.84375 1.26563 3.59375 1.60547 3.88672 2.83203.55078.25781.53906-.25781 3.89844-4.05078.67578-.38672 3.76562-2.99219 4.4375 2.44922 2.47266.54297 1.96484.35937 4.4375 2.4375 4.4414-.64843 2.33985 2.28906 2.09766 1.39453 4.4375.9375 4.4375.64453 4.4414-.79297 4.4375-.19922 2.84375-1.98437.7461-4.4375.84766-.25781.62109.2578 3.8164 3.95313.33594.48438 4.10156 2.73437 4.44141-.26953 4.4375-.95703 1.79688-1.50781 1.01562-4.4375.42578-4.4375-3.23828-3.76172-4.4375.39844-4.4414.04687-1.4336-1.1211 1.4336-3.13671.83593-1.30469-.83594-1.28515-1.17968-3.15235 1.17969-1.14844 4.4414 1.07813.35547.07031 4.08203 2.23828 4.4375 2 4.03516-4.23828.40234-1.01562 4.4375-.2539 4.4414.5 3.59766-3.66798-3.59765-3.84375-4.4414.32813-4.4375-.625-.33985-.29688-4.09766-3.9375-4.4375.22266-3.3125-.72266-1.125-.8164-4.4414-2.5-2.73829-1.125-1.69922-.96094-4.4375-2.5664-4.4375.99609-3.21093 2.53125-1.22656.47265-4.44141-.34765-4.4375.74609-2.39063-.8711-2.04687-2.24218-4.4375-.8711-3.96094-1.32421-.48047-.3125V311.67187h88.76953v111.6211l-4.4375.08594-4.4414.04296-4.4375.95704-3.02344 2.6914-.84375 4.4375 3.86719 2.1914 4.4375-.64843 4.4414 1.30078 1.42188 1.59375 3.01562 2.83985v6.0039l-.05859.03125-3.85156 4.4414-.52735.29298-4.4414 1.50781-2.91016 2.63672 2.91016 1.73828 4.4414 1.13672 4.42579-2.875.01171-.02344 2.26172-4.41406-2.01953-4.4414-.24219-.03126v-6.0039l4.4375.95312 4.4375.15625 3.9297-3.94922.5078-1.90625 4.44141.16797 4.4375.40625 3.09766-3.10547-1.09375-4.4375-2.00391-1.84765-2.47656 1.84765-1.96094 1.10156-4.4414.69141-4.4375-.21094-4.4375-1-1.25-.58203-3.1875-3.77734v-111.6211h66.57421v117.47657l-1.74219 2.35937-1.02343 4.4375 2.76562 2.57031 1.47266 1.8672 2.96484 3.0078 4.4414.41407 4.4375-2.24219 1.58595-1.17969-1.58594-1.26953-4.4375-2.84375-.22656-.32422-4.21485-3.89062-2.54297-.54688-1.89453-2.35937V311.67188h31.07031v123.98437l-.24609.28906-4.19531 3.34766-.92969 1.08984.92969 1.14844 3.11719 3.28906 1.32421 1.41406 1.59375 3.02735-1.59375 3.03906-1.47265 1.39844 1.47265 1.20312 3.01172 3.23438-1.45703 4.4375 2.88281 3.53125 1.15235.91015 1.01562 4.4375 2.26954 2.10547 2.89843-2.10546 1.53906-.6211 4.4375-1.4375 3.1211-2.3789.08594-4.44141.37109-4.4375-3.57813-4.27735-.09375-.16015-1.02734-4.4375-3.3164-3.82422-4.4375-.39844-1.02735-.21875-3.28515-4.4375-.125-.29687-3.87891-4.14063-.5586-.28906V311.67187h88.76172v168.65625H144.00391"/></g><path fill="#50fcfc" fill-rule="evenodd" d="M161.39063 444.82031l-2.83594-4.4375.58594-4.4375 2.61328-2.25781 4.4375-1.83203.5039-.34766 3.9336-3.57031 1.61718-.86719 2.82032-2.36328L179.5078 423l.91797-.3711 3.51953-2.30077 4.4375-1.02735 3.92578-1.10937.51172-.3125v4.26562l-4.4375.0625-1.44922.42188-2.98828.97265-4.4375 1.42578-3.44531 2.04297-.9961.64063-4.4375 2.36719-1.57421 1.42968-2.86328 1.96485-3.63672 2.47265-.80078 2.92969-.47266 1.50781.47266.6914 4.4375 2.1211 4.4375.70703v13.07422l-.33985 1.16016.33985 1.10937 1.4453-1.10937-1.4453-1.16016v-13.07422l2.30078.91797 2.13672 1.99219v6.03516l-3.33985.85156 3.33985 3.57422 2.6914-3.57422-2.6914-.85156v-6.03516l4.4414 2.15625.67969.29297 3.75781 1.98437 4.4375 2.1875.24219.26563 4.19531 4.13672 4.4414-1.39063 4.4375-.23437 4.4375-.53906 4.4375.90234 2.67188 1.5625-2.67187 2.35156-2.45313 2.08594 2.45313.73437 2.1289-.73437 2.3125-2.63281 1.05079-1.8047 3.38672-2.6328 3.3789-1.8047 1.0586-3.10546.4453-1.33203.73829-4.4414-1.1836-2.1797-.41015-2.2578.36328-4.4375.04688-.0547 3.375-4.3828-3.375-4.32813-4.4375.8164-1.89063-.92578-2.54688-2.10156-4.4414-.60547-4.4375.60547-4.4375-.98828-4.4375-1.16016-.85938-.1914-3.58203-.48438v-4.26562l.48047.3125 3.96094 1.32421 4.4375.8711 2.04687 2.24219 2.39063.87109 4.4375-.7461 4.4414.34766 1.22657-.47265 3.21094-2.53125 4.4375-.9961v1.6289l-3.4297 1.89845 3.4297 4.20312 2.55859-4.20312-2.5586-1.89844v-1.6289l4.4375 2.5664 1.69922.96094 2.73828 1.125 4.44141 2.5v1.73828l-3.53125 3.51562.11328 4.4375 3.41797 2.7539 4.4375 1.13673.39453.54687 4.04297 3.53125 3.36328-3.53125 1.07422-2.70703 4.4375-.77344 4.4414 1.35157 2.26563-2.3086-2.26562-2.41797-4.4414 1.35547-4.4375-1.03125-2.69923-2.34375-1.73828-1.67187-4.4375 1.52734-4.4375-3.3711v-1.73827l1.125.8164 3.3125.72266 4.4375-.22266 4.09766 3.9375.33984.29688 4.4375.625 4.4414-.32813 3.59766 3.84375-3.59765 3.66797-4.4414-.5-4.4375.2539-.40235 1.01563-4.03516 4.23828-4.4375-2-4.08203-2.23828-.35547-.07031-4.4414-1.07813-1.1797 1.14844 1.1797 3.15235.83593 1.28515-.83594 1.30469-1.43359 3.13672 1.4336 1.1211 4.4414-.04688v2.9336l-1 .42968 1 1.64453.72656-1.64453-.72656-.42969v-2.9336l4.4375-.39843 3.23828 3.76172-.42578 4.4375-1.01562 4.4375-1.79688 1.50781-4.4375.95703-4.4414.26953-4.10157-2.73437-.33594-.48438-3.8164-3.95312-.6211-.25781-.84765.2578-.7461 4.4375-2.84375 1.98438-4.4375.19922-4.4414.79297-4.4375-.64453-4.4375-.9375-2.09766-1.39453-2.33984-2.28906-4.4414.64843-4.4375-2.4375-1.96485-.35937-2.47266-.54297-4.4375-2.44922-3.76562 2.99219-.67578.38672-3.89844 4.05078-.53906.25781-.55078-.25781-3.88672-2.83203-3.59375-1.60547-.84375-1.26563-.5625-3.17187.5625-1.4414 4.4375.33202 3.01562-3.32812-3.01562-1.0039-4.4375-2.47266-.36328-.96485"/><path fill="#00e8fc" fill-rule="evenodd" d="M161.7539 441.07422l-.47265-.6914.47266-1.50782.80078-2.92969 3.63672-2.47265 2.86328-1.96485 1.57422-1.42969 4.4375-2.36718.99609-.64063 3.44531-2.04297v5.32813l-4.4414 1.04297-.20703.10937-4.23047 2.50781-3.7461 1.9297 3.52735 4.4375.21875.0664 4.4375 2.05469 4.4414-.6875 4.4375-.36329 2.58594-1.0703-2.58594-1.09766-2.86719-3.33985 1.07422-4.4375-2.64453-1.15234v-5.32813l4.4375-1.42578 2.98828-.97265 1.44922-.42188 4.4375-.0625 3.58203.48438.85938.1914 4.4375 1.16016 4.4375.98828 4.4375-.60547v2.6836l-.24219.02343-4.19531.32813-4.4375 2.10937-3.23438 2-1.20312 1.07813-4.4414 2.27344-.96876 1.08593-1.80078 4.4375 2.76953 4.15625.04297.28125.07813 4.4414 4.3203 2.2422 4.4375.51953 4.4375-.72656 4.4375-1.08204 4.44142-.33984.55078-.61328-.55078-.51172-3.07032-3.92969 3.07031-3.79687.69532-.64063 3.74219-1.51953v5.86719l-.10157.08984.10156.09375.77735-.09375-.77734-.08984v-5.86719l2.08984-2.91797 2.34766-2.91406 1.17578-1.52344L223.89063 430l-4.4375-.13672-4.4375-1.89844-4.33204-.89453-.10937-.02344v-2.68359l4.4414.60547 2.54688 2.10156 1.89063.92578 4.4375-.8164 3.375 4.32812-3.375 4.38281-.04688.0547-.36328 4.4375.41016 2.2578 1.18359 2.1797-.73828 4.4414-.44531 1.33203-1.0586 3.10547-3.3789 1.80469-3.38672 2.6328-1.05078 1.8047-2.3125 2.6328-2.12891.73438-2.45313-.73437 2.45313-2.08594 2.67187-2.35156-2.67187-1.5625-4.4375-.90235-4.4375.53907-4.4375.23437-4.4414 1.39063-4.19532-4.13672-.24219-.26563-4.4375-2.1875-3.75781-1.98437-.67969-.29297-4.4414-2.15625-2.13672-1.99219-2.30078-.91797-4.4375-.70703-4.4375-2.1211"/><path fill="#00d4fc" fill-rule="evenodd" d="M170.41016 440.38281l-3.52735-4.4375 3.7461-1.92969 4.23047-2.5078.20703-.10938 4.4414-1.04297 2.64453 1.15234-1.07422 4.4375 2.8672 3.33985 2.58593 1.09765-2.58594 1.07031-4.4375.36329-4.4414.6875-4.4375-2.0547-.21875-.0664"/><path fill="#fff" fill-opacity="0" fill-rule="evenodd" d="M170.6289 456.97656l-.33984 1.16016.33985 1.10937 1.4453-1.10937-1.4453-1.16016m4.4375-4.1289l-3.33985.85156 3.33985 3.57422 2.6914-3.57422-2.6914-.85156"/><path fill="#00d4fc" fill-rule="evenodd" d="M192.82031 444.53906l-2.76953-4.15625 1.80078-4.4375.96875-1.08594 4.4414-2.27343 1.20313-1.07813 3.23438-2 4.4375-2.10937 4.19531-.32813.24219-.02344v1.40625l-4.4375 1.23047-2.3086 1.82422-2.1289 3.8164-.65625.6211.65625 2.32422.47266 2.11328-.47266 2.6289-1.76172 1.8086 1.76172.78125 4.4375.30078.82031-1.08203 3.61719-2.5 1.75-1.9375 2.6914-2.48437 3.9336-1.95313-.78906-4.4375-3.14453-.80078-4.44141-2.2539v-1.40625l.10937.02343 4.33203.89453 4.4375 1.89844 4.4375.13672 1.17579 1.50781-1.17578 1.52344-2.34766 2.91406-2.08984 2.91797-3.7422 1.51953-.6953.64063-3.07032 3.79687 3.07031 3.92969.55079.51172-.55078.61328-4.44141.33984-4.4375 1.08204-4.4375.72656-4.4375-.51953-4.32031-2.2422-.07813-4.4414-.04297-.28125"/><path fill="#00c4fc" fill-rule="evenodd" d="M201.69922 445.60156l-1.76172-.78125 1.76172-1.8086.47266-2.6289-.47266-2.11328-.65625-2.32422.65625-.6211 2.1289-3.8164 2.3086-1.82422 4.4375-1.23046v1.39453l-3.79688 1.66015-.64062.67969-2.47656 3.75781 2.47656 4.14063 4.4375-.97266 3.47266-3.16797-.6875-4.4375-2.78516-1.66015v-1.39454l4.4414 2.25391 3.14454.80078.78906 4.4375-3.9336 1.95313-2.6914 2.48437-1.75 1.9375-3.61719 2.5-.82031 1.08203-4.4375-.30078"/><path fill="#00b8fc" fill-rule="evenodd" d="M206.13672 440.08594l-2.47656-4.14063 2.47656-3.75781.64062-.67969 3.79688-1.66015v1.39453l-.60938.26562-3.82812 4.0664-.24219.3711.24219.41016 4.4375-.36328.05078-.04688.39844-4.4375-.44922-.26562v-1.39453l2.78516 1.66015.6875 4.4375-3.47266 3.16797-4.4375.97266"/><path fill="#00a8fc" fill-rule="evenodd" d="M206.13672 436.35547l-.24219-.41016.24219-.3711 3.82812-4.0664.60938-.26562.44922.26562-.39844 4.4375-.05078.04688-4.4375.36328"/><path fill="#50fcfc" fill-rule="evenodd" d="M219.45313 444.73047l-.10157.08984.10156.09375.77735-.09375-.77734-.08984"/><path fill="#00e8fc" fill-rule="evenodd" d="M223.89063 426.83203l-3.4297-4.20312 3.4297-1.89844 2.55859 1.89844-2.5586 4.20312m9.89844 9.11328l-.11328-4.4375 3.53125-3.51562v1.65234l-1.8711 1.86328 1.78907 4.4375.08203.0664 4.4375 1.96095 1.74219 2.41015 2.69531 2.35547 2.24219-2.35547 1.0586-4.4375-3.30079-2.96484-4.4375.625-2.0625-2.09766-2.375-1.86328v-1.65234l4.4375 3.3711 4.4375-1.52735 1.73828 1.67187 2.69922 2.34375 4.4375 1.03125 4.4414-1.35547v2.375l-.10937.04297.10938.04297.03906-.04297-.03906-.04297v-2.375l2.26562 2.41797-2.26562 2.3086-4.4414-1.35157-4.4375.77344-1.07423 2.70703-3.36328 3.53125-4.04297-3.53125-.39453-.54687-4.4375-1.13672-3.41797-2.7539"/><path fill="#00d4fc" fill-rule="evenodd" d="M237.125 435.94531l-1.78906-4.4375 1.8711-1.86328v1.65235l-.21095.21093.21094.50781 4.0664 3.9297.3711.16406 3.08984 4.27343 1.34766 1.17969 1.1211-1.17969-.76563-4.4375-.35547-.32031-4.4375.1289-4.17187-4.24609-.26563-.21094v-1.65234l2.375 1.86328 2.0625 2.09766 4.4375-.625 3.30078 2.96484-1.0586 4.4375-2.24218 2.35547-2.69531-2.35547-1.74219-2.41015-4.4375-1.96094-.08203-.0664"/><path fill="#00e8fc" fill-rule="evenodd" d="M237.20703 455.34375l-1-1.64453 1-.42969.72656.42969-.72656 1.64453"/><path fill="#00c4fc" fill-rule="evenodd" d="M237.20703 432.01563l-.21094-.50782.21094-.21094.26563.21094 4.17187 4.2461 4.4375-.12891.35547.32031.76563 4.4375-1.1211 1.17969-1.34766-1.17969-3.08984-4.27344-.3711-.16406-4.0664-3.92969"/><path fill="#00d4fc" fill-rule="evenodd" d="M259.39844 435.98828l-.10938-.04297.10938-.04297.03906.04297-.03906.04297"/><path fill="#50fcfc" fill-rule="evenodd" d="M268.27344 433.69922l-3.86719-2.1914.84375-4.4375 3.02344-2.69141 4.4375-.95704 4.4414-.04296v2.0625l-4.4414.42968-3.96094 1.19922 3.96094 1.80469 4.4414 2.16797.20704.46484 4.01953 4.4375.21093.19531 4.4375 2.58204 4.4375.39843 3.16016-3.17578-.80469-4.4375-2.35547-.34375-4.4375-2.1914-4.08203-1.90235-.35547-.42187-4.4375-1.20703v-2.0625l4.4375-.08594 3.1875 3.77734 1.25.58203 4.4375 1 4.4375.21094 4.44141-.6914 1.96094-1.10157 2.47656-1.84765v4.34765l-4.26172 1.9375 4.26172.97266.97266-.97266-.97266-1.9375v-4.34765l2.0039 1.84765 1.09376 4.4375-3.09766 3.10547-4.4375-.40625-4.4414-.16797-.50782 1.90625-3.92969 3.94922-4.4375-.15625-4.4375-.95312-3.01562-2.83985-1.42188-1.59375-4.4414-1.30078-4.4375.64844"/><path fill="#00e8fc" fill-rule="evenodd" d="M272.71094 428.875l-3.96094-1.80469 3.96094-1.19922 4.4414-.42968 4.4375 1.20703v4.33984l-.46093.51953.46093.5039 2.66016 3.9336 1.77734 1.08203 4.4375.8086 1.87891-1.89063-1.8789-2.73047-3.8125-1.70703-.625-.33203-4.4375-.1875v-4.33984l.35546.42187 4.08203 1.90235 4.4375 2.1914 2.35547.34375.80469 4.4375-3.16016 3.17578-4.4375-.39843-4.4375-2.58204-.21093-.1953-4.01954-4.4375-.20703-.46485-4.4414-2.16797"/><path fill="#50fcfc" fill-rule="evenodd" d="M272.71094 455.4375l-2.91016-1.73828 2.91016-2.63672 4.4414-1.50781.52735-.29297 3.85156-4.4414.0586-.03126.24218.03125 2.01953 4.4414-2.26172 4.41407-.01171.02344-4.42579 2.875-4.4414-1.13672"/><path fill="#00d4fc" fill-rule="evenodd" d="M281.58984 432.01172l-.46093-.5039.46093-.51954 4.4375.1875.625.33203 3.8125 1.70703v1.85938l-2.5.8711 2.5.60156.60157-.60157-.60157-.8711v-1.85937l1.87891 2.73047-1.8789 1.89063-4.4375-.8086-1.77735-1.08203-2.66016-3.9336"/><path fill="#00c4fc" fill-rule="evenodd" d="M290.46484 436.54688l-2.5-.60157 2.5-.8711.60157.8711-.60157.60156"/><path fill="#00e8fc" fill-rule="evenodd" d="M303.78125 432.48047l-4.26172-.97266 4.26172-1.9375.97266 1.9375-.97266.97266"/><path fill="#50fcfc" fill-rule="evenodd" d="M348.16406 438.51563l-2.76562-2.57032 1.02344-4.4375 1.74218-2.35937 1.89453 2.35937 2.54297.54688v1.2539l-4.03906 2.63672 3.63281 4.4375.40625.41406 4.4414 1.37891 2.53126-1.79297-2.53125-2.15625-1.58594-2.28125-2.85547-2.63672v-1.2539l4.21485 3.89062.22656.32422 4.4375 2.84375 1.58594 1.26953-1.58594 1.17969-4.4375 2.24219-4.4414-.41406-2.96485-3.00782-1.47266-1.86719"/><path fill="#00e8fc" fill-rule="evenodd" d="M352.19531 440.38281l-3.63281-4.4375 4.03906-2.63672v2.08985l-.83594.54687.83594.99219.59375-.99219-.59375-.54687v-2.08985l2.85547 2.63672 1.58594 2.28125 2.53125 2.15625-2.53125 1.79297-4.4414-1.3789-.40626-.41407"/><path fill="#00d4fc" fill-rule="evenodd" d="M352.60156 436.9375l-.83594-.99219.83594-.54687.59375.54687-.59375.99219"/><path fill="#50fcfc" fill-rule="evenodd" d="M374.79297 441.53125l-.92969-1.14844.92969-1.08984 4.19531-3.34766.2461-.28906.55859.28906 3.8789 4.14063.125.29687 3.28516 4.4375 1.02735.21875v2.07813l-3.05079 2.14453 3.05079 2.84375 1.03125 1.59375-1.03125 1.3711-2.71094 3.0664-1.72656 4.28515-.08204.15235.08204.10156 4.4375 4.08594 4.4375.10937 4.4375-1.70703.87109-2.58984.60937-4.4375-1.48046-1.76563-1.58594-2.67187-2.85156-3.46485-1.51563-.97265-2.92188-2.14453v-2.07813l4.4375.39844 3.31641 3.82422 1.02735 4.4375.09375.16015 3.57812 4.27735-.3711 4.4375-.08593 4.4414-3.1211 2.37891-4.4375 1.4375-1.53906.6211-2.89844 2.10546-2.26953-2.10546-1.01562-4.4375-1.15235-.91016-2.8828-3.53125 1.45702-4.4375-3.01171-3.23438-1.47266-1.20312 1.47265-1.39844 1.59375-3.03906-1.59375-3.02735-1.32421-1.41406-3.1172-3.28906"/><path fill="#00e8fc" fill-rule="evenodd" d="M383.67188 462.67578l-.08204-.10156.08204-.15235 1.72656-4.28515 2.71094-3.0664 1.03125-1.3711-1.03125-1.59375-3.05079-2.84375 3.05079-2.14453 2.92187 2.14453 1.51563.97265v3.02344l-.4336.4414-3.24219 4.4375-.76171.59376-2.64454 3.84375 2.64454 2.48047 4.4375.61328 3.40625-3.09375-.51563-4.4375-2.52734-4.4375-.36329-.4414v-3.02344l2.85157 3.46484 1.58594 2.67187 1.48046 1.76563-.60937 4.4375-.8711 2.58984-4.4375 1.70703-4.4375-.10937-4.4375-4.08594"/><path fill="#00d4fc" fill-rule="evenodd" d="M388.10938 465.05469l-2.64454-2.48047 2.64454-3.84375.76171-.59375 3.2422-4.4375.43358-.4414v4.51171l-.26171.36719-4.17579 3.2461-.8203 1.1914.8203.76953 4.4375 1.11719 2.07813-1.88672-1.8711-4.4375-.20702-.36719v-4.51172l.36328.4414 2.52734 4.4375.51563 4.4375-3.40625 3.09376-4.4375-.61328"/><path fill="#00c4fc" fill-rule="evenodd" d="M388.10938 463.34375l-.82032-.76953.82031-1.1914 4.17579-3.2461.26171-.36719v3.1211l-2.24609 1.68359 2.2461.67969.75-.6797-.75-1.68358v-3.1211l.20703.36719 1.87109 4.4375-2.07813 1.88672-4.4375-1.11719"/><path fill="#00b8fc" fill-rule="evenodd" d="M392.54688 463.2539l-2.2461-.67968 2.2461-1.6836.75 1.6836-.75.67969"/><g clip-path="url(#c)"><path fill="#fff" fill-opacity="0" fill-rule="evenodd" d="M467.9961 480.32813H468V311.67188h-.0039H468v168.65625h-.0039"/></g><path fill="#fff" fill-opacity="0" fill-rule="evenodd" d="M233.1289 430.29688l5.33204 2.38671 4.07031-9.08984-5.33203-2.38672-4.07031 9.08985"/><path fill-rule="evenodd" d="M239.64453 424.3086l.46484.20702-2.5703 5.7461-.71876-.32031 1.83203-4.09766-1.26562-.57031.22656-.5039.53906.16796.25.05469.2461.01172.24219-.04688.24609-.1211.25-.21093.25781-.3164"/><path fill="#fff" fill-opacity="0" fill-rule="evenodd" d="M207.23047 470.67969l5.83984-.09766-.16406-9.95703-5.83984.09375.16406 9.96094"/><path fill-rule="evenodd" d="M210.59375 462.4961l.51172-.01173.10156 6.29688-.78906.01172-.07031-4.48828-1.39063.02344-.00781-.5586.5586-.07422.25-.05469.23046-.09375.19922-.14453.17188-.21484.13671-.29688.09766-.39453"/><g clip-path="url(#d)"><path fill="none" stroke="#000" stroke-linecap="round" stroke-linejoin="round" stroke-miterlimit="10" stroke-width=".5" d="M147.4961 479.97266l-6.9922.71484"/></g><g clip-path="url(#e)"><path fill="none" stroke="#000" stroke-linecap="round" stroke-linejoin="round" stroke-miterlimit="10" stroke-width=".5" d="M146.47656 480.07422l.6836 1.01953"/></g><g clip-path="url(#f)"><path fill="none" stroke="#000" stroke-linecap="round" stroke-linejoin="round" stroke-miterlimit="10" stroke-width=".5" d="M160.80469 479.91406l-6.98047.82813"/></g><g clip-path="url(#g)"><path fill="none" stroke="#000" stroke-linecap="round" stroke-linejoin="round" stroke-miterlimit="10" stroke-width=".5" d="M159.78906 480.03516l.69922 1.0078"/></g><g clip-path="url(#h)"><path fill="none" stroke="#000" stroke-linecap="round" stroke-linejoin="round" stroke-miterlimit="10" stroke-width=".5" d="M174.13281 480.05469l-7.0039.54687"/></g><g clip-path="url(#i)"><path fill="none" stroke="#000" stroke-linecap="round" stroke-linejoin="round" stroke-miterlimit="10" stroke-width=".5" d="M173.11328 480.13672l.66016 1.03515"/></g><g clip-path="url(#j)"><path fill="none" stroke="#000" stroke-linecap="round" stroke-linejoin="round" stroke-miterlimit="10" stroke-width=".5" d="M187.45703 480.29688l-7.02344.0625"/></g><g clip-path="url(#k)"><path fill="none" stroke="#000" stroke-linecap="round" stroke-linejoin="round" stroke-miterlimit="10" stroke-width=".5" d="M186.4375 480.30469l.58594 1.07812"/></g><g clip-path="url(#l)"><path fill="none" stroke="#000" stroke-linecap="round" stroke-linejoin="round" stroke-miterlimit="10" stroke-width=".5" d="M200.64453 479.3789l-6.76562 1.89844"/></g><g clip-path="url(#m)"><path fill="none" stroke="#000" stroke-linecap="round" stroke-linejoin="round" stroke-miterlimit="10" stroke-width=".5" d="M199.66016 479.65625l.84765.88672"/></g><g clip-path="url(#n)"><path fill="none" stroke="#000" stroke-linecap="round" stroke-linejoin="round" stroke-miterlimit="10" stroke-width=".5" d="M213.70313 478.73047l-6.25782 3.19922"/></g><g clip-path="url(#o)"><path fill="none" stroke="#000" stroke-linecap="round" stroke-linejoin="round" stroke-miterlimit="10" stroke-width=".5" d="M212.79297 479.19531l1.00781.70313"/></g><g clip-path="url(#p)"><path fill="none" stroke="#000" stroke-linecap="round" stroke-linejoin="round" stroke-miterlimit="10" stroke-width=".5" d="M226.79297 478.35156l-5.8086 3.95313"/></g><path fill="none" stroke="#000" stroke-linecap="round" stroke-linejoin="round" stroke-miterlimit="10" stroke-width=".5" d="M225.94922 478.92578l1.08594.57422"/><g clip-path="url(#q)"><path fill="none" stroke="#000" stroke-linecap="round" stroke-linejoin="round" stroke-miterlimit="10" stroke-width=".5" d="M240.22656 478.53516l-6.04297 3.58593"/></g><path fill="none" stroke="#000" stroke-linecap="round" stroke-linejoin="round" stroke-miterlimit="10" stroke-width=".5" d="M239.34766 479.0586l1.04687.63671"/><g clip-path="url(#r)"><path fill="none" stroke="#000" stroke-linecap="round" stroke-linejoin="round" stroke-miterlimit="10" stroke-width=".5" d="M253.97656 479.69531l-6.91015 1.26953"/></g><g clip-path="url(#s)"><path fill="none" stroke="#000" stroke-linecap="round" stroke-linejoin="round" stroke-miterlimit="10" stroke-width=".5" d="M252.97266 479.8789l.76172.96094"/></g><g clip-path="url(#t)"><path fill="none" stroke="#000" stroke-linecap="round" stroke-linejoin="round" stroke-miterlimit="10" stroke-width=".5" d="M266.58203 478.13672l-5.49219 4.38281"/></g><g clip-path="url(#u)"><path fill="none" stroke="#000" stroke-linecap="round" stroke-linejoin="round" stroke-miterlimit="10" stroke-width=".5" d="M277.17578 476.8164l-.04687 7.02735"/></g><g clip-path="url(#v)"><path fill="none" stroke="#000" stroke-linecap="round" stroke-linejoin="round" stroke-miterlimit="10" stroke-width=".5" d="M289.23438 477.03906l2.46484 6.57813"/></g><g clip-path="url(#w)"><path fill="none" stroke="#000" stroke-linecap="round" stroke-linejoin="round" stroke-miterlimit="10" stroke-width=".5" d="M304.80469 480.32813l-.01953-.19922-.0586-.19141-.09375-.17578-.46094-.3789-.1914-.0586-.19922-.01953-.19922.01953-.1914.0586-.46094.3789-.09375.17578-.0586.1914-.01953.19923.01953.19921.0586.19141.09375.17969.46094.375.1914.0586.19922.01952.19922-.01953.1914-.0586.46094-.375.09375-.17968.0586-.1914.01953-.19922"/></g><g clip-path="url(#x)"><path fill="none" stroke="#000" stroke-linecap="round" stroke-linejoin="round" stroke-miterlimit="10" stroke-width=".5" d="M315.45703 483.4375l3.27735-6.21875"/></g><g clip-path="url(#y)"><path fill="none" stroke="#000" stroke-linecap="round" stroke-linejoin="round" stroke-miterlimit="10" stroke-width=".5" d="M327.41406 482.16406l5.99219-3.67187"/></g><g clip-path="url(#z)"><path fill="none" stroke="#000" stroke-linecap="round" stroke-linejoin="round" stroke-miterlimit="10" stroke-width=".5" d="M328.28516 481.6289l-1.0547-.62109"/></g><g clip-path="url(#A)"><path fill="none" stroke="#000" stroke-linecap="round" stroke-linejoin="round" stroke-miterlimit="10" stroke-width=".5" d="M340.21484 480.1875l7.02344.28125"/></g><g clip-path="url(#B)"><path fill="none" stroke="#000" stroke-linecap="round" stroke-linejoin="round" stroke-miterlimit="10" stroke-width=".5" d="M341.23828 480.23047l-.53515-1.10547"/></g><g clip-path="url(#C)"><path fill="none" stroke="#000" stroke-linecap="round" stroke-linejoin="round" stroke-miterlimit="10" stroke-width=".5" d="M353.96484 478.6289l6.15235 3.39844"/></g><path fill="none" stroke="#000" stroke-linecap="round" stroke-linejoin="round" stroke-miterlimit="10" stroke-width=".5" d="M354.85938 479.125l.01953-1.22656"/><g clip-path="url(#D)"><path fill="none" stroke="#000" stroke-linecap="round" stroke-linejoin="round" stroke-miterlimit="10" stroke-width=".5" d="M367.05078 479.13672l6.60938 2.38281"/></g><path fill="none" stroke="#000" stroke-linecap="round" stroke-linejoin="round" stroke-miterlimit="10" stroke-width=".5" d="M368.01172 479.48438l-.17188-1.21485"/><g clip-path="url(#E)"><path fill="none" stroke="#000" stroke-linecap="round" stroke-linejoin="round" stroke-miterlimit="10" stroke-width=".5" d="M380.51563 478.78125l6.30859 3.09375"/></g><path fill="none" stroke="#000" stroke-linecap="round" stroke-linejoin="round" stroke-miterlimit="10" stroke-width=".5" d="M381.4336 479.23047l-.03907-1.22656"/><g clip-path="url(#F)"><path fill="none" stroke="#000" stroke-linecap="round" stroke-linejoin="round" stroke-miterlimit="10" stroke-width=".5" d="M393.89063 478.66406l6.1914 3.32813"/></g><path fill="none" stroke="#000" stroke-linecap="round" stroke-linejoin="round" stroke-miterlimit="10" stroke-width=".5" d="M394.79297 479.14844l.0039-1.22656"/><g clip-path="url(#G)"><path fill="none" stroke="#000" stroke-linecap="round" stroke-linejoin="round" stroke-miterlimit="10" stroke-width=".5" d="M407.15625 478.76563l6.28906 3.1289"/></g><path fill="none" stroke="#000" stroke-linecap="round" stroke-linejoin="round" stroke-miterlimit="10" stroke-width=".5" d="M408.07031 479.21875l-.03125-1.22656"/><g clip-path="url(#H)"><path fill="none" stroke="#000" stroke-linecap="round" stroke-linejoin="round" stroke-miterlimit="10" stroke-width=".5" d="M420.30078 479.16016l6.6289 2.33593"/></g><path fill="none" stroke="#000" stroke-linecap="round" stroke-linejoin="round" stroke-miterlimit="10" stroke-width=".5" d="M421.26563 479.5l-.1836-1.21094"/><g clip-path="url(#I)"><path fill="none" stroke="#000" stroke-linecap="round" stroke-linejoin="round" stroke-miterlimit="10" stroke-width=".5" d="M439.47656 477.90625l-5.08984 4.84375"/></g><g clip-path="url(#J)"><path fill="none" stroke="#000" stroke-linecap="round" stroke-linejoin="round" stroke-miterlimit="10" stroke-width=".5" d="M451.26953 480.32813l-.01953-.19922-.0586-.19141-.09374-.17578-.46094-.3789-.1914-.0586-.19923-.01953-.19921.01953-.19141.0586-.45703.3789-.09766.17578-.0586.1914-.01952.19923.01953.19921.0586.19141.09765.17969.45703.375.1914.0586.19922.01952.19922-.01953.1914-.0586.46095-.375.09375-.17968.05859-.1914.01953-.19922"/></g><g clip-path="url(#K)"><path fill="none" stroke="#000" stroke-linecap="round" stroke-linejoin="round" stroke-miterlimit="10" stroke-width=".5" d="M463.1875 476.83594l.75 6.98437"/></g><path fill="none" stroke="#000" stroke-linecap="round" stroke-linejoin="round" stroke-miterlimit="10" stroke-width=".5" d="M463.29688 477.85156l1.01562-.6875"/><g clip-path="url(#L)"><path fill="none" stroke="#000" stroke-linecap="round" stroke-linejoin="round" stroke-miterlimit="10" stroke-width=".5" d="M147.48828 466.58203l-6.97656.86328"/></g><path fill="none" stroke="#000" stroke-linecap="round" stroke-linejoin="round" stroke-miterlimit="10" stroke-width=".5" d="M146.47266 466.70703l.70312 1.0039m13.65234-.6875l-7.02734-.01952m6.0039.01562l.57423 1.08594m13.66797-.27734l-6.83594-1.62891m5.84375 1.39062l.3086 1.1875m14.04296-1.14843l-6.92188-1.23047m5.91407 1.05078l.375 1.16797m13.91797-.84766l-6.86328-1.51172m5.86328 1.29297l.33203 1.1836m13.9336-2.6797l-6.76173 1.91798m5.77735-1.63672l.84765.88281m13.20313-1.79688l-6.26563 3.1836m5.35547-2.71875l1.0039.70312m13.35157-.8789l-6.52734 2.60547m5.57812-2.22657l.9375.79297m12.8086-2.0625l-5.48829 4.38672m4.6875-3.75l1.12891.48828m12.55469-1.57422l-4.6289 5.28516m3.95702-4.51563l1.19532.27735m12.07421-1.53516l-3.1914 6.26172m2.72656-5.35156l1.22656-.01953m12.46094-.9375l-3.0039 6.35547m2.5664-5.4297l1.22656-.05859m13.49219-.1875l-4.9414 4.9961m15.35937.98828l.85547-6.97266m9.96875 5.44141l5.83984-3.91016m7.33985.21485l6.10546 3.48047m-5.21484-2.97266l.03516-1.22656m12.5078.53125l5.8711 3.85547m-5.01953-3.29688l.11328-1.21875m12.29297.7461l5.98438 3.68359m-5.11328-3.14844l.07812-1.22266m12.1289 1.14063l6.45704 2.77734m-5.51563-2.37109l-.10156-1.22266m12.20313 1.91797l7.0039.57422m-7.0039-.57422l-.97266-2.25m16.35937-.67187l2.86329 6.41797m-2.44922-5.48438l.7539-.96875m13.7461-.26562l-.33594 7.01953m.33594-7.01953l2.21875-1.04688m10.24218 1.10938l1.3711 6.89453m-1.17188-5.89063l.95313-.77734m14.47656.10937l-3.25781 6.22266m2.78515-5.32031l1.22657-.00782m14.1875.89454l-6.50782 2.64453m5.5625-2.26172l.94141.78906"/><g clip-path="url(#M)"><path fill="none" stroke="#000" stroke-linecap="round" stroke-linejoin="round" stroke-miterlimit="10" stroke-width=".5" d="M147.4961 453.36719l-6.9922.66406"/></g><path fill="none" stroke="#000" stroke-linecap="round" stroke-linejoin="round" stroke-miterlimit="10" stroke-width=".5" d="M158.33594 453.69922l-.01953-.19922-.0586-.1914-.09375-.1797-.45703-.375-.1914-.05859-.19922-.01953-.19922.01953-.19531.0586-.45704.375-.09375.17968-.05859.19141-.01953.19922.01953.19922.0586.1914.09374.17578.45703.37891.19532.0586.19922.01953.19922-.01954.1914-.05859.45703-.3789.09375-.17579.0586-.1914.01953-.19922m8.94531 1.0586l6.69922-2.1172m-5.72656 1.8086l-.875-.85938m13.20703-.92187l6.71875 2.0625m-5.74219-1.76172l-.23047-1.20703m12.44922 1.45312l6.96094.96875m-5.94922-.82812l-.42188-1.15235m13.23828-.39062l5.9297 3.76953m-5.06641-3.21875l.09375-1.22266m13.1875-.23046l4.27343 5.57812m-3.65234-4.76953l.51172-1.11328m11.53125.95312l5.57422 4.28125m-4.76172-3.65625l.20312-1.21093m14.07422-.63672l2.02344 6.72656m-1.72656-5.75l.8711-.86328m12.68358-.23047l.95313 6.96094m-.8164-5.94922l.99609-.71875m10.10547.77344l5.10546 4.82812m-4.36328-4.125l.32422-1.1836m13.27735-.27343l3.04687 6.33203m-2.60156-5.41016l.72656-.98828m13.35938-.26562l.61718 7m-.52734-5.98047l1.02734-.67188m9.88672.8086l5.23828 4.6875m-4.47656-4.0039l.29297-1.19141m11.5586 1.70703l6.64062 2.28906m-5.67578-1.95703l-.1914-1.21094m12.66405.5664l6.39453 2.91407m-5.46093-2.49219l-.07813-1.22265m13.98438-.83204l3.34765 6.1797m-2.85937-5.28126l.67578-1.02344m12.22266.08594l3.20312 6.2539m-2.73828-5.34374l.70312-1.0039M380.5 452.1914l6.34375 3.01562m-5.42188-2.57812l-.05468-1.22657m14.60156-1.0664l2.03516 6.72656m-1.73829-5.75l.8711-.86328m14.90234.19531l-3.47265 6.10938m2.96484-5.22266l1.22656.03516m10.4414-1.35547l.83595 6.97656m-.71485-5.96094l1.00781-.70312m9.21485 4.10937l6.77734-1.86719m-5.78906 1.59375l-.84375-.89062m16.39062-3.28125l.33594 7.01953m-.28515-5.9961l1.05468-.6289m14.19141.10938l-3.6289 6.01562m3.10156-5.14062l1.22656.0664"/><g clip-path="url(#N)"><path fill="none" stroke="#000" stroke-linecap="round" stroke-linejoin="round" stroke-miterlimit="10" stroke-width=".5" d="M147.50781 440.55469l-7.01562-.33985"/></g><path fill="none" stroke="#000" stroke-linecap="round" stroke-linejoin="round" stroke-miterlimit="10" stroke-width=".5" d="M146.48828 440.5039l.52344 1.10938m8.63281 1.85938l3.34375-6.1797m8.19531 2.41017l6.89453 1.35937m-5.89062-1.16016l-.35547-1.17578m12.66016 1.01563l6.90625 1.28125m-5.90235-1.09375l-.37109-1.17188m12.82422.44531l6.6211 2.35938m-5.65626-2.01563l-.17969-1.21484m12.47657 1.03516l6.72656 2.03515m-5.7461-1.74218l-.23827-1.20313m12.92968.10938l6.01563 3.63671m-5.14063-3.10937l.07031-1.22266m13.97266-.70703l2.8125 6.4375m-2.40625-5.5l.76172-.96094m11.66406.28125l3.77735 5.92579m-3.22657-5.06641l.60157-1.0664m13.34765-.27344l1.40625 6.8828m-1.20312-5.8828l.94922-.78125m12.90234-.28907l-.07422 7.02735m.07422-7.02735l2.17969-1.1289m9.01172 1.8164l4.17578 5.65235m-3.57031-4.83203l.53125-1.10547m13.625-.34375l1.28125 6.91015m-1.09375-5.90625l.95703-.76172m13.59375-.21484l-1.56641 6.85156m1.5664-6.85156l2.3672-.63672m10.35937.55469l-.38672 7.01562m.32813-5.99609l1.11328-.51562m10.90234-.3086l2.32813 6.6289m-1.98829-5.66796l.82813-.90234m11.95703.01172l2.70703 6.48437m-2.3125-5.53906l.77735-.94922m11.03125.74219l4.92968 5.0078m-4.92968-5.0078l.73828-2.33985m11.53125 4.9336l7.02343-.1797m-6.0039.15626l-.60156-1.07031m19.74609-.09375l-6.67578 2.1953m5.70312-1.875l.88672.84766m13.46094-.96484l-6.79688 1.78906m20.02344-2.07422l-6.6211 2.35938m5.66016-2.01563l.90625.82813m13.4297-.98438l-6.73829 1.98438m6.73828-1.98438l1.71875 1.75391m11.39453-2.27734l-6.33593 3.03515m6.33593-3.03515l1.97657 1.45703m11.03906-1.97266l-5.73438 4.0625"/><g clip-path="url(#O)"><path fill="none" stroke="#000" stroke-linecap="round" stroke-linejoin="round" stroke-miterlimit="10" stroke-width=".5" d="M466.42969 438.35156l2.1914 1.10156"/></g><g clip-path="url(#P)"><path fill="none" stroke="#000" stroke-linecap="round" stroke-linejoin="round" stroke-miterlimit="10" stroke-width=".5" d="M147.14844 425.51172l-6.29688 3.11328"/></g><path fill="none" stroke="#000" stroke-linecap="round" stroke-linejoin="round" stroke-miterlimit="10" stroke-width=".5" d="M146.23438 425.96484l.99609.71485m12.46094-2.19922l-4.75391 5.17578m12.98047-4.82031l5.42578 4.46484m7.20313-1.33984l6.79687-1.78516m-5.8086 1.52735l-.83202-.90235m13.52343 2.03906l6.07031-3.54296m-5.1875 3.02734l-1.04296-.64844m14.55468-3.52734l3.90625 5.83984m8.70313-5.21484l5.32031 4.58984m-4.54687-3.92187l.26953-1.19532m13.57031-.41797l2.72266 6.48047m-2.32813-5.53515l.77734-.95313m12.8672-.20703l1.27734 6.91016m-1.09375-5.90625l.96093-.76172m12.16407-.24219l1.28906 6.91016m10.80469-6.4336l3.73047 5.95703m-3.1875-5.08984l.61328-1.0625m12.87109-.14453l2.30469 6.63672m-1.96875-5.67188l.83594-.89843m10.26953 1.46484l6.05078 3.57422m9.42578-5.1914l1.73047 6.80859m-1.73047-6.8086l1.8164-1.65234m12.42188 1.54297l-.11719 7.02734m.11719-7.02734l2.1875-1.11328m12.03516 1.25l-1.9297 6.7539m1.9297-6.7539l2.39843-.51563m12.28125 1.26172l-4.66015 5.26172m3.98047-4.4961l1.1953.28516m11.55079-1.76172l-2.16406 6.6836m1.84765-5.71094l1.21094-.21485m11.57422-.92187l-.47266 7.01172m.47266-7.01172l2.23828-1.0039m-2.30469 2.02343l1.1172-.5m14.08983.14063l-4.12109 5.6914m4.1211-5.6914l2.42968.33593m-3.03125.4922l1.21485.16796m12.9375-.8086l-4.59375 5.31641m4.59375-5.3164l2.39453.54296m-3.0625.23047l2.39453.54297m11.4336-1.4414l-4.28516 5.5664m4.28515-5.5664l2.42188.40625m-3.04297.40234l1.20703.20312m13.08203-.70312l-4.98828 4.94922m4.98828-4.94922l2.34375.72266m-3.07031-.00391l1.17187.36328m12.38672-1.48828l-4.02344 5.76172m4.02344-5.76172l2.4375.29687m11.71485.52735l-5.69922 4.11328m4.8711-3.51563l1.10155.54297"/><g clip-path="url(#Q)"><path fill="none" stroke="#000" stroke-linecap="round" stroke-linejoin="round" stroke-miterlimit="10" stroke-width=".5" d="M146.83594 411.67969l-5.67188 4.14844"/></g><path fill="none" stroke="#000" stroke-linecap="round" stroke-linejoin="round" stroke-miterlimit="10" stroke-width=".5" d="M146.01172 412.28125l1.10156.53516m11.07422-2.46485l-1.7461 6.80469m1.4922-5.8164l1.1914-.28907m8.6875.60156l5.63672 4.19922m7.9414.3164l5.10938-4.82812m11.35547-1.05078l-1.1914 6.92578m13.1875-6.89843l1.4453 6.875m13.54688-6.82032l-1.90625 6.76563m17.34375-5.08203l-6.15234 3.39844m5.2578-2.90625l1.02735.67187m13.375-.75781l-6.53515 2.58594m5.58203-2.21094l.9336.79687m13.23827-1.39062l-6.34375 3.02344m5.42188-2.58204l.98437.72657m12.65235-2.05078l-5.14453 4.78906m4.39453-4.09375l1.16015.40234m13.3789-.45312l-6.09374 3.5m5.20703-2.9922l1.03906.65235m13.3125-.875l-6.39062 2.92969m5.46094-2.5039l.97265.74609m13.14844-1.41406l-6.14453 3.41406m5.25-2.91797l1.03125.66797m13.33594-.84375l-6.45704 2.77344m5.51563-2.3711l.95703.76953m13.2461-1.28515l-6.35547 2.99609m5.43359-2.5586l.98047.73438m12.89844-1.76953l-5.63672 4.19531m4.8164-3.58593l1.10938.52734m13.48437-.3086l-6.55468 2.53907m5.60156-2.16797l.92969.80078m12.22265-2.67187l-4.32031 5.53906m4.32031-5.53906l2.41797.42187m9.59375-1.0586l-1.71484 6.8125m1.71484-6.8125l2.38281-.58984m12.38672 1.35157l-4.625 5.28906m4.625-5.28906l2.39063.55859m-3.0625.21094l1.1953.28125m12.32813-1.39453l-3.6953 5.97656m3.6953-5.97656l2.44922.16015m-2.98828.71094l1.22656.07812m13.25391-.45703l-4.94922 4.99219m4.94922-4.99219l2.34766.70703m11.10937-.55468l-5.23437 4.6875m5.23437-4.6875l2.30469.84765m9.09766-1.94531l-1.41016 6.88281m1.41016-6.88281l2.35546-.69531"/><g clip-path="url(#R)"><path fill="none" stroke="#000" stroke-linecap="round" stroke-linejoin="round" stroke-miterlimit="10" stroke-width=".5" d="M147.07031 398.73438l-6.14062 3.41015"/></g><path fill="none" stroke="#000" stroke-linecap="round" stroke-linejoin="round" stroke-miterlimit="10" stroke-width=".5" d="M146.17969 399.23047l1.02734.66797m12.30078-2.20703l-4.38281 5.49218m4.38281-5.49218l2.41016.44921m11.25781-.125l-5.08984 4.84375m4.34765-4.13671l1.16407.38671m12.79687-1.1914l-4.89844 5.03906m19.19141-1.74219l-6.85156-1.55468m5.85547 1.32812l.3203 1.1875m10.42188 1.77344l.28125-7.02344m-.23828 6l-1.10547.53516m18.01953-3.34766l-7 .64844m7-.64844l1.34375 2.05078M240.58984 399.5l-6.76953 1.875m6.76953-1.875l1.69141 1.78125m11.60156-1.86328l-6.72265 2.04297m6.72265-2.04297l1.73047 1.73828m11.66016-1.44922l-6.875 1.46094m6.875-1.46094l1.57422 1.88281m11.53515-2.53125l-6.46484 2.75782m6.46484-2.75782l1.91016 1.54297m11.57812-1.02344l-6.8125 1.72266m6.8125-1.72265l1.64844 1.8164m11.38281-2.5664l-6.24218 3.22265m6.24218-3.22265l2.01954 1.39453m11.45703-1.03907l-6.56641 2.50782m6.5664-2.50782l1.84766 1.61329m11.42578-1.71094l-6.48437 2.70312m6.48437-2.70312l1.89844 1.5586m11.66406-.62892l-6.97656.84766m5.96094-.72656l.70312 1.00781m13.53907-1.58984l-6.80078 1.76562m5.8125-1.50781l.82812.90234m13.40234-1.41015l-6.65234 2.26562m6.65234-2.26562l1.78907 1.67969m11.05859-2.58985l-5.71875 4.08594m5.71875-4.08594l2.19531 1.09375m10.2461-1.94922L395 403.33594m3.39453-4.95313l1.21875.13672m13.19531-.54297l-5.01562 4.92188m5.01562-4.92188l2.33985.73828m10.8711-.83984l-4.8047 5.1289m4.8047-5.1289l2.36718.63672m9.86719-1.32813l-2.64453 6.51172m2.64453-6.51172l2.4414-.2539m12.11719 1.10547l-5.1289 4.80468m5.1289-4.80468l2.32031.79296m10.3086-1.35546l-3.76172 5.93359"/><g clip-path="url(#S)"><path fill="none" stroke="#000" stroke-linecap="round" stroke-linejoin="round" stroke-miterlimit="10" stroke-width=".5" d="M465.4414 397.47266l2.44923.18359"/></g><g clip-path="url(#T)"><path fill="none" stroke="#000" stroke-linecap="round" stroke-linejoin="round" stroke-miterlimit="10" stroke-width=".5" d="M147.47656 386.625l-6.95312.9961"/></g><path fill="none" stroke="#000" stroke-linecap="round" stroke-linejoin="round" stroke-miterlimit="10" stroke-width=".5" d="M146.46484 386.76953l.72657.99219m13.375-1.96875l-6.50391 2.66015m6.5039-2.66015l1.88673 1.5664m11.46875-1.46484l-6.58204 2.45703m6.58203-2.45703l1.83594 1.625m11.63672-1.05469l-6.90234 1.31641m6.90234-1.3164l1.53906 1.91015m8.25391 2.26172l.14844-7.02735m-.1289 6.00391l-1.09376.55469m16.96484-.58203l-5.0078-4.92578m5.0078 4.92578l-.6953 2.35547m14.64062-3.22657l-6.26563-3.17968m5.35547 2.71484l.02344 1.22656m14.57031-2.66015l-7 .61718m7-.61718l1.33594 2.05468m11.89062-2.57812l-6.82812 1.66015m6.82812-1.66015l1.63282 1.83203m11.70703-1.73438l-6.875 1.46485m6.875-1.46485l1.57812 1.87891m11.66016-2.17187l-6.72266 2.05078m6.72266-2.05078l1.73437 1.73437m11.65625-1.4336l-6.875 1.45313m6.875-1.45312l1.57422 1.8789m11.52735-2.55078l-6.44922 2.79297m6.44922-2.79297l1.91796 1.53125m11.3086-1.72656l-6.26953 3.1836m6.26953-3.1836l2.00781 1.41406m11.5-.95703l-6.65234 2.26953m6.65234-2.26953l1.78906 1.67969m11.65625-1.16406l-6.91797 1.23828m5.91407-1.0586l.75781.96485m13.09766-2.36719l-5.98829 3.6836m5.98829-3.6836l2.11328 1.24219m11.04297-1.47656l-5.66797 4.15234m5.66797-4.15235l2.20703 1.06641m-3.03125-.46094l1.10156.53125m12.33984-1.85156l-4.27343 5.58203m4.27343-5.58203l2.41797.40235m-3.03906.41015l1.20703.20313m12.625-1.08985l-4.0664 5.73047m4.0664-5.73047l2.4336.3164m-3.02344.51563l1.21484.16016m12.66797-1.00781l-4.02344 5.76172m4.02344-5.76172l2.4375.29687m-3.02344.54297l1.21875.14844m12.33985-1.19922l-3.33594 6.1836m3.33594-6.1836l2.45312.01172m-2.9414.88672l1.22656.00781m11.98047-1.16016l-2.14844 6.69141m2.14844-6.6914l2.41796-.4336m10.9922.46484l-2.33595 6.62891m2.33594-6.6289l2.42578-.36329m11.25.51563l-3.05859 6.32422m2.61328-5.40625l1.22656-.04688"/><g clip-path="url(#U)"><path fill="none" stroke="#000" stroke-linecap="round" stroke-linejoin="round" stroke-miterlimit="10" stroke-width=".5" d="M145.02344 373.8086l-.01953-.19923-.0586-.1914-.09375-.17578-.46094-.3789-.1914-.0586-.19922-.01953-.19922.01953-.1914.0586-.46094.3789-.09375.17578-.0586.1914-.01953.19922.01953.19922.0586.1914.09375.17579.46094.3789.1914.0586.19922.01953.19922-.01953.1914-.0586.46094-.3789.09375-.17578.0586-.1914.01953-.19923"/></g><path fill="none" stroke="#000" stroke-linecap="round" stroke-linejoin="round" stroke-miterlimit="10" stroke-width=".5" d="M160.50781 375.27734l-6.38281-2.9375m5.45313 2.50782l.0703 1.22656m14.0625-3.95703L167.55079 375.5m5.26172-2.89063l1.02734.67188m13.44922-.55078l-6.6875 2.15625m5.71485-1.84375l.8789.85547m13.5586-.45703l-6.98828.73437m5.97265-.6289l.6836 1.01953m13.51562.2578l-6.72656-2.03124m5.75 1.73437l.23828 1.20313m14.03516-.83985l-6.6875-2.16406m5.71484 1.84766l.21094 1.21094m13.97265-.61329l-6.47656-2.72656m5.53125 2.32813l.11328 1.22265m14.41016-2.4414l-7.00781.50781m5.98828-.4336l.65234 1.03907m13.5039-1.99219l-6.65234 2.26563m5.6875-1.9375l.89453.83984m13.33204-1.3125l-6.54297 2.55469m5.59375-2.1836l.92968.80079m13.46485-.77735l-6.80078 1.76563m5.8125-1.50782l.82812.90235m13.25781-1.75781l-6.37109 2.96093m6.3711-2.96094l1.96093 1.47657m11.60938-.72266l-6.875 1.45313m5.87109-1.2422l.78906.94142m13.30078-1.85157l-6.42187 2.85156m6.42187-2.85156l1.9336 1.51172m11.41015-1.44531l-6.48046 2.71875m6.48046-2.71875L348.8672 374m11.27344-1.84375l-6.19922 3.30469m6.19922-3.30469l2.03515 1.3711m11.30469-1.32423l-6.25 3.21094m6.25-3.21094l2.01562 1.39844m10.9922-1.89453l-5.63282 4.20313m5.63281-4.20313l2.21875 1.04688m-3.03906-.4375l1.10937.52343m12.46094-1.73046l-4.5039 5.39843m4.5039-5.39844l2.39844.50391m-3.05469.28125l1.19922.2539m12.30469-1.36718l-3.57031 6.05469m3.5703-6.05469l2.44923.10938m-2.96875.76953l1.22656.05468m12.72656-.85937l-3.80469 5.90625m3.8047-5.90625l2.4453.20312m-3 .65625l1.22266.10157m12.05078-1.26954l-2.61328 6.52344m2.61328-6.52344l2.4414-.26171m-2.8203 1.21093l1.21875-.1328m11.97656-.97267l-1.61719 6.83594m1.61719-6.83594l2.375-.625m-2.60938 1.6172l1.1875-.3086m11.28125-.76953l.54688 7.00781m-.54688-7.00781l2.07032-1.3164"/><g clip-path="url(#V)"><path fill="none" stroke="#000" stroke-linecap="round" stroke-linejoin="round" stroke-miterlimit="10" stroke-width=".5" d="M140.76563 361.86719l6.46875-2.75"/></g><path fill="none" stroke="#000" stroke-linecap="round" stroke-linejoin="round" stroke-miterlimit="10" stroke-width=".5" d="M155.02344 363.15625l4.58203-5.32813m14.36719 1.57813l-6.6836 2.17188M173 359.72265l.88281.85156m13.57422-.0625l-7.02344-.03516m6.00391.02735l.57031 1.08984m13.69531-.40625l-6.88671-1.38672m5.88672 1.1836l.35156 1.17578m13.91797-.77735l-6.79688-1.77734m5.8086 1.51953l.28515 1.1914m14.1289-1.59765l-7.01562-.45313m5.99219.38672l.50781 1.1211m13.73438-2.1211l-6.82422 1.6836m5.83203-1.4375l.8164.91406m13.23048-1.875l-6.30079 3.10938m5.38282-2.65625l.99609.71875m12.64844-2.01954l-5.125 4.8047m4.3789-4.10548l1.16407.39844m13.37109-.46094l-6.07422 3.53125m5.1914-3.01562l1.04298.64453m13.12109-1.21485l-6.00781 3.64454m5.13672-3.11329l1.05078.625m13.22265-1.01171l-6.17968 3.35156m6.17968-3.35156l2.04297 1.35546m10.69531-2.13671l-5.02343 4.91406m5.02344-4.91406l2.33593.74609m11.30078-.36328l-5.66796 4.15234m4.84375-3.55078l1.10546.53516m13.5547-.09766l-6.71485 2.07031m5.73828-1.76953l.8711.86719m13.3828-1.28516l-6.63671 2.3047m6.63671-2.3047l1.80079 1.67188m11.0703-2.53906l-5.75 4.03906m5.75-4.03906l2.1875 1.10937m10.75782-1.55078l-5.01172 4.92578m5.01172-4.92578l2.33985.73828m10.41015-1.20703l-3.8789 5.85938m3.8789-5.85938l2.4414.23828m-3.0039.61328l1.21875.1211m12.3789-1.13672l-3.3203 6.1914m3.3203-6.1914l2.45313.00781m-2.9375.89063l1.23047.0039m12.54688-.91797l-3.27344 6.21875m3.27344-6.21875l2.45312-.00781m-2.92969.91406l1.22657-.0039m12.39062-.98829l-2.92578 6.39063m2.92578-6.39063l2.44922-.14453m-2.875 1.07422l1.22266-.07031m11.86718-1.08203l-1.625 6.83594m1.625-6.83594l2.375-.61719m10.07813.52344l.10156 7.02734m-.10156-7.02734l2.14844-1.1836"/><g clip-path="url(#W)"><path fill="none" stroke="#000" stroke-linecap="round" stroke-linejoin="round" stroke-miterlimit="10" stroke-width=".5" d="M145.02344 347.17969l-.01953-.19922-.0586-.19531-.09375-.17579-.46094-.375-.1914-.05859-.19922-.01953-.19922.01953-.1914.0586-.46094.375-.09375.17578-.0586.1953-.01953.19923.01953.19922.0586.1914.09375.17578.46094.375.1914.0586.19922.01953.19922-.01953.1914-.0586.46094-.375.09375-.17578.0586-.1914.01953-.19922"/></g><path fill="none" stroke="#000" stroke-linecap="round" stroke-linejoin="round" stroke-miterlimit="10" stroke-width=".5" d="M153.89453 347.98828l6.83984-1.6211m13.39063.45704l-6.99219.70703m5.97656-.60156l.6797 1.01953m13.51171-1.8086l-6.71094 2.07422m5.73438-1.77343l.8711.86718m12.82812 2.03907l-5.52735-4.33985m4.72266 3.71094l-.21484 1.20703m14.38672-.64453l-5.62891-4.20703m4.8086 3.59765l-.1875 1.21094m12.29687.71875l-1.57813-6.84765m1.34766 5.85156l-.92578.80469m17.19531-3.21485l-7.02734-.03125m6.0039.02344l.57422 1.08594m13.76563-1.17188l-7.02735.15235m6.0039-.12891l.59767 1.07031m13.28906-2.73828l-6.125 3.4414m5.23437-2.9375l1.03125.66016m13.26953-.98828l-6.3125 3.08985m5.39063-2.64063l.9961.72266m13.15624-1.32813l-6.14844 3.40235m5.25391-2.90625l1.02734.66796m13.375-.76171l-6.53125 2.59765m5.57813-2.21875l.9375.79297m13.1836-1.48828l-6.23829 3.23047m5.33203-2.75781l1.00782.6953m12.91406-1.65233l-5.63672 4.19921m4.8164-3.58593l1.10938.52343m12.1211-1.98437l-3.82813 5.89453m3.82812-5.89453l2.44532.21484m10.86718-.21484l-3.82421 5.89453m3.82421-5.89453l2.44532.21484m10.75781-.28515l-3.60156 6.03515m3.60156-6.03515l2.45312.12109m11.09375.03125l-4.0625 5.73438m4.0625-5.73438l2.4336.3125m10.1289-.71875l-2.55859 6.54297m2.5586-6.54297l2.4375-.28516m10.42187.14063l-1.64844 6.83203m1.64844-6.83203l2.375-.60938m10.67969.5586l-1.125 6.9336m1.125-6.9336l2.32422-.78906m10.70703.7539l-.5586 7.0039m.5586-7.0039l2.2539-.97656m-2.33593 1.9961l1.1289-.48829m11.78125-.53515l.41406 7.01171m-.41406-7.01171l2.09375-1.27735m11.35938 1.26953l.13672 7.02735m-.13672-7.02735l2.14453-1.1914"/><g clip-path="url(#X)"><path fill="none" stroke="#000" stroke-linecap="round" stroke-linejoin="round" stroke-miterlimit="10" stroke-width=".5" d="M146.64063 331.54688l-5.28125 4.6328"/></g><path fill="none" stroke="#000" stroke-linecap="round" stroke-linejoin="round" stroke-miterlimit="10" stroke-width=".5" d="M145.8711 332.21875l1.14843.4375m13.1211-.8789l-5.65235 4.17187m4.83203-3.5664l1.10547.53124m13.70313 1.28125l-6.9961-.66406m5.97656.5664l.47266 1.13282m13.63281-.08203l-6.53906-2.57031m20.08203.96875l-6.9961.6328m5.98048-.53906l.67187 1.02735m9.77344 2.6875l.77734-6.98438m-.66406 5.96875l-1.14062.45313m17.26562-.4961l-5.07031-4.86718m4.33203 4.16015l-.33594 1.1797m15.20703-1.85157l-6.70312-2.10938m5.72656 1.80079l.22266 1.20703m13.05469.66796l-4.6797-5.24218m4 4.48047l-.42577 1.14843m13.54687.1836l-2.9336-6.38281m2.50782 5.45312l-.74219.97656m14.96094-.3125l-3.88672-5.85156m3.32031 5l-.58203 1.07813m15.98828-3.71094l-6.9375 1.11719m5.9297-.95704l.74218.98047m13.54297-1.35156l-6.85938 1.53906m5.85938-1.3164l.80078.93359m13.32422-1.75l-6.48047 2.72656m5.53516-2.32812l.95312.77344m12.9961-1.75l-5.85547 3.8828m5.0039-3.3203l1.07813.58593m12.61328-1.71875l-4.91016 5.02344m4.19922-4.29297l1.17578.34375m10.4375-2.07422L357 337.375m.07031-6.0039l1.08985-.5625m10.78515-.16407l2.82032 6.4375m-2.82032-6.4375l1.52344-1.92578m15.75781 2.73047l-5.10937 4.82812m5.10937-4.82812l2.32422.78515m9.50781-1.71875l-2.14453 6.69141m2.14453-6.6914l2.41797-.4336m10.51563.33594l-1.38281 6.89062m1.3828-6.89062l2.35157-.70313m9.82813.66407l.88671 6.96875m-.88671-6.96875l2.0078-1.41797m10.1172 1.79297l3.26953 6.21875m-3.26953-6.21875l1.3789-2.02735m11.3789 2.39063l4.38282 5.49219m-4.38281-5.4922l.97265-2.25m12.8086 1.9336l3.45312 6.1211m-3.45312-6.1211l1.32031-2.0664m-.8164 2.95703L463 330.66016"/><g clip-path="url(#Y)"><path fill="none" stroke="#000" stroke-linecap="round" stroke-linejoin="round" stroke-miterlimit="10" stroke-width=".5" d="M146.77344 318.39063l-5.54688 4.3164"/></g><path fill="none" stroke="#000" stroke-linecap="round" stroke-linejoin="round" stroke-miterlimit="10" stroke-width=".5" d="M146.77344 318.39063l2.23828 1m11.38672-.52735l-6.16797 3.36719m5.26953-2.875l1.02734.67578M174 319.55078l-6.73828 1.9961M174 319.55077l1.71875 1.75m11.65234-1.53906l-6.85156 1.57031m6.85156-1.57031l1.60547 1.85547m11.67578-.14844l-6.78125-1.84375m5.79297 1.57813l.26953 1.1953m13.83203-.3789l-6.3789-2.94531m6.3789 2.94531l.13672 2.44922m13.40625-3.10547l-6.83593-1.63281m5.83984 1.39453l.3086 1.1875m13.84765-.46094l-6.52734-2.60937m5.57812 2.23047l.13281 1.21875m13.46485.22265l-5.19531-4.73047m4.4414 4.04297l-.30469 1.1875m13.5625.16016l-3.57422-6.05078m3.0547 5.16797l-.64063 1.04687m13.25.27735l-1.1211-6.9375m.95703 5.92968l-.97656.74219m14.14453.30078l-.49609-7.00781m.42188 5.98828l-1.03907.65234M303.1172 324l1.32812-6.90234m-1.13672 5.89843l-1.17187.35938m15.70312.625l-1.48828-6.86719m12.19922.45313l3.71875 5.96484m10.1289-6.23438l2.65626 6.50391m-2.26953-5.5586l.78515-.9414m13.21485-.25781l.51171 7.00781m-.4375-5.98828l1.03907-.65234m12.52344-.375l-.13282 7.02734m.11328-6.0039l1.09375-.5586m13.45704-.22266l-2.5625 6.54297m2.5625-6.54297l2.4375-.28125m11.42968.5547l-3.66797 5.99608m3.66797-5.99609l2.44922.14844m8.90625-.66406l.25 7.02343m-.25-7.02343l2.125-1.22657m10.45313 1.33204l1.72656 6.8125m-1.72656-6.8125l1.8164-1.64844m-1.5664 2.64062l.90625-.82422m10.8125.50782l4.41796 5.46484m-4.41796-5.46484l.95703-2.25782m-.3164 3.05079l.48046-1.12891m11.45313 1.16015l5.89843 3.81641m-5.89844-3.8164l.21094-2.44532m.64844 3l.10547-1.22265m12.38281.61718l5.83203 3.91797m-5.83203-3.91797l.25-2.4414"/><path fill="#00f" fill-rule="evenodd" d="M388.23828 467.64844h8.61719V457.5039h-8.61719v10.14453"/><path fill="azure" fill-rule="evenodd" d="M390.07031 459.33594h.83594v2.82422h3.28516v-2.82422h.83203v6.48047h-.83203v-2.91797h-3.28516v2.91797h-.83594v-6.48047"/><path fill="#ff3030" fill-rule="evenodd" d="M158.13672 463.21094h7.69531V453.0625h-7.69531v10.14844"/><path fill="azure" fill-rule="evenodd" d="M159.97266 454.89844h.83203v5.73828H164v.74219h-4.02734v-6.48047"/><path fill="#ff3030" fill-rule="evenodd" d="M295.72656 409.94922h7.69531v-10.14453h-7.6953v10.14453"/><path fill="azure" fill-rule="evenodd" d="M297.5586 401.63672h.83593v5.73828h3.1914v.74219h-4.02734v-6.48047"/><path fill="#00f" fill-rule="evenodd" d="M370.48438 396.63281h8.62109v-10.14453h-8.6211v10.14453"/><path fill="azure" fill-rule="evenodd" d="M372.3164 388.32031h.83594v2.82422h3.28516v-2.82422h.83203v6.48047h-.83203v-2.91406h-3.28516v2.91406h-.83593v-6.48047"/><path fill="#ff3030" fill-rule="evenodd" d="M189.20703 383.32031h7.6914v-10.14844h-7.6914v10.14844"/><path fill="azure" fill-rule="evenodd" d="M191.03906 375.00781h.83594v5.73828h3.1914v.7422h-4.02734v-6.48048"/><path fill="#ffffe0" fill-rule="evenodd" d="M328.42969 346.6211h22.17969v-10.19141h-22.1797v10.1914"/><path fill-rule="evenodd" d="M331.92969 338.26172h.50781v6.29687h-.78516v-4.49218h-1.39062v-.5547l.5586-.0664.2539-.05078.23047-.08984.20312-.14063.17188-.21094.14453-.29687.10547-.39453m4.8125 0l.23047.01953.21875.05469.20703.08984.19531.1211.1836.14843.17187.17578.30469.42188.24218.49219.1797.54687.10937.57813.03906.59375-.03906.58984-.10938.58594-.17969.55469-.24218.5-.3047.42968-.17187.17969-.18359.15234-.19531.125-.20703.08985-.21875.0586-.23047.01952-.23047-.01953-.21875-.0586-.20703-.08984-.19531-.125-.1836-.15234-.17187-.17969-.3047-.42969-.24218-.5-.17969-.55468-.10937-.58594-.03906-.58984h.83203l.02734.5625.08203.5039.1289.44531.16017.3711.1914.30078.21094.22266.22265.13671.22657.04688.22656-.04688.22266-.13671.21093-.22266.19141-.30078.16016-.3711.1289-.4453.07813-.50391.03125-.5625-.03125-.5625-.07813-.5-.1289-.4375-.16016-.36329-.1914-.29296-.21094-.21485-.22266-.13281-.22656-.04297-.22656.04297-.22266.13281-.21094.21485-.1914.29296-.16016.36329-.1289.4375-.08204.5-.02734.5625h-.83203l.03906-.59375.10937-.57813.1797-.54687.24218-.4922.30469-.42187.17187-.17578.1836-.14844.1953-.12109.20704-.08984.21875-.05469.23047-.01953m5.08984 0h.51172v6.29687h-.78906v-4.49218h-1.38672v-.5547l.5586-.0664.2539-.05078.22656-.08984.20313-.14063.17578-.21094.14062-.29687.10547-.39453m2.82422 2.17578h.78906l.01953-.3164.0586-.28516.09765-.2539.14063-.21485.17969-.17188.22656-.13281.26172-.07813.3086-.02734.23827.01953.22266.0625.20703.10156.17969.14063.14844.17188.11328.20703.0703.23437.02345.26563-.01954.26953-.0664.22265-.10938.19141-.15625.17188-.19921.16406-.25.16406-.63282.39063-.53515.3125-.4375.3164-.34766.32422-.26563.33594-.1875.35156-.125.3711-.0703.39062-.01954.42187h4.21094v-.74218h-3.33203l.08203-.28516.11328-.23438.14844-.20312.1875-.17969.23047-.17187.27734-.17578.71875-.41797.41406-.20313.34766-.23047.28125-.2539.21875-.26563.16406-.27734.10938-.28516.0664-.28515.01953-.28125-.04296-.38282-.1211-.34765-.1875-.3086-.25-.26171-.30469-.21094-.34375-.16016-.3828-.09765-.40626-.03516-.4336.03515-.39843.09766-.35547.16406-.30469.23438-.24609.30469-.1875.375-.11719.4453-.03906.51954"/><path fill="#ffffe0" fill-rule="evenodd" d="M199.71484 348.97266h22.1836v-10.19532h-22.1836v10.19532"/><path fill-rule="evenodd" d="M203.21484 340.61328h.51172v6.29297h-.78906v-4.48828h-1.38672v-.55469l.5586-.0664.2539-.0547.22656-.08984.20313-.14062.17578-.21094.14063-.29297.10546-.39453m4.81641 0l.22656.01953.21875.05469.21094.08984.19531.1211.1836.14844.17187.17578.30078.41796.24219.4961.17969.54687.11328.57813.03906.58984-.03906.59375-.11328.58594-.17969.55078-.24219.5039-.30078.42579-.17187.17969-.1836.15625-.19531.12109-.21094.09375-.21875.05469-.22656.01953-.23047-.01953-.21875-.05469-.20703-.09375-.19922-.1211-.1836-.15624-.17187-.1797-.30078-.42577-.24219-.5039-.17968-.55079-.11328-.58594-.03907-.59375h.83594l.02734.5625.08203.50781.125.44141.16407.375.1914.30078.21094.22266.22266.13672.22656.04687.22656-.04687.22266-.13672.21094-.22266.1875-.30078.16406-.375.125-.4414.08203-.50782.03125-.5625-.03125-.5625-.08203-.5-.125-.4336-.16406-.36718-.1875-.29297-.21094-.21094-.22266-.1328-.22656-.04688-.22656.04687-.22266.13281-.21094.21094-.1914.29297-.16406.36719-.125.4336-.08204.5-.02734.5625h-.83594l.03906-.58985.11329-.57813.17968-.54687.2422-.4961.30077-.41796.17188-.17579.1836-.14843.19921-.1211.20703-.08984.21875-.05469.23047-.01953m5.08984 0h.50782v6.29297h-.78516v-4.48828h-1.39063v-.55469l.5625-.0664.25-.0547.23047-.08984.20313-.14062.17578-.21094.14063-.29297.10546-.39453m2.82422 2.17578h.78516l.01953-.3164.0586-.28907.10156-.25.14062-.21484.17969-.17578.22266-.1289.26562-.08204.3086-.02734.23827.02344.22266.0625.20313.10156.17968.13672.14844.17578.11328.20312.07422.23828.02344.26563-.02344.26562-.0625.22657-.11328.1914-.15234.17188-.20313.16015-.2461.16797-.6328.38672-.53907.3164-.4375.31641-.34765.32422-.26172.33594-.1914.35156-.125.36719-.06642.39453-.02343.41797h4.21484v-.73828h-3.33594l.08594-.28516.11328-.23828.14844-.19922.1875-.17969.23047-.17187.27734-.17578.71875-.41797.41406-.20703.34375-.23047.28125-.25.22266-.26563.16016-.28125.11328-.28125.0625-.28515.01953-.28125-.03906-.38281-.1211-.34766-.1914-.3086-.25-.26171-.30078-.21485-.34766-.15625-.3789-.10156-.40626-.03125-.43359.03125-.39844.09766-.35547.16797-.30468.23437-.25.30469-.1836.375-.11719.44531-.03906.51953"/></g></defs><use xlink:href="#Z"/></svg>