<svg xmlns="http://www.w3.org/2000/svg" role="img" xmlns:xlink="http://www.w3.org/1999/xlink" viewBox="142.45 309.95 326.84 171.84"><defs><clipPath id="a"><path d="M144 311.67188h1v168.65625h-1zm0 0"/></clipPath><clipPath id="b"><path d="M144 311.67188h324v168.65625H144zm0 0"/></clipPath><clipPath id="c"><path d="M467 311.67188h1v168.65625h-1zm0 0"/></clipPath><clipPath id="d"><path d="M144 479h4v1.32813h-4zm0 0"/></clipPath><clipPath id="e"><path d="M147 480h2v.32813h-2zm0 0"/></clipPath><clipPath id="f"><path d="M153 479h9v1.32813h-9zm0 0"/></clipPath><clipPath id="g"><path d="M160 480h2v.32813h-2zm0 0"/></clipPath><clipPath id="h"><path d="M166 480h9v.32813h-9zm0 0"/></clipPath><clipPath id="i"><path d="M173 480h3v.32813h-3zm0 0"/></clipPath><clipPath id="j"><path d="M172 480h2v.32813h-2zm0 0"/></clipPath><clipPath id="k"><path d="M180 480h8v.32813h-8zm0 0"/></clipPath><clipPath id="l"><path d="M187 480h2v.32813h-2zm0 0"/></clipPath><clipPath id="m"><path d="M186 480h2v.32813h-2zm0 0"/></clipPath><clipPath id="n"><path d="M193 479h8v1.32813h-8zm0 0"/></clipPath><clipPath id="o"><path d="M200 479h3v1.32813h-3zm0 0"/></clipPath><clipPath id="p"><path d="M199 479h2v1.32813h-2zm0 0"/></clipPath><clipPath id="q"><path d="M206 479h9v1.32813h-9zm0 0"/></clipPath><clipPath id="r"><path d="M213 479h3v1.32813h-3zm0 0"/></clipPath><clipPath id="s"><path d="M212 479h3v1.32813h-3zm0 0"/></clipPath><clipPath id="t"><path d="M220 479h8v1.32813h-8zm0 0"/></clipPath><clipPath id="u"><path d="M227 479h3v1.32813h-3zm0 0"/></clipPath><clipPath id="v"><path d="M226 479h2v1.32813h-2zm0 0"/></clipPath><clipPath id="w"><path d="M233 478h8v2.32813h-8zm0 0"/></clipPath><clipPath id="x"><path d="M240 478h3v2.32813h-3zm0 0"/></clipPath><clipPath id="y"><path d="M239 479h2v1.32813h-2zm0 0"/></clipPath><clipPath id="z"><path d="M246 478h9v2.32813h-9zm0 0"/></clipPath><clipPath id="A"><path d="M253 478h3v2.32813h-3zm0 0"/></clipPath><clipPath id="B"><path d="M260 479h8v1.32813h-8zm0 0"/></clipPath><clipPath id="C"><path d="M266 479h4v1.32813h-4zm0 0"/></clipPath><clipPath id="D"><path d="M265 479h3v1.32813h-3zm0 0"/></clipPath><clipPath id="E"><path d="M273 479h8v1.32813h-8zm0 0"/></clipPath><clipPath id="F"><path d="M280 479h3v1.32813h-3zm0 0"/></clipPath><clipPath id="G"><path d="M286 479h9v1.32813h-9zm0 0"/></clipPath><clipPath id="H"><path d="M293 479h3v1.32813h-3zm0 0"/></clipPath><clipPath id="I"><path d="M292 479h2v1.32813h-2zm0 0"/></clipPath><clipPath id="J"><path d="M300 478h8v2.32813h-8zm0 0"/></clipPath><clipPath id="K"><path d="M306 478h4v2.32813h-4zm0 0"/></clipPath><clipPath id="L"><path d="M305 479h3v1.32813h-3zm0 0"/></clipPath><clipPath id="M"><path d="M313 478h8v2.32813h-8zm0 0"/></clipPath><clipPath id="N"><path d="M320 478h3v2.32813h-3zm0 0"/></clipPath><clipPath id="O"><path d="M319 479h2v1.32813h-2zm0 0"/></clipPath><clipPath id="P"><path d="M327 478h7v2.32813h-7zm0 0"/></clipPath><clipPath id="Q"><path d="M333 478h3v2.32813h-3zm0 0"/></clipPath><clipPath id="R"><path d="M332 478h2v2.32813h-2zm0 0"/></clipPath><clipPath id="S"><path d="M340 478h7v2.32813h-7zm0 0"/></clipPath><clipPath id="T"><path d="M354 477h6v3.32813h-6zm0 0"/></clipPath><clipPath id="U"><path d="M367 477h6v3.32813h-6zm0 0"/></clipPath><clipPath id="V"><path d="M381 477h5v3.32813h-5zm0 0"/></clipPath><clipPath id="W"><path d="M394 477h6v3.32813h-6zm0 0"/></clipPath><clipPath id="X"><path d="M408 476h5v4.32813h-5zm0 0"/></clipPath><clipPath id="Y"><path d="M421 477h5v3.32813h-5zm0 0"/></clipPath><clipPath id="Z"><path d="M435 476h4v4.32813h-4zm0 0"/></clipPath><clipPath id="aa"><path d="M449 476h3v4.32813h-3zm0 0"/></clipPath><clipPath id="ab"><path d="M462 476h3v4.32813h-3zm0 0"/></clipPath><clipPath id="ac"><path d="M144 466h4v2h-4zm0 0"/></clipPath><clipPath id="ad"><path d="M465 463h3v2h-3zm0 0"/></clipPath><clipPath id="ae"><path d="M144 453h4v2h-4zm0 0"/></clipPath><clipPath id="af"><path d="M465 450h3v2h-3zm0 0"/></clipPath><clipPath id="ag"><path d="M144 439h4v3h-4zm0 0"/></clipPath><clipPath id="ah"><path d="M466 437h2v3h-2zm0 0"/></clipPath><clipPath id="ai"><path d="M144 425h4v4h-4zm0 0"/></clipPath><clipPath id="aj"><path d="M466 424h2v3h-2zm0 0"/></clipPath><clipPath id="ak"><path d="M144 410h3v7h-3zm0 0"/></clipPath><clipPath id="al"><path d="M144 396h1v9h-1zm0 0"/></clipPath><clipPath id="am"><path d="M144 402h1v2h-1zm0 0"/></clipPath><clipPath id="an"><path d="M466 398h2v4h-2zm0 0"/></clipPath><clipPath id="ao"><path d="M144 384h3v7h-3zm0 0"/></clipPath><clipPath id="ap"><path d="M466 386h2v4h-2zm0 0"/></clipPath><clipPath id="aq"><path d="M144 371h3v6h-3zm0 0"/></clipPath><clipPath id="ar"><path d="M144 358h4v5h-4zm0 0"/></clipPath><clipPath id="as"><path d="M466 358h2v3h-2zm0 0"/></clipPath><clipPath id="at"><path d="M144 346h4v2h-4zm0 0"/></clipPath><clipPath id="au"><path d="M466 345h2v3h-2zm0 0"/></clipPath><clipPath id="av"><path d="M465 345h3v3h-3zm0 0"/></clipPath><clipPath id="aw"><path d="M144 333h4v2h-4zm0 0"/></clipPath><clipPath id="ax"><path d="M466 331h2v3h-2zm0 0"/></clipPath><clipPath id="ay"><path d="M465 332h3v3h-3zm0 0"/></clipPath><clipPath id="az"><path d="M144 318h4v5h-4zm0 0"/></clipPath><clipPath id="aA"><path d="M465 318h3v2h-3zm0 0"/></clipPath><g id="aB" clip-path="url(#clip1)"><path fill="#fff" fill-opacity="0" fill-rule="evenodd" d="M0 0h1000v1000H0zm0 0"/><path fill="#d3d3d3" fill-opacity="0" fill-rule="evenodd" d="M162.15234 355.86719l-.23437.29297.0586.23437.11718.17188.17578.23437.29297.34766.11328.0586.11719-.17188.0586-.23438.17577-.17578.46485-.17578h.69922l.23437.29297.28906.8164.0586.17579.17578.23046.35156.23438.69922.69922.17188.17578.23437.34765.23438.41016.28906.58203.41015.46485.23047.23437.23438.17578.11719.23047.17578.29297.17187 1.16406v.23438l.0586.28906.05859.11719.11719.11719.34765.41015.11719.17188.17578.17578.17578.23437.11719.17188.17188.35156.05859.23438.23437.40625.23438-.0586-.17578.17578-.0586.92969h-.58203l-.23437-.11328-.34766.11328-.11719.11719-.05859.29297-.0586.17578-.11718.17187-.46484.29297-.0586.23438-.0586.11328v.64453l.0586.17187v.41016l.0586.0586v.40624l.05859.40625.11719.17579.05859.05859.23047.64062-.0586.29297v.69922l-.05859.58203v.23438l-.0586.23047-.05468.35156v1.92187l.05469.1172h.42578l-.36719.11718-.02344.35156.89063 1.16797 1.74219.53906 1.33984.35938v.53906l.08984.8086.53516.71484 1.51953.26953.89063-.08594.08984 1.16406.53516.1797 1.16015-.1797 2.05469-.98437 1.16016-.36328 1.8789-.17578 1.69531-.1797-.17968.71876-1.51563.08594-1.25.08984-.80469.26953-1.07421.8086.26953.71875.53515.89843-.17968.625-.26563.8086.26563 1.07812.625.89844.80468.17969 1.25-.1797-.26562.72267.09766.5039.05468.29297v.17188l.0586.29296v.40625l.17578.1172.35156.11718h.40625l.29297-.17578.11328-.11719.0586-.11719.11718-.23047.0586-.17578.35156-.46484.23047-.17578.17578-.0586.17578.0586.0586.17578.11718.98828.05469.46875.0586.17188.11718.23437.17578.0586.8164.05859h.28907l.11719.23437.05859.40625.0586.35156v1.10547l.11718.29297.11719.34766.28906.69922.17578.35156.58203.7539.35157.17579.17187.0586.46875.23437.64063.46484.34765.23438.29297.17578.29297.05468.23047.0625.8164.34766.29297.17578.11328.17188.35157.35156.11719.17578.52343.64063v.28906l.0586.35156v.34766l.05859.35156.0586.28906.11718.0586.17188.05859h.17578l.58203.23437.17578.1172.17578.28905.17578.23438.11328.23437.29297.23047.11719.11719v.41016l.0586.05468.28906.23438.23437.11719.0586.11718.11718.17188.0586.11719.23047.23437.05859.17578.23437.0586.1172.05859-.1172.11328-.05859.11719v.11719l-.11719.29296-.11719.28907v.58203l.17579.11719.11718.05859.0586.11719.11719.11719.11328.05859.17578.34765.0586.35157.05858.40625v.17578l-.05859.17578-.11719.69922v.17187l.1172.17579.29296.29296h.40625l.17578.1172.11719.17187.11719.29296v.23438h-.52735l-.23047-.23438h-.23437l-.17578.0586-.0586.69922.0586.34765.11719.17579.17578.41015.11718.23047.28907.46875.17578.05469h.52344l.23437.0586.75781.64062.0586.29296v.23438l.05859.0586.23047.34765v.35156l-.11719.17188v.29297l.29297.28906.29297.17578.17187.0586.29297.17577.29297.1172.58203.40624.28906.23438.29297.17578.21875.16015.01563.01172.23047.17579.64062.52343.17578.23438.1172.17578.17577.17578.11328.17188v.64062l.1172.17578.46874.11719.58203.11719.23438.05859.23047.11328.29297.11719.11328.0586.58593.35156.28907.17187.17578.0625.17578.05469.17578.0586.69922.35155.28906.17579.23438.05468.28906.17578.23437.1172.64063.40624.29297.11719.17187.0586.23438.05859.41015.05859.23047.0586.23438.11718.0586.17188-.41017.17578.46875.0586.0586.29296.11328.23438.17578.05468.23438.0586.17578.05859.40625.11719.64062.23437.11719.17188.0586.23437v.17578l-.0586.1172-.0586.40624.23438.23438.11719.05859.34766.11719.64062.23047.17578.11718.28906.1172.17578.17577.23438.46485.58203 1.10546.17578.17579.34766.17578.17578.11719.35156.11718 1.04688.52344.23437.0586.46485.11327.29297.0586.46484.17578.75781.58203.23438.23438.34765.46484.17578.17578.28907.23438.8164.69921.29297.17579.28906.28906.29297.17578.29297.28906.69531.64063.17578.17578.29297.23437.28907.23438.46875.28906.64062.58203.34766.23438.23437.29297.34766.34765.35156.46485.9336.99218.34765.40625.11719.17579.23437.05859.11328.11719.64454.17578.23047.11328.23437.0586.29297.17577.23047.1172.9336.69921.40624.40625.23438.17578.40625.17578.23437.11719.8164.34766.34766.23437.23438.11719.29297.28906.23047.11719.7578.35156.35157.17188.23047.05859.29297.11719.23437.0586.8711.17577h.8164l.46875.23047.17188.0586.875.69921.46484.1172.29297.05858.17578.0586.23047.0586.46875.05859.34766.05859.35156.0586.40625.05859h.29297l.17187.0586v.23046l.17578.17578h.29297l.34766.0586.35156.05859.69922.11719h.64063l.46484-.23438.29297-.17578.17187-.11719.41016-.17187.28906-.17578.9336-.46485.46875-.29297.52343-.29296.46485-.17188.46484-.17578 1.05078-.46485.28906-.11718.41016-.11719.28906-.11719.52735-.17578 1.51562-.69922.58203-.34765.28907-.0586.29297-.0586.34765-.11718.875-.23047.35156-.11719h.11329l.23437-.05859.875-.23437.23438-.0586h.8125l.35156-.0586.8164-.11718.17188-.0586.35156-.05468.29297-.0586.23047-.05859.8164-.17578.17579-.0586h.34765l.23438-.05859.46484-.11718.75781-.17188.23438-.0586h.34765l.41016-.11718.28906-.0586 1.28516-.05859h.28906l.41016-.0586.23047-.05858h.17578l.875-.1172h.40625l.41015-.11718h.34766l.35156-.11328.8711-.0586h1.75l1.04687.28907.41016.11719.28906.11718.35156.11719.28907.11719 1.05078.17187.28906.0586h.29297l.29297.05859.17187.0586.41016.05859.17187.0586.1172.05858h.11718l.11719.0586.35156.0586h.11328l.41016.0664 1.92187.39453 1.92578.39453 1.51953.44922 1.69532.71875 2.14453.80469 1.60547-.71875 1.42968-.80469 1.16016-1.07813 1.25-.44921 3.03516-.71875 1.875-.35938 2.14453-1.34765 2.23437-1.25391 2.5-1.25781 1.69531-.44922 1.78516-.17969 1.16016-.26953.625.53906 1.33984-.26953.71485-.98828.98437-1.34375.44531-.17969.80469-.35937 1.875-.53907 1.78516-.44921 1.25-.26954 1.16015-.08984 1.69922-.08984 1.96094-.26954 1.25-.08984h.53906l.625-.08984h.89063l2.14453-.17969 2.41015-.17969 2.58985-.08984 1.69531.17969 1.60938.08984 1.42968.35938 1.16016.71875 1.875.98828 1.16015 1.52734.26563.71484.6289.08985.35548.89844.53515.53906.53516 1.52734 1.07422.35938h.53515l-.80469.53515.08985 1.70703.71484 2.69532.89063.80468.89453.98829.71484 1.2578 1.78516.53907 1.51953-.17969.35547 1.34375 1.60937-.80469.98047-.53906.26953.26953.31641-.21484.21875-.14453.80078.44922.44922-.35938h.35547l.53515-.26953.53907-.71875.53515-.26953.625-.98828 1.16016.44922.83984.3711 1.39454.61718 1.6953-.17969h1.60548l1.78515.08985.17969-1.70704.53516-1.34375.80468.26954.4922.84765.40233.40625-.08984.53906v.35938l.71485.44922.71093-.26953h1.42969l.35938.98828.4453 1.25781.71485 1.34375 1.25.6289 1.69531.62891.71485-.17969.17969-.53906.98046-.08984.44922.35937.08594 1.25782-.26563.6289-.53515.17969v.53906l.71484.98438.26563.53906.98437.98828.80078 1.07813-.26562.35937-.08985.89844-.625 2.33203-.35546 2.0664-.08985 1.79298-.17969.71875-.08984.53906v1.4375l-.98047 1.88281-.35937 1.70703-.53516.89844-.80469 1.16797-.26562.53906 2.05469 1.2539.08593.35938-.35546.53906-.08985-.17968v.80859l.08985 1.4375-.44532.71484-1.07422.09375-.26562.71485.53515.89844.8047.71875 1.16015.80859 1.33984.26953.44531.35938-.35546.44921-1.78907-.08984-1.25-.44922-.71484-.71875-.625-.08984-.17578 3.58984-.1875 1.3086h89.35937V311.70313h-55.26953v49.08203l.76172.125 3.28906.54296 2.02344 2.83594v2.7539l2.35156.33204 2.34766.33203h4.05078l-1.3789 4.16016-2.02344.70703-2.02344.70312-.54297.34375-2.59375 1.6172-.1875.11718-2.02344-2.07813-.73046-2.74218-2.67188-2.07813-1.375-3.5-.0664-.08203-1.95704-2.67188 2.75-1.41796v-49.08204H294.42187v91.41407l.1172.03125.1328.01172.07422.07421.10547.04688.08985.0586.08593.05859.08985.0586.29687.29687.0586.08984.03125.11719.02734.11719.01563.13671-.03125.1172-.0586.08983-.0586.08594-.04296.10547-.04688.10156-.02734.1211v.14453l.17578.26953.14844.14844.07422.08594.07422.07421.04296.10547.0625.08985.0586.08593.04297.10547.0586.08985.04687.10156.04296.10547.0586.08594.11719.17968.07421.07422.0625.08594.0586.08984.04297.10547.0586.08985.05858.08593.0625.08985.0586.08984.04297.10156.11719.17969.07421.07422.0586.08594.07422.07421.08984.0586.10547.04687h.14844l.1328-.01562.13282.01562.10156-.04687.07422-.07422.04688-.10156-.01563-.13281v-.14844l-.04687-.10547-.02735-.11719-.04687-.10156-.02735-.1211-.04296-.10156-.0625-.08984-.04297-.10156-.04297-.10547-.03125-.11719-.01563-.13281-.01171-.13672.08593-.0586.0586-.08593.12109-.03125.04297.10547.01562.1328v.1172l.0586.10156.0586.08984.08983.0586.14844.14843.0586.08985.04296.10547-.01171.10156.08593.0586.10547.04687.08594.0586.08984.05858.07422.07422-.11719.02735-.10546.04687-.08594.0586-.07422.07421-.0586.08985-.0625.08594-.02734.12109-.04687.10156-.04297.10547-.03125.11719-.01172.13281-.01563.13281v.14844l.02735.11719.04687.10547.04297.10156.0586.08984.07421.07422.08985.0586.07422.07421.08984.0586.0586.08984.04296.10547.04688.10156.11719.03125.1328.01563h.14845l.11718-.03125.10547.04297.04297.10547.04688.10156.02734.1211L299.5 410l.02734.11719.03125.1211.02735.11718.10547.04297.10156.04687.13281-.01562.14844.14844.0625.08593.07422.07422.07031.07422.08984.0625.10547.04297.10156.04297.1172.03125.13671.01562.11719-.03125.07422-.07422.02734-.11718-.01172-.13282-.03125-.12109-.02734-.11719.04297-.10547h.11719l.08984.0625.11719.02735h.14843l.13282.01562h.14843l.13282.01563.1328-.01563h.14845l.1328-.01562.13282-.01172.13672.01172.11719-.02735.13281-.01562.1914-.0586-.05859.17579-.01562.1328-.02735.1211-.01562.13281-.0586.08594-.1328.01563-.10548.04687-.10546.04297-.1172.03125-.11718.02735-.26563.03125h-.14843l-.13281.01562-.07422.07422.05859.08594.14844.14843.11719.1797.07421.0703.08985.0625.08984.0586.08594.0586.08984.05858.10156.04297.10547.0625.10547.04297.08594.0586.10547.04687.10156.04297.17969.11719.0586.08984-.04298.10156-.04687.10547.01562.13281.22266.22266.0586.08985.04296.10156.03125.1211.04297.10155.01563.13282.03125.11718.01171.13672.03125.11719.14844.14844.10156.04297.10547.04296.1172.03125.1328.01563.13672.01563h.11719l.11719-.03125.08984-.0586.04297-.10547.04688-.10156.04296-.10547.03125-.11719.01172-.1328v-.14845l-.01172-.1328-.01562-.13282-.03125-.11719-.04297-.10547-.04688-.10547-.04296-.10156-.04297-.10547-.01563-.13281.01563-.13281.02734-.11719.03125-.11719.02735-.1211.04687-.10155.08984-.0586.08594-.0625.07422-.07422.08984-.05859.22266-.22266.0586-.08593.07421-.07422.11719-.17969.0586-.08594v-.14844l-.07423-.07421-.10156-.04688-.10547-.04297-.10156-.04297-.0586-.08984-.04687-.10547-.02734-.11719.08984-.05859.11719-.03125.10156-.04297.17969-.11719.14844-.14843.01172-.13282-.01172-.10546-.08985-.0586-.1328.01563h-.14845l-.1328.01562-.13282-.01562-.1211-.03125-.08593-.0586-.07422-.07422-.0586-.08984-.0625-.08594-.11718-.17969-.0586-.08593.03125-.1211.08594-.05859.1211-.03125.05859-.08594v-.1211l-.03125-.11718-.0586-.08984-.05859-.08594-.04687-.10547-.02735-.11719-.01562-.1328.0586-.08985.07421-.07422.08984-.0586.1172-.17968.07421-.07422.0586-.08594.14843-.14844.1211-.03125.1328-.01562.13282.01562.07422.07422.04297.10547.01562.13281-.03125.1172-.11719.03124-.1328.01172-.14844.14844-.04297.10547-.04688.10156-.02734.1211-.03125.11718v.14844l.03125.11719.04297.10546.05859.08985.07422.07031.07422.07422.11719.03125.12109.02734.11719-.02734.1328-.01563h.1172l.08984.0586.07422.07422.04687.10546.0586.08594.10156.04688.13281.01562.10547.04297.08594.0586-.01172.10546-.07422.07422-.17969.11719-.05859.08984-.08984.0586-.07032.07422-.07421.07421-.0625.08985-.02735.11719-.01562.1328.01562.13282-.01562.13281v.14844l.01562.13281.02735.1172.03125.12108.07421.07422.08985.0586.08594.0586.08984.05858.11719.03125v.08594l-.10157.04688-.08984.0586-.26563.03124-.11718.02735h-.14844l-.10547.04296-.10156.04688-.0586.08984-.0625.23438-.01171.13281-.03125.1211-.01563.1328v.29298l-.01172.1328.01172.13673.01563.1328.1328.01563.13282.01172.1211.03125.08593.0586.07422.07421.04688.10547.04296.10157.01563.1328v.44532l-.01563.13281v.44532l.03125.26562.02735.11719.01562.13281.03125.11719.08594.21094.03125.26562v.14844l-.03125.11719-.02734.11718-.03125.1211-.02735.11719-.03125.11718-.03125.1211-.01171.1328-.01563.13282.08984.0586.1172-.03125.10155.01562.04688.10547-.03125.26562v.44141l-.04297.10547-.04688.10547-.04296.10156-.04297.10547-.0586.08594-.03125.12109-.04296.11719-.03125.11719-.01563.1328.01563.13282.05859.08984.10547.04688.08594.0586.05859.08593-.01172.13672-.03125.11719-.04297.10156v.44531l-.01562.13281v.14844l-.03125.11719-.04297.10547-.02735.11719-.04687.10546-.04297.10157-.03125.12109-.02734.11719-.03125.13281-.03125.11719-.02735.11719-.04297.10546-.03125.1172-.03125.12108-.01171.13282-.01563.13281v.29688l.02734.11718v.14844l.04688.39844.02734.11719.0586.08984.12109.03125h.14844l.13281-.01563.0586.08985v.11719l-.0586.08984-.08984.0586-.10157.04296-.10546.04688-.08985.05859-.08594.0586-.13671.01562-.1172-.03125-.1328-.01563-.10157.04688-.0625.08594-.01172.13671-.01562.13282-.03125.11719-.02735.11718-.01562.13281-.03125.1211v.29687l.01563.13282.03125.11718v.14844l.01171.13281v.14844l-.02734.11719-.04688.10156-.02734.1211-.03125.11718-.0586.08985-.07421.07421-.10156.04297-.10547.04688-.11719.02734-.1211.03125-.10156-.04687.0586-.08594.10547-.04688.02734-.11718.03125-.11719.02734-.1211.03125-.11718v-.14844l.01563-.13281-.03125-.11719-.04297-.10547-.10547.01563-.07422.07422-.10156.04296-.08984.0625-.07422.07422-.04297.10157-.01563.1328-.03125.1172L304.25 426l-.03125.11719-.02734.11719-.03125.12109-.02735.11719-.03125.11718-.04297.10547-.08984.0586h-.08984l-.1172-.03125-.03124-.08594.01562-.13672-.03125-.11719v-.14844l-.01171-.1328v-.14844l-.0625-.23438-.02735-.1211-.04297-.10156-.04687-.10546-.0586-.08594-.05859-.08985-.04297-.10546-.0625-.08594-.14844-.14844-.0703-.07422-.10548-.04687-.10547-.04297-.10156-.04297-.29687-.29688-.08985-.07421-.08594-.0586-.10546-.04297-.08985-.0625-.08594-.0586-.10546-.04296-.08985-.0586-.08594-.0625-.07421-.0703-.10547-.04688-.08594-.0586-.10547-.04296-.08984-.0625-.10156-.04297-.10547-.04297-.08594-.0586-.10547-.04687-.10547-.04297-.10156-.04687-.08985-.0586-.10156-.04297-.10547-.04296-.08984-.0625-.11719-.02735-.13281-.01562-.13281.01562H299.75l-.13281.01563-.11719-.03125-.08984-.0586-.07422-.07422-.08985-.05859-.10156-.04688h-.14844l-.12109-.02734-.10156-.04297-.07422-.07422-.11719-.17968-.08984-.0586-.10156-.04297-.08985-.0625-.10547-.04296-.08984-.0586-.08594-.0586-.10547-.04687-.0586-.08594-.05858-.08984-.04297-.10547-.04688-.10156-.07422-.07422-.08594-.0586-.07421-.07421-.08985-.0586-.22265-.22265-.04297-.10547-.03125-.26563.10547-.04296h.14453l.10547.04296.07421.07422.08985.0586.08594.0586.10546.04687.08985.05859.14844.14844.0703.07422.14845.14843.0625.08594.07421.07422.08594.0586.07422.07421.08985.0625.08984.0586.08594.05859.26953.17578.10156.04688.10547.04296.10156.04297.04688-.07421.05859-.08594.07422-.07422.07031-.07422.10547.04297.07422.07422.0586.08984.04296.10156.04688.10547.04296.10547.1211.02735.11719-.02735.07421-.08984.04297-.10547.0586-.08985.07422-.07421.10546-.04297.1172-.02735.1328.01172.08985.0586.14844.14843.05859.08985.04297.10547.04687.10156.04297.10547.04297.10156.10547.04688.10547.04296.13281.01563.08594-.0586.0586-.08984.07421-.07422.10547-.04297.11719.02735.10547.04687.10156.04297.10547.04297.10156.04688.17969.11718v.11719l-.01563.13281.01563.13281.01562.13672.0586.08594.10156.04688.1211.02734.11718.03125h.14844l.11719-.03125.05859-.08984.17969-.1172.05859-.08983.07422-.07422.0586-.08594.11718-.17969.17969-.11719.11719.03125.08984.0586.04297.07422-.01563.1328v.1172l.08985.05859h.14843l.13282-.01563.1328-.01171.26563-.03125.10547-.04297.11719-.03125.1211-.02735.07421-.07421.07031-.07422.0625-.08985-.01562-.10547-.04688-.10156-.10156-.04297-.10547-.01562-.11718.02734-.26563.03125h-.14844l-.07421-.07422-.08985-.0586-.11719-.03124-.11718-.02735-.13282-.01562h-.14843l-.13282.01563h-.29687l-.10547-.04688-.14844-.14844-.04297-.10156-.05859-.08984.22266-.22266.08593-.0586.10547-.04296.11719-.03125.13281-.01563.13281.01563.13672.01562.10157.04297.1328-.01172.08985-.0625.10156-.04297.0625-.08984-.04687-.10156-.08984-.0586-.1172-.03125-.10155-.04296-.0586-.08985-.0625-.08984v-.11719l.01563-.13281.10547-.04688.07421-.07031v-.1211l-.08984-.05859-.03125-.11719.08985-.05859.07421-.07422.04297-.10547.0586-.08984.04687-.10156.01563-.13281v-.14844l-.04688-.10547-.04297-.10156-.08984-.0586-.13281-.01562-.10157-.04297-.13671-.01563-.1172-.03125h-.4453l-.13282-.01562-.13281-.01172-.13281-.01563-.11719-.03125h-.14844l-.13281-.01562-.13281-.01172-.26563-.03125-.1211-.04297-.08593-.0586-.07422-.07421v-.14844l.01172-.13281.10547-.04688.10156-.04296.13281-.01563h.15235l.13281-.01562h.29297l.1211.03125.10156.04296.08984.0586.23438.0625.12109-.04688.08984-.05859.10156-.04297.13282-.01562.10547.04296.10156.04688.13281.01172.1211-.02735h.14453l.12109-.03125.11719-.02734.10547-.04687.07421-.07422.08594-.0586.14844-.14843.0586-.08594.04687-.10547.02734-.11719.01563-.10547-.10156-.04296-.08985-.0586-.11719-.03125-.10546-.04297-.08985-.0625-.07422-.08594-.07422-.07421-.10156-.04297-.10547-.04688-.10156-.04297-.0586-.08984-.04687-.10156-.08594-.21094-.0625-.08594-.05859-.08984-.07422-.07422-.08594-.0586h-.26953l-.11719.03126-.08984.05859-.10156.04297-.13281.01562-.10547-.01562-.02735-.11719-.0625-.08984-.11718-.03125-.10157-.04297-.14843-.14844-.03125-.11719-.01563-.10546.07422-.07422.17969-.1172.11719-.02733.11718-.03125.13672.01562.10156.04297.10547.04297.10156.04687.10547.04297.1172.03125.1328.01563.1172.02734.1328.01563.10547-.01563.08985-.0586-.07422-.07421-.10547-.04297-.07422-.07422-.07422-.08984-.14844-.14844-.08593-.0586-.08985-.05859-.07422-.07422-.08984-.0586-.10156-.04687-.1211-.02734-.10156-.04688-.10547-.04296-.11719-.03125-.10156-.04297-.1211-.03125h-.14843l-.11719.03125-.10546.04297-.08594.0625-.17969.11718-.08594.0586-.08984.0586-.10547.04687-.08594.05859-.10547.04297-.10156.04297-.10547.04687-.07422.07422-.05859.08985-.0586.08593-.04687.10547-.0586.08594-.07421.07422-.13281-.01172-.1172-.03125h-.11718l-.07422.07422-.08984.0586-.07422.07421-.08984.0586-.08594.05859-.10547.04687-.10156.04297-.13672.01563-.10156-.04297-.14844-.14844-.10547-.04688h-.08594l-.10547.04688-.10156.04297-.1211.03125-.11718-.03125-.07422-.07422v-.11719l.03125-.1211.07422-.0703.0586-.08985.07421-.07422.11719-.03125.10547-.04296h.29297l.13281-.01563.13672-.01563.10156-.04296.08985-.0586.10156-.04687.08984-.0586.13281-.01171.08985.05859.13281.01172.08984-.0586.08594-.05859.10547-.04297.08984-.0586.08594-.0625.08985-.05859.14843-.14843.0586-.08594.05859-.08985.10547-.04296.13281-.01563.11719.02735.1211.03125.05859-.0586.05859-.08984.03125-.26563.02734-.11719.10547.01172.13281.01563.10157-.04297.08984-.0586.0586-.08984.07421-.07422.0586-.08984.04687-.10156.01172-.13281-.01172-.13282-.04687-.10547-.14844-.14843-.0586-.08985-.05859-.08594-.04297-.10546v-.44532l.01563-.1328v-.14845l.01172-.1328-.0586-.0586-.08984.0586-.10156-.04298-.17969-.11719-.08594-.05859-.0625-.08984-.0586-.08985-.07421-.07421-.08594-.0586-.1211.03125-.10155.01172-.10547.04688-.08594.05859-.10547.04297-.14844.14844-.08984.05859-.08594.0586-.08984.0625-.10547.04296-.13281.01563v-.1211l.10547-.04297.11718-.03125.07422-.0703.04297-.10548v-.14844l-.02734-.11718-.14844-.14844-.13281-.01563h-.14844l-.11719.03125-.10547.04297-.10156.04297-.08984.0625-.11719.02735-.07422-.07422.01172-.13281-.04297-.10157-.04297-.10547-.08984-.05859-.11719.02734-.1211.03125-.11718.03125-.10156.04297-.1211.03125-.10156.04297-.10547.04297-.08984.0586-.10156.01562v-.11719l.01562-.13281-.0586-.08985-.07421.04297-.14844.14844-.0586.08985-.07421.07421-.04688.10547-.04296.10156-.07422.07422-.0586.08985-.07422.07422-.05859.08593-.07422.07422-.08984.0625-.07422.07031-.07422.07422-.10156.01563-.13281.01562-.10547-.04296v-.1211l.14843-.14844.04297-.10156.0586-.08984.04687-.10156.04297-.10547.0586-.08985.03124-.11719.04297-.10156.03125-.1211.02735-.11718.04687-.10547.04297-.10156.04297-.10547.07422-.07031.08984-.0625.08985-.0586.10156-.04296h.29687l.26563-.03125.10547-.04297-.07422-.07422-.11719-.03125-.10547-.04297-.08984-.0586-.10156-.04687-.08985-.0586-.10156-.04296-.10547-.04297-.08984-.0625-.08594-.0586-.10547-.04296-.10156-.04297-.1211-.03125-.11718-.03125-.10157-.04297L297.5 410.25l-.10156-.04297-.08985-.0586-.04296-.10546-.01563-.13281.10156-.04297.13281-.01563.13672.01563.13282-.01563.10156-.04297.0586-.08984.01562-.10547-.08985-.0586-.07421-.07421-.10157-.04297-.08984-.0586-.14844-.14843-.04297-.10547-.01562-.13281v-.29297l-.0586-.08985-.08984-.05859-.07422-.07422-.04297-.10547-.03125-.11718-.0586-.08985-.07421-.07422-.11719-.02734-.07422-.07422-.08984-.0586-.08984-.0625-.08594-.05859-.07422-.07421-.0586-.08594-.04687-.10547-.08594-.0586-.14843-.14843-.19532-.0586-.1328.01563-.10157.04297-.07422.07422-.04688.10156-.04296.10547-.0586.08984-.0586.08594-.29687.29687-.08984.0586h-.08594l-.0625-.08594-.04297-.10547.03125-.11719.0586-.08984.02734-.11719-.01172-.13281-.08984-.0625-.10547.04688-.11719.02734-.11719.03125-.26953.17578-.10156.04688-.11719.02734-.10546.04687-.08985.0586-.10156.04297-.0586-.08594-.04687-.10547.01563-.13281.04687-.10547.07031-.07422.07422-.07031.0586-.08985v-.14843l-.04297-.10547h-.23829l-.10156.04687-.03125.11719-.02734.11719-.03125.1211-.07422.04296-.13281.01563-.07422-.04688-.04297-.10156-.04297-.10547-.04687-.10156-.04297-.10547-.1211.03125-.10156.04297-.13281.01562-.11719.03125-.10547.04297-.08984.0586-.10156.04687-.1211.02734-.13281.01563-.10156-.04297-.0586-.08985-.04687-.10546-.04297-.10157-.04297-.10546v-.1172l.0586-.08984.08593-.05859.17969-.11719.10156-.04687.10547-.04297.10547-.0586.10156-.04296.08985-.0625.10156-.04297.10547-.0586.10156-.04687.08984-.0586.10547-.04296.10156-.04297.08985-.0625.10156-.04297.13672-.01563.11719.03125.10156.04297.1211.03125.10156.04297.10546.04688.10157.04296.10547.04297.10156.04688.10547.04297.10156.04297.10547.04687.08594.0586.10546.04296.1172.03125.10546.04297.10156.04688.08985.0586.10547.04296.10156.04297.10547.04687.11719.02735.10156.04687.1211.02735h.14843l.08594-.0586.01562-.10156.0586-.08984-.02735-.1172-.07422-.07421-.11719-.17969-.07421-.07422-.08985-.07421-.17969-.1172-.08593-.05859-.10547-.04296-.10156-.04688-.26954-.17578-.05859-.08985-.07422-.07421-.0586-.08985-.04296-.10156-.03125-.11719-.01563-.13672v-.5625l-.01171-.1328-.01563-.13282-.03125-.11719-.01562-.13281-.01172-.13281-.03125-.1211-.22266-.22265-.0586-.08594-.01562-.10547.03125-.11719.13281-.01562v-91.41406H172.9922v1.45312l-.0586.23438-.35156 1.05078-.17187.52343-.1172.34766-.17577.41016-.11719.17187-.23438.29297-.23046.0586h-.35157l-.11718.05859-.23047.40625v.29297l.11719.17578.23046.23047.1172.23437.64062.75781.29297.46485.17578.23437.23047.35156.23437.34766.64063.8164.17578.46485.17187.41016.11719.69531.17578.46875.11719 1.39844.0586.46484v.875l.11718 1.04688v4.78125l-.0586.46484-.35156 1.28125-.17578.52344-.11328.41015-.35156.9297L172.93359 336l-.23437.58203-.11719.17578-.17187.34766-.17578.40625-.35157.8164-.0586.29297-.11327.29297-.11719.28906-.0586.17579-.11718.875-.0586.40625-.05859.11718-.0586.17579-.05859.17187-.23047.52734-.11718.17188v.23437l-.11719.23438-.0586.17187-.17577.58594v.28906l-.0586.17579v.29296l-.0586.11329-.05859.52734v.17187l-.05468.23438v2.6211l-.17578.8164-.1172.17578-.17577.23438-.1172.17187-.11327.23438-.58594.93359-.23047.28906-.29297.46485-.17578.23437-.28906.35156-.35156.69922-.11328.23047-.17579.41016-.17578.23046-.40625.52735-.8164.69922-.29297.17187-.28906.23438-.17579.11719-.17578.17578-.52344.40625-.52734.17578-.17187.17578-.23438.05469-.64062.17578h-.75782m12.21094 31.02344l-1.07422.44921.35938.89454 1.25-.71485.44531-.53906-.98047-.08985"/><path fill="#d3d3d3" fill-opacity="0" fill-rule="evenodd" d="M201.50781 416.59766h-.89453l.44922.6289.98047.35938.80469-.08985.4453-.98828-.17577.08985-.71485-.35547-.89453.35547m154.6211 59.0703l-.0586-.52343v-.29297l.11328-.29297.0586-.23046.46875-.46875h.11328l.11719-.11329.11718-.05859h.17579l.23437-.0586h.34766l.23437.0586.11719.0586.23047.17187.0586.17578.11718.58203v.29297l-.11719.17578-.17187.28906-.17579.17579-.52734.52343-.23047.23438-.11719.0586h-.17578l-.11718-.0586-.40625-.29297-.17579-.11719-.11718-.0586-.0586-.11327-.05468-.1172m6.64062-10.95702l-.0586-.17188v-1.10937l.0586-.17188.17578-.0586.17188-.05858h.17578l.23437-.0586.1172.0586.05858.69921-.05859.17188-.11719.17578-.11718.0586-.23438.52343-.11328.0586h-.23438l-.05859-.1172m9.61328-14.39062l-.11719-.17578v-.69922l.29297-.875.1172-.17187.17577-.35156.11328-.23047.1172-.29297.35155-.75781.1172-.23047.17187-.23438h.17578l.11719-.0586h.64062l.11719.0586.23437.23438.17188.11328.35156.29297.11719.11718.11328.17579v.11328l.11719.05859.11718.11719v.69922l-.05859.17578v.23047l-.0586.17578-.34765 1.05078-.11719.23047-.11719.23437-.11718.0586-.23047.23437-.64063.28906h-.875l-.41015-.11718-.64063-.46485"/><path fill="none" stroke="#bebebe" stroke-linecap="round" stroke-linejoin="round" stroke-miterlimit="10" stroke-width=".5" d="M467.95703 311.69531H144.02734v168.625h323.9297v-168.625"/><g clip-path="url(#a)"><path fill="#fff" fill-opacity="0" fill-rule="evenodd" d="M144 475.89063v4.4375h.0039H144V311.67188h.0039H144v164.21875"/></g><g clip-path="url(#b)"><path fill="#fff" fill-opacity="0" fill-rule="evenodd" d="M144.0039 480.32813V311.67188h17.75v132.38671l-.46874.76172.46875 2.03516v13.72265l-1.57422 1.9961 1.57422 1.58203 4.4375-1.0039 1.1953-.57813-1.1953-.66406-4.4375-1.33204v-13.72265l4.03906-2.03516-4.03906-.76172V311.67188h13.3125v150.60156l-.46094.30078.46094.21094.66797-.21094-.66797-.30078V311.67188h292.92968v168.65625H144.00391"/></g><path fill="#50fcfc" fill-rule="evenodd" d="M161.7539 464.15625l-1.57421-1.58203 1.57422-1.9961 4.4375 1.33204 1.1953.66406-1.1953.57812-4.4375 1.00391m0-17.30078l-.46875-2.03516.46875-.76172 4.03906.76172-4.03906 2.03516m13.3125 15.92969l-.46094-.21094.46094-.30078.66797.30078-.66797.21094"/><g clip-path="url(#c)"><path fill="#fff" fill-opacity="0" fill-rule="evenodd" d="M467.9961 480.32813H468V311.67188h-.0039H468v168.65625h-.0039"/></g><g clip-path="url(#d)"><path fill="none" stroke="#000" stroke-linecap="round" stroke-linejoin="round" stroke-miterlimit="10" stroke-width=".5" d="M147.46094 480.9336l-6.92188-1.20704"/></g><g clip-path="url(#e)"><path fill="none" stroke="#000" stroke-linecap="round" stroke-linejoin="round" stroke-miterlimit="10" stroke-width=".5" d="M147.46094 480.9336l.76172 2.33202"/></g><g clip-path="url(#f)"><path fill="none" stroke="#000" stroke-linecap="round" stroke-linejoin="round" stroke-miterlimit="10" stroke-width=".5" d="M160.77344 480.95313l-6.91406-1.25"/></g><g clip-path="url(#g)"><path fill="none" stroke="#000" stroke-linecap="round" stroke-linejoin="round" stroke-miterlimit="10" stroke-width=".5" d="M160.77344 480.95313l.7461 2.33593"/></g><g clip-path="url(#h)"><path fill="none" stroke="#000" stroke-linecap="round" stroke-linejoin="round" stroke-miterlimit="10" stroke-width=".5" d="M174.14453 480.39063l-7.02734-.1211"/></g><g clip-path="url(#i)"><path fill="none" stroke="#000" stroke-linecap="round" stroke-linejoin="round" stroke-miterlimit="10" stroke-width=".5" d="M174.14453 480.39063l1.11328 2.18359"/></g><g clip-path="url(#j)"><path fill="none" stroke="#000" stroke-linecap="round" stroke-linejoin="round" stroke-miterlimit="10" stroke-width=".5" d="M173.1211 480.3711l.55859 1.09374"/></g><g clip-path="url(#k)"><path fill="none" stroke="#000" stroke-linecap="round" stroke-linejoin="round" stroke-miterlimit="10" stroke-width=".5" d="M187.45703 480.26953l-7.02344.1211"/></g><g clip-path="url(#l)"><path fill="none" stroke="#000" stroke-linecap="round" stroke-linejoin="round" stroke-miterlimit="10" stroke-width=".5" d="M187.45703 480.26953l1.1914 2.14453"/></g><g clip-path="url(#m)"><path fill="none" stroke="#000" stroke-linecap="round" stroke-linejoin="round" stroke-miterlimit="10" stroke-width=".5" d="M186.4375 480.28516l.59375 1.07422"/></g><g clip-path="url(#n)"><path fill="none" stroke="#000" stroke-linecap="round" stroke-linejoin="round" stroke-miterlimit="10" stroke-width=".5" d="M200.7461 479.89844l-6.97266.85937"/></g><g clip-path="url(#o)"><path fill="none" stroke="#000" stroke-linecap="round" stroke-linejoin="round" stroke-miterlimit="10" stroke-width=".5" d="M200.7461 479.89844l1.41015 2.00781"/></g><g clip-path="url(#p)"><path fill="none" stroke="#000" stroke-linecap="round" stroke-linejoin="round" stroke-miterlimit="10" stroke-width=".5" d="M199.73438 480.02344l.70312 1.0039"/></g><g clip-path="url(#q)"><path fill="none" stroke="#000" stroke-linecap="round" stroke-linejoin="round" stroke-miterlimit="10" stroke-width=".5" d="M214.04688 479.79688l-6.94532 1.0625"/></g><g clip-path="url(#r)"><path fill="none" stroke="#000" stroke-linecap="round" stroke-linejoin="round" stroke-miterlimit="10" stroke-width=".5" d="M214.04688 479.79688l1.46875 1.96875"/></g><g clip-path="url(#s)"><path fill="none" stroke="#000" stroke-linecap="round" stroke-linejoin="round" stroke-miterlimit="10" stroke-width=".5" d="M213.03906 479.95313l.73047.98437"/></g><g clip-path="url(#t)"><path fill="none" stroke="#000" stroke-linecap="round" stroke-linejoin="round" stroke-miterlimit="10" stroke-width=".5" d="M227.34766 479.6914l-6.91407 1.27344"/></g><g clip-path="url(#u)"><path fill="none" stroke="#000" stroke-linecap="round" stroke-linejoin="round" stroke-miterlimit="10" stroke-width=".5" d="M227.34766 479.6914l1.52343 1.92579"/></g><g clip-path="url(#v)"><path fill="none" stroke="#000" stroke-linecap="round" stroke-linejoin="round" stroke-miterlimit="10" stroke-width=".5" d="M226.33984 479.8789l.76172.96094"/></g><g clip-path="url(#w)"><path fill="none" stroke="#000" stroke-linecap="round" stroke-linejoin="round" stroke-miterlimit="10" stroke-width=".5" d="M240.49219 479.08203l-6.57031 2.49219"/></g><g clip-path="url(#x)"><path fill="none" stroke="#000" stroke-linecap="round" stroke-linejoin="round" stroke-miterlimit="10" stroke-width=".5" d="M240.49219 479.08203l1.84375 1.61719"/></g><g clip-path="url(#y)"><path fill="none" stroke="#000" stroke-linecap="round" stroke-linejoin="round" stroke-miterlimit="10" stroke-width=".5" d="M239.53516 479.44531l.92187.8086"/></g><g clip-path="url(#z)"><path fill="none" stroke="#000" stroke-linecap="round" stroke-linejoin="round" stroke-miterlimit="10" stroke-width=".5" d="M253.8164 479.10938l-6.58984 2.4375"/></g><g clip-path="url(#A)"><path fill="none" stroke="#000" stroke-linecap="round" stroke-linejoin="round" stroke-miterlimit="10" stroke-width=".5" d="M253.8164 479.10938l1.83204 1.63671"/></g><g clip-path="url(#B)"><path fill="none" stroke="#000" stroke-linecap="round" stroke-linejoin="round" stroke-miterlimit="10" stroke-width=".5" d="M267.1836 479.25781l-6.69532 2.14063"/></g><g clip-path="url(#C)"><path fill="none" stroke="#000" stroke-linecap="round" stroke-linejoin="round" stroke-miterlimit="10" stroke-width=".5" d="M267.1836 479.25781l1.7539 1.71485"/></g><g clip-path="url(#D)"><path fill="none" stroke="#000" stroke-linecap="round" stroke-linejoin="round" stroke-miterlimit="10" stroke-width=".5" d="M266.20703 479.57031l.8789.85547"/></g><g clip-path="url(#E)"><path fill="none" stroke="#000" stroke-linecap="round" stroke-linejoin="round" stroke-miterlimit="10" stroke-width=".5" d="M280.5625 479.48047l-6.82031 1.69531"/></g><g clip-path="url(#F)"><path fill="none" stroke="#000" stroke-linecap="round" stroke-linejoin="round" stroke-miterlimit="10" stroke-width=".5" d="M280.5625 479.48047l1.63672 1.82812"/></g><g clip-path="url(#G)"><path fill="none" stroke="#000" stroke-linecap="round" stroke-linejoin="round" stroke-miterlimit="10" stroke-width=".5" d="M293.89063 479.54688l-6.85157 1.5625"/></g><g clip-path="url(#H)"><path fill="none" stroke="#000" stroke-linecap="round" stroke-linejoin="round" stroke-miterlimit="10" stroke-width=".5" d="M293.89063 479.54688l1.60546 1.85546"/></g><g clip-path="url(#I)"><path fill="none" stroke="#000" stroke-linecap="round" stroke-linejoin="round" stroke-miterlimit="10" stroke-width=".5" d="M292.89453 479.77344l.80078.92969"/></g><g clip-path="url(#J)"><path fill="none" stroke="#000" stroke-linecap="round" stroke-linejoin="round" stroke-miterlimit="10" stroke-width=".5" d="M307.09375 479.15625l-6.625 2.34375"/></g><g clip-path="url(#K)"><path fill="none" stroke="#000" stroke-linecap="round" stroke-linejoin="round" stroke-miterlimit="10" stroke-width=".5" d="M307.09375 479.15625l1.8086 1.65625"/></g><g clip-path="url(#L)"><path fill="none" stroke="#000" stroke-linecap="round" stroke-linejoin="round" stroke-miterlimit="10" stroke-width=".5" d="M306.1289 479.4961l.90626.82812"/></g><g clip-path="url(#M)"><path fill="none" stroke="#000" stroke-linecap="round" stroke-linejoin="round" stroke-miterlimit="10" stroke-width=".5" d="M320.27734 478.83984l-6.36328 2.97657"/></g><g clip-path="url(#N)"><path fill="none" stroke="#000" stroke-linecap="round" stroke-linejoin="round" stroke-miterlimit="10" stroke-width=".5" d="M320.27734 478.83984l1.96094 1.47266"/></g><g clip-path="url(#O)"><path fill="none" stroke="#000" stroke-linecap="round" stroke-linejoin="round" stroke-miterlimit="10" stroke-width=".5" d="M319.35156 479.27344l.98047.73828"/></g><g clip-path="url(#P)"><path fill="none" stroke="#000" stroke-linecap="round" stroke-linejoin="round" stroke-miterlimit="10" stroke-width=".5" d="M333.48438 478.6289l-6.14844 3.39844"/></g><g clip-path="url(#Q)"><path fill="none" stroke="#000" stroke-linecap="round" stroke-linejoin="round" stroke-miterlimit="10" stroke-width=".5" d="M333.48438 478.6289l2.05859 1.33985"/></g><g clip-path="url(#R)"><path fill="none" stroke="#000" stroke-linecap="round" stroke-linejoin="round" stroke-miterlimit="10" stroke-width=".5" d="M332.58984 479.125l1.03125.66797"/></g><g clip-path="url(#S)"><path fill="none" stroke="#000" stroke-linecap="round" stroke-linejoin="round" stroke-miterlimit="10" stroke-width=".5" d="M346.61328 478.32422l-5.77344 4.00781"/></g><path fill="none" stroke="#000" stroke-linecap="round" stroke-linejoin="round" stroke-miterlimit="10" stroke-width=".5" d="M346.61328 478.32422l2.17969 1.125"/><g clip-path="url(#T)"><path fill="none" stroke="#000" stroke-linecap="round" stroke-linejoin="round" stroke-miterlimit="10" stroke-width=".5" d="M359.60156 477.92188l-5.11719 4.8164"/></g><path fill="none" stroke="#000" stroke-linecap="round" stroke-linejoin="round" stroke-miterlimit="10" stroke-width=".5" d="M359.60156 477.92188l2.32031.78515"/><g clip-path="url(#U)"><path fill="none" stroke="#000" stroke-linecap="round" stroke-linejoin="round" stroke-miterlimit="10" stroke-width=".5" d="M372.57031 477.60156l-4.42969 5.45703"/></g><path fill="none" stroke="#000" stroke-linecap="round" stroke-linejoin="round" stroke-miterlimit="10" stroke-width=".5" d="M371.92578 478.39453l1.20313.23438"/><g clip-path="url(#V)"><path fill="none" stroke="#000" stroke-linecap="round" stroke-linejoin="round" stroke-miterlimit="10" stroke-width=".5" d="M385.51563 477.33984l-3.6875 5.98047"/></g><path fill="none" stroke="#000" stroke-linecap="round" stroke-linejoin="round" stroke-miterlimit="10" stroke-width=".5" d="M384.98047 478.20703l1.22265.07813"/><g clip-path="url(#W)"><path fill="none" stroke="#000" stroke-linecap="round" stroke-linejoin="round" stroke-miterlimit="10" stroke-width=".5" d="M398.79688 477.3164l-3.6211 6.02344"/></g><path fill="none" stroke="#000" stroke-linecap="round" stroke-linejoin="round" stroke-miterlimit="10" stroke-width=".5" d="M398.26953 478.19531l1.22656.0625"/><g clip-path="url(#X)"><path fill="none" stroke="#000" stroke-linecap="round" stroke-linejoin="round" stroke-miterlimit="10" stroke-width=".5" d="M411.83594 477.16797l-3.07031 6.32031"/></g><path fill="none" stroke="#000" stroke-linecap="round" stroke-linejoin="round" stroke-miterlimit="10" stroke-width=".5" d="M411.39063 478.08594l1.22656-.04297"/><g clip-path="url(#Y)"><path fill="none" stroke="#000" stroke-linecap="round" stroke-linejoin="round" stroke-miterlimit="10" stroke-width=".5" d="M425.39063 477.29688l-3.54688 6.0664"/></g><path fill="none" stroke="#000" stroke-linecap="round" stroke-linejoin="round" stroke-miterlimit="10" stroke-width=".5" d="M425.39063 477.29688l2.44921.09765"/><g clip-path="url(#Z)"><path fill="none" stroke="#000" stroke-linecap="round" stroke-linejoin="round" stroke-miterlimit="10" stroke-width=".5" d="M438.3711 477.125l-2.87891 6.41016"/></g><path fill="none" stroke="#000" stroke-linecap="round" stroke-linejoin="round" stroke-miterlimit="10" stroke-width=".5" d="M438.3711 477.125l2.44921-.16406"/><g clip-path="url(#aa)"><path fill="none" stroke="#000" stroke-linecap="round" stroke-linejoin="round" stroke-miterlimit="10" stroke-width=".5" d="M451.09766 476.91797l-1.69922 6.82031"/></g><path fill="none" stroke="#000" stroke-linecap="round" stroke-linejoin="round" stroke-miterlimit="10" stroke-width=".5" d="M451.09766 476.91797l2.3789-.59375"/><g clip-path="url(#ab)"><path fill="none" stroke="#000" stroke-linecap="round" stroke-linejoin="round" stroke-miterlimit="10" stroke-width=".5" d="M464.41016 476.91797l-1.69532 6.82031"/></g><path fill="none" stroke="#000" stroke-linecap="round" stroke-linejoin="round" stroke-miterlimit="10" stroke-width=".5" d="M464.16406 477.91016l1.1875-.29688"/><g clip-path="url(#ac)"><path fill="none" stroke="#000" stroke-linecap="round" stroke-linejoin="round" stroke-miterlimit="10" stroke-width=".5" d="M147.51172 467.17188l-7.02344-.31641"/></g><path fill="none" stroke="#000" stroke-linecap="round" stroke-linejoin="round" stroke-miterlimit="10" stroke-width=".5" d="M147.51172 467.17188l1.05078 2.21875m-2.07422-2.26563l.52734 1.10938m13.78516-.78907l-6.97266-.86328m6.97266.86328l.8789 2.28907m12.46095-2.58204l-7.01954-.27734m7.01953.27734l1.06641 2.21094m12.2461-2.54297l-7.01563.38672m7.01563-.38672l1.26953 2.10157m-2.28907-2.04297l.63282 1.04687m13.6289-1.64453l-6.8711 1.46484m6.8711-1.46484l1.57813 1.8789m-2.57813-1.66406l1.57813 1.87891m12.71484-2.1914l-6.82812 1.66015m6.82812-1.66016l1.63281 1.83594m-2.625-1.59375l1.62891 1.83594m12.54688-2.5l-6.5625 2.5039m6.5625-2.5039l1.85156 1.61328m-2.80469-1.25l1.84766 1.61328m12.2578-2.34375l-6.23437 3.23828m6.23438-3.23828l2.01953 1.39063m-2.92969-.92188l2.02344 1.39063m12.09766-2.04688l-6.02735 3.61328m6.02735-3.61328l2.10156 1.26563m-2.98047-.73828L254.75781 467m12.0664-1.83203l-5.97655 3.6914m5.97656-3.6914l2.11719 1.23437m-2.98829-.69922l2.1211 1.23829m12.02344-1.83985l-5.89454 3.82422m5.89454-3.82422l2.14843 1.1914m-3.0039-.6328l2.14453 1.1914m12.30078-1.24218l-6.4414 2.80859m6.4414-2.8086l1.92188 1.52344m-2.85938-1.11718l1.92188 1.52734m12.25-2.10156l-6.28516 3.14453m6.28516-3.14453l2 1.42187m-2.91407-.96484l2 1.42187m11.67188-2.6875l-5.16797 4.76172m5.16797-4.76172l2.3164.8164m-3.0664-.12108l2.3125.8125m11.67969-1.58204l-5.02344 4.91016m5.02344-4.91016l2.33984.7422m-3.07031-.02735l2.33984.74219m11.30078-1.8125l-4.21094 5.62109m4.21094-5.6211l2.42578.375m-3.03906.44141l1.21094.1875m12.22265-1.3164l-3.22265 6.24609m3.22265-6.2461l2.45313-.02734m10.0586-.26953l-1.6172 6.83984m1.6172-6.83984l2.37109-.6211m11.375.75391l-2.47657 6.57422m2.1172-5.61719l1.21484-.15625m12.57421-.7539l-2.70703 6.48047m2.70703-6.48047l2.44532-.23047m11.48437.5586l-3.9375 5.82421m3.9375-5.82422l2.4414.26172M425.42579 464l-3.61719 6.02734M425.4258 464l2.44921.1289m10.58203-.28124l-3.05078 6.33203m3.05078-6.33203l2.45313-.09375m11.17578.26562l-3.67969 5.98828m3.67969-5.98828l2.44922.15625m11-.07031l-3.94532 5.8164"/><g clip-path="url(#ad)"><path fill="none" stroke="#000" stroke-linecap="round" stroke-linejoin="round" stroke-miterlimit="10" stroke-width=".5" d="M465.53516 464.10547l2.4375.26172"/></g><g clip-path="url(#ae)"><path fill="none" stroke="#000" stroke-linecap="round" stroke-linejoin="round" stroke-miterlimit="10" stroke-width=".5" d="M147.5039 453.95703l-7.0078-.51562"/></g><path fill="none" stroke="#000" stroke-linecap="round" stroke-linejoin="round" stroke-miterlimit="10" stroke-width=".5" d="M147.5039 453.95703l.98829 2.2461m12.32812-2.2422l-7.00781-.52734m7.00781.52735l.98438 2.25m-2.0039-2.32422l.49218 1.1211m13.82031-.83985l-6.96484-.9375m6.96484.9375l.85156 2.30078m-1.86718-2.4375l.42578 1.14844m13.92969-1.67188l-7.01563.3789m7.01563-.3789l1.26953 2.10156m-2.28907-2.04687l1.26563 2.10156m13.05469-2.34375l-6.98828.75781m6.98828-.7578l1.3789 2.02734m-2.39453-1.91797l1.3789 2.02734m12.91407-2.39062l-6.91406 1.26171m6.91406-1.26171l1.52344 1.92578m-2.52735-1.74219l1.51953 1.92578m12.57813-2.84375l-6.47266 2.73438m6.47266-2.73438l1.90625 1.54688m-2.84766-1.14844l1.90625 1.54687m12-2.58593l-5.76953 4.01171m5.76953-4.01171l2.1836 1.12109m-3.02344-.53516l2.1836 1.1211m12.05468-1.58203l-5.9336 3.76562m5.9336-3.76562l2.13281 1.21093m-2.99609-.66406l2.13281 1.21094m12.20703-1.47266l-6.2578 3.1914m6.2578-3.1914l2.01172 1.41016m-2.92187-.94531l2.01172 1.40625m12.08593-2.09766l-6.0039 3.64844m6.0039-3.64844l2.10938 1.25m-2.98438-.72266l2.11328 1.25391m12.06641-1.80078l-5.98437 3.6875m5.98437-3.6875l2.11719 1.24219m-2.98828-.70704l2.11719 1.2422m11.99609-1.89063l-5.83594 3.91015m5.83594-3.91015l2.16406 1.16015m-3.01172-.58984l2.16016 1.16016m11.91797-1.85157l-5.66406 4.15625m5.66406-4.15625l2.21094 1.0625m-3.03516-.46093l2.21094 1.0664m11.66015-1.99219l-5.1289 4.8047m5.1289-4.8047l2.32032.79297m-3.06641-.09375l2.32031.79297m11.60156-1.63281l-4.85156 5.08203m4.85156-5.08203l2.36329.66406m-3.07032.07813l1.1836.33203m12.48437-1.36719l-4.14453 5.67188m4.14453-5.67188l2.42969.34766m-3.03125.47656l1.21484.17187m12.35157-1.22265l-3.44141 6.125m2.9375-5.23438l1.22656.02735m13.125-.55078l-4.50781 5.39062m4.50781-5.39062l2.40235.5078m11.35546-.0664l-5.39453 4.5039m5.39453-4.5039l2.27344.92578m11.26172-.6289l-5.83594 3.91406m5.83594-3.91406l2.16406 1.15625M426 451.11719l-4.76562 5.16406M426 451.11719l2.3711.6211m10.5078-.96485l-3.89452 5.84765m3.89453-5.84765l2.4414.2461m10.61719-.39845l-3.38281 6.15625m3.38281-6.15625l2.45313.03125m11.22656.19532l-4.10938 5.70312"/><g clip-path="url(#af)"><path fill="none" stroke="#000" stroke-linecap="round" stroke-linejoin="round" stroke-miterlimit="10" stroke-width=".5" d="M465.61719 450.84766l2.42969.33203"/></g><g clip-path="url(#ag)"><path fill="none" stroke="#000" stroke-linecap="round" stroke-linejoin="round" stroke-miterlimit="10" stroke-width=".5" d="M147.41406 441.21484l-6.82812-1.66015"/></g><path fill="none" stroke="#000" stroke-linecap="round" stroke-linejoin="round" stroke-miterlimit="10" stroke-width=".5" d="M147.41406 441.21484l.60938 2.375m12.70312-2.36718l-6.82422-1.6797m6.82422 1.6797l.60156 2.3789m12.67579-2.23437l-6.7461-1.96875m6.7461 1.96875l.49609 2.40234m-1.48047-2.6875l.25 1.20313m14.15625-1.41016l-6.96094-.98047m6.96094.98047l.83594 2.30469m-1.85156-2.44922l.42187 1.15234m13.9414-1.4375l-7.02734-.125m7.02735.125l1.11328 2.1875m-2.13672-2.20703l.5586 1.09375m13.69921-1.89062l-6.86328 1.5078m6.86328-1.5078l1.58985 1.87109m-2.58985-1.65234l.79688.9375m13.4961-1.23829l-6.82423 1.67579m6.82422-1.67579l1.63672 1.82813m-2.6289-1.58594l1.63671 1.82813m12.42578-2.76172l-6.33203 3.05469m6.33203-3.0547l1.97657 1.45313m-2.89844-1.0078l1.98047 1.45312m12.21484-1.98047l-6.2461 3.21875m6.2461-3.21875l2.01563 1.39843m-2.92578-.92968l1.0078.69922m13.21485-1.16797l-6.24219 3.22265m6.2422-3.22265l2.01952 1.39453m-2.92578-.92578l2.01563 1.39453m12.23437-1.8086L274 441.9375m6.30078-3.10938l1.99219 1.4336m-2.90625-.98047l1.98828 1.4336m12.0039-2.29298l-5.82812 3.92579m5.82813-3.92579l2.16797 1.15235m-3.01563-.58203l2.16797 1.15234m11.96094-1.77344l-5.75782 4.02344m5.75782-4.02344l2.1875 1.1172m-3.02344-.53126l1.08984.5586m13.35157-.64844l-6.33985 3.03125m6.33985-3.03125l1.97265 1.45703m-2.89453-1.01563l.98828.73047m13.42578-.72265l-6.69531 2.13671m6.69531-2.13671l1.75782 1.71484m-2.73047-1.40625l1.7539 1.71484m12.25782-2.66015l-6.14454 3.40625m6.14454-3.40625l2.05859 1.33593m-2.94922-.83984l1.02734.66797m12.6172-1.91797l-5.01954 4.91406m5.01953-4.91406l2.33985.74219m-3.07032-.02735l1.17188.3711m13.19922-.70313l-5.67188 4.14844m5.67188-4.14844l2.21093 1.07032m11.75.52734l-6.96093.95312m6.96093-.95312l1.4336 1.99219m-2.44531-1.85157l.71484.9961m13.34375-2.08203l-6.42578 2.84375m6.42578-2.84375l1.92969 1.51562m-2.86328-1.10156l.96484.75781m13.32422-1.07422l-6.50781 2.64844m6.5078-2.64844l1.88282 1.57422m11.38281-1.6914l-6.40625 2.88671m6.40625-2.88671l1.9414 1.5m10.9375-2.22266l-5.53515 4.33203m5.53516-4.33203l2.24219.99219m10.53906-1.53907l-4.46875 5.42579m4.46875-5.42579l2.40625.48829m11.4375.05078l-5.52344 4.34375"/><g clip-path="url(#ah)"><path fill="none" stroke="#000" stroke-linecap="round" stroke-linejoin="round" stroke-miterlimit="10" stroke-width=".5" d="M466.32422 438.21094l2.24219.98828"/></g><g clip-path="url(#ai)"><path fill="none" stroke="#000" stroke-linecap="round" stroke-linejoin="round" stroke-miterlimit="10" stroke-width=".5" d="M147.2539 428.39063l-6.5078-2.64454"/></g><path fill="none" stroke="#000" stroke-linecap="round" stroke-linejoin="round" stroke-miterlimit="10" stroke-width=".5" d="M146.3086 428.00781l.125 1.21875m13.89062-.34375l-6.01563-3.6289m6.01563 3.6289l-.13281 2.44922m13.6328-2.79687l-6.38671-2.9336m6.38672 2.9336l.14062 2.44922m13.33594-2.8711l-6.71094-2.08984m6.71094 2.08984l.45313 2.41016m13.01953-3.35156l-7.02344-.20704m7.02344.20704l1.08594 2.19921m11.98046-1.0039l-6.52734-2.59766m6.52734 2.59766l.26953 2.4414m13.29297-3.83593l-7.02343.1914m7.02343-.1914l1.21094 2.13672m12.09375-2.3125l-7.0039.54296m7.0039-.54297l1.3164 2.07032m-2.33593-1.99219l.66016 1.03516m13.64453-1.3711l-6.94531 1.0586m6.9453-1.0586l1.46876 1.96875m-2.47656-1.8164l.73046.98437m13.4297-1.78906l-6.6172 2.36328m6.6172-2.36328l1.8125 1.65234m-2.77345-1.3086l.90625.82813m13.33985-1.25l-6.5586 2.51953m6.5586-2.51953l1.85156 1.60938m-2.80469-1.24219l.92578.80469m13.35938-1.13281l-6.58984 2.4414m6.58984-2.4414l1.83203 1.6289m-2.79297-1.27344l.91797.81641m13.46875-.8086l-6.8125 1.71485m6.8125-1.71484l1.64844 1.82031m-2.64063-1.57031l.82422.91015m13.47656-1.1914l-6.80078 1.77734m6.80078-1.77734l1.66016 1.8086m-2.64844-1.54688l.82813.90234m13.55078-.78906l-6.95313 1.02734m6.95313-1.02734l1.45703 1.97656m-2.46875-1.82813l.72656.98829m13.40625-1.87891l-6.5625 2.51172m6.5625-2.51172l1.85157 1.61328m-2.8086-1.2461l.92578.8047m12.8086-2.11329l-5.48828 4.39453m5.48828-4.39453l2.25.97266m-3.05078-.33203l1.1289.48437m13.75 1.3086l-7.01172-.47266m7.01172.47266l1 2.24218m-2.02344-2.30859l.50391 1.11719m13.57031-2.64063l-6.48437 2.70703m6.48437-2.70703l1.89844 1.5547m11.67578-.47657l-7.0039.55078m7.0039-.55078l1.3164 2.07031m11.69532-3.25l-6.39453 2.91406m6.39453-2.91406l1.94531 1.49219m10.91016-2.23828l-5.47656 4.40234m5.47656-4.40234l2.2539.96875m10.59766-1.44532l-4.55078 5.35547m4.55078-5.35547l2.39453.52344m10.82422-.60156l-4.35937 5.51172m4.35937-5.51172l2.41406.4375m11.61329.32031l-5.78125 3.9961"/><g clip-path="url(#aj)"><path fill="none" stroke="#000" stroke-linecap="round" stroke-linejoin="round" stroke-miterlimit="10" stroke-width=".5" d="M466.45313 425.07031l2.17968 1.1289"/></g><g clip-path="url(#ak)"><path fill="none" stroke="#000" stroke-linecap="round" stroke-linejoin="round" stroke-miterlimit="10" stroke-width=".5" d="M145.88281 416.71875l-3.76562-5.9336"/></g><path fill="none" stroke="#000" stroke-linecap="round" stroke-linejoin="round" stroke-miterlimit="10" stroke-width=".5" d="M145.33594 415.85547l-.60547 1.0664m15.125-.74218l-5.08203-4.85547m5.08203 4.85547l-.66406 2.36328m14.33203-2.79688l-5.78906-3.98437m5.78906 3.98437l-.27735 2.4375m14.03516-3.32422l-6.67188-2.21484m5.69922 1.89453l.20703 1.21094m14.19922-2.63281l-6.91015 1.27344m5.90625-1.08985l.76172.96485m13.45703.53515l-6.70703-2.09765m5.73047 1.79296l.22656 1.20703m13.99219-.6914l-6.5625-2.51563m6.5625 2.51563l.30078 2.4336m13.23828-3.46485l-7.01172-.45703m7.01172.45703l1.00781 2.23828m12.30078-2.15234l-7-.625m7 .625l.95703 2.26172M253 413.97656l.48047 1.1289m13.86719-1.3203l-7.02735-.0625m7.02735.0625l1.1328 2.17968m-2.15233-2.1875l.5625 1.08594m13.6953-1.83984l-6.87109 1.46093m6.8711-1.46093l1.57812 1.8789m11.78125-1.6328l-6.96094.96874m6.96094-.96875l1.4414 1.98828m-2.45312-1.84765l.71875.99218m13.60938-1.1289l-6.96094.96093m6.96094-.96093l1.4375 1.98828m11.91015-1.57422l-7.02734.13281m7.02734-.13281l1.19141 2.14453m-2.21484-2.125l.59765 1.07031m13.73047-1.26953l-7.00781.48828m7.00781-.48828l1.30078 2.08203m11.91016-2.72265l-6.79688 1.77344m6.79688-1.77344l1.66406 1.80469m11.11719-2.95313l-5.73047 4.07031m5.73047-4.07031l2.1914 1.09766m11.50782-.40235l-6.4961 2.67969m6.4961-2.67969l1.89062 1.5625m-2.83593-1.17187l.9453.78125m13.39845-.94531l-6.66407 2.22656m6.66407-2.22656l1.77734 1.6875m-2.7461-1.36329l.88672.84375m13.5-.79296l-6.87109 1.47265m6.8711-1.47265l1.58203 1.8789m-2.58204-1.66406l.78907.9414m13.3164-1.80859l-6.45312 2.78125m6.45312-2.78125l1.91407 1.53125m-2.85157-1.1289l.95703.76953m13.29688-1.16797l-6.45703 2.77344m6.45703-2.77344l1.91406 1.53515m11.10938-2.07812l-5.8711 3.85937m5.8711-3.85937L442.01953 413m11.20313-1.11328l-5.95313 3.73047m5.95313-3.73047l2.1289 1.22656m11.28906-1.05078l-6.16015 3.3789m5.26562-2.88671l1.02735.67578"/><g clip-path="url(#al)"><path fill="none" stroke="#000" stroke-linecap="round" stroke-linejoin="round" stroke-miterlimit="10" stroke-width=".5" d="M144.71484 403.8789L143.28516 397"/></g><g clip-path="url(#am)"><path fill="none" stroke="#000" stroke-linecap="round" stroke-linejoin="round" stroke-miterlimit="10" stroke-width=".5" d="M144.50781 402.8789l-.94531.78126"/></g><path fill="none" stroke="#000" stroke-linecap="round" stroke-linejoin="round" stroke-miterlimit="10" stroke-width=".5" d="M158.91797 403.5625l-3.20703-6.25m3.20703 6.25l-1.39844 2.01563m14.44922-1.89063l-2.67578-6.4961m2.67578 6.4961l-1.5625 1.89063m17.03125-4.75782l-6.98438-.76562m5.96875.65625l.45313 1.13672m13.6289-2.76172l-6.48827 2.70312m5.54296-2.3086l.94922.77735m12.8164 2.36719l-5.5-4.3711m5.5 4.3711l-.4453 2.41406m-.35157-3.05078l-.22656 1.20703m14.6836-1.09375l-6.1875-3.32812m6.1875 3.32812l-.01172 2.45313m-.88672-2.9375l-.00781 1.22656m14.24218-.78125l-6.23047-3.25m6.23047 3.25l.01953 2.45703m-.92578-2.92969l.01953 2.45313m14.41797-2.48438l-6.66015-2.24218m6.66015 2.24218l.39844 2.42188m-1.36719-2.7461l.19922 1.20704m14.23047-1.4922l-6.95313-1.02343m6.95313 1.02344l.82422 2.3125m12.52734-2.79297l-7.02734-.0586m7.02734.0586l1.13281 2.17578m12.1836-2.17969l-7.02735-.05078m7.02735.05078l1.13672 2.17188m12.16406-2.48047l-7.0039.5625m7.0039-.5625l1.32422 2.0664m12-1.9453l-7.01953.3203m7.01953-.3203l1.25 2.11327m11.91015-3l-6.70703 2.09766m6.70703-2.09765l1.7461 1.72265m11.61328-1.5586l-6.80078 1.76563m6.80078-1.76562l1.66016 1.8086m10.61718 1.67577l-4.72265-5.20312m4.72265 5.20312l-.82812 2.3086m15.27734-5.28125l-6.98828.74218m6.98828-.74218l1.3711 2.03125m11.64453-3.11329l-6.39453 2.91016m6.39453-2.91015l1.94922 1.49218m-2.87891-1.07031l.97266.7461m13.4375-.73048l-6.72266 2.03125m6.72266-2.03125l1.73046 1.7422m-2.70703-1.44532l.86328.86719m13.52344-.76953l-6.91406 1.24218m6.91406-1.24218l1.51953 1.92968m11.75-2.14453l-6.82422 1.67578m6.82422-1.67578l1.63672 1.82813m11.73438-1.57031l-6.9336 1.15625m6.9336-1.15625l1.49218 1.94921m11.75391-2.26953l-6.79297 1.79688m6.79297-1.79688l1.66797 1.80078m11.53125-2.15625l-6.5625 2.51172"/><g clip-path="url(#an)"><path fill="none" stroke="#000" stroke-linecap="round" stroke-linejoin="round" stroke-miterlimit="10" stroke-width=".5" d="M466.84375 399.1836l1.84766 1.60937"/></g><g clip-path="url(#ao)"><path fill="none" stroke="#000" stroke-linecap="round" stroke-linejoin="round" stroke-miterlimit="10" stroke-width=".5" d="M141.84375 389.89453l4.3125-5.54297"/></g><path fill="none" stroke="#000" stroke-linecap="round" stroke-linejoin="round" stroke-miterlimit="10" stroke-width=".5" d="M157.5664 390.6289l-.5039-7.01171m.5039 7.01172l-2.07812 1.30468m2.0039-2.32421l-1.03905.65234m14.53906.35547l-.72266-6.98828m.72266 6.98828l-2.03516 1.3711m18.01172-3.07813l-6.04688-3.57422m5.16797 3.05469l-.05468 1.22656m14.375-.9375l-6.30078-3.11328m6.30078 3.11328l.07422 2.45312m-.9922-2.90625l.03907 1.22656m14.11328-.61718l-6.13672-3.42578m6.13672 3.42578l-.05078 2.45312m-.84375-2.94922l-.05078 2.45313m14.23828-1.92188l-6.09766-3.49609m6.09766 3.4961l-.07422 2.45312m-.8125-2.96094l-.07812 2.44922m14.23437-1.86328l-6.0039-3.65235m6.0039 3.65235l-.14062 2.44922m-.73047-2.98047l-.07422 1.22265m14.41797-.97656l-6.3164-3.08203m6.3164 3.08203l.08203 2.45313m13.53906-3.41016l-6.92969-1.16797m6.9297 1.16797l.77343 2.32813m12.47266-2.01172l-6.79297-1.80078m6.79297 1.80078l.55859 2.38672m12.8711-3.1172l-7.01954-.33983m7.01953.33984l1.04688 2.21875m12.24218-2.83985l-6.96875.90235m6.96875-.90235l1.42188 2m-2.4375-1.86718l.71094 1m13.5039-1.67188l-6.73828 1.98438m6.73828-1.98438l1.71875 1.75m-2.69922-1.46484l.85938.8789m13.54687-.65625l-6.96093.96485m6.96093-.96485l1.4375 1.98829m-2.44921-1.84766l.71875.99219m13.55468.125l-6.85547-1.55078m6.85547 1.55078l.64844 2.36719m-1.64453-2.59375l.32422 1.18359m14.0664-1.52344l-7.01171-.41797m7.01171.41797l1.02344 2.23047m-2.04297-2.29297l1.02344 2.23047m13.28516-2.86328l-6.96094.97265m6.96094-.97265l1.4414 1.98828m-2.45312-1.84766l1.4414 1.98829m12.78907-2.59375l-6.76563 1.90625m6.76563-1.90625l1.69531 1.76953m-2.67969-1.4922l.84766.88282m13.51953-.86328l-6.90234 1.3086m6.90234-1.3086l1.53516 1.91797m-2.53907-1.72656l.76953.95703m13.5586-1.10938l-6.91797 1.23047m6.91797-1.23047l1.51172 1.92969m11.83984-1.66406l-6.99219.69922m6.9922-.69922l1.35937 2.04297m11.94921-2.09766l-6.98046.8086m6.98046-.8086l1.39454 2.01953m11.91015-2.10156l-6.96094.97265m6.96094-.97265l1.4414 1.98828m11.90626-1.53906l-7.02735.07422"/><g clip-path="url(#ap)"><path fill="none" stroke="#000" stroke-linecap="round" stroke-linejoin="round" stroke-miterlimit="10" stroke-width=".5" d="M467.07422 387.08594l1.17578 2.15625"/></g><g clip-path="url(#aq)"><path fill="none" stroke="#000" stroke-linecap="round" stroke-linejoin="round" stroke-miterlimit="10" stroke-width=".5" d="M141.48828 376.26563l5.02344-4.91407"/></g><path fill="none" stroke="#000" stroke-linecap="round" stroke-linejoin="round" stroke-miterlimit="10" stroke-width=".5" d="M156.23047 377.14844l2.17187-6.6836m-2.17187 6.6836l-2.41797.42578m15.95313-.35938l1.72656-6.8125m-1.72656 6.8125l-2.38282.58204m2.63672-1.57422l-1.1914.29296m16.90625.31641l-3.57813-6.04687m3.57813 6.04687l-1.27735 2.09375m15.76563-3.22656l-5.92578-3.78125m5.92578 3.78125l-.19532 2.44531m-.66797-2.9961l-.09765 1.22266m13.74219-.02343l-4.85547-5.07813m4.85547 5.07813l-.76953 2.32812m.0625-3.0664l-.76954 2.32812m14.6875-1.49219l-4.64843-5.27344m4.64843 5.27344l-.86718 2.29688m.1914-3.0664l-.4336 1.14843m14.85157-.83203l-5.5039-4.36719m5.5039 4.36719l-.44531 2.41406m-.35547-3.05078l-.22266 1.20703m14.84375-1.4375l-6.51562-2.63281m6.51562 2.63281l.25782 2.4375m13.02734-2.36719l-6.45313-2.77344m6.45313 2.77344l.20313 2.44531m-1.14063-2.84765l.10156 1.22265m14.14844-.80859l-6.44531-2.80078m6.44531 2.80078l.1914 2.44922m-1.1328-2.85547l.09765 1.22266m14.39453-1.60547l-6.92187-1.21875m6.92187 1.21875l.75781 2.33203m-1.76562-2.50781l.76172 2.33203m13.60156-3.08594l-7 .63672m7-.63672l1.34375 2.05469m-2.36328-1.96094l1.34375 2.05469m12.9414-2.48828l-6.90234 1.32031m6.90235-1.32031l1.53906 1.91406m-2.54297-1.72266l1.53906 1.91407m12.79297-2.03907l-6.92578 1.1875m6.92578-1.1875l1.5 1.9375m-2.50781-1.76562l1.5 1.9414m12.84765-1.92187l-6.98046.80469m6.98046-.80469l1.39454 2.01953m-2.41016-1.90234l1.39453 2.01953m-2.41016-1.90235l.69922 1.00782m14.66016-1.13672l-7.0039.58984m7.0039-.58984l1.32812 2.0625m-2.34765-1.97656l1.32812 2.0625m-2.34765-1.97657l.66406 1.03125m14.67578-1.32421l-6.97656.83593m6.97656-.83594l1.40234 2.01563m-2.41796-1.89453l1.40234 2.01562m-2.41406-1.89453l.69922 1.00781m14.59765-1.53125l-6.88672 1.39844m6.88672-1.39844l1.5625 1.89454m-2.5625-1.69141l1.5586 1.89453m-2.5625-1.6914l.78125.94921m14.55078-1.29296l-6.91016 1.27343m6.91016-1.27344l1.52734 1.91797m-2.53125-1.73437l1.52344 1.92187m12.77344-2.21093l-6.8672 1.48437m6.8672-1.48437l1.58593 1.875m-2.58593-1.66016l1.58593 1.875m12.76172-1.9375l-6.92969 1.17969m6.9297-1.17969l1.49609 1.9414m-2.50391-1.76952l.7461.97265m13.58984-1.03906l-6.95703.96875m6.95703-.96875l1.4414 1.98437m-2.45312-1.84375l.71875.9922m13.5-1.63673l-6.74219 1.97656m6.74219-1.97656l1.71484 1.7539m11.6875-1.39452l-6.91406 1.25781m5.90625-1.07422l.76172.96094"/><g clip-path="url(#ar)"><path fill="none" stroke="#000" stroke-linecap="round" stroke-linejoin="round" stroke-miterlimit="10" stroke-width=".5" d="M141.15625 362.55469l5.6875-4.1211"/></g><path fill="none" stroke="#000" stroke-linecap="round" stroke-linejoin="round" stroke-miterlimit="10" stroke-width=".5" d="M155.71094 363.61719l3.21094-6.25m-3.21094 6.25l-2.45313.03515m2.91797-.9414l-1.22656.01562m15.2461 1.2539l.86718-6.97265m-.86719 6.97266l-2.28906.875m2.41797-1.89063l-1.14844.4375m14.9375.60157l-.33594-7.01954m.33594 7.01954l-2.10937 1.2539m2.05859-2.27734l-1.05078.6289m17.0625-1.01171l-5.625-4.21094m5.625 4.21094l-.3789 2.42578m12.76562-1.5664l-3.77344-5.9297m3.77344 5.9297l-1.20703 2.13671m.66015-3l-1.21094 2.13672m15.44141-1.54297l-4.50781-5.39063m4.50781 5.39063l-.92187 2.27344m.26562-3.0586l-.46094 1.13672M240 362.6211l-5.58984-4.2578M240 362.62108l-.39453 2.42188m-.41797-3.03906l-.19922 1.21093m14.76953-1.35937l-6.47656-2.72656m6.47656 2.72656l.22266 2.44531m-1.16406-2.83984l.22265 2.4414m14.02735-2.03125l-6.46094-2.7578m6.46094 2.7578l.21093 2.44532m-1.15234-2.84375l.21094 2.4414m14.1836-2.42187l-6.73829-2m6.73828 2l.48828 2.40625m-1.46875-2.69531l.48828 2.40234m-1.46875-2.69531l.2422 1.20312m15.16015-1.26562l-6.99219-.70704m6.99219.70704l.92969 2.26953m-1.94532-2.375l.92578 2.27344m-1.9453-2.375l.46484 1.13671m14.90234-1.39843l-7.02344.22656m7.02344-.22656l1.22265 2.1289m-2.24609-2.09375l1.22266 2.125m-2.24219-2.09375l1.21875 2.1289m14.10547-2.5703l-6.95703.97656m6.95703-.97656l1.4414 1.98828m-2.45312-1.84375l1.4414 1.98437m-2.45312-1.84375l1.4414 1.98438m13.8047-2.72266l-6.76954 1.88281m6.76954-1.8828l1.6914 1.77733m-2.67578-1.5039l1.6875 1.77734m-2.67578-1.5039l.84765.89062m14.51563-1.09375l-6.92188 1.19922m6.92188-1.19922l1.5039 1.9375m-2.51171-1.76562l1.5039 1.9414m-2.51171-1.76562l.7539.96875m14.61719-1l-7.0039.5664m7.0039-.5664l1.32422 2.0664m-2.34375-1.98437l1.32422 2.0664m-2.34375-1.98437l.66406 1.03516m14.67578-1.35157l-6.97266.8711m6.97266-.8711l1.41016 2.00391m-2.42579-1.8789l1.41016 2.0078m-2.42578-1.8789l.70703 1m14.52735-1.79688l-6.75 1.95313m6.75-1.95313l1.70703 1.76172m-2.69141-1.47656l1.71094 1.76172m-2.6914-1.47656l.85546.8789m14.44922-1.35156l-6.80078 1.75781m6.80078-1.7578l1.66015 1.8125m-2.64843-1.5547l1.65625 1.8086m-2.64453-1.55469l.82812.90625m14.47656-1.3711l-6.82812 1.66798m6.82812-1.66797l1.63282 1.83203m-2.625-1.58985l1.6328 1.83204m12.62892-2.2422l-6.73438 2m6.73438-2l1.72265 1.75m-2.70312-1.45702l1.72265 1.74609m-2.70312-1.45703l.86328.875m14.41015-1.46094L433.56642 361.5m6.73046-2.01172l1.72657 1.7461m-2.70313-1.45313l1.72266 1.7461m12.4336-2.41407l-6.46094 2.75781m6.46093-2.7578l1.91016 1.54296m-2.84766-1.14063l1.91016 1.53907m12.1914-2.25781l-6.15625 3.39062"/><g clip-path="url(#as)"><path fill="none" stroke="#000" stroke-linecap="round" stroke-linejoin="round" stroke-miterlimit="10" stroke-width=".5" d="M466.64063 358.79688l2.05468 1.34375"/></g><g clip-path="url(#at)"><path fill="none" stroke="#000" stroke-linecap="round" stroke-linejoin="round" stroke-miterlimit="10" stroke-width=".5" d="M140.48828 347.10547l7.02344.14453"/></g><path fill="none" stroke="#000" stroke-linecap="round" stroke-linejoin="round" stroke-miterlimit="10" stroke-width=".5" d="M154.76172 349.59375l5.10547-4.82813m-5.10547 4.82813l-2.32422-.78516m3.0664.08204l-2.32421-.78516m16.85156 2.53515l1.19922-6.92578m-1.19922 6.92579l-2.33203.76562m2.50781-1.77344l-2.33203.76563m16.0625.29297l.01563-7.02735m-.01563 7.02735l-2.17188 1.14843m2.17188-2.17187l-2.16797 1.14844m17.05469-.4922l-3.1289-6.29296m3.1289 6.29297l-1.42578 1.9961m.97265-2.91016l-.71484.99609m14.28516.00781l-2.73047-6.47265m2.73047 6.47265l-1.54688 1.90625m1.14844-2.84765l-1.54688 1.90234m16.73047-2.125l-5.67578-4.14453m5.67578 4.14453l-.34375 2.42969m-.48047-3.03125l-.34765 2.42578m14.97265-2.7461l-6.64062-2.29687m6.64062 2.29688l.37891 2.42187m-1.34766-2.75781l.38282 2.42578m13.8828-2.03906l-6.60546-2.40235m6.60547 2.40235l.33984 2.42968m-1.30078-2.77734l.33984 2.42969m-1.30078-2.78125l.16797 1.21484m15.02344-.39844l-6.51563-2.63671m6.51563 2.63671l.2539 2.44141m-1.20312-2.82422l.2539 2.4414m-1.20312-2.82421l.1289 1.21875m15.25-.98047l-6.84765-1.58203m6.84766 1.58203l.63672 2.3711m-1.63281-2.60157l.63671 2.3711m-1.6328-2.60157l.3164 1.1875m15.05078-1.0664l-6.96875-.90235m6.96875.90235l.86719 2.29687m-1.87891-2.42969l.86328 2.29688m-1.8789-2.42578l.86328 2.29687m14.5078-2.40625l-7.02343-.16015m7.02344.16015l1.10156 2.1914m-2.125-2.21483l1.10547 2.1914m-2.125-2.21484l1.10156 2.1914m14.24219-2.54687l-6.9961.64453m6.9961-.64453l1.34766 2.05469m-2.36328-1.96094l1.34375 2.05469m-2.36329-1.96094l.67188 1.02734m14.57031-1.8164l-6.78125 1.84765m6.78125-1.84765l1.67969 1.78906m-2.66406-1.51953l1.67968 1.78906m-2.66796-1.51953l.83984.89453m14.48437-1.28906l-6.85156 1.5586m6.85156-1.5586l1.60157 1.85937m-2.59766-1.63281l1.60156 1.85938m12.79688-1.41407l-7.02735.21485m7.02735-.21485l1.21484 2.1289m-2.23828-2.09765l1.21875 2.1289m13.09375-2.48046l-6.97656.85547m6.97656-.85547l1.40625 2.01172m-2.42187-1.88672l1.40625 2.01172M371.8125 347l.70313 1.0039m14.5625-1.6875l-6.8125 1.72266m6.8125-1.72265l1.64843 1.8164m-2.64062-1.5664l1.64844 1.8164m-2.64063-1.5664l.82422.91015m14.44922-1.50781l-6.76172 1.91797m6.76172-1.91797l1.69922 1.76953m-2.6836-1.49219l1.69922 1.77344m-2.6836-1.49219l.85157.88282m14.44531-1.39844l-6.78515 1.83203m6.78515-1.83203l1.67578 1.79297m-2.66406-1.52344l1.67578 1.78906m-2.66406-1.52344l.83984.89454m14.36329-1.70704l-6.60938 2.39063m6.60938-2.39063l1.8203 1.64454m-2.78124-1.29688l1.8164 1.64453m-2.78125-1.29687l.91016.82031m14.30078-1.58984l-6.55078 2.53515m6.55078-2.53515l1.85938 1.60546m-2.8125-1.23828l1.85547 1.60547m-2.8086-1.23437l.92969.80078m14.20703-1.74219l-6.38281 2.9414m6.38281-2.9414l1.95313 1.48438m-2.88282-1.0547l1.95313 1.48438m-2.8789-1.05859l.97655.74219m14.19532-1.59766l-6.38282 2.9414"/><g clip-path="url(#au)"><path fill="none" stroke="#000" stroke-linecap="round" stroke-linejoin="round" stroke-miterlimit="10" stroke-width=".5" d="M466.7539 345.70703l1.95313 1.48828"/></g><g clip-path="url(#av)"><path fill="none" stroke="#000" stroke-linecap="round" stroke-linejoin="round" stroke-miterlimit="10" stroke-width=".5" d="M465.82422 346.13672l1.95312 1.48437"/></g><g clip-path="url(#aw)"><path fill="none" stroke="#000" stroke-linecap="round" stroke-linejoin="round" stroke-miterlimit="10" stroke-width=".5" d="M140.53516 334.4375l6.92968-1.14844"/></g><path fill="none" stroke="#000" stroke-linecap="round" stroke-linejoin="round" stroke-miterlimit="10" stroke-width=".5" d="M154.27734 335.6289l6.07813-3.53124m-6.07813 3.53125l-2.08593-1.29688m2.96875.78125l-1.04297-.64844m14.73828 2.4297l3.55078-6.0625m-3.55078 6.0625l-2.45313-.10157m2.96875-.78125l-2.45312-.09766m17.16406 1.46094l-.27344-7.02344m.27344 7.02344l-2.1211 1.23438m2.08204-2.25782l-2.1211 1.23828m16.46485-.39843l-2.2539-6.65625m2.2539 6.65625l-1.67969 1.78515m1.35156-2.7539l-1.67968 1.78515m15.85547-1.04687l-3.31641-6.19531m3.3164 6.1953L210.8672 339m.88281-2.9414l-1.36328 2.03906m.88281-2.94141l-.6836 1.01953m15.45313.46875l-4.29687-5.5625m4.29687 5.5625l-1.01172 2.23438m.38672-3.04297l-1.01172 2.23437m.38672-3.04687l-.5039 1.1211m14.5078.85155l-3.17577-6.26562m3.17578 6.26562l-1.41016 2.00782m.94922-2.91797l-1.41406 2.00781m.95312-2.92188l-.70703 1.00391m15.9414.0664l-5.17187-4.7578m5.17188 4.7578l-.61719 2.375m14.65234-3.5625l-6.60937-2.38671m6.60938 2.38672l.34765 2.42969m-1.3086-2.77344l.34766 2.42578m-1.30859-2.77344l.17188 1.21485m15.21875-1.08985l-6.91407-1.25m6.91407 1.25l.74609 2.33985m-1.7539-2.51954l.74609 2.33594m-1.75-2.51953l.37109 1.16797m15.00781-1.53516l-7.02344.21094m7.02344-.21094l1.21875 2.1289m-2.23828-2.09765l1.21485 2.1289m13.09375-2.51562l-6.96875.92188m6.96875-.92188l1.42578 1.9961m-2.44141-1.86328l1.42578 1.99609M320.58984 333.5l-6.98828.72266m6.98828-.72266l1.3711 2.03906m-2.38672-1.9336l1.36719 2.03907m12.8789-2.6289L327 334.71092m6.82031-1.6953l1.64063 1.82421m-2.63281-1.57812l.8203.91406m13.58985-.42578l-7.02344.22656m7.02344-.22656l1.22266 2.1289m-2.2461-2.09765l.61329 1.0664m13.71875-.77343l-7.01172-.42188m7.01171.42188l1.01954 2.23437m-2.03907-2.29296l1.01954 2.23046m13.26562-3.01562l-6.91406 1.26562m6.91406-1.26562l1.52344 1.92187m-2.53125-1.73828l1.52734 1.92188m12.57031-2.85547l-6.46093 2.76562m6.46093-2.76562l1.91016 1.53515m-2.85156-1.1328l.95703.76952m13.57422-.04687l-7.01172.51562m7.01172-.51562l1.30469 2.07812m-2.32422-2.0039l.65234 1.03906m13.6875-1.02344l-7.01953.33594m7.01953-.33594l1.2539 2.10938m-2.27734-2.0625l.6289 1.05469m13.6172-1.7422l-6.83985 1.6172m6.83985-1.6172l1.62109 1.84376m-2.61719-1.60938l1.6211 1.84375m12.46093-2.7461l-6.3789 2.95313m6.3789-2.95312l1.95313 1.48437m-2.88281-1.05468l1.95703 1.48437m-2.88281-1.05469l.97656.7422m14.15625-1.6797l-6.30078 3.10938m6.30078-3.10938l1.99219 1.4336m-2.91016-.98047l1.99219 1.4336m-2.91016-.98048l.9961.71485m14.03515-1.84375l-6.0625 3.55469"/><g clip-path="url(#ax)"><path fill="none" stroke="#000" stroke-linecap="round" stroke-linejoin="round" stroke-miterlimit="10" stroke-width=".5" d="M466.59375 332.08594l2.08984 1.28515"/></g><g clip-path="url(#ay)"><path fill="none" stroke="#000" stroke-linecap="round" stroke-linejoin="round" stroke-miterlimit="10" stroke-width=".5" d="M465.71094 332.60156l2.08984 1.28906"/></g><g clip-path="url(#az)"><path fill="none" stroke="#000" stroke-linecap="round" stroke-linejoin="round" stroke-miterlimit="10" stroke-width=".5" d="M140.79297 321.98438l6.41406-2.8711"/></g><path fill="none" stroke="#000" stroke-linecap="round" stroke-linejoin="round" stroke-miterlimit="10" stroke-width=".5" d="M154.75781 322.95703l5.11328-4.82031m-5.11328 4.82031l-2.32422-.78515m16.72266 1.5664l2.94531-6.3789m-2.94531 6.3789l-2.44922.13672m2.8789-1.0664l-2.44921.14062m16.625 1.10937l.36719-7.01953m-.3672 7.01953l-2.22265 1.03516m2.27735-2.0586l-2.22266 1.03907m17.03906-.29297l-2.7461-6.46875m2.7461 6.46875l-1.54297 1.90625m1.14453-2.84766l-1.54687 1.90625m1.14844-2.84765l-.77344.95312m15.21094.77344l-3.39453-6.15234m3.39453 6.15234l-1.33985 2.05469m.84375-2.94922l-1.33984 2.05469m.84766-2.94922l-1.33985 2.05469m15.88281-.41016l-3.875-5.86328m3.875 5.86328l-1.17187 2.15234m.60938-3.00781l-1.17188 2.15625m.60547-3.00781l-1.17188 2.15625m16.05078-.79297l-4.74609-5.17969m4.7461 5.17969l-.81641 2.3125m.1289-3.0664l-.8203 2.3164m.1289-3.07031l-.82031 2.3164m15.875-1.1914l-5.46875-4.41407m5.46875 4.41407l-.46485 2.41015m-.32812-3.05078l-.46485 2.41016m-.33203-3.05469l-.46484 2.41016m15.72266-1.64844l-6.17188-3.36328m6.17188 3.36328l-.02735 2.45312m-.8711-2.9453L266 324.1953m-.875-2.94531l-.01172 1.22656m15.46485-1.14844l-6.85157-1.55859m6.85156 1.5586l.64063 2.36718m-1.64063-2.59375l.64454 2.36719m13.75-3.11719l-7.01563.39063m7.01563-.39063l1.27343 2.09766m-2.29296-2.03906l1.26953 2.09765m13.05078-2.34375l-6.98438.76563m6.98438-.76563l1.38281 2.02735m-2.39844-1.91407l.6914 1.01172m13.65235-.96875l-7.01172.45703m7.01172-.45703l1.28907 2.08594m-2.3086-2.01953l.64453 1.04297M333.88281 320l-6.9414 1.09375M333.8828 320l1.47266 1.96094m-2.48438-1.80078l.73829.98046m13.6289-.66406l-7.02344.14453m7.02344-.14453l1.19531 2.14063m12.07032-2.66406l-6.92578 1.1875m5.91796-1.01563l.75.97266m13.07813-2.4297l-5.9375 3.75782m5.07422-3.21094l1.0664.60938m12.97657-1.35547l-5.66407 4.15625m5.66407-4.15625l2.21093 1.0664m11.78125 1.16798l-7.01953-.3086m6 .26172l.52735 1.10938m10.45703 2.29296l-.32031-7.01953m.27343 5.9961l-1.05468.625m17.73437-3.6211l-6.95312 1.01563m19.78906-2.33594l-5.9961 3.66016m5.125-3.12891l1.0547.625m13.27734-.89844l-6.28516 3.14453m6.28516-3.14453l1.99609 1.42188m-2.91016-.96485l1.9961 1.42188m11.76172-2.58985l-5.34375 4.56641"/><g clip-path="url(#aA)"><path fill="none" stroke="#000" stroke-linecap="round" stroke-linejoin="round" stroke-miterlimit="10" stroke-width=".5" d="M466.23438 318.26563l2.28125.89843"/></g><path fill="none" stroke="#000" stroke-linecap="round" stroke-linejoin="round" stroke-miterlimit="10" stroke-width=".5" d="M465.45703 318.92969l2.28125.89844"/><path fill="#ff3030" fill-rule="evenodd" d="M286.85156 458.77344h7.6914V448.625h-7.6914v10.14844"/><path fill="azure" fill-rule="evenodd" d="M288.6836 450.45703h.83202v5.74219h3.19532v.73828h-4.02735v-6.48047"/><path fill="#ff3030" fill-rule="evenodd" d="M366.74219 445.45703h7.6914V435.3125h-7.6914v10.14453"/><path fill="azure" fill-rule="evenodd" d="M368.57422 437.14453h.83203v5.73828h3.19531v.74219h-4.02734v-6.48047"/><path fill="#ff3030" fill-rule="evenodd" d="M295.72656 418.82813h7.69531v-10.14844h-7.6953v10.14844"/><path fill="azure" fill-rule="evenodd" d="M297.5586 410.51172h.83593v5.74219h3.1914v.73828h-4.02734v-6.48047"/><path fill="#00f" fill-rule="evenodd" d="M228.45703 414.38672h8.6211v-10.14453h-8.6211v10.14453"/><path fill="azure" fill-rule="evenodd" d="M230.28906 406.07422h.83594v2.82422h3.28516v-2.82422h.83203v6.48047h-.83203v-2.91406H231.125v2.91406h-.83594v-6.48047"/><path fill="#ff3030" fill-rule="evenodd" d="M198.08203 405.51172h7.69531v-10.14453h-7.6953v10.14453"/><path fill="azure" fill-rule="evenodd" d="M199.91797 397.19922h.83203v5.73828h3.19531v.74219h-4.02734v-6.48047"/><path fill="#ff3030" fill-rule="evenodd" d="M215.83594 374.4414h7.69531v-10.14452h-7.69531v10.14453"/><path fill="azure" fill-rule="evenodd" d="M217.67188 366.1289h.83203v5.7422h3.1914v.73827h-4.02344v-6.48046"/><path fill="#ffffe0" fill-rule="evenodd" d="M384.08203 450.125h22.17969v-10.1914h-22.17969v10.1914"/><path fill-rule="evenodd" d="M387.58203 441.76563h.50781v6.29687h-.78906v-4.49219h-1.38672v-.55469l.5586-.0625.2539-.05468.23047-.08985.20313-.14062.17187-.21094.14453-.29297.10547-.39844m4.8125 0l.23047.01954.21875.05468.20703.08985.19531.1211.1836.15233.17187.17579.30078.41796.2461.4922.17969.54687.10937.57812.03906.59375-.03906.59375-.10938.58203-.17968.5547-.2461.5039-.30078.42578-.17187.17969-.1836.15234-.1953.125-.20704.08984-.21875.0586-.23047.01953-.23047-.01953-.21875-.0586-.20703-.08984-.19531-.125-.1875-.15234-.16797-.1797-.30469-.42577-.24219-.5039-.17968-.5547-.11328-.58203-.03516-.59375h.83203l.02735.5625.08203.5039.1289.44532.16016.375.1914.30078.21094.21875.22266.13672.22656.04688.22656-.04688.22266-.13672.21094-.21875.1914-.30078.16016-.375.1289-.44531.07813-.5039.03125-.5625-.03125-.5625-.07812-.5-.12891-.4336-.16016-.36719-.1914-.29297-.21094-.21484-.22266-.1289-.22656-.04688-.22656.04687-.22266.1289-.21094.21485-.1914.29297-.16016.36719-.1289.4336-.08204.5-.02734.5625h-.83203l.03516-.59376.11328-.57812.17969-.54688.24218-.49219.30469-.41796.16797-.17579.1875-.15234.19531-.1211.20703-.08984.21875-.05468.23047-.01954m5.08985 0h.51171v6.29688h-.78906v-4.49219h-1.38672v-.55469l.5586-.0625.2539-.05468.22656-.08985.20313-.14062.17578-.21094.14063-.29297.10546-.39844m2.82422 2.17579h.78907l.01953-.31641.0586-.28516.09765-.2539.14062-.21485.17969-.17187.22656-.1289.26172-.08204.3086-.02734.23828.02344.22265.0625.20703.10156.1797.13672.14843.17187.11328.20703.07031.23828.02344.26172-.01953.26953-.0664.22266-.10938.19531-.15625.16797-.19922.16406-.25.16407-.63281.39062-.53516.3125-.4375.3164-.34766.32423-.26562.33593-.1875.35157-.125.37109-.07031.39063-.01954.42187h4.21094v-.74219h-3.33203l.08203-.28125.11328-.23828.14844-.20312.1875-.1797.23047-.17187.27734-.17578.71875-.41406.41407-.20703.34765-.23047.28125-.25.21875-.26953.16406-.27735.10938-.28515.0664-.28516.01954-.28125-.04297-.38281-.1211-.34766-.1875-.30468-.25-.26563-.30468-.21094-.34375-.16015-.38281-.09766-.40625-.03515-.4336.03515-.39844.09766-.35546.16797-.3047.23437-.24609.30078-.1875.375-.11718.44531-.03907.51954"/><path fill="#ffffe0" fill-rule="evenodd" d="M266.29297 430.23047h22.17969v-10.1914h-22.1797v10.1914"/><path fill-rule="evenodd" d="M269.79297 421.8711h.50781v6.29687h-.78906v-4.49219H268.125v-.55469l.5586-.0664.2539-.05078.23047-.08985.20312-.14453.17188-.20703.14062-.29688.10938-.39453m4.8125 0l.23047.01954.21875.05468.20703.08985.19531.12109.1836.14844.17187.17578.30078.42187.2461.4922.17968.54687.10938.57812.03906.58985-.03906.59375-.10938.58593-.17969.55469-.24609.5-.30078.42969-.17188.17969-.18359.15234-.19531.125-.20703.08984-.21875.0586-.23047.01953-.23047-.01953-.21875-.0586-.20703-.08984-.19531-.125-.1875-.15235-.16797-.17968-.30469-.42969-.24219-.5-.17969-.55469-.11328-.58594-.03515-.59375h.83203l.02734.56641.08203.5039.12891.44141.16016.375.1914.30079.21094.22265.22266.13672.22656.04688.22656-.04688.22266-.13672.21094-.22265.1914-.30079.16016-.375.125-.4414.08203-.5039.03125-.56642-.03125-.55859-.08203-.5-.125-.4375-.16016-.36328-.1914-.29297-.21094-.21484-.22266-.13281-.22656-.04297-.22656.04296-.22266.13282-.21094.21484-.1914.29297-.16016.36328-.1289.4375-.08204.5-.02734.5586h-.83203l.03515-.58985.11329-.57812.17968-.54688.24219-.49219.30469-.42187.16797-.17578.1875-.14844.1953-.1211.20704-.08984.21875-.05469.23047-.01953m5.08984 0h.51172v6.29688h-.78906v-4.49219h-1.38672v-.55469l.5586-.0664.2539-.05078.22656-.08985.20313-.14453.17578-.20703.14062-.29688.10547-.39453m2.82422 2.17579h.78906l.01954-.31641.05859-.28516.09765-.2539.14063-.21485.17969-.17578.22265-.1289.26563-.07813.3086-.02734.23827.01953.22266.0625.20703.10156.17969.14063.14844.17187.11328.20703.07031.23438.02344.26562-.01953.26953-.06641.22266-.10938.1914-.15625.17188-.19921.16406-.25.16406-.63282.39063-.53906.3125-.4375.3164-.34375.32423-.26562.33593-.1875.35156-.12891.3711-.0664.39062-.01954.42188h4.21094v-.74219h-3.33203l.08203-.28515.11328-.23438.14844-.20313.1875-.17968.23047-.17188.27734-.17578.71875-.41797.41406-.20312.34766-.23047.28125-.2539.21875-.26563.16406-.27735.10938-.28515.0625-.28516.02344-.28125-.04297-.38281-.1211-.34766-.1875-.3086-.25-.26171-.30469-.21484-.34375-.15625-.3828-.09766-.40626-.03516-.4336.03125-.39843.10157-.35547.16406-.30469.23437-.24609.3047-.1875.375-.11719.4453-.03906.51954"/><path fill="#ffffe0" fill-rule="evenodd" d="M235.22266 473.02734h22.17968v-10.1914h-22.17968v10.1914"/><path fill-rule="evenodd" d="M238.72266 464.66797h.5078v6.29687h-.78515v-4.48828h-1.39062v-.5586l.5625-.0625.25-.05468.23047-.08984.20312-.14063.17578-.21094.14063-.29296.10547-.39844m4.8125 0l.23047.01953.21875.0586.20703.08593.19922.1211.18359.15234.17187.17578.30078.41797.2422.49219.17968.54687.11328.58203.03906.58985-.03906.59375-.11328.58203-.17969.55469-.24219.5039-.30078.42578-.17187.17969-.1836.15234-.19921.125-.20703.09375-.21875.0547-.23047.01952-.22657-.01953-.21875-.05469-.21093-.09375-.19532-.125L242.5 470.75l-.17188-.17969-.30078-.42578-.24609-.5039-.17969-.5547-.10937-.58202-.03906-.59375h.83203l.03125.5625.08203.5078.125.44142.16406.375.1875.30078.21094.21875.22265.13671.22657.04688.22656-.04688.22266-.13671.21093-.21875.1914-.30079.16407-.375.125-.4414.08203-.50781.02735-.5625-.02735-.5625-.08203-.5-.125-.4336-.16406-.36719-.1914-.29296-.21095-.21485-.22265-.1289-.22656-.04688-.22657.04688-.22265.1289-.21094.21485-.1875.29296-.16406.3672-.125.43359-.08203.5-.03125.5625h-.83203l.03906-.58985.10937-.58203.17969-.54687.2461-.4922.30077-.41796.17188-.17578.1836-.15235.1953-.12109.21094-.08594.21875-.05859.22657-.01953m5.09375 0h.5078v6.29687h-.78515v-4.48828h-1.39062v-.5586l.5586-.0625.2539-.05468.23047-.08984.20312-.14063.17188-.21094.14453-.29296.10547-.39844m2.82422 2.17578h.78515l.01953-.3164.0586-.28516.10156-.2539.13672-.21485.1836-.17188.22265-.1289.26562-.08204.3086-.02734.23828.02344.22265.0625.20313.10156.17969.13672.14843.17188.11328.20703.07032.23828.02734.26172-.02344.26953-.0664.22656-.10938.1914-.15625.16798-.19922.16406-.24609.16797-.63281.38671-.53906.3125-.4375.31641-.34766.32422-.26172.33594-.1914.35156-.125.3711-.07032.39452-.01953.41797h4.21094v-.74218h-3.33203l.08203-.28125.11328-.23829.14844-.20312.1875-.17969.23047-.17187.28125-.17578.71484-.41407.41797-.20703.34375-.23047.28125-.25.21875-.26953.16406-.27734.11328-.28125.0625-.28516.01953-.28125-.04297-.38672-.11718-.34765-.19141-.30469-.25-.26563-.30078-.21093-.34766-.16016-.3789-.09765-.40625-.03516-.4375.03515-.39844.09766-.35156.16797-.3047.23438-.25.30468-.18358.3711-.1172.44921-.03905.51563"/><path fill="#ffffe0" fill-rule="evenodd" d="M328.42969 363.48047h22.17969v-10.1914h-22.1797v10.1914"/><path fill-rule="evenodd" d="M331.92969 355.1211h.50781v6.29687h-.78516v-4.48828h-1.39062v-.5586l.5586-.0625.2539-.05468.23047-.08985.20312-.14062.17188-.21094.14453-.29297.10547-.39844m4.8125 0l.23047.01954.21875.05859.20703.08594.19531.12109.1836.15234.17187.17579.30469.41796.24218.4922.1797.54687.10937.58203.03906.58984-.03906.59375-.10938.58203-.17969.55469-.24218.5039-.3047.42579-.17187.17969-.18359.15234-.19531.125-.20703.09375-.21875.05469-.23047.01953-.23047-.01953-.21875-.0547-.20703-.09374-.19531-.125-.1836-.15235-.17187-.17968-.3047-.42578-.24218-.50391-.17969-.55469-.10937-.58203-.03906-.59375h.83203l.02734.5625.08203.50781.1289.44141.16017.375.1914.30078.21094.21875.22265.13672.22657.04688.22656-.04688.22266-.13672.21093-.21875.19141-.30078.16016-.375.1289-.4414.07813-.50782.03125-.5625-.03125-.5625-.07813-.5-.1289-.4336-.16016-.36718-.1914-.29297-.21094-.21484-.22266-.1289-.22656-.04688-.22656.04687-.22266.1289-.21094.21485-.1914.29297-.16016.36719-.1289.4336-.08204.5-.02734.5625h-.83203l.03906-.58985.10937-.58203.1797-.54688.24218-.49219.30469-.41796.17187-.17579.1836-.15234.1953-.1211.20704-.08593.21875-.0586.23047-.01953m5.08984 0h.51172v6.29688h-.78906v-4.48828h-1.38672v-.5586l.5586-.0625.2539-.05468.22656-.08985.20313-.14062.17578-.21094.14062-.29297.10547-.39844m6.80469 1.6211h-.78516l-.05078-.21094-.08203-.1875-.10938-.16016-.1289-.1289-.14844-.10156-.16015-.07422-.16797-.04688-.17188-.01562-.32812.04296-.28516.1172-.2461.1953-.20312.26954-.16406.33984-.11328.40234-.07031.46875-.02344.52344.1875-.19922.1875-.16015.1836-.1211.1875-.08984.1875-.0625.1914-.03516.40234-.02344.30469.03125.32031.08985.3164.15625.29688.21875.2539.28515.19923.35157.07422.19922.05078.21875.03125.23437.0039.25-.78906.04688-.02734-.25782-.07813-.2539-.1211-.23438-.16015-.20703-.1914-.17969-.22266-.13671-.23828-.08985-.2539-.03125-.25782.03125-.23828.08985-.22266.13671-.1914.1797-.16016.20702-.1211.23438-.07812.2539-.02734.25782.02734.2578.07813.25.12109.23829.16016.20703.1914.17969.22266.13672.23828.08594.25781.03125.2539-.03125.23829-.08594.22266-.13672.1914-.17969.16016-.20703.1211-.23828.07812-.25.02734-.25781.78906-.04688-.03125.3711-.09375.37109-.15625.35937-.22265.32813-.28906.28125-.17188.1211-.1875.10156-.20703.08203-.22266.0625-.24219.03906-.2578.01172-.28516-.01563-.26172-.04687-.23438-.07813-.21875-.10156-.1914-.13281-.17579-.15625-.15234-.17969-.13672-.20313-.11719-.22265-.09765-.24219-.14844-.53515-.08594-.59375-.02734-.64063.03906-.74219.11719-.66406.1836-.57813.12109-.2539.13672-.23047.15234-.20703.17188-.17969.1875-.15625.19921-.1289.21875-.10157.23438-.07422.2461-.04687.26171-.01563.36719.03516.33203.09766.29688.14843.2539.19922.21094.24219.16797.27344.11328.30469.0625.3203"/></g></defs><use xlink:href="#aB"/></svg>