<svg xmlns="http://www.w3.org/2000/svg" role="img" xmlns:xlink="http://www.w3.org/1999/xlink" viewBox="142.45 309.95 326.84 171.84"><defs><clipPath id="a"><path d="M144 311.67188h1v168.65625h-1zm0 0"/></clipPath><clipPath id="b"><path d="M144 311.67188h324v168.65625H144zm0 0"/></clipPath><clipPath id="c"><path d="M467 311.67188h1v168.65625h-1zm0 0"/></clipPath><clipPath id="d"><path d="M144 479h4v1.32813h-4zm0 0"/></clipPath><clipPath id="e"><path d="M153 479h9v1.32813h-9zm0 0"/></clipPath><clipPath id="f"><path d="M160 480h3v.32813h-3zm0 0"/></clipPath><clipPath id="g"><path d="M159 480h2v.32813h-2zm0 0"/></clipPath><clipPath id="h"><path d="M166 479h9v1.32813h-9zm0 0"/></clipPath><clipPath id="i"><path d="M173 480h3v.32813h-3zm0 0"/></clipPath><clipPath id="j"><path d="M180 479h8v1.32813h-8zm0 0"/></clipPath><clipPath id="k"><path d="M187 480h2v.32813h-2zm0 0"/></clipPath><clipPath id="l"><path d="M193 479h9v1.32813h-9zm0 0"/></clipPath><clipPath id="m"><path d="M200 480h3v.32813h-3zm0 0"/></clipPath><clipPath id="n"><path d="M199 480h2v.32813h-2zm0 0"/></clipPath><clipPath id="o"><path d="M206 479h9v1.32813h-9zm0 0"/></clipPath><clipPath id="p"><path d="M213 479h3v1.32813h-3zm0 0"/></clipPath><clipPath id="q"><path d="M212 480h2v.32813h-2zm0 0"/></clipPath><clipPath id="r"><path d="M220 479h8v1.32813h-8zm0 0"/></clipPath><clipPath id="s"><path d="M227 479h2v1.32813h-2zm0 0"/></clipPath><clipPath id="t"><path d="M226 479h2v1.32813h-2zm0 0"/></clipPath><clipPath id="u"><path d="M233 479h8v1.32813h-8zm0 0"/></clipPath><clipPath id="v"><path d="M240 479h3v1.32813h-3zm0 0"/></clipPath><clipPath id="w"><path d="M246 479h9v1.32813h-9zm0 0"/></clipPath><clipPath id="x"><path d="M253 479h3v1.32813h-3zm0 0"/></clipPath><clipPath id="y"><path d="M260 479h8v1.32813h-8zm0 0"/></clipPath><clipPath id="z"><path d="M267 479h3v1.32813h-3zm0 0"/></clipPath><clipPath id="A"><path d="M273 479h8v1.32813h-8zm0 0"/></clipPath><clipPath id="B"><path d="M280 479h3v1.32813h-3zm0 0"/></clipPath><clipPath id="C"><path d="M286 479h9v1.32813h-9zm0 0"/></clipPath><clipPath id="D"><path d="M293 479h3v1.32813h-3zm0 0"/></clipPath><clipPath id="E"><path d="M300 479h8v1.32813h-8zm0 0"/></clipPath><clipPath id="F"><path d="M306 479h4v1.32813h-4zm0 0"/></clipPath><clipPath id="G"><path d="M313 478h8v2.32813h-8zm0 0"/></clipPath><clipPath id="H"><path d="M320 478h3v2.32813h-3zm0 0"/></clipPath><clipPath id="I"><path d="M327 478h7v2.32813h-7zm0 0"/></clipPath><clipPath id="J"><path d="M333 478h3v2.32813h-3zm0 0"/></clipPath><clipPath id="K"><path d="M340 478h7v2.32813h-7zm0 0"/></clipPath><clipPath id="L"><path d="M354 477h6v3.32813h-6zm0 0"/></clipPath><clipPath id="M"><path d="M369 476h3v4.32813h-3zm0 0"/></clipPath><clipPath id="N"><path d="M381 477h5v3.32813h-5zm0 0"/></clipPath><clipPath id="O"><path d="M396 476h2v4.32813h-2zm0 0"/></clipPath><clipPath id="P"><path d="M409 476h3v4.32813h-3zm0 0"/></clipPath><clipPath id="Q"><path d="M420 477h7v3.32813h-7zm0 0"/></clipPath><clipPath id="R"><path d="M435 476h4v4.32813h-4zm0 0"/></clipPath><clipPath id="S"><path d="M449 476h2v4.32813h-2zm0 0"/></clipPath><clipPath id="T"><path d="M462 476h3v4.32813h-3zm0 0"/></clipPath><clipPath id="U"><path d="M144 465h4v4h-4zm0 0"/></clipPath><clipPath id="V"><path d="M144 453h4v2h-4zm0 0"/></clipPath><clipPath id="W"><path d="M144 439h4v3h-4zm0 0"/></clipPath><clipPath id="X"><path d="M465 437h3v2h-3zm0 0"/></clipPath><clipPath id="Y"><path d="M144 425h4v4h-4zm0 0"/></clipPath><clipPath id="Z"><path d="M144 410h2v8h-2zm0 0"/></clipPath><clipPath id="aa"><path d="M144 416h2v4h-2zm0 0"/></clipPath><clipPath id="ab"><path d="M144 396h1v9h-1zm0 0"/></clipPath><clipPath id="ac"><path d="M144 402h1v2h-1zm0 0"/></clipPath><clipPath id="ad"><path d="M465 397h3v2h-3zm0 0"/></clipPath><clipPath id="ae"><path d="M144 383h2v8h-2zm0 0"/></clipPath><clipPath id="af"><path d="M144 371h4v5h-4zm0 0"/></clipPath><clipPath id="ag"><path d="M144 359h4v3h-4zm0 0"/></clipPath><clipPath id="ah"><path d="M466 358h2v3h-2zm0 0"/></clipPath><clipPath id="ai"><path d="M144 346h4v2h-4zm0 0"/></clipPath><clipPath id="aj"><path d="M466 345h2v4h-2zm0 0"/></clipPath><clipPath id="ak"><path d="M144 332h4v3h-4zm0 0"/></clipPath><clipPath id="al"><path d="M466 332h2v3h-2zm0 0"/></clipPath><clipPath id="am"><path d="M465 332h3v3h-3zm0 0"/></clipPath><clipPath id="an"><path d="M144 319h4v3h-4zm0 0"/></clipPath><clipPath id="ao"><path d="M466 318h2v2h-2zm0 0"/></clipPath><g id="ap" clip-path="url(#clip1)"><path fill="#fff" fill-opacity="0" fill-rule="evenodd" d="M0 0h1000v1000H0zm0 0"/><path fill="#d3d3d3" fill-opacity="0" fill-rule="evenodd" d="M162.15234 355.86719l-.23437.29297.0586.23437.11718.17188.17578.23437.29297.34766.11328.0586.11719-.17188.0586-.23438.17577-.17578.46485-.17578h.69922l.23437.29297.28906.8164.0586.17579.17578.23046.35156.23438.69922.69922.17188.17578.23437.34765.23438.41016.28906.58203.41015.46485.23047.23437.23438.17578.11719.23047.17578.29297.17187 1.16406v.23438l.0586.28906.05859.11719.11719.11719.34765.41015.11719.17188.17578.17578.17578.23437.11719.17188.17188.35156.05859.23438.23437.40625.23438-.0586-.17578.17578-.0586.92969h-.58203l-.23437-.11328-.34766.11328-.11719.11719-.05859.29297-.0586.17578-.11718.17187-.46484.29297-.0586.23438-.0586.11328v.64453l.0586.17187v.41016l.0586.0586v.40624l.05859.40625.11719.17579.05859.05859.23047.64062-.0586.29297v.69922l-.05859.58203v.23438l-.0586.23047-.05468.35156v1.92187l.05469.1172h.42578l-.36719.11718-.02344.35156.89063 1.16797 1.74219.53906 1.33984.35938v.53906l.08984.8086.53516.71484 1.51953.26953.89063-.08594.08984 1.16406.53516.1797 1.16015-.1797 2.05469-.98437 1.16016-.36328 1.8789-.17578 1.69531-.1797-.17968.71876-1.51563.08594-1.25.08984-.80469.26953-1.07421.8086.26953.71875.53515.89843-.17968.625-.26563.8086.26563 1.07812.625.89844.80468.17969 1.25-.1797-.26562.72267.09766.5039.05468.29297v.17188l.0586.29296v.40625l.17578.1172.35156.11718h.40625l.29297-.17578.11328-.11719.0586-.11719.11718-.23047.0586-.17578.35156-.46484.23047-.17578.17578-.0586.17578.0586.0586.17578.11718.98828.05469.46875.0586.17188.11718.23437.17578.0586.8164.05859h.28907l.11719.23437.05859.40625.0586.35156v1.10547l.11718.29297.11719.34766.28906.69922.17578.35156.58203.7539.35157.17579.17187.0586.46875.23437.64063.46484.34765.23438.29297.17578.29297.05468.23047.0625.8164.34766.29297.17578.11328.17188.35157.35156.11719.17578.52343.64063v.28906l.0586.35156v.34766l.05859.35156.0586.28906.11718.0586.17188.05859h.17578l.58203.23437.17578.1172.17578.28905.17578.23438.11328.23437.29297.23047.11719.11719v.41016l.0586.05468.28906.23438.23437.11719.0586.11718.11718.17188.0586.11719.23047.23437.05859.17578.23437.0586.1172.05859-.1172.11328-.05859.11719v.11719l-.11719.29296-.11719.28907v.58203l.17579.11719.11718.05859.0586.11719.11719.11719.11328.05859.17578.34765.0586.35157.05858.40625v.17578l-.05859.17578-.11719.69922v.17187l.1172.17579.29296.29296h.40625l.17578.1172.11719.17187.11719.29296v.23438h-.52735l-.23047-.23438h-.23437l-.17578.0586-.0586.69922.0586.34765.11719.17579.17578.41015.11718.23047.28907.46875.17578.05469h.52344l.23437.0586.75781.64062.0586.29296v.23438l.05859.0586.23047.34765v.35156l-.11719.17188v.29297l.29297.28906.29297.17578.17187.0586.29297.17577.29297.1172.58203.40624.28906.23438.29297.17578.21875.16015.01563.01172.23047.17579.64062.52343.17578.23438.1172.17578.17577.17578.11328.17188v.64062l.1172.17578.46874.11719.58203.11719.23438.05859.23047.11328.29297.11719.11328.0586.58593.35156.28907.17187.17578.0625.17578.05469.17578.0586.69922.35155.28906.17579.23438.05468.28906.17578.23437.1172.64063.40624.29297.11719.17187.0586.23438.05859.41015.05859.23047.0586.23438.11718.0586.17188-.41017.17578.46875.0586.0586.29296.11328.23438.17578.05468.23438.0586.17578.05859.40625.11719.64062.23437.11719.17188.0586.23437v.17578l-.0586.1172-.0586.40624.23438.23438.11719.05859.34766.11719.64062.23047.17578.11718.28906.1172.17578.17577.23438.46485.58203 1.10546.17578.17579.34766.17578.17578.11719.35156.11718 1.04688.52344.23437.0586.46485.11327.29297.0586.46484.17578.75781.58203.23438.23438.34765.46484.17578.17578.28907.23438.8164.69921.29297.17579.28906.28906.29297.17578.29297.28906.69531.64063.17578.17578.29297.23437.28907.23438.46875.28906.64062.58203.34766.23438.23437.29297.34766.34765.35156.46485.9336.99218.34765.40625.11719.17579.23437.05859.11328.11719.64454.17578.23047.11328.23437.0586.29297.17577.23047.1172.9336.69921.40624.40625.23438.17578.40625.17578.23437.11719.8164.34766.34766.23437.23438.11719.29297.28906.23047.11719.7578.35156.35157.17188.23047.05859.29297.11719.23437.0586.8711.17577h.8164l.46875.23047.17188.0586.875.69921.46484.1172.29297.05858.17578.0586.23047.0586.46875.05859.34766.05859.35156.0586.40625.05859h.29297l.17187.0586v.23046l.17578.17578h.29297l.34766.0586.35156.05859.69922.11719h.64063l.46484-.23438.29297-.17578.17187-.11719.41016-.17187.28906-.17578.9336-.46485.46875-.29297.52343-.29296.46485-.17188.46484-.17578 1.05078-.46485.28906-.11718.41016-.11719.28906-.11719.52735-.17578 1.51562-.69922.58203-.34765.28907-.0586.29297-.0586.34765-.11718.875-.23047.35156-.11719h.11329l.23437-.05859.875-.23437.23438-.0586h.8125l.35156-.0586.8164-.11718.17188-.0586.35156-.05468.29297-.0586.23047-.05859.8164-.17578.17579-.0586h.34765l.23438-.05859.46484-.11718.75781-.17188.23438-.0586h.34765l.41016-.11718.28906-.0586 1.28516-.05859h.28906l.41016-.0586.23047-.05858h.17578l.875-.1172h.40625l.41015-.11718h.34766l.35156-.11328.8711-.0586h1.75l1.04687.28907.41016.11719.28906.11718.35156.11719.28907.11719 1.05078.17187.28906.0586h.29297l.29297.05859.17187.0586.41016.05859.17187.0586.1172.05858h.11718l.11719.0586.35156.0586h.11328l.41016.0664 1.92187.39453 1.92578.39453 1.51953.44922 1.69532.71875 2.14453.80469 1.60547-.71875 1.42968-.80469 1.16016-1.07813 1.25-.44921 3.03516-.71875 1.875-.35938 2.14453-1.34765 2.23437-1.25391 2.5-1.25781 1.69531-.44922 1.78516-.17969 1.16016-.26953.625.53906 1.33984-.26953.71485-.98828.98437-1.34375.44531-.17969.80469-.35937 1.875-.53907 1.78516-.44921 1.25-.26954 1.16015-.08984 1.69922-.08984 1.96094-.26954 1.25-.08984h.53906l.625-.08984h.89063l2.14453-.17969 2.41015-.17969 2.58985-.08984 1.69531.17969 1.60938.08984 1.42968.35938 1.16016.71875 1.875.98828 1.16015 1.52734.26563.71484.6289.08985.35548.89844.53515.53906.53516 1.52734 1.07422.35938h.53515l-.80469.53515.08985 1.70703.71484 2.69532.89063.80468.89453.98829.71484 1.2578 1.78516.53907 1.51953-.17969.35547 1.34375 1.60937-.80469.98047-.53906.26953.26953.31641-.21484.21875-.14453.80078.44922.44922-.35938h.35547l.53515-.26953.53907-.71875.53515-.26953.625-.98828 1.16016.44922.83984.3711 1.39454.61718 1.6953-.17969h1.60548l1.78515.08985.17969-1.70704.53516-1.34375.80468.26954.4922.84765.40233.40625-.08984.53906v.35938l.71485.44922.71093-.26953h1.42969l.35938.98828.4453 1.25781.71485 1.34375 1.25.6289 1.69531.62891.71485-.17969.17969-.53906.98046-.08984.44922.35937.08594 1.25782-.26563.6289-.53515.17969v.53906l.71484.98438.26563.53906.98437.98828.80078 1.07813-.26562.35937-.08985.89844-.625 2.33203-.35546 2.0664-.08985 1.79298-.17969.71875-.08984.53906v1.4375l-.98047 1.88281-.35937 1.70703-.53516.89844-.80469 1.16797-.26562.53906 2.05469 1.2539.08593.35938-.35546.53906-.08985-.17968v.80859l.08985 1.4375-.44532.71484-1.07422.09375-.26562.71485.53515.89844.8047.71875 1.16015.80859 1.33984.26953.44531.35938-.35546.44921-1.78907-.08984-1.25-.44922-.71484-.71875-.625-.08984-.17578 3.58984-.1875 1.3086h89.35937V311.70313h-55.26953v49.08203l.76172.125 3.28906.54296 2.02344 2.83594v2.7539l2.35156.33204 2.34766.33203h4.05078l-1.3789 4.16016-2.02344.70703-2.02344.70312-.54297.34375-2.59375 1.6172-.1875.11718-2.02344-2.07813-.73046-2.74218-2.67188-2.07813-1.375-3.5-.0664-.08203-1.95704-2.67188 2.75-1.41796v-49.08204H294.42187v91.41407l.1172.03125.1328.01172.07422.07421.10547.04688.08985.0586.08593.05859.08985.0586.29687.29687.0586.08984.03125.11719.02734.11719.01563.13671-.03125.1172-.0586.08983-.0586.08594-.04296.10547-.04688.10156-.02734.1211v.14453l.17578.26953.14844.14844.07422.08594.07422.07421.04296.10547.0625.08985.0586.08593.04297.10547.0586.08985.04687.10156.04296.10547.0586.08594.11719.17968.07421.07422.0625.08594.0586.08984.04297.10547.0586.08985.05858.08593.0625.08985.0586.08984.04297.10156.11719.17969.07421.07422.0586.08594.07422.07421.08984.0586.10547.04687h.14844l.1328-.01562.13282.01562.10156-.04687.07422-.07422.04688-.10156-.01563-.13281v-.14844l-.04687-.10547-.02735-.11719-.04687-.10156-.02735-.1211-.04296-.10156-.0625-.08984-.04297-.10156-.04297-.10547-.03125-.11719-.01563-.13281-.01171-.13672.08593-.0586.0586-.08593.12109-.03125.04297.10547.01562.1328v.1172l.0586.10156.0586.08984.08983.0586.14844.14843.0586.08985.04296.10547-.01171.10156.08593.0586.10547.04687.08594.0586.08984.05858.07422.07422-.11719.02735-.10546.04687-.08594.0586-.07422.07421-.0586.08985-.0625.08594-.02734.12109-.04687.10156-.04297.10547-.03125.11719-.01172.13281-.01563.13281v.14844l.02735.11719.04687.10547.04297.10156.0586.08984.07421.07422.08985.0586.07422.07421.08984.0586.0586.08984.04296.10547.04688.10156.11719.03125.1328.01563h.14845l.11718-.03125.10547.04297.04297.10547.04688.10156.02734.1211L299.5 410l.02734.11719.03125.1211.02735.11718.10547.04297.10156.04687.13281-.01562.14844.14844.0625.08593.07422.07422.07031.07422.08984.0625.10547.04297.10156.04297.1172.03125.13671.01562.11719-.03125.07422-.07422.02734-.11718-.01172-.13282-.03125-.12109-.02734-.11719.04297-.10547h.11719l.08984.0625.11719.02735h.14843l.13282.01562h.14843l.13282.01563.1328-.01563h.14845l.1328-.01562.13282-.01172.13672.01172.11719-.02735.13281-.01562.1914-.0586-.05859.17579-.01562.1328-.02735.1211-.01562.13281-.0586.08594-.1328.01563-.10548.04687-.10546.04297-.1172.03125-.11718.02735-.26563.03125h-.14843l-.13281.01562-.07422.07422.05859.08594.14844.14843.11719.1797.07421.0703.08985.0625.08984.0586.08594.0586.08984.05858.10156.04297.10547.0625.10547.04297.08594.0586.10547.04687.10156.04297.17969.11719.0586.08984-.04298.10156-.04687.10547.01562.13281.22266.22266.0586.08985.04296.10156.03125.1211.04297.10155.01563.13282.03125.11718.01171.13672.03125.11719.14844.14844.10156.04297.10547.04296.1172.03125.1328.01563.13672.01563h.11719l.11719-.03125.08984-.0586.04297-.10547.04688-.10156.04296-.10547.03125-.11719.01172-.1328v-.14845l-.01172-.1328-.01562-.13282-.03125-.11719-.04297-.10547-.04688-.10547-.04296-.10156-.04297-.10547-.01563-.13281.01563-.13281.02734-.11719.03125-.11719.02735-.1211.04687-.10155.08984-.0586.08594-.0625.07422-.07422.08984-.05859.22266-.22266.0586-.08593.07421-.07422.11719-.17969.0586-.08594v-.14844l-.07423-.07421-.10156-.04688-.10547-.04297-.10156-.04297-.0586-.08984-.04687-.10547-.02734-.11719.08984-.05859.11719-.03125.10156-.04297.17969-.11719.14844-.14843.01172-.13282-.01172-.10546-.08985-.0586-.1328.01563h-.14845l-.1328.01562-.13282-.01562-.1211-.03125-.08593-.0586-.07422-.07422-.0586-.08984-.0625-.08594-.11718-.17969-.0586-.08593.03125-.1211.08594-.05859.1211-.03125.05859-.08594v-.1211l-.03125-.11718-.0586-.08984-.05859-.08594-.04687-.10547-.02735-.11719-.01562-.1328.0586-.08985.07421-.07422.08984-.0586.1172-.17968.07421-.07422.0586-.08594.14843-.14844.1211-.03125.1328-.01562.13282.01562.07422.07422.04297.10547.01562.13281-.03125.1172-.11719.03124-.1328.01172-.14844.14844-.04297.10547-.04688.10156-.02734.1211-.03125.11718v.14844l.03125.11719.04297.10546.05859.08985.07422.07031.07422.07422.11719.03125.12109.02734.11719-.02734.1328-.01563h.1172l.08984.0586.07422.07422.04687.10546.0586.08594.10156.04688.13281.01562.10547.04297.08594.0586-.01172.10546-.07422.07422-.17969.11719-.05859.08984-.08984.0586-.07032.07422-.07421.07421-.0625.08985-.02735.11719-.01562.1328.01562.13282-.01562.13281v.14844l.01562.13281.02735.1172.03125.12108.07421.07422.08985.0586.08594.0586.08984.05858.11719.03125v.08594l-.10157.04688-.08984.0586-.26563.03124-.11718.02735h-.14844l-.10547.04296-.10156.04688-.0586.08984-.0625.23438-.01171.13281-.03125.1211-.01563.1328v.29298l-.01172.1328.01172.13673.01563.1328.1328.01563.13282.01172.1211.03125.08593.0586.07422.07421.04688.10547.04296.10157.01563.1328v.44532l-.01563.13281v.44532l.03125.26562.02735.11719.01562.13281.03125.11719.08594.21094.03125.26562v.14844l-.03125.11719-.02734.11718-.03125.1211-.02735.11719-.03125.11718-.03125.1211-.01171.1328-.01563.13282.08984.0586.1172-.03125.10155.01562.04688.10547-.03125.26562v.44141l-.04297.10547-.04688.10547-.04296.10156-.04297.10547-.0586.08594-.03125.12109-.04296.11719-.03125.11719-.01563.1328.01563.13282.05859.08984.10547.04688.08594.0586.05859.08593-.01172.13672-.03125.11719-.04297.10156v.44531l-.01562.13281v.14844l-.03125.11719-.04297.10547-.02735.11719-.04687.10546-.04297.10157-.03125.12109-.02734.11719-.03125.13281-.03125.11719-.02735.11719-.04297.10546-.03125.1172-.03125.12108-.01171.13282-.01563.13281v.29688l.02734.11718v.14844l.04688.39844.02734.11719.0586.08984.12109.03125h.14844l.13281-.01563.0586.08985v.11719l-.0586.08984-.08984.0586-.10157.04296-.10546.04688-.08985.05859-.08594.0586-.13671.01562-.1172-.03125-.1328-.01563-.10157.04688-.0625.08594-.01172.13671-.01562.13282-.03125.11719-.02735.11718-.01562.13281-.03125.1211v.29687l.01563.13282.03125.11718v.14844l.01171.13281v.14844l-.02734.11719-.04688.10156-.02734.1211-.03125.11718-.0586.08985-.07421.07421-.10156.04297-.10547.04688-.11719.02734-.1211.03125-.10156-.04687.0586-.08594.10547-.04688.02734-.11718.03125-.11719.02734-.1211.03125-.11718v-.14844l.01563-.13281-.03125-.11719-.04297-.10547-.10547.01563-.07422.07422-.10156.04296-.08984.0625-.07422.07422-.04297.10157-.01563.1328-.03125.1172L304.25 426l-.03125.11719-.02734.11719-.03125.12109-.02735.11719-.03125.11718-.04297.10547-.08984.0586h-.08984l-.1172-.03125-.03124-.08594.01562-.13672-.03125-.11719v-.14844l-.01171-.1328v-.14844l-.0625-.23438-.02735-.1211-.04297-.10156-.04687-.10546-.0586-.08594-.05859-.08985-.04297-.10546-.0625-.08594-.14844-.14844-.0703-.07422-.10548-.04687-.10547-.04297-.10156-.04297-.29687-.29688-.08985-.07421-.08594-.0586-.10546-.04297-.08985-.0625-.08594-.0586-.10546-.04296-.08985-.0586-.08594-.0625-.07421-.0703-.10547-.04688-.08594-.0586-.10547-.04296-.08984-.0625-.10156-.04297-.10547-.04297-.08594-.0586-.10547-.04687-.10547-.04297-.10156-.04687-.08985-.0586-.10156-.04297-.10547-.04296-.08984-.0625-.11719-.02735-.13281-.01562-.13281.01562H299.75l-.13281.01563-.11719-.03125-.08984-.0586-.07422-.07422-.08985-.05859-.10156-.04688h-.14844l-.12109-.02734-.10156-.04297-.07422-.07422-.11719-.17968-.08984-.0586-.10156-.04297-.08985-.0625-.10547-.04296-.08984-.0586-.08594-.0586-.10547-.04687-.0586-.08594-.05858-.08984-.04297-.10547-.04688-.10156-.07422-.07422-.08594-.0586-.07421-.07421-.08985-.0586-.22265-.22265-.04297-.10547-.03125-.26563.10547-.04296h.14453l.10547.04296.07421.07422.08985.0586.08594.0586.10546.04687.08985.05859.14844.14844.0703.07422.14845.14843.0625.08594.07421.07422.08594.0586.07422.07421.08985.0625.08984.0586.08594.05859.26953.17578.10156.04688.10547.04296.10156.04297.04688-.07421.05859-.08594.07422-.07422.07031-.07422.10547.04297.07422.07422.0586.08984.04296.10156.04688.10547.04296.10547.1211.02735.11719-.02735.07421-.08984.04297-.10547.0586-.08985.07422-.07421.10546-.04297.1172-.02735.1328.01172.08985.0586.14844.14843.05859.08985.04297.10547.04687.10156.04297.10547.04297.10156.10547.04688.10547.04296.13281.01563.08594-.0586.0586-.08984.07421-.07422.10547-.04297.11719.02735.10547.04687.10156.04297.10547.04297.10156.04688.17969.11718v.11719l-.01563.13281.01563.13281.01562.13672.0586.08594.10156.04688.1211.02734.11718.03125h.14844l.11719-.03125.05859-.08984.17969-.1172.05859-.08983.07422-.07422.0586-.08594.11718-.17969.17969-.11719.11719.03125.08984.0586.04297.07422-.01563.1328v.1172l.08985.05859h.14843l.13282-.01563.1328-.01171.26563-.03125.10547-.04297.11719-.03125.1211-.02735.07421-.07421.07031-.07422.0625-.08985-.01562-.10547-.04688-.10156-.10156-.04297-.10547-.01562-.11718.02734-.26563.03125h-.14844l-.07421-.07422-.08985-.0586-.11719-.03124-.11718-.02735-.13282-.01562h-.14843l-.13282.01563h-.29687l-.10547-.04688-.14844-.14844-.04297-.10156-.05859-.08984.22266-.22266.08593-.0586.10547-.04296.11719-.03125.13281-.01563.13281.01563.13672.01562.10157.04297.1328-.01172.08985-.0625.10156-.04297.0625-.08984-.04687-.10156-.08984-.0586-.1172-.03125-.10155-.04296-.0586-.08985-.0625-.08984v-.11719l.01563-.13281.10547-.04688.07421-.07031v-.1211l-.08984-.05859-.03125-.11719.08985-.05859.07421-.07422.04297-.10547.0586-.08984.04687-.10156.01563-.13281v-.14844l-.04688-.10547-.04297-.10156-.08984-.0586-.13281-.01562-.10157-.04297-.13671-.01563-.1172-.03125h-.4453l-.13282-.01562-.13281-.01172-.13281-.01563-.11719-.03125h-.14844l-.13281-.01562-.13281-.01172-.26563-.03125-.1211-.04297-.08593-.0586-.07422-.07421v-.14844l.01172-.13281.10547-.04688.10156-.04296.13281-.01563h.15235l.13281-.01562h.29297l.1211.03125.10156.04296.08984.0586.23438.0625.12109-.04688.08984-.05859.10156-.04297.13282-.01562.10547.04296.10156.04688.13281.01172.1211-.02735h.14453l.12109-.03125.11719-.02734.10547-.04687.07421-.07422.08594-.0586.14844-.14843.0586-.08594.04687-.10547.02734-.11719.01563-.10547-.10156-.04296-.08985-.0586-.11719-.03125-.10546-.04297-.08985-.0625-.07422-.08594-.07422-.07421-.10156-.04297-.10547-.04688-.10156-.04297-.0586-.08984-.04687-.10156-.08594-.21094-.0625-.08594-.05859-.08984-.07422-.07422-.08594-.0586h-.26953l-.11719.03126-.08984.05859-.10156.04297-.13281.01562-.10547-.01562-.02735-.11719-.0625-.08984-.11718-.03125-.10157-.04297-.14843-.14844-.03125-.11719-.01563-.10546.07422-.07422.17969-.1172.11719-.02733.11718-.03125.13672.01562.10156.04297.10547.04297.10156.04687.10547.04297.1172.03125.1328.01563.1172.02734.1328.01563.10547-.01563.08985-.0586-.07422-.07421-.10547-.04297-.07422-.07422-.07422-.08984-.14844-.14844-.08593-.0586-.08985-.05859-.07422-.07422-.08984-.0586-.10156-.04687-.1211-.02734-.10156-.04688-.10547-.04296-.11719-.03125-.10156-.04297-.1211-.03125h-.14843l-.11719.03125-.10546.04297-.08594.0625-.17969.11718-.08594.0586-.08984.0586-.10547.04687-.08594.05859-.10547.04297-.10156.04297-.10547.04687-.07422.07422-.05859.08985-.0586.08593-.04687.10547-.0586.08594-.07421.07422-.13281-.01172-.1172-.03125h-.11718l-.07422.07422-.08984.0586-.07422.07421-.08984.0586-.08594.05859-.10547.04687-.10156.04297-.13672.01563-.10156-.04297-.14844-.14844-.10547-.04688h-.08594l-.10547.04688-.10156.04297-.1211.03125-.11718-.03125-.07422-.07422v-.11719l.03125-.1211.07422-.0703.0586-.08985.07421-.07422.11719-.03125.10547-.04296h.29297l.13281-.01563.13672-.01563.10156-.04296.08985-.0586.10156-.04687.08984-.0586.13281-.01171.08985.05859.13281.01172.08984-.0586.08594-.05859.10547-.04297.08984-.0586.08594-.0625.08985-.05859.14843-.14843.0586-.08594.05859-.08985.10547-.04296.13281-.01563.11719.02735.1211.03125.05859-.0586.05859-.08984.03125-.26563.02734-.11719.10547.01172.13281.01563.10157-.04297.08984-.0586.0586-.08984.07421-.07422.0586-.08984.04687-.10156.01172-.13281-.01172-.13282-.04687-.10547-.14844-.14843-.0586-.08985-.05859-.08594-.04297-.10546v-.44532l.01563-.1328v-.14845l.01172-.1328-.0586-.0586-.08984.0586-.10156-.04298-.17969-.11719-.08594-.05859-.0625-.08984-.0586-.08985-.07421-.07421-.08594-.0586-.1211.03125-.10155.01172-.10547.04688-.08594.05859-.10547.04297-.14844.14844-.08984.05859-.08594.0586-.08984.0625-.10547.04296-.13281.01563v-.1211l.10547-.04297.11718-.03125.07422-.0703.04297-.10548v-.14844l-.02734-.11718-.14844-.14844-.13281-.01563h-.14844l-.11719.03125-.10547.04297-.10156.04297-.08984.0625-.11719.02735-.07422-.07422.01172-.13281-.04297-.10157-.04297-.10547-.08984-.05859-.11719.02734-.1211.03125-.11718.03125-.10156.04297-.1211.03125-.10156.04297-.10547.04297-.08984.0586-.10156.01562v-.11719l.01562-.13281-.0586-.08985-.07421.04297-.14844.14844-.0586.08985-.07421.07421-.04688.10547-.04296.10156-.07422.07422-.0586.08985-.07422.07422-.05859.08593-.07422.07422-.08984.0625-.07422.07031-.07422.07422-.10156.01563-.13281.01562-.10547-.04296v-.1211l.14843-.14844.04297-.10156.0586-.08984.04687-.10156.04297-.10547.0586-.08985.03124-.11719.04297-.10156.03125-.1211.02735-.11718.04687-.10547.04297-.10156.04297-.10547.07422-.07031.08984-.0625.08985-.0586.10156-.04296h.29687l.26563-.03125.10547-.04297-.07422-.07422-.11719-.03125-.10547-.04297-.08984-.0586-.10156-.04687-.08985-.0586-.10156-.04296-.10547-.04297-.08984-.0625-.08594-.0586-.10547-.04296-.10156-.04297-.1211-.03125-.11718-.03125-.10157-.04297L297.5 410.25l-.10156-.04297-.08985-.0586-.04296-.10546-.01563-.13281.10156-.04297.13281-.01563.13672.01563.13282-.01563.10156-.04297.0586-.08984.01562-.10547-.08985-.0586-.07421-.07421-.10157-.04297-.08984-.0586-.14844-.14843-.04297-.10547-.01562-.13281v-.29297l-.0586-.08985-.08984-.05859-.07422-.07422-.04297-.10547-.03125-.11718-.0586-.08985-.07421-.07422-.11719-.02734-.07422-.07422-.08984-.0586-.08984-.0625-.08594-.05859-.07422-.07421-.0586-.08594-.04687-.10547-.08594-.0586-.14843-.14843-.19532-.0586-.1328.01563-.10157.04297-.07422.07422-.04688.10156-.04296.10547-.0586.08984-.0586.08594-.29687.29687-.08984.0586h-.08594l-.0625-.08594-.04297-.10547.03125-.11719.0586-.08984.02734-.11719-.01172-.13281-.08984-.0625-.10547.04688-.11719.02734-.11719.03125-.26953.17578-.10156.04688-.11719.02734-.10546.04687-.08985.0586-.10156.04297-.0586-.08594-.04687-.10547.01563-.13281.04687-.10547.07031-.07422.07422-.07031.0586-.08985v-.14843l-.04297-.10547h-.23829l-.10156.04687-.03125.11719-.02734.11719-.03125.1211-.07422.04296-.13281.01563-.07422-.04688-.04297-.10156-.04297-.10547-.04687-.10156-.04297-.10547-.1211.03125-.10156.04297-.13281.01562-.11719.03125-.10547.04297-.08984.0586-.10156.04687-.1211.02734-.13281.01563-.10156-.04297-.0586-.08985-.04687-.10546-.04297-.10157-.04297-.10546v-.1172l.0586-.08984.08593-.05859.17969-.11719.10156-.04687.10547-.04297.10547-.0586.10156-.04296.08985-.0625.10156-.04297.10547-.0586.10156-.04687.08984-.0586.10547-.04296.10156-.04297.08985-.0625.10156-.04297.13672-.01563.11719.03125.10156.04297.1211.03125.10156.04297.10546.04688.10157.04296.10547.04297.10156.04688.10547.04297.10156.04297.10547.04687.08594.0586.10546.04296.1172.03125.10546.04297.10156.04688.08985.0586.10547.04296.10156.04297.10547.04687.11719.02735.10156.04687.1211.02735h.14843l.08594-.0586.01562-.10156.0586-.08984-.02735-.1172-.07422-.07421-.11719-.17969-.07421-.07422-.08985-.07421-.17969-.1172-.08593-.05859-.10547-.04296-.10156-.04688-.26954-.17578-.05859-.08985-.07422-.07421-.0586-.08985-.04296-.10156-.03125-.11719-.01563-.13672v-.5625l-.01171-.1328-.01563-.13282-.03125-.11719-.01562-.13281-.01172-.13281-.03125-.1211-.22266-.22265-.0586-.08594-.01562-.10547.03125-.11719.13281-.01562v-91.41406H172.9922v1.45312l-.0586.23438-.35156 1.05078-.17187.52343-.1172.34766-.17577.41016-.11719.17187-.23438.29297-.23046.0586h-.35157l-.11718.05859-.23047.40625v.29297l.11719.17578.23046.23047.1172.23437.64062.75781.29297.46485.17578.23437.23047.35156.23437.34766.64063.8164.17578.46485.17187.41016.11719.69531.17578.46875.11719 1.39844.0586.46484v.875l.11718 1.04688v4.78125l-.0586.46484-.35156 1.28125-.17578.52344-.11328.41015-.35156.9297L172.93359 336l-.23437.58203-.11719.17578-.17187.34766-.17578.40625-.35157.8164-.0586.29297-.11327.29297-.11719.28906-.0586.17579-.11718.875-.0586.40625-.05859.11718-.0586.17579-.05859.17187-.23047.52734-.11718.17188v.23437l-.11719.23438-.0586.17187-.17577.58594v.28906l-.0586.17579v.29296l-.0586.11329-.05859.52734v.17187l-.05468.23438v2.6211l-.17578.8164-.1172.17578-.17577.23438-.1172.17187-.11327.23438-.58594.93359-.23047.28906-.29297.46485-.17578.23437-.28906.35156-.35156.69922-.11328.23047-.17579.41016-.17578.23046-.40625.52735-.8164.69922-.29297.17187-.28906.23438-.17579.11719-.17578.17578-.52344.40625-.52734.17578-.17187.17578-.23438.05469-.64062.17578h-.75782m12.21094 31.02344l-1.07422.44921.35938.89454 1.25-.71485.44531-.53906-.98047-.08985"/><path fill="#d3d3d3" fill-opacity="0" fill-rule="evenodd" d="M201.50781 416.59766h-.89453l.44922.6289.98047.35938.80469-.08985.4453-.98828-.17577.08985-.71485-.35547-.89453.35547m154.6211 59.0703l-.0586-.52343v-.29297l.11328-.29297.0586-.23046.46875-.46875h.11328l.11719-.11329.11718-.05859h.17579l.23437-.0586h.34766l.23437.0586.11719.0586.23047.17187.0586.17578.11718.58203v.29297l-.11719.17578-.17187.28906-.17579.17579-.52734.52343-.23047.23438-.11719.0586h-.17578l-.11718-.0586-.40625-.29297-.17579-.11719-.11718-.0586-.0586-.11327-.05468-.1172m6.64062-10.95702l-.0586-.17188v-1.10937l.0586-.17188.17578-.0586.17188-.05858h.17578l.23437-.0586.1172.0586.05858.69921-.05859.17188-.11719.17578-.11718.0586-.23438.52343-.11328.0586h-.23438l-.05859-.1172m9.61328-14.39062l-.11719-.17578v-.69922l.29297-.875.1172-.17187.17577-.35156.11328-.23047.1172-.29297.35155-.75781.1172-.23047.17187-.23438h.17578l.11719-.0586h.64062l.11719.0586.23437.23438.17188.11328.35156.29297.11719.11718.11328.17579v.11328l.11719.05859.11718.11719v.69922l-.05859.17578v.23047l-.0586.17578-.34765 1.05078-.11719.23047-.11719.23437-.11718.0586-.23047.23437-.64063.28906h-.875l-.41015-.11718-.64063-.46485"/><path fill="none" stroke="#bebebe" stroke-linecap="round" stroke-linejoin="round" stroke-miterlimit="10" stroke-width=".5" d="M467.95703 311.69531H144.02734v168.625h323.9297v-168.625"/><g clip-path="url(#a)"><path fill="#fff" fill-opacity="0" fill-rule="evenodd" d="M144 475.89063v4.4375h.0039H144V311.67188h.0039H144v164.21875"/></g><g clip-path="url(#b)"><path fill="#fff" fill-opacity="0" fill-rule="evenodd" d="M144.0039 480.32813V311.67188h17.75v130.23828l-.48827 2.91015.48828 2.19531v12.90235l-1.57422 2.65625 1.57422 1.58203 4.4375-1.0039 1.1953-.57813-1.1953-.73047-4.4375-1.92578v-12.90235l4.05078-2.1953-4.05078-2.91016V311.67187h13.3125v46.1211l-1.26563 2.69922 1.26563 1.19922v100.5703l-.46094.3125.46094.21095.66797-.21094-.66797-.3125V361.6914l1.19922-1.19922-1.19922-2.69922v-46.1211h8.8789v25.22266l-.6211 1.40625.6211.64063.6211-.64063-.6211-1.40625v-25.22265h4.4375v10.43359l-1.92187 2.8789-.21485 4.44141 2.13672 2.0586 1.8086-2.0586.14843-4.4414-1.95703-2.87891v-10.4336h4.4375v2.22657l-2.21094 2.21094 2.21094 2.44921 4.42969 1.98829-1.39063 4.4375 1.40235 1.47265 1.58984-1.47265-1.58203-4.4375-.00781-.00782-2.22656-4.42969-2.21485-2.21093v-2.22656h190.85156v149.97656l-1.14453.92578-1.78906 4.4414.53516 4.4375 1.60937 4.4375.78906.78516 1.57813-.78515.73438-4.4375.51562-4.4375-1.53125-4.44141-1.29688-.92578V311.67188h84.32422v168.65625H144.00391"/></g><path fill="#50fcfc" fill-rule="evenodd" d="M161.7539 464.15625l-1.57421-1.58203 1.57422-2.65625 4.4375 1.92578 1.1953.73047-1.1953.57812-4.4375 1.00391m0-17.14063l-.48828-2.1953.48828-2.91016 4.05078 2.91015-4.05078 2.19531m13.3125-85.32421l-1.26563-1.19922 1.26563-2.69922 1.19922 2.69922-1.19922 1.19922m0 101.09375l-.46094-.21094.46094-.3125.66797.3125-.66797.21094m8.8789-123.84375l-.6211-.64063.6211-1.40625.6211 1.40625-.6211.64063m4.4375-7.45704l-2.13672-2.05859.21485-4.4414 1.92187-2.87891 1.95703 2.8789-.14843 4.44141-1.8086 2.0586m4.4375-12.92579l-2.21094-2.44921 2.21094-2.21094 2.21485 2.21094 2.22656 4.42968.00781.00781 1.58203 4.4375-1.58984 1.47266-1.40234-1.47265 1.39062-4.4375-4.42969-1.98829m188.45313 152.89454l-.53516-4.4375 1.78906-4.44141 1.14454-.92578v5.02344l-.19141.34375.1914.88671.1836-.88671-.1836-.34375v-5.02344l1.29688.92578 1.53125 4.4414-.51563 4.4375-.73437 4.4375-1.57813.78516-.78906-.78515-1.60937-4.4375"/><path fill="#00e8fc" fill-rule="evenodd" d="M383.67188 467.90234l-.19141-.88671.1914-.34375.1836.34375-.1836.88671"/><g clip-path="url(#c)"><path fill="#fff" fill-opacity="0" fill-rule="evenodd" d="M467.9961 480.32813H468V311.67188h-.0039H468v168.65625h-.0039"/></g><g clip-path="url(#d)"><path fill="none" stroke="#000" stroke-linecap="round" stroke-linejoin="round" stroke-miterlimit="10" stroke-width=".5" d="M147.34766 481.39063l-6.69532-2.125"/></g><g clip-path="url(#e)"><path fill="none" stroke="#000" stroke-linecap="round" stroke-linejoin="round" stroke-miterlimit="10" stroke-width=".5" d="M160.82422 480.51953l-7.01563-.38281"/></g><g clip-path="url(#f)"><path fill="none" stroke="#000" stroke-linecap="round" stroke-linejoin="round" stroke-miterlimit="10" stroke-width=".5" d="M160.82422 480.51953l1.03125 2.22656"/></g><g clip-path="url(#g)"><path fill="none" stroke="#000" stroke-linecap="round" stroke-linejoin="round" stroke-miterlimit="10" stroke-width=".5" d="M159.80078 480.46484l.51953 1.11328"/></g><g clip-path="url(#h)"><path fill="none" stroke="#000" stroke-linecap="round" stroke-linejoin="round" stroke-miterlimit="10" stroke-width=".5" d="M174.11328 480.78516l-6.96875-.91407"/></g><g clip-path="url(#i)"><path fill="none" stroke="#000" stroke-linecap="round" stroke-linejoin="round" stroke-miterlimit="10" stroke-width=".5" d="M174.11328 480.78516l.86328 2.29687"/></g><g clip-path="url(#j)"><path fill="none" stroke="#000" stroke-linecap="round" stroke-linejoin="round" stroke-miterlimit="10" stroke-width=".5" d="M187.42969 480.77734l-6.96875-.89843"/></g><g clip-path="url(#k)"><path fill="none" stroke="#000" stroke-linecap="round" stroke-linejoin="round" stroke-miterlimit="10" stroke-width=".5" d="M187.42969 480.77734l.86328 2.29688"/></g><g clip-path="url(#l)"><path fill="none" stroke="#000" stroke-linecap="round" stroke-linejoin="round" stroke-miterlimit="10" stroke-width=".5" d="M200.76563 480.54297l-7.01172-.42969"/></g><g clip-path="url(#m)"><path fill="none" stroke="#000" stroke-linecap="round" stroke-linejoin="round" stroke-miterlimit="10" stroke-width=".5" d="M200.76563 480.54297l1.01953 2.23437"/></g><g clip-path="url(#n)"><path fill="none" stroke="#000" stroke-linecap="round" stroke-linejoin="round" stroke-miterlimit="10" stroke-width=".5" d="M199.7461 480.48047l.5078 1.11719"/></g><g clip-path="url(#o)"><path fill="none" stroke="#000" stroke-linecap="round" stroke-linejoin="round" stroke-miterlimit="10" stroke-width=".5" d="M214.08594 480.24219l-7.02344.17187"/></g><g clip-path="url(#p)"><path fill="none" stroke="#000" stroke-linecap="round" stroke-linejoin="round" stroke-miterlimit="10" stroke-width=".5" d="M214.08594 480.24219l1.20703 2.14062"/></g><g clip-path="url(#q)"><path fill="none" stroke="#000" stroke-linecap="round" stroke-linejoin="round" stroke-miterlimit="10" stroke-width=".5" d="M213.0664 480.26953l.60157 1.0664"/></g><g clip-path="url(#r)"><path fill="none" stroke="#000" stroke-linecap="round" stroke-linejoin="round" stroke-miterlimit="10" stroke-width=".5" d="M227.39844 480.16406l-7.01953.32813"/></g><g clip-path="url(#s)"><path fill="none" stroke="#000" stroke-linecap="round" stroke-linejoin="round" stroke-miterlimit="10" stroke-width=".5" d="M227.39844 480.16406l1.2539 2.10938"/></g><g clip-path="url(#t)"><path fill="none" stroke="#000" stroke-linecap="round" stroke-linejoin="round" stroke-miterlimit="10" stroke-width=".5" d="M226.3789 480.21094l.625 1.0586"/></g><g clip-path="url(#u)"><path fill="none" stroke="#000" stroke-linecap="round" stroke-linejoin="round" stroke-miterlimit="10" stroke-width=".5" d="M240.66406 479.69922l-6.91406 1.25781"/></g><g clip-path="url(#v)"><path fill="none" stroke="#000" stroke-linecap="round" stroke-linejoin="round" stroke-miterlimit="10" stroke-width=".5" d="M240.66406 479.69922l1.51953 1.92578"/></g><g clip-path="url(#w)"><path fill="none" stroke="#000" stroke-linecap="round" stroke-linejoin="round" stroke-miterlimit="10" stroke-width=".5" d="M253.9375 479.51953l-6.83594 1.6211"/></g><g clip-path="url(#x)"><path fill="none" stroke="#000" stroke-linecap="round" stroke-linejoin="round" stroke-miterlimit="10" stroke-width=".5" d="M253.9375 479.51953l1.6211 1.83985"/></g><g clip-path="url(#y)"><path fill="none" stroke="#000" stroke-linecap="round" stroke-linejoin="round" stroke-miterlimit="10" stroke-width=".5" d="M267.3125 479.82422l-6.95313 1.00781"/></g><g clip-path="url(#z)"><path fill="none" stroke="#000" stroke-linecap="round" stroke-linejoin="round" stroke-miterlimit="10" stroke-width=".5" d="M267.3125 479.82422l1.44922 1.98047"/></g><g clip-path="url(#A)"><path fill="none" stroke="#000" stroke-linecap="round" stroke-linejoin="round" stroke-miterlimit="10" stroke-width=".5" d="M280.53906 479.40234l-6.77734 1.85157"/></g><g clip-path="url(#B)"><path fill="none" stroke="#000" stroke-linecap="round" stroke-linejoin="round" stroke-miterlimit="10" stroke-width=".5" d="M280.53906 479.40234l1.6836 1.78516"/></g><g clip-path="url(#C)"><path fill="none" stroke="#000" stroke-linecap="round" stroke-linejoin="round" stroke-miterlimit="10" stroke-width=".5" d="M293.95313 479.89453l-6.97266.86719"/></g><g clip-path="url(#D)"><path fill="none" stroke="#000" stroke-linecap="round" stroke-linejoin="round" stroke-miterlimit="10" stroke-width=".5" d="M293.95313 479.89453l1.41015 2.00781"/></g><g clip-path="url(#E)"><path fill="none" stroke="#000" stroke-linecap="round" stroke-linejoin="round" stroke-miterlimit="10" stroke-width=".5" d="M307.14844 479.32813l-6.73438 2"/></g><g clip-path="url(#F)"><path fill="none" stroke="#000" stroke-linecap="round" stroke-linejoin="round" stroke-miterlimit="10" stroke-width=".5" d="M307.14844 479.32813l1.72265 1.75"/></g><g clip-path="url(#G)"><path fill="none" stroke="#000" stroke-linecap="round" stroke-linejoin="round" stroke-miterlimit="10" stroke-width=".5" d="M320.25781 478.80078l-6.32422 3.05469"/></g><g clip-path="url(#H)"><path fill="none" stroke="#000" stroke-linecap="round" stroke-linejoin="round" stroke-miterlimit="10" stroke-width=".5" d="M320.25781 478.80078l1.98047 1.44922"/></g><g clip-path="url(#I)"><path fill="none" stroke="#000" stroke-linecap="round" stroke-linejoin="round" stroke-miterlimit="10" stroke-width=".5" d="M333.42188 478.51563l-6.01954 3.6289"/></g><g clip-path="url(#J)"><path fill="none" stroke="#000" stroke-linecap="round" stroke-linejoin="round" stroke-miterlimit="10" stroke-width=".5" d="M333.42188 478.51563l2.10156 1.26171"/></g><g clip-path="url(#K)"><path fill="none" stroke="#000" stroke-linecap="round" stroke-linejoin="round" stroke-miterlimit="10" stroke-width=".5" d="M346.58984 478.29297l-5.72656 4.07422"/></g><path fill="none" stroke="#000" stroke-linecap="round" stroke-linejoin="round" stroke-miterlimit="10" stroke-width=".5" d="M345.7539 478.88281l1.09766.55078"/><g clip-path="url(#L)"><path fill="none" stroke="#000" stroke-linecap="round" stroke-linejoin="round" stroke-miterlimit="10" stroke-width=".5" d="M358.9375 477.3711l-3.79297 5.91796"/></g><path fill="none" stroke="#000" stroke-linecap="round" stroke-linejoin="round" stroke-miterlimit="10" stroke-width=".5" d="M358.38281 478.23047l1.22656.10156"/><g clip-path="url(#M)"><path fill="none" stroke="#000" stroke-linecap="round" stroke-linejoin="round" stroke-miterlimit="10" stroke-width=".5" d="M371.23828 476.92578l-1.76172 6.80469"/></g><path fill="none" stroke="#000" stroke-linecap="round" stroke-linejoin="round" stroke-miterlimit="10" stroke-width=".5" d="M370.98047 477.91797l1.19531-.28516"/><g clip-path="url(#N)"><path fill="none" stroke="#000" stroke-linecap="round" stroke-linejoin="round" stroke-miterlimit="10" stroke-width=".5" d="M385.65625 477.42969l-3.96875 5.79687"/></g><path fill="none" stroke="#000" stroke-linecap="round" stroke-linejoin="round" stroke-miterlimit="10" stroke-width=".5" d="M385.07813 478.27344l1.21875.13672"/><g clip-path="url(#O)"><path fill="none" stroke="#000" stroke-linecap="round" stroke-linejoin="round" stroke-miterlimit="10" stroke-width=".5" d="M396.32422 476.8789l1.32422 6.89844"/></g><path fill="none" stroke="#000" stroke-linecap="round" stroke-linejoin="round" stroke-miterlimit="10" stroke-width=".5" d="M396.51563 477.88281l.95703-.76953"/><g clip-path="url(#P)"><path fill="none" stroke="#000" stroke-linecap="round" stroke-linejoin="round" stroke-miterlimit="10" stroke-width=".5" d="M409.64844 476.875l1.30469 6.90625"/></g><path fill="none" stroke="#000" stroke-linecap="round" stroke-linejoin="round" stroke-miterlimit="10" stroke-width=".5" d="M409.83984 477.88281l.95704-.76953"/><g clip-path="url(#Q)"><path fill="none" stroke="#000" stroke-linecap="round" stroke-linejoin="round" stroke-miterlimit="10" stroke-width=".5" d="M426.0586 477.80078l-4.88282 5.05469"/></g><path fill="none" stroke="#000" stroke-linecap="round" stroke-linejoin="round" stroke-miterlimit="10" stroke-width=".5" d="M425.34766 478.53516l1.17968.33984"/><g clip-path="url(#R)"><path fill="none" stroke="#000" stroke-linecap="round" stroke-linejoin="round" stroke-miterlimit="10" stroke-width=".5" d="M438.3086 477.09375l-2.75391 6.46875"/></g><path fill="none" stroke="#000" stroke-linecap="round" stroke-linejoin="round" stroke-miterlimit="10" stroke-width=".5" d="M438.3086 477.09375l2.4414-.21094"/><g clip-path="url(#S)"><path fill="none" stroke="#000" stroke-linecap="round" stroke-linejoin="round" stroke-miterlimit="10" stroke-width=".5" d="M450.6211 476.83594l-.75 6.98828"/></g><path fill="none" stroke="#000" stroke-linecap="round" stroke-linejoin="round" stroke-miterlimit="10" stroke-width=".5" d="M450.6211 476.83594l2.27734-.91406"/><g clip-path="url(#T)"><path fill="none" stroke="#000" stroke-linecap="round" stroke-linejoin="round" stroke-miterlimit="10" stroke-width=".5" d="M464.375 476.91016l-1.6289 6.83593"/></g><path fill="none" stroke="#000" stroke-linecap="round" stroke-linejoin="round" stroke-miterlimit="10" stroke-width=".5" d="M464.375 476.91016l2.375-.6172"/><g clip-path="url(#U)"><path fill="none" stroke="#000" stroke-linecap="round" stroke-linejoin="round" stroke-miterlimit="10" stroke-width=".5" d="M147.40234 467.89453l-6.80468-1.76172"/></g><path fill="none" stroke="#000" stroke-linecap="round" stroke-linejoin="round" stroke-miterlimit="10" stroke-width=".5" d="M147.40234 467.89453l.57032 2.38672m12.85547-3.16406l-7.02344-.20703m7.02344.20703l1.08593 2.19922m12.23047-2.35547l-7.02734.10547m7.02734-.10547l1.1836 2.14844m12.1289-2.20313l-7.02344.21484m7.02344-.21484l1.21875 2.13281m-2.24219-2.10156l.60938 1.0664m13.73047-1.04296l-7.02735.10547m7.02735-.10547l1.1836 2.14844m-2.20704-2.13282l.59375 1.07422m13.73828-1.26172l-7.01172.44922m7.01172-.44922l1.28516 2.08985m-2.30469-2.02344l.64063 1.04297m13.59765-1.73047l-6.82031 1.6914m6.82031-1.6914l1.64063 1.82422m-2.63282-1.57813l1.64063 1.82422m12.57031-2.39062l-6.6289 2.33203m6.6289-2.33203l1.80469 1.66015m-2.76953-1.32031l1.8086 1.66016m12.5-1.91407l-6.6875 2.16016m6.6875-2.16016l1.76171 1.70704m-2.73438-1.39454l1.76172 1.71094m12.5547-1.92969L260.46483 468m6.7422-1.97266l1.71484 1.75391m-2.69532-1.46875l1.71485 1.7539m12.41406-2.49218l-6.41016 2.8789m6.41016-2.8789l1.9375 1.5039m-2.8711-1.08593l.96876.7539M293.5039 465.25l-6.07813 3.52734m6.07813-3.52734l2.08593 1.29688m-2.96875-.78516l1.04297.64844m13.26953-.94532l-6.30468 3.09766m6.30468-3.09766l1.98829 1.4375m-2.90625-.98828l.99609.71875m13.10547-1.41406l-6.04297 3.58984m6.04297-3.58984l2.09765 1.27344m-2.97656-.75l1.04688.63672m12.80859-1.63672l-5.36328 4.54297m5.36328-4.54297l2.27734.91015m10.94922-1.0078l-5.1875 4.73827m5.1875-4.73828l2.3125.82422m10.34375-1.38672l-3.8711 5.86328m3.3086-5.01172l1.22266.1172m12.86328-.82032l-4.28906 5.5664m4.28906-5.5664l2.42188.41016m11.33593-.00391l-5.17187 4.7539m4.41797-4.0625l1.16015.40626m11.13672-2.13672l-1.6289 6.83203m1.39062-5.83985l1.1875-.30859m13.0625-.4414l-3.02344 6.34765m2.58203-5.42187l1.22657-.0547m12.64062-.8164l-3.24219 6.23828m3.2422-6.23828l2.45312-.01953m11.09375.15234L435.07813 470m3.70703-5.97266l2.4453.16407m10.50782-.35938l-2.98047 6.36328m2.98047-6.36328l2.44922-.125m10.875.1289l-3.0039 6.35548m3.0039-6.35547l2.45313-.11328"/><g clip-path="url(#V)"><path fill="none" stroke="#000" stroke-linecap="round" stroke-linejoin="round" stroke-miterlimit="10" stroke-width=".5" d="M147.5 453.99219l-7-.58985"/></g><path fill="none" stroke="#000" stroke-linecap="round" stroke-linejoin="round" stroke-miterlimit="10" stroke-width=".5" d="M147.5 453.99219l.96875 2.25781m-1.98828-2.34375l.48437 1.1289m13.77735-.5703l-6.85547-1.53516m6.85547 1.53515l.65234 2.3672m-1.64844-2.58985l.32422 1.1836m14.0039-1.03126L167.1875 453m6.88672 1.39453l.69922 2.35156m12.59375-2.25l-6.84375-1.59765m6.84375 1.59765l.6289 2.375m12.72657-2.5703l-6.92188-1.20704m6.92188 1.20703l.76172 2.33203m-1.76954-2.50781l.37891 1.16797m13.94922-1.02734l-6.9336-1.13282m6.9336 1.13282l.78516 2.32421m-1.79297-2.48828l.39062 1.16016m13.97266-1.40234l-7.01953-.32032m7.01953.32032l1.05469 2.21875m-2.07422-2.26563l.52734 1.10938m13.6875-2.14844l-6.77734 1.85156m6.77734-1.85156l1.6836 1.78515m-2.66798-1.51562l1.6836 1.78516m12.5664-2.22657l-6.67578 2.19532m6.67578-2.19532l1.76954 1.69922m-2.7422-1.3789l1.76954 1.69921m12.58594-1.78125l-6.8125 1.71875m6.8125-1.71875l1.64844 1.81641m-2.64063-1.5664l1.64844 1.8164m12.58203-2.32812l-6.66016 2.24218m6.66016-2.24218l1.78125 1.6875m-2.75-1.35938l1.78125 1.6836m12.42578-2.21876l-6.50781 2.65235m6.50781-2.65235l1.88672 1.57422m-2.83203-1.1875l.9414.78516m13.34375-1.11328l-6.55468 2.53906m6.55468-2.53906l1.85547 1.60156m-2.8086-1.23437l.92579.80468m13.4961-.65234l-6.86329 1.4961m6.86328-1.4961l1.58985 1.875m-2.58594-1.65625l.79297.9375m13.35156-1.69922l-6.53125 2.58594m6.53125-2.58594l1.8711 1.58984m11.0703-2.29296l-5.78515 3.99218m5.78516-3.99218l2.17969 1.1289m10.48437-1.83984l-4.48047 5.41406m4.48047-5.41406l2.40234.49219m-3.05468.29296l1.20312.25m13.84375.51954l-6.64062 2.30078m6.64062-2.30078l1.79688 1.67187m11.4375-1.8789l-6.48047 2.71874m6.48047-2.71875l1.90234 1.55079m10.91797-2.38672l-5.48828 4.39062m4.6875-3.7539l1.1289.48828m13.04297-1.0547l-5.59765 4.25m4.78125-3.6328l1.11328.51562m12.95703-1.21094l-5.47656 4.40235m4.67968-3.76172l1.12891.48437m12.74219-1.39453l-4.9961 4.94532m4.9961-4.94532l2.33984.72657m9.9414-1.44922l-2.92968 6.38672m2.92969-6.38672l2.44922-.14063m10.70312.07031l-2.60156 6.52735m2.60156-6.52735l2.4375-.26562"/><g clip-path="url(#W)"><path fill="none" stroke="#000" stroke-linecap="round" stroke-linejoin="round" stroke-miterlimit="10" stroke-width=".5" d="M147.46094 440.98438l-6.92188-1.20313"/></g><path fill="none" stroke="#000" stroke-linecap="round" stroke-linejoin="round" stroke-miterlimit="10" stroke-width=".5" d="M147.46094 440.98438l.76562 2.33203m12.52735-2.20703l-6.875-1.44922m6.875 1.44922l.67968 2.35546m12.55078-2.03125l-6.70703-2.09765m6.70703 2.09765l.45313 2.41016M187.27734 441.5l-6.66406-2.23438m6.66406 2.23438l.40235 2.42188m13.08203-3.25782l-7.0039-.5625m7.0039.5625l.97656 2.2539m12.34766-2.71093l-7.01953.35156m7.01953-.35156l1.25781 2.10547m12.02344-2.42578l-6.95313.99219m6.95313-.9922l1.44922 1.98048m-2.46094-1.83594l.72266.99219m13.40234-1.91407l-6.55078 2.54688m6.55078-2.54688l1.85937 1.60157m11.35938-1.82422l-6.35938 2.99219m6.35938-2.9922l1.96484 1.47266m11.49219-1.1289l-6.64063 2.30469m6.64063-2.3047l1.79688 1.67188m-2.76563-1.33593l.90234.83593m13.04688-1.87109l-5.97266 3.70313m5.97266-3.70313l2.1211 1.23438m-2.9922-.69532l1.0625.61719m13.32032-.79297l-6.36719 2.97656m6.36719-2.97656l1.96093 1.47656m-2.88671-1.04296l.98046.73828m13.4297-.73438l-6.70313 2.10156m6.70312-2.10156l1.7461 1.72266m-2.72266-1.41406l.875.85937m13.4336-1.11719l-6.73829 2.0039m6.73828-2.0039l1.71875 1.7461m-2.69922-1.45703l.85938.875m13.35937-1.39454l-6.58203 2.46485m6.58203-2.46485l1.83594 1.625m-2.79687-1.26562l.92187.8125m13.13672-1.64453l-6.14844 3.40625m6.14844-3.40625l2.05469 1.33593m-2.94922-.83984l1.02734.66797m12.46094-2.07031l-4.70703 5.21875m4.02344-4.46094l1.1875.30078m13.875.73438l-6.83594 1.6328m6.83594-1.6328l1.625 1.83984m11.76562-.65625l-6.98828-.73438m6.98828.73438l.92188 2.27734m12.33203-3.39843l-6.86328 1.5078m5.86328-1.28905l.79687.93359m12.89453-2.50781l-5.61718 4.22265m4.80078-3.60937l1.10937.51953m13.47657-.32422l-6.52735 2.60547m6.52735-2.60547l1.875 1.58203m11.09375-2.23828l-5.83594 3.91406m5.83594-3.91406l2.16406 1.15625m10.66797-1.73437l-4.86719 5.0703m4.86719-5.0703l2.35937.67187m10.67969-.91016l-4.3125 5.55079"/><g clip-path="url(#X)"><path fill="none" stroke="#000" stroke-linecap="round" stroke-linejoin="round" stroke-miterlimit="10" stroke-width=".5" d="M465.71875 437.60938l2.41406.41796"/></g><g clip-path="url(#Y)"><path fill="none" stroke="#000" stroke-linecap="round" stroke-linejoin="round" stroke-miterlimit="10" stroke-width=".5" d="M147.23828 428.4336l-6.47656-2.73048"/></g><path fill="none" stroke="#000" stroke-linecap="round" stroke-linejoin="round" stroke-miterlimit="10" stroke-width=".5" d="M147.23828 428.4336l.21875 2.4453m12.61719-1.6328l-5.51953-4.35157m5.51953 4.35156l-.4375 2.41407m13.8711-2.57422l-5.75391-4.03516m4.91406 3.44922l-.14844 1.21484m14.01172-.26562l-5.17188-4.76172m4.41797 4.07031l-.30859 1.1836m14.79688-1.0547L194.2539 425.25m5.13672 3.10547l-.06641 1.22656m14.76172-2.36719l-7.01953-.29297m5.99609.25l.53125 1.10938m13.42188-2.82031l-6.25 3.21484m5.33984-2.7461l1.00781.69923m13.16016 2.14843l-6.13672-3.41797m5.2461 2.92188l-.02345 1.22656m14.34375-.94922l-6.36328-2.98047m5.4375 2.54688l.0625 1.22656m14.4961-1.99219l-7-.58203m7 .58203l.96875 2.25391m12.3086-1.9414l-6.92188-1.20704m6.92187 1.20703l.76172 2.33204m-1.76953-2.50782l.3789 1.16797m13.96485-2.05078l-6.96875.91016m6.96875-.91016l1.42187 2m-2.43359-1.86719l.71094 1m13.26172-2.27734l-6.25782 3.19922m6.25782-3.19922l2.01171 1.40234m11.03516-1.83984l-5.72266 4.07422m5.72266-4.07422l2.19531 1.09766m11.13282-1.08204l-5.75 4.04297m5.75-4.04297l2.1875 1.11329m-3.02344-.52344l1.09375.55469m12.99219-1.23438l-5.6172 4.22266m5.6172-4.22266l2.22265 1.03906m-3.03906-.42578l1.10937.51953m13.33204-.63672l-6.23829 3.23047m6.23829-3.23047l2.01953 1.39063m11.54687-.76563l-6.74219 1.98047m5.76172-1.6914l.85938.875m10.69922-3.6289l-1.26563 6.91015m1.26563-6.91016l2.33984-.74219m-2.52344 1.7461l1.16797-.3711m15.03906 1.7422l-6.68359 2.16015m6.6836-2.16016l1.76562 1.70703m10.94922-2.82422l-5.48047 4.39844m5.48047-4.39844l2.2539.96485m10.77344-1.28125l-4.91015 5.02734m4.91015-5.02734l2.35547.6875m-3.07031.04297l1.17969.34375m12.47265-1.39454l-4.15234 5.66797m4.15234-5.66797l2.42578.34766m10.13282-.76953l-2.64063 6.51172m2.64063-6.51172l2.4414-.2539m10.86328.25l-2.61718 6.51952m2.61718-6.51953l2.44141-.26172"/><g clip-path="url(#Z)"><path fill="none" stroke="#000" stroke-linecap="round" stroke-linejoin="round" stroke-miterlimit="10" stroke-width=".5" d="M145.60938 416.875l-3.21875-6.2461"/></g><g clip-path="url(#aa)"><path fill="none" stroke="#000" stroke-linecap="round" stroke-linejoin="round" stroke-miterlimit="10" stroke-width=".5" d="M145.60938 416.875l-1.39844 2.01953"/></g><path fill="none" stroke="#000" stroke-linecap="round" stroke-linejoin="round" stroke-miterlimit="10" stroke-width=".5" d="M158.36719 417.10547l-2.10547-6.70313m2.10547 6.70313l-1.71875 1.75m14.80078-1.6836l-1.63672-6.83593m1.63672 6.83594l-1.83984 1.62109m15.30859-1.66406l-1.94531-6.75m1.66406 5.76953L183.7539 417m16.33593-1.16406l-5.66015-4.16407m4.83594 3.5586l-.1797 1.21484m11.66407.8164l-.34766-7.01562m.29688 5.9961l-1.05469.6289m15.64844.10547l-2.80469-6.44531m2.39453 5.50781l-.76172.95703m15.83203-1.05468l-5.49609-4.375m5.4961 4.375l-.44532 2.41406m14.25781-3.25781l-6.49218-2.6875m6.49219 2.6875l.23828 2.4414m13.21484-2.83203l-6.76563-1.90625m6.76563 1.90625l.51953 2.39844m12.92578-3.3086l-7.02734-.08984m7.02734.08984l1.125 2.1836m12.1875-2.3711l-7.01953.28907m7.01953-.28907l1.24219 2.1172m11.96094-2.85548l-6.80078 1.76563m6.80078-1.76563l1.66015 1.8047m11.60938-1.97267l-6.70703 2.10157m6.70703-2.10157l1.7461 1.72266m11.20702-2.51172l-5.98437 3.67969m5.98437-3.67969l2.1172 1.23828m11.35937-.94922l-6.3047 3.10157m6.3047-3.10156l1.98828 1.4375m10.84375-2.17188l-5.33985 4.57031m5.33985-4.57031l2.28515.89844m11.25-.61328l-5.78125 3.99609m5.78125-3.9961l2.1797 1.12891m11.46093-.54297l-6.4336 2.82422m6.4336-2.82422l1.92578 1.52344m-2.85937-1.10937l.96093.7578m13.01563-1.67577l-5.88672 3.83594m5.88672-3.83594l2.14844 1.1836m10.85937-1.58595l-5.27344 4.64063m5.27344-4.64063l2.29688.86329m10.28125-1.5l-3.79688 5.91406m3.79688-5.91406l2.4453.20312m10.6875-.3125l-3.43359 6.13281m3.4336-6.13281l2.45312.05078m10.48047-.23437l-2.67187 6.5m2.67187-6.5l2.4414-.2422m10.13282.02735l-1.1875 6.92578m1.1875-6.92578l2.32813-.76562"/><g clip-path="url(#ab)"><path fill="none" stroke="#000" stroke-linecap="round" stroke-linejoin="round" stroke-miterlimit="10" stroke-width=".5" d="M144.03125 403.95313l-.0625-7.02735"/></g><g clip-path="url(#ac)"><path fill="none" stroke="#000" stroke-linecap="round" stroke-linejoin="round" stroke-miterlimit="10" stroke-width=".5" d="M144.02344 402.92969l-1.07813.58594"/></g><path fill="none" stroke="#000" stroke-linecap="round" stroke-linejoin="round" stroke-miterlimit="10" stroke-width=".5" d="M157.02344 403.9414l.58594-7.0039m-.58594 7.0039l-2.25781.96485m17.3125-1.26563l-2.89454-6.40625m2.89453 6.40625l-1.5039 1.94141m16.39453-3.35156l-6.04688-3.58594m5.16797 3.0625l-.05859 1.22656m14.66406-1.76171l-6.8711-1.46485m5.8711 1.25l.33985 1.17969m8.85547 1.38672l3.36718-6.16797m-2.875 5.26953l-1.22656-.01563m17.7539.70313l-4.03906-5.75m3.45313 4.91406l-.5586 1.09375M240.05078 402.5l-5.6875-4.125m5.6875 4.125l-.33984 2.4336m14.19922-3.57032l-6.78125-1.84765m6.78125 1.84765l.54297 2.39453m12.89453-3.22656l-7.02344-.1836m7.02344.1836l1.09765 2.19531m12.19922-2.64453l-6.98828.71094m6.98828-.71094l1.36719 2.03906m11.88672-2.4414l-6.86328 1.51562m6.86328-1.51562l1.58984 1.86719m11.65235-2.13282l-6.72266 2.04688m6.72266-2.04688l1.73437 1.73828m11.6211-1.60546l-6.80079 1.78125m6.80078-1.78125l1.66016 1.80468m11.33984-2.58984l-6.17187 3.35547m6.17187-3.35547l2.04688 1.35156m10.91797-1.8789l-5.47266 4.40625m5.47266-4.40625l2.25781.96484m11.01563-1.01563l-5.38672 4.50782m5.38672-4.50782l2.27343.92188m11.03516-.9336l-5.3711 4.53125m5.3711-4.53125l2.27734.91407m-3.0586-.2539l1.13673.45702m12.35937-1.67578l-4.17578 5.65235m4.17578-5.65235l2.42969.35938m-3.03516.46093l2.42579.36329m11.76953-.96094l-4.72266 5.20312m4.72266-5.20312l2.3789.60547m-3.0664.15234l1.1914.30469m13.01953-.85547l-5.14062 4.78906m5.14062-4.78906l2.32032.80078m10.45312-1.27344l-4.0586 5.73438m4.0586-5.73438l2.4336.3125m11.1328-.1211l-4.55859 5.35157m4.5586-5.35156l2.39453.53125m10.35156-.92578l-3.41797 6.14062m3.41797-6.14062l2.45313.04687m11.51172.42188l-4.71875 5.20703"/><g clip-path="url(#ad)"><path fill="none" stroke="#000" stroke-linecap="round" stroke-linejoin="round" stroke-miterlimit="10" stroke-width=".5" d="M465.92188 397.83594l2.3789.60156"/></g><g clip-path="url(#ae)"><path fill="none" stroke="#000" stroke-linecap="round" stroke-linejoin="round" stroke-miterlimit="10" stroke-width=".5" d="M142.83594 390.4375l2.32812-6.6289"/></g><path fill="none" stroke="#000" stroke-linecap="round" stroke-linejoin="round" stroke-miterlimit="10" stroke-width=".5" d="M156.2461 390.46875l2.13671-6.6914m-2.13672 6.6914l-2.41406.4375m16.96484-.27344l-.33593-7.01953m.33594 7.01953l-2.10938 1.2539m18.22266-2.8789l-5.9297-3.76953m15.63282 5.33985l1.29297-6.90625m-1.29297 6.90625l-2.34375.73046m18.41016-1.37109l-4.20703-5.6289m4.20703 5.6289l-1.04688 2.21875m14.73047-2.53516l-4.94531-4.99609m4.94531 4.9961l-.73047 2.33984m14.94531-3.85156l-6.74609-1.97266m5.76563 1.6875l.24609 1.19922m14.1914-1.97656l-7.02734.15234m7.02735-.15235l1.1953 2.14454m12.11329-2.23047l-7.01953.32422m7.01953-.32422l1.2539 2.10937m12.04688-2.3164l-6.98828.73828m6.98828-.73828l1.3711 2.03515m-2.38672-1.92578l.68359 1.01563m13.63672-1.21094l-6.96875.91015m6.96875-.91015l1.42187 2m-2.43359-1.86719l.71094 1m13.58593-1.32031l-6.90625 1.28515m6.90625-1.28515l1.52735 1.92187m-2.53125-1.73437l.76562.96094m13.60157-.8086l-7.00391.60547m7.0039-.60547l1.33204 2.0625m-2.35157-1.97265l.66797 1.02734m13.51953-1.86328l-6.70703 2.09765m6.70703-2.09765l1.7461 1.72656m-2.72266-1.42187l.8711.86328m13.45312-1.0586l-6.77344 1.87891m6.77344-1.8789l1.6875 1.78124m-2.67578-1.5078l.84766.89062m13.48046-1.06641l-6.82421 1.6836m6.82421-1.6836l1.63672 1.82813m-2.6289-1.58204l.8164.91407m13.32032-1.67579l-6.48047 2.71875m6.48047-2.71875l1.89843 1.55079m-2.84375-1.15625l.95313.77343m13.04687-1.67187l-5.96093 3.72265m5.96093-3.72265l2.125 1.22656m-2.99218-.6836l1.0625.61329m12.7539-1.64063l-5.23047 4.69141m5.23047-4.6914l2.30469.84765m-3.0625-.16406l1.14844.42187m12.85156-1.1836l-5.08594 4.84767m5.08594-4.84766l2.32812.77344m-3.0664-.07032l1.16406.38672m12.63672-1.33203l-4.57813 5.33203m4.57813-5.33203l2.39453.53906m10.83984-.60546l-4.41796 5.46484m4.41796-5.46485l2.40625.46485m10.60938-.67969l-3.82031 5.89844m3.82031-5.89844l2.44531.21094m11.80469.67578l-5.6914 4.1211m4.86327-3.51954l1.10157.53906"/><g clip-path="url(#af)"><path fill="none" stroke="#000" stroke-linecap="round" stroke-linejoin="round" stroke-miterlimit="10" stroke-width=".5" d="M141.04688 375.71094l5.90625-3.80469"/></g><path fill="none" stroke="#000" stroke-linecap="round" stroke-linejoin="round" stroke-miterlimit="10" stroke-width=".5" d="M155.77734 376.96875l3.07422-6.32031m-3.07422 6.32031l-2.45312.08594m2.90234-1.00781l-2.45312.08984m15.59375.94922l2.52734-6.55469m-2.52734 6.55469l-2.4375.29687m2.80469-1.25l-1.21875.14844m14.96093 1.00781l.9375-6.96484m-.9375 6.96484l-2.30078.85547m17.80469-1.27344l-3.4414-6.125m2.9414 5.23438l-.66406 1.03125m14.41015-.10156l-3.30078-6.20313m3.30078 6.20313l-1.3711 2.03515m15.66798-2.8086l-5.26563-4.65624m5.26563 4.65625l-.57422 2.38672m14.58984-3.60547l-6.66797-2.22266m6.66797 2.22266l.40625 2.42187m13.08594-3.37109l-7.01953-.32031m7.01953.32031l1.05078 2.21484m12.25781-2.14453l-7.01172-.46094m7.01172.46094l1.00782 2.23828m-2.02735-2.30468l.5039 1.11718m13.83204-1.53906l-7.00781.51563m7.00781-.51563l1.3086 2.07422m-2.32813-2l.65234 1.03906m13.64063-1.44922l-6.92578 1.1875m6.92578-1.1875l1.5 1.9375m-2.50782-1.76562l1.5 1.9414m12.7461-2.44921l-6.77344 1.85937m6.77344-1.85937l1.6836 1.78125m-2.66798-1.51172l1.6836 1.78515m12.58203-2.17578l-6.70703 2.09766m6.70703-2.09766l1.7461 1.72656m-2.72266-1.41796l1.74609 1.72265m12.69922-1.20312l-7.01172.44531m7.01172-.44531l1.28515 2.08984m-2.30468-2.02344l1.28515 2.08985m13.0547-2.01172l-7.02345.15625m7.02344-.15625l1.19922 2.14062m-2.22266-2.11718l1.19922 2.14062m13.07813-2.73828l-6.90235 1.30469m6.90235-1.30469l1.53515 1.91406m-2.53906-1.72656l1.53516 1.91797m12.66797-2.55469l-6.67188 2.20313m6.67188-2.20313l1.77343 1.69531m-2.74218-1.375l1.77343 1.69532m12.26953-2.57813l-6.1875 3.32813m6.1875-3.32813l2.03907 1.35938m-2.9414-.875l2.04296 1.35937m12.21094-1.77734l-6.26172 3.19531m6.26172-3.19531l2.00781 1.40625m-2.92188-.9414l1.00782.70312m12.89843-1.6836l-5.61718 4.22656m5.61718-4.22656l2.22266 1.03906m-3.03906-.42187l1.10937.51953m13.07422-1.0664l-5.71875 4.08593m5.71875-4.08594l2.19531 1.09375m-3.02734-.5l1.09766.54688m12.84765-1.39453l-5.3164 4.59375m5.3164-4.59375l2.28907.88672m-3.0625-.21875l1.14453.44531m12.35547-1.65625l-4.14063 5.67969m4.14063-5.67969l2.42968.34766m11.30078.0078l-4.96875 4.96876m4.2461-4.2461l1.17187.35938"/><g clip-path="url(#ag)"><path fill="none" stroke="#000" stroke-linecap="round" stroke-linejoin="round" stroke-miterlimit="10" stroke-width=".5" d="M140.54688 361.14063l6.90625-1.29297"/></g><path fill="none" stroke="#000" stroke-linecap="round" stroke-linejoin="round" stroke-miterlimit="10" stroke-width=".5" d="M154.8789 363.02344l4.875-5.0625m-4.875 5.0625l-2.35937-.67188m3.0664-.0625l-1.17968-.33984m13.70703.9961l5.03125-4.90626m-4.29687 4.1914l-1.16797-.37108m16.19922 2.14843l.1328-7.02734m-.1328 7.02734l-2.1875 1.10938m16.67578-1.28906l-2.21094-6.67188m2.21094 6.67188l-1.69531 1.77343m1.37109-2.74219l-.84766.88672m16.38672-1.4375l-6.01562-3.6328m5.14062 3.10546l-.0664 1.22656m14.61328-1.5l-6.72657-2.03125m6.72657 2.03125l.47656 2.40625m12.92187-2.73437l-6.89453-1.3711m6.89453 1.3711l.70703 2.34765m-1.71093-2.54687l.35547 1.17187m14.01562-1.33593l-6.9961-.64454m6.9961.64454l.94922 2.26171M253 360.72267l.47656 1.1289m13.85938-1.0664l-7-.58204m7 .58204l.96875 2.2539m-1.98828-2.33984l.48437 1.1289m13.86328-1.33593h-7.02734m7.02734 0l1.15235 2.16797m-2.17578-2.16797l1.15234 2.16797m13.17578-2.41797l-7.00781.5m7.00781-.5l1.30469 2.07812m-2.32422-2.0039l1.30469 2.07812m13.01171-2.34765l-6.96875.89453m6.96875-.89454l1.41797 2m-2.43359-1.87109l1.41797 2.0039m12.91797-2.09374l-6.98047.8125m6.98047-.8125l1.39453 2.01953m-2.41016-1.89844l1.39453 2.01563m12.84766-2.61329l-6.80078 1.76954m6.80078-1.76954l1.66016 1.8047m-2.65235-1.54688l1.66016 1.80469m12.66406-1.9961l-6.83594 1.63672m6.83594-1.63672l1.625 1.83594m-2.6211-1.59766l1.625 1.83594m12.75391-1.69922l-6.97265.88281m6.97265-.8828l1.41407 2.0039m-2.4297-1.875l1.41798 2.0039m12.89453-2.2539l-6.9375 1.1289m6.9375-1.1289l1.48437 1.95312m-2.49218-1.78906l1.48437 1.95313m12.72266-2.60938l-6.70313 2.10938m6.70313-2.10938l1.75 1.72266m-2.72656-1.41407l1.75 1.71875m12.46093-2.25l-6.54297 2.5547m6.54297-2.5547l1.86328 1.60157m-2.8125-1.23047l1.85938 1.60156m12.39844-1.99219l-6.53125 2.59766m6.53125-2.59766l1.87109 1.58594m-2.82031-1.21094l1.8711 1.58985m12.30468-2.16797l-6.35156 3.0039m6.35156-3.0039l1.96875 1.46484m-2.89453-1.02734l1.96875 1.46484m12.09765-2.22265l-6.0039 3.64453m6.0039-3.64454l2.10938 1.25391m-2.98047-.72656l2.10938 1.2539m12.15234-1.65625l-6.15625 3.39063m6.15625-3.39063l2.05469 1.33985m-2.94922-.84766l1.02734.67188m13.05078-1.3789l-5.89453 3.82421"/><g clip-path="url(#ah)"><path fill="none" stroke="#000" stroke-linecap="round" stroke-linejoin="round" stroke-miterlimit="10" stroke-width=".5" d="M466.50781 358.58203l2.14844 1.1914"/></g><path fill="none" stroke="#000" stroke-linecap="round" stroke-linejoin="round" stroke-miterlimit="10" stroke-width=".5" d="M465.65234 359.13672l1.07032.59765"/><g clip-path="url(#ai)"><path fill="none" stroke="#000" stroke-linecap="round" stroke-linejoin="round" stroke-miterlimit="10" stroke-width=".5" d="M140.48828 347.08203l7.02344.1914"/></g><path fill="none" stroke="#000" stroke-linecap="round" stroke-linejoin="round" stroke-miterlimit="10" stroke-width=".5" d="M154.6289 349.4414L160 344.91407m-5.3711 4.52735l-2.27734-.91016m3.0586.2539l-2.27735-.91406m18.6836 2.61329l-2.3711-6.61329m2.3711 6.61329l-1.65235 1.8164m13.32031-1.64062l.92188-6.96485m-.92188 6.96485l-2.29687.85937m2.42969-1.8711l-1.14844.4297m16.6289.09375l-3.67577-5.98829m3.67578 5.98829l-1.2422 2.11718m.70704-2.98828l-.6211 1.0586m15.66016-1.39844l-6.05469-3.5664m6.0547 3.5664l-.10548 2.45312m-.77343-2.97265l-.10938 2.45312m14.75-3.19531l-6.94922-1.04297m6.94922 1.04297l.82031 2.3164m-1.82812-2.46875l.40625 1.16016m13.95312-1.38672l-7.01953-.28515m7.01953.28515l1.06641 2.21094m-2.08594-2.2539l.53125 1.10546m13.79297-.88281l-6.9961-.64453m6.9961.64453l.94922 2.26172M253 347.40625l.47656 1.1289m13.86719-1.15234l-7.01563-.41015m7.01563.41015l1.02344 2.23047m-2.04297-2.28906l1.02344 2.23047m13.3125-2.21875l-7.01954-.3164m7.01954.3164l1.05468 2.21875m-2.07421-2.26172l1.05078 2.21484m13.28125-2.52344l-7.01563.38672m7.01563-.38671l1.26953 2.10156m-2.28906-2.04688l1.26953 2.10156m13.0078-2.63671l-6.89843 1.34765m6.89844-1.34765l1.54297 1.90625m-2.54688-1.71094l1.54688 1.90625m12.78515-2.02735l-6.92578 1.19922m6.92578-1.19921l1.50391 1.9375m-2.51172-1.76172l1.5039 1.9375m12.83204-2.01563l-6.95313 1.0039m6.95313-1.0039l1.45312 1.98047m-2.46484-1.83203l1.44922 1.97656m12.8164-2.44922l-6.82812 1.65235m6.82813-1.65235l1.6289 1.83203m-2.6211-1.59375l1.62891 1.83594m12.63672-2.23047l-6.7461 1.96485m6.7461-1.96485l1.71094 1.75781m-2.6914-1.47265l1.71093 1.75781m12.63281-1.86328l-6.84375 1.60547m6.84375-1.60547l1.6172 1.84766m-2.61329-1.61329l1.61719 1.84766m12.5664-2.5039l-6.58593 2.44921m6.58593-2.44921l1.83594 1.6289m-2.79297-1.27344l1.83203 1.62891m12.37891-2.14063l-6.46484 2.76172m6.46484-2.76171l1.91016 1.54296m-2.85157-1.14062l1.91016 1.54297m12.3164-2.00781l-6.40624 2.88671m6.40625-2.88671l1.9414 1.5m-2.8711-1.07813l1.9375 1.5m12.22657-2.08594l-6.2461 3.21485m6.2461-3.21485l2.01953 1.39844m-2.92578-.92969l2.01563 1.39844m-2.92578-.9336l1.0078.69923m14-1.85547l-5.99609 3.66015m5.9961-3.66015l2.11328 1.25m-2.98438-.71875l2.10938 1.25m12.29687-1.36329l-6.43359 2.82422m6.4336-2.82421l1.92578 1.51953m-2.86329-1.10938l.96485.76172m13.45312-.70703l-6.76562 1.89453"/><g clip-path="url(#aj)"><path fill="none" stroke="#000" stroke-linecap="round" stroke-linejoin="round" stroke-miterlimit="10" stroke-width=".5" d="M466.94531 346.23047l1.6914 1.77734"/></g><path fill="none" stroke="#000" stroke-linecap="round" stroke-linejoin="round" stroke-miterlimit="10" stroke-width=".5" d="M465.96094 346.50781l1.6914 1.77344"/><g clip-path="url(#ak)"><path fill="none" stroke="#000" stroke-linecap="round" stroke-linejoin="round" stroke-miterlimit="10" stroke-width=".5" d="M140.54297 334.5l6.91406-1.27344"/></g><path fill="none" stroke="#000" stroke-linecap="round" stroke-linejoin="round" stroke-miterlimit="10" stroke-width=".5" d="M154.05078 335.16406l6.52734-2.60156m-6.52734 2.60156l-1.8711-1.58594m18.26173 3.79297l.3789-7.01562m-.3789 7.01562l-2.22657 1.03516m2.28125-2.05469l-2.22656 1.03125m15.95703-.01562l-.5625-7.00781m.5625 7.0078l-2.0664 1.32032m1.98437-2.33984l-1.03516.66015m14.90625.28516l-1.51171-6.85938m1.51172 6.85938l-1.8672 1.59375m1.64845-2.58985l-1.8672 1.58985m14.35548-.52344l.57812-7m-.57812 7l-2.25.97266m2.33593-1.98828l-1.1289.48437m15.59375.41406l-1.89063-6.76562m1.89063 6.76562l-1.77735 1.69141m1.5-2.67578l-.88672.84765m16.8711-4.33984l-6.67578 2.1875m6.67578-2.1875l1.76953 1.69922m-2.73828-1.38281l1.76953 1.69922m12.5664.0039l-6.77734-1.85156m6.77735 1.85156l.53906 2.39453m-1.52734-2.66406l.54296 2.39453M251.9375 334.25l.26953 1.19531m15.125-1.2539l-6.9961-.65625m6.9961.65625l.94531 2.26562m-1.96093-2.36328l.9453 2.26563m13.38282-2.875l-6.98828.7578m6.98828-.7578l1.3789 2.03125m-2.39452-1.92188l1.375 2.03125m12.94922-2.20703l-6.97266.88672m6.97265-.88672l1.41407 2.0039m-2.42969-1.875l1.41406 2.00391m12.86328-2.4336l-6.86718 1.4922m6.86718-1.4922l1.58594 1.875m-2.58594-1.65624l.79297.9375m13.47656-1.34375l-6.77734 1.86328m6.77735-1.86328l1.68359 1.78515m-2.67188-1.51171l1.6875 1.78125m12.6211-2.02344l-6.78906 1.80469m6.78906-1.8047l1.67187 1.79688m-2.65625-1.53515l.83203.89843m13.54297-.8164l-6.9375 1.11719m6.9375-1.1172l1.48047 1.95704m-2.49219-1.79297l.7422.97656m13.53515-1.38281l-6.83985 1.60156m6.83985-1.60156l1.61719 1.84766m11.59765-2.19532l-6.64062 2.29297m6.64062-2.29297l1.79688 1.67188m-2.76172-1.33594l1.79687 1.67188m12.16406-2.6875l-6.0039 3.65234m6.0039-3.65234l2.10938 1.2539m-2.98047-.72265l1.05469.6289m13.4336-.53125l-6.60548 2.39453m6.60547-2.39453l1.82031 1.64453m11.50391-1.61328l-6.625 2.33594m6.625-2.33594l1.8086 1.65625m-2.76954-1.3164l.90235.82812m13.33984-1.26562l-6.55469 2.53125m6.5547-2.53125l1.85546 1.60546m-2.8086-1.23828l1.85548 1.60547m12.1328-2.54297l-5.99609 3.66797m5.9961-3.66797l2.11328 1.25m-2.98828-.71484l2.11328 1.2461m12.1836-1.58985l-6.21094 3.28906m6.21093-3.28906l2.03125 1.375m-2.9336-.89453l2.03126 1.375m-2.9375-.89844l1.01562.6875m14.20313-1.45312l-6.39844 2.90625"/><g clip-path="url(#al)"><path fill="none" stroke="#000" stroke-linecap="round" stroke-linejoin="round" stroke-miterlimit="10" stroke-width=".5" d="M466.76172 332.41016l1.94531 1.49609"/></g><g clip-path="url(#am)"><path fill="none" stroke="#000" stroke-linecap="round" stroke-linejoin="round" stroke-miterlimit="10" stroke-width=".5" d="M465.83203 332.83203l1.9414 1.5"/></g><g clip-path="url(#an)"><path fill="none" stroke="#000" stroke-linecap="round" stroke-linejoin="round" stroke-miterlimit="10" stroke-width=".5" d="M140.69922 321.7461l6.60156-2.39844"/></g><path fill="none" stroke="#000" stroke-linecap="round" stroke-linejoin="round" stroke-miterlimit="10" stroke-width=".5" d="M155.03906 323.22266l4.55469-5.35157m-4.55469 5.35157l-2.39844-.52735m3.0586-.25l-1.19531-.26172m15.48437 1.82032l1.28125-6.91016m-1.28125 6.91016l-2.33984.73437m2.52734-1.74219l-2.33984.73829m16.78515.26171l-1.35156-6.89453m1.35156 6.89453l-1.90234 1.54688m1.70703-2.55078l-.95312.77344m15.0664.05468l-2.55469-6.54687m2.5547 6.54687l-1.60157 1.86328m1.23047-2.8164l-1.60156 1.86328m1.22656-2.8125l-.79688.92969m14.9922.91796l-2.82423-6.43359m2.82422 6.4336l-1.51953 1.92578m1.10938-2.86329l-1.52344 1.92579m1.10937-2.85938l-.75781.96094m14.82813.9375l-2.6875-6.49219m2.6875 6.49219l-1.5586 1.89453m1.16797-2.83984l-1.5625 1.89453m1.17188-2.83594l-1.5625 1.89063m15.55859.03515l-2.48828-6.57031m2.48828 6.57031l-1.61719 1.84766m1.25781-2.80078l-1.62109 1.84375m17.33203-2.91797l-6.5625-2.51172m6.5625 2.51172l.30078 2.4336m-1.2539-2.80079l.30078 2.4375m14.1914-3.07813l-7.0078-.5m7.0078.5l.9961 2.2422m-2.01563-2.3125l.9961 2.24218m13.30078-2.99219l-6.9336 1.14063m6.9336-1.14063l1.48828 1.95313m-2.4961-1.78516l1.48829 1.94922m12.7578-2.47656l-6.77733 1.86328m6.77734-1.86328l1.6836 1.78515m-2.67188-1.51562l1.6836 1.78515m12.51171-2.3828l-6.5625 2.51952m6.5625-2.51953l1.85156 1.60938m-2.8086-1.24219l.92579.80469m13.33203-1.20703l-6.53515 2.58593m6.53515-2.58593l1.86719 1.59375m-2.8164-1.21485l.93359.79297m13.26172-1.33203L327.21094 322m6.39844-2.90625l1.9453 1.4961m-2.875-1.07032l.97266.7461m13.46485-.63282l-6.78516 1.82813m6.78516-1.82813l1.67578 1.79297m-2.66016-1.52734l.83594.89844m13.42188-1.3086l-6.69922 2.1211m6.69922-2.1211l1.7539 1.71875m11.71485-.91406l-7.00782.51172m5.98828-.4375l.65235 1.03906m12.63672-3.36719l-4.91797 5.01953m4.91797-5.01953l2.35547.6914m11.73828.44532l-6.47266 2.74219m5.53125-2.34375l.95313.77344m7.51562-2.21485l5.10547 4.82813m-4.36328-4.125l.32422-1.1836m12.86718-.03906l3.8672 5.86719m-3.3047-5.01172l.58594-1.07813m16.125.28907l-4.05078 5.73828m3.46094-4.90625l1.21875.15625m13.44531-.26172l-5.57031 4.28516m5.57031-4.28516l2.23438 1.01172m-3.04688-.39063l1.11719.50782m12.92187-1.23829l-5.39453 4.50391"/><g clip-path="url(#ao)"><path fill="none" stroke="#000" stroke-linecap="round" stroke-linejoin="round" stroke-miterlimit="10" stroke-width=".5" d="M466.25781 318.29688l2.27344.92578"/></g><path fill="none" stroke="#000" stroke-linecap="round" stroke-linejoin="round" stroke-miterlimit="10" stroke-width=".5" d="M465.47266 318.95313l2.27343.92578m-3.05859-.27344l1.13672.46484"/><path fill="#ff3030" fill-rule="evenodd" d="M362.30469 441.01953h7.6914V430.8711h-7.6914v10.14844"/><path fill="azure" fill-rule="evenodd" d="M364.13672 432.70703h.83203v5.73828h3.19531v.73828h-4.02734v-6.47656"/><path fill="#ff3030" fill-rule="evenodd" d="M295.72656 414.38672h7.69531v-10.14453h-7.6953v10.14453"/><path fill="azure" fill-rule="evenodd" d="M297.5586 406.07422h.83593v5.74219h3.1914v.73828h-4.02734v-6.48047"/><path fill="#ff3030" fill-rule="evenodd" d="M211.39844 374.4414h7.6914v-10.14452h-7.6914v10.14453"/><path fill="azure" fill-rule="evenodd" d="M213.23047 366.1289h.83594v5.7422h3.1914v.73827h-4.02734v-6.48046"/><path fill="#ffffe0" fill-rule="evenodd" d="M337.30469 389.54688h22.17969v-10.19141h-22.1797v10.1914"/><path fill-rule="evenodd" d="M340.80469 381.1875h.50781v6.29297h-.78516v-4.48828h-1.39062v-.55469l.5625-.0664.25-.0547.23047-.08593.20312-.14453.17578-.20703.14063-.29688.10547-.39453m4.8125 0l.23047.01953.21875.05469.20703.08984.19922.1211.18359.14843.17188.17579.30078.42187.24218.49219.1797.54687.11327.57813.03906.58984-.03906.59375-.11328.58594-.17969.55469-.24218.5-.30079.42968-.17187.1797-.1836.15233-.19921.125-.20703.08985-.21875.0586-.23047.01952-.22656-.01953-.21875-.0586-.21094-.08983-.19531-.125-.1836-.15235-.17187-.17969-.30079-.42968-.24218-.5-.1836-.5547-.10937-.58593-.03906-.59375h.83203l.03125.5664.08203.50391.125.44141.16406.375.1875.30078.21094.22266.22265.13672.22657.04687.22656-.04687.22266-.13672.21093-.22266.19141-.30078.16406-.375.125-.4414.08203-.50391.02735-.5664-.02735-.5586-.08203-.5-.125-.4375-.16406-.36719-.1914-.28906-.21094-.21485-.22266-.1328-.22656-.04298-.22656.04297-.22266.13281-.21094.21485-.1875.28906-.16406.36719-.125.4375-.08203.5-.03125.5586h-.83203l.03906-.58985.10937-.57813.1836-.54687.24219-.49219.30078-.42188.17187-.17578.1836-.14843.1953-.1211.21094-.08984.21875-.05469.22657-.01953m5.09375 0h.50781v6.29297h-.78516v-4.48828h-1.39062v-.55469l.5625-.0664.25-.0547.23047-.08593.20312-.14453.17188-.20703.14453-.29688.10547-.39453m2.82422 2.17578h.78515l.01953-.3164.0586-.28516.10156-.2539.14063-.21485.17968-.17578.22266-.1289.26562-.07813.3086-.02735.23828.01953.22265.0625.20313.10157.17969.14062.14844.17188.11328.20703.0703.23437.02735.26563-.02344.26953-.0664.22265-.10938.19141-.15234.17188-.20313.16406-.24609.16406-.63281.39063-.53906.3125-.4375.3164-.34766.32422-.26172.33594-.1914.35156-.125.36719-.07032.39453-.01953.41797h4.21094v-.73828h-3.33203l.08203-.28516.11719-.23437.14843-.20313.1836-.17969.23437-.17187.27735-.17578.71484-.41797.41797-.20313.34375-.23046.28125-.25391.21875-.26563.16406-.27734.11328-.28516.0625-.28515.01953-.28125-.04296-.38281-.1172-.34766-.1914-.3086-.25-.26171-.30078-.21485-.34766-.15625-.3789-.09765-.40625-.03516-.4375.03125-.39453.10156-.35547.16406-.30469.23438-.25.30469-.1836.375-.11718.44531-.03906.51953"/><path fill="#ffffe0" fill-rule="evenodd" d="M177.52344 343.98047h22.1836v-10.1914h-22.1836v10.1914"/><path fill-rule="evenodd" d="M181.02344 335.6211h.51172v6.29687h-.78907v-4.48828h-1.38672v-.5586l.5586-.0625.25-.05468.23047-.08985.20312-.14062.17578-.21094.14063-.29297.10547-.39844m4.8125 0l.23047.01954.21875.05859.20703.08594.19922.12109.18359.15234.17188.17579.30078.41796.24218.4922.1797.54687.11327.58203.03906.58984-.03906.59375-.11328.58203-.17969.55469-.24218.5039-.30078.42579-.17188.17969-.1836.15234-.19921.125-.20703.09375-.21875.05469-.23047.01953-.22656-.01953-.21875-.0547-.21094-.09374-.19531-.125-.1836-.15235-.17187-.17968-.30078-.42578-.2422-.50391-.17968-.55469-.11328-.58203-.03906-.59375h.83593l.02735.5625.08203.50781.125.44141.16406.375.1914.30078.21095.21875.22265.13672.22266.04688.22656-.04688.22266-.13672.21093-.21875.19141-.30078.16406-.375.125-.4414.08203-.50782.02735-.5625-.02735-.5625-.08203-.5-.125-.4336L186.6875 337l-.1914-.29297-.21094-.21484-.22266-.1289-.22656-.04688-.22266.04687-.22266.1289-.21093.21485-.1914.29297-.16407.36719-.125.4336-.08203.5-.02735.5625h-.83593l.03906-.58985.11328-.58203.17969-.54688.24219-.49219.30078-.41796.17187-.17579.1836-.15234.1953-.1211.21095-.08593.21875-.0586.22656-.01953m5.09375 0h.50781v6.29688h-.78516v-4.48828h-1.39062v-.5586l.5625-.0625.25-.05468.23047-.08985.20312-.14062.17578-.21094.14063-.29297.10547-.39844m2.82422 2.17579h.78515l.01953-.31641.0586-.28516.10156-.2539.14063-.21485.17968-.17187.22266-.1289.26562-.08204.3086-.02734.23828.02343.22266.0625.20312.10157.17969.13671.14844.17188.11328.20703.07422.23828.02343.26172-.02344.26953-.0625.22656-.11328.19141-.15234.16797-.20313.16406-.24609.16797-.63281.38672-.53906.3125-.4375.3164-.34766.32423-.26172.33593-.1914.35156-.125.3711-.06641.39453-.02344.41797h4.21094v-.74219h-3.33203l.08594-.28125.11328-.23828.14843-.20313.1875-.17968.23047-.17188.27735-.17578.71875-.41406.41406-.20703.34375-.23047.28125-.25.21875-.26953.16406-.27735.11328-.28125.0625-.28515.01953-.28125-.03906-.38672-.1211-.34766-.1914-.30469-.25-.26562-.30078-.21094-.34766-.16015-.3789-.09766-.40625-.03516-.4336.03516-.39843.09766-.35547.16796-.30469.23438-.25.30469-.1836.3711-.11718.44921-.03906.51563"/><path fill="#ffffe0" fill-rule="evenodd" d="M315.11328 344.71094h22.17969v-10.1914h-22.17969v10.1914"/><path fill-rule="evenodd" d="M318.61328 336.35156h.50781v6.29688h-.78515v-4.48828h-1.39063v-.5586l.5625-.0625.25-.05469.23047-.08984.20313-.14062.17578-.21094.14062-.29297.10547-.39844m4.8125 0l.23047.01953.21875.0586.20703.08594.19922.12109.1836.15234.17187.17578.30078.41797.24219.49219.17969.54688.11328.58203.03515.58984-.03515.59375-.11329.58203-.17968.55469-.24219.5039-.30078.42579-.17188.17968-.18359.15235-.19922.125-.20703.08984-.21875.0586-.23047.01953-.22656-.01954-.21875-.05859-.21094-.08984-.19531-.125-.1836-.15235-.17187-.17968-.30078-.42579-.2461-.5039-.17968-.55469-.10938-.58203-.03906-.59375h.83203l.03125.5625.08203.5039.125.44532.16406.375.1875.30078.21094.21875.22266.13672.22656.04687.22656-.04687L323.875 342l.21094-.21875.1914-.30078.16407-.375.125-.44531.08203-.50391.02734-.5625-.02734-.5625-.08203-.5-.125-.4336-.16407-.36718-.1914-.29297-.21094-.21484-.22266-.12891-.22656-.04688-.22656.04688-.22266.1289-.21094.21485-.1875.29297-.16406.36719-.125.43359-.08203.5-.03125.5625h-.83203l.03906-.58984.10938-.58204.17969-.54687.24609-.49219.30078-.41797.17188-.17578.18359-.15234.19531-.1211.21094-.08593.21875-.0586.22656-.01953m5.09375 0h.50781v6.29688h-.78515v-4.48828h-1.39063v-.5586l.5586-.0625.2539-.05469.23047-.08984.20313-.14062.17187-.21094.14453-.29297.10547-.39844m6.80469 1.6211h-.78906l-.05079-.21094-.08203-.1875-.10937-.16016-.1289-.1289-.14454-.10547-.16015-.07422-.16797-.04297-.17579-.01563-.32421.04297-.28907.1172-.24609.1953-.20313.26954-.16015.33984-.11719.40234-.07031.46875-.02344.52344.1875-.19922.1875-.16015.1875-.125.1836-.08594.1875-.0625.1914-.03516.40235-.02344.30859.03125.32031.08985.3164.15625.29298.21875.2539.28515.19922.35157.07422.19921.05078.21875.03125.23438.0039.25-.78515.04688-.02734-.25782-.07813-.2539-.1211-.23438-.16405-.20703-.19141-.17969-.21875-.13672-.24219-.08984-.2539-.03125-.25391.03125-.24219.08984-.21875.13672-.19531.17969-.16016.20703-.12109.23438-.07813.2539-.02734.25781.02735.25782.07812.25.1211.23437.16015.21094.19531.17969.21875.13672.24219.08593.2539.03125.25391-.03125.24219-.08593.21875-.13672.1914-.17969.16407-.21094.1211-.23437.07812-.25.02734-.25781.78516-.04688-.03125.3711-.09375.37109-.15625.35937-.22266.32813-.28906.28125-.17188.1211-.1875.10155-.20703.08204-.22265.0625-.2422.03906-.2578.01172-.28516-.01563-.25781-.04687-.23828-.07813-.21485-.10156-.19531-.13281-.17578-.15625-.15235-.1797-.13671-.20312-.1172-.22265-.09765-.24219-.14844-.53516-.08203-.59375-.02734-.64062.03906-.74219.11328-.66406.1875-.57813.1172-.2539.13671-.23047.15625-.20703.16797-.1836.1875-.15234.20312-.1289.21485-.10157.23437-.07422.2461-.04687.26171-.01563.3672.03516.33202.09765.29688.14844.2539.19922.21485.24219.16406.27344.11719.30468.0625.32032"/></g></defs><use xlink:href="#ap"/></svg>