<svg xmlns="http://www.w3.org/2000/svg" role="img" xmlns:xlink="http://www.w3.org/1999/xlink" viewBox="142.45 309.95 326.84 171.84"><defs><clipPath id="a"><path d="M144 311.67188h1v168.65625h-1zm0 0"/></clipPath><clipPath id="b"><path d="M144 311.67188h324v168.65625H144zm0 0"/></clipPath><clipPath id="c"><path d="M467 311.67188h1v168.65625h-1zm0 0"/></clipPath><clipPath id="d"><path d="M144 479h4v1.32813h-4zm0 0"/></clipPath><clipPath id="e"><path d="M147 480h2v.32813h-2zm0 0"/></clipPath><clipPath id="f"><path d="M153 479h9v1.32813h-9zm0 0"/></clipPath><clipPath id="g"><path d="M160 480h2v.32813h-2zm0 0"/></clipPath><clipPath id="h"><path d="M166 479h9v1.32813h-9zm0 0"/></clipPath><clipPath id="i"><path d="M173 480h3v.32813h-3zm0 0"/></clipPath><clipPath id="j"><path d="M172 480h2v.32813h-2zm0 0"/></clipPath><clipPath id="k"><path d="M180 479h8v1.32813h-8zm0 0"/></clipPath><clipPath id="l"><path d="M187 480h2v.32813h-2zm0 0"/></clipPath><clipPath id="m"><path d="M186 480h2v.32813h-2zm0 0"/></clipPath><clipPath id="n"><path d="M193 479h9v1.32813h-9zm0 0"/></clipPath><clipPath id="o"><path d="M200 479h3v1.32813h-3zm0 0"/></clipPath><clipPath id="p"><path d="M199 480h2v.32813h-2zm0 0"/></clipPath><clipPath id="q"><path d="M206 479h9v1.32813h-9zm0 0"/></clipPath><clipPath id="r"><path d="M213 479h3v1.32813h-3zm0 0"/></clipPath><clipPath id="s"><path d="M212 479h2v1.32813h-2zm0 0"/></clipPath><clipPath id="t"><path d="M220 479h8v1.32813h-8zm0 0"/></clipPath><clipPath id="u"><path d="M227 479h3v1.32813h-3zm0 0"/></clipPath><clipPath id="v"><path d="M226 479h2v1.32813h-2zm0 0"/></clipPath><clipPath id="w"><path d="M233 479h8v1.32813h-8zm0 0"/></clipPath><clipPath id="x"><path d="M240 479h3v1.32813h-3zm0 0"/></clipPath><clipPath id="y"><path d="M239 479h2v1.32813h-2zm0 0"/></clipPath><clipPath id="z"><path d="M246 478h9v2.32813h-9zm0 0"/></clipPath><clipPath id="A"><path d="M253 478h3v2.32813h-3zm0 0"/></clipPath><clipPath id="B"><path d="M260 479h8v1.32813h-8zm0 0"/></clipPath><clipPath id="C"><path d="M267 479h3v1.32813h-3zm0 0"/></clipPath><clipPath id="D"><path d="M273 479h8v1.32813h-8zm0 0"/></clipPath><clipPath id="E"><path d="M280 479h3v1.32813h-3zm0 0"/></clipPath><clipPath id="F"><path d="M286 479h9v1.32813h-9zm0 0"/></clipPath><clipPath id="G"><path d="M293 479h3v1.32813h-3zm0 0"/></clipPath><clipPath id="H"><path d="M292 479h2v1.32813h-2zm0 0"/></clipPath><clipPath id="I"><path d="M300 478h8v2.32813h-8zm0 0"/></clipPath><clipPath id="J"><path d="M306 478h4v2.32813h-4zm0 0"/></clipPath><clipPath id="K"><path d="M305 479h3v1.32813h-3zm0 0"/></clipPath><clipPath id="L"><path d="M313 478h8v2.32813h-8zm0 0"/></clipPath><clipPath id="M"><path d="M320 478h3v2.32813h-3zm0 0"/></clipPath><clipPath id="N"><path d="M319 478h2v2.32813h-2zm0 0"/></clipPath><clipPath id="O"><path d="M327 478h7v2.32813h-7zm0 0"/></clipPath><clipPath id="P"><path d="M333 478h3v2.32813h-3zm0 0"/></clipPath><clipPath id="Q"><path d="M340 477h7v3.32813h-7zm0 0"/></clipPath><clipPath id="R"><path d="M354 477h6v3.32813h-6zm0 0"/></clipPath><clipPath id="S"><path d="M368 476h5v4.32813h-5zm0 0"/></clipPath><clipPath id="T"><path d="M381 477h5v3.32813h-5zm0 0"/></clipPath><clipPath id="U"><path d="M395 476h4v4.32813h-4zm0 0"/></clipPath><clipPath id="V"><path d="M409 476h2v4.32813h-2zm0 0"/></clipPath><clipPath id="W"><path d="M421 477h6v3.32813h-6zm0 0"/></clipPath><clipPath id="X"><path d="M435 476h4v4.32813h-4zm0 0"/></clipPath><clipPath id="Y"><path d="M449 476h3v4.32813h-3zm0 0"/></clipPath><clipPath id="Z"><path d="M462 476h3v4.32813h-3zm0 0"/></clipPath><clipPath id="aa"><path d="M144 466h4v2h-4zm0 0"/></clipPath><clipPath id="ab"><path d="M144 453h4v2h-4zm0 0"/></clipPath><clipPath id="ac"><path d="M144 439h4v3h-4zm0 0"/></clipPath><clipPath id="ad"><path d="M144 425h4v4h-4zm0 0"/></clipPath><clipPath id="ae"><path d="M144 410h2v8h-2zm0 0"/></clipPath><clipPath id="af"><path d="M144 396h1v9h-1zm0 0"/></clipPath><clipPath id="ag"><path d="M144 402h1v2h-1zm0 0"/></clipPath><clipPath id="ah"><path d="M466 398h2v2h-2zm0 0"/></clipPath><clipPath id="ai"><path d="M144 383h2v8h-2zm0 0"/></clipPath><clipPath id="aj"><path d="M144 371h4v6h-4zm0 0"/></clipPath><clipPath id="ak"><path d="M144 358h4v5h-4zm0 0"/></clipPath><clipPath id="al"><path d="M466 358h2v2h-2zm0 0"/></clipPath><clipPath id="am"><path d="M144 346h4v2h-4zm0 0"/></clipPath><clipPath id="an"><path d="M466 345h2v3h-2zm0 0"/></clipPath><clipPath id="ao"><path d="M465 345h3v3h-3zm0 0"/></clipPath><clipPath id="ap"><path d="M144 332h4v3h-4zm0 0"/></clipPath><clipPath id="aq"><path d="M466 331h2v3h-2zm0 0"/></clipPath><clipPath id="ar"><path d="M465 332h3v3h-3zm0 0"/></clipPath><clipPath id="as"><path d="M144 318h4v5h-4zm0 0"/></clipPath><clipPath id="at"><path d="M465 317h3v3h-3zm0 0"/></clipPath><g id="au" clip-path="url(#clip1)"><path fill="#fff" fill-opacity="0" fill-rule="evenodd" d="M0 0h1000v1000H0zm0 0"/><path fill="#d3d3d3" fill-opacity="0" fill-rule="evenodd" d="M162.15234 355.86719l-.23437.29297.0586.23437.11718.17188.17578.23437.29297.34766.11328.0586.11719-.17188.0586-.23438.17577-.17578.46485-.17578h.69922l.23437.29297.28906.8164.0586.17579.17578.23046.35156.23438.69922.69922.17188.17578.23437.34765.23438.41016.28906.58203.41015.46485.23047.23437.23438.17578.11719.23047.17578.29297.17187 1.16406v.23438l.0586.28906.05859.11719.11719.11719.34765.41015.11719.17188.17578.17578.17578.23437.11719.17188.17188.35156.05859.23438.23437.40625.23438-.0586-.17578.17578-.0586.92969h-.58203l-.23437-.11328-.34766.11328-.11719.11719-.05859.29297-.0586.17578-.11718.17187-.46484.29297-.0586.23438-.0586.11328v.64453l.0586.17187v.41016l.0586.0586v.40624l.05859.40625.11719.17579.05859.05859.23047.64062-.0586.29297v.69922l-.05859.58203v.23438l-.0586.23047-.05468.35156v1.92187l.05469.1172h.42578l-.36719.11718-.02344.35156.89063 1.16797 1.74219.53906 1.33984.35938v.53906l.08984.8086.53516.71484 1.51953.26953.89063-.08594.08984 1.16406.53516.1797 1.16015-.1797 2.05469-.98437 1.16016-.36328 1.8789-.17578 1.69531-.1797-.17968.71876-1.51563.08594-1.25.08984-.80469.26953-1.07421.8086.26953.71875.53515.89843-.17968.625-.26563.8086.26563 1.07812.625.89844.80468.17969 1.25-.1797-.26562.72267.09766.5039.05468.29297v.17188l.0586.29296v.40625l.17578.1172.35156.11718h.40625l.29297-.17578.11328-.11719.0586-.11719.11718-.23047.0586-.17578.35156-.46484.23047-.17578.17578-.0586.17578.0586.0586.17578.11718.98828.05469.46875.0586.17188.11718.23437.17578.0586.8164.05859h.28907l.11719.23437.05859.40625.0586.35156v1.10547l.11718.29297.11719.34766.28906.69922.17578.35156.58203.7539.35157.17579.17187.0586.46875.23437.64063.46484.34765.23438.29297.17578.29297.05468.23047.0625.8164.34766.29297.17578.11328.17188.35157.35156.11719.17578.52343.64063v.28906l.0586.35156v.34766l.05859.35156.0586.28906.11718.0586.17188.05859h.17578l.58203.23437.17578.1172.17578.28905.17578.23438.11328.23437.29297.23047.11719.11719v.41016l.0586.05468.28906.23438.23437.11719.0586.11718.11718.17188.0586.11719.23047.23437.05859.17578.23437.0586.1172.05859-.1172.11328-.05859.11719v.11719l-.11719.29296-.11719.28907v.58203l.17579.11719.11718.05859.0586.11719.11719.11719.11328.05859.17578.34765.0586.35157.05858.40625v.17578l-.05859.17578-.11719.69922v.17187l.1172.17579.29296.29296h.40625l.17578.1172.11719.17187.11719.29296v.23438h-.52735l-.23047-.23438h-.23437l-.17578.0586-.0586.69922.0586.34765.11719.17579.17578.41015.11718.23047.28907.46875.17578.05469h.52344l.23437.0586.75781.64062.0586.29296v.23438l.05859.0586.23047.34765v.35156l-.11719.17188v.29297l.29297.28906.29297.17578.17187.0586.29297.17577.29297.1172.58203.40624.28906.23438.29297.17578.21875.16015.01563.01172.23047.17579.64062.52343.17578.23438.1172.17578.17577.17578.11328.17188v.64062l.1172.17578.46874.11719.58203.11719.23438.05859.23047.11328.29297.11719.11328.0586.58593.35156.28907.17187.17578.0625.17578.05469.17578.0586.69922.35155.28906.17579.23438.05468.28906.17578.23437.1172.64063.40624.29297.11719.17187.0586.23438.05859.41015.05859.23047.0586.23438.11718.0586.17188-.41017.17578.46875.0586.0586.29296.11328.23438.17578.05468.23438.0586.17578.05859.40625.11719.64062.23437.11719.17188.0586.23437v.17578l-.0586.1172-.0586.40624.23438.23438.11719.05859.34766.11719.64062.23047.17578.11718.28906.1172.17578.17577.23438.46485.58203 1.10546.17578.17579.34766.17578.17578.11719.35156.11718 1.04688.52344.23437.0586.46485.11327.29297.0586.46484.17578.75781.58203.23438.23438.34765.46484.17578.17578.28907.23438.8164.69921.29297.17579.28906.28906.29297.17578.29297.28906.69531.64063.17578.17578.29297.23437.28907.23438.46875.28906.64062.58203.34766.23438.23437.29297.34766.34765.35156.46485.9336.99218.34765.40625.11719.17579.23437.05859.11328.11719.64454.17578.23047.11328.23437.0586.29297.17577.23047.1172.9336.69921.40624.40625.23438.17578.40625.17578.23437.11719.8164.34766.34766.23437.23438.11719.29297.28906.23047.11719.7578.35156.35157.17188.23047.05859.29297.11719.23437.0586.8711.17577h.8164l.46875.23047.17188.0586.875.69921.46484.1172.29297.05858.17578.0586.23047.0586.46875.05859.34766.05859.35156.0586.40625.05859h.29297l.17187.0586v.23046l.17578.17578h.29297l.34766.0586.35156.05859.69922.11719h.64063l.46484-.23438.29297-.17578.17187-.11719.41016-.17187.28906-.17578.9336-.46485.46875-.29297.52343-.29296.46485-.17188.46484-.17578 1.05078-.46485.28906-.11718.41016-.11719.28906-.11719.52735-.17578 1.51562-.69922.58203-.34765.28907-.0586.29297-.0586.34765-.11718.875-.23047.35156-.11719h.11329l.23437-.05859.875-.23437.23438-.0586h.8125l.35156-.0586.8164-.11718.17188-.0586.35156-.05468.29297-.0586.23047-.05859.8164-.17578.17579-.0586h.34765l.23438-.05859.46484-.11718.75781-.17188.23438-.0586h.34765l.41016-.11718.28906-.0586 1.28516-.05859h.28906l.41016-.0586.23047-.05858h.17578l.875-.1172h.40625l.41015-.11718h.34766l.35156-.11328.8711-.0586h1.75l1.04687.28907.41016.11719.28906.11718.35156.11719.28907.11719 1.05078.17187.28906.0586h.29297l.29297.05859.17187.0586.41016.05859.17187.0586.1172.05858h.11718l.11719.0586.35156.0586h.11328l.41016.0664 1.92187.39453 1.92578.39453 1.51953.44922 1.69532.71875 2.14453.80469 1.60547-.71875 1.42968-.80469 1.16016-1.07813 1.25-.44921 3.03516-.71875 1.875-.35938 2.14453-1.34765 2.23437-1.25391 2.5-1.25781 1.69531-.44922 1.78516-.17969 1.16016-.26953.625.53906 1.33984-.26953.71485-.98828.98437-1.34375.44531-.17969.80469-.35937 1.875-.53907 1.78516-.44921 1.25-.26954 1.16015-.08984 1.69922-.08984 1.96094-.26954 1.25-.08984h.53906l.625-.08984h.89063l2.14453-.17969 2.41015-.17969 2.58985-.08984 1.69531.17969 1.60938.08984 1.42968.35938 1.16016.71875 1.875.98828 1.16015 1.52734.26563.71484.6289.08985.35548.89844.53515.53906.53516 1.52734 1.07422.35938h.53515l-.80469.53515.08985 1.70703.71484 2.69532.89063.80468.89453.98829.71484 1.2578 1.78516.53907 1.51953-.17969.35547 1.34375 1.60937-.80469.98047-.53906.26953.26953.31641-.21484.21875-.14453.80078.44922.44922-.35938h.35547l.53515-.26953.53907-.71875.53515-.26953.625-.98828 1.16016.44922.83984.3711 1.39454.61718 1.6953-.17969h1.60548l1.78515.08985.17969-1.70704.53516-1.34375.80468.26954.4922.84765.40233.40625-.08984.53906v.35938l.71485.44922.71093-.26953h1.42969l.35938.98828.4453 1.25781.71485 1.34375 1.25.6289 1.69531.62891.71485-.17969.17969-.53906.98046-.08984.44922.35937.08594 1.25782-.26563.6289-.53515.17969v.53906l.71484.98438.26563.53906.98437.98828.80078 1.07813-.26562.35937-.08985.89844-.625 2.33203-.35546 2.0664-.08985 1.79298-.17969.71875-.08984.53906v1.4375l-.98047 1.88281-.35937 1.70703-.53516.89844-.80469 1.16797-.26562.53906 2.05469 1.2539.08593.35938-.35546.53906-.08985-.17968v.80859l.08985 1.4375-.44532.71484-1.07422.09375-.26562.71485.53515.89844.8047.71875 1.16015.80859 1.33984.26953.44531.35938-.35546.44921-1.78907-.08984-1.25-.44922-.71484-.71875-.625-.08984-.17578 3.58984-.1875 1.3086h89.35937V311.70313h-55.26953v49.08203l.76172.125 3.28906.54296 2.02344 2.83594v2.7539l2.35156.33204 2.34766.33203h4.05078l-1.3789 4.16016-2.02344.70703-2.02344.70312-.54297.34375-2.59375 1.6172-.1875.11718-2.02344-2.07813-.73046-2.74218-2.67188-2.07813-1.375-3.5-.0664-.08203-1.95704-2.67188 2.75-1.41796v-49.08204H294.42187v91.41407l.1172.03125.1328.01172.07422.07421.10547.04688.08985.0586.08593.05859.08985.0586.29687.29687.0586.08984.03125.11719.02734.11719.01563.13671-.03125.1172-.0586.08983-.0586.08594-.04296.10547-.04688.10156-.02734.1211v.14453l.17578.26953.14844.14844.07422.08594.07422.07421.04296.10547.0625.08985.0586.08593.04297.10547.0586.08985.04687.10156.04296.10547.0586.08594.11719.17968.07421.07422.0625.08594.0586.08984.04297.10547.0586.08985.05858.08593.0625.08985.0586.08984.04297.10156.11719.17969.07421.07422.0586.08594.07422.07421.08984.0586.10547.04687h.14844l.1328-.01562.13282.01562.10156-.04687.07422-.07422.04688-.10156-.01563-.13281v-.14844l-.04687-.10547-.02735-.11719-.04687-.10156-.02735-.1211-.04296-.10156-.0625-.08984-.04297-.10156-.04297-.10547-.03125-.11719-.01563-.13281-.01171-.13672.08593-.0586.0586-.08593.12109-.03125.04297.10547.01562.1328v.1172l.0586.10156.0586.08984.08983.0586.14844.14843.0586.08985.04296.10547-.01171.10156.08593.0586.10547.04687.08594.0586.08984.05858.07422.07422-.11719.02735-.10546.04687-.08594.0586-.07422.07421-.0586.08985-.0625.08594-.02734.12109-.04687.10156-.04297.10547-.03125.11719-.01172.13281-.01563.13281v.14844l.02735.11719.04687.10547.04297.10156.0586.08984.07421.07422.08985.0586.07422.07421.08984.0586.0586.08984.04296.10547.04688.10156.11719.03125.1328.01563h.14845l.11718-.03125.10547.04297.04297.10547.04688.10156.02734.1211L299.5 410l.02734.11719.03125.1211.02735.11718.10547.04297.10156.04687.13281-.01562.14844.14844.0625.08593.07422.07422.07031.07422.08984.0625.10547.04297.10156.04297.1172.03125.13671.01562.11719-.03125.07422-.07422.02734-.11718-.01172-.13282-.03125-.12109-.02734-.11719.04297-.10547h.11719l.08984.0625.11719.02735h.14843l.13282.01562h.14843l.13282.01563.1328-.01563h.14845l.1328-.01562.13282-.01172.13672.01172.11719-.02735.13281-.01562.1914-.0586-.05859.17579-.01562.1328-.02735.1211-.01562.13281-.0586.08594-.1328.01563-.10548.04687-.10546.04297-.1172.03125-.11718.02735-.26563.03125h-.14843l-.13281.01562-.07422.07422.05859.08594.14844.14843.11719.1797.07421.0703.08985.0625.08984.0586.08594.0586.08984.05858.10156.04297.10547.0625.10547.04297.08594.0586.10547.04687.10156.04297.17969.11719.0586.08984-.04298.10156-.04687.10547.01562.13281.22266.22266.0586.08985.04296.10156.03125.1211.04297.10155.01563.13282.03125.11718.01171.13672.03125.11719.14844.14844.10156.04297.10547.04296.1172.03125.1328.01563.13672.01563h.11719l.11719-.03125.08984-.0586.04297-.10547.04688-.10156.04296-.10547.03125-.11719.01172-.1328v-.14845l-.01172-.1328-.01562-.13282-.03125-.11719-.04297-.10547-.04688-.10547-.04296-.10156-.04297-.10547-.01563-.13281.01563-.13281.02734-.11719.03125-.11719.02735-.1211.04687-.10155.08984-.0586.08594-.0625.07422-.07422.08984-.05859.22266-.22266.0586-.08593.07421-.07422.11719-.17969.0586-.08594v-.14844l-.07423-.07421-.10156-.04688-.10547-.04297-.10156-.04297-.0586-.08984-.04687-.10547-.02734-.11719.08984-.05859.11719-.03125.10156-.04297.17969-.11719.14844-.14843.01172-.13282-.01172-.10546-.08985-.0586-.1328.01563h-.14845l-.1328.01562-.13282-.01562-.1211-.03125-.08593-.0586-.07422-.07422-.0586-.08984-.0625-.08594-.11718-.17969-.0586-.08593.03125-.1211.08594-.05859.1211-.03125.05859-.08594v-.1211l-.03125-.11718-.0586-.08984-.05859-.08594-.04687-.10547-.02735-.11719-.01562-.1328.0586-.08985.07421-.07422.08984-.0586.1172-.17968.07421-.07422.0586-.08594.14843-.14844.1211-.03125.1328-.01562.13282.01562.07422.07422.04297.10547.01562.13281-.03125.1172-.11719.03124-.1328.01172-.14844.14844-.04297.10547-.04688.10156-.02734.1211-.03125.11718v.14844l.03125.11719.04297.10546.05859.08985.07422.07031.07422.07422.11719.03125.12109.02734.11719-.02734.1328-.01563h.1172l.08984.0586.07422.07422.04687.10546.0586.08594.10156.04688.13281.01562.10547.04297.08594.0586-.01172.10546-.07422.07422-.17969.11719-.05859.08984-.08984.0586-.07032.07422-.07421.07421-.0625.08985-.02735.11719-.01562.1328.01562.13282-.01562.13281v.14844l.01562.13281.02735.1172.03125.12108.07421.07422.08985.0586.08594.0586.08984.05858.11719.03125v.08594l-.10157.04688-.08984.0586-.26563.03124-.11718.02735h-.14844l-.10547.04296-.10156.04688-.0586.08984-.0625.23438-.01171.13281-.03125.1211-.01563.1328v.29298l-.01172.1328.01172.13673.01563.1328.1328.01563.13282.01172.1211.03125.08593.0586.07422.07421.04688.10547.04296.10157.01563.1328v.44532l-.01563.13281v.44532l.03125.26562.02735.11719.01562.13281.03125.11719.08594.21094.03125.26562v.14844l-.03125.11719-.02734.11718-.03125.1211-.02735.11719-.03125.11718-.03125.1211-.01171.1328-.01563.13282.08984.0586.1172-.03125.10155.01562.04688.10547-.03125.26562v.44141l-.04297.10547-.04688.10547-.04296.10156-.04297.10547-.0586.08594-.03125.12109-.04296.11719-.03125.11719-.01563.1328.01563.13282.05859.08984.10547.04688.08594.0586.05859.08593-.01172.13672-.03125.11719-.04297.10156v.44531l-.01562.13281v.14844l-.03125.11719-.04297.10547-.02735.11719-.04687.10546-.04297.10157-.03125.12109-.02734.11719-.03125.13281-.03125.11719-.02735.11719-.04297.10546-.03125.1172-.03125.12108-.01171.13282-.01563.13281v.29688l.02734.11718v.14844l.04688.39844.02734.11719.0586.08984.12109.03125h.14844l.13281-.01563.0586.08985v.11719l-.0586.08984-.08984.0586-.10157.04296-.10546.04688-.08985.05859-.08594.0586-.13671.01562-.1172-.03125-.1328-.01563-.10157.04688-.0625.08594-.01172.13671-.01562.13282-.03125.11719-.02735.11718-.01562.13281-.03125.1211v.29687l.01563.13282.03125.11718v.14844l.01171.13281v.14844l-.02734.11719-.04688.10156-.02734.1211-.03125.11718-.0586.08985-.07421.07421-.10156.04297-.10547.04688-.11719.02734-.1211.03125-.10156-.04687.0586-.08594.10547-.04688.02734-.11718.03125-.11719.02734-.1211.03125-.11718v-.14844l.01563-.13281-.03125-.11719-.04297-.10547-.10547.01563-.07422.07422-.10156.04296-.08984.0625-.07422.07422-.04297.10157-.01563.1328-.03125.1172L304.25 426l-.03125.11719-.02734.11719-.03125.12109-.02735.11719-.03125.11718-.04297.10547-.08984.0586h-.08984l-.1172-.03125-.03124-.08594.01562-.13672-.03125-.11719v-.14844l-.01171-.1328v-.14844l-.0625-.23438-.02735-.1211-.04297-.10156-.04687-.10546-.0586-.08594-.05859-.08985-.04297-.10546-.0625-.08594-.14844-.14844-.0703-.07422-.10548-.04687-.10547-.04297-.10156-.04297-.29687-.29688-.08985-.07421-.08594-.0586-.10546-.04297-.08985-.0625-.08594-.0586-.10546-.04296-.08985-.0586-.08594-.0625-.07421-.0703-.10547-.04688-.08594-.0586-.10547-.04296-.08984-.0625-.10156-.04297-.10547-.04297-.08594-.0586-.10547-.04687-.10547-.04297-.10156-.04687-.08985-.0586-.10156-.04297-.10547-.04296-.08984-.0625-.11719-.02735-.13281-.01562-.13281.01562H299.75l-.13281.01563-.11719-.03125-.08984-.0586-.07422-.07422-.08985-.05859-.10156-.04688h-.14844l-.12109-.02734-.10156-.04297-.07422-.07422-.11719-.17968-.08984-.0586-.10156-.04297-.08985-.0625-.10547-.04296-.08984-.0586-.08594-.0586-.10547-.04687-.0586-.08594-.05858-.08984-.04297-.10547-.04688-.10156-.07422-.07422-.08594-.0586-.07421-.07421-.08985-.0586-.22265-.22265-.04297-.10547-.03125-.26563.10547-.04296h.14453l.10547.04296.07421.07422.08985.0586.08594.0586.10546.04687.08985.05859.14844.14844.0703.07422.14845.14843.0625.08594.07421.07422.08594.0586.07422.07421.08985.0625.08984.0586.08594.05859.26953.17578.10156.04688.10547.04296.10156.04297.04688-.07421.05859-.08594.07422-.07422.07031-.07422.10547.04297.07422.07422.0586.08984.04296.10156.04688.10547.04296.10547.1211.02735.11719-.02735.07421-.08984.04297-.10547.0586-.08985.07422-.07421.10546-.04297.1172-.02735.1328.01172.08985.0586.14844.14843.05859.08985.04297.10547.04687.10156.04297.10547.04297.10156.10547.04688.10547.04296.13281.01563.08594-.0586.0586-.08984.07421-.07422.10547-.04297.11719.02735.10547.04687.10156.04297.10547.04297.10156.04688.17969.11718v.11719l-.01563.13281.01563.13281.01562.13672.0586.08594.10156.04688.1211.02734.11718.03125h.14844l.11719-.03125.05859-.08984.17969-.1172.05859-.08983.07422-.07422.0586-.08594.11718-.17969.17969-.11719.11719.03125.08984.0586.04297.07422-.01563.1328v.1172l.08985.05859h.14843l.13282-.01563.1328-.01171.26563-.03125.10547-.04297.11719-.03125.1211-.02735.07421-.07421.07031-.07422.0625-.08985-.01562-.10547-.04688-.10156-.10156-.04297-.10547-.01562-.11718.02734-.26563.03125h-.14844l-.07421-.07422-.08985-.0586-.11719-.03124-.11718-.02735-.13282-.01562h-.14843l-.13282.01563h-.29687l-.10547-.04688-.14844-.14844-.04297-.10156-.05859-.08984.22266-.22266.08593-.0586.10547-.04296.11719-.03125.13281-.01563.13281.01563.13672.01562.10157.04297.1328-.01172.08985-.0625.10156-.04297.0625-.08984-.04687-.10156-.08984-.0586-.1172-.03125-.10155-.04296-.0586-.08985-.0625-.08984v-.11719l.01563-.13281.10547-.04688.07421-.07031v-.1211l-.08984-.05859-.03125-.11719.08985-.05859.07421-.07422.04297-.10547.0586-.08984.04687-.10156.01563-.13281v-.14844l-.04688-.10547-.04297-.10156-.08984-.0586-.13281-.01562-.10157-.04297-.13671-.01563-.1172-.03125h-.4453l-.13282-.01562-.13281-.01172-.13281-.01563-.11719-.03125h-.14844l-.13281-.01562-.13281-.01172-.26563-.03125-.1211-.04297-.08593-.0586-.07422-.07421v-.14844l.01172-.13281.10547-.04688.10156-.04296.13281-.01563h.15235l.13281-.01562h.29297l.1211.03125.10156.04296.08984.0586.23438.0625.12109-.04688.08984-.05859.10156-.04297.13282-.01562.10547.04296.10156.04688.13281.01172.1211-.02735h.14453l.12109-.03125.11719-.02734.10547-.04687.07421-.07422.08594-.0586.14844-.14843.0586-.08594.04687-.10547.02734-.11719.01563-.10547-.10156-.04296-.08985-.0586-.11719-.03125-.10546-.04297-.08985-.0625-.07422-.08594-.07422-.07421-.10156-.04297-.10547-.04688-.10156-.04297-.0586-.08984-.04687-.10156-.08594-.21094-.0625-.08594-.05859-.08984-.07422-.07422-.08594-.0586h-.26953l-.11719.03126-.08984.05859-.10156.04297-.13281.01562-.10547-.01562-.02735-.11719-.0625-.08984-.11718-.03125-.10157-.04297-.14843-.14844-.03125-.11719-.01563-.10546.07422-.07422.17969-.1172.11719-.02733.11718-.03125.13672.01562.10156.04297.10547.04297.10156.04687.10547.04297.1172.03125.1328.01563.1172.02734.1328.01563.10547-.01563.08985-.0586-.07422-.07421-.10547-.04297-.07422-.07422-.07422-.08984-.14844-.14844-.08593-.0586-.08985-.05859-.07422-.07422-.08984-.0586-.10156-.04687-.1211-.02734-.10156-.04688-.10547-.04296-.11719-.03125-.10156-.04297-.1211-.03125h-.14843l-.11719.03125-.10546.04297-.08594.0625-.17969.11718-.08594.0586-.08984.0586-.10547.04687-.08594.05859-.10547.04297-.10156.04297-.10547.04687-.07422.07422-.05859.08985-.0586.08593-.04687.10547-.0586.08594-.07421.07422-.13281-.01172-.1172-.03125h-.11718l-.07422.07422-.08984.0586-.07422.07421-.08984.0586-.08594.05859-.10547.04687-.10156.04297-.13672.01563-.10156-.04297-.14844-.14844-.10547-.04688h-.08594l-.10547.04688-.10156.04297-.1211.03125-.11718-.03125-.07422-.07422v-.11719l.03125-.1211.07422-.0703.0586-.08985.07421-.07422.11719-.03125.10547-.04296h.29297l.13281-.01563.13672-.01563.10156-.04296.08985-.0586.10156-.04687.08984-.0586.13281-.01171.08985.05859.13281.01172.08984-.0586.08594-.05859.10547-.04297.08984-.0586.08594-.0625.08985-.05859.14843-.14843.0586-.08594.05859-.08985.10547-.04296.13281-.01563.11719.02735.1211.03125.05859-.0586.05859-.08984.03125-.26563.02734-.11719.10547.01172.13281.01563.10157-.04297.08984-.0586.0586-.08984.07421-.07422.0586-.08984.04687-.10156.01172-.13281-.01172-.13282-.04687-.10547-.14844-.14843-.0586-.08985-.05859-.08594-.04297-.10546v-.44532l.01563-.1328v-.14845l.01172-.1328-.0586-.0586-.08984.0586-.10156-.04298-.17969-.11719-.08594-.05859-.0625-.08984-.0586-.08985-.07421-.07421-.08594-.0586-.1211.03125-.10155.01172-.10547.04688-.08594.05859-.10547.04297-.14844.14844-.08984.05859-.08594.0586-.08984.0625-.10547.04296-.13281.01563v-.1211l.10547-.04297.11718-.03125.07422-.0703.04297-.10548v-.14844l-.02734-.11718-.14844-.14844-.13281-.01563h-.14844l-.11719.03125-.10547.04297-.10156.04297-.08984.0625-.11719.02735-.07422-.07422.01172-.13281-.04297-.10157-.04297-.10547-.08984-.05859-.11719.02734-.1211.03125-.11718.03125-.10156.04297-.1211.03125-.10156.04297-.10547.04297-.08984.0586-.10156.01562v-.11719l.01562-.13281-.0586-.08985-.07421.04297-.14844.14844-.0586.08985-.07421.07421-.04688.10547-.04296.10156-.07422.07422-.0586.08985-.07422.07422-.05859.08593-.07422.07422-.08984.0625-.07422.07031-.07422.07422-.10156.01563-.13281.01562-.10547-.04296v-.1211l.14843-.14844.04297-.10156.0586-.08984.04687-.10156.04297-.10547.0586-.08985.03124-.11719.04297-.10156.03125-.1211.02735-.11718.04687-.10547.04297-.10156.04297-.10547.07422-.07031.08984-.0625.08985-.0586.10156-.04296h.29687l.26563-.03125.10547-.04297-.07422-.07422-.11719-.03125-.10547-.04297-.08984-.0586-.10156-.04687-.08985-.0586-.10156-.04296-.10547-.04297-.08984-.0625-.08594-.0586-.10547-.04296-.10156-.04297-.1211-.03125-.11718-.03125-.10157-.04297L297.5 410.25l-.10156-.04297-.08985-.0586-.04296-.10546-.01563-.13281.10156-.04297.13281-.01563.13672.01563.13282-.01563.10156-.04297.0586-.08984.01562-.10547-.08985-.0586-.07421-.07421-.10157-.04297-.08984-.0586-.14844-.14843-.04297-.10547-.01562-.13281v-.29297l-.0586-.08985-.08984-.05859-.07422-.07422-.04297-.10547-.03125-.11718-.0586-.08985-.07421-.07422-.11719-.02734-.07422-.07422-.08984-.0586-.08984-.0625-.08594-.05859-.07422-.07421-.0586-.08594-.04687-.10547-.08594-.0586-.14843-.14843-.19532-.0586-.1328.01563-.10157.04297-.07422.07422-.04688.10156-.04296.10547-.0586.08984-.0586.08594-.29687.29687-.08984.0586h-.08594l-.0625-.08594-.04297-.10547.03125-.11719.0586-.08984.02734-.11719-.01172-.13281-.08984-.0625-.10547.04688-.11719.02734-.11719.03125-.26953.17578-.10156.04688-.11719.02734-.10546.04687-.08985.0586-.10156.04297-.0586-.08594-.04687-.10547.01563-.13281.04687-.10547.07031-.07422.07422-.07031.0586-.08985v-.14843l-.04297-.10547h-.23829l-.10156.04687-.03125.11719-.02734.11719-.03125.1211-.07422.04296-.13281.01563-.07422-.04688-.04297-.10156-.04297-.10547-.04687-.10156-.04297-.10547-.1211.03125-.10156.04297-.13281.01562-.11719.03125-.10547.04297-.08984.0586-.10156.04687-.1211.02734-.13281.01563-.10156-.04297-.0586-.08985-.04687-.10546-.04297-.10157-.04297-.10546v-.1172l.0586-.08984.08593-.05859.17969-.11719.10156-.04687.10547-.04297.10547-.0586.10156-.04296.08985-.0625.10156-.04297.10547-.0586.10156-.04687.08984-.0586.10547-.04296.10156-.04297.08985-.0625.10156-.04297.13672-.01563.11719.03125.10156.04297.1211.03125.10156.04297.10546.04688.10157.04296.10547.04297.10156.04688.10547.04297.10156.04297.10547.04687.08594.0586.10546.04296.1172.03125.10546.04297.10156.04688.08985.0586.10547.04296.10156.04297.10547.04687.11719.02735.10156.04687.1211.02735h.14843l.08594-.0586.01562-.10156.0586-.08984-.02735-.1172-.07422-.07421-.11719-.17969-.07421-.07422-.08985-.07421-.17969-.1172-.08593-.05859-.10547-.04296-.10156-.04688-.26954-.17578-.05859-.08985-.07422-.07421-.0586-.08985-.04296-.10156-.03125-.11719-.01563-.13672v-.5625l-.01171-.1328-.01563-.13282-.03125-.11719-.01562-.13281-.01172-.13281-.03125-.1211-.22266-.22265-.0586-.08594-.01562-.10547.03125-.11719.13281-.01562v-91.41406H172.9922v1.45312l-.0586.23438-.35156 1.05078-.17187.52343-.1172.34766-.17577.41016-.11719.17187-.23438.29297-.23046.0586h-.35157l-.11718.05859-.23047.40625v.29297l.11719.17578.23046.23047.1172.23437.64062.75781.29297.46485.17578.23437.23047.35156.23437.34766.64063.8164.17578.46485.17187.41016.11719.69531.17578.46875.11719 1.39844.0586.46484v.875l.11718 1.04688v4.78125l-.0586.46484-.35156 1.28125-.17578.52344-.11328.41015-.35156.9297L172.93359 336l-.23437.58203-.11719.17578-.17187.34766-.17578.40625-.35157.8164-.0586.29297-.11327.29297-.11719.28906-.0586.17579-.11718.875-.0586.40625-.05859.11718-.0586.17579-.05859.17187-.23047.52734-.11718.17188v.23437l-.11719.23438-.0586.17187-.17577.58594v.28906l-.0586.17579v.29296l-.0586.11329-.05859.52734v.17187l-.05468.23438v2.6211l-.17578.8164-.1172.17578-.17577.23438-.1172.17187-.11327.23438-.58594.93359-.23047.28906-.29297.46485-.17578.23437-.28906.35156-.35156.69922-.11328.23047-.17579.41016-.17578.23046-.40625.52735-.8164.69922-.29297.17187-.28906.23438-.17579.11719-.17578.17578-.52344.40625-.52734.17578-.17187.17578-.23438.05469-.64062.17578h-.75782m12.21094 31.02344l-1.07422.44921.35938.89454 1.25-.71485.44531-.53906-.98047-.08985"/><path fill="#d3d3d3" fill-opacity="0" fill-rule="evenodd" d="M201.50781 416.59766h-.89453l.44922.6289.98047.35938.80469-.08985.4453-.98828-.17577.08985-.71485-.35547-.89453.35547m154.6211 59.0703l-.0586-.52343v-.29297l.11328-.29297.0586-.23046.46875-.46875h.11328l.11719-.11329.11718-.05859h.17579l.23437-.0586h.34766l.23437.0586.11719.0586.23047.17187.0586.17578.11718.58203v.29297l-.11719.17578-.17187.28906-.17579.17579-.52734.52343-.23047.23438-.11719.0586h-.17578l-.11718-.0586-.40625-.29297-.17579-.11719-.11718-.0586-.0586-.11327-.05468-.1172m6.64062-10.95702l-.0586-.17188v-1.10937l.0586-.17188.17578-.0586.17188-.05858h.17578l.23437-.0586.1172.0586.05858.69921-.05859.17188-.11719.17578-.11718.0586-.23438.52343-.11328.0586h-.23438l-.05859-.1172m9.61328-14.39062l-.11719-.17578v-.69922l.29297-.875.1172-.17187.17577-.35156.11328-.23047.1172-.29297.35155-.75781.1172-.23047.17187-.23438h.17578l.11719-.0586h.64062l.11719.0586.23437.23438.17188.11328.35156.29297.11719.11718.11328.17579v.11328l.11719.05859.11718.11719v.69922l-.05859.17578v.23047l-.0586.17578-.34765 1.05078-.11719.23047-.11719.23437-.11718.0586-.23047.23437-.64063.28906h-.875l-.41015-.11718-.64063-.46485"/><path fill="none" stroke="#bebebe" stroke-linecap="round" stroke-linejoin="round" stroke-miterlimit="10" stroke-width=".5" d="M467.95703 311.69531H144.02734v168.625h323.9297v-168.625"/><g clip-path="url(#a)"><path fill="#fff" fill-opacity="0" fill-rule="evenodd" d="M144 475.89063v4.4375h.0039H144V311.67188h.0039H144v164.21875"/></g><g clip-path="url(#b)"><path fill="#fff" fill-opacity="0" fill-rule="evenodd" d="M144.0039 480.32813V311.67188h17.75v132.125l-.48046 1.02343.48047 2.0625v13.3125l-1.57422 2.3789 1.57422 1.58204 4.4375-1.0039 1.1953-.57813-1.1953-.69531-4.4375-1.6836v-13.3125l4.04687-2.0625-4.04687-1.02344v-132.125h13.3125v150.60157l-.46094.30078.46094.21094.66797-.21094-.66797-.30078V311.67188h17.7539v2.89843l-1.53906 1.53906 1.53906 1.53907 1.53906-1.53906-1.53906-1.53907v-2.89844h190.85156v150.41016l-.625.49219-2.03906 4.4414.74219 4.4375 1.17969 4.4375.74219.7422 1.5039-.7422.33203-4.4375.71485-4.4375-1.82813-4.4414-.72265-.49219V311.67188h84.32421v168.65625H144.00391"/></g><path fill="#50fcfc" fill-rule="evenodd" d="M161.7539 464.15625l-1.57421-1.58203 1.57422-2.3789 4.4375 1.68359 1.1953.6953-1.1953.57813-4.4375 1.00391m0-17.27344l-.48047-2.0625.48047-1.02344 4.04687 1.02344-4.04687 2.0625m13.3125 15.90235l-.46094-.21094.46094-.30078.66797.30078-.66797.21094m17.7539-145.13672l-1.53906-1.53906 1.53906-1.53907 1.53906 1.53906-1.53906 1.53907M381.75 471.45313l-.74219-4.4375 2.03906-4.44141.625-.49219.72266.49219 1.82813 4.4414-.71485 4.4375-.33203 4.4375-1.5039.7422-.7422-.7422-1.17968-4.4375"/><g clip-path="url(#c)"><path fill="#fff" fill-opacity="0" fill-rule="evenodd" d="M467.9961 480.32813H468V311.67188h-.0039H468v168.65625h-.0039"/></g><g clip-path="url(#d)"><path fill="none" stroke="#000" stroke-linecap="round" stroke-linejoin="round" stroke-miterlimit="10" stroke-width=".5" d="M147.41016 481.1836l-6.82032-1.70704"/></g><g clip-path="url(#e)"><path fill="none" stroke="#000" stroke-linecap="round" stroke-linejoin="round" stroke-miterlimit="10" stroke-width=".5" d="M147.41016 481.1836L148 483.5625"/></g><g clip-path="url(#f)"><path fill="none" stroke="#000" stroke-linecap="round" stroke-linejoin="round" stroke-miterlimit="10" stroke-width=".5" d="M160.8086 480.71094l-6.98438-.76563"/></g><g clip-path="url(#g)"><path fill="none" stroke="#000" stroke-linecap="round" stroke-linejoin="round" stroke-miterlimit="10" stroke-width=".5" d="M160.8086 480.71094l.91015 2.27734"/></g><g clip-path="url(#h)"><path fill="none" stroke="#000" stroke-linecap="round" stroke-linejoin="round" stroke-miterlimit="10" stroke-width=".5" d="M174.13672 480.5625l-7.01172-.46484"/></g><g clip-path="url(#i)"><path fill="none" stroke="#000" stroke-linecap="round" stroke-linejoin="round" stroke-miterlimit="10" stroke-width=".5" d="M174.13672 480.5625l1.0039 2.23438"/></g><g clip-path="url(#j)"><path fill="none" stroke="#000" stroke-linecap="round" stroke-linejoin="round" stroke-miterlimit="10" stroke-width=".5" d="M173.11719 480.49219l.5 1.1211"/></g><g clip-path="url(#k)"><path fill="none" stroke="#000" stroke-linecap="round" stroke-linejoin="round" stroke-miterlimit="10" stroke-width=".5" d="M187.45313 480.5586l-7.01563-.45704"/></g><g clip-path="url(#l)"><path fill="none" stroke="#000" stroke-linecap="round" stroke-linejoin="round" stroke-miterlimit="10" stroke-width=".5" d="M187.45313 480.5586l1.0078 2.23437"/></g><g clip-path="url(#m)"><path fill="none" stroke="#000" stroke-linecap="round" stroke-linejoin="round" stroke-miterlimit="10" stroke-width=".5" d="M186.42969 480.49219l.5039 1.11719"/></g><g clip-path="url(#n)"><path fill="none" stroke="#000" stroke-linecap="round" stroke-linejoin="round" stroke-miterlimit="10" stroke-width=".5" d="M200.77344 480.23438l-7.02735.1875"/></g><g clip-path="url(#o)"><path fill="none" stroke="#000" stroke-linecap="round" stroke-linejoin="round" stroke-miterlimit="10" stroke-width=".5" d="M200.77344 480.23438l1.20703 2.13671"/></g><g clip-path="url(#p)"><path fill="none" stroke="#000" stroke-linecap="round" stroke-linejoin="round" stroke-miterlimit="10" stroke-width=".5" d="M199.75 480.26172l.60547 1.0664"/></g><g clip-path="url(#q)"><path fill="none" stroke="#000" stroke-linecap="round" stroke-linejoin="round" stroke-miterlimit="10" stroke-width=".5" d="M214.07422 480.00781l-6.9961.64063"/></g><g clip-path="url(#r)"><path fill="none" stroke="#000" stroke-linecap="round" stroke-linejoin="round" stroke-miterlimit="10" stroke-width=".5" d="M214.07422 480.00781l1.34375 2.05469"/></g><g clip-path="url(#s)"><path fill="none" stroke="#000" stroke-linecap="round" stroke-linejoin="round" stroke-miterlimit="10" stroke-width=".5" d="M213.05469 480.10156l.67187 1.02735"/></g><g clip-path="url(#t)"><path fill="none" stroke="#000" stroke-linecap="round" stroke-linejoin="round" stroke-miterlimit="10" stroke-width=".5" d="M227.375 479.8711l-6.96875.91406"/></g><g clip-path="url(#u)"><path fill="none" stroke="#000" stroke-linecap="round" stroke-linejoin="round" stroke-miterlimit="10" stroke-width=".5" d="M227.375 479.8711l1.42188 1.99609"/></g><g clip-path="url(#v)"><path fill="none" stroke="#000" stroke-linecap="round" stroke-linejoin="round" stroke-miterlimit="10" stroke-width=".5" d="M226.35938 480.0039l.71484 1"/></g><g clip-path="url(#w)"><path fill="none" stroke="#000" stroke-linecap="round" stroke-linejoin="round" stroke-miterlimit="10" stroke-width=".5" d="M240.55078 479.2539l-6.6914 2.14844"/></g><g clip-path="url(#x)"><path fill="none" stroke="#000" stroke-linecap="round" stroke-linejoin="round" stroke-miterlimit="10" stroke-width=".5" d="M240.55078 479.2539l1.75781 1.71094"/></g><g clip-path="url(#y)"><path fill="none" stroke="#000" stroke-linecap="round" stroke-linejoin="round" stroke-miterlimit="10" stroke-width=".5" d="M239.57813 479.5664l.8789.85548"/></g><g clip-path="url(#z)"><path fill="none" stroke="#000" stroke-linecap="round" stroke-linejoin="round" stroke-miterlimit="10" stroke-width=".5" d="M253.85938 479.23438l-6.67579 2.1914"/></g><g clip-path="url(#A)"><path fill="none" stroke="#000" stroke-linecap="round" stroke-linejoin="round" stroke-miterlimit="10" stroke-width=".5" d="M253.85938 479.23438l1.76953 1.6953"/></g><g clip-path="url(#B)"><path fill="none" stroke="#000" stroke-linecap="round" stroke-linejoin="round" stroke-miterlimit="10" stroke-width=".5" d="M267.26172 479.54297l-6.85156 1.57422"/></g><g clip-path="url(#C)"><path fill="none" stroke="#000" stroke-linecap="round" stroke-linejoin="round" stroke-miterlimit="10" stroke-width=".5" d="M267.26172 479.54297l1.60547 1.85156"/></g><g clip-path="url(#D)"><path fill="none" stroke="#000" stroke-linecap="round" stroke-linejoin="round" stroke-miterlimit="10" stroke-width=".5" d="M280.57813 479.55078l-6.85157 1.5586"/></g><g clip-path="url(#E)"><path fill="none" stroke="#000" stroke-linecap="round" stroke-linejoin="round" stroke-miterlimit="10" stroke-width=".5" d="M280.57813 479.55078l1.60156 1.85547"/></g><g clip-path="url(#F)"><path fill="none" stroke="#000" stroke-linecap="round" stroke-linejoin="round" stroke-miterlimit="10" stroke-width=".5" d="M293.9375 479.78516l-6.9414 1.08984"/></g><g clip-path="url(#G)"><path fill="none" stroke="#000" stroke-linecap="round" stroke-linejoin="round" stroke-miterlimit="10" stroke-width=".5" d="M293.9375 479.78516l1.47266 1.96093"/></g><g clip-path="url(#H)"><path fill="none" stroke="#000" stroke-linecap="round" stroke-linejoin="round" stroke-miterlimit="10" stroke-width=".5" d="M292.92578 479.9414l.73828.98048"/></g><g clip-path="url(#I)"><path fill="none" stroke="#000" stroke-linecap="round" stroke-linejoin="round" stroke-miterlimit="10" stroke-width=".5" d="M307.1211 479.24219l-6.6797 2.17578"/></g><g clip-path="url(#J)"><path fill="none" stroke="#000" stroke-linecap="round" stroke-linejoin="round" stroke-miterlimit="10" stroke-width=".5" d="M307.1211 479.24219l1.76562 1.70312"/></g><g clip-path="url(#K)"><path fill="none" stroke="#000" stroke-linecap="round" stroke-linejoin="round" stroke-miterlimit="10" stroke-width=".5" d="M306.14844 479.5586l.88281.85156"/></g><g clip-path="url(#L)"><path fill="none" stroke="#000" stroke-linecap="round" stroke-linejoin="round" stroke-miterlimit="10" stroke-width=".5" d="M320.25781 478.79688l-6.32422 3.0625"/></g><g clip-path="url(#M)"><path fill="none" stroke="#000" stroke-linecap="round" stroke-linejoin="round" stroke-miterlimit="10" stroke-width=".5" d="M320.25781 478.79688l1.98047 1.44921"/></g><g clip-path="url(#N)"><path fill="none" stroke="#000" stroke-linecap="round" stroke-linejoin="round" stroke-miterlimit="10" stroke-width=".5" d="M319.33984 479.24219l.98829.72656"/></g><g clip-path="url(#O)"><path fill="none" stroke="#000" stroke-linecap="round" stroke-linejoin="round" stroke-miterlimit="10" stroke-width=".5" d="M333.4336 478.53906l-6.04688 3.57813"/></g><g clip-path="url(#P)"><path fill="none" stroke="#000" stroke-linecap="round" stroke-linejoin="round" stroke-miterlimit="10" stroke-width=".5" d="M333.4336 478.53906l2.09765 1.28125"/></g><g clip-path="url(#Q)"><path fill="none" stroke="#000" stroke-linecap="round" stroke-linejoin="round" stroke-miterlimit="10" stroke-width=".5" d="M346.55078 478.23828l-5.64844 4.17969"/></g><path fill="none" stroke="#000" stroke-linecap="round" stroke-linejoin="round" stroke-miterlimit="10" stroke-width=".5" d="M346.55078 478.23828l2.21485 1.0586"/><g clip-path="url(#R)"><path fill="none" stroke="#000" stroke-linecap="round" stroke-linejoin="round" stroke-miterlimit="10" stroke-width=".5" d="M359.15234 477.51953l-4.22265 5.61719"/></g><path fill="none" stroke="#000" stroke-linecap="round" stroke-linejoin="round" stroke-miterlimit="10" stroke-width=".5" d="M358.53906 478.33594l1.21094.1914"/><g clip-path="url(#S)"><path fill="none" stroke="#000" stroke-linecap="round" stroke-linejoin="round" stroke-miterlimit="10" stroke-width=".5" d="M371.83203 477.14063l-2.95312 6.375"/></g><path fill="none" stroke="#000" stroke-linecap="round" stroke-linejoin="round" stroke-miterlimit="10" stroke-width=".5" d="M371.40234 478.07031L372.62891 478"/><g clip-path="url(#T)"><path fill="none" stroke="#000" stroke-linecap="round" stroke-linejoin="round" stroke-miterlimit="10" stroke-width=".5" d="M385.3789 477.25781l-3.41406 6.14063"/></g><path fill="none" stroke="#000" stroke-linecap="round" stroke-linejoin="round" stroke-miterlimit="10" stroke-width=".5" d="M384.88281 478.15234l1.22656.02344"/><g clip-path="url(#U)"><path fill="none" stroke="#000" stroke-linecap="round" stroke-linejoin="round" stroke-miterlimit="10" stroke-width=".5" d="M397.7539 476.89844l-1.53515 6.85937"/></g><path fill="none" stroke="#000" stroke-linecap="round" stroke-linejoin="round" stroke-miterlimit="10" stroke-width=".5" d="M397.52734 477.89844l1.1836-.32813"/><g clip-path="url(#V)"><path fill="none" stroke="#000" stroke-linecap="round" stroke-linejoin="round" stroke-miterlimit="10" stroke-width=".5" d="M410.70313 476.83984l-.8047 6.98047"/></g><path fill="none" stroke="#000" stroke-linecap="round" stroke-linejoin="round" stroke-miterlimit="10" stroke-width=".5" d="M410.58594 477.85547l1.14453-.44922"/><g clip-path="url(#W)"><path fill="none" stroke="#000" stroke-linecap="round" stroke-linejoin="round" stroke-miterlimit="10" stroke-width=".5" d="M425.82813 477.60156l-4.42579 5.45703"/></g><path fill="none" stroke="#000" stroke-linecap="round" stroke-linejoin="round" stroke-miterlimit="10" stroke-width=".5" d="M425.1836 478.39453l1.20702.23438"/><g clip-path="url(#X)"><path fill="none" stroke="#000" stroke-linecap="round" stroke-linejoin="round" stroke-miterlimit="10" stroke-width=".5" d="M438.4961 477.1836l-3.12891 6.28906"/></g><path fill="none" stroke="#000" stroke-linecap="round" stroke-linejoin="round" stroke-miterlimit="10" stroke-width=".5" d="M438.4961 477.1836l2.45312-.06641"/><g clip-path="url(#Y)"><path fill="none" stroke="#000" stroke-linecap="round" stroke-linejoin="round" stroke-miterlimit="10" stroke-width=".5" d="M450.89844 476.875l-1.30469 6.90625"/></g><path fill="none" stroke="#000" stroke-linecap="round" stroke-linejoin="round" stroke-miterlimit="10" stroke-width=".5" d="M450.89844 476.875l2.34375-.72656"/><g clip-path="url(#Z)"><path fill="none" stroke="#000" stroke-linecap="round" stroke-linejoin="round" stroke-miterlimit="10" stroke-width=".5" d="M464.32422 476.89844l-1.52735 6.85937"/></g><path fill="none" stroke="#000" stroke-linecap="round" stroke-linejoin="round" stroke-miterlimit="10" stroke-width=".5" d="M464.10156 477.89844l1.1836-.32813"/><g clip-path="url(#aa)"><path fill="none" stroke="#000" stroke-linecap="round" stroke-linejoin="round" stroke-miterlimit="10" stroke-width=".5" d="M147.46875 467.58203l-6.9375-1.13672"/></g><path fill="none" stroke="#000" stroke-linecap="round" stroke-linejoin="round" stroke-miterlimit="10" stroke-width=".5" d="M147.46875 467.58203l.78516 2.32422m-1.79688-2.48828l.39453 1.16015m13.9375-1.04296l-6.94922-1.04297m6.94922 1.04297l.82031 2.3125m12.53516-2.89844l-7.02734.1289m7.02734-.1289l1.1914 2.14453m12.1211-2.1914l-7.02344.22265m7.02344-.22266l1.21875 2.12891m-2.24219-2.09766L187.04687 468m13.71094-1.33594l-6.99219.69922m6.9922-.69922l1.35937 2.04297m-2.3789-1.9414l1.36327 2.04296m12.94531-2.32812l-6.9453 1.0664m6.9453-1.0664l1.46875 1.96875m-2.47656-1.8125l1.46485 1.96484m12.67578-2.82031l-6.57813 2.46484m6.57813-2.46484l1.83984 1.625m-2.79687-1.26563l1.83984 1.625m12.32813-2.23437l-6.3711 2.96484m6.3711-2.96484l1.95703 1.48047m-2.88282-1.04688l1.95703 1.47657m12.28125-1.91797l-6.36328 2.98047m6.36328-2.98047l1.96094 1.47265m-2.88672-1.03906l1.96094 1.47266m12.34766-1.7461l-6.5039 2.66016m6.5039-2.66016l1.88672 1.57032m-2.83203-1.1836l1.88671 1.57031m12.35547-2.0078l-6.46484 2.76171m6.46484-2.76172l1.91016 1.53906m-2.85156-1.13671l.95703.76953m13.3086-1.14844l-6.48048 2.71484m6.48047-2.71484l1.89844 1.55469m-2.83985-1.16016l1.89844 1.55469m12.27344-2.13281l-6.3125 3.08203m6.3125-3.08203l1.98437 1.4414m-2.90234-.99218l1.98438 1.4375m11.85546-2.51563l-5.52734 4.33984m5.52734-4.33984l2.2422.99219m-3.04688-.35938l2.2461.98828m11.54687-1.98046l-4.875 5.05859m4.875-5.0586l2.35937.67188m-3.0664.0625l1.17968.33594m12.61328-1.27344l-4.41406 5.46484m4.41406-5.46484l2.41016.46484m10.17969-.91796l-2.96485 6.37109m2.96485-6.3711l2.44922-.1289m10.14843-.11328l-1.52734 6.85547m1.30469-5.85938l1.1836-.32812m13.34765-.28125l-3.51563 6.08203m3.0039-5.19922l1.22657.04297m12.77344-.82031l-3.86328 5.87109m3.30078-5.01563l1.22265.11329m13.0625-.65235l-4.67968 5.23828m4-4.47656l1.1914.29297m12.57422-1.2461l-4.21875 5.6211m3.60547-4.80078l1.21094.1875m12.69531-1.02344l-4.17578 5.65234m3.5664-4.83203l1.21485.1836m12.48047-1.16016l-3.71875 5.96484m3.17969-5.09765l1.22265.08594m12.47656-1.04297l-3.41015 6.14453m2.91406-5.25l1.22656.01953"/><g clip-path="url(#ab)"><path fill="none" stroke="#000" stroke-linecap="round" stroke-linejoin="round" stroke-miterlimit="10" stroke-width=".5" d="M147.5 454.01172l-7-.625"/></g><path fill="none" stroke="#000" stroke-linecap="round" stroke-linejoin="round" stroke-miterlimit="10" stroke-width=".5" d="M147.5 454.01172l.95313 2.25781m-1.97266-2.35156l.47656 1.13281m13.82031-.7539l-6.92578-1.19532m6.92578 1.19531l.76563 2.33204m-1.77344-2.50782l.38281 1.16797m13.95313-1.07422l-6.94922-1.03515m6.94922 1.03515l.82031 2.3125m-1.83203-2.46093l.41016 1.15625m13.95312-1.40625l-7.02344-.23438m7.02344.23438l1.07813 2.20312m-2.10157-2.23828l.54297 1.10156m13.78516-.88672l-7.0039-.59375m7.0039.59375l.96484 2.25782m-1.98437-2.34375l.48437 1.1289m13.85938-1.5l-7.01953.32032m7.01953-.32032l1.25 2.11328m-2.27344-2.0664l.625 1.05469m13.64844-1.625l-6.89063 1.36718m6.89063-1.36718l1.55078 1.90234m-2.55078-1.70313l1.55078 1.90235m12.59375-2.6914l-6.55078 2.54687m6.55078-2.54688l1.85937 1.59766m-2.8125-1.22656l.9297.79687m13.32421-1.20703l-6.51953 2.625m6.51953-2.625l1.875 1.57812m-2.82422-1.19921l1.8789 1.58203m12.38673-1.95703l-6.52344 2.61718m6.52344-2.61718l1.875 1.58203m-2.82422-1.20313l1.875 1.58203m12.29687-2.17187l-6.33984 3.03906m6.33984-3.03906l1.97266 1.45703m-2.89453-1.01563l1.97265 1.45704m12.1172-2.17188l-6.04688 3.58203m6.04687-3.58203l2.09375 1.27734m-2.97265-.7539l2.09375 1.27344m12.05859-1.86329l-5.96094 3.71875m5.96094-3.71875l2.125 1.23047m-2.99219-.6875l1.0625.61328m13.27735-.875l-6.27735 3.15625m6.27735-3.15625l2.0039 1.41407m-2.91797-.95703l2.0039 1.41796m12.16407-1.98828l-6.15625 3.38282m6.15625-3.38282l2.05469 1.34375m-2.94922-.85156l1.02734.67188m12.95704-1.52735L340.875 455.75m5.70313-4.10547l2.19921 1.08594m10.42188-1.80469l-4.3164 5.54688m4.3164-5.54688l2.41797.42188m11.6836.43359l-5.88673 3.83594m5.88672-3.83594l2.14844 1.1836m11.16406-1.1875l-5.88281 3.84374m5.88281-3.84375l2.14844 1.1836m11.16016-1.1914l-5.8711 3.85546m5.01953-3.29297l1.07422.58985m13.14453-1.07032l-5.97656 3.69531m5.10938-3.15625l1.05859.6172m12.6914-1.72266l-5.10937 4.82422m5.10938-4.82422l2.32421.78515m10.89063-.88281l-4.91016 5.02344m4.91016-5.02344l2.35547.6914m10.40234-1.13671l-3.79297 5.91406m3.79297-5.91406l2.44531.19922m10.9961-.11328l-4.05078 5.74218m3.46093-4.90625l1.21875.15235"/><g clip-path="url(#ac)"><path fill="none" stroke="#000" stroke-linecap="round" stroke-linejoin="round" stroke-miterlimit="10" stroke-width=".5" d="M147.4336 441.1289l-6.8672-1.49218"/></g><path fill="none" stroke="#000" stroke-linecap="round" stroke-linejoin="round" stroke-miterlimit="10" stroke-width=".5" d="M147.4336 441.1289l.66406 2.36329m12.62109-2.23828l-6.8086-1.73828m6.8086 1.73828l.58203 2.3828m12.6289-2.04687l-6.59765-2.41406m6.59766 2.41406l.33984 2.4297m13.05469-2.67188l-6.75781-1.9297m6.7578 1.9297l.51173 2.40234m12.91015-2.91016l-6.96875-.91015m6.96875.91015l.85938 2.29688m12.44922-3.23828l-6.96094.96875m6.96094-.96875l1.4414 1.98437m11.89063-1.83984l-6.99219.67969m6.99219-.6797l1.35547 2.04688m-2.3711-1.9453l.67578 1.01952m13.51954-1.8086l-6.72266 2.0547m6.72266-2.0547l1.73437 1.73438m-2.71484-1.43359l.8711.86719m13.3125-1.48047l-6.4961 2.6836m6.4961-2.6836l1.89062 1.5625m-2.83594-1.17188l.94531.78125m13.33203-1.1289l-6.53125 2.59375m6.53125-2.59375l1.8711 1.58984m-2.82032-1.21094l1.8672 1.58985m12.3164-2.15625l-6.36719 2.97265m6.36719-2.97265l1.95703 1.47265m-2.88672-1.04297l1.96094 1.47657m12.19922-2.07031l-6.20313 3.29687m6.20313-3.29688l2.03515 1.3711m-2.9375-.89063l1.01953.6836m13.41016-.6836l-6.625 2.33594m6.625-2.33594l1.8086 1.66016m-2.77344-1.32031l.90625.83203m13.51172-.66797l-6.90235 1.32813m6.90235-1.32813l1.53906 1.91016m-2.54297-1.71485l.76953.95313m13.51563-1.29688l-6.83594 1.625m6.83594-1.625l1.625 1.83985m-2.6172-1.60157l.8086.91797m13.10938-2.125l-6.0547 3.5625m6.0547-3.5625l2.08984 1.28125m-2.96875-.76172l1.04297.64063m12.48437-1.98047l-4.71875 5.20703m4.71875-5.20703l2.37891.60156m11.89844.85938l-6.64844 2.28125m6.64844-2.28125l1.79297 1.67578m11.6875-.11328l-6.97657-.84375m5.96094.72265l.4414 1.14454m13.90235-1.73047l-7.0039.5703m5.98437-.48827l.66406 1.03515m13.4375-2.11718l-6.53906 2.5703m5.58984-2.1953l.9297.79687m13.40624-.97265l-6.6836 2.17187m6.6836-2.17187L428.72266 441m11.41406-2.0586l-6.41016 2.88673m6.41016-2.88672l1.9375 1.5m10.90625-2.26563l-5.46875 4.41406m5.46875-4.41406l2.25781.96485m11.15235-.83985l-5.66016 4.16406m4.83594-3.55859l1.10937.53125"/><g clip-path="url(#ad)"><path fill="none" stroke="#000" stroke-linecap="round" stroke-linejoin="round" stroke-miterlimit="10" stroke-width=".5" d="M147.21094 428.5l-6.42188-2.86328"/></g><path fill="none" stroke="#000" stroke-linecap="round" stroke-linejoin="round" stroke-miterlimit="10" stroke-width=".5" d="M146.27734 428.08203l.08203 1.22266m13.9375-.3789l-5.96484-3.71485m5.09766 3.17578l-.08594 1.22266m14.32422-.77735l-6.07422-3.52734m5.1914 3.01562l-.04687 1.22657m14.32813-.8672l-6.2422-3.22265m5.33595 2.7539l.01562 1.22657m14.5625-1.8789l-6.95703-.98047m5.94531.83593l.41797 1.15625m13.76953-.41015l-6.67969-2.1797m6.6797 2.1797l.42577 2.41406m12.98828-4.22656l-6.875 1.4414m5.875-1.23047l.78516.94141m13.59766-.1875l-7.01172-.48828m5.99219.41797l.5 1.11719m13.78515-.66016l-6.91406-1.26172m6.91406 1.26172l.74219 2.33984m12.6211-3.21484l-7.00782.48828m7.00781-.48828l1.30078 2.07812m12.00391-2.21093l-6.98828.7539m6.98828-.7539l1.3789 2.02734m11.9297-2.07422l-6.97657.84766m6.97657-.84766l1.40625 2.01172m-2.42188-1.88672l.70313 1.0039m13.59765-1.33984l-6.91406 1.26954m6.91406-1.26954l1.52344 1.92188m11.58203-2.625l-6.4961 2.67578m6.4961-2.67578l1.89063 1.5664m11.17968-2.05468l-6.0039 3.65234m6.0039-3.65234l2.10938 1.25m11.22265-1.22266l-6.03906 3.59766m6.03906-3.59766l2.09766 1.27344m-2.97656-.75l1.04687.63672m13.28907-.89453l-6.32422 3.0664m6.32422-3.0664l1.98046 1.4453m-2.90234-1l.99219.72267m13.58594.11718l-7.00782.4961m7.00782-.4961l1.30468 2.07813m9.9961-5.01172l-2.98047 6.36328m2.98047-6.36328l2.45312-.125m12.82422 2.65625l-6.90625 1.30078m6.90625-1.30078l1.53516 1.91797m11.51562-2.7461l-6.375 2.95704m6.375-2.95704l1.95703 1.48438m11.23047-1.73047l-6.1211 3.44922m6.1211-3.44922l2.07031 1.32031m10.82813-1.91406l-5.28516 4.63672m5.28516-4.63672l2.29297.8711m10.39844-1.42579l-4.03907 5.7461m4.03907-5.7461l2.4375.30469m11.27734.02344l-4.83984 5.09375m4.13671-4.35547l1.1836.32812"/><g clip-path="url(#ae)"><path fill="none" stroke="#000" stroke-linecap="round" stroke-linejoin="round" stroke-miterlimit="10" stroke-width=".5" d="M145.64453 416.85938l-3.28906-6.21094"/></g><path fill="none" stroke="#000" stroke-linecap="round" stroke-linejoin="round" stroke-miterlimit="10" stroke-width=".5" d="M145.16406 415.95703l-.6875 1.01563m14.59375-.17578l-3.51172-6.08594m3.51172 6.08594l-1.30078 2.08203m14.01172-1.8047l-2.30078-6.64062m1.96484 5.67188l-.83203.90234m14.9961-.16015l-3.32813-6.1875m2.84375 5.28515l-.67969 1.02344m16.19922-2.27344l-6.76953-1.88281m5.78516 1.60938l.26562 1.1953m11.17188 1.60938l-1.04297-6.94922m16.58594 5.66407l-5.5-4.375m4.69921 3.73828l-.22265 1.20703m14.91406-1.625l-6.65234-2.26563m6.65234 2.26563l.39453 2.42187m13.03516-2.84375l-6.88281-1.42187m6.8828 1.42187l.69141 2.35547m12.6875-2.8164l-7.0078-.5m7.0078.5l.9961 2.24218m12.30468-2.8828l-6.98046.78124m6.98046-.78125l1.38672 2.02344m11.92188-2.07813l-6.96875.89063m6.96875-.89063l1.41797 2m11.89062-2.0625l-6.95312 1.01563m6.95312-1.01563l1.45313 1.98047m11.89062-1.67578l-7.01172.40625m7.01172-.40625l1.27735 2.09375m12.02343-2.27344l-6.98437.76563m6.98437-.76563l1.38282 2.02735m11.8164-2.625l-6.75 1.96094m6.75-1.96094l1.71094 1.76172m11.50781-2.04688l-6.5586 2.53125m6.5586-2.53125l1.85156 1.60938m11.47266-1.58203l-6.57812 2.47265m6.57812-2.47265l1.83984 1.625m11.51172-1.51954l-6.65234 2.26563m6.65234-2.26563l1.78907 1.6797m11.0625-2.58985l-5.72266 4.08203m5.72266-4.08203l2.1953 1.09765m11.08985-1.13672l-5.66406 4.16407m5.66406-4.16406l2.21094 1.0625m10.97656-1.22266l-5.40625 4.48437m5.40625-4.48437l2.26953.92969M439.11328 411l-4.36328 5.50781m3.73047-4.70703l1.20703.22266m12.55078-1.16406l-3.98437 5.78906m3.98437-5.78906l2.4375.28125m10.6211-.44141l-3.46876 6.10937m2.96485-5.22265l1.22265.03515"/><g clip-path="url(#af)"><path fill="none" stroke="#000" stroke-linecap="round" stroke-linejoin="round" stroke-miterlimit="10" stroke-width=".5" d="M144.26563 403.9414l-.53125-7.0078"/></g><g clip-path="url(#ag)"><path fill="none" stroke="#000" stroke-linecap="round" stroke-linejoin="round" stroke-miterlimit="10" stroke-width=".5" d="M144.1875 402.92188l-1.03516.65625"/></g><path fill="none" stroke="#000" stroke-linecap="round" stroke-linejoin="round" stroke-miterlimit="10" stroke-width=".5" d="M157.78906 403.91797l-.94531-6.96094m.94531 6.96094l-1.99219 1.4336m15.82422-1.54298l-1.98437-6.74218m1.98437 6.74218l-1.75 1.71875m17.52344-4.42578l-6.89844-1.32422m5.89453 1.12891l.36329 1.17578m14-1.27344l-6.98828-.74218m17.52734 3.8125L209.85937 397m1.22266 5.8789l-.9414.78126m16.53125-1.07422l-5.5625-4.29688m5.5625 4.29688l-.41407 2.42187m13.9961-2.82031l-6.09766-3.4961m6.09766 3.4961l-.07813 2.45313m-.8086-2.96094l-.03905 1.22265m14.64453-1.80468l-6.90235-1.31641m6.90235 1.3164l.72656 2.34376m12.63672-3.28516l-7.0039.5625m7.0039-.5625l1.32422 2.0664m11.96484-2.30468l-6.94922 1.03906m6.94922-1.03906l1.46094 1.97656m11.78125-2.33203l-6.80469 1.7539m6.80469-1.7539l1.65625 1.8086m11.61719-1.95704l-6.72266 2.04688m6.72265-2.04688l1.73438 1.73828m11.625-1.58593l-6.8086 1.74218m6.8086-1.74218l1.65234 1.8164m11.4922-2.3164l-6.46876 2.74218m6.46875-2.74218l1.90625 1.54687m11.17969-1.9961l-6.00781 3.64063m5.1328-3.10937l1.0547.625m13.26171-.9336l-6.26171 3.19532m5.35156-2.73047l1.0039.70312m13.07422-1.42578l-5.96484 3.71485m5.96484-3.71485l2.1211 1.23047m10.70312-1.84766l-4.98828 4.94922m4.98828-4.94922l2.34375.72657m-3.0664-.00782l1.17187.36329m13.21094-.6797l-5.67578 4.14063m5.67578-4.14062l2.20703 1.07422m11.25781-.85157l-5.97656 3.69532m5.97656-3.69532l2.1211 1.23829M426.14453 398l-5.0586 4.875m5.0586-4.875l2.33594.76172m10.60937-1.09766l-4.3164 5.54688m3.6875-4.73828l1.21094.21093m13.3164-.4453l-5.48047 4.39843m4.6836-3.75781l1.125.48437m13.0078-1.09765l-5.52343 4.34375"/><g clip-path="url(#ah)"><path fill="none" stroke="#000" stroke-linecap="round" stroke-linejoin="round" stroke-miterlimit="10" stroke-width=".5" d="M466.32422 398.26563l2.24219.99218"/></g><g clip-path="url(#ai)"><path fill="none" stroke="#000" stroke-linecap="round" stroke-linejoin="round" stroke-miterlimit="10" stroke-width=".5" d="M142.3086 390.20313l3.3828-6.16016"/></g><path fill="none" stroke="#000" stroke-linecap="round" stroke-linejoin="round" stroke-miterlimit="10" stroke-width=".5" d="M156.76953 390.59375l1.08984-6.9414m-1.08984 6.9414l-2.32031.80078m2.48047-1.8086l-1.16016.39844m14.80469.65235l.11328-7.02735m-.11328 7.02735l-2.1875 1.11719m18.21875-2.33204l-5.32031-4.59375m4.54687 3.92188l-.27344 1.19922m13.53907.16797l-3.67578-5.98828m3.67578 5.98828l-1.2422 2.11719m15.20313-2.625l-4.96875-4.96875m4.96875 4.96875l-.71484 2.34375m-.00781-3.06641l-.35938 1.17187m14.63281-.71093l-5.4375-4.44922m5.4375 4.44922l-.48046 2.40625m14.3203-3.27735l-6.48827-2.70703m6.48828 2.70703l.23047 2.4414m13.33984-3.45702l-6.9961-.67578m6.9961.67578l.9375 2.26953m12.39063-2.57422l-7.02735-.0664m7.02735.0664l1.1328 2.17578m12.1836-2.26172l-7.02734.10547m7.02734-.10547l1.1836 2.14844m12.09765-2.58594l-6.95703.98047m6.95703-.98047l1.4414 1.98438m-2.45312-1.84375l.71875.99219m13.53125-1.51172l-6.80859 1.73828m6.8086-1.73828l1.65234 1.8125m-2.64063-1.5586l.82422.90625m13.5-1.08594l-6.84765 1.59375m6.84765-1.59375l1.61328 1.84766m-2.60937-1.61719l.80469.92579m13.49609-1.19922L327 387.96094m6.82422-1.67578l1.63281 1.82812m-2.625-1.58594l.8164.91797m13.48048-1.1914l-6.8086 1.73828m6.8086-1.73828l1.65234 1.8164m11.6875-1.71094l-6.85547 1.53125m6.85547-1.53125l1.59766 1.86329m-2.59375-1.64063l.79687.92969m13.32422-1.75l-6.47656 2.72265m6.47656-2.72265l1.90234 1.55078m-2.84375-1.15234l.94922.77343m12.92578-1.85937l-5.71093 4.09765m5.71093-4.09765l2.19922 1.08984m-3.03125-.49219l1.10157.54297m13.05078-1.1289l-5.72266 4.07422m5.72266-4.07422l2.1953 1.09765m11.10938-1.11718l-5.69921 4.11328m5.69921-4.11328l2.19922 1.08593m10.60938-1.64453l-4.6875 5.23438m4.6875-5.23438l2.38281.58594m10.72266-.76172l-4.26953 5.58203m3.64843-4.76953l1.21094.20313m13.0039-.77735l-4.82812 5.10547m4.125-4.36328l1.1836.32813m13.78125.46093l-6.72266 2.04297m5.7461-1.7461l.86718.8711"/><g clip-path="url(#aj)"><path fill="none" stroke="#000" stroke-linecap="round" stroke-linejoin="round" stroke-miterlimit="10" stroke-width=".5" d="M141.23047 375.96875l5.53906-4.32422"/></g><path fill="none" stroke="#000" stroke-linecap="round" stroke-linejoin="round" stroke-miterlimit="10" stroke-width=".5" d="M155.8711 377.01172l2.89062-6.40625m-2.89063 6.40625l-2.44922.15625m2.8672-1.08985l-1.22266.08204m14.30859.92968l2.51172-6.5625m-2.51172 6.5625l-2.4375.30079m2.80078-1.25391l-1.21484.14844m16.53125.85546l-2.21875-6.66406m2.21875 6.66406l-1.6875 1.77735m15.6211-2.05078l-3.45704-6.11719m3.45703 6.11719l-1.3164 2.07031m14.82421-2.1875l-3.83984-5.88281m3.83984 5.88281l-1.18359 2.14844m15.1289-2.67188l-5.10156-4.83594m5.10157 4.83594l-.65625 2.36328m14.6914-3.5039l-6.54297-2.55469m6.54297 2.55469l.28516 2.4375m13.23047-3.16406l-6.9414-1.10547m6.9414 1.10546l.79687 2.32422m12.53125-2.41406l-6.96875-.92578m6.96875.92578l.85547 2.30078m-1.8711-2.4336l.4297 1.14845m13.92187-1.22657l-7.01172-.5039m7.01172.5039l.99219 2.2461m-2.01172-2.3164l.4961 1.12108m13.83984-1.5l-7.01563.39844m7.01563-.39844l1.27343 2.09766m-2.29297-2.03906l.63672 1.05078M307.25 373.25l-6.9375 1.11328M307.25 373.25l1.48047 1.95703m-2.48828-1.79297l.73828.97656m13.5664-1.25l-6.90234 1.33594m6.90234-1.33594l1.53907 1.91016m-2.54297-1.71484l1.53906 1.91015m12.82422-1.80078l-6.98828.72266m6.98828-.72266l1.36719 2.03906m-2.38282-1.93359l1.3672 2.03906m12.97265-2.02734l-7.00781.49219m7.0078-.49219l1.30079 2.08203m-2.32031-2.00781l1.30078 2.07812m13.01562-2.33984l-6.97265.86719m6.97265-.86719l1.41016 2.00781M359.51172 373.5l1.41015 2.00781m12.85157-2.51562l-6.83594 1.63281m6.83594-1.63281l1.625 1.83984m-2.6211-1.60156l.8125.91797m13.27735-1.79688l-6.39453 2.91406m6.39453-2.91406l1.94922 1.49219m-2.87891-1.07031l.97266.7461m13.22656-1.26954l-6.30078 3.11719m6.30078-3.11719l1.99219 1.42969m-2.91016-.97656l.9961.71484m13.09374-1.42578l-6.01562 3.63281m6.01562-3.63281l2.10547 1.25781m-2.98047-.73047l1.0547.6289m13.0625-1.27343l-5.8711 3.86328m5.8711-3.86328l2.15233 1.17969m-3.0039-.61719l1.07422.58984m12.85156-1.47265l-5.38672 4.50781m5.38672-4.50781l2.27344.92187m10.72656-1.2539l-4.75781 5.17187m4.75781-5.17187l2.375.61718m11.03516-.52734l-4.94922 4.98828m4.23047-4.26172l1.17578.35547"/><g clip-path="url(#ak)"><path fill="none" stroke="#000" stroke-linecap="round" stroke-linejoin="round" stroke-miterlimit="10" stroke-width=".5" d="M140.76953 361.8789l6.46094-2.76952"/></g><path fill="none" stroke="#000" stroke-linecap="round" stroke-linejoin="round" stroke-miterlimit="10" stroke-width=".5" d="M155.47266 363.48438l3.6875-5.98047m-3.6875 5.98046l-2.44922-.15625m2.98437-.71484l-1.22265-.07812m14.07812.99609l3.53125-6.07422m-3.53125 6.07422l-2.44922-.09375m17.54297.57031l-.02344-7.02734m.02344 7.02734l-2.16406 1.15625m2.16016-2.17969l-1.08204.57813m15.92188.09375l-3.0625-6.32422m3.0625 6.32422l-1.44922 1.98047m1-2.90235l-.72266.9922m15.13672-.48048l-4.36328-5.5078m4.36328 5.5078l-.98437 2.25m15.11328-3.17187l-5.9961-3.66406m5.9961 3.66406l-.14453 2.44922m13.82422-3.25781l-6.72266-2.04297m6.72266 2.04296l.47265 2.40625m-1.44922-2.70312l.23438 1.20313m14.15625-1.3125l-6.91797-1.23438m6.91797 1.23438l.7539 2.33593m-1.76171-2.51562l.3789 1.16797m13.95703-1.0625l-6.9453-1.08204m6.9453 1.08204l.8047 2.3164m-1.81642-2.47656l.40235 1.16016m13.95312-1.26172l-7.0039-.5625m7.0039.5625l.97657 2.2539m-1.9961-2.33593l.48828 1.1289m13.85938-1.3711l-7.02735.08985m7.02735-.08984l1.17578 2.15234m-2.19922-2.14062l.58984 1.07812m13.73438-1.34765l-7 .60546m7-.60546l1.33594 2.05859m-2.35547-1.97266l1.33594 2.0586m12.98828-2.2539l-6.98047.82421m6.98047-.82422l1.39843 2.01563m-2.41406-1.89454l1.39844 2.01563m12.90234-2.33984l-6.91797 1.23046m6.91797-1.23046l1.51172 1.92968m-2.51953-1.75l.75781.96485m13.55078-1.21485l-6.89062 1.3711m6.89062-1.3711l1.55079 1.89844m-2.5547-1.69922l1.5547 1.89844m12.74609-2.17969l-6.85547 1.53516m6.85547-1.53516l1.59766 1.85938m-2.59375-1.63672l1.59765 1.86328m12.6914-2.17969l-6.8125 1.72266m6.8125-1.72266l1.64845 1.8164m-2.64063-1.5664l1.64844 1.8164m12.5625-2.39062l-6.61719 2.3672m6.61719-2.3672l1.8125 1.65235m-2.77735-1.3086l1.81641 1.65235m12.44531-2.03906l-6.58203 2.45312m6.58203-2.45313l1.83594 1.62891m-2.79297-1.26953l1.83594 1.6289m12.41797-2.03515l-6.54688 2.55078m6.54688-2.55078l1.85937 1.59766m-2.8125-1.22657l1.86328 1.59766m12.32422-2.16016l-6.38672 2.9336m6.38672-2.9336l1.95313 1.48829m-2.88281-1.0625l1.95312 1.48828m12.14844-2.19922l-6.09766 3.5m6.09766-3.5l2.07422 1.3086m-2.96094-.79688l2.07422 1.30468m11.86328-2.21093l-5.57031 4.28906m5.57031-4.28906l2.23437 1.01562m-3.04687-.39062l1.11719.5078m12.96875-1.18358l-5.48438 4.39453"/><g clip-path="url(#al)"><path fill="none" stroke="#000" stroke-linecap="round" stroke-linejoin="round" stroke-miterlimit="10" stroke-width=".5" d="M466.30469 358.29688l2.2539.96875"/></g><g clip-path="url(#am)"><path fill="none" stroke="#000" stroke-linecap="round" stroke-linejoin="round" stroke-miterlimit="10" stroke-width=".5" d="M140.49219 346.96875l7.01562.41797"/></g><path fill="none" stroke="#000" stroke-linecap="round" stroke-linejoin="round" stroke-miterlimit="10" stroke-width=".5" d="M154.58594 349.39063l5.45703-4.42579m-5.45703 4.42579l-2.25781-.95313m3.05468.3125l-2.26172-.95703m17.22657 2.88672l.5664-7.0039m-.48437 5.98437l-1.125.48828m14.47656.53906l.32813-7.01953m-.32813 7.01953l-2.21875 1.05078m2.26563-2.07031l-2.21485 1.04687m17.09375-.33593l-2.89453-6.40235m2.89453 6.40235l-1.5 1.9414m1.07813-2.8711l-.75.96876m15.21484-.48047l-4.35156-5.51953m4.35156 5.51953l-.98828 2.2461m.35547-3.05079l-.49219 1.125m15.64063-2.10547l-6.75-1.94921m6.75 1.94921l.5039 2.40235m-1.48437-2.6836l.5039 2.39844m13.8789-2.48828l-6.92577-1.20703m6.92578 1.20703l.76172 2.33203m-1.76953-2.50781l.3828 1.16797m13.94532-1.03516l-6.9375-1.1211m6.9375 1.1211l.79297 2.32031m-1.80078-2.48437l.39453 1.16015m13.91406-.91015l-6.90625-1.29297m6.90625 1.29297l.73438 2.33984m-1.73828-2.52734l.36718 1.16797m13.9922-1.25l-6.98829-.7539m6.98828.7539l.91406 2.27734m-1.92968-2.38672l.91406 2.27735m13.4336-2.375l-7.01954-.33985m7.01953.33985l1.04297 2.22265m-2.0664-2.26953L294 349.51953m13.28906-2.53125l-7.01562.3789m7.01562-.3789l1.26953 2.10156m-2.28906-2.04687l1.26563 2.10156m13.01562-2.60156l-6.91015 1.26953m6.91015-1.26953l1.52344 1.92187m-2.52734-1.73828l1.52343 1.92578m12.7461-2.33593l-6.8125 1.72265m6.8125-1.72265l1.64843 1.8164m-2.64062-1.5664l1.64844 1.8164m12.6953-1.91797l-6.8828 1.4297m6.8828-1.4297l1.56642 1.88672m-2.57032-1.67969l.78516.94141M360.5 346.56641l-6.91797 1.22265m6.91797-1.22265l1.51172 1.92968m-2.51953-1.7539l1.51562 1.9336m12.77344-2.28517l-6.84766 1.57422m6.84766-1.57421l1.60547 1.85546m-2.60156-1.625l1.60547 1.85157m12.60156-2.44141l-6.64063 2.29297m6.64063-2.29297l1.79687 1.67188m-2.76172-1.33985l1.79297 1.67188m12.5-1.96875l-6.66797 2.22265m6.66797-2.22265l1.77735 1.6914m-2.7461-1.36719l.88672.84375m13.42188-1.08984l-6.71485 2.0664m6.71485-2.0664l1.73828 1.73047m-2.71485-1.42969l1.73829 1.73047m12.4414-2.33594l-6.4961 2.67579m6.4961-2.67579l1.89063 1.5625m-2.83594-1.17187l1.89062 1.5625m12.23438-2.2461l-6.22266 3.26172m6.22266-3.26171l2.02734 1.38671m-2.9336-.91015l2.02735 1.38281m12.0664-2.08594l-5.96483 3.71485m5.96484-3.71485l2.1211 1.23047m-2.9922-.6914l2.125 1.23046m12.28907-1.33984l-6.42188 2.85547"/><g clip-path="url(#an)"><path fill="none" stroke="#000" stroke-linecap="round" stroke-linejoin="round" stroke-miterlimit="10" stroke-width=".5" d="M466.77344 345.75l1.92969 1.51172"/></g><g clip-path="url(#ao)"><path fill="none" stroke="#000" stroke-linecap="round" stroke-linejoin="round" stroke-miterlimit="10" stroke-width=".5" d="M465.83594 346.16406l1.9336 1.51172"/></g><g clip-path="url(#ap)"><path fill="none" stroke="#000" stroke-linecap="round" stroke-linejoin="round" stroke-miterlimit="10" stroke-width=".5" d="M140.5586 334.57031l6.8828-1.41406"/></g><path fill="none" stroke="#000" stroke-linecap="round" stroke-linejoin="round" stroke-miterlimit="10" stroke-width=".5" d="M154.21484 335.51953l6.19922-3.3125m-6.19922 3.3125l-2.03515-1.36719m2.9375.88282l-1.01953-.6836m15.22265 2.76953l2.6211-6.51953m-2.6211 6.51953l-2.4414.26172m2.8203-1.20703l-2.4375.25781m17.20704.90235l-1.04688-6.94531m1.04688 6.9453L182.5 338.80079m1.8164-2.47265l-.98437.73046m14.9336.17188l-2.01172-6.73438m2.01172 6.73438l-1.7461 1.72265m1.45313-2.70312l-1.7461 1.72266m1.45313-2.70313l-.8711.86328m15.23047.92578l-2.92969-6.39062m2.9297 6.39062l-1.48829 1.94922m1.0625-2.8789l-1.48828 1.94921m1.0625-2.8789l-.7461.97265m14.28907 1.10157l-1.67969-6.82031m1.67969 6.8203l-1.82813 1.63673m1.58594-2.62891l-1.82812 1.63672m15.9375-.82813l-2.78125-6.45312m2.375 5.51562l-.76563.95704m16.55469-2.63282l-6.91797-1.23047m6.91797 1.23047l.7539 2.33594m-1.76171-2.51172l.7539 2.33203m13.51172-1.89844l-6.8086-1.74218m6.8086 1.74219l.58203 2.3828m-1.57031-2.63671l.57813 2.38281m13.82812-2.78515l-7.01172-.4297m7.01172.4297l1.01953 2.23437m-2.03906-2.29688l1.01562 2.23438m13.32813-2.34375l-7.02734-.08984m7.02734.08984l1.1211 2.1836m-2.14454-2.19532l.5625 1.08985m13.76953-1.28125l-7.01953.3203m7.01953-.3203l1.25 2.10937m-2.26953-2.0625l.625 1.05469m13.67969-1.44922l-6.95703 1.01562m6.95703-1.01562l1.44922 1.98047m-2.46094-1.83203l.72656.98828m13.52344-1.50781l-6.80469 1.7539m6.80469-1.7539l1.65625 1.8125m-2.64453-1.5547l.82812.90235m13.5586-.74219l-6.96875.92188m6.96875-.92188l1.42578 1.9961m-2.4414-1.86328l.71484 1m13.61718-1.10547l-6.97265.86719m6.97265-.8672l1.41016 2.00782m11.73828-2.72656l-6.64062 2.30469m6.64062-2.3047l1.79688 1.66798m-2.76172-1.33204l.89844.83204m13.02343-1.90625l-5.92578 3.78125m5.92578-3.78125l2.13672 1.20703m11.59375-.28125l-6.7539 1.92969m6.7539-1.9297l1.70313 1.76563m11.67968-1.48437l-6.89062 1.36719m6.89062-1.3672l1.5547 1.89844m-2.5547-1.69921l.77344.94921m13.48438-1.39843l-6.77344 1.86719m6.77344-1.8672l1.6875 1.78516m-2.67188-1.51171l.83985.89062m13.30078-1.61719l-6.45703 2.77344m6.45703-2.77344l1.91406 1.53906m-2.85547-1.13671l1.91406 1.53906m12.1836-2.26563l-6.14063 3.42188m6.14063-3.42188l2.05859 1.33204m-2.95312-.83594l2.0625 1.33203m-2.95313-.83203l1.02734.66406m14.03125-1.73047l-6.05859 3.5625"/><g clip-path="url(#aq)"><path fill="none" stroke="#000" stroke-linecap="round" stroke-linejoin="round" stroke-miterlimit="10" stroke-width=".5" d="M466.58984 332.08203l2.08985 1.28516"/></g><g clip-path="url(#ar)"><path fill="none" stroke="#000" stroke-linecap="round" stroke-linejoin="round" stroke-miterlimit="10" stroke-width=".5" d="M465.71094 332.60156l2.08984 1.28516"/></g><g clip-path="url(#as)"><path fill="none" stroke="#000" stroke-linecap="round" stroke-linejoin="round" stroke-miterlimit="10" stroke-width=".5" d="M140.75781 321.90625l6.48438-2.71484"/></g><path fill="none" stroke="#000" stroke-linecap="round" stroke-linejoin="round" stroke-miterlimit="10" stroke-width=".5" d="M154.8789 323.08203l4.8711-5.0664m-4.8711 5.0664l-2.35937-.67187m3.07031-.06641l-1.17968-.33594m15.01172 1.83985l2.41406-6.59766m-2.41406 6.59766l-2.4297.33593m2.78126-1.29687l-2.42969.33984m17.08984.80078l-.97656-6.95703m.97656 6.95703l-1.98437 1.44141m1.84375-2.45313l-1.98438 1.44141m16.17188-.61328l-2.4414-6.58984m2.4414 6.58984l-1.63281 1.83203m1.27734-2.79297l-1.6289 1.83203m1.27343-2.78906l-.8164.91406m15.36718.75782l-3.48828-6.10157m3.48828 6.10157l-1.3086 2.07421m.80079-2.96093l-1.3086 2.07422m.80079-2.96094l-.65625 1.03515m15.21875.59375l-3.95313-5.8125m3.95313 5.8125l-1.14453 2.17188m.5664-3.01563l-1.14453 2.16797m.57031-3.01562l-.5703 1.08594m15.01171.625l-3.89844-5.84766m3.89844 5.84766l-1.16406 2.16015m.59375-3.01172l-1.16406 2.16016m.59765-3.01172l-.58203 1.08203m15.8086-.08594l-5.44923-4.4375m5.44922 4.4375l-.47656 2.41016m-.3164-3.05469l-.47657 2.40625m-.3164-3.05078l-.23828 1.20313m15.71875-.9375l-6.60938-2.39063m6.60938 2.39063l.34765 2.42969m-1.3086-2.77735l.34376 2.42969m-1.30469-2.77735l.17188 1.21485m15.26953-1.54297l-7.01953-.34375m7.01953.34375l1.04297 2.22266m-2.0625-2.26954l1.04296 2.21875m13.26172-2.8164l-6.96094.94922m6.96094-.94922l1.4375 1.98828m-2.44922-1.85156l1.4336 1.99219m12.875-2.25391l-6.92188 1.19922m6.92188-1.19922l1.5039 1.9375m-2.51172-1.76172l.75391.96875m13.53125-1.32813l-6.84766 1.56641m6.84766-1.5664l1.60547 1.85546m-2.60156-1.6289l.80468.92969m13.41407-1.4961l-6.66016 2.24219m6.66016-2.24219l1.78125 1.6875m-2.75-1.35937l.89062.84375m13.42969-1.04688l-6.73828 1.9961m6.73828-1.9961l1.72266 1.75m11.2578-2.52734l-6.0664 3.55078m5.1836-3.03516l1.04296.64453m13.0586-1.3125l-5.875 3.85547m5.01953-3.29687l1.07812.58984m12.58204-1.76562l-4.85157 5.08593m4.85157-5.08593l2.36328.66406m11.86718.79297l-6.68359 2.17578m5.71094-1.85938l.88281.85157m6.5586.1875l7.0078-.53516m10.10938-3.23438l-.59375 7.00391m16.75781-5.0664l-6.29296 3.1289m5.3789-2.67578l.9961.71484m13.23046-1.17578l-6.28515 3.14453m6.28515-3.14453l1.9961 1.42188m-2.91016-.96485l1.9961 1.42188m11.72656-2.6289l-5.27344 4.64452"/><g clip-path="url(#at)"><path fill="none" stroke="#000" stroke-linecap="round" stroke-linejoin="round" stroke-miterlimit="10" stroke-width=".5" d="M466.19922 318.22656l2.29687.86328"/></g><path fill="none" stroke="#000" stroke-linecap="round" stroke-linejoin="round" stroke-miterlimit="10" stroke-width=".5" d="M465.42969 318.90234l2.29687.86329m-3.0625-.1875l1.14844.42968"/><path fill="#ff3030" fill-rule="evenodd" d="M286.85156 467.64844h7.6914V457.5039h-7.6914v10.14453"/><path fill="azure" fill-rule="evenodd" d="M288.6836 459.33594h.83202v5.73828h3.19532v.74219h-4.02735v-6.48047"/><path fill="#ff3030" fill-rule="evenodd" d="M366.74219 436.57813h7.6914v-10.14454h-7.6914v10.14454"/><path fill="azure" fill-rule="evenodd" d="M368.57422 428.26563h.83203v5.74218h3.19531v.73828h-4.02734v-6.48046"/><path fill="#ff3030" fill-rule="evenodd" d="M295.72656 414.38672h7.69531v-10.14453h-7.6953v10.14453"/><path fill="azure" fill-rule="evenodd" d="M297.5586 406.07422h.83593v5.74219h3.1914v.73828h-4.02734v-6.48047"/><path fill="#ff3030" fill-rule="evenodd" d="M211.39844 374.4414h7.6914v-10.14452h-7.6914v10.14453"/><path fill="azure" fill-rule="evenodd" d="M213.23047 366.1289h.83594v5.7422h3.1914v.73827h-4.02734v-6.48046"/><path fill="#ffffe0" fill-rule="evenodd" d="M319.55078 387.0625h22.1836v-10.1914h-22.1836v10.1914"/><path fill-rule="evenodd" d="M323.05078 378.70313h.51172v6.29296h-.78906v-4.48828h-1.38672v-.55469l.5586-.0664.25-.05469.23046-.08984.20313-.14063.17578-.21094.14062-.29296.10547-.39454m4.8125 0l.23047.01954.21875.05468.21094.08985.19531.1211.1836.14843.17187.17578.30078.41797.24219.4961.17969.54687.11328.57812.03906.58985-.03906.59375-.11329.58593-.17968.5547-.24219.5-.30078.42968-.17188.17969-.18359.15234-.19531.1211-.21094.09374-.21875.0586-.23047.01953-.22656-.01953-.21875-.0586-.21094-.09375-.19531-.12109-.1836-.15234-.17187-.1797-.30078-.42968-.24219-.5-.17969-.55469-.11328-.58593-.03906-.59375h.83594l.02734.5625.08203.5078.125.44142.16406.375.19141.30078.21094.22265.22265.13672.22266.04688.22656-.04688.22266-.13672.21094-.22265.1914-.30079.16407-.375.125-.4414.08203-.50781.02734-.5625-.02734-.5586-.08203-.5039-.125-.4336-.16407-.36719-.1914-.28906-.21094-.21484-.22266-.13281-.22656-.04297-.22265.04297-.22266.1328-.21094.21485-.1914.28906-.16407.3672-.125.43359-.08203.5039-.02734.5586h-.83594l.03906-.58985.11328-.57812.1797-.54688.24218-.4961.30078-.41796.17188-.17578.18359-.14844.19531-.1211.21094-.08984.21875-.05468.22656-.01954m5.09375 0h.50781v6.29297h-.78515v-4.48828h-1.39063v-.55469l.5625-.0664.25-.05469.23047-.08984.20313-.14063.17578-.21094.14062-.29296.10547-.39454m2.82422 2.17579h.78516l.01953-.31641.0586-.28516.10155-.2539.14063-.21485.17969-.17578.22265-.1289.26563-.07813.3086-.02734.23827.01953.22266.0625.20312.10156.1797.14063.14843.17187.11328.20703.07422.23438.02344.26562-.02344.26563-.0625.22656-.11328.1914-.15235.17188-.20312.16016-.2461.16797-.6328.39062-.53907.3125-.4375.3164-.34766.32423-.26171.33593-.19141.35157-.125.36718-.0664.39454-.02344.41796h4.21093v-.73828h-3.33203l.08594-.28515.11328-.23829.14844-.19921.1875-.1797.23047-.17187.27734-.17578.71875-.41797.41406-.20312.34375-.23047.28125-.2539.21875-.26563.16406-.27735.11329-.28515.0625-.28516.01953-.28125-.03906-.38281-.1211-.34766-.1914-.30859-.25-.26172-.30079-.21484-.34765-.15625-.3789-.09766-.40626-.03515-.4336.03125-.39843.10156-.35547.16406-.30469.23438-.25.30468-.18359.375-.11719.44531-.03906.51954"/><path fill="#ffffe0" fill-rule="evenodd" d="M208.59375 356.7461h22.17969v-10.19141h-22.17969v10.1914"/><path fill-rule="evenodd" d="M212.09375 348.38672h.50781v6.29297h-.78515v-4.48828h-1.39063v-.5547l.5586-.0664.2539-.05078.23047-.08984.20313-.14453.17187-.20704.14453-.29687.10547-.39453m4.8125 0l.23047.01953.21875.05469.20703.08984.19531.1211.1836.14843.17187.17578.30469.42188.24219.49219.17968.54687.10938.57813.03906.58984-.03906.59375-.10938.58594-.17968.55469-.2422.5-.30468.42968-.17187.17969-.1836.15234-.19531.125-.20703.08985-.21875.0586-.23047.01952-.23047-.01953-.21875-.0586-.20703-.08984-.19531-.125-.1836-.15234-.17187-.17969-.30469-.42969-.24219-.5-.17968-.55468-.10938-.58594-.03906-.59375h.83203l.03125.5664.07813.50391.1289.4414.16016.375.1914.30079.21094.22266.22266.13671.22656.04688.22656-.04688.22266-.13671.21094-.22266.1914-.30078.16016-.375.1289-.4414.08204-.50391.02734-.56641-.02734-.5586-.08203-.5-.12891-.4375-.16016-.36327-.1914-.29297-.21094-.21485-.22266-.13281-.22656-.04297-.22656.04297-.22266.13281-.21094.21485-.1914.29296-.16016.36329-.1289.4375-.07813.5-.03125.55859h-.83203l.03906-.58984.10938-.57813.17968-.54687.2422-.4922.30468-.42187.17187-.17578.1836-.14844.19531-.12109.20703-.08984.21875-.05469.23047-.01953m5.08984 0h.51172v6.29297h-.78906v-4.48828h-1.38672v-.5547l.5586-.0664.2539-.05078.22656-.08984.20703-.14453.17188-.20704.14063-.29687.10546-.39453m2.82422 2.17578h.78906l.01954-.3164.05859-.28516.09766-.2539.14062-.21485.1836-.17578.22265-.12891.26563-.07813.30468-.02734.23828.01953.22657.0625.20312.10156.17969.14063.14844.17188.11328.20703.07031.23437.02734.26563-.02343.26953-.0664.22265-.10938.19141-.15625.17188-.19922.16406-.2461.16406-.63672.39063-.53515.3125-.4375.3164-.34766.32422-.26562.33594-.1875.35156-.125.3711-.07031.39062-.01954.41797h4.21094v-.73828h-3.33203l.08203-.28516.11328-.23438.14844-.20312.1875-.17969.23047-.17187.27734-.17578.71875-.41797.41406-.20313.34766-.23047.28125-.2539.21875-.26563.16406-.27734.10938-.28516.0664-.28515.01954-.28125-.04297-.38282-.1211-.34765-.1875-.3086-.25-.26171-.30468-.21485-.34375-.15625-.38282-.09765-.40625-.03516-.43359.03125-.39844.10156-.35547.16406-.30468.23438-.2461.30469-.1875.375-.11328.4453-.04297.51954"/><path fill="#ffffe0" fill-rule="evenodd" d="M186.92969 450.125h22.17969v-10.1914h-22.1797v10.1914"/><path fill-rule="evenodd" d="M190.42969 441.76563h.50781v6.29687h-.78516v-4.49219h-1.39062v-.55469l.5586-.0625.2539-.05468.23047-.08985.20312-.14062.17188-.21094.14453-.29297.10547-.39844m4.8125 0l.23047.01954.21875.05468.20703.08985.19531.1211.1836.15233.17187.17579.30469.41796.24218.4922.1797.54687.10937.57812.03906.59375-.03906.59375-.10938.58203-.17969.5547-.24218.5039-.3047.42578-.17187.17969-.18359.15234-.19531.125-.20703.08984-.21875.0586-.23047.01953-.23047-.01953-.21875-.0586-.20703-.08984-.19531-.125-.1836-.15234-.17187-.1797-.3047-.42577-.24218-.5039-.17969-.5547-.10937-.58203-.03906-.59375h.83203l.02734.5625.08203.5039.1289.44532.16017.375.1914.30078.21094.21875.22266.13672.22656.04688.22656-.04688.22266-.13672.21093-.21875.19141-.30078.16016-.375.1289-.44531.07813-.5039.03125-.5625-.03125-.5625-.07813-.5-.1289-.4336-.16016-.36719-.1914-.29297-.21094-.21484-.22266-.1289-.22656-.04688-.22656.04687-.22266.1289-.21094.21485-.1914.29297-.16016.36719-.1289.4336-.08204.5-.02734.5625h-.83203l.03906-.59376.10937-.57812.1797-.54688.24218-.49219.30469-.41796.17187-.17579.1836-.15234.1953-.1211.20704-.08984.21875-.05468.23047-.01954m5.08984 0h.51172v6.29688h-.78906v-4.49219h-1.38672v-.55469l.5586-.0625.2539-.05468.22656-.08985.20703-.14062.17188-.21094.14062-.29297.10547-.39844m2.82422 2.17579h.78906l.01953-.31641.0586-.28516.09765-.2539.14063-.21485.17969-.17187.22656-.1289.26562-.08204.3047-.02734.23827.02344.22656.0625.20313.10156.17969.13672.14844.17187.11328.20703.0703.23828.02345.26172-.01953.26953-.06641.22266-.10938.19531-.15625.16797-.19922.16406-.24609.16407-.63672.39062-.53515.3125-.4375.3164-.34766.32423-.26563.33593-.1875.35157-.125.37109-.0703.39063-.01954.42187h4.21094v-.74219h-3.33203l.08203-.28125.11328-.23828.14844-.20312.1875-.1797.23047-.17187.27734-.17578.71875-.41406.41406-.20703.34766-.23047.28125-.25.21875-.26953.16406-.27735.10938-.28515.0664-.28516.01953-.28125-.04297-.38281-.12109-.34766-.1875-.30468-.25-.26563-.30469-.21094-.34375-.16015-.3828-.09766-.40626-.03515-.4336.03515-.39843.09766-.35547.16797-.30469.23437-.24609.30078-.1875.375-.11719.44531-.03906.51954"/><path fill="#ffffe0" fill-rule="evenodd" d="M319.55078 346.66016h22.1836v-10.19141h-22.1836v10.1914"/><path fill-rule="evenodd" d="M323.05078 338.30078h.51172v6.29688h-.78906v-4.4922h-1.38672v-.55468l.5586-.0625.25-.05469.23046-.08984.20313-.14063.17578-.21093.14062-.29297.10547-.39844m4.8125 0l.23047.01953.21875.05469.21094.08984.19531.1211.1836.15234.17187.17578.30078.41797.24219.49219.17969.54687.11328.57813.03906.59375-.03906.59375-.11329.58203-.17968.55469-.24219.5-.30078.42969-.17188.17968-.18359.15235-.19531.125-.21094.08984-.21875.0586-.23047.01952-.22656-.01953-.21875-.05859-.21094-.08984-.19531-.125-.1836-.15235-.17187-.17969-.30078-.42968-.24219-.5-.17969-.55469-.11328-.58203-.03906-.59375h.83594l.02734.5625.08203.5039.125.44532.16406.375.19141.30078.21094.21875.22265.13672.22266.04687.22656-.04687.22266-.13672.21094-.21875.1914-.30078.16407-.375.125-.44531.08203-.50391.02734-.5625-.02734-.5625-.08203-.5-.125-.4375-.16407-.36328-.1914-.29297-.21094-.21485-.22266-.1289-.22656-.04688-.22265.04688-.22266.1289-.21094.21485-.1914.29297-.16407.36328-.125.4375-.08203.5-.02734.5625h-.83594l.03906-.59375.11328-.57813.1797-.54687.24218-.49219.30078-.41797.17188-.17578.18359-.15234.19531-.1211.21094-.08984.21875-.05469.22656-.01953m5.09375 0h.50781v6.29688h-.78515v-4.4922h-1.39063v-.55468l.5625-.0625.25-.05469.23047-.08984.20313-.14063.17578-.21093.14062-.29297.10547-.39844m6.80469 1.6211h-.78906l-.05079-.21094-.08203-.1875-.10546-.16016-.12891-.1289-.14844-.10547-.16015-.07422-.16797-.04297-.17188-.01563-.32812.03907-.28907.12109-.24609.19531-.20313.26953-.16015.33985-.11719.40234-.07031.46875-.02344.52344.1914-.20313.1836-.15625.1875-.125.1836-.08593.1875-.0625.1953-.03516.39844-.02344.3086.02735.32031.09375.3164.15625.29298.21875.2578.28515.19923.35156.07031.19922.05469.21875.02734.23438.0039.25-.78515.04687-.02734-.2578-.07813-.25392-.1211-.23437-.16015-.21094-.19531-.17578-.21875-.13672-.24219-.08984-.2539-.03125-.25391.03125-.24219.08984-.21875.13672-.1914.17578-.16407.21094-.12109.23438-.07813.2539-.02734.25781.02735.25782.07812.25.1211.23437.16406.21094.1914.17969.21875.13671.24219.08594.2539.03125.25391-.03125.24219-.08594.21875-.13671.19531-.1797.16016-.21093.1211-.23437.07812-.25.02734-.25782.78516-.04687-.03125.3711-.08985.37109-.16015.35937-.22266.32813-.28906.28125-.16797.12109-.1914.10156-.20313.08203-.22656.0625-.23829.03907-.26171.01171-.28125-.01562-.26172-.04688-.23828-.07812-.21485-.10547-.19531-.1289-.17188-.15625-.15625-.1797-.13671-.20312-.11329-.22265-.10156-.2422-.14453-.53515-.08594-.59375-.02734-.64062.03906-.74219.11328-.66406.1875-.57813.1211-.2539.13672-.23047.15234-.20703.16797-.1836.1875-.15234.20312-.13281.21875-.10157.23047-.0703.25-.04688.26172-.01563.36328.03516.33203.09375.29688.15234.25781.19922.21094.24219.16406.27344.11719.30468.0625.32031"/></g></defs><use xlink:href="#au"/></svg>