<svg xmlns="http://www.w3.org/2000/svg" role="img" xmlns:xlink="http://www.w3.org/1999/xlink" viewBox="142.45 309.95 326.84 171.84"><defs><clipPath id="a"><path d="M144 323h1v157.32813h-1zm0 0"/></clipPath><clipPath id="b"><path d="M144 311.67188h324v168.65625H144zm0 0"/></clipPath><clipPath id="c"><path d="M202 311.67188h16V333h-16zm0 0"/></clipPath><clipPath id="d"><path d="M203 311.67188h6V315h-6zm0 0"/></clipPath><clipPath id="e"><path d="M205 311.67188h3V313h-3zm0 0"/></clipPath><clipPath id="f"><path d="M467 311.67188h1v168.65625h-1zm0 0"/></clipPath><clipPath id="g"><path d="M144 478h4v2.32813h-4zm0 0"/></clipPath><clipPath id="h"><path d="M146 480h1v.32813h-1zm0 0"/></clipPath><clipPath id="i"><path d="M153 479h8v1.32813h-8zm0 0"/></clipPath><clipPath id="j"><path d="M159 480h2v.32813h-2zm0 0"/></clipPath><clipPath id="k"><path d="M166 479h9v1.32813h-9zm0 0"/></clipPath><clipPath id="l"><path d="M173 480h3v.32813h-3zm0 0"/></clipPath><clipPath id="m"><path d="M172 480h2v.32813h-2zm0 0"/></clipPath><clipPath id="n"><path d="M180 479h8v1.32813h-8zm0 0"/></clipPath><clipPath id="o"><path d="M187 480h2v.32813h-2zm0 0"/></clipPath><clipPath id="p"><path d="M186 480h2v.32813h-2zm0 0"/></clipPath><clipPath id="q"><path d="M193 479h8v1.32813h-8zm0 0"/></clipPath><clipPath id="r"><path d="M200 480h2v.32813h-2zm0 0"/></clipPath><clipPath id="s"><path d="M199 480h2v.32813h-2zm0 0"/></clipPath><clipPath id="t"><path d="M206 479h9v1.32813h-9zm0 0"/></clipPath><clipPath id="u"><path d="M213 480h2v.32813h-2zm0 0"/></clipPath><clipPath id="v"><path d="M212 480h2v.32813h-2zm0 0"/></clipPath><clipPath id="w"><path d="M220 479h8v1.32813h-8zm0 0"/></clipPath><clipPath id="x"><path d="M226 480h1v.32813h-1zm0 0"/></clipPath><clipPath id="y"><path d="M233 479h8v1.32813h-8zm0 0"/></clipPath><clipPath id="z"><path d="M240 480h2v.32813h-2zm0 0"/></clipPath><clipPath id="A"><path d="M246 479h9v1.32813h-9zm0 0"/></clipPath><clipPath id="B"><path d="M253 480h3v.32813h-3zm0 0"/></clipPath><clipPath id="C"><path d="M260 479h8v1.32813h-8zm0 0"/></clipPath><clipPath id="D"><path d="M267 480h2v.32813h-2zm0 0"/></clipPath><clipPath id="E"><path d="M273 479h8v1.32813h-8zm0 0"/></clipPath><clipPath id="F"><path d="M280 480h2v.32813h-2zm0 0"/></clipPath><clipPath id="G"><path d="M286 479h9v1.32813h-9zm0 0"/></clipPath><clipPath id="H"><path d="M293 480h3v.32813h-3zm0 0"/></clipPath><clipPath id="I"><path d="M300 479h8v1.32813h-8zm0 0"/></clipPath><clipPath id="J"><path d="M307 479h2v1.32813h-2zm0 0"/></clipPath><clipPath id="K"><path d="M313 478h8v2.32813h-8zm0 0"/></clipPath><clipPath id="L"><path d="M320 478h3v2.32813h-3zm0 0"/></clipPath><clipPath id="M"><path d="M326 478h8v2.32813h-8zm0 0"/></clipPath><clipPath id="N"><path d="M332 479h2v1.32813h-2zm0 0"/></clipPath><clipPath id="O"><path d="M340 478h8v2.32813h-8zm0 0"/></clipPath><clipPath id="P"><path d="M345 478h3v2.32813h-3zm0 0"/></clipPath><clipPath id="Q"><path d="M353 479h8v1.32813h-8zm0 0"/></clipPath><clipPath id="R"><path d="M359 479h2v1.32813h-2zm0 0"/></clipPath><clipPath id="S"><path d="M366 479h8v1.32813h-8zm0 0"/></clipPath><clipPath id="T"><path d="M380 477h7v3.32813h-7zm0 0"/></clipPath><clipPath id="U"><path d="M396 476h2v4.32813h-2zm0 0"/></clipPath><clipPath id="V"><path d="M407 477h6v3.32813h-6zm0 0"/></clipPath><clipPath id="W"><path d="M423 476h1v4.32813h-1zm0 0"/></clipPath><clipPath id="X"><path d="M435 476h4v4.32813h-4zm0 0"/></clipPath><clipPath id="Y"><path d="M449 476h2v4.32813h-2zm0 0"/></clipPath><clipPath id="Z"><path d="M462 476h3v4.32813h-3zm0 0"/></clipPath><clipPath id="aa"><path d="M144 465h4v4h-4zm0 0"/></clipPath><clipPath id="ab"><path d="M144 452h4v3h-4zm0 0"/></clipPath><clipPath id="ac"><path d="M144 438h4v5h-4zm0 0"/></clipPath><clipPath id="ad"><path d="M144 424h4v6h-4zm0 0"/></clipPath><clipPath id="ae"><path d="M144 410h3v7h-3zm0 0"/></clipPath><clipPath id="af"><path d="M144 398h4v5h-4zm0 0"/></clipPath><clipPath id="ag"><path d="M465 397h3v2h-3zm0 0"/></clipPath><clipPath id="ah"><path d="M144 384h4v6h-4zm0 0"/></clipPath><clipPath id="ai"><path d="M144 371h4v6h-4zm0 0"/></clipPath><clipPath id="aj"><path d="M144 358h4v5h-4zm0 0"/></clipPath><clipPath id="ak"><path d="M466 358h2v2h-2zm0 0"/></clipPath><clipPath id="al"><path d="M144 344h4v6h-4zm0 0"/></clipPath><clipPath id="am"><path d="M466 345h2v3h-2zm0 0"/></clipPath><clipPath id="an"><path d="M144 330h2v8h-2zm0 0"/></clipPath><clipPath id="ao"><path d="M466 332h2v3h-2zm0 0"/></clipPath><clipPath id="ap"><path d="M465 332h3v3h-3zm0 0"/></clipPath><clipPath id="aq"><path d="M144 316h2v9h-2zm0 0"/></clipPath><clipPath id="ar"><path d="M466 318h2v2h-2zm0 0"/></clipPath><clipPath id="as"><path d="M465 318h3v3h-3zm0 0"/></clipPath><g id="at" clip-path="url(#clip1)"><path fill="#fff" fill-opacity="0" fill-rule="evenodd" d="M0 0h1000v1000H0zm0 0"/><path fill="#d3d3d3" fill-opacity="0" fill-rule="evenodd" d="M162.15234 355.86719l-.23437.29297.0586.23437.11718.17188.17578.23437.29297.34766.11328.0586.11719-.17188.0586-.23438.17577-.17578.46485-.17578h.69922l.23437.29297.28906.8164.0586.17579.17578.23046.35156.23438.69922.69922.17188.17578.23437.34765.23438.41016.28906.58203.41015.46485.23047.23437.23438.17578.11719.23047.17578.29297.17187 1.16406v.23438l.0586.28906.05859.11719.11719.11719.34765.41015.11719.17188.17578.17578.17578.23437.11719.17188.17188.35156.05859.23438.23437.40625.23438-.0586-.17578.17578-.0586.92969h-.58203l-.23437-.11328-.34766.11328-.11719.11719-.05859.29297-.0586.17578-.11718.17187-.46484.29297-.0586.23438-.0586.11328v.64453l.0586.17187v.41016l.0586.0586v.40624l.05859.40625.11719.17579.05859.05859.23047.64062-.0586.29297v.69922l-.05859.58203v.23438l-.0586.23047-.05468.35156v1.92187l.05469.1172h.42578l-.36719.11718-.02344.35156.89063 1.16797 1.74219.53906 1.33984.35938v.53906l.08984.8086.53516.71484 1.51953.26953.89063-.08594.08984 1.16406.53516.1797 1.16015-.1797 2.05469-.98437 1.16016-.36328 1.8789-.17578 1.69531-.1797-.17968.71876-1.51563.08594-1.25.08984-.80469.26953-1.07421.8086.26953.71875.53515.89843-.17968.625-.26563.8086.26563 1.07812.625.89844.80468.17969 1.25-.1797-.26562.72267.09766.5039.05468.29297v.17188l.0586.29296v.40625l.17578.1172.35156.11718h.40625l.29297-.17578.11328-.11719.0586-.11719.11718-.23047.0586-.17578.35156-.46484.23047-.17578.17578-.0586.17578.0586.0586.17578.11718.98828.05469.46875.0586.17188.11718.23437.17578.0586.8164.05859h.28907l.11719.23437.05859.40625.0586.35156v1.10547l.11718.29297.11719.34766.28906.69922.17578.35156.58203.7539.35157.17579.17187.0586.46875.23437.64063.46484.34765.23438.29297.17578.29297.05468.23047.0625.8164.34766.29297.17578.11328.17188.35157.35156.11719.17578.52343.64063v.28906l.0586.35156v.34766l.05859.35156.0586.28906.11718.0586.17188.05859h.17578l.58203.23437.17578.1172.17578.28905.17578.23438.11328.23437.29297.23047.11719.11719v.41016l.0586.05468.28906.23438.23437.11719.0586.11718.11718.17188.0586.11719.23047.23437.05859.17578.23437.0586.1172.05859-.1172.11328-.05859.11719v.11719l-.11719.29296-.11719.28907v.58203l.17579.11719.11718.05859.0586.11719.11719.11719.11328.05859.17578.34765.0586.35157.05858.40625v.17578l-.05859.17578-.11719.69922v.17187l.1172.17579.29296.29296h.40625l.17578.1172.11719.17187.11719.29296v.23438h-.52735l-.23047-.23438h-.23437l-.17578.0586-.0586.69922.0586.34765.11719.17579.17578.41015.11718.23047.28907.46875.17578.05469h.52344l.23437.0586.75781.64062.0586.29296v.23438l.05859.0586.23047.34765v.35156l-.11719.17188v.29297l.29297.28906.29297.17578.17187.0586.29297.17577.29297.1172.58203.40624.28906.23438.29297.17578.21875.16015.01563.01172.23047.17579.64062.52343.17578.23438.1172.17578.17577.17578.11328.17188v.64062l.1172.17578.46874.11719.58203.11719.23438.05859.23047.11328.29297.11719.11328.0586.58593.35156.28907.17187.17578.0625.17578.05469.17578.0586.69922.35155.28906.17579.23438.05468.28906.17578.23437.1172.64063.40624.29297.11719.17187.0586.23438.05859.41015.05859.23047.0586.23438.11718.0586.17188-.41017.17578.46875.0586.0586.29296.11328.23438.17578.05468.23438.0586.17578.05859.40625.11719.64062.23437.11719.17188.0586.23437v.17578l-.0586.1172-.0586.40624.23438.23438.11719.05859.34766.11719.64062.23047.17578.11718.28906.1172.17578.17577.23438.46485.58203 1.10546.17578.17579.34766.17578.17578.11719.35156.11718 1.04688.52344.23437.0586.46485.11327.29297.0586.46484.17578.75781.58203.23438.23438.34765.46484.17578.17578.28907.23438.8164.69921.29297.17579.28906.28906.29297.17578.29297.28906.69531.64063.17578.17578.29297.23437.28907.23438.46875.28906.64062.58203.34766.23438.23437.29297.34766.34765.35156.46485.9336.99218.34765.40625.11719.17579.23437.05859.11328.11719.64454.17578.23047.11328.23437.0586.29297.17577.23047.1172.9336.69921.40624.40625.23438.17578.40625.17578.23437.11719.8164.34766.34766.23437.23438.11719.29297.28906.23047.11719.7578.35156.35157.17188.23047.05859.29297.11719.23437.0586.8711.17577h.8164l.46875.23047.17188.0586.875.69921.46484.1172.29297.05858.17578.0586.23047.0586.46875.05859.34766.05859.35156.0586.40625.05859h.29297l.17187.0586v.23046l.17578.17578h.29297l.34766.0586.35156.05859.69922.11719h.64063l.46484-.23438.29297-.17578.17187-.11719.41016-.17187.28906-.17578.9336-.46485.46875-.29297.52343-.29296.46485-.17188.46484-.17578 1.05078-.46485.28906-.11718.41016-.11719.28906-.11719.52735-.17578 1.51562-.69922.58203-.34765.28907-.0586.29297-.0586.34765-.11718.875-.23047.35156-.11719h.11329l.23437-.05859.875-.23437.23438-.0586h.8125l.35156-.0586.8164-.11718.17188-.0586.35156-.05468.29297-.0586.23047-.05859.8164-.17578.17579-.0586h.34765l.23438-.05859.46484-.11718.75781-.17188.23438-.0586h.34765l.41016-.11718.28906-.0586 1.28516-.05859h.28906l.41016-.0586.23047-.05858h.17578l.875-.1172h.40625l.41015-.11718h.34766l.35156-.11328.8711-.0586h1.75l1.04687.28907.41016.11719.28906.11718.35156.11719.28907.11719 1.05078.17187.28906.0586h.29297l.29297.05859.17187.0586.41016.05859.17187.0586.1172.05858h.11718l.11719.0586.35156.0586h.11328l.41016.0664 1.92187.39453 1.92578.39453 1.51953.44922 1.69532.71875 2.14453.80469 1.60547-.71875 1.42968-.80469 1.16016-1.07813 1.25-.44921 3.03516-.71875 1.875-.35938 2.14453-1.34765 2.23437-1.25391 2.5-1.25781 1.69531-.44922 1.78516-.17969 1.16016-.26953.625.53906 1.33984-.26953.71485-.98828.98437-1.34375.44531-.17969.80469-.35937 1.875-.53907 1.78516-.44921 1.25-.26954 1.16015-.08984 1.69922-.08984 1.96094-.26954 1.25-.08984h.53906l.625-.08984h.89063l2.14453-.17969 2.41015-.17969 2.58985-.08984 1.69531.17969 1.60938.08984 1.42968.35938 1.16016.71875 1.875.98828 1.16015 1.52734.26563.71484.6289.08985.35548.89844.53515.53906.53516 1.52734 1.07422.35938h.53515l-.80469.53515.08985 1.70703.71484 2.69532.89063.80468.89453.98829.71484 1.2578 1.78516.53907 1.51953-.17969.35547 1.34375 1.60937-.80469.98047-.53906.26953.26953.31641-.21484.21875-.14453.80078.44922.44922-.35938h.35547l.53515-.26953.53907-.71875.53515-.26953.625-.98828 1.16016.44922.83984.3711 1.39454.61718 1.6953-.17969h1.60548l1.78515.08985.17969-1.70704.53516-1.34375.80468.26954.4922.84765.40233.40625-.08984.53906v.35938l.71485.44922.71093-.26953h1.42969l.35938.98828.4453 1.25781.71485 1.34375 1.25.6289 1.69531.62891.71485-.17969.17969-.53906.98046-.08984.44922.35937.08594 1.25782-.26563.6289-.53515.17969v.53906l.71484.98438.26563.53906.98437.98828.80078 1.07813-.26562.35937-.08985.89844-.625 2.33203-.35546 2.0664-.08985 1.79298-.17969.71875-.08984.53906v1.4375l-.98047 1.88281-.35937 1.70703-.53516.89844-.80469 1.16797-.26562.53906 2.05469 1.2539.08593.35938-.35546.53906-.08985-.17968v.80859l.08985 1.4375-.44532.71484-1.07422.09375-.26562.71485.53515.89844.8047.71875 1.16015.80859 1.33984.26953.44531.35938-.35546.44921-1.78907-.08984-1.25-.44922-.71484-.71875-.625-.08984-.17578 3.58984-.1875 1.3086h89.35937V311.70313h-55.26953v49.08203l.76172.125 3.28906.54296 2.02344 2.83594v2.7539l2.35156.33204 2.34766.33203h4.05078l-1.3789 4.16016-2.02344.70703-2.02344.70312-.54297.34375-2.59375 1.6172-.1875.11718-2.02344-2.07813-.73046-2.74218-2.67188-2.07813-1.375-3.5-.0664-.08203-1.95704-2.67188 2.75-1.41796v-49.08204H294.42187v91.41407l.1172.03125.1328.01172.07422.07421.10547.04688.08985.0586.08593.05859.08985.0586.29687.29687.0586.08984.03125.11719.02734.11719.01563.13671-.03125.1172-.0586.08983-.0586.08594-.04296.10547-.04688.10156-.02734.1211v.14453l.17578.26953.14844.14844.07422.08594.07422.07421.04296.10547.0625.08985.0586.08593.04297.10547.0586.08985.04687.10156.04296.10547.0586.08594.11719.17968.07421.07422.0625.08594.0586.08984.04297.10547.0586.08985.05858.08593.0625.08985.0586.08984.04297.10156.11719.17969.07421.07422.0586.08594.07422.07421.08984.0586.10547.04687h.14844l.1328-.01562.13282.01562.10156-.04687.07422-.07422.04688-.10156-.01563-.13281v-.14844l-.04687-.10547-.02735-.11719-.04687-.10156-.02735-.1211-.04296-.10156-.0625-.08984-.04297-.10156-.04297-.10547-.03125-.11719-.01563-.13281-.01171-.13672.08593-.0586.0586-.08593.12109-.03125.04297.10547.01562.1328v.1172l.0586.10156.0586.08984.08983.0586.14844.14843.0586.08985.04296.10547-.01171.10156.08593.0586.10547.04687.08594.0586.08984.05858.07422.07422-.11719.02735-.10546.04687-.08594.0586-.07422.07421-.0586.08985-.0625.08594-.02734.12109-.04687.10156-.04297.10547-.03125.11719-.01172.13281-.01563.13281v.14844l.02735.11719.04687.10547.04297.10156.0586.08984.07421.07422.08985.0586.07422.07421.08984.0586.0586.08984.04296.10547.04688.10156.11719.03125.1328.01563h.14845l.11718-.03125.10547.04297.04297.10547.04688.10156.02734.1211L299.5 410l.02734.11719.03125.1211.02735.11718.10547.04297.10156.04687.13281-.01562.14844.14844.0625.08593.07422.07422.07031.07422.08984.0625.10547.04297.10156.04297.1172.03125.13671.01562.11719-.03125.07422-.07422.02734-.11718-.01172-.13282-.03125-.12109-.02734-.11719.04297-.10547h.11719l.08984.0625.11719.02735h.14843l.13282.01562h.14843l.13282.01563.1328-.01563h.14845l.1328-.01562.13282-.01172.13672.01172.11719-.02735.13281-.01562.1914-.0586-.05859.17579-.01562.1328-.02735.1211-.01562.13281-.0586.08594-.1328.01563-.10548.04687-.10546.04297-.1172.03125-.11718.02735-.26563.03125h-.14843l-.13281.01562-.07422.07422.05859.08594.14844.14843.11719.1797.07421.0703.08985.0625.08984.0586.08594.0586.08984.05858.10156.04297.10547.0625.10547.04297.08594.0586.10547.04687.10156.04297.17969.11719.0586.08984-.04298.10156-.04687.10547.01562.13281.22266.22266.0586.08985.04296.10156.03125.1211.04297.10155.01563.13282.03125.11718.01171.13672.03125.11719.14844.14844.10156.04297.10547.04296.1172.03125.1328.01563.13672.01563h.11719l.11719-.03125.08984-.0586.04297-.10547.04688-.10156.04296-.10547.03125-.11719.01172-.1328v-.14845l-.01172-.1328-.01562-.13282-.03125-.11719-.04297-.10547-.04688-.10547-.04296-.10156-.04297-.10547-.01563-.13281.01563-.13281.02734-.11719.03125-.11719.02735-.1211.04687-.10155.08984-.0586.08594-.0625.07422-.07422.08984-.05859.22266-.22266.0586-.08593.07421-.07422.11719-.17969.0586-.08594v-.14844l-.07423-.07421-.10156-.04688-.10547-.04297-.10156-.04297-.0586-.08984-.04687-.10547-.02734-.11719.08984-.05859.11719-.03125.10156-.04297.17969-.11719.14844-.14843.01172-.13282-.01172-.10546-.08985-.0586-.1328.01563h-.14845l-.1328.01562-.13282-.01562-.1211-.03125-.08593-.0586-.07422-.07422-.0586-.08984-.0625-.08594-.11718-.17969-.0586-.08593.03125-.1211.08594-.05859.1211-.03125.05859-.08594v-.1211l-.03125-.11718-.0586-.08984-.05859-.08594-.04687-.10547-.02735-.11719-.01562-.1328.0586-.08985.07421-.07422.08984-.0586.1172-.17968.07421-.07422.0586-.08594.14843-.14844.1211-.03125.1328-.01562.13282.01562.07422.07422.04297.10547.01562.13281-.03125.1172-.11719.03124-.1328.01172-.14844.14844-.04297.10547-.04688.10156-.02734.1211-.03125.11718v.14844l.03125.11719.04297.10546.05859.08985.07422.07031.07422.07422.11719.03125.12109.02734.11719-.02734.1328-.01563h.1172l.08984.0586.07422.07422.04687.10546.0586.08594.10156.04688.13281.01562.10547.04297.08594.0586-.01172.10546-.07422.07422-.17969.11719-.05859.08984-.08984.0586-.07032.07422-.07421.07421-.0625.08985-.02735.11719-.01562.1328.01562.13282-.01562.13281v.14844l.01562.13281.02735.1172.03125.12108.07421.07422.08985.0586.08594.0586.08984.05858.11719.03125v.08594l-.10157.04688-.08984.0586-.26563.03124-.11718.02735h-.14844l-.10547.04296-.10156.04688-.0586.08984-.0625.23438-.01171.13281-.03125.1211-.01563.1328v.29298l-.01172.1328.01172.13673.01563.1328.1328.01563.13282.01172.1211.03125.08593.0586.07422.07421.04688.10547.04296.10157.01563.1328v.44532l-.01563.13281v.44532l.03125.26562.02735.11719.01562.13281.03125.11719.08594.21094.03125.26562v.14844l-.03125.11719-.02734.11718-.03125.1211-.02735.11719-.03125.11718-.03125.1211-.01171.1328-.01563.13282.08984.0586.1172-.03125.10155.01562.04688.10547-.03125.26562v.44141l-.04297.10547-.04688.10547-.04296.10156-.04297.10547-.0586.08594-.03125.12109-.04296.11719-.03125.11719-.01563.1328.01563.13282.05859.08984.10547.04688.08594.0586.05859.08593-.01172.13672-.03125.11719-.04297.10156v.44531l-.01562.13281v.14844l-.03125.11719-.04297.10547-.02735.11719-.04687.10546-.04297.10157-.03125.12109-.02734.11719-.03125.13281-.03125.11719-.02735.11719-.04297.10546-.03125.1172-.03125.12108-.01171.13282-.01563.13281v.29688l.02734.11718v.14844l.04688.39844.02734.11719.0586.08984.12109.03125h.14844l.13281-.01563.0586.08985v.11719l-.0586.08984-.08984.0586-.10157.04296-.10546.04688-.08985.05859-.08594.0586-.13671.01562-.1172-.03125-.1328-.01563-.10157.04688-.0625.08594-.01172.13671-.01562.13282-.03125.11719-.02735.11718-.01562.13281-.03125.1211v.29687l.01563.13282.03125.11718v.14844l.01171.13281v.14844l-.02734.11719-.04688.10156-.02734.1211-.03125.11718-.0586.08985-.07421.07421-.10156.04297-.10547.04688-.11719.02734-.1211.03125-.10156-.04687.0586-.08594.10547-.04688.02734-.11718.03125-.11719.02734-.1211.03125-.11718v-.14844l.01563-.13281-.03125-.11719-.04297-.10547-.10547.01563-.07422.07422-.10156.04296-.08984.0625-.07422.07422-.04297.10157-.01563.1328-.03125.1172L304.25 426l-.03125.11719-.02734.11719-.03125.12109-.02735.11719-.03125.11718-.04297.10547-.08984.0586h-.08984l-.1172-.03125-.03124-.08594.01562-.13672-.03125-.11719v-.14844l-.01171-.1328v-.14844l-.0625-.23438-.02735-.1211-.04297-.10156-.04687-.10546-.0586-.08594-.05859-.08985-.04297-.10546-.0625-.08594-.14844-.14844-.0703-.07422-.10548-.04687-.10547-.04297-.10156-.04297-.29687-.29688-.08985-.07421-.08594-.0586-.10546-.04297-.08985-.0625-.08594-.0586-.10546-.04296-.08985-.0586-.08594-.0625-.07421-.0703-.10547-.04688-.08594-.0586-.10547-.04296-.08984-.0625-.10156-.04297-.10547-.04297-.08594-.0586-.10547-.04687-.10547-.04297-.10156-.04687-.08985-.0586-.10156-.04297-.10547-.04296-.08984-.0625-.11719-.02735-.13281-.01562-.13281.01562H299.75l-.13281.01563-.11719-.03125-.08984-.0586-.07422-.07422-.08985-.05859-.10156-.04688h-.14844l-.12109-.02734-.10156-.04297-.07422-.07422-.11719-.17968-.08984-.0586-.10156-.04297-.08985-.0625-.10547-.04296-.08984-.0586-.08594-.0586-.10547-.04687-.0586-.08594-.05858-.08984-.04297-.10547-.04688-.10156-.07422-.07422-.08594-.0586-.07421-.07421-.08985-.0586-.22265-.22265-.04297-.10547-.03125-.26563.10547-.04296h.14453l.10547.04296.07421.07422.08985.0586.08594.0586.10546.04687.08985.05859.14844.14844.0703.07422.14845.14843.0625.08594.07421.07422.08594.0586.07422.07421.08985.0625.08984.0586.08594.05859.26953.17578.10156.04688.10547.04296.10156.04297.04688-.07421.05859-.08594.07422-.07422.07031-.07422.10547.04297.07422.07422.0586.08984.04296.10156.04688.10547.04296.10547.1211.02735.11719-.02735.07421-.08984.04297-.10547.0586-.08985.07422-.07421.10546-.04297.1172-.02735.1328.01172.08985.0586.14844.14843.05859.08985.04297.10547.04687.10156.04297.10547.04297.10156.10547.04688.10547.04296.13281.01563.08594-.0586.0586-.08984.07421-.07422.10547-.04297.11719.02735.10547.04687.10156.04297.10547.04297.10156.04688.17969.11718v.11719l-.01563.13281.01563.13281.01562.13672.0586.08594.10156.04688.1211.02734.11718.03125h.14844l.11719-.03125.05859-.08984.17969-.1172.05859-.08983.07422-.07422.0586-.08594.11718-.17969.17969-.11719.11719.03125.08984.0586.04297.07422-.01563.1328v.1172l.08985.05859h.14843l.13282-.01563.1328-.01171.26563-.03125.10547-.04297.11719-.03125.1211-.02735.07421-.07421.07031-.07422.0625-.08985-.01562-.10547-.04688-.10156-.10156-.04297-.10547-.01562-.11718.02734-.26563.03125h-.14844l-.07421-.07422-.08985-.0586-.11719-.03124-.11718-.02735-.13282-.01562h-.14843l-.13282.01563h-.29687l-.10547-.04688-.14844-.14844-.04297-.10156-.05859-.08984.22266-.22266.08593-.0586.10547-.04296.11719-.03125.13281-.01563.13281.01563.13672.01562.10157.04297.1328-.01172.08985-.0625.10156-.04297.0625-.08984-.04687-.10156-.08984-.0586-.1172-.03125-.10155-.04296-.0586-.08985-.0625-.08984v-.11719l.01563-.13281.10547-.04688.07421-.07031v-.1211l-.08984-.05859-.03125-.11719.08985-.05859.07421-.07422.04297-.10547.0586-.08984.04687-.10156.01563-.13281v-.14844l-.04688-.10547-.04297-.10156-.08984-.0586-.13281-.01562-.10157-.04297-.13671-.01563-.1172-.03125h-.4453l-.13282-.01562-.13281-.01172-.13281-.01563-.11719-.03125h-.14844l-.13281-.01562-.13281-.01172-.26563-.03125-.1211-.04297-.08593-.0586-.07422-.07421v-.14844l.01172-.13281.10547-.04688.10156-.04296.13281-.01563h.15235l.13281-.01562h.29297l.1211.03125.10156.04296.08984.0586.23438.0625.12109-.04688.08984-.05859.10156-.04297.13282-.01562.10547.04296.10156.04688.13281.01172.1211-.02735h.14453l.12109-.03125.11719-.02734.10547-.04687.07421-.07422.08594-.0586.14844-.14843.0586-.08594.04687-.10547.02734-.11719.01563-.10547-.10156-.04296-.08985-.0586-.11719-.03125-.10546-.04297-.08985-.0625-.07422-.08594-.07422-.07421-.10156-.04297-.10547-.04688-.10156-.04297-.0586-.08984-.04687-.10156-.08594-.21094-.0625-.08594-.05859-.08984-.07422-.07422-.08594-.0586h-.26953l-.11719.03126-.08984.05859-.10156.04297-.13281.01562-.10547-.01562-.02735-.11719-.0625-.08984-.11718-.03125-.10157-.04297-.14843-.14844-.03125-.11719-.01563-.10546.07422-.07422.17969-.1172.11719-.02733.11718-.03125.13672.01562.10156.04297.10547.04297.10156.04687.10547.04297.1172.03125.1328.01563.1172.02734.1328.01563.10547-.01563.08985-.0586-.07422-.07421-.10547-.04297-.07422-.07422-.07422-.08984-.14844-.14844-.08593-.0586-.08985-.05859-.07422-.07422-.08984-.0586-.10156-.04687-.1211-.02734-.10156-.04688-.10547-.04296-.11719-.03125-.10156-.04297-.1211-.03125h-.14843l-.11719.03125-.10546.04297-.08594.0625-.17969.11718-.08594.0586-.08984.0586-.10547.04687-.08594.05859-.10547.04297-.10156.04297-.10547.04687-.07422.07422-.05859.08985-.0586.08593-.04687.10547-.0586.08594-.07421.07422-.13281-.01172-.1172-.03125h-.11718l-.07422.07422-.08984.0586-.07422.07421-.08984.0586-.08594.05859-.10547.04687-.10156.04297-.13672.01563-.10156-.04297-.14844-.14844-.10547-.04688h-.08594l-.10547.04688-.10156.04297-.1211.03125-.11718-.03125-.07422-.07422v-.11719l.03125-.1211.07422-.0703.0586-.08985.07421-.07422.11719-.03125.10547-.04296h.29297l.13281-.01563.13672-.01563.10156-.04296.08985-.0586.10156-.04687.08984-.0586.13281-.01171.08985.05859.13281.01172.08984-.0586.08594-.05859.10547-.04297.08984-.0586.08594-.0625.08985-.05859.14843-.14843.0586-.08594.05859-.08985.10547-.04296.13281-.01563.11719.02735.1211.03125.05859-.0586.05859-.08984.03125-.26563.02734-.11719.10547.01172.13281.01563.10157-.04297.08984-.0586.0586-.08984.07421-.07422.0586-.08984.04687-.10156.01172-.13281-.01172-.13282-.04687-.10547-.14844-.14843-.0586-.08985-.05859-.08594-.04297-.10546v-.44532l.01563-.1328v-.14845l.01172-.1328-.0586-.0586-.08984.0586-.10156-.04298-.17969-.11719-.08594-.05859-.0625-.08984-.0586-.08985-.07421-.07421-.08594-.0586-.1211.03125-.10155.01172-.10547.04688-.08594.05859-.10547.04297-.14844.14844-.08984.05859-.08594.0586-.08984.0625-.10547.04296-.13281.01563v-.1211l.10547-.04297.11718-.03125.07422-.0703.04297-.10548v-.14844l-.02734-.11718-.14844-.14844-.13281-.01563h-.14844l-.11719.03125-.10547.04297-.10156.04297-.08984.0625-.11719.02735-.07422-.07422.01172-.13281-.04297-.10157-.04297-.10547-.08984-.05859-.11719.02734-.1211.03125-.11718.03125-.10156.04297-.1211.03125-.10156.04297-.10547.04297-.08984.0586-.10156.01562v-.11719l.01562-.13281-.0586-.08985-.07421.04297-.14844.14844-.0586.08985-.07421.07421-.04688.10547-.04296.10156-.07422.07422-.0586.08985-.07422.07422-.05859.08593-.07422.07422-.08984.0625-.07422.07031-.07422.07422-.10156.01563-.13281.01562-.10547-.04296v-.1211l.14843-.14844.04297-.10156.0586-.08984.04687-.10156.04297-.10547.0586-.08985.03124-.11719.04297-.10156.03125-.1211.02735-.11718.04687-.10547.04297-.10156.04297-.10547.07422-.07031.08984-.0625.08985-.0586.10156-.04296h.29687l.26563-.03125.10547-.04297-.07422-.07422-.11719-.03125-.10547-.04297-.08984-.0586-.10156-.04687-.08985-.0586-.10156-.04296-.10547-.04297-.08984-.0625-.08594-.0586-.10547-.04296-.10156-.04297-.1211-.03125-.11718-.03125-.10157-.04297L297.5 410.25l-.10156-.04297-.08985-.0586-.04296-.10546-.01563-.13281.10156-.04297.13281-.01563.13672.01563.13282-.01563.10156-.04297.0586-.08984.01562-.10547-.08985-.0586-.07421-.07421-.10157-.04297-.08984-.0586-.14844-.14843-.04297-.10547-.01562-.13281v-.29297l-.0586-.08985-.08984-.05859-.07422-.07422-.04297-.10547-.03125-.11718-.0586-.08985-.07421-.07422-.11719-.02734-.07422-.07422-.08984-.0586-.08984-.0625-.08594-.05859-.07422-.07421-.0586-.08594-.04687-.10547-.08594-.0586-.14843-.14843-.19532-.0586-.1328.01563-.10157.04297-.07422.07422-.04688.10156-.04296.10547-.0586.08984-.0586.08594-.29687.29687-.08984.0586h-.08594l-.0625-.08594-.04297-.10547.03125-.11719.0586-.08984.02734-.11719-.01172-.13281-.08984-.0625-.10547.04688-.11719.02734-.11719.03125-.26953.17578-.10156.04688-.11719.02734-.10546.04687-.08985.0586-.10156.04297-.0586-.08594-.04687-.10547.01563-.13281.04687-.10547.07031-.07422.07422-.07031.0586-.08985v-.14843l-.04297-.10547h-.23829l-.10156.04687-.03125.11719-.02734.11719-.03125.1211-.07422.04296-.13281.01563-.07422-.04688-.04297-.10156-.04297-.10547-.04687-.10156-.04297-.10547-.1211.03125-.10156.04297-.13281.01562-.11719.03125-.10547.04297-.08984.0586-.10156.04687-.1211.02734-.13281.01563-.10156-.04297-.0586-.08985-.04687-.10546-.04297-.10157-.04297-.10546v-.1172l.0586-.08984.08593-.05859.17969-.11719.10156-.04687.10547-.04297.10547-.0586.10156-.04296.08985-.0625.10156-.04297.10547-.0586.10156-.04687.08984-.0586.10547-.04296.10156-.04297.08985-.0625.10156-.04297.13672-.01563.11719.03125.10156.04297.1211.03125.10156.04297.10546.04688.10157.04296.10547.04297.10156.04688.10547.04297.10156.04297.10547.04687.08594.0586.10546.04296.1172.03125.10546.04297.10156.04688.08985.0586.10547.04296.10156.04297.10547.04687.11719.02735.10156.04687.1211.02735h.14843l.08594-.0586.01562-.10156.0586-.08984-.02735-.1172-.07422-.07421-.11719-.17969-.07421-.07422-.08985-.07421-.17969-.1172-.08593-.05859-.10547-.04296-.10156-.04688-.26954-.17578-.05859-.08985-.07422-.07421-.0586-.08985-.04296-.10156-.03125-.11719-.01563-.13672v-.5625l-.01171-.1328-.01563-.13282-.03125-.11719-.01562-.13281-.01172-.13281-.03125-.1211-.22266-.22265-.0586-.08594-.01562-.10547.03125-.11719.13281-.01562v-91.41406H172.9922v1.45312l-.0586.23438-.35156 1.05078-.17187.52343-.1172.34766-.17577.41016-.11719.17187-.23438.29297-.23046.0586h-.35157l-.11718.05859-.23047.40625v.29297l.11719.17578.23046.23047.1172.23437.64062.75781.29297.46485.17578.23437.23047.35156.23437.34766.64063.8164.17578.46485.17187.41016.11719.69531.17578.46875.11719 1.39844.0586.46484v.875l.11718 1.04688v4.78125l-.0586.46484-.35156 1.28125-.17578.52344-.11328.41015-.35156.9297L172.93359 336l-.23437.58203-.11719.17578-.17187.34766-.17578.40625-.35157.8164-.0586.29297-.11327.29297-.11719.28906-.0586.17579-.11718.875-.0586.40625-.05859.11718-.0586.17579-.05859.17187-.23047.52734-.11718.17188v.23437l-.11719.23438-.0586.17187-.17577.58594v.28906l-.0586.17579v.29296l-.0586.11329-.05859.52734v.17187l-.05468.23438v2.6211l-.17578.8164-.1172.17578-.17577.23438-.1172.17187-.11327.23438-.58594.93359-.23047.28906-.29297.46485-.17578.23437-.28906.35156-.35156.69922-.11328.23047-.17579.41016-.17578.23046-.40625.52735-.8164.69922-.29297.17187-.28906.23438-.17579.11719-.17578.17578-.52344.40625-.52734.17578-.17187.17578-.23438.05469-.64062.17578h-.75782m12.21094 31.02344l-1.07422.44921.35938.89454 1.25-.71485.44531-.53906-.98047-.08985"/><path fill="#d3d3d3" fill-opacity="0" fill-rule="evenodd" d="M201.50781 416.59766h-.89453l.44922.6289.98047.35938.80469-.08985.4453-.98828-.17577.08985-.71485-.35547-.89453.35547m154.6211 59.0703l-.0586-.52343v-.29297l.11328-.29297.0586-.23046.46875-.46875h.11328l.11719-.11329.11718-.05859h.17579l.23437-.0586h.34766l.23437.0586.11719.0586.23047.17187.0586.17578.11718.58203v.29297l-.11719.17578-.17187.28906-.17579.17579-.52734.52343-.23047.23438-.11719.0586h-.17578l-.11718-.0586-.40625-.29297-.17579-.11719-.11718-.0586-.0586-.11327-.05468-.1172m6.64062-10.95702l-.0586-.17188v-1.10937l.0586-.17188.17578-.0586.17188-.05858h.17578l.23437-.0586.1172.0586.05858.69921-.05859.17188-.11719.17578-.11718.0586-.23438.52343-.11328.0586h-.23438l-.05859-.1172m9.61328-14.39062l-.11719-.17578v-.69922l.29297-.875.1172-.17187.17577-.35156.11328-.23047.1172-.29297.35155-.75781.1172-.23047.17187-.23438h.17578l.11719-.0586h.64062l.11719.0586.23437.23438.17188.11328.35156.29297.11719.11718.11328.17579v.11328l.11719.05859.11718.11719v.69922l-.05859.17578v.23047l-.0586.17578-.34765 1.05078-.11719.23047-.11719.23437-.11718.0586-.23047.23437-.64063.28906h-.875l-.41015-.11718-.64063-.46485"/><path fill="none" stroke="#bebebe" stroke-linecap="round" stroke-linejoin="round" stroke-miterlimit="10" stroke-width=".5" d="M467.95703 311.69531H144.02734v168.625h323.9297v-168.625"/><g clip-path="url(#a)"><path fill="#fff" fill-opacity="0" fill-rule="evenodd" d="M144 475.89063v4.4375h.0039H144v-156.6836 152.2461"/></g><path fill="#50fcfc" fill-rule="evenodd" d="M144 315.39063v8.2539l.0039-.0039v-8.25H144"/><g clip-path="url(#b)"><path fill="#fff" fill-opacity="0" fill-rule="evenodd" d="M144.0039 480.32813v-156.6875l2.39454-3.09375-1.58985-4.4375-.80468-.71875v-3.71875h4.43359v89.60156l-3.26953 3.60156.8125 4.4414 2.45703 3.03126 3.0039-3.03125.70313-4.44141-3.70703-3.60156v-89.60156h8.8789v1.39843l-3.6328 3.03906 3.6328 3.44141v5.74219l-1.65624 4.13281.17578 4.4375 1.48047 1.80078 1.10156-1.80078.82031-4.4375-1.92187-4.13281v-5.74219l2.86328-3.4414-2.86328-3.03907v-1.39844h4.4375v94.4297l-2.85157 3.21484-.6914 4.4375-.17969 4.4375-.40234 4.4375 1.05078 4.4414 3.07422 4.01953v2.04297l-1.23828 2.8125-1.52344 4.4375-.02344 4.4375-1.65234 2.4375-1.64063 2.0039.39453 4.4375 1.2461.91798 4.4375 3.04687 4.4375-.53906 2.60937 1.01172-2.60937 3.42187-4.4375-1.95312-1.57422 2.96875 1.57422 1.58203 4.4375-1.0039 1.1953-.57813 3.2422-2.3711 3.82812 2.3711.60938.29297.90234-.29297 3.53906-1.22656 3.22656 1.22656 1.21094.64453 3.53125-.64453.90625-.09766.2461.09766 4.1914 1.67578 4.4414-1.23828 4.4375-.2461h4.4375l2.3125-.1914 2.125-.1289.96485.1289 3.47656.47656 1.27735-.47656 3.16016-.8086 4.4375-.89843 4.4375-.85156 3.67578-1.87891-3.67578-1.88672-4.4375-1.89844-4.4375.07813-4.4375.125-4.44141-.17188-4.4375-.63672-2.05469-.04687-2.38281-.0625-4.4375-.49219-4.05078.55469-.39063.05469-4.4375 1.42578-4.4375-.11719-1.4375-1.36328-3-1.4375-4.4414.29687-2.58985-3.29687-1.84765-.92188-3.5-3.51953-.9375-.83203-1.97266-3.60547 1.6914-4.4375-4.15624-2.8125v-2.04297l4.4375.01954 4.11328.39843-3.67969 4.4375 4.0039.85547 1.48048-.85547 2.95703-2.66797 4.4414-1.4453.41406-.32423 4.02344-.49219 3.90625.4922.53125.35546 4.4375 2.32422 2.75 1.75781 1.6914 2.2539 2.39063-2.2539 2.04688-.76172 1.84766.76172 2.58984 1.5039 4.4375.39063 3.13281 2.54297 1.3086 1.02735 2.24218-1.02735 2.19531-2 2.92188-2.4375 1.51563-.40234 4.4375-1.51953 1.41015 1.92187 3.02734 3.15235 3.91016-3.15235-3.91016-4.42969-.01562-.0078-4.17578-4.4375-.2461-.46485-4.09765.46484-.33984.0039-.00782-.0039-1.38281-4.4414-3.04688-1.14454-2.02343-3.29296-2.41406-1.6797-4.44141 1.05079-4.4375-2.1875-2.5664-1.6211-1.8711-1.41015-4.4375-1.21094-4.4414.30469-4.4375.5586-4.4375-.19923-4.4375 1.84375-4.44141-1.0625-4.4375-.70312-4.4375-2.14453-.51172-.41406-3.92578-3.21485v-94.42969h31.0664v2.21094l-2.33594 2.22656 2.33594 3.17579 1.78125 1.26171-1.78125 2.38282-4.4375-2.30078-4.4375 1.42968-3.03125 2.92579-1.40625 3.75-.6211.6914-3.1289 4.4375-.6914 1.67188-2.41407 2.76562-1.73437 4.4375-.28906 1.21094-2.5625 3.23047-.96875 4.4375 3.53125 4.26562.40234.17188 2.3164 4.4375 1.71876 1.21484 1.22656-1.21484.91406-4.4375 2.02344-4.4375.27734-.1875 3.92969-4.25.27344-4.4414.23437-.97267 3.52735-3.46484.80078-4.4375.10937-.33203 4.03125-4.10547.40625-1.96094 4.4414.75v3.1172l-2.27343 2.53124 2.27344 2.79297 2.67969-2.79297-2.6797-2.53125v-3.11719l3.97267-3.23046L199 320.54688l-1.73828-1.71485-2.16016-2.72265-2.28125-2.22657v-2.21094h9.57422l3.47266 4.4375-2.88281 4.4375 3.15234 3.3086 4.4375.78906.14453.33985-.14453.08984-3.07031 4.35156 3.0703 3.52344 4.44142-1.09766 2.71484-2.42578-.46094-4.4414-2.2539-1.98829-3.35547-2.44921 1.5625-4.4375-2.64844-2.78907-.60547-1.64844h31.67578v127.41016l-1.94531 1.30078 1.94531 1.22656 1.3164-1.22656-1.3164-1.30078V311.67188h26.6289v117.25l-2.62109 2.58593 2.6211 2.13672 2.46484-2.13672-2.46484-2.58594v-117.25h17.7539v119.52344l-.29687.3125.29687.26563.31641-.26563-.3164-.3125V311.67187h88.76562V449.2422l-.01563.01953.01563.3789.01953-.3789-.01953-.01953V311.67188h4.4414v143.47265l-1.76171 2.99219 1.76171 1.96094.95313 2.47656-.10547 4.4414.47266 4.4375 1.80469 4.4375 1.3125 1.57422 4.30859-1.57421.1289-.15235 1.30079-4.28515-1.30079-2-.53515-2.4375-.09375-4.44141-1.53906-4.4375-2.26954-1.66016-4.4375-1.33203V311.67188h88.76172v168.65625H144.00391"/></g><path fill="#50fcfc" fill-rule="evenodd" d="M146.39844 320.54688l-2.39453 3.09375v-8.25l.80468.71875 1.58985 4.4375m-.41797 88.76953l-.8125-4.44141 3.26953-3.60156v2.03515l-1.42188 1.56641 1.42188 3.53906 1.61328-3.53906-1.61328-1.5664v-2.03516l3.70703 3.60156-.70312 4.4414-3.00391 3.03126-2.45703-3.03125"/><path fill="#00e8fc" fill-rule="evenodd" d="M148.4375 408.41406l-1.42188-3.53906 1.42188-1.5664 1.61328 1.5664-1.61328 3.53906"/><path fill="#50fcfc" fill-rule="evenodd" d="M157.3164 319.55078l-3.6328-3.4414 3.6328-3.03907v2.50781l-.63671.53125.63672.60157.5-.60156-.5-.53125v-2.50782l2.86328 3.03906-2.86328 3.44141m-1.48047 14.3125l-.17578-4.4375 1.65625-4.13281 1.92187 4.13281-.82031 4.4375-1.10156 1.80078-1.48047-1.80078m.23437 119.83594l-.39453-4.4375 1.64063-2.0039 1.65234-2.4375.02344-4.4375 1.52344-4.4375 1.23828-2.8125v13.1289l-2.42188 3 .73438 4.4375 1.6875 1.33984 4.4375-1.11719 1.35156-.22265-1.35156-.86719-1.1211-3.57031-3.3164-3v-13.1289l4.15625 2.8125-1.69141 4.4375 1.97266 3.60546.9375.83203 3.5 3.51953 1.84765.92188 2.58985 3.29687 4.4414-.29687 3 1.4375 1.4375 1.36328 4.4375.11719 4.4375-1.42578.39063-.0547 4.05078-.55468 4.4375.49219 2.38281.0625 2.05469.04687 4.4375.63672 4.4414.17188 4.4375-.125 4.4375-.07813 4.4375 1.89844 3.67579 1.88672-3.67578 1.8789-4.4375.85157-4.4375.89844-3.16016.80859-1.27734.47656-3.47657-.47656-.96484-.1289-2.125.1289-2.3125.1914h-4.4375l-4.4375.2461-4.4414 1.23828-4.19141-1.67578-.2461-.09766-.90625.09766-3.53125.64453-1.21094-.64453-3.22656-1.22656-3.53906 1.22656-.90234.29297-.60938-.29297-3.82812-2.3711-3.2422 2.3711-1.1953.57812-4.4375 1.00391-1.57422-1.58203 1.57422-2.96875 4.4375 1.95312 2.60937-3.42187-2.60937-1.01172-4.4375.53906-4.4375-3.04687-1.2461-.91797"/><path fill="#00e8fc" fill-rule="evenodd" d="M157.3164 316.71094l-.63671-.60156.63672-.53125.5.53125-.5.60156"/><path fill="#50fcfc" fill-rule="evenodd" d="M158.67969 427.07031l-1.05078-4.4414.40234-4.4375.17969-4.4375.6914-4.4375 2.85157-3.21485v4.03125l-1.41016 3.6211-.42188 4.4375-.22656 4.4375 1.78516 4.4414.27344.35547.65234-.35547 3.78516-3.66015 4.4375 2.78515 4.4375.33594 4.4414.22656.34766.3125 4.08984 2.30469 4.4375.83594 4.4375.58203 4.4414.65625 4.4375-.32422 4.4375-.19922 4.4375.22266 2.73438.35937 1.70703.45703 4.4375-.0703 4.4375-.1211.61329-.26563-.61328-.29297-3.78907-4.14453-.64844-.6875-1.63671.6875-2.80078 3.33985-.64063-3.33985-2.64844-4.4414-1.15234-.83204-4.4375-2.54296-.73047-1.0625-3.70703-2.97266-4.4375-1.25-4.4414.33984-4.4375.23047-4.4375-.17578-4.4375.8789-4.44141-.30468-4.4375.65625-4.04297-1.83984-.39453-.26954-4.4375-3.35156v-4.03125l3.92578 3.21485.51172.41406 4.4375 2.14453 4.4375.70313 4.4414 1.0625 4.4375-1.84375 4.4375.19921 4.4375-.55859 4.4414-.30469 4.4375 1.21094 1.8711 1.41016 2.5664 1.62109 4.4375 2.1875 4.44142-1.05078 2.41406 1.67969 2.02344 3.29296 3.04687 1.14454 1.38281 4.4414.00781.0039.33985-.0039 4.09766-.46484.24609.46484 4.17578 4.4375.01563.00781 3.91015 4.4297-3.91016 3.15234-3.02734-3.15235-1.41016-1.92187-4.4375 1.51953-1.51562.40234-2.92188 2.4375-2.1953 2-2.2422 1.02735-1.30859-1.02735-3.13281-2.54297-4.4375-.39062-2.58984-1.5039-1.84766-.76173-2.04688.76172-2.39062 2.2539-1.6914-2.2539-2.75-1.75781-4.4375-2.32422-.53126-.35547-3.90625-.49219-4.02344.4922-.41406.32421-4.4414 1.44531-2.95703 2.66797-1.48047.85547-4.00391-.85547 3.67969-4.4375-4.11328-.39844-4.4375-.01953-3.07422-4.01953"/><path fill="#00e8fc" fill-rule="evenodd" d="M160.0664 453.69922l-.73437-4.4375 2.42188-3 3.3164 3 1.1211 3.57031 1.35156.86719-1.35156.22265-4.4375 1.1172-1.6875-1.33985m1.41406-26.6289l-1.78516-4.44141.22656-4.4375.42188-4.4375 1.41016-3.6211 4.4375 3.35156.39453.26954 4.04297 1.83984 4.4375-.65625 4.4414.30469 4.4375-.8789 4.4375.17577 4.4375-.23047v2l-4.4375.1797-4.4375-.00392-4.4375 1.28516-4.4414-.23828-1.77735.66016 1.77735 1.66796 4.4414 1.83594.17188.9336 4.26562 3.8828 1.26563.5586 3.17187.89453 4.4375.51172 4.4414.58985 4.4375-1.2422 4.4375.32032 4.4375-.8789.1836-.19532-.1836-.2461-4.4375-1.76171-2.79687-2.4336-1.64062-2.86327-4.4375-.84766-.5039-.72656-3.9375-1.88282v-2l4.4414-.33984 4.4375 1.25 3.70703 2.97266.73047 1.0625 4.4375 2.54296 1.15234.83204 2.64844 4.4414.64063 3.33985 2.80078-3.33985 1.63672-.6875.64843.6875 3.78906 4.14453.61329.29297-.61328.26563-4.4375.1211-4.4375.0703-1.70704-.45703-2.73437-.35937-4.4375-.22266-4.4375.19922-4.4375.32422-4.4414-.65625-4.4375-.58203-4.4375-.83594-4.08985-2.30469-.34766-.3125-4.4414-.22656-4.4375-.33594-4.4375-2.78515-3.78516 3.66015-.65234.35547-.27344-.35547"/><path fill="#50fcfc" fill-rule="evenodd" d="M170.6289 355.88281l-3.53124-4.26562.96875-4.4375 2.5625-3.23047.28906-1.21094 1.73437-4.4375 2.41407-2.76562.6914-1.67188 3.1289-4.4375.6211-.6914 1.40625-3.75 3.03125-2.92579 4.4375-1.42968v1.39843l-4.4375 2.34375-.64062.61329-3.08203 4.4414-.71485 1.57031-2.32422 2.8672-1.95703 4.4375-.16015.21874-3.3086 4.21875-1.01562 4.4414-.11328 1.92188-.3711 2.51563.3711.44922 4.4375 2.11328 1.78515-2.5625 2.65625-1.77344 2.46094-2.66406 1.24219-4.4414.73437-3.03907 1.42578-1.39844 2.14453-4.4375.8672-2.59765 1.80859-1.83985 1.44922-4.4414-3.25782-2.95704v-1.39843l4.4375 2.30078 1.78125-2.38281-1.78125-1.26172-2.33594-3.17579 2.33594-2.22656 2.28125 2.22656 2.16016 2.72266L199 320.54688l2.23438 4.4375-3.97266 3.23046-4.4414-.75-.40626 1.96094-4.03125 4.10547-.10937.33203-.80078 4.4375-3.52735 3.46485-.23437.97265-.27344 4.4414-3.92969 4.25-.27734.1875-2.02344 4.4375-.91406 4.4375-1.22656 1.21485-1.71875-1.21484-2.31641-4.4375-.40234-.17188"/><path fill="#00e8fc" fill-rule="evenodd" d="M170.6289 352.0664l-.37109-.44921.3711-2.51563.11328-1.92187 1.01562-4.4414 3.3086-4.21876.16015-.21875 1.95703-4.4375 2.32422-2.86719.71485-1.5703 3.08203-4.44142.64062-.61328 4.4375-2.34375v2.32813l-1.08203.6289-3.35547 1.41797-2.39062 3.02344-1.99219 4.4375-.05469.04297-3 4.39453-1.4414 2.0039-1.90625 2.4336-.33985 4.4414 2.2461 2.94141 4.4414-2.92578.01563-.01562 2.85547-4.4414.66797-4.4375.89843-1.08595 2.30469-3.35156 1.14844-4.4375.98437-2.90234.69531-1.53906-.6953-.62891v-2.32813l3.2578 2.95704-1.44921 4.4414-1.8086 1.83985-.86719 2.59765-2.14453 4.4375-1.42578 1.39844-.73437 3.03906-1.24219 4.4414-2.46094 2.66407-2.65625 1.77344-1.78515 2.5625-4.4375-2.11328"/><path fill="#00d4fc" fill-rule="evenodd" d="M175.0664 350.1211l-2.24609-2.94141.33985-4.4414 1.90625-2.4336 1.4414-2.0039 3-4.39454.05469-.04297 1.99219-4.4375 2.39062-3.02344v1.6875l-1.05469 1.33594-.92578 4.4375-2.45703 1.92969-1.71484 2.50781-2.72656 3.79297-.50391.64453.33984 4.4414.16407.21876.33593-.21875 4.10547-1.28125 2.03906-3.16016-.01953-4.4375 2.41797-2.92187 1.04297-1.51563.48047-4.4375-1.52344-1.33594v-1.6875l3.35547-1.41796 1.08203-.62891.69531.6289-.6953 1.53907-.98438 2.90234-1.14844 4.4375-2.30469 3.35156-.89844 1.08594-.66796 4.4375-2.85547 4.4414-.01563.01563-4.4414 2.92578m0 69.73829l-1.77735-1.66797 1.77735-.66016 4.4414.23828 4.4375-1.28515 4.4375.0039v3.8789l-4.4375.72657-.39844 1.53516.39844.36328 4.4375.42578 3.38672-.78906-3.38672-2.26172v-3.8789l4.4375-.1797 3.9375 1.88282.5039.72656 4.4375.84765 1.64063 2.86329 2.79688 2.43359 4.4375 1.76172.1836.2461-.1836.1953-4.4375.87891-4.4375-.32031-4.4375 1.24219-4.4414-.58985-4.4375-.51172-3.17188-.89453-1.26563-.5586-4.26562-3.8828-.17188-.9336-4.4414-1.83594"/><path fill="#00c4fc" fill-rule="evenodd" d="M174.90234 347.17969l-.33984-4.4414.5039-.64454 2.72657-3.79297 1.71484-2.50781v1.88281l-.42969.625-2.65625 4.4375 3.08594 1.875 1.21094-1.875-.70703-4.4375-.5039-.625v-1.88281l2.45702-1.92969.92578-4.4375 1.0547-1.33594 1.52343 1.33594-.48047 4.4375-1.04297 1.51563-2.41797 2.92187.01953 4.4375-2.03906 3.16016-4.10547 1.28125-.33593.21875-.16407-.21875"/><path fill="#00b8fc" fill-rule="evenodd" d="M179.50781 344.61328l-3.08594-1.875 2.65625-4.4375.4297-.625v3.26172l-.96876 1.80078.96875.58985.3789-.58985-.3789-1.80078v-3.26172l.5039.625.70704 4.4375-1.21094 1.875"/><path fill="#00a8fc" fill-rule="evenodd" d="M179.50781 343.32813l-.96875-.58985.96875-1.80078.3789 1.80078-.3789.58985"/><path fill="#00c4fc" fill-rule="evenodd" d="M183.94531 422.99219l-.39844-.36328.39844-1.53516 4.4375-.72656 3.38672 2.26172-3.38672.78906-4.4375-.42578"/><path fill="#50fcfc" fill-rule="evenodd" d="M197.26172 336.65625l-2.27344-2.79297 2.27344-2.53125 2.67969 2.53125-2.6797 2.79297"/><g clip-path="url(#c)"><path fill="#50fcfc" fill-rule="evenodd" d="M202.91016 311.67188h-.51563l3.47266 4.4375-2.88281 4.4375 3.15234 3.30859 4.4375.78906.14453.33985-.14453.08984-3.07031 4.35156 3.0703 3.52344 4.44142-1.09766 2.71484-2.42578-.46094-4.4414-2.2539-1.98829-3.35547-2.44921 1.5625-4.4375-2.64844-2.78907-.60547-1.64844h-1.07031l-2.76172 3.23438v4.08203l1.76172 1.5586-1.76172 1.13671-1.08203-1.13671 1.08203-1.5586v-4.08203l-2.69922-3.23438h-.52734"/></g><g clip-path="url(#d)"><path fill="#00e8fc" fill-rule="evenodd" d="M205.17578 311.67188h-1.73828l2.69922 3.23437 2.76172-3.23438h-1.77735l-.98437 1.15235-.96094-1.15235"/></g><path fill="#00e8fc" fill-rule="evenodd" d="M206.13672 321.6836l-1.08203-1.13673 1.08203-1.55859 1.76172 1.5586-1.76172 1.13671"/><g clip-path="url(#e)"><path fill="#00d4fc" fill-rule="evenodd" d="M207.1211 311.67188h-1.94532l.96094 1.15234.98437-1.15235"/></g><path fill="#50fcfc" fill-rule="evenodd" d="M241.64453 441.60938l-1.94531-1.22657 1.94531-1.30078 1.3164 1.30078-1.3164 1.22656m26.6289-7.96484l-2.62109-2.13672 2.6211-2.58594 2.46484 2.58594-2.46484 2.13672m17.7539-1.8711l-.29687-.26562.29687-.3125.31641.3125-.3164.26563m88.76562 17.86719l-.01563-.37891.01563-.01953.01953.01953-.01953.3789m4.4414 10.45704l-1.76171-1.96094 1.76171-2.99219 4.4375 1.33203v4.48438l-1.0625 1.61328-.8125 4.4414 1.08204 4.4375.79296 1.42188 1.3672-1.42188.66796-4.4375-.875-4.4414-1.16015-1.61328v-4.48438l2.26953 1.66016 1.53906 4.4375.09375 4.4414.53515 2.4375 1.30079 2-1.30079 4.28516-.1289.15235-4.3086 1.57421-1.3125-1.57421-1.80468-4.4375-.47266-4.4375.10547-4.44141-.95313-2.47656"/><path fill="#00e8fc" fill-rule="evenodd" d="M382.8789 471.45313l-1.08202-4.4375.8125-4.44141 1.0625-1.61328 1.16015 1.61328.875 4.4414-.66797 4.4375-1.36719 1.42188-.79296-1.42188"/><g clip-path="url(#f)"><path fill="#fff" fill-opacity="0" fill-rule="evenodd" d="M467.9961 480.32813H468V311.67188h-.0039H468v168.65625h-.0039"/></g><path fill="#fff" fill-opacity="0" fill-rule="evenodd" d="M212.16016 468.46875l5.80859-.64063-1.09375-9.89843-5.8086.64062 1.09376 9.89844"/><path fill-rule="evenodd" d="M214.7461 460.00781l.5078-.05469.69141 6.25391-.78125.08594-.4961-4.46094-1.3789.15235-.0625-.55079.55078-.1289.2461-.07813.21875-.11719.1836-.16015.15233-.23047.10938-.3086.0586-.40234"/><path fill="#fff" fill-opacity="0" fill-rule="evenodd" d="M181.44922 417.38672l5.7539-1.01172-1.73437-9.8125-5.75 1.01563 1.73047 9.80859"/><path fill-rule="evenodd" d="M183.48438 408.77734l.5-.08984 1.09375 6.19922-.77344.13672-.78125-4.42188-1.36719.24219-.09766-.54688.53907-.16015.24218-.09766.20703-.1289.17579-.17579.13672-.23437.08984-.3164.03516-.40626"/><path fill="#fff" fill-opacity="0" fill-rule="evenodd" d="M180.96875 360.88672l1.8086-5.55078-9.46876-3.08985-1.8125 5.5547 9.47266 3.08593"/><path fill-rule="evenodd" d="M174.32422 355.04297l.16016-.48438 5.98437 1.94922-.2461.75-4.26952-1.39062-.4297 1.3164-.52734-.17187.11328-.55078.02735-.25781-.01563-.2461-.0703-.23437-.14845-.23047-.23437-.22656-.34375-.22266"/><g clip-path="url(#g)"><path fill="none" stroke="#000" stroke-linecap="round" stroke-linejoin="round" stroke-miterlimit="10" stroke-width=".5" d="M147.28906 481.5664l-6.57812-2.47656"/></g><g clip-path="url(#h)"><path fill="none" stroke="#000" stroke-linecap="round" stroke-linejoin="round" stroke-miterlimit="10" stroke-width=".5" d="M146.33203 481.20703l.15625 1.21485"/></g><g clip-path="url(#i)"><path fill="none" stroke="#000" stroke-linecap="round" stroke-linejoin="round" stroke-miterlimit="10" stroke-width=".5" d="M160.70313 481.2539l-6.77735-1.85156"/></g><g clip-path="url(#j)"><path fill="none" stroke="#000" stroke-linecap="round" stroke-linejoin="round" stroke-miterlimit="10" stroke-width=".5" d="M159.71875 480.98438l.26953 1.19921"/></g><g clip-path="url(#k)"><path fill="none" stroke="#000" stroke-linecap="round" stroke-linejoin="round" stroke-miterlimit="10" stroke-width=".5" d="M174.08203 480.98828l-6.90234-1.32031"/></g><g clip-path="url(#l)"><path fill="none" stroke="#000" stroke-linecap="round" stroke-linejoin="round" stroke-miterlimit="10" stroke-width=".5" d="M174.08203 480.98828l.72266 2.34766"/></g><g clip-path="url(#m)"><path fill="none" stroke="#000" stroke-linecap="round" stroke-linejoin="round" stroke-miterlimit="10" stroke-width=".5" d="M173.07813 480.79688l.35937 1.17187"/></g><g clip-path="url(#n)"><path fill="none" stroke="#000" stroke-linecap="round" stroke-linejoin="round" stroke-miterlimit="10" stroke-width=".5" d="M187.45313 480.52734l-7.01563-.39453"/></g><g clip-path="url(#o)"><path fill="none" stroke="#000" stroke-linecap="round" stroke-linejoin="round" stroke-miterlimit="10" stroke-width=".5" d="M187.45313 480.52734l1.02734 2.22657"/></g><g clip-path="url(#p)"><path fill="none" stroke="#000" stroke-linecap="round" stroke-linejoin="round" stroke-miterlimit="10" stroke-width=".5" d="M186.4336 480.46875l.51171 1.11328"/></g><g clip-path="url(#q)"><path fill="none" stroke="#000" stroke-linecap="round" stroke-linejoin="round" stroke-miterlimit="10" stroke-width=".5" d="M200.71875 480.95313l-6.91406-1.25"/></g><g clip-path="url(#r)"><path fill="none" stroke="#000" stroke-linecap="round" stroke-linejoin="round" stroke-miterlimit="10" stroke-width=".5" d="M200.71875 480.95313l.7461 2.33593"/></g><g clip-path="url(#s)"><path fill="none" stroke="#000" stroke-linecap="round" stroke-linejoin="round" stroke-miterlimit="10" stroke-width=".5" d="M199.71094 480.77344l.375 1.16797"/></g><g clip-path="url(#t)"><path fill="none" stroke="#000" stroke-linecap="round" stroke-linejoin="round" stroke-miterlimit="10" stroke-width=".5" d="M214.01172 481.0586l-6.875-1.45704"/></g><g clip-path="url(#u)"><path fill="none" stroke="#000" stroke-linecap="round" stroke-linejoin="round" stroke-miterlimit="10" stroke-width=".5" d="M214.01172 481.0586l.67969 2.35546"/></g><g clip-path="url(#v)"><path fill="none" stroke="#000" stroke-linecap="round" stroke-linejoin="round" stroke-miterlimit="10" stroke-width=".5" d="M213.01172 480.84375l.33984 1.17969"/></g><g clip-path="url(#w)"><path fill="none" stroke="#000" stroke-linecap="round" stroke-linejoin="round" stroke-miterlimit="10" stroke-width=".5" d="M227.28125 481.25L220.5 479.40625"/></g><g clip-path="url(#x)"><path fill="none" stroke="#000" stroke-linecap="round" stroke-linejoin="round" stroke-miterlimit="10" stroke-width=".5" d="M226.29297 480.98438l.27344 1.1953"/></g><g clip-path="url(#y)"><path fill="none" stroke="#000" stroke-linecap="round" stroke-linejoin="round" stroke-miterlimit="10" stroke-width=".5" d="M240.64063 481.07422l-6.8672-1.49219"/></g><g clip-path="url(#z)"><path fill="none" stroke="#000" stroke-linecap="round" stroke-linejoin="round" stroke-miterlimit="10" stroke-width=".5" d="M240.64063 481.07422l.66406 2.36328"/></g><g clip-path="url(#A)"><path fill="none" stroke="#000" stroke-linecap="round" stroke-linejoin="round" stroke-miterlimit="10" stroke-width=".5" d="M254 480.82422l-6.95703-.98828"/></g><g clip-path="url(#B)"><path fill="none" stroke="#000" stroke-linecap="round" stroke-linejoin="round" stroke-miterlimit="10" stroke-width=".5" d="M254 480.82422l.83594 2.30469"/></g><g clip-path="url(#C)"><path fill="none" stroke="#000" stroke-linecap="round" stroke-linejoin="round" stroke-miterlimit="10" stroke-width=".5" d="M267.32031 480.76563l-6.97265-.8711"/></g><g clip-path="url(#D)"><path fill="none" stroke="#000" stroke-linecap="round" stroke-linejoin="round" stroke-miterlimit="10" stroke-width=".5" d="M267.32031 480.76563l.875 2.29296"/></g><g clip-path="url(#E)"><path fill="none" stroke="#000" stroke-linecap="round" stroke-linejoin="round" stroke-miterlimit="10" stroke-width=".5" d="M280.64063 480.73828l-6.98047-.82031"/></g><g clip-path="url(#F)"><path fill="none" stroke="#000" stroke-linecap="round" stroke-linejoin="round" stroke-miterlimit="10" stroke-width=".5" d="M280.64063 480.73828l.89062 2.28516"/></g><g clip-path="url(#G)"><path fill="none" stroke="#000" stroke-linecap="round" stroke-linejoin="round" stroke-miterlimit="10" stroke-width=".5" d="M293.97656 480.4961l-7.01953-.33204"/></g><g clip-path="url(#H)"><path fill="none" stroke="#000" stroke-linecap="round" stroke-linejoin="round" stroke-miterlimit="10" stroke-width=".5" d="M293.97656 480.4961l1.04688 2.21874"/></g><g clip-path="url(#I)"><path fill="none" stroke="#000" stroke-linecap="round" stroke-linejoin="round" stroke-miterlimit="10" stroke-width=".5" d="M307.28906 480.10547l-7.01562.44531"/></g><g clip-path="url(#J)"><path fill="none" stroke="#000" stroke-linecap="round" stroke-linejoin="round" stroke-miterlimit="10" stroke-width=".5" d="M307.28906 480.10547l1.28516 2.08984"/></g><g clip-path="url(#K)"><path fill="none" stroke="#000" stroke-linecap="round" stroke-linejoin="round" stroke-miterlimit="10" stroke-width=".5" d="M320.40625 479.15234l-6.6211 2.35157"/></g><g clip-path="url(#L)"><path fill="none" stroke="#000" stroke-linecap="round" stroke-linejoin="round" stroke-miterlimit="10" stroke-width=".5" d="M320.40625 479.15234l1.8125 1.65625"/></g><g clip-path="url(#M)"><path fill="none" stroke="#000" stroke-linecap="round" stroke-linejoin="round" stroke-miterlimit="10" stroke-width=".5" d="M333.57813 478.80469l-6.33204 3.04687"/></g><g clip-path="url(#N)"><path fill="none" stroke="#000" stroke-linecap="round" stroke-linejoin="round" stroke-miterlimit="10" stroke-width=".5" d="M332.65625 479.25l.98828.72656"/></g><g clip-path="url(#O)"><path fill="none" stroke="#000" stroke-linecap="round" stroke-linejoin="round" stroke-miterlimit="10" stroke-width=".5" d="M346.79297 478.61328l-6.13281 3.4336"/></g><g clip-path="url(#P)"><path fill="none" stroke="#000" stroke-linecap="round" stroke-linejoin="round" stroke-miterlimit="10" stroke-width=".5" d="M345.89844 479.11328l1.03125.66406"/></g><g clip-path="url(#Q)"><path fill="none" stroke="#000" stroke-linecap="round" stroke-linejoin="round" stroke-miterlimit="10" stroke-width=".5" d="M360.54297 480.0625l-7.0039.53125"/></g><g clip-path="url(#R)"><path fill="none" stroke="#000" stroke-linecap="round" stroke-linejoin="round" stroke-miterlimit="10" stroke-width=".5" d="M359.52344 480.14063l.65625 1.03515"/></g><g clip-path="url(#S)"><path fill="none" stroke="#000" stroke-linecap="round" stroke-linejoin="round" stroke-miterlimit="10" stroke-width=".5" d="M373.70313 481.39453l-6.69532-2.13281"/></g><g clip-path="url(#T)"><path fill="none" stroke="#000" stroke-linecap="round" stroke-linejoin="round" stroke-miterlimit="10" stroke-width=".5" d="M386.39063 482.55469l-5.4375-4.44922"/></g><g clip-path="url(#U)"><path fill="none" stroke="#000" stroke-linecap="round" stroke-linejoin="round" stroke-miterlimit="10" stroke-width=".5" d="M397.13672 476.82031l-.30078 7.01953"/></g><g clip-path="url(#V)"><path fill="none" stroke="#000" stroke-linecap="round" stroke-linejoin="round" stroke-miterlimit="10" stroke-width=".5" d="M407.9375 477.73047l4.73047 5.19531"/></g><path fill="none" stroke="#000" stroke-linecap="round" stroke-linejoin="round" stroke-miterlimit="10" stroke-width=".5" d="M408.625 478.48828l.41016-1.15625"/><g clip-path="url(#W)"><path fill="none" stroke="#000" stroke-linecap="round" stroke-linejoin="round" stroke-miterlimit="10" stroke-width=".5" d="M423.61719 476.8164v7.02735"/></g><g clip-path="url(#X)"><path fill="none" stroke="#000" stroke-linecap="round" stroke-linejoin="round" stroke-miterlimit="10" stroke-width=".5" d="M435.67969 477.04688l2.5039 6.5664"/></g><path fill="none" stroke="#000" stroke-linecap="round" stroke-linejoin="round" stroke-miterlimit="10" stroke-width=".5" d="M436.04297 478l.8086-.92188"/><g clip-path="url(#Y)"><path fill="none" stroke="#000" stroke-linecap="round" stroke-linejoin="round" stroke-miterlimit="10" stroke-width=".5" d="M450.48047 476.82422l-.46485 7.01172"/></g><path fill="none" stroke="#000" stroke-linecap="round" stroke-linejoin="round" stroke-miterlimit="10" stroke-width=".5" d="M450.41016 477.84375l1.12109-.5039"/><g clip-path="url(#Z)"><path fill="none" stroke="#000" stroke-linecap="round" stroke-linejoin="round" stroke-miterlimit="10" stroke-width=".5" d="M464.33594 476.90234l-1.54688 6.85547"/></g><path fill="none" stroke="#000" stroke-linecap="round" stroke-linejoin="round" stroke-miterlimit="10" stroke-width=".5" d="M464.10938 477.89844l1.18359-.32422"/><g clip-path="url(#aa)"><path fill="none" stroke="#000" stroke-linecap="round" stroke-linejoin="round" stroke-miterlimit="10" stroke-width=".5" d="M147.33594 468.11328l-6.67188-2.19922"/></g><path fill="none" stroke="#000" stroke-linecap="round" stroke-linejoin="round" stroke-miterlimit="10" stroke-width=".5" d="M147.33594 468.11328l.41797 2.41797m12.91015-2.44922l-6.69531-2.13672m6.69531 2.13672l.4375 2.41406m12.9414-2.64453l-6.82421-1.67578m6.82422 1.67578l.60156 2.375m-1.59375-2.6211l.30078 1.19142m14.10156-1.56641l-7.01562-.4336m7.01563.4336l1.01562 2.23437m-2.03906-2.29687l.51172 1.11719m13.83203-1.21485l-7.02735-.11328m7.02735.11328l1.11719 2.1836m-2.14063-2.19922l.5586 1.08984m13.78124-1.20703l-7.02734.15234m7.02734-.15234l1.19532 2.14453m-2.21875-2.1211l.59765 1.07032m13.72266-.65625l-6.99219-.72266m6.99219.72266l.92187 2.27344m-1.9414-2.3789l.46484 1.13671m13.79297-.59375l-6.83984-1.59766m6.83984 1.59766l.6289 2.375m12.75782-2.79297l-6.98438-.76172m6.98438.76172l.91406 2.27735m12.40234-2.28125l-6.98437-.75391m6.98438.7539l.91406 2.27735m12.39453-3.10156l-6.97266.89453m6.97266-.89453l1.41797 2m11.83984-2.31641l-6.85937 1.52734m6.85937-1.52734l1.59766 1.86328m11.5039-2.51953l-6.42968 2.83984m6.42968-2.83984l1.9297 1.51563m11.02733-2.14063l-5.71484 4.08984m5.71484-4.08984l2.19922 1.08984m10.83594-1.43359l-5.15234 4.77734m5.15234-4.77734l2.3164.80469m10.89844-.90625l-4.95703 4.98047m4.95703-4.98047l2.35157.71094m10.28125-1.2422l-3.58594 6.04298m3.0625-5.16407l1.22656.0586m11.02735-1.42188l-.41797 7.01172m.35547-5.99219l1.11718-.51171m13.07422 3l-.01953-.20313-.0586-.1914-.09765-.17579-.45703-.375-.1914-.0586-.19923-.01952-.19921.01953-.19141.0586-.46094.375-.09375.17577-.0586.19141-.01952.20313.01953.19921.0586.19141.09374.17578.46094.375.1914.0586.19922.01953.19922-.01953.19141-.0586.45703-.375.09766-.17578.0586-.1914.01952-.19923m12.8164-3.47656l-1.05077 6.94922m15.5-6.57031l-3.3164 6.1914m2.83202-5.29296l1.22656.0039M423.59766 463.5l.03906 7.02734m15.03906-6.5625l-3.48828 6.09766m2.98047-5.21094l1.22656.03516m11.9375-1.21484l-2.17187 6.68359m1.85546-5.71094l1.21094-.21094m12.96094-.53515l-3.2539 6.23047m2.78124-5.32422l1.22657-.00781"/><g clip-path="url(#ab)"><path fill="none" stroke="#000" stroke-linecap="round" stroke-linejoin="round" stroke-miterlimit="10" stroke-width=".5" d="M147.36328 454.71094l-6.72656-2.02344"/></g><path fill="none" stroke="#000" stroke-linecap="round" stroke-linejoin="round" stroke-miterlimit="10" stroke-width=".5" d="M147.36328 454.71094l.48047 2.40625m12.86719-2.51953l-6.79297-1.79688m6.79297 1.79688l.5586 2.38672m12.77343-2.45313l-6.82813-1.66406m6.82813 1.66406l.60547 2.3789m12.75781-2.61718l-6.92188-1.1914m6.92188 1.1914l.76953 2.33203m12.59375-3.0586l-7.01953.26563m7.01953-.26562l1.23438 2.12109m-2.25391-2.08203l.61719 1.0586m13.72265-.98048l-7.02734.03125m7.02734-.03125l1.16016 2.16016m-2.1836-2.15625l.58204 1.08203m13.73437-.67187l-6.98437-.79688m6.98437.79688l.89844 2.28125m12.4375-2.76172l-7.02734.16406m7.02734-.16406l1.20313 2.14062m-2.22657-2.11718l.60156 1.0703m13.66797-1.70312l-6.89062 1.3789m6.89062-1.3789l1.5547 1.89844m-2.5547-1.69531l.77735.94922m13.58594-.85938l-6.98438.79688m6.98438-.79688l1.39062 2.01953m11.92578-1.99218l-6.98828.74218m6.98828-.74218l1.375 2.03515m11.78906-2.7461l-6.6875 2.16016m6.6875-2.16015l1.76172 1.70703m-2.73437-1.39063l.88281.85157m13.21875-1.62891l-6.3125 3.08594m6.3125-3.08594l1.98438 1.4375m-2.90235-.98828l.99219.71875m13.21094-1.22656l-6.25391 3.20312m6.2539-3.20312l2.01173 1.40234m-2.92188-.9375l1.00781.70313m13.22657-1.15235l-6.26954 3.17188m6.26954-3.17188l2.0039 1.41406m-2.91797-.95312l1.0039.70703m13.10548-1.38672L340.71094 455.5m6.03125-3.60547l2.10156 1.26953m10.14453-2.39062l-3.89453 5.85156m3.89453-5.85156l2.4414.23828m10.96876-.17188l-4.08594 5.71875m3.49219-4.88671l1.21484.16015m13.17578-.57422l-5.05078 4.88282m4.3164-4.17188l1.16798.375m10.80859-2.1289l-.90234 6.96874m.77343-5.95703l1.14454-.42968m15.19921 1.84765l-6.70312 2.10938m5.73047-1.80078l.8711.85937m13.40624-1.20312l-6.67969 2.17578m5.70704-1.85938l.8828.85156m12.67579-2.42968l-5.22266 4.70312m4.46094-4.01953l1.15625.42188m11.7461-1.96094l-2.875 6.41406m2.45703-5.48047l1.22265-.08203m12.6211-.80078l-3.09766 6.3086m2.64844-5.39063l1.22656-.03906"/><g clip-path="url(#ac)"><path fill="none" stroke="#000" stroke-linecap="round" stroke-linejoin="round" stroke-miterlimit="10" stroke-width=".5" d="M147.17188 441.89063l-6.34375-3.01563"/></g><path fill="none" stroke="#000" stroke-linecap="round" stroke-linejoin="round" stroke-miterlimit="10" stroke-width=".5" d="M147.17188 441.89063l.11328 2.45312m13.35937-2.83594l-6.66016-2.2461m6.66016 2.2461l.39844 2.41797m12.98047-2.63672l-6.78906-1.8125m6.78906 1.8125l.55469 2.39063m-1.54297-2.65235l.27734 1.19532m14.08594-1.1875l-6.90625-1.30079m6.90625 1.30079l.73047 2.33984m-1.73438-2.53125l.36328 1.17188m13.99219-1.21875l-6.98047-.82813m6.98047.82813l.88672 2.28515m12.38672-2.01562l-6.89453-1.36328m6.89453 1.36328l.70703 2.34765m12.66406-2.79687l-7.01172-.46875m7.01172.46875l1.00781 2.23828m11.875-4.17969l-6.14453 3.41406m6.14453-3.41406l2.0586 1.33594m11.11328-1.5664l-5.85938 3.8789m5.00782-3.3164l1.07812.58593m13.44922-.44922l-6.57813 2.47656m6.57813-2.47656l1.83984 1.6211m11.44922-1.6875l-6.52734 2.60937m6.52734-2.60938l1.8711 1.58594m-2.82032-1.20703l.9375.79297m13.0586-1.70313l-5.98828 3.67579m5.98828-3.67578l2.11328 1.24218m-2.98438-.70703l1.0586.6211m13.30468-.82813l-6.34765 3.01563m6.34765-3.01563l1.97266 1.46484m-2.89453-1.02343l.98437.73046m13.42188-.74609l-6.6836 2.16406m6.6836-2.16406l1.76562 1.70703m-2.73828-1.39062l.88282.85156m13.42578-1.10547l-6.72266 2.04297m6.72266-2.04297l1.73047 1.73438m11.32421-2.35938l-6.20703 3.29297m6.20703-3.29297l2.03516 1.3711m8.7461-3.19141l-1.13672 6.9336m.97265-5.92579l1.16016-.39453m12.11719-.64063l-.73438 6.98829m.6289-5.97266l1.13673-.46094m13.14843 6.23047l-2.46093-6.58203m2.10156 5.625l-.8125.91797m16.625-2.25781l-6.73828-1.9922m5.75781 1.70313l.2461 1.20313m14.1953-1.85547l-7.02734-.10938m6.0039.09375l.5586 1.09375m13.63281-2.13671l-6.73437 2.01171m5.7539-1.71875l.86329.8711m12.85937-2.28516l-5.58984 4.2539m5.58984-4.2539l2.23047 1.02344m10.6875-1.46484l-4.79687 5.13671m4.79687-5.13671l2.3711.63671m10.85546-.71484l-4.62109 5.29297m3.94922-4.52344l1.19531.27735"/><g clip-path="url(#ad)"><path fill="none" stroke="#000" stroke-linecap="round" stroke-linejoin="round" stroke-miterlimit="10" stroke-width=".5" d="M146.7539 429.2539l-5.5078-4.36718"/></g><path fill="none" stroke="#000" stroke-linecap="round" stroke-linejoin="round" stroke-miterlimit="10" stroke-width=".5" d="M145.95313 428.61719l-.22266 1.20703m13.8086-.03516l-4.44923-5.4414m3.8047 4.64843l-.47657 1.13282m12.84375.39453L170 423.61328m15.26953 6.70703l-2.64844-6.5039m17.3711 5.46093l-5.46094-4.41797m4.66406 3.77735l-.23437 1.20312m14.92187-1.58593l-6.61328-2.3711m5.65234 2.02735l.17579 1.21484m13.88672-3.72266l-6.1875 3.33203m5.28515-2.84765l1.02344.67969m13.60937.66796l-7.01953-.33203m6 .28516l.52344 1.10937m13.78516-1.67968l-6.96875.90234m5.95703-.76953l.71094 1m13.35546-2.08203l-6.4453 2.80078m5.5078-2.39063l.96094.76172m13.5664-.09765l-6.99609.65234m5.98047-.5586l.67188 1.02735m13.42187-2.10156l-6.52344 2.61328m5.57422-2.23438l.9375.79297m13.56641-.17187l-7 .61328m5.98047-.52344l.66797 1.02735m12.33203-3.57813l-4.32813 5.53516m4.32813-5.53516l2.41406.42578m11.74219.52735l-6.01563 3.6289m6.01563-3.6289l2.10547 1.26171m11.44922-.79296l-6.4922 2.6914m6.4922-2.6914l1.89453 1.55859m11.35547-1.69922l-6.36329 2.97266m6.36329-2.97266l1.96093 1.47266m10.89063-2.21094l-5.4375 4.44922m5.4375-4.44922l2.26562.94531m8.07813-2.22656l.50781 7.01172m-.4336-5.99219l1.03907-.65234m15.96484 2.9414l-7.01953.39453m5.9961-.33593l.63671 1.04687m12.25782-3.75l-4.13282 5.6836m3.53125-4.85547l1.21485.17187m12.58203-1.08594l-3.89063 5.85547m3.89063-5.85547l2.4414.2422m10.65626-.375l-3.45704 6.12109m3.45704-6.1211l2.45312.0625m10.21094-.34765l-2.15625 6.6914m2.15625-6.6914l2.41406-.4297m10.84766.41407l-2.05078 6.72266m2.05078-6.72266l2.41015-.46875"/><g clip-path="url(#ae)"><path fill="none" stroke="#000" stroke-linecap="round" stroke-linejoin="round" stroke-miterlimit="10" stroke-width=".5" d="M146.05078 416.60547l-4.10156-5.70703"/></g><path fill="none" stroke="#000" stroke-linecap="round" stroke-linejoin="round" stroke-miterlimit="10" stroke-width=".5" d="M145.45313 415.77734l-.54297 1.09766m12.33593.39063l.13672-7.02344m-.11719 6l-1.09375.55469m12.77735-6.12891l3.36328 6.17187m9.95313 0l3.35937-6.17187m15.02344 4.01562l-6.77735-1.85937m5.79297 1.58984l.26563 1.19531m14.14453-1.52343l-6.9961-.66407m20.26954.96485l-6.91407-1.26953m5.90625 1.08593l.3711 1.17188m13.84375-.5625l-6.69922-2.11719m6.69922 2.11719l.44922 2.41016m13.02734-3.375l-7.02344-.1875m6.0039.16015l.54688 1.09766m13.51172-2.53516l-6.46875 2.74219m5.52735-2.34375l.95312.77344m13.52735-.41407l-6.91797 1.22266m5.91406-1.04297l.7539.96485m13.52344-1.34375l-6.83594 1.625m5.84375-1.38672l.8086.91797m13.10156-2.14063l-6.03906 3.58984m5.16015-3.0664l1.05079.63672m13.4414-.51953l-6.63672 2.30859m5.67188-1.97266l.89844.83594m13.54296.46094l-6.96093-.95313m5.94922.8125l.42578 1.15235m13.67578-2.8164l-6.50781 2.65624m5.55859-2.26953l.94531.78516m13.1289-1.5625l-6.1289 3.4375m6.1289-3.4375l2.06642 1.32812m11.04296-1.65234L367.5 415.79687m5.71484-4.08593l2.19532 1.08984m11.1875-.99219l-5.85547 3.88672m5.85547-3.88672l2.16015 1.16797m10.66016-1.76172l-4.86328 5.07422m4.86328-5.07422l2.35937.66797m10.54688-1.0039l-4.04297 5.75m4.04297-5.75l2.4336.30468m10.22265-.66797l-2.72656 6.47657m2.72656-6.47657l2.44531-.21875m10.64453.13282l-2.27734 6.64843m2.27734-6.64843l2.42188-.38672m10.97265.41406l-2.43359 6.59375m2.4336-6.59375l2.42968-.32812m10.375.18359l-1.41406 6.88281m1.41406-6.88281l2.35156-.69531"/><g clip-path="url(#af)"><path fill="none" stroke="#000" stroke-linecap="round" stroke-linejoin="round" stroke-miterlimit="10" stroke-width=".5" d="M147.03125 402.21094l-6.0625-3.54688"/></g><path fill="none" stroke="#000" stroke-linecap="round" stroke-linejoin="round" stroke-miterlimit="10" stroke-width=".5" d="M146.14844 401.69531l-.04688 1.22656m9.45703.5586l3.51563-6.08594m-3.0039 5.19922l-1.22657-.04297m14.63672 1.20703l2.30078-6.64062m-1.96484 5.67578l-1.21485.1875m16.71485.69531l-2.7422-6.47265m2.34376 5.53125l-.77344.94921m15.8086-5.5l-5.38672 4.51172m16.66406 1.19531l-1.3086-6.90625m1.1172 5.90235l-.95704.76562m16.98438-1.71484l-6.35157-3m5.4297 2.5625l.05858 1.22656m14.51563-2.35156l-7.02734.1289m6.0039-.11327l.59766 1.07421m13.71484-.60156l-6.97656-.85156m5.96094.72656l.4414 1.14844m13.91407-1.5664l-7.02344.23827m7.02344-.23828l1.22265 2.125m12.0586-2.51562l-6.95313 1.01562m6.95313-1.01562l1.45312 1.97656m-2.46484-1.82813l.72656.98829m13.52344-1.50391l-6.80469 1.7539m6.80469-1.7539l1.65625 1.8086m11.3086-2.67579l-6.10157 3.48438m6.10156-3.48438l2.07422 1.3125m11.21484-1.35156l-6.05078 3.5664m6.05078-3.5664l2.09375 1.28125m10.97266-1.65234l-5.55078 4.30859m5.55078-4.3086l2.23828 1.00391m10.3086-1.73437l-4.01563 5.76562m3.42969-4.92578l1.21875.14453m12.33203-1.19922l-3.3164 6.19532m2.83202-5.29297l1.22657.0039m13-.63671l-4.17188 5.65625m4.17188-5.65625l2.42968.35937m10.91407-.33594l-4.23047 5.60938m4.23047-5.60938l2.42578.38672m-3.03906.42969l1.21093.1914m12.9336-.83203l-4.66016 5.26172m4.66016-5.26172l2.38672.57422m10.93359-.57031l-4.67188 5.25m4.67188-5.25l2.38281.58203m10.09766-1.13281l-3.0039 6.35156m3.0039-6.35156l2.45312-.11328m10.33203-.08594l-1.9414 6.7539m1.65625-5.77343l1.20312-.2539m12.98438-.5l-3.11328 6.30077m2.66015-5.38671l1.22657-.03516m13.07812-.55078l-4.1875 5.64062"/><g clip-path="url(#ag)"><path fill="none" stroke="#000" stroke-linecap="round" stroke-linejoin="round" stroke-miterlimit="10" stroke-width=".5" d="M465.65625 397.61719l2.42578.36719"/></g><g clip-path="url(#ah)"><path fill="none" stroke="#000" stroke-linecap="round" stroke-linejoin="round" stroke-miterlimit="10" stroke-width=".5" d="M141.22656 389.28125l5.54688-4.3164"/></g><path fill="none" stroke="#000" stroke-linecap="round" stroke-linejoin="round" stroke-miterlimit="10" stroke-width=".5" d="M155.48047 390.11719l3.67187-5.98828m-3.67187 5.98828l-2.44922-.14844m15.42188-.08594l4.35546-5.51562m-3.72265 4.71094l-1.20703-.21875m14.01562-4.58985l4.10156 5.70703m10.11328-6.17187l2.30079 6.63672m14.3203-.54297l-4.30858-5.55078m3.67968 4.74218l-.5 1.1211m15.17578-1.08594l-5.77343-4.0039m4.93359 3.42187l-.14453 1.21875m14.85547-1.92969l-6.88281-1.41797m6.8828 1.41797l.6875 2.35547m12.67579-2.65234l-6.98047-.82422m6.98047.82422l.89062 2.28515m12.41016-3.1914l-6.95703.98828m6.95703-.98828l1.44922 1.98046m11.85937-2.03906l-6.9414 1.10547m6.9414-1.10547l1.47657 1.95703m11.68359-2.5703l-6.6289 2.33202m6.6289-2.33203l1.80469 1.66016m11.19922-2.3125l-6.01172 3.63672m6.01172-3.63672l2.10937 1.25781m-2.98437-.73047l1.05468.6289m13.13672-1.15624l-6.01172 3.64062m6.01172-3.64062l2.10547 1.2539m11.05078-1.49609l-5.6914 4.1211m5.6914-4.1211l2.20313 1.07813m11.16406-1.00391l-5.79688 3.97265m5.79688-3.97265l2.17578 1.13672m11.47656-.51563l-6.47265 2.73438m6.47265-2.73438l1.90625 1.54688m-2.84765-1.15235l.95312.77344m13.14063-1.50781l-6.14453 3.41015m6.14453-3.41015l2.0586 1.33594m-2.95313-.83985l1.02734.66797m12.65625-1.8789l-5.09375 4.83984m5.09375-4.83985l2.32813.77735m-3.07032-.07422l1.16406.39063m12.70704-1.27344l-4.72266 5.20312m4.72266-5.20312l2.3789.60156m-3.0664.15234l1.1914.3047m12.60547-1.23438l-4.3086 5.55078m4.3086-5.55078l2.41797.41796m10.22266-.82812l-2.96094 6.3711m2.96094-6.3711l2.44921-.13281m10.58594.01562l-2.40234 6.60547m2.40234-6.60547l2.42969-.33984m10.53125.23437l-1.69531 6.81641m1.44922-5.82422l1.1914-.30078m14.10547.33203l-5.16406 4.76953m4.41015-4.07422l1.16016.40625"/><g clip-path="url(#ai)"><path fill="none" stroke="#000" stroke-linecap="round" stroke-linejoin="round" stroke-miterlimit="10" stroke-width=".5" d="M141.09766 375.78516l5.80468-3.95313"/></g><path fill="none" stroke="#000" stroke-linecap="round" stroke-linejoin="round" stroke-miterlimit="10" stroke-width=".5" d="M156.25 377.15625l2.13281-6.69531m-2.13281 6.69531l-2.41406.4414m19.20312-6.34765l-4.8164 5.11719m4.11328-4.375l1.1836.32422m7.59374-.58594l5.66406 4.15625m-4.83984-3.55078l.17578-1.21485m18.63672 2.27344l-6.98047.82422m5.96484-.70313l.69922 1.00782m13.51563.26953l-6.7461-1.97266m6.7461 1.97266l.4961 2.40234m12.64843-1.94531l-6.40625-2.88281m6.40625 2.88281l.16406 2.44922m-1.09375-2.8711l.07813 1.22657m14.28515-1.10547l-6.64453-2.28125m6.64453 2.28125l.38672 2.42187m-1.35156-2.7539l.1914 1.21094m14.27735-2.16407l-7.01953.28906m7.01953-.28906l1.23828 2.11719m12.02344-2.60156l-6.91406 1.2539m6.91406-1.2539l1.51953 1.92578m11.80469-1.88281l-6.92969 1.17187m6.92969-1.17187l1.4961 1.9453m11.73827-2.30077l-6.76953 1.8789m6.76953-1.8789l1.6875 1.78125m-2.67187-1.50781l.84375.89062m13.32422-1.54688l-6.50782 2.64454m6.50782-2.64454l1.8828 1.57422m-2.82812-1.1875l.94141.78516m13.1875-1.46094l-6.2461 3.22266m6.2461-3.22266l2.01563 1.39844m-2.92579-.92969l1.00782.69922m13.23437-1.13281l-6.28125 3.15625m6.28125-3.15625l2 1.41797m-2.91406-.95703l1 .70703m13.32422-.96094l-6.46875 2.74219m6.46875-2.74219l1.90625 1.54688m-2.84766-1.14844l.95313.77344m13.3203-1.12891l-6.5039 2.65234m6.5039-2.65234l1.88673 1.57422m-2.83203-1.1875l.9414.78515m13.2539-1.3203l-6.375 2.95312m6.375-2.95313L375.5 373.8125m-2.88281-1.05078l.97656.73828m12.9336-1.73828l-5.71094 4.09375m5.71093-4.09375l2.19922 1.08594m-3.03125-.4922l1.09766.54298m12.8164-1.42969l-5.24609 4.67969m5.2461-4.67969l2.30078.85156m-3.06641-.17187l1.15234.42578m12.8047-1.23438l-5 4.9375m5-4.9375l2.34374.73047m-3.07031-.01172l1.17187.3672m12.78516-1.17188l-4.82812 5.10546m4.82812-5.10546l2.36328.65234m-3.0664.09375l1.18359.32422m12.71484-1.17578l-4.58984 5.32031m4.58984-5.32031l2.39453.54687m-3.0625.22656l1.19922.27344m12.76953-1.0586l-4.5625 5.34376m4.5625-5.34375l2.39454.52734m11.60546.26172l-5.93359 3.76172m5.07031-3.21484l1.0664.60937"/><g clip-path="url(#aj)"><path fill="none" stroke="#000" stroke-linecap="round" stroke-linejoin="round" stroke-miterlimit="10" stroke-width=".5" d="M140.79688 361.9336l6.40625-2.88282"/></g><path fill="none" stroke="#000" stroke-linecap="round" stroke-linejoin="round" stroke-miterlimit="10" stroke-width=".5" d="M155.50781 363.5039l3.61719-6.02343m-3.61719 6.02344l-2.45312-.125m2.97656-.75l-1.22266-.0625m19.33594-2.09375l-7.02734.03906m6.0039-.03125l.58203 1.07812m13.73829-.70312l-6.9922-.72656m5.97267.62109l.46093 1.13672m12.96094.98828l-5.16797-4.76563m5.16797 4.76563l-.6211 2.375m13.73829-2.17578l-4.76953-5.16016m4.76953 5.16016l-.8086 2.3164m.11328-3.0703l-.80859 2.3203m15.77734-3.0703l-6.6875-2.15626m6.6875 2.15625l.4297 2.41797m-1.40235-2.73047l.42969 2.41406m14.01562-3.45703l-7.0039.5547m7.0039-.5547l1.32031 2.07032m-2.33984-1.98829l.66016 1.03516m13.60156-1.60156l-6.85938 1.52734m6.85938-1.52734l1.59766 1.86328m-2.59375-1.64063l.79687.9297m13.51563-1.15235l-6.85938 1.52344m6.85938-1.52344l1.59375 1.86719m-2.59375-1.64454l.80078.9336m13.5078-1.1914l-6.84374 1.59374m6.84375-1.59375l1.61328 1.84766m-2.60938-1.61719l.8047.92578m13.41796-1.46094l-6.67187 2.20704m6.67187-2.20704l1.77344 1.69532m-2.74219-1.375l.88672.84765m13.3711-1.25l-6.6172 2.3711m6.6172-2.3711l1.8125 1.64844m-2.77735-1.30469l.91016.82422m13.3828-1.1289l-6.64452 2.29296m6.64453-2.29296l1.79687 1.67187m-2.76562-1.33984l.89844.83594m13.30859-1.3672l-6.49219 2.6875m6.49219-2.6875l1.89453 1.5625m-2.83984-1.17187l.94922.78125m13.29297-1.21875L340.5 361.88672m6.45313-2.78516l1.91406 1.53125m-2.85547-1.125l.96094.76563m13.30468-1.15235l-6.47265 2.7422m6.47265-2.7422l1.90625 1.54688m-2.84765-1.14844l.95312.77344m13.29688-1.1875l-6.45703 2.77344m6.45703-2.77344l1.91015 1.53515m-2.85156-1.1289l.95703.76562m13.11328-1.53906l-6.08593 3.51172m6.08593-3.51172l2.08204 1.30078m-2.96875-.79297l2.08203 1.30079m11.97265-2.04297l-5.79297 3.98046m5.79297-3.98046l2.17578 1.1328m-3.01953-.55468l2.17578 1.13281m12.07813-1.5625l-5.98438 3.6797m5.98438-3.6797l2.11719 1.2422m-2.98828-.70704l2.11718 1.24219m12.03907-1.82813l-5.92188 3.78125m5.92188-3.78125l2.13671 1.20703m-3-.65625l2.13672 1.20704m11.98047-1.84766l-5.80078 3.96094m5.80078-3.96094l2.17578 1.14062m-3.01953-.5625l2.17188 1.14063m11.84375-1.91406l-5.51563 4.35156m5.51563-4.35156l2.24609.98828m-3.04687-.35547l1.12109.4961m13.13281-.94141l-5.79297 3.97656"/><g clip-path="url(#ak)"><path fill="none" stroke="#000" stroke-linecap="round" stroke-linejoin="round" stroke-miterlimit="10" stroke-width=".5" d="M466.45703 358.5039l2.17578 1.13673"/></g><g clip-path="url(#al)"><path fill="none" stroke="#000" stroke-linecap="round" stroke-linejoin="round" stroke-miterlimit="10" stroke-width=".5" d="M141.14453 349.22656l5.71094-4.09765"/></g><path fill="none" stroke="#000" stroke-linecap="round" stroke-linejoin="round" stroke-miterlimit="10" stroke-width=".5" d="M155.8164 350.35547L158.8125 344m-2.9961 6.35547l-2.44921.1211m2.88672-1.04298l-1.22657.0586m18.07813.17969l-4.94922-4.98829m4.94922 4.98829l-.72656 2.34375m.0078-3.07032l-.36327 1.17188m15.26172-1.85156l-6.6797-2.17188m6.6797 2.17188l.42578 2.41406m-1.39844-2.73047l.21484 1.20703m13.58985.0664l-5.71485-4.08984m5.71485 4.08985l-.32422 2.43359m-.50781-3.02734l-.32422 2.42968m14.28906-1.60156l-5.34766-4.5586m5.34766 4.5586l-.53125 2.39844m-.25-3.0625l-.52734 2.39844m-.25-3.0586l-.52735 2.39453m15.9336-1.91796l-6.41407-2.86329m6.41407 2.86329l.16797 2.44921m-1.10157-2.86328l.16797 2.44531m-1.10156-2.86328L225.3164 349m15.40234-1.9375l-7.02344.23047m7.02344-.23047l1.21875 2.1289m-2.24219-2.09374l1.22266 2.125m13.00781-2.91407l-6.8086 1.73829m6.8086-1.73829l1.65234 1.8125m-2.64453-1.55859l1.65235 1.8125m12.625-2.17578l-6.75 1.95703m6.75-1.95703l1.70703 1.76172m-2.6914-1.47656l.85546.8828m13.40625-1.28515l-6.67578 2.1914m6.67578-2.1914l1.76953 1.69922m-2.74219-1.3789l.88672.84765m13.28516-1.47266l-6.44531 2.80079m6.44531-2.80079l1.92188 1.52735m-2.85938-1.1211l.96094.76563m13.29687-1.16016l-6.45312 2.77735m6.45312-2.77735l1.91406 1.53906m-2.85156-1.1328l.95703.76562m13.25782-1.26172l-6.375 2.95703m6.375-2.95703l1.95312 1.48047m-2.88281-1.05078l.98047.74218m13.23437-1.23437l-6.3164 3.08203m6.3164-3.08203l1.98438 1.44531m-2.90625-.9961l.9961.72266m13.38671-.8203l-6.60938 2.3828m6.60938-2.3828l1.82031 1.64452m-2.78125-1.30078l.91016.82422m13.48437-.76953l-6.84765 1.58203m6.84765-1.58203l1.60938 1.85156m-2.60547-1.6211l.80469.92579m13.41406-1.48047l-6.66406 2.23438m6.66406-2.23438l1.78125 1.6875m-2.75-1.36328l.89063.84375m13.1328-1.75781l-6.14062 3.41015m6.14063-3.41015l2.0586 1.33203m-2.95313-.83594l1.03125.66797m13.11328-1.27735l-6.01172 3.63672m6.01172-3.63671l2.10937 1.2578m-2.98437-.72656l1.05469.625m13.28125-.89453l-6.30079 3.11329m6.30079-3.11329l1.99218 1.4336m-2.91015-.98047l1.99218 1.4336m12.1875-1.98438l-6.19921 3.3086m6.19921-3.3086l2.03907 1.3711m-2.9375-.89063l2.03515 1.37109m12.11328-1.96875l-6.0664 3.54297m6.0664-3.54297l2.08985 1.28906m-2.97266-.77344l2.08985 1.28907m12.08593-1.84375l-6.02344 3.6211m6.02344-3.6211l2.10547 1.26562m-2.98047-.73828l2.10156 1.26172m12.36329-1.21875l-6.57422 2.48047"/><g clip-path="url(#am)"><path fill="none" stroke="#000" stroke-linecap="round" stroke-linejoin="round" stroke-miterlimit="10" stroke-width=".5" d="M466.84766 345.9375l1.84375 1.61719"/></g><path fill="none" stroke="#000" stroke-linecap="round" stroke-linejoin="round" stroke-miterlimit="10" stroke-width=".5" d="M465.89063 346.29688l1.84375 1.62109"/><g clip-path="url(#an)"><path fill="none" stroke="#000" stroke-linecap="round" stroke-linejoin="round" stroke-miterlimit="10" stroke-width=".5" d="M143.08203 337.2539l1.83594-6.78124"/></g><path fill="none" stroke="#000" stroke-linecap="round" stroke-linejoin="round" stroke-miterlimit="10" stroke-width=".5" d="M157.4961 337.3711l-.36329-7.01563m.36328 7.01562l-2.10156 1.26563m17.4375-2.03516l-4.40625-5.47656m4.40625 5.47656l-.96484 2.2539m.32422-3.05077l-.96485 2.2539m.32422-3.05078l-.96484 2.2539m16.7539-2.49608l-6.78906-1.8047m6.78906 1.8047l.5586 2.39062m-1.54688-2.65234l.5586 2.39062m-1.54688-2.65234l.28125 1.1914m14.95313-.47265l-6.67578-2.19531m6.67578 2.1953l.41797 2.41798m-1.39063-2.73829l.41797 2.41797m-1.38672-2.73437l.41406 2.41797m15.0039-2.57031l-7-.6172m7 .6172l.95704 2.2578m-1.97266-2.34765l.95703 2.25781m-1.97656-2.34765l.95703 2.25781m14.27735-1.4336l-6.76563-1.90624m6.76563 1.90625l.51953 2.39843m-1.5039-2.67578l.51952 2.39844m-1.5039-2.67578l.51953 2.39844m-1.5039-2.67579l.26171 1.19922m16.13672-1.1953l-7.02344-.25m7.02344.25l1.07422 2.20312m-2.09766-2.2422l1.07422 2.20704m-2.09766-2.24219l.53907 1.10547m14.79297-1.60937l-6.96875.90625m6.96875-.90625l1.42187 2m-2.4336-1.8672l1.42188 2m-2.4375-1.87108l.71094 1m14.47266-1.94532L260.51172 335m6.64844-2.27344l1.78906 1.67578m-2.75781-1.34375l1.79297 1.67579m12.28906-2.48438l-6.24219 3.22656m6.24219-3.22656l2.01562 1.39453m-2.92578-.92578l2.01953 1.39453m12.08203-2.08203l-5.99609 3.66406m5.9961-3.66406l2.11328 1.2461m-2.98829-.71485l1.0586.625m13.16015-1.10938l-6.05468 3.57032m6.05468-3.57031l2.08985 1.28125m-2.97266-.76172l1.04688.64062m13.23828-1l-6.23047 3.25m6.23047-3.25l2.02344 1.39063m-2.9297-.91797l1.01173.69531M333.39063 332l-5.95704 3.72656M333.39063 332l2.125 1.22656m-2.9922-.6836l1.0625.61329m13.42579-.53516l-6.57422 2.48047m6.57422-2.48047l1.84375 1.6211m11.6211-1.10938l-6.8711 1.46094m6.8711-1.46094l1.57812 1.8789m11.5-2.60155l-6.39844 2.90625m6.39844-2.90625l1.94531 1.49609m-2.875-1.07422l.97266.75m12.67968-2.07812l-5.21093 4.71875m5.21093-4.71875l2.3047.83203m-3.0625-.14453l1.15234.41796m12.80078-1.23046L394.5 336.34766m4.97266-4.96875l2.34375.71875m11.73828.4414l-6.50781 2.64844m6.5078-2.64844l1.88282 1.57422m11.49219-1.41797l-6.625 2.33594m6.625-2.33594l1.8086 1.65625m-2.77345-1.3164l.90625.82812m13.22266-1.53125l-6.32422 3.0625m6.32422-3.0625l1.98047 1.44922m-2.89844-1.0039l1.98047 1.44921m12.26563-1.86719l-6.35157 3.00391m6.35157-3.0039l1.96875 1.46875M452.5 332.79688l1.96484 1.46875m-2.89062-1.03125l.98437.73437m14.1875-1.59375l-6.36718 2.97656"/><g clip-path="url(#ao)"><path fill="none" stroke="#000" stroke-linecap="round" stroke-linejoin="round" stroke-miterlimit="10" stroke-width=".5" d="M466.7461 332.375l1.96093 1.47266"/></g><g clip-path="url(#ap)"><path fill="none" stroke="#000" stroke-linecap="round" stroke-linejoin="round" stroke-miterlimit="10" stroke-width=".5" d="M465.8164 332.8086l1.96485 1.47265"/></g><path fill="none" stroke="#000" stroke-linecap="round" stroke-linejoin="round" stroke-miterlimit="10" stroke-width=".5" d="M464.89063 333.24219l.98046.73437"/><g clip-path="url(#aq)"><path fill="none" stroke="#000" stroke-linecap="round" stroke-linejoin="round" stroke-miterlimit="10" stroke-width=".5" d="M143.15625 323.95703l1.6875-6.82031"/></g><path fill="none" stroke="#000" stroke-linecap="round" stroke-linejoin="round" stroke-miterlimit="10" stroke-width=".5" d="M158.08594 323.97656l-1.53906-6.85547m1.53906 6.85547l-1.86328 1.59766m1.63672-2.59375l-.9297.79687m15.25782-.07812l-3.11328-6.30078m3.11328 6.30078l-1.4336 1.99219m.98048-2.91016l-1.4336 1.99219m.98047-2.91016l-1.4336 1.99219m17.00782-1.33985l-5.82031-3.9375m5.8203 3.9375l-.26171 2.44141m-.58594-3.01172l-.25781 2.4375m-.58984-3.01172l-.25782 2.44141m-.58593-3.01563l-.13282 1.22266m16.34375-.17578l-6.53515-2.58984m6.53515 2.58984l.27344 2.4375m-1.22266-2.8164l.26954 2.4375m-1.22266-2.8125l.27344 2.4375m-1.22266-2.81641l.13672 1.22265m16.27344-1.48046l-7.02344.1875m7.02344-.1875l1.21094 2.13671m-2.23047-2.10937l1.20703 2.13672m-2.23047-2.10938l1.21094 2.13672m-2.23047-2.10937l.60156 1.0703m15.73047-1.64452l-6.92969 1.17578m6.92969-1.17578l1.4961 1.9414m-2.50391-1.77343l1.49609 1.9453m-2.5039-1.77343l1.49609 1.94531m-2.5039-1.77343l.74608.97265m15.63672-.69531l-7.01562-.40234m7.01562.40234l1.02344 2.23047m-2.04687-2.28906l1.02734 2.23046m-2.04688-2.28906l1.02344 2.23047m-2.04297-2.28906l.51172 1.11328m15.83985-1.58984L247.03516 321m6.96875-.90234l1.42187 2m-2.4336-1.8711l1.41798 2m-2.4336-1.86719l1.42188 2m13.82422-2.73828l-6.77735 1.85547m6.77735-1.85547l1.68359 1.78516m-2.66797-1.51563l1.6836 1.78516m-2.66797-1.51562l.83984.89062m14.30078-1.85547l-6.48828 2.70313m6.48828-2.70313l1.89453 1.5586m-2.83984-1.16407l1.89844 1.5586m12.24609-2.20313l-6.2539 3.20313m6.2539-3.20313l2.01172 1.40625m-2.92188-.9375l2.01172 1.40235m12.2461-1.80079l-6.32032 3.06641m6.32032-3.0664l1.98437 1.4453m-2.90234-1l1.98047 1.44532m12.23437-1.92969l-6.28515 3.14453m6.28515-3.14453l2 1.42188m-2.91406-.96485l2 1.42188m12.23828-1.86328l-6.30078 3.10937m6.30078-3.10937l1.99219 1.4336m-2.91016-.98048l1.99219 1.4336m12.41406-1.46485l-6.64844 2.26953m6.64844-2.26953l1.78906 1.67578m-2.7578-1.34765l.89843.83984m12.9414-2.04687l-5.76171 4.02343m5.76172-4.02343l2.18359 1.12109m11.08594-1.1836l-5.67188 4.14844m4.84766-3.54296l1.10547.53125m12.30078-1.87891l-4.20313 5.63281m4.20313-5.63281l2.42578.375m10.84766-.40235l-4.1211 5.6875m4.1211-5.6875l2.43359.33985m12 4l-6.35938-2.98828m19.98829 1.875l-6.98438-.76563m5.96875.65625l.45313 1.13672m13.78906-2.28125l-6.8086 1.74219m6.8086-1.74219l1.65234 1.8164m11.375-2.5664l-6.23437 3.24219m6.23437-3.24219l2.02344 1.39063m-2.92969-.91797l2.01953 1.39062m11.85157-2.40625l-5.53125 4.33203"/><g clip-path="url(#ar)"><path fill="none" stroke="#000" stroke-linecap="round" stroke-linejoin="round" stroke-miterlimit="10" stroke-width=".5" d="M466.32813 318.38281l2.24218.99219"/></g><g clip-path="url(#as)"><path fill="none" stroke="#000" stroke-linecap="round" stroke-linejoin="round" stroke-miterlimit="10" stroke-width=".5" d="M465.52344 319.01172l2.24219.9961"/></g><path fill="none" stroke="#000" stroke-linecap="round" stroke-linejoin="round" stroke-miterlimit="10" stroke-width=".5" d="M464.71875 319.64063l1.1211.5"/><path fill="#ff3030" fill-rule="evenodd" d="M366.74219 432.14063h7.6914v-10.14454h-7.6914v10.14454"/><path fill="azure" fill-rule="evenodd" d="M368.57422 423.82813h.83203v5.73828h3.19531v.74218h-4.02734v-6.48046"/><path fill="#ff3030" fill-rule="evenodd" d="M295.72656 414.38672h7.69531v-10.14453h-7.6953v10.14453"/><path fill="azure" fill-rule="evenodd" d="M297.5586 406.07422h.83593v5.74219h3.1914v.73828h-4.02734v-6.48047"/><path fill="#ff3030" fill-rule="evenodd" d="M198.08203 405.51172h7.69531v-10.14453h-7.6953v10.14453"/><path fill="azure" fill-rule="evenodd" d="M199.91797 397.19922h.83203v5.73828h3.19531v.74219h-4.02734v-6.48047"/><path fill="#ffffe0" fill-rule="evenodd" d="M343.64063 387.98828h22.17968v-10.1914h-22.17969v10.1914"/><path fill-rule="evenodd" d="M347.13672 379.6289h.51172v6.29688h-.78906v-4.49219h-1.38672v-.55468l.55859-.0625.2539-.0547.22657-.08983.20312-.14063.17579-.21094.14062-.29297.10547-.39843m4.8164 0l.22657.01953.21875.05469.21094.08984.1953.1211.1836.15234.17188.17578.30078.41797.24219.49218.18359.54688.10937.57812.03907.59375-.03907.59375-.10937.58204-.1836.55468-.24218.5-.30078.42969-.17188.17969-.1836.15234-.1953.125-.21094.08985-.21875.05859-.22656.01953-.23047-.01953-.21875-.0586-.20704-.08984-.19921-.125-.1836-.15234-.17187-.17969-.30078-.42969-.2422-.5-.17968-.55469-.11328-.58203-.03906-.59375h.83594l.02734.5625.08203.50391.125.44531.16406.375.1914.30078.21095.21875.22265.13672.22656.04688.22657-.04688.22265-.13672.21094-.21875.1875-.30078.16406-.375.125-.44531.08204-.5039.03125-.5625-.03125-.5625-.08204-.5-.125-.4375-.16406-.36329-.1875-.29297-.21094-.21484-.22265-.1289-.22656-.04688-.22657.04687-.22265.12891-.21094.21484-.1914.29297-.16407.36328-.125.4375-.08203.5-.02735.5625h-.83593l.03906-.59375.11328-.57812.17969-.54688.24219-.49218.30078-.41797.17187-.17578.1836-.15235.19921-.1211.20704-.08983.21875-.0547.23046-.01952m5.08985 0h.50781v6.29687h-.78515v-4.49219H355.375v-.55468l.5625-.0625.25-.0547.23047-.08983.20312-.14063.17579-.21094.14062-.29297.10547-.39843m2.82422 2.17578h.78515l.01954-.3164.05859-.28517.10156-.2539.14063-.21485.17968-.17187.22266-.1289.26563-.08204.30859-.02734.23828.02344.22266.0625.20312.10156.17969.13672.14844.17187.11328.20703.07422.23438.02343.26562-.01953.26954-.0664.22265-.10938.1914-.15625.17188-.20312.16406-.2461.16407-.63281.39062-.53906.3125-.4375.3164-.34375.32423-.26563.33594-.1914.35156-.125.3711-.06641.39062-.02344.42187h4.21485v-.74219h-3.33594l.08594-.28515.11328-.23438.14844-.20312.1875-.17969.23046-.17188.27735-.17578.71875-.41406.41406-.20703.34375-.23047.28125-.25.22266-.26953.16015-.27734.11328-.28516.0625-.28516.01954-.28125-.03907-.3828-.1211-.34767-.1914-.30859-.25-.26172-.30078-.21094-.34375-.16015-.38281-.09766-.40625-.03515-.4336.03515-.39843.09766-.35547.16797-.30469.23437-.25.30078-.1836.375-.11718.44532-.03906.51953"/><path fill="#ffffe0" fill-rule="evenodd" d="M190.83984 354.63281h22.1797v-10.1914h-22.1797v10.1914"/><path fill-rule="evenodd" d="M194.33984 346.27344h.50782v6.29297h-.78516v-4.48829h-1.39063v-.55468l.5625-.0664.25-.0547.23047-.08984.20313-.14063.17578-.21093.14063-.29297.10546-.39453m4.8125 0l.23047.01953.21875.05469.20703.08984.19532.1211.1875.14843.16797.17578.30468.41797.24219.4961.17969.54687.11328.57813.03516.58984-.03516.59375-.11328.58594-.17969.55468-.24219.5-.30469.4297-.16796.17968-.1875.15234-.19532.1211-.20703.09375-.21875.05859-.23047.01953-.23047-.01953-.21875-.0586-.20703-.09374-.1953-.1211-.1836-.15234-.17188-.17969-.30078-.42969-.2461-.5-.17968-.55468-.10938-.58594-.03906-.59375h.83203l.03125.5625.08203.50781.125.4414.16016.375.1914.30079.21095.22265.22265.13672.22656.04688.22657-.04688.22265-.13671.21094-.22266.1914-.30078.16016-.375.1289-.4414.08204-.50782.02734-.5625-.02734-.5586-.08203-.5039-.1289-.4336-.16016-.36718-.19141-.28906-.21094-.21485-.22265-.13281-.22657-.04297-.22656.04297-.22266.13281-.21093.21485-.1914.28906-.16017.36719-.125.43359-.08203.5039-.03125.5586h-.83203l.03906-.58985.10938-.57812.17969-.54688.2461-.49609.30077-.41797.17188-.17578.1836-.14844.1953-.12109.20703-.08984.21875-.0547.23047-.01952m5.09375 0h.50782v6.29297h-.78907v-4.48829h-1.38672v-.55468l.5586-.0664.2539-.0547.23047-.08984.20313-.14063.17187-.21093.14063-.29297.10937-.39453m2.82032 2.17578h.78906l.01953-.3164.0586-.28516.09765-.25391.14063-.21484.18359-.17579.22266-.1289.26562-.07813.3086-.02734.23437.01953.22656.0625.20313.10156.17968.14063.14844.17187.11328.20704.07031.23437.02735.26563-.02344.26562-.0664.22656-.10938.1914-.15625.17188-.19922.16016-.2461.16797-.63671.39062-.53516.3125-.4375.31641-.34765.32422-.26563.33594-.1875.35156-.125.36719-.07031.39453-.01953.41797h4.21094v-.73829h-3.33204l.08203-.28515.11329-.23828.14843-.19922.1875-.17969.23047-.17187.28125-.17579.71485-.41796.41406-.20313.34766-.23047.28125-.2539.21875-.26563.16406-.27734.10937-.28516.0664-.28515.01954-.28125-.04297-.38282-.1211-.34765-.1875-.3086-.25-.26172-.30468-.21484-.34375-.15625-.3789-.09766-.40626-.03515-.4375.03125-.39843.10156-.35547.16406-.30469.23438-.2461.30469-.1875.375-.11327.4453-.04297.51954"/><path fill="#ffffe0" fill-rule="evenodd" d="M155.33203 431.41016h22.17969v-10.19532h-22.17969v10.19532"/><path fill-rule="evenodd" d="M158.83203 423.05078h.50781v6.29297h-.78515v-4.48828h-1.38672v-.55469l.5586-.0664.25-.0547.23046-.08984.20313-.14062.17578-.21094.14062-.29297.10547-.39453m4.8125 0l.23047.01563.21875.05859.20703.08984.19922.1211.1836.14844.17187.17578.30078.41796.24219.4961.17969.54297.11328.58203.03906.58984-.03906.59375-.11328.58203-.1797.5547-.24218.5039-.30078.42578-.17188.17969-.18359.15625-.19922.12109-.20703.09375-.21875.05469-.23047.01953-.22656-.01953-.21875-.05469-.21094-.09375-.19531-.1211-.1836-.15624-.17187-.1797-.30078-.42577-.24219-.5039-.17969-.5547-.11328-.58203-.03906-.59375h.83203l.03125.5625.08203.50781.125.44141.16406.375.1875.30078.21094.22266.22266.13672.22656.04687.22656-.04687.22266-.13672.21094-.22266.1914-.30078.16407-.375.125-.4414.08203-.50782.02734-.5625-.02734-.5625-.08203-.5-.125-.4336-.16407-.36718-.1914-.29297-.21094-.21094-.22266-.1328-.22656-.04688-.22656.04687-.22266.13281-.21094.21094-.1875.29297-.16406.36719-.125.4336-.08203.5-.03125.5625h-.83203l.03906-.58985.11328-.58203.1797-.54297.24218-.4961.30078-.41796.17188-.17579.18359-.14843.19531-.1211.21094-.08984.21875-.0586.22656-.01562m5.09375 0h.50781v6.29297h-.78515v-4.48828h-1.39063v-.55469l.5625-.0664.25-.0547.23047-.08984.20313-.14062.17187-.21094.14453-.29297.10547-.39453m2.82422 2.17578h.78516l.01953-.3164.0586-.28907.10155-.25.13672-.21484.1836-.17578.22265-.1289.26563-.08204.3086-.02734.23827.02344.22266.0625.20312.10156.1797.13672.14843.17578.11328.20312.07031.23828.02735.26172-.02344.26953-.0664.22657-.10938.1914-.15235.17188-.20312.16015-.2461.16797-.6328.38672-.53907.3125-.4375.32031-.34766.32422-.26172.33594-.1914.34766-.125.37109-.07031.39453-.01953.41797h4.21093v-.73828h-3.33203l.08203-.28516.11719-.23828.14453-.19922.1875-.1836.23438-.16796.27734-.17578.71484-.41797.41797-.20703.34375-.23047.28125-.25.21875-.26563.16406-.28125.11329-.28125.0625-.28515.01953-.28125-.04297-.38281-.11719-.34766-.1914-.3086-.25-.26562-.30079-.21094-.34765-.16015-.3789-.09766-.40626-.03125-.4375.03125-.39453.09766-.35547.16797-.30469.23437-.25.30469-.18359.375-.11719.44531-.03906.51953"/><path fill="#ffffe0" fill-rule="evenodd" d="M319.55078 347.98438h22.1836v-10.19141h-22.1836v10.1914"/><path fill-rule="evenodd" d="M323.05078 339.625h.51172v6.29297h-.78906v-4.48828h-1.38672v-.55469l.5586-.0664.25-.0547.23046-.08984.20313-.14062.17578-.21094.14062-.29297.10547-.39453m4.8125 0l.23047.01953.21875.05469.21094.08984.19531.1211.1836.14843.17187.17579.30078.42187.24219.49219.17969.54687.11328.57813.03906.58984-.03906.59375-.11329.58594-.17968.55469-.24219.5-.30078.42968-.17188.1797-.18359.15233-.19531.1211-.21094.09375-.21875.0586-.23047.01952-.22656-.01953-.21875-.0586-.21094-.09374-.19531-.1211-.1836-.15234-.17187-.17969-.30078-.42968-.24219-.5-.17969-.5547-.11328-.58593-.03906-.59375h.83594l.02734.5625.08203.50781.125.44141.16406.375.19141.30078.21094.22266.22265.13672.22266.04687.22656-.04687.22266-.13672.21094-.22266.1914-.30078.16407-.375.125-.4414.08203-.50782.02734-.5625-.02734-.5586-.08203-.5-.125-.4375-.16407-.36718-.1914-.28906-.21094-.21485-.22266-.1328-.22656-.04298-.22265.04297-.22266.13281-.21094.21485-.1914.28906-.16407.36719-.125.4375-.08203.5-.02734.5586h-.83594l.03906-.58985.11328-.57813.1797-.54687.24218-.49219.30078-.42188.17188-.17578.18359-.14843.19531-.1211.21094-.08984.21875-.05469.22656-.01953m5.09375 0h.50781v6.29297h-.78515v-4.48828h-1.39063v-.55469l.5625-.0664.25-.0547.23047-.08984.20313-.14062.17578-.21094.14062-.29297.10547-.39453m6.80469 1.6211h-.78906l-.05079-.21485-.08203-.1836-.10546-.16015-.12891-.13281-.14844-.10156-.16015-.07422-.16797-.04688-.17188-.01172-.32812.03906-.28907.1211-.24609.19531-.20313.26953-.16015.33594-.11719.40625-.07031.46484-.02344.52735.1914-.20313.1836-.16015.1875-.1211.1836-.08984.1875-.0586.1953-.03906.39844-.02344.3086.03125.32031.09375.3164.15235.29298.22265.2578.28125.19923.35157.07031.19922.05469.21875.02734.23437.0039.2539-.78515.04298-.02734-.25782-.07813-.25-.1211-.23437-.16015-.21094-.19531-.17578-.21875-.14063-.24219-.08593-.2539-.03125-.25391.03125-.24219.08594-.21875.14062-.1914.17578-.16407.21094-.12109.23437-.07813.25-.02734.25782.02735.26171.07812.25.1211.23438.16406.21094.1914.17578.21875.13672.24219.08984.2539.03125.25391-.03125.24219-.08984.21875-.13672.19531-.17578.16016-.21094.1211-.23438.07812-.25.02734-.26171.78516-.04297-.03125.36719-.08985.375-.16015.35546-.22266.32813-.28906.28515-.16797.1172-.1914.10156-.20313.08593-.22656.0586-.23829.03906-.26171.01562-.28125-.01953-.26172-.04687-.23828-.07422-.21485-.10547-.19531-.13281-.17188-.15625-.15625-.17969-.13671-.19922-.11329-.22265-.10156-.2422-.14453-.53515-.08594-.59375-.02734-.64062.03906-.7422.11328-.66405.1875-.57813.1211-.2539.13672-.23438.15234-.20703.16797-.17969.1875-.15625.20312-.1289.21875-.10157.23047-.07422.25-.04296.26172-.01563.36328.03125.33203.09766.29688.15234.25781.19922.21094.23828.16406.27734.11719.30079.0625.32421"/></g></defs><use xlink:href="#at"/></svg>