<svg xmlns="http://www.w3.org/2000/svg" role="img" xmlns:xlink="http://www.w3.org/1999/xlink" viewBox="142.45 309.95 326.84 171.84"><defs><clipPath id="a"><path d="M144 311.67188h1v168.65625h-1zm0 0"/></clipPath><clipPath id="b"><path d="M144 311.67188h324v168.65625H144zm0 0"/></clipPath><clipPath id="c"><path d="M467 311.67188h1v168.65625h-1zm0 0"/></clipPath><clipPath id="d"><path d="M144 479h4v1.32813h-4zm0 0"/></clipPath><clipPath id="e"><path d="M147 480h2v.32813h-2zm0 0"/></clipPath><clipPath id="f"><path d="M153 479h8v1.32813h-8zm0 0"/></clipPath><clipPath id="g"><path d="M160 480h2v.32813h-2zm0 0"/></clipPath><clipPath id="h"><path d="M166 480h9v.32813h-9zm0 0"/></clipPath><clipPath id="i"><path d="M173 480h3v.32813h-3zm0 0"/></clipPath><clipPath id="j"><path d="M172 480h2v.32813h-2zm0 0"/></clipPath><clipPath id="k"><path d="M180 479h8v1.32813h-8zm0 0"/></clipPath><clipPath id="l"><path d="M187 479h3v1.32813h-3zm0 0"/></clipPath><clipPath id="m"><path d="M186 479h2v1.32813h-2zm0 0"/></clipPath><clipPath id="n"><path d="M193 479h8v1.32813h-8zm0 0"/></clipPath><clipPath id="o"><path d="M200 479h3v1.32813h-3zm0 0"/></clipPath><clipPath id="p"><path d="M199 479h2v1.32813h-2zm0 0"/></clipPath><clipPath id="q"><path d="M206 479h9v1.32813h-9zm0 0"/></clipPath><clipPath id="r"><path d="M213 479h3v1.32813h-3zm0 0"/></clipPath><clipPath id="s"><path d="M212 479h3v1.32813h-3zm0 0"/></clipPath><clipPath id="t"><path d="M220 479h8v1.32813h-8zm0 0"/></clipPath><clipPath id="u"><path d="M227 479h3v1.32813h-3zm0 0"/></clipPath><clipPath id="v"><path d="M226 479h2v1.32813h-2zm0 0"/></clipPath><clipPath id="w"><path d="M233 478h8v2.32813h-8zm0 0"/></clipPath><clipPath id="x"><path d="M240 478h3v2.32813h-3zm0 0"/></clipPath><clipPath id="y"><path d="M239 479h2v1.32813h-2zm0 0"/></clipPath><clipPath id="z"><path d="M246 479h9v1.32813h-9zm0 0"/></clipPath><clipPath id="A"><path d="M253 479h3v1.32813h-3zm0 0"/></clipPath><clipPath id="B"><path d="M260 478h8v2.32813h-8zm0 0"/></clipPath><clipPath id="C"><path d="M266 478h4v2.32813h-4zm0 0"/></clipPath><clipPath id="D"><path d="M273 478h8v2.32813h-8zm0 0"/></clipPath><clipPath id="E"><path d="M280 478h3v2.32813h-3zm0 0"/></clipPath><clipPath id="F"><path d="M286 478h9v2.32813h-9zm0 0"/></clipPath><clipPath id="G"><path d="M293 478h3v2.32813h-3zm0 0"/></clipPath><clipPath id="H"><path d="M292 479h2v1.32813h-2zm0 0"/></clipPath><clipPath id="I"><path d="M300 478h8v2.32813h-8zm0 0"/></clipPath><clipPath id="J"><path d="M306 478h4v2.32813h-4zm0 0"/></clipPath><clipPath id="K"><path d="M305 479h3v1.32813h-3zm0 0"/></clipPath><clipPath id="L"><path d="M313 478h8v2.32813h-8zm0 0"/></clipPath><clipPath id="M"><path d="M320 478h3v2.32813h-3zm0 0"/></clipPath><clipPath id="N"><path d="M327 478h7v2.32813h-7zm0 0"/></clipPath><clipPath id="O"><path d="M333 478h3v2.32813h-3zm0 0"/></clipPath><clipPath id="P"><path d="M340 478h7v2.32813h-7zm0 0"/></clipPath><clipPath id="Q"><path d="M346 478h4v2.32813h-4zm0 0"/></clipPath><clipPath id="R"><path d="M353 478h8v2.32813h-8zm0 0"/></clipPath><clipPath id="S"><path d="M359 478h4v2.32813h-4zm0 0"/></clipPath><clipPath id="T"><path d="M367 477h7v3.32813h-7zm0 0"/></clipPath><clipPath id="U"><path d="M380 477h7v3.32813h-7zm0 0"/></clipPath><clipPath id="V"><path d="M394 477h6v3.32813h-6zm0 0"/></clipPath><clipPath id="W"><path d="M407 477h6v3.32813h-6zm0 0"/></clipPath><clipPath id="X"><path d="M421 476h5v4.32813h-5zm0 0"/></clipPath><clipPath id="Y"><path d="M435 476h4v4.32813h-4zm0 0"/></clipPath><clipPath id="Z"><path d="M449 476h3v4.32813h-3zm0 0"/></clipPath><clipPath id="aa"><path d="M461 476h5v4.32813h-5zm0 0"/></clipPath><clipPath id="ab"><path d="M144 466h4v2h-4zm0 0"/></clipPath><clipPath id="ac"><path d="M465 464h3v2h-3zm0 0"/></clipPath><clipPath id="ad"><path d="M144 453h4v1h-4zm0 0"/></clipPath><clipPath id="ae"><path d="M465 450h3v2h-3zm0 0"/></clipPath><clipPath id="af"><path d="M144 439h4v3h-4zm0 0"/></clipPath><clipPath id="ag"><path d="M465 437h3v2h-3zm0 0"/></clipPath><clipPath id="ah"><path d="M144 425h4v4h-4zm0 0"/></clipPath><clipPath id="ai"><path d="M466 424h2v3h-2zm0 0"/></clipPath><clipPath id="aj"><path d="M144 410h3v7h-3zm0 0"/></clipPath><clipPath id="ak"><path d="M466 411h2v3h-2zm0 0"/></clipPath><clipPath id="al"><path d="M144 396h2v9h-2zm0 0"/></clipPath><clipPath id="am"><path d="M144 402h1v2h-1zm0 0"/></clipPath><clipPath id="an"><path d="M466 398h2v3h-2zm0 0"/></clipPath><clipPath id="ao"><path d="M144 384h3v7h-3zm0 0"/></clipPath><clipPath id="ap"><path d="M466 386h2v4h-2zm0 0"/></clipPath><clipPath id="aq"><path d="M144 370h3v7h-3zm0 0"/></clipPath><clipPath id="ar"><path d="M466 374h2v3h-2zm0 0"/></clipPath><clipPath id="as"><path d="M144 358h3v5h-3zm0 0"/></clipPath><clipPath id="at"><path d="M466 359h2v3h-2zm0 0"/></clipPath><clipPath id="au"><path d="M144 346h4v2h-4zm0 0"/></clipPath><clipPath id="av"><path d="M466 345h2v3h-2zm0 0"/></clipPath><clipPath id="aw"><path d="M144 333h4v2h-4zm0 0"/></clipPath><clipPath id="ax"><path d="M466 331h2v3h-2zm0 0"/></clipPath><clipPath id="ay"><path d="M465 332h3v3h-3zm0 0"/></clipPath><clipPath id="az"><path d="M144 318h4v5h-4zm0 0"/></clipPath><clipPath id="aA"><path d="M466 318h2v2h-2zm0 0"/></clipPath><clipPath id="aB"><path d="M465 318h3v3h-3zm0 0"/></clipPath><g id="aC" clip-path="url(#clip1)"><path fill="#fff" fill-opacity="0" fill-rule="evenodd" d="M0 0h1000v1000H0zm0 0"/><path fill="#d3d3d3" fill-opacity="0" fill-rule="evenodd" d="M162.15234 355.86719l-.23437.29297.0586.23437.11718.17188.17578.23437.29297.34766.11328.0586.11719-.17188.0586-.23438.17577-.17578.46485-.17578h.69922l.23437.29297.28906.8164.0586.17579.17578.23046.35156.23438.69922.69922.17188.17578.23437.34765.23438.41016.28906.58203.41015.46485.23047.23437.23438.17578.11719.23047.17578.29297.17187 1.16406v.23438l.0586.28906.05859.11719.11719.11719.34765.41015.11719.17188.17578.17578.17578.23437.11719.17188.17188.35156.05859.23438.23437.40625.23438-.0586-.17578.17578-.0586.92969h-.58203l-.23437-.11328-.34766.11328-.11719.11719-.05859.29297-.0586.17578-.11718.17187-.46484.29297-.0586.23438-.0586.11328v.64453l.0586.17187v.41016l.0586.0586v.40624l.05859.40625.11719.17579.05859.05859.23047.64062-.0586.29297v.69922l-.05859.58203v.23438l-.0586.23047-.05468.35156v1.92187l.05469.1172h.42578l-.36719.11718-.02344.35156.89063 1.16797 1.74219.53906 1.33984.35938v.53906l.08984.8086.53516.71484 1.51953.26953.89063-.08594.08984 1.16406.53516.1797 1.16015-.1797 2.05469-.98437 1.16016-.36328 1.8789-.17578 1.69531-.1797-.17968.71876-1.51563.08594-1.25.08984-.80469.26953-1.07421.8086.26953.71875.53515.89843-.17968.625-.26563.8086.26563 1.07812.625.89844.80468.17969 1.25-.1797-.26562.72267.09766.5039.05468.29297v.17188l.0586.29296v.40625l.17578.1172.35156.11718h.40625l.29297-.17578.11328-.11719.0586-.11719.11718-.23047.0586-.17578.35156-.46484.23047-.17578.17578-.0586.17578.0586.0586.17578.11718.98828.05469.46875.0586.17188.11718.23437.17578.0586.8164.05859h.28907l.11719.23437.05859.40625.0586.35156v1.10547l.11718.29297.11719.34766.28906.69922.17578.35156.58203.7539.35157.17579.17187.0586.46875.23437.64063.46484.34765.23438.29297.17578.29297.05468.23047.0625.8164.34766.29297.17578.11328.17188.35157.35156.11719.17578.52343.64063v.28906l.0586.35156v.34766l.05859.35156.0586.28906.11718.0586.17188.05859h.17578l.58203.23437.17578.1172.17578.28905.17578.23438.11328.23437.29297.23047.11719.11719v.41016l.0586.05468.28906.23438.23437.11719.0586.11718.11718.17188.0586.11719.23047.23437.05859.17578.23437.0586.1172.05859-.1172.11328-.05859.11719v.11719l-.11719.29296-.11719.28907v.58203l.17579.11719.11718.05859.0586.11719.11719.11719.11328.05859.17578.34765.0586.35157.05858.40625v.17578l-.05859.17578-.11719.69922v.17187l.1172.17579.29296.29296h.40625l.17578.1172.11719.17187.11719.29296v.23438h-.52735l-.23047-.23438h-.23437l-.17578.0586-.0586.69922.0586.34765.11719.17579.17578.41015.11718.23047.28907.46875.17578.05469h.52344l.23437.0586.75781.64062.0586.29296v.23438l.05859.0586.23047.34765v.35156l-.11719.17188v.29297l.29297.28906.29297.17578.17187.0586.29297.17577.29297.1172.58203.40624.28906.23438.29297.17578.21875.16015.01563.01172.23047.17579.64062.52343.17578.23438.1172.17578.17577.17578.11328.17188v.64062l.1172.17578.46874.11719.58203.11719.23438.05859.23047.11328.29297.11719.11328.0586.58593.35156.28907.17187.17578.0625.17578.05469.17578.0586.69922.35155.28906.17579.23438.05468.28906.17578.23437.1172.64063.40624.29297.11719.17187.0586.23438.05859.41015.05859.23047.0586.23438.11718.0586.17188-.41017.17578.46875.0586.0586.29296.11328.23438.17578.05468.23438.0586.17578.05859.40625.11719.64062.23437.11719.17188.0586.23437v.17578l-.0586.1172-.0586.40624.23438.23438.11719.05859.34766.11719.64062.23047.17578.11718.28906.1172.17578.17577.23438.46485.58203 1.10546.17578.17579.34766.17578.17578.11719.35156.11718 1.04688.52344.23437.0586.46485.11327.29297.0586.46484.17578.75781.58203.23438.23438.34765.46484.17578.17578.28907.23438.8164.69921.29297.17579.28906.28906.29297.17578.29297.28906.69531.64063.17578.17578.29297.23437.28907.23438.46875.28906.64062.58203.34766.23438.23437.29297.34766.34765.35156.46485.9336.99218.34765.40625.11719.17579.23437.05859.11328.11719.64454.17578.23047.11328.23437.0586.29297.17577.23047.1172.9336.69921.40624.40625.23438.17578.40625.17578.23437.11719.8164.34766.34766.23437.23438.11719.29297.28906.23047.11719.7578.35156.35157.17188.23047.05859.29297.11719.23437.0586.8711.17577h.8164l.46875.23047.17188.0586.875.69921.46484.1172.29297.05858.17578.0586.23047.0586.46875.05859.34766.05859.35156.0586.40625.05859h.29297l.17187.0586v.23046l.17578.17578h.29297l.34766.0586.35156.05859.69922.11719h.64063l.46484-.23438.29297-.17578.17187-.11719.41016-.17187.28906-.17578.9336-.46485.46875-.29297.52343-.29296.46485-.17188.46484-.17578 1.05078-.46485.28906-.11718.41016-.11719.28906-.11719.52735-.17578 1.51562-.69922.58203-.34765.28907-.0586.29297-.0586.34765-.11718.875-.23047.35156-.11719h.11329l.23437-.05859.875-.23437.23438-.0586h.8125l.35156-.0586.8164-.11718.17188-.0586.35156-.05468.29297-.0586.23047-.05859.8164-.17578.17579-.0586h.34765l.23438-.05859.46484-.11718.75781-.17188.23438-.0586h.34765l.41016-.11718.28906-.0586 1.28516-.05859h.28906l.41016-.0586.23047-.05858h.17578l.875-.1172h.40625l.41015-.11718h.34766l.35156-.11328.8711-.0586h1.75l1.04687.28907.41016.11719.28906.11718.35156.11719.28907.11719 1.05078.17187.28906.0586h.29297l.29297.05859.17187.0586.41016.05859.17187.0586.1172.05858h.11718l.11719.0586.35156.0586h.11328l.41016.0664 1.92187.39453 1.92578.39453 1.51953.44922 1.69532.71875 2.14453.80469 1.60547-.71875 1.42968-.80469 1.16016-1.07813 1.25-.44921 3.03516-.71875 1.875-.35938 2.14453-1.34765 2.23437-1.25391 2.5-1.25781 1.69531-.44922 1.78516-.17969 1.16016-.26953.625.53906 1.33984-.26953.71485-.98828.98437-1.34375.44531-.17969.80469-.35937 1.875-.53907 1.78516-.44921 1.25-.26954 1.16015-.08984 1.69922-.08984 1.96094-.26954 1.25-.08984h.53906l.625-.08984h.89063l2.14453-.17969 2.41015-.17969 2.58985-.08984 1.69531.17969 1.60938.08984 1.42968.35938 1.16016.71875 1.875.98828 1.16015 1.52734.26563.71484.6289.08985.35548.89844.53515.53906.53516 1.52734 1.07422.35938h.53515l-.80469.53515.08985 1.70703.71484 2.69532.89063.80468.89453.98829.71484 1.2578 1.78516.53907 1.51953-.17969.35547 1.34375 1.60937-.80469.98047-.53906.26953.26953.31641-.21484.21875-.14453.80078.44922.44922-.35938h.35547l.53515-.26953.53907-.71875.53515-.26953.625-.98828 1.16016.44922.83984.3711 1.39454.61718 1.6953-.17969h1.60548l1.78515.08985.17969-1.70704.53516-1.34375.80468.26954.4922.84765.40233.40625-.08984.53906v.35938l.71485.44922.71093-.26953h1.42969l.35938.98828.4453 1.25781.71485 1.34375 1.25.6289 1.69531.62891.71485-.17969.17969-.53906.98046-.08984.44922.35937.08594 1.25782-.26563.6289-.53515.17969v.53906l.71484.98438.26563.53906.98437.98828.80078 1.07813-.26562.35937-.08985.89844-.625 2.33203-.35546 2.0664-.08985 1.79298-.17969.71875-.08984.53906v1.4375l-.98047 1.88281-.35937 1.70703-.53516.89844-.80469 1.16797-.26562.53906 2.05469 1.2539.08593.35938-.35546.53906-.08985-.17968v.80859l.08985 1.4375-.44532.71484-1.07422.09375-.26562.71485.53515.89844.8047.71875 1.16015.80859 1.33984.26953.44531.35938-.35546.44921-1.78907-.08984-1.25-.44922-.71484-.71875-.625-.08984-.17578 3.58984-.1875 1.3086h89.35937V311.70313h-55.26953v49.08203l.76172.125 3.28906.54296 2.02344 2.83594v2.7539l2.35156.33204 2.34766.33203h4.05078l-1.3789 4.16016-2.02344.70703-2.02344.70312-.54297.34375-2.59375 1.6172-.1875.11718-2.02344-2.07813-.73046-2.74218-2.67188-2.07813-1.375-3.5-.0664-.08203-1.95704-2.67188 2.75-1.41796v-49.08204H294.42187v91.41407l.1172.03125.1328.01172.07422.07421.10547.04688.08985.0586.08593.05859.08985.0586.29687.29687.0586.08984.03125.11719.02734.11719.01563.13671-.03125.1172-.0586.08983-.0586.08594-.04296.10547-.04688.10156-.02734.1211v.14453l.17578.26953.14844.14844.07422.08594.07422.07421.04296.10547.0625.08985.0586.08593.04297.10547.0586.08985.04687.10156.04296.10547.0586.08594.11719.17968.07421.07422.0625.08594.0586.08984.04297.10547.0586.08985.05858.08593.0625.08985.0586.08984.04297.10156.11719.17969.07421.07422.0586.08594.07422.07421.08984.0586.10547.04687h.14844l.1328-.01562.13282.01562.10156-.04687.07422-.07422.04688-.10156-.01563-.13281v-.14844l-.04687-.10547-.02735-.11719-.04687-.10156-.02735-.1211-.04296-.10156-.0625-.08984-.04297-.10156-.04297-.10547-.03125-.11719-.01563-.13281-.01171-.13672.08593-.0586.0586-.08593.12109-.03125.04297.10547.01562.1328v.1172l.0586.10156.0586.08984.08983.0586.14844.14843.0586.08985.04296.10547-.01171.10156.08593.0586.10547.04687.08594.0586.08984.05858.07422.07422-.11719.02735-.10546.04687-.08594.0586-.07422.07421-.0586.08985-.0625.08594-.02734.12109-.04687.10156-.04297.10547-.03125.11719-.01172.13281-.01563.13281v.14844l.02735.11719.04687.10547.04297.10156.0586.08984.07421.07422.08985.0586.07422.07421.08984.0586.0586.08984.04296.10547.04688.10156.11719.03125.1328.01563h.14845l.11718-.03125.10547.04297.04297.10547.04688.10156.02734.1211L299.5 410l.02734.11719.03125.1211.02735.11718.10547.04297.10156.04687.13281-.01562.14844.14844.0625.08593.07422.07422.07031.07422.08984.0625.10547.04297.10156.04297.1172.03125.13671.01562.11719-.03125.07422-.07422.02734-.11718-.01172-.13282-.03125-.12109-.02734-.11719.04297-.10547h.11719l.08984.0625.11719.02735h.14843l.13282.01562h.14843l.13282.01563.1328-.01563h.14845l.1328-.01562.13282-.01172.13672.01172.11719-.02735.13281-.01562.1914-.0586-.05859.17579-.01562.1328-.02735.1211-.01562.13281-.0586.08594-.1328.01563-.10548.04687-.10546.04297-.1172.03125-.11718.02735-.26563.03125h-.14843l-.13281.01562-.07422.07422.05859.08594.14844.14843.11719.1797.07421.0703.08985.0625.08984.0586.08594.0586.08984.05858.10156.04297.10547.0625.10547.04297.08594.0586.10547.04687.10156.04297.17969.11719.0586.08984-.04298.10156-.04687.10547.01562.13281.22266.22266.0586.08985.04296.10156.03125.1211.04297.10155.01563.13282.03125.11718.01171.13672.03125.11719.14844.14844.10156.04297.10547.04296.1172.03125.1328.01563.13672.01563h.11719l.11719-.03125.08984-.0586.04297-.10547.04688-.10156.04296-.10547.03125-.11719.01172-.1328v-.14845l-.01172-.1328-.01562-.13282-.03125-.11719-.04297-.10547-.04688-.10547-.04296-.10156-.04297-.10547-.01563-.13281.01563-.13281.02734-.11719.03125-.11719.02735-.1211.04687-.10155.08984-.0586.08594-.0625.07422-.07422.08984-.05859.22266-.22266.0586-.08593.07421-.07422.11719-.17969.0586-.08594v-.14844l-.07423-.07421-.10156-.04688-.10547-.04297-.10156-.04297-.0586-.08984-.04687-.10547-.02734-.11719.08984-.05859.11719-.03125.10156-.04297.17969-.11719.14844-.14843.01172-.13282-.01172-.10546-.08985-.0586-.1328.01563h-.14845l-.1328.01562-.13282-.01562-.1211-.03125-.08593-.0586-.07422-.07422-.0586-.08984-.0625-.08594-.11718-.17969-.0586-.08593.03125-.1211.08594-.05859.1211-.03125.05859-.08594v-.1211l-.03125-.11718-.0586-.08984-.05859-.08594-.04687-.10547-.02735-.11719-.01562-.1328.0586-.08985.07421-.07422.08984-.0586.1172-.17968.07421-.07422.0586-.08594.14843-.14844.1211-.03125.1328-.01562.13282.01562.07422.07422.04297.10547.01562.13281-.03125.1172-.11719.03124-.1328.01172-.14844.14844-.04297.10547-.04688.10156-.02734.1211-.03125.11718v.14844l.03125.11719.04297.10546.05859.08985.07422.07031.07422.07422.11719.03125.12109.02734.11719-.02734.1328-.01563h.1172l.08984.0586.07422.07422.04687.10546.0586.08594.10156.04688.13281.01562.10547.04297.08594.0586-.01172.10546-.07422.07422-.17969.11719-.05859.08984-.08984.0586-.07032.07422-.07421.07421-.0625.08985-.02735.11719-.01562.1328.01562.13282-.01562.13281v.14844l.01562.13281.02735.1172.03125.12108.07421.07422.08985.0586.08594.0586.08984.05858.11719.03125v.08594l-.10157.04688-.08984.0586-.26563.03124-.11718.02735h-.14844l-.10547.04296-.10156.04688-.0586.08984-.0625.23438-.01171.13281-.03125.1211-.01563.1328v.29298l-.01172.1328.01172.13673.01563.1328.1328.01563.13282.01172.1211.03125.08593.0586.07422.07421.04688.10547.04296.10157.01563.1328v.44532l-.01563.13281v.44532l.03125.26562.02735.11719.01562.13281.03125.11719.08594.21094.03125.26562v.14844l-.03125.11719-.02734.11718-.03125.1211-.02735.11719-.03125.11718-.03125.1211-.01171.1328-.01563.13282.08984.0586.1172-.03125.10155.01562.04688.10547-.03125.26562v.44141l-.04297.10547-.04688.10547-.04296.10156-.04297.10547-.0586.08594-.03125.12109-.04296.11719-.03125.11719-.01563.1328.01563.13282.05859.08984.10547.04688.08594.0586.05859.08593-.01172.13672-.03125.11719-.04297.10156v.44531l-.01562.13281v.14844l-.03125.11719-.04297.10547-.02735.11719-.04687.10546-.04297.10157-.03125.12109-.02734.11719-.03125.13281-.03125.11719-.02735.11719-.04297.10546-.03125.1172-.03125.12108-.01171.13282-.01563.13281v.29688l.02734.11718v.14844l.04688.39844.02734.11719.0586.08984.12109.03125h.14844l.13281-.01563.0586.08985v.11719l-.0586.08984-.08984.0586-.10157.04296-.10546.04688-.08985.05859-.08594.0586-.13671.01562-.1172-.03125-.1328-.01563-.10157.04688-.0625.08594-.01172.13671-.01562.13282-.03125.11719-.02735.11718-.01562.13281-.03125.1211v.29687l.01563.13282.03125.11718v.14844l.01171.13281v.14844l-.02734.11719-.04688.10156-.02734.1211-.03125.11718-.0586.08985-.07421.07421-.10156.04297-.10547.04688-.11719.02734-.1211.03125-.10156-.04687.0586-.08594.10547-.04688.02734-.11718.03125-.11719.02734-.1211.03125-.11718v-.14844l.01563-.13281-.03125-.11719-.04297-.10547-.10547.01563-.07422.07422-.10156.04296-.08984.0625-.07422.07422-.04297.10157-.01563.1328-.03125.1172L304.25 426l-.03125.11719-.02734.11719-.03125.12109-.02735.11719-.03125.11718-.04297.10547-.08984.0586h-.08984l-.1172-.03125-.03124-.08594.01562-.13672-.03125-.11719v-.14844l-.01171-.1328v-.14844l-.0625-.23438-.02735-.1211-.04297-.10156-.04687-.10546-.0586-.08594-.05859-.08985-.04297-.10546-.0625-.08594-.14844-.14844-.0703-.07422-.10548-.04687-.10547-.04297-.10156-.04297-.29687-.29688-.08985-.07421-.08594-.0586-.10546-.04297-.08985-.0625-.08594-.0586-.10546-.04296-.08985-.0586-.08594-.0625-.07421-.0703-.10547-.04688-.08594-.0586-.10547-.04296-.08984-.0625-.10156-.04297-.10547-.04297-.08594-.0586-.10547-.04687-.10547-.04297-.10156-.04687-.08985-.0586-.10156-.04297-.10547-.04296-.08984-.0625-.11719-.02735-.13281-.01562-.13281.01562H299.75l-.13281.01563-.11719-.03125-.08984-.0586-.07422-.07422-.08985-.05859-.10156-.04688h-.14844l-.12109-.02734-.10156-.04297-.07422-.07422-.11719-.17968-.08984-.0586-.10156-.04297-.08985-.0625-.10547-.04296-.08984-.0586-.08594-.0586-.10547-.04687-.0586-.08594-.05858-.08984-.04297-.10547-.04688-.10156-.07422-.07422-.08594-.0586-.07421-.07421-.08985-.0586-.22265-.22265-.04297-.10547-.03125-.26563.10547-.04296h.14453l.10547.04296.07421.07422.08985.0586.08594.0586.10546.04687.08985.05859.14844.14844.0703.07422.14845.14843.0625.08594.07421.07422.08594.0586.07422.07421.08985.0625.08984.0586.08594.05859.26953.17578.10156.04688.10547.04296.10156.04297.04688-.07421.05859-.08594.07422-.07422.07031-.07422.10547.04297.07422.07422.0586.08984.04296.10156.04688.10547.04296.10547.1211.02735.11719-.02735.07421-.08984.04297-.10547.0586-.08985.07422-.07421.10546-.04297.1172-.02735.1328.01172.08985.0586.14844.14843.05859.08985.04297.10547.04687.10156.04297.10547.04297.10156.10547.04688.10547.04296.13281.01563.08594-.0586.0586-.08984.07421-.07422.10547-.04297.11719.02735.10547.04687.10156.04297.10547.04297.10156.04688.17969.11718v.11719l-.01563.13281.01563.13281.01562.13672.0586.08594.10156.04688.1211.02734.11718.03125h.14844l.11719-.03125.05859-.08984.17969-.1172.05859-.08983.07422-.07422.0586-.08594.11718-.17969.17969-.11719.11719.03125.08984.0586.04297.07422-.01563.1328v.1172l.08985.05859h.14843l.13282-.01563.1328-.01171.26563-.03125.10547-.04297.11719-.03125.1211-.02735.07421-.07421.07031-.07422.0625-.08985-.01562-.10547-.04688-.10156-.10156-.04297-.10547-.01562-.11718.02734-.26563.03125h-.14844l-.07421-.07422-.08985-.0586-.11719-.03124-.11718-.02735-.13282-.01562h-.14843l-.13282.01563h-.29687l-.10547-.04688-.14844-.14844-.04297-.10156-.05859-.08984.22266-.22266.08593-.0586.10547-.04296.11719-.03125.13281-.01563.13281.01563.13672.01562.10157.04297.1328-.01172.08985-.0625.10156-.04297.0625-.08984-.04687-.10156-.08984-.0586-.1172-.03125-.10155-.04296-.0586-.08985-.0625-.08984v-.11719l.01563-.13281.10547-.04688.07421-.07031v-.1211l-.08984-.05859-.03125-.11719.08985-.05859.07421-.07422.04297-.10547.0586-.08984.04687-.10156.01563-.13281v-.14844l-.04688-.10547-.04297-.10156-.08984-.0586-.13281-.01562-.10157-.04297-.13671-.01563-.1172-.03125h-.4453l-.13282-.01562-.13281-.01172-.13281-.01563-.11719-.03125h-.14844l-.13281-.01562-.13281-.01172-.26563-.03125-.1211-.04297-.08593-.0586-.07422-.07421v-.14844l.01172-.13281.10547-.04688.10156-.04296.13281-.01563h.15235l.13281-.01562h.29297l.1211.03125.10156.04296.08984.0586.23438.0625.12109-.04688.08984-.05859.10156-.04297.13282-.01562.10547.04296.10156.04688.13281.01172.1211-.02735h.14453l.12109-.03125.11719-.02734.10547-.04687.07421-.07422.08594-.0586.14844-.14843.0586-.08594.04687-.10547.02734-.11719.01563-.10547-.10156-.04296-.08985-.0586-.11719-.03125-.10546-.04297-.08985-.0625-.07422-.08594-.07422-.07421-.10156-.04297-.10547-.04688-.10156-.04297-.0586-.08984-.04687-.10156-.08594-.21094-.0625-.08594-.05859-.08984-.07422-.07422-.08594-.0586h-.26953l-.11719.03126-.08984.05859-.10156.04297-.13281.01562-.10547-.01562-.02735-.11719-.0625-.08984-.11718-.03125-.10157-.04297-.14843-.14844-.03125-.11719-.01563-.10546.07422-.07422.17969-.1172.11719-.02733.11718-.03125.13672.01562.10156.04297.10547.04297.10156.04687.10547.04297.1172.03125.1328.01563.1172.02734.1328.01563.10547-.01563.08985-.0586-.07422-.07421-.10547-.04297-.07422-.07422-.07422-.08984-.14844-.14844-.08593-.0586-.08985-.05859-.07422-.07422-.08984-.0586-.10156-.04687-.1211-.02734-.10156-.04688-.10547-.04296-.11719-.03125-.10156-.04297-.1211-.03125h-.14843l-.11719.03125-.10546.04297-.08594.0625-.17969.11718-.08594.0586-.08984.0586-.10547.04687-.08594.05859-.10547.04297-.10156.04297-.10547.04687-.07422.07422-.05859.08985-.0586.08593-.04687.10547-.0586.08594-.07421.07422-.13281-.01172-.1172-.03125h-.11718l-.07422.07422-.08984.0586-.07422.07421-.08984.0586-.08594.05859-.10547.04687-.10156.04297-.13672.01563-.10156-.04297-.14844-.14844-.10547-.04688h-.08594l-.10547.04688-.10156.04297-.1211.03125-.11718-.03125-.07422-.07422v-.11719l.03125-.1211.07422-.0703.0586-.08985.07421-.07422.11719-.03125.10547-.04296h.29297l.13281-.01563.13672-.01563.10156-.04296.08985-.0586.10156-.04687.08984-.0586.13281-.01171.08985.05859.13281.01172.08984-.0586.08594-.05859.10547-.04297.08984-.0586.08594-.0625.08985-.05859.14843-.14843.0586-.08594.05859-.08985.10547-.04296.13281-.01563.11719.02735.1211.03125.05859-.0586.05859-.08984.03125-.26563.02734-.11719.10547.01172.13281.01563.10157-.04297.08984-.0586.0586-.08984.07421-.07422.0586-.08984.04687-.10156.01172-.13281-.01172-.13282-.04687-.10547-.14844-.14843-.0586-.08985-.05859-.08594-.04297-.10546v-.44532l.01563-.1328v-.14845l.01172-.1328-.0586-.0586-.08984.0586-.10156-.04298-.17969-.11719-.08594-.05859-.0625-.08984-.0586-.08985-.07421-.07421-.08594-.0586-.1211.03125-.10155.01172-.10547.04688-.08594.05859-.10547.04297-.14844.14844-.08984.05859-.08594.0586-.08984.0625-.10547.04296-.13281.01563v-.1211l.10547-.04297.11718-.03125.07422-.0703.04297-.10548v-.14844l-.02734-.11718-.14844-.14844-.13281-.01563h-.14844l-.11719.03125-.10547.04297-.10156.04297-.08984.0625-.11719.02735-.07422-.07422.01172-.13281-.04297-.10157-.04297-.10547-.08984-.05859-.11719.02734-.1211.03125-.11718.03125-.10156.04297-.1211.03125-.10156.04297-.10547.04297-.08984.0586-.10156.01562v-.11719l.01562-.13281-.0586-.08985-.07421.04297-.14844.14844-.0586.08985-.07421.07421-.04688.10547-.04296.10156-.07422.07422-.0586.08985-.07422.07422-.05859.08593-.07422.07422-.08984.0625-.07422.07031-.07422.07422-.10156.01563-.13281.01562-.10547-.04296v-.1211l.14843-.14844.04297-.10156.0586-.08984.04687-.10156.04297-.10547.0586-.08985.03124-.11719.04297-.10156.03125-.1211.02735-.11718.04687-.10547.04297-.10156.04297-.10547.07422-.07031.08984-.0625.08985-.0586.10156-.04296h.29687l.26563-.03125.10547-.04297-.07422-.07422-.11719-.03125-.10547-.04297-.08984-.0586-.10156-.04687-.08985-.0586-.10156-.04296-.10547-.04297-.08984-.0625-.08594-.0586-.10547-.04296-.10156-.04297-.1211-.03125-.11718-.03125-.10157-.04297L297.5 410.25l-.10156-.04297-.08985-.0586-.04296-.10546-.01563-.13281.10156-.04297.13281-.01563.13672.01563.13282-.01563.10156-.04297.0586-.08984.01562-.10547-.08985-.0586-.07421-.07421-.10157-.04297-.08984-.0586-.14844-.14843-.04297-.10547-.01562-.13281v-.29297l-.0586-.08985-.08984-.05859-.07422-.07422-.04297-.10547-.03125-.11718-.0586-.08985-.07421-.07422-.11719-.02734-.07422-.07422-.08984-.0586-.08984-.0625-.08594-.05859-.07422-.07421-.0586-.08594-.04687-.10547-.08594-.0586-.14843-.14843-.19532-.0586-.1328.01563-.10157.04297-.07422.07422-.04688.10156-.04296.10547-.0586.08984-.0586.08594-.29687.29687-.08984.0586h-.08594l-.0625-.08594-.04297-.10547.03125-.11719.0586-.08984.02734-.11719-.01172-.13281-.08984-.0625-.10547.04688-.11719.02734-.11719.03125-.26953.17578-.10156.04688-.11719.02734-.10546.04687-.08985.0586-.10156.04297-.0586-.08594-.04687-.10547.01563-.13281.04687-.10547.07031-.07422.07422-.07031.0586-.08985v-.14843l-.04297-.10547h-.23829l-.10156.04687-.03125.11719-.02734.11719-.03125.1211-.07422.04296-.13281.01563-.07422-.04688-.04297-.10156-.04297-.10547-.04687-.10156-.04297-.10547-.1211.03125-.10156.04297-.13281.01562-.11719.03125-.10547.04297-.08984.0586-.10156.04687-.1211.02734-.13281.01563-.10156-.04297-.0586-.08985-.04687-.10546-.04297-.10157-.04297-.10546v-.1172l.0586-.08984.08593-.05859.17969-.11719.10156-.04687.10547-.04297.10547-.0586.10156-.04296.08985-.0625.10156-.04297.10547-.0586.10156-.04687.08984-.0586.10547-.04296.10156-.04297.08985-.0625.10156-.04297.13672-.01563.11719.03125.10156.04297.1211.03125.10156.04297.10546.04688.10157.04296.10547.04297.10156.04688.10547.04297.10156.04297.10547.04687.08594.0586.10546.04296.1172.03125.10546.04297.10156.04688.08985.0586.10547.04296.10156.04297.10547.04687.11719.02735.10156.04687.1211.02735h.14843l.08594-.0586.01562-.10156.0586-.08984-.02735-.1172-.07422-.07421-.11719-.17969-.07421-.07422-.08985-.07421-.17969-.1172-.08593-.05859-.10547-.04296-.10156-.04688-.26954-.17578-.05859-.08985-.07422-.07421-.0586-.08985-.04296-.10156-.03125-.11719-.01563-.13672v-.5625l-.01171-.1328-.01563-.13282-.03125-.11719-.01562-.13281-.01172-.13281-.03125-.1211-.22266-.22265-.0586-.08594-.01562-.10547.03125-.11719.13281-.01562v-91.41406H172.9922v1.45312l-.0586.23438-.35156 1.05078-.17187.52343-.1172.34766-.17577.41016-.11719.17187-.23438.29297-.23046.0586h-.35157l-.11718.05859-.23047.40625v.29297l.11719.17578.23046.23047.1172.23437.64062.75781.29297.46485.17578.23437.23047.35156.23437.34766.64063.8164.17578.46485.17187.41016.11719.69531.17578.46875.11719 1.39844.0586.46484v.875l.11718 1.04688v4.78125l-.0586.46484-.35156 1.28125-.17578.52344-.11328.41015-.35156.9297L172.93359 336l-.23437.58203-.11719.17578-.17187.34766-.17578.40625-.35157.8164-.0586.29297-.11327.29297-.11719.28906-.0586.17579-.11718.875-.0586.40625-.05859.11718-.0586.17579-.05859.17187-.23047.52734-.11718.17188v.23437l-.11719.23438-.0586.17187-.17577.58594v.28906l-.0586.17579v.29296l-.0586.11329-.05859.52734v.17187l-.05468.23438v2.6211l-.17578.8164-.1172.17578-.17577.23438-.1172.17187-.11327.23438-.58594.93359-.23047.28906-.29297.46485-.17578.23437-.28906.35156-.35156.69922-.11328.23047-.17579.41016-.17578.23046-.40625.52735-.8164.69922-.29297.17187-.28906.23438-.17579.11719-.17578.17578-.52344.40625-.52734.17578-.17187.17578-.23438.05469-.64062.17578h-.75782m12.21094 31.02344l-1.07422.44921.35938.89454 1.25-.71485.44531-.53906-.98047-.08985"/><path fill="#d3d3d3" fill-opacity="0" fill-rule="evenodd" d="M201.50781 416.59766h-.89453l.44922.6289.98047.35938.80469-.08985.4453-.98828-.17577.08985-.71485-.35547-.89453.35547m154.6211 59.0703l-.0586-.52343v-.29297l.11328-.29297.0586-.23046.46875-.46875h.11328l.11719-.11329.11718-.05859h.17579l.23437-.0586h.34766l.23437.0586.11719.0586.23047.17187.0586.17578.11718.58203v.29297l-.11719.17578-.17187.28906-.17579.17579-.52734.52343-.23047.23438-.11719.0586h-.17578l-.11718-.0586-.40625-.29297-.17579-.11719-.11718-.0586-.0586-.11327-.05468-.1172m6.64062-10.95702l-.0586-.17188v-1.10937l.0586-.17188.17578-.0586.17188-.05858h.17578l.23437-.0586.1172.0586.05858.69921-.05859.17188-.11719.17578-.11718.0586-.23438.52343-.11328.0586h-.23438l-.05859-.1172m9.61328-14.39062l-.11719-.17578v-.69922l.29297-.875.1172-.17187.17577-.35156.11328-.23047.1172-.29297.35155-.75781.1172-.23047.17187-.23438h.17578l.11719-.0586h.64062l.11719.0586.23437.23438.17188.11328.35156.29297.11719.11718.11328.17579v.11328l.11719.05859.11718.11719v.69922l-.05859.17578v.23047l-.0586.17578-.34765 1.05078-.11719.23047-.11719.23437-.11718.0586-.23047.23437-.64063.28906h-.875l-.41015-.11718-.64063-.46485"/><path fill="none" stroke="#bebebe" stroke-linecap="round" stroke-linejoin="round" stroke-miterlimit="10" stroke-width=".5" d="M467.95703 311.69531H144.02734v168.625h323.9297v-168.625"/><g clip-path="url(#a)"><path fill="#fff" fill-opacity="0" fill-rule="evenodd" d="M144 475.89063v4.4375h.0039H144V311.67188h.0039H144v164.21875"/></g><g clip-path="url(#b)"><path fill="#fff" fill-opacity="0" fill-rule="evenodd" d="M144.0039 480.32813V311.67188h17.75v132.46484l-.43359.6836.4336 1.97656v14.21484l-1.57032 1.5625 1.57032 1.57422 4.4375-1 1.1914-.57422-1.1914-.5664-4.4375-.9961v-14.21485l4.01953-1.97656-4.01953-.6836V311.67189h13.3125V462.3125l-.45703.26172.45703.20703.65234-.20703-.65234-.26172V311.67187h292.92968v168.65625H144.00391"/></g><path fill="#50fcfc" fill-rule="evenodd" d="M161.7539 464.14844l-1.5703-1.57422 1.5703-1.5625 4.4375.9961 1.19141.5664-1.1914.57422-4.4375 1m0-17.35156l-.4336-1.97657.4336-.6836 4.01953.6836-4.01953 1.97656m13.3125 15.98438l-.45703-.20703.45703-.26172.65234.26172-.65234.20703"/><g clip-path="url(#c)"><path fill="#fff" fill-opacity="0" fill-rule="evenodd" d="M467.9961 480.32813H468V311.67188h-.0039H468v168.65625h-.0039"/></g><g clip-path="url(#d)"><path fill="none" stroke="#000" stroke-linecap="round" stroke-linejoin="round" stroke-miterlimit="10" stroke-width=".5" d="M147.4961 480.66797l-6.9922-.67578"/></g><g clip-path="url(#e)"><path fill="none" stroke="#000" stroke-linecap="round" stroke-linejoin="round" stroke-miterlimit="10" stroke-width=".5" d="M147.4961 480.66797l.9414 2.26562"/></g><g clip-path="url(#f)"><path fill="none" stroke="#000" stroke-linecap="round" stroke-linejoin="round" stroke-miterlimit="10" stroke-width=".5" d="M160.73828 481.125l-6.84375-1.58984"/></g><g clip-path="url(#g)"><path fill="none" stroke="#000" stroke-linecap="round" stroke-linejoin="round" stroke-miterlimit="10" stroke-width=".5" d="M160.73828 481.125l.63281 2.3711"/></g><g clip-path="url(#h)"><path fill="none" stroke="#000" stroke-linecap="round" stroke-linejoin="round" stroke-miterlimit="10" stroke-width=".5" d="M174.14453 480.33594l-7.02734-.01563"/></g><g clip-path="url(#i)"><path fill="none" stroke="#000" stroke-linecap="round" stroke-linejoin="round" stroke-miterlimit="10" stroke-width=".5" d="M174.14453 480.33594l1.14453 2.17187"/></g><g clip-path="url(#j)"><path fill="none" stroke="#000" stroke-linecap="round" stroke-linejoin="round" stroke-miterlimit="10" stroke-width=".5" d="M173.1211 480.33594l.57421 1.08594"/></g><g clip-path="url(#k)"><path fill="none" stroke="#000" stroke-linecap="round" stroke-linejoin="round" stroke-miterlimit="10" stroke-width=".5" d="M187.4414 480l-6.99609.65625"/></g><g clip-path="url(#l)"><path fill="none" stroke="#000" stroke-linecap="round" stroke-linejoin="round" stroke-miterlimit="10" stroke-width=".5" d="M187.4414 480l1.35157 2.04688"/></g><g clip-path="url(#m)"><path fill="none" stroke="#000" stroke-linecap="round" stroke-linejoin="round" stroke-miterlimit="10" stroke-width=".5" d="M186.42578 480.09375l.67578 1.02734"/></g><g clip-path="url(#n)"><path fill="none" stroke="#000" stroke-linecap="round" stroke-linejoin="round" stroke-miterlimit="10" stroke-width=".5" d="M200.71875 479.71484l-6.91797 1.22657"/></g><g clip-path="url(#o)"><path fill="none" stroke="#000" stroke-linecap="round" stroke-linejoin="round" stroke-miterlimit="10" stroke-width=".5" d="M200.71875 479.71484l1.51563 1.9336"/></g><g clip-path="url(#p)"><path fill="none" stroke="#000" stroke-linecap="round" stroke-linejoin="round" stroke-miterlimit="10" stroke-width=".5" d="M199.71484 479.89453l.75391.96485"/></g><g clip-path="url(#q)"><path fill="none" stroke="#000" stroke-linecap="round" stroke-linejoin="round" stroke-miterlimit="10" stroke-width=".5" d="M214.03906 479.73438l-6.92578 1.1914"/></g><g clip-path="url(#r)"><path fill="none" stroke="#000" stroke-linecap="round" stroke-linejoin="round" stroke-miterlimit="10" stroke-width=".5" d="M214.03906 479.73438l1.5 1.9375"/></g><g clip-path="url(#s)"><path fill="none" stroke="#000" stroke-linecap="round" stroke-linejoin="round" stroke-miterlimit="10" stroke-width=".5" d="M213.03125 479.90625l.75.96875"/></g><g clip-path="url(#t)"><path fill="none" stroke="#000" stroke-linecap="round" stroke-linejoin="round" stroke-miterlimit="10" stroke-width=".5" d="M227.33594 479.63672l-6.89063 1.38672"/></g><g clip-path="url(#u)"><path fill="none" stroke="#000" stroke-linecap="round" stroke-linejoin="round" stroke-miterlimit="10" stroke-width=".5" d="M227.33594 479.63672l1.55469 1.89453"/></g><g clip-path="url(#v)"><path fill="none" stroke="#000" stroke-linecap="round" stroke-linejoin="round" stroke-miterlimit="10" stroke-width=".5" d="M226.33203 479.83594l.77734.94922"/></g><g clip-path="url(#w)"><path fill="none" stroke="#000" stroke-linecap="round" stroke-linejoin="round" stroke-miterlimit="10" stroke-width=".5" d="M240.54688 479.23828l-6.6797 2.17969"/></g><g clip-path="url(#x)"><path fill="none" stroke="#000" stroke-linecap="round" stroke-linejoin="round" stroke-miterlimit="10" stroke-width=".5" d="M240.54688 479.23828l1.76562 1.70313"/></g><g clip-path="url(#y)"><path fill="none" stroke="#000" stroke-linecap="round" stroke-linejoin="round" stroke-miterlimit="10" stroke-width=".5" d="M239.57422 479.55469l.88281.85156"/></g><g clip-path="url(#z)"><path fill="none" stroke="#000" stroke-linecap="round" stroke-linejoin="round" stroke-miterlimit="10" stroke-width=".5" d="M253.875 479.28516l-6.71094 2.08593"/></g><g clip-path="url(#A)"><path fill="none" stroke="#000" stroke-linecap="round" stroke-linejoin="round" stroke-miterlimit="10" stroke-width=".5" d="M253.875 479.28516l1.74219 1.72656"/></g><g clip-path="url(#B)"><path fill="none" stroke="#000" stroke-linecap="round" stroke-linejoin="round" stroke-miterlimit="10" stroke-width=".5" d="M267.16797 479.22266L260.5 481.4375"/></g><g clip-path="url(#C)"><path fill="none" stroke="#000" stroke-linecap="round" stroke-linejoin="round" stroke-miterlimit="10" stroke-width=".5" d="M267.16797 479.22266l1.77734 1.6914"/></g><g clip-path="url(#D)"><path fill="none" stroke="#000" stroke-linecap="round" stroke-linejoin="round" stroke-miterlimit="10" stroke-width=".5" d="M280.49219 479.2461l-6.6836 2.16406"/></g><g clip-path="url(#E)"><path fill="none" stroke="#000" stroke-linecap="round" stroke-linejoin="round" stroke-miterlimit="10" stroke-width=".5" d="M280.49219 479.2461l1.76562 1.70702"/></g><g clip-path="url(#F)"><path fill="none" stroke="#000" stroke-linecap="round" stroke-linejoin="round" stroke-miterlimit="10" stroke-width=".5" d="M293.80469 479.23438l-6.67969 2.1875"/></g><g clip-path="url(#G)"><path fill="none" stroke="#000" stroke-linecap="round" stroke-linejoin="round" stroke-miterlimit="10" stroke-width=".5" d="M293.80469 479.23438l1.76953 1.69921"/></g><g clip-path="url(#H)"><path fill="none" stroke="#000" stroke-linecap="round" stroke-linejoin="round" stroke-miterlimit="10" stroke-width=".5" d="M292.83203 479.55469l.88672.84765"/></g><g clip-path="url(#I)"><path fill="none" stroke="#000" stroke-linecap="round" stroke-linejoin="round" stroke-miterlimit="10" stroke-width=".5" d="M307.07422 479.10547l-6.58594 2.44922"/></g><g clip-path="url(#J)"><path fill="none" stroke="#000" stroke-linecap="round" stroke-linejoin="round" stroke-miterlimit="10" stroke-width=".5" d="M307.07422 479.10547l1.83594 1.6289"/></g><g clip-path="url(#K)"><path fill="none" stroke="#000" stroke-linecap="round" stroke-linejoin="round" stroke-miterlimit="10" stroke-width=".5" d="M306.11719 479.46094l.91406.8125"/></g><g clip-path="url(#L)"><path fill="none" stroke="#000" stroke-linecap="round" stroke-linejoin="round" stroke-miterlimit="10" stroke-width=".5" d="M320.34375 478.98828l-6.4961 2.67969"/></g><g clip-path="url(#M)"><path fill="none" stroke="#000" stroke-linecap="round" stroke-linejoin="round" stroke-miterlimit="10" stroke-width=".5" d="M320.34375 478.98828l1.89063 1.5625"/></g><g clip-path="url(#N)"><path fill="none" stroke="#000" stroke-linecap="round" stroke-linejoin="round" stroke-miterlimit="10" stroke-width=".5" d="M333.53906 478.72656l-6.2539 3.20703"/></g><g clip-path="url(#O)"><path fill="none" stroke="#000" stroke-linecap="round" stroke-linejoin="round" stroke-miterlimit="10" stroke-width=".5" d="M333.53906 478.72656l2.01172 1.40235"/></g><g clip-path="url(#P)"><path fill="none" stroke="#000" stroke-linecap="round" stroke-linejoin="round" stroke-miterlimit="10" stroke-width=".5" d="M346.73828 478.52344l-6.02734 3.60937"/></g><g clip-path="url(#Q)"><path fill="none" stroke="#000" stroke-linecap="round" stroke-linejoin="round" stroke-miterlimit="10" stroke-width=".5" d="M346.73828 478.52344l2.10156 1.26562"/></g><g clip-path="url(#R)"><path fill="none" stroke="#000" stroke-linecap="round" stroke-linejoin="round" stroke-miterlimit="10" stroke-width=".5" d="M360.0664 478.54297l-6.05077 3.57422"/></g><g clip-path="url(#S)"><path fill="none" stroke="#000" stroke-linecap="round" stroke-linejoin="round" stroke-miterlimit="10" stroke-width=".5" d="M360.0664 478.54297l2.09376 1.27734"/></g><g clip-path="url(#T)"><path fill="none" stroke="#000" stroke-linecap="round" stroke-linejoin="round" stroke-miterlimit="10" stroke-width=".5" d="M373.1836 478.24219l-5.65626 4.17187"/></g><path fill="none" stroke="#000" stroke-linecap="round" stroke-linejoin="round" stroke-miterlimit="10" stroke-width=".5" d="M373.1836 478.24219l2.21484 1.0625"/><g clip-path="url(#U)"><path fill="none" stroke="#000" stroke-linecap="round" stroke-linejoin="round" stroke-miterlimit="10" stroke-width=".5" d="M386.33203 478.03516l-5.32031 4.58984"/></g><path fill="none" stroke="#000" stroke-linecap="round" stroke-linejoin="round" stroke-miterlimit="10" stroke-width=".5" d="M386.33203 478.03516l2.28516.88672"/><g clip-path="url(#V)"><path fill="none" stroke="#000" stroke-linecap="round" stroke-linejoin="round" stroke-miterlimit="10" stroke-width=".5" d="M399.36328 477.73828l-4.7539 5.17969"/></g><path fill="none" stroke="#000" stroke-linecap="round" stroke-linejoin="round" stroke-miterlimit="10" stroke-width=".5" d="M398.67188 478.49219l1.1875.3086"/><g clip-path="url(#W)"><path fill="none" stroke="#000" stroke-linecap="round" stroke-linejoin="round" stroke-miterlimit="10" stroke-width=".5" d="M412.39453 477.5039l-4.1836 5.64844"/></g><path fill="none" stroke="#000" stroke-linecap="round" stroke-linejoin="round" stroke-miterlimit="10" stroke-width=".5" d="M412.39453 477.5039l2.42578.3672"/><g clip-path="url(#X)"><path fill="none" stroke="#000" stroke-linecap="round" stroke-linejoin="round" stroke-miterlimit="10" stroke-width=".5" d="M425.1914 477.1875l-3.14843 6.28125"/></g><path fill="none" stroke="#000" stroke-linecap="round" stroke-linejoin="round" stroke-miterlimit="10" stroke-width=".5" d="M425.1914 477.1875l2.45313-.0586"/><g clip-path="url(#Y)"><path fill="none" stroke="#000" stroke-linecap="round" stroke-linejoin="round" stroke-miterlimit="10" stroke-width=".5" d="M438.00781 476.98438l-2.15234 6.6875"/></g><path fill="none" stroke="#000" stroke-linecap="round" stroke-linejoin="round" stroke-miterlimit="10" stroke-width=".5" d="M438.00781 476.98438l2.41797-.4336"/><g clip-path="url(#Z)"><path fill="none" stroke="#000" stroke-linecap="round" stroke-linejoin="round" stroke-miterlimit="10" stroke-width=".5" d="M451.05078 476.91016l-1.60937 6.83984"/></g><path fill="none" stroke="#000" stroke-linecap="round" stroke-linejoin="round" stroke-miterlimit="10" stroke-width=".5" d="M451.05078 476.91016l2.3711-.62891"/><g clip-path="url(#aa)"><path fill="none" stroke="#000" stroke-linecap="round" stroke-linejoin="round" stroke-miterlimit="10" stroke-width=".5" d="M464.94531 477.10156l-2.76953 6.45703"/></g><path fill="none" stroke="#000" stroke-linecap="round" stroke-linejoin="round" stroke-miterlimit="10" stroke-width=".5" d="M464.54297 478.03906l1.22265-.10156"/><g clip-path="url(#ab)"><path fill="none" stroke="#000" stroke-linecap="round" stroke-linejoin="round" stroke-miterlimit="10" stroke-width=".5" d="M147.5 466.71875l-7 .58984"/></g><path fill="none" stroke="#000" stroke-linecap="round" stroke-linejoin="round" stroke-miterlimit="10" stroke-width=".5" d="M147.5 466.71875l1.33203 2.0625m-2.35156-1.97656l.66797 1.03125m13.67969-.73828l-7.02735-.16797m7.02734.16797l1.09766 2.1953m12.20313-1.9375l-6.9961-.68358m6.9961.68359l.93359 2.26562m12.38672-2.85156l-7.00781.48828m7.0078-.48828l1.30079 2.08203m-2.32031-2.01172l.64844 1.04297m13.58203-1.75781l-6.80078 1.77734m6.80078-1.77734l1.66015 1.8086m-2.64844-1.54688l1.66016 1.80469m12.625-2.13672l-6.76172 1.91797m6.76172-1.91797l1.69922 1.76953m-2.6836-1.49219l1.69923 1.76953m12.55078-2.19531l-6.66797 2.21484m6.66797-2.21484L229 467.59765m-2.7461-1.37109l1.77735 1.69532m12.41016-2.28125l-6.46875 2.74609m6.46875-2.7461l1.90625 1.54297M239.5 466.03906l1.90625 1.54688m12.15625-2.33203l-6.08203 3.51953m6.08203-3.51953l2.08203 1.29687m-2.96875-.78515l2.08203 1.29687m12.01563-1.98047l-5.875 3.86328m5.875-3.86328l2.15234 1.17969m-3.00781-.61719l2.15234 1.17969m12-1.76563l-5.83984 3.91016m5.83984-3.91016l2.16407 1.16016m-3.01172-.58984l2.16015 1.16015m12.27735-1.24218l-6.38672 2.93359m6.38672-2.9336l1.94922 1.48829m-2.87891-1.0625l.97656.74609m13.2461-1.21875l-6.34375 3.02734m6.34375-3.02734l1.97265 1.45703m-2.89844-1.01562L308 467.39844m11.92188-2.47266l-5.65235 4.17578m5.65235-4.17578l2.21484 1.05469m-3.03906-.44922l2.21484 1.0586m11.94531-1.63672l-5.69531 4.12109m5.69531-4.1211l2.20313 1.08204m-3.03125-.48047l1.10156.53906m12.71094-1.53125l-5.03516 4.90234m5.03516-4.90234l2.33594.75m-3.06641-.03516l1.16797.3711m12.51172-1.41406l-4.30078 5.55859m4.30078-5.5586l2.41797.41797m10.58593-.6328l-3.67578 5.98827m3.67578-5.98828l2.44922.15235m10.57422-.3125l-3.09766 6.30859m2.64844-5.39063l1.22656-.03906m12.19922-1.02344l-2.41797 6.59766m2.41797-6.59766l2.4336-.33593m12.24218 1.23828l-5.14062 4.79297m5.14062-4.79297l2.32032.80078m10.79687-.9961l-4.74219 5.1836m4.7422-5.1836l2.375.61329m-3.06641.14062l1.1875.30469m12.23046-1.49219l-3.5664 6.05078m3.5664-6.05078l2.45313.10547m-2.97266.77344l1.22657.05469m12.74218-.85157l-3.83593 5.88672m3.83593-5.88672l2.44532.21875m-3.00391.63672l1.22266.10938m12.97265-.73047l-4.47656 5.41797"/><g clip-path="url(#ac)"><path fill="none" stroke="#000" stroke-linecap="round" stroke-linejoin="round" stroke-miterlimit="10" stroke-width=".5" d="M465.80078 464.30469l2.40235.49219"/></g><g clip-path="url(#ad)"><path fill="none" stroke="#000" stroke-linecap="round" stroke-linejoin="round" stroke-miterlimit="10" stroke-width=".5" d="M147.51172 453.71094l-7.02344-.02344"/></g><path fill="none" stroke="#000" stroke-linecap="round" stroke-linejoin="round" stroke-miterlimit="10" stroke-width=".5" d="M147.51172 453.71094l1.14844 2.16797m12.16797-2.28907l-7.02344.21875m7.02344-.21875l1.21875 2.12891m-2.2422-2.09766l.60938 1.0625m13.71094-.62109l-6.98828-.72656m6.98828.72656l.92188 2.27344m-1.9375-2.3789l.46093 1.13671m13.88672-1.23828l-7.02344-.3164m7.02344.3164l1.05078 2.21484m-2.07422-2.26172l1.0547 2.21875m13.22655-2.97656l-6.90625 1.29688m6.90625-1.29688l1.53125 1.91797m-2.53906-1.73047l1.53516 1.91797m12.77734-2.14453l-6.89062 1.375m6.89062-1.375l1.55469 1.89844m-2.55469-1.69922l1.55078 1.90234m-2.55469-1.70312l.77735.95312m14.36719-1.94531l-6.53907 2.5625m6.53907-2.5625l1.86328 1.59375m-2.8125-1.22266l1.86328 1.59766m11.83594-2.92969L234.5 455.9375m5.41016-4.48047l2.26953.9336m-3.05469-.28125l2.26953.93359m11.82031-1.59766l-5.39062 4.50781m5.39062-4.5078l2.27344.92187m-3.0586-.26563l2.27345.92188m11.92578-1.45703l-5.58594 4.26562m5.58594-4.26562l2.23047 1.02343m-3.04297-.40234l2.23047 1.02344m11.88671-1.66016l-5.5625 4.29297m5.5625-4.29297l2.23438 1.01172m-3.04688-.38672l2.23828 1.01172m-3.04687-.38672l1.11719.50781m13.98047-1.52343l-5.89063 3.82812m5.89063-3.82812l2.14843 1.1875m-3.0039-.63282l2.14453 1.19141m12.1914-1.46875l-6.21874 3.27344m6.21875-3.27344l2.02734 1.38281m-2.9336-.90625l2.03126 1.3789m11.8203-2.41796l-5.48046 4.39844m5.48047-4.39844l2.2539.96875m-3.05078-.32813l2.2539.96875m-3.05077-.33203l1.125.48438m13.40234-2.16797l-4.71875 5.21094m4.71875-5.21094l2.3789.60156m-3.0664.15625l2.3789.60156m11.57813-1.39843l-4.625 5.28906m4.625-5.28906l2.39063.5586m-3.0625.21093l2.38672.5586m11.02343-1.73829l-3.47265 6.10938m3.47265-6.10938l2.45313.0664m-2.95703.82032l1.22265.03516m11.28125-1.35547l-.84375 6.97656m.84375-6.97656l2.28907-.88282m11.20312.91016l-1.19922 6.92188m1.19922-6.92188l2.33203-.76562m12.60938 1.5078l-4.44922 5.4375m4.44922-5.4375l2.40625.48048m-3.05469.3086l1.20313.24218m13.60937-.01563l-6.14844 3.40625m6.14844-3.40625l2.0586 1.33594m-2.95313-.83984l1.02734.66797m13.03516-1.40625l-5.85156 3.89062m5.85156-3.89062l2.15625 1.16406m-3.00781-.59766l2.16015 1.16406m11.1875-2.59765l-4.21484 5.6211m4.21484-5.6211l2.42578.38281m-3.03906.4375l1.21485.1875m12.97656-.78906l-4.73828 5.1875m4.73828-5.1875l2.375.60937m10.60156-.8828l-4.0625 5.73437"/><g clip-path="url(#ae)"><path fill="none" stroke="#000" stroke-linecap="round" stroke-linejoin="round" stroke-miterlimit="10" stroke-width=".5" d="M465.59375 450.83203l2.4336.3125"/></g><g clip-path="url(#af)"><path fill="none" stroke="#000" stroke-linecap="round" stroke-linejoin="round" stroke-miterlimit="10" stroke-width=".5" d="M147.44531 441.07031l-6.89062-1.375"/></g><path fill="none" stroke="#000" stroke-linecap="round" stroke-linejoin="round" stroke-miterlimit="10" stroke-width=".5" d="M147.44531 441.07031l.70703 2.34766m12.57813-2.21094l-6.83203-1.64844m6.83203 1.64844l.61328 2.375m12.74219-2.55469l-6.91016-1.28515m6.91016 1.28515l.73437 2.33985m-1.74219-2.52735l.3711 1.16797m14-1.39453l-7.01172-.46094m7.01172.46094l1.00781 2.23828m-2.02734-2.30469l1.00781 2.23829m13.29297-2.94141l-6.9414 1.07812m6.9414-1.07812l1.47266 1.96484M199.72266 440l.73437.98437m13.58594-1.15625l-6.9375 1.10938m6.9375-1.10938l1.48047 1.95704m-2.48828-1.79688l.73828.98047m13.44531-1.70703l-6.65625 2.2461m6.65625-2.2461l1.78516 1.6836m-2.75391-1.35938l1.78516 1.6875m12.19922-2.67188l-6.0586 3.5625m6.0586-3.5625l2.08984 1.28125m-2.97266-.76172l2.09375 1.28125m11.98047-1.99609l-5.8086 3.95312m5.8086-3.95312l2.17188 1.14453m-3.01563-.5664l1.08203.5703m13.23438-.89062l-6.125 3.4375m6.125-3.4375l2.0664 1.32422m-2.95703-.82422l2.0664 1.32422m11.96095-2.11328l-5.76954 4.01562m5.76954-4.01562l2.18359 1.1211m-3.02344-.53516l2.1836 1.11718m11.87109-1.83984l-5.5664 4.28906m5.5664-4.28906l2.23438 1.01563m-3.04688-.39063l2.23828 1.01172m11.69922-1.86328l-5.1875 4.74219m5.1875-4.7422l2.3125.82423m-3.0664-.13282l2.30859.82032m11.79687-1.46875l-5.26172 4.65625m5.26172-4.65625l2.30078.85937m-3.0664-.17969l1.14844.4297m13.05859-.96095l-5.51172 4.35938m5.51172-4.35938l2.2461.98438m-3.05079-.34766l2.25.98438m12.27735-.96485l-6.33204 3.04688m6.33204-3.04688l1.98046 1.45313m-2.89843-1.00781l1.97656 1.45312m11.64453-2.78906l-5.10547 4.82812m5.10547-4.82812l2.32422.78125m-3.0664-.07813l2.32421.78125m11.86328-1.33984l-5.36328 4.53906m5.36328-4.53906l2.27735.91016m-3.0586-.25l1.14063.45703m13.77734 1.41015l-7.00781-.51171m7.00781.51171l.99219 2.2422m-2.01172-2.31641l.4961 1.12109m13.60546-2.58203l-6.54297 2.55469m6.54297-2.5547l1.86328 1.60157m-2.8125-1.23047l1.85938 1.60156M413.6289 439.25l-6.65235 2.26562m6.65235-2.26562l1.78906 1.67969m-2.75781-1.35157l1.78906 1.6797m12.11328-2.78516l-5.89453 3.82421m5.89453-3.82421l2.14844 1.1875m-3.0039-.63282l2.14452 1.19141m11.2461-2.60156l-4.33204 5.53125m4.33204-5.53125l2.41796.42968m-3.04687.375l2.41406.4297m11.54297-1.22266l-4.35937 5.51171m4.35937-5.51171l2.41406.4375m-3.04687.36328l1.20703.21875m13.10547-.6914l-5.08594 4.85155"/><g clip-path="url(#ag)"><path fill="none" stroke="#000" stroke-linecap="round" stroke-linejoin="round" stroke-miterlimit="10" stroke-width=".5" d="M466.10547 437.95703l2.32812.77344"/></g><g clip-path="url(#ah)"><path fill="none" stroke="#000" stroke-linecap="round" stroke-linejoin="round" stroke-miterlimit="10" stroke-width=".5" d="M147.36719 428.07813l-6.73438-2.01563"/></g><path fill="none" stroke="#000" stroke-linecap="round" stroke-linejoin="round" stroke-miterlimit="10" stroke-width=".5" d="M146.38672 427.78125l.24219 1.20313m13.76953-.22657l-6.16406-3.3789m6.16406 3.3789l-.03125 2.45313m13.58984-3.01953l-6.65625-2.2461m6.65625 2.2461l.39844 2.42187m-1.36328-2.7461l.19531 1.21095m14.17969-1.20704l-6.84375-1.60546m6.84375 1.60546l.625 2.3711m-1.6211-2.60547l.3125 1.1875m14.04688-1.20313l-6.9414-1.10546m6.9414 1.10546l.79687 2.32032m12.53907-2.48438l-6.98438-.77734m6.98438.77734l.90625 2.28125m12.42968-2.82422l-7.02343.3086m7.02343-.3086l1.2461 2.11328m-2.26953-2.0703l.625 1.05859m13.60937-1.8086l-6.8125 1.72266m6.8125-1.72266l1.64844 1.8164m-2.64063-1.5664l.82422.91016m13.28906-1.71485l-6.42968 2.83204m6.42969-2.83204l1.92968 1.51954m-2.86328-1.10938l.96484.76172m13.28125-1.1836l-6.42187 2.85547m6.42188-2.85546l1.93359 1.5078m-2.8711-1.09374l.96875.7539m13.16016-1.42187l-6.17187 3.36328m6.17187-3.36328l2.04688 1.35156m-2.94532-.85937l2.04688 1.35156m12.0039-2.10938l-5.85156 3.89454m5.85156-3.89454l2.16016 1.16797m-3.01172-.60156l1.08203.58594m12.90625-1.39453l-5.49609 4.3789m5.4961-4.3789l2.2539.97656m-3.05078-.33984l1.125.48828m13.53125-.16797l-6.58203 2.46484m6.58203-2.46484l1.83984 1.625m-2.79687-1.26563l1.83594 1.625m12.51953-1.72656l-6.75 1.94922m6.75-1.94922l1.71093 1.76172m-2.6914-1.47656l.85156.8789m13.5625-.58593l-6.98438.79687m6.98438-.79687l1.38672 2.01953m-2.40625-1.90625l.69531 1.01172m12.97656-2.8086l-5.66015 4.16016m5.66015-4.16016l2.21094 1.0625m-3.03515-.45703l1.10546.53125m13.58594-.00781l-6.76562 1.90234m6.76562-1.90234l1.69531 1.77344m11.64844-1.66797l-6.82031 1.6914m6.82031-1.6914l1.64063 1.82422m-2.63282-1.57813l1.64063 1.82422m12.54687-2.45703l-6.58203 2.46484m6.58203-2.46484l1.83985 1.6211m-2.79688-1.26173l1.83594 1.6211m12.3125-2.26953l-6.33594 3.04296m6.33594-3.04297l1.97656 1.45704m-2.89844-1.01172l1.97657 1.45312m11.71484-2.71484l-5.24219 4.67578m5.2422-4.67578l2.30077.84766m-3.0625-.16797l2.30078.84765m11.51172-1.79297l-4.71484 5.20704m4.71484-5.20704l2.3789.60157m-3.0625.15625l2.37892.60156m11.09375-1.7539l-3.66407 5.99609m3.66406-5.9961l2.44922.14453m-2.98437.72657l1.22656.07422m13.78125.20312l-5.97656 3.69922"/><g clip-path="url(#ai)"><path fill="none" stroke="#000" stroke-linecap="round" stroke-linejoin="round" stroke-miterlimit="10" stroke-width=".5" d="M466.55078 425.21875l2.11719 1.23438"/></g><path fill="none" stroke="#000" stroke-linecap="round" stroke-linejoin="round" stroke-miterlimit="10" stroke-width=".5" d="M465.67969 425.75781l1.0586.61719"/><g clip-path="url(#aj)"><path fill="none" stroke="#000" stroke-linecap="round" stroke-linejoin="round" stroke-miterlimit="10" stroke-width=".5" d="M146.21875 416.47656l-4.4375-5.44531"/></g><path fill="none" stroke="#000" stroke-linecap="round" stroke-linejoin="round" stroke-miterlimit="10" stroke-width=".5" d="M145.57422 415.6836l-.47656 1.1328m14.78515-.66406l-5.13281-4.79687m5.13281 4.79687l-.64062 2.3711m14.58594-3.32032l-6.39844-2.90234m6.39844 2.90234l.15625 2.44922m-1.08594-2.87109l.07812 1.22656m14.47266-1.99219l-7.00781-.52734m7.0078.52734l.98438 2.25m12.25391-3.28515l-6.85547 1.54297m5.85938-1.3164l.80078.92968m13.59765-.33594l-7.02734-.09375m6.0039.07813l.5625 1.09375m13.54298.1289l-6.5625-2.50781m6.5625 2.50781l.30468 2.4336m13.23438-3.44922l-7.01172-.48047m7.01172.48047l1 2.24218m-2.01953-2.3125l.5 1.1211m13.83593-1.10156l-7.01562-.375m7.01562.375l1.03907 2.22265m-2.0586-2.27734l.51953 1.10937m13.80078-1.64453l-6.98437.80078m6.98438-.80078l1.39062 2.02344m-2.41016-1.90625l.69922 1.01172m13.64063-.40625l-6.9961-.64063m6.9961.64063l.95312 2.26172m12.23438-3.57032l-6.74219 1.97657m6.74219-1.97657l1.71484 1.75391m-2.69531-1.46484l.85937.875m13.54688-.65625l-6.96094.96093m6.96094-.96093l1.4375 1.98828m11.83594-2.23047l-6.87891 1.44531m6.8789-1.44531l1.57032 1.88281m11.66406-.1289l-6.71875-2.0625m6.71875 2.0625l.46484 2.41015m12.92579-4.1875l-6.8672 1.49219m6.8672-1.49219l1.58593 1.8711m11.53516-2.48047l-6.48047 2.71093m5.53906-2.3164l.94922.77734m13.3125-1.16015l-6.49219 2.6875m6.4922-2.6875l1.89452 1.5625m-2.83984-1.17188l.94922.78125m13.3086-1.17969l-6.48438 2.70313m6.48437-2.70313l1.89844 1.5547m-2.84375-1.16407l1.89844 1.5586m12.4336-1.76563l-6.62892 2.33593m6.62891-2.33593l1.80469 1.66015m-2.76953-1.3203l1.80468 1.66015m12.25391-2.5l-6.1836 3.33593m6.1836-3.33593l2.04297 1.35937m-2.94531-.875l2.04297 1.35938m12.3203-1.53907l-6.47655 2.72657m6.47656-2.72657l1.90234 1.54688m-2.84375-1.15234l1.90235 1.55078m12.29296-2.07813l-6.35546 2.99219m6.35546-2.99219l1.96485 1.46875m-2.89063-1.03515l.98438.73437m12.82422-1.86328L447.5 415.94531m5.49219-4.38281l2.2539.97656m11.45313-.36328l-6.27735 3.15625"/><g clip-path="url(#ak)"><path fill="none" stroke="#000" stroke-linecap="round" stroke-linejoin="round" stroke-miterlimit="10" stroke-width=".5" d="M466.69922 412.17578l2.0039 1.41797"/></g><g clip-path="url(#al)"><path fill="none" stroke="#000" stroke-linecap="round" stroke-linejoin="round" stroke-miterlimit="10" stroke-width=".5" d="M144.94922 403.82031l-1.89844-6.76562"/></g><g clip-path="url(#am)"><path fill="none" stroke="#000" stroke-linecap="round" stroke-linejoin="round" stroke-miterlimit="10" stroke-width=".5" d="M144.67578 402.83594l-.89062.84765"/></g><path fill="none" stroke="#000" stroke-linecap="round" stroke-linejoin="round" stroke-miterlimit="10" stroke-width=".5" d="M159.04688 403.4961l-3.46485-6.11329m3.46484 6.11328l-1.3164 2.07032m15.35156-2.60938l-4.90234-5.03515m4.90234 5.03515l-.75 2.33594m15.08203-4.29688l-6.9375-1.11718m5.92969.95703l.39453 1.16015m12.90234-4.08203l-4.88671 5.05078m4.17578-4.3164l1.17969.33594m13.70312 2.65625l-6.60156-2.40625m6.60156 2.40625l.34375 2.42968m-1.30469-2.77734l.17188 1.21484m14.14062-.96484l-6.67187-2.21094m6.67187 2.21094l.41016 2.42187m-1.38281-2.74218l.41406 2.41796m13.96094-2.41406l-6.84766-1.57812m6.84766 1.57812l.63672 2.3711m-1.63282-2.60157l.63672 2.3711m13.5664-1.76953l-6.6328-2.31641m6.6328 2.3164l.375 2.42188m-1.33984-2.76172l.1875 1.21485m14.25782-1.55079l-6.96094-.96484m6.96094.96485l.84375 2.30078m12.39843-1.92579l-6.8164-1.71484m6.8164 1.71485l.58985 2.3789m12.8164-2.90625l-6.99609-.66015m6.9961.66015l.9414 2.26563m12.38672-2.60938l-7.02734.02344m7.02734-.02344l1.16016 2.16406m12.14062-2.49218l-6.9961.68359m6.9961-.6836l1.35547 2.04298m11.55469-3.3711l-6.1836 3.33594m6.1836-3.33594l2.04297 1.35938m-2.94532-.875l1.02344.67968m13.41406-.66796l-6.625 2.34375m6.625-2.34375l1.8086 1.66015m10.2539 2.35938l-4.11718-5.69532m3.51562 4.8672l-.53906 1.10155m15.85156-2.48828l-6.91406-1.26172m6.91406 1.26172l.7461 2.33594m12.24609-4.5586l-6.26563 3.1836m6.26563-3.1836l2.00781 1.41016m-2.92187-.94922l2.01171 1.41016m12.55079-.85547l-6.9336 1.14844m6.9336-1.14844l1.48828 1.95313m-2.4961-1.78516l.74219.97656m13.6211-.34375l-7.01172-.45312m7.01171.45312l1.00782 2.23828m12.22265-3.2578l-6.84375 1.58593m6.84375-1.58594l1.61328 1.85156m-2.60937-1.62109l.80469.92578m13.53515-1.02734l-6.90234 1.32812m6.90234-1.32812l1.53907 1.91015m11.72656-2.12109l-6.80469 1.75m6.80469-1.75l1.65625 1.8125m11.4961-2.29688l-6.48048 2.71875"/><g clip-path="url(#an)"><path fill="none" stroke="#000" stroke-linecap="round" stroke-linejoin="round" stroke-miterlimit="10" stroke-width=".5" d="M466.80078 399.07813l1.90235 1.55078"/></g><path fill="none" stroke="#000" stroke-linecap="round" stroke-linejoin="round" stroke-miterlimit="10" stroke-width=".5" d="M465.85938 399.47266l.94921.77734"/><g clip-path="url(#ao)"><path fill="none" stroke="#000" stroke-linecap="round" stroke-linejoin="round" stroke-miterlimit="10" stroke-width=".5" d="M141.84766 389.90234l4.30468-5.55859"/></g><path fill="none" stroke="#000" stroke-linecap="round" stroke-linejoin="round" stroke-miterlimit="10" stroke-width=".5" d="M157.5 390.63281l-.3711-7.01953m.3711 7.01953l-2.10547 1.26172m16.17969-1.38672l-1.89063-6.76953m1.89063 6.76953l-1.77344 1.6914m17.1211-3.20702l-5.95313-3.73828m5.08594 3.1953l-.08985 1.22267m14.8086-2.60547l-7.02735.11328m7.02735-.11328l1.1875 2.14843m-2.21094-2.1328l.59375 1.07421m13.55078.1211l-6.63672-2.3086m6.63672 2.3086l.375 2.42577m-1.33984-2.76171l.375 2.42578m13.78906-1.79688l-6.40625-2.89062m6.40625 2.89062l.15625 2.44531m-1.08984-2.86718l.16015 2.44922m13.84375-1.57813l-5.91797-3.79297m5.91797 3.79297l-.19922 2.44531m-.66406-2.99609l-.09766 1.22266m14.39844-.87891l-6.16015-3.3789m6.16015 3.3789l-.03125 2.45313m13.77344-3.97657l-7.01953-.33203m7.01953.33203l1.05078 2.21485m12.0625-1.19141l-6.61328-2.3789m6.61328 2.3789l.34766 2.42969m13.16406-3.34766l-7.00781-.54297m7.00781.54297l.98047 2.25m12.34375-2.64062l-7.02344.23828m7.02344-.23828l1.22266 2.1289m-2.2461-2.09375l.61328 1.0625m13.64844-1.72265l-6.8711 1.48828m6.8711-1.48828l1.58203 1.875m-2.58203-1.65625l.79297.93359m13.42969-1.49219l-6.6836 2.17188m6.6836-2.17188l1.76562 1.70313M347.1836 386.5l-6.91406 1.25m6.91406-1.25l1.51954 1.92578m11.84375-1.52734l-7.01172.44922m7.01172-.44922l1.28906 2.08594m-2.3086-2.01954l1.28907 2.08594m12.98828-2.60937l-6.89453 1.36328m6.89453-1.36328l1.54687 1.90234m-2.55078-1.70313l1.55078 1.90235m-2.55468-1.70313l.77734.94922m14.4414-1.7461l-6.6875 2.16017m6.6875-2.16016l1.76172 1.70703m-2.73437-1.39453l1.76172 1.70703m12.4961-2.10547l-6.62891 2.33203m6.6289-2.33203l1.80469 1.66406m-2.76953-1.32421l.90234.83203m13.40235-1.10157l-6.6797 2.19141m6.6797-2.1914l1.76953 1.69921m-2.7422-1.3789l.88673.84765m13.4961-.80469l-6.8711 1.46875m6.8711-1.46875l1.58202 1.875m11.8125-1.1875l-7.02734.08985m7.02734-.08985l1.17969 2.15235m12.13281-2.26563l-7.01953.31641m7.01953-.3164l1.2461 2.11327m12.0703-2.0039l-7.02733.09765"/><g clip-path="url(#ap)"><path fill="none" stroke="#000" stroke-linecap="round" stroke-linejoin="round" stroke-miterlimit="10" stroke-width=".5" d="M467.07422 387.07422l1.17969 2.15234"/></g><g clip-path="url(#aq)"><path fill="none" stroke="#000" stroke-linecap="round" stroke-linejoin="round" stroke-miterlimit="10" stroke-width=".5" d="M141.59766 376.3711l4.80468-5.125"/></g><path fill="none" stroke="#000" stroke-linecap="round" stroke-linejoin="round" stroke-miterlimit="10" stroke-width=".5" d="M156.25781 377.16016l2.11719-6.70313m-2.11719 6.70313l-2.41406.4453m16.57813-.28905l.41796-7.01563m-.41797 7.01563l-2.23046 1.01953m2.28906-2.03906l-1.11328.5078m16.21875.10938l-3.28125-6.21484m3.28125 6.21484l-1.3789 2.03125m16.44921-4.23437l-6.79297-1.80469m6.79297 1.80469l.5586 2.39062m11.79687-.76172l-4.8711-5.0664m4.8711 5.0664l-.76563 2.33204m.0547-3.06641l-.38282 1.16406m14.39453-.41797l-4.84375-5.08984m4.84375 5.08984l-.77344 2.32813m.07031-3.0664l-.39062 1.16405m14.78906-.84765l-5.60156-4.24219m5.60156 4.24219l-.39062 2.42187m-.42578-3.03906l-.19532 1.21094m14.5-.84766l-5.95312-3.73437m5.95312 3.73437l-.17578 2.44922m13.91016-3.41797l-6.79297-1.79687m6.79297 1.79687l.5625 2.39063m-1.55078-2.65235l.28125 1.19531m13.92968-.63671l-6.60546-2.39063m6.60546 2.39063l.34766 2.42968m-1.3086-2.77734l.17579 1.21484m14.1875-1.14062l-6.78125-1.84375m6.78125 1.84375l.54297 2.39062m-1.52735-2.66015l.54297 2.39453m13.875-3.21094l-7.01953.32422m7.01953-.32422l1.2539 2.11328m-2.27343-2.0664l1.25 2.11328m12.98828-2.83203l-6.82422 1.66796m6.82422-1.66796l1.63281 1.83203m-2.625-1.58594l1.63282 1.82813m12.63672-2.22266l-6.7461 1.96875m6.7461-1.96875l1.71093 1.75781m-2.6953-1.47265l1.71483 1.7578m12.65625-1.73827l-6.89453 1.35937m6.89453-1.35937l1.55079 1.90234m-2.55079-1.70313l1.54688 1.90235m12.79297-1.96875l-6.9414 1.09375m6.9414-1.09375l1.47656 1.95703M359.5 373.41797l1.47656 1.96094m-2.48437-1.80079l.73828.98047m14.61328-1.17578l-6.97656.85156m6.97656-.85156l1.40625 2.00781m-2.42188-1.88671l1.40625 2.01171m-2.42187-1.88671l1.41016 2.01171M387.08984 373l-6.83593 1.61719M387.08984 373l1.6211 1.83984m-2.61719-1.60546l1.6211 1.84375m-2.61329-1.60938l.8086.92188m14.47656-1.46485l-6.80078 1.76563m6.80078-1.76563l1.66015 1.8086m-2.64843-1.55079l1.65625 1.8086m-2.64844-1.55078l.83203.90234m14.46484-1.41406l-6.80468 1.75781m6.80468-1.75781l1.65625 1.8086m-2.64453-1.5547l1.65625 1.8086m12.69141-1.86719l-6.89063 1.36719m6.89063-1.36719l1.55078 1.89844m-2.55469-1.69922l1.5547 1.89844m12.78515-1.9961l-6.9336 1.16406m6.9336-1.16406l1.49218 1.94531m-2.5039-1.77734l.75.97266m13.60937-.89063l-6.99609.66406m6.9961-.66406l1.35156 2.04688m11.9453-1.25l-6.96484-.92969"/><g clip-path="url(#ar)"><path fill="none" stroke="#000" stroke-linecap="round" stroke-linejoin="round" stroke-miterlimit="10" stroke-width=".5" d="M467.04297 374.27344l.85547 2.30078"/></g><g clip-path="url(#as)"><path fill="none" stroke="#000" stroke-linecap="round" stroke-linejoin="round" stroke-miterlimit="10" stroke-width=".5" d="M141.28125 362.71875l5.4375-4.45313"/></g><path fill="none" stroke="#000" stroke-linecap="round" stroke-linejoin="round" stroke-miterlimit="10" stroke-width=".5" d="M155.58203 363.55078l3.46484-6.11328m-3.46484 6.11328l-2.44922-.0664m2.95313-.82422l-1.22656-.03125m15.42968 1.35937l.67969-6.99219m-.67969 6.9922l-2.26562.9375m2.36719-1.95313l-1.13672.46875m14.78906.5625l-.19531-7.02344m.1953 7.02344l-2.1328 1.21484m2.10547-2.23438l-1.06641.60547m16.42187-.28906l-4.22265-5.61719m4.22265 5.6172l-1.03906 2.22265m14.49219-2.33203l-4.5-5.39844m4.5 5.39844l-.92578 2.27343m.27344-3.05859l-.46485 1.13672m14.30469-.25l-4.24219-5.60156m4.24219 5.60156l-1.03125 2.22656m.41406-3.03906l-.51562 1.11328m14.83203-.63672l-5.01172-4.92578m5.01172 4.92578l-.69531 2.35156m-.03125-3.0703l-.35157 1.17577m14.96485-1.22265l-6.15235-3.39844m6.15235 3.39844l-.03907 2.45312m-.85547-2.94531l-.03906 2.45312m14.47266-2.45312l-6.60156-2.41406m6.60156 2.41406l.33594 2.4336m-1.29688-2.78126l.33594 2.42969m13.97265-2.1836l-6.66796-2.21093m6.66797 2.21094l.41406 2.42187m-1.38281-2.74219l.41015 2.41797m-1.38281-2.73828l.20703 1.20703m15.19531-1.1914l-6.96094-.96094m6.96094.96094l.84375 2.30468m-1.85547-2.4414l.84375 2.30078m-1.85546-2.4414l.42187 1.15234m14.94531-1.54297l-7.01562.375m7.01562-.375l1.26563 2.10156m-2.28516-2.04688l1.26563 2.10157m-2.28907-2.04688l1.26563 2.10156m14.03125-2.6953l-6.89453 1.34374m6.89453-1.34375l1.54687 1.90625m-2.55078-1.71094l1.54688 1.90625m-2.54688-1.71093l.76953.95312m14.46875-1.67187l-6.73437 2.0039m6.73437-2.0039l1.72266 1.7461m-2.70313-1.45704l1.72266 1.75m-2.69922-1.45703l.85938.875m14.4961-1.1211l-6.89845 1.33204m6.89844-1.33204l1.54297 1.90625m-2.54688-1.71484l1.54297 1.91016m-2.54687-1.71485l.76953.95313m14.61328-.84375l-7.01953.33984m7.01953-.33984l1.2539 2.10547m-2.27343-2.0586l1.2539 2.10938m-2.27734-2.0586l1.25781 2.10938m14.08594-2.40625l-6.98828.73438m6.98828-.73438l1.3711 2.03516m-2.39063-1.92579l1.375 2.03125m-2.39062-1.92578l1.37109 2.03516m13.86719-2.82813l-6.76563 1.89454m6.76563-1.89454l1.69531 1.77344m-2.67969-1.5l1.69531 1.77735m-2.67968-1.5l1.6914 1.77343m13.53516-2.51171l-6.65234 2.26562m6.65234-2.26563l1.78906 1.6797m-2.75781-1.35157l1.78906 1.67969m-2.75781-1.34766l.89453.83985M413.67188 359.5l-6.7422 1.98828m6.7422-1.98828l1.71875 1.75m-2.69922-1.46094l1.71875 1.75m12.58203-2.02344l-6.75 1.95704m6.75-1.95704l1.70703 1.75782m-2.6914-1.47266l1.71093 1.75781m-2.6914-1.47265l.85546.8789m14.38281-1.58203l-6.66796 2.22266m6.66796-2.22266l1.77735 1.6914m-2.75-1.36718l1.78125 1.6875m12.51562-1.97656l-6.6875 2.15234m6.6875-2.15234l1.76172 1.71094m-2.73437-1.39844l1.76172 1.71094m12.55078-1.95313L460.1953 361.5"/><g clip-path="url(#at)"><path fill="none" stroke="#000" stroke-linecap="round" stroke-linejoin="round" stroke-miterlimit="10" stroke-width=".5" d="M466.92969 359.48828l1.72265 1.7461"/></g><g clip-path="url(#au)"><path fill="none" stroke="#000" stroke-linecap="round" stroke-linejoin="round" stroke-miterlimit="10" stroke-width=".5" d="M140.52344 347.67578l6.95312-.9961"/></g><path fill="none" stroke="#000" stroke-linecap="round" stroke-linejoin="round" stroke-miterlimit="10" stroke-width=".5" d="M154.89844 349.73047l4.83203-5.10547m-4.83203 5.10547l-2.36328-.65235m3.0664-.08984l-2.36328-.65234m16.57031 2.25781l1.64063-6.83203m-1.64063 6.83203l-2.375.61328m2.61328-1.60547l-2.375.61328m16.0547.46875l.4375-7.01171m-.4375 7.01171l-2.23438 1.01563m2.29687-2.03516l-2.23047 1.01563m16.64844-.11719l-1.89453-6.76953m1.89453 6.76953l-1.77344 1.6914m1.5-2.67577l-.89062.84375m15.64453-.4375l-4.22266-5.61329m4.22266 5.61329l-1.03906 2.22265m.42578-3.03906l-.51953 1.11328m14.5625-.38672l-4.45703-5.4336m4.45703 5.4336l-.9414 2.26563m.29296-3.0547l-.9414 2.26173m15.08984-1.63281l-4.82031-5.11329m4.8203 5.11329l-.78905 2.32421m.08593-3.0664l-.39453 1.16015m15.13281-1.3789l-6.26172-3.1914m6.26172 3.1914l.03907 2.45312m-.95313-2.91797l.04297 2.45313m-.95313-2.91797l.02344 1.22656m15.29688-.71875l-6.625-2.34765m6.625 2.34765l.36328 2.42578m-1.32813-2.76953l.36328 2.42969m-1.32812-2.76953l.1836 1.21484m15.11327-.69531l-6.73046-2.01953m6.73047 2.01953l.48046 2.41016m-1.46093-2.70313l.48046 2.40625m-1.45703-2.69922l.23828 1.20313m15.15625-1.19922l-6.97656-.85547m6.97656.85547l.87891 2.28906m-1.89453-2.41406l.88281 2.28906m-1.89844-2.41406l.44141 1.14453m14.92969-1.1914l-7.02344-.26173m7.02344.26172l1.07031 2.20704m-2.09375-2.2461l1.07031 2.20703m-2.08984-2.24219l1.07031 2.20704m14.28906-2.375l-7.02343.22656m7.02344-.22656l1.21875 2.125m-2.2422-2.09375l1.22266 2.1289m-2.24609-2.09765l1.22266 2.1289m14.0664-2.78906l-6.88281 1.42188m6.88281-1.42188l1.5664 1.88672m-2.5664-1.6836l1.5664 1.89063m-2.5703-1.6836l.78515.94532m14.39063-1.85938l-6.59375 2.42579m6.59375-2.42579l1.82812 1.63672m-2.78906-1.28125l1.83203 1.63672m-2.78906-1.28515l.91406.8164m14.53516-.24219l-7.02735-.13671m7.02735.13671l1.10937 2.19141m-2.13281-2.21094l1.10938 2.1914m-2.13282-2.21093l.55469 1.09375m14.80469-1.21094l-7.02344.17579m7.02344-.17579l1.20703 2.13672m-2.22656-2.10937l1.20312 2.13672m-2.22656-2.11329l1.20703 2.13672m14.01953-3.05859l-6.76172 1.91797m6.76172-1.91797l1.69922 1.76953M386.0664 346.5l1.69923 1.76953m-2.6797-1.49219l1.69923 1.76954M400.25 345.875l-6.52734 2.60547M400.25 345.875l1.8711 1.58594m-2.82032-1.20703l1.8711 1.58593m-2.82032-1.20703l.9336.79297m14.35546-1.33594l-6.67968 2.17579m6.67969-2.17579l1.76953 1.70313m-2.73829-1.38672l1.76563 1.70313m-2.73828-1.38672l.88281.85156m14.33203-1.60547l-6.59765 2.41797m6.59765-2.41797l1.82813 1.64063m-2.78516-1.28907l1.82422 1.64063m-2.78516-1.28906l.91407.8203m14.28125-1.6289l-6.51954 2.6289m6.51954-2.6289l1.8789 1.57813m-2.82812-1.19532l1.8789 1.57813m-2.82812-1.19531l.9414.78906m14.26172-1.57422l-6.5 2.66797m6.5-2.66797l1.89063 1.5664m-2.83594-1.17968l1.89063 1.5664m-2.83594-1.17578l.94531.78125m14.29297-1.47656l-6.5625 2.50781"/><g clip-path="url(#av)"><path fill="none" stroke="#000" stroke-linecap="round" stroke-linejoin="round" stroke-miterlimit="10" stroke-width=".5" d="M466.84375 345.92578l1.84766 1.61328"/></g><path fill="none" stroke="#000" stroke-linecap="round" stroke-linejoin="round" stroke-miterlimit="10" stroke-width=".5" d="M465.89063 346.28906l1.84765 1.61328"/><g clip-path="url(#aw)"><path fill="none" stroke="#000" stroke-linecap="round" stroke-linejoin="round" stroke-miterlimit="10" stroke-width=".5" d="M140.48828 333.76953l7.02344.1875"/></g><path fill="none" stroke="#000" stroke-linecap="round" stroke-linejoin="round" stroke-miterlimit="10" stroke-width=".5" d="M154.17578 335.4414l6.27734-3.15624m-6.27734 3.15625l-2.0039-1.42188m2.91796.96094l-1-.70703m14.8672 2.67969l3.34374-6.1797m-3.34375 6.1797l-2.45312-.01954m2.9414-.8789l-2.45312-.01953m2.9375-.87891l-1.22656-.01172m15.0703 2.22656l.34376-7.01562m-.34375 7.01562l-2.21875 1.04688m2.26953-2.0664l-2.21875 1.04687m16.52344-.1289l-1.73438-6.8125m1.73438 6.8125l-1.81641 1.64843m1.5625-2.64063l-1.8164 1.65235m16.15624-.95703l-3.27734-6.21875m3.27734 6.21875L210.83594 339m.90234-2.9336l-1.3789 2.03126m.90234-2.9336l-.6914 1.01172m15.55077.40235l-4.46093-5.4297m4.46093 5.4297l-.9453 2.26562m.29687-3.05469l-.94532 2.26563m.29688-3.0586l-.47266 1.13282m15.26172.29296l-4.8164-5.11718m4.8164 5.11719l-.78906 2.32421m.08984-3.0703L238.125 338m.08594-3.0664l-.39063 1.16015m15.59766-.2461l-5.79688-3.97265m5.79688 3.97266l-.27344 2.4414m-.57031-3.01953l-.27344 2.4414m-.57031-3.01562l-.13672 1.21875m15.4961-.73047l-6.51173-2.64062m6.51172 2.64062l.25391 2.44141m-1.19922-2.82422l.2539 2.4375m-1.20312-2.82422l.1289 1.22266m15.27345-1.09375l-6.89453-1.35938m6.89453 1.35938l.71093 2.35156m-1.71484-2.54687l.71094 2.34765m-1.71485-2.54687l.35547 1.17187m15.02344-1.21094l-7.00781-.49218m7.00781.49219l1 2.24218m-2.01953-2.3125l1 2.24219m-2.01953-2.3164l.5 1.12109m14.83984-1.65235l-6.97656.85938m6.97656-.85938l1.40625 2.01172m-2.42187-1.88672l1.40625 2.01172m12.9414-1.91406l-7.01172.41406m7.01172-.41406l1.28125 2.09375m-2.30078-2.03516l1.27735 2.09766m12.99609-2.64453l-6.89063 1.39062m6.89063-1.39062l1.5586 1.89844m-2.5625-1.69532l.78124.94922m13.48047-1.39453l-6.77344 1.875m6.77344-1.875l1.6875 1.77735m-2.67578-1.50391l.84766.88672m13.5625.1289l-6.98828-.70312m6.98828.70312l.92968 2.26954m-1.9453-2.3711l.46484 1.13672m13.8828-1.55078l-7.01952.32812m7.01953-.32812l1.25 2.10937m-2.27344-2.0625l1.2539 2.10938m13.04298-2.54297l-6.94141 1.10156m6.9414-1.10156l1.47657 1.96094m-2.48438-1.80078l1.47657 1.96093M400.39453 333l-6.8164 1.72266M400.39453 333l1.64453 1.82031m-2.63672-1.5664l.82422.90625m13.55469-.79297l-6.95703.99219m6.95703-.9922l1.44531 1.98048m-2.46093-1.83594l.72656.98828m13.5586-1.38281l-6.8672 1.49219m6.8672-1.4922l1.58593 1.875m-2.58594-1.65624l1.58594 1.8711m12.4375-2.91407l-6.28516 3.14062m6.28516-3.14062l2 1.42187m-2.91406-.96484l2 1.42188m-2.91407-.96485l1 .71094m14.20313-1.4961l-6.40625 2.88282m6.40625-2.88281l1.9414 1.5m-2.87109-1.08204l1.9375 1.50391m-2.8711-1.08203l1.94141 1.5m13.13282-2.55469l-6.19922 3.3125"/><g clip-path="url(#ax)"><path fill="none" stroke="#000" stroke-linecap="round" stroke-linejoin="round" stroke-miterlimit="10" stroke-width=".5" d="M466.66016 332.20703l2.03906 1.36719"/></g><g clip-path="url(#ay)"><path fill="none" stroke="#000" stroke-linecap="round" stroke-linejoin="round" stroke-miterlimit="10" stroke-width=".5" d="M465.75781 332.6875l2.03906 1.3711"/></g><path fill="none" stroke="#000" stroke-linecap="round" stroke-linejoin="round" stroke-miterlimit="10" stroke-width=".5" d="M464.85547 333.17188l1.01953.68359"/><g clip-path="url(#az)"><path fill="none" stroke="#000" stroke-linecap="round" stroke-linejoin="round" stroke-miterlimit="10" stroke-width=".5" d="M140.78906 321.97656l6.42188-2.85547"/></g><path fill="none" stroke="#000" stroke-linecap="round" stroke-linejoin="round" stroke-miterlimit="10" stroke-width=".5" d="M154.42969 322.55469l5.76953-4.01563m-5.76953 4.01563L152.25 321.4375m16.97656 2.33203l2.8086-6.4414m-2.8086 6.4414l-2.44531.1875m2.85156-1.125l-2.44531.1914m15.9375.94141l1.64063-6.83203m-1.64063 6.83203l-2.375.6172m2.61328-1.61329l-2.375.61719m17.38672.29297l-2.23047-6.66407m2.23047 6.66407l-1.6875 1.78125m1.36328-2.75l-1.6875 1.78125m15.5664-.90235l-2.71093-6.48437m2.71094 6.48437l-1.55469 1.89844m1.16016-2.83984l-1.5547 1.89843m1.16017-2.84375l-1.5547 1.89844m16.03126-.1914l-3.45313-6.1211m3.45313 6.1211l-1.32031 2.0664m.8164-2.95703l-1.32031 2.0664m.82031-2.95702l-.66016 1.03125m15.60938.29296l-4.71484-5.20703m4.71484 5.20703l-.83203 2.3086m.14844-3.0664l-.83594 2.30858m.14844-3.0664l-.41797 1.15234m15.58594-.17187l-5.6797-4.13672m5.6797 4.13672l-.34375 2.42969m-.48047-3.03125l-.34375 2.42968m-.48438-3.03125l-.34375 2.42969m15.71875-1.95313l-6.49219-2.6875m6.4922 2.6875l.23437 2.44141M266.1367 321.5l.23829 2.4414m-1.1836-2.83202l.1211 1.22265m15.30078-1.17578l-6.92187-1.21484m6.92187 1.21484l.75781 2.33203m-1.76562-2.51172l.75781 2.33594m13.59375-3.16406l-6.98047.80078m6.98047-.80078l1.39063 2.01953m-2.40625-1.90625l1.39062 2.02344m12.91016-2.35157l-6.92188 1.22657m6.92188-1.22657l1.51172 1.9336m-2.51953-1.7539l.7539.96483m13.6211-.53125h-7.02735m7.02735 0l1.15234 2.16797m-2.17578-2.16796l.57812 1.08593m13.73828-1.48437l-6.98046.79687m6.98046-.79687l1.39063 2.02344m-2.40625-1.90625l.69531 1.01171m13.65625-.80859l-7.02344.15625m7.02344-.15625l1.19922 2.14063m12.00781-2.92579l-6.8086 1.72657m5.82032-1.47657l.82422.91016m13.17188-1.95703l-6.19532 3.32031m5.29297-2.83594l1.01953.6836m13.1211-1.30469l-6.03907 3.59375m6.03907-3.59375l2.09765 1.27344m-2.97656-.75l1.04688.63672m13.5703-.06641l-6.88671 1.41016m6.88672-1.41016l1.5625 1.89063m8.46875 2.32421l-.32031-7.01953m.27343 5.9961l-1.05468.625m16.48046-5.83204l-4.44921 5.4375m16.66015-6.04687l-2.23828 6.66016m2.23828-6.66016l2.41797-.40625m12.73438 1.83984l-5.91407 3.79297m5.91407-3.79297l2.14062 1.20313m-3-.65235l1.07031.60157m12.91797-1.41797l-5.54297 4.32031"/><g clip-path="url(#aA)"><path fill="none" stroke="#000" stroke-linecap="round" stroke-linejoin="round" stroke-miterlimit="10" stroke-width=".5" d="M466.33203 318.38672l2.24219 1"/></g><g clip-path="url(#aB)"><path fill="none" stroke="#000" stroke-linecap="round" stroke-linejoin="round" stroke-miterlimit="10" stroke-width=".5" d="M465.52734 319.01563l2.23829 1"/></g><path fill="none" stroke="#000" stroke-linecap="round" stroke-linejoin="round" stroke-miterlimit="10" stroke-width=".5" d="M464.71875 319.64453l1.1211.5"/><path fill="#00f" fill-rule="evenodd" d="M157.44531 472.08594h8.61719V461.9414h-8.61719v10.14453"/><path fill="azure" fill-rule="evenodd" d="M159.27734 463.77344h.83203v2.82422h3.28907v-2.82422h.83203v6.48047h-.83203v-2.91797h-3.28906v2.91797h-.83204v-6.48047"/><path fill="#ff3030" fill-rule="evenodd" d="M264.66016 463.21094h7.6914V453.0625h-7.6914v10.14844"/><path fill="azure" fill-rule="evenodd" d="M266.49219 454.89844h.83203v5.73828h3.19531v.74219h-4.02734v-6.48047"/><path fill="#ff3030" fill-rule="evenodd" d="M211.39844 370.0039h7.6914v-10.14452h-7.6914v10.14453"/><path fill="azure" fill-rule="evenodd" d="M213.23047 361.6914h.83594v5.73829h3.1914v.74219h-4.02734v-6.48047"/><path fill="#ffffe0" fill-rule="evenodd" d="M244.10156 444h22.17969v-10.1914h-22.17969V444"/><path fill-rule="evenodd" d="M247.59766 435.64063h.51172v6.29687h-.78907v-4.49219h-1.38672v-.55469l.5586-.0664.2539-.05078.23047-.08985.20313-.14453.17187-.20703.14063-.29687.10547-.39454m4.8164 0l.22656.01954.22266.05468.20703.08985.19531.1211.1836.14843.17187.17578.30078.42188.2461.49218.17969.54688.10937.57812.03906.59375-.03906.58985-.10937.58593-.1797.5547-.24608.5-.30079.42968-.17187.17969-.1836.15234-.1953.125-.20704.08984-.22266.0586-.22656.01953-.23047-.01953-.21875-.0586-.20703-.08984-.19922-.125-.18359-.15234-.17188-.1797-.30078-.42968-.24218-.5-.1797-.55469-.11327-.58593-.03516-.58985h.83203l.02735.5625.08203.5039.125.44532.16406.3711.1914.30078.21094.22265.22266.13672.22656.04688.22656-.04688.22266-.13672.21094-.22265.1914-.30079.16016-.37109.125-.44531.08203-.5039.03125-.5625-.03125-.5625-.08203-.5-.125-.4375-.16016-.36329-.1914-.29297-.21094-.21484-.22266-.13281-.22656-.04297-.22656.04297-.22266.1328-.21093.21485-.19141.29297-.16406.36328-.125.4375-.08203.5-.02735.5625h-.83203l.03516-.59375.11328-.57812.17969-.54688.24218-.49219.30078-.42187.17188-.17578.1836-.14844.19921-.1211.20703-.08984.21875-.05468.23047-.01954m5.08985 0h.51171v6.29688h-.78906v-4.49219h-1.38672v-.55469l.5586-.0664.25-.05078.23047-.08985.20312-.14453.17578-.20703.14063-.29687.10547-.39454m2.82421 2.17579h.78516l.01953-.31641.0625-.28516.09766-.2539.14062-.21485.1797-.17578.22265-.1289.26562-.07813.3086-.02734.23828.01953.22265.0625.20704.10156.17578.14063.15234.17187.10938.20703.07421.23438.02344.26562-.01953.26953-.0664.22266-.10938.1914-.15625.17188-.19922.16406-.25.16407-.63281.39062-.53906.3125-.4375.3164-.34375.32423-.26563.33593-.1914.35157-.125.37109-.06641.39063-.02344.42187h4.21484v-.74219h-3.33203l.08203-.28515.11329-.23438.14843-.20312.1875-.1797.23047-.17187.27735-.17578.71875-.41797.41406-.20312.34765-.23047.27735-.2539.22265-.26563.16407-.27735.10937-.28515.0625-.28516.02344-.28125-.04297-.38281-.1211-.34766-.1875-.30859-.25-.26172-.30468-.21484-.34375-.15625-.38281-.09766-.40625-.03515-.4336.03125-.39844.10156-.35546.16406-.3047.23438-.25.30468-.18358.375-.1172.44531-.03906.51954"/><path fill="#ffffe0" fill-rule="evenodd" d="M164.21094 451.625h22.17969v-10.1914h-22.1797v10.1914"/><path fill-rule="evenodd" d="M167.71094 443.26563h.50781v6.29296h-.78906v-4.48828h-1.38672v-.55469l.5586-.0664.2539-.05469.23047-.08984.20312-.14063.17188-.21094.14062-.29296.10938-.39454m4.8125 0l.23047.01954.21875.05468.20703.08985.19531.1211.1836.14843.17187.17578.30078.41797.2461.4961.17968.54687.10938.57812.03906.58985-.03906.59375-.10938.58593-.17969.55079-.24609.5039-.30078.42578-.17188.17969-.18359.15625-.19531.1211-.20703.09374-.21875.0547-.23047.01952-.23047-.01953-.21875-.05469-.20703-.09375-.19531-.12109-.1875-.15625-.16797-.17969-.3047-.42578-.24218-.5039-.17969-.55079-.11328-.58593-.03515-.59375h.83203l.02734.5625.08203.5078.1289.44142.16017.375.1914.30078.21094.22265.22266.13672.22656.04688.22656-.04688.22266-.13672.21093-.22265.19141-.30079.16016-.375.125-.4414.08203-.50781.03125-.5625-.03125-.5625-.08203-.5-.125-.4336-.16016-.36719-.1914-.29296-.21094-.21094-.22266-.13281-.22656-.04688-.22656.04688-.22266.1328-.21094.21095-.1914.29296-.16016.3672-.1289.43359-.08204.5-.02734.5625h-.83203l.03515-.58985.11328-.57812.1797-.54688.24218-.4961.30469-.41796.16797-.17578.1875-.14844.1953-.1211.20704-.08984.21875-.05468.23047-.01954m5.08984 0h.51172v6.29297h-.78906v-4.48828h-1.38672v-.55469l.5586-.0664.2539-.05469.22656-.08984.20313-.14063.17578-.21094.14062-.29296.10547-.39454m2.82422 2.17579h.78516l.01953-.31641.0625-.28906.09765-.25.14063-.21485.17969-.17578.22265-.1289.26563-.07813.3086-.03125.23827.02344.22266.0625.20703.10156.17578.13672.15234.17578.11329.20313.0703.23828.02345.26562-.01953.26563-.06641.22656-.10938.1914-.15625.17188-.19922.16016-.25.16797-.6328.38671-.53907.31641-.4375.3164-.34375.32423-.26563.33593-.1914.35157-.125.36718-.0664.39454-.02345.41796h4.21485v-.73828h-3.33203l.08203-.28515.11328-.23829.14844-.19921.1875-.1797.23047-.17187.27734-.17578.71875-.41797.41406-.20312.34766-.23438.27734-.25.22266-.26562.16406-.27735.10938-.28515.0625-.28516.02343-.28125-.04297-.38281-.12109-.34766-.1875-.30859-.25-.26172-.30469-.21484-.34375-.15625-.3828-.10156-.40626-.03125-.4336.03125-.39843.09765-.35547.16797-.30469.23438-.24609.30468-.1875.375-.11719.44531-.03906.51954"/><path fill="#ffffe0" fill-rule="evenodd" d="M347.28906 383.55078h22.17969v-10.1914h-22.17969v10.1914"/><path fill-rule="evenodd" d="M350.78906 375.1914h.51172v6.29688h-.78906v-4.49219H349.125v-.55468l.5586-.06641.25-.05078.23046-.08985.20313-.14453.17578-.20703.14062-.29687.10547-.39453m4.8125 0l.23047.01953.21875.05469.20703.08984.19922.1211.1836.14843.17187.17578.30078.42188.24219.49218.17969.54688.11328.57812.03906.59375-.03906.58985-.11328.58594-.1797.55468-.24218.5-.30078.42969-.17188.17969-.18359.15234-.19922.125-.20703.08985-.21875.05859-.23047.01953-.22656-.01953-.21875-.0586-.21094-.08984-.19531-.125-.1836-.15234-.17187-.17969-.30078-.42969-.24219-.5-.17969-.55469-.11328-.58593-.03906-.58985h.83594l.02734.5625.08203.50391.125.44531.16407.3711.1914.30078.21094.22265.22266.13672.22265.04688.22656-.04688.22266-.13672.21094-.22265.1914-.30078.16407-.3711.125-.44531.08203-.5039.02734-.5625-.02734-.5625-.08203-.5-.125-.4375-.16406-.36329-.19141-.29297-.21094-.21484-.22265-.13281-.22657-.04297-.22265.04297-.22266.13281-.21094.21484-.1914.29297-.16407.36328-.125.4375-.08203.5-.02734.5625h-.83594l.03906-.59375.11329-.57812.17968-.54688.24219-.49218.30078-.42188.17188-.17578.18359-.14844.19531-.1211.21094-.08983.21875-.0547.22656-.01952m5.09375 0h.50781v6.29687h-.78515v-4.49219h-1.39063v-.55468l.5625-.06641.25-.05078.23047-.08985.20313-.14453.17578-.20703.14062-.29687.10547-.39453M367.5 376.8125h-.78906l-.05078-.21484-.08204-.1836-.10546-.16015-.13282-.12891-.14453-.10547-.16015-.07422-.16797-.04297-.17188-.01562-.32812.03906-.28906.1211-.2461.1953-.20312.26954-.16016.33594-.11719.40625-.07031.46484-.02344.52734.1914-.20312.1836-.16016.1875-.1211.1836-.08983.1875-.0586.1953-.03906.39845-.02344.30859.03125.32031.09375.3164.15625.29298.21875.25781.28516.19922.34765.07031.20313.05469.21484.02734.23438.0039.2539-.78515.04688-.02734-.26172-.07813-.25-.12109-.23438-.16016-.21093-.1953-.17578-.21876-.13672-.24219-.08985-.2539-.03125-.2539.03125-.2422.08985-.21875.13672-.1914.17578-.16406.21094-.1211.23437-.07812.25-.02735.26172.02735.25781.07812.25.1211.23438.16406.21093.1914.17579.21875.14062.2422.08594.2539.03125.2539-.03125.2422-.08594.21874-.14063.19531-.17578.16016-.21093.1211-.23438.07812-.25.02734-.25781.78516-.04688-.03125.3711-.08985.3711-.16015.35937-.22266.32812-.28906.28125-.17188.1211-.1875.10156-.20312.08203-.22656.0625-.23828.03515-.26172.01563-.28125-.01563-.26172-.04687-.23828-.07813-.21485-.10546-.1953-.12891-.17188-.15625-.15625-.17969-.13672-.20312-.11328-.22266-.10157-.24219-.14453-.53515-.08594-.59375-.02734-.64063.03906-.74219.11329-.66406.1875-.57812.12109-.2539.13672-.23048.15234-.20703.16797-.1836.1875-.15624.20313-.1289.21875-.10157.23046-.07422.25-.04297.26172-.01562.36328.03515.33204.09375.29687.15235.25781.19921.21094.2422.16406.27343.11719.30078.0625.32422"/><path fill="#ffffe0" fill-rule="evenodd" d="M231.32813 339.16797h22.17968v-10.1914h-22.17969v10.1914"/><path fill-rule="evenodd" d="M234.82813 330.8086h.5078v6.29296h-.78515v-4.48828h-1.39062v-.55469l.5625-.0664.25-.05469.23047-.08594.20312-.14453.17578-.20703.14063-.29688.10547-.39453m4.8125 0l.23046.01954.21875.05468.20703.08985.19532.12109.1875.14844.16797.17578.30468.42187.2422.4922.17968.54687.11328.57812.03516.58985-.03516.59375-.11328.58593-.17969.55469-.24219.5-.30468.42969-.16797.17969-.1875.15234-.19531.125-.20704.08984-.21875.0586-.23047.01953-.23046-.01953-.21875-.0586-.20703-.08984-.19532-.125-.1836-.15235-.17187-.17968-.30078-.42969-.2461-.5-.17968-.55469-.10937-.58594-.03907-.59375h.83203l.03125.56641.08204.5039.125.44141.16015.375.1914.30079.21095.22265.22265.13672.22656.04688.22657-.04688.22265-.13672.21094-.22265.1914-.30079.16016-.375.12891-.4414.08203-.5039.02734-.56642-.02734-.55859-.08203-.5-.1289-.4375-.16016-.36719-.1914-.28906-.21095-.21484-.22265-.13281-.22656-.04297-.22657.04296-.22265.13282-.21094.21484-.1914.28906-.16016.3672-.125.4375-.08203.5-.03125.55858h-.83204l.03907-.58984.10937-.57812.17969-.54688.2461-.49219.30077-.42187.17188-.17578.1836-.14844.1953-.1211.20704-.08984.21875-.05469.23047-.01953m5.09375 0h.5078v6.29297h-.78905v-4.48828h-1.38672v-.55469l.55859-.0664.2539-.05469.23048-.08594.20312-.14453.17188-.20703.14453-.29688.10547-.39453m6.80078 1.6211H250.75l-.05078-.21485-.08203-.18359-.10938-.16016-.1289-.1328-.14453-.10157-.16016-.07422-.16797-.04297-.17578-.01562-.32813.03906-.28515.1211-.2461.1953-.20312.26954-.16016.33593-.11719.40625-.0703.46485-.02345.52734.1875-.20312.1875-.16016.1836-.1211.1875-.08984.1875-.0586.1914-.03905.40235-.02344.3086.03125.3203.09375.31641.15234.29297.22266.2539.28125.19923.35156.07421.19922.05078.21875.03125.23438.00391.2539-.78516.04297-.02734-.25781-.07812-.25-.125-.23438-.16016-.21094-.1914-.17578-.21876-.14062-.24218-.08594-.25391-.03125-.25781.03125-.23828.08594-.21875.14062-.19532.17579-.16015.21093-.1211.23438-.07812.25-.02734.25781.02734.26172.07812.25.1211.23437.16015.21094.19532.17578.21875.13672.23828.08985.25781.03125.2539-.03125.2422-.08985.21874-.13672.19141-.17578.16016-.21094.125-.23437.07812-.25.02734-.26172.78516-.04297-.03125.36719-.09375.375-.15625.35547-.22266.32812-.28906.28516-.17187.11719-.1875.10156-.20703.08594-.22266.05859-.24219.03906-.25781.01563-.28516-.01563-.2578-.05078-.23829-.07422-.21484-.10547-.19532-.1328-.17578-.15626-.15234-.17969-.13672-.19921-.11719-.22266-.09765-.24219-.14844-.53515-.08203-.59375-.02735-.64063.03907-.74219.11328-.66406.1875-.57813.11719-.2539.13671-.23438.15625-.20703.16797-.17969.1875-.15625.20313-.1289.21484-.10156.23438-.07422.24609-.04297.26172-.01563.36719.03125.33203.09766.29687.15234.2539.19922.21485.23828.16406.27735.11329.30078.0625.32422"/><path fill="#ffffe0" fill-rule="evenodd" d="M350.6211 337.97656h22.1328v-10.19531h-22.1328v10.19531"/><path fill-rule="evenodd" d="M354.1211 329.61719h.5078v6.29297h-.78515v-4.48829h-1.39063v-.55468l.5586-.0664.2539-.0547.23047-.08984.20313-.14063.17187-.21093.14454-.29297.10546-.39453m4.8125 0l.23047.01953.21875.05469.20703.08984.19532.1211.18359.14843.17188.17578.30468.41797.24219.4961.17969.54687.10937.57813.03906.58984-.03906.59375-.10937.58594-.17969.55078-.24219.5039-.30469.42579-.17187.17968-.1836.15625-.1953.1211-.20704.09375-.21875.05468-.23047.01954-.23046-.01954-.21875-.05468-.20704-.09375-.1953-.1211-.1836-.15625-.17188-.17969-.30469-.42578-.24218-.5039-.17969-.55078-.10938-.58594-.03906-.59375h.83203l.03125.5625.07813.50781.1289.4414.16016.375.1914.30079.21094.22265.22266.13672.22656.04688.22657-.04688.22265-.13671.21094-.22266.1914-.30078.16016-.375.1289-.4414.08204-.50782.02734-.5625-.02734-.5625-.08203-.5-.1289-.4336-.16016-.36718-.19141-.29297-.21094-.21094-.22265-.13281-.22657-.04688-.22656.04688-.22265.13281-.21094.21094-.1914.29297-.16017.36719-.1289.43359-.07813.5-.03125.5625h-.83203l.03906-.58985.10938-.57812.17969-.54688.24219-.49609.30468-.41797.17188-.17578.1836-.14844.1953-.12109.20704-.08984.21875-.0547.23046-.01952m2.96094 2.17578h.78906l.01954-.3164.05859-.28907.09765-.25.14063-.21484.1836-.17579.22265-.1289.26563-.08203.30859-.02735.23437.02344.22657.0625.20312.10156.17969.13672.14844.17578.11328.20313.07031.23828.02734.26172-.02343.26953-.06641.22656-.10938.1914-.15625.17188-.19921.16016-.2461.16797-.63672.38672-.53515.3164-.4375.31641-.34766.32422-.26172.33594-.1914.35156-.125.36719-.07032.39453-.01953.41797h4.21094v-.73829h-3.33203l.08203-.28515.11328-.23828.14844-.19922.1875-.17969.23047-.17187.28125-.17579.71484-.41796.41797-.20704.34375-.23046.28125-.25.21875-.26563.16406-.28125.10938-.28125.0664-.28515.01954-.28125-.04297-.38282-.1211-.34765-.1875-.3086-.25-.26172-.30078-.21484-.34765-.15625-.37891-.10156-.40625-.03125-.4375.03125-.39844.09765-.35156.16797-.3086.23438-.24609.30469-.1875.375-.11328.4453-.04297.51954m6.94531-2.17578l.22657.01953.22265.05469.20703.08984.19532.1211.18359.14843.17188.17578.30078.41797.24609.4961.17969.54687.10937.57813.03906.58984-.03906.59375-.10937.58594-.17969.55078-.2461.5039-.30077.42579-.17188.17968-.1836.15625-.1953.1211-.20704.09375-.22265.05468-.22657.01954-.23046-.01954-.21875-.05468-.20704-.09375-.19921-.1211-.1836-.15625-.17187-.17969-.30079-.42578-.24218-.5039-.17969-.55078-.11328-.58594-.03516-.59375h.83203l.02735.5625.08203.50781.125.4414.16406.375.1914.30079.21094.22265.22266.13672.22656.04688.22657-.04688.22265-.13671.21094-.22266.1914-.30078.16016-.375.125-.4414.08203-.50782.03125-.5625-.03125-.5625-.08203-.5-.125-.4336-.16015-.36718-.19141-.29297-.21094-.21094-.22265-.13281-.22657-.04688-.22656.04688-.22265.13281-.21094.21094-.1914.29297-.16407.36719-.125.43359-.08203.5-.02735.5625h-.83203l.03516-.58985.11328-.57812.17969-.54688.24219-.49609.30078-.41797.17187-.17578.1836-.14844.19921-.12109.20704-.08984.21875-.0547.23046-.01952"/></g></defs><use xlink:href="#aC"/></svg>