<svg xmlns="http://www.w3.org/2000/svg" role="img" xmlns:xlink="http://www.w3.org/1999/xlink" viewBox="142.45 309.95 326.84 171.84"><defs><clipPath id="a"><path d="M144 311.67188h1v168.65625h-1zm0 0"/></clipPath><clipPath id="b"><path d="M144 311.67188h324v168.65625H144zm0 0"/></clipPath><clipPath id="c"><path d="M467 311.67188h1v168.65625h-1zm0 0"/></clipPath><clipPath id="d"><path d="M144 479h4v1.32813h-4zm0 0"/></clipPath><clipPath id="e"><path d="M153 479h9v1.32813h-9zm0 0"/></clipPath><clipPath id="f"><path d="M160 480h3v.32813h-3zm0 0"/></clipPath><clipPath id="g"><path d="M159 480h2v.32813h-2zm0 0"/></clipPath><clipPath id="h"><path d="M166 479h9v1.32813h-9zm0 0"/></clipPath><clipPath id="i"><path d="M173 480h3v.32813h-3zm0 0"/></clipPath><clipPath id="j"><path d="M180 479h8v1.32813h-8zm0 0"/></clipPath><clipPath id="k"><path d="M187 480h2v.32813h-2zm0 0"/></clipPath><clipPath id="l"><path d="M186 480h2v.32813h-2zm0 0"/></clipPath><clipPath id="m"><path d="M193 480h9v.32813h-9zm0 0"/></clipPath><clipPath id="n"><path d="M200 480h3v.32813h-3zm0 0"/></clipPath><clipPath id="o"><path d="M199 480h2v.32813h-2zm0 0"/></clipPath><clipPath id="p"><path d="M206 479h9v1.32813h-9zm0 0"/></clipPath><clipPath id="q"><path d="M213 479h3v1.32813h-3zm0 0"/></clipPath><clipPath id="r"><path d="M212 479h2v1.32813h-2zm0 0"/></clipPath><clipPath id="s"><path d="M220 479h8v1.32813h-8zm0 0"/></clipPath><clipPath id="t"><path d="M227 479h2v1.32813h-2zm0 0"/></clipPath><clipPath id="u"><path d="M226 479h2v1.32813h-2zm0 0"/></clipPath><clipPath id="v"><path d="M233 479h8v1.32813h-8zm0 0"/></clipPath><clipPath id="w"><path d="M240 479h3v1.32813h-3zm0 0"/></clipPath><clipPath id="x"><path d="M239 479h2v1.32813h-2zm0 0"/></clipPath><clipPath id="y"><path d="M246 479h9v1.32813h-9zm0 0"/></clipPath><clipPath id="z"><path d="M253 479h3v1.32813h-3zm0 0"/></clipPath><clipPath id="A"><path d="M260 479h8v1.32813h-8zm0 0"/></clipPath><clipPath id="B"><path d="M267 479h3v1.32813h-3zm0 0"/></clipPath><clipPath id="C"><path d="M273 479h8v1.32813h-8zm0 0"/></clipPath><clipPath id="D"><path d="M280 479h3v1.32813h-3zm0 0"/></clipPath><clipPath id="E"><path d="M286 479h9v1.32813h-9zm0 0"/></clipPath><clipPath id="F"><path d="M293 479h3v1.32813h-3zm0 0"/></clipPath><clipPath id="G"><path d="M292 479h2v1.32813h-2zm0 0"/></clipPath><clipPath id="H"><path d="M300 479h8v1.32813h-8zm0 0"/></clipPath><clipPath id="I"><path d="M306 479h4v1.32813h-4zm0 0"/></clipPath><clipPath id="J"><path d="M305 479h3v1.32813h-3zm0 0"/></clipPath><clipPath id="K"><path d="M313 478h8v2.32813h-8zm0 0"/></clipPath><clipPath id="L"><path d="M320 478h3v2.32813h-3zm0 0"/></clipPath><clipPath id="M"><path d="M319 479h2v1.32813h-2zm0 0"/></clipPath><clipPath id="N"><path d="M327 478h7v2.32813h-7zm0 0"/></clipPath><clipPath id="O"><path d="M333 478h3v2.32813h-3zm0 0"/></clipPath><clipPath id="P"><path d="M340 478h7v2.32813h-7zm0 0"/></clipPath><clipPath id="Q"><path d="M354 477h6v3.32813h-6zm0 0"/></clipPath><clipPath id="R"><path d="M368 476h4v4.32813h-4zm0 0"/></clipPath><clipPath id="S"><path d="M381 477h5v3.32813h-5zm0 0"/></clipPath><clipPath id="T"><path d="M396 476h2v4.32813h-2zm0 0"/></clipPath><clipPath id="U"><path d="M409 476h2v4.32813h-2zm0 0"/></clipPath><clipPath id="V"><path d="M421 477h6v3.32813h-6zm0 0"/></clipPath><clipPath id="W"><path d="M435 476h4v4.32813h-4zm0 0"/></clipPath><clipPath id="X"><path d="M449 476h3v4.32813h-3zm0 0"/></clipPath><clipPath id="Y"><path d="M462 476h3v4.32813h-3zm0 0"/></clipPath><clipPath id="Z"><path d="M144 466h4v2h-4zm0 0"/></clipPath><clipPath id="aa"><path d="M144 453h4v2h-4zm0 0"/></clipPath><clipPath id="ab"><path d="M144 439h4v3h-4zm0 0"/></clipPath><clipPath id="ac"><path d="M144 425h4v4h-4zm0 0"/></clipPath><clipPath id="ad"><path d="M144 410h2v8h-2zm0 0"/></clipPath><clipPath id="ae"><path d="M144 396h1v9h-1zm0 0"/></clipPath><clipPath id="af"><path d="M144 402h1v2h-1zm0 0"/></clipPath><clipPath id="ag"><path d="M465 397h3v3h-3zm0 0"/></clipPath><clipPath id="ah"><path d="M144 383h2v8h-2zm0 0"/></clipPath><clipPath id="ai"><path d="M144 371h4v6h-4zm0 0"/></clipPath><clipPath id="aj"><path d="M144 359h4v3h-4zm0 0"/></clipPath><clipPath id="ak"><path d="M466 358h2v2h-2zm0 0"/></clipPath><clipPath id="al"><path d="M144 346h4v2h-4zm0 0"/></clipPath><clipPath id="am"><path d="M466 345h2v3h-2zm0 0"/></clipPath><clipPath id="an"><path d="M144 332h4v3h-4zm0 0"/></clipPath><clipPath id="ao"><path d="M466 332h2v2h-2zm0 0"/></clipPath><clipPath id="ap"><path d="M465 332h3v3h-3zm0 0"/></clipPath><clipPath id="aq"><path d="M144 319h4v4h-4zm0 0"/></clipPath><clipPath id="ar"><path d="M465 318h3v2h-3zm0 0"/></clipPath><g id="as" clip-path="url(#clip1)"><path fill="#fff" fill-opacity="0" fill-rule="evenodd" d="M0 0h1000v1000H0zm0 0"/><path fill="#d3d3d3" fill-opacity="0" fill-rule="evenodd" d="M162.15234 355.86719l-.23437.29297.0586.23437.11718.17188.17578.23437.29297.34766.11328.0586.11719-.17188.0586-.23438.17577-.17578.46485-.17578h.69922l.23437.29297.28906.8164.0586.17579.17578.23046.35156.23438.69922.69922.17188.17578.23437.34765.23438.41016.28906.58203.41015.46485.23047.23437.23438.17578.11719.23047.17578.29297.17187 1.16406v.23438l.0586.28906.05859.11719.11719.11719.34765.41015.11719.17188.17578.17578.17578.23437.11719.17188.17188.35156.05859.23438.23437.40625.23438-.0586-.17578.17578-.0586.92969h-.58203l-.23437-.11328-.34766.11328-.11719.11719-.05859.29297-.0586.17578-.11718.17187-.46484.29297-.0586.23438-.0586.11328v.64453l.0586.17187v.41016l.0586.0586v.40624l.05859.40625.11719.17579.05859.05859.23047.64062-.0586.29297v.69922l-.05859.58203v.23438l-.0586.23047-.05468.35156v1.92187l.05469.1172h.42578l-.36719.11718-.02344.35156.89063 1.16797 1.74219.53906 1.33984.35938v.53906l.08984.8086.53516.71484 1.51953.26953.89063-.08594.08984 1.16406.53516.1797 1.16015-.1797 2.05469-.98437 1.16016-.36328 1.8789-.17578 1.69531-.1797-.17968.71876-1.51563.08594-1.25.08984-.80469.26953-1.07421.8086.26953.71875.53515.89843-.17968.625-.26563.8086.26563 1.07812.625.89844.80468.17969 1.25-.1797-.26562.72267.09766.5039.05468.29297v.17188l.0586.29296v.40625l.17578.1172.35156.11718h.40625l.29297-.17578.11328-.11719.0586-.11719.11718-.23047.0586-.17578.35156-.46484.23047-.17578.17578-.0586.17578.0586.0586.17578.11718.98828.05469.46875.0586.17188.11718.23437.17578.0586.8164.05859h.28907l.11719.23437.05859.40625.0586.35156v1.10547l.11718.29297.11719.34766.28906.69922.17578.35156.58203.7539.35157.17579.17187.0586.46875.23437.64063.46484.34765.23438.29297.17578.29297.05468.23047.0625.8164.34766.29297.17578.11328.17188.35157.35156.11719.17578.52343.64063v.28906l.0586.35156v.34766l.05859.35156.0586.28906.11718.0586.17188.05859h.17578l.58203.23437.17578.1172.17578.28905.17578.23438.11328.23437.29297.23047.11719.11719v.41016l.0586.05468.28906.23438.23437.11719.0586.11718.11718.17188.0586.11719.23047.23437.05859.17578.23437.0586.1172.05859-.1172.11328-.05859.11719v.11719l-.11719.29296-.11719.28907v.58203l.17579.11719.11718.05859.0586.11719.11719.11719.11328.05859.17578.34765.0586.35157.05858.40625v.17578l-.05859.17578-.11719.69922v.17187l.1172.17579.29296.29296h.40625l.17578.1172.11719.17187.11719.29296v.23438h-.52735l-.23047-.23438h-.23437l-.17578.0586-.0586.69922.0586.34765.11719.17579.17578.41015.11718.23047.28907.46875.17578.05469h.52344l.23437.0586.75781.64062.0586.29296v.23438l.05859.0586.23047.34765v.35156l-.11719.17188v.29297l.29297.28906.29297.17578.17187.0586.29297.17577.29297.1172.58203.40624.28906.23438.29297.17578.21875.16015.01563.01172.23047.17579.64062.52343.17578.23438.1172.17578.17577.17578.11328.17188v.64062l.1172.17578.46874.11719.58203.11719.23438.05859.23047.11328.29297.11719.11328.0586.58593.35156.28907.17187.17578.0625.17578.05469.17578.0586.69922.35155.28906.17579.23438.05468.28906.17578.23437.1172.64063.40624.29297.11719.17187.0586.23438.05859.41015.05859.23047.0586.23438.11718.0586.17188-.41017.17578.46875.0586.0586.29296.11328.23438.17578.05468.23438.0586.17578.05859.40625.11719.64062.23437.11719.17188.0586.23437v.17578l-.0586.1172-.0586.40624.23438.23438.11719.05859.34766.11719.64062.23047.17578.11718.28906.1172.17578.17577.23438.46485.58203 1.10546.17578.17579.34766.17578.17578.11719.35156.11718 1.04688.52344.23437.0586.46485.11327.29297.0586.46484.17578.75781.58203.23438.23438.34765.46484.17578.17578.28907.23438.8164.69921.29297.17579.28906.28906.29297.17578.29297.28906.69531.64063.17578.17578.29297.23437.28907.23438.46875.28906.64062.58203.34766.23438.23437.29297.34766.34765.35156.46485.9336.99218.34765.40625.11719.17579.23437.05859.11328.11719.64454.17578.23047.11328.23437.0586.29297.17577.23047.1172.9336.69921.40624.40625.23438.17578.40625.17578.23437.11719.8164.34766.34766.23437.23438.11719.29297.28906.23047.11719.7578.35156.35157.17188.23047.05859.29297.11719.23437.0586.8711.17577h.8164l.46875.23047.17188.0586.875.69921.46484.1172.29297.05858.17578.0586.23047.0586.46875.05859.34766.05859.35156.0586.40625.05859h.29297l.17187.0586v.23046l.17578.17578h.29297l.34766.0586.35156.05859.69922.11719h.64063l.46484-.23438.29297-.17578.17187-.11719.41016-.17187.28906-.17578.9336-.46485.46875-.29297.52343-.29296.46485-.17188.46484-.17578 1.05078-.46485.28906-.11718.41016-.11719.28906-.11719.52735-.17578 1.51562-.69922.58203-.34765.28907-.0586.29297-.0586.34765-.11718.875-.23047.35156-.11719h.11329l.23437-.05859.875-.23437.23438-.0586h.8125l.35156-.0586.8164-.11718.17188-.0586.35156-.05468.29297-.0586.23047-.05859.8164-.17578.17579-.0586h.34765l.23438-.05859.46484-.11718.75781-.17188.23438-.0586h.34765l.41016-.11718.28906-.0586 1.28516-.05859h.28906l.41016-.0586.23047-.05858h.17578l.875-.1172h.40625l.41015-.11718h.34766l.35156-.11328.8711-.0586h1.75l1.04687.28907.41016.11719.28906.11718.35156.11719.28907.11719 1.05078.17187.28906.0586h.29297l.29297.05859.17187.0586.41016.05859.17187.0586.1172.05858h.11718l.11719.0586.35156.0586h.11328l.41016.0664 1.92187.39453 1.92578.39453 1.51953.44922 1.69532.71875 2.14453.80469 1.60547-.71875 1.42968-.80469 1.16016-1.07813 1.25-.44921 3.03516-.71875 1.875-.35938 2.14453-1.34765 2.23437-1.25391 2.5-1.25781 1.69531-.44922 1.78516-.17969 1.16016-.26953.625.53906 1.33984-.26953.71485-.98828.98437-1.34375.44531-.17969.80469-.35937 1.875-.53907 1.78516-.44921 1.25-.26954 1.16015-.08984 1.69922-.08984 1.96094-.26954 1.25-.08984h.53906l.625-.08984h.89063l2.14453-.17969 2.41015-.17969 2.58985-.08984 1.69531.17969 1.60938.08984 1.42968.35938 1.16016.71875 1.875.98828 1.16015 1.52734.26563.71484.6289.08985.35548.89844.53515.53906.53516 1.52734 1.07422.35938h.53515l-.80469.53515.08985 1.70703.71484 2.69532.89063.80468.89453.98829.71484 1.2578 1.78516.53907 1.51953-.17969.35547 1.34375 1.60937-.80469.98047-.53906.26953.26953.31641-.21484.21875-.14453.80078.44922.44922-.35938h.35547l.53515-.26953.53907-.71875.53515-.26953.625-.98828 1.16016.44922.83984.3711 1.39454.61718 1.6953-.17969h1.60548l1.78515.08985.17969-1.70704.53516-1.34375.80468.26954.4922.84765.40233.40625-.08984.53906v.35938l.71485.44922.71093-.26953h1.42969l.35938.98828.4453 1.25781.71485 1.34375 1.25.6289 1.69531.62891.71485-.17969.17969-.53906.98046-.08984.44922.35937.08594 1.25782-.26563.6289-.53515.17969v.53906l.71484.98438.26563.53906.98437.98828.80078 1.07813-.26562.35937-.08985.89844-.625 2.33203-.35546 2.0664-.08985 1.79298-.17969.71875-.08984.53906v1.4375l-.98047 1.88281-.35937 1.70703-.53516.89844-.80469 1.16797-.26562.53906 2.05469 1.2539.08593.35938-.35546.53906-.08985-.17968v.80859l.08985 1.4375-.44532.71484-1.07422.09375-.26562.71485.53515.89844.8047.71875 1.16015.80859 1.33984.26953.44531.35938-.35546.44921-1.78907-.08984-1.25-.44922-.71484-.71875-.625-.08984-.17578 3.58984-.1875 1.3086h89.35937V311.70313h-55.26953v49.08203l.76172.125 3.28906.54296 2.02344 2.83594v2.7539l2.35156.33204 2.34766.33203h4.05078l-1.3789 4.16016-2.02344.70703-2.02344.70312-.54297.34375-2.59375 1.6172-.1875.11718-2.02344-2.07813-.73046-2.74218-2.67188-2.07813-1.375-3.5-.0664-.08203-1.95704-2.67188 2.75-1.41796v-49.08204H294.42187v91.41407l.1172.03125.1328.01172.07422.07421.10547.04688.08985.0586.08593.05859.08985.0586.29687.29687.0586.08984.03125.11719.02734.11719.01563.13671-.03125.1172-.0586.08983-.0586.08594-.04296.10547-.04688.10156-.02734.1211v.14453l.17578.26953.14844.14844.07422.08594.07422.07421.04296.10547.0625.08985.0586.08593.04297.10547.0586.08985.04687.10156.04296.10547.0586.08594.11719.17968.07421.07422.0625.08594.0586.08984.04297.10547.0586.08985.05858.08593.0625.08985.0586.08984.04297.10156.11719.17969.07421.07422.0586.08594.07422.07421.08984.0586.10547.04687h.14844l.1328-.01562.13282.01562.10156-.04687.07422-.07422.04688-.10156-.01563-.13281v-.14844l-.04687-.10547-.02735-.11719-.04687-.10156-.02735-.1211-.04296-.10156-.0625-.08984-.04297-.10156-.04297-.10547-.03125-.11719-.01563-.13281-.01171-.13672.08593-.0586.0586-.08593.12109-.03125.04297.10547.01562.1328v.1172l.0586.10156.0586.08984.08983.0586.14844.14843.0586.08985.04296.10547-.01171.10156.08593.0586.10547.04687.08594.0586.08984.05858.07422.07422-.11719.02735-.10546.04687-.08594.0586-.07422.07421-.0586.08985-.0625.08594-.02734.12109-.04687.10156-.04297.10547-.03125.11719-.01172.13281-.01563.13281v.14844l.02735.11719.04687.10547.04297.10156.0586.08984.07421.07422.08985.0586.07422.07421.08984.0586.0586.08984.04296.10547.04688.10156.11719.03125.1328.01563h.14845l.11718-.03125.10547.04297.04297.10547.04688.10156.02734.1211L299.5 410l.02734.11719.03125.1211.02735.11718.10547.04297.10156.04687.13281-.01562.14844.14844.0625.08593.07422.07422.07031.07422.08984.0625.10547.04297.10156.04297.1172.03125.13671.01562.11719-.03125.07422-.07422.02734-.11718-.01172-.13282-.03125-.12109-.02734-.11719.04297-.10547h.11719l.08984.0625.11719.02735h.14843l.13282.01562h.14843l.13282.01563.1328-.01563h.14845l.1328-.01562.13282-.01172.13672.01172.11719-.02735.13281-.01562.1914-.0586-.05859.17579-.01562.1328-.02735.1211-.01562.13281-.0586.08594-.1328.01563-.10548.04687-.10546.04297-.1172.03125-.11718.02735-.26563.03125h-.14843l-.13281.01562-.07422.07422.05859.08594.14844.14843.11719.1797.07421.0703.08985.0625.08984.0586.08594.0586.08984.05858.10156.04297.10547.0625.10547.04297.08594.0586.10547.04687.10156.04297.17969.11719.0586.08984-.04298.10156-.04687.10547.01562.13281.22266.22266.0586.08985.04296.10156.03125.1211.04297.10155.01563.13282.03125.11718.01171.13672.03125.11719.14844.14844.10156.04297.10547.04296.1172.03125.1328.01563.13672.01563h.11719l.11719-.03125.08984-.0586.04297-.10547.04688-.10156.04296-.10547.03125-.11719.01172-.1328v-.14845l-.01172-.1328-.01562-.13282-.03125-.11719-.04297-.10547-.04688-.10547-.04296-.10156-.04297-.10547-.01563-.13281.01563-.13281.02734-.11719.03125-.11719.02735-.1211.04687-.10155.08984-.0586.08594-.0625.07422-.07422.08984-.05859.22266-.22266.0586-.08593.07421-.07422.11719-.17969.0586-.08594v-.14844l-.07423-.07421-.10156-.04688-.10547-.04297-.10156-.04297-.0586-.08984-.04687-.10547-.02734-.11719.08984-.05859.11719-.03125.10156-.04297.17969-.11719.14844-.14843.01172-.13282-.01172-.10546-.08985-.0586-.1328.01563h-.14845l-.1328.01562-.13282-.01562-.1211-.03125-.08593-.0586-.07422-.07422-.0586-.08984-.0625-.08594-.11718-.17969-.0586-.08593.03125-.1211.08594-.05859.1211-.03125.05859-.08594v-.1211l-.03125-.11718-.0586-.08984-.05859-.08594-.04687-.10547-.02735-.11719-.01562-.1328.0586-.08985.07421-.07422.08984-.0586.1172-.17968.07421-.07422.0586-.08594.14843-.14844.1211-.03125.1328-.01562.13282.01562.07422.07422.04297.10547.01562.13281-.03125.1172-.11719.03124-.1328.01172-.14844.14844-.04297.10547-.04688.10156-.02734.1211-.03125.11718v.14844l.03125.11719.04297.10546.05859.08985.07422.07031.07422.07422.11719.03125.12109.02734.11719-.02734.1328-.01563h.1172l.08984.0586.07422.07422.04687.10546.0586.08594.10156.04688.13281.01562.10547.04297.08594.0586-.01172.10546-.07422.07422-.17969.11719-.05859.08984-.08984.0586-.07032.07422-.07421.07421-.0625.08985-.02735.11719-.01562.1328.01562.13282-.01562.13281v.14844l.01562.13281.02735.1172.03125.12108.07421.07422.08985.0586.08594.0586.08984.05858.11719.03125v.08594l-.10157.04688-.08984.0586-.26563.03124-.11718.02735h-.14844l-.10547.04296-.10156.04688-.0586.08984-.0625.23438-.01171.13281-.03125.1211-.01563.1328v.29298l-.01172.1328.01172.13673.01563.1328.1328.01563.13282.01172.1211.03125.08593.0586.07422.07421.04688.10547.04296.10157.01563.1328v.44532l-.01563.13281v.44532l.03125.26562.02735.11719.01562.13281.03125.11719.08594.21094.03125.26562v.14844l-.03125.11719-.02734.11718-.03125.1211-.02735.11719-.03125.11718-.03125.1211-.01171.1328-.01563.13282.08984.0586.1172-.03125.10155.01562.04688.10547-.03125.26562v.44141l-.04297.10547-.04688.10547-.04296.10156-.04297.10547-.0586.08594-.03125.12109-.04296.11719-.03125.11719-.01563.1328.01563.13282.05859.08984.10547.04688.08594.0586.05859.08593-.01172.13672-.03125.11719-.04297.10156v.44531l-.01562.13281v.14844l-.03125.11719-.04297.10547-.02735.11719-.04687.10546-.04297.10157-.03125.12109-.02734.11719-.03125.13281-.03125.11719-.02735.11719-.04297.10546-.03125.1172-.03125.12108-.01171.13282-.01563.13281v.29688l.02734.11718v.14844l.04688.39844.02734.11719.0586.08984.12109.03125h.14844l.13281-.01563.0586.08985v.11719l-.0586.08984-.08984.0586-.10157.04296-.10546.04688-.08985.05859-.08594.0586-.13671.01562-.1172-.03125-.1328-.01563-.10157.04688-.0625.08594-.01172.13671-.01562.13282-.03125.11719-.02735.11718-.01562.13281-.03125.1211v.29687l.01563.13282.03125.11718v.14844l.01171.13281v.14844l-.02734.11719-.04688.10156-.02734.1211-.03125.11718-.0586.08985-.07421.07421-.10156.04297-.10547.04688-.11719.02734-.1211.03125-.10156-.04687.0586-.08594.10547-.04688.02734-.11718.03125-.11719.02734-.1211.03125-.11718v-.14844l.01563-.13281-.03125-.11719-.04297-.10547-.10547.01563-.07422.07422-.10156.04296-.08984.0625-.07422.07422-.04297.10157-.01563.1328-.03125.1172L304.25 426l-.03125.11719-.02734.11719-.03125.12109-.02735.11719-.03125.11718-.04297.10547-.08984.0586h-.08984l-.1172-.03125-.03124-.08594.01562-.13672-.03125-.11719v-.14844l-.01171-.1328v-.14844l-.0625-.23438-.02735-.1211-.04297-.10156-.04687-.10546-.0586-.08594-.05859-.08985-.04297-.10546-.0625-.08594-.14844-.14844-.0703-.07422-.10548-.04687-.10547-.04297-.10156-.04297-.29687-.29688-.08985-.07421-.08594-.0586-.10546-.04297-.08985-.0625-.08594-.0586-.10546-.04296-.08985-.0586-.08594-.0625-.07421-.0703-.10547-.04688-.08594-.0586-.10547-.04296-.08984-.0625-.10156-.04297-.10547-.04297-.08594-.0586-.10547-.04687-.10547-.04297-.10156-.04687-.08985-.0586-.10156-.04297-.10547-.04296-.08984-.0625-.11719-.02735-.13281-.01562-.13281.01562H299.75l-.13281.01563-.11719-.03125-.08984-.0586-.07422-.07422-.08985-.05859-.10156-.04688h-.14844l-.12109-.02734-.10156-.04297-.07422-.07422-.11719-.17968-.08984-.0586-.10156-.04297-.08985-.0625-.10547-.04296-.08984-.0586-.08594-.0586-.10547-.04687-.0586-.08594-.05858-.08984-.04297-.10547-.04688-.10156-.07422-.07422-.08594-.0586-.07421-.07421-.08985-.0586-.22265-.22265-.04297-.10547-.03125-.26563.10547-.04296h.14453l.10547.04296.07421.07422.08985.0586.08594.0586.10546.04687.08985.05859.14844.14844.0703.07422.14845.14843.0625.08594.07421.07422.08594.0586.07422.07421.08985.0625.08984.0586.08594.05859.26953.17578.10156.04688.10547.04296.10156.04297.04688-.07421.05859-.08594.07422-.07422.07031-.07422.10547.04297.07422.07422.0586.08984.04296.10156.04688.10547.04296.10547.1211.02735.11719-.02735.07421-.08984.04297-.10547.0586-.08985.07422-.07421.10546-.04297.1172-.02735.1328.01172.08985.0586.14844.14843.05859.08985.04297.10547.04687.10156.04297.10547.04297.10156.10547.04688.10547.04296.13281.01563.08594-.0586.0586-.08984.07421-.07422.10547-.04297.11719.02735.10547.04687.10156.04297.10547.04297.10156.04688.17969.11718v.11719l-.01563.13281.01563.13281.01562.13672.0586.08594.10156.04688.1211.02734.11718.03125h.14844l.11719-.03125.05859-.08984.17969-.1172.05859-.08983.07422-.07422.0586-.08594.11718-.17969.17969-.11719.11719.03125.08984.0586.04297.07422-.01563.1328v.1172l.08985.05859h.14843l.13282-.01563.1328-.01171.26563-.03125.10547-.04297.11719-.03125.1211-.02735.07421-.07421.07031-.07422.0625-.08985-.01562-.10547-.04688-.10156-.10156-.04297-.10547-.01562-.11718.02734-.26563.03125h-.14844l-.07421-.07422-.08985-.0586-.11719-.03124-.11718-.02735-.13282-.01562h-.14843l-.13282.01563h-.29687l-.10547-.04688-.14844-.14844-.04297-.10156-.05859-.08984.22266-.22266.08593-.0586.10547-.04296.11719-.03125.13281-.01563.13281.01563.13672.01562.10157.04297.1328-.01172.08985-.0625.10156-.04297.0625-.08984-.04687-.10156-.08984-.0586-.1172-.03125-.10155-.04296-.0586-.08985-.0625-.08984v-.11719l.01563-.13281.10547-.04688.07421-.07031v-.1211l-.08984-.05859-.03125-.11719.08985-.05859.07421-.07422.04297-.10547.0586-.08984.04687-.10156.01563-.13281v-.14844l-.04688-.10547-.04297-.10156-.08984-.0586-.13281-.01562-.10157-.04297-.13671-.01563-.1172-.03125h-.4453l-.13282-.01562-.13281-.01172-.13281-.01563-.11719-.03125h-.14844l-.13281-.01562-.13281-.01172-.26563-.03125-.1211-.04297-.08593-.0586-.07422-.07421v-.14844l.01172-.13281.10547-.04688.10156-.04296.13281-.01563h.15235l.13281-.01562h.29297l.1211.03125.10156.04296.08984.0586.23438.0625.12109-.04688.08984-.05859.10156-.04297.13282-.01562.10547.04296.10156.04688.13281.01172.1211-.02735h.14453l.12109-.03125.11719-.02734.10547-.04687.07421-.07422.08594-.0586.14844-.14843.0586-.08594.04687-.10547.02734-.11719.01563-.10547-.10156-.04296-.08985-.0586-.11719-.03125-.10546-.04297-.08985-.0625-.07422-.08594-.07422-.07421-.10156-.04297-.10547-.04688-.10156-.04297-.0586-.08984-.04687-.10156-.08594-.21094-.0625-.08594-.05859-.08984-.07422-.07422-.08594-.0586h-.26953l-.11719.03126-.08984.05859-.10156.04297-.13281.01562-.10547-.01562-.02735-.11719-.0625-.08984-.11718-.03125-.10157-.04297-.14843-.14844-.03125-.11719-.01563-.10546.07422-.07422.17969-.1172.11719-.02733.11718-.03125.13672.01562.10156.04297.10547.04297.10156.04687.10547.04297.1172.03125.1328.01563.1172.02734.1328.01563.10547-.01563.08985-.0586-.07422-.07421-.10547-.04297-.07422-.07422-.07422-.08984-.14844-.14844-.08593-.0586-.08985-.05859-.07422-.07422-.08984-.0586-.10156-.04687-.1211-.02734-.10156-.04688-.10547-.04296-.11719-.03125-.10156-.04297-.1211-.03125h-.14843l-.11719.03125-.10546.04297-.08594.0625-.17969.11718-.08594.0586-.08984.0586-.10547.04687-.08594.05859-.10547.04297-.10156.04297-.10547.04687-.07422.07422-.05859.08985-.0586.08593-.04687.10547-.0586.08594-.07421.07422-.13281-.01172-.1172-.03125h-.11718l-.07422.07422-.08984.0586-.07422.07421-.08984.0586-.08594.05859-.10547.04687-.10156.04297-.13672.01563-.10156-.04297-.14844-.14844-.10547-.04688h-.08594l-.10547.04688-.10156.04297-.1211.03125-.11718-.03125-.07422-.07422v-.11719l.03125-.1211.07422-.0703.0586-.08985.07421-.07422.11719-.03125.10547-.04296h.29297l.13281-.01563.13672-.01563.10156-.04296.08985-.0586.10156-.04687.08984-.0586.13281-.01171.08985.05859.13281.01172.08984-.0586.08594-.05859.10547-.04297.08984-.0586.08594-.0625.08985-.05859.14843-.14843.0586-.08594.05859-.08985.10547-.04296.13281-.01563.11719.02735.1211.03125.05859-.0586.05859-.08984.03125-.26563.02734-.11719.10547.01172.13281.01563.10157-.04297.08984-.0586.0586-.08984.07421-.07422.0586-.08984.04687-.10156.01172-.13281-.01172-.13282-.04687-.10547-.14844-.14843-.0586-.08985-.05859-.08594-.04297-.10546v-.44532l.01563-.1328v-.14845l.01172-.1328-.0586-.0586-.08984.0586-.10156-.04298-.17969-.11719-.08594-.05859-.0625-.08984-.0586-.08985-.07421-.07421-.08594-.0586-.1211.03125-.10155.01172-.10547.04688-.08594.05859-.10547.04297-.14844.14844-.08984.05859-.08594.0586-.08984.0625-.10547.04296-.13281.01563v-.1211l.10547-.04297.11718-.03125.07422-.0703.04297-.10548v-.14844l-.02734-.11718-.14844-.14844-.13281-.01563h-.14844l-.11719.03125-.10547.04297-.10156.04297-.08984.0625-.11719.02735-.07422-.07422.01172-.13281-.04297-.10157-.04297-.10547-.08984-.05859-.11719.02734-.1211.03125-.11718.03125-.10156.04297-.1211.03125-.10156.04297-.10547.04297-.08984.0586-.10156.01562v-.11719l.01562-.13281-.0586-.08985-.07421.04297-.14844.14844-.0586.08985-.07421.07421-.04688.10547-.04296.10156-.07422.07422-.0586.08985-.07422.07422-.05859.08593-.07422.07422-.08984.0625-.07422.07031-.07422.07422-.10156.01563-.13281.01562-.10547-.04296v-.1211l.14843-.14844.04297-.10156.0586-.08984.04687-.10156.04297-.10547.0586-.08985.03124-.11719.04297-.10156.03125-.1211.02735-.11718.04687-.10547.04297-.10156.04297-.10547.07422-.07031.08984-.0625.08985-.0586.10156-.04296h.29687l.26563-.03125.10547-.04297-.07422-.07422-.11719-.03125-.10547-.04297-.08984-.0586-.10156-.04687-.08985-.0586-.10156-.04296-.10547-.04297-.08984-.0625-.08594-.0586-.10547-.04296-.10156-.04297-.1211-.03125-.11718-.03125-.10157-.04297L297.5 410.25l-.10156-.04297-.08985-.0586-.04296-.10546-.01563-.13281.10156-.04297.13281-.01563.13672.01563.13282-.01563.10156-.04297.0586-.08984.01562-.10547-.08985-.0586-.07421-.07421-.10157-.04297-.08984-.0586-.14844-.14843-.04297-.10547-.01562-.13281v-.29297l-.0586-.08985-.08984-.05859-.07422-.07422-.04297-.10547-.03125-.11718-.0586-.08985-.07421-.07422-.11719-.02734-.07422-.07422-.08984-.0586-.08984-.0625-.08594-.05859-.07422-.07421-.0586-.08594-.04687-.10547-.08594-.0586-.14843-.14843-.19532-.0586-.1328.01563-.10157.04297-.07422.07422-.04688.10156-.04296.10547-.0586.08984-.0586.08594-.29687.29687-.08984.0586h-.08594l-.0625-.08594-.04297-.10547.03125-.11719.0586-.08984.02734-.11719-.01172-.13281-.08984-.0625-.10547.04688-.11719.02734-.11719.03125-.26953.17578-.10156.04688-.11719.02734-.10546.04687-.08985.0586-.10156.04297-.0586-.08594-.04687-.10547.01563-.13281.04687-.10547.07031-.07422.07422-.07031.0586-.08985v-.14843l-.04297-.10547h-.23829l-.10156.04687-.03125.11719-.02734.11719-.03125.1211-.07422.04296-.13281.01563-.07422-.04688-.04297-.10156-.04297-.10547-.04687-.10156-.04297-.10547-.1211.03125-.10156.04297-.13281.01562-.11719.03125-.10547.04297-.08984.0586-.10156.04687-.1211.02734-.13281.01563-.10156-.04297-.0586-.08985-.04687-.10546-.04297-.10157-.04297-.10546v-.1172l.0586-.08984.08593-.05859.17969-.11719.10156-.04687.10547-.04297.10547-.0586.10156-.04296.08985-.0625.10156-.04297.10547-.0586.10156-.04687.08984-.0586.10547-.04296.10156-.04297.08985-.0625.10156-.04297.13672-.01563.11719.03125.10156.04297.1211.03125.10156.04297.10546.04688.10157.04296.10547.04297.10156.04688.10547.04297.10156.04297.10547.04687.08594.0586.10546.04296.1172.03125.10546.04297.10156.04688.08985.0586.10547.04296.10156.04297.10547.04687.11719.02735.10156.04687.1211.02735h.14843l.08594-.0586.01562-.10156.0586-.08984-.02735-.1172-.07422-.07421-.11719-.17969-.07421-.07422-.08985-.07421-.17969-.1172-.08593-.05859-.10547-.04296-.10156-.04688-.26954-.17578-.05859-.08985-.07422-.07421-.0586-.08985-.04296-.10156-.03125-.11719-.01563-.13672v-.5625l-.01171-.1328-.01563-.13282-.03125-.11719-.01562-.13281-.01172-.13281-.03125-.1211-.22266-.22265-.0586-.08594-.01562-.10547.03125-.11719.13281-.01562v-91.41406H172.9922v1.45312l-.0586.23438-.35156 1.05078-.17187.52343-.1172.34766-.17577.41016-.11719.17187-.23438.29297-.23046.0586h-.35157l-.11718.05859-.23047.40625v.29297l.11719.17578.23046.23047.1172.23437.64062.75781.29297.46485.17578.23437.23047.35156.23437.34766.64063.8164.17578.46485.17187.41016.11719.69531.17578.46875.11719 1.39844.0586.46484v.875l.11718 1.04688v4.78125l-.0586.46484-.35156 1.28125-.17578.52344-.11328.41015-.35156.9297L172.93359 336l-.23437.58203-.11719.17578-.17187.34766-.17578.40625-.35157.8164-.0586.29297-.11327.29297-.11719.28906-.0586.17579-.11718.875-.0586.40625-.05859.11718-.0586.17579-.05859.17187-.23047.52734-.11718.17188v.23437l-.11719.23438-.0586.17187-.17577.58594v.28906l-.0586.17579v.29296l-.0586.11329-.05859.52734v.17187l-.05468.23438v2.6211l-.17578.8164-.1172.17578-.17577.23438-.1172.17187-.11327.23438-.58594.93359-.23047.28906-.29297.46485-.17578.23437-.28906.35156-.35156.69922-.11328.23047-.17579.41016-.17578.23046-.40625.52735-.8164.69922-.29297.17187-.28906.23438-.17579.11719-.17578.17578-.52344.40625-.52734.17578-.17187.17578-.23438.05469-.64062.17578h-.75782m12.21094 31.02344l-1.07422.44921.35938.89454 1.25-.71485.44531-.53906-.98047-.08985"/><path fill="#d3d3d3" fill-opacity="0" fill-rule="evenodd" d="M201.50781 416.59766h-.89453l.44922.6289.98047.35938.80469-.08985.4453-.98828-.17577.08985-.71485-.35547-.89453.35547m154.6211 59.0703l-.0586-.52343v-.29297l.11328-.29297.0586-.23046.46875-.46875h.11328l.11719-.11329.11718-.05859h.17579l.23437-.0586h.34766l.23437.0586.11719.0586.23047.17187.0586.17578.11718.58203v.29297l-.11719.17578-.17187.28906-.17579.17579-.52734.52343-.23047.23438-.11719.0586h-.17578l-.11718-.0586-.40625-.29297-.17579-.11719-.11718-.0586-.0586-.11327-.05468-.1172m6.64062-10.95702l-.0586-.17188v-1.10937l.0586-.17188.17578-.0586.17188-.05858h.17578l.23437-.0586.1172.0586.05858.69921-.05859.17188-.11719.17578-.11718.0586-.23438.52343-.11328.0586h-.23438l-.05859-.1172m9.61328-14.39062l-.11719-.17578v-.69922l.29297-.875.1172-.17187.17577-.35156.11328-.23047.1172-.29297.35155-.75781.1172-.23047.17187-.23438h.17578l.11719-.0586h.64062l.11719.0586.23437.23438.17188.11328.35156.29297.11719.11718.11328.17579v.11328l.11719.05859.11718.11719v.69922l-.05859.17578v.23047l-.0586.17578-.34765 1.05078-.11719.23047-.11719.23437-.11718.0586-.23047.23437-.64063.28906h-.875l-.41015-.11718-.64063-.46485"/><path fill="none" stroke="#bebebe" stroke-linecap="round" stroke-linejoin="round" stroke-miterlimit="10" stroke-width=".5" d="M467.95703 311.69531H144.02734v168.625h323.9297v-168.625"/><g clip-path="url(#a)"><path fill="#fff" fill-opacity="0" fill-rule="evenodd" d="M144 475.89063v4.4375h.0039H144V311.67188h.0039H144v164.21875"/></g><g clip-path="url(#b)"><path fill="#fff" fill-opacity="0" fill-rule="evenodd" d="M144.0039 480.32813V311.67188h17.75v131.80468l-.48046 1.34375.48047 2.0625v13.1836l-1.57422 2.5078 1.57422 1.58204 4.4375-1.0039 1.1953-.57813-1.1953-.70703-4.4375-1.80078v-13.1836l4.04687-2.0625-4.04687-1.34375V311.67187h13.3125v47.05079l-.9375 1.76953.9375.9414v100.83594l-.46094.30469.46094.21094.66797-.21094-.66797-.30469V361.4336l.9453-.9414-.9453-1.76953v-47.05079h17.7539v2.89844l-1.53906 1.53906 1.53906 1.76172 1.53906-1.76171-1.53906-1.53907v-2.89844h4.4414v13.30079l-.0039.01171.0039.00782.00392-.00781-.00391-.01172v-13.30079h186.41016v149.97657l-1.14454.92578-1.78906 4.4414.53516 4.4375 1.60937 4.4375.78906.78516 1.57813-.78515.73438-4.4375.51562-4.4375-1.53125-4.44141-1.29688-.92578V311.67188h84.32422v168.65625H144.00391"/></g><path fill="#50fcfc" fill-rule="evenodd" d="M161.7539 464.15625l-1.57421-1.58203 1.57422-2.50781 4.4375 1.80078 1.1953.70703-1.1953.57812-4.4375 1.00391m0-17.27344l-.48047-2.0625.48047-1.34375 4.04687 1.34375-4.04687 2.0625m13.3125-85.44922l-.9375-.9414.9375-1.76953.9453 1.76953-.9453.9414m0 101.35157l-.46094-.21094.46094-.30469.66797.30469-.66797.21094m17.7539-144.91407l-1.53906-1.76171 1.53906-1.53907 1.53906 1.53906-1.53906 1.76172m4.4414 7.1211l-.0039-.00781.0039-.01172.00392.01171-.00391.00782m184.01172 146.46094l-.53516-4.4375 1.78906-4.44141 1.14454-.92578v5.02344l-.19141.34375.1914.88671.1836-.88671-.1836-.34375v-5.02344l1.29688.92578 1.53125 4.4414-.51563 4.4375-.73437 4.4375-1.57813.78516-.78906-.78515-1.60937-4.4375"/><path fill="#00e8fc" fill-rule="evenodd" d="M383.67188 467.90234l-.19141-.88671.1914-.34375.1836.34375-.1836.88671"/><g clip-path="url(#c)"><path fill="#fff" fill-opacity="0" fill-rule="evenodd" d="M467.9961 480.32813H468V311.67188h-.0039H468v168.65625h-.0039"/></g><g clip-path="url(#d)"><path fill="none" stroke="#000" stroke-linecap="round" stroke-linejoin="round" stroke-miterlimit="10" stroke-width=".5" d="M147.38281 481.27734l-6.76562-1.89843"/></g><g clip-path="url(#e)"><path fill="none" stroke="#000" stroke-linecap="round" stroke-linejoin="round" stroke-miterlimit="10" stroke-width=".5" d="M160.8164 480.6211l-7.0039-.58594"/></g><g clip-path="url(#f)"><path fill="none" stroke="#000" stroke-linecap="round" stroke-linejoin="round" stroke-miterlimit="10" stroke-width=".5" d="M160.8164 480.6211l.96876 2.2578"/></g><g clip-path="url(#g)"><path fill="none" stroke="#000" stroke-linecap="round" stroke-linejoin="round" stroke-miterlimit="10" stroke-width=".5" d="M159.79688 480.53516l.48437 1.1289"/></g><g clip-path="url(#h)"><path fill="none" stroke="#000" stroke-linecap="round" stroke-linejoin="round" stroke-miterlimit="10" stroke-width=".5" d="M174.1289 480.66406l-6.99609-.66797"/></g><g clip-path="url(#i)"><path fill="none" stroke="#000" stroke-linecap="round" stroke-linejoin="round" stroke-miterlimit="10" stroke-width=".5" d="M174.1289 480.66406l.94141 2.26563"/></g><g clip-path="url(#j)"><path fill="none" stroke="#000" stroke-linecap="round" stroke-linejoin="round" stroke-miterlimit="10" stroke-width=".5" d="M187.4414 480.66406l-6.99218-.67187"/></g><g clip-path="url(#k)"><path fill="none" stroke="#000" stroke-linecap="round" stroke-linejoin="round" stroke-miterlimit="10" stroke-width=".5" d="M187.4414 480.66406l.94141 2.26953"/></g><g clip-path="url(#l)"><path fill="none" stroke="#000" stroke-linecap="round" stroke-linejoin="round" stroke-miterlimit="10" stroke-width=".5" d="M186.42578 480.5664l.46875 1.13673"/></g><g clip-path="url(#m)"><path fill="none" stroke="#000" stroke-linecap="round" stroke-linejoin="round" stroke-miterlimit="10" stroke-width=".5" d="M200.77344 480.39063l-7.02735-.1211"/></g><g clip-path="url(#n)"><path fill="none" stroke="#000" stroke-linecap="round" stroke-linejoin="round" stroke-miterlimit="10" stroke-width=".5" d="M200.77344 480.39063l1.11328 2.18359"/></g><g clip-path="url(#o)"><path fill="none" stroke="#000" stroke-linecap="round" stroke-linejoin="round" stroke-miterlimit="10" stroke-width=".5" d="M199.75 480.3711l.5586 1.09374"/></g><g clip-path="url(#p)"><path fill="none" stroke="#000" stroke-linecap="round" stroke-linejoin="round" stroke-miterlimit="10" stroke-width=".5" d="M214.08203 480.13281l-7.01562.39453"/></g><g clip-path="url(#q)"><path fill="none" stroke="#000" stroke-linecap="round" stroke-linejoin="round" stroke-miterlimit="10" stroke-width=".5" d="M214.08203 480.13281l1.27344 2.09766"/></g><g clip-path="url(#r)"><path fill="none" stroke="#000" stroke-linecap="round" stroke-linejoin="round" stroke-miterlimit="10" stroke-width=".5" d="M213.0625 480.1875l.63672 1.05078"/></g><g clip-path="url(#s)"><path fill="none" stroke="#000" stroke-linecap="round" stroke-linejoin="round" stroke-miterlimit="10" stroke-width=".5" d="M227.39063 480.00781l-7 .64063"/></g><g clip-path="url(#t)"><path fill="none" stroke="#000" stroke-linecap="round" stroke-linejoin="round" stroke-miterlimit="10" stroke-width=".5" d="M227.39063 480.00781l1.34375 2.05078"/></g><g clip-path="url(#u)"><path fill="none" stroke="#000" stroke-linecap="round" stroke-linejoin="round" stroke-miterlimit="10" stroke-width=".5" d="M226.3711 480.10156l.67187 1.02344"/></g><g clip-path="url(#v)"><path fill="none" stroke="#000" stroke-linecap="round" stroke-linejoin="round" stroke-miterlimit="10" stroke-width=".5" d="M240.60938 479.45703l-6.8086 1.74219"/></g><g clip-path="url(#w)"><path fill="none" stroke="#000" stroke-linecap="round" stroke-linejoin="round" stroke-miterlimit="10" stroke-width=".5" d="M240.60938 479.45703l1.65234 1.8125"/></g><g clip-path="url(#x)"><path fill="none" stroke="#000" stroke-linecap="round" stroke-linejoin="round" stroke-miterlimit="10" stroke-width=".5" d="M239.61719 479.71094l.82812.90625"/></g><g clip-path="url(#y)"><path fill="none" stroke="#000" stroke-linecap="round" stroke-linejoin="round" stroke-miterlimit="10" stroke-width=".5" d="M253.89844 479.36719l-6.75781 1.92578"/></g><g clip-path="url(#z)"><path fill="none" stroke="#000" stroke-linecap="round" stroke-linejoin="round" stroke-miterlimit="10" stroke-width=".5" d="M253.89844 479.36719l1.70312 1.76562"/></g><g clip-path="url(#A)"><path fill="none" stroke="#000" stroke-linecap="round" stroke-linejoin="round" stroke-miterlimit="10" stroke-width=".5" d="M267.29297 479.69531l-6.91406 1.26953"/></g><g clip-path="url(#B)"><path fill="none" stroke="#000" stroke-linecap="round" stroke-linejoin="round" stroke-miterlimit="10" stroke-width=".5" d="M267.29297 479.69531l1.52344 1.92188"/></g><g clip-path="url(#C)"><path fill="none" stroke="#000" stroke-linecap="round" stroke-linejoin="round" stroke-miterlimit="10" stroke-width=".5" d="M280.57031 479.52344l-6.83984 1.61328"/></g><g clip-path="url(#D)"><path fill="none" stroke="#000" stroke-linecap="round" stroke-linejoin="round" stroke-miterlimit="10" stroke-width=".5" d="M280.57031 479.52344l1.61719 1.84375"/></g><g clip-path="url(#E)"><path fill="none" stroke="#000" stroke-linecap="round" stroke-linejoin="round" stroke-miterlimit="10" stroke-width=".5" d="M293.94922 479.86328l-6.96485.9336"/></g><g clip-path="url(#F)"><path fill="none" stroke="#000" stroke-linecap="round" stroke-linejoin="round" stroke-miterlimit="10" stroke-width=".5" d="M293.94922 479.86328l1.42969 1.99219"/></g><g clip-path="url(#G)"><path fill="none" stroke="#000" stroke-linecap="round" stroke-linejoin="round" stroke-miterlimit="10" stroke-width=".5" d="M292.9336 479.9961l.71484 1"/></g><g clip-path="url(#H)"><path fill="none" stroke="#000" stroke-linecap="round" stroke-linejoin="round" stroke-miterlimit="10" stroke-width=".5" d="M307.14063 479.30078l-6.71875 2.05469"/></g><g clip-path="url(#I)"><path fill="none" stroke="#000" stroke-linecap="round" stroke-linejoin="round" stroke-miterlimit="10" stroke-width=".5" d="M307.14063 479.30078l1.73437 1.73828"/></g><g clip-path="url(#J)"><path fill="none" stroke="#000" stroke-linecap="round" stroke-linejoin="round" stroke-miterlimit="10" stroke-width=".5" d="M306.16406 479.60156l.86719.86719"/></g><g clip-path="url(#K)"><path fill="none" stroke="#000" stroke-linecap="round" stroke-linejoin="round" stroke-miterlimit="10" stroke-width=".5" d="M320.26953 478.82031l-6.34765 3.01953"/></g><g clip-path="url(#L)"><path fill="none" stroke="#000" stroke-linecap="round" stroke-linejoin="round" stroke-miterlimit="10" stroke-width=".5" d="M320.26953 478.82031l1.96875 1.46094"/></g><g clip-path="url(#M)"><path fill="none" stroke="#000" stroke-linecap="round" stroke-linejoin="round" stroke-miterlimit="10" stroke-width=".5" d="M319.34375 479.25781l.98828.73047"/></g><g clip-path="url(#N)"><path fill="none" stroke="#000" stroke-linecap="round" stroke-linejoin="round" stroke-miterlimit="10" stroke-width=".5" d="M333.4375 478.54688l-6.05469 3.5664"/></g><g clip-path="url(#O)"><path fill="none" stroke="#000" stroke-linecap="round" stroke-linejoin="round" stroke-miterlimit="10" stroke-width=".5" d="M333.4375 478.54688l2.09375 1.28125"/></g><g clip-path="url(#P)"><path fill="none" stroke="#000" stroke-linecap="round" stroke-linejoin="round" stroke-miterlimit="10" stroke-width=".5" d="M346.58203 478.28125l-5.71094 4.09375"/></g><path fill="none" stroke="#000" stroke-linecap="round" stroke-linejoin="round" stroke-miterlimit="10" stroke-width=".5" d="M346.58203 478.28125l2.19922 1.08984"/><g clip-path="url(#Q)"><path fill="none" stroke="#000" stroke-linecap="round" stroke-linejoin="round" stroke-miterlimit="10" stroke-width=".5" d="M359.08984 477.47266l-4.09765 5.71093"/></g><path fill="none" stroke="#000" stroke-linecap="round" stroke-linejoin="round" stroke-miterlimit="10" stroke-width=".5" d="M358.49219 478.30469l1.21484.16406"/><g clip-path="url(#R)"><path fill="none" stroke="#000" stroke-linecap="round" stroke-linejoin="round" stroke-miterlimit="10" stroke-width=".5" d="M371.58984 477.03906l-2.46875 6.57813"/></g><path fill="none" stroke="#000" stroke-linecap="round" stroke-linejoin="round" stroke-miterlimit="10" stroke-width=".5" d="M371.23047 477.9961l1.21875-.15626"/><g clip-path="url(#S)"><path fill="none" stroke="#000" stroke-linecap="round" stroke-linejoin="round" stroke-miterlimit="10" stroke-width=".5" d="M385.53906 477.35156l-3.73437 5.95313"/></g><path fill="none" stroke="#000" stroke-linecap="round" stroke-linejoin="round" stroke-miterlimit="10" stroke-width=".5" d="M384.9961 478.21875l1.22265.08984"/><g clip-path="url(#T)"><path fill="none" stroke="#000" stroke-linecap="round" stroke-linejoin="round" stroke-miterlimit="10" stroke-width=".5" d="M397.09766 476.8164l-.22266 7.02344"/></g><path fill="none" stroke="#000" stroke-linecap="round" stroke-linejoin="round" stroke-miterlimit="10" stroke-width=".5" d="M397.0664 477.83984l1.10157-.54297"/><g clip-path="url(#U)"><path fill="none" stroke="#000" stroke-linecap="round" stroke-linejoin="round" stroke-miterlimit="10" stroke-width=".5" d="M410.17578 476.8164l.25 7.02344"/></g><path fill="none" stroke="#000" stroke-linecap="round" stroke-linejoin="round" stroke-miterlimit="10" stroke-width=".5" d="M410.21484 477.83984l1.0625-.61328"/><g clip-path="url(#V)"><path fill="none" stroke="#000" stroke-linecap="round" stroke-linejoin="round" stroke-miterlimit="10" stroke-width=".5" d="M425.96875 477.71875l-4.70313 5.22266"/></g><path fill="none" stroke="#000" stroke-linecap="round" stroke-linejoin="round" stroke-miterlimit="10" stroke-width=".5" d="M425.28516 478.47656l1.1875.29688"/><g clip-path="url(#W)"><path fill="none" stroke="#000" stroke-linecap="round" stroke-linejoin="round" stroke-miterlimit="10" stroke-width=".5" d="M438.39453 477.13281l-2.92578 6.39063"/></g><path fill="none" stroke="#000" stroke-linecap="round" stroke-linejoin="round" stroke-miterlimit="10" stroke-width=".5" d="M438.39453 477.13281l2.44922-.14453"/><g clip-path="url(#X)"><path fill="none" stroke="#000" stroke-linecap="round" stroke-linejoin="round" stroke-miterlimit="10" stroke-width=".5" d="M450.7539 476.85156l-1.01562 6.95313"/></g><path fill="none" stroke="#000" stroke-linecap="round" stroke-linejoin="round" stroke-miterlimit="10" stroke-width=".5" d="M450.7539 476.85156l2.3086-.82812"/><g clip-path="url(#Y)"><path fill="none" stroke="#000" stroke-linecap="round" stroke-linejoin="round" stroke-miterlimit="10" stroke-width=".5" d="M464.33594 476.90234l-1.54688 6.85547"/></g><path fill="none" stroke="#000" stroke-linecap="round" stroke-linejoin="round" stroke-miterlimit="10" stroke-width=".5" d="M464.10938 477.89844l1.18359-.32422"/><g clip-path="url(#Z)"><path fill="none" stroke="#000" stroke-linecap="round" stroke-linejoin="round" stroke-miterlimit="10" stroke-width=".5" d="M147.4414 467.72266l-6.8828-1.41797"/></g><path fill="none" stroke="#000" stroke-linecap="round" stroke-linejoin="round" stroke-miterlimit="10" stroke-width=".5" d="M147.4414 467.72266l.69141 2.35547m12.67969-2.71875l-6.99219-.69141m6.99219.6914l.9336 2.26563m12.39843-2.67578l-7.02734.1289m7.02734-.1289l1.1914 2.14453m12.1211-2.1836l-7.02344.20704m7.02344-.20703l1.21484 2.1289m-2.23828-2.09765l.60938 1.0625m13.72656-1.19922l-7.01562.41797m7.01562-.41797l1.27734 2.09375m-2.30078-2.03125l.64063 1.04687m13.67969-1.28125l-6.98438.76172m6.98438-.76172l1.3828 2.02735m-2.39843-1.91797l1.38281 2.03125m12.81641-2.78516l-6.71875 2.05078m6.71875-2.05078l1.73438 1.73438m-2.71094-1.4375l1.73437 1.73437m12.45313-2.33203l-6.50781 2.65234m6.5078-2.65234l1.88282 1.57031m-2.83203-1.1836l1.88672 1.57032m12.39453-1.91016l-6.54297 2.5586m6.54297-2.5586l1.86328 1.59766m-2.8164-1.22656l1.86327 1.59766m12.44532-1.85547l-6.625 2.33203m6.625-2.33203l1.8086 1.66015m-2.77345-1.32031l1.8086 1.66016m12.40234-2.1836l-6.48828 2.69922m6.48828-2.69922l1.89453 1.5586m-2.83984-1.16407l.94922.77735m13.24219-1.32813l-6.34766 3.01172m6.34766-3.01172l1.96875 1.46485m-2.89454-1.02735l1.97266 1.46485m12.25781-1.92578l-6.32812 3.05859m6.32812-3.0586l1.98047 1.44922m-2.90234-1.0039l.99219.72656M319.97266 465l-5.75391 4.02734M319.97265 465l2.1875 1.11328m-3.02343-.52734l1.09375.55469m12.71094-1.5625l-5.0625 4.875m5.0625-4.875l2.33203.7578m-3.0664-.05077l1.16405.3828m12.79297-1.1875l-4.875 5.06642m4.875-5.06641l2.35938.67187m10.23437-1.20312l-3.4336 6.1289m2.9336-5.23828l1.22657.02735m12.34765-1.04297l-2.94922 6.3789m2.51953-5.44921l1.22266-.07032m13.27734-.3828l-4.46093 5.42577m3.8125-4.63672l1.20312.2422m12.1914-1.41407l-3.32421 6.1914m2.83984-5.28906l1.22657.0039m12.83203-.75l-3.84375 5.87892m3.28515-5.02344l1.22266.10937m12.625-.98437l-3.79297 5.91797m3.79297-5.91797l2.44531.19922m11.04688-.07813l-4.14453 5.67578m4.14453-5.67578l2.42968.34766m10.62891-.51563l-3.63281 6.01172m3.63281-6.01172l2.45313.13282m10.67187-.2422l-3.25 6.23048m3.25-6.23047l2.45313-.01953"/><g clip-path="url(#aa)"><path fill="none" stroke="#000" stroke-linecap="round" stroke-linejoin="round" stroke-miterlimit="10" stroke-width=".5" d="M147.5 454.0039l-7-.60937"/></g><path fill="none" stroke="#000" stroke-linecap="round" stroke-linejoin="round" stroke-miterlimit="10" stroke-width=".5" d="M147.5 454.0039l.96094 2.25782m-1.98047-2.34766l.48047 1.1289m13.80078-.66405l-6.89453-1.35938m6.89453 1.35938l.71094 2.34765m-1.71485-2.54687l.35547 1.17578m13.96484-.97266l-6.89453-1.36718m6.89453 1.36718l.70704 2.34766m-1.71094-2.54688l.35547 1.17188m14.0039-1.23828l-6.97656-.83985m6.97656.83985l.88282 2.28906m-1.89844-2.41016l.4414 1.14454m13.88672-1.00391l-6.97265-.875m6.97265.875l.875 2.29297m-1.89062-2.42188l.4375 1.14844m13.91797-1.375l-7.02344-.16797m7.02344.16797l1.10156 2.19531m-2.1211-2.21875l.55079 1.09766m13.78125-1.36719l-7.01563.41797m7.01563-.41797l1.27734 2.09375m-2.29687-2.03125l.63672 1.04688m13.54687-1.9297l-6.71484 2.0625m6.71484-2.0625l1.73828 1.73438m-2.71484-1.43359l.8711.86719m13.36718-1.33203l-6.60938 2.39062m6.60938-2.39062l1.82031 1.64453m-2.78125-1.29688l1.82031 1.64453m12.48047-1.92187l-6.65625 2.25m6.65625-2.25l1.78516 1.6836m-2.7539-1.35548l1.78515 1.6797m12.39844-2.26563l-6.45704 2.76562m6.45704-2.76562l1.91406 1.53906m-2.85156-1.13672l1.91015 1.53906m12.26953-2.10156l-6.3125 3.08594m6.3125-3.08594l1.98829 1.4414m-2.90625-.99218l.99218.71875m13.19532-1.25781l-6.22266 3.26562m6.22266-3.26562l2.02734 1.3828m-2.92969-.90624l1.01172.6914m13.40234-.71874l-6.61328 2.36718m6.61328-2.36718l1.81641 1.65234m-2.77734-1.3086l.90625.82813m13.30468-1.34766l-6.48046 2.71875m6.48046-2.71875l1.89844 1.5547m11.0586-2.20313l-5.76954 4.01172m5.76954-4.01172l2.18359 1.12109m10.45703-1.84766l-4.41797 5.46485m4.41797-5.46485l2.41016.46485m11.89062.8086l-6.39062 2.91796m6.39062-2.91797l1.94922 1.49219m11.28125-1.66406l-6.22266 3.26562m6.22266-3.26562l2.02734 1.3828m11.13282-1.64843l-5.91016 3.79688m5.05078-3.2461l1.07031.60157m13.07813-1.19532l-5.85938 3.88282m5.00782-3.31641l1.07812.58203m12.76172-1.57031l-5.20312 4.72265m4.4453-4.03515l1.15626.41406m12.6914-1.32812l-4.7539 5.17578m4.7539-5.17578l2.375.62109m10.33204-1.0664l-3.53907 6.0703m3.53907-6.0703l2.45312.09374m10.8164-.1211l-3.4453 6.125m3.4453-6.125l2.45313.0586"/><g clip-path="url(#ab)"><path fill="none" stroke="#000" stroke-linecap="round" stroke-linejoin="round" stroke-miterlimit="10" stroke-width=".5" d="M147.44922 441.0586l-6.89844-1.35157"/></g><path fill="none" stroke="#000" stroke-linecap="round" stroke-linejoin="round" stroke-miterlimit="10" stroke-width=".5" d="M147.44922 441.0586l.71094 2.35156m12.5625-2.16407l-6.8125-1.72656m6.8125 1.72656l.58203 2.38282m12.64453-2.09375l-6.64063-2.30079m6.64063 2.30079l.3789 2.42187m12.95704-2.48437l-6.6797-2.1797m6.6797 2.1797l.42187 2.41797m13.02734-2.97266l-6.9453-1.07031m6.9453 1.0703l.8086 2.31641M214.0664 440l-6.98438.76953M214.06641 440l1.3828 2.02734m11.9375-1.98437l-6.99218.6836m6.99219-.6836l1.35937 2.04297m-2.375-1.94532l.67578 1.02344m13.52735-1.78125l-6.73828 2m6.73828-2l1.71875 1.75m-2.69922-1.45703l.85938.875m13.28125-1.58594l-6.4297 2.83594m6.4297-2.83594l1.92968 1.51953m-2.86328-1.10546l.96484.7578m13.41407-.82812l-6.6875 2.14844m6.6875-2.14844l1.76172 1.71094m-2.73438-1.39844l.8789.85547m13.10157-1.85937l-6.07422 3.53125m6.07422-3.53125l2.08594 1.29297m-2.96875-.77735l1.04297.64453m13.28125-.92578l-6.32422 3.0664m6.32422-3.0664l1.98047 1.44531m-2.90235-1l.99219.72266m13.4414-.66406l-6.71874 2.0586m6.71875-2.0586l1.73437 1.73437m-2.71094-1.4375l.86719.8672m13.51953-.78126l-6.91015 1.29297m6.91015-1.29297l1.53125 1.91797m-2.53906-1.73047l.76562.95703m13.46875-1.50781l-6.73046 2.01953m6.73046-2.01953l1.72657 1.74219m-2.70703-1.44922l.86328.8711m13.15234-1.83595l-6.17187 3.35938m6.17187-3.35938l2.04688 1.35547m-2.94532-.86718l1.02344.67968m12.4414-2.10937l-4.67577 5.2461m4.67578-5.2461l2.3828.57812m12.01173 1.22657l-6.83594 1.6328m6.83594-1.6328l1.625 1.83984m11.7461-.48438l-6.94532-1.07812m5.9336.92188l.40234 1.16015m13.94922-1.85156l-6.9961.6211m5.98047-.53126l.66797 1.02735m13.3125-2.3672l-6.29688 3.1172m5.38282-2.66407l.99609.71875m13.42188-.71875l-6.67188 2.21094m6.67188-2.21094l1.77343 1.69141m11.3711-2.10938l-6.33203 3.04688m6.33203-3.04688l1.97656 1.45704m10.86719-2.1836l-5.39063 4.5039m5.39063-4.5039l2.27343.92188m10.84766-1.13672l-5.0039 4.92969m4.27734-4.21094l1.17187.36719"/><g clip-path="url(#ac)"><path fill="none" stroke="#000" stroke-linecap="round" stroke-linejoin="round" stroke-miterlimit="10" stroke-width=".5" d="M147.21875 428.47656l-6.4375-2.8164"/></g><path fill="none" stroke="#000" stroke-linecap="round" stroke-linejoin="round" stroke-miterlimit="10" stroke-width=".5" d="M147.21875 428.47656l.1875 2.44531m12.78125-1.83203l-5.7461-4.04297m4.91016 3.45313l-.15234 1.21875m14.33984-.67969l-5.8164-3.9414m4.96875 3.36718l-.12891 1.22266m14.19531-.51563l-5.625-4.20703m4.8086 3.59766l-.1875 1.21094m14.78515-1.4414l-6.5586-2.52735m5.60548 2.16015l.14844 1.21485m14.26171-1.3086l-6.83984-1.60546M213 427.63672l.3125 1.1875m13.90234-2.89063l-6.64843 2.26954m5.67968-1.94141l.89844.83984m13.47656.78907l-6.83203-1.64454m5.83985 1.40625l.30468 1.1875m13.87891-.54687l-6.58594-2.44922m5.6289 2.09375l.16017 1.21484m14.32812-1.875l-7.01563-.41796m7.01563.41796l1.01953 2.23047m12.28906-2.17187l-7.0039-.53516m7.0039.53516l.98438 2.25m12.33594-2.71875l-7.01563.40234m7.01563-.40234l1.27343 2.09765m-2.29296-2.03906l.63671 1.04688m13.625-1.64453l-6.86718 1.48046m6.86718-1.48046l1.58204 1.87109m11.29296-2.96875l-5.98828 3.67578m5.98828-3.67578l2.1172 1.24219m11.10155-1.39453l-5.79296 3.98046m5.79296-3.98046l2.17579 1.1328m-3.01954-.55468l1.08594.5664m13.11719-1.07421l-5.88672 3.83984m5.88672-3.83984l2.14844 1.1875m-3.00391-.6289l1.07422.59374m13.41797-.53515l-6.52735 2.60546m6.52735-2.60546l1.8711 1.58593m11.66796-.70312l-6.97656.83984m5.96094-.71484l.70312 1.0039m10.5625-4.1953l-.84375 6.97265m.84375-6.97266l2.28906-.88672m14.0664 3.78907l-6.92577 1.16796m6.92578-1.16796l1.4961 1.9453m11.45702-3.01562l-6.19921 3.3086m6.19921-3.3086l2.03516 1.3711M426.45703 425l-5.67969 4.13672M426.45704 425l2.20702 1.07422m10.67969-1.5625l-4.82422 5.11328m4.82422-5.11328l2.36328.64844m10.39063-1.07813l-3.70313 5.97266m3.70313-5.97266l2.44922.16406m10.91406-.1328l-3.80078 5.91015m3.25-5.05078l1.22265.10156"/><g clip-path="url(#ad)"><path fill="none" stroke="#000" stroke-linecap="round" stroke-linejoin="round" stroke-miterlimit="10" stroke-width=".5" d="M145.60547 416.8789l-3.21094-6.25"/></g><path fill="none" stroke="#000" stroke-linecap="round" stroke-linejoin="round" stroke-miterlimit="10" stroke-width=".5" d="M145.13672 415.96875l-.69922 1.00781m14.23438.01563l-2.71485-6.48047m2.71484 6.48047l-1.55078 1.90234m14.40235-1.74219l-1.78516-6.79687m1.52344 5.8086l-.90234.83202m14.61718.1172l-2.0625-6.71876m1.76172 5.73828l-.86719.8711m16.72657-1.98047l-6.55078-2.53907m5.59765 2.16797l.14844 1.21875m11.42187 1.34766l-1.15625-6.92969m.98828 5.92188l-.97265.7461m16.08594-.47266l-4.41797-5.46485m3.77734 4.67188l-.48047 1.1289m15.32813-1.41015l-6.19531-3.31641m6.1953 3.3164l-.0078 2.45704m13.57421-3.05078l-6.69922-2.125m6.69922 2.125l.44141 2.41406m12.96875-2.78125l-6.89063-1.39063m6.89063 1.39063l.69922 2.35156m12.6836-3l-7.02735-.09375m7.02734.09375l1.1211 2.1836m12.17968-2.54297l-7 .62109m7-.6211l1.33985 2.0586m11.96093-2.1836l-6.97265.8711m6.97265-.8711l1.41407 2.00782m11.92968-1.51563l-7.02734-.10937m7.02734.10937l1.1172 2.1836m12.11327-2.9961l-6.85937 1.51563m5.86328-1.29688l.79687.9336m13.35547-1.67578l-6.54297 2.5625m6.54297-2.5625l1.86328 1.59765m11.35157-1.83593l-6.33985 3.03906m6.33985-3.03906l1.97265 1.45703m11.40235-1.32422l-6.45703 2.77344m6.45703-2.77344l1.91015 1.53515M387 412.625l-6.65625 2.25781M387 412.625l1.78516 1.67969m10.91406-2.78516l-5.42578 4.46875m5.42578-4.46875l2.26562.9375m10.85157-1.15625l-5.03125 4.90625m5.03125-4.90625l2.33593.7461m10.78907-.92579l-4.65235 5.26563m4.65235-5.26563l2.38671.57032m10.58204-.83985l-3.96094 5.80469m3.96094-5.80469l2.4414.26953m10.70703-.3789l-3.625 6.02344m3.625-6.02344l2.44922.1289m10.21094-.43359l-2.3125 6.63281m2.3125-6.63281l2.42578-.375"/><g clip-path="url(#ae)"><path fill="none" stroke="#000" stroke-linecap="round" stroke-linejoin="round" stroke-miterlimit="10" stroke-width=".5" d="M144.11328 403.94922l-.22656-7.02344"/></g><g clip-path="url(#af)"><path fill="none" stroke="#000" stroke-linecap="round" stroke-linejoin="round" stroke-miterlimit="10" stroke-width=".5" d="M144.08203 402.92969l-1.0664.60937"/></g><path fill="none" stroke="#000" stroke-linecap="round" stroke-linejoin="round" stroke-miterlimit="10" stroke-width=".5" d="M157.30078 403.95313l.03125-7.02735m-.03125 7.02735l-2.17187 1.14062m16.71093-1.35547l-2.42187-6.59765m2.42187 6.59765l-1.63672 1.82813m17.01954-3.86329l-6.5547-2.52734m5.60157 2.16016l.14844 1.21484m13.8789-.34375l-6.0703-3.53906m5.1875 3.02344l-.05079 1.22656m10.6914.9961l1.04298-6.94923m-.89063 5.9375l-1.16016.40625m17.32813-.38671l-4.96875-4.96875m4.96875 4.96875l-.71875 2.34765m14.51953-2.95703l-5.9414-3.7461m5.9414 3.7461l-.17969 2.44531m13.94922-3.53125l-6.84765-1.57812m6.84765 1.57812l.63281 2.3711m12.76954-3.26172l-7.02344.20312m7.02344-.20312l1.21484 2.13281m12.07422-2.48438l-6.96875.90625m6.96875-.90625l1.41797 2.00391m11.83203-2.34375l-6.84375 1.58985m6.84375-1.58985L295.5 401.4922m11.60547-2.19531l-6.64844 2.28125m6.64844-2.28125l1.79297 1.67578m11.59765-1.41016l-6.80078 1.7539m6.80078-1.7539l1.66016 1.8086m11.35156-2.59376l-6.1914 3.32422m6.1914-3.32422l2.03906 1.36329m10.98047-1.82032l-5.60156 4.23828m4.78516-3.625l1.11328.51954m12.89062-1.29688l-5.34765 4.5625m4.57031-3.89844l1.14062.44922m12.89844-1.17187l-5.24219 4.67968m5.2422-4.67968l2.30468.85156m10.5039-1.3164l-4.23046 5.60937m4.23047-5.60938l2.42578.38672m-3.03907.42969l1.21094.1914m13.14453-.6289l-5.08203 4.85547m5.08203-4.85547l2.32813.76953m11.1914-.53516l-5.49218 4.38282m5.49218-4.38282l2.25391.97657m10.51172-1.52735l-4.39063 5.48828m4.39063-5.48828l2.41016.45313m10.61328-.66406l-3.8086 5.90625m3.8086-5.90625l2.44531.20703m11.39062.20703l-4.85156 5.08203m4.85156-5.08203l2.36329.66015m11.14843-.45703l-5.24609 4.67188"/><g clip-path="url(#ag)"><path fill="none" stroke="#000" stroke-linecap="round" stroke-linejoin="round" stroke-miterlimit="10" stroke-width=".5" d="M466.1836 398.10156l2.30468.85156"/></g><g clip-path="url(#ah)"><path fill="none" stroke="#000" stroke-linecap="round" stroke-linejoin="round" stroke-miterlimit="10" stroke-width=".5" d="M142.54688 390.32422l2.90625-6.39844"/></g><path fill="none" stroke="#000" stroke-linecap="round" stroke-linejoin="round" stroke-miterlimit="10" stroke-width=".5" d="M156.45703 390.53125l1.71484-6.8164m-1.71484 6.8164l-2.38281.58984m16.55469-.48437v-7.02735m0 7.02735l-2.16407 1.15234m18.72657-3.32031l-6.4922-2.6914m17.32423 4.77343l-1.52735-6.85547m1.52735 6.85547l-1.86328 1.59766m16.66015-2.32422l-4.48828-5.40235m4.48828 5.40235l-.92969 2.27344m14.5625-2.57032l-5.125-4.80859m5.125 4.8086l-.64062 2.36718m14.70703-3.60156l-6.6289-2.33985m6.6289 2.33985l.36328 2.42578m13.15235-3.59375h-7.02735m7.02735 0l1.15234 2.16406m12.15625-2.35937l-7.01563.38672m7.01563-.38672l1.26953 2.09765m12.04297-2.15625l-7.01172.50782m7.01172-.50782l1.30469 2.07422m11.96875-2.40625L287 387.70703m6.92969-1.16797l1.4961 1.94531m-2.50392-1.77343l.75.97265m13.48047-1.54296l-6.74609 1.96484m6.7461-1.96485l1.71484 1.75782m-2.69531-1.47266l.85546.8789m13.48438-.99609l-6.83203 1.63282m6.83203-1.63282l1.625 1.83594m-2.61719-1.60156l.8125.92187m13.44922-1.33984l-6.73828 1.9961m6.73828-1.9961l1.71875 1.7539m-2.69922-1.46093l.85938.875M347.05469 386l-6.65625 2.2461M347.05469 386l1.78515 1.6836m-2.7539-1.35548l.89453.83985m13.4375-1.02344l-6.75 1.95703m6.75-1.95703l1.70703 1.76172m-2.6914-1.47656l.85546.88281m13.19922-1.78125l-6.26562 3.1836m6.26562-3.1836l2.00781 1.40625m-2.91796-.94531l1.0039.70703m12.84766-1.7539l-5.51563 4.35546m5.51563-4.35547l2.2461.98828m-3.05079-.35546l1.125.49609m12.82031-1.33203l-5.16797 4.76172m5.16797-4.76172l2.3164.8125m-3.0664-.11719l1.15625.40625m12.86719-1.14453l-5.08594 4.84765m5.08594-4.84765l2.33203.77344m10.65235-1.07813l-4.42188 5.46094m4.42188-5.46094l2.40625.46485m10.8164-.53907l-4.23828 5.60547m4.23828-5.60547l2.42188.38672m10.9453-.34765l-4.34374 5.52734m3.71094-4.72266l1.20703.21875m13.7539.2539l-6.36718 2.97267m5.4414-2.53907l.98047.73828"/><g clip-path="url(#ai)"><path fill="none" stroke="#000" stroke-linecap="round" stroke-linejoin="round" stroke-miterlimit="10" stroke-width=".5" d="M141.1289 375.83594l5.7422-4.05469"/></g><path fill="none" stroke="#000" stroke-linecap="round" stroke-linejoin="round" stroke-miterlimit="10" stroke-width=".5" d="M155.78125 376.96875l3.0664-6.32031m-3.0664 6.32031l-2.45313.08984m2.89844-1.0078L155 376.09374m14.27734.95703l2.70313-6.48437m-2.70313 6.48437l-2.4414.23047m2.83594-1.17188l-1.22266.11329m16.04297 1.05468l-1.09375-6.9414m1.09375 6.9414l-1.95703 1.47657m16.29687-1.8047l-3.14453-6.28515m2.6875 5.3711l-.71094 1m14.6875-.19532l-3.55469-6.0625m3.5547 6.0625l-1.28516 2.08985m15.4414-2.77735l-5.23437-4.6914m5.23437 4.6914l-.58984 2.38282m14.58203-3.5l-6.58594-2.45313m6.58594 2.45313l.32031 2.42968m13.19922-3.34375l-7-.6289m7 .6289l.95313 2.26172m12.35937-2.24219l-6.99219-.66406m6.9922.66406l.9414 2.26563m-1.95703-2.36328l.46875 1.13281m13.8789-1.40234l-7.02734.07031m7.02734-.07031l1.17578 2.15234m-2.19921-2.14453l.58984 1.07813m13.71875-1.51563l-6.96484.92969m6.96484-.92969l1.42578 1.9961m-2.4414-1.85938l.71484.9961m13.5586-1.44923l-6.85157 1.5625m6.85156-1.5625l1.60547 1.85547m-2.60156-1.6289l.80078.92968m13.48437-1.26562l-6.79687 1.78125m6.79687-1.78125l1.66407 1.80078m-2.65625-1.54297l1.66406 1.80469m12.73437-1.5664l-6.98437.78906m6.98437-.78907l1.38672 2.02344m-2.40234-1.91016l.69531 1.01172m13.64453-1.03515l-7 .60937m7-.60937l1.33594 2.05468m-2.35547-1.96875l.66797 1.03125m13.63281-1.3828l-6.9336 1.14062m6.9336-1.14063l1.48828 1.94922M359.5 373.40234l1.48828 1.95313m12.73438-2.55469l-6.73438 2.01172m6.73438-2.01172l1.72265 1.75m-2.70312-1.45703l.86328.875m13.17187-1.80078l-6.21484 3.28125m6.21484-3.28125l2.03125 1.3789m-2.93359-.90234l1.01563.6914m13.14453-1.26952l-6.09766 3.48437m6.09766-3.48437l2.07812 1.30859m-2.96484-.80469l1.03906.65625m12.9336-1.51562l-5.64063 4.19531m5.64062-4.19531l2.21875 1.05078m-3.03906-.4414l1.10938.52734m12.95312-1.23047L420.8711 376m5.4922-4.38281l2.25.97656m-3.05079-.33984l1.1289.48828m12.75391-1.38672l-5.02734 4.90625m5.02734-4.90625l2.33985.74219m-3.07032-.03125l1.16797.375m12.64453-1.3047l-4.5625 5.34376m4.5625-5.34375l2.39454.53125m11.20312-.26172L461 376.21094m4.3789-4.10547l1.16016.39453"/><g clip-path="url(#aj)"><path fill="none" stroke="#000" stroke-linecap="round" stroke-linejoin="round" stroke-miterlimit="10" stroke-width=".5" d="M140.64453 361.53125l6.71094-2.07422"/></g><path fill="none" stroke="#000" stroke-linecap="round" stroke-linejoin="round" stroke-miterlimit="10" stroke-width=".5" d="M155.16016 363.26953l4.30859-5.55078m-4.3086 5.55078l-2.41796-.42187m3.04297-.38672l-1.20703-.21094m13.54687.70703l5.01172-4.92578m-4.28125 4.20703l-1.17188-.36719m16.25 2.13672l.02344-7.02734m-.02344 7.02734l-2.17187 1.14453m16.64844-1.33984l-2.29688-6.64063m2.29688 6.64063l-1.67188 1.79688m1.33594-2.76172l-.83594.89843M213 363.03516l-4.85156-5.08594M213 363.03516l-.77344 2.32812m14.80469-3.29687l-6.28516-3.14454m6.28516 3.14454l.0625 2.44921m13.53516-3.23437l-6.84766-1.57813m6.84766 1.57813l.63672 2.3711m12.74609-2.75391l-6.98047-.8086m6.98047.8086l.89453 2.28125m-1.91016-2.40235l.44532 1.14454m13.89062-1.08985l-6.99219-.67969m6.9922.6797l.9375 2.26952m-1.95313-2.36719l.46875 1.13282m13.8789-1.35156l-7.02734-.04688m7.02734.04688l1.13672 2.17578m-2.16015-2.1797l.5703 1.08595m13.75391-1.40625l-7 .60156m7-.60156l1.33594 2.05859m-2.35156-1.96875l.66406 1.02734m13.64453-1.33203l-6.95312 1.03125m6.95312-1.03125l1.45703 1.97656m-2.46875-1.82421l.72657.98828m13.59375-1.16406l-6.94141 1.07812m6.9414-1.07813l1.47266 1.96485m-2.48047-1.8086l.73438.98438m13.54687-1.36719l-6.85937 1.53125m6.85937-1.53125l1.59766 1.86719m-2.59375-1.64453l.79687.9336m13.5-1.22657l-6.82812 1.67188m6.82812-1.67188l1.63282 1.83203m-2.6289-1.58594l.8164.91407m13.4961-1.14063l-6.83204 1.63281m6.83203-1.6328l1.625 1.83983m-2.61719-1.60156l1.6211 1.83985m12.67968-2.11329l-6.8164 1.70313m6.8164-1.70313l1.64063 1.82422m-2.63281-1.57421l1.64062 1.8203m12.54297-2.46093l-6.57031 2.48828m6.57031-2.48828l1.84375 1.61719M386 359.60938l1.84375 1.62109m12.39062-2.08203l-6.49609 2.6875m6.4961-2.6875l1.89062 1.5625m-2.83594-1.17188l1.89063 1.5625m12.36328-1.96484l-6.48438 2.71094m6.48438-2.71094l1.89844 1.55469m-2.84375-1.16016l1.90234 1.55469m12.27734-2.13281l-6.3203 3.07812m6.3203-3.07813l1.98047 1.44532m-2.90234-.9961l1.98437 1.44532m12.11328-2.14844l-6.04296 3.58594m6.04296-3.58594l2.09766 1.27734m-2.97656-.7539l2.09765 1.27343m11.94532-2.02734l-5.74219 4.04688m5.74219-4.04688l2.1914 1.10938m-3.02343-.51954l1.09375.5547m13.08203-1.10548l-5.79688 3.97266"/><g clip-path="url(#ak)"><path fill="none" stroke="#000" stroke-linecap="round" stroke-linejoin="round" stroke-miterlimit="10" stroke-width=".5" d="M466.46094 358.50781l2.17187 1.13281"/></g><path fill="none" stroke="#000" stroke-linecap="round" stroke-linejoin="round" stroke-miterlimit="10" stroke-width=".5" d="M465.61719 359.08594l1.08594.5664"/><g clip-path="url(#al)"><path fill="none" stroke="#000" stroke-linecap="round" stroke-linejoin="round" stroke-miterlimit="10" stroke-width=".5" d="M140.48828 347.03125l7.02344.29297"/></g><path fill="none" stroke="#000" stroke-linecap="round" stroke-linejoin="round" stroke-miterlimit="10" stroke-width=".5" d="M154.58594 349.39453l5.45703-4.42969m-5.45703 4.4297l-2.25781-.95704m3.05468.3125l-2.26172-.95703m18 2.86328l-.98437-6.95703m.84375 5.94531l-.99219.72266m13.66016.3125l.59375-7.0039m-.59375 7.0039l-2.25781.96484m2.34375-1.98437l-2.25782.96484m17.38281-.32031l-3.19921-6.2539m3.19922 6.2539l-1.40235 2.01172m.9375-2.92188l-.70312 1.00781m15.70312-1.125l-5.63672-4.19921m5.63672 4.19921l-.3711 2.42579m-.44921-3.03516l-.1875 1.21094m14.84766-1.625l-6.6875-2.15235m6.6875 2.15235l.43359 2.41406m-1.40625-2.72656l.21484 1.20703m14.23047-1.6836l-7.0039-.57421m7.0039.57421l.97266 2.25391m-1.99219-2.33984l.48828 1.1289m13.83984-.97656l-6.99218-.70703m6.99219.70703l.92968 2.27344M253 347.42969l.46484 1.13281m13.8711-1.08984l-7-.58985m7 .58985l.96484 2.2578m-1.98437-2.34374l.48437 1.1289m13.86328-1.21875l-7.02343-.23828m7.02343.23829l1.07422 2.20312m-2.09765-2.23828l1.07812 2.20703m13.26172-2.3086l-7.02735.03516m7.02735-.03515l1.16015 2.16015m-2.18359-2.15234l1.16406 2.16015m13.13672-2.64453l-6.95703.98829m6.95703-.98829l1.44531 1.98438m-2.45703-1.83985l1.44532 1.98047m12.82421-2.4414l-6.83984 1.6211m6.83985-1.6211l1.62109 1.84375m-2.61719-1.60547l1.6211 1.83984m12.66406-2.17578l-6.78906 1.8164m6.78906-1.8164l1.67187 1.79297m-2.66015-1.52734l1.67578 1.79296m12.66015-1.92968l-6.85156 1.5586m6.85156-1.5586l1.60157 1.85937m-2.59766-1.63281l.80078.92969m13.51172-1.15625l-6.85547 1.5586m6.85547-1.5586l1.60156 1.85937m-2.60156-1.63281l1.60547 1.85938m12.6836-2.1797l-6.8047 1.7461m6.8047-1.7461l1.65624 1.8125m-2.64453-1.55859l1.65235 1.8125m12.53125-2.44921l-6.5625 2.51171m6.5625-2.51171l1.85156 1.60937m-2.8086-1.2461l1.85157 1.61329m12.39843-2.03125l-6.51953 2.625m6.51953-2.625l1.87891 1.57812m-2.82813-1.19922l.9375.78907m13.35938-1.08594l-6.58594 2.45703m6.58594-2.45703l1.83594 1.6289m-2.79297-1.26953l1.83594 1.625m12.32812-2.24218l-6.36719 2.97265m6.3672-2.97265l1.96093 1.47656M425.875 346.125l1.95703 1.47656m12.17188-2.1289l-6.14454 3.41015m6.14454-3.41015l2.05859 1.33203m-2.95313-.83594l2.0586 1.33203M453.33203 345.5l-6.17187 3.35547m6.17187-3.35547l2.04688 1.35156m-2.94532-.86328l2.04688 1.35156m12.39453-1.33203l-6.625 2.33985"/><g clip-path="url(#am)"><path fill="none" stroke="#000" stroke-linecap="round" stroke-linejoin="round" stroke-miterlimit="10" stroke-width=".5" d="M466.875 346.00781l1.8086 1.66016"/></g><path fill="none" stroke="#000" stroke-linecap="round" stroke-linejoin="round" stroke-miterlimit="10" stroke-width=".5" d="M465.91016 346.35156l1.80859 1.66016"/><g clip-path="url(#an)"><path fill="none" stroke="#000" stroke-linecap="round" stroke-linejoin="round" stroke-miterlimit="10" stroke-width=".5" d="M140.55078 334.53906l6.89844-1.35547"/></g><path fill="none" stroke="#000" stroke-linecap="round" stroke-linejoin="round" stroke-miterlimit="10" stroke-width=".5" d="M154.11719 335.32031l6.39453-2.91406m-6.39453 2.91406l-1.94531-1.4961m17.6328 3.45313l1.64845-6.82812m-1.64844 6.82812l-2.375.61329m2.61719-1.60547l-2.37891.60937m16.77734.44531l-1-6.95312m1 6.95312l-1.98047 1.44922m15.71485-1.53515l-1.83985-6.78125m1.83985 6.78125l-1.78906 1.67968m1.52343-2.66796l-1.78906 1.67968m1.51953-2.66406l-.89453.83984m15.22266.96485l-2.79297-6.44531m2.79297 6.4453l-1.53125 1.91798m1.125-2.85547l-1.53125 1.91797m14.16015-.70313l-.60937-7m.60937 7l-2.05469 1.33594m1.96875-2.35547l-1.03125.66797m17.5625-3.88672l-6.87109 1.47656m6.8711-1.47656l1.58203 1.875m11.66015-.11719l-6.72656-2.03906m6.72656 2.03906l.47656 2.40625m-1.45312-2.70312l.47266 2.40625m13.92968-2.60547l-6.94922-1.04688m6.94922 1.04688l.82032 2.3125m-1.82813-2.46485l.8164 2.3125m13.53516-2.97265l-7.0039.57422m7.0039-.57422l1.32422 2.0664m-2.34375-1.98046l1.32422 2.0625m13-2.2422l-6.98437.76563m6.98437-.76562l1.38281 2.02734m-2.39843-1.91797l.6914 1.01563m13.61328-1.3164l-6.93359 1.14843m6.9336-1.14844l1.49218 1.94922m-2.5-1.78125l.7461.97266m13.52734-1.38672l-6.83203 1.63672m6.83203-1.63672l1.625 1.83984m-2.61719-1.60156l.8125.92188m13.42188-1.41797l-6.6875 2.15625m6.6875-2.15625l1.76171 1.70703m-2.73437-1.39453l.88281.85546m13.45703-1l-6.78906 1.82032m6.78906-1.82031l1.67188 1.79296m-2.66016-1.53125l.83594.89844m13.4961-1.03515l-6.84766 1.5703m6.84765-1.5703l1.60938 1.85546m11.58984-2.2578l-6.61328 2.375m6.61328-2.375l1.8164 1.65233m-2.78124-1.30468l.91015.82422m12.91016-2.04297l-5.69531 4.11719m5.69531-4.1172l2.20313 1.07813m-3.03125-.48047l1.10156.53907m13.4414-.41797l-6.49609 2.67969m6.4961-2.6797l1.89062 1.5625m11.53516-1.25l-6.71875 2.05079m6.71875-2.05078l1.73437 1.73828m-2.71094-1.4375l.8672.86719m13.39062-1.27344l-6.65235 2.26562m6.65235-2.26562l1.78906 1.67969m-2.7539-1.35157l.89062.83985m13.25-1.51953l-6.3711 2.96875m6.3711-2.96875l1.95703 1.47656m-2.88281-1.04297l1.95703 1.47656m12.17578-2.11719l-6.15625 3.38282m6.15625-3.38281l2.05469 1.34375m-2.94922-.85157l2.05468 1.34375m-2.94921-.85156l1.02343.67188m14.12891-1.57032l-6.25 3.21094"/><g clip-path="url(#ao)"><path fill="none" stroke="#000" stroke-linecap="round" stroke-linejoin="round" stroke-miterlimit="10" stroke-width=".5" d="M466.6875 332.25781l2.01563 1.40235"/></g><g clip-path="url(#ap)"><path fill="none" stroke="#000" stroke-linecap="round" stroke-linejoin="round" stroke-miterlimit="10" stroke-width=".5" d="M465.77734 332.72656l2.01563 1.39844"/></g><g clip-path="url(#aq)"><path fill="none" stroke="#000" stroke-linecap="round" stroke-linejoin="round" stroke-miterlimit="10" stroke-width=".5" d="M140.73438 321.84375l6.53125-2.58984"/></g><path fill="none" stroke="#000" stroke-linecap="round" stroke-linejoin="round" stroke-miterlimit="10" stroke-width=".5" d="M154.85547 323.05469l4.92187-5.01563m-4.92187 5.01563l-2.35547-.6914m3.07031-.03517l-1.17578-.34765m15.28516 1.94922l1.90234-6.76563m-1.90234 6.76563l-2.39844.52344m2.67578-1.50782l-2.39844.52344m16.97266.54297l-1.17188-6.92969m1.17188 6.92969l-1.9414 1.5m1.77343-2.50781l-1.94531 1.5m16.14844-.69532l-2.61328-6.52343m2.61328 6.52343l-1.58203 1.875m1.20312-2.82421l-1.58203 1.875m1.19922-2.82422l-.78906.9375m15.21093.80078l-3.30469-6.19922m3.3047 6.19922l-1.3672 2.03515m.88672-2.9375l-1.36718 2.03516m.88672-2.9375l-.6836 1.01953m15.20703.64063l-3.79687-5.91407m3.79687 5.91407l-1.20312 2.14062m.64844-3l-1.19922 2.14063m.64843-3l-.60156 1.0703m14.67578.84376l-3.10547-6.30078m3.10547 6.30078l-1.4336 1.99219m.98438-2.91016l-1.43359 1.99219m.98047-2.90625l-.71875.99219m16.39453-.50391l-6.02344-3.61719m6.02344 3.61719l-.125 2.45312m-.75-2.97656l-.1289 2.44922m14.74218-2.9961l-6.8711-1.47265m6.8711 1.47266l.67578 2.35937m-1.67578-2.57422l.67578 2.35938m13.71485-3.05469l-7.01953.34375m7.01953-.34375l1.2578 2.10938m-2.27733-2.0586l1.2539 2.10938m13.02344-2.64454l-6.90234 1.3125m6.90234-1.3125l1.53516 1.91407m-2.53907-1.72266l1.53516 1.91406m12.73047-2.34375l-6.79688 1.79297m6.79688-1.79297l1.66406 1.80079m-2.65234-1.53907l.83203.89844m13.42187-1.32813l-6.69922 2.12891m6.69922-2.1289l1.7539 1.71484m-2.73046-1.40625l.8789.85547m13.3125-1.4375l-6.49609 2.67578m6.4961-2.67578l1.89062 1.5625m-2.83594-1.17578l.94532.78515m13.42968-.85547l-6.72656 2.03907m6.72656-2.03907l1.73047 1.7422m-2.71093-1.44532l.86718.8711m13.28907-1.54688l-6.44922 2.79687m5.51172-2.39062l.95703.76562m13.3789-.95703l-6.61718 2.3711m5.65625-2.02735l.90625.82422m12.5-2.51172l-4.87891 5.05469m4.8789-5.05469l2.35938.67578m11.82422.66797l-6.61328 2.3711m5.65234-2.02735l.90625.82422m6.8789-1.46875l6.3672 2.96875m8.64453-4.66797l2.97265 6.36719m-2.53906-5.4414l.73828-.98048m16.44922 1.14063l-5.63672 4.19922m4.8164-3.58985l1.10938.52344m13.13672-.97265l-5.85937 3.8789m5.85937-3.8789l2.15625 1.17187m-3.00781-.60938l1.07812.58594m12.82813-1.49219l-5.33984 4.56641"/><g clip-path="url(#ar)"><path fill="none" stroke="#000" stroke-linecap="round" stroke-linejoin="round" stroke-miterlimit="10" stroke-width=".5" d="M466.23047 318.26563l2.28515.89843"/></g><path fill="none" stroke="#000" stroke-linecap="round" stroke-linejoin="round" stroke-miterlimit="10" stroke-width=".5" d="M465.45703 318.92969l2.28125.89844m-3.0586-.23438l1.14063.44922"/><path fill="#ff3030" fill-rule="evenodd" d="M366.74219 436.57813h7.6914v-10.14454h-7.6914v10.14454"/><path fill="azure" fill-rule="evenodd" d="M368.57422 428.26563h.83203v5.74218h3.19531v.73828h-4.02734v-6.48046"/><path fill="#ff3030" fill-rule="evenodd" d="M295.72656 414.38672h7.69531v-10.14453h-7.6953v10.14453"/><path fill="azure" fill-rule="evenodd" d="M297.5586 406.07422h.83593v5.74219h3.1914v.73828h-4.02734v-6.48047"/><path fill="#ff3030" fill-rule="evenodd" d="M211.39844 374.4414h7.6914v-10.14452h-7.6914v10.14453"/><path fill="azure" fill-rule="evenodd" d="M213.23047 366.1289h.83594v5.7422h3.1914v.73827h-4.02734v-6.48046"/><path fill="#ffffe0" fill-rule="evenodd" d="M306.23828 385.04297h22.17969v-10.1914h-22.17969v10.1914"/><path fill-rule="evenodd" d="M309.73828 376.6836h.50781v6.29687h-.78906v-4.49219h-1.38672v-.55469l.5586-.0664.2539-.05078.23047-.08985.20313-.14453.17187-.20703.14063-.29688.10937-.39453m4.8125 0l.23047.01954.21875.05468.20703.08985.19531.12109.1836.14844.17187.17578.30078.42187.2461.4922.17969.54687.10937.57812.03906.59375-.03906.58985-.10938.58593-.17968.55469-.2461.5-.30078.42969-.17187.17969-.1836.15234-.1953.125-.20704.08984-.21875.0586-.23047.01953-.23047-.01953-.21875-.0586-.20703-.08984-.19531-.125-.1875-.15235-.16797-.17968-.30469-.42969-.24219-.5-.17968-.55469-.11328-.58594-.03516-.58984h.83203l.02735.5625.08203.5039.1289.44532.16016.3711.1914.30077.21094.22266.22266.13672.22656.04688.22656-.04688.22266-.13672.21094-.22265.1914-.30079.16016-.37109.125-.44531.08203-.5039.03125-.5625-.03125-.5625-.08203-.5-.125-.4375-.16016-.36329-.1914-.29297L315 377.5547l-.22266-.13281-.22656-.04297-.22656.04296-.22266.13282-.21094.21484-.1914.29297-.16016.36328-.1289.4375-.08204.5-.02734.5625h-.83203l.03516-.59375.11328-.57812.17969-.54688.24218-.49219.30469-.42187.16797-.17578.1875-.14844.19531-.1211.20703-.08984.21875-.05469.23047-.01953m5.08985 0h.51171v6.29688h-.78906v-4.49219h-1.38672v-.55469l.5586-.0664.2539-.05078.22656-.08985.20313-.14453.17578-.20703.14063-.29688.10546-.39453m2.82422 2.17579h.78516l.02344-.31641.0586-.28516.09765-.2539.14062-.21485.17969-.17578.22266-.1289.26562-.07813.3086-.02734.23828.01953.22265.0625.20703.10156.1797.14063.14843.17187.11328.20703.07031.23438.02344.26562-.01953.26953-.0664.22266-.10938.1914-.15625.17188-.19922.16406-.25.16406-.63281.39063-.53907.3125-.4375.3164-.34375.32423-.26562.33593-.1914.35156-.125.3711-.06641.39062-.01954.42188h4.21094v-.74219h-3.33203l.08203-.28515.11328-.23438.14844-.20313.1875-.17968.23047-.17188.27734-.17578.71875-.41797.41407-.20312.34765-.23047.28125-.2539.21875-.26563.16406-.27735.10938-.28515.0625-.28516.02344-.28125-.04297-.38281-.1211-.34766-.1875-.3086-.25-.26171-.30468-.21484-.34375-.15625-.38281-.09766-.40625-.03516-.4336.03125-.39844.10157-.35546.16406-.3047.23437-.24609.3047-.1875.375-.11718.4453-.03907.51954"/><path fill="#ffffe0" fill-rule="evenodd" d="M213.03125 354.8125h22.17969v-10.1914h-22.17969v10.1914"/><path fill-rule="evenodd" d="M216.53125 346.45313h.50781V352.75h-.78515v-4.49219h-1.39063v-.55469l.5625-.0664.25-.05078.23047-.08985.20313-.14062.17578-.21094.14062-.29687.10547-.39454m4.8125 0l.23047.01954.21875.05468.20703.08985.19922.1211.1836.14843.17187.17578.30078.42188.24219.49218.17968.54688.11328.57812.03516.59375-.03516.58985-.11328.58593-.17968.5547-.2422.5-.30077.42968-.17188.17969-.1836.15234-.19921.125-.20703.08984-.21875.0586-.23047.01953-.22656-.01953-.22266-.0586-.20703-.08984-.19531-.125-.1836-.15234-.17187-.1797-.30078-.42968-.2461-.5-.17968-.55469-.10938-.58593-.03906-.58985h.83203l.03125.5625.08203.5039.125.44532.16406.3711.1875.30078.21094.22265.22266.13672.22656.04688.22656-.04688.22266-.13672.21094-.22265.1914-.30079.16406-.37109.125-.44531.08204-.5039.02734-.5625-.02734-.5625-.08203-.5-.125-.4375-.16407-.36329-.1914-.29297-.21094-.21484-.22266-.13281-.22656-.04297-.22656.04297-.22266.1328-.21094.21485-.1875.29297-.16406.36328-.125.4375-.08203.5-.03125.5625h-.83203l.03906-.59375.10938-.57812.17968-.54688.2461-.49219.30078-.42187.17187-.17578.1836-.14844.19531-.1211.20703-.08984.22266-.05468.22656-.01954m5.09375 0h.50781V352.75h-.78515v-4.49219h-1.39063v-.55469l.5586-.0664.2539-.05078.23047-.08985.20313-.14062.17187-.21094.14453-.29687.10547-.39454m2.82031 2.17579h.78906l.01954-.31641.05859-.28516.09766-.2539.14062-.21485.1836-.17187.22265-.13281.26563-.07813.30859-.02734.23828.01953.22266.0625.20312.10156.17969.14063.14844.17187.11328.20703.07031.23438.02734.26562-.02343.26953-.0664.22266-.10938.1914-.15625.17188-.19922.16406-.2461.16407-.63672.39062-.53515.3125-.4375.3164-.34766.32423-.26172.33593-.1914.35157-.125.37109-.07031.39063-.01954.42187h4.21094v-.74219H230l.08203-.28515.11328-.23438.14844-.20312.1875-.1797.23047-.17187.28125-.17578.71484-.41797.41797-.20312.34375-.23047.28125-.2539.21875-.26563.16406-.27735.11328-.28515.0625-.28516.01954-.28125-.04297-.38281-.11719-.34766-.1914-.30859-.25-.26172-.30079-.21094-.34765-.16015-.37891-.09766-.40625-.03515-.4375.03515-.39844.09766-.35156.16406-.30469.23438-.25.30468-.1875.375-.11328.44531-.04297.51954"/><path fill="#ffffe0" fill-rule="evenodd" d="M323.99219 345.02344h22.17969v-10.1914h-22.1797v10.1914"/><path fill-rule="evenodd" d="M327.48828 336.66406H328v6.29297h-.78906v-4.48828h-1.38672v-.55469l.5586-.0664.2539-.0547.22656-.08983.20703-.14063.17188-.21094.14062-.29297.10547-.39453m4.8164 0l.22657.01953.21875.0547.21094.08983.19531.1211.1836.14844.17187.17578.30078.41797.2461.49609.17968.54688.10938.57812.03906.58984-.03906.59375-.10938.58594-.17969.55078-.24609.5039-.30078.4297-.17188.17968-.18359.15235-.19531.1211-.21094.09374-.21875.0586-.22656.01953-.23047-.01954-.21875-.05859-.20703-.09375-.19922-.1211-.1836-.15234-.17187-.17968-.30078-.4297-.24219-.5039-.17969-.55078-.11328-.58594-.03515-.59375h.83203l.02734.5625.08203.50782.125.4414.16406.375.19141.30078.21094.22266.22265.13672.22657.04687.22656-.04687.22266-.13672.21093-.22266.1875-.30078.16407-.375.125-.4414.08203-.50782.03125-.5625-.03125-.55859-.08203-.5039-.125-.4336-.16407-.36719-.1875-.28906-.21093-.21484-.22266-.13282-.22656-.04296-.22656.04296-.22266.13282-.21094.21484-.1914.28906-.16407.36719-.125.4336-.08203.5039-.02734.5586h-.83203l.03515-.58985.11328-.57813.1797-.54687.24218-.4961.30078-.41796.17188-.17578.18359-.14844.19922-.1211.20703-.08984.21875-.05469.23047-.01953m5.08984 0h.50781v6.29297h-.78515v-4.48828h-1.38672v-.55469l.5586-.0664.25-.0547.23046-.08983.20313-.14063.17578-.21094.14062-.29297.10547-.39453m6.80469 1.6211h-.78516l-.05469-.21485-.08203-.1836-.10546-.16015-.12891-.13281-.14844-.10156-.16015-.07422-.16797-.04688-.17188-.01171-.32812.03906-.28907.1211-.24609.1953-.20313.26563-.16015.33984-.11328.40235-.07031.46875-.02344.52734.1875-.20313.1875-.16015.1836-.1211.1875-.08984.1875-.0586.1914-.03906.40234-.02343.30469.03125.32031.09375.3164.15234.29688.21875.2539.28516.19923.35156.07031.19922.05469.21875.02734.23437.00781.25-.78906.04688-.02734-.25781-.07813-.25-.1211-.23438-.16015-.21094-.19531-.17968-.21875-.13672-.23828-.08594-.25781-.03125L342 339.75l-.24219.08594-.21875.13672-.1914.17968-.16016.21094-.125.23438-.07813.25-.02343.2578.02344.26173.07812.25.125.23437.16016.21094.1914.17578.21875.13672.24219.08984.2539.03125.25782-.03125.23828-.08984.21875-.13672.19531-.17578.16016-.21094.1211-.23437.07812-.25.02734-.26172.78906-.04688-.03125.3711-.09375.375-.15625.35547-.22265.32812-.29297.28516-.16797.11719-.1875.10156-.20703.08594-.22266.05859-.24219.03906-.26171.01563-.28125-.01954-.26172-.04687-.23828-.07422-.21485-.10547-.19531-.13281-.17188-.15625-.15625-.17969-.1328-.19922-.1172-.22265-.10156-.24219-.14453-.53516-.08594-.59375-.02734-.64062.03906-.74219.11328-.66406.1875-.57813.1211-.2539.13672-.23438.15234-.20703.17188-.17969.18359-.15625.20312-.1289.21875-.10156.23047-.07422.25-.04297.26172-.01563.36719.03125.33203.09766.29297.15234.25781.19922.21094.23828.16406.27735.11719.30078.0625.32422"/></g></defs><use xlink:href="#as"/></svg>