<svg xmlns="http://www.w3.org/2000/svg" role="img" xmlns:xlink="http://www.w3.org/1999/xlink" viewBox="142.45 309.95 326.84 171.84"><defs><clipPath id="a"><path d="M144 447h1v33.32813h-1zm0 0"/></clipPath><clipPath id="b"><path d="M144 311.67188h1V437h-1zm0 0"/></clipPath><clipPath id="c"><path d="M144 311.67188h324v168.65625H144zm0 0"/></clipPath><clipPath id="d"><path d="M380 454h21v26.32813h-21zm0 0"/></clipPath><clipPath id="e"><path d="M389 478h7v2.32813h-7zm0 0"/></clipPath><clipPath id="f"><path d="M467 311.67188h1v168.65625h-1zm0 0"/></clipPath><clipPath id="g"><path d="M144 479h4v1.32813h-4zm0 0"/></clipPath><clipPath id="h"><path d="M147 480h2v.32813h-2zm0 0"/></clipPath><clipPath id="i"><path d="M146 480h2v.32813h-2zm0 0"/></clipPath><clipPath id="j"><path d="M153 480h9v.32813h-9zm0 0"/></clipPath><clipPath id="k"><path d="M160 480h3v.32813h-3zm0 0"/></clipPath><clipPath id="l"><path d="M166 479h9v1.32813h-9zm0 0"/></clipPath><clipPath id="m"><path d="M173 479h3v1.32813h-3zm0 0"/></clipPath><clipPath id="n"><path d="M180 480h8v.32813h-8zm0 0"/></clipPath><clipPath id="o"><path d="M187 480h2v.32813h-2zm0 0"/></clipPath><clipPath id="p"><path d="M193 479h9v1.32813h-9zm0 0"/></clipPath><clipPath id="q"><path d="M200 480h3v.32813h-3zm0 0"/></clipPath><clipPath id="r"><path d="M206 479h9v1.32813h-9zm0 0"/></clipPath><clipPath id="s"><path d="M213 480h2v.32813h-2zm0 0"/></clipPath><clipPath id="t"><path d="M220 479h8v1.32813h-8zm0 0"/></clipPath><clipPath id="u"><path d="M226 480h1v.32813h-1zm0 0"/></clipPath><clipPath id="v"><path d="M233 479h8v1.32813h-8zm0 0"/></clipPath><clipPath id="w"><path d="M240 480h2v.32813h-2zm0 0"/></clipPath><clipPath id="x"><path d="M246 479h9v1.32813h-9zm0 0"/></clipPath><clipPath id="y"><path d="M253 480h3v.32813h-3zm0 0"/></clipPath><clipPath id="z"><path d="M252 480h2v.32813h-2zm0 0"/></clipPath><clipPath id="A"><path d="M260 479h8v1.32813h-8zm0 0"/></clipPath><clipPath id="B"><path d="M267 480h2v.32813h-2zm0 0"/></clipPath><clipPath id="C"><path d="M266 480h2v.32813h-2zm0 0"/></clipPath><clipPath id="D"><path d="M273 480h8v.32813h-8zm0 0"/></clipPath><clipPath id="E"><path d="M280 480h3v.32813h-3zm0 0"/></clipPath><clipPath id="F"><path d="M286 480h9v.32813h-9zm0 0"/></clipPath><clipPath id="G"><path d="M293 480h3v.32813h-3zm0 0"/></clipPath><clipPath id="H"><path d="M300 480h8v.32813h-8zm0 0"/></clipPath><clipPath id="I"><path d="M307 480h2v.32813h-2zm0 0"/></clipPath><clipPath id="J"><path d="M313 479h8v1.32813h-8zm0 0"/></clipPath><clipPath id="K"><path d="M320 479h3v1.32813h-3zm0 0"/></clipPath><clipPath id="L"><path d="M326 479h9v1.32813h-9zm0 0"/></clipPath><clipPath id="M"><path d="M332 480h2v.32813h-2zm0 0"/></clipPath><clipPath id="N"><path d="M340 478h8v2.32813h-8zm0 0"/></clipPath><clipPath id="O"><path d="M354 477h6v3.32813h-6zm0 0"/></clipPath><clipPath id="P"><path d="M368 476h4v4.32813h-4zm0 0"/></clipPath><clipPath id="Q"><path d="M382 476h4v4.32813h-4zm0 0"/></clipPath><clipPath id="R"><path d="M393 478h8v2.32813h-8zm0 0"/></clipPath><clipPath id="S"><path d="M408 476h4v4.32813h-4zm0 0"/></clipPath><clipPath id="T"><path d="M420 477h7v3.32813h-7zm0 0"/></clipPath><clipPath id="U"><path d="M436 476h2v4.32813h-2zm0 0"/></clipPath><clipPath id="V"><path d="M448 476h5v4.32813h-5zm0 0"/></clipPath><clipPath id="W"><path d="M462 476h4v4.32813h-4zm0 0"/></clipPath><clipPath id="X"><path d="M144 466h4v2h-4zm0 0"/></clipPath><clipPath id="Y"><path d="M144 453h4v2h-4zm0 0"/></clipPath><clipPath id="Z"><path d="M144 439h4v3h-4zm0 0"/></clipPath><clipPath id="aa"><path d="M144 426h4v2h-4zm0 0"/></clipPath><clipPath id="ab"><path d="M144 412h4v4h-4zm0 0"/></clipPath><clipPath id="ac"><path d="M144 397h3v7h-3zm0 0"/></clipPath><clipPath id="ad"><path d="M465 397h3v3h-3zm0 0"/></clipPath><clipPath id="ae"><path d="M144 385h4v4h-4zm0 0"/></clipPath><clipPath id="af"><path d="M466 384h2v3h-2zm0 0"/></clipPath><clipPath id="ag"><path d="M144 373h4v2h-4zm0 0"/></clipPath><clipPath id="ah"><path d="M466 371h2v3h-2zm0 0"/></clipPath><clipPath id="ai"><path d="M144 359h4v3h-4zm0 0"/></clipPath><clipPath id="aj"><path d="M466 358h2v3h-2zm0 0"/></clipPath><clipPath id="ak"><path d="M144 344h3v6h-3zm0 0"/></clipPath><clipPath id="al"><path d="M466 345h2v3h-2zm0 0"/></clipPath><clipPath id="am"><path d="M465 345h3v4h-3zm0 0"/></clipPath><clipPath id="an"><path d="M144 330h1v8h-1zm0 0"/></clipPath><clipPath id="ao"><path d="M144 337h1v3h-1zm0 0"/></clipPath><clipPath id="ap"><path d="M466 332h2v3h-2zm0 0"/></clipPath><clipPath id="aq"><path d="M144 317h3v7h-3zm0 0"/></clipPath><clipPath id="ar"><path d="M465 317h3v3h-3zm0 0"/></clipPath><g id="as" clip-path="url(#clip1)"><path fill="#fff" fill-opacity="0" fill-rule="evenodd" d="M0 0h1000v1000H0zm0 0"/><path fill="#d3d3d3" fill-opacity="0" fill-rule="evenodd" d="M162.15234 355.86719l-.23437.29297.0586.23437.11718.17188.17578.23437.29297.34766.11328.0586.11719-.17188.0586-.23438.17577-.17578.46485-.17578h.69922l.23437.29297.28906.8164.0586.17579.17578.23046.35156.23438.69922.69922.17188.17578.23437.34765.23438.41016.28906.58203.41015.46485.23047.23437.23438.17578.11719.23047.17578.29297.17187 1.16406v.23438l.0586.28906.05859.11719.11719.11719.34765.41015.11719.17188.17578.17578.17578.23437.11719.17188.17188.35156.05859.23438.23437.40625.23438-.0586-.17578.17578-.0586.92969h-.58203l-.23437-.11328-.34766.11328-.11719.11719-.05859.29297-.0586.17578-.11718.17187-.46484.29297-.0586.23438-.0586.11328v.64453l.0586.17187v.41016l.0586.0586v.40624l.05859.40625.11719.17579.05859.05859.23047.64062-.0586.29297v.69922l-.05859.58203v.23438l-.0586.23047-.05468.35156v1.92187l.05469.1172h.42578l-.36719.11718-.02344.35156.89063 1.16797 1.74219.53906 1.33984.35938v.53906l.08984.8086.53516.71484 1.51953.26953.89063-.08594.08984 1.16406.53516.1797 1.16015-.1797 2.05469-.98437 1.16016-.36328 1.8789-.17578 1.69531-.1797-.17968.71876-1.51563.08594-1.25.08984-.80469.26953-1.07421.8086.26953.71875.53515.89843-.17968.625-.26563.8086.26563 1.07812.625.89844.80468.17969 1.25-.1797-.26562.72267.09766.5039.05468.29297v.17188l.0586.29296v.40625l.17578.1172.35156.11718h.40625l.29297-.17578.11328-.11719.0586-.11719.11718-.23047.0586-.17578.35156-.46484.23047-.17578.17578-.0586.17578.0586.0586.17578.11718.98828.05469.46875.0586.17188.11718.23437.17578.0586.8164.05859h.28907l.11719.23437.05859.40625.0586.35156v1.10547l.11718.29297.11719.34766.28906.69922.17578.35156.58203.7539.35157.17579.17187.0586.46875.23437.64063.46484.34765.23438.29297.17578.29297.05468.23047.0625.8164.34766.29297.17578.11328.17188.35157.35156.11719.17578.52343.64063v.28906l.0586.35156v.34766l.05859.35156.0586.28906.11718.0586.17188.05859h.17578l.58203.23437.17578.1172.17578.28905.17578.23438.11328.23437.29297.23047.11719.11719v.41016l.0586.05468.28906.23438.23437.11719.0586.11718.11718.17188.0586.11719.23047.23437.05859.17578.23437.0586.1172.05859-.1172.11328-.05859.11719v.11719l-.11719.29296-.11719.28907v.58203l.17579.11719.11718.05859.0586.11719.11719.11719.11328.05859.17578.34765.0586.35157.05858.40625v.17578l-.05859.17578-.11719.69922v.17187l.1172.17579.29296.29296h.40625l.17578.1172.11719.17187.11719.29296v.23438h-.52735l-.23047-.23438h-.23437l-.17578.0586-.0586.69922.0586.34765.11719.17579.17578.41015.11718.23047.28907.46875.17578.05469h.52344l.23437.0586.75781.64062.0586.29296v.23438l.05859.0586.23047.34765v.35156l-.11719.17188v.29297l.29297.28906.29297.17578.17187.0586.29297.17577.29297.1172.58203.40624.28906.23438.29297.17578.21875.16015.01563.01172.23047.17579.64062.52343.17578.23438.1172.17578.17577.17578.11328.17188v.64062l.1172.17578.46874.11719.58203.11719.23438.05859.23047.11328.29297.11719.11328.0586.58593.35156.28907.17187.17578.0625.17578.05469.17578.0586.69922.35155.28906.17579.23438.05468.28906.17578.23437.1172.64063.40624.29297.11719.17187.0586.23438.05859.41015.05859.23047.0586.23438.11718.0586.17188-.41017.17578.46875.0586.0586.29296.11328.23438.17578.05468.23438.0586.17578.05859.40625.11719.64062.23437.11719.17188.0586.23437v.17578l-.0586.1172-.0586.40624.23438.23438.11719.05859.34766.11719.64062.23047.17578.11718.28906.1172.17578.17577.23438.46485.58203 1.10546.17578.17579.34766.17578.17578.11719.35156.11718 1.04688.52344.23437.0586.46485.11327.29297.0586.46484.17578.75781.58203.23438.23438.34765.46484.17578.17578.28907.23438.8164.69921.29297.17579.28906.28906.29297.17578.29297.28906.69531.64063.17578.17578.29297.23437.28907.23438.46875.28906.64062.58203.34766.23438.23437.29297.34766.34765.35156.46485.9336.99218.34765.40625.11719.17579.23437.05859.11328.11719.64454.17578.23047.11328.23437.0586.29297.17577.23047.1172.9336.69921.40624.40625.23438.17578.40625.17578.23437.11719.8164.34766.34766.23437.23438.11719.29297.28906.23047.11719.7578.35156.35157.17188.23047.05859.29297.11719.23437.0586.8711.17577h.8164l.46875.23047.17188.0586.875.69921.46484.1172.29297.05858.17578.0586.23047.0586.46875.05859.34766.05859.35156.0586.40625.05859h.29297l.17187.0586v.23046l.17578.17578h.29297l.34766.0586.35156.05859.69922.11719h.64063l.46484-.23438.29297-.17578.17187-.11719.41016-.17187.28906-.17578.9336-.46485.46875-.29297.52343-.29296.46485-.17188.46484-.17578 1.05078-.46485.28906-.11718.41016-.11719.28906-.11719.52735-.17578 1.51562-.69922.58203-.34765.28907-.0586.29297-.0586.34765-.11718.875-.23047.35156-.11719h.11329l.23437-.05859.875-.23437.23438-.0586h.8125l.35156-.0586.8164-.11718.17188-.0586.35156-.05468.29297-.0586.23047-.05859.8164-.17578.17579-.0586h.34765l.23438-.05859.46484-.11718.75781-.17188.23438-.0586h.34765l.41016-.11718.28906-.0586 1.28516-.05859h.28906l.41016-.0586.23047-.05858h.17578l.875-.1172h.40625l.41015-.11718h.34766l.35156-.11328.8711-.0586h1.75l1.04687.28907.41016.11719.28906.11718.35156.11719.28907.11719 1.05078.17187.28906.0586h.29297l.29297.05859.17187.0586.41016.05859.17187.0586.1172.05858h.11718l.11719.0586.35156.0586h.11328l.41016.0664 1.92187.39453 1.92578.39453 1.51953.44922 1.69532.71875 2.14453.80469 1.60547-.71875 1.42968-.80469 1.16016-1.07813 1.25-.44921 3.03516-.71875 1.875-.35938 2.14453-1.34765 2.23437-1.25391 2.5-1.25781 1.69531-.44922 1.78516-.17969 1.16016-.26953.625.53906 1.33984-.26953.71485-.98828.98437-1.34375.44531-.17969.80469-.35937 1.875-.53907 1.78516-.44921 1.25-.26954 1.16015-.08984 1.69922-.08984 1.96094-.26954 1.25-.08984h.53906l.625-.08984h.89063l2.14453-.17969 2.41015-.17969 2.58985-.08984 1.69531.17969 1.60938.08984 1.42968.35938 1.16016.71875 1.875.98828 1.16015 1.52734.26563.71484.6289.08985.35548.89844.53515.53906.53516 1.52734 1.07422.35938h.53515l-.80469.53515.08985 1.70703.71484 2.69532.89063.80468.89453.98829.71484 1.2578 1.78516.53907 1.51953-.17969.35547 1.34375 1.60937-.80469.98047-.53906.26953.26953.31641-.21484.21875-.14453.80078.44922.44922-.35938h.35547l.53515-.26953.53907-.71875.53515-.26953.625-.98828 1.16016.44922.83984.3711 1.39454.61718 1.6953-.17969h1.60548l1.78515.08985.17969-1.70704.53516-1.34375.80468.26954.4922.84765.40233.40625-.08984.53906v.35938l.71485.44922.71093-.26953h1.42969l.35938.98828.4453 1.25781.71485 1.34375 1.25.6289 1.69531.62891.71485-.17969.17969-.53906.98046-.08984.44922.35937.08594 1.25782-.26563.6289-.53515.17969v.53906l.71484.98438.26563.53906.98437.98828.80078 1.07813-.26562.35937-.08985.89844-.625 2.33203-.35546 2.0664-.08985 1.79298-.17969.71875-.08984.53906v1.4375l-.98047 1.88281-.35937 1.70703-.53516.89844-.80469 1.16797-.26562.53906 2.05469 1.2539.08593.35938-.35546.53906-.08985-.17968v.80859l.08985 1.4375-.44532.71484-1.07422.09375-.26562.71485.53515.89844.8047.71875 1.16015.80859 1.33984.26953.44531.35938-.35546.44921-1.78907-.08984-1.25-.44922-.71484-.71875-.625-.08984-.17578 3.58984-.1875 1.3086h89.35937V311.70313h-55.26953v49.08203l.76172.125 3.28906.54296 2.02344 2.83594v2.7539l2.35156.33204 2.34766.33203h4.05078l-1.3789 4.16016-2.02344.70703-2.02344.70312-.54297.34375-2.59375 1.6172-.1875.11718-2.02344-2.07813-.73046-2.74218-2.67188-2.07813-1.375-3.5-.0664-.08203-1.95704-2.67188 2.75-1.41796v-49.08204H294.42187v91.41407l.1172.03125.1328.01172.07422.07421.10547.04688.08985.0586.08593.05859.08985.0586.29687.29687.0586.08984.03125.11719.02734.11719.01563.13671-.03125.1172-.0586.08983-.0586.08594-.04296.10547-.04688.10156-.02734.1211v.14453l.17578.26953.14844.14844.07422.08594.07422.07421.04296.10547.0625.08985.0586.08593.04297.10547.0586.08985.04687.10156.04296.10547.0586.08594.11719.17968.07421.07422.0625.08594.0586.08984.04297.10547.0586.08985.05858.08593.0625.08985.0586.08984.04297.10156.11719.17969.07421.07422.0586.08594.07422.07421.08984.0586.10547.04687h.14844l.1328-.01562.13282.01562.10156-.04687.07422-.07422.04688-.10156-.01563-.13281v-.14844l-.04687-.10547-.02735-.11719-.04687-.10156-.02735-.1211-.04296-.10156-.0625-.08984-.04297-.10156-.04297-.10547-.03125-.11719-.01563-.13281-.01171-.13672.08593-.0586.0586-.08593.12109-.03125.04297.10547.01562.1328v.1172l.0586.10156.0586.08984.08983.0586.14844.14843.0586.08985.04296.10547-.01171.10156.08593.0586.10547.04687.08594.0586.08984.05858.07422.07422-.11719.02735-.10546.04687-.08594.0586-.07422.07421-.0586.08985-.0625.08594-.02734.12109-.04687.10156-.04297.10547-.03125.11719-.01172.13281-.01563.13281v.14844l.02735.11719.04687.10547.04297.10156.0586.08984.07421.07422.08985.0586.07422.07421.08984.0586.0586.08984.04296.10547.04688.10156.11719.03125.1328.01563h.14845l.11718-.03125.10547.04297.04297.10547.04688.10156.02734.1211L299.5 410l.02734.11719.03125.1211.02735.11718.10547.04297.10156.04687.13281-.01562.14844.14844.0625.08593.07422.07422.07031.07422.08984.0625.10547.04297.10156.04297.1172.03125.13671.01562.11719-.03125.07422-.07422.02734-.11718-.01172-.13282-.03125-.12109-.02734-.11719.04297-.10547h.11719l.08984.0625.11719.02735h.14843l.13282.01562h.14843l.13282.01563.1328-.01563h.14845l.1328-.01562.13282-.01172.13672.01172.11719-.02735.13281-.01562.1914-.0586-.05859.17579-.01562.1328-.02735.1211-.01562.13281-.0586.08594-.1328.01563-.10548.04687-.10546.04297-.1172.03125-.11718.02735-.26563.03125h-.14843l-.13281.01562-.07422.07422.05859.08594.14844.14843.11719.1797.07421.0703.08985.0625.08984.0586.08594.0586.08984.05858.10156.04297.10547.0625.10547.04297.08594.0586.10547.04687.10156.04297.17969.11719.0586.08984-.04298.10156-.04687.10547.01562.13281.22266.22266.0586.08985.04296.10156.03125.1211.04297.10155.01563.13282.03125.11718.01171.13672.03125.11719.14844.14844.10156.04297.10547.04296.1172.03125.1328.01563.13672.01563h.11719l.11719-.03125.08984-.0586.04297-.10547.04688-.10156.04296-.10547.03125-.11719.01172-.1328v-.14845l-.01172-.1328-.01562-.13282-.03125-.11719-.04297-.10547-.04688-.10547-.04296-.10156-.04297-.10547-.01563-.13281.01563-.13281.02734-.11719.03125-.11719.02735-.1211.04687-.10155.08984-.0586.08594-.0625.07422-.07422.08984-.05859.22266-.22266.0586-.08593.07421-.07422.11719-.17969.0586-.08594v-.14844l-.07423-.07421-.10156-.04688-.10547-.04297-.10156-.04297-.0586-.08984-.04687-.10547-.02734-.11719.08984-.05859.11719-.03125.10156-.04297.17969-.11719.14844-.14843.01172-.13282-.01172-.10546-.08985-.0586-.1328.01563h-.14845l-.1328.01562-.13282-.01562-.1211-.03125-.08593-.0586-.07422-.07422-.0586-.08984-.0625-.08594-.11718-.17969-.0586-.08593.03125-.1211.08594-.05859.1211-.03125.05859-.08594v-.1211l-.03125-.11718-.0586-.08984-.05859-.08594-.04687-.10547-.02735-.11719-.01562-.1328.0586-.08985.07421-.07422.08984-.0586.1172-.17968.07421-.07422.0586-.08594.14843-.14844.1211-.03125.1328-.01562.13282.01562.07422.07422.04297.10547.01562.13281-.03125.1172-.11719.03124-.1328.01172-.14844.14844-.04297.10547-.04688.10156-.02734.1211-.03125.11718v.14844l.03125.11719.04297.10546.05859.08985.07422.07031.07422.07422.11719.03125.12109.02734.11719-.02734.1328-.01563h.1172l.08984.0586.07422.07422.04687.10546.0586.08594.10156.04688.13281.01562.10547.04297.08594.0586-.01172.10546-.07422.07422-.17969.11719-.05859.08984-.08984.0586-.07032.07422-.07421.07421-.0625.08985-.02735.11719-.01562.1328.01562.13282-.01562.13281v.14844l.01562.13281.02735.1172.03125.12108.07421.07422.08985.0586.08594.0586.08984.05858.11719.03125v.08594l-.10157.04688-.08984.0586-.26563.03124-.11718.02735h-.14844l-.10547.04296-.10156.04688-.0586.08984-.0625.23438-.01171.13281-.03125.1211-.01563.1328v.29298l-.01172.1328.01172.13673.01563.1328.1328.01563.13282.01172.1211.03125.08593.0586.07422.07421.04688.10547.04296.10157.01563.1328v.44532l-.01563.13281v.44532l.03125.26562.02735.11719.01562.13281.03125.11719.08594.21094.03125.26562v.14844l-.03125.11719-.02734.11718-.03125.1211-.02735.11719-.03125.11718-.03125.1211-.01171.1328-.01563.13282.08984.0586.1172-.03125.10155.01562.04688.10547-.03125.26562v.44141l-.04297.10547-.04688.10547-.04296.10156-.04297.10547-.0586.08594-.03125.12109-.04296.11719-.03125.11719-.01563.1328.01563.13282.05859.08984.10547.04688.08594.0586.05859.08593-.01172.13672-.03125.11719-.04297.10156v.44531l-.01562.13281v.14844l-.03125.11719-.04297.10547-.02735.11719-.04687.10546-.04297.10157-.03125.12109-.02734.11719-.03125.13281-.03125.11719-.02735.11719-.04297.10546-.03125.1172-.03125.12108-.01171.13282-.01563.13281v.29688l.02734.11718v.14844l.04688.39844.02734.11719.0586.08984.12109.03125h.14844l.13281-.01563.0586.08985v.11719l-.0586.08984-.08984.0586-.10157.04296-.10546.04688-.08985.05859-.08594.0586-.13671.01562-.1172-.03125-.1328-.01563-.10157.04688-.0625.08594-.01172.13671-.01562.13282-.03125.11719-.02735.11718-.01562.13281-.03125.1211v.29687l.01563.13282.03125.11718v.14844l.01171.13281v.14844l-.02734.11719-.04688.10156-.02734.1211-.03125.11718-.0586.08985-.07421.07421-.10156.04297-.10547.04688-.11719.02734-.1211.03125-.10156-.04687.0586-.08594.10547-.04688.02734-.11718.03125-.11719.02734-.1211.03125-.11718v-.14844l.01563-.13281-.03125-.11719-.04297-.10547-.10547.01563-.07422.07422-.10156.04296-.08984.0625-.07422.07422-.04297.10157-.01563.1328-.03125.1172L304.25 426l-.03125.11719-.02734.11719-.03125.12109-.02735.11719-.03125.11718-.04297.10547-.08984.0586h-.08984l-.1172-.03125-.03124-.08594.01562-.13672-.03125-.11719v-.14844l-.01171-.1328v-.14844l-.0625-.23438-.02735-.1211-.04297-.10156-.04687-.10546-.0586-.08594-.05859-.08985-.04297-.10546-.0625-.08594-.14844-.14844-.0703-.07422-.10548-.04687-.10547-.04297-.10156-.04297-.29687-.29688-.08985-.07421-.08594-.0586-.10546-.04297-.08985-.0625-.08594-.0586-.10546-.04296-.08985-.0586-.08594-.0625-.07421-.0703-.10547-.04688-.08594-.0586-.10547-.04296-.08984-.0625-.10156-.04297-.10547-.04297-.08594-.0586-.10547-.04687-.10547-.04297-.10156-.04687-.08985-.0586-.10156-.04297-.10547-.04296-.08984-.0625-.11719-.02735-.13281-.01562-.13281.01562H299.75l-.13281.01563-.11719-.03125-.08984-.0586-.07422-.07422-.08985-.05859-.10156-.04688h-.14844l-.12109-.02734-.10156-.04297-.07422-.07422-.11719-.17968-.08984-.0586-.10156-.04297-.08985-.0625-.10547-.04296-.08984-.0586-.08594-.0586-.10547-.04687-.0586-.08594-.05858-.08984-.04297-.10547-.04688-.10156-.07422-.07422-.08594-.0586-.07421-.07421-.08985-.0586-.22265-.22265-.04297-.10547-.03125-.26563.10547-.04296h.14453l.10547.04296.07421.07422.08985.0586.08594.0586.10546.04687.08985.05859.14844.14844.0703.07422.14845.14843.0625.08594.07421.07422.08594.0586.07422.07421.08985.0625.08984.0586.08594.05859.26953.17578.10156.04688.10547.04296.10156.04297.04688-.07421.05859-.08594.07422-.07422.07031-.07422.10547.04297.07422.07422.0586.08984.04296.10156.04688.10547.04296.10547.1211.02735.11719-.02735.07421-.08984.04297-.10547.0586-.08985.07422-.07421.10546-.04297.1172-.02735.1328.01172.08985.0586.14844.14843.05859.08985.04297.10547.04687.10156.04297.10547.04297.10156.10547.04688.10547.04296.13281.01563.08594-.0586.0586-.08984.07421-.07422.10547-.04297.11719.02735.10547.04687.10156.04297.10547.04297.10156.04688.17969.11718v.11719l-.01563.13281.01563.13281.01562.13672.0586.08594.10156.04688.1211.02734.11718.03125h.14844l.11719-.03125.05859-.08984.17969-.1172.05859-.08983.07422-.07422.0586-.08594.11718-.17969.17969-.11719.11719.03125.08984.0586.04297.07422-.01563.1328v.1172l.08985.05859h.14843l.13282-.01563.1328-.01171.26563-.03125.10547-.04297.11719-.03125.1211-.02735.07421-.07421.07031-.07422.0625-.08985-.01562-.10547-.04688-.10156-.10156-.04297-.10547-.01562-.11718.02734-.26563.03125h-.14844l-.07421-.07422-.08985-.0586-.11719-.03124-.11718-.02735-.13282-.01562h-.14843l-.13282.01563h-.29687l-.10547-.04688-.14844-.14844-.04297-.10156-.05859-.08984.22266-.22266.08593-.0586.10547-.04296.11719-.03125.13281-.01563.13281.01563.13672.01562.10157.04297.1328-.01172.08985-.0625.10156-.04297.0625-.08984-.04687-.10156-.08984-.0586-.1172-.03125-.10155-.04296-.0586-.08985-.0625-.08984v-.11719l.01563-.13281.10547-.04688.07421-.07031v-.1211l-.08984-.05859-.03125-.11719.08985-.05859.07421-.07422.04297-.10547.0586-.08984.04687-.10156.01563-.13281v-.14844l-.04688-.10547-.04297-.10156-.08984-.0586-.13281-.01562-.10157-.04297-.13671-.01563-.1172-.03125h-.4453l-.13282-.01562-.13281-.01172-.13281-.01563-.11719-.03125h-.14844l-.13281-.01562-.13281-.01172-.26563-.03125-.1211-.04297-.08593-.0586-.07422-.07421v-.14844l.01172-.13281.10547-.04688.10156-.04296.13281-.01563h.15235l.13281-.01562h.29297l.1211.03125.10156.04296.08984.0586.23438.0625.12109-.04688.08984-.05859.10156-.04297.13282-.01562.10547.04296.10156.04688.13281.01172.1211-.02735h.14453l.12109-.03125.11719-.02734.10547-.04687.07421-.07422.08594-.0586.14844-.14843.0586-.08594.04687-.10547.02734-.11719.01563-.10547-.10156-.04296-.08985-.0586-.11719-.03125-.10546-.04297-.08985-.0625-.07422-.08594-.07422-.07421-.10156-.04297-.10547-.04688-.10156-.04297-.0586-.08984-.04687-.10156-.08594-.21094-.0625-.08594-.05859-.08984-.07422-.07422-.08594-.0586h-.26953l-.11719.03126-.08984.05859-.10156.04297-.13281.01562-.10547-.01562-.02735-.11719-.0625-.08984-.11718-.03125-.10157-.04297-.14843-.14844-.03125-.11719-.01563-.10546.07422-.07422.17969-.1172.11719-.02733.11718-.03125.13672.01562.10156.04297.10547.04297.10156.04687.10547.04297.1172.03125.1328.01563.1172.02734.1328.01563.10547-.01563.08985-.0586-.07422-.07421-.10547-.04297-.07422-.07422-.07422-.08984-.14844-.14844-.08593-.0586-.08985-.05859-.07422-.07422-.08984-.0586-.10156-.04687-.1211-.02734-.10156-.04688-.10547-.04296-.11719-.03125-.10156-.04297-.1211-.03125h-.14843l-.11719.03125-.10546.04297-.08594.0625-.17969.11718-.08594.0586-.08984.0586-.10547.04687-.08594.05859-.10547.04297-.10156.04297-.10547.04687-.07422.07422-.05859.08985-.0586.08593-.04687.10547-.0586.08594-.07421.07422-.13281-.01172-.1172-.03125h-.11718l-.07422.07422-.08984.0586-.07422.07421-.08984.0586-.08594.05859-.10547.04687-.10156.04297-.13672.01563-.10156-.04297-.14844-.14844-.10547-.04688h-.08594l-.10547.04688-.10156.04297-.1211.03125-.11718-.03125-.07422-.07422v-.11719l.03125-.1211.07422-.0703.0586-.08985.07421-.07422.11719-.03125.10547-.04296h.29297l.13281-.01563.13672-.01563.10156-.04296.08985-.0586.10156-.04687.08984-.0586.13281-.01171.08985.05859.13281.01172.08984-.0586.08594-.05859.10547-.04297.08984-.0586.08594-.0625.08985-.05859.14843-.14843.0586-.08594.05859-.08985.10547-.04296.13281-.01563.11719.02735.1211.03125.05859-.0586.05859-.08984.03125-.26563.02734-.11719.10547.01172.13281.01563.10157-.04297.08984-.0586.0586-.08984.07421-.07422.0586-.08984.04687-.10156.01172-.13281-.01172-.13282-.04687-.10547-.14844-.14843-.0586-.08985-.05859-.08594-.04297-.10546v-.44532l.01563-.1328v-.14845l.01172-.1328-.0586-.0586-.08984.0586-.10156-.04298-.17969-.11719-.08594-.05859-.0625-.08984-.0586-.08985-.07421-.07421-.08594-.0586-.1211.03125-.10155.01172-.10547.04688-.08594.05859-.10547.04297-.14844.14844-.08984.05859-.08594.0586-.08984.0625-.10547.04296-.13281.01563v-.1211l.10547-.04297.11718-.03125.07422-.0703.04297-.10548v-.14844l-.02734-.11718-.14844-.14844-.13281-.01563h-.14844l-.11719.03125-.10547.04297-.10156.04297-.08984.0625-.11719.02735-.07422-.07422.01172-.13281-.04297-.10157-.04297-.10547-.08984-.05859-.11719.02734-.1211.03125-.11718.03125-.10156.04297-.1211.03125-.10156.04297-.10547.04297-.08984.0586-.10156.01562v-.11719l.01562-.13281-.0586-.08985-.07421.04297-.14844.14844-.0586.08985-.07421.07421-.04688.10547-.04296.10156-.07422.07422-.0586.08985-.07422.07422-.05859.08593-.07422.07422-.08984.0625-.07422.07031-.07422.07422-.10156.01563-.13281.01562-.10547-.04296v-.1211l.14843-.14844.04297-.10156.0586-.08984.04687-.10156.04297-.10547.0586-.08985.03124-.11719.04297-.10156.03125-.1211.02735-.11718.04687-.10547.04297-.10156.04297-.10547.07422-.07031.08984-.0625.08985-.0586.10156-.04296h.29687l.26563-.03125.10547-.04297-.07422-.07422-.11719-.03125-.10547-.04297-.08984-.0586-.10156-.04687-.08985-.0586-.10156-.04296-.10547-.04297-.08984-.0625-.08594-.0586-.10547-.04296-.10156-.04297-.1211-.03125-.11718-.03125-.10157-.04297L297.5 410.25l-.10156-.04297-.08985-.0586-.04296-.10546-.01563-.13281.10156-.04297.13281-.01563.13672.01563.13282-.01563.10156-.04297.0586-.08984.01562-.10547-.08985-.0586-.07421-.07421-.10157-.04297-.08984-.0586-.14844-.14843-.04297-.10547-.01562-.13281v-.29297l-.0586-.08985-.08984-.05859-.07422-.07422-.04297-.10547-.03125-.11718-.0586-.08985-.07421-.07422-.11719-.02734-.07422-.07422-.08984-.0586-.08984-.0625-.08594-.05859-.07422-.07421-.0586-.08594-.04687-.10547-.08594-.0586-.14843-.14843-.19532-.0586-.1328.01563-.10157.04297-.07422.07422-.04688.10156-.04296.10547-.0586.08984-.0586.08594-.29687.29687-.08984.0586h-.08594l-.0625-.08594-.04297-.10547.03125-.11719.0586-.08984.02734-.11719-.01172-.13281-.08984-.0625-.10547.04688-.11719.02734-.11719.03125-.26953.17578-.10156.04688-.11719.02734-.10546.04687-.08985.0586-.10156.04297-.0586-.08594-.04687-.10547.01563-.13281.04687-.10547.07031-.07422.07422-.07031.0586-.08985v-.14843l-.04297-.10547h-.23829l-.10156.04687-.03125.11719-.02734.11719-.03125.1211-.07422.04296-.13281.01563-.07422-.04688-.04297-.10156-.04297-.10547-.04687-.10156-.04297-.10547-.1211.03125-.10156.04297-.13281.01562-.11719.03125-.10547.04297-.08984.0586-.10156.04687-.1211.02734-.13281.01563-.10156-.04297-.0586-.08985-.04687-.10546-.04297-.10157-.04297-.10546v-.1172l.0586-.08984.08593-.05859.17969-.11719.10156-.04687.10547-.04297.10547-.0586.10156-.04296.08985-.0625.10156-.04297.10547-.0586.10156-.04687.08984-.0586.10547-.04296.10156-.04297.08985-.0625.10156-.04297.13672-.01563.11719.03125.10156.04297.1211.03125.10156.04297.10546.04688.10157.04296.10547.04297.10156.04688.10547.04297.10156.04297.10547.04687.08594.0586.10546.04296.1172.03125.10546.04297.10156.04688.08985.0586.10547.04296.10156.04297.10547.04687.11719.02735.10156.04687.1211.02735h.14843l.08594-.0586.01562-.10156.0586-.08984-.02735-.1172-.07422-.07421-.11719-.17969-.07421-.07422-.08985-.07421-.17969-.1172-.08593-.05859-.10547-.04296-.10156-.04688-.26954-.17578-.05859-.08985-.07422-.07421-.0586-.08985-.04296-.10156-.03125-.11719-.01563-.13672v-.5625l-.01171-.1328-.01563-.13282-.03125-.11719-.01562-.13281-.01172-.13281-.03125-.1211-.22266-.22265-.0586-.08594-.01562-.10547.03125-.11719.13281-.01562v-91.41406H172.9922v1.45312l-.0586.23438-.35156 1.05078-.17187.52343-.1172.34766-.17577.41016-.11719.17187-.23438.29297-.23046.0586h-.35157l-.11718.05859-.23047.40625v.29297l.11719.17578.23046.23047.1172.23437.64062.75781.29297.46485.17578.23437.23047.35156.23437.34766.64063.8164.17578.46485.17187.41016.11719.69531.17578.46875.11719 1.39844.0586.46484v.875l.11718 1.04688v4.78125l-.0586.46484-.35156 1.28125-.17578.52344-.11328.41015-.35156.9297L172.93359 336l-.23437.58203-.11719.17578-.17187.34766-.17578.40625-.35157.8164-.0586.29297-.11327.29297-.11719.28906-.0586.17579-.11718.875-.0586.40625-.05859.11718-.0586.17579-.05859.17187-.23047.52734-.11718.17188v.23437l-.11719.23438-.0586.17187-.17577.58594v.28906l-.0586.17579v.29296l-.0586.11329-.05859.52734v.17187l-.05468.23438v2.6211l-.17578.8164-.1172.17578-.17577.23438-.1172.17187-.11327.23438-.58594.93359-.23047.28906-.29297.46485-.17578.23437-.28906.35156-.35156.69922-.11328.23047-.17579.41016-.17578.23046-.40625.52735-.8164.69922-.29297.17187-.28906.23438-.17579.11719-.17578.17578-.52344.40625-.52734.17578-.17187.17578-.23438.05469-.64062.17578h-.75782m12.21094 31.02344l-1.07422.44921.35938.89454 1.25-.71485.44531-.53906-.98047-.08985"/><path fill="#d3d3d3" fill-opacity="0" fill-rule="evenodd" d="M201.50781 416.59766h-.89453l.44922.6289.98047.35938.80469-.08985.4453-.98828-.17577.08985-.71485-.35547-.89453.35547m154.6211 59.0703l-.0586-.52343v-.29297l.11328-.29297.0586-.23046.46875-.46875h.11328l.11719-.11329.11718-.05859h.17579l.23437-.0586h.34766l.23437.0586.11719.0586.23047.17187.0586.17578.11718.58203v.29297l-.11719.17578-.17187.28906-.17579.17579-.52734.52343-.23047.23438-.11719.0586h-.17578l-.11718-.0586-.40625-.29297-.17579-.11719-.11718-.0586-.0586-.11327-.05468-.1172m6.64062-10.95702l-.0586-.17188v-1.10937l.0586-.17188.17578-.0586.17188-.05858h.17578l.23437-.0586.1172.0586.05858.69921-.05859.17188-.11719.17578-.11718.0586-.23438.52343-.11328.0586h-.23438l-.05859-.1172m9.61328-14.39062l-.11719-.17578v-.69922l.29297-.875.1172-.17187.17577-.35156.11328-.23047.1172-.29297.35155-.75781.1172-.23047.17187-.23438h.17578l.11719-.0586h.64062l.11719.0586.23437.23438.17188.11328.35156.29297.11719.11718.11328.17579v.11328l.11719.05859.11718.11719v.69922l-.05859.17578v.23047l-.0586.17578-.34765 1.05078-.11719.23047-.11719.23437-.11718.0586-.23047.23437-.64063.28906h-.875l-.41015-.11718-.64063-.46485"/><path fill="none" stroke="#bebebe" stroke-linecap="round" stroke-linejoin="round" stroke-miterlimit="10" stroke-width=".5" d="M467.95703 311.69531H144.02734v168.625h323.9297v-168.625"/><g clip-path="url(#a)"><path fill="#fff" fill-opacity="0" fill-rule="evenodd" d="M144 475.89063v4.4375h.0039H144v-33.12891 28.6914"/></g><g clip-path="url(#b)"><path fill="#fff" fill-opacity="0" fill-rule="evenodd" d="M144 435.94531v.08985-124.36329h.0039H144v124.27344"/></g><path fill="#50fcfc" fill-rule="evenodd" d="M144 443.03516v4.16406l.0039-.0039v-4.16798l-.0039.00782"/><path fill="#00e8fc" fill-rule="evenodd" d="M144 439.08203v3.95313l.0039-.00782v-3.9414l-.0039-.0039"/><path fill="#50fcfc" fill-rule="evenodd" d="M144 436.03516v3.04687l.0039.0039v-3.04687l-.0039-.0039"/><g clip-path="url(#c)"><path fill="#fff" fill-opacity="0" fill-rule="evenodd" d="M144.0039 480.32813V447.1953l2.73048-2.375.3828-4.4375-3.11327-4.34375V311.67187h75.44922v82.84375L217.97266 396l-2.95703 4.35938-.08594.07812-3.1836 4.4375-.96093 4.4414-.21094.3086-4.4375.4336-4.03906 3.6953 3.77734 4.4375.26172.26563 4.4375 3.67969.38281.49219-.38281.52734-4.4375.57422-4.4375-.28516-4.4375-.38281-4.4414.67188-4.4375 3.1953-.60548.14063-3.83203.73438-4.4375 2.60937-2.375 1.09375-2.0664 2.63672-2.38282 1.80078-2.05468.39063-4.4375 2.34375-2.07813 1.70312-2.35937 1.3711-3.14844 3.0664-1.28906 2.08203-2.08203 2.35938.55078 4.4375 1.53125 2.83984.47265 1.59766 3.96485 4.07031 4.4375-1.3789 4.4375.67578 4.4375-.07032 4.4414 1.12891 4.0664-4.42578.3711-.76563 4.4375-1.16015 4.4375-1.1875 2.05469-1.32422 2.38672-1.85156 2.21094 1.85156-1.08594 4.4375 3.3125 1.76172 4.26172-1.76172.17578-1.83985.21484-2.59765-.21484-.30469-1.70703-4.13281 1.70703-.91016 4.4375-1.41797L215.01562 448l4.4375.08984 4.4375.41016 2.78907.76172-2.78906.85937-4.01954 3.57813-.41797.39844-4.4375 1.83593-3.6289 2.20313 3.6289 3.4375 4.4375-1.40235 4.4375-1.89453.60547-.14062 3.83203-1.3789 4.4375-.63673 4.44141-.33593 4.4375-2.02735.0625-.0586 4.375-3.08593 2.91406-1.35156-2.91406-1.65235-4.4375.09375-1.71484 1.5586-2.72266 1.76953-4.4414-.84375-3.04297-.92578 3.04297-.8086 2.98828-3.6328 1.45312-.44923 4.4375.07813 4.4375-.21485 3.44922-3.85156-.5-4.4375-2.94922-3.34765-.95312-1.08985.8789-4.4375v-4.4414l-1.17187-4.4375 1.2461-.42188 4.4375.34375.5039.07813 3.9336 3.4414 4.4414.04688v5.85937l-4.4414 2.1211-1.77345 1.84765 1.77344 2.45703 4.4414 1.25782 3.76173-3.71485-3.76172-3.96875v-5.85937L263 418.1914l.83594-3.91797.34375-.51953 1.38281-4.4375-1.72656-1.53907-4.4375-.23437-2.1875-2.66797-2.2539-2.07422-1.5625-2.36328-2.875-2.67188-4.35938 2.67188-.07813.03906-3.39844 4.39844-1.03906.92188-4.4375 1.72265-4.4414-2.33203-.32422-.3125-4.11328-4.39453-.02344-.04297-4.41406-3.16797L221.53905 396l-2.08594-1.48438v-82.84375h17.75391v79.71094l-.27344.17969.27344.64453v7.09375l-.72656 1.13672.72656.33984.54297-.33984-.54297-1.13672v-7.09375l.1836-.64453-.1836-.17969v-79.71094h39.94531v109.11329l-.74218 1.84375-3.69922.91015-4.4375.09375-3.60547 3.4375 1.21094 4.4375 2.39453 2.11328 4.4375-.34375 4.4414.62891 2.96485 2.03906 1.47265 1.36719 3.42188-1.36719 1.01562-.69531 2.5625-3.74219-2.5625-2.09765-4.4375-2.09766-4.4375 1.14063-.55859-1.38282.5586-3.26953 2.54296-1.17187-2.54297-1.84375V311.67187h13.3125v145.21875l-2.21093 1.2461 2.21093 1.00781 1.26563-1.00781-1.26563-1.2461V311.67188h8.87891V430.7461l-.85547.76172.85547.82031.98047-.8203-.98047-.76173V311.67188h4.4375v144.16015l-3.96875 2.30469-.46875 3.51953-.05078.91797.05078.02734.24219-.02734 4.19531-1.54688 1.84766-2.89062-1.84766-2.30469V311.67188h44.38281v121.13671l-2.6836 3.13672 2.6836 2.76563 1.375 1.67187 3.0625 3.29688 3.59375-3.29688-3.59375-3.26562-1.44531-1.17188-2.99219-3.13672V311.67188h22.1914v127.8828l-.27733.82813.27734.42188 2.99219 4.01562-2.36329 4.4414 3.8086 4.14063 3.96484-4.14062-2.71094-4.4414-1.2539-2.83594-3.20703-1.60157-1.23047-.82812V311.67188h13.3164v136.03515l-2.26171 1.55469 2.26171 3.1875 1.4336-3.1875-1.4336-1.55469V311.67188h84.32422v168.65625H400.5l-3.51563-1.89454-4.4375-2.14062-2.16406-.40235 1.11328-4.4375-.91015-4.4375-.4336-4.4414 2.39454-3.8086.51171-.6289-.51171-.82813-4.4375-2.78125-4.4375 2.19532-.27735 1.41406-3.14453 4.4375.39453 4.4414-.23047 4.4375 2.84766 4.4375.41015 1.07422 1.94922 3.36329H144.00391"/></g><path fill="#50fcfc" fill-rule="evenodd" d="M146.73438 444.82031l-2.73047 2.375v-4.16797l.92968-2.64453-.92968-1.29687v-3.04688l3.11328 4.34375-.38281 4.4375"/><path fill="#00e8fc" fill-rule="evenodd" d="M144.9336 440.38281l-.9297 2.64453v-3.9414l.9297 1.29687"/><path fill="#50fcfc" fill-rule="evenodd" d="M155.78516 453.69922l-.55078-4.4375 2.08203-2.35938 1.28906-2.08203 3.14844-3.0664 2.35937-1.3711 2.07813-1.70312 4.4375-2.34375 2.05468-.39063 2.38282-1.80078 2.0664-2.63672 2.375-1.09375 4.4375-2.60937 3.83203-.73438.60547-.14062 4.4375-3.19531 4.4414-.67188 4.4375.38281 4.4375.28516 4.4375-.57422.38282-.52734-.38281-.4922-4.4375-3.67968-.26172-.26562-3.77734-4.4375 4.03906-3.69532 4.4375-.43359.21094-.3086.96093-4.4414 3.1836-4.4375.08594-.07813L217.97266 396l1.48047-1.48438L221.53905 396l2.35156 1.26953v3.25781l-4.4375 1.23047-4.4375 1.61719-1.09765 1.5-2.09375 4.4414-1.25 1.84766-4.4375.22266-2.58594 2.36719 2.58594 2.8789 2.73047 1.5586 1.70703 1.48046 2.28906 2.95704-2.28906 3.14843-4.4375-.1289-4.4375-.58985-4.4375 1.7461-2.23438.26562-2.20703.55078-4.4375 1.28516-3.61328 2.60156-.82422 2.42969-1.45703 2.00781 1.45703 3.4961.14063.9414-.14063.14844-3.88281 4.28906-.55469.74219-4.4414-.17188-4.4375.25391-.8086-.82422-3.6289-2.29297-3.25782 2.29297-1.17968 1.11328-2.46875 3.32813.01562 4.4375 1.5664 4.4375.88673.91015 1.39062-.91015 3.04688-4.10156 4.4375 2.78125 4.4375 1.05078 4.4414-2.61719.89844-1.55078 2.54688-4.4375.99218-.75781 3.36328.7578 1.07422.65235.51953-.65234 3.91797-2.74219v2.67969l-.08203.0625.08203.75.4961-.75-.4961-.0625v-2.67969l4.4414-1.58594.08985-.11328 4.34766-2.0625v2.0586l-.01563.0039.01563.0586.02344-.0586-.02344-.0039v-2.0586l4.4375.65625 4.4375-.7461 4.4414.69532 4.4375.72266 4.4375-.85547 4.4375.19922 4.4375.08984 4.44141-1.17187 4.4375.92968 4.4375-.72265 1.9414-2.17188-1.9414-3.88672-.35156-.55078-4.08594-4.38672-.02734-.05078.02734-.03125 3.39844-4.40625-.60156-4.4414-2.65625-4.4375 4.29687-1.45704 4.4375.80079 4.20703.65625.23047.20312 4.4414 1.21485 1.46094-1.41797 1.85547-4.4375-3.3164-3.51563-4.4414-.72265-1.40235-.19922-.84766-4.44141-2.1875-3.53906-4.4375 1.58203-1.51172 1.95703-2.92578 2.59375-2.86328 1.84766-1.57422.5703-4.4414.73438-.61329-1.30468-3.82422-3.78907-.55078-.65234-3.88672-4.34766v-3.2578l4.41407 3.16796.02344.04297 4.11328 4.39453.32422.3125 4.4414 2.33203 4.4375-1.72265 1.03906-.92188 3.39844-4.39844.07813-.03906 4.35937-2.67188 2.875 2.67188 1.5625 2.36328 2.2539 2.07422 2.1875 2.66797 4.4375.23437 1.72657 1.53907-1.38281 4.4375-.34375.51953L263 418.1914l-3.60156 3.48828-4.4414-.04688-3.9336-3.4414-.5039-.07813-4.4375-.34375-1.2461.42188 1.17187 4.4375v4.4414l-.8789 4.4375.95312 1.08985 2.94922 3.34765.5 4.4375-3.44922 3.85156-4.4375.21485-4.4375-.07813-1.45312.44922-2.98828 3.63281-3.04297.8086 3.04297.92578 4.4414.84375 2.72266-1.76953 1.71484-1.5586 4.4375-.09375 2.91406 1.65235-2.91406 1.35156-4.375 3.08594-.0625.0586-4.4375 2.02734-4.4414.33593-4.4375.63672-3.83204 1.3789-.60547.14063-4.4375 1.89454-4.4375 1.40234-3.6289-3.4375 3.6289-2.20313 4.4375-1.83593.41797-.39844 4.01953-3.57813 2.78907-.85937-2.78906-.76172-4.4375-.41016-4.4375-.08984-4.44141-1.0664-4.4375 1.41796-1.70703.91016 1.70703 4.13281.21484.30469-.21484 2.59765-.17578 1.83985-4.26172 1.76172-3.3125-1.76172 1.08594-4.4375-2.21094-1.85156-2.38672 1.85156-2.05469 1.32422-4.4375 1.1875-4.4375 1.16015-.3711.76563-4.0664 4.42578-4.4414-1.1289-4.4375.0703-4.4375-.67577-4.4375 1.3789-3.96485-4.07031-.47265-1.59766-1.53125-2.83984"/><path fill="#00e8fc" fill-rule="evenodd" d="M159.30078 453.69922l-.01562-4.4375 2.46875-3.32813 1.17968-1.11328 3.25782-2.29297 3.6289 2.29297.8086.82422 4.4375-.2539v2.28515l-2.47266 1.58594.61719 4.4375 1.85547.98047 1.14062-.98047 2.65234-4.4375-3.79296-1.58594v-2.28515l4.4414.17187.55469-.74219 3.88281-4.28906.14063-.14844-.14063-.9414-1.45703-3.4961 1.45703-2.00781.82422-2.42969 3.61328-2.60156v6.64063l-1.52344.39843 1.52344.26563.30469-.26563-.30469-.39844v-6.64062l4.4375-1.28516 2.20703-.55078 2.23438-.26562 4.4375-1.7461 4.4375.58985 4.4375.1289 2.28906-3.14843-2.28906-2.95704-1.70703-1.48046-2.73047-1.5586-2.58594-2.8789 2.58594-2.3672 4.4375-.22265 1.25-1.84765 2.09375-4.44141 1.09766-1.5 4.4375-1.61719 4.4375-1.23047V402.75l-4.4375 1.46094-1.2422.66406-3.1953 2.00781-1.46094 2.4336-2.98047 4.41015-4.4375-.125-.16406.15235.16406.18359 4.4375-.10938 4.4414 2.15625 4.4375-.6328 1.94922 2.83984-1.94922 1.35546-3.82421 3.08204 3.82422 3.61328 3.95312.82812-3.95313 3.05078-1.27734 1.38672-3.16016 3.39453-4.4414-.24218-4.4375-1.82813-1.08594-1.32422-3.35156-2.5625-4.4375 1.625-1.1875.9375-3.2539 3.82422-.41798.61328-4.01953 3.4961-.96875.9414-3.46875 3.625-.73828.8125.73828.70313 2.45313-.70313 1.98437-1.75 2.29688-2.6875 2.14062-3.13281 2.09766 3.13281 2.34375 1.04688 2.20312-1.04688 2.23438-.6875 4.4375-2.29297 4.4375-.62109 4.4414.54297.97266-1.3789 3.46484-3.23829 1.76954-1.19922 2.66797-3.76562 4.4375 1.45703v2.23437l-.20313.07422.20313.15235.03125-.15235-.03125-.07422v-2.23437l.90234 2.3086-.05078 4.4375 3.58594 2.5664 4.4414-.99219 2.0625 2.86328 2.375.9375 3.01953-.9375-2.13281-4.4375-.88672-.95312-1.8789-3.48438 1.8789-2.11328 1.79297-2.32422-1.60156-4.4414-.1914-.3125-1.23829-4.125.98047-4.4375-4.17969-2.29688-3.52734 2.29688-.91406 1.0664-.48829-1.0664-2.49218-4.4375-1.45703-1.44532-2.53907-2.99609-1.89844-2.125v-2.22266l3.88672 4.34766.55078.65234 3.82422 3.78907.61328 1.30468 4.44141-.73437 1.57422-.57031 2.86328-1.84766 2.92578-2.59375 1.51172-1.95703V408l-1.74219 1.3164-2.21093 4.4375 3.95312 1.25782 4.4375 1.5586 4.4375-.54688 4.4414.11328 1.34766-2.38281-1.34765-1.4297-4.4414-.6953-4.4375-1.36329-3.48048-.94921L246.08203 408v-5.08203l4.4375-1.58203 2.1875 3.53906.84766 4.4414 1.40234.19923 4.4414.72265 3.31641 3.51563-1.85546 4.4375-1.46094 1.41796-4.4414-1.21484-.23048-.20312-4.20703-.65625-4.4375-.80079-4.29687 1.45704 2.65625 4.4375.60156 4.4414-3.39844 4.40625-.02734.03125.02734.05078 4.08594 4.38672.35156.55078 1.9414 3.88672-1.9414 2.17188-4.4375.72265-4.4375-.92968-4.4414 1.17187-4.4375-.08984-4.4375-.19922-4.4375.85547-4.4375-.72266-4.44141-.69531-4.4375.7461-4.4375-.65626-4.34766 2.0625-.08984.11328-4.4414 1.58594-3.91798 2.74219-.51953.65234-1.07422-.65234-3.36328-.75781-.99219.7578-2.54687 4.4375-.89844 1.55079-4.4414 2.61719-4.4375-1.05078-4.4375-2.78125-3.04688 4.10156-1.39062.91015-.88672-.91015-1.5664-4.4375"/><path fill="#00d4fc" fill-rule="evenodd" d="M173.21094 453.69922l-.61719-4.4375 2.47266-1.58594 3.79297 1.58594-2.65235 4.4375-1.14062.98047-1.85547-.98047m10.73437-8.17578l-.73828-.70313.73828-.8125 3.46875-3.625.96875-.9414 4.01953-3.4961.41797-.61328 3.2539-3.82422 1.1875-.9375 4.4375-1.625v4.73828l-2.8828 2.26172 2.8828 1.51563 2.12892-1.51563-2.12891-2.26172v-4.73828l3.35156 2.5625 1.08594 1.32422 4.4375 1.82813 4.4414.24218 3.16016-3.39453 1.27734-1.38672 3.95313-3.05078-3.95313-.82812-3.82421-3.61328 3.82422-3.08204 1.94921-1.35546-1.94922-2.83985-4.4375.63281-4.4414-2.15625-4.4375.10938-.16406-.1836.16406-.15234 4.4375.125 2.98047-4.41015 1.46094-2.4336 3.1953-2.00781 1.2422-.66406 4.4375-1.46094v2.20313l-4.4375 4.12109-.94922.24219.94922.34375 4.4375 3.78515.375.3086-.375 2.66406-.27735 1.77344-4.16016 2.89062-1.92187 1.54688 1.92188 1.8164 3.64843-1.8164.78906-2.81641 4.4375 1.08984 4.4375-.90234 1.1211 2.6289-1.1211 1.66407-4.05468 2.77734 1.39453 4.4375 2.66016 3.60547 4.4414-2.13281.70703-1.47266 3.73047-4.19531.1875-.24219-.1875-.5-2.3164-3.9414-.19922-4.4375-.59766-4.4375-1.32422-.73047-1.1211.73047-3.3203 3.8828-1.78907-3.8828-2.64844-3.73829-.58203-.69921-3.85547-4.36329V402.75l1.89844 2.125 2.53906 2.9961 1.45704 1.4453 2.49218 4.4375.48828 1.06641.91407-1.0664 3.52734-2.29688 4.17969 2.29688-.98047 4.4375 1.23828 4.125.1914.3125 1.60157 4.4414-1.79297 2.32422-1.8789 2.11328 1.8789 3.48438.88672.95312 2.13281 4.4375-3.01953.9375-2.375-.9375-2.0625-2.86328-4.4414.99219-3.58594-2.5664.05078-4.4375-.90234-2.3086-4.4375-1.45703-2.66797 3.76562-1.76953 1.19922-3.46485 3.23828-.97266 1.3789-4.4414-.54296-4.4375.6211-4.4375 2.29296-2.23438.6875-2.20312 1.04688-2.34375-1.04688-2.09766-3.13281-2.14062 3.13281-2.29688 2.6875-1.98437 1.75-2.45313.70313"/><path fill="#50fcfc" fill-rule="evenodd" d="M188.38281 435.54688l-1.52344.39843 1.52344.26563.30469-.26563-.30469-.39844"/><path fill="#fff" fill-opacity="0" fill-rule="evenodd" d="M192.82031 449.19922l-.08203.0625.08203.75.4961-.75-.4961-.0625"/><path fill="#00c4fc" fill-rule="evenodd" d="M201.69922 437.46094l-2.88281-1.51563 2.8828-2.26172 2.12892 2.26172-2.12891 1.51563"/><path fill="#fff" fill-opacity="0" fill-rule="evenodd" d="M201.69922 444.8164l-.01563.00391.01563.0586.02344-.0586-.02344-.0039"/><path fill="#00c4fc" fill-rule="evenodd" d="M219.45313 424.44531l-1.92188-1.8164 1.92188-1.54688v1.53516l-.01954.01172.01953.01953.03125-.01953-.03125-.01172v-1.53516l4.16016-2.89062.27734-1.77344.375-2.66406-.375-.3086-4.4375-3.78515-.94921-.34375.94922-.2422 4.4375-4.12108v1.71484l-2.73829 2.64844 2.73828 2.5039 2.36329 1.9336 1.84765 4.4375.22656.12109.2461-.1211 1.10547-4.4375-1.35156-1.90624-2.09766-2.53125-2.33984-2.64844v-1.71485l3.85546 4.36329.58203.69921 2.64844 3.73829 1.78906 3.8828 3.32032-3.8828 1.1211-.73047v3.0039l-1.72657 2.16407 1.72656 3.42968v2.4336l-1.6836 3.01562-2.7578.89844-1.78516 3.53906 1.78516 2.42188 3.41015-2.42188 1.03125-2.92969 1.17188-1.5078-1.17188-3.01563v-2.4336l.64844-3.42968-.64844-2.16407v-3.0039l1.32422.73047.59766 4.4375.19922 4.4375 2.3164 3.9414.1875.5-.1875.24219-3.73047 4.19531-.70703 1.47266-4.4414 2.13281-2.66016-3.60547-1.39453-4.4375 4.05469-2.77734 1.12109-1.66406L232.76562 420l-4.4375.90234-4.4375-1.08984-.78906 2.8164-3.64844 1.81641"/><path fill="#00b8fc" fill-rule="evenodd" d="M219.45313 422.64844l-.01954-.01953.01953-.01172.03125.01172-.03125.01953m4.4375-10.82813l-2.73828-2.5039 2.73828-2.64844v1.71484l-.96484.9336.96484.8828 4.35547 3.5547.08203.1875.0547-.1875-.0547-.07813-3.61328-4.35937-.82422-.9336v-1.71484l2.33985 2.64844 2.09766 2.53125 1.35156 1.90625-1.10547 4.4375-.2461.12109-.22656-.1211-1.84765-4.4375-2.36328-1.93359"/><path fill="#00a8fc" fill-rule="evenodd" d="M223.89063 410.19922l-.96485-.88281.96484-.9336.82422.9336 3.61328 4.35937.0547.07813-.0547.1875-.08203-.1875-4.35547-3.5547"/><path fill="#50fcfc" fill-rule="evenodd" d="M228.32813 431.4336l-.20313.07421.20313.15235.03125-.15235-.03125-.07422"/><path fill="#00b8fc" fill-rule="evenodd" d="M232.76563 433.92969l-1.78516-2.42188 1.78516-3.53906v1.73047l-.91407 1.8086.91406 1.23827 1.7461-1.23828-1.7461-1.8086v-1.73046l2.75782-.89844 1.6836-3.01562 1.17187 3.01562-1.17188 1.50781-1.03125 2.9297-3.41016 2.42187"/><path fill="#00a8fc" fill-rule="evenodd" d="M232.76563 432.7461l-.91407-1.23829.91406-1.8086v1.72657l-.03906.08203.03906.05469.07813-.05469-.07813-.08203v-1.72656l1.7461 1.8086-1.7461 1.23827"/><path fill="#009800" fill-rule="evenodd" d="M232.76563 431.5625l-.03907-.05469.03906-.08203.07813.08203-.07813.05469"/><path fill="#00b8fc" fill-rule="evenodd" d="M237.20703 421.6211l-1.72656-3.4297 1.72656-2.16406.64844 2.16407-.64844 3.42968"/><path fill="#50fcfc" fill-rule="evenodd" d="M237.20703 400.77734l-.72656-.33984.72656-1.13672.54297 1.13672-.54297.33984m0-8.5703l-.27344-.64454.27344-.17969.1836.17969-.1836.64453"/><path fill="#00d4fc" fill-rule="evenodd" d="M246.08203 415.01172l-3.95312-1.25781 2.21093-4.4375L246.08204 408l.95702 1.3164 3.48047.94923v1.1914l-3.89062 2.29688 3.89062 1.85156 4.4375-1.83594.09766-.01562-.09766-.01563-4.4375-2.28125v-1.1914l4.4375 1.36328 4.4414.6953 1.34766 1.4297-1.34765 2.3828-4.4414-.11327-4.4375.54687-4.4375-1.5586"/><path fill="#00c4fc" fill-rule="evenodd" d="M250.51953 415.60547l-3.89062-1.85156 3.89062-2.29688v1.19531l-1.86719 1.10157 1.8672.88671 2.13671-.88671-2.13672-1.10157v-1.1953l4.4375 2.28124.09766.01563-.09766.01562-4.4375 1.83594"/><path fill="#00b8fc" fill-rule="evenodd" d="M250.51953 414.64063l-1.86719-.88672 1.8672-1.10157 2.13671 1.10157-2.13672.88671"/><path fill="#50fcfc" fill-rule="evenodd" d="M254.95703 433.96484l-1.77344-2.45703 1.77344-1.84765 4.4414-2.1211v1.64844l-2.78906 2.32031 2.78907 2.17188 2.19922-2.17188-2.19922-2.32031v-1.64844l3.76172 3.96875-3.76172 3.71485-4.4414-1.25782"/><path fill="#00e8fc" fill-rule="evenodd" d="M259.39844 433.67969l-2.78906-2.17188 2.78906-2.32031 2.19922 2.32031-2.19922 2.17188"/><path fill="#50fcfc" fill-rule="evenodd" d="M265.8789 431.50781l-1.21093-4.4375 3.60547-3.4375 4.4375-.09375v1.75l-4.4375.25781-1.59766 1.52344 1.59766 2.73828 4.4375.05079 1.95703-2.78907-1.95703-1.78125v-1.75l3.69922-.91015.74218-1.84375 2.54297 1.84375-2.54297 1.17187-.55859 3.26953.5586 1.38281 4.4375-1.14062v.92188l-4.02735 3.27343 4.02734 3.67578 3.82422-3.67578-3.82422-3.27344v-.92187l4.4375 2.09766 2.5625 2.09765-2.5625 3.74219-1.01562.69531-3.42188 1.36719-1.47265-1.36719-2.96485-2.03906-4.4414-.6289-4.4375.34374-2.39453-2.11328"/><path fill="#00e8fc" fill-rule="evenodd" d="M268.27344 429.8086l-1.59766-2.73829 1.59766-1.52344 4.4375-.2578 1.95703 1.78124-1.95703 2.78906-4.4375-.05078m13.3164 5.375l-4.02734-3.67578 4.02734-3.27344v1.54297l-2.1328 1.73047 2.1328 1.94531 2.02344-1.9453-2.02344-1.73048v-1.54296l3.82422 3.27343-3.82422 3.67578"/><path fill="#00d4fc" fill-rule="evenodd" d="M281.58984 433.45313l-2.1328-1.94532 2.1328-1.73047v1.53907l-.23437.1914.23437.21094.21875-.21094-.21875-.1914v-1.53907l2.02344 1.73047-2.02344 1.94531"/><path fill="#00c4fc" fill-rule="evenodd" d="M281.58984 431.71875l-.23437-.21094.23437-.1914.21875.1914-.21875.21094"/><path fill="#50fcfc" fill-rule="evenodd" d="M290.46484 459.14453l-2.21093-1.00781 2.21093-1.2461 1.26563 1.2461-1.26563 1.00781m8.87891-26.8164l-.85547-.82032.85547-.76172.98047.76172-.98047.82031m0 30.27344l-.05078-.02734.05078-.91797.46875-3.51953 3.96875-2.30469 1.84766 2.30469-1.84766 2.89062-4.19531 1.54688-.24219.02734m48.82031-23.89062l-2.6836-2.76563 2.6836-3.13672 2.99219 3.13672 1.44531 1.17188v2.70703l-.52344.5586.52344.5664.61719-.5664-.61719-.5586v-2.70703l3.59375 3.26562-3.59375 3.29688-3.0625-3.29688-1.375-1.67187"/><path fill="#00e8fc" fill-rule="evenodd" d="M352.60156 440.94922l-.52344-.5664.52344-.5586.61719.5586-.61719.5664"/><path fill="#50fcfc" fill-rule="evenodd" d="M370.35547 440.80469l-.27735-.42188.27735-.82812 1.23047.82812 3.20703 1.60156v5.44141l-1.4336 1.83594 1.4336 1.5586 1.4961-1.5586-1.4961-1.83594v-5.4414l1.2539 2.83593 2.71094 4.4414-3.96484 4.14063-3.8086-4.14062 2.36329-4.4414-2.9922-4.01563"/><path fill="#00e8fc" fill-rule="evenodd" d="M374.79297 450.82031l-1.4336-1.5586 1.4336-1.83593 1.4961 1.83594-1.4961 1.5586"/><g clip-path="url(#d)"><path fill="#50fcfc" fill-rule="evenodd" d="M380.64453 467.01563l-.39453-4.44141 3.14453-4.4375.27735-1.41406v3.73046l-1.60547 2.1211 1.60546 3.73828v3.63672l-.2539 1.5039.2539.3672.73438-.3672-.73438-1.5039v-3.63672l2.4336-3.73828-2.4336-2.1211v-3.73046l4.4375-2.19532 4.4375 2.78125.51172.82813-.51171.6289-2.39454 3.8086.4336 4.4414.91015 4.4375-1.11328 4.4375 2.16406.40235 4.4375 2.14062 3.51563 1.89454h-5.04688l-2.90625-2.08594-2.60156 2.08594h-4.32422l-1.94921-3.36329-.41016-1.07421-2.84766-4.4375.23047-4.4375"/></g><path fill="#50fcfc" fill-rule="evenodd" d="M383.67188 452.44922l-2.26172-3.1875 2.26171-1.55469 1.4336 1.55469-1.4336 3.1875"/><path fill="#00e8fc" fill-rule="evenodd" d="M383.67188 466.3125l-1.60547-3.73828 1.60546-2.1211 2.4336 2.1211-2.4336 3.73828m0 5.50781l-.2539-.36719.2539-1.5039.73438 1.5039-.73438.3672"/><g clip-path="url(#e)"><path fill="#00e8fc" fill-rule="evenodd" d="M389.94531 480.32813l2.60156-2.08594 2.90625 2.08594h-5.5078"/></g><g clip-path="url(#f)"><path fill="#fff" fill-opacity="0" fill-rule="evenodd" d="M467.9961 480.32813H468V311.67188h-.0039H468v168.65625h-.0039"/></g><path fill="#fff" fill-opacity="0" fill-rule="evenodd" d="M246.60547 406.57813l4.54297-3.67188-6.26563-7.7461-4.53906 3.67188 6.26172 7.7461"/><path fill-rule="evenodd" d="M244.21484 398.0586l.39844-.32032 3.95703 4.89453-.61328.49219-2.82422-3.48828-1.07812.8711-.34766-.4297.39453-.40234.16016-.20312.1211-.21485.0703-.23437.00391-.27344-.07422-.32031-.16797-.3711"/><path fill="#fff" fill-opacity="0" fill-rule="evenodd" d="M241.51563 451.6875l5.66406 1.42969 2.4375-9.66016-5.66406-1.42578-2.4375 9.65625"/><path fill-rule="evenodd" d="M246.89453 444.66406l.4961.125-1.53907 6.10156-.76172-.1914 1.09766-4.35547-1.34766-.33594.13672-.53906.5586.07422.2578.00781.2422-.03125.23437-.08594.21875-.16015.20703-.2539.19922-.35548"/><path fill="#fff" fill-opacity="0" fill-rule="evenodd" d="M157.17969 466.28125l5.66015 1.4375 2.45313-9.65625-5.66016-1.4375-2.45312 9.65625"/><path fill-rule="evenodd" d="M162.57422 459.26172l.49219.1289-1.55078 6.09766-.76172-.1914 1.10547-4.35157-1.34766-.34375.13672-.53906.5586.07813.2578.0078.2461-.03124.23047-.08594.22265-.16016.20703-.25.20313-.35937"/><path fill="#fff" fill-opacity="0" fill-rule="evenodd" d="M234.95313 414.35938l.29296 7.91796 10.1875-.375-.29297-7.92187-10.1875.3789"/><path fill-rule="evenodd" d="M243.39844 416.53125l.125 3.28125-.74219.02734-.09766-2.63671-1.8125-.16407.17188.22266.14062.26562.10157.31641.04687.38281-.01562.32422-.07032.34375-.13672.33594-.20312.32031-.27734.28516-.17188.1211-.1914.10546-.21094.08984-.23438.07032-.25781.04687-.28516.02344-.4414-.01563-.42578-.08984-.39063-.15625-.34766-.22656-.29296-.29688-.1211-.17578-.10547-.1914-.08593-.20704-.06641-.22656-.04688-.24219-.02343-.26171.01953-.46875.08984-.39844.14844-.34375.20313-.28125.2539-.23047.29297-.1836.32422-.13671.35156-.10157.02734.78516-.22656.08984-.20703.10938-.17578.1289-.14844.15235-.11719.17187-.08203.19141-.05078.21094-.00781.23437.03516.3125.08203.27735.1289.24218.17188.19922.22266.16016.26562.10937.3125.0625.35938.01563.26171-.03125.25782-.07031.24609-.11329.22266-.15234.1875-.19922.14062-.2461.08984-.29296.02344-.33984-.05078-.33594-.11719-.27735-.19922-.26562-.28125-.30078-.02343-.6914 3.4375.33593"/><g clip-path="url(#g)"><path fill="none" stroke="#000" stroke-linecap="round" stroke-linejoin="round" stroke-miterlimit="10" stroke-width=".5" d="M147.50781 480.54297l-7.01562-.42578"/></g><g clip-path="url(#h)"><path fill="none" stroke="#000" stroke-linecap="round" stroke-linejoin="round" stroke-miterlimit="10" stroke-width=".5" d="M147.50781 480.54297l1.01953 2.23047"/></g><g clip-path="url(#i)"><path fill="none" stroke="#000" stroke-linecap="round" stroke-linejoin="round" stroke-miterlimit="10" stroke-width=".5" d="M146.48828 480.48047l.50781 1.11719"/></g><g clip-path="url(#j)"><path fill="none" stroke="#000" stroke-linecap="round" stroke-linejoin="round" stroke-miterlimit="10" stroke-width=".5" d="M160.82813 480.38281l-7.02735-.10937"/></g><g clip-path="url(#k)"><path fill="none" stroke="#000" stroke-linecap="round" stroke-linejoin="round" stroke-miterlimit="10" stroke-width=".5" d="M160.82813 480.38281l1.11718 2.1875"/></g><g clip-path="url(#l)"><path fill="none" stroke="#000" stroke-linecap="round" stroke-linejoin="round" stroke-miterlimit="10" stroke-width=".5" d="M174.14453 480.24219l-7.02734.17187"/></g><g clip-path="url(#m)"><path fill="none" stroke="#000" stroke-linecap="round" stroke-linejoin="round" stroke-miterlimit="10" stroke-width=".5" d="M174.14453 480.24219l1.20313 2.14062"/></g><g clip-path="url(#n)"><path fill="none" stroke="#000" stroke-linecap="round" stroke-linejoin="round" stroke-miterlimit="10" stroke-width=".5" d="M187.45703 480.32813h-7.02344"/></g><g clip-path="url(#o)"><path fill="none" stroke="#000" stroke-linecap="round" stroke-linejoin="round" stroke-miterlimit="10" stroke-width=".5" d="M187.45703 480.32813l1.15234 2.16796"/></g><g clip-path="url(#p)"><path fill="none" stroke="#000" stroke-linecap="round" stroke-linejoin="round" stroke-miterlimit="10" stroke-width=".5" d="M200.76563 480.5625l-7.01172-.46484"/></g><g clip-path="url(#q)"><path fill="none" stroke="#000" stroke-linecap="round" stroke-linejoin="round" stroke-miterlimit="10" stroke-width=".5" d="M200.76563 480.5625l1.0078 2.23828"/></g><g clip-path="url(#r)"><path fill="none" stroke="#000" stroke-linecap="round" stroke-linejoin="round" stroke-miterlimit="10" stroke-width=".5" d="M214.02344 481.0039l-6.89453-1.35156"/></g><g clip-path="url(#s)"><path fill="none" stroke="#000" stroke-linecap="round" stroke-linejoin="round" stroke-miterlimit="10" stroke-width=".5" d="M214.02344 481.0039l.71094 2.34766"/></g><g clip-path="url(#t)"><path fill="none" stroke="#000" stroke-linecap="round" stroke-linejoin="round" stroke-miterlimit="10" stroke-width=".5" d="M227.26953 481.29297l-6.75781-1.92578"/></g><g clip-path="url(#u)"><path fill="none" stroke="#000" stroke-linecap="round" stroke-linejoin="round" stroke-miterlimit="10" stroke-width=".5" d="M226.28516 481.01172l.2578 1.19922"/></g><g clip-path="url(#v)"><path fill="none" stroke="#000" stroke-linecap="round" stroke-linejoin="round" stroke-miterlimit="10" stroke-width=".5" d="M240.64844 481.01953l-6.88672-1.38281"/></g><g clip-path="url(#w)"><path fill="none" stroke="#000" stroke-linecap="round" stroke-linejoin="round" stroke-miterlimit="10" stroke-width=".5" d="M240.64844 481.01953l.70703 2.35156"/></g><g clip-path="url(#x)"><path fill="none" stroke="#000" stroke-linecap="round" stroke-linejoin="round" stroke-miterlimit="10" stroke-width=".5" d="M254.02344 480.59375l-7.00781-.52734"/></g><g clip-path="url(#y)"><path fill="none" stroke="#000" stroke-linecap="round" stroke-linejoin="round" stroke-miterlimit="10" stroke-width=".5" d="M254.02344 480.59375l.98828 2.2461"/></g><g clip-path="url(#z)"><path fill="none" stroke="#000" stroke-linecap="round" stroke-linejoin="round" stroke-miterlimit="10" stroke-width=".5" d="M253.0039 480.51563l.4922 1.125"/></g><g clip-path="url(#A)"><path fill="none" stroke="#000" stroke-linecap="round" stroke-linejoin="round" stroke-miterlimit="10" stroke-width=".5" d="M267.33594 480.6211l-7-.58594"/></g><g clip-path="url(#B)"><path fill="none" stroke="#000" stroke-linecap="round" stroke-linejoin="round" stroke-miterlimit="10" stroke-width=".5" d="M267.33594 480.6211l.96875 2.2539"/></g><g clip-path="url(#C)"><path fill="none" stroke="#000" stroke-linecap="round" stroke-linejoin="round" stroke-miterlimit="10" stroke-width=".5" d="M266.3164 480.53516l.48438 1.1289"/></g><g clip-path="url(#D)"><path fill="none" stroke="#000" stroke-linecap="round" stroke-linejoin="round" stroke-miterlimit="10" stroke-width=".5" d="M280.66406 480.40234l-7.02734-.14453"/></g><g clip-path="url(#E)"><path fill="none" stroke="#000" stroke-linecap="round" stroke-linejoin="round" stroke-miterlimit="10" stroke-width=".5" d="M280.66406 480.40234l1.10547 2.1875"/></g><g clip-path="url(#F)"><path fill="none" stroke="#000" stroke-linecap="round" stroke-linejoin="round" stroke-miterlimit="10" stroke-width=".5" d="M293.98047 480.35547l-7.02735-.05469"/></g><g clip-path="url(#G)"><path fill="none" stroke="#000" stroke-linecap="round" stroke-linejoin="round" stroke-miterlimit="10" stroke-width=".5" d="M293.98047 480.35547l1.13281 2.17578"/></g><g clip-path="url(#H)"><path fill="none" stroke="#000" stroke-linecap="round" stroke-linejoin="round" stroke-miterlimit="10" stroke-width=".5" d="M307.29297 480.36719l-7.02735-.07813"/></g><g clip-path="url(#I)"><path fill="none" stroke="#000" stroke-linecap="round" stroke-linejoin="round" stroke-miterlimit="10" stroke-width=".5" d="M307.29297 480.36719l1.1289 2.17969"/></g><g clip-path="url(#J)"><path fill="none" stroke="#000" stroke-linecap="round" stroke-linejoin="round" stroke-miterlimit="10" stroke-width=".5" d="M320.60156 480.10547l-7.01172.44531"/></g><g clip-path="url(#K)"><path fill="none" stroke="#000" stroke-linecap="round" stroke-linejoin="round" stroke-miterlimit="10" stroke-width=".5" d="M320.60156 480.10547l1.28906 2.08984"/></g><g clip-path="url(#L)"><path fill="none" stroke="#000" stroke-linecap="round" stroke-linejoin="round" stroke-miterlimit="10" stroke-width=".5" d="M333.85547 481.02344l-6.88672-1.39063"/></g><g clip-path="url(#M)"><path fill="none" stroke="#000" stroke-linecap="round" stroke-linejoin="round" stroke-miterlimit="10" stroke-width=".5" d="M332.85156 480.82031l.35156 1.17578"/></g><g clip-path="url(#N)"><path fill="none" stroke="#000" stroke-linecap="round" stroke-linejoin="round" stroke-miterlimit="10" stroke-width=".5" d="M346.91016 481.8164l-6.3672-2.97656"/></g><g clip-path="url(#O)"><path fill="none" stroke="#000" stroke-linecap="round" stroke-linejoin="round" stroke-miterlimit="10" stroke-width=".5" d="M359.30078 483.01953l-4.51953-5.38281"/></g><g clip-path="url(#P)"><path fill="none" stroke="#000" stroke-linecap="round" stroke-linejoin="round" stroke-miterlimit="10" stroke-width=".5" d="M371.6875 483.58203l-2.66016-6.5039"/></g><g clip-path="url(#Q)"><path fill="none" stroke="#000" stroke-linecap="round" stroke-linejoin="round" stroke-miterlimit="10" stroke-width=".5" d="M384.90234 483.6211l-2.46093-6.58204"/></g><g clip-path="url(#R)"><path fill="none" stroke="#000" stroke-linecap="round" stroke-linejoin="round" stroke-miterlimit="10" stroke-width=".5" d="M393.91016 478.63281l6.15234 3.39063"/></g><path fill="none" stroke="#000" stroke-linecap="round" stroke-linejoin="round" stroke-miterlimit="10" stroke-width=".5" d="M394.80469 479.125l.01953-1.22656"/><g clip-path="url(#S)"><path fill="none" stroke="#000" stroke-linecap="round" stroke-linejoin="round" stroke-miterlimit="10" stroke-width=".5" d="M408.86719 477.1211l2.8711 6.41406"/></g><g clip-path="url(#T)"><path fill="none" stroke="#000" stroke-linecap="round" stroke-linejoin="round" stroke-miterlimit="10" stroke-width=".5" d="M421.1211 477.85547l4.99218 4.94531"/></g><path fill="none" stroke="#000" stroke-linecap="round" stroke-linejoin="round" stroke-miterlimit="10" stroke-width=".5" d="M421.84766 478.57422l.35156-1.17188"/><g clip-path="url(#U)"><path fill="none" stroke="#000" stroke-linecap="round" stroke-linejoin="round" stroke-miterlimit="10" stroke-width=".5" d="M437.15234 476.82031l-.4414 7.01563"/></g><path fill="none" stroke="#000" stroke-linecap="round" stroke-linejoin="round" stroke-miterlimit="10" stroke-width=".5" d="M437.08594 477.84375l1.11719-.50781"/><g clip-path="url(#V)"><path fill="none" stroke="#000" stroke-linecap="round" stroke-linejoin="round" stroke-miterlimit="10" stroke-width=".5" d="M448.66797 483.46875l3.15625-6.28125"/></g><g clip-path="url(#W)"><path fill="none" stroke="#000" stroke-linecap="round" stroke-linejoin="round" stroke-miterlimit="10" stroke-width=".5" d="M462.3164 483.61328l2.4922-6.57031"/></g><g clip-path="url(#X)"><path fill="none" stroke="#000" stroke-linecap="round" stroke-linejoin="round" stroke-miterlimit="10" stroke-width=".5" d="M147.5039 467.27344l-7.0078-.51953"/></g><path fill="none" stroke="#000" stroke-linecap="round" stroke-linejoin="round" stroke-miterlimit="10" stroke-width=".5" d="M147.5039 467.27344l.98829 2.24219m12.33594-2.48047l-7.02735-.04297m7.02734.04297l1.14063 2.17187m-2.16406-2.17969l.57031 1.08594m13.76953-1.0625l-7.02734-.07422m7.02734.07422l1.1289 2.17969m-2.15234-2.1914l.5625 1.08984m13.76563-.83594l-7.00781-.5586m7.0078.5586l.97267 2.2539m-1.9922-2.33593l.48438 1.1289m13.85938-1.25l-7.02735-.15234m7.02735.15234l1.10156 2.19532m12.19922-1.96485l-7-.61328m7 .61328l.96094 2.25781m12.35547-2.23828l-7-.65234m7 .65234l.9414 2.26563m12.3789-2.33985l-7.01171-.5039m7.01172.5039l.99219 2.2422m12.3125-2.14454l-6.9922-.69922m6.9922.69922l.92968 2.27344m12.40235-2.49219l-7.02344-.26172m7.02344.26172l1.0703 2.20703m-2.09374-2.2461l.53516 1.10548m13.74609-1.83985l-6.91016 1.28516m6.91016-1.28516l1.52734 1.91797m-2.53125-1.73047l.76172.95704m13.32813-1.89063l-6.45313 2.77734m6.45313-2.77734l1.91796 1.53125m-2.85546-1.1289l.95703.76562m13.27734-1.21094l-6.41406 2.86328m6.41406-2.86328l1.9375 1.50781m-2.8711-1.09375l.96876.75391m13.21875-1.29688l-6.29297 3.1211m6.29297-3.1211l1.9961 1.4297m10.89062-2.09766l-5.4375 4.45703m5.4375-4.45703l2.26562.9453m10.8125-1.20702l-4.96094 4.98047m4.23828-4.25391l1.17188.35547m11.77734-1.8164l-2.78515 6.44921m2.38281-5.51172l1.22266-.09765m9-.4297l4.20312 5.62891m7.7461-3.37109l6.9375 1.11328m-5.9297-.95312l-.39452-1.16016m12.6914 2.04688l6.95703-.98047m-5.9453.83984l-.72267-.99219m13.62891-1.375l5.7539 4.03516m-4.91796-3.44922l.14844-1.21484m14.4375-.78125l1.53906 6.85547m-1.3164-5.85938l.92968-.79687m12.55469-.26563l.75 6.98828m-.64063-5.97265l1.01563-.6875m13.66015 6.5039l-2.1875-6.67578m12.89063 6.50781l3.03515-6.33984"/><g clip-path="url(#Y)"><path fill="none" stroke="#000" stroke-linecap="round" stroke-linejoin="round" stroke-miterlimit="10" stroke-width=".5" d="M147.49219 454.07422l-6.98438-.75"/></g><path fill="none" stroke="#000" stroke-linecap="round" stroke-linejoin="round" stroke-miterlimit="10" stroke-width=".5" d="M147.49219 454.07422l.91406 2.27734m12.41406-2.40234l-7.01172-.5m5.9922.42578l.49608 1.1211m13.78516-1.94532l-6.90625 1.29688m6.90625-1.29688l1.53516 1.91406m11.83984-1.35937l-7.02344.1875m7.02344-.1875l1.21094 2.13672m12.07812-1.60157l-6.97265-.8828m6.97265.8828l.8711 2.29297m12.33203-1.75l-6.7461-1.96875m6.7461 1.96875l.5 2.40235m12.875-2.65235l-6.8711-1.46875m6.8711 1.46875L228 456.79297m12.71875-3.05078l-7.02734-.08985m7.02734.08985l1.125 2.1836m-2.14844-2.19532l.5625 1.08984m13.76172-1.44922l-6.9961.65625m6.9961-.65625l1.34766 2.04688M253 453.46484l.67578 1.02344m13.67188-.82812l-7.02344.07421m7.02344-.07421l1.17578 2.15625m-2.19531-2.14453l.58593 1.07812m13.73828-1.34375l-7.0039.58594m7.0039-.58594l1.32813 2.0625m-2.34766-1.97656l.66407 1.03125m13.5664-1.72266l-6.79297 1.79688m6.79297-1.79688l1.66797 1.80078m-2.65625-1.53906l.83203.89844m13.26953-1.72656l-6.39062 2.92578m6.39062-2.92578l1.94922 1.49218m-2.8789-1.0664l1.94921 1.49218m12.17579-2.14843l-6.15235 3.39062m6.15235-3.39062l2.05468 1.33984m-2.94922-.84766l1.02735.67188m12.8086-1.71485l-5.40626 4.4922m5.40625-4.4922l2.26953.9297m10.41407-1.52344l-4.14063 5.67968m4.14063-5.67969l2.42578.34375m9.44922-.96093l-1.26172 6.91406m1.26172-6.91406l2.33984-.74219m10.04687.69922l.59375 7m-.59375-7l2.0625-1.33203m13.78516 2.1211l-4.46875 5.42187m3.8164-4.63282l1.20313.2422m7.91016-.66017l5.23828 4.6797m-4.47656-4l.29297-1.19141m12.63671 5.55859l4.48438-5.41406m-3.83203 4.625l-1.19922-.2461m13.58203.77344l5.04688-4.89062m-4.3125 4.17968l-1.16797-.3789m16.1875-4.86719l.16797 7.02344m9.86328-4.51563l6.73437 2.00781m12.17578-3.72265l-4.45703 5.4336m3.8086-4.64063l1.20312.24218"/><g clip-path="url(#Z)"><path fill="none" stroke="#000" stroke-linecap="round" stroke-linejoin="round" stroke-miterlimit="10" stroke-width=".5" d="M147.48828 440.8086l-6.97656-.85157"/></g><path fill="none" stroke="#000" stroke-linecap="round" stroke-linejoin="round" stroke-miterlimit="10" stroke-width=".5" d="M146.47266 440.6875l.4414 1.14453m13.89844-1.78906l-6.9961.6836m5.97657-.58594l.67969 1.02343m13.53906.16797l-6.76563-1.89453m5.78125 1.61719l.26563 1.19922m14.1211-1.32032l-6.9375-1.09765m5.92968.9375l.39844 1.16015m13.80469-.48828l-6.69922-2.1211m6.69922 2.1211l.4453 2.41016m12.6211-1.8164l-6.19922-3.3125m6.19922 3.3125l-.00781 2.45312m13.45703-2.73438l-6.46875-2.7461m6.46875 2.7461l.21484 2.4414m13.32422-4.4414l-6.91406 1.2539m6.91406-1.2539l1.51953 1.92578m11.33594-3.1328l-5.9961 3.66405m5.9961-3.66406l2.11328 1.2461M266.80078 438.5l-5.92969 3.76953m5.9297-3.76953l2.1328 1.21094m-2.99609-.66406l1.0664.60546m12.98438-1.33984l-5.67578 4.14063m5.67578-4.14063l2.20703 1.07031m11.28125-.8125l-6.01953 3.625m6.01953-3.625l2.10157 1.26172m-2.98047-.73437l1.05468.6289m13.08204-1.2461l-5.90625 3.8086m5.90625-3.8086l2.14062 1.19532m-3-.64453l1.07031.60156m12.76172-1.60156l-5.22265 4.70313m5.22265-4.70313l2.30469.83594m-3.0664-.15235l2.30859.83985m11.60156-1.69531l-4.89063 5.04687m4.89063-5.04687l2.35937.68359m-3.0703.05078l2.35937.6836m11.3828-1.66407l-4.3203 5.54297m4.3203-5.54297l2.41407.42188m-3.04297.3828l1.20703.21095m12.07422-1.42188l-2.9961 6.35547m2.9961-6.35547l2.45313-.1211m7.61719.25l3.49609 6.09376m-3.4961-6.09375l1.3047-2.07813m10.55077 3.6875l6.41016 2.8789m-5.47656-2.46093l-.08203-1.22656m13.91797 5.29297l3.5039-6.08985m-2.9961 5.20313l-1.22265-.04297m12.59375-.64453l6.3789-2.94531m-5.45312 2.51953l-.97656-.74219m18.46094 2.64844l-3.8125-5.90235m3.25781 5.04297l-.59766 1.07032m14.39454-.16797l-3.66797-5.9922m3.66797 5.9922l-1.2461 2.11328m16.22266-4.7461l-6.99219-.72265m5.97266.61719l.46484 1.13671m13.26563.60157l-5.78125-3.9922m4.9375 3.41407l-.14063 1.21875"/><g clip-path="url(#aa)"><path fill="none" stroke="#000" stroke-linecap="round" stroke-linejoin="round" stroke-miterlimit="10" stroke-width=".5" d="M147.44922 427.74219l-6.89844-1.34766"/></g><path fill="none" stroke="#000" stroke-linecap="round" stroke-linejoin="round" stroke-miterlimit="10" stroke-width=".5" d="M146.44531 427.54688l.35938 1.17187m14.02344-1.75l-7.02344.19922m6-.17188l.60547 1.06641m13.60937-.0664l-6.77734-1.85548m5.78906 1.58594l.26953 1.19922m12.89844.83985l-4.50781-5.39454m3.85156 4.60938l-.46094 1.13672m14.42578-.34766l-4.4961-5.39844m4.4961 5.39844l-.92578 2.26953m15.00781-3.16406l-6.02734-3.61328m5.14844 3.08984l-.0625 1.22266m14.70312-1.89063l-6.92187-1.23047m5.91406 1.05079l.3789 1.16797m13.65626-.09766l-6.34766-3.01172m6.34766 3.01172l.11328 2.45312m13.42187-3.04297l-6.78515-1.83203m6.78515 1.83203l.54688 2.39063m12.71875-4.38281l-6.6875 2.15234m6.6875-2.15234l1.76172 1.71094m11.59375-1.57813l-6.76953 1.88672m6.76953-1.88672l1.6914 1.77734m11.34766-2.47265l-6.21875 3.27734m5.3164-2.80078l1.01172.6914m12.91016-1.6328l-5.6289 4.20703m5.6289-4.20704l2.22266 1.04688m10.32812-1.80078l-4.09375 5.71484m4.09375-5.71484l2.42969.32812m-3.02734.5039l1.21484.16407m12.88281-.85156l-4.46484 5.42578m4.46484-5.42578l2.40235.48828m-3.0547.30078l1.20313.24219m12.96485-.85156l-4.8711 5.0664m4.8711-5.0664l2.35937.67187m-3.0664.0664l1.17968.33595m13.63672.07812l-6.45703 2.76172m6.45703-2.76172l1.91406 1.53516m8.80079-3.60938l-1.25782 6.91016m1.25782-6.91016l2.33984-.7461m9.11719.91016l2.45703 6.58204m-2.45703-6.58204l1.6289-1.83593m15.69532 7.27734l-5.5586-4.30078m4.75 3.67578l-.20703 1.20703m15.0664-2.71875l-7.02734-.02734m7.02735.02734l1.14453 2.16797m11.48828-4.25781l-5.66797 4.15234m5.66797-4.15234l2.21094 1.0664m-3.03516-.46093l2.21094 1.0664m10.53125-2.80078l-2.8711 6.41406m2.8711-6.41406l2.44922-.16797m-2.8672 1.09766l1.22267-.08203m14.51953 1.66406l-6.89063 1.38672m6.89063-1.38672l1.55468 1.89844m10.875-3.61328l-5.11718 4.8164m4.37109-4.11718l1.16016.39453"/><g clip-path="url(#ab)"><path fill="none" stroke="#000" stroke-linecap="round" stroke-linejoin="round" stroke-miterlimit="10" stroke-width=".5" d="M147.33984 412.66016l-6.67968 2.1875"/></g><path fill="none" stroke="#000" stroke-linecap="round" stroke-linejoin="round" stroke-miterlimit="10" stroke-width=".5" d="M146.36719 412.98047l.88281.84765m13.22266-1.61718l-6.3125 3.08594m19.95703-1.1172l-6.97266-.85546m19.13281 3.0586l-4.66406-5.25782m3.98438 4.49219l-.42578 1.14843m15.1953-1.375l-6.21484-3.27343m5.3125 2.79687l.00391 1.22656m13.30469-5.1289l-4.39453 5.48437m3.7539-4.6875l1.20703.22657m11.63672 5.05859l-2.17578-6.67969m16.8125 5.89844l-4.8164-5.11719m4.8164 5.11719l-.78516 2.32422m14.57813-2.8789l-5.77344-4.00782m5.77344 4.00781l-.28516 2.4336m13.8047-2.76954l-6.1797-3.33984m6.1797 3.33984l-.01563 2.45704m13.67968-3.41407l-6.8789-1.42187m6.8789 1.42187l.69141 2.35547m12.58594-2.1875l-6.80469-1.75781m6.80469 1.75781l.57422 2.38672m12.77734-2.53906l-6.875-1.45313m6.875 1.45313l.67969 2.35547m12.4336-4.44532l-6.47266 2.72657m6.47265-2.72657l1.90625 1.54688m11.61719-.8789l-6.89063 1.39062m6.89063-1.39063l1.5586 1.89844m11.82421-1.08594l-7.02344-.23437m7.02344.23437l1.07813 2.20313m12.16406-1.60938l-6.8789-1.42578m6.8789 1.42578l.6914 2.35547m12.46094-4.33203l-6.55468 2.53125m6.55468-2.53125l1.85547 1.60547m-2.8086-1.23828l.9297.80469m12.73046-2.19141l-5.33593 4.57031m5.33593-4.57031l2.28516.89453m-3.0625-.23047l2.28516.89844m11.5039-1.875l-4.73047 5.19531m4.73047-5.19531l2.3789.60547m-3.0664.14844l2.375.60937m11.26563-1.65234l-4.00781 5.77343m4.0078-5.77343l2.4375.28906m-3.01952.55078l2.4375.28906m11.59765-1.03125l-4.28125 5.57422m4.28125-5.57422l2.41797.40625m-3.04297.40625l1.21094.20313m12.33984-1.27344l-3.5039 6.09375m3.5039-6.09375l2.45313.08203m-2.96484.80469l1.22656.03906m12.74219-.83984l-3.78516 5.92187m3.78516-5.92187l2.4453.19531m9.91798-.6211l-1.88282 6.76954m1.88282-6.76953l2.39453-.52735m-2.66797 1.51172l1.19531-.26172"/><g clip-path="url(#ac)"><path fill="none" stroke="#000" stroke-linecap="round" stroke-linejoin="round" stroke-miterlimit="10" stroke-width=".5" d="M146.46875 397.9375l-4.9375 5"/></g><path fill="none" stroke="#000" stroke-linecap="round" stroke-linejoin="round" stroke-miterlimit="10" stroke-width=".5" d="M145.75 398.66406l1.17578.35156m11.4414-1.92968l-2.10546 6.70312m14.14062.15625l.45703-7.01172m12.71485 7l.74219-6.98828m-.63672 5.96875l-1.13672.46094m17.32812-5.28906l-5.22265 4.70312m4.46484-4.01953l1.15234.42188m7.69141-1.09766l5.23438 4.6875m13.46093-.17188l-5.52343-4.33984m4.72265 3.70703l-.21875 1.20703m14.70703-1.15625l-6.26953-3.17968m6.26953 3.17968l.04688 2.45313m13.20312-2.33203l-6.13672-3.42188m6.13672 3.42188l-.05078 2.45312m13.71875-3.35937l-6.84375-1.60547m6.84375 1.60547l.625 2.3711m12.76563-2.83985l-6.9961-.67188m6.9961.67188l.9414 2.26562m12.38282-2.80078l-7.01563.39844m7.01563-.39844l1.27343 2.09766m11.78907-3.22656l-6.50782 2.65625m5.5586-2.26954l.94531.78516m13.5664-.13281l-7.0039.57812m7.0039-.57812l1.32422 2.0664m11.8711-2.73437l-6.76172 1.91406m6.76172-1.91406l1.69922 1.76953M347 401.71875l-6.54688-2.5586m5.59375 2.1836l.14063 1.21875m13.9414-.44922l-6.17578-3.35156m5.27735 2.86719l-.01172 1.22656m14.29297-3.95703l-6.3125 3.08203m6.3125-3.08203l1.98828 1.4414m-2.90625-.99609l.99219.72266m12.875-1.76563l-5.57813 4.27344m5.57813-4.27344l2.23047 1.01953m-3.04297-.39844l1.11718.51172m13.07032-1.05468l-5.69922 4.11718m5.69922-4.11718l2.19922 1.08203m-3.03125-.48047l1.10156.53906m13.01562-1.17578l-5.64062 4.1914m5.64062-4.1914l2.21875 1.05078m-3.03906-.4414l1.10938.52343m12.52734-1.67578l-4.64453 5.27344m4.64453-5.27344l2.38672.57031m-3.0625.19922l2.38672.5664m11.34375-1.54296l-4.1211 5.6875m4.1211-5.6875l2.4336.33984m-3.03126.48829l1.21484.16796m13.4297-.28515l-5.58204 4.26953m5.58203-4.26953l2.23047 1.01953m-3.04297-.39844l1.11328.50781m12.83203-1.34765l-5.21875 4.70312"/><g clip-path="url(#ad)"><path fill="none" stroke="#000" stroke-linecap="round" stroke-linejoin="round" stroke-miterlimit="10" stroke-width=".5" d="M466.17188 398.08594l2.30468.83984"/></g><path fill="none" stroke="#000" stroke-linecap="round" stroke-linejoin="round" stroke-miterlimit="10" stroke-width=".5" d="M465.41406 398.76953l1.15235.42188"/><g clip-path="url(#ae)"><path fill="none" stroke="#000" stroke-linecap="round" stroke-linejoin="round" stroke-miterlimit="10" stroke-width=".5" d="M147.22656 385.73047l-6.45312 2.78515"/></g><path fill="none" stroke="#000" stroke-linecap="round" stroke-linejoin="round" stroke-miterlimit="10" stroke-width=".5" d="M146.28906 386.13672l.95703.76562m13.53516-.35937l-6.9336 1.16015m5.92579-.98828l.7461.97266m13.53905.21094l-6.85547-1.55078m16.45313 4.27734l.57813-7.0039m-.4922 5.98437l-1.1289.48437m13.05078.16407l3.1914-6.26172m-2.72655 5.35156l-1.22657.01953m17.66016.66016l-3.97266-5.80078m3.39453 4.95703l-.5703 1.08594m15.49609-1.34375l-6.03907-3.59766m6.03907 3.59765l-.1211 2.44922m13.92969-4.29296l-7.02734.08984m7.02734-.08985l1.17969 2.15235m12.13281-1.9336l-7.01953-.34765m7.01953.34765l1.03906 2.22266m12.26953-2.65625l-7.0078.51953m7.0078-.51953l1.3086 2.07422m-2.32813-2l.65235 1.03906m13.6875-1.02734l-7.01954.35156m7.01954-.35156l1.2578 2.10547M279.64063 387l.62891 1.05078m13.71094-.97265l-7.02735.08984m7.02735-.08985l1.17578 2.15235m-2.19922-2.13672l.58984 1.07422m13.58594-2.09766l-6.70312 2.10547m6.70312-2.10547l1.7461 1.72266m-2.72266-1.41406l.875.85937m13.28516-1.51953l-6.44141 2.8086m6.4414-2.8086l1.92188 1.52344m-2.85937-1.11328l.96093.76171m13.05078-1.6289l-5.96093 3.72265m5.96093-3.72265l2.125 1.22656m10.84766-1.6875l-5.27344 4.64453m5.27344-4.64453l2.29688.86328m11.55859-.03515l-6.35547 2.99218m6.35547-2.99218l1.96484 1.46875m-2.88672-1.03516l1.96485 1.46875m11.91015-2.51172l-5.6289 4.20703m5.6289-4.20703l2.21875 1.04297m-3.03906-.42969l1.10938.51953m12.85547-1.34375l-5.28907 4.62891m5.28907-4.6289l2.29296.87109m-3.0625-.19531l1.14454.43359m13.0039-1.03125l-5.41797 4.47265m5.41797-4.47265l2.26953.9375m-3.05859-.28516l1.13672.46875m12.92187-1.17578l-5.32812 4.58203m5.32812-4.58203l2.28516.89063m-3.0586-.22266l1.14063.44531m12.9336-1.1289l-5.29688 4.61328m5.29687-4.61328l2.29297.875m10.8711-1.03907l-4.9961 4.94141m4.9961-4.9414l2.34375.73046m-3.07032-.01172l1.17188.3672m13.58984-.02345l-6.4375 2.81641m6.4375-2.8164l1.92578 1.52343m11.02735-2.16406l-5.71094 4.09765"/><g clip-path="url(#af)"><path fill="none" stroke="#000" stroke-linecap="round" stroke-linejoin="round" stroke-miterlimit="10" stroke-width=".5" d="M466.41797 385.07422l2.19922 1.08984"/></g><g clip-path="url(#ag)"><path fill="none" stroke="#000" stroke-linecap="round" stroke-linejoin="round" stroke-miterlimit="10" stroke-width=".5" d="M147.50781 373.58203l-7.01562.45313"/></g><path fill="none" stroke="#000" stroke-linecap="round" stroke-linejoin="round" stroke-miterlimit="10" stroke-width=".5" d="M147.50781 373.58203l1.28516 2.08985m12.02344-1.5547l-7-.61718m7 .61719l.95703 2.25781m11.55078-4.82422l-5.38672 4.51172m5.38672-4.51172l2.27344.92188m5.47656 3.35937l5.74219-4.04687m8.40234 4.8828l4.08203-5.71874m-3.48828 4.88672l-1.21484-.16016m19.33984-.84765l-6.72266-2.03907m5.7461 1.74219l.23437 1.20313m13.48828.20312l-5.58593-4.26172m5.58593 4.26172l-.39843 2.42188m14.40234-4.08594l-6.96484-.9336m6.96484.9336l.85547 2.30078M254 374.30859l-6.95703-1m6.95703 1l.82813 2.3086m-1.84375-2.45313l.41796 1.15235m13.65235-.09766l-6.4375-2.82031m6.4375 2.82031l.1836 2.44531m13.35155-3.1289l-6.875-1.45313m6.875 1.45313l.67579 2.35937m-1.67579-2.57031l.33594 1.17969m14.04297-1.40625l-7.0039-.57813m7.0039.57813l.96875 2.2539m-1.98828-2.33984l.48437 1.1289m13.75782-2.17187l-6.82422 1.67969m6.82422-1.67969l1.63671 1.82813m-2.6289-1.58204l.82031.91407m13.42188-1.38672L313.75 374.875m6.6914-2.13281l1.75782 1.71094m-2.73047-1.40235l.8789.85547m13.32423-1.41016l-6.51954 2.625m6.51954-2.625l1.875 1.57813m-2.82422-1.19531l.9375.78906m13.22656-1.39844l-6.32031 3.07813m6.3203-3.07813l1.98048 1.44531m-2.90235-.99609l1.98438 1.4414m12.32422-1.73046l-6.46485 2.7539m6.46485-2.7539l1.91015 1.54297m-2.85156-1.14063l1.91016 1.54297m12.32422-1.9961l-6.42188 2.85938m6.42188-2.85937l1.93359 1.51171m-2.86719-1.09375l1.9336 1.50782m12-2.48828l-5.78907 3.98437m5.78907-3.98437l2.17578 1.1328m-3.01953-.55468l2.17968 1.13281m12.1211-1.48437l-6.07422 3.52734m6.07422-3.52734l2.08594 1.29687m-2.96875-.78125l2.08593 1.29297m12.0664-1.88281l-5.98437 3.67969m5.98438-3.67969l2.11719 1.24219m-2.98829-.70703l2.1172 1.24218m11.97656-1.92187l-5.80079 3.96875m5.80079-3.96875l2.17578 1.13672m-3.01954-.5586l1.08594.56641m12.78516-1.50781l-5.22266 4.69531m5.22266-4.69531l2.30469.83984m-3.0625-.15625l1.15234.41797m12.4375-1.55078l-4.25781 5.59375m4.25781-5.59375l2.42188.39453m11.80859.64453l-6.08594 3.51172"/><g clip-path="url(#ah)"><path fill="none" stroke="#000" stroke-linecap="round" stroke-linejoin="round" stroke-miterlimit="10" stroke-width=".5" d="M466.60547 372.05078l2.07812 1.30078"/></g><g clip-path="url(#ai)"><path fill="none" stroke="#000" stroke-linecap="round" stroke-linejoin="round" stroke-miterlimit="10" stroke-width=".5" d="M147.375 361.47266l-6.75-1.95704"/></g><path fill="none" stroke="#000" stroke-linecap="round" stroke-linejoin="round" stroke-miterlimit="10" stroke-width=".5" d="M147.375 361.47266l.5039 2.40234m12.82813-2.46484l-6.78516-1.83204m6.78516 1.83204l.54688 2.39062m12.52343-4.86719l-6.29687 3.1172m6.29687-3.1172l1.9961 1.4297m11.3711 1.58202l-6.39845-2.90234m5.46875 2.48047l.07813 1.22265m13.60937.0625l-5.28515-4.6328m5.28515 4.6328l-.5625 2.39063m14.03516-2.58203l-5.59766-4.25m5.59766 4.25l-.39453 2.42187m13.84766-2.61719l-5.875-3.85546m5.875 3.85546l-.22657 2.44141m13.63672-2.59765l-6.0664-3.54688m6.0664 3.54688l-.10156 2.45312m-.78125-2.96875l-.05078 1.22656m14.6836-1.91015l-6.9336-1.14454m6.9336 1.14454l.78124 2.32421m-1.79297-2.49218l.39453 1.16406m13.9336-2.11719l-6.9414 1.09375m6.9414-1.09375l1.47656 1.96094m-2.48437-1.80078l.73828.98047m13.62109-.85547l-7.00781.52344m7.00781-.52344l1.3086 2.07812m-2.32813-2l.65234 1.03516m13.6836-.66016l-7.01563-.3828m7.01563.3828l1.03515 2.22657m-2.05469-2.28125l.51563 1.11328m13.6836-2.23828l-6.7422 1.98046m6.7422-1.98046l1.71484 1.7539m-2.69532-1.46484l.85547.875m13.19532-1.77735l-6.25391 3.20313m6.2539-3.20313l2.01172 1.40625m-2.92187-.9375l1.00781.69922m13.36328-.84765l-6.54297 2.5625m6.54297-2.5625l1.86328 1.59765m-2.8164-1.22265l.92969.79687m13.44921-.83984l-6.76562 1.90234m6.76562-1.90234l1.69532 1.77344m-2.67969-1.4961l.84766.88672m13.42968-1.24219l-6.72265 2.0547m6.72265-2.0547l1.73438 1.73438m-2.71485-1.4336l1.73829 1.73438m12.53906-2.08984l-6.6875 2.16406m6.6875-2.16406l1.76172 1.70703m-2.73438-1.39063l1.76172 1.70703m12.26953-2.62109l-6.17187 3.36328m6.17187-3.36328l2.04688 1.35156m-2.94532-.86328l2.04688 1.35156m12.08594-1.97656l-6.01172 3.63281m6.01172-3.6328l2.10937 1.26171m-2.98437-.73047l2.10937 1.25781m12.11328-1.73437l-6.07812 3.52734m6.07812-3.52734l2.08594 1.29297m-2.96875-.78125l2.08203 1.29687m12.13281-1.77734l-6.11328 3.46484m6.11328-3.46484l2.07032 1.3164m-2.95703-.8125l2.0703 1.31641m11.96095-2.09375l-5.76954 4.00781m5.76954-4.0078l2.18359 1.125m-3.02344-.54298l2.1836 1.125m12.11718-1.47656l-6.0625 3.55078m6.0625-3.55078l2.08985 1.28906m-2.97266-.77344l1.04688.64454m13.23437-1.01563l-6.22656 3.25781"/><g clip-path="url(#aj)"><path fill="none" stroke="#000" stroke-linecap="round" stroke-linejoin="round" stroke-miterlimit="10" stroke-width=".5" d="M466.67578 358.86328l2.02344 1.38672"/></g><path fill="none" stroke="#000" stroke-linecap="round" stroke-linejoin="round" stroke-miterlimit="10" stroke-width=".5" d="M465.76953 359.33594l1.01172.69531"/><g clip-path="url(#ak)"><path fill="none" stroke="#000" stroke-linecap="round" stroke-linejoin="round" stroke-miterlimit="10" stroke-width=".5" d="M146.54297 349.60547l-5.08594-4.85547"/></g><path fill="none" stroke="#000" stroke-linecap="round" stroke-linejoin="round" stroke-miterlimit="10" stroke-width=".5" d="M146.54297 349.60547l-.66406 2.36328m14.78515-3.72266l-6.69531-2.13671m6.69531 2.13671l.4375 2.41407m-1.41406-2.72266l.21875 1.20703m14.07031-3.03906l-6.6914 2.14453m6.6914-2.14453l1.75781 1.71484m-2.73046-1.40234l.8789.85547m13.54297-.58594l-6.96094.98047m6.96094-.98047l1.4414 1.98438m-2.45702-1.84375l.72265.99218m13.51172.30469l-6.76953-1.89453m6.76953 1.89453l.52734 2.39453m12.71875-2.17969l-6.6328-2.32421m6.6328 2.32421l.3711 2.42579m13.04687-2.77344l-6.83593-1.6289m6.83593 1.6289l.6172 2.375m-1.61329-2.61328l.3086 1.1875m13.84374-.45313l-6.51953-2.6211m6.51953 2.6211l.26172 2.4375m-1.21094-2.82031l.13282 1.22265m14.38281-2.02734l-7.02344-.2461m7.02344.2461l1.07422 2.20703m-2.09375-2.24219l.53516 1.10547m13.78906-1.49218l-7 .59765m7-.59765l1.33203 2.0625m-2.35156-1.97657l.66796 1.03125m13.6797-.8164h-7.02735m7.02734 0l1.15235 2.16406m-2.17579-2.16406l.57813 1.08203m13.76172-1.03125l-7.02735-.10547m7.02735.10547l1.11719 2.1836m-2.14063-2.19923l.5586 1.08985m13.76562-1.4375l-7 .6211m7-.6211l1.33984 2.05469m-2.35937-1.96485l.67187 1.02735m13.5586-1.71094l-6.78907 1.8125m6.78907-1.8125l1.67187 1.79297m-2.66015-1.53125l.83593.89843m13.32422-1.57812l-6.50781 2.64844m6.50781-2.64844l1.88672 1.57031m-2.83203-1.1875l1.88281 1.57422m12.46094-1.73828l-6.67188 2.21094m6.67188-2.21094l1.77344 1.6914m-2.7461-1.37109l1.77735 1.69531m12.57812-1.78515l-6.8086 1.7461m6.8086-1.7461l1.65235 1.8125m-2.64454-1.5586l.82813.90625m13.47656-1.17187l-6.80078 1.76953m6.80078-1.76953l1.66016 1.8086m-2.65235-1.55079l1.66016 1.8086m12.50781-2.48438l-6.52734 2.60547m6.52734-2.60547l1.875 1.58594m-2.82422-1.20703l1.875 1.58593m12.05079-2.60937l-5.84766 3.89844m5.84766-3.89844l2.16015 1.16406m-3.01172-.59765l2.16016 1.16406m11.86719-1.92969l-5.5664 4.29297m5.5664-4.29297l2.23437 1.01563m-3.04687-.39063l2.23437 1.01172m11.8086-1.73828l-5.40235 4.4961m5.40235-4.4961l2.27343.92969m-3.05859-.27344l2.26953.92969m-3.05469-.27735l1.13672.46485m13.74219-1.78125l-5.38672 4.51171m5.38672-4.51171l2.27344.92187m-3.05469-.26563l2.27344.92188m12.14062-1.13281l-6.02344 3.6211m6.02344-3.6211l2.10156 1.26172m-2.97656-.73438l1.05078.6289m13.37891-.67968l-6.5 2.67188"/><g clip-path="url(#al)"><path fill="none" stroke="#000" stroke-linecap="round" stroke-linejoin="round" stroke-miterlimit="10" stroke-width=".5" d="M466.8125 345.84375l1.88672 1.5625"/></g><g clip-path="url(#am)"><path fill="none" stroke="#000" stroke-linecap="round" stroke-linejoin="round" stroke-miterlimit="10" stroke-width=".5" d="M465.86719 346.23047l1.88672 1.5664"/></g><g clip-path="url(#an)"><path fill="none" stroke="#000" stroke-linecap="round" stroke-linejoin="round" stroke-miterlimit="10" stroke-width=".5" d="M144.60547 337.32422l-1.21094-6.92188"/></g><g clip-path="url(#ao)"><path fill="none" stroke="#000" stroke-linecap="round" stroke-linejoin="round" stroke-miterlimit="10" stroke-width=".5" d="M144.60547 337.32422l-1.9336 1.50781"/></g><path fill="none" stroke="#000" stroke-linecap="round" stroke-linejoin="round" stroke-miterlimit="10" stroke-width=".5" d="M159.80469 336.34375l-4.97656-4.96094m4.97656 4.96094l-.71485 2.34766m-.01172-3.07032l-.35546 1.17579m15.40234-3.28125l-6.99219.6953m6.99219-.6953l1.36328 2.03906m-2.3789-1.9375l1.35937 2.03906m12.98047-2.02734l-7.00781.46875m7.0078-.46875l1.29688 2.08203m-2.3164-2.01563l1.29687 2.08594m13.01953-2.36328l-6.97265.88672m6.97265-.88672l1.41407 2.0039m-2.4297-1.875l1.41798 2.00391m-2.42969-1.875l.70703 1.0039m14.5625-1.65234l-6.82422 1.67188m6.82422-1.67188l1.63281 1.82813m-2.625-1.58594l1.63282 1.82813m12.76953-1.4336l-7.01563.39844m7.01563-.39844l1.27344 2.09766m-2.29297-2.03906l1.26953 2.09765m13.04297-1.50781l-6.97266-.89844m6.97266.89844l.86328 2.29297m-1.8789-2.42578l.43358 1.14844m13.91407-1.21485l-7.00781-.5039m7.0078.5039l.9961 2.2461m-2.01562-2.31641l.5 1.1211m13.83984-1.10938l-7.01563-.38281m7.01563.3828l1.03125 2.22657M266.32422 334l.51562 1.10938m13.8047-.85938l-6.98438-.77344m6.98437.77344l.90234 2.28125m-1.92187-2.39453l.45313 1.14062m13.89843-1.29687l-7.02344-.23438m7.02344.23438l1.08203 2.20312m-2.10156-2.23828l.53906 1.10156m13.79688-1.18359h-7.02735m7.02735 0l1.15234 2.16797m-2.17187-2.16797l.57422 1.08203m13.74609-1.39453l-6.9961.625m6.9961-.625l1.33984 2.05469m-2.35546-1.96485l.66796 1.02735m13.48829-1.94531L327.08594 335m6.64844-2.27734l1.79296 1.67968m-2.7578-1.34765l.89452.83984m13.32031-1.34765l-6.51562 2.6328m6.51563-2.6328l1.8789 1.57421m-2.82812-1.1914l.9414.78906m12.98047-1.82031l-5.82812 3.92578m5.82812-3.92578l2.16406 1.15625m11.7461.71484l-7.02344.1875m7.02344-.1875l1.21094 2.13281m-2.23047-2.10546l.60546 1.0664m13.6172-1.88672l-6.79688 1.77344m6.79687-1.77344l1.66406 1.80469m-2.65234-1.54688l.83203.90235m13.47656-1.14063l-6.80859 1.73438m6.8086-1.73438l1.65234 1.8125m-2.64453-1.5625l.82812.91016m13.24219-1.8125l-6.33594 3.03906m6.33594-3.03906l1.97656 1.45703m-2.89844-1.01562l.98829.73046m12.80859-1.86718l-5.45703 4.42969m5.45703-4.4297l2.26172.95704m-3.05469-.3125l1.1289.48047m12.57813-1.54297l-4.65234 5.26562m4.65234-5.26562l2.38672.57422m-3.0625.1914l1.1914.28907m13.15626-.69141l-5.36719 4.53906m5.36719-4.53906l2.27734.91016m-3.0586-.25l1.14063.45312m13.4414-.36328l-6.33593 3.03906"/><g clip-path="url(#ap)"><path fill="none" stroke="#000" stroke-linecap="round" stroke-linejoin="round" stroke-miterlimit="10" stroke-width=".5" d="M466.73047 332.34375l1.97656 1.45313"/></g><path fill="none" stroke="#000" stroke-linecap="round" stroke-linejoin="round" stroke-miterlimit="10" stroke-width=".5" d="M465.8086 332.78516l.98827.72656"/><g clip-path="url(#aq)"><path fill="none" stroke="#000" stroke-linecap="round" stroke-linejoin="round" stroke-miterlimit="10" stroke-width=".5" d="M142.1289 323.52344l3.7422-5.94922"/></g><path fill="none" stroke="#000" stroke-linecap="round" stroke-linejoin="round" stroke-miterlimit="10" stroke-width=".5" d="M157.53906 324.05469l-.44922-7.01172m.44922 7.01172l-2.08984 1.28515m2.02344-2.30468l-1.04297.64453m17.24219-1.3711l-6.08204-3.51953m6.08203 3.51953l-.08593 2.44922m13.76562-3.34375l-6.8125-1.73047m6.8125 1.73047l.58203 2.38281m-1.57422-2.63671l.29297 1.1953m13.98438-2.78515l-6.75 1.95703m6.75-1.95703l1.70703 1.76172m-2.6914-1.47656l1.71093 1.75781m12.34766-2.65234l-6.26953 3.17578m6.26953-3.17578l2.0039 1.41015m-2.91797-.94921l2.00782 1.41015m-2.91797-.94922l1.0039.70703m14.1875-1.51953l-6.375 2.95313m6.375-2.95313l1.95704 1.48047M226.15234 319.5l1.95313 1.48047m12.53906-1.15235l-6.8789 1.4375m6.8789-1.4375l1.57031 1.88672m-2.5703-1.67578l.78515.9414m13.60547-.3789l-7.02735-.10937m7.02735.10937l1.11718 2.1836m-2.14062-2.19922l.5586 1.09375m13.77734-1.09766l-7.02735-.07031m7.02735.07031l1.1328 2.17969m-2.15233-2.1875l.5625 1.08594m13.7539-.7461l-6.98828-.73047m6.98828.73047l.92188 2.27344m12.38672-3.0664l-6.97657.85156m6.97656-.85157l1.40625 2.01172m11.81641-2.48437l-6.79297 1.79687m6.79297-1.79687l1.66797 1.80078m11.73438-1.3789l-6.96485.95702m6.96485-.95703l1.43359 1.98828m11.54687-3.07421l-6.29296 3.125m6.29296-3.125l1.9961 1.42968m10.91015-2.0664l-5.48046 4.39843m5.48046-4.39843l2.25391.96875m10.1211-1.78907l-3.59766 6.03907m3.59765-6.03907l2.44922.1211m11.88672.80469l-5.64062 4.1914m5.64062-4.1914l2.21875 1.05078m11.74219.46484l-6.92969 1.15625m6.92969-1.15625l1.49219 1.94922m11.40625-3.11719l-6.09766 3.4961m6.09766-3.4961l2.07421 1.30469m10.71094-2.00781l-5.03906 4.89843m5.03906-4.89843l2.33594.7539m9.51172-1.65625l-2.10156 6.70703m2.10156-6.70703l2.41015-.44922m9.96094.28907l-.21484 7.02343m.21484-7.02343l2.19922-1.08594m13.84375 2.52344l-5.67187 4.14843m5.67187-4.14843l2.21094 1.0703m10.7539-1.48046l-4.96875 4.96875"/><g clip-path="url(#ar)"><path fill="none" stroke="#000" stroke-linecap="round" stroke-linejoin="round" stroke-miterlimit="10" stroke-width=".5" d="M466.04688 318.0625l2.34375.71875"/></g><path fill="none" stroke="#000" stroke-linecap="round" stroke-linejoin="round" stroke-miterlimit="10" stroke-width=".5" d="M465.32422 318.78516l1.17187.35937"/><path fill="#00f" fill-rule="evenodd" d="M383.80078 467.64844h8.61719V457.5039h-8.61719v10.14453"/><path fill="azure" fill-rule="evenodd" d="M385.63281 459.33594h.83203v2.82422h3.28907v-2.82422h.83203v6.48047h-.83203v-2.91797h-3.28907v2.91797h-.83203v-6.48047"/><path fill="#00f" fill-rule="evenodd" d="M326.10156 463.21094h8.61719V453.0625h-8.61719v10.14844"/><path fill="azure" fill-rule="evenodd" d="M327.9336 454.89844h.83593v2.82031h3.28516v-2.82031h.83203v6.48047h-.83203v-2.91797h-3.28516v2.91797h-.83594v-6.48047"/><path fill="#00f" fill-rule="evenodd" d="M383.80078 436.57813h8.61719v-10.14454h-8.61719v10.14454"/><path fill="azure" fill-rule="evenodd" d="M385.63281 428.26563h.83203v2.82421h3.28907v-2.82421h.83203v6.48046h-.83203v-2.91406h-3.28907v2.91406h-.83203v-6.48046"/><path fill="#00f" fill-rule="evenodd" d="M219.58203 414.38672h8.61719v-10.14453h-8.61719v10.14453"/><path fill="azure" fill-rule="evenodd" d="M221.41406 406.07422h.83203v2.82422h3.28907v-2.82422h.83203v6.48047h-.83203v-2.91406h-3.28907v2.91406h-.83203v-6.48047"/><path fill="#ff3030" fill-rule="evenodd" d="M384.4961 414.38672h7.6914v-10.14453h-7.6914v10.14453"/><path fill="azure" fill-rule="evenodd" d="M386.32813 406.07422h.83203v5.74219h3.1953v.73828h-4.02733v-6.48047"/><path fill="#ff3030" fill-rule="evenodd" d="M291.28906 409.94922h7.6914v-10.14453h-7.6914v10.14453"/><path fill="azure" fill-rule="evenodd" d="M293.1211 401.63672h.83593v5.73828h3.1914v.74219h-4.02734v-6.48047"/><path fill="#ff3030" fill-rule="evenodd" d="M198.08203 370.0039h7.69531v-10.14452h-7.6953v10.14453"/><path fill="azure" fill-rule="evenodd" d="M199.91797 361.6914h.83203v5.73829h3.19531v.74219h-4.02734v-6.48047"/><path fill="#ffffe0" fill-rule="evenodd" d="M324.10156 348.04297h22.17969v-10.1914h-22.17969v10.1914"/><path fill-rule="evenodd" d="M327.60156 339.6836h.50781v6.29687h-.78515v-4.49219h-1.38672v-.55469l.5586-.0625.25-.05468.23046-.08985.20313-.14062.17578-.21094.14062-.29297.10547-.39844m4.8125 0l.23047.01954.21875.05468.20703.08985.19922.12109.1836.15234.17187.17579.30078.41796.24219.4922.17969.54687.11328.57812.03906.59375-.03906.59375-.11328.58203-.1797.55469-.24218.5-.30078.42969-.17188.17969-.18359.15234-.19922.125-.20703.08984-.21875.0586-.23047.01953-.22656-.01953-.21875-.0586-.21094-.08984-.19531-.125-.1836-.15235-.17187-.17968-.30078-.42969-.24219-.5-.17969-.55469-.11328-.58203-.03906-.59375h.83594l.02734.5625.08203.5039.125.44532.16407.375.1914.30078.20703.21875.22266.13672.22656.04688.22656-.04688.22266-.13672.21094-.21875.1914-.30078.16407-.375.125-.44531.08203-.5039.02734-.5625-.02734-.5625-.08203-.5-.125-.4336-.16406-.36719-.19141-.29297-.21094-.21484-.22265-.1289-.22657-.04688-.22656.04687-.22266.1289-.20703.21485-.1914.29297-.16407.36719-.125.4336-.08203.5-.02734.5625h-.83594l.03906-.59376.11329-.57812.17968-.54688.24219-.49219.30078-.41796.17188-.17579.18359-.15234.19531-.1211.21094-.08984.21875-.05469.22656-.01953m5.09375 0h.50781v6.29688h-.78515v-4.49219h-1.39063v-.55469l.5625-.0625.25-.05468.23047-.08985.20313-.14062.17578-.21094.14062-.29297.10547-.39844m2.82422 2.17579h.78516l.01953-.31641.0586-.28516.10156-.2539.14062-.21485.17969-.17187.22265-.1289.26563-.08204.3086-.02734.23827.02343.22266.0625.20313.10157.17968.13671.14844.17188.11328.20703.07422.23438.02344.26562-.02344.26953-.0625.22266-.11328.19531-.15235.16797-.20312.16406-.2461.16406-.6328.39063-.53907.3125-.4375.3164-.34765.32423-.26172.33593-.19141.35156-.125.3711-.07031.39062-.01953.42188h4.21093v-.74219h-3.33203l.08594-.28515.11328-.23438.14844-.20313.1875-.17968.23047-.17188.27734-.17578.71875-.41406.41406-.20703.34375-.23047.28125-.25.21875-.26953.16407-.27735.11328-.28515.0625-.28516.01953-.28125-.04297-.38281-.11719-.34766-.1914-.3086-.25-.26171-.30079-.21094-.34765-.16015-.3789-.09766-.40626-.03516-.4336.03516-.39843.09766-.35547.16796-.30469.23438-.25.30078-.18359.375-.11719.44531-.03906.51954"/><path fill="#ffffe0" fill-rule="evenodd" d="M173.08594 332.3164h22.17969V322.125h-22.1797v10.1914"/><path fill-rule="evenodd" d="M176.58594 323.96094h.50781v6.29297h-.78516v-4.48829h-1.39062v-.55859l.5625-.0625.25-.05469.23047-.08984.20312-.14063.17578-.21093.14063-.29297.10547-.39453m4.8125 0l.23047.01562.21875.0586.20703.08984.19922.11719.18359.15234.17188.17578.30078.41797.24218.49219.1797.54687.11327.58204.03516.58984-.03516.59375-.11328.58203-.17969.55469-.24218.5039-.30078.42579-.17188.17968-.1836.15235-.19921.125-.20703.09375-.21875.05468-.23047.01954-.22656-.01954-.21875-.05468-.21094-.09375-.19531-.125-.1836-.15235-.17187-.17969-.30078-.42578-.2461-.5039-.17969-.55469-.10937-.58203-.03906-.59375h.83203l.03125.5625.08203.50781.125.4414.16406.375.1875.30079.21094.21875.22266.14062.22656.04688.22656-.04688.22266-.14062.21093-.21875.19141-.30078.16406-.375.125-.4414.08203-.50782.02735-.5625-.02735-.5625-.08203-.5-.125-.4336-.16406-.36718-.1914-.29297-.21094-.21485-.22266-.1289-.22656-.04688-.22656.04688-.22266.1289-.21094.21485-.1875.29297-.16406.36719-.125.43359-.08203.5-.03125.5625h-.83203l.03906-.58985.10937-.58203.1797-.54687.24608-.49219.30079-.41797.17187-.17578.1836-.15234.1953-.11719.21095-.08984.21875-.0586.22656-.01562m5.09375 0H187v6.29297h-.78516v-4.48829h-1.39062v-.55859l.5586-.0625.2539-.05469.23047-.08984.20312-.14063.17188-.21093.14453-.29297.10547-.39453m2.82031 2.17187h.78906l.01953-.3125.0586-.28906.10156-.25.13672-.21875.1836-.17188.22265-.1289.26562-.08203.3086-.02735.23828.02344.22266.0625.20312.10156.17969.13672.14844.17578.11328.20313.0703.23828.02735.26172-.02344.26953-.0664.22656-.10938.1914-.15625.17188-.19922.16016-.24609.16797-.63672.38672-.53515.3125-.4375.3164-.34766.32813-.26172.33594-.1914.34765-.125.3711-.07032.39453-.01953.41797h4.21094v-.7422h-3.33203l.08203-.28124.11328-.23828.14844-.20313.1875-.17969.23047-.17187.28125-.17578.71484-.41406.41797-.20704.34375-.23046.28125-.25.21875-.26954.16406-.27734.11328-.28125.0625-.28515.01953-.28125-.04297-.38282-.11718-.35156-.1914-.30469-.25-.26562-.30079-.21094-.34766-.16016-.3789-.09765-.40625-.03125-.4375.03125-.39844.09765-.35156.16797-.30469.23438-.25.30469-.1875.37109-.11328.44922-.04297.51562"/></g></defs><use xlink:href="#as"/></svg>