<svg xmlns="http://www.w3.org/2000/svg" role="img" xmlns:xlink="http://www.w3.org/1999/xlink" viewBox="142.45 309.95 326.84 171.84"><defs><clipPath id="a"><path d="M144 447h1v33.32813h-1zm0 0"/></clipPath><clipPath id="b"><path d="M144 311.67188h1V437h-1zm0 0"/></clipPath><clipPath id="c"><path d="M144 311.67188h324v168.65625H144zm0 0"/></clipPath><clipPath id="d"><path d="M389 479h5v1.32813h-5zm0 0"/></clipPath><clipPath id="e"><path d="M467 311.67188h1v168.65625h-1zm0 0"/></clipPath><clipPath id="f"><path d="M144 479h4v1.32813h-4zm0 0"/></clipPath><clipPath id="g"><path d="M147 479h2v1.32813h-2zm0 0"/></clipPath><clipPath id="h"><path d="M153 479h9v1.32813h-9zm0 0"/></clipPath><clipPath id="i"><path d="M160 479h3v1.32813h-3zm0 0"/></clipPath><clipPath id="j"><path d="M159 479h2v1.32813h-2zm0 0"/></clipPath><clipPath id="k"><path d="M166 479h9v1.32813h-9zm0 0"/></clipPath><clipPath id="l"><path d="M173 479h3v1.32813h-3zm0 0"/></clipPath><clipPath id="m"><path d="M172 479h3v1.32813h-3zm0 0"/></clipPath><clipPath id="n"><path d="M180 479h8v1.32813h-8zm0 0"/></clipPath><clipPath id="o"><path d="M187 479h3v1.32813h-3zm0 0"/></clipPath><clipPath id="p"><path d="M193 479h8v1.32813h-8zm0 0"/></clipPath><clipPath id="q"><path d="M200 479h3v1.32813h-3zm0 0"/></clipPath><clipPath id="r"><path d="M206 480h9v.32813h-9zm0 0"/></clipPath><clipPath id="s"><path d="M213 480h3v.32813h-3zm0 0"/></clipPath><clipPath id="t"><path d="M220 479h8v1.32813h-8zm0 0"/></clipPath><clipPath id="u"><path d="M227 479h2v1.32813h-2zm0 0"/></clipPath><clipPath id="v"><path d="M233 479h8v1.32813h-8zm0 0"/></clipPath><clipPath id="w"><path d="M240 479h3v1.32813h-3zm0 0"/></clipPath><clipPath id="x"><path d="M239 479h2v1.32813h-2zm0 0"/></clipPath><clipPath id="y"><path d="M246 479h9v1.32813h-9zm0 0"/></clipPath><clipPath id="z"><path d="M253 479h3v1.32813h-3zm0 0"/></clipPath><clipPath id="A"><path d="M260 479h8v1.32813h-8zm0 0"/></clipPath><clipPath id="B"><path d="M266 479h4v1.32813h-4zm0 0"/></clipPath><clipPath id="C"><path d="M273 478h8v2.32813h-8zm0 0"/></clipPath><clipPath id="D"><path d="M280 478h3v2.32813h-3zm0 0"/></clipPath><clipPath id="E"><path d="M286 479h9v1.32813h-9zm0 0"/></clipPath><clipPath id="F"><path d="M293 479h3v1.32813h-3zm0 0"/></clipPath><clipPath id="G"><path d="M300 479h8v1.32813h-8zm0 0"/></clipPath><clipPath id="H"><path d="M307 479h2v1.32813h-2zm0 0"/></clipPath><clipPath id="I"><path d="M313 480h8v.32813h-8zm0 0"/></clipPath><clipPath id="J"><path d="M319 480h2v.32813h-2zm0 0"/></clipPath><clipPath id="K"><path d="M326 479h9v1.32813h-9zm0 0"/></clipPath><clipPath id="L"><path d="M332 480h2v.32813h-2zm0 0"/></clipPath><clipPath id="M"><path d="M340 478h7v2.32813h-7zm0 0"/></clipPath><clipPath id="N"><path d="M354 477h6v3.32813h-6zm0 0"/></clipPath><clipPath id="O"><path d="M368 477h5v3.32813h-5zm0 0"/></clipPath><clipPath id="P"><path d="M382 476h3v4.32813h-3zm0 0"/></clipPath><clipPath id="Q"><path d="M394 477h6v3.32813h-6zm0 0"/></clipPath><clipPath id="R"><path d="M408 476h4v4.32813h-4zm0 0"/></clipPath><clipPath id="S"><path d="M422 476h4v4.32813h-4zm0 0"/></clipPath><clipPath id="T"><path d="M435 476h4v4.32813h-4zm0 0"/></clipPath><clipPath id="U"><path d="M449 476h2v4.32813h-2zm0 0"/></clipPath><clipPath id="V"><path d="M461 476h5v4.32813h-5zm0 0"/></clipPath><clipPath id="W"><path d="M144 466h4v2h-4zm0 0"/></clipPath><clipPath id="X"><path d="M144 452h4v3h-4zm0 0"/></clipPath><clipPath id="Y"><path d="M144 439h4v3h-4zm0 0"/></clipPath><clipPath id="Z"><path d="M466 440h2v4h-2zm0 0"/></clipPath><clipPath id="aa"><path d="M144 426h4v2h-4zm0 0"/></clipPath><clipPath id="ab"><path d="M466 425h2v3h-2zm0 0"/></clipPath><clipPath id="ac"><path d="M144 413h4v2h-4zm0 0"/></clipPath><clipPath id="ad"><path d="M466 411h2v3h-2zm0 0"/></clipPath><clipPath id="ae"><path d="M144 398h4v5h-4zm0 0"/></clipPath><clipPath id="af"><path d="M466 398h2v3h-2zm0 0"/></clipPath><clipPath id="ag"><path d="M465 399h3v3h-3zm0 0"/></clipPath><clipPath id="ah"><path d="M144 385h4v4h-4zm0 0"/></clipPath><clipPath id="ai"><path d="M466 386h2v3h-2zm0 0"/></clipPath><clipPath id="aj"><path d="M144 372h4v4h-4zm0 0"/></clipPath><clipPath id="ak"><path d="M466 373h2v3h-2zm0 0"/></clipPath><clipPath id="al"><path d="M144 359h4v3h-4zm0 0"/></clipPath><clipPath id="am"><path d="M144 343h2v8h-2zm0 0"/></clipPath><clipPath id="an"><path d="M466 346h2v3h-2zm0 0"/></clipPath><clipPath id="ao"><path d="M144 330h3v8h-3zm0 0"/></clipPath><clipPath id="ap"><path d="M466 332h2v3h-2zm0 0"/></clipPath><clipPath id="aq"><path d="M144 316h1v9h-1zm0 0"/></clipPath><clipPath id="ar"><path d="M144 323h1v3h-1zm0 0"/></clipPath><clipPath id="as"><path d="M144 322h1v3h-1zm0 0"/></clipPath><clipPath id="at"><path d="M466 319h2v3h-2zm0 0"/></clipPath><g id="au" clip-path="url(#clip1)"><path fill="#fff" fill-opacity="0" fill-rule="evenodd" d="M0 0h1000v1000H0zm0 0"/><path fill="#d3d3d3" fill-opacity="0" fill-rule="evenodd" d="M162.15234 355.86719l-.23437.29297.0586.23437.11718.17188.17578.23437.29297.34766.11328.0586.11719-.17188.0586-.23438.17577-.17578.46485-.17578h.69922l.23437.29297.28906.8164.0586.17579.17578.23046.35156.23438.69922.69922.17188.17578.23437.34765.23438.41016.28906.58203.41015.46485.23047.23437.23438.17578.11719.23047.17578.29297.17187 1.16406v.23438l.0586.28906.05859.11719.11719.11719.34765.41015.11719.17188.17578.17578.17578.23437.11719.17188.17188.35156.05859.23438.23437.40625.23438-.0586-.17578.17578-.0586.92969h-.58203l-.23437-.11328-.34766.11328-.11719.11719-.05859.29297-.0586.17578-.11718.17187-.46484.29297-.0586.23438-.0586.11328v.64453l.0586.17187v.41016l.0586.0586v.40624l.05859.40625.11719.17579.05859.05859.23047.64062-.0586.29297v.69922l-.05859.58203v.23438l-.0586.23047-.05468.35156v1.92187l.05469.1172h.42578l-.36719.11718-.02344.35156.89063 1.16797 1.74219.53906 1.33984.35938v.53906l.08984.8086.53516.71484 1.51953.26953.89063-.08594.08984 1.16406.53516.1797 1.16015-.1797 2.05469-.98437 1.16016-.36328 1.8789-.17578 1.69531-.1797-.17968.71876-1.51563.08594-1.25.08984-.80469.26953-1.07421.8086.26953.71875.53515.89843-.17968.625-.26563.8086.26563 1.07812.625.89844.80468.17969 1.25-.1797-.26562.72267.09766.5039.05468.29297v.17188l.0586.29296v.40625l.17578.1172.35156.11718h.40625l.29297-.17578.11328-.11719.0586-.11719.11718-.23047.0586-.17578.35156-.46484.23047-.17578.17578-.0586.17578.0586.0586.17578.11718.98828.05469.46875.0586.17188.11718.23437.17578.0586.8164.05859h.28907l.11719.23437.05859.40625.0586.35156v1.10547l.11718.29297.11719.34766.28906.69922.17578.35156.58203.7539.35157.17579.17187.0586.46875.23437.64063.46484.34765.23438.29297.17578.29297.05468.23047.0625.8164.34766.29297.17578.11328.17188.35157.35156.11719.17578.52343.64063v.28906l.0586.35156v.34766l.05859.35156.0586.28906.11718.0586.17188.05859h.17578l.58203.23437.17578.1172.17578.28905.17578.23438.11328.23437.29297.23047.11719.11719v.41016l.0586.05468.28906.23438.23437.11719.0586.11718.11718.17188.0586.11719.23047.23437.05859.17578.23437.0586.1172.05859-.1172.11328-.05859.11719v.11719l-.11719.29296-.11719.28907v.58203l.17579.11719.11718.05859.0586.11719.11719.11719.11328.05859.17578.34765.0586.35157.05858.40625v.17578l-.05859.17578-.11719.69922v.17187l.1172.17579.29296.29296h.40625l.17578.1172.11719.17187.11719.29296v.23438h-.52735l-.23047-.23438h-.23437l-.17578.0586-.0586.69922.0586.34765.11719.17579.17578.41015.11718.23047.28907.46875.17578.05469h.52344l.23437.0586.75781.64062.0586.29296v.23438l.05859.0586.23047.34765v.35156l-.11719.17188v.29297l.29297.28906.29297.17578.17187.0586.29297.17577.29297.1172.58203.40624.28906.23438.29297.17578.21875.16015.01563.01172.23047.17579.64062.52343.17578.23438.1172.17578.17577.17578.11328.17188v.64062l.1172.17578.46874.11719.58203.11719.23438.05859.23047.11328.29297.11719.11328.0586.58593.35156.28907.17187.17578.0625.17578.05469.17578.0586.69922.35155.28906.17579.23438.05468.28906.17578.23437.1172.64063.40624.29297.11719.17187.0586.23438.05859.41015.05859.23047.0586.23438.11718.0586.17188-.41017.17578.46875.0586.0586.29296.11328.23438.17578.05468.23438.0586.17578.05859.40625.11719.64062.23437.11719.17188.0586.23437v.17578l-.0586.1172-.0586.40624.23438.23438.11719.05859.34766.11719.64062.23047.17578.11718.28906.1172.17578.17577.23438.46485.58203 1.10546.17578.17579.34766.17578.17578.11719.35156.11718 1.04688.52344.23437.0586.46485.11327.29297.0586.46484.17578.75781.58203.23438.23438.34765.46484.17578.17578.28907.23438.8164.69921.29297.17579.28906.28906.29297.17578.29297.28906.69531.64063.17578.17578.29297.23437.28907.23438.46875.28906.64062.58203.34766.23438.23437.29297.34766.34765.35156.46485.9336.99218.34765.40625.11719.17579.23437.05859.11328.11719.64454.17578.23047.11328.23437.0586.29297.17577.23047.1172.9336.69921.40624.40625.23438.17578.40625.17578.23437.11719.8164.34766.34766.23437.23438.11719.29297.28906.23047.11719.7578.35156.35157.17188.23047.05859.29297.11719.23437.0586.8711.17577h.8164l.46875.23047.17188.0586.875.69921.46484.1172.29297.05858.17578.0586.23047.0586.46875.05859.34766.05859.35156.0586.40625.05859h.29297l.17187.0586v.23046l.17578.17578h.29297l.34766.0586.35156.05859.69922.11719h.64063l.46484-.23438.29297-.17578.17187-.11719.41016-.17187.28906-.17578.9336-.46485.46875-.29297.52343-.29296.46485-.17188.46484-.17578 1.05078-.46485.28906-.11718.41016-.11719.28906-.11719.52735-.17578 1.51562-.69922.58203-.34765.28907-.0586.29297-.0586.34765-.11718.875-.23047.35156-.11719h.11329l.23437-.05859.875-.23437.23438-.0586h.8125l.35156-.0586.8164-.11718.17188-.0586.35156-.05468.29297-.0586.23047-.05859.8164-.17578.17579-.0586h.34765l.23438-.05859.46484-.11718.75781-.17188.23438-.0586h.34765l.41016-.11718.28906-.0586 1.28516-.05859h.28906l.41016-.0586.23047-.05858h.17578l.875-.1172h.40625l.41015-.11718h.34766l.35156-.11328.8711-.0586h1.75l1.04687.28907.41016.11719.28906.11718.35156.11719.28907.11719 1.05078.17187.28906.0586h.29297l.29297.05859.17187.0586.41016.05859.17187.0586.1172.05858h.11718l.11719.0586.35156.0586h.11328l.41016.0664 1.92187.39453 1.92578.39453 1.51953.44922 1.69532.71875 2.14453.80469 1.60547-.71875 1.42968-.80469 1.16016-1.07813 1.25-.44921 3.03516-.71875 1.875-.35938 2.14453-1.34765 2.23437-1.25391 2.5-1.25781 1.69531-.44922 1.78516-.17969 1.16016-.26953.625.53906 1.33984-.26953.71485-.98828.98437-1.34375.44531-.17969.80469-.35937 1.875-.53907 1.78516-.44921 1.25-.26954 1.16015-.08984 1.69922-.08984 1.96094-.26954 1.25-.08984h.53906l.625-.08984h.89063l2.14453-.17969 2.41015-.17969 2.58985-.08984 1.69531.17969 1.60938.08984 1.42968.35938 1.16016.71875 1.875.98828 1.16015 1.52734.26563.71484.6289.08985.35548.89844.53515.53906.53516 1.52734 1.07422.35938h.53515l-.80469.53515.08985 1.70703.71484 2.69532.89063.80468.89453.98829.71484 1.2578 1.78516.53907 1.51953-.17969.35547 1.34375 1.60937-.80469.98047-.53906.26953.26953.31641-.21484.21875-.14453.80078.44922.44922-.35938h.35547l.53515-.26953.53907-.71875.53515-.26953.625-.98828 1.16016.44922.83984.3711 1.39454.61718 1.6953-.17969h1.60548l1.78515.08985.17969-1.70704.53516-1.34375.80468.26954.4922.84765.40233.40625-.08984.53906v.35938l.71485.44922.71093-.26953h1.42969l.35938.98828.4453 1.25781.71485 1.34375 1.25.6289 1.69531.62891.71485-.17969.17969-.53906.98046-.08984.44922.35937.08594 1.25782-.26563.6289-.53515.17969v.53906l.71484.98438.26563.53906.98437.98828.80078 1.07813-.26562.35937-.08985.89844-.625 2.33203-.35546 2.0664-.08985 1.79298-.17969.71875-.08984.53906v1.4375l-.98047 1.88281-.35937 1.70703-.53516.89844-.80469 1.16797-.26562.53906 2.05469 1.2539.08593.35938-.35546.53906-.08985-.17968v.80859l.08985 1.4375-.44532.71484-1.07422.09375-.26562.71485.53515.89844.8047.71875 1.16015.80859 1.33984.26953.44531.35938-.35546.44921-1.78907-.08984-1.25-.44922-.71484-.71875-.625-.08984-.17578 3.58984-.1875 1.3086h89.35937V311.70313h-55.26953v49.08203l.76172.125 3.28906.54296 2.02344 2.83594v2.7539l2.35156.33204 2.34766.33203h4.05078l-1.3789 4.16016-2.02344.70703-2.02344.70312-.54297.34375-2.59375 1.6172-.1875.11718-2.02344-2.07813-.73046-2.74218-2.67188-2.07813-1.375-3.5-.0664-.08203-1.95704-2.67188 2.75-1.41796v-49.08204H294.42187v91.41407l.1172.03125.1328.01172.07422.07421.10547.04688.08985.0586.08593.05859.08985.0586.29687.29687.0586.08984.03125.11719.02734.11719.01563.13671-.03125.1172-.0586.08983-.0586.08594-.04296.10547-.04688.10156-.02734.1211v.14453l.17578.26953.14844.14844.07422.08594.07422.07421.04296.10547.0625.08985.0586.08593.04297.10547.0586.08985.04687.10156.04296.10547.0586.08594.11719.17968.07421.07422.0625.08594.0586.08984.04297.10547.0586.08985.05858.08593.0625.08985.0586.08984.04297.10156.11719.17969.07421.07422.0586.08594.07422.07421.08984.0586.10547.04687h.14844l.1328-.01562.13282.01562.10156-.04687.07422-.07422.04688-.10156-.01563-.13281v-.14844l-.04687-.10547-.02735-.11719-.04687-.10156-.02735-.1211-.04296-.10156-.0625-.08984-.04297-.10156-.04297-.10547-.03125-.11719-.01563-.13281-.01171-.13672.08593-.0586.0586-.08593.12109-.03125.04297.10547.01562.1328v.1172l.0586.10156.0586.08984.08983.0586.14844.14843.0586.08985.04296.10547-.01171.10156.08593.0586.10547.04687.08594.0586.08984.05858.07422.07422-.11719.02735-.10546.04687-.08594.0586-.07422.07421-.0586.08985-.0625.08594-.02734.12109-.04687.10156-.04297.10547-.03125.11719-.01172.13281-.01563.13281v.14844l.02735.11719.04687.10547.04297.10156.0586.08984.07421.07422.08985.0586.07422.07421.08984.0586.0586.08984.04296.10547.04688.10156.11719.03125.1328.01563h.14845l.11718-.03125.10547.04297.04297.10547.04688.10156.02734.1211L299.5 410l.02734.11719.03125.1211.02735.11718.10547.04297.10156.04687.13281-.01562.14844.14844.0625.08593.07422.07422.07031.07422.08984.0625.10547.04297.10156.04297.1172.03125.13671.01562.11719-.03125.07422-.07422.02734-.11718-.01172-.13282-.03125-.12109-.02734-.11719.04297-.10547h.11719l.08984.0625.11719.02735h.14843l.13282.01562h.14843l.13282.01563.1328-.01563h.14845l.1328-.01562.13282-.01172.13672.01172.11719-.02735.13281-.01562.1914-.0586-.05859.17579-.01562.1328-.02735.1211-.01562.13281-.0586.08594-.1328.01563-.10548.04687-.10546.04297-.1172.03125-.11718.02735-.26563.03125h-.14843l-.13281.01562-.07422.07422.05859.08594.14844.14843.11719.1797.07421.0703.08985.0625.08984.0586.08594.0586.08984.05858.10156.04297.10547.0625.10547.04297.08594.0586.10547.04687.10156.04297.17969.11719.0586.08984-.04298.10156-.04687.10547.01562.13281.22266.22266.0586.08985.04296.10156.03125.1211.04297.10155.01563.13282.03125.11718.01171.13672.03125.11719.14844.14844.10156.04297.10547.04296.1172.03125.1328.01563.13672.01563h.11719l.11719-.03125.08984-.0586.04297-.10547.04688-.10156.04296-.10547.03125-.11719.01172-.1328v-.14845l-.01172-.1328-.01562-.13282-.03125-.11719-.04297-.10547-.04688-.10547-.04296-.10156-.04297-.10547-.01563-.13281.01563-.13281.02734-.11719.03125-.11719.02735-.1211.04687-.10155.08984-.0586.08594-.0625.07422-.07422.08984-.05859.22266-.22266.0586-.08593.07421-.07422.11719-.17969.0586-.08594v-.14844l-.07423-.07421-.10156-.04688-.10547-.04297-.10156-.04297-.0586-.08984-.04687-.10547-.02734-.11719.08984-.05859.11719-.03125.10156-.04297.17969-.11719.14844-.14843.01172-.13282-.01172-.10546-.08985-.0586-.1328.01563h-.14845l-.1328.01562-.13282-.01562-.1211-.03125-.08593-.0586-.07422-.07422-.0586-.08984-.0625-.08594-.11718-.17969-.0586-.08593.03125-.1211.08594-.05859.1211-.03125.05859-.08594v-.1211l-.03125-.11718-.0586-.08984-.05859-.08594-.04687-.10547-.02735-.11719-.01562-.1328.0586-.08985.07421-.07422.08984-.0586.1172-.17968.07421-.07422.0586-.08594.14843-.14844.1211-.03125.1328-.01562.13282.01562.07422.07422.04297.10547.01562.13281-.03125.1172-.11719.03124-.1328.01172-.14844.14844-.04297.10547-.04688.10156-.02734.1211-.03125.11718v.14844l.03125.11719.04297.10546.05859.08985.07422.07031.07422.07422.11719.03125.12109.02734.11719-.02734.1328-.01563h.1172l.08984.0586.07422.07422.04687.10546.0586.08594.10156.04688.13281.01562.10547.04297.08594.0586-.01172.10546-.07422.07422-.17969.11719-.05859.08984-.08984.0586-.07032.07422-.07421.07421-.0625.08985-.02735.11719-.01562.1328.01562.13282-.01562.13281v.14844l.01562.13281.02735.1172.03125.12108.07421.07422.08985.0586.08594.0586.08984.05858.11719.03125v.08594l-.10157.04688-.08984.0586-.26563.03124-.11718.02735h-.14844l-.10547.04296-.10156.04688-.0586.08984-.0625.23438-.01171.13281-.03125.1211-.01563.1328v.29298l-.01172.1328.01172.13673.01563.1328.1328.01563.13282.01172.1211.03125.08593.0586.07422.07421.04688.10547.04296.10157.01563.1328v.44532l-.01563.13281v.44532l.03125.26562.02735.11719.01562.13281.03125.11719.08594.21094.03125.26562v.14844l-.03125.11719-.02734.11718-.03125.1211-.02735.11719-.03125.11718-.03125.1211-.01171.1328-.01563.13282.08984.0586.1172-.03125.10155.01562.04688.10547-.03125.26562v.44141l-.04297.10547-.04688.10547-.04296.10156-.04297.10547-.0586.08594-.03125.12109-.04296.11719-.03125.11719-.01563.1328.01563.13282.05859.08984.10547.04688.08594.0586.05859.08593-.01172.13672-.03125.11719-.04297.10156v.44531l-.01562.13281v.14844l-.03125.11719-.04297.10547-.02735.11719-.04687.10546-.04297.10157-.03125.12109-.02734.11719-.03125.13281-.03125.11719-.02735.11719-.04297.10546-.03125.1172-.03125.12108-.01171.13282-.01563.13281v.29688l.02734.11718v.14844l.04688.39844.02734.11719.0586.08984.12109.03125h.14844l.13281-.01563.0586.08985v.11719l-.0586.08984-.08984.0586-.10157.04296-.10546.04688-.08985.05859-.08594.0586-.13671.01562-.1172-.03125-.1328-.01563-.10157.04688-.0625.08594-.01172.13671-.01562.13282-.03125.11719-.02735.11718-.01562.13281-.03125.1211v.29687l.01563.13282.03125.11718v.14844l.01171.13281v.14844l-.02734.11719-.04688.10156-.02734.1211-.03125.11718-.0586.08985-.07421.07421-.10156.04297-.10547.04688-.11719.02734-.1211.03125-.10156-.04687.0586-.08594.10547-.04688.02734-.11718.03125-.11719.02734-.1211.03125-.11718v-.14844l.01563-.13281-.03125-.11719-.04297-.10547-.10547.01563-.07422.07422-.10156.04296-.08984.0625-.07422.07422-.04297.10157-.01563.1328-.03125.1172L304.25 426l-.03125.11719-.02734.11719-.03125.12109-.02735.11719-.03125.11718-.04297.10547-.08984.0586h-.08984l-.1172-.03125-.03124-.08594.01562-.13672-.03125-.11719v-.14844l-.01171-.1328v-.14844l-.0625-.23438-.02735-.1211-.04297-.10156-.04687-.10546-.0586-.08594-.05859-.08985-.04297-.10546-.0625-.08594-.14844-.14844-.0703-.07422-.10548-.04687-.10547-.04297-.10156-.04297-.29687-.29688-.08985-.07421-.08594-.0586-.10546-.04297-.08985-.0625-.08594-.0586-.10546-.04296-.08985-.0586-.08594-.0625-.07421-.0703-.10547-.04688-.08594-.0586-.10547-.04296-.08984-.0625-.10156-.04297-.10547-.04297-.08594-.0586-.10547-.04687-.10547-.04297-.10156-.04687-.08985-.0586-.10156-.04297-.10547-.04296-.08984-.0625-.11719-.02735-.13281-.01562-.13281.01562H299.75l-.13281.01563-.11719-.03125-.08984-.0586-.07422-.07422-.08985-.05859-.10156-.04688h-.14844l-.12109-.02734-.10156-.04297-.07422-.07422-.11719-.17968-.08984-.0586-.10156-.04297-.08985-.0625-.10547-.04296-.08984-.0586-.08594-.0586-.10547-.04687-.0586-.08594-.05858-.08984-.04297-.10547-.04688-.10156-.07422-.07422-.08594-.0586-.07421-.07421-.08985-.0586-.22265-.22265-.04297-.10547-.03125-.26563.10547-.04296h.14453l.10547.04296.07421.07422.08985.0586.08594.0586.10546.04687.08985.05859.14844.14844.0703.07422.14845.14843.0625.08594.07421.07422.08594.0586.07422.07421.08985.0625.08984.0586.08594.05859.26953.17578.10156.04688.10547.04296.10156.04297.04688-.07421.05859-.08594.07422-.07422.07031-.07422.10547.04297.07422.07422.0586.08984.04296.10156.04688.10547.04296.10547.1211.02735.11719-.02735.07421-.08984.04297-.10547.0586-.08985.07422-.07421.10546-.04297.1172-.02735.1328.01172.08985.0586.14844.14843.05859.08985.04297.10547.04687.10156.04297.10547.04297.10156.10547.04688.10547.04296.13281.01563.08594-.0586.0586-.08984.07421-.07422.10547-.04297.11719.02735.10547.04687.10156.04297.10547.04297.10156.04688.17969.11718v.11719l-.01563.13281.01563.13281.01562.13672.0586.08594.10156.04688.1211.02734.11718.03125h.14844l.11719-.03125.05859-.08984.17969-.1172.05859-.08983.07422-.07422.0586-.08594.11718-.17969.17969-.11719.11719.03125.08984.0586.04297.07422-.01563.1328v.1172l.08985.05859h.14843l.13282-.01563.1328-.01171.26563-.03125.10547-.04297.11719-.03125.1211-.02735.07421-.07421.07031-.07422.0625-.08985-.01562-.10547-.04688-.10156-.10156-.04297-.10547-.01562-.11718.02734-.26563.03125h-.14844l-.07421-.07422-.08985-.0586-.11719-.03124-.11718-.02735-.13282-.01562h-.14843l-.13282.01563h-.29687l-.10547-.04688-.14844-.14844-.04297-.10156-.05859-.08984.22266-.22266.08593-.0586.10547-.04296.11719-.03125.13281-.01563.13281.01563.13672.01562.10157.04297.1328-.01172.08985-.0625.10156-.04297.0625-.08984-.04687-.10156-.08984-.0586-.1172-.03125-.10155-.04296-.0586-.08985-.0625-.08984v-.11719l.01563-.13281.10547-.04688.07421-.07031v-.1211l-.08984-.05859-.03125-.11719.08985-.05859.07421-.07422.04297-.10547.0586-.08984.04687-.10156.01563-.13281v-.14844l-.04688-.10547-.04297-.10156-.08984-.0586-.13281-.01562-.10157-.04297-.13671-.01563-.1172-.03125h-.4453l-.13282-.01562-.13281-.01172-.13281-.01563-.11719-.03125h-.14844l-.13281-.01562-.13281-.01172-.26563-.03125-.1211-.04297-.08593-.0586-.07422-.07421v-.14844l.01172-.13281.10547-.04688.10156-.04296.13281-.01563h.15235l.13281-.01562h.29297l.1211.03125.10156.04296.08984.0586.23438.0625.12109-.04688.08984-.05859.10156-.04297.13282-.01562.10547.04296.10156.04688.13281.01172.1211-.02735h.14453l.12109-.03125.11719-.02734.10547-.04687.07421-.07422.08594-.0586.14844-.14843.0586-.08594.04687-.10547.02734-.11719.01563-.10547-.10156-.04296-.08985-.0586-.11719-.03125-.10546-.04297-.08985-.0625-.07422-.08594-.07422-.07421-.10156-.04297-.10547-.04688-.10156-.04297-.0586-.08984-.04687-.10156-.08594-.21094-.0625-.08594-.05859-.08984-.07422-.07422-.08594-.0586h-.26953l-.11719.03126-.08984.05859-.10156.04297-.13281.01562-.10547-.01562-.02735-.11719-.0625-.08984-.11718-.03125-.10157-.04297-.14843-.14844-.03125-.11719-.01563-.10546.07422-.07422.17969-.1172.11719-.02733.11718-.03125.13672.01562.10156.04297.10547.04297.10156.04687.10547.04297.1172.03125.1328.01563.1172.02734.1328.01563.10547-.01563.08985-.0586-.07422-.07421-.10547-.04297-.07422-.07422-.07422-.08984-.14844-.14844-.08593-.0586-.08985-.05859-.07422-.07422-.08984-.0586-.10156-.04687-.1211-.02734-.10156-.04688-.10547-.04296-.11719-.03125-.10156-.04297-.1211-.03125h-.14843l-.11719.03125-.10546.04297-.08594.0625-.17969.11718-.08594.0586-.08984.0586-.10547.04687-.08594.05859-.10547.04297-.10156.04297-.10547.04687-.07422.07422-.05859.08985-.0586.08593-.04687.10547-.0586.08594-.07421.07422-.13281-.01172-.1172-.03125h-.11718l-.07422.07422-.08984.0586-.07422.07421-.08984.0586-.08594.05859-.10547.04687-.10156.04297-.13672.01563-.10156-.04297-.14844-.14844-.10547-.04688h-.08594l-.10547.04688-.10156.04297-.1211.03125-.11718-.03125-.07422-.07422v-.11719l.03125-.1211.07422-.0703.0586-.08985.07421-.07422.11719-.03125.10547-.04296h.29297l.13281-.01563.13672-.01563.10156-.04296.08985-.0586.10156-.04687.08984-.0586.13281-.01171.08985.05859.13281.01172.08984-.0586.08594-.05859.10547-.04297.08984-.0586.08594-.0625.08985-.05859.14843-.14843.0586-.08594.05859-.08985.10547-.04296.13281-.01563.11719.02735.1211.03125.05859-.0586.05859-.08984.03125-.26563.02734-.11719.10547.01172.13281.01563.10157-.04297.08984-.0586.0586-.08984.07421-.07422.0586-.08984.04687-.10156.01172-.13281-.01172-.13282-.04687-.10547-.14844-.14843-.0586-.08985-.05859-.08594-.04297-.10546v-.44532l.01563-.1328v-.14845l.01172-.1328-.0586-.0586-.08984.0586-.10156-.04298-.17969-.11719-.08594-.05859-.0625-.08984-.0586-.08985-.07421-.07421-.08594-.0586-.1211.03125-.10155.01172-.10547.04688-.08594.05859-.10547.04297-.14844.14844-.08984.05859-.08594.0586-.08984.0625-.10547.04296-.13281.01563v-.1211l.10547-.04297.11718-.03125.07422-.0703.04297-.10548v-.14844l-.02734-.11718-.14844-.14844-.13281-.01563h-.14844l-.11719.03125-.10547.04297-.10156.04297-.08984.0625-.11719.02735-.07422-.07422.01172-.13281-.04297-.10157-.04297-.10547-.08984-.05859-.11719.02734-.1211.03125-.11718.03125-.10156.04297-.1211.03125-.10156.04297-.10547.04297-.08984.0586-.10156.01562v-.11719l.01562-.13281-.0586-.08985-.07421.04297-.14844.14844-.0586.08985-.07421.07421-.04688.10547-.04296.10156-.07422.07422-.0586.08985-.07422.07422-.05859.08593-.07422.07422-.08984.0625-.07422.07031-.07422.07422-.10156.01563-.13281.01562-.10547-.04296v-.1211l.14843-.14844.04297-.10156.0586-.08984.04687-.10156.04297-.10547.0586-.08985.03124-.11719.04297-.10156.03125-.1211.02735-.11718.04687-.10547.04297-.10156.04297-.10547.07422-.07031.08984-.0625.08985-.0586.10156-.04296h.29687l.26563-.03125.10547-.04297-.07422-.07422-.11719-.03125-.10547-.04297-.08984-.0586-.10156-.04687-.08985-.0586-.10156-.04296-.10547-.04297-.08984-.0625-.08594-.0586-.10547-.04296-.10156-.04297-.1211-.03125-.11718-.03125-.10157-.04297L297.5 410.25l-.10156-.04297-.08985-.0586-.04296-.10546-.01563-.13281.10156-.04297.13281-.01563.13672.01563.13282-.01563.10156-.04297.0586-.08984.01562-.10547-.08985-.0586-.07421-.07421-.10157-.04297-.08984-.0586-.14844-.14843-.04297-.10547-.01562-.13281v-.29297l-.0586-.08985-.08984-.05859-.07422-.07422-.04297-.10547-.03125-.11718-.0586-.08985-.07421-.07422-.11719-.02734-.07422-.07422-.08984-.0586-.08984-.0625-.08594-.05859-.07422-.07421-.0586-.08594-.04687-.10547-.08594-.0586-.14843-.14843-.19532-.0586-.1328.01563-.10157.04297-.07422.07422-.04688.10156-.04296.10547-.0586.08984-.0586.08594-.29687.29687-.08984.0586h-.08594l-.0625-.08594-.04297-.10547.03125-.11719.0586-.08984.02734-.11719-.01172-.13281-.08984-.0625-.10547.04688-.11719.02734-.11719.03125-.26953.17578-.10156.04688-.11719.02734-.10546.04687-.08985.0586-.10156.04297-.0586-.08594-.04687-.10547.01563-.13281.04687-.10547.07031-.07422.07422-.07031.0586-.08985v-.14843l-.04297-.10547h-.23829l-.10156.04687-.03125.11719-.02734.11719-.03125.1211-.07422.04296-.13281.01563-.07422-.04688-.04297-.10156-.04297-.10547-.04687-.10156-.04297-.10547-.1211.03125-.10156.04297-.13281.01562-.11719.03125-.10547.04297-.08984.0586-.10156.04687-.1211.02734-.13281.01563-.10156-.04297-.0586-.08985-.04687-.10546-.04297-.10157-.04297-.10546v-.1172l.0586-.08984.08593-.05859.17969-.11719.10156-.04687.10547-.04297.10547-.0586.10156-.04296.08985-.0625.10156-.04297.10547-.0586.10156-.04687.08984-.0586.10547-.04296.10156-.04297.08985-.0625.10156-.04297.13672-.01563.11719.03125.10156.04297.1211.03125.10156.04297.10546.04688.10157.04296.10547.04297.10156.04688.10547.04297.10156.04297.10547.04687.08594.0586.10546.04296.1172.03125.10546.04297.10156.04688.08985.0586.10547.04296.10156.04297.10547.04687.11719.02735.10156.04687.1211.02735h.14843l.08594-.0586.01562-.10156.0586-.08984-.02735-.1172-.07422-.07421-.11719-.17969-.07421-.07422-.08985-.07421-.17969-.1172-.08593-.05859-.10547-.04296-.10156-.04688-.26954-.17578-.05859-.08985-.07422-.07421-.0586-.08985-.04296-.10156-.03125-.11719-.01563-.13672v-.5625l-.01171-.1328-.01563-.13282-.03125-.11719-.01562-.13281-.01172-.13281-.03125-.1211-.22266-.22265-.0586-.08594-.01562-.10547.03125-.11719.13281-.01562v-91.41406H172.9922v1.45312l-.0586.23438-.35156 1.05078-.17187.52343-.1172.34766-.17577.41016-.11719.17187-.23438.29297-.23046.0586h-.35157l-.11718.05859-.23047.40625v.29297l.11719.17578.23046.23047.1172.23437.64062.75781.29297.46485.17578.23437.23047.35156.23437.34766.64063.8164.17578.46485.17187.41016.11719.69531.17578.46875.11719 1.39844.0586.46484v.875l.11718 1.04688v4.78125l-.0586.46484-.35156 1.28125-.17578.52344-.11328.41015-.35156.9297L172.93359 336l-.23437.58203-.11719.17578-.17187.34766-.17578.40625-.35157.8164-.0586.29297-.11327.29297-.11719.28906-.0586.17579-.11718.875-.0586.40625-.05859.11718-.0586.17579-.05859.17187-.23047.52734-.11718.17188v.23437l-.11719.23438-.0586.17187-.17577.58594v.28906l-.0586.17579v.29296l-.0586.11329-.05859.52734v.17187l-.05468.23438v2.6211l-.17578.8164-.1172.17578-.17577.23438-.1172.17187-.11327.23438-.58594.93359-.23047.28906-.29297.46485-.17578.23437-.28906.35156-.35156.69922-.11328.23047-.17579.41016-.17578.23046-.40625.52735-.8164.69922-.29297.17187-.28906.23438-.17579.11719-.17578.17578-.52344.40625-.52734.17578-.17187.17578-.23438.05469-.64062.17578h-.75782m12.21094 31.02344l-1.07422.44921.35938.89454 1.25-.71485.44531-.53906-.98047-.08985"/><path fill="#d3d3d3" fill-opacity="0" fill-rule="evenodd" d="M201.50781 416.59766h-.89453l.44922.6289.98047.35938.80469-.08985.4453-.98828-.17577.08985-.71485-.35547-.89453.35547m154.6211 59.0703l-.0586-.52343v-.29297l.11328-.29297.0586-.23046.46875-.46875h.11328l.11719-.11329.11718-.05859h.17579l.23437-.0586h.34766l.23437.0586.11719.0586.23047.17187.0586.17578.11718.58203v.29297l-.11719.17578-.17187.28906-.17579.17579-.52734.52343-.23047.23438-.11719.0586h-.17578l-.11718-.0586-.40625-.29297-.17579-.11719-.11718-.0586-.0586-.11327-.05468-.1172m6.64062-10.95702l-.0586-.17188v-1.10937l.0586-.17188.17578-.0586.17188-.05858h.17578l.23437-.0586.1172.0586.05858.69921-.05859.17188-.11719.17578-.11718.0586-.23438.52343-.11328.0586h-.23438l-.05859-.1172m9.61328-14.39062l-.11719-.17578v-.69922l.29297-.875.1172-.17187.17577-.35156.11328-.23047.1172-.29297.35155-.75781.1172-.23047.17187-.23438h.17578l.11719-.0586h.64062l.11719.0586.23437.23438.17188.11328.35156.29297.11719.11718.11328.17579v.11328l.11719.05859.11718.11719v.69922l-.05859.17578v.23047l-.0586.17578-.34765 1.05078-.11719.23047-.11719.23437-.11718.0586-.23047.23437-.64063.28906h-.875l-.41015-.11718-.64063-.46485"/><path fill="none" stroke="#bebebe" stroke-linecap="round" stroke-linejoin="round" stroke-miterlimit="10" stroke-width=".5" d="M467.95703 311.69531H144.02734v168.625h323.9297v-168.625"/><g clip-path="url(#a)"><path fill="#fff" fill-opacity="0" fill-rule="evenodd" d="M144 475.89063v4.4375h.0039H144v-33.23829 28.80079"/></g><g clip-path="url(#b)"><path fill="#fff" fill-opacity="0" fill-rule="evenodd" d="M144 435.94531v.09375-124.36719h.0039H144v124.27344"/></g><path fill="#50fcfc" fill-rule="evenodd" d="M144 442.84766v4.24218h.0039v-4.25l-.0039.00782"/><path fill="#00e8fc" fill-rule="evenodd" d="M144 439.1211v3.72656l.0039-.00782V439.125l-.0039-.0039"/><path fill="#50fcfc" fill-rule="evenodd" d="M144 436.03906v3.08203l.0039.00391v-3.08203l-.0039-.0039"/><g clip-path="url(#c)"><path fill="#fff" fill-opacity="0" fill-rule="evenodd" d="M144.0039 480.32813v-33.23829l2.64454-2.26953.45312-4.4375-3.09765-4.33984v-124.3711h106.51562v86.23047l-3.42187 2.53516-1.01563.4961-3.3711 3.9414-1.0664.95703-4.4375 2.02735-1.67187 1.45703-2.76953 1.91796-2.70313-1.91796-1.73438-1.66407-4.4375-1.93359-3.76171 3.59766-.67578.64062-4.4375.10156-4.44141.67579-4.07813 3.01953 4.07813 3.23046 1.85547 1.20704 2.0586 4.4375-3.91407 1.35546-4.4375-.0039-4.4375-.16406-4.4375 1.47265-4.4414.71094-1.82423 1.07031-2.61328.61719-3.91406 3.82031-.52344 1.4336-4.4375 2.8828-.14453.1211-4.29687 4.21094-4.4375-2.29297-4.12891 2.51953-.3086.1289-4.4375 3.25782-1.42187 1.05078-3.01562 2.72266-1.45313 1.71875 1.45313 4.14453.05859.29297 1.21094 4.4375 3.16797 3.61719 4.4375-2.3125 4.4375-.98438 1.35547-.32031 3.08203-.17578 4.13672-4.26172.30468-.8125 4.4375-3.33203.27344-.29297 4.16406-.8086 4.4375-.13671 4.4414-.72657 3.16017-2.76953 1.27734-.39062 2.13281.39062 2.30469 1.57031 4.4375-.14062 4.4414-.17188 4.4375.81641 4.4375-.92969 4.4375.75391 4.4375-1.05078.96875-.84766 3.47266-.76172 4.4375-.03125 4.4375-.09765v5.32812l-.02344.0039.02344.00392.01172-.00391-.01172-.0039v-5.32813l3.35156-3.54688-.80078-4.4375-2.55078-3.04297-1.10547-1.39453.97656-4.4375-.02734-4.4414-4.28125-4.28125-.0664-.15625.0664-.17188 4.4375-.28125 4.4375.36719.54688.08594 3.89062 3.35546 4.4414.1211v5.91797l-4.4414 3.08203-.8086.83984.8086.48438 4.4414 3.09765 3.62891-3.58203-3.6289-3.92187v-5.91797l3.59765-3.47656.83985-4.09766.21484-.33984 1.38672-4.4375-1.60156-1.41016-4.4375-.33594-2.23438-2.69531-2.20703-2.04688-1.6914-2.39062-2.7461-2.53516v-86.23046h26.63281v109.625l-.46875 1.33203-3.97265.98437-4.4375.08203-3.55078 3.375 3.55078 3.6836 4.4375.64453 3.70703-4.32813.73437-3.79687 1.33204-.64453-1.33204-1.33204v-109.625h4.4375v115.72657l-4.41406 4.10937 4.41406 4.41797 4.4375-1.5664 2.34375-2.85157-2.34375-1.86328-4.4375-2.2461V311.67188h8.875v145.23829l-2.21093 1.22656 2.21093 1.00781 1.26563-1.00781-1.26563-1.22656V311.67187h8.87891v119.33594l-.55469.5.55469.49219.64453-.49219-.64453-.5V311.67187h4.4375v144.16407l-3.96875 2.30078-.46875 3.51953-.05078.91797.05078.02734.24219-.02734 4.19531-1.54688 1.84766-2.89062-1.84766-2.30078V311.67188h44.38281v122.93359l-.97656 1.33984.97656.99219 2.48828 3.44531 1.94922 2.23438 2.41016-2.23438-2.41016-2.13281-3.3086-2.30469-1.1289-1.33984v-122.9336h26.6289v134.6797l-2.66015 2.91015 2.66016 2.69531 2.83594-2.69531-2.83594-2.91016V311.67187h8.8789v147.42579l-2.3789 3.47656 2.3789 4.41797 2.96875-4.41797-2.96875-3.47656V311.67187h4.4375v158.84375l-1.05078.9375 1.05079.52735.60546-.52735-.60546-.9375V311.67188h79.88671v168.65625h-74.5703l-.87892-.96484-3.32421.96485H144.0039"/></g><path fill="#50fcfc" fill-rule="evenodd" d="M146.64844 444.82031l-2.64453 2.26953v-4.25l.89843-2.45703-.89843-1.25781v-3.08203l3.09765 4.33984-.45312 4.4375"/><path fill="#00e8fc" fill-rule="evenodd" d="M144.90234 440.38281l-.89843 2.45703V439.125l.89843 1.25781"/><path fill="#50fcfc" fill-rule="evenodd" d="M157.3164 453.40625l-1.45312-4.14453 1.45313-1.71875 3.01562-2.72266 1.42188-1.05078 4.4375-3.25781v3.79687l-.61328.51172-3.82422 3.35938-1.13672 1.08203.83203 4.4375.21484 4.4375.08985.10156.15625-.10156 1.32812-4.4375 2.95313-.8164 2.98828.8164 1.44922.3086 4.4375 1.96874 2.21484-2.27734 1.59375-4.4375-3.8086-3.48828-4.4375 1.34765-3.66406-2.30078-.77343-.51172v-3.79687l.30859-.1289 4.1289-2.51954 4.4375 2.29297 4.29688-4.21094.14453-.1211 4.4375-2.8828.52344-1.4336 3.91406-3.82031 2.61328-.61719L192.82031 426l4.4414-.71094 4.4375-1.47265 4.4375.16406 4.4375.0039 3.91407-1.35546-2.0586-4.4375-1.85546-1.20704-4.07813-3.23046 4.07813-3.01954 4.4414-.67578 4.4375-.10156.67579-.64062 3.76172-3.59766 4.4375 1.9336 1.73437 1.66406 2.70313 1.91796 2.76953-1.91796 1.67187-1.45704 4.4375-2.02734 1.0664-.95703 3.3711-3.9414 1.01563-.4961 3.42187-2.53516v3.875l-4.4375 1.3672-1.48047 1.73046-2.95703 2.65625-2.67187 1.78516-1.76563.67578-4.08203 3.76172-.35938.4375-1.26562-.4375-3.17188-2.46485-1.43359-1.97265-3.0039-2.10938-2.20313 2.10938-2.23438 2.10546-4.4375-.1914-4.4414 1.67969-1.14063.84375 1.14063.90234 4.4414 3.02734 4.4375-.34765 1.88282.85547-1.88281 1.03515-2.5547 3.40235-1.8828 3.60156-4.44141.0625-4.4375-.23438-4.4375-.4375-2.60156 1.44922-1.83594 1.05469-4.4414 2.8125-4.4375-1.10156-1.71095 1.67187 1.71094 2.70313 1.0625 1.73437-1.0625 1.33985-3.46875 3.09765-.96875 2.52344-1.40625 1.91406 1.40625.88672 4.4375-.83594 4.4375.8086 1.6875-.85938 2.7539-1.53906 4.4375-.92969 4.4375-.10156 4.4375.1289 4.44142.14063 4.4375.6875 4.4375-.35937 4.4375-.48438 4.4375.66016 4.4414-.85547 4.4375.26953 4.4375-.25 1.70703-1.80469-1.70703-3.32422-.71094-1.11328-3.72656-4.21484-.11328-.22266.11328-.125 3.3164-4.3125-.60155-4.4414-2.71485-2.71485-.71875-1.72265.71875-1.9336 4.4375.45313 4.4375.8164 4.21875.66407.21875.1875 4.4414 1.22265 1.45704-1.41015 1.82812-4.4375-3.28515-3.50391-4.4414-.71875-1.5-.21484-.78126-4.44141-2.15625-3.09766v-3.875l2.7461 2.53516 1.6914 2.39063 2.20703 2.04687 2.23438 2.69531 4.4375.33594 1.60156 1.41016-1.38672 4.4375-.21484.33984-.83985 4.09766-3.59765 3.47656-4.4414-.1211-3.89063-3.35546-.54688-.08594-4.4375-.36719-4.4375.28125-.0664.17188.0664.15625 4.28125 4.28125.02734 4.4414-.97656 4.4375 1.10547 1.39453 2.55078 3.04297.80078 4.4375-3.35156 3.54688-4.4375.09765-4.4375.03125-3.47266.76172-.96875.84766-4.4375 1.05078-4.4375-.7539-4.4375.92968-4.4375-.8164-4.4414.17187-4.4375.14063-2.30469-1.57032-2.13281-.39062-1.27734.39062-3.16016 2.76953-4.4414.72657-4.4375.13671-4.16407.8086-.27344.29297-4.4375 3.33203-.30469.8125-4.13671 4.26172-3.08203.17578-1.35547.32031-4.4375.98438-4.4375 2.3125-3.16797-3.6172-1.21094-4.4375-.0586-.29296"/><path fill="#00e8fc" fill-rule="evenodd" d="M161.44922 453.69922l-.83203-4.4375 1.13672-1.08203 3.82422-3.35938.61328-.51172.77343.51172 3.66407 2.30078 4.4375-1.34765V449l-.4961.26172.4961.91797.28906-.91797L175.0664 449v-3.22656l3.80859 3.48828-1.59375 4.4375-2.21484 2.27734-4.4375-1.96875-1.44922-.3086-2.98828-.8164-2.95313.8164-1.32812 4.4375-.15625.10157-.08985-.10156-.21484-4.4375"/><path fill="#00d4fc" fill-rule="evenodd" d="M175.0664 450.17969l-.49609-.91797.4961-.26172.28906.26172-.28906.91797"/><path fill="#00e8fc" fill-rule="evenodd" d="M183.94531 445.70703l-1.40625-.88672 1.40625-1.91406.96875-2.52344 3.46875-3.09765 1.0625-1.33985-1.0625-1.73437-1.71094-2.70313 1.71094-1.67187 4.4375 1.10156 4.4414-2.8125 1.83595-1.05469 2.60156-1.44922v4.8672l-4.4375.73827-.39453.28125-3.625 4.4375 4.01953 2.35938 4.4375 1.07812 4.4375-3.08594 4.4375-.1875 4.4414.625.77735-.78906 3.66016-3.25 1.58593-1.1875-1.58594-.76562-1.26953.76562-3.16797 3.59766-4.4414.53906-4.4375-.63281-2.57031-3.5039-1.8672-1.01954v-4.86719l4.4375.4375 4.4375.23438 4.44142-.0625 1.8828-3.60156 2.5547-3.40235 1.8828-1.03515-1.8828-.85547-4.4375.34765-4.44141-3.02734-1.14063-.90234 1.14063-.84375 4.4414-1.6797v1.94532l-1.23828.57813 1.23828.89843 3.82422-.89843-3.82422-.57813v-1.94531l4.4375.1914 2.23438-2.10546 2.20313-2.10938 3.0039 2.10938 1.4336 1.97265 3.17187 2.46485 1.26563.4375.35937-.4375 4.08203-3.76172v1.625l-2.32031 2.13672-2.1211 2.61718-4.4375-.16406-1.625 1.98438-2.8125 3.52734-1.83984.91016 1.83984.99609 2.98047 3.44531 1.45703.8086v2.67968l-1.60156.94922 1.60156 1.22266.32032-1.22266-.32031-.94922v-2.67968l1.22656 3.6289 3.21094 4.40235.76171.03515 3.6797 1.08594 4.4375.21484.3164-1.30078-.3164-.35937-2.03126-4.07813 2.03125-2.27344 1.66406-2.16406-1.55859-4.4414-.10547-.10547-1.8086-4.33203 1.36329-4.4375-3.99219-2.13672v-1.625l1.76563-.67578 2.67187-1.78516 2.95703-2.65625 1.48047-1.73047v4.90235l-1.61719 1.26953-2.08203 4.4375L246.08203 415l4.4375 1.5625 4.4375-.54297 4.4414.07422 1.3047-2.33984-1.3047-1.39454-4.4414-.72265-4.4375-1.36328-3.50781-.95703-.92969-1.26954v-4.90234l4.4375-1.36719 2.15625 3.09766.78125 4.4414 1.5.21485 4.4414.71875 3.28516 3.5039-1.82812 4.4375-1.45703 1.41016-4.4414-1.22265-.21876-.1875-4.21875-.66407-4.4375-.8164-4.4375-.45313-.71875 1.9336.71875 1.72265 2.71484 2.71485.60157 4.4414-3.3164 4.3125-.11329.125.11328.22266 3.72656 4.21484.71094 1.11328 1.70703 3.32422-1.70703 1.80469-4.4375.25-4.4375-.26953-4.4414.85547-4.4375-.66016-4.4375.48438-4.4375.35937-4.4375-.6875-4.44141-.14062-4.4375-.12891-4.4375.10156-4.4375.92969-2.7539 1.53906-1.6875.85938-4.4375-.8086-4.4375.83594"/><path fill="#00d4fc" fill-rule="evenodd" d="M197.26172 438.30469l-4.01953-2.35938 3.625-4.4375.39453-.28125 4.4375-.73828v3.83985l-2.08984 1.61718 2.08984 1.125 1.50781-1.125-1.50781-1.61719v-3.83984l1.86719 1.01953 2.5703 3.5039 4.4375.63282 4.44142-.53906 3.16796-3.59766 1.26953-.76562 1.58594.76562-1.58594 1.1875-3.66015 3.25-.77734.78906-4.44141-.625-4.4375.1875-4.4375 3.08594-4.4375-1.07812"/><path fill="#00c4fc" fill-rule="evenodd" d="M201.69922 437.07031l-2.08984-1.125 2.08984-1.61719 1.50781 1.6172-1.50781 1.125"/><path fill="#00d4fc" fill-rule="evenodd" d="M215.01563 414.65234l-1.23829-.89843 1.23828-.57813 3.82422.57813-3.82422.89843m8.875 8.97266l-1.83984-.9961 1.83984-.91015 2.8125-3.52734 1.625-1.98438 4.4375.16406 2.1211-2.61718 2.32031-2.13672v1.6211l-.5586.51562-3.42187 4.4375 1.0586 4.4375-1.51953 2.57421-1.29297 1.8672-1.01172 4.4375 2.30469 3.16015 4.4414-2.15235.48438-1.0078 3.95312-4.42188.01172-.01563-.01172-.03906-2.47266-4.40234-.42578-4.4375-.57812-4.4375-.96094-.51563v-1.6211l3.99219 2.13673-1.36328 4.4375 1.8086 4.33203.10546.10547 1.5586 4.4414-1.66407 2.16406-2.03125 2.27344 2.03125 4.07813.3164.35937-.3164 1.30078-4.4375-.21484-3.67969-1.08594-.76172-.03515-3.21093-4.40235-1.22656-3.6289-1.45704-.8086-2.98047-3.44531"/><path fill="#50fcfc" fill-rule="evenodd" d="M228.32813 430.5586l-1.60157.94921 1.60156 1.22266.32032-1.22266-.32031-.94922"/><path fill="#00c4fc" fill-rule="evenodd" d="M232.76563 434.66797l-2.3047-3.16016 1.01173-4.4375 1.29297-1.86719 1.51953-2.57421-1.0586-4.4375 3.42188-4.4375.5586-.51563v3.27735l-1.16798 1.67578 1.16797 2.8203v4.09767l-.92969 1.96093-3.51172 1.39844-1.39843 3.03906 1.39844 1.91797 2.99218-1.91797 1.44922-3.54687.70703-.89063-.70703-1.96094v-4.09765l.44922-2.82031-.44922-1.67579v-3.27734l.96094.51563.57812 4.4375.42578 4.4375 2.47266 4.40234.01172.03906-.01172.01563-3.95312 4.42187-.48438 1.00781-4.4414 2.15235"/><path fill="#00b8fc" fill-rule="evenodd" d="M232.76563 433.42578l-1.39844-1.91797 1.39844-3.03906v1.96875l-.4922 1.07031.4922.67578 1.05468-.67578-1.05469-1.07031v-1.96875l3.51172-1.39844.9297-1.96094.70702 1.96094-.70703.89063-1.44922 3.54687-2.99219 1.91797"/><path fill="#00a8fc" fill-rule="evenodd" d="M232.76563 432.1836l-.4922-.67579.4922-1.07031 1.05468 1.07031-1.05469.67578"/><path fill="#00b8fc" fill-rule="evenodd" d="M237.20703 421.01172l-1.16797-2.82031 1.16797-1.67579.44922 1.67579-.44922 2.8203"/><path fill="#00d4fc" fill-rule="evenodd" d="M246.08203 415l-3.69922-1.2461 2.08203-4.4375 1.6172-1.26952.92968 1.26953 3.50781.95703v1.19531l-3.88672 2.28516 3.88672 1.83984 4.4375-1.82422.08984-.01562-.08984-.01563-4.4375-2.26953v-1.19531l4.4375 1.36328 4.4414.72265 1.3047 1.39454-1.3047 2.33984-4.4414-.07422-4.4375.54297-4.4375-1.5625"/><path fill="#50fcfc" fill-rule="evenodd" d="M246.08203 449.26563l-.02344-.00391.02344-.0039.01172.0039-.01172.0039"/><path fill="#00c4fc" fill-rule="evenodd" d="M250.51953 415.59375l-3.88672-1.83984 3.88672-2.28516v1.19531l-1.85156 1.08985 1.85156.875 2.1211-.875-2.1211-1.08985v-1.19531l4.4375 2.26953.08984.01563-.08984.01562-4.4375 1.82422"/><path fill="#00b8fc" fill-rule="evenodd" d="M250.51953 414.6289l-1.85156-.875 1.85156-1.08984 2.1211 1.08985-2.1211.875"/><path fill="#50fcfc" fill-rule="evenodd" d="M254.95703 431.99219l-.8086-.48438.8086-.83984 4.4414-3.08203v1.65625l-2.64062 2.26562 2.64063 2.07031 2.09765-2.0703-2.09765-2.26563v-1.65625l3.6289 3.92187-3.6289 3.58203-4.4414-3.09765"/><path fill="#00e8fc" fill-rule="evenodd" d="M259.39844 433.57813l-2.64063-2.07032 2.64063-2.26562 2.09765 2.26562-2.09765 2.07031"/><path fill="#50fcfc" fill-rule="evenodd" d="M268.27344 430.7539l-3.55078-3.68359 3.55078-3.375 4.4375-.08203v1.8125l-4.4375.21875-1.5 1.42578 1.5 1.55469 4.4375.5039 1.76562-2.05859-1.76562-1.64453v-1.8125l3.97265-.98437.46875-1.33204 1.33204 1.33204-1.33204.64453-.73437 3.79687-3.70703 4.32813-4.4375-.64453"/><path fill="#00e8fc" fill-rule="evenodd" d="M268.27344 428.625l-1.5-1.55469 1.5-1.42578 4.4375-.21875 1.76562 1.64453-1.76562 2.0586-4.4375-.50391"/><path fill="#50fcfc" fill-rule="evenodd" d="M281.58984 435.92578l-4.41406-4.41797 4.41406-4.10937v.9414l-3.40234 3.16797 3.40234 3.40625 3.73829-3.40625-3.73829-3.16797v-.9414l4.4375 2.2461 2.34375 1.86327-2.34375 2.85156-4.4375 1.56641"/><path fill="#00e8fc" fill-rule="evenodd" d="M281.58984 434.91406l-3.40234-3.40625 3.40234-3.16797v1.57032l-1.71484 1.59765 1.71484 1.71485 1.88282-1.71485-1.88282-1.59765v-1.57032l3.73829 3.16797-3.73829 3.40625"/><path fill="#00d4fc" fill-rule="evenodd" d="M281.58984 433.22266l-1.71484-1.71485 1.71484-1.59765v1.57421l-.02734.02344.02734.02344.02735-.02344-.02735-.02344v-1.57421l1.88282 1.59765-1.88282 1.71485"/><path fill="#00c4fc" fill-rule="evenodd" d="M281.58984 431.53125l-.02734-.02344.02734-.02344.02735.02344-.02735.02344"/><path fill="#50fcfc" fill-rule="evenodd" d="M290.46484 459.14453l-2.21093-1.00781 2.21093-1.22656 1.26563 1.22656-1.26563 1.00781M299.34375 432l-.55469-.49219.55469-.5.64453.5-.64453.49219m0 30.60156l-.05078-.02734.05078-.91797.46875-3.51953 3.96875-2.30078 1.84766 2.30078-1.84766 2.89062-4.19531 1.54688-.24219.02734m48.82031-25.66406l-.97656-.99219.97656-1.33984 1.1289 1.33984 3.3086 2.30469 2.41016 2.13281-2.41016 2.23438-1.94922-2.23438-2.48828-3.44531m26.6289 15.01953l-2.66015-2.69531 2.66016-2.91016 2.83594 2.91016-2.83594 2.69531m8.8789 15.03516l-2.3789-4.41797 2.3789-3.47656 2.96875 3.47656-2.96875 4.41797m4.4375 4.98828l-1.05078-.52735 1.05079-.9375.60546.9375-.60546.52735"/><g clip-path="url(#d)"><path fill="#50fcfc" fill-rule="evenodd" d="M389.22266 480.32813l3.32421-.96485.87891.96485h-4.20312"/></g><g clip-path="url(#e)"><path fill="#fff" fill-opacity="0" fill-rule="evenodd" d="M467.9961 480.32813H468V311.67188h-.0039H468v168.65625h-.0039"/></g><path fill="#fff" fill-opacity="0" fill-rule="evenodd" d="M254.02344 410.5039l5.1875 2.6797 4.57422-8.84766-5.19141-2.6836-4.57031 8.85157"/><path fill-rule="evenodd" d="M260.85938 404.88672l.45312.23437-2.88672 5.59375-.69922-.36328 2.0586-3.98828-1.23438-.63672.25781-.49219.52735.19922.2461.06641.24608.02734.2461-.03515.25-.10547.26172-.19531.27344-.3047"/><path fill="#fff" fill-opacity="0" fill-rule="evenodd" d="M181.51953 458.66797l3.4961-4.67969-7.98047-5.96094-3.4961 4.6797 7.98047 5.96093"/><path fill-rule="evenodd" d="M177.10156 451l.30469-.40625 5.04297 3.76563-.47266.6328-3.59375-2.6875-.83203 1.11329-.44531-.33594.28125-.48437.10937-.23438.06641-.23828.00781-.2461-.0664-.26562-.14844-.28906-.2539-.32422"/><g clip-path="url(#f)"><path fill="none" stroke="#000" stroke-linecap="round" stroke-linejoin="round" stroke-miterlimit="10" stroke-width=".5" d="M147.51172 480.1836l-7.02344.28906"/></g><g clip-path="url(#g)"><path fill="none" stroke="#000" stroke-linecap="round" stroke-linejoin="round" stroke-miterlimit="10" stroke-width=".5" d="M147.51172 480.1836l1.23828 2.12109"/></g><g clip-path="url(#h)"><path fill="none" stroke="#000" stroke-linecap="round" stroke-linejoin="round" stroke-miterlimit="10" stroke-width=".5" d="M160.82031 480.0664l-7.00781.52344"/></g><g clip-path="url(#i)"><path fill="none" stroke="#000" stroke-linecap="round" stroke-linejoin="round" stroke-miterlimit="10" stroke-width=".5" d="M160.82031 480.0664l1.3086 2.07423"/></g><g clip-path="url(#j)"><path fill="none" stroke="#000" stroke-linecap="round" stroke-linejoin="round" stroke-miterlimit="10" stroke-width=".5" d="M159.80078 480.14453l.65234 1.03516"/></g><g clip-path="url(#k)"><path fill="none" stroke="#000" stroke-linecap="round" stroke-linejoin="round" stroke-miterlimit="10" stroke-width=".5" d="M174.125 479.96484l-6.98828.72657"/></g><g clip-path="url(#l)"><path fill="none" stroke="#000" stroke-linecap="round" stroke-linejoin="round" stroke-miterlimit="10" stroke-width=".5" d="M174.125 479.96484L175.4961 482"/></g><g clip-path="url(#m)"><path fill="none" stroke="#000" stroke-linecap="round" stroke-linejoin="round" stroke-miterlimit="10" stroke-width=".5" d="M173.10938 480.07031l.68359 1.01953"/></g><g clip-path="url(#n)"><path fill="none" stroke="#000" stroke-linecap="round" stroke-linejoin="round" stroke-miterlimit="10" stroke-width=".5" d="M187.42578 479.86328l-6.96484.92969"/></g><g clip-path="url(#o)"><path fill="none" stroke="#000" stroke-linecap="round" stroke-linejoin="round" stroke-miterlimit="10" stroke-width=".5" d="M187.42578 479.86328l1.42969 1.99219"/></g><g clip-path="url(#p)"><path fill="none" stroke="#000" stroke-linecap="round" stroke-linejoin="round" stroke-miterlimit="10" stroke-width=".5" d="M200.73438 479.80469l-6.94922 1.04687"/></g><g clip-path="url(#q)"><path fill="none" stroke="#000" stroke-linecap="round" stroke-linejoin="round" stroke-miterlimit="10" stroke-width=".5" d="M200.73438 479.80469l1.46093 1.97265"/></g><g clip-path="url(#r)"><path fill="none" stroke="#000" stroke-linecap="round" stroke-linejoin="round" stroke-miterlimit="10" stroke-width=".5" d="M214.08984 480.40625l-7.02734-.15625"/></g><g clip-path="url(#s)"><path fill="none" stroke="#000" stroke-linecap="round" stroke-linejoin="round" stroke-miterlimit="10" stroke-width=".5" d="M214.08984 480.40625l1.10157 2.1914"/></g><g clip-path="url(#t)"><path fill="none" stroke="#000" stroke-linecap="round" stroke-linejoin="round" stroke-miterlimit="10" stroke-width=".5" d="M227.39063 480.01563l-7 .625"/></g><g clip-path="url(#u)"><path fill="none" stroke="#000" stroke-linecap="round" stroke-linejoin="round" stroke-miterlimit="10" stroke-width=".5" d="M227.39063 480.01563l1.33984 2.05468"/></g><g clip-path="url(#v)"><path fill="none" stroke="#000" stroke-linecap="round" stroke-linejoin="round" stroke-miterlimit="10" stroke-width=".5" d="M240.6836 479.82422l-6.95704 1.00781"/></g><g clip-path="url(#w)"><path fill="none" stroke="#000" stroke-linecap="round" stroke-linejoin="round" stroke-miterlimit="10" stroke-width=".5" d="M240.6836 479.82422l1.44921 1.98047"/></g><g clip-path="url(#x)"><path fill="none" stroke="#000" stroke-linecap="round" stroke-linejoin="round" stroke-miterlimit="10" stroke-width=".5" d="M239.67188 479.97266l.72265.98828"/></g><g clip-path="url(#y)"><path fill="none" stroke="#000" stroke-linecap="round" stroke-linejoin="round" stroke-miterlimit="10" stroke-width=".5" d="M253.92969 479.48047l-6.82031 1.69922"/></g><g clip-path="url(#z)"><path fill="none" stroke="#000" stroke-linecap="round" stroke-linejoin="round" stroke-miterlimit="10" stroke-width=".5" d="M253.92969 479.48047l1.64062 1.82422"/></g><g clip-path="url(#A)"><path fill="none" stroke="#000" stroke-linecap="round" stroke-linejoin="round" stroke-miterlimit="10" stroke-width=".5" d="M267.22656 479.41016l-6.78125 1.83593"/></g><g clip-path="url(#B)"><path fill="none" stroke="#000" stroke-linecap="round" stroke-linejoin="round" stroke-miterlimit="10" stroke-width=".5" d="M267.22656 479.41016l1.67969 1.78906"/></g><g clip-path="url(#C)"><path fill="none" stroke="#000" stroke-linecap="round" stroke-linejoin="round" stroke-miterlimit="10" stroke-width=".5" d="M280.42969 479.0625l-6.55469 2.53125"/></g><g clip-path="url(#D)"><path fill="none" stroke="#000" stroke-linecap="round" stroke-linejoin="round" stroke-miterlimit="10" stroke-width=".5" d="M280.42969 479.0625l1.85547 1.60547"/></g><g clip-path="url(#E)"><path fill="none" stroke="#000" stroke-linecap="round" stroke-linejoin="round" stroke-miterlimit="10" stroke-width=".5" d="M293.84766 479.3789l-6.76563 1.90235"/></g><g clip-path="url(#F)"><path fill="none" stroke="#000" stroke-linecap="round" stroke-linejoin="round" stroke-miterlimit="10" stroke-width=".5" d="M293.84766 479.3789l1.6953 1.77344"/></g><g clip-path="url(#G)"><path fill="none" stroke="#000" stroke-linecap="round" stroke-linejoin="round" stroke-miterlimit="10" stroke-width=".5" d="M307.26563 479.89063l-6.97266.8789"/></g><g clip-path="url(#H)"><path fill="none" stroke="#000" stroke-linecap="round" stroke-linejoin="round" stroke-miterlimit="10" stroke-width=".5" d="M307.26563 479.89063l1.41406 2.0039"/></g><g clip-path="url(#I)"><path fill="none" stroke="#000" stroke-linecap="round" stroke-linejoin="round" stroke-miterlimit="10" stroke-width=".5" d="M320.60938 480.40234l-7.02735-.14843"/></g><g clip-path="url(#J)"><path fill="none" stroke="#000" stroke-linecap="round" stroke-linejoin="round" stroke-miterlimit="10" stroke-width=".5" d="M319.58594 480.38281l.55469 1.09375"/></g><g clip-path="url(#K)"><path fill="none" stroke="#000" stroke-linecap="round" stroke-linejoin="round" stroke-miterlimit="10" stroke-width=".5" d="M333.8086 481.22266l-6.79688-1.78907"/></g><g clip-path="url(#L)"><path fill="none" stroke="#000" stroke-linecap="round" stroke-linejoin="round" stroke-miterlimit="10" stroke-width=".5" d="M332.82031 480.96484l.28125 1.19141"/></g><g clip-path="url(#M)"><path fill="none" stroke="#000" stroke-linecap="round" stroke-linejoin="round" stroke-miterlimit="10" stroke-width=".5" d="M346.61719 482.32422l-5.78125-3.99219"/></g><g clip-path="url(#N)"><path fill="none" stroke="#000" stroke-linecap="round" stroke-linejoin="round" stroke-miterlimit="10" stroke-width=".5" d="M359.63281 482.69922l-5.1836-4.74219"/></g><g clip-path="url(#O)"><path fill="none" stroke="#000" stroke-linecap="round" stroke-linejoin="round" stroke-miterlimit="10" stroke-width=".5" d="M372.09375 483.38281l-3.47266-6.10937"/></g><g clip-path="url(#P)"><path fill="none" stroke="#000" stroke-linecap="round" stroke-linejoin="round" stroke-miterlimit="10" stroke-width=".5" d="M382.86328 483.7461l1.61719-6.83594"/></g><g clip-path="url(#Q)"><path fill="none" stroke="#000" stroke-linecap="round" stroke-linejoin="round" stroke-miterlimit="10" stroke-width=".5" d="M394.76172 483.05078l4.44922-5.4414"/></g><g clip-path="url(#R)"><path fill="none" stroke="#000" stroke-linecap="round" stroke-linejoin="round" stroke-miterlimit="10" stroke-width=".5" d="M408.91406 483.5586l2.77344-6.45704"/></g><g clip-path="url(#S)"><path fill="none" stroke="#000" stroke-linecap="round" stroke-linejoin="round" stroke-miterlimit="10" stroke-width=".5" d="M422.38672 483.6211l2.45703-6.58594"/></g><g clip-path="url(#T)"><path fill="none" stroke="#000" stroke-linecap="round" stroke-linejoin="round" stroke-miterlimit="10" stroke-width=".5" d="M436.01563 483.71875l1.83203-6.78125"/></g><g clip-path="url(#U)"><path fill="none" stroke="#000" stroke-linecap="round" stroke-linejoin="round" stroke-miterlimit="10" stroke-width=".5" d="M449.96875 483.83203l.55469-7.0039"/></g><g clip-path="url(#V)"><path fill="none" stroke="#000" stroke-linecap="round" stroke-linejoin="round" stroke-miterlimit="10" stroke-width=".5" d="M462.0039 483.47656l3.1172-6.29687"/></g><g clip-path="url(#W)"><path fill="none" stroke="#000" stroke-linecap="round" stroke-linejoin="round" stroke-miterlimit="10" stroke-width=".5" d="M147.51172 466.99219l-7.02344.04297"/></g><path fill="none" stroke="#000" stroke-linecap="round" stroke-linejoin="round" stroke-miterlimit="10" stroke-width=".5" d="M147.51172 466.99219l1.16406 2.16015m12.15234-2.1914l-7.02734.10547m7.02734-.10547l1.1836 2.14843m12.09766-2.59375l-6.95704.9961m6.95703-.9961l1.44532 1.98047m11.88281-1.86718l-6.98438.76953m6.98438-.76953l1.38281 2.02734m-2.39844-1.91797l.69141 1.01563m13.63281-1.16797l-6.97265.85547m6.97265-.85547l1.40625 2.01172m-2.41797-1.88672l.70313 1.0039m13.58984-1.36328l-6.90234 1.32422m6.90234-1.32422l1.53907 1.91406m11.82422-1.5703l-7 .63671m7-.63672l1.33984 2.05469m11.96875-2.10547l-6.98828.73828m6.98828-.73828l1.3711 2.03516m-2.38673-1.92578l.6836 1.01562m13.59765-1.4414l-6.89062 1.37109m6.89062-1.3711l1.5547 1.89844m-2.5547-1.69922l.77344.94922m13.5-1.34375l-6.80469 1.76172m6.8047-1.76172l1.65624 1.8086m-2.64844-1.55079l.83204.90235m13.4453-1.26172l-6.74609 1.96484m6.7461-1.96484l1.71093 1.75781m-2.6914-1.47265l.85547.8789m13.36718-1.38281l-6.60156 2.40234m6.60156-2.40234l1.82422 1.64062m11.54688-1.48437l-6.71094 2.08984m6.71094-2.08984l1.74219 1.72266m11.52343-1.86329l-6.61328 2.3711m6.61328-2.3711l1.81641 1.65235m11.26172-2.17578l-6.14063 3.41797m5.2461-2.92188l1.03125.66797m13.21093-1.10547l-6.20312 3.30078m5.30078-2.82031l1.01563.6875m13.51171 1.32422l-6.82421-1.6836m5.83203 1.4375l.29687 1.19141m10.50781 1.72656l.1836-7.02734m9.70703 3.48828l7.02734.05078m-6.0039-.04297l-.5664-1.08593m12.87108 1.37109l7.00391-.53516m-7.0039.53516l-1.31641-2.07031m15.16797 3.6836l5.9336-3.76173m-5.9336 3.76172l-2.13282-1.21094m15.9297 1.81641l4.96874-4.97266M421.13281 469.5l-2.34765-.71875m16.49218 1.33203l3.3086-6.19922m-3.3086 6.19922l-2.45312-.0039m15.40234-.21875l4.03906-5.75391m-3.44921 4.91406l-1.21875-.14844m14.67187 1.37891l2.58594-6.53516m-2.21094 5.58594l-1.21875.13672"/><g clip-path="url(#X)"><path fill="none" stroke="#000" stroke-linecap="round" stroke-linejoin="round" stroke-miterlimit="10" stroke-width=".5" d="M147.39844 454.58203l-6.79688-1.76953"/></g><path fill="none" stroke="#000" stroke-linecap="round" stroke-linejoin="round" stroke-miterlimit="10" stroke-width=".5" d="M147.39844 454.58203l.57031 2.38672m12.67188-2.13672l-6.65235-2.26953m5.6836 1.9414l.1953 1.21094m13.83985-.3203l-6.15625-3.39063m5.26172 2.89453l-.01953 1.22656m14.4336-1.16797l-6.5625-2.51562m5.60937 2.14843l.14844 1.21875m14.35156-2.23046l-7.02344.23828m7.02344-.23828l1.22265 2.1289m12.08985-2.10547l-7.02344.1914m7.02344-.1914l1.21094 2.13672m-2.23047-2.10937l.60547 1.0703m13.73046-1.10937l-7.02343.21875m7.02343-.21875l1.21875 2.12891m12.07032-2.45703l-6.97266.875m6.97266-.875l1.41406 2.0039M253.96484 453l-6.88672 1.39844M253.96484 453l1.5586 1.89453m-2.5625-1.6914l.78125.9453m13.48047-1.39062l-6.77344 1.88281m6.77344-1.8828l1.6875 1.78124m-2.67578-1.50781l.84765.89063m13.34375-1.4961l-6.55078 2.54297m6.55078-2.54297l1.85938 1.60156m-2.8125-1.23046l1.85937 1.60156m12.29688-2.22656l-6.32813 3.05468m6.32813-3.05469l1.98047 1.44922m-2.89844-1.0039l.98828.72265m13-1.59765l-5.83594 3.91406m5.83594-3.91406l2.16406 1.15625m-3.01562-.58985l1.08203.58203m12.6875-1.64062l-5.04297 4.89453m5.04297-4.89453l2.33594.7539m-3.07032-.03906l1.16797.375m12.6914-1.26953l-4.66405 5.25782m4.66406-5.25782l2.38672.57422m11.12109-.39062l-5.04687 4.89062m5.04687-4.89062l2.33594.7539M359.29297 451l-4.5039 5.39453M359.29296 451l2.40234.50781m10.35157-.89062l-3.37891 6.16406m3.3789-6.16406l2.45313.03125m7.41797.0039l3.50781 6.08985m-2.9961-5.20313l.64845-1.03906m10.9453 1.3125l5.92579 3.77344m-5.92578-3.77344l.1914-2.44922m12.8086 3.0664l6.55469 2.53907m-5.60157-2.17188l-.14453-1.21484m12.28125 1.83594l7.0039.5586m-5.98437-.47657l-.48828-1.125m15.42578-2.08203l1.72266 6.8125m-1.47266-5.82031l.91016-.82422m12.15234-.16797l1.72657 6.8125m-1.47657-5.82031l.91016-.82422m16.53125 3.3164l-7.02344-.15625m6 .13282l.55469 1.09375"/><g clip-path="url(#Y)"><path fill="none" stroke="#000" stroke-linecap="round" stroke-linejoin="round" stroke-miterlimit="10" stroke-width=".5" d="M147.33203 441.4961l-6.66406-2.22657"/></g><path fill="none" stroke="#000" stroke-linecap="round" stroke-linejoin="round" stroke-miterlimit="10" stroke-width=".5" d="M146.36328 441.17188l.20313 1.21093m14.16015-1.15234l-6.82031-1.6914m5.82813 1.4453l.29687 1.1875m13.76953-.27734l-6.34375-3.02344m5.42188 2.58203l.05468 1.22657m14.15235-.71875l-6.28125-3.15235m5.36719 2.69141l.02734 1.22656m14.48047-1.53515l-6.83985-1.6172m5.84375 1.38282l.3125 1.1875m14.08985-1.625l-7.01953-.27344m7.01953.27344l1.0664 2.21094m12.2461-2.17578l-7.01563-.33985m7.01563.33985l1.04687 2.21875m12.26953-2.1914l-7.01562-.39454m7.01562.39453l1.02735 2.22656m-2.05078-2.28515l.51562 1.11328m13.82031-1.0664l-7.01562-.3711m7.01562.3711l1.03907 2.22265m-2.0586-2.27735l.51953 1.10938m13.70703-2.13281l-6.79687 1.78125m6.79688-1.78125l1.66406 1.80469m11.5-2.25782l-6.4961 2.6875m6.4961-2.6875l1.89062 1.5625m-2.83594-1.17187l.94532.78125m13.20703-1.40625l-6.27735 3.16015m6.27735-3.16015l2 1.41406m-2.91406-.95703l1 .71094m12.59375-2.0547l-5.00782 4.9297m5.00782-4.9297l2.33984.73829m-3.0664-.01953l2.33984.73828m11.57812-1.57422l-4.76172 5.16797m4.76172-5.16797l2.375.6211m-3.0664.1289l1.1875.3125m12.90625-.98047l-4.9336 5.0039m4.9336-5.0039l2.35156.69922m-3.07031.02735l1.17578.35156m12.33203-1.5039l-3.88281 5.85546m3.8828-5.85547l2.44141.23828m-3.0078.61328l1.22265.1172m12.0586-1.28907l-2.6836 6.4961m2.6836-6.4961l2.4414-.23828m10.14453.02344l-1.22266 6.92187m1.22266-6.92187l2.33203-.75391m8.25 1.41406l4.24219 5.60156m-4.24219-5.60156l1.02734-2.22656m12.03907 2.4336l4.73828 5.1875m-4.73828-5.1875l.82031-2.3125m11.46094 4.03906l6.8086 1.73828m-5.82032-1.48438l-.28906-1.19531m12.54687 1.25781l6.9414 1.10156m-5.92968-.9414l-.39844-1.16016m18.42188-1.14844l-4.4961 5.39844m4.4961-5.39844l2.40234.50391m-3.05469.28125l1.19922.2539m13.61719 0l-6.19531 3.32032m6.19531-3.32031l2.03906 1.36718m-2.9414-.8828l2.03906 1.36718m12.57812.16797l-6.99218-.71485"/><g clip-path="url(#Z)"><path fill="none" stroke="#000" stroke-linecap="round" stroke-linejoin="round" stroke-miterlimit="10" stroke-width=".5" d="M467.0586 440.74219l.92577 2.26953"/></g><path fill="none" stroke="#000" stroke-linecap="round" stroke-linejoin="round" stroke-miterlimit="10" stroke-width=".5" d="M466.03906 440.63672l.46485 1.13672"/><g clip-path="url(#aa)"><path fill="none" stroke="#000" stroke-linecap="round" stroke-linejoin="round" stroke-miterlimit="10" stroke-width=".5" d="M147.47656 427.58594l-6.95312-1.03516"/></g><path fill="none" stroke="#000" stroke-linecap="round" stroke-linejoin="round" stroke-miterlimit="10" stroke-width=".5" d="M146.46484 427.4375l.41016 1.15625m13.94531-1.77344l-7.01172.4961m7.01172-.4961l1.30078 2.07813m11.83594-2.96485l-6.65234 2.26954m5.6836-1.94141l.89452.83984m13.57422-.10547l-7.02344.14454m6.00391-.125l.59766 1.0703m13.66797-.32421l-6.88672-1.38672m6.88672 1.38672l.70312 2.35156m12.67969-2.86328l-7.01953-.36328m7.01953.36328l1.03906 2.22266m12.27344-2.20703l-7.01563-.39454m5.9961.33594l.51172 1.11328m13.78906-.71875l-6.94531-1.0664m6.9453 1.0664l.8086 2.3164m12.53906-3.07812l-7.01172.46094m7.01172-.46094l1.28907 2.08594m12-2.33594l-6.96094.95704m6.96094-.95704l1.4375 1.98829m11.88672-1.91407l-6.98047.8086m6.98047-.8086l1.39453 2.01953m-2.41016-1.90234l.69531 1.01172m13.42578-1.98438l-6.5625 2.51954m6.5625-2.51954l1.85157 1.60938m-2.8047-1.24219l.92579.80469m12.86328-2.03516l-5.60156 4.2461m5.60156-4.2461l2.22656 1.03516m-3.04297-.41406l2.22657 1.03125m11.6211-1.98047l-5.03517 4.90234m5.03516-4.90234l2.33594.7461m-3.07031-.03516l1.16796.375m12.875-1.09375l-5.02343 4.91796m5.02343-4.91796l2.33985.74218m-3.07031-.02734l1.16796.375m12.09766-1.6875l-3.46094 6.11328m3.46094-6.11328l2.45313.0664m-2.95704.82422l1.22657.03125m12.27343-1.08203l-2.82421 6.4336m2.82421-6.4336l2.44922-.1836m-2.85937 1.1211l1.22265-.09375m11.75782-1.07422l-1.33594 6.89844m1.33594-6.89844l2.34765-.71875m8.14453 1.39063l4.3086 5.55078m-4.3086-5.55078l1.00391-2.23828m16.57031 2.19922l-4.20703 5.6289m4.20703-5.6289l2.42578.375m-3.03515.4453l1.21094.1875m13.60156-.03124l-5.98438 3.67578m5.98438-3.67578l2.11719 1.24219m-2.98829-.70704l1.0586.6211m13.13281-1.14844l-5.9961 3.66016m5.9961-3.66016l2.11328 1.2461m-2.98437-.71485l2.11328 1.25m12.0664-1.79687l-5.98046 3.6953m5.98046-3.6953l2.1172 1.23437m-2.98829-.69922l2.11719 1.23828m-2.98828-.69922l1.0625.6172m13.83593-1.9297l-5.66015 4.16797m5.66015-4.16797l2.21094 1.0625m-3.03515-.45312l2.21093 1.0586m12.3711-.86329l-6.54688 2.5586"/><g clip-path="url(#ab)"><path fill="none" stroke="#000" stroke-linecap="round" stroke-linejoin="round" stroke-miterlimit="10" stroke-width=".5" d="M466.83594 425.78906l1.85937 1.60156"/></g><path fill="none" stroke="#000" stroke-linecap="round" stroke-linejoin="round" stroke-miterlimit="10" stroke-width=".5" d="M465.88281 426.16406l1.85938 1.59766"/><g clip-path="url(#ac)"><path fill="none" stroke="#000" stroke-linecap="round" stroke-linejoin="round" stroke-miterlimit="10" stroke-width=".5" d="M147.5039 413.99219l-7.0078-.47656"/></g><path fill="none" stroke="#000" stroke-linecap="round" stroke-linejoin="round" stroke-miterlimit="10" stroke-width=".5" d="M146.48438 413.92188l.5039 1.12109m13.8125-1.7461l-6.96875.91016m5.95313-.77734l.71093 1m13.63282-.35156l-6.9961-.64844m5.97656.55469l.47657 1.1328m13.6211-.0625l-6.52345-2.60546m5.57422 2.22656l.13281 1.22266m14.29688-1.375l-6.85547-1.53906m5.85938 1.3164l.32422 1.17969m13.47656.23437l-5.83203-3.92187m4.98047 3.35156l-.125 1.21875m14.3828-.79297l-6.01562-3.63672m5.14063 3.10938l-.07031 1.22656m13.80078-.09765l-5.09766-4.83594m4.35547 4.13281l-.32422 1.17969m14.90234-1.1875l-6.14062-3.41406m5.25 2.91796l-.02344 1.22657m14.58594-1.65235l-6.85156-1.57422m6.85156 1.57422l.63672 2.3711m12.71093-2.53907l-6.91796-1.23437m6.91796 1.23437l.75391 2.33204m12.42969-4.08204l-6.65235 2.26563m6.65235-2.26563l1.78906 1.6797m10.84766-2.85548l-5.29688 4.61719m5.29688-4.61719l2.29297.8789m-3.0625-.20702l1.14453.4375m12.625-1.42578l-4.66797 5.25m4.66797-5.25l2.38672.57812m-3.06641.1836l1.19531.29296m12.44922-1.32812l-3.96875 5.79687m3.96875-5.79687l2.4375.26953m10.48828-.5039l-3.1875 6.26171m3.1875-6.26172l2.45313-.04297m-2.91797.95704l1.22656-.02344m12.0625-1.09375l-2.20703 6.67187m2.20703-6.67187l2.42188-.41406m12.80078 1.9375l-6.02344 3.62109m6.02344-3.6211l2.10547 1.26563m-2.98047-.73828l2.10156 1.26562m11.79687-2.20703l-5.4375 4.44922m5.4375-4.44922l2.26172.94922m-3.05468-.30078l2.26562.94922m-3.05469-.30078l1.13282.47265m13.78906-1.73437l-5.48828 4.38281m5.48828-4.38281l2.2539.97266m-3.05078-.33594l2.25.97265m-3.05078-.33593l1.1289.48828m14.0547-1.375l-6.03125 3.60547m6.03125-3.60547l2.10156 1.26953m-2.97656-.74219l2.09765 1.26563M411.5625 413l2.10156 1.26953m13.27735-1.65625l-6.64844 2.27734m6.64844-2.27734l1.78906 1.67969m-2.75781-1.34766l1.79296 1.67578m-2.7578-1.34375l.89452.83985m14.15235-1.97657l-6.2461 3.22657m6.2461-3.22657l2.01562 1.39844m-2.92578-.92969l2.01953 1.39844m-2.92578-.92969l1.00781.69922m13.84375-2.08593l-5.6875 4.125m5.6875-4.125l2.20703 1.07812m-3.03515-.47656l2.20703 1.07812m12.16797-1.3203l-6.14844 3.40233"/><g clip-path="url(#ad)"><path fill="none" stroke="#000" stroke-linecap="round" stroke-linejoin="round" stroke-miterlimit="10" stroke-width=".5" d="M466.63672 412.05078l2.05469 1.33985"/></g><path fill="none" stroke="#000" stroke-linecap="round" stroke-linejoin="round" stroke-miterlimit="10" stroke-width=".5" d="M465.74219 412.54688l1.02734.66796"/><g clip-path="url(#ae)"><path fill="none" stroke="#000" stroke-linecap="round" stroke-linejoin="round" stroke-miterlimit="10" stroke-width=".5" d="M147.16797 401.95313l-6.33594-3.03125"/></g><path fill="none" stroke="#000" stroke-linecap="round" stroke-linejoin="round" stroke-miterlimit="10" stroke-width=".5" d="M146.2461 401.51172l.05468 1.22656m12.03516-5.66015l-2.04297 6.72265m11.10937-4.7461l6.45703 2.76954m8.36329 1.67578l3.4453-6.125m9.1211 5.5625l4.9414-5m-4.22265 4.27344l-1.17187-.35156m14.16015 1.41015l4.15625-5.66406m-3.55078 4.83984l-1.21484-.17578m17.58984 1.30469l-3.17187-6.26953m2.71094 5.35547l-.70704 1.0039m16.40625-3.35937l-7.01953.26562m7.01953-.26562l1.23438 2.125m12.08203-1.82031l-7.01953-.33985m5.9961.28906l.52343 1.10938m13.63672-.10938l-6.66406-2.23828m6.66406 2.23828l.40234 2.41797m13.04688-4.11719l-6.9336 1.16016m5.92578-.99219l.7461.97266m13.51953-1.41797l-6.8164 1.71485m5.82421-1.46485l.82031.91016m13.32032-1.65235l-6.48828 2.69922m6.48828-2.69922l1.89843 1.5586m11.17579-2.03516l-6.00391 3.65235m6.0039-3.65235l2.10938 1.25m10.38672-2.17969l-4.36328 5.50782m4.36328-5.50782l2.41406.44141m11.88281.78125l-6.32812 3.0625m6.32812-3.0625l1.98047 1.44922m-2.90234-1.0039l.98828.72656m12.9414-1.6836l-5.71484 4.08594m4.88282-3.49219l1.10156.54688m12.76562-1.48438l-5.15625 4.77735m5.15625-4.77735l2.31641.80469m-3.0664-.10938l2.3164.8047m11.30078-1.90626l-4.26172 5.58594m4.26172-5.58594l2.42188.39844m-3.03907.41406l2.41797.39844m-3.03906.41406l1.21094.19922m14.42187-.46094l-6.41797 2.86328m6.41797-2.86328l1.9336 1.50781m-2.8672-1.09375l1.9336 1.51172m12.41016-1.6914l-6.60938 2.39062m6.60938-2.39062l1.82031 1.64844m-2.78125-1.30079l1.82031 1.64844m-2.78125-1.30078l.91016.82422m14.3086-1.5625l-6.57423 2.48047m6.57422-2.48047l1.84375 1.6211m-2.79687-1.26173l1.83984 1.6211m12.19922-2.47656l-6.11328 3.46875m6.11328-3.46875l2.07031 1.3164m-2.96093-.8125l2.0703 1.3164m12.09766-1.8789l-6.03906 3.58985m6.03906-3.58985l2.09766 1.27344m-2.97656-.7539l2.09765 1.27734m12.32032-1.35157l-6.48828 2.69532"/><g clip-path="url(#af)"><path fill="none" stroke="#000" stroke-linecap="round" stroke-linejoin="round" stroke-miterlimit="10" stroke-width=".5" d="M466.80469 399.08984l1.89844 1.5586"/></g><g clip-path="url(#ag)"><path fill="none" stroke="#000" stroke-linecap="round" stroke-linejoin="round" stroke-miterlimit="10" stroke-width=".5" d="M465.86328 399.48438l1.89453 1.55859"/></g><g clip-path="url(#ah)"><path fill="none" stroke="#000" stroke-linecap="round" stroke-linejoin="round" stroke-miterlimit="10" stroke-width=".5" d="M147.125 388.73047l-6.25-3.21485"/></g><path fill="none" stroke="#000" stroke-linecap="round" stroke-linejoin="round" stroke-miterlimit="10" stroke-width=".5" d="M146.21484 388.26563l.01563 1.22656m14.08594-4.19531l-6.00391 3.65234m5.1289-3.1211l1.0586.625m12.07813-2.2539l-3.89844 5.84765m3.33203-4.99609l1.22266.1211m8.22265-.52735l4.97656 4.95703m-4.2539-4.23437l.35547-1.17578M193.75 387.3125l7.01953-.3789m-7.01953.3789l-1.26563-2.10156m14.60938 2.38672l6.96484-.94922m-5.95312.8125l-.71484-.9961m16.42968 4.17188l.13672-7.02735m-.13672 7.02735l-2.1875 1.10937m18.29688-2.40625l-5.44922-4.43359m4.65625 3.78906l-.23438 1.20313m15.0586-2.05469l-6.8789-1.4375m6.8789 1.4375l.6836 2.35547m12.46483-1.80469l-6.55078-2.54297m6.55078 2.54297l.28907 2.4375m-1.24219-2.8086l.14453 1.21876m14.29297-1.41797l-6.88672-1.40235m6.88672 1.40235l.69531 2.35547m-1.69922-2.5586l.34766 1.17579m13.8711-2.76172l-6.6836 2.17578m6.6836-2.17578l1.76562 1.70703m-2.73828-1.39063l.88281.85156m13.48438-.8789l-6.84375 1.59765m6.84375-1.59765l1.61328 1.84765m-2.60938-1.61718l.8086.92578m13.3789-1.57031l-6.59765 2.42578m6.59765-2.42578l1.82813 1.63671m-2.78907-1.28515l.91407.82031m13.53125-.52344l-6.9375 1.12891m6.9375-1.1289l1.48437 1.95312m-2.49219-1.78906l.7422.97656m13.20702-2.24219l-6.1875 3.33203m6.1875-3.33203l2.03906 1.35938m11.09766-1.65235l-5.83203 3.91797m5.83203-3.91797l2.16406 1.16016m-3.01171-.58985l1.08203.57813m13.21484-.9375l-6.09766 3.4961m6.09766-3.4961l2.07422 1.3086m-2.96094-.79688l2.07422 1.30469m11.82422-2.25782l-5.49219 4.37891m5.49219-4.3789l2.25.97656m-3.05078-.33985l2.2539.97656m11.78516-1.70703l-5.33984 4.56641m5.33984-4.5664l2.28516.89843m-3.0625-.23437l1.14453.44921m13.10547-.91406l-5.65625 4.16797m5.65625-4.16797l2.21484 1.0586m-3.03906-.45313l2.21484 1.0625m12.20313-1.22656l-6.21094 3.28515m6.21094-3.28515l2.03125 1.3789m-2.9336-.89843l1.01563.6875m13.39062-.75l-6.58984 2.44922m6.58984-2.44922l1.83203 1.63281m-2.79296-1.27344l.91796.8125m13.44532-.89453l-6.76563 1.89453m6.76563-1.89453l1.6953 1.77344m-2.67968-1.5l.84766.89062m13.5039-.96093l-6.86718 1.48828"/><g clip-path="url(#ai)"><path fill="none" stroke="#000" stroke-linecap="round" stroke-linejoin="round" stroke-miterlimit="10" stroke-width=".5" d="M466.9961 386.3789l1.58202 1.875"/></g><path fill="none" stroke="#000" stroke-linecap="round" stroke-linejoin="round" stroke-miterlimit="10" stroke-width=".5" d="M465.9961 386.59766l.79296.9375"/><g clip-path="url(#aj)"><path fill="none" stroke="#000" stroke-linecap="round" stroke-linejoin="round" stroke-miterlimit="10" stroke-width=".5" d="M147.23047 375.1875l-6.46094-2.75781"/></g><path fill="none" stroke="#000" stroke-linecap="round" stroke-linejoin="round" stroke-miterlimit="10" stroke-width=".5" d="M146.28906 374.78516l.10547 1.22265m13.08203-4.96875l-4.32031 5.53906m4.32031-5.53906l2.41406.42188m11.58594.28515l-5.6914 4.1211m5.6914-4.1211l2.20313 1.08204m11.40625-.58985l-6.28516 3.14063m6.28516-3.14063l2 1.42188m-2.91406-.96485l1 .71094m13.53125-.29688l-6.88672 1.39844m6.88672-1.39844l1.55859 1.89454m-2.5586-1.69141l.77735.94922m13.17187 1.24219L207.5 372.11328m6.15234 3.39063l-.03515 2.45312m13.41406-2.57031l-6.28125-3.15625m6.28125 3.15625l.05469 2.45312m-.96875-2.91406l.05469 2.45313m14.23046-2.1172l-6.39453-2.90624m6.39453 2.90625l.15235 2.44922m-1.08203-2.8711l.07812 1.22266m14.23828-.96094l-6.53515-2.58594m6.53515 2.58594l.27344 2.4375m-1.22656-2.8164l.13672 1.22265m14.36718-1.8789l-7.0078-.51563m7.0078.51563l.98828 2.24609m-2.0078-2.32031l.49609 1.1211m13.78125-.6172l-6.89453-1.375m6.89453 1.375l.70312 2.34766m-1.70703-2.54688l.70703 2.34766m13.66797-2.54297l-7.0039-.58984m7.0039.58984l.96484 2.25781m-1.98437-2.34375l.48047 1.12891m13.85547-1.58594l-7.00782.5m7.00782-.5l1.30468 2.07813m-2.32421-2.0039l.65234 1.03906m13.63672-1.48047l-6.91797 1.23437m6.91797-1.23437l1.51562 1.92968m-2.52344-1.75l.75782.96485m13.46094-1.57031l-6.71094 2.08593m6.71094-2.08594l1.74218 1.72657m-2.71875-1.42578l.8711.86328M347 372.53125l-6.54688 2.55469M347 372.53125l1.85938 1.60156m-2.8125-1.23047l.92968.80079m13.30078-1.26563l-6.47265 2.74219m6.47265-2.74219l1.90625 1.54688m-2.84765-1.14844l.95312.77344m13.46875-.6836l-6.80469 1.76172m6.8047-1.76172l1.65624 1.8086m-2.64453-1.55079l.82813.90235m13.32421-1.61328l-6.5 2.67187m6.5-2.67187l1.88672 1.5664m10.98438-2.34375l-5.61328 4.22656m5.61328-4.22656l2.22265 1.03516m-3.03906-.42188l1.10938.51954m12.96875-1.20313l-5.5039 4.36719m5.5039-4.36719l2.2461.97656m10.65624-1.41406l-4.67969 5.24219m4.6797-5.24219l2.3828.58203m11.64063.29297l-6.09766 3.49219m6.09766-3.49219l2.07812 1.3086m11.46875-.82032l-6.5625 2.51563m6.5625-2.51563l1.85157 1.60938m11.66406-.83204l-6.96094.96094"/><g clip-path="url(#ak)"><path fill="none" stroke="#000" stroke-linecap="round" stroke-linejoin="round" stroke-miterlimit="10" stroke-width=".5" d="M467.04297 373.32813l1.4375 1.98828"/></g><g clip-path="url(#al)"><path fill="none" stroke="#000" stroke-linecap="round" stroke-linejoin="round" stroke-miterlimit="10" stroke-width=".5" d="M147.38281 361.44922l-6.76562-1.91016"/></g><path fill="none" stroke="#000" stroke-linecap="round" stroke-linejoin="round" stroke-miterlimit="10" stroke-width=".5" d="M146.39844 361.17188l.25781 1.19921m13.66797-3.6953l-6.01563 3.6328m6.01563-3.6328l2.10547 1.26171m11.6914.14453l-6.98047.82031m6.98047-.8203l1.39453 2.01952m11.89844-2.15625l-6.9414 1.09375m6.9414-1.09375l1.47656 1.96094m-2.48437-1.80078l.73828.98047m13.61328-.27735l-6.9961-.6328m6.9961.6328l.95313 2.26172m-1.96875-2.35156l.95312 2.26172m-1.97265-2.35547l.47656 1.13281m14.42187.48438l-6.09375-3.5m6.09375 3.5l-.07812 2.45312m-.8086-2.96094l-.07812 2.45313m-.8086-2.96484l-.03906 1.22656m15.23828-.41406l-6.3125-3.08204m6.3125 3.08204l.08594 2.44921m-1.0039-2.89843l.08593 2.45312m-1.0039-2.90234l.04297 1.22656m15.46093-2.00781l-7.01953.27734m7.01953-.27734l1.23828 2.11719m-2.2578-2.07813l1.23437 2.11719m13.10156-1.86328l-7.01953-.3125m7.01953.3125l1.05469 2.21484m-2.07813-2.25781l1.05469 2.21484m12.98438-.90234l-6.42188-2.85156m6.42188 2.85156l.17578 2.44922m-1.10938-2.86328l.17188 2.44921m14.1953-2.34375l-6.66015-2.23437m6.66016 2.23438l.40625 2.42187m-1.375-2.7461l.40625 2.41798m13.98437-2.46875l-6.87109-1.48047m6.8711 1.48046l.66796 2.35938m-1.66797-2.57422l.33204 1.17969m14.05859-1.80469l-7.02344.19531m7.02344-.1953l1.21094 2.1328m-2.23438-2.10156l.60547 1.0664m13.73438-1.05077l-7.02735.10546m7.02735-.10546l1.18359 2.14843m-2.20703-2.1328l.59375 1.07421m13.65234-1.84375l-6.83984 1.61328m6.83984-1.61328l1.61719 1.84375m-2.61328-1.60938l.8086.92188m13.12109-2.11719l-6.07813 3.53125m6.07813-3.53125l2.08203 1.29688m-2.96875-.78125l1.04297.64453m13.28125-.92969l-6.32422 3.07031m6.32422-3.0703l1.98046 1.44921m-2.90234-1l.99219.72266m13.3086-1.02735l-6.45313 2.78516m6.45312-2.78516l1.91797 1.53125m-2.85547-1.1289l1.91406 1.53515m12.23047-2.16406l-6.23828 3.23438m6.23828-3.23438l2.01953 1.39453m-2.92578-.92187l2.01953 1.39453m12.07422-2.09375l-5.98047 3.6875m5.98047-3.6875l2.11719 1.24219m-2.98828-.70313l1.0586.61719m13-1.34766l-5.72657 4.07422m5.72656-4.07422l2.19532 1.09766m-3.02735-.50781l1.09766.55078m13.00781-1.20313l-5.64062 4.19531m5.64062-4.1953l2.21484 1.05077m-3.03515-.4375l1.10547.52344m13.4375-.42188l-6.45703 2.76954m6.45703-2.76954l1.91406 1.53907m-2.85156-1.13672l.95312.76953m13.33985-1.07422l-6.53907 2.57422m6.53907-2.57422l1.86718 1.59375m11.55078-1.29687l-6.74218 1.97656m5.76172-1.6875l.85546.8789"/><g clip-path="url(#am)"><path fill="none" stroke="#000" stroke-linecap="round" stroke-linejoin="round" stroke-miterlimit="10" stroke-width=".5" d="M142.76953 350.46875l2.46094-6.58203"/></g><path fill="none" stroke="#000" stroke-linecap="round" stroke-linejoin="round" stroke-miterlimit="10" stroke-width=".5" d="M154.0625 348.5039l6.5039-2.65234m13.10548-.4336l-6.08204 3.51954m6.08203-3.51953l2.08204 1.29687m11.625-.28515l-6.8672 1.4961m6.8672-1.4961l1.58593 1.8711m11.8047-.97657l-7.01954-.29297m7.01953.29297l1.0625 2.21484m11.8789-.77344l-6.26952-3.17578m6.26953 3.17579l.04687 2.45312m-.96094-2.91406l.05079 2.45312m13.875-1.5l-5.66407-4.16015m5.66407 4.16015l-.35547 2.42969m-.46875-3.03516l-.35547 2.4297m14.77734-2.28126l-6.23047-3.2461m6.23047 3.2461l.02344 2.45313m-.92969-2.92579l.01172 1.22657m14.55078-1.7461l-6.91406-1.26171m6.91406 1.26171l.7461 2.33985m-1.75-2.52344l.74218 2.33984m-1.75-2.52343l.3711 1.16796m14.94922-.7578l-6.89844-1.34766m6.89844 1.34765L268 350.19922m-1.71875-2.54297l.71484 2.34766m13.66797-2.8047l-7.02734-.04296m7.02734.04297l1.14063 2.17187m-2.16407-2.17968l1.14063 2.17578m13.19922-2.23438l-7.02735.09375m7.02735-.09375l1.17969 2.14844m-2.20313-2.13672l.58984 1.07422m13.7461-1.0586l-7.02735.03516m7.02735-.03515l1.16406 2.16406m-2.1836-2.15625l.57813 1.07812m13.66016-1.89062L313.67969 348m6.83203-1.64453l1.6289 1.83594m-2.62109-1.59766l.8125.91797m13.29688-1.7461l-6.4336 2.82422m6.4336-2.82421l1.92578 1.51953m-2.86328-1.10938l.96484.76172m13.26562-1.21875l-6.39062 2.92188m6.39062-2.92188l1.94922 1.48828m-2.8789-1.0664l1.94922 1.49218m12-2.4375l-5.80079 3.96485m5.80079-3.96485l2.17578 1.14063m-3.01953-.5625l2.17187 1.13672m11.95313-1.76172l-5.73438 4.0586m5.73438-4.0586l2.1914 1.10156m-3.02344-.51172l2.19141 1.10156m11.95313-1.6953l-5.73047 4.0664m5.73047-4.0664l2.1953 1.10155m-3.02734-.5078l2.19141 1.09765m11.98828-1.64844l-5.79297 3.98047m5.79297-3.98047l2.17578 1.13281m-3.01953-.55469l2.17578 1.13672m12.17188-1.40625l-6.16797 3.3672m6.16797-3.3672l2.04687 1.34766m-2.9453-.85938l2.05077 1.34766m12.23828-1.6875l-6.32422 3.0664m6.32422-3.0664l1.98047 1.44922m-2.89844-1l1.98047 1.44531m12.00782-2.32422l-5.83204 3.92579m5.83204-3.92579l2.16406 1.15625M439 345.78906l1.08203.57422m13.41797-.51562l-6.5039 2.66015m6.5039-2.66015l1.88672 1.5664m-2.83594-1.17969l.94531.78516m13.48438-.65625l-6.83594 1.6289"/><g clip-path="url(#an)"><path fill="none" stroke="#000" stroke-linecap="round" stroke-linejoin="round" stroke-miterlimit="10" stroke-width=".5" d="M466.98047 346.36328l1.6211 1.83985"/></g><path fill="none" stroke="#000" stroke-linecap="round" stroke-linejoin="round" stroke-miterlimit="10" stroke-width=".5" d="M465.98438 346.60156l.8125.91797"/><g clip-path="url(#ao)"><path fill="none" stroke="#000" stroke-linecap="round" stroke-linejoin="round" stroke-miterlimit="10" stroke-width=".5" d="M145.83594 336.85938l-3.67188-5.9922"/></g><path fill="none" stroke="#000" stroke-linecap="round" stroke-linejoin="round" stroke-miterlimit="10" stroke-width=".5" d="M145.83594 336.85938l-1.2461 2.11328m.71094-2.98438l-.6211 1.05469m11.5586.16406l2.15234-6.6875m-2.15234 6.6875l-2.41406.4336m2.72656-1.40625l-2.41406.43359m14.64844-5.79688l3.6914 5.98047m-3.15625-5.10937l.6211-1.0586m17.33984 2.07422l-6.67188 2.21094m6.67188-2.21094l1.77344 1.6914m11.57031-1.59374l-6.73047 2.01562m6.73047-2.01562l1.72656 1.74219m11.45703.64062l-6.46875-2.75m6.46875 2.75l.21485 2.44531m12.76172-1.82812l-5.78907-3.98828m5.78907 3.98828l-.28125 2.4375m-.5625-3.01563l-.14063 1.21875m13.71484.01563l-4.62109-5.29688m4.6211 5.29688l-.875 2.29297m14.84375-3.05469l-5.92579-3.77344m5.92578 3.77344l-.1914 2.44531m13.60156-2.60156l-6.11719-3.46094m6.1172 3.46094l-.06641 2.45313m-.82422-2.95704l-.03125 1.22657m14.3828-1.01172l-6.41015-2.88281m6.41016 2.8828l.16016 2.44923m-1.09375-2.8672l.08203 1.22267m14.17578-.82422l-6.42578-2.84375m6.42578 2.84375l.17578 2.44921m13.14062-2.44921l-6.42968-2.84375m6.42968 2.84375l.17579 2.4453m13.4375-3.78124l-7.02735-.17188m7.02735.17188l1.09765 2.19531m12.15235-2.94531l-6.89844 1.32812m6.89844-1.32812l1.54296 1.91015m11.23438-3.21484l-5.82031 3.9375m5.8203-3.9375l2.16798 1.15235m10.14844-2.13282l-3.82422 5.89844m3.82422-5.89844l2.4453.21485m10.79688-.26172l-3.67578 5.99219m3.67578-5.9922l2.44532.15235m11.99609.96094l-5.9336 3.76562m5.9336-3.76562l2.13672 1.21484m10.9961-1.47656l-5.56641 4.28906m5.5664-4.28906l2.23438 1.01172m-3.04297-.38672l1.11719.5039m13.3125-.66015l-6.17579 3.35156m6.17579-3.35156l2.04296 1.35156m-2.9414-.86328l1.01953.67578m13.3711-.77734l-6.53516 2.57812m6.53515-2.57812l1.86719 1.58984m-2.8164-1.21484l1.86718 1.58984m12.08203-2.58594l-5.90234 3.82032m5.90234-3.82031l2.14453 1.1953m-3.0039-.64062l1.07031.59766m13.34375-.71485l-6.38281 2.94141m6.38281-2.9414l1.95313 1.48828m-2.88282-1.0586l.97657.74219m13.36328-.9375l-6.57422 2.47656"/><g clip-path="url(#ap)"><path fill="none" stroke="#000" stroke-linecap="round" stroke-linejoin="round" stroke-miterlimit="10" stroke-width=".5" d="M466.84766 332.625l1.84375 1.61719"/></g><path fill="none" stroke="#000" stroke-linecap="round" stroke-linejoin="round" stroke-miterlimit="10" stroke-width=".5" d="M465.89063 332.98438l.92187.80859"/><g clip-path="url(#aq)"><path fill="none" stroke="#000" stroke-linecap="round" stroke-linejoin="round" stroke-miterlimit="10" stroke-width=".5" d="M144.11328 324.0586l-.22656-7.02344"/></g><g clip-path="url(#ar)"><path fill="none" stroke="#000" stroke-linecap="round" stroke-linejoin="round" stroke-miterlimit="10" stroke-width=".5" d="M144.11328 324.0586l-2.1289 1.22265"/></g><g clip-path="url(#as)"><path fill="none" stroke="#000" stroke-linecap="round" stroke-linejoin="round" stroke-miterlimit="10" stroke-width=".5" d="M144.08203 323.03906l-2.1289 1.21875"/></g><path fill="none" stroke="#000" stroke-linecap="round" stroke-linejoin="round" stroke-miterlimit="10" stroke-width=".5" d="M158.33203 323.91016l-2.03516-6.72657m2.03516 6.72657l-1.73828 1.73046m1.4414-2.70703l-.86718.86329m13.63672.26171l-.35156-7.01953m.35156 7.01953l-2.10547 1.25782m16.03906-8.19141l-1.58594 6.84375m16.8047-5.67188l-5.39454 4.5m4.60938-3.84375l1.13671.46094m13.57032-.0586l-6.60938 2.38673m6.60938-2.38672L215.6992 321m11.64454-1.10156l-6.90625 1.30078m5.90234-1.11328l.76563.95703m13.59375-.10547l-6.98438-.77734m5.96485.66406l.45312 1.14062m13.25.6211l-5.72656-4.07422m5.72656 4.07422l-.3164 2.4336m13.3789-2.1211l-5.21875-4.70313m5.21875 4.70313l-.59375 2.38281m13.82422-2.28906l-5.05078-4.88672m5.05078 4.88672L279 325.34766m13.82422-2.19532l-4.71485-5.20703m4.71485 5.20703l-.83203 2.3086m14.3125-2.46875l-5.04688-4.88672m5.04688 4.88672l-.67969 2.35937m13.76563-2.14453l-4.58985-5.32031m3.92188 4.54687l-.44532 1.14454m15.38672-1.70313l-6.5039-2.65625m5.55859 2.26953l.1211 1.22266m14.3828-2.5l-6.99218.67187m5.97656-.57422l.67578 1.02344m12.00781-3.77344l-3.69921 5.97657m3.16015-5.10547l1.22656.08203m12.26563-1.14453l-2.97656 6.36328m2.54297-5.4375l1.22656-.0625m14.33984 1.13281l-6.61328 2.3711m5.65235-2.02735l.91015.82422m12.60156-2.40625l-5.08203 4.84766m4.34375-4.14454l1.16406.38672m12.83204-1.15234l-4.96875 4.96875m4.24609-4.2461l1.17188.35938m13.49609-.22265l-6.23047 3.25m5.32422-2.77735l1.01172.69531m12.03125-2.47265l-3.8711 5.86328m3.3086-5.01172l1.21875.11719m13.91015.48437l-6.375 2.95313m6.375-2.95313l1.95704 1.48438m11.55078-.96875l-6.75782 1.92578"/><g clip-path="url(#at)"><path fill="none" stroke="#000" stroke-linecap="round" stroke-linejoin="round" stroke-miterlimit="10" stroke-width=".5" d="M466.9414 319.58594l1.69923 1.76562"/></g><path fill="#ff3030" fill-rule="evenodd" d="M189.20703 467.64844h7.6914V457.5039h-7.6914v10.14453"/><path fill="azure" fill-rule="evenodd" d="M191.03906 459.33594h.83594v5.73828h3.1914v.74219h-4.02734v-6.48047"/><path fill="#00f" fill-rule="evenodd" d="M392.67578 463.21094h8.6211V453.0625h-8.6211v10.14844"/><path fill="azure" fill-rule="evenodd" d="M394.51172 454.89844h.83203v2.82031h3.28516v-2.82031h.83203v6.48047h-.83203v-2.91797h-3.28516v2.91797h-.83203v-6.48047"/><path fill="#ff3030" fill-rule="evenodd" d="M313.48047 436.57813h7.6914v-10.14454h-7.6914v10.14454"/><path fill="azure" fill-rule="evenodd" d="M315.3125 428.26563h.83594v5.74218h3.1914v.73828h-4.02734v-6.48046"/><path fill="#00f" fill-rule="evenodd" d="M383.80078 432.14063h8.61719v-10.14454h-8.61719v10.14454"/><path fill="azure" fill-rule="evenodd" d="M385.63281 423.82813h.83203v2.82421h3.28907v-2.82421h.83203v6.48046h-.83203v-2.91796h-3.28907v2.91796h-.83203v-6.48046"/><path fill="#ff3030" fill-rule="evenodd" d="M193.64453 427.70313h7.69531v-10.14454h-7.6953v10.14454"/><path fill="azure" fill-rule="evenodd" d="M195.47656 419.39063h.83594v5.73828h3.1914v.74218h-4.02734v-6.48046"/><path fill="#ff3030" fill-rule="evenodd" d="M446.63281 423.26563h7.6914v-10.14844h-7.6914v10.14844"/><path fill="azure" fill-rule="evenodd" d="M448.46484 414.95313h.83204v5.73828h3.1953v.74218h-4.02734v-6.48046"/><path fill="#00f" fill-rule="evenodd" d="M215.14453 409.94922h8.61719v-10.14453h-8.61719v10.14453"/><path fill="azure" fill-rule="evenodd" d="M216.97656 401.63672h.83203v2.82422h3.28516v-2.82422h.83594v6.48047h-.83594v-2.91797h-3.28516v2.91797h-.83203v-6.48047"/><path fill="#ff3030" fill-rule="evenodd" d="M206.96094 365.5664h7.6914v-10.14452h-7.6914v10.14453"/><path fill="azure" fill-rule="evenodd" d="M208.79297 357.2539h.83203v5.73829h3.19531v.74219h-4.02734v-6.48047"/><path fill="#ffffe0" fill-rule="evenodd" d="M356.48047 396.86719h22.17969v-10.1914h-22.1797v10.1914"/><path fill-rule="evenodd" d="M359.98047 388.50781h.50781v6.29297h-.78515v-4.48828h-1.39063v-.55469l.5625-.0664.25-.0547.23047-.08983.20312-.14063.17579-.21094.14062-.29297.10547-.39453m4.8125 0l.23047.01953.21875.0547.20703.08983.19922.1211.1836.14844.17187.17578.30078.41797.24219.49609.17968.54688.11328.57812.03516.58984-.03516.59375-.11328.58594-.17969.55078-.24218.5039-.30078.4297-.17188.17578-.1836.15625-.19921.1211-.20703.09374-.21875.05469-.23047.01953-.22656-.01953-.22266-.05469-.20703-.09375-.19531-.1211-.1836-.15624-.17187-.17578-.30078-.4297-.2461-.5039-.17969-.55078-.10937-.58594-.03906-.59375h.83203l.03125.5625.08203.50782.125.4414.16406.375.1875.30078.21094.22266.22266.13672.22656.04687.22656-.04687.22266-.13672.21094-.22266.1914-.30078.16406-.375.125-.4414.08204-.50782.02734-.5625-.02735-.55859-.08203-.5039-.125-.4336-.16406-.36719-.1914-.29297-.21094-.21093-.22266-.13282-.22656-.04687-.22656.04687-.22266.13282-.21094.21093-.1875.29297-.16406.36719-.125.4336-.08203.5039-.03125.5586h-.83203l.03906-.58985.10938-.57813.17968-.54687.2461-.4961.30078-.41796.17187-.17578.1836-.14844.1953-.1211.20704-.08984.22266-.05469.22656-.01953m5.09375 0h.50781v6.29297h-.78515v-4.48828h-1.39063v-.55469l.5586-.0664.2539-.0547.23047-.08983.20312-.14063.17188-.21094.14453-.29297.10547-.39453m2.82031 2.17578h.78906l.01954-.3164.05859-.28906.10156-.25.13672-.21485.1836-.17578.22265-.1289.26563-.07813.30859-.03125.23828.02344.22266.0625.20312.10156.17969.13672.14844.17578.11328.20312.07031.23829.02734.26562-.02343.26563-.06641.22656-.10938.1914-.15625.17188-.19921.16015-.2461.16797-.63672.38672-.53515.3164-.4375.31642-.34766.32421-.26172.33594-.1914.35156-.125.3672-.07032.39452-.01953.41797h4.21094v-.73828h-3.33203l.08203-.28516.11328-.23828.14844-.19922.1875-.17968.23047-.17188.28125-.17578.71484-.41797.41797-.20312.34375-.23438.28125-.25.21875-.26562.16406-.27735.11328-.28515.0625-.28516.01954-.28125-.04297-.38281-.1172-.34766-.1914-.3086-.25-.26171-.30078-.21485-.34765-.15625-.37891-.10156-.40625-.03125-.4375.03125-.39844.09766-.35156.16797-.30469.23437-.25.30469-.1875.375-.11328.44531-.04297.51953"/><path fill="#ffffe0" fill-rule="evenodd" d="M230.78516 340.71094h22.17968v-10.1914h-22.17968v10.1914"/><path fill-rule="evenodd" d="M234.28516 332.35156h.5078v6.29688h-.78515v-4.49219h-1.39062v-.55469l.5625-.0664.25-.05079.23047-.08984.20312-.14453.17188-.20703.14453-.29688.10547-.39453m4.8125 0l.23047.01953.21875.0547.20703.08983.1953.1211.1875.14844.16798.17578.30469.42187.24218.49219.17969.54688.11328.57812.03516.59375-.03516.58984-.11328.58594-.17969.55469-.24219.5-.30468.42969-.16797.17968-.1875.15235-.19531.125-.20703.08984-.21875.0586-.23047.01953-.23047-.01954-.21875-.05859-.20703-.08984-.19532-.125-.18359-.15235-.17188-.17968-.30078-.4297-.24609-.5-.17969-.55468-.10937-.58594-.03906-.58984h.83203l.03125.5625.08203.5039.125.44532.16015.3711.19141.30077.21094.22266.22265.13672.22657.04687.22656-.04687.22266-.13672.21093-.22266.1914-.30078.16017-.3711.1289-.4453.08203-.50391.02735-.5625-.02735-.5625-.08203-.5-.1289-.4375-.16016-.36328-.1914-.29297-.21095-.21484-.22265-.13282-.22656-.04296-.22657.04296-.22265.13282-.21094.21484-.1914.29297-.16016.36328-.125.4375-.08203.5-.03125.5625h-.83203l.03906-.59375.10937-.57813.17969-.54687.2461-.49219.30077-.42187.17188-.17578.1836-.14844.1953-.1211.20704-.08984.21875-.05469.23047-.01953m5.09375 0h.5078v6.29688h-.78905v-4.49219h-1.38672v-.55469l.5586-.0664.2539-.05079.23047-.08984.20312-.14453.17188-.20703.14062-.29688.10938-.39453m2.8203 2.17578h.78907l.01953-.3164.0586-.28516.09765-.2539.14063-.21485.1836-.17578.22265-.1289.26562-.07813.3086-.02735.23437.01954.22656.0625.20313.10156.17969.14062.14843.17188.11328.20703.07032.23438.02734.26562-.02344.26953-.0664.22266-.10938.1914-.15625.17188-.19922.16406-.24609.16406-.63672.39063-.53516.3125-.4375.3164-.34765.32422-.26563.33594-.1875.35156-.125.3711-.0703.39062-.01954.42188h4.21094v-.74219h-3.33203l.08203-.28516.11328-.23437.14844-.20313.1875-.17968.23047-.17188.28125-.17578.71484-.41797.41406-.20312.34766-.23047.28125-.2539.21875-.26563.16406-.27735.10938-.28515.0664-.28516.01953-.28125-.04297-.38281-.12109-.34766-.1875-.3086-.25-.26171-.30469-.21485-.34375-.15625-.3789-.09765-.40625-.03516-.4375.03125-.39844.10156-.35547.16407-.30469.23437-.2461.30469-.1875.375-.11327.44531-.04297.51953"/></g></defs><use xlink:href="#au"/></svg>