<svg xmlns="http://www.w3.org/2000/svg" role="img" xmlns:xlink="http://www.w3.org/1999/xlink" viewBox="142.45 309.95 326.84 171.84"><defs><clipPath id="a"><path d="M144 311.67188h1v168.65625h-1zm0 0"/></clipPath><clipPath id="b"><path d="M144 311.67188h324v168.65625H144zm0 0"/></clipPath><clipPath id="c"><path d="M389 479h5v1.32813h-5zm0 0"/></clipPath><clipPath id="d"><path d="M467 311.67188h1v168.65625h-1zm0 0"/></clipPath><clipPath id="e"><path d="M144 478h4v2.32813h-4zm0 0"/></clipPath><clipPath id="f"><path d="M153 478h8v2.32813h-8zm0 0"/></clipPath><clipPath id="g"><path d="M167 479h8v1.32813h-8zm0 0"/></clipPath><clipPath id="h"><path d="M172 480h2v.32813h-2zm0 0"/></clipPath><clipPath id="i"><path d="M180 479h8v1.32813h-8zm0 0"/></clipPath><clipPath id="j"><path d="M187 480h2v.32813h-2zm0 0"/></clipPath><clipPath id="k"><path d="M186 480h2v.32813h-2zm0 0"/></clipPath><clipPath id="l"><path d="M193 479h9v1.32813h-9zm0 0"/></clipPath><clipPath id="m"><path d="M200 480h3v.32813h-3zm0 0"/></clipPath><clipPath id="n"><path d="M206 480h9v.32813h-9zm0 0"/></clipPath><clipPath id="o"><path d="M213 480h3v.32813h-3zm0 0"/></clipPath><clipPath id="p"><path d="M220 479h8v1.32813h-8zm0 0"/></clipPath><clipPath id="q"><path d="M227 480h2v.32813h-2zm0 0"/></clipPath><clipPath id="r"><path d="M233 479h8v1.32813h-8zm0 0"/></clipPath><clipPath id="s"><path d="M240 480h2v.32813h-2zm0 0"/></clipPath><clipPath id="t"><path d="M246 479h9v1.32813h-9zm0 0"/></clipPath><clipPath id="u"><path d="M253 480h3v.32813h-3zm0 0"/></clipPath><clipPath id="v"><path d="M260 479h8v1.32813h-8zm0 0"/></clipPath><clipPath id="w"><path d="M267 480h2v.32813h-2zm0 0"/></clipPath><clipPath id="x"><path d="M273 479h8v1.32813h-8zm0 0"/></clipPath><clipPath id="y"><path d="M280 479h3v1.32813h-3zm0 0"/></clipPath><clipPath id="z"><path d="M286 479h9v1.32813h-9zm0 0"/></clipPath><clipPath id="A"><path d="M293 479h3v1.32813h-3zm0 0"/></clipPath><clipPath id="B"><path d="M300 479h8v1.32813h-8zm0 0"/></clipPath><clipPath id="C"><path d="M307 479h2v1.32813h-2zm0 0"/></clipPath><clipPath id="D"><path d="M313 479h8v1.32813h-8zm0 0"/></clipPath><clipPath id="E"><path d="M319 480h2v.32813h-2zm0 0"/></clipPath><clipPath id="F"><path d="M326 480h9v.32813h-9zm0 0"/></clipPath><clipPath id="G"><path d="M332 480h2v.32813h-2zm0 0"/></clipPath><clipPath id="H"><path d="M339 479h9v1.32813h-9zm0 0"/></clipPath><clipPath id="I"><path d="M345 480h2v.32813h-2zm0 0"/></clipPath><clipPath id="J"><path d="M353 479h8v1.32813h-8zm0 0"/></clipPath><clipPath id="K"><path d="M359 480h2v.32813h-2zm0 0"/></clipPath><clipPath id="L"><path d="M366 478h8v2.32813h-8zm0 0"/></clipPath><clipPath id="M"><path d="M380 479h8v1.32813h-8zm0 0"/></clipPath><clipPath id="N"><path d="M393 479h8v1.32813h-8zm0 0"/></clipPath><clipPath id="O"><path d="M409 476h2v4.32813h-2zm0 0"/></clipPath><clipPath id="P"><path d="M422 476h3v4.32813h-3zm0 0"/></clipPath><clipPath id="Q"><path d="M434 477h5v3.32813h-5zm0 0"/></clipPath><clipPath id="R"><path d="M448 477h5v3.32813h-5zm0 0"/></clipPath><clipPath id="S"><path d="M460 478h7v2.32813h-7zm0 0"/></clipPath><clipPath id="T"><path d="M144 464h4v6h-4zm0 0"/></clipPath><clipPath id="U"><path d="M144 451h4v5h-4zm0 0"/></clipPath><clipPath id="V"><path d="M466 452h2v3h-2zm0 0"/></clipPath><clipPath id="W"><path d="M144 437h3v6h-3zm0 0"/></clipPath><clipPath id="X"><path d="M466 439h2v3h-2zm0 0"/></clipPath><clipPath id="Y"><path d="M144 424h3v6h-3zm0 0"/></clipPath><clipPath id="Z"><path d="M466 425h2v2h-2zm0 0"/></clipPath><clipPath id="aa"><path d="M144 411h3v6h-3zm0 0"/></clipPath><clipPath id="ab"><path d="M465 410h3v2h-3zm0 0"/></clipPath><clipPath id="ac"><path d="M144 399h4v3h-4zm0 0"/></clipPath><clipPath id="ad"><path d="M466 398h2v3h-2zm0 0"/></clipPath><clipPath id="ae"><path d="M144 385h4v4h-4zm0 0"/></clipPath><clipPath id="af"><path d="M466 385h2v3h-2zm0 0"/></clipPath><clipPath id="ag"><path d="M144 371h4v5h-4zm0 0"/></clipPath><clipPath id="ah"><path d="M466 372h2v3h-2zm0 0"/></clipPath><clipPath id="ai"><path d="M144 357h3v7h-3zm0 0"/></clipPath><clipPath id="aj"><path d="M466 359h2v3h-2zm0 0"/></clipPath><clipPath id="ak"><path d="M144 343h2v8h-2zm0 0"/></clipPath><clipPath id="al"><path d="M144 350h2v3h-2zm0 0"/></clipPath><clipPath id="am"><path d="M466 345h2v3h-2zm0 0"/></clipPath><clipPath id="an"><path d="M144 330h2v8h-2zm0 0"/></clipPath><clipPath id="ao"><path d="M144 336h1v2h-1zm0 0"/></clipPath><clipPath id="ap"><path d="M466 333h2v3h-2zm0 0"/></clipPath><clipPath id="aq"><path d="M144 316h2v9h-2zm0 0"/></clipPath><clipPath id="ar"><path d="M144 322h1v3h-1zm0 0"/></clipPath><clipPath id="as"><path d="M466 319h2v3h-2zm0 0"/></clipPath><g id="at" clip-path="url(#clip1)"><path fill="#fff" fill-opacity="0" fill-rule="evenodd" d="M0 0h1000v1000H0zm0 0"/><path fill="#d3d3d3" fill-opacity="0" fill-rule="evenodd" d="M162.15234 355.86719l-.23437.29297.0586.23437.11718.17188.17578.23437.29297.34766.11328.0586.11719-.17188.0586-.23438.17577-.17578.46485-.17578h.69922l.23437.29297.28906.8164.0586.17579.17578.23046.35156.23438.69922.69922.17188.17578.23437.34765.23438.41016.28906.58203.41015.46485.23047.23437.23438.17578.11719.23047.17578.29297.17187 1.16406v.23438l.0586.28906.05859.11719.11719.11719.34765.41015.11719.17188.17578.17578.17578.23437.11719.17188.17188.35156.05859.23438.23437.40625.23438-.0586-.17578.17578-.0586.92969h-.58203l-.23437-.11328-.34766.11328-.11719.11719-.05859.29297-.0586.17578-.11718.17187-.46484.29297-.0586.23438-.0586.11328v.64453l.0586.17187v.41016l.0586.0586v.40624l.05859.40625.11719.17579.05859.05859.23047.64062-.0586.29297v.69922l-.05859.58203v.23438l-.0586.23047-.05468.35156v1.92187l.05469.1172h.42578l-.36719.11718-.02344.35156.89063 1.16797 1.74219.53906 1.33984.35938v.53906l.08984.8086.53516.71484 1.51953.26953.89063-.08594.08984 1.16406.53516.1797 1.16015-.1797 2.05469-.98437 1.16016-.36328 1.8789-.17578 1.69531-.1797-.17968.71876-1.51563.08594-1.25.08984-.80469.26953-1.07421.8086.26953.71875.53515.89843-.17968.625-.26563.8086.26563 1.07812.625.89844.80468.17969 1.25-.1797-.26562.72267.09766.5039.05468.29297v.17188l.0586.29296v.40625l.17578.1172.35156.11718h.40625l.29297-.17578.11328-.11719.0586-.11719.11718-.23047.0586-.17578.35156-.46484.23047-.17578.17578-.0586.17578.0586.0586.17578.11718.98828.05469.46875.0586.17188.11718.23437.17578.0586.8164.05859h.28907l.11719.23437.05859.40625.0586.35156v1.10547l.11718.29297.11719.34766.28906.69922.17578.35156.58203.7539.35157.17579.17187.0586.46875.23437.64063.46484.34765.23438.29297.17578.29297.05468.23047.0625.8164.34766.29297.17578.11328.17188.35157.35156.11719.17578.52343.64063v.28906l.0586.35156v.34766l.05859.35156.0586.28906.11718.0586.17188.05859h.17578l.58203.23437.17578.1172.17578.28905.17578.23438.11328.23437.29297.23047.11719.11719v.41016l.0586.05468.28906.23438.23437.11719.0586.11718.11718.17188.0586.11719.23047.23437.05859.17578.23437.0586.1172.05859-.1172.11328-.05859.11719v.11719l-.11719.29296-.11719.28907v.58203l.17579.11719.11718.05859.0586.11719.11719.11719.11328.05859.17578.34765.0586.35157.05858.40625v.17578l-.05859.17578-.11719.69922v.17187l.1172.17579.29296.29296h.40625l.17578.1172.11719.17187.11719.29296v.23438h-.52735l-.23047-.23438h-.23437l-.17578.0586-.0586.69922.0586.34765.11719.17579.17578.41015.11718.23047.28907.46875.17578.05469h.52344l.23437.0586.75781.64062.0586.29296v.23438l.05859.0586.23047.34765v.35156l-.11719.17188v.29297l.29297.28906.29297.17578.17187.0586.29297.17577.29297.1172.58203.40624.28906.23438.29297.17578.21875.16015.01563.01172.23047.17579.64062.52343.17578.23438.1172.17578.17577.17578.11328.17188v.64062l.1172.17578.46874.11719.58203.11719.23438.05859.23047.11328.29297.11719.11328.0586.58593.35156.28907.17187.17578.0625.17578.05469.17578.0586.69922.35155.28906.17579.23438.05468.28906.17578.23437.1172.64063.40624.29297.11719.17187.0586.23438.05859.41015.05859.23047.0586.23438.11718.0586.17188-.41017.17578.46875.0586.0586.29296.11328.23438.17578.05468.23438.0586.17578.05859.40625.11719.64062.23437.11719.17188.0586.23437v.17578l-.0586.1172-.0586.40624.23438.23438.11719.05859.34766.11719.64062.23047.17578.11718.28906.1172.17578.17577.23438.46485.58203 1.10546.17578.17579.34766.17578.17578.11719.35156.11718 1.04688.52344.23437.0586.46485.11327.29297.0586.46484.17578.75781.58203.23438.23438.34765.46484.17578.17578.28907.23438.8164.69921.29297.17579.28906.28906.29297.17578.29297.28906.69531.64063.17578.17578.29297.23437.28907.23438.46875.28906.64062.58203.34766.23438.23437.29297.34766.34765.35156.46485.9336.99218.34765.40625.11719.17579.23437.05859.11328.11719.64454.17578.23047.11328.23437.0586.29297.17577.23047.1172.9336.69921.40624.40625.23438.17578.40625.17578.23437.11719.8164.34766.34766.23437.23438.11719.29297.28906.23047.11719.7578.35156.35157.17188.23047.05859.29297.11719.23437.0586.8711.17577h.8164l.46875.23047.17188.0586.875.69921.46484.1172.29297.05858.17578.0586.23047.0586.46875.05859.34766.05859.35156.0586.40625.05859h.29297l.17187.0586v.23046l.17578.17578h.29297l.34766.0586.35156.05859.69922.11719h.64063l.46484-.23438.29297-.17578.17187-.11719.41016-.17187.28906-.17578.9336-.46485.46875-.29297.52343-.29296.46485-.17188.46484-.17578 1.05078-.46485.28906-.11718.41016-.11719.28906-.11719.52735-.17578 1.51562-.69922.58203-.34765.28907-.0586.29297-.0586.34765-.11718.875-.23047.35156-.11719h.11329l.23437-.05859.875-.23437.23438-.0586h.8125l.35156-.0586.8164-.11718.17188-.0586.35156-.05468.29297-.0586.23047-.05859.8164-.17578.17579-.0586h.34765l.23438-.05859.46484-.11718.75781-.17188.23438-.0586h.34765l.41016-.11718.28906-.0586 1.28516-.05859h.28906l.41016-.0586.23047-.05858h.17578l.875-.1172h.40625l.41015-.11718h.34766l.35156-.11328.8711-.0586h1.75l1.04687.28907.41016.11719.28906.11718.35156.11719.28907.11719 1.05078.17187.28906.0586h.29297l.29297.05859.17187.0586.41016.05859.17187.0586.1172.05858h.11718l.11719.0586.35156.0586h.11328l.41016.0664 1.92187.39453 1.92578.39453 1.51953.44922 1.69532.71875 2.14453.80469 1.60547-.71875 1.42968-.80469 1.16016-1.07813 1.25-.44921 3.03516-.71875 1.875-.35938 2.14453-1.34765 2.23437-1.25391 2.5-1.25781 1.69531-.44922 1.78516-.17969 1.16016-.26953.625.53906 1.33984-.26953.71485-.98828.98437-1.34375.44531-.17969.80469-.35937 1.875-.53907 1.78516-.44921 1.25-.26954 1.16015-.08984 1.69922-.08984 1.96094-.26954 1.25-.08984h.53906l.625-.08984h.89063l2.14453-.17969 2.41015-.17969 2.58985-.08984 1.69531.17969 1.60938.08984 1.42968.35938 1.16016.71875 1.875.98828 1.16015 1.52734.26563.71484.6289.08985.35548.89844.53515.53906.53516 1.52734 1.07422.35938h.53515l-.80469.53515.08985 1.70703.71484 2.69532.89063.80468.89453.98829.71484 1.2578 1.78516.53907 1.51953-.17969.35547 1.34375 1.60937-.80469.98047-.53906.26953.26953.31641-.21484.21875-.14453.80078.44922.44922-.35938h.35547l.53515-.26953.53907-.71875.53515-.26953.625-.98828 1.16016.44922.83984.3711 1.39454.61718 1.6953-.17969h1.60548l1.78515.08985.17969-1.70704.53516-1.34375.80468.26954.4922.84765.40233.40625-.08984.53906v.35938l.71485.44922.71093-.26953h1.42969l.35938.98828.4453 1.25781.71485 1.34375 1.25.6289 1.69531.62891.71485-.17969.17969-.53906.98046-.08984.44922.35937.08594 1.25782-.26563.6289-.53515.17969v.53906l.71484.98438.26563.53906.98437.98828.80078 1.07813-.26562.35937-.08985.89844-.625 2.33203-.35546 2.0664-.08985 1.79298-.17969.71875-.08984.53906v1.4375l-.98047 1.88281-.35937 1.70703-.53516.89844-.80469 1.16797-.26562.53906 2.05469 1.2539.08593.35938-.35546.53906-.08985-.17968v.80859l.08985 1.4375-.44532.71484-1.07422.09375-.26562.71485.53515.89844.8047.71875 1.16015.80859 1.33984.26953.44531.35938-.35546.44921-1.78907-.08984-1.25-.44922-.71484-.71875-.625-.08984-.17578 3.58984-.1875 1.3086h89.35937V311.70313h-55.26953v49.08203l.76172.125 3.28906.54296 2.02344 2.83594v2.7539l2.35156.33204 2.34766.33203h4.05078l-1.3789 4.16016-2.02344.70703-2.02344.70312-.54297.34375-2.59375 1.6172-.1875.11718-2.02344-2.07813-.73046-2.74218-2.67188-2.07813-1.375-3.5-.0664-.08203-1.95704-2.67188 2.75-1.41796v-49.08204H294.42187v91.41407l.1172.03125.1328.01172.07422.07421.10547.04688.08985.0586.08593.05859.08985.0586.29687.29687.0586.08984.03125.11719.02734.11719.01563.13671-.03125.1172-.0586.08983-.0586.08594-.04296.10547-.04688.10156-.02734.1211v.14453l.17578.26953.14844.14844.07422.08594.07422.07421.04296.10547.0625.08985.0586.08593.04297.10547.0586.08985.04687.10156.04296.10547.0586.08594.11719.17968.07421.07422.0625.08594.0586.08984.04297.10547.0586.08985.05858.08593.0625.08985.0586.08984.04297.10156.11719.17969.07421.07422.0586.08594.07422.07421.08984.0586.10547.04687h.14844l.1328-.01562.13282.01562.10156-.04687.07422-.07422.04688-.10156-.01563-.13281v-.14844l-.04687-.10547-.02735-.11719-.04687-.10156-.02735-.1211-.04296-.10156-.0625-.08984-.04297-.10156-.04297-.10547-.03125-.11719-.01563-.13281-.01171-.13672.08593-.0586.0586-.08593.12109-.03125.04297.10547.01562.1328v.1172l.0586.10156.0586.08984.08983.0586.14844.14843.0586.08985.04296.10547-.01171.10156.08593.0586.10547.04687.08594.0586.08984.05858.07422.07422-.11719.02735-.10546.04687-.08594.0586-.07422.07421-.0586.08985-.0625.08594-.02734.12109-.04687.10156-.04297.10547-.03125.11719-.01172.13281-.01563.13281v.14844l.02735.11719.04687.10547.04297.10156.0586.08984.07421.07422.08985.0586.07422.07421.08984.0586.0586.08984.04296.10547.04688.10156.11719.03125.1328.01563h.14845l.11718-.03125.10547.04297.04297.10547.04688.10156.02734.1211L299.5 410l.02734.11719.03125.1211.02735.11718.10547.04297.10156.04687.13281-.01562.14844.14844.0625.08593.07422.07422.07031.07422.08984.0625.10547.04297.10156.04297.1172.03125.13671.01562.11719-.03125.07422-.07422.02734-.11718-.01172-.13282-.03125-.12109-.02734-.11719.04297-.10547h.11719l.08984.0625.11719.02735h.14843l.13282.01562h.14843l.13282.01563.1328-.01563h.14845l.1328-.01562.13282-.01172.13672.01172.11719-.02735.13281-.01562.1914-.0586-.05859.17579-.01562.1328-.02735.1211-.01562.13281-.0586.08594-.1328.01563-.10548.04687-.10546.04297-.1172.03125-.11718.02735-.26563.03125h-.14843l-.13281.01562-.07422.07422.05859.08594.14844.14843.11719.1797.07421.0703.08985.0625.08984.0586.08594.0586.08984.05858.10156.04297.10547.0625.10547.04297.08594.0586.10547.04687.10156.04297.17969.11719.0586.08984-.04298.10156-.04687.10547.01562.13281.22266.22266.0586.08985.04296.10156.03125.1211.04297.10155.01563.13282.03125.11718.01171.13672.03125.11719.14844.14844.10156.04297.10547.04296.1172.03125.1328.01563.13672.01563h.11719l.11719-.03125.08984-.0586.04297-.10547.04688-.10156.04296-.10547.03125-.11719.01172-.1328v-.14845l-.01172-.1328-.01562-.13282-.03125-.11719-.04297-.10547-.04688-.10547-.04296-.10156-.04297-.10547-.01563-.13281.01563-.13281.02734-.11719.03125-.11719.02735-.1211.04687-.10155.08984-.0586.08594-.0625.07422-.07422.08984-.05859.22266-.22266.0586-.08593.07421-.07422.11719-.17969.0586-.08594v-.14844l-.07423-.07421-.10156-.04688-.10547-.04297-.10156-.04297-.0586-.08984-.04687-.10547-.02734-.11719.08984-.05859.11719-.03125.10156-.04297.17969-.11719.14844-.14843.01172-.13282-.01172-.10546-.08985-.0586-.1328.01563h-.14845l-.1328.01562-.13282-.01562-.1211-.03125-.08593-.0586-.07422-.07422-.0586-.08984-.0625-.08594-.11718-.17969-.0586-.08593.03125-.1211.08594-.05859.1211-.03125.05859-.08594v-.1211l-.03125-.11718-.0586-.08984-.05859-.08594-.04687-.10547-.02735-.11719-.01562-.1328.0586-.08985.07421-.07422.08984-.0586.1172-.17968.07421-.07422.0586-.08594.14843-.14844.1211-.03125.1328-.01562.13282.01562.07422.07422.04297.10547.01562.13281-.03125.1172-.11719.03124-.1328.01172-.14844.14844-.04297.10547-.04688.10156-.02734.1211-.03125.11718v.14844l.03125.11719.04297.10546.05859.08985.07422.07031.07422.07422.11719.03125.12109.02734.11719-.02734.1328-.01563h.1172l.08984.0586.07422.07422.04687.10546.0586.08594.10156.04688.13281.01562.10547.04297.08594.0586-.01172.10546-.07422.07422-.17969.11719-.05859.08984-.08984.0586-.07032.07422-.07421.07421-.0625.08985-.02735.11719-.01562.1328.01562.13282-.01562.13281v.14844l.01562.13281.02735.1172.03125.12108.07421.07422.08985.0586.08594.0586.08984.05858.11719.03125v.08594l-.10157.04688-.08984.0586-.26563.03124-.11718.02735h-.14844l-.10547.04296-.10156.04688-.0586.08984-.0625.23438-.01171.13281-.03125.1211-.01563.1328v.29298l-.01172.1328.01172.13673.01563.1328.1328.01563.13282.01172.1211.03125.08593.0586.07422.07421.04688.10547.04296.10157.01563.1328v.44532l-.01563.13281v.44532l.03125.26562.02735.11719.01562.13281.03125.11719.08594.21094.03125.26562v.14844l-.03125.11719-.02734.11718-.03125.1211-.02735.11719-.03125.11718-.03125.1211-.01171.1328-.01563.13282.08984.0586.1172-.03125.10155.01562.04688.10547-.03125.26562v.44141l-.04297.10547-.04688.10547-.04296.10156-.04297.10547-.0586.08594-.03125.12109-.04296.11719-.03125.11719-.01563.1328.01563.13282.05859.08984.10547.04688.08594.0586.05859.08593-.01172.13672-.03125.11719-.04297.10156v.44531l-.01562.13281v.14844l-.03125.11719-.04297.10547-.02735.11719-.04687.10546-.04297.10157-.03125.12109-.02734.11719-.03125.13281-.03125.11719-.02735.11719-.04297.10546-.03125.1172-.03125.12108-.01171.13282-.01563.13281v.29688l.02734.11718v.14844l.04688.39844.02734.11719.0586.08984.12109.03125h.14844l.13281-.01563.0586.08985v.11719l-.0586.08984-.08984.0586-.10157.04296-.10546.04688-.08985.05859-.08594.0586-.13671.01562-.1172-.03125-.1328-.01563-.10157.04688-.0625.08594-.01172.13671-.01562.13282-.03125.11719-.02735.11718-.01562.13281-.03125.1211v.29687l.01563.13282.03125.11718v.14844l.01171.13281v.14844l-.02734.11719-.04688.10156-.02734.1211-.03125.11718-.0586.08985-.07421.07421-.10156.04297-.10547.04688-.11719.02734-.1211.03125-.10156-.04687.0586-.08594.10547-.04688.02734-.11718.03125-.11719.02734-.1211.03125-.11718v-.14844l.01563-.13281-.03125-.11719-.04297-.10547-.10547.01563-.07422.07422-.10156.04296-.08984.0625-.07422.07422-.04297.10157-.01563.1328-.03125.1172L304.25 426l-.03125.11719-.02734.11719-.03125.12109-.02735.11719-.03125.11718-.04297.10547-.08984.0586h-.08984l-.1172-.03125-.03124-.08594.01562-.13672-.03125-.11719v-.14844l-.01171-.1328v-.14844l-.0625-.23438-.02735-.1211-.04297-.10156-.04687-.10546-.0586-.08594-.05859-.08985-.04297-.10546-.0625-.08594-.14844-.14844-.0703-.07422-.10548-.04687-.10547-.04297-.10156-.04297-.29687-.29688-.08985-.07421-.08594-.0586-.10546-.04297-.08985-.0625-.08594-.0586-.10546-.04296-.08985-.0586-.08594-.0625-.07421-.0703-.10547-.04688-.08594-.0586-.10547-.04296-.08984-.0625-.10156-.04297-.10547-.04297-.08594-.0586-.10547-.04687-.10547-.04297-.10156-.04687-.08985-.0586-.10156-.04297-.10547-.04296-.08984-.0625-.11719-.02735-.13281-.01562-.13281.01562H299.75l-.13281.01563-.11719-.03125-.08984-.0586-.07422-.07422-.08985-.05859-.10156-.04688h-.14844l-.12109-.02734-.10156-.04297-.07422-.07422-.11719-.17968-.08984-.0586-.10156-.04297-.08985-.0625-.10547-.04296-.08984-.0586-.08594-.0586-.10547-.04687-.0586-.08594-.05858-.08984-.04297-.10547-.04688-.10156-.07422-.07422-.08594-.0586-.07421-.07421-.08985-.0586-.22265-.22265-.04297-.10547-.03125-.26563.10547-.04296h.14453l.10547.04296.07421.07422.08985.0586.08594.0586.10546.04687.08985.05859.14844.14844.0703.07422.14845.14843.0625.08594.07421.07422.08594.0586.07422.07421.08985.0625.08984.0586.08594.05859.26953.17578.10156.04688.10547.04296.10156.04297.04688-.07421.05859-.08594.07422-.07422.07031-.07422.10547.04297.07422.07422.0586.08984.04296.10156.04688.10547.04296.10547.1211.02735.11719-.02735.07421-.08984.04297-.10547.0586-.08985.07422-.07421.10546-.04297.1172-.02735.1328.01172.08985.0586.14844.14843.05859.08985.04297.10547.04687.10156.04297.10547.04297.10156.10547.04688.10547.04296.13281.01563.08594-.0586.0586-.08984.07421-.07422.10547-.04297.11719.02735.10547.04687.10156.04297.10547.04297.10156.04688.17969.11718v.11719l-.01563.13281.01563.13281.01562.13672.0586.08594.10156.04688.1211.02734.11718.03125h.14844l.11719-.03125.05859-.08984.17969-.1172.05859-.08983.07422-.07422.0586-.08594.11718-.17969.17969-.11719.11719.03125.08984.0586.04297.07422-.01563.1328v.1172l.08985.05859h.14843l.13282-.01563.1328-.01171.26563-.03125.10547-.04297.11719-.03125.1211-.02735.07421-.07421.07031-.07422.0625-.08985-.01562-.10547-.04688-.10156-.10156-.04297-.10547-.01562-.11718.02734-.26563.03125h-.14844l-.07421-.07422-.08985-.0586-.11719-.03124-.11718-.02735-.13282-.01562h-.14843l-.13282.01563h-.29687l-.10547-.04688-.14844-.14844-.04297-.10156-.05859-.08984.22266-.22266.08593-.0586.10547-.04296.11719-.03125.13281-.01563.13281.01563.13672.01562.10157.04297.1328-.01172.08985-.0625.10156-.04297.0625-.08984-.04687-.10156-.08984-.0586-.1172-.03125-.10155-.04296-.0586-.08985-.0625-.08984v-.11719l.01563-.13281.10547-.04688.07421-.07031v-.1211l-.08984-.05859-.03125-.11719.08985-.05859.07421-.07422.04297-.10547.0586-.08984.04687-.10156.01563-.13281v-.14844l-.04688-.10547-.04297-.10156-.08984-.0586-.13281-.01562-.10157-.04297-.13671-.01563-.1172-.03125h-.4453l-.13282-.01562-.13281-.01172-.13281-.01563-.11719-.03125h-.14844l-.13281-.01562-.13281-.01172-.26563-.03125-.1211-.04297-.08593-.0586-.07422-.07421v-.14844l.01172-.13281.10547-.04688.10156-.04296.13281-.01563h.15235l.13281-.01562h.29297l.1211.03125.10156.04296.08984.0586.23438.0625.12109-.04688.08984-.05859.10156-.04297.13282-.01562.10547.04296.10156.04688.13281.01172.1211-.02735h.14453l.12109-.03125.11719-.02734.10547-.04687.07421-.07422.08594-.0586.14844-.14843.0586-.08594.04687-.10547.02734-.11719.01563-.10547-.10156-.04296-.08985-.0586-.11719-.03125-.10546-.04297-.08985-.0625-.07422-.08594-.07422-.07421-.10156-.04297-.10547-.04688-.10156-.04297-.0586-.08984-.04687-.10156-.08594-.21094-.0625-.08594-.05859-.08984-.07422-.07422-.08594-.0586h-.26953l-.11719.03126-.08984.05859-.10156.04297-.13281.01562-.10547-.01562-.02735-.11719-.0625-.08984-.11718-.03125-.10157-.04297-.14843-.14844-.03125-.11719-.01563-.10546.07422-.07422.17969-.1172.11719-.02733.11718-.03125.13672.01562.10156.04297.10547.04297.10156.04687.10547.04297.1172.03125.1328.01563.1172.02734.1328.01563.10547-.01563.08985-.0586-.07422-.07421-.10547-.04297-.07422-.07422-.07422-.08984-.14844-.14844-.08593-.0586-.08985-.05859-.07422-.07422-.08984-.0586-.10156-.04687-.1211-.02734-.10156-.04688-.10547-.04296-.11719-.03125-.10156-.04297-.1211-.03125h-.14843l-.11719.03125-.10546.04297-.08594.0625-.17969.11718-.08594.0586-.08984.0586-.10547.04687-.08594.05859-.10547.04297-.10156.04297-.10547.04687-.07422.07422-.05859.08985-.0586.08593-.04687.10547-.0586.08594-.07421.07422-.13281-.01172-.1172-.03125h-.11718l-.07422.07422-.08984.0586-.07422.07421-.08984.0586-.08594.05859-.10547.04687-.10156.04297-.13672.01563-.10156-.04297-.14844-.14844-.10547-.04688h-.08594l-.10547.04688-.10156.04297-.1211.03125-.11718-.03125-.07422-.07422v-.11719l.03125-.1211.07422-.0703.0586-.08985.07421-.07422.11719-.03125.10547-.04296h.29297l.13281-.01563.13672-.01563.10156-.04296.08985-.0586.10156-.04687.08984-.0586.13281-.01171.08985.05859.13281.01172.08984-.0586.08594-.05859.10547-.04297.08984-.0586.08594-.0625.08985-.05859.14843-.14843.0586-.08594.05859-.08985.10547-.04296.13281-.01563.11719.02735.1211.03125.05859-.0586.05859-.08984.03125-.26563.02734-.11719.10547.01172.13281.01563.10157-.04297.08984-.0586.0586-.08984.07421-.07422.0586-.08984.04687-.10156.01172-.13281-.01172-.13282-.04687-.10547-.14844-.14843-.0586-.08985-.05859-.08594-.04297-.10546v-.44532l.01563-.1328v-.14845l.01172-.1328-.0586-.0586-.08984.0586-.10156-.04298-.17969-.11719-.08594-.05859-.0625-.08984-.0586-.08985-.07421-.07421-.08594-.0586-.1211.03125-.10155.01172-.10547.04688-.08594.05859-.10547.04297-.14844.14844-.08984.05859-.08594.0586-.08984.0625-.10547.04296-.13281.01563v-.1211l.10547-.04297.11718-.03125.07422-.0703.04297-.10548v-.14844l-.02734-.11718-.14844-.14844-.13281-.01563h-.14844l-.11719.03125-.10547.04297-.10156.04297-.08984.0625-.11719.02735-.07422-.07422.01172-.13281-.04297-.10157-.04297-.10547-.08984-.05859-.11719.02734-.1211.03125-.11718.03125-.10156.04297-.1211.03125-.10156.04297-.10547.04297-.08984.0586-.10156.01562v-.11719l.01562-.13281-.0586-.08985-.07421.04297-.14844.14844-.0586.08985-.07421.07421-.04688.10547-.04296.10156-.07422.07422-.0586.08985-.07422.07422-.05859.08593-.07422.07422-.08984.0625-.07422.07031-.07422.07422-.10156.01563-.13281.01562-.10547-.04296v-.1211l.14843-.14844.04297-.10156.0586-.08984.04687-.10156.04297-.10547.0586-.08985.03124-.11719.04297-.10156.03125-.1211.02735-.11718.04687-.10547.04297-.10156.04297-.10547.07422-.07031.08984-.0625.08985-.0586.10156-.04296h.29687l.26563-.03125.10547-.04297-.07422-.07422-.11719-.03125-.10547-.04297-.08984-.0586-.10156-.04687-.08985-.0586-.10156-.04296-.10547-.04297-.08984-.0625-.08594-.0586-.10547-.04296-.10156-.04297-.1211-.03125-.11718-.03125-.10157-.04297L297.5 410.25l-.10156-.04297-.08985-.0586-.04296-.10546-.01563-.13281.10156-.04297.13281-.01563.13672.01563.13282-.01563.10156-.04297.0586-.08984.01562-.10547-.08985-.0586-.07421-.07421-.10157-.04297-.08984-.0586-.14844-.14843-.04297-.10547-.01562-.13281v-.29297l-.0586-.08985-.08984-.05859-.07422-.07422-.04297-.10547-.03125-.11718-.0586-.08985-.07421-.07422-.11719-.02734-.07422-.07422-.08984-.0586-.08984-.0625-.08594-.05859-.07422-.07421-.0586-.08594-.04687-.10547-.08594-.0586-.14843-.14843-.19532-.0586-.1328.01563-.10157.04297-.07422.07422-.04688.10156-.04296.10547-.0586.08984-.0586.08594-.29687.29687-.08984.0586h-.08594l-.0625-.08594-.04297-.10547.03125-.11719.0586-.08984.02734-.11719-.01172-.13281-.08984-.0625-.10547.04688-.11719.02734-.11719.03125-.26953.17578-.10156.04688-.11719.02734-.10546.04687-.08985.0586-.10156.04297-.0586-.08594-.04687-.10547.01563-.13281.04687-.10547.07031-.07422.07422-.07031.0586-.08985v-.14843l-.04297-.10547h-.23829l-.10156.04687-.03125.11719-.02734.11719-.03125.1211-.07422.04296-.13281.01563-.07422-.04688-.04297-.10156-.04297-.10547-.04687-.10156-.04297-.10547-.1211.03125-.10156.04297-.13281.01562-.11719.03125-.10547.04297-.08984.0586-.10156.04687-.1211.02734-.13281.01563-.10156-.04297-.0586-.08985-.04687-.10546-.04297-.10157-.04297-.10546v-.1172l.0586-.08984.08593-.05859.17969-.11719.10156-.04687.10547-.04297.10547-.0586.10156-.04296.08985-.0625.10156-.04297.10547-.0586.10156-.04687.08984-.0586.10547-.04296.10156-.04297.08985-.0625.10156-.04297.13672-.01563.11719.03125.10156.04297.1211.03125.10156.04297.10546.04688.10157.04296.10547.04297.10156.04688.10547.04297.10156.04297.10547.04687.08594.0586.10546.04296.1172.03125.10546.04297.10156.04688.08985.0586.10547.04296.10156.04297.10547.04687.11719.02735.10156.04687.1211.02735h.14843l.08594-.0586.01562-.10156.0586-.08984-.02735-.1172-.07422-.07421-.11719-.17969-.07421-.07422-.08985-.07421-.17969-.1172-.08593-.05859-.10547-.04296-.10156-.04688-.26954-.17578-.05859-.08985-.07422-.07421-.0586-.08985-.04296-.10156-.03125-.11719-.01563-.13672v-.5625l-.01171-.1328-.01563-.13282-.03125-.11719-.01562-.13281-.01172-.13281-.03125-.1211-.22266-.22265-.0586-.08594-.01562-.10547.03125-.11719.13281-.01562v-91.41406H172.9922v1.45312l-.0586.23438-.35156 1.05078-.17187.52343-.1172.34766-.17577.41016-.11719.17187-.23438.29297-.23046.0586h-.35157l-.11718.05859-.23047.40625v.29297l.11719.17578.23046.23047.1172.23437.64062.75781.29297.46485.17578.23437.23047.35156.23437.34766.64063.8164.17578.46485.17187.41016.11719.69531.17578.46875.11719 1.39844.0586.46484v.875l.11718 1.04688v4.78125l-.0586.46484-.35156 1.28125-.17578.52344-.11328.41015-.35156.9297L172.93359 336l-.23437.58203-.11719.17578-.17187.34766-.17578.40625-.35157.8164-.0586.29297-.11327.29297-.11719.28906-.0586.17579-.11718.875-.0586.40625-.05859.11718-.0586.17579-.05859.17187-.23047.52734-.11718.17188v.23437l-.11719.23438-.0586.17187-.17577.58594v.28906l-.0586.17579v.29296l-.0586.11329-.05859.52734v.17187l-.05468.23438v2.6211l-.17578.8164-.1172.17578-.17577.23438-.1172.17187-.11327.23438-.58594.93359-.23047.28906-.29297.46485-.17578.23437-.28906.35156-.35156.69922-.11328.23047-.17579.41016-.17578.23046-.40625.52735-.8164.69922-.29297.17187-.28906.23438-.17579.11719-.17578.17578-.52344.40625-.52734.17578-.17187.17578-.23438.05469-.64062.17578h-.75782m12.21094 31.02344l-1.07422.44921.35938.89454 1.25-.71485.44531-.53906-.98047-.08985"/><path fill="#d3d3d3" fill-opacity="0" fill-rule="evenodd" d="M201.50781 416.59766h-.89453l.44922.6289.98047.35938.80469-.08985.4453-.98828-.17577.08985-.71485-.35547-.89453.35547m154.6211 59.0703l-.0586-.52343v-.29297l.11328-.29297.0586-.23046.46875-.46875h.11328l.11719-.11329.11718-.05859h.17579l.23437-.0586h.34766l.23437.0586.11719.0586.23047.17187.0586.17578.11718.58203v.29297l-.11719.17578-.17187.28906-.17579.17579-.52734.52343-.23047.23438-.11719.0586h-.17578l-.11718-.0586-.40625-.29297-.17579-.11719-.11718-.0586-.0586-.11327-.05468-.1172m6.64062-10.95702l-.0586-.17188v-1.10937l.0586-.17188.17578-.0586.17188-.05858h.17578l.23437-.0586.1172.0586.05858.69921-.05859.17188-.11719.17578-.11718.0586-.23438.52343-.11328.0586h-.23438l-.05859-.1172m9.61328-14.39062l-.11719-.17578v-.69922l.29297-.875.1172-.17187.17577-.35156.11328-.23047.1172-.29297.35155-.75781.1172-.23047.17187-.23438h.17578l.11719-.0586h.64062l.11719.0586.23437.23438.17188.11328.35156.29297.11719.11718.11328.17579v.11328l.11719.05859.11718.11719v.69922l-.05859.17578v.23047l-.0586.17578-.34765 1.05078-.11719.23047-.11719.23437-.11718.0586-.23047.23437-.64063.28906h-.875l-.41015-.11718-.64063-.46485"/><path fill="none" stroke="#bebebe" stroke-linecap="round" stroke-linejoin="round" stroke-miterlimit="10" stroke-width=".5" d="M467.95703 311.69531H144.02734v168.625h323.9297v-168.625"/><g clip-path="url(#a)"><path fill="#fff" fill-opacity="0" fill-rule="evenodd" d="M144 475.89063v4.4375h.0039H144V311.67188h.0039H144v164.21875"/></g><g clip-path="url(#b)"><path fill="#fff" fill-opacity="0" fill-rule="evenodd" d="M144.0039 480.32813V311.67188h26.625V450.4414l-2.10546 3.2578 2.10547.875 4.4375 1.58985 2.23828-2.46484-2.23828-3.20703-4.4375-.05078V311.67187h66.57812v104.8086l-4.4414.77734-2.39063.9336-2.04688.89843-4.4375.88672-3.52734-1.78515-.91016-.85547-.79296.85547-3.60938 4.4375-.03516.04296-4.4414 1.44922-4.4375.01563-4.4375.00781-3.77344 2.92578-.66406.51563-4.4414 3.4336-.47266.48827-3.23047 4.4375-.73438 2.84766-1.49219 1.58984 1.4922 1.95703 4.4375 1.25782 4.4414-.06641 4.4375-.96094 4.4375.80469 4.4375.36719 4.4414.67969 2.6211.39843 1.8164.67188 1.45704-.67188 2.98047-.4336 3.46484.4336.97266.42188 1.76562-.42188 2.67188-.17969 4.4414-.87109 4.4375.04688 4.4375-.08985 3.34375-3.34375-3.34375-4.41015-.03516-.02735-4.40234-3.625-3.5625-.8125-.875-.8711-2.57031-3.5664-.9375-4.4414 3.50781-.97266 1.92188-3.46484-1.92188-1.71094v-104.8086h22.1914v116.66407l-3.10156 3.17187 3.10157 2.95313 3.01953-2.95313-3.01953-3.17187V311.67188h13.3125v113.71484l-3.57031 1.6836 3.5703 2.26952 1.88673-2.26953-1.88672-1.6836V311.67189h8.8789v119.05078l-1.08593.78515 1.08593 2.89453.71094-2.89453-.71094-.78515V311.67187h8.875v145.2461l-2.20312 1.21875 2.20312 1.00781 1.26563-1.00781-1.26563-1.21875v-145.2461h13.31641v144.78516l-3.95703 1.67969-.48047 3.51953-.05078.91797.05078.02734.24219-.02734 4.19531-1.57813 1.73828-2.85937-1.73828-1.67969V311.67188h44.38281v123.72656l-.3711.54687.3711.3789 2.70313 4.0586 1.73437 1.8086 2.11328-1.8086-2.11328-1.91797-3.99219-2.51953-.4453-.54687V311.67188h26.6289v135.05859l-2.6289 2.53125 2.6289 2.58984 2.79687-2.58984-2.79687-2.53125v-135.0586h8.8789v150.16797l-.33203.73438.33204 1.96484.375-1.96484-.375-.73438V311.67188h4.4375v158.92578l-1.05079.85546 1.05079.52735.60546-.52735-.60546-.85546V311.67187h79.88671v168.65625h-74.5703l-.87892-.96484-3.32421.96485H144.0039"/></g><path fill="#50fcfc" fill-rule="evenodd" d="M170.6289 454.57422l-2.10546-.875 2.10547-3.25781 4.4375.05078 2.23828 3.20703-2.23828 2.46484-4.4375-1.58984m17.7539-12.23438l-1.49219-1.95703 1.4922-1.58984.73437-2.84766 3.23047-4.4375.47265-.48828 4.4414-3.4336.66407-.51562 3.77344-2.92578 4.4375-.00781 4.4375-.01563 4.4414-1.44921.03516-.04297 3.60938-4.4375.79297-.85547v4.05078l-1.1211 1.24219-3.3164 3.8164-4.44141.10156-4.4375-.13671-4.4375.02734-.8164.63281-3.6211 2.8164-1.90625 1.6211-2.53516 3.33985-.8711 1.09765.8711 1.64063 4.4414 2.22265 4.4375-.04296 3.94923.61718.48828.17578 4.4375.57422 4.4414.71094 4.4375.82813 4.4375-.25391 4.4375-.53125 4.4375.83594 4.44141-.77344 4.4375.35937 4.4375-.22656 1.69922-1.69922-1.69922-2.23828-2.6211-2.19922-1.8164-1.4961-4.4375.41017-1.10937-3.35157-3.33203-3.51172-2.26563-.92578-2.17188-2.47265-4.4375 1.17578-2.05859-3.14453-2.3789-1.2422v-4.05077l.91015.85547 3.52734 1.78515 4.4375-.88672 2.04688-.89843 2.39063-.9336 4.4414-.77734 1.92188 1.71094-1.92188 3.46484-3.50781.97266.9375 4.4414 2.57031 3.5664.875.8711 3.5625.8125 4.40234 3.625.03516.02735 3.34375 4.41015-3.34375 3.34375-4.4375.08985-4.4375-.04688-4.4414.8711-2.67188.17968-1.76563.42188-.97265-.42188-3.46484-.4336-2.98047.4336-1.45703.67188-1.81641-.67188-2.6211-.39844-4.4414-.67968-4.4375-.36719-4.4375-.80469-4.4375.96094-4.4414.0664-4.4375-1.2578"/><path fill="#00e8fc" fill-rule="evenodd" d="M192.82031 437.58594l-.8711-1.64063.8711-1.09765 2.53516-3.33985 1.90625-1.6211 3.6211-2.8164.8164-.63281v6.01172l-3.80078 3.4961 3.80078 1.78124 3.29297-1.78125-3.29297-3.4961v-6.01171l4.4375-.02734 4.4375.13671 4.4414-.10156 3.31641-3.8164 1.1211-1.2422v4.44923l-1.96485 1.23437 1.96484.26953v3.45313l-1.26562.71484-3.17188 3.76563-.91796.67187.91797.54688.60156-.54688 3.83594-3.28906 1.55468-1.14844-1.55469-.71484v-3.45313l2.30079-.26953-2.30078-1.23437v-4.44922l2.3789 1.24219 2.0586 3.14453 4.4375-1.17578v3.97656l-2.51563 2.9336 2.51563 2.0625 1.46484-2.0625-1.46484-2.9336v-3.97656L230.5 427.0703l2.26563.92578v2.14454l-1.15625 1.36718 1.15625 2.01953 1.29687-2.01953-1.29688-1.36719v-2.14453l3.33204 3.51172 1.10937 3.35156 4.4375-.41015 1.8164 1.4961 2.6211 2.19921 1.69922 2.23828-1.69922 1.69922-4.4375.22656-4.4375-.35937-4.4414.77344-4.4375-.83594-4.4375.53125-4.4375.2539-4.4375-.82812-4.44141-.71094-4.4375-.57422-.48828-.17578-3.94922-.61719-4.4375.04297-4.4414-2.22265"/><path fill="#00d4fc" fill-rule="evenodd" d="M201.69922 437.72656l-3.80078-1.78125 3.80078-3.4961 3.29297 3.4961-3.29297 1.78125m13.3164-1.23437l-.91796-.54688.91797-.67187 3.17187-3.76563 1.26563-.71484 1.55468.71484-1.55469 1.14844-3.83593 3.28906-.60156.54688"/><path fill="#50fcfc" fill-rule="evenodd" d="M219.45313 425.83594l-1.96485 1.23437 1.96484.26953 2.30079-.26953-2.30078-1.23437m8.875 2.73828l-2.51563 2.9336 2.51563 2.0625 1.46484-2.0625-1.46484-2.9336v2.1875l.375.7461-.375.52343-.64063-.52344.64063-.7461v-2.1875"/><path fill="#fff" fill-opacity="0" fill-rule="evenodd" d="M228.32813 430.76172l-.64063.7461.64063.52343.375-.52344-.375-.7461"/><path fill="#00d4fc" fill-rule="evenodd" d="M232.76563 433.52734l-1.15625-2.01953 1.15625-1.36719 1.29687 1.3672-1.29688 2.01952"/><path fill="#50fcfc" fill-rule="evenodd" d="M259.39844 434.46094l-3.10156-2.95313 3.10156-3.17187v2.82031l-.34375.35156.34375.32422.33203-.32422-.33203-.35156v-2.82031l3.01953 3.17187-3.01953 2.95313"/><path fill="#00e8fc" fill-rule="evenodd" d="M259.39844 431.83203l-.34375-.32422.34375-.35156.33203.35156-.33203.32422"/><path fill="#50fcfc" fill-rule="evenodd" d="M272.71094 429.33984l-3.57031-2.26953 3.5703-1.6836 1.88673 1.6836-1.88672 2.26953m8.8789 5.0625l-1.08593-2.89453 1.08593-.78515.71094.78515-.71094 2.89453m8.875 24.7422l-2.20312-1.00782 2.20312-1.21875 1.26563 1.21875-1.26563 1.00781m8.87891 3.45703l-.05078-.02734.05078-.91797.48047-3.51953 3.95703-1.67969 1.73828 1.67969-1.73828 2.85937-4.19531 1.57813-.24219.02734m48.82031-26.27734l-.3711-.3789.3711-.54688.44531.54687 3.9922 2.51953 2.11327 1.91797-2.11328 1.8086-1.73437-1.8086-2.70313-4.0586m26.6289 15.52735l-2.6289-2.58984 2.6289-2.53125 2.79688 2.53125-2.79687 2.58984m8.8789 12.6875l-.33203-1.96484.33204-.73438.375.73438-.375 1.96484m4.4375 7.4414l-1.05079-.52733 1.05079-.85547.60546.85546-.60546.52735"/><g clip-path="url(#c)"><path fill="#50fcfc" fill-rule="evenodd" d="M389.22266 480.32813l3.32421-.96485.87891.96485h-4.20312"/></g><g clip-path="url(#d)"><path fill="#fff" fill-opacity="0" fill-rule="evenodd" d="M467.9961 480.32813H468V311.67188h-.0039H468v168.65625h-.0039"/></g><path fill="#fff" fill-opacity="0" fill-rule="evenodd" d="M244.91406 449.73828l5.375-2.28906-3.90625-9.16406-5.3711 2.28906 3.90235 9.16406"/><path fill-rule="evenodd" d="M244.94922 440.88672l.46875-.19922 2.46484 5.79297-.72265.3086-1.75782-4.13282-1.27734.54688-.21875-.51172.48828-.28125.21094-.14454.17578-.17578.13281-.20703.07813-.26172.01562-.32812-.0586-.40625"/><g clip-path="url(#e)"><path fill="none" stroke="#000" stroke-linecap="round" stroke-linejoin="round" stroke-miterlimit="10" stroke-width=".5" d="M147.03516 482.10156l-6.07032-3.54297"/></g><g clip-path="url(#f)"><path fill="none" stroke="#000" stroke-linecap="round" stroke-linejoin="round" stroke-miterlimit="10" stroke-width=".5" d="M160.4961 481.82031l-6.36329-2.98047"/></g><g clip-path="url(#g)"><path fill="none" stroke="#000" stroke-linecap="round" stroke-linejoin="round" stroke-miterlimit="10" stroke-width=".5" d="M174.0039 481.30469l-6.75-1.94922"/></g><g clip-path="url(#h)"><path fill="none" stroke="#000" stroke-linecap="round" stroke-linejoin="round" stroke-miterlimit="10" stroke-width=".5" d="M173.02344 481.01953l.2539 1.19922"/></g><g clip-path="url(#i)"><path fill="none" stroke="#000" stroke-linecap="round" stroke-linejoin="round" stroke-miterlimit="10" stroke-width=".5" d="M187.39844 480.97266l-6.90625-1.28907"/></g><g clip-path="url(#j)"><path fill="none" stroke="#000" stroke-linecap="round" stroke-linejoin="round" stroke-miterlimit="10" stroke-width=".5" d="M187.39844 480.97266l.73437 2.33984"/></g><g clip-path="url(#k)"><path fill="none" stroke="#000" stroke-linecap="round" stroke-linejoin="round" stroke-miterlimit="10" stroke-width=".5" d="M186.39453 480.78516l.36719 1.17187"/></g><g clip-path="url(#l)"><path fill="none" stroke="#000" stroke-linecap="round" stroke-linejoin="round" stroke-miterlimit="10" stroke-width=".5" d="M200.77344 480.44531l-7.02344-.23047"/></g><g clip-path="url(#m)"><path fill="none" stroke="#000" stroke-linecap="round" stroke-linejoin="round" stroke-miterlimit="10" stroke-width=".5" d="M200.77344 480.44531l1.07812 2.20313"/></g><g clip-path="url(#n)"><path fill="none" stroke="#000" stroke-linecap="round" stroke-linejoin="round" stroke-miterlimit="10" stroke-width=".5" d="M214.08984 480.3164l-7.02734.02344"/></g><g clip-path="url(#o)"><path fill="none" stroke="#000" stroke-linecap="round" stroke-linejoin="round" stroke-miterlimit="10" stroke-width=".5" d="M214.08984 480.3164l1.16016 2.16016"/></g><g clip-path="url(#p)"><path fill="none" stroke="#000" stroke-linecap="round" stroke-linejoin="round" stroke-miterlimit="10" stroke-width=".5" d="M227.39063 480.61328l-7.00391-.57031"/></g><g clip-path="url(#q)"><path fill="none" stroke="#000" stroke-linecap="round" stroke-linejoin="round" stroke-miterlimit="10" stroke-width=".5" d="M227.39063 480.61328l.97265 2.2539"/></g><g clip-path="url(#r)"><path fill="none" stroke="#000" stroke-linecap="round" stroke-linejoin="round" stroke-miterlimit="10" stroke-width=".5" d="M240.63672 481.08203l-6.86328-1.50781"/></g><g clip-path="url(#s)"><path fill="none" stroke="#000" stroke-linecap="round" stroke-linejoin="round" stroke-miterlimit="10" stroke-width=".5" d="M240.63672 481.08203l.66016 2.36328"/></g><g clip-path="url(#t)"><path fill="none" stroke="#000" stroke-linecap="round" stroke-linejoin="round" stroke-miterlimit="10" stroke-width=".5" d="M253.99219 480.86328l-6.94531-1.07031"/></g><g clip-path="url(#u)"><path fill="none" stroke="#000" stroke-linecap="round" stroke-linejoin="round" stroke-miterlimit="10" stroke-width=".5" d="M253.99219 480.86328l.8086 2.3164"/></g><g clip-path="url(#v)"><path fill="none" stroke="#000" stroke-linecap="round" stroke-linejoin="round" stroke-miterlimit="10" stroke-width=".5" d="M267.30078 480.92188l-6.92969-1.1836"/></g><g clip-path="url(#w)"><path fill="none" stroke="#000" stroke-linecap="round" stroke-linejoin="round" stroke-miterlimit="10" stroke-width=".5" d="M267.30078 480.92188l.76953 2.32812"/></g><g clip-path="url(#x)"><path fill="none" stroke="#000" stroke-linecap="round" stroke-linejoin="round" stroke-miterlimit="10" stroke-width=".5" d="M280.66406 480.20703l-7.02344.24219"/></g><g clip-path="url(#y)"><path fill="none" stroke="#000" stroke-linecap="round" stroke-linejoin="round" stroke-miterlimit="10" stroke-width=".5" d="M280.66406 480.20703l1.22266 2.125"/></g><g clip-path="url(#z)"><path fill="none" stroke="#000" stroke-linecap="round" stroke-linejoin="round" stroke-miterlimit="10" stroke-width=".5" d="M293.91016 479.64453l-6.89063 1.3711"/></g><g clip-path="url(#A)"><path fill="none" stroke="#000" stroke-linecap="round" stroke-linejoin="round" stroke-miterlimit="10" stroke-width=".5" d="M293.91016 479.64453l1.55468 1.89844"/></g><g clip-path="url(#B)"><path fill="none" stroke="#000" stroke-linecap="round" stroke-linejoin="round" stroke-miterlimit="10" stroke-width=".5" d="M307.26563 479.8711l-6.96875.91406"/></g><g clip-path="url(#C)"><path fill="none" stroke="#000" stroke-linecap="round" stroke-linejoin="round" stroke-miterlimit="10" stroke-width=".5" d="M307.26563 479.8711l1.42187 2"/></g><g clip-path="url(#D)"><path fill="none" stroke="#000" stroke-linecap="round" stroke-linejoin="round" stroke-miterlimit="10" stroke-width=".5" d="M320.59375 480.64063l-6.9961-.6211"/></g><g clip-path="url(#E)"><path fill="none" stroke="#000" stroke-linecap="round" stroke-linejoin="round" stroke-miterlimit="10" stroke-width=".5" d="M319.57813 480.55078l.47656 1.1289"/></g><g clip-path="url(#F)"><path fill="none" stroke="#000" stroke-linecap="round" stroke-linejoin="round" stroke-miterlimit="10" stroke-width=".5" d="M333.92578 480.30078l-7.02734.0586"/></g><g clip-path="url(#G)"><path fill="none" stroke="#000" stroke-linecap="round" stroke-linejoin="round" stroke-miterlimit="10" stroke-width=".5" d="M332.90234 480.3086l.58594 1.07812"/></g><g clip-path="url(#H)"><path fill="none" stroke="#000" stroke-linecap="round" stroke-linejoin="round" stroke-miterlimit="10" stroke-width=".5" d="M347.23438 480.52344l-7.01563-.38672"/></g><g clip-path="url(#I)"><path fill="none" stroke="#000" stroke-linecap="round" stroke-linejoin="round" stroke-miterlimit="10" stroke-width=".5" d="M346.21484 480.46484l.51563 1.11328"/></g><g clip-path="url(#J)"><path fill="none" stroke="#000" stroke-linecap="round" stroke-linejoin="round" stroke-miterlimit="10" stroke-width=".5" d="M360.44922 481.17969l-6.8164-1.70313"/></g><g clip-path="url(#K)"><path fill="none" stroke="#000" stroke-linecap="round" stroke-linejoin="round" stroke-miterlimit="10" stroke-width=".5" d="M359.45703 480.9336l.29688 1.1914"/></g><g clip-path="url(#L)"><path fill="none" stroke="#000" stroke-linecap="round" stroke-linejoin="round" stroke-miterlimit="10" stroke-width=".5" d="M373.57031 481.7461l-6.42969-2.83594"/></g><g clip-path="url(#M)"><path fill="none" stroke="#000" stroke-linecap="round" stroke-linejoin="round" stroke-miterlimit="10" stroke-width=".5" d="M387.08594 481.15234l-6.83203-1.64453"/></g><g clip-path="url(#N)"><path fill="none" stroke="#000" stroke-linecap="round" stroke-linejoin="round" stroke-miterlimit="10" stroke-width=".5" d="M400.42969 481.03516l-6.88672-1.41407"/></g><g clip-path="url(#O)"><path fill="none" stroke="#000" stroke-linecap="round" stroke-linejoin="round" stroke-miterlimit="10" stroke-width=".5" d="M410.40234 476.8164l-.20312 7.02344"/></g><path fill="none" stroke="#000" stroke-linecap="round" stroke-linejoin="round" stroke-miterlimit="10" stroke-width=".5" d="M410.3711 477.83984l1.10156-.54687"/><g clip-path="url(#P)"><path fill="none" stroke="#000" stroke-linecap="round" stroke-linejoin="round" stroke-miterlimit="10" stroke-width=".5" d="M424.03906 476.83984l-.84375 6.97657"/></g><path fill="none" stroke="#000" stroke-linecap="round" stroke-linejoin="round" stroke-miterlimit="10" stroke-width=".5" d="M423.91406 477.85547l1.14453-.4414"/><g clip-path="url(#Q)"><path fill="none" stroke="#000" stroke-linecap="round" stroke-linejoin="round" stroke-miterlimit="10" stroke-width=".5" d="M438.69531 477.28906l-3.52734 6.07813"/></g><path fill="none" stroke="#000" stroke-linecap="round" stroke-linejoin="round" stroke-miterlimit="10" stroke-width=".5" d="M438.1836 478.17578l1.22656.04688"/><g clip-path="url(#R)"><path fill="none" stroke="#000" stroke-linecap="round" stroke-linejoin="round" stroke-miterlimit="10" stroke-width=".5" d="M452.10938 477.34766l-3.72266 5.96093"/></g><path fill="none" stroke="#000" stroke-linecap="round" stroke-linejoin="round" stroke-miterlimit="10" stroke-width=".5" d="M451.5664 478.21484l1.22266.08594"/><g clip-path="url(#S)"><path fill="none" stroke="#000" stroke-linecap="round" stroke-linejoin="round" stroke-miterlimit="10" stroke-width=".5" d="M466.48047 478.375l-5.83985 3.91016"/></g><g clip-path="url(#T)"><path fill="none" stroke="#000" stroke-linecap="round" stroke-linejoin="round" stroke-miterlimit="10" stroke-width=".5" d="M146.99219 468.85547l-5.98438-3.6836"/></g><path fill="none" stroke="#000" stroke-linecap="round" stroke-linejoin="round" stroke-miterlimit="10" stroke-width=".5" d="M146.99219 468.85547l-.15625 2.44922m13.26172-2.14453l-5.56641-4.29297m5.5664 4.29297l-.41015 2.41796m13.92969-2.71093l-5.97266-3.70703m5.97266 3.70703l-.16406 2.44531m13.8164-3.16406l-6.64844-2.26953m6.64844 2.26953l.39063 2.42187m13.07422-3.03515l-6.94922-1.04297m6.94922 1.04297l.8164 2.3125m-1.82812-2.46485l.41015 1.15625m13.95313-1.61328l-7.02344.17578m7.02344-.17578l1.20703 2.14063m-2.22656-2.11329l.60156 1.06641m13.73437-1.14062l-7.02343.26953m7.02343-.26953L228.63672 469m-2.25781-2.08203l.61718 1.0586m13.72266-.83985l-7.02344-.2461m7.02344.2461l1.07422 2.20312m12.16016-1.5703l-6.86329-1.51173m6.86328 1.51172l.66016 2.36328m12.64063-2.30469l-6.83594-1.6289m6.83594 1.6289l.61718 2.375m12.77344-3.55078l-6.98828.72266m6.98828-.72266l1.36719 2.03907m11.91406-2.29688l-6.91797 1.23828m6.91797-1.23828l1.51563 1.92969m11.78125-2.01953l-6.88282 1.41797m6.88282-1.41797l1.5664 1.89062m-2.5664-1.6836l.78125.94532m13.55078-1.0625l-6.91797 1.23828m6.91797-1.23828l1.51562 1.92578m11.71875-2.26953l-6.75781 1.92578m6.75781-1.92578l1.70313 1.76953m11.54687-1.97265l-6.6289 2.33203m5.66797-1.99219l.90234.83203m13.24219-1.5l-6.36328 2.98828m5.4375-2.55078l.98046.73438m11.47657-2.90235l-2.79688 6.44922m11.20313-3.28906l7.02343.1289m9.88672-3.57812l-.16797 7.02734m.14063-6.0039l1.09766-.55078m13.1328-.33594l-1.9453 6.7539m1.66406-5.76953l1.19922-.2539m11.22265-.85938l.40235 7.01172m-.40235-7.01172l2.09766-1.27734m11.90234 1.30469l-.96484 6.95703m.96484-6.95703l2.30469-.84375m11.88672 1.08203l-2.71875 6.48047m2.32422-5.53907l1.21875-.10937m13.625-.07031l-4.98438 4.95703m4.25782-4.23438l1.17187.36328"/><g clip-path="url(#U)"><path fill="none" stroke="#000" stroke-linecap="round" stroke-linejoin="round" stroke-miterlimit="10" stroke-width=".5" d="M147 455.52734l-6-3.65625"/></g><path fill="none" stroke="#000" stroke-linecap="round" stroke-linejoin="round" stroke-miterlimit="10" stroke-width=".5" d="M147 455.52734l-.14063 2.44922m13.50391-2.53125l-6.09766-3.49219m6.09766 3.4922l-.07422 2.45312m13.19922-2.15625l-5.71875-4.08594m5.71875 4.08594l-.32031 2.42968m13.47656-2.22656l-5.39844-4.4961m4.61328 3.84376l-.25 1.19922m15.03125-1.83985l-6.76171-1.91015m6.76172 1.91015l.51953 2.39844m12.90625-2.94531l-6.98047-.8125m6.98047.8125l.89062 2.28515m12.44531-2.6914H220.375m7.02734 0l1.15235 2.16406m12.125-1.64453l-6.94922-1.03906m6.94922 1.03906l.82031 2.3125m12.51172-3.23047l-6.98047.79688m6.98047-.79688l1.39062 2.02344m11.86328-.85938l-6.85937-1.53125m6.85938 1.53125l.65234 2.3672m12.71094-2.64845l-6.95704-.96875m6.95704.96875l.84375 2.3047m12.5039-2.8672l-7.02343.15625m7.02343-.15625l1.20313 2.14063m12.0664-2.64063l-6.92968 1.15625m6.92968-1.15625l1.4922 1.94922m11.6914-2.48437l-6.66797 2.22265m6.66797-2.22265l1.77734 1.6914m11.4961-1.80859l-6.58204 2.46094m5.625-2.10156l.91797.8125m12.91797-1.98829l-5.71094 4.09375m4.87891-3.5l1.10156.54688m11.78516-2.22656l-3.1914 6.26172m3.1914-6.26172l2.45312-.04297m9.05079-.33203l.42968 7.01562m-.36718-5.9961l1.04687-.64062m14.21484.10547l-3.58593 6.04297m3.0625-5.16406l1.22656.0586m12.30078-1.10157l-2.96484 6.3711m2.53125-5.44141l1.22656-.06641m12.98047-.60547l-3.88281 5.85547m3.3203-5.0039l1.21876.12109m12.27344-1.19531l-3.10938 6.30078m2.65625-5.38282l1.22656-.03515m8.70313-.40235l4.5664 5.34375m7.57032-2.05859l6.92187-1.22656m-5.91406 1.04687l-.7539-.96484m19.8828-.4961l-6.72265 2.05079"/><g clip-path="url(#V)"><path fill="none" stroke="#000" stroke-linecap="round" stroke-linejoin="round" stroke-miterlimit="10" stroke-width=".5" d="M466.92188 452.67188l1.73437 1.73828"/></g><g clip-path="url(#W)"><path fill="none" stroke="#000" stroke-linecap="round" stroke-linejoin="round" stroke-miterlimit="10" stroke-width=".5" d="M146.63281 442.70703l-5.26562-4.64844"/></g><path fill="none" stroke="#000" stroke-linecap="round" stroke-linejoin="round" stroke-miterlimit="10" stroke-width=".5" d="M146.63281 442.70703l-.5664 2.38672m13.55078-2.05469l-4.60547-5.3086m4.60547 5.3086l-.88281 2.28906m14.03906-2.16015l-4.28516-5.57031m4.28516 5.5703l-1.01563 2.23438m13.78906-1.89062l-3.20312-6.2539m2.73828 5.34374l-.69922 1.0039m14.14453.0547l-2.53515-6.5547m2.16797 5.60157l-.80078.92969m16.01171-1.125l-5.59375-4.2539m4.78125 3.6328l-.19922 1.21094m14.00391-.21875l-4.94531-4.9961m4.22656 4.26563l-.36719 1.17188m15.03516-1.30078l-6.21484-3.27735m5.3125 2.80078l.0039 1.22657m14.60547-2.08594l-7-.60938m5.98438.52344l.47656 1.1289m13.86719-1.4375l-7.02344.1797m7.02344-.1797l1.20703 2.13673m12.05078-1.40235l-6.91016-1.28515m6.91016 1.28515l.73437 2.33985m12.54688-3.78907l-6.83984 1.60938m6.83984-1.60938l1.61719 1.84766m11.73047-1.67969l-6.91016 1.27344m6.91016-1.27344l1.52734 1.92188m11.63672-2.48438l-6.60547 2.39844m6.60547-2.39844l1.82031 1.64453m11.41797-1.83593l-6.45313 2.78125m5.51563-2.375l.95703.76562m12.78125-2.01562l-5.42187 4.47265m4.6328-3.82422l1.13282.46875m11.38672-2.21093l-2.2539 6.65625m1.92577-5.6875l1.21094-.19922m10.26953-.79688l2.07032 6.71485m-2.07032-6.71485l1.73438-1.74218m10.90234 8.16796l3.42578-6.13671m-2.92578 5.24218l-1.22656-.02343M400.5 440.42187l-7.02734-.07812m6.0039.0664l.5664 1.08985m13.76954-1.20703l-7.02344.17969m6.0039-.15235l.60157 1.0664m13.70313-1.48046l-6.96094.95312m6.96094-.95312l1.43359 1.99219m11.88281-1.98828l-6.96484.94921m6.96484-.94921l1.4336 1.98828M453.75 440.1289l-7.00781.51171m7.00781-.51171l1.3086 2.07421m11.84374-2.90234l-6.68359 2.16797"/><g clip-path="url(#X)"><path fill="none" stroke="#000" stroke-linecap="round" stroke-linejoin="round" stroke-miterlimit="10" stroke-width=".5" d="M466.90234 439.30078l1.76563 1.70313"/></g><g clip-path="url(#Y)"><path fill="none" stroke="#000" stroke-linecap="round" stroke-linejoin="round" stroke-miterlimit="10" stroke-width=".5" d="M146.51172 429.52734l-5.02344-4.91797"/></g><path fill="none" stroke="#000" stroke-linecap="round" stroke-linejoin="round" stroke-miterlimit="10" stroke-width=".5" d="M146.51172 429.52734l-.6914 2.35157m13.51952-1.9375l-4.05078-5.7422m4.05078 5.7422l-1.10547 2.1875m14.2422-2.07032l-3.69141-5.98047m3.6914 5.98047l-1.23828 2.1172m14.16016-1.91017l-2.90625-6.39453m2.90625 6.39453l-1.4961 1.94532m14.33594-1.76953l-1.95703-6.7461m1.67188 5.76563l-.87891.85547m15.7461-.54297l-4.48829-5.41016m3.83203 4.6211l-.46484 1.13671m13.5664.1797l-2.75-6.46485m16.78516 6.05468l-4.1914-5.64453m3.58203 4.82422l-.52735 1.10547m14.2461-.14453l-3.78125-5.92578m3.23437 5.0625l-.60547 1.07031m10.34766-.45703l4.46094-5.42578m-3.8125 4.63672l-1.20313-.24219m19.60938-1.52734l-7.01954-.3086m6 .26172l.52735 1.10938m13.79687-.89063l-6.99609-.65234m5.97656.5586l.47266 1.1289m13.8086-.66407l-6.89063-1.39453m5.88672 1.19141l.35156 1.17578m12.48437-4.58594l-3.92578 5.83203m3.92578-5.83203l2.4375.25391m11.7422.57422l-5.65235 4.17578m5.65234-4.17578l2.21484 1.0586m11.44141-.48829l-6.33594 3.03516m6.33594-3.03516l1.97656 1.45703m11.44141-1.22656l-6.53906 2.57422m5.58593-2.19922l.9336.79687m11.76562-2.95703l-3.40625 6.14453m2.91016-5.25l1.22656.01954m11.77344-1.2422l-1.78125 6.80079m1.78125-6.80078l2.38672-.5625m13.4961 3.34765l-6.91798 1.23047m6.91797-1.23047l1.51172 1.9336m-2.51953-1.7539l.75781.96484m13.46875-1.54688l-6.72656 2.03516m6.72656-2.03516l1.73047 1.74219m-2.70703-1.44531l.86328.87109m13.26563-1.60547l-6.39844 2.91016m6.39844-2.91016l1.9453 1.4961m-2.8789-1.07032l.97266.7461m13.1914-1.34375l-6.23046 3.2539m6.23046-3.2539l2.02344 1.38671m-2.92969-.91406l1.01172.69531m13.2461-1.09375l-6.30469 3.10547m6.30469-3.10547l1.99218 1.4336m11.23438-1.60156l-6.1289 3.4414"/><g clip-path="url(#Z)"><path fill="none" stroke="#000" stroke-linecap="round" stroke-linejoin="round" stroke-miterlimit="10" stroke-width=".5" d="M466.625 425.34766l2.0664 1.32812"/></g><g clip-path="url(#aa)"><path fill="none" stroke="#000" stroke-linecap="round" stroke-linejoin="round" stroke-miterlimit="10" stroke-width=".5" d="M146.65625 416.05078l-5.3125-4.59765"/></g><path fill="none" stroke="#000" stroke-linecap="round" stroke-linejoin="round" stroke-miterlimit="10" stroke-width=".5" d="M145.88281 415.38281l-.27344 1.19531m12.8125.51172l-2.21093-6.67187m1.88672 5.69922l-.84766.88672m14.21875.16015l-1.67578-6.82422m1.42969 5.83203l-.91407.82032m13.9336.26172l-.59375-7m.50781 5.98047l-1.03125.66796m17.0586-1.20312l-5.84766-3.89453m14.45703 4.97656l3.5625-6.05469m-3.04297 5.17578l-1.22656-.05468m15.3125 1.3828l.98437-6.95702m-.83984 5.94531l-1.15625.42187m17.20703-.30859l-4.77734-5.15625m4.08203 4.40625l-.40235 1.15625m14.41407-.41016l-4.78125-5.14843m4.78125 5.14843l-.80078 2.31641m14.29296-2.49219l-5.1328-4.80078m5.1328 4.80078l-.64062 2.3711m14.21484-2.6836l-5.65234-4.17187m4.83203 3.5625l-.17969 1.21484m14.91406-1.90625l-6.85156-1.57031m6.85156 1.57031l.64063 2.36719m12.76172-3.30078l-7.02344.29687m7.02344-.29687l1.23828 2.11719m11.88281-3.125l-6.63672 2.3125m6.63672-2.3125l1.80078 1.66406m11.71094-.47656l-7.02734-.0625m6.0039.05468l.56641 1.08594m13.76953-1.17187l-7.02344.12109m7.02344-.1211l1.1914 2.14844M360.5 413.13672l-6.91797 1.23437m6.91797-1.23437l1.51563 1.9336m11.46484-2.92579l-6.25 3.21875m6.25-3.21875l2.01562 1.39844m10.82422-2.09766l-5.30078 4.61328m5.30078-4.61328l2.29297.8789m11.53125-.10937l-6.3164 3.07422m6.3164-3.07422l1.98438 1.44532m-2.90235-.9961l.99219.72266m13.21484-1.22656l-6.26562 3.1875m6.26562-3.1875l2.00782 1.41015m-2.91797-.94531l1.0039.70313m13.33594-.91797l-6.49219 2.6875m6.4922-2.6875l1.89452 1.55859m11.55078-1.17969l-6.7539 1.92969m6.7539-1.92969l1.70313 1.76563m11.35156-2.42578l-6.23047 3.25m6.23047-3.25l2.02344 1.38672m-2.9336-.91407l1.01563.6914m12.19922-2.35155l-4.21094 5.625"/><g clip-path="url(#ab)"><path fill="none" stroke="#000" stroke-linecap="round" stroke-linejoin="round" stroke-miterlimit="10" stroke-width=".5" d="M465.66797 410.9414l2.42578.375"/></g><path fill="none" stroke="#000" stroke-linecap="round" stroke-linejoin="round" stroke-miterlimit="10" stroke-width=".5" d="M465.05469 411.75781l1.21094.1914"/><g clip-path="url(#ac)"><path fill="none" stroke="#000" stroke-linecap="round" stroke-linejoin="round" stroke-miterlimit="10" stroke-width=".5" d="M147.42969 401.19922l-6.85938-1.52344"/></g><path fill="none" stroke="#000" stroke-linecap="round" stroke-linejoin="round" stroke-miterlimit="10" stroke-width=".5" d="M146.4336 400.98047l.32421 1.17969m13.98438-2.50391l-6.85156 1.5625m19.58203-2.84375l-5.6875 4.125m18.02734-5.03906l-3.73438 5.95312m14.11329.3711l2.13672-6.69532m11.19921 6.70313l2.09766-6.70703m-1.79297 5.73047l-1.20703.22656m18.71875-3.2461l-6.90625 1.28516m5.90234-1.09765l.76563.95703m13.34766.84375l-6.4922-2.69141m5.54688 2.29688l.11719 1.22265m13.86328-.29297l-5.9375-3.76172m5.07422 3.21485l-.09375 1.22265m14.66016-1.51171l-6.71094-2.08985m5.73437 1.78516l.22657 1.20312m14.12109-1.10156l-6.82422-1.6836m6.82422 1.6836l.59766 2.3789m12.8125-3.03906l-7.01563-.36718m7.01563.36718l1.03906 2.22657m12.27344-2.66016l-7.00782.5m5.98829-.42578l.65234 1.03906m13.64844-1.40234l-6.94141 1.07812m6.9414-1.07812l1.47266 1.96484m11.83203-2.03906l-6.91796 1.22656m6.91796-1.22656l1.51172 1.9336m11.85157-1.125l-7.01563-.38673m7.01563.38672l1.03125 2.22656m12.28906-2.37109l-7.02735-.10156m6.00391.08594l.5625 1.09375m13.7539-1.52735l-6.98046.80078m6.98047-.80078l1.39062 2.01953m11.30469-3.64453l-5.74219 4.04688m5.74219-4.04688l2.1914 1.10938m11.56641-.2539l-6.6289 2.33593m6.6289-2.33594l1.80469 1.66016m11.58203-1.42188l-6.77344 1.86328m6.77344-1.86328l1.6875 1.78125m-2.67187-1.51172l.84375.89063m13.34765-1.4961l-6.55469 2.53516m6.5547-2.53515l1.85546 1.60546m11.26953-2.01171l-6.17969 3.34375m6.1797-3.34375l2.04687 1.35546m11.3789-1.13671l-6.39843 2.91015m6.39843-2.91015l1.94532 1.49218m-2.875-1.07031l.97265.7461m13.03516-1.60548l-5.92188 3.78125"/><g clip-path="url(#ad)"><path fill="none" stroke="#000" stroke-linecap="round" stroke-linejoin="round" stroke-miterlimit="10" stroke-width=".5" d="M466.52344 398.54688l2.13672 1.20703"/></g><path fill="none" stroke="#000" stroke-linecap="round" stroke-linejoin="round" stroke-miterlimit="10" stroke-width=".5" d="M465.66016 399.09766l1.0703.60156"/><g clip-path="url(#ae)"><path fill="none" stroke="#000" stroke-linecap="round" stroke-linejoin="round" stroke-miterlimit="10" stroke-width=".5" d="M147.3789 388.08594l-6.7578-1.92188"/></g><path fill="none" stroke="#000" stroke-linecap="round" stroke-linejoin="round" stroke-miterlimit="10" stroke-width=".5" d="M147.3789 388.08594l.51563 2.39844m12.91797-3.71094l-6.99219.69922m6.99219-.69922l1.35938 2.04297m11.96093-1.96094l-7.0039.53906m7.0039-.53906l1.3164 2.07031m-2.33593-1.99219l.65625 1.03516m13.53906-1.85547l-6.72656 2.01953m6.72656-2.01953l1.72657 1.74219m9.58984 2.5039l-2.73047-6.47265m2.33203 5.53125l-.77344.95312m16.33594-1.83203l-6.42969-2.83203m6.4297 2.83203l.18359 2.44922m13.42968-3.92187l-7.02343.11718m6.0039-.10156l.59375 1.07422m13.65625-.2539l-6.85156-1.5586m5.85156 1.33203l.32422 1.1836m13.74219-.23829l-6.35547-2.99609m5.42969 2.5586l.0586 1.22656m14.49608-1.91407l-6.98828-.74218m6.98828.74218l.91797 2.27344m12.41797-2.64453h-7.02734m7.02734 0l1.15235 2.16406m12.16015-2.3164l-7.01953.30078m7.01953-.30078l1.24219 2.11718m12.07422-1.90625l-7.02344-.12109m7.02344.1211l1.11328 2.1875m12.10547-3.07032l-6.83203 1.64453m6.83203-1.64453l1.6289 1.83594m11.76563-1.36719l-6.99219.71094m6.99219-.71094l1.36719 2.03516m11.96484-1.82031l-7.02344.28125m6-.2422l.6172 1.0586m13.67187-1.5586l-6.92579 1.19923m6.92579-1.19922l1.5039 1.9375m11.53516-2.8125l-6.375 2.94922m6.375-2.94922L375.5 387.1289m-2.88281-1.05079l.97656.73829m12.88281-1.8086l-5.61328 4.23047m5.61328-4.23047l2.22266 1.03906m-3.03906-.42187l1.11328.51953m13.30078-.69922l-6.17578 3.35547m6.17578-3.35547l2.04687 1.35547m-2.9453-.86719l1.02343.6797m13.26953-1.01173l-6.33594 3.04297m6.33594-3.04297l1.97656 1.45313m-2.89844-1.01172l.98829.72656m13.09765-1.44531l-6.03515 3.59765m6.03515-3.59765l2.10156 1.26953m11.20704-1.28516l-6.01954 3.62891m6.01954-3.6289l2.10546 1.26171m11.31641-1.0664l-6.23437 3.23828m6.23437-3.23828l2.02344 1.39062m-2.92969-.92187l1.01172.6953m13.28125-1.02343l-6.375 2.95703"/><g clip-path="url(#af)"><path fill="none" stroke="#000" stroke-linecap="round" stroke-linejoin="round" stroke-miterlimit="10" stroke-width=".5" d="M466.75 385.64453l1.95703 1.48047"/></g><path fill="none" stroke="#000" stroke-linecap="round" stroke-linejoin="round" stroke-miterlimit="10" stroke-width=".5" d="M465.82031 386.07422l.98047.74219"/><g clip-path="url(#ag)"><path fill="none" stroke="#000" stroke-linecap="round" stroke-linejoin="round" stroke-miterlimit="10" stroke-width=".5" d="M147.00781 375.6211l-6.01562-3.625"/></g><path fill="none" stroke="#000" stroke-linecap="round" stroke-linejoin="round" stroke-miterlimit="10" stroke-width=".5" d="M147.00781 375.6211l-.1289 2.44921m13.65625-2.85547l-6.44141-2.8125m6.4414 2.8125l.1875 2.44532m13.36329-4.48829l-6.91016 1.27344m6.91016-1.27344l1.52344 1.92188m11.72656-2.21484l-6.78125 1.85546m6.78125-1.85546l1.67969 1.78515m11.6289-1.80469l-6.76562 1.89844m6.76562-1.89844l1.69531 1.77344m11.73047-.45703l-6.98828-.73437m6.98828.73437l.91797 2.27344m12.40625-2.90235l-7.00781.52344m7.00781-.52344l1.3086 2.07422m11.9453-1.12109l-6.88671-1.38672m6.88672 1.38672l.70312 2.35156m12.48438-1.88281l-6.63281-2.32031m6.6328 2.32031l.375 2.42188m13.03516-2.7422l-6.8203-1.67968m6.8203 1.67969l.60157 2.3789m12.73046-2.44921l-6.85546-1.54297m6.85547 1.54296l.64843 2.3672m12.71875-2.66407l-6.96094-.94922m6.96094.94922l.85156 2.30469m12.47657-2.41016l-6.98828-.73437m6.98828.73437l.92187 2.27735m12.41406-2.64454h-7.02734m7.02735 0l1.15234 2.16797m12.16015-2.29297l-7.02343.25m7.02344-.25l1.22656 2.125m-2.2461-2.08984l.61329 1.0625m13.68359-1.4961l-6.94922 1.04688m6.94922-1.04687l1.46094 1.97265m-2.46875-1.82031l.73046.98438m13.55079-1.3711l-6.86329 1.51563m6.86329-1.51563l1.59375 1.86328m-2.59375-1.64453l.79687.9336m13.41406-1.52344l-6.65625 2.2539m6.65625-2.2539l1.78516 1.6836m-2.7539-1.35548l.89452.84375m13.02344-1.9375l-5.92187 3.78516m5.92187-3.78516l2.13672 1.20703m-3-.65625l1.07031.60547m13.07813-1.19922l-5.86328 3.875m5.86328-3.875l2.15625 1.17188m-3.00781-.60938l1.07421.58985m13.23829-.91406l-6.15235 3.39843m6.15235-3.39844l2.05468 1.33985m-2.95312-.84375l1.03125.66797m13.30469-.91797l-6.39844 2.90234m6.39844-2.90234l1.9453 1.5m-2.875-1.07422l.96876.7461m13.07812-1.54688l-6.0039 3.65625m6.0039-3.65625l2.10938 1.25m-2.98438-.71875l1.0547.625m13.25-.94922l-6.23438 3.24219m6.23437-3.24219l2.02344 1.39063m-2.92969-.91797l1.01172.6953m13.30469-.97265l-6.42188 2.85156"/><g clip-path="url(#ah)"><path fill="none" stroke="#000" stroke-linecap="round" stroke-linejoin="round" stroke-miterlimit="10" stroke-width=".5" d="M466.77344 372.38281l1.92969 1.51172"/></g><g clip-path="url(#ai)"><path fill="none" stroke="#000" stroke-linecap="round" stroke-linejoin="round" stroke-miterlimit="10" stroke-width=".5" d="M145.94922 363.41797l-3.89844-5.84766"/></g><path fill="none" stroke="#000" stroke-linecap="round" stroke-linejoin="round" stroke-miterlimit="10" stroke-width=".5" d="M145.94922 363.41797l-1.16406 2.16015m15.1328-2.72265l-5.20312-4.72266m5.20313 4.72266l-.60547 2.3789m14.82813-4.90625l-7.01954.32813m7.01953-.32813l1.25 2.11329m12.03125-2.46875l-6.95312 1.04296m6.95313-1.04296l1.45703 1.97265m11.8164-2.1875l-6.8711 1.46875m6.8711-1.46875l1.58203 1.8789m11.8125-1.09765l-7.02734-.09375m7.02734.09375l1.1211 2.1836m12.1875-2.4297l-7.01563.39845m7.01563-.39844l1.27344 2.09765m12.04296-1.75l-7.01953-.29296m7.01953.29296l1.0625 2.21094m-2.08203-2.2539l.53125 1.10546m13.70313-.35546l-6.8164-1.70704m6.8164 1.70704l.58984 2.3828m-1.58203-2.6328l.29297 1.1914m14.05469-1.1289l-6.89844-1.33594m6.89844 1.33594l.71875 2.34765m12.46484-4.17187l-6.63672 2.3125m6.63672-2.3125l1.80078 1.66797m11.64453-1.19141l-6.89453 1.35938m6.89453-1.35938l1.54688 1.90234m11.82031-1.5039l-7.0039.5625m7.0039-.5625l1.32422 2.07031m11.9961-2.03125l-7.01173.48828m7.01172-.48828l1.30078 2.07813m12.02344-1.83594h-7.02734m7.02734 0l1.15235 2.16797m12.16015-2.1875l-7.02734.03906m7.02734-.03906l1.16406 2.16015m-2.18359-2.15234l.58203 1.07812m13.65625-1.88671l-6.83203 1.64453m6.83203-1.64454l1.6289 1.83594m-2.62109-1.59765l.8125.91796m13.4336-1.375L367 361.53125m6.71094-2.07813l1.74219 1.73047m-2.71875-1.42578l.87109.86328m13.21484-1.6875l-6.29687 3.1172m6.29687-3.1172l1.99219 1.4297m-2.91016-.97657l1 .71484m13.23829-1.16015l-6.3086 3.10156m6.3086-3.10156l1.98828 1.4375m-2.90625-.98438l.99218.71485m13.40625-.77344l-6.63671 2.3125m6.63671-2.3125l1.79688 1.66797m-2.76563-1.33204l.90235.83594m13.46094-.91015l-6.79688 1.79296m6.79688-1.79296l1.66406 1.80078m-2.65625-1.53906l.83594.89843m13.41796-1.33984l-6.6914 2.14844m6.6914-2.14844l1.75782 1.71094m-2.73047-1.39844l1.75781 1.71094m12.42578-2.3047l-6.48437 2.71095m6.48437-2.71094l1.89844 1.55469m-2.84375-1.16016l.94922.77734m13.35937-1.05078l-6.57812 2.46875"/><g clip-path="url(#aj)"><path fill="none" stroke="#000" stroke-linecap="round" stroke-linejoin="round" stroke-miterlimit="10" stroke-width=".5" d="M466.85156 359.25781l1.83985 1.625"/></g><path fill="none" stroke="#000" stroke-linecap="round" stroke-linejoin="round" stroke-miterlimit="10" stroke-width=".5" d="M465.89453 359.61719l.91797.8125"/><g clip-path="url(#ak)"><path fill="none" stroke="#000" stroke-linecap="round" stroke-linejoin="round" stroke-miterlimit="10" stroke-width=".5" d="M144.97656 350.55469l-1.95312-6.75"/></g><g clip-path="url(#al)"><path fill="none" stroke="#000" stroke-linecap="round" stroke-linejoin="round" stroke-miterlimit="10" stroke-width=".5" d="M144.97656 350.55469l-1.75781 1.70703"/></g><path fill="none" stroke="#000" stroke-linecap="round" stroke-linejoin="round" stroke-miterlimit="10" stroke-width=".5" d="M158.88281 350.32422l-3.13281-6.29297m3.13281 6.29297l-1.42578 1.9961m16.46875-3.92579l-6.59375-2.4336m6.59375 2.4336l.33203 2.42969m13.19531-3.45313l-7.01562-.38671m7.01563.38671l1.03125 2.22657m12.28906-2.41797h-7.02735m7.02735 0l1.15234 2.16406m12.15625-2.39063l-7.01172.44922m7.01172-.44921l1.28906 2.08984m-2.30859-2.02344l.64453 1.04297m13.69531-.98828l-7.02343.20703m7.02343-.20703l1.21485 2.13281m-2.23828-2.10156l.60937 1.0664m13.67969-1.58984l-6.92578 1.19531m6.92578-1.1953l1.5039 1.9375m-2.51171-1.76563l.7539.96875m13.60938-.28125l-7.00781-.52344m7.0078.52344l.98829 2.24609m12.33594-2.46484l-7.02344-.08985m7.02344.08985l1.125 2.17968m12.01172-3.33593l-6.66797 2.22265m6.66797-2.22265l1.77734 1.6914m11.66015-1.22265l-6.91015 1.28515m6.91015-1.28515l1.52735 1.92187m11.83203-.98047l-7-.59765m7 .59765l.96484 2.25781m12.36329-2.55468h-7.02735m7.02735 0l1.15234 2.16406m-2.17578-2.16406l.57812 1.08203m13.66016-1.92188L327 348.01563m6.82422-1.67579l1.63281 1.82813m11.71875-1.66016l-6.89844 1.33985m6.89844-1.33985l1.54297 1.91016m-2.54688-1.71485l.76954.95313m13.60546-.73828l-7.0078.51953m7.0078-.51953l1.3086 2.07422m-2.32813-2l.65235 1.03906m13.6836-1.07422l-7.01173.4414m7.01172-.4414l1.28516 2.08985m-2.30469-2.02735l.64063 1.04688m13.60937-1.67579l-6.84766 1.57422m6.84766-1.57421l1.60938 1.85156m-2.60547-1.6211l.80468.92579m13.42579-1.44922l-6.6836 2.16015m6.6836-2.16015l1.76562 1.70703m-2.73828-1.39453l.88281.85546m13.49219-.85546l-6.85938 1.53515m6.85938-1.53515l1.59765 1.86328m-2.59765-1.64063l.80078.9336m13.57813-.75782l-6.98829.73829m6.98829-.73829l1.375 2.03125m-2.39063-1.92578l1.375 2.03516m12.89453-2.52344l-6.86328 1.5039m6.86328-1.5039l1.58985 1.8711m-2.58985-1.65235l1.58985 1.8711m12.71093-2.15235l-6.83594 1.6289m6.83594-1.6289l1.6211 1.84375m-2.61329-1.60547l1.6211 1.83985m12.58594-2.42188l-6.63282 2.3164"/><g clip-path="url(#am)"><path fill="none" stroke="#000" stroke-linecap="round" stroke-linejoin="round" stroke-miterlimit="10" stroke-width=".5" d="M466.8789 346.01953l1.80079 1.66797"/></g><path fill="none" stroke="#000" stroke-linecap="round" stroke-linejoin="round" stroke-miterlimit="10" stroke-width=".5" d="M465.91406 346.35547l1.80078 1.66797"/><g clip-path="url(#an)"><path fill="none" stroke="#000" stroke-linecap="round" stroke-linejoin="round" stroke-miterlimit="10" stroke-width=".5" d="M144.7539 337.29297l-1.5078-6.85938"/></g><g clip-path="url(#ao)"><path fill="none" stroke="#000" stroke-linecap="round" stroke-linejoin="round" stroke-miterlimit="10" stroke-width=".5" d="M144.53516 336.29688l-.9336.79296"/></g><path fill="none" stroke="#000" stroke-linecap="round" stroke-linejoin="round" stroke-miterlimit="10" stroke-width=".5" d="M158.5 337.17188l-2.3711-6.6172m2.02735 5.65235l-.82422.91016m15.29297-.36328l-3.98828-5.78125m3.40625 4.9414l-.5625 1.08985m15.45312-1.29297l-5.97656-3.69922m5.10547 3.16406l-.07813 1.22266m14.71485-1.8164l-6.8789-1.4375m5.8789 1.22655l.34375 1.1797m13.67187-.10938l-6.27734-3.15625m6.27734 3.15625l.0547 2.45312m13.61718-4.39062l-6.99219.71875m6.99219-.71875l1.36719 2.03515m-2.38672-1.92969l.6836 1.01563m13.65233-1.11328l-6.99218.69922m6.99219-.69922l1.35937 2.04297m-2.3789-1.9414l.67968 1.02343m13.59766-1.48438l-6.88281 1.42188m6.8828-1.42188l1.56641 1.89063m-2.5664-1.6836l.78125.94532m13.48437-1.35547l-6.78515 1.82812m6.78515-1.82812l1.67578 1.79297m-2.66015-1.52735l.83594.89844m13.40625-1.36328l-6.66797 2.22266m6.66797-2.22266l1.77734 1.6914m11.53906.53126l-6.66797-2.22266m5.69531 1.90234l.20313 1.20704m14.16797-1.19141l-6.83985-1.61328m5.84766 1.3789l.3086 1.1875m14.08984-1.55859l-7.01563-.39844m7.01563.39844l1.02344 2.23047m12.26953-2.01172l-6.97657-.83594m6.97657.83594l.88672 2.28516m12.4414-3.01563l-7 .625m7-.625l1.33985 2.05469m11.96875-2.125l-6.98829.76172m5.96875-.64844l.69141 1.01563m13.65625-.51563l-7.01172-.46094m7.01172.46094l1.00781 2.23828m12.3047-2.70312l-7.01173.46484m7.01172-.46484l1.29297 2.08593M400.5 333.75781l-7.02734.20703m7.02734-.20703l1.21484 2.13281m12.0625-2.53515l-6.95312 1.01562m6.95312-1.01562l1.45313 1.97656m-2.46485-1.82812l.72657.98828m13.52343-1.51563l-6.80078 1.77344m6.80078-1.77344l1.66016 1.80469m-2.64844-1.54688l.83203.90235m13.48438-1.10938l-6.82422 1.67188m6.82422-1.67188l1.63672 1.82813m-2.6289-1.58594l.8164.91406m13.58203-.60546l-7.0039.5703m7.0039-.5703l1.32031 2.0664m-2.33984-1.98437l1.32031 2.0703m13.00781-2.19921l-6.99609.66406"/><g clip-path="url(#ap)"><path fill="none" stroke="#000" stroke-linecap="round" stroke-linejoin="round" stroke-miterlimit="10" stroke-width=".5" d="M467.0586 333.53125l1.35156 2.04688"/></g><path fill="none" stroke="#000" stroke-linecap="round" stroke-linejoin="round" stroke-miterlimit="10" stroke-width=".5" d="M466.04297 333.6289l1.35156 2.04688"/><g clip-path="url(#aq)"><path fill="none" stroke="#000" stroke-linecap="round" stroke-linejoin="round" stroke-miterlimit="10" stroke-width=".5" d="M144.89844 323.94531l-1.79688-6.79297"/></g><g clip-path="url(#ar)"><path fill="none" stroke="#000" stroke-linecap="round" stroke-linejoin="round" stroke-miterlimit="10" stroke-width=".5" d="M144.63672 322.95703l-.89844.83203"/></g><path fill="none" stroke="#000" stroke-linecap="round" stroke-linejoin="round" stroke-miterlimit="10" stroke-width=".5" d="M158.23047 323.9414l-1.82813-6.78515m1.5625 5.79688l-.89843.83984m14.47656.14844l-1.82422-6.78516m1.5586 5.79688l-.89844.83984m15.33984-.21094l-3.54688-6.0664m3.03125 5.18359l-.64453 1.04297m14.8672-.42969l-4.33204-5.53125m3.70313 4.72656l-.4961 1.1211m14.85938-.70313l-5.17188-4.75781m4.42188 4.0664l-.3125 1.1875m14.92187-1.27343l-6.25781-3.20313m5.34766 2.73828l.01953 1.22657m14.5664-1.94532l-6.98047-.83203m6.98047.83203l.88672 2.28516m12.4375-3.0039l-7 .60156m7-.60157l1.33594 2.0625m11.99219-1.90625l-7.02344.28907m7.02344-.28907l1.23828 2.1172m12.07422-1.78517l-7.01953-.375m7.01953.375l1.03515 2.22657m12.22657-1.78125l-6.91407-1.26172m6.91407 1.26172l.74218 2.33594m12.01953-.9922l-5.80859-3.95312m4.96484 3.3789l-.1328 1.21876m14.7578-1.6211l-6.73828-2m5.75782 1.71094l.24218 1.20313m14.19532-1.78906l-7.02344-.2461m6.0039.20703l.53516 1.10547m13.77734-1.60547l-6.97656.83203m16.95703-3.92578l-.3086 7.01953m12.94923-6.98437l1.04297 6.94922m14.45312-.3789l-3.32031-6.19142m2.83594 5.28907l-.6836 1.01953m15.03907-.48828l-4.4336-5.44922m3.78906 4.65625l-.47656 1.1289m15.46485-1.71093l-6.48829-2.69922m5.54297 2.30469l.11719 1.22265m14.40625-2.02734l-7.01953-.30469m6 .26172l.52734 1.10547m13.63282-2.3164l-6.66797 2.20702m6.66797-2.20703l1.77734 1.6914m11.4961-1.8164l-6.58594 2.45313m6.58593-2.45313l1.83594 1.6289m-2.79297-1.26952l.91797.8125m13.46094-.82422l-6.80078 1.76172"/><g clip-path="url(#as)"><path fill="none" stroke="#000" stroke-linecap="round" stroke-linejoin="round" stroke-miterlimit="10" stroke-width=".5" d="M466.96094 319.66797l1.66015 1.80469"/></g><path fill="none" stroke="#000" stroke-linecap="round" stroke-linejoin="round" stroke-miterlimit="10" stroke-width=".5" d="M465.97266 319.92188l1.66015 1.80859"/><path fill="#ff3030" fill-rule="evenodd" d="M295.72656 472.08594h7.69531V461.9414h-7.6953v10.14453"/><path fill="azure" fill-rule="evenodd" d="M297.5586 463.77344h.83593v5.73828h3.1914v.74219h-4.02734v-6.48047"/><path fill="#ff3030" fill-rule="evenodd" d="M175.89063 463.21094h7.6953V453.0625h-7.6953v10.14844"/><path fill="azure" fill-rule="evenodd" d="M177.72656 454.89844h.83203v5.73828H181.75v.74219h-4.02344v-6.48047"/><path fill="#00f" fill-rule="evenodd" d="M303.91016 449.89453h8.61718V439.75h-8.61718v10.14453"/><path fill="azure" fill-rule="evenodd" d="M305.74219 441.58203h.83203v2.82422h3.28906v-2.82422h.83203v6.48047h-.83203v-2.91797h-3.28906v2.91797h-.83203v-6.48047"/><path fill="#ff3030" fill-rule="evenodd" d="M388.9336 414.38672h7.6914v-10.14453h-7.6914v10.14453"/><path fill="azure" fill-rule="evenodd" d="M390.76563 406.07422h.83203v5.74219h3.1953v.73828h-4.02733v-6.48047"/><path fill="#ff3030" fill-rule="evenodd" d="M291.28906 405.51172h7.6914v-10.14453h-7.6914v10.14453"/><path fill="azure" fill-rule="evenodd" d="M293.1211 397.19922h.83593v5.73828h3.1914v.74219h-4.02734v-6.48047"/><path fill="#ff3030" fill-rule="evenodd" d="M193.64453 378.88281h7.69531v-10.14844h-7.6953v10.14844"/><path fill="azure" fill-rule="evenodd" d="M195.47656 370.5664h.83594v5.7422h3.1914v.73827h-4.02734v-6.48046"/><path fill="#ffffe0" fill-rule="evenodd" d="M357.05078 423.4961h22.17969v-10.19141h-22.17969v10.1914"/><path fill-rule="evenodd" d="M360.55078 415.13672h.50781v6.29687h-.78515v-4.49218h-1.39063v-.5547l.5625-.0664.25-.05078.23047-.08984.20313-.14453.17578-.20704.14062-.29687.10547-.39453m4.8125 0l.23047.01953.21875.05469.20703.08984.19531.1211.1875.14843.16797.17578.30469.42188.24219.49219.17969.54687.11328.57813.03515.58984-.03515.59375-.11329.58594-.17968.55469-.24219.5-.30469.42968-.16797.17969-.1875.15234-.1953.125-.20704.08985-.21875.0586-.23047.01952-.23047-.01953-.21875-.0586-.20703-.08984-.19531-.125-.1836-.15234-.17187-.17969-.30078-.42969-.2461-.5-.17968-.55468-.10938-.58594-.03906-.59375h.83203l.03125.5664.08203.50391.125.4414.16016.375.1914.30079.21094.22266.22266.13671.22656.04688.22656-.04688.22266-.13671.21094-.22266.1914-.30078.16016-.375.1289-.4414.08204-.50391.02734-.56641-.02734-.5586-.08203-.5-.12891-.4375-.16016-.36327-.1914-.29297-.21094-.21485-.22266-.13281-.22656-.04297-.22656.04297-.22266.13281-.21094.21485-.1914.29296-.16016.36329-.125.4375-.08203.5-.03125.55859h-.83203l.03906-.58984.10938-.57813.17969-.54687.24609-.4922.30078-.42187.17188-.17578.18359-.14844.19531-.12109.20703-.08984.21875-.05469.23047-.01953m4.95313 0l.23046.01953.21875.05469.20704.08984.1953.1211.1836.14843.17188.17578.30469.42188.24218.49219.17969.54687.10938.57813.03906.58984-.03906.59375-.10938.58594-.17969.55469-.24219.5-.30468.42968-.17188.17969-.1836.15234-.1953.125-.20704.08985-.21875.0586-.23046.01952-.23047-.01953-.21875-.0586-.20703-.08984-.19532-.125-.18359-.15234-.17188-.17969-.30468-.42969-.24219-.5-.17969-.55468-.10937-.58594-.03906-.59375h.83203l.03125.5664.07812.50391.1289.4414.16016.375.19141.30079.21094.22266.22265.13671.22657.04688.22656-.04688.22265-.13671.21094-.22266.1914-.30078.16017-.375.1289-.4414.08203-.50391.02735-.56641-.02735-.5586-.08203-.5-.1289-.4375-.16016-.36327-.1914-.29297-.21094-.21485-.22266-.13281-.22656-.04297-.22657.04297-.22265.13281-.21094.21485-.1914.29296-.16016.36329-.1289.4375-.07813.5-.03125.55859h-.83204l.03907-.58984.10937-.57813.17969-.54687.24219-.4922.30469-.42187.17187-.17578.1836-.14844.1953-.12109.20704-.08984.21875-.05469.23047-.01953m4.95312 0l.38672.02734.35938.08203.3203.13672.28126.1875.23047.23828.17187.28516.10938.33203.03906.3789-.02344.27344-.05469.23438-.08984.19922-.10938.17187-.1289.14454-.14063.12109-.28906.19531.23438.1211.20703.14453.1836.17187.15233.19531.1211.21094.09375.23047.05469.2461.01953.2539-.03516.3086-.10156.32812-.17188.32422-.24218.30469-.3047.26953-.375.21484-.21093.08203-.23047.0625-.24219.03516-.26171.01562-.25782-.01562-.24218-.03516-.22657-.0625-.20312-.08203-.35938-.21484-.28906-.26954-.22265-.30468-.15625-.32422-.09375-.32813-.03125-.30859h.83203l.02734.2539.07813.23438.12109.21094.16015.1875.19532.15234.21875.11328.24219.07422.2539.02344.2539-.02344.2422-.07422.21875-.11328.1914-.15234.16406-.1875.1211-.21094.07812-.23437.02735-.25391-.02735-.2539-.07812-.23438-.1211-.21094-.16406-.1836-.1914-.15234-.21875-.11718-.2422-.07032-.2539-.02734-.2539.02734-.2422.07032-.21874.11718-.19531.15235-.16016.1836-.1211.21093-.07812.23437-.02734.25391h-.83204l.01954-.2539.05468-.23829.08985-.22656.125-.20703.15234-.1914.1836-.17188.20703-.15235.23046-.1328-.28515-.19532-.14063-.1211-.1289-.14453-.10938-.17187-.08984-.19922-.0586-.23438-.01953-.27343h.78907l.01953.21484.0664.1875.10547.16797.13672.14063.16406.10937.1875.08203.20704.05078.22265.01563.21875-.01563.20703-.05078.1914-.08203.16407-.10938.13672-.14062.10547-.16797.0625-.1875.02344-.21484-.02344-.21485-.0625-.1914-.10547-.16797-.13672-.14063-.16406-.10937-.1914-.08203-.20704-.05078-.21875-.01563-.22265.01563-.20704.05078-.1875.08203-.16406.10937-.13672.14063-.10547.16797-.0664.1914-.01953.21485h-.78907l.03907-.3789.10937-.33204.17188-.28516.23046-.23828.27735-.1875.32422-.13672.35937-.08203.38672-.02734"/><path fill="#ffffe0" fill-rule="evenodd" d="M403.88281 433.3086h22.17969v-10.19141h-22.17969v10.1914"/><path fill-rule="evenodd" d="M407.3789 424.94922h.51173v6.29687h-.78907v-4.49218h-1.38672v-.5547l.5586-.0664.2539-.05078.22657-.08984.20312-.14453.17578-.20704.14063-.29687.10547-.39453m4.8164 0l.22656.01953.21875.05469.21094.08984.19531.1211.1836.14843.17187.17578.30079.42188.24609.49219.17969.54687.10937.57813.03906.59375-.03906.58984-.10937.58594-.1797.55469-.24608.5-.30079.42968-.17187.17969-.1836.15234-.1953.125-.21094.08985-.21875.0586-.22657.01952-.23047-.01953-.21875-.0586-.20703-.08984-.19922-.125-.18359-.15234-.17188-.17969-.30078-.42969-.24218-.5-.1797-.55468-.11327-.58594-.03906-.58984h.83593l.02735.5625.08203.5039.125.44531.16406.3711.1914.30078.21094.22266.22266.13671.22656.04688.22656-.04688.22266-.13671.21094-.22266.1875-.30078.16406-.3711.125-.4453.08203-.50391.03125-.5625-.03125-.5625-.08203-.5-.125-.4375-.16406-.36329-.1875-.29296-.21094-.21485-.22265-.13281-.22657-.04297-.22656.04297-.22266.13281-.21093.21485-.19141.29296-.16406.36329-.125.4375-.08203.5-.02735.5625h-.83594l.03907-.59375.11328-.57813.17969-.54687.24218-.4922.30079-.42187.17187-.17578.1836-.14844.19921-.12109.20703-.08984.21875-.05469.23047-.01953m4.95313 0l.22656.01953.21875.05469.21094.08984.19531.1211.1836.14843.17187.17578.30078.42188.24219.49219.17969.54687.11328.57813.03906.59375-.03906.58984-.11329.58594-.17968.55469-.24219.5-.30078.42968-.17188.17969-.18359.15234-.19531.125-.21094.08985-.21875.0586-.22656.01952-.23047-.01953-.21875-.0586-.20703-.08984-.19922-.125-.1836-.15234-.17187-.17969-.30078-.42969-.24219-.5-.17969-.55468-.11328-.58594-.03906-.58984h.83594l.02734.5625.08203.5039.125.44531.16406.3711.19141.30078.21094.22266.22265.13671.22657.04688.22656-.04688.22266-.13671.20703-.22266.1914-.30078.16407-.3711.125-.4453.08203-.50391.02734-.5625-.02734-.5625-.08203-.5-.125-.4375-.16407-.36329-.1914-.29296-.20703-.21485-.22266-.13281-.22656-.04297-.22656.04297-.22266.13281-.21094.21485-.1914.29296-.16407.36329-.125.4375-.08203.5-.02734.5625h-.83594l.03906-.59375.11328-.57813.1797-.54687.24218-.4922.30078-.42187.17188-.17578.18359-.14844.19922-.12109.20703-.08984.21875-.05469.23047-.01953m4.94922 0l.39062.02734.35547.08203.32422.13672.28125.1875.22656.23828.17578.28516.10938.33203.03515.3789-.01953.27344-.0586.23438-.08593.19922-.11328.17187-.1289.14454-.14063.12109-.28516.19531.23047.1211.20703.14453.1836.17187.15234.19531.125.21094.08984.23047.0586.2461.01562.2539-.03125.3086-.10547.32812-.17187.32422-.23828.3086-.3086.26562-.37109.21484-.21484.08203-.22657.0625-.24609.03516-.25781.01562-.26172-.01562-.24219-.03516-.22265-.0625-.20704-.08203-.35937-.21484-.28906-.26563-.22266-.3086-.15625-.32421-.09375-.32813-.03125-.30859h.83594l.02734.2539.07422.23438.125.21485.16016.18359.1914.15234.22266.11328.23828.07422.2539.02344.25782-.02344.23828-.07422.21875-.11328.19531-.15234.16016-.1836.1211-.21484.07812-.23437.02734-.25391-.02734-.2539-.07813-.23438-.1211-.21094-.16015-.1836-.19531-.15234-.21875-.11718-.23828-.07032-.25781-.02734-.25391.02734-.23828.07032-.22266.11718-.1914.15235-.16016.1836-.125.21093-.07422.23437-.02734.25391h-.83594l.01953-.2539.0586-.23829.08984-.22656.1211-.20703.15624-.1914.17969-.17188.21094-.15235.23047-.1328-.28516-.19532-.14063-.1211-.1289-.14453-.11328-.17187-.08594-.19922-.0586-.23438-.01952-.27343h.78515l.02344.21484.0664.1914.10157.16407.13672.14063.16796.10937.1875.08203.20704.05078.21875.01953.22265-.01953.20703-.05078.1875-.08203.16407-.10938.13671-.14062.10547-.16406.06641-.1914.02344-.21485-.02344-.21485-.0664-.1914-.10548-.16797-.13671-.13672-.16407-.11328-.1875-.08203-.20703-.05078-.22265-.01563-.21875.01563-.20704.05078-.1875.08203-.16796.11328-.13672.13672-.10156.16797-.06641.1914-.02344.21485h-.78515l.03515-.3789.10938-.33204.17187-.28516.23047-.23828.28125-.1875.32422-.13672.35547-.08203.38672-.02734"/><path fill="#ffffe0" fill-rule="evenodd" d="M332.86719 345.64453h22.17969v-10.1914h-22.1797v10.1914"/><path fill-rule="evenodd" d="M336.36719 337.28516h.50781v6.29687h-.78516v-4.49219h-1.39062v-.55468l.5625-.0625.25-.0547.23047-.08983.20312-.14063.17578-.21094.14063-.29297.10547-.39843m4.8125 0l.23047.01953.21875.05469.20703.08984.19531.1211.1875.15234.16797.17578.30469.41797.24218.49218.1797.54688.11327.58203.03516.58984-.03516.59375-.11328.58204-.17969.55468-.24218.5039-.3047.42579-.16796.17969-.1875.15234-.19531.125-.20703.08985-.21875.05859-.23047.01953-.23047-.01953-.21875-.0586-.20703-.08984-.19531-.125-.1836-.15234-.17187-.17969-.30079-.42578-.24609-.5039-.17969-.5547-.10937-.58203-.03906-.59375h.83203l.03125.5625.08203.50391.125.44531.16015.375.19141.30078.21094.21875.22265.13672.22657.04688.22656-.04688.22266-.13672.21093-.21875.19141-.30078.16016-.375.1289-.44531.08203-.5039.02735-.5625-.02735-.5625-.08203-.5-.1289-.4336-.16016-.36719-.1914-.29297-.21094-.21484-.22266-.1289-.22656-.04688-.22656.04687-.22266.12891-.21094.21484-.1914.29297-.16016.36719-.125.4336-.08203.5-.03125.5625h-.83203l.03906-.58985.10937-.58203.1797-.54688.24608-.49218.30079-.41797.17187-.17578.1836-.15235.1953-.1211.20704-.08983.21875-.0547.23047-.01952m5.09375 0h.50781v6.29687h-.78906v-4.49219h-1.38672v-.55468l.5586-.0625.2539-.0547.23047-.08983.20312-.14063.17188-.21094.14062-.29297.10938-.39843m2.82031 2.17578h.78906l.01953-.3164.0586-.28517.09765-.2539.14063-.21485.1836-.17187.22265-.1289.26562-.08204.3086-.02734.23437.02344.22656.0625.20313.10156.17969.13672.14844.17187.11328.20703.0703.23829.02735.26171-.02344.26954-.0664.22265-.10938.19531-.15625.16797-.19921.16406-.2461.16407-.63672.39062-.53515.3125-.4375.3164-.34766.32423-.26172.33594-.1914.35156-.125.3711-.07032.39452-.01953.41797h4.21094v-.74219h-3.33203l.08203-.28125.11328-.23828.14844-.20312.1875-.17969.23047-.17188.28125-.17578.71484-.41406.41797-.20703.34375-.23047.28125-.25.21875-.26953.16406-.27734.10938-.28516.0664-.28516.01953-.28125-.04296-.3828-.1211-.34767-.1875-.30468-.25-.26563-.30078-.21094-.34766-.16015-.3789-.09766-.40625-.03515-.4375.03515-.39844.09766-.35547.16797-.30469.23437-.24609.30078-.1875.375-.11328.44532-.04297.51953"/><path fill="#ffffe0" fill-rule="evenodd" d="M199.71484 340.8125h22.1836v-10.1914h-22.1836v10.1914"/><path fill-rule="evenodd" d="M203.21484 332.45313h.51172v6.29296h-.78906v-4.48828h-1.38672v-.55469l.5586-.0664.2539-.05469.22656-.08594.20313-.14453.17578-.20703.14063-.29687.10546-.39454m4.81641 0l.22656.01954.21875.05468.21094.08985.19531.1211.1836.14843.17187.17578.30078.42188.24219.49218.17969.54688.11328.57812.03906.58985-.03906.59375-.11328.58593-.17969.5547-.24219.5-.30078.42968-.17187.17969-.1836.15234-.19531.125-.21094.08984-.21875.0586-.22656.01953-.23047-.01953-.21875-.0586-.20703-.08984-.19922-.125-.1836-.15234-.17187-.1797-.30078-.42968-.24219-.5-.17968-.55469-.11328-.58593-.03907-.59375h.83594l.02734.5664.08203.5039.125.44142.16407.375.1914.30078.21094.22265.22266.13672.22656.04688.22656-.04688.22266-.13672.21094-.22265.1875-.30079.16406-.375.125-.4414.08203-.5039.03125-.56641-.03125-.5586-.08203-.5-.125-.4375-.16406-.36719-.1875-.28906-.21094-.21484-.22266-.13281-.22656-.04297-.22656.04297-.22266.1328-.21094.21485-.1914.28906-.16406.3672-.125.4375-.08204.5-.02734.55859h-.83594l.03906-.58985.11329-.57812.17968-.54688.2422-.49219.30077-.42187.17188-.17578.1836-.14844.19921-.1211.20703-.08984.21875-.05468.23047-.01954m5.08984 0h.50782v6.29297h-.78516v-4.48828h-1.39063v-.55469l.5625-.0664.25-.05469.23047-.08594.20313-.14453.17578-.20703.14063-.29687.10546-.39454m2.82422 2.17579h.78516l.01953-.31641.0586-.28516.10156-.2539.14062-.21485.17969-.17578.22266-.1289.26562-.07813.3086-.02734.23827.01953.22266.0625.20313.10156.17968.14063.14844.17187.11328.20703.07422.23438.02344.26562-.02344.26953-.0625.22266-.11328.1914-.15234.17188-.20313.16406-.2461.16407-.6328.39062-.53907.3125-.4375.3164-.34765.32423-.26172.33593-.1914.35157-.125.36718-.06642.39454-.02343.41796h4.21484v-.73828h-3.33594l.08594-.28515.11328-.23829.14844-.19921.1875-.1797.23047-.17187.27734-.17578.71875-.41797.41406-.20312.34375-.23047.28125-.2539.22266-.26563.16016-.27735.11328-.28515.0625-.28516.01953-.28125-.03906-.38281-.1211-.34766-.1914-.30859-.25-.26172-.30078-.21484-.34766-.15625-.3789-.09766-.40626-.03515-.43359.03125-.39844.10156-.35547.16406-.30468.23438-.25.30468-.1836.375-.11719.44531-.03906.51954"/></g></defs><use xlink:href="#at"/></svg>