<svg xmlns="http://www.w3.org/2000/svg" role="img" xmlns:xlink="http://www.w3.org/1999/xlink" viewBox="142.45 309.95 326.84 171.84"><defs><clipPath id="a"><path d="M144 460h1v20.32813h-1zm0 0"/></clipPath><clipPath id="b"><path d="M144 311.67188h1V454h-1zm0 0"/></clipPath><clipPath id="c"><path d="M144 311.67188h324v168.65625H144zm0 0"/></clipPath><clipPath id="d"><path d="M382 477h6v3.32813h-6zm0 0"/></clipPath><clipPath id="e"><path d="M388 475h8v5.32813h-8zm0 0"/></clipPath><clipPath id="f"><path d="M467 311.67188h1v168.65625h-1zm0 0"/></clipPath><clipPath id="g"><path d="M144 479h4v1.32813h-4zm0 0"/></clipPath><clipPath id="h"><path d="M147 480h2v.32813h-2zm0 0"/></clipPath><clipPath id="i"><path d="M153 479h9v1.32813h-9zm0 0"/></clipPath><clipPath id="j"><path d="M160 480h3v.32813h-3zm0 0"/></clipPath><clipPath id="k"><path d="M166 479h9v1.32813h-9zm0 0"/></clipPath><clipPath id="l"><path d="M173 480h3v.32813h-3zm0 0"/></clipPath><clipPath id="m"><path d="M180 479h8v1.32813h-8zm0 0"/></clipPath><clipPath id="n"><path d="M187 480h2v.32813h-2zm0 0"/></clipPath><clipPath id="o"><path d="M193 480h9v.32813h-9zm0 0"/></clipPath><clipPath id="p"><path d="M200 480h3v.32813h-3zm0 0"/></clipPath><clipPath id="q"><path d="M206 479h9v1.32813h-9zm0 0"/></clipPath><clipPath id="r"><path d="M213 479h3v1.32813h-3zm0 0"/></clipPath><clipPath id="s"><path d="M220 479h8v1.32813h-8zm0 0"/></clipPath><clipPath id="t"><path d="M227 479h2v1.32813h-2zm0 0"/></clipPath><clipPath id="u"><path d="M233 479h8v1.32813h-8zm0 0"/></clipPath><clipPath id="v"><path d="M240 480h2v.32813h-2zm0 0"/></clipPath><clipPath id="w"><path d="M246 479h9v1.32813h-9zm0 0"/></clipPath><clipPath id="x"><path d="M252 479h2v1.32813h-2zm0 0"/></clipPath><clipPath id="y"><path d="M260 478h7v2.32813h-7zm0 0"/></clipPath><clipPath id="z"><path d="M274 478h7v2.32813h-7zm0 0"/></clipPath><clipPath id="A"><path d="M287 477h7v3.32813h-7zm0 0"/></clipPath><clipPath id="B"><path d="M300 479h8v1.32813h-8zm0 0"/></clipPath><clipPath id="C"><path d="M306 479h2v1.32813h-2zm0 0"/></clipPath><clipPath id="D"><path d="M313 479h8v1.32813h-8zm0 0"/></clipPath><clipPath id="E"><path d="M319 480h2v.32813h-2zm0 0"/></clipPath><clipPath id="F"><path d="M327 477h6v3.32813h-6zm0 0"/></clipPath><clipPath id="G"><path d="M341 476h5v4.32813h-5zm0 0"/></clipPath><clipPath id="H"><path d="M353 478h8v2.32813h-8zm0 0"/></clipPath><clipPath id="I"><path d="M353 480h3v.32813h-3zm0 0"/></clipPath><clipPath id="J"><path d="M367 477h7v3.32813h-7zm0 0"/></clipPath><clipPath id="K"><path d="M382 476h4v4.32813h-4zm0 0"/></clipPath><clipPath id="L"><path d="M393 479h8v1.32813h-8zm0 0"/></clipPath><clipPath id="M"><path d="M393 479h2v1.32813h-2zm0 0"/></clipPath><clipPath id="N"><path d="M406 479h9v1.32813h-9zm0 0"/></clipPath><clipPath id="O"><path d="M406 479h3v1.32813h-3zm0 0"/></clipPath><clipPath id="P"><path d="M419 479h9v1.32813h-9zm0 0"/></clipPath><clipPath id="Q"><path d="M433 477h7v3.32813h-7zm0 0"/></clipPath><clipPath id="R"><path d="M449 476h2v4.32813h-2zm0 0"/></clipPath><clipPath id="S"><path d="M460 477h7v3.32813h-7zm0 0"/></clipPath><clipPath id="T"><path d="M144 466h4v2h-4zm0 0"/></clipPath><clipPath id="U"><path d="M144 453h4v1h-4zm0 0"/></clipPath><clipPath id="V"><path d="M144 439h4v2h-4zm0 0"/></clipPath><clipPath id="W"><path d="M466 440h2v3h-2zm0 0"/></clipPath><clipPath id="X"><path d="M144 426h4v2h-4zm0 0"/></clipPath><clipPath id="Y"><path d="M466 425h2v4h-2zm0 0"/></clipPath><clipPath id="Z"><path d="M144 413h4v2h-4zm0 0"/></clipPath><clipPath id="aa"><path d="M466 412h2v3h-2zm0 0"/></clipPath><clipPath id="ab"><path d="M144 399h4v3h-4zm0 0"/></clipPath><clipPath id="ac"><path d="M466 398h2v3h-2zm0 0"/></clipPath><clipPath id="ad"><path d="M144 385h4v4h-4zm0 0"/></clipPath><clipPath id="ae"><path d="M466 385h2v3h-2zm0 0"/></clipPath><clipPath id="af"><path d="M144 373h4v2h-4zm0 0"/></clipPath><clipPath id="ag"><path d="M466 372h2v3h-2zm0 0"/></clipPath><clipPath id="ah"><path d="M144 359h4v3h-4zm0 0"/></clipPath><clipPath id="ai"><path d="M466 358h2v2h-2zm0 0"/></clipPath><clipPath id="aj"><path d="M144 345h4v4h-4zm0 0"/></clipPath><clipPath id="ak"><path d="M466 345h2v3h-2zm0 0"/></clipPath><clipPath id="al"><path d="M144 330h3v7h-3zm0 0"/></clipPath><clipPath id="am"><path d="M466 331h2v3h-2zm0 0"/></clipPath><clipPath id="an"><path d="M465 332h3v3h-3zm0 0"/></clipPath><clipPath id="ao"><path d="M144 318h4v5h-4zm0 0"/></clipPath><clipPath id="ap"><path d="M465 317h3v3h-3zm0 0"/></clipPath><g id="aq" clip-path="url(#clip1)"><path fill="#fff" fill-opacity="0" fill-rule="evenodd" d="M0 0h1000v1000H0zm0 0"/><path fill="#d3d3d3" fill-opacity="0" fill-rule="evenodd" d="M162.15234 355.86719l-.23437.29297.0586.23437.11718.17188.17578.23437.29297.34766.11328.0586.11719-.17188.0586-.23438.17577-.17578.46485-.17578h.69922l.23437.29297.28906.8164.0586.17579.17578.23046.35156.23438.69922.69922.17188.17578.23437.34765.23438.41016.28906.58203.41015.46485.23047.23437.23438.17578.11719.23047.17578.29297.17187 1.16406v.23438l.0586.28906.05859.11719.11719.11719.34765.41015.11719.17188.17578.17578.17578.23437.11719.17188.17188.35156.05859.23438.23437.40625.23438-.0586-.17578.17578-.0586.92969h-.58203l-.23437-.11328-.34766.11328-.11719.11719-.05859.29297-.0586.17578-.11718.17187-.46484.29297-.0586.23438-.0586.11328v.64453l.0586.17187v.41016l.0586.0586v.40624l.05859.40625.11719.17579.05859.05859.23047.64062-.0586.29297v.69922l-.05859.58203v.23438l-.0586.23047-.05468.35156v1.92187l.05469.1172h.42578l-.36719.11718-.02344.35156.89063 1.16797 1.74219.53906 1.33984.35938v.53906l.08984.8086.53516.71484 1.51953.26953.89063-.08594.08984 1.16406.53516.1797 1.16015-.1797 2.05469-.98437 1.16016-.36328 1.8789-.17578 1.69531-.1797-.17968.71876-1.51563.08594-1.25.08984-.80469.26953-1.07421.8086.26953.71875.53515.89843-.17968.625-.26563.8086.26563 1.07812.625.89844.80468.17969 1.25-.1797-.26562.72267.09766.5039.05468.29297v.17188l.0586.29296v.40625l.17578.1172.35156.11718h.40625l.29297-.17578.11328-.11719.0586-.11719.11718-.23047.0586-.17578.35156-.46484.23047-.17578.17578-.0586.17578.0586.0586.17578.11718.98828.05469.46875.0586.17188.11718.23437.17578.0586.8164.05859h.28907l.11719.23437.05859.40625.0586.35156v1.10547l.11718.29297.11719.34766.28906.69922.17578.35156.58203.7539.35157.17579.17187.0586.46875.23437.64063.46484.34765.23438.29297.17578.29297.05468.23047.0625.8164.34766.29297.17578.11328.17188.35157.35156.11719.17578.52343.64063v.28906l.0586.35156v.34766l.05859.35156.0586.28906.11718.0586.17188.05859h.17578l.58203.23437.17578.1172.17578.28905.17578.23438.11328.23437.29297.23047.11719.11719v.41016l.0586.05468.28906.23438.23437.11719.0586.11718.11718.17188.0586.11719.23047.23437.05859.17578.23437.0586.1172.05859-.1172.11328-.05859.11719v.11719l-.11719.29296-.11719.28907v.58203l.17579.11719.11718.05859.0586.11719.11719.11719.11328.05859.17578.34765.0586.35157.05858.40625v.17578l-.05859.17578-.11719.69922v.17187l.1172.17579.29296.29296h.40625l.17578.1172.11719.17187.11719.29296v.23438h-.52735l-.23047-.23438h-.23437l-.17578.0586-.0586.69922.0586.34765.11719.17579.17578.41015.11718.23047.28907.46875.17578.05469h.52344l.23437.0586.75781.64062.0586.29296v.23438l.05859.0586.23047.34765v.35156l-.11719.17188v.29297l.29297.28906.29297.17578.17187.0586.29297.17577.29297.1172.58203.40624.28906.23438.29297.17578.21875.16015.01563.01172.23047.17579.64062.52343.17578.23438.1172.17578.17577.17578.11328.17188v.64062l.1172.17578.46874.11719.58203.11719.23438.05859.23047.11328.29297.11719.11328.0586.58593.35156.28907.17187.17578.0625.17578.05469.17578.0586.69922.35155.28906.17579.23438.05468.28906.17578.23437.1172.64063.40624.29297.11719.17187.0586.23438.05859.41015.05859.23047.0586.23438.11718.0586.17188-.41017.17578.46875.0586.0586.29296.11328.23438.17578.05468.23438.0586.17578.05859.40625.11719.64062.23437.11719.17188.0586.23437v.17578l-.0586.1172-.0586.40624.23438.23438.11719.05859.34766.11719.64062.23047.17578.11718.28906.1172.17578.17577.23438.46485.58203 1.10546.17578.17579.34766.17578.17578.11719.35156.11718 1.04688.52344.23437.0586.46485.11327.29297.0586.46484.17578.75781.58203.23438.23438.34765.46484.17578.17578.28907.23438.8164.69921.29297.17579.28906.28906.29297.17578.29297.28906.69531.64063.17578.17578.29297.23437.28907.23438.46875.28906.64062.58203.34766.23438.23437.29297.34766.34765.35156.46485.9336.99218.34765.40625.11719.17579.23437.05859.11328.11719.64454.17578.23047.11328.23437.0586.29297.17577.23047.1172.9336.69921.40624.40625.23438.17578.40625.17578.23437.11719.8164.34766.34766.23437.23438.11719.29297.28906.23047.11719.7578.35156.35157.17188.23047.05859.29297.11719.23437.0586.8711.17577h.8164l.46875.23047.17188.0586.875.69921.46484.1172.29297.05858.17578.0586.23047.0586.46875.05859.34766.05859.35156.0586.40625.05859h.29297l.17187.0586v.23046l.17578.17578h.29297l.34766.0586.35156.05859.69922.11719h.64063l.46484-.23438.29297-.17578.17187-.11719.41016-.17187.28906-.17578.9336-.46485.46875-.29297.52343-.29296.46485-.17188.46484-.17578 1.05078-.46485.28906-.11718.41016-.11719.28906-.11719.52735-.17578 1.51562-.69922.58203-.34765.28907-.0586.29297-.0586.34765-.11718.875-.23047.35156-.11719h.11329l.23437-.05859.875-.23437.23438-.0586h.8125l.35156-.0586.8164-.11718.17188-.0586.35156-.05468.29297-.0586.23047-.05859.8164-.17578.17579-.0586h.34765l.23438-.05859.46484-.11718.75781-.17188.23438-.0586h.34765l.41016-.11718.28906-.0586 1.28516-.05859h.28906l.41016-.0586.23047-.05858h.17578l.875-.1172h.40625l.41015-.11718h.34766l.35156-.11328.8711-.0586h1.75l1.04687.28907.41016.11719.28906.11718.35156.11719.28907.11719 1.05078.17187.28906.0586h.29297l.29297.05859.17187.0586.41016.05859.17187.0586.1172.05858h.11718l.11719.0586.35156.0586h.11328l.41016.0664 1.92187.39453 1.92578.39453 1.51953.44922 1.69532.71875 2.14453.80469 1.60547-.71875 1.42968-.80469 1.16016-1.07813 1.25-.44921 3.03516-.71875 1.875-.35938 2.14453-1.34765 2.23437-1.25391 2.5-1.25781 1.69531-.44922 1.78516-.17969 1.16016-.26953.625.53906 1.33984-.26953.71485-.98828.98437-1.34375.44531-.17969.80469-.35937 1.875-.53907 1.78516-.44921 1.25-.26954 1.16015-.08984 1.69922-.08984 1.96094-.26954 1.25-.08984h.53906l.625-.08984h.89063l2.14453-.17969 2.41015-.17969 2.58985-.08984 1.69531.17969 1.60938.08984 1.42968.35938 1.16016.71875 1.875.98828 1.16015 1.52734.26563.71484.6289.08985.35548.89844.53515.53906.53516 1.52734 1.07422.35938h.53515l-.80469.53515.08985 1.70703.71484 2.69532.89063.80468.89453.98829.71484 1.2578 1.78516.53907 1.51953-.17969.35547 1.34375 1.60937-.80469.98047-.53906.26953.26953.31641-.21484.21875-.14453.80078.44922.44922-.35938h.35547l.53515-.26953.53907-.71875.53515-.26953.625-.98828 1.16016.44922.83984.3711 1.39454.61718 1.6953-.17969h1.60548l1.78515.08985.17969-1.70704.53516-1.34375.80468.26954.4922.84765.40233.40625-.08984.53906v.35938l.71485.44922.71093-.26953h1.42969l.35938.98828.4453 1.25781.71485 1.34375 1.25.6289 1.69531.62891.71485-.17969.17969-.53906.98046-.08984.44922.35937.08594 1.25782-.26563.6289-.53515.17969v.53906l.71484.98438.26563.53906.98437.98828.80078 1.07813-.26562.35937-.08985.89844-.625 2.33203-.35546 2.0664-.08985 1.79298-.17969.71875-.08984.53906v1.4375l-.98047 1.88281-.35937 1.70703-.53516.89844-.80469 1.16797-.26562.53906 2.05469 1.2539.08593.35938-.35546.53906-.08985-.17968v.80859l.08985 1.4375-.44532.71484-1.07422.09375-.26562.71485.53515.89844.8047.71875 1.16015.80859 1.33984.26953.44531.35938-.35546.44921-1.78907-.08984-1.25-.44922-.71484-.71875-.625-.08984-.17578 3.58984-.1875 1.3086h89.35937V311.70313h-55.26953v49.08203l.76172.125 3.28906.54296 2.02344 2.83594v2.7539l2.35156.33204 2.34766.33203h4.05078l-1.3789 4.16016-2.02344.70703-2.02344.70312-.54297.34375-2.59375 1.6172-.1875.11718-2.02344-2.07813-.73046-2.74218-2.67188-2.07813-1.375-3.5-.0664-.08203-1.95704-2.67188 2.75-1.41796v-49.08204H294.42187v91.41407l.1172.03125.1328.01172.07422.07421.10547.04688.08985.0586.08593.05859.08985.0586.29687.29687.0586.08984.03125.11719.02734.11719.01563.13671-.03125.1172-.0586.08983-.0586.08594-.04296.10547-.04688.10156-.02734.1211v.14453l.17578.26953.14844.14844.07422.08594.07422.07421.04296.10547.0625.08985.0586.08593.04297.10547.0586.08985.04687.10156.04296.10547.0586.08594.11719.17968.07421.07422.0625.08594.0586.08984.04297.10547.0586.08985.05858.08593.0625.08985.0586.08984.04297.10156.11719.17969.07421.07422.0586.08594.07422.07421.08984.0586.10547.04687h.14844l.1328-.01562.13282.01562.10156-.04687.07422-.07422.04688-.10156-.01563-.13281v-.14844l-.04687-.10547-.02735-.11719-.04687-.10156-.02735-.1211-.04296-.10156-.0625-.08984-.04297-.10156-.04297-.10547-.03125-.11719-.01563-.13281-.01171-.13672.08593-.0586.0586-.08593.12109-.03125.04297.10547.01562.1328v.1172l.0586.10156.0586.08984.08983.0586.14844.14843.0586.08985.04296.10547-.01171.10156.08593.0586.10547.04687.08594.0586.08984.05858.07422.07422-.11719.02735-.10546.04687-.08594.0586-.07422.07421-.0586.08985-.0625.08594-.02734.12109-.04687.10156-.04297.10547-.03125.11719-.01172.13281-.01563.13281v.14844l.02735.11719.04687.10547.04297.10156.0586.08984.07421.07422.08985.0586.07422.07421.08984.0586.0586.08984.04296.10547.04688.10156.11719.03125.1328.01563h.14845l.11718-.03125.10547.04297.04297.10547.04688.10156.02734.1211L299.5 410l.02734.11719.03125.1211.02735.11718.10547.04297.10156.04687.13281-.01562.14844.14844.0625.08593.07422.07422.07031.07422.08984.0625.10547.04297.10156.04297.1172.03125.13671.01562.11719-.03125.07422-.07422.02734-.11718-.01172-.13282-.03125-.12109-.02734-.11719.04297-.10547h.11719l.08984.0625.11719.02735h.14843l.13282.01562h.14843l.13282.01563.1328-.01563h.14845l.1328-.01562.13282-.01172.13672.01172.11719-.02735.13281-.01562.1914-.0586-.05859.17579-.01562.1328-.02735.1211-.01562.13281-.0586.08594-.1328.01563-.10548.04687-.10546.04297-.1172.03125-.11718.02735-.26563.03125h-.14843l-.13281.01562-.07422.07422.05859.08594.14844.14843.11719.1797.07421.0703.08985.0625.08984.0586.08594.0586.08984.05858.10156.04297.10547.0625.10547.04297.08594.0586.10547.04687.10156.04297.17969.11719.0586.08984-.04298.10156-.04687.10547.01562.13281.22266.22266.0586.08985.04296.10156.03125.1211.04297.10155.01563.13282.03125.11718.01171.13672.03125.11719.14844.14844.10156.04297.10547.04296.1172.03125.1328.01563.13672.01563h.11719l.11719-.03125.08984-.0586.04297-.10547.04688-.10156.04296-.10547.03125-.11719.01172-.1328v-.14845l-.01172-.1328-.01562-.13282-.03125-.11719-.04297-.10547-.04688-.10547-.04296-.10156-.04297-.10547-.01563-.13281.01563-.13281.02734-.11719.03125-.11719.02735-.1211.04687-.10155.08984-.0586.08594-.0625.07422-.07422.08984-.05859.22266-.22266.0586-.08593.07421-.07422.11719-.17969.0586-.08594v-.14844l-.07423-.07421-.10156-.04688-.10547-.04297-.10156-.04297-.0586-.08984-.04687-.10547-.02734-.11719.08984-.05859.11719-.03125.10156-.04297.17969-.11719.14844-.14843.01172-.13282-.01172-.10546-.08985-.0586-.1328.01563h-.14845l-.1328.01562-.13282-.01562-.1211-.03125-.08593-.0586-.07422-.07422-.0586-.08984-.0625-.08594-.11718-.17969-.0586-.08593.03125-.1211.08594-.05859.1211-.03125.05859-.08594v-.1211l-.03125-.11718-.0586-.08984-.05859-.08594-.04687-.10547-.02735-.11719-.01562-.1328.0586-.08985.07421-.07422.08984-.0586.1172-.17968.07421-.07422.0586-.08594.14843-.14844.1211-.03125.1328-.01562.13282.01562.07422.07422.04297.10547.01562.13281-.03125.1172-.11719.03124-.1328.01172-.14844.14844-.04297.10547-.04688.10156-.02734.1211-.03125.11718v.14844l.03125.11719.04297.10546.05859.08985.07422.07031.07422.07422.11719.03125.12109.02734.11719-.02734.1328-.01563h.1172l.08984.0586.07422.07422.04687.10546.0586.08594.10156.04688.13281.01562.10547.04297.08594.0586-.01172.10546-.07422.07422-.17969.11719-.05859.08984-.08984.0586-.07032.07422-.07421.07421-.0625.08985-.02735.11719-.01562.1328.01562.13282-.01562.13281v.14844l.01562.13281.02735.1172.03125.12108.07421.07422.08985.0586.08594.0586.08984.05858.11719.03125v.08594l-.10157.04688-.08984.0586-.26563.03124-.11718.02735h-.14844l-.10547.04296-.10156.04688-.0586.08984-.0625.23438-.01171.13281-.03125.1211-.01563.1328v.29298l-.01172.1328.01172.13673.01563.1328.1328.01563.13282.01172.1211.03125.08593.0586.07422.07421.04688.10547.04296.10157.01563.1328v.44532l-.01563.13281v.44532l.03125.26562.02735.11719.01562.13281.03125.11719.08594.21094.03125.26562v.14844l-.03125.11719-.02734.11718-.03125.1211-.02735.11719-.03125.11718-.03125.1211-.01171.1328-.01563.13282.08984.0586.1172-.03125.10155.01562.04688.10547-.03125.26562v.44141l-.04297.10547-.04688.10547-.04296.10156-.04297.10547-.0586.08594-.03125.12109-.04296.11719-.03125.11719-.01563.1328.01563.13282.05859.08984.10547.04688.08594.0586.05859.08593-.01172.13672-.03125.11719-.04297.10156v.44531l-.01562.13281v.14844l-.03125.11719-.04297.10547-.02735.11719-.04687.10546-.04297.10157-.03125.12109-.02734.11719-.03125.13281-.03125.11719-.02735.11719-.04297.10546-.03125.1172-.03125.12108-.01171.13282-.01563.13281v.29688l.02734.11718v.14844l.04688.39844.02734.11719.0586.08984.12109.03125h.14844l.13281-.01563.0586.08985v.11719l-.0586.08984-.08984.0586-.10157.04296-.10546.04688-.08985.05859-.08594.0586-.13671.01562-.1172-.03125-.1328-.01563-.10157.04688-.0625.08594-.01172.13671-.01562.13282-.03125.11719-.02735.11718-.01562.13281-.03125.1211v.29687l.01563.13282.03125.11718v.14844l.01171.13281v.14844l-.02734.11719-.04688.10156-.02734.1211-.03125.11718-.0586.08985-.07421.07421-.10156.04297-.10547.04688-.11719.02734-.1211.03125-.10156-.04687.0586-.08594.10547-.04688.02734-.11718.03125-.11719.02734-.1211.03125-.11718v-.14844l.01563-.13281-.03125-.11719-.04297-.10547-.10547.01563-.07422.07422-.10156.04296-.08984.0625-.07422.07422-.04297.10157-.01563.1328-.03125.1172L304.25 426l-.03125.11719-.02734.11719-.03125.12109-.02735.11719-.03125.11718-.04297.10547-.08984.0586h-.08984l-.1172-.03125-.03124-.08594.01562-.13672-.03125-.11719v-.14844l-.01171-.1328v-.14844l-.0625-.23438-.02735-.1211-.04297-.10156-.04687-.10546-.0586-.08594-.05859-.08985-.04297-.10546-.0625-.08594-.14844-.14844-.0703-.07422-.10548-.04687-.10547-.04297-.10156-.04297-.29687-.29688-.08985-.07421-.08594-.0586-.10546-.04297-.08985-.0625-.08594-.0586-.10546-.04296-.08985-.0586-.08594-.0625-.07421-.0703-.10547-.04688-.08594-.0586-.10547-.04296-.08984-.0625-.10156-.04297-.10547-.04297-.08594-.0586-.10547-.04687-.10547-.04297-.10156-.04687-.08985-.0586-.10156-.04297-.10547-.04296-.08984-.0625-.11719-.02735-.13281-.01562-.13281.01562H299.75l-.13281.01563-.11719-.03125-.08984-.0586-.07422-.07422-.08985-.05859-.10156-.04688h-.14844l-.12109-.02734-.10156-.04297-.07422-.07422-.11719-.17968-.08984-.0586-.10156-.04297-.08985-.0625-.10547-.04296-.08984-.0586-.08594-.0586-.10547-.04687-.0586-.08594-.05858-.08984-.04297-.10547-.04688-.10156-.07422-.07422-.08594-.0586-.07421-.07421-.08985-.0586-.22265-.22265-.04297-.10547-.03125-.26563.10547-.04296h.14453l.10547.04296.07421.07422.08985.0586.08594.0586.10546.04687.08985.05859.14844.14844.0703.07422.14845.14843.0625.08594.07421.07422.08594.0586.07422.07421.08985.0625.08984.0586.08594.05859.26953.17578.10156.04688.10547.04296.10156.04297.04688-.07421.05859-.08594.07422-.07422.07031-.07422.10547.04297.07422.07422.0586.08984.04296.10156.04688.10547.04296.10547.1211.02735.11719-.02735.07421-.08984.04297-.10547.0586-.08985.07422-.07421.10546-.04297.1172-.02735.1328.01172.08985.0586.14844.14843.05859.08985.04297.10547.04687.10156.04297.10547.04297.10156.10547.04688.10547.04296.13281.01563.08594-.0586.0586-.08984.07421-.07422.10547-.04297.11719.02735.10547.04687.10156.04297.10547.04297.10156.04688.17969.11718v.11719l-.01563.13281.01563.13281.01562.13672.0586.08594.10156.04688.1211.02734.11718.03125h.14844l.11719-.03125.05859-.08984.17969-.1172.05859-.08983.07422-.07422.0586-.08594.11718-.17969.17969-.11719.11719.03125.08984.0586.04297.07422-.01563.1328v.1172l.08985.05859h.14843l.13282-.01563.1328-.01171.26563-.03125.10547-.04297.11719-.03125.1211-.02735.07421-.07421.07031-.07422.0625-.08985-.01562-.10547-.04688-.10156-.10156-.04297-.10547-.01562-.11718.02734-.26563.03125h-.14844l-.07421-.07422-.08985-.0586-.11719-.03124-.11718-.02735-.13282-.01562h-.14843l-.13282.01563h-.29687l-.10547-.04688-.14844-.14844-.04297-.10156-.05859-.08984.22266-.22266.08593-.0586.10547-.04296.11719-.03125.13281-.01563.13281.01563.13672.01562.10157.04297.1328-.01172.08985-.0625.10156-.04297.0625-.08984-.04687-.10156-.08984-.0586-.1172-.03125-.10155-.04296-.0586-.08985-.0625-.08984v-.11719l.01563-.13281.10547-.04688.07421-.07031v-.1211l-.08984-.05859-.03125-.11719.08985-.05859.07421-.07422.04297-.10547.0586-.08984.04687-.10156.01563-.13281v-.14844l-.04688-.10547-.04297-.10156-.08984-.0586-.13281-.01562-.10157-.04297-.13671-.01563-.1172-.03125h-.4453l-.13282-.01562-.13281-.01172-.13281-.01563-.11719-.03125h-.14844l-.13281-.01562-.13281-.01172-.26563-.03125-.1211-.04297-.08593-.0586-.07422-.07421v-.14844l.01172-.13281.10547-.04688.10156-.04296.13281-.01563h.15235l.13281-.01562h.29297l.1211.03125.10156.04296.08984.0586.23438.0625.12109-.04688.08984-.05859.10156-.04297.13282-.01562.10547.04296.10156.04688.13281.01172.1211-.02735h.14453l.12109-.03125.11719-.02734.10547-.04687.07421-.07422.08594-.0586.14844-.14843.0586-.08594.04687-.10547.02734-.11719.01563-.10547-.10156-.04296-.08985-.0586-.11719-.03125-.10546-.04297-.08985-.0625-.07422-.08594-.07422-.07421-.10156-.04297-.10547-.04688-.10156-.04297-.0586-.08984-.04687-.10156-.08594-.21094-.0625-.08594-.05859-.08984-.07422-.07422-.08594-.0586h-.26953l-.11719.03126-.08984.05859-.10156.04297-.13281.01562-.10547-.01562-.02735-.11719-.0625-.08984-.11718-.03125-.10157-.04297-.14843-.14844-.03125-.11719-.01563-.10546.07422-.07422.17969-.1172.11719-.02733.11718-.03125.13672.01562.10156.04297.10547.04297.10156.04687.10547.04297.1172.03125.1328.01563.1172.02734.1328.01563.10547-.01563.08985-.0586-.07422-.07421-.10547-.04297-.07422-.07422-.07422-.08984-.14844-.14844-.08593-.0586-.08985-.05859-.07422-.07422-.08984-.0586-.10156-.04687-.1211-.02734-.10156-.04688-.10547-.04296-.11719-.03125-.10156-.04297-.1211-.03125h-.14843l-.11719.03125-.10546.04297-.08594.0625-.17969.11718-.08594.0586-.08984.0586-.10547.04687-.08594.05859-.10547.04297-.10156.04297-.10547.04687-.07422.07422-.05859.08985-.0586.08593-.04687.10547-.0586.08594-.07421.07422-.13281-.01172-.1172-.03125h-.11718l-.07422.07422-.08984.0586-.07422.07421-.08984.0586-.08594.05859-.10547.04687-.10156.04297-.13672.01563-.10156-.04297-.14844-.14844-.10547-.04688h-.08594l-.10547.04688-.10156.04297-.1211.03125-.11718-.03125-.07422-.07422v-.11719l.03125-.1211.07422-.0703.0586-.08985.07421-.07422.11719-.03125.10547-.04296h.29297l.13281-.01563.13672-.01563.10156-.04296.08985-.0586.10156-.04687.08984-.0586.13281-.01171.08985.05859.13281.01172.08984-.0586.08594-.05859.10547-.04297.08984-.0586.08594-.0625.08985-.05859.14843-.14843.0586-.08594.05859-.08985.10547-.04296.13281-.01563.11719.02735.1211.03125.05859-.0586.05859-.08984.03125-.26563.02734-.11719.10547.01172.13281.01563.10157-.04297.08984-.0586.0586-.08984.07421-.07422.0586-.08984.04687-.10156.01172-.13281-.01172-.13282-.04687-.10547-.14844-.14843-.0586-.08985-.05859-.08594-.04297-.10546v-.44532l.01563-.1328v-.14845l.01172-.1328-.0586-.0586-.08984.0586-.10156-.04298-.17969-.11719-.08594-.05859-.0625-.08984-.0586-.08985-.07421-.07421-.08594-.0586-.1211.03125-.10155.01172-.10547.04688-.08594.05859-.10547.04297-.14844.14844-.08984.05859-.08594.0586-.08984.0625-.10547.04296-.13281.01563v-.1211l.10547-.04297.11718-.03125.07422-.0703.04297-.10548v-.14844l-.02734-.11718-.14844-.14844-.13281-.01563h-.14844l-.11719.03125-.10547.04297-.10156.04297-.08984.0625-.11719.02735-.07422-.07422.01172-.13281-.04297-.10157-.04297-.10547-.08984-.05859-.11719.02734-.1211.03125-.11718.03125-.10156.04297-.1211.03125-.10156.04297-.10547.04297-.08984.0586-.10156.01562v-.11719l.01562-.13281-.0586-.08985-.07421.04297-.14844.14844-.0586.08985-.07421.07421-.04688.10547-.04296.10156-.07422.07422-.0586.08985-.07422.07422-.05859.08593-.07422.07422-.08984.0625-.07422.07031-.07422.07422-.10156.01563-.13281.01562-.10547-.04296v-.1211l.14843-.14844.04297-.10156.0586-.08984.04687-.10156.04297-.10547.0586-.08985.03124-.11719.04297-.10156.03125-.1211.02735-.11718.04687-.10547.04297-.10156.04297-.10547.07422-.07031.08984-.0625.08985-.0586.10156-.04296h.29687l.26563-.03125.10547-.04297-.07422-.07422-.11719-.03125-.10547-.04297-.08984-.0586-.10156-.04687-.08985-.0586-.10156-.04296-.10547-.04297-.08984-.0625-.08594-.0586-.10547-.04296-.10156-.04297-.1211-.03125-.11718-.03125-.10157-.04297L297.5 410.25l-.10156-.04297-.08985-.0586-.04296-.10546-.01563-.13281.10156-.04297.13281-.01563.13672.01563.13282-.01563.10156-.04297.0586-.08984.01562-.10547-.08985-.0586-.07421-.07421-.10157-.04297-.08984-.0586-.14844-.14843-.04297-.10547-.01562-.13281v-.29297l-.0586-.08985-.08984-.05859-.07422-.07422-.04297-.10547-.03125-.11718-.0586-.08985-.07421-.07422-.11719-.02734-.07422-.07422-.08984-.0586-.08984-.0625-.08594-.05859-.07422-.07421-.0586-.08594-.04687-.10547-.08594-.0586-.14843-.14843-.19532-.0586-.1328.01563-.10157.04297-.07422.07422-.04688.10156-.04296.10547-.0586.08984-.0586.08594-.29687.29687-.08984.0586h-.08594l-.0625-.08594-.04297-.10547.03125-.11719.0586-.08984.02734-.11719-.01172-.13281-.08984-.0625-.10547.04688-.11719.02734-.11719.03125-.26953.17578-.10156.04688-.11719.02734-.10546.04687-.08985.0586-.10156.04297-.0586-.08594-.04687-.10547.01563-.13281.04687-.10547.07031-.07422.07422-.07031.0586-.08985v-.14843l-.04297-.10547h-.23829l-.10156.04687-.03125.11719-.02734.11719-.03125.1211-.07422.04296-.13281.01563-.07422-.04688-.04297-.10156-.04297-.10547-.04687-.10156-.04297-.10547-.1211.03125-.10156.04297-.13281.01562-.11719.03125-.10547.04297-.08984.0586-.10156.04687-.1211.02734-.13281.01563-.10156-.04297-.0586-.08985-.04687-.10546-.04297-.10157-.04297-.10546v-.1172l.0586-.08984.08593-.05859.17969-.11719.10156-.04687.10547-.04297.10547-.0586.10156-.04296.08985-.0625.10156-.04297.10547-.0586.10156-.04687.08984-.0586.10547-.04296.10156-.04297.08985-.0625.10156-.04297.13672-.01563.11719.03125.10156.04297.1211.03125.10156.04297.10546.04688.10157.04296.10547.04297.10156.04688.10547.04297.10156.04297.10547.04687.08594.0586.10546.04296.1172.03125.10546.04297.10156.04688.08985.0586.10547.04296.10156.04297.10547.04687.11719.02735.10156.04687.1211.02735h.14843l.08594-.0586.01562-.10156.0586-.08984-.02735-.1172-.07422-.07421-.11719-.17969-.07421-.07422-.08985-.07421-.17969-.1172-.08593-.05859-.10547-.04296-.10156-.04688-.26954-.17578-.05859-.08985-.07422-.07421-.0586-.08985-.04296-.10156-.03125-.11719-.01563-.13672v-.5625l-.01171-.1328-.01563-.13282-.03125-.11719-.01562-.13281-.01172-.13281-.03125-.1211-.22266-.22265-.0586-.08594-.01562-.10547.03125-.11719.13281-.01562v-91.41406H172.9922v1.45312l-.0586.23438-.35156 1.05078-.17187.52343-.1172.34766-.17577.41016-.11719.17187-.23438.29297-.23046.0586h-.35157l-.11718.05859-.23047.40625v.29297l.11719.17578.23046.23047.1172.23437.64062.75781.29297.46485.17578.23437.23047.35156.23437.34766.64063.8164.17578.46485.17187.41016.11719.69531.17578.46875.11719 1.39844.0586.46484v.875l.11718 1.04688v4.78125l-.0586.46484-.35156 1.28125-.17578.52344-.11328.41015-.35156.9297L172.93359 336l-.23437.58203-.11719.17578-.17187.34766-.17578.40625-.35157.8164-.0586.29297-.11327.29297-.11719.28906-.0586.17579-.11718.875-.0586.40625-.05859.11718-.0586.17579-.05859.17187-.23047.52734-.11718.17188v.23437l-.11719.23438-.0586.17187-.17577.58594v.28906l-.0586.17579v.29296l-.0586.11329-.05859.52734v.17187l-.05468.23438v2.6211l-.17578.8164-.1172.17578-.17577.23438-.1172.17187-.11327.23438-.58594.93359-.23047.28906-.29297.46485-.17578.23437-.28906.35156-.35156.69922-.11328.23047-.17579.41016-.17578.23046-.40625.52735-.8164.69922-.29297.17187-.28906.23438-.17579.11719-.17578.17578-.52344.40625-.52734.17578-.17187.17578-.23438.05469-.64062.17578h-.75782m12.21094 31.02344l-1.07422.44921.35938.89454 1.25-.71485.44531-.53906-.98047-.08985"/><path fill="#d3d3d3" fill-opacity="0" fill-rule="evenodd" d="M201.50781 416.59766h-.89453l.44922.6289.98047.35938.80469-.08985.4453-.98828-.17577.08985-.71485-.35547-.89453.35547m154.6211 59.0703l-.0586-.52343v-.29297l.11328-.29297.0586-.23046.46875-.46875h.11328l.11719-.11329.11718-.05859h.17579l.23437-.0586h.34766l.23437.0586.11719.0586.23047.17187.0586.17578.11718.58203v.29297l-.11719.17578-.17187.28906-.17579.17579-.52734.52343-.23047.23438-.11719.0586h-.17578l-.11718-.0586-.40625-.29297-.17579-.11719-.11718-.0586-.0586-.11327-.05468-.1172m6.64062-10.95702l-.0586-.17188v-1.10937l.0586-.17188.17578-.0586.17188-.05858h.17578l.23437-.0586.1172.0586.05858.69921-.05859.17188-.11719.17578-.11718.0586-.23438.52343-.11328.0586h-.23438l-.05859-.1172m9.61328-14.39062l-.11719-.17578v-.69922l.29297-.875.1172-.17187.17577-.35156.11328-.23047.1172-.29297.35155-.75781.1172-.23047.17187-.23438h.17578l.11719-.0586h.64062l.11719.0586.23437.23438.17188.11328.35156.29297.11719.11718.11328.17579v.11328l.11719.05859.11718.11719v.69922l-.05859.17578v.23047l-.0586.17578-.34765 1.05078-.11719.23047-.11719.23437-.11718.0586-.23047.23437-.64063.28906h-.875l-.41015-.11718-.64063-.46485"/><path fill="none" stroke="#bebebe" stroke-linecap="round" stroke-linejoin="round" stroke-miterlimit="10" stroke-width=".5" d="M467.95703 311.69531H144.02734v168.625h323.9297v-168.625"/><g clip-path="url(#a)"><path fill="#fff" fill-opacity="0" fill-rule="evenodd" d="M144 475.89063v4.4375h.0039H144v-20.2422 15.8047"/></g><g clip-path="url(#b)"><path fill="#fff" fill-opacity="0" fill-rule="evenodd" d="M144 449.26172v3.75-141.33985h.0039H144v137.58985"/></g><path fill="#50fcfc" fill-rule="evenodd" d="M144 453.01172v7.07422l.0039-.0039v-7.07032H144"/><g clip-path="url(#c)"><path fill="#fff" fill-opacity="0" fill-rule="evenodd" d="M144.0039 480.32813v-20.2461l1.75-1.94531-.73046-4.4375-1.01953-.6875V311.67187h17.75v138.52735l-3.57813 3.5 1 4.4375 1.07422 4.4375 1.5039 1.35937 2.69532-1.35937.26172-4.4375.27344-4.4375-3.23047-3.5V311.67187h8.875v146.125l-.70313.33985.70313.78906.5078-.78906-.5078-.33985v-146.125h13.3164v150.21875l-.64453.6836.64453.35547.97266-.35547-.97266-.6836V311.67188h93.20703v144.8125l-1.6875 1.65235 1.6875 2.23047 4.4375-.82422 1.13282-1.40625-1.13282-.61328-4.4375-1.03906v-144.8125h13.3125V457.9414l-.39843.1953.39843.81642.71485-.81641-.71485-.19531V311.67187h22.19141V456.875l-3.64063 1.26172 3.64063 2.59375 4.4414-.57031 4.4375-1.98047.03126-.04297-.03125-.03125-4.4375-1.14453-4.44141-.08594V311.67187h62.13672v131.40235l-4.375 1.7461-.0625.0664-1.90235 4.375-2.53515 3.35937-.70703 1.07813-3.23828 4.4375 2.79296 4.4375-3.28515 2.54297-2.41406 1.89844 1.95312 4.4375-.86328 4.4375 1.32422.60156 4.4375.58203 2.08984-1.1836-2.08984-2.60156-3.38281-1.83594 3.3828-2.09765 2.1836-2.33985 2.2539-.91406 4.4375.79297.16407.1211 4.01172 4.4375.26563.2578.42187-.2578 4.01563-3.71485 4.4375 1.13281 3.48437-1.85546.51172-4.44141.4414-2.15235 1.27735-2.28515 1.8789-4.4375-.54296-4.4375-2.61329-2.97656-1.42968 2.97656-2.85938 4.4375-.14844.21484-.03906-.21484-2.15234-4.4375-2.2461-2.05078-4.4375-.23047-2.32421-2.16016-2.1172-1.7461V311.67189h62.13673v158.03906l-4.4375.73047-1.46485 1.01171 1.46485.52344 4.4375.21875.92187-.74219-.92187-1.74218V311.67188h31.0664v168.65625h-72.69921l-2.75-4.4297-4.03907 4.4297h-1.30469l-3.53125-2.70313-1.49218 2.70313H144.0039"/></g><path fill="#50fcfc" fill-rule="evenodd" d="M145.7539 458.13672l-1.75 1.94531v-7.07031l1.01954.6875.73047 4.4375m13.42187 0l-1-4.4375 3.57813-3.5 3.23047 3.5-.27344 4.4375-.26172 4.4375-2.69531 1.35937-1.50391-1.35937-1.07422-4.4375m11.45313.78906l-.70313-.78906.70313-.33985.5078.33985-.5078.78906m13.3164 4.0039l-.64453-.35546.64453-.6836.97266.6836-.97266.35547m93.20703-2.5625l-1.6875-2.23047 1.6875-1.65235 4.4375 1.03907 1.13282.61328-1.13282 1.40625-4.4375.82422m13.3125-1.41406l-.39843-.81641.39843-.19531.71485.1953-.71485.81642m22.19141 1.77734l-3.64063-2.59375 3.64063-1.26172 4.4414.08594 4.4375 1.14453.03126.03125-.03125.04297-4.4375 1.98047-4.44141.5703m48.36328 10.72267l-1.95312-4.4375 2.41406-1.89844 3.28515-2.54297-2.79296-4.4375 3.23828-4.4375.70703-1.07813 2.53515-3.35937 1.90235-4.375.0625-.0664 4.375-1.7461v6.9414l-4.4375 2.69922-.86719.98438-2.63672 4.4375 3.5039 3.23828 1.1875 1.19922 3.25 1.77734 3.69532 2.66406.7461.79297.8125-.79296 3.58203-4.44141.04296-.0664 2.03907-4.3711-.22656-4.4375-1.8125-2.36719-4.4375-.15625-4.44141-1.16015v-6.94141l2.11719 1.7461 2.32421 2.16015 4.4375.23047 2.2461 2.05078 2.15234 4.4375.03906.21484.14844-.21484 2.85938-4.4375 1.42969-2.97656 2.61328 2.97656.54296 4.4375-1.8789 4.4375-1.27735 2.28515-.4414 2.15235-.51172 4.4414-3.48438 1.85547-4.4375-1.1328-4.01562 3.71483-.42188.25782-.26562-.25781-4.01172-4.4375-.16406-.1211-4.4375-.79297-2.2539.91406-2.1836 2.33985-3.38281 2.09765 3.3828 1.83594 2.08985 2.60156-2.08984 1.1836-4.4375-.58203-1.32422-.60156.86328-4.4375"/><path fill="#00e8fc" fill-rule="evenodd" d="M370.35547 461.375l-3.5039-3.23828 2.63671-4.4375.86719-.98438 4.4375-2.69921 4.4414 1.16015 4.4375.15625 1.8125 2.36719.22657 4.4375-2.03906 4.3711-.04297.0664-3.58204 4.4414-.8125.79297-.74609-.79296-3.69531-2.66407-3.25-1.77734-1.1875-1.19922"/><g clip-path="url(#d)"><path fill="#50fcfc" fill-rule="evenodd" d="M382.17969 480.32813l1.49219-2.70313 3.53125 2.70313h-5.02344"/></g><g clip-path="url(#e)"><path fill="#50fcfc" fill-rule="evenodd" d="M388.50781 480.32813l4.03906-4.4297 2.75 4.4297h-6.78906"/></g><path fill="#50fcfc" fill-rule="evenodd" d="M432.49219 471.97656l-1.46485-.52344 1.46485-1.01171 4.4375-.73047.92187 1.74219-.92187.74218-4.4375-.21875"/><g clip-path="url(#f)"><path fill="#fff" fill-opacity="0" fill-rule="evenodd" d="M467.9961 480.32813H468V311.67188h-.0039H468v168.65625h-.0039"/></g><path fill="#fff" fill-opacity="0" fill-rule="evenodd" d="M366.48828 475.45313L371 471.74608l-6.32031-7.69921-4.51563 3.70703 6.32422 7.69921"/><path fill-rule="evenodd" d="M364.03125 466.94922l.39453-.32031 3.9961 4.86328-.60938.5-2.84766-3.46875-1.07421.8789-.35157-.42968.39063-.40625.16015-.19922.1211-.21485.0664-.23828.00391-.27344-.07813-.3164-.17187-.375"/><g clip-path="url(#g)"><path fill="none" stroke="#000" stroke-linecap="round" stroke-linejoin="round" stroke-miterlimit="10" stroke-width=".5" d="M147.50781 480.51563l-7.01562-.3711"/></g><g clip-path="url(#h)"><path fill="none" stroke="#000" stroke-linecap="round" stroke-linejoin="round" stroke-miterlimit="10" stroke-width=".5" d="M147.50781 480.51563l1.03516 2.22265"/></g><g clip-path="url(#i)"><path fill="none" stroke="#000" stroke-linecap="round" stroke-linejoin="round" stroke-miterlimit="10" stroke-width=".5" d="M160.82422 480.46484l-7.01953-.27343"/></g><g clip-path="url(#j)"><path fill="none" stroke="#000" stroke-linecap="round" stroke-linejoin="round" stroke-miterlimit="10" stroke-width=".5" d="M160.82422 480.46484l1.07031 2.21094"/></g><g clip-path="url(#k)"><path fill="none" stroke="#000" stroke-linecap="round" stroke-linejoin="round" stroke-miterlimit="10" stroke-width=".5" d="M174.11328 480.77734l-6.96875-.89453"/></g><g clip-path="url(#l)"><path fill="none" stroke="#000" stroke-linecap="round" stroke-linejoin="round" stroke-miterlimit="10" stroke-width=".5" d="M174.11328 480.77734l.86719 2.29297"/></g><g clip-path="url(#m)"><path fill="none" stroke="#000" stroke-linecap="round" stroke-linejoin="round" stroke-miterlimit="10" stroke-width=".5" d="M187.44922 480.60156l-7.00781-.54687"/></g><g clip-path="url(#n)"><path fill="none" stroke="#000" stroke-linecap="round" stroke-linejoin="round" stroke-miterlimit="10" stroke-width=".5" d="M187.44922 480.60156l.97656 2.25"/></g><g clip-path="url(#o)"><path fill="none" stroke="#000" stroke-linecap="round" stroke-linejoin="round" stroke-miterlimit="10" stroke-width=".5" d="M200.77344 480.35547l-7.02735-.05078"/></g><g clip-path="url(#p)"><path fill="none" stroke="#000" stroke-linecap="round" stroke-linejoin="round" stroke-miterlimit="10" stroke-width=".5" d="M200.77344 480.35547l1.13672 2.17187"/></g><g clip-path="url(#q)"><path fill="none" stroke="#000" stroke-linecap="round" stroke-linejoin="round" stroke-miterlimit="10" stroke-width=".5" d="M214.03125 479.6836l-6.91016 1.28906"/></g><g clip-path="url(#r)"><path fill="none" stroke="#000" stroke-linecap="round" stroke-linejoin="round" stroke-miterlimit="10" stroke-width=".5" d="M214.03125 479.6836l1.52734 1.92187"/></g><g clip-path="url(#s)"><path fill="none" stroke="#000" stroke-linecap="round" stroke-linejoin="round" stroke-miterlimit="10" stroke-width=".5" d="M227.40234 480.19922l-7.02343.25781"/></g><g clip-path="url(#t)"><path fill="none" stroke="#000" stroke-linecap="round" stroke-linejoin="round" stroke-miterlimit="10" stroke-width=".5" d="M227.40234 480.19922l1.23047 2.125"/></g><g clip-path="url(#u)"><path fill="none" stroke="#000" stroke-linecap="round" stroke-linejoin="round" stroke-miterlimit="10" stroke-width=".5" d="M240.71484 480.51953l-7.01953-.3789"/></g><g clip-path="url(#v)"><path fill="none" stroke="#000" stroke-linecap="round" stroke-linejoin="round" stroke-miterlimit="10" stroke-width=".5" d="M240.71484 480.51953l1.03125 2.22266"/></g><g clip-path="url(#w)"><path fill="none" stroke="#000" stroke-linecap="round" stroke-linejoin="round" stroke-miterlimit="10" stroke-width=".5" d="M254.01172 479.9336l-6.98047.79296"/></g><g clip-path="url(#x)"><path fill="none" stroke="#000" stroke-linecap="round" stroke-linejoin="round" stroke-miterlimit="10" stroke-width=".5" d="M252.9961 480.04688l.6953 1.01171"/></g><g clip-path="url(#y)"><path fill="none" stroke="#000" stroke-linecap="round" stroke-linejoin="round" stroke-miterlimit="10" stroke-width=".5" d="M266.7461 478.36328l-5.82423 3.9336"/></g><path fill="none" stroke="#000" stroke-linecap="round" stroke-linejoin="round" stroke-miterlimit="10" stroke-width=".5" d="M265.89844 478.9336l1.08594.57812"/><g clip-path="url(#z)"><path fill="none" stroke="#000" stroke-linecap="round" stroke-linejoin="round" stroke-miterlimit="10" stroke-width=".5" d="M279.9961 478.26953l-5.69141 4.1211"/></g><path fill="none" stroke="#000" stroke-linecap="round" stroke-linejoin="round" stroke-miterlimit="10" stroke-width=".5" d="M279.16797 478.86719l1.10156.53906"/><g clip-path="url(#A)"><path fill="none" stroke="#000" stroke-linecap="round" stroke-linejoin="round" stroke-miterlimit="10" stroke-width=".5" d="M293.03906 477.9375l-5.14844 4.78125"/></g><path fill="none" stroke="#000" stroke-linecap="round" stroke-linejoin="round" stroke-miterlimit="10" stroke-width=".5" d="M292.29297 478.63281l1.15625.40235"/><g clip-path="url(#B)"><path fill="none" stroke="#000" stroke-linecap="round" stroke-linejoin="round" stroke-miterlimit="10" stroke-width=".5" d="M307.26953 479.90234l-6.97656.85157"/></g><g clip-path="url(#C)"><path fill="none" stroke="#000" stroke-linecap="round" stroke-linejoin="round" stroke-miterlimit="10" stroke-width=".5" d="M306.2539 480.02734l.70313 1.00391"/></g><g clip-path="url(#D)"><path fill="none" stroke="#000" stroke-linecap="round" stroke-linejoin="round" stroke-miterlimit="10" stroke-width=".5" d="M320.59375 480.66406l-6.9961-.67187"/></g><g clip-path="url(#E)"><path fill="none" stroke="#000" stroke-linecap="round" stroke-linejoin="round" stroke-miterlimit="10" stroke-width=".5" d="M319.57422 480.5664l.47265 1.13282"/></g><g clip-path="url(#F)"><path fill="none" stroke="#000" stroke-linecap="round" stroke-linejoin="round" stroke-miterlimit="10" stroke-width=".5" d="M332.57422 483.09766l-4.32813-5.53516"/></g><g clip-path="url(#G)"><path fill="none" stroke="#000" stroke-linecap="round" stroke-linejoin="round" stroke-miterlimit="10" stroke-width=".5" d="M342.1289 483.46094l3.19141-6.26172"/></g><g clip-path="url(#H)"><path fill="none" stroke="#000" stroke-linecap="round" stroke-linejoin="round" stroke-miterlimit="10" stroke-width=".5" d="M353.82813 481.7539l6.42578-2.85156"/></g><g clip-path="url(#I)"><path fill="none" stroke="#000" stroke-linecap="round" stroke-linejoin="round" stroke-miterlimit="10" stroke-width=".5" d="M354.76563 481.33984l-.96875-.7578"/></g><g clip-path="url(#J)"><path fill="none" stroke="#000" stroke-linecap="round" stroke-linejoin="round" stroke-miterlimit="10" stroke-width=".5" d="M367.67188 482.59766l5.36718-4.53907"/></g><g clip-path="url(#K)"><path fill="none" stroke="#000" stroke-linecap="round" stroke-linejoin="round" stroke-miterlimit="10" stroke-width=".5" d="M382.26172 483.54688l2.82031-6.4375"/></g><g clip-path="url(#L)"><path fill="none" stroke="#000" stroke-linecap="round" stroke-linejoin="round" stroke-miterlimit="10" stroke-width=".5" d="M393.55469 481.08984l6.86328-1.52343"/></g><g clip-path="url(#M)"><path fill="none" stroke="#000" stroke-linecap="round" stroke-linejoin="round" stroke-miterlimit="10" stroke-width=".5" d="M394.55469 480.8711l-.79688-.9336"/></g><g clip-path="url(#N)"><path fill="none" stroke="#000" stroke-linecap="round" stroke-linejoin="round" stroke-miterlimit="10" stroke-width=".5" d="M406.80469 480.66016l6.9961-.66407"/></g><g clip-path="url(#O)"><path fill="none" stroke="#000" stroke-linecap="round" stroke-linejoin="round" stroke-miterlimit="10" stroke-width=".5" d="M407.82031 480.5625l-.67578-1.02344"/></g><g clip-path="url(#P)"><path fill="none" stroke="#000" stroke-linecap="round" stroke-linejoin="round" stroke-miterlimit="10" stroke-width=".5" d="M420.21094 479.47266l6.8125 1.71484"/></g><path fill="none" stroke="#000" stroke-linecap="round" stroke-linejoin="round" stroke-miterlimit="10" stroke-width=".5" d="M421.19922 479.72266l-.29297-1.19141"/><g clip-path="url(#Q)"><path fill="none" stroke="#000" stroke-linecap="round" stroke-linejoin="round" stroke-miterlimit="10" stroke-width=".5" d="M434.14844 478.1875l5.5664 4.28516"/></g><g clip-path="url(#R)"><path fill="none" stroke="#000" stroke-linecap="round" stroke-linejoin="round" stroke-miterlimit="10" stroke-width=".5" d="M450.22656 476.8164l.03906 7.02735"/></g><path fill="none" stroke="#000" stroke-linecap="round" stroke-linejoin="round" stroke-miterlimit="10" stroke-width=".5" d="M450.23438 477.83594l1.07812-.57813"/><g clip-path="url(#S)"><path fill="none" stroke="#000" stroke-linecap="round" stroke-linejoin="round" stroke-miterlimit="10" stroke-width=".5" d="M466.28516 478.10938l-5.44532 4.4375"/></g><path fill="none" stroke="#000" stroke-linecap="round" stroke-linejoin="round" stroke-miterlimit="10" stroke-width=".5" d="M465.49219 478.7539l1.13281.47657"/><g clip-path="url(#T)"><path fill="none" stroke="#000" stroke-linecap="round" stroke-linejoin="round" stroke-miterlimit="10" stroke-width=".5" d="M147.51172 467.01563h-7.02344"/></g><path fill="none" stroke="#000" stroke-linecap="round" stroke-linejoin="round" stroke-miterlimit="10" stroke-width=".5" d="M147.51172 467.01563l1.15234 2.16406m12.11719-2.73438l-6.9336 1.13672m6.9336-1.13672l1.48828 1.94922m11.84375-1.82812l-6.96875.89453m6.96875-.89453l1.42188 2.0039m11.89453-2.00781l-6.96875.90234m6.96875-.90234l1.42187 2m11.875-2.1211l-6.9336 1.14454m6.9336-1.14453l1.48828 1.94922m-2.49609-1.78125l.7461.97265m13.49218-1.51562l-6.76562 1.89453m6.76562-1.89453l1.69531 1.77343m-2.67968-1.5l.84765.89063m13.35938-1.44922l-6.57813 2.46484m6.57813-2.46484l1.83984 1.6211m11.57422-1.32032l-6.77734 1.86328m6.77734-1.86328l1.6836 1.78125m11.6914-1.51562l-6.89844 1.33203m6.89844-1.33203l1.54297 1.91015m11.10937-3.38281l-5.57422 4.27734m5.57422-4.27734l2.23438 1.01563m10.66015-1.47266l-4.73046 5.1914m4.73047-5.1914l2.3789.60547m10.72656-.78516l-4.30859 5.55078m4.3086-5.55078l2.41796.41797m10.78907-.4961l-4.09375 5.70704m3.5-4.8789l1.21484.16405m13.07031-.68359l-4.84765 5.08984m4.14453-4.34765l1.17968.32812m12.85157-1.0586l-4.8711 5.06641m4.16016-4.32812l1.17969.33594m13.60547.0039l-6.39454 2.91016m13.53516-3.3164l5.95703 3.72265m7.1836-.3086l6.30468-3.10546m-5.38672 2.65625l-.99609-.71875m13.13281.44531l6.82813-1.66016m-5.83594 1.41797l-.8164-.91406m14.41015-2.45703l4.28516 5.5664m-3.66016-4.7578l.50781-1.1172m12.17969.3086l4.29297 5.5664m-3.67188-4.7539l.50782-1.1211m11.5078 1l5.64845 4.1836m-4.82813-3.57422l.1836-1.21484m11.86328 1.41406l6.54297 2.5664m-5.58985-2.1914l-.14062-1.21875m13.64453-.66797l4.25781 5.58984m-3.63672-4.77734l.51172-1.11328m15.85156-.0625l-3.07812 6.3164m2.6289-5.39843l1.22657-.04297"/><g clip-path="url(#U)"><path fill="none" stroke="#000" stroke-linecap="round" stroke-linejoin="round" stroke-miterlimit="10" stroke-width=".5" d="M147.51172 453.6875l-7.02344.02344"/></g><path fill="none" stroke="#000" stroke-linecap="round" stroke-linejoin="round" stroke-miterlimit="10" stroke-width=".5" d="M147.51172 453.6875l1.16016 2.16016m12.15625-2.07813l-7.02735-.14453m7.02734.14453l1.10547 2.1914m12.20703-2.39843l-7.01953.27344m7.01953-.27344l1.23438 2.1211m-2.2539-2.08204l.61718 1.0625m13.71094-1.21093l-7.00781.49218m7.0078-.49218l1.30079 2.08203m-2.32031-2.01172l.65234 1.04297m13.63672-1.48047l-6.91797 1.22656m6.91797-1.22656l1.51563 1.92969m-2.51954-1.75391l.75391.96875m13.4375-1.65625l-6.66016 2.2461m6.66016-2.2461l1.78125 1.6875m-2.75-1.35938l.89063.84375m13.1953-1.63671l-6.26562 3.17578m6.26563-3.17578l2.00781 1.41406m11.35156-1.32422l-6.35547 2.9961m6.35547-2.9961l1.96485 1.46875m11.58984-.78906l-6.83203 1.64062m6.83203-1.64062l1.625 1.83593m11.28125-2.83203l-6.01563 3.6289m6.01563-3.6289l2.10547 1.26172m-2.98047-.73437l1.05078.6328m12.83203-1.59374l-5.40234 4.4961m5.40234-4.4961l2.26953.92969m-3.05468-.27344l1.1328.46484m12.78907-1.32031l-5.04297 4.89453m5.04297-4.89453l2.33594.7539m-3.07031-.03906l1.16797.375m12.89453-1.07421l-5.07032 4.86718m5.07032-4.86719l2.32812.76172m11.47266-.12109l-6.04297 3.58594m6.04297-3.58594l2.09765 1.27344m11.1836-1.33203l-5.97656 3.69922m5.97656-3.69922l2.1211 1.23828m10.88671-1.66016l-5.35937 4.54297m5.35937-4.54297l2.28125.91016m10.66016-1.28906l-4.61328 5.30078m3.9414-4.52735l1.19531.27735m8.73047-1.44532l3.50782 6.08985m9.72656-6.03906l3.67187 5.99218m-3.14062-5.1211l.625-1.05468m13.0625-.20703l1.86328 6.77344m-1.58984-5.78906l.89062-.84375m13.80078-.19532l-1.4336 6.8789m1.4336-6.8789l2.35547-.6836m11.33984.78907l-2.19921 6.67188m1.8789-5.70313l1.21094-.20703m7.95703 1.58203l6.73828 1.98438m-5.75781-1.69532l-.25-1.20312m12.45312 2.22656l7-.64062m-5.98046.54687l-.67188-1.02734m19.59766-.79688l-6.25782 3.19532m5.34766-2.73047l1.0039.70312"/><g clip-path="url(#V)"><path fill="none" stroke="#000" stroke-linecap="round" stroke-linejoin="round" stroke-miterlimit="10" stroke-width=".5" d="M147.51172 440.23438l-7.02344.30078"/></g><path fill="none" stroke="#000" stroke-linecap="round" stroke-linejoin="round" stroke-miterlimit="10" stroke-width=".5" d="M147.51172 440.23438l1.24219 2.11328m-2.26563-2.07032l.6211 1.0586m13.71484-.7539l-7.01563-.39845m7.01563.39844l1.02344 2.23047m-2.04688-2.28516l.51563 1.11328m13.82812-1.1875l-7.02734-.13671m7.02734.13672l1.10938 2.1875m-2.13282-2.20704l.5547 1.09375m13.77343-1.38672l-7.00781.48829m7.0078-.48828l1.30079 2.08203m-2.32031-2.01172l.65234 1.03906m13.67969-1.15625l-7.0039.57813m7.0039-.57813l1.32812 2.0664m-2.34765-1.98046l.66406 1.03125m13.57031-1.70313l-6.80469 1.7539m6.8047-1.7539l1.65624 1.8086m11.28516-2.71485l-6.05469 3.5625m6.05469-3.5625l2.09375 1.28125m11.11719-1.44922l-5.84375 3.90235M239.27734 439l1.08203.58203m13.33985-.69531l-6.35547 2.99219m5.42969-2.5586l.98437.73438m13.45313-.64453l-6.75 1.9453m6.75-1.9453l1.70703 1.76562m11.42187-2.26562l-6.3789 2.9453m6.3789-2.9453l1.95313 1.48828m11.39062-1.42188l-6.4375 2.8125m6.4375-2.8125l1.92578 1.52344m-2.85937-1.11328l.96094.76172m13.16406-1.4336l-6.1875 3.33594m6.1875-3.33594l2.03906 1.36329m-2.9414-.875l1.02343.67968m13.16407-1.21875l-6.12891 3.4375m6.1289-3.4375l2.06641 1.32422m-2.95703-.82422l1.03125.66407m13.01172-1.42579l-5.80469 3.96094m5.80469-3.96094l2.17187 1.14063m-3.01562-.5625l1.08594.57031m12.4961-1.80078l-4.64845 5.26953m4.64844-5.26953l2.38672.57031m8.73828-1.44922l-.26953 7.02344m.23047-6l1.10547-.53515M371.30079 437l-1.89063 6.76563m1.61718-5.78125l1.19922-.26172m12.91406-.53125l-2.9414 6.3828m2.51562-5.45312l1.22266-.0703m13.90234.28124l-5.70703 4.10156m4.875-3.5039l1.10156.54297m13.03125-1.16016l-5.67578 4.14063m5.67578-4.14063l2.20704 1.07031m11.57421-.19531l-6.60937 2.39063m6.60937-2.39063l1.82032 1.64844m-2.78125-1.30078l.91015.82422m13.42578-.98047l-6.73046 2.0078m6.73046-2.0078l1.72657 1.74609m-2.70313-1.45312l.85938.87109m13.46093-1.07422l-6.78515 1.83203m6.78515-1.83203l1.67579 1.78906m-2.66407-1.52343l.83594.89453m13.58594-.26172l-7.02735.03515"/><g clip-path="url(#W)"><path fill="none" stroke="#000" stroke-linecap="round" stroke-linejoin="round" stroke-miterlimit="10" stroke-width=".5" d="M467.07422 440.36719l1.16406 2.16015"/></g><g clip-path="url(#X)"><path fill="none" stroke="#000" stroke-linecap="round" stroke-linejoin="round" stroke-miterlimit="10" stroke-width=".5" d="M147.5039 426.79688l-7.0078.54296"/></g><path fill="none" stroke="#000" stroke-linecap="round" stroke-linejoin="round" stroke-miterlimit="10" stroke-width=".5" d="M147.5039 426.79688l1.3125 2.07421m-2.33202-1.99218l.65625 1.03515m13.68359-.98437l-7.01953.27734m7.01953-.27734l1.23828 2.1211m-2.25781-2.07813l.61719 1.05859m13.71875-1.08594l-7.02344.2461m7.02344-.2461l1.22656 2.125m-2.2461-2.08984l.61328 1.0625m13.71875-1.14063l-7.01562.33203m7.01563-.33203l1.2539 2.10938m12.05078-2.29297l-6.99219.69922m6.9922-.69922l1.35937 2.03906m11.9375-2.17969l-6.95703.98047m6.95703-.98047L215.5 428.5625m11.73047-2.58203l-6.67969 2.17578m6.67969-2.17578l1.76562 1.70703m11.53125-1.76172l-6.64453 2.28516m6.64453-2.28516l1.79297 1.67188m11.40625-1.96875l-6.41015 2.8789m6.41015-2.8789l1.9375 1.5078m11.42969-1.3789l-6.51953 2.6211m6.51953-2.6211l1.8789 1.57813m11.375-1.72266l-6.39452 2.91016m5.46484-2.48828l.97265.75m13.3125-1.08594l-6.47265 2.73828m5.53125-2.33984l.94922.77343m13.58203.14454l-7.02344.10546m6.0039-.08984l.58985 1.07422m13.29688-2.75781l-6.12891 3.4414m6.1289-3.4414l2.06641 1.32421m11.10938-1.55078l-5.84766 3.89453m5.84766-3.89453l2.16015 1.16016m10.92188-1.47266l-5.38281 4.51953m5.3828-4.51953l2.27345.92188m11.52343-.17188l-6.34765 3.01953m6.34765-3.01953l1.96875 1.46485m10.98828-2.0586l-5.6289 4.20703m4.8086-3.59375l1.10937.52344m12.28906-1.86719l-4.15625 5.66797m4.15625-5.66797l2.42578.35157M400.5 427.14062l-7.02734-.14453m7.02734.14453l1.10547 2.1875m-2.1289-2.20703l.55468 1.09375m13.69922-1.91406l-6.85547 1.53516m6.85547-1.53516l1.59765 1.85938m-2.59765-1.63672l.80078.92968m13.23047-1.94921l-6.29297 3.1289m6.29297-3.1289l1.9961 1.42578m-2.91016-.96875l1.99609 1.42578m12.07422-2.17188l-5.97266 3.70703m5.97266-3.70703l2.1211 1.23438m-2.9922-.69531l2.1211 1.23437m12.19531-1.54297l-6.23437 3.2461m6.23437-3.2461l2.02344 1.39063m-2.92969-.91797l1.01172.69531m13.4961-.42187l-6.8047 1.7539"/><g clip-path="url(#Y)"><path fill="none" stroke="#000" stroke-linecap="round" stroke-linejoin="round" stroke-miterlimit="10" stroke-width=".5" d="M466.96484 426.1914l1.65625 1.8125"/></g><g clip-path="url(#Z)"><path fill="none" stroke="#000" stroke-linecap="round" stroke-linejoin="round" stroke-miterlimit="10" stroke-width=".5" d="M147.51172 413.60547l-7.02344.29687"/></g><path fill="none" stroke="#000" stroke-linecap="round" stroke-linejoin="round" stroke-miterlimit="10" stroke-width=".5" d="M147.51172 413.60547l1.24219 2.11719m-2.26563-2.07422l.6211 1.0586m13.69921-1.32813l-6.98828.75m6.98828-.75l1.37891 2.02734m-2.39453-1.91797l.6875 1.01563m13.5039-1.79297l-6.71093 2.08593m6.71094-2.08593l1.74609 1.72656m11.60156-1.6211l-6.77344 1.8711m6.77344-1.8711l1.6875 1.78516m11.67188-1.59765l-6.86328 1.5m6.86328-1.5l1.58984 1.87109m11.73438-1.84375l-6.87891 1.44531m6.8789-1.44531l1.57032 1.88281m11.58203-2.42578l-6.55469 2.52734m6.55469-2.52734l1.85547 1.60938m11.375-1.8125l-6.38281 2.9375m5.45312-2.51172l.97656.74218m12.34375-2.3828L248.25 416.4375m3.8789-4.58594l1.19923.25781m11.70703-1.66015l-2.39844 6.60547m2.05078-5.64453l1.21484-.17188m13.3125-.32812l-4.1289 5.6875m3.52734-4.85938l1.21484.17188m9.38672-1.44141l2.5 6.57031m15.57422-3.4961l-7.01562.42188m19.32031-2.68359l-4.99219 4.94531M318.8672 412l1.17187.36328m13.49219-.22656l-6.23828 3.23437m5.32812-2.76562l1.01172.69531m13.57422.9336l-6.96094-.96094m6.96094.96093l.84375 2.3047m12.5039-2.67188l-7.02343-.22657m7.02344.22657l1.07812 2.20312m-2.10156-2.23828l.53906 1.10156m13.73828-1.83593l-6.90625 1.3125m6.90625-1.3125l1.53516 1.91406m-2.53906-1.72266l1.53515 1.91406m12.64063-2.6328l-6.61719 2.36718m6.61719-2.36719l1.8125 1.65235m-2.77735-1.3086l1.81641 1.65235m12.32813-2.32422l-6.34766 3.02343m6.34766-3.02343l1.96875 1.46093m-2.89454-1.01953l1.97266 1.46094m12.1914-2.05078l-6.1953 3.32031m6.1953-3.32031l2.03907 1.36719m-2.9414-.88281l2.03906 1.36328m12.1289-1.9375l-6.09375 3.5m6.09375-3.5l2.07813 1.30468m-2.96485-.79687l1.03907.65234m13.21093-1.07031l-6.1914 3.32031m6.1914-3.32031l2.03907 1.36328m-2.94141-.88281l1.01953.6836m13.26563-1.03516l-6.32422 3.0625m6.32422-3.0625l1.98046 1.44922m-2.90234-1.00391l.99219.72265m13.33203-.97265l-6.5 2.67187"/><g clip-path="url(#aa)"><path fill="none" stroke="#000" stroke-linecap="round" stroke-linejoin="round" stroke-miterlimit="10" stroke-width=".5" d="M466.8125 412.41797l1.88672 1.5625"/></g><path fill="none" stroke="#000" stroke-linecap="round" stroke-linejoin="round" stroke-miterlimit="10" stroke-width=".5" d="M465.86719 412.80469l.9414.78125"/><g clip-path="url(#ab)"><path fill="none" stroke="#000" stroke-linecap="round" stroke-linejoin="round" stroke-miterlimit="10" stroke-width=".5" d="M147.47266 399.90625l-6.94532 1.0625"/></g><path fill="none" stroke="#000" stroke-linecap="round" stroke-linejoin="round" stroke-miterlimit="10" stroke-width=".5" d="M147.47266 399.90625l1.46875 1.96875m11.67578-2.63281l-6.60547 2.39062m6.60547-2.39062l1.82031 1.64453m11.15234-2.33985l-5.92187 3.78125m5.92187-3.78125l2.13672 1.20704m11.54688 1.8125l-6.65625-2.25782m5.6875 1.9297l.19531 1.21093m14.1211-.98828l-6.72266-2.04297m6.72265 2.04297l.47266 2.40625m12.97266-3.02344l-6.98047-.8086m6.98047.8086l.89453 2.28516m-1.91016-2.40235l.44531 1.14063m13.8672-1.94922l-6.94923 1.04297m6.94922-1.04297l1.46094 1.97265m-2.46875-1.8203l.73047.98437m13.52734-1.47656l-6.8164 1.71875m6.8164-1.71875l1.64453 1.8203m-2.63672-1.5703l.82422.91015m13.5039-1.07031l-6.85546 1.53906m6.85547-1.53906l1.59766 1.85937m11.78515-1.42187l-6.99219.66797m6.9922-.66797l1.35546 2.04687m-2.3711-1.94921l.67579 1.02343m13.625-1.3711l-6.92969 1.16407m6.92969-1.16406l1.49219 1.94531m11.83593-1.86328l-6.95703 1m6.95703-1l1.44532 1.98438m11.86718-.98829l-6.95703-.99218m5.94531.84765l.41797 1.15625m13.91407-1.03515l-6.96485-.94532m6.96485.94532l.85156 2.30078m12.4375-2.1289l-6.91016-1.28517m6.91016 1.28516l.73437 2.33985m12.05469-1.04297L340.79688 398.5m5.85937 3.8789l-.23437 2.44141m-.6172-3.00781l-.12109 1.22266m14.77735-1.78907l-6.83985-1.61718m6.83985 1.61718l.6211 2.375m12.78515-3.08593l-7.02344-.19532m7.02344.19532l1.09375 2.19921m-2.11328-2.22656l.54297 1.09766m13.41796-2.75l-6.27343 3.16406m6.27343-3.16406l2.00391 1.41797m-2.91797-.95703l1.0039.70703m13.28126-1.05078l-6.38672 2.93359m6.38672-2.9336l1.94922 1.48438m-2.87891-1.0586l.97656.7422m13.33594-1.01172l-6.52344 2.61718m6.52344-2.61718l1.875 1.58203m-2.82422-1.19922l.9375.78906m13.09766-1.63672l-6.0664 3.54688m6.0664-3.54688l2.08984 1.28906m-2.97265-.77343l1.04687.64453m13.21875-1.03906l-6.19922 3.30468m6.19922-3.30468l2.03516 1.37109m-2.9375-.89063l1.01953.6875m13.29297-.97656l-6.39063 2.92188m6.39063-2.92188l1.94922 1.49219m-2.87891-1.0664l.97266.74609m13.26562-1.1836l-6.3789 2.94532"/><g clip-path="url(#ac)"><path fill="none" stroke="#000" stroke-linecap="round" stroke-linejoin="round" stroke-miterlimit="10" stroke-width=".5" d="M466.75 398.96484l1.95703 1.48438"/></g><path fill="none" stroke="#000" stroke-linecap="round" stroke-linejoin="round" stroke-miterlimit="10" stroke-width=".5" d="M465.82422 399.39453l.97656.74219"/><g clip-path="url(#ad)"><path fill="none" stroke="#000" stroke-linecap="round" stroke-linejoin="round" stroke-miterlimit="10" stroke-width=".5" d="M147.33984 386.02734l-6.67968 2.19141"/></g><path fill="none" stroke="#000" stroke-linecap="round" stroke-linejoin="round" stroke-miterlimit="10" stroke-width=".5" d="M146.36719 386.34766l.88672.84765m13.57422-.05469l-7.02735-.03125m7.02734.03125l1.14454 2.16797m-2.16797-2.17578l.57422 1.08594m13.7578-1.3164l-7.01171.4414m7.01172-.4414l1.28516 2.08593m-2.3047-2.02344l1.28516 2.08985m13.01172-1.36328l-6.9375-1.13672m6.9375 1.13672l.78516 2.32812m-1.79688-2.49219l.78516 2.32422m13.32422-1.39844l-6.5039-2.65625m6.5039 2.65625l.25 2.4375m-1.19531-2.82421l.125 1.21875m14.38672-2.44922l-7.00391.57422m7.0039-.57422l1.32422 2.0664m-2.34375-1.98046l.66016 1.03125m13.64844-1.34375l-6.95313 1.02734m6.95313-1.02735l1.45703 1.97657m11.85547-1.97266l-6.94922 1.01953m6.94922-1.01953l1.45703 1.97266m11.85156-2.03516l-6.9336 1.14453m6.9336-1.14453l1.48828 1.94922m11.75781-2.26172l-6.79687 1.77344m6.79688-1.77344l1.66406 1.80469m11.73828-1.36719l-6.97266.89844m6.97266-.89844l1.41797 2m11.91797-1.32031l-7.01172-.46094m7.01172.46094l1.0078 2.23437m12.23829-1.74609l-6.875-1.4414m6.875 1.4414l.6836 2.35547m-1.6836-2.5664l.34375 1.17968m13.92187-.7539l-6.77734-1.8711m6.77734 1.8711l.53125 2.39452m12.75391-2.29687l-6.71875-2.0664m6.71875 2.0664l.46484 2.40625m12.57422-1.7539l-6.16406-3.3711m6.16406 3.3711l-.02734 2.45312m13.33594-2.4375l-6.15235-3.40235m6.15235 3.40235l-.04297 2.45312m13.7461-4.75l-6.92579 1.19141m6.92578-1.1914l1.5 1.9414m-2.50781-1.76563l.75.96875m13.35547-1.89062l-6.4961 2.6836m6.4961-2.6836l1.89062 1.5625m-2.83593-1.17188l.9453.78125m13.17579-1.47265l-6.21484 3.28515m6.21484-3.28515l2.03125 1.375m-2.9375-.89844l1.01562.6914m13.08594-1.375l-5.97656 3.69923m5.97656-3.69922l2.1211 1.23437m-2.9922-.69531l1.0625.61719m13.15235-1.10938l-6.03125 3.60547m6.03125-3.60547l2.09766 1.26563m-2.97656-.74219l1.05078.63281m13.22656-1.01172l-6.19922 3.31641m6.19922-3.3164l2.03516 1.36718m-2.9375-.88281l1.01953.6836m13.27343-1.01173l-6.35156 3.00391m6.35156-3.0039l1.96875 1.46484M452.5 386.05859l.98047.73047m13.41797-.76953l-6.67188 2.20703"/><g clip-path="url(#ae)"><path fill="none" stroke="#000" stroke-linecap="round" stroke-linejoin="round" stroke-miterlimit="10" stroke-width=".5" d="M466.89844 386.01953l1.77344 1.6914"/></g><path fill="none" stroke="#000" stroke-linecap="round" stroke-linejoin="round" stroke-miterlimit="10" stroke-width=".5" d="M465.92578 386.33984l.88672.84766"/><g clip-path="url(#af)"><path fill="none" stroke="#000" stroke-linecap="round" stroke-linejoin="round" stroke-miterlimit="10" stroke-width=".5" d="M147.5 373.52344l-7 .57031"/></g><path fill="none" stroke="#000" stroke-linecap="round" stroke-linejoin="round" stroke-miterlimit="10" stroke-width=".5" d="M147.5 373.52344l1.32813 2.0664m-2.34375-1.98437l1.32421 2.0664M160.75 374.5547l-6.86719-1.49219m6.86719 1.49219l.66406 2.35937m-1.66406-2.57812l.33203 1.17969m14.0586-1.56641l-7.01954-.28125m7.01953.28125l1.0625 2.21094m-2.08203-2.25l.53125 1.10546m13.8047-1.20703h-7.02345m7.02344 0l1.15234 2.16797m-2.17187-2.16797l.57422 1.08204m13.7539-1.29688l-7.01171.42969m7.01172-.42969l1.28515 2.09375m-2.30469-2.03125l.64063 1.04688m13.69922-1.00391l-7.02344.21875m7.02344-.21875l1.21875 2.1289m12.08594-2.30859l-7 .57813m7-.57813l1.32812 2.0664m11.88672-2.66406l-6.80078 1.77344m6.80078-1.77344l1.66016 1.8047m11.76171-1.10548l-7.01562.3711m7.01562-.3711l1.26563 2.10547m12.04687-2.1914l-7.0078.54687m7.0078-.54687l1.31641 2.0703m11.97656-2.27343l-6.96484.95313m6.96484-.95313l1.4336 1.98828m11.84765-.84765l-6.89844-1.32813m6.89844 1.32813l.72266 2.34375m12.60547-2.41016l-6.92188-1.19922m6.92188 1.19922l.76562 2.33203m12.46875-1.97656l-6.76172-1.90625m6.76172 1.90625L321 377.15625m12.72266-2.17969l-6.625-2.33594m6.625 2.33594l.36718 2.42578m12.9375-2.39062l-6.60156-2.40625m6.60156 2.40625l.33985 2.42969m13.10156-2.85938l-6.85547-1.54687m6.85547 1.54687l.64453 2.36719m-1.64062-2.59375l.3203 1.1836m14.07813-1.75391l-7.02734.04687m7.02734-.04687l1.16407 2.16015m-2.1875-2.15234l.58203 1.07812m13.66406-1.86328l-6.84375 1.60156m6.84375-1.60156l1.61328 1.84766m-2.60937-1.61328l.80859.92187m13.3711-1.58203l-6.58204 2.45313m6.58203-2.45313l1.83594 1.6289m-2.79297-1.26952l.91797.8125m13.22656-1.47657l-6.32812 3.0625m6.32812-3.0625l1.98047 1.44922m-2.90234-1.0039l.99219.72656m13.01953-1.57031l-5.875 3.85937m5.875-3.85937l2.15234 1.17968m11.46484-.60937l-6.48046 2.71875m6.48046-2.71875L442.07031 374m-2.83984-1.15625l.94922.77734m13.16406-1.47265l-6.19531 3.32031m6.19531-3.32031l2.03906 1.36719m11.41016-1.08985l-6.46094 2.76563"/><g clip-path="url(#ag)"><path fill="none" stroke="#000" stroke-linecap="round" stroke-linejoin="round" stroke-miterlimit="10" stroke-width=".5" d="M466.79297 372.42578l1.91015 1.53516"/></g><g clip-path="url(#ah)"><path fill="none" stroke="#000" stroke-linecap="round" stroke-linejoin="round" stroke-miterlimit="10" stroke-width=".5" d="M147.5039 360.23047l-7.0078.52344"/></g><path fill="none" stroke="#000" stroke-linecap="round" stroke-linejoin="round" stroke-miterlimit="10" stroke-width=".5" d="M147.5039 360.23047l1.3086 2.07422m-2.32813-1.9961l.65625 1.03516m13.64063-1.42188l-6.9336 1.14454m6.9336-1.14454l1.48828 1.94922m-2.4961-1.78515l.7461.97656m13.57422-1.15625l-6.92969 1.17188m6.92969-1.17188l1.4961 1.94531m11.52343-2.875l-6.33984 3.03125m6.33984-3.03125l1.97656 1.45703m10.31641-2.72265l-4.29297 5.5664m4.29297-5.5664l2.41797.41015m10.23828-.80859l-2.97656 6.36328m2.97656-6.36328l2.45313-.1289m12.5664 1.83984l-6.38281 2.9375m5.45312-2.50781l.97657.74218m13.55468-.19922l-6.95703.9922m5.94531-.84767l.72266.9922m13.47656.42577l-6.69922-2.1289m5.72266 1.8164l.22266 1.20704m14.08203-.94532l-6.72656-2.02734m6.72656 2.02734l.48047 2.40625m12.65625-1.9414l-6.3711-2.96094m5.44532 2.53125l.0664 1.22656m14.375-1.34375l-6.77344-1.86719m6.77344 1.8672l.53516 2.39452m12.67187-2.0586l-6.55468-2.53515m6.55468 2.53516l.29297 2.4336m13.08985-2.62891l-6.69141-2.14454m6.6914 2.14454l.4375 2.41406m12.8672-2.38281l-6.67188-2.21094m6.67187 2.21094l.41016 2.42187m12.78906-2.1211l-6.4414-2.80859m6.4414 2.8086l.1914 2.44531m-1.1289-2.85547l.09766 1.22266m14.3125-1.25l-6.7539-1.9375m6.7539 1.9375l.51172 2.40234m-1.49219-2.6836l.2539 1.19923m14.15626-1.48047l-6.98047-.8086m6.98047.8086l.89453 2.28125m-1.91016-2.39844l.44531 1.14063m13.84766-2.07032l-6.90625 1.28516m6.90625-1.28516l1.53125 1.91797m-2.53516-1.73047l.76563.95703m13.5039-1.36718l-6.80859 1.72656m6.8086-1.72656l1.65234 1.8164m-2.64063-1.5664l.82422.91015m13.44531-1.29297l-6.73828 1.9922m6.73828-1.9922l1.71875 1.75391m-2.69921-1.46094l.85937.875m13.42188-1.21094l-6.71094 2.08204m6.71094-2.08204l1.74218 1.72657m-2.71875-1.42578l.8711.86328m13.46875-.99219l-6.8086 1.73438m6.8086-1.73438l1.65234 1.8164m-2.64453-1.5625l.82812.90626m13.33985-1.59375l-6.52735 2.60546m6.52735-2.60546l1.8711 1.58593m-2.82423-1.20703l.9375.79297m12.97657-1.83594l-5.82422 3.9336"/><g clip-path="url(#ai)"><path fill="none" stroke="#000" stroke-linecap="round" stroke-linejoin="round" stroke-miterlimit="10" stroke-width=".5" d="M466.47266 358.52734l2.16796 1.15235"/></g><g clip-path="url(#aj)"><path fill="none" stroke="#000" stroke-linecap="round" stroke-linejoin="round" stroke-miterlimit="10" stroke-width=".5" d="M147.27734 345.91406l-6.55468 2.52735"/></g><path fill="none" stroke="#000" stroke-linecap="round" stroke-linejoin="round" stroke-miterlimit="10" stroke-width=".5" d="M147.27734 345.91406l1.85547 1.60547m11.0586-2.35937l-5.75391 4.03515m5.7539-4.03515l2.1875 1.11328m10.71876-1.59766l-4.9375 5.0039m4.21875-4.27343l1.17578.35156m10.42578-2.09375l-.07031 7.02735m.0703-7.02735l2.1797-1.1289m10.33203 1.21484l1.53515 6.85547M196.4922 343.75l1.86328-1.59766m13.24219 1.66407l-2.04297 6.72265m1.7461-5.7461l1.20312-.23437m14.58984 1.17579l-6.40625 2.89062m5.47266-2.47266l.97265.75m13.45703 1.21485l-6.76953-1.875m6.76953 1.875l.53516 2.39453m12.6289-1.96094l-6.46874-2.7461m6.46875 2.7461l.21484 2.44531m13.27734-2.96484l-6.8203-1.70703m6.8203 1.70703l.58985 2.3789m12.75781-2.52343l-6.88281-1.41797m6.88281 1.41797l.6875 2.35547M293.5 348.94922l-6.07031-3.53906m6.07031 3.53906l-.09375 2.44922m13.04297-1.9375l-5.33985-4.5664m5.33985 4.5664l-.53125 2.39453m14.35547-3.17969l-6.35547-2.9961m6.35547 2.9961l.1211 2.44922m13.40624-3.02734l-6.78125-1.83985m6.78125 1.83985l.54688 2.39453m12.72656-2.25l-6.69531-2.125m6.6953 2.125l.44532 2.41015m12.85156-2.35156l-6.66015-2.2461m6.66015 2.2461l.39844 2.41797m-1.36719-2.7461l.19922 1.21094m14.21094-1.3828l-6.91406-1.2461m6.91406 1.2461l.75 2.33983m-1.7539-2.51953l.375 1.16797m13.99609-1.77344l-7.01953.32813m7.01953-.32813l1.2539 2.10938m-2.27343-2.0625l1.25 2.10938m12.99218-2.82032l-6.83203 1.65235m6.83203-1.65235l1.62891 1.83594m-2.625-1.59375l.8164.91797m13.48829-1.1875l-6.8164 1.70703m6.8164-1.70703l1.64062 1.82422m-2.63281-1.57422l.82031.91015m13.4414-1.3164L420.25 348.1875m6.73047-2.01953l1.72656 1.7461m-2.70312-1.45313l1.72265 1.7461m12.57031-2.04298l-6.73046 2.03125m6.73046-2.03125l1.72657 1.73828m-2.70703-1.4453l.86328.87108m13.29687-1.53125l-6.46094 2.76172m6.46094-2.76171l1.91016 1.53906m-2.84766-1.13672l.95313.76953m13.14453-1.49219l-6.14844 3.40235"/><g clip-path="url(#ak)"><path fill="none" stroke="#000" stroke-linecap="round" stroke-linejoin="round" stroke-miterlimit="10" stroke-width=".5" d="M466.63672 345.47656l2.05469 1.33594"/></g><path fill="none" stroke="#000" stroke-linecap="round" stroke-linejoin="round" stroke-miterlimit="10" stroke-width=".5" d="M465.74219 345.97266l1.02734.66796"/><g clip-path="url(#al)"><path fill="none" stroke="#000" stroke-linecap="round" stroke-linejoin="round" stroke-miterlimit="10" stroke-width=".5" d="M146.16406 331.09766l-4.32812 5.53125"/></g><path fill="none" stroke="#000" stroke-linecap="round" stroke-linejoin="round" stroke-miterlimit="10" stroke-width=".5" d="M146.16406 331.09766l2.41797.42578m10.82813-.48047l-4.19141 5.64062m4.1914-5.64062l2.42579.3711m9.58594-.97266l-1.58204 6.84375m1.58203-6.84375l2.3711-.63672m10.34766.55078l-.39063 7.01562m.33203-5.99609l1.11328-.51563m12.70313-.45312l-1.27735 6.91016m1.09375-5.90235l1.16797-.3711m15.10547 3.65626l-6.82422-1.67188m5.83203 1.4297l.30078 1.1875m13.98438-.85548L220.5 332.9375m6.78125 1.85156l.53906 2.39453m12.73828-2.27343l-6.70703-2.09375m6.70703 2.09375l.45703 2.41015m12.67188-1.9336l-6.33203-3.04687m6.33203 3.04688l.09766 2.44922m13.21875-2.45313l-6.33594-3.03906m6.33594 3.03906l.10156 2.45313M280.5 334.92578l-6.69922-2.125m6.69922 2.125l.4414 2.41406m12.8125-2.23437l-6.57421-2.48438m6.57422 2.48438l.30859 2.4336m12.34766-1.34376l-5.25782-4.66406m5.25782 4.66406l-.57813 2.38281m13.8711-2.36328l-5.21485-4.70312m5.21485 4.70312l-.59375 2.38282m14.3125-2.92579l-6.02344-3.62109m6.02344 3.6211l-.12891 2.45312m13.72266-3.02344l-6.57813-2.47656m6.57813 2.47656l.3125 2.4336m13.05078-2.57422l-6.67578-2.19531m6.67578 2.1953l.41797 2.41798m-1.39063-2.73829l.21094 1.21094m14.23828-1.67187l-7-.63281m7 .6328l.95312 2.26173m-1.97265-2.35547l.47656 1.13281m13.78516-2.13672l-6.85157 1.5625m6.85157-1.5625l1.60547 1.85547m11.75-1.64844l-6.9336 1.14844m6.9336-1.14844l1.49218 1.94922m11.83203-1.89062l-6.95312 1.03125m6.95312-1.03125l1.45704 1.97656m11.82421-2.16406l-6.88671 1.40625m6.88671-1.40625l1.5625 1.89453m-2.5625-1.6875l.78125.94531m13.33594-1.79688l-6.48828 2.69532m6.48828-2.69531l1.89453 1.55859m-2.83984-1.16797l1.89453 1.5625m12.27734-2.15234l-6.3125 3.09375m6.3125-3.09375l1.98829 1.4414m-2.90625-.99219l1.98828 1.44141m12.10547-2.14844l-6.03125 3.60938"/><g clip-path="url(#am)"><path fill="none" stroke="#000" stroke-linecap="round" stroke-linejoin="round" stroke-miterlimit="10" stroke-width=".5" d="M466.57813 332.0586l2.09765 1.26952"/></g><g clip-path="url(#an)"><path fill="none" stroke="#000" stroke-linecap="round" stroke-linejoin="round" stroke-miterlimit="10" stroke-width=".5" d="M465.69922 332.58594l2.10156 1.26562"/></g><g clip-path="url(#ao)"><path fill="none" stroke="#000" stroke-linecap="round" stroke-linejoin="round" stroke-miterlimit="10" stroke-width=".5" d="M146.8125 318.4414l-5.625 4.21094"/></g><path fill="none" stroke="#000" stroke-linecap="round" stroke-linejoin="round" stroke-miterlimit="10" stroke-width=".5" d="M145.9961 319.05469l1.10937.52344m12.3164-1.83985l-4.21484 5.6211m4.21484-5.6211l2.42579.3789m11.3164-.0039l-5.0664 4.86719m5.0664-4.86719l2.33203.76563m11.83203.72265l-6.76562 1.89453m6.76563-1.89453l1.6953 1.77344m-2.67968-1.5l.84766.89063m13.58203-.14063l-7.02735-.15234m7.02735.15234l1.10547 2.1914m-2.12891-2.21484l.55469 1.09766m13.78125-1.0039l-7.01953-.29298m7.01953.29297l1.0586 2.21094m-2.08204-2.2539l.53125 1.10546m13.77344-.71094l-6.95313-.99609m6.95313.9961l.83203 2.30859m-1.84375-2.45313l.41797 1.15235m13.85937-.73047l-6.85547-1.55469m6.85547 1.55469l.64453 2.36719m-1.64062-2.59375l.32031 1.18359m14.04297-1.25l-6.96094-.96875m6.96094.96875l.84375 2.30469m12.32813-1.6836L260.5 319.44531m6.67188 2.20703l.41015 2.41797m12.53516-1.63672l-5.9336-3.76953m5.9336 3.76953l-.1914 2.44532m13.74609-2.89063l-6.41016-2.88281m6.41015 2.88281l.16016 2.44922m12.89453-1.97656l-5.89062-3.82813m5.03515 3.27344l-.10937 1.22266m14.07422-.37891l-5.47656-4.40234m5.47656 4.40234l-.46094 2.41016m14.02734-2.76954l-5.98046-3.6875m5.98046 3.6875l-.15625 2.44922m13.21485-2.08984l-5.47266-4.40625m4.67969 3.76563l-.23047 1.20703m13.39063.2578l-3.57422-6.05077m3.05468 5.16797l-.64062 1.04687m15.94922-1.8789l-6.51953-2.6211m5.5703 2.23828l.12892 1.21875m14.26953-3.0586l-6.78907 1.82032m6.78907-1.82031l1.67187 1.79297m11.75781-1.0586l-7.01953.35547m5.9961-.30469l.6328 1.0547m12.4336 1.78124l-4.47265-5.42187m18.6289 4.40625l-6.15625-3.39063m19.85938 1.13281l-6.9336 1.12891m5.92579-.96484l.74218.97656m13.26563-2.1289l-6.30469 3.10546m6.30469-3.10547l1.99219 1.4336m-2.91016-.98438l.9961.71875m12.73046-1.92969l-5.28906 4.62891"/><g clip-path="url(#ap)"><path fill="none" stroke="#000" stroke-linecap="round" stroke-linejoin="round" stroke-miterlimit="10" stroke-width=".5" d="M466.20703 318.23438l2.29297.87109"/></g><path fill="none" stroke="#000" stroke-linecap="round" stroke-linejoin="round" stroke-miterlimit="10" stroke-width=".5" d="M465.4375 318.90625l2.29297.875"/><path fill="#00f" fill-rule="evenodd" d="M383.80078 467.64844h8.61719V457.5039h-8.61719v10.14453"/><path fill="azure" fill-rule="evenodd" d="M385.63281 459.33594h.83203v2.82422h3.28907v-2.82422h.83203v6.48047h-.83203v-2.91797h-3.28907v2.91797h-.83203v-6.48047"/><path fill="#00f" fill-rule="evenodd" d="M326.10156 436.57813h8.61719v-10.14454h-8.61719v10.14454"/><path fill="azure" fill-rule="evenodd" d="M327.9336 428.26563h.83593v2.82421h3.28516v-2.82421h.83203v6.48046h-.83203v-2.91406h-3.28516v2.91406h-.83594v-6.48046"/><path fill="#00f" fill-rule="evenodd" d="M383.80078 432.14063h8.61719v-10.14454h-8.61719v10.14454"/><path fill="azure" fill-rule="evenodd" d="M385.63281 423.82813h.83203v2.82421h3.28907v-2.82421h.83203v6.48046h-.83203v-2.91796h-3.28907v2.91796h-.83203v-6.48046"/><path fill="#ff3030" fill-rule="evenodd" d="M291.28906 414.38672h7.6914v-10.14453h-7.6914v10.14453"/><path fill="azure" fill-rule="evenodd" d="M293.1211 406.07422h.83593v5.74219h3.1914v.73828h-4.02734v-6.48047"/><path fill="#ff3030" fill-rule="evenodd" d="M184.76953 392.19531h7.6914v-10.14453h-7.6914v10.14453"/><path fill="azure" fill-rule="evenodd" d="M186.60156 383.88281h.83203v5.73828h3.19532v.7422h-4.02735v-6.48048"/><path fill="#ffffe0" fill-rule="evenodd" d="M332.86719 384.94531h22.17969v-10.1914h-22.1797v10.1914"/><path fill-rule="evenodd" d="M336.36719 376.58594h.50781v6.29297h-.78516v-4.48829h-1.39062v-.55468l.5625-.0664.25-.0547.23047-.08984.20312-.14063.17578-.21093.14063-.29297.10547-.39453m4.8125 0l.23047.01953.21875.05469.20703.08984.19531.1211.1875.14843.16797.17578.30469.41797.24218.4961.1797.54687.11327.57813.03516.58984-.03516.59375-.11328.58594-.17969.55078-.24218.5039-.3047.4297-.16796.17968-.1875.15234-.19531.1211-.20703.09375-.21875.05468-.23047.02344-.23047-.02344-.21875-.05468-.20703-.09375-.19531-.1211-.1836-.15234-.17187-.17969-.30079-.42969-.24609-.5039-.17969-.55078-.10937-.58594-.03906-.59375h.83203l.03125.5625.08203.50781.125.4414.16015.375.19141.30079.21094.22265.22265.13672.22657.04688.22656-.04688.22266-.13671.21093-.22266.19141-.30078.16016-.375.1289-.4414.08203-.50782.02735-.5625-.02735-.5586-.08203-.5039-.1289-.4336-.16016-.36718-.1914-.28906-.21094-.21485-.22266-.13281-.22656-.04297-.22656.04297-.22266.13281-.21094.21485-.1914.28906-.16016.36719-.125.43359-.08203.5039-.03125.5586h-.83203l.03906-.58985.10937-.57812.1797-.54688.24608-.49609.30079-.41797.17187-.17578.1836-.14844.1953-.12109.20704-.08984.21875-.0547.23047-.01952m5.09375 0h.50781v6.29297h-.78906v-4.48829h-1.38672v-.55468l.5586-.0664.2539-.0547.23047-.08984.20312-.14063.17188-.21093.14062-.29297.10938-.39453m2.82031 2.17578h.78906l.01953-.3164.0586-.28907.09765-.25.14063-.21484.1836-.17579.22265-.1289.26562-.07813.3086-.02734.23437.01953.22656.0625.20313.10156.17969.13672.14844.17578.11328.20313.0703.23828.02735.26563-.02344.26562-.0664.22656-.10938.1914-.15625.17188-.19921.16016-.2461.16797-.63672.38672-.53515.3164-.4375.31641-.34766.32422-.26172.33594-.1914.35156-.125.36719-.07032.39453-.01953.41797h4.21094v-.73829h-3.33203l.08203-.28515.11328-.23828.14844-.19922.1875-.17969.23047-.17187.28125-.17579.71484-.41796.41797-.20313.34375-.23437.28125-.25.21875-.26563.16406-.27734.10938-.28516.0664-.28515.01953-.28125-.04296-.38282-.1211-.34765-.1875-.3086-.25-.26172-.30078-.21484-.34766-.15625-.3789-.10156-.40625-.03125-.4375.03125-.39844.09765-.35547.16797-.30469.23438-.24609.30469-.1875.375-.11328.4453-.04297.51954"/><path fill="#ffffe0" fill-rule="evenodd" d="M261.85547 432.16406h22.17969v-10.1914h-22.1797v10.1914"/><path fill-rule="evenodd" d="M265.35156 423.80469h.51172v6.29687h-.78906v-4.48828h-1.38672v-.5586l.5586-.0625.2539-.05468.22656-.08984.20313-.14063.17578-.21094.14062-.29296.10547-.39844m4.8164 0l.22657.01953.21875.0586.21094.08593.19531.1211.1836.15234.17187.17578.30078.41797.2461.49219.17968.54687.10938.58203.03906.58985-.03906.59375-.10938.58203-.17969.55468-.24609.50391-.30078.42578-.17188.17969-.18359.15234-.19531.125-.21094.09375-.21875.05469-.22656.01953-.23047-.01953-.21875-.05469-.20703-.09375-.19922-.125-.1836-.15234-.17187-.17969-.30078-.42578-.24219-.5039-.17969-.5547-.11328-.58202-.03906-.59375h.83594l.02734.5625.08203.5078.125.44141.16407.375.1914.30079.21094.21875.22266.13671.22656.04688.22656-.04688.22266-.13671.21094-.21875.1875-.30079.16406-.375.125-.4414.08203-.50781.03125-.5625-.03125-.5625-.08203-.5-.125-.4336-.16406-.36719-.1875-.29296-.21094-.21485-.22266-.1289-.22656-.04688-.22656.04688-.22266.1289-.21094.21485-.1914.29296-.16407.3672-.125.43358-.08203.5-.02734.5625h-.83594l.03906-.58984.11329-.58203.17968-.54688.24219-.49218.30078-.41797.17188-.17578.18359-.15235.19922-.12109.20703-.08594.21875-.0586.23047-.01952m5.08984 0h.50781v6.29687h-.78515v-4.48828h-1.39063v-.5586l.5625-.0625.25-.05468.23047-.08984.20313-.14063.17578-.21094.14062-.29296.10547-.39844m2.82422 2.17578h.78516l.01953-.3164.0586-.28516.10156-.25391.14062-.21484.17969-.17188.22265-.1289.26563-.08204.3086-.02734.23827.02344.22266.0625.20313.10156.17968.13672.14844.17187.11328.20704.07422.23828.02344.26171-.01953.26954-.06641.22656-.10938.1914-.15625.16797-.20312.16407-.2461.16796-.6328.38672-.53907.3125-.4375.31641-.34375.32422-.26562.33594-.19141.35156-.125.3711-.0664.39452-.02344.41797h4.21484v-.74219h-3.33594l.08594-.28125.11328-.23828.14844-.20312.1875-.17969.23047-.17187.27734-.17579.71875-.41406.41406-.20703.34375-.23047.28125-.25.22266-.26953.16016-.27734.11328-.28125.0625-.28516.01953-.28125-.03906-.38672-.1211-.34765-.1914-.3047-.25-.26562-.30079-.21093-.34375-.16016-.3828-.09766-.40626-.03515-.4336.03515-.39843.09766-.35547.16797-.30469.23437-.25.3047-.18359.37108-.11719.44922-.03906.51563"/><path fill="#ffffe0" fill-rule="evenodd" d="M328.42969 343.48438h22.17969v-10.19141h-22.1797v10.1914"/><path fill-rule="evenodd" d="M331.92969 335.125h.50781v6.29688h-.78516v-4.4922h-1.39062v-.55468l.5586-.0664.2539-.05079.23047-.08984.20312-.14063.17188-.21093.14453-.29688.10547-.39453m4.8125 0l.23047.01953.21875.05469.20703.08984.19531.1211.1836.14843.17187.17579.30469.42187.24218.49219.1797.54687.10937.57813.03906.59375-.03906.58984-.10938.58594-.17969.55469-.24218.5-.3047.42968-.17187.1797-.18359.15233-.19531.125-.20703.08985-.21875.0586-.23047.01952-.23047-.01953-.21875-.0586-.20703-.08983-.19531-.125-.1836-.15235-.17187-.17969-.3047-.42968-.24218-.5-.17969-.5547-.10937-.58593-.03906-.58984h.83203l.02734.5625.08203.5039.1289.44532.16017.375.1914.29687.21094.22266.22265.13672.22657.04687.22656-.04687.22266-.13672.21093-.22266.19141-.29687.16016-.375.1289-.44532.07813-.5039.03125-.5625-.03125-.5625-.07813-.5-.1289-.4375-.16016-.36328-.1914-.29297-.21094-.21485-.22266-.1328-.22656-.04298-.22656.04297-.22266.13281-.21094.21485-.1914.29297-.16016.36328-.1289.4375-.08204.5-.02734.5625h-.83203l.03906-.59375.10937-.57813.1797-.54687.24218-.49219.30469-.42188.17187-.17578.1836-.14843.1953-.1211.20704-.08984.21875-.05469.23047-.01953m5.08984 0h.51172v6.29688h-.78906v-4.4922h-1.38672v-.55468l.5586-.0664.2539-.05079.22656-.08984.20313-.14063.17578-.21093.14062-.29688.10547-.39453m6.80469 1.6211h-.78516l-.05078-.21094-.08203-.1875-.10938-.16016-.1289-.1289-.14844-.10548-.16015-.07421-.16797-.04297-.17188-.01563-.32812.03906-.28516.1211-.2461.19531-.20312.26953-.16406.33594-.11328.40625-.07031.46484-.02344.52735.1875-.20313.1875-.15625.1836-.125.1875-.08594.1875-.0625.1914-.03515.40234-.02344.30469.02735.32031.09375.3164.15625.29688.21875.2539.28515.19923.34766.07422.20312.05078.21485.03125.23437.0039.2539-.78906.04688-.02734-.26172-.07813-.25-.1211-.23437-.16015-.21094-.1914-.17578-.22266-.13672-.23828-.08984-.2539-.03125-.25782.03125-.23828.08984-.22266.13672-.1914.17578-.16016.21094-.1211.23437-.07812.25-.02734.26172.02734.25781.07813.25.12109.23438.16016.21094.1914.17969.22266.13671.23828.08594.25781.03125.2539-.03125.23829-.08594.22266-.13671.1914-.1797.16016-.21093.1211-.23438.07812-.25.02734-.2578.78906-.04688-.03125.3711-.09375.37108-.15625.35938-.22265.32813-.28906.28125-.17188.12109-.1875.10156-.20703.08203-.22266.0625-.24219.03906-.2578.01172-.28516-.01562-.26172-.04688-.23438-.07812-.21875-.10547-.1914-.1289-.17579-.15626-.15234-.17968-.13672-.20313-.11719-.22265-.09765-.2422-.14844-.53515-.08594-.59375-.02734-.64062.03906-.7422.11719-.66405.1836-.57813.12109-.2539.13672-.23047.15234-.20704.17188-.18359.1875-.15625.19921-.1289.21875-.10157.23438-.07031.2461-.04688.26171-.01562.36719.03516.33203.09375.29688.15234.2539.19922.21094.24219.16797.27343.11328.30079.0625.32421"/><path fill="#ffffe0" fill-rule="evenodd" d="M177.52344 344.01953h22.1836v-10.1914h-22.1836v10.1914"/><path fill-rule="evenodd" d="M181.02344 335.66016h.51172v6.29687h-.78907v-4.48828h-1.38672v-.5586l.5586-.0625.25-.05468.23047-.08985.20312-.14062.17578-.21094.14063-.29297.10547-.39843m4.8125 0l.23047.01953.21875.0586.20703.08593.19922.1211.18359.15234.17188.17578.30078.41797.24218.49218.1797.54688.11327.58203.03906.58984-.03906.59375-.11328.58204-.17969.55468-.24218.5039-.30078.42579-.17188.17969-.1836.15234-.19921.125-.20703.09375-.21875.05469-.23047.01953-.22656-.01953-.21875-.05469-.21094-.09375-.19531-.125-.1836-.15234-.17187-.17969-.30078-.42578-.2422-.5039-.17968-.5547-.11328-.58203-.03906-.59375h.83593l.02735.5625.08203.50782.125.4414.16406.375.1914.30078.21095.21875.22265.13672.22266.04688.22656-.04688.22266-.13672.21093-.21875.19141-.30078.16406-.375.125-.4414.08203-.50782.02735-.5625-.02735-.5625-.08203-.5-.125-.43359-.16406-.36719-.1914-.29297-.21094-.21484-.22266-.1289-.22656-.04688-.22266.04687-.22266.12891-.21093.21484-.1914.29297-.16407.36719-.125.4336-.08203.5-.02735.5625h-.83593l.03906-.58985.11328-.58203.17969-.54688.24219-.49218.30078-.41797.17187-.17578.1836-.15235.1953-.1211.21095-.08593.21875-.0586.22656-.01952m5.09375 0h.50781v6.29687h-.78516v-4.48828h-1.39062v-.5586l.5625-.0625.25-.05468.23047-.08985.20312-.14062.17578-.21094.14063-.29297.10547-.39843m6.80469 1.62109h-.78907l-.05078-.21094-.08203-.1875-.10547-.15625-.13281-.13281-.14453-.10156-.16016-.07422-.16797-.04688-.17187-.01562-.32813.04297-.28906.11719-.2461.1953-.20312.26954-.16016.33984-.11718.40235-.07031.46875-.02344.52734.1914-.20313.1836-.16015.1875-.1211.1836-.08984.1875-.0625.1953-.03515.39844-.02344.3086.03125.3203.08984.31641.15625.29297.21875.25781.28516.19922.35156.07032.19922.05468.21875.02735.23437.0039.25-.78515.04688-.02735-.25781-.07812-.25391-.1211-.23438-.16015-.20703-.19531-.17968-.21875-.13672-.2422-.08985-.2539-.02734-.2539.02734-.2422.08985-.21874.13672-.1914.17968-.16407.20704-.1211.23437-.07812.2539-.02734.25782.02734.25781.07813.2539.12109.23438.16406.20703.1914.1797.21876.13671.24219.08594.2539.03125.2539-.03125.2422-.08594.21875-.13672.1953-.17969.16017-.20703.12109-.23437.07812-.2539.02735-.25782.78515-.04688-.03125.3711-.08984.3711-.16016.35937-.22265.32812-.28906.28125-.17188.1211-.1875.10156-.20313.08203-.22656.0625-.23828.03906-.26172.01172-.28125-.01563-.26172-.04687-.23828-.07813-.21484-.10156-.19531-.13281-.17188-.15625-.15625-.17969-.13672-.20312-.11328-.22266-.10156-.24219-.14453-.53515-.08594-.59375-.02734-.64063.03906-.74219.11328-.66406.1875-.57812.1211-.2539.13671-.23048.15235-.20703.16797-.17969.1875-.15625.20312-.1289.21875-.10156.23047-.07422.25-.04688.26172-.01562.36328.03515.33203.09766.29688.14844.2578.19921.21095.2422.16406.27343.11719.30469.0625.32031"/></g></defs><use xlink:href="#aq"/></svg>