<svg xmlns="http://www.w3.org/2000/svg" role="img" xmlns:xlink="http://www.w3.org/1999/xlink" viewBox="142.45 309.95 326.84 171.84"><defs><clipPath id="a"><path d="M144 460h1v20.32813h-1zm0 0"/></clipPath><clipPath id="b"><path d="M144 311.67188h1V453h-1zm0 0"/></clipPath><clipPath id="c"><path d="M144 311.67188h324v168.65625H144zm0 0"/></clipPath><clipPath id="d"><path d="M382 477h6v3.32813h-6zm0 0"/></clipPath><clipPath id="e"><path d="M388 475h8v5.32813h-8zm0 0"/></clipPath><clipPath id="f"><path d="M467 311.67188h1V467h-1zm0 0"/></clipPath><clipPath id="g"><path d="M144 479h4v1.32813h-4zm0 0"/></clipPath><clipPath id="h"><path d="M147 480h2v.32813h-2zm0 0"/></clipPath><clipPath id="i"><path d="M153 479h9v1.32813h-9zm0 0"/></clipPath><clipPath id="j"><path d="M160 480h3v.32813h-3zm0 0"/></clipPath><clipPath id="k"><path d="M166 479h9v1.32813h-9zm0 0"/></clipPath><clipPath id="l"><path d="M173 480h3v.32813h-3zm0 0"/></clipPath><clipPath id="m"><path d="M180 479h8v1.32813h-8zm0 0"/></clipPath><clipPath id="n"><path d="M187 480h2v.32813h-2zm0 0"/></clipPath><clipPath id="o"><path d="M193 480h9v.32813h-9zm0 0"/></clipPath><clipPath id="p"><path d="M200 480h3v.32813h-3zm0 0"/></clipPath><clipPath id="q"><path d="M206 479h9v1.32813h-9zm0 0"/></clipPath><clipPath id="r"><path d="M213 479h3v1.32813h-3zm0 0"/></clipPath><clipPath id="s"><path d="M220 480h8v.32813h-8zm0 0"/></clipPath><clipPath id="t"><path d="M227 480h2v.32813h-2zm0 0"/></clipPath><clipPath id="u"><path d="M233 479h8v1.32813h-8zm0 0"/></clipPath><clipPath id="v"><path d="M240 480h3v.32813h-3zm0 0"/></clipPath><clipPath id="w"><path d="M246 480h9v.32813h-9zm0 0"/></clipPath><clipPath id="x"><path d="M252 480h2v.32813h-2zm0 0"/></clipPath><clipPath id="y"><path d="M260 479h8v1.32813h-8zm0 0"/></clipPath><clipPath id="z"><path d="M266 479h2v1.32813h-2zm0 0"/></clipPath><clipPath id="A"><path d="M273 478h8v2.32813h-8zm0 0"/></clipPath><clipPath id="B"><path d="M287 478h7v2.32813h-7zm0 0"/></clipPath><clipPath id="C"><path d="M292 478h2v2.32813h-2zm0 0"/></clipPath><clipPath id="D"><path d="M300 479h8v1.32813h-8zm0 0"/></clipPath><clipPath id="E"><path d="M306 480h1v.32813h-1zm0 0"/></clipPath><clipPath id="F"><path d="M314 477h7v3.32813h-7zm0 0"/></clipPath><clipPath id="G"><path d="M329 476h2v4.32813h-2zm0 0"/></clipPath><clipPath id="H"><path d="M341 477h6v3.32813h-6zm0 0"/></clipPath><clipPath id="I"><path d="M353 478h8v2.32813h-8zm0 0"/></clipPath><clipPath id="J"><path d="M353 480h3v.32813h-3zm0 0"/></clipPath><clipPath id="K"><path d="M367 477h7v3.32813h-7zm0 0"/></clipPath><clipPath id="L"><path d="M380 478h7v2.32813h-7zm0 0"/></clipPath><clipPath id="M"><path d="M380 480h2v.32813h-2zm0 0"/></clipPath><clipPath id="N"><path d="M393 479h8v1.32813h-8zm0 0"/></clipPath><clipPath id="O"><path d="M393 478h2v2.32813h-2zm0 0"/></clipPath><clipPath id="P"><path d="M407 477h6v3.32813h-6zm0 0"/></clipPath><clipPath id="Q"><path d="M421 477h6v3.32813h-6zm0 0"/></clipPath><clipPath id="R"><path d="M434 477h6v3.32813h-6zm0 0"/></clipPath><clipPath id="S"><path d="M449 476h2v4.32813h-2zm0 0"/></clipPath><clipPath id="T"><path d="M462 476h3v4.32813h-3zm0 0"/></clipPath><clipPath id="U"><path d="M144 466h4v2h-4zm0 0"/></clipPath><clipPath id="V"><path d="M144 453h4v2h-4zm0 0"/></clipPath><clipPath id="W"><path d="M144 439h4v2h-4zm0 0"/></clipPath><clipPath id="X"><path d="M466 439h2v4h-2zm0 0"/></clipPath><clipPath id="Y"><path d="M144 426h4v2h-4zm0 0"/></clipPath><clipPath id="Z"><path d="M465 424h3v2h-3zm0 0"/></clipPath><clipPath id="aa"><path d="M144 413h4v2h-4zm0 0"/></clipPath><clipPath id="ab"><path d="M465 410h3v2h-3zm0 0"/></clipPath><clipPath id="ac"><path d="M144 399h4v3h-4zm0 0"/></clipPath><clipPath id="ad"><path d="M466 398h2v2h-2zm0 0"/></clipPath><clipPath id="ae"><path d="M144 386h4v2h-4zm0 0"/></clipPath><clipPath id="af"><path d="M466 385h2v3h-2zm0 0"/></clipPath><clipPath id="ag"><path d="M144 373h4v2h-4zm0 0"/></clipPath><clipPath id="ah"><path d="M466 372h2v3h-2zm0 0"/></clipPath><clipPath id="ai"><path d="M144 360h4v1h-4zm0 0"/></clipPath><clipPath id="aj"><path d="M466 358h2v3h-2zm0 0"/></clipPath><clipPath id="ak"><path d="M144 344h4v6h-4zm0 0"/></clipPath><clipPath id="al"><path d="M466 345h2v3h-2zm0 0"/></clipPath><clipPath id="am"><path d="M144 330h2v8h-2zm0 0"/></clipPath><clipPath id="an"><path d="M466 332h2v3h-2zm0 0"/></clipPath><clipPath id="ao"><path d="M465 332h3v3h-3zm0 0"/></clipPath><clipPath id="ap"><path d="M144 317h3v7h-3zm0 0"/></clipPath><clipPath id="aq"><path d="M466 318h2v2h-2zm0 0"/></clipPath><clipPath id="ar"><path d="M465 318h3v3h-3zm0 0"/></clipPath><g id="as" clip-path="url(#clip1)"><path fill="#fff" fill-opacity="0" fill-rule="evenodd" d="M0 0h1000v1000H0zm0 0"/><path fill="#d3d3d3" fill-opacity="0" fill-rule="evenodd" d="M162.15234 355.86719l-.23437.29297.0586.23437.11718.17188.17578.23437.29297.34766.11328.0586.11719-.17188.0586-.23438.17577-.17578.46485-.17578h.69922l.23437.29297.28906.8164.0586.17579.17578.23046.35156.23438.69922.69922.17188.17578.23437.34765.23438.41016.28906.58203.41015.46485.23047.23437.23438.17578.11719.23047.17578.29297.17187 1.16406v.23438l.0586.28906.05859.11719.11719.11719.34765.41015.11719.17188.17578.17578.17578.23437.11719.17188.17188.35156.05859.23438.23437.40625.23438-.0586-.17578.17578-.0586.92969h-.58203l-.23437-.11328-.34766.11328-.11719.11719-.05859.29297-.0586.17578-.11718.17187-.46484.29297-.0586.23438-.0586.11328v.64453l.0586.17187v.41016l.0586.0586v.40624l.05859.40625.11719.17579.05859.05859.23047.64062-.0586.29297v.69922l-.05859.58203v.23438l-.0586.23047-.05468.35156v1.92187l.05469.1172h.42578l-.36719.11718-.02344.35156.89063 1.16797 1.74219.53906 1.33984.35938v.53906l.08984.8086.53516.71484 1.51953.26953.89063-.08594.08984 1.16406.53516.1797 1.16015-.1797 2.05469-.98437 1.16016-.36328 1.8789-.17578 1.69531-.1797-.17968.71876-1.51563.08594-1.25.08984-.80469.26953-1.07421.8086.26953.71875.53515.89843-.17968.625-.26563.8086.26563 1.07812.625.89844.80468.17969 1.25-.1797-.26562.72267.09766.5039.05468.29297v.17188l.0586.29296v.40625l.17578.1172.35156.11718h.40625l.29297-.17578.11328-.11719.0586-.11719.11718-.23047.0586-.17578.35156-.46484.23047-.17578.17578-.0586.17578.0586.0586.17578.11718.98828.05469.46875.0586.17188.11718.23437.17578.0586.8164.05859h.28907l.11719.23437.05859.40625.0586.35156v1.10547l.11718.29297.11719.34766.28906.69922.17578.35156.58203.7539.35157.17579.17187.0586.46875.23437.64063.46484.34765.23438.29297.17578.29297.05468.23047.0625.8164.34766.29297.17578.11328.17188.35157.35156.11719.17578.52343.64063v.28906l.0586.35156v.34766l.05859.35156.0586.28906.11718.0586.17188.05859h.17578l.58203.23437.17578.1172.17578.28905.17578.23438.11328.23437.29297.23047.11719.11719v.41016l.0586.05468.28906.23438.23437.11719.0586.11718.11718.17188.0586.11719.23047.23437.05859.17578.23437.0586.1172.05859-.1172.11328-.05859.11719v.11719l-.11719.29296-.11719.28907v.58203l.17579.11719.11718.05859.0586.11719.11719.11719.11328.05859.17578.34765.0586.35157.05858.40625v.17578l-.05859.17578-.11719.69922v.17187l.1172.17579.29296.29296h.40625l.17578.1172.11719.17187.11719.29296v.23438h-.52735l-.23047-.23438h-.23437l-.17578.0586-.0586.69922.0586.34765.11719.17579.17578.41015.11718.23047.28907.46875.17578.05469h.52344l.23437.0586.75781.64062.0586.29296v.23438l.05859.0586.23047.34765v.35156l-.11719.17188v.29297l.29297.28906.29297.17578.17187.0586.29297.17577.29297.1172.58203.40624.28906.23438.29297.17578.21875.16015.01563.01172.23047.17579.64062.52343.17578.23438.1172.17578.17577.17578.11328.17188v.64062l.1172.17578.46874.11719.58203.11719.23438.05859.23047.11328.29297.11719.11328.0586.58593.35156.28907.17187.17578.0625.17578.05469.17578.0586.69922.35155.28906.17579.23438.05468.28906.17578.23437.1172.64063.40624.29297.11719.17187.0586.23438.05859.41015.05859.23047.0586.23438.11718.0586.17188-.41017.17578.46875.0586.0586.29296.11328.23438.17578.05468.23438.0586.17578.05859.40625.11719.64062.23437.11719.17188.0586.23437v.17578l-.0586.1172-.0586.40624.23438.23438.11719.05859.34766.11719.64062.23047.17578.11718.28906.1172.17578.17577.23438.46485.58203 1.10546.17578.17579.34766.17578.17578.11719.35156.11718 1.04688.52344.23437.0586.46485.11327.29297.0586.46484.17578.75781.58203.23438.23438.34765.46484.17578.17578.28907.23438.8164.69921.29297.17579.28906.28906.29297.17578.29297.28906.69531.64063.17578.17578.29297.23437.28907.23438.46875.28906.64062.58203.34766.23438.23437.29297.34766.34765.35156.46485.9336.99218.34765.40625.11719.17579.23437.05859.11328.11719.64454.17578.23047.11328.23437.0586.29297.17577.23047.1172.9336.69921.40624.40625.23438.17578.40625.17578.23437.11719.8164.34766.34766.23437.23438.11719.29297.28906.23047.11719.7578.35156.35157.17188.23047.05859.29297.11719.23437.0586.8711.17577h.8164l.46875.23047.17188.0586.875.69921.46484.1172.29297.05858.17578.0586.23047.0586.46875.05859.34766.05859.35156.0586.40625.05859h.29297l.17187.0586v.23046l.17578.17578h.29297l.34766.0586.35156.05859.69922.11719h.64063l.46484-.23438.29297-.17578.17187-.11719.41016-.17187.28906-.17578.9336-.46485.46875-.29297.52343-.29296.46485-.17188.46484-.17578 1.05078-.46485.28906-.11718.41016-.11719.28906-.11719.52735-.17578 1.51562-.69922.58203-.34765.28907-.0586.29297-.0586.34765-.11718.875-.23047.35156-.11719h.11329l.23437-.05859.875-.23437.23438-.0586h.8125l.35156-.0586.8164-.11718.17188-.0586.35156-.05468.29297-.0586.23047-.05859.8164-.17578.17579-.0586h.34765l.23438-.05859.46484-.11718.75781-.17188.23438-.0586h.34765l.41016-.11718.28906-.0586 1.28516-.05859h.28906l.41016-.0586.23047-.05858h.17578l.875-.1172h.40625l.41015-.11718h.34766l.35156-.11328.8711-.0586h1.75l1.04687.28907.41016.11719.28906.11718.35156.11719.28907.11719 1.05078.17187.28906.0586h.29297l.29297.05859.17187.0586.41016.05859.17187.0586.1172.05858h.11718l.11719.0586.35156.0586h.11328l.41016.0664 1.92187.39453 1.92578.39453 1.51953.44922 1.69532.71875 2.14453.80469 1.60547-.71875 1.42968-.80469 1.16016-1.07813 1.25-.44921 3.03516-.71875 1.875-.35938 2.14453-1.34765 2.23437-1.25391 2.5-1.25781 1.69531-.44922 1.78516-.17969 1.16016-.26953.625.53906 1.33984-.26953.71485-.98828.98437-1.34375.44531-.17969.80469-.35937 1.875-.53907 1.78516-.44921 1.25-.26954 1.16015-.08984 1.69922-.08984 1.96094-.26954 1.25-.08984h.53906l.625-.08984h.89063l2.14453-.17969 2.41015-.17969 2.58985-.08984 1.69531.17969 1.60938.08984 1.42968.35938 1.16016.71875 1.875.98828 1.16015 1.52734.26563.71484.6289.08985.35548.89844.53515.53906.53516 1.52734 1.07422.35938h.53515l-.80469.53515.08985 1.70703.71484 2.69532.89063.80468.89453.98829.71484 1.2578 1.78516.53907 1.51953-.17969.35547 1.34375 1.60937-.80469.98047-.53906.26953.26953.31641-.21484.21875-.14453.80078.44922.44922-.35938h.35547l.53515-.26953.53907-.71875.53515-.26953.625-.98828 1.16016.44922.83984.3711 1.39454.61718 1.6953-.17969h1.60548l1.78515.08985.17969-1.70704.53516-1.34375.80468.26954.4922.84765.40233.40625-.08984.53906v.35938l.71485.44922.71093-.26953h1.42969l.35938.98828.4453 1.25781.71485 1.34375 1.25.6289 1.69531.62891.71485-.17969.17969-.53906.98046-.08984.44922.35937.08594 1.25782-.26563.6289-.53515.17969v.53906l.71484.98438.26563.53906.98437.98828.80078 1.07813-.26562.35937-.08985.89844-.625 2.33203-.35546 2.0664-.08985 1.79298-.17969.71875-.08984.53906v1.4375l-.98047 1.88281-.35937 1.70703-.53516.89844-.80469 1.16797-.26562.53906 2.05469 1.2539.08593.35938-.35546.53906-.08985-.17968v.80859l.08985 1.4375-.44532.71484-1.07422.09375-.26562.71485.53515.89844.8047.71875 1.16015.80859 1.33984.26953.44531.35938-.35546.44921-1.78907-.08984-1.25-.44922-.71484-.71875-.625-.08984-.17578 3.58984-.1875 1.3086h89.35937V311.70313h-55.26953v49.08203l.76172.125 3.28906.54296 2.02344 2.83594v2.7539l2.35156.33204 2.34766.33203h4.05078l-1.3789 4.16016-2.02344.70703-2.02344.70312-.54297.34375-2.59375 1.6172-.1875.11718-2.02344-2.07813-.73046-2.74218-2.67188-2.07813-1.375-3.5-.0664-.08203-1.95704-2.67188 2.75-1.41796v-49.08204H294.42187v91.41407l.1172.03125.1328.01172.07422.07421.10547.04688.08985.0586.08593.05859.08985.0586.29687.29687.0586.08984.03125.11719.02734.11719.01563.13671-.03125.1172-.0586.08983-.0586.08594-.04296.10547-.04688.10156-.02734.1211v.14453l.17578.26953.14844.14844.07422.08594.07422.07421.04296.10547.0625.08985.0586.08593.04297.10547.0586.08985.04687.10156.04296.10547.0586.08594.11719.17968.07421.07422.0625.08594.0586.08984.04297.10547.0586.08985.05858.08593.0625.08985.0586.08984.04297.10156.11719.17969.07421.07422.0586.08594.07422.07421.08984.0586.10547.04687h.14844l.1328-.01562.13282.01562.10156-.04687.07422-.07422.04688-.10156-.01563-.13281v-.14844l-.04687-.10547-.02735-.11719-.04687-.10156-.02735-.1211-.04296-.10156-.0625-.08984-.04297-.10156-.04297-.10547-.03125-.11719-.01563-.13281-.01171-.13672.08593-.0586.0586-.08593.12109-.03125.04297.10547.01562.1328v.1172l.0586.10156.0586.08984.08983.0586.14844.14843.0586.08985.04296.10547-.01171.10156.08593.0586.10547.04687.08594.0586.08984.05858.07422.07422-.11719.02735-.10546.04687-.08594.0586-.07422.07421-.0586.08985-.0625.08594-.02734.12109-.04687.10156-.04297.10547-.03125.11719-.01172.13281-.01563.13281v.14844l.02735.11719.04687.10547.04297.10156.0586.08984.07421.07422.08985.0586.07422.07421.08984.0586.0586.08984.04296.10547.04688.10156.11719.03125.1328.01563h.14845l.11718-.03125.10547.04297.04297.10547.04688.10156.02734.1211L299.5 410l.02734.11719.03125.1211.02735.11718.10547.04297.10156.04687.13281-.01562.14844.14844.0625.08593.07422.07422.07031.07422.08984.0625.10547.04297.10156.04297.1172.03125.13671.01562.11719-.03125.07422-.07422.02734-.11718-.01172-.13282-.03125-.12109-.02734-.11719.04297-.10547h.11719l.08984.0625.11719.02735h.14843l.13282.01562h.14843l.13282.01563.1328-.01563h.14845l.1328-.01562.13282-.01172.13672.01172.11719-.02735.13281-.01562.1914-.0586-.05859.17579-.01562.1328-.02735.1211-.01562.13281-.0586.08594-.1328.01563-.10548.04687-.10546.04297-.1172.03125-.11718.02735-.26563.03125h-.14843l-.13281.01562-.07422.07422.05859.08594.14844.14843.11719.1797.07421.0703.08985.0625.08984.0586.08594.0586.08984.05858.10156.04297.10547.0625.10547.04297.08594.0586.10547.04687.10156.04297.17969.11719.0586.08984-.04298.10156-.04687.10547.01562.13281.22266.22266.0586.08985.04296.10156.03125.1211.04297.10155.01563.13282.03125.11718.01171.13672.03125.11719.14844.14844.10156.04297.10547.04296.1172.03125.1328.01563.13672.01563h.11719l.11719-.03125.08984-.0586.04297-.10547.04688-.10156.04296-.10547.03125-.11719.01172-.1328v-.14845l-.01172-.1328-.01562-.13282-.03125-.11719-.04297-.10547-.04688-.10547-.04296-.10156-.04297-.10547-.01563-.13281.01563-.13281.02734-.11719.03125-.11719.02735-.1211.04687-.10155.08984-.0586.08594-.0625.07422-.07422.08984-.05859.22266-.22266.0586-.08593.07421-.07422.11719-.17969.0586-.08594v-.14844l-.07423-.07421-.10156-.04688-.10547-.04297-.10156-.04297-.0586-.08984-.04687-.10547-.02734-.11719.08984-.05859.11719-.03125.10156-.04297.17969-.11719.14844-.14843.01172-.13282-.01172-.10546-.08985-.0586-.1328.01563h-.14845l-.1328.01562-.13282-.01562-.1211-.03125-.08593-.0586-.07422-.07422-.0586-.08984-.0625-.08594-.11718-.17969-.0586-.08593.03125-.1211.08594-.05859.1211-.03125.05859-.08594v-.1211l-.03125-.11718-.0586-.08984-.05859-.08594-.04687-.10547-.02735-.11719-.01562-.1328.0586-.08985.07421-.07422.08984-.0586.1172-.17968.07421-.07422.0586-.08594.14843-.14844.1211-.03125.1328-.01562.13282.01562.07422.07422.04297.10547.01562.13281-.03125.1172-.11719.03124-.1328.01172-.14844.14844-.04297.10547-.04688.10156-.02734.1211-.03125.11718v.14844l.03125.11719.04297.10546.05859.08985.07422.07031.07422.07422.11719.03125.12109.02734.11719-.02734.1328-.01563h.1172l.08984.0586.07422.07422.04687.10546.0586.08594.10156.04688.13281.01562.10547.04297.08594.0586-.01172.10546-.07422.07422-.17969.11719-.05859.08984-.08984.0586-.07032.07422-.07421.07421-.0625.08985-.02735.11719-.01562.1328.01562.13282-.01562.13281v.14844l.01562.13281.02735.1172.03125.12108.07421.07422.08985.0586.08594.0586.08984.05858.11719.03125v.08594l-.10157.04688-.08984.0586-.26563.03124-.11718.02735h-.14844l-.10547.04296-.10156.04688-.0586.08984-.0625.23438-.01171.13281-.03125.1211-.01563.1328v.29298l-.01172.1328.01172.13673.01563.1328.1328.01563.13282.01172.1211.03125.08593.0586.07422.07421.04688.10547.04296.10157.01563.1328v.44532l-.01563.13281v.44532l.03125.26562.02735.11719.01562.13281.03125.11719.08594.21094.03125.26562v.14844l-.03125.11719-.02734.11718-.03125.1211-.02735.11719-.03125.11718-.03125.1211-.01171.1328-.01563.13282.08984.0586.1172-.03125.10155.01562.04688.10547-.03125.26562v.44141l-.04297.10547-.04688.10547-.04296.10156-.04297.10547-.0586.08594-.03125.12109-.04296.11719-.03125.11719-.01563.1328.01563.13282.05859.08984.10547.04688.08594.0586.05859.08593-.01172.13672-.03125.11719-.04297.10156v.44531l-.01562.13281v.14844l-.03125.11719-.04297.10547-.02735.11719-.04687.10546-.04297.10157-.03125.12109-.02734.11719-.03125.13281-.03125.11719-.02735.11719-.04297.10546-.03125.1172-.03125.12108-.01171.13282-.01563.13281v.29688l.02734.11718v.14844l.04688.39844.02734.11719.0586.08984.12109.03125h.14844l.13281-.01563.0586.08985v.11719l-.0586.08984-.08984.0586-.10157.04296-.10546.04688-.08985.05859-.08594.0586-.13671.01562-.1172-.03125-.1328-.01563-.10157.04688-.0625.08594-.01172.13671-.01562.13282-.03125.11719-.02735.11718-.01562.13281-.03125.1211v.29687l.01563.13282.03125.11718v.14844l.01171.13281v.14844l-.02734.11719-.04688.10156-.02734.1211-.03125.11718-.0586.08985-.07421.07421-.10156.04297-.10547.04688-.11719.02734-.1211.03125-.10156-.04687.0586-.08594.10547-.04688.02734-.11718.03125-.11719.02734-.1211.03125-.11718v-.14844l.01563-.13281-.03125-.11719-.04297-.10547-.10547.01563-.07422.07422-.10156.04296-.08984.0625-.07422.07422-.04297.10157-.01563.1328-.03125.1172L304.25 426l-.03125.11719-.02734.11719-.03125.12109-.02735.11719-.03125.11718-.04297.10547-.08984.0586h-.08984l-.1172-.03125-.03124-.08594.01562-.13672-.03125-.11719v-.14844l-.01171-.1328v-.14844l-.0625-.23438-.02735-.1211-.04297-.10156-.04687-.10546-.0586-.08594-.05859-.08985-.04297-.10546-.0625-.08594-.14844-.14844-.0703-.07422-.10548-.04687-.10547-.04297-.10156-.04297-.29687-.29688-.08985-.07421-.08594-.0586-.10546-.04297-.08985-.0625-.08594-.0586-.10546-.04296-.08985-.0586-.08594-.0625-.07421-.0703-.10547-.04688-.08594-.0586-.10547-.04296-.08984-.0625-.10156-.04297-.10547-.04297-.08594-.0586-.10547-.04687-.10547-.04297-.10156-.04687-.08985-.0586-.10156-.04297-.10547-.04296-.08984-.0625-.11719-.02735-.13281-.01562-.13281.01562H299.75l-.13281.01563-.11719-.03125-.08984-.0586-.07422-.07422-.08985-.05859-.10156-.04688h-.14844l-.12109-.02734-.10156-.04297-.07422-.07422-.11719-.17968-.08984-.0586-.10156-.04297-.08985-.0625-.10547-.04296-.08984-.0586-.08594-.0586-.10547-.04687-.0586-.08594-.05858-.08984-.04297-.10547-.04688-.10156-.07422-.07422-.08594-.0586-.07421-.07421-.08985-.0586-.22265-.22265-.04297-.10547-.03125-.26563.10547-.04296h.14453l.10547.04296.07421.07422.08985.0586.08594.0586.10546.04687.08985.05859.14844.14844.0703.07422.14845.14843.0625.08594.07421.07422.08594.0586.07422.07421.08985.0625.08984.0586.08594.05859.26953.17578.10156.04688.10547.04296.10156.04297.04688-.07421.05859-.08594.07422-.07422.07031-.07422.10547.04297.07422.07422.0586.08984.04296.10156.04688.10547.04296.10547.1211.02735.11719-.02735.07421-.08984.04297-.10547.0586-.08985.07422-.07421.10546-.04297.1172-.02735.1328.01172.08985.0586.14844.14843.05859.08985.04297.10547.04687.10156.04297.10547.04297.10156.10547.04688.10547.04296.13281.01563.08594-.0586.0586-.08984.07421-.07422.10547-.04297.11719.02735.10547.04687.10156.04297.10547.04297.10156.04688.17969.11718v.11719l-.01563.13281.01563.13281.01562.13672.0586.08594.10156.04688.1211.02734.11718.03125h.14844l.11719-.03125.05859-.08984.17969-.1172.05859-.08983.07422-.07422.0586-.08594.11718-.17969.17969-.11719.11719.03125.08984.0586.04297.07422-.01563.1328v.1172l.08985.05859h.14843l.13282-.01563.1328-.01171.26563-.03125.10547-.04297.11719-.03125.1211-.02735.07421-.07421.07031-.07422.0625-.08985-.01562-.10547-.04688-.10156-.10156-.04297-.10547-.01562-.11718.02734-.26563.03125h-.14844l-.07421-.07422-.08985-.0586-.11719-.03124-.11718-.02735-.13282-.01562h-.14843l-.13282.01563h-.29687l-.10547-.04688-.14844-.14844-.04297-.10156-.05859-.08984.22266-.22266.08593-.0586.10547-.04296.11719-.03125.13281-.01563.13281.01563.13672.01562.10157.04297.1328-.01172.08985-.0625.10156-.04297.0625-.08984-.04687-.10156-.08984-.0586-.1172-.03125-.10155-.04296-.0586-.08985-.0625-.08984v-.11719l.01563-.13281.10547-.04688.07421-.07031v-.1211l-.08984-.05859-.03125-.11719.08985-.05859.07421-.07422.04297-.10547.0586-.08984.04687-.10156.01563-.13281v-.14844l-.04688-.10547-.04297-.10156-.08984-.0586-.13281-.01562-.10157-.04297-.13671-.01563-.1172-.03125h-.4453l-.13282-.01562-.13281-.01172-.13281-.01563-.11719-.03125h-.14844l-.13281-.01562-.13281-.01172-.26563-.03125-.1211-.04297-.08593-.0586-.07422-.07421v-.14844l.01172-.13281.10547-.04688.10156-.04296.13281-.01563h.15235l.13281-.01562h.29297l.1211.03125.10156.04296.08984.0586.23438.0625.12109-.04688.08984-.05859.10156-.04297.13282-.01562.10547.04296.10156.04688.13281.01172.1211-.02735h.14453l.12109-.03125.11719-.02734.10547-.04687.07421-.07422.08594-.0586.14844-.14843.0586-.08594.04687-.10547.02734-.11719.01563-.10547-.10156-.04296-.08985-.0586-.11719-.03125-.10546-.04297-.08985-.0625-.07422-.08594-.07422-.07421-.10156-.04297-.10547-.04688-.10156-.04297-.0586-.08984-.04687-.10156-.08594-.21094-.0625-.08594-.05859-.08984-.07422-.07422-.08594-.0586h-.26953l-.11719.03126-.08984.05859-.10156.04297-.13281.01562-.10547-.01562-.02735-.11719-.0625-.08984-.11718-.03125-.10157-.04297-.14843-.14844-.03125-.11719-.01563-.10546.07422-.07422.17969-.1172.11719-.02733.11718-.03125.13672.01562.10156.04297.10547.04297.10156.04687.10547.04297.1172.03125.1328.01563.1172.02734.1328.01563.10547-.01563.08985-.0586-.07422-.07421-.10547-.04297-.07422-.07422-.07422-.08984-.14844-.14844-.08593-.0586-.08985-.05859-.07422-.07422-.08984-.0586-.10156-.04687-.1211-.02734-.10156-.04688-.10547-.04296-.11719-.03125-.10156-.04297-.1211-.03125h-.14843l-.11719.03125-.10546.04297-.08594.0625-.17969.11718-.08594.0586-.08984.0586-.10547.04687-.08594.05859-.10547.04297-.10156.04297-.10547.04687-.07422.07422-.05859.08985-.0586.08593-.04687.10547-.0586.08594-.07421.07422-.13281-.01172-.1172-.03125h-.11718l-.07422.07422-.08984.0586-.07422.07421-.08984.0586-.08594.05859-.10547.04687-.10156.04297-.13672.01563-.10156-.04297-.14844-.14844-.10547-.04688h-.08594l-.10547.04688-.10156.04297-.1211.03125-.11718-.03125-.07422-.07422v-.11719l.03125-.1211.07422-.0703.0586-.08985.07421-.07422.11719-.03125.10547-.04296h.29297l.13281-.01563.13672-.01563.10156-.04296.08985-.0586.10156-.04687.08984-.0586.13281-.01171.08985.05859.13281.01172.08984-.0586.08594-.05859.10547-.04297.08984-.0586.08594-.0625.08985-.05859.14843-.14843.0586-.08594.05859-.08985.10547-.04296.13281-.01563.11719.02735.1211.03125.05859-.0586.05859-.08984.03125-.26563.02734-.11719.10547.01172.13281.01563.10157-.04297.08984-.0586.0586-.08984.07421-.07422.0586-.08984.04687-.10156.01172-.13281-.01172-.13282-.04687-.10547-.14844-.14843-.0586-.08985-.05859-.08594-.04297-.10546v-.44532l.01563-.1328v-.14845l.01172-.1328-.0586-.0586-.08984.0586-.10156-.04298-.17969-.11719-.08594-.05859-.0625-.08984-.0586-.08985-.07421-.07421-.08594-.0586-.1211.03125-.10155.01172-.10547.04688-.08594.05859-.10547.04297-.14844.14844-.08984.05859-.08594.0586-.08984.0625-.10547.04296-.13281.01563v-.1211l.10547-.04297.11718-.03125.07422-.0703.04297-.10548v-.14844l-.02734-.11718-.14844-.14844-.13281-.01563h-.14844l-.11719.03125-.10547.04297-.10156.04297-.08984.0625-.11719.02735-.07422-.07422.01172-.13281-.04297-.10157-.04297-.10547-.08984-.05859-.11719.02734-.1211.03125-.11718.03125-.10156.04297-.1211.03125-.10156.04297-.10547.04297-.08984.0586-.10156.01562v-.11719l.01562-.13281-.0586-.08985-.07421.04297-.14844.14844-.0586.08985-.07421.07421-.04688.10547-.04296.10156-.07422.07422-.0586.08985-.07422.07422-.05859.08593-.07422.07422-.08984.0625-.07422.07031-.07422.07422-.10156.01563-.13281.01562-.10547-.04296v-.1211l.14843-.14844.04297-.10156.0586-.08984.04687-.10156.04297-.10547.0586-.08985.03124-.11719.04297-.10156.03125-.1211.02735-.11718.04687-.10547.04297-.10156.04297-.10547.07422-.07031.08984-.0625.08985-.0586.10156-.04296h.29687l.26563-.03125.10547-.04297-.07422-.07422-.11719-.03125-.10547-.04297-.08984-.0586-.10156-.04687-.08985-.0586-.10156-.04296-.10547-.04297-.08984-.0625-.08594-.0586-.10547-.04296-.10156-.04297-.1211-.03125-.11718-.03125-.10157-.04297L297.5 410.25l-.10156-.04297-.08985-.0586-.04296-.10546-.01563-.13281.10156-.04297.13281-.01563.13672.01563.13282-.01563.10156-.04297.0586-.08984.01562-.10547-.08985-.0586-.07421-.07421-.10157-.04297-.08984-.0586-.14844-.14843-.04297-.10547-.01562-.13281v-.29297l-.0586-.08985-.08984-.05859-.07422-.07422-.04297-.10547-.03125-.11718-.0586-.08985-.07421-.07422-.11719-.02734-.07422-.07422-.08984-.0586-.08984-.0625-.08594-.05859-.07422-.07421-.0586-.08594-.04687-.10547-.08594-.0586-.14843-.14843-.19532-.0586-.1328.01563-.10157.04297-.07422.07422-.04688.10156-.04296.10547-.0586.08984-.0586.08594-.29687.29687-.08984.0586h-.08594l-.0625-.08594-.04297-.10547.03125-.11719.0586-.08984.02734-.11719-.01172-.13281-.08984-.0625-.10547.04688-.11719.02734-.11719.03125-.26953.17578-.10156.04688-.11719.02734-.10546.04687-.08985.0586-.10156.04297-.0586-.08594-.04687-.10547.01563-.13281.04687-.10547.07031-.07422.07422-.07031.0586-.08985v-.14843l-.04297-.10547h-.23829l-.10156.04687-.03125.11719-.02734.11719-.03125.1211-.07422.04296-.13281.01563-.07422-.04688-.04297-.10156-.04297-.10547-.04687-.10156-.04297-.10547-.1211.03125-.10156.04297-.13281.01562-.11719.03125-.10547.04297-.08984.0586-.10156.04687-.1211.02734-.13281.01563-.10156-.04297-.0586-.08985-.04687-.10546-.04297-.10157-.04297-.10546v-.1172l.0586-.08984.08593-.05859.17969-.11719.10156-.04687.10547-.04297.10547-.0586.10156-.04296.08985-.0625.10156-.04297.10547-.0586.10156-.04687.08984-.0586.10547-.04296.10156-.04297.08985-.0625.10156-.04297.13672-.01563.11719.03125.10156.04297.1211.03125.10156.04297.10546.04688.10157.04296.10547.04297.10156.04688.10547.04297.10156.04297.10547.04687.08594.0586.10546.04296.1172.03125.10546.04297.10156.04688.08985.0586.10547.04296.10156.04297.10547.04687.11719.02735.10156.04687.1211.02735h.14843l.08594-.0586.01562-.10156.0586-.08984-.02735-.1172-.07422-.07421-.11719-.17969-.07421-.07422-.08985-.07421-.17969-.1172-.08593-.05859-.10547-.04296-.10156-.04688-.26954-.17578-.05859-.08985-.07422-.07421-.0586-.08985-.04296-.10156-.03125-.11719-.01563-.13672v-.5625l-.01171-.1328-.01563-.13282-.03125-.11719-.01562-.13281-.01172-.13281-.03125-.1211-.22266-.22265-.0586-.08594-.01562-.10547.03125-.11719.13281-.01562v-91.41406H172.9922v1.45312l-.0586.23438-.35156 1.05078-.17187.52343-.1172.34766-.17577.41016-.11719.17187-.23438.29297-.23046.0586h-.35157l-.11718.05859-.23047.40625v.29297l.11719.17578.23046.23047.1172.23437.64062.75781.29297.46485.17578.23437.23047.35156.23437.34766.64063.8164.17578.46485.17187.41016.11719.69531.17578.46875.11719 1.39844.0586.46484v.875l.11718 1.04688v4.78125l-.0586.46484-.35156 1.28125-.17578.52344-.11328.41015-.35156.9297L172.93359 336l-.23437.58203-.11719.17578-.17187.34766-.17578.40625-.35157.8164-.0586.29297-.11327.29297-.11719.28906-.0586.17579-.11718.875-.0586.40625-.05859.11718-.0586.17579-.05859.17187-.23047.52734-.11718.17188v.23437l-.11719.23438-.0586.17187-.17577.58594v.28906l-.0586.17579v.29296l-.0586.11329-.05859.52734v.17187l-.05468.23438v2.6211l-.17578.8164-.1172.17578-.17577.23438-.1172.17187-.11327.23438-.58594.93359-.23047.28906-.29297.46485-.17578.23437-.28906.35156-.35156.69922-.11328.23047-.17579.41016-.17578.23046-.40625.52735-.8164.69922-.29297.17187-.28906.23438-.17579.11719-.17578.17578-.52344.40625-.52734.17578-.17187.17578-.23438.05469-.64062.17578h-.75782m12.21094 31.02344l-1.07422.44921.35938.89454 1.25-.71485.44531-.53906-.98047-.08985"/><path fill="#d3d3d3" fill-opacity="0" fill-rule="evenodd" d="M201.50781 416.59766h-.89453l.44922.6289.98047.35938.80469-.08985.4453-.98828-.17577.08985-.71485-.35547-.89453.35547m154.6211 59.0703l-.0586-.52343v-.29297l.11328-.29297.0586-.23046.46875-.46875h.11328l.11719-.11329.11718-.05859h.17579l.23437-.0586h.34766l.23437.0586.11719.0586.23047.17187.0586.17578.11718.58203v.29297l-.11719.17578-.17187.28906-.17579.17579-.52734.52343-.23047.23438-.11719.0586h-.17578l-.11718-.0586-.40625-.29297-.17579-.11719-.11718-.0586-.0586-.11327-.05468-.1172m6.64062-10.95702l-.0586-.17188v-1.10937l.0586-.17188.17578-.0586.17188-.05858h.17578l.23437-.0586.1172.0586.05858.69921-.05859.17188-.11719.17578-.11718.0586-.23438.52343-.11328.0586h-.23438l-.05859-.1172m9.61328-14.39062l-.11719-.17578v-.69922l.29297-.875.1172-.17187.17577-.35156.11328-.23047.1172-.29297.35155-.75781.1172-.23047.17187-.23438h.17578l.11719-.0586h.64062l.11719.0586.23437.23438.17188.11328.35156.29297.11719.11718.11328.17579v.11328l.11719.05859.11718.11719v.69922l-.05859.17578v.23047l-.0586.17578-.34765 1.05078-.11719.23047-.11719.23437-.11718.0586-.23047.23437-.64063.28906h-.875l-.41015-.11718-.64063-.46485"/><path fill="none" stroke="#bebebe" stroke-linecap="round" stroke-linejoin="round" stroke-miterlimit="10" stroke-width=".5" d="M467.95703 311.69531H144.02734v168.625h323.9297v-168.625"/><g clip-path="url(#a)"><path fill="#fff" fill-opacity="0" fill-rule="evenodd" d="M144 475.89063v4.4375h.0039H144V460.1914v15.69921"/></g><g clip-path="url(#b)"><path fill="#fff" fill-opacity="0" fill-rule="evenodd" d="M144 449.26172v3.25-140.83985h.0039H144v137.58985"/></g><path fill="#50fcfc" fill-rule="evenodd" d="M144 452.51172v7.67969h.0039v-7.67579l-.0039-.0039"/><g clip-path="url(#c)"><path fill="#fff" fill-opacity="0" fill-rule="evenodd" d="M144.0039 480.32813V460.1914l1.85548-2.0547-.21094-4.4375-1.64453-1.18358V311.67188h17.75v138.48046l-3.67188 3.54688.83203 4.4375 1.07031 4.4375 1.76954 1.51562 2.96875-1.51562.08203-4.4375.21484-4.4375-3.26562-3.54688V311.67188h8.875V457.375l-1.40235.76172 1.40235 1.66015 1.23437-1.66015-1.23437-.76172V311.67187h13.3164v149.71094l-1.03125 1.1914 1.03125.5586 1.66406-.5586-1.66406-1.1914V311.67187h57.69922V439.8086l-.72266.57422.72266.48438.4961-.48438-.4961-.57422V311.67188h35.50781v144.8125l-1.6914 1.65234 1.6914 2.23047 4.4375-.82422 1.13282-1.40625-1.13282-.61328-4.4375-1.03906v-144.8125h13.3125V457.9414l-.39843.1953.39843.81642.71485-.81641-.71485-.19531V311.67187h22.19141V456.875l-3.64063 1.26172 3.64063 2.59375 4.4414-.57031 4.4375-1.98047.03126-.04297-.03125-.03125-4.4375-1.14453-4.44141-.08594V311.67187h66.57813v124.89844l-2.70313 3.8125-1.73828 2.3086-4.375 2.1289-.0625.0664-2.38281 4.375-2.0547 1.41017-2.59374 3.02734-1.84375 2.33984-2 2.09766 2 1.82812 2.14062 2.60938-2.14062 2.11719-2.42578 2.32421 1.96094 4.4375-.85938 4.4375 1.32422.60157 4.4375.58203 2.08984-1.1836-2.08984-2.60156-3.3789-1.83594 3.3789-2.0664 2.21484-2.3711 2.22266-.78515 4.4375.66797.16406.11719 4.01172 4.4375.26563.2578.45703-.2578 3.98046-3.4336 4.4375 2.10547 4.4375-2.14453 1.42579-.96485 3.01171-.26562 4.44141-.42969 3.86719-3.7461-3.86719-3.6953-.66015-.7422-1.7422-4.4375-2.03906-3.7578-.1914-.6797-4.2461-3.6875-2.0703-.7539-2.3672-.83984-1.95312.83984-2.48438.96485-4.4375-.78516-.20703-.17969.20704-.125 3.3828-4.3125-3.3828-3.8125V311.67187h53.2578v157.98047l-2.33202 1.80079 2.33203 1.01562 4.4375-.2539.94922-.76173-.94922-1.76562-4.4375-.03516V311.67188h17.7539v151.98828L446 467.01562l4.2461 3.09766 2.625-3.09765-2.625-3.35547V311.67187h17.75v154.5586l-.53907.78515-1.97265 4.4375 2.15625 4.4375.35546.56641v3.8711h-72.375l-2.88671-4.4375-.1875-.16797-3.3711.16796-.84765 4.4375h-.76954l-3.88671-2.8203-1.52344 2.8203H144.0039"/></g><path fill="#50fcfc" fill-rule="evenodd" d="M145.85938 458.13672l-1.85547 2.05469v-7.67579l1.64453 1.1836.21094 4.4375m13.05468 0l-.83203-4.4375 3.67188-3.54688v3.51954l-.02735.02734.02735.0664.02343-.0664-.02343-.02735v-3.51953l3.26562 3.54688-.21484 4.4375-.08203 4.4375-2.96875 1.51562-1.76953-1.51562-1.07032-4.4375"/><path fill="#00e8fc" fill-rule="evenodd" d="M161.7539 453.76563l-.02734-.06641.02735-.02735.02343.02735-.02343.0664"/><path fill="#50fcfc" fill-rule="evenodd" d="M170.6289 459.79688l-1.40234-1.66016 1.40235-.76172 1.23437.76172-1.23437 1.66015m13.3164 3.33594l-1.03125-.5586 1.03125-1.1914 1.66406 1.1914-1.66406.5586m57.69922-22.26562l-.72266-.48438.72266-.57422.4961.57422-.4961.48438m35.50781 19.5l-1.6914-2.23047 1.6914-1.65235 4.4375 1.03907 1.13282.61328-1.13282 1.40625-4.4375.82422m13.3125-1.41406l-.39843-.81641.39843-.19531.71485.1953-.71485.81642m22.19141 1.77734l-3.64063-2.59375 3.64063-1.26172 4.4414.08594 4.4375 1.14453.03126.03125-.03125.04297-4.4375 1.98047-4.44141.5703m48.35938 10.72267l-1.96094-4.4375 2.42578-2.32422 2.14062-2.1172-2.14062-2.60937-2-1.82812 2-2.09766 1.84375-2.33984 2.59375-3.02735 2.05469-1.41015 2.3828-4.375.0625-.0664 4.375-2.12891v4.53906l-2.01952 2.03125-2.41797 2.63281-2.14453 1.80469-2.29297 2.49219-1.67578 1.9453 1.67578 1.92579 4.4375 2.15625.53125.35547 3.90625 1.83984 3.69531 2.60156.7461.79297.83203-.79296 3.60546-1.5 4.4375 1.37109 4.4375-1.17188 4.4375-.27734 4.44141-1.55469 1.34766-1.3086-1.34766-1.28905-2.79687-3.14844-1.64454-2.0586-.90234-2.3789-3.53515-3.8164-3.6172 3.8164-.8203 2.28906-2.35157-2.28906-2.08594-2.51953-4.4375-.00781-2.34375-1.91016-2.09765-2.03125v-4.53906l1.73828-2.3086 2.70313-3.8125 3.3828 3.8125-3.3828 4.3125-.20704.125.20704.17969 4.4375.78516 2.48437-.96485 1.95313-.83984v3.45703l-.58204 1.82422.58204 1.10547.62109-1.10547-.6211-1.82422v-3.45703l2.3672.83984 2.0703.7539 4.2461 3.6875.1914.6797 2.03907 3.7578 1.74219 4.4375.66015.7422 3.86719 3.6953-3.86719 3.7461-4.4414.42969-3.01172.26563-1.42579.96484-4.4375 2.14453-4.4375-2.10547-3.98046 3.4336-.45704.2578-.26562-.2578-4.01172-4.4375-.16406-.1172-4.4375-.66796-2.22266.78515-2.21484 2.3711-3.3789 2.0664 3.3789 1.83594 2.08984 2.60156-2.08984 1.1836-4.4375-.58203-1.32422-.60156.85938-4.4375"/><path fill="#00e8fc" fill-rule="evenodd" d="M365.91797 460.0625l-1.67578-1.92578 1.67578-1.94531 2.29297-2.4922 2.14453-1.80468 2.41797-2.63281 2.01953-2.03125 2.09765 2.03125 2.34375 1.91015 4.4375.00782 2.08594 2.51953 2.35156 2.28906.82032-2.28906 3.61719-3.8164v1.82812l-1.88282 1.98828-1.8164 4.4375-.73829 1.08594-4.4375 2.82812-.66015.52344.66015.20703 4.4375 2.51953 4.4375-1.98047 4.4375-.0664 1.39844-.6797-1.39844-1.625-.71484-2.8125-1.88281-4.4375-1.83985-1.98827v-1.82813l3.53516 3.8164.90235 2.37892 1.64453 2.05859 2.79687 3.14844 1.34766 1.28906-1.34766 1.3086-4.4414 1.55468-4.4375.27734-4.4375 1.17188-4.4375-1.3711-3.60547 1.5-.83204.79297-.74609-.79296-3.69531-2.60157-3.90625-1.83984-.53125-.35547-4.4375-2.15625"/><path fill="#00d4fc" fill-rule="evenodd" d="M383.67188 462.78125l-.66016-.20703.66015-.52344 4.4375-2.82812.73829-1.08594 1.8164-4.4375 1.88281-1.98828v1.82812l-.14843.16016-2.22266 4.4375-2.0664 3.03906-1.9375 1.39844 1.9375 1.14062 2.26171-1.14062 2.17579-1.23438 2.38671-3.20312-2.23828-4.4375-.14844-.16016v-1.82812l1.83985 1.98828 1.88281 4.4375.71485 2.8125 1.39843 1.625-1.39844.67969-4.4375.0664-4.4375 1.98047-4.4375-2.51953"/><g clip-path="url(#d)"><path fill="#50fcfc" fill-rule="evenodd" d="M382.14844 480.32813l1.52344-2.82032 3.88671 2.82031h-5.41015"/></g><path fill="#00c4fc" fill-rule="evenodd" d="M388.10938 463.71484l-1.9375-1.14062 1.9375-1.39844 2.0664-3.03906 2.22266-4.4375.14844-.16016v2.54297l-1.04297 2.05469 1.04296 1.41015 1.0547-1.41015-1.0547-2.05469v-2.54297l.14844.16016 2.23828 4.4375-2.38671 3.20312-2.17579 1.23438-2.26171 1.14062"/><path fill="#fff" fill-opacity="0" fill-rule="evenodd" d="M388.10938 447.4375l-.58204 1.82422.58204 1.10547.62109-1.10547-.6211-1.82422"/><g clip-path="url(#e)"><path fill="#50fcfc" fill-rule="evenodd" d="M388.32813 480.32813l.84765-4.4375 3.3711-.16797.1875.16796 2.88671 4.4375h-7.29296"/></g><path fill="#00b8fc" fill-rule="evenodd" d="M392.54688 459.54688l-1.04297-1.41016 1.04296-2.05469 1.0547 2.05469-1.0547 1.41015"/><path fill="#50fcfc" fill-rule="evenodd" d="M432.49219 472.46875l-2.33203-1.01563 2.33203-1.80078 4.4375.03516.94922 1.76563-.94922.76171-4.4375.25391m17.7539-2.35547L446 467.01563l4.2461-3.35547 2.625 3.35546-2.625 3.09766m17.39452 5.77735l-2.15625-4.4375 1.97266-4.4375.53906-.78516v10.22656l-.35546-.5664m.35546-9.66016v10.22656l.00391.0039v-10.23437l-.0039.0039"/><g clip-path="url(#f)"><path fill="#fff" fill-opacity="0" fill-rule="evenodd" d="M467.9961 311.67188H468v154.55468-154.55469h-.0039"/></g><path fill="#fff" fill-opacity="0" fill-rule="evenodd" d="M392.44531 472.94531l5.5-1.96094-3.33984-9.3828-5.5039 1.95702 3.34374 9.38672"/><path fill-rule="evenodd" d="M393.01172 464.11328l.48047-.17187 2.11328 5.92968-.74219.26563-1.5039-4.23047-1.3086.46484-.1875-.52343.5039-.2461.22266-.13672.1836-.16015.14453-.20313.09375-.25781.03515-.32422-.03515-.40625"/><g clip-path="url(#g)"><path fill="none" stroke="#000" stroke-linecap="round" stroke-linejoin="round" stroke-miterlimit="10" stroke-width=".5" d="M147.5039 480.5625l-7.0078-.46875"/></g><g clip-path="url(#h)"><path fill="none" stroke="#000" stroke-linecap="round" stroke-linejoin="round" stroke-miterlimit="10" stroke-width=".5" d="M147.5039 480.5625l1.00782 2.23828"/></g><g clip-path="url(#i)"><path fill="none" stroke="#000" stroke-linecap="round" stroke-linejoin="round" stroke-miterlimit="10" stroke-width=".5" d="M160.82813 480.45313l-7.02344-.25"/></g><g clip-path="url(#j)"><path fill="none" stroke="#000" stroke-linecap="round" stroke-linejoin="round" stroke-miterlimit="10" stroke-width=".5" d="M160.82813 480.45313l1.07421 2.20703"/></g><g clip-path="url(#k)"><path fill="none" stroke="#000" stroke-linecap="round" stroke-linejoin="round" stroke-miterlimit="10" stroke-width=".5" d="M174.1289 480.66797l-6.99609-.67969"/></g><g clip-path="url(#l)"><path fill="none" stroke="#000" stroke-linecap="round" stroke-linejoin="round" stroke-miterlimit="10" stroke-width=".5" d="M174.1289 480.66797l.9336 2.26953"/></g><g clip-path="url(#m)"><path fill="none" stroke="#000" stroke-linecap="round" stroke-linejoin="round" stroke-miterlimit="10" stroke-width=".5" d="M187.44922 480.58594l-7.00781-.51172"/></g><g clip-path="url(#n)"><path fill="none" stroke="#000" stroke-linecap="round" stroke-linejoin="round" stroke-miterlimit="10" stroke-width=".5" d="M187.44922 480.58594l.99219 2.24219"/></g><g clip-path="url(#o)"><path fill="none" stroke="#000" stroke-linecap="round" stroke-linejoin="round" stroke-miterlimit="10" stroke-width=".5" d="M200.77344 480.33984l-7.02735-.02343"/></g><g clip-path="url(#p)"><path fill="none" stroke="#000" stroke-linecap="round" stroke-linejoin="round" stroke-miterlimit="10" stroke-width=".5" d="M200.77344 480.33984l1.14453 2.17188"/></g><g clip-path="url(#q)"><path fill="none" stroke="#000" stroke-linecap="round" stroke-linejoin="round" stroke-miterlimit="10" stroke-width=".5" d="M214.08203 480.09766l-7.01172.46093"/></g><g clip-path="url(#r)"><path fill="none" stroke="#000" stroke-linecap="round" stroke-linejoin="round" stroke-miterlimit="10" stroke-width=".5" d="M214.08203 480.09766l1.28906 2.08593"/></g><g clip-path="url(#s)"><path fill="none" stroke="#000" stroke-linecap="round" stroke-linejoin="round" stroke-miterlimit="10" stroke-width=".5" d="M227.40234 480.38672l-7.02343-.11328"/></g><g clip-path="url(#t)"><path fill="none" stroke="#000" stroke-linecap="round" stroke-linejoin="round" stroke-miterlimit="10" stroke-width=".5" d="M227.40234 480.38672l1.1172 2.1836"/></g><g clip-path="url(#u)"><path fill="none" stroke="#000" stroke-linecap="round" stroke-linejoin="round" stroke-miterlimit="10" stroke-width=".5" d="M240.71875 480.4375l-7.02344-.21484"/></g><g clip-path="url(#v)"><path fill="none" stroke="#000" stroke-linecap="round" stroke-linejoin="round" stroke-miterlimit="10" stroke-width=".5" d="M240.71875 480.4375l1.08594 2.19922"/></g><g clip-path="url(#w)"><path fill="none" stroke="#000" stroke-linecap="round" stroke-linejoin="round" stroke-miterlimit="10" stroke-width=".5" d="M254.03516 480.35547l-7.02735-.05078"/></g><g clip-path="url(#x)"><path fill="none" stroke="#000" stroke-linecap="round" stroke-linejoin="round" stroke-miterlimit="10" stroke-width=".5" d="M253.01172 480.34766l.5664 1.08593"/></g><g clip-path="url(#y)"><path fill="none" stroke="#000" stroke-linecap="round" stroke-linejoin="round" stroke-miterlimit="10" stroke-width=".5" d="M267.2461 479.47656l-6.82032 1.70313"/></g><g clip-path="url(#z)"><path fill="none" stroke="#000" stroke-linecap="round" stroke-linejoin="round" stroke-miterlimit="10" stroke-width=".5" d="M266.2539 479.72266l.82032.91406"/></g><g clip-path="url(#A)"><path fill="none" stroke="#000" stroke-linecap="round" stroke-linejoin="round" stroke-miterlimit="10" stroke-width=".5" d="M280.14844 478.49219l-5.99219 3.67187"/></g><path fill="none" stroke="#000" stroke-linecap="round" stroke-linejoin="round" stroke-miterlimit="10" stroke-width=".5" d="M279.27344 479.02734l1.0586.6211"/><g clip-path="url(#B)"><path fill="none" stroke="#000" stroke-linecap="round" stroke-linejoin="round" stroke-miterlimit="10" stroke-width=".5" d="M293.54688 478.64063l-6.16407 3.375"/></g><g clip-path="url(#C)"><path fill="none" stroke="#000" stroke-linecap="round" stroke-linejoin="round" stroke-miterlimit="10" stroke-width=".5" d="M292.64844 479.13281l1.02734.67188"/></g><g clip-path="url(#D)"><path fill="none" stroke="#000" stroke-linecap="round" stroke-linejoin="round" stroke-miterlimit="10" stroke-width=".5" d="M307.26563 480.79297l-6.96875-.92578"/></g><g clip-path="url(#E)"><path fill="none" stroke="#000" stroke-linecap="round" stroke-linejoin="round" stroke-miterlimit="10" stroke-width=".5" d="M306.25 480.65625l.42969 1.15234"/></g><g clip-path="url(#F)"><path fill="none" stroke="#000" stroke-linecap="round" stroke-linejoin="round" stroke-miterlimit="10" stroke-width=".5" d="M319.8086 482.5625l-5.42188-4.46875"/></g><g clip-path="url(#G)"><path fill="none" stroke="#000" stroke-linecap="round" stroke-linejoin="round" stroke-miterlimit="10" stroke-width=".5" d="M330.22266 483.83594l.375-7.01563"/></g><g clip-path="url(#H)"><path fill="none" stroke="#000" stroke-linecap="round" stroke-linejoin="round" stroke-miterlimit="10" stroke-width=".5" d="M341.57031 483.10156l4.3125-5.54687"/></g><g clip-path="url(#I)"><path fill="none" stroke="#000" stroke-linecap="round" stroke-linejoin="round" stroke-miterlimit="10" stroke-width=".5" d="M354.11328 482.27344l5.85547-3.88672"/></g><g clip-path="url(#J)"><path fill="none" stroke="#000" stroke-linecap="round" stroke-linejoin="round" stroke-miterlimit="10" stroke-width=".5" d="M354.96484 481.70703l-1.07812-.58594"/></g><g clip-path="url(#K)"><path fill="none" stroke="#000" stroke-linecap="round" stroke-linejoin="round" stroke-miterlimit="10" stroke-width=".5" d="M367.70703 482.63672l5.29688-4.61719"/></g><g clip-path="url(#L)"><path fill="none" stroke="#000" stroke-linecap="round" stroke-linejoin="round" stroke-miterlimit="10" stroke-width=".5" d="M380.6875 482.1836l5.96875-3.70704"/></g><g clip-path="url(#M)"><path fill="none" stroke="#000" stroke-linecap="round" stroke-linejoin="round" stroke-miterlimit="10" stroke-width=".5" d="M381.55469 481.64453l-1.0586-.61719"/></g><g clip-path="url(#N)"><path fill="none" stroke="#000" stroke-linecap="round" stroke-linejoin="round" stroke-miterlimit="10" stroke-width=".5" d="M393.49219 479.95703l6.98828.7461"/></g><g clip-path="url(#O)"><path fill="none" stroke="#000" stroke-linecap="round" stroke-linejoin="round" stroke-miterlimit="10" stroke-width=".5" d="M394.50781 480.0625l-.45703-1.13672"/></g><g clip-path="url(#P)"><path fill="none" stroke="#000" stroke-linecap="round" stroke-linejoin="round" stroke-miterlimit="10" stroke-width=".5" d="M408.16797 477.53906l4.26562 5.58203"/></g><path fill="none" stroke="#000" stroke-linecap="round" stroke-linejoin="round" stroke-miterlimit="10" stroke-width=".5" d="M408.78906 478.35156l.51172-1.11719"/><g clip-path="url(#Q)"><path fill="none" stroke="#000" stroke-linecap="round" stroke-linejoin="round" stroke-miterlimit="10" stroke-width=".5" d="M421.3086 477.67969l4.61718 5.29687"/></g><path fill="none" stroke="#000" stroke-linecap="round" stroke-linejoin="round" stroke-miterlimit="10" stroke-width=".5" d="M421.98047 478.44922l.4375-1.14453"/><g clip-path="url(#R)"><path fill="none" stroke="#000" stroke-linecap="round" stroke-linejoin="round" stroke-miterlimit="10" stroke-width=".5" d="M434.6914 477.6211l4.48048 5.41406"/></g><path fill="none" stroke="#000" stroke-linecap="round" stroke-linejoin="round" stroke-miterlimit="10" stroke-width=".5" d="M435.34375 478.41016l.46875-1.13672"/><g clip-path="url(#S)"><path fill="none" stroke="#000" stroke-linecap="round" stroke-linejoin="round" stroke-miterlimit="10" stroke-width=".5" d="M450.03906 476.82031l.41797 7.01563"/></g><path fill="none" stroke="#000" stroke-linecap="round" stroke-linejoin="round" stroke-miterlimit="10" stroke-width=".5" d="M450.09766 477.84375l1.04687-.64063"/><g clip-path="url(#T)"><path fill="none" stroke="#000" stroke-linecap="round" stroke-linejoin="round" stroke-miterlimit="10" stroke-width=".5" d="M464.58594 476.96875l-2.05078 6.71875"/></g><path fill="none" stroke="#000" stroke-linecap="round" stroke-linejoin="round" stroke-miterlimit="10" stroke-width=".5" d="M464.28906 477.94531l1.20313-.23437"/><g clip-path="url(#U)"><path fill="none" stroke="#000" stroke-linecap="round" stroke-linejoin="round" stroke-miterlimit="10" stroke-width=".5" d="M147.50781 467.1914l-7.01562-.35546"/></g><path fill="none" stroke="#000" stroke-linecap="round" stroke-linejoin="round" stroke-miterlimit="10" stroke-width=".5" d="M147.50781 467.1914l1.04297 2.22266m12.2461-2.8711l-6.96485.94142m6.96484-.94141l1.4336 1.99219m11.89453-1.8711l-6.99219.69922m6.99219-.69922l1.36328 2.03907m11.9414-2.13672l-6.96874.89453m6.96875-.89453l1.41797 2m11.8828-2.10157l-6.9414 1.09766m6.9414-1.09766l1.47657 1.95703m11.74219-2.39453L207.20312 468m6.7461-1.97266l1.71094 1.75782m11.61328-1.72657l-6.76563 1.91016m6.76563-1.91016l1.69531 1.77344m11.71484-1.3086l-6.95703.98048m6.95703-.98047l1.44141 1.98828m11.89063-1.86328l-6.98829.73047m6.98828-.73047l1.3711 2.03125m11.48047-3.4414l-6.0625 3.55077m6.0625-3.55078l2.08984 1.28516m10.73438-1.9375l-5.08203 4.85547m5.08203-4.85547l2.32812.77343m10.95313-.80468l-5.01563 4.91797m5.01563-4.91797l2.33984.73828m11.02734-.6875l-5.11718 4.8164m4.37109-4.11718l1.16406.39453m13.3711-.46094l-6.0625 3.55078m5.17968-3.03515l1.04297.64453m13.26172-.96485l-6.27734 3.16016m5.36328-2.69922l1 .70703m13.5625-.1211l-6.94531 1.06642m13.92187 1.49609l5.73047-4.0586m7.33203 3.65235l6.23438-3.2461m-5.32813 2.77344l-1.00781-.69531m13.0625.08594l6.94531-1.08203m-5.9336.92578l-.73827-.98438m13.01172.33594l7.0039.52734m-5.98437-.44921l-.4961-1.125m16.1836-2.20313l.22265 7.02734m11.42578-6.54296l3.5547 6.05859m-3.03907-5.17969L423 463.82031m12.19531.13672l3.47266 6.11328m-2.96875-5.22265l.66016-1.03516m13.17187-.23828l1.42969 6.8789m-1.22266-5.8789l.94531-.78516m14.46094.08985l-3.16406 6.27343m2.70312-5.36328l1.22657-.02734"/><g clip-path="url(#V)"><path fill="none" stroke="#000" stroke-linecap="round" stroke-linejoin="round" stroke-miterlimit="10" stroke-width=".5" d="M147.51172 453.6289l-7.02344.14063"/></g><path fill="none" stroke="#000" stroke-linecap="round" stroke-linejoin="round" stroke-miterlimit="10" stroke-width=".5" d="M147.51172 453.6289l1.19531 2.14454m12.11719-1.92578l-7.01953-.29688m7.01953.29688l1.0625 2.21093m-2.08203-2.2539l.52734 1.10547m13.80469-1.00391l-7.01563-.41406m7.01563.41406l1.02344 2.23047m12.29297-2.2461l-7.01563-.3828m7.01563.3828l1.03125 2.22657m12.28906-2.52735l-7.02344.21875m7.02344-.21875l1.21875 2.12891m12.07031-2.4336l-6.97656.82813m6.97656-.82812l1.40234 2.01562m11.8125-2.54297l-6.77343 1.8789m6.77343-1.8789l1.6875 1.78125m11.5586-1.99218l-6.63672 2.30078m6.63672-2.30078l1.80078 1.67187m11.65234-1.14453l-6.91406 1.25m5.91016-1.07031l.7578.96484m13.45704-1.5664l-6.70703 2.09374m5.73437-1.78906l.8711.85938m12.98437-2.07422l-5.83984 3.91015m5.83984-3.91015l2.16406 1.16015m10.9961-1.37109l-5.53125 4.33203m5.53125-4.33203l2.2461.9961m11.1875-.83594l-5.76954 4.01171m5.76953-4.01171l2.1836 1.12109m11.45312-.55469l-6.41016 2.8789m6.41016-2.8789l1.9375 1.5039m11.39844-1.45702l-6.44922 2.78906m6.44922-2.78906l1.91797 1.53125m10.83593-2.42578l-5.33203 4.57812m4.5586-3.91406l1.14062.44922m11.17969-2.22266l-1.79297 6.79688m10.80469-4.25l6.8164 1.70312m8.76172-4.17578l2.28907 6.64453m-1.95704-5.67578l.83594-.89844m12.02735-.02344l2.52734 6.5547m-2.16016-5.60157l.80078-.92969m16.42188 1.44531l-6.02344 3.6172m6.02344-3.6172l2.10547 1.26172m11.29297-1.11718l-6.1875 3.32812m5.28515-2.84375l1.02344.67969m13.57031-.04297l-6.9414 1.08594m15.29297-3.72266l2.98828 6.35938m14.55468-5.38672l-5.47265 4.41015m4.67578-3.76562l1.1289.48047"/><g clip-path="url(#W)"><path fill="none" stroke="#000" stroke-linecap="round" stroke-linejoin="round" stroke-miterlimit="10" stroke-width=".5" d="M147.51172 440.24219l-7.02344.28515"/></g><path fill="none" stroke="#000" stroke-linecap="round" stroke-linejoin="round" stroke-miterlimit="10" stroke-width=".5" d="M147.51172 440.24219l1.23828 2.11719m-2.26172-2.07813l.6211 1.0586m13.70703-.66016l-7.00391-.58985m7.0039.58985l.96485 2.2539m-1.98438-2.33984l.48438 1.125m13.85938-1.20703l-7.02344-.2539m7.02344.2539l1.07421 2.20312m-2.09375-2.24218l.53516 1.10546m13.80078-1.1953h-7.02344m7.02344 0l1.15234 2.16796m12.16407-2.26172l-7.02344.1914m7.02344-.1914l1.21094 2.13282M213.97655 439.5l-6.80078 1.76953m6.80078-1.76953l1.66016 1.80469m11.5586-2.11328l-6.60938 2.3828m6.60937-2.3828l1.82031 1.64843m9.7461-3.60546l-3.11328 6.30078m3.11328-6.30078l2.45312-.07422m8.89453-.26563l.82032 6.97656m-.69922-5.96093l1.00781-.69922m15.53906 1.25l-5.8828 3.84375m5.8828-3.84375l2.14844 1.1836m11.25781-1.03516l-6.0664 3.54687m6.0664-3.54688l2.08985 1.28907m11.0664-1.53516l-5.75 4.03906m5.75-4.03906l2.1875 1.10938m11.29688-.84375l-6.08594 3.5078m6.08594-3.5078l2.08203 1.30078m-2.96875-.78906l1.04297.64843m13.22265-1.04687l-6.21484 3.28125m6.21484-3.28125l2.03125 1.3789m11.08985-1.70312l-5.82813 3.92969m5.82813-3.9297l2.16797 1.15235m10.84765-1.53515l-5.22656 4.69922m4.46484-4.01563l1.15235.41797m9.88672-2.24219l.84765 6.97656m-.72265-5.96093l1.0039-.70313m11.75-.23047l1.72266 6.8125m-1.47266-5.82031l.91016-.82422m14.92969 6.1836l-3.83203-5.89063m18.71093 2.4414l-6.95703 1.00782m6.95703-1.00781l1.44922 1.98046m11.74219-2.52343l-6.70703 2.09765m6.70703-2.09765l1.7461 1.72265m11.51171-1.8828l-6.59765 2.41796m6.59765-2.41797l1.82813 1.63672m-2.78516-1.28516l.91016.81641m13.52734-.54688l-6.92578 1.17188m6.92578-1.17188l1.5 1.94532m-2.50781-1.77344l.75.97266m13.6211-.66797l-7.02345.21875m7.02344-.21875l1.21875 2.1289m-2.23828-2.09765l.60938 1.0664m13.6875-1.51953l-6.94532 1.0625"/><g clip-path="url(#X)"><path fill="none" stroke="#000" stroke-linecap="round" stroke-linejoin="round" stroke-miterlimit="10" stroke-width=".5" d="M467.03516 439.85156l1.46484 1.96875"/></g><g clip-path="url(#Y)"><path fill="none" stroke="#000" stroke-linecap="round" stroke-linejoin="round" stroke-miterlimit="10" stroke-width=".5" d="M147.50781 426.89063l-7.01562.35546"/></g><path fill="none" stroke="#000" stroke-linecap="round" stroke-linejoin="round" stroke-miterlimit="10" stroke-width=".5" d="M147.50781 426.89063l1.26172 2.10546m-2.28125-2.05468l.6289 1.05468m13.71095-.87109l-7.02735-.11328m7.02734.11328l1.1172 2.1836m12.17187-1.8086l-6.97266-.86328m6.97266.86328l.8789 2.28906m12.39844-2.04297l-6.89844-1.35547m6.89844 1.35547l.71094 2.34766m12.66406-3.20313l-7.01953.35547m7.01953-.35547L202.02734 429m11.82032-3.21484l-6.54297 2.5664m6.54297-2.5664l1.86328 1.59765m10.42969-3.01172l-4.5 5.39454m3.84375-4.60938l1.20312.25m14.01563 1.32813l-6.9961.66796m5.97656-.5703l.6797 1.02343m13.32812-2.30078l-6.33985 3.02734m5.41797-2.58594l.98438.72657m12.74218-1.94922l-5.3203 4.58984m18.70312-4.50781l-5.45704 4.42578m19.0547-4.02344l-6.01954 3.6211m19.76172-1.08594l-6.875-1.44922m5.875 1.23828l.33984 1.17969m12.33985-4.70703l-3.60547 6.02734m3.60547-6.02734l2.45312.1211m11.66406.53515l-5.21093 4.71484m5.21094-4.71484l2.30859.83594m-3.0664-.14844l1.15624.41797m13.35547-.5l-6.08984 3.5039m6.08984-3.5039l2.08203 1.30078m11.69531.1914l-7.0078.51954m5.98827-.44532l.65235 1.03907m13.35937-2.33985l-6.36719 2.97266m5.44141-2.53906l.98047.73828m10.36719-3.1875l-.57813 7.0039m.57813-7.0039l2.2539-.96875m14.27735 4.23828l-7.01172.46484m7.01172-.46484l1.29297 2.08984m-2.3125-2.01953l.64453 1.04297m13.5625-1.85156l-6.7539 1.9414m6.7539-1.9414l1.70312 1.76172m-2.6875-1.48047l.85156.8828m13.08985-1.98827l-6.03906 3.58984m6.03906-3.58984l2.09765 1.26953m-2.97656-.75l2.09766 1.27344m11.86328-2.13672l-5.57422 4.27734m5.57422-4.27734l2.23438 1.01562m-3.04688-.39453l1.11719.50781m13.48047-.30859l-6.51563 2.63672m6.51563-2.63672l1.8789 1.57422m-2.82812-1.1914l.9414.78905m12.64454-2.23828l-5.15625 4.76953"/><g clip-path="url(#Z)"><path fill="none" stroke="#000" stroke-linecap="round" stroke-linejoin="round" stroke-miterlimit="10" stroke-width=".5" d="M466.14063 424.6836l2.3164.80468"/></g><g clip-path="url(#aa)"><path fill="none" stroke="#000" stroke-linecap="round" stroke-linejoin="round" stroke-miterlimit="10" stroke-width=".5" d="M147.5 413.45313l-7 .60156"/></g><path fill="none" stroke="#000" stroke-linecap="round" stroke-linejoin="round" stroke-miterlimit="10" stroke-width=".5" d="M147.5 413.45313l1.33203 2.05859m11.9336-2.41797l-6.90235 1.3164m6.90234-1.3164l1.53907 1.91406m11.65625-2.375l-6.66016 2.24219m6.66016-2.24219l1.78125 1.6875m11.6875-1.02344l-6.96875.91407m6.96875-.91406l1.42187 2m11.88672-2.04688l-6.95703 1.00781m6.95703-1.00781l1.44922 1.97656m11.875-1.89844l-6.97656.84766m5.96094-.72265l.70312 1.0039m13.6289-.27344l-6.97656-.85937m5.96094.73437l.4375 1.14454m13.91406-1.29688l-7.01953-.30469m7.01953.30469l1.0586 2.21484m12.19531-3.04297l-6.89844 1.34766m5.89453-1.14844l.77344.95313m13.58984-.09375l-6.98437-.76563m5.96875.65625l.45313 1.13672m13.10546-3.63672l-5.4375 4.45313m19-.34375L287.5 411.87109m5.07031 3.21875l-.09375 1.22266m14.72656-1.76562l-6.84375-1.58594m5.84766 1.35547l.3164 1.18359m13.82813-3.07031l-6.51172 2.64844m5.5625-2.26172l.94141.78515m13.5664.44532l-7-.58985m5.98438.5039l.48047 1.12891m13.80078-.67968l-6.90234-1.3125m6.90234 1.3125l.72656 2.34375m12.64453-2.7422l-7.0078-.51952m7.0078.51953l.98829 2.2461m12.25-3.26954l-6.85938 1.52735m6.85938-1.52735l1.59765 1.86719m11.25781-2.98047l-5.9375 3.75781m5.9375-3.75781l2.13282 1.21484m-2.9961-.66796l1.06641.60546m13.11719-1.14453l-5.94922 3.74219m5.94922-3.74219l2.1289 1.21875m-2.99609-.67578l1.0664.61328m12.96876-1.36718l-5.65625 4.16406m5.65625-4.16406l2.21484 1.05859m-3.03516-.45313l1.10547.53125m12.92969-1.27343l-5.45313 4.43359m5.45313-4.4336l2.25781.95313m-3.05078-.3086l1.1289.48048m12.94141-1.16407l-5.3789 4.51563m5.3789-4.51563l2.27735.91797m-3.0586-.26172l1.13672.45704m13.23438-.7422l-5.92969 3.77345m5.92969-3.77344l2.13672 1.21094m-3-.66407l1.0664.60547m12.5039-1.875l-4.71093 5.21485"/><g clip-path="url(#ab)"><path fill="none" stroke="#000" stroke-linecap="round" stroke-linejoin="round" stroke-miterlimit="10" stroke-width=".5" d="M465.91797 411.14453l2.3789.59766"/></g><path fill="none" stroke="#000" stroke-linecap="round" stroke-linejoin="round" stroke-miterlimit="10" stroke-width=".5" d="M465.23047 411.90625l2.3789.59766"/><g clip-path="url(#ac)"><path fill="none" stroke="#000" stroke-linecap="round" stroke-linejoin="round" stroke-miterlimit="10" stroke-width=".5" d="M147.49219 400.03906l-6.98438.80078"/></g><path fill="none" stroke="#000" stroke-linecap="round" stroke-linejoin="round" stroke-miterlimit="10" stroke-width=".5" d="M147.49219 400.03906l1.39062 2.01953m11.58985-3.16015l-6.31641 3.08203m6.3164-3.08203l1.98438 1.4414m11.67969-.125l-7.01172.44922m5.99219-.38672l.64453 1.04688m13.58594-.01563l-6.8047-1.74218m6.8047 1.74218l.58203 2.38672m12.71875-2.32812l-6.77735-1.85938m6.77735 1.85938l.53906 2.39453m12.90234-3.2461l-7.02734-.15234m7.02734.15235l1.10157 2.1914m12.13672-2.9961l-6.875 1.45313m6.875-1.45312l1.57421 1.88281m11.75782-1.78906l-6.91016 1.26953m6.91016-1.26953l1.52734 1.92187M254 399.96094l-6.96094.95312M254 399.96094l1.4375 1.99219m11.85938-2.125l-6.92188 1.21875m6.92188-1.21875l1.5078 1.93359m11.60548-2.63672l-6.51953 2.6289m6.51953-2.6289l1.8789 1.57813m11.64844-.8047l-6.94531 1.07813m5.9336-.92187l.73827.98437m13.51172.30469l-6.78906-1.8125m5.80078 1.55078l.27734 1.19531m14.14063-1.71093l-7.01953-.25782m7.01953.25782l1.07422 2.20703m12.2461-2.27735l-7.02735-.11718m7.02734.11718l1.11328 2.1836m11.99219-1.04297l-6.60937-2.39453m6.60937 2.39453l.34375 2.42969m13.17969-3.52344l-7.02735-.21094m6.00391.17969l.54297 1.10156m13.73828-1.8125l-6.91016 1.27735m6.91016-1.27735l1.52344 1.92188m11.23437-3.26954l-5.80078 3.96875m5.80078-3.96875l2.17578 1.14063m-3.01953-.5625l1.08594.57031m13.20703-.9375l-6.0664 3.54688m6.0664-3.54688l2.08985 1.29297m-2.97266-.77734l1.04297.64844m13.10547-1.2422l-5.96875 3.70704m5.96875-3.70703l2.12109 1.23047m-2.98828-.69141l1.0586.61719m12.71874-1.6914l-5.15625 4.77343m5.15625-4.77344l2.3164.8086m-3.0664-.11329l1.15625.40235m12.71094-1.29297l-4.76172 5.16797m4.76172-5.16797l2.375.6211m-3.0664.1289l1.18359.3125m13.42969-.32813l-5.97657 3.69532m5.97657-3.69532l2.12109 1.23829m-2.98828-.69922l1.0586.61718m13.03124-1.29687l-5.79297 3.98047"/><g clip-path="url(#ad)"><path fill="none" stroke="#000" stroke-linecap="round" stroke-linejoin="round" stroke-miterlimit="10" stroke-width=".5" d="M466.45703 398.44922l2.17578 1.13281"/></g><path fill="none" stroke="#000" stroke-linecap="round" stroke-linejoin="round" stroke-miterlimit="10" stroke-width=".5" d="M465.61328 399.02734l1.08985.56641"/><g clip-path="url(#ae)"><path fill="none" stroke="#000" stroke-linecap="round" stroke-linejoin="round" stroke-miterlimit="10" stroke-width=".5" d="M147.5039 387.35938l-7.0078-.47266"/></g><path fill="none" stroke="#000" stroke-linecap="round" stroke-linejoin="round" stroke-miterlimit="10" stroke-width=".5" d="M146.48438 387.29297l.5039 1.11719m13.83984-1.3672l-7.02734.16017m7.02734-.16016l1.19922 2.14062m-2.22265-2.11718l.60156 1.0703m13.72656-1.3125l-7.0039.59767m7.0039-.59766l1.33203 2.0625m-2.35156-1.97656l.66406 1.03125m13.6797-.875l-7.02345.11328m7.02344-.11328l1.1875 2.14453m11.91016-.8711l-6.58985-2.43359m5.63282 2.08203l.16406 1.21485m14.32422-2.25l-7.01953.33984m5.99609-.28906l.6289 1.05468m13.53516-2.03515l-6.67187 2.20312m5.70312-1.88281l.88281.84766m13.3047-1.4297l-6.48048 2.72267m6.48047-2.72266l1.90235 1.55469m11.35156-1.69532l-6.35547 3.00391m5.42969-2.5664l.98437.73437m13.32422-1.01172l-6.4961 2.6836m5.55079-2.29298l.94922.78125m13.3711-1.01953l-6.61329 2.37891m5.65234-2.03125l.90625.82422m13.52344-.59375l-6.91797 1.22656m6.91797-1.22656l1.51172 1.92969m11.84375-1.63282l-7 .62891m7-.6289l1.33984 2.05468m11.94141-2.30469l-6.9336 1.12891m6.9336-1.1289l1.48437 1.95312m11.83594-1.92578l-6.94531 1.07422m5.9336-.91797l.73827.98437M347.23828 387l-7.02344.2461m6-.21094l.61328 1.0625m13.70313-1.3711l-6.98047.79297m5.96484-.67578l.69532 1.01172m13.35156-2.17188l-6.41016 2.87891m6.41016-2.8789l1.9375 1.5039m11.08594-2.02734l-5.82813 3.92578m5.82813-3.92578l2.16406 1.15234m-3.01172-.58203l1.08203.57812m12.9336-1.34765l-5.53516 4.32812m5.53516-4.32812l2.24218.9961m-3.04687-.3672l1.1211.4961m12.94921-1.1875l-5.4375 4.45312m5.4375-4.45312l2.26563.94531m-3.0586-.30078l1.13281.47265m12.5625-1.54687l-4.60937 5.3086m4.60937-5.3086l2.39063.55078m-3.0625.22266l1.19531.27734m12.85156-.9961l-4.73046 5.19923m4.73046-5.19922l2.37891.60937m-3.0664.14844l1.1875.30469m13.40624-.36328l-5.91406 3.80078m5.91406-3.80078l2.14063 1.20312m-3-.64844l1.07031.59766m13.3086-.78516l-6.32032 3.06641"/><g clip-path="url(#af)"><path fill="none" stroke="#000" stroke-linecap="round" stroke-linejoin="round" stroke-miterlimit="10" stroke-width=".5" d="M466.72266 385.58984l1.98046 1.44532"/></g><path fill="none" stroke="#000" stroke-linecap="round" stroke-linejoin="round" stroke-miterlimit="10" stroke-width=".5" d="M465.80078 386.03516l.99219.72265"/><g clip-path="url(#ag)"><path fill="none" stroke="#000" stroke-linecap="round" stroke-linejoin="round" stroke-miterlimit="10" stroke-width=".5" d="M147.5 374.1211l-7-.62891"/></g><path fill="none" stroke="#000" stroke-linecap="round" stroke-linejoin="round" stroke-miterlimit="10" stroke-width=".5" d="M147.5 374.1211l.95313 2.26171m-1.97266-2.35156l.47656 1.1289m13.8086-.68359l-6.89844-1.33594m6.89844 1.33594l.71875 2.34375m-1.72266-2.53906l.35937 1.17188m13.94532-2.375l-6.8711 1.46093m6.8711-1.46094l1.57812 1.87891m11.66797-2.15625l-6.73438 2.01563m6.73438-2.01563l1.72266 1.7461m11.35547-2.33594l-6.26172 3.1914m6.26172-3.1914l2.01171 1.41015m10.85938-2.07421l-5.375 4.52343m4.59375-3.86719l1.14062.45704m12.75-1.33985l-4.96093 4.97656m4.23828-4.2539l1.17578.35547m13.41016-.3711l-6.0586 3.5625m5.17578-3.04296l1.04688.64062m13.20703-1.0586l-6.17188 3.35938m5.27344-2.8711l1.02734.67579m13.4336-.59766l-6.66406 2.22266m5.6953-1.89844l.88673.84766m13.5586.32422l-6.98829-.76563m5.97266.65235l.45312 1.14062m13.8789-1.05078l-6.99218-.71875m5.97656.61328l.46094 1.13672m13.88281-1.58594l-7.01562.39063m5.9961-.33204l.6328 1.04688m13.66797-1.4375l-6.94922 1.05469m5.9375-.90235l.73438.98438m13.61719-.91016l-7 .60156m5.98437-.51171l.66406 1.02734m13.65625-1.22656l-6.98047.8164m6.98047-.8164l1.39844 2.01953m11.92578-1.9375l-6.9961.65625m6.9961-.65625l1.35156 2.04687m11.83204-2.72656l-6.73047 2.01563m6.73047-2.01563l1.72265 1.7461m-2.70312-1.45313l.86328.8711m13.03515-2.03126l-5.9414 3.75m5.9414-3.75l2.13282 1.21485m-2.9961-.67188l1.06641.60938m13.13672-1.11719l-5.98828 3.67969m5.98828-3.67969l2.11328 1.23828m-2.98438-.70312l1.0586.62109m12.79687-1.60938l-5.32812 4.58204m5.32812-4.58204l2.28516.89454m-3.0586-.22657l1.14063.44532m12.97656-1.07813l-5.3828 4.51563m5.3828-4.51563l2.27344.91797m-3.0586-.26172l1.14063.46094m13.01563-1.05078l-5.4961 4.3789m5.4961-4.3789l2.25.97656m-3.05078-.33594l1.125.48828m12.97656-1.14453l-5.46875 4.41406m5.46875-4.41406l2.25781.96485m11.52344-.20704l-6.40235 2.89844"/><g clip-path="url(#ah)"><path fill="none" stroke="#000" stroke-linecap="round" stroke-linejoin="round" stroke-miterlimit="10" stroke-width=".5" d="M466.76172 372.35938l1.94531 1.5"/></g><g clip-path="url(#ai)"><path fill="none" stroke="#000" stroke-linecap="round" stroke-linejoin="round" stroke-miterlimit="10" stroke-width=".5" d="M147.50781 360.29297l-7.01562.39844"/></g><path fill="none" stroke="#000" stroke-linecap="round" stroke-linejoin="round" stroke-miterlimit="10" stroke-width=".5" d="M147.50781 360.29297l1.27344 2.09765m-2.29297-2.03906l.63672 1.05078m13.67188-1.39453l-6.96094.96875m6.96094-.96875l1.4375 1.98828m11.82812-2.25l-6.86719 1.4922m6.86719-1.4922l1.58594 1.8711m11.42187-2.73047l-6.25 3.21484m6.25-3.21484l2.01563 1.39844m10.76172-2.17188l-5.17188 4.75781m5.17188-4.7578l2.3125.8164m10.55078-1.22656l-4.26953 5.58203m3.64843-4.76954l1.21094.19922m11.76563-1.53125l-2.35157 6.6211m2.01172-5.66016l1.21094-.17969m11.89453-.92968l-1.2539 6.91406m1.0703-5.90625l1.17188-.375m13.82031.02344l-4.23828 5.60546m3.6211-4.78906l1.21094.1914m13.3125-.4414l-5.42188 4.46875m4.63281-3.8164l1.13281.46875m13.65625.21093l-6.79296 1.8047m5.80468-1.53907l.83594.89844m13.55469.18359l-6.96875-.89063m5.95703.76172l.4336 1.14844m13.91406-1.21484l-7.00782-.4961m5.98829.42188l.49609 1.1211m13.83984-1.08204l-7.01172-.42578m5.9922.36328l.51171 1.11719m13.82813-1.1836l-7.02344-.16796m6.0039.14453l.55079 1.09375m13.78515-1.21485l-7.02344.1172m7.02344-.1172l1.1875 2.14844m12.10156-2.52734l-6.97265.875m6.97265-.875l1.41407 2.00781m-2.4297-1.8789l.70704 1m13.61328-1.20313l-6.95312 1.02344m6.95312-1.02344l1.45703 1.97656m-2.46875-1.82812l.72657.98828m13.39453-1.91016l-6.53907 2.57031m6.53907-2.5703l1.86328 1.59765m-2.8164-1.22266l.93359.79688m13.30078-1.25391l-6.47266 2.73828m6.47266-2.73828l1.90625 1.54688m-2.84766-1.14844l.95313.77344m13.37109-1l-6.60938 2.39062m6.60938-2.39063l1.82031 1.64844m-2.78125-1.30078l.91016.82422m13.38281-1.11719l-6.64453 2.28516m6.64453-2.28516l1.79688 1.67188m-2.76172-1.33985l.89843.83594m13.34766-1.26953l-6.57422 2.48828m6.57422-2.48828l1.84375 1.61719m-2.80078-1.25781l.92187.8125m13.19922-1.51172l-6.27343 3.16796m6.27343-3.16796l2.0039 1.41406m-2.91796-.95313l1.0039.70704m13.14454-1.32032l-6.10938 3.46875"/><g clip-path="url(#aj)"><path fill="none" stroke="#000" stroke-linecap="round" stroke-linejoin="round" stroke-miterlimit="10" stroke-width=".5" d="M466.61719 358.75781l2.07031 1.3164"/></g><path fill="none" stroke="#000" stroke-linecap="round" stroke-linejoin="round" stroke-miterlimit="10" stroke-width=".5" d="M465.72656 359.26172l1.03906.66015"/><g clip-path="url(#ak)"><path fill="none" stroke="#000" stroke-linecap="round" stroke-linejoin="round" stroke-miterlimit="10" stroke-width=".5" d="M146.82813 345.09375l-5.65625 4.16797"/></g><path fill="none" stroke="#000" stroke-linecap="round" stroke-linejoin="round" stroke-miterlimit="10" stroke-width=".5" d="M146.82813 345.09375l2.21484 1.0625m10.38672-1.78516l-4.23047 5.61329m3.61719-4.79688l1.21093.19531m13.48438-.21484L167.75 349.1875m4.92188-3.4336l1.09375.5586m12.45312-1.8125l-4.54688 5.35938m3.88282-4.58204l1.19922.26172m11.76172-1.64062l-2.51172 6.5625m2.14843-5.60938l1.21875-.14844m14.21485.66407l-6.01953 3.6211m5.14453-3.09376l1.05078.6289m13.5586-.10546l-6.85938 1.51953m5.86328-1.29688l.79687.9336m13.15235-2.10938l-6.13672 3.42579m5.2461-2.92579l1.02734.66407m13.4414-.57422l-6.66015 2.2461m5.6914-1.91798l.89063.83985m13.5039-.75782l-6.8828 1.42579m5.8789-1.21875l.78515.9453m13.46875-1.41406l-6.7539 1.94922m5.76953-1.66796l.85547.8828m13.58203-.125l-7.02735-.1289m6.00391.10938l.55469 1.09375m13.7539-.69141l-6.96875-.89063m6.96875.89063l.8672 2.29297m12.46874-2.50781l-7.01172-.46485m7.01172.46485l1.0039 2.23828m12.31641-2.61328l-7.02343.28515m7.02343-.28515l1.23829 2.11718m12.07812-1.89453l-7.02344-.16015m7.02344.16015l1.10156 2.1914m12.19922-1.9414l-6.9961-.66015m6.9961.66015l.94531 2.26563m12.38672-2.59375h-7.02734m7.02734 0l1.15235 2.16406m-2.17578-2.16406l.57421 1.08203m13.6836-1.82422l-6.86719 1.48047m6.86719-1.48047l1.58203 1.875m-2.58203-1.66016l.79297.9375m13.40625-1.5703l-6.63672 2.3164m6.63672-2.3164l1.80078 1.66405m-2.76563-1.32812l.89844.83594m13.41016-1.08594l-6.69532 2.14453m6.69532-2.14453l1.75781 1.71484m-2.73047-1.40234l.875.85547m13.42578-1.125l-6.71875 2.0586m6.71875-2.0586l1.73438 1.73047m-2.71485-1.4297l1.73828 1.73048m12.41797-2.40235l-6.4414 2.80079m6.4414-2.80079l1.92188 1.52735m-2.85938-1.1211l1.92188 1.52735m12.23828-2.13281l-6.25781 3.19921m6.25781-3.19921l2.01172 1.40625m-2.92188-.94141l1.00391.70312m13.38281-.80468l-6.57812 2.47265"/><g clip-path="url(#al)"><path fill="none" stroke="#000" stroke-linecap="round" stroke-linejoin="round" stroke-miterlimit="10" stroke-width=".5" d="M466.85156 345.9414l1.83985 1.6211"/></g><path fill="none" stroke="#000" stroke-linecap="round" stroke-linejoin="round" stroke-miterlimit="10" stroke-width=".5" d="M465.89453 346.30078l.91797.8125"/><g clip-path="url(#am)"><path fill="none" stroke="#000" stroke-linecap="round" stroke-linejoin="round" stroke-miterlimit="10" stroke-width=".5" d="M145.64844 330.76172l-3.29688 6.20312"/></g><path fill="none" stroke="#000" stroke-linecap="round" stroke-linejoin="round" stroke-miterlimit="10" stroke-width=".5" d="M145.64844 330.76172l2.45312-.0039m10.59375-.125l-2.76172 6.46093m2.76172-6.46094l2.44531-.20703m12.21875 1.22266l-5.45703 4.42578m5.45703-4.42578l2.25782.95703m10.21484-1.70703l-3.77344 5.92969m3.22266-5.06641l1.22656.09765m14.16016 1.14454l-6.8125 1.71875m6.8125-1.71875l1.64453 1.8164m11.77344-1.11719l-7.01953.32032m7.01953-.32031l1.25 2.10937m12.01562-2.55469l-6.92187 1.21094m6.92187-1.21094l1.50781 1.9375m11.82422-1.83203l-6.95703 1m6.95703-1l1.44922 1.98047m11.79688-2.33594l-6.8164 1.71094m6.8164-1.71094l1.64453 1.82031m11.7461-1.42578l-6.96876.92188m6.96875-.92188l1.42578 1.9961m11.8672-2.14063l-6.92188 1.21094m6.92187-1.21094l1.50781 1.9336m11.85938-1.38672l-7.02735.11719m7.02735-.1172l1.1875 2.14844m12.10547-1.6914l-6.98438-.79688m5.96485.6836l.44921 1.14062m13.83594-.72265l-6.88672-1.40625m6.88672 1.40625l.69531 2.35156m12.64454-2.49219l-6.9375-1.125m6.9375 1.125l.78906 2.32422m12.51953-2.29688l-6.92578-1.18359m6.92578 1.1836l.77344 2.33203m12.55468-2.40625l-6.94921-1.03125m6.94921 1.03125l.82422 2.30859m12.52735-2.96094L366.84375 334m7.02344-.27344l1.23437 2.11719m-2.25781-2.07813l.6211 1.0586m13.5078-2.16797l-6.60156 2.41016m6.60157-2.41016l1.82421 1.64063m11.5625-1.41797l-6.74609 1.96875m6.7461-1.96875l1.71093 1.7539m11.67578-1.45312l-6.89062 1.36719m6.89062-1.3672l1.5547 1.89844m-2.5547-1.69921l.77344.94921M427 332.91798l-6.76563 1.89062M427 332.91797l1.6914 1.77734m-2.67578-1.5039l.84766.89062m13.2461-1.71875l-6.35547 3m6.35546-3l1.96485 1.46875m-2.89063-1.03125l1.96875 1.46485m12.1875-2.07032l-6.1875 3.33594m6.1875-3.33594l2.04297 1.36328m-2.9414-.8789l2.03906 1.36328m12.3125-1.55469l-6.46485 2.75"/><g clip-path="url(#an)"><path fill="none" stroke="#000" stroke-linecap="round" stroke-linejoin="round" stroke-miterlimit="10" stroke-width=".5" d="M466.79297 332.48828l1.91015 1.54297"/></g><g clip-path="url(#ao)"><path fill="none" stroke="#000" stroke-linecap="round" stroke-linejoin="round" stroke-miterlimit="10" stroke-width=".5" d="M465.85547 332.88672l1.90625 1.54297"/></g><g clip-path="url(#ap)"><path fill="none" stroke="#000" stroke-linecap="round" stroke-linejoin="round" stroke-miterlimit="10" stroke-width=".5" d="M146.15625 317.77344l-4.3125 5.55078"/></g><path fill="none" stroke="#000" stroke-linecap="round" stroke-linejoin="round" stroke-miterlimit="10" stroke-width=".5" d="M146.15625 317.77344l2.41797.41797m11.23828-.11329l-4.9961 4.94141m4.9961-4.9414l2.34375.72656m11.76172.5l-6.57422 2.48828m6.57422-2.48828l1.84375 1.61719m-2.80078-1.25391l.92187.8086m13.4375-.91016l-6.75 1.96484m6.75-1.96484l1.71094 1.7578m-2.69531-1.47265l.85547.8789m13.57422-.39452l-7.01172.42578m7.01172-.42578l1.28125 2.09375m-2.30079-2.03125l.64063 1.04687m13.70312-.94922l-7.02734.10157m7.02734-.10157l1.1836 2.14844m-2.20703-2.13281l.58984 1.07422m13.73438-1.36328l-7 .65234m7-.65234l1.34765 2.05078m-2.36719-1.95703l.67188 1.02734m13.6211-1.40625l-6.91798 1.22266m6.91797-1.22266l1.51172 1.92969m-2.51562-1.7539l.7539.96874m13.49219-1.46875l-6.77344 1.8711m6.77344-1.8711l1.6875 1.78125m11.71094-1.39844l-6.9375 1.10157m6.9375-1.10157l1.47656 1.96094m11.78125-.57031l-6.82422-1.67969m5.83203 1.4375l.30078 1.1875m14.08594-2.1914l-6.98047.8125m5.96485-.69141l.6953 1.00781m13.57423.03125l-6.86328-1.5039m5.86718 1.28515l.33204 1.17969m13.89843-.65235l-6.69922-2.12109m5.72657 1.8125l.22265 1.20313m14.1875-1.41797l-6.94531-1.07813m5.9336.92188l.40624 1.16015m13.9336-1.09375l-6.96875-.89843m5.95312.76953l.4336 1.14844m13.91797-1.23829l-7.01172-.45703m5.99218.39063l.50391 1.11719m13.51563.1914l-6.38282-2.9414m5.45313 2.51171l.07031 1.22657m14.28906-3.45704l-6.60937 2.37891m5.64844-2.03515l.91015.82421m13.52735-.54687l-6.9336 1.13672m5.92578-.97266l.74219.97656m12.75 1.75l-5.27344-4.64453m19.04688 3.98438l-6.1875-3.32813m19.79297.71875l-6.76953 1.89453m5.78515-1.62109l.84375.89063m13.0625-2.0625l-5.98047 3.6914m5.98047-3.6914l2.11719 1.23828m-2.98828-.70313l1.0586.6211m12.89843-1.48438l-5.52344 4.34766"/><g clip-path="url(#aq)"><path fill="none" stroke="#000" stroke-linecap="round" stroke-linejoin="round" stroke-miterlimit="10" stroke-width=".5" d="M466.32422 318.375l2.24219.98828"/></g><g clip-path="url(#ar)"><path fill="none" stroke="#000" stroke-linecap="round" stroke-linejoin="round" stroke-miterlimit="10" stroke-width=".5" d="M465.51953 319.00781l2.2461.98828"/></g><path fill="#00f" fill-rule="evenodd" d="M388.23828 467.64844h8.61719V457.5039h-8.61719v10.14453"/><path fill="azure" fill-rule="evenodd" d="M390.07031 459.33594h.83594v2.82422h3.28516v-2.82422h.83203v6.48047h-.83203v-2.91797h-3.28516v2.91797h-.83594v-6.48047"/><path fill="#ff3030" fill-rule="evenodd" d="M291.28906 414.38672h7.6914v-10.14453h-7.6914v10.14453"/><path fill="azure" fill-rule="evenodd" d="M293.1211 406.07422h.83593v5.74219h3.1914v.73828h-4.02734v-6.48047"/><path fill="#ff3030" fill-rule="evenodd" d="M384.4961 414.38672h7.6914v-10.14453h-7.6914v10.14453"/><path fill="azure" fill-rule="evenodd" d="M386.32813 406.07422h.83203v5.74219h3.1953v.73828h-4.02733v-6.48047"/><path fill="#ff3030" fill-rule="evenodd" d="M184.76953 387.75781h7.6914v-10.14453h-7.6914v10.14453"/><path fill="azure" fill-rule="evenodd" d="M186.60156 379.44531h.83203v5.73828h3.19532v.7422h-4.02735v-6.48048"/><path fill="#ffffe0" fill-rule="evenodd" d="M315.11328 366.8164h22.17969V356.625h-22.17969v10.1914"/><path fill-rule="evenodd" d="M318.61328 358.45703h.50781V364.75h-.78515v-4.48828h-1.39063v-.55469l.5625-.0664.25-.0547.23047-.08984.20313-.14062.17578-.21094.14062-.29297.10547-.39453m4.8125 0l.23047.01953.21875.05469.20703.08984.19922.1211.1836.14844.17187.17578.30078.41796.24219.4961.17969.54687.11328.57813.03515.58984-.03515.59375-.11329.58594-.17968.55469-.24219.5-.30078.42969-.17188.17968-.18359.15235-.19922.12109-.20703.09375-.21875.0586-.23047.01952-.22656-.01953-.21875-.05859-.21094-.09375-.19531-.1211-.1836-.15234-.17187-.17969-.30078-.42968-.2461-.5-.17968-.55469-.10938-.58594-.03906-.59375h.83203l.03125.5625.08203.50781.125.44141.16406.375.1875.30078.21094.22266.22266.13672.22656.04687.22656-.04687.22266-.13672.21094-.22266.1914-.30078.16407-.375.125-.4414.08203-.50782.02734-.5625-.02734-.5586-.08203-.5-.125-.4375-.16407-.36718-.1914-.28906-.21094-.21485-.22266-.1328-.22656-.04298-.22656.04297-.22266.13281-.21094.21485-.1875.28906-.16406.36719-.125.4375-.08203.5-.03125.5586h-.83203l.03906-.58985.10938-.57813.17969-.54687.24609-.4961.30078-.41796.17188-.17579.18359-.14843.19531-.1211.21094-.08984.21875-.05469.22656-.01953m5.09375 0h.50781V364.75h-.78515v-4.48828h-1.39063v-.55469l.5586-.0664.2539-.0547.23047-.08984.20313-.14062.17187-.21094.14453-.29297.10547-.39453m2.82031 2.17578h.78907l.01953-.3164.0586-.28516.10155-.2539.13672-.21485.1836-.17578.22265-.1289.26563-.07813.3086-.02735.23827.01954.22266.0625.20312.10156.1797.14062.14843.17188.11328.20703.07031.23437.02735.26563-.02344.26562-.0664.22657-.10938.1914-.15625.17188-.19922.16015-.2461.16797-.63671.39063-.53516.3125-.4375.3164-.34766.32422-.26171.33594-.19141.35156-.125.36719-.07031.39453-.01954.41797h4.21094v-.73828h-3.33203l.08203-.28516.11328-.23828.14844-.19922.1875-.17969.23047-.17187.28125-.17578.71484-.41797.41797-.20313.34375-.23046.28125-.25391.21875-.26563.16406-.27734.11329-.28515.0625-.28516.01953-.28125-.04297-.38281-.11719-.34766-.1914-.3086-.25-.26171-.30079-.21485-.34765-.15625-.3789-.09765-.40626-.03516-.4375.03125-.39844.10156-.35156.16407-.30469.23437-.25.30469-.1875.375-.11328.44531-.04297.51953"/><path fill="#ffffe0" fill-rule="evenodd" d="M230.78516 371.26953h22.17968v-10.19531h-22.17968v10.19531"/><path fill-rule="evenodd" d="M234.28516 362.91016h.5078v6.29296h-.78515v-4.48828h-1.39062v-.55468l.5625-.06641.25-.05469.23047-.08984.20312-.14063.17188-.21093.14453-.29297.10547-.39453m4.8125 0l.23047.01953.21875.05469.20703.08984.1953.1211.1875.14843.16798.17578.30469.41797.24218.4961.17969.54687.11328.57812.03516.58985-.03516.59375-.11328.58594-.17969.55078-.24219.5039-.30468.42578-.16797.1797-.1875.15624-.19531.1211-.20703.09375-.21875.05468-.23047.01953-.23047-.01953-.21875-.05469-.20703-.09375-.19532-.12109-.18359-.15625-.17188-.17969-.30078-.42578-.24609-.5039-.17969-.55079-.10937-.58593-.03906-.59375h.83203l.03125.5625.08203.50781.125.4414.16015.375.19141.30079.21094.22265.22265.13672.22657.04688.22656-.04688.22266-.13672.21093-.22265.1914-.30078.16017-.375.1289-.44141.08203-.50781.02735-.5625-.02735-.5625-.08203-.5-.1289-.4336-.16016-.36718-.1914-.29297-.21095-.21094-.22265-.13281-.22656-.04688-.22657.04688-.22265.13281-.21094.21094-.1914.29297-.16016.36718-.125.4336-.08203.5-.03125.5625h-.83203l.03906-.58985.10937-.57812.17969-.54688.2461-.49609.30077-.41797.17188-.17578.1836-.14844.1953-.1211.20704-.08983.21875-.0547.23047-.01952m5.09375 0h.5078v6.29296h-.78905v-4.48828h-1.38672v-.55468l.5586-.06641.2539-.05469.23047-.08984.20312-.14063.17188-.21093.14062-.29297.10938-.39453m2.8203 2.17578h.78907l.01953-.3164.0586-.28907.09765-.25.14063-.21485.1836-.17578.22265-.1289.26562-.08203.3086-.02735.23437.02344.22656.0625.20313.10156.17969.13672.14843.17578.11328.20313.07032.23828.02734.26172-.02344.26953-.0664.22656-.10938.1914-.15625.17188-.19922.16016-.24609.16797-.63672.38672-.53516.3164-.4375.3164-.34765.32423-.26563.33594-.1875.35156-.125.36719-.0703.39453-.01954.41796h4.21094v-.73828h-3.33203l.08203-.28515.11328-.23828.14844-.19922.1875-.17969.23047-.17188.28125-.17578.71484-.41796.41406-.20704.34766-.23046.28125-.25.21875-.26563.16406-.28125.10938-.28125.0664-.28516.01953-.28125-.04297-.3828-.12109-.34767-.1875-.30859-.25-.26172-.30469-.21484-.34375-.15625-.3789-.10156-.40625-.03125-.4375.03125-.39844.09765-.35547.16797-.30469.23438-.2461.30468-.1875.375-.11327.44532-.04297.51953"/><path fill="#ffffe0" fill-rule="evenodd" d="M341.74219 332.0625h22.1836v-10.19531h-22.1836v10.19531"/><path fill-rule="evenodd" d="M345.24219 323.70313h.51172v6.29296h-.78907v-4.48828h-1.38671v-.55469l.55859-.0664.2539-.05469.22657-.08984.20312-.14063.17578-.21094.14063-.29296.10547-.39454m4.8164 0l.22657.01954.21875.05468.21093.08985.19532.1211.18359.14843.17188.17578.30078.41797.24218.4961.1797.54687.11327.57812.03906.58985-.03906.59375-.11328.58593-.17969.55079-.24218.5039-.30079.42578-.17187.17969-.1836.15625-.1953.1211-.21094.09374-.21875.0547-.22657.01952-.23046-.01953-.21875-.05469-.20704-.09375-.19921-.12109-.1836-.15625-.17187-.17969-.30079-.42578-.24218-.5039-.17969-.55079-.11328-.58593-.03906-.59375h.83593l.02735.5625.08203.5078.125.44142.16406.375.1914.30078.21094.22265.22266.13672.22656.04688.22657-.04688.22265-.13672.21094-.22265.1875-.30079.16406-.375.125-.4414.08203-.50781.03125-.5625-.03125-.5625-.08203-.5-.125-.4336-.16406-.36719-.1875-.29296-.21094-.21094-.22265-.13281-.22657-.04688-.22656.04688-.22265.1328-.21094.21095-.1914.29296-.16407.3672-.125.43359-.08203.5-.02735.5625h-.83593l.03906-.58985.11328-.57812.17969-.54688.24219-.4961.30078-.41796.17187-.17578.1836-.14844.19921-.1211.20704-.08984.21875-.05468.23046-.01954m5.08985 0h.50781v6.29297h-.78516v-4.48828h-1.39062v-.55469l.5625-.0664.25-.05469.23047-.08984.20312-.14063.17578-.21094.14063-.29296.10547-.39454m6.80469 1.6172h-.78907l-.05078-.21094-.08203-.1875-.10547-.15625-.1289-.13282-.14844-.10156-.16016-.07422-.16797-.04687-.17187-.01563-.32813.04297-.28906.1211-.2461.1953-.20312.26563-.16015.33985-.1172.40234-.0703.46875-.02344.52734.1914-.20312.1836-.16016.1875-.1211.1836-.08984.1914-.05859.1914-.03906.39844-.02344.3086.03125.3203.08984.31641.15625.29297.21875.25781.28516.19922.35156.07032.19922.05468.21875.02735.23438.0039.25-.78515.04687-.02735-.25781-.07812-.25-.1211-.23438-.16015-.21093-.19531-.1797-.21875-.13671-.2422-.08594-.2539-.03125-.2539.03125-.2422.08594-.21874.13672-.1914.17969-.16016.21093-.125.23438-.07813.25-.02734.25781.02734.26172.07813.25.125.23438.16015.21093.1914.17578.21876.13672.24219.08985.2539.03125.2539-.03125.2422-.08985.21875-.13672.1953-.17578.16017-.21094.12109-.23437.07812-.25.02735-.26172.78515-.04687-.02734.37109-.09375.375-.15625.35547-.22266.32812-.29296.28516-.16797.11719-.19141.10156-.20313.08203-.22265.0625-.24219.03906-.26172.01172-.28125-.01562-.26172-.04688-.23828-.07422-.21484-.10546-.19531-.13282-.17188-.15625-.15625-.17969-.13281-.20312-.11719-.22266-.10156-.23828-.14453-.53515-.08594-.59375-.02734-.64063.03906-.7461.11328-.66015.1875-.57812.1211-.25782.13671-.23046.15235-.20704.17187-.17968.1836-.15625.20312-.12891.21875-.10156.23047-.07422.25-.04297.26172-.01563.36328.03125.33594.09766.29296.15235.25782.19921.21094.23829.16406.27734.11719.30078.0625.32031"/><path fill="#ffffe0" fill-rule="evenodd" d="M181.96484 327.32813h22.1797v-10.19141h-22.1797v10.1914"/><path fill-rule="evenodd" d="M185.46094 318.96875h.51172v6.29688h-.78907v-4.4922h-1.38672v-.55468l.5586-.0664.2539-.05079.22657-.08984.20703-.14063.17187-.21093.14063-.29688.10547-.39453m4.8164 0l.22657.01953.21875.05469.21093.08984.19532.1211.18359.14843.17188.17579.30078.42187.24609.49219.17969.54687.10937.57813.03906.59375-.03906.58984-.10937.58594-.17969.55469-.2461.5-.30077.42968-.17188.1797-.1836.15233-.1953.125-.21094.08985-.21875.0586-.22657.01952-.23047-.01953-.21875-.0586-.20703-.08983-.19922-.125-.18359-.15235-.17187-.17969-.30078-.42968-.2422-.5-.17968-.5547-.11328-.58593-.03906-.58984h.83593l.02735.5625.08203.5039.125.44532.16406.375.1914.29687.21095.22266.22265.13672.22656.04687.22657-.04687.22265-.13672.21094-.22266.1875-.29687.16406-.375.125-.44532.08203-.5039.03125-.5625-.03125-.5625-.08203-.5-.125-.4375-.16406-.36328-.1875-.29297-.21094-.21485-.22265-.1328-.22657-.04298-.22656.04297-.22266.13281-.21093.21485-.1914.29297-.16407.36328-.125.4375-.08203.5-.02735.5625h-.83593l.03906-.59375.11328-.57813.17969-.54687.24219-.49219.30078-.42188.17187-.17578.1836-.14843.19921-.1211.20703-.08984.21875-.05469.23047-.01953m5.08985 0h.50781v6.29688h-.78516v-4.4922h-1.38672v-.55468l.5586-.0664.25-.05079.23047-.08984.20312-.14063.17578-.21093.14063-.29688.10547-.39453m6.80469 1.6211h-.78516l-.05469-.21094-.08203-.1875-.10547-.16016-.1289-.1289-.14844-.10548-.16016-.07421-.16797-.04297-.17187-.01563-.32813.03906-.28906.1211-.2461.19531-.20312.26953-.16016.33594-.11328.40625-.0703.46484-.02735.52735.1914-.20313.1875-.15625.1836-.125.1875-.08594.1875-.0625.1914-.03515.40235-.02344.30469.02735.3203.09375.31641.15625.29297.21875.25781.28515.19922.34766.07032.20312.05468.21485.02735.23437.0039.2539-.78515.04688-.02735-.26172-.07812-.25-.1211-.23437-.16015-.21094-.19531-.17578-.21875-.13672-.23828-.08984-.25782-.03125-.2539.03125-.2422.08984-.21874.13672-.1914.17578-.16016.21094-.125.23437-.07813.25-.02734.26172.02734.25781.07813.25.125.23438.16015.21094.1914.17969.21876.13671.24219.08594.2539.03125.25781-.03125.23829-.08594.21875-.13671.1953-.1797.16017-.21093.12109-.23438.07812-.25.02735-.2578.78515-.04688-.02734.3711-.09375.37108-.15625.35938-.22266.32813-.29297.28125-.16796.12109-.1875.10156-.20703.08203-.22266.0625-.24219.03906-.26172.01172-.28125-.01562-.26172-.04688-.23828-.07812-.21484-.10547-.19531-.1289-.17188-.15626-.15625-.17968-.13281-.20313-.11719-.22265-.10156-.2422-.14453-.53515-.08594-.59375-.02734-.64062.03906-.7422.11328-.66405.1875-.57813.1211-.2539.13671-.23047.15235-.20704.17187-.18359.1836-.15625.20312-.1289.21875-.10157.23047-.07031.25-.04688.26172-.01562.36719.03516.33203.09375.29297.15234.2578.19922.21095.24219.16406.27343.11719.30079.0625.32421"/></g></defs><use xlink:href="#as"/></svg>