<svg xmlns="http://www.w3.org/2000/svg" role="img" xmlns:xlink="http://www.w3.org/1999/xlink" viewBox="142.45 309.95 326.84 171.84"><defs><clipPath id="a"><path d="M144 460h1v20.32813h-1zm0 0"/></clipPath><clipPath id="b"><path d="M144 311.67188h1V453h-1zm0 0"/></clipPath><clipPath id="c"><path d="M144 311.67188h324v168.65625H144zm0 0"/></clipPath><clipPath id="d"><path d="M382 475h14v5.32813h-14zm0 0"/></clipPath><clipPath id="e"><path d="M387 477h2v3.32813h-2zm0 0"/></clipPath><clipPath id="f"><path d="M467 311.67188h1V467h-1zm0 0"/></clipPath><clipPath id="g"><path d="M144 479h4v1.32813h-4zm0 0"/></clipPath><clipPath id="h"><path d="M147 480h2v.32813h-2zm0 0"/></clipPath><clipPath id="i"><path d="M153 480h9v.32813h-9zm0 0"/></clipPath><clipPath id="j"><path d="M160 480h3v.32813h-3zm0 0"/></clipPath><clipPath id="k"><path d="M166 479h9v1.32813h-9zm0 0"/></clipPath><clipPath id="l"><path d="M173 480h3v.32813h-3zm0 0"/></clipPath><clipPath id="m"><path d="M180 479h8v1.32813h-8zm0 0"/></clipPath><clipPath id="n"><path d="M187 480h2v.32813h-2zm0 0"/></clipPath><clipPath id="o"><path d="M193 480h9v.32813h-9zm0 0"/></clipPath><clipPath id="p"><path d="M200 480h3v.32813h-3zm0 0"/></clipPath><clipPath id="q"><path d="M206 480h9v.32813h-9zm0 0"/></clipPath><clipPath id="r"><path d="M213 480h3v.32813h-3zm0 0"/></clipPath><clipPath id="s"><path d="M220 479h8v1.32813h-8zm0 0"/></clipPath><clipPath id="t"><path d="M227 480h2v.32813h-2zm0 0"/></clipPath><clipPath id="u"><path d="M233 480h8v.32813h-8zm0 0"/></clipPath><clipPath id="v"><path d="M239 480h2v.32813h-2zm0 0"/></clipPath><clipPath id="w"><path d="M246 479h9v1.32813h-9zm0 0"/></clipPath><clipPath id="x"><path d="M252 480h2v.32813h-2zm0 0"/></clipPath><clipPath id="y"><path d="M260 480h8v.32813h-8zm0 0"/></clipPath><clipPath id="z"><path d="M266 480h2v.32813h-2zm0 0"/></clipPath><clipPath id="A"><path d="M273 478h8v2.32813h-8zm0 0"/></clipPath><clipPath id="B"><path d="M279 479h2v1.32813h-2zm0 0"/></clipPath><clipPath id="C"><path d="M286 479h9v1.32813h-9zm0 0"/></clipPath><clipPath id="D"><path d="M292 479h2v1.32813h-2zm0 0"/></clipPath><clipPath id="E"><path d="M300 478h8v2.32813h-8zm0 0"/></clipPath><clipPath id="F"><path d="M305 480h2v.32813h-2zm0 0"/></clipPath><clipPath id="G"><path d="M314 477h6v3.32813h-6zm0 0"/></clipPath><clipPath id="H"><path d="M329 476h3v4.32813h-3zm0 0"/></clipPath><clipPath id="I"><path d="M340 477h7v3.32813h-7zm0 0"/></clipPath><clipPath id="J"><path d="M354 477h7v3.32813h-7zm0 0"/></clipPath><clipPath id="K"><path d="M367 477h7v3.32813h-7zm0 0"/></clipPath><clipPath id="L"><path d="M379 479h9v1.32813h-9zm0 0"/></clipPath><clipPath id="M"><path d="M380 479h2v1.32813h-2zm0 0"/></clipPath><clipPath id="N"><path d="M393 478h8v2.32813h-8zm0 0"/></clipPath><clipPath id="O"><path d="M408 476h5v4.32813h-5zm0 0"/></clipPath><clipPath id="P"><path d="M421 477h5v3.32813h-5zm0 0"/></clipPath><clipPath id="Q"><path d="M434 477h6v3.32813h-6zm0 0"/></clipPath><clipPath id="R"><path d="M449 476h3v4.32813h-3zm0 0"/></clipPath><clipPath id="S"><path d="M463 476h1v4.32813h-1zm0 0"/></clipPath><clipPath id="T"><path d="M144 466h4v2h-4zm0 0"/></clipPath><clipPath id="U"><path d="M144 453h4v2h-4zm0 0"/></clipPath><clipPath id="V"><path d="M465 450h3v2h-3zm0 0"/></clipPath><clipPath id="W"><path d="M144 440h4v1h-4zm0 0"/></clipPath><clipPath id="X"><path d="M466 439h2v3h-2zm0 0"/></clipPath><clipPath id="Y"><path d="M144 426h4v2h-4zm0 0"/></clipPath><clipPath id="Z"><path d="M144 413h4v2h-4zm0 0"/></clipPath><clipPath id="aa"><path d="M465 410h3v2h-3zm0 0"/></clipPath><clipPath id="ab"><path d="M144 399h4v2h-4zm0 0"/></clipPath><clipPath id="ac"><path d="M466 397h2v3h-2zm0 0"/></clipPath><clipPath id="ad"><path d="M144 386h4v3h-4zm0 0"/></clipPath><clipPath id="ae"><path d="M466 385h2v2h-2zm0 0"/></clipPath><clipPath id="af"><path d="M144 372h4v3h-4zm0 0"/></clipPath><clipPath id="ag"><path d="M466 372h2v3h-2zm0 0"/></clipPath><clipPath id="ah"><path d="M144 360h4v1h-4zm0 0"/></clipPath><clipPath id="ai"><path d="M466 358h2v3h-2zm0 0"/></clipPath><clipPath id="aj"><path d="M144 344h3v6h-3zm0 0"/></clipPath><clipPath id="ak"><path d="M466 345h2v4h-2zm0 0"/></clipPath><clipPath id="al"><path d="M144 330h2v8h-2zm0 0"/></clipPath><clipPath id="am"><path d="M466 332h2v3h-2zm0 0"/></clipPath><clipPath id="an"><path d="M144 317h3v7h-3zm0 0"/></clipPath><clipPath id="ao"><path d="M466 318h2v2h-2zm0 0"/></clipPath><clipPath id="ap"><path d="M465 318h3v3h-3zm0 0"/></clipPath><g id="aq" clip-path="url(#clip1)"><path fill="#fff" fill-opacity="0" fill-rule="evenodd" d="M0 0h1000v1000H0zm0 0"/><path fill="#d3d3d3" fill-opacity="0" fill-rule="evenodd" d="M162.15234 355.86719l-.23437.29297.0586.23437.11718.17188.17578.23437.29297.34766.11328.0586.11719-.17188.0586-.23438.17577-.17578.46485-.17578h.69922l.23437.29297.28906.8164.0586.17579.17578.23046.35156.23438.69922.69922.17188.17578.23437.34765.23438.41016.28906.58203.41015.46485.23047.23437.23438.17578.11719.23047.17578.29297.17187 1.16406v.23438l.0586.28906.05859.11719.11719.11719.34765.41015.11719.17188.17578.17578.17578.23437.11719.17188.17188.35156.05859.23438.23437.40625.23438-.0586-.17578.17578-.0586.92969h-.58203l-.23437-.11328-.34766.11328-.11719.11719-.05859.29297-.0586.17578-.11718.17187-.46484.29297-.0586.23438-.0586.11328v.64453l.0586.17187v.41016l.0586.0586v.40624l.05859.40625.11719.17579.05859.05859.23047.64062-.0586.29297v.69922l-.05859.58203v.23438l-.0586.23047-.05468.35156v1.92187l.05469.1172h.42578l-.36719.11718-.02344.35156.89063 1.16797 1.74219.53906 1.33984.35938v.53906l.08984.8086.53516.71484 1.51953.26953.89063-.08594.08984 1.16406.53516.1797 1.16015-.1797 2.05469-.98437 1.16016-.36328 1.8789-.17578 1.69531-.1797-.17968.71876-1.51563.08594-1.25.08984-.80469.26953-1.07421.8086.26953.71875.53515.89843-.17968.625-.26563.8086.26563 1.07812.625.89844.80468.17969 1.25-.1797-.26562.72267.09766.5039.05468.29297v.17188l.0586.29296v.40625l.17578.1172.35156.11718h.40625l.29297-.17578.11328-.11719.0586-.11719.11718-.23047.0586-.17578.35156-.46484.23047-.17578.17578-.0586.17578.0586.0586.17578.11718.98828.05469.46875.0586.17188.11718.23437.17578.0586.8164.05859h.28907l.11719.23437.05859.40625.0586.35156v1.10547l.11718.29297.11719.34766.28906.69922.17578.35156.58203.7539.35157.17579.17187.0586.46875.23437.64063.46484.34765.23438.29297.17578.29297.05468.23047.0625.8164.34766.29297.17578.11328.17188.35157.35156.11719.17578.52343.64063v.28906l.0586.35156v.34766l.05859.35156.0586.28906.11718.0586.17188.05859h.17578l.58203.23437.17578.1172.17578.28905.17578.23438.11328.23437.29297.23047.11719.11719v.41016l.0586.05468.28906.23438.23437.11719.0586.11718.11718.17188.0586.11719.23047.23437.05859.17578.23437.0586.1172.05859-.1172.11328-.05859.11719v.11719l-.11719.29296-.11719.28907v.58203l.17579.11719.11718.05859.0586.11719.11719.11719.11328.05859.17578.34765.0586.35157.05858.40625v.17578l-.05859.17578-.11719.69922v.17187l.1172.17579.29296.29296h.40625l.17578.1172.11719.17187.11719.29296v.23438h-.52735l-.23047-.23438h-.23437l-.17578.0586-.0586.69922.0586.34765.11719.17579.17578.41015.11718.23047.28907.46875.17578.05469h.52344l.23437.0586.75781.64062.0586.29296v.23438l.05859.0586.23047.34765v.35156l-.11719.17188v.29297l.29297.28906.29297.17578.17187.0586.29297.17577.29297.1172.58203.40624.28906.23438.29297.17578.21875.16015.01563.01172.23047.17579.64062.52343.17578.23438.1172.17578.17577.17578.11328.17188v.64062l.1172.17578.46874.11719.58203.11719.23438.05859.23047.11328.29297.11719.11328.0586.58593.35156.28907.17187.17578.0625.17578.05469.17578.0586.69922.35155.28906.17579.23438.05468.28906.17578.23437.1172.64063.40624.29297.11719.17187.0586.23438.05859.41015.05859.23047.0586.23438.11718.0586.17188-.41017.17578.46875.0586.0586.29296.11328.23438.17578.05468.23438.0586.17578.05859.40625.11719.64062.23437.11719.17188.0586.23437v.17578l-.0586.1172-.0586.40624.23438.23438.11719.05859.34766.11719.64062.23047.17578.11718.28906.1172.17578.17577.23438.46485.58203 1.10546.17578.17579.34766.17578.17578.11719.35156.11718 1.04688.52344.23437.0586.46485.11327.29297.0586.46484.17578.75781.58203.23438.23438.34765.46484.17578.17578.28907.23438.8164.69921.29297.17579.28906.28906.29297.17578.29297.28906.69531.64063.17578.17578.29297.23437.28907.23438.46875.28906.64062.58203.34766.23438.23437.29297.34766.34765.35156.46485.9336.99218.34765.40625.11719.17579.23437.05859.11328.11719.64454.17578.23047.11328.23437.0586.29297.17577.23047.1172.9336.69921.40624.40625.23438.17578.40625.17578.23437.11719.8164.34766.34766.23437.23438.11719.29297.28906.23047.11719.7578.35156.35157.17188.23047.05859.29297.11719.23437.0586.8711.17577h.8164l.46875.23047.17188.0586.875.69921.46484.1172.29297.05858.17578.0586.23047.0586.46875.05859.34766.05859.35156.0586.40625.05859h.29297l.17187.0586v.23046l.17578.17578h.29297l.34766.0586.35156.05859.69922.11719h.64063l.46484-.23438.29297-.17578.17187-.11719.41016-.17187.28906-.17578.9336-.46485.46875-.29297.52343-.29296.46485-.17188.46484-.17578 1.05078-.46485.28906-.11718.41016-.11719.28906-.11719.52735-.17578 1.51562-.69922.58203-.34765.28907-.0586.29297-.0586.34765-.11718.875-.23047.35156-.11719h.11329l.23437-.05859.875-.23437.23438-.0586h.8125l.35156-.0586.8164-.11718.17188-.0586.35156-.05468.29297-.0586.23047-.05859.8164-.17578.17579-.0586h.34765l.23438-.05859.46484-.11718.75781-.17188.23438-.0586h.34765l.41016-.11718.28906-.0586 1.28516-.05859h.28906l.41016-.0586.23047-.05858h.17578l.875-.1172h.40625l.41015-.11718h.34766l.35156-.11328.8711-.0586h1.75l1.04687.28907.41016.11719.28906.11718.35156.11719.28907.11719 1.05078.17187.28906.0586h.29297l.29297.05859.17187.0586.41016.05859.17187.0586.1172.05858h.11718l.11719.0586.35156.0586h.11328l.41016.0664 1.92187.39453 1.92578.39453 1.51953.44922 1.69532.71875 2.14453.80469 1.60547-.71875 1.42968-.80469 1.16016-1.07813 1.25-.44921 3.03516-.71875 1.875-.35938 2.14453-1.34765 2.23437-1.25391 2.5-1.25781 1.69531-.44922 1.78516-.17969 1.16016-.26953.625.53906 1.33984-.26953.71485-.98828.98437-1.34375.44531-.17969.80469-.35937 1.875-.53907 1.78516-.44921 1.25-.26954 1.16015-.08984 1.69922-.08984 1.96094-.26954 1.25-.08984h.53906l.625-.08984h.89063l2.14453-.17969 2.41015-.17969 2.58985-.08984 1.69531.17969 1.60938.08984 1.42968.35938 1.16016.71875 1.875.98828 1.16015 1.52734.26563.71484.6289.08985.35548.89844.53515.53906.53516 1.52734 1.07422.35938h.53515l-.80469.53515.08985 1.70703.71484 2.69532.89063.80468.89453.98829.71484 1.2578 1.78516.53907 1.51953-.17969.35547 1.34375 1.60937-.80469.98047-.53906.26953.26953.31641-.21484.21875-.14453.80078.44922.44922-.35938h.35547l.53515-.26953.53907-.71875.53515-.26953.625-.98828 1.16016.44922.83984.3711 1.39454.61718 1.6953-.17969h1.60548l1.78515.08985.17969-1.70704.53516-1.34375.80468.26954.4922.84765.40233.40625-.08984.53906v.35938l.71485.44922.71093-.26953h1.42969l.35938.98828.4453 1.25781.71485 1.34375 1.25.6289 1.69531.62891.71485-.17969.17969-.53906.98046-.08984.44922.35937.08594 1.25782-.26563.6289-.53515.17969v.53906l.71484.98438.26563.53906.98437.98828.80078 1.07813-.26562.35937-.08985.89844-.625 2.33203-.35546 2.0664-.08985 1.79298-.17969.71875-.08984.53906v1.4375l-.98047 1.88281-.35937 1.70703-.53516.89844-.80469 1.16797-.26562.53906 2.05469 1.2539.08593.35938-.35546.53906-.08985-.17968v.80859l.08985 1.4375-.44532.71484-1.07422.09375-.26562.71485.53515.89844.8047.71875 1.16015.80859 1.33984.26953.44531.35938-.35546.44921-1.78907-.08984-1.25-.44922-.71484-.71875-.625-.08984-.17578 3.58984-.1875 1.3086h89.35937V311.70313h-55.26953v49.08203l.76172.125 3.28906.54296 2.02344 2.83594v2.7539l2.35156.33204 2.34766.33203h4.05078l-1.3789 4.16016-2.02344.70703-2.02344.70312-.54297.34375-2.59375 1.6172-.1875.11718-2.02344-2.07813-.73046-2.74218-2.67188-2.07813-1.375-3.5-.0664-.08203-1.95704-2.67188 2.75-1.41796v-49.08204H294.42187v91.41407l.1172.03125.1328.01172.07422.07421.10547.04688.08985.0586.08593.05859.08985.0586.29687.29687.0586.08984.03125.11719.02734.11719.01563.13671-.03125.1172-.0586.08983-.0586.08594-.04296.10547-.04688.10156-.02734.1211v.14453l.17578.26953.14844.14844.07422.08594.07422.07421.04296.10547.0625.08985.0586.08593.04297.10547.0586.08985.04687.10156.04296.10547.0586.08594.11719.17968.07421.07422.0625.08594.0586.08984.04297.10547.0586.08985.05858.08593.0625.08985.0586.08984.04297.10156.11719.17969.07421.07422.0586.08594.07422.07421.08984.0586.10547.04687h.14844l.1328-.01562.13282.01562.10156-.04687.07422-.07422.04688-.10156-.01563-.13281v-.14844l-.04687-.10547-.02735-.11719-.04687-.10156-.02735-.1211-.04296-.10156-.0625-.08984-.04297-.10156-.04297-.10547-.03125-.11719-.01563-.13281-.01171-.13672.08593-.0586.0586-.08593.12109-.03125.04297.10547.01562.1328v.1172l.0586.10156.0586.08984.08983.0586.14844.14843.0586.08985.04296.10547-.01171.10156.08593.0586.10547.04687.08594.0586.08984.05858.07422.07422-.11719.02735-.10546.04687-.08594.0586-.07422.07421-.0586.08985-.0625.08594-.02734.12109-.04687.10156-.04297.10547-.03125.11719-.01172.13281-.01563.13281v.14844l.02735.11719.04687.10547.04297.10156.0586.08984.07421.07422.08985.0586.07422.07421.08984.0586.0586.08984.04296.10547.04688.10156.11719.03125.1328.01563h.14845l.11718-.03125.10547.04297.04297.10547.04688.10156.02734.1211L299.5 410l.02734.11719.03125.1211.02735.11718.10547.04297.10156.04687.13281-.01562.14844.14844.0625.08593.07422.07422.07031.07422.08984.0625.10547.04297.10156.04297.1172.03125.13671.01562.11719-.03125.07422-.07422.02734-.11718-.01172-.13282-.03125-.12109-.02734-.11719.04297-.10547h.11719l.08984.0625.11719.02735h.14843l.13282.01562h.14843l.13282.01563.1328-.01563h.14845l.1328-.01562.13282-.01172.13672.01172.11719-.02735.13281-.01562.1914-.0586-.05859.17579-.01562.1328-.02735.1211-.01562.13281-.0586.08594-.1328.01563-.10548.04687-.10546.04297-.1172.03125-.11718.02735-.26563.03125h-.14843l-.13281.01562-.07422.07422.05859.08594.14844.14843.11719.1797.07421.0703.08985.0625.08984.0586.08594.0586.08984.05858.10156.04297.10547.0625.10547.04297.08594.0586.10547.04687.10156.04297.17969.11719.0586.08984-.04298.10156-.04687.10547.01562.13281.22266.22266.0586.08985.04296.10156.03125.1211.04297.10155.01563.13282.03125.11718.01171.13672.03125.11719.14844.14844.10156.04297.10547.04296.1172.03125.1328.01563.13672.01563h.11719l.11719-.03125.08984-.0586.04297-.10547.04688-.10156.04296-.10547.03125-.11719.01172-.1328v-.14845l-.01172-.1328-.01562-.13282-.03125-.11719-.04297-.10547-.04688-.10547-.04296-.10156-.04297-.10547-.01563-.13281.01563-.13281.02734-.11719.03125-.11719.02735-.1211.04687-.10155.08984-.0586.08594-.0625.07422-.07422.08984-.05859.22266-.22266.0586-.08593.07421-.07422.11719-.17969.0586-.08594v-.14844l-.07423-.07421-.10156-.04688-.10547-.04297-.10156-.04297-.0586-.08984-.04687-.10547-.02734-.11719.08984-.05859.11719-.03125.10156-.04297.17969-.11719.14844-.14843.01172-.13282-.01172-.10546-.08985-.0586-.1328.01563h-.14845l-.1328.01562-.13282-.01562-.1211-.03125-.08593-.0586-.07422-.07422-.0586-.08984-.0625-.08594-.11718-.17969-.0586-.08593.03125-.1211.08594-.05859.1211-.03125.05859-.08594v-.1211l-.03125-.11718-.0586-.08984-.05859-.08594-.04687-.10547-.02735-.11719-.01562-.1328.0586-.08985.07421-.07422.08984-.0586.1172-.17968.07421-.07422.0586-.08594.14843-.14844.1211-.03125.1328-.01562.13282.01562.07422.07422.04297.10547.01562.13281-.03125.1172-.11719.03124-.1328.01172-.14844.14844-.04297.10547-.04688.10156-.02734.1211-.03125.11718v.14844l.03125.11719.04297.10546.05859.08985.07422.07031.07422.07422.11719.03125.12109.02734.11719-.02734.1328-.01563h.1172l.08984.0586.07422.07422.04687.10546.0586.08594.10156.04688.13281.01562.10547.04297.08594.0586-.01172.10546-.07422.07422-.17969.11719-.05859.08984-.08984.0586-.07032.07422-.07421.07421-.0625.08985-.02735.11719-.01562.1328.01562.13282-.01562.13281v.14844l.01562.13281.02735.1172.03125.12108.07421.07422.08985.0586.08594.0586.08984.05858.11719.03125v.08594l-.10157.04688-.08984.0586-.26563.03124-.11718.02735h-.14844l-.10547.04296-.10156.04688-.0586.08984-.0625.23438-.01171.13281-.03125.1211-.01563.1328v.29298l-.01172.1328.01172.13673.01563.1328.1328.01563.13282.01172.1211.03125.08593.0586.07422.07421.04688.10547.04296.10157.01563.1328v.44532l-.01563.13281v.44532l.03125.26562.02735.11719.01562.13281.03125.11719.08594.21094.03125.26562v.14844l-.03125.11719-.02734.11718-.03125.1211-.02735.11719-.03125.11718-.03125.1211-.01171.1328-.01563.13282.08984.0586.1172-.03125.10155.01562.04688.10547-.03125.26562v.44141l-.04297.10547-.04688.10547-.04296.10156-.04297.10547-.0586.08594-.03125.12109-.04296.11719-.03125.11719-.01563.1328.01563.13282.05859.08984.10547.04688.08594.0586.05859.08593-.01172.13672-.03125.11719-.04297.10156v.44531l-.01562.13281v.14844l-.03125.11719-.04297.10547-.02735.11719-.04687.10546-.04297.10157-.03125.12109-.02734.11719-.03125.13281-.03125.11719-.02735.11719-.04297.10546-.03125.1172-.03125.12108-.01171.13282-.01563.13281v.29688l.02734.11718v.14844l.04688.39844.02734.11719.0586.08984.12109.03125h.14844l.13281-.01563.0586.08985v.11719l-.0586.08984-.08984.0586-.10157.04296-.10546.04688-.08985.05859-.08594.0586-.13671.01562-.1172-.03125-.1328-.01563-.10157.04688-.0625.08594-.01172.13671-.01562.13282-.03125.11719-.02735.11718-.01562.13281-.03125.1211v.29687l.01563.13282.03125.11718v.14844l.01171.13281v.14844l-.02734.11719-.04688.10156-.02734.1211-.03125.11718-.0586.08985-.07421.07421-.10156.04297-.10547.04688-.11719.02734-.1211.03125-.10156-.04687.0586-.08594.10547-.04688.02734-.11718.03125-.11719.02734-.1211.03125-.11718v-.14844l.01563-.13281-.03125-.11719-.04297-.10547-.10547.01563-.07422.07422-.10156.04296-.08984.0625-.07422.07422-.04297.10157-.01563.1328-.03125.1172L304.25 426l-.03125.11719-.02734.11719-.03125.12109-.02735.11719-.03125.11718-.04297.10547-.08984.0586h-.08984l-.1172-.03125-.03124-.08594.01562-.13672-.03125-.11719v-.14844l-.01171-.1328v-.14844l-.0625-.23438-.02735-.1211-.04297-.10156-.04687-.10546-.0586-.08594-.05859-.08985-.04297-.10546-.0625-.08594-.14844-.14844-.0703-.07422-.10548-.04687-.10547-.04297-.10156-.04297-.29687-.29688-.08985-.07421-.08594-.0586-.10546-.04297-.08985-.0625-.08594-.0586-.10546-.04296-.08985-.0586-.08594-.0625-.07421-.0703-.10547-.04688-.08594-.0586-.10547-.04296-.08984-.0625-.10156-.04297-.10547-.04297-.08594-.0586-.10547-.04687-.10547-.04297-.10156-.04687-.08985-.0586-.10156-.04297-.10547-.04296-.08984-.0625-.11719-.02735-.13281-.01562-.13281.01562H299.75l-.13281.01563-.11719-.03125-.08984-.0586-.07422-.07422-.08985-.05859-.10156-.04688h-.14844l-.12109-.02734-.10156-.04297-.07422-.07422-.11719-.17968-.08984-.0586-.10156-.04297-.08985-.0625-.10547-.04296-.08984-.0586-.08594-.0586-.10547-.04687-.0586-.08594-.05858-.08984-.04297-.10547-.04688-.10156-.07422-.07422-.08594-.0586-.07421-.07421-.08985-.0586-.22265-.22265-.04297-.10547-.03125-.26563.10547-.04296h.14453l.10547.04296.07421.07422.08985.0586.08594.0586.10546.04687.08985.05859.14844.14844.0703.07422.14845.14843.0625.08594.07421.07422.08594.0586.07422.07421.08985.0625.08984.0586.08594.05859.26953.17578.10156.04688.10547.04296.10156.04297.04688-.07421.05859-.08594.07422-.07422.07031-.07422.10547.04297.07422.07422.0586.08984.04296.10156.04688.10547.04296.10547.1211.02735.11719-.02735.07421-.08984.04297-.10547.0586-.08985.07422-.07421.10546-.04297.1172-.02735.1328.01172.08985.0586.14844.14843.05859.08985.04297.10547.04687.10156.04297.10547.04297.10156.10547.04688.10547.04296.13281.01563.08594-.0586.0586-.08984.07421-.07422.10547-.04297.11719.02735.10547.04687.10156.04297.10547.04297.10156.04688.17969.11718v.11719l-.01563.13281.01563.13281.01562.13672.0586.08594.10156.04688.1211.02734.11718.03125h.14844l.11719-.03125.05859-.08984.17969-.1172.05859-.08983.07422-.07422.0586-.08594.11718-.17969.17969-.11719.11719.03125.08984.0586.04297.07422-.01563.1328v.1172l.08985.05859h.14843l.13282-.01563.1328-.01171.26563-.03125.10547-.04297.11719-.03125.1211-.02735.07421-.07421.07031-.07422.0625-.08985-.01562-.10547-.04688-.10156-.10156-.04297-.10547-.01562-.11718.02734-.26563.03125h-.14844l-.07421-.07422-.08985-.0586-.11719-.03124-.11718-.02735-.13282-.01562h-.14843l-.13282.01563h-.29687l-.10547-.04688-.14844-.14844-.04297-.10156-.05859-.08984.22266-.22266.08593-.0586.10547-.04296.11719-.03125.13281-.01563.13281.01563.13672.01562.10157.04297.1328-.01172.08985-.0625.10156-.04297.0625-.08984-.04687-.10156-.08984-.0586-.1172-.03125-.10155-.04296-.0586-.08985-.0625-.08984v-.11719l.01563-.13281.10547-.04688.07421-.07031v-.1211l-.08984-.05859-.03125-.11719.08985-.05859.07421-.07422.04297-.10547.0586-.08984.04687-.10156.01563-.13281v-.14844l-.04688-.10547-.04297-.10156-.08984-.0586-.13281-.01562-.10157-.04297-.13671-.01563-.1172-.03125h-.4453l-.13282-.01562-.13281-.01172-.13281-.01563-.11719-.03125h-.14844l-.13281-.01562-.13281-.01172-.26563-.03125-.1211-.04297-.08593-.0586-.07422-.07421v-.14844l.01172-.13281.10547-.04688.10156-.04296.13281-.01563h.15235l.13281-.01562h.29297l.1211.03125.10156.04296.08984.0586.23438.0625.12109-.04688.08984-.05859.10156-.04297.13282-.01562.10547.04296.10156.04688.13281.01172.1211-.02735h.14453l.12109-.03125.11719-.02734.10547-.04687.07421-.07422.08594-.0586.14844-.14843.0586-.08594.04687-.10547.02734-.11719.01563-.10547-.10156-.04296-.08985-.0586-.11719-.03125-.10546-.04297-.08985-.0625-.07422-.08594-.07422-.07421-.10156-.04297-.10547-.04688-.10156-.04297-.0586-.08984-.04687-.10156-.08594-.21094-.0625-.08594-.05859-.08984-.07422-.07422-.08594-.0586h-.26953l-.11719.03126-.08984.05859-.10156.04297-.13281.01562-.10547-.01562-.02735-.11719-.0625-.08984-.11718-.03125-.10157-.04297-.14843-.14844-.03125-.11719-.01563-.10546.07422-.07422.17969-.1172.11719-.02733.11718-.03125.13672.01562.10156.04297.10547.04297.10156.04687.10547.04297.1172.03125.1328.01563.1172.02734.1328.01563.10547-.01563.08985-.0586-.07422-.07421-.10547-.04297-.07422-.07422-.07422-.08984-.14844-.14844-.08593-.0586-.08985-.05859-.07422-.07422-.08984-.0586-.10156-.04687-.1211-.02734-.10156-.04688-.10547-.04296-.11719-.03125-.10156-.04297-.1211-.03125h-.14843l-.11719.03125-.10546.04297-.08594.0625-.17969.11718-.08594.0586-.08984.0586-.10547.04687-.08594.05859-.10547.04297-.10156.04297-.10547.04687-.07422.07422-.05859.08985-.0586.08593-.04687.10547-.0586.08594-.07421.07422-.13281-.01172-.1172-.03125h-.11718l-.07422.07422-.08984.0586-.07422.07421-.08984.0586-.08594.05859-.10547.04687-.10156.04297-.13672.01563-.10156-.04297-.14844-.14844-.10547-.04688h-.08594l-.10547.04688-.10156.04297-.1211.03125-.11718-.03125-.07422-.07422v-.11719l.03125-.1211.07422-.0703.0586-.08985.07421-.07422.11719-.03125.10547-.04296h.29297l.13281-.01563.13672-.01563.10156-.04296.08985-.0586.10156-.04687.08984-.0586.13281-.01171.08985.05859.13281.01172.08984-.0586.08594-.05859.10547-.04297.08984-.0586.08594-.0625.08985-.05859.14843-.14843.0586-.08594.05859-.08985.10547-.04296.13281-.01563.11719.02735.1211.03125.05859-.0586.05859-.08984.03125-.26563.02734-.11719.10547.01172.13281.01563.10157-.04297.08984-.0586.0586-.08984.07421-.07422.0586-.08984.04687-.10156.01172-.13281-.01172-.13282-.04687-.10547-.14844-.14843-.0586-.08985-.05859-.08594-.04297-.10546v-.44532l.01563-.1328v-.14845l.01172-.1328-.0586-.0586-.08984.0586-.10156-.04298-.17969-.11719-.08594-.05859-.0625-.08984-.0586-.08985-.07421-.07421-.08594-.0586-.1211.03125-.10155.01172-.10547.04688-.08594.05859-.10547.04297-.14844.14844-.08984.05859-.08594.0586-.08984.0625-.10547.04296-.13281.01563v-.1211l.10547-.04297.11718-.03125.07422-.0703.04297-.10548v-.14844l-.02734-.11718-.14844-.14844-.13281-.01563h-.14844l-.11719.03125-.10547.04297-.10156.04297-.08984.0625-.11719.02735-.07422-.07422.01172-.13281-.04297-.10157-.04297-.10547-.08984-.05859-.11719.02734-.1211.03125-.11718.03125-.10156.04297-.1211.03125-.10156.04297-.10547.04297-.08984.0586-.10156.01562v-.11719l.01562-.13281-.0586-.08985-.07421.04297-.14844.14844-.0586.08985-.07421.07421-.04688.10547-.04296.10156-.07422.07422-.0586.08985-.07422.07422-.05859.08593-.07422.07422-.08984.0625-.07422.07031-.07422.07422-.10156.01563-.13281.01562-.10547-.04296v-.1211l.14843-.14844.04297-.10156.0586-.08984.04687-.10156.04297-.10547.0586-.08985.03124-.11719.04297-.10156.03125-.1211.02735-.11718.04687-.10547.04297-.10156.04297-.10547.07422-.07031.08984-.0625.08985-.0586.10156-.04296h.29687l.26563-.03125.10547-.04297-.07422-.07422-.11719-.03125-.10547-.04297-.08984-.0586-.10156-.04687-.08985-.0586-.10156-.04296-.10547-.04297-.08984-.0625-.08594-.0586-.10547-.04296-.10156-.04297-.1211-.03125-.11718-.03125-.10157-.04297L297.5 410.25l-.10156-.04297-.08985-.0586-.04296-.10546-.01563-.13281.10156-.04297.13281-.01563.13672.01563.13282-.01563.10156-.04297.0586-.08984.01562-.10547-.08985-.0586-.07421-.07421-.10157-.04297-.08984-.0586-.14844-.14843-.04297-.10547-.01562-.13281v-.29297l-.0586-.08985-.08984-.05859-.07422-.07422-.04297-.10547-.03125-.11718-.0586-.08985-.07421-.07422-.11719-.02734-.07422-.07422-.08984-.0586-.08984-.0625-.08594-.05859-.07422-.07421-.0586-.08594-.04687-.10547-.08594-.0586-.14843-.14843-.19532-.0586-.1328.01563-.10157.04297-.07422.07422-.04688.10156-.04296.10547-.0586.08984-.0586.08594-.29687.29687-.08984.0586h-.08594l-.0625-.08594-.04297-.10547.03125-.11719.0586-.08984.02734-.11719-.01172-.13281-.08984-.0625-.10547.04688-.11719.02734-.11719.03125-.26953.17578-.10156.04688-.11719.02734-.10546.04687-.08985.0586-.10156.04297-.0586-.08594-.04687-.10547.01563-.13281.04687-.10547.07031-.07422.07422-.07031.0586-.08985v-.14843l-.04297-.10547h-.23829l-.10156.04687-.03125.11719-.02734.11719-.03125.1211-.07422.04296-.13281.01563-.07422-.04688-.04297-.10156-.04297-.10547-.04687-.10156-.04297-.10547-.1211.03125-.10156.04297-.13281.01562-.11719.03125-.10547.04297-.08984.0586-.10156.04687-.1211.02734-.13281.01563-.10156-.04297-.0586-.08985-.04687-.10546-.04297-.10157-.04297-.10546v-.1172l.0586-.08984.08593-.05859.17969-.11719.10156-.04687.10547-.04297.10547-.0586.10156-.04296.08985-.0625.10156-.04297.10547-.0586.10156-.04687.08984-.0586.10547-.04296.10156-.04297.08985-.0625.10156-.04297.13672-.01563.11719.03125.10156.04297.1211.03125.10156.04297.10546.04688.10157.04296.10547.04297.10156.04688.10547.04297.10156.04297.10547.04687.08594.0586.10546.04296.1172.03125.10546.04297.10156.04688.08985.0586.10547.04296.10156.04297.10547.04687.11719.02735.10156.04687.1211.02735h.14843l.08594-.0586.01562-.10156.0586-.08984-.02735-.1172-.07422-.07421-.11719-.17969-.07421-.07422-.08985-.07421-.17969-.1172-.08593-.05859-.10547-.04296-.10156-.04688-.26954-.17578-.05859-.08985-.07422-.07421-.0586-.08985-.04296-.10156-.03125-.11719-.01563-.13672v-.5625l-.01171-.1328-.01563-.13282-.03125-.11719-.01562-.13281-.01172-.13281-.03125-.1211-.22266-.22265-.0586-.08594-.01562-.10547.03125-.11719.13281-.01562v-91.41406H172.9922v1.45312l-.0586.23438-.35156 1.05078-.17187.52343-.1172.34766-.17577.41016-.11719.17187-.23438.29297-.23046.0586h-.35157l-.11718.05859-.23047.40625v.29297l.11719.17578.23046.23047.1172.23437.64062.75781.29297.46485.17578.23437.23047.35156.23437.34766.64063.8164.17578.46485.17187.41016.11719.69531.17578.46875.11719 1.39844.0586.46484v.875l.11718 1.04688v4.78125l-.0586.46484-.35156 1.28125-.17578.52344-.11328.41015-.35156.9297L172.93359 336l-.23437.58203-.11719.17578-.17187.34766-.17578.40625-.35157.8164-.0586.29297-.11327.29297-.11719.28906-.0586.17579-.11718.875-.0586.40625-.05859.11718-.0586.17579-.05859.17187-.23047.52734-.11718.17188v.23437l-.11719.23438-.0586.17187-.17577.58594v.28906l-.0586.17579v.29296l-.0586.11329-.05859.52734v.17187l-.05468.23438v2.6211l-.17578.8164-.1172.17578-.17577.23438-.1172.17187-.11327.23438-.58594.93359-.23047.28906-.29297.46485-.17578.23437-.28906.35156-.35156.69922-.11328.23047-.17579.41016-.17578.23046-.40625.52735-.8164.69922-.29297.17187-.28906.23438-.17579.11719-.17578.17578-.52344.40625-.52734.17578-.17187.17578-.23438.05469-.64062.17578h-.75782m12.21094 31.02344l-1.07422.44921.35938.89454 1.25-.71485.44531-.53906-.98047-.08985"/><path fill="#d3d3d3" fill-opacity="0" fill-rule="evenodd" d="M201.50781 416.59766h-.89453l.44922.6289.98047.35938.80469-.08985.4453-.98828-.17577.08985-.71485-.35547-.89453.35547m154.6211 59.0703l-.0586-.52343v-.29297l.11328-.29297.0586-.23046.46875-.46875h.11328l.11719-.11329.11718-.05859h.17579l.23437-.0586h.34766l.23437.0586.11719.0586.23047.17187.0586.17578.11718.58203v.29297l-.11719.17578-.17187.28906-.17579.17579-.52734.52343-.23047.23438-.11719.0586h-.17578l-.11718-.0586-.40625-.29297-.17579-.11719-.11718-.0586-.0586-.11327-.05468-.1172m6.64062-10.95702l-.0586-.17188v-1.10937l.0586-.17188.17578-.0586.17188-.05858h.17578l.23437-.0586.1172.0586.05858.69921-.05859.17188-.11719.17578-.11718.0586-.23438.52343-.11328.0586h-.23438l-.05859-.1172m9.61328-14.39062l-.11719-.17578v-.69922l.29297-.875.1172-.17187.17577-.35156.11328-.23047.1172-.29297.35155-.75781.1172-.23047.17187-.23438h.17578l.11719-.0586h.64062l.11719.0586.23437.23438.17188.11328.35156.29297.11719.11718.11328.17579v.11328l.11719.05859.11718.11719v.69922l-.05859.17578v.23047l-.0586.17578-.34765 1.05078-.11719.23047-.11719.23437-.11718.0586-.23047.23437-.64063.28906h-.875l-.41015-.11718-.64063-.46485"/><path fill="none" stroke="#bebebe" stroke-linecap="round" stroke-linejoin="round" stroke-miterlimit="10" stroke-width=".5" d="M467.95703 311.69531H144.02734v168.625h323.9297v-168.625"/><g clip-path="url(#a)"><path fill="#fff" fill-opacity="0" fill-rule="evenodd" d="M144 475.89063v4.4375h.0039H144V460.1914v15.69921"/></g><g clip-path="url(#b)"><path fill="#fff" fill-opacity="0" fill-rule="evenodd" d="M144 449.26172v3.22656-140.8164h.0039H144v137.58984"/></g><path fill="#50fcfc" fill-rule="evenodd" d="M144 452.48828v7.70313h.0039v-7.69922l-.0039-.0039"/><g clip-path="url(#c)"><path fill="#fff" fill-opacity="0" fill-rule="evenodd" d="M144.0039 480.32813V460.1914l1.85548-2.0547-.19141-4.4375-1.66406-1.20702V311.67188h17.75V449.0703l-.13282.1914-3.61718 4.4375.67968 4.4375 1.08203 4.4375 1.98829 1.65626 3.17578-1.65625.16406-4.4375.01563-4.4375-3.21094-4.4375-.14453-.1914V311.67187h8.875v145.18359l-2.1836 1.28125 2.1836 2.48047 2.12109-2.48047-2.1211-1.28125v-145.1836h13.31641v149.12891l-1.4336 1.77344 1.4336.73437 2.14844-.73437-2.14844-1.77344v-149.1289h57.69922v126.4375l-2.57031 2.27343 2.57031 2.0586 2.11328-2.0586-2.11328-2.27344v-126.4375h35.50781v144.77735l-1.7539 1.6875 1.7539 2.26172 4.4375-.83594 1.15235-1.42578-1.15235-.6289-4.4375-1.0586V311.67187h13.3125v146.26954l-.39843.1953.39843.81642.71485-.81641-.71485-.19531V311.67187h22.19141V456.875l-3.64063 1.26172 3.64063 2.59375 4.4414-.57031 4.4375-1.97657.03516-.04687-.03515-.03516-4.4375-1.14062-4.44141-.08594V311.67187h66.57813v124.89844l-2.70313 3.8125-1.73828 2.3086-4.375 2.1289-.0625.0664-2.47656 4.375-1.96094 1.29688-2.71875 3.14063-1.71875 2.08984-2.26563 2.34766 2.26563 2.21484 1.75781 2.22266-1.75781 1.83203-2.50781 2.60938 2.03906 4.4375-.85547 4.4375 1.32422.60156 4.4375.58203 2.08984-1.1836-2.08984-2.60156-3.36719-1.83594 3.36719-1.88671 2.41015-2.55079 2.02735-.73828 4.4375.625.16406.11329 4.01172 4.4375.26563.2578.46484-.2578 3.97265-3.0547 4.4375 1.9375 4.4375-2.01171 2.75-1.3086 1.6875-.05859 4.44141-.04687 4.23828-4.33594-4.23828-4.13281-.36719-.3047-1.74218-4.4375-2.33204-4.07421-.11718-.36328-4.32031-3.71875-2.07032-.72266-2.36719-.83984-2.5078.83984-1.9297.63672-3.92968-.63672 2.875-4.4375-3.38281-3.8125V311.67187h53.2578v157.98047l-2.33202 1.80079 2.33203 1.01562 4.4375-.2539.94922-.76173-.94922-1.76562-4.4375-.03516V311.67188h17.7539v151.98828L446 467.01562l4.2461 3.09766 2.625-3.09765-2.625-3.35547V311.67187h17.75v154.5586l-.53907.78515-1.97265 4.4375 1.77734 4.4375.73437 1.12891v3.3086h-72.375l-2.88671-4.4375-.1875-.1836-4.4375-.25-.66797.4336-3.76954 1.60937-1.52343 2.82813H144.0039"/></g><path fill="#50fcfc" fill-rule="evenodd" d="M145.85938 458.13672l-1.85547 2.05469v-7.69922l1.66406 1.20703.1914 4.4375m12.82422 0l-.67968-4.4375 3.61718-4.4375.13282-.1914v4.16015l-.38672.46875.38672.95703.34765-.95703-.34765-.46875v-4.16016l.14453.1914 3.21094 4.4375-.01563 4.4375-.16406 4.4375-3.17578 1.65626-1.98828-1.65625-1.08204-4.4375"/><path fill="#00e8fc" fill-rule="evenodd" d="M161.7539 454.65625l-.38671-.95703.38672-.46875.34765.46875-.34765.95703"/><path fill="#50fcfc" fill-rule="evenodd" d="M170.6289 460.61719l-2.18359-2.48047 2.1836-1.28125 2.12109 1.28125-2.1211 2.48047m13.31641 2.6914l-1.4336-.73437 1.4336-1.77344 2.14844 1.77344-2.14844.73437m57.69922-20.86718l-2.57031-2.0586 2.57031-2.27344 2.11328 2.27344-2.11328 2.0586m35.50781 17.95703l-1.7539-2.26172 1.7539-1.6875 4.4375 1.0586 1.15235.6289-1.15235 1.42578-4.4375.83594m13.3125-1.44531l-.39843-.81641.39843-.19531.71485.1953-.71485.81642m22.19141 1.77734l-3.64063-2.59375 3.64063-1.26172 4.4414.08594 4.4375 1.14062.03516.03516-.03515.04687-4.4375 1.97657-4.44141.5703m48.35547 10.72267l-2.03906-4.4375 2.5078-2.60938 1.75782-1.83203-1.75781-2.22266-2.26563-2.21484 2.26563-2.34766 1.71875-2.08984 2.71875-3.14063 1.96094-1.29687 2.47656-4.375.0625-.0664 4.375-2.12891v4.43359l-2.1211 2.13672-2.3164 2.60937-2.19922 1.82813-2.23828 2.38672-1.8125 2.05078 1.8125 2.13672 4.4375 2.13672.23828.16406 4.19922 1.91406 3.69531 2.52735.7461.79296.86718-.79296 3.57031-1.42579 4.4375 1.39454 4.4375-.75 4.4375.01953 4.44141-.67188 2.9414-3.00781-2.9414-2.86719-1.88281-1.57031-2.5586-2.9414-.74609-1.4961-3.6914-3.9336-3.7422 3.9336-.6953 1-2.34766-1-2.08985-2.51953-4.4375-.09766-2.14843-1.82031-2.29297-2.13672v-4.4336l1.73828-2.30859 2.70313-3.8125 3.3828 3.8125-2.875 4.4375 3.9297.63672 1.92968-.63672 2.50781-.83984v4.23437l-.27734 1.04688.27735.5586.28515-.5586-.28515-1.04688v-4.23437l2.36718.83984 2.07031.72266 4.32032 3.71875.11719.36328 2.33203 4.07422 1.74218 4.4375.3672.30469 4.23827 4.1328-4.23828 4.33595-4.4414.04687-1.6875.0586-2.75 1.30859-4.4375 2.01172-4.4375-1.9375-3.97266 3.05469-.46485.2578-.26562-.2578-4.01172-4.4375-.16406-.11329-4.4375-.625-2.02735.73829-2.41015 2.55078-3.36719 1.88671 3.36719 1.83594 2.08984 2.60156-2.08984 1.1836-4.4375-.58203-1.32422-.60156.85547-4.4375"/><path fill="#00e8fc" fill-rule="evenodd" d="M365.91797 460.27344l-1.8125-2.13672 1.8125-2.05078 2.23828-2.38672 2.19922-1.82813 2.3164-2.60937 2.1211-2.13672 2.29297 2.13672 2.14844 1.82031 4.4375.09766 2.08984 2.51953 2.34765 1 .69532-1 3.74219-3.9336v1.55079l-2.26563 2.3828-2.17188 3.12892-2.39453 1.30859-2.04296 3.72265-.84375.71485.84375.27734 4.4375 2.8086 4.4375-.91407 4.4375.33204 4.4414-1.70704.77735-.79687-.77735-.75781-4.41406-3.6797-.02735-.03124-2.20312-4.40625-2.23438-2.38281v-1.55079l3.69141 3.9336.7461 1.4961 2.55859 2.9414 1.88281 1.57031 2.9414 2.86719-2.9414 3.00781-4.4414.67188-4.4375-.01954-4.4375.75-4.4375-1.39453-3.57032 1.42579-.86719.79296-.74609-.79296-3.69531-2.52735-4.19922-1.91406-.23828-.16406-4.4375-2.13672"/><path fill="#00d4fc" fill-rule="evenodd" d="M383.67188 462.85156l-.84375-.27734.84375-.71485 2.04296-3.72265 2.39454-1.3086 2.17187-3.1289 2.26563-2.38281v1.55078l-.78907.83203-3.10937 4.4375-.53906.99219-2.64844 3.4453 2.64844 1.76173 4.4375-1.07813 4.4375.64453 2.83593-1.32812-2.83594-2.36719-1.16015-2.07031-2.4961-4.4375-.78125-.83203v-1.55078l2.23438 2.3828 2.20313 4.40626.02734.03125 4.41406 3.67969.77735.7578-.77735.79688-4.4414 1.70704-4.4375-.33204-4.4375.91407-4.4375-2.8086"/><g clip-path="url(#d)"><path fill="#50fcfc" fill-rule="evenodd" d="M382.14844 480.32813l1.52344-2.82813 3.76953-1.60938.66796-.43359 4.4375.25.1875.1836 2.88672 4.4375h-7.29296l-.21875-2.59375-.55079 2.59375h-5.41015"/></g><path fill="#00c4fc" fill-rule="evenodd" d="M388.10938 464.33594l-2.64844-1.76172 2.64844-3.44531.53906-.9922 3.10937-4.4375.78906-.83202v1.7461l-2.5 3.52343-1.9375 3.58203-.66015.85547.66015.4414 1.6836-.4414 2.7539-1.03125 3.57813 1.03125.85938.15234.32812-.15234-.32813-.27344-2.33593-4.16406-2.10156-3.52344v-1.7461l.78125.83204 2.49609 4.4375 1.16015 2.07031 2.83594 2.36719-2.83594 1.32812-4.4375-.64453-4.4375 1.07813"/><path fill="#00b8fc" fill-rule="evenodd" d="M388.10938 463.01563l-.66016-.44141.66015-.85547 1.9375-3.58203 2.5-3.52344v1.96875l-1.10156 1.55469 1.10156 1.5039.9297-1.5039-.9297-1.55469v-1.96875l2.10157 3.52344 2.33594 4.16406.32812.27344-.32813.15234-.85937-.15234-3.57813-1.03125-2.7539 1.03125-1.6836.4414"/><g clip-path="url(#e)"><path fill="#fff" fill-opacity="0" fill-rule="evenodd" d="M388.10938 477.73438l-.55079 2.59375h.76954l-.21875-2.59375"/></g><path fill="#fff" fill-opacity="0" fill-rule="evenodd" d="M388.10938 448.21484l-.27735 1.04688.27735.5586.28515-.5586-.28515-1.04688"/><path fill="#00a8fc" fill-rule="evenodd" d="M392.54688 459.64063l-1.10157-1.50391 1.10156-1.55469.9297 1.55469-.9297 1.5039"/><path fill="#50fcfc" fill-rule="evenodd" d="M432.49219 472.46875l-2.33203-1.01563 2.33203-1.80078 4.4375.03516.94922 1.76563-.94922.76171-4.4375.25391m17.7539-2.35547L446 467.01563l4.2461-3.35547 2.625 3.35546-2.625 3.09766m17.01562 5.77735l-1.77735-4.4375 1.97266-4.4375.53906-.78516v10.78906l-.73437-1.1289m.73437-9.66016v10.78906l.00391.0039v-10.79687l-.0039.0039"/><g clip-path="url(#f)"><path fill="#fff" fill-opacity="0" fill-rule="evenodd" d="M467.9961 311.67188H468v154.55468-154.55469h-.0039"/></g><g clip-path="url(#g)"><path fill="none" stroke="#000" stroke-linecap="round" stroke-linejoin="round" stroke-miterlimit="10" stroke-width=".5" d="M147.5039 480.59766l-7.0078-.53907"/></g><g clip-path="url(#h)"><path fill="none" stroke="#000" stroke-linecap="round" stroke-linejoin="round" stroke-miterlimit="10" stroke-width=".5" d="M147.5039 480.59766l.98048 2.25"/></g><g clip-path="url(#i)"><path fill="none" stroke="#000" stroke-linecap="round" stroke-linejoin="round" stroke-miterlimit="10" stroke-width=".5" d="M160.82813 480.39844l-7.02735-.14063"/></g><g clip-path="url(#j)"><path fill="none" stroke="#000" stroke-linecap="round" stroke-linejoin="round" stroke-miterlimit="10" stroke-width=".5" d="M160.82813 480.39844l1.10937 2.1875"/></g><g clip-path="url(#k)"><path fill="none" stroke="#000" stroke-linecap="round" stroke-linejoin="round" stroke-miterlimit="10" stroke-width=".5" d="M174.13672 480.52344l-7.01563-.39063"/></g><g clip-path="url(#l)"><path fill="none" stroke="#000" stroke-linecap="round" stroke-linejoin="round" stroke-miterlimit="10" stroke-width=".5" d="M174.13672 480.52344l1.03125 2.23047"/></g><g clip-path="url(#m)"><path fill="none" stroke="#000" stroke-linecap="round" stroke-linejoin="round" stroke-miterlimit="10" stroke-width=".5" d="M187.45313 480.5l-7.01563-.34375"/></g><g clip-path="url(#n)"><path fill="none" stroke="#000" stroke-linecap="round" stroke-linejoin="round" stroke-miterlimit="10" stroke-width=".5" d="M187.45313 480.5l1.04687 2.21875"/></g><g clip-path="url(#o)"><path fill="none" stroke="#000" stroke-linecap="round" stroke-linejoin="round" stroke-miterlimit="10" stroke-width=".5" d="M200.77344 480.32813h-7.02735"/></g><g clip-path="url(#p)"><path fill="none" stroke="#000" stroke-linecap="round" stroke-linejoin="round" stroke-miterlimit="10" stroke-width=".5" d="M200.77344 480.32813l1.15234 2.16796"/></g><g clip-path="url(#q)"><path fill="none" stroke="#000" stroke-linecap="round" stroke-linejoin="round" stroke-miterlimit="10" stroke-width=".5" d="M214.08984 480.32813h-7.02734"/></g><g clip-path="url(#r)"><path fill="none" stroke="#000" stroke-linecap="round" stroke-linejoin="round" stroke-miterlimit="10" stroke-width=".5" d="M214.08984 480.32813l1.15235 2.16796"/></g><g clip-path="url(#s)"><path fill="none" stroke="#000" stroke-linecap="round" stroke-linejoin="round" stroke-miterlimit="10" stroke-width=".5" d="M227.40234 480.48438l-7.02343-.3125"/></g><g clip-path="url(#t)"><path fill="none" stroke="#000" stroke-linecap="round" stroke-linejoin="round" stroke-miterlimit="10" stroke-width=".5" d="M227.40234 480.48438l1.05078 2.21875"/></g><g clip-path="url(#u)"><path fill="none" stroke="#000" stroke-linecap="round" stroke-linejoin="round" stroke-miterlimit="10" stroke-width=".5" d="M240.71875 480.35938l-7.02734-.0586"/></g><g clip-path="url(#v)"><path fill="none" stroke="#000" stroke-linecap="round" stroke-linejoin="round" stroke-miterlimit="10" stroke-width=".5" d="M239.69531 480.34766l.5664 1.08984"/></g><g clip-path="url(#w)"><path fill="none" stroke="#000" stroke-linecap="round" stroke-linejoin="round" stroke-miterlimit="10" stroke-width=".5" d="M254.02344 480.61328l-7.0039-.57031"/></g><g clip-path="url(#x)"><path fill="none" stroke="#000" stroke-linecap="round" stroke-linejoin="round" stroke-miterlimit="10" stroke-width=".5" d="M253.0039 480.53125l.48438 1.125"/></g><g clip-path="url(#y)"><path fill="none" stroke="#000" stroke-linecap="round" stroke-linejoin="round" stroke-miterlimit="10" stroke-width=".5" d="M267.34766 480.32813h-7.02735"/></g><g clip-path="url(#z)"><path fill="none" stroke="#000" stroke-linecap="round" stroke-linejoin="round" stroke-miterlimit="10" stroke-width=".5" d="M266.32813 480.32813l.57421 1.08203"/></g><g clip-path="url(#A)"><path fill="none" stroke="#000" stroke-linecap="round" stroke-linejoin="round" stroke-miterlimit="10" stroke-width=".5" d="M280.33594 478.84766l-6.3711 2.96093"/></g><g clip-path="url(#B)"><path fill="none" stroke="#000" stroke-linecap="round" stroke-linejoin="round" stroke-miterlimit="10" stroke-width=".5" d="M279.41016 479.27734l.98047.7422"/></g><g clip-path="url(#C)"><path fill="none" stroke="#000" stroke-linecap="round" stroke-linejoin="round" stroke-miterlimit="10" stroke-width=".5" d="M293.91406 479.66016l-6.89844 1.33593"/></g><g clip-path="url(#D)"><path fill="none" stroke="#000" stroke-linecap="round" stroke-linejoin="round" stroke-miterlimit="10" stroke-width=".5" d="M292.91016 479.85547l.77343.95312"/></g><g clip-path="url(#E)"><path fill="none" stroke="#000" stroke-linecap="round" stroke-linejoin="round" stroke-miterlimit="10" stroke-width=".5" d="M307.08203 481.53516l-6.60156-2.41016"/></g><g clip-path="url(#F)"><path fill="none" stroke="#000" stroke-linecap="round" stroke-linejoin="round" stroke-miterlimit="10" stroke-width=".5" d="M306.1211 481.1836l.16796 1.21484"/></g><g clip-path="url(#G)"><path fill="none" stroke="#000" stroke-linecap="round" stroke-linejoin="round" stroke-miterlimit="10" stroke-width=".5" d="M319.03516 483.25781l-3.875-5.85937"/></g><g clip-path="url(#H)"><path fill="none" stroke="#000" stroke-linecap="round" stroke-linejoin="round" stroke-miterlimit="10" stroke-width=".5" d="M329.44531 483.70703l1.92969-6.75781"/></g><g clip-path="url(#I)"><path fill="none" stroke="#000" stroke-linecap="round" stroke-linejoin="round" stroke-miterlimit="10" stroke-width=".5" d="M341.2461 482.82031l4.95702-4.98047"/></g><g clip-path="url(#J)"><path fill="none" stroke="#000" stroke-linecap="round" stroke-linejoin="round" stroke-miterlimit="10" stroke-width=".5" d="M354.26563 482.48047l5.55078-4.30469"/></g><g clip-path="url(#K)"><path fill="none" stroke="#000" stroke-linecap="round" stroke-linejoin="round" stroke-miterlimit="10" stroke-width=".5" d="M367.59375 482.4961l5.52734-4.33594"/></g><g clip-path="url(#L)"><path fill="none" stroke="#000" stroke-linecap="round" stroke-linejoin="round" stroke-miterlimit="10" stroke-width=".5" d="M380.2461 481.11719l6.84765-1.57813"/></g><g clip-path="url(#M)"><path fill="none" stroke="#000" stroke-linecap="round" stroke-linejoin="round" stroke-miterlimit="10" stroke-width=".5" d="M381.24219 480.88672l-.80469-.92578"/></g><g clip-path="url(#N)"><path fill="none" stroke="#000" stroke-linecap="round" stroke-linejoin="round" stroke-miterlimit="10" stroke-width=".5" d="M393.67188 479.16406l6.6289 2.33203"/></g><path fill="none" stroke="#000" stroke-linecap="round" stroke-linejoin="round" stroke-miterlimit="10" stroke-width=".5" d="M394.63672 479.5039l-.1836-1.21484"/><g clip-path="url(#O)"><path fill="none" stroke="#000" stroke-linecap="round" stroke-linejoin="round" stroke-miterlimit="10" stroke-width=".5" d="M408.76563 477.16797l3.07421 6.32031"/></g><path fill="none" stroke="#000" stroke-linecap="round" stroke-linejoin="round" stroke-miterlimit="10" stroke-width=".5" d="M409.21094 478.08984l.72265-.99218"/><g clip-path="url(#P)"><path fill="none" stroke="#000" stroke-linecap="round" stroke-linejoin="round" stroke-miterlimit="10" stroke-width=".5" d="M421.77734 477.33594l3.6797 5.98437"/></g><path fill="none" stroke="#000" stroke-linecap="round" stroke-linejoin="round" stroke-miterlimit="10" stroke-width=".5" d="M421.77734 477.33594l1.2422-2.11719"/><g clip-path="url(#Q)"><path fill="none" stroke="#000" stroke-linecap="round" stroke-linejoin="round" stroke-miterlimit="10" stroke-width=".5" d="M434.97656 477.41016l3.91016 5.83984"/></g><path fill="none" stroke="#000" stroke-linecap="round" stroke-linejoin="round" stroke-miterlimit="10" stroke-width=".5" d="M435.54688 478.25781l.57812-1.08203"/><g clip-path="url(#R)"><path fill="none" stroke="#000" stroke-linecap="round" stroke-linejoin="round" stroke-miterlimit="10" stroke-width=".5" d="M449.3164 476.9414l1.85938 6.77735"/></g><path fill="none" stroke="#000" stroke-linecap="round" stroke-linejoin="round" stroke-miterlimit="10" stroke-width=".5" d="M449.58594 477.92578l.89453-.83984"/><g clip-path="url(#S)"><path fill="none" stroke="#000" stroke-linecap="round" stroke-linejoin="round" stroke-miterlimit="10" stroke-width=".5" d="M463.75 476.82031l-.375 7.01563"/></g><path fill="none" stroke="#000" stroke-linecap="round" stroke-linejoin="round" stroke-miterlimit="10" stroke-width=".5" d="M463.75 476.82031l2.22266-1.03515"/><g clip-path="url(#T)"><path fill="none" stroke="#000" stroke-linecap="round" stroke-linejoin="round" stroke-miterlimit="10" stroke-width=".5" d="M147.50781 467.23047l-7.01562-.4336"/></g><path fill="none" stroke="#000" stroke-linecap="round" stroke-linejoin="round" stroke-miterlimit="10" stroke-width=".5" d="M147.50781 467.23047l1.01563 2.23437m12.28125-2.86328l-6.98047.82422m6.98047-.82422l1.39844 2.01953m-2.41407-1.89843l.69922 1.0078m13.6211-1.21484l-6.95704.9961m6.95703-.9961l1.44532 1.98047m11.84765-2.11718l-6.91406 1.26953m6.91406-1.26953l1.52344 1.92578m11.77344-2.00782l-6.8789 1.4336m6.8789-1.4336l1.57031 1.88672m11.57422-2.46093l-6.53516 2.58203m6.53516-2.58203l1.86719 1.59375m11.57422-1.20704l-6.78907 1.8086m6.78907-1.8086l1.67187 1.79297M240.6797 466.5l-6.94922 1.02734m6.94922-1.02734l1.45703 1.97266m11.8711-1.89844l-6.97266.8789m5.95703-.75l.70703 1m13.23437-2.34765l-6.1953 3.3164m5.29296-2.83593l1.01953.6836m12.7539-1.8086L274.5 469.3164m5.30469-4.60547l2.28906.8789m11.02734-.8789l-5.30859 4.60547m5.3086-4.60547l2.28906.88281m11.16406-.71094l-5.58594 4.26172m4.77344-3.64062l1.11328.51171m13.57422-.04687l-6.70703 2.08984m5.73047-1.78515l.875.86328m13.5703-.36719l-7.01171.48828m5.98828-.41797l.65235 1.04297m12.28906 1.9414l-4.21875-5.62109M353.85938 468.5l6.36328-2.97266m-5.4375 2.53907l-.98047-.73438m13.67969 1.70703l5.74218-4.05078m-4.90625 3.46094l-1.09375-.55469m12.96094-1.34766l6.96484.9336m-5.94921-.79688l-.4297-1.14843m12.84376.48046l6.73828 1.9961m-5.75781-1.70313l-.2461-1.20312m14.75-1.39453L411.5 470.3164m-2.05078-5.64454l.82422-.91015m12.29687-.10156l2.08985 6.70703m-2.08985-6.70703l1.72657-1.7461m11.86718 1.67188l1.53516 6.85547m-1.53516-6.85547l1.85938-1.59766m11.6289 1.5625l1.1875 6.92578m-1.1875-6.92578l1.94141-1.5m13.70703 1.91016l-3.47656 6.10547m2.96875-5.21875l1.22656.03515"/><g clip-path="url(#U)"><path fill="none" stroke="#000" stroke-linecap="round" stroke-linejoin="round" stroke-miterlimit="10" stroke-width=".5" d="M147.51172 453.58984l-7.02344.21875"/></g><path fill="none" stroke="#000" stroke-linecap="round" stroke-linejoin="round" stroke-miterlimit="10" stroke-width=".5" d="M147.51172 453.58984l1.21875 2.12891m12.09375-1.8164l-7.01563-.40626m7.01563.40625l1.02344 2.23047m-2.04688-2.28906l.51172 1.11328m13.82031-.96484l-7.0039-.58985m7.0039.58985l.96485 2.25781m12.35156-2.3086l-7.00781-.48828m7.0078.48829l1 2.24218m12.32423-2.47265l-7.02735-.02344m7.02735.02344l1.14453 2.17187m12.16797-2.08984l-7.02344-.1914m7.02344.1914l1.09375 2.19922m12.14844-3.02344l-6.875 1.46094m6.875-1.46094l1.57421 1.8789m11.64844-2.22265l-6.6914 2.14453m6.6914-2.14453l1.75781 1.71484m11.57813-1.65234l-6.73047 2.01953m5.75-1.72266l.86328.8711m13.57422-.3789l-7.01563.4414m5.9922-.375l.64452 1.04297m13.33594-2.44532L274 455.25782m5.38281-2.66407l.9961.71484m13.07422-1.45703l-5.97657 3.69531m5.97656-3.6953l2.1211 1.23437m11.19531-1.23438l-5.97656 3.69531m5.97656-3.6953l2.11719 1.23437m11.35547-.94922l-6.29297 3.125m5.3789-2.67188l.9961.71485m13.45703-.59766l-6.74219 1.98438m5.76172-1.69532l.85938.875m13.32812-1.47656l-6.52344 2.60938m5.57422-2.23047l.9375.79297m12.375-2.51172l-4.6211 5.28906m3.94923-4.51953l1.19531.27734m7.01563 2.17969l6.92968-1.16406m12.67969-1.5l-5.66016 4.16406m4.83594-3.5586l1.10938.53126m7.48828-1.28516l5.42578 4.46094m-4.63672-3.8125l.24219-1.20313m18.0625 1.07031l-6.13281 3.42579m5.24218-2.92579l1.03125.66407m13.60938.85937l-7-.61719m5.98047.52735l.48046 1.1289m13.47657.25782l-6.2461-3.21485M450 450.19531l.49219 7.00781m-.42188-5.98828l1.04297-.65234m14.76953.4961l-4.64062 5.27734"/><g clip-path="url(#V)"><path fill="none" stroke="#000" stroke-linecap="round" stroke-linejoin="round" stroke-miterlimit="10" stroke-width=".5" d="M465.88281 451.0586l2.38672.5664"/></g><g clip-path="url(#W)"><path fill="none" stroke="#000" stroke-linecap="round" stroke-linejoin="round" stroke-miterlimit="10" stroke-width=".5" d="M147.51172 440.28906l-7.02344.1914"/></g><path fill="none" stroke="#000" stroke-linecap="round" stroke-linejoin="round" stroke-miterlimit="10" stroke-width=".5" d="M147.51172 440.28906l1.21094 2.13281m-2.23047-2.10546l.60156 1.0664m13.73047-.83593l-7.01953-.32813m7.01953.32813l1.05078 2.21875M159.80469 440.5l.52344 1.10938m13.8164-1.26172l-7.02734.07422m7.02734-.07422l1.17188 2.15234m-2.19532-2.14063l.58594 1.07422m13.75-.9375l-7.02344-.22656m7.02344.22656l1.08203 2.20313m12.23047-2.46875l-7.01953.3086m7.01953-.3086l1.2461 2.11328m12.04687-2.39453l-6.97266.8711m6.97266-.8711l1.41016 2.0039m11.5664-3.125l-6.30078 3.10938m6.30078-3.10938l1.99219 1.4336m10.07813-2.83203l-3.8086 5.90625m3.8086-5.90625l2.4453.20703m7.62891-.5l2.67578 6.4961m-2.28906-5.55079l.78516-.94531m15.61719.45703l-4.27344 5.57812m4.27344-5.57812l2.42187.40625m11.375.04297l-5.23828 4.6836m5.23828-4.6836l2.30469.84765m10.91016-.95703l-5.03516 4.90235m5.03515-4.90235l2.33594.75m11.32422-.33593l-5.72656 4.0703m5.72656-4.0703l2.19531 1.10156m-3.02734-.50781l1.09766.54687m13.21875-.875l-6.06641 3.54297m6.0664-3.54297l2.08985 1.28906m11.17969-1.36718l-5.97266 3.69921m5.97266-3.69921l2.1211 1.23437m11.08202-1.40625l-5.75 4.04297m4.91406-3.45703l1.09375.55469m10.9297-2.5547l-1.4961 6.8672m1.4961-6.8672l2.36327-.66015m9.16016.73828l2.08984 6.71094m-1.78906-5.73437l.86328-.8711m15.58985 5.82031l-4.78907-5.14062m4.08985 4.39453l-.39844 1.16016m15.27734-1.67188l-6.51953-2.625m5.57031 2.24219l.12891 1.22266m14.38281-1.91797l-7.01171-.46485m5.98828.39453l.5039 1.1211m13.58594-2.60156l-6.51563 2.6328m6.51563-2.6328l1.8789 1.57812m-2.82812-1.19531l.9414.78906m13.57032.38672l-7.01172-.48438m7.01172.48438l1 2.24219m-2.01953-2.3125l.5 1.1211m13.76172-2.04688l-6.86328 1.5078m6.86328-1.5078l1.58984 1.87109m11.66016-2.10938l-6.73828 1.98829"/><g clip-path="url(#X)"><path fill="none" stroke="#000" stroke-linecap="round" stroke-linejoin="round" stroke-miterlimit="10" stroke-width=".5" d="M466.92969 439.39063l1.71875 1.75"/></g><g clip-path="url(#Y)"><path fill="none" stroke="#000" stroke-linecap="round" stroke-linejoin="round" stroke-miterlimit="10" stroke-width=".5" d="M147.51172 426.96094l-7.02344.21875"/></g><path fill="none" stroke="#000" stroke-linecap="round" stroke-linejoin="round" stroke-miterlimit="10" stroke-width=".5" d="M147.51172 426.96094l1.21875 2.1289m12.09766-1.95312L153.80077 427m7.02734.13672l1.10938 2.1875m12.16016-1.69922l-6.9375-1.11328m6.9375 1.11328l.79687 2.32031m12.3711-1.73047l-6.64063-2.29297m5.67578 1.96094l.1914 1.21094m14.26954-2.33594l-7 .6211m7-.6211l1.33594 2.0586m11.49609-3.54688l-6.03516 3.59766m6.03516-3.59766l2.09766 1.27344m-2.97657-.75l1.05078.63672m12.8125-1.6211l-5.3789 4.51954m4.59766-3.86329l1.13671.46094m13.73047 1.76953l-6.91406-1.2539m5.90625 1.0703l.375 1.17188m13.76563-2.8789l-6.5547 2.53125m5.60157-2.16406l.92969.80078m12.8164-2.08985l-5.5078 4.3711m4.70702-3.73438l1.1211.49219m13.1875-.85547l-5.89454 3.82422m5.03907-3.26563l1.07031.59375m13.03125-1.2578l-5.7539 4.03515m4.91796-3.44532l1.08985.5547m13.60937.09374l-6.85156 1.5586m5.85547-1.33204l.80078.9297m12.09765-3.25782l-4.02734 5.76172m4.02734-5.76172l2.4336.29687m11.66406.45313l-5.58984 4.26172m5.58984-4.26172l2.22656 1.02734m-3.03906-.40625l1.11328.51172m13.32813-.63672l-6.21875 3.26953m6.21875-3.26953l2.02734 1.38282m-2.9336-.90625l1.01563.6914m13.59375.15235l-6.9961.6289m5.98048-.53906l.66797 1.02734m11.0664-4.19922l-1.80469 6.79297m1.54297-5.80468l1.19532-.27735m10.39843-.65625l2.16016 6.6836m-2.16016-6.6836l1.70703-1.76172m16.11329 4.3125l-6.84766 1.58203m6.84766-1.58203l1.60937 1.85547m-2.60547-1.625l.80469.92578m13.1211-2.1289l-6.07813 3.52734m6.07812-3.52734l2.08594 1.29687m-2.96875-.78515l2.08203 1.29687m11.76953-2.30469l-5.3828 4.51953m5.3828-4.51953l2.27344.91797m-3.0586-.26172l2.27735.92188m11.46484-1.9414l-4.66796 5.24609m4.66796-5.2461l2.38672.57813m-3.0664.1836l1.19531.28905m13.23828-.58593l-5.54687 4.3164m5.54687-4.3164l2.23828 1.0039m-3.04297-.375l1.1172.5039m11.67577-2.17577l-2.89062 6.40234m2.89062-6.40234l2.44922-.16016"/><g clip-path="url(#Z)"><path fill="none" stroke="#000" stroke-linecap="round" stroke-linejoin="round" stroke-miterlimit="10" stroke-width=".5" d="M147.49219 413.38281l-6.98438.74219"/></g><path fill="none" stroke="#000" stroke-linecap="round" stroke-linejoin="round" stroke-miterlimit="10" stroke-width=".5" d="M147.49219 413.38281l1.375 2.03516m11.8711-2.45703l-6.84767 1.58593m6.84766-1.58593l1.60938 1.85156m11.64453-2.07422l-6.72656 2.03125m6.72656-2.03125l1.73047 1.74219m11.70703-1.16797l-6.96875.88281m6.96875-.88281l1.41797 2.0039M200.6914 413l-6.86328 1.50781M200.6914 413l1.58984 1.8711m-2.58594-1.65235l.79297.9336m13.49219-1.26954l-6.8086 1.74219m5.81641-1.48828l.82813.90625m13.55078.21484l-6.95313-1.00781m5.9414.85937l.41407 1.15625m13.89844-.91796l-6.92578-1.1875m5.91797 1.01171l.38672 1.16797m13.76953-2.80468l-6.58985 2.4375m5.6289-2.08204l.91798.8125m13.54297.51954l-6.96485-.9375m5.95313.80078l.42578 1.14843m11.42187-4.84765l-2.0039 6.73437m1.71094-5.7539l1.20312-.2461m14.78516 3.58203l-6.76563-1.89843m5.78125 1.6211l.26172 1.19921m14.16797-1.89844l-7.02734.05469m6.0078-.04688l.58204 1.07813m12.78516-3.48438l-5.08985 4.84766m4.34766-4.14062l1.16406.38671m13.78125.58204l-6.86719 1.5m5.86719-1.28125l.79297.93359m13.57812.00781l-6.97656-.82031m6.97656.82031l.89063 2.28516m12.42969-2.3086l-6.98438-.77343m6.98438.77343l.90625 2.27735M373.5 412.18359l-6.28516 3.14063m6.28516-3.14063l1.9961 1.42188m-2.91016-.96485l.9961.71094m12.8164-1.8164l-5.45313 4.43359m5.45313-4.4336l2.25781.95704m-3.05078-.3086l2.25781.95313m12.09375-1.25781l-5.9414 3.75m5.9414-3.75l2.13281 1.21875m-2.99609-.67188l2.1289 1.21875m11.69532-2.23437l-5.23438 4.6875m5.23438-4.6875l2.30469.84765m-3.06641-.16406l1.15234.42187m12.41407-1.57421l-4.21485 5.62109m4.21485-5.6211l2.42578.37891m-3.03906.4414l1.21484.1875m12.73437-.99218l-4.2539 5.59375m4.2539-5.59375l2.42188.39453m-3.04297.41797l1.21094.19922m13.15234-.6289l-5.10937 4.82421m5.10937-4.82422l2.32422.78516m-3.0664-.08203l1.16015.39062m12.20703-1.65625l-3.73047 5.95313"/><g clip-path="url(#aa)"><path fill="none" stroke="#000" stroke-linecap="round" stroke-linejoin="round" stroke-miterlimit="10" stroke-width=".5" d="M465.42578 410.77734l2.44922.17188"/></g><path fill="none" stroke="#000" stroke-linecap="round" stroke-linejoin="round" stroke-miterlimit="10" stroke-width=".5" d="M464.88281 411.64063l2.44922.17578"/><g clip-path="url(#ab)"><path fill="none" stroke="#000" stroke-linecap="round" stroke-linejoin="round" stroke-miterlimit="10" stroke-width=".5" d="M147.5 400.14063l-7 .59765"/></g><path fill="none" stroke="#000" stroke-linecap="round" stroke-linejoin="round" stroke-miterlimit="10" stroke-width=".5" d="M147.5 400.14063l1.33203 2.05859m11.64063-3.30078l-6.31641 3.08203m6.3164-3.08203l1.98438 1.4414m11.66406-.3164l-6.98047.82812m6.98047-.82812l1.39844 2.01562m11.9336-1.39844l-7.01563-.40625m7.01563.40625l1.02343 2.23047m-2.04297-2.28906l.51172 1.11328m13.8086-1.61328l-6.98828.71094m6.98828-.71094l1.36718 2.03906M214 399.65234l-6.84766 1.57422m5.85157-1.34765l.80468.92968m13.44922-1.37109l-6.73437 2.0039m6.73437-2.0039l1.72266 1.7461m11.65625-1.50391l-6.86328 1.51953m6.86328-1.51953l1.59375 1.86328m11.73437-1.80078l-6.88672 1.39062m6.88672-1.39062l1.5586 1.89844m11.72656-2.03907l-6.82813 1.67188m6.82813-1.67188l1.63281 1.83203m11.45703-2.47265l-6.375 2.95703m6.375-2.95703l1.95313 1.48047m11.65234-.48438l-6.96094.96094m6.96094-.96094l1.4375 1.98828m11.91016-1.38281l-7.02344-.25m6 .21484l.53906 1.10157m13.73438-1.86329l-6.89453 1.34766m6.89453-1.34765l1.54687 1.90234m11.80078-1.71485l-6.96093.97266m6.96093-.97265l1.44141 1.98437m11.89453-1.20313l-7-.58984m5.98047.5039l.48438 1.125m13.48828-2.91406l-6.27735 3.15625m5.36328-2.6953l1.00391.70702M373.5625 399l-6.41016 2.8789M373.5625 399l1.9375 1.5039m-2.8711-1.08593l.96876.7539m12.6875-2.08203l-5.22657 4.69922m5.22657-4.69922l2.30468.83985m-3.0664-.15625l1.15234.41797m13.16406-.80079l-5.70703 4.09766m5.70703-4.09765l2.19922 1.08593m-3.03125-.49219l1.10156.54297m13.16407-.96484l-5.94532 3.75m5.94532-3.75l2.1289 1.21875m-2.99609-.67188l1.0664.60938m12.50782-1.8789l-4.73047 5.1953m4.73047-5.1953l2.3789.60937m-3.0664.14844l1.1914.30078m12.67188-1.17969l-4.44922 5.4375m4.44922-5.4375l2.40625.48047m-3.05469.3125l1.20313.23828m13.38281-.3711l-5.6914 4.1211m5.6914-4.1211l2.20312 1.07813m-3.03125-.48047l1.10157.53906m12.9336-1.27734l-5.48048 4.39844"/><g clip-path="url(#ac)"><path fill="none" stroke="#000" stroke-linecap="round" stroke-linejoin="round" stroke-miterlimit="10" stroke-width=".5" d="M466.30078 398.23828l2.2539.96875"/></g><path fill="none" stroke="#000" stroke-linecap="round" stroke-linejoin="round" stroke-miterlimit="10" stroke-width=".5" d="M465.5039 398.8789l1.12891.48438"/><g clip-path="url(#ad)"><path fill="none" stroke="#000" stroke-linecap="round" stroke-linejoin="round" stroke-miterlimit="10" stroke-width=".5" d="M147.44531 387.82031l-6.89062-1.39453"/></g><path fill="none" stroke="#000" stroke-linecap="round" stroke-linejoin="round" stroke-miterlimit="10" stroke-width=".5" d="M147.44531 387.82031l.69531 2.35156m12.67579-3.3203l-7.00391.54687m7.0039-.54688l1.32032 2.07031m-2.33984-1.99218l.66015 1.03515m13.65625-1.29296l-6.96875.90625m6.96875-.90625l1.42188 1.99609m-2.4336-1.86719l.71094 1m13.32031-2.15625l-6.375 2.96094m6.375-2.96094l1.95703 1.47656m11.64453.51954l-6.94921-1.03516m20.25-.09766l-6.91797 1.23047m5.91015-1.05078l.75782.96484m13.21875-2.15625l-6.22657 3.25391m6.22657-3.2539l2.02343 1.38671M240.00391 385l-5.59766 4.2461M240.00391 385l2.22656 1.02734m11.28906-.73828l-5.9961 3.66797m5.9961-3.66797l2.11328 1.25m11.14844-1.32812l-5.89063 3.82812m5.89063-3.82812l2.14844 1.1875m11.42969-.71094l-6.41407 2.8711m6.41406-2.8711l1.9336 1.50781m11.625-.73437l-6.90235 1.32422m6.90235-1.32422l1.53906 1.91015m11.6914-2.25l-6.73437 2.00391m6.73438-2.0039l1.72265 1.74609m11.46485-2.10547l-6.47657 2.72656m6.47657-2.72656l1.90234 1.54687m11.4414-1.47656l-6.53515 2.58203m6.53516-2.58203l1.86718 1.58985m10.98829-2.41016l-5.6172 4.22265m4.80079-3.60937l1.10937.51953m13.4336-.42578l-6.4414 2.8086m6.4414-2.8086l1.92187 1.52734m11.27344-1.77734l-6.19922 3.3086m6.19922-3.3086l2.03516 1.36719m-2.9375-.88672l1.01562.6836m13.16797-1.22266l-6.13281 3.42968m6.13281-3.42968l2.0625 1.32812m-2.95703-.83203l1.03125.66406m12.76562-1.75l-5.30859 4.60547m5.3086-4.60547l2.28906.88281m-3.0625-.21093l1.14453.4414m12.9375-1.12109l-5.29688 4.6211m5.29688-4.6211l2.29297.875m-3.0625-.20313l1.14453.4375m12.92969-1.12109l-5.27344 4.64453m5.27344-4.64453l2.29687.86719m-3.0664-.1914l1.14843.43359m12.77344-1.28125l-4.94922 4.98828m4.94922-4.98828l2.34766.70703m-3.06641.01953l2.34766.70703m12.39062-.42969l-6.35937 2.98438m6.35937-2.98438l1.96484 1.46875M452.5 386.06641l.98437.73437m13.1211-1.42969l-6.08985 3.50782"/><g clip-path="url(#ae)"><path fill="none" stroke="#000" stroke-linecap="round" stroke-linejoin="round" stroke-miterlimit="10" stroke-width=".5" d="M466.60547 385.3711l2.08203 1.30077"/></g><path fill="none" stroke="#000" stroke-linecap="round" stroke-linejoin="round" stroke-miterlimit="10" stroke-width=".5" d="M465.71875 385.8789l1.04297.65235"/><g clip-path="url(#af)"><path fill="none" stroke="#000" stroke-linecap="round" stroke-linejoin="round" stroke-miterlimit="10" stroke-width=".5" d="M147.45313 374.44531l-6.90625-1.27734"/></g><path fill="none" stroke="#000" stroke-linecap="round" stroke-linejoin="round" stroke-miterlimit="10" stroke-width=".5" d="M147.45313 374.44531l.74218 2.33985m-1.7461-2.52344l.3711 1.16797m13.95703-1.03125l-6.92578-1.17969m6.92578 1.17969l.77344 2.32812m-1.78125-2.5l.38672 1.16406m13.85938-2.52734l-6.76954 1.89063m6.76953-1.89063l1.69141 1.77344m11.51172-2.10938l-6.54688 2.5625m6.54688-2.5625l1.85938 1.59766m10.92578-2.50781L194.51563 376m5.48828-4.38281l2.2539.97265m10.625-1.43359l-4.61328 5.30078m4.61328-5.30078l2.39063.55469m10.71484-.72266l-4.19531 5.64063m4.19531-5.64063l2.42578.3711m11.61328.35937l-5.64453 4.17969m5.64453-4.17969l2.21875 1.05469m10.72657-1.48047l-4.90235 5.03125m4.1875-4.30078l1.17969.34375m13.02344-.89453l-5.25 4.67187m4.48437-3.99219l1.15235.42579m13.7539.5703l-6.90234 1.32032m5.89844-1.1289l.76953.95702m13.60156-.75l-7.00781.52344m5.98828-.44531l.65625 1.03516m13.60547-1.61329l-6.85938 1.52344m5.85938-1.30078l.80078.92969m13.3086-1.78516l-6.44923 2.78906m6.44922-2.78906l1.91797 1.52735m11.57813-1l-6.8086 1.73437m5.8164-1.48047l.82813.90625m13.53125-.91406l-6.91406 1.24219m6.91406-1.24219l1.51563 1.92969m11.83984-1.64844l-6.9961.67969m6.9961-.67969l1.35547 2.04297m11.76172-2.90625l-6.60156 2.40625m6.60156-2.40625l1.82422 1.64062m-2.78516-1.28906l.91407.82031m13.16406-1.61718l-6.20703 3.29687m6.20703-3.29687l2.03515 1.375m-2.9375-.89454l1.01563.6875m13.42187-.66015l-6.64453 2.28125m6.64453-2.28125l1.79297 1.67578M399.34375 373l.89453.83984m12.98047-1.98828l-5.83594 3.91016m5.83594-3.91016l2.16406 1.16016m-3.01172-.58985l1.08204.57813m13.1914-.97266l-6.05469 3.5625m6.0547-3.5625l2.08984 1.28125m-2.97266-.76562l1.04687.64453m13.08985-1.25781l-5.9336 3.75781m5.9336-3.75781l2.13281 1.21094m-2.9961-.66407l1.06641.60547m13.28516-.85156l-6.27734 3.15625m6.27734-3.15625l2 1.41797m11.40234-1.22656l-6.45703 2.77343"/><g clip-path="url(#ag)"><path fill="none" stroke="#000" stroke-linecap="round" stroke-linejoin="round" stroke-miterlimit="10" stroke-width=".5" d="M466.78906 372.42188l1.91406 1.53906"/></g><g clip-path="url(#ah)"><path fill="none" stroke="#000" stroke-linecap="round" stroke-linejoin="round" stroke-miterlimit="10" stroke-width=".5" d="M147.50781 360.28125l-7.01562.42188"/></g><path fill="none" stroke="#000" stroke-linecap="round" stroke-linejoin="round" stroke-miterlimit="10" stroke-width=".5" d="M147.50781 360.28125l1.28125 2.09375m-2.30078-2.03125l.63672 1.04688m13.69922-1.08594l-7.01563.3789m7.01563-.3789l1.26562 2.09765m-2.28906-2.04296l.63672 1.05078m13.47656-2.16407l-6.5664 2.4961m6.5664-2.4961l1.84766 1.61329m11.30078-1.98438l-6.23828 3.23438m6.23828-3.23438l2.02344 1.39453m10.625-2.29297l-4.90235 5.03516m4.1875-4.30469l1.1797.34375m12.78124-1.14062l-4.76172 5.16796m4.0664-4.41796l1.1875.3125m11.9922-1.63282l-3.10157 6.3047m2.65235-5.38673l1.22656-.03906m12.41406-.9375l-2.85547 6.42188m2.44141-5.48829l1.22266-.08593m13.14062-.48047l-4.1211 5.6914m3.51954-4.86328l1.21484.16797m12.76563-.94922l-4.25 5.59766m3.63281-4.78516l1.21094.19922m12.90234-.86328l-4.61328 5.30078m3.9414-4.53125l1.19532.27735m13.86328.63671l-6.75781 1.9297m5.77344-1.64845l.85156.88282m13.57422.04296l-7.00782-.48437m7.00782.48438l1 2.24218m12.3125-2.19922l-7.00391-.5703m5.98438.48827l.48828 1.125m13.85937-1.36719l-7.02734.07813m7.02734-.07813l1.17578 2.15625m12.07813-2.76953l-6.90625 1.3086m6.90625-1.3086l1.53515 1.91407m11.83985-1.31641l-7.02735.10938m7.02735-.10938l1.1836 2.14844m-2.20704-2.13281l.59375 1.07421m13.74219-1.16796l-7.02344.26953m7.02344-.26954l1.23437 2.1211m-2.25781-2.08203l.61719 1.0586m13.47656-2.26173l-6.53125 2.59766m6.53125-2.59766l1.8711 1.58594m-2.82423-1.21094l.9375.79688m13.28907-1.26953l-6.44922 2.78906m6.44922-2.78906l1.91797 1.53125m-2.85547-1.125l.95703.76562m13.39453-.91015l-6.64844 2.26953m6.64844-2.26954l1.79297 1.67579m-2.75781-1.34766l.89453.83984m13.44922-.97265l-6.77344 1.8789m6.77344-1.8789l1.6875 1.78125m-2.67579-1.50781l.84766.89062m13.36328-1.4414l-6.59375 2.42968m6.59375-2.42969l1.83203 1.63672m-2.78906-1.28125l.91406.8164m13.25-1.4375l-6.37109 2.96485m6.3711-2.96484l1.95702 1.47656m11.3125-1.5664l-6.28515 3.14062"/><g clip-path="url(#ai)"><path fill="none" stroke="#000" stroke-linecap="round" stroke-linejoin="round" stroke-miterlimit="10" stroke-width=".5" d="M466.70313 358.92188l2 1.42187"/></g><path fill="none" stroke="#000" stroke-linecap="round" stroke-linejoin="round" stroke-miterlimit="10" stroke-width=".5" d="M465.78906 359.3789l1 .71094"/><g clip-path="url(#aj)"><path fill="none" stroke="#000" stroke-linecap="round" stroke-linejoin="round" stroke-miterlimit="10" stroke-width=".5" d="M146.5 344.71094l-5 4.9336"/></g><path fill="none" stroke="#000" stroke-linecap="round" stroke-linejoin="round" stroke-miterlimit="10" stroke-width=".5" d="M146.5 344.71094l2.34375.73437m10.53906-1.10937l-4.13672 5.6836m4.13672-5.6836l2.42969.34765m11.42578.14063l-5.21875 4.70703m5.21875-4.70703l2.3086.83594m10.71484-1.1211l-4.63281 5.28125m4.6328-5.28125l2.39063.5625m8.6875-1.4375l-.16015 7.02735m.13672-6.00391l1.09765-.55078m13.1836 3.04297l-.01953-.19922-.0586-.19531-.09375-.17579-.46094-.375-.1914-.05859-.19922-.01953-.19922.01953-.1914.0586-.45704.375-.09765.17578-.0547.1953-.01952.19923.01953.19922.05469.1914.09765.17578.45703.375.19141.0586.19922.01953.19922-.01953.1914-.0586.46094-.375.09375-.17578.0586-.1914.01953-.19922m15.69922.85156l-6.81641-1.70703m5.82812 1.46094l.29297 1.1875m13.97266-2.79688l-6.73828 2.0039m5.75781-1.71093l.85938.875m13.53125-.75l-6.9297 1.16797m6.9297-1.16797l1.49609 1.94531m11.85156-1.71484l-6.99219.70703m5.97266-.60547l.6836 1.01953m13.61327-1.38672l-6.91796 1.23829m5.91015-1.0586l.75782.96485m13.59375-.96875l-6.97266.88671m5.95703-.7578l.70703 1.0039m13.64453-.88672l-7.01562.39453m7.01562-.39453l1.26953 2.09765m12.04688-1.7539l-7.01953-.28906m7.01953.28906l1.0625 2.21094m12.22656-1.90625l-6.96875-.90235m6.96875.90235l.86719 2.29296m12.44922-2.30468l-6.97266-.8789m6.97266.8789l.875 2.29297m12.46875-2.70313l-7.02735-.0586m7.02735.0586l1.13281 2.17578m12.17969-2.08203l-7.02344-.2461m7.02344.2461l1.07422 2.20703m-2.09375-2.24219l.53515 1.10157m13.73047-1.89063l-6.88672 1.40235m6.88672-1.40235l1.5625 1.89453m-2.5625-1.6914l1.5586 1.89453m12.59375-2.66406l-6.5586 2.53515m6.5586-2.53515l1.85156 1.60546m-2.8086-1.23437l.9297.80078m13.375-1.07422l-6.625 2.33985m6.625-2.33985l1.80859 1.66016m-2.76954-1.32031l.90235.83203m13.35937-1.21875l-6.59375 2.4336m6.59375-2.4336l1.82813 1.63672m-2.78906-1.28125l1.83203 1.6328m12.25-2.41796l-6.20703 3.29297m6.20703-3.29297l2.03515 1.375m-2.9375-.89453l1.01563.6875m13.16406-1.23438l-6.13281 3.42579m6.13281-3.42579l2.0625 1.32813m-2.95312-.82813l1.03125.66407m13.47265-.46875l-6.72656 2.03906"/><g clip-path="url(#ak)"><path fill="none" stroke="#000" stroke-linecap="round" stroke-linejoin="round" stroke-miterlimit="10" stroke-width=".5" d="M466.92578 346.16016l1.73047 1.73828"/></g><path fill="none" stroke="#000" stroke-linecap="round" stroke-linejoin="round" stroke-miterlimit="10" stroke-width=".5" d="M465.94531 346.45703l.86719.86719"/><g clip-path="url(#al)"><path fill="none" stroke="#000" stroke-linecap="round" stroke-linejoin="round" stroke-miterlimit="10" stroke-width=".5" d="M145.49219 330.6836l-2.98438 6.35937"/></g><path fill="none" stroke="#000" stroke-linecap="round" stroke-linejoin="round" stroke-miterlimit="10" stroke-width=".5" d="M145.49219 330.6836l2.44922-.125m10.72265.05859l-2.69922 6.48828m2.69922-6.48828l2.4414-.23047m12.84376 2.32812l-6.64063 2.29688m6.64063-2.29688l1.79687 1.67188m11.13282-2.45703l-5.8672 3.86719m5.01173-3.3047l1.07812.58594m13.54297-.16015l-6.76953 1.89062m6.76953-1.89062l1.6914 1.77734m11.71485-1.35156l-6.94922 1.03906m6.94922-1.03906l1.45703 1.97266m-2.46875-1.82032l.73047.98438m13.51953-1.50781l-6.79687 1.78125m6.79687-1.78125l1.66406 1.80078m-2.65234-1.54297l.83203.90234m13.53125-.8789l-6.91797 1.21875m6.91797-1.21875l1.51172 1.93359m11.77344-2.08984l-6.85938 1.53125m6.85938-1.53125l1.59766 1.86718m11.80078-1.0664l-7.02735-.07031m7.02735.0703l1.1289 2.1797m12.09766-3.00782l-6.84766 1.58594m6.84766-1.58594l1.60937 1.85156m11.77735-1.43359l-6.98828.75m6.98828-.75l1.375 2.03516m11.95703-1.66016h-7.02734m7.02734 0l1.15234 2.16797m12.11719-1.59375l-6.9336-1.14844m5.92579.98047l.39062 1.16406m13.83203-.55859l-6.73046-2.02344m6.73046 2.02344l.47657 2.40625m12.90234-2.65625l-6.85937-1.52344m6.85937 1.52344l.65234 2.36328m12.7461-3.15625l-7.02735.0586m7.02735-.0586l1.16797 2.16016m12.14453-2.23828l-7.02344.21875m7.02344-.21875l1.21875 2.1289m12.09375-2.21094l-7.01563.38282m7.01563-.38281l1.26953 2.10156m12.02734-2.30469l-6.98047.78906m6.98047-.78906l1.38672 2.02344m11.90235-2.22656l-6.92579 1.1914m6.92579-1.1914l1.5 1.9414m-2.50782-1.76562l.75.96875m13.46875-1.58204l-6.71875 2.06641m6.71875-2.0664l1.73438 1.73437m-2.71485-1.4336l.8711.8672m12.90625-2.19532l-5.6875 4.125m5.6875-4.125l2.20703 1.07422m-3.03125-.47656l1.10156.53906m13.26172-.78906l-6.13281 3.42969m6.13281-3.4297l2.0625 1.32813m-2.95312-.82812l2.0625 1.32812m12.41796-1.19922l-6.68359 2.17188"/><g clip-path="url(#am)"><path fill="none" stroke="#000" stroke-linecap="round" stroke-linejoin="round" stroke-miterlimit="10" stroke-width=".5" d="M466.90234 332.77734l1.76563 1.70704"/></g><path fill="none" stroke="#000" stroke-linecap="round" stroke-linejoin="round" stroke-miterlimit="10" stroke-width=".5" d="M465.92969 333.09375l1.76562 1.70313"/><g clip-path="url(#an)"><path fill="none" stroke="#000" stroke-linecap="round" stroke-linejoin="round" stroke-miterlimit="10" stroke-width=".5" d="M146.10938 317.73828l-4.21875 5.6211"/></g><path fill="none" stroke="#000" stroke-linecap="round" stroke-linejoin="round" stroke-miterlimit="10" stroke-width=".5" d="M146.10938 317.73828l2.42187.3789m11.73438.51954l-5.89844 3.82031m5.89844-3.82031l2.14453 1.1914m-3.00391-.63671l1.07031.59765m13.53906-.17969l-6.77343 1.875m6.77344-1.875l1.6875 1.78125m-2.67188-1.5078l1.6875 1.78124m12.55078-2.2539l-6.64844 2.27734m6.64844-2.27734l1.79297 1.67578m-2.76172-1.34766l.89844.83985m13.5664-.27344l-7.01171.48828m7.01172-.48828l1.30078 2.08203m-2.32032-2.01172l.64844 1.04297m13.69531-.8164l-7.02734-.10548m7.02734.10547l1.1172 2.1836m-2.14063-2.19922l.55859 1.09375m13.72656-1.73828l-6.92187 1.21484m6.92187-1.21484l1.50781 1.93359m-2.51562-1.75781l.7539.96875m13.46094-1.59375l-6.70312 2.10937m6.70312-2.10937l1.7461 1.72265m-2.72266-1.41406l.875.85938m13.3711-1.29297l-6.6172 2.36328m6.6172-2.36328l1.8164 1.65234m11.63672-1.15625l-6.89063 1.3711m6.89063-1.3711l1.55469 1.89844m11.8125-.90235l-6.9961-.625m5.98047.53516l.47656 1.1289m13.56641-2.77343l-6.42187 2.84766m5.48828-2.4336l.96484.7539m13.58203.46485l-7.01562-.42187m5.99218.36328l.51172 1.11328m13.83203-1.15234l-7.02343-.22266m6 .1875l.54297 1.10156m13.77343-.78906l-6.98437-.78125m5.96875.66797l.45312 1.14062m13.8047-.60546l-6.83595-1.625m5.83985 1.39062l.3125 1.1875m14.02734-1.08984l-6.89453-1.35157m5.89062 1.15625l.35938 1.17188m12.30078 1.375l-3.57422-6.05078m18.46094 1.99219l-6.71875 2.0664m5.73828-1.76562l.8711.86328m13.5703-.34375l-7.01171.42187m5.99219-.35937l.64062 1.04687m12.5664 1.6875l-4.7578-5.16797m4.0664 4.41407l-.40625 1.16015m14.6211-.61328l-5.17188-4.7539m4.41797 4.0625l-.3086 1.1875m14.73829-4.78907l-5.89454 3.82813m5.03516-3.26953l1.07422.59375m13.04687-1.23047l-5.78906 3.98828m5.78906-3.98828l2.17579 1.1289m11.10156-1.17968l-5.71485 4.08984"/><g clip-path="url(#ao)"><path fill="none" stroke="#000" stroke-linecap="round" stroke-linejoin="round" stroke-miterlimit="10" stroke-width=".5" d="M466.41797 318.5039l2.19922 1.08985"/></g><g clip-path="url(#ap)"><path fill="none" stroke="#000" stroke-linecap="round" stroke-linejoin="round" stroke-miterlimit="10" stroke-width=".5" d="M465.58594 319.09766l2.19922 1.08984"/></g><path fill="#00f" fill-rule="evenodd" d="M188.51172 476.52344h8.6211V466.3789h-8.6211v10.14453"/><path fill="azure" fill-rule="evenodd" d="M190.34375 468.21094h.83594v2.82422h3.28515v-2.82422h.83203v6.48047h-.83203v-2.91407h-3.28515v2.91407h-.83594v-6.48047"/><path fill="#00f" fill-rule="evenodd" d="M388.23828 467.64844h8.61719V457.5039h-8.61719v10.14453"/><path fill="azure" fill-rule="evenodd" d="M390.07031 459.33594h.83594v2.82422h3.28516v-2.82422h.83203v6.48047h-.83203v-2.91797h-3.28516v2.91797h-.83594v-6.48047"/><path fill="#00f" fill-rule="evenodd" d="M383.80078 436.57813h8.61719v-10.14454h-8.61719v10.14454"/><path fill="azure" fill-rule="evenodd" d="M385.63281 428.26563h.83203v2.82421h3.28907v-2.82421h.83203v6.48046h-.83203v-2.91406h-3.28907v2.91406h-.83203v-6.48046"/><path fill="#ff3030" fill-rule="evenodd" d="M380.05469 418.82813H387.75v-10.14844h-7.69531v10.14844"/><path fill="azure" fill-rule="evenodd" d="M381.89063 410.51172h.83203v5.74219h3.1953v.73828h-4.02733v-6.48047"/><path fill="#ff3030" fill-rule="evenodd" d="M295.72656 409.94922h7.69531v-10.14453h-7.6953v10.14453"/><path fill="azure" fill-rule="evenodd" d="M297.5586 401.63672h.83593v5.73828h3.1914v.74219h-4.02734v-6.48047"/><path fill="#ff3030" fill-rule="evenodd" d="M184.76953 387.75781h7.6914v-10.14453h-7.6914v10.14453"/><path fill="azure" fill-rule="evenodd" d="M186.60156 379.44531h.83203v5.73828h3.19532v.7422h-4.02735v-6.48048"/><path fill="#ffffe0" fill-rule="evenodd" d="M330.75 374.67578h22.17969v-10.19531H330.75v10.19531"/><path fill-rule="evenodd" d="M334.25 366.3164h.50781v6.29298h-.78515v-4.48829h-1.39063v-.55468l.5586-.06641.2539-.05469.23047-.08984.20313-.14063.17187-.21093.14453-.29297.10547-.39453m4.8125 0l.23047.01953.21875.05469.20703.08984.19531.1211.1836.14843.17187.17578.30469.41797.24219.4961.17968.54687.10938.57812.03906.58985-.03906.59375-.10938.58594-.17968.55078-.2422.5039-.30468.42578-.17187.1797-.1836.15624-.19531.1211-.20703.09375-.21875.05468-.23047.01953-.23047-.01953-.21875-.05469-.20703-.09375-.19531-.12109-.1836-.15625-.17187-.17969-.30469-.42578-.24219-.5039-.17968-.55079-.10938-.58593-.03906-.59375h.83203l.03125.5625.07813.50781.1289.4414.16016.375.1914.30079.21094.22265.22266.13672.22656.04688.22656-.04688.22266-.13672.21094-.22265.1914-.30078.16016-.375.1289-.44141.08204-.50781.02734-.5625-.02734-.5625-.08204-.5-.1289-.4336-.16016-.36718-.1914-.29297-.21094-.21094-.22266-.13281-.22656-.04688-.22656.04688-.22266.13281-.21094.21094-.1914.29297-.16016.36718-.1289.4336-.07813.5-.03125.5625h-.83203l.03906-.58985.10938-.57812.17968-.54688.2422-.49609.30468-.41797.17187-.17578.1836-.14844.19531-.1211.20703-.08983.21875-.0547.23047-.01952m5.08984 0h.51172v6.29296h-.78906v-4.48828h-1.38672v-.55468l.5586-.06641.2539-.05469.22656-.08984.20704-.14063.17187-.21093.14063-.29297.10546-.39453m2.82422 2.17578h.78906l.01954-.3164.05859-.28907.09766-.25.14062-.21485.1836-.17578.22265-.1289.26563-.08203.30468-.02735.23829.02344.22656.0625.20312.10156.17969.13672.14844.17578.11328.20313.07031.23828.02735.26172-.02344.26953-.0664.22656-.10938.1914-.15625.17188-.19922.16016-.2461.16797-.63671.38672-.53516.3125-.4375.3203-.34766.32423-.26562.33594-.1875.34765-.125.3711-.07031.39453-.01954.41796h4.21094v-.73828h-3.33203l.08203-.28515.11328-.23828.14844-.19922.1875-.1836.23047-.16796.27734-.17579.71875-.41796.41406-.20704.34766-.23046.28125-.25.21875-.26563.16406-.28125.10938-.28125.0664-.28516.01954-.28125-.04297-.3828-.1211-.34767-.1875-.30859-.25-.26172-.30468-.21484-.34375-.15625-.37891-.10156-.41016-.03125-.43359.03125-.39844.09765-.35547.16797-.30468.23438-.2461.30468-.1875.375-.11328.44532-.04297.51953"/><path fill="#ffffe0" fill-rule="evenodd" d="M221.91016 369.69531h22.17968V359.5h-22.17968v10.19531"/><path fill-rule="evenodd" d="M225.40625 361.33594h.51172v6.29297h-.78906v-4.48829h-1.38672v-.55859l.5586-.0625.2539-.05469.22656-.08984.20313-.14063.17578-.21093.14062-.29297.10547-.39453m4.8164 0l.22657.01562.21875.0586.21094.08984.1953.1211.1836.14843.17188.17578.30078.41797.2461.4961.17968.54296.10938.58204.03906.58984-.03906.59375-.10938.58203-.17969.55469-.2461.5039-.30077.42579-.17188.17968-.1836.15625-.1953.1211-.21094.09375-.21875.05468-.22656.01954-.23047-.01954-.21875-.05468-.20703-.09375-.19922-.1211-.1836-.15625-.17187-.17969-.30078-.42578-.24219-.5039-.17969-.55469-.11328-.58203-.03906-.59375h.83594l.02734.5625.08203.50781.125.4414.16406.375.19141.30079.21094.22265.22265.13672.22657.04688.22656-.04688.22266-.13671.21093-.22266.1875-.30078.16406-.375.125-.4414.08204-.50782.03125-.5625-.03125-.5625-.08203-.5-.125-.4336-.16407-.36718-.1875-.29297-.21094-.21485-.22265-.1289-.22656-.04688-.22657.04688-.22265.1289-.21094.21485-.1914.29297-.16407.36719-.125.43359-.08203.5-.02734.5625h-.83594l.03906-.58985.11328-.58203.17969-.54296.24219-.4961.30078-.41797.17187-.17578.1836-.14844.19922-.12109.20703-.08984.21875-.0586.23047-.01562m5.08984 0h.50781v6.29297h-.78515v-4.48829h-1.38672v-.55859l.5586-.0625.25-.05469.23046-.08984.20313-.14063.17578-.21093.14062-.29297.10547-.39453m2.82422 2.17187h.78516l.01953-.3125.0625-.28906.09765-.25.14063-.21875.17969-.17188.22265-.1289.26563-.08203.30859-.02735.23828.02344.22266.0625.20312.10156.17969.13672.14844.17578.11328.20313.07422.23828.02344.26172-.01954.26953-.0664.22656-.10938.1914-.15625.17188-.20312.16016-.2461.16797-.6328.38672-.53907.3125-.4375.32031-.34375.32422-.26563.33594-.1914.34765-.125.3711-.0664.39453-.02345.41797h4.21485v-.7422H238.875l.08594-.28124.11328-.23828.14844-.19922.1875-.1836.23047-.16796.27734-.17579.71875-.41796.41406-.20704.34766-.23046.27734-.25.22266-.26563.16015-.28125.11328-.28125.0625-.28515.01954-.28125-.03907-.38282-.12109-.34765-.1914-.3086-.25-.26562-.30079-.21094-.34375-.16016-.38281-.09765-.40625-.03125-.4336.03125-.39843.09765-.35547.16797-.30469.23438-.25.30469-.1836.375-.11718.4453-.03906.51563"/><path fill="#ffffe0" fill-rule="evenodd" d="M315.11328 335.75h22.17969v-10.1914h-22.17969V335.75"/><path fill-rule="evenodd" d="M318.61328 327.39063h.50781v6.29687h-.78515v-4.49219h-1.39063v-.55469l.5625-.0664.25-.05078.23047-.08985.20313-.14062.17578-.21094.14062-.29687.10547-.39454m4.8125 0l.23047.01954.21875.05468.20703.08985.19922.1211.1836.14843.17187.17578.30078.42188.24219.49218.17969.54688.11328.57812.03515.59375-.03515.58985-.11329.58593-.17968.5547-.24219.5-.30078.42968-.17188.17969-.18359.15234-.19922.125-.20703.08984-.21875.0586-.23047.01953-.22656-.01953-.21875-.0586-.21094-.08984-.19531-.125-.1836-.15234-.17187-.1797-.30078-.42968-.2461-.5-.17968-.55469-.10938-.58593-.03906-.58985h.83203l.03125.5625.08203.5039.125.44532.16406.3711.1875.30078.21094.22265.22266.13672.22656.04688.22656-.04688.22266-.13672.21094-.22265.1914-.30079.16407-.37109.125-.44531.08203-.5039.02734-.5625-.02734-.5625-.08203-.5-.125-.4375-.16407-.36329-.1914-.29297-.21094-.21484-.22266-.13281-.22656-.04297-.22656.04297-.22266.1328-.21094.21485-.1875.29297-.16406.36328-.125.4375-.08203.5-.03125.5625h-.83203l.03906-.59375.10938-.57812.17969-.54688.24609-.49219.30078-.42187.17188-.17578.18359-.14844.19531-.1211.21094-.08984.21875-.05468.22656-.01954m5.09375 0h.50781v6.29688h-.78515v-4.49219h-1.39063v-.55469l.5586-.0664.2539-.05078.23047-.08985.20313-.14062.17187-.21094.14453-.29687.10547-.39454m6.80469 1.6211h-.78906l-.05079-.21485-.08203-.18359-.10937-.16015-.1289-.12891-.14454-.10547-.16015-.07422-.16797-.04297-.17579-.01562-.32421.03906-.28907.1211-.24609.1953-.20313.26954-.16015.33594-.11719.40625-.07031.46484-.02344.52734.1875-.20312.1875-.16016.1875-.1211.1836-.08593.1875-.0625.1914-.03516.40235-.02734.30859.03125.32031.09375.3164.15625.29298.21875.2539.28516.19922.34765.07422.20313.05078.21484.03125.23438.0039.2539-.78515.04688-.02734-.26172-.07813-.25-.1211-.23438-.16405-.21093-.19141-.17579-.21875-.13671-.24219-.08985-.2539-.03125-.25391.03125-.24219.08985-.21875.13671-.19531.17579-.16016.21093-.12109.23438-.07813.25-.02734.26172.02735.25781.07812.25.1211.23438.16015.21093.19531.17969.21875.13672.24219.08594.2539.03125.25391-.03125.24219-.08594.21875-.13672.1914-.17969.16407-.21094.1211-.23437.07812-.25.02734-.25781.78516-.04688-.03125.3711-.09375.37109-.15625.35938-.22266.32812-.28906.28125-.17188.1211-.1875.10156-.20703.08203-.22265.0625-.2422.03515-.2578.01563-.28516-.01563-.25781-.04687-.23828-.07813-.21485-.10546-.19531-.12891-.17578-.15625-.15235-.17969-.13671-.20312-.1172-.22266-.09765-.24219-.14844-.53515-.08203-.59375-.02734-.64063.03906-.74219.11328-.66406.1875-.57812.1172-.25391.13671-.23047.15625-.20703.16797-.1836.1875-.15624.20312-.12891.21485-.10156.23437-.07422.2461-.04297.26171-.01563.3672.03516.33202.09375.29688.15235.2539.19921.21485.2422.16406.27343.11719.30078.0625.32422"/></g></defs><use xlink:href="#aq"/></svg>