<svg xmlns="http://www.w3.org/2000/svg" role="img" xmlns:xlink="http://www.w3.org/1999/xlink" viewBox="142.45 309.95 326.84 171.84"><defs><clipPath id="a"><path d="M144 404h1v76.32813h-1zm0 0"/></clipPath><clipPath id="b"><path d="M144 311.67188h1V325h-1zm0 0"/></clipPath><clipPath id="c"><path d="M144 311.67188h324v168.65625H144zm0 0"/></clipPath><clipPath id="d"><path d="M373 451h28v29.32813h-28zm0 0"/></clipPath><clipPath id="e"><path d="M384 476h14v4.32813h-14zm0 0"/></clipPath><clipPath id="f"><path d="M386 478h8v2.32813h-8zm0 0"/></clipPath><clipPath id="g"><path d="M387 480h2v.32813h-2zm0 0"/></clipPath><clipPath id="h"><path d="M467 311.67188h1v168.65625h-1zm0 0"/></clipPath><clipPath id="i"><path d="M144 479h4v1.32813h-4zm0 0"/></clipPath><clipPath id="j"><path d="M147 479h3v1.32813h-3zm0 0"/></clipPath><clipPath id="k"><path d="M146 479h3v1.32813h-3zm0 0"/></clipPath><clipPath id="l"><path d="M153 478h8v2.32813h-8zm0 0"/></clipPath><clipPath id="m"><path d="M160 478h3v2.32813h-3zm0 0"/></clipPath><clipPath id="n"><path d="M159 479h3v1.32813h-3zm0 0"/></clipPath><clipPath id="o"><path d="M167 478h8v2.32813h-8zm0 0"/></clipPath><clipPath id="p"><path d="M173 478h3v2.32813h-3zm0 0"/></clipPath><clipPath id="q"><path d="M172 479h4v1.32813h-4zm0 0"/></clipPath><clipPath id="r"><path d="M180 479h8v1.32813h-8zm0 0"/></clipPath><clipPath id="s"><path d="M187 479h3v1.32813h-3zm0 0"/></clipPath><clipPath id="t"><path d="M186 479h3v1.32813h-3zm0 0"/></clipPath><clipPath id="u"><path d="M193 478h8v2.32813h-8zm0 0"/></clipPath><clipPath id="v"><path d="M200 478h3v2.32813h-3zm0 0"/></clipPath><clipPath id="w"><path d="M199 479h3v1.32813h-3zm0 0"/></clipPath><clipPath id="x"><path d="M206 478h9v2.32813h-9zm0 0"/></clipPath><clipPath id="y"><path d="M213 478h3v2.32813h-3zm0 0"/></clipPath><clipPath id="z"><path d="M212 479h3v1.32813h-3zm0 0"/></clipPath><clipPath id="A"><path d="M220 478h8v2.32813h-8zm0 0"/></clipPath><clipPath id="B"><path d="M226 478h4v2.32813h-4zm0 0"/></clipPath><clipPath id="C"><path d="M225 479h3v1.32813h-3zm0 0"/></clipPath><clipPath id="D"><path d="M233 478h8v2.32813h-8zm0 0"/></clipPath><clipPath id="E"><path d="M240 478h3v2.32813h-3zm0 0"/></clipPath><clipPath id="F"><path d="M239 478h2v2.32813h-2zm0 0"/></clipPath><clipPath id="G"><path d="M247 478h7v2.32813h-7zm0 0"/></clipPath><clipPath id="H"><path d="M253 478h3v2.32813h-3zm0 0"/></clipPath><clipPath id="I"><path d="M260 477h7v3.32813h-7zm0 0"/></clipPath><clipPath id="J"><path d="M274 477h6v3.32813h-6zm0 0"/></clipPath><clipPath id="K"><path d="M287 477h7v3.32813h-7zm0 0"/></clipPath><clipPath id="L"><path d="M301 477h6v3.32813h-6zm0 0"/></clipPath><clipPath id="M"><path d="M314 477h6v3.32813h-6zm0 0"/></clipPath><clipPath id="N"><path d="M328 477h5v3.32813h-5zm0 0"/></clipPath><clipPath id="O"><path d="M342 476h4v4.32813h-4zm0 0"/></clipPath><clipPath id="P"><path d="M355 476h4v4.32813h-4zm0 0"/></clipPath><clipPath id="Q"><path d="M367 478h7v2.32813h-7zm0 0"/></clipPath><clipPath id="R"><path d="M379 479h9v1.32813h-9zm0 0"/></clipPath><clipPath id="S"><path d="M395 476h4v4.32813h-4zm0 0"/></clipPath><clipPath id="T"><path d="M406 479h9v1.32813h-9zm0 0"/></clipPath><clipPath id="U"><path d="M419 479h9v1.32813h-9zm0 0"/></clipPath><clipPath id="V"><path d="M433 478h8v2.32813h-8zm0 0"/></clipPath><clipPath id="W"><path d="M438 479h3v1.32813h-3zm0 0"/></clipPath><clipPath id="X"><path d="M447 477h7v3.32813h-7zm0 0"/></clipPath><clipPath id="Y"><path d="M459 479h9v1.32813h-9zm0 0"/></clipPath><clipPath id="Z"><path d="M465 479h2v1.32813h-2zm0 0"/></clipPath><clipPath id="aa"><path d="M144 465h4v4h-4zm0 0"/></clipPath><clipPath id="ab"><path d="M144 452h4v3h-4zm0 0"/></clipPath><clipPath id="ac"><path d="M144 439h4v3h-4zm0 0"/></clipPath><clipPath id="ad"><path d="M144 425h4v4h-4zm0 0"/></clipPath><clipPath id="ae"><path d="M144 412h4v3h-4zm0 0"/></clipPath><clipPath id="af"><path d="M144 399h4v3h-4zm0 0"/></clipPath><clipPath id="ag"><path d="M465 397h3v2h-3zm0 0"/></clipPath><clipPath id="ah"><path d="M144 386h4v2h-4zm0 0"/></clipPath><clipPath id="ai"><path d="M144 371h3v6h-3zm0 0"/></clipPath><clipPath id="aj"><path d="M144 357h2v7h-2zm0 0"/></clipPath><clipPath id="ak"><path d="M144 343h2v8h-2zm0 0"/></clipPath><clipPath id="al"><path d="M144 350h2v3h-2zm0 0"/></clipPath><clipPath id="am"><path d="M466 345h2v3h-2zm0 0"/></clipPath><clipPath id="an"><path d="M144 330h1v8h-1zm0 0"/></clipPath><clipPath id="ao"><path d="M144 337h1v3h-1zm0 0"/></clipPath><clipPath id="ap"><path d="M466 331h2v3h-2zm0 0"/></clipPath><clipPath id="aq"><path d="M465 332h3v3h-3zm0 0"/></clipPath><clipPath id="ar"><path d="M144 316h1v9h-1zm0 0"/></clipPath><clipPath id="as"><path d="M144 323h1v3h-1zm0 0"/></clipPath><clipPath id="at"><path d="M144 322h1v2h-1zm0 0"/></clipPath><clipPath id="au"><path d="M465 317h3v2h-3zm0 0"/></clipPath><g id="av" clip-path="url(#clip1)"><path fill="#fff" fill-opacity="0" fill-rule="evenodd" d="M0 0h1000v1000H0zm0 0"/><path fill="#d3d3d3" fill-opacity="0" fill-rule="evenodd" d="M162.15234 355.86719l-.23437.29297.0586.23437.11718.17188.17578.23437.29297.34766.11328.0586.11719-.17188.0586-.23438.17577-.17578.46485-.17578h.69922l.23437.29297.28906.8164.0586.17579.17578.23046.35156.23438.69922.69922.17188.17578.23437.34765.23438.41016.28906.58203.41015.46485.23047.23437.23438.17578.11719.23047.17578.29297.17187 1.16406v.23438l.0586.28906.05859.11719.11719.11719.34765.41015.11719.17188.17578.17578.17578.23437.11719.17188.17188.35156.05859.23438.23437.40625.23438-.0586-.17578.17578-.0586.92969h-.58203l-.23437-.11328-.34766.11328-.11719.11719-.05859.29297-.0586.17578-.11718.17187-.46484.29297-.0586.23438-.0586.11328v.64453l.0586.17187v.41016l.0586.0586v.40624l.05859.40625.11719.17579.05859.05859.23047.64062-.0586.29297v.69922l-.05859.58203v.23438l-.0586.23047-.05468.35156v1.92187l.05469.1172h.42578l-.36719.11718-.02344.35156.89063 1.16797 1.74219.53906 1.33984.35938v.53906l.08984.8086.53516.71484 1.51953.26953.89063-.08594.08984 1.16406.53516.1797 1.16015-.1797 2.05469-.98437 1.16016-.36328 1.8789-.17578 1.69531-.1797-.17968.71876-1.51563.08594-1.25.08984-.80469.26953-1.07421.8086.26953.71875.53515.89843-.17968.625-.26563.8086.26563 1.07812.625.89844.80468.17969 1.25-.1797-.26562.72267.09766.5039.05468.29297v.17188l.0586.29296v.40625l.17578.1172.35156.11718h.40625l.29297-.17578.11328-.11719.0586-.11719.11718-.23047.0586-.17578.35156-.46484.23047-.17578.17578-.0586.17578.0586.0586.17578.11718.98828.05469.46875.0586.17188.11718.23437.17578.0586.8164.05859h.28907l.11719.23437.05859.40625.0586.35156v1.10547l.11718.29297.11719.34766.28906.69922.17578.35156.58203.7539.35157.17579.17187.0586.46875.23437.64063.46484.34765.23438.29297.17578.29297.05468.23047.0625.8164.34766.29297.17578.11328.17188.35157.35156.11719.17578.52343.64063v.28906l.0586.35156v.34766l.05859.35156.0586.28906.11718.0586.17188.05859h.17578l.58203.23437.17578.1172.17578.28905.17578.23438.11328.23437.29297.23047.11719.11719v.41016l.0586.05468.28906.23438.23437.11719.0586.11718.11718.17188.0586.11719.23047.23437.05859.17578.23437.0586.1172.05859-.1172.11328-.05859.11719v.11719l-.11719.29296-.11719.28907v.58203l.17579.11719.11718.05859.0586.11719.11719.11719.11328.05859.17578.34765.0586.35157.05858.40625v.17578l-.05859.17578-.11719.69922v.17187l.1172.17579.29296.29296h.40625l.17578.1172.11719.17187.11719.29296v.23438h-.52735l-.23047-.23438h-.23437l-.17578.0586-.0586.69922.0586.34765.11719.17579.17578.41015.11718.23047.28907.46875.17578.05469h.52344l.23437.0586.75781.64062.0586.29296v.23438l.05859.0586.23047.34765v.35156l-.11719.17188v.29297l.29297.28906.29297.17578.17187.0586.29297.17577.29297.1172.58203.40624.28906.23438.29297.17578.21875.16015.01563.01172.23047.17579.64062.52343.17578.23438.1172.17578.17577.17578.11328.17188v.64062l.1172.17578.46874.11719.58203.11719.23438.05859.23047.11328.29297.11719.11328.0586.58593.35156.28907.17187.17578.0625.17578.05469.17578.0586.69922.35155.28906.17579.23438.05468.28906.17578.23437.1172.64063.40624.29297.11719.17187.0586.23438.05859.41015.05859.23047.0586.23438.11718.0586.17188-.41017.17578.46875.0586.0586.29296.11328.23438.17578.05468.23438.0586.17578.05859.40625.11719.64062.23437.11719.17188.0586.23437v.17578l-.0586.1172-.0586.40624.23438.23438.11719.05859.34766.11719.64062.23047.17578.11718.28906.1172.17578.17577.23438.46485.58203 1.10546.17578.17579.34766.17578.17578.11719.35156.11718 1.04688.52344.23437.0586.46485.11327.29297.0586.46484.17578.75781.58203.23438.23438.34765.46484.17578.17578.28907.23438.8164.69921.29297.17579.28906.28906.29297.17578.29297.28906.69531.64063.17578.17578.29297.23437.28907.23438.46875.28906.64062.58203.34766.23438.23437.29297.34766.34765.35156.46485.9336.99218.34765.40625.11719.17579.23437.05859.11328.11719.64454.17578.23047.11328.23437.0586.29297.17577.23047.1172.9336.69921.40624.40625.23438.17578.40625.17578.23437.11719.8164.34766.34766.23437.23438.11719.29297.28906.23047.11719.7578.35156.35157.17188.23047.05859.29297.11719.23437.0586.8711.17577h.8164l.46875.23047.17188.0586.875.69921.46484.1172.29297.05858.17578.0586.23047.0586.46875.05859.34766.05859.35156.0586.40625.05859h.29297l.17187.0586v.23046l.17578.17578h.29297l.34766.0586.35156.05859.69922.11719h.64063l.46484-.23438.29297-.17578.17187-.11719.41016-.17187.28906-.17578.9336-.46485.46875-.29297.52343-.29296.46485-.17188.46484-.17578 1.05078-.46485.28906-.11718.41016-.11719.28906-.11719.52735-.17578 1.51562-.69922.58203-.34765.28907-.0586.29297-.0586.34765-.11718.875-.23047.35156-.11719h.11329l.23437-.05859.875-.23437.23438-.0586h.8125l.35156-.0586.8164-.11718.17188-.0586.35156-.05468.29297-.0586.23047-.05859.8164-.17578.17579-.0586h.34765l.23438-.05859.46484-.11718.75781-.17188.23438-.0586h.34765l.41016-.11718.28906-.0586 1.28516-.05859h.28906l.41016-.0586.23047-.05858h.17578l.875-.1172h.40625l.41015-.11718h.34766l.35156-.11328.8711-.0586h1.75l1.04687.28907.41016.11719.28906.11718.35156.11719.28907.11719 1.05078.17187.28906.0586h.29297l.29297.05859.17187.0586.41016.05859.17187.0586.1172.05858h.11718l.11719.0586.35156.0586h.11328l.41016.0664 1.92187.39453 1.92578.39453 1.51953.44922 1.69532.71875 2.14453.80469 1.60547-.71875 1.42968-.80469 1.16016-1.07813 1.25-.44921 3.03516-.71875 1.875-.35938 2.14453-1.34765 2.23437-1.25391 2.5-1.25781 1.69531-.44922 1.78516-.17969 1.16016-.26953.625.53906 1.33984-.26953.71485-.98828.98437-1.34375.44531-.17969.80469-.35937 1.875-.53907 1.78516-.44921 1.25-.26954 1.16015-.08984 1.69922-.08984 1.96094-.26954 1.25-.08984h.53906l.625-.08984h.89063l2.14453-.17969 2.41015-.17969 2.58985-.08984 1.69531.17969 1.60938.08984 1.42968.35938 1.16016.71875 1.875.98828 1.16015 1.52734.26563.71484.6289.08985.35548.89844.53515.53906.53516 1.52734 1.07422.35938h.53515l-.80469.53515.08985 1.70703.71484 2.69532.89063.80468.89453.98829.71484 1.2578 1.78516.53907 1.51953-.17969.35547 1.34375 1.60937-.80469.98047-.53906.26953.26953.31641-.21484.21875-.14453.80078.44922.44922-.35938h.35547l.53515-.26953.53907-.71875.53515-.26953.625-.98828 1.16016.44922.83984.3711 1.39454.61718 1.6953-.17969h1.60548l1.78515.08985.17969-1.70704.53516-1.34375.80468.26954.4922.84765.40233.40625-.08984.53906v.35938l.71485.44922.71093-.26953h1.42969l.35938.98828.4453 1.25781.71485 1.34375 1.25.6289 1.69531.62891.71485-.17969.17969-.53906.98046-.08984.44922.35937.08594 1.25782-.26563.6289-.53515.17969v.53906l.71484.98438.26563.53906.98437.98828.80078 1.07813-.26562.35937-.08985.89844-.625 2.33203-.35546 2.0664-.08985 1.79298-.17969.71875-.08984.53906v1.4375l-.98047 1.88281-.35937 1.70703-.53516.89844-.80469 1.16797-.26562.53906 2.05469 1.2539.08593.35938-.35546.53906-.08985-.17968v.80859l.08985 1.4375-.44532.71484-1.07422.09375-.26562.71485.53515.89844.8047.71875 1.16015.80859 1.33984.26953.44531.35938-.35546.44921-1.78907-.08984-1.25-.44922-.71484-.71875-.625-.08984-.17578 3.58984-.1875 1.3086h89.35937V311.70313h-55.26953v49.08203l.76172.125 3.28906.54296 2.02344 2.83594v2.7539l2.35156.33204 2.34766.33203h4.05078l-1.3789 4.16016-2.02344.70703-2.02344.70312-.54297.34375-2.59375 1.6172-.1875.11718-2.02344-2.07813-.73046-2.74218-2.67188-2.07813-1.375-3.5-.0664-.08203-1.95704-2.67188 2.75-1.41796v-49.08204H294.42187v91.41407l.1172.03125.1328.01172.07422.07421.10547.04688.08985.0586.08593.05859.08985.0586.29687.29687.0586.08984.03125.11719.02734.11719.01563.13671-.03125.1172-.0586.08983-.0586.08594-.04296.10547-.04688.10156-.02734.1211v.14453l.17578.26953.14844.14844.07422.08594.07422.07421.04296.10547.0625.08985.0586.08593.04297.10547.0586.08985.04687.10156.04296.10547.0586.08594.11719.17968.07421.07422.0625.08594.0586.08984.04297.10547.0586.08985.05858.08593.0625.08985.0586.08984.04297.10156.11719.17969.07421.07422.0586.08594.07422.07421.08984.0586.10547.04687h.14844l.1328-.01562.13282.01562.10156-.04687.07422-.07422.04688-.10156-.01563-.13281v-.14844l-.04687-.10547-.02735-.11719-.04687-.10156-.02735-.1211-.04296-.10156-.0625-.08984-.04297-.10156-.04297-.10547-.03125-.11719-.01563-.13281-.01171-.13672.08593-.0586.0586-.08593.12109-.03125.04297.10547.01562.1328v.1172l.0586.10156.0586.08984.08983.0586.14844.14843.0586.08985.04296.10547-.01171.10156.08593.0586.10547.04687.08594.0586.08984.05858.07422.07422-.11719.02735-.10546.04687-.08594.0586-.07422.07421-.0586.08985-.0625.08594-.02734.12109-.04687.10156-.04297.10547-.03125.11719-.01172.13281-.01563.13281v.14844l.02735.11719.04687.10547.04297.10156.0586.08984.07421.07422.08985.0586.07422.07421.08984.0586.0586.08984.04296.10547.04688.10156.11719.03125.1328.01563h.14845l.11718-.03125.10547.04297.04297.10547.04688.10156.02734.1211L299.5 410l.02734.11719.03125.1211.02735.11718.10547.04297.10156.04687.13281-.01562.14844.14844.0625.08593.07422.07422.07031.07422.08984.0625.10547.04297.10156.04297.1172.03125.13671.01562.11719-.03125.07422-.07422.02734-.11718-.01172-.13282-.03125-.12109-.02734-.11719.04297-.10547h.11719l.08984.0625.11719.02735h.14843l.13282.01562h.14843l.13282.01563.1328-.01563h.14845l.1328-.01562.13282-.01172.13672.01172.11719-.02735.13281-.01562.1914-.0586-.05859.17579-.01562.1328-.02735.1211-.01562.13281-.0586.08594-.1328.01563-.10548.04687-.10546.04297-.1172.03125-.11718.02735-.26563.03125h-.14843l-.13281.01562-.07422.07422.05859.08594.14844.14843.11719.1797.07421.0703.08985.0625.08984.0586.08594.0586.08984.05858.10156.04297.10547.0625.10547.04297.08594.0586.10547.04687.10156.04297.17969.11719.0586.08984-.04298.10156-.04687.10547.01562.13281.22266.22266.0586.08985.04296.10156.03125.1211.04297.10155.01563.13282.03125.11718.01171.13672.03125.11719.14844.14844.10156.04297.10547.04296.1172.03125.1328.01563.13672.01563h.11719l.11719-.03125.08984-.0586.04297-.10547.04688-.10156.04296-.10547.03125-.11719.01172-.1328v-.14845l-.01172-.1328-.01562-.13282-.03125-.11719-.04297-.10547-.04688-.10547-.04296-.10156-.04297-.10547-.01563-.13281.01563-.13281.02734-.11719.03125-.11719.02735-.1211.04687-.10155.08984-.0586.08594-.0625.07422-.07422.08984-.05859.22266-.22266.0586-.08593.07421-.07422.11719-.17969.0586-.08594v-.14844l-.07423-.07421-.10156-.04688-.10547-.04297-.10156-.04297-.0586-.08984-.04687-.10547-.02734-.11719.08984-.05859.11719-.03125.10156-.04297.17969-.11719.14844-.14843.01172-.13282-.01172-.10546-.08985-.0586-.1328.01563h-.14845l-.1328.01562-.13282-.01562-.1211-.03125-.08593-.0586-.07422-.07422-.0586-.08984-.0625-.08594-.11718-.17969-.0586-.08593.03125-.1211.08594-.05859.1211-.03125.05859-.08594v-.1211l-.03125-.11718-.0586-.08984-.05859-.08594-.04687-.10547-.02735-.11719-.01562-.1328.0586-.08985.07421-.07422.08984-.0586.1172-.17968.07421-.07422.0586-.08594.14843-.14844.1211-.03125.1328-.01562.13282.01562.07422.07422.04297.10547.01562.13281-.03125.1172-.11719.03124-.1328.01172-.14844.14844-.04297.10547-.04688.10156-.02734.1211-.03125.11718v.14844l.03125.11719.04297.10546.05859.08985.07422.07031.07422.07422.11719.03125.12109.02734.11719-.02734.1328-.01563h.1172l.08984.0586.07422.07422.04687.10546.0586.08594.10156.04688.13281.01562.10547.04297.08594.0586-.01172.10546-.07422.07422-.17969.11719-.05859.08984-.08984.0586-.07032.07422-.07421.07421-.0625.08985-.02735.11719-.01562.1328.01562.13282-.01562.13281v.14844l.01562.13281.02735.1172.03125.12108.07421.07422.08985.0586.08594.0586.08984.05858.11719.03125v.08594l-.10157.04688-.08984.0586-.26563.03124-.11718.02735h-.14844l-.10547.04296-.10156.04688-.0586.08984-.0625.23438-.01171.13281-.03125.1211-.01563.1328v.29298l-.01172.1328.01172.13673.01563.1328.1328.01563.13282.01172.1211.03125.08593.0586.07422.07421.04688.10547.04296.10157.01563.1328v.44532l-.01563.13281v.44532l.03125.26562.02735.11719.01562.13281.03125.11719.08594.21094.03125.26562v.14844l-.03125.11719-.02734.11718-.03125.1211-.02735.11719-.03125.11718-.03125.1211-.01171.1328-.01563.13282.08984.0586.1172-.03125.10155.01562.04688.10547-.03125.26562v.44141l-.04297.10547-.04688.10547-.04296.10156-.04297.10547-.0586.08594-.03125.12109-.04296.11719-.03125.11719-.01563.1328.01563.13282.05859.08984.10547.04688.08594.0586.05859.08593-.01172.13672-.03125.11719-.04297.10156v.44531l-.01562.13281v.14844l-.03125.11719-.04297.10547-.02735.11719-.04687.10546-.04297.10157-.03125.12109-.02734.11719-.03125.13281-.03125.11719-.02735.11719-.04297.10546-.03125.1172-.03125.12108-.01171.13282-.01563.13281v.29688l.02734.11718v.14844l.04688.39844.02734.11719.0586.08984.12109.03125h.14844l.13281-.01563.0586.08985v.11719l-.0586.08984-.08984.0586-.10157.04296-.10546.04688-.08985.05859-.08594.0586-.13671.01562-.1172-.03125-.1328-.01563-.10157.04688-.0625.08594-.01172.13671-.01562.13282-.03125.11719-.02735.11718-.01562.13281-.03125.1211v.29687l.01563.13282.03125.11718v.14844l.01171.13281v.14844l-.02734.11719-.04688.10156-.02734.1211-.03125.11718-.0586.08985-.07421.07421-.10156.04297-.10547.04688-.11719.02734-.1211.03125-.10156-.04687.0586-.08594.10547-.04688.02734-.11718.03125-.11719.02734-.1211.03125-.11718v-.14844l.01563-.13281-.03125-.11719-.04297-.10547-.10547.01563-.07422.07422-.10156.04296-.08984.0625-.07422.07422-.04297.10157-.01563.1328-.03125.1172L304.25 426l-.03125.11719-.02734.11719-.03125.12109-.02735.11719-.03125.11718-.04297.10547-.08984.0586h-.08984l-.1172-.03125-.03124-.08594.01562-.13672-.03125-.11719v-.14844l-.01171-.1328v-.14844l-.0625-.23438-.02735-.1211-.04297-.10156-.04687-.10546-.0586-.08594-.05859-.08985-.04297-.10546-.0625-.08594-.14844-.14844-.0703-.07422-.10548-.04687-.10547-.04297-.10156-.04297-.29687-.29688-.08985-.07421-.08594-.0586-.10546-.04297-.08985-.0625-.08594-.0586-.10546-.04296-.08985-.0586-.08594-.0625-.07421-.0703-.10547-.04688-.08594-.0586-.10547-.04296-.08984-.0625-.10156-.04297-.10547-.04297-.08594-.0586-.10547-.04687-.10547-.04297-.10156-.04687-.08985-.0586-.10156-.04297-.10547-.04296-.08984-.0625-.11719-.02735-.13281-.01562-.13281.01562H299.75l-.13281.01563-.11719-.03125-.08984-.0586-.07422-.07422-.08985-.05859-.10156-.04688h-.14844l-.12109-.02734-.10156-.04297-.07422-.07422-.11719-.17968-.08984-.0586-.10156-.04297-.08985-.0625-.10547-.04296-.08984-.0586-.08594-.0586-.10547-.04687-.0586-.08594-.05858-.08984-.04297-.10547-.04688-.10156-.07422-.07422-.08594-.0586-.07421-.07421-.08985-.0586-.22265-.22265-.04297-.10547-.03125-.26563.10547-.04296h.14453l.10547.04296.07421.07422.08985.0586.08594.0586.10546.04687.08985.05859.14844.14844.0703.07422.14845.14843.0625.08594.07421.07422.08594.0586.07422.07421.08985.0625.08984.0586.08594.05859.26953.17578.10156.04688.10547.04296.10156.04297.04688-.07421.05859-.08594.07422-.07422.07031-.07422.10547.04297.07422.07422.0586.08984.04296.10156.04688.10547.04296.10547.1211.02735.11719-.02735.07421-.08984.04297-.10547.0586-.08985.07422-.07421.10546-.04297.1172-.02735.1328.01172.08985.0586.14844.14843.05859.08985.04297.10547.04687.10156.04297.10547.04297.10156.10547.04688.10547.04296.13281.01563.08594-.0586.0586-.08984.07421-.07422.10547-.04297.11719.02735.10547.04687.10156.04297.10547.04297.10156.04688.17969.11718v.11719l-.01563.13281.01563.13281.01562.13672.0586.08594.10156.04688.1211.02734.11718.03125h.14844l.11719-.03125.05859-.08984.17969-.1172.05859-.08983.07422-.07422.0586-.08594.11718-.17969.17969-.11719.11719.03125.08984.0586.04297.07422-.01563.1328v.1172l.08985.05859h.14843l.13282-.01563.1328-.01171.26563-.03125.10547-.04297.11719-.03125.1211-.02735.07421-.07421.07031-.07422.0625-.08985-.01562-.10547-.04688-.10156-.10156-.04297-.10547-.01562-.11718.02734-.26563.03125h-.14844l-.07421-.07422-.08985-.0586-.11719-.03124-.11718-.02735-.13282-.01562h-.14843l-.13282.01563h-.29687l-.10547-.04688-.14844-.14844-.04297-.10156-.05859-.08984.22266-.22266.08593-.0586.10547-.04296.11719-.03125.13281-.01563.13281.01563.13672.01562.10157.04297.1328-.01172.08985-.0625.10156-.04297.0625-.08984-.04687-.10156-.08984-.0586-.1172-.03125-.10155-.04296-.0586-.08985-.0625-.08984v-.11719l.01563-.13281.10547-.04688.07421-.07031v-.1211l-.08984-.05859-.03125-.11719.08985-.05859.07421-.07422.04297-.10547.0586-.08984.04687-.10156.01563-.13281v-.14844l-.04688-.10547-.04297-.10156-.08984-.0586-.13281-.01562-.10157-.04297-.13671-.01563-.1172-.03125h-.4453l-.13282-.01562-.13281-.01172-.13281-.01563-.11719-.03125h-.14844l-.13281-.01562-.13281-.01172-.26563-.03125-.1211-.04297-.08593-.0586-.07422-.07421v-.14844l.01172-.13281.10547-.04688.10156-.04296.13281-.01563h.15235l.13281-.01562h.29297l.1211.03125.10156.04296.08984.0586.23438.0625.12109-.04688.08984-.05859.10156-.04297.13282-.01562.10547.04296.10156.04688.13281.01172.1211-.02735h.14453l.12109-.03125.11719-.02734.10547-.04687.07421-.07422.08594-.0586.14844-.14843.0586-.08594.04687-.10547.02734-.11719.01563-.10547-.10156-.04296-.08985-.0586-.11719-.03125-.10546-.04297-.08985-.0625-.07422-.08594-.07422-.07421-.10156-.04297-.10547-.04688-.10156-.04297-.0586-.08984-.04687-.10156-.08594-.21094-.0625-.08594-.05859-.08984-.07422-.07422-.08594-.0586h-.26953l-.11719.03126-.08984.05859-.10156.04297-.13281.01562-.10547-.01562-.02735-.11719-.0625-.08984-.11718-.03125-.10157-.04297-.14843-.14844-.03125-.11719-.01563-.10546.07422-.07422.17969-.1172.11719-.02733.11718-.03125.13672.01562.10156.04297.10547.04297.10156.04687.10547.04297.1172.03125.1328.01563.1172.02734.1328.01563.10547-.01563.08985-.0586-.07422-.07421-.10547-.04297-.07422-.07422-.07422-.08984-.14844-.14844-.08593-.0586-.08985-.05859-.07422-.07422-.08984-.0586-.10156-.04687-.1211-.02734-.10156-.04688-.10547-.04296-.11719-.03125-.10156-.04297-.1211-.03125h-.14843l-.11719.03125-.10546.04297-.08594.0625-.17969.11718-.08594.0586-.08984.0586-.10547.04687-.08594.05859-.10547.04297-.10156.04297-.10547.04687-.07422.07422-.05859.08985-.0586.08593-.04687.10547-.0586.08594-.07421.07422-.13281-.01172-.1172-.03125h-.11718l-.07422.07422-.08984.0586-.07422.07421-.08984.0586-.08594.05859-.10547.04687-.10156.04297-.13672.01563-.10156-.04297-.14844-.14844-.10547-.04688h-.08594l-.10547.04688-.10156.04297-.1211.03125-.11718-.03125-.07422-.07422v-.11719l.03125-.1211.07422-.0703.0586-.08985.07421-.07422.11719-.03125.10547-.04296h.29297l.13281-.01563.13672-.01563.10156-.04296.08985-.0586.10156-.04687.08984-.0586.13281-.01171.08985.05859.13281.01172.08984-.0586.08594-.05859.10547-.04297.08984-.0586.08594-.0625.08985-.05859.14843-.14843.0586-.08594.05859-.08985.10547-.04296.13281-.01563.11719.02735.1211.03125.05859-.0586.05859-.08984.03125-.26563.02734-.11719.10547.01172.13281.01563.10157-.04297.08984-.0586.0586-.08984.07421-.07422.0586-.08984.04687-.10156.01172-.13281-.01172-.13282-.04687-.10547-.14844-.14843-.0586-.08985-.05859-.08594-.04297-.10546v-.44532l.01563-.1328v-.14845l.01172-.1328-.0586-.0586-.08984.0586-.10156-.04298-.17969-.11719-.08594-.05859-.0625-.08984-.0586-.08985-.07421-.07421-.08594-.0586-.1211.03125-.10155.01172-.10547.04688-.08594.05859-.10547.04297-.14844.14844-.08984.05859-.08594.0586-.08984.0625-.10547.04296-.13281.01563v-.1211l.10547-.04297.11718-.03125.07422-.0703.04297-.10548v-.14844l-.02734-.11718-.14844-.14844-.13281-.01563h-.14844l-.11719.03125-.10547.04297-.10156.04297-.08984.0625-.11719.02735-.07422-.07422.01172-.13281-.04297-.10157-.04297-.10547-.08984-.05859-.11719.02734-.1211.03125-.11718.03125-.10156.04297-.1211.03125-.10156.04297-.10547.04297-.08984.0586-.10156.01562v-.11719l.01562-.13281-.0586-.08985-.07421.04297-.14844.14844-.0586.08985-.07421.07421-.04688.10547-.04296.10156-.07422.07422-.0586.08985-.07422.07422-.05859.08593-.07422.07422-.08984.0625-.07422.07031-.07422.07422-.10156.01563-.13281.01562-.10547-.04296v-.1211l.14843-.14844.04297-.10156.0586-.08984.04687-.10156.04297-.10547.0586-.08985.03124-.11719.04297-.10156.03125-.1211.02735-.11718.04687-.10547.04297-.10156.04297-.10547.07422-.07031.08984-.0625.08985-.0586.10156-.04296h.29687l.26563-.03125.10547-.04297-.07422-.07422-.11719-.03125-.10547-.04297-.08984-.0586-.10156-.04687-.08985-.0586-.10156-.04296-.10547-.04297-.08984-.0625-.08594-.0586-.10547-.04296-.10156-.04297-.1211-.03125-.11718-.03125-.10157-.04297L297.5 410.25l-.10156-.04297-.08985-.0586-.04296-.10546-.01563-.13281.10156-.04297.13281-.01563.13672.01563.13282-.01563.10156-.04297.0586-.08984.01562-.10547-.08985-.0586-.07421-.07421-.10157-.04297-.08984-.0586-.14844-.14843-.04297-.10547-.01562-.13281v-.29297l-.0586-.08985-.08984-.05859-.07422-.07422-.04297-.10547-.03125-.11718-.0586-.08985-.07421-.07422-.11719-.02734-.07422-.07422-.08984-.0586-.08984-.0625-.08594-.05859-.07422-.07421-.0586-.08594-.04687-.10547-.08594-.0586-.14843-.14843-.19532-.0586-.1328.01563-.10157.04297-.07422.07422-.04688.10156-.04296.10547-.0586.08984-.0586.08594-.29687.29687-.08984.0586h-.08594l-.0625-.08594-.04297-.10547.03125-.11719.0586-.08984.02734-.11719-.01172-.13281-.08984-.0625-.10547.04688-.11719.02734-.11719.03125-.26953.17578-.10156.04688-.11719.02734-.10546.04687-.08985.0586-.10156.04297-.0586-.08594-.04687-.10547.01563-.13281.04687-.10547.07031-.07422.07422-.07031.0586-.08985v-.14843l-.04297-.10547h-.23829l-.10156.04687-.03125.11719-.02734.11719-.03125.1211-.07422.04296-.13281.01563-.07422-.04688-.04297-.10156-.04297-.10547-.04687-.10156-.04297-.10547-.1211.03125-.10156.04297-.13281.01562-.11719.03125-.10547.04297-.08984.0586-.10156.04687-.1211.02734-.13281.01563-.10156-.04297-.0586-.08985-.04687-.10546-.04297-.10157-.04297-.10546v-.1172l.0586-.08984.08593-.05859.17969-.11719.10156-.04687.10547-.04297.10547-.0586.10156-.04296.08985-.0625.10156-.04297.10547-.0586.10156-.04687.08984-.0586.10547-.04296.10156-.04297.08985-.0625.10156-.04297.13672-.01563.11719.03125.10156.04297.1211.03125.10156.04297.10546.04688.10157.04296.10547.04297.10156.04688.10547.04297.10156.04297.10547.04687.08594.0586.10546.04296.1172.03125.10546.04297.10156.04688.08985.0586.10547.04296.10156.04297.10547.04687.11719.02735.10156.04687.1211.02735h.14843l.08594-.0586.01562-.10156.0586-.08984-.02735-.1172-.07422-.07421-.11719-.17969-.07421-.07422-.08985-.07421-.17969-.1172-.08593-.05859-.10547-.04296-.10156-.04688-.26954-.17578-.05859-.08985-.07422-.07421-.0586-.08985-.04296-.10156-.03125-.11719-.01563-.13672v-.5625l-.01171-.1328-.01563-.13282-.03125-.11719-.01562-.13281-.01172-.13281-.03125-.1211-.22266-.22265-.0586-.08594-.01562-.10547.03125-.11719.13281-.01562v-91.41406H172.9922v1.45312l-.0586.23438-.35156 1.05078-.17187.52343-.1172.34766-.17577.41016-.11719.17187-.23438.29297-.23046.0586h-.35157l-.11718.05859-.23047.40625v.29297l.11719.17578.23046.23047.1172.23437.64062.75781.29297.46485.17578.23437.23047.35156.23437.34766.64063.8164.17578.46485.17187.41016.11719.69531.17578.46875.11719 1.39844.0586.46484v.875l.11718 1.04688v4.78125l-.0586.46484-.35156 1.28125-.17578.52344-.11328.41015-.35156.9297L172.93359 336l-.23437.58203-.11719.17578-.17187.34766-.17578.40625-.35157.8164-.0586.29297-.11327.29297-.11719.28906-.0586.17579-.11718.875-.0586.40625-.05859.11718-.0586.17579-.05859.17187-.23047.52734-.11718.17188v.23437l-.11719.23438-.0586.17187-.17577.58594v.28906l-.0586.17579v.29296l-.0586.11329-.05859.52734v.17187l-.05468.23438v2.6211l-.17578.8164-.1172.17578-.17577.23438-.1172.17187-.11327.23438-.58594.93359-.23047.28906-.29297.46485-.17578.23437-.28906.35156-.35156.69922-.11328.23047-.17579.41016-.17578.23046-.40625.52735-.8164.69922-.29297.17187-.28906.23438-.17579.11719-.17578.17578-.52344.40625-.52734.17578-.17187.17578-.23438.05469-.64062.17578h-.75782m12.21094 31.02344l-1.07422.44921.35938.89454 1.25-.71485.44531-.53906-.98047-.08985"/><path fill="#d3d3d3" fill-opacity="0" fill-rule="evenodd" d="M201.50781 416.59766h-.89453l.44922.6289.98047.35938.80469-.08985.4453-.98828-.17577.08985-.71485-.35547-.89453.35547m154.6211 59.0703l-.0586-.52343v-.29297l.11328-.29297.0586-.23046.46875-.46875h.11328l.11719-.11329.11718-.05859h.17579l.23437-.0586h.34766l.23437.0586.11719.0586.23047.17187.0586.17578.11718.58203v.29297l-.11719.17578-.17187.28906-.17579.17579-.52734.52343-.23047.23438-.11719.0586h-.17578l-.11718-.0586-.40625-.29297-.17579-.11719-.11718-.0586-.0586-.11327-.05468-.1172m6.64062-10.95702l-.0586-.17188v-1.10937l.0586-.17188.17578-.0586.17188-.05858h.17578l.23437-.0586.1172.0586.05858.69921-.05859.17188-.11719.17578-.11718.0586-.23438.52343-.11328.0586h-.23438l-.05859-.1172m9.61328-14.39062l-.11719-.17578v-.69922l.29297-.875.1172-.17187.17577-.35156.11328-.23047.1172-.29297.35155-.75781.1172-.23047.17187-.23438h.17578l.11719-.0586h.64062l.11719.0586.23437.23438.17188.11328.35156.29297.11719.11718.11328.17579v.11328l.11719.05859.11718.11719v.69922l-.05859.17578v.23047l-.0586.17578-.34765 1.05078-.11719.23047-.11719.23437-.11718.0586-.23047.23437-.64063.28906h-.875l-.41015-.11718-.64063-.46485"/><path fill="none" stroke="#bebebe" stroke-linecap="round" stroke-linejoin="round" stroke-miterlimit="10" stroke-width=".5" d="M467.95703 311.69531H144.02734v168.625h323.9297v-168.625"/><g clip-path="url(#a)"><path fill="#fff" fill-opacity="0" fill-rule="evenodd" d="M144 475.89063v4.4375h.0039H144v-75.64844 71.21094"/></g><g clip-path="url(#b)"><path fill="#fff" fill-opacity="0" fill-rule="evenodd" d="M144 320.54688v4.0664-12.9414h.0039H144v8.875"/></g><path fill="#50fcfc" fill-rule="evenodd" d="M144 401.32813v3.35156l.0039.0039v-3.35156l-.0039-.0039"/><path fill="#00e8fc" fill-rule="evenodd" d="M144 399.76172v1.5664l.0039.00391v-1.57031H144"/><path fill="#50fcfc" fill-rule="evenodd" d="M144 397.21484v2.54688h.0039v-2.54688H144"/><path fill="#fff" fill-opacity="0" fill-rule="evenodd" d="M144 326.3125v70.90234h.0039V326.3047l-.0039.00781"/><path fill="#50fcfc" fill-rule="evenodd" d="M144 324.61328v1.69922l.0039-.00781v-1.6914H144"/><g clip-path="url(#c)"><path fill="#fff" fill-opacity="0" fill-rule="evenodd" d="M144.0039 480.32813v-75.64454l.20313.19141 3.21875 4.4414-2.82422 4.4375 3.83594 3.83594 1.6289.60157 2.8086 2.8203.72266 1.6172 3.71875 4.35937.0664.08203.21485 4.4375-.01563 4.4375-.04297 4.4375-.08984 4.4375.16797 4.4414-.00781 4.4375-.09766 4.4375.24219 4.4375 4 3.9336 4.4375-.0625 4.4375-.1289 4.4375-.83985 4.4414-.57422 4.4375.19532 4.4375.07812 4.4375-.0664 4.4414-.10938 4.4375-.51172 4.4375-.23437 4.4375-.63672 3.14063-1.04297-3.14062-2.23438-2.98828-2.20312-1.44922-1.03906-4.4375.24609-4.4375-1.1211-4.4414.1211-.84766-2.64453-2.10938-4.4375 2.95703-1.67188 4.38672-2.76953.05469-.04297 4.4375-1.83593 2.7539-2.5586 1.6836-.83984 4.4375-1.98828 4.4414 1.11328 3.60938-2.72266.82813-1.89453 3.95703-2.54297.48047-1.33203.10156 1.33203 1.28515 4.4375 3.05078 2.63281 4.4375 1.1211 4.44141-.36719.64453 1.05078 3.79297 3.66016 4.4375-2.33203 1.89063-1.32813-1.89063-2.8789-4.4375-1.3672-.33594-.1914-.79297-4.4375 1.12891-1.03125.83594 1.03125 3.60156 3.10547 4.4375-3.0586 2.8125 4.39063 1.625 2.27344 2.01563-2.27344-2.01563-1.65625-4.38672-2.78125-.05078-.03515-4.4375-2.51954-2.16797-1.8828-2.26953-1.6875-3.92969 1.6875-.5078.5664-.67188-.5664-3.76953-3.2422-2.3711-1.19921-2.0664-.42188-4.4375.38672-.16407.03516-4.27344 1.03906-2.01562-1.03906-2.42188-.85547-4.4414.4336-4.4375-1.84767-4.4375-1.46484-4.4375.63281-4.4414 1.92188-4.4375.78515-1.26954.39454-3.16797.53125-4.4375.26953-4.4414.28515-4.4375-.45312-.77344-.63281-.48047-4.4375-3.1836-2.75782-1.12109-1.67968-3.3164-2.95704-4.4375-1.0039-3.15625-.47656 3.15625-.59766L161 404.875l.23828-4.4375.51563-3.23047L162.76953 396l-.1211-4.4375L165 387.125l-1.63281-4.4414-1.61328-1.51173-1.46485 1.51172-2.97265 1.51563-2.95703 2.92578.1875 4.4375-1.67188 2.36328L149.67969 396l-1.24219.625-4.4336.58984V326.3047l.33985-1.32031-.33984-.3711v-12.9414h39.9414v12.29296l-1.15625 1.01954-3.28125 3.3789-4.4414-.07812-1.10547 1.14062-.82031 4.4375-2.51172 3.15235-1.375 1.28515-.875 4.4375-2.1875 2.85547-.82032 1.58594-2.89843 4.4375-.71875 1.21875-1.15625 3.21875 1.15625 1.875 3.60547-1.875.83203-.46485 4.4375-3.58203 1.46093-.39062 2.97657-.79688 2.4453-3.64062 1.9961-2.47656 4.4375 1.85937 4.4375-3.32813 1.20703-.49609 2.6211-4.4375-3.82813-3.3789-4.21484-1.0586 3.375-4.4375-2.57813-4.4414-1.01953-1.01954v-12.29296h17.7539v7.53125l-3.52343 1.34375.79688 4.4375-1.71094 2.76953-2.2539 1.67187 2.2539 3.98047.48828.45703 3.94922 3.28906 3.90234 1.14844.53516.14453.20312-.14453 4.23438-2.67969 2.38281-1.7578 2.0586-.44532v13.67578l-.51954.08594.51953.0664.07032-.0664-.07031-.08594v-13.67578l4.4375-3.9336.05468-.05859-.05469-.1289-2.11718-4.3125-2.32031-1.35547-2.9336 1.35546-1.50781.20704-.8711-.20704-3.5664-2.11328-3.07031-2.32421-1.3672-1.34375v-7.53125h110.95704v150.23828l-.76953.66406.76953.40625.5039-.40625-.5039-.66406V311.67187h26.63281v148.8086l-4.4414.23047-3.42579 1.86328 3.42579 2.3711 4.4414.5664 4.4375-1.9336 2.0039-1.0039-2.0039-.83594-4.4375-1.25781v-148.8086H467.9961v168.65625h-67.70703l-3.30469-3.98437-.67968-.45313-3.75781-3.3125-1.25782-1.125.58594-4.4375.17578-4.4414-1.09375-4.4375 1.58985-3.82422.59765-.61328-.59765-.96875-4.4375-1.52344-4.4375 2.42578-4.4375-.3789-.44922.4453-2.88672 4.4375-1.10547 2.1875-1.59375 2.25 1.59375 1.09376 3.1836-1.09375 1.2578-.52344.21094.52344 1.3125 4.4414.10938 4.4375.34765 4.4375 2.45704 2.89063.38671 1.54688H144.00391"/></g><path fill="#50fcfc" fill-rule="evenodd" d="M144.20703 404.875l-.20312-.1914v-3.35157l3.7578 3.54297.67579.85156 4.4375 3.07422v1.10156l-4.4375.29688-2.92578 3.55469 2.92578 2.92578 4.07813 1.51172.35937.36328 1.8125 4.07422 2.6289 3.07812 1.15235 1.36328.27344 4.4375.14453 4.4375-.0586 4.4375.04688 4.4375-.00781 4.4414-.17188 4.4375-.33203 4.4375.50781 4.4375 2.88282 2.83595 4.4375-.60547 4.4375-.16797 4.3789-2.0625.0586-.33985 3.42187-4.09765 1.01953-4.21875.01563-.21875 1.03906-4.4375 3.38281-2.92578.46485-1.51563-.46485-.78906-2.83594-3.64844 2.83594-3.23437 4.4375-.34766 1.5586-.85547 2.8789-3.875.79688-.5625-.79688-1.5039-2.63281-2.9336-1.80469-.24219-4.4375-.41406-3.53906.65625-.89844.375-4.4414.80469-1.76563-1.17969-2.67187-1.07812-4.11328-3.36328-.32422-.95313-.35938-3.48437-3.60547-4.4375-.47265-.42188-4.4375-1.9414-4.44141-1.48829v-1.10156l4.4414-2.07812 1.76954-1.84766 1.16797-4.4375-2.9375-3.83984-4.44141.29296-4.4375 3.14454-4.4336-.27344v-2.54688l4.4336-.58984 1.24219-.625 3.19531-2.07422 1.67188-2.36328-.1875-4.4375 2.95703-2.92578v2.26953l-.66016.65625.66016 3.20703 1.375-3.20703-1.375-.65625v-2.26953l2.97265-1.51563 1.46485-1.51171 1.61328 1.51171L165 387.125l-2.35156 4.4375.1211 4.4375-1.01563 1.20703-.51563 3.23047L161 404.875l-3.6836 3.84375-3.15624.59766 3.15625.47656 4.4375 1.0039 3.3164 2.95704 1.1211 1.67968 3.18359 2.75782.48047 4.4375.77344.6328 4.4375.45313 4.4414-.28515 4.4375-.26953 3.16797-.53125 1.26953-.39454 4.4375-.78515 4.4414-1.92188 4.4375-.6328 4.4375 1.46483v6.33204l-2.25.3789 2.25.34766v7.70312l-.76952.82422.76953.32813.51562-.32813-.51562-.82422v-7.70312l.29687-.34766-.29687-.3789v-6.33204l4.4375 1.84766 4.4414-.4336 2.42188.85548 2.01563 1.03906 4.27343-1.03906.16406-.03516 4.4375-.38672v1.9961l-2.69921 2.86718 2.69922.34766v3.17578l-.96875.91406.96875 2.60156.41796 1.83594 4.01953 2.48047 4.44141-1.61719 2.1914 3.57422 2.2461 2.16797 2.9414-2.16797-2.9414-2.51562-3.39062-1.92188-1.04688-1.35937-4.4414-2.21094-2.76172-.86719-1.67578-.91406v-3.17578l1.64453-.34766-1.64453-2.86719v-1.99609l2.0664.42188 2.3711 1.19921 3.76953 3.2422.67187.5664.50781-.5664 3.9297-1.6875 2.26952 1.6875 2.16797 1.8828 4.4375 2.51954.05078.03515 4.38672 2.78125 2.01563 1.65625-2.01563 2.27344-1.625-2.27344-2.8125-4.39062-4.4375 3.0586-3.60156-3.10548-.83594-1.03125-1.1289 1.03125.79296 4.4375.33594.1914 4.4375 1.3672 1.89063 2.8789-1.89063 1.32813-4.4375 2.33203-3.79297-3.66016-.64453-1.05078-4.4414.36719-4.4375-1.1211-3.05079-2.6328-1.28515-4.4375-.10156-1.33204-.48047 1.33203-3.95703 2.54297-.82813 1.89453-3.60938 2.72266-4.4414-1.11328-4.4375 1.98828-1.6836.83984-2.7539 2.5586-4.4375 1.83593-.05469.04297-4.38672 2.76953-2.95703 1.67188 2.10938 4.4375.84765 2.64453 4.4414-.1211 4.4375 1.1211 4.4375-.2461 1.44923 1.03907 2.98828 2.20312 3.14062 2.23438-3.14062 1.04297-4.4375.63672-4.4375.23437-4.4375.51172-4.4414.10938-4.4375.0664-4.4375-.07812-4.4375-.19532-4.44141.57422-4.4375.83985-4.4375.1289-4.4375.0625-4-3.9336-.2422-4.4375.09767-4.4375.0078-4.4375-.16796-4.4414.08984-4.4375.04297-4.4375.01563-4.4375-.21485-4.4375-.0664-.08203-3.71875-4.35937-.72266-1.6172-2.8086-2.8203-1.6289-.60157-3.83594-3.83593 2.82422-4.4375-3.21875-4.44141"/><path fill="#00e8fc" fill-rule="evenodd" d="M147.76172 404.875l-3.75781-3.54297v-1.57031l4.43359.27344 4.4375-3.14454 4.4414-.29296v2.14843l-4.4414.95704-.97656.73437-2.45703 4.4375 3.43359 2.95313 3.8711-2.95313.5703-1.59766 1.29688-2.83984-1.29687-1.6914v-2.14844l2.9375 3.83984-1.16797 4.4375-1.76953 1.84766-4.44141 2.07812-4.4375-3.07422-.67578-.85156"/><path fill="#50fcfc" fill-rule="evenodd" d="M144.34375 324.98438l-.33984 1.3203v-1.6914l.33984.3711"/><path fill="#00e8fc" fill-rule="evenodd" d="M148.4375 416.67969l-2.92578-2.92578 2.92578-3.5547 4.4375-.29687v1.11329l-4.4375 1.02343-1.41016 1.71485 1.41016 1.41015 4.4375 1.82422 1.28906 1.20313 2.34766 4.4375.80469.9453 2.96484 3.4961.36328 4.4375.41406 4.4375-.08203 4.4375.27735 4.4375-.3047 4.4414-.44921 4.4375-.71094 4.4375.94531 4.4375 1.01954 1 3.3203-1 1.1172-.57421 3.67578-3.86328.76172-3.21485.67578-1.22265-.67578-1.85938-1.89063-2.57812-.35156-4.4414-2.19531-3.9961-.31641-.4414-1.47656-4.4375.8086-4.4375.98437-4.25 2.25 4.25 2.1875 1.0703.98437-1.0703-.98437-.77735-4.39453-3.66016-.04297-.03515-1.64844-4.40625-.40234-4.4375-2.38672-2.70704-4.4375-1.51562-.19532-.21484-4.24609-2.73829v-1.11328l4.4414 1.48829 4.4375 1.9414.47266.42188 3.60547 4.4375.35938 3.48437.32422.95313 4.11328 3.36328 2.67187 1.07812 1.76563 1.17969 4.4414-.80469.89844-.375 3.53906-.65625 4.4375.41406 1.80469.2422 2.63281 2.93359.79688 1.5039-.79688.5625-2.8789 3.875-1.5586.85547-4.4375.34766-2.83594 3.23437 2.83594 3.64844.46485.78906-.46485 1.51563-3.38281 2.92578-1.03906 4.4375-.01563.21875-1.01953 4.21875-3.42187 4.09765-.0586.33985-4.3789 2.0625-4.4375.16797-4.4375.60547-2.88282-2.83594-.5078-4.4375.33202-4.4375.17188-4.4375.00781-4.4414-.04688-4.4375.0586-4.4375-.14453-4.4375-.27344-4.4375-1.15234-1.36329-2.62891-3.07812-1.8125-4.07422-.35938-.36328-4.07812-1.51172"/><path fill="#00d4fc" fill-rule="evenodd" d="M148.4375 415.16406l-1.41016-1.41015 1.41016-1.71485 4.4375-1.02344v1.1172l-4.23828 1.62109 4.23828 1.91796 2.70313 2.51954 1.73828 3.05078 2.15625 1.38672 2.28125 3.36718v29.69141l-.53907 2.44922.53907 2.01953 4.4375-1.29297.6914-.72656-.6914-1.01563-4.4375-1.43359v-29.6914l1.03515-3.3672-.33984-4.4375-.69531-.78906-4.4375-1.54296-1.92578-2.10547-2.51563-1.6211v-1.11719l4.2461 2.73829.1953.21484 4.4375 1.51563 2.38673 2.70703.40234 4.4375 1.64844 4.40625.04297.03515 4.39453 3.66016.98437.77734-.98437 1.07031-2.1875-1.0703-2.25-4.25-.98438 4.25-.8086 4.4375 1.47657 4.4375.3164.4414 2.19532 3.9961.35156 4.4414 1.89063 2.57812.67578 1.85938-.67578 1.22265-.76172 3.21485L166.1914 462l-1.1172.57422-3.3203 1-1.01953-1-.94532-4.4375.71094-4.4375.44922-4.4375.30469-4.4414-.27735-4.4375.08203-4.4375-.41406-4.4375-.36328-4.4375-2.96484-3.4961-.8047-.94531-2.34765-4.4375-1.28906-1.20313-4.4375-1.82422"/><path fill="#00c4fc" fill-rule="evenodd" d="M152.875 415.67188l-4.23828-1.91797 4.23828-1.6211v1.11328l-1.32422.50782 1.32422.59765 4.11328 3.83985.32813.57421 1.24609-.57421-1.2461-.4375-3.65234-4-.78906-.50782v-1.11328l2.51563 1.6211 1.92578 2.10546 4.4375 1.54297.6953.78907.33985 4.4375-1.03515 3.36718-2.28125-3.36718-2.15625-1.38672-1.73828-3.05078-2.70313-2.51954"/><path fill="#00d4fc" fill-rule="evenodd" d="M152.875 407.82813l-3.4336-2.95313 2.45704-4.4375.97656-.73438v1.91797l-2.30078 3.25391 2.30078 1.98047 2.59375-1.98047-2.59375-3.2539v-1.91798l4.4414-.95703 1.29688 1.69141-1.29687 2.83984-.57032 1.59766-3.87109 2.95313"/><path fill="#00c4fc" fill-rule="evenodd" d="M152.875 406.85547l-2.30078-1.98047 2.30078-3.2539v1.60546l-1.16406 1.64844 1.16406 1.0039 1.3164-1.0039-1.3164-1.64844v-1.60547l2.59375 3.25391-2.59375 1.98047"/><path fill="#00b8fc" fill-rule="evenodd" d="M152.875 414.35156l-1.32422-.59765 1.32422-.50782.78906.50782 3.65235 4 1.24609.4375-1.2461.57421-.32812-.57421-4.11328-3.83985m0-8.47265l-1.16406-1.00391 1.16406-1.64844v1.60156l-.03125.04688.03125.03125.03906-.03125-.03906-.04688v-1.60156l1.3164 1.64844-1.3164 1.0039"/><path fill="#00a8fc" fill-rule="evenodd" d="M152.875 404.90625l-.03125-.03125.03125-.04688.03906.04688-.03906.03125"/><path fill="#00e8fc" fill-rule="evenodd" d="M157.3164 390.33203l-.66015-3.20703.66016-.65625 1.375.65625-1.375 3.20703"/><path fill="#50fcfc" fill-rule="evenodd" d="M161.7539 357.92969l-1.15624-1.875 1.15625-3.21875.71875-1.21875 2.89843-4.4375.82032-1.58594 2.1875-2.85547.875-4.4375 1.375-1.28515v9.90234l-.23047.26172.23047.21875.44922-.21875-.44922-.26172v-9.90235l2.51172-3.15234.8203-4.4375 1.10548-1.14062v9.91796l-.08203.09766.08203.08985.10156-.08985-.10156-.09765v-9.91797l4.4414.07812 3.28125-3.3789 1.15625-1.01954 1.01953 1.01954 2.57813 4.4414-3.375 4.4375 4.21484 1.0586 3.82813 3.3789-2.6211 4.4375-1.20703.4961-4.4375 3.32812-4.4375-1.85938-1.9961 2.47657-2.4453 3.64062-2.97657.79688-1.46093.39062-4.4375 3.58203-.83203.46485-3.60547 1.875"/><path fill="#00c4fc" fill-rule="evenodd" d="M161.7539 460.15625l-.53906-2.01953.53907-2.44922 4.4375 1.4336.6914 1.01562-.6914.72656-4.4375 1.29297"/><path fill="#00e8fc" fill-rule="evenodd" d="M170.6289 347.39844l-.23046-.21875.23047-.26172.44922.26172-.44922.21875m4.4375-9.00781l-.08203-.08985.08203-.09765.10156.09765-.10156.08985"/><path fill="#50fcfc" fill-rule="evenodd" d="M197.26172 333.40625l-2.2539-3.98047 2.2539-1.67187 1.71094-2.76954-.79688-4.4375 3.52344-1.34375v6.57032l-1.2461 3.65234 1.2461 1.20703 4.4375.89453v2.23438l-.53906.10156.53906 3.29297.76953-3.29297-.76953-.10156v-2.23438l4.4375 1.08985 4.4414-1.5664 1.8125-1.625-1.8125-2.17188-4.4414-.65625-4.4375-.27344-4.4375-.55078v-6.57031l1.36719 1.34375 3.0703 2.32421 3.56642 2.11329.87109.20703 1.50781-.20704 2.9336-1.35546 2.3203 1.35546 2.1172 4.3125.05468.12891-.05469.0586-4.4375 3.93359-2.05859.44531-2.38281 1.75781-4.23438 2.6797-.20312.14452-.53516-.14453-3.90234-1.14844-3.94922-3.28906-.48828-.45703"/><path fill="#00e8fc" fill-rule="evenodd" d="M201.69922 330.63281l-1.2461-1.20703 1.2461-3.65234 4.4375.55078 4.4375.27344v2.34765l-1.41797.48047 1.41797.54297 1.14844-.54297-1.14844-.48047v-2.34765l4.4414.65625 1.8125 2.17187-1.8125 1.625-4.4414 1.5664-4.4375-1.08984-4.4375-.89453m4.4375 96.78516l-2.25-.34766 2.25-.3789.29687.3789-.29687.34766m0 8.85547l-.76953-.32813.76953-.82422.51562.82422-.51562.32813"/><path fill="#fff" fill-opacity="0" fill-rule="evenodd" d="M206.13672 333.76172l-.53906.10156.53906 3.29297.76953-3.29297-.76953-.10156"/><path fill="#00d4fc" fill-rule="evenodd" d="M210.57422 329.96875l-1.41797-.54297 1.41797-.48047 1.14844.48047-1.14844.54297"/><path fill="#50fcfc" fill-rule="evenodd" d="M215.01563 347.2461l-.51954-.06641.51953-.08594.07032.08594-.07031.0664"/><path fill="#fff" fill-opacity="0" fill-rule="evenodd" d="M228.32813 424.20313l-2.69922 2.86718 2.69922.34766 1.64453-.34766-1.64453-2.86719"/><path fill="#00e8fc" fill-rule="evenodd" d="M228.32813 434.10938l-.96875-2.60157.96875-.91406 1.67578.91406 2.76172.86719v3.05469l-.57813.51562.57813.35547.77734-.35547-.77734-.51562V432.375l4.4414 2.21094 1.04688 1.35937 3.39062 1.92188 2.9414 2.51562-2.9414 2.16797-2.2461-2.16797-2.1914-3.57422-4.4414 1.6172-4.01954-2.48048-.41797-1.83594"/><path fill="#00d4fc" fill-rule="evenodd" d="M232.76563 436.30078l-.57813-.35547.57813-.51562.77734.51562-.77734.35547"/><path fill="#50fcfc" fill-rule="evenodd" d="M312.65625 462.98047l-.76953-.40625.76953-.66406.5039.66406-.5039.40625m22.1914 1.96484l-3.42577-2.3711 3.42578-1.86327 4.4414-.23047 4.4375 1.25781 2.0039.83594-2.0039 1.0039-4.4375 1.9336-4.4414-.5664"/><g clip-path="url(#d)"><path fill="#50fcfc" fill-rule="evenodd" d="M374.79297 463.66797l-1.59375-1.09375 1.59375-2.25 1.10547-2.1875 2.88672-4.4375.44921-.44531 4.4375.3789v2.98438l-2.54687 1.51953.90625 4.4375 1.58203 4.4414.0586.62891.65625-.6289 3.78125-.50782 1.86718-3.9336-1.86719-3.87108-.89843-.56641-3.53906-1.51953v-2.98438l4.4375-2.42578 4.4375 1.52344.59765.96875-.59765.61328-1.58985 3.82422 1.09375 4.4375-.17578 4.4414-.58594 4.4375 1.25781 1.125 3.75782 3.3125.67969.45313 3.30468 3.98438h-2.8125l-.49219-.59375-4.4375-3.38282-4.4375-.1836-3.16406 4.16017h-.88672l-.38671-1.54688-2.45704-2.89063-.34765-4.4375-.10938-4.4375-1.3125-4.4414-.21094-.52344-1.2578.52344-3.1836 1.09375"/></g><path fill="#00e8fc" fill-rule="evenodd" d="M382.03125 462.57422l-.90625-4.4375 2.54688-1.51953 3.53906 1.51953.89844.5664 1.86718 3.8711-1.86719 3.9336-3.78125.5078-.65625.62891-.05859-.6289-1.58203-4.44141"/><g clip-path="url(#e)"><path fill="#00e8fc" fill-rule="evenodd" d="M384.94531 480.32813h1.47656l1.6875-2.21875 4.4375 1.16406 1.27735 1.05469h3.65234l-.49219-.59375-4.4375-3.38282-4.4375-.1836-3.16406 4.16017"/></g><g clip-path="url(#f)"><path fill="#00d4fc" fill-rule="evenodd" d="M386.42188 480.32813h1.47656l.21094-.27735.8125.27735h4.90234l-1.27735-1.0547-4.4375-1.16406-1.6875 2.21875"/></g><g clip-path="url(#g)"><path fill="#00c4fc" fill-rule="evenodd" d="M387.89844 480.32813l.21094-.27735.8125.27735h-1.02344"/></g><g clip-path="url(#h)"><path fill="#fff" fill-opacity="0" fill-rule="evenodd" d="M467.9961 480.32813H468V311.67188h-.0039H468v168.65625h-.0039"/></g><path fill="#fff" fill-opacity="0" fill-rule="evenodd" d="M197.83594 423.64453l5.8164.51563.87891-9.92188-5.8164-.51562-.87891 9.92187"/><path fill-rule="evenodd" d="M202.03906 415.85938l.5039.04296-.55468 6.26954-.78516-.07032.39844-4.46875-1.38281-.125.04688-.55078.5664-.01562.2539-.03125.23829-.07032.21484-.125.1914-.1914.16798-.28125.14062-.38281"/><path fill="#fff" fill-opacity="0" fill-rule="evenodd" d="M205.20313 445.59766l5.28125-2.4961-4.25782-9.00781-5.27734 2.4961 4.2539 9.0078"/><path fill-rule="evenodd" d="M204.89453 436.7539l.46094-.21874 2.6875 5.6914-.71094.33594-1.91797-4.0586-1.2539.59376-.23828-.50391.47656-.29688.20703-.15625.16797-.17968.125-.21485.0664-.26562.00391-.32422-.07422-.40234"/><path fill="#fff" fill-opacity="0" fill-rule="evenodd" d="M162.5625 443.89063l.08594-5.84375-9.95703-.14844-.08985 5.83984 9.96094.15235"/><path fill-rule="evenodd" d="M154.48828 440.26953l.00781-.51172 6.29297.09766-.01172.78515-4.48828-.0664-.02344 1.38672-.55468-.00781-.05469-.5625-.05078-.25-.08594-.23047-.14062-.20704-.20703-.17578-.28907-.14843-.39453-.10938"/><g clip-path="url(#i)"><path fill="none" stroke="#000" stroke-linecap="round" stroke-linejoin="round" stroke-miterlimit="10" stroke-width=".5" d="M147.35547 479.28516l-6.71094 2.08593"/></g><g clip-path="url(#j)"><path fill="none" stroke="#000" stroke-linecap="round" stroke-linejoin="round" stroke-miterlimit="10" stroke-width=".5" d="M147.35547 479.28516l1.74219 1.73047"/></g><g clip-path="url(#k)"><path fill="none" stroke="#000" stroke-linecap="round" stroke-linejoin="round" stroke-miterlimit="10" stroke-width=".5" d="M146.3789 479.58984l1.7422 1.72657"/></g><g clip-path="url(#l)"><path fill="none" stroke="#000" stroke-linecap="round" stroke-linejoin="round" stroke-miterlimit="10" stroke-width=".5" d="M160.65625 479.24219l-6.6836 2.17187"/></g><g clip-path="url(#m)"><path fill="none" stroke="#000" stroke-linecap="round" stroke-linejoin="round" stroke-miterlimit="10" stroke-width=".5" d="M160.65625 479.24219l1.76563 1.70312"/></g><g clip-path="url(#n)"><path fill="none" stroke="#000" stroke-linecap="round" stroke-linejoin="round" stroke-miterlimit="10" stroke-width=".5" d="M159.6836 479.5586l1.76562 1.70312"/></g><g clip-path="url(#o)"><path fill="none" stroke="#000" stroke-linecap="round" stroke-linejoin="round" stroke-miterlimit="10" stroke-width=".5" d="M173.96094 479.20703l-6.66016 2.24219"/></g><g clip-path="url(#p)"><path fill="none" stroke="#000" stroke-linecap="round" stroke-linejoin="round" stroke-miterlimit="10" stroke-width=".5" d="M173.96094 479.20703l1.78125 1.6875"/></g><g clip-path="url(#q)"><path fill="none" stroke="#000" stroke-linecap="round" stroke-linejoin="round" stroke-miterlimit="10" stroke-width=".5" d="M172.99219 479.53516l1.78125 1.6875"/></g><g clip-path="url(#r)"><path fill="none" stroke="#000" stroke-linecap="round" stroke-linejoin="round" stroke-miterlimit="10" stroke-width=".5" d="M187.3086 479.3086l-6.72657 2.03906"/></g><g clip-path="url(#s)"><path fill="none" stroke="#000" stroke-linecap="round" stroke-linejoin="round" stroke-miterlimit="10" stroke-width=".5" d="M187.3086 479.3086l1.73046 1.73827"/></g><g clip-path="url(#t)"><path fill="none" stroke="#000" stroke-linecap="round" stroke-linejoin="round" stroke-miterlimit="10" stroke-width=".5" d="M186.32813 479.60547l1.73046 1.73828"/></g><g clip-path="url(#u)"><path fill="none" stroke="#000" stroke-linecap="round" stroke-linejoin="round" stroke-miterlimit="10" stroke-width=".5" d="M200.54688 479.08594l-6.57422 2.48828"/></g><g clip-path="url(#v)"><path fill="none" stroke="#000" stroke-linecap="round" stroke-linejoin="round" stroke-miterlimit="10" stroke-width=".5" d="M200.54688 479.08594l1.84375 1.61719"/></g><g clip-path="url(#w)"><path fill="none" stroke="#000" stroke-linecap="round" stroke-linejoin="round" stroke-miterlimit="10" stroke-width=".5" d="M199.58984 479.44531l1.84375 1.6211"/></g><g clip-path="url(#x)"><path fill="none" stroke="#000" stroke-linecap="round" stroke-linejoin="round" stroke-miterlimit="10" stroke-width=".5" d="M213.91406 479.23828l-6.67969 2.1836"/></g><g clip-path="url(#y)"><path fill="none" stroke="#000" stroke-linecap="round" stroke-linejoin="round" stroke-miterlimit="10" stroke-width=".5" d="M213.91406 479.23828l1.76953 1.69922"/></g><g clip-path="url(#z)"><path fill="none" stroke="#000" stroke-linecap="round" stroke-linejoin="round" stroke-miterlimit="10" stroke-width=".5" d="M212.9414 479.55469l.88673.85156"/></g><g clip-path="url(#A)"><path fill="none" stroke="#000" stroke-linecap="round" stroke-linejoin="round" stroke-miterlimit="10" stroke-width=".5" d="M227.1289 478.96484l-6.47656 2.72657"/></g><g clip-path="url(#B)"><path fill="none" stroke="#000" stroke-linecap="round" stroke-linejoin="round" stroke-miterlimit="10" stroke-width=".5" d="M227.1289 478.96484l1.90235 1.55078"/></g><g clip-path="url(#C)"><path fill="none" stroke="#000" stroke-linecap="round" stroke-linejoin="round" stroke-miterlimit="10" stroke-width=".5" d="M226.1875 479.36328l.94922.77344"/></g><g clip-path="url(#D)"><path fill="none" stroke="#000" stroke-linecap="round" stroke-linejoin="round" stroke-miterlimit="10" stroke-width=".5" d="M240.34766 478.75781l-6.28516 3.14063"/></g><g clip-path="url(#E)"><path fill="none" stroke="#000" stroke-linecap="round" stroke-linejoin="round" stroke-miterlimit="10" stroke-width=".5" d="M240.34766 478.75781l2 1.42188"/></g><g clip-path="url(#F)"><path fill="none" stroke="#000" stroke-linecap="round" stroke-linejoin="round" stroke-miterlimit="10" stroke-width=".5" d="M239.4336 479.21484l1 .71094"/></g><g clip-path="url(#G)"><path fill="none" stroke="#000" stroke-linecap="round" stroke-linejoin="round" stroke-miterlimit="10" stroke-width=".5" d="M253.55078 478.55078l-6.0625 3.55469"/></g><g clip-path="url(#H)"><path fill="none" stroke="#000" stroke-linecap="round" stroke-linejoin="round" stroke-miterlimit="10" stroke-width=".5" d="M253.55078 478.55078l2.08984 1.28906"/></g><path fill="none" stroke="#000" stroke-linecap="round" stroke-linejoin="round" stroke-miterlimit="10" stroke-width=".5" d="M252.66797 479.07031l1.04687.64063"/><g clip-path="url(#I)"><path fill="none" stroke="#000" stroke-linecap="round" stroke-linejoin="round" stroke-miterlimit="10" stroke-width=".5" d="M266.58203 478.13672l-5.49219 4.38281"/></g><path fill="none" stroke="#000" stroke-linecap="round" stroke-linejoin="round" stroke-miterlimit="10" stroke-width=".5" d="M266.58203 478.13672l2.25.97265m-3.05078-.33593l1.1289.48828"/><g clip-path="url(#J)"><path fill="none" stroke="#000" stroke-linecap="round" stroke-linejoin="round" stroke-miterlimit="10" stroke-width=".5" d="M279.59375 477.80469l-4.88672 5.05078"/></g><path fill="none" stroke="#000" stroke-linecap="round" stroke-linejoin="round" stroke-miterlimit="10" stroke-width=".5" d="M279.59375 477.80469l2.35938.67969"/><g clip-path="url(#K)"><path fill="none" stroke="#000" stroke-linecap="round" stroke-linejoin="round" stroke-miterlimit="10" stroke-width=".5" d="M292.8789 477.77734l-4.82812 5.10547"/></g><path fill="none" stroke="#000" stroke-linecap="round" stroke-linejoin="round" stroke-miterlimit="10" stroke-width=".5" d="M292.8789 477.77734l2.3672.64844"/><g clip-path="url(#L)"><path fill="none" stroke="#000" stroke-linecap="round" stroke-linejoin="round" stroke-miterlimit="10" stroke-width=".5" d="M306.27344 477.85156l-4.98438 4.95313"/></g><path fill="none" stroke="#000" stroke-linecap="round" stroke-linejoin="round" stroke-miterlimit="10" stroke-width=".5" d="M306.27344 477.85156l2.34375.72266"/><g clip-path="url(#M)"><path fill="none" stroke="#000" stroke-linecap="round" stroke-linejoin="round" stroke-miterlimit="10" stroke-width=".5" d="M319.34766 477.63281l-4.50391 5.39063"/></g><path fill="none" stroke="#000" stroke-linecap="round" stroke-linejoin="round" stroke-miterlimit="10" stroke-width=".5" d="M318.6914 478.41797l1.20313.25"/><g clip-path="url(#N)"><path fill="none" stroke="#000" stroke-linecap="round" stroke-linejoin="round" stroke-miterlimit="10" stroke-width=".5" d="M332.53906 477.53125l-4.25781 5.59375"/></g><path fill="none" stroke="#000" stroke-linecap="round" stroke-linejoin="round" stroke-miterlimit="10" stroke-width=".5" d="M331.91797 478.34766l1.21094.1953"/><g clip-path="url(#O)"><path fill="none" stroke="#000" stroke-linecap="round" stroke-linejoin="round" stroke-miterlimit="10" stroke-width=".5" d="M344.91406 477.02344l-2.375 6.61328"/></g><path fill="none" stroke="#000" stroke-linecap="round" stroke-linejoin="round" stroke-miterlimit="10" stroke-width=".5" d="M344.5664 477.98438l1.21485-.17579"/><g clip-path="url(#P)"><path fill="none" stroke="#000" stroke-linecap="round" stroke-linejoin="round" stroke-miterlimit="10" stroke-width=".5" d="M358.1914 477.00781l-2.30077 6.64063"/></g><g clip-path="url(#Q)"><path fill="none" stroke="#000" stroke-linecap="round" stroke-linejoin="round" stroke-miterlimit="10" stroke-width=".5" d="M373.29297 478.39844l-5.8711 3.86328"/></g><g clip-path="url(#R)"><path fill="none" stroke="#000" stroke-linecap="round" stroke-linejoin="round" stroke-miterlimit="10" stroke-width=".5" d="M387.11719 479.63672l-6.89063 1.38281"/></g><g clip-path="url(#S)"><path fill="none" stroke="#000" stroke-linecap="round" stroke-linejoin="round" stroke-miterlimit="10" stroke-width=".5" d="M395.36719 477.21094l3.23828 6.23437"/></g><path fill="none" stroke="#000" stroke-linecap="round" stroke-linejoin="round" stroke-miterlimit="10" stroke-width=".5" d="M395.83984 478.11719l.69532-1.00781"/><g clip-path="url(#T)"><path fill="none" stroke="#000" stroke-linecap="round" stroke-linejoin="round" stroke-miterlimit="10" stroke-width=".5" d="M406.83203 480.88281l6.9375-1.10937"/></g><g clip-path="url(#U)"><path fill="none" stroke="#000" stroke-linecap="round" stroke-linejoin="round" stroke-miterlimit="10" stroke-width=".5" d="M427.03125 481.14844l-6.83203-1.64063"/></g><g clip-path="url(#V)"><path fill="none" stroke="#000" stroke-linecap="round" stroke-linejoin="round" stroke-miterlimit="10" stroke-width=".5" d="M440.14063 478.90234l-6.41797 2.85157"/></g><g clip-path="url(#W)"><path fill="none" stroke="#000" stroke-linecap="round" stroke-linejoin="round" stroke-miterlimit="10" stroke-width=".5" d="M439.20703 479.3164l.96875.75782"/></g><g clip-path="url(#X)"><path fill="none" stroke="#000" stroke-linecap="round" stroke-linejoin="round" stroke-miterlimit="10" stroke-width=".5" d="M452.88672 478.01172l-5.28125 4.63672"/></g><path fill="none" stroke="#000" stroke-linecap="round" stroke-linejoin="round" stroke-miterlimit="10" stroke-width=".5" d="M452.11719 478.6836l1.14844.43359"/><g clip-path="url(#Y)"><path fill="none" stroke="#000" stroke-linecap="round" stroke-linejoin="round" stroke-miterlimit="10" stroke-width=".5" d="M467.0586 479.96875l-6.9922.71875"/></g><g clip-path="url(#Z)"><path fill="none" stroke="#000" stroke-linecap="round" stroke-linejoin="round" stroke-miterlimit="10" stroke-width=".5" d="M466.03906 480.07422l.6836 1.01953"/></g><g clip-path="url(#aa)"><path fill="none" stroke="#000" stroke-linecap="round" stroke-linejoin="round" stroke-miterlimit="10" stroke-width=".5" d="M147.36719 466.01172l-6.73438 2.0039"/></g><path fill="none" stroke="#000" stroke-linecap="round" stroke-linejoin="round" stroke-miterlimit="10" stroke-width=".5" d="M147.36719 466.01172l1.72265 1.7461m-2.70312-1.45313l1.72266 1.7461m12.5625-2.07032l-6.71485 2.0664m6.71484-2.0664l1.73829 1.73437m-2.71485-1.43359l1.73828 1.73437m12.5547-2.03515l-6.71876 2.0664m6.71875-2.0664l1.73828 1.73437m-2.71484-1.43359l1.73828 1.73437m12.5586-2.01953l-6.72657 2.03516m6.72656-2.03516l1.73047 1.7422m-2.71094-1.44532l1.73047 1.74219m12.52344-2.16407l-6.64453 2.28516m6.64453-2.28516l1.79688 1.67188m-2.76172-1.33985l1.79297 1.67188m12.44922-2.10938l-6.57032 2.4961m6.57031-2.4961l1.84766 1.6172m-2.80078-1.25391l1.84375 1.61718m12.29688-2.27343l-6.3125 3.08203m6.3125-3.08203l1.98828 1.4414m-2.90625-.99219l1.98437 1.44141m12.11328-2.14062l-6.04297 3.58203m6.04297-3.58203l2.09766 1.27343m-2.97656-.7539l2.09765 1.27734m11.99219-1.96484l-5.83203 3.91797m5.83203-3.91797l2.16406 1.15625m-3.01172-.58594l2.16407 1.15625m11.88672-1.88281l-5.60938 4.23047m5.60938-4.23047l2.22265 1.03515m-3.03906-.41797l1.11328.51563m12.94531-1.22656l-5.46484 4.41797m5.46484-4.41797l2.25781.96094m-3.05078-.31641l1.12891.48047m12.97266-1.13281l-5.45313 4.43359m5.45313-4.4336l2.26172.95704m-3.0547-.3125l1.13282.48047m12.78516-1.33985l-5.07422 4.86328m5.07422-4.86328l2.33203.76953m-3.07031-.0625l1.16796.38672m12.61329-1.34765l-4.52735 5.37109m4.52735-5.3711l2.39843.51563m10.4414-.85156l-3.57812 6.04297m3.57813-6.04297l2.45312.10937m9.6797-.55078l-1.21095 6.92578m1.03516-5.91797l1.16406-.3789m10.97266-.59766l1.4961 6.86328m-1.27735-5.86718l.9336-.79297m9.54687 4.25l6.72656-2.04297m7.16406-1.11328l5.57813 4.26953m7.01172-2.1914l7.02734.11718m11.57031-3.09766l-3.53906 6.07422m18.2539-4.55469l-6.33984 3.03516m19.32422-3.58984l-5.67578 4.14453m4.85156-3.53906l1.10157.53515m11.87109-2.16015l-3.34375 6.18359m2.85937-5.28125l1.22657.00781m12.53125-.92969l-3.25782 6.22266m2.78516-5.3164l1.22656-.01172"/><g clip-path="url(#ab)"><path fill="none" stroke="#000" stroke-linecap="round" stroke-linejoin="round" stroke-miterlimit="10" stroke-width=".5" d="M147.36719 452.69531l-6.73438 2.00781"/></g><path fill="none" stroke="#000" stroke-linecap="round" stroke-linejoin="round" stroke-miterlimit="10" stroke-width=".5" d="M147.36719 452.69531l1.72265 1.7461m-2.70312-1.45313l1.72266 1.7461m12.62109-1.85938l-6.83203 1.64453m6.83203-1.64453l1.6289 1.83984m-2.62109-1.59765l1.625 1.83593M174.07422 453l-6.88672 1.39844M174.07422 453l1.5586 1.89062m-2.5625-1.6875l1.5625 1.89063m12.79296-1.875l-6.96094.96094m6.96094-.96094l1.4375 1.98437m-2.44922-1.84765l1.4375 1.98828m12.85938-2.3125l-6.89844 1.33594m6.89844-1.33594l1.54297 1.90625m-2.54688-1.71094l1.54297 1.90625m12.74219-2.2461l-6.83594 1.6211m6.83594-1.6211l1.6211 1.84376M213 453.125l1.6211 1.83984m12.61327-2.33984l-6.6875 2.14844m6.6875-2.14844l1.76172 1.71094m-2.73437-1.39844l1.75781 1.71094m-2.73047-1.39844l.8789.85547m14.25782-1.8086l-6.4414 2.8047m6.4414-2.8047l1.92188 1.52344m-2.85938-1.11719l1.92188 1.52735m-2.85938-1.11719l.96094.76172m14.26172-1.5039l-6.5039 2.65624m6.5039-2.65625l1.88672 1.57032m-2.83203-1.1836l1.8828 1.57031m12.26173-2.21093l-6.27344 3.16406m6.27344-3.16406l2.0039 1.41406m-2.91797-.95313l1.00391.70704m13.01563-1.53125l-5.85157 3.89062m5.85157-3.89062l2.15625 1.16406m-3.00782-.59766l1.07813.58203m13.28515-.8125l-6.24609 3.21875m6.2461-3.21875l2.01562 1.39844m-2.92578-.92969l1.00781.69922m13.35156-.875l-6.51562 2.63281m6.51562-2.6328l1.8789 1.57421m-2.82812-1.1914l.94141.78906m13.19531-1.45313l-6.26172 3.19531m6.26172-3.1953l2.00782 1.40624m11.10546-1.75l-5.85937 3.88281m5.85937-3.8828l2.15625 1.16796m10.67579-1.75l-4.89063 5.04688m4.89063-5.04688l2.35546.67969m9.92188-1.375l-2.8164 6.4375m2.8164-6.4375l2.44531-.1875m10.41797.02344l-1.91016 6.76171m1.63282-5.77734l1.19922-.25781m13.74218.0039l-4.61328 5.30079m3.94531-4.52735l1.19532.27735m12.8828-.96485l-4.80077 5.13281m19.20703-2.16406l-6.98047-.8086m19.94531 1.97657l-6.28515-3.14062m5.37109 2.68359l.03125 1.22656m14.23828-3.83594l-6.36328 2.98829m5.4375-2.55078l.98047.73437m11.90234-2.67969l-3.64453 6.00781m3.11328-5.1328l1.22657.0664m10.94921-1.44922l-.30468 7.01953m.30468-7.01953l2.21485-1.05469"/><g clip-path="url(#ac)"><path fill="none" stroke="#000" stroke-linecap="round" stroke-linejoin="round" stroke-miterlimit="10" stroke-width=".5" d="M147.46875 439.83594l-6.9375 1.09375"/></g><path fill="none" stroke="#000" stroke-linecap="round" stroke-linejoin="round" stroke-miterlimit="10" stroke-width=".5" d="M147.46875 439.83594l1.47656 1.96094m-2.48437-1.80079l.73828.98047m13.60937-.95703l-6.98828.72656m6.98828-.72656l1.3711 2.03906m-2.38672-1.93359l1.3711 2.03906m12.97265-1.98828l-7.01563.41406m7.01563-.41406l1.27734 2.09375m-2.29687-2.03125l1.27734 2.09375m13.02344-2.48437l-6.94531 1.0703m6.9453-1.0703l1.46876 1.96875m-2.48047-1.8125l1.46875 1.96875m12.82031-2.32813l-6.8711 1.48047m6.8711-1.48047l1.58203 1.875m-2.58203-1.66016l1.58203 1.875m12.70703-2.1953l-6.8203 1.6875m6.8203-1.6875l1.64063 1.82812m-2.63281-1.58203l.82031.91406m13.4961-1.13672l-6.83594 1.64062m6.83593-1.64062l1.625 1.83984m-2.62109-1.60156l1.625 1.83984m12.61719-2.3164l-6.69922 2.11719m6.69922-2.1172l1.7539 1.71876m-2.72656-1.41016l.875.85938m12.86328-2.23047l-5.60156 4.24219m5.60156-4.2422l2.22656 1.03516m-3.03906-.41796l1.11328.51562m13.32422-.64453l-6.22265 3.26562m6.22265-3.26562l2.02735 1.38672m-2.9297-.91016l1.01173.6914m13.21484-1.15234l-6.23828 3.23829m6.23828-3.23829l2.01953 1.39063m-2.92578-.92188l1.00781.69922m12.87891-1.6953l-5.5664 4.28905m5.5664-4.28906l2.23438 1.01563m-3.04688-.39063l1.1211.50781m13.49609-.26172l-6.54688 2.55079m6.54688-2.55079l1.85937 1.59766m-2.8125-1.22656l.92969.79687m13.55078-.33984l-6.97265.89062m6.97265-.89062L322 441.9414m-2.4336-1.875l.71094 1.00391m13.54297-1.53125L327 441.23046m6.82031-1.6914l1.64063 1.82422m11.51172-2.32031l-6.4922 2.6836m6.4922-2.6836l1.89453 1.5586m9.75781-3.35548l-3.16797 6.27344m2.70703-5.35937l1.22656-.02735m11.71094-1.1836l-1.49219 6.8672m1.4922-6.8672l2.36327-.66405m8.87891 7.35156L385 437.1289m13.14844 6.5703l-2.32422-6.6328m1.98828 5.66796l-.83203.90235m15.42578-.4414l-4.21094-5.625m18.69922 4.07421l-6.5586-2.52344m6.5586 2.52344l.29688 2.4375m13.2539-3.77734l-7.02734.15625m7.02734-.15625l1.19922 2.14062m11.27735-4.33984l-5.35157 4.55469m5.35156-4.5547l2.28125.90235m8.63672-2.125l-.55859 7.0039m.47656-5.98827l1.1289-.48438"/><g clip-path="url(#ad)"><path fill="none" stroke="#000" stroke-linecap="round" stroke-linejoin="round" stroke-miterlimit="10" stroke-width=".5" d="M147.35938 426.03516l-6.71875 2.0664"/></g><path fill="none" stroke="#000" stroke-linecap="round" stroke-linejoin="round" stroke-miterlimit="10" stroke-width=".5" d="M147.35938 426.03516l1.73828 1.73047m-2.71875-1.4297l.87109.86329m13.57813-.03906l-7.02735-.1797m7.02734.1797l1.09375 2.1914m-2.11718-2.21875l.55078 1.09766m13.74219-.58594l-6.9336-1.15234m6.9336 1.15234l.77734 2.32813m-1.78906-2.4961l.39062 1.16406m13.96485-1.23828l-6.9922-.66797m6.9922.66797l.9414 2.26953m-1.95703-2.36718l.9375 2.26953m13.40625-2.65235l-7.01953.29297m7.01953-.29297l1.24219 2.1172m-2.26172-2.07423l1.24219 2.1172m13.01562-2.77345l-6.86328 1.51953m6.86328-1.51953l1.58985 1.8672m-2.58985-1.64454l1.59375 1.86719m12.66406-2.3125l-6.75 1.96484m6.75-1.96484l1.71094 1.75781m11.73828-.94531l-7.01953.33984m7.01953-.33984l1.25391 2.10937m11.90625-2.98828l-6.70703 2.10156m6.70703-2.10156l1.7461 1.72266m-2.72266-1.41797l.8711.85937m13.42968-1.13671l-6.72656 2.04296m6.72656-2.04296l1.73047 1.74218m-2.71094-1.44531l.86719.8711m13.5039-.86329l-6.8789 1.4336m6.8789-1.4336l1.57032 1.88672m-2.57032-1.67578l.78516.9414m13.60156-.36327l-7.02344-.14454m7.02344.14453l1.10938 2.19141m12.20703-2.1914l-7.02344-.14454m6 .125l.55469 1.09375m13.55078-2.40625l-6.5586 2.51953m6.5586-2.51953l1.85156 1.60938m11.64453-.96094l-6.92187 1.22266m6.92187-1.22266l1.51172 1.9336m11.5664-2.71876l-6.4453 2.79297m6.4453-2.79297l1.91798 1.52735m11.35937-1.61719l-6.3711 2.97266m6.3711-2.97266l1.95703 1.47656m9.7422-3.1328l-3.13673 6.28515m2.67969-5.3711l1.22656-.03125m10.10547-1.14453l1.74219 6.8086m-1.74219-6.8086l1.8125-1.65234m15.23047 7.10156l-5.71484-4.08984m4.8828 3.4961l-.16405 1.21483m14.16406-.42968l-5.42188-4.47266m4.63282 3.82422l-.2461 1.19922m15.11719-3.27735l-6.95703.98047m5.94531-.83984l.72266.99219m13.04687-2.59766l-5.83984 3.91016m5.83984-3.91016l2.16406 1.16016m10.3047-2.03907l-4.14844 5.66797m4.14843-5.66797l2.42969.34766m11.11328-.16797l-4.60547 5.3086m3.9375-4.53516l1.19531.27344"/><g clip-path="url(#ae)"><path fill="none" stroke="#000" stroke-linecap="round" stroke-linejoin="round" stroke-miterlimit="10" stroke-width=".5" d="M147.40625 412.88281l-6.8125 1.73828"/></g><path fill="none" stroke="#000" stroke-linecap="round" stroke-linejoin="round" stroke-miterlimit="10" stroke-width=".5" d="M147.40625 412.88281l1.64844 1.8164m-2.64063-1.5625l1.65235 1.81641m12.71484-1.78515l-6.92969 1.17187m6.92969-1.17187l1.4961 1.94531m-2.50391-1.77344l.7461.97266m13.59765-.1289l-6.97266-.85938m6.97266.85937l.8789 2.29297m-1.89453-2.41797l.4414 1.14453m13.8711-.8828l-6.9375-1.13282m6.9375 1.13281l.78906 2.32031m-1.80078-2.48437l.78907 2.32031m13.54687-2.22656l-6.95703-.99219m6.95703.99219l.83594 2.3086m-1.84766-2.45313l.41797 1.15234m13.84766-.6836l-6.83203-1.64062m6.83203 1.64063l.61328 2.375m12.77734-2.8086l-6.98437-.77343m6.98437.77344l.90625 2.28125m-1.92187-2.39454l.45312 1.14063m13.8789-1.05078l-6.98827-.73047m6.98828.73047l.92187 2.27734m-1.9375-2.38281l.46094 1.13672m13.89063-1.38282l-7.02735-.02343m7.02735.02343l1.14453 2.16797m12.13672-2.66797l-6.96094.97657m6.96094-.97656l1.4414 1.98828m11.83985-2.1836l-6.89453 1.36719m6.89453-1.36719l1.55078 1.90235m11.77734-1.82422l-6.92187 1.20703m6.92187-1.20703l1.50781 1.9375m11.83594-1.73828l-6.98047.80859m6.98047-.8086l1.39453 2.01954m11.94532-1.67578l-7.02735.125m7.02735-.125l1.1875 2.14453m12.0078-1.17578l-6.78905-1.8125m5.80078 1.55078l.27734 1.19531m14.07813-1.15234l-6.89063-1.375m5.88672 1.17187l.35547 1.17578m14.00781-2.07422l-6.98047.82422m5.96485-.70312l.69921 1.00781m13.34375-2.15625l-6.40625 2.88281m5.47657-2.46484l.96875.7539m13.45312-.6875l-6.76172 1.91407m5.78125-1.63672l.84766.88672M399.25 411.0664l-4.52734 5.375m4.52734-5.375l2.39844.51562m10.60937-.7461l-3.91406 5.83595m3.91406-5.83594l2.4414.25m10.5625-.4375l-3.29296 6.20703m2.8164-5.30078l1.22657-.0039m13.17969-.48829l-4.51953 5.3789m3.86328-4.59374l1.19922.2539m12.9375-.89062l-4.85157 5.08203m4.85157-5.08203l2.36328.66406m9.73047-1.42187l-2.41016 6.60156m2.0586-5.64063l1.21484-.17187"/><g clip-path="url(#af)"><path fill="none" stroke="#000" stroke-linecap="round" stroke-linejoin="round" stroke-miterlimit="10" stroke-width=".5" d="M147.4375 399.71875l-6.875 1.4375"/></g><path fill="none" stroke="#000" stroke-linecap="round" stroke-linejoin="round" stroke-miterlimit="10" stroke-width=".5" d="M147.4375 399.71875l1.57422 1.88281m-2.57422-1.67187l1.57031 1.88281m12.6914-2.3125l-6.76952 1.8789m6.76953-1.8789l1.6914 1.77734m-2.67578-1.5039l.84375.88672m13.54297.3203l-6.9414-1.08202m6.9414 1.08203l.80469 2.3164m-1.8164-2.47656l.40234 1.16016m13.94922-1.875l-6.9922.66797m6.9922-.66797l1.35547 2.04687m-2.3711-1.94921l.67578 1.02343m13.64063-.32812l-6.96485-.91797m6.96485.91797l.85937 2.29687m-1.8711-2.4336l.4297 1.15235m13.86328-2.14062l-6.89844 1.33203m6.89844-1.33203l1.54297 1.90625m-2.54688-1.71485l.77344.95704m13.5664-1.05079l-6.9375 1.13672m6.9375-1.13672l1.48438 1.95313m-2.4961-1.78906l.7461.97656m13.59375-1.03906l-6.96484.92968m6.96484-.92968l1.42969 1.99609m11.75781-2.57813l-6.70703 2.09766m6.70703-2.09765l1.7461 1.72265m11.61718-1.55469l-6.80469 1.76172m6.8047-1.76172l1.65624 1.8086m11.625-1.92969l-6.73828 2.0039m6.73828-2.0039l1.72266 1.7461m11.48047-2.0625l-6.51172 2.63671m6.51172-2.63672l1.8789 1.57422m11.36328-1.74219l-6.36718 2.96875m6.36718-2.96875l1.96094 1.47657m11.58594-.82031l-6.83203 1.65625m6.83203-1.65625l1.6289 1.83203m11.67188-1.89063l-6.80078 1.77344m5.8086-1.51563l.83202.90235m13.58204-.42578l-7.01954.30468m6-.2578l.6211 1.05468m13.67187-.375l-6.9336-1.14844m20.28907.77344l-7.01562-.39844m19.55078-2.01562l-5.45313 4.43359m5.45313-4.4336l2.25781.95313m11.11328-.88281l-5.5664 4.29297m4.7539-3.66797l1.1211.5039m13.01953-1.11328l-5.58985 4.25782m4.77735-3.63672l1.11328.51172m12.0625-1.9922l-3.6875 5.98048m3.15234-5.11328l1.22266.08203m12.125-1.20703l-2.6836 6.49218m2.29297-5.54687l1.22266-.11719m13.4414-.23437l-4.60156 5.30859m3.9336-4.53906l1.1953.27734m12.7461-1.08203l-4.51953 5.3789"/><g clip-path="url(#ag)"><path fill="none" stroke="#000" stroke-linecap="round" stroke-linejoin="round" stroke-miterlimit="10" stroke-width=".5" d="M465.82031 397.75l2.40235.51172"/></g><g clip-path="url(#ah)"><path fill="none" stroke="#000" stroke-linecap="round" stroke-linejoin="round" stroke-miterlimit="10" stroke-width=".5" d="M147.45703 386.5039l-6.91406 1.23829"/></g><path fill="none" stroke="#000" stroke-linecap="round" stroke-linejoin="round" stroke-miterlimit="10" stroke-width=".5" d="M146.45313 386.6836l.7578.96484m12.91798-2.6289l-5.625 4.21093m5.625-4.21094l2.21875 1.04297m11.77734 1.42578l-6.98828-.73047m6.98828.73047l.92188 2.27344m12.40625-2.79688l-7.01954.32032m7.01953-.32032l1.25 2.10938m11.6875-3.54297l-6.26171 3.1836m5.35156-2.71876l1.0039.70313m13.56641-.09375l-6.94922 1.03515m6.94922-1.03515l1.45703 1.97265m11.60547-2.85156l-6.44531 2.79297m6.44531-2.79297l1.91797 1.52735m11.32813-1.6797l-6.3086 3.09767m6.3086-3.09766l1.98828 1.4375m-2.90625-.98438l.99609.71875m13.46484-.57421l-6.76562 1.90234m6.76562-1.90235l1.69532 1.77344m-2.6797-1.4961l.84767.88673m13.54296-.75l-6.9453 1.07422m6.9453-1.07422l1.46875 1.96484m-2.48047-1.8086l.73438.98438m13.55078-1.36719l-6.85937 1.52735m6.85937-1.52735l1.59375 1.8672m-2.59375-1.64454l.79688.9336m13.48047-1.29688l-6.78907 1.8125m6.78906-1.8125l1.67188 1.79297m-2.66016-1.53125l.83594.89844m13.33203-1.57032l-6.51562 2.62891m6.51562-2.6289l1.8789 1.57812m-2.82812-1.19531l.94141.78906m13.41016-.92969l-6.69141 2.14844m6.6914-2.14844l1.75782 1.70703m11.42578-2.05078l-6.42969 2.83594m6.42969-2.83594l1.92969 1.51563m11.46875-1.3086l-6.59766 2.41797m6.59766-2.41797l1.82812 1.63672m11.6836-.79687l-6.98829.73828m6.98829-.73828l1.37109 2.03515m11.7539-2.86328l-6.60546 2.39453m6.60547-2.39453l1.8203 1.64453m11.125-2.38281l-5.86718 3.8711m5.86719-3.8711l2.15234 1.17578m11.00781-1.38672l-5.55859 4.29688m5.5586-4.29688l2.23828 1.00781m11.05078-1.04687l-5.5039 4.3711m5.5039-4.3711l2.2461.98047M426 384.54297l-4.76953 5.16015M426 384.54298l2.375.625m10.78906-.75781l-4.46484 5.42578m4.46484-5.42578l2.40235.48437m10.7539-.60547l-4.14844 5.67188m3.54688-4.84766l1.21484.17578m13.85938.44922l-6.46094 2.76953m5.51953-2.36719l.95703.76954"/><g clip-path="url(#ai)"><path fill="none" stroke="#000" stroke-linecap="round" stroke-linejoin="round" stroke-miterlimit="10" stroke-width=".5" d="M146.6875 376.07031l-5.375-4.52344"/></g><path fill="none" stroke="#000" stroke-linecap="round" stroke-linejoin="round" stroke-miterlimit="10" stroke-width=".5" d="M160.66797 372.75781l-6.70703 2.10156m5.73047-1.79687l.875.86328m13.52343-.73437l-6.91797 1.23437m6.91797-1.23437l1.51172 1.93359m11.80469-.70313l-6.92188-1.22656m6.92188 1.22656l.7539 2.33204m12.58204-3.4297l-6.96094.96876m6.96094-.96875l1.4375 1.98828m11.84765-2.15234l-6.90625 1.29687m6.90625-1.29687l1.53516 1.91406m-2.53906-1.72656l.76562.95703m13.54297-1.19531l-6.88672 1.39843m6.88672-1.39844l1.5625 1.89454m-2.5625-1.69141l.78125.94922m13.34375-1.78906l-6.5 2.67187m6.5-2.67187l1.88672 1.5664m-2.83594-1.17578l.94531.78125m13.20704-1.41797l-6.27735 3.16406m6.27735-3.16406l2 1.41797m-2.91407-.95703l1 .70703m13.4297-.67578l-6.6797 2.17969m6.6797-2.17969l1.76562 1.70313m-2.73828-1.38672l.8828.85156m13.48048-.90235l-6.83203 1.64844m6.83203-1.64844l1.6289 1.83594m-2.6211-1.59765l.8125.91796m13.42579-1.39843l-6.69531 2.13281m6.69531-2.13281l1.75781 1.71484m-2.73047-1.40625l.87891.85938m13.24219-1.59766l-6.35938 2.99219m6.35938-2.99219l1.96484 1.46875m-2.89062-1.03516l.98047.73438m13.32421-1.01953l-6.48828 2.69531m6.48828-2.69531l1.89454 1.55469m-2.83985-1.16407l.94922.77735m13.4336-.83204l-6.73047 2.02344m6.73046-2.02344l1.72657 1.7422m-2.70703-1.44923l.86328.875m13.5078-.86718l-6.8828 1.42187m6.8828-1.42187l1.56642 1.88671m-2.57032-1.67968l.78516.9414m13.51953-1.21484l-6.85547 1.55469m6.85547-1.55469l1.60156 1.85547m-2.60156-1.6289l.80469.92577m13.35937-1.64453l-6.55078 2.53906m6.55078-2.53906l1.85547 1.60156m-2.8086-1.23437l.9297.80469m12.95312-1.89844l-5.78125 3.99219m5.78125-3.99219l2.17969 1.125m-3.01953-.54688l1.08593.56641m12.83985-1.4414l-5.32422 4.58203m5.32422-4.58204l2.28906.89063m10.9961-.92188l-5.26563 4.64844m5.26562-4.64844l2.30079.85938m11.03515-.83984l-5.30469 4.60937m5.3047-4.60937l2.28905.8789m11.35547-.4336l-5.96484 3.71876m5.96484-3.71875l2.1211 1.23047m10.55859-1.98438l-4.69531 5.22656m4.01172-4.46875l1.1914.29688m13.32422-.47656l-5.72656 4.07031m4.89453-3.48047l1.09375.55078"/><g clip-path="url(#aj)"><path fill="none" stroke="#000" stroke-linecap="round" stroke-linejoin="round" stroke-miterlimit="10" stroke-width=".5" d="M145.58984 363.625l-3.17968-6.26563"/></g><path fill="none" stroke="#000" stroke-linecap="round" stroke-linejoin="round" stroke-miterlimit="10" stroke-width=".5" d="M145.1289 362.71484l-.70702 1.00391m15.88671-1.38672l-5.98828-3.67578m5.11719 3.14063l-.07422 1.22265m14.78125-2.44922l-7.02734-.15234m7.02734.15234l1.10156 2.1914m12.1875-1.85155l-6.97656-.83204m6.97656.83204l.88672 2.28515m12.4414-2.40625l-7.0039-.58984m7.0039.58984l.96485 2.2539m-1.98437-2.33983l.48437 1.1289m13.85547-1.58203l-7.01172.48828m7.01172-.48828l1.29688 2.08203m-2.32032-2.01172l.65235 1.03906m13.67969-1.15625l-7 .58204m7-.58204l1.32812 2.0625m-2.34766-1.98046l.66407 1.03515m13.62109-1.49219l-6.90234 1.33204m6.90234-1.33204l1.54297 1.90625m-2.54688-1.71484l.76953.95703m13.33204-1.85547l-6.46875 2.7422m6.46875-2.7422l1.90625 1.54688m-2.84766-1.14844l.95313.77344m13.34765-1.0664l-6.55469 2.53124m6.5547-2.53125l1.85546 1.60547m-2.8086-1.23437l.92579.80078m13.28125-1.3164l-6.4336 2.8203m6.4336-2.8203l1.92578 1.52343m-2.85938-1.11328l.96094.76172m13.375-.95313l-6.60937 2.38672m6.60937-2.38672l1.82031 1.64453m-2.78125-1.29687l.91016.82031m13.3711-1.16016l-6.6172 2.3672m6.6172-2.3672l1.8125 1.65235m-2.77735-1.3086l.91016.82813m13.46093-.8789l-6.80078 1.78124m6.80078-1.78125l1.66016 1.80469m-2.64844-1.54297l.82813.90235m13.47265-1.16016l-6.79687 1.77734m6.79687-1.77734l1.66407 1.80469m-2.65235-1.54688l.83203.90235m13.4922-1.07813l-6.83985 1.60938m6.83984-1.60938l1.6211 1.84766m-2.61329-1.61329l.8086.92188m13.45312-1.33984l-6.7461 1.97656m6.7461-1.97656l1.71485 1.7578m-2.69532-1.46874l1.71094 1.7539m12.54297-2.17578l-6.66016 2.2422m6.66016-2.2422l1.78125 1.6836m-2.75-1.35547l1.78125 1.6836m12.34375-2.39454L380.49609 362m6.34766-3.01172l1.97266 1.46094m-2.89453-1.02344l1.96875 1.46094m12.26953-1.89844L393.8125 362m6.34766-3.01172l1.96875 1.46094m-2.89063-1.02344l1.96875 1.46485m12.35938-1.69922l-6.52735 2.60156m6.52735-2.60156l1.87109 1.58984m-2.82031-1.21094l.9336.79297m13.3203-1.19531l-6.5078 2.65234m6.5078-2.65234l1.88282 1.57031m-2.83203-1.1875l.9453.78906m13.35938-1.0703l-6.58984 2.4453m6.58984-2.4453l1.83203 1.6328m-2.79296-1.27734l.91796.8164m13.06641-1.77343l-6.0039 3.65234m6.0039-3.65234l2.10938 1.2539m11.3164-1.05859l-6.22656 3.25781m5.32031-2.78125l1.01172.69141"/><g clip-path="url(#ak)"><path fill="none" stroke="#000" stroke-linecap="round" stroke-linejoin="round" stroke-miterlimit="10" stroke-width=".5" d="M144.9336 350.5664l-1.8672-6.77734"/></g><g clip-path="url(#al)"><path fill="none" stroke="#000" stroke-linecap="round" stroke-linejoin="round" stroke-miterlimit="10" stroke-width=".5" d="M144.9336 350.5664l-1.78516 1.6836"/></g><path fill="none" stroke="#000" stroke-linecap="round" stroke-linejoin="round" stroke-miterlimit="10" stroke-width=".5" d="M159.45313 349.96484l-4.27735-5.57421m4.27734 5.57421l-1.01953 2.23438m15.70313-4.8125l-7.01563-.41406m7.01563.41406l1.02344 2.23047m12.29687-2.29688l-7.02344-.28515m7.02344.28515l1.0625 2.21485m12.21094-1.8047l-6.9414-1.10546m6.9414 1.10547l.79687 2.32031m-1.80859-2.48047l.40234 1.16016m13.96094-1.32031l-7.01172-.46485m7.01172.46485l1.00781 2.23828m-2.02734-2.30469l1.0039 2.23438m13.32423-2.6875l-7.00391.57421m7.0039-.57421l1.32422 2.0664m-2.33984-1.98047l.66016 1.03125m13.6289-1.4375l-6.91797 1.21485m6.91797-1.21485l1.51172 1.9336m-2.51562-1.75782l.7539.96875m13.60547-.85937l-6.9961.64453m6.9961-.64453l1.34375 2.05469M253 346.94922l1.34766 2.05469m12.88672-2.71875l-6.79688 1.78515m6.79688-1.78515l1.66406 1.80078m-2.65235-1.53906l.83203.89843m13.45704-1.21094l-6.76953 1.88672m6.76953-1.88671l1.6914 1.77734m-2.67578-1.5039l.84375.89062m13.55078-.71485l-6.95703.98829m6.95703-.98829l1.44532 1.98438m-2.45704-1.83985l.72266.9922m13.61328-1.06641l-6.97656.84765m6.97656-.84765l1.40235 2.01171m-2.41797-1.88671l.70312 1.0039m13.58594-1.3789l-6.89453 1.35156m6.89453-1.35156l1.54687 1.90234m-2.55078-1.70703l.77344.95312m13.48047-1.42187l-6.76563 1.89844m6.76563-1.89844l1.69531 1.77344m-2.67969-1.5l.84766.88671m13.51563-.89843l-6.89063 1.3711m6.89063-1.3711l1.55078 1.90234m-2.5547-1.70312l.77735.94921m13.5586-1.05078l-6.92578 1.17579m6.92578-1.17579l1.5 1.94532m-2.50782-1.77344l1.5 1.9414m12.7422-2.47265l-6.76563 1.89453m6.76562-1.89453l1.69531 1.77734m-2.67968-1.5l1.6953 1.77735m12.47267-2.44532l-6.5 2.67579m6.5-2.67579l1.88671 1.56641m-2.83203-1.17578l1.88672 1.5664m12.33594-2.03906l-6.42578 2.83985m6.42578-2.83985l1.92969 1.51953m-2.86328-1.10546l1.92968 1.51562m12.28125-2.01172l-6.35156 3.0039m6.35156-3.0039l1.96875 1.46485m-2.89062-1.02735l1.96484 1.46485m12.21875-2.01563l-6.24219 3.23047m6.2422-3.23047l2.01562 1.39453m-2.92578-.92578l2.01953 1.39453m12.1914-1.89062l-6.21484 3.28515m6.21484-3.28515l2.03125 1.3789m-2.9375-.89844l2.03125 1.375m12.07813-2.05078l-5.98828 3.67579m5.98828-3.67579l2.11328 1.2422m11.34375-.98048l-6.27734 3.15625"/><g clip-path="url(#am)"><path fill="none" stroke="#000" stroke-linecap="round" stroke-linejoin="round" stroke-miterlimit="10" stroke-width=".5" d="M466.69922 345.60156l2.0039 1.41797"/></g><g clip-path="url(#an)"><path fill="none" stroke="#000" stroke-linecap="round" stroke-linejoin="round" stroke-miterlimit="10" stroke-width=".5" d="M144.53125 337.33594l-1.0625-6.94531"/></g><g clip-path="url(#ao)"><path fill="none" stroke="#000" stroke-linecap="round" stroke-linejoin="round" stroke-miterlimit="10" stroke-width=".5" d="M144.53125 337.33594l-1.96875 1.46484"/></g><path fill="none" stroke="#000" stroke-linecap="round" stroke-linejoin="round" stroke-miterlimit="10" stroke-width=".5" d="M159.75 336.39453l-4.8711-5.0625m4.8711 5.0625l-.76172 2.33203m15.05469-4.01953l-6.82422-1.6875m6.82422 1.6875l.59766 2.3789m-1.59375-2.625l.30078 1.1875m14.10547-1.61327l-7.01563-.34375m7.01563.34375L188.5 336.2539m-2.0664-2.26954l1.04296 2.21875m13.29688-2.33984h-7.02735m7.02735 0l1.15234 2.16797m-2.17578-2.16797l.57813 1.08203m13.76171-1.13672l-7.02734.10938m7.02734-.10938l1.1836 2.14844m-2.20703-2.13281l1.1875 2.14844m13.14843-2.19922l-7.02343.17969m7.02343-.1797l1.20703 2.13673m-2.23046-2.10938l1.20703 2.13672m13.11328-2.42969l-6.98828.71094m6.98828-.71094l1.36719 2.03516m-2.38282-1.9336l1.3672 2.03907m12.78515-2.94922l-6.6289 2.32812m6.6289-2.32812l1.80469 1.66015m-2.76954-1.32421l1.8047 1.66406m12.46093-2.04297l-6.60156 2.41406m6.60156-2.41406l1.82422 1.63672m-2.78516-1.28516l.91406.8164m13.41407-1.0078l-6.70704 2.09375m6.70704-2.09375l1.74609 1.72656m-2.72266-1.42188l.875.86329m13.48828-.90235l-6.85156 1.5586m6.85156-1.5586l1.60547 1.85938m-2.60156-1.63282l.80078.9297m13.58203-.73048l-6.99218.71094m6.99218-.71094l1.36328 2.03906m-2.3828-1.9375l.68359 1.01954m13.63671-1.23829l-6.96484.94532m6.96484-.94531l1.4297 1.99218m-2.44141-1.85547l.71484.9961m13.4961-1.67188l-6.73048 2.02344m6.73047-2.02344l1.72657 1.74219m-2.70704-1.44922l.86329.8711m13.5039-.87891l-6.875 1.45312m6.875-1.45312l1.57422 1.88281m-2.57422-1.67187l.78516.9414m13.58984-.75l-6.9961.64844m6.9961-.64844l1.34766 2.04688m-2.36328-1.95313l.67187 1.02344m13.44531-2.04297l-6.5664 2.5m6.5664-2.5l1.84766 1.61328m-2.80469-1.25l1.84766 1.61328m11.84766-2.96484l-5.41797 4.47656m5.41797-4.47656l2.26953.9375m-3.05469-.28516l1.13281.46875m13.01172-1.0664l-5.5039 4.36719m5.5039-4.3672l2.25.98438m11.16016-.86328l-5.6914 4.125m5.6914-4.125l2.20312 1.07813m-3.03125-.47657l1.10156.53907m13.3047-.71094l-6.22266 3.26562m6.22265-3.26562l2.02735 1.38281m-2.9297-.90625l1.01173.6914m13.22265-1.13671l-6.2539 3.19922m6.2539-3.19922l2.01172 1.40625m-2.92187-.9375l2.01172 1.40234m12.08203-2.10547l-5.99219 3.67188m5.99219-3.67188l2.11328 1.2422m-2.98438-.71095l2.11328 1.2461m-2.98437-.71094l1.05469.625m14.0039-1.6875l-5.99609 3.66406"/><g clip-path="url(#ap)"><path fill="none" stroke="#000" stroke-linecap="round" stroke-linejoin="round" stroke-miterlimit="10" stroke-width=".5" d="M466.5586 332.03125l2.11327 1.2461"/></g><g clip-path="url(#aq)"><path fill="none" stroke="#000" stroke-linecap="round" stroke-linejoin="round" stroke-miterlimit="10" stroke-width=".5" d="M465.6875 332.5625l2.11328 1.25"/></g><g clip-path="url(#ar)"><path fill="none" stroke="#000" stroke-linecap="round" stroke-linejoin="round" stroke-miterlimit="10" stroke-width=".5" d="M144.0039 324.0625l-.0078-7.02734"/></g><g clip-path="url(#as)"><path fill="none" stroke="#000" stroke-linecap="round" stroke-linejoin="round" stroke-miterlimit="10" stroke-width=".5" d="M144.0039 324.0625l-2.16406 1.15234"/></g><g clip-path="url(#at)"><path fill="none" stroke="#000" stroke-linecap="round" stroke-linejoin="round" stroke-miterlimit="10" stroke-width=".5" d="M144.0039 323.03906l-1.08202.57813"/></g><path fill="none" stroke="#000" stroke-linecap="round" stroke-linejoin="round" stroke-miterlimit="10" stroke-width=".5" d="M158.95313 323.65625l-3.27344-6.21875m3.27344 6.21875l-1.38282 2.02734m16.14844-3.46093l-6.17578-3.35157m6.17578 3.35157l-.01953 2.45312m13.67187-3.34765l-6.85156-1.5586m6.85156 1.5586l.64063 2.36718m12.67187-2.35156l-6.84765-1.58984m6.84765 1.58984l.63282 2.3711m12.73828-2.6797l-6.96094-.97265m6.96094.97266l.83984 2.30468m-1.85156-2.4453l.83984 2.30468m13.51172-2.88672l-7.00781.47266m7.00781-.47266l1.29688 2.08203m-2.31641-2.01562l1.29688 2.08593m13.03125-2.26171l-6.9922.6914m6.9922-.6914l1.35937 2.03906m-2.3789-1.9414l1.35937 2.04296m12.8711-2.70703l-6.78516 1.82422m6.78515-1.82422l1.67578 1.79297m-2.66406-1.52735l1.67578 1.79297m12.60547-2.13281l-6.7461 1.96875m6.7461-1.96875l1.71485 1.75781m-2.69532-1.46875l1.71485 1.7539m12.69922-1.45312l-6.98047.79297m6.98047-.79297l1.39062 2.01954m-2.40625-1.90625l1.39063 2.02343m12.89062-2.45312l-6.88281 1.42578m6.88281-1.42578l1.5664 1.88672m-2.5664-1.6797l1.5664 1.88673m12.8086-1.70313l-7 .64453m7-.64453l1.34375 2.05078m-2.36328-1.95703l1.34375 2.05078m13-1.99609l-7.01953.34766m7.01953-.34766l1.25781 2.10547m-2.28125-2.05469l1.26172 2.10547m13.04688-2.47266l-6.96094.97657m6.96094-.97657l1.4414 1.98438m-2.45312-1.83985l1.4414 1.98438m12.84375-2.36328l-6.875 1.44922m6.875-1.44922l1.57422 1.8789m-2.57422-1.66796l1.57422 1.8789m12.77344-1.90234l-6.9414 1.07031m6.9414-1.07031l1.47265 1.96484m11.58594-2.85156l-6.42578 2.84375m6.42578-2.84375l1.92969 1.51563m10.90625-2.30079l-5.46875 4.41407m5.46875-4.41407l2.25781.96094m-3.05469-.3164l2.25782.96093m11.6289-1.85547l-5.01953 4.91797m5.01953-4.91797l2.33985.7422m-3.07031-.02735l1.17187.3711m11.60938-1.91407l-2.4922 6.57031m2.4922-6.57031l2.43359-.3086m7.27734.98829l4.71485 5.21093m-4.02735-4.45312l.41797-1.15235m17.92188 4.0547l-6.70704-2.10938m19.5547-.94531l-5.77344 4.0039m5.77343-4.0039l2.1836 1.12109m-3.02344-.53906l1.08984.5625m12.58985-1.69922l-4.82422 5.10937"/><g clip-path="url(#au)"><path fill="none" stroke="#000" stroke-linecap="round" stroke-linejoin="round" stroke-miterlimit="10" stroke-width=".5" d="M465.97266 317.99219l2.36718.65234"/></g><path fill="none" stroke="#000" stroke-linecap="round" stroke-linejoin="round" stroke-miterlimit="10" stroke-width=".5" d="M465.27344 318.73828l2.36328.64844m-3.0664.09375l1.18359.32422"/><path fill="#ff3030" fill-rule="evenodd" d="M437.7539 476.52344h7.69532V466.3789h-7.69531v10.14453"/><path fill="azure" fill-rule="evenodd" d="M439.58594 468.21094h.83594v5.74219h3.1914v.73828h-4.02734v-6.48047"/><path fill="#00f" fill-rule="evenodd" d="M383.80078 472.08594h8.61719V461.9414h-8.61719v10.14453"/><path fill="azure" fill-rule="evenodd" d="M385.63281 463.77344h.83203v2.82422h3.28907v-2.82422h.83203v6.48047h-.83203v-2.91797h-3.28907v2.91797h-.83203v-6.48047"/><path fill="#00f" fill-rule="evenodd" d="M317.22656 454.33203h8.61719V444.1875h-8.61719v10.14453"/><path fill="azure" fill-rule="evenodd" d="M319.0586 446.01953h.83202v2.82422h3.28516v-2.82422h.83594V452.5h-.83594v-2.91406h-3.28515V452.5h-.83204v-6.48047"/><path fill="#ff3030" fill-rule="evenodd" d="M362.30469 436.57813h7.6914v-10.14454h-7.6914v10.14454"/><path fill="azure" fill-rule="evenodd" d="M364.13672 428.26563h.83203v5.74218h3.19531v.73828h-4.02734v-6.48046"/><path fill="#00f" fill-rule="evenodd" d="M388.23828 432.14063h8.61719v-10.14454h-8.61719v10.14454"/><path fill="azure" fill-rule="evenodd" d="M390.07031 423.82813h.83594v2.82421h3.28516v-2.82421h.83203v6.48046h-.83203v-2.91796h-3.28516v2.91796h-.83594v-6.48046"/><path fill="#ff3030" fill-rule="evenodd" d="M295.72656 414.38672h7.69531v-10.14453h-7.6953v10.14453"/><path fill="azure" fill-rule="evenodd" d="M297.5586 406.07422h.83593v5.74219h3.1914v.73828h-4.02734v-6.48047"/><path fill="#ff3030" fill-rule="evenodd" d="M198.08203 409.94922h7.69531v-10.14453h-7.6953v10.14453"/><path fill="azure" fill-rule="evenodd" d="M199.91797 401.63672h.83203v5.73828h3.19531v.74219h-4.02734v-6.48047"/><path fill="#ffffe0" fill-rule="evenodd" d="M328.42969 390.57813h22.17969v-10.19141h-22.1797v10.1914"/><path fill-rule="evenodd" d="M331.92969 382.21875h.50781v6.29688h-.78516v-4.4922h-1.39062v-.55468l.5586-.0664.2539-.05079.23047-.08984.20312-.14453.17188-.20703.14453-.29688.10547-.39453m4.8125 0l.23047.01953.21875.05469.20703.08984.19531.1211.1836.14843.17187.17579.30469.42187.24218.49219.1797.54687.10937.57813.03906.58984-.03906.59375-.10938.58594-.17969.55469-.24218.5-.3047.42968-.17187.1797-.18359.15233-.19531.125-.20703.08985-.21875.0586-.23047.01952-.23047-.01953-.21875-.0586-.20703-.08983-.19531-.125-.1836-.15235-.17187-.17969-.3047-.42968-.24218-.5-.17969-.5547-.10937-.58593-.03906-.59375h.83203l.02734.5664.08203.50391.1289.44141.16017.375.1914.30078.21094.22266.22265.13672.22657.04687.22656-.04687.22266-.13672.21093-.22266.19141-.30078.16016-.375.1289-.4414.07813-.50391.03125-.5664-.03125-.5586-.07813-.5-.1289-.4375-.16016-.36328-.1914-.29297-.21094-.21485-.22266-.1328-.22656-.04298-.22656.04297-.22266.13281-.21094.21485-.1914.29297-.16016.36328-.1289.4375-.08204.5-.02734.5586h-.83203l.03906-.58985.10937-.57813.1797-.54687.24218-.49219.30469-.42188.17187-.17578.1836-.14843.1953-.1211.20704-.08984.21875-.05469.23047-.01953m5.08984 0h.51172v6.29688h-.78906v-4.4922h-1.38672v-.55468l.5586-.0664.2539-.05079.22656-.08984.20313-.14453.17578-.20703.14062-.29688.10547-.39453m2.82422 2.17578h.78906l.01953-.3164.0586-.28516.09765-.2539.14063-.21485.17969-.17578.22656-.1289.26172-.07813.3086-.02735.23827.01953.22266.0625.20703.10157.17969.14062.14844.17188.11328.20703.0703.23437.02345.26563-.01954.26953-.0664.22265-.10938.19141-.15625.17188-.19921.16406-.25.16406-.63282.39063-.53515.3125-.4375.3164-.34766.32422-.26563.33594-.1875.35156-.125.3711-.0703.39062-.01954.42188h4.21094v-.7422h-3.33203l.08203-.28515.11328-.23437.14844-.20313.1875-.17969.23047-.17187.27734-.17578.71875-.41797.41406-.20313.34766-.23046.28125-.25391.21875-.26563.16406-.27734.10938-.28516.0664-.28515.01953-.28125-.04296-.38281-.1211-.34766-.1875-.3086-.25-.26171-.30469-.21485-.34375-.15625-.3828-.09765-.40626-.03516-.4336.03125-.39843.10156-.35547.16406-.30469.23438-.24609.30469-.1875.375-.11719.44531-.03906.51953"/><path fill="#ffffe0" fill-rule="evenodd" d="M204.15625 373.71875h22.17969v-10.1914h-22.17969v10.1914"/><path fill-rule="evenodd" d="M207.65234 365.35938h.51172v6.29687h-.78906v-4.48828h-1.38672v-.5586l.5586-.0625.2539-.05468.23047-.08985.20313-.14062.17187-.21094.14063-.29297.10546-.39844m4.81641 0l.23047.01954.21875.05859.20703.08594.19531.1211.1836.15233.17187.17579.30078.41796.2461.4922.17968.54687.10938.58203.03906.58984-.03906.59375-.10938.58203-.17968.5547-.2461.5039-.30078.42578-.17187.17969-.1836.15234-.19531.125-.20703.09375-.21875.05469-.23047.01953-.23047-.01953-.21875-.05469-.20703-.09375-.19531-.125-.1875-.15234-.16797-.1797-.30469-.42577-.24219-.5039-.17968-.5547-.11328-.58203-.03516-.59375h.83203l.02734.5625.08203.50781.125.44141.16407.375.1914.30078.21094.21875.22266.13672.22656.04688.22656-.04688.22266-.13672.21094-.21875.1914-.30078.16016-.375.125-.4414.08203-.50782.03125-.5625-.03125-.5625-.08203-.5-.125-.4336-.16016-.36718-.1914-.29297-.21094-.21484-.22266-.1289-.22656-.04688-.22656.04687-.22266.1289-.21094.21485-.1914.29297-.16406.36719-.125.4336-.08204.5-.02734.5625h-.83203l.03516-.58985.11328-.58203.17968-.54688.2422-.49219.30468-.41796.16797-.17579.1875-.15234.19531-.1211.20703-.08593.21875-.0586.23047-.01952m5.08984 0h.51172v6.29687h-.78906v-4.48828h-1.38672v-.5586l.5586-.0625.2539-.05468.22656-.08985.20313-.14062.17578-.21094.14063-.29297.10546-.39844m2.82422 2.17579h.78516l.01953-.31641.0625-.28516.09766-.2539.14062-.21485.17969-.17187.22266-.1289.26562-.08204.3086-.02734.23827.02344.22266.0625.20703.10156.17578.13672.15235.17187.10937.20703.07422.23828.02344.26172-.01953.26953-.0664.22657-.10938.1914-.15625.16797-.19922.16406-.25.16797-.63281.38672-.53907.3125-.4375.3164-.34375.32423-.26562.33593-.1914.35157-.125.37109-.06642.39453-.02343.41797h4.21484v-.74219H221.125l.08203-.28125.11328-.23828.14844-.20312.1875-.1797.23047-.17187.27734-.17578.71875-.41406.41406-.20703.34766-.23047.27734-.25.22266-.26953.16406-.27735.10938-.28125.0625-.28515.02344-.28125-.04297-.38672-.1211-.34766-.1875-.30468-.25-.26563-.30468-.21094-.34375-.16015-.38282-.09766-.40625-.03515-.43359.03515-.39844.09766-.35547.16797-.30468.23437-.25.30469-.1836.3711-.11719.44921-.03906.51563"/><path fill="#ffffe0" fill-rule="evenodd" d="M323.99219 352.52344h22.17969v-10.19531h-22.1797v10.1953"/><path fill-rule="evenodd" d="M327.48828 344.16406H328v6.29297h-.78906v-4.48828h-1.38672v-.55469l.5586-.0664.2539-.0547.22656-.08983.20703-.14063.17188-.21094.14062-.29297.10547-.39453m4.8164 0l.22657.01953.21875.0547.21094.08983.19531.1211.1836.14844.17187.17578.30078.41797.2461.49609.17968.54688.10938.57812.03906.58984-.03906.59375-.10938.58594-.17969.55078-.24609.5039-.30078.42579-.17188.17969-.18359.15625-.19531.1211-.21094.09374-.21875.05469-.22656.01953-.23047-.01953-.21875-.05469-.20703-.09375-.19922-.1211-.1836-.15624-.17187-.17969-.30078-.42578-.24219-.5039-.17969-.55079-.11328-.58594-.03515-.59375h.83203l.02734.5625.08203.50782.125.4414.16406.375.19141.30078.21094.22266.22265.13672.22657.04687.22656-.04687.22266-.13672.21093-.22266.1875-.30078.16407-.375.125-.4414.08203-.50782.03125-.5625-.03125-.5625-.08203-.5-.125-.43359-.16407-.36719-.1875-.29297-.21093-.21093-.22266-.13282-.22656-.04687-.22656.04687-.22266.13282-.21094.21093-.1914.29297-.16407.36719-.125.4336-.08203.5-.02734.5625h-.83203l.03515-.58985.11328-.57813.1797-.54687.24218-.4961.30078-.41796.17188-.17578.18359-.14844.19922-.1211.20703-.08984.21875-.05469.23047-.01953m5.08984 0h.50781v6.29297h-.78515v-4.48828h-1.38672v-.55469l.5586-.0664.25-.0547.23046-.08983.20313-.14063.17578-.21094.14062-.29297.10547-.39453m6.80469 1.61719h-.78516l-.05469-.21094-.08203-.1875-.10546-.15625-.12891-.13281-.14844-.10156-.16015-.07422-.16797-.04688-.17188-.01562-.32812.04297-.28907.11719-.24609.19921-.20313.26563-.16015.33984-.11328.40235-.07031.46875-.02344.52734.1875-.20313.1875-.16015.1836-.1211.1875-.08984.1875-.0586.1914-.03906.40234-.02343.30469.03125.32031.08984.3164.15625.29688.21875.2539.28516.19923.35156.07031.19922.05469.21875.02734.23437.00781.25-.78906.04688-.02734-.25781-.07813-.25-.1211-.23438-.16015-.21094-.19531-.17968-.21875-.13672-.23828-.08594-.25781-.03125L342 347.25l-.24219.08594-.21875.13672-.1914.17968-.16016.21094-.125.23438-.07813.25-.02343.2578.02344.25782.07812.2539.125.23438.16016.21094.1914.17578.21875.13672.24219.08984.2539.03125.25782-.03125.23828-.08984.21875-.13672.19531-.17578.16016-.21094.1211-.23437.07812-.2539.02734-.25782.78906-.04688-.03125.3711-.09375.3711-.15625.35937-.22265.32812-.29297.28516-.16797.11719-.1875.10156-.20703.08203-.22266.0625-.24219.03906-.26171.01172-.28125-.01563-.26172-.04687-.23828-.07422-.21485-.10547-.19531-.13281-.17188-.15625-.15625-.17969-.1328-.20312-.1172-.22266-.10156-.24219-.14453-.53515-.08594-.58985-.02734-.64062.03906-.7461.11328-.66015.1875-.57813.1211-.2578.13672-.23048.15234-.20703.17188-.17969.18359-.15625.20312-.1289.21875-.10156.23047-.07422.25-.04297.26172-.01563.36719.03125.33203.09766.29297.15234.25781.19922.21094.23828.16406.27735.11719.30078.0625.32031"/><path fill="#ffffe0" fill-rule="evenodd" d="M152.26953 325.85156h22.17969v-10.1914h-22.17969v10.1914"/><path fill-rule="evenodd" d="M155.76953 317.49219h.50781v6.29687h-.78515v-4.49219h-1.38672v-.55468l.5586-.0664.25-.05079.23046-.08984.20313-.14063.17578-.21094.14062-.29687.10547-.39453m4.8125 0l.23047.01953.21875.05469.20703.08984.19922.1211.1836.14843.17187.17578.30078.42188.24219.49219.17969.54687.11328.57813.03906.59375-.03906.58984-.11328.58594-.1797.55468-.24218.5-.30078.4297-.17188.17968-.18359.15234-.19922.125-.20703.08985-.21875.05859-.23047.01953-.22656-.01953-.21875-.0586-.21094-.08984-.19531-.125-.1836-.15234-.17187-.17969-.30078-.42969-.24219-.5-.17969-.55468-.11328-.58594-.03906-.58985h.83594l.02734.5625.08203.50391.125.44531.16406.375.19141.29688.20703.22265.22266.13672.22656.04688.22656-.04688.22266-.13671.21094-.22266.1914-.29688.16407-.375.125-.4453.08203-.50392.02734-.5625-.02734-.5625-.08203-.5-.125-.4375-.16407-.36328-.1914-.29296-.21094-.21485-.22266-.13281-.22656-.04297-.22656.04297-.22266.13281-.20703.21485-.1914.29296-.16407.36329-.125.4375-.08203.5-.02734.5625H158.5l.03906-.59375.11328-.57813.1797-.54688.24218-.49218.30078-.42188.17188-.17578.18359-.14844.19531-.12109.21094-.08984.21875-.0547.22656-.01952m5.09375 0h.50781v6.29687h-.78515v-4.49219h-1.39063v-.55468l.5625-.0664.25-.05079.23047-.08984.20313-.14063.17578-.21094.14062-.29687.10547-.39453m6.80469 1.6211h-.78906l-.05078-.21095-.08204-.1875-.10547-.16015-.1328-.1289-.14454-.10548-.16016-.07422-.16796-.04296-.17188-.01563-.32812.03906-.28907.1211-.24609.1953-.20313.26954-.16015.33594-.11719.40625-.07031.46484-.02344.52735.1914-.20313.1836-.15625.1875-.125.1836-.08594.1875-.0625.1953-.03515.39845-.02344.30859.02734.32031.09375.3164.15625.29298.21875.2578.28516.19923.34765.07031.20313.05469.21484.02734.23438.0039.2539-.78515.04688-.02734-.26172-.07813-.25-.1211-.23437-.16015-.21094-.19531-.17578-.21875-.13672-.24219-.08985-.2539-.03125-.25391.03125-.24219.08985-.21875.13672-.19531.17578-.16016.21094-.12109.23437-.07813.25-.02734.26172.02734.25781.07813.25.1211.23438.16015.21094.19531.17968.21875.13672.24219.08594.2539.03125.25391-.03125.24219-.08594.21875-.13672.19531-.17969.16016-.21093.1211-.23438.07812-.25.02734-.25781.78516-.04688-.03125.3711-.08985.3711-.16015.35937-.22266.32812-.28906.28125-.17188.1211-.1875.10156-.20312.08203-.22656.0625-.23828.03906-.26172.01172-.28125-.01562-.26172-.04688-.23828-.07812-.21485-.10547-.19531-.1289-.17188-.15626-.15625-.17969-.13671-.20312-.11328-.22266-.10157-.24219-.14844-.53515-.08203-.59375-.02734-.64063.03906-.74218.11328-.66407.1875-.57812.1172-.2539.14062-.23048.15234-.20703.16797-.1836.1875-.15624.20312-.1289.21875-.10157.23047-.07031.25-.04688.26172-.01562.36328.03515.33203.09375.29688.15235.25781.19922.21094.24218.16406.27344.11719.30078.0625.32422"/></g></defs><use xlink:href="#av"/></svg>