<svg xmlns="http://www.w3.org/2000/svg" role="img" xmlns:xlink="http://www.w3.org/1999/xlink" viewBox="142.45 309.95 326.84 171.84"><defs><clipPath id="a"><path d="M144 404h1v76.32813h-1zm0 0"/></clipPath><clipPath id="b"><path d="M144 311.67188h1V398h-1zm0 0"/></clipPath><clipPath id="c"><path d="M144 311.67188h324v168.65625H144zm0 0"/></clipPath><clipPath id="d"><path d="M467 311.67188h1v168.65625h-1zm0 0"/></clipPath><clipPath id="e"><path d="M144 478h4v2.32813h-4zm0 0"/></clipPath><clipPath id="f"><path d="M153 478h8v2.32813h-8zm0 0"/></clipPath><clipPath id="g"><path d="M159 480h2v.32813h-2zm0 0"/></clipPath><clipPath id="h"><path d="M166 479h9v1.32813h-9zm0 0"/></clipPath><clipPath id="i"><path d="M173 480h3v.32813h-3zm0 0"/></clipPath><clipPath id="j"><path d="M172 480h2v.32813h-2zm0 0"/></clipPath><clipPath id="k"><path d="M180 479h8v1.32813h-8zm0 0"/></clipPath><clipPath id="l"><path d="M187 480h2v.32813h-2zm0 0"/></clipPath><clipPath id="m"><path d="M186 480h2v.32813h-2zm0 0"/></clipPath><clipPath id="n"><path d="M193 479h9v1.32813h-9zm0 0"/></clipPath><clipPath id="o"><path d="M200 479h3v1.32813h-3zm0 0"/></clipPath><clipPath id="p"><path d="M199 480h2v.32813h-2zm0 0"/></clipPath><clipPath id="q"><path d="M206 479h9v1.32813h-9zm0 0"/></clipPath><clipPath id="r"><path d="M213 479h3v1.32813h-3zm0 0"/></clipPath><clipPath id="s"><path d="M212 479h2v1.32813h-2zm0 0"/></clipPath><clipPath id="t"><path d="M220 479h8v1.32813h-8zm0 0"/></clipPath><clipPath id="u"><path d="M227 479h3v1.32813h-3zm0 0"/></clipPath><clipPath id="v"><path d="M233 479h8v1.32813h-8zm0 0"/></clipPath><clipPath id="w"><path d="M240 479h3v1.32813h-3zm0 0"/></clipPath><clipPath id="x"><path d="M246 479h9v1.32813h-9zm0 0"/></clipPath><clipPath id="y"><path d="M253 479h3v1.32813h-3zm0 0"/></clipPath><clipPath id="z"><path d="M260 479h8v1.32813h-8zm0 0"/></clipPath><clipPath id="A"><path d="M267 479h2v1.32813h-2zm0 0"/></clipPath><clipPath id="B"><path d="M273 479h8v1.32813h-8zm0 0"/></clipPath><clipPath id="C"><path d="M279 480h2v.32813h-2zm0 0"/></clipPath><clipPath id="D"><path d="M286 479h9v1.32813h-9zm0 0"/></clipPath><clipPath id="E"><path d="M292 479h2v1.32813h-2zm0 0"/></clipPath><clipPath id="F"><path d="M300 478h8v2.32813h-8zm0 0"/></clipPath><clipPath id="G"><path d="M314 477h7v3.32813h-7zm0 0"/></clipPath><clipPath id="H"><path d="M328 477h5v3.32813h-5zm0 0"/></clipPath><clipPath id="I"><path d="M342 476h4v4.32813h-4zm0 0"/></clipPath><clipPath id="J"><path d="M356 476h2v4.32813h-2zm0 0"/></clipPath><clipPath id="K"><path d="M369 476h3v4.32813h-3zm0 0"/></clipPath><clipPath id="L"><path d="M383 476h2v4.32813h-2zm0 0"/></clipPath><clipPath id="M"><path d="M393 478h8v2.32813h-8zm0 0"/></clipPath><clipPath id="N"><path d="M408 476h5v4.32813h-5zm0 0"/></clipPath><clipPath id="O"><path d="M421 476h5v4.32813h-5zm0 0"/></clipPath><clipPath id="P"><path d="M435 476h4v4.32813h-4zm0 0"/></clipPath><clipPath id="Q"><path d="M449 476h3v4.32813h-3zm0 0"/></clipPath><clipPath id="R"><path d="M460 477h7v3.32813h-7zm0 0"/></clipPath><clipPath id="S"><path d="M144 465h4v4h-4zm0 0"/></clipPath><clipPath id="T"><path d="M144 452h4v4h-4zm0 0"/></clipPath><clipPath id="U"><path d="M144 438h4v5h-4zm0 0"/></clipPath><clipPath id="V"><path d="M144 424h4v6h-4zm0 0"/></clipPath><clipPath id="W"><path d="M465 423h3v2h-3zm0 0"/></clipPath><clipPath id="X"><path d="M144 411h4v5h-4zm0 0"/></clipPath><clipPath id="Y"><path d="M465 410h3v2h-3zm0 0"/></clipPath><clipPath id="Z"><path d="M144 400h4v1h-4zm0 0"/></clipPath><clipPath id="aa"><path d="M466 398h2v3h-2zm0 0"/></clipPath><clipPath id="ab"><path d="M144 384h3v6h-3zm0 0"/></clipPath><clipPath id="ac"><path d="M466 386h2v4h-2zm0 0"/></clipPath><clipPath id="ad"><path d="M144 370h3v8h-3zm0 0"/></clipPath><clipPath id="ae"><path d="M144 357h3v7h-3zm0 0"/></clipPath><clipPath id="af"><path d="M466 360h2v3h-2zm0 0"/></clipPath><clipPath id="ag"><path d="M144 345h4v5h-4zm0 0"/></clipPath><clipPath id="ah"><path d="M466 345h2v4h-2zm0 0"/></clipPath><clipPath id="ai"><path d="M144 331h4v6h-4zm0 0"/></clipPath><clipPath id="aj"><path d="M466 332h2v3h-2zm0 0"/></clipPath><clipPath id="ak"><path d="M144 316h1v9h-1zm0 0"/></clipPath><clipPath id="al"><path d="M144 322h1v2h-1zm0 0"/></clipPath><clipPath id="am"><path d="M466 318h2v3h-2zm0 0"/></clipPath><clipPath id="an"><path d="M465 318h3v3h-3zm0 0"/></clipPath><g id="ao" clip-path="url(#clip1)"><path fill="#fff" fill-opacity="0" fill-rule="evenodd" d="M0 0h1000v1000H0zm0 0"/><path fill="#d3d3d3" fill-opacity="0" fill-rule="evenodd" d="M162.15234 355.86719l-.23437.29297.0586.23437.11718.17188.17578.23437.29297.34766.11328.0586.11719-.17188.0586-.23438.17577-.17578.46485-.17578h.69922l.23437.29297.28906.8164.0586.17579.17578.23046.35156.23438.69922.69922.17188.17578.23437.34765.23438.41016.28906.58203.41015.46485.23047.23437.23438.17578.11719.23047.17578.29297.17187 1.16406v.23438l.0586.28906.05859.11719.11719.11719.34765.41015.11719.17188.17578.17578.17578.23437.11719.17188.17188.35156.05859.23438.23437.40625.23438-.0586-.17578.17578-.0586.92969h-.58203l-.23437-.11328-.34766.11328-.11719.11719-.05859.29297-.0586.17578-.11718.17187-.46484.29297-.0586.23438-.0586.11328v.64453l.0586.17187v.41016l.0586.0586v.40624l.05859.40625.11719.17579.05859.05859.23047.64062-.0586.29297v.69922l-.05859.58203v.23438l-.0586.23047-.05468.35156v1.92187l.05469.1172h.42578l-.36719.11718-.02344.35156.89063 1.16797 1.74219.53906 1.33984.35938v.53906l.08984.8086.53516.71484 1.51953.26953.89063-.08594.08984 1.16406.53516.1797 1.16015-.1797 2.05469-.98437 1.16016-.36328 1.8789-.17578 1.69531-.1797-.17968.71876-1.51563.08594-1.25.08984-.80469.26953-1.07421.8086.26953.71875.53515.89843-.17968.625-.26563.8086.26563 1.07812.625.89844.80468.17969 1.25-.1797-.26562.72267.09766.5039.05468.29297v.17188l.0586.29296v.40625l.17578.1172.35156.11718h.40625l.29297-.17578.11328-.11719.0586-.11719.11718-.23047.0586-.17578.35156-.46484.23047-.17578.17578-.0586.17578.0586.0586.17578.11718.98828.05469.46875.0586.17188.11718.23437.17578.0586.8164.05859h.28907l.11719.23437.05859.40625.0586.35156v1.10547l.11718.29297.11719.34766.28906.69922.17578.35156.58203.7539.35157.17579.17187.0586.46875.23437.64063.46484.34765.23438.29297.17578.29297.05468.23047.0625.8164.34766.29297.17578.11328.17188.35157.35156.11719.17578.52343.64063v.28906l.0586.35156v.34766l.05859.35156.0586.28906.11718.0586.17188.05859h.17578l.58203.23437.17578.1172.17578.28905.17578.23438.11328.23437.29297.23047.11719.11719v.41016l.0586.05468.28906.23438.23437.11719.0586.11718.11718.17188.0586.11719.23047.23437.05859.17578.23437.0586.1172.05859-.1172.11328-.05859.11719v.11719l-.11719.29296-.11719.28907v.58203l.17579.11719.11718.05859.0586.11719.11719.11719.11328.05859.17578.34765.0586.35157.05858.40625v.17578l-.05859.17578-.11719.69922v.17187l.1172.17579.29296.29296h.40625l.17578.1172.11719.17187.11719.29296v.23438h-.52735l-.23047-.23438h-.23437l-.17578.0586-.0586.69922.0586.34765.11719.17579.17578.41015.11718.23047.28907.46875.17578.05469h.52344l.23437.0586.75781.64062.0586.29296v.23438l.05859.0586.23047.34765v.35156l-.11719.17188v.29297l.29297.28906.29297.17578.17187.0586.29297.17577.29297.1172.58203.40624.28906.23438.29297.17578.21875.16015.01563.01172.23047.17579.64062.52343.17578.23438.1172.17578.17577.17578.11328.17188v.64062l.1172.17578.46874.11719.58203.11719.23438.05859.23047.11328.29297.11719.11328.0586.58593.35156.28907.17187.17578.0625.17578.05469.17578.0586.69922.35155.28906.17579.23438.05468.28906.17578.23437.1172.64063.40624.29297.11719.17187.0586.23438.05859.41015.05859.23047.0586.23438.11718.0586.17188-.41017.17578.46875.0586.0586.29296.11328.23438.17578.05468.23438.0586.17578.05859.40625.11719.64062.23437.11719.17188.0586.23437v.17578l-.0586.1172-.0586.40624.23438.23438.11719.05859.34766.11719.64062.23047.17578.11718.28906.1172.17578.17577.23438.46485.58203 1.10546.17578.17579.34766.17578.17578.11719.35156.11718 1.04688.52344.23437.0586.46485.11327.29297.0586.46484.17578.75781.58203.23438.23438.34765.46484.17578.17578.28907.23438.8164.69921.29297.17579.28906.28906.29297.17578.29297.28906.69531.64063.17578.17578.29297.23437.28907.23438.46875.28906.64062.58203.34766.23438.23437.29297.34766.34765.35156.46485.9336.99218.34765.40625.11719.17579.23437.05859.11328.11719.64454.17578.23047.11328.23437.0586.29297.17577.23047.1172.9336.69921.40624.40625.23438.17578.40625.17578.23437.11719.8164.34766.34766.23437.23438.11719.29297.28906.23047.11719.7578.35156.35157.17188.23047.05859.29297.11719.23437.0586.8711.17577h.8164l.46875.23047.17188.0586.875.69921.46484.1172.29297.05858.17578.0586.23047.0586.46875.05859.34766.05859.35156.0586.40625.05859h.29297l.17187.0586v.23046l.17578.17578h.29297l.34766.0586.35156.05859.69922.11719h.64063l.46484-.23438.29297-.17578.17187-.11719.41016-.17187.28906-.17578.9336-.46485.46875-.29297.52343-.29296.46485-.17188.46484-.17578 1.05078-.46485.28906-.11718.41016-.11719.28906-.11719.52735-.17578 1.51562-.69922.58203-.34765.28907-.0586.29297-.0586.34765-.11718.875-.23047.35156-.11719h.11329l.23437-.05859.875-.23437.23438-.0586h.8125l.35156-.0586.8164-.11718.17188-.0586.35156-.05468.29297-.0586.23047-.05859.8164-.17578.17579-.0586h.34765l.23438-.05859.46484-.11718.75781-.17188.23438-.0586h.34765l.41016-.11718.28906-.0586 1.28516-.05859h.28906l.41016-.0586.23047-.05858h.17578l.875-.1172h.40625l.41015-.11718h.34766l.35156-.11328.8711-.0586h1.75l1.04687.28907.41016.11719.28906.11718.35156.11719.28907.11719 1.05078.17187.28906.0586h.29297l.29297.05859.17187.0586.41016.05859.17187.0586.1172.05858h.11718l.11719.0586.35156.0586h.11328l.41016.0664 1.92187.39453 1.92578.39453 1.51953.44922 1.69532.71875 2.14453.80469 1.60547-.71875 1.42968-.80469 1.16016-1.07813 1.25-.44921 3.03516-.71875 1.875-.35938 2.14453-1.34765 2.23437-1.25391 2.5-1.25781 1.69531-.44922 1.78516-.17969 1.16016-.26953.625.53906 1.33984-.26953.71485-.98828.98437-1.34375.44531-.17969.80469-.35937 1.875-.53907 1.78516-.44921 1.25-.26954 1.16015-.08984 1.69922-.08984 1.96094-.26954 1.25-.08984h.53906l.625-.08984h.89063l2.14453-.17969 2.41015-.17969 2.58985-.08984 1.69531.17969 1.60938.08984 1.42968.35938 1.16016.71875 1.875.98828 1.16015 1.52734.26563.71484.6289.08985.35548.89844.53515.53906.53516 1.52734 1.07422.35938h.53515l-.80469.53515.08985 1.70703.71484 2.69532.89063.80468.89453.98829.71484 1.2578 1.78516.53907 1.51953-.17969.35547 1.34375 1.60937-.80469.98047-.53906.26953.26953.31641-.21484.21875-.14453.80078.44922.44922-.35938h.35547l.53515-.26953.53907-.71875.53515-.26953.625-.98828 1.16016.44922.83984.3711 1.39454.61718 1.6953-.17969h1.60548l1.78515.08985.17969-1.70704.53516-1.34375.80468.26954.4922.84765.40233.40625-.08984.53906v.35938l.71485.44922.71093-.26953h1.42969l.35938.98828.4453 1.25781.71485 1.34375 1.25.6289 1.69531.62891.71485-.17969.17969-.53906.98046-.08984.44922.35937.08594 1.25782-.26563.6289-.53515.17969v.53906l.71484.98438.26563.53906.98437.98828.80078 1.07813-.26562.35937-.08985.89844-.625 2.33203-.35546 2.0664-.08985 1.79298-.17969.71875-.08984.53906v1.4375l-.98047 1.88281-.35937 1.70703-.53516.89844-.80469 1.16797-.26562.53906 2.05469 1.2539.08593.35938-.35546.53906-.08985-.17968v.80859l.08985 1.4375-.44532.71484-1.07422.09375-.26562.71485.53515.89844.8047.71875 1.16015.80859 1.33984.26953.44531.35938-.35546.44921-1.78907-.08984-1.25-.44922-.71484-.71875-.625-.08984-.17578 3.58984-.1875 1.3086h89.35937V311.70313h-55.26953v49.08203l.76172.125 3.28906.54296 2.02344 2.83594v2.7539l2.35156.33204 2.34766.33203h4.05078l-1.3789 4.16016-2.02344.70703-2.02344.70312-.54297.34375-2.59375 1.6172-.1875.11718-2.02344-2.07813-.73046-2.74218-2.67188-2.07813-1.375-3.5-.0664-.08203-1.95704-2.67188 2.75-1.41796v-49.08204H294.42187v91.41407l.1172.03125.1328.01172.07422.07421.10547.04688.08985.0586.08593.05859.08985.0586.29687.29687.0586.08984.03125.11719.02734.11719.01563.13671-.03125.1172-.0586.08983-.0586.08594-.04296.10547-.04688.10156-.02734.1211v.14453l.17578.26953.14844.14844.07422.08594.07422.07421.04296.10547.0625.08985.0586.08593.04297.10547.0586.08985.04687.10156.04296.10547.0586.08594.11719.17968.07421.07422.0625.08594.0586.08984.04297.10547.0586.08985.05858.08593.0625.08985.0586.08984.04297.10156.11719.17969.07421.07422.0586.08594.07422.07421.08984.0586.10547.04687h.14844l.1328-.01562.13282.01562.10156-.04687.07422-.07422.04688-.10156-.01563-.13281v-.14844l-.04687-.10547-.02735-.11719-.04687-.10156-.02735-.1211-.04296-.10156-.0625-.08984-.04297-.10156-.04297-.10547-.03125-.11719-.01563-.13281-.01171-.13672.08593-.0586.0586-.08593.12109-.03125.04297.10547.01562.1328v.1172l.0586.10156.0586.08984.08983.0586.14844.14843.0586.08985.04296.10547-.01171.10156.08593.0586.10547.04687.08594.0586.08984.05858.07422.07422-.11719.02735-.10546.04687-.08594.0586-.07422.07421-.0586.08985-.0625.08594-.02734.12109-.04687.10156-.04297.10547-.03125.11719-.01172.13281-.01563.13281v.14844l.02735.11719.04687.10547.04297.10156.0586.08984.07421.07422.08985.0586.07422.07421.08984.0586.0586.08984.04296.10547.04688.10156.11719.03125.1328.01563h.14845l.11718-.03125.10547.04297.04297.10547.04688.10156.02734.1211L299.5 410l.02734.11719.03125.1211.02735.11718.10547.04297.10156.04687.13281-.01562.14844.14844.0625.08593.07422.07422.07031.07422.08984.0625.10547.04297.10156.04297.1172.03125.13671.01562.11719-.03125.07422-.07422.02734-.11718-.01172-.13282-.03125-.12109-.02734-.11719.04297-.10547h.11719l.08984.0625.11719.02735h.14843l.13282.01562h.14843l.13282.01563.1328-.01563h.14845l.1328-.01562.13282-.01172.13672.01172.11719-.02735.13281-.01562.1914-.0586-.05859.17579-.01562.1328-.02735.1211-.01562.13281-.0586.08594-.1328.01563-.10548.04687-.10546.04297-.1172.03125-.11718.02735-.26563.03125h-.14843l-.13281.01562-.07422.07422.05859.08594.14844.14843.11719.1797.07421.0703.08985.0625.08984.0586.08594.0586.08984.05858.10156.04297.10547.0625.10547.04297.08594.0586.10547.04687.10156.04297.17969.11719.0586.08984-.04298.10156-.04687.10547.01562.13281.22266.22266.0586.08985.04296.10156.03125.1211.04297.10155.01563.13282.03125.11718.01171.13672.03125.11719.14844.14844.10156.04297.10547.04296.1172.03125.1328.01563.13672.01563h.11719l.11719-.03125.08984-.0586.04297-.10547.04688-.10156.04296-.10547.03125-.11719.01172-.1328v-.14845l-.01172-.1328-.01562-.13282-.03125-.11719-.04297-.10547-.04688-.10547-.04296-.10156-.04297-.10547-.01563-.13281.01563-.13281.02734-.11719.03125-.11719.02735-.1211.04687-.10155.08984-.0586.08594-.0625.07422-.07422.08984-.05859.22266-.22266.0586-.08593.07421-.07422.11719-.17969.0586-.08594v-.14844l-.07423-.07421-.10156-.04688-.10547-.04297-.10156-.04297-.0586-.08984-.04687-.10547-.02734-.11719.08984-.05859.11719-.03125.10156-.04297.17969-.11719.14844-.14843.01172-.13282-.01172-.10546-.08985-.0586-.1328.01563h-.14845l-.1328.01562-.13282-.01562-.1211-.03125-.08593-.0586-.07422-.07422-.0586-.08984-.0625-.08594-.11718-.17969-.0586-.08593.03125-.1211.08594-.05859.1211-.03125.05859-.08594v-.1211l-.03125-.11718-.0586-.08984-.05859-.08594-.04687-.10547-.02735-.11719-.01562-.1328.0586-.08985.07421-.07422.08984-.0586.1172-.17968.07421-.07422.0586-.08594.14843-.14844.1211-.03125.1328-.01562.13282.01562.07422.07422.04297.10547.01562.13281-.03125.1172-.11719.03124-.1328.01172-.14844.14844-.04297.10547-.04688.10156-.02734.1211-.03125.11718v.14844l.03125.11719.04297.10546.05859.08985.07422.07031.07422.07422.11719.03125.12109.02734.11719-.02734.1328-.01563h.1172l.08984.0586.07422.07422.04687.10546.0586.08594.10156.04688.13281.01562.10547.04297.08594.0586-.01172.10546-.07422.07422-.17969.11719-.05859.08984-.08984.0586-.07032.07422-.07421.07421-.0625.08985-.02735.11719-.01562.1328.01562.13282-.01562.13281v.14844l.01562.13281.02735.1172.03125.12108.07421.07422.08985.0586.08594.0586.08984.05858.11719.03125v.08594l-.10157.04688-.08984.0586-.26563.03124-.11718.02735h-.14844l-.10547.04296-.10156.04688-.0586.08984-.0625.23438-.01171.13281-.03125.1211-.01563.1328v.29298l-.01172.1328.01172.13673.01563.1328.1328.01563.13282.01172.1211.03125.08593.0586.07422.07421.04688.10547.04296.10157.01563.1328v.44532l-.01563.13281v.44532l.03125.26562.02735.11719.01562.13281.03125.11719.08594.21094.03125.26562v.14844l-.03125.11719-.02734.11718-.03125.1211-.02735.11719-.03125.11718-.03125.1211-.01171.1328-.01563.13282.08984.0586.1172-.03125.10155.01562.04688.10547-.03125.26562v.44141l-.04297.10547-.04688.10547-.04296.10156-.04297.10547-.0586.08594-.03125.12109-.04296.11719-.03125.11719-.01563.1328.01563.13282.05859.08984.10547.04688.08594.0586.05859.08593-.01172.13672-.03125.11719-.04297.10156v.44531l-.01562.13281v.14844l-.03125.11719-.04297.10547-.02735.11719-.04687.10546-.04297.10157-.03125.12109-.02734.11719-.03125.13281-.03125.11719-.02735.11719-.04297.10546-.03125.1172-.03125.12108-.01171.13282-.01563.13281v.29688l.02734.11718v.14844l.04688.39844.02734.11719.0586.08984.12109.03125h.14844l.13281-.01563.0586.08985v.11719l-.0586.08984-.08984.0586-.10157.04296-.10546.04688-.08985.05859-.08594.0586-.13671.01562-.1172-.03125-.1328-.01563-.10157.04688-.0625.08594-.01172.13671-.01562.13282-.03125.11719-.02735.11718-.01562.13281-.03125.1211v.29687l.01563.13282.03125.11718v.14844l.01171.13281v.14844l-.02734.11719-.04688.10156-.02734.1211-.03125.11718-.0586.08985-.07421.07421-.10156.04297-.10547.04688-.11719.02734-.1211.03125-.10156-.04687.0586-.08594.10547-.04688.02734-.11718.03125-.11719.02734-.1211.03125-.11718v-.14844l.01563-.13281-.03125-.11719-.04297-.10547-.10547.01563-.07422.07422-.10156.04296-.08984.0625-.07422.07422-.04297.10157-.01563.1328-.03125.1172L304.25 426l-.03125.11719-.02734.11719-.03125.12109-.02735.11719-.03125.11718-.04297.10547-.08984.0586h-.08984l-.1172-.03125-.03124-.08594.01562-.13672-.03125-.11719v-.14844l-.01171-.1328v-.14844l-.0625-.23438-.02735-.1211-.04297-.10156-.04687-.10546-.0586-.08594-.05859-.08985-.04297-.10546-.0625-.08594-.14844-.14844-.0703-.07422-.10548-.04687-.10547-.04297-.10156-.04297-.29687-.29688-.08985-.07421-.08594-.0586-.10546-.04297-.08985-.0625-.08594-.0586-.10546-.04296-.08985-.0586-.08594-.0625-.07421-.0703-.10547-.04688-.08594-.0586-.10547-.04296-.08984-.0625-.10156-.04297-.10547-.04297-.08594-.0586-.10547-.04687-.10547-.04297-.10156-.04687-.08985-.0586-.10156-.04297-.10547-.04296-.08984-.0625-.11719-.02735-.13281-.01562-.13281.01562H299.75l-.13281.01563-.11719-.03125-.08984-.0586-.07422-.07422-.08985-.05859-.10156-.04688h-.14844l-.12109-.02734-.10156-.04297-.07422-.07422-.11719-.17968-.08984-.0586-.10156-.04297-.08985-.0625-.10547-.04296-.08984-.0586-.08594-.0586-.10547-.04687-.0586-.08594-.05858-.08984-.04297-.10547-.04688-.10156-.07422-.07422-.08594-.0586-.07421-.07421-.08985-.0586-.22265-.22265-.04297-.10547-.03125-.26563.10547-.04296h.14453l.10547.04296.07421.07422.08985.0586.08594.0586.10546.04687.08985.05859.14844.14844.0703.07422.14845.14843.0625.08594.07421.07422.08594.0586.07422.07421.08985.0625.08984.0586.08594.05859.26953.17578.10156.04688.10547.04296.10156.04297.04688-.07421.05859-.08594.07422-.07422.07031-.07422.10547.04297.07422.07422.0586.08984.04296.10156.04688.10547.04296.10547.1211.02735.11719-.02735.07421-.08984.04297-.10547.0586-.08985.07422-.07421.10546-.04297.1172-.02735.1328.01172.08985.0586.14844.14843.05859.08985.04297.10547.04687.10156.04297.10547.04297.10156.10547.04688.10547.04296.13281.01563.08594-.0586.0586-.08984.07421-.07422.10547-.04297.11719.02735.10547.04687.10156.04297.10547.04297.10156.04688.17969.11718v.11719l-.01563.13281.01563.13281.01562.13672.0586.08594.10156.04688.1211.02734.11718.03125h.14844l.11719-.03125.05859-.08984.17969-.1172.05859-.08983.07422-.07422.0586-.08594.11718-.17969.17969-.11719.11719.03125.08984.0586.04297.07422-.01563.1328v.1172l.08985.05859h.14843l.13282-.01563.1328-.01171.26563-.03125.10547-.04297.11719-.03125.1211-.02735.07421-.07421.07031-.07422.0625-.08985-.01562-.10547-.04688-.10156-.10156-.04297-.10547-.01562-.11718.02734-.26563.03125h-.14844l-.07421-.07422-.08985-.0586-.11719-.03124-.11718-.02735-.13282-.01562h-.14843l-.13282.01563h-.29687l-.10547-.04688-.14844-.14844-.04297-.10156-.05859-.08984.22266-.22266.08593-.0586.10547-.04296.11719-.03125.13281-.01563.13281.01563.13672.01562.10157.04297.1328-.01172.08985-.0625.10156-.04297.0625-.08984-.04687-.10156-.08984-.0586-.1172-.03125-.10155-.04296-.0586-.08985-.0625-.08984v-.11719l.01563-.13281.10547-.04688.07421-.07031v-.1211l-.08984-.05859-.03125-.11719.08985-.05859.07421-.07422.04297-.10547.0586-.08984.04687-.10156.01563-.13281v-.14844l-.04688-.10547-.04297-.10156-.08984-.0586-.13281-.01562-.10157-.04297-.13671-.01563-.1172-.03125h-.4453l-.13282-.01562-.13281-.01172-.13281-.01563-.11719-.03125h-.14844l-.13281-.01562-.13281-.01172-.26563-.03125-.1211-.04297-.08593-.0586-.07422-.07421v-.14844l.01172-.13281.10547-.04688.10156-.04296.13281-.01563h.15235l.13281-.01562h.29297l.1211.03125.10156.04296.08984.0586.23438.0625.12109-.04688.08984-.05859.10156-.04297.13282-.01562.10547.04296.10156.04688.13281.01172.1211-.02735h.14453l.12109-.03125.11719-.02734.10547-.04687.07421-.07422.08594-.0586.14844-.14843.0586-.08594.04687-.10547.02734-.11719.01563-.10547-.10156-.04296-.08985-.0586-.11719-.03125-.10546-.04297-.08985-.0625-.07422-.08594-.07422-.07421-.10156-.04297-.10547-.04688-.10156-.04297-.0586-.08984-.04687-.10156-.08594-.21094-.0625-.08594-.05859-.08984-.07422-.07422-.08594-.0586h-.26953l-.11719.03126-.08984.05859-.10156.04297-.13281.01562-.10547-.01562-.02735-.11719-.0625-.08984-.11718-.03125-.10157-.04297-.14843-.14844-.03125-.11719-.01563-.10546.07422-.07422.17969-.1172.11719-.02733.11718-.03125.13672.01562.10156.04297.10547.04297.10156.04687.10547.04297.1172.03125.1328.01563.1172.02734.1328.01563.10547-.01563.08985-.0586-.07422-.07421-.10547-.04297-.07422-.07422-.07422-.08984-.14844-.14844-.08593-.0586-.08985-.05859-.07422-.07422-.08984-.0586-.10156-.04687-.1211-.02734-.10156-.04688-.10547-.04296-.11719-.03125-.10156-.04297-.1211-.03125h-.14843l-.11719.03125-.10546.04297-.08594.0625-.17969.11718-.08594.0586-.08984.0586-.10547.04687-.08594.05859-.10547.04297-.10156.04297-.10547.04687-.07422.07422-.05859.08985-.0586.08593-.04687.10547-.0586.08594-.07421.07422-.13281-.01172-.1172-.03125h-.11718l-.07422.07422-.08984.0586-.07422.07421-.08984.0586-.08594.05859-.10547.04687-.10156.04297-.13672.01563-.10156-.04297-.14844-.14844-.10547-.04688h-.08594l-.10547.04688-.10156.04297-.1211.03125-.11718-.03125-.07422-.07422v-.11719l.03125-.1211.07422-.0703.0586-.08985.07421-.07422.11719-.03125.10547-.04296h.29297l.13281-.01563.13672-.01563.10156-.04296.08985-.0586.10156-.04687.08984-.0586.13281-.01171.08985.05859.13281.01172.08984-.0586.08594-.05859.10547-.04297.08984-.0586.08594-.0625.08985-.05859.14843-.14843.0586-.08594.05859-.08985.10547-.04296.13281-.01563.11719.02735.1211.03125.05859-.0586.05859-.08984.03125-.26563.02734-.11719.10547.01172.13281.01563.10157-.04297.08984-.0586.0586-.08984.07421-.07422.0586-.08984.04687-.10156.01172-.13281-.01172-.13282-.04687-.10547-.14844-.14843-.0586-.08985-.05859-.08594-.04297-.10546v-.44532l.01563-.1328v-.14845l.01172-.1328-.0586-.0586-.08984.0586-.10156-.04298-.17969-.11719-.08594-.05859-.0625-.08984-.0586-.08985-.07421-.07421-.08594-.0586-.1211.03125-.10155.01172-.10547.04688-.08594.05859-.10547.04297-.14844.14844-.08984.05859-.08594.0586-.08984.0625-.10547.04296-.13281.01563v-.1211l.10547-.04297.11718-.03125.07422-.0703.04297-.10548v-.14844l-.02734-.11718-.14844-.14844-.13281-.01563h-.14844l-.11719.03125-.10547.04297-.10156.04297-.08984.0625-.11719.02735-.07422-.07422.01172-.13281-.04297-.10157-.04297-.10547-.08984-.05859-.11719.02734-.1211.03125-.11718.03125-.10156.04297-.1211.03125-.10156.04297-.10547.04297-.08984.0586-.10156.01562v-.11719l.01562-.13281-.0586-.08985-.07421.04297-.14844.14844-.0586.08985-.07421.07421-.04688.10547-.04296.10156-.07422.07422-.0586.08985-.07422.07422-.05859.08593-.07422.07422-.08984.0625-.07422.07031-.07422.07422-.10156.01563-.13281.01562-.10547-.04296v-.1211l.14843-.14844.04297-.10156.0586-.08984.04687-.10156.04297-.10547.0586-.08985.03124-.11719.04297-.10156.03125-.1211.02735-.11718.04687-.10547.04297-.10156.04297-.10547.07422-.07031.08984-.0625.08985-.0586.10156-.04296h.29687l.26563-.03125.10547-.04297-.07422-.07422-.11719-.03125-.10547-.04297-.08984-.0586-.10156-.04687-.08985-.0586-.10156-.04296-.10547-.04297-.08984-.0625-.08594-.0586-.10547-.04296-.10156-.04297-.1211-.03125-.11718-.03125-.10157-.04297L297.5 410.25l-.10156-.04297-.08985-.0586-.04296-.10546-.01563-.13281.10156-.04297.13281-.01563.13672.01563.13282-.01563.10156-.04297.0586-.08984.01562-.10547-.08985-.0586-.07421-.07421-.10157-.04297-.08984-.0586-.14844-.14843-.04297-.10547-.01562-.13281v-.29297l-.0586-.08985-.08984-.05859-.07422-.07422-.04297-.10547-.03125-.11718-.0586-.08985-.07421-.07422-.11719-.02734-.07422-.07422-.08984-.0586-.08984-.0625-.08594-.05859-.07422-.07421-.0586-.08594-.04687-.10547-.08594-.0586-.14843-.14843-.19532-.0586-.1328.01563-.10157.04297-.07422.07422-.04688.10156-.04296.10547-.0586.08984-.0586.08594-.29687.29687-.08984.0586h-.08594l-.0625-.08594-.04297-.10547.03125-.11719.0586-.08984.02734-.11719-.01172-.13281-.08984-.0625-.10547.04688-.11719.02734-.11719.03125-.26953.17578-.10156.04688-.11719.02734-.10546.04687-.08985.0586-.10156.04297-.0586-.08594-.04687-.10547.01563-.13281.04687-.10547.07031-.07422.07422-.07031.0586-.08985v-.14843l-.04297-.10547h-.23829l-.10156.04687-.03125.11719-.02734.11719-.03125.1211-.07422.04296-.13281.01563-.07422-.04688-.04297-.10156-.04297-.10547-.04687-.10156-.04297-.10547-.1211.03125-.10156.04297-.13281.01562-.11719.03125-.10547.04297-.08984.0586-.10156.04687-.1211.02734-.13281.01563-.10156-.04297-.0586-.08985-.04687-.10546-.04297-.10157-.04297-.10546v-.1172l.0586-.08984.08593-.05859.17969-.11719.10156-.04687.10547-.04297.10547-.0586.10156-.04296.08985-.0625.10156-.04297.10547-.0586.10156-.04687.08984-.0586.10547-.04296.10156-.04297.08985-.0625.10156-.04297.13672-.01563.11719.03125.10156.04297.1211.03125.10156.04297.10546.04688.10157.04296.10547.04297.10156.04688.10547.04297.10156.04297.10547.04687.08594.0586.10546.04296.1172.03125.10546.04297.10156.04688.08985.0586.10547.04296.10156.04297.10547.04687.11719.02735.10156.04687.1211.02735h.14843l.08594-.0586.01562-.10156.0586-.08984-.02735-.1172-.07422-.07421-.11719-.17969-.07421-.07422-.08985-.07421-.17969-.1172-.08593-.05859-.10547-.04296-.10156-.04688-.26954-.17578-.05859-.08985-.07422-.07421-.0586-.08985-.04296-.10156-.03125-.11719-.01563-.13672v-.5625l-.01171-.1328-.01563-.13282-.03125-.11719-.01562-.13281-.01172-.13281-.03125-.1211-.22266-.22265-.0586-.08594-.01562-.10547.03125-.11719.13281-.01562v-91.41406H172.9922v1.45312l-.0586.23438-.35156 1.05078-.17187.52343-.1172.34766-.17577.41016-.11719.17187-.23438.29297-.23046.0586h-.35157l-.11718.05859-.23047.40625v.29297l.11719.17578.23046.23047.1172.23437.64062.75781.29297.46485.17578.23437.23047.35156.23437.34766.64063.8164.17578.46485.17187.41016.11719.69531.17578.46875.11719 1.39844.0586.46484v.875l.11718 1.04688v4.78125l-.0586.46484-.35156 1.28125-.17578.52344-.11328.41015-.35156.9297L172.93359 336l-.23437.58203-.11719.17578-.17187.34766-.17578.40625-.35157.8164-.0586.29297-.11327.29297-.11719.28906-.0586.17579-.11718.875-.0586.40625-.05859.11718-.0586.17579-.05859.17187-.23047.52734-.11718.17188v.23437l-.11719.23438-.0586.17187-.17577.58594v.28906l-.0586.17579v.29296l-.0586.11329-.05859.52734v.17187l-.05468.23438v2.6211l-.17578.8164-.1172.17578-.17577.23438-.1172.17187-.11327.23438-.58594.93359-.23047.28906-.29297.46485-.17578.23437-.28906.35156-.35156.69922-.11328.23047-.17579.41016-.17578.23046-.40625.52735-.8164.69922-.29297.17187-.28906.23438-.17579.11719-.17578.17578-.52344.40625-.52734.17578-.17187.17578-.23438.05469-.64062.17578h-.75782m12.21094 31.02344l-1.07422.44921.35938.89454 1.25-.71485.44531-.53906-.98047-.08985"/><path fill="#d3d3d3" fill-opacity="0" fill-rule="evenodd" d="M201.50781 416.59766h-.89453l.44922.6289.98047.35938.80469-.08985.4453-.98828-.17577.08985-.71485-.35547-.89453.35547m154.6211 59.0703l-.0586-.52343v-.29297l.11328-.29297.0586-.23046.46875-.46875h.11328l.11719-.11329.11718-.05859h.17579l.23437-.0586h.34766l.23437.0586.11719.0586.23047.17187.0586.17578.11718.58203v.29297l-.11719.17578-.17187.28906-.17579.17579-.52734.52343-.23047.23438-.11719.0586h-.17578l-.11718-.0586-.40625-.29297-.17579-.11719-.11718-.0586-.0586-.11327-.05468-.1172m6.64062-10.95702l-.0586-.17188v-1.10937l.0586-.17188.17578-.0586.17188-.05858h.17578l.23437-.0586.1172.0586.05858.69921-.05859.17188-.11719.17578-.11718.0586-.23438.52343-.11328.0586h-.23438l-.05859-.1172m9.61328-14.39062l-.11719-.17578v-.69922l.29297-.875.1172-.17187.17577-.35156.11328-.23047.1172-.29297.35155-.75781.1172-.23047.17187-.23438h.17578l.11719-.0586h.64062l.11719.0586.23437.23438.17188.11328.35156.29297.11719.11718.11328.17579v.11328l.11719.05859.11718.11719v.69922l-.05859.17578v.23047l-.0586.17578-.34765 1.05078-.11719.23047-.11719.23437-.11718.0586-.23047.23437-.64063.28906h-.875l-.41015-.11718-.64063-.46485"/><path fill="none" stroke="#bebebe" stroke-linecap="round" stroke-linejoin="round" stroke-miterlimit="10" stroke-width=".5" d="M467.95703 311.69531H144.02734v168.625h323.9297v-168.625"/><g clip-path="url(#a)"><path fill="#fff" fill-opacity="0" fill-rule="evenodd" d="M144 475.89063v4.4375h.0039H144v-75.73438 71.29688"/></g><g clip-path="url(#b)"><path fill="#fff" fill-opacity="0" fill-rule="evenodd" d="M144 396v1.77734-86.10546h.0039H144V396"/></g><path fill="#50fcfc" fill-rule="evenodd" d="M144 397.77734v6.81641l.0039-.0039v-6.8086l-.0039-.0039"/><g clip-path="url(#c)"><path fill="#fff" fill-opacity="0" fill-rule="evenodd" d="M144.0039 480.32813v-75.73829l2.54688-4.15234-2.54687-2.65625v-86.10938h13.3125v90.33204l-4.44141 2.46093-.80469.41016.80469 1.20703v3.5l-4.4375.21485-2.14453 3.95703 2.14453 2.14453 4.4375 1.9336.60156.35937 3.83985 3.97656.71484.46094 3.72266 2.69921v10.7422l-1.78516 4.3125.01172 4.4375 1.4961 4.4414.27734.54687 4.4375.87891 4.4375 1.125 3.47656-2.55078.96094-.59766 4.4414-2.35937 2.67969-1.48438-2.67969-1.29687-4.4414-.82813-4.4375.22266-.89844-2.53516-3.53906-3.0039-4.4375-1.3086v-10.74219l2.6875-2.69921-2.6875-3.98438-.28516-.45312-1.58594-4.4375-2.5664-3.29297-4.44141-.8789v-3.5l4.4414 1.85937 2.79298-3.06641-2.79297-2.8711v-90.33202h31.0664v25.3789l-3.11328 1.25-1.32422 3.82422-4.4375-1.61328-2.16797 2.22656-2.27343 1.40625-4.4375 1.02735-1.8125 2.0078-2.625 2.96876-1.48828 1.46875-2.94922 3.1211-1.02344 1.3164 1.02344 1.61719 2.8125-1.6172 1.625-1.4453 3.53515-2.9922.90235-.6875 4.4375-2.23046 1.01172-1.51953 3.42968-3.92969 4.4375-.28516.19531-.22656 4.2422-2.65625 1.01952-1.78125-1.01953-1.25v-25.3789H467.9961v168.65625H144.00391"/></g><path fill="#50fcfc" fill-rule="evenodd" d="M146.55078 400.4375l-2.54687 4.15234v-6.80859l2.54687 2.65625m1.88672 15.46094l-2.14453-2.14453 2.14453-3.95704 4.4375-.21484v2.41406l-2.92188 1.75782 2.92188 1.71875 3.76172-1.71875-3.76172-1.75782v-2.41406l4.4414.8789 2.56641 3.29298 1.58594 4.4375.28516.45312 2.6875 3.98438-2.6875 2.69921-3.72266-2.69921-.71484-.46094-3.83985-3.97656-.60156-.35938-4.4375-1.9336"/><path fill="#00e8fc" fill-rule="evenodd" d="M152.875 415.47266l-2.92188-1.71875 2.92188-1.75782 3.76172 1.75782-3.76172 1.71875"/><path fill="#50fcfc" fill-rule="evenodd" d="M152.875 406.08203l-.80469-1.20703.80469-.41016 4.4414-2.46093 2.79298 2.87109-2.79297 3.0664-4.44141-1.85937m7.10547 38.73828l-.01172-4.4375 1.78516-4.3125 4.4375 1.3086 3.53906 3.0039.89844 2.53516 4.4375-.22266 4.4414.82813 2.67969 1.29687-2.67969 1.48438-4.4414 2.35937-.96094.59766-3.47656 2.55078-4.4375-1.125-4.4375-.8789-.27735-.54688-1.4961-4.4414m1.77345-87.14844l-1.02344-1.6172 1.02344-1.3164 2.94922-3.1211 1.48828-1.46874 2.625-2.96875 1.8125-2.00781 4.4375-1.02735 2.27343-1.40625 2.16797-2.22656 4.4375 1.61328 1.32422-3.82422 3.11328-1.25 1.01953 1.25-1.01953 1.78125-4.24219 2.65625-.1953.22656-4.4375.28516-3.4297 3.92969-1.01171 1.51953-4.4375 2.23047-.90235.6875-3.53515 2.99219-1.625 1.4453-2.8125 1.6172"/><g clip-path="url(#d)"><path fill="#fff" fill-opacity="0" fill-rule="evenodd" d="M467.9961 480.32813H468V311.67188h-.0039H468v168.65625h-.0039"/></g><g clip-path="url(#e)"><path fill="none" stroke="#000" stroke-linecap="round" stroke-linejoin="round" stroke-miterlimit="10" stroke-width=".5" d="M147.23438 481.70313l-6.46875-2.7461"/></g><g clip-path="url(#f)"><path fill="none" stroke="#000" stroke-linecap="round" stroke-linejoin="round" stroke-miterlimit="10" stroke-width=".5" d="M160.64844 481.4414l-6.66406-2.22656"/></g><g clip-path="url(#g)"><path fill="none" stroke="#000" stroke-linecap="round" stroke-linejoin="round" stroke-miterlimit="10" stroke-width=".5" d="M159.67578 481.11719l.20313 1.21094"/></g><g clip-path="url(#h)"><path fill="none" stroke="#000" stroke-linecap="round" stroke-linejoin="round" stroke-miterlimit="10" stroke-width=".5" d="M174.08203 480.98828l-6.90234-1.3164"/></g><g clip-path="url(#i)"><path fill="none" stroke="#000" stroke-linecap="round" stroke-linejoin="round" stroke-miterlimit="10" stroke-width=".5" d="M174.08203 480.98828l.72656 2.34375"/></g><g clip-path="url(#j)"><path fill="none" stroke="#000" stroke-linecap="round" stroke-linejoin="round" stroke-miterlimit="10" stroke-width=".5" d="M173.07813 480.79688l.36328 1.17187"/></g><g clip-path="url(#k)"><path fill="none" stroke="#000" stroke-linecap="round" stroke-linejoin="round" stroke-miterlimit="10" stroke-width=".5" d="M187.44922 480.58984l-7.00781-.51953"/></g><g clip-path="url(#l)"><path fill="none" stroke="#000" stroke-linecap="round" stroke-linejoin="round" stroke-miterlimit="10" stroke-width=".5" d="M187.44922 480.58984l.98828 2.2422"/></g><g clip-path="url(#m)"><path fill="none" stroke="#000" stroke-linecap="round" stroke-linejoin="round" stroke-miterlimit="10" stroke-width=".5" d="M186.42969 480.51172l.4961 1.125"/></g><g clip-path="url(#n)"><path fill="none" stroke="#000" stroke-linecap="round" stroke-linejoin="round" stroke-miterlimit="10" stroke-width=".5" d="M200.77344 480.23828l-7.02735.17969"/></g><g clip-path="url(#o)"><path fill="none" stroke="#000" stroke-linecap="round" stroke-linejoin="round" stroke-miterlimit="10" stroke-width=".5" d="M200.77344 480.23828l1.20703 2.13672"/></g><g clip-path="url(#p)"><path fill="none" stroke="#000" stroke-linecap="round" stroke-linejoin="round" stroke-miterlimit="10" stroke-width=".5" d="M199.75 480.26563l.60547 1.0664"/></g><g clip-path="url(#q)"><path fill="none" stroke="#000" stroke-linecap="round" stroke-linejoin="round" stroke-miterlimit="10" stroke-width=".5" d="M214.08594 480.17188l-7.01953.3125"/></g><g clip-path="url(#r)"><path fill="none" stroke="#000" stroke-linecap="round" stroke-linejoin="round" stroke-miterlimit="10" stroke-width=".5" d="M214.08594 480.17188l1.2461 2.11328"/></g><g clip-path="url(#s)"><path fill="none" stroke="#000" stroke-linecap="round" stroke-linejoin="round" stroke-miterlimit="10" stroke-width=".5" d="M213.0625 480.21875l.625 1.05469"/></g><g clip-path="url(#t)"><path fill="none" stroke="#000" stroke-linecap="round" stroke-linejoin="round" stroke-miterlimit="10" stroke-width=".5" d="M227.38281 479.92969l-6.98437.79687"/></g><g clip-path="url(#u)"><path fill="none" stroke="#000" stroke-linecap="round" stroke-linejoin="round" stroke-miterlimit="10" stroke-width=".5" d="M227.38281 479.92969l1.39063 2.02344"/></g><g clip-path="url(#v)"><path fill="none" stroke="#000" stroke-linecap="round" stroke-linejoin="round" stroke-miterlimit="10" stroke-width=".5" d="M240.63281 479.54688l-6.85156 1.5625"/></g><g clip-path="url(#w)"><path fill="none" stroke="#000" stroke-linecap="round" stroke-linejoin="round" stroke-miterlimit="10" stroke-width=".5" d="M240.63281 479.54688l1.60156 1.85546"/></g><g clip-path="url(#x)"><path fill="none" stroke="#000" stroke-linecap="round" stroke-linejoin="round" stroke-miterlimit="10" stroke-width=".5" d="M253.97656 479.6914l-6.91015 1.27735"/></g><g clip-path="url(#y)"><path fill="none" stroke="#000" stroke-linecap="round" stroke-linejoin="round" stroke-miterlimit="10" stroke-width=".5" d="M253.97656 479.6914l1.52735 1.91798"/></g><g clip-path="url(#z)"><path fill="none" stroke="#000" stroke-linecap="round" stroke-linejoin="round" stroke-miterlimit="10" stroke-width=".5" d="M267.33203 479.97266l-6.99219.71093"/></g><g clip-path="url(#A)"><path fill="none" stroke="#000" stroke-linecap="round" stroke-linejoin="round" stroke-miterlimit="10" stroke-width=".5" d="M267.33203 479.97266l1.36328 2.03906"/></g><g clip-path="url(#B)"><path fill="none" stroke="#000" stroke-linecap="round" stroke-linejoin="round" stroke-miterlimit="10" stroke-width=".5" d="M280.66406 480.21875l-7.02344.22266"/></g><g clip-path="url(#C)"><path fill="none" stroke="#000" stroke-linecap="round" stroke-linejoin="round" stroke-miterlimit="10" stroke-width=".5" d="M279.64063 480.25l.60937 1.0625"/></g><g clip-path="url(#D)"><path fill="none" stroke="#000" stroke-linecap="round" stroke-linejoin="round" stroke-miterlimit="10" stroke-width=".5" d="M293.83203 479.32422l-6.73437 2.00781"/></g><g clip-path="url(#E)"><path fill="none" stroke="#000" stroke-linecap="round" stroke-linejoin="round" stroke-miterlimit="10" stroke-width=".5" d="M292.85156 479.61719l.86328.875"/></g><g clip-path="url(#F)"><path fill="none" stroke="#000" stroke-linecap="round" stroke-linejoin="round" stroke-miterlimit="10" stroke-width=".5" d="M306.8086 478.54688l-6.0547 3.5664"/></g><path fill="none" stroke="#000" stroke-linecap="round" stroke-linejoin="round" stroke-miterlimit="10" stroke-width=".5" d="M305.92578 479.0664l1.04688.64063"/><g clip-path="url(#G)"><path fill="none" stroke="#000" stroke-linecap="round" stroke-linejoin="round" stroke-miterlimit="10" stroke-width=".5" d="M319.83984 478.13672l-5.48828 4.38281"/></g><path fill="none" stroke="#000" stroke-linecap="round" stroke-linejoin="round" stroke-miterlimit="10" stroke-width=".5" d="M319.04297 478.77344l1.125.48828"/><g clip-path="url(#H)"><path fill="none" stroke="#000" stroke-linecap="round" stroke-linejoin="round" stroke-miterlimit="10" stroke-width=".5" d="M332.50781 477.50781l-4.19531 5.64063"/></g><path fill="none" stroke="#000" stroke-linecap="round" stroke-linejoin="round" stroke-miterlimit="10" stroke-width=".5" d="M331.89844 478.32813l1.21094.1875"/><g clip-path="url(#I)"><path fill="none" stroke="#000" stroke-linecap="round" stroke-linejoin="round" stroke-miterlimit="10" stroke-width=".5" d="M345.14063 477.11328l-2.82813 6.42969"/></g><path fill="none" stroke="#000" stroke-linecap="round" stroke-linejoin="round" stroke-miterlimit="10" stroke-width=".5" d="M344.73047 478.04688l1.22265-.08985"/><g clip-path="url(#J)"><path fill="none" stroke="#000" stroke-linecap="round" stroke-linejoin="round" stroke-miterlimit="10" stroke-width=".5" d="M357.73047 476.88281l-1.375 6.89063"/></g><path fill="none" stroke="#000" stroke-linecap="round" stroke-linejoin="round" stroke-miterlimit="10" stroke-width=".5" d="M357.52734 477.88672l1.17579-.35547"/><g clip-path="url(#K)"><path fill="none" stroke="#000" stroke-linecap="round" stroke-linejoin="round" stroke-miterlimit="10" stroke-width=".5" d="M371.03516 476.88281l-1.35938 6.89453"/></g><path fill="none" stroke="#000" stroke-linecap="round" stroke-linejoin="round" stroke-miterlimit="10" stroke-width=".5" d="M370.83594 477.88281l1.17578-.35547"/><g clip-path="url(#L)"><path fill="none" stroke="#000" stroke-linecap="round" stroke-linejoin="round" stroke-miterlimit="10" stroke-width=".5" d="M383.86328 476.82031l-.38281 7.01563"/></g><path fill="none" stroke="#000" stroke-linecap="round" stroke-linejoin="round" stroke-miterlimit="10" stroke-width=".5" d="M383.8086 477.83984l1.11327-.51562"/><g clip-path="url(#M)"><path fill="none" stroke="#000" stroke-linecap="round" stroke-linejoin="round" stroke-miterlimit="10" stroke-width=".5" d="M394.14063 478.26953l5.6914 4.11719"/></g><path fill="none" stroke="#000" stroke-linecap="round" stroke-linejoin="round" stroke-miterlimit="10" stroke-width=".5" d="M394.96875 478.86719l.16797-1.21485"/><g clip-path="url(#N)"><path fill="none" stroke="#000" stroke-linecap="round" stroke-linejoin="round" stroke-miterlimit="10" stroke-width=".5" d="M411.78906 477.14453l-2.97656 6.36719"/></g><path fill="none" stroke="#000" stroke-linecap="round" stroke-linejoin="round" stroke-miterlimit="10" stroke-width=".5" d="M411.35547 478.07031l1.22656-.0625"/><g clip-path="url(#O)"><path fill="none" stroke="#000" stroke-linecap="round" stroke-linejoin="round" stroke-miterlimit="10" stroke-width=".5" d="M425.17188 477.17578l-3.10938 6.30469"/></g><path fill="none" stroke="#000" stroke-linecap="round" stroke-linejoin="round" stroke-miterlimit="10" stroke-width=".5" d="M425.17188 477.17578l2.44921-.07422"/><g clip-path="url(#P)"><path fill="none" stroke="#000" stroke-linecap="round" stroke-linejoin="round" stroke-miterlimit="10" stroke-width=".5" d="M438.15625 477.03516l-2.44922 6.58593"/></g><path fill="none" stroke="#000" stroke-linecap="round" stroke-linejoin="round" stroke-miterlimit="10" stroke-width=".5" d="M438.15625 477.03516l2.42969-.32422"/><g clip-path="url(#Q)"><path fill="none" stroke="#000" stroke-linecap="round" stroke-linejoin="round" stroke-miterlimit="10" stroke-width=".5" d="M451.16016 476.9375l-1.82422 6.78516"/></g><path fill="none" stroke="#000" stroke-linecap="round" stroke-linejoin="round" stroke-miterlimit="10" stroke-width=".5" d="M451.16016 476.9375l2.39062-.55078"/><g clip-path="url(#R)"><path fill="none" stroke="#000" stroke-linecap="round" stroke-linejoin="round" stroke-miterlimit="10" stroke-width=".5" d="M466.01563 477.8164l-4.91016 5.02735"/></g><path fill="none" stroke="#000" stroke-linecap="round" stroke-linejoin="round" stroke-miterlimit="10" stroke-width=".5" d="M465.30078 478.54688l1.17969.34375"/><g clip-path="url(#S)"><path fill="none" stroke="#000" stroke-linecap="round" stroke-linejoin="round" stroke-miterlimit="10" stroke-width=".5" d="M147.22656 468.40234l-6.45312-2.77734"/></g><path fill="none" stroke="#000" stroke-linecap="round" stroke-linejoin="round" stroke-miterlimit="10" stroke-width=".5" d="M147.22656 468.40234l.20313 2.44532M146.28906 468l.10156 1.22266m14.37891-1.57422l-6.91016-1.26953m6.91016 1.26953l.7461 2.33594m-1.75-2.52344l.37109 1.17187m13.96094-1.03906l-6.9336-1.16016m6.9336 1.16016l.77734 2.32422m-1.78906-2.4961l.39062 1.16407m13.98047-1.61328l-7.02344.08203m7.02344-.08203l1.17969 2.15234m-2.19922-2.14062l.58594 1.07421m13.73047-1.42187l-6.98828.7539m6.98828-.7539l1.375 2.03125m-2.39063-1.92188l.6875 1.01563m13.6211-1.29688l-6.94141 1.09766m6.9414-1.09766l1.47266 1.96094m-2.48437-1.80078l.73828.98047m13.4414-1.73438l-6.64843 2.28516m6.64843-2.28516l1.79297 1.67579m-2.76172-1.34375l.89844.83593m13.1836-1.63672l-6.2461 3.22266m6.2461-3.22266l2.01562 1.39844m-2.92578-.92969l1.01172.69922m13.21484-1.16797l-6.2461 3.22266m6.2461-3.22266l2.01563 1.39844m11.41015-1.16406l-6.46875 2.7539m6.46875-2.7539l1.90625 1.54297m11.47266-1.375l-6.59766 2.41797m5.63672-2.06641l.91406.82031m12.94922-1.96875l-5.77344 4.01172m4.9336-3.42578l1.08984.5586m12.25-1.97657l-4.14062 5.67578M305.25 465l1.21484.17578m11.5586-1.55078l-1.85547 6.77734m1.58594-5.79297l1.1953-.26953m11.69923-.83203l-.47657 7.01172m.40625-5.99219l1.1211-.5m12.33984-.51172l-.6289 6.9961m.53906-5.98047l1.1289-.47656m12.59766-.4961l-1.26953 6.91016m1.26953-6.91016l2.33984-.74218m11.26954.80859l-1.85938 6.77734m1.58984-5.78906l1.19532-.26953m10.07422-.5586l2.76953 6.45704m-2.36719-5.51953l.76953-.95313m10.13281 4.14453l6.79297-1.80078m-5.80469 1.53906l-.83593-.89843m19.4961 2.1875l-5.875-3.85547m5.01952 3.29297l-.10937 1.22265m14.58593-3.9375l-6.48437 2.69922m6.48437-2.69922l1.89844 1.55469m11.1875-2.01563l-6.02734 3.6211m6.02734-3.6211l2.10156 1.26563m9.95313-2.5l-3.50781 6.08984M452 463.96875l2.45312.08203m11.23829.16797l-4.25782 5.58984m3.63672-4.77734l1.21094.19922"/><g clip-path="url(#T)"><path fill="none" stroke="#000" stroke-linecap="round" stroke-linejoin="round" stroke-miterlimit="10" stroke-width=".5" d="M147.30078 454.90234l-6.60156-2.40625"/></g><path fill="none" stroke="#000" stroke-linecap="round" stroke-linejoin="round" stroke-miterlimit="10" stroke-width=".5" d="M147.30078 454.90234l.33984 2.4297m13.01563-2.54688l-6.6836-2.17188m6.6836 2.17188l.42578 2.41796m-1.39844-2.73437l.21485 1.20703m14.21484-1.51172l-6.96484-.92968m6.96484.92968l.85547 2.30078m-1.8711-2.4375l.4297 1.15235m13.92187-1.21485l-7.00781-.53125m7.0078.53125l.98438 2.2461m-2.0039-2.32422l.49219 1.125m13.85156-1.34375l-7.02735.0586m7.02735-.0586l1.17187 2.16016m-2.19531-2.14844l.58594 1.07812m13.6836-1.7539l-6.88673 1.38672m6.88672-1.38672l1.5586 1.89843m-2.5625-1.6953l.78125.94921m13.33203-1.8164l-6.48047 2.71874m6.48047-2.71875l1.90234 1.55079m-2.84375-1.15625l.94922.77734m13.02344-1.71484l-5.91016 3.80468m5.91016-3.80468l2.14062 1.1953m-3-.64062l1.07031.59766m12.8086-1.54688l-5.32031 4.58985m5.3203-4.58985l2.28907.89063m-3.0625-.22266l2.28906.89063m11.77735-1.58594l-5.27344 4.64453m5.27344-4.64453l2.29687.86719m-3.0625-.1914l1.14453.43359m12.89063-1.16016l-5.17969 4.75m5.17969-4.75l2.3125.82031m-3.0664-.1289l1.15624.41015m12.77735-1.23828l-4.91407 5.02344m4.91406-5.02344l2.35547.6914m-3.0703.03907l1.17968.34375m12.42187-1.42969l-4.05859 5.73438m4.0586-5.73438l2.43359.3086m-3.02344.52343l1.21875.15625m12.42578-1.16015l-3.53515 6.07422m3.53515-6.07422l2.44922.09375m10.8711-.08985l-3.54688 6.0664m3.54687-6.0664l2.45313.10157m11.1875.11328l-4.19531 5.63672m4.1953-5.63672l2.42579.37109m-3.03516.44922l1.21094.1875m11.71094-1.52735l-2.1914 6.67579m2.1914-6.67578l2.41797-.41797m-2.73438 1.39062l1.20703-.21094m11.1172-.92968l.42577 7.01562m-.42578-7.01562l2.08985-1.28125m8.92578 2.32812l5.01953 4.91797m-5.01953-4.91797l.6953-2.35156m.03517 3.0664l.34765-1.17578m11.71094 1.15625l6.07422 3.52735m-6.07422-3.52735l.08984-2.44922m14.60938 1.11329l3.30469 6.19922M409.1289 451.5l.68359-1.01563m17.15625 2.16016l-6.70313 2.10938m6.70313-2.10938l1.75 1.72266m-2.72656-1.41406l.875.85937m13.15625-1.78125l-6.1836 3.33594m6.1836-3.33594l2.04297 1.35938m-2.94141-.875l1.01953.67968m12.9375-1.57031l-5.67187 4.14844m4.84765-3.54688l1.10547.53516m12.625-1.60156l-4.85547 5.07812m4.14844-4.33984l1.1836.33203"/><g clip-path="url(#U)"><path fill="none" stroke="#000" stroke-linecap="round" stroke-linejoin="round" stroke-miterlimit="10" stroke-width=".5" d="M147.10938 442.01563l-6.21875-3.26563"/></g><path fill="none" stroke="#000" stroke-linecap="round" stroke-linejoin="round" stroke-miterlimit="10" stroke-width=".5" d="M147.10938 442.01563l.01562 2.45312m13.34766-2.54688l-6.31641-3.07421m6.3164 3.07422l.08985 2.45312m13.23438-2.46875l-6.33204-3.04688m6.33203 3.04688l.09766 2.45313m13.45703-3.11329l-6.8125-1.72265m6.8125 1.72265l.58594 2.38282m12.69531-4.23047l-6.7461 1.97265m6.7461-1.97265l1.71485 1.7539m11.46484-2.1328l-6.47656 2.72655m6.47656-2.72656l1.90234 1.55078m11.125-2.09765l-5.89843 3.82421m5.89843-3.82421l2.14453 1.1914m11.0625-1.34765l-5.68359 4.1328m5.6836-4.1328l2.20703 1.07812m10.71093-1.53516l-4.88672 5.05079m4.88672-5.05079l2.35547.6797m-3.0664.05468l1.17968.33984m11.8125-1.76953l-2.8203 6.4375m2.8203-6.4375l2.44532-.1836m-2.85547 1.1211l1.22265-.09375m13.33203-.33203l-4.48046 5.41406m4.48047-5.41406l2.40234.4961m-3.05469.29296l1.20313.2461m13.12109-.69532l-5.1914 4.73438m5.1914-4.73438l2.3086.82422m-3.06641-.13672l1.15625.41407m11.7539-1.9414l-2.86718 6.41405m2.86718-6.41406l2.44922-.16797m-2.86719 1.10156l2.44922-.16796m11.81641-.46875l-3.9336 5.8203m3.9336-5.8203l2.4414.2578m-3.01171.58985l2.4375.25781m11.55078-1.03515l-4.13672 5.67969m4.13672-5.6797l2.42969.34376m-3.03125.48437l2.42968.34375m11.62891-1.0625l-4.42188 5.46094m4.42188-5.46094l2.40625.46875m-3.05078.32813l1.20312.23047m12.66016-1.10157l-4.23047 5.60938m4.23047-5.60938l2.42578.38672m-3.03906.4297l1.21094.1914m11.19921-1.66407l-1.1914 6.92579m1.1914-6.92579l2.32813-.76953m-2.5039 1.77735l1.16796-.38672m9.76563-.07422l3.92187 5.82812m-3.92187-5.82812l1.15234-2.16406m12.0039 2.27734l4.23829 5.60156m-4.23828-5.60156l1.03125-2.22656m17.21875 2.92578l-5.6289 4.20703m5.6289-4.20703l2.21875 1.04297m-3.03906-.4336l1.10937.52344m13.16406-.9336l-5.90625 3.8086m5.90625-3.8086l2.14063 1.19532m-3-.64062l2.14062 1.1953m11.82031-2.04687l-5.48046 4.39844m5.48046-4.39844l2.25391.96875m-3.05078-.32812l1.125.48437m11.34375-2.26172l-2.19531 6.67579m2.19531-6.67579l2.41797-.41796m-2.73828 1.38671l1.21094-.20703m11.55078-.92968l-.44922 7.01171m.38281-5.99218l1.1211-.50782"/><g clip-path="url(#V)"><path fill="none" stroke="#000" stroke-linecap="round" stroke-linejoin="round" stroke-miterlimit="10" stroke-width=".5" d="M146.82031 429.16406l-5.64062-4.1914"/></g><path fill="none" stroke="#000" stroke-linecap="round" stroke-linejoin="round" stroke-miterlimit="10" stroke-width=".5" d="M146.82031 429.16406l-.36719 2.42578m13.64063-2.36718l-5.55469-4.3086m4.7461 3.67969l-.21094 1.21094m14.9336-1.77344l-6.75782-1.92578m5.77734 1.64453l.25782 1.19922m14.1289-1.33203l-6.9375-1.09766m6.9375 1.09766l.80078 2.32031m12.52735-3.34375l-6.96485.94922m6.96485-.94922l1.4336 1.99219m11.43358-3.28516l-6.0703 3.53516m6.0703-3.53516l2.08594 1.28906m10.17969-2.41796l-3.96875 5.79687m3.39063-4.95703l1.22265.14062m12.73828-.93359l-4.10547 5.69922m3.50782-4.8711l1.21875.16797m12.83593-.89062l-4.38672 5.48828m4.38672-5.48828l2.41016.45312m-3.05078.34375l1.20703.22657m12.23047-1.3672l-3.35156 6.17579m3.35156-6.17578l2.45312.02344m11.60157.51171l-4.83204 5.10547m4.83204-5.10547l2.36328.65235m-3.0664.08984l1.18359.32813m12.5078-1.34375l-4.17577 5.65234m4.17578-5.65234l2.42578.36328m-3.03516.46094l1.21485.17968m12.20312-1.3164l-3.16406 6.27734m3.16406-6.27734l2.45313-.05078m-2.91407.96484l1.22657-.02734m12.42968-.94141l-2.92578 6.38672m2.92578-6.38672l2.44922-.14453m-2.875 1.07422l1.22657-.07422m12.91015-.64453l-3.71875 5.96484m3.71875-5.96484l2.44922.17187m-2.98828.69531l2.44531.17188m11.33985-1.07813l-3.58204 6.04297m3.58204-6.04297l2.45312.11329m-2.97266.76562l1.22657.05469m14.05078.70703l-6.46485 2.76172m6.46485-2.76172l1.91015 1.53906m-2.85156-1.13672l.95703.76953m11.40235-3.03906l-2.67188 6.5m2.67188-6.5l2.4414-.24219m12.10547 1.08985l-5.13281 4.80078m5.13281-4.80078l2.32031.79297m-3.0703-.09375l2.32421.79297m10.86328-2.17188l-3.3789 6.16016m3.3789-6.16016l2.45313.03125m-2.94532.86328l1.22657.01953m12.99609-.64453l-4.21094 5.6211m4.21094-5.6211l2.42578.375m-3.03906.4414l2.42578.37891m11.78906-.95703l-4.78515 5.14453m4.78515-5.14453l2.3711.63282m-3.06641.11718l2.3711.62891m-3.06641.11719l1.1836.3164m12.59765-2.43359l-2.9336 6.38672m2.9336-6.38672l2.44922-.14063m-2.875 1.07032l2.44922-.14453m10.87109-.94532l-2.09375 6.70703m2.09375-6.70703l2.41016-.45703m-2.71485 1.4336l2.41016-.45704m-2.71485 1.4336l1.20704-.23047m13.46484-1.39063l-3.58594 6.04297"/><g clip-path="url(#W)"><path fill="none" stroke="#000" stroke-linecap="round" stroke-linejoin="round" stroke-miterlimit="10" stroke-width=".5" d="M465.35547 424.04688l2.44922.11328"/></g><path fill="none" stroke="#000" stroke-linecap="round" stroke-linejoin="round" stroke-miterlimit="10" stroke-width=".5" d="M464.83203 424.92578l2.45313.11328"/><g clip-path="url(#X)"><path fill="none" stroke="#000" stroke-linecap="round" stroke-linejoin="round" stroke-miterlimit="10" stroke-width=".5" d="M146.89063 415.75l-5.78125-3.99219"/></g><path fill="none" stroke="#000" stroke-linecap="round" stroke-linejoin="round" stroke-miterlimit="10" stroke-width=".5" d="M146.05078 415.16797l-.14062 1.21875m13.8789-.14063l-4.94922-4.98437m4.23047 4.25781l-.36328 1.17188m14.92578-1.10938l-6.0039-3.65625m6.0039 3.65625l-.14453 2.44922m13.91406-3.65625l-6.91406-1.24219m6.91406 1.24219l.75391 2.33594m12.39453-4.1875l-6.58203 2.46094m5.625-2.10547l.91797.8125m12.91406-1.9922l-5.69922 4.10938m5.69922-4.10937l2.19922 1.08203m11.27734-.83594l-6.02343 3.61719m5.14843-3.08984l1.05078.6289m13.6211.26563l-6.98438.77344m6.98438-.77344l1.38281 2.02734m11.80469-2.64453l-6.73438 2.0039m6.73438-2.0039l1.72266 1.75m11.68359-1.3789l-6.91406 1.26562m6.91406-1.26563l1.52344 1.92188m-2.53125-1.73828l.76171.96093m13.23047-2.11718l-6.2539 3.21093m6.2539-3.21093l2.01172 1.40234m-2.92187-.9336l1.00781.69923m12.91797-1.64844l-5.65235 4.17187m5.65235-4.17187l2.21484 1.0586m-3.03906-.45313l2.21484 1.0586m12.52344-.35548l-6.85156 1.55469m6.85156-1.55469l1.60156 1.85938m-2.59765-1.63282l.80078.9297m13.2539-1.89454l-6.33984 3.02734m6.33984-3.02734l1.97266 1.46094m-2.89453-1.01953l.98828.73047m12.77734-1.90625l-5.39843 4.5m5.39843-4.5l2.27344.92578m10.48047-1.46485l-4.27734 5.57813m4.27734-5.57813l2.42188.40625m12.08593 3.50391l-6.66015-2.24219m5.6914 1.91797l.19922 1.20703m13.88281-3.60547l-6.2539 3.20313m6.2539-3.20313l2.01172 1.40235m11.32813-1.35156l-6.30469 3.10156m6.30469-3.10156l1.98828 1.43359m-2.90625-.98438l.9961.71875m13.23437-1.17187l-6.30078 3.10937m6.30078-3.10937l1.99219 1.4336m-2.91016-.98048l.9961.71485m12.64843-2.01953l-5.125 4.8125m5.125-4.8125l2.32031.79297m-3.0664-.09375l1.16015.39843m12.83203-1.16797l-4.98437 4.95313m4.98437-4.95313l2.34375.72657M425.38282 412l1.17187.35938m12.64062-1.29297l-4.52734 5.375m4.52734-5.375l2.39844.51562m10.8164-.59375l-4.32812 5.53125m4.32813-5.53125l2.41796.42578m-3.04687.3789l1.20703.21095m12.75781-1l-4.37109 5.5"/><g clip-path="url(#Y)"><path fill="none" stroke="#000" stroke-linecap="round" stroke-linejoin="round" stroke-miterlimit="10" stroke-width=".5" d="M465.7461 411.0039l2.41406.44532"/></g><path fill="none" stroke="#000" stroke-linecap="round" stroke-linejoin="round" stroke-miterlimit="10" stroke-width=".5" d="M465.10938 411.80469l2.41406.44531"/><g clip-path="url(#Z)"><path fill="none" stroke="#000" stroke-linecap="round" stroke-linejoin="round" stroke-miterlimit="10" stroke-width=".5" d="M147.51172 400.5664l-7.02344-.2539"/></g><path fill="none" stroke="#000" stroke-linecap="round" stroke-linejoin="round" stroke-miterlimit="10" stroke-width=".5" d="M146.48828 400.52734l.53906 1.10547m13.07032.95313l-5.5625-4.29297m5.5625 4.29297l-.41407 2.41797m14.20313-3.2461l-6.51172-2.63672m6.51172 2.63672l.2539 2.4414m13.19922-4.66015l-6.79297 1.79688m5.8047-1.53516l.83593.89844m10.11719-3.77344l-.08594 7.02735m.07031-6.00391l1.09375-.5625m14.76172.65625l-5.13672 4.79297m4.39063-4.09766l1.16015.39844m13.79688.73047l-6.9336 1.14453m6.9336-1.14453l1.49219 1.94922m-2.5-1.78516l1.48828 1.95313m12.85156-2.01954l-6.96484.94922m6.96484-.94922l1.4336 1.9922m-2.44532-1.85548l1.4336 1.99219m12.87109-2.26953l-6.91797 1.23047m6.91797-1.23047l1.51172 1.92969m-2.51953-1.75l1.51562 1.92968m12.75-2.375l-6.80469 1.75782m6.8047-1.75782l1.65624 1.8086m-2.64844-1.55078l.83204.90234m13.53515-.86719l-6.92578 1.17578m6.92578-1.17578l1.5 1.9414m11.71485-2.36718l-6.72657 2.02735m6.72656-2.02735l1.73047 1.74219m11.4922-2.01953l-6.53907 2.57812m6.53906-2.57812l1.86328 1.59375m11.5-1.46094l-6.63672 2.3164m6.63672-2.3164l1.80078 1.66406m11.31641-2.1211l-6.24219 3.23048m6.24219-3.23047l2.01953 1.39453m10.23828-2.625l-4.1289 5.6875m3.53125-4.85938l1.21484.17188m7.84375 3.98047l5.58203-4.27344m13.46485.21485l-5.88282 3.84765m5.02735-3.28906l1.07421.58984m12.19532-2.08594l-4.08203 5.71875m4.08203-5.71875l2.4336.32032m-3.02735.51172l2.4336.3203m12.46093-.07812l-6.05078 3.57422m6.05078-3.57422l2.09375 1.27735m11.60156 1.3711l-6.8125-1.72657m5.82031 1.47656l.29297 1.1914m14.0664-2.4375l-6.91405 1.26563m6.91406-1.26562l1.51953 1.92578m11.59375-2.60938l-6.51172 2.63282m5.5664-2.25l.9375.78906m13.44532-.8164l-6.75781 1.92187m6.75781-1.92188l1.70313 1.76953m-2.6836-1.48828l.84766.88281m13.11719-1.94921l-6.09766 3.49218"/><g clip-path="url(#aa)"><path fill="none" stroke="#000" stroke-linecap="round" stroke-linejoin="round" stroke-miterlimit="10" stroke-width=".5" d="M466.60938 398.6914L468.6875 400"/></g><path fill="none" stroke="#000" stroke-linecap="round" stroke-linejoin="round" stroke-miterlimit="10" stroke-width=".5" d="M465.72266 399.19922l1.03906.65234"/><g clip-path="url(#ab)"><path fill="none" stroke="#000" stroke-linecap="round" stroke-linejoin="round" stroke-miterlimit="10" stroke-width=".5" d="M146.71094 389.35938l-5.42188-4.47266"/></g><path fill="none" stroke="#000" stroke-linecap="round" stroke-linejoin="round" stroke-miterlimit="10" stroke-width=".5" d="M145.92188 388.71094l-.2461 1.19922m14.1875-.3672l-5.09375-4.83983m5.09375 4.83984l-.66016 2.36328m13.76563-2.16016L168.29297 384.5m4.67578 5.2461l-.85156 2.30077m.17187-3.0625l-.42578 1.14844m15.08594-4.83203l-6.00781 3.64453m6.0078-3.64453l2.10938 1.25781m-2.98437-.72656l1.05469.6289m12.47656-1.95312l-4.6914 5.23047m4.6914-5.23047l2.38281.58985m-3.0664.17187l1.1914.29297m13.89063.78906l-6.85547 1.54297m6.85547-1.54297l1.59765 1.86328m-2.59375-1.63671l1.59766 1.85937m-2.59766-1.63672l.80078.92969m14.58594-.875l-7.00781.53906m7.00781-.53906l1.3125 2.07031m-2.33203-1.99219l1.3125 2.07032m13.03125-1.83204l-7.02734-.09765m7.02734.09765l1.1211 2.1836m-2.14454-2.19922l1.125 2.1836m-2.14453-2.19532l.5586 1.08985m14.79296-1.33985l-7.01172.45703m7.01172-.45703l1.28907 2.08594m-2.3086-2.01953l.64453 1.04297m13.60938-1.66407l-6.85156 1.56641m6.85156-1.5664l1.60547 1.85546m-2.60157-1.6289l1.60547 1.85546m12.69532-2.11328l-6.83204 1.62891m6.83204-1.6289l1.625 1.83984m-2.6172-1.60547l1.625 1.83984m12.66017-2.16406l-6.78907 1.8086m6.78906-1.8086l1.67188 1.79688m-2.66016-1.53516l1.67188 1.79687m12.57422-2.2578l-6.67188 2.20702m6.67188-2.20703l1.77344 1.69531m-2.7461-1.375l1.77735 1.69532m-2.7461-1.375l.88672.84765m14.33594-1.58203l-6.60547 2.39453m6.60547-2.39453l1.82031 1.64844m-2.78125-1.30078l1.82031 1.64844m12.49219-1.88672l-6.67969 2.17578m6.67969-2.17578l1.76953 1.70312m-2.73828-1.38672l1.76563 1.70313m12.42968-2.26953l-6.5 2.67578m6.5-2.67578l1.88672 1.5664m-2.83203-1.17578l.94531.78125m13.32422-1.14453l-6.51953 2.6211m6.51953-2.6211l1.8789 1.58203m-2.82812-1.19922l1.8789 1.57813m12.33985-2.07031l-6.42578 2.83984m6.42578-2.83985l1.92969 1.51563m-2.86719-1.10156l1.92969 1.51562m-2.86328-1.10156l.96484.7539m13.91797-2.1328l-5.82031 3.9414m5.82031-3.9414l2.16797 1.14843m-3.01563-.57422l2.16797 1.14844m11.91407-1.83203l-5.66016 4.16015m5.66016-4.16015l2.21093 1.0625m-3.03515-.45703l1.10547.53125m13.14843-.96875l-5.89062 3.82812m5.89062-3.82812l2.14844 1.1875m-3.0039-.63281l1.07421.59375m13.10547-1.13672l-5.91015 3.80078m5.91015-3.80078l2.14063 1.19921m11.73047.88672l-7.01954-.37109m5.9961.3164l.51953 1.11329m13.76563-.6211l-6.91407-1.24218m6.91406 1.24218l.75391 2.33594m-1.75781-2.51953l.375 1.16797m13.98437-1.96094l-6.99218.70703"/><g clip-path="url(#ac)"><path fill="none" stroke="#000" stroke-linecap="round" stroke-linejoin="round" stroke-miterlimit="10" stroke-width=".5" d="M467.0586 386.76953l1.36327 2.03906"/></g><path fill="none" stroke="#000" stroke-linecap="round" stroke-linejoin="round" stroke-miterlimit="10" stroke-width=".5" d="M466.03906 386.875l.6836 1.01953"/><g clip-path="url(#ad)"><path fill="none" stroke="#000" stroke-linecap="round" stroke-linejoin="round" stroke-miterlimit="10" stroke-width=".5" d="M142.21875 376.83594l3.5625-6.0586"/></g><path fill="none" stroke="#000" stroke-linecap="round" stroke-linejoin="round" stroke-miterlimit="10" stroke-width=".5" d="M158.30078 377.17969l-1.97266-6.74219m1.97266 6.74219l-1.7539 1.71484m16.09375-2.20703l-4.02344-5.76172m4.02344 5.76172l-1.1172 2.1875m.53126-3.02344l-.5586 1.08985m14.07813-.01954l-3.25781-6.22656m3.2578 6.22656l-1.38671 2.02344m.91406-2.92969l-1.38672 2.02344m16.77735-5.60937l-6.46485 2.7539m6.46485-2.7539l1.91015 1.54297m-2.85156-1.14063l1.91016 1.54297m-2.84766-1.14063l1.90625 1.53907m13.46484-1.8125l-6.8203 1.69531m6.8203-1.69531l1.64063 1.82422m-2.63281-1.57813l1.64062 1.82422m12.76172-1.45703l-7.01172.46875m7.01172-.46875l1.29688 2.08594m-2.31641-2.01954l1.29297 2.08594m13.03906-2.19922l-7.0039.5586m7.0039-.5586l1.32031 2.07032m-2.33984-1.98829l1.32031 2.07032m-2.33984-1.98828l.66016 1.03515m14.69921-1.15625l-7.01172.47266m7.01172-.47266l1.29297 2.08594m-2.3125-2.01563l1.29297 2.08594m-2.3164-2.01562l.64843 1.03906m14.6914-1.3711l-6.97655.85938m6.97656-.85937l1.40625 2.01171m-2.42188-1.88671l1.40625 2.01171m-2.42187-1.88671l.70312 1.0039m14.57813-1.6211l-6.84766 1.59376m6.84766-1.59375l1.61328 1.85156m-2.60938-1.6211l1.61329 1.85157m-2.60938-1.61719l.80469.92188m14.47266-1.5l-6.78516 1.82031m6.78515-1.82031l1.67579 1.79297m-2.66407-1.52735l1.67579 1.79297m-2.66407-1.53125l1.67578 1.79688m13.4297-2.84375l-6.41798 2.85937m6.41797-2.85937l1.9375 1.5078m-2.8711-1.09374l1.9375 1.51172m-2.87109-1.09375l1.9336 1.50781m13.125-2.59766l-6.16797 3.3711m6.16797-3.3711l2.05078 1.35157m-2.94922-.85938l2.05078 1.34766m-2.94922-.85547l1.02735.67187m14.0664-1.6875l-6.1289 3.4375m6.1289-3.4375l2.0625 1.32813m-2.95312-.82813l2.0625 1.32813m12.23047-1.66406l-6.3047 3.10546m6.3047-3.10546l1.98828 1.4375m-2.90625-.98438l1.99219 1.4336m-2.91016-.98047l.9961.71484m14.29687-1.29297l-6.58985 2.44922m6.58985-2.44922l1.83203 1.63281m-2.79297-1.27343l1.83594 1.6289m-2.79297-1.27344l.91797.8125m14.35937-1.39843l-6.67578 2.19531m6.67578-2.19531l1.76953 1.69922m-2.74218-1.37891l1.76953 1.69531m-2.74219-1.3789l.88672.85156m14.10156-2.10156l-6.13672 3.42187m6.13672-3.42187l2.0625 1.32812m-2.95312-.83203l2.05859 1.33203m11.85547-2.26953l-5.55078 4.30469m5.55078-4.30469L402 372.66015m-3.04688-.3789l2.23829 1.00781m11.83984-1.6914l-5.46094 4.42187m5.46094-4.42187l2.25781.95703m-3.05078-.3125l1.1289.47656m13.35938-.54297l-6.22265 3.26563m6.22265-3.26563l2.02735 1.38281m11.64453-.30859l-6.9336 1.11719m6.9336-1.11719l1.48437 1.95313m11.82422-.79297l-6.92187-1.20313m6.92187 1.20313l.76563 2.32812m12.48437-2.01953l-6.78906-1.82031m6.78906 1.82031l.55078 2.39063"/><g clip-path="url(#ae)"><path fill="none" stroke="#000" stroke-linecap="round" stroke-linejoin="round" stroke-miterlimit="10" stroke-width=".5" d="M141.57031 363.03125l4.85938-5.07422"/></g><path fill="none" stroke="#000" stroke-linecap="round" stroke-linejoin="round" stroke-miterlimit="10" stroke-width=".5" d="M157.53906 364l-.44531-7.01172M157.53906 364l-2.08984 1.28516m2.02344-2.3047l-1.04297.64063m15.9375-.07421l-3.47266-6.10938m3.47266 6.10938l-1.3164 2.07421m.80858-2.96093l-1.3125 2.0703m15.33985-1.30858l-3.88281-5.85547m3.8828 5.85546l-1.16796 2.15625m.60547-3.0078l-.58594 1.07812m13.03125.32031l-1.01953-6.95313m1.01953 6.95313l-1.97656 1.45313m1.82812-2.46485l-1.97656 1.45313m1.82813-2.46485l-.98828.72656m17.60156-2.3164l-7.01953.27734m7.01953-.27734l1.23828 2.1211m-2.25781-2.08204l1.23437 2.1211m13.10156-2.13672l-7.02343.22656m7.02343-.22656l1.21875 2.1289m-2.24218-2.09375l1.22265 2.1289m13.11328-1.91796l-7.01953-.26172m7.01953.26172l1.07422 2.20703m-2.09375-2.2461l1.07031 2.20704m-2.09375-2.2461l.53516 1.10547m14.82422-1.30859l-7.01953.29688m7.01953-.29688l1.24219 2.11719m-2.26563-2.07422l1.24219 2.11719m-2.26172-2.07422l1.24219 2.11719m14.09375-2.45704l-6.98047.8047m6.98047-.8047l1.39453 2.02344m-2.41016-1.90625l1.39453 2.02344m-2.41015-1.90625l.69922 1.01172m14.6289-1.40235l-6.9375 1.1211m6.9375-1.1211l1.48047 1.95313m-2.49219-1.78906l1.48438 1.95312m-2.49219-1.79297l.74219.98047m14.57422-1.39844l-6.90625 1.3047m6.90625-1.3047l1.53515 1.91407m-2.53906-1.72266l1.53516 1.91406m-2.53906-1.72656l.76562.95703m14.54688-1.39062l-6.88282 1.41406m6.88282-1.41406l1.5625 1.89062m-2.5625-1.6836l1.5625 1.89063m-2.56641-1.6836l.78125.94532m14.29297-2.10547l-6.39453 2.91016m6.39453-2.91016l1.94531 1.49219m-2.875-1.07031l1.94531 1.4961m12.08203-2.32423l-5.96093 3.71875m5.96093-3.71875l2.125 1.22656m-2.99218-.68359l2.125 1.22656m-2.99219-.6875l1.0625.61329m14.01172-1.65625l-6.00781 3.64062m6.0078-3.64063l2.10938 1.25782m-2.98437-.72656l2.10937 1.2539m-2.98437-.72656l1.05469.6289m13.89062-1.87109L354.15625 362.5m5.76953-4.01172l2.1836 1.1211m-3.02344-.53907l2.1836 1.1211m-3.02345-.53516l1.09375.5586m14.375-.75l-6.71875 2.05859m6.71875-2.0586l1.73828 1.73438m-2.71484-1.4336l1.73438 1.73438m-2.71094-1.4375l.86719.86719m14.07812-2.20313l-6.07422 3.53125m6.07422-3.53125l2.08594 1.29297m-2.96875-.77734l2.08594 1.29297m-2.96875-.78125l2.08593 1.29296m12.83203-2.57421l-5.75 4.03906m5.75-4.03906l2.19141 1.10937m-3.02734-.51953l2.1875 1.10938m-3.02344-.52344l1.09375.55469m14.09766-1.40625l-6.15235 3.39453m6.15235-3.39454l2.05468 1.33985m-2.94922-.84766l2.0547 1.33985m12.3828-1.32422l-6.61328 2.3789m6.61328-2.3789l1.81641 1.64844m-2.77734-1.3047l1.8164 1.65235m12.57422-1.61328l-6.83984 1.61328m6.83984-1.61328l1.61719 1.84375m-2.61328-1.60938l1.6211 1.84375m12.73827-1.82812l-6.9375 1.11328m6.9375-1.11328l1.48047 1.95703m-2.48828-1.79687l.73828.98046m13.625-.76562l-7.01953.35938"/><g clip-path="url(#af)"><path fill="none" stroke="#000" stroke-linecap="round" stroke-linejoin="round" stroke-miterlimit="10" stroke-width=".5" d="M467.07031 360.3125l1.26172 2.10547"/></g><g clip-path="url(#ag)"><path fill="none" stroke="#000" stroke-linecap="round" stroke-linejoin="round" stroke-miterlimit="10" stroke-width=".5" d="M141.05469 349.09375l5.89062-3.82813"/></g><path fill="none" stroke="#000" stroke-linecap="round" stroke-linejoin="round" stroke-miterlimit="10" stroke-width=".5" d="M157.08984 350.6836l.44922-7.01173m-.44922 7.01172l-2.23437 1.01172m2.30078-2.03125l-2.23438 1.01172m17.11329-.27734l-2.8086-6.4414m2.8086 6.4414l-1.52344 1.92187m1.11328-2.85937l-1.52344 1.92187m16.67969-2.13281l-5.67188-4.14453m5.67188 4.14453l-.34766 2.42969m-.47656-3.03125l-.34766 2.42969m13.53125-.9336l-3.76171-5.9336m3.76172 5.9336l-1.21094 2.13281m.66406-2.99609l-1.21094 2.13281m14.71094-1.0664l-3.03906-6.33985m3.03906 6.33985l-1.45703 1.97265m1.01562-2.89453l-1.45703 1.97266m1.01563-2.89453l-1.45703 1.97265m17.0078-1.27344l-5.74218-4.05078m5.74219 4.05079l-.3086 2.4375m-.52734-3.02735l-.3086 2.4375m15.03516-3.19922l-6.89453-1.34765m6.89453 1.34765l.71485 2.34766m-1.71875-2.54297l.71484 2.34766m13.66016-2.53907l-7.0039-.57421m7.0039.57421l.96875 2.25391m-1.98828-2.33594l.97265 2.25m-1.99219-2.33594l.48438 1.12891m14.8789-1.34375l-7.02343.1914m7.02344-.1914l1.21093 2.13281m-2.23437-2.10546l1.21094 2.1328m-2.23047-2.10546l.60547 1.0664m14.73437-1.40625l-6.98828.76172m6.98828-.76171l1.3789 2.03125m-2.39452-1.91797l1.3789 2.02734m-2.39843-1.91797l.6914 1.01563m14.5039-1.94922l-6.67968 2.1836m6.67969-2.1836l1.76953 1.70312m-2.74219-1.38672l1.76953 1.70313m12.61328-1.67578l-6.86718 1.5m6.86718-1.5l1.58594 1.8711m-2.58594-1.65235l1.58594 1.86719m12.77344-1.84375l-6.95703 1.01171m6.95703-1.01171l1.44922 1.97656m-2.46094-1.82813l.72656.98828m13.20313-2.3164l-6.16406 3.375m6.16406-3.375l2.05078 1.34765m-2.94531-.85937l1.02343.67578m12.3047-2.21875l-4.39845 5.48047m4.39844-5.48047l2.41016.46094m-3.05078.33594l2.41015.46093m11.76563-1.0625l-4.83985 5.09375m4.83985-5.09375l2.36328.65625m-3.0664.08203l2.36327.66016m12.55079-.01563l-6.63282 2.32422m6.63282-2.32421l1.80468 1.66796m-2.76953-1.32812l1.80469 1.66406M387 346.05078l-6.65625 2.25781M387 346.0508l1.78516 1.67968m-2.75391-1.35156l1.78516 1.67968m-2.75391-1.35156l.89453.83985m14.04688-2.16797l-6.03516 3.60156m6.03516-3.60156l2.09765 1.26953m-2.97656-.7461l2.10156 1.26954m-2.98047-.7461l2.10157 1.26953m13.11328-2.0586l-6.3164 3.08204m6.3164-3.08203l1.98437 1.4414m-2.90625-.99218l1.98828 1.4414m-2.90625-.99218l1.98438 1.4414m13.30078-2.02734l-6.58203 2.45703m6.58203-2.45703l1.83984 1.625m-2.79687-1.26953l1.83984 1.6289m-2.79687-1.26953l.91797.8125m14.4414-1.09765l-6.83984 1.59765m6.83984-1.59765l1.61719 1.84765m-2.60937-1.61328l1.61328 1.84766m-2.60938-1.61719l.80469.92578m14.42969-1.64062l-6.70313 2.10156m6.70313-2.10156l1.75 1.72265m-2.72266-1.41797l1.7461 1.72266m-2.72266-1.41797l.875.86328m14.41406-1.40234l-6.75 1.95703"/><g clip-path="url(#ah)"><path fill="none" stroke="#000" stroke-linecap="round" stroke-linejoin="round" stroke-miterlimit="10" stroke-width=".5" d="M466.9375 346.19922l1.70703 1.76172"/></g><path fill="none" stroke="#000" stroke-linecap="round" stroke-linejoin="round" stroke-miterlimit="10" stroke-width=".5" d="M465.95313 346.48438l1.71093 1.76171m-2.6914-1.47656l.85546.8789"/><g clip-path="url(#ai)"><path fill="none" stroke="#000" stroke-linecap="round" stroke-linejoin="round" stroke-miterlimit="10" stroke-width=".5" d="M141.08594 335.82813l5.82812-3.9297"/></g><path fill="none" stroke="#000" stroke-linecap="round" stroke-linejoin="round" stroke-miterlimit="10" stroke-width=".5" d="M157.8086 337.33984l-.98829-6.95703m.98828 6.95703l-1.98437 1.44532m1.83984-2.45704l-1.98437 1.44532m16.54687-.78125l-3.1914-6.25781m3.1914 6.2578l-1.40625 2.01173m.9414-2.92188l-1.40624 2.01172m.9414-2.92188l-1.40625 2.01172m16.3672-.67578l-4.625-5.28906m4.625 5.28906l-.875 2.29297m.20312-3.0625l-.875 2.29297m.19922-3.0625l-.8711 2.29297m15.5664-.78125l-4.6914-5.23438m4.6914 5.23438l-.84374 2.30078m.16016-3.0625l-.84375 2.30469m.16406-3.0664l-.84375 2.30468m.16015-3.0664l-.42187 1.15234m16.36328.46484l-5.84766-3.89844M213.5 335.8125l-.2461 2.4414m-.60546-3.0078l-.24219 2.4414m-.60938-3.00781l-.24218 2.4414m-.60938-3.01171l-.24219 2.4414m15.76954-.30469l-5.16407-4.76562m5.16407 4.76562l-.6211 2.3711m-.1289-3.0664l-.6211 2.375m-.13281-3.06642l-.6211 2.3711m15.69141-1.29297l-5.66797-4.14844m5.66797 4.14844l-.34765 2.42969m-.47657-3.03125l-.17187 1.21094m14.9414-2.08985l-6.92578-1.1875m6.92578 1.1875l.76954 2.33203m-1.77735-2.5039l.76953 2.32812m-1.77734-2.5l.38281 1.16406m14.9961-1.53125l-7.02344.23438m7.02344-.23438l1.22265 2.125m-2.2461-2.08984l1.22657 2.125m-2.2461-2.09375l.60938 1.0664m14.65235-1.83593l-6.83203 1.64062m6.83203-1.64062l1.625 1.83984m-2.6172-1.60156l1.625 1.83984m-2.62108-1.60156l.8125.92188m14.32421-1.91407l-6.5 2.67188m6.5-2.67188l1.89063 1.5625m-2.83594-1.17578l1.89063 1.5664m-2.83594-1.17577l.94531.78125m14.22656-1.64453l-6.42968 2.84375m6.42968-2.84375l1.9297 1.51562m-2.8672-1.10156l1.9297 1.51562m-2.86329-1.10156l.96484.75781m14.28125-1.43359l-6.55078 2.53906m6.55078-2.53906l1.85938 1.60156m-2.8125-1.23437l1.85937 1.60547m-2.8125-1.23438l.9297.80078m14.14452-1.875l-6.2539 3.20703m6.2539-3.20703l2.01172 1.40235m-2.92187-.9336l2.01171 1.40235m12.31641-1.64844l-6.46094 2.76562m6.46094-2.76562l1.91016 1.53515m9.7539-3.28906L355.46094 337m3.16015-6.27344l2.45313-.05469m12.42578 1.625l-6.28906 3.13282m6.28906-3.13281l2 1.42578m-2.91406-.96875l1 .71093m13.5586-.12109l-6.94923 1.03906m6.94922-1.03906l1.46094 1.97266m-2.46875-1.82032l.72656.98438m13.60156-1.11328l-6.95703.99219m6.95703-.9922l1.44532 1.98048m-2.45704-1.83594l1.44532 1.98047m12.55078-3.1875l-6.29688 3.11719m6.29688-3.1172l1.9961 1.4297m-2.91016-.97657l1.99218 1.42969m12.4375-1.38672l-6.6953 2.125m6.6953-2.125l1.75391 1.71485m-2.72656-1.40625l1.7539 1.71484m-2.73047-1.40625l.87891.85937m14.39453-1.45312l-6.71484 2.07812m6.71484-2.07812l1.74219 1.72656m-2.71875-1.42578l1.74219 1.73047m-2.71875-1.42578l1.74218 1.72656m13.57032-2.16406l-6.80469 1.74219m6.80469-1.7422l1.65625 1.8125m-2.64453-1.55859l1.65234 1.8125M451.66797 333.5l1.65625 1.8125m13.54687-2.63281l-6.61718 2.36719"/><g clip-path="url(#aj)"><path fill="none" stroke="#000" stroke-linecap="round" stroke-linejoin="round" stroke-miterlimit="10" stroke-width=".5" d="M466.8711 332.67969l1.8125 1.65234"/></g><path fill="none" stroke="#000" stroke-linecap="round" stroke-linejoin="round" stroke-miterlimit="10" stroke-width=".5" d="M465.90625 333.02344l1.8164 1.65234m-2.77734-1.3086l1.8125 1.65235"/><g clip-path="url(#ak)"><path fill="none" stroke="#000" stroke-linecap="round" stroke-linejoin="round" stroke-miterlimit="10" stroke-width=".5" d="M143.84375 324.0586l.3125-7.01954"/></g><g clip-path="url(#al)"><path fill="none" stroke="#000" stroke-linecap="round" stroke-linejoin="round" stroke-miterlimit="10" stroke-width=".5" d="M143.88672 323.03516l-1.10547.52734"/></g><path fill="none" stroke="#000" stroke-linecap="round" stroke-linejoin="round" stroke-miterlimit="10" stroke-width=".5" d="M158.17188 323.95703l-1.71485-6.8164m1.71484 6.8164l-1.8203 1.64453m1.5703-2.63672l-1.8203 1.64454m1.5703-2.63672l-.91015.82421m15.73047.73047l-3.72266-5.95703m3.72266 5.95703l-1.22656 2.125m.68359-2.99218l-1.22656 2.125m.6875-2.9922l-1.22657 2.125m15.66407-.41796l-3.8047-5.90625m3.8047 5.90625l-1.19532 2.14453m.64063-3.0039l-1.19531 2.14453m.64453-3.00391l-1.19922 2.14453m.64453-3.0039l-.59766 1.0703m15.84375 1.31641l-4.34765-5.52343m4.34765 5.52343l-.99218 2.2461m.35937-3.05078l-.99219 2.24609m.35938-3.04688l-.98828 2.2422m.35547-3.04688l-.4922 1.1211m16.3125.67577l-5.55858-4.29687m5.55859 4.29687l-.41406 2.41797m-.39453-3.04297l-.41407 2.41797m-.39453-3.04297l-.41406 2.41797m15.76953-1.8711l-6.40625-2.88671m6.40625 2.88672l.16016 2.44922m-1.09375-2.8711l.16015 2.44922m-1.08984-2.86719l.16016 2.44922m15.14843-1.94531l-6.66797-2.21484m6.66797 2.21484l.41406 2.41797m-1.3828-2.74219l.41015 2.41797m-1.38281-2.73828l.41406 2.41797m14.9961-2.45313l-6.97657-.85547m6.97656.85547l.8789 2.28906m-1.89452-2.41406l.88281 2.28906m-1.89844-2.41406l.88281 2.28906m14.48829-2.53515l-7.02344.13281m7.02344-.13281l1.1953 2.14453m-2.21483-2.125l1.1914 2.14453m-2.21484-2.125l1.1914 2.14453m14.08985-2.85937l-6.8711 1.48437m6.8711-1.48437l1.58203 1.875m-2.58203-1.66016l1.58203 1.875m-2.58203-1.65625l.79297.9375m14.39062-1.82031l-6.60937 2.38672m6.60937-2.38672l1.82031 1.64844m-2.78125-1.30079l1.82032 1.64454m-2.78125-1.29688l.91015.82031m14.21094-1.80468l-6.375 2.96484m6.375-2.96484l1.95703 1.48046m-2.88672-1.05078l1.95703 1.48047m-2.8828-1.04687l.97655.73828m14.13672-1.71875l-6.26172 3.19531m6.26172-3.19531l2.00782 1.41015m-2.91797-.9453l2.0078 1.40624m-2.92187-.9414l1.00782.70312m13.91015-2.0039l-5.82031 3.9375m5.82031-3.9375l2.16797 1.14843m-3.01562-.57422l2.16797 1.14844m-3.01172-.57422l1.08203.57422m13.8125-1.8789l-5.59375 4.2539m5.59375-4.2539l2.22656 1.02734m-3.03906-.41016l2.22656 1.02735m11.97266-1.54297l-5.73828 4.05078m5.73828-4.05078l2.1914 1.10547m-3.02343-.51563l1.09375.55078m13.43359-.44922l-6.5 2.66407m6.5-2.66407l1.89062 1.57032m11.2422-1.95313l-6.13282 3.42969m6.13281-3.42969l2.0625 1.32813m-2.95703-.82813l1.03125.66406m13.53516-.23828l-6.84766 1.58203m6.84766-1.58203l1.60937 1.85156m11.67969-.16015l-6.79297-1.80078m6.79297 1.80078l.55469 2.38672m12.87109-3.44531l-7.01953.3125m6-.26563l.625 1.05469m10.08594-4.45703l.22656 7.02343m-.1914-6l1.0625-.60937m14.95312.75781l-5.23828 4.6836m5.23828-4.6836l2.30078.84766m-3.0625-.16797l1.14844.42578m13.26562-.66406l-5.91406 3.79687"/><g clip-path="url(#am)"><path fill="none" stroke="#000" stroke-linecap="round" stroke-linejoin="round" stroke-miterlimit="10" stroke-width=".5" d="M466.51953 318.64844l2.13672 1.20312"/></g><g clip-path="url(#an)"><path fill="none" stroke="#000" stroke-linecap="round" stroke-linejoin="round" stroke-miterlimit="10" stroke-width=".5" d="M465.65625 319.20313l2.14063 1.19921"/></g><path fill="none" stroke="#000" stroke-linecap="round" stroke-linejoin="round" stroke-miterlimit="10" stroke-width=".5" d="M464.79688 319.7539l1.0703.60157"/><path fill="#00f" fill-rule="evenodd" d="M312.78516 472.08594h8.62109V461.9414h-8.6211v10.14453"/><path fill="azure" fill-rule="evenodd" d="M314.6211 463.77344h.83202v2.82422h3.28516v-2.82422h.83203v6.48047h-.83203v-2.91797h-3.28515v2.91797h-.83204v-6.48047"/><path fill="#ff3030" fill-rule="evenodd" d="M269.09766 454.33203h7.6914V444.1875h-7.6914v10.14453"/><path fill="azure" fill-rule="evenodd" d="M270.92969 446.01953h.83203v5.73828h3.19531V452.5h-4.02734v-6.48047"/><path fill="#00f" fill-rule="evenodd" d="M397.11719 449.89453h8.61719V439.75h-8.6172v10.14453"/><path fill="azure" fill-rule="evenodd" d="M398.94922 441.58203h.83203v2.82422h3.28516v-2.82422h.83593v6.48047h-.83593v-2.91797h-3.28516v2.91797h-.83203v-6.48047"/><path fill="#ff3030" fill-rule="evenodd" d="M198.08203 432.14063h7.69531v-10.14454h-7.6953v10.14454"/><path fill="azure" fill-rule="evenodd" d="M199.91797 423.82813h.83203v5.73828h3.19531v.74218h-4.02734v-6.48046"/><path fill="#ffffe0" fill-rule="evenodd" d="M239.66016 444.41797h22.18359v-10.1914h-22.1836v10.1914"/><path fill-rule="evenodd" d="M243.16016 436.0625h.51172v6.29297h-.78907v-4.48828h-1.38672v-.5586l.5586-.0625.2539-.05468.22657-.08985.20312-.14062.17578-.21094.14063-.29297.10547-.39453m4.8164 0l.22656.01563.21875.05859.21094.08984.19531.11719.1836.15234.17187.17579.30078.41796.2422.4922.17968.54687.11328.58203.03906.58984-.03906.59375-.11328.58203-.17969.55469-.24219.5039-.30078.42579-.17187.17969-.1836.15234-.1953.125-.21095.09375-.21875.05469-.22656.01953-.23047-.01953-.21875-.0547-.20703-.09374-.19922-.125-.18359-.15235-.17188-.17968-.30078-.42578-.24218-.50391-.1797-.55469-.11327-.58203-.03906-.59375h.83593l.02735.5625.08203.50781.125.44141.16406.375.1914.30078.21094.21875.22266.14063.22656.04687.22656-.04687.22266-.14063.20703-.21875.1914-.30078.16407-.375.125-.4414.08203-.50782.02735-.5625-.02735-.5625-.08203-.5-.125-.4336-.16406-.36718-.1914-.29297-.20704-.21484-.22266-.1289-.22656-.04688-.22656.04687-.22266.1289-.21093.21485-.19141.29297-.16406.36719-.125.4336-.08203.5-.02735.5625h-.83594l.03907-.58985.11328-.58203.17969-.54688.24218-.49219.30078-.41796.17188-.17579.1836-.15234.19921-.11719.20703-.08984.21875-.0586.23047-.01562m5.08985 0h.5078v6.29297h-.78515v-4.48828h-1.39062v-.5586l.5625-.0625.25-.05468.23047-.08985.20312-.14062.17578-.21094.14063-.29297.10547-.39453m2.82422 2.17188h.78515l.01953-.31641.0586-.28516.10156-.25.14062-.21875.1797-.17187.22265-.1289.26562-.08204.3086-.02734.23828.02343.22265.0625.20313.10157.17969.13671.14843.17579.11329.20312.07421.23828.02344.26172-.02344.26953-.0625.22656-.11328.19141-.15234.17188-.20313.16015-.24609.16797-.63281.38672-.53906.3125-.4375.3164-.34766.32813-.26172.33203-.1914.35156-.125.3711-.06641.39453-.02344.41797h4.21094v-.74219h-3.33203l.08593-.28125.11329-.23828.14843-.20313.1875-.17968.23047-.17188.27735-.17578.71875-.41406.41406-.20703.34375-.23047.28125-.25.22265-.26953.16016-.27735.11328-.28125.0625-.28515.01953-.28125-.03906-.38281-.1211-.35157-.1914-.30469-.25-.26562-.30078-.21094-.34766-.16015-.3789-.09766-.40625-.03125-.4336.03125-.39844.09766-.35546.16796-.3047.23438-.25.30469-.18358.3711-.1172.44921-.03905.51563"/><path fill="#ffffe0" fill-rule="evenodd" d="M173.08594 462.64063h22.17969v-10.19141h-22.1797v10.1914"/><path fill-rule="evenodd" d="M176.58594 454.28125h.50781v6.29297h-.78516v-4.48828h-1.39062v-.55469l.5625-.0664.25-.0547.23047-.08593.20312-.14453.17578-.20703.14063-.29688.10547-.39453m4.8125 0l.23047.01953.21875.05469.20703.08984.19922.1211.18359.14843.17188.17579.30078.42187.24218.49219.1797.54687.11327.57813.03516.58984-.03516.59375-.11328.58594-.17969.55469-.24218.5-.30078.42968-.17188.1797-.1836.15233-.19921.125-.20703.08985-.21875.0586-.23047.01952-.22656-.01953-.21875-.0586-.21094-.08983-.19531-.125-.1836-.15235-.17187-.17969-.30078-.42968-.2461-.5-.17969-.5547-.10937-.58593-.03906-.59375h.83203l.03125.5664.08203.50391.125.44141.16406.375.1875.30078.21094.22266.22266.13672.22656.04687.22656-.04687.22266-.13672.21093-.22266.19141-.30078.16406-.375.125-.4414.08203-.50391.02735-.5664-.02735-.5586-.08203-.5-.125-.4375-.16406-.36719-.1914-.28906-.21094-.21485-.22266-.1328-.22656-.04298-.22656.04297-.22266.13281-.21094.21485-.1875.28906-.16406.36719-.125.4375-.08203.5-.03125.5586h-.83203l.03906-.58985.10937-.57813.1797-.54687.24608-.49219.30079-.42188.17187-.17578.1836-.14843.1953-.1211.21095-.08984.21875-.05469.22656-.01953m5.09375 0H187v6.29297h-.78516v-4.48828h-1.39062v-.55469l.5586-.0664.2539-.0547.23047-.08593.20312-.14453.17188-.20703.14453-.29688.10547-.39453m2.82031 2.17578h.78906l.01953-.3164.0586-.28516.10156-.2539.13672-.21485.1836-.17578.22265-.1289.26562-.07813.3086-.02735.23828.01953.22266.0625.20312.10157.17969.14062.14844.17188.11328.20703.0703.23437.02735.26563-.02344.26953-.0664.22265-.10938.19141-.15625.17188-.19922.16406-.24609.16406-.63672.39063-.53515.3125-.4375.3164-.34766.32422-.26172.33594-.1914.35156-.125.36719-.07032.39453-.01953.41797h4.21094v-.73828h-3.33203l.08203-.28516.11328-.23828.14844-.19922.1875-.17969.23047-.17187.28125-.17578.71484-.41797.41797-.20313.34375-.23046.28125-.25391.21875-.26563.16406-.27734.11328-.28516.0625-.28515.01953-.28125-.04297-.38281-.11718-.34766-.1914-.3086-.25-.26171-.30079-.21485-.34766-.15625-.3789-.09765-.40625-.03516-.4375.03125-.39844.10156-.35156.16406-.30469.23438-.25.30469-.1875.375-.11328.44531-.04297.51953"/><path fill="#ffffe0" fill-rule="evenodd" d="M252.97656 473.67578h22.17969v-10.1914h-22.17969v10.1914"/><path fill-rule="evenodd" d="M256.47656 465.3164h.50781v6.29298h-.78515v-4.48829h-1.39063v-.55468l.5625-.06641.25-.05469.23047-.08984.20313-.14063.17578-.21093.14062-.29297.10547-.39453m4.8125 0l.23047.01953.21875.05469.20703.08984.19531.1211.1875.14843.17188.17578.30078.41797.24219.4961.17969.54687.11328.57812.03515.58985-.03515.59375-.11328.58594-.1797.55078-.24218.5039-.30078.42578-.17188.1797-.1875.15624-.1953.1211-.20704.09375-.21875.05468-.23047.01953-.22656-.01953-.22266-.05469-.20703-.09375-.19531-.12109-.1836-.15625-.17187-.17969-.30078-.42578-.2461-.5039-.17968-.55079-.10938-.58593-.03906-.59375h.83203l.03125.5625.08203.50781.125.4414.16016.375.1914.30079.21094.22265.22266.13672.22656.04688.22656-.04688.22266-.13672.21094-.22265.1914-.30078.16407-.375.125-.44141.08203-.50781.02734-.5625-.02734-.5625-.08203-.5-.125-.4336-.16406-.36718-.19141-.29297-.21094-.21094-.22265-.13281-.22657-.04688-.22656.04688-.22266.13281-.21093.21094-.19141.29297-.16016.36718-.125.4336-.08203.5-.03125.5625h-.83203l.03906-.58985.10938-.57812.17969-.54688.24609-.49609.30078-.41797.17188-.17578.18359-.14844.19531-.1211.20703-.08983.22266-.0547.22656-.01952m5.09375 0h.50781v6.29296h-.78515v-4.48828h-1.39063v-.55468l.5586-.06641.2539-.05469.23047-.08984.20313-.14063.17187-.21093.14453-.29297.10547-.39453m2.82031 2.17578h.78907l.01953-.3164.0586-.28907.09765-.25.14062-.21485.1836-.17578.22265-.1289.26563-.07813.3086-.03125.23437.02344.22656.0625.20313.10156.17968.13672.14844.17578.11328.20313.07031.23828.02735.26562-.02344.26563-.0664.22656-.10938.1914-.15625.17188-.19922.16016-.2461.16797-.63671.38672-.53516.3164-.4375.3164-.34765.32423-.26172.33594-.19141.35156-.125.36719-.07031.39453-.01953.41796h4.21093v-.73828h-3.33203l.08203-.28515.11329-.23828.14843-.19922.1875-.17969.23047-.17188.28125-.17578.71485-.41796.41796-.20313.34375-.23438.28125-.25.21875-.26562.16407-.27734.11328-.28516.0625-.28516.01953-.28125-.04297-.3828-.11719-.34767-.1914-.30859-.25-.26172-.30079-.21484-.34765-.15625-.3789-.10156-.40626-.03125-.4375.03125-.39844.09765-.35156.16797-.3086.23438-.24608.30468-.1875.375-.11329.44532-.04296.51953"/><path fill="#ffffe0" fill-rule="evenodd" d="M359.4961 393.46875h22.17968v-10.1914H359.4961v10.1914"/><path fill-rule="evenodd" d="M362.9961 385.10938h.51171v6.29687h-.78906v-4.49219h-1.38672v-.55469l.5586-.0625.25-.05468.23046-.08985.20313-.14062.17578-.21094.14063-.29297.10546-.39844m4.8125 0l.23047.01954.21875.05468.20703.08985.19922.1211.1836.15233.17187.17579.30078.41796.24219.4922.17969.54687.11328.58203.03906.58984-.03906.59375-.11328.58203-.17969.5547-.24219.5039-.30078.42578-.17187.17969-.1836.15234-.19922.125-.20703.08984-.21875.0586-.23047.01953-.22656-.01953-.21875-.0586-.21094-.08984-.1953-.125-.1836-.15234-.17188-.1797-.30078-.42577-.24219-.5039-.17968-.5547-.11329-.58203-.03906-.59375h.83594l.02734.5625.08204.5039.125.44532.16406.375.1914.30078.21094.21875.22266.13672.22265.04688.22657-.04688.22265-.13672.21094-.21875.1914-.30078.16407-.375.125-.44531.08203-.5039.02734-.5625-.02734-.5625-.08203-.5-.125-.4336-.16406-.36719-.19141-.29297-.21094-.21484-.22265-.1289-.22657-.04688-.22265.04687-.22266.1289-.21094.21485-.1914.29297-.16406.36719-.125.4336-.08204.5-.02734.5625h-.83594l.03906-.58985.11329-.58203.17968-.54688.2422-.49219.30077-.41796.17188-.17579.1836-.15234.1953-.1211.21094-.08984.21875-.05468.22656-.01954m5.09375 0h.50782v6.29688h-.78516v-4.49219h-1.39063v-.55469l.5625-.0625.25-.05468.23047-.08985.20313-.14062.17578-.21094.14063-.29297.10546-.39844m6.8047 1.6211h-.78907l-.05078-.21094-.08203-.1875-.10547-.16015-.1289-.12891-.14845-.10547-.16015-.07422-.16797-.04297-.17188-.01562-.32812.04297-.28906.11718-.2461.19532-.20312.26953-.16016.33984-.11719.40235-.0703.46875-.02345.52343.19141-.19922.1836-.16015.1875-.125.18359-.08594.1875-.0625.19531-.03516.39844-.02343.3086.03125.3203.08984.31641.15625.29297.21875.25781.28516.19922.35156.07031.19922.05469.21875.02734.23437.00391.25-.78516.04688-.02734-.25781-.07813-.25391-.12109-.23438-.16015-.20703-.19532-.17969-.21875-.13671-.24219-.08985-.2539-.03125-.2539.03125-.2422.08985-.21875.13671-.1914.1797-.16406.20702-.1211.23438-.07812.2539-.02735.25782.02735.25781.07812.25.1211.23438.16406.21093.1914.17969.21875.13672.2422.08594.2539.03125.2539-.03125.2422-.08594.21874-.13672.19531-.17969.16016-.21094.1211-.23437.07812-.25.02734-.25781.78516-.04688-.03125.3711-.08984.37109-.16016.35938-.22266.32812-.28906.28125-.16797.1211-.1914.10156-.20313.08203-.22656.0625-.23828.03906-.26172.01172-.28125-.01563-.26172-.04687-.23828-.07813-.21485-.10156-.1953-.13281-.17188-.15625-.15625-.17969-.13672-.20312-.11328-.22266-.10156-.24219-.14454-.53515-.08593-.59375-.02735-.64063.03906-.74219.11329-.66406.1875-.57812.12109-.25391.13672-.23047.15234-.20703.16797-.1836.1875-.15234.20313-.1289.21875-.10547.23046-.07031.25-.04688.26172-.01563.36329.03516.33203.09766.29687.14844.25781.19921.21094.2422.16406.27343.1172.30469.0625.3203"/><path fill="#ffffe0" fill-rule="evenodd" d="M217.46875 364.48047h22.17969v-10.1914h-22.17969v10.1914"/><path fill-rule="evenodd" d="M220.96875 356.1211h.50781v6.29296h-.78515v-4.48828h-1.38672v-.55469l.5586-.0664.25-.05469.23046-.08594.20313-.14453.17578-.20703.14062-.29688.10547-.39453m4.8125 0l.23047.01954.21875.05468.20703.08985.19922.12109.1836.14844.17187.17578.30078.42187.24219.4922.17968.54687.11328.57812.03907.58985-.03906.59375-.11329.58593-.17968.55469-.2422.5-.30077.42969-.17188.17969-.1836.15234-.19921.125-.20703.08984-.21875.0586-.23047.01953-.22656-.01953-.21875-.0586-.21094-.08984-.19531-.125-.1836-.15235-.17187-.17968-.30078-.42969-.24219-.5-.17969-.55469-.11328-.58594-.03906-.59375h.83594l.02734.56641.08203.5039.125.44141.16406.375.19141.30079.20703.22265.22266.13672.22656.04688.22656-.04688.22266-.13672.21094-.22265.1914-.30079.16406-.375.125-.4414.08204-.5039.02734-.56642-.02734-.55859-.08203-.5-.125-.4375-.16407-.36719-.1914-.28906-.21094-.21484-.22266-.13281-.22656-.04297-.22656.04296-.22266.13282-.20703.21484-.1914.28906-.16407.3672-.125.4375-.08203.5-.02734.55858h-.83594l.03906-.58984.11328-.57812.17969-.54688.24219-.49219.30078-.42187.17187-.17578.1836-.14844.19531-.1211.21094-.08984.21875-.05469.22656-.01953m5.09375 0h.50781v6.29297h-.78515v-4.48828h-1.39063v-.55469l.5625-.0664.25-.05469.23047-.08594.20313-.14453.17578-.20703.14062-.29688.10547-.39453m6.80469 1.6211h-.78906l-.05079-.21485-.08203-.18359-.10547-.16016-.1328-.1328-.14454-.10157-.16016-.07422-.16797-.04297-.17187-.01562-.32813.03906-.28906.1211-.2461.1953-.20312.26954-.16015.33593-.11719.40625-.07031.46485-.02344.52734.1914-.20312.1836-.16016.1875-.1211.1836-.08984.1875-.0586.1953-.03905.39844-.02344.3086.03125.32031.09375.3164.15234.29298.22266.2578.28125.19923.35156.0703.19922.0547.21875.02734.23438.0039.2539-.78515.04297-.02734-.25781-.07813-.25-.1211-.23438-.16015-.21094-.19531-.17578-.21875-.13671-.24219-.08985-.2539-.03125-.25391.03125-.24219.08985-.21875.13671-.19531.17579-.16016.21093-.1211.23438-.07812.25-.02734.25781.02734.26172.07813.25.1211.23437.16015.21094.19531.17578.21875.13672.24219.08985.2539.03125.25391-.03125.24219-.08985.21875-.13672.19531-.17578.16016-.21094.1211-.23437.07812-.25.02734-.26172.78516-.04297-.03125.36719-.08985.375-.16015.35547-.22266.32812-.28906.28516-.17188.11719-.1875.10156-.20312.08594-.22656.05859-.23829.03906-.26172.01563-.28125-.01563-.26171-.04687-.23828-.07813-.21485-.10547-.19531-.1328-.17188-.15626-.15625-.17969-.13672-.19921-.11328-.22266-.10156-.24219-.14844-.53515-.08203-.59375-.02734-.64063.03906-.74219.11328-.66406.1875-.57813.11719-.2539.14063-.23438.15234-.20312.16797-.1836.1875-.15625.20312-.1289.21875-.10156.23047-.07422.25-.04297.26172-.01563.36328.03516.33203.09375.29688.15234.25781.19922.21094.24219.16406.27344.11719.30078.0625.32422"/><path fill="#ffffe0" fill-rule="evenodd" d="M346.75 325.85156h22.13672v-10.1914H346.75v10.1914"/><path fill-rule="evenodd" d="M350.25 317.49219h.51172v6.29687h-.78906v-4.49219h-1.38672v-.55468l.5586-.0664.2539-.05079.22656-.08984.20313-.14063.17578-.21094.14062-.29687.10547-.39453m4.8164 0l.22657.01953.21875.05469.21094.08984.1953.1211.1836.14843.17188.17578.30078.42188.24219.49219.17968.54687.11329.57813.03906.59375-.03906.58984-.11329.58594-.17968.55468-.2422.5-.30077.4297-.17188.17968-.1836.15234-.1953.125-.21094.08985-.21875.05859-.22656.01953-.23047-.01953-.21875-.0586-.20703-.08984-.19922-.125-.1836-.15234-.17187-.17969-.30078-.42969-.24219-.5-.17969-.55468-.11328-.58594-.03906-.58985h.83594l.02734.5625.08203.50391.125.44531.16406.375.19141.29688.21094.22265.22265.13672.22657.04688.22656-.04688.22265-.13671.20704-.22266.1914-.29688.16406-.375.125-.4453.08204-.50392.02734-.5625-.02734-.5625-.08204-.5-.125-.4375-.16406-.36328-.1914-.29296-.20704-.21485-.22265-.13281-.22656-.04297-.22657.04297-.22265.13281-.21094.21485-.1914.29296-.16407.36329-.125.4375-.08203.5-.02734.5625h-.83594l.03906-.59375.11328-.57813.17969-.54688.24219-.49218.30078-.42188.17187-.17578.1836-.14844.19922-.12109.20703-.08984.21875-.0547.23047-.01952m2.96093 2.17578h.78516l.01953-.3164.0625-.28516.09766-.25391.14062-.21484.17969-.17188.22266-.1289.26562-.08204.3086-.02734.23828.01953.22265.0625.20313.10156.17969.14063.14843.17187.11328.20704.07422.23437.02344.26563-.01953.26953-.0664.22265-.10938.1914-.15625.17188-.20313.16407-.2461.16406-.6328.39062-.53907.3125-.4375.31641-.34375.32422-.26562.33594-.1914.35156-.125.3711-.06641.39062-.02344.42187h4.21484v-.74219h-3.33594l.08594-.28515.11328-.23438.14844-.20312.1875-.17969.23047-.17187.27734-.17579.71875-.41406.41407-.20703.34765-.23047.27735-.25.22265-.26953.16016-.27734.11328-.28516.0625-.28515.01953-.28125-.03906-.38282-.1211-.34765-.1914-.3086-.25-.26172-.30078-.21093-.34375-.16016-.38281-.09766-.40625-.03515-.4336.03515-.39844.09766-.35546.16406-.3047.23438-.25.30469-.18359.375-.11718.4453-.03907.51954m6.94141-2.17578l.23047.01953.21875.05469.20703.08984.19922.1211.1836.14843.17187.17578.30078.42188.24219.49219.17968.54687.11329.57813.03515.59375-.03515.58984-.11329.58594-.17968.55468-.2422.5-.30077.4297-.17188.17968-.1836.15234-.19921.125-.20703.08985-.21875.05859-.23047.01953-.22656-.01953-.21875-.0586-.21094-.08984-.19531-.125-.1836-.15234-.17187-.17969-.30078-.42969-.2461-.5-.17968-.55468-.10938-.58594-.03906-.58985h.83203l.03125.5625.08203.50391.125.44531.16406.375.1875.29688.21094.22265.22266.13672.22656.04688.22656-.04688.22266-.13671.21094-.22266.1914-.29688.16406-.375.125-.4453.08204-.50392.02734-.5625-.02734-.5625-.08204-.5-.125-.4375-.16406-.36328-.1914-.29296-.21094-.21485-.22266-.13281-.22656-.04297-.22656.04297-.22266.13281-.21094.21485-.1875.29296-.16406.36329-.125.4375-.08203.5-.03125.5625h-.83203l.03906-.59375.10938-.57813.17968-.54688.2461-.49218.30078-.42188.17187-.17578.1836-.14844.19531-.12109.21094-.08984.21875-.0547.22656-.01952"/></g></defs><use xlink:href="#ao"/></svg>