<svg xmlns="http://www.w3.org/2000/svg" role="img" xmlns:xlink="http://www.w3.org/1999/xlink" viewBox="142.45 309.95 326.84 171.84"><defs><clipPath id="a"><path d="M144 404h1v76.32813h-1zm0 0"/></clipPath><clipPath id="b"><path d="M144 311.67188h1V325h-1zm0 0"/></clipPath><clipPath id="c"><path d="M144 311.67188h324v168.65625H144zm0 0"/></clipPath><clipPath id="d"><path d="M376 453h24v27.32813h-24zm0 0"/></clipPath><clipPath id="e"><path d="M387 478h8v2.32813h-8zm0 0"/></clipPath><clipPath id="f"><path d="M467 311.67188h1v168.65625h-1zm0 0"/></clipPath><clipPath id="g"><path d="M144 478h4v2.32813h-4zm0 0"/></clipPath><clipPath id="h"><path d="M147 478h3v2.32813h-3zm0 0"/></clipPath><clipPath id="i"><path d="M146 479h3v1.32813h-3zm0 0"/></clipPath><clipPath id="j"><path d="M153 478h8v2.32813h-8zm0 0"/></clipPath><clipPath id="k"><path d="M160 478h3v2.32813h-3zm0 0"/></clipPath><clipPath id="l"><path d="M159 479h3v1.32813h-3zm0 0"/></clipPath><clipPath id="m"><path d="M167 478h8v2.32813h-8zm0 0"/></clipPath><clipPath id="n"><path d="M173 478h4v2.32813h-4zm0 0"/></clipPath><clipPath id="o"><path d="M172 479h4v1.32813h-4zm0 0"/></clipPath><clipPath id="p"><path d="M180 478h8v2.32813h-8zm0 0"/></clipPath><clipPath id="q"><path d="M186 478h4v2.32813h-4zm0 0"/></clipPath><clipPath id="r"><path d="M186 479h3v1.32813h-3zm0 0"/></clipPath><clipPath id="s"><path d="M193 478h8v2.32813h-8zm0 0"/></clipPath><clipPath id="t"><path d="M200 478h3v2.32813h-3zm0 0"/></clipPath><clipPath id="u"><path d="M199 478h3v2.32813h-3zm0 0"/></clipPath><clipPath id="v"><path d="M207 478h8v2.32813h-8zm0 0"/></clipPath><clipPath id="w"><path d="M213 478h3v2.32813h-3zm0 0"/></clipPath><clipPath id="x"><path d="M212 479h4v1.32813h-4zm0 0"/></clipPath><clipPath id="y"><path d="M220 478h8v2.32813h-8zm0 0"/></clipPath><clipPath id="z"><path d="M226 478h4v2.32813h-4zm0 0"/></clipPath><clipPath id="A"><path d="M225 478h4v2.32813h-4zm0 0"/></clipPath><clipPath id="B"><path d="M233 478h8v2.32813h-8zm0 0"/></clipPath><clipPath id="C"><path d="M239 478h3v2.32813h-3zm0 0"/></clipPath><clipPath id="D"><path d="M247 477h7v3.32813h-7zm0 0"/></clipPath><clipPath id="E"><path d="M260 477h7v3.32813h-7zm0 0"/></clipPath><clipPath id="F"><path d="M274 477h6v3.32813h-6zm0 0"/></clipPath><clipPath id="G"><path d="M287 477h7v3.32813h-7zm0 0"/></clipPath><clipPath id="H"><path d="M300 478h7v2.32813h-7zm0 0"/></clipPath><clipPath id="I"><path d="M313 478h8v2.32813h-8zm0 0"/></clipPath><clipPath id="J"><path d="M327 477h7v3.32813h-7zm0 0"/></clipPath><clipPath id="K"><path d="M340 478h8v2.32813h-8zm0 0"/></clipPath><clipPath id="L"><path d="M345 478h3v2.32813h-3zm0 0"/></clipPath><clipPath id="M"><path d="M353 478h8v2.32813h-8zm0 0"/></clipPath><clipPath id="N"><path d="M359 478h2v2.32813h-2zm0 0"/></clipPath><clipPath id="O"><path d="M366 478h8v2.32813h-8zm0 0"/></clipPath><clipPath id="P"><path d="M372 479h2v1.32813h-2zm0 0"/></clipPath><clipPath id="Q"><path d="M383 476h2v4.32813h-2zm0 0"/></clipPath><clipPath id="R"><path d="M393 479h8v1.32813h-8zm0 0"/></clipPath><clipPath id="S"><path d="M406 479h9v1.32813h-9zm0 0"/></clipPath><clipPath id="T"><path d="M420 478h7v2.32813h-7zm0 0"/></clipPath><clipPath id="U"><path d="M425 478h3v2.32813h-3zm0 0"/></clipPath><clipPath id="V"><path d="M433 479h8v1.32813h-8zm0 0"/></clipPath><clipPath id="W"><path d="M439 479h2v1.32813h-2zm0 0"/></clipPath><clipPath id="X"><path d="M446 480h9v.32813h-9zm0 0"/></clipPath><clipPath id="Y"><path d="M459 479h9v1.32813h-9zm0 0"/></clipPath><clipPath id="Z"><path d="M144 465h4v4h-4zm0 0"/></clipPath><clipPath id="aa"><path d="M144 452h4v4h-4zm0 0"/></clipPath><clipPath id="ab"><path d="M144 439h4v3h-4zm0 0"/></clipPath><clipPath id="ac"><path d="M144 426h4v2h-4zm0 0"/></clipPath><clipPath id="ad"><path d="M144 412h4v3h-4zm0 0"/></clipPath><clipPath id="ae"><path d="M144 399h4v2h-4zm0 0"/></clipPath><clipPath id="af"><path d="M466 399h2v3h-2zm0 0"/></clipPath><clipPath id="ag"><path d="M144 386h4v3h-4zm0 0"/></clipPath><clipPath id="ah"><path d="M466 386h2v4h-2zm0 0"/></clipPath><clipPath id="ai"><path d="M144 370h3v8h-3zm0 0"/></clipPath><clipPath id="aj"><path d="M144 357h2v7h-2zm0 0"/></clipPath><clipPath id="ak"><path d="M144 363h2v3h-2zm0 0"/></clipPath><clipPath id="al"><path d="M144 343h1v8h-1zm0 0"/></clipPath><clipPath id="am"><path d="M144 350h1v3h-1zm0 0"/></clipPath><clipPath id="an"><path d="M144 349h1v2h-1zm0 0"/></clipPath><clipPath id="ao"><path d="M466 345h2v2h-2zm0 0"/></clipPath><clipPath id="ap"><path d="M144 330h1v8h-1zm0 0"/></clipPath><clipPath id="aq"><path d="M144 337h1v2h-1zm0 0"/></clipPath><clipPath id="ar"><path d="M144 336h1v2h-1zm0 0"/></clipPath><clipPath id="as"><path d="M466 331h2v3h-2zm0 0"/></clipPath><clipPath id="at"><path d="M465 332h3v2h-3zm0 0"/></clipPath><clipPath id="au"><path d="M144 316h1v9h-1zm0 0"/></clipPath><clipPath id="av"><path d="M465 317h3v2h-3zm0 0"/></clipPath><g id="aw" clip-path="url(#clip1)"><path fill="#fff" fill-opacity="0" fill-rule="evenodd" d="M0 0h1000v1000H0zm0 0"/><path fill="#d3d3d3" fill-opacity="0" fill-rule="evenodd" d="M162.15234 355.86719l-.23437.29297.0586.23437.11718.17188.17578.23437.29297.34766.11328.0586.11719-.17188.0586-.23438.17577-.17578.46485-.17578h.69922l.23437.29297.28906.8164.0586.17579.17578.23046.35156.23438.69922.69922.17188.17578.23437.34765.23438.41016.28906.58203.41015.46485.23047.23437.23438.17578.11719.23047.17578.29297.17187 1.16406v.23438l.0586.28906.05859.11719.11719.11719.34765.41015.11719.17188.17578.17578.17578.23437.11719.17188.17188.35156.05859.23438.23437.40625.23438-.0586-.17578.17578-.0586.92969h-.58203l-.23437-.11328-.34766.11328-.11719.11719-.05859.29297-.0586.17578-.11718.17187-.46484.29297-.0586.23438-.0586.11328v.64453l.0586.17187v.41016l.0586.0586v.40624l.05859.40625.11719.17579.05859.05859.23047.64062-.0586.29297v.69922l-.05859.58203v.23438l-.0586.23047-.05468.35156v1.92187l.05469.1172h.42578l-.36719.11718-.02344.35156.89063 1.16797 1.74219.53906 1.33984.35938v.53906l.08984.8086.53516.71484 1.51953.26953.89063-.08594.08984 1.16406.53516.1797 1.16015-.1797 2.05469-.98437 1.16016-.36328 1.8789-.17578 1.69531-.1797-.17968.71876-1.51563.08594-1.25.08984-.80469.26953-1.07421.8086.26953.71875.53515.89843-.17968.625-.26563.8086.26563 1.07812.625.89844.80468.17969 1.25-.1797-.26562.72267.09766.5039.05468.29297v.17188l.0586.29296v.40625l.17578.1172.35156.11718h.40625l.29297-.17578.11328-.11719.0586-.11719.11718-.23047.0586-.17578.35156-.46484.23047-.17578.17578-.0586.17578.0586.0586.17578.11718.98828.05469.46875.0586.17188.11718.23437.17578.0586.8164.05859h.28907l.11719.23437.05859.40625.0586.35156v1.10547l.11718.29297.11719.34766.28906.69922.17578.35156.58203.7539.35157.17579.17187.0586.46875.23437.64063.46484.34765.23438.29297.17578.29297.05468.23047.0625.8164.34766.29297.17578.11328.17188.35157.35156.11719.17578.52343.64063v.28906l.0586.35156v.34766l.05859.35156.0586.28906.11718.0586.17188.05859h.17578l.58203.23437.17578.1172.17578.28905.17578.23438.11328.23437.29297.23047.11719.11719v.41016l.0586.05468.28906.23438.23437.11719.0586.11718.11718.17188.0586.11719.23047.23437.05859.17578.23437.0586.1172.05859-.1172.11328-.05859.11719v.11719l-.11719.29296-.11719.28907v.58203l.17579.11719.11718.05859.0586.11719.11719.11719.11328.05859.17578.34765.0586.35157.05858.40625v.17578l-.05859.17578-.11719.69922v.17187l.1172.17579.29296.29296h.40625l.17578.1172.11719.17187.11719.29296v.23438h-.52735l-.23047-.23438h-.23437l-.17578.0586-.0586.69922.0586.34765.11719.17579.17578.41015.11718.23047.28907.46875.17578.05469h.52344l.23437.0586.75781.64062.0586.29296v.23438l.05859.0586.23047.34765v.35156l-.11719.17188v.29297l.29297.28906.29297.17578.17187.0586.29297.17577.29297.1172.58203.40624.28906.23438.29297.17578.21875.16015.01563.01172.23047.17579.64062.52343.17578.23438.1172.17578.17577.17578.11328.17188v.64062l.1172.17578.46874.11719.58203.11719.23438.05859.23047.11328.29297.11719.11328.0586.58593.35156.28907.17187.17578.0625.17578.05469.17578.0586.69922.35155.28906.17579.23438.05468.28906.17578.23437.1172.64063.40624.29297.11719.17187.0586.23438.05859.41015.05859.23047.0586.23438.11718.0586.17188-.41017.17578.46875.0586.0586.29296.11328.23438.17578.05468.23438.0586.17578.05859.40625.11719.64062.23437.11719.17188.0586.23437v.17578l-.0586.1172-.0586.40624.23438.23438.11719.05859.34766.11719.64062.23047.17578.11718.28906.1172.17578.17577.23438.46485.58203 1.10546.17578.17579.34766.17578.17578.11719.35156.11718 1.04688.52344.23437.0586.46485.11327.29297.0586.46484.17578.75781.58203.23438.23438.34765.46484.17578.17578.28907.23438.8164.69921.29297.17579.28906.28906.29297.17578.29297.28906.69531.64063.17578.17578.29297.23437.28907.23438.46875.28906.64062.58203.34766.23438.23437.29297.34766.34765.35156.46485.9336.99218.34765.40625.11719.17579.23437.05859.11328.11719.64454.17578.23047.11328.23437.0586.29297.17577.23047.1172.9336.69921.40624.40625.23438.17578.40625.17578.23437.11719.8164.34766.34766.23437.23438.11719.29297.28906.23047.11719.7578.35156.35157.17188.23047.05859.29297.11719.23437.0586.8711.17577h.8164l.46875.23047.17188.0586.875.69921.46484.1172.29297.05858.17578.0586.23047.0586.46875.05859.34766.05859.35156.0586.40625.05859h.29297l.17187.0586v.23046l.17578.17578h.29297l.34766.0586.35156.05859.69922.11719h.64063l.46484-.23438.29297-.17578.17187-.11719.41016-.17187.28906-.17578.9336-.46485.46875-.29297.52343-.29296.46485-.17188.46484-.17578 1.05078-.46485.28906-.11718.41016-.11719.28906-.11719.52735-.17578 1.51562-.69922.58203-.34765.28907-.0586.29297-.0586.34765-.11718.875-.23047.35156-.11719h.11329l.23437-.05859.875-.23437.23438-.0586h.8125l.35156-.0586.8164-.11718.17188-.0586.35156-.05468.29297-.0586.23047-.05859.8164-.17578.17579-.0586h.34765l.23438-.05859.46484-.11718.75781-.17188.23438-.0586h.34765l.41016-.11718.28906-.0586 1.28516-.05859h.28906l.41016-.0586.23047-.05858h.17578l.875-.1172h.40625l.41015-.11718h.34766l.35156-.11328.8711-.0586h1.75l1.04687.28907.41016.11719.28906.11718.35156.11719.28907.11719 1.05078.17187.28906.0586h.29297l.29297.05859.17187.0586.41016.05859.17187.0586.1172.05858h.11718l.11719.0586.35156.0586h.11328l.41016.0664 1.92187.39453 1.92578.39453 1.51953.44922 1.69532.71875 2.14453.80469 1.60547-.71875 1.42968-.80469 1.16016-1.07813 1.25-.44921 3.03516-.71875 1.875-.35938 2.14453-1.34765 2.23437-1.25391 2.5-1.25781 1.69531-.44922 1.78516-.17969 1.16016-.26953.625.53906 1.33984-.26953.71485-.98828.98437-1.34375.44531-.17969.80469-.35937 1.875-.53907 1.78516-.44921 1.25-.26954 1.16015-.08984 1.69922-.08984 1.96094-.26954 1.25-.08984h.53906l.625-.08984h.89063l2.14453-.17969 2.41015-.17969 2.58985-.08984 1.69531.17969 1.60938.08984 1.42968.35938 1.16016.71875 1.875.98828 1.16015 1.52734.26563.71484.6289.08985.35548.89844.53515.53906.53516 1.52734 1.07422.35938h.53515l-.80469.53515.08985 1.70703.71484 2.69532.89063.80468.89453.98829.71484 1.2578 1.78516.53907 1.51953-.17969.35547 1.34375 1.60937-.80469.98047-.53906.26953.26953.31641-.21484.21875-.14453.80078.44922.44922-.35938h.35547l.53515-.26953.53907-.71875.53515-.26953.625-.98828 1.16016.44922.83984.3711 1.39454.61718 1.6953-.17969h1.60548l1.78515.08985.17969-1.70704.53516-1.34375.80468.26954.4922.84765.40233.40625-.08984.53906v.35938l.71485.44922.71093-.26953h1.42969l.35938.98828.4453 1.25781.71485 1.34375 1.25.6289 1.69531.62891.71485-.17969.17969-.53906.98046-.08984.44922.35937.08594 1.25782-.26563.6289-.53515.17969v.53906l.71484.98438.26563.53906.98437.98828.80078 1.07813-.26562.35937-.08985.89844-.625 2.33203-.35546 2.0664-.08985 1.79298-.17969.71875-.08984.53906v1.4375l-.98047 1.88281-.35937 1.70703-.53516.89844-.80469 1.16797-.26562.53906 2.05469 1.2539.08593.35938-.35546.53906-.08985-.17968v.80859l.08985 1.4375-.44532.71484-1.07422.09375-.26562.71485.53515.89844.8047.71875 1.16015.80859 1.33984.26953.44531.35938-.35546.44921-1.78907-.08984-1.25-.44922-.71484-.71875-.625-.08984-.17578 3.58984-.1875 1.3086h89.35937V311.70313h-55.26953v49.08203l.76172.125 3.28906.54296 2.02344 2.83594v2.7539l2.35156.33204 2.34766.33203h4.05078l-1.3789 4.16016-2.02344.70703-2.02344.70312-.54297.34375-2.59375 1.6172-.1875.11718-2.02344-2.07813-.73046-2.74218-2.67188-2.07813-1.375-3.5-.0664-.08203-1.95704-2.67188 2.75-1.41796v-49.08204H294.42187v91.41407l.1172.03125.1328.01172.07422.07421.10547.04688.08985.0586.08593.05859.08985.0586.29687.29687.0586.08984.03125.11719.02734.11719.01563.13671-.03125.1172-.0586.08983-.0586.08594-.04296.10547-.04688.10156-.02734.1211v.14453l.17578.26953.14844.14844.07422.08594.07422.07421.04296.10547.0625.08985.0586.08593.04297.10547.0586.08985.04687.10156.04296.10547.0586.08594.11719.17968.07421.07422.0625.08594.0586.08984.04297.10547.0586.08985.05858.08593.0625.08985.0586.08984.04297.10156.11719.17969.07421.07422.0586.08594.07422.07421.08984.0586.10547.04687h.14844l.1328-.01562.13282.01562.10156-.04687.07422-.07422.04688-.10156-.01563-.13281v-.14844l-.04687-.10547-.02735-.11719-.04687-.10156-.02735-.1211-.04296-.10156-.0625-.08984-.04297-.10156-.04297-.10547-.03125-.11719-.01563-.13281-.01171-.13672.08593-.0586.0586-.08593.12109-.03125.04297.10547.01562.1328v.1172l.0586.10156.0586.08984.08983.0586.14844.14843.0586.08985.04296.10547-.01171.10156.08593.0586.10547.04687.08594.0586.08984.05858.07422.07422-.11719.02735-.10546.04687-.08594.0586-.07422.07421-.0586.08985-.0625.08594-.02734.12109-.04687.10156-.04297.10547-.03125.11719-.01172.13281-.01563.13281v.14844l.02735.11719.04687.10547.04297.10156.0586.08984.07421.07422.08985.0586.07422.07421.08984.0586.0586.08984.04296.10547.04688.10156.11719.03125.1328.01563h.14845l.11718-.03125.10547.04297.04297.10547.04688.10156.02734.1211L299.5 410l.02734.11719.03125.1211.02735.11718.10547.04297.10156.04687.13281-.01562.14844.14844.0625.08593.07422.07422.07031.07422.08984.0625.10547.04297.10156.04297.1172.03125.13671.01562.11719-.03125.07422-.07422.02734-.11718-.01172-.13282-.03125-.12109-.02734-.11719.04297-.10547h.11719l.08984.0625.11719.02735h.14843l.13282.01562h.14843l.13282.01563.1328-.01563h.14845l.1328-.01562.13282-.01172.13672.01172.11719-.02735.13281-.01562.1914-.0586-.05859.17579-.01562.1328-.02735.1211-.01562.13281-.0586.08594-.1328.01563-.10548.04687-.10546.04297-.1172.03125-.11718.02735-.26563.03125h-.14843l-.13281.01562-.07422.07422.05859.08594.14844.14843.11719.1797.07421.0703.08985.0625.08984.0586.08594.0586.08984.05858.10156.04297.10547.0625.10547.04297.08594.0586.10547.04687.10156.04297.17969.11719.0586.08984-.04298.10156-.04687.10547.01562.13281.22266.22266.0586.08985.04296.10156.03125.1211.04297.10155.01563.13282.03125.11718.01171.13672.03125.11719.14844.14844.10156.04297.10547.04296.1172.03125.1328.01563.13672.01563h.11719l.11719-.03125.08984-.0586.04297-.10547.04688-.10156.04296-.10547.03125-.11719.01172-.1328v-.14845l-.01172-.1328-.01562-.13282-.03125-.11719-.04297-.10547-.04688-.10547-.04296-.10156-.04297-.10547-.01563-.13281.01563-.13281.02734-.11719.03125-.11719.02735-.1211.04687-.10155.08984-.0586.08594-.0625.07422-.07422.08984-.05859.22266-.22266.0586-.08593.07421-.07422.11719-.17969.0586-.08594v-.14844l-.07423-.07421-.10156-.04688-.10547-.04297-.10156-.04297-.0586-.08984-.04687-.10547-.02734-.11719.08984-.05859.11719-.03125.10156-.04297.17969-.11719.14844-.14843.01172-.13282-.01172-.10546-.08985-.0586-.1328.01563h-.14845l-.1328.01562-.13282-.01562-.1211-.03125-.08593-.0586-.07422-.07422-.0586-.08984-.0625-.08594-.11718-.17969-.0586-.08593.03125-.1211.08594-.05859.1211-.03125.05859-.08594v-.1211l-.03125-.11718-.0586-.08984-.05859-.08594-.04687-.10547-.02735-.11719-.01562-.1328.0586-.08985.07421-.07422.08984-.0586.1172-.17968.07421-.07422.0586-.08594.14843-.14844.1211-.03125.1328-.01562.13282.01562.07422.07422.04297.10547.01562.13281-.03125.1172-.11719.03124-.1328.01172-.14844.14844-.04297.10547-.04688.10156-.02734.1211-.03125.11718v.14844l.03125.11719.04297.10546.05859.08985.07422.07031.07422.07422.11719.03125.12109.02734.11719-.02734.1328-.01563h.1172l.08984.0586.07422.07422.04687.10546.0586.08594.10156.04688.13281.01562.10547.04297.08594.0586-.01172.10546-.07422.07422-.17969.11719-.05859.08984-.08984.0586-.07032.07422-.07421.07421-.0625.08985-.02735.11719-.01562.1328.01562.13282-.01562.13281v.14844l.01562.13281.02735.1172.03125.12108.07421.07422.08985.0586.08594.0586.08984.05858.11719.03125v.08594l-.10157.04688-.08984.0586-.26563.03124-.11718.02735h-.14844l-.10547.04296-.10156.04688-.0586.08984-.0625.23438-.01171.13281-.03125.1211-.01563.1328v.29298l-.01172.1328.01172.13673.01563.1328.1328.01563.13282.01172.1211.03125.08593.0586.07422.07421.04688.10547.04296.10157.01563.1328v.44532l-.01563.13281v.44532l.03125.26562.02735.11719.01562.13281.03125.11719.08594.21094.03125.26562v.14844l-.03125.11719-.02734.11718-.03125.1211-.02735.11719-.03125.11718-.03125.1211-.01171.1328-.01563.13282.08984.0586.1172-.03125.10155.01562.04688.10547-.03125.26562v.44141l-.04297.10547-.04688.10547-.04296.10156-.04297.10547-.0586.08594-.03125.12109-.04296.11719-.03125.11719-.01563.1328.01563.13282.05859.08984.10547.04688.08594.0586.05859.08593-.01172.13672-.03125.11719-.04297.10156v.44531l-.01562.13281v.14844l-.03125.11719-.04297.10547-.02735.11719-.04687.10546-.04297.10157-.03125.12109-.02734.11719-.03125.13281-.03125.11719-.02735.11719-.04297.10546-.03125.1172-.03125.12108-.01171.13282-.01563.13281v.29688l.02734.11718v.14844l.04688.39844.02734.11719.0586.08984.12109.03125h.14844l.13281-.01563.0586.08985v.11719l-.0586.08984-.08984.0586-.10157.04296-.10546.04688-.08985.05859-.08594.0586-.13671.01562-.1172-.03125-.1328-.01563-.10157.04688-.0625.08594-.01172.13671-.01562.13282-.03125.11719-.02735.11718-.01562.13281-.03125.1211v.29687l.01563.13282.03125.11718v.14844l.01171.13281v.14844l-.02734.11719-.04688.10156-.02734.1211-.03125.11718-.0586.08985-.07421.07421-.10156.04297-.10547.04688-.11719.02734-.1211.03125-.10156-.04687.0586-.08594.10547-.04688.02734-.11718.03125-.11719.02734-.1211.03125-.11718v-.14844l.01563-.13281-.03125-.11719-.04297-.10547-.10547.01563-.07422.07422-.10156.04296-.08984.0625-.07422.07422-.04297.10157-.01563.1328-.03125.1172L304.25 426l-.03125.11719-.02734.11719-.03125.12109-.02735.11719-.03125.11718-.04297.10547-.08984.0586h-.08984l-.1172-.03125-.03124-.08594.01562-.13672-.03125-.11719v-.14844l-.01171-.1328v-.14844l-.0625-.23438-.02735-.1211-.04297-.10156-.04687-.10546-.0586-.08594-.05859-.08985-.04297-.10546-.0625-.08594-.14844-.14844-.0703-.07422-.10548-.04687-.10547-.04297-.10156-.04297-.29687-.29688-.08985-.07421-.08594-.0586-.10546-.04297-.08985-.0625-.08594-.0586-.10546-.04296-.08985-.0586-.08594-.0625-.07421-.0703-.10547-.04688-.08594-.0586-.10547-.04296-.08984-.0625-.10156-.04297-.10547-.04297-.08594-.0586-.10547-.04687-.10547-.04297-.10156-.04687-.08985-.0586-.10156-.04297-.10547-.04296-.08984-.0625-.11719-.02735-.13281-.01562-.13281.01562H299.75l-.13281.01563-.11719-.03125-.08984-.0586-.07422-.07422-.08985-.05859-.10156-.04688h-.14844l-.12109-.02734-.10156-.04297-.07422-.07422-.11719-.17968-.08984-.0586-.10156-.04297-.08985-.0625-.10547-.04296-.08984-.0586-.08594-.0586-.10547-.04687-.0586-.08594-.05858-.08984-.04297-.10547-.04688-.10156-.07422-.07422-.08594-.0586-.07421-.07421-.08985-.0586-.22265-.22265-.04297-.10547-.03125-.26563.10547-.04296h.14453l.10547.04296.07421.07422.08985.0586.08594.0586.10546.04687.08985.05859.14844.14844.0703.07422.14845.14843.0625.08594.07421.07422.08594.0586.07422.07421.08985.0625.08984.0586.08594.05859.26953.17578.10156.04688.10547.04296.10156.04297.04688-.07421.05859-.08594.07422-.07422.07031-.07422.10547.04297.07422.07422.0586.08984.04296.10156.04688.10547.04296.10547.1211.02735.11719-.02735.07421-.08984.04297-.10547.0586-.08985.07422-.07421.10546-.04297.1172-.02735.1328.01172.08985.0586.14844.14843.05859.08985.04297.10547.04687.10156.04297.10547.04297.10156.10547.04688.10547.04296.13281.01563.08594-.0586.0586-.08984.07421-.07422.10547-.04297.11719.02735.10547.04687.10156.04297.10547.04297.10156.04688.17969.11718v.11719l-.01563.13281.01563.13281.01562.13672.0586.08594.10156.04688.1211.02734.11718.03125h.14844l.11719-.03125.05859-.08984.17969-.1172.05859-.08983.07422-.07422.0586-.08594.11718-.17969.17969-.11719.11719.03125.08984.0586.04297.07422-.01563.1328v.1172l.08985.05859h.14843l.13282-.01563.1328-.01171.26563-.03125.10547-.04297.11719-.03125.1211-.02735.07421-.07421.07031-.07422.0625-.08985-.01562-.10547-.04688-.10156-.10156-.04297-.10547-.01562-.11718.02734-.26563.03125h-.14844l-.07421-.07422-.08985-.0586-.11719-.03124-.11718-.02735-.13282-.01562h-.14843l-.13282.01563h-.29687l-.10547-.04688-.14844-.14844-.04297-.10156-.05859-.08984.22266-.22266.08593-.0586.10547-.04296.11719-.03125.13281-.01563.13281.01563.13672.01562.10157.04297.1328-.01172.08985-.0625.10156-.04297.0625-.08984-.04687-.10156-.08984-.0586-.1172-.03125-.10155-.04296-.0586-.08985-.0625-.08984v-.11719l.01563-.13281.10547-.04688.07421-.07031v-.1211l-.08984-.05859-.03125-.11719.08985-.05859.07421-.07422.04297-.10547.0586-.08984.04687-.10156.01563-.13281v-.14844l-.04688-.10547-.04297-.10156-.08984-.0586-.13281-.01562-.10157-.04297-.13671-.01563-.1172-.03125h-.4453l-.13282-.01562-.13281-.01172-.13281-.01563-.11719-.03125h-.14844l-.13281-.01562-.13281-.01172-.26563-.03125-.1211-.04297-.08593-.0586-.07422-.07421v-.14844l.01172-.13281.10547-.04688.10156-.04296.13281-.01563h.15235l.13281-.01562h.29297l.1211.03125.10156.04296.08984.0586.23438.0625.12109-.04688.08984-.05859.10156-.04297.13282-.01562.10547.04296.10156.04688.13281.01172.1211-.02735h.14453l.12109-.03125.11719-.02734.10547-.04687.07421-.07422.08594-.0586.14844-.14843.0586-.08594.04687-.10547.02734-.11719.01563-.10547-.10156-.04296-.08985-.0586-.11719-.03125-.10546-.04297-.08985-.0625-.07422-.08594-.07422-.07421-.10156-.04297-.10547-.04688-.10156-.04297-.0586-.08984-.04687-.10156-.08594-.21094-.0625-.08594-.05859-.08984-.07422-.07422-.08594-.0586h-.26953l-.11719.03126-.08984.05859-.10156.04297-.13281.01562-.10547-.01562-.02735-.11719-.0625-.08984-.11718-.03125-.10157-.04297-.14843-.14844-.03125-.11719-.01563-.10546.07422-.07422.17969-.1172.11719-.02733.11718-.03125.13672.01562.10156.04297.10547.04297.10156.04687.10547.04297.1172.03125.1328.01563.1172.02734.1328.01563.10547-.01563.08985-.0586-.07422-.07421-.10547-.04297-.07422-.07422-.07422-.08984-.14844-.14844-.08593-.0586-.08985-.05859-.07422-.07422-.08984-.0586-.10156-.04687-.1211-.02734-.10156-.04688-.10547-.04296-.11719-.03125-.10156-.04297-.1211-.03125h-.14843l-.11719.03125-.10546.04297-.08594.0625-.17969.11718-.08594.0586-.08984.0586-.10547.04687-.08594.05859-.10547.04297-.10156.04297-.10547.04687-.07422.07422-.05859.08985-.0586.08593-.04687.10547-.0586.08594-.07421.07422-.13281-.01172-.1172-.03125h-.11718l-.07422.07422-.08984.0586-.07422.07421-.08984.0586-.08594.05859-.10547.04687-.10156.04297-.13672.01563-.10156-.04297-.14844-.14844-.10547-.04688h-.08594l-.10547.04688-.10156.04297-.1211.03125-.11718-.03125-.07422-.07422v-.11719l.03125-.1211.07422-.0703.0586-.08985.07421-.07422.11719-.03125.10547-.04296h.29297l.13281-.01563.13672-.01563.10156-.04296.08985-.0586.10156-.04687.08984-.0586.13281-.01171.08985.05859.13281.01172.08984-.0586.08594-.05859.10547-.04297.08984-.0586.08594-.0625.08985-.05859.14843-.14843.0586-.08594.05859-.08985.10547-.04296.13281-.01563.11719.02735.1211.03125.05859-.0586.05859-.08984.03125-.26563.02734-.11719.10547.01172.13281.01563.10157-.04297.08984-.0586.0586-.08984.07421-.07422.0586-.08984.04687-.10156.01172-.13281-.01172-.13282-.04687-.10547-.14844-.14843-.0586-.08985-.05859-.08594-.04297-.10546v-.44532l.01563-.1328v-.14845l.01172-.1328-.0586-.0586-.08984.0586-.10156-.04298-.17969-.11719-.08594-.05859-.0625-.08984-.0586-.08985-.07421-.07421-.08594-.0586-.1211.03125-.10155.01172-.10547.04688-.08594.05859-.10547.04297-.14844.14844-.08984.05859-.08594.0586-.08984.0625-.10547.04296-.13281.01563v-.1211l.10547-.04297.11718-.03125.07422-.0703.04297-.10548v-.14844l-.02734-.11718-.14844-.14844-.13281-.01563h-.14844l-.11719.03125-.10547.04297-.10156.04297-.08984.0625-.11719.02735-.07422-.07422.01172-.13281-.04297-.10157-.04297-.10547-.08984-.05859-.11719.02734-.1211.03125-.11718.03125-.10156.04297-.1211.03125-.10156.04297-.10547.04297-.08984.0586-.10156.01562v-.11719l.01562-.13281-.0586-.08985-.07421.04297-.14844.14844-.0586.08985-.07421.07421-.04688.10547-.04296.10156-.07422.07422-.0586.08985-.07422.07422-.05859.08593-.07422.07422-.08984.0625-.07422.07031-.07422.07422-.10156.01563-.13281.01562-.10547-.04296v-.1211l.14843-.14844.04297-.10156.0586-.08984.04687-.10156.04297-.10547.0586-.08985.03124-.11719.04297-.10156.03125-.1211.02735-.11718.04687-.10547.04297-.10156.04297-.10547.07422-.07031.08984-.0625.08985-.0586.10156-.04296h.29687l.26563-.03125.10547-.04297-.07422-.07422-.11719-.03125-.10547-.04297-.08984-.0586-.10156-.04687-.08985-.0586-.10156-.04296-.10547-.04297-.08984-.0625-.08594-.0586-.10547-.04296-.10156-.04297-.1211-.03125-.11718-.03125-.10157-.04297L297.5 410.25l-.10156-.04297-.08985-.0586-.04296-.10546-.01563-.13281.10156-.04297.13281-.01563.13672.01563.13282-.01563.10156-.04297.0586-.08984.01562-.10547-.08985-.0586-.07421-.07421-.10157-.04297-.08984-.0586-.14844-.14843-.04297-.10547-.01562-.13281v-.29297l-.0586-.08985-.08984-.05859-.07422-.07422-.04297-.10547-.03125-.11718-.0586-.08985-.07421-.07422-.11719-.02734-.07422-.07422-.08984-.0586-.08984-.0625-.08594-.05859-.07422-.07421-.0586-.08594-.04687-.10547-.08594-.0586-.14843-.14843-.19532-.0586-.1328.01563-.10157.04297-.07422.07422-.04688.10156-.04296.10547-.0586.08984-.0586.08594-.29687.29687-.08984.0586h-.08594l-.0625-.08594-.04297-.10547.03125-.11719.0586-.08984.02734-.11719-.01172-.13281-.08984-.0625-.10547.04688-.11719.02734-.11719.03125-.26953.17578-.10156.04688-.11719.02734-.10546.04687-.08985.0586-.10156.04297-.0586-.08594-.04687-.10547.01563-.13281.04687-.10547.07031-.07422.07422-.07031.0586-.08985v-.14843l-.04297-.10547h-.23829l-.10156.04687-.03125.11719-.02734.11719-.03125.1211-.07422.04296-.13281.01563-.07422-.04688-.04297-.10156-.04297-.10547-.04687-.10156-.04297-.10547-.1211.03125-.10156.04297-.13281.01562-.11719.03125-.10547.04297-.08984.0586-.10156.04687-.1211.02734-.13281.01563-.10156-.04297-.0586-.08985-.04687-.10546-.04297-.10157-.04297-.10546v-.1172l.0586-.08984.08593-.05859.17969-.11719.10156-.04687.10547-.04297.10547-.0586.10156-.04296.08985-.0625.10156-.04297.10547-.0586.10156-.04687.08984-.0586.10547-.04296.10156-.04297.08985-.0625.10156-.04297.13672-.01563.11719.03125.10156.04297.1211.03125.10156.04297.10546.04688.10157.04296.10547.04297.10156.04688.10547.04297.10156.04297.10547.04687.08594.0586.10546.04296.1172.03125.10546.04297.10156.04688.08985.0586.10547.04296.10156.04297.10547.04687.11719.02735.10156.04687.1211.02735h.14843l.08594-.0586.01562-.10156.0586-.08984-.02735-.1172-.07422-.07421-.11719-.17969-.07421-.07422-.08985-.07421-.17969-.1172-.08593-.05859-.10547-.04296-.10156-.04688-.26954-.17578-.05859-.08985-.07422-.07421-.0586-.08985-.04296-.10156-.03125-.11719-.01563-.13672v-.5625l-.01171-.1328-.01563-.13282-.03125-.11719-.01562-.13281-.01172-.13281-.03125-.1211-.22266-.22265-.0586-.08594-.01562-.10547.03125-.11719.13281-.01562v-91.41406H172.9922v1.45312l-.0586.23438-.35156 1.05078-.17187.52343-.1172.34766-.17577.41016-.11719.17187-.23438.29297-.23046.0586h-.35157l-.11718.05859-.23047.40625v.29297l.11719.17578.23046.23047.1172.23437.64062.75781.29297.46485.17578.23437.23047.35156.23437.34766.64063.8164.17578.46485.17187.41016.11719.69531.17578.46875.11719 1.39844.0586.46484v.875l.11718 1.04688v4.78125l-.0586.46484-.35156 1.28125-.17578.52344-.11328.41015-.35156.9297L172.93359 336l-.23437.58203-.11719.17578-.17187.34766-.17578.40625-.35157.8164-.0586.29297-.11327.29297-.11719.28906-.0586.17579-.11718.875-.0586.40625-.05859.11718-.0586.17579-.05859.17187-.23047.52734-.11718.17188v.23437l-.11719.23438-.0586.17187-.17577.58594v.28906l-.0586.17579v.29296l-.0586.11329-.05859.52734v.17187l-.05468.23438v2.6211l-.17578.8164-.1172.17578-.17577.23438-.1172.17187-.11327.23438-.58594.93359-.23047.28906-.29297.46485-.17578.23437-.28906.35156-.35156.69922-.11328.23047-.17579.41016-.17578.23046-.40625.52735-.8164.69922-.29297.17187-.28906.23438-.17579.11719-.17578.17578-.52344.40625-.52734.17578-.17187.17578-.23438.05469-.64062.17578h-.75782m12.21094 31.02344l-1.07422.44921.35938.89454 1.25-.71485.44531-.53906-.98047-.08985"/><path fill="#d3d3d3" fill-opacity="0" fill-rule="evenodd" d="M201.50781 416.59766h-.89453l.44922.6289.98047.35938.80469-.08985.4453-.98828-.17577.08985-.71485-.35547-.89453.35547m154.6211 59.0703l-.0586-.52343v-.29297l.11328-.29297.0586-.23046.46875-.46875h.11328l.11719-.11329.11718-.05859h.17579l.23437-.0586h.34766l.23437.0586.11719.0586.23047.17187.0586.17578.11718.58203v.29297l-.11719.17578-.17187.28906-.17579.17579-.52734.52343-.23047.23438-.11719.0586h-.17578l-.11718-.0586-.40625-.29297-.17579-.11719-.11718-.0586-.0586-.11327-.05468-.1172m6.64062-10.95702l-.0586-.17188v-1.10937l.0586-.17188.17578-.0586.17188-.05858h.17578l.23437-.0586.1172.0586.05858.69921-.05859.17188-.11719.17578-.11718.0586-.23438.52343-.11328.0586h-.23438l-.05859-.1172m9.61328-14.39062l-.11719-.17578v-.69922l.29297-.875.1172-.17187.17577-.35156.11328-.23047.1172-.29297.35155-.75781.1172-.23047.17187-.23438h.17578l.11719-.0586h.64062l.11719.0586.23437.23438.17188.11328.35156.29297.11719.11718.11328.17579v.11328l.11719.05859.11718.11719v.69922l-.05859.17578v.23047l-.0586.17578-.34765 1.05078-.11719.23047-.11719.23437-.11718.0586-.23047.23437-.64063.28906h-.875l-.41015-.11718-.64063-.46485"/><path fill="none" stroke="#bebebe" stroke-linecap="round" stroke-linejoin="round" stroke-miterlimit="10" stroke-width=".5" d="M467.95703 311.69531H144.02734v168.625h323.9297v-168.625"/><g clip-path="url(#a)"><path fill="#fff" fill-opacity="0" fill-rule="evenodd" d="M144 475.89063v4.4375h.0039H144v-75.64844 71.21094"/></g><g clip-path="url(#b)"><path fill="#fff" fill-opacity="0" fill-rule="evenodd" d="M144 320.54688v4.0664-12.9414h.0039H144v8.875"/></g><path fill="#50fcfc" fill-rule="evenodd" d="M144 401.32813v3.35156l.0039.0039v-3.35156l-.0039-.0039"/><path fill="#00e8fc" fill-rule="evenodd" d="M144 399.76172v1.5664l.0039.00391v-1.57031H144"/><path fill="#50fcfc" fill-rule="evenodd" d="M144 397.21484v2.54688h.0039v-2.54688H144"/><path fill="#fff" fill-opacity="0" fill-rule="evenodd" d="M144 326.3125v70.90234h.0039V326.3047l-.0039.00781"/><path fill="#50fcfc" fill-rule="evenodd" d="M144 324.61328v1.69922l.0039-.00781v-1.6914H144"/><g clip-path="url(#c)"><path fill="#fff" fill-opacity="0" fill-rule="evenodd" d="M144.0039 480.32813v-75.64454l.20313.19141 3.21875 4.4414-2.82422 4.4375 3.83594 3.83594 1.6289.60157 2.8086 2.8203.72266 1.6172 3.71875 4.35937.0664.08203.21485 4.4375-.01563 4.4375-.04297 4.4375-.08984 4.4375.16797 4.4414-.0039 4.4375-.09767 4.4375.2422 4.4375 3.99609 3.9336 4.4375-.07422 4.4375-.125 4.4375-.84375 4.4414-.5664 4.4375.19922 4.4375.07812 4.4375-.0664 4.4414-.10938 4.4375-.51172 4.4375-.23437 4.4375-.63672 3.14063-1.04297-3.14062-2.22656-3.01953-2.21094-1.41797-.9961-4.4375.20704-4.4375-1.1211-4.4414.14844-.87891-2.67578-2.14063-4.4375 3.01953-1.7461 3.94531-2.6953.4961-.40626 4.4375-1.94531 2.1914-2.08594 2.2461-1.17187 4.4375-2.7461 4.4414 1.82422 3.27735-2.34375 1.16016-2.1836 3.9453-2.2539.4922-1.33203.10156 1.33203 1.30469 4.4375 3.03125 2.61719 4.4375 1.125 4.4414-.35938.64453 1.0547 3.79297 3.65624 4.4375-2.32812 1.89063-1.32813-1.89063-2.8789-4.4375-1.3672-.33594-.1914-.79297-4.4375 1.12891-1.03125.83594 1.03125 3.60156 3.10547 4.4375-3.0586 2.8125 4.39063 1.625 2.1875 2.01563-2.1875-2.01563-1.65625-4.38672-2.78125-.05078-.03515-4.4375-2.51954-2.16797-1.8828-2.26953-1.6875-3.92969 1.6875-.5078.5664-.67188-.5664-3.76953-3.2422-2.3711-1.19921-2.0664-.42188-4.4375.38672-.16407.03516-4.27344 1.03906-2.01562-1.03906-2.42188-.85547-4.4414.4336-4.4375-1.84767-4.4375-1.46093-4.4375.66015-4.4414 1.91797-4.4375.76953-1.2422.38282-3.1953.53125-4.4375.26953-4.44141.28515-4.4375-.45312-.77344-.63281-.48047-4.4375-3.1836-2.75782-1.12109-1.67968-3.3164-2.95704-4.4375-1.0039-3.15625-.47656 3.15625-.59766L161 404.875l.23828-4.4375.51563-3.23047L162.76953 396l-.1211-4.4375L165 387.125l-1.63281-4.4414-1.61328-1.51173-1.46485 1.51172-2.97265 1.51563-2.95703 2.92578.1875 4.4375-1.67188 2.36328L149.67969 396l-1.24219.625-4.4336.58984V326.3047l.33985-1.32031-.33984-.3711v-12.9414h39.9414v12.29296l-1.15625 1.01954-3.28125 3.3789-4.4414-.07812-1.10547 1.14062-.82031 4.4375-2.51172 3.15235-1.375 1.28515-.875 4.4375-2.1875 2.85547-.82032 1.58594-2.89843 4.4375-.71875 1.21875-1.15625 3.21875 1.15625 1.875 3.60547-1.875.83203-.46485 4.4375-3.58203 1.46093-.39062 2.97657-.79688 2.4453-3.64062 1.9961-2.47656 4.4375 1.85937 4.4375-3.32813 1.20703-.49609 2.6211-4.4375-3.82813-3.3789-4.21484-1.0586 3.375-4.4375-2.57813-4.4414-1.01953-1.01954v-12.29296h17.7539v7.53125l-3.52343 1.34375.79688 4.4375-1.71094 2.76953-2.2539 1.67187 2.2539 3.98047.48828.45703 3.94922 3.28906 3.90234 1.14844.53516.14453.20312-.14453 4.23438-2.67969 2.38281-1.7578 2.0586-.44532v13.67578l-.51954.08594.51953.0664.07032-.0664-.07031-.08594v-13.67578l4.4375-3.9336.05468-.05859-.05469-.1289-2.11718-4.3125-2.32031-1.35547-2.9336 1.35546-1.50781.20704-.8711-.20704-3.5664-2.11328-3.07031-2.32421-1.3672-1.34375v-7.53125h110.95704v150.24218l-.76953.66016.76953.40625.5039-.40625-.5039-.66016V311.67187h26.63281v148.8125l-4.4414.22657-3.42579 1.86328 3.42579 2.3711 4.4414.5625 4.4375-2.03126 1.67578-.90234-1.67578-.7539-4.4375-1.33594v-148.8125h53.25781v141.73046l-2.82812.29688 2.82813.17187.17187-.17187-.17188-.29688V311.67188h75.44922v168.65625h-68.98437l-2.02735-2.625-2.78125-1.8125-1.65625-1.63672-2.58984-2.80079.89063-4.4375-.08985-4.4414-2.64844-2.97266-1.05078-1.46484-1.8125-4.4375-1.57421-.04688-4.4375-.35937-.41407.40625-2.35937 4.4375 2.77344 3.90234.62109.53516 2.26172 4.4414-.53516 4.4375.44531 4.4375 1.64454 2.08594 1.09765 2.35156H144.00391"/></g><path fill="#50fcfc" fill-rule="evenodd" d="M144.20703 404.875l-.20312-.1914v-3.35157l3.7578 3.54297.67579.85156 4.4375 3.07422v1.10156l-4.4375.29688-2.92578 3.55469 2.92578 2.92578 4.07813 1.51172.35937.36328 1.8125 4.07422 2.6289 3.07812 1.15235 1.36328.27344 4.4375.14453 4.4375-.0586 4.4375.04688 4.4375-.0039 4.4414-.15626 4.4375-.33593 4.4375.5039 4.4375 2.8711 2.82423 4.4375-.63281 4.4375-.16016 4.34765-2.03125.08985-.49219 3.34375-3.94531 1.09765-4.28906.01172-.14844 1.03125-4.4375 3.39453-3.03125.42578-1.41016-.42578-.71875-2.85547-3.71875 2.85547-3.30078 4.4375-.4336 1.22266-.70312 2.8711-4.4375-3.60938-4.4375-.48438-.0625-4.4375-.57422-3.50781.63672-.92969.375-4.4414.80469-1.76563-1.17969-2.67187-1.07812-4.11328-3.36328-.32422-.95313-.35938-3.48437-3.60547-4.4375-.47265-.42188-4.4375-1.9414-4.44141-1.48829v-1.10156l4.4414-2.07812 1.76954-1.84766 1.16797-4.4375-2.9375-3.83984-4.44141.29296-4.4375 3.14454-4.4336-.27344v-2.54688l4.4336-.58984 1.24219-.625 3.19531-2.07422 1.67188-2.36328-.1875-4.4375 2.95703-2.92578v2.26953l-.66016.65625.66016 3.20703 1.375-3.20703-1.375-.65625v-2.26953l2.97265-1.51563 1.46485-1.51171 1.61328 1.51171L165 387.125l-2.35156 4.4375.1211 4.4375-1.01563 1.20703-.51563 3.23047L161 404.875l-3.6836 3.84375-3.15624.59766 3.15625.47656 4.4375 1.0039 3.3164 2.95704 1.1211 1.67968 3.18359 2.75782.48047 4.4375.77344.6328 4.4375.45313 4.4414-.28515 4.4375-.26953 3.19531-.53125 1.2422-.38282 4.4375-.76953 4.4414-1.91797 4.4375-.66015 4.4375 1.46094v6.4375l-1.17969.27343 1.17969.21875v8.40235l-.23828.2539.23828.09766.14062-.09766-.14062-.2539v-8.40235l.21094-.21875-.21094-.27344v-6.4375l4.4375 1.84766 4.4414-.4336 2.42188.85548 2.01563 1.03906 4.27343-1.03906.16406-.03516 4.4375-.38672v1.9961l-2.69921 2.86718 2.69922.34766v3.17578l-.96875.91406.96875 2.60156.41796 1.83594 4.01953 2.47266 4.44141-1.60938 2.1914 3.57422 2.2461 2.16797 2.9414-2.16797-2.9414-2.51562-3.39062-1.92188-1.04688-1.35937-4.4414-2.21094-2.76172-.86719-1.67578-.91406v-3.17578l1.64453-.34766-1.64453-2.86719v-1.99609l2.0664.42188 2.3711 1.19921 3.76953 3.2422.67187.5664.50781-.5664 3.9297-1.6875 2.26952 1.6875 2.16797 1.8828 4.4375 2.51954.05078.03515 4.38672 2.78125 2.01563 1.65625-2.01563 2.1875-1.625-2.1875-2.8125-4.39062-4.4375 3.0586-3.60156-3.10548-.83594-1.03125-1.1289 1.03125.79296 4.4375.33594.1914 4.4375 1.3672 1.89063 2.8789-1.89063 1.32813-4.4375 2.32812-3.79297-3.65625-.64453-1.05469-4.4414.35938-4.4375-1.125-3.03125-2.61719-1.3047-4.4375-.10155-1.33203-.4922 1.33203-3.9453 2.2539-1.16016 2.1836-3.27734 2.34375-4.44141-1.82422-4.4375 2.7461-2.2461 1.17187-2.1914 2.08594-4.4375 1.94531-.4961.40625-3.9453 2.69531-3.01954 1.7461 2.14063 4.4375.8789 2.67578 4.4414-.14844 4.4375 1.1211 4.4375-.20704 1.41798.9961 3.01953 2.21094 3.14062 2.22656-3.14062 1.04297-4.4375.63672-4.4375.23437-4.4375.51172-4.4414.10938-4.4375.0664-4.4375-.07812-4.4375-.19922-4.44141.5664-4.4375.84375-4.4375.125-4.4375.07422-3.9961-3.9336-.24219-4.4375.09766-4.4375.0039-4.4375-.16796-4.4414.08984-4.4375.04297-4.4375.01563-4.4375-.21485-4.4375-.0664-.08203-3.71875-4.35937-.72266-1.6172-2.8086-2.8203-1.6289-.60157-3.83594-3.83593 2.82422-4.4375-3.21875-4.44141"/><path fill="#00e8fc" fill-rule="evenodd" d="M147.76172 404.875l-3.75781-3.54297v-1.57031l4.43359.27344 4.4375-3.14454 4.4414-.29296v2.14843l-4.4414.95704-.97656.73437-2.45703 4.4375 3.43359 2.95313 3.8711-2.95313.5703-1.59766 1.29688-2.83984-1.29687-1.6914v-2.14844l2.9375 3.83984-1.16797 4.4375-1.76953 1.84766-4.44141 2.07812-4.4375-3.07422-.67578-.85156"/><path fill="#50fcfc" fill-rule="evenodd" d="M144.34375 324.98438l-.33984 1.3203v-1.6914l.33984.3711"/><path fill="#00e8fc" fill-rule="evenodd" d="M148.4375 416.67969l-2.92578-2.92578 2.92578-3.5547 4.4375-.29687v1.11329l-4.4375 1.02343-1.41016 1.71485 1.41016 1.41015 4.4375 1.82422 1.28906 1.20313 2.34766 4.4375.80469.9453 2.96484 3.4961.36328 4.4375.41406 4.4375-.08203 4.4375.27735 4.4375-.29297 4.4414-.41406 4.4375-.72657 4.4375.9375 4.4375.9961.98048 3.17578-.98047 1.26172-.65235 3.64453-3.78515.79297-3.26172.66797-1.17578-.66797-1.83985-1.90235-2.59765-.33984-4.4414-2.19531-3.9961-.31641-.4414-1.47656-4.4375.80469-4.4375.98828-4.25 2.25 4.25 2.1875 1.0703.98437-1.0703-.98437-.77735-4.39453-3.66016-.04297-.03515-1.64844-4.40625-.40234-4.4375-2.38672-2.70704-4.4375-1.51562-.19532-.21484-4.24609-2.73829v-1.11328l4.4414 1.48829 4.4375 1.9414.47266.42188 3.60547 4.4375.35938 3.48437.32422.95313 4.11328 3.36328 2.67187 1.07812 1.76563 1.17969 4.4414-.80469.92969-.375 3.50781-.63672 4.4375.57422.48438.0625 3.60937 4.4375-2.8711 4.4375-1.22265.70313-4.4375.4336-2.85547 3.30077 2.85547 3.71875.42578.71875-.42578 1.41016-3.39453 3.03125-1.03125 4.4375-.01172.14844-1.09765 4.28906-3.34375 3.94531-.08985.49219-4.34765 2.03125-4.4375.16015-4.4375.63282-2.8711-2.82422-.5039-4.4375.33593-4.4375.15625-4.4375.00391-4.4414-.04688-4.4375.0586-4.4375-.14453-4.4375-.27344-4.4375-1.15234-1.36329-2.62891-3.07812-1.8125-4.07422-.35938-.36328-4.07812-1.51172"/><path fill="#00d4fc" fill-rule="evenodd" d="M148.4375 415.16406l-1.41016-1.41015 1.41016-1.71485 4.4375-1.02344v1.1172l-4.23828 1.62109 4.23828 1.91796 2.70313 2.51954 1.73828 3.05078 2.15625 1.38672 2.28125 3.36718v29.91797l-.4961 2.22266.4961 1.88281 4.4375-1.17969.67968-.70312-.67968-1.0039-4.4375-1.21876V425.9961l1.03515-3.36718-.33984-4.4375-.69531-.78907-4.4375-1.54296-1.92578-2.10547-2.51563-1.6211v-1.11719l4.2461 2.73829.1953.21484 4.4375 1.51563 2.38673 2.70703.40234 4.4375 1.64844 4.40625.04297.03515 4.39453 3.66016.98437.77734-.98437 1.07031-2.1875-1.0703-2.25-4.25-.98828 4.25-.8047 4.4375 1.47657 4.4375.3164.4414 2.19532 3.9961.33984 4.4414 1.90235 2.59765.66797 1.83985-.66797 1.17578-.79297 3.26172-3.64453 3.78515-1.26172.65235-3.17578.98047-.9961-.98047-.9375-4.4375.72656-4.4375.41407-4.4375.29297-4.4414-.27735-4.4375.08203-4.4375-.41406-4.4375-.36328-4.4375-2.96484-3.4961-.8047-.94531-2.34765-4.4375-1.28906-1.20313-4.4375-1.82422"/><path fill="#00c4fc" fill-rule="evenodd" d="M152.875 415.67188l-4.23828-1.91797 4.23828-1.6211v1.11328l-1.32422.50782 1.32422.59765 4.11328 3.83985.32813.57421 1.24609-.57421-1.2461-.4375-3.65234-4-.78906-.50782v-1.11328l2.51563 1.6211 1.92578 2.10546 4.4375 1.54297.6953.78907.33985 4.4375-1.03515 3.36718-2.28125-3.36718-2.15625-1.38672-1.73828-3.05078-2.70313-2.51954"/><path fill="#00d4fc" fill-rule="evenodd" d="M152.875 407.82813l-3.4336-2.95313 2.45704-4.4375.97656-.73438v1.91797l-2.30078 3.25391 2.30078 1.98047 2.59375-1.98047-2.59375-3.2539v-1.91798l4.4414-.95703 1.29688 1.69141-1.29687 2.83984-.57032 1.59766-3.87109 2.95313"/><path fill="#00c4fc" fill-rule="evenodd" d="M152.875 406.85547l-2.30078-1.98047 2.30078-3.2539v1.60546l-1.16406 1.64844 1.16406 1.0039 1.3164-1.0039-1.3164-1.64844v-1.60547l2.59375 3.25391-2.59375 1.98047"/><path fill="#00b8fc" fill-rule="evenodd" d="M152.875 414.35156l-1.32422-.59765 1.32422-.50782.78906.50782 3.65235 4 1.24609.4375-1.2461.57421-.32812-.57421-4.11328-3.83985m0-8.47265l-1.16406-1.00391 1.16406-1.64844v1.60156l-.03125.04688.03125.03125.03906-.03125-.03906-.04688v-1.60156l1.3164 1.64844-1.3164 1.0039"/><path fill="#00a8fc" fill-rule="evenodd" d="M152.875 404.90625l-.03125-.03125.03125-.04688.03906.04688-.03906.03125"/><path fill="#00e8fc" fill-rule="evenodd" d="M157.3164 390.33203l-.66015-3.20703.66016-.65625 1.375.65625-1.375 3.20703"/><path fill="#50fcfc" fill-rule="evenodd" d="M161.7539 357.92969l-1.15624-1.875 1.15625-3.21875.71875-1.21875 2.89843-4.4375.82032-1.58594 2.1875-2.85547.875-4.4375 1.375-1.28515v9.90234l-.23047.26172.23047.21875.44922-.21875-.44922-.26172v-9.90235l2.51172-3.15234.8203-4.4375 1.10548-1.14062v9.91796l-.08203.09766.08203.08985.10156-.08985-.10156-.09765v-9.91797l4.4414.07812 3.28125-3.3789 1.15625-1.01954 1.01953 1.01954 2.57813 4.4414-3.375 4.4375 4.21484 1.0586 3.82813 3.3789-2.6211 4.4375-1.20703.4961-4.4375 3.32812-4.4375-1.85938-1.9961 2.47657-2.4453 3.64062-2.97657.79688-1.46093.39062-4.4375 3.58203-.83203.46485-3.60547 1.875"/><path fill="#00c4fc" fill-rule="evenodd" d="M161.7539 460.01953l-.49609-1.88281.4961-2.22266 4.4375 1.21875.67968 1.0039-.67968.70313-4.4375 1.1797"/><path fill="#00e8fc" fill-rule="evenodd" d="M170.6289 347.39844l-.23046-.21875.23047-.26172.44922.26172-.44922.21875m4.4375-9.00781l-.08203-.08985.08203-.09765.10156.09765-.10156.08985"/><path fill="#50fcfc" fill-rule="evenodd" d="M197.26172 333.40625l-2.2539-3.98047 2.2539-1.67187 1.71094-2.76954-.79688-4.4375 3.52344-1.34375v6.57032l-1.2461 3.65234 1.2461 1.20703 4.4375.89453v2.23438l-.53906.10156.53906 3.29297.76953-3.29297-.76953-.10156v-2.23438l4.4375 1.08985 4.4414-1.5664 1.8125-1.625-1.8125-2.17188-4.4414-.65625-4.4375-.27344-4.4375-.55078v-6.57031l1.36719 1.34375 3.0703 2.32421 3.56642 2.11329.87109.20703 1.50781-.20704 2.9336-1.35546 2.3203 1.35546 2.1172 4.3125.05468.12891-.05469.0586-4.4375 3.93359-2.05859.44531-2.38281 1.75781-4.23438 2.6797-.20312.14452-.53516-.14453-3.90234-1.14844-3.94922-3.28906-.48828-.45703"/><path fill="#00e8fc" fill-rule="evenodd" d="M201.69922 330.63281l-1.2461-1.20703 1.2461-3.65234 4.4375.55078 4.4375.27344v2.34765l-1.41797.48047 1.41797.54297 1.14844-.54297-1.14844-.48047v-2.34765l4.4414.65625 1.8125 2.17187-1.8125 1.625-4.4414 1.5664-4.4375-1.08984-4.4375-.89453m4.4375 96.65625l-1.17969-.21875 1.17969-.27344.21094.27344-.21094.21875"/><path fill="#fff" fill-opacity="0" fill-rule="evenodd" d="M206.13672 333.76172l-.53906.10156.53906 3.29297.76953-3.29297-.76953-.10156"/><path fill="#00e8fc" fill-rule="evenodd" d="M206.13672 436.04297l-.23828-.09766.23828-.2539.14062.2539-.14062.09766"/><path fill="#00d4fc" fill-rule="evenodd" d="M210.57422 329.96875l-1.41797-.54297 1.41797-.48047 1.14844.48047-1.14844.54297"/><path fill="#50fcfc" fill-rule="evenodd" d="M215.01563 347.2461l-.51954-.06641.51953-.08594.07032.08594-.07031.0664"/><path fill="#fff" fill-opacity="0" fill-rule="evenodd" d="M228.32813 424.20313l-2.69922 2.86718 2.69922.34766 1.64453-.34766-1.64453-2.86719"/><path fill="#00e8fc" fill-rule="evenodd" d="M228.32813 434.10938l-.96875-2.60157.96875-.91406 1.67578.91406 2.76172.86719v3.05469l-.57813.51562.57813.35547.77734-.35547-.77734-.51562V432.375l4.4414 2.21094 1.04688 1.35937 3.39062 1.92188 2.9414 2.51562-2.9414 2.16797-2.2461-2.16797-2.1914-3.57422-4.4414 1.60938-4.01954-2.47266-.41797-1.83594"/><path fill="#00d4fc" fill-rule="evenodd" d="M232.76563 436.30078l-.57813-.35547.57813-.51562.77734.51562-.77734.35547"/><path fill="#50fcfc" fill-rule="evenodd" d="M312.65625 462.98047l-.76953-.40625.76953-.66016.5039.66016-.5039.40625m22.1914 1.96484l-3.42577-2.3711 3.42578-1.86327 4.4414-.22656 4.4375 1.33593 1.67578.7539-1.67578.90235-4.4375 2.03125-4.4414-.5625"/><g clip-path="url(#d)"><path fill="#50fcfc" fill-rule="evenodd" d="M379.23438 462.03906l-2.77344-3.90234 2.35937-4.4375.41406-.40625 4.4375.35937 1.57422.04688 1.8125 4.4375 1.05079 1.46484 2.64843 2.97266.08985 4.4414-.89063 4.4375 2.58985 2.80079 1.65625 1.63671 2.78125 1.8125 2.02734 2.625h-4.53125l-1.9336-1.5664-4.4375.10156-.80859 1.46485h-2.53125l-1.09765-2.35157-1.64454-2.08594-.4453-4.4375.53515-4.4375-2.26172-4.4414-.6211-.53516"/></g><g clip-path="url(#e)"><path fill="#00e8fc" fill-rule="evenodd" d="M387.30078 480.32813l.8086-1.46485 4.4375-.10156 1.93359 1.5664h-7.17969"/></g><path fill="#50fcfc" fill-rule="evenodd" d="M392.54688 453.8711l-2.82813-.17188 2.82813-.29688.17187.29688-.17188.17187"/><g clip-path="url(#f)"><path fill="#fff" fill-opacity="0" fill-rule="evenodd" d="M467.9961 480.32813H468V311.67188h-.0039H468v168.65625h-.0039"/></g><path fill="#fff" fill-opacity="0" fill-rule="evenodd" d="M238.0625 428.8711l4.55078 3.66015 6.24219-7.76172-4.55469-3.66015-6.23828 7.76171"/><path fill-rule="evenodd" d="M245.8789 424.73047l.39844.32031-3.9453 4.90625-.61329-.49219 2.8164-3.5-1.08593-.87109.35156-.4336.47656.30079.23047.11719.23438.07421.2461.01563.26562-.05469.29687-.14062.32813-.2422"/><path fill="#fff" fill-opacity="0" fill-rule="evenodd" d="M218.38281 429.04688l1.05469 5.74609L229.23438 433l-1.05079-5.7461-9.80078 1.79298"/><path fill-rule="evenodd" d="M227.00781 431.02344l.09375.5039-6.1914 1.13282-.14453-.77344 4.41796-.8086-.25-1.36718.54688-.10156.16406.53906.09766.23828.1289.21094.17578.17578.23829.13281.3164.08594.40625.03125"/><path fill="#fff" fill-opacity="0" fill-rule="evenodd" d="M152.48047 445.92578l.10937 5.83985 9.96094-.1875-.10937-5.83985-9.96094.1875"/><path fill-rule="evenodd" d="M160.67188 449.27344l.01171.50781-6.29687.11719-.01172-.78516 4.48828-.08594-.02734-1.38671.55469-.01172.07812.55859.0586.2539.09374.22657.14453.19922.21094.17187.29688.13672.39844.09766"/><g clip-path="url(#g)"><path fill="none" stroke="#000" stroke-linecap="round" stroke-linejoin="round" stroke-miterlimit="10" stroke-width=".5" d="M147.28906 479.08984l-6.57812 2.47657"/></g><g clip-path="url(#h)"><path fill="none" stroke="#000" stroke-linecap="round" stroke-linejoin="round" stroke-miterlimit="10" stroke-width=".5" d="M147.28906 479.08984l1.83985 1.6211"/></g><g clip-path="url(#i)"><path fill="none" stroke="#000" stroke-linecap="round" stroke-linejoin="round" stroke-miterlimit="10" stroke-width=".5" d="M146.33203 479.44922l1.83984 1.6211"/></g><g clip-path="url(#j)"><path fill="none" stroke="#000" stroke-linecap="round" stroke-linejoin="round" stroke-miterlimit="10" stroke-width=".5" d="M160.52734 478.90625l-6.42578 2.84375"/></g><g clip-path="url(#k)"><path fill="none" stroke="#000" stroke-linecap="round" stroke-linejoin="round" stroke-miterlimit="10" stroke-width=".5" d="M160.52734 478.90625l1.9297 1.51563"/></g><g clip-path="url(#l)"><path fill="none" stroke="#000" stroke-linecap="round" stroke-linejoin="round" stroke-miterlimit="10" stroke-width=".5" d="M159.59375 479.32031l1.92969 1.51563"/></g><g clip-path="url(#m)"><path fill="none" stroke="#000" stroke-linecap="round" stroke-linejoin="round" stroke-miterlimit="10" stroke-width=".5" d="M173.8086 478.83203l-6.35548 2.9961"/></g><g clip-path="url(#n)"><path fill="none" stroke="#000" stroke-linecap="round" stroke-linejoin="round" stroke-miterlimit="10" stroke-width=".5" d="M173.8086 478.83203l1.96484 1.46875"/></g><g clip-path="url(#o)"><path fill="none" stroke="#000" stroke-linecap="round" stroke-linejoin="round" stroke-miterlimit="10" stroke-width=".5" d="M172.88281 479.26563l1.96485 1.46875"/></g><g clip-path="url(#p)"><path fill="none" stroke="#000" stroke-linecap="round" stroke-linejoin="round" stroke-miterlimit="10" stroke-width=".5" d="M187.20313 479.01563l-6.51563 2.625"/></g><g clip-path="url(#q)"><path fill="none" stroke="#000" stroke-linecap="round" stroke-linejoin="round" stroke-miterlimit="10" stroke-width=".5" d="M187.20313 479.01563l1.8789 1.57812"/></g><g clip-path="url(#r)"><path fill="none" stroke="#000" stroke-linecap="round" stroke-linejoin="round" stroke-miterlimit="10" stroke-width=".5" d="M186.2539 479.39844l1.87891 1.57812"/></g><g clip-path="url(#s)"><path fill="none" stroke="#000" stroke-linecap="round" stroke-linejoin="round" stroke-miterlimit="10" stroke-width=".5" d="M200.42578 478.80469l-6.33203 3.05078"/></g><g clip-path="url(#t)"><path fill="none" stroke="#000" stroke-linecap="round" stroke-linejoin="round" stroke-miterlimit="10" stroke-width=".5" d="M200.42578 478.80469l1.97656 1.44922"/></g><g clip-path="url(#u)"><path fill="none" stroke="#000" stroke-linecap="round" stroke-linejoin="round" stroke-miterlimit="10" stroke-width=".5" d="M199.5039 479.2461l1.98048 1.45312"/></g><g clip-path="url(#v)"><path fill="none" stroke="#000" stroke-linecap="round" stroke-linejoin="round" stroke-miterlimit="10" stroke-width=".5" d="M213.78906 478.90625l-6.42578 2.84375"/></g><g clip-path="url(#w)"><path fill="none" stroke="#000" stroke-linecap="round" stroke-linejoin="round" stroke-miterlimit="10" stroke-width=".5" d="M213.78906 478.90625l1.92969 1.51563"/></g><g clip-path="url(#x)"><path fill="none" stroke="#000" stroke-linecap="round" stroke-linejoin="round" stroke-miterlimit="10" stroke-width=".5" d="M212.85547 479.32031l1.92969 1.51563"/></g><g clip-path="url(#y)"><path fill="none" stroke="#000" stroke-linecap="round" stroke-linejoin="round" stroke-miterlimit="10" stroke-width=".5" d="M227.02734 478.75l-6.27734 3.15625"/></g><g clip-path="url(#z)"><path fill="none" stroke="#000" stroke-linecap="round" stroke-linejoin="round" stroke-miterlimit="10" stroke-width=".5" d="M227.02734 478.75l2.00391 1.41797"/></g><g clip-path="url(#A)"><path fill="none" stroke="#000" stroke-linecap="round" stroke-linejoin="round" stroke-miterlimit="10" stroke-width=".5" d="M226.11719 479.20703l2 1.41797"/></g><g clip-path="url(#B)"><path fill="none" stroke="#000" stroke-linecap="round" stroke-linejoin="round" stroke-miterlimit="10" stroke-width=".5" d="M240.19531 478.48438l-5.98047 3.6875"/></g><path fill="none" stroke="#000" stroke-linecap="round" stroke-linejoin="round" stroke-miterlimit="10" stroke-width=".5" d="M240.19531 478.48438l2.11719 1.23828"/><g clip-path="url(#C)"><path fill="none" stroke="#000" stroke-linecap="round" stroke-linejoin="round" stroke-miterlimit="10" stroke-width=".5" d="M239.32422 479.01953l2.1211 1.24219"/></g><g clip-path="url(#D)"><path fill="none" stroke="#000" stroke-linecap="round" stroke-linejoin="round" stroke-miterlimit="10" stroke-width=".5" d="M253.15234 478.0039l-5.26562 4.65235"/></g><path fill="none" stroke="#000" stroke-linecap="round" stroke-linejoin="round" stroke-miterlimit="10" stroke-width=".5" d="M253.15234 478.0039l2.30078.85938m-3.0664-.1836l2.29687.85938"/><g clip-path="url(#E)"><path fill="none" stroke="#000" stroke-linecap="round" stroke-linejoin="round" stroke-miterlimit="10" stroke-width=".5" d="M266.44922 477.98047l-5.22656 4.69922"/></g><path fill="none" stroke="#000" stroke-linecap="round" stroke-linejoin="round" stroke-miterlimit="10" stroke-width=".5" d="M266.44922 477.98047l2.30469.83984m-3.06641-.15625l1.15234.41797"/><g clip-path="url(#F)"><path fill="none" stroke="#000" stroke-linecap="round" stroke-linejoin="round" stroke-miterlimit="10" stroke-width=".5" d="M279.60938 477.8164l-4.91797 5.02344"/></g><path fill="none" stroke="#000" stroke-linecap="round" stroke-linejoin="round" stroke-miterlimit="10" stroke-width=".5" d="M279.60938 477.8164l2.35156.69532"/><g clip-path="url(#G)"><path fill="none" stroke="#000" stroke-linecap="round" stroke-linejoin="round" stroke-miterlimit="10" stroke-width=".5" d="M293.14453 478.0586l-5.35937 4.54296"/></g><path fill="none" stroke="#000" stroke-linecap="round" stroke-linejoin="round" stroke-miterlimit="10" stroke-width=".5" d="M293.14453 478.0586l2.28125.90624"/><g clip-path="url(#H)"><path fill="none" stroke="#000" stroke-linecap="round" stroke-linejoin="round" stroke-miterlimit="10" stroke-width=".5" d="M306.75 478.44922l-5.9375 3.75781"/></g><path fill="none" stroke="#000" stroke-linecap="round" stroke-linejoin="round" stroke-miterlimit="10" stroke-width=".5" d="M305.88672 478.9961l1.0664.60546"/><g clip-path="url(#I)"><path fill="none" stroke="#000" stroke-linecap="round" stroke-linejoin="round" stroke-miterlimit="10" stroke-width=".5" d="M320.08203 478.47656l-5.97265 3.70703"/></g><path fill="none" stroke="#000" stroke-linecap="round" stroke-linejoin="round" stroke-miterlimit="10" stroke-width=".5" d="M319.21094 479.01563l1.0625.61328"/><g clip-path="url(#J)"><path fill="none" stroke="#000" stroke-linecap="round" stroke-linejoin="round" stroke-miterlimit="10" stroke-width=".5" d="M333.23828 478.24219l-5.65234 4.17578"/></g><path fill="none" stroke="#000" stroke-linecap="round" stroke-linejoin="round" stroke-miterlimit="10" stroke-width=".5" d="M332.41406 478.84766l1.10547.53125"/><g clip-path="url(#K)"><path fill="none" stroke="#000" stroke-linecap="round" stroke-linejoin="round" stroke-miterlimit="10" stroke-width=".5" d="M346.82031 478.66406l-6.1875 3.32813"/></g><g clip-path="url(#L)"><path fill="none" stroke="#000" stroke-linecap="round" stroke-linejoin="round" stroke-miterlimit="10" stroke-width=".5" d="M345.92188 479.14844l1.01953.6836"/></g><g clip-path="url(#M)"><path fill="none" stroke="#000" stroke-linecap="round" stroke-linejoin="round" stroke-miterlimit="10" stroke-width=".5" d="M360.1875 478.76953l-6.29297 3.1211"/></g><g clip-path="url(#N)"><path fill="none" stroke="#000" stroke-linecap="round" stroke-linejoin="round" stroke-miterlimit="10" stroke-width=".5" d="M359.27344 479.22266l.9961.71484"/></g><g clip-path="url(#O)"><path fill="none" stroke="#000" stroke-linecap="round" stroke-linejoin="round" stroke-miterlimit="10" stroke-width=".5" d="M373.65234 479.11719l-6.59375 2.42578"/></g><g clip-path="url(#P)"><path fill="none" stroke="#000" stroke-linecap="round" stroke-linejoin="round" stroke-miterlimit="10" stroke-width=".5" d="M372.69531 479.46875l.91406.8164"/></g><g clip-path="url(#Q)"><path fill="none" stroke="#000" stroke-linecap="round" stroke-linejoin="round" stroke-miterlimit="10" stroke-width=".5" d="M384.07031 483.82031l-.79687-6.98437"/></g><g clip-path="url(#R)"><path fill="none" stroke="#000" stroke-linecap="round" stroke-linejoin="round" stroke-miterlimit="10" stroke-width=".5" d="M393.63672 479.26953l6.69922 2.1211"/></g><g clip-path="url(#S)"><path fill="none" stroke="#000" stroke-linecap="round" stroke-linejoin="round" stroke-miterlimit="10" stroke-width=".5" d="M413.8086 480.5625l-7.01173-.46875"/></g><g clip-path="url(#T)"><path fill="none" stroke="#000" stroke-linecap="round" stroke-linejoin="round" stroke-miterlimit="10" stroke-width=".5" d="M426.71094 478.66797l-6.1914 3.32031"/></g><g clip-path="url(#U)"><path fill="none" stroke="#000" stroke-linecap="round" stroke-linejoin="round" stroke-miterlimit="10" stroke-width=".5" d="M425.8125 479.15234l1.01953.6797"/></g><g clip-path="url(#V)"><path fill="none" stroke="#000" stroke-linecap="round" stroke-linejoin="round" stroke-miterlimit="10" stroke-width=".5" d="M440.30078 479.33594l-6.73828 1.98828"/></g><g clip-path="url(#W)"><path fill="none" stroke="#000" stroke-linecap="round" stroke-linejoin="round" stroke-miterlimit="10" stroke-width=".5" d="M439.32031 479.625l.85938.875"/></g><g clip-path="url(#X)"><path fill="none" stroke="#000" stroke-linecap="round" stroke-linejoin="round" stroke-miterlimit="10" stroke-width=".5" d="M453.76172 480.3164l-7.02735.02735"/></g><g clip-path="url(#Y)"><path fill="none" stroke="#000" stroke-linecap="round" stroke-linejoin="round" stroke-miterlimit="10" stroke-width=".5" d="M467.05469 480.71484l-6.98438-.77343"/></g><g clip-path="url(#Z)"><path fill="none" stroke="#000" stroke-linecap="round" stroke-linejoin="round" stroke-miterlimit="10" stroke-width=".5" d="M147.28125 465.76172l-6.5625 2.5039"/></g><path fill="none" stroke="#000" stroke-linecap="round" stroke-linejoin="round" stroke-miterlimit="10" stroke-width=".5" d="M147.28125 465.76172l1.85156 1.61328m-2.80469-1.25l1.84766 1.61328m12.3789-2.08594l-6.47655 2.72266m6.47656-2.72266l1.90234 1.54688m-2.84766-1.15235l1.90235 1.55079m12.40625-1.82813l-6.57422 2.48828m6.57422-2.48828l1.84375 1.61719m-2.80078-1.2539l1.84375 1.61718m12.46484-1.8711l-6.64844 2.26954m6.64844-2.26953l1.79297 1.67578m-2.76172-1.34766l1.79297 1.67969m12.38281-2.28516l-6.4336 2.82422m6.4336-2.82422l1.92578 1.52344m-2.85937-1.11328l1.92187 1.52344m12.23438-2.125l-6.25 3.20703m6.25-3.20703l2.01562 1.39843m-2.92187-.93359l2.01172 1.40234m12.09765-2.0703l-6.02343 3.61327m6.02343-3.61328l2.10157 1.26563m-2.97657-.7422l2.10157 1.26563m11.89453-2.08203l-5.63672 4.19922m5.63672-4.19922l2.21875 1.04688m-3.03906-.4375l2.21875 1.05078m11.71093-1.91016l-5.22656 4.69922m5.22656-4.69922l2.30469.83985m-3.0664-.15625l2.30859.83984m11.64062-1.66016L261.35156 469.5m4.96875-4.97266l2.34766.71875m-3.07031.00782l1.17187.35546m12.83203-1.11328l-4.90234 5.03516m4.90234-5.03516l2.35547.6875m-3.0664.04688l1.17578.33984m12.78515-1.13672l-4.76953 5.16016m4.76953-5.16016l2.3711.625m-3.06641.125l1.1875.3125m12.98047-.91015l-5.08594 4.85547m5.08594-4.85547l2.32812.77343m10.89063-.86718l-4.89453 5.04297m4.89453-5.04297l2.35547.67968m10.83593-.79296l-4.64453 5.26953m3.96875-4.5039l1.19141.28515m11.875-1.63672l-2.80078 6.4414m2.39453-5.5039l1.22266-.09766m11.91796-1.03515l-1.63671 6.83203m1.39843-5.83985l1.1875-.30859m13.76953.01172l-4.4453 5.4414m14.9375-6.18359l1.19921 6.92578m14.27344-6.61328l-3.11328 6.30078m18.375-3.4336l-7.0039.56641m20.32421-.48437l-7.01563.40234m19.51954-2.45312l-5.39454 4.5039m4.60938-3.84765l1.13672.46094m13.40625-.44532l-6.27735 3.16016m5.36329-2.69922l1 .70703m13.5664-.10156l-6.95312 1.02734m5.9414-.8789l.72657.98828"/><g clip-path="url(#aa)"><path fill="none" stroke="#000" stroke-linecap="round" stroke-linejoin="round" stroke-miterlimit="10" stroke-width=".5" d="M147.25 452.36719l-6.5 2.66406"/></g><path fill="none" stroke="#000" stroke-linecap="round" stroke-linejoin="round" stroke-miterlimit="10" stroke-width=".5" d="M147.25 452.36719l1.88672 1.5664m-2.83203-1.17968l1.88672 1.5664m12.40234-1.88672l-6.55469 2.53125m6.55469-2.53125l1.85547 1.60547m-2.8125-1.23828l1.85937 1.60547m12.4922-1.74219l-6.71485 2.0664m6.71484-2.0664l1.73828 1.73438m-2.71484-1.4336l1.73828 1.73438m12.54688-2.05078l-6.70313 2.10156m6.70313-2.10156l1.74609 1.72265m-2.71875-1.41797l1.7461 1.72657m12.5-2.16016l-6.6211 2.35938m6.6211-2.35938l1.8125 1.65234m-2.77735-1.30859l1.8125 1.65234m-2.77344-1.30859l.90625.82422m14.19922-1.83594l-6.35156 3.00781m6.35156-3.0078l1.96875 1.46484m-2.89063-1.02735l1.96875 1.46485m-2.89453-1.02735l.98438.73438m14.10937-1.7461l-6.21093 3.28125m6.21093-3.28125l2.03125 1.375m-2.93359-.89843l2.03125 1.3789m-2.9375-.90234l1.01563.6875m13.91796-1.96094l-5.83203 3.92188m5.83203-3.92188l2.16407 1.15625m-3.01172-.58594l2.16406 1.15625m-3.01172-.58593l1.08203.57812m13.83594-1.84766l-5.64844 4.1797m5.64844-4.1797l2.21484 1.0547m-3.03515-.44923l2.21484 1.0586m-3.03906-.44922l1.10937.52734m13.59375-2.05078l-5.1328 4.79688m5.1328-4.79688l2.32032.79688m-3.06641-.10157l2.32031.79688m11.6289-1.60938l-4.91015 5.03125m4.91016-5.03125l2.35547.6875m-3.07032.04297l2.35547.6914m11.77735-1.3164l-5.11719 4.8164m5.11719-4.8164l2.32422.78906m-3.06641-.08593l2.32031.78515m11.84375-1.37109l-5.32812 4.58203m5.32812-4.58203l2.28516.89453m-3.0586-.22656l1.14063.44531m12.42578-1.60547l-4.28516 5.57032m4.28516-5.57032l2.42188.41016m-3.04297.39844l1.20703.20703m12.82812-.9375l-4.48437 5.41015m4.48437-5.41015l2.40625.5m11.0625-.36328l-4.78906 5.14062m4.78906-5.14062l2.3711.6328m-3.0664.11329l1.18358.3164m12.46875-1.35546l-4.07421 5.72656m4.07421-5.72656l2.4336.3164m10.1289-.72265l-2.5664 6.53906m2.1914-5.58984l1.21875-.14063m12.21094 2.46094l-.01953-.19922-.0586-.1914-.09765-.1797-.45703-.375-.1914-.05859-.19923-.01953-.19921.01953-.19141.0586-.46094.375-.09375.17968-.0586.19141-.01952.19922.01953.19922.0586.1914.09374.17578.46094.37891.1914.0586.19922.01953.19922-.01954.19141-.05859.45703-.3789.09766-.17579.0586-.1914.01952-.19922m10.82031-3.1914l2.94141 6.3828m12.51953-6.64062l-1.35156 6.89453m17.4375-2.76172l-6.89063-1.36719m5.88672 1.16797l.35547 1.17188m13.41406-3.64453l-5.79296 3.97656m4.94921-3.39844l1.08985.57031m10.1914-2.67578l-.03906 7.02735m.03516-6.0039l1.08594-.57032m13.71093-.11719l-2.99218 6.35938m2.55468-5.4336l1.22657-.0625"/><g clip-path="url(#ab)"><path fill="none" stroke="#000" stroke-linecap="round" stroke-linejoin="round" stroke-miterlimit="10" stroke-width=".5" d="M147.46875 439.8164l-6.9375 1.13673"/></g><path fill="none" stroke="#000" stroke-linecap="round" stroke-linejoin="round" stroke-miterlimit="10" stroke-width=".5" d="M147.46875 439.8164l1.48438 1.95313m-2.4961-1.78906l1.48828 1.95312m12.78906-2.35546l-6.83984 1.60937m6.83984-1.60938l1.6172 1.84375m-2.61329-1.60937l1.6211 1.84375m12.64843-2.2461l-6.7539 1.94532m6.7539-1.94531l1.70703 1.76562m-2.6914-1.48047l1.70703 1.76172m12.57812-2.08984l-6.72656 2.03515m6.72656-2.03515l1.73047 1.73828m-2.71094-1.44531l1.73047 1.74218m12.5586-2.05078l-6.71485 2.0625m6.71485-2.0625l1.73828 1.73047m-2.71484-1.42969l1.73828 1.73047m-2.71485-1.42968l.86719.86328m14.33594-1.66016l-6.58594 2.45313m6.58594-2.45313l1.83594 1.6289m-2.79297-1.26952l1.83593 1.625m-2.79297-1.26954l.91797.8125m14.21875-1.7539l-6.39843 2.91015m6.39843-2.91015l1.94532 1.49218m-2.87891-1.0703l1.94922 1.49609m12.17187-2.16797l-6.14453 3.40625m6.14453-3.40625l2.0586 1.33984m-2.94922-.84375l2.05469 1.33984m-2.94922-.84375l1.02734.66797m13.91797-1.91797l-5.83203 3.92188m5.83203-3.92188l2.16406 1.15625m-3.01562-.58593l2.16797 1.15625m11.84375-1.9375l-5.52344 4.34375m5.52344-4.34375l2.24609.99218m-3.05078-.35937l2.2461.98828m11.66796-1.85937l-5.11328 4.82421m5.11328-4.82421l2.32422.78515m-3.07031-.08594l1.16406.39454m12.76953-1.21875l-4.85937 5.07421m4.85937-5.07421l2.36328.66406m-3.07031.07422l1.1836.33203m13.28906-.55078l-5.75782 4.03125m5.75782-4.03125l2.18359 1.11718m-3.02344-.53125l1.09375.5586m13.29297-.76172l-6.22266 3.26953m6.22266-3.26953l2.02734 1.38281m-2.93359-.90625l1.01563.6875m13.24218-1.09375l-6.29297 3.125m6.29297-3.125l1.9961 1.42578m-2.91407-.97265l1 .71484m12.97657-1.60156l-5.78125 3.99219m5.78125-3.9922l2.17968 1.12891m-3.01953-.54687l1.08985.5625m11.90234-2.20703l-3.45703 6.1211m3.45703-6.1211l2.44922.0625m10.3164-.3125l-2.35937 6.61719m2.35938-6.6172l2.42968-.35937m7.41797 1l4.57422 5.33594m12.24219-5.96484l-2.42578 6.59375m18.02343-2.94532l-6.99218-.70312m5.97656.60156l.46484 1.13672m13.79688-.60547l-6.85156-1.5586m6.85156 1.5586l.64453 2.36719m12.64844-4.01563l-6.8086 1.73829m5.81641-1.48829l.82812.91016m11.78516-3.36328l-3.42187 6.14062m3.42187-6.14062l2.45313.05078m9.3828-.48437l-.46093 7.01171m.39453-5.99218l1.11719-.5039"/><g clip-path="url(#ac)"><path fill="none" stroke="#000" stroke-linecap="round" stroke-linejoin="round" stroke-miterlimit="10" stroke-width=".5" d="M147.48438 426.6289l-6.96875.88282"/></g><path fill="none" stroke="#000" stroke-linecap="round" stroke-linejoin="round" stroke-miterlimit="10" stroke-width=".5" d="M147.48438 426.6289l1.41796 2.00391m-2.42968-1.8789l1.41406 2.0078m12.92578-2.04687l-6.99219.70704m6.99219-.70704l1.36328 2.04297m-2.38281-1.9375l1.36328 2.03906m12.98047-1.98828l-7.01563.39453m7.01563-.39453l1.27344 2.09766m-2.29297-2.03906l1.27344 2.09765m13.04296-2.39453l-6.97656.8711m6.97656-.8711l1.41016 2.00781m-2.42578-1.8789l1.41016 2.0039m12.80078-2.6914l-6.73828 1.98828m6.73828-1.98828l1.71875 1.75m-2.69922-1.46094l1.71875 1.75m12.58594-2.00781l-6.75782 1.92578m6.75781-1.92578l1.70313 1.76562m-2.6836-1.48437l1.69923 1.76562m12.5078-2.3164l-6.57812 2.46484m6.57813-2.46484l1.83984 1.625m-2.79687-1.26563l1.83984 1.625m12.54297-1.64453l-6.79688 1.78516m6.79688-1.78516l1.66406 1.80469m-2.65625-1.54297l1.66406 1.80078m12.57422-2.28906l-6.66015 2.23828m6.66015-2.23828l1.78125 1.6836m-2.75-1.35938l1.78125 1.6875m12.32031-2.45313l-6.29687 3.1211m6.29688-3.1211l1.99218 1.42969m-2.91015-.97656l1.99609 1.42968m12.03125-2.23828l-5.88672 3.83203m5.88672-3.83203l2.14844 1.1875m-3.0039-.6289l2.14843 1.1875m12.4336-.8789l-6.70704 2.09765m6.70703-2.09766l1.7461 1.72266m-2.72266-1.41797l.8711.86328m13.3125-1.46484l-6.4922 2.6914m6.4922-2.6914l1.89453 1.5625m11.46093-1.45313l-6.57422 2.47656m6.57422-2.47656l1.84375 1.6211m11.52735-1.46485l-6.6875 2.16016m6.6875-2.16016l1.76172 1.70703m11.42187-2.05078l-6.42187 2.84766m6.42187-2.84766l1.9336 1.51172m10.89453-2.3086l-5.44922 4.44141m5.44922-4.4414l2.26171.95312m10.89844-1.1289l-5.13672 4.79296m4.38672-4.09765l1.16016.39843m13.28906-.60156l-5.90625 3.8086m5.04688-3.25391l1.0703.59766m13.1211 2.625l-5.9414-3.7461m5.07812 3.20313l-.08984 1.22265m13.625.07813l-4.65625-5.26172m3.98047 4.4961l-.4297 1.14843m14.9375-.94922l-5.6875-4.1289m4.85938 3.52734l-.17187 1.21484m14.55469-4.36328l-6.16797 3.3711m5.26953-2.87891l1.02734.67578m11.92578-2.48437l-3.64843 6.0039m3.64843-6.0039l2.44922.14062m11.85156.75l-5.61718 4.22266m4.80078-3.60938l1.10937.51953"/><g clip-path="url(#ad)"><path fill="none" stroke="#000" stroke-linecap="round" stroke-linejoin="round" stroke-miterlimit="10" stroke-width=".5" d="M147.47656 413.24219l-6.95312 1.02344"/></g><path fill="none" stroke="#000" stroke-linecap="round" stroke-linejoin="round" stroke-miterlimit="10" stroke-width=".5" d="M147.47656 413.24219l1.45313 1.97656m-2.46485-1.82813l1.45313 1.97657m12.78906-2.52344l-6.78516 1.82031m6.78516-1.82031l1.67578 1.79297m-2.66015-1.53125l.83593.89844m13.52344.39453l-6.90625-1.29297m6.90625 1.29297l.73438 2.34375m-1.73828-2.53125l.36718 1.17187m13.97266-1.10937l-6.94922-1.04297m6.94922 1.04297l.82031 2.3164m-1.82812-2.46875l.8164 2.31641m13.54688-2.60156l-7.02735-.16406m7.02735.16406l1.10156 2.1914m-2.125-2.21484l1.10156 2.1914m13.23828-2.1914l-7.02734-.1211m7.02734.1211L215.20312 416m-2.13671-2.20313l1.11328 2.1875m-2.13672-2.20703l.5586 1.09375m14.78905-1.43359l-7 .63281m7-.63281l1.33985 2.05469m-2.35938-1.96485l1.34375 2.0547m-2.36328-1.96095l.67188 1.02735m14.6836-1.19922l-7 .60937m7-.60937l1.33202 2.0586m-2.35156-1.96876l1.33594 2.0586m-2.35547-1.97266l.66797 1.03125m14.6914-1.10938l-7.01562.41407m7.01562-.41407l1.27735 2.09375m-2.29688-2.03515l1.27735 2.09375m12.90625-2.98828l-6.71094 2.08593m6.71094-2.08593l1.74218 1.72656m-2.71875-1.42578l.8711.86328m13.30078-1.48828l-6.47266 2.73437m6.47266-2.73437l1.90625 1.55078m-2.84766-1.15234l.95313.77343m13.48047-.6328l-6.82813 1.65624m6.82813-1.65625l1.6328 1.83203m-2.625-1.59375l.81642.91797m13.51171-1.0664l-6.86718 1.47656m6.86718-1.47657l1.58204 1.875m11.63671-2.23437l-6.67578 2.19531m6.67578-2.19531l1.76954 1.69531m11.68359-1.10156l-6.95313 1.00781m6.95313-1.00781l1.45312 1.98047m11.81641-.72266L340.29297 413m6.86328 1.50781l.66016 2.36328m12.73437-3.29687l-7.01953.35937m5.9961-.30859l.6328 1.05078m13.63673-1.64062l-6.87891 1.43359m6.8789-1.4336l1.57032 1.88672m11.8086-1.41015l-7.00782.48437m7.00781-.48437l1.30078 2.08203m11.75782-3.17969l-6.4961 2.67969m6.4961-2.67969l1.89062 1.5625m11.14844-2.09765l-5.9414 3.75m5.07421-3.20704l1.0664.60938m12.9961-1.33203l-5.70312 4.10547m4.87109-3.50782l1.10156.54297m13.57031-.05078l-6.7539 1.92969m5.77344-1.64844l.85156.88281m13.27734-1.6289l-6.42187 2.85937m6.42187-2.85937l1.9336 1.51172m11.59765-.85547l-6.85547 1.54687m5.85938-1.3203l.80078.92968"/><g clip-path="url(#ae)"><path fill="none" stroke="#000" stroke-linecap="round" stroke-linejoin="round" stroke-miterlimit="10" stroke-width=".5" d="M147.5039 400.1914l-7.0078.4922"/></g><path fill="none" stroke="#000" stroke-linecap="round" stroke-linejoin="round" stroke-miterlimit="10" stroke-width=".5" d="M147.5039 400.1914l1.30079 2.08204m-2.32031-2.00781l.65234 1.03906m13.42187-2.21875l-6.48437 2.70703m6.48437-2.70703l1.89453 1.55469m-2.83984-1.16407l.94922.78125m13.55469.61328l-6.97266-.86718m6.97266.86718l.875 2.29297m-1.89063-2.41797l.4375 1.14454m13.8125-.58594l-6.8125-1.73047m6.8125 1.73047l.58203 2.38281m-1.57422-2.63672l.58204 2.38672m13.76562-2.3164l-6.89453-1.36329m6.89453 1.36328l.71094 2.34766m-1.71484-2.54688l.71093 2.34766m-1.71094-2.54687l.35157 1.17578m15.0039-1l-6.96484-.91797m6.96484.91797l.85938 2.29687m-1.8711-2.4336l.85938 2.30079m13.48047-2.28906l-6.99219-.67188m6.99219.67188l.9414 2.26953m-1.95703-2.36719l.9375 2.26953m13.38672-2.10547l-6.98047-.80468m6.98047.80468l.89844 2.28516m-1.91406-2.40234l.44922 1.14453m13.88672-1.77735l-6.9922.69532m6.9922-.69532l1.36328 2.04297M253 400.19141l.67969 1.02343m13.59765-1.48828l-6.8828 1.42188m6.8828-1.42188l1.56641 1.89063m-2.57031-1.6836l.78515.94532m13.5625-.9961l-6.9414 1.11328m6.9414-1.11328l1.48047 1.95703m-2.49219-1.79687l.7422.98047m13.59374-1.08594l-6.95703 1m6.95703-1l1.44531 1.98047m11.89844-1.6836l-7.01562.41016m7.01562-.41015l1.27735 2.09375m12-2.44922l-6.9375 1.11718m6.9375-1.11718l1.48046 1.95703m11.83204-1.96875l-6.9336 1.14453m6.9336-1.14453l1.48828 1.94922m11.80468-2.06641l-6.89062 1.375m5.88672-1.17578l.77734.95312m13.23828 1.10547l-6.28515-3.14062m5.3711 2.6836l.03124 1.22655m14.5664-2.21484l-7.02343-.2461m6.0039.21094l.53516 1.10157m13.28906-3.01954l-6 3.66016m6-3.66015l2.10938 1.25m11.46875-.71875l-6.53125 2.59375m6.53125-2.59375l1.8711 1.58984m11.17968-2.11719l-6 3.65235m6-3.65235l2.11328 1.25m11.2461-1.17969l-6.08594 3.51172m6.08594-3.51172l2.08203 1.30079m11.63672-.22266l-6.89454 1.35156m5.89063-1.15625l.77344.95313m13.55078-1.11329l-6.90625 1.28516m6.90625-1.28515l1.53125 1.91796m11.70703-2.2539l-6.75 1.95703"/><g clip-path="url(#af)"><path fill="none" stroke="#000" stroke-linecap="round" stroke-linejoin="round" stroke-miterlimit="10" stroke-width=".5" d="M466.9375 399.46094l1.70703 1.75781"/></g><g clip-path="url(#ag)"><path fill="none" stroke="#000" stroke-linecap="round" stroke-linejoin="round" stroke-miterlimit="10" stroke-width=".5" d="M147.41016 387.96875l-6.82032-1.6914"/></g><path fill="none" stroke="#000" stroke-linecap="round" stroke-linejoin="round" stroke-miterlimit="10" stroke-width=".5" d="M146.41797 387.72266l.29687 1.1914m13.5586-3.6875l-5.91797 3.79297m5.91797-3.79297l2.14062 1.20313m11.73047.60547l-7.02734.17578m7.02734-.17578l1.20313 2.14062m11.74609-.49219l-6.29688-3.12109m6.29688 3.1211l.07031 2.45312m-.98828-2.90625l.03516 1.22656m14.20703-.78906l-6.3125-3.08985m6.3125 3.08985l.08203 2.45312m13.58594-3.875L207.0625 387m7.02344.2461l1.07812 2.20312m-2.09765-2.23828l1.07422 2.20312m13.2578-2.07812l-7.01562-.42578m7.01563.42578l1.01953 2.23047m-2.03906-2.29297l1.01562 2.23047m13.32031-2.2422l-7.01953-.27733m7.01953.27734l1.06641 2.21094m-2.08594-2.25l1.0664 2.20703m13.26954-2.39453l-7.02344.17578m7.02344-.17578l1.20703 2.13671m-2.22656-2.10937l.60156 1.0664m13.73438-1.08593l-7.02344.16015m7.02344-.16015l1.20312 2.14062m-2.22656-2.11718l1.20312 2.14062m13.12891-2.33984l-7.00781.51172m7.00781-.51172l1.30469 2.07812m-2.32422-2.0039l.65234 1.03906m13.66797-1.26172l-6.98047.8086m6.98047-.8086l1.39453 2.01953m-2.41015-1.90234l.6953 1.00781m13.57813-1.46484l-6.86718 1.48828m6.86718-1.48828l1.58594 1.87109m-2.58594-1.65625l.79297.9375m13.51563-1.17969l-6.85547 1.54297m6.85547-1.54297l1.60156 1.85938m-2.59766-1.63281l.79688.92968m13.50781-1.1836l-6.84375 1.59767m6.84375-1.59766l1.61328 1.84765m-2.60937-1.61328l.8086.92188m13.58593-.13281l-7.01172-.44922m7.01172.44922l1.01172 2.23828m12.27343-1.94922l-6.94921-1.02735m6.94921 1.02735l.82422 2.3125m12.5-3.26953l-6.96875.88672m6.96875-.88672l1.41797 2.0039m-2.42969-1.875l.70704 1M387 385.9961l-6.65625 2.25391M387 385.9961l1.78516 1.68359m11.64453-1.25l-6.88672 1.38672m6.88672-1.38672l1.5586 1.89844m11.68358-2.19532l-6.74218 1.98047m6.74218-1.98047l1.71485 1.7539m11.66015-1.53124l-6.85937 1.53515m6.85937-1.53515l1.59375 1.86328m11.76954-1.58984l-6.95704.98828m6.95704-.98828l1.4453 1.98437m11.90626-1.53515l-7.02735.08984m6.00391-.07813l.58984 1.07813m13.7461-1.01953l-7.02735-.05078"/><g clip-path="url(#ah)"><path fill="none" stroke="#000" stroke-linecap="round" stroke-linejoin="round" stroke-miterlimit="10" stroke-width=".5" d="M467.07422 387.14844l1.13672 2.17578"/></g><g clip-path="url(#ai)"><path fill="none" stroke="#000" stroke-linecap="round" stroke-linejoin="round" stroke-miterlimit="10" stroke-width=".5" d="M145.80469 376.82031l-3.60938-6.02734"/></g><path fill="none" stroke="#000" stroke-linecap="round" stroke-linejoin="round" stroke-miterlimit="10" stroke-width=".5" d="M145.28125 375.94531l-.63281 1.05078m16.14844-2.73046l-6.96485-.91797m5.95313.78515l.42968 1.14844m13.89453-.97656l-6.95703-.99219m6.95703.99219l.83204 2.3086m11.5703-.40626l-5.1328-4.79687m5.1328 4.79687l-.63671 2.3711m14.73047-3.69532l-6.6914-2.14844m6.6914 2.14844l.4336 2.41797m-1.40626-2.73047l.21485 1.20703m14.02343-.75l-6.58984-2.4375m6.58984 2.4375l.32813 2.4297m-1.28516-2.78517l.32813 2.4297m14.13672-2.86329l-6.97657-.85937m6.97657.85937l.875 2.29297m-1.89063-2.41797l.4375 1.14453m13.88281-1.9336l-6.95703.96876m6.95703-.96875l1.44141 1.98437m-2.45313-1.84375l1.44141 1.98829m12.91406-1.87891l-7.01172.46484m7.01172-.46484l1.29297 2.08594m-2.3125-2.01563l1.29297 2.08594m13.04297-1.76563l-7.01953-.3125m7.01953.3125l1.05469 2.21485m-2.07422-2.26172l1.05469 2.21484m13.28515-2.20312l-7.02344-.24219m7.02344.24219l1.07422 2.20312m-2.09766-2.23828l.53907 1.10156m13.79297-1.41406l-7.01172.45313m7.01172-.45313l1.28906 2.08594m-2.3086-2.01953l1.28907 2.08594m12.95703-2.7422l-6.83594 1.63282m6.83594-1.63281l1.6211 1.83984m-2.6172-1.60156l1.625 1.83984m12.625-2.29297l-6.71484 2.0625m6.71484-2.0625l1.73829 1.73438m-2.71485-1.4336l1.73828 1.73438m12.60938-1.83984L327 374.64453m6.82422-1.67187l1.63281 1.82812m-2.625-1.58594l1.63281 1.82813m12.76172-1.51172l-7.0039.55469m7.0039-.55469l1.32031 2.0664m-2.33593-1.98827l1.32031 2.0703m13.02344-1.83593l-7.02735-.07031m7.02735.07031l1.1289 2.17578m-2.15234-2.1875l1.13281 2.17578m13.16797-2.72265l-6.94922 1.04687m6.94922-1.04687l1.46094 1.96875m-2.47266-1.81641l1.46094 1.96875m12.6914-2.80078l-6.60156 2.40625m6.60157-2.40625l1.82421 1.64062m-2.78515-1.28906l.91406.82031m13.38672-1.10546l-6.65234 2.27343m6.65234-2.27344l1.78906 1.67579m-2.75781-1.34375l.89453.83593m13.36719-1.22656l-6.60938 2.39063m6.60938-2.39063l1.82031 1.64844M427.03516 373l-6.83594 1.61719M427.03516 373l1.62109 1.83984m11.77734-1.30078l-7.0039.53906m7.0039-.53906l1.31641 2.07422m11.88281-2.74219l-6.77344 1.875m6.77344-1.875l1.6875 1.77735m11.73438-.48047l-6.98828-.71875m5.97265.61328l.46094 1.13672"/><g clip-path="url(#aj)"><path fill="none" stroke="#000" stroke-linecap="round" stroke-linejoin="round" stroke-miterlimit="10" stroke-width=".5" d="M145.52734 363.65625l-3.05468-6.32813"/></g><g clip-path="url(#ak)"><path fill="none" stroke="#000" stroke-linecap="round" stroke-linejoin="round" stroke-miterlimit="10" stroke-width=".5" d="M145.52734 363.65625l-1.44922 1.98047"/></g><path fill="none" stroke="#000" stroke-linecap="round" stroke-linejoin="round" stroke-miterlimit="10" stroke-width=".5" d="M145.08203 362.73828l-.72266.98828m15.0547-.41406l-4.19923-5.63672m4.19922 5.63672l-1.05078 2.21484m15.6836-4.21484l-6.83204-1.63672m6.83203 1.63672l.6172 2.375M187 362.22656l-6.10938-3.46875M187 362.22656l-.0664 2.45313m-.82032-2.95703l-.03516 1.22656m14.3672-.96875l-6.3672-2.97266m6.3672 2.97266l.125 2.44922m-1.0547-2.88281l.06641 1.22656m14.3789-1.33985l-6.76952-1.8828m6.76953 1.8828l.52734 2.39844m-1.51172-2.67187l.26172 1.19921m14.15625-1.60546l-7.00781-.51954m7.00781.51954L228.38281 363m-2.00781-2.32422l.98828 2.2461m13.3164-2.95313l-6.94921 1.04688m6.94922-1.04688l1.46094 1.97266m-2.47266-1.82032l1.46094 1.97266m12.77343-2.54688l-6.76562 1.89454m6.76562-1.89454l1.69532 1.77344m-2.6797-1.5l1.69532 1.77735m12.66406-1.81641l-6.8828 1.42188m6.8828-1.42188l1.56641 1.89063m-2.57031-1.6836l1.5664 1.89063m12.81641-1.60157l-7.01172.4297m7.01172-.4297l1.28516 2.09375m-2.3047-2.03125l1.28126 2.09375m13.0586-2.08203l-7.01954.28516m7.01953-.28516l1.23828 2.11719m-2.26171-2.07813l1.24218 2.1211M307.25 359.9414l-6.9375 1.10156m6.9375-1.10156l1.47656 1.96093m-2.48437-1.80078l1.47656 1.96094m12.875-1.91016l-6.9961.6797m6.9961-.6797l1.35547 2.04688m-2.375-1.94531l1.35547 2.04296m12.98437-2.05078l-7.00781.4961m7.00781-.4961l1.30469 2.07813m-2.32422-2.00781l1.30469 2.08203m13.03906-1.98438l-7.02344.16016m7.02344-.16016l1.20313 2.14063m-2.22657-2.11719l1.20313 2.14063m13.1211-2.41797l-6.9961.66796m6.9961-.66796l1.35156 2.04687m-2.3711-1.94922l1.35547 2.04688m-2.3711-1.95313l.67579 1.02735m14.61719-1.60547l-6.87891 1.4414m6.8789-1.4414l1.57032 1.88281m-2.57422-1.67188l1.57422 1.88282m-2.57422-1.67578l.78516.9414m14.3203-2.02734l-6.45702 2.77344m6.45703-2.77344l1.91406 1.53515m-2.85156-1.1328l1.91406 1.53906m12.38672-1.82032l-6.55078 2.53516m6.55078-2.53516l1.85547 1.60547m-2.8086-1.23828l1.85547 1.60547m12.54297-1.57813l-6.8086 1.7422m6.8086-1.7422l1.65235 1.81641m-2.64454-1.5625l.82813.90625m13.50781-1.03125l-6.86719 1.48828m6.8672-1.48828l1.58593 1.8711m11.61328-2.28516l-6.63672 2.3125m6.63672-2.3125l1.80078 1.66797m11.45703-1.81641l-6.52343 2.60938m6.52343-2.60938l1.875 1.58594m11.39063-1.70703l-6.42188 2.85156m5.48828-2.4336l.96485.75391"/><g clip-path="url(#al)"><path fill="none" stroke="#000" stroke-linecap="round" stroke-linejoin="round" stroke-miterlimit="10" stroke-width=".5" d="M144.74219 350.61328l-1.48438-6.8711"/></g><g clip-path="url(#am)"><path fill="none" stroke="#000" stroke-linecap="round" stroke-linejoin="round" stroke-miterlimit="10" stroke-width=".5" d="M144.74219 350.61328l-1.875 1.58203"/></g><g clip-path="url(#an)"><path fill="none" stroke="#000" stroke-linecap="round" stroke-linejoin="round" stroke-miterlimit="10" stroke-width=".5" d="M144.52734 349.61328l-.9375.79297"/></g><path fill="none" stroke="#000" stroke-linecap="round" stroke-linejoin="round" stroke-miterlimit="10" stroke-width=".5" d="M159.39844 350.00781l-4.16797-5.65625m4.16797 5.65625l-1.0586 2.21094m15.57422-3.79297l-6.57031-2.4961m6.57031 2.4961l.3086 2.4336m12.61328-1.6875l-5.78516-3.98829m5.78516 3.98829l-.28125 2.4375m13.90234-2.97266l-6.39453-2.91406m6.39453 2.91406l.14844 2.44922m-1.07813-2.875l.07422 1.22656m14.32031-1.1875l-6.6914-2.14453m6.6914 2.14453l.4375 2.41406m-1.41015-2.72656l.21875 1.20703m14.23437-1.9336l-7.02343-.0664m7.02343.0664l1.13282 2.17579m-2.15235-2.1836l1.1289 2.17579m13.19923-2.46094l-7.00781.52344m7.0078-.52344l1.3086 2.07422m-2.32812-2L241 349.0664m13.01563-2.2422l-6.9922.70704m6.9922-.70703l1.36328 2.03906M253 346.92578l1.36328 2.04297m-2.38281-1.9375l.6836 1.01953m14.5625-1.79297l-6.78126 1.83985m6.78125-1.83985l1.67969 1.78906m-2.66797-1.51953l1.67969 1.78907m-2.66406-1.52344l.83984.89453m14.50781-1.17969l-6.89844 1.33985m6.89844-1.33985l1.54297 1.90625m-2.54687-1.71094l1.54297 1.90625m-2.54688-1.71093l.76953.95312m14.58985-1.10156l-6.97266.85938m6.97265-.85938l1.40625 2.00781m-2.42187-1.88281l.70313 1.0039m13.63671-1.0664l-6.99218.73047m6.99218-.73047l1.3672 2.03516m-2.38673-1.92579l.6875 1.01563m13.65625-.97266l-7.01172.42579m7.01172-.42579l1.28125 2.09375m-2.30078-2.03125l1.28125 2.09375m13.05078-2.22265l-7.0039.5586m7.0039-.5586l1.32031 2.07031m-2.33984-1.98828l1.32031 2.07031m13.02344-1.96094l-7.02344.17579m7.02344-.17579l1.20703 2.13672m-2.23047-2.10937l1.20704 2.13672m13.1328-2.19141l-7.02343.23047m7.02344-.23047l1.22265 2.125m-2.24609-2.09375l1.22266 2.1289m-2.2461-2.09374l.61328 1.0625m14.65625-1.81641l-6.83984 1.60547m6.83984-1.60547l1.6172 1.84375m-2.61329-1.60938l1.61719 1.84375m-2.61328-1.60937l.80859.92188m14.39844-1.73438l-6.64063 2.29297m6.64063-2.29297l1.79687 1.67188m-2.76172-1.33985l1.79297 1.67188m-2.76172-1.33594l.89844.83594m14.35156-1.5l-6.64453 2.28515m6.64453-2.28515l1.79297 1.67578m-2.75781-1.34375l1.79297 1.67578m-2.76172-1.34375l.89844.83984m14.4375-1.20312l-6.82031 1.6836m6.8203-1.6836l1.64063 1.82422m-2.63281-1.57813l1.64063 1.82422m-2.63282-1.58203l.82031.91406m14.45704-1.48828l-6.77735 1.85547m6.77735-1.85547l1.68359 1.78516m-2.66797-1.51563l1.6836 1.78516m-2.67188-1.51563l.84375.89453m14.46094-1.36718l-6.8086 1.72656m6.8086-1.72656l1.64844 1.8164m-2.63672-1.5664l.82421.91015m13.28516-1.72656l-6.42187 2.85938m6.42187-2.85938l1.9336 1.50781m-2.8672-1.09375l.96485.7539m13.125-1.48437l-6.10156 3.48829"/><g clip-path="url(#ao)"><path fill="none" stroke="#000" stroke-linecap="round" stroke-linejoin="round" stroke-miterlimit="10" stroke-width=".5" d="M466.61328 345.4336l2.07422 1.3125"/></g><path fill="none" stroke="#000" stroke-linecap="round" stroke-linejoin="round" stroke-miterlimit="10" stroke-width=".5" d="M465.72266 345.9414l1.03906.65626"/><g clip-path="url(#ap)"><path fill="none" stroke="#000" stroke-linecap="round" stroke-linejoin="round" stroke-miterlimit="10" stroke-width=".5" d="M144.04297 337.375l-.08594-7.02344"/></g><g clip-path="url(#aq)"><path fill="none" stroke="#000" stroke-linecap="round" stroke-linejoin="round" stroke-miterlimit="10" stroke-width=".5" d="M144.04297 337.375l-2.15234 1.17969"/></g><g clip-path="url(#ar)"><path fill="none" stroke="#000" stroke-linecap="round" stroke-linejoin="round" stroke-miterlimit="10" stroke-width=".5" d="M144.03125 336.35547l-1.07813.58594"/></g><path fill="none" stroke="#000" stroke-linecap="round" stroke-linejoin="round" stroke-miterlimit="10" stroke-width=".5" d="M159.5625 336.5664l-4.49219-5.40624m4.49219 5.40625l-.9336 2.26953m.27735-3.0586l-.46484 1.13672m15.0664-1.03515l-5.75781-4.03125m5.75781 4.03125l-.29687 2.43359m14.125-3.52734l-6.78125-1.84375m6.78125 1.84375l.54297 2.39062m-1.53125-2.66015l.54687 2.39453m13.8789-2.96485l-7.02734-.16406m7.02735.16406l1.10156 2.1914m-2.125-2.21483l1.10156 2.1914m13.04297-1.09765l-6.64062-2.3047m6.64062 2.3047l.3789 2.42187m-1.34374-2.75781l.3789 2.42187m-1.34375-2.75781l.1875 1.21094m15.1211-.7461l-6.76563-1.89062m6.76563 1.89062l.52734 2.39454m-1.51172-2.66797l.52735 2.39453m-1.51172-2.67188l.26172 1.19922m15.10547-1.03125l-6.9336-1.125m6.9336 1.125l.78906 2.32422m-1.79688-2.48828l.78906 2.32422m13.52344-3.34766l-6.91406 1.25m6.91406-1.25l1.51953 1.92969m-2.52343-1.7461l1.51953 1.92579m12.72656-2.4336l-6.76563 1.89844m6.76563-1.89844l1.69531 1.77344m-2.67969-1.5l1.69532 1.77344m12.59375-2.08985l-6.74219 1.98438m6.74219-1.98438l1.71484 1.75391m-2.69922-1.46484l1.71875 1.7539m12.65625-1.73047l-6.89453 1.35938m6.89453-1.35938l1.54688 1.90235m-2.55078-1.70313l1.55078 1.90235m12.82422-1.69532l-7.00782.54688m7.00782-.54688l1.3164 2.06641m-2.33593-1.98828l.65625 1.03515m13.6875-.83984h-7.02735m7.02735 0l1.15234 2.16797m-2.17578-2.16797l.57812 1.08203m13.75782-.97265l-7.02344-.21875m7.02344.21875l1.08593 2.19921m-2.10547-2.23046l.53907 1.09765m13.79297-.96484l-7.01563-.42188m7.01563.42188l1.01953 2.23047m-2.04297-2.29297l.51172 1.11719m13.82422-1.02344l-7.01172-.48438m7.01172.48438l1 2.24219m-2.01954-2.3125l.5 1.12109m13.70704-2.25781l-6.75782 1.92969m6.75782-1.9297l1.70312 1.76563m-2.6875-1.48437l1.70313 1.76562m-2.6836-1.48437l.85156.88281m14.1172-2.19531l-6.13282 3.42969m6.13281-3.4297l2.0625 1.32813m-2.95312-.82812l1.03125.66406m13.53515-.23047l-6.85547 1.5625m6.85547-1.5625l1.60157 1.85938m-2.60157-1.63282l.80469.9297m13.4336-1.4297l-6.70313 2.10938m6.70312-2.10938l1.75 1.71875m-2.72656-1.41406l.875.86328m13.36719-1.3164l-6.60156 2.40625m6.60156-2.40625l1.82422 1.63671m-2.78516-1.28906l1.82422 1.64063m12.40234-2.11719l-6.5039 2.66406m6.5039-2.66406l1.88672 1.5664m-2.83203-1.17968l1.88672 1.5664m12.26563-2.1914l-6.28516 3.14062m6.28516-3.14062l1.99609 1.42187m-2.91016-.96484l1.9961 1.42188m-2.91407-.96485l1 .71094m13.95704-1.95313l-5.91016 3.79688"/><g clip-path="url(#as)"><path fill="none" stroke="#000" stroke-linecap="round" stroke-linejoin="round" stroke-miterlimit="10" stroke-width=".5" d="M466.51563 331.96484l2.14062 1.19922"/></g><g clip-path="url(#at)"><path fill="none" stroke="#000" stroke-linecap="round" stroke-linejoin="round" stroke-miterlimit="10" stroke-width=".5" d="M465.65625 332.51563l2.14063 1.19921"/></g><g clip-path="url(#au)"><path fill="none" stroke="#000" stroke-linecap="round" stroke-linejoin="round" stroke-miterlimit="10" stroke-width=".5" d="M143.6289 324.04297l.7422-6.98828"/></g><path fill="none" stroke="#000" stroke-linecap="round" stroke-linejoin="round" stroke-miterlimit="10" stroke-width=".5" d="M157.71875 324.03906l-.80469-6.98047m.80469 6.98047l-2.02344 1.39063m15.39453-1.39844l-.91797-6.96484m.91797 6.96484l-1.99609 1.42578m17.20313-2.30078l-4.70313-5.21875m4.01953 4.46094l-.41797 1.15234m15.23047-1.47656l-6.32812-3.05469m6.32812 3.05469l.09375 2.45312m13.36328-2.79296l-6.61328-2.375m6.61328 2.375l.35156 2.42968m-1.3164-2.77344l.17578 1.21485m14.27344-1.55469l-6.95313-1.00781m6.95313 1.00781l.82812 2.3086m-1.83984-2.45313l.82812 2.3086m13.52735-2.45704l-7.01172-.42187m7.01172.42187l1.01953 2.23438m-2.03906-2.29297l1.01953 2.23047m13.25-3.08985l-6.88281 1.41407m6.8828-1.41407l1.56641 1.89063m-2.5664-1.6836l1.5625 1.89063m12.74219-2.14844l-6.85938 1.51563m6.85938-1.51563l1.59375 1.86719m-2.58985-1.64453l1.58985 1.86719m12.78515-1.69922l-6.98828.73437m6.98828-.73437l1.3711 2.03515m-2.38672-1.92578L281 322.32422m12.96484-2.09766l-6.99609.64063m6.9961-.64063l1.34374 2.05469m-2.36328-1.96094l1.34375 2.05469m12.99219-2.14844l-7 .64063m7-.64063l1.34375 2.05469m-2.36328-1.96094l1.34375 2.05469m13.0039-1.8789l-7.02734.10546m7.02735-.10547l1.18359 2.14844m-2.20703-2.13281l1.1875 2.14844m13.13281-2.46485l-6.99219.70703m6.99219-.70703l1.36328 2.03906m-2.3789-1.9375l1.36328 2.03907m12.93359-2.39453l-6.92188 1.21484m6.92188-1.21484l1.50781 1.93359m-2.51562-1.75781l1.50781 1.9336m12.75781-2.3672l-6.8086 1.72657m6.8086-1.72657l1.64844 1.82032m11.5586-2.17188l-6.59376 2.4336m6.59375-2.4336l1.83204 1.63281m10.96484-2.5664l-5.55469 4.30078m5.55469-4.30078l2.23828 1.0039m-3.04688-.3789l1.1172.5039m13.39452-.5039l-6.33203 3.04687m6.33203-3.04687l1.97657 1.45703m8.66796-3.41016l-.98828 6.95703m.84375-5.9453l1.15235-.41798m8.97656.8086l5.67188 4.14843m-4.84766-3.54296l.17578-1.21485m18.65625 2.90235l-7.01172-.4336m5.99219.3711l.50781 1.11718m13.33985-3.07031l-6.03907 3.59766m6.03906-3.59766l2.09766 1.26953m-2.97656-.7461l2.09765 1.26954m11.50391-2.53906l-4.85156 5.08593"/><g clip-path="url(#av)"><path fill="none" stroke="#000" stroke-linecap="round" stroke-linejoin="round" stroke-miterlimit="10" stroke-width=".5" d="M465.98828 318.0039l2.35938.66407"/></g><path fill="none" stroke="#000" stroke-linecap="round" stroke-linejoin="round" stroke-miterlimit="10" stroke-width=".5" d="M465.28125 318.7461l2.36328.66015m-3.07031.07813l1.1836.33203"/><path fill="#ff3030" fill-rule="evenodd" d="M171.45313 458.77344h7.6914V448.625h-7.6914v10.14844"/><path fill="azure" fill-rule="evenodd" d="M173.28516 450.45703h.83593v5.74219h3.19141v.73828h-4.02734v-6.48047"/><path fill="#ff3030" fill-rule="evenodd" d="M171.45313 414.38672h7.6914v-10.14453h-7.6914v10.14453"/><path fill="azure" fill-rule="evenodd" d="M173.28516 406.07422h.83593v5.74219h3.19141v.73828h-4.02734v-6.48047"/><path fill="#ffffe0" fill-rule="evenodd" d="M346.1836 432.19922h22.17968V422.0039H346.1836v10.1953"/><path fill-rule="evenodd" d="M349.6836 423.83984h.5078v6.29297h-.78906v-4.48828h-1.38671v-.55469l.55859-.0664.2539-.05469.23047-.08984.20313-.14063.17187-.21094.14063-.29296.10937-.39454m4.8125 0l.23047.01563.21875.0586.20703.08984.19532.12109.18359.14844.17188.17578.30078.41797.24609.4961.17969.54296.10937.58203.03906.58985-.03906.59375-.10937.58203-.17969.55468-.2461.50391-.30077.42578-.17188.17969-.1836.15625-.1953.1211-.20704.09374-.21875.05469-.23047.01953-.23046-.01953-.21875-.05469-.20704-.09375-.1953-.1211-.1875-.15624-.16798-.17969-.30469-.42578-.24218-.5039-.17969-.5547-.11328-.58202-.03516-.59375h.83203l.02735.5625.08203.5078.1289.44141.16016.375.1914.30079.21094.22265.22266.13672.22656.04688.22657-.04688.22265-.13672.21094-.22265.1914-.30079.16016-.375.125-.4414.08203-.50781.03125-.5625-.03125-.5625-.08203-.5-.125-.4336-.16015-.36719-.19141-.29296-.21094-.21485-.22265-.1289-.22657-.04688-.22656.04688-.22265.1289-.21094.21485-.1914.29296-.16017.3672-.1289.43358-.08203.5-.02735.5625h-.83203l.03516-.58984.11328-.58203.17969-.54297.24219-.4961.30468-.41796.16797-.17578.1875-.14844.19531-.1211.20704-.08984.21875-.0586.23046-.01562m5.08985 0h.51172v6.29297h-.78907v-4.48828h-1.38671v-.55469l.55859-.0664.2539-.05469.22657-.08984.20312-.14063.17578-.21094.14063-.29296.10547-.39454m2.82422 2.17188h.78515l.02344-.3125.0586-.28906.09765-.25.14063-.21875.17968-.17188.22266-.1289.26562-.08204.3086-.02734.23828.02344.22265.0625.20704.10156.17578.13672.15234.17578.11328.20313.07031.23828.02344.26171-.01953.26954-.0664.22656-.10938.1914-.15625.17188-.19922.16016-.25.16796-.63281.38672-.53906.3125-.4375.32032-.34375.32421-.26563.33594-.1914.34766-.125.3711-.06641.39452-.02344.41797h4.21485v-.74219h-3.33204l.08204-.28125.11328-.23828.14843-.19921.1875-.1836.23047-.16797.27735-.17578.71875-.41797.41406-.20703.34765-.23047.28125-.25.21875-.26562.16407-.28125.10937-.28125.0625-.28516.02344-.28125-.04297-.38281-.1211-.34766-.1875-.3086-.25-.26562-.30468-.21093-.34375-.16016-.38281-.09766-.40625-.03125-.4336.03125-.39843.09766-.35547.16797-.30469.23437-.2461.3047-.1875.375-.11718.4453-.03906.51563"/><path fill="#ffffe0" fill-rule="evenodd" d="M248.53906 465.4336h22.17969v-10.19141h-22.17969v10.1914"/><path fill-rule="evenodd" d="M252.03906 457.07422h.50781v6.29687h-.78515v-4.49218h-1.39063v-.5547l.5586-.0625.2539-.05468.23047-.08984.20313-.14063.17187-.21094.14453-.29687.10547-.39453m4.8125 0l.23047.01953.21875.05469.20703.08984.19531.1211.1836.14843.17187.17578.3047.42188.24218.49219.17969.54687.10937.57813.03906.59375-.03906.59375-.10937.58203-.1797.55469-.24218.5-.30469.42968-.17187.17969-.1836.15234-.1953.125-.20704.08985-.21875.0586-.23047.01952-.23047-.01953-.21875-.0586-.20703-.08984-.19531-.125-.1836-.15234-.17187-.17969-.30469-.42969-.24218-.5-.1797-.55468-.10937-.58203-.03906-.59375h.83203l.02735.5625.08203.5039.1289.44531.16016.375.1914.30079.21094.21875.22266.13671.22656.04688.22656-.04688.22266-.13671.21094-.21875.1914-.30079.16016-.375.1289-.4453.07813-.50391.03125-.5625-.03125-.5625-.07812-.5-.1289-.4375-.16017-.36329-.1914-.29296-.21094-.21485-.22265-.13281-.22657-.04297-.22656.04297-.22266.13281-.21093.21485-.19141.29296-.16016.36329-.1289.4375-.08203.5-.02735.5625h-.83203l.03906-.59375.10938-.57813.17969-.54687.24218-.4922.3047-.42187.17187-.17578.18359-.14844.19531-.12109.20703-.08984.21875-.05469.23047-.01953m5.08985 0h.51171v6.29687h-.78906v-4.49218h-1.38672v-.5547l.5586-.0625.2539-.05468.22657-.08984.20703-.14063.17187-.21094.14063-.29687.10547-.39453m2.82421 2.17578h.78907l.01953-.3164.0586-.28516.09765-.2539.14062-.21485.1797-.17188.22655-.1289.26563-.08204.30469-.02734.23828.01953.22656.0625.20313.10156.17968.14063.14844.17188.11328.20703.07031.23437.02344.26563-.01953.26953-.0664.22265-.10938.19141-.15625.17188-.19922.16406-.2461.16406-.63671.39063-.53516.3125-.4375.3164-.34765.32422-.26563.33594-.1875.35156-.125.3711-.07031.39062-.01953.42187h4.21093v-.74218h-3.33203l.08203-.28516.11329-.23438.14843-.20312.1875-.17969.23047-.17187.27735-.17578.71875-.41407.41406-.20703.34765-.23047.28125-.25.21875-.26953.16407-.27734.10937-.28516.0664-.28515.01954-.28125-.04297-.38282-.1211-.34765-.1875-.3086-.25-.26171-.30468-.21094-.34375-.16016-.38281-.09765-.40625-.03516-.4336.03515-.39844.09766-.35546.16406-.3047.23829-.24608.30078-.1875.375-.1172.4453-.03906.51954"/><path fill="#ffffe0" fill-rule="evenodd" d="M168.64844 394.54688h22.17969v-10.19141h-22.1797v10.1914"/><path fill-rule="evenodd" d="M172.14844 386.1875h.50781v6.29688h-.78516v-4.4922h-1.39062v-.55468l.5586-.0625.2539-.05469.23047-.08984.20312-.14063.17188-.21093.14453-.29297.10547-.39844m4.8125 0l.23047.01953.21875.05469.20703.08984.19531.1211.1836.15234.17187.17578.30469.41797.24218.49219.1797.54687.10937.57813.03906.59375-.03906.59375-.10938.58203-.17969.55469-.24218.5-.3047.42968-.17187.1797-.18359.15233-.19531.125-.20703.08985-.21875.0586-.23047.01952-.23047-.01953-.21875-.0586-.20703-.08983-.19531-.125-.1836-.15235-.17187-.17969-.3047-.42968-.24218-.5-.17969-.5547-.10937-.58202-.03906-.59375h.83203l.03125.5625.07812.5039.1289.44532.16017.375.1914.30078.21094.21875.22266.13672.22656.04687.22656-.04687.22266-.13672.21093-.21875.19141-.30078.16016-.375.1289-.44532.08203-.5039.02735-.5625-.02735-.5625-.08203-.5-.1289-.4336-.16016-.36718-.1914-.29297-.21094-.21485-.22266-.1289-.22656-.04688-.22656.04688-.22266.1289-.21094.21485-.1914.29297-.16016.36718-.1289.4336-.07813.5-.03125.5625h-.83203l.03906-.59375.10937-.57813.1797-.54687.24218-.49219.30469-.41797.17187-.17578.1836-.15234.1953-.1211.20704-.08984.21875-.05469.23047-.01953m5.08984 0h.51172v6.29688h-.78906v-4.4922h-1.38672v-.55468l.5586-.0625.2539-.05469.22656-.08984.20703-.14063.17188-.21093.14062-.29297.10547-.39844m2.82422 2.17578h.78906l.01953-.3164.0586-.28516.09765-.2539.14063-.21485.1836-.17188.22265-.1289.26562-.08203.3047-.02735.23827.02344.22656.0625.20313.10156.17969.13672.14844.17188.11328.20703.0703.23437.02735.26563-.02344.26953-.0664.22265-.10938.19532-.15625.16797-.19922.16406-.24609.16406-.63672.39063-.53515.3125-.4375.3164-.34766.32422-.26563.33594-.1875.35156-.125.3711-.0703.39062-.01954.42188h4.21094v-.7422h-3.33203l.08203-.28515.11328-.23437.14844-.20313.1875-.17969.23047-.17187.27734-.17578.71875-.41406.41406-.20704.34766-.23046.28125-.25.21875-.26954.16406-.27734.10938-.28516.0664-.28515.01953-.28125-.04297-.38281-.12109-.34766-.1875-.3086-.25-.26171-.30469-.21094-.34375-.16016-.3789-.09765-.41016-.03516-.4336.03516-.39843.09765-.35547.16797-.30469.23438-.24609.30078-.1875.375-.11328.44531-.04297.51953"/><path fill="#ffffe0" fill-rule="evenodd" d="M341.74219 371.125h22.1836v-10.1914h-22.1836v10.1914"/><path fill-rule="evenodd" d="M345.24219 362.76953h.51172v6.29297h-.78907v-4.48828h-1.38671v-.5586l.55859-.0625.2539-.05468.22657-.08985.20312-.14062.17578-.21094.14063-.29297.10547-.39453m4.8164 0l.22657.01563.21875.05859.21093.08984.19532.1172.18359.15233.17188.17579.30078.41796.24218.4922.1797.54687.11327.58203.03906.58984-.03906.59375-.11328.58203-.17969.5547-.24218.5039-.30079.42578-.17187.17969-.1836.15234-.1953.125-.21094.09375-.21875.05469-.22657.01953-.23046-.01953-.21875-.05469-.20704-.09375-.19921-.125-.1836-.15234-.17187-.1797-.30079-.42577-.24218-.5039-.17969-.5547-.11328-.58203-.03906-.59375h.83593l.02735.5625.08203.50781.125.44141.16406.375.1914.30078.21094.21875.22266.14063.22656.04687.22657-.04687.22265-.14063.21094-.21875.1875-.30078.16406-.375.125-.4414.08203-.50782.03125-.5625-.03125-.5625-.08203-.5-.125-.4336-.16406-.36718-.1875-.29297-.21094-.21484-.22265-.1289-.22657-.04688-.22656.04687-.22265.1289-.21094.21485-.1914.29297-.16407.36719-.125.4336-.08203.5-.02735.5625h-.83593l.03906-.58985.11328-.58203.17969-.54688.24219-.49219.30078-.41796.17187-.17579.1836-.15234.19921-.11719.20704-.08984.21875-.0586.23046-.01562m5.08985 0h.50781v6.29297h-.78516v-4.48828h-1.39062v-.5586l.5625-.0625.25-.05468.23047-.08985.20312-.14062.17578-.21094.14063-.29297.10547-.39453m6.80469 1.61719h-.78907l-.05078-.21094-.08203-.1875-.10547-.15625-.1289-.13281-.14844-.10156-.16016-.07422-.16797-.04688-.17187-.01562-.32813.04297-.28906.11718-.2461.19532-.20312.26953-.16015.33984-.1172.40235-.0703.46875-.02344.52734.1914-.20313.1836-.16015.1875-.1211.1836-.08984.1914-.0625.1914-.03516.39844-.02343.3086.03125.3203.08984.31641.15625.29297.21875.25781.28516.19922.35156.07032.19922.05468.21875.02735.23437.0039.25-.78515.04688-.02735-.25781-.07812-.25-.1211-.23829-.16015-.20703-.19531-.17969-.21875-.13671-.2422-.08594-.2539-.03125-.2539.03125-.2422.08594-.21874.13671-.1914.1797-.16016.20702-.125.23829-.07813.25-.02734.2578.02734.25782.07813.2539.125.23438.16015.20703.1914.17969.21876.13672.24219.08984.2539.03125.2539-.03125.2422-.08984.21875-.13672.1953-.17969.16017-.20703.12109-.23437.07812-.25391.02735-.25781.78515-.04688-.02734.3711-.09375.37109-.15625.35938-.22266.32812-.29296.28125-.16797.1211-.19141.10156-.20313.08203-.22265.0625-.24219.03906-.26172.01172-.28125-.01563-.26172-.04687-.23828-.07813-.21484-.10156-.19531-.13281-.17188-.15625-.15625-.17969-.13281-.20312-.11719-.22266-.10156-.24219-.14453-.53515-.08594-.59375-.02734-.63672.03906-.7461.11328-.66406.1875-.57422.1211-.25781.13671-.23047.15235-.20703.17187-.17969.1836-.15625.20312-.1289.21875-.10157.23047-.07421.25-.04688.26172-.01172.36328.03125.33594.09766.29296.14844.25782.19921.21094.2422.16406.27343.11719.30469.0625.3203"/><path fill="#ffffe0" fill-rule="evenodd" d="M186.40234 344.70313h22.1797v-10.19141h-22.1797v10.1914"/><path fill-rule="evenodd" d="M189.90234 336.34375h.50782v6.29297h-.78516v-4.48828h-1.39063v-.55469l.5586-.0664.2539-.0547.23047-.08593.20313-.14453.17187-.20703.14453-.29688.10547-.39453m4.8125 0l.23047.01953.21875.05469.20703.08984.19532.1211.18359.14843.17188.17579.30468.42187.24219.49219.17969.54687.10937.57813.03906.58984-.03906.59375-.10937.58594-.17969.55469-.24219.5-.30469.42968-.17187.1797-.1836.15233-.1953.125-.20704.08985-.21875.0586-.23047.01952-.23047-.01953-.21875-.0586-.20703-.08983-.1953-.125-.1875-.15235-.16798-.17969-.30469-.42968-.24218-.5-.17969-.5547-.10938-.58593-.03906-.59375h.83203l.02735.5664.08203.50391.1289.44141.16016.375.1914.30078.21095.22266.22265.13672.22656.04687.22657-.04687.22265-.13672.21094-.22266.1914-.30078.16016-.375.1289-.4414.07813-.50391.03125-.5664-.03125-.5586-.07812-.5-.1289-.4375-.16016-.36719-.19141-.28906-.21094-.21485-.22265-.1328-.22657-.04298-.22656.04297-.22266.13281-.21093.21485-.1914.28906-.16017.36719-.1289.4375-.08203.5-.02735.5586h-.83203l.03906-.58985.10938-.57813.17969-.54687.24219-.49219.30468-.42188.16797-.17578.1875-.14843.19531-.1211.20703-.08984.21875-.05469.23047-.01953m5.08985 0h.51172v6.29297h-.78907v-4.48828h-1.38672v-.55469l.5586-.0664.2539-.0547.22657-.08593.20312-.14453.17578-.20703.14063-.29688.10547-.39453m6.80469 1.6211h-.78516l-.05078-.21485-.08203-.1836-.10938-.16015-.1289-.13281-.14844-.10156-.16016-.07422-.16797-.04297-.17187-.01563-.32813.03906-.28515.1211-.2461.19531-.20312.26953-.16406.33594-.11329.40625-.0703.46484-.02345.52735.1875-.20313.1875-.16015.1836-.1211.1875-.08984.1875-.0586.1914-.03906.40235-.02344.30469.03125.3203.09375.31641.15235.29688.22265.2539.28125.19922.35157.07422.19922.05078.21875.03125.23437.00391.2539-.78906.04298-.02735-.25782-.07812-.25-.1211-.23437-.16015-.21094-.1914-.17578-.22266-.13672-.23828-.08984-.25782-.03125-.2539.03125-.23828.08984-.22266.13672-.1914.17578-.16016.21094-.1211.23437-.07812.25-.02735.25782.02735.26171.07812.25.1211.23438.16015.21094.1914.17578.22267.13672.23828.08984.2539.03125.25781-.03125.23829-.08984.22265-.13672.1914-.17578.16017-.21094.12109-.23438.07812-.25.02735-.26171.78906-.04297-.03125.36719-.09375.375-.15625.35546-.22266.32813-.28906.28515-.17187.1172-.1875.10156-.20703.08593-.22266.0586-.24219.03906-.26172.01562-.28125-.01562-.26172-.04688-.23437-.07812-.21875-.10547-.1914-.13281-.17579-.15625-.15625-.17969-.13281-.19922-.11719-.22265-.09766-.2422-.14843-.53515-.08594-.59375-.02734-.64062.03906-.7422.11328-.66405.1875-.57813.1211-.2539.13671-.23438.15235-.20313.17187-.18359.1875-.15625.19922-.1289.21875-.10157.23438-.07422.24609-.04296.26172-.01563.36719.03516.33203.09375.29687.15234.2539.19922.21095.23828.16796.27734.11328.30079.0625.32421"/></g></defs><use xlink:href="#aw"/></svg>