<svg xmlns="http://www.w3.org/2000/svg" role="img" xmlns:xlink="http://www.w3.org/1999/xlink" viewBox="142.45 309.95 326.84 171.84"><defs><clipPath id="a"><path d="M144 404h1v76.32813h-1zm0 0"/></clipPath><clipPath id="b"><path d="M144 311.67188h1V325h-1zm0 0"/></clipPath><clipPath id="c"><path d="M144 311.67188h324v168.65625H144zm0 0"/></clipPath><clipPath id="d"><path d="M467 311.67188h1v168.65625h-1zm0 0"/></clipPath><clipPath id="e"><path d="M144 479h4v1.32813h-4zm0 0"/></clipPath><clipPath id="f"><path d="M146 480h1v.32813h-1zm0 0"/></clipPath><clipPath id="g"><path d="M153 479h9v1.32813h-9zm0 0"/></clipPath><clipPath id="h"><path d="M160 480h2v.32813h-2zm0 0"/></clipPath><clipPath id="i"><path d="M159 480h2v.32813h-2zm0 0"/></clipPath><clipPath id="j"><path d="M166 480h9v.32813h-9zm0 0"/></clipPath><clipPath id="k"><path d="M173 480h3v.32813h-3zm0 0"/></clipPath><clipPath id="l"><path d="M172 480h2v.32813h-2zm0 0"/></clipPath><clipPath id="m"><path d="M180 479h8v1.32813h-8zm0 0"/></clipPath><clipPath id="n"><path d="M187 479h3v1.32813h-3zm0 0"/></clipPath><clipPath id="o"><path d="M186 479h2v1.32813h-2zm0 0"/></clipPath><clipPath id="p"><path d="M193 479h8v1.32813h-8zm0 0"/></clipPath><clipPath id="q"><path d="M200 479h3v1.32813h-3zm0 0"/></clipPath><clipPath id="r"><path d="M199 479h2v1.32813h-2zm0 0"/></clipPath><clipPath id="s"><path d="M206 479h9v1.32813h-9zm0 0"/></clipPath><clipPath id="t"><path d="M213 479h3v1.32813h-3zm0 0"/></clipPath><clipPath id="u"><path d="M212 479h3v1.32813h-3zm0 0"/></clipPath><clipPath id="v"><path d="M220 478h8v2.32813h-8zm0 0"/></clipPath><clipPath id="w"><path d="M226 478h4v2.32813h-4zm0 0"/></clipPath><clipPath id="x"><path d="M225 479h3v1.32813h-3zm0 0"/></clipPath><clipPath id="y"><path d="M233 478h8v2.32813h-8zm0 0"/></clipPath><clipPath id="z"><path d="M240 478h3v2.32813h-3zm0 0"/></clipPath><clipPath id="A"><path d="M247 478h7v2.32813h-7zm0 0"/></clipPath><clipPath id="B"><path d="M253 478h3v2.32813h-3zm0 0"/></clipPath><clipPath id="C"><path d="M260 478h8v2.32813h-8zm0 0"/></clipPath><clipPath id="D"><path d="M266 478h4v2.32813h-4zm0 0"/></clipPath><clipPath id="E"><path d="M273 478h8v2.32813h-8zm0 0"/></clipPath><clipPath id="F"><path d="M280 478h3v2.32813h-3zm0 0"/></clipPath><clipPath id="G"><path d="M287 477h7v3.32813h-7zm0 0"/></clipPath><clipPath id="H"><path d="M300 477h7v3.32813h-7zm0 0"/></clipPath><clipPath id="I"><path d="M314 477h6v3.32813h-6zm0 0"/></clipPath><clipPath id="J"><path d="M328 477h5v3.32813h-5zm0 0"/></clipPath><clipPath id="K"><path d="M341 476h5v4.32813h-5zm0 0"/></clipPath><clipPath id="L"><path d="M355 476h4v4.32813h-4zm0 0"/></clipPath><clipPath id="M"><path d="M369 476h2v4.32813h-2zm0 0"/></clipPath><clipPath id="N"><path d="M382 476h3v4.32813h-3zm0 0"/></clipPath><clipPath id="O"><path d="M395 476h4v4.32813h-4zm0 0"/></clipPath><clipPath id="P"><path d="M408 476h4v4.32813h-4zm0 0"/></clipPath><clipPath id="Q"><path d="M421 476h5v4.32813h-5zm0 0"/></clipPath><clipPath id="R"><path d="M435 476h4v4.32813h-4zm0 0"/></clipPath><clipPath id="S"><path d="M448 476h4v4.32813h-4zm0 0"/></clipPath><clipPath id="T"><path d="M461 477h5v3.32813h-5zm0 0"/></clipPath><clipPath id="U"><path d="M144 466h4v2h-4zm0 0"/></clipPath><clipPath id="V"><path d="M144 453h4v2h-4zm0 0"/></clipPath><clipPath id="W"><path d="M144 438h4v4h-4zm0 0"/></clipPath><clipPath id="X"><path d="M144 425h4v4h-4zm0 0"/></clipPath><clipPath id="Y"><path d="M466 425h2v3h-2zm0 0"/></clipPath><clipPath id="Z"><path d="M144 411h4v6h-4zm0 0"/></clipPath><clipPath id="aa"><path d="M466 412h2v3h-2zm0 0"/></clipPath><clipPath id="ab"><path d="M144 398h4v4h-4zm0 0"/></clipPath><clipPath id="ac"><path d="M466 399h2v3h-2zm0 0"/></clipPath><clipPath id="ad"><path d="M144 386h4v3h-4zm0 0"/></clipPath><clipPath id="ae"><path d="M466 387h2v4h-2zm0 0"/></clipPath><clipPath id="af"><path d="M144 370h2v8h-2zm0 0"/></clipPath><clipPath id="ag"><path d="M144 376h2v4h-2zm0 0"/></clipPath><clipPath id="ah"><path d="M144 357h2v7h-2zm0 0"/></clipPath><clipPath id="ai"><path d="M144 344h3v6h-3zm0 0"/></clipPath><clipPath id="aj"><path d="M466 346h2v3h-2zm0 0"/></clipPath><clipPath id="ak"><path d="M144 330h1v8h-1zm0 0"/></clipPath><clipPath id="al"><path d="M466 332h2v3h-2zm0 0"/></clipPath><clipPath id="am"><path d="M144 316h2v9h-2zm0 0"/></clipPath><clipPath id="an"><path d="M466 318h2v2h-2zm0 0"/></clipPath><clipPath id="ao"><path d="M465 318h3v3h-3zm0 0"/></clipPath><clipPath id="ap"><path d="M290 470h10v10.32813h-10zm0 0"/></clipPath><g id="aq" clip-path="url(#clip1)"><path fill="#fff" fill-opacity="0" fill-rule="evenodd" d="M0 0h1000v1000H0zm0 0"/><path fill="#d3d3d3" fill-opacity="0" fill-rule="evenodd" d="M162.15234 355.86719l-.23437.29297.0586.23437.11718.17188.17578.23437.29297.34766.11328.0586.11719-.17188.0586-.23438.17577-.17578.46485-.17578h.69922l.23437.29297.28906.8164.0586.17579.17578.23046.35156.23438.69922.69922.17188.17578.23437.34765.23438.41016.28906.58203.41015.46485.23047.23437.23438.17578.11719.23047.17578.29297.17187 1.16406v.23438l.0586.28906.05859.11719.11719.11719.34765.41015.11719.17188.17578.17578.17578.23437.11719.17188.17188.35156.05859.23438.23437.40625.23438-.0586-.17578.17578-.0586.92969h-.58203l-.23437-.11328-.34766.11328-.11719.11719-.05859.29297-.0586.17578-.11718.17187-.46484.29297-.0586.23438-.0586.11328v.64453l.0586.17187v.41016l.0586.0586v.40624l.05859.40625.11719.17579.05859.05859.23047.64062-.0586.29297v.69922l-.05859.58203v.23438l-.0586.23047-.05468.35156v1.92187l.05469.1172h.42578l-.36719.11718-.02344.35156.89063 1.16797 1.74219.53906 1.33984.35938v.53906l.08984.8086.53516.71484 1.51953.26953.89063-.08594.08984 1.16406.53516.1797 1.16015-.1797 2.05469-.98437 1.16016-.36328 1.8789-.17578 1.69531-.1797-.17968.71876-1.51563.08594-1.25.08984-.80469.26953-1.07421.8086.26953.71875.53515.89843-.17968.625-.26563.8086.26563 1.07812.625.89844.80468.17969 1.25-.1797-.26562.72267.09766.5039.05468.29297v.17188l.0586.29296v.40625l.17578.1172.35156.11718h.40625l.29297-.17578.11328-.11719.0586-.11719.11718-.23047.0586-.17578.35156-.46484.23047-.17578.17578-.0586.17578.0586.0586.17578.11718.98828.05469.46875.0586.17188.11718.23437.17578.0586.8164.05859h.28907l.11719.23437.05859.40625.0586.35156v1.10547l.11718.29297.11719.34766.28906.69922.17578.35156.58203.7539.35157.17579.17187.0586.46875.23437.64063.46484.34765.23438.29297.17578.29297.05468.23047.0625.8164.34766.29297.17578.11328.17188.35157.35156.11719.17578.52343.64063v.28906l.0586.35156v.34766l.05859.35156.0586.28906.11718.0586.17188.05859h.17578l.58203.23437.17578.1172.17578.28905.17578.23438.11328.23437.29297.23047.11719.11719v.41016l.0586.05468.28906.23438.23437.11719.0586.11718.11718.17188.0586.11719.23047.23437.05859.17578.23437.0586.1172.05859-.1172.11328-.05859.11719v.11719l-.11719.29296-.11719.28907v.58203l.17579.11719.11718.05859.0586.11719.11719.11719.11328.05859.17578.34765.0586.35157.05858.40625v.17578l-.05859.17578-.11719.69922v.17187l.1172.17579.29296.29296h.40625l.17578.1172.11719.17187.11719.29296v.23438h-.52735l-.23047-.23438h-.23437l-.17578.0586-.0586.69922.0586.34765.11719.17579.17578.41015.11718.23047.28907.46875.17578.05469h.52344l.23437.0586.75781.64062.0586.29296v.23438l.05859.0586.23047.34765v.35156l-.11719.17188v.29297l.29297.28906.29297.17578.17187.0586.29297.17577.29297.1172.58203.40624.28906.23438.29297.17578.21875.16015.01563.01172.23047.17579.64062.52343.17578.23438.1172.17578.17577.17578.11328.17188v.64062l.1172.17578.46874.11719.58203.11719.23438.05859.23047.11328.29297.11719.11328.0586.58593.35156.28907.17187.17578.0625.17578.05469.17578.0586.69922.35155.28906.17579.23438.05468.28906.17578.23437.1172.64063.40624.29297.11719.17187.0586.23438.05859.41015.05859.23047.0586.23438.11718.0586.17188-.41017.17578.46875.0586.0586.29296.11328.23438.17578.05468.23438.0586.17578.05859.40625.11719.64062.23437.11719.17188.0586.23437v.17578l-.0586.1172-.0586.40624.23438.23438.11719.05859.34766.11719.64062.23047.17578.11718.28906.1172.17578.17577.23438.46485.58203 1.10546.17578.17579.34766.17578.17578.11719.35156.11718 1.04688.52344.23437.0586.46485.11327.29297.0586.46484.17578.75781.58203.23438.23438.34765.46484.17578.17578.28907.23438.8164.69921.29297.17579.28906.28906.29297.17578.29297.28906.69531.64063.17578.17578.29297.23437.28907.23438.46875.28906.64062.58203.34766.23438.23437.29297.34766.34765.35156.46485.9336.99218.34765.40625.11719.17579.23437.05859.11328.11719.64454.17578.23047.11328.23437.0586.29297.17577.23047.1172.9336.69921.40624.40625.23438.17578.40625.17578.23437.11719.8164.34766.34766.23437.23438.11719.29297.28906.23047.11719.7578.35156.35157.17188.23047.05859.29297.11719.23437.0586.8711.17577h.8164l.46875.23047.17188.0586.875.69921.46484.1172.29297.05858.17578.0586.23047.0586.46875.05859.34766.05859.35156.0586.40625.05859h.29297l.17187.0586v.23046l.17578.17578h.29297l.34766.0586.35156.05859.69922.11719h.64063l.46484-.23438.29297-.17578.17187-.11719.41016-.17187.28906-.17578.9336-.46485.46875-.29297.52343-.29296.46485-.17188.46484-.17578 1.05078-.46485.28906-.11718.41016-.11719.28906-.11719.52735-.17578 1.51562-.69922.58203-.34765.28907-.0586.29297-.0586.34765-.11718.875-.23047.35156-.11719h.11329l.23437-.05859.875-.23437.23438-.0586h.8125l.35156-.0586.8164-.11718.17188-.0586.35156-.05468.29297-.0586.23047-.05859.8164-.17578.17579-.0586h.34765l.23438-.05859.46484-.11718.75781-.17188.23438-.0586h.34765l.41016-.11718.28906-.0586 1.28516-.05859h.28906l.41016-.0586.23047-.05858h.17578l.875-.1172h.40625l.41015-.11718h.34766l.35156-.11328.8711-.0586h1.75l1.04687.28907.41016.11719.28906.11718.35156.11719.28907.11719 1.05078.17187.28906.0586h.29297l.29297.05859.17187.0586.41016.05859.17187.0586.1172.05858h.11718l.11719.0586.35156.0586h.11328l.41016.0664 1.92187.39453 1.92578.39453 1.51953.44922 1.69532.71875 2.14453.80469 1.60547-.71875 1.42968-.80469 1.16016-1.07813 1.25-.44921 3.03516-.71875 1.875-.35938 2.14453-1.34765 2.23437-1.25391 2.5-1.25781 1.69531-.44922 1.78516-.17969 1.16016-.26953.625.53906 1.33984-.26953.71485-.98828.98437-1.34375.44531-.17969.80469-.35937 1.875-.53907 1.78516-.44921 1.25-.26954 1.16015-.08984 1.69922-.08984 1.96094-.26954 1.25-.08984h.53906l.625-.08984h.89063l2.14453-.17969 2.41015-.17969 2.58985-.08984 1.69531.17969 1.60938.08984 1.42968.35938 1.16016.71875 1.875.98828 1.16015 1.52734.26563.71484.6289.08985.35548.89844.53515.53906.53516 1.52734 1.07422.35938h.53515l-.80469.53515.08985 1.70703.71484 2.69532.89063.80468.89453.98829.71484 1.2578 1.78516.53907 1.51953-.17969.35547 1.34375 1.60937-.80469.98047-.53906.26953.26953.31641-.21484.21875-.14453.80078.44922.44922-.35938h.35547l.53515-.26953.53907-.71875.53515-.26953.625-.98828 1.16016.44922.83984.3711 1.39454.61718 1.6953-.17969h1.60548l1.78515.08985.17969-1.70704.53516-1.34375.80468.26954.4922.84765.40233.40625-.08984.53906v.35938l.71485.44922.71093-.26953h1.42969l.35938.98828.4453 1.25781.71485 1.34375 1.25.6289 1.69531.62891.71485-.17969.17969-.53906.98046-.08984.44922.35937.08594 1.25782-.26563.6289-.53515.17969v.53906l.71484.98438.26563.53906.98437.98828.80078 1.07813-.26562.35937-.08985.89844-.625 2.33203-.35546 2.0664-.08985 1.79298-.17969.71875-.08984.53906v1.4375l-.98047 1.88281-.35937 1.70703-.53516.89844-.80469 1.16797-.26562.53906 2.05469 1.2539.08593.35938-.35546.53906-.08985-.17968v.80859l.08985 1.4375-.44532.71484-1.07422.09375-.26562.71485.53515.89844.8047.71875 1.16015.80859 1.33984.26953.44531.35938-.35546.44921-1.78907-.08984-1.25-.44922-.71484-.71875-.625-.08984-.17578 3.58984-.1875 1.3086h89.35937V311.70313h-55.26953v49.08203l.76172.125 3.28906.54296 2.02344 2.83594v2.7539l2.35156.33204 2.34766.33203h4.05078l-1.3789 4.16016-2.02344.70703-2.02344.70312-.54297.34375-2.59375 1.6172-.1875.11718-2.02344-2.07813-.73046-2.74218-2.67188-2.07813-1.375-3.5-.0664-.08203-1.95704-2.67188 2.75-1.41796v-49.08204H294.42187v91.41407l.1172.03125.1328.01172.07422.07421.10547.04688.08985.0586.08593.05859.08985.0586.29687.29687.0586.08984.03125.11719.02734.11719.01563.13671-.03125.1172-.0586.08983-.0586.08594-.04296.10547-.04688.10156-.02734.1211v.14453l.17578.26953.14844.14844.07422.08594.07422.07421.04296.10547.0625.08985.0586.08593.04297.10547.0586.08985.04687.10156.04296.10547.0586.08594.11719.17968.07421.07422.0625.08594.0586.08984.04297.10547.0586.08985.05858.08593.0625.08985.0586.08984.04297.10156.11719.17969.07421.07422.0586.08594.07422.07421.08984.0586.10547.04687h.14844l.1328-.01562.13282.01562.10156-.04687.07422-.07422.04688-.10156-.01563-.13281v-.14844l-.04687-.10547-.02735-.11719-.04687-.10156-.02735-.1211-.04296-.10156-.0625-.08984-.04297-.10156-.04297-.10547-.03125-.11719-.01563-.13281-.01171-.13672.08593-.0586.0586-.08593.12109-.03125.04297.10547.01562.1328v.1172l.0586.10156.0586.08984.08983.0586.14844.14843.0586.08985.04296.10547-.01171.10156.08593.0586.10547.04687.08594.0586.08984.05858.07422.07422-.11719.02735-.10546.04687-.08594.0586-.07422.07421-.0586.08985-.0625.08594-.02734.12109-.04687.10156-.04297.10547-.03125.11719-.01172.13281-.01563.13281v.14844l.02735.11719.04687.10547.04297.10156.0586.08984.07421.07422.08985.0586.07422.07421.08984.0586.0586.08984.04296.10547.04688.10156.11719.03125.1328.01563h.14845l.11718-.03125.10547.04297.04297.10547.04688.10156.02734.1211L299.5 410l.02734.11719.03125.1211.02735.11718.10547.04297.10156.04687.13281-.01562.14844.14844.0625.08593.07422.07422.07031.07422.08984.0625.10547.04297.10156.04297.1172.03125.13671.01562.11719-.03125.07422-.07422.02734-.11718-.01172-.13282-.03125-.12109-.02734-.11719.04297-.10547h.11719l.08984.0625.11719.02735h.14843l.13282.01562h.14843l.13282.01563.1328-.01563h.14845l.1328-.01562.13282-.01172.13672.01172.11719-.02735.13281-.01562.1914-.0586-.05859.17579-.01562.1328-.02735.1211-.01562.13281-.0586.08594-.1328.01563-.10548.04687-.10546.04297-.1172.03125-.11718.02735-.26563.03125h-.14843l-.13281.01562-.07422.07422.05859.08594.14844.14843.11719.1797.07421.0703.08985.0625.08984.0586.08594.0586.08984.05858.10156.04297.10547.0625.10547.04297.08594.0586.10547.04687.10156.04297.17969.11719.0586.08984-.04298.10156-.04687.10547.01562.13281.22266.22266.0586.08985.04296.10156.03125.1211.04297.10155.01563.13282.03125.11718.01171.13672.03125.11719.14844.14844.10156.04297.10547.04296.1172.03125.1328.01563.13672.01563h.11719l.11719-.03125.08984-.0586.04297-.10547.04688-.10156.04296-.10547.03125-.11719.01172-.1328v-.14845l-.01172-.1328-.01562-.13282-.03125-.11719-.04297-.10547-.04688-.10547-.04296-.10156-.04297-.10547-.01563-.13281.01563-.13281.02734-.11719.03125-.11719.02735-.1211.04687-.10155.08984-.0586.08594-.0625.07422-.07422.08984-.05859.22266-.22266.0586-.08593.07421-.07422.11719-.17969.0586-.08594v-.14844l-.07423-.07421-.10156-.04688-.10547-.04297-.10156-.04297-.0586-.08984-.04687-.10547-.02734-.11719.08984-.05859.11719-.03125.10156-.04297.17969-.11719.14844-.14843.01172-.13282-.01172-.10546-.08985-.0586-.1328.01563h-.14845l-.1328.01562-.13282-.01562-.1211-.03125-.08593-.0586-.07422-.07422-.0586-.08984-.0625-.08594-.11718-.17969-.0586-.08593.03125-.1211.08594-.05859.1211-.03125.05859-.08594v-.1211l-.03125-.11718-.0586-.08984-.05859-.08594-.04687-.10547-.02735-.11719-.01562-.1328.0586-.08985.07421-.07422.08984-.0586.1172-.17968.07421-.07422.0586-.08594.14843-.14844.1211-.03125.1328-.01562.13282.01562.07422.07422.04297.10547.01562.13281-.03125.1172-.11719.03124-.1328.01172-.14844.14844-.04297.10547-.04688.10156-.02734.1211-.03125.11718v.14844l.03125.11719.04297.10546.05859.08985.07422.07031.07422.07422.11719.03125.12109.02734.11719-.02734.1328-.01563h.1172l.08984.0586.07422.07422.04687.10546.0586.08594.10156.04688.13281.01562.10547.04297.08594.0586-.01172.10546-.07422.07422-.17969.11719-.05859.08984-.08984.0586-.07032.07422-.07421.07421-.0625.08985-.02735.11719-.01562.1328.01562.13282-.01562.13281v.14844l.01562.13281.02735.1172.03125.12108.07421.07422.08985.0586.08594.0586.08984.05858.11719.03125v.08594l-.10157.04688-.08984.0586-.26563.03124-.11718.02735h-.14844l-.10547.04296-.10156.04688-.0586.08984-.0625.23438-.01171.13281-.03125.1211-.01563.1328v.29298l-.01172.1328.01172.13673.01563.1328.1328.01563.13282.01172.1211.03125.08593.0586.07422.07421.04688.10547.04296.10157.01563.1328v.44532l-.01563.13281v.44532l.03125.26562.02735.11719.01562.13281.03125.11719.08594.21094.03125.26562v.14844l-.03125.11719-.02734.11718-.03125.1211-.02735.11719-.03125.11718-.03125.1211-.01171.1328-.01563.13282.08984.0586.1172-.03125.10155.01562.04688.10547-.03125.26562v.44141l-.04297.10547-.04688.10547-.04296.10156-.04297.10547-.0586.08594-.03125.12109-.04296.11719-.03125.11719-.01563.1328.01563.13282.05859.08984.10547.04688.08594.0586.05859.08593-.01172.13672-.03125.11719-.04297.10156v.44531l-.01562.13281v.14844l-.03125.11719-.04297.10547-.02735.11719-.04687.10546-.04297.10157-.03125.12109-.02734.11719-.03125.13281-.03125.11719-.02735.11719-.04297.10546-.03125.1172-.03125.12108-.01171.13282-.01563.13281v.29688l.02734.11718v.14844l.04688.39844.02734.11719.0586.08984.12109.03125h.14844l.13281-.01563.0586.08985v.11719l-.0586.08984-.08984.0586-.10157.04296-.10546.04688-.08985.05859-.08594.0586-.13671.01562-.1172-.03125-.1328-.01563-.10157.04688-.0625.08594-.01172.13671-.01562.13282-.03125.11719-.02735.11718-.01562.13281-.03125.1211v.29687l.01563.13282.03125.11718v.14844l.01171.13281v.14844l-.02734.11719-.04688.10156-.02734.1211-.03125.11718-.0586.08985-.07421.07421-.10156.04297-.10547.04688-.11719.02734-.1211.03125-.10156-.04687.0586-.08594.10547-.04688.02734-.11718.03125-.11719.02734-.1211.03125-.11718v-.14844l.01563-.13281-.03125-.11719-.04297-.10547-.10547.01563-.07422.07422-.10156.04296-.08984.0625-.07422.07422-.04297.10157-.01563.1328-.03125.1172L304.25 426l-.03125.11719-.02734.11719-.03125.12109-.02735.11719-.03125.11718-.04297.10547-.08984.0586h-.08984l-.1172-.03125-.03124-.08594.01562-.13672-.03125-.11719v-.14844l-.01171-.1328v-.14844l-.0625-.23438-.02735-.1211-.04297-.10156-.04687-.10546-.0586-.08594-.05859-.08985-.04297-.10546-.0625-.08594-.14844-.14844-.0703-.07422-.10548-.04687-.10547-.04297-.10156-.04297-.29687-.29688-.08985-.07421-.08594-.0586-.10546-.04297-.08985-.0625-.08594-.0586-.10546-.04296-.08985-.0586-.08594-.0625-.07421-.0703-.10547-.04688-.08594-.0586-.10547-.04296-.08984-.0625-.10156-.04297-.10547-.04297-.08594-.0586-.10547-.04687-.10547-.04297-.10156-.04687-.08985-.0586-.10156-.04297-.10547-.04296-.08984-.0625-.11719-.02735-.13281-.01562-.13281.01562H299.75l-.13281.01563-.11719-.03125-.08984-.0586-.07422-.07422-.08985-.05859-.10156-.04688h-.14844l-.12109-.02734-.10156-.04297-.07422-.07422-.11719-.17968-.08984-.0586-.10156-.04297-.08985-.0625-.10547-.04296-.08984-.0586-.08594-.0586-.10547-.04687-.0586-.08594-.05858-.08984-.04297-.10547-.04688-.10156-.07422-.07422-.08594-.0586-.07421-.07421-.08985-.0586-.22265-.22265-.04297-.10547-.03125-.26563.10547-.04296h.14453l.10547.04296.07421.07422.08985.0586.08594.0586.10546.04687.08985.05859.14844.14844.0703.07422.14845.14843.0625.08594.07421.07422.08594.0586.07422.07421.08985.0625.08984.0586.08594.05859.26953.17578.10156.04688.10547.04296.10156.04297.04688-.07421.05859-.08594.07422-.07422.07031-.07422.10547.04297.07422.07422.0586.08984.04296.10156.04688.10547.04296.10547.1211.02735.11719-.02735.07421-.08984.04297-.10547.0586-.08985.07422-.07421.10546-.04297.1172-.02735.1328.01172.08985.0586.14844.14843.05859.08985.04297.10547.04687.10156.04297.10547.04297.10156.10547.04688.10547.04296.13281.01563.08594-.0586.0586-.08984.07421-.07422.10547-.04297.11719.02735.10547.04687.10156.04297.10547.04297.10156.04688.17969.11718v.11719l-.01563.13281.01563.13281.01562.13672.0586.08594.10156.04688.1211.02734.11718.03125h.14844l.11719-.03125.05859-.08984.17969-.1172.05859-.08983.07422-.07422.0586-.08594.11718-.17969.17969-.11719.11719.03125.08984.0586.04297.07422-.01563.1328v.1172l.08985.05859h.14843l.13282-.01563.1328-.01171.26563-.03125.10547-.04297.11719-.03125.1211-.02735.07421-.07421.07031-.07422.0625-.08985-.01562-.10547-.04688-.10156-.10156-.04297-.10547-.01562-.11718.02734-.26563.03125h-.14844l-.07421-.07422-.08985-.0586-.11719-.03124-.11718-.02735-.13282-.01562h-.14843l-.13282.01563h-.29687l-.10547-.04688-.14844-.14844-.04297-.10156-.05859-.08984.22266-.22266.08593-.0586.10547-.04296.11719-.03125.13281-.01563.13281.01563.13672.01562.10157.04297.1328-.01172.08985-.0625.10156-.04297.0625-.08984-.04687-.10156-.08984-.0586-.1172-.03125-.10155-.04296-.0586-.08985-.0625-.08984v-.11719l.01563-.13281.10547-.04688.07421-.07031v-.1211l-.08984-.05859-.03125-.11719.08985-.05859.07421-.07422.04297-.10547.0586-.08984.04687-.10156.01563-.13281v-.14844l-.04688-.10547-.04297-.10156-.08984-.0586-.13281-.01562-.10157-.04297-.13671-.01563-.1172-.03125h-.4453l-.13282-.01562-.13281-.01172-.13281-.01563-.11719-.03125h-.14844l-.13281-.01562-.13281-.01172-.26563-.03125-.1211-.04297-.08593-.0586-.07422-.07421v-.14844l.01172-.13281.10547-.04688.10156-.04296.13281-.01563h.15235l.13281-.01562h.29297l.1211.03125.10156.04296.08984.0586.23438.0625.12109-.04688.08984-.05859.10156-.04297.13282-.01562.10547.04296.10156.04688.13281.01172.1211-.02735h.14453l.12109-.03125.11719-.02734.10547-.04687.07421-.07422.08594-.0586.14844-.14843.0586-.08594.04687-.10547.02734-.11719.01563-.10547-.10156-.04296-.08985-.0586-.11719-.03125-.10546-.04297-.08985-.0625-.07422-.08594-.07422-.07421-.10156-.04297-.10547-.04688-.10156-.04297-.0586-.08984-.04687-.10156-.08594-.21094-.0625-.08594-.05859-.08984-.07422-.07422-.08594-.0586h-.26953l-.11719.03126-.08984.05859-.10156.04297-.13281.01562-.10547-.01562-.02735-.11719-.0625-.08984-.11718-.03125-.10157-.04297-.14843-.14844-.03125-.11719-.01563-.10546.07422-.07422.17969-.1172.11719-.02733.11718-.03125.13672.01562.10156.04297.10547.04297.10156.04687.10547.04297.1172.03125.1328.01563.1172.02734.1328.01563.10547-.01563.08985-.0586-.07422-.07421-.10547-.04297-.07422-.07422-.07422-.08984-.14844-.14844-.08593-.0586-.08985-.05859-.07422-.07422-.08984-.0586-.10156-.04687-.1211-.02734-.10156-.04688-.10547-.04296-.11719-.03125-.10156-.04297-.1211-.03125h-.14843l-.11719.03125-.10546.04297-.08594.0625-.17969.11718-.08594.0586-.08984.0586-.10547.04687-.08594.05859-.10547.04297-.10156.04297-.10547.04687-.07422.07422-.05859.08985-.0586.08593-.04687.10547-.0586.08594-.07421.07422-.13281-.01172-.1172-.03125h-.11718l-.07422.07422-.08984.0586-.07422.07421-.08984.0586-.08594.05859-.10547.04687-.10156.04297-.13672.01563-.10156-.04297-.14844-.14844-.10547-.04688h-.08594l-.10547.04688-.10156.04297-.1211.03125-.11718-.03125-.07422-.07422v-.11719l.03125-.1211.07422-.0703.0586-.08985.07421-.07422.11719-.03125.10547-.04296h.29297l.13281-.01563.13672-.01563.10156-.04296.08985-.0586.10156-.04687.08984-.0586.13281-.01171.08985.05859.13281.01172.08984-.0586.08594-.05859.10547-.04297.08984-.0586.08594-.0625.08985-.05859.14843-.14843.0586-.08594.05859-.08985.10547-.04296.13281-.01563.11719.02735.1211.03125.05859-.0586.05859-.08984.03125-.26563.02734-.11719.10547.01172.13281.01563.10157-.04297.08984-.0586.0586-.08984.07421-.07422.0586-.08984.04687-.10156.01172-.13281-.01172-.13282-.04687-.10547-.14844-.14843-.0586-.08985-.05859-.08594-.04297-.10546v-.44532l.01563-.1328v-.14845l.01172-.1328-.0586-.0586-.08984.0586-.10156-.04298-.17969-.11719-.08594-.05859-.0625-.08984-.0586-.08985-.07421-.07421-.08594-.0586-.1211.03125-.10155.01172-.10547.04688-.08594.05859-.10547.04297-.14844.14844-.08984.05859-.08594.0586-.08984.0625-.10547.04296-.13281.01563v-.1211l.10547-.04297.11718-.03125.07422-.0703.04297-.10548v-.14844l-.02734-.11718-.14844-.14844-.13281-.01563h-.14844l-.11719.03125-.10547.04297-.10156.04297-.08984.0625-.11719.02735-.07422-.07422.01172-.13281-.04297-.10157-.04297-.10547-.08984-.05859-.11719.02734-.1211.03125-.11718.03125-.10156.04297-.1211.03125-.10156.04297-.10547.04297-.08984.0586-.10156.01562v-.11719l.01562-.13281-.0586-.08985-.07421.04297-.14844.14844-.0586.08985-.07421.07421-.04688.10547-.04296.10156-.07422.07422-.0586.08985-.07422.07422-.05859.08593-.07422.07422-.08984.0625-.07422.07031-.07422.07422-.10156.01563-.13281.01562-.10547-.04296v-.1211l.14843-.14844.04297-.10156.0586-.08984.04687-.10156.04297-.10547.0586-.08985.03124-.11719.04297-.10156.03125-.1211.02735-.11718.04687-.10547.04297-.10156.04297-.10547.07422-.07031.08984-.0625.08985-.0586.10156-.04296h.29687l.26563-.03125.10547-.04297-.07422-.07422-.11719-.03125-.10547-.04297-.08984-.0586-.10156-.04687-.08985-.0586-.10156-.04296-.10547-.04297-.08984-.0625-.08594-.0586-.10547-.04296-.10156-.04297-.1211-.03125-.11718-.03125-.10157-.04297L297.5 410.25l-.10156-.04297-.08985-.0586-.04296-.10546-.01563-.13281.10156-.04297.13281-.01563.13672.01563.13282-.01563.10156-.04297.0586-.08984.01562-.10547-.08985-.0586-.07421-.07421-.10157-.04297-.08984-.0586-.14844-.14843-.04297-.10547-.01562-.13281v-.29297l-.0586-.08985-.08984-.05859-.07422-.07422-.04297-.10547-.03125-.11718-.0586-.08985-.07421-.07422-.11719-.02734-.07422-.07422-.08984-.0586-.08984-.0625-.08594-.05859-.07422-.07421-.0586-.08594-.04687-.10547-.08594-.0586-.14843-.14843-.19532-.0586-.1328.01563-.10157.04297-.07422.07422-.04688.10156-.04296.10547-.0586.08984-.0586.08594-.29687.29687-.08984.0586h-.08594l-.0625-.08594-.04297-.10547.03125-.11719.0586-.08984.02734-.11719-.01172-.13281-.08984-.0625-.10547.04688-.11719.02734-.11719.03125-.26953.17578-.10156.04688-.11719.02734-.10546.04687-.08985.0586-.10156.04297-.0586-.08594-.04687-.10547.01563-.13281.04687-.10547.07031-.07422.07422-.07031.0586-.08985v-.14843l-.04297-.10547h-.23829l-.10156.04687-.03125.11719-.02734.11719-.03125.1211-.07422.04296-.13281.01563-.07422-.04688-.04297-.10156-.04297-.10547-.04687-.10156-.04297-.10547-.1211.03125-.10156.04297-.13281.01562-.11719.03125-.10547.04297-.08984.0586-.10156.04687-.1211.02734-.13281.01563-.10156-.04297-.0586-.08985-.04687-.10546-.04297-.10157-.04297-.10546v-.1172l.0586-.08984.08593-.05859.17969-.11719.10156-.04687.10547-.04297.10547-.0586.10156-.04296.08985-.0625.10156-.04297.10547-.0586.10156-.04687.08984-.0586.10547-.04296.10156-.04297.08985-.0625.10156-.04297.13672-.01563.11719.03125.10156.04297.1211.03125.10156.04297.10546.04688.10157.04296.10547.04297.10156.04688.10547.04297.10156.04297.10547.04687.08594.0586.10546.04296.1172.03125.10546.04297.10156.04688.08985.0586.10547.04296.10156.04297.10547.04687.11719.02735.10156.04687.1211.02735h.14843l.08594-.0586.01562-.10156.0586-.08984-.02735-.1172-.07422-.07421-.11719-.17969-.07421-.07422-.08985-.07421-.17969-.1172-.08593-.05859-.10547-.04296-.10156-.04688-.26954-.17578-.05859-.08985-.07422-.07421-.0586-.08985-.04296-.10156-.03125-.11719-.01563-.13672v-.5625l-.01171-.1328-.01563-.13282-.03125-.11719-.01562-.13281-.01172-.13281-.03125-.1211-.22266-.22265-.0586-.08594-.01562-.10547.03125-.11719.13281-.01562v-91.41406H172.9922v1.45312l-.0586.23438-.35156 1.05078-.17187.52343-.1172.34766-.17577.41016-.11719.17187-.23438.29297-.23046.0586h-.35157l-.11718.05859-.23047.40625v.29297l.11719.17578.23046.23047.1172.23437.64062.75781.29297.46485.17578.23437.23047.35156.23437.34766.64063.8164.17578.46485.17187.41016.11719.69531.17578.46875.11719 1.39844.0586.46484v.875l.11718 1.04688v4.78125l-.0586.46484-.35156 1.28125-.17578.52344-.11328.41015-.35156.9297L172.93359 336l-.23437.58203-.11719.17578-.17187.34766-.17578.40625-.35157.8164-.0586.29297-.11327.29297-.11719.28906-.0586.17579-.11718.875-.0586.40625-.05859.11718-.0586.17579-.05859.17187-.23047.52734-.11718.17188v.23437l-.11719.23438-.0586.17187-.17577.58594v.28906l-.0586.17579v.29296l-.0586.11329-.05859.52734v.17187l-.05468.23438v2.6211l-.17578.8164-.1172.17578-.17577.23438-.1172.17187-.11327.23438-.58594.93359-.23047.28906-.29297.46485-.17578.23437-.28906.35156-.35156.69922-.11328.23047-.17579.41016-.17578.23046-.40625.52735-.8164.69922-.29297.17187-.28906.23438-.17579.11719-.17578.17578-.52344.40625-.52734.17578-.17187.17578-.23438.05469-.64062.17578h-.75782m12.21094 31.02344l-1.07422.44921.35938.89454 1.25-.71485.44531-.53906-.98047-.08985"/><path fill="#d3d3d3" fill-opacity="0" fill-rule="evenodd" d="M201.50781 416.59766h-.89453l.44922.6289.98047.35938.80469-.08985.4453-.98828-.17577.08985-.71485-.35547-.89453.35547m154.6211 59.0703l-.0586-.52343v-.29297l.11328-.29297.0586-.23046.46875-.46875h.11328l.11719-.11329.11718-.05859h.17579l.23437-.0586h.34766l.23437.0586.11719.0586.23047.17187.0586.17578.11718.58203v.29297l-.11719.17578-.17187.28906-.17579.17579-.52734.52343-.23047.23438-.11719.0586h-.17578l-.11718-.0586-.40625-.29297-.17579-.11719-.11718-.0586-.0586-.11327-.05468-.1172m6.64062-10.95702l-.0586-.17188v-1.10937l.0586-.17188.17578-.0586.17188-.05858h.17578l.23437-.0586.1172.0586.05858.69921-.05859.17188-.11719.17578-.11718.0586-.23438.52343-.11328.0586h-.23438l-.05859-.1172m9.61328-14.39062l-.11719-.17578v-.69922l.29297-.875.1172-.17187.17577-.35156.11328-.23047.1172-.29297.35155-.75781.1172-.23047.17187-.23438h.17578l.11719-.0586h.64062l.11719.0586.23437.23438.17188.11328.35156.29297.11719.11718.11328.17579v.11328l.11719.05859.11718.11719v.69922l-.05859.17578v.23047l-.0586.17578-.34765 1.05078-.11719.23047-.11719.23437-.11718.0586-.23047.23437-.64063.28906h-.875l-.41015-.11718-.64063-.46485"/><path fill="none" stroke="#bebebe" stroke-linecap="round" stroke-linejoin="round" stroke-miterlimit="10" stroke-width=".5" d="M467.95703 311.69531H144.02734v168.625h323.9297v-168.625"/><g clip-path="url(#a)"><path fill="#fff" fill-opacity="0" fill-rule="evenodd" d="M144 475.89063v4.4375h.0039H144v-75.73047 71.29296"/></g><g clip-path="url(#b)"><path fill="#fff" fill-opacity="0" fill-rule="evenodd" d="M144 320.54688v4.0664-12.9414h.0039H144v8.875"/></g><path fill="#50fcfc" fill-rule="evenodd" d="M144 397.7539v6.84766h.0039v-6.84765H144"/><path fill="#fff" fill-opacity="0" fill-rule="evenodd" d="M144 326.19531v71.5586h.0039v-71.57032l-.0039.01172"/><path fill="#50fcfc" fill-rule="evenodd" d="M144 324.61328v1.58203l.0039-.01172v-1.5703H144"/><g clip-path="url(#c)"><path fill="#fff" fill-opacity="0" fill-rule="evenodd" d="M144.0039 480.32813v-75.72657l.22657.27344 3.45703 4.4414-2.85156 4.4375 3.60156 3.60548 4.42969.83203.00781.01171 4.4414 4.32032.22657.10547 2.72656 4.4414 1.48438 1.76563v4.33203l-2.53516 2.77734-.25781 4.4375.04687 4.4375.00781 4.4414-.21875 4.4375.46875 4.4375 1.07032 4.4375 1.41797 1.38282 1.98437-1.38281 2.45313-3.47266.8828-.96484 3.5547-2.07813 2.96093-2.35937 1.47657-1.51563 3.26953-2.92187 1.17187-1.50781 3.34375-2.9336-3.34375-1.7461-4.4414-.80858-4.4375-1.71094-.06641-.17188-4.3711-3.5625-1.08984-.875-3.34765-2.77734v-4.33203l1.79687-1.76563 1.61328-4.4414-.40625-4.4375-1.44531-4.4375-1.5586-1.53516-4.4375-2.42578-3.2539-.47656 3.2539-.61329 3.66407-3.82812.14453-4.4375.6289-3.46484.8086-.97266-.03125-4.4375 1.97266-4.4375-2.75-2.80078-4.4375 1.1836-1.63282 1.61718 1.63282 3.8164 1.46093.6211-1.46093 1.34766L154.98438 396l-2.10938.21484-4.4375 2.86329-4.4336-1.32422v-71.57032l.33985-1.19921-.33984-.3711v-12.9414h44.3789v24.39062l-3.8711 2.23828-.5664.82031-4.4375-.73046-.1914-.08985-4.25-2.1875-4.4375 1.66406-.6172.52344-1.59374 4.4375-2.22656 2.85547-.82032 1.58594-2.8789 4.4375-.73828 1.21875-1.15625 3.21875 1.15625 1.875 3.60547-1.875.83203-.48047 4.4375-3.5664 1.46093-.39063 2.97657-.8125 2.40625-3.625 2.03515-3.0039 4.4375 1.15624 3.22266-2.59375 1.21484-.86719 2.0586-3.5703-2.0586-2.23829v-24.39063h13.3164v17.33985l-4.4375.21094-.21483.20312.21484.64063 4.4375.48828v88.45703l-4.4375.76953-4.4414 2.7539-.22657.09376.22656.26953 4.4414 3.86328.52345.3086 3.91406 2.16796 4.4375.6875 4.25781 1.58203.17969.16406 1.38281 4.27344 3.0586 2.17969 2.8164-2.17969 1.6211-4.10156.53906-.33594-.53906-.2461-4.32032-4.1914-.11719-.13672-4.4414-3.53515-.23828-.76953-4.19922-1.95313-4.4375-1.66406v-88.45703l.51172-1.1289-.51172-.41407v-17.33985h266.29687v168.65625H144.00391"/></g><path fill="#50fcfc" fill-rule="evenodd" d="M144.23047 404.875l-.22656-.27344v-6.84765l4.43359 1.32421 4.4375-2.86328L154.98438 396l2.33203-3.08984v4.34375l-4.44141.6289-2.96875 2.55469-1.46875 4.03516-.29688.40234.29688.35938 4.4375 3.49609v1.1836l-4.4375.80468-2.34375 3.03516 2.34375 2.34765 4.4375 1.42969 1.65234.66016 2.78907 2.71875 3.6328 1.71875.8047 1.10546.64843-1.10546-.0664-4.4375-.58203-1.14454-1.42578-3.29296-3.01172-2.35157-4.44141-1.48828v-1.1836l4.4414-2.07812 1.69923-1.77734.91406-4.4375-2.61328-3.1836v-4.34374l1.46093-1.34766-1.46093-.6211-1.63282-3.8164 1.63282-1.61719 4.4375-1.1836 2.75 2.80079-1.97266 4.4375.03125 4.4375-.8086.97266-.6289 3.46484-.14453 4.4375-3.66406 3.82813-3.25391.61328 3.2539.47656 4.4375 2.42578 1.5586 1.53516 1.44531 4.4375.40625 4.4375-1.61328 4.4414-1.79687 1.76563-1.48438-1.76563-2.72656-4.4414-.22656-.10547-4.44141-4.32031-.00781-.01172-4.42969-.83204-3.60156-3.60546 2.85156-4.4375-3.45703-4.44141m.11328-79.89063l-.33984 1.19922v-1.5703l.33984.37108"/><path fill="#00e8fc" fill-rule="evenodd" d="M148.4375 416.10156l-2.34375-2.34765 2.34375-3.03516 4.4375-.80469v1.11719l-4.4375 2.39844-.25.32422.25.25 4.4375 2.42578 4.40625 1.76172.03516.03515.0625-.03515-.0625-.41797-.21485-4.01953-4.22656-2.72266v-1.11719l4.4414 1.48828 3.01173 2.35157 1.42578 3.29296.58203 1.14454.0664 4.4375-.64843 1.10546-.8047-1.10546-3.6328-1.71875-2.78907-2.71875-1.65234-.66016-4.4375-1.42969m0-10.86719l-.29688-.35937.29688-.40234 1.46875-4.03516 2.96875-2.55469 4.4414-.6289v2.43359l-3.5039.75-.9375.14063-3.21875 4.29687 3.21875 2.76172 3.73047-2.76172.71094-2.69922.61718-1.73828-.61718-.75v-2.4336l2.61328 3.1836-.91406 4.4375-1.69922 1.77734-4.44141 2.07813-4.4375-3.4961"/><path fill="#00d4fc" fill-rule="evenodd" d="M148.4375 414.0039l-.25-.25.25-.32421 4.4375-2.39844v1.1211l-2.7461 1.60156 2.7461 1.57421 2.48828-1.57421-2.48828-1.60157v-1.12109l4.22656 2.72266.21485 4.01953.0625.41797-.0625.03515-.03516-.03515-4.40625-1.76172-4.4375-2.42578m4.4375-6.3672l-3.21875-2.76171 3.21875-4.29688v1.70313l-1.9414 2.59375 1.9414 1.66797 2.2539-1.66797-2.2539-2.59375v-1.70313l.9375-.14062 3.5039-.75.6172.75-.6172 1.73828-.71093 2.69922-3.73047 2.76172"/><path fill="#00c4fc" fill-rule="evenodd" d="M152.875 415.32813l-2.7461-1.57422 2.7461-1.60157v1.1172l-.82422.48437.82422.47265.75-.47265-.75-.48438v-1.11719l2.48828 1.60157-2.48828 1.57421m0-8.78515l-1.9414-1.66797 1.9414-2.59375v1.70313l-.66797.89062.66797.57422.77734-.57422-.77734-.89063v-1.70312l2.2539 2.59375-2.2539 1.66797"/><path fill="#00b8fc" fill-rule="evenodd" d="M152.875 414.22656l-.82422-.47265.82422-.48438.75.48438-.75.47265m0-8.77734l-.66797-.57422.66797-.89063.77734.89063-.77734.57422"/><path fill="#50fcfc" fill-rule="evenodd" d="M159.26563 458.13672l-.46875-4.4375.21875-4.4375-.00782-4.4414-.04687-4.4375.25781-4.4375 2.53516-2.77735v5.97265l-.26953 1.2422.26953 3.41015v8.59375l-.15235 1.3125.15235.98828.4453-.98828-.4453-1.3125v-8.59375l.66015 1.02734 3.77735 1.91016 1.0078-1.91016-1.0078-3.65234-1.20313-.78516-3.23437-1.24219v-5.97265l3.34765 2.77734 1.08985.875 4.37109 3.5625.0664.17188 4.4375 1.71094 4.44141.80859 3.34375 1.7461-3.34375 2.93359-1.17187 1.5078-3.26953 2.92188-1.47657 1.51563-2.96093 2.35937-3.5547 2.07813-.8828.96484-2.45313 3.47266-1.98437 1.38281-1.41797-1.38281-1.07031-4.4375m2.48828-100.20703l-1.15625-1.875 1.15625-3.21875.73828-1.21875 2.8789-4.4375.82032-1.58594 2.22656-2.85547 1.59375-4.4375.61719-.52344 4.4375-1.66406 4.25 2.1875.1914.08985 4.4375.73046.5664-.8203 3.8711-2.23829 2.0586 2.23828-2.0586 3.57031-1.21484.8672-3.22266 2.59374-4.4375-1.15625-2.03515 3.0039-2.40625 3.625-2.97657.8125-1.46093.39063-4.4375 3.5664-.83203.48048-3.60547 1.875"/><path fill="#00e8fc" fill-rule="evenodd" d="M161.7539 443.79297l-.26952-3.41016.26953-1.24219 3.23437 1.2422 1.20313.78515 1.0078 3.65234-1.0078 1.91016-3.77735-1.91016-.66015-1.02734m0 10.89453l-.15235-.98828.15235-1.3125.4453 1.3125-.4453.98828"/><path fill="#50fcfc" fill-rule="evenodd" d="M192.82031 422.89844l-.22656-.26953.22656-.09375 4.4414-2.75391 4.4375-.76953 4.4375 1.66406 4.19923 1.95313.23828.76953 4.4414 3.53515.1172.13672 4.3203 4.1914.53907.2461-.53906.33594-1.6211 4.10156-2.8164 2.17969-3.0586-2.17969-1.38281-4.27344-.17969-.16406-4.25781-1.58203-4.4375-.6875-3.91406-2.16797-.52344-.3086-4.4414-3.86327m4.4414-92.83203l-.21484-.64063.21484-.20312 4.4375-.21094.51172.41406-.51172 1.1289-4.4375-.48827"/><g clip-path="url(#d)"><path fill="#fff" fill-opacity="0" fill-rule="evenodd" d="M467.9961 480.32813H468V311.67188h-.0039H468v168.65625h-.0039"/></g><g clip-path="url(#e)"><path fill="none" stroke="#000" stroke-linecap="round" stroke-linejoin="round" stroke-miterlimit="10" stroke-width=".5" d="M147.375 481.30469l-6.75-1.95313"/></g><g clip-path="url(#f)"><path fill="none" stroke="#000" stroke-linecap="round" stroke-linejoin="round" stroke-miterlimit="10" stroke-width=".5" d="M146.39453 481.01953l.25 1.20313"/></g><g clip-path="url(#g)"><path fill="none" stroke="#000" stroke-linecap="round" stroke-linejoin="round" stroke-miterlimit="10" stroke-width=".5" d="M160.77734 480.92578l-6.92578-1.19531"/></g><g clip-path="url(#h)"><path fill="none" stroke="#000" stroke-linecap="round" stroke-linejoin="round" stroke-miterlimit="10" stroke-width=".5" d="M160.77734 480.92578l.76563 2.33203"/></g><g clip-path="url(#i)"><path fill="none" stroke="#000" stroke-linecap="round" stroke-linejoin="round" stroke-miterlimit="10" stroke-width=".5" d="M159.76953 480.7539l.38281 1.16407"/></g><g clip-path="url(#j)"><path fill="none" stroke="#000" stroke-linecap="round" stroke-linejoin="round" stroke-miterlimit="10" stroke-width=".5" d="M174.14453 480.27734l-7.02734.10157"/></g><g clip-path="url(#k)"><path fill="none" stroke="#000" stroke-linecap="round" stroke-linejoin="round" stroke-miterlimit="10" stroke-width=".5" d="M174.14453 480.27734l1.1836 2.14844"/></g><g clip-path="url(#l)"><path fill="none" stroke="#000" stroke-linecap="round" stroke-linejoin="round" stroke-miterlimit="10" stroke-width=".5" d="M173.1211 480.29297l.58984 1.07422"/></g><g clip-path="url(#m)"><path fill="none" stroke="#000" stroke-linecap="round" stroke-linejoin="round" stroke-miterlimit="10" stroke-width=".5" d="M187.42578 479.86328l-6.96484.92969"/></g><g clip-path="url(#n)"><path fill="none" stroke="#000" stroke-linecap="round" stroke-linejoin="round" stroke-miterlimit="10" stroke-width=".5" d="M187.42578 479.86328l1.42969 1.99219"/></g><g clip-path="url(#o)"><path fill="none" stroke="#000" stroke-linecap="round" stroke-linejoin="round" stroke-miterlimit="10" stroke-width=".5" d="M186.41406 480l.71485.9961"/></g><g clip-path="url(#p)"><path fill="none" stroke="#000" stroke-linecap="round" stroke-linejoin="round" stroke-miterlimit="10" stroke-width=".5" d="M200.70703 479.64844l-6.89453 1.36328"/></g><g clip-path="url(#q)"><path fill="none" stroke="#000" stroke-linecap="round" stroke-linejoin="round" stroke-miterlimit="10" stroke-width=".5" d="M200.70703 479.64844l1.55078 1.90234"/></g><g clip-path="url(#r)"><path fill="none" stroke="#000" stroke-linecap="round" stroke-linejoin="round" stroke-miterlimit="10" stroke-width=".5" d="M199.70313 479.84375l.77734.95313"/></g><g clip-path="url(#s)"><path fill="none" stroke="#000" stroke-linecap="round" stroke-linejoin="round" stroke-miterlimit="10" stroke-width=".5" d="M213.96484 479.40234l-6.77734 1.85157"/></g><g clip-path="url(#t)"><path fill="none" stroke="#000" stroke-linecap="round" stroke-linejoin="round" stroke-miterlimit="10" stroke-width=".5" d="M213.96484 479.40234l1.6836 1.78516"/></g><g clip-path="url(#u)"><path fill="none" stroke="#000" stroke-linecap="round" stroke-linejoin="round" stroke-miterlimit="10" stroke-width=".5" d="M212.97656 479.67188l.84375.89453"/></g><g clip-path="url(#v)"><path fill="none" stroke="#000" stroke-linecap="round" stroke-linejoin="round" stroke-miterlimit="10" stroke-width=".5" d="M227.17188 479.07813l-6.56641 2.5039"/></g><g clip-path="url(#w)"><path fill="none" stroke="#000" stroke-linecap="round" stroke-linejoin="round" stroke-miterlimit="10" stroke-width=".5" d="M227.17188 479.07813l1.85156 1.61328"/></g><g clip-path="url(#x)"><path fill="none" stroke="#000" stroke-linecap="round" stroke-linejoin="round" stroke-miterlimit="10" stroke-width=".5" d="M226.21875 479.4414l.92188.8086"/></g><g clip-path="url(#y)"><path fill="none" stroke="#000" stroke-linecap="round" stroke-linejoin="round" stroke-miterlimit="10" stroke-width=".5" d="M240.40234 478.8711l-6.39453 2.91406"/></g><g clip-path="url(#z)"><path fill="none" stroke="#000" stroke-linecap="round" stroke-linejoin="round" stroke-miterlimit="10" stroke-width=".5" d="M240.40234 478.8711l1.94532 1.49218"/></g><g clip-path="url(#A)"><path fill="none" stroke="#000" stroke-linecap="round" stroke-linejoin="round" stroke-miterlimit="10" stroke-width=".5" d="M253.66016 478.7539l-6.28125 3.14844"/></g><g clip-path="url(#B)"><path fill="none" stroke="#000" stroke-linecap="round" stroke-linejoin="round" stroke-miterlimit="10" stroke-width=".5" d="M253.66016 478.7539l2.0039 1.42188"/></g><g clip-path="url(#C)"><path fill="none" stroke="#000" stroke-linecap="round" stroke-linejoin="round" stroke-miterlimit="10" stroke-width=".5" d="M266.98438 478.76953l-6.29688 3.11719"/></g><g clip-path="url(#D)"><path fill="none" stroke="#000" stroke-linecap="round" stroke-linejoin="round" stroke-miterlimit="10" stroke-width=".5" d="M266.98438 478.76953l1.99218 1.4336"/></g><g clip-path="url(#E)"><path fill="none" stroke="#000" stroke-linecap="round" stroke-linejoin="round" stroke-miterlimit="10" stroke-width=".5" d="M280.28125 478.73047l-6.25781 3.19531"/></g><g clip-path="url(#F)"><path fill="none" stroke="#000" stroke-linecap="round" stroke-linejoin="round" stroke-miterlimit="10" stroke-width=".5" d="M280.28125 478.73047l2.00781 1.40625"/></g><g clip-path="url(#G)"><path fill="none" stroke="#000" stroke-linecap="round" stroke-linejoin="round" stroke-miterlimit="10" stroke-width=".5" d="M293.1836 478.10156l-5.4336 4.45703"/></g><path fill="none" stroke="#000" stroke-linecap="round" stroke-linejoin="round" stroke-miterlimit="10" stroke-width=".5" d="M292.39063 478.75l1.1328.46875"/><g clip-path="url(#H)"><path fill="none" stroke="#000" stroke-linecap="round" stroke-linejoin="round" stroke-miterlimit="10" stroke-width=".5" d="M306.47266 478.07031l-5.38282 4.51563"/></g><path fill="none" stroke="#000" stroke-linecap="round" stroke-linejoin="round" stroke-miterlimit="10" stroke-width=".5" d="M305.6875 478.72656l1.14063.46094"/><g clip-path="url(#I)"><path fill="none" stroke="#000" stroke-linecap="round" stroke-linejoin="round" stroke-miterlimit="10" stroke-width=".5" d="M319.38281 477.66406l-4.57422 5.33203"/></g><path fill="none" stroke="#000" stroke-linecap="round" stroke-linejoin="round" stroke-miterlimit="10" stroke-width=".5" d="M318.71875 478.4375l1.19531.26953"/><g clip-path="url(#J)"><path fill="none" stroke="#000" stroke-linecap="round" stroke-linejoin="round" stroke-miterlimit="10" stroke-width=".5" d="M332.4336 477.45703l-4.04688 5.7461"/></g><path fill="none" stroke="#000" stroke-linecap="round" stroke-linejoin="round" stroke-miterlimit="10" stroke-width=".5" d="M331.84375 478.29297l1.21875.15234"/><g clip-path="url(#K)"><path fill="none" stroke="#000" stroke-linecap="round" stroke-linejoin="round" stroke-miterlimit="10" stroke-width=".5" d="M345.29688 477.1875l-3.14063 6.28516"/></g><path fill="none" stroke="#000" stroke-linecap="round" stroke-linejoin="round" stroke-miterlimit="10" stroke-width=".5" d="M345.29688 477.1875l2.45312-.0625"/><g clip-path="url(#L)"><path fill="none" stroke="#000" stroke-linecap="round" stroke-linejoin="round" stroke-miterlimit="10" stroke-width=".5" d="M357.875 476.91406l-1.66797 6.82813"/></g><path fill="none" stroke="#000" stroke-linecap="round" stroke-linejoin="round" stroke-miterlimit="10" stroke-width=".5" d="M357.875 476.91406l2.3789-.60156"/><g clip-path="url(#M)"><path fill="none" stroke="#000" stroke-linecap="round" stroke-linejoin="round" stroke-miterlimit="10" stroke-width=".5" d="M370.54297 476.82031l-.3711 7.01563"/></g><path fill="none" stroke="#000" stroke-linecap="round" stroke-linejoin="round" stroke-miterlimit="10" stroke-width=".5" d="M370.48828 477.83984l1.11328-.51562"/><g clip-path="url(#N)"><path fill="none" stroke="#000" stroke-linecap="round" stroke-linejoin="round" stroke-miterlimit="10" stroke-width=".5" d="M383.23047 476.84375l.88281 6.97266"/></g><path fill="none" stroke="#000" stroke-linecap="round" stroke-linejoin="round" stroke-miterlimit="10" stroke-width=".5" d="M383.35938 477.85547l1.0039-.70703"/><g clip-path="url(#O)"><path fill="none" stroke="#000" stroke-linecap="round" stroke-linejoin="round" stroke-miterlimit="10" stroke-width=".5" d="M397.89453 476.9336l-1.8164 6.78906"/></g><path fill="none" stroke="#000" stroke-linecap="round" stroke-linejoin="round" stroke-miterlimit="10" stroke-width=".5" d="M397.6289 477.92188l1.19532-.27735"/><g clip-path="url(#P)"><path fill="none" stroke="#000" stroke-linecap="round" stroke-linejoin="round" stroke-miterlimit="10" stroke-width=".5" d="M411.42578 477l-2.2461 6.65625"/></g><path fill="none" stroke="#000" stroke-linecap="round" stroke-linejoin="round" stroke-miterlimit="10" stroke-width=".5" d="M411.09766 477.96875l1.21093-.19922"/><g clip-path="url(#Q)"><path fill="none" stroke="#000" stroke-linecap="round" stroke-linejoin="round" stroke-miterlimit="10" stroke-width=".5" d="M425.03125 477.11328l-2.83203 6.42969"/></g><path fill="none" stroke="#000" stroke-linecap="round" stroke-linejoin="round" stroke-miterlimit="10" stroke-width=".5" d="M425.03125 477.11328l2.44922-.17969"/><g clip-path="url(#R)"><path fill="none" stroke="#000" stroke-linecap="round" stroke-linejoin="round" stroke-miterlimit="10" stroke-width=".5" d="M438.07422 477.00781l-2.28516 6.64453"/></g><path fill="none" stroke="#000" stroke-linecap="round" stroke-linejoin="round" stroke-miterlimit="10" stroke-width=".5" d="M438.07422 477.00781l2.42187-.38672"/><g clip-path="url(#S)"><path fill="none" stroke="#000" stroke-linecap="round" stroke-linejoin="round" stroke-miterlimit="10" stroke-width=".5" d="M451.42969 477.01953l-2.36328 6.61719"/></g><path fill="none" stroke="#000" stroke-linecap="round" stroke-linejoin="round" stroke-miterlimit="10" stroke-width=".5" d="M451.08594 477.98438l1.21094-.1797"/><g clip-path="url(#T)"><path fill="none" stroke="#000" stroke-linecap="round" stroke-linejoin="round" stroke-miterlimit="10" stroke-width=".5" d="M465.65625 477.50781l-4.1875 5.64453"/></g><path fill="none" stroke="#000" stroke-linecap="round" stroke-linejoin="round" stroke-miterlimit="10" stroke-width=".5" d="M465.04688 478.32813l1.21093.18359"/><g clip-path="url(#U)"><path fill="none" stroke="#000" stroke-linecap="round" stroke-linejoin="round" stroke-miterlimit="10" stroke-width=".5" d="M147.4961 467.36328l-6.9922-.69922"/></g><path fill="none" stroke="#000" stroke-linecap="round" stroke-linejoin="round" stroke-miterlimit="10" stroke-width=".5" d="M147.4961 467.36328l.92968 2.26953m12.40234-2.54687l-7.02734-.14453m7.02734.14453l1.10547 2.1875m12.19922-2.51953l-7.00781.51953m7.00781-.51953l1.3086 2.07422m-2.32813-2l.65625 1.03906m13.625-1.51953l-6.89844 1.33203m6.89844-1.33203l1.54297 1.90625m-2.54688-1.71485l.77344.95703m13.51953-1.26562l-6.84765 1.5664m6.84765-1.5664l1.60938 1.85156m-2.60547-1.625l.80469.92969m13.39062-1.55469l-6.61719 2.36328m6.6172-2.36328l1.8164 1.65235m-2.77734-1.3086l1.8125 1.65235m12.28125-2.41797l-6.25 3.20703m6.25-3.20703l2.01562 1.40234m-2.92578-.9336l2.01562 1.40235m12.10547-2.0625l-6.04297 3.58984m6.04297-3.58984l2.09766 1.27734m-2.97656-.7539l2.09765 1.27343m11.98438-1.97265l-5.8164 3.9414m5.8164-3.9414l2.16797 1.14453m-3.01563-.57031l2.16797 1.14453m11.73047-2.0586l-5.28906 4.6211m5.28906-4.6211l2.29297.8711m-3.0625-.19922l2.29297.8711m11.59765-1.75l-4.90234 5.03515m4.90234-5.03516l2.35547.6875m-3.0664.04688l1.17578.34375m12.66406-1.2461l-4.53125 5.3711m4.53125-5.3711l2.39844.51954m-3.0547.26172l1.19923.2578m12.46875-1.26952l-3.92188 5.83203m3.92188-5.83203l2.4414.2539m-3.01172.59375l1.21875.1289m12.53907-1.05858l-3.66407 5.99609m3.66407-5.9961l2.44922.14844m11.11718.02344l-4.17187 5.65234m4.17187-5.65234l2.4297.35938m10.55858-.57422l-3.51953 6.08203m3.51953-6.08203l2.45313.08593m-2.96484.79688l1.22656.04687m12.17187-1.14062l-2.66015 6.5039m2.66015-6.5039l2.44141-.2461m-2.82813 1.19141l1.21875-.1211m11.38282-1.07812l-.45703 7.01172m.45703-7.01172L372.8203 462.5m10.66016 1.0039l.38281 7.01954m-.32812-5.9961l1.05078-.63671m12.10156-.37891l.59766 7.0039m-.51172-5.98437l1.03125-.66406m12.01953-.33594l.95312 6.96484m-.95312-6.96484l1.98828-1.4336m13.64844 1.92579l-3.6914 5.98047m3.6914-5.98047l2.44922.15625m11.0078-.0664l-3.97265 5.80077m3.97266-5.80078l2.4375.27344m10.82422-.3086l-3.86328 5.8711m3.30078-5.01563l1.21875.11329m13.03515-.6797l-4.62109 5.29298m3.94922-4.52344l1.19531.27734"/><g clip-path="url(#V)"><path fill="none" stroke="#000" stroke-linecap="round" stroke-linejoin="round" stroke-miterlimit="10" stroke-width=".5" d="M147.5 454.01563l-7-.63282"/></g><path fill="none" stroke="#000" stroke-linecap="round" stroke-linejoin="round" stroke-miterlimit="10" stroke-width=".5" d="M147.5 454.01563l.95313 2.26171m12.36718-2.34765l-7.01172-.46094m7.01172.46094l1.00781 2.23437m12.31641-2.48437l-7.02734.03906m7.02734-.03906l1.16406 2.16015m-2.1875-2.15625l.58203 1.08203m13.71094-1.62109l-6.9375 1.10938m6.9375-1.10938l1.48047 1.95703m-2.48828-1.79687l.73828.98047m13.4375-1.72657l-6.64453 2.28125m6.64453-2.28125l1.79297 1.67188m-2.75781-1.33984l.89453.83593m13.21094-1.58984l-6.29688 3.1211m6.29688-3.1211l1.99609 1.42969m-2.91016-.97266l.9961.71484m13.14062-1.34375l-6.11328 3.46485m6.11328-3.46485l2.07031 1.31641m-2.95703-.8125l1.03516.66016m13.07813-1.3125l-5.9336 3.76562m5.9336-3.76562l2.1328 1.21093m-2.99609-.66406l1.06641.60547m13.13281-1.11719l-5.97656 3.69531m5.97656-3.6953l2.1211 1.23827m-2.98828-.69922l1.05859.6172m12.88672-1.4961l-5.5 4.375m5.5-4.375l2.25.97656m-3.05078-.33984l1.125.48828m13.17187-.875l-5.86328 3.875m5.86328-3.875l2.15625 1.17187m-3.00781-.60937l1.07812.58594m12.67188-1.66407l-5.03125 4.90625m5.03125-4.90625l2.33594.7461m-3.06641-.03516l2.33594.75m11.59765-1.57422l-4.80468 5.1289m4.80468-5.1289l2.3672.64063m-3.06641.10547l2.36718.64062m11.64063-1.39062l-4.79297 5.14062m4.79297-5.14062l2.3711.63671m-3.06641.11329l2.36718.6328m11.77344-1.2539l-5.05469 4.88281m5.05469-4.8828l2.33594.7578m-3.07031-.04687l1.16796.3789m12.78516-1.1875l-4.85937 5.07813m4.85937-5.07812l2.35938.66406m-3.06641.07422l1.17969.33203m12.30468-1.49219l-3.78515 5.92188m3.78515-5.92188l2.44532.19531m9.30859-.73437l-.66016 6.9961m.66016-6.9961l2.26563-.9414m8.47265 1.73827l4.48828 5.40625m-3.83203-4.62109l.46485-1.13281m12.77343-.04297l3.33203 6.1875m-2.84765-5.28906l.6836-1.01954m16.95702 1.64454l-6.28515 3.14062m5.37109-2.6836l.9961.71095m13.2578-1.1211l-6.33593 3.04297m6.33594-3.04297l1.97656 1.45703m10.75781-2.3125l-5.17578 4.75782m5.17578-4.75782l2.3125.8164m-3.0664-.125l1.15625.41017m11.76953-1.92579l-2.89063 6.40625m2.89063-6.40625l2.44922-.16015m11.03515.24219l-3.23047 6.24218m2.76172-5.33203l1.22656-.01562"/><g clip-path="url(#W)"><path fill="none" stroke="#000" stroke-linecap="round" stroke-linejoin="round" stroke-miterlimit="10" stroke-width=".5" d="M147.25 441.71484l-6.5-2.66406"/></g><path fill="none" stroke="#000" stroke-linecap="round" stroke-linejoin="round" stroke-miterlimit="10" stroke-width=".5" d="M147.25 441.71484l.2461 2.44141m13.30859-3.36719l-6.98047-.8086m6.98047.8086l.89453 2.28516m12.41797-2.27344l-6.97656-.83594m6.97656.83594l.88672 2.28906m12.39453-3.35937l-6.90625 1.30469m6.90625-1.3047l1.53515 1.91407m11.66797-2.34375l-6.6836 2.16406m6.6836-2.16406l1.76563 1.70703m11.28515-2.32031l-6.15625 3.39062m6.15625-3.39062l2.0547 1.34375m10.90624-1.86719l-5.44531 4.4375m5.44531-4.4375l2.26172.95313m11.14453-.83594l-5.6289 4.20312m5.6289-4.20312l2.21875 1.04687m-3.03516-.43359l1.10938.52344m13.28906-.72656l-6.16015 3.3828m6.16015-3.3828l2.05078 1.34375m10.98438-1.76954l-5.60547 4.23829m5.60547-4.23829l2.22656 1.03125m10.78125-1.39062l-4.98828 4.95312m4.98828-4.95312l2.34375.72656m-3.07031-.0039l1.17187.36328m12.59766-1.33203l-4.44531 5.4453m4.44531-5.4453l2.40625.48046m-3.05078.3125l1.20312.23829m13.13672-.66797l-5.20312 4.72265m5.20312-4.72265l2.3086.82812m-3.06641-.14062l1.15625.41406m13.03125-.96875l-5.4336 4.45703m5.4336-4.45703l2.26563.9414m-3.0547-.29296l1.12891.47265m13.23047-.76953l-5.9414 3.7539m5.9414-3.7539l2.1289 1.21485m11.30079-1.01563l-6.17578 3.35156m6.17578-3.35156l2.04688 1.35547m11.13671-1.57813l-5.91015 3.80079m5.91015-3.80079l2.14063 1.19532m9.94922-2.35547l-3.45703 6.11719m2.95312-5.22657l1.22656.03125M387.16406 440l-6.98437.76562M387.16406 440l1.3789 2.03125M400.5 440.33203l-7.02734.10547m7.02734-.10547l1.1836 2.14844m12.0664-2.77735l-6.89453 1.36329m6.89453-1.36329l1.54688 1.90235m11.78906-1.76953l-6.9414 1.09375m6.9414-1.09375l1.47656 1.96093m-2.48438-1.80078l.73829.98047m12.78125-2.8789l-5.33204 4.57421m5.33204-4.57421l2.28515.89453m-3.0586-.23047l1.14063.44922m12.1875-1.78125l-3.8125 5.90625m3.8125-5.90625l2.44532.20703m-3 .65234l1.22265.10547m12.50781-1.04687l-3.53125 6.07421m3.01563-5.1914l1.22656.04687"/><g clip-path="url(#X)"><path fill="none" stroke="#000" stroke-linecap="round" stroke-linejoin="round" stroke-miterlimit="10" stroke-width=".5" d="M147.09375 428.73438l-6.1875-3.33204"/></g><path fill="none" stroke="#000" stroke-linecap="round" stroke-linejoin="round" stroke-miterlimit="10" stroke-width=".5" d="M147.09375 428.73438l-.01563 2.45703m13.69141-3.48828l-6.91016-1.26954m6.91016 1.26953l.74219 2.33985m12.58984-3.52735l-6.9414 1.10547m6.9414-1.10547l1.47656 1.96094m10.83985-3.90625l-4.94531 4.9961m4.22656-4.26953l1.17187.35546m10.38282-2.09765l.01562 7.02734m-.01562-6.0039L198.33594 424m12.96875-.36719l-1.45703 6.875m1.24218-5.875l1.1797-.33984m13.1953-.36328l-3.15234 6.27734m2.69531-5.36328l1.22656-.03125m13.83985.22656l-5.73828 4.0586m4.90234-3.46875l1.09766.55468m12.9375-1.30078l-5.5039 4.3711m5.5039-4.3711l2.2461.98047m11.28124-.67969l-5.92969 3.76953m5.9297-3.76953l2.1328 1.21485m11.3047-1.00782l-6.17579 3.35547m6.17578-3.35547l2.04688 1.35547m-2.94532-.86718l1.02344.67578m13.3125-.91407l-6.42187 2.85547m6.42187-2.85547l1.9336 1.51172m-2.8672-1.09765l.96485.75781m13.39063-.90234l-6.63282 2.3164m6.63282-2.3164l1.80078 1.66406m-2.76563-1.32813l.90235.83594m13.38672-1.14844l-6.65235 2.27344m6.65235-2.27344l1.78906 1.67578m11.5625-1.55859l-6.72656 2.03516m6.72656-2.03516l1.73047 1.74219m11.59765.25l-6.75-1.94922m6.75 1.94922l.5039 2.40234m12.3672-5.3125l-5.86328 3.875m5.86328-3.875l2.15625 1.17188m10.67187-1.75782l-4.89062 5.04297m4.89062-5.04297l2.35938.6797M387.18359 427l-7.02343.14062M387.18359 427l1.19532 2.14062m-2.21875-2.12109l.59765 1.07031m13.66797-1.74609l-6.8789 1.44922m6.8789-1.44922l1.57031 1.88281m11.375-2.86328l-6.14062 3.41016m6.14062-3.41016l2.0625 1.33203m11.25-1.33984l-6.1328 3.42578m6.1328-3.42578l2.0625 1.32812m-2.95703-.83203l1.03125.66406m12.22657-2.2539l-4.23047 5.61328m4.23047-5.61328l2.42187.38672m-3.03906.42968l1.21484.19532m13.28125-.47657l-5.35937 4.54688m5.35937-4.54688l2.28125.90625m-3.0625-.24609l1.14063.45313m13.52343-.1797l-6.49609 2.67579"/><g clip-path="url(#Y)"><path fill="none" stroke="#000" stroke-linecap="round" stroke-linejoin="round" stroke-miterlimit="10" stroke-width=".5" d="M466.8086 425.73047l1.89062 1.5625"/></g><path fill="none" stroke="#000" stroke-linecap="round" stroke-linejoin="round" stroke-miterlimit="10" stroke-width=".5" d="M465.86328 426.1211l.94531.78124"/><g clip-path="url(#Z)"><path fill="none" stroke="#000" stroke-linecap="round" stroke-linejoin="round" stroke-miterlimit="10" stroke-width=".5" d="M146.84375 415.8164l-5.6875-4.125"/></g><path fill="none" stroke="#000" stroke-linecap="round" stroke-linejoin="round" stroke-miterlimit="10" stroke-width=".5" d="M146.01563 415.21484l-.16797 1.21485m14.36718-.6914l-5.80078-3.96876m4.95703 3.39063l-.13672 1.21875m14.82422-3.39063l-6.85937 1.53125m5.86328-1.3086l.79688.9336m11.72265-3.5l-3.27344 6.21875m3.27344-6.21875l2.45313-.01172m9.3125-.39062l-.17578 7.02343m.17578-7.02343l2.1953-1.09766m11.26563 1.10156l-.46484 7.01172m.46484-7.01172l2.23438-1.0039m11.6914 1.10156l-1.6875 6.82031m1.6875-6.82031l2.37891-.59766m13.55078 3.39063l-6.91797 1.23437m6.91797-1.23437l1.51563 1.9336m11.82812-.89454l-6.97656-.84375m6.97656.84375l.88672 2.28906m-1.90234-2.41406l.88672 2.28906m13.46875-2.46484l-7.02344-.2461m7.02344.2461l1.07422 2.20703m-2.09766-2.24219l1.07812 2.20703m-2.09765-2.24218l.53515 1.10156m14.77344-1.75781l-6.92578 1.20703m6.92578-1.20703l1.5039 1.9375m-2.51171-1.76172l1.50781 1.9375m12.83594-1.97656l-6.96484.9375m6.96484-.9375l1.42969 1.99218m-2.44532-1.85547l1.4336 1.9922m12.89453-2.13282l-6.96094.94531m6.96094-.94531l1.4336 1.99219m11.74218-2.60157l-6.6836 2.16407m6.6836-2.16407l1.76563 1.70704m11.71484-.85157l-7.01172.45313m7.01172-.45313l1.28906 2.08594m11.83203-.6914l-6.6289-2.33594m6.6289 2.33593l.36719 2.42579m13.03516-4.47266l-6.80078 1.75781m5.8125-1.5039l.82812.90625m13.14844-1.98438l-6.14453 3.40625m6.14453-3.40625l2.0586 1.33594m11.49218-.8125l-6.61719 2.35937m6.61719-2.35937l1.8125 1.65234m-2.77734-1.3086l.91015.82423m13.50781-.67578l-6.89453 1.375m6.89453-1.375l1.55079 1.89843m11.6914-2.1875l-6.75 1.94922m6.75-1.94922l1.70703 1.76563m-2.6875-1.48047l.85157.88281m13.36328-1.41406l-6.58594 2.44531m6.58594-2.44531l1.83593 1.6289m-2.79296-1.27343l.91406.8164m13.19922-1.53906l-6.26953 3.17578m6.26953-3.17578l2.0078 1.41406m-2.92187-.94921l1.00391.70312m13.32813-.9375l-6.47657 2.71875m6.47657-2.71875l1.90234 1.55078m-2.84375-1.15625l.94922.77735m13.30078-1.19532l-6.46094 2.76563"/><g clip-path="url(#aa)"><path fill="none" stroke="#000" stroke-linecap="round" stroke-linejoin="round" stroke-miterlimit="10" stroke-width=".5" d="M466.79297 412.3711l1.91015 1.53515"/></g><g clip-path="url(#ab)"><path fill="none" stroke="#000" stroke-linecap="round" stroke-linejoin="round" stroke-miterlimit="10" stroke-width=".5" d="M147.29688 399.22656l-6.59375 2.42188"/></g><path fill="none" stroke="#000" stroke-linecap="round" stroke-linejoin="round" stroke-miterlimit="10" stroke-width=".5" d="M146.33984 399.57813l.91407.8203m12.7578 2.29298l-5.39452-4.50391m5.39453 4.5039l-.5039 2.39844m-.28126-3.05468l-.25 1.19921m14.83594-4.28515l-6.36328 2.97656m6.36328-2.97656l1.96094 1.47656m-2.88672-1.04297l1.96094 1.47656m10.92968-3.41796l-3.66406 5.99609m3.66406-5.9961l2.44922.14844m-2.98047.72266l1.22266.07422m14.1836 1.1289l-6.78126 1.84375m6.78125-1.84375l1.6797 1.78907m11.7539-.96094l-7.02344.1875m7.02344-.1875l1.21094 2.13672m-2.23047-2.10938l1.20703 2.13672m-2.23047-2.10937l.60547 1.0664m14.7539-.8789l-7.02343-.29688m7.02343.29688l1.0586 2.21484m-2.08203-2.25781l1.05859 2.21484M225.35937 400.5l1.0586 2.21484m14.29297-2.04687l-7.01172-.45703m7.01172.45703l1.00781 2.23828m-2.02734-2.30469l1.0078 2.23828m-2.02733-2.30468l1.0078 2.23437m14.33595-1.95703l-6.98829-.7461m6.98828.7461l.91407 2.27344m-1.9336-2.38281l.91797 2.27734m13.4336-2.40235l-7.02344-.28125m7.02344.28125l1.0625 2.21094m-2.08594-2.25l.53125 1.10547m13.79687-1.49219l-7.0039.57032m7.0039-.57032l1.32422 2.06641m11.96875-2.25781l-6.96093.95703m6.96093-.95703l1.4375 1.98828m11.72657-2.63672l-6.65625 2.2539m6.65625-2.2539l1.78515 1.67969m11.57422-1.53125l-6.7461 1.95312m6.7461-1.95312l1.71094 1.76172m11.36328-2.375l-6.26563 3.17968m6.26563-3.17968l2.00781 1.41406m-2.91797-.94922l1.0039.70313m13.3711-.82813l-6.5664 2.5039m6.5664-2.5039l1.84766 1.61328m8.3711 3.14453l-.3711-7.01562m.3164 5.9961l-1.05078.6328m17.16797-1.1875l-5.86718-3.86718m5.01562 3.30468l-.11719 1.22266m14.45313-4.24219l-6.20313 3.30078m6.20313-3.30078l2.03515 1.3711m-2.9375-.89063l1.01563.6836m13.60937.32812l-7.01953.3125m7.01953-.3125l1.2461 2.11328m11.90234-.8711l-6.6836-2.17187m6.6836 2.17188l.42578 2.41797m12.67188-1.90235l-6.2539-3.20312m6.2539 3.20312l.03906 2.45313m13.66016-3.9414l-7.02344-.22657m7.02344.22656l1.08203 2.20313m12.23437-2.46094l-7.02343.29297m7.02343-.29297L455 402.40625m-2.26562-2.07031l.62109 1.05469m13.61328-1.81641l-6.8125 1.73047"/><g clip-path="url(#ac)"><path fill="none" stroke="#000" stroke-linecap="round" stroke-linejoin="round" stroke-miterlimit="10" stroke-width=".5" d="M466.96875 399.57422l1.64844 1.8125"/></g><path fill="none" stroke="#000" stroke-linecap="round" stroke-linejoin="round" stroke-miterlimit="10" stroke-width=".5" d="M465.97656 399.82422l.82422.90625"/><g clip-path="url(#ad)"><path fill="none" stroke="#000" stroke-linecap="round" stroke-linejoin="round" stroke-miterlimit="10" stroke-width=".5" d="M147.45313 387.78125l-6.90625-1.3164"/></g><path fill="none" stroke="#000" stroke-linecap="round" stroke-linejoin="round" stroke-miterlimit="10" stroke-width=".5" d="M147.45313 387.78125l.72265 2.34375m11.17578-.14063l-4.07422-5.72265m4.07422 5.72265l-1.09765 2.19532m.5039-3.02735l-1.09765 2.19532m15.94922-2.36329l-5.95704-3.72265m5.95703 3.72265l-.17187 2.44922m-.69531-2.98828l-.17188 2.44531m14.78125-4.6289l-6.8125 1.72265m6.8125-1.72265L189 388.07812m-2.64063-1.5664l1.64844 1.82031m-2.64062-1.57031l1.64844 1.82031m13.7539-1.30469l-7.01953-.30859m7.01953.3086l1.05469 2.21484m-2.07422-2.25781l1.05469 2.21484m-2.07813-2.26172l1.05469 2.21484m14.3086-2.35937l-7.02735.16406m7.02734-.16406l1.19922 2.13672m-2.22265-2.11328l1.20312 2.13671m-2.22656-2.11328l1.20312 2.13672m-2.22265-2.11328l.59765 1.07031m15.77344-1.29296l-7.01172.46484m7.01172-.46485l1.29297 2.08594m-2.3125-2.01562l1.29297 2.08594m-2.3125-2.01954l.64844 1.04297m14.62109-1.7539l-6.83984 1.61328m6.83984-1.61328l1.61719 1.84375m-2.61328-1.60938l1.62109 1.84375m-2.61328-1.60937l.8086.92187m14.5-1.375l-6.84766 1.58203m6.84765-1.58203l1.60938 1.85156m-2.60547-1.62109l1.60937 1.85156m12.76563-1.69531l-6.98047.8086m6.98047-.8086l1.39453 2.01953m-2.41016-1.90234l1.39453 2.01953m-2.41015-1.90235l.69922 1.01172m14.67187-.79687l-7.02734-.08985m7.02734.08985l1.125 2.17969m-2.14844-2.19141l1.125 2.17969m13.20313-2.48047l-7.00781.53515m7.00781-.53515l1.3125 2.07422m-2.33203-1.9961l1.3125 2.07422m12.92187-2.75781l-6.80468 1.7461m6.80468-1.7461l1.65625 1.8125m-2.64453-1.5586l1.65235 1.8125m-2.64454-1.55859l.82813.90625m14.33984-1.8164l-6.54687 2.55078m6.54687-2.55078l1.85938 1.59765m-2.8125-1.22656l1.85937 1.59766m-2.8125-1.22657l.9297.80079m14.24218-1.65625l-6.45313 2.77734m6.45313-2.77735l1.91797 1.53125m-2.85547-1.1289l1.91406 1.53515m12.41016-1.7578l-6.59766 2.41796m6.59766-2.41797l1.82812 1.64063m-2.78515-1.28906l.91406.8203m13.5625-.2578l-7.0039.58984m7.0039-.58985l1.32812 2.0625m-2.34765-1.97656l1.32812 2.0625m12.90625-2.72656l-6.80469 1.75m6.8047-1.75l1.65624 1.8086m-2.64453-1.5547l1.65625 1.8086m-2.64844-1.55469l.82813.90625m14.27734-1.96875l-6.42187 2.85547m6.42187-2.85547l1.9336 1.51172m-2.8672-1.09375l.96485.7539m13.41797-.8164l-6.6914 2.14453m6.6914-2.14453l1.75781 1.71485m-2.73047-1.40235l.87891.85547m13.55078-.52734l-6.97265.86328m6.97265-.86328l1.41016 2.0078m11.46094.17579l-6.08985-3.5039m6.08985 3.5039l-.08204 2.45313m13.33594-2.34766l-5.96484-3.71485m5.96484 3.71485l-.16797 2.44922m13.91016-3.46485l-6.82031-1.68359m6.82031 1.6836l.60156 2.3789m-1.59375-2.625l.30078 1.1914m14.07422-1.27734l-6.95312-1.01562"/><g clip-path="url(#ae)"><path fill="none" stroke="#000" stroke-linecap="round" stroke-linejoin="round" stroke-miterlimit="10" stroke-width=".5" d="M467.03906 387.63281l.82422 2.3086"/></g><path fill="none" stroke="#000" stroke-linecap="round" stroke-linejoin="round" stroke-miterlimit="10" stroke-width=".5" d="M466.02734 387.48438l.41407 1.15234"/><g clip-path="url(#af)"><path fill="none" stroke="#000" stroke-linecap="round" stroke-linejoin="round" stroke-miterlimit="10" stroke-width=".5" d="M144.83594 377.21875l-1.67188-6.82422"/></g><g clip-path="url(#ag)"><path fill="none" stroke="#000" stroke-linecap="round" stroke-linejoin="round" stroke-miterlimit="10" stroke-width=".5" d="M144.83594 377.21875l-1.82813 1.63672"/></g><path fill="none" stroke="#000" stroke-linecap="round" stroke-linejoin="round" stroke-miterlimit="10" stroke-width=".5" d="M159.29297 376.71094l-3.95703-5.80469m3.95703 5.80469l-1.14063 2.17187m.56641-3.01562l-.57031 1.08594m14.2539-.11329l-3.54687-6.0664m3.54687 6.0664l-1.28906 2.08985m.77344-2.96875l-1.28906 2.08594m16.71875-3.25l-6.7422-1.97657m6.7422 1.97656l.49609 2.40235m-1.47656-2.6914l.4961 2.40624m-1.47657-2.6914l.2461 1.19921m15.17187-1.52343l-7.02735-.17969m7.02735.17969l1.09765 2.19531m-2.12109-2.22266l1.09766 2.19532m-2.1172-2.22266l1.09376 2.19531m-2.11719-2.21875l.54688 1.09766m15.77734-1.74219l-6.91016 1.26563m6.91016-1.26563l1.52344 1.92188m-2.52735-1.73829l1.52344 1.92188m-2.53125-1.73828l1.52344 1.92187m-2.52734-1.73828l.76171.96094m15.58203-1.4336l-6.9375 1.10548m6.9375-1.10547l1.48047 1.96093m-2.48828-1.79687l1.47656 1.95703m-2.48828-1.79688l.7422.97657m14.60155-1.23828l-6.95703.98437m6.95703-.98437l1.44532 1.98437m-2.45703-1.83984l1.4453 1.98437m-2.45702-1.84375l.72265.99219m14.6289-1.1875l-6.98046.80469m6.98047-.80469l1.39062 2.01953m-2.40625-1.90234l1.39063 2.01953m-2.40625-1.90235l.69531 1.01172m14.66797-1.0703l-7.01563.45312m7.01563-.45313l1.28906 2.08594m-2.3125-2.01953l1.28906 2.08594m-2.30859-2.01954l.64453 1.04297m14.67188-1.52344l-6.9336 1.14844m6.9336-1.14844l1.48828 1.94922m-2.4961-1.78125l1.48829 1.94922m-2.4961-1.78515l.74219.97656m14.55078-1.4961l-6.85937 1.52344m6.85937-1.52344l1.59375 1.86329m-2.58984-1.64063l1.59375 1.86328m-2.59375-1.64453l.79687.9336m14.48047-1.52344l-6.78906 1.82031m6.78906-1.82031l1.67188 1.79687m-2.66016-1.53125l1.67188 1.79297m-2.66016-1.52734l1.67187 1.79297m13.5586-2.52735l-6.66797 2.22266m6.66797-2.22266l1.77734 1.6914m-2.7461-1.36718l1.77735 1.6914m-2.75-1.36718l1.77735 1.6914m13.35156-2.66796l-6.41016 2.88281m6.41016-2.88281l1.9375 1.5039m-2.8711-1.08593l1.9375 1.5039m-2.87109-1.08203l1.9414 1.5039m13.17188-2.48046l-6.27734 3.15625m6.27734-3.15625l2.0039 1.41797m-2.91405-.96094l2 1.41797m-2.91407-.95703l1 .70703m14.4414-.76172l-6.8789 1.42578m6.8789-1.42578l1.57032 1.89063m-2.57031-1.6797l1.5664 1.88673m-2.5664-1.6797l.78125.94142m14.53516-1.35547l-6.88282 1.42187m6.88282-1.42187l1.5664 1.89062m-2.5664-1.6836l1.5664 1.89063m-2.57031-1.6836l.78516.94532m14.3789-1.89062l-6.57031 2.48437m6.57031-2.48437l1.84375 1.61718M386 372.9258l1.84375 1.62108m12.41797-2.01171l-6.55078 2.54687m6.55078-2.54687l1.85937 1.60156m-2.8125-1.23047l1.85938 1.60156m12.52734-1.60937l-6.78906 1.8164m6.78906-1.8164l1.67188 1.79687m-2.66016-1.53125l.83594.89844m13.58594-.15625l-7.02344-.19922m7.02344.19922l1.08984 2.19922m11.50781-.16797l-5.58984-4.25781m5.58984 4.25781l-.39453 2.42188m14.11719-3.10938l-6.40625-2.88281m6.40625 2.88281l.16016 2.44922m13.15625-2.44531l-6.40625-2.89063m6.40625 2.89063l.15625 2.44921"/><g clip-path="url(#ah)"><path fill="none" stroke="#000" stroke-linecap="round" stroke-linejoin="round" stroke-miterlimit="10" stroke-width=".5" d="M142.49219 363.66797l3.01562-6.34766"/></g><path fill="none" stroke="#000" stroke-linecap="round" stroke-linejoin="round" stroke-miterlimit="10" stroke-width=".5" d="M158.65234 363.74219l-2.67187-6.5m2.67187 6.5l-1.5664 1.89062m1.17578-2.83594l-1.5664 1.89063m14.9375-.82813l-2.00391-6.73437m2.0039 6.73438l-1.75 1.72265m1.45703-2.69922l-1.75 1.71875m1.45703-2.69922l-1.74609 1.71875m16.17969.03125l-3.07031-6.3203m3.0703 6.3203l-1.4453 1.98438m1-2.90235l-1.44532 1.98047m.9961-2.90234l-.72266.99219m15.97656.07422l-5.16015-4.76954m5.16015 4.76954l-.62109 2.37109m-.1289-3.0664l-.625 2.37109m15.41796-2.8711l-6.61328-2.3789m6.61328 2.3789l.34766 2.4297m-1.3125-2.77735l.35156 2.42969m-1.3125-2.77344l.35156 2.42578m14.73047-4.48828l-6.29687 3.125m6.29687-3.125l1.99219 1.42969m-2.91016-.97266l1.9961 1.42969m-2.91016-.97657l.9961.71485m14.47656-.57422l-6.94922 1.02734m6.94922-1.02734l1.45703 1.97656m-2.46484-1.82812l1.45312 1.97656m-2.46484-1.82813l.72656.98829m14.63281-1.07813l-7 .60938m7-.60938l1.33594 2.0586m-2.35156-1.96876l1.33203 2.0586m12.9961-2.1914l-6.9922.6953m6.9922-.6953l1.35937 2.04296m-2.375-1.9414l1.35937 2.04296m12.95703-2.26172l-6.96484.9297m6.96484-.9297l1.42969 1.9961m-2.4414-1.85938l1.42578 1.9961m12.83984-2.46875l-6.83984 1.60546m6.83984-1.60546l1.61719 1.84765m-2.61328-1.61328l1.61718 1.84375m12.66016-2.20703l-6.77344 1.86328m6.77344-1.86328l1.6875 1.78125m-2.67188-1.51172l1.6836 1.78516m-2.67188-1.51563l.84375.89453m14.33594-1.76171l-6.5586 2.51953m6.5586-2.51954l1.85156 1.60938m-2.80468-1.24219l1.85156 1.60938m-2.80469-1.2461l.92578.8047m14.0586-2.03126l-6.08594 3.51172m6.08594-3.51172l2.08203 1.30078m-2.96485-.78906l2.07813 1.30078m-2.96485-.79297l1.03907.65235m14.03125-1.70313l-6.0547 3.57031m6.0547-3.5703l2.08984 1.28124m-2.97266-.76172l2.09375 1.28125m-2.97265-.76172l1.04687.64063m14.4375-.6211l-6.8711 1.45704m6.8711-1.45704l1.57813 1.87891m-2.57813-1.66797l1.57813 1.8789m-2.57813-1.66796l.78907.9414m14.53515-1.33202l-6.89062 1.39062m6.89062-1.39063l1.5586 1.89844M372.79688 360l1.55859 1.89844m-2.5586-1.69531l1.5547 1.89453m13.66406-2.6836l-6.6875 2.15625m6.6875-2.15625l1.76171 1.70703m-2.73437-1.39453l1.76172 1.71094m-2.73438-1.39453l1.76172 1.70703m13.52344-2.2539l-6.73828 1.99609m6.73828-1.9961l1.71875 1.75m-2.69922-1.46093l1.71875 1.75m-2.69922-1.46094l.85938.875m14.51953-.98828l-6.94531 1.0664m6.9453-1.0664l1.46876 1.96484m-2.47656-1.8125l1.46484 1.96875m12.88672-1.875l-7.0039.57031m7.0039-.5703l1.32422 2.0664m-2.34375-1.98438l1.32422 2.0664m13.01171-1.58202l-7.0039-.5625m7.0039.5625l.97266 2.2539m-1.99219-2.33593l.48828 1.1289m13.67579-.21484l-6.66407-2.22266m6.66407 2.22266l.41015 2.41797m-1.3789-2.74219l.20312 1.21094m14.1914-1.29688l-6.88671-1.40234m6.88672 1.40234l.6953 2.35156"/><g clip-path="url(#ai)"><path fill="none" stroke="#000" stroke-linecap="round" stroke-linejoin="round" stroke-miterlimit="10" stroke-width=".5" d="M141.47266 349.6211l5.05468-4.88673"/></g><path fill="none" stroke="#000" stroke-linecap="round" stroke-linejoin="round" stroke-miterlimit="10" stroke-width=".5" d="M157.8711 350.64844l-1.10938-6.9414m1.10937 6.9414l-1.95703 1.48047m1.79297-2.4922L155.75 351.1172m16.34375-.74219l-2.92578-6.39063m2.92578 6.39063l-1.49219 1.94531m1.0664-2.875l-1.49218 1.94531m14.05078-.71093l-.5625-7.0039m.5625 7.0039l-2.0664 1.32422m1.98437-2.34375l-2.0664 1.32421m1.98437-2.34375l-1.03125.66407m14.75781 1.34765l-1.0586-6.94921m1.0586 6.94921l-1.96875 1.46485m1.8125-2.47656l-.98437.73437m16.0625-.40625l-4.27344-5.57813m4.27344 5.57813l-1.01953 2.23047m.39843-3.04297l-1.01953 2.23047m.39844-3.04297l-.51172 1.11719m16.23438-1.08203l-6.60157-2.40235m6.60157 2.40235l.34375 2.42968m-1.3047-2.77734l.34376 2.42969m-1.30469-2.78125l.17188 1.21484m15.1328-2.71484l-6.73827 2m6.73828-2l1.71875 1.7461m-2.69922-1.45704l.85938.875M254 346.67578l-6.95703 1.0039M254 346.67579l1.44922 1.98047m-2.46484-1.83203l1.44921 1.98047m12.85547-2.28516l-6.90625 1.3164m6.90625-1.3164l1.53516 1.91406m-2.54297-1.72265l1.53906 1.91406m12.83203-1.7539l-7 .61327m7-.61328l1.33594 2.0586m-2.35547-1.96875l1.33594 2.0586m-2.35547-1.96876l.66797 1.02735m14.66406-1.38282l-6.96094.96485m6.96094-.96485l1.4375 1.98828m-2.44922-1.84765l1.4375 1.98828m12.67188-2.95313l-6.52344 2.6172m6.52344-2.6172l1.875 1.58204m-2.82422-1.20313l1.875 1.58203m12.15625-2.4336l-6.0586 3.5586m6.0586-3.5586l2.08984 1.28516m-2.97265-.76562l2.09375 1.28125m12.05078-1.89063l-5.94922 3.73829m5.94922-3.73829l2.1289 1.22266m-2.99609-.67969l2.1289 1.22266m12.09766-1.6875l-6.04297 3.58594m6.04297-3.58594l2.09766 1.27344m-2.97656-.75391l2.09765 1.27734m12.41407-1.10156l-6.67579 2.1914m6.67579-2.1914l1.76953 1.69922m-2.74219-1.3789l1.77344 1.69921m12.66797-1.3164l-6.98438.78515m6.98438-.78515l1.38671 2.02343m-2.40234-1.91015l1.38672 2.02734m-2.40234-1.91015l.6914 1.01171m14.57813-1.67578l-6.82813 1.65235m6.82813-1.65235l1.6289 1.83594m-2.62109-1.59375l1.6289 1.83203m-2.625-1.59375l1.62891 1.83594m13.63281-2.47656l-6.74609 1.97265m6.7461-1.97265l1.71484 1.7539m-2.69531-1.46875l1.71093 1.75781m-2.6953-1.46875l1.71483 1.75391m13.64844-1.96875l-6.91406 1.2539m6.91406-1.2539l1.51953 1.92578m-2.52343-1.74219l1.51953 1.92188m-2.52735-1.74219l1.51953 1.92578m13.8125-2.27343l-6.92187 1.22265m6.92187-1.22265l1.51172 1.93359m-2.51953-1.75781l1.51172 1.9336m-2.51953-1.75392l1.51172 1.9336m13.85156-2.03516l-6.98828.71485m6.98828-.71485l1.36719 2.03906m-2.38281-1.93359l1.36718 2.03906m-2.3828-1.9375l.67968 1.01954m14.67969-1.08594l-7.01563.4336m7.01563-.4336l1.28125 2.09375m-2.30079-2.03125l1.28125 2.09375m-2.30468-2.03125l.64453 1.04687m14.6914-1.39844l-6.97265.88672"/><g clip-path="url(#aj)"><path fill="none" stroke="#000" stroke-linecap="round" stroke-linejoin="round" stroke-miterlimit="10" stroke-width=".5" d="M467.04688 346.73438l1.41406 2.0039"/></g><path fill="none" stroke="#000" stroke-linecap="round" stroke-linejoin="round" stroke-miterlimit="10" stroke-width=".5" d="M466.03125 346.86328l1.41797 2.0039"/><g clip-path="url(#ak)"><path fill="none" stroke="#000" stroke-linecap="round" stroke-linejoin="round" stroke-miterlimit="10" stroke-width=".5" d="M143.47266 337.33594l1.05468-6.94531"/></g><path fill="none" stroke="#000" stroke-linecap="round" stroke-linejoin="round" stroke-miterlimit="10" stroke-width=".5" d="M157.91797 337.32422l-1.20703-6.92188m1.20703 6.92188l-1.9375 1.50781m1.76172-2.51562l-1.9375 1.5078m16.38281-.8125l-3.11328-6.29687m3.11328 6.29688l-1.42969 1.99219m.97656-2.90625l-1.42968 1.99218m14.13672-.75l-.9922-6.95703m.9922 6.95703l-1.98438 1.44922m1.83984-2.46094l-1.98046 1.44922m1.83593-2.46093l-1.98047 1.4453m16.33985.38282l-2.5039-6.5625m2.5039 6.5625l-1.61328 1.85156m1.25-2.80468l-1.61328 1.84765m1.25-2.80469l-1.61328 1.84766m16.82421-.67187l-4.84375-5.09375m4.84375 5.09375l-.77734 2.32812m.07422-3.07031l-.77734 2.32812m.0703-3.0703l-.77343 2.32812m15.32813-.69141l-4.5-5.39844m4.5 5.39844l-.9297 2.27344m.27345-3.0586l-.92579 2.26954m.27344-3.0547l-.46484 1.13673m15.75-.29688l-5.82422-3.9375m5.82422 3.9375l-.25781 2.4375m-.58985-3.01172l-.25781 2.4414m14.9336-4.61718l-6.85157 1.5625m6.85156-1.5625l1.60547 1.85156m-2.60156-1.625l.80078.92579m13.50781-1.16407l-6.84375 1.58594m6.84375-1.58594l1.61328 1.84766m-2.60937-1.61719l1.61328 1.84766m12.73047-1.9336l-6.90625 1.29688m6.90625-1.29688l1.53125 1.91797m-2.53906-1.73047l1.53125 1.91797m-2.53516-1.72656l.76563.95703m14.5703-1.27734l-6.92577 1.17969m6.92578-1.1797l1.5 1.94141m-2.50781-1.76953l1.5 1.9414m-2.50782-1.76952l.75.96875m14.53125-1.54688l-6.82812 1.64844m6.82812-1.64844l1.6289 1.83203m-2.62108-1.59375l1.6289 1.83594m-2.625-1.59375l.8164.91406m14.39454-1.70703L313.77344 335m6.64453-2.27344l1.79297 1.67578m-2.75781-1.34765l1.79296 1.67578m-2.76171-1.34375l.89843.83984m14.08594-2.09765l-6.11328 3.46484m6.11328-3.46484l2.07031 1.3203m-2.96093-.8125l2.0703 1.31642m12.10157-1.87891l-6.04687 3.57812m6.04687-3.57812l2.09375 1.27734m-2.97266-.75781l1.04688.64063m13.6211.30468l-6.9961.64844m6.9961-.64844l1.34765 2.05078m-2.36328-1.95703l.67187 1.02735m13.66797-.59375l-7.01562-.40625m7.01562.40625l1.02344 2.23046m-2.04297-2.28906l1.02344 2.23047m13.3164-2.4961l-7.02343.2422m7.02343-.2422l1.22657 2.125m-2.25-2.08984l1.22656 2.125m13.09375-2.42578l-6.98828.77344m6.98828-.77344l1.38281 2.02735m-2.40234-1.91407l1.38281 2.02735m12.96094-2.0039l-7.00781.5m7.0078-.5l1.3047 2.07812m-2.32422-2.00391l1.30468 2.07813m-2.32421-2.00782l.65234 1.03906m14.61719-1.75l-6.83594 1.63282m6.83594-1.63281l1.62109 1.83984m-2.61719-1.60156l1.625 1.83984m-2.61718-1.60156l.80859.91797m14.5039-1.34766l-6.85546 1.53906m6.85547-1.53906l1.59765 1.85938m-2.59375-1.63672l1.59766 1.85937m-2.59766-1.63672l1.60156 1.86328m13.73438-2.1953l-6.90625 1.3125m6.90625-1.3125l1.53516 1.91405m-2.53907-1.72265l1.53516 1.91406m-2.53906-1.72266l1.53515 1.91407m13.64063-2.82813l-6.61328 2.3711"/><g clip-path="url(#al)"><path fill="none" stroke="#000" stroke-linecap="round" stroke-linejoin="round" stroke-miterlimit="10" stroke-width=".5" d="M466.86719 332.67578l1.8164 1.65235"/></g><path fill="none" stroke="#000" stroke-linecap="round" stroke-linejoin="round" stroke-miterlimit="10" stroke-width=".5" d="M465.90625 333.02344l1.8164 1.64844m-2.77734-1.3047l.90625.82423"/><g clip-path="url(#am)"><path fill="none" stroke="#000" stroke-linecap="round" stroke-linejoin="round" stroke-miterlimit="10" stroke-width=".5" d="M142.88672 323.8789l2.22656-6.66406"/></g><path fill="none" stroke="#000" stroke-linecap="round" stroke-linejoin="round" stroke-miterlimit="10" stroke-width=".5" d="M158.32813 323.91406l-2.02344-6.73047m2.02344 6.73047l-1.7461 1.72656m1.44922-2.70703l-1.74219 1.72657m1.44922-2.70704l-1.74219 1.72657m16.40235-.09375l-3.53516-6.07422m3.53516 6.07422l-1.29297 2.08594m.77734-2.97266l-1.29297 2.08594m.77735-2.96875l-1.29297 2.08593m15.52344-.2539l-3.3047-6.20313m3.3047 6.20313l-1.3711 2.03515m.89063-2.9375l-1.3711 2.03516m.89063-2.9375l-1.3711 2.03516m.89063-2.9375l-1.3711 2.03515m16.19923.63281l-3.44922-6.12109m3.44922 6.1211l-1.32032 2.0664m.82031-2.95703l-1.32421 2.0664m.8203-2.95702l-1.3203 2.0664m.8203-2.95703l-.66015 1.03125m16.20313 1.10156l-4.89453-5.04297m4.89453 5.04297l-.7539 2.33594m.03905-3.07031l-.75 2.33594m.03907-3.07032l-.75 2.33594m.03906-3.07031l-.375 1.16797m16.19531.61328l-5.63281-4.20313m5.63281 4.20313l-.3711 2.42578m-.44921-3.03516l-.3711 2.42188m14.85547-2.39063l-6.33203-3.04297m6.33203 3.04297l.10157 2.44922m-1.02344-2.89453l.10156 2.45313m14.27734-2.34375l-6.61718-2.3711m6.61719 2.3711l.35546 2.42578m-1.3164-2.77344l.35156 2.42969m14.1211-3.02344l-7.00782-.48828m7.00781.48828l1 2.24219m-2.01953-2.3125l1 2.24218m-2.01953-2.3164l.5 1.1211m14.83984-1.64454l-6.97656.84375m6.97656-.84375l1.40235 2.01563M279.625 320.25l1.40234 2.01172m-2.41797-1.89063l.70313 1.00782m14.58594-1.58985l-6.86328 1.51563m6.86328-1.51563l1.58984 1.86719m-2.58984-1.64453l1.59375 1.86719m-2.59375-1.64844l.79687.9336m14.33203-1.95704l-6.49218 2.6836m6.49218-2.6836l1.89453 1.5625m-2.83984-1.17187l1.89453 1.5625m-2.83984-1.17188l.94922.78125m14.21875-1.64844l-6.41797 2.85547m6.41797-2.85547l1.9336 1.51172m-2.8672-1.09765l1.9336 1.51171m-2.86719-1.09375l.96875.75391m14.1211-1.78125l-6.23048 3.2461m6.23047-3.2461l2.02344 1.38672m-2.92969-.91406l2.02344 1.38672m-2.92969-.91797l1.01172.69531m14.20703-1.44922l-6.41406 2.8711m6.41406-2.8711l1.9375 1.5039M346 319.53126l1.9375 1.5039m12.32812-1.8789l-6.44921 2.78516m6.44921-2.78516l1.91797 1.53125m-2.85547-1.125l.95704.76563m13.36328-1.01172l-6.58203 2.46093m6.58203-2.46093l1.83593 1.625m11.58594-1.28516l-6.79687 1.78516m6.79687-1.78516l1.66406 1.80078m11.25.92188l-5.99609-3.66407m5.125 3.13282l-.07422 1.22265m14.64063-1.5625l-6.75782-1.91797m5.77735 1.63672l.25781 1.19922m14.03906-2.83203l-6.76172 1.91016m5.78125-1.63282l.84766.88672m13.4375-1.20703l-6.73828 1.99219m6.73828-1.99219l1.71875 1.7539m11.4375-2.1875l-6.41797 2.85938m6.41797-2.85937l1.9336 1.51172m-2.8672-1.09375l1.9336 1.5078m11.9961-2.49218l-5.78126 3.9961"/><g clip-path="url(#an)"><path fill="none" stroke="#000" stroke-linecap="round" stroke-linejoin="round" stroke-miterlimit="10" stroke-width=".5" d="M466.45313 318.55078l2.17968 1.125"/></g><g clip-path="url(#ao)"><path fill="none" stroke="#000" stroke-linecap="round" stroke-linejoin="round" stroke-miterlimit="10" stroke-width=".5" d="M465.60938 319.1289l2.17968 1.12891"/></g><path fill="none" stroke="#000" stroke-linecap="round" stroke-linejoin="round" stroke-miterlimit="10" stroke-width=".5" d="M464.76953 319.71094l1.08985.5664"/><g clip-path="url(#ap)"><path fill="#00f" fill-rule="evenodd" d="M290.59375 480.96484h8.6211v-10.14843h-8.6211v10.14843"/></g><path fill="azure" fill-rule="evenodd" d="M292.42969 472.65234h.83203v2.82032h3.28515v-2.82032h.83204v6.47657h-.83204v-2.91407h-3.28515v2.91407h-.83203v-6.47657"/><path fill="#ff3030" fill-rule="evenodd" d="M251.34375 472.08594h7.6914V461.9414h-7.6914v10.14453"/><path fill="azure" fill-rule="evenodd" d="M253.17578 463.77344h.83594v5.73828h3.1914v.74219h-4.02734v-6.48047"/><path fill="#ffffe0" fill-rule="evenodd" d="M332.86719 462.7461h22.17969v-10.19141h-22.1797v10.1914"/><path fill-rule="evenodd" d="M336.36719 454.38672h.50781v6.29687h-.78516v-4.48828h-1.39062v-.5586l.5625-.0625.25-.05468.23047-.08984.20312-.14063.17578-.21094.14063-.29296.10547-.39844m4.8125 0l.23047.01953.21875.0586.20703.08593.19531.1211.1875.15234.16797.17578.30469.41797.24218.49219.1797.54687.11327.58203.03516.58985-.03516.59375-.11328.58203-.17969.55469-.24218.5039-.3047.42578-.16796.17969-.1875.15234-.19531.125-.20703.09375-.21875.0547-.23047.01952-.23047-.01953-.21875-.05469-.20703-.09375-.19531-.125-.1836-.15234-.17187-.17969-.30079-.42578-.24609-.5039-.17969-.5547-.10937-.58202-.03906-.59375h.83203l.03125.5625.08203.5078.125.44142.16015.375.19141.30078.21094.21875.22265.13671.22657.04688.22656-.04688.22266-.13671.21093-.21875.19141-.30079.16016-.375.1289-.4414.08203-.50781.02735-.5625-.02735-.5625-.08203-.5-.1289-.4336-.16016-.36719-.1914-.29296-.21094-.21485-.22266-.1289-.22656-.04688-.22656.04688-.22266.1289-.21094.21485-.1914.29296-.16016.3672-.125.43359-.08203.5-.03125.5625h-.83203l.03906-.58985.10937-.58203.1797-.54687.24608-.4922.30079-.41796.17187-.17578.1836-.15235.1953-.12109.20704-.08594.21875-.05859.23047-.01953m5.09375 0h.50781v6.29687h-.78906v-4.48828h-1.38672v-.5586l.5586-.0625.2539-.05468.23047-.08984.20312-.14063.17188-.21094.14062-.29296.10938-.39844m2.82031 2.17578h.78906l.01953-.3164.0586-.28516.09765-.2539.14063-.21485.1836-.17188.22265-.1289.26562-.08204.3086-.02734.23437.02344.22656.0625.20313.10156.17969.13672.14844.17188.11328.20703.0703.23828.02735.26172-.02344.26953-.0664.22656-.10938.1914-.15625.16798-.19921.16406-.2461.16797-.63672.38671-.53515.3125-.4375.31641-.34766.32422-.26172.33594-.1914.35156-.125.3711-.07032.39452-.01953.41797h4.21094v-.74218h-3.33203l.08203-.28125.11328-.23829.14844-.20312.1875-.17969.23047-.17187.28125-.17578.71484-.41407.41797-.20703.34375-.23047.28125-.25.21875-.26953.16406-.27734.10938-.28125.0664-.28516.01953-.28125-.04296-.38672-.1211-.34765-.1875-.30469-.25-.26563-.30078-.21093-.34766-.16016-.3789-.09765-.40625-.03516-.4375.03515-.39844.09766-.35547.16797-.30469.23438-.24609.30468-.1875.3711-.11328.44921-.04297.51563"/><path fill="#ffffe0" fill-rule="evenodd" d="M217.46875 457.34766h22.17969v-10.19141h-22.17969v10.1914"/><path fill-rule="evenodd" d="M220.96875 448.98828h.50781v6.29688h-.78515v-4.4922h-1.38672v-.55468l.5586-.0664.25-.05079.23046-.08984.20313-.14063.17578-.21093.14062-.29688.10547-.39453m4.8125 0l.23047.01953.21875.05469.20703.08984.19922.1211.1836.14844.17187.17578.30078.42187.24219.49219.17968.54687.11328.57813.03907.59375-.03906.58984-.11329.58594-.17968.55469-.2422.5-.30077.42969-.17188.17968-.1836.15235-.19921.125-.20703.08984-.21875.0586-.23047.01952-.22656-.01953-.21875-.05859-.21094-.08984-.19531-.125-.1836-.15235-.17187-.17969-.30078-.42968-.24219-.5-.17969-.55469-.11328-.58594-.03906-.58984h.83594l.02734.5625.08203.5039.125.44532.16406.375.19141.29687.20703.22266.22266.13672.22656.04687.22656-.04687.22266-.13672.21094-.22266.1914-.29687.16406-.375.125-.44531.08204-.50391.02734-.5625-.02734-.5625-.08203-.5-.125-.4375-.16407-.36328-.1914-.29297-.21094-.21485-.22266-.1328-.22656-.04298-.22656.04297-.22266.13281-.20703.21485-.1914.29297-.16407.36328-.125.4375-.08203.5-.02734.5625h-.83594l.03906-.59375.11328-.57813.17969-.54687.24219-.49219.30078-.42187.17187-.17579.1836-.14843.19531-.1211.21094-.08984.21875-.05469.22656-.01953m5.09375 0h.50781v6.29688h-.78515v-4.4922h-1.39063v-.55468l.5625-.0664.25-.05079.23047-.08984.20313-.14063.17578-.21093.14062-.29688.10547-.39453m2.82422 2.17578h.78516l.01953-.3164.05859-.28516.10156-.2539.14063-.21485.17969-.17188.22265-.1289.26563-.08203.30859-.02735.23828.01954.22266.0625.20312.10156.17969.14062.14844.17188.11328.20703.07422.23437.02344.26563-.02344.26953-.0625.22266-.11328.1914-.15235.17188-.20312.16406-.2461.16406-.6328.39063-.53907.3125-.4375.3164-.34766.32422-.26172.33594-.1914.35156-.125.3711-.07031.39062-.01954.42188h4.21094v-.7422h-3.33203l.08594-.28515.11328-.23437.14844-.20313.1875-.17969.23047-.17187.27734-.17578.71875-.41406.41406-.20704.34375-.23046.28125-.25.21875-.26954.16406-.27734.11328-.28515.0625-.28516.01954-.28125-.03907-.38281-.12109-.34766-.1914-.3086-.25-.26171-.30079-.21094-.34765-.16016-.37891-.09765-.40625-.03516-.4336.03516-.39843.09765-.35547.16407-.30469.23437-.25.30469-.1836.375-.11718.44531-.03906.51953"/><path fill="#ffffe0" fill-rule="evenodd" d="M346.1836 384.21875h22.17968v-10.19531H346.1836v10.19531"/><path fill-rule="evenodd" d="M349.6836 375.85938h.5078v6.29296h-.78906v-4.48828h-1.38671v-.55469l.55859-.0664.2539-.05469.23047-.08984.20313-.14063.17187-.21094.14063-.29296.10937-.39454m4.8125 0l.23047.01563.21875.0586.20703.08984.19532.1211.18359.14843.17188.17578.30078.41797.24609.4961.17969.54296.10937.58203.03906.58985-.03906.59375-.10937.58203-.17969.55469-.2461.5039-.30077.42578-.17188.17969-.1836.15625-.1953.1211-.20704.09374-.21875.0547-.23047.01952-.23046-.01953-.21875-.05469-.20704-.09375-.1953-.12109-.1875-.15625-.16798-.17969-.30469-.42578-.24218-.5039-.17969-.5547-.11328-.58202-.03516-.59375h.83203l.02735.5625.08203.5078.1289.44142.16016.375.1914.30078.21094.22265.22266.13672.22656.04688.22657-.04688.22265-.13672.21094-.22265.1914-.30079.16016-.375.125-.4414.08203-.50781.03125-.5625-.03125-.5625-.08203-.5-.125-.4336-.16015-.36719-.19141-.29296-.21094-.21094-.22265-.13281-.22657-.04688-.22656.04688-.22265.1328-.21094.21095-.1914.29296-.16017.3672-.1289.43359-.08203.5-.02735.5625h-.83203l.03516-.58985.11328-.58203.17969-.54297.24219-.4961.30468-.41796.16797-.17578.1875-.14844.19531-.1211.20704-.08984.21875-.05859.23046-.01563m5.08985 0h.51172v6.29297h-.78907v-4.48828h-1.38671v-.55469l.55859-.0664.2539-.05469.22657-.08984.20312-.14063.17578-.21094.14063-.29296.10547-.39454m6.80469 1.6172h-.78516l-.05469-.21094-.07812-.1875-.10938-.15625-.1289-.13282-.14844-.10156-.16016-.07422-.16797-.04687-.17187-.01563-.32813.04297-.28515.11719-.2461.19922-.20703.26562-.16015.33985-.11329.40234-.0703.46875-.02345.52734.1875-.20312.1875-.16016.1836-.1211.1875-.08984.1875-.05859.1914-.03906.40235-.02344.30469.03125.3203.08984.31641.15625.29688.21875.2539.28516.19922.35156.07422.19922.05078.21875.02735.23438.00781.25-.78906.04687-.02735-.25781-.07812-.25-.1211-.23438-.16015-.21093-.19531-.1797-.21875-.13671-.23829-.08594-.2578-.03125-.25391.03125-.23829.08594-.22265.13672-.1914.17969-.16016.21093-.125.23438-.07422.25-.02735.25781.02735.25781.07422.25391.125.23438.16015.20703.1914.17968.22267.13672.23828.08985.2539.03125.25781-.03125.23829-.08985.21875-.13672.1953-.17968.16017-.20704.12109-.23437.07812-.2539.02735-.25782.78906-.04687-.03125.37109-.09375.3711-.15625.35937-.22266.32812-.28906.28125-.17187.1211-.1875.10156-.20704.08203-.22265.0625-.24219.03906-.26172.01172-.28125-.01562-.26172-.04688-.23437-.07422-.21875-.10546-.19531-.13282-.17188-.15625-.15625-.17969-.13281-.20312-.11719-.22266-.09765-.24218-.14844-.53516-.08594-.59375-.02734-.63672.03906-.7461.11328-.66406.1875-.57421.1211-.25782.13671-.23046.15235-.20704.17187-.17968.1875-.15625.19922-.12891.21875-.10156.23438-.07422.24609-.04688.26172-.01171.36719.03125.33203.09765.29296.14844.25782.20312.21094.23829.16796.27734.11329.30078.0625.32031"/><path fill="#ffffe0" fill-rule="evenodd" d="M190.83984 352.60938h22.1797v-10.19141h-22.1797v10.1914"/><path fill-rule="evenodd" d="M194.33984 344.25h.50782v6.29297h-.78516v-4.48828h-1.39063V345.5l.5625-.0664.25-.0547.23047-.08984.20313-.14062.17578-.20703.14063-.29688.10546-.39453m4.8125 0l.23047.01953.21875.05469.20703.08984.19532.1211.1875.14843.16797.17579.30468.42187.24219.49219.17969.54687.11328.57813.03516.58984-.03516.59375-.11328.58594-.17969.55469-.24219.5-.30469.42968-.16796.1797-.1875.15233-.19532.125-.20703.08985-.21875.0586-.23047.01952-.23047-.01953-.21875-.0586-.20703-.08983-.1953-.125-.1836-.15235-.17188-.17969-.30078-.42968-.2461-.5-.17968-.5547-.10938-.58593-.03906-.59375h.83203l.03125.5664.08203.50391.125.44141.16016.375.1914.30078.21095.22266.22265.13672.22656.04687.22657-.04687.22265-.13672.21094-.22266.1914-.30078.16016-.375.1289-.4414.08204-.50391.02734-.5664-.02734-.5586-.08203-.5-.1289-.4375-.16016-.36719-.19141-.28906-.21094-.21485-.22265-.1328-.22657-.04298-.22656.04297-.22266.13281-.21093.21485-.1914.28906-.16017.36719-.125.4375-.08203.5-.03125.5586h-.83203l.03906-.58985.10938-.57813.17969-.54687.2461-.49219.30077-.42188.17188-.17578.1836-.14843.1953-.1211.20703-.08984.21875-.05469.23047-.01953m5.09375 0h.50782v6.29297h-.78907v-4.48828h-1.38672V345.5l.5586-.0664.2539-.0547.23047-.08984.20313-.14062.17187-.20703.14063-.29688.10937-.39453m6.80078 1.6211h-.78515l-.05078-.21485-.08203-.1836-.10938-.16015-.1289-.13281-.14454-.10156-.16015-.07422-.16797-.04688-.17578-.01172-.32813.03906-.28515.1211-.2461.19531-.20312.26953-.16016.33594-.11719.40625-.0703.46484-.02345.52735.1875-.20313.1875-.16015.1836-.1211.1875-.08984.1875-.0586.1914-.03906.40235-.02344.3086.03125.3203.09375.31641.15235.29297.22265.2539.28125.19922.35157.07422.19922.05078.21875.03125.23437.00391.2539-.78906.04298-.02344-.25782-.07813-.25-.125-.23437-.16015-.21094-.1914-.17578-.21876-.14063-.24219-.08593-.2539-.03125-.25781.03125-.23828.08594-.21875.14062-.19532.17578-.16015.21094-.1211.23437-.07812.25-.02735.25782.02735.26171.07812.25.1211.23438.16015.21094.19531.17578.21875.13672.23829.08984.2578.03125.25392-.03125.24218-.08984.21875-.13672.1914-.17578.16017-.21094.125-.23438.07812-.25.02344-.26171.78906-.04297-.03125.36719-.09375.375-.15625.35546-.22266.32813-.28906.28515-.17187.1172-.1875.10156-.20703.08593-.22266.0586-.24219.03906-.25781.01562-.28516-.01562-.25781-.05078-.23828-.07422-.21484-.10547-.19532-.13281-.17578-.15625-.15234-.17969-.13672-.19922-.11719-.22265-.09766-.2422-.14843-.53515-.08203-.59375-.02735-.64062.03906-.7422.11329-.66405.1875-.57813.11718-.2539.13672-.23438.15625-.20703.16797-.17969.1875-.15625.20313-.1289.21484-.10157.23438-.07422.24609-.04296.26172-.01563.36719.03125.33203.09766.29687.15234.2539.19922.21095.23828.16796.27734.11328.30079.0625.32421"/><path fill="#ffffe0" fill-rule="evenodd" d="M248.53906 336.26172h22.13281v-10.1914h-22.1328v10.1914"/><path fill-rule="evenodd" d="M252.03906 327.90234h.50781v6.29297h-.78515v-4.48828h-1.39063v-.55469l.5586-.0664.2539-.05469.23047-.08984.20313-.14063.17187-.21094.14453-.29296.10547-.39454m4.8125 0l.23047.01954.21875.05468.20703.08985.19531.12109.1836.14844.17187.17578.3047.41797.24218.4961.17969.54687.10937.57812.03906.58985-.03906.59375-.10937.58593-.1797.55078-.24218.50391-.30469.42969-.17187.17969-.1836.15234-.1953.1211-.20704.09374-.21875.0586-.23047.01953-.23047-.01953-.21875-.0586-.20703-.09375-.19531-.1211-.1836-.15233-.17187-.1797-.30469-.42968-.24218-.5039-.1797-.55079-.10937-.58594-.03906-.59375h.83203l.02735.5625.08203.50782.1289.4414.16016.375.1914.30079.21094.22265.22266.13672.22656.04688.22656-.04688.22266-.13672.21094-.22265.1914-.30079.16016-.375.1289-.4414.07813-.50781.03125-.5625-.03125-.5586-.07812-.5039-.1289-.4336-.16017-.36719-.1914-.28906-.21094-.21484-.22265-.13281-.22657-.04297-.22656.04296-.22266.13282-.21093.21484-.19141.28906-.16016.3672-.1289.43358-.08203.50391-.02735.5586h-.83203l.03906-.58985.10938-.57812.17969-.54688.24218-.4961.3047-.41796.17187-.17578.18359-.14844.19531-.1211.20703-.08984.21875-.05469.23047-.01953m2.96094 2.17579h.78906l.01953-.31641.0586-.28906.09765-.25.14063-.21485.1836-.17578.22265-.1289.26562-.07813.3086-.02734.23437.01953.22656.0625.20313.10156.17969.13672.14844.17578.11328.20703.0703.23438.02735.26562-.02344.26563-.0664.22656-.10938.1914-.15625.17188-.19921.16016-.2461.16796-.63672.38672-.53515.31641-.4375.3164-.34766.32423-.26563.33593-.1875.35156-.125.3672-.0703.39452-.01954.41797h4.21094v-.73828h-3.33203l.08203-.28515.11328-.23829.14844-.19921.1875-.1797.23047-.17187.28125-.17578.71484-.41797.41406-.20312.34766-.23047.28125-.2539.21875-.26563.16406-.27735.10938-.28515.0664-.28516.01953-.28125-.04296-.38281-.1211-.34766-.1875-.3086-.25-.26171-.30469-.21484-.34375-.15625-.3789-.10157-.40625-.03125-.4375.03125-.39844.10157-.35547.16406-.30469.23437-.24609.3047-.1875.375-.11328.4453-.04297.51954m6.94531-2.17579l.22656.01954.21875.05468.21094.08985.19531.12109.1836.14844.17187.17578.30079.41797.24609.4961.17969.54687.10937.57812.03906.58985-.03906.59375-.10937.58593-.1797.55078-.24608.50391-.30079.42969-.17187.17969-.1836.15234-.1953.1211-.21094.09374-.21875.0586-.22657.01953-.23047-.01953-.21875-.0586-.20703-.09375-.19922-.1211-.18359-.15233-.17188-.1797-.30078-.42968-.24218-.5039-.1797-.55079-.11327-.58594-.03516-.59375h.83203l.02735.5625.08203.50782.125.4414.16406.375.1914.30079.21094.22265.22266.13672.22656.04688.22656-.04688.22266-.13672.21094-.22265.1875-.30079.16406-.375.125-.4414.08203-.50781.03125-.5625-.03125-.5586-.08203-.5039-.125-.4336-.16406-.36719-.1875-.28906-.21094-.21484-.22265-.13281-.22657-.04297-.22656.04296-.22266.13282-.21093.21484-.19141.28906-.16406.3672-.125.43358-.08203.50391-.02735.5586h-.83203l.03516-.58985.11328-.57812.17969-.54688.24218-.4961.30079-.41796.17187-.17578.1836-.14844.19921-.1211.20703-.08984.21875-.05469.23047-.01953"/></g></defs><use xlink:href="#aq"/></svg>