<svg xmlns="http://www.w3.org/2000/svg" role="img" xmlns:xlink="http://www.w3.org/1999/xlink" viewBox="142.45 309.95 326.84 171.84"><defs><clipPath id="a"><path d="M144 404h1v76.32813h-1zm0 0"/></clipPath><clipPath id="b"><path d="M144 311.67188h1V325h-1zm0 0"/></clipPath><clipPath id="c"><path d="M144 311.67188h324v168.65625H144zm0 0"/></clipPath><clipPath id="d"><path d="M386 478h7v2.32813h-7zm0 0"/></clipPath><clipPath id="e"><path d="M467 311.67188h1v168.65625h-1zm0 0"/></clipPath><clipPath id="f"><path d="M144 479h4v1.32813h-4zm0 0"/></clipPath><clipPath id="g"><path d="M147 480h2v.32813h-2zm0 0"/></clipPath><clipPath id="h"><path d="M146 480h1v.32813h-1zm0 0"/></clipPath><clipPath id="i"><path d="M153 479h9v1.32813h-9zm0 0"/></clipPath><clipPath id="j"><path d="M160 480h2v.32813h-2zm0 0"/></clipPath><clipPath id="k"><path d="M159 480h2v.32813h-2zm0 0"/></clipPath><clipPath id="l"><path d="M166 479h9v1.32813h-9zm0 0"/></clipPath><clipPath id="m"><path d="M173 479h3v1.32813h-3zm0 0"/></clipPath><clipPath id="n"><path d="M172 479h3v1.32813h-3zm0 0"/></clipPath><clipPath id="o"><path d="M180 479h8v1.32813h-8zm0 0"/></clipPath><clipPath id="p"><path d="M187 479h3v1.32813h-3zm0 0"/></clipPath><clipPath id="q"><path d="M186 479h2v1.32813h-2zm0 0"/></clipPath><clipPath id="r"><path d="M193 479h8v1.32813h-8zm0 0"/></clipPath><clipPath id="s"><path d="M200 479h3v1.32813h-3zm0 0"/></clipPath><clipPath id="t"><path d="M199 479h2v1.32813h-2zm0 0"/></clipPath><clipPath id="u"><path d="M206 478h9v2.32813h-9zm0 0"/></clipPath><clipPath id="v"><path d="M213 478h3v2.32813h-3zm0 0"/></clipPath><clipPath id="w"><path d="M212 479h3v1.32813h-3zm0 0"/></clipPath><clipPath id="x"><path d="M220 478h8v2.32813h-8zm0 0"/></clipPath><clipPath id="y"><path d="M226 478h4v2.32813h-4zm0 0"/></clipPath><clipPath id="z"><path d="M225 479h3v1.32813h-3zm0 0"/></clipPath><clipPath id="A"><path d="M233 478h8v2.32813h-8zm0 0"/></clipPath><clipPath id="B"><path d="M240 478h3v2.32813h-3zm0 0"/></clipPath><clipPath id="C"><path d="M239 479h2v1.32813h-2zm0 0"/></clipPath><clipPath id="D"><path d="M247 478h7v2.32813h-7zm0 0"/></clipPath><clipPath id="E"><path d="M253 478h3v2.32813h-3zm0 0"/></clipPath><clipPath id="F"><path d="M260 478h8v2.32813h-8zm0 0"/></clipPath><clipPath id="G"><path d="M273 478h8v2.32813h-8zm0 0"/></clipPath><clipPath id="H"><path d="M287 477h7v3.32813h-7zm0 0"/></clipPath><clipPath id="I"><path d="M300 477h7v3.32813h-7zm0 0"/></clipPath><clipPath id="J"><path d="M314 477h6v3.32813h-6zm0 0"/></clipPath><clipPath id="K"><path d="M328 477h5v3.32813h-5zm0 0"/></clipPath><clipPath id="L"><path d="M341 477h5v3.32813h-5zm0 0"/></clipPath><clipPath id="M"><path d="M355 476h4v4.32813h-4zm0 0"/></clipPath><clipPath id="N"><path d="M370 476h1v4.32813h-1zm0 0"/></clipPath><clipPath id="O"><path d="M382 476h3v4.32813h-3zm0 0"/></clipPath><clipPath id="P"><path d="M394 477h6v3.32813h-6zm0 0"/></clipPath><clipPath id="Q"><path d="M408 476h5v4.32813h-5zm0 0"/></clipPath><clipPath id="R"><path d="M421 476h5v4.32813h-5zm0 0"/></clipPath><clipPath id="S"><path d="M435 476h4v4.32813h-4zm0 0"/></clipPath><clipPath id="T"><path d="M447 477h6v3.32813h-6zm0 0"/></clipPath><clipPath id="U"><path d="M460 477h7v3.32813h-7zm0 0"/></clipPath><clipPath id="V"><path d="M144 466h4v2h-4zm0 0"/></clipPath><clipPath id="W"><path d="M144 453h4v2h-4zm0 0"/></clipPath><clipPath id="X"><path d="M144 439h4v3h-4zm0 0"/></clipPath><clipPath id="Y"><path d="M144 425h4v4h-4zm0 0"/></clipPath><clipPath id="Z"><path d="M466 426h2v3h-2zm0 0"/></clipPath><clipPath id="aa"><path d="M144 411h4v5h-4zm0 0"/></clipPath><clipPath id="ab"><path d="M144 398h4v5h-4zm0 0"/></clipPath><clipPath id="ac"><path d="M144 386h4v2h-4zm0 0"/></clipPath><clipPath id="ad"><path d="M466 387h2v4h-2zm0 0"/></clipPath><clipPath id="ae"><path d="M144 370h3v8h-3zm0 0"/></clipPath><clipPath id="af"><path d="M144 356h1v9h-1zm0 0"/></clipPath><clipPath id="ag"><path d="M144 343h3v8h-3zm0 0"/></clipPath><clipPath id="ah"><path d="M466 345h2v4h-2zm0 0"/></clipPath><clipPath id="ai"><path d="M144 330h1v8h-1zm0 0"/></clipPath><clipPath id="aj"><path d="M466 332h2v3h-2zm0 0"/></clipPath><clipPath id="ak"><path d="M465 332h3v3h-3zm0 0"/></clipPath><clipPath id="al"><path d="M144 316h1v9h-1zm0 0"/></clipPath><clipPath id="am"><path d="M466 318h2v2h-2zm0 0"/></clipPath><clipPath id="an"><path d="M465 318h3v3h-3zm0 0"/></clipPath><g id="ao" clip-path="url(#clip1)"><path fill="#fff" fill-opacity="0" fill-rule="evenodd" d="M0 0h1000v1000H0zm0 0"/><path fill="#d3d3d3" fill-opacity="0" fill-rule="evenodd" d="M162.15234 355.86719l-.23437.29297.0586.23437.11718.17188.17578.23437.29297.34766.11328.0586.11719-.17188.0586-.23438.17577-.17578.46485-.17578h.69922l.23437.29297.28906.8164.0586.17579.17578.23046.35156.23438.69922.69922.17188.17578.23437.34765.23438.41016.28906.58203.41015.46485.23047.23437.23438.17578.11719.23047.17578.29297.17187 1.16406v.23438l.0586.28906.05859.11719.11719.11719.34765.41015.11719.17188.17578.17578.17578.23437.11719.17188.17188.35156.05859.23438.23437.40625.23438-.0586-.17578.17578-.0586.92969h-.58203l-.23437-.11328-.34766.11328-.11719.11719-.05859.29297-.0586.17578-.11718.17187-.46484.29297-.0586.23438-.0586.11328v.64453l.0586.17187v.41016l.0586.0586v.40624l.05859.40625.11719.17579.05859.05859.23047.64062-.0586.29297v.69922l-.05859.58203v.23438l-.0586.23047-.05468.35156v1.92187l.05469.1172h.42578l-.36719.11718-.02344.35156.89063 1.16797 1.74219.53906 1.33984.35938v.53906l.08984.8086.53516.71484 1.51953.26953.89063-.08594.08984 1.16406.53516.1797 1.16015-.1797 2.05469-.98437 1.16016-.36328 1.8789-.17578 1.69531-.1797-.17968.71876-1.51563.08594-1.25.08984-.80469.26953-1.07421.8086.26953.71875.53515.89843-.17968.625-.26563.8086.26563 1.07812.625.89844.80468.17969 1.25-.1797-.26562.72267.09766.5039.05468.29297v.17188l.0586.29296v.40625l.17578.1172.35156.11718h.40625l.29297-.17578.11328-.11719.0586-.11719.11718-.23047.0586-.17578.35156-.46484.23047-.17578.17578-.0586.17578.0586.0586.17578.11718.98828.05469.46875.0586.17188.11718.23437.17578.0586.8164.05859h.28907l.11719.23437.05859.40625.0586.35156v1.10547l.11718.29297.11719.34766.28906.69922.17578.35156.58203.7539.35157.17579.17187.0586.46875.23437.64063.46484.34765.23438.29297.17578.29297.05468.23047.0625.8164.34766.29297.17578.11328.17188.35157.35156.11719.17578.52343.64063v.28906l.0586.35156v.34766l.05859.35156.0586.28906.11718.0586.17188.05859h.17578l.58203.23437.17578.1172.17578.28905.17578.23438.11328.23437.29297.23047.11719.11719v.41016l.0586.05468.28906.23438.23437.11719.0586.11718.11718.17188.0586.11719.23047.23437.05859.17578.23437.0586.1172.05859-.1172.11328-.05859.11719v.11719l-.11719.29296-.11719.28907v.58203l.17579.11719.11718.05859.0586.11719.11719.11719.11328.05859.17578.34765.0586.35157.05858.40625v.17578l-.05859.17578-.11719.69922v.17187l.1172.17579.29296.29296h.40625l.17578.1172.11719.17187.11719.29296v.23438h-.52735l-.23047-.23438h-.23437l-.17578.0586-.0586.69922.0586.34765.11719.17579.17578.41015.11718.23047.28907.46875.17578.05469h.52344l.23437.0586.75781.64062.0586.29296v.23438l.05859.0586.23047.34765v.35156l-.11719.17188v.29297l.29297.28906.29297.17578.17187.0586.29297.17577.29297.1172.58203.40624.28906.23438.29297.17578.21875.16015.01563.01172.23047.17579.64062.52343.17578.23438.1172.17578.17577.17578.11328.17188v.64062l.1172.17578.46874.11719.58203.11719.23438.05859.23047.11328.29297.11719.11328.0586.58593.35156.28907.17187.17578.0625.17578.05469.17578.0586.69922.35155.28906.17579.23438.05468.28906.17578.23437.1172.64063.40624.29297.11719.17187.0586.23438.05859.41015.05859.23047.0586.23438.11718.0586.17188-.41017.17578.46875.0586.0586.29296.11328.23438.17578.05468.23438.0586.17578.05859.40625.11719.64062.23437.11719.17188.0586.23437v.17578l-.0586.1172-.0586.40624.23438.23438.11719.05859.34766.11719.64062.23047.17578.11718.28906.1172.17578.17577.23438.46485.58203 1.10546.17578.17579.34766.17578.17578.11719.35156.11718 1.04688.52344.23437.0586.46485.11327.29297.0586.46484.17578.75781.58203.23438.23438.34765.46484.17578.17578.28907.23438.8164.69921.29297.17579.28906.28906.29297.17578.29297.28906.69531.64063.17578.17578.29297.23437.28907.23438.46875.28906.64062.58203.34766.23438.23437.29297.34766.34765.35156.46485.9336.99218.34765.40625.11719.17579.23437.05859.11328.11719.64454.17578.23047.11328.23437.0586.29297.17577.23047.1172.9336.69921.40624.40625.23438.17578.40625.17578.23437.11719.8164.34766.34766.23437.23438.11719.29297.28906.23047.11719.7578.35156.35157.17188.23047.05859.29297.11719.23437.0586.8711.17577h.8164l.46875.23047.17188.0586.875.69921.46484.1172.29297.05858.17578.0586.23047.0586.46875.05859.34766.05859.35156.0586.40625.05859h.29297l.17187.0586v.23046l.17578.17578h.29297l.34766.0586.35156.05859.69922.11719h.64063l.46484-.23438.29297-.17578.17187-.11719.41016-.17187.28906-.17578.9336-.46485.46875-.29297.52343-.29296.46485-.17188.46484-.17578 1.05078-.46485.28906-.11718.41016-.11719.28906-.11719.52735-.17578 1.51562-.69922.58203-.34765.28907-.0586.29297-.0586.34765-.11718.875-.23047.35156-.11719h.11329l.23437-.05859.875-.23437.23438-.0586h.8125l.35156-.0586.8164-.11718.17188-.0586.35156-.05468.29297-.0586.23047-.05859.8164-.17578.17579-.0586h.34765l.23438-.05859.46484-.11718.75781-.17188.23438-.0586h.34765l.41016-.11718.28906-.0586 1.28516-.05859h.28906l.41016-.0586.23047-.05858h.17578l.875-.1172h.40625l.41015-.11718h.34766l.35156-.11328.8711-.0586h1.75l1.04687.28907.41016.11719.28906.11718.35156.11719.28907.11719 1.05078.17187.28906.0586h.29297l.29297.05859.17187.0586.41016.05859.17187.0586.1172.05858h.11718l.11719.0586.35156.0586h.11328l.41016.0664 1.92187.39453 1.92578.39453 1.51953.44922 1.69532.71875 2.14453.80469 1.60547-.71875 1.42968-.80469 1.16016-1.07813 1.25-.44921 3.03516-.71875 1.875-.35938 2.14453-1.34765 2.23437-1.25391 2.5-1.25781 1.69531-.44922 1.78516-.17969 1.16016-.26953.625.53906 1.33984-.26953.71485-.98828.98437-1.34375.44531-.17969.80469-.35937 1.875-.53907 1.78516-.44921 1.25-.26954 1.16015-.08984 1.69922-.08984 1.96094-.26954 1.25-.08984h.53906l.625-.08984h.89063l2.14453-.17969 2.41015-.17969 2.58985-.08984 1.69531.17969 1.60938.08984 1.42968.35938 1.16016.71875 1.875.98828 1.16015 1.52734.26563.71484.6289.08985.35548.89844.53515.53906.53516 1.52734 1.07422.35938h.53515l-.80469.53515.08985 1.70703.71484 2.69532.89063.80468.89453.98829.71484 1.2578 1.78516.53907 1.51953-.17969.35547 1.34375 1.60937-.80469.98047-.53906.26953.26953.31641-.21484.21875-.14453.80078.44922.44922-.35938h.35547l.53515-.26953.53907-.71875.53515-.26953.625-.98828 1.16016.44922.83984.3711 1.39454.61718 1.6953-.17969h1.60548l1.78515.08985.17969-1.70704.53516-1.34375.80468.26954.4922.84765.40233.40625-.08984.53906v.35938l.71485.44922.71093-.26953h1.42969l.35938.98828.4453 1.25781.71485 1.34375 1.25.6289 1.69531.62891.71485-.17969.17969-.53906.98046-.08984.44922.35937.08594 1.25782-.26563.6289-.53515.17969v.53906l.71484.98438.26563.53906.98437.98828.80078 1.07813-.26562.35937-.08985.89844-.625 2.33203-.35546 2.0664-.08985 1.79298-.17969.71875-.08984.53906v1.4375l-.98047 1.88281-.35937 1.70703-.53516.89844-.80469 1.16797-.26562.53906 2.05469 1.2539.08593.35938-.35546.53906-.08985-.17968v.80859l.08985 1.4375-.44532.71484-1.07422.09375-.26562.71485.53515.89844.8047.71875 1.16015.80859 1.33984.26953.44531.35938-.35546.44921-1.78907-.08984-1.25-.44922-.71484-.71875-.625-.08984-.17578 3.58984-.1875 1.3086h89.35937V311.70313h-55.26953v49.08203l.76172.125 3.28906.54296 2.02344 2.83594v2.7539l2.35156.33204 2.34766.33203h4.05078l-1.3789 4.16016-2.02344.70703-2.02344.70312-.54297.34375-2.59375 1.6172-.1875.11718-2.02344-2.07813-.73046-2.74218-2.67188-2.07813-1.375-3.5-.0664-.08203-1.95704-2.67188 2.75-1.41796v-49.08204H294.42187v91.41407l.1172.03125.1328.01172.07422.07421.10547.04688.08985.0586.08593.05859.08985.0586.29687.29687.0586.08984.03125.11719.02734.11719.01563.13671-.03125.1172-.0586.08983-.0586.08594-.04296.10547-.04688.10156-.02734.1211v.14453l.17578.26953.14844.14844.07422.08594.07422.07421.04296.10547.0625.08985.0586.08593.04297.10547.0586.08985.04687.10156.04296.10547.0586.08594.11719.17968.07421.07422.0625.08594.0586.08984.04297.10547.0586.08985.05858.08593.0625.08985.0586.08984.04297.10156.11719.17969.07421.07422.0586.08594.07422.07421.08984.0586.10547.04687h.14844l.1328-.01562.13282.01562.10156-.04687.07422-.07422.04688-.10156-.01563-.13281v-.14844l-.04687-.10547-.02735-.11719-.04687-.10156-.02735-.1211-.04296-.10156-.0625-.08984-.04297-.10156-.04297-.10547-.03125-.11719-.01563-.13281-.01171-.13672.08593-.0586.0586-.08593.12109-.03125.04297.10547.01562.1328v.1172l.0586.10156.0586.08984.08983.0586.14844.14843.0586.08985.04296.10547-.01171.10156.08593.0586.10547.04687.08594.0586.08984.05858.07422.07422-.11719.02735-.10546.04687-.08594.0586-.07422.07421-.0586.08985-.0625.08594-.02734.12109-.04687.10156-.04297.10547-.03125.11719-.01172.13281-.01563.13281v.14844l.02735.11719.04687.10547.04297.10156.0586.08984.07421.07422.08985.0586.07422.07421.08984.0586.0586.08984.04296.10547.04688.10156.11719.03125.1328.01563h.14845l.11718-.03125.10547.04297.04297.10547.04688.10156.02734.1211L299.5 410l.02734.11719.03125.1211.02735.11718.10547.04297.10156.04687.13281-.01562.14844.14844.0625.08593.07422.07422.07031.07422.08984.0625.10547.04297.10156.04297.1172.03125.13671.01562.11719-.03125.07422-.07422.02734-.11718-.01172-.13282-.03125-.12109-.02734-.11719.04297-.10547h.11719l.08984.0625.11719.02735h.14843l.13282.01562h.14843l.13282.01563.1328-.01563h.14845l.1328-.01562.13282-.01172.13672.01172.11719-.02735.13281-.01562.1914-.0586-.05859.17579-.01562.1328-.02735.1211-.01562.13281-.0586.08594-.1328.01563-.10548.04687-.10546.04297-.1172.03125-.11718.02735-.26563.03125h-.14843l-.13281.01562-.07422.07422.05859.08594.14844.14843.11719.1797.07421.0703.08985.0625.08984.0586.08594.0586.08984.05858.10156.04297.10547.0625.10547.04297.08594.0586.10547.04687.10156.04297.17969.11719.0586.08984-.04298.10156-.04687.10547.01562.13281.22266.22266.0586.08985.04296.10156.03125.1211.04297.10155.01563.13282.03125.11718.01171.13672.03125.11719.14844.14844.10156.04297.10547.04296.1172.03125.1328.01563.13672.01563h.11719l.11719-.03125.08984-.0586.04297-.10547.04688-.10156.04296-.10547.03125-.11719.01172-.1328v-.14845l-.01172-.1328-.01562-.13282-.03125-.11719-.04297-.10547-.04688-.10547-.04296-.10156-.04297-.10547-.01563-.13281.01563-.13281.02734-.11719.03125-.11719.02735-.1211.04687-.10155.08984-.0586.08594-.0625.07422-.07422.08984-.05859.22266-.22266.0586-.08593.07421-.07422.11719-.17969.0586-.08594v-.14844l-.07423-.07421-.10156-.04688-.10547-.04297-.10156-.04297-.0586-.08984-.04687-.10547-.02734-.11719.08984-.05859.11719-.03125.10156-.04297.17969-.11719.14844-.14843.01172-.13282-.01172-.10546-.08985-.0586-.1328.01563h-.14845l-.1328.01562-.13282-.01562-.1211-.03125-.08593-.0586-.07422-.07422-.0586-.08984-.0625-.08594-.11718-.17969-.0586-.08593.03125-.1211.08594-.05859.1211-.03125.05859-.08594v-.1211l-.03125-.11718-.0586-.08984-.05859-.08594-.04687-.10547-.02735-.11719-.01562-.1328.0586-.08985.07421-.07422.08984-.0586.1172-.17968.07421-.07422.0586-.08594.14843-.14844.1211-.03125.1328-.01562.13282.01562.07422.07422.04297.10547.01562.13281-.03125.1172-.11719.03124-.1328.01172-.14844.14844-.04297.10547-.04688.10156-.02734.1211-.03125.11718v.14844l.03125.11719.04297.10546.05859.08985.07422.07031.07422.07422.11719.03125.12109.02734.11719-.02734.1328-.01563h.1172l.08984.0586.07422.07422.04687.10546.0586.08594.10156.04688.13281.01562.10547.04297.08594.0586-.01172.10546-.07422.07422-.17969.11719-.05859.08984-.08984.0586-.07032.07422-.07421.07421-.0625.08985-.02735.11719-.01562.1328.01562.13282-.01562.13281v.14844l.01562.13281.02735.1172.03125.12108.07421.07422.08985.0586.08594.0586.08984.05858.11719.03125v.08594l-.10157.04688-.08984.0586-.26563.03124-.11718.02735h-.14844l-.10547.04296-.10156.04688-.0586.08984-.0625.23438-.01171.13281-.03125.1211-.01563.1328v.29298l-.01172.1328.01172.13673.01563.1328.1328.01563.13282.01172.1211.03125.08593.0586.07422.07421.04688.10547.04296.10157.01563.1328v.44532l-.01563.13281v.44532l.03125.26562.02735.11719.01562.13281.03125.11719.08594.21094.03125.26562v.14844l-.03125.11719-.02734.11718-.03125.1211-.02735.11719-.03125.11718-.03125.1211-.01171.1328-.01563.13282.08984.0586.1172-.03125.10155.01562.04688.10547-.03125.26562v.44141l-.04297.10547-.04688.10547-.04296.10156-.04297.10547-.0586.08594-.03125.12109-.04296.11719-.03125.11719-.01563.1328.01563.13282.05859.08984.10547.04688.08594.0586.05859.08593-.01172.13672-.03125.11719-.04297.10156v.44531l-.01562.13281v.14844l-.03125.11719-.04297.10547-.02735.11719-.04687.10546-.04297.10157-.03125.12109-.02734.11719-.03125.13281-.03125.11719-.02735.11719-.04297.10546-.03125.1172-.03125.12108-.01171.13282-.01563.13281v.29688l.02734.11718v.14844l.04688.39844.02734.11719.0586.08984.12109.03125h.14844l.13281-.01563.0586.08985v.11719l-.0586.08984-.08984.0586-.10157.04296-.10546.04688-.08985.05859-.08594.0586-.13671.01562-.1172-.03125-.1328-.01563-.10157.04688-.0625.08594-.01172.13671-.01562.13282-.03125.11719-.02735.11718-.01562.13281-.03125.1211v.29687l.01563.13282.03125.11718v.14844l.01171.13281v.14844l-.02734.11719-.04688.10156-.02734.1211-.03125.11718-.0586.08985-.07421.07421-.10156.04297-.10547.04688-.11719.02734-.1211.03125-.10156-.04687.0586-.08594.10547-.04688.02734-.11718.03125-.11719.02734-.1211.03125-.11718v-.14844l.01563-.13281-.03125-.11719-.04297-.10547-.10547.01563-.07422.07422-.10156.04296-.08984.0625-.07422.07422-.04297.10157-.01563.1328-.03125.1172L304.25 426l-.03125.11719-.02734.11719-.03125.12109-.02735.11719-.03125.11718-.04297.10547-.08984.0586h-.08984l-.1172-.03125-.03124-.08594.01562-.13672-.03125-.11719v-.14844l-.01171-.1328v-.14844l-.0625-.23438-.02735-.1211-.04297-.10156-.04687-.10546-.0586-.08594-.05859-.08985-.04297-.10546-.0625-.08594-.14844-.14844-.0703-.07422-.10548-.04687-.10547-.04297-.10156-.04297-.29687-.29688-.08985-.07421-.08594-.0586-.10546-.04297-.08985-.0625-.08594-.0586-.10546-.04296-.08985-.0586-.08594-.0625-.07421-.0703-.10547-.04688-.08594-.0586-.10547-.04296-.08984-.0625-.10156-.04297-.10547-.04297-.08594-.0586-.10547-.04687-.10547-.04297-.10156-.04687-.08985-.0586-.10156-.04297-.10547-.04296-.08984-.0625-.11719-.02735-.13281-.01562-.13281.01562H299.75l-.13281.01563-.11719-.03125-.08984-.0586-.07422-.07422-.08985-.05859-.10156-.04688h-.14844l-.12109-.02734-.10156-.04297-.07422-.07422-.11719-.17968-.08984-.0586-.10156-.04297-.08985-.0625-.10547-.04296-.08984-.0586-.08594-.0586-.10547-.04687-.0586-.08594-.05858-.08984-.04297-.10547-.04688-.10156-.07422-.07422-.08594-.0586-.07421-.07421-.08985-.0586-.22265-.22265-.04297-.10547-.03125-.26563.10547-.04296h.14453l.10547.04296.07421.07422.08985.0586.08594.0586.10546.04687.08985.05859.14844.14844.0703.07422.14845.14843.0625.08594.07421.07422.08594.0586.07422.07421.08985.0625.08984.0586.08594.05859.26953.17578.10156.04688.10547.04296.10156.04297.04688-.07421.05859-.08594.07422-.07422.07031-.07422.10547.04297.07422.07422.0586.08984.04296.10156.04688.10547.04296.10547.1211.02735.11719-.02735.07421-.08984.04297-.10547.0586-.08985.07422-.07421.10546-.04297.1172-.02735.1328.01172.08985.0586.14844.14843.05859.08985.04297.10547.04687.10156.04297.10547.04297.10156.10547.04688.10547.04296.13281.01563.08594-.0586.0586-.08984.07421-.07422.10547-.04297.11719.02735.10547.04687.10156.04297.10547.04297.10156.04688.17969.11718v.11719l-.01563.13281.01563.13281.01562.13672.0586.08594.10156.04688.1211.02734.11718.03125h.14844l.11719-.03125.05859-.08984.17969-.1172.05859-.08983.07422-.07422.0586-.08594.11718-.17969.17969-.11719.11719.03125.08984.0586.04297.07422-.01563.1328v.1172l.08985.05859h.14843l.13282-.01563.1328-.01171.26563-.03125.10547-.04297.11719-.03125.1211-.02735.07421-.07421.07031-.07422.0625-.08985-.01562-.10547-.04688-.10156-.10156-.04297-.10547-.01562-.11718.02734-.26563.03125h-.14844l-.07421-.07422-.08985-.0586-.11719-.03124-.11718-.02735-.13282-.01562h-.14843l-.13282.01563h-.29687l-.10547-.04688-.14844-.14844-.04297-.10156-.05859-.08984.22266-.22266.08593-.0586.10547-.04296.11719-.03125.13281-.01563.13281.01563.13672.01562.10157.04297.1328-.01172.08985-.0625.10156-.04297.0625-.08984-.04687-.10156-.08984-.0586-.1172-.03125-.10155-.04296-.0586-.08985-.0625-.08984v-.11719l.01563-.13281.10547-.04688.07421-.07031v-.1211l-.08984-.05859-.03125-.11719.08985-.05859.07421-.07422.04297-.10547.0586-.08984.04687-.10156.01563-.13281v-.14844l-.04688-.10547-.04297-.10156-.08984-.0586-.13281-.01562-.10157-.04297-.13671-.01563-.1172-.03125h-.4453l-.13282-.01562-.13281-.01172-.13281-.01563-.11719-.03125h-.14844l-.13281-.01562-.13281-.01172-.26563-.03125-.1211-.04297-.08593-.0586-.07422-.07421v-.14844l.01172-.13281.10547-.04688.10156-.04296.13281-.01563h.15235l.13281-.01562h.29297l.1211.03125.10156.04296.08984.0586.23438.0625.12109-.04688.08984-.05859.10156-.04297.13282-.01562.10547.04296.10156.04688.13281.01172.1211-.02735h.14453l.12109-.03125.11719-.02734.10547-.04687.07421-.07422.08594-.0586.14844-.14843.0586-.08594.04687-.10547.02734-.11719.01563-.10547-.10156-.04296-.08985-.0586-.11719-.03125-.10546-.04297-.08985-.0625-.07422-.08594-.07422-.07421-.10156-.04297-.10547-.04688-.10156-.04297-.0586-.08984-.04687-.10156-.08594-.21094-.0625-.08594-.05859-.08984-.07422-.07422-.08594-.0586h-.26953l-.11719.03126-.08984.05859-.10156.04297-.13281.01562-.10547-.01562-.02735-.11719-.0625-.08984-.11718-.03125-.10157-.04297-.14843-.14844-.03125-.11719-.01563-.10546.07422-.07422.17969-.1172.11719-.02733.11718-.03125.13672.01562.10156.04297.10547.04297.10156.04687.10547.04297.1172.03125.1328.01563.1172.02734.1328.01563.10547-.01563.08985-.0586-.07422-.07421-.10547-.04297-.07422-.07422-.07422-.08984-.14844-.14844-.08593-.0586-.08985-.05859-.07422-.07422-.08984-.0586-.10156-.04687-.1211-.02734-.10156-.04688-.10547-.04296-.11719-.03125-.10156-.04297-.1211-.03125h-.14843l-.11719.03125-.10546.04297-.08594.0625-.17969.11718-.08594.0586-.08984.0586-.10547.04687-.08594.05859-.10547.04297-.10156.04297-.10547.04687-.07422.07422-.05859.08985-.0586.08593-.04687.10547-.0586.08594-.07421.07422-.13281-.01172-.1172-.03125h-.11718l-.07422.07422-.08984.0586-.07422.07421-.08984.0586-.08594.05859-.10547.04687-.10156.04297-.13672.01563-.10156-.04297-.14844-.14844-.10547-.04688h-.08594l-.10547.04688-.10156.04297-.1211.03125-.11718-.03125-.07422-.07422v-.11719l.03125-.1211.07422-.0703.0586-.08985.07421-.07422.11719-.03125.10547-.04296h.29297l.13281-.01563.13672-.01563.10156-.04296.08985-.0586.10156-.04687.08984-.0586.13281-.01171.08985.05859.13281.01172.08984-.0586.08594-.05859.10547-.04297.08984-.0586.08594-.0625.08985-.05859.14843-.14843.0586-.08594.05859-.08985.10547-.04296.13281-.01563.11719.02735.1211.03125.05859-.0586.05859-.08984.03125-.26563.02734-.11719.10547.01172.13281.01563.10157-.04297.08984-.0586.0586-.08984.07421-.07422.0586-.08984.04687-.10156.01172-.13281-.01172-.13282-.04687-.10547-.14844-.14843-.0586-.08985-.05859-.08594-.04297-.10546v-.44532l.01563-.1328v-.14845l.01172-.1328-.0586-.0586-.08984.0586-.10156-.04298-.17969-.11719-.08594-.05859-.0625-.08984-.0586-.08985-.07421-.07421-.08594-.0586-.1211.03125-.10155.01172-.10547.04688-.08594.05859-.10547.04297-.14844.14844-.08984.05859-.08594.0586-.08984.0625-.10547.04296-.13281.01563v-.1211l.10547-.04297.11718-.03125.07422-.0703.04297-.10548v-.14844l-.02734-.11718-.14844-.14844-.13281-.01563h-.14844l-.11719.03125-.10547.04297-.10156.04297-.08984.0625-.11719.02735-.07422-.07422.01172-.13281-.04297-.10157-.04297-.10547-.08984-.05859-.11719.02734-.1211.03125-.11718.03125-.10156.04297-.1211.03125-.10156.04297-.10547.04297-.08984.0586-.10156.01562v-.11719l.01562-.13281-.0586-.08985-.07421.04297-.14844.14844-.0586.08985-.07421.07421-.04688.10547-.04296.10156-.07422.07422-.0586.08985-.07422.07422-.05859.08593-.07422.07422-.08984.0625-.07422.07031-.07422.07422-.10156.01563-.13281.01562-.10547-.04296v-.1211l.14843-.14844.04297-.10156.0586-.08984.04687-.10156.04297-.10547.0586-.08985.03124-.11719.04297-.10156.03125-.1211.02735-.11718.04687-.10547.04297-.10156.04297-.10547.07422-.07031.08984-.0625.08985-.0586.10156-.04296h.29687l.26563-.03125.10547-.04297-.07422-.07422-.11719-.03125-.10547-.04297-.08984-.0586-.10156-.04687-.08985-.0586-.10156-.04296-.10547-.04297-.08984-.0625-.08594-.0586-.10547-.04296-.10156-.04297-.1211-.03125-.11718-.03125-.10157-.04297L297.5 410.25l-.10156-.04297-.08985-.0586-.04296-.10546-.01563-.13281.10156-.04297.13281-.01563.13672.01563.13282-.01563.10156-.04297.0586-.08984.01562-.10547-.08985-.0586-.07421-.07421-.10157-.04297-.08984-.0586-.14844-.14843-.04297-.10547-.01562-.13281v-.29297l-.0586-.08985-.08984-.05859-.07422-.07422-.04297-.10547-.03125-.11718-.0586-.08985-.07421-.07422-.11719-.02734-.07422-.07422-.08984-.0586-.08984-.0625-.08594-.05859-.07422-.07421-.0586-.08594-.04687-.10547-.08594-.0586-.14843-.14843-.19532-.0586-.1328.01563-.10157.04297-.07422.07422-.04688.10156-.04296.10547-.0586.08984-.0586.08594-.29687.29687-.08984.0586h-.08594l-.0625-.08594-.04297-.10547.03125-.11719.0586-.08984.02734-.11719-.01172-.13281-.08984-.0625-.10547.04688-.11719.02734-.11719.03125-.26953.17578-.10156.04688-.11719.02734-.10546.04687-.08985.0586-.10156.04297-.0586-.08594-.04687-.10547.01563-.13281.04687-.10547.07031-.07422.07422-.07031.0586-.08985v-.14843l-.04297-.10547h-.23829l-.10156.04687-.03125.11719-.02734.11719-.03125.1211-.07422.04296-.13281.01563-.07422-.04688-.04297-.10156-.04297-.10547-.04687-.10156-.04297-.10547-.1211.03125-.10156.04297-.13281.01562-.11719.03125-.10547.04297-.08984.0586-.10156.04687-.1211.02734-.13281.01563-.10156-.04297-.0586-.08985-.04687-.10546-.04297-.10157-.04297-.10546v-.1172l.0586-.08984.08593-.05859.17969-.11719.10156-.04687.10547-.04297.10547-.0586.10156-.04296.08985-.0625.10156-.04297.10547-.0586.10156-.04687.08984-.0586.10547-.04296.10156-.04297.08985-.0625.10156-.04297.13672-.01563.11719.03125.10156.04297.1211.03125.10156.04297.10546.04688.10157.04296.10547.04297.10156.04688.10547.04297.10156.04297.10547.04687.08594.0586.10546.04296.1172.03125.10546.04297.10156.04688.08985.0586.10547.04296.10156.04297.10547.04687.11719.02735.10156.04687.1211.02735h.14843l.08594-.0586.01562-.10156.0586-.08984-.02735-.1172-.07422-.07421-.11719-.17969-.07421-.07422-.08985-.07421-.17969-.1172-.08593-.05859-.10547-.04296-.10156-.04688-.26954-.17578-.05859-.08985-.07422-.07421-.0586-.08985-.04296-.10156-.03125-.11719-.01563-.13672v-.5625l-.01171-.1328-.01563-.13282-.03125-.11719-.01562-.13281-.01172-.13281-.03125-.1211-.22266-.22265-.0586-.08594-.01562-.10547.03125-.11719.13281-.01562v-91.41406H172.9922v1.45312l-.0586.23438-.35156 1.05078-.17187.52343-.1172.34766-.17577.41016-.11719.17187-.23438.29297-.23046.0586h-.35157l-.11718.05859-.23047.40625v.29297l.11719.17578.23046.23047.1172.23437.64062.75781.29297.46485.17578.23437.23047.35156.23437.34766.64063.8164.17578.46485.17187.41016.11719.69531.17578.46875.11719 1.39844.0586.46484v.875l.11718 1.04688v4.78125l-.0586.46484-.35156 1.28125-.17578.52344-.11328.41015-.35156.9297L172.93359 336l-.23437.58203-.11719.17578-.17187.34766-.17578.40625-.35157.8164-.0586.29297-.11327.29297-.11719.28906-.0586.17579-.11718.875-.0586.40625-.05859.11718-.0586.17579-.05859.17187-.23047.52734-.11718.17188v.23437l-.11719.23438-.0586.17187-.17577.58594v.28906l-.0586.17579v.29296l-.0586.11329-.05859.52734v.17187l-.05468.23438v2.6211l-.17578.8164-.1172.17578-.17577.23438-.1172.17187-.11327.23438-.58594.93359-.23047.28906-.29297.46485-.17578.23437-.28906.35156-.35156.69922-.11328.23047-.17579.41016-.17578.23046-.40625.52735-.8164.69922-.29297.17187-.28906.23438-.17579.11719-.17578.17578-.52344.40625-.52734.17578-.17187.17578-.23438.05469-.64062.17578h-.75782m12.21094 31.02344l-1.07422.44921.35938.89454 1.25-.71485.44531-.53906-.98047-.08985"/><path fill="#d3d3d3" fill-opacity="0" fill-rule="evenodd" d="M201.50781 416.59766h-.89453l.44922.6289.98047.35938.80469-.08985.4453-.98828-.17577.08985-.71485-.35547-.89453.35547m154.6211 59.0703l-.0586-.52343v-.29297l.11328-.29297.0586-.23046.46875-.46875h.11328l.11719-.11329.11718-.05859h.17579l.23437-.0586h.34766l.23437.0586.11719.0586.23047.17187.0586.17578.11718.58203v.29297l-.11719.17578-.17187.28906-.17579.17579-.52734.52343-.23047.23438-.11719.0586h-.17578l-.11718-.0586-.40625-.29297-.17579-.11719-.11718-.0586-.0586-.11327-.05468-.1172m6.64062-10.95702l-.0586-.17188v-1.10937l.0586-.17188.17578-.0586.17188-.05858h.17578l.23437-.0586.1172.0586.05858.69921-.05859.17188-.11719.17578-.11718.0586-.23438.52343-.11328.0586h-.23438l-.05859-.1172m9.61328-14.39062l-.11719-.17578v-.69922l.29297-.875.1172-.17187.17577-.35156.11328-.23047.1172-.29297.35155-.75781.1172-.23047.17187-.23438h.17578l.11719-.0586h.64062l.11719.0586.23437.23438.17188.11328.35156.29297.11719.11718.11328.17579v.11328l.11719.05859.11718.11719v.69922l-.05859.17578v.23047l-.0586.17578-.34765 1.05078-.11719.23047-.11719.23437-.11718.0586-.23047.23437-.64063.28906h-.875l-.41015-.11718-.64063-.46485"/><path fill="none" stroke="#bebebe" stroke-linecap="round" stroke-linejoin="round" stroke-miterlimit="10" stroke-width=".5" d="M467.95703 311.69531H144.02734v168.625h323.9297v-168.625"/><g clip-path="url(#a)"><path fill="#fff" fill-opacity="0" fill-rule="evenodd" d="M144 475.89063v4.4375h.0039H144v-75.67579 71.23829"/></g><g clip-path="url(#b)"><path fill="#fff" fill-opacity="0" fill-rule="evenodd" d="M144 320.54688v4.0664-12.9414h.0039H144v8.875"/></g><path fill="#50fcfc" fill-rule="evenodd" d="M144 400.79688v3.85546h.0039v-3.85156l-.0039-.0039"/><path fill="#00e8fc" fill-rule="evenodd" d="M144 400.1914v.60548l.0039.0039v-.60937H144"/><path fill="#50fcfc" fill-rule="evenodd" d="M144 397.53125v2.66016h.0039v-2.66016H144"/><path fill="#fff" fill-opacity="0" fill-rule="evenodd" d="M144 326.3125v71.21875h.0039v-71.22656l-.0039.00781"/><path fill="#50fcfc" fill-rule="evenodd" d="M144 324.61328v1.69922l.0039-.00781v-1.6914H144"/><g clip-path="url(#c)"><path fill="#fff" fill-opacity="0" fill-rule="evenodd" d="M144.0039 480.32813v-75.67579l.20704.22266 3.27344 4.4414-2.85157 4.4375 3.80469 3.8086 2.0586.6289 2.3789 2.375 2.02344 2.0625 2.41797 2.60157 1.42578 1.83984 3.01172 3.4336v2.4414l-2.53516 3-.25781 4.4375-.01563 4.4375.0664 4.4414-.28515 4.4375.34375 4.4375 1.1289 4.4375 1.5547 1.51954 2.36328-1.51953 2.07422-2.01563 2.15234-2.42187 2.28516-1.75 3.30078-2.6875 1.13672-1.30078 3.48828-3.13672.95312-1.28516 3.57422-3.15625-3.57422-1.8086-4.4414-.76171-4.4375-1.71094-.0625-.15625-4.375-3.5625-1.08985-.875-3.34765-3v-2.4414l4.4375-3.4297.0078-.0039 2.65626-4.4414.51953-4.4375-3.1836-2.75782-1.12109-1.67968-3.3164-2.95704-4.4375-1.0039-3.17188-.47656 3.17188-.59766L161 404.875l.23438-4.4375.51953-3.23047L162.76953 396l-.1211-4.4375 2.29688-4.4375-1.6289-4.4414-1.5625-1.46094-1.41797 1.46093-3.01953 1.65625-2.8086 2.78516.59375 4.4375-2.22656 2.66797L150.46094 396l-2.02344 1.08203-4.4336.44922v-71.22656l.33985-1.32031-.33984-.3711v-12.9414h31.0625v17.4453l-.28125.3086-1.125 4.4375-3.03125 3.15235-1.375 1.28515-.83594 4.4375-2.22656 2.85547-.82032 1.58594-2.8789 4.4375-.73828 1.21875-1.15625 3.21875 1.15625 1.875 3.60547-1.875.83203-.48047 4.4375-3.5664 1.46093-.39063 2.97657-.79688 2.4453-3.64062 1.9961-2.7461 4.4375 1.28516 4.4375-2.48438 1.20703-.49609 2.21875-4.4375-3.42578-3.02344-4.4375 1.55079-4.4336-2.96485-.0039-.0039-3.82031-4.4336-.6211-.3086v-17.4453h26.63282v16.57421l-4.4375.97657-.21484.20312.21484.82031 2.14062 3.6172 2.29688 1.54296v83.53516l-4.4375.67187-4.4414 1.8789-4.4375.75391-1.2422.38282-3.1953 1.30078-3.32032 3.14062 3.32031 3.89844 3.28906.53906 1.14844.57813.51172-.57813 3.92578-.69531 3.41016.69531 1.03125.50781 4.4375 3.59375.14453.33594 4.29297 3.0039 4.4375-2.86718 4.4414 2.0586 3.00391-2.19532 1.4336-3.64844 1.35156-.78906-1.35156-.6836-3.08204-3.7539-1.35547-1.60156-3.70312-2.83984-.73828-.33204-4.4375-1.74218-4.4375-1.61328v-83.53516l1.41016-1.54297.16406-4.4375-1.57422-1.17969v-16.57421h266.29687v168.65625h-75.0078l-.44142-.3125-4.4375-1.375-1.22265 1.6875H144.0039"/></g><path fill="#50fcfc" fill-rule="evenodd" d="M144.21094 404.875l-.20703-.22266v-3.85156l3.78906 4.07422.64453.80469 4.4375 3.1211v1.10155l-4.4375.35938-2.85938 3.49219 2.85938 2.85937 4.4375 1.40625.21094.17188 4.23047 4.2539.27343.1836 3.6797 4.4414.48437.55078.71484-.55078 3.07422-4.4414.28906-4.4375-3.60547-4.4375-.47265-.42188-4.4375-1.9414-4.44141-1.48829v-1.10156l4.4414-2.07812 1.76954-1.84766 1.14453-4.4375-2.91406-3.75-4.44141.33984-4.39453 3.41016-.04297.44922-.79297-.44922-3.64062-.2461v-2.66015l4.43359-.44922L150.46094 396l2.41406-1.76953 2.22656-2.66797-.59375-4.4375 2.8086-2.78516v2.48438l-.30078.30078.30078.95703.69922-.95703-.69922-.30078v-2.48438l3.01953-1.65625 1.41797-1.46093 1.5625 1.46093 1.6289 4.44141-2.29687 4.4375.1211 4.4375-1.01563 1.20703-.51953 3.23047L161 404.875l-3.6836 3.84375-3.17187.59766 3.17188.47656 4.4375 1.0039 3.3164 2.95704 1.1211 1.67968 3.18359 2.75782-.51953 4.4375-2.65625 4.4414-.00781.0039-4.4375 3.4297-3.01172-3.4336-1.42578-1.83984-2.41797-2.60156-2.02344-2.0625-2.3789-2.375-2.0586-.62891-3.80469-3.8086 2.85156-4.4375-3.27343-4.4414"/><path fill="#00e8fc" fill-rule="evenodd" d="M147.79297 404.875l-3.78906-4.07422v-.60937l3.64062.24609.79297.44922.04297-.44922 4.39453-3.41016 4.4414-.33984v2.14453l-4.4414.94922-.84375.65625-2.58203 4.4375 3.42578 2.94922 3.8711-2.94922.5703-1.64844 1.25-2.78906-1.25-1.60547v-2.14453l2.91407 3.75-1.14453 4.4375-1.76953 1.84766-4.44141 2.07812-4.4375-3.1211-.64453-.80468"/><path fill="#50fcfc" fill-rule="evenodd" d="M144.34375 324.98438l-.33984 1.3203v-1.6914l.33984.3711"/><path fill="#00e8fc" fill-rule="evenodd" d="M148.4375 416.61328l-2.85938-2.85937 2.85938-3.4922 4.4375-.35937v1.1172l-4.4375 1.17187-1.27734 1.5625 1.27734 1.27734 4.4375 1.7539 1.70703 1.40626 2.73438 2.75 2.51562 1.6875 1.92188 2.1875 1.75-2.1875.625-4.4375-2.375-2.69922-4.4375-1.48047-.19532-.25781-4.24609-2.73438v-1.11719l4.4414 1.48829 4.4375 1.9414.47266.42188 3.60547 4.4375-.28906 4.4375-3.07422 4.4414-.71484.55078-.48438-.55078-3.67969-4.4414-.27343-.1836-4.23047-4.2539-.21094-.17188-4.4375-1.40625"/><path fill="#00d4fc" fill-rule="evenodd" d="M148.4375 415.03125l-1.27734-1.27734 1.27734-1.5625 4.4375-1.17188v1.11328l-3.92188 1.6211 3.92188 1.79687 3.19922 2.64063 1.24219 1.24609 4.4375 2.01953.67187-3.26562-.67187-.76563-4.4375-1.1289-1.92578-2.54297-2.51563-1.6211v-1.11328l4.2461 2.73438.1953.2578 4.4375 1.48048 2.375 2.69922-.625 4.4375-1.75 2.1875-1.92187-2.1875-2.51562-1.6875-2.73438-2.75-1.70703-1.40625-4.4375-1.75391"/><path fill="#00c4fc" fill-rule="evenodd" d="M152.875 415.55078l-3.92188-1.79687 3.92188-1.6211v1.11328l-1.22266.50782 1.22266.5625.78906-.5625-.78906-.50782v-1.11328l2.51563 1.6211 1.92578 2.54296 4.4375 1.12891.67187.76563-.67187 3.26562-4.4375-2.01953-1.2422-1.2461-3.19921-2.64062"/><path fill="#00d4fc" fill-rule="evenodd" d="M152.875 407.82422l-3.42578-2.94922 2.58203-4.4375.84375-.65625v1.8711l-2.29297 3.22265 2.29297 1.97656 2.59375-1.97656-2.59375-3.22266v-1.87109l4.4414-.94922 1.25 1.60547-1.25 2.78906-.5703 1.64844-3.8711 2.94922"/><path fill="#00c4fc" fill-rule="evenodd" d="M152.875 406.85156l-2.29297-1.97656 2.29297-3.22266v1.58985l-1.16016 1.63281 1.16016 1 1.3125-1-1.3125-1.63281v-1.58985l2.59375 3.22266-2.59375 1.97656"/><path fill="#00b8fc" fill-rule="evenodd" d="M152.875 414.3164l-1.22266-.5625 1.22266-.5078.78906.5078-.78906.5625m0-8.4414l-1.16016-1 1.16016-1.63281v1.59375l-.02734.03906.02734.02734.03516-.02734-.03516-.03906v-1.59375l1.3125 1.63281-1.3125 1"/><path fill="#00a8fc" fill-rule="evenodd" d="M152.875 404.90234l-.02734-.02734.02734-.03906.03516.03906-.03516.02734"/><path fill="#00e8fc" fill-rule="evenodd" d="M157.3164 388.08203l-.30077-.95703.30078-.30078.69922.30078-.69922.95703"/><path fill="#50fcfc" fill-rule="evenodd" d="M159.07031 458.13672l-.34375-4.4375.28516-4.4375-.0664-4.4414.01562-4.4375.25781-4.4375 2.53516-3v6.1953l-.26953 1.2422.1914 4.4375.07813.82421v5.77344l-.35938 2.28125.35938 3.70703 1.55468-3.70703-1.55468-2.28125v-5.77344l4.4375 2.14844 1.04687-2.97266-1.04687-3.67578-1.20313-.76172-3.23437-1.24219v-6.1953l3.34765 3 1.08985.875 4.375 3.5625.0625.15624 4.4375 1.71094 4.4414.76172 3.57422 1.8086-3.57422 3.15624-.95312 1.28516-3.48828 3.13672-1.13672 1.30078-3.30078 2.6875-2.28516 1.75-2.15234 2.42187-2.07422 2.01563-2.36328 1.51953-1.5547-1.51953-1.1289-4.4375m2.6836-100.20703l-1.15625-1.875 1.15625-3.21875.73828-1.21875 2.8789-4.4375.82032-1.58594 2.22656-2.85547.83594-4.4375 1.375-1.28515 3.03125-3.15235 1.125-4.4375.28125-.3086.62109.3086 3.82031 4.4336.0039.0039 4.4336 2.96485 4.4375-1.55079 3.42578 3.02344-2.21875 4.4375-1.20703.4961-4.4375 2.48437-4.4375-1.28516-1.9961 2.7461-2.4453 3.64062-2.97657.79688-1.46093.39062-4.4375 3.5664-.83203.48048-3.60547 1.875"/><path fill="#00e8fc" fill-rule="evenodd" d="M161.7539 457.40625l-.35937-3.70703.35938-2.28125 1.55468 2.28125-1.55468 3.70703m-.07813-12.58594l-.1914-4.4375.26953-1.24219 3.23437 1.2422 1.20313.76171 1.04687 3.67578-1.04687 2.97266-4.4375-2.14844-.07813-.82422"/><path fill="#50fcfc" fill-rule="evenodd" d="M183.94531 430.96875l-3.32031-3.89844 3.32031-3.14062 3.19531-1.30078 1.2422-.38282 4.4375-.7539 4.4414-1.8789 4.4375-.67188 4.4375 1.61328 4.4375 1.74219.73828.33203 3.70313 2.83984 1.35546 1.60156 3.08203 3.7539 1.35157.6836-1.35156.78906-1.4336 3.64844-3.0039 2.19531-4.44141-2.05859-4.4375 2.86719-4.29297-3.0039-.14453-.33594-4.4375-3.59375-1.03125-.50782-3.41016-.69531-3.92578.69531-.51172.57813-1.14844-.57813-3.28906-.53906m13.3164-100.72266l-.21483-.8203.21484-.20313 4.4375-.97657 1.57422 1.1797-.16406 4.4375-1.41016 1.54296-2.29688-1.54297-2.14062-3.61719"/><g clip-path="url(#d)"><path fill="#50fcfc" fill-rule="evenodd" d="M386.88672 480.32813l1.22265-1.6875 4.4375 1.375.44141.3125h-6.10156"/></g><g clip-path="url(#e)"><path fill="#fff" fill-opacity="0" fill-rule="evenodd" d="M467.9961 480.32813H468V311.67188h-.0039H468v168.65625h-.0039"/></g><g clip-path="url(#f)"><path fill="none" stroke="#000" stroke-linecap="round" stroke-linejoin="round" stroke-miterlimit="10" stroke-width=".5" d="M147.40625 481.1914l-6.8125-1.72656"/></g><g clip-path="url(#g)"><path fill="none" stroke="#000" stroke-linecap="round" stroke-linejoin="round" stroke-miterlimit="10" stroke-width=".5" d="M147.40625 481.1914l.58203 2.38673"/></g><g clip-path="url(#h)"><path fill="none" stroke="#000" stroke-linecap="round" stroke-linejoin="round" stroke-miterlimit="10" stroke-width=".5" d="M146.41406 480.9414l.29297 1.19141"/></g><g clip-path="url(#i)"><path fill="none" stroke="#000" stroke-linecap="round" stroke-linejoin="round" stroke-miterlimit="10" stroke-width=".5" d="M160.79297 480.82031l-6.95703-.98047"/></g><g clip-path="url(#j)"><path fill="none" stroke="#000" stroke-linecap="round" stroke-linejoin="round" stroke-miterlimit="10" stroke-width=".5" d="M160.79297 480.82031l.83984 2.30469"/></g><g clip-path="url(#k)"><path fill="none" stroke="#000" stroke-linecap="round" stroke-linejoin="round" stroke-miterlimit="10" stroke-width=".5" d="M159.78125 480.67578l.41797 1.15235"/></g><g clip-path="url(#l)"><path fill="none" stroke="#000" stroke-linecap="round" stroke-linejoin="round" stroke-miterlimit="10" stroke-width=".5" d="M174.13672 480.10938l-7.01172.4375"/></g><g clip-path="url(#m)"><path fill="none" stroke="#000" stroke-linecap="round" stroke-linejoin="round" stroke-miterlimit="10" stroke-width=".5" d="M174.13672 480.10938l1.28516 2.09375"/></g><g clip-path="url(#n)"><path fill="none" stroke="#000" stroke-linecap="round" stroke-linejoin="round" stroke-miterlimit="10" stroke-width=".5" d="M173.11719 480.17578l.64062 1.04297"/></g><g clip-path="url(#o)"><path fill="none" stroke="#000" stroke-linecap="round" stroke-linejoin="round" stroke-miterlimit="10" stroke-width=".5" d="M187.42969 479.86719l-6.96875.92578"/></g><g clip-path="url(#p)"><path fill="none" stroke="#000" stroke-linecap="round" stroke-linejoin="round" stroke-miterlimit="10" stroke-width=".5" d="M187.42969 479.86719l1.42578 1.9961"/></g><g clip-path="url(#q)"><path fill="none" stroke="#000" stroke-linecap="round" stroke-linejoin="round" stroke-miterlimit="10" stroke-width=".5" d="M186.41406 480l.71485 1"/></g><g clip-path="url(#r)"><path fill="none" stroke="#000" stroke-linecap="round" stroke-linejoin="round" stroke-miterlimit="10" stroke-width=".5" d="M200.6836 479.53516l-6.84766 1.58593"/></g><g clip-path="url(#s)"><path fill="none" stroke="#000" stroke-linecap="round" stroke-linejoin="round" stroke-miterlimit="10" stroke-width=".5" d="M200.6836 479.53516l1.60937 1.85156"/></g><g clip-path="url(#t)"><path fill="none" stroke="#000" stroke-linecap="round" stroke-linejoin="round" stroke-miterlimit="10" stroke-width=".5" d="M199.6875 479.76563l.80469.92578"/></g><g clip-path="url(#u)"><path fill="none" stroke="#000" stroke-linecap="round" stroke-linejoin="round" stroke-miterlimit="10" stroke-width=".5" d="M213.91797 479.24219l-6.6836 2.17578"/></g><g clip-path="url(#v)"><path fill="none" stroke="#000" stroke-linecap="round" stroke-linejoin="round" stroke-miterlimit="10" stroke-width=".5" d="M213.91797 479.24219l1.76562 1.70312"/></g><g clip-path="url(#w)"><path fill="none" stroke="#000" stroke-linecap="round" stroke-linejoin="round" stroke-miterlimit="10" stroke-width=".5" d="M212.94531 479.5586l.88281.85156"/></g><g clip-path="url(#x)"><path fill="none" stroke="#000" stroke-linecap="round" stroke-linejoin="round" stroke-miterlimit="10" stroke-width=".5" d="M227.125 478.95313l-6.46875 2.75"/></g><g clip-path="url(#y)"><path fill="none" stroke="#000" stroke-linecap="round" stroke-linejoin="round" stroke-miterlimit="10" stroke-width=".5" d="M227.125 478.95313l1.90625 1.54296"/></g><g clip-path="url(#z)"><path fill="none" stroke="#000" stroke-linecap="round" stroke-linejoin="round" stroke-miterlimit="10" stroke-width=".5" d="M226.1836 479.35156l.95312.77344"/></g><g clip-path="url(#A)"><path fill="none" stroke="#000" stroke-linecap="round" stroke-linejoin="round" stroke-miterlimit="10" stroke-width=".5" d="M240.3711 478.80469l-6.33204 3.04687"/></g><g clip-path="url(#B)"><path fill="none" stroke="#000" stroke-linecap="round" stroke-linejoin="round" stroke-miterlimit="10" stroke-width=".5" d="M240.3711 478.80469l1.97656 1.45703"/></g><g clip-path="url(#C)"><path fill="none" stroke="#000" stroke-linecap="round" stroke-linejoin="round" stroke-miterlimit="10" stroke-width=".5" d="M239.44922 479.25l.98828.72656"/></g><g clip-path="url(#D)"><path fill="none" stroke="#000" stroke-linecap="round" stroke-linejoin="round" stroke-miterlimit="10" stroke-width=".5" d="M253.58594 478.61328l-6.13281 3.42969"/></g><g clip-path="url(#E)"><path fill="none" stroke="#000" stroke-linecap="round" stroke-linejoin="round" stroke-miterlimit="10" stroke-width=".5" d="M253.58594 478.61328l2.0625 1.32813"/></g><g clip-path="url(#F)"><path fill="none" stroke="#000" stroke-linecap="round" stroke-linejoin="round" stroke-miterlimit="10" stroke-width=".5" d="M266.77734 478.40625l-5.8828 3.84375"/></g><path fill="none" stroke="#000" stroke-linecap="round" stroke-linejoin="round" stroke-miterlimit="10" stroke-width=".5" d="M266.77734 478.40625l2.14844 1.1836"/><g clip-path="url(#G)"><path fill="none" stroke="#000" stroke-linecap="round" stroke-linejoin="round" stroke-miterlimit="10" stroke-width=".5" d="M280.07813 478.38672l-5.85547 3.88281"/></g><path fill="none" stroke="#000" stroke-linecap="round" stroke-linejoin="round" stroke-miterlimit="10" stroke-width=".5" d="M280.07813 478.38672l2.15625 1.16797"/><g clip-path="url(#H)"><path fill="none" stroke="#000" stroke-linecap="round" stroke-linejoin="round" stroke-miterlimit="10" stroke-width=".5" d="M292.9375 477.83203l-4.9414 4.9961"/></g><path fill="none" stroke="#000" stroke-linecap="round" stroke-linejoin="round" stroke-miterlimit="10" stroke-width=".5" d="M292.9375 477.83203l2.34766.70313"/><g clip-path="url(#I)"><path fill="none" stroke="#000" stroke-linecap="round" stroke-linejoin="round" stroke-miterlimit="10" stroke-width=".5" d="M306.38281 477.96875l-5.20703 4.71875"/></g><path fill="none" stroke="#000" stroke-linecap="round" stroke-linejoin="round" stroke-miterlimit="10" stroke-width=".5" d="M306.38281 477.96875l2.3086.83203"/><g clip-path="url(#J)"><path fill="none" stroke="#000" stroke-linecap="round" stroke-linejoin="round" stroke-miterlimit="10" stroke-width=".5" d="M319.19922 477.51563l-4.20703 5.6289"/></g><path fill="none" stroke="#000" stroke-linecap="round" stroke-linejoin="round" stroke-miterlimit="10" stroke-width=".5" d="M318.58594 478.33203l1.21484.1875"/><g clip-path="url(#K)"><path fill="none" stroke="#000" stroke-linecap="round" stroke-linejoin="round" stroke-miterlimit="10" stroke-width=".5" d="M332.48438 477.49219l-4.14844 5.67187"/></g><path fill="none" stroke="#000" stroke-linecap="round" stroke-linejoin="round" stroke-miterlimit="10" stroke-width=".5" d="M331.88281 478.3164l1.21485.17579"/><g clip-path="url(#L)"><path fill="none" stroke="#000" stroke-linecap="round" stroke-linejoin="round" stroke-miterlimit="10" stroke-width=".5" d="M345.4414 477.26172l-3.42968 6.13281"/></g><path fill="none" stroke="#000" stroke-linecap="round" stroke-linejoin="round" stroke-miterlimit="10" stroke-width=".5" d="M345.4414 477.26172l2.45313.05078"/><g clip-path="url(#M)"><path fill="none" stroke="#000" stroke-linecap="round" stroke-linejoin="round" stroke-miterlimit="10" stroke-width=".5" d="M357.8789 476.91797l-1.67577 6.82422"/></g><path fill="none" stroke="#000" stroke-linecap="round" stroke-linejoin="round" stroke-miterlimit="10" stroke-width=".5" d="M357.8789 476.91797l2.37891-.60547"/><g clip-path="url(#N)"><path fill="none" stroke="#000" stroke-linecap="round" stroke-linejoin="round" stroke-miterlimit="10" stroke-width=".5" d="M370.35547 476.8164v7.02735"/></g><path fill="none" stroke="#000" stroke-linecap="round" stroke-linejoin="round" stroke-miterlimit="10" stroke-width=".5" d="M370.35547 477.83594l1.08203-.57422"/><g clip-path="url(#O)"><path fill="none" stroke="#000" stroke-linecap="round" stroke-linejoin="round" stroke-miterlimit="10" stroke-width=".5" d="M382.89063 476.90234l1.5625 6.85157"/></g><path fill="none" stroke="#000" stroke-linecap="round" stroke-linejoin="round" stroke-miterlimit="10" stroke-width=".5" d="M383.11719 477.89844l.92969-.80078"/><g clip-path="url(#P)"><path fill="none" stroke="#000" stroke-linecap="round" stroke-linejoin="round" stroke-miterlimit="10" stroke-width=".5" d="M398.77344 477.30469l-3.57422 6.05078"/></g><path fill="none" stroke="#000" stroke-linecap="round" stroke-linejoin="round" stroke-miterlimit="10" stroke-width=".5" d="M398.2539 478.1836l1.22266.05468"/><g clip-path="url(#Q)"><path fill="none" stroke="#000" stroke-linecap="round" stroke-linejoin="round" stroke-miterlimit="10" stroke-width=".5" d="M411.96875 477.23438l-3.33594 6.1875"/></g><path fill="none" stroke="#000" stroke-linecap="round" stroke-linejoin="round" stroke-miterlimit="10" stroke-width=".5" d="M411.48438 478.13672l1.22656.00781"/><g clip-path="url(#R)"><path fill="none" stroke="#000" stroke-linecap="round" stroke-linejoin="round" stroke-miterlimit="10" stroke-width=".5" d="M425.01172 477.10547l-2.79297 6.44922"/></g><path fill="none" stroke="#000" stroke-linecap="round" stroke-linejoin="round" stroke-miterlimit="10" stroke-width=".5" d="M424.60547 478.04297l1.22265-.09766"/><g clip-path="url(#S)"><path fill="none" stroke="#000" stroke-linecap="round" stroke-linejoin="round" stroke-miterlimit="10" stroke-width=".5" d="M438.55078 477.21094l-3.23828 6.23437"/></g><path fill="none" stroke="#000" stroke-linecap="round" stroke-linejoin="round" stroke-miterlimit="10" stroke-width=".5" d="M438.07813 478.11719l1.22656-.01172"/><g clip-path="url(#T)"><path fill="none" stroke="#000" stroke-linecap="round" stroke-linejoin="round" stroke-miterlimit="10" stroke-width=".5" d="M452.34766 477.51172l-4.19922 5.63281"/></g><path fill="none" stroke="#000" stroke-linecap="round" stroke-linejoin="round" stroke-miterlimit="10" stroke-width=".5" d="M451.73438 478.33203l1.21484.1836"/><g clip-path="url(#U)"><path fill="none" stroke="#000" stroke-linecap="round" stroke-linejoin="round" stroke-miterlimit="10" stroke-width=".5" d="M466.24219 478.0586l-5.36328 4.53906"/></g><path fill="none" stroke="#000" stroke-linecap="round" stroke-linejoin="round" stroke-miterlimit="10" stroke-width=".5" d="M465.46484 478.71875l1.13672.45703"/><g clip-path="url(#V)"><path fill="none" stroke="#000" stroke-linecap="round" stroke-linejoin="round" stroke-miterlimit="10" stroke-width=".5" d="M147.5 466.71094l-7 .60547"/></g><path fill="none" stroke="#000" stroke-linecap="round" stroke-linejoin="round" stroke-miterlimit="10" stroke-width=".5" d="M147.5 466.71094l1.33594 2.0625m11.98828-1.96875l-7.01563.41797m7.01563-.41797l1.27734 2.09375m12.01172-2.33203l-6.96875.89453m6.96875-.89453l1.41797 2.0039m-2.42969-1.875l.70703 1.0039m13.61328-1.1875l-6.95312 1.00392m6.95313-1.00391l1.44921 1.98047m-2.46093-1.83203l.72656.98828m13.55078-1.41016l-6.85547 1.55078m6.85547-1.55078l1.60156 1.85938m-2.59765-1.63282l1.60156 1.85938m12.6289-2.375l-6.6953 2.1289m6.6953-2.1289l1.75782 1.71484m-2.73047-1.40625l1.7539 1.71485m12.44532-2.27344l-6.51563 2.6289m6.51563-2.6289l1.8789 1.58203m-2.82812-1.19922l1.8789 1.57813m12.27735-2.20313l-6.30078 3.11328m6.30078-3.11328l1.99219 1.4336m-2.91016-.98047l1.99219 1.43359m12.13281-2.08594l-6.08594 3.51172m6.08594-3.51172l2.08203 1.30078m-2.96484-.78906l2.07812 1.30078m11.83203-2.23828l-5.5078 4.36328m5.5078-4.36328l2.2461.98047m-3.04688-.34766l1.1211.4922m12.875-1.26954l-5.26954 4.65234m5.26954-4.65234l2.29687.86328m-3.0625-.1836l1.14844.4297m12.625-1.41407l-4.65625 5.26172m4.65625-5.26172l2.38672.57031m-3.0625.19532l1.1914.28515m12.66407-1.16406l-4.38282 5.48828m4.38282-5.48828l2.41015.44922m-3.04687.34766l1.20312.22656m12.64063-1.10938l-4.16797 5.66016m4.16797-5.66016l2.42968.35938m-3.03515.46484l1.21484.17969m12.79297-.9375l-4.34375 5.52734m4.34375-5.52734l2.41406.4336m-3.04687.37109l1.20703.21875m12.33203-1.30078l-3.52344 6.08203m3.52344-6.08203l2.44922.08984m-2.96484.79687l1.22656.04297m11.9375-1.22656l-2.1914 6.67578m2.1914-6.67578l2.41797-.42187m9.78125.24609l.04297 7.02734m-.04297-7.02734l2.15625-1.16406m10.30468 1.27343l1.7461 6.8086m-1.49219-5.8164l.90625-.82813m15.3164.57422l-4.57421 5.33203m3.91015-4.55469l1.19532.26562m12.60937-1.18359l-4.22656 5.61328m3.60937-4.79687l1.21485.1914m12.58984-1.10156l-3.96875 5.80078m3.96875-5.80078l2.4375.27344m10.51563-.48828l-3.2461 6.23047m3.2461-6.23047l2.45312-.01953m11.97656.93359l-5.47656 4.40234m4.67969-3.76172l1.1289.48047m13.45704-.34765l-6.42188 2.85547m5.48828-2.4375l.96485.7539"/><g clip-path="url(#W)"><path fill="none" stroke="#000" stroke-linecap="round" stroke-linejoin="round" stroke-miterlimit="10" stroke-width=".5" d="M147.51172 453.8164l-7.02344-.23827"/></g><path fill="none" stroke="#000" stroke-linecap="round" stroke-linejoin="round" stroke-miterlimit="10" stroke-width=".5" d="M147.51172 453.8164l1.07812 2.20704m12.23438-2.13672l-7.01953-.375m7.01953.375l1.03516 2.22266m-2.0586-2.27735l.51953 1.10938m13.82031-1.33594l-7.02343.1836m7.02344-.1836l1.21093 2.13672m-2.23047-2.10938l.60157 1.07032m13.6289-1.86329l-6.8125 1.71875m6.8125-1.71875L189 454.66016m-2.64063-1.57032l.82422.91016m13.33594-1.61328L194 455.01172m6.51953-2.625l1.8789 1.57812m-2.82812-1.1953l.9414.78905m13.19142-1.45703l-6.25782 3.19532m6.25781-3.19532l2.01172 1.40625m-2.92187-.9414l1.00781.70312m13.1211-1.34765l-6.0625 3.55468m6.0625-3.55468l2.08984 1.28515m-2.97266-.76953l1.04297.64453m13.26172-.96094l-6.27734 3.15625m6.27734-3.15625l2.0039 1.41797m-2.91796-.95703l1.0039.70703m13.26953-1.08203l-6.36328 2.98438m6.36328-2.98438l1.96094 1.47266m-2.88672-1.03906l.98047.73828m12.91797-1.7461l-5.67969 4.13282m5.6797-4.13282l2.20702 1.07032m-3.03125-.46875l1.10157.53515m13.07421-1.08594l-5.7539 4.03125m5.7539-4.03125l2.1875 1.10938m-3.02343-.52344l1.09375.55469m12.77734-1.49219l-5.19531 4.73047m5.19531-4.73047l2.3125.82813m-3.0664-.14063l2.30859.82813m11.6875-1.59375l-5.04688 4.89062m5.04688-4.89062l2.33203.7539m-3.0664-.04297l1.16796.375m12.77735-1.1875l-4.83985 5.09375m4.83985-5.09375l2.36328.65235m-3.06641.08594l1.17969.32812m12.91015-.9961l-4.98437 4.95313m4.98437-4.95312l2.34375.72265m-3.0664-.0039l1.17187.36328m12.94532-1l-5.14063 4.78906m5.14063-4.78906l2.3203.80078m10.98048-.8164l-5.11328 4.8203m4.37109-4.12109l1.16016.39453m11.47265-2.01172l-2.26172 6.65235m1.92969-5.6836l1.21094-.1953m11.77734-.92579l-.94922 6.96094m.8125-5.94922l1.15235-.42578m14.98828 1.36328l-6.32422 3.0625m5.40625-2.61719l.98828.72266m13.59375.4414l-7.02344-.15625m6.0039.13282l.55079 1.09765m13.76953-1.51562l-6.99219.72265m5.97266-.61718l.6836 1.01953m13.26171-2.40235l-6.21484 3.28125m5.3086-2.80468l1.01562.6875m10.8789-2.94922l-1.5625 6.85156m1.33594-5.85547l1.1836-.32031m14.76562 1.27344l-6.375 2.95312m5.44531-2.52344l.98047.73829"/><g clip-path="url(#X)"><path fill="none" stroke="#000" stroke-linecap="round" stroke-linejoin="round" stroke-miterlimit="10" stroke-width=".5" d="M147.39063 441.30078l-6.78125-1.83594"/></g><path fill="none" stroke="#000" stroke-linecap="round" stroke-linejoin="round" stroke-miterlimit="10" stroke-width=".5" d="M147.39063 441.30078l.54687 2.39063m12.89063-3.26953l-7.02735-.07422m7.02734.07422l1.12891 2.17578m12.16016-2.65625l-6.97266.8828m6.97266-.8828l1.41406 2.0078m11.7539-2.65624l-6.67968 2.17969m6.67969-2.1797l1.76562 1.70313m11.1875-2.48046l-5.95312 3.73437m5.08593-3.1914l1.0625.61327m12.60157-1.79687l-4.92188 5.01563m4.20703-4.28516l1.17578.34765m12.84375-1.08593l-4.89843 5.03515m4.89843-5.03515l2.35547.6836m11.1875-.44142l-5.35547 4.55079m5.35547-4.55079l2.28125.90235m11.19531-.69922l-5.67578 4.14062m5.67578-4.14062l2.20704 1.07031m11.08984-1.09375l-5.64063 4.1875m5.64063-4.1875l2.21875 1.05469m10.78125-1.42188l-5.01172 4.92579m5.01172-4.92579l2.33984.73829m10.90625-.8086l-4.87109 5.0625m4.8711-5.0625l2.35937.67188m-3.07031.0664l1.17968.33594m13.33594-.48437l-5.85156 3.88671m5.85156-3.88671l2.16016 1.16406m11.40625-.72266l-6.35547 3m6.35547-3l1.96484 1.46875m11.5586-.91015l-6.76954 1.8828m6.76953-1.8828l1.69141 1.77734m11.71875-1.29688l-6.96484.92579m5.95312-.79297l.71485 1m13.01953-2.67188l-5.77735 4m5.77735-4l2.17968 1.1289m10.32813-1.95702l-4.16406 5.66015m4.16406-5.66015l2.42969.35547m12.2461 1.77343l-6.88673 1.39844m6.88672-1.39844l1.5625 1.89454m11.8164-.97657l-7.01171-.4336m5.99219.3672l.5078 1.11718m13.63282-.09765l-6.625-2.33985m5.66406 1.9961l.1797 1.21484m14.05077-.7539l-6.53515-2.57813m6.53515 2.57812l.27735 2.4375m13.14062-4.72265l-6.73828 1.99219m6.73828-1.9922l1.71875 1.75391m10.59766-3.34765l-4.74219 5.1836m4.74219-5.1836l2.3789.60937m11.72266.44141l-6.3164 3.08203m5.39843-2.63672l.99219.72266"/><g clip-path="url(#Y)"><path fill="none" stroke="#000" stroke-linecap="round" stroke-linejoin="round" stroke-miterlimit="10" stroke-width=".5" d="M147.14844 428.6289l-6.29688-3.12109"/></g><path fill="none" stroke="#000" stroke-linecap="round" stroke-linejoin="round" stroke-miterlimit="10" stroke-width=".5" d="M146.23047 428.17578l.03516 1.22656m14.55859-2.49218l-7.01953.3164m6-.26953l.6211 1.0586m12.48437-3.6211l-4.5586 5.34766m3.89453-4.57031l1.19922.26562m11.34766-1.77734l-1.69531 6.8203m1.44922-5.82812l1.1875-.30078m12.07421-.7539l-1.09375 6.9414m1.09375-6.9414l2.31641-.80078m12.00781 1.12109l-3.11328 6.30078m3.11328-6.30078l2.45313-.07031m10.54297-.06641l-2.47657 6.57422m2.1172-5.61719l1.21874-.15625m12.91797-.58984l-3.40234 6.15234m2.90625-5.25781l1.22656.01953m14.13672.83984l-6.50781 2.64453m6.5078-2.64453l1.88673 1.57032m11.19922-2.03516l-6.05079 3.57422m6.05078-3.57422l2.09375 1.28125m11.60157-.36719l-6.8086 1.7461m6.8086-1.7461l1.65234 1.8125m11.54688-2.17969l-6.57422 2.48438m6.57422-2.48438l1.84375 1.6172m11.54296-1.40235l-6.71875 2.05078m6.71875-2.05078l1.73438 1.73437m11.29297-2.41015l-6.14453 3.40234m6.14453-3.40234l2.0586 1.33593m11.64062-.26562l-6.91407 1.26172m5.91016-1.07813l.75781.96094m13.58594-.97656l-6.96484.92578m5.95312-.79297l.71485 1m13.04296-2.63672l-5.82421 3.9336m5.82421-3.9336l2.16797 1.14844m11.45313-.59375l-6.4336 2.82422m6.4336-2.82422l1.92578 1.51953m11.6836-.11719l-7.02735.01954m6.00781-.01563l.57813 1.08203m13.27734.69922l-6.0664-3.55078m6.0664 3.55078l-.10547 2.45313m13.1211-2.01954l-5.46875-4.41796m4.67187 3.77343l-.23047 1.20703m15.1211-2.89453l-7.02344.2461m7.02344-.2461l1.22656 2.125m11.21094-4.32422l-5.26954 4.64454m5.26954-4.64454l2.29687.86329m10.84766-1.04297l-4.92969 5.0039m4.92969-5.0039l2.35156.69922m11.96094 1.19921l-6.92188 1.20704"/><g clip-path="url(#Z)"><path fill="none" stroke="#000" stroke-linecap="round" stroke-linejoin="round" stroke-miterlimit="10" stroke-width=".5" d="M467.02344 426.46484l1.50781 1.9375"/></g><g clip-path="url(#aa)"><path fill="none" stroke="#000" stroke-linecap="round" stroke-linejoin="round" stroke-miterlimit="10" stroke-width=".5" d="M146.98438 415.60547l-5.96875-3.70313"/></g><path fill="none" stroke="#000" stroke-linecap="round" stroke-linejoin="round" stroke-miterlimit="10" stroke-width=".5" d="M146.11719 415.0664l-.08203 1.22657m14.64843-1.53906l-6.73828-2m5.75781 1.70703l.2461 1.20312m13.26953-4.28906l-5.17578 4.7539m5.17578-4.7539l2.3125.8164m9.57422-1.7539l-2.32031 6.63281m2.3203-6.63281l2.42579-.3711m10.33984.22657l-1.22265 6.92187m1.22265-6.92187l2.33594-.75781m11.64453.9453l-2.55078 6.54688m2.55078-6.54687l2.4375-.28516m12.02344 1.01172l-4.84375 5.09375m4.84375-5.09375l2.36328.65625m11.96484 1.14453L233.77345 414.5m6.86719-1.49219l1.58593 1.8711m11.76172-.5625l-6.9375-1.125m6.9375 1.125l.78906 2.3203m-1.79687-2.48437l.39453 1.16016m13.97266-1.51563l-7.02344-.08593m7.02344.08594l1.125 2.17968m-2.14453-2.1914l.5625 1.08984m13.74609-1.57031l-6.96875.89844m6.96875-.89844l1.41797 2m-2.4336-1.8711l.71094 1m13.625-1.08593l-6.98047.8125m6.98047-.8125l1.39453 2.01953m-2.41015-1.90235l.6953 1.01172m13.50782-1.73828l-6.72656 2.03125m6.72656-2.03125l1.73047 1.73828m11.60547-1.66406l-6.76953 1.88281m6.76953-1.88281l1.6914 1.77734m11.73438-1.19922l-6.98828.72657m6.98828-.72656l1.36719 2.03515m11.91797-1.08984l-6.9297-1.16406m6.9297 1.16406l.77734 2.32812m12.2539-4.39843l-6.36328 2.97656m5.4375-2.54688l.98047.73828m12.96875-1.67968l-5.77734 4m5.77734-4l2.1797 1.125m11.74608 1.16797l-7.0039-.58594m7.0039.58594l.96875 2.2539m12.35547-2.67969l-7.01953.26563m7.01953-.26563l1.23438 2.1211m11.9414-2.98047l-6.74218 1.98437m6.74218-1.98437l1.71485 1.7539m11.53125-1.96093l-6.60547 2.39844m6.60547-2.39844l1.82422 1.64453m11.39843-1.8789l-6.41796 2.86718m5.48437-2.44922l.96484.7539m13.27735-1.18359l-6.40625 2.88672m6.40625-2.88672l1.9414 1.50391m11.60157-.82422l-6.85938 1.53125m5.85938-1.3086l.79687.9336"/><g clip-path="url(#ab)"><path fill="none" stroke="#000" stroke-linecap="round" stroke-linejoin="round" stroke-miterlimit="10" stroke-width=".5" d="M146.92188 398.48828l-5.84375 3.89844"/></g><path fill="none" stroke="#000" stroke-linecap="round" stroke-linejoin="round" stroke-miterlimit="10" stroke-width=".5" d="M146.07422 399.05469l1.07812.58203m12.98828 2.89062l-5.64843-4.17968m5.64844 4.17968l-.3672 2.4297m-.45702-3.03517l-.1797 1.21094m14.40626-4.66015l-5.82422 3.93359m5.82422-3.9336l2.16797 1.15235m-3.01563-.58203l2.16797 1.15234m11.73047-2.0664l-5.29688 4.61718m5.29688-4.61718l2.29297.8789m-3.0625-.20703l1.14453.4375m13.80469 1.15235l-7.02735.09375m7.02735-.09375l1.17969 2.15234m-2.20313-2.13672l1.17969 2.14844m13.14844-1.85156l-7.00782-.53125m7.00781.53125l.98438 2.24609m-2.0039-2.32422l.98437 2.25m-2.0039-2.32422l.49218 1.1211m14.8711-1.19532l-7.02344-.07422m7.02343.07422l1.12891 2.17969m-2.14844-2.1914l1.1289 2.17968m-2.15233-2.1914l.5625 1.08984m14.79296-.97266l-7.01953-.26562m7.01953.26562l1.07032 2.21094m-2.08985-2.25l1.07031 2.21094m13.26172-2.54297l-7.01172.47656m7.01172-.47656l1.29297 2.08594m-2.3125-2.01563l.64453 1.04297m13.64063-1.5l-6.91406 1.25m6.91406-1.25l1.51953 1.92969m-2.52734-1.7461l.76172.96094m13.58984-.95312l-6.97266.86718m6.97266-.86718l1.41015 2.0078m-2.42578-1.8789l.70703 1m13.57813-1.41406l-6.8789 1.4414m6.8789-1.4414l1.57031 1.88281m11.73828-1.91406l-6.86718 1.5039m6.86718-1.5039l1.58594 1.8711m11.6836-2.0547l-6.77344 1.8711m6.77344-1.8711l1.68359 1.78126m-2.67188-1.50782l.84375.89063m13.34375-1.50781l-6.54687 2.55468m6.54687-2.55468l1.85938 1.59765m-2.8125-1.22656l.92969.80078m13.46875-.76953l-6.8047 1.75m6.8047-1.75l1.65625 1.8125m11.46875.48438l-6.42579-2.83985m5.4922 2.42578l.08984 1.22266m14.2578-3.40625l-6.62108 2.35547m5.65625-2.01172l.90625.82422m12.91406-2.04297l-5.70313 4.10547m5.70313-4.10547l2.19922 1.08594m11.49218-.41797l-6.45703 2.76953m6.45703-2.76953l1.91407 1.53906m11.5625-1.08594l-6.77735 1.85938m6.77735-1.85938l1.68359 1.78516m11.7461-1.11719l-7.00782.52735m7.00781-.52735l1.3086 2.07422m12.01562-1.73828l-7.02734-.14453m6.0039.1211l.5547 1.09765m13.78124-1.2461l-7.02344.19922m7.02344-.19922l1.21485 2.12891m12.04687-2.64453l-6.91797 1.22656m5.91406-1.04687l.75391.96484"/><g clip-path="url(#ac)"><path fill="none" stroke="#000" stroke-linecap="round" stroke-linejoin="round" stroke-miterlimit="10" stroke-width=".5" d="M147.46875 387.6836l-6.9375-1.1211"/></g><path fill="none" stroke="#000" stroke-linecap="round" stroke-linejoin="round" stroke-miterlimit="10" stroke-width=".5" d="M147.46875 387.6836l.78906 2.32421m11.10547-.03125l-4.09766-5.70703m4.09766 5.70703l-1.08594 2.19922m.4922-3.02734l-1.08985 2.19922m16.35937-3.3711l-6.8164-1.70703m6.8164 1.70703l.58985 2.3789m-1.58203-2.6289l.59375 2.38281m13.78906-2.53515l-6.96875-.90235m6.96875.90235l.86328 2.29687m-1.8789-2.42968l.86718 2.29687m13.49219-2.67187l-7.02735.11328m7.02735-.11328l1.1875 2.14843m-2.21094-2.1328l1.1875 2.14843m-2.20703-2.13281l.59375 1.07421m14.75-1.3789l-6.9961.66406m6.9961-.66406l1.35156 2.04687m-2.3711-1.95312l1.35157 2.05078m-2.36719-1.95313l.67578 1.02344m14.65625-1.35937l-6.96093.94922m6.96093-.94922l1.4336 1.99219m-2.44531-1.85157l1.43359 1.98828m-2.44531-1.85156l.71484.9961m14.57031-1.57813l-6.85156 1.5625m6.85156-1.5625l1.60156 1.85547m-2.60156-1.6289l1.60547 1.85546M254 386.64453l-6.96094.95703M254 386.64453l1.4375 1.98828m-2.44922-1.85156l1.4375 1.99219m12.89844-2.08203l-6.97656.86328m6.97656-.86328l1.40625 2.0078m-2.42188-1.8828l1.41016 2.01171m12.92969-2.05078l-6.99219.69532m6.99219-.69532l1.35937 2.03907m-2.3789-1.94141l1.36328 2.04297m12.94531-2.33985l-6.9414 1.08985m6.9414-1.08985l1.47266 1.96094m-2.48438-1.80078l1.47656 1.96094m12.8086-2.33985l-6.85938 1.52735m6.85938-1.52735l1.59375 1.86329m-2.59375-1.64063l1.59765 1.86328m12.70313-2.14844l-6.83203 1.65235m6.83203-1.65235l1.6289 1.83594m-2.625-1.59375l1.62891 1.83203m12.63281-2.2578l-6.73046 2.01952m6.73046-2.01953l1.72657 1.74219m-2.70703-1.44922l1.72656 1.74219m12.66406-1.6211l-6.92578 1.19141m6.92578-1.1914l1.5039 1.9414m-2.51171-1.76953l.7539.97265m13.60547-.8828l-6.9961.66796m6.9961-.66797l1.35157 2.04688m-2.3711-1.94922l.67969 1.02344m13.54297-1.72657l-6.76953 1.88282m6.76953-1.88282l1.6875 1.77735m-2.67188-1.5039l.84375.88671m13.2539-1.70703l-6.36718 2.97265m6.36719-2.97265l1.96094 1.47656m11.52343-1.03125l-6.71093 2.08203m6.71093-2.08203l1.7461 1.72656m11.72656-.52343l-7.01953-.32422m7.01953.32422l1.05078 2.21484m12.17188-1.5664l-6.83594-1.6211m6.83594 1.6211l.62109 2.37109m12.66406-2.2461l-6.77734-1.87109m6.77734 1.8711l.53125 2.39452m12.83203-2.59765l-6.875-1.46485m6.875 1.46485l.67579 2.35937m12.67187-2.53906l-6.9414-1.10547"/><g clip-path="url(#ad)"><path fill="none" stroke="#000" stroke-linecap="round" stroke-linejoin="round" stroke-miterlimit="10" stroke-width=".5" d="M467.03125 387.67578l.79688 2.32031"/></g><g clip-path="url(#ae)"><path fill="none" stroke="#000" stroke-linecap="round" stroke-linejoin="round" stroke-miterlimit="10" stroke-width=".5" d="M145.78906 376.83203l-3.57812-6.04687"/></g><path fill="none" stroke="#000" stroke-linecap="round" stroke-linejoin="round" stroke-miterlimit="10" stroke-width=".5" d="M145.78906 376.83203l-1.28125 2.09375m14.26172-1.91797l-2.90625-6.39844m2.90625 6.39844l-1.4961 1.94531m1.07032-2.875l-1.4961 1.94141m16.55079-2.04687l-5.53516-4.32813m5.53516 4.32813l-.42578 2.41406m-.37891-3.04297l-.42969 2.41406m-.375-3.04687l-.21484 1.21094m15.84375-1.58985l-6.94531-1.04687m6.9453 1.04687l.81642 2.3164m-1.82422-2.46874l.8125 2.3164m-1.82422-2.46875l.8164 2.3125m14.51172-1.9453l-6.92969-1.17188m6.9297 1.17187l.77343 2.32422m-1.78516-2.4961l.77735 2.32813m-1.78516-2.5l.77734 2.32813m14.4961-3.44141l-6.8086 1.74219m6.8086-1.74219l1.65234 1.8125m-2.64453-1.5586l1.65234 1.8125M212 373.44532l1.65234 1.8125m13.64453-2.3086l-6.8125 1.71876m6.8125-1.71875l1.64844 1.82031m-2.64062-1.57031l1.64844 1.82031m12.71093-1.82422l-6.91797 1.22266m6.91797-1.22266l1.51172 1.9336m-2.51562-1.75391l1.51172 1.9336m12.83984-1.91016l-6.98047.82031m6.98047-.82031l1.39453 2.01953m-2.41016-1.89844l1.39453 2.01563m12.9375-2.11329l-6.98437.77344m6.98438-.77344l1.3828 2.02735m-2.39843-1.91406l1.38281 2.02343m12.9375-2.21093l-6.96484.92187m6.96484-.92187l1.42578 1.99609m-2.4375-1.86328l1.42578 1.9961m12.8672-2.33985l-6.89844 1.34375m6.89843-1.34375l1.54688 1.90625m-2.55078-1.71094l1.54687 1.90625m-2.55078-1.71094l.77344.95313m14.51953-1.48828l-6.83594 1.63281m6.83594-1.63281l1.6211 1.83984m-2.6172-1.60156l1.625 1.83984m-2.61718-1.60156l.8086.91797m14.4453-1.58203l-6.73828 2.0039m6.73828-2.0039l1.72266 1.75m-2.70313-1.45703l1.72266 1.74609m-2.70312-1.45313l.85937.8711m14.28906-1.8125l-6.48046 2.71484m6.48046-2.71484l1.89844 1.55469m-2.84375-1.15625l1.90235 1.55078m-2.84375-1.15625l.94921.77734m14.41407-1.08984l-6.8047 1.75781m6.8047-1.75781l1.65625 1.8086m-2.64844-1.5547l1.66015 1.8086m-2.64843-1.55078l.82812.90234m14.54688-1l-6.96485.92969m6.96485-.92969l1.42969 1.99219m-2.44141-1.85938l1.42578 1.9961m12.875-2.29688l-6.91406 1.26563m6.91406-1.26563l1.52344 1.92578m-2.52735-1.74219l1.51954 1.92579M387 372.67969l-6.65625 2.25781M387 372.67969l1.78516 1.67969m-2.75391-1.35157l1.78516 1.67969m12.5078-1.97656l-6.67577 2.19531m6.67578-2.19531l1.76953 1.69531m-2.74219-1.375l.88672.84766m13.41406-1.12891l-6.69921 2.11719m6.69921-2.11719l1.75 1.71484m-2.72656-1.40625l.875.85547m13.52344.52344l-6.91406-1.25781m6.91406 1.25781l.7461 2.33594m12.04296-1.03125L434 371.875m5.86328 3.86719l-.23047 2.4414m14.10938-4.02343l-6.99219-.70313m5.97656.60156l.46485 1.13282m13.55859.09375l-6.375-2.95313m6.375 2.95313l.13672 2.44921"/><g clip-path="url(#af)"><path fill="none" stroke="#000" stroke-linecap="round" stroke-linejoin="round" stroke-miterlimit="10" stroke-width=".5" d="M143.41797 363.95703l1.16406-6.92969"/></g><path fill="none" stroke="#000" stroke-linecap="round" stroke-linejoin="round" stroke-miterlimit="10" stroke-width=".5" d="M158.6875 363.72656l-2.74219-6.46875m2.74219 6.46875l-1.54688 1.90625m1.14454-2.84765l-1.54297 1.90625m14.85156-.82032l-1.92578-6.7578m1.92578 6.7578l-1.76953 1.70313m1.48828-2.6836l-1.76563 1.69922m1.48438-2.68359l-.88281.85156m16.1875.3086l-4.78125-5.14844m4.78125 5.14844l-.80469 2.3203m.10938-3.0664l-.8047 2.3164m15.75391-3.02343l-6.66015-2.23828m6.66015 2.23828l.40235 2.42188m-1.3711-2.7461l.40235 2.41797m-1.3711-2.7461l.19922 1.21094m15.08203-.64453l-6.71484-2.0703m6.71484 2.0703l.46094 2.41016m-1.4375-2.71094l.46094 2.41016m-1.4375-2.71094l.46094 2.41016m14.53906-4.51563l-6.17969 3.34766m6.17969-3.34766l2.04297 1.35547m-2.9414-.86719l2.04296 1.35547m-2.9414-.8711l1.01952.6797m14.375-.95704l-6.74609 1.95704m6.7461-1.95704l1.71093 1.75782m-2.6914-1.47266l1.71093 1.75781m12.66016-1.74609l-6.89453 1.35938m6.89453-1.35938l1.54688 1.90625m-2.55079-1.70703l1.55078 1.90234m12.78125-2.02734l-6.92187 1.21094m6.92188-1.21094l1.5078 1.9336m-2.51562-1.75782l.7539.96875m13.58595-1.03516l-6.95704.9961m6.95704-.9961l1.44922 1.98047m-2.46094-1.83594l1.44531 1.98047m12.86719-2.21875l-6.92578 1.1797m6.92578-1.1797l1.5 1.94141m-2.50781-1.76953l1.5 1.9414m12.6875-2.65234l-6.65625 2.25781m6.65625-2.2578l1.78515 1.68358m-2.7539-1.35546l1.78515 1.68359m12.45313-2.13281l-6.56641 2.5m6.5664-2.5l1.84766 1.61719m-2.80078-1.25l1.84375 1.61328m12.41016-2.01954l-6.53906 2.57813m6.53906-2.57813l1.86719 1.59375m-2.82032-1.21875l1.86719 1.59375m12.53516-1.55078l-6.8047 1.7461m6.8047-1.7461l1.65625 1.8125m-2.64453-1.55859l1.65234 1.8125m12.72266-1.72266l-6.94922 1.0586m6.94922-1.0586l1.46484 1.96875m-2.47656-1.8164l1.46484 1.96875m-2.47656-1.8125l.73437.98437m14.58594-1.38672l-6.91406 1.2461m6.91406-1.2461l1.51953 1.92579m-2.52344-1.7461l1.51563 1.92578m12.71094-2.4961l-6.72657 2.02735m6.72657-2.02734l1.72656 1.74219m-2.70703-1.44922l1.73047 1.74219m12.61718-1.84375l-6.83203 1.64453m6.83203-1.64454l1.62891 1.83594m-2.6211-1.59765l1.625 1.83593m12.70704-1.96093l-6.88281 1.41796m6.8828-1.41796l1.56641 1.88671m-2.5664-1.68359l1.5664 1.89063m12.76563-2.00782l-6.91406 1.2422m6.91406-1.2422l1.51562 1.9297m-2.51953-1.7461l1.51563 1.92578m12.83203-1.03906l-6.97266-.89844m6.97266.89844l.86328 2.29687m-1.8789-2.42578l.43359 1.14844m13.8711-2.07422l-6.92188 1.21094m6.92187-1.21094l1.50781 1.9375m11.85547-1.5039l-7.01953.34765m6-.29688l.6289 1.05079"/><g clip-path="url(#ag)"><path fill="none" stroke="#000" stroke-linecap="round" stroke-linejoin="round" stroke-miterlimit="10" stroke-width=".5" d="M142.19531 350.1914l3.60938-6.02734"/></g><path fill="none" stroke="#000" stroke-linecap="round" stroke-linejoin="round" stroke-miterlimit="10" stroke-width=".5" d="M158.25781 350.5625l-1.88672-6.76953m1.88672 6.76953l-1.77734 1.6914m1.5039-2.67577l-1.77734 1.6914m14.7461-.59375l-.64844-6.9961m.64844 6.9961l-2.05079 1.34766m1.95703-2.36328l-2.05078 1.34375m1.95703-2.36329l-2.05078 1.34766m1.95703-2.36719l-1.02734.67579m15.35156 2.23437l-2.10156-6.70703m2.10156 6.70703l-1.72265 1.7461m1.41797-2.72266l-1.72266 1.7461m16.41016-1.32032l-4.23828-5.60547m4.23828 5.60547l-1.03125 2.22656m.41406-3.04297l-.51563 1.11328m15.4297-1.4453l-6.19923-3.3086m6.19922 3.3086l-.00781 2.45702m-.89453-2.9375l-.0039 2.45313m-.89845-2.9336l-.0039 1.22657m15.51172-1.51563l-6.98047-.8086m6.98047.8086l.89843 2.28125m-1.91406-2.39844l.89844 2.28125m-1.91406-2.39843l.44922 1.14062m14.3203-3.27734l-5.82421 3.9336m5.82422-3.9336l2.16797 1.14844m-3.01563-.57422l2.16797 1.14843m12.34375-1.05859l-6.52344 2.60938m6.52344-2.60938l1.875 1.58203m-2.82422-1.20312l1.875 1.58203m12.5664-1.3789l-6.875 1.4414m6.875-1.4414l1.57423 1.88671m-2.57422-1.67578l1.57031 1.88281m12.8086-1.63672l-7.00391.52735m7.0039-.52735l1.3125 2.07422m-2.32812-1.9961l.65234 1.03516m13.63672-1.46875l-6.91797 1.23829m6.91797-1.23829l1.51563 1.9297m-2.52344-1.75l.75781.96483m13.35156-1.87109l-6.49218 2.69531m6.49218-2.6953l1.89454 1.55858m-2.83985-1.16796l1.89453 1.55859m12.29688-2.10547l-6.35547 3.0039m6.35547-3.0039l1.96484 1.46485m-2.89062-1.02735l1.96875 1.46485m12.27734-1.89063l-6.36328 2.98047m6.36328-2.98047l1.96094 1.47266m-2.88672-1.03907l1.96094 1.47266m12.55468-1.04688l-6.91406 1.26172m6.91406-1.26171l1.51954 1.92578m-2.52735-1.7422l.76172.96095m13.60938-.77344l-7.00782.51953m7.00782-.51953l1.30859 2.07422m-2.33203-2l1.3125 2.07422m13.01562-2.25l-6.99218.72265m6.99218-.72265l1.36719 2.03906m-2.38281-1.9336l1.36719 2.03907m-2.38672-1.9336l.68359 1.01954m14.59766-1.65235l-6.85157 1.5664m6.85157-1.5664l1.60547 1.85547m-2.60547-1.6289l1.60937 1.85546m-2.60547-1.625l.80469.92578m14.51563-1.32812l-6.8711 1.46094m6.8711-1.46094L402 348.32812m-2.57812-1.66796L401 348.53906m-2.57812-1.66797l.78906.94141m14.52344-1.38281l-6.8672 1.4961m6.8672-1.4961l1.58593 1.875m-2.58593-1.65625l1.58593 1.8711m-2.58203-1.65235l.79297.9336m14.5039-1.44142l-6.83593 1.63672m6.83594-1.63671l1.62109 1.83984m-2.61719-1.60156l1.625 1.83984m-2.61718-1.60156l.80859.92187m14.54297-1.16015l-6.9336 1.16015m6.9336-1.16015l1.49219 1.9453m-2.50391-1.77733l1.4961 1.9453m-2.50391-1.77734l.75.97266m14.48828-1.71875l-6.74219 1.98438m6.74219-1.98438l1.71875 1.75m-2.69922-1.46094l1.71484 1.75m12.57813-2.04687l-6.73828 1.9961"/><g clip-path="url(#ah)"><path fill="none" stroke="#000" stroke-linecap="round" stroke-linejoin="round" stroke-miterlimit="10" stroke-width=".5" d="M466.92969 346.17969l1.71875 1.7539"/></g><path fill="none" stroke="#000" stroke-linecap="round" stroke-linejoin="round" stroke-miterlimit="10" stroke-width=".5" d="M465.94922 346.47266l.85937.875"/><g clip-path="url(#ai)"><path fill="none" stroke="#000" stroke-linecap="round" stroke-linejoin="round" stroke-miterlimit="10" stroke-width=".5" d="M143.73047 337.36719l.53906-7.00781"/></g><path fill="none" stroke="#000" stroke-linecap="round" stroke-linejoin="round" stroke-miterlimit="10" stroke-width=".5" d="M157.92969 337.32031l-1.23047-6.91797m1.23047 6.91797L156 338.83594m1.75-2.51953l-1.92969 1.51171m1.7539-2.51953l-.96874.75782M171 337.35547l-.74219-6.98828M171 337.35547l-2.03125 1.375m1.92578-2.39063l-2.03516 1.375m1.92579-2.39062l-1.01563.6875m14.8125 1.30469l-1.27344-6.91016m1.27344 6.91016l-1.91797 1.52734m1.73438-2.53125l-1.92188 1.52734m1.73438-2.53125l-.96094.76172m15.4375 1.0039l-2.85156-6.42187m2.85156 6.42188l-1.51563 1.9336m1.09766-2.8672l-1.51172 1.9297m1.09766-2.86329l-.7539.96485m15.48827.5703l-4.02734-5.7578m4.02734 5.7578l-1.11718 2.1875m.53125-3.02343l-1.1172 2.1836m.53126-3.02344l-.5586 1.09375m15.64844.04687l-5.23437-4.6875m5.23437 4.6875l-.58594 2.38281m-.17578-3.0664l-.58593 2.38281m15.08203-2.27734l-6.07422-3.53125m6.07422 3.53125l-.09375 2.45312m-.78906-2.96875l-.09375 2.45313m14.51171-5.01954l-6.51562 2.63282m6.51562-2.63281l1.87891 1.57421m-2.82813-1.1914l.94141.78515m13.47656-.70312l-6.8203 1.70312m6.8203-1.70312l1.64063 1.82031m-2.63281-1.57422l1.64062 1.82422m12.72656-1.76172l-6.9414 1.08594m6.9414-1.08594l1.47266 1.96094m-2.48047-1.80469l1.47266 1.96094m-2.48438-1.80078l.73828.98047m14.57813-1.39844l-6.90625 1.28906m6.90625-1.28906l1.53125 1.91797m-2.53516-1.73047l1.53125 1.91797m-2.53515-1.73047l.76562.96094m14.46094-1.72656l-6.71484 2.0703m6.71484-2.0703l1.74219 1.73046m-2.71875-1.42968l1.74218 1.73046m-2.71875-1.42968l.8711.86328m14.21094-1.94922l-6.33985 3.03516m6.33985-3.03516l1.97265 1.45703m-2.89453-1.01172l1.97266 1.45313m-2.89453-1.01172l.98437.72656m14.01953-1.89844l-6.02734 3.60938m6.02734-3.60938l2.10156 1.26563m-2.98046-.74219l2.10156 1.26563m12.30078-1.37891L340.5 335.25781m6.44922-2.78906L348.86719 334m-2.85547-1.125l.96094.76563m13.55078.69921l-6.96485-.95312m6.96485.95312l.84375 2.3047m-1.85938-2.44142l.42578 1.14844M373.85156 333.5l-6.99218.72266m6.99218-.72266l1.36719 2.03906m-2.38281-1.9336l1.36719 2.03907m12.875-2.64062l-6.8125 1.71875m6.8125-1.71875l1.64453 1.8203m-2.63672-1.5703l.82422.91015m13.58984-.375l-7.02734.14844m7.02734-.14844l1.19531 2.14453m-2.21875-2.12109l.59766 1.07031m13.69531-1.58594l-6.9375 1.13282m6.9375-1.13281l1.48438 1.94921m-2.4922-1.78515l1.48438 1.95312m12.78907-2.36328l-6.83594 1.625m6.83594-1.625l1.62109 1.83985m-2.61719-1.60547l1.6211 1.84375m-2.61328-1.60547l.80859.92187m14.42969-1.63281l-6.70703 2.10156m6.70703-2.10156l1.74609 1.72266m-2.72266-1.41797l1.7461 1.72265m-2.72266-1.41406l.875.85938m14.35938-1.57813l-6.63672 2.3086m6.63672-2.3086l1.79687 1.66797m-2.76562-1.33203l1.80078 1.66797m-2.76563-1.33203l.90235.83593m14.1914-1.8789l-6.32812 3.05469"/><g clip-path="url(#aj)"><path fill="none" stroke="#000" stroke-linecap="round" stroke-linejoin="round" stroke-miterlimit="10" stroke-width=".5" d="M466.72656 332.33594l1.97656 1.44922"/></g><g clip-path="url(#ak)"><path fill="none" stroke="#000" stroke-linecap="round" stroke-linejoin="round" stroke-miterlimit="10" stroke-width=".5" d="M465.80469 332.77734l1.98047 1.44922"/></g><g clip-path="url(#al)"><path fill="none" stroke="#000" stroke-linecap="round" stroke-linejoin="round" stroke-miterlimit="10" stroke-width=".5" d="M143.27734 323.98438l1.44532-6.875"/></g><path fill="none" stroke="#000" stroke-linecap="round" stroke-linejoin="round" stroke-miterlimit="10" stroke-width=".5" d="M158.35547 323.90625l-2.07813-6.71484m2.07813 6.71484l-1.73047 1.73828m1.42578-2.71875l-1.72656 1.74219m1.42578-2.71875l-.86328.8711m15.35937.84765l-3.23047-6.24219m3.23047 6.24219l-1.39453 2.01953m.92188-2.92578l-1.39453 2.01562m.92578-2.92578l-1.39453 2.01953m15.41015-.08984l-2.75-6.46484m2.75 6.46484l-1.53906 1.90625m1.14063-2.84766L183.3789 324.75m1.14062-2.85156l-1.53906 1.91015m1.14062-2.85156l-.77343.95703m15.23047 1.89063l-2.63282-6.51563m2.63281 6.51563L197 325.68359m1.19531-2.82421l-1.57812 1.8789m1.19531-2.82812l-.78906.9414m15.45312.65235l-3.80469-5.91016m3.8047 5.91016l-1.19532 2.14062m.64453-3.0039l-1.19922 2.14453m.64453-3.00391l-.59765 1.07422m15.83203-.07813l-5.42969-4.46093m5.42969 4.46093l-.48438 2.40625m-.30468-3.05468l-.48438 2.40625m15.15234-2.72657l-6.55859-2.51953m6.5586 2.51953l.30078 2.4336m-1.25391-2.80078l.14844 1.21875m14.23047-1.1797l-6.77735-1.86327m6.77735 1.86328l.53515 2.39453m-1.52344-2.66797l.53516 2.39453m13.89063-2.99219l-7.02344-.125m7.02344.125l1.11328 2.1875m-2.13281-2.20312l1.11328 2.1836m13.18359-2.76173l-6.94531 1.06641m6.94531-1.0664l1.46484 1.96484m-2.47656-1.8125l1.46875 1.96875m12.76172-2.55078l-6.75781 1.92187m6.75781-1.92187l1.70313 1.76953m-2.6836-1.48828l1.69922 1.76562m12.42578-2.51953l-6.41406 2.8711m6.41406-2.8711l1.9375 1.50781m-2.8711-1.08984l1.9375 1.5039m12.32813-1.88671l-6.44922 2.79687m6.44922-2.79687l1.91797 1.52734m-2.85547-1.1211l1.91797 1.53126m12.34766-1.89844l-6.47656 2.72266m6.47656-2.72266l1.90234 1.55078m-2.84375-1.15625l1.90235 1.55078m12.40625-1.8164l-6.58204 2.46484m6.58204-2.46484l1.83984 1.625m-2.79688-1.26563l1.83985 1.625m12.33984-2.20703l-6.39453 2.91016m6.39453-2.91016l1.94531 1.49219m11.51172-1.1289l-6.67969 2.17968m5.70704-1.86328l.88671.85156m13.33594-1.35547l-6.54687 2.55469m6.54687-2.55469l1.85938 1.60156m11.02344 1.7422l-5.6836-4.12892M399 322.01173l-.16797 1.21484m12.7461-5.95312l-2.5547 6.54687m2.1836-5.59375l1.21875-.14062m12.9414-.58203l-3.5039 6.08984m18.58203-3.0039l-7.02734-.08594m7.02734.08593l1.125 2.1797m11.92188-3.5625L447 321.89061m6.49219-2.68359l1.89453 1.5625m-2.83594-1.17187l1.89063 1.5625m11.84765-2.82813l-5.45703 4.42969"/><g clip-path="url(#am)"><path fill="none" stroke="#000" stroke-linecap="round" stroke-linejoin="round" stroke-miterlimit="10" stroke-width=".5" d="M466.28906 318.33203l2.26172.95703"/></g><g clip-path="url(#an)"><path fill="none" stroke="#000" stroke-linecap="round" stroke-linejoin="round" stroke-miterlimit="10" stroke-width=".5" d="M465.4961 318.97656l2.2578.95703"/></g><path fill="#ff3030" fill-rule="evenodd" d="M366.74219 441.01953h7.6914V430.8711h-7.6914v10.14844"/><path fill="azure" fill-rule="evenodd" d="M368.57422 432.70703h.83203v5.73828h3.19531v.73828h-4.02734v-6.47656"/><path fill="#ff3030" fill-rule="evenodd" d="M193.64453 409.94922h7.69531v-10.14453h-7.6953v10.14453"/><path fill="azure" fill-rule="evenodd" d="M195.47656 401.63672h.83594v5.73828h3.1914v.74219h-4.02734v-6.48047"/><path fill="#ffffe0" fill-rule="evenodd" d="M397.17188 445.6875h22.18359v-10.1914h-22.1836v10.1914"/><path fill-rule="evenodd" d="M400.67188 437.32813h.51171v6.29687h-.78906v-4.49219h-1.38672v-.55469l.5586-.0664.2539-.05078.22656-.08985.20313-.14062.17578-.21094.14063-.29687.10546-.39454m4.81641 0l.22656.01954.21875.05468.21094.08985.19531.1211.1836.14843.17187.17578.30078.42188.2422.49218.17968.54688.11328.57812.03906.59375-.03906.58985-.11328.58593-.17969.5547-.24219.5-.30078.42968-.17187.17969-.1836.15234-.1953.125-.21095.08984-.21875.0586-.22656.01953-.23047-.01953-.21875-.0586-.20703-.08984-.19922-.125-.1836-.15234-.17187-.1797-.30078-.42968-.24219-.5-.17968-.55469-.11328-.58593-.03907-.58985h.83594l.02735.5625.08203.5039.125.44532.16406.3711.1914.30078.21094.22265.22266.13672.22656.04688.22656-.04688.22266-.13672.20703-.22265.1914-.30079.16407-.37109.125-.44531.08203-.5039.02735-.5625-.02735-.5625-.08203-.5-.125-.4375-.16406-.36329-.1914-.29297-.20704-.21484-.22266-.13281-.22656-.04297-.22656.04297-.22266.1328-.21094.21485-.1914.29297-.16406.36328-.125.4375-.08204.5-.02734.5625h-.83594l.03907-.59375.11328-.57812.17969-.54688.24218-.49219.30078-.42187.17188-.17578.1836-.14844.19921-.1211.20703-.08984.21875-.05468.23047-.01954m5.08985 0h.5078v6.29688h-.78515v-4.49219h-1.39062v-.55469l.5625-.0664.25-.05078.23046-.08985.20313-.14062.17578-.21094.14063-.29687.10546-.39454m2.82422 2.17579h.78516l.01953-.31641.0586-.28516.10156-.2539.14062-.21485.17969-.17578.22266-.1289.26562-.07813.3086-.02734.23828.01953.22265.0625.20313.10156.17969.14063.14843.17187.11328.20703.07422.23438.02344.26562-.02344.26953-.0625.22266-.11328.1914-.15234.17188-.20313.16406-.2461.16407-.6328.39062-.53907.3125-.4375.3164-.34765.32423-.26172.33593-.1914.35157-.125.37109-.06641.39063-.02344.42187h4.21484v-.74219h-3.33594l.08594-.28515.11328-.23438.14844-.20312.1875-.1797.23047-.17187.27734-.17578.71875-.41797.41407-.20312.34375-.23047.28125-.2539.22265-.26563.16016-.27735.11328-.28515.0625-.28516.01953-.28125-.03906-.38281-.1211-.34766-.1914-.30859-.25-.26172-.30078-.21094-.34766-.16015-.3789-.09766-.40625-.03515-.4336.03515-.39844.09766-.35546.16406-.3047.23438-.25.30468-.18359.375-.11718.44531-.03907.51954"/><path fill="#ffffe0" fill-rule="evenodd" d="M306.23828 455.11719h22.17969v-10.1914h-22.17969v10.1914"/><path fill-rule="evenodd" d="M309.73828 446.75781h.50781v6.29297h-.78906v-4.48828h-1.38672v-.55469l.5586-.0664.2539-.0547.23047-.08983.20313-.14063.17187-.21094.14063-.29297.10937-.39453m4.8125 0l.23047.01953.21875.0547.20703.08983.19531.1211.1836.14844.17187.17578.30078.41797.2461.49609.17969.54688.10937.57812.03906.58984-.03906.59375-.10938.58594-.17968.55078-.2461.5039-.30078.4297-.17187.17968-.1836.15235-.1953.1211-.20704.09374-.21875.05469-.23047.01953-.23047-.01953-.21875-.05469-.20703-.09375-.19531-.1211-.1875-.15234-.16797-.17968-.30469-.4297-.24219-.5039-.17968-.55078-.11328-.58594-.03516-.59375h.83203l.02735.5625.08203.50782.1289.4414.16016.375.1914.30078.21094.22266.22266.13672.22656.04687.22656-.04687.22266-.13672.21094-.22266.1914-.30078.16016-.375.125-.4414.08203-.50782.03125-.5625-.03125-.55859-.08203-.5039-.125-.4336-.16016-.36719-.1914-.29297-.21094-.21093-.22266-.13282-.22656-.04687-.22656.04687-.22266.13282-.21094.21093-.1914.29297-.16016.36719-.1289.4336-.08204.5039-.02734.5586h-.83203l.03516-.58985.11328-.57813.17969-.54687.24218-.4961.30469-.41796.16797-.17578.1875-.14844.19531-.1211.20703-.08984.21875-.05469.23047-.01953m5.08985 0h.51171v6.29297h-.78906v-4.48828h-1.38672v-.55469l.5586-.0664.2539-.0547.22656-.08983.20313-.14063.17578-.21094.14063-.29297.10546-.39453m2.82422 2.17578h.78516l.02344-.3164.0586-.28906.09765-.25.14062-.21485.17969-.17578.22266-.1289.26562-.07813.3086-.03125.23828.02344.22265.0625.20703.10156.1797.13672.14843.17578.11328.20312.07031.23829.02344.26562-.01953.26563-.0664.22656-.10938.1914-.15625.17188-.19922.16015-.25.16797-.63281.38672-.53907.3164-.4375.31642-.34375.32421-.26562.33594-.1914.35156-.125.3672-.06641.39452-.01954.41797h4.21094v-.73828h-3.33203l.08203-.28516.11328-.23828.14844-.19922.1875-.17968.23047-.17188.27734-.17578.71875-.41797.41407-.20312.34765-.23438.28125-.25.21875-.26562.16406-.27735.10938-.28515.0625-.28516.02344-.28125-.04297-.38281-.1211-.34766-.1875-.3086-.25-.26171-.30468-.21485-.34375-.15625-.38281-.10156-.40625-.03125-.4336.03125-.39844.09766-.35546.16797-.3047.23437-.24609.30469-.1875.375-.11718.44531-.03907.51953"/><path fill="#ffffe0" fill-rule="evenodd" d="M332.86719 366.33984h22.17969v-10.1914h-22.1797v10.1914"/><path fill-rule="evenodd" d="M336.36719 357.98047h.50781v6.29297h-.78516v-4.48828h-1.39062v-.5547l.5625-.0664.25-.05469.23047-.08593.20312-.14453.17578-.20704.14063-.29687.10547-.39453m4.8125 0l.23047.01953.21875.05469.20703.08984.19531.1211.1875.14843.16797.17578.30469.42188.24218.49219.1797.54687.11327.57813.03516.58984-.03516.59375-.11328.58594-.17969.55469-.24218.5-.3047.42968-.16796.17969-.1875.15234-.19531.125-.20703.08985-.21875.0586-.23047.01952-.23047-.01953-.21875-.0586-.20703-.08984-.19531-.125-.1836-.15234-.17187-.17969-.30079-.42969-.24609-.5-.17969-.55468-.10937-.58594-.03906-.59375h.83203l.03125.5664.08203.50391.125.4414.16015.375.19141.30079.21094.22266.22265.13671.22657.04688.22656-.04688.22266-.13671.21093-.22266.19141-.30078.16016-.375.1289-.4414.08203-.50391.02735-.56641-.02735-.5586-.08203-.5-.1289-.4375-.16016-.36718-.1914-.28906-.21094-.21485-.22266-.13281-.22656-.04297-.22656.04297-.22266.13281-.21094.21485-.1914.28906-.16016.36719-.125.4375-.08203.5-.03125.55859h-.83203l.03906-.58984.10937-.57813.1797-.54687.24608-.4922.30079-.42187.17187-.17578.1836-.14844.1953-.12109.20704-.08984.21875-.05469.23047-.01953m5.09375 0h.50781v6.29297h-.78906v-4.48828h-1.38672v-.5547l.5586-.0664.2539-.05469.23047-.08593.20312-.14453.17188-.20704.14062-.29687.10938-.39453m6.80078 1.6211h-.78516l-.05078-.21485-.08203-.1836-.10938-.16015-.1289-.13281-.14453-.10157-.16016-.07421-.16797-.04297-.17578-.01563-.32812.03906-.28516.1211-.2461.19531-.20312.26953-.16015.33594-.1172.40625-.0703.46484-.02344.52735.1875-.20313.1875-.16015.1836-.1211.1875-.08984.1875-.0586.1914-.03906.40234-.02344.3086.03125.3203.09375.31641.15235.29297.22265.2539.28125.19923.35157.07422.19921.05078.21875.03125.23438.0039.2539-.78515.04298-.02735-.25782-.07812-.25-.125-.23437-.16016-.21094-.1914-.17578-.21875-.13672-.2422-.08984-.2539-.03125-.25781.03125-.23828.08984-.21875.13672-.19531.17578-.16016.21094-.1211.23437-.07812.25-.02734.25781.02734.26172.07813.25.12109.23438.16016.21094.1953.17578.21876.13672.23828.08984.25781.03125.2539-.03125.2422-.08984.21875-.13672.1914-.17578.16016-.21094.125-.23438.07812-.25.02735-.26171.78515-.04297-.03125.36718-.09375.375-.15625.35547-.22265.32813-.28906.28515-.17188.1172-.1875.10155-.20703.08594-.22266.0586-.24219.03906-.2578.01562-.28516-.01562-.25782-.04688-.23828-.07812-.21484-.10547-.19531-.13281-.17579-.15625-.15234-.1797-.13672-.19921-.11719-.22266-.09765-.24218-.14844-.53516-.08203-.59375-.02734-.64063.03906-.74218.11328-.66406.1875-.57813.11719-.2539.13672-.23438.15625-.20313.16796-.18359.1875-.15625.20313-.1289.21484-.10157.23438-.07422.2461-.04297.26171-.01562.36719.03515.33203.09375.29688.15235.2539.19922.21485.23828.16406.27734.11328.30078.0625.32422"/><path fill="#ffffe0" fill-rule="evenodd" d="M207.05469 370.23438h22.17969v-10.19141h-22.1797v10.1914"/><path fill-rule="evenodd" d="M210.55469 361.875h.50781v6.29688h-.78906v-4.48829h-1.38672v-.55859l.5586-.0625.2539-.05469.23047-.08984.20312-.14063.17188-.21093.14062-.29297.10938-.39844m4.8125 0l.23047.01953.21875.0586.20703.08593.19531.1211.1836.15234.17187.17578.30078.41797.2461.49219.17968.54687.10938.58203.03906.58985-.03906.59375-.10938.58203-.17969.55469-.24609.5039-.30078.42578-.17188.1797-.18359.15233-.19531.125-.20703.09375-.21875.0547-.23047.01952-.23047-.01953-.21875-.05469-.20703-.09375-.19531-.125-.1875-.15234-.16797-.17969-.3047-.42578-.24218-.5039-.17969-.5547-.11328-.58202-.03515-.59375h.83203l.02734.5625.08203.50781.1289.4414.16017.375.1914.30079.21094.21875.22266.13672.22656.04687.22656-.04687.22266-.13672.21093-.21875.19141-.30078.16016-.375.125-.44141.08203-.50781.03125-.5625-.03125-.5625-.08203-.5-.125-.4336-.16016-.36718-.1914-.29297-.21094-.21485-.22266-.1289-.22656-.04688-.22656.04688-.22266.1289-.21094.21485-.1914.29297-.16016.36718-.1289.4336-.08204.5-.02734.5625h-.83203l.03515-.58985.11328-.58203.1797-.54687.24218-.49219.30469-.41797.16797-.17578.1875-.15234.1953-.1211.20704-.08594.21875-.05859.23047-.01953m5.08984 0h.51172v6.29688h-.78906v-4.48829h-1.38672v-.55859l.5586-.0625.2539-.05469.22656-.08984.20313-.14063.17578-.21093.14062-.29297.10547-.39844m6.80469 1.6211h-.78516l-.05469-.21094-.07812-.1875-.10938-.16016-.1289-.1289-.14844-.10157-.16016-.07422-.16796-.04687-.17188-.01563-.32812.04297-.28516.11719-.2461.19531-.20702.26953-.16016.33985-.11328.40234-.07031.46875-.02344.52344.1875-.19922.1875-.16016.1836-.1211.1875-.08983.1875-.0625.1914-.03516.40234-.02344.30469.03125.32031.08985.3164.15625.29688.21875.2539.28515.19923.35156.07422.19922.05078.21875.02734.23438.00781.25-.78906.04687-.02734-.25781-.07813-.2539-.1211-.23438-.16015-.20703-.19531-.17969-.21875-.13672-.23828-.08984-.25781-.03125-.25391.03125-.23828.08984-.22266.13672-.1914.17969-.16016.20703-.125.23437-.07422.25391-.02734.25781.02734.25781.07422.25.125.23829.16016.20703.1914.17969.22266.13671.23828.08594.2539.03125.25782-.03125.23828-.08594.21875-.13671.19531-.1797.16016-.20702.1211-.23829.07812-.25.02734-.2578.78906-.04688-.03125.3711-.09375.37108-.15625.35938-.22265.32813-.28906.28125-.17188.12109-.1875.10156-.20703.08203-.22266.0625-.24219.03906-.26171.01172-.28125-.01562-.26172-.04688-.23828-.07812-.21485-.10156-.19531-.13282-.17188-.15625-.15625-.17968-.1328-.20313-.1172-.22265-.09765-.2422-.14844-.53515-.08594-.59375-.02734-.64062.03906-.7422.11328-.66405.1875-.57813.1211-.2539.13672-.23047.15234-.20704.17188-.17968.1875-.15625.19921-.1289.21875-.10157.23438-.07422.2461-.04688.26171-.01562.36719.03516.33203.09765.29297.14844.25781.19922.21094.24219.16797.27343.11328.3047.0625.3203"/><path fill="#ffffe0" fill-rule="evenodd" d="M214.5586 339.16797h22.13671v-10.1914H214.5586v10.1914"/><path fill-rule="evenodd" d="M218.0586 330.8086h.5078v6.29296h-.78515v-4.48828h-1.38672v-.55469l.5586-.0664.25-.05469.23046-.08594.20313-.14453.17578-.20703.14063-.29688.10546-.39453m4.8125 0l.23047.01954.21875.05468.20703.08985.19922.12109.1836.14844.17187.17578.30078.42187.24219.4922.17969.54687.11328.57812.03906.58985-.03906.59375-.11328.58593-.17969.55469-.24219.5-.30078.42969-.17187.17969-.1836.15234-.19922.125-.20703.08984-.21875.0586-.23047.01953-.22656-.01953-.21875-.0586-.21094-.08984-.1953-.125-.1836-.15235-.17188-.17968-.30078-.42969-.24219-.5-.18359-.55469-.10938-.58594-.03906-.59375h.83203l.03125.56641.08203.5039.125.44141.16407.375.1875.30079.21094.22265.22265.13672.22656.04688.22657-.04688.22265-.13672.21094-.22265.1914-.30079.16407-.375.125-.4414.08203-.5039.02734-.56642-.02734-.55859-.08203-.5-.125-.4375-.16406-.36719-.19141-.28906-.21094-.21484-.22265-.13281-.22657-.04297-.22656.04296-.22266.13282-.21093.21484-.1875.28906-.16406.3672-.125.4375-.08204.5-.03125.55858h-.83203l.03906-.58984.10938-.57812.1836-.54688.24218-.49219.30078-.42187.17188-.17578.1836-.14844.1953-.1211.21094-.08984.21875-.05469.22656-.01953m2.96485 2.17579h.78515l.01953-.31641.0586-.28516.10156-.2539.14063-.21485.17968-.17578.22266-.1289.26563-.07813.30859-.02734.23828.01953.22266.0625.20312.10156.17969.14063.14844.17187.11328.20703.07422.23438.02343.26562-.02343.26953-.0625.22266-.11328.1914-.15235.17188-.20312.16406-.2461.16406-.63281.39063-.53906.3125-.4375.3164-.34766.32423-.26172.33593-.1914.35156-.125.3672-.06641.39452-.02344.41797h4.21094v-.73828h-3.33203l.08594-.28515.11328-.23829.14844-.19921.1875-.1797.23046-.17187.27735-.17578.71875-.41797.41406-.20312.34375-.23047.28125-.2539.21875-.26563.16406-.27735.11328-.28515.0625-.28516.01953-.28125-.03906-.38281-.1211-.34766-.1914-.3086-.25-.26171-.30078-.21484-.34766-.15625-.3789-.09766-.40625-.03516-.4336.03125-.39843.10157-.35547.16406-.30469.23437-.25.3047-.1836.375-.11718.4453-.03906.51954m6.9414-2.17579l.23047.01954.21875.05468.20703.08985.19532.12109.1875.14844.16797.17578.30468.42187.24219.4922.17969.54687.11328.57812.03516.58985-.03516.59375-.11328.58593-.17969.55469-.24219.5-.30469.42969-.16796.17969-.1875.15234-.19532.125-.20703.08984-.21875.0586-.23047.01953-.23047-.01953-.21875-.0586-.20703-.08984-.1953-.125-.1836-.15235-.17188-.17968-.30078-.42969-.2461-.5-.17968-.55469-.10938-.58594-.03906-.59375h.83203l.03125.56641.08203.5039.125.44141.16016.375.1914.30079.21095.22265.22265.13672.22656.04688.22657-.04688.22265-.13672.21094-.22265.1914-.30079.16016-.375.1289-.4414.08204-.5039.02734-.56642-.02734-.55859-.08203-.5-.1289-.4375-.16016-.36719-.19141-.28906-.21094-.21484-.22265-.13281-.22657-.04297-.22656.04296-.22266.13282-.21093.21484-.1914.28906-.16017.3672-.125.4375-.08203.5-.03125.55858h-.83203l.03906-.58984.10938-.57812.17969-.54688.2461-.49219.30077-.42187.17188-.17578.1836-.14844.1953-.1211.20703-.08984.21875-.05469.23047-.01953"/></g></defs><use xlink:href="#ao"/></svg>