<svg xmlns="http://www.w3.org/2000/svg" role="img" xmlns:xlink="http://www.w3.org/1999/xlink" viewBox="142.45 309.95 326.84 171.84"><defs><clipPath id="a"><path d="M144 404h1v76.32813h-1zm0 0"/></clipPath><clipPath id="b"><path d="M144 311.67188h1V325h-1zm0 0"/></clipPath><clipPath id="c"><path d="M144 311.67188h324v168.65625H144zm0 0"/></clipPath><clipPath id="d"><path d="M383 475h14v5.32813h-14zm0 0"/></clipPath><clipPath id="e"><path d="M467 311.67188h1v168.65625h-1zm0 0"/></clipPath><clipPath id="f"><path d="M144 479h4v1.32813h-4zm0 0"/></clipPath><clipPath id="g"><path d="M147 480h2v.32813h-2zm0 0"/></clipPath><clipPath id="h"><path d="M146 480h2v.32813h-2zm0 0"/></clipPath><clipPath id="i"><path d="M153 479h9v1.32813h-9zm0 0"/></clipPath><clipPath id="j"><path d="M160 479h3v1.32813h-3zm0 0"/></clipPath><clipPath id="k"><path d="M159 479h2v1.32813h-2zm0 0"/></clipPath><clipPath id="l"><path d="M166 479h9v1.32813h-9zm0 0"/></clipPath><clipPath id="m"><path d="M173 479h3v1.32813h-3zm0 0"/></clipPath><clipPath id="n"><path d="M172 479h3v1.32813h-3zm0 0"/></clipPath><clipPath id="o"><path d="M180 479h8v1.32813h-8zm0 0"/></clipPath><clipPath id="p"><path d="M187 479h3v1.32813h-3zm0 0"/></clipPath><clipPath id="q"><path d="M186 479h2v1.32813h-2zm0 0"/></clipPath><clipPath id="r"><path d="M193 478h8v2.32813h-8zm0 0"/></clipPath><clipPath id="s"><path d="M200 478h3v2.32813h-3zm0 0"/></clipPath><clipPath id="t"><path d="M199 479h2v1.32813h-2zm0 0"/></clipPath><clipPath id="u"><path d="M207 478h8v2.32813h-8zm0 0"/></clipPath><clipPath id="v"><path d="M213 478h3v2.32813h-3zm0 0"/></clipPath><clipPath id="w"><path d="M212 479h3v1.32813h-3zm0 0"/></clipPath><clipPath id="x"><path d="M220 478h8v2.32813h-8zm0 0"/></clipPath><clipPath id="y"><path d="M226 478h4v2.32813h-4zm0 0"/></clipPath><clipPath id="z"><path d="M225 479h3v1.32813h-3zm0 0"/></clipPath><clipPath id="A"><path d="M233 478h8v2.32813h-8zm0 0"/></clipPath><clipPath id="B"><path d="M240 478h3v2.32813h-3zm0 0"/></clipPath><clipPath id="C"><path d="M239 479h2v1.32813h-2zm0 0"/></clipPath><clipPath id="D"><path d="M247 478h7v2.32813h-7zm0 0"/></clipPath><clipPath id="E"><path d="M253 478h3v2.32813h-3zm0 0"/></clipPath><clipPath id="F"><path d="M260 478h8v2.32813h-8zm0 0"/></clipPath><clipPath id="G"><path d="M274 477h6v3.32813h-6zm0 0"/></clipPath><clipPath id="H"><path d="M288 477h5v3.32813h-5zm0 0"/></clipPath><clipPath id="I"><path d="M301 476h5v4.32813h-5zm0 0"/></clipPath><clipPath id="J"><path d="M315 476h4v4.32813h-4zm0 0"/></clipPath><clipPath id="K"><path d="M328 476h5v4.32813h-5zm0 0"/></clipPath><clipPath id="L"><path d="M342 476h4v4.32813h-4zm0 0"/></clipPath><clipPath id="M"><path d="M355 476h4v4.32813h-4zm0 0"/></clipPath><clipPath id="N"><path d="M369 476h3v4.32813h-3zm0 0"/></clipPath><clipPath id="O"><path d="M380 478h8v2.32813h-8zm0 0"/></clipPath><clipPath id="P"><path d="M385 478h3v2.32813h-3zm0 0"/></clipPath><clipPath id="Q"><path d="M394 477h6v3.32813h-6zm0 0"/></clipPath><clipPath id="R"><path d="M407 478h7v2.32813h-7zm0 0"/></clipPath><clipPath id="S"><path d="M420 478h7v2.32813h-7zm0 0"/></clipPath><clipPath id="T"><path d="M433 478h8v2.32813h-8zm0 0"/></clipPath><clipPath id="U"><path d="M447 477h6v3.32813h-6zm0 0"/></clipPath><clipPath id="V"><path d="M460 477h7v3.32813h-7zm0 0"/></clipPath><clipPath id="W"><path d="M144 466h4v2h-4zm0 0"/></clipPath><clipPath id="X"><path d="M144 453h4v2h-4zm0 0"/></clipPath><clipPath id="Y"><path d="M144 439h4v2h-4zm0 0"/></clipPath><clipPath id="Z"><path d="M144 426h4v2h-4zm0 0"/></clipPath><clipPath id="aa"><path d="M144 412h4v3h-4zm0 0"/></clipPath><clipPath id="ab"><path d="M144 399h4v3h-4zm0 0"/></clipPath><clipPath id="ac"><path d="M144 385h4v4h-4zm0 0"/></clipPath><clipPath id="ad"><path d="M144 370h3v8h-3zm0 0"/></clipPath><clipPath id="ae"><path d="M144 356h1v9h-1zm0 0"/></clipPath><clipPath id="af"><path d="M144 362h1v2h-1zm0 0"/></clipPath><clipPath id="ag"><path d="M144 343h2v8h-2zm0 0"/></clipPath><clipPath id="ah"><path d="M466 346h2v3h-2zm0 0"/></clipPath><clipPath id="ai"><path d="M144 330h1v8h-1zm0 0"/></clipPath><clipPath id="aj"><path d="M466 332h2v3h-2zm0 0"/></clipPath><clipPath id="ak"><path d="M144 316h1v9h-1zm0 0"/></clipPath><clipPath id="al"><path d="M144 323h1v3h-1zm0 0"/></clipPath><clipPath id="am"><path d="M466 318h2v2h-2zm0 0"/></clipPath><clipPath id="an"><path d="M465 318h3v3h-3zm0 0"/></clipPath><g id="ao" clip-path="url(#clip1)"><path fill="#fff" fill-opacity="0" fill-rule="evenodd" d="M0 0h1000v1000H0zm0 0"/><path fill="#d3d3d3" fill-opacity="0" fill-rule="evenodd" d="M162.15234 355.86719l-.23437.29297.0586.23437.11718.17188.17578.23437.29297.34766.11328.0586.11719-.17188.0586-.23438.17577-.17578.46485-.17578h.69922l.23437.29297.28906.8164.0586.17579.17578.23046.35156.23438.69922.69922.17188.17578.23437.34765.23438.41016.28906.58203.41015.46485.23047.23437.23438.17578.11719.23047.17578.29297.17187 1.16406v.23438l.0586.28906.05859.11719.11719.11719.34765.41015.11719.17188.17578.17578.17578.23437.11719.17188.17188.35156.05859.23438.23437.40625.23438-.0586-.17578.17578-.0586.92969h-.58203l-.23437-.11328-.34766.11328-.11719.11719-.05859.29297-.0586.17578-.11718.17187-.46484.29297-.0586.23438-.0586.11328v.64453l.0586.17187v.41016l.0586.0586v.40624l.05859.40625.11719.17579.05859.05859.23047.64062-.0586.29297v.69922l-.05859.58203v.23438l-.0586.23047-.05468.35156v1.92187l.05469.1172h.42578l-.36719.11718-.02344.35156.89063 1.16797 1.74219.53906 1.33984.35938v.53906l.08984.8086.53516.71484 1.51953.26953.89063-.08594.08984 1.16406.53516.1797 1.16015-.1797 2.05469-.98437 1.16016-.36328 1.8789-.17578 1.69531-.1797-.17968.71876-1.51563.08594-1.25.08984-.80469.26953-1.07421.8086.26953.71875.53515.89843-.17968.625-.26563.8086.26563 1.07812.625.89844.80468.17969 1.25-.1797-.26562.72267.09766.5039.05468.29297v.17188l.0586.29296v.40625l.17578.1172.35156.11718h.40625l.29297-.17578.11328-.11719.0586-.11719.11718-.23047.0586-.17578.35156-.46484.23047-.17578.17578-.0586.17578.0586.0586.17578.11718.98828.05469.46875.0586.17188.11718.23437.17578.0586.8164.05859h.28907l.11719.23437.05859.40625.0586.35156v1.10547l.11718.29297.11719.34766.28906.69922.17578.35156.58203.7539.35157.17579.17187.0586.46875.23437.64063.46484.34765.23438.29297.17578.29297.05468.23047.0625.8164.34766.29297.17578.11328.17188.35157.35156.11719.17578.52343.64063v.28906l.0586.35156v.34766l.05859.35156.0586.28906.11718.0586.17188.05859h.17578l.58203.23437.17578.1172.17578.28905.17578.23438.11328.23437.29297.23047.11719.11719v.41016l.0586.05468.28906.23438.23437.11719.0586.11718.11718.17188.0586.11719.23047.23437.05859.17578.23437.0586.1172.05859-.1172.11328-.05859.11719v.11719l-.11719.29296-.11719.28907v.58203l.17579.11719.11718.05859.0586.11719.11719.11719.11328.05859.17578.34765.0586.35157.05858.40625v.17578l-.05859.17578-.11719.69922v.17187l.1172.17579.29296.29296h.40625l.17578.1172.11719.17187.11719.29296v.23438h-.52735l-.23047-.23438h-.23437l-.17578.0586-.0586.69922.0586.34765.11719.17579.17578.41015.11718.23047.28907.46875.17578.05469h.52344l.23437.0586.75781.64062.0586.29296v.23438l.05859.0586.23047.34765v.35156l-.11719.17188v.29297l.29297.28906.29297.17578.17187.0586.29297.17577.29297.1172.58203.40624.28906.23438.29297.17578.21875.16015.01563.01172.23047.17579.64062.52343.17578.23438.1172.17578.17577.17578.11328.17188v.64062l.1172.17578.46874.11719.58203.11719.23438.05859.23047.11328.29297.11719.11328.0586.58593.35156.28907.17187.17578.0625.17578.05469.17578.0586.69922.35155.28906.17579.23438.05468.28906.17578.23437.1172.64063.40624.29297.11719.17187.0586.23438.05859.41015.05859.23047.0586.23438.11718.0586.17188-.41017.17578.46875.0586.0586.29296.11328.23438.17578.05468.23438.0586.17578.05859.40625.11719.64062.23437.11719.17188.0586.23437v.17578l-.0586.1172-.0586.40624.23438.23438.11719.05859.34766.11719.64062.23047.17578.11718.28906.1172.17578.17577.23438.46485.58203 1.10546.17578.17579.34766.17578.17578.11719.35156.11718 1.04688.52344.23437.0586.46485.11327.29297.0586.46484.17578.75781.58203.23438.23438.34765.46484.17578.17578.28907.23438.8164.69921.29297.17579.28906.28906.29297.17578.29297.28906.69531.64063.17578.17578.29297.23437.28907.23438.46875.28906.64062.58203.34766.23438.23437.29297.34766.34765.35156.46485.9336.99218.34765.40625.11719.17579.23437.05859.11328.11719.64454.17578.23047.11328.23437.0586.29297.17577.23047.1172.9336.69921.40624.40625.23438.17578.40625.17578.23437.11719.8164.34766.34766.23437.23438.11719.29297.28906.23047.11719.7578.35156.35157.17188.23047.05859.29297.11719.23437.0586.8711.17577h.8164l.46875.23047.17188.0586.875.69921.46484.1172.29297.05858.17578.0586.23047.0586.46875.05859.34766.05859.35156.0586.40625.05859h.29297l.17187.0586v.23046l.17578.17578h.29297l.34766.0586.35156.05859.69922.11719h.64063l.46484-.23438.29297-.17578.17187-.11719.41016-.17187.28906-.17578.9336-.46485.46875-.29297.52343-.29296.46485-.17188.46484-.17578 1.05078-.46485.28906-.11718.41016-.11719.28906-.11719.52735-.17578 1.51562-.69922.58203-.34765.28907-.0586.29297-.0586.34765-.11718.875-.23047.35156-.11719h.11329l.23437-.05859.875-.23437.23438-.0586h.8125l.35156-.0586.8164-.11718.17188-.0586.35156-.05468.29297-.0586.23047-.05859.8164-.17578.17579-.0586h.34765l.23438-.05859.46484-.11718.75781-.17188.23438-.0586h.34765l.41016-.11718.28906-.0586 1.28516-.05859h.28906l.41016-.0586.23047-.05858h.17578l.875-.1172h.40625l.41015-.11718h.34766l.35156-.11328.8711-.0586h1.75l1.04687.28907.41016.11719.28906.11718.35156.11719.28907.11719 1.05078.17187.28906.0586h.29297l.29297.05859.17187.0586.41016.05859.17187.0586.1172.05858h.11718l.11719.0586.35156.0586h.11328l.41016.0664 1.92187.39453 1.92578.39453 1.51953.44922 1.69532.71875 2.14453.80469 1.60547-.71875 1.42968-.80469 1.16016-1.07813 1.25-.44921 3.03516-.71875 1.875-.35938 2.14453-1.34765 2.23437-1.25391 2.5-1.25781 1.69531-.44922 1.78516-.17969 1.16016-.26953.625.53906 1.33984-.26953.71485-.98828.98437-1.34375.44531-.17969.80469-.35937 1.875-.53907 1.78516-.44921 1.25-.26954 1.16015-.08984 1.69922-.08984 1.96094-.26954 1.25-.08984h.53906l.625-.08984h.89063l2.14453-.17969 2.41015-.17969 2.58985-.08984 1.69531.17969 1.60938.08984 1.42968.35938 1.16016.71875 1.875.98828 1.16015 1.52734.26563.71484.6289.08985.35548.89844.53515.53906.53516 1.52734 1.07422.35938h.53515l-.80469.53515.08985 1.70703.71484 2.69532.89063.80468.89453.98829.71484 1.2578 1.78516.53907 1.51953-.17969.35547 1.34375 1.60937-.80469.98047-.53906.26953.26953.31641-.21484.21875-.14453.80078.44922.44922-.35938h.35547l.53515-.26953.53907-.71875.53515-.26953.625-.98828 1.16016.44922.83984.3711 1.39454.61718 1.6953-.17969h1.60548l1.78515.08985.17969-1.70704.53516-1.34375.80468.26954.4922.84765.40233.40625-.08984.53906v.35938l.71485.44922.71093-.26953h1.42969l.35938.98828.4453 1.25781.71485 1.34375 1.25.6289 1.69531.62891.71485-.17969.17969-.53906.98046-.08984.44922.35937.08594 1.25782-.26563.6289-.53515.17969v.53906l.71484.98438.26563.53906.98437.98828.80078 1.07813-.26562.35937-.08985.89844-.625 2.33203-.35546 2.0664-.08985 1.79298-.17969.71875-.08984.53906v1.4375l-.98047 1.88281-.35937 1.70703-.53516.89844-.80469 1.16797-.26562.53906 2.05469 1.2539.08593.35938-.35546.53906-.08985-.17968v.80859l.08985 1.4375-.44532.71484-1.07422.09375-.26562.71485.53515.89844.8047.71875 1.16015.80859 1.33984.26953.44531.35938-.35546.44921-1.78907-.08984-1.25-.44922-.71484-.71875-.625-.08984-.17578 3.58984-.1875 1.3086h89.35937V311.70313h-55.26953v49.08203l.76172.125 3.28906.54296 2.02344 2.83594v2.7539l2.35156.33204 2.34766.33203h4.05078l-1.3789 4.16016-2.02344.70703-2.02344.70312-.54297.34375-2.59375 1.6172-.1875.11718-2.02344-2.07813-.73046-2.74218-2.67188-2.07813-1.375-3.5-.0664-.08203-1.95704-2.67188 2.75-1.41796v-49.08204H294.42187v91.41407l.1172.03125.1328.01172.07422.07421.10547.04688.08985.0586.08593.05859.08985.0586.29687.29687.0586.08984.03125.11719.02734.11719.01563.13671-.03125.1172-.0586.08983-.0586.08594-.04296.10547-.04688.10156-.02734.1211v.14453l.17578.26953.14844.14844.07422.08594.07422.07421.04296.10547.0625.08985.0586.08593.04297.10547.0586.08985.04687.10156.04296.10547.0586.08594.11719.17968.07421.07422.0625.08594.0586.08984.04297.10547.0586.08985.05858.08593.0625.08985.0586.08984.04297.10156.11719.17969.07421.07422.0586.08594.07422.07421.08984.0586.10547.04687h.14844l.1328-.01562.13282.01562.10156-.04687.07422-.07422.04688-.10156-.01563-.13281v-.14844l-.04687-.10547-.02735-.11719-.04687-.10156-.02735-.1211-.04296-.10156-.0625-.08984-.04297-.10156-.04297-.10547-.03125-.11719-.01563-.13281-.01171-.13672.08593-.0586.0586-.08593.12109-.03125.04297.10547.01562.1328v.1172l.0586.10156.0586.08984.08983.0586.14844.14843.0586.08985.04296.10547-.01171.10156.08593.0586.10547.04687.08594.0586.08984.05858.07422.07422-.11719.02735-.10546.04687-.08594.0586-.07422.07421-.0586.08985-.0625.08594-.02734.12109-.04687.10156-.04297.10547-.03125.11719-.01172.13281-.01563.13281v.14844l.02735.11719.04687.10547.04297.10156.0586.08984.07421.07422.08985.0586.07422.07421.08984.0586.0586.08984.04296.10547.04688.10156.11719.03125.1328.01563h.14845l.11718-.03125.10547.04297.04297.10547.04688.10156.02734.1211L299.5 410l.02734.11719.03125.1211.02735.11718.10547.04297.10156.04687.13281-.01562.14844.14844.0625.08593.07422.07422.07031.07422.08984.0625.10547.04297.10156.04297.1172.03125.13671.01562.11719-.03125.07422-.07422.02734-.11718-.01172-.13282-.03125-.12109-.02734-.11719.04297-.10547h.11719l.08984.0625.11719.02735h.14843l.13282.01562h.14843l.13282.01563.1328-.01563h.14845l.1328-.01562.13282-.01172.13672.01172.11719-.02735.13281-.01562.1914-.0586-.05859.17579-.01562.1328-.02735.1211-.01562.13281-.0586.08594-.1328.01563-.10548.04687-.10546.04297-.1172.03125-.11718.02735-.26563.03125h-.14843l-.13281.01562-.07422.07422.05859.08594.14844.14843.11719.1797.07421.0703.08985.0625.08984.0586.08594.0586.08984.05858.10156.04297.10547.0625.10547.04297.08594.0586.10547.04687.10156.04297.17969.11719.0586.08984-.04298.10156-.04687.10547.01562.13281.22266.22266.0586.08985.04296.10156.03125.1211.04297.10155.01563.13282.03125.11718.01171.13672.03125.11719.14844.14844.10156.04297.10547.04296.1172.03125.1328.01563.13672.01563h.11719l.11719-.03125.08984-.0586.04297-.10547.04688-.10156.04296-.10547.03125-.11719.01172-.1328v-.14845l-.01172-.1328-.01562-.13282-.03125-.11719-.04297-.10547-.04688-.10547-.04296-.10156-.04297-.10547-.01563-.13281.01563-.13281.02734-.11719.03125-.11719.02735-.1211.04687-.10155.08984-.0586.08594-.0625.07422-.07422.08984-.05859.22266-.22266.0586-.08593.07421-.07422.11719-.17969.0586-.08594v-.14844l-.07423-.07421-.10156-.04688-.10547-.04297-.10156-.04297-.0586-.08984-.04687-.10547-.02734-.11719.08984-.05859.11719-.03125.10156-.04297.17969-.11719.14844-.14843.01172-.13282-.01172-.10546-.08985-.0586-.1328.01563h-.14845l-.1328.01562-.13282-.01562-.1211-.03125-.08593-.0586-.07422-.07422-.0586-.08984-.0625-.08594-.11718-.17969-.0586-.08593.03125-.1211.08594-.05859.1211-.03125.05859-.08594v-.1211l-.03125-.11718-.0586-.08984-.05859-.08594-.04687-.10547-.02735-.11719-.01562-.1328.0586-.08985.07421-.07422.08984-.0586.1172-.17968.07421-.07422.0586-.08594.14843-.14844.1211-.03125.1328-.01562.13282.01562.07422.07422.04297.10547.01562.13281-.03125.1172-.11719.03124-.1328.01172-.14844.14844-.04297.10547-.04688.10156-.02734.1211-.03125.11718v.14844l.03125.11719.04297.10546.05859.08985.07422.07031.07422.07422.11719.03125.12109.02734.11719-.02734.1328-.01563h.1172l.08984.0586.07422.07422.04687.10546.0586.08594.10156.04688.13281.01562.10547.04297.08594.0586-.01172.10546-.07422.07422-.17969.11719-.05859.08984-.08984.0586-.07032.07422-.07421.07421-.0625.08985-.02735.11719-.01562.1328.01562.13282-.01562.13281v.14844l.01562.13281.02735.1172.03125.12108.07421.07422.08985.0586.08594.0586.08984.05858.11719.03125v.08594l-.10157.04688-.08984.0586-.26563.03124-.11718.02735h-.14844l-.10547.04296-.10156.04688-.0586.08984-.0625.23438-.01171.13281-.03125.1211-.01563.1328v.29298l-.01172.1328.01172.13673.01563.1328.1328.01563.13282.01172.1211.03125.08593.0586.07422.07421.04688.10547.04296.10157.01563.1328v.44532l-.01563.13281v.44532l.03125.26562.02735.11719.01562.13281.03125.11719.08594.21094.03125.26562v.14844l-.03125.11719-.02734.11718-.03125.1211-.02735.11719-.03125.11718-.03125.1211-.01171.1328-.01563.13282.08984.0586.1172-.03125.10155.01562.04688.10547-.03125.26562v.44141l-.04297.10547-.04688.10547-.04296.10156-.04297.10547-.0586.08594-.03125.12109-.04296.11719-.03125.11719-.01563.1328.01563.13282.05859.08984.10547.04688.08594.0586.05859.08593-.01172.13672-.03125.11719-.04297.10156v.44531l-.01562.13281v.14844l-.03125.11719-.04297.10547-.02735.11719-.04687.10546-.04297.10157-.03125.12109-.02734.11719-.03125.13281-.03125.11719-.02735.11719-.04297.10546-.03125.1172-.03125.12108-.01171.13282-.01563.13281v.29688l.02734.11718v.14844l.04688.39844.02734.11719.0586.08984.12109.03125h.14844l.13281-.01563.0586.08985v.11719l-.0586.08984-.08984.0586-.10157.04296-.10546.04688-.08985.05859-.08594.0586-.13671.01562-.1172-.03125-.1328-.01563-.10157.04688-.0625.08594-.01172.13671-.01562.13282-.03125.11719-.02735.11718-.01562.13281-.03125.1211v.29687l.01563.13282.03125.11718v.14844l.01171.13281v.14844l-.02734.11719-.04688.10156-.02734.1211-.03125.11718-.0586.08985-.07421.07421-.10156.04297-.10547.04688-.11719.02734-.1211.03125-.10156-.04687.0586-.08594.10547-.04688.02734-.11718.03125-.11719.02734-.1211.03125-.11718v-.14844l.01563-.13281-.03125-.11719-.04297-.10547-.10547.01563-.07422.07422-.10156.04296-.08984.0625-.07422.07422-.04297.10157-.01563.1328-.03125.1172L304.25 426l-.03125.11719-.02734.11719-.03125.12109-.02735.11719-.03125.11718-.04297.10547-.08984.0586h-.08984l-.1172-.03125-.03124-.08594.01562-.13672-.03125-.11719v-.14844l-.01171-.1328v-.14844l-.0625-.23438-.02735-.1211-.04297-.10156-.04687-.10546-.0586-.08594-.05859-.08985-.04297-.10546-.0625-.08594-.14844-.14844-.0703-.07422-.10548-.04687-.10547-.04297-.10156-.04297-.29687-.29688-.08985-.07421-.08594-.0586-.10546-.04297-.08985-.0625-.08594-.0586-.10546-.04296-.08985-.0586-.08594-.0625-.07421-.0703-.10547-.04688-.08594-.0586-.10547-.04296-.08984-.0625-.10156-.04297-.10547-.04297-.08594-.0586-.10547-.04687-.10547-.04297-.10156-.04687-.08985-.0586-.10156-.04297-.10547-.04296-.08984-.0625-.11719-.02735-.13281-.01562-.13281.01562H299.75l-.13281.01563-.11719-.03125-.08984-.0586-.07422-.07422-.08985-.05859-.10156-.04688h-.14844l-.12109-.02734-.10156-.04297-.07422-.07422-.11719-.17968-.08984-.0586-.10156-.04297-.08985-.0625-.10547-.04296-.08984-.0586-.08594-.0586-.10547-.04687-.0586-.08594-.05858-.08984-.04297-.10547-.04688-.10156-.07422-.07422-.08594-.0586-.07421-.07421-.08985-.0586-.22265-.22265-.04297-.10547-.03125-.26563.10547-.04296h.14453l.10547.04296.07421.07422.08985.0586.08594.0586.10546.04687.08985.05859.14844.14844.0703.07422.14845.14843.0625.08594.07421.07422.08594.0586.07422.07421.08985.0625.08984.0586.08594.05859.26953.17578.10156.04688.10547.04296.10156.04297.04688-.07421.05859-.08594.07422-.07422.07031-.07422.10547.04297.07422.07422.0586.08984.04296.10156.04688.10547.04296.10547.1211.02735.11719-.02735.07421-.08984.04297-.10547.0586-.08985.07422-.07421.10546-.04297.1172-.02735.1328.01172.08985.0586.14844.14843.05859.08985.04297.10547.04687.10156.04297.10547.04297.10156.10547.04688.10547.04296.13281.01563.08594-.0586.0586-.08984.07421-.07422.10547-.04297.11719.02735.10547.04687.10156.04297.10547.04297.10156.04688.17969.11718v.11719l-.01563.13281.01563.13281.01562.13672.0586.08594.10156.04688.1211.02734.11718.03125h.14844l.11719-.03125.05859-.08984.17969-.1172.05859-.08983.07422-.07422.0586-.08594.11718-.17969.17969-.11719.11719.03125.08984.0586.04297.07422-.01563.1328v.1172l.08985.05859h.14843l.13282-.01563.1328-.01171.26563-.03125.10547-.04297.11719-.03125.1211-.02735.07421-.07421.07031-.07422.0625-.08985-.01562-.10547-.04688-.10156-.10156-.04297-.10547-.01562-.11718.02734-.26563.03125h-.14844l-.07421-.07422-.08985-.0586-.11719-.03124-.11718-.02735-.13282-.01562h-.14843l-.13282.01563h-.29687l-.10547-.04688-.14844-.14844-.04297-.10156-.05859-.08984.22266-.22266.08593-.0586.10547-.04296.11719-.03125.13281-.01563.13281.01563.13672.01562.10157.04297.1328-.01172.08985-.0625.10156-.04297.0625-.08984-.04687-.10156-.08984-.0586-.1172-.03125-.10155-.04296-.0586-.08985-.0625-.08984v-.11719l.01563-.13281.10547-.04688.07421-.07031v-.1211l-.08984-.05859-.03125-.11719.08985-.05859.07421-.07422.04297-.10547.0586-.08984.04687-.10156.01563-.13281v-.14844l-.04688-.10547-.04297-.10156-.08984-.0586-.13281-.01562-.10157-.04297-.13671-.01563-.1172-.03125h-.4453l-.13282-.01562-.13281-.01172-.13281-.01563-.11719-.03125h-.14844l-.13281-.01562-.13281-.01172-.26563-.03125-.1211-.04297-.08593-.0586-.07422-.07421v-.14844l.01172-.13281.10547-.04688.10156-.04296.13281-.01563h.15235l.13281-.01562h.29297l.1211.03125.10156.04296.08984.0586.23438.0625.12109-.04688.08984-.05859.10156-.04297.13282-.01562.10547.04296.10156.04688.13281.01172.1211-.02735h.14453l.12109-.03125.11719-.02734.10547-.04687.07421-.07422.08594-.0586.14844-.14843.0586-.08594.04687-.10547.02734-.11719.01563-.10547-.10156-.04296-.08985-.0586-.11719-.03125-.10546-.04297-.08985-.0625-.07422-.08594-.07422-.07421-.10156-.04297-.10547-.04688-.10156-.04297-.0586-.08984-.04687-.10156-.08594-.21094-.0625-.08594-.05859-.08984-.07422-.07422-.08594-.0586h-.26953l-.11719.03126-.08984.05859-.10156.04297-.13281.01562-.10547-.01562-.02735-.11719-.0625-.08984-.11718-.03125-.10157-.04297-.14843-.14844-.03125-.11719-.01563-.10546.07422-.07422.17969-.1172.11719-.02733.11718-.03125.13672.01562.10156.04297.10547.04297.10156.04687.10547.04297.1172.03125.1328.01563.1172.02734.1328.01563.10547-.01563.08985-.0586-.07422-.07421-.10547-.04297-.07422-.07422-.07422-.08984-.14844-.14844-.08593-.0586-.08985-.05859-.07422-.07422-.08984-.0586-.10156-.04687-.1211-.02734-.10156-.04688-.10547-.04296-.11719-.03125-.10156-.04297-.1211-.03125h-.14843l-.11719.03125-.10546.04297-.08594.0625-.17969.11718-.08594.0586-.08984.0586-.10547.04687-.08594.05859-.10547.04297-.10156.04297-.10547.04687-.07422.07422-.05859.08985-.0586.08593-.04687.10547-.0586.08594-.07421.07422-.13281-.01172-.1172-.03125h-.11718l-.07422.07422-.08984.0586-.07422.07421-.08984.0586-.08594.05859-.10547.04687-.10156.04297-.13672.01563-.10156-.04297-.14844-.14844-.10547-.04688h-.08594l-.10547.04688-.10156.04297-.1211.03125-.11718-.03125-.07422-.07422v-.11719l.03125-.1211.07422-.0703.0586-.08985.07421-.07422.11719-.03125.10547-.04296h.29297l.13281-.01563.13672-.01563.10156-.04296.08985-.0586.10156-.04687.08984-.0586.13281-.01171.08985.05859.13281.01172.08984-.0586.08594-.05859.10547-.04297.08984-.0586.08594-.0625.08985-.05859.14843-.14843.0586-.08594.05859-.08985.10547-.04296.13281-.01563.11719.02735.1211.03125.05859-.0586.05859-.08984.03125-.26563.02734-.11719.10547.01172.13281.01563.10157-.04297.08984-.0586.0586-.08984.07421-.07422.0586-.08984.04687-.10156.01172-.13281-.01172-.13282-.04687-.10547-.14844-.14843-.0586-.08985-.05859-.08594-.04297-.10546v-.44532l.01563-.1328v-.14845l.01172-.1328-.0586-.0586-.08984.0586-.10156-.04298-.17969-.11719-.08594-.05859-.0625-.08984-.0586-.08985-.07421-.07421-.08594-.0586-.1211.03125-.10155.01172-.10547.04688-.08594.05859-.10547.04297-.14844.14844-.08984.05859-.08594.0586-.08984.0625-.10547.04296-.13281.01563v-.1211l.10547-.04297.11718-.03125.07422-.0703.04297-.10548v-.14844l-.02734-.11718-.14844-.14844-.13281-.01563h-.14844l-.11719.03125-.10547.04297-.10156.04297-.08984.0625-.11719.02735-.07422-.07422.01172-.13281-.04297-.10157-.04297-.10547-.08984-.05859-.11719.02734-.1211.03125-.11718.03125-.10156.04297-.1211.03125-.10156.04297-.10547.04297-.08984.0586-.10156.01562v-.11719l.01562-.13281-.0586-.08985-.07421.04297-.14844.14844-.0586.08985-.07421.07421-.04688.10547-.04296.10156-.07422.07422-.0586.08985-.07422.07422-.05859.08593-.07422.07422-.08984.0625-.07422.07031-.07422.07422-.10156.01563-.13281.01562-.10547-.04296v-.1211l.14843-.14844.04297-.10156.0586-.08984.04687-.10156.04297-.10547.0586-.08985.03124-.11719.04297-.10156.03125-.1211.02735-.11718.04687-.10547.04297-.10156.04297-.10547.07422-.07031.08984-.0625.08985-.0586.10156-.04296h.29687l.26563-.03125.10547-.04297-.07422-.07422-.11719-.03125-.10547-.04297-.08984-.0586-.10156-.04687-.08985-.0586-.10156-.04296-.10547-.04297-.08984-.0625-.08594-.0586-.10547-.04296-.10156-.04297-.1211-.03125-.11718-.03125-.10157-.04297L297.5 410.25l-.10156-.04297-.08985-.0586-.04296-.10546-.01563-.13281.10156-.04297.13281-.01563.13672.01563.13282-.01563.10156-.04297.0586-.08984.01562-.10547-.08985-.0586-.07421-.07421-.10157-.04297-.08984-.0586-.14844-.14843-.04297-.10547-.01562-.13281v-.29297l-.0586-.08985-.08984-.05859-.07422-.07422-.04297-.10547-.03125-.11718-.0586-.08985-.07421-.07422-.11719-.02734-.07422-.07422-.08984-.0586-.08984-.0625-.08594-.05859-.07422-.07421-.0586-.08594-.04687-.10547-.08594-.0586-.14843-.14843-.19532-.0586-.1328.01563-.10157.04297-.07422.07422-.04688.10156-.04296.10547-.0586.08984-.0586.08594-.29687.29687-.08984.0586h-.08594l-.0625-.08594-.04297-.10547.03125-.11719.0586-.08984.02734-.11719-.01172-.13281-.08984-.0625-.10547.04688-.11719.02734-.11719.03125-.26953.17578-.10156.04688-.11719.02734-.10546.04687-.08985.0586-.10156.04297-.0586-.08594-.04687-.10547.01563-.13281.04687-.10547.07031-.07422.07422-.07031.0586-.08985v-.14843l-.04297-.10547h-.23829l-.10156.04687-.03125.11719-.02734.11719-.03125.1211-.07422.04296-.13281.01563-.07422-.04688-.04297-.10156-.04297-.10547-.04687-.10156-.04297-.10547-.1211.03125-.10156.04297-.13281.01562-.11719.03125-.10547.04297-.08984.0586-.10156.04687-.1211.02734-.13281.01563-.10156-.04297-.0586-.08985-.04687-.10546-.04297-.10157-.04297-.10546v-.1172l.0586-.08984.08593-.05859.17969-.11719.10156-.04687.10547-.04297.10547-.0586.10156-.04296.08985-.0625.10156-.04297.10547-.0586.10156-.04687.08984-.0586.10547-.04296.10156-.04297.08985-.0625.10156-.04297.13672-.01563.11719.03125.10156.04297.1211.03125.10156.04297.10546.04688.10157.04296.10547.04297.10156.04688.10547.04297.10156.04297.10547.04687.08594.0586.10546.04296.1172.03125.10546.04297.10156.04688.08985.0586.10547.04296.10156.04297.10547.04687.11719.02735.10156.04687.1211.02735h.14843l.08594-.0586.01562-.10156.0586-.08984-.02735-.1172-.07422-.07421-.11719-.17969-.07421-.07422-.08985-.07421-.17969-.1172-.08593-.05859-.10547-.04296-.10156-.04688-.26954-.17578-.05859-.08985-.07422-.07421-.0586-.08985-.04296-.10156-.03125-.11719-.01563-.13672v-.5625l-.01171-.1328-.01563-.13282-.03125-.11719-.01562-.13281-.01172-.13281-.03125-.1211-.22266-.22265-.0586-.08594-.01562-.10547.03125-.11719.13281-.01562v-91.41406H172.9922v1.45312l-.0586.23438-.35156 1.05078-.17187.52343-.1172.34766-.17577.41016-.11719.17187-.23438.29297-.23046.0586h-.35157l-.11718.05859-.23047.40625v.29297l.11719.17578.23046.23047.1172.23437.64062.75781.29297.46485.17578.23437.23047.35156.23437.34766.64063.8164.17578.46485.17187.41016.11719.69531.17578.46875.11719 1.39844.0586.46484v.875l.11718 1.04688v4.78125l-.0586.46484-.35156 1.28125-.17578.52344-.11328.41015-.35156.9297L172.93359 336l-.23437.58203-.11719.17578-.17187.34766-.17578.40625-.35157.8164-.0586.29297-.11327.29297-.11719.28906-.0586.17579-.11718.875-.0586.40625-.05859.11718-.0586.17579-.05859.17187-.23047.52734-.11718.17188v.23437l-.11719.23438-.0586.17187-.17577.58594v.28906l-.0586.17579v.29296l-.0586.11329-.05859.52734v.17187l-.05468.23438v2.6211l-.17578.8164-.1172.17578-.17577.23438-.1172.17187-.11327.23438-.58594.93359-.23047.28906-.29297.46485-.17578.23437-.28906.35156-.35156.69922-.11328.23047-.17579.41016-.17578.23046-.40625.52735-.8164.69922-.29297.17187-.28906.23438-.17579.11719-.17578.17578-.52344.40625-.52734.17578-.17187.17578-.23438.05469-.64062.17578h-.75782m12.21094 31.02344l-1.07422.44921.35938.89454 1.25-.71485.44531-.53906-.98047-.08985"/><path fill="#d3d3d3" fill-opacity="0" fill-rule="evenodd" d="M201.50781 416.59766h-.89453l.44922.6289.98047.35938.80469-.08985.4453-.98828-.17577.08985-.71485-.35547-.89453.35547m154.6211 59.0703l-.0586-.52343v-.29297l.11328-.29297.0586-.23046.46875-.46875h.11328l.11719-.11329.11718-.05859h.17579l.23437-.0586h.34766l.23437.0586.11719.0586.23047.17187.0586.17578.11718.58203v.29297l-.11719.17578-.17187.28906-.17579.17579-.52734.52343-.23047.23438-.11719.0586h-.17578l-.11718-.0586-.40625-.29297-.17579-.11719-.11718-.0586-.0586-.11327-.05468-.1172m6.64062-10.95702l-.0586-.17188v-1.10937l.0586-.17188.17578-.0586.17188-.05858h.17578l.23437-.0586.1172.0586.05858.69921-.05859.17188-.11719.17578-.11718.0586-.23438.52343-.11328.0586h-.23438l-.05859-.1172m9.61328-14.39062l-.11719-.17578v-.69922l.29297-.875.1172-.17187.17577-.35156.11328-.23047.1172-.29297.35155-.75781.1172-.23047.17187-.23438h.17578l.11719-.0586h.64062l.11719.0586.23437.23438.17188.11328.35156.29297.11719.11718.11328.17579v.11328l.11719.05859.11718.11719v.69922l-.05859.17578v.23047l-.0586.17578-.34765 1.05078-.11719.23047-.11719.23437-.11718.0586-.23047.23437-.64063.28906h-.875l-.41015-.11718-.64063-.46485"/><path fill="none" stroke="#bebebe" stroke-linecap="round" stroke-linejoin="round" stroke-miterlimit="10" stroke-width=".5" d="M467.95703 311.69531H144.02734v168.625h323.9297v-168.625"/><g clip-path="url(#a)"><path fill="#fff" fill-opacity="0" fill-rule="evenodd" d="M144 475.89063v4.4375h.0039H144v-75.64844 71.21094"/></g><g clip-path="url(#b)"><path fill="#fff" fill-opacity="0" fill-rule="evenodd" d="M144 320.54688v4.0664-12.9414h.0039H144v8.875"/></g><path fill="#50fcfc" fill-rule="evenodd" d="M144 401.32813v3.35156l.0039.0039v-3.35156l-.0039-.0039"/><path fill="#00e8fc" fill-rule="evenodd" d="M144 399.77734v1.55079l.0039.0039v-1.55469H144"/><path fill="#50fcfc" fill-rule="evenodd" d="M144 397.29297v2.48437h.0039v-2.48437H144"/><path fill="#fff" fill-opacity="0" fill-rule="evenodd" d="M144 326.3125v70.98047h.0039v-70.98828l-.0039.00781"/><path fill="#50fcfc" fill-rule="evenodd" d="M144 324.61328v1.69922l.0039-.00781v-1.6914H144"/><g clip-path="url(#c)"><path fill="#fff" fill-opacity="0" fill-rule="evenodd" d="M144.0039 480.32813v-75.64454l.20313.19141 3.21875 4.4414-2.82422 4.4375 3.83594 3.83594 1.6289.60157 2.8086 2.8203.72266 1.6172 3.71875 4.35546.0703.08594.51954 4.4375.32813 4.4375.35937 4.4375.23438 4.4375.08984 4.4414-.23828 4.4375.3711 4.4375.98827 4.4375 1.71485 1.6797 3.26562-1.6797 1.17188-1.03905 3.0703-3.39844 1.3672-.78516 4.4375-2.42187 1.32422-1.23047 3.11718-1.52344 4.4375-2.27734 1.14844-.63672 2.69531-4.4414.59375-.75391.61719.7539 3.82031 2.1836 3.8789-2.1836.5625-.46094 4.4375-1.91015 2.16798-2.0664 2.26953-1.19141 4.4375-2.9922 4.4414 1.94532 3.00391-2.19922 1.4336-3.60937 1.92968-.82813.71875-4.4375-2.64844-2.71094-4.4375-1.54687-.48046-.1836-3.96094-.33593-4.4375-1.8789-4.4375-1.47266-4.4375.67187-4.4414 1.8789-4.4375.75391-1.2422.38282-3.1953.53125-4.4375.26953-4.44141.28515-4.4375-.45312-.77344-.63281-.48047-4.4375-3.1836-2.75782-1.12109-1.67968-3.3164-2.95704-4.4375-1.0039-3.17188-.47656 3.17188-.59766L161 404.875l.23828-4.4375.51563-3.23047L162.76953 396l-.1211-4.4375 2.29688-4.4375-1.58203-4.4414-1.60937-1.51173-1.46485 1.51172-2.97265 1.51563-2.95703 2.92578.1875 4.4375-1.67188 2.36328L149.67969 396l-1.24219.625-4.4336.66797v-70.98828l.33985-1.32031-.33984-.3711v-12.9414h39.9414v12.35937l-1.08594.95313-3.35156 3.9414-4.4414-.39453-.83594.89453-1.08984 4.4375-2.51172 3.15235-1.375 1.28515-.83594 4.4375-2.22656 2.85547-.82032 1.58594-2.8789 4.4375-.73828 1.21875-1.15625 3.21875 1.15625 1.875 3.60547-1.875.83203-.48047 4.4375-3.5664 1.46093-.39063 2.97657-.79688 2.4453-3.64062 1.9961-2.49219 4.4375 1.875 4.4375-3.32813 1.20703-.49609 2.58985-4.4375-3.79688-3.3789-4.34375-1.0586 2.89453-4.4375-2.03125-4.4414-.95703-.95313v-12.35938h22.1914v13.54688l-4.4375.1914-4.4375 2.48438-1.98437 1.53125 1.98438 3.92188.5625.51562 3.875 2.76172 4.07031 1.67578.36719.14063.19922-.14063 4.23828-4.32812.08984-.10938 4.35156-4.32812.10157-.10938-.10156-.07031-4.44141-2.48438-4.4375-1.65234v-13.54688h22.1914v115.96094l-4.05859 3.875 4.0586 2.6875 1.35937 1.75 3.07813 3.125 4.4414-.4414.82422 1.7539 3.61328 3.48828 4.09766-3.48828-4.09766-3.47656-1.95703-.96094-2.48047-4.29687-4.4414.0664-.30079-.20703-4.13672-3.875V311.67187h13.31641v114.23438l-1.80078 1.16406 1.80078 1.375 2.92188 3.0625 1.51562 1.88281 2.14453-1.8828-2.14453-1.4961L243 427.07032l-1.35547-1.16407V311.67187h146.46484v149.60157l-4.4375 1.08594-.28515.21484.28515.3789 4.4375 3.10157 1.71485-3.48047-1.71485-1.30078V311.67188h79.88672v168.65625h-71.3789l-4.07031-2.88672-4.4375-.90235-3.63672-.64844-.80079-.3789-.1914.3789.1914.28516 1.57813 4.15235H144.0039"/></g><path fill="#50fcfc" fill-rule="evenodd" d="M144.20703 404.875l-.20312-.1914v-3.35157l3.7578 3.54297.67579.85156 4.4375 3.07422v1.10156l-4.4375.29688-2.92578 3.55469 2.92578 2.92578 4.07813 1.51172.35937.36328 1.8125 4.07422 2.6289 3.07812 1.15626 1.36328.91797 4.4375.6914 4.4375.51953 4.4375.76563 4.4375.38672 3.46485 3.18359.97656-3.1836.8125-.49218 3.625.49219 4.21875 2.5-4.21875 1.9375-3.98438 4.4375 2.83204 4.4375-3.27735.01562-.00781-.01562-.07422-4.4375-.79688-2.42188-3.5703-.9414-4.4375-1.07422-1.8125-1.11328-2.625 1.11328-1.29688 4.4375.97265 2.98437.32422 1.45313.26172.51172-.26172 3.92968-2.35547 4.4375 1.51563 4.4375-.15235 3.94531-3.4453-3.61328-4.4375-.33203-.04688-4.4375-.58985-3.50781.63672-.92969.51172-4.4414.76563-1.76563-1.27735-2.67187-1.07812-4.11328-3.36328-.32422-.95313-.35938-3.48437-3.60547-4.4375-.47265-.42188-4.4375-1.9414-4.44141-1.48829v-1.10156l4.4414-2.07812 1.76954-1.84766 1.16797-4.4375-2.9375-3.83984-4.44141.29296-4.4375 3.14454-4.4336-.25782v-2.48437l4.4336-.66797 1.24219-.625 3.19531-2.07422 1.67188-2.36328-.1875-4.4375 2.95703-2.92578v2.26953l-.66016.65625.66016 3.20703 1.375-3.20703-1.375-.65625v-2.26953l2.97265-1.51563 1.46485-1.51171 1.60937 1.51171 1.58203 4.44141-2.29687 4.4375.1211 4.4375-1.01563 1.20703-.51563 3.23047L161 404.875l-3.6836 3.84375-3.17187.59766 3.17188.47656 4.4375 1.0039 3.3164 2.95704 1.1211 1.67968 3.18359 2.75782.48047 4.4375.77344.6328 4.4375.45313 4.4414-.28515 4.4375-.26953 3.19531-.53125 1.2422-.38282 4.4375-.7539 4.4414-1.8789 4.4375-.67188 4.4375 1.47265v15.3789l-.14453.15235.14453.0586.08594-.0586-.08594-.15234v-15.3789l4.4375 1.8789 3.96094.33594.48047.18359 4.4375 1.54688 2.64843 2.71093-.71875 4.4375-1.92969.82813-1.43359 3.60937-3.0039 2.19922-4.44141-1.94531-4.4375 2.99219-2.26953 1.1914-2.16797 2.0664-4.4375 1.91017-.5625.46093-3.8789 2.1836L189 444.8203l-.61719-.7539-.59375.7539-2.69531 4.4414-1.14844.63673-4.4375 2.27734-3.11719 1.52344-1.32421 1.23047-4.4375 2.42187-1.3672.78516-3.0703 3.39844-1.17188 1.03906-3.26562 1.67969-1.71485-1.6797-.98828-4.4375-.3711-4.4375.23829-4.4375-.08984-4.4414-.23438-4.4375-.35938-4.4375-.32812-4.4375-.51953-4.4375-.07031-.08594-3.71875-4.35546-.72266-1.6172-2.8086-2.8203-1.6289-.60157-3.83594-3.83593 2.82422-4.4375-3.21875-4.44141"/><path fill="#00e8fc" fill-rule="evenodd" d="M147.76172 404.875l-3.75781-3.54297v-1.55469l4.43359.25782 4.4375-3.14454 4.4414-.29296v2.14843l-4.4414.95704-.97656.73437-2.45703 4.4375 3.43359 2.95313 3.8711-2.95313.5703-1.59766 1.29688-2.83984-1.29687-1.6914v-2.14844l2.9375 3.83984-1.16797 4.4375-1.76953 1.84766-4.44141 2.07812-4.4375-3.07422-.67578-.85156"/><path fill="#50fcfc" fill-rule="evenodd" d="M144.34375 324.98438l-.33984 1.3203v-1.6914l.33984.3711"/><path fill="#00e8fc" fill-rule="evenodd" d="M148.4375 416.67969l-2.92578-2.92578 2.92578-3.5547 4.4375-.29687v1.1172l-4.4375 1.01952-1.41016 1.71485 1.41016 1.41015 4.4375 1.82422 1.28906 1.20313 2.34766 4.4375.80469.9414 2.96484 3.5 1.47266 4.19922 4.4375-4.14453.04297-.05469-.04297-.03515-1.64844-4.40625-.40234-4.4375-2.38672-2.70704-4.4375-1.51562-.19532-.21484-4.24609-2.73438v-1.11719l4.4414 1.48829 4.4375 1.9414.47266.42188 3.60547 4.4375.35938 3.48437.32422.95313 4.11328 3.36328 2.67187 1.07812 1.76563 1.27735 4.4414-.76563.92969-.51172 3.50781-.63672 4.4375.58985.33203.04687 3.61328 4.4375-3.9453 3.44531-4.4375.15235-4.4375-1.51563-3.9297 2.35547-.51171.26172-1.45313-.26172-2.98437-.32422-4.4375-.97265-1.11328 1.29687 1.11328 2.625 1.07422 1.8125.9414 4.4375 2.42188 3.57031 4.4375.79688.01562.07422-.01562.00781-4.4375 3.27735-4.4375-2.83204-1.9375 3.98438-2.5 4.21875-.4922-4.21875.4922-3.625 3.18359-.8125-3.1836-.97656-.38671-3.46485-.76563-4.4375-.51953-4.4375-.6914-4.4375-.91797-4.4375-1.15625-1.36328-2.62891-3.07812-1.8125-4.07422-.35938-.36328-4.07812-1.51172"/><path fill="#00d4fc" fill-rule="evenodd" d="M148.4375 415.16406l-1.41016-1.41015 1.41016-1.71485 4.4375-1.01953v1.11328l-4.23828 1.6211 4.23828 1.91796 2.70313 2.51954 1.73828 3.05078 2.15625 1.38672 2.28125 3.36718 1.03515-3.36718-.33984-4.4375-.69531-.78907-4.4375-1.54296-1.92578-2.10547-2.51563-1.6211v-1.11328l4.2461 2.73438.1953.21484 4.4375 1.51563 2.38673 2.70703.40234 4.4375 1.64844 4.40625.04297.03515-.04297.05469-4.4375 4.14453-1.47266-4.19922-2.96484-3.5-.8047-.9414-2.34765-4.4375-1.28906-1.20313-4.4375-1.82422"/><path fill="#00c4fc" fill-rule="evenodd" d="M152.875 415.67188l-4.23828-1.91797 4.23828-1.6211v1.11328l-1.32422.50782 1.32422.59765 4.11328 3.83985.32813.57421 1.24609-.57421-1.2461-.4375-3.65234-4-.78906-.50782v-1.11328l2.51563 1.6211 1.92578 2.10546 4.4375 1.54297.6953.78907.33985 4.4375-1.03515 3.36718-2.28125-3.36718-2.15625-1.38672-1.73828-3.05078-2.70313-2.51954"/><path fill="#00d4fc" fill-rule="evenodd" d="M152.875 407.82813l-3.4336-2.95313 2.45704-4.4375.97656-.73438v1.91797l-2.30078 3.25391 2.30078 1.97656 2.59375-1.97656-2.59375-3.2539v-1.91798l4.4414-.95703 1.29688 1.69141-1.29687 2.83984-.57032 1.59766-3.87109 2.95313"/><path fill="#00c4fc" fill-rule="evenodd" d="M152.875 406.85156l-2.30078-1.97656 2.30078-3.2539v1.60546l-1.16406 1.64844 1.16406 1.0039 1.3164-1.0039-1.3164-1.64844v-1.60547l2.59375 3.25391-2.59375 1.97656"/><path fill="#00b8fc" fill-rule="evenodd" d="M152.875 414.35156l-1.32422-.59765 1.32422-.50782.78906.50782 3.65235 4 1.24609.4375-1.2461.57421-.32812-.57421-4.11328-3.83985m0-8.47265l-1.16406-1.00391 1.16406-1.64844v1.60156l-.03125.04688.03125.03125.03906-.03125-.03906-.04688v-1.60156l1.3164 1.64844-1.3164 1.0039"/><path fill="#00a8fc" fill-rule="evenodd" d="M152.875 404.90625l-.03125-.03125.03125-.04688.03906.04688-.03906.03125"/><path fill="#00e8fc" fill-rule="evenodd" d="M157.3164 390.33203l-.66015-3.20703.66016-.65625 1.375.65625-1.375 3.20703"/><path fill="#50fcfc" fill-rule="evenodd" d="M161.7539 357.92969l-1.15624-1.875 1.15625-3.21875.73828-1.21875 2.8789-4.4375.82032-1.58594 2.22656-2.85547.83594-4.4375 1.375-1.28515v9.90234l-.23047.26172.23047.21875.44922-.21875-.44922-.26172v-9.90235l2.51172-3.15234 1.08984-4.4375.83594-.89453v9.67188l-.08203.09765.08203.08985.10156-.08985-.10156-.09765v-9.67188l4.4414.39453 3.35156-3.9414 1.08594-.95313.95703.95313 2.03125 4.4414-2.89453 4.4375 4.34375 1.0586 3.79688 3.3789-2.58985 4.4375-1.20703.4961-4.4375 3.32812-4.4375-1.875-1.9961 2.49219-2.4453 3.64062-2.97657.79688-1.46093.39062-4.4375 3.5664-.83203.48048-3.60547 1.875"/><path fill="#00e8fc" fill-rule="evenodd" d="M170.6289 347.39844l-.23046-.21875.23047-.26172.44922.26172-.44922.21875m4.4375-9.00781l-.08203-.08985.08203-.09765.10156.09765-.10156.08985"/><path fill="#50fcfc" fill-rule="evenodd" d="M197.26172 333.34766l-1.98438-3.92188 1.98438-1.53125 4.4375-2.48437v3.65625l-.55078.35937.55078.53125 2.02344-.53125-2.02344-.35937v-3.65625l4.4375-.19141v8.10938l-1.33203.53515 1.33203 3.9336 4.14844-3.9336-4.14844-.53515v-8.10938l4.4375 1.65234 4.4414 2.48438.10157.07031-.10156.10938-4.35157 4.32812-.08984.10938-4.23828 4.32812-.19922.14063-.36719-.14063-4.07031-1.67578-3.875-2.76172-.5625-.51562"/><path fill="#00e8fc" fill-rule="evenodd" d="M201.69922 329.95703l-.55078-.53125.55078-.35937 2.02344.35937-2.02344.53125"/><path fill="#fff" fill-opacity="0" fill-rule="evenodd" d="M206.13672 333.32813l-1.33203.53515 1.33203 3.9336 4.14844-3.9336-4.14844-.53515"/><path fill="#00e8fc" fill-rule="evenodd" d="M206.13672 436.0039l-.14453-.05859.14453-.15234.08594.15234-.08594.0586"/><path fill="#50fcfc" fill-rule="evenodd" d="M228.32813 434.19531l-4.0586-2.6875 4.0586-3.875 4.13671 3.875.30078.20703v3.1211l-.80468 1.10937.80469.82031 2.43359-.8203-2.4336-1.10938v-3.1211l4.44141-.0664 2.48047 4.29687 1.95703.96094v1.72266l-1.82422 1.7539 1.82422 1.76172 2.0664-1.76172-2.0664-1.7539v-1.72266l4.09766 3.47656-4.09766 3.48828-3.61328-3.48828-.82422-1.7539-4.4414.4414-3.07813-3.125-1.35938-1.75"/><path fill="#00e8fc" fill-rule="evenodd" d="M232.76563 436.76563l-.8047-.82032.8047-1.10937 2.43359 1.10937-2.4336.82031m8.87891 5.37891l-1.82422-1.76172 1.82422-1.7539 2.0664 1.7539-2.0664 1.76172"/><path fill="#50fcfc" fill-rule="evenodd" d="M241.64453 428.44531l-1.80078-1.375 1.80078-1.16406L243 427.07031l3.08203 2.9414 2.14453 1.4961-2.14453 1.88281-1.51562-1.8828-2.92188-3.0625m142.02734 34.5078l-.28515-.3789.28515-.21485 4.4375-1.08593 1.71485 1.30078-1.71485 3.48047-4.4375-3.10156"/><g clip-path="url(#d)"><path fill="#50fcfc" fill-rule="evenodd" d="M383.67188 476.17578l-.19141-.28515.1914-.37891.80079.3789 3.63671.64844 4.4375.90235 4.07032 2.88671H385.25l-1.57813-4.15234"/></g><g clip-path="url(#e)"><path fill="#fff" fill-opacity="0" fill-rule="evenodd" d="M467.9961 480.32813H468V311.67188h-.0039H468v168.65625h-.0039"/></g><path fill="#fff" fill-opacity="0" fill-rule="evenodd" d="M210.0625 426.8164l5.69531 1.29688 2.21485-9.71484-5.69532-1.29688-2.21484 9.71485"/><path fill-rule="evenodd" d="M215.28125 419.66797l.4961.11328-1.39844 6.13672-.76563-.17578.9961-4.375-1.35547-.3086.125-.54296.55859.0625h.25781l.2461-.03516.23047-.09375.21484-.16406.20312-.25782.19141-.35937"/><path fill="#fff" fill-opacity="0" fill-rule="evenodd" d="M152.91016 432.91797l.45312 5.82422 9.92969-.77344-.45313-5.82031-9.92968.76953"/><path fill-rule="evenodd" d="M161.28516 435.77734l.03906.50782-6.27734.48828-.0586-.78516 4.47656-.34765-.10937-1.38282.55469-.04297.10547.55079.07421.24609.10938.22265.15625.19141.22266.16016.30468.11719.40235.07421"/><g clip-path="url(#f)"><path fill="none" stroke="#000" stroke-linecap="round" stroke-linejoin="round" stroke-miterlimit="10" stroke-width=".5" d="M147.50781 480.53516l-7.01562-.41407"/></g><g clip-path="url(#g)"><path fill="none" stroke="#000" stroke-linecap="round" stroke-linejoin="round" stroke-miterlimit="10" stroke-width=".5" d="M147.50781 480.53516l1.02344 2.23047"/></g><g clip-path="url(#h)"><path fill="none" stroke="#000" stroke-linecap="round" stroke-linejoin="round" stroke-miterlimit="10" stroke-width=".5" d="M146.48828 480.47656l.50781 1.11328"/></g><g clip-path="url(#i)"><path fill="none" stroke="#000" stroke-linecap="round" stroke-linejoin="round" stroke-miterlimit="10" stroke-width=".5" d="M160.79297 479.84375l-6.95703.97266"/></g><g clip-path="url(#j)"><path fill="none" stroke="#000" stroke-linecap="round" stroke-linejoin="round" stroke-miterlimit="10" stroke-width=".5" d="M160.79297 479.84375l1.4414 1.98438"/></g><g clip-path="url(#k)"><path fill="none" stroke="#000" stroke-linecap="round" stroke-linejoin="round" stroke-miterlimit="10" stroke-width=".5" d="M159.78125 479.98438l.72266.99218"/></g><g clip-path="url(#l)"><path fill="none" stroke="#000" stroke-linecap="round" stroke-linejoin="round" stroke-miterlimit="10" stroke-width=".5" d="M174.05078 479.52734l-6.83984 1.60157"/></g><g clip-path="url(#m)"><path fill="none" stroke="#000" stroke-linecap="round" stroke-linejoin="round" stroke-miterlimit="10" stroke-width=".5" d="M174.05078 479.52734l1.61719 1.84766"/></g><g clip-path="url(#n)"><path fill="none" stroke="#000" stroke-linecap="round" stroke-linejoin="round" stroke-miterlimit="10" stroke-width=".5" d="M173.05469 479.76172l.8086.92187"/></g><g clip-path="url(#o)"><path fill="none" stroke="#000" stroke-linecap="round" stroke-linejoin="round" stroke-miterlimit="10" stroke-width=".5" d="M187.375 479.5586l-6.85938 1.53906"/></g><g clip-path="url(#p)"><path fill="none" stroke="#000" stroke-linecap="round" stroke-linejoin="round" stroke-miterlimit="10" stroke-width=".5" d="M187.375 479.5586l1.59766 1.85937"/></g><g clip-path="url(#q)"><path fill="none" stroke="#000" stroke-linecap="round" stroke-linejoin="round" stroke-miterlimit="10" stroke-width=".5" d="M186.375 479.78125l.80078.9336"/></g><g clip-path="url(#r)"><path fill="none" stroke="#000" stroke-linecap="round" stroke-linejoin="round" stroke-miterlimit="10" stroke-width=".5" d="M200.59375 479.21484l-6.66406 2.23047"/></g><g clip-path="url(#s)"><path fill="none" stroke="#000" stroke-linecap="round" stroke-linejoin="round" stroke-miterlimit="10" stroke-width=".5" d="M200.59375 479.21484l1.77734 1.6875"/></g><g clip-path="url(#t)"><path fill="none" stroke="#000" stroke-linecap="round" stroke-linejoin="round" stroke-miterlimit="10" stroke-width=".5" d="M199.6211 479.53906l.89062.84375"/></g><g clip-path="url(#u)"><path fill="none" stroke="#000" stroke-linecap="round" stroke-linejoin="round" stroke-miterlimit="10" stroke-width=".5" d="M213.875 479.1211l-6.60156 2.41406"/></g><g clip-path="url(#v)"><path fill="none" stroke="#000" stroke-linecap="round" stroke-linejoin="round" stroke-miterlimit="10" stroke-width=".5" d="M213.875 479.1211l1.82422 1.64062"/></g><g clip-path="url(#w)"><path fill="none" stroke="#000" stroke-linecap="round" stroke-linejoin="round" stroke-miterlimit="10" stroke-width=".5" d="M212.91406 479.47266l.91406.8203"/></g><g clip-path="url(#x)"><path fill="none" stroke="#000" stroke-linecap="round" stroke-linejoin="round" stroke-miterlimit="10" stroke-width=".5" d="M227.17578 479.08594l-6.57031 2.48437"/></g><g clip-path="url(#y)"><path fill="none" stroke="#000" stroke-linecap="round" stroke-linejoin="round" stroke-miterlimit="10" stroke-width=".5" d="M227.17578 479.08594l1.84375 1.6211"/></g><g clip-path="url(#z)"><path fill="none" stroke="#000" stroke-linecap="round" stroke-linejoin="round" stroke-miterlimit="10" stroke-width=".5" d="M226.21875 479.44922l.92188.8086"/></g><g clip-path="url(#A)"><path fill="none" stroke="#000" stroke-linecap="round" stroke-linejoin="round" stroke-miterlimit="10" stroke-width=".5" d="M240.52734 479.17969l-6.64453 2.29687"/></g><g clip-path="url(#B)"><path fill="none" stroke="#000" stroke-linecap="round" stroke-linejoin="round" stroke-miterlimit="10" stroke-width=".5" d="M240.52734 479.17969l1.79688 1.67187"/></g><g clip-path="url(#C)"><path fill="none" stroke="#000" stroke-linecap="round" stroke-linejoin="round" stroke-miterlimit="10" stroke-width=".5" d="M239.5586 479.51563l.89843.83593"/></g><g clip-path="url(#D)"><path fill="none" stroke="#000" stroke-linecap="round" stroke-linejoin="round" stroke-miterlimit="10" stroke-width=".5" d="M253.71484 478.86328l-6.38672 2.92969"/></g><g clip-path="url(#E)"><path fill="none" stroke="#000" stroke-linecap="round" stroke-linejoin="round" stroke-miterlimit="10" stroke-width=".5" d="M253.71484 478.86328l1.94922 1.49219"/></g><g clip-path="url(#F)"><path fill="none" stroke="#000" stroke-linecap="round" stroke-linejoin="round" stroke-miterlimit="10" stroke-width=".5" d="M266.78516 478.42188l-5.90235 3.8125"/></g><path fill="none" stroke="#000" stroke-linecap="round" stroke-linejoin="round" stroke-miterlimit="10" stroke-width=".5" d="M266.78516 478.42188l2.14453 1.1953"/><g clip-path="url(#G)"><path fill="none" stroke="#000" stroke-linecap="round" stroke-linejoin="round" stroke-miterlimit="10" stroke-width=".5" d="M279.73438 477.94922l-5.16797 4.75781"/></g><path fill="none" stroke="#000" stroke-linecap="round" stroke-linejoin="round" stroke-miterlimit="10" stroke-width=".5" d="M279.73438 477.94922l2.3164.8125"/><g clip-path="url(#H)"><path fill="none" stroke="#000" stroke-linecap="round" stroke-linejoin="round" stroke-miterlimit="10" stroke-width=".5" d="M292.4375 477.42188l-3.94531 5.8164"/></g><path fill="none" stroke="#000" stroke-linecap="round" stroke-linejoin="round" stroke-miterlimit="10" stroke-width=".5" d="M291.86328 478.26563l1.21875.1328"/><g clip-path="url(#I)"><path fill="none" stroke="#000" stroke-linecap="round" stroke-linejoin="round" stroke-miterlimit="10" stroke-width=".5" d="M305.39063 477.20703l-3.21875 6.2461"/></g><path fill="none" stroke="#000" stroke-linecap="round" stroke-linejoin="round" stroke-miterlimit="10" stroke-width=".5" d="M304.92188 478.11328l1.22656-.01562"/><g clip-path="url(#J)"><path fill="none" stroke="#000" stroke-linecap="round" stroke-linejoin="round" stroke-miterlimit="10" stroke-width=".5" d="M318.10156 476.96094l-2.01172 6.73437"/></g><path fill="none" stroke="#000" stroke-linecap="round" stroke-linejoin="round" stroke-miterlimit="10" stroke-width=".5" d="M317.8086 477.9414l1.20312-.24218"/><g clip-path="url(#K)"><path fill="none" stroke="#000" stroke-linecap="round" stroke-linejoin="round" stroke-miterlimit="10" stroke-width=".5" d="M331.94922 477.17188l-3.07813 6.3164"/></g><path fill="none" stroke="#000" stroke-linecap="round" stroke-linejoin="round" stroke-miterlimit="10" stroke-width=".5" d="M331.5039 478.08984l1.22657-.04297"/><g clip-path="url(#L)"><path fill="none" stroke="#000" stroke-linecap="round" stroke-linejoin="round" stroke-miterlimit="10" stroke-width=".5" d="M345.13672 477.10938l-2.82031 6.4375"/></g><path fill="none" stroke="#000" stroke-linecap="round" stroke-linejoin="round" stroke-miterlimit="10" stroke-width=".5" d="M344.72656 478.04688l1.22266-.09375"/><g clip-path="url(#M)"><path fill="none" stroke="#000" stroke-linecap="round" stroke-linejoin="round" stroke-miterlimit="10" stroke-width=".5" d="M357.9375 476.92969l-1.79297 6.79687"/></g><path fill="none" stroke="#000" stroke-linecap="round" stroke-linejoin="round" stroke-miterlimit="10" stroke-width=".5" d="M357.67578 477.91797l1.19531-.28125"/><g clip-path="url(#N)"><path fill="none" stroke="#000" stroke-linecap="round" stroke-linejoin="round" stroke-miterlimit="10" stroke-width=".5" d="M371.28906 476.9414l-1.86719 6.77344"/></g><path fill="none" stroke="#000" stroke-linecap="round" stroke-linejoin="round" stroke-miterlimit="10" stroke-width=".5" d="M371.01953 477.92578l1.19531-.26562"/><g clip-path="url(#O)"><path fill="none" stroke="#000" stroke-linecap="round" stroke-linejoin="round" stroke-miterlimit="10" stroke-width=".5" d="M386.8125 478.75781l-6.28516 3.14063"/></g><g clip-path="url(#P)"><path fill="none" stroke="#000" stroke-linecap="round" stroke-linejoin="round" stroke-miterlimit="10" stroke-width=".5" d="M385.89844 479.21484l1 .71094"/></g><g clip-path="url(#Q)"><path fill="none" stroke="#000" stroke-linecap="round" stroke-linejoin="round" stroke-miterlimit="10" stroke-width=".5" d="M394.71094 477.65234l4.55078 5.35157"/></g><g clip-path="url(#R)"><path fill="none" stroke="#000" stroke-linecap="round" stroke-linejoin="round" stroke-miterlimit="10" stroke-width=".5" d="M413.22266 478.375l-5.84375 3.90625"/></g><path fill="none" stroke="#000" stroke-linecap="round" stroke-linejoin="round" stroke-miterlimit="10" stroke-width=".5" d="M412.3711 478.94531l1.08202.57813"/><g clip-path="url(#S)"><path fill="none" stroke="#000" stroke-linecap="round" stroke-linejoin="round" stroke-miterlimit="10" stroke-width=".5" d="M426.58203 478.44531l-5.92969 3.76953"/></g><path fill="none" stroke="#000" stroke-linecap="round" stroke-linejoin="round" stroke-miterlimit="10" stroke-width=".5" d="M425.71875 478.99219l1.0664.60547"/><g clip-path="url(#T)"><path fill="none" stroke="#000" stroke-linecap="round" stroke-linejoin="round" stroke-miterlimit="10" stroke-width=".5" d="M439.8164 478.32422l-5.76952 4.01172"/></g><path fill="none" stroke="#000" stroke-linecap="round" stroke-linejoin="round" stroke-miterlimit="10" stroke-width=".5" d="M438.97656 478.90625l1.08985.5625"/><g clip-path="url(#U)"><path fill="none" stroke="#000" stroke-linecap="round" stroke-linejoin="round" stroke-miterlimit="10" stroke-width=".5" d="M452.3164 477.49219l-4.14062 5.67578"/></g><path fill="none" stroke="#000" stroke-linecap="round" stroke-linejoin="round" stroke-miterlimit="10" stroke-width=".5" d="M451.71484 478.3164l1.21485.17188"/><g clip-path="url(#V)"><path fill="none" stroke="#000" stroke-linecap="round" stroke-linejoin="round" stroke-miterlimit="10" stroke-width=".5" d="M465.97656 477.77344l-4.82812 5.10937"/></g><path fill="none" stroke="#000" stroke-linecap="round" stroke-linejoin="round" stroke-miterlimit="10" stroke-width=".5" d="M465.27344 478.51953l1.1836.32422"/><g clip-path="url(#W)"><path fill="none" stroke="#000" stroke-linecap="round" stroke-linejoin="round" stroke-miterlimit="10" stroke-width=".5" d="M147.45703 466.39453l-6.91406 1.23828"/></g><path fill="none" stroke="#000" stroke-linecap="round" stroke-linejoin="round" stroke-miterlimit="10" stroke-width=".5" d="M147.45703 466.39453l1.51563 1.9336m11.80468-1.90235l-6.92578 1.17578m6.92578-1.17578l1.5 1.94531m-2.5078-1.77343l.75.97265m13.58593-1.07812l-6.94922 1.04687m6.94922-1.04687l1.46094 1.96875m-2.47266-1.82031l.73047.98828m13.52344-1.48828l-6.8047 1.74609m6.8047-1.7461l1.65625 1.81641m-2.64453-1.5625l.82421.90625m13.40625-1.41406l-6.65625 2.2539m6.65625-2.2539l1.78516 1.6836m-2.7539-1.35548l.89062.84375m13.3164-1.375l-6.5039 2.66016m6.5039-2.66016l1.88672 1.57032m-2.83203-1.1836l.9414.78516m13.3672-1.03906l-6.60547 2.39453m6.60547-2.39453l1.82422 1.64062m-2.78516-1.29297l.91406.82031m13.34766-1.21484l-6.57422 2.48828m6.57422-2.48828l1.84375 1.61719m-2.80078-1.2539l.92187.80859m13.22656-1.46094l-6.32422 3.0664m6.32422-3.0664l1.98047 1.44922m-2.90234-1.0039l.99219.72655m13.05468-1.5078l-5.94922 3.73827m5.94922-3.73828l2.12891 1.22266m-2.99219-.67969l1.0625.61328m12.76172-1.6289l-5.23828 4.68359m5.23828-4.6836l2.30078.84375m-3.0625-.16406l1.15235.42578m12.72265-1.3164l-4.83203 5.10547m4.83203-5.10547l2.36328.65234m-3.0664.08984l1.17969.32813m12.64453-1.23828l-4.44922 5.4414m4.44922-5.4414l2.40625.48047m-3.05078.3125l1.20312.23828m12.5586-1.17969l-4.05079 5.73828m4.05078-5.73828l2.4336.3086m10.75781-.39454l-3.80469 5.91016m3.80469-5.91016l2.44531.20703m10.22657-.53125l-2.51954 6.5586m2.15235-5.60547l1.21875-.14844m12.48047-.80078l-2.55078 6.55078m2.17968-5.59765l1.21875-.14454m13.78907.09766l-5.19141 4.73828m4.4336-4.04687l1.15624.41015m13.33594 3.07032l-6.03125-3.60547m17.35156 1.80468l-.01953-.20312-.0586-.1914-.09374-.17579-.45703-.375-.19141-.0586-.20312-.01952-.19922.01953-.19141.0586-.45703.375-.09375.17577-.0586.19141-.01953.20312.01954.19922.05859.19141.09375.17578.45703.375.1914.0586.19923.01953.20312-.01954.1914-.05859.45704-.375.09375-.17578.0586-.1914.01952-.19923m15.25-1.89843l-5.91406 3.79297m5.05469-3.2422l1.07031.60157m12.79688-1.5664l-5.29688 4.62109m5.29688-4.6211l2.28906.875m11.17969-.68359l-5.60547 4.23828m5.60547-4.23828l2.22656 1.03125m11.1211-.98828l-5.67188 4.15234m4.84765-3.54687l1.10547.53515m13.4961-.28125l-6.59375 2.4336m5.6328-2.07813l.91407.81641"/><g clip-path="url(#X)"><path fill="none" stroke="#000" stroke-linecap="round" stroke-linejoin="round" stroke-miterlimit="10" stroke-width=".5" d="M147.5039 453.42578l-7.0078.54688"/></g><path fill="none" stroke="#000" stroke-linecap="round" stroke-linejoin="round" stroke-miterlimit="10" stroke-width=".5" d="M147.5039 453.42578l1.31641 2.07031m-2.33594-1.99218l.65625 1.03515m13.6875-.94531l-7.02343.21094m7.02344-.21094l1.21484 2.13281m-2.23828-2.10156l.60937 1.0664m13.71094-1.34374l-6.99219.69922m6.99219-.69922l1.36328 2.04297m11.77734-2.83985l-6.64062 2.29297m6.64063-2.29297l1.79687 1.67188m11.3125-2.14844l-6.23047 3.2461m6.23047-3.2461l2.02344 1.39062M213.5 451.75l-5.84766 3.89844M213.5 451.75l2.16016 1.16406m11.3203-.89062l-6.17968 3.34765m6.17969-3.34765l2.04297 1.35547m11.48047-.88672l-6.59766 2.41406m6.59766-2.41406l1.82812 1.63672m11.40625-1.83985l-6.4336 2.82032m6.4336-2.82032l1.92578 1.51953m10.95703-2.2539l-5.5703 4.28906m5.5703-4.28906l2.23438 1.01562m10.9414-1.1836l-5.29296 4.6211m5.29297-4.6211l2.29296.875m-3.0625-.20312l1.14453.4375m13.05079-.97265l-5.51563 4.35156m5.51563-4.35156l2.24609.98437m11.17578-.84375l-5.72656 4.07032m5.72656-4.07032l2.19531 1.09766m11.2422-.91406l-5.97266 3.70312m5.10156-3.16406l1.0625.61328m13.34375-.74219l-6.41016 2.8789m5.47656-2.45702l.96875.75m13.41016-.83203l-6.67187 2.20312m5.69921-1.88281l.88672.84766m12.78516-2.28907l-5.4414 4.44531m4.65234-3.79687l1.1289.47266m12.23828-1.79688l-3.96875 5.79688m3.39063-4.95313l1.21875.13281m13.48437-.20703l-5.58593 4.25782m4.77343-3.64063l1.11329.51172m13.73046 1.16016l-7.01953-.32422m6 .27734L400 454.92188m13.78906-.78516l-6.97265-.875m5.95703.7461l.4375 1.14843m13.8711-.8711l-6.9297-1.17187m5.92188 1l.38672 1.16406m13.98047-1.4453l-7.01953-.26954m6 .23047l.53125 1.10547m12.44921-3.97266l-4.3125 5.54688m3.6875-4.7422l1.20704.21095m14.07812 1.45703l-7 .60156m5.98047-.51563l.66797 1.03125"/><g clip-path="url(#Y)"><path fill="none" stroke="#000" stroke-linecap="round" stroke-linejoin="round" stroke-miterlimit="10" stroke-width=".5" d="M147.5039 440.63281l-7.0078-.4961"/></g><path fill="none" stroke="#000" stroke-linecap="round" stroke-linejoin="round" stroke-miterlimit="10" stroke-width=".5" d="M147.5039 440.63281l.9961 2.24219m12.17578-3.51563l-6.72266 2.05079m6.72266-2.05078l1.73438 1.73437m10.89453-2.98828l-5.35156 4.55469m5.35156-4.5547l2.28125.90626m10.40625-1.48438l-4.09375 5.71094m3.4961-4.8789l1.21874.16406m12.5039-1.125l-3.71093 5.96875m3.71094-5.96875l2.44531.16797m10.9414-.1211l-3.85546 5.875m3.85547-5.875l2.4414.22657m11.16016-.01563l-4.42969 5.45703m4.42969-5.45703l2.40625.46875m11.11719-.28516l-4.84766 5.08594m4.84766-5.08594l2.36328.66016m10.42578-1.07422l-3.79688 5.91406m3.79688-5.91406l2.44531.20313m11.375.1914l-4.80469 5.1289m4.8047-5.1289l2.36718.63672m11.01562-.57031l-4.9414 4.99219m4.9414-4.9922l2.35157.70313m10.1289-1.3164l-3.27343 6.21875m3.27343-6.21875l2.45313-.00781m11.7461.66796l-5.03907 4.89844m5.03906-4.89844l2.33594.75m11.6836.3047l-6.44923 2.79296m6.44922-2.79297l1.91797 1.53125m11.64453-.66797l-6.94531 1.0664m5.9375-.91405l.73047.98437m13.4375-1.75781l-6.63672 2.30469m6.63672-2.3047l1.80078 1.66798m10.76172-2.91797l-5.1289 4.8086m4.3828-4.10938l1.16016.39453m13.50781-.20313l-6.34375 3.02344m5.42188-2.58203l.98437.73047m13.52344 1.05078l-6.88281-1.42187m5.8789 1.21484l.34766 1.17578m13.73828-.25l-6.41797-2.85937m5.48438 2.4453l.08594 1.22266m12.05078 1.10157l-2.19531-6.67578m1.875 5.70312l-.84766.88672m16.35547-1.3711l-5.9375-3.76171m5.07031 3.21484l-.08984 1.22266m14.75-3.22657l-6.89453 1.33985m6.89453-1.33985l1.54687 1.90625m11.67188-2.28906l-6.70313 2.10156m5.73047-1.79687l.8711.86328m12.73828 2.16406l-5.34766-4.5625M465.45703 442l-.26562 1.19922"/><g clip-path="url(#Z)"><path fill="none" stroke="#000" stroke-linecap="round" stroke-linejoin="round" stroke-miterlimit="10" stroke-width=".5" d="M147.51172 427.00781l-7.02344.1211"/></g><path fill="none" stroke="#000" stroke-linecap="round" stroke-linejoin="round" stroke-miterlimit="10" stroke-width=".5" d="M146.49219 427.02734l.59375 1.07032m12.1836-3.94922l-3.90626 5.83984m3.33594-4.99219l1.22266.125m12.66406-.97265l-3.91016 5.83984m3.91016-5.83984l2.4414.25m11.16016-.03516l-4.48438 5.41016m4.48438-5.41016l2.40234.4961m11.19532-.23047l-5.05078 4.8828m5.05078-4.8828l2.33593.7539m-3.0703-.04687l1.16796.3789m12.21875-1.625l-3.72266 5.95703m3.72266-5.95703l2.44531.16797m10.41797-.40625l-2.82031 6.4336m2.82031-6.4336l2.44922-.1836m12.125 1.1172l-5.33984 4.5664m5.33984-4.5664l2.28516.89843m11.11718-.79687l-5.51172 4.36328m4.70704-3.72656l1.125.49218m12.32422-1.77343l-4.17188 5.65234m3.5664-4.83203l1.21094.17969m14.13282 1.95312l-7.01953-.2539m6 .21875l.53515 1.10156m13.67578-2.125L287.07813 428m5.78906-1.59375l.84375.89453m13.57422-.49219l-7.00782.51953m5.98829-.4453l.65625 1.03905m12.5-3.48437l-4.65235 5.26172m3.97656-4.4961l1.19141.28516m12.78516-1.0664l-4.6211 5.29296m3.94532-4.52343l1.1953.27734m13.70313.19531l-6.4414 2.8086m5.5039-2.39844l.96094.76172m13.44922-.73828l-6.7539 1.9453m6.7539-1.9453l1.70703 1.76171m11.72656-.41796l-6.98828-.7461m5.96875.63672l.45703 1.14063m8.09375-4.07032l4.57813 5.33203m-4.57813-5.33203l.89453-2.28515m16.69922 7.84765l-3.98047-5.78906m3.98047 5.78906l-1.1289 2.17578m12.47656-1.55859l-.04688-7.02734m.03907 6.0039l-1.07813.58594m17.77735-3.96484l-6.79688 1.77734m5.8086-1.51953l.83203.90625m13.11718-2.02734l-6.08984 3.5039m6.08984-3.5039l2.07813 1.30468m10.66406-2.05078l-4.94531 4.9961M452 425.29687l1.17578.35547m13.8164.65625l-6.85937 1.51953m5.85938-1.30078l.79687.9336"/><g clip-path="url(#aa)"><path fill="none" stroke="#000" stroke-linecap="round" stroke-linejoin="round" stroke-miterlimit="10" stroke-width=".5" d="M147.4375 414.48047l-6.875-1.45703"/></g><path fill="none" stroke="#000" stroke-linecap="round" stroke-linejoin="round" stroke-miterlimit="10" stroke-width=".5" d="M146.4375 414.26953l.33984 1.17969m13.96875-2.46094l-6.85937 1.53125m6.85937-1.53125l1.59375 1.86328m10.97657-3.36328l-5.3711 4.53125m5.3711-4.53125l2.27734.91406m-3.0586-.2539l1.13673.45703m12.89062-1.19531l-5.23438 4.6875m5.23438-4.6875l2.30469.84375m11.80078.64062l-6.8164 1.71875m6.8164-1.71875l1.64453 1.82031m-2.63672-1.5703l.82422.91015m13.53125-.92969l-6.91406 1.25781m6.91406-1.25781l1.52344 1.92578m11.78906-1.94531l-6.90625 1.29297m6.90625-1.29297l1.53125 1.91797m11.7461-2.08985l-6.83204 1.63672m6.83203-1.63672l1.625 1.83985m-2.61718-1.60156l.8125.92187M253.95313 413l-6.86329 1.5039M253.95312 413l1.58985 1.8711m11.53125-2.48048l-6.47656 2.72657m6.47656-2.72656l1.90234 1.54687m11.52344-1.25l-6.69531 2.13281M280.5 412.6875l1.7539 1.71094m11.44922-2.01563l-6.47265 2.73828m5.53125-2.33984l.94922.77344m12.96484-1.79297l-5.78906 3.98437m4.94531-3.40625l1.08984.56641m13.4922-.30469l-6.63673 2.30078m5.67188-1.96484l.89844.83594m13.57421.11328l-7.02343-.26563m6 .22657l.53515 1.10546m13.73828-1.8828l-6.89062 1.36718m5.88672-1.16797l.77734.94922m13.44922-1.51172l-6.70703 2.09375m5.73047-1.78906l.875.86328m12.84765-2.26563l-5.5664 4.28907m4.7539-3.66406l1.1172.5078m12.88671 3.3047l-5.32031-4.58985m4.54687 3.92578l-.27343 1.19532m14.46875-4.98829l-5.53516 4.32813m5.53516-4.32813l2.24218.9961m10.89063-1.21094l-5.17188 4.75781m4.42188-4.0664l1.15625.41015m13.46484-.29297l-6.28515 3.14063m5.37109-2.6836l1 .71094m13.40625-.7539l-6.63672 2.3125m5.67188-1.97657l.89843.83204m12.89844-2.08985l-5.66797 4.15625m4.83985-3.55078l1.10546.53125m12.25-1.91406l-4.09765 5.70703"/><g clip-path="url(#ab)"><path fill="none" stroke="#000" stroke-linecap="round" stroke-linejoin="round" stroke-miterlimit="10" stroke-width=".5" d="M147.35547 401.48047l-6.71094-2.08594"/></g><path fill="none" stroke="#000" stroke-linecap="round" stroke-linejoin="round" stroke-miterlimit="10" stroke-width=".5" d="M146.3789 401.17969l.22657 1.20312m13.67969-.0664l-5.94141-3.75391m5.9414 3.7539l-.18359 2.44532m-.67969-2.99219l-.09375 1.22266m14.0586-4.73047l-5.51563 4.35156m5.51563-4.35156l2.2461.98828m-3.04688-.35547l2.2461.98828m12.46483-.5039l-6.70312 2.11718m6.70313-2.11718l1.75 1.71875m-2.72657-1.41016l1.75 1.71875m-2.72265-1.41016l.875.85938m14.54687-.24219l-7.01953-.35156m7.01953.35156l1.04297 2.22266m-2.0625-2.27344l1.03906 2.22266m13.28125-2.71094l-6.98828.73047m6.98828-.73047l1.3711 2.03515m-2.38672-1.92968l1.3711 2.03515m12.9453-2.25l-6.96093.94922m6.96093-.94922l1.4336 1.98829m-2.44531-1.85157l1.43359 1.99219m12.77734-2.66406l-6.73047 2.01562m6.73047-2.01562l1.72656 1.7461m-2.70312-1.45313l.85938.875M253.5 398.57812l-5.96094 3.72266m5.96094-3.72265l2.125 1.22656m10.94922-1.57031l-5.47656 4.40625m5.47656-4.40625l2.2539.96484m10.96485-1.07422l-5.28516 4.6289m5.28516-4.6289l2.29297.8711m10.8125-1.09376l-4.86328 5.07032m4.86328-5.07032l2.35937.66797m11.09766-.52344l-5.14844 4.78125m5.14844-4.78125l2.3164.8047m11.3711-.32813l-5.89453 3.82812m5.89453-3.82812l2.14453 1.1875m11.09766-1.29297l-5.75 4.04297m5.75-4.04297l2.1875 1.10937m10.99218-1.28906l-5.47656 4.40235m4.67969-3.76172l1.1289.48046m13.65235.21875l-6.8164 1.71875m5.82421-1.46875l.82422.91016m12.91016-2.3711l-5.67188 4.14454m4.84766-3.54297l1.10547.53516m12.47265-1.7461l-4.54687 5.35938m4.54687-5.35938l2.39844.52735m11.1211-.33594l-4.95704 4.98047m4.95703-4.98047l2.34766.71094m11.26953-.3672l-5.5625 4.29298m4.7539-3.66797l1.1172.5039m13.04296-1.08203l-5.63672 4.19532m4.81641-3.58594l1.10938.52734m13.39453-.51953l-6.3711 2.96094m5.44532-2.52735l.97656.73829m13.35156-.96875l-6.54687 2.55468m5.59375-2.18359l.92968.80078m12.77735-2.1289l-5.42188 4.47265m4.63281-3.82422l1.13282.46875"/><g clip-path="url(#ac)"><path fill="none" stroke="#000" stroke-linecap="round" stroke-linejoin="round" stroke-miterlimit="10" stroke-width=".5" d="M147.27734 388.39063l-6.55468-2.53516"/></g><path fill="none" stroke="#000" stroke-linecap="round" stroke-linejoin="round" stroke-miterlimit="10" stroke-width=".5" d="M147.27734 388.39063l.29297 2.4375m11.5586-.69532L155.5 384.11328m3.6289 6.01953l-1.2578 2.10547m.73046-2.98047l-.6289 1.05078m15.92968-1.90625l-6.54297-2.55859m6.54297 2.5586l.28516 2.4375m-1.23828-2.8086l.28516 2.4375m13.92187-1.91406l-6.42188-2.85938m6.42188 2.85938L187.32422 391m-1.10156-2.86328l.16797 2.44922m14.36328-3.07813l-6.98438-.76953m6.98438.76953l.90625 2.28125m-1.92188-2.39453l.90625 2.28125m13.25-3.70312l-6.64062 2.30078m6.64062-2.30078l1.79688 1.67187m-2.76172-1.33594l.89844.83594m13.30468-1.3711l-6.48437 2.69923m6.48437-2.69922l1.89844 1.5586m-2.83984-1.16407l.9453.77734m13.1875-1.4414l-6.23827 3.23828m6.23828-3.23828l2.01953 1.39062m-2.92969-.91797l1.01172.69531m13.16406-1.26171l-6.13672 3.42578m6.13672-3.42578l2.0586 1.33203m-2.95313-.83203l1.03125.66406m13.1836-1.14844l-6.15235 3.39453m6.15235-3.39453l2.05859 1.33985m-2.95313-.84766l1.02735.67187m13.125-1.26171l-6.03516 3.59375m6.03516-3.59375l2.10156 1.26953m-2.97656-.75l1.04687.63671m13.125-1.1914l-6 3.66015m6-3.66015l2.11328 1.25m-2.98437-.71875l1.05469.625m13-1.35547l-5.73438 4.0625m5.73438-4.0625l2.1914 1.10156m-3.02734-.51172l1.09766.55079m13.21093-.89844l-6.05078 3.57422m6.05078-3.57422l2.09375 1.28125m-2.97265-.76172l1.04687.64062m12.9961-1.39453l-5.75 4.04297m5.75-4.04297l2.1875 1.11328m-3.02344-.52343l1.09375.55468m13.3164-.71484l-6.26562 3.1836m6.26562-3.1836l2.00782 1.41016m11.57422-.69922l-6.80079 1.76172m6.80079-1.76172l1.66015 1.8086M359.45312 386.5l.82813.90234m13.36719-1.5039l-6.58594 2.44922m6.58594-2.44922l1.83593 1.63281m-2.79296-1.27344l.91796.8125m13.07032-1.76172l-6.01563 3.62891m6.01563-3.6289l2.10547 1.2578m10.96875-1.60937l-5.53516 4.33203m5.53516-4.33203l2.24218 1m10.96875-1.125l-5.32812 4.58203M412.1914 385.5l1.14062.44531m13.08984-.9375l-5.60937 4.23438m4.79297-3.6211l1.11328.51954m13.64062.20312l-6.85546 1.5586m5.85546-1.33204l.8047.92969m13.40624-1.51563l-6.64844 2.27735m5.6797-1.94531l.89843.83593m13.51562-.66796l-6.91015 1.27734m5.90625-1.09375l.76172.96094"/><g clip-path="url(#ad)"><path fill="none" stroke="#000" stroke-linecap="round" stroke-linejoin="round" stroke-miterlimit="10" stroke-width=".5" d="M145.875 376.78125l-3.75-5.94531"/></g><path fill="none" stroke="#000" stroke-linecap="round" stroke-linejoin="round" stroke-miterlimit="10" stroke-width=".5" d="M145.875 376.78125l-1.21875 2.1289m14.94922-2.4375l-4.58203-5.32812m4.58203 5.32813l-.89063 2.28515m.22266-3.0586l-.89063 2.28517m.22657-3.0625l-.44531 1.14453m16.23046-1.4922l-6.85937-1.53124m6.85937 1.53125l.65235 2.36328m-1.64844-2.58594l.65234 2.36328m13.60938-1.94921l-6.76172-1.91407m6.76172 1.91406l.51953 2.39844m-1.5-2.67578l.51563 2.39844m-1.5-2.67969l.2578 1.19922m15.08204-.8789l-6.8789-1.4375m6.8789 1.4375l.6836 2.35546m-1.6836-2.5625l.6836 2.35547m-1.6836-2.5664l.33984 1.17968m15.04688-1.34375l-7.01953-.27344m7.01953.27344l1.0664 2.21094m-2.08593-2.25l1.0664 2.21094m12.8711-3.9336l-6.22657 3.25m6.22657-3.25l2.02343 1.38672m-2.92968-.91406l1.01172.6914m13.2578-1.07421l-6.3203 3.07031m6.3203-3.07031l1.98048 1.44531m-2.90235-1l.99219.72266m13.125-1.39454l-6.08203 3.51954m6.08203-3.51954l2.08203 1.30079m-2.96875-.78907l1.04297.65235m13.1875-1.11328l-6.14063 3.42187m6.14063-3.42187l2.0586 1.33203m-2.95313-.83594l1.03125.66797m13.1836-1.14844l-6.15235 3.39063m6.15234-3.39063l2.05469 1.33985m-2.94922-.84766l1.02734.67187m13.16797-1.1953l-6.12109 3.45312m6.1211-3.45313l2.0664 1.32031m-2.95703-.8164l1.03125.66015m13.0664-1.34375l-5.90625 3.8086m5.90625-3.8086l2.14063 1.19922m-3-.64453l1.07031.59766m12.97266-1.33985l-5.64453 4.1836m5.64453-4.1836l2.21484 1.0547m-3.03515-.44532l1.10546.52734m13.30079-.71094l-6.1836 3.33594m6.1836-3.33594l2.04296 1.35938m-2.9453-.875l1.02343.67969m13.44531-.57813l-6.6875 2.16016m6.6875-2.16016l1.76172 1.70703m-2.73437-1.39062l.8789.85156m13.4414-1.0625l-6.75 1.95313m6.75-1.95313l1.70704 1.76172m-2.6914-1.47656l.85546.8789m13.35547-1.42968l-6.57422 2.48437m6.57422-2.48437l1.83984 1.61718m-2.79687-1.2578l.92187.8125m13.11329-1.67188l-6.10157 3.48437m6.10157-3.48437l2.07421 1.30859m-2.96093-.80469l1.03515.65625m13.30078-.90234l-6.37109 2.96875m6.3711-2.96875l1.95703 1.47265m11.08203-1.95703l-5.82032 3.9375m5.82032-3.9375l2.16797 1.14844m11.35156-.8086l-6.22656 3.25391m6.22656-3.2539l2.02344 1.38672m11.23828-1.48438l-6.1211 3.44922m5.23047-2.94531l1.03516.66015m13.27734-.95703l-6.33594 3.03906m5.41407-2.59765l.98828.73047m13.59375.34765h-7.02735m6.00782 0l.57422 1.08204"/><g clip-path="url(#ae)"><path fill="none" stroke="#000" stroke-linecap="round" stroke-linejoin="round" stroke-miterlimit="10" stroke-width=".5" d="M143.72656 363.9961l.54688-7.00391"/></g><g clip-path="url(#af)"><path fill="none" stroke="#000" stroke-linecap="round" stroke-linejoin="round" stroke-miterlimit="10" stroke-width=".5" d="M143.80469 362.97656l-1.125.48828"/></g><path fill="none" stroke="#000" stroke-linecap="round" stroke-linejoin="round" stroke-miterlimit="10" stroke-width=".5" d="M158.03516 363.9336l-1.44141-6.87891m1.4414 6.8789l-1.88671 1.57032m1.67578-2.57422l-1.88281 1.57422m1.67578-2.57422l-.94531.78515m16.74218-.07421l-5.5664-4.29297m5.5664 4.29296L173 365.0586m-.39844-3.04296l-.20312 1.20703m14.92969-1.77735l-6.76563-1.90625m6.76563 1.90625l.51953 2.39844m-1.50391-2.67578l.26172 1.19922m14.09766-1.16406l-6.88282-1.42188m6.88281 1.42188l.6875 2.35546m-1.6914-2.5625l.6914 2.35547m-1.6914-2.5625l.34375 1.17969m15.03906-1.71875l-7.01172.48828m7.01172-.48828l1.29688 2.07813m-2.32032-2.00782l1.30078 2.08203m-2.3203-2.01171l.65234 1.03906m14.70703-1.13672l-7.01563.40234m7.01563-.40234l1.27344 2.09765m-2.29297-2.03906l1.27343 2.09766m-2.29687-2.03906l.63672 1.04687m14.69922-1.38672l-6.97266.84766m6.97266-.84766l1.40625 2.01172m-2.41797-1.89062l1.40234 2.01171m12.28516-3.77343l-5.6914 4.125m5.6914-4.125l2.20312 1.08203m-3.03125-.48047l1.10156.53906m12.95704-1.25l-5.52344 4.34375m5.52344-4.34375l2.24609.99219m-3.05078-.35938l1.125.4961m12.91406-1.22656l-5.36328 4.53906m5.36328-4.53906l2.28125.91015m-3.0625-.25l1.14063.45703m13.03515-1.01953l-5.51953 4.34766m5.51953-4.34766l2.2461.98828m-3.05078-.35546l1.125.49218m13.16796-.88281l-5.86718 3.86328m5.86718-3.86328l2.15235 1.17578m-3.0039-.61328l1.07421.58594m13.3086-.77344l-6.30079 3.10938m6.30078-3.10938l1.9922 1.4336m-2.90626-.98048l.99219.71875m13.23047-1.1875l-6.28516 3.14063m6.28516-3.14063l2 1.42188m-2.91406-.96484l1 .71093m13.2578-1.10546L340.55079 362m6.34766-3.01563l1.97265 1.46485m-2.89453-1.02344l.98438.73047m13.41797-.76172l-6.67578 2.19922m6.67578-2.19922l1.76953 1.69922m-2.74219-1.3789l1.77344 1.6953m12.54687-1.91406l-6.73828 1.9922m6.73828-1.9922l1.71875 1.75391m-2.69922-1.46094l1.71875 1.75m12.45313-2.39062l-6.49219 2.6875m6.49219-2.6875l1.89453 1.5625m-2.83984-1.17188l1.89453 1.5625m12.38672-1.89844l-6.53516 2.58204m6.53516-2.58204l1.86718 1.58985m-2.8164-1.21485l1.86719 1.59375m12.47656-1.74609l-6.69531 2.13672m6.6953-2.13672l1.75782 1.71485m-2.73047-1.40625l1.7539 1.71484m12.54688-1.98438l-6.71875 2.0547m6.71875-2.0547l1.73438 1.73438M426 359.76562l1.73438 1.73438m12.53515-2.10156l-6.67578 2.1875m6.67578-2.1875l1.76953 1.69922m-2.74218-1.37891l.88671.84766m13.33985-1.34375l-6.55469 2.53906m6.55469-2.53906l1.85547 1.60546m11.3828-1.78125l-6.40233 2.89454m5.47265-2.47266l.97266.75"/><g clip-path="url(#ag)"><path fill="none" stroke="#000" stroke-linecap="round" stroke-linejoin="round" stroke-miterlimit="10" stroke-width=".5" d="M142.88672 350.51172l2.22656-6.66797"/></g><path fill="none" stroke="#000" stroke-linecap="round" stroke-linejoin="round" stroke-miterlimit="10" stroke-width=".5" d="M156.9414 350.67188l.7461-6.98829m-.7461 6.98829l-2.27734.91406m2.38672-1.92969l-2.27734.91406m16.41406.07813l-1.11719-6.9375m1.11719 6.9375l-1.95313 1.48047m1.79297-2.4922l-1.95703 1.48438m16.1914-.68359l-2.6328-6.51563m2.6328 6.51563l-1.57812 1.8789m16.65625-3.4453l-6.16015-3.38673m6.16015 3.38672l-.03515 2.45313m-.85938-2.94531l-.01953 1.22656m14.27344-.8164l-6.2461-3.21876m6.2461 3.21875l.03125 2.45313m-.9414-2.92188l.03124 2.45313m-.9375-2.92188l.01563 1.22656m15.4961-2.17187l-7.00782.54297m7.00781-.54297l1.3164 2.07031m-2.33593-1.99219l1.3164 2.07422m12.98048-2.46093l-6.9297 1.16015m6.9297-1.16015l1.49218 1.9453m-2.5-1.77733l1.49219 1.9453m-2.5039-1.77734l.75.97266m14.55077-1.48438l-6.86328 1.51172m6.86328-1.51171l1.58985 1.86718m-2.58984-1.64844l1.58984 1.8672m12.64453-2.37891l-6.70313 2.09765m6.70313-2.09765l1.7461 1.72265m-2.71876-1.41797l.8711.86329m13.33984-1.39454l-6.55078 2.55079m6.55078-2.55079l1.85938 1.60157m-2.8125-1.23047l.92968.80078m12.96094-1.8789l-5.79687 3.96874m5.79687-3.96875l2.17578 1.13672m-3.01953-.5625l1.08984.57031m13.30079-.76171l-6.25782 3.19921m6.25782-3.19921l2.01171 1.40625M306 346.04296l1.0039.70312m13.27735-1.05078l-6.3711 2.96485m6.3711-2.96485l1.95703 1.47656m-2.88281-1.04687l.97656.74219m13.39063-.85938l-6.625 2.33985m6.625-2.33985l1.80859 1.66016m-2.77344-1.32031l.90625.82812m13.36719-1.19531l-6.60938 2.39453m6.60938-2.39453l1.82031 1.64844m-2.78125-1.29688l.91016.82031m13.52344-.5625l-6.92579 1.17579m6.92579-1.17579l1.5 1.94532m-2.50782-1.77344l1.5 1.94531m12.81641-2.16797l-6.91016 1.27735m6.91016-1.27735l1.52344 1.92188m-2.53125-1.73438l1.52734 1.91797m12.70313-2.47656l-6.73047 2.01953m6.73047-2.01953l1.72656 1.7461m-2.70313-1.44923l1.72266 1.7422m12.50781-2.22657l-6.60547 2.39453m6.60547-2.39453l1.82031 1.64453m-2.78125-1.29688l1.82032 1.64844m12.39453-2.15625l-6.48047 2.71485m6.48047-2.71485l1.89844 1.55078m-2.84375-1.15625l1.90234 1.5547m-2.84375-1.16017l.94922.77735m14.3164-1.40235l-6.60937 2.39063m6.60937-2.39063l1.82032 1.64454m-2.78125-1.29688l1.8164 1.64453m-2.78125-1.29687l.91016.82031m14.35156-1.45313l-6.65234 2.26563m6.65234-2.26563l1.78906 1.6797m-2.7578-1.35157l1.78905 1.67969m12.57422-1.73828l-6.8125 1.72265m6.8125-1.72265l1.64844 1.8164m-2.64062-1.5664l1.64843 1.8164m12.70313-1.8789l-6.89844 1.34765"/><g clip-path="url(#ah)"><path fill="none" stroke="#000" stroke-linecap="round" stroke-linejoin="round" stroke-miterlimit="10" stroke-width=".5" d="M467.01172 346.5039l1.54297 1.90626"/></g><path fill="none" stroke="#000" stroke-linecap="round" stroke-linejoin="round" stroke-miterlimit="10" stroke-width=".5" d="M466.00781 346.70313l.77344.95312"/><g clip-path="url(#ai)"><path fill="none" stroke="#000" stroke-linecap="round" stroke-linejoin="round" stroke-miterlimit="10" stroke-width=".5" d="M143.46875 337.33594l1.0625-6.94531"/></g><path fill="none" stroke="#000" stroke-linecap="round" stroke-linejoin="round" stroke-miterlimit="10" stroke-width=".5" d="M157.6875 337.35547l-.74219-6.98828m.74219 6.98828l-2.03516 1.375m1.92578-2.39063l-2.03125 1.375m14.91407-.34375l.33984-7.01562m-.33984 7.01562l-2.22266 1.04688m2.26953-2.0664l-2.21875 1.04296m2.26953-2.0625l-1.10937.51953m16.19531 1.08594l-3.39844-6.14844m3.39844 6.14844l-1.33594 2.05469m.84375-2.94922l-.67187 1.02734m15.15625-.6211l-4.7539-5.17187m4.7539 5.17188l-.8125 2.3164m.1211-3.0703l-.8125 2.3164m15.04296-1.78906L207.97266 331.5m5.20312 4.72266l-.60156 2.3789m-.15625-3.0625l-.60156 2.375m-.15235-3.0625l-.30469 1.1875m15.97657-1.48437l-6.89063-1.38281m6.89063 1.3828l.70312 2.35157m-1.70703-2.55078l.70313 2.34765m13.51953-3.90234l-6.69922 2.125m6.69922-2.125l1.7539 1.71485m-2.73047-1.40625l1.75391 1.71484m12.59766-1.8164l-6.8164 1.71093m6.8164-1.71094l1.64453 1.82031m-2.63672-1.5703l1.64453 1.8203m-2.63672-1.57421l.82031.91406m14.53516-1.1289l-6.92969 1.14843m6.9297-1.14844l1.49218 1.94922m-2.5-1.78125l1.49219 1.94922m-2.5-1.78125l.74609.97266m14.57031-1.38672l-6.90234 1.30469m6.90234-1.3047l1.53516 1.91407m-2.53906-1.72266l1.53515 1.91407m12.57031-2.8125l-6.47656 2.71875m6.47656-2.71875l1.90235 1.55078m-2.84375-1.15625l1.90234 1.55078m12.11719-2.41406l-6 3.65625m6-3.65625l2.10937 1.25m-2.98437-.71875l2.11328 1.25m12.0039-1.89454l-5.85546 3.88282m5.85547-3.88281l2.15625 1.16796m-3.00782-.60546l2.15625 1.17187m11.90625-1.88281l-5.64843 4.17969m5.64843-4.1797l2.21485 1.0547m-3.03516-.44532l2.21485 1.05469m12.3789-.82422l-6.5664 2.5m6.5664-2.5l1.84766 1.61328m-2.80078-1.25l.92187.8086m13.53906-.4336l-6.94921 1.02344m6.94921-1.02344l1.45704 1.97656m11.83203-2.14453l-6.89453 1.35938m6.89453-1.35938l1.54687 1.89844m-2.55078-1.70312l1.55078 1.90234m12.65625-2.51953l-6.67187 2.20312m6.67187-2.20312l1.77344 1.69531m-2.7461-1.375l.88672.84766m13.40625-1.15235l-6.68359 2.17188m6.6836-2.17188l1.76562 1.70704m-2.73828-1.39063l.88281.85156M413.5 332.41016l-6.39844 2.90625m6.39844-2.90625l1.94531 1.49609m-2.875-1.07422l1.94531 1.4961m12.31641-1.875l-6.4336 2.8203m6.4336-2.8203l1.92578 1.51953m-2.85937-1.10938l1.92578 1.51953m12.34765-1.875l-6.48046 2.71094m6.48046-2.71094l1.89844 1.55469m-2.83984-1.16016l1.89844 1.5547m12.5078-1.51173l-6.78124 1.83594m6.78125-1.83594l1.67969 1.79297m-2.66407-1.52344l1.67578 1.78907m-2.66406-1.52344l.83985.89453m14.35156-1.73047l-6.58985 2.4375"/><g clip-path="url(#aj)"><path fill="none" stroke="#000" stroke-linecap="round" stroke-linejoin="round" stroke-miterlimit="10" stroke-width=".5" d="M466.85547 332.64453l1.83203 1.63281"/></g><path fill="none" stroke="#000" stroke-linecap="round" stroke-linejoin="round" stroke-miterlimit="10" stroke-width=".5" d="M465.89844 333l1.83203 1.63281m-2.79297-1.27734l.91797.8164"/><g clip-path="url(#ak)"><path fill="none" stroke="#000" stroke-linecap="round" stroke-linejoin="round" stroke-miterlimit="10" stroke-width=".5" d="M143.89844 324.0586l.20312-7.02344"/></g><g clip-path="url(#al)"><path fill="none" stroke="#000" stroke-linecap="round" stroke-linejoin="round" stroke-miterlimit="10" stroke-width=".5" d="M143.89844 324.0586l-2.19922 1.08984"/></g><path fill="none" stroke="#000" stroke-linecap="round" stroke-linejoin="round" stroke-miterlimit="10" stroke-width=".5" d="M158.02344 323.98828l-1.41797-6.88281m1.41797 6.88281l-1.89063 1.5664m1.6836-2.5664l-1.89063 1.5664m15.55469-.59765l-1.70313-6.8164m1.70313 6.8164l-1.82031 1.64063m1.57422-2.63282l-1.82422 1.64454m1.57812-2.63672l-.91406.8203m15 1.08204l-2.25781-6.65234m2.2578 6.65234l-1.67968 1.78906m1.35156-2.75781l-1.67968 1.78906m1.35156-2.75781l-.83984.89453m14.67187 1.08594l-1.98047-6.74219m1.98047 6.74219l-1.7539 1.71875m1.46484-2.69922l-1.7539 1.71484m15.42577-.7539l-2.11328-6.70313m2.11328 6.70313l-1.71875 1.75m1.41016-2.72656l-.85938.875m16.53907-1.625l-6.22657-3.25m6.22657 3.25l.01953 2.45703m-.92578-2.9297l.01172 1.22657m14.51953-3.17187l-6.84766 1.58984m6.84766-1.58984l1.61328 1.84765m-2.60938-1.61719l1.61328 1.84766m12.76172-1.70312l-6.97656.83984m6.97656-.83984l1.40235 2.01171m-2.41797-1.89062l.70312 1.00781m13.57422-1.44922l-6.86719 1.47657m6.8672-1.47657l1.58202 1.87891m-2.58203-1.66406l1.58203 1.8789m12.41797-2.97265l-6.23828 3.23437m6.23828-3.23437l2.01953 1.39453m-2.92578-.92188l2.01953 1.39063m12.13672-1.98047l-6.10937 3.46875m6.10937-3.46875l2.07422 1.3164m-2.96094-.8125l2.07032 1.31641m12.22656-1.64453l-6.29688 3.1211m6.29688-3.1211l1.99219 1.42578m-2.91016-.97265l1 .71484m12.92969-1.66797l-5.69141 4.1211m5.6914-4.1211l2.20313 1.07813m-3.03125-.48047l2.20313 1.08203m12.01953-1.5664l-5.85156 3.89062m5.85156-3.89063l2.16015 1.16797m-3.01171-.60156l2.16015 1.16797m12.33203-1.11719l-6.5039 2.65625m6.5039-2.65625l1.88672 1.57031m-2.83203-1.1836l1.88672 1.57032m12.26953-2.1914l-6.29297 3.1289m6.29297-3.1289l1.9961 1.42578m11.64062-.4297l-6.9375 1.13282m5.92969-.96484l.74218.97265m13.3047-2.03906l-6.38673 2.9336m6.38672-2.9336l1.95313 1.48828m10.98437-2.1289l-5.6289 4.21093m4.80859-3.59765l1.10937.52344m11.34766-2.35547l-2.27344 6.64843m1.9414-5.67968l1.21095-.19532m13.33984-.30859l-4.07812 5.72266m3.48437-4.89063l1.21484.16016m14.16797 1.76562l-7.02734.20703m7.02734-.20703l1.21485 2.1289m11.73437-3.58983l-6.29297 3.1289m6.29297-3.1289l1.9961 1.42578m-2.91407-.97266l1.9961 1.42969m11.875-2.46094l-5.57032 4.28516"/><g clip-path="url(#am)"><path fill="none" stroke="#000" stroke-linecap="round" stroke-linejoin="round" stroke-miterlimit="10" stroke-width=".5" d="M466.34766 318.40625l2.23437 1.01563"/></g><g clip-path="url(#an)"><path fill="none" stroke="#000" stroke-linecap="round" stroke-linejoin="round" stroke-miterlimit="10" stroke-width=".5" d="M465.53516 319.02734l2.23437 1.01563"/></g><path fill="none" stroke="#000" stroke-linecap="round" stroke-linejoin="round" stroke-miterlimit="10" stroke-width=".5" d="M464.72656 319.65234l1.11719.50782"/><path fill="#ff3030" fill-rule="evenodd" d="M362.30469 441.01953h7.6914V430.8711h-7.6914v10.14844"/><path fill="azure" fill-rule="evenodd" d="M364.13672 432.70703h.83203v5.73828h3.19531v.73828h-4.02734v-6.47656"/><path fill="#ff3030" fill-rule="evenodd" d="M295.72656 414.38672h7.69531v-10.14453h-7.6953v10.14453"/><path fill="azure" fill-rule="evenodd" d="M297.5586 406.07422h.83593v5.74219h3.1914v.73828h-4.02734v-6.48047"/><path fill="#ff3030" fill-rule="evenodd" d="M198.08203 409.94922h7.69531v-10.14453h-7.6953v10.14453"/><path fill="azure" fill-rule="evenodd" d="M199.91797 401.63672h.83203v5.73828h3.19531v.74219h-4.02734v-6.48047"/><path fill="#ffffe0" fill-rule="evenodd" d="M352.23047 401.30469h22.17969v-10.1914h-22.1797v10.1914"/><path fill-rule="evenodd" d="M355.73047 392.94531h.50781v6.29297h-.78515V394.75h-1.39063v-.55469l.5586-.0664.2539-.0547.23047-.08593.20312-.14453.17188-.20703.14453-.29688.10547-.39453m4.8125 0l.23047.01953.21875.0547.20703.08983.19531.1211.1836.14844.17187.17578.30078.42187.2461.49219.17968.54688.10938.57812.03906.58984-.03906.59375-.10938.58594-.17969.55469-.24609.5-.30078.42969-.17188.17968-.18359.15235-.19531.125-.20703.08984-.21875.0586-.23047.01953-.23047-.01954-.21875-.05859-.20703-.08984-.19531-.125-.1875-.15235-.16797-.17968-.30469-.4297-.24219-.5-.17969-.55468-.11328-.58594-.03515-.59375h.83203l.02734.56641.08203.5039.12891.44141.16016.375.1914.30078.21094.22266.22266.13672.22656.04687.22656-.04687.22266-.13672.21094-.22266.1914-.30078.16016-.375.1289-.4414.07813-.50391.03125-.5664-.03125-.5586-.07813-.5-.1289-.4375-.16016-.36719-.1914-.28906-.21094-.21484-.22266-.13282-.22656-.04296-.22656.04296-.22266.13282-.21094.21484-.1914.28906-.16016.36719-.1289.4375-.08204.5-.02734.5586h-.83203l.03515-.58985.11329-.57813.17968-.54687.24219-.49219.30469-.42187.16797-.17578.1875-.14844.1953-.1211.20704-.08984.21875-.05469.23047-.01953m5.08984 0h.51172v6.29297h-.78906V394.75h-1.38672v-.55469l.5586-.0664.2539-.0547.22656-.08593.20313-.14453.17578-.20703.14062-.29688.10547-.39453m2.82422 2.17578h.78906l.01954-.3164.05859-.28516.09765-.2539.14063-.21485.17969-.17578.22656-.1289.26172-.07813.3086-.02735.23827.01954.22266.0625.20703.10156.17969.14062.14844.17188.11328.20703.07031.23438.02344.26562-.01953.26953-.06641.22266-.10938.1914-.15625.17188-.19921.16406-.25.16406-.63282.39063-.53515.3125-.4375.3164-.34766.32422-.26562.33594-.1875.35156-.125.3711-.07032.39062-.01953.41797h4.21094V398.5h-3.33203l.08203-.28516.11328-.23437.14844-.20313.1875-.17968.23047-.17188.27734-.17578.71875-.41797.41406-.20312.34766-.23047.28125-.2539.21875-.26563.16406-.27735.10938-.28515.0664-.28516.01954-.28125-.04297-.38281-.1211-.34766-.1875-.3086-.25-.26171-.30469-.21485-.34375-.15625-.3828-.09765-.40626-.03516-.4336.03125-.39843.10156-.35547.16407-.30469.23437-.24609.30469-.1875.375-.11719.44531-.03906.51953"/><path fill="#ffffe0" fill-rule="evenodd" d="M233.57031 419.0586H255.75v-10.19141h-22.17969v10.1914"/><path fill-rule="evenodd" d="M237.07031 410.69922h.50781v6.29297h-.78515v-4.48828h-1.39063v-.5547l.5586-.0664.2539-.05469.23047-.08984.20313-.14062.17187-.21094.14453-.29297.10547-.39453m4.8125 0l.23047.01953.21875.05469.20703.08984.19531.1211.1836.14843.17187.17578.3047.41797.24218.4961.17969.54687.10937.57813.03906.58984-.03906.59375-.10937.58594-.1797.55469-.24218.5-.30469.42968-.17187.17969-.1836.15234-.1953.1211-.20704.09375-.21875.0586-.23047.01952-.23047-.01953-.21875-.0586-.20703-.09374-.19531-.1211-.1836-.15234-.17187-.17969-.30469-.42969-.24218-.5-.1797-.55468-.10937-.58594-.03906-.59375h.83203l.02735.5625.08203.50781.1289.4414.16016.375.1914.30079.21094.22266.22266.13671.22656.04688.22656-.04688.22266-.13671.21094-.22266.1914-.30078.16016-.375.1289-.4414.07813-.50782.03125-.5625-.03125-.5586-.07812-.5039-.1289-.4336-.16017-.36718-.1914-.28906-.21094-.21485-.22266-.13281-.22656-.04297-.22656.04297-.22266.13281-.21093.21485-.19141.28906-.16016.36719-.1289.43359-.08203.5039-.02735.5586h-.83203l.03906-.58984.10938-.57813.17969-.54687.24218-.4961.3047-.41797.17187-.17578.18359-.14844.19531-.12109.20703-.08984.21875-.05469.23047-.01953m5.08985 0h.51172v6.29297h-.78907v-4.48828h-1.38672v-.5547l.5586-.0664.2539-.05469.22657-.08984.20312-.14062.17578-.21094.14063-.29297.10547-.39453m2.82422 2.17578h.78906l.01953-.3164.0586-.28516.09765-.2539.14062-.21485.1797-.17578.22655-.12891.26172-.07813.3086-.02734.23828.01953.22265.0625.20703.10156.1797.14063.14843.17188.11328.20703.07031.23437.02344.26563-.01953.26562-.0664.22656-.10938.19141-.15625.17188-.19922.16015-.25.16797-.63281.39063-.53516.3125-.4375.3164-.34766.32422-.26562.33594-.1875.35156-.125.36719-.07031.39453-.01953.41797h4.21093v-.73828h-3.33203l.08203-.28516.11328-.23828.14844-.19922.1875-.17969.23047-.17187.27734-.17578.71875-.41797.41407-.20313.34765-.23047.28125-.2539.21875-.26563.16407-.27734.10937-.28516.0664-.28515.01954-.28125-.04297-.38282-.1211-.34765-.1875-.3086-.25-.26171-.30468-.21485-.34375-.15625-.38281-.09765-.40625-.03516-.4336.03125-.39844.10156-.35546.16406-.3047.23438-.24608.30469-.1875.375-.1172.4453-.03905.51954"/><path fill="#ffffe0" fill-rule="evenodd" d="M186.40234 435.5664h22.1797V425.375h-22.1797v10.1914"/><path fill-rule="evenodd" d="M189.90234 427.20703h.50782v6.29688h-.78516v-4.4922h-1.39063v-.55468l.5586-.0625.2539-.05469.23047-.08984.20313-.14063.17187-.21093.14453-.29688.10547-.39453m4.8125 0l.23047.01953.21875.05469.20703.08984.19532.1211.18359.14844.17188.17578.30468.42187.24219.49219.17969.54687.10937.57813.03906.59375-.03906.59375-.10937.58203-.17969.55469-.24219.5-.30469.42969-.17187.17968-.1836.15235-.1953.125-.20704.08984-.21875.0586-.23047.01952-.23047-.01953-.21875-.05859-.20703-.08984-.1953-.125-.1875-.15235-.16798-.17969-.30469-.42968-.24218-.5-.17969-.55469-.10938-.58203-.03906-.59375h.83203l.02735.5625.08203.5039.1289.44532.16016.375.1914.30078.21095.21875.22265.13672.22656.04687.22657-.04687.22265-.13672.21094-.21875.1914-.30078.16016-.375.1289-.44531.07813-.50391.03125-.5625-.03125-.5625-.07812-.5-.1289-.4375-.16016-.36328-.19141-.29297-.21094-.21485-.22265-.1328-.22657-.04298-.22656.04297-.22266.13281-.21093.21485-.1914.29297-.16017.36328-.1289.4375-.08203.5-.02735.5625h-.83203l.03906-.59375.10938-.57813.17969-.54687.24219-.49219.30468-.42187.16797-.17579.1875-.14843.19531-.1211.20703-.08984.21875-.05469.23047-.01953m5.08985 0h.51172v6.29688h-.78907v-4.4922h-1.38672v-.55468l.5586-.0625.2539-.05469.22657-.08984.20312-.14063.17578-.21093.14063-.29688.10547-.39453m2.82422 2.17578h.78906l.01953-.3164.0586-.28516.09765-.2539.14063-.21485.17968-.17188.22656-.1289.26172-.08203.3086-.02735.23828.01954.22266.0625.20703.10156.17968.14062.14844.17188.11328.20703.07031.23437.02344.26563-.01953.26953-.0664.22266-.10938.1914-.15625.17188-.19922.16406-.25.16406-.63281.39063-.53516.3125-.4375.3164-.34765.32422-.26563.33594-.1875.35156-.125.3711-.07031.39062-.01953.42188h4.21094v-.7422h-3.33204l.08203-.28515.11329-.23437.14843-.20313.1875-.17969.23047-.17187.27735-.17578.71875-.41406.41406-.20704.34766-.23046.28125-.25.21875-.26954.16406-.27734.10937-.28515.0664-.28516.01954-.28125-.04297-.38281-.1211-.34766-.1875-.3086-.25-.26171-.30468-.21094-.34375-.16016-.38281-.09765-.40625-.03516-.4336.03516-.39843.09765-.35547.16407-.30469.23828-.2461.30078-.1875.375-.11718.44531-.03906.51953"/><path fill="#ffffe0" fill-rule="evenodd" d="M330.09375 352.48438h22.17969v-10.19532h-22.17969v10.19531"/><path fill-rule="evenodd" d="M333.59375 344.125h.50781v6.29297h-.78906v-4.48828h-1.38672v-.5586l.5586-.0625.2539-.05468.23047-.08985.20313-.14062.17187-.21094.14063-.29297.10937-.39453m4.8125 0l.23047.01563.21875.05859.20703.08984.19531.11719.1836.15234.17187.17579.30078.41796.2461.4961.17968.54297.10938.58203.03906.58984-.03906.59375-.10938.58203-.17968.55469-.2461.5039-.30078.42579-.17187.17969-.1836.15234-.19531.125-.20703.09375-.21875.05469-.23047.01953-.23047-.01953-.21875-.0547-.20703-.09374-.19531-.125-.1875-.15235-.16797-.17968-.30469-.42578-.24219-.50391-.17968-.55469-.11329-.58203-.03515-.59375h.83203l.02734.5625.08204.50781.1289.44141.16016.375.1914.30078.21094.22266.22266.13672.22656.04687.22656-.04687.22266-.13672.21094-.22266.1914-.30078.16016-.375.125-.4414.08203-.50782.03125-.5625-.03125-.5625-.08203-.5-.125-.4336-.16016-.36718-.1914-.29297-.21094-.21484-.22266-.1289-.22656-.04688-.22656.04687-.22266.1289-.21094.21485-.1914.29297-.16016.36719-.1289.4336-.08204.5-.02734.5625h-.83203l.03515-.58985.11329-.58203.17968-.54297.2422-.4961.30468-.41796.16797-.17579.1875-.15234.19531-.11719.20703-.08984.21875-.0586.23047-.01562m5.08984 0h.51172v6.29297h-.78906v-4.48828h-1.38672v-.5586l.5586-.0625.2539-.05468.22656-.08985.20313-.14062.17578-.21094.14063-.29297.10546-.39453m6.8047 1.61719h-.78517l-.05078-.21094-.08203-.1875-.10937-.15625-.1289-.13281-.14845-.10156-.16015-.07422-.16797-.04688-.17188-.01562-.32812.04296-.28516.1172-.2461.19921-.20702.26563-.16016.33984-.11328.40234-.07031.46875-.02344.52735.1875-.20313.1875-.16015.1836-.1211.1875-.08984.1875-.0625.1914-.03516.40234-.02344.3047.03125.3203.08985.31641.15625.29688.21875.2539.28515.19922.35157.07422.19922.05078.21875.03125.23437.0039.25-.78906.04688-.02734-.25782-.07813-.25-.12109-.23828-.16015-.20703-.19141-.17969-.22266-.13671-.23828-.08594-.25781-.03125-.2539.03125-.23829.08594-.22265.13671-.19141.1797-.16016.20702-.1211.23828-.07812.25-.02734.25782.02734.2578.07813.25392.1211.23437.16015.20703.1914.17969.22266.13672.23828.08984.2539.03125.25782-.03125.23828-.08984.22266-.13672.1914-.17969.16016-.20703.1211-.23438.07812-.2539.02734-.25781.78907-.04688-.03125.3711-.09375.37109-.15625.35937-.22266.32813-.28906.28125-.17188.1211-.1875.10156-.20703.08203-.22265.0625-.2422.03906-.26171.01172-.28125-.01563-.26172-.04687-.23438-.07422-.21875-.10547-.1914-.13281-.17578-.15625-.15625-.17969-.13281-.20313-.1172-.22265-.09765-.24219-.14844-.53515-.08593-.59375-.02735-.63672.03906-.7461.11329-.66406.1875-.57422.12109-.25781.13672-.23047.15234-.20703.17188-.17969.1875-.15625.19922-.1289.21875-.10157.23437-.07422.2461-.04687.26171-.01172.3672.03125.33202.09766.29688.14843.2539.19922.21094.24219.16797.27344.11328.30469.0625.3203"/><path fill="#ffffe0" fill-rule="evenodd" d="M185.33984 334.73047h22.1797v-10.19531h-22.1797v10.1953"/><path fill-rule="evenodd" d="M188.83984 326.3711h.51172v6.29296h-.78906v-4.48828h-1.38672v-.55469l.5586-.0664.25-.05469.23046-.08984.20313-.14063.17578-.21094.14063-.29296.10546-.39454m4.8125 0l.23047.01954.21875.05468.20703.08985.19922.12109.1836.14844.17187.17578.30078.41797.24219.4961.17969.54687.11328.57812.03906.58985-.03906.59375-.11328.58593-.17969.55078-.24219.50391-.30078.42578-.17187.17969-.1836.15625-.19922.1211-.20703.09374-.21875.05469-.23047.01953-.22656-.01953-.21875-.05469-.21094-.09375-.1953-.1211-.1836-.15624-.17188-.17969-.30078-.42578-.24219-.5039-.17968-.55079-.11328-.58594-.03907-.59375h.83594l.02734.5625.08203.50782.125.4414.16407.375.1914.30079.21094.22265.22266.13672.22265.04688.22657-.04688.22265-.13672.21094-.22265.1914-.30079.16407-.375.125-.4414.08203-.50781.02734-.5625-.02734-.5625-.08203-.5-.125-.4336-.16406-.36719-.19141-.29296-.21094-.21094-.22265-.13281-.22657-.04688-.22265.04688-.22266.1328-.21094.21094-.1914.29297-.16406.3672-.125.43358-.08204.5-.02734.5625h-.83594l.03906-.58984.11329-.57812.17968-.54688.2422-.4961.30077-.41796.17188-.17578.1836-.14844.1953-.1211.21094-.08984.21875-.05469.22656-.01953m5.09375 0h.50782v6.29297h-.78516v-4.48828h-1.39063v-.55469l.5625-.0664.25-.05469.23047-.08984.20313-.14063.17578-.21094.14063-.29296.10546-.39454m6.8047 1.6172h-.78907l-.05078-.21095-.08203-.1875-.10547-.15625-.13281-.1328-.14454-.10157-.16015-.07422-.16797-.04688-.17188-.01562-.32812.04297-.28906.1211-.2461.1953-.20312.26563-.16016.33984-.11719.40235-.0703.46875-.02345.52734.19141-.20312.1836-.16016.1875-.1211.18359-.08984.1875-.0586.19531-.03905.39844-.02344.3086.03125.3203.08984.31641.15625.29297.21875.25781.28516.19922.35156.07031.19922.05469.21875.02734.23438.00391.25-.78516.04687-.02734-.25781-.07813-.25-.12109-.23438-.16016-.21094-.1953-.17968-.21876-.13672-.24219-.08594-.2539-.03125-.2539.03125-.2422.08594-.21875.13672-.1914.17969-.16406.21093-.1211.23438-.07812.25-.02735.25781.02735.25781.07812.2539.1211.23438.16406.21094.1914.17578.21875.13672.2422.08985.2539.03125.2539-.03125.2422-.08985.21874-.13672.19531-.17578.16016-.21094.1211-.23437.07812-.2539.02734-.25782.78516-.04688-.03125.3711-.08984.3711-.16016.35937-.22266.32812-.28906.28516-.17187.11719-.1875.10156-.20313.08203-.22656.0625-.23828.03906-.26172.01172-.28125-.01562-.26172-.04688-.23828-.07422-.21484-.10547-.19532-.1328-.17187-.15626-.15625-.17969-.13672-.20312-.11328-.22266-.10156-.24219-.14844-.53125-.08203-.59375-.02735-.64062.03906-.7461.11329-.66015.1875-.57813.11718-.2578.14063-.23048.15234-.20703.16797-.17969.1875-.15625.20313-.1289.21875-.10156.23047-.07422.25-.04297.26171-.01563.36328.03125.33204.09766.29687.15234.25781.19922.21094.23828.16406.27735.1172.30078.0625.32031"/></g></defs><use xlink:href="#ao"/></svg>