<svg xmlns="http://www.w3.org/2000/svg" role="img" xmlns:xlink="http://www.w3.org/1999/xlink" viewBox="142.45 309.95 326.84 171.84"><defs><clipPath id="a"><path d="M144 311.67188h1v168.65625h-1zm0 0"/></clipPath><clipPath id="b"><path d="M144 480h1v.32813h-1zm0 0"/></clipPath><clipPath id="c"><path d="M144 311.67188h324v168.65625H144zm0 0"/></clipPath><clipPath id="d"><path d="M429 476h7v4.32813h-7zm0 0"/></clipPath><clipPath id="e"><path d="M430 478h5v2.32813h-5zm0 0"/></clipPath><clipPath id="f"><path d="M467 311.67188h1v168.65625h-1zm0 0"/></clipPath><clipPath id="g"><path d="M144 480h4v.32813h-4zm0 0"/></clipPath><clipPath id="h"><path d="M147 480h2v.32813h-2zm0 0"/></clipPath><clipPath id="i"><path d="M146 480h2v.32813h-2zm0 0"/></clipPath><clipPath id="j"><path d="M153 479h9v1.32813h-9zm0 0"/></clipPath><clipPath id="k"><path d="M160 480h3v.32813h-3zm0 0"/></clipPath><clipPath id="l"><path d="M159 480h2v.32813h-2zm0 0"/></clipPath><clipPath id="m"><path d="M166 479h9v1.32813h-9zm0 0"/></clipPath><clipPath id="n"><path d="M173 480h3v.32813h-3zm0 0"/></clipPath><clipPath id="o"><path d="M172 480h2v.32813h-2zm0 0"/></clipPath><clipPath id="p"><path d="M180 479h8v1.32813h-8zm0 0"/></clipPath><clipPath id="q"><path d="M187 480h2v.32813h-2zm0 0"/></clipPath><clipPath id="r"><path d="M186 480h2v.32813h-2zm0 0"/></clipPath><clipPath id="s"><path d="M193 480h9v.32813h-9zm0 0"/></clipPath><clipPath id="t"><path d="M200 480h3v.32813h-3zm0 0"/></clipPath><clipPath id="u"><path d="M206 479h9v1.32813h-9zm0 0"/></clipPath><clipPath id="v"><path d="M213 479h3v1.32813h-3zm0 0"/></clipPath><clipPath id="w"><path d="M212 479h2v1.32813h-2zm0 0"/></clipPath><clipPath id="x"><path d="M220 480h8v.32813h-8zm0 0"/></clipPath><clipPath id="y"><path d="M227 480h2v.32813h-2zm0 0"/></clipPath><clipPath id="z"><path d="M226 480h2v.32813h-2zm0 0"/></clipPath><clipPath id="A"><path d="M233 479h8v1.32813h-8zm0 0"/></clipPath><clipPath id="B"><path d="M240 479h3v1.32813h-3zm0 0"/></clipPath><clipPath id="C"><path d="M239 479h2v1.32813h-2zm0 0"/></clipPath><clipPath id="D"><path d="M246 479h9v1.32813h-9zm0 0"/></clipPath><clipPath id="E"><path d="M253 479h3v1.32813h-3zm0 0"/></clipPath><clipPath id="F"><path d="M252 479h2v1.32813h-2zm0 0"/></clipPath><clipPath id="G"><path d="M260 479h8v1.32813h-8zm0 0"/></clipPath><clipPath id="H"><path d="M267 479h3v1.32813h-3zm0 0"/></clipPath><clipPath id="I"><path d="M273 480h8v.32813h-8zm0 0"/></clipPath><clipPath id="J"><path d="M280 480h3v.32813h-3zm0 0"/></clipPath><clipPath id="K"><path d="M286 479h9v1.32813h-9zm0 0"/></clipPath><clipPath id="L"><path d="M293 479h3v1.32813h-3zm0 0"/></clipPath><clipPath id="M"><path d="M300 479h8v1.32813h-8zm0 0"/></clipPath><clipPath id="N"><path d="M306 480h2v.32813h-2zm0 0"/></clipPath><clipPath id="O"><path d="M313 479h8v1.32813h-8zm0 0"/></clipPath><clipPath id="P"><path d="M319 480h2v.32813h-2zm0 0"/></clipPath><clipPath id="Q"><path d="M326 479h9v1.32813h-9zm0 0"/></clipPath><clipPath id="R"><path d="M332 480h2v.32813h-2zm0 0"/></clipPath><clipPath id="S"><path d="M340 479h8v1.32813h-8zm0 0"/></clipPath><clipPath id="T"><path d="M345 479h3v1.32813h-3zm0 0"/></clipPath><clipPath id="U"><path d="M353 479h8v1.32813h-8zm0 0"/></clipPath><clipPath id="V"><path d="M359 479h2v1.32813h-2zm0 0"/></clipPath><clipPath id="W"><path d="M366 479h9v1.32813h-9zm0 0"/></clipPath><clipPath id="X"><path d="M372 479h2v1.32813h-2zm0 0"/></clipPath><clipPath id="Y"><path d="M379 479h9v1.32813h-9zm0 0"/></clipPath><clipPath id="Z"><path d="M395 477h4v3.32813h-4zm0 0"/></clipPath><clipPath id="aa"><path d="M407 477h7v3.32813h-7zm0 0"/></clipPath><clipPath id="ab"><path d="M419 479h9v1.32813h-9zm0 0"/></clipPath><clipPath id="ac"><path d="M425 480h2v.32813h-2zm0 0"/></clipPath><clipPath id="ad"><path d="M433 478h8v2.32813h-8zm0 0"/></clipPath><clipPath id="ae"><path d="M439 480h1v.32813h-1zm0 0"/></clipPath><clipPath id="af"><path d="M447 477h6v3.32813h-6zm0 0"/></clipPath><clipPath id="ag"><path d="M462 476h3v4.32813h-3zm0 0"/></clipPath><clipPath id="ah"><path d="M144 466h4v2h-4zm0 0"/></clipPath><clipPath id="ai"><path d="M144 453h4v1h-4zm0 0"/></clipPath><clipPath id="aj"><path d="M144 439h4v2h-4zm0 0"/></clipPath><clipPath id="ak"><path d="M144 426h4v2h-4zm0 0"/></clipPath><clipPath id="al"><path d="M144 413h4v2h-4zm0 0"/></clipPath><clipPath id="am"><path d="M466 412h2v3h-2zm0 0"/></clipPath><clipPath id="an"><path d="M144 399h4v3h-4zm0 0"/></clipPath><clipPath id="ao"><path d="M466 399h2v3h-2zm0 0"/></clipPath><clipPath id="ap"><path d="M144 386h4v2h-4zm0 0"/></clipPath><clipPath id="aq"><path d="M466 385h2v4h-2zm0 0"/></clipPath><clipPath id="ar"><path d="M144 373h4v2h-4zm0 0"/></clipPath><clipPath id="as"><path d="M466 372h2v3h-2zm0 0"/></clipPath><clipPath id="at"><path d="M144 357h2v7h-2zm0 0"/></clipPath><clipPath id="au"><path d="M465 357h3v2h-3zm0 0"/></clipPath><clipPath id="av"><path d="M144 346h4v2h-4zm0 0"/></clipPath><clipPath id="aw"><path d="M144 330h2v8h-2zm0 0"/></clipPath><clipPath id="ax"><path d="M466 332h2v3h-2zm0 0"/></clipPath><clipPath id="ay"><path d="M144 317h2v8h-2zm0 0"/></clipPath><clipPath id="az"><path d="M466 319h2v3h-2zm0 0"/></clipPath><g id="aA" clip-path="url(#clip1)"><path fill="#fff" fill-opacity="0" fill-rule="evenodd" d="M0 0h1000v1000H0zm0 0"/><path fill="#d3d3d3" fill-opacity="0" fill-rule="evenodd" d="M162.15234 355.86719l-.23437.29297.0586.23437.11718.17188.17578.23437.29297.34766.11328.0586.11719-.17188.0586-.23438.17577-.17578.46485-.17578h.69922l.23437.29297.28906.8164.0586.17579.17578.23046.35156.23438.69922.69922.17188.17578.23437.34765.23438.41016.28906.58203.41015.46485.23047.23437.23438.17578.11719.23047.17578.29297.17187 1.16406v.23438l.0586.28906.05859.11719.11719.11719.34765.41015.11719.17188.17578.17578.17578.23437.11719.17188.17188.35156.05859.23438.23437.40625.23438-.0586-.17578.17578-.0586.92969h-.58203l-.23437-.11328-.34766.11328-.11719.11719-.05859.29297-.0586.17578-.11718.17187-.46484.29297-.0586.23438-.0586.11328v.64453l.0586.17187v.41016l.0586.0586v.40624l.05859.40625.11719.17579.05859.05859.23047.64062-.0586.29297v.69922l-.05859.58203v.23438l-.0586.23047-.05468.35156v1.92187l.05469.1172h.42578l-.36719.11718-.02344.35156.89063 1.16797 1.74219.53906 1.33984.35938v.53906l.08984.8086.53516.71484 1.51953.26953.89063-.08594.08984 1.16406.53516.1797 1.16015-.1797 2.05469-.98437 1.16016-.36328 1.8789-.17578 1.69531-.1797-.17968.71876-1.51563.08594-1.25.08984-.80469.26953-1.07421.8086.26953.71875.53515.89843-.17968.625-.26563.8086.26563 1.07812.625.89844.80468.17969 1.25-.1797-.26562.72267.09766.5039.05468.29297v.17188l.0586.29296v.40625l.17578.1172.35156.11718h.40625l.29297-.17578.11328-.11719.0586-.11719.11718-.23047.0586-.17578.35156-.46484.23047-.17578.17578-.0586.17578.0586.0586.17578.11718.98828.05469.46875.0586.17188.11718.23437.17578.0586.8164.05859h.28907l.11719.23437.05859.40625.0586.35156v1.10547l.11718.29297.11719.34766.28906.69922.17578.35156.58203.7539.35157.17579.17187.0586.46875.23437.64063.46484.34765.23438.29297.17578.29297.05468.23047.0625.8164.34766.29297.17578.11328.17188.35157.35156.11719.17578.52343.64063v.28906l.0586.35156v.34766l.05859.35156.0586.28906.11718.0586.17188.05859h.17578l.58203.23437.17578.1172.17578.28905.17578.23438.11328.23437.29297.23047.11719.11719v.41016l.0586.05468.28906.23438.23437.11719.0586.11718.11718.17188.0586.11719.23047.23437.05859.17578.23437.0586.1172.05859-.1172.11328-.05859.11719v.11719l-.11719.29296-.11719.28907v.58203l.17579.11719.11718.05859.0586.11719.11719.11719.11328.05859.17578.34765.0586.35157.05858.40625v.17578l-.05859.17578-.11719.69922v.17187l.1172.17579.29296.29296h.40625l.17578.1172.11719.17187.11719.29296v.23438h-.52735l-.23047-.23438h-.23437l-.17578.0586-.0586.69922.0586.34765.11719.17579.17578.41015.11718.23047.28907.46875.17578.05469h.52344l.23437.0586.75781.64062.0586.29296v.23438l.05859.0586.23047.34765v.35156l-.11719.17188v.29297l.29297.28906.29297.17578.17187.0586.29297.17577.29297.1172.58203.40624.28906.23438.29297.17578.21875.16015.01563.01172.23047.17579.64062.52343.17578.23438.1172.17578.17577.17578.11328.17188v.64062l.1172.17578.46874.11719.58203.11719.23438.05859.23047.11328.29297.11719.11328.0586.58593.35156.28907.17187.17578.0625.17578.05469.17578.0586.69922.35155.28906.17579.23438.05468.28906.17578.23437.1172.64063.40624.29297.11719.17187.0586.23438.05859.41015.05859.23047.0586.23438.11718.0586.17188-.41017.17578.46875.0586.0586.29296.11328.23438.17578.05468.23438.0586.17578.05859.40625.11719.64062.23437.11719.17188.0586.23437v.17578l-.0586.1172-.0586.40624.23438.23438.11719.05859.34766.11719.64062.23047.17578.11718.28906.1172.17578.17577.23438.46485.58203 1.10546.17578.17579.34766.17578.17578.11719.35156.11718 1.04688.52344.23437.0586.46485.11327.29297.0586.46484.17578.75781.58203.23438.23438.34765.46484.17578.17578.28907.23438.8164.69921.29297.17579.28906.28906.29297.17578.29297.28906.69531.64063.17578.17578.29297.23437.28907.23438.46875.28906.64062.58203.34766.23438.23437.29297.34766.34765.35156.46485.9336.99218.34765.40625.11719.17579.23437.05859.11328.11719.64454.17578.23047.11328.23437.0586.29297.17577.23047.1172.9336.69921.40624.40625.23438.17578.40625.17578.23437.11719.8164.34766.34766.23437.23438.11719.29297.28906.23047.11719.7578.35156.35157.17188.23047.05859.29297.11719.23437.0586.8711.17577h.8164l.46875.23047.17188.0586.875.69921.46484.1172.29297.05858.17578.0586.23047.0586.46875.05859.34766.05859.35156.0586.40625.05859h.29297l.17187.0586v.23046l.17578.17578h.29297l.34766.0586.35156.05859.69922.11719h.64063l.46484-.23438.29297-.17578.17187-.11719.41016-.17187.28906-.17578.9336-.46485.46875-.29297.52343-.29296.46485-.17188.46484-.17578 1.05078-.46485.28906-.11718.41016-.11719.28906-.11719.52735-.17578 1.51562-.69922.58203-.34765.28907-.0586.29297-.0586.34765-.11718.875-.23047.35156-.11719h.11329l.23437-.05859.875-.23437.23438-.0586h.8125l.35156-.0586.8164-.11718.17188-.0586.35156-.05468.29297-.0586.23047-.05859.8164-.17578.17579-.0586h.34765l.23438-.05859.46484-.11718.75781-.17188.23438-.0586h.34765l.41016-.11718.28906-.0586 1.28516-.05859h.28906l.41016-.0586.23047-.05858h.17578l.875-.1172h.40625l.41015-.11718h.34766l.35156-.11328.8711-.0586h1.75l1.04687.28907.41016.11719.28906.11718.35156.11719.28907.11719 1.05078.17187.28906.0586h.29297l.29297.05859.17187.0586.41016.05859.17187.0586.1172.05858h.11718l.11719.0586.35156.0586h.11328l.41016.0664 1.92187.39453 1.92578.39453 1.51953.44922 1.69532.71875 2.14453.80469 1.60547-.71875 1.42968-.80469 1.16016-1.07813 1.25-.44921 3.03516-.71875 1.875-.35938 2.14453-1.34765 2.23437-1.25391 2.5-1.25781 1.69531-.44922 1.78516-.17969 1.16016-.26953.625.53906 1.33984-.26953.71485-.98828.98437-1.34375.44531-.17969.80469-.35937 1.875-.53907 1.78516-.44921 1.25-.26954 1.16015-.08984 1.69922-.08984 1.96094-.26954 1.25-.08984h.53906l.625-.08984h.89063l2.14453-.17969 2.41015-.17969 2.58985-.08984 1.69531.17969 1.60938.08984 1.42968.35938 1.16016.71875 1.875.98828 1.16015 1.52734.26563.71484.6289.08985.35548.89844.53515.53906.53516 1.52734 1.07422.35938h.53515l-.80469.53515.08985 1.70703.71484 2.69532.89063.80468.89453.98829.71484 1.2578 1.78516.53907 1.51953-.17969.35547 1.34375 1.60937-.80469.98047-.53906.26953.26953.31641-.21484.21875-.14453.80078.44922.44922-.35938h.35547l.53515-.26953.53907-.71875.53515-.26953.625-.98828 1.16016.44922.83984.3711 1.39454.61718 1.6953-.17969h1.60548l1.78515.08985.17969-1.70704.53516-1.34375.80468.26954.4922.84765.40233.40625-.08984.53906v.35938l.71485.44922.71093-.26953h1.42969l.35938.98828.4453 1.25781.71485 1.34375 1.25.6289 1.69531.62891.71485-.17969.17969-.53906.98046-.08984.44922.35937.08594 1.25782-.26563.6289-.53515.17969v.53906l.71484.98438.26563.53906.98437.98828.80078 1.07813-.26562.35937-.08985.89844-.625 2.33203-.35546 2.0664-.08985 1.79298-.17969.71875-.08984.53906v1.4375l-.98047 1.88281-.35937 1.70703-.53516.89844-.80469 1.16797-.26562.53906 2.05469 1.2539.08593.35938-.35546.53906-.08985-.17968v.80859l.08985 1.4375-.44532.71484-1.07422.09375-.26562.71485.53515.89844.8047.71875 1.16015.80859 1.33984.26953.44531.35938-.35546.44921-1.78907-.08984-1.25-.44922-.71484-.71875-.625-.08984-.17578 3.58984-.1875 1.3086h89.35937V311.70313h-55.26953v49.08203l.76172.125 3.28906.54296 2.02344 2.83594v2.7539l2.35156.33204 2.34766.33203h4.05078l-1.3789 4.16016-2.02344.70703-2.02344.70312-.54297.34375-2.59375 1.6172-.1875.11718-2.02344-2.07813-.73046-2.74218-2.67188-2.07813-1.375-3.5-.0664-.08203-1.95704-2.67188 2.75-1.41796v-49.08204H294.42187v91.41407l.1172.03125.1328.01172.07422.07421.10547.04688.08985.0586.08593.05859.08985.0586.29687.29687.0586.08984.03125.11719.02734.11719.01563.13671-.03125.1172-.0586.08983-.0586.08594-.04296.10547-.04688.10156-.02734.1211v.14453l.17578.26953.14844.14844.07422.08594.07422.07421.04296.10547.0625.08985.0586.08593.04297.10547.0586.08985.04687.10156.04296.10547.0586.08594.11719.17968.07421.07422.0625.08594.0586.08984.04297.10547.0586.08985.05858.08593.0625.08985.0586.08984.04297.10156.11719.17969.07421.07422.0586.08594.07422.07421.08984.0586.10547.04687h.14844l.1328-.01562.13282.01562.10156-.04687.07422-.07422.04688-.10156-.01563-.13281v-.14844l-.04687-.10547-.02735-.11719-.04687-.10156-.02735-.1211-.04296-.10156-.0625-.08984-.04297-.10156-.04297-.10547-.03125-.11719-.01563-.13281-.01171-.13672.08593-.0586.0586-.08593.12109-.03125.04297.10547.01562.1328v.1172l.0586.10156.0586.08984.08983.0586.14844.14843.0586.08985.04296.10547-.01171.10156.08593.0586.10547.04687.08594.0586.08984.05858.07422.07422-.11719.02735-.10546.04687-.08594.0586-.07422.07421-.0586.08985-.0625.08594-.02734.12109-.04687.10156-.04297.10547-.03125.11719-.01172.13281-.01563.13281v.14844l.02735.11719.04687.10547.04297.10156.0586.08984.07421.07422.08985.0586.07422.07421.08984.0586.0586.08984.04296.10547.04688.10156.11719.03125.1328.01563h.14845l.11718-.03125.10547.04297.04297.10547.04688.10156.02734.1211L299.5 410l.02734.11719.03125.1211.02735.11718.10547.04297.10156.04687.13281-.01562.14844.14844.0625.08593.07422.07422.07031.07422.08984.0625.10547.04297.10156.04297.1172.03125.13671.01562.11719-.03125.07422-.07422.02734-.11718-.01172-.13282-.03125-.12109-.02734-.11719.04297-.10547h.11719l.08984.0625.11719.02735h.14843l.13282.01562h.14843l.13282.01563.1328-.01563h.14845l.1328-.01562.13282-.01172.13672.01172.11719-.02735.13281-.01562.1914-.0586-.05859.17579-.01562.1328-.02735.1211-.01562.13281-.0586.08594-.1328.01563-.10548.04687-.10546.04297-.1172.03125-.11718.02735-.26563.03125h-.14843l-.13281.01562-.07422.07422.05859.08594.14844.14843.11719.1797.07421.0703.08985.0625.08984.0586.08594.0586.08984.05858.10156.04297.10547.0625.10547.04297.08594.0586.10547.04687.10156.04297.17969.11719.0586.08984-.04298.10156-.04687.10547.01562.13281.22266.22266.0586.08985.04296.10156.03125.1211.04297.10155.01563.13282.03125.11718.01171.13672.03125.11719.14844.14844.10156.04297.10547.04296.1172.03125.1328.01563.13672.01563h.11719l.11719-.03125.08984-.0586.04297-.10547.04688-.10156.04296-.10547.03125-.11719.01172-.1328v-.14845l-.01172-.1328-.01562-.13282-.03125-.11719-.04297-.10547-.04688-.10547-.04296-.10156-.04297-.10547-.01563-.13281.01563-.13281.02734-.11719.03125-.11719.02735-.1211.04687-.10155.08984-.0586.08594-.0625.07422-.07422.08984-.05859.22266-.22266.0586-.08593.07421-.07422.11719-.17969.0586-.08594v-.14844l-.07423-.07421-.10156-.04688-.10547-.04297-.10156-.04297-.0586-.08984-.04687-.10547-.02734-.11719.08984-.05859.11719-.03125.10156-.04297.17969-.11719.14844-.14843.01172-.13282-.01172-.10546-.08985-.0586-.1328.01563h-.14845l-.1328.01562-.13282-.01562-.1211-.03125-.08593-.0586-.07422-.07422-.0586-.08984-.0625-.08594-.11718-.17969-.0586-.08593.03125-.1211.08594-.05859.1211-.03125.05859-.08594v-.1211l-.03125-.11718-.0586-.08984-.05859-.08594-.04687-.10547-.02735-.11719-.01562-.1328.0586-.08985.07421-.07422.08984-.0586.1172-.17968.07421-.07422.0586-.08594.14843-.14844.1211-.03125.1328-.01562.13282.01562.07422.07422.04297.10547.01562.13281-.03125.1172-.11719.03124-.1328.01172-.14844.14844-.04297.10547-.04688.10156-.02734.1211-.03125.11718v.14844l.03125.11719.04297.10546.05859.08985.07422.07031.07422.07422.11719.03125.12109.02734.11719-.02734.1328-.01563h.1172l.08984.0586.07422.07422.04687.10546.0586.08594.10156.04688.13281.01562.10547.04297.08594.0586-.01172.10546-.07422.07422-.17969.11719-.05859.08984-.08984.0586-.07032.07422-.07421.07421-.0625.08985-.02735.11719-.01562.1328.01562.13282-.01562.13281v.14844l.01562.13281.02735.1172.03125.12108.07421.07422.08985.0586.08594.0586.08984.05858.11719.03125v.08594l-.10157.04688-.08984.0586-.26563.03124-.11718.02735h-.14844l-.10547.04296-.10156.04688-.0586.08984-.0625.23438-.01171.13281-.03125.1211-.01563.1328v.29298l-.01172.1328.01172.13673.01563.1328.1328.01563.13282.01172.1211.03125.08593.0586.07422.07421.04688.10547.04296.10157.01563.1328v.44532l-.01563.13281v.44532l.03125.26562.02735.11719.01562.13281.03125.11719.08594.21094.03125.26562v.14844l-.03125.11719-.02734.11718-.03125.1211-.02735.11719-.03125.11718-.03125.1211-.01171.1328-.01563.13282.08984.0586.1172-.03125.10155.01562.04688.10547-.03125.26562v.44141l-.04297.10547-.04688.10547-.04296.10156-.04297.10547-.0586.08594-.03125.12109-.04296.11719-.03125.11719-.01563.1328.01563.13282.05859.08984.10547.04688.08594.0586.05859.08593-.01172.13672-.03125.11719-.04297.10156v.44531l-.01562.13281v.14844l-.03125.11719-.04297.10547-.02735.11719-.04687.10546-.04297.10157-.03125.12109-.02734.11719-.03125.13281-.03125.11719-.02735.11719-.04297.10546-.03125.1172-.03125.12108-.01171.13282-.01563.13281v.29688l.02734.11718v.14844l.04688.39844.02734.11719.0586.08984.12109.03125h.14844l.13281-.01563.0586.08985v.11719l-.0586.08984-.08984.0586-.10157.04296-.10546.04688-.08985.05859-.08594.0586-.13671.01562-.1172-.03125-.1328-.01563-.10157.04688-.0625.08594-.01172.13671-.01562.13282-.03125.11719-.02735.11718-.01562.13281-.03125.1211v.29687l.01563.13282.03125.11718v.14844l.01171.13281v.14844l-.02734.11719-.04688.10156-.02734.1211-.03125.11718-.0586.08985-.07421.07421-.10156.04297-.10547.04688-.11719.02734-.1211.03125-.10156-.04687.0586-.08594.10547-.04688.02734-.11718.03125-.11719.02734-.1211.03125-.11718v-.14844l.01563-.13281-.03125-.11719-.04297-.10547-.10547.01563-.07422.07422-.10156.04296-.08984.0625-.07422.07422-.04297.10157-.01563.1328-.03125.1172L304.25 426l-.03125.11719-.02734.11719-.03125.12109-.02735.11719-.03125.11718-.04297.10547-.08984.0586h-.08984l-.1172-.03125-.03124-.08594.01562-.13672-.03125-.11719v-.14844l-.01171-.1328v-.14844l-.0625-.23438-.02735-.1211-.04297-.10156-.04687-.10546-.0586-.08594-.05859-.08985-.04297-.10546-.0625-.08594-.14844-.14844-.0703-.07422-.10548-.04687-.10547-.04297-.10156-.04297-.29687-.29688-.08985-.07421-.08594-.0586-.10546-.04297-.08985-.0625-.08594-.0586-.10546-.04296-.08985-.0586-.08594-.0625-.07421-.0703-.10547-.04688-.08594-.0586-.10547-.04296-.08984-.0625-.10156-.04297-.10547-.04297-.08594-.0586-.10547-.04687-.10547-.04297-.10156-.04687-.08985-.0586-.10156-.04297-.10547-.04296-.08984-.0625-.11719-.02735-.13281-.01562-.13281.01562H299.75l-.13281.01563-.11719-.03125-.08984-.0586-.07422-.07422-.08985-.05859-.10156-.04688h-.14844l-.12109-.02734-.10156-.04297-.07422-.07422-.11719-.17968-.08984-.0586-.10156-.04297-.08985-.0625-.10547-.04296-.08984-.0586-.08594-.0586-.10547-.04687-.0586-.08594-.05858-.08984-.04297-.10547-.04688-.10156-.07422-.07422-.08594-.0586-.07421-.07421-.08985-.0586-.22265-.22265-.04297-.10547-.03125-.26563.10547-.04296h.14453l.10547.04296.07421.07422.08985.0586.08594.0586.10546.04687.08985.05859.14844.14844.0703.07422.14845.14843.0625.08594.07421.07422.08594.0586.07422.07421.08985.0625.08984.0586.08594.05859.26953.17578.10156.04688.10547.04296.10156.04297.04688-.07421.05859-.08594.07422-.07422.07031-.07422.10547.04297.07422.07422.0586.08984.04296.10156.04688.10547.04296.10547.1211.02735.11719-.02735.07421-.08984.04297-.10547.0586-.08985.07422-.07421.10546-.04297.1172-.02735.1328.01172.08985.0586.14844.14843.05859.08985.04297.10547.04687.10156.04297.10547.04297.10156.10547.04688.10547.04296.13281.01563.08594-.0586.0586-.08984.07421-.07422.10547-.04297.11719.02735.10547.04687.10156.04297.10547.04297.10156.04688.17969.11718v.11719l-.01563.13281.01563.13281.01562.13672.0586.08594.10156.04688.1211.02734.11718.03125h.14844l.11719-.03125.05859-.08984.17969-.1172.05859-.08983.07422-.07422.0586-.08594.11718-.17969.17969-.11719.11719.03125.08984.0586.04297.07422-.01563.1328v.1172l.08985.05859h.14843l.13282-.01563.1328-.01171.26563-.03125.10547-.04297.11719-.03125.1211-.02735.07421-.07421.07031-.07422.0625-.08985-.01562-.10547-.04688-.10156-.10156-.04297-.10547-.01562-.11718.02734-.26563.03125h-.14844l-.07421-.07422-.08985-.0586-.11719-.03124-.11718-.02735-.13282-.01562h-.14843l-.13282.01563h-.29687l-.10547-.04688-.14844-.14844-.04297-.10156-.05859-.08984.22266-.22266.08593-.0586.10547-.04296.11719-.03125.13281-.01563.13281.01563.13672.01562.10157.04297.1328-.01172.08985-.0625.10156-.04297.0625-.08984-.04687-.10156-.08984-.0586-.1172-.03125-.10155-.04296-.0586-.08985-.0625-.08984v-.11719l.01563-.13281.10547-.04688.07421-.07031v-.1211l-.08984-.05859-.03125-.11719.08985-.05859.07421-.07422.04297-.10547.0586-.08984.04687-.10156.01563-.13281v-.14844l-.04688-.10547-.04297-.10156-.08984-.0586-.13281-.01562-.10157-.04297-.13671-.01563-.1172-.03125h-.4453l-.13282-.01562-.13281-.01172-.13281-.01563-.11719-.03125h-.14844l-.13281-.01562-.13281-.01172-.26563-.03125-.1211-.04297-.08593-.0586-.07422-.07421v-.14844l.01172-.13281.10547-.04688.10156-.04296.13281-.01563h.15235l.13281-.01562h.29297l.1211.03125.10156.04296.08984.0586.23438.0625.12109-.04688.08984-.05859.10156-.04297.13282-.01562.10547.04296.10156.04688.13281.01172.1211-.02735h.14453l.12109-.03125.11719-.02734.10547-.04687.07421-.07422.08594-.0586.14844-.14843.0586-.08594.04687-.10547.02734-.11719.01563-.10547-.10156-.04296-.08985-.0586-.11719-.03125-.10546-.04297-.08985-.0625-.07422-.08594-.07422-.07421-.10156-.04297-.10547-.04688-.10156-.04297-.0586-.08984-.04687-.10156-.08594-.21094-.0625-.08594-.05859-.08984-.07422-.07422-.08594-.0586h-.26953l-.11719.03126-.08984.05859-.10156.04297-.13281.01562-.10547-.01562-.02735-.11719-.0625-.08984-.11718-.03125-.10157-.04297-.14843-.14844-.03125-.11719-.01563-.10546.07422-.07422.17969-.1172.11719-.02733.11718-.03125.13672.01562.10156.04297.10547.04297.10156.04687.10547.04297.1172.03125.1328.01563.1172.02734.1328.01563.10547-.01563.08985-.0586-.07422-.07421-.10547-.04297-.07422-.07422-.07422-.08984-.14844-.14844-.08593-.0586-.08985-.05859-.07422-.07422-.08984-.0586-.10156-.04687-.1211-.02734-.10156-.04688-.10547-.04296-.11719-.03125-.10156-.04297-.1211-.03125h-.14843l-.11719.03125-.10546.04297-.08594.0625-.17969.11718-.08594.0586-.08984.0586-.10547.04687-.08594.05859-.10547.04297-.10156.04297-.10547.04687-.07422.07422-.05859.08985-.0586.08593-.04687.10547-.0586.08594-.07421.07422-.13281-.01172-.1172-.03125h-.11718l-.07422.07422-.08984.0586-.07422.07421-.08984.0586-.08594.05859-.10547.04687-.10156.04297-.13672.01563-.10156-.04297-.14844-.14844-.10547-.04688h-.08594l-.10547.04688-.10156.04297-.1211.03125-.11718-.03125-.07422-.07422v-.11719l.03125-.1211.07422-.0703.0586-.08985.07421-.07422.11719-.03125.10547-.04296h.29297l.13281-.01563.13672-.01563.10156-.04296.08985-.0586.10156-.04687.08984-.0586.13281-.01171.08985.05859.13281.01172.08984-.0586.08594-.05859.10547-.04297.08984-.0586.08594-.0625.08985-.05859.14843-.14843.0586-.08594.05859-.08985.10547-.04296.13281-.01563.11719.02735.1211.03125.05859-.0586.05859-.08984.03125-.26563.02734-.11719.10547.01172.13281.01563.10157-.04297.08984-.0586.0586-.08984.07421-.07422.0586-.08984.04687-.10156.01172-.13281-.01172-.13282-.04687-.10547-.14844-.14843-.0586-.08985-.05859-.08594-.04297-.10546v-.44532l.01563-.1328v-.14845l.01172-.1328-.0586-.0586-.08984.0586-.10156-.04298-.17969-.11719-.08594-.05859-.0625-.08984-.0586-.08985-.07421-.07421-.08594-.0586-.1211.03125-.10155.01172-.10547.04688-.08594.05859-.10547.04297-.14844.14844-.08984.05859-.08594.0586-.08984.0625-.10547.04296-.13281.01563v-.1211l.10547-.04297.11718-.03125.07422-.0703.04297-.10548v-.14844l-.02734-.11718-.14844-.14844-.13281-.01563h-.14844l-.11719.03125-.10547.04297-.10156.04297-.08984.0625-.11719.02735-.07422-.07422.01172-.13281-.04297-.10157-.04297-.10547-.08984-.05859-.11719.02734-.1211.03125-.11718.03125-.10156.04297-.1211.03125-.10156.04297-.10547.04297-.08984.0586-.10156.01562v-.11719l.01562-.13281-.0586-.08985-.07421.04297-.14844.14844-.0586.08985-.07421.07421-.04688.10547-.04296.10156-.07422.07422-.0586.08985-.07422.07422-.05859.08593-.07422.07422-.08984.0625-.07422.07031-.07422.07422-.10156.01563-.13281.01562-.10547-.04296v-.1211l.14843-.14844.04297-.10156.0586-.08984.04687-.10156.04297-.10547.0586-.08985.03124-.11719.04297-.10156.03125-.1211.02735-.11718.04687-.10547.04297-.10156.04297-.10547.07422-.07031.08984-.0625.08985-.0586.10156-.04296h.29687l.26563-.03125.10547-.04297-.07422-.07422-.11719-.03125-.10547-.04297-.08984-.0586-.10156-.04687-.08985-.0586-.10156-.04296-.10547-.04297-.08984-.0625-.08594-.0586-.10547-.04296-.10156-.04297-.1211-.03125-.11718-.03125-.10157-.04297L297.5 410.25l-.10156-.04297-.08985-.0586-.04296-.10546-.01563-.13281.10156-.04297.13281-.01563.13672.01563.13282-.01563.10156-.04297.0586-.08984.01562-.10547-.08985-.0586-.07421-.07421-.10157-.04297-.08984-.0586-.14844-.14843-.04297-.10547-.01562-.13281v-.29297l-.0586-.08985-.08984-.05859-.07422-.07422-.04297-.10547-.03125-.11718-.0586-.08985-.07421-.07422-.11719-.02734-.07422-.07422-.08984-.0586-.08984-.0625-.08594-.05859-.07422-.07421-.0586-.08594-.04687-.10547-.08594-.0586-.14843-.14843-.19532-.0586-.1328.01563-.10157.04297-.07422.07422-.04688.10156-.04296.10547-.0586.08984-.0586.08594-.29687.29687-.08984.0586h-.08594l-.0625-.08594-.04297-.10547.03125-.11719.0586-.08984.02734-.11719-.01172-.13281-.08984-.0625-.10547.04688-.11719.02734-.11719.03125-.26953.17578-.10156.04688-.11719.02734-.10546.04687-.08985.0586-.10156.04297-.0586-.08594-.04687-.10547.01563-.13281.04687-.10547.07031-.07422.07422-.07031.0586-.08985v-.14843l-.04297-.10547h-.23829l-.10156.04687-.03125.11719-.02734.11719-.03125.1211-.07422.04296-.13281.01563-.07422-.04688-.04297-.10156-.04297-.10547-.04687-.10156-.04297-.10547-.1211.03125-.10156.04297-.13281.01562-.11719.03125-.10547.04297-.08984.0586-.10156.04687-.1211.02734-.13281.01563-.10156-.04297-.0586-.08985-.04687-.10546-.04297-.10157-.04297-.10546v-.1172l.0586-.08984.08593-.05859.17969-.11719.10156-.04687.10547-.04297.10547-.0586.10156-.04296.08985-.0625.10156-.04297.10547-.0586.10156-.04687.08984-.0586.10547-.04296.10156-.04297.08985-.0625.10156-.04297.13672-.01563.11719.03125.10156.04297.1211.03125.10156.04297.10546.04688.10157.04296.10547.04297.10156.04688.10547.04297.10156.04297.10547.04687.08594.0586.10546.04296.1172.03125.10546.04297.10156.04688.08985.0586.10547.04296.10156.04297.10547.04687.11719.02735.10156.04687.1211.02735h.14843l.08594-.0586.01562-.10156.0586-.08984-.02735-.1172-.07422-.07421-.11719-.17969-.07421-.07422-.08985-.07421-.17969-.1172-.08593-.05859-.10547-.04296-.10156-.04688-.26954-.17578-.05859-.08985-.07422-.07421-.0586-.08985-.04296-.10156-.03125-.11719-.01563-.13672v-.5625l-.01171-.1328-.01563-.13282-.03125-.11719-.01562-.13281-.01172-.13281-.03125-.1211-.22266-.22265-.0586-.08594-.01562-.10547.03125-.11719.13281-.01562v-91.41406H172.9922v1.45312l-.0586.23438-.35156 1.05078-.17187.52343-.1172.34766-.17577.41016-.11719.17187-.23438.29297-.23046.0586h-.35157l-.11718.05859-.23047.40625v.29297l.11719.17578.23046.23047.1172.23437.64062.75781.29297.46485.17578.23437.23047.35156.23437.34766.64063.8164.17578.46485.17187.41016.11719.69531.17578.46875.11719 1.39844.0586.46484v.875l.11718 1.04688v4.78125l-.0586.46484-.35156 1.28125-.17578.52344-.11328.41015-.35156.9297L172.93359 336l-.23437.58203-.11719.17578-.17187.34766-.17578.40625-.35157.8164-.0586.29297-.11327.29297-.11719.28906-.0586.17579-.11718.875-.0586.40625-.05859.11718-.0586.17579-.05859.17187-.23047.52734-.11718.17188v.23437l-.11719.23438-.0586.17187-.17577.58594v.28906l-.0586.17579v.29296l-.0586.11329-.05859.52734v.17187l-.05468.23438v2.6211l-.17578.8164-.1172.17578-.17577.23438-.1172.17187-.11327.23438-.58594.93359-.23047.28906-.29297.46485-.17578.23437-.28906.35156-.35156.69922-.11328.23047-.17579.41016-.17578.23046-.40625.52735-.8164.69922-.29297.17187-.28906.23438-.17579.11719-.17578.17578-.52344.40625-.52734.17578-.17187.17578-.23438.05469-.64062.17578h-.75782m12.21094 31.02344l-1.07422.44921.35938.89454 1.25-.71485.44531-.53906-.98047-.08985"/><path fill="#d3d3d3" fill-opacity="0" fill-rule="evenodd" d="M201.50781 416.59766h-.89453l.44922.6289.98047.35938.80469-.08985.4453-.98828-.17577.08985-.71485-.35547-.89453.35547m154.6211 59.0703l-.0586-.52343v-.29297l.11328-.29297.0586-.23046.46875-.46875h.11328l.11719-.11329.11718-.05859h.17579l.23437-.0586h.34766l.23437.0586.11719.0586.23047.17187.0586.17578.11718.58203v.29297l-.11719.17578-.17187.28906-.17579.17579-.52734.52343-.23047.23438-.11719.0586h-.17578l-.11718-.0586-.40625-.29297-.17579-.11719-.11718-.0586-.0586-.11327-.05468-.1172m6.64062-10.95702l-.0586-.17188v-1.10937l.0586-.17188.17578-.0586.17188-.05858h.17578l.23437-.0586.1172.0586.05858.69921-.05859.17188-.11719.17578-.11718.0586-.23438.52343-.11328.0586h-.23438l-.05859-.1172m9.61328-14.39062l-.11719-.17578v-.69922l.29297-.875.1172-.17187.17577-.35156.11328-.23047.1172-.29297.35155-.75781.1172-.23047.17187-.23438h.17578l.11719-.0586h.64062l.11719.0586.23437.23438.17188.11328.35156.29297.11719.11718.11328.17579v.11328l.11719.05859.11718.11719v.69922l-.05859.17578v.23047l-.0586.17578-.34765 1.05078-.11719.23047-.11719.23437-.11718.0586-.23047.23437-.64063.28906h-.875l-.41015-.11718-.64063-.46485"/><path fill="none" stroke="#bebebe" stroke-linecap="round" stroke-linejoin="round" stroke-miterlimit="10" stroke-width=".5" d="M467.95703 311.69531H144.02734v168.625h323.9297v-168.625"/><g clip-path="url(#a)"><path fill="#fff" fill-opacity="0" fill-rule="evenodd" d="M144 475.89063v4.2539-168.47265h.0039H144v164.21875"/></g><g clip-path="url(#b)"><path fill="#50fcfc" fill-rule="evenodd" d="M144.0039 480.32813v-.1797l.08204.1797h-.08203"/></g><g clip-path="url(#c)"><path fill="#fff" fill-opacity="0" fill-rule="evenodd" d="M144.0039 480.14844V311.67188h71.01173v109.22656l-1.38672 1.73047 1.28515 4.4414-4.33984 3.5625-1.55469.875-2.88281.6875-1.8164-.6875-2.6211-1.33203-1.98828-3.10547-2.44922-4.03906-4.4414.49219-4.4375 2.03906-3.53907 1.50781-.89844.25-4.4375 1.10938-3.76172 3.07812-.67968.4336-4.4375 1.14453-3.21875 2.85937-1.21875.44531-4.4375.76172-3.625 3.23047-.8125 4.28516-.10938.15234-3.0664 4.4414-1.26563 3.0547-2.10547 1.3828 1.72656 4.4375.37891.40235 1.42578 4.03516 3.01563 2.14844 4.4375.91015 4.4375-.63672 4.4375.11329 4.4375-.22657 4.4414-.34375 4.4375-1.53125.59766-.4336 3.83984-1.5703 4.4375-.1797 4.4414-.71874 4.4375-.32422 4.4375-1.0039 1.46485-.64063 2.97266-.65235 4.4414-.27734 4.4375-2.13672 4.4375-.15625 4.4375-1.02344.30079-.1914 4.13672-3.39063 2.05859-1.04687 2.38281-1.39844 3.57031-3.04297.8672-.3711 4.4375-3.08593.96483-.98047-.96484-1-4.4375-2.70312-1.3125-.73438-3.125-2.44531-2.86719-1.99219-1.57422-1.92969-2.07812-2.5078-2.35938-3.8125-2.22656-.62891-2.21094-.50391-1.96484.5039-2.47266.17579-.80859-.17578-3.6289-1.73047V311.67188h44.3828v122.86718l-1.53515 1.40625 1.53516.8789.83203-.8789-.83203-1.40625V311.67187h115.39453v135.41797l-2.07422 2.17188 2.07422 2.08203 2.17578-2.08203-2.17578-2.17188V311.67188h13.3164v145.96484l-.51562.5-3.47656 4.4375 3.99219 3.76172 3.7578-3.76172-1.08984-4.4375-2.66796-.5V311.67187h79.88671v168.65625h-32.15625l-3.34765-3.36718-3.29688 3.36719H144.08594l-.08203-.1797"/></g><path fill="#50fcfc" fill-rule="evenodd" d="M152.4961 458.13672l-1.72657-4.4375 2.10547-1.38281 1.26563-3.0547 3.0664-4.4414.10938-.15234.8125-4.28516 3.625-3.23047 4.4375-.76171 1.21875-.44532 3.21875-2.85937 4.4375-1.14453.67968-.4336 3.76172-3.07812 4.4375-1.10938v2.99219l-4.4375.60547-.72265.58984-3.71875 2.39063-4.4375 1.70703-.38282.33984-4.05468 1.48828-4.4375 1.5625-1.5586 1.38672-2.3164 4.4375-.41407 4.4414-.14843 1.55079-1.27344 2.88672.3711 4.4375.90234 1.44531 2.84765 2.99219 1.58985.6836 2.17968-.6836 2.25782-.32422 4.4375.04688 4.4375-.25782 4.4414-.78906 4.4375-1.28516 3.33594-1.82812 1.10156-.64453 4.4375.23828 4.4414-.98438 4.4375-.93359 4.4375-.65234 4.4375-.58985 4.44142-.75781.17968-.11328 4.10547-4.4375-4.28516-1.22266-3.46875 1.22266-.97265 1.16406-4.4375.47656-4.4375.32032-3.71875-1.96094-.71875-2.51563-.48828-1.92578.48828-.72265 2.14062-3.71485-2.14062-3.02344-.63281-1.41406-3.8086-4.16797-1.71094-.26953-2.72656-.57031-4.4375-.625v-2.99219l.89844-.25 3.53906-1.50781 4.4375-2.03906 4.4414-.49219 2.44923 4.03906 1.98828 3.10547 2.6211 1.33203 1.8164.6875v7.40625l-.5625.78125.5625 2.72656 3.48437-2.72656-3.48437-.78125v-7.40625l2.88281-.6875 1.55469-.875 4.33984-3.5625-1.28515-4.4414 1.38672-1.73047 3.6289 1.73047.8086.17578v3.3711l-.9336.89452.9336.83203v3.13672l-2.76563.46875-.96094 4.4375-.71094 1.54297-3.87109 2.89453 3.8711 4.41797 4.4375-2.52344 4.4375.84375 2.76562 1.69922 1.67188.375.97265-.375 3.46484-1.6875 2.32422-2.75-2.32422-1.28906-3.03515-3.14844-1.40234-1.46094-4.4375-1.9375-2.37891-1.03906-2.0586-.46875v-3.13672l3.88282-.83203-3.88281-.89453v-3.3711l2.47265-.17577 1.96484-.50391 2.21094.5039 2.22656.62891 2.35938 3.8125 2.07813 2.50781 1.57421 1.9297 2.8672 1.99218 3.125 2.44531 1.3125.73438 4.4375 2.70312.96483 1-.96484.98047-4.4375 3.08594-.86719.3711-3.5703 3.04296-2.38282 1.39844-2.0586 1.04687-4.13671 3.39063-.30078.1914-4.4375 1.02344-4.4375.15625-4.4375 2.13672-4.44141.27735-2.97266.65234-1.46484.64062-4.4375 1.00391-4.4375.32422-4.4414.71875-4.4375.17969-3.83985 1.5703-.59766.4336-4.4375 1.53125-4.4414.34375-4.4375.22656-4.4375-.11328-4.4375.63672-4.4375-.91015-3.01563-2.14844-1.42578-4.03516-.3789-.40234"/><path fill="#00e8fc" fill-rule="evenodd" d="M156.41406 458.13672l-.3711-4.4375 1.27345-2.88672.14843-1.55078.41407-4.4414 2.3164-4.4375 1.5586-1.38673 4.4375-1.5625 4.05468-1.48828.38282-.33984 4.4375-1.70703 3.71875-2.39063.72265-.58984v4.96094l-.14844.0664-4.29296 2.6211-4.4375 1-4.4375-.39844-2.48828 1.21484-1.94922.67188-2.92578 3.76562-.00782 4.4414-.26172 4.4375.35547 4.4375 2.83985 2.8672 4.4375-.56641 4.4375-.44531 4.4375-.45313 3.0625-1.40234-1.70703-4.4375 3.08593-.9336 2.03125.9336 2.40625.98437 1.86328-.98437 1.40625-4.4375 1.16797-2.23828.84766-2.20313-.84766-2.71484-3.14844-1.72266-1.28906-.28906-4.34765-4.14844-.08985-.0664v-4.96094l4.4375-.60547 4.4375.625 2.72656.57031 1.71094.26953 3.8086 4.16797.6328 1.41406 2.14063 3.02344-2.14062 3.71485-.48828.72265.48828 1.92578.71875 2.51563 3.71875 1.96094 4.4375-.32032 4.4375-.47656.97266-1.16406 3.46875-1.22266 4.28515 1.22266-4.10547 4.4375-.17969.11328-4.4414.75781-4.4375.58985-4.4375.65234-4.4375.9336-4.4414.98437-4.4375-.23828-1.10157.64453-3.33594 1.82812-4.4375 1.28516-4.4414.78906-4.4375.25781-4.4375-.04687-2.25782.32422-2.17968.6836-1.58985-.6836-2.84765-2.99219-.90235-1.44531"/><path fill="#00d4fc" fill-rule="evenodd" d="M158.91406 458.13672l-.35547-4.4375.26172-4.4375.00781-4.4414 2.92579-3.76563 1.94922-.67188 2.48828-1.21484v3.0586l-4.4375.05468-1.97266 2.53906.39453 4.4414-.04687 4.4375.66406 4.4375.96094.97267 4.4375-.48047 2.58203-.4922 1.85547-1.55858 1.23437-2.87891-1.23437-2.84375-3.50782-1.59375 3.50782-2.875.61328-1.5664-.61328-.53907-4.4375-2.05469v-3.0586l4.4375.39845 4.4375-1 4.29297-2.6211.14843-.0664.08985.0664 4.34765 4.14844 1.28906.28906 3.14844 1.72266.84766 2.71484-.84766 2.20313-1.16797 2.23828-1.40625 4.4375-1.86328.98437-2.40625-.98437-2.03125-.9336-3.08594.9336 1.70704 4.4375-3.0625 1.40234-4.4375.45313-4.4375.44531-4.4375.5664-2.83985-2.86718"/><path fill="#00c4fc" fill-rule="evenodd" d="M160.17578 449.26172l-.39453-4.4414 1.97266-2.53907v1.22656l-1.02344 1.3125.80078 4.4414.16406 4.4375.0586.32032.23047-.32031.41796-4.4375 2.23828-4.4414-2.88671-1.3125v-1.22657l4.4375-.05469 4.4375 2.05469.61328.53906-.61328 1.5664-3.50782 2.875 3.50782 1.59376 1.23437 2.84375-1.23437 2.8789-1.85547 1.5586-2.58203.49219-4.4375.48046-.96094-.97265-.66406-4.4375.04687-4.4375"/><path fill="#00b8fc" fill-rule="evenodd" d="M161.53125 449.26172l-.80078-4.4414 1.02344-1.3125v1.22265l-.07032.08984.07032.36328.19922-.36328-.19922-.08984v-1.22266l2.88672 1.3125-2.23829 4.4414-.41797 4.4375-.23046.32032-.0586-.32031-.16406-4.4375"/><path fill="#00a8fc" fill-rule="evenodd" d="M161.7539 445.1836l-.0703-.36329.0703-.08984.19923.08984-.19922.36328"/><path fill="#fff" fill-opacity="0" fill-rule="evenodd" d="M206.13672 439.60156l-.5625.78125.5625 2.72656 3.48437-2.72656-3.48437-.78125m8.8789-2.11328l-3.87109 2.89453 3.8711 4.41797 4.4375-2.52344 4.4375.84375 2.76562 1.69922 1.67188.375.97265-.375 3.46484-1.6875 2.32422-2.75-2.32422-1.28906-3.03515-3.14844-1.40234-1.46094-4.4375-1.9375-2.37891-1.03906-2.0586-.46875-2.76562.46875-.96094 4.4375-.71094 1.54297"/><path fill="#00e8fc" fill-rule="evenodd" d="M219.45313 427.90234l-.9336-.83203.9336-.89453 3.8828.89453-3.8828.83203"/><path fill="#50fcfc" fill-rule="evenodd" d="M259.39844 436.82422l-1.53516-.8789 1.53516-1.40626.83203 1.40625-.83203.8789m115.39453 14.51954l-2.07422-2.08203 2.07422-2.17188 2.17578 2.17188-2.17578 2.08203m13.3164 14.99219l-3.99218-3.76172 3.47656-4.4375.51563-.5v2.19531l-2.39454 2.74219 2.39454 2.25781 2.2539-2.25781-2.2539-2.74219v-2.19531l2.66796.5 1.08985 4.4375-3.75781 3.76172"/><path fill="#00e8fc" fill-rule="evenodd" d="M388.10938 464.83203l-2.39454-2.25781 2.39454-2.74219 2.2539 2.74219-2.2539 2.25781"/><g clip-path="url(#d)"><path fill="#50fcfc" fill-rule="evenodd" d="M429.19531 480.32813h1.71094l1.58594-1.6172 1.60937 1.6172h1.73828l-3.34765-3.3672-3.29688 3.3672"/></g><g clip-path="url(#e)"><path fill="#00e8fc" fill-rule="evenodd" d="M430.90625 480.32813l1.58594-1.6172 1.60937 1.6172h-3.19531"/></g><g clip-path="url(#f)"><path fill="#fff" fill-opacity="0" fill-rule="evenodd" d="M467.9961 480.32813H468V311.67188h-.0039H468v168.65625h-.0039"/></g><path fill="#fff" fill-opacity="0" fill-rule="evenodd" d="M232.66797 456.42969l4.89062-3.19531-5.4453-8.33985-4.89063 3.19531 5.4453 8.33985"/><path fill-rule="evenodd" d="M231.15625 447.71094l.42578-.27735 3.4414 5.26954-.66015.42968-2.45312-3.75781-1.16407.75781-.30468-.46484.43359-.35938.1836-.18359.14062-.19922.09375-.23047.03125-.26953-.04297-.32422-.125-.39062"/><g clip-path="url(#g)"><path fill="none" stroke="#000" stroke-linecap="round" stroke-linejoin="round" stroke-miterlimit="10" stroke-width=".5" d="M147.51172 480.3789l-7.02344-.10156"/></g><g clip-path="url(#h)"><path fill="none" stroke="#000" stroke-linecap="round" stroke-linejoin="round" stroke-miterlimit="10" stroke-width=".5" d="M147.51172 480.3789l1.1211 2.1836"/></g><g clip-path="url(#i)"><path fill="none" stroke="#000" stroke-linecap="round" stroke-linejoin="round" stroke-miterlimit="10" stroke-width=".5" d="M146.49219 480.36328l.5586 1.09375"/></g><g clip-path="url(#j)"><path fill="none" stroke="#000" stroke-linecap="round" stroke-linejoin="round" stroke-miterlimit="10" stroke-width=".5" d="M160.82031 480.57813l-7.01172-.5"/></g><g clip-path="url(#k)"><path fill="none" stroke="#000" stroke-linecap="round" stroke-linejoin="round" stroke-miterlimit="10" stroke-width=".5" d="M160.82031 480.57813l.9961 2.24218"/></g><g clip-path="url(#l)"><path fill="none" stroke="#000" stroke-linecap="round" stroke-linejoin="round" stroke-miterlimit="10" stroke-width=".5" d="M159.80078 480.5039l.4961 1.1211"/></g><g clip-path="url(#m)"><path fill="none" stroke="#000" stroke-linecap="round" stroke-linejoin="round" stroke-miterlimit="10" stroke-width=".5" d="M174.14063 480.50781l-7.01954-.35937"/></g><g clip-path="url(#n)"><path fill="none" stroke="#000" stroke-linecap="round" stroke-linejoin="round" stroke-miterlimit="10" stroke-width=".5" d="M174.14063 480.50781l1.03906 2.22656"/></g><g clip-path="url(#o)"><path fill="none" stroke="#000" stroke-linecap="round" stroke-linejoin="round" stroke-miterlimit="10" stroke-width=".5" d="M173.11719 480.45703l.51953 1.11328"/></g><g clip-path="url(#p)"><path fill="none" stroke="#000" stroke-linecap="round" stroke-linejoin="round" stroke-miterlimit="10" stroke-width=".5" d="M187.45703 480.41016l-7.02344-.16407"/></g><g clip-path="url(#q)"><path fill="none" stroke="#000" stroke-linecap="round" stroke-linejoin="round" stroke-miterlimit="10" stroke-width=".5" d="M187.45703 480.41016l1.10156 2.1914"/></g><g clip-path="url(#r)"><path fill="none" stroke="#000" stroke-linecap="round" stroke-linejoin="round" stroke-miterlimit="10" stroke-width=".5" d="M186.4375 480.38672l.55078 1.09765"/></g><g clip-path="url(#s)"><path fill="none" stroke="#000" stroke-linecap="round" stroke-linejoin="round" stroke-miterlimit="10" stroke-width=".5" d="M200.77344 480.27344l-7.02735.10937"/></g><g clip-path="url(#t)"><path fill="none" stroke="#000" stroke-linecap="round" stroke-linejoin="round" stroke-miterlimit="10" stroke-width=".5" d="M200.77344 480.27344l1.1836 2.14844"/></g><g clip-path="url(#u)"><path fill="none" stroke="#000" stroke-linecap="round" stroke-linejoin="round" stroke-miterlimit="10" stroke-width=".5" d="M214.08594 480.21094l-7.02344.23828"/></g><g clip-path="url(#v)"><path fill="none" stroke="#000" stroke-linecap="round" stroke-linejoin="round" stroke-miterlimit="10" stroke-width=".5" d="M214.08594 480.21094l1.22656 2.125"/></g><g clip-path="url(#w)"><path fill="none" stroke="#000" stroke-linecap="round" stroke-linejoin="round" stroke-miterlimit="10" stroke-width=".5" d="M213.0664 480.24219l.60938 1.0664"/></g><g clip-path="url(#x)"><path fill="none" stroke="#000" stroke-linecap="round" stroke-linejoin="round" stroke-miterlimit="10" stroke-width=".5" d="M227.40234 480.34766l-7.02734-.03516"/></g><g clip-path="url(#y)"><path fill="none" stroke="#000" stroke-linecap="round" stroke-linejoin="round" stroke-miterlimit="10" stroke-width=".5" d="M227.40234 480.34766l1.14453 2.17187"/></g><g clip-path="url(#z)"><path fill="none" stroke="#000" stroke-linecap="round" stroke-linejoin="round" stroke-miterlimit="10" stroke-width=".5" d="M226.38281 480.33984l.57031 1.08594"/></g><g clip-path="url(#A)"><path fill="none" stroke="#000" stroke-linecap="round" stroke-linejoin="round" stroke-miterlimit="10" stroke-width=".5" d="M240.71094 480.10938l-7.01172.4375"/></g><g clip-path="url(#B)"><path fill="none" stroke="#000" stroke-linecap="round" stroke-linejoin="round" stroke-miterlimit="10" stroke-width=".5" d="M240.71094 480.10938l1.28515 2.08984"/></g><g clip-path="url(#C)"><path fill="none" stroke="#000" stroke-linecap="round" stroke-linejoin="round" stroke-miterlimit="10" stroke-width=".5" d="M239.6914 480.17188l.64454 1.04687"/></g><g clip-path="url(#D)"><path fill="none" stroke="#000" stroke-linecap="round" stroke-linejoin="round" stroke-miterlimit="10" stroke-width=".5" d="M253.99219 479.79297l-6.94531 1.07031"/></g><g clip-path="url(#E)"><path fill="none" stroke="#000" stroke-linecap="round" stroke-linejoin="round" stroke-miterlimit="10" stroke-width=".5" d="M253.99219 479.79297l1.46875 1.96484"/></g><g clip-path="url(#F)"><path fill="none" stroke="#000" stroke-linecap="round" stroke-linejoin="round" stroke-miterlimit="10" stroke-width=".5" d="M252.98438 479.94922l.73437.98437"/></g><g clip-path="url(#G)"><path fill="none" stroke="#000" stroke-linecap="round" stroke-linejoin="round" stroke-miterlimit="10" stroke-width=".5" d="M267.30469 479.78125l-6.9414 1.09766"/></g><g clip-path="url(#H)"><path fill="none" stroke="#000" stroke-linecap="round" stroke-linejoin="round" stroke-miterlimit="10" stroke-width=".5" d="M267.30469 479.78125l1.47656 1.96094"/></g><g clip-path="url(#I)"><path fill="none" stroke="#000" stroke-linecap="round" stroke-linejoin="round" stroke-miterlimit="10" stroke-width=".5" d="M280.66406 480.25781l-7.02734.14063"/></g><g clip-path="url(#J)"><path fill="none" stroke="#000" stroke-linecap="round" stroke-linejoin="round" stroke-miterlimit="10" stroke-width=".5" d="M280.66406 480.25781l1.19531 2.14453"/></g><g clip-path="url(#K)"><path fill="none" stroke="#000" stroke-linecap="round" stroke-linejoin="round" stroke-miterlimit="10" stroke-width=".5" d="M293.97656 480.21484l-7.02344.22657"/></g><g clip-path="url(#L)"><path fill="none" stroke="#000" stroke-linecap="round" stroke-linejoin="round" stroke-miterlimit="10" stroke-width=".5" d="M293.97656 480.21484l1.22266 2.12891"/></g><g clip-path="url(#M)"><path fill="none" stroke="#000" stroke-linecap="round" stroke-linejoin="round" stroke-miterlimit="10" stroke-width=".5" d="M307.28516 480.57422l-7.00782-.48828"/></g><g clip-path="url(#N)"><path fill="none" stroke="#000" stroke-linecap="round" stroke-linejoin="round" stroke-miterlimit="10" stroke-width=".5" d="M306.26563 480.5039l.5 1.1172"/></g><g clip-path="url(#O)"><path fill="none" stroke="#000" stroke-linecap="round" stroke-linejoin="round" stroke-miterlimit="10" stroke-width=".5" d="M320.55469 480.95313l-6.91797-1.2461"/></g><g clip-path="url(#P)"><path fill="none" stroke="#000" stroke-linecap="round" stroke-linejoin="round" stroke-miterlimit="10" stroke-width=".5" d="M319.54688 480.76953l.375 1.16797"/></g><g clip-path="url(#Q)"><path fill="none" stroke="#000" stroke-linecap="round" stroke-linejoin="round" stroke-miterlimit="10" stroke-width=".5" d="M333.8711 480.92969l-6.92188-1.20313"/></g><g clip-path="url(#R)"><path fill="none" stroke="#000" stroke-linecap="round" stroke-linejoin="round" stroke-miterlimit="10" stroke-width=".5" d="M332.86719 480.7539l.3789 1.16798"/></g><g clip-path="url(#S)"><path fill="none" stroke="#000" stroke-linecap="round" stroke-linejoin="round" stroke-miterlimit="10" stroke-width=".5" d="M347.20313 479.82031l-6.95313 1.01953"/></g><g clip-path="url(#T)"><path fill="none" stroke="#000" stroke-linecap="round" stroke-linejoin="round" stroke-miterlimit="10" stroke-width=".5" d="M346.1914 479.96875l.72657.98828"/></g><g clip-path="url(#U)"><path fill="none" stroke="#000" stroke-linecap="round" stroke-linejoin="round" stroke-miterlimit="10" stroke-width=".5" d="M360.50781 479.75l-6.9336 1.16016"/></g><g clip-path="url(#V)"><path fill="none" stroke="#000" stroke-linecap="round" stroke-linejoin="round" stroke-miterlimit="10" stroke-width=".5" d="M359.4961 479.91797l.75.97265"/></g><g clip-path="url(#W)"><path fill="none" stroke="#000" stroke-linecap="round" stroke-linejoin="round" stroke-miterlimit="10" stroke-width=".5" d="M373.78125 479.54688l-6.85156 1.5664"/></g><g clip-path="url(#X)"><path fill="none" stroke="#000" stroke-linecap="round" stroke-linejoin="round" stroke-miterlimit="10" stroke-width=".5" d="M372.78516 479.77344l.80078.92578"/></g><g clip-path="url(#Y)"><path fill="none" stroke="#000" stroke-linecap="round" stroke-linejoin="round" stroke-miterlimit="10" stroke-width=".5" d="M387.17578 480.58203l-7.00781-.5039"/></g><g clip-path="url(#Z)"><path fill="none" stroke="#000" stroke-linecap="round" stroke-linejoin="round" stroke-miterlimit="10" stroke-width=".5" d="M398.6914 483.40234l-3.41015-6.14453"/></g><g clip-path="url(#aa)"><path fill="none" stroke="#000" stroke-linecap="round" stroke-linejoin="round" stroke-miterlimit="10" stroke-width=".5" d="M412.80078 482.79688l-5-4.9375"/></g><g clip-path="url(#ab)"><path fill="none" stroke="#000" stroke-linecap="round" stroke-linejoin="round" stroke-miterlimit="10" stroke-width=".5" d="M427.01563 481.21484l-6.79688-1.77343"/></g><g clip-path="url(#ac)"><path fill="none" stroke="#000" stroke-linecap="round" stroke-linejoin="round" stroke-miterlimit="10" stroke-width=".5" d="M426.02734 480.95703l.28125 1.19531"/></g><g clip-path="url(#ad)"><path fill="none" stroke="#000" stroke-linecap="round" stroke-linejoin="round" stroke-miterlimit="10" stroke-width=".5" d="M440.22656 481.54688l-6.58984-2.4336"/></g><g clip-path="url(#ae)"><path fill="none" stroke="#000" stroke-linecap="round" stroke-linejoin="round" stroke-miterlimit="10" stroke-width=".5" d="M439.26953 481.1914l.16406 1.21485"/></g><g clip-path="url(#af)"><path fill="none" stroke="#000" stroke-linecap="round" stroke-linejoin="round" stroke-miterlimit="10" stroke-width=".5" d="M452.46094 483.05469l-4.42969-5.45313"/></g><g clip-path="url(#ag)"><path fill="none" stroke="#000" stroke-linecap="round" stroke-linejoin="round" stroke-miterlimit="10" stroke-width=".5" d="M464.64063 483.67188l-2.16016-6.6875"/></g><g clip-path="url(#ah)"><path fill="none" stroke="#000" stroke-linecap="round" stroke-linejoin="round" stroke-miterlimit="10" stroke-width=".5" d="M147.51172 467.09766l-7.02344-.16797"/></g><path fill="none" stroke="#000" stroke-linecap="round" stroke-linejoin="round" stroke-miterlimit="10" stroke-width=".5" d="M147.51172 467.09766l1.10156 2.1914m-2.1211-2.21484l.54688 1.09375m13.78516-.97266l-7.01953-.36328m7.01953.36328l1.03906 2.22657m-2.0586-2.27735l.51563 1.10938m13.82031-1.125l-7.02343-.23047m7.02344.23047l1.08203 2.20312m-2.10157-2.23437l.53907 1.10156m13.79687-1.17578l-7.02344-.01953m7.02344.01953l1.14844 2.17187m-2.16797-2.17578l.57031 1.08594m13.73047-1.58594l-6.95703.98828m6.95703-.98828l1.44531 1.98438m-2.45703-1.83985l.72266.99219m13.52734-1.52734l-6.80078 1.76953m6.80078-1.76953l1.66016 1.80859m-2.64844-1.55078l.82813.90625m13.45312-1.2461l-6.75781 1.9336m6.75781-1.9336l1.70313 1.76172m-2.6875-1.48047l.85156.88282m13.44922-1.16016l-6.76172 1.92578m6.76172-1.92578l1.69922 1.76953m-2.6836-1.48828l.85156.88281m13.44532-1.16796l-6.75781 1.93359m6.7578-1.9336l1.70313 1.76954m-2.6875-1.48828l.85156.8828m13.46875-1.08984l-6.79687 1.78516m6.79688-1.78516l1.66406 1.80078m-2.65235-1.54296l.83203.90234m13.47266-1.15234l-6.80078 1.76953m6.80078-1.76953l1.66016 1.80859m-2.64844-1.55078l.82813.90234m13.3828-1.46484l-6.61327 2.3789m6.61328-2.3789l1.8164 1.65234m-2.78125-1.30469l.91016.82422m13.3789-1.14062l-6.6328 2.3164m6.6328-2.3164l1.80079 1.66797m11.46094-1.8086l-6.52735 2.59766m6.52735-2.59766l1.87109 1.58594m11.08594-2.26562l-5.8086 3.95703m4.96094-3.38282l1.08594.57422m12.6875-1.62109l-5.03125 4.90234m5.03125-4.90234l2.33594.7461m10.94921-.78126L354.5586 469.5m4.96875-4.97266l2.34375.71875m9.85938-1.46484l-2.75 6.46484m2.35156-5.52343l1.22266-.10938m9.78515-.85156l2.66407 6.5039m-2.27735-5.55859l.78125-.9414m11.22266 5.9414l4.51172-5.38672m13.02344 5.60547l-3.9297-5.82422m3.35938 4.97657l-.57812 1.08593m15.9961-3.51172l-6.9922.72266m5.97266-.61719l.6836 1.01953m13.29296.82032l-6.27734-3.16797m5.36328 2.70703l.02734 1.22656m13.25391.39453l-4.38281-5.48828m3.7461 4.6914l-.48829 1.125m13.03906.35157l-1.58203-6.84766m1.35156 5.85157l-.92578.80468"/><g clip-path="url(#ai)"><path fill="none" stroke="#000" stroke-linecap="round" stroke-linejoin="round" stroke-miterlimit="10" stroke-width=".5" d="M147.51172 453.7461l-7.02344-.09376"/></g><path fill="none" stroke="#000" stroke-linecap="round" stroke-linejoin="round" stroke-miterlimit="10" stroke-width=".5" d="M147.51172 453.7461l1.125 2.17968m12.1836-1.96875l-7.00782-.51562m7.00781.51562l.98828 2.24219m12.32813-2.29297l-7.01563-.41797m5.9961.35938l.51172 1.11328m13.82812-1.26172h-7.02344m6.00391 0l.57422 1.08203m13.59375-2.16016l-6.6875 2.15625m5.71484-1.84375l.8789.85547m13.32423-1.39453l-6.52344 2.60938m5.57422-2.23047l.9375.79297m13.35156-1.11328l-6.57031 2.49218m5.61328-2.1289l.92188.80859m12.95312-1.92578l-5.77734 3.9961m5.77734-3.9961l2.17969 1.1289m11.05469-1.24218l-5.61329 4.22656m5.61328-4.22656l2.22266 1.03906m-3.03906-.42578l1.10937.51953m12.9297-1.2461l-5.4336 4.45313m5.4336-4.45312l2.26562.9414m-3.0547-.29297l1.13282.46875m13.23047-.7578l-5.94922 3.73437m5.94922-3.73438l2.1289 1.22266m-2.99218-.67969l1.0625.60938m13.17187-1.0625l-6.0625 3.55468m6.0625-3.55468l2.08985 1.28515m-2.97266-.76953l1.04688.64453m13.07422-1.28906l-5.90625 3.8086m5.90625-3.8086l2.14062 1.19922m-3-.64453l1.07031.59765m12.89844-1.4375l-5.49219 4.38282m5.49219-4.38282l2.25.97266m-3.05078-.33594l1.125.48828m13.13281-.9336l-5.78125 3.9961m5.78125-3.9961l2.17969 1.12892m-3.01953-.54688l1.08984.5625m13.10547-1.08594l-5.85937 3.8789m5.85937-3.8789l2.15625 1.17188m-3.00781-.60547l1.07812.58594m12.94532-1.35157l-5.57422 4.28125m5.57422-4.28125l2.23437 1.01563m-3.04687-.39063l1.11718.50782m12.7539-1.4297l-5.0625 4.875m5.0625-4.875l2.33204.76173m-3.0664-.05469l1.16406.38281m10.29297-2.16406l.125 7.02344m-.125-7.02344l2.14453-1.1914m8.55859 2.42578l5.34766 4.55468m-4.57032-3.89453l.26563-1.19531m11.9375 4.6289l6.01562-3.6328m-5.14062 3.10546l-1.05078-.6289M420.25 452.6875l6.73047 2.01953m-5.75-1.72265l-.24219-1.20313m19.41406 2.46094l-6.9414-1.08985m13.4336-.5l6.70702 2.09375m11.64453 2.03516l-3.36718-6.16797m2.875 5.27344l-.67188 1.02344"/><g clip-path="url(#aj)"><path fill="none" stroke="#000" stroke-linecap="round" stroke-linejoin="round" stroke-miterlimit="10" stroke-width=".5" d="M147.4961 440.02734l-6.9922.71485"/></g><path fill="none" stroke="#000" stroke-linecap="round" stroke-linejoin="round" stroke-miterlimit="10" stroke-width=".5" d="M147.4961 440.02734l1.36718 2.03516m11.84766-2.57813l-6.79297 1.79688m6.79297-1.79688l1.66797 1.80079m11.74218-1.29297l-6.98437.78515m5.96875-.67187l.69531 1.01172m13.64844-1.01563l-7.00781.5664m7.0078-.5664l1.32032 2.0664m11.96875-2.28124l-6.95703.99219m6.95703-.9922l1.44531 1.98048M214 439.59375l-6.84766 1.57813M214 439.59375l1.60938 1.85156m11.5625-2.32031l-6.5625 2.51563m6.5625-2.51563l1.85156 1.61328m11.5039-1.4961l-6.64453 2.28126m5.67969-1.94922l.89453.83594m12.83984-2.1797l-5.55468 4.3047m5.55469-4.3047l2.23828 1.00782m11.01953-1.08203l-5.4375 4.45313m5.4375-4.45313l2.26172.94922m11.11718-.86719l-5.5625 4.29297m5.5625-4.29297l2.23438 1.00781m-3.04688-.38671l1.1211.5078m13.05078-1.0664l-5.65625 4.16797m5.65625-4.16797l2.21484 1.0586m10.96485-1.23438l-5.38282 4.51563m5.38282-4.51563l2.27734.92188m-3.0586-.26172l1.13673.45703m12.89453-1.19531l-5.25 4.67187m5.25-4.67187l2.30078.85546m-3.0664-.17578l2.30077.85547m11.8164-1.48828l-5.32812 4.58203m5.32813-4.58203l2.28516.89063m-3.0586-.22657l1.14063.44532m12.73828-1.33204l-4.90625 5.02735m4.90625-5.02735l2.35547.6875m-3.07032.04297l1.1797.34375m12.66796-1.24218l-4.54297 5.36328m4.54297-5.36328l2.39844.51953m-3.0586.26172l1.19922.2578m11.79297-1.6289l-2.57812 6.53906m2.57812-6.53906l2.4375-.27344m-2.8125 1.22657l1.21875-.13672m11.32031-1.0586l-.27343 7.02344m.27343-7.02344l2.21094-1.0664m8.5625 2.01562l4.8086 5.125m-4.8086-5.125l.78906-2.32031m12.19141 7.08203l5.48047-4.39844m-5.48047 4.39844l-2.25781-.96875m15.04687.0664l6.53125-2.58984m-5.58203 2.21094l-.9336-.79297m15.33204-3.41406l2.46484 6.57813m-2.10547-5.6211l.8086-.91797m15.44922 6.08985l-4.13672-5.6797m3.53515 4.85548l-.53906 1.10156m15.7539-2.11719l-6.73827-2m5.7578 1.71094l.2461 1.19922"/><g clip-path="url(#ak)"><path fill="none" stroke="#000" stroke-linecap="round" stroke-linejoin="round" stroke-miterlimit="10" stroke-width=".5" d="M147.45313 426.41797l-6.90625 1.30078"/></g><path fill="none" stroke="#000" stroke-linecap="round" stroke-linejoin="round" stroke-miterlimit="10" stroke-width=".5" d="M147.45313 426.41797l1.53125 1.91797m11.62109-2.4961l-6.58203 2.45703m6.58203-2.45703l1.83984 1.625m11.58985-1.26172l-6.8086 1.73047m6.8086-1.73047l1.64843 1.81641m11.69141-1.71875l-6.85938 1.53516m6.85938-1.53516l1.59766 1.85938m11.70312-1.91797l-6.83203 1.65234m6.83203-1.65234l1.6289 1.83594m11.6211-2.06641l-6.69922 2.11328m5.72266-1.8086l.8789.86329M227.10156 428.5l-6.42187-2.86328m5.48437 2.44531l.08594 1.22266m14.46875-2.16016l-7.02734-.15234m6.0039.1289l.55469 1.09766m13.53906-2.4414l-6.53515 2.58203m5.58203-2.20704l.9336.79688m12.97265-1.85547l-5.8125 3.94922m5.8125-3.94922l2.17187 1.14453m10.82031-1.55078l-5.16796 4.76172m5.16797-4.76172l2.3164.8164m10.80078-1.01562l-4.77343 5.16016m4.77343-5.16016l2.375.6289m11.51563.0586l-5.92188 3.78516m5.92188-3.78516l2.13672 1.20703m-3-.65625l1.0703.60157m12.98048-1.33985l-5.66797 4.16016m5.66797-4.16016l2.21094 1.0664m-3.03516-.46093l1.10547.53516m12.85937-1.35938l-5.3164 4.59766m5.3164-4.59766l2.28516.88672m-3.0586-.21875l1.14454.44531m12.6289-1.4336l-4.6875 5.23829m4.6875-5.23828l2.38282.58594m-3.06641.17578l1.1914.29297m12.69532-1.14844l-4.46485 5.42578m4.46485-5.42578l2.40625.48828m-3.05469.30078l2.40234.48828m11.4961-1.33203l-4.33203 5.53516m4.33203-5.53516l2.41406.42969m-3.04687.375l2.41796.42969m11.27735-1.41407l-3.82813 5.89454m3.82813-5.89454l2.4414.21485m-3 .64453l1.22266.10547m13.6289-.00781l-5.78515 3.98437m5.78516-3.98437l2.17968 1.1289m-3.01953-.55078l2.17578 1.13281m-3.01953-.55469l2.17969 1.13282m-3.01953-.55078l1.08594.5664m14.64453-2.45312l-5.57031 4.28125m5.5703-4.28125l2.23438 1.01562m-3.04297-.39453l2.23438 1.01563m-3.04688-.39453l1.1172.51171m13.3203-2.28125l-4.57421 5.33203m4.57421-5.33203l2.39454.53516m10.7539-.67188l-4.23828 5.60547m4.23828-5.60547l2.42188.39063m12.2578 2.8789l-6.96483-.93359m6.96484.9336l.85156 2.30078m-1.86719-2.4336l.42579 1.14844m13.79687-.50781l-6.75-1.94922m6.75 1.94922l.50781 2.39844m-1.48828-2.6836l.5039 2.40235"/><g clip-path="url(#al)"><path fill="none" stroke="#000" stroke-linecap="round" stroke-linejoin="round" stroke-miterlimit="10" stroke-width=".5" d="M147.5039 413.48828l-7.0078.52735"/></g><path fill="none" stroke="#000" stroke-linecap="round" stroke-linejoin="round" stroke-miterlimit="10" stroke-width=".5" d="M147.5039 413.48828l1.3125 2.07422m11.83985-2.89453l-6.6836 2.16797m6.6836-2.16797l1.76563 1.70703m11.36718-2.15625l-6.32031 3.07031m5.40234-2.625l.9922.72266m13.40624-.77344l-6.64844 2.28125m5.6797-1.94922l.89843.83594m12.16406-2.84375l-4.20703 5.63281m3.59375-4.8125l1.21484.1875m9.5547-1.54297l2.10937 6.70313m-1.80078-5.72656l.85937-.875m9.71875 3.6953l6.96875-.89062m10.26563 3.9297l-.8711-6.97267m16.98828 2.1172l-6.47265 2.73827m5.53125-2.33984l.94922.77344m12.82421-1.98438l-5.5078 4.36328m4.70702-3.72656l1.125.49219m13.0586-1.03906l-5.64454 4.18359m5.64454-4.1836l2.21484 1.0547m10.57031-1.625l-4.58203 5.32812m4.58203-5.32813l2.39453.53907m10.91797-.53907l-4.57812 5.32813m4.57812-5.32813l2.39453.53907m11.42188-.01172l-5.58203 4.26953m5.58203-4.26953l2.23047 1.02344m-3.04297-.40235l1.11719.51172m12.66406-1.52344l-4.88672 5.05078m4.88672-5.05078l2.35547.67969m-3.0664.05469l1.17577.33984m12.54688-1.33203l-4.28516 5.57031m4.28516-5.57031l2.42187.40625m-3.04297.40234l1.20703.20703m13.45704-.2578l-5.73829 4.05468m5.73829-4.05469l2.1914 1.10156m-3.02734-.51171l1.09765.55078m13.26172-.8086l-6.15625 3.39063m6.15625-3.39063l2.0547 1.33985m-2.94923-.84766l2.05469 1.33984m-2.95313-.84765l1.02735.67187m14.03515-1.73828l-6.0625 3.55469m6.0625-3.55469l2.08985 1.28516m-2.97266-.76953l2.08985 1.28515m-2.97266-.76562l2.08984 1.28515m13.05078-2.21484l-6.18359 3.34375m6.1836-3.34375l2.04296 1.35938m-2.9414-.8711l2.04297 1.35547m-2.94532-.8711l2.04297 1.35938m-2.9414-.8711l1.02343.67579m14.92578-2.25l-6.05468 3.5664m6.05468-3.5664l2.09375 1.28125m-2.97265-.76172l2.08984 1.28125m-2.97265-.76172l2.09375 1.28125m-2.97266-.76172l1.04297.64063m15.25781-1.40625l-6.74219 1.98047m6.7422-1.98047l1.71483 1.7539m-2.6953-1.46484l1.71484 1.7539m-2.69532-1.46484l1.71485 1.75391m13.66797-1.83203l-6.95704.98047m6.95704-.98047l1.4453 1.98437m-2.45702-1.83984l1.4414 1.98438m-2.45312-1.84375l1.4414 1.98437m13.89454-2.29297l-6.95313 1.03125m6.95313-1.03125l1.45703 1.97266m-2.46875-1.82422l1.45703 1.97266m-2.46875-1.82032l.73047.98438m14.51953-1.70313l-6.77344 1.86719"/><g clip-path="url(#am)"><path fill="none" stroke="#000" stroke-linecap="round" stroke-linejoin="round" stroke-miterlimit="10" stroke-width=".5" d="M466.94922 412.82031l1.6875 1.78125"/></g><path fill="none" stroke="#000" stroke-linecap="round" stroke-linejoin="round" stroke-miterlimit="10" stroke-width=".5" d="M465.96484 413.08984l1.6836 1.78125"/><g clip-path="url(#an)"><path fill="none" stroke="#000" stroke-linecap="round" stroke-linejoin="round" stroke-miterlimit="10" stroke-width=".5" d="M147.47656 399.9375l-6.95312 1"/></g><path fill="none" stroke="#000" stroke-linecap="round" stroke-linejoin="round" stroke-miterlimit="10" stroke-width=".5" d="M147.47656 399.9375l1.44922 1.98438m11.89453-1.72266l-7.01172.47656m7.01172-.47656l1.29688 2.08203m-2.3164-2.01172l.64843 1.03906m13.21484-2.64453l-6.0664 3.54688m6.0664-3.54688l2.08594 1.28906m9.54297-2.7578l-2.69531 6.48827m2.30468-5.54687l1.21875-.11328m9.63672-.76172l3.0039 6.35156m-2.5664-5.42578l.73438-.98438m12.3711-.03906l2.55077 6.54688m-2.17969-5.59375l.80079-.92969m14.26172-.16016l-1.6875 6.82032m1.4414-5.82813l1.1914-.29687m14.44532.7578l-5.83594 3.91407m19.52735-3.16797l-6.59375 2.42578m5.63672-2.07421l.91406.8164m10.84765-3.3789l-1.5703 6.84765m1.34374-5.85156l1.1836-.32031m14.94921 1.77734l-6.7539 1.9375m5.77343-1.65625l.85157.88281m12.53906-2.6914l-4.94531 4.99218m4.22656-4.26562l1.17578.35156m12.125-1.63281l-3.48047 6.10547m2.97656-5.21875l1.22657.03906m14.30468 1.46484l-6.90234 1.32422m6.90234-1.32422l1.53907 1.91016m10.82422-3.71875l-4.9961 4.9414m4.9961-4.9414l2.33984.73047m10.7539-.9375l-4.55468 5.35156m4.55469-5.35156l2.39843.53125m12.15235 2.0625l-7.02735.16406m6.00391-.14062l.60156 1.0703m13.54688-2.14843l-6.64844 2.27735m6.64844-2.27735l1.79297 1.67578m-2.75782-1.34375l.89453.83594m12.72266-2.32422l-5.32422 4.58594m5.32422-4.58594l2.28906.89063m-3.0625-.22266l2.28516.89063m12.4375-.48047l-6.58984 2.42968m6.58984-2.42968l1.83203 1.6328m-2.78906-1.27733l1.82812 1.6328m12.4375-2.01562l-6.57422 2.48438m6.57422-2.48438l1.83985 1.6211m-2.79688-1.25782l1.84375 1.6172m-2.80078-1.25782l.92188.8125m14.16406-1.85547l-6.28906 3.1289m6.28906-3.1289l1.9961 1.42578m-2.91016-.97265l1.99609 1.42578m-2.91406-.96875l2 1.42578m13.35937-1.8086l-6.71484 2.07422m6.71484-2.07422l1.73828 1.73047m-2.71484-1.42969l1.73828 1.73047m-2.71484-1.42968l.86718.86718m14.3672-1.5703l-6.64845 2.27733m6.64844-2.27734l1.79297 1.67578m-2.76172-1.34375l1.79297 1.67578m-2.75781-1.34765l.89453.83984m14.33594-1.55078l-6.61328 2.375"/><g clip-path="url(#ao)"><path fill="none" stroke="#000" stroke-linecap="round" stroke-linejoin="round" stroke-miterlimit="10" stroke-width=".5" d="M466.86719 399.25l1.8164 1.64844"/></g><path fill="none" stroke="#000" stroke-linecap="round" stroke-linejoin="round" stroke-miterlimit="10" stroke-width=".5" d="M465.90625 399.59766l1.8164 1.64843m-2.77734-1.30468l.90625.82421"/><g clip-path="url(#ap)"><path fill="none" stroke="#000" stroke-linecap="round" stroke-linejoin="round" stroke-miterlimit="10" stroke-width=".5" d="M147.5 386.83984l-7 .57032"/></g><path fill="none" stroke="#000" stroke-linecap="round" stroke-linejoin="round" stroke-miterlimit="10" stroke-width=".5" d="M147.5 386.83984l1.32422 2.0625m11.94531-2.42187l-6.91016 1.28515m6.91016-1.28515l1.52734 1.92187m11.3086-3.14453l-5.95313 3.73047m5.95313-3.73047l2.1289 1.22266m10.98438-1.51172l-5.54688 4.3125m5.54688-4.3125l2.23828 1.0039m9.6289-2.10546l-2.64843 6.51172m2.26172-5.5625l1.21875-.125m8.32031.35546l5.67188 4.15235m-4.84375-3.54688l.17187-1.21484m18.66406 2.67188l-7.02734.02734m6.00781-.02344l.57813 1.07813m13.7461-.78125l-7.00392-.57422m7.00391.57422l.96875 2.2539m-1.98828-2.33594l.48438 1.125m13.80078-1.98828l-6.90235 1.32032m6.90235-1.32032l1.53906 1.91016m-2.54297-1.71875l.76953.95313m13.55078-1.14063l-6.90625 1.3086m6.90625-1.3086l1.53516 1.91406m11.76953-.5664l-6.88672-1.38672m6.88672 1.38672l.70313 2.35156m12.6289-3.65625l-6.91797 1.22265m6.91797-1.22265l1.51172 1.9336m-2.51953-1.75391l.75781.96484m13.61719-.67578l-7.02344.28515m7.02344-.28515l1.23828 2.1211m-2.26172-2.07813l.6211 1.0586m13.5703-1.97267l-6.73046 2.03125m6.73047-2.03125l1.72656 1.73829m11.50781-1.97266l-6.57031 2.4961m5.61328-2.13282l.92578.8086m12.97266-1.89063l-5.82031 3.9336m4.97265-3.35938l1.08594.57422m13.0625-1.17188l-5.79297 3.98047m5.79297-3.98047l2.17578 1.13281m11.6211-.10546l-6.75782 1.92578m6.75781-1.92578l1.70313 1.76953m-2.6836-1.48828l.84766.8828m13.0039-2.1328l-5.86718 3.86718m5.86719-3.86718l2.15234 1.17187m11.10156-1.26562l-5.74609 4.05078m5.7461-4.05078l2.1875 1.10546m-3.02344-.51562l1.09375.55469m13.25-.83594l-6.1289 3.4375m6.1289-3.4375l2.0625 1.32422m-2.95703-.82422l2.0664 1.32422m11.92188-2.17188l-5.6875 4.12891m5.6875-4.1289l2.20312 1.07812m-3.03125-.47656l2.20313 1.07812m11.97656-1.625l-5.76172 4.01953m5.76172-4.01953l2.1836 1.11719m-3.01954-.53125l2.1836 1.11719m12.43359-.76563l-6.6914 2.14453m6.6914-2.14453l1.75781 1.71094m-2.73437-1.39844l1.76172 1.71094m12.5625-1.91016l-6.75782 1.91797"/><g clip-path="url(#aq)"><path fill="none" stroke="#000" stroke-linecap="round" stroke-linejoin="round" stroke-miterlimit="10" stroke-width=".5" d="M466.9414 386.16406l1.69923 1.76953"/></g><path fill="none" stroke="#000" stroke-linecap="round" stroke-linejoin="round" stroke-miterlimit="10" stroke-width=".5" d="M465.95703 386.4414l.85156.88673"/><g clip-path="url(#ar)"><path fill="none" stroke="#000" stroke-linecap="round" stroke-linejoin="round" stroke-miterlimit="10" stroke-width=".5" d="M140.4961 374.08984l7.0078-.5625"/></g><path fill="none" stroke="#000" stroke-linecap="round" stroke-linejoin="round" stroke-miterlimit="10" stroke-width=".5" d="M159.64844 376.4375l-4.66406-5.25781m18.79296 1.0625l-6.29297 3.13281m5.375-2.67578l1 .71094m13.06641-1.46094l-5.96484 3.71484m5.96484-3.71484l2.125 1.23047m11.4375-.75781l-6.45703 2.77343m6.45703-2.77344l1.91406 1.53516m11.6875-.08203l-7.02734-.13281m7.02734.13281l1.10938 2.1875m11.27344.1289l-5.16407-4.76562m5.16407 4.76563l-.625 2.375m14.20703-2.70313l-5.69922-4.10937m5.69922 4.10937l-.32813 2.42969m14.17188-3.51172l-6.7539-1.94531m6.7539 1.94531l.5039 2.40234m12.94141-3.54687l-7.01563.33984m7.01563-.33984l1.25781 2.10937m12.03125-1.46875l-6.96484-.9375m6.96484.9375l.85156 2.30079m12.48047-2.4375l-6.99609-.66407m5.97656.5664l.47266 1.13282m13.83203-1.92187l-6.9375 1.10546m6.9375-1.10546l1.48047 1.96093m11.8789-1.40625h-7.02734m7.02734 0l1.15235 2.16797m12.15625-2.3789l-7.01563.42187m7.01563-.42187l1.28125 2.09375m11.85547-.76172l-6.66016-2.24219m6.66016 2.24219l.40234 2.42187m13.08594-3.84375l-7.0039.60156m7.0039-.60156l1.33203 2.0625m11.95312-1.21875l-6.9453-1.08594m6.9453 1.08594l.8047 2.3164m12.4414-3.73437l-6.80469 1.75m6.80469-1.75l1.65625 1.8125m11.07812-3.03125l-5.64453 4.1875m5.64453-4.1875l2.21485 1.0547m10.85156-1.35157l-5.14844 4.78125m5.14844-4.78125l2.32031.80078m-3.07031-.10547l1.16016.39844m13.03515-.94531l-5.41015 4.48437m5.41015-4.48437l2.26953.93359m-3.05468-.28125l1.1328.46484m12.59766-1.5l-4.66796 5.25m4.66796-5.25l2.38282.57813m-3.0625.1836l1.1914.28906m13.26563-.55079l-5.59375 4.25m5.59375-4.25l2.23047 1.02735m-3.04297-.41016l1.11328.51563m13.57812-.03125l-6.72265 2.04687"/><g clip-path="url(#as)"><path fill="none" stroke="#000" stroke-linecap="round" stroke-linejoin="round" stroke-miterlimit="10" stroke-width=".5" d="M466.92188 372.78516l1.73437 1.73828"/></g><path fill="none" stroke="#000" stroke-linecap="round" stroke-linejoin="round" stroke-miterlimit="10" stroke-width=".5" d="M465.94531 373.08203l.86719.8711"/><g clip-path="url(#at)"><path fill="none" stroke="#000" stroke-linecap="round" stroke-linejoin="round" stroke-miterlimit="10" stroke-width=".5" d="M142.26563 363.54688l3.46875-6.10938"/></g><path fill="none" stroke="#000" stroke-linecap="round" stroke-linejoin="round" stroke-miterlimit="10" stroke-width=".5" d="M154.75781 362.90625l5.11328-4.82422m-4.36718 4.1211l-1.16407-.39454m13.27735.4922l6.02734-3.61329m-5.15234 3.08594l-1.05078-.63281m16.5664-4.16016l-.125 7.02734m16.09375-5.74219l-5.4336 4.45704m4.64454-3.8086l1.13281.46875m13.7539.80078l-7 .6211m5.98438-.53125l.66797 1.02734m13.09766 1.125l-5.86719-3.86328m5.86719 3.86328l-.22656 2.4414m12.5625-1.45312l-3.91016-5.83984m3.33984 4.98828l-.57812 1.08203m13.46484.23047l-1.91015-6.76172m1.6328 5.77735l-.88671.84765m16.54297-1.44531l-6.03906-3.59766m5.16015 3.07422l-.0625 1.22266m14.46875-1.125l-6.46484-2.75m5.52734 2.35156l.10547 1.22266m14.29688-1.25l-6.76563-1.89844m6.76563 1.89844l.52734 2.39843m12.53516-1.74609l-6.25782-3.20313M306 361.62892l.01562 1.22656m14.52344-1.65625l-6.88672-1.41016m5.88282 1.20313l.34765 1.17969M332.22656 363.5l-3.6289-6.01563m3.10156 5.14063l-.63281 1.05469m15.21484-.77735l-5.11328-4.8203m4.3711 4.12108l-.32423 1.1836m15.03907-1.47266l-6.42579-2.84375m5.4922 2.42969l.08593 1.22656m14.08203-.64062l-6.26562-3.1836m5.35546 2.71875l.02344 1.22657m14.54297-1.83594l-6.94922-1.03906m5.9414.89062l.40626 1.15625m13.67578-2.89844l-6.46484 2.7461m5.52734-2.34766l.95312.77344m12.44922-2.38281l-4.76562 5.16406m4.76562-5.16406l2.375.625m10.32032-1.08204l-3.52344 6.07813m3.52344-6.07813l2.45312.08985m10.61328-.22266l-3.02734 6.34375m3.02734-6.34375l2.44922-.10547m10.46484-.05468l-2.22265 6.66796m2.22265-6.66796l2.41797-.40625m11.76172.83593l-3.95312 5.8086"/><g clip-path="url(#au)"><path fill="none" stroke="#000" stroke-linecap="round" stroke-linejoin="round" stroke-miterlimit="10" stroke-width=".5" d="M465.53906 357.58984l2.4375.26563"/></g><g clip-path="url(#av)"><path fill="none" stroke="#000" stroke-linecap="round" stroke-linejoin="round" stroke-miterlimit="10" stroke-width=".5" d="M140.48828 347.22656l7.02344-.09375"/></g><path fill="none" stroke="#000" stroke-linecap="round" stroke-linejoin="round" stroke-miterlimit="10" stroke-width=".5" d="M154.65234 349.46875l5.32422-4.58203m-4.55078 3.91797l-1.14062-.44531m14.67578 1.91015l3.33984-6.1836m-2.85547 5.28516l-1.22656-.0078m12.77344-.28126l5.90625-3.8086m-5.90625 3.8086l-2.14063-1.19531m15.04688.3125l6.72265-2.04297m-6.72265 2.04297l-1.73047-1.73828m14.96094.03906l6.89453 1.35938m-5.89063-1.16407l-.35547-1.17187m17.13672 1.65625l-.01953-.19922-.0586-.19531-.09374-.17579-.46094-.375-.1914-.05859-.19923-.01953-.19921.01953-.19141.0586-.46094.375-.09375.17578-.0586.1953-.01952.19923.01953.19922.0586.1914.09374.17578.46094.375.1914.0586.19923.01953.19921-.01953.19141-.0586.46094-.375.09375-.17578.0586-.1914.01952-.19922m13.44922 3.3164l-2.3125-6.63671m11.97266 5.78906l4.99219-4.9414m-4.26563 4.22265l-1.17188-.36328m12.75-1.57422l7.01563.3711m-5.9961-.31642l-.51562-1.11328m12.92969.31641l6.77734 1.85547m-6.77734-1.85547l-.53906-2.39453m13.7539 3.72265l6.98047-.80078m-5.96484.6836l-.69531-1.00781m15.15625 3.98046l2.65234-6.5078m-2.26563 5.55858l-1.21875.125m14.77735 1.01172l1.39453-6.88671m-1.1914 5.88671l-1.17579.34766m14.15235.6211l1.66796-6.82423m-1.42578 5.83204l-1.1875.30468m13.10547.17579l3.97266-5.79688m-3.39453 4.95313l-1.21875-.13672m15.33984 1.54296l1.20703-6.92187m-1.03125 5.91406l-1.16797.3789m16.32032.38673l-2.81641-6.4375m2.40625 5.5l-.76172.96094M386.5 349.26171l-5.65625-4.16797m4.83203 3.5625l-.17969 1.21484m14.97657-2.26171l-6.97266-.86329m5.95703.73829l.4414 1.14453m13.06641-3.7422l-5.32421 4.58204m4.54687-3.91406l1.14453.4414m11.9961-1.88671l-3.42579 6.13671m3.42579-6.13671l2.45312.05078m10.28125-.3086l-2.26172 6.65235m2.26172-6.65235l2.42188-.39453m10.92187.40235l-2.32031 6.63671m1.98047-5.66796l1.21484-.1875m13.78906.07421l-5.01562 4.92579m4.28515-4.20704l1.16797.3672"/><g clip-path="url(#aw)"><path fill="none" stroke="#000" stroke-linecap="round" stroke-linejoin="round" stroke-miterlimit="10" stroke-width=".5" d="M143.11328 330.46484l1.77344 6.79688"/></g><path fill="none" stroke="#000" stroke-linecap="round" stroke-linejoin="round" stroke-miterlimit="10" stroke-width=".5" d="M155.21875 336.6836l4.1914-5.64063m-3.58202 4.82031l-1.21094-.1836m14.01562 1.07423l3.9961-5.78125m-3.41407 4.9414l-1.21875-.14453m13.20313.28516l5.49219-4.38281m-5.4922 4.3828l-2.2539-.97656m15.00781-.03515l6.6172-2.36328m-6.6172 2.36328l-1.8164-1.65235m15.1836 1.79688l6.5078-2.65234m-5.55859 2.26953l-.9414-.78516m13.07812-.59765l6.96875.8828m-5.95703-.7539l-.4336-1.14844m12.96875.12891l6.50391 2.66406m-5.55469-2.27734l-.125-1.22266M247.1875 332.75l6.66797 2.22266m-5.69922-1.89844l-.20313-1.20703m12.39454 1.58594l6.97656.8203m-5.96094-.70312l-.44531-1.14062m12.71875 1.45703l7.02734-.04688m-7.02734.04688l-1.16406-2.16016m14.5039 2.54297l6.98047-.8125m-6.98047.8125l-1.39453-2.01562m14.90625 2.83593l6.58594-2.45312m-6.58594 2.45312l-1.83594-1.6289m16.31641 3.19531l4.25781-5.58984m-3.64062 4.77734l-1.21094-.19531m17.08203 1.57031l-2.09375-6.71094m1.78906 5.73438l-.86328.8711m12.28907.0703l2.29687-6.64062m-2.29687 6.64062l-2.42188.38282m15.26953-.58204l3.23047-6.24218m-3.23047 6.24219l-2.45312.02734M371 337.3164l-1.28516-6.90625M371 337.3164l-1.91797 1.53125m16.80078-2.25391l-4.42187-5.46094m4.42187 5.46094l-.95703 2.25781m14.625-2.58594l-5.1289-4.80468m4.3828 4.10547l-.3203 1.18359m15.20312-3.8164l-6.77344 1.85937m5.78907-1.58985l.84375.89063m13.40234-1.34766l-6.66406 2.23438m5.6953-1.91016l.88673.84766m13.25-1.53906l-6.3711 2.96875m6.3711-2.96875l1.95703 1.47265m11.4961-1.125l-6.64844 2.26953m6.64843-2.26953l1.79297 1.67969m11.57422-1.51953l-6.75 1.95312"/><g clip-path="url(#ax)"><path fill="none" stroke="#000" stroke-linecap="round" stroke-linejoin="round" stroke-miterlimit="10" stroke-width=".5" d="M466.9375 332.88672l1.70703 1.76172"/></g><g clip-path="url(#ay)"><path fill="none" stroke="#000" stroke-linecap="round" stroke-linejoin="round" stroke-miterlimit="10" stroke-width=".5" d="M145.28516 317.27734l-2.57032 6.53907"/></g><path fill="none" stroke="#000" stroke-linecap="round" stroke-linejoin="round" stroke-miterlimit="10" stroke-width=".5" d="M144.91016 318.23047l1.21875-.14063m12.52734 5.70313l-2.6836-6.49219m14.8125 6.75781l-.30859-7.01953m.26172 5.9961l-1.05469.625m13.23828.25l2.04297-6.72266m-1.74218 5.74219l-1.20703.23828m13.74218.55469l3.0039-6.35157m-2.5664 5.4297l-1.22656.05858m17.10156.8672l-2.99219-6.35548m2.5586 5.4297l-.73438.98437m16.35938-2.2422l-6.74219-1.98827m5.76172 1.69922l.2461 1.19921m14.10937-2.65234l-6.86328 1.4961m5.86719-1.27735l.79296.9336m13.05078-2.28907l-5.92968 3.76953m5.07031-3.22265l1.0664.60547m11.9336-2.29297l-3.57813 6.04687m3.0586-5.16406l1.22656.05469m10.75-1.42578l.14063 7.02734m-.1211-6.0039l1.07031-.59766m10.76563-.07813l3.0586 6.32813m-2.61329-5.40625l.72266-.98828m10.33594 2.13671l6.67578 2.19141m-5.70313-1.875l-.21094-1.20703m13.19532 4.23828l5.39453-4.50781m-4.60938 3.85156l-1.13672-.46094m16.89844 2.33594l-1.07031-6.94531m.91406 5.9375l-.98437.73047m13.38281.27734l1.07422-6.94531m-1.07422 6.94531l-2.3164.8086m2.47265-1.81641l-1.15625.40234m13.5.375l2.70703-6.48437m-2.70703 6.48437l-2.4414.23047m2.83593-1.17187l-1.22266.11328m13.8047.66797l3.3828-6.16016m-3.3828 6.16016l-2.45313-.03516m17.67968.46094l-.4375-7.01172m.4375 7.01172l-2.08984 1.28515m15.6289-1.30859l-.88671-6.96875m.75781 5.95703l-1 .70703m16.1836-.42578l-4.3672-5.5039m3.73438 4.70312l-.49219 1.125m14.73047-.58203l-4.9453-4.99219m4.22655 4.26563l-.36328 1.17187m15.42578-3.24219l-7.0039.60157m5.98437-.51172l.66406 1.03125m13.66407-1.15625l-6.99219.67578m6.99219-.67578l1.35547 2.04297m11.85546-2.6211l-6.78515 1.82813"/><g clip-path="url(#az)"><path fill="none" stroke="#000" stroke-linecap="round" stroke-linejoin="round" stroke-miterlimit="10" stroke-width=".5" d="M466.95313 319.63281l1.67578 1.79297"/></g><path fill="none" stroke="#000" stroke-linecap="round" stroke-linejoin="round" stroke-miterlimit="10" stroke-width=".5" d="M465.96875 319.89844l.83594.89844"/><path fill="#00f" fill-rule="evenodd" d="M392.67578 463.21094h8.6211V453.0625h-8.6211v10.14844"/><path fill="azure" fill-rule="evenodd" d="M394.51172 454.89844h.83203v2.82031h3.28516v-2.82031h.83203v6.48047h-.83203v-2.91797h-3.28516v2.91797h-.83203v-6.48047"/><path fill="#00f" fill-rule="evenodd" d="M161.88281 454.33203H170.5V444.1875h-8.61719v10.14453"/><path fill="azure" fill-rule="evenodd" d="M163.71484 446.01953h.83203v2.82422h3.28907v-2.82422h.83203V452.5h-.83203v-2.91406h-3.28906V452.5h-.83204v-6.48047"/><path fill="#ff3030" fill-rule="evenodd" d="M317.91797 441.01953h7.69531V430.8711h-7.69531v10.14844"/><path fill="azure" fill-rule="evenodd" d="M319.7539 432.70703h.83204v5.73828h3.1914v.73828h-4.02343v-6.47656"/><path fill="#00f" fill-rule="evenodd" d="M383.80078 432.14063h8.61719v-10.14454h-8.61719v10.14454"/><path fill="azure" fill-rule="evenodd" d="M385.63281 423.82813h.83203v2.82421h3.28907v-2.82421h.83203v6.48046h-.83203v-2.91796h-3.28907v2.91796h-.83203v-6.48046"/><path fill="#00f" fill-rule="evenodd" d="M219.58203 414.38672h8.61719v-10.14453h-8.61719v10.14453"/><path fill="azure" fill-rule="evenodd" d="M221.41406 406.07422h.83203v2.82422h3.28907v-2.82422h.83203v6.48047h-.83203v-2.91406h-3.28907v2.91406h-.83203v-6.48047"/><path fill="#ff3030" fill-rule="evenodd" d="M184.76953 387.75781h7.6914v-10.14453h-7.6914v10.14453"/><path fill="azure" fill-rule="evenodd" d="M186.60156 379.44531h.83203v5.73828h3.19532v.7422h-4.02735v-6.48048"/><path fill="#ff3030" fill-rule="evenodd" d="M313.48047 387.75781h7.6914v-10.14453h-7.6914v10.14453"/><path fill="azure" fill-rule="evenodd" d="M315.3125 379.44531h.83594v5.73828h3.1914v.7422h-4.02734v-6.48048"/><path fill="#ffffe0" fill-rule="evenodd" d="M347.64844 392.42578h22.17969v-10.1914h-22.1797v10.1914"/><path fill-rule="evenodd" d="M351.14844 384.07031h.50781v6.29297h-.78516V385.875h-1.39062v-.5586l.5586-.0625.2539-.05468.23047-.08985.20312-.14062.17188-.21094.14453-.29297.10547-.39453m4.8125 0l.23047.01563.21875.0586.20703.08983.19531.1172.1836.15234.17187.17578.30469.41797.24218.49218.1797.54688.10937.58203.03906.58984-.03906.59375-.10938.58204-.17969.55468-.24218.5039-.3047.42579-.17187.17969-.18359.15234-.19531.125-.20703.09375-.21875.05469-.23047.01953-.23047-.01953-.21875-.05469-.20703-.09375-.19531-.125-.1836-.15234-.17187-.17969-.3047-.42578-.24218-.5039-.17969-.5547-.10937-.58203-.03906-.59375h.83203l.03125.5625.07812.50782.1289.4414.16017.375.1914.30078.21094.21875.22265.14063.22657.04687.22656-.04687.22266-.14063.21093-.21875.19141-.30078.16016-.375.1289-.4414.08203-.50782.02735-.5625-.02735-.5625-.08203-.5-.1289-.43359-.16016-.36719-.1914-.29297-.21094-.21484-.22266-.1289-.22656-.04688-.22656.04687-.22266.12891-.21094.21484-.1914.29297-.16016.36719-.1289.4336-.07813.5-.03125.5625h-.83203l.03906-.58985.10937-.58203.1797-.54688.24218-.49218.30469-.41797.17187-.17578.1836-.15235.1953-.11719.20704-.08984.21875-.0586.23047-.01562m5.08984 0h.51172v6.29297h-.78906V385.875h-1.38672v-.5586l.5586-.0625.2539-.05468.23047-.08985.20312-.14062.17188-.21094.14062-.29297.10547-.39453m2.82422 2.17188h.78906l.01953-.3164.0586-.28517.09765-.25.14063-.21875.1836-.17187.22265-.1289.26562-.08204.3047-.02734.23827.02344.22656.0625.20313.10156.17969.13672.14844.17578.11328.20312.0703.23829.02735.26171-.02344.26954-.0664.22656-.10938.1914-.15625.17188-.19921.16015-.2461.16797-.63672.38672-.53515.3125-.4375.3164-.34766.32813-.26563.33204-.1875.35156-.125.3711-.0703.39452-.01954.41797h4.21094v-.74219h-3.33203l.08203-.28125.11328-.23828.14844-.20312.1875-.17969.23047-.17188.27734-.17578.71875-.41406.41406-.20703.34766-.23047.28125-.25.21875-.26953.16406-.27734.10938-.28125.0664-.28516.01953-.28125-.04296-.38281-.1211-.35156-.1875-.3047-.25-.26562-.30469-.21094-.34375-.16015-.3789-.09766-.41016-.03125-.4336.03125-.39843.09766-.35547.16797-.30469.23437-.24609.30469-.1875.3711-.11328.44921-.04297.51563"/><path fill="#ffffe0" fill-rule="evenodd" d="M255.34375 405.74219h22.17969v-10.1914h-22.17969v10.1914"/><path fill-rule="evenodd" d="M258.83984 397.38281h.51172v6.29688h-.78906v-4.49219h-1.38672v-.55469l.5586-.0664.2539-.05079.22656-.08984.20313-.14062.17578-.21094.14063-.29688.10546-.39453m4.81641 0l.22656.01953.21875.0547.21094.08983.19531.1211.1836.14844.17187.17578.30078.42187.2461.49219.17968.54688.10938.57812.03906.59375-.03906.58984-.10938.58594-.17968.55469-.2461.5-.30078.42969-.17187.17968-.1836.15235-.19531.125-.21094.08984-.21875.0586-.22656.01953-.23047-.01954-.21875-.05859L263 403.7422l-.19922-.125-.1836-.15235-.17187-.17968-.30078-.4297-.24219-.5-.17968-.55468-.11329-.58594-.03906-.58984h.83594l.02734.5625.08204.5039.125.44532.16406.3711.1914.30077.21094.22266.22266.13672.22656.04687.22656-.04687.22266-.13672.21094-.22266.1875-.30078.16406-.3711.125-.4453.08203-.50391.03125-.5625-.03125-.5625-.08203-.5-.125-.4375-.16406-.36328-.1875-.29297-.21094-.21484-.22266-.13282-.22656-.04296-.22656.04296-.22266.13282-.21094.21484-.1914.29297-.16406.36328-.125.4375-.08204.5-.02734.5625h-.83594l.03906-.59375.11329-.57813.17968-.54687.2422-.49219.30077-.42187.17188-.17578.1836-.14844.19921-.1211.20703-.08984.21875-.05469.23047-.01953m5.08984 0h.50782v6.29688h-.78516v-4.49219h-1.38672v-.55469l.5586-.0664.25-.05079.23046-.08984.20313-.14062.17578-.21094.14063-.29688.10546-.39453m2.82422 2.17578h.78516l.01953-.3164.0625-.28516.09766-.2539.14062-.21485.17969-.17187.22265-.13282.26563-.07812.3086-.02735.23827.01954.22266.0625.20313.10156.17968.14062.14844.17188.11328.20703.07422.23438.02344.26562-.01953.26953-.0664.22266-.10938.1914-.15625.17188-.20313.16406-.2461.16406-.6328.39063-.53907.3125-.4375.3164-.34375.32422-.26562.33594-.1914.35156-.125.3711-.06642.39062-.02343.42188h4.21484v-.74219h-3.33594l.08594-.28516.11328-.23437.14844-.20313.1875-.17968.23047-.17188.27734-.17578.71875-.41406.41406-.20703.34766-.23047.27735-.25.22265-.26953.16016-.27735.11328-.28515.0625-.28516.01953-.28125-.03906-.38281-.1211-.34766-.1914-.3086-.25-.26171-.30078-.21094-.34375-.16015-.38282-.09766-.40625-.03516-.43359.03516-.39844.09765-.35547.16407-.30468.23437-.25.30469-.1836.375-.11719.44531-.03906.51953"/><path fill="#ffffe0" fill-rule="evenodd" d="M150.89453 470.32422h22.17969v-10.1914h-22.17969v10.1914"/><path fill-rule="evenodd" d="M154.39453 461.96484h.50781v6.29688h-.78515v-4.49219h-1.39063v-.55469l.5625-.0664.25-.05078.23047-.08985.20313-.14062.17578-.21094.14062-.29688.10547-.39453m4.8125 0l.23047.01954.21875.05468.20703.08985.19531.12109.1875.14844.16797.17578.30469.42187.24219.4922.17969.54687.11328.57812.03515.59375-.03515.58985-.11328.58593-.1797.55469-.24218.5-.30469.42969-.16797.17969-.1875.15234-.1953.125-.20704.08984-.21875.0586-.23047.01953-.23047-.01953-.21875-.0586-.20703-.08984-.19531-.125-.1836-.15235L158 467.8672l-.30078-.42969-.2461-.5-.17968-.55469-.10938-.58594-.03906-.58984h.83203l.03125.5625.08203.5039.125.44532.16016.3711.1914.30077.21094.22266.22266.13672.22656.04688.22656-.04688.22266-.13672.21094-.22265.1914-.30079.16016-.37109.1289-.44531.08204-.5039.02734-.5625-.02734-.5625-.08203-.5-.12891-.4375-.16016-.36329-.1914-.29297-.21094-.21484-.22266-.13281-.22656-.04297-.22656.04296-.22266.13282-.21094.21484-.1914.29297-.16016.36328-.125.4375-.08203.5-.03125.5625h-.83203l.03906-.59375.10938-.57812.17969-.54688.24609-.49219.30078-.42187.17188-.17578.18359-.14844.19531-.1211.20703-.08984.21875-.05469.23047-.01953m5.09375 0h.50781v6.29688h-.78906v-4.49219h-1.38672v-.55469l.5586-.0664.2539-.05078.23047-.08985.20313-.14062.17187-.21094.14453-.29688.10547-.39453m2.82031 2.17579h.78907l.01953-.31641.0586-.28516.09765-.2539.14062-.21485.1836-.17187.22265-.1289.26563-.08204.3086-.02734.23437.01953.22656.0625.20312.10156.1797.14063.14843.17187.11328.20703.07031.23438.02735.26562-.02344.26953-.0664.22266-.10938.1914-.15625.17188-.19922.16406-.2461.16406-.63671.39063-.53516.3125-.4375.3164-.34766.32423-.26172.33593-.1914.35156-.125.3711-.07031.39062-.01953.42188h4.21093v-.74219h-3.33203l.08203-.28515.11328-.23438.14844-.20313.1875-.17968.23047-.17188.28125-.17578.71484-.41406.41797-.20703.34375-.23047.28125-.25.21875-.26953.16406-.27735.10938-.28515.0664-.28516.01954-.28125-.04297-.38281-.1211-.34766-.1875-.3086-.25-.26171-.30078-.21094-.34765-.16015-.3789-.09766-.40626-.03516-.4375.03516-.39844.09766-.35547.16406-.30468.23437-.2461.3047-.1875.375-.11328.4453-.04297.51954"/><path fill="#ffffe0" fill-rule="evenodd" d="M421.63281 416.02734h22.1836v-10.1914h-22.1836v10.1914"/><path fill-rule="evenodd" d="M425.13281 407.66797h.51172v6.29687h-.78906v-4.49218h-1.38672v-.5547l.5586-.0664.2539-.05078.22656-.08984.20313-.14063.17578-.21094.14062-.29687.10547-.39453m4.8164 0l.22657.01953.21875.05469.21094.08984.19531.1211.1836.14843.17187.17578.30078.42188.24219.49219.17969.54687.11328.57813.03906.59375-.03906.58984-.11328.58594-.1797.55469-.24218.5-.30078.42968-.17188.17969-.18359.15234-.19531.125-.21094.08985-.21875.0586-.22656.01952-.23047-.01953-.21875-.0586-.20703-.08984-.19922-.125-.1836-.15234-.17187-.17969-.30078-.42969-.24219-.5-.17969-.55468-.11328-.58594-.03906-.58984h.83594l.02734.5625.08203.5039.125.44531.16407.3711.1914.30078.21094.22266.22266.13671.22656.04688.22656-.04688.22266-.13671.20703-.22266.1914-.30078.16407-.3711.125-.4453.08203-.50391.02734-.5625-.02734-.5625-.08203-.5-.125-.4375-.16406-.36329-.19141-.29296-.20703-.21485-.22266-.13281-.22656-.04297-.22656.04297-.22266.13281-.21094.21485-.1914.29296-.16407.36329-.125.4375-.08203.5-.02734.5625h-.83594l.03906-.59375.11329-.57813.17968-.54687.24219-.4922.30078-.42187.17188-.17578.18359-.14844.19922-.12109.20703-.08984.21875-.05469.23047-.01953m5.08984 0h.50781v6.29687h-.78515v-4.49218h-1.39063v-.5547l.5625-.0664.25-.05078.23047-.08984.20313-.14063.17578-.21094.14062-.29687.10547-.39453m2.82422 2.17578h.78516l.01953-.3164.0586-.28516.10156-.2539.14062-.21485.17969-.17188.22265-.1289.26563-.08204.3086-.02734.23827.01953.22266.0625.20313.10156.17968.14063.14844.17188.11328.20703.07422.23437.02344.26563-.02344.26953-.0625.22265-.11328.19141-.15235.17188-.20312.16406-.2461.16406-.6328.39063-.53907.3125-.4375.3164-.34765.32422-.26172.33594-.19141.35156-.125.3711-.0664.39062-.02344.42187h4.21093v-.74218h-3.33203l.08594-.28516.11328-.23438.14844-.20312.1875-.17969.23047-.17187.27734-.17578.71875-.41407.41406-.20703.34375-.23047.28125-.25.22266-.26953.16016-.27734.11328-.28516.0625-.28515.01953-.28125-.03906-.38282-.1211-.34765-.1914-.3086-.25-.26171-.30079-.21094-.34765-.16016-.3789-.09765-.40626-.03516-.4336.03515-.39843.09766-.35547.16406-.30469.23438-.25.30469-.18359.375-.11719.4453-.03906.51954"/></g></defs><use xlink:href="#aA"/></svg>