<svg xmlns="http://www.w3.org/2000/svg" role="img" xmlns:xlink="http://www.w3.org/1999/xlink" viewBox="142.45 309.95 326.84 171.84"><defs><clipPath id="a"><path d="M144 311.67188h1v168.65625h-1zm0 0"/></clipPath><clipPath id="b"><path d="M144 480h1v.32813h-1zm0 0"/></clipPath><clipPath id="c"><path d="M144 311.67188h324v168.65625H144zm0 0"/></clipPath><clipPath id="d"><path d="M429 476h7v4.32813h-7zm0 0"/></clipPath><clipPath id="e"><path d="M430 478h5v2.32813h-5zm0 0"/></clipPath><clipPath id="f"><path d="M467 311.67188h1v168.65625h-1zm0 0"/></clipPath><clipPath id="g"><path d="M144 480h4v.32813h-4zm0 0"/></clipPath><clipPath id="h"><path d="M147 480h2v.32813h-2zm0 0"/></clipPath><clipPath id="i"><path d="M146 480h2v.32813h-2zm0 0"/></clipPath><clipPath id="j"><path d="M153 479h9v1.32813h-9zm0 0"/></clipPath><clipPath id="k"><path d="M160 480h3v.32813h-3zm0 0"/></clipPath><clipPath id="l"><path d="M159 480h2v.32813h-2zm0 0"/></clipPath><clipPath id="m"><path d="M166 479h9v1.32813h-9zm0 0"/></clipPath><clipPath id="n"><path d="M173 480h3v.32813h-3zm0 0"/></clipPath><clipPath id="o"><path d="M172 480h2v.32813h-2zm0 0"/></clipPath><clipPath id="p"><path d="M180 480h8v.32813h-8zm0 0"/></clipPath><clipPath id="q"><path d="M187 480h2v.32813h-2zm0 0"/></clipPath><clipPath id="r"><path d="M186 480h2v.32813h-2zm0 0"/></clipPath><clipPath id="s"><path d="M193 479h9v1.32813h-9zm0 0"/></clipPath><clipPath id="t"><path d="M200 479h3v1.32813h-3zm0 0"/></clipPath><clipPath id="u"><path d="M199 479h2v1.32813h-2zm0 0"/></clipPath><clipPath id="v"><path d="M206 479h9v1.32813h-9zm0 0"/></clipPath><clipPath id="w"><path d="M213 480h3v.32813h-3zm0 0"/></clipPath><clipPath id="x"><path d="M212 480h2v.32813h-2zm0 0"/></clipPath><clipPath id="y"><path d="M220 479h8v1.32813h-8zm0 0"/></clipPath><clipPath id="z"><path d="M227 480h2v.32813h-2zm0 0"/></clipPath><clipPath id="A"><path d="M226 480h2v.32813h-2zm0 0"/></clipPath><clipPath id="B"><path d="M233 480h8v.32813h-8zm0 0"/></clipPath><clipPath id="C"><path d="M240 480h3v.32813h-3zm0 0"/></clipPath><clipPath id="D"><path d="M239 480h2v.32813h-2zm0 0"/></clipPath><clipPath id="E"><path d="M246 479h9v1.32813h-9zm0 0"/></clipPath><clipPath id="F"><path d="M253 479h3v1.32813h-3zm0 0"/></clipPath><clipPath id="G"><path d="M252 479h2v1.32813h-2zm0 0"/></clipPath><clipPath id="H"><path d="M260 479h8v1.32813h-8zm0 0"/></clipPath><clipPath id="I"><path d="M267 479h2v1.32813h-2zm0 0"/></clipPath><clipPath id="J"><path d="M266 479h2v1.32813h-2zm0 0"/></clipPath><clipPath id="K"><path d="M273 479h8v1.32813h-8zm0 0"/></clipPath><clipPath id="L"><path d="M280 479h3v1.32813h-3zm0 0"/></clipPath><clipPath id="M"><path d="M286 479h9v1.32813h-9zm0 0"/></clipPath><clipPath id="N"><path d="M293 479h3v1.32813h-3zm0 0"/></clipPath><clipPath id="O"><path d="M300 480h8v.32813h-8zm0 0"/></clipPath><clipPath id="P"><path d="M306 480h2v.32813h-2zm0 0"/></clipPath><clipPath id="Q"><path d="M313 479h8v1.32813h-8zm0 0"/></clipPath><clipPath id="R"><path d="M319 480h2v.32813h-2zm0 0"/></clipPath><clipPath id="S"><path d="M326 479h9v1.32813h-9zm0 0"/></clipPath><clipPath id="T"><path d="M332 480h2v.32813h-2zm0 0"/></clipPath><clipPath id="U"><path d="M340 479h8v1.32813h-8zm0 0"/></clipPath><clipPath id="V"><path d="M345 479h3v1.32813h-3zm0 0"/></clipPath><clipPath id="W"><path d="M353 479h8v1.32813h-8zm0 0"/></clipPath><clipPath id="X"><path d="M359 479h2v1.32813h-2zm0 0"/></clipPath><clipPath id="Y"><path d="M366 479h8v1.32813h-8zm0 0"/></clipPath><clipPath id="Z"><path d="M372 479h2v1.32813h-2zm0 0"/></clipPath><clipPath id="aa"><path d="M380 478h8v2.32813h-8zm0 0"/></clipPath><clipPath id="ab"><path d="M394 477h6v3.32813h-6zm0 0"/></clipPath><clipPath id="ac"><path d="M409 476h2v4.32813h-2zm0 0"/></clipPath><clipPath id="ad"><path d="M419 479h9v1.32813h-9zm0 0"/></clipPath><clipPath id="ae"><path d="M425 480h2v.32813h-2zm0 0"/></clipPath><clipPath id="af"><path d="M433 478h8v2.32813h-8zm0 0"/></clipPath><clipPath id="ag"><path d="M447 477h7v3.32813h-7zm0 0"/></clipPath><clipPath id="ah"><path d="M461 477h6v3.32813h-6zm0 0"/></clipPath><clipPath id="ai"><path d="M144 466h4v2h-4zm0 0"/></clipPath><clipPath id="aj"><path d="M144 453h4v1h-4zm0 0"/></clipPath><clipPath id="ak"><path d="M144 439h4v2h-4zm0 0"/></clipPath><clipPath id="al"><path d="M144 426h4v2h-4zm0 0"/></clipPath><clipPath id="am"><path d="M144 413h4v2h-4zm0 0"/></clipPath><clipPath id="an"><path d="M466 412h2v3h-2zm0 0"/></clipPath><clipPath id="ao"><path d="M144 399h4v3h-4zm0 0"/></clipPath><clipPath id="ap"><path d="M466 398h2v4h-2zm0 0"/></clipPath><clipPath id="aq"><path d="M144 385h4v4h-4zm0 0"/></clipPath><clipPath id="ar"><path d="M466 385h2v4h-2zm0 0"/></clipPath><clipPath id="as"><path d="M144 371h4v5h-4zm0 0"/></clipPath><clipPath id="at"><path d="M466 372h2v3h-2zm0 0"/></clipPath><clipPath id="au"><path d="M144 357h2v7h-2zm0 0"/></clipPath><clipPath id="av"><path d="M144 346h4v2h-4zm0 0"/></clipPath><clipPath id="aw"><path d="M144 330h3v7h-3zm0 0"/></clipPath><clipPath id="ax"><path d="M466 332h2v3h-2zm0 0"/></clipPath><clipPath id="ay"><path d="M144 317h2v7h-2zm0 0"/></clipPath><clipPath id="az"><path d="M466 319h2v3h-2zm0 0"/></clipPath><g id="aA" clip-path="url(#clip1)"><path fill="#fff" fill-opacity="0" fill-rule="evenodd" d="M0 0h1000v1000H0zm0 0"/><path fill="#d3d3d3" fill-opacity="0" fill-rule="evenodd" d="M162.15234 355.86719l-.23437.29297.0586.23437.11718.17188.17578.23437.29297.34766.11328.0586.11719-.17188.0586-.23438.17577-.17578.46485-.17578h.69922l.23437.29297.28906.8164.0586.17579.17578.23046.35156.23438.69922.69922.17188.17578.23437.34765.23438.41016.28906.58203.41015.46485.23047.23437.23438.17578.11719.23047.17578.29297.17187 1.16406v.23438l.0586.28906.05859.11719.11719.11719.34765.41015.11719.17188.17578.17578.17578.23437.11719.17188.17188.35156.05859.23438.23437.40625.23438-.0586-.17578.17578-.0586.92969h-.58203l-.23437-.11328-.34766.11328-.11719.11719-.05859.29297-.0586.17578-.11718.17187-.46484.29297-.0586.23438-.0586.11328v.64453l.0586.17187v.41016l.0586.0586v.40624l.05859.40625.11719.17579.05859.05859.23047.64062-.0586.29297v.69922l-.05859.58203v.23438l-.0586.23047-.05468.35156v1.92187l.05469.1172h.42578l-.36719.11718-.02344.35156.89063 1.16797 1.74219.53906 1.33984.35938v.53906l.08984.8086.53516.71484 1.51953.26953.89063-.08594.08984 1.16406.53516.1797 1.16015-.1797 2.05469-.98437 1.16016-.36328 1.8789-.17578 1.69531-.1797-.17968.71876-1.51563.08594-1.25.08984-.80469.26953-1.07421.8086.26953.71875.53515.89843-.17968.625-.26563.8086.26563 1.07812.625.89844.80468.17969 1.25-.1797-.26562.72267.09766.5039.05468.29297v.17188l.0586.29296v.40625l.17578.1172.35156.11718h.40625l.29297-.17578.11328-.11719.0586-.11719.11718-.23047.0586-.17578.35156-.46484.23047-.17578.17578-.0586.17578.0586.0586.17578.11718.98828.05469.46875.0586.17188.11718.23437.17578.0586.8164.05859h.28907l.11719.23437.05859.40625.0586.35156v1.10547l.11718.29297.11719.34766.28906.69922.17578.35156.58203.7539.35157.17579.17187.0586.46875.23437.64063.46484.34765.23438.29297.17578.29297.05468.23047.0625.8164.34766.29297.17578.11328.17188.35157.35156.11719.17578.52343.64063v.28906l.0586.35156v.34766l.05859.35156.0586.28906.11718.0586.17188.05859h.17578l.58203.23437.17578.1172.17578.28905.17578.23438.11328.23437.29297.23047.11719.11719v.41016l.0586.05468.28906.23438.23437.11719.0586.11718.11718.17188.0586.11719.23047.23437.05859.17578.23437.0586.1172.05859-.1172.11328-.05859.11719v.11719l-.11719.29296-.11719.28907v.58203l.17579.11719.11718.05859.0586.11719.11719.11719.11328.05859.17578.34765.0586.35157.05858.40625v.17578l-.05859.17578-.11719.69922v.17187l.1172.17579.29296.29296h.40625l.17578.1172.11719.17187.11719.29296v.23438h-.52735l-.23047-.23438h-.23437l-.17578.0586-.0586.69922.0586.34765.11719.17579.17578.41015.11718.23047.28907.46875.17578.05469h.52344l.23437.0586.75781.64062.0586.29296v.23438l.05859.0586.23047.34765v.35156l-.11719.17188v.29297l.29297.28906.29297.17578.17187.0586.29297.17577.29297.1172.58203.40624.28906.23438.29297.17578.21875.16015.01563.01172.23047.17579.64062.52343.17578.23438.1172.17578.17577.17578.11328.17188v.64062l.1172.17578.46874.11719.58203.11719.23438.05859.23047.11328.29297.11719.11328.0586.58593.35156.28907.17187.17578.0625.17578.05469.17578.0586.69922.35155.28906.17579.23438.05468.28906.17578.23437.1172.64063.40624.29297.11719.17187.0586.23438.05859.41015.05859.23047.0586.23438.11718.0586.17188-.41017.17578.46875.0586.0586.29296.11328.23438.17578.05468.23438.0586.17578.05859.40625.11719.64062.23437.11719.17188.0586.23437v.17578l-.0586.1172-.0586.40624.23438.23438.11719.05859.34766.11719.64062.23047.17578.11718.28906.1172.17578.17577.23438.46485.58203 1.10546.17578.17579.34766.17578.17578.11719.35156.11718 1.04688.52344.23437.0586.46485.11327.29297.0586.46484.17578.75781.58203.23438.23438.34765.46484.17578.17578.28907.23438.8164.69921.29297.17579.28906.28906.29297.17578.29297.28906.69531.64063.17578.17578.29297.23437.28907.23438.46875.28906.64062.58203.34766.23438.23437.29297.34766.34765.35156.46485.9336.99218.34765.40625.11719.17579.23437.05859.11328.11719.64454.17578.23047.11328.23437.0586.29297.17577.23047.1172.9336.69921.40624.40625.23438.17578.40625.17578.23437.11719.8164.34766.34766.23437.23438.11719.29297.28906.23047.11719.7578.35156.35157.17188.23047.05859.29297.11719.23437.0586.8711.17577h.8164l.46875.23047.17188.0586.875.69921.46484.1172.29297.05858.17578.0586.23047.0586.46875.05859.34766.05859.35156.0586.40625.05859h.29297l.17187.0586v.23046l.17578.17578h.29297l.34766.0586.35156.05859.69922.11719h.64063l.46484-.23438.29297-.17578.17187-.11719.41016-.17187.28906-.17578.9336-.46485.46875-.29297.52343-.29296.46485-.17188.46484-.17578 1.05078-.46485.28906-.11718.41016-.11719.28906-.11719.52735-.17578 1.51562-.69922.58203-.34765.28907-.0586.29297-.0586.34765-.11718.875-.23047.35156-.11719h.11329l.23437-.05859.875-.23437.23438-.0586h.8125l.35156-.0586.8164-.11718.17188-.0586.35156-.05468.29297-.0586.23047-.05859.8164-.17578.17579-.0586h.34765l.23438-.05859.46484-.11718.75781-.17188.23438-.0586h.34765l.41016-.11718.28906-.0586 1.28516-.05859h.28906l.41016-.0586.23047-.05858h.17578l.875-.1172h.40625l.41015-.11718h.34766l.35156-.11328.8711-.0586h1.75l1.04687.28907.41016.11719.28906.11718.35156.11719.28907.11719 1.05078.17187.28906.0586h.29297l.29297.05859.17187.0586.41016.05859.17187.0586.1172.05858h.11718l.11719.0586.35156.0586h.11328l.41016.0664 1.92187.39453 1.92578.39453 1.51953.44922 1.69532.71875 2.14453.80469 1.60547-.71875 1.42968-.80469 1.16016-1.07813 1.25-.44921 3.03516-.71875 1.875-.35938 2.14453-1.34765 2.23437-1.25391 2.5-1.25781 1.69531-.44922 1.78516-.17969 1.16016-.26953.625.53906 1.33984-.26953.71485-.98828.98437-1.34375.44531-.17969.80469-.35937 1.875-.53907 1.78516-.44921 1.25-.26954 1.16015-.08984 1.69922-.08984 1.96094-.26954 1.25-.08984h.53906l.625-.08984h.89063l2.14453-.17969 2.41015-.17969 2.58985-.08984 1.69531.17969 1.60938.08984 1.42968.35938 1.16016.71875 1.875.98828 1.16015 1.52734.26563.71484.6289.08985.35548.89844.53515.53906.53516 1.52734 1.07422.35938h.53515l-.80469.53515.08985 1.70703.71484 2.69532.89063.80468.89453.98829.71484 1.2578 1.78516.53907 1.51953-.17969.35547 1.34375 1.60937-.80469.98047-.53906.26953.26953.31641-.21484.21875-.14453.80078.44922.44922-.35938h.35547l.53515-.26953.53907-.71875.53515-.26953.625-.98828 1.16016.44922.83984.3711 1.39454.61718 1.6953-.17969h1.60548l1.78515.08985.17969-1.70704.53516-1.34375.80468.26954.4922.84765.40233.40625-.08984.53906v.35938l.71485.44922.71093-.26953h1.42969l.35938.98828.4453 1.25781.71485 1.34375 1.25.6289 1.69531.62891.71485-.17969.17969-.53906.98046-.08984.44922.35937.08594 1.25782-.26563.6289-.53515.17969v.53906l.71484.98438.26563.53906.98437.98828.80078 1.07813-.26562.35937-.08985.89844-.625 2.33203-.35546 2.0664-.08985 1.79298-.17969.71875-.08984.53906v1.4375l-.98047 1.88281-.35937 1.70703-.53516.89844-.80469 1.16797-.26562.53906 2.05469 1.2539.08593.35938-.35546.53906-.08985-.17968v.80859l.08985 1.4375-.44532.71484-1.07422.09375-.26562.71485.53515.89844.8047.71875 1.16015.80859 1.33984.26953.44531.35938-.35546.44921-1.78907-.08984-1.25-.44922-.71484-.71875-.625-.08984-.17578 3.58984-.1875 1.3086h89.35937V311.70313h-55.26953v49.08203l.76172.125 3.28906.54296 2.02344 2.83594v2.7539l2.35156.33204 2.34766.33203h4.05078l-1.3789 4.16016-2.02344.70703-2.02344.70312-.54297.34375-2.59375 1.6172-.1875.11718-2.02344-2.07813-.73046-2.74218-2.67188-2.07813-1.375-3.5-.0664-.08203-1.95704-2.67188 2.75-1.41796v-49.08204H294.42187v91.41407l.1172.03125.1328.01172.07422.07421.10547.04688.08985.0586.08593.05859.08985.0586.29687.29687.0586.08984.03125.11719.02734.11719.01563.13671-.03125.1172-.0586.08983-.0586.08594-.04296.10547-.04688.10156-.02734.1211v.14453l.17578.26953.14844.14844.07422.08594.07422.07421.04296.10547.0625.08985.0586.08593.04297.10547.0586.08985.04687.10156.04296.10547.0586.08594.11719.17968.07421.07422.0625.08594.0586.08984.04297.10547.0586.08985.05858.08593.0625.08985.0586.08984.04297.10156.11719.17969.07421.07422.0586.08594.07422.07421.08984.0586.10547.04687h.14844l.1328-.01562.13282.01562.10156-.04687.07422-.07422.04688-.10156-.01563-.13281v-.14844l-.04687-.10547-.02735-.11719-.04687-.10156-.02735-.1211-.04296-.10156-.0625-.08984-.04297-.10156-.04297-.10547-.03125-.11719-.01563-.13281-.01171-.13672.08593-.0586.0586-.08593.12109-.03125.04297.10547.01562.1328v.1172l.0586.10156.0586.08984.08983.0586.14844.14843.0586.08985.04296.10547-.01171.10156.08593.0586.10547.04687.08594.0586.08984.05858.07422.07422-.11719.02735-.10546.04687-.08594.0586-.07422.07421-.0586.08985-.0625.08594-.02734.12109-.04687.10156-.04297.10547-.03125.11719-.01172.13281-.01563.13281v.14844l.02735.11719.04687.10547.04297.10156.0586.08984.07421.07422.08985.0586.07422.07421.08984.0586.0586.08984.04296.10547.04688.10156.11719.03125.1328.01563h.14845l.11718-.03125.10547.04297.04297.10547.04688.10156.02734.1211L299.5 410l.02734.11719.03125.1211.02735.11718.10547.04297.10156.04687.13281-.01562.14844.14844.0625.08593.07422.07422.07031.07422.08984.0625.10547.04297.10156.04297.1172.03125.13671.01562.11719-.03125.07422-.07422.02734-.11718-.01172-.13282-.03125-.12109-.02734-.11719.04297-.10547h.11719l.08984.0625.11719.02735h.14843l.13282.01562h.14843l.13282.01563.1328-.01563h.14845l.1328-.01562.13282-.01172.13672.01172.11719-.02735.13281-.01562.1914-.0586-.05859.17579-.01562.1328-.02735.1211-.01562.13281-.0586.08594-.1328.01563-.10548.04687-.10546.04297-.1172.03125-.11718.02735-.26563.03125h-.14843l-.13281.01562-.07422.07422.05859.08594.14844.14843.11719.1797.07421.0703.08985.0625.08984.0586.08594.0586.08984.05858.10156.04297.10547.0625.10547.04297.08594.0586.10547.04687.10156.04297.17969.11719.0586.08984-.04298.10156-.04687.10547.01562.13281.22266.22266.0586.08985.04296.10156.03125.1211.04297.10155.01563.13282.03125.11718.01171.13672.03125.11719.14844.14844.10156.04297.10547.04296.1172.03125.1328.01563.13672.01563h.11719l.11719-.03125.08984-.0586.04297-.10547.04688-.10156.04296-.10547.03125-.11719.01172-.1328v-.14845l-.01172-.1328-.01562-.13282-.03125-.11719-.04297-.10547-.04688-.10547-.04296-.10156-.04297-.10547-.01563-.13281.01563-.13281.02734-.11719.03125-.11719.02735-.1211.04687-.10155.08984-.0586.08594-.0625.07422-.07422.08984-.05859.22266-.22266.0586-.08593.07421-.07422.11719-.17969.0586-.08594v-.14844l-.07423-.07421-.10156-.04688-.10547-.04297-.10156-.04297-.0586-.08984-.04687-.10547-.02734-.11719.08984-.05859.11719-.03125.10156-.04297.17969-.11719.14844-.14843.01172-.13282-.01172-.10546-.08985-.0586-.1328.01563h-.14845l-.1328.01562-.13282-.01562-.1211-.03125-.08593-.0586-.07422-.07422-.0586-.08984-.0625-.08594-.11718-.17969-.0586-.08593.03125-.1211.08594-.05859.1211-.03125.05859-.08594v-.1211l-.03125-.11718-.0586-.08984-.05859-.08594-.04687-.10547-.02735-.11719-.01562-.1328.0586-.08985.07421-.07422.08984-.0586.1172-.17968.07421-.07422.0586-.08594.14843-.14844.1211-.03125.1328-.01562.13282.01562.07422.07422.04297.10547.01562.13281-.03125.1172-.11719.03124-.1328.01172-.14844.14844-.04297.10547-.04688.10156-.02734.1211-.03125.11718v.14844l.03125.11719.04297.10546.05859.08985.07422.07031.07422.07422.11719.03125.12109.02734.11719-.02734.1328-.01563h.1172l.08984.0586.07422.07422.04687.10546.0586.08594.10156.04688.13281.01562.10547.04297.08594.0586-.01172.10546-.07422.07422-.17969.11719-.05859.08984-.08984.0586-.07032.07422-.07421.07421-.0625.08985-.02735.11719-.01562.1328.01562.13282-.01562.13281v.14844l.01562.13281.02735.1172.03125.12108.07421.07422.08985.0586.08594.0586.08984.05858.11719.03125v.08594l-.10157.04688-.08984.0586-.26563.03124-.11718.02735h-.14844l-.10547.04296-.10156.04688-.0586.08984-.0625.23438-.01171.13281-.03125.1211-.01563.1328v.29298l-.01172.1328.01172.13673.01563.1328.1328.01563.13282.01172.1211.03125.08593.0586.07422.07421.04688.10547.04296.10157.01563.1328v.44532l-.01563.13281v.44532l.03125.26562.02735.11719.01562.13281.03125.11719.08594.21094.03125.26562v.14844l-.03125.11719-.02734.11718-.03125.1211-.02735.11719-.03125.11718-.03125.1211-.01171.1328-.01563.13282.08984.0586.1172-.03125.10155.01562.04688.10547-.03125.26562v.44141l-.04297.10547-.04688.10547-.04296.10156-.04297.10547-.0586.08594-.03125.12109-.04296.11719-.03125.11719-.01563.1328.01563.13282.05859.08984.10547.04688.08594.0586.05859.08593-.01172.13672-.03125.11719-.04297.10156v.44531l-.01562.13281v.14844l-.03125.11719-.04297.10547-.02735.11719-.04687.10546-.04297.10157-.03125.12109-.02734.11719-.03125.13281-.03125.11719-.02735.11719-.04297.10546-.03125.1172-.03125.12108-.01171.13282-.01563.13281v.29688l.02734.11718v.14844l.04688.39844.02734.11719.0586.08984.12109.03125h.14844l.13281-.01563.0586.08985v.11719l-.0586.08984-.08984.0586-.10157.04296-.10546.04688-.08985.05859-.08594.0586-.13671.01562-.1172-.03125-.1328-.01563-.10157.04688-.0625.08594-.01172.13671-.01562.13282-.03125.11719-.02735.11718-.01562.13281-.03125.1211v.29687l.01563.13282.03125.11718v.14844l.01171.13281v.14844l-.02734.11719-.04688.10156-.02734.1211-.03125.11718-.0586.08985-.07421.07421-.10156.04297-.10547.04688-.11719.02734-.1211.03125-.10156-.04687.0586-.08594.10547-.04688.02734-.11718.03125-.11719.02734-.1211.03125-.11718v-.14844l.01563-.13281-.03125-.11719-.04297-.10547-.10547.01563-.07422.07422-.10156.04296-.08984.0625-.07422.07422-.04297.10157-.01563.1328-.03125.1172L304.25 426l-.03125.11719-.02734.11719-.03125.12109-.02735.11719-.03125.11718-.04297.10547-.08984.0586h-.08984l-.1172-.03125-.03124-.08594.01562-.13672-.03125-.11719v-.14844l-.01171-.1328v-.14844l-.0625-.23438-.02735-.1211-.04297-.10156-.04687-.10546-.0586-.08594-.05859-.08985-.04297-.10546-.0625-.08594-.14844-.14844-.0703-.07422-.10548-.04687-.10547-.04297-.10156-.04297-.29687-.29688-.08985-.07421-.08594-.0586-.10546-.04297-.08985-.0625-.08594-.0586-.10546-.04296-.08985-.0586-.08594-.0625-.07421-.0703-.10547-.04688-.08594-.0586-.10547-.04296-.08984-.0625-.10156-.04297-.10547-.04297-.08594-.0586-.10547-.04687-.10547-.04297-.10156-.04687-.08985-.0586-.10156-.04297-.10547-.04296-.08984-.0625-.11719-.02735-.13281-.01562-.13281.01562H299.75l-.13281.01563-.11719-.03125-.08984-.0586-.07422-.07422-.08985-.05859-.10156-.04688h-.14844l-.12109-.02734-.10156-.04297-.07422-.07422-.11719-.17968-.08984-.0586-.10156-.04297-.08985-.0625-.10547-.04296-.08984-.0586-.08594-.0586-.10547-.04687-.0586-.08594-.05858-.08984-.04297-.10547-.04688-.10156-.07422-.07422-.08594-.0586-.07421-.07421-.08985-.0586-.22265-.22265-.04297-.10547-.03125-.26563.10547-.04296h.14453l.10547.04296.07421.07422.08985.0586.08594.0586.10546.04687.08985.05859.14844.14844.0703.07422.14845.14843.0625.08594.07421.07422.08594.0586.07422.07421.08985.0625.08984.0586.08594.05859.26953.17578.10156.04688.10547.04296.10156.04297.04688-.07421.05859-.08594.07422-.07422.07031-.07422.10547.04297.07422.07422.0586.08984.04296.10156.04688.10547.04296.10547.1211.02735.11719-.02735.07421-.08984.04297-.10547.0586-.08985.07422-.07421.10546-.04297.1172-.02735.1328.01172.08985.0586.14844.14843.05859.08985.04297.10547.04687.10156.04297.10547.04297.10156.10547.04688.10547.04296.13281.01563.08594-.0586.0586-.08984.07421-.07422.10547-.04297.11719.02735.10547.04687.10156.04297.10547.04297.10156.04688.17969.11718v.11719l-.01563.13281.01563.13281.01562.13672.0586.08594.10156.04688.1211.02734.11718.03125h.14844l.11719-.03125.05859-.08984.17969-.1172.05859-.08983.07422-.07422.0586-.08594.11718-.17969.17969-.11719.11719.03125.08984.0586.04297.07422-.01563.1328v.1172l.08985.05859h.14843l.13282-.01563.1328-.01171.26563-.03125.10547-.04297.11719-.03125.1211-.02735.07421-.07421.07031-.07422.0625-.08985-.01562-.10547-.04688-.10156-.10156-.04297-.10547-.01562-.11718.02734-.26563.03125h-.14844l-.07421-.07422-.08985-.0586-.11719-.03124-.11718-.02735-.13282-.01562h-.14843l-.13282.01563h-.29687l-.10547-.04688-.14844-.14844-.04297-.10156-.05859-.08984.22266-.22266.08593-.0586.10547-.04296.11719-.03125.13281-.01563.13281.01563.13672.01562.10157.04297.1328-.01172.08985-.0625.10156-.04297.0625-.08984-.04687-.10156-.08984-.0586-.1172-.03125-.10155-.04296-.0586-.08985-.0625-.08984v-.11719l.01563-.13281.10547-.04688.07421-.07031v-.1211l-.08984-.05859-.03125-.11719.08985-.05859.07421-.07422.04297-.10547.0586-.08984.04687-.10156.01563-.13281v-.14844l-.04688-.10547-.04297-.10156-.08984-.0586-.13281-.01562-.10157-.04297-.13671-.01563-.1172-.03125h-.4453l-.13282-.01562-.13281-.01172-.13281-.01563-.11719-.03125h-.14844l-.13281-.01562-.13281-.01172-.26563-.03125-.1211-.04297-.08593-.0586-.07422-.07421v-.14844l.01172-.13281.10547-.04688.10156-.04296.13281-.01563h.15235l.13281-.01562h.29297l.1211.03125.10156.04296.08984.0586.23438.0625.12109-.04688.08984-.05859.10156-.04297.13282-.01562.10547.04296.10156.04688.13281.01172.1211-.02735h.14453l.12109-.03125.11719-.02734.10547-.04687.07421-.07422.08594-.0586.14844-.14843.0586-.08594.04687-.10547.02734-.11719.01563-.10547-.10156-.04296-.08985-.0586-.11719-.03125-.10546-.04297-.08985-.0625-.07422-.08594-.07422-.07421-.10156-.04297-.10547-.04688-.10156-.04297-.0586-.08984-.04687-.10156-.08594-.21094-.0625-.08594-.05859-.08984-.07422-.07422-.08594-.0586h-.26953l-.11719.03126-.08984.05859-.10156.04297-.13281.01562-.10547-.01562-.02735-.11719-.0625-.08984-.11718-.03125-.10157-.04297-.14843-.14844-.03125-.11719-.01563-.10546.07422-.07422.17969-.1172.11719-.02733.11718-.03125.13672.01562.10156.04297.10547.04297.10156.04687.10547.04297.1172.03125.1328.01563.1172.02734.1328.01563.10547-.01563.08985-.0586-.07422-.07421-.10547-.04297-.07422-.07422-.07422-.08984-.14844-.14844-.08593-.0586-.08985-.05859-.07422-.07422-.08984-.0586-.10156-.04687-.1211-.02734-.10156-.04688-.10547-.04296-.11719-.03125-.10156-.04297-.1211-.03125h-.14843l-.11719.03125-.10546.04297-.08594.0625-.17969.11718-.08594.0586-.08984.0586-.10547.04687-.08594.05859-.10547.04297-.10156.04297-.10547.04687-.07422.07422-.05859.08985-.0586.08593-.04687.10547-.0586.08594-.07421.07422-.13281-.01172-.1172-.03125h-.11718l-.07422.07422-.08984.0586-.07422.07421-.08984.0586-.08594.05859-.10547.04687-.10156.04297-.13672.01563-.10156-.04297-.14844-.14844-.10547-.04688h-.08594l-.10547.04688-.10156.04297-.1211.03125-.11718-.03125-.07422-.07422v-.11719l.03125-.1211.07422-.0703.0586-.08985.07421-.07422.11719-.03125.10547-.04296h.29297l.13281-.01563.13672-.01563.10156-.04296.08985-.0586.10156-.04687.08984-.0586.13281-.01171.08985.05859.13281.01172.08984-.0586.08594-.05859.10547-.04297.08984-.0586.08594-.0625.08985-.05859.14843-.14843.0586-.08594.05859-.08985.10547-.04296.13281-.01563.11719.02735.1211.03125.05859-.0586.05859-.08984.03125-.26563.02734-.11719.10547.01172.13281.01563.10157-.04297.08984-.0586.0586-.08984.07421-.07422.0586-.08984.04687-.10156.01172-.13281-.01172-.13282-.04687-.10547-.14844-.14843-.0586-.08985-.05859-.08594-.04297-.10546v-.44532l.01563-.1328v-.14845l.01172-.1328-.0586-.0586-.08984.0586-.10156-.04298-.17969-.11719-.08594-.05859-.0625-.08984-.0586-.08985-.07421-.07421-.08594-.0586-.1211.03125-.10155.01172-.10547.04688-.08594.05859-.10547.04297-.14844.14844-.08984.05859-.08594.0586-.08984.0625-.10547.04296-.13281.01563v-.1211l.10547-.04297.11718-.03125.07422-.0703.04297-.10548v-.14844l-.02734-.11718-.14844-.14844-.13281-.01563h-.14844l-.11719.03125-.10547.04297-.10156.04297-.08984.0625-.11719.02735-.07422-.07422.01172-.13281-.04297-.10157-.04297-.10547-.08984-.05859-.11719.02734-.1211.03125-.11718.03125-.10156.04297-.1211.03125-.10156.04297-.10547.04297-.08984.0586-.10156.01562v-.11719l.01562-.13281-.0586-.08985-.07421.04297-.14844.14844-.0586.08985-.07421.07421-.04688.10547-.04296.10156-.07422.07422-.0586.08985-.07422.07422-.05859.08593-.07422.07422-.08984.0625-.07422.07031-.07422.07422-.10156.01563-.13281.01562-.10547-.04296v-.1211l.14843-.14844.04297-.10156.0586-.08984.04687-.10156.04297-.10547.0586-.08985.03124-.11719.04297-.10156.03125-.1211.02735-.11718.04687-.10547.04297-.10156.04297-.10547.07422-.07031.08984-.0625.08985-.0586.10156-.04296h.29687l.26563-.03125.10547-.04297-.07422-.07422-.11719-.03125-.10547-.04297-.08984-.0586-.10156-.04687-.08985-.0586-.10156-.04296-.10547-.04297-.08984-.0625-.08594-.0586-.10547-.04296-.10156-.04297-.1211-.03125-.11718-.03125-.10157-.04297L297.5 410.25l-.10156-.04297-.08985-.0586-.04296-.10546-.01563-.13281.10156-.04297.13281-.01563.13672.01563.13282-.01563.10156-.04297.0586-.08984.01562-.10547-.08985-.0586-.07421-.07421-.10157-.04297-.08984-.0586-.14844-.14843-.04297-.10547-.01562-.13281v-.29297l-.0586-.08985-.08984-.05859-.07422-.07422-.04297-.10547-.03125-.11718-.0586-.08985-.07421-.07422-.11719-.02734-.07422-.07422-.08984-.0586-.08984-.0625-.08594-.05859-.07422-.07421-.0586-.08594-.04687-.10547-.08594-.0586-.14843-.14843-.19532-.0586-.1328.01563-.10157.04297-.07422.07422-.04688.10156-.04296.10547-.0586.08984-.0586.08594-.29687.29687-.08984.0586h-.08594l-.0625-.08594-.04297-.10547.03125-.11719.0586-.08984.02734-.11719-.01172-.13281-.08984-.0625-.10547.04688-.11719.02734-.11719.03125-.26953.17578-.10156.04688-.11719.02734-.10546.04687-.08985.0586-.10156.04297-.0586-.08594-.04687-.10547.01563-.13281.04687-.10547.07031-.07422.07422-.07031.0586-.08985v-.14843l-.04297-.10547h-.23829l-.10156.04687-.03125.11719-.02734.11719-.03125.1211-.07422.04296-.13281.01563-.07422-.04688-.04297-.10156-.04297-.10547-.04687-.10156-.04297-.10547-.1211.03125-.10156.04297-.13281.01562-.11719.03125-.10547.04297-.08984.0586-.10156.04687-.1211.02734-.13281.01563-.10156-.04297-.0586-.08985-.04687-.10546-.04297-.10157-.04297-.10546v-.1172l.0586-.08984.08593-.05859.17969-.11719.10156-.04687.10547-.04297.10547-.0586.10156-.04296.08985-.0625.10156-.04297.10547-.0586.10156-.04687.08984-.0586.10547-.04296.10156-.04297.08985-.0625.10156-.04297.13672-.01563.11719.03125.10156.04297.1211.03125.10156.04297.10546.04688.10157.04296.10547.04297.10156.04688.10547.04297.10156.04297.10547.04687.08594.0586.10546.04296.1172.03125.10546.04297.10156.04688.08985.0586.10547.04296.10156.04297.10547.04687.11719.02735.10156.04687.1211.02735h.14843l.08594-.0586.01562-.10156.0586-.08984-.02735-.1172-.07422-.07421-.11719-.17969-.07421-.07422-.08985-.07421-.17969-.1172-.08593-.05859-.10547-.04296-.10156-.04688-.26954-.17578-.05859-.08985-.07422-.07421-.0586-.08985-.04296-.10156-.03125-.11719-.01563-.13672v-.5625l-.01171-.1328-.01563-.13282-.03125-.11719-.01562-.13281-.01172-.13281-.03125-.1211-.22266-.22265-.0586-.08594-.01562-.10547.03125-.11719.13281-.01562v-91.41406H172.9922v1.45312l-.0586.23438-.35156 1.05078-.17187.52343-.1172.34766-.17577.41016-.11719.17187-.23438.29297-.23046.0586h-.35157l-.11718.05859-.23047.40625v.29297l.11719.17578.23046.23047.1172.23437.64062.75781.29297.46485.17578.23437.23047.35156.23437.34766.64063.8164.17578.46485.17187.41016.11719.69531.17578.46875.11719 1.39844.0586.46484v.875l.11718 1.04688v4.78125l-.0586.46484-.35156 1.28125-.17578.52344-.11328.41015-.35156.9297L172.93359 336l-.23437.58203-.11719.17578-.17187.34766-.17578.40625-.35157.8164-.0586.29297-.11327.29297-.11719.28906-.0586.17579-.11718.875-.0586.40625-.05859.11718-.0586.17579-.05859.17187-.23047.52734-.11718.17188v.23437l-.11719.23438-.0586.17187-.17577.58594v.28906l-.0586.17579v.29296l-.0586.11329-.05859.52734v.17187l-.05468.23438v2.6211l-.17578.8164-.1172.17578-.17577.23438-.1172.17187-.11327.23438-.58594.93359-.23047.28906-.29297.46485-.17578.23437-.28906.35156-.35156.69922-.11328.23047-.17579.41016-.17578.23046-.40625.52735-.8164.69922-.29297.17187-.28906.23438-.17579.11719-.17578.17578-.52344.40625-.52734.17578-.17187.17578-.23438.05469-.64062.17578h-.75782m12.21094 31.02344l-1.07422.44921.35938.89454 1.25-.71485.44531-.53906-.98047-.08985"/><path fill="#d3d3d3" fill-opacity="0" fill-rule="evenodd" d="M201.50781 416.59766h-.89453l.44922.6289.98047.35938.80469-.08985.4453-.98828-.17577.08985-.71485-.35547-.89453.35547m154.6211 59.0703l-.0586-.52343v-.29297l.11328-.29297.0586-.23046.46875-.46875h.11328l.11719-.11329.11718-.05859h.17579l.23437-.0586h.34766l.23437.0586.11719.0586.23047.17187.0586.17578.11718.58203v.29297l-.11719.17578-.17187.28906-.17579.17579-.52734.52343-.23047.23438-.11719.0586h-.17578l-.11718-.0586-.40625-.29297-.17579-.11719-.11718-.0586-.0586-.11327-.05468-.1172m6.64062-10.95702l-.0586-.17188v-1.10937l.0586-.17188.17578-.0586.17188-.05858h.17578l.23437-.0586.1172.0586.05858.69921-.05859.17188-.11719.17578-.11718.0586-.23438.52343-.11328.0586h-.23438l-.05859-.1172m9.61328-14.39062l-.11719-.17578v-.69922l.29297-.875.1172-.17187.17577-.35156.11328-.23047.1172-.29297.35155-.75781.1172-.23047.17187-.23438h.17578l.11719-.0586h.64062l.11719.0586.23437.23438.17188.11328.35156.29297.11719.11718.11328.17579v.11328l.11719.05859.11718.11719v.69922l-.05859.17578v.23047l-.0586.17578-.34765 1.05078-.11719.23047-.11719.23437-.11718.0586-.23047.23437-.64063.28906h-.875l-.41015-.11718-.64063-.46485"/><path fill="none" stroke="#bebebe" stroke-linecap="round" stroke-linejoin="round" stroke-miterlimit="10" stroke-width=".5" d="M467.95703 311.69531H144.02734v168.625h323.9297v-168.625"/><g clip-path="url(#a)"><path fill="#fff" fill-opacity="0" fill-rule="evenodd" d="M144 475.89063v4.2539-168.47265h.0039H144v164.21875"/></g><g clip-path="url(#b)"><path fill="#50fcfc" fill-rule="evenodd" d="M144.0039 480.32813v-.1797l.08204.1797h-.08203"/></g><g clip-path="url(#c)"><path fill="#fff" fill-opacity="0" fill-rule="evenodd" d="M144.0039 480.14844V311.67188h88.76173v105.74218l-2.67188.77735-1.76563 1.58203-4.4375.88672-4.4375 1.05859-4.4375-1.92578-2.0039 2.83594-1.3125 4.4414-1.125.4336-4.4375.4414-4.4375.09375-1.54688-.96875-2.89062-4.16015-4.4414.57812-4.4375 2.0664-3.54688 1.51563-.89063.25-4.4375 1.10938-3.76172 3.07812-.67968.4336-4.4375 1.14453-3.21875 2.85937-1.21875.44531-4.4375.75782-3.62891 3.23437-.8086 4.27735-.11718.16015-3.08594 4.4414-1.23828 3.01563-2.16016 1.42188 1.5625 4.4375.59766.6289 1.14453 3.8086 3.29688 2.46094 4.4375.9453 4.4375-.92968 4.4375.24219 4.4375-.23438 4.4414-.45312 4.4375-1.33203.95313-.69922 3.48437-1.11719 4.4375-.16406 4.4414-1.01172 4.4375-.46484 4.4375-.69532 2.56642-.98437 1.87109-.36719 4.4414-.3125 4.4375-1.89062 4.4375.07812 4.4375-1.24219 1.06641-.70312 3.3711-2.92578 2.86328-1.51172 1.57812-1.13672 4.3789-3.30469.0586-.01562 4.4375-3.19531 1.20703-1.22657-1.20703-1.64062-3.45312-2.79688-.98438-1.41015-4.4375-2.4922-.92187-.53515-1.75-4.4375.02343-4.4414.97266-4.4375-2.76563-.77735V311.67187h26.63282v122.64844l-1.76563 1.625 1.76563.91406.8711-.91406-.8711-1.625V311.67187h8.875v117.9336l-1.7461 1.90234 1.7461 1.47266 1.64453-1.47266-1.64453-1.90234v-117.9336h106.51953v135.1172l-2.33203 2.47265 2.33203 2.39844 2.27734-2.39844-2.27734-2.47266V311.67187h13.3164V457.4336l-.83984.70313-3.41406 4.4375 4.2539 4.09375 3.89454-4.09375-.4375-4.4375-3.45704-.70313V311.67188h79.88672v168.65625h-32.15625l-3.34765-3.3672-3.29688 3.3672H144.08594l-.08203-.1797"/></g><path fill="#50fcfc" fill-rule="evenodd" d="M152.27734 458.13672l-1.5625-4.4375 2.16016-1.42188 1.23828-3.01562 3.08594-4.4414.11719-.16016.80859-4.27735 3.6289-3.23437 4.4375-.75781 1.21876-.44532 3.21875-2.85937 4.4375-1.14453.67968-.4336 3.76172-3.07812 4.4375-1.10938.89063-.25 3.54687-1.51562 4.4375-2.0664v3.5625l-.03125.01952-4.40625 3.57422-4.4375-.33594-4.4375.60547-.72265.59375-3.71875 2.39063-4.4375 1.70703-.38282.33984-4.05468 1.48438-4.4375 1.55078-1.57422 1.40234-2.30469 4.4375-.4414 4.4414-.1172 1.23048-1.47265 3.20703.36328 4.4375 1.10938 2.0664 1.3125 2.3711 3.125 1.58984 3.35547-1.58984 1.08203-.28125 4.4375.21484 4.4375-.24219 4.4414-.72656 4.4375-1.0039 4.4375-1.72657 4.4375.2422 2.20703-.91407 2.23438-1.1914 4.4375-.9922 4.4375-.42968 4.4375-.48438 4.4414-.92187.66797-.41797 3.76953-3.58985 4.4375.3047 2.60547-1.15235-2.60547-1.13672-4.4375-1.60938-4.4375 1.22266-4.07812 1.52344-.36328.3125-4.4375.48828-4.4375.90625-2.41797-1.70703-.94531-4.4414 1.27734-4.4375-2.35156-4.35548-.03125-.08203-3.89063-4.4375-.48828-4.4375-.03125-.01953v-3.5625l4.4414-.57812 2.89063 4.16015 1.54688.96875 4.4375-.09375v7.47656l-2.20313.52344 2.20313.375 1.91797-.375-1.91797-.52344v-7.47656l4.4375-.4414 1.125-.4336 1.3125-4.4414 2.0039-2.83594 4.4375 1.92578v3.94922l-1.47265 1.40234 1.47266 1.55078 4.4375-.29687v5.8789l-4.4375.25782-.5625 1.48437.5 4.4375.0625.01563.04296-.01563L223.89062 438l2.65625 2.38281 1.78125 4.05078 4.4375-2.08984 1.28516-1.96094-1.28516-.67578-3.85937-3.76172-.57813-.625-4.4375-1.11719v-5.8789l4 3.1836.4375.22656 3.91016 4.21093.52734.51563 2.02735-.51563-2.02734-.96484-3.9961-3.47266-.4414-.5-3.05079-3.9375-1.38672-.97265-4.4375-.4297v-3.94921l4.4375-1.0586 4.4375-.88671 1.76563-1.58203 2.67188-.77735 2.76562.77735-.97266 4.4375-.02343 4.4414 1.75 4.4375.92187.53516 4.4375 2.49219v5.62109l-.41016.22656.41016.20703.2539-.20703-.2539-.22656v-5.6211l.98438 1.41016 3.45312 2.79688 1.20703 1.64062-1.20703 1.22656-4.4375 3.19532-.0586.01562-4.3789 3.30469-1.57812 1.13672-2.86328 1.51172-3.3711 2.92578-1.0664.70312-4.4375 1.2422-4.4375-.07813-4.4375 1.89062-4.44141.3125-1.8711.36719-2.5664.98437-4.4375.69532-4.4375.46484-4.4414 1.01172-4.4375.16406-3.48438 1.11719-.95313.69922-4.4375 1.33203-4.4414.45312-4.4375.23438-4.4375-.24219-4.4375.92969-4.4375-.94531-3.29688-2.46094-1.14453-3.8086-.59766-.6289"/><path fill="#00e8fc" fill-rule="evenodd" d="M156.20703 458.13672l-.36328-4.4375 1.47266-3.20703.11718-1.23047.44141-4.4414 2.30469-4.4375 1.57422-1.40235 4.4375-1.55078 4.05468-1.48438.38282-.33984 4.4375-1.70703 3.71875-2.39063.72265-.59375v4.8711l-.35547.16015-4.08593 2.57422-4.4375 1.04688-4.4375-.40625-2.51563 1.22265-1.92187.66016-2.9375 3.77734-.15235 4.4414-.33594 4.4375.29297 4.4375 3.13282 3.5625 4.4375-1.0703 4.4375-.17579 4.4375-.29687 4.39843-2.01953.04297-.13672 4.4375-1.80469 4.4375-2.19922 1.57031-.29687-1.5703-1.89453-.55079-2.54297.55078-1.20703 1.1289-3.23438-1.1289-3.28906-2.71094-1.14844-1.72656-.35156-4.19922-4.08594-.23828-.16015v-4.8711l4.4375-.60547 4.4375.33594 4.40625-3.57422.03125-.01953.03125.01953.48828 4.4375 3.89063 4.4375.03125.08203 2.35156 4.35547-1.27734 4.4375.94531 4.4414 2.41797 1.70704 4.4375-.90625 4.4375-.48828.36328-.3125 4.07813-1.52344 4.4375-1.22265 4.4375 1.60937 2.60546 1.13672-2.60547 1.15234-4.4375-.30469-3.76953 3.58985-.66797.41797-4.4414.92187-4.4375.48438-4.4375.42969-4.4375.99218-2.23438 1.1914-2.20703.91407-4.4375-.24219-4.4375 1.72657-4.4375 1.0039-4.4414.72656-4.4375.2422-4.4375-.21485-1.08203.28125-3.35547 1.58984-3.125-1.58984-1.3125-2.3711-1.10938-2.0664"/><path fill="#00d4fc" fill-rule="evenodd" d="M158.6211 458.13672l-.29298-4.4375.33594-4.4375.15235-4.4414 2.9375-3.77735 1.92187-.66016 2.51563-1.22265v2.97656l-4.4375.1211-1.9922 2.5625.13673 4.4414-.21875 4.4375.5586 4.4375 1.51562 1.72265 4.4375-.89843 4.4375-.5625 3.35937-.26172-.36719-4.4375-.21484-4.4375-1.72266-4.4414-1.05468-.9375-4.4375-1.7461v-2.97656l4.4375.40625 4.4375-1.04688 4.08593-2.57422.35547-.16015.23828.16015 4.19922 4.08594 1.72656.35156 2.71094 1.14844 1.1289 3.28906-1.1289 3.23438-.55078 1.20703.55078 2.54297 1.57031 1.89453-1.5703.29687-4.4375 2.19922L179.50781 458l-.04298.13672-4.39843 2.01953-4.4375.29688-4.4375.17578-4.4375 1.0703-3.13282-3.5625"/><path fill="#00c4fc" fill-rule="evenodd" d="M160.23828 458.13672l-.5586-4.4375.21876-4.4375-.13672-4.4414 1.99219-2.5625v1.21874l-1.04688 1.34375.42188 4.4414-.09766 4.4375.72266 3.96095 2.91797-3.96094-.73438-4.4375.78125-4.4414-2.96484-1.34376v-1.21875l4.4375-.1211 4.4375 1.7461 1.05468.9375 1.72266 4.4414.21484 4.4375.3672 4.4375-3.35938.26173-4.4375.5625-4.4375.89844-1.51563-1.72266"/><path fill="#00b8fc" fill-rule="evenodd" d="M161.1289 449.26172l-.42187-4.4414 1.04688-1.34376v1.21485l-.10157.1289.10157.79297.28515-.79297-.28515-.1289v-1.21485l2.96484 1.34375-.78125 4.4414.73438 4.4375-2.91797 3.96095-.72266-3.96094.09766-4.4375"/><path fill="#00a8fc" fill-rule="evenodd" d="M161.7539 445.61328l-.10156-.79297.10157-.1289.28515.1289-.28515.79297"/><path fill="#00e8fc" fill-rule="evenodd" d="M206.13672 436.32031l-2.20313-.375 2.20313-.52344 1.91797.52344-1.91797.375m13.3164-7.69922l-1.47265-1.55078 1.47266-1.40234 4.4375.42969 1.38671.97265 3.05078 3.9375.44141.5 3.9961 3.47266 2.02734.96484-2.02734.51563-.52735-.51563-3.91016-4.21094-.4375-.22656-4-3.1836-4.4375.29688"/><path fill="#fff" fill-opacity="0" fill-rule="evenodd" d="M219.45313 434.46094l-.5625 1.48437.5 4.4375.0625.01563.04296-.01563L223.89062 438l2.65625 2.38281 1.78125 4.05078 4.4375-2.08984 1.28516-1.96094-1.28516-.67578-3.85937-3.76172-.57813-.625-4.4375-1.11719-4.4375.25782"/><path fill="#00e8fc" fill-rule="evenodd" d="M241.64453 440.58984l-.41016-.20703.41016-.22656.2539.22656-.2539.20703"/><path fill="#50fcfc" fill-rule="evenodd" d="M259.39844 436.85938l-1.76563-.91407 1.76563-1.625.8711 1.625-.8711.91406m8.875-3.8789l-1.7461-1.47266 1.7461-1.90234 1.64453 1.90234-1.64453 1.47266m106.51953 18.67969l-2.33203-2.39844 2.33203-2.47266 2.27734 2.47266-2.27734 2.39844m13.3164 15.0078l-4.2539-4.09374 3.41406-4.4375.83985-.70313v2.2461l-2.66797 2.89453 2.66796 2.5664 2.44141-2.5664-2.4414-2.89453v-2.2461l3.45703.70313.4375 4.4375-3.89454 4.09375"/><path fill="#00e8fc" fill-rule="evenodd" d="M388.10938 465.14063l-2.66797-2.56641 2.66796-2.89453v2.8711l-.02343.02343.02344.02344.01953-.02344-.01954-.02344v-2.8711l2.44141 2.89454-2.4414 2.5664"/><path fill="#00d4fc" fill-rule="evenodd" d="M388.10938 462.59766l-.02344-.02344.02344-.02344.01953.02344-.01954.02344"/><g clip-path="url(#d)"><path fill="#50fcfc" fill-rule="evenodd" d="M429.19531 480.32813h1.71094l1.58594-1.6172 1.60937 1.6172h1.73828l-3.34765-3.3672-3.29688 3.3672"/></g><g clip-path="url(#e)"><path fill="#00e8fc" fill-rule="evenodd" d="M430.90625 480.32813h3.19531l-1.60937-1.6172-1.58594 1.6172"/></g><g clip-path="url(#f)"><path fill="#fff" fill-opacity="0" fill-rule="evenodd" d="M467.9961 480.32813H468V311.67188h-.0039H468v168.65625h-.0039"/></g><path fill="#fff" fill-opacity="0" fill-rule="evenodd" d="M235.69531 435.99219l4.32813 3.92187 6.6875-7.38281-4.32813-3.92188-6.6875 7.38282"/><path fill-rule="evenodd" d="M243.7461 432.3164l.3789.33985-4.22656 4.66797-.58594-.52735 3.01563-3.32812-1.02735-.9336.3711-.41015.45703.32813.22656.1289.22656.08594.2461.03125.27343-.03906.30078-.1211.34375-.22265"/><g clip-path="url(#g)"><path fill="none" stroke="#000" stroke-linecap="round" stroke-linejoin="round" stroke-miterlimit="10" stroke-width=".5" d="M147.51172 480.3711l-7.02344-.08594"/></g><g clip-path="url(#h)"><path fill="none" stroke="#000" stroke-linecap="round" stroke-linejoin="round" stroke-miterlimit="10" stroke-width=".5" d="M147.51172 480.3711l1.1289 2.17968"/></g><g clip-path="url(#i)"><path fill="none" stroke="#000" stroke-linecap="round" stroke-linejoin="round" stroke-miterlimit="10" stroke-width=".5" d="M146.49219 480.35938l.5625 1.08984"/></g><g clip-path="url(#j)"><path fill="none" stroke="#000" stroke-linecap="round" stroke-linejoin="round" stroke-miterlimit="10" stroke-width=".5" d="M160.82422 480.4961l-7.01953-.33594"/></g><g clip-path="url(#k)"><path fill="none" stroke="#000" stroke-linecap="round" stroke-linejoin="round" stroke-miterlimit="10" stroke-width=".5" d="M160.82422 480.4961l1.04687 2.22265"/></g><g clip-path="url(#l)"><path fill="none" stroke="#000" stroke-linecap="round" stroke-linejoin="round" stroke-miterlimit="10" stroke-width=".5" d="M159.80469 480.44922l.52344 1.10937"/></g><g clip-path="url(#m)"><path fill="none" stroke="#000" stroke-linecap="round" stroke-linejoin="round" stroke-miterlimit="10" stroke-width=".5" d="M174.13672 480.5625l-7.01172-.46484"/></g><g clip-path="url(#n)"><path fill="none" stroke="#000" stroke-linecap="round" stroke-linejoin="round" stroke-miterlimit="10" stroke-width=".5" d="M174.13672 480.5625l1.0039 2.23828"/></g><g clip-path="url(#o)"><path fill="none" stroke="#000" stroke-linecap="round" stroke-linejoin="round" stroke-miterlimit="10" stroke-width=".5" d="M173.11719 480.49219l.5 1.1211"/></g><g clip-path="url(#p)"><path fill="none" stroke="#000" stroke-linecap="round" stroke-linejoin="round" stroke-miterlimit="10" stroke-width=".5" d="M187.45703 480.36328l-7.02344-.07031"/></g><g clip-path="url(#q)"><path fill="none" stroke="#000" stroke-linecap="round" stroke-linejoin="round" stroke-miterlimit="10" stroke-width=".5" d="M187.45703 480.36328l1.13281 2.17578"/></g><g clip-path="url(#r)"><path fill="none" stroke="#000" stroke-linecap="round" stroke-linejoin="round" stroke-miterlimit="10" stroke-width=".5" d="M186.4375 480.35156l.5625 1.08985"/></g><g clip-path="url(#s)"><path fill="none" stroke="#000" stroke-linecap="round" stroke-linejoin="round" stroke-miterlimit="10" stroke-width=".5" d="M200.76953 480.17969l-7.01953.29687"/></g><g clip-path="url(#t)"><path fill="none" stroke="#000" stroke-linecap="round" stroke-linejoin="round" stroke-miterlimit="10" stroke-width=".5" d="M200.76953 480.17969l1.24219 2.11719"/></g><g clip-path="url(#u)"><path fill="none" stroke="#000" stroke-linecap="round" stroke-linejoin="round" stroke-miterlimit="10" stroke-width=".5" d="M199.75 480.22266l.6211 1.05859"/></g><g clip-path="url(#v)"><path fill="none" stroke="#000" stroke-linecap="round" stroke-linejoin="round" stroke-miterlimit="10" stroke-width=".5" d="M214.08594 480.42969l-7.02344-.20313"/></g><g clip-path="url(#w)"><path fill="none" stroke="#000" stroke-linecap="round" stroke-linejoin="round" stroke-miterlimit="10" stroke-width=".5" d="M214.08594 480.42969l1.08984 2.19922"/></g><g clip-path="url(#x)"><path fill="none" stroke="#000" stroke-linecap="round" stroke-linejoin="round" stroke-miterlimit="10" stroke-width=".5" d="M213.0664 480.39844l.54298 1.10156"/></g><g clip-path="url(#y)"><path fill="none" stroke="#000" stroke-linecap="round" stroke-linejoin="round" stroke-miterlimit="10" stroke-width=".5" d="M227.39844 480.5039l-7.01563-.35156"/></g><g clip-path="url(#z)"><path fill="none" stroke="#000" stroke-linecap="round" stroke-linejoin="round" stroke-miterlimit="10" stroke-width=".5" d="M227.39844 480.5039l1.04297 2.22266"/></g><g clip-path="url(#A)"><path fill="none" stroke="#000" stroke-linecap="round" stroke-linejoin="round" stroke-miterlimit="10" stroke-width=".5" d="M226.3789 480.45313l.51954 1.11328"/></g><g clip-path="url(#B)"><path fill="none" stroke="#000" stroke-linecap="round" stroke-linejoin="round" stroke-miterlimit="10" stroke-width=".5" d="M240.71875 480.25l-7.02734.15625"/></g><g clip-path="url(#C)"><path fill="none" stroke="#000" stroke-linecap="round" stroke-linejoin="round" stroke-miterlimit="10" stroke-width=".5" d="M240.71875 480.25l1.19922 2.14063"/></g><g clip-path="url(#D)"><path fill="none" stroke="#000" stroke-linecap="round" stroke-linejoin="round" stroke-miterlimit="10" stroke-width=".5" d="M239.69531 480.27344l.60156 1.07031"/></g><g clip-path="url(#E)"><path fill="none" stroke="#000" stroke-linecap="round" stroke-linejoin="round" stroke-miterlimit="10" stroke-width=".5" d="M254.00781 479.89453l-6.97265.86719"/></g><g clip-path="url(#F)"><path fill="none" stroke="#000" stroke-linecap="round" stroke-linejoin="round" stroke-miterlimit="10" stroke-width=".5" d="M254.00781 479.89453l1.41016 2.00781"/></g><g clip-path="url(#G)"><path fill="none" stroke="#000" stroke-linecap="round" stroke-linejoin="round" stroke-miterlimit="10" stroke-width=".5" d="M252.99219 480.01953l.70703 1.0039"/></g><g clip-path="url(#H)"><path fill="none" stroke="#000" stroke-linecap="round" stroke-linejoin="round" stroke-miterlimit="10" stroke-width=".5" d="M267.32031 479.8711l-6.96875.91796"/></g><g clip-path="url(#I)"><path fill="none" stroke="#000" stroke-linecap="round" stroke-linejoin="round" stroke-miterlimit="10" stroke-width=".5" d="M267.32031 479.8711l1.42188 1.99609"/></g><g clip-path="url(#J)"><path fill="none" stroke="#000" stroke-linecap="round" stroke-linejoin="round" stroke-miterlimit="10" stroke-width=".5" d="M266.30469 480.0039l.71484 1"/></g><g clip-path="url(#K)"><path fill="none" stroke="#000" stroke-linecap="round" stroke-linejoin="round" stroke-miterlimit="10" stroke-width=".5" d="M280.66016 480.13281l-7.01953.39063"/></g><g clip-path="url(#L)"><path fill="none" stroke="#000" stroke-linecap="round" stroke-linejoin="round" stroke-miterlimit="10" stroke-width=".5" d="M280.66016 480.13281l1.26953 2.10156"/></g><g clip-path="url(#M)"><path fill="none" stroke="#000" stroke-linecap="round" stroke-linejoin="round" stroke-miterlimit="10" stroke-width=".5" d="M293.96875 480.0586l-7.00781.53906"/></g><g clip-path="url(#N)"><path fill="none" stroke="#000" stroke-linecap="round" stroke-linejoin="round" stroke-miterlimit="10" stroke-width=".5" d="M293.96875 480.0586l1.3164 2.07421"/></g><g clip-path="url(#O)"><path fill="none" stroke="#000" stroke-linecap="round" stroke-linejoin="round" stroke-miterlimit="10" stroke-width=".5" d="M307.29297 480.38281l-7.02344-.10547"/></g><g clip-path="url(#P)"><path fill="none" stroke="#000" stroke-linecap="round" stroke-linejoin="round" stroke-miterlimit="10" stroke-width=".5" d="M306.27344 480.36719l.5586 1.08984"/></g><g clip-path="url(#Q)"><path fill="none" stroke="#000" stroke-linecap="round" stroke-linejoin="round" stroke-miterlimit="10" stroke-width=".5" d="M320.52344 481.10938l-6.85156-1.5586"/></g><g clip-path="url(#R)"><path fill="none" stroke="#000" stroke-linecap="round" stroke-linejoin="round" stroke-miterlimit="10" stroke-width=".5" d="M319.52344 480.88281l.32422 1.1836"/></g><g clip-path="url(#S)"><path fill="none" stroke="#000" stroke-linecap="round" stroke-linejoin="round" stroke-miterlimit="10" stroke-width=".5" d="M333.89063 480.8164l-6.96094-.97656"/></g><g clip-path="url(#T)"><path fill="none" stroke="#000" stroke-linecap="round" stroke-linejoin="round" stroke-miterlimit="10" stroke-width=".5" d="M332.8789 480.67578l.41798 1.15235"/></g><g clip-path="url(#U)"><path fill="none" stroke="#000" stroke-linecap="round" stroke-linejoin="round" stroke-miterlimit="10" stroke-width=".5" d="M347.19922 479.8086l-6.94922 1.03906"/></g><g clip-path="url(#V)"><path fill="none" stroke="#000" stroke-linecap="round" stroke-linejoin="round" stroke-miterlimit="10" stroke-width=".5" d="M346.1914 479.96094l.72657.98437"/></g><g clip-path="url(#W)"><path fill="none" stroke="#000" stroke-linecap="round" stroke-linejoin="round" stroke-miterlimit="10" stroke-width=".5" d="M360.44531 479.45703l-6.8086 1.7461"/></g><g clip-path="url(#X)"><path fill="none" stroke="#000" stroke-linecap="round" stroke-linejoin="round" stroke-miterlimit="10" stroke-width=".5" d="M359.45313 479.71094l.82812.90625"/></g><g clip-path="url(#Y)"><path fill="none" stroke="#000" stroke-linecap="round" stroke-linejoin="round" stroke-miterlimit="10" stroke-width=".5" d="M373.70313 479.2539l-6.69141 2.14844"/></g><g clip-path="url(#Z)"><path fill="none" stroke="#000" stroke-linecap="round" stroke-linejoin="round" stroke-miterlimit="10" stroke-width=".5" d="M372.72656 479.5664l.88281.85548"/></g><g clip-path="url(#aa)"><path fill="none" stroke="#000" stroke-linecap="round" stroke-linejoin="round" stroke-miterlimit="10" stroke-width=".5" d="M386.82422 478.78125l-6.3086 3.09766"/></g><g clip-path="url(#ab)"><path fill="none" stroke="#000" stroke-linecap="round" stroke-linejoin="round" stroke-miterlimit="10" stroke-width=".5" d="M398.96875 483.22656l-3.96484-5.79687"/></g><g clip-path="url(#ac)"><path fill="none" stroke="#000" stroke-linecap="round" stroke-linejoin="round" stroke-miterlimit="10" stroke-width=".5" d="M410.125 483.83984l.35156-7.01953"/></g><g clip-path="url(#ad)"><path fill="none" stroke="#000" stroke-linecap="round" stroke-linejoin="round" stroke-miterlimit="10" stroke-width=".5" d="M427.01953 481.19531l-6.8086-1.73437"/></g><g clip-path="url(#ae)"><path fill="none" stroke="#000" stroke-linecap="round" stroke-linejoin="round" stroke-miterlimit="10" stroke-width=".5" d="M426.03125 480.94531l.28906 1.1914"/></g><g clip-path="url(#af)"><path fill="none" stroke="#000" stroke-linecap="round" stroke-linejoin="round" stroke-miterlimit="10" stroke-width=".5" d="M440.10547 481.83984l-6.34766-3.01953"/></g><g clip-path="url(#ag)"><path fill="none" stroke="#000" stroke-linecap="round" stroke-linejoin="round" stroke-miterlimit="10" stroke-width=".5" d="M452.84766 482.6914l-5.19922-4.72656"/></g><g clip-path="url(#ah)"><path fill="none" stroke="#000" stroke-linecap="round" stroke-linejoin="round" stroke-miterlimit="10" stroke-width=".5" d="M465.83984 483.0039l-4.55859-5.34765"/></g><g clip-path="url(#ai)"><path fill="none" stroke="#000" stroke-linecap="round" stroke-linejoin="round" stroke-miterlimit="10" stroke-width=".5" d="M147.51172 467.16406l-7.02344-.30078"/></g><path fill="none" stroke="#000" stroke-linecap="round" stroke-linejoin="round" stroke-miterlimit="10" stroke-width=".5" d="M147.51172 467.16406l1.05469 2.21485m12.2539-2.14063l-7.01172-.44922m7.01172.44922l1.01172 2.23438m12.3125-2.48047l-7.02734.04297m7.02734-.04297l1.16406 2.16015m12.14844-2.27343l-7.02344.26953m7.02344-.26953l1.23438 2.11718m12.02734-2.58984l-6.91797 1.21875m6.91797-1.21875l1.51172 1.9336m11.73047-2.26563l-6.76953 1.88281m6.76953-1.88281l1.6914 1.77734m-2.67578-1.5039l.84375.88671M227.25 465.9922l-6.72266 2.04297m6.72266-2.04297l1.73438 1.73437m-2.71094-1.4375l.86719.86719m13.42578-1.16406l-6.72266 2.04297m6.72266-2.04297l1.73437 1.73828m-2.71094-1.4414l.86328.87109m13.40625-1.23438l-6.67968 2.17578m6.67969-2.17578l1.76953 1.70313m-2.73828-1.38672l.8828.85156m13.48048-.88672l-6.83594 1.61328m6.83594-1.61328l1.62109 1.84375m-2.61328-1.60937l.8086.92187M280.51561 466l-6.73046 2.02734M280.51562 466l1.72657 1.74219m-2.70703-1.44532l.86328.8711m13.30468-1.52344l-6.47265 2.73828m6.47265-2.73828l1.90235 1.54688m-2.84375-1.14844l.94922.77344m13.30469-1.17579l-6.46875 2.7461m6.46875-2.7461l1.90625 1.54688m11.23046-1.90625l-6.11328 3.46484m6.11328-3.46484l2.07032 1.3164m11.01171-1.67187l-5.64843 4.17578m5.64844-4.17578l2.21484 1.05469m10.97656-1.21485l-5.40234 4.4961m5.40234-4.4961l2.27344.9297m10.86328-1.12891l-5.04297 4.89453m5.04297-4.89453l2.33594.75m9.92187-1.4961l-2.92578 6.38672m2.92578-6.38672l2.44922-.14844m9-.14843l.80469 6.98047m-.6875-5.96485l1.01172-.69531m10.82422.1289l3.52734 6.08204m8.28125-1.7539l6.53906-2.57423m12.33594 3.95313l-4.57813-5.33203m18.51954 4.625l-5.83204-3.91797M439 468.40234l-.1289 1.22266m13.72656 0l-4.69922-5.22266m4.01562 4.46485l-.42187 1.15234m15.1914-1.39062l-6.24218-3.23047m5.33203 2.76172l.01562 1.22656"/><g clip-path="url(#aj)"><path fill="none" stroke="#000" stroke-linecap="round" stroke-linejoin="round" stroke-miterlimit="10" stroke-width=".5" d="M147.51172 453.74219l-7.02344-.08985"/></g><path fill="none" stroke="#000" stroke-linecap="round" stroke-linejoin="round" stroke-miterlimit="10" stroke-width=".5" d="M147.51172 453.74219l1.125 2.1836m12.1914-2.34376l-7.02343.23438m6-.19922l.61328 1.0625m13.71875-1.20313l-7.01172.44532m5.99219-.38282l.64062 1.04688m13.6289-1.59766l-6.8828 1.41797m5.8828-1.21094l.78126.94531m12.91016-2.53906l-5.63672 4.19531m4.8164-3.58593l1.10938.52344m13.26562-.76954l-6.11328 3.46875m5.22266-2.96484l1.03515.66016m13.41407-.63672l-6.60157 2.41015m5.64063-2.05859l.91406.82031m12.76172-2.21484l-5.39844 4.5m5.39844-4.5l2.26953.92578m-3.05469-.26953l1.13282.46094m12.94922-1.13672l-5.36329 4.53906m5.36328-4.53906l2.27735.90625m-3.0586-.2461l1.14063.45313m13.24219-.72266l-5.9375 3.75782m5.9375-3.75782l2.13281 1.21485m-2.9961-.66797l1.06641.60937m13.07813-1.21093l-5.86719 3.86718m5.86719-3.86718l2.15234 1.17578m-3.00781-.61328l1.07812.58593m13.19141-.98828l-6.0664 3.54688m6.0664-3.54688l2.08594 1.28906m-2.96875-.77343l1.04297.64453m13.03906-1.34375l-5.83594 3.91015m5.83594-3.91015l2.16406 1.16015m-3.01172-.58984l2.16016 1.16016m12.04297-1.67188l-5.91797 3.79297m5.91797-3.79297l2.13672 1.20313m-3-.64844l1.0703.59766m13.16798-1.0547L327.39453 455.5m6.03516-3.60156l2.09765 1.26953m-2.97656-.7461l1.05078.63672m13.09375-1.23828l-5.9375 3.7539m5.9375-3.7539l2.13281 1.21485m-2.99609-.66797l1.0664.60937m12.96094-1.375l-5.63671 4.19532m5.63671-4.19532l2.21875 1.04688m-3.03906-.4375l1.10938.52344m12.5625-1.64454l-4.70703 5.21875m4.70703-5.21875l2.3789.59375m9.08985-1.46093l-1.01563 6.95312m.86719-5.9414l1.15625-.41407m8.66406 1.28907l6.26953 3.17578m-5.35546-2.71094l-.02735-1.22656m12.15625 3.21875l6.8125-1.73438m-5.82031 1.48047l-.82422-.90625m13.05078.58594l7.0039-.58594m-5.98437.5l-.66406-1.03125m19.28125-1.27344l-5.63672 4.19532m14.05469-4.9336l4.15625 5.66797m-3.55078-4.83984l.53515-1.10547m17.75 2.7539l-6.99218.71875m5.97265-.61328l.6836 1.01563"/><g clip-path="url(#ak)"><path fill="none" stroke="#000" stroke-linecap="round" stroke-linejoin="round" stroke-miterlimit="10" stroke-width=".5" d="M147.5 440.07031l-7 .625"/></g><path fill="none" stroke="#000" stroke-linecap="round" stroke-linejoin="round" stroke-miterlimit="10" stroke-width=".5" d="M147.5 440.07031l1.33984 2.05469m11.78125-2.92969l-6.61328 2.375m6.61328-2.375l1.81641 1.64844m11.63672-1.16406l-6.88672 1.40625m6.88672-1.40625l1.5625 1.89062m11.79297-1.63281l-6.96875.89063m6.96875-.89063l1.41797 2.0039m11.71093-2.76952l-6.59765 2.42187m5.63672-2.07031l.91406.82031m13.375-1.13672l-6.6211 2.35156m5.65625-2.0078l.90625.82812m13.26954-1.4297l-6.41407 2.8672m5.48047-2.44922l.96875.7539m12.69922-2.0703l-5.2539 4.66796m4.48828-3.98828l1.15234.42578m13.07031-.9375l-5.53515 4.32813m5.53515-4.32813l2.24219.9961m11.16016-.875l-5.71094 4.08984m5.71094-4.08985l2.19922 1.08985m11.18359-.99219l-5.84766 3.89453m5.84766-3.89453l2.16015 1.16406m-3.01171-.59765l1.08203.58203m12.72265-1.60938l-5.12109 4.8125m5.1211-4.8125l2.3203.78907m11.1875-.5625l-5.5078 4.35937m5.5078-4.35937l2.25.98437m-3.05077-.35156l1.125.49219m12.86718-1.26954l-5.26172 4.65235m5.26172-4.65235l2.30078.85938m-3.0664-.1836l1.15234.4297m12.78125-1.26563l-4.96875 4.96875m4.96875-4.96875l2.34766.71875m-3.07031.0039l1.17578.35938m12.83593-1.10938l-4.91406 5.02344m4.91406-5.02344l2.35547.69532m-3.07031.03515l1.17578.34766m11.9336-1.72656l-3.07422 6.3203m3.07422-6.3203l2.45312-.08594m10.40234-.09766l-2.15625 6.6875m2.15625-6.6875l2.41797-.42968m10.52735.33203l-1.41407 6.8828m1.41407-6.8828l2.35156-.69141m8.57812 1.04688l3.35547 6.17578m-2.86718-5.27735l.67578-1.02343m10.51172 2.05468l6.6328 2.3164m-6.6328-2.3164l-.375-2.42578m14.53515 1.08594l4.94531 4.99219m-4.22656-4.26563l.36719-1.17187m17.11328.38672l-4.82422 5.10937m4.1211-4.36719l1.18359.32422m13.23828 3.59375l-5.6289-4.20703m19.47656 3.16797l-6.69532-2.13281m5.71875 1.82421l.22266 1.20704"/><g clip-path="url(#al)"><path fill="none" stroke="#000" stroke-linecap="round" stroke-linejoin="round" stroke-miterlimit="10" stroke-width=".5" d="M147.51172 426.91797l-7.02344.30078"/></g><path fill="none" stroke="#000" stroke-linecap="round" stroke-linejoin="round" stroke-miterlimit="10" stroke-width=".5" d="M147.51172 426.91797l1.24219 2.11328m11.98437-2.7539l-6.84766 1.58202m6.84766-1.58203l1.60938 1.85157m11.67578-1.96485l-6.78906 1.8086m6.78906-1.8086l1.67187 1.79688m11.54297-2.11719l-6.58594 2.44922m6.58594-2.44922l1.83594 1.63281m11.125-2.33203l-5.8789 3.84766m5.02343-3.28906l1.07422.59375m12.8711-1.46094l-5.42579 4.46484m4.63672-3.8164l1.13281.46875m13.6875 1.8828l-6.85937-1.53515m5.85937 1.3125l.32813 1.17969m11.57812-1.72266l-.01953-.20312-.0586-.1914-.09374-.17579-.45703-.375-.19141-.0586-.19922-.01952-.19922.01953-.19531.05859-.45703.375-.09375.17578-.0586.1914-.01953.20313.01953.19922.0586.1914.09375.17579.45703.375.19531.0586.19922.01952.19922-.01953.1914-.0586.45704-.375.09375-.17577.0586-.1914.01952-.19923m15.58594-1.23437l-6.58203 2.46484m5.625-2.10547l.91797.8125m13.35937-1.14843l-6.59375 2.41796m5.63672-2.0664l.91406.8164m12.83985-2.10937l-5.5586 4.30078m4.75-3.67187l1.1172.5039m12.7539-1.42187l-5.05469 4.8789m5.05469-4.8789l2.33594.7578m11.47265-.11327l-6.04297 3.58984m6.04297-3.58984l2.09766 1.27734m-2.97656-.7539l1.05078.63671m12.83984-1.59375l-5.4336 4.45704m5.4336-4.45704l2.26563.94532m-3.0547-.29688l1.12891.47266m12.90625-1.20313l-5.29296 4.6211m5.29296-4.6211l2.29297.875m-3.0625-.20312l1.14453.4375m12.72657-1.33203l-4.8672 5.0664m4.8672-5.0664l2.35937.67187m-3.0664.0664l1.17968.33595m13.05469-.85157l-5.29297 4.6211m5.29297-4.6211l2.29297.875m-3.0625-.20312l2.29297.875m12.125-1.09375l-5.96094 3.71875m5.96094-3.71875l2.125 1.22656m-2.99219-.6875l2.125 1.23047m11.69922-2.25l-5.24219 4.67969m5.24219-4.6797l2.30078.84767m-3.0625-.16797l1.14844.42578m13.55469-.10938l-6.4961 2.6836m6.4961-2.6836l1.89062 1.5664m-2.83594-1.17577l1.89063 1.5664m12.3164-2.08203l-6.38671 2.9336m6.38671-2.9336l1.94922 1.48828m-2.8789-1.0625l.97265.7461m13.16797-1.375l-6.17969 3.33984m6.1797-3.33984l2.04296 1.35937m-2.9414-.875l1.01953.67969m13.07812-1.36719l-5.94922 3.7461m5.94922-3.7461l2.1289 1.22266m-2.99609-.67578l1.0664.60937m13.51563 1.69922l-6.75-1.96484m6.75 1.96484l.5 2.40235m12.875-2.63672l-6.86718-1.4961m6.86718 1.4961l.66407 2.36328"/><g clip-path="url(#am)"><path fill="none" stroke="#000" stroke-linecap="round" stroke-linejoin="round" stroke-miterlimit="10" stroke-width=".5" d="M147.5039 414.02344l-7.0078-.54297"/></g><path fill="none" stroke="#000" stroke-linecap="round" stroke-linejoin="round" stroke-miterlimit="10" stroke-width=".5" d="M147.5039 414.02344l.98048 2.25m12.28515-3.16797l-6.90625 1.29297m5.90234-1.10157l.76172.95704M173.91016 412.5l-6.5625 2.50781m6.5625-2.50781l1.85156 1.60937m11.53516-1.41406l-6.70313 2.11328m5.72656-1.80468l.875.85937m13.1211-1.84766l-6.10938 3.47266m5.21875-2.96484l1.03516.65625m10.44922-2.92188l-.67188 6.99219m.57422-5.97656l1.13281-.46875m8.61328 1.82812l6.66407 2.23828m-5.69532-1.91015l-.19922-1.21094m12.3672 1.8789l7.02343.2461m11.75781-3.04297l-3.91015 5.83984m17.9453-5.1953l-5.35155 4.55468m4.5703-3.89453l1.14454.45312m13.16016-.84375l-5.76953 4.01563m5.76953-4.01563l2.18359 1.1211m10.3789-1.90625l-4.26562 5.58593m4.26563-5.58593l2.42187.40234m11.23438-.10547l-4.94922 4.99219m4.94922-4.99219l2.35156.70703m11.20312-.4453l-5.42578 4.46874m5.42578-4.46875l2.26563.9414m10.7539-1.2578l-4.83203 5.10156m4.83204-5.10157l2.36328.65235m10.96484-.63672l-4.86328 5.07031m4.86328-5.07031l2.36328.66797m11.92578 1l-6.8086 1.73437m6.8086-1.73437l1.65235 1.8164m-2.64063-1.5664l.82422.91015m13.35938-1.54296L367.0703 415m6.57032-2.4961l1.84765 1.6172m-2.80469-1.25391l1.84766 1.61718m-2.80078-1.2539l.92187.8086m14.29688-1.54688l-6.5586 2.52343m6.5586-2.52343l1.85547 1.60547m-2.8086-1.23829l1.85157 1.60547m-2.8047-1.23828l1.85157 1.60547m13.35156-2.39453l-6.51953 2.6289m6.51953-2.6289l1.87891 1.57812m-2.82812-1.1953l1.8789 1.57812m-2.82812-1.19532l1.8789 1.57813m13.3164-2.38672l-6.48437 2.71484m6.48438-2.71484l1.89844 1.55469m-2.84375-1.15625l1.90234 1.55078m-2.84375-1.15625l.94922.77344m14.49219-.67969l-6.96485.94531m6.96485-.94531l1.43359 1.99219m-2.44531-1.85547l1.42969 1.99219m12.91796-1.94532l-7.0039.57813m7.0039-.57813l1.32422 2.06641m-2.34375-1.98047l1.32422 2.0625m12.89844-2.77734l-6.78125 1.83593m6.78125-1.83593l1.67969 1.78906m-2.66407-1.52344l.83594.89453m13.3125-1.60547l-6.47656 2.72657"/><g clip-path="url(#an)"><path fill="none" stroke="#000" stroke-linecap="round" stroke-linejoin="round" stroke-miterlimit="10" stroke-width=".5" d="M466.80078 412.39063l1.90235 1.55078"/></g><path fill="none" stroke="#000" stroke-linecap="round" stroke-linejoin="round" stroke-miterlimit="10" stroke-width=".5" d="M465.85938 412.78516l.94921.77734"/><g clip-path="url(#ao)"><path fill="none" stroke="#000" stroke-linecap="round" stroke-linejoin="round" stroke-miterlimit="10" stroke-width=".5" d="M147.44922 399.77734l-6.89844 1.32422"/></g><path fill="none" stroke="#000" stroke-linecap="round" stroke-linejoin="round" stroke-miterlimit="10" stroke-width=".5" d="M147.44922 399.77734l1.54297 1.91016m11.7539-1.9961l-6.86328 1.4961m6.86328-1.4961l1.58985 1.8711m11.45312-2.66406l-6.3164 3.07812m5.39843-2.6289l.9922.72265m11.67187-2.76562l-3.1797 6.26562m2.71485-5.35547l1.22656-.02343m8.6797-.42188l4.5664 5.33985m-3.90234-4.5625l.44921-1.14454m13.09375-.1914l2.78516 6.45312m-2.38281-5.51172l.76953-.96093m12.97656-.22266l1.11719 6.9375m-.95313-5.92578l.97657-.74219m10.37109.60156l4.72656 5.19922m8.64063-5.2461l4.6211 5.29298m-3.94923-4.52344l.4375-1.14844m12.11328.46094l4.8047 5.125m-4.10548-4.3789l.39453-1.16016m11.875.78906l5.4961 4.3789m-4.69532-3.74218l.22266-1.20703m17.42188.17578l-4.76563 5.16406m4.07422-4.41015l1.1875.3125m13.66797.13671l-6.46094 2.75782m5.51953-2.35547l.95703.76953m13.44922-.7539l-6.75781 1.92577m5.77344-1.64843l.85156.88671m12.9336-2.23437l-5.73438 4.0625m5.73437-4.0625l2.19141 1.10156m11.42578-.58984l-6.33594 3.03906m6.33594-3.03906l1.97656 1.45312m11.59375-.72656l-6.84765 1.58594m6.84765-1.58594l1.60938 1.85156m11.78515-1.3125l-7.0078.50782m7.0078-.50782l1.3047 2.07813m11.53905-3.60156l-6.0625 3.55468m6.0625-3.55468l2.08985 1.28515m-2.97266-.76953l2.08985 1.28906m-2.97266-.76953l1.04687.64063m14.375-.88281l-6.74609 1.97265m6.7461-1.97265l1.71484 1.7539m-2.69531-1.46875l1.71093 1.75781m-2.6953-1.46875l.85937.875m14.375-1.59375l-6.65235 2.26172m6.65235-2.26172l1.78515 1.6797m-2.7539-1.35157l1.78906 1.67969m-2.75781-1.35157l.89453.83985m14.40625-1.34375l-6.75 1.95312m6.75-1.95312l1.70703 1.76172m-2.6914-1.47657l1.71093 1.76172m-2.6914-1.47656l.85546.8789m14.51172-1.0625l-6.92578 1.1797m6.92578-1.1797l1.5 1.94141m-2.50781-1.76953l1.5 1.9414m12.73828-2.48046l-6.75781 1.91797m6.75781-1.91797l1.70312 1.76953m-2.68359-1.49219l1.69922 1.76953m12.49219-2.35937l-6.55078 2.53906"/><g clip-path="url(#ap)"><path fill="none" stroke="#000" stroke-linecap="round" stroke-linejoin="round" stroke-miterlimit="10" stroke-width=".5" d="M466.83594 399.16797l1.85937 1.60547"/></g><path fill="none" stroke="#000" stroke-linecap="round" stroke-linejoin="round" stroke-miterlimit="10" stroke-width=".5" d="M465.88281 399.53906l1.85938 1.60156"/><g clip-path="url(#aq)"><path fill="none" stroke="#000" stroke-linecap="round" stroke-linejoin="round" stroke-miterlimit="10" stroke-width=".5" d="M147.14063 385.54688l-6.28125 3.15234"/></g><path fill="none" stroke="#000" stroke-linecap="round" stroke-linejoin="round" stroke-miterlimit="10" stroke-width=".5" d="M146.22656 386.00781l1 .71094m13.1211-1.3711l-6.06641 3.55079m6.0664-3.55078l2.08985 1.28906m11.30469-1.14844l-6.22266 3.26953m6.22266-3.26953l2.02734 1.38281m11.3086-1.33593l-6.26563 3.17578m6.26563-3.17578l2.0078 1.41015m11.41016-1.1875l-6.47265 2.73047m5.53125-2.33203l.95312.77344m9.78906-3.3086l.5547 7.00391m-.47266-5.98438l1.03515-.66015m15.96485 3.5586l-6.97657-.82813m6.97657.82812l.89062 2.28516m12.38672-2.03906l-6.90234-1.32422m6.90234 1.32422l.72266 2.34375m-1.72657-2.53516l.35938 1.17188m14.00781-1.94922l-7 .61328m7-.61328l1.33594 2.05859m-2.35156-1.96875l.66797 1.03125m13.67578-.77344l-7.02344-.08203m7.02344.08203l1.1289 2.17969m-2.14843-2.1914l.5625 1.08984m13.75-1.53516l-6.98047.83203m6.98047-.83203l1.39843 2.01563m11.9414-1.53907l-7.02733-.12109m7.02734.1211l1.11328 2.1875m-2.13672-2.20313l.55469 1.08984m13.78125-1.09375l-7.02735-.08203m7.02735.08203l1.1289 2.17969m-2.14843-2.1914l.5625 1.08984m13.76172-.84766l-7.00391-.54297m7.0039.54297l.98438 2.25m11.85938-4.30078l-6.0586 3.5586m6.0586-3.5586l2.08984 1.28516m11.6211 1.26953l-6.85157-1.55078m5.85547 1.32421l.32031 1.1836M360.25 385.6914l-6.41797 2.86328m6.41797-2.86328l1.9336 1.5078m11.55077-1.04296l-6.7578 1.9336m6.7578-1.9336l1.70313 1.76563m-2.6875-1.48438l.85156.88281m12.94922-2.20703l-5.76172 4.01953m5.76172-4.01953l2.1875 1.11719m-3.02344-.53125l1.08985.5586m13.3125-.72657l-6.26172 3.1836m6.26172-3.1836l2.01172 1.41016m-2.92188-.94532l2.00781 1.40625m12.23047-1.84375l-6.28906 3.12891m6.28906-3.1289l2 1.42577m-2.91406-.96875l1.9961 1.42579m12.07812-2.16407l-5.97656 3.69532m5.97656-3.69532l2.11719 1.23438m-2.98829-.69922l2.1211 1.23828m12.04687-1.80078l-5.9414 3.7461m5.9414-3.7461l2.13282 1.21875m-2.9961-.67578l2.1289 1.21875m12.42579-.96094l-6.6914 2.14453m6.6914-2.14453l1.75781 1.71094m-2.73437-1.39844l.8789.85547m13.46875-.97266l-6.80468 1.75782"/><g clip-path="url(#ar)"><path fill="none" stroke="#000" stroke-linecap="round" stroke-linejoin="round" stroke-miterlimit="10" stroke-width=".5" d="M466.96484 386.2461l1.65625 1.80859"/></g><path fill="none" stroke="#000" stroke-linecap="round" stroke-linejoin="round" stroke-miterlimit="10" stroke-width=".5" d="M465.97266 386.5l.82812.90625"/><g clip-path="url(#as)"><path fill="none" stroke="#000" stroke-linecap="round" stroke-linejoin="round" stroke-miterlimit="10" stroke-width=".5" d="M140.9414 375.53906l6.1172-3.46094"/></g><path fill="none" stroke="#000" stroke-linecap="round" stroke-linejoin="round" stroke-miterlimit="10" stroke-width=".5" d="M157.28906 370.29297l.05469 7.02734m15.17578-6.47656l-3.77734 5.92578m3.22656-5.0625l1.22266.09766m13.83593.3125L180.86328 375.5m6.16406-3.38281l2.05078 1.34765m11.60547-.45312l-6.84375 1.59375m6.84375-1.59375l1.61328 1.84765m11.78907-.90625l-7.01953-.28906m7.01953.28906l1.0625 2.21094m11.47656-.14844l-5.46875-4.41406m5.46875 4.41406l-.46484 2.40625m14.05859-2.80468L234.19531 372m6.02344 3.61719l-.1289 2.44922M254.0078 374.25l-6.97265-.88281m6.97265.88281l.86719 2.29297m12.45703-2.39063l-6.99219-.6875m6.9922.6875l.93359 2.26954m12.38671-2.34766l-7.0039-.53125m7.0039.53125l.98828 2.2461m12.3047-2.01563l-6.95704-.99219m5.94531.84766l.41797 1.15234m13.91797-1.91797l-6.97656.82813m6.97656-.82813l1.39844 2.01563m11.9375-1.73438l-7.01953.26563m7.01953-.26563l1.23437 2.1211m12.05079-1.51563l-6.96094-.94531m6.96094.94531l.85156 2.30078m12.19922-1.35547l-6.4297-2.83984m6.4297 2.83984l.17578 2.44922m13.4375-3.90234l-7.02735.07031m7.02735-.07031l1.17187 2.15625m12.11719-1.70313l-6.97656-.83594m6.97656.83594l.88672 2.28906m12.1836-4.05859l-6.48438 2.70313m6.48437-2.70313l1.89844 1.5586m11.00781-2.28516l-5.66797 4.15234m5.66797-4.15234l2.21094 1.07031m-3.03516-.46484l1.10547.53515m13.125-1.01171l-5.84765 3.89843m5.84765-3.89844l2.16016 1.16407m-3.01172-.59766l1.07813.58203m12.85156-1.46094l-5.375 4.52344m5.375-4.52344l2.27734.91407m-3.0586-.25781l1.13673.46093m12.6953-1.39844l-4.84765 5.08594m4.84766-5.08594l2.36328.66016m-3.07031.07813l1.1836.33203m13.4453-.3086l-6.0625 3.5586m6.0625-3.5586l2.08985 1.28516m-2.97266-.76563l1.04688.64063m13.41797-.59375l-6.59375 2.42969"/><g clip-path="url(#at)"><path fill="none" stroke="#000" stroke-linecap="round" stroke-linejoin="round" stroke-miterlimit="10" stroke-width=".5" d="M466.85938 372.59375l1.82812 1.63281"/></g><g clip-path="url(#au)"><path fill="none" stroke="#000" stroke-linecap="round" stroke-linejoin="round" stroke-miterlimit="10" stroke-width=".5" d="M142.55469 363.69531l2.89062-6.40625"/></g><path fill="none" stroke="#000" stroke-linecap="round" stroke-linejoin="round" stroke-miterlimit="10" stroke-width=".5" d="M155.00781 363.14453l4.61328-5.30078m-3.9414 4.52734l-1.19531-.27343m12.63671-1.44532l7.01953-.3164m-6 .26953l-.625-1.05469m13.84375-1.4375l5.17188 4.75781m14.08984-3.40625l-6.71875 2.0586m5.73828-1.75781l.8711.86718m13.42187.89844l-6.71484-2.07422m5.73828 1.77344l.23047 1.20312m13.40234.3086l-5.39843-4.4961m5.39843 4.4961l-.5 2.39844m13.48438-2.05079l-4.73438-5.1914m4.04297 4.4375l-.41015 1.15234m14.86328-.89453l-5.63281-4.19922m4.8164 3.58594l-.1875 1.21484m14.80469-1.4961l-6.60156-2.41015m5.64062 2.0586l.16797 1.21484m14.1289-.92188l-6.64452-2.29687m5.67578 1.96484l.1914 1.21094m14.03907-.73828l-6.53907-2.57422m6.53907 2.57422l.27734 2.4375m12.875-2.08594l-6.21484-3.28125m5.3125 2.80469l.0039 1.22656m14.55078-1.69922l-6.88672-1.3828m5.88672 1.18358l.35157 1.17579m12.08203 1.48046l-3.125-6.29296m2.67187 5.375l-.71484 1m15.40625-.7461l-4.96875-4.96875m4.2461 4.2461l-.35938 1.17578m14.80859-.94922l-5.79297-3.97656m4.94922 3.39843l-.13672 1.21875M373.2422 362.5l-5.76953-4.01172m5.76953 4.01172l-.29297 2.4336m14.1289-3.58594l-6.8164-1.71094m5.82422 1.46484l.29687 1.1875m13.7539-3.35156l-6.30077 3.11328m5.38281-2.66015l.9961.71484m12.23828-2.39063l-4.3047 5.5547m4.3047-5.5547l2.41796.41797m10.4961-.6836l-3.5039 6.08985m3.5039-6.08984l2.45312.07812m10.59766-.21875l-2.97266 6.3672m2.97266-6.3672l2.45312-.125m10.94532.16797l-3.14063 6.28516m3.14063-6.28516l2.45312-.0625m11.47266.44922l-4.36328 5.50781m3.73047-4.70703l1.20703.22266"/><g clip-path="url(#av)"><path fill="none" stroke="#000" stroke-linecap="round" stroke-linejoin="round" stroke-miterlimit="10" stroke-width=".5" d="M140.4961 346.9414l7.0078.47266"/></g><path fill="none" stroke="#000" stroke-linecap="round" stroke-linejoin="round" stroke-miterlimit="10" stroke-width=".5" d="M154.48828 349.26563l5.65234-4.17579m-4.82812 3.56641l-1.10938-.52734m14.67579 2.09375l3.5039-6.08985m-3.5039 6.08985l-2.45313-.08204m14.27734-1.61328l6.48438-2.69921m-6.48438 2.69921l-1.89843-1.55859m15.01562.92969l6.8789-1.4414m-5.8789 1.23046l-.78515-.9414m13.05468.88671l6.96875-.90625m-5.95312.77344l-.71094-1m18.21484 3.74219l-3.4375-6.1289m15.26954 6.5703l-.47266-7.01171m.40625 5.99218l-1.04297.64844m10.82031-2.13672l6.73828-1.99219m-5.7578 1.69922l-.85938-.875m13.64062-1.77734l5.84375 3.89844m-4.9961-3.33204l.1211-1.22265m12.48047.46484l5.57422 4.27735m-5.57422-4.27735l.40625-2.41797m12.28125 3.73047l6.83203 1.65235m-5.83984-1.41016l-.30469-1.1875m13.79688 4.47656l4.49218-5.40625m-3.83984 4.61719l-1.19922-.25m15.83203 1.83594l.55078-7.0039m-.47265 5.98437l-1.125.48828m14.51953.54297l.23437-7.02344m-.19922 6l-1.10156.53906m12.5625-.09765l3.875-5.86329m-3.3125 5.01172l-1.21875-.11719m15.41406 1.51563l.98829-6.95703m-.84375 5.94531l-1.15235.41797m15.66016.52734l-1.6875-6.82421m1.4414 5.83203l-.91406.8164m16.05469-.6914L381.25 344.6328m4.13672 4.35156L385 350.14844m15.15234-1.4414l-6.33203-3.0547m5.41016 2.60938l.04687 1.22656m13.89844-4.33203l-5.75 4.04297m4.91406-3.45313l1.09375.5547m11.53516-2.3672l-2.70313 6.48829m2.3086-5.54297l1.22265-.1172m12.23047-.92187l-2.1914 6.67579m2.1914-6.67579l2.41797-.41796m11.27344.5664l-2.9414 6.3789m2.51171-5.45312l1.22656-.0664m13.9297.3203l-5.76563 4.01954m4.92578-3.4336l1.08984.5586"/><g clip-path="url(#aw)"><path fill="none" stroke="#000" stroke-linecap="round" stroke-linejoin="round" stroke-miterlimit="10" stroke-width=".5" d="M141.85156 331.08203l4.29688 5.5625"/></g><path fill="none" stroke="#000" stroke-linecap="round" stroke-linejoin="round" stroke-miterlimit="10" stroke-width=".5" d="M155.11719 336.60547l4.39453-5.48438m-3.7539 4.6875l-1.20704-.23046m13.71094.8789L173 331.26953m-4.73828 5.1875l-2.3789-.60937m14.95312-.34766l6.21875-3.27344M180.83594 335.5l-2.02735-1.38281m15.00782.4375l6.89062-1.38281m-6.89062 1.3828l-1.5586-1.89843m14.97656 2.29688l6.6797-2.1797m-5.70704 1.86329l-.88281-.85156m13.11328-.56641l6.90625 1.28906m-5.90234-1.10156l-.3672-1.17188m12.81642.46875l6.6328 2.32032m-5.66796-1.98438l-.1875-1.21094m12.50781.96094l6.6914 2.14844m-5.71874-1.83594l-.21875-1.20703m12.51562 1.03906l6.77735 1.85938m-6.77735-1.85938l-.53515-2.39453m13.78125 2.69922l6.91797 1.25m-6.91797-1.25l-.7461-2.33594m14.03516 2.52735l6.97266.86719m-6.97266-.8672l-.8789-2.28906m14.1914 3.16016l6.97266-.875m-6.97266.875l-1.41016-2.00781m15.4336 3.71875l5.55859-4.29688m-4.75 3.67188l-1.11719-.5039m15.71875 2.42577l1.3711-6.89062m-1.17188 5.88672l-1.17578.35547m13.41797.35156l3.11719-6.29688m-3.1172 6.29688l-2.45312.07031m15.51954-.20703l3.61328-6.02344m-3.61328 6.02344l-2.45313-.125m17.92188.60938l-.69141-6.9922m.6914 6.9922l-2.04296 1.35937m16.3164-1.59375l-2.60937-6.52344m2.60937 6.52344L383.39063 339m15.65625-2.29297l-4.1211-5.6914m3.52344 4.86328l-.54297 1.10546m15.89844-2.86328l-7.00781-.51562m5.98828.4414l.49609 1.1211m13.82031-1.74219l-6.97265.875m5.96093-.7461l.70313 1.00391m13.30469-2.22265l-6.33203 3.05469m6.33203-3.0547l1.97656 1.45313m11.38281-1.35156l-6.42187 2.85156m5.48828-2.4375l.96484.7539m13.38672-.91015l-6.625 2.33594"/><g clip-path="url(#ax)"><path fill="none" stroke="#000" stroke-linecap="round" stroke-linejoin="round" stroke-miterlimit="10" stroke-width=".5" d="M466.875 332.69531l1.8086 1.66016"/></g><g clip-path="url(#ay)"><path fill="none" stroke="#000" stroke-linecap="round" stroke-linejoin="round" stroke-miterlimit="10" stroke-width=".5" d="M142.46875 317.38672l3.0625 6.32422"/></g><path fill="none" stroke="#000" stroke-linecap="round" stroke-linejoin="round" stroke-miterlimit="10" stroke-width=".5" d="M154.1289 322.02734l6.3711-2.96093m9.33594 4.90625l1.58594-6.84766m-1.35547 5.85156l-1.1836.3164m13.89844.57032l2.32813-6.6289m-1.98829 5.66406l-1.21484.1836m13.72266.57812l3.26172-6.22266m-2.78516 5.3164l-1.22656.00782m17.3828.86719l-3.375-6.16407m2.88673 5.26954l-.67578 1.02343m16.12109-2.08203l-6.65625-2.25781m5.6875 1.92969l.19531 1.21093m14.26953-1.85546l-7.01953-.3125m6 .26953l.52735 1.10546m13.46484-2.73828l-6.33594 3.04297m5.41406-2.60156l.98829.72656m12.14843-2.48828l-4.1328 5.6836m3.53124-4.85547l1.21484.16796m10.58985-1.66796l.08984 7.02734m-.07812-6.0039l1.07812-.58985m11.04688-.21484l2.44531 6.58593m-2.08984-5.6289l.8164-.91406m10.53906 1.16796l5.65625 4.16407m-4.83593-3.5586l.17968-1.21484m12.01954 4.29687l6.25-3.21093m-5.34375 2.74609l-1.00782-.69922m15.95313 3.02344L331 317.08203m-1.00781 5.92188l-1.16407.38671m13.85547.51172l2.08594-6.71093m-2.08594 6.71093l-2.41015.45704m2.71093-1.4336l-1.20312.23047m13.9336.64453l2.65234-6.50781m-2.65235 6.50781l-2.4414.25m2.82812-1.19531l-1.22265.1211m13.90625.71484l3.14062-6.28516m-3.14062 6.28516l-2.45313.0625m17.19922.30468l.27734-7.01953m-.27734 7.01953l-2.20703 1.06641m16.51953-1.17188l-1.71484-6.8125m1.71484 6.8125l-1.82031 1.64844m16.5-2.33203l-4.44532-5.4414m3.80079 4.64843l-.47657 1.13281m15.19922-1.21093l-5.97265-3.70313m5.10546 3.16406l-.08203 1.22657m14.78125-2.82813l-7.0039.57813m7.0039-.57813l1.32422 2.0664m11.96485-2.28124l-6.95313 1.01172m6.95313-1.01172l1.45312 1.97656m-2.46484-1.82812l.72656.98828m13.4375-1.80469l-6.625 2.34766"/><g clip-path="url(#az)"><path fill="none" stroke="#000" stroke-linecap="round" stroke-linejoin="round" stroke-miterlimit="10" stroke-width=".5" d="M466.875 319.375l1.8086 1.65625"/></g><path fill="none" stroke="#000" stroke-linecap="round" stroke-linejoin="round" stroke-miterlimit="10" stroke-width=".5" d="M465.91016 319.71484l.90234.82813"/><path fill="#00f" fill-rule="evenodd" d="M388.23828 467.64844h8.61719V457.5039h-8.61719v10.14453"/><path fill="azure" fill-rule="evenodd" d="M390.07031 459.33594h.83594v2.82422h3.28516v-2.82422h.83203v6.48047h-.83203v-2.91797h-3.28516v2.91797h-.83594v-6.48047"/><path fill="#00f" fill-rule="evenodd" d="M383.80078 436.57813h8.61719v-10.14454h-8.61719v10.14454"/><path fill="azure" fill-rule="evenodd" d="M385.63281 428.26563h.83203v2.82421h3.28907v-2.82421h.83203v6.48046h-.83203v-2.91406h-3.28907v2.91406h-.83203v-6.48046"/><path fill="#00f" fill-rule="evenodd" d="M219.58203 414.38672h8.61719v-10.14453h-8.61719v10.14453"/><path fill="azure" fill-rule="evenodd" d="M221.41406 406.07422h.83203v2.82422h3.28907v-2.82422h.83203v6.48047h-.83203v-2.91406h-3.28907v2.91406h-.83203v-6.48047"/><path fill="#ff3030" fill-rule="evenodd" d="M348.98828 405.51172h7.6914v-10.14453h-7.6914v10.14453"/><path fill="azure" fill-rule="evenodd" d="M350.82031 397.19922h.83203v5.73828h3.19532v.74219h-4.02735v-6.48047"/><path fill="#ff3030" fill-rule="evenodd" d="M184.76953 387.75781h7.6914v-10.14453h-7.6914v10.14453"/><path fill="azure" fill-rule="evenodd" d="M186.60156 379.44531h.83203v5.73828h3.19532v.7422h-4.02735v-6.48048"/><path fill="#ffffe0" fill-rule="evenodd" d="M337.30469 348.72656h22.17969v-10.1914h-22.1797v10.1914"/><path fill-rule="evenodd" d="M340.80469 340.36719h.50781v6.29687h-.78516v-4.49219h-1.39062v-.55468l.5625-.0625.25-.05469.23047-.08984.20312-.14063.17578-.21094.14063-.29296.10547-.39844m4.8125 0l.23047.01953.21875.05469.20703.08984.19922.1211.18359.15234.17188.17578.30078.41797.24218.49219.1797.54687.11327.57813.03906.59375-.03906.59375-.11328.58203-.17969.55468-.24218.50391-.30079.42578-.17187.17969-.1836.15234-.19921.125-.20703.08985-.21875.05859-.23047.01953-.22656-.01953-.21875-.0586-.21094-.08984-.19531-.125-.1836-.15234-.17187-.17969-.30079-.42578-.24218-.5039-.1836-.5547-.10937-.58202-.03906-.59375h.83203l.03125.5625.08203.5039.125.44531.16406.375.1875.30079.21094.21875.22265.13671.22657.04688.22656-.04688.22266-.13671.21093-.21875.19141-.30079.16406-.375.125-.4453.08203-.50392.02735-.5625-.02735-.5625-.08203-.5-.125-.43359-.16406-.36719-.1914-.29296-.21094-.21485-.22266-.1289-.22656-.04688-.22656.04688-.22266.1289-.21094.21485-.1875.29296-.16406.3672-.125.43358-.08203.5-.03125.5625h-.83203l.03906-.59375.10937-.57812.1836-.54688.24219-.49218.30078-.41797.17187-.17578.1836-.15235.1953-.12109.21094-.08984.21875-.0547.22657-.01952m5.09375 0h.50781v6.29687h-.78516v-4.49219h-1.39062v-.55468l.5625-.0625.25-.05469.23047-.08984.20312-.14063.17188-.21094.14453-.29296.10547-.39844m2.82422 2.17578h.78515l.01953-.3164.0586-.28516.10156-.25391.14063-.21484.17968-.17188.22266-.1289.26562-.08204.3086-.02734.23828.02344.22265.0625.20313.10156.17969.13672.14844.17187.11328.20704.0703.23828.02735.26171-.02344.26954-.0664.22265-.10938.19531-.15234.16797-.20313.16407-.24609.16406-.63281.39062-.53906.3125-.4375.31641-.34766.32422-.26172.33594-.1914.35156-.125.3711-.07032.39062-.01953.42187h4.21094v-.74219h-3.33203l.08203-.28125.11719-.23828.14843-.20312.1836-.17969.23437-.17187.27735-.17579.71484-.41406.41797-.20703.34375-.23047.28125-.25.21875-.26953.16406-.27734.11328-.28516.0625-.28515.01953-.28125-.04296-.38282-.1172-.34765-.1914-.3086-.25-.26172-.30078-.21093-.34766-.16016-.3789-.09766-.40625-.03515-.4375.03515-.39453.09766-.35547.16797-.30469.23437-.25.30079-.1836.375-.11718.4453-.03906.51954"/><path fill="#ffffe0" fill-rule="evenodd" d="M248.53906 399.5625h22.17969v-10.19531h-22.17969v10.19531"/><path fill-rule="evenodd" d="M252.03906 391.20313h.50781v6.29296h-.78515v-4.48828h-1.39063v-.55469l.5586-.0664.2539-.05469.23047-.08984.20313-.14063.17187-.21094.14453-.29296.10547-.39454m4.8125 0l.23047.01954.21875.05468.20703.08985.19531.1211.1836.14843.17187.17578.3047.41797.24218.4961.17969.54687.10937.57812.03906.58985-.03906.59375-.10937.58593-.1797.55079-.24218.5039-.30469.42578-.17187.17969-.1836.15625-.1953.1211-.20704.09374-.21875.0547-.23047.01952-.23047-.01953-.21875-.05469-.20703-.09375L256 397.4375l-.1836-.15625-.17187-.17969-.30469-.42578-.24218-.5039-.1797-.55079-.10937-.58593-.03906-.59375h.83203l.02735.5625.08203.5078.1289.44142.16016.375.1914.30078.21094.22265.22266.13672.22656.04688.22656-.04688.22266-.13672.21094-.22265.1914-.30079.16016-.375.1289-.4414.07813-.50781.03125-.5625-.03125-.5625-.07812-.5-.1289-.4336-.16017-.36719-.1914-.29296-.21094-.21094-.22265-.13281-.22657-.04688-.22656.04688-.22266.1328-.21093.21095-.19141.29296-.16016.3672-.1289.43359-.08203.5-.02735.5625h-.83203l.03906-.58985.10938-.57812.17969-.54688.24218-.4961.3047-.41796.17187-.17578.18359-.14844.19531-.1211.20703-.08984.21875-.05468.23047-.01954m5.08985 0h.51171v6.29297h-.78906v-4.48828h-1.38672v-.55469l.5586-.0664.2539-.05469.22657-.08984.20703-.14063.17187-.21094.14063-.29296.10547-.39454m2.82421 2.17579h.78907l.01953-.31641.0586-.28906.09765-.25.14062-.21485.1797-.17578.22655-.1289.26563-.07813.30469-.03125.23828.02344.22656.0625.20313.10156.17968.13672.14844.17578.11328.20313.07031.23828.02344.26562-.01953.26563-.0664.22656-.10938.1914-.15625.17188-.19922.16016-.2461.16797-.63671.38671-.53516.31641-.4375.3164-.34765.32423-.26563.33593-.1875.35157-.125.36718-.07031.39454-.01953.41796h4.21093v-.73828h-3.33203l.08203-.28515.11329-.23829.14843-.19921.1875-.1797.23047-.17187.27735-.17578.71875-.41797.41406-.20703.34765-.23047.28125-.25.21875-.26562.16407-.28125.10937-.28125.0664-.28516.01954-.28125-.04297-.38281-.1211-.34766-.1875-.30859-.25-.26172-.30468-.21484-.34375-.15625-.38281-.10156-.40625-.03125-.4336.03125-.39844.09765-.35546.16797-.3047.23438-.24608.30468-.1875.375-.1172.44531-.03906.51954"/><path fill="#ffffe0" fill-rule="evenodd" d="M198.07031 463.4414H220.25V453.25h-22.17969v10.1914"/><path fill-rule="evenodd" d="M201.57031 455.08203h.50781v6.29688h-.78515v-4.4922h-1.39063v-.55468l.5625-.0664.25-.05079.23047-.08984.20313-.14453.17578-.20703.14062-.29688.10547-.39453m4.8125 0l.23047.01953.21875.05469.20703.08984.19922.1211.1836.14844.17187.17578.30078.42187.24219.49219.17969.54687.11328.57813.03906.58984-.03906.59375-.11328.58594-.1797.55469-.24218.5-.30078.42969-.17188.17968-.18359.15235-.19922.125-.20703.08984-.21875.0586-.23047.01952-.22656-.01953-.21875-.05859-.21094-.08984-.19531-.125-.1836-.15235-.17187-.17969-.30078-.42968-.2461-.5-.17968-.55469-.10938-.58594-.03906-.59375h.83203l.03125.5664.08203.50392.125.4414.16407.375.1875.30078.21093.22266.22266.13672.22656.04687.22656-.04687.22266-.13672.21094-.22266.1914-.30078.16407-.375.125-.4414.08203-.50391.02734-.5664-.02734-.5586-.08203-.5-.125-.4375-.16406-.36328-.19141-.29297-.21094-.21485-.22266-.1328-.22656-.04298-.22656.04297-.22266.13281-.21093.21485-.1875.29297-.16407.36328-.125.4375-.08203.5-.03125.5586h-.83203l.03906-.58985.10938-.57813.17969-.54687.24609-.49219.30078-.42187.17188-.17579.18359-.14843.19531-.1211.21094-.08984.21875-.05469.22656-.01953m5.09375 0h.50781v6.29688h-.78515v-4.4922h-1.39063v-.55468l.5586-.0664.2539-.05079.23047-.08984.20313-.14453.17187-.20703.14453-.29688.10547-.39453m2.82422 2.17578h.78516l.01953-.3164.0586-.28516.10155-.2539.13672-.21485.1836-.17578.22265-.1289.26563-.07813.3086-.02735.23827.01954.22266.0625.20313.10156.17968.14062.14844.17188.11328.20703.07031.23437.02735.26563-.02344.26953-.0664.22266-.10938.1914-.15625.17188-.19922.16406-.2461.16406-.6328.39063-.53907.3125-.4375.3164-.34766.32422-.26171.33594-.19141.35156-.125.3711-.07031.39062-.01953.42188h4.21093v-.7422h-3.33203l.08203-.28515.11328-.23437.14844-.20313.1875-.17969.23047-.17187.28125-.17578.71484-.41797.41797-.20313.34375-.23046.28125-.25391.21875-.26563.16407-.27734.11328-.28515.0625-.28516.01953-.28125-.04297-.38281-.11719-.34766-.1914-.3086-.25-.26171-.30078-.21485-.34766-.15625-.3789-.09765-.40626-.03516-.4375.03125-.39844.10156-.35156.16407-.30469.23437-.25.30469-.18359.375-.11719.44531-.03906.51953"/></g></defs><use xlink:href="#aA"/></svg>