<svg xmlns="http://www.w3.org/2000/svg" role="img" xmlns:xlink="http://www.w3.org/1999/xlink" viewBox="142.45 309.95 326.84 171.84"><defs><clipPath id="a"><path d="M144 311.67188h1v168.65625h-1zm0 0"/></clipPath><clipPath id="b"><path d="M144 311.67188h324v168.65625H144zm0 0"/></clipPath><clipPath id="c"><path d="M467 311.67188h1v168.65625h-1zm0 0"/></clipPath><clipPath id="d"><path d="M144 479h4v1.32813h-4zm0 0"/></clipPath><clipPath id="e"><path d="M147 480h2v.32813h-2zm0 0"/></clipPath><clipPath id="f"><path d="M146 480h2v.32813h-2zm0 0"/></clipPath><clipPath id="g"><path d="M153 479h9v1.32813h-9zm0 0"/></clipPath><clipPath id="h"><path d="M160 480h3v.32813h-3zm0 0"/></clipPath><clipPath id="i"><path d="M159 480h2v.32813h-2zm0 0"/></clipPath><clipPath id="j"><path d="M166 479h9v1.32813h-9zm0 0"/></clipPath><clipPath id="k"><path d="M173 480h3v.32813h-3zm0 0"/></clipPath><clipPath id="l"><path d="M172 480h2v.32813h-2zm0 0"/></clipPath><clipPath id="m"><path d="M180 479h8v1.32813h-8zm0 0"/></clipPath><clipPath id="n"><path d="M187 480h2v.32813h-2zm0 0"/></clipPath><clipPath id="o"><path d="M186 480h2v.32813h-2zm0 0"/></clipPath><clipPath id="p"><path d="M193 479h9v1.32813h-9zm0 0"/></clipPath><clipPath id="q"><path d="M200 480h2v.32813h-2zm0 0"/></clipPath><clipPath id="r"><path d="M199 480h2v.32813h-2zm0 0"/></clipPath><clipPath id="s"><path d="M206 479h9v1.32813h-9zm0 0"/></clipPath><clipPath id="t"><path d="M213 480h3v.32813h-3zm0 0"/></clipPath><clipPath id="u"><path d="M212 480h2v.32813h-2zm0 0"/></clipPath><clipPath id="v"><path d="M220 479h8v1.32813h-8zm0 0"/></clipPath><clipPath id="w"><path d="M227 480h2v.32813h-2zm0 0"/></clipPath><clipPath id="x"><path d="M226 480h2v.32813h-2zm0 0"/></clipPath><clipPath id="y"><path d="M233 480h8v.32813h-8zm0 0"/></clipPath><clipPath id="z"><path d="M240 480h3v.32813h-3zm0 0"/></clipPath><clipPath id="A"><path d="M239 480h2v.32813h-2zm0 0"/></clipPath><clipPath id="B"><path d="M246 479h9v1.32813h-9zm0 0"/></clipPath><clipPath id="C"><path d="M253 479h3v1.32813h-3zm0 0"/></clipPath><clipPath id="D"><path d="M252 479h2v1.32813h-2zm0 0"/></clipPath><clipPath id="E"><path d="M260 479h8v1.32813h-8zm0 0"/></clipPath><clipPath id="F"><path d="M267 479h2v1.32813h-2zm0 0"/></clipPath><clipPath id="G"><path d="M266 479h2v1.32813h-2zm0 0"/></clipPath><clipPath id="H"><path d="M273 480h8v.32813h-8zm0 0"/></clipPath><clipPath id="I"><path d="M280 480h3v.32813h-3zm0 0"/></clipPath><clipPath id="J"><path d="M279 480h2v.32813h-2zm0 0"/></clipPath><clipPath id="K"><path d="M286 479h9v1.32813h-9zm0 0"/></clipPath><clipPath id="L"><path d="M293 479h3v1.32813h-3zm0 0"/></clipPath><clipPath id="M"><path d="M292 479h2v1.32813h-2zm0 0"/></clipPath><clipPath id="N"><path d="M300 479h8v1.32813h-8zm0 0"/></clipPath><clipPath id="O"><path d="M307 479h2v1.32813h-2zm0 0"/></clipPath><clipPath id="P"><path d="M306 479h2v1.32813h-2zm0 0"/></clipPath><clipPath id="Q"><path d="M313 479h8v1.32813h-8zm0 0"/></clipPath><clipPath id="R"><path d="M320 480h2v.32813h-2zm0 0"/></clipPath><clipPath id="S"><path d="M319 480h2v.32813h-2zm0 0"/></clipPath><clipPath id="T"><path d="M326 479h9v1.32813h-9zm0 0"/></clipPath><clipPath id="U"><path d="M333 480h2v.32813h-2zm0 0"/></clipPath><clipPath id="V"><path d="M340 478h8v2.32813h-8zm0 0"/></clipPath><clipPath id="W"><path d="M353 478h8v2.32813h-8zm0 0"/></clipPath><clipPath id="X"><path d="M366 478h8v2.32813h-8zm0 0"/></clipPath><clipPath id="Y"><path d="M379 479h9v1.32813h-9zm0 0"/></clipPath><clipPath id="Z"><path d="M386 480h3v.32813h-3zm0 0"/></clipPath><clipPath id="aa"><path d="M393 478h8v2.32813h-8zm0 0"/></clipPath><clipPath id="ab"><path d="M399 480h1v.32813h-1zm0 0"/></clipPath><clipPath id="ac"><path d="M406 478h8v2.32813h-8zm0 0"/></clipPath><clipPath id="ad"><path d="M412 480h2v.32813h-2zm0 0"/></clipPath><clipPath id="ae"><path d="M420 477h7v3.32813h-7zm0 0"/></clipPath><clipPath id="af"><path d="M435 476h4v4.32813h-4zm0 0"/></clipPath><clipPath id="ag"><path d="M448 477h5v3.32813h-5zm0 0"/></clipPath><clipPath id="ah"><path d="M462 476h3v4.32813h-3zm0 0"/></clipPath><clipPath id="ai"><path d="M144 466h4v2h-4zm0 0"/></clipPath><clipPath id="aj"><path d="M144 453h4v2h-4zm0 0"/></clipPath><clipPath id="ak"><path d="M144 440h4v1h-4zm0 0"/></clipPath><clipPath id="al"><path d="M144 426h4v2h-4zm0 0"/></clipPath><clipPath id="am"><path d="M144 412h4v4h-4zm0 0"/></clipPath><clipPath id="an"><path d="M466 413h2v4h-2zm0 0"/></clipPath><clipPath id="ao"><path d="M144 398h4v5h-4zm0 0"/></clipPath><clipPath id="ap"><path d="M466 399h2v4h-2zm0 0"/></clipPath><clipPath id="aq"><path d="M144 384h4v6h-4zm0 0"/></clipPath><clipPath id="ar"><path d="M466 386h2v4h-2zm0 0"/></clipPath><clipPath id="as"><path d="M144 370h2v8h-2zm0 0"/></clipPath><clipPath id="at"><path d="M466 372h2v4h-2zm0 0"/></clipPath><clipPath id="au"><path d="M144 357h3v7h-3zm0 0"/></clipPath><clipPath id="av"><path d="M466 358h2v4h-2zm0 0"/></clipPath><clipPath id="aw"><path d="M144 343h1v8h-1zm0 0"/></clipPath><clipPath id="ax"><path d="M466 345h2v3h-2zm0 0"/></clipPath><clipPath id="ay"><path d="M144 330h1v8h-1zm0 0"/></clipPath><clipPath id="az"><path d="M144 330h2v2h-2zm0 0"/></clipPath><clipPath id="aA"><path d="M466 332h2v3h-2zm0 0"/></clipPath><clipPath id="aB"><path d="M144 317h2v7h-2zm0 0"/></clipPath><clipPath id="aC"><path d="M466 318h2v3h-2zm0 0"/></clipPath><clipPath id="aD"><path d="M465 318h3v3h-3zm0 0"/></clipPath><g id="aE" clip-path="url(#clip1)"><path fill="#fff" fill-opacity="0" fill-rule="evenodd" d="M0 0h1000v1000H0zm0 0"/><path fill="#d3d3d3" fill-opacity="0" fill-rule="evenodd" d="M162.15234 355.86719l-.23437.29297.0586.23437.11718.17188.17578.23437.29297.34766.11328.0586.11719-.17188.0586-.23438.17577-.17578.46485-.17578h.69922l.23437.29297.28906.8164.0586.17579.17578.23046.35156.23438.69922.69922.17188.17578.23437.34765.23438.41016.28906.58203.41015.46485.23047.23437.23438.17578.11719.23047.17578.29297.17187 1.16406v.23438l.0586.28906.05859.11719.11719.11719.34765.41015.11719.17188.17578.17578.17578.23437.11719.17188.17188.35156.05859.23438.23437.40625.23438-.0586-.17578.17578-.0586.92969h-.58203l-.23437-.11328-.34766.11328-.11719.11719-.05859.29297-.0586.17578-.11718.17187-.46484.29297-.0586.23438-.0586.11328v.64453l.0586.17187v.41016l.0586.0586v.40624l.05859.40625.11719.17579.05859.05859.23047.64062-.0586.29297v.69922l-.05859.58203v.23438l-.0586.23047-.05468.35156v1.92187l.05469.1172h.42578l-.36719.11718-.02344.35156.89063 1.16797 1.74219.53906 1.33984.35938v.53906l.08984.8086.53516.71484 1.51953.26953.89063-.08594.08984 1.16406.53516.1797 1.16015-.1797 2.05469-.98437 1.16016-.36328 1.8789-.17578 1.69531-.1797-.17968.71876-1.51563.08594-1.25.08984-.80469.26953-1.07421.8086.26953.71875.53515.89843-.17968.625-.26563.8086.26563 1.07812.625.89844.80468.17969 1.25-.1797-.26562.72267.09766.5039.05468.29297v.17188l.0586.29296v.40625l.17578.1172.35156.11718h.40625l.29297-.17578.11328-.11719.0586-.11719.11718-.23047.0586-.17578.35156-.46484.23047-.17578.17578-.0586.17578.0586.0586.17578.11718.98828.05469.46875.0586.17188.11718.23437.17578.0586.8164.05859h.28907l.11719.23437.05859.40625.0586.35156v1.10547l.11718.29297.11719.34766.28906.69922.17578.35156.58203.7539.35157.17579.17187.0586.46875.23437.64063.46484.34765.23438.29297.17578.29297.05468.23047.0625.8164.34766.29297.17578.11328.17188.35157.35156.11719.17578.52343.64063v.28906l.0586.35156v.34766l.05859.35156.0586.28906.11718.0586.17188.05859h.17578l.58203.23437.17578.1172.17578.28905.17578.23438.11328.23437.29297.23047.11719.11719v.41016l.0586.05468.28906.23438.23437.11719.0586.11718.11718.17188.0586.11719.23047.23437.05859.17578.23437.0586.1172.05859-.1172.11328-.05859.11719v.11719l-.11719.29296-.11719.28907v.58203l.17579.11719.11718.05859.0586.11719.11719.11719.11328.05859.17578.34765.0586.35157.05858.40625v.17578l-.05859.17578-.11719.69922v.17187l.1172.17579.29296.29296h.40625l.17578.1172.11719.17187.11719.29296v.23438h-.52735l-.23047-.23438h-.23437l-.17578.0586-.0586.69922.0586.34765.11719.17579.17578.41015.11718.23047.28907.46875.17578.05469h.52344l.23437.0586.75781.64062.0586.29296v.23438l.05859.0586.23047.34765v.35156l-.11719.17188v.29297l.29297.28906.29297.17578.17187.0586.29297.17577.29297.1172.58203.40624.28906.23438.29297.17578.21875.16015.01563.01172.23047.17579.64062.52343.17578.23438.1172.17578.17577.17578.11328.17188v.64062l.1172.17578.46874.11719.58203.11719.23438.05859.23047.11328.29297.11719.11328.0586.58593.35156.28907.17187.17578.0625.17578.05469.17578.0586.69922.35155.28906.17579.23438.05468.28906.17578.23437.1172.64063.40624.29297.11719.17187.0586.23438.05859.41015.05859.23047.0586.23438.11718.0586.17188-.41017.17578.46875.0586.0586.29296.11328.23438.17578.05468.23438.0586.17578.05859.40625.11719.64062.23437.11719.17188.0586.23437v.17578l-.0586.1172-.0586.40624.23438.23438.11719.05859.34766.11719.64062.23047.17578.11718.28906.1172.17578.17577.23438.46485.58203 1.10546.17578.17579.34766.17578.17578.11719.35156.11718 1.04688.52344.23437.0586.46485.11327.29297.0586.46484.17578.75781.58203.23438.23438.34765.46484.17578.17578.28907.23438.8164.69921.29297.17579.28906.28906.29297.17578.29297.28906.69531.64063.17578.17578.29297.23437.28907.23438.46875.28906.64062.58203.34766.23438.23437.29297.34766.34765.35156.46485.9336.99218.34765.40625.11719.17579.23437.05859.11328.11719.64454.17578.23047.11328.23437.0586.29297.17577.23047.1172.9336.69921.40624.40625.23438.17578.40625.17578.23437.11719.8164.34766.34766.23437.23438.11719.29297.28906.23047.11719.7578.35156.35157.17188.23047.05859.29297.11719.23437.0586.8711.17577h.8164l.46875.23047.17188.0586.875.69921.46484.1172.29297.05858.17578.0586.23047.0586.46875.05859.34766.05859.35156.0586.40625.05859h.29297l.17187.0586v.23046l.17578.17578h.29297l.34766.0586.35156.05859.69922.11719h.64063l.46484-.23438.29297-.17578.17187-.11719.41016-.17187.28906-.17578.9336-.46485.46875-.29297.52343-.29296.46485-.17188.46484-.17578 1.05078-.46485.28906-.11718.41016-.11719.28906-.11719.52735-.17578 1.51562-.69922.58203-.34765.28907-.0586.29297-.0586.34765-.11718.875-.23047.35156-.11719h.11329l.23437-.05859.875-.23437.23438-.0586h.8125l.35156-.0586.8164-.11718.17188-.0586.35156-.05468.29297-.0586.23047-.05859.8164-.17578.17579-.0586h.34765l.23438-.05859.46484-.11718.75781-.17188.23438-.0586h.34765l.41016-.11718.28906-.0586 1.28516-.05859h.28906l.41016-.0586.23047-.05858h.17578l.875-.1172h.40625l.41015-.11718h.34766l.35156-.11328.8711-.0586h1.75l1.04687.28907.41016.11719.28906.11718.35156.11719.28907.11719 1.05078.17187.28906.0586h.29297l.29297.05859.17187.0586.41016.05859.17187.0586.1172.05858h.11718l.11719.0586.35156.0586h.11328l.41016.0664 1.92187.39453 1.92578.39453 1.51953.44922 1.69532.71875 2.14453.80469 1.60547-.71875 1.42968-.80469 1.16016-1.07813 1.25-.44921 3.03516-.71875 1.875-.35938 2.14453-1.34765 2.23437-1.25391 2.5-1.25781 1.69531-.44922 1.78516-.17969 1.16016-.26953.625.53906 1.33984-.26953.71485-.98828.98437-1.34375.44531-.17969.80469-.35937 1.875-.53907 1.78516-.44921 1.25-.26954 1.16015-.08984 1.69922-.08984 1.96094-.26954 1.25-.08984h.53906l.625-.08984h.89063l2.14453-.17969 2.41015-.17969 2.58985-.08984 1.69531.17969 1.60938.08984 1.42968.35938 1.16016.71875 1.875.98828 1.16015 1.52734.26563.71484.6289.08985.35548.89844.53515.53906.53516 1.52734 1.07422.35938h.53515l-.80469.53515.08985 1.70703.71484 2.69532.89063.80468.89453.98829.71484 1.2578 1.78516.53907 1.51953-.17969.35547 1.34375 1.60937-.80469.98047-.53906.26953.26953.31641-.21484.21875-.14453.80078.44922.44922-.35938h.35547l.53515-.26953.53907-.71875.53515-.26953.625-.98828 1.16016.44922.83984.3711 1.39454.61718 1.6953-.17969h1.60548l1.78515.08985.17969-1.70704.53516-1.34375.80468.26954.4922.84765.40233.40625-.08984.53906v.35938l.71485.44922.71093-.26953h1.42969l.35938.98828.4453 1.25781.71485 1.34375 1.25.6289 1.69531.62891.71485-.17969.17969-.53906.98046-.08984.44922.35937.08594 1.25782-.26563.6289-.53515.17969v.53906l.71484.98438.26563.53906.98437.98828.80078 1.07813-.26562.35937-.08985.89844-.625 2.33203-.35546 2.0664-.08985 1.79298-.17969.71875-.08984.53906v1.4375l-.98047 1.88281-.35937 1.70703-.53516.89844-.80469 1.16797-.26562.53906 2.05469 1.2539.08593.35938-.35546.53906-.08985-.17968v.80859l.08985 1.4375-.44532.71484-1.07422.09375-.26562.71485.53515.89844.8047.71875 1.16015.80859 1.33984.26953.44531.35938-.35546.44921-1.78907-.08984-1.25-.44922-.71484-.71875-.625-.08984-.17578 3.58984-.1875 1.3086h89.35937V311.70313h-55.26953v49.08203l.76172.125 3.28906.54296 2.02344 2.83594v2.7539l2.35156.33204 2.34766.33203h4.05078l-1.3789 4.16016-2.02344.70703-2.02344.70312-.54297.34375-2.59375 1.6172-.1875.11718-2.02344-2.07813-.73046-2.74218-2.67188-2.07813-1.375-3.5-.0664-.08203-1.95704-2.67188 2.75-1.41796v-49.08204H294.42187v91.41407l.1172.03125.1328.01172.07422.07421.10547.04688.08985.0586.08593.05859.08985.0586.29687.29687.0586.08984.03125.11719.02734.11719.01563.13671-.03125.1172-.0586.08983-.0586.08594-.04296.10547-.04688.10156-.02734.1211v.14453l.17578.26953.14844.14844.07422.08594.07422.07421.04296.10547.0625.08985.0586.08593.04297.10547.0586.08985.04687.10156.04296.10547.0586.08594.11719.17968.07421.07422.0625.08594.0586.08984.04297.10547.0586.08985.05858.08593.0625.08985.0586.08984.04297.10156.11719.17969.07421.07422.0586.08594.07422.07421.08984.0586.10547.04687h.14844l.1328-.01562.13282.01562.10156-.04687.07422-.07422.04688-.10156-.01563-.13281v-.14844l-.04687-.10547-.02735-.11719-.04687-.10156-.02735-.1211-.04296-.10156-.0625-.08984-.04297-.10156-.04297-.10547-.03125-.11719-.01563-.13281-.01171-.13672.08593-.0586.0586-.08593.12109-.03125.04297.10547.01562.1328v.1172l.0586.10156.0586.08984.08983.0586.14844.14843.0586.08985.04296.10547-.01171.10156.08593.0586.10547.04687.08594.0586.08984.05858.07422.07422-.11719.02735-.10546.04687-.08594.0586-.07422.07421-.0586.08985-.0625.08594-.02734.12109-.04687.10156-.04297.10547-.03125.11719-.01172.13281-.01563.13281v.14844l.02735.11719.04687.10547.04297.10156.0586.08984.07421.07422.08985.0586.07422.07421.08984.0586.0586.08984.04296.10547.04688.10156.11719.03125.1328.01563h.14845l.11718-.03125.10547.04297.04297.10547.04688.10156.02734.1211L299.5 410l.02734.11719.03125.1211.02735.11718.10547.04297.10156.04687.13281-.01562.14844.14844.0625.08593.07422.07422.07031.07422.08984.0625.10547.04297.10156.04297.1172.03125.13671.01562.11719-.03125.07422-.07422.02734-.11718-.01172-.13282-.03125-.12109-.02734-.11719.04297-.10547h.11719l.08984.0625.11719.02735h.14843l.13282.01562h.14843l.13282.01563.1328-.01563h.14845l.1328-.01562.13282-.01172.13672.01172.11719-.02735.13281-.01562.1914-.0586-.05859.17579-.01562.1328-.02735.1211-.01562.13281-.0586.08594-.1328.01563-.10548.04687-.10546.04297-.1172.03125-.11718.02735-.26563.03125h-.14843l-.13281.01562-.07422.07422.05859.08594.14844.14843.11719.1797.07421.0703.08985.0625.08984.0586.08594.0586.08984.05858.10156.04297.10547.0625.10547.04297.08594.0586.10547.04687.10156.04297.17969.11719.0586.08984-.04298.10156-.04687.10547.01562.13281.22266.22266.0586.08985.04296.10156.03125.1211.04297.10155.01563.13282.03125.11718.01171.13672.03125.11719.14844.14844.10156.04297.10547.04296.1172.03125.1328.01563.13672.01563h.11719l.11719-.03125.08984-.0586.04297-.10547.04688-.10156.04296-.10547.03125-.11719.01172-.1328v-.14845l-.01172-.1328-.01562-.13282-.03125-.11719-.04297-.10547-.04688-.10547-.04296-.10156-.04297-.10547-.01563-.13281.01563-.13281.02734-.11719.03125-.11719.02735-.1211.04687-.10155.08984-.0586.08594-.0625.07422-.07422.08984-.05859.22266-.22266.0586-.08593.07421-.07422.11719-.17969.0586-.08594v-.14844l-.07423-.07421-.10156-.04688-.10547-.04297-.10156-.04297-.0586-.08984-.04687-.10547-.02734-.11719.08984-.05859.11719-.03125.10156-.04297.17969-.11719.14844-.14843.01172-.13282-.01172-.10546-.08985-.0586-.1328.01563h-.14845l-.1328.01562-.13282-.01562-.1211-.03125-.08593-.0586-.07422-.07422-.0586-.08984-.0625-.08594-.11718-.17969-.0586-.08593.03125-.1211.08594-.05859.1211-.03125.05859-.08594v-.1211l-.03125-.11718-.0586-.08984-.05859-.08594-.04687-.10547-.02735-.11719-.01562-.1328.0586-.08985.07421-.07422.08984-.0586.1172-.17968.07421-.07422.0586-.08594.14843-.14844.1211-.03125.1328-.01562.13282.01562.07422.07422.04297.10547.01562.13281-.03125.1172-.11719.03124-.1328.01172-.14844.14844-.04297.10547-.04688.10156-.02734.1211-.03125.11718v.14844l.03125.11719.04297.10546.05859.08985.07422.07031.07422.07422.11719.03125.12109.02734.11719-.02734.1328-.01563h.1172l.08984.0586.07422.07422.04687.10546.0586.08594.10156.04688.13281.01562.10547.04297.08594.0586-.01172.10546-.07422.07422-.17969.11719-.05859.08984-.08984.0586-.07032.07422-.07421.07421-.0625.08985-.02735.11719-.01562.1328.01562.13282-.01562.13281v.14844l.01562.13281.02735.1172.03125.12108.07421.07422.08985.0586.08594.0586.08984.05858.11719.03125v.08594l-.10157.04688-.08984.0586-.26563.03124-.11718.02735h-.14844l-.10547.04296-.10156.04688-.0586.08984-.0625.23438-.01171.13281-.03125.1211-.01563.1328v.29298l-.01172.1328.01172.13673.01563.1328.1328.01563.13282.01172.1211.03125.08593.0586.07422.07421.04688.10547.04296.10157.01563.1328v.44532l-.01563.13281v.44532l.03125.26562.02735.11719.01562.13281.03125.11719.08594.21094.03125.26562v.14844l-.03125.11719-.02734.11718-.03125.1211-.02735.11719-.03125.11718-.03125.1211-.01171.1328-.01563.13282.08984.0586.1172-.03125.10155.01562.04688.10547-.03125.26562v.44141l-.04297.10547-.04688.10547-.04296.10156-.04297.10547-.0586.08594-.03125.12109-.04296.11719-.03125.11719-.01563.1328.01563.13282.05859.08984.10547.04688.08594.0586.05859.08593-.01172.13672-.03125.11719-.04297.10156v.44531l-.01562.13281v.14844l-.03125.11719-.04297.10547-.02735.11719-.04687.10546-.04297.10157-.03125.12109-.02734.11719-.03125.13281-.03125.11719-.02735.11719-.04297.10546-.03125.1172-.03125.12108-.01171.13282-.01563.13281v.29688l.02734.11718v.14844l.04688.39844.02734.11719.0586.08984.12109.03125h.14844l.13281-.01563.0586.08985v.11719l-.0586.08984-.08984.0586-.10157.04296-.10546.04688-.08985.05859-.08594.0586-.13671.01562-.1172-.03125-.1328-.01563-.10157.04688-.0625.08594-.01172.13671-.01562.13282-.03125.11719-.02735.11718-.01562.13281-.03125.1211v.29687l.01563.13282.03125.11718v.14844l.01171.13281v.14844l-.02734.11719-.04688.10156-.02734.1211-.03125.11718-.0586.08985-.07421.07421-.10156.04297-.10547.04688-.11719.02734-.1211.03125-.10156-.04687.0586-.08594.10547-.04688.02734-.11718.03125-.11719.02734-.1211.03125-.11718v-.14844l.01563-.13281-.03125-.11719-.04297-.10547-.10547.01563-.07422.07422-.10156.04296-.08984.0625-.07422.07422-.04297.10157-.01563.1328-.03125.1172L304.25 426l-.03125.11719-.02734.11719-.03125.12109-.02735.11719-.03125.11718-.04297.10547-.08984.0586h-.08984l-.1172-.03125-.03124-.08594.01562-.13672-.03125-.11719v-.14844l-.01171-.1328v-.14844l-.0625-.23438-.02735-.1211-.04297-.10156-.04687-.10546-.0586-.08594-.05859-.08985-.04297-.10546-.0625-.08594-.14844-.14844-.0703-.07422-.10548-.04687-.10547-.04297-.10156-.04297-.29687-.29688-.08985-.07421-.08594-.0586-.10546-.04297-.08985-.0625-.08594-.0586-.10546-.04296-.08985-.0586-.08594-.0625-.07421-.0703-.10547-.04688-.08594-.0586-.10547-.04296-.08984-.0625-.10156-.04297-.10547-.04297-.08594-.0586-.10547-.04687-.10547-.04297-.10156-.04687-.08985-.0586-.10156-.04297-.10547-.04296-.08984-.0625-.11719-.02735-.13281-.01562-.13281.01562H299.75l-.13281.01563-.11719-.03125-.08984-.0586-.07422-.07422-.08985-.05859-.10156-.04688h-.14844l-.12109-.02734-.10156-.04297-.07422-.07422-.11719-.17968-.08984-.0586-.10156-.04297-.08985-.0625-.10547-.04296-.08984-.0586-.08594-.0586-.10547-.04687-.0586-.08594-.05858-.08984-.04297-.10547-.04688-.10156-.07422-.07422-.08594-.0586-.07421-.07421-.08985-.0586-.22265-.22265-.04297-.10547-.03125-.26563.10547-.04296h.14453l.10547.04296.07421.07422.08985.0586.08594.0586.10546.04687.08985.05859.14844.14844.0703.07422.14845.14843.0625.08594.07421.07422.08594.0586.07422.07421.08985.0625.08984.0586.08594.05859.26953.17578.10156.04688.10547.04296.10156.04297.04688-.07421.05859-.08594.07422-.07422.07031-.07422.10547.04297.07422.07422.0586.08984.04296.10156.04688.10547.04296.10547.1211.02735.11719-.02735.07421-.08984.04297-.10547.0586-.08985.07422-.07421.10546-.04297.1172-.02735.1328.01172.08985.0586.14844.14843.05859.08985.04297.10547.04687.10156.04297.10547.04297.10156.10547.04688.10547.04296.13281.01563.08594-.0586.0586-.08984.07421-.07422.10547-.04297.11719.02735.10547.04687.10156.04297.10547.04297.10156.04688.17969.11718v.11719l-.01563.13281.01563.13281.01562.13672.0586.08594.10156.04688.1211.02734.11718.03125h.14844l.11719-.03125.05859-.08984.17969-.1172.05859-.08983.07422-.07422.0586-.08594.11718-.17969.17969-.11719.11719.03125.08984.0586.04297.07422-.01563.1328v.1172l.08985.05859h.14843l.13282-.01563.1328-.01171.26563-.03125.10547-.04297.11719-.03125.1211-.02735.07421-.07421.07031-.07422.0625-.08985-.01562-.10547-.04688-.10156-.10156-.04297-.10547-.01562-.11718.02734-.26563.03125h-.14844l-.07421-.07422-.08985-.0586-.11719-.03124-.11718-.02735-.13282-.01562h-.14843l-.13282.01563h-.29687l-.10547-.04688-.14844-.14844-.04297-.10156-.05859-.08984.22266-.22266.08593-.0586.10547-.04296.11719-.03125.13281-.01563.13281.01563.13672.01562.10157.04297.1328-.01172.08985-.0625.10156-.04297.0625-.08984-.04687-.10156-.08984-.0586-.1172-.03125-.10155-.04296-.0586-.08985-.0625-.08984v-.11719l.01563-.13281.10547-.04688.07421-.07031v-.1211l-.08984-.05859-.03125-.11719.08985-.05859.07421-.07422.04297-.10547.0586-.08984.04687-.10156.01563-.13281v-.14844l-.04688-.10547-.04297-.10156-.08984-.0586-.13281-.01562-.10157-.04297-.13671-.01563-.1172-.03125h-.4453l-.13282-.01562-.13281-.01172-.13281-.01563-.11719-.03125h-.14844l-.13281-.01562-.13281-.01172-.26563-.03125-.1211-.04297-.08593-.0586-.07422-.07421v-.14844l.01172-.13281.10547-.04688.10156-.04296.13281-.01563h.15235l.13281-.01562h.29297l.1211.03125.10156.04296.08984.0586.23438.0625.12109-.04688.08984-.05859.10156-.04297.13282-.01562.10547.04296.10156.04688.13281.01172.1211-.02735h.14453l.12109-.03125.11719-.02734.10547-.04687.07421-.07422.08594-.0586.14844-.14843.0586-.08594.04687-.10547.02734-.11719.01563-.10547-.10156-.04296-.08985-.0586-.11719-.03125-.10546-.04297-.08985-.0625-.07422-.08594-.07422-.07421-.10156-.04297-.10547-.04688-.10156-.04297-.0586-.08984-.04687-.10156-.08594-.21094-.0625-.08594-.05859-.08984-.07422-.07422-.08594-.0586h-.26953l-.11719.03126-.08984.05859-.10156.04297-.13281.01562-.10547-.01562-.02735-.11719-.0625-.08984-.11718-.03125-.10157-.04297-.14843-.14844-.03125-.11719-.01563-.10546.07422-.07422.17969-.1172.11719-.02733.11718-.03125.13672.01562.10156.04297.10547.04297.10156.04687.10547.04297.1172.03125.1328.01563.1172.02734.1328.01563.10547-.01563.08985-.0586-.07422-.07421-.10547-.04297-.07422-.07422-.07422-.08984-.14844-.14844-.08593-.0586-.08985-.05859-.07422-.07422-.08984-.0586-.10156-.04687-.1211-.02734-.10156-.04688-.10547-.04296-.11719-.03125-.10156-.04297-.1211-.03125h-.14843l-.11719.03125-.10546.04297-.08594.0625-.17969.11718-.08594.0586-.08984.0586-.10547.04687-.08594.05859-.10547.04297-.10156.04297-.10547.04687-.07422.07422-.05859.08985-.0586.08593-.04687.10547-.0586.08594-.07421.07422-.13281-.01172-.1172-.03125h-.11718l-.07422.07422-.08984.0586-.07422.07421-.08984.0586-.08594.05859-.10547.04687-.10156.04297-.13672.01563-.10156-.04297-.14844-.14844-.10547-.04688h-.08594l-.10547.04688-.10156.04297-.1211.03125-.11718-.03125-.07422-.07422v-.11719l.03125-.1211.07422-.0703.0586-.08985.07421-.07422.11719-.03125.10547-.04296h.29297l.13281-.01563.13672-.01563.10156-.04296.08985-.0586.10156-.04687.08984-.0586.13281-.01171.08985.05859.13281.01172.08984-.0586.08594-.05859.10547-.04297.08984-.0586.08594-.0625.08985-.05859.14843-.14843.0586-.08594.05859-.08985.10547-.04296.13281-.01563.11719.02735.1211.03125.05859-.0586.05859-.08984.03125-.26563.02734-.11719.10547.01172.13281.01563.10157-.04297.08984-.0586.0586-.08984.07421-.07422.0586-.08984.04687-.10156.01172-.13281-.01172-.13282-.04687-.10547-.14844-.14843-.0586-.08985-.05859-.08594-.04297-.10546v-.44532l.01563-.1328v-.14845l.01172-.1328-.0586-.0586-.08984.0586-.10156-.04298-.17969-.11719-.08594-.05859-.0625-.08984-.0586-.08985-.07421-.07421-.08594-.0586-.1211.03125-.10155.01172-.10547.04688-.08594.05859-.10547.04297-.14844.14844-.08984.05859-.08594.0586-.08984.0625-.10547.04296-.13281.01563v-.1211l.10547-.04297.11718-.03125.07422-.0703.04297-.10548v-.14844l-.02734-.11718-.14844-.14844-.13281-.01563h-.14844l-.11719.03125-.10547.04297-.10156.04297-.08984.0625-.11719.02735-.07422-.07422.01172-.13281-.04297-.10157-.04297-.10547-.08984-.05859-.11719.02734-.1211.03125-.11718.03125-.10156.04297-.1211.03125-.10156.04297-.10547.04297-.08984.0586-.10156.01562v-.11719l.01562-.13281-.0586-.08985-.07421.04297-.14844.14844-.0586.08985-.07421.07421-.04688.10547-.04296.10156-.07422.07422-.0586.08985-.07422.07422-.05859.08593-.07422.07422-.08984.0625-.07422.07031-.07422.07422-.10156.01563-.13281.01562-.10547-.04296v-.1211l.14843-.14844.04297-.10156.0586-.08984.04687-.10156.04297-.10547.0586-.08985.03124-.11719.04297-.10156.03125-.1211.02735-.11718.04687-.10547.04297-.10156.04297-.10547.07422-.07031.08984-.0625.08985-.0586.10156-.04296h.29687l.26563-.03125.10547-.04297-.07422-.07422-.11719-.03125-.10547-.04297-.08984-.0586-.10156-.04687-.08985-.0586-.10156-.04296-.10547-.04297-.08984-.0625-.08594-.0586-.10547-.04296-.10156-.04297-.1211-.03125-.11718-.03125-.10157-.04297L297.5 410.25l-.10156-.04297-.08985-.0586-.04296-.10546-.01563-.13281.10156-.04297.13281-.01563.13672.01563.13282-.01563.10156-.04297.0586-.08984.01562-.10547-.08985-.0586-.07421-.07421-.10157-.04297-.08984-.0586-.14844-.14843-.04297-.10547-.01562-.13281v-.29297l-.0586-.08985-.08984-.05859-.07422-.07422-.04297-.10547-.03125-.11718-.0586-.08985-.07421-.07422-.11719-.02734-.07422-.07422-.08984-.0586-.08984-.0625-.08594-.05859-.07422-.07421-.0586-.08594-.04687-.10547-.08594-.0586-.14843-.14843-.19532-.0586-.1328.01563-.10157.04297-.07422.07422-.04688.10156-.04296.10547-.0586.08984-.0586.08594-.29687.29687-.08984.0586h-.08594l-.0625-.08594-.04297-.10547.03125-.11719.0586-.08984.02734-.11719-.01172-.13281-.08984-.0625-.10547.04688-.11719.02734-.11719.03125-.26953.17578-.10156.04688-.11719.02734-.10546.04687-.08985.0586-.10156.04297-.0586-.08594-.04687-.10547.01563-.13281.04687-.10547.07031-.07422.07422-.07031.0586-.08985v-.14843l-.04297-.10547h-.23829l-.10156.04687-.03125.11719-.02734.11719-.03125.1211-.07422.04296-.13281.01563-.07422-.04688-.04297-.10156-.04297-.10547-.04687-.10156-.04297-.10547-.1211.03125-.10156.04297-.13281.01562-.11719.03125-.10547.04297-.08984.0586-.10156.04687-.1211.02734-.13281.01563-.10156-.04297-.0586-.08985-.04687-.10546-.04297-.10157-.04297-.10546v-.1172l.0586-.08984.08593-.05859.17969-.11719.10156-.04687.10547-.04297.10547-.0586.10156-.04296.08985-.0625.10156-.04297.10547-.0586.10156-.04687.08984-.0586.10547-.04296.10156-.04297.08985-.0625.10156-.04297.13672-.01563.11719.03125.10156.04297.1211.03125.10156.04297.10546.04688.10157.04296.10547.04297.10156.04688.10547.04297.10156.04297.10547.04687.08594.0586.10546.04296.1172.03125.10546.04297.10156.04688.08985.0586.10547.04296.10156.04297.10547.04687.11719.02735.10156.04687.1211.02735h.14843l.08594-.0586.01562-.10156.0586-.08984-.02735-.1172-.07422-.07421-.11719-.17969-.07421-.07422-.08985-.07421-.17969-.1172-.08593-.05859-.10547-.04296-.10156-.04688-.26954-.17578-.05859-.08985-.07422-.07421-.0586-.08985-.04296-.10156-.03125-.11719-.01563-.13672v-.5625l-.01171-.1328-.01563-.13282-.03125-.11719-.01562-.13281-.01172-.13281-.03125-.1211-.22266-.22265-.0586-.08594-.01562-.10547.03125-.11719.13281-.01562v-91.41406H172.9922v1.45312l-.0586.23438-.35156 1.05078-.17187.52343-.1172.34766-.17577.41016-.11719.17187-.23438.29297-.23046.0586h-.35157l-.11718.05859-.23047.40625v.29297l.11719.17578.23046.23047.1172.23437.64062.75781.29297.46485.17578.23437.23047.35156.23437.34766.64063.8164.17578.46485.17187.41016.11719.69531.17578.46875.11719 1.39844.0586.46484v.875l.11718 1.04688v4.78125l-.0586.46484-.35156 1.28125-.17578.52344-.11328.41015-.35156.9297L172.93359 336l-.23437.58203-.11719.17578-.17187.34766-.17578.40625-.35157.8164-.0586.29297-.11327.29297-.11719.28906-.0586.17579-.11718.875-.0586.40625-.05859.11718-.0586.17579-.05859.17187-.23047.52734-.11718.17188v.23437l-.11719.23438-.0586.17187-.17577.58594v.28906l-.0586.17579v.29296l-.0586.11329-.05859.52734v.17187l-.05468.23438v2.6211l-.17578.8164-.1172.17578-.17577.23438-.1172.17187-.11327.23438-.58594.93359-.23047.28906-.29297.46485-.17578.23437-.28906.35156-.35156.69922-.11328.23047-.17579.41016-.17578.23046-.40625.52735-.8164.69922-.29297.17187-.28906.23438-.17579.11719-.17578.17578-.52344.40625-.52734.17578-.17187.17578-.23438.05469-.64062.17578h-.75782m12.21094 31.02344l-1.07422.44921.35938.89454 1.25-.71485.44531-.53906-.98047-.08985"/><path fill="#d3d3d3" fill-opacity="0" fill-rule="evenodd" d="M201.50781 416.59766h-.89453l.44922.6289.98047.35938.80469-.08985.4453-.98828-.17577.08985-.71485-.35547-.89453.35547m154.6211 59.0703l-.0586-.52343v-.29297l.11328-.29297.0586-.23046.46875-.46875h.11328l.11719-.11329.11718-.05859h.17579l.23437-.0586h.34766l.23437.0586.11719.0586.23047.17187.0586.17578.11718.58203v.29297l-.11719.17578-.17187.28906-.17579.17579-.52734.52343-.23047.23438-.11719.0586h-.17578l-.11718-.0586-.40625-.29297-.17579-.11719-.11718-.0586-.0586-.11327-.05468-.1172m6.64062-10.95702l-.0586-.17188v-1.10937l.0586-.17188.17578-.0586.17188-.05858h.17578l.23437-.0586.1172.0586.05858.69921-.05859.17188-.11719.17578-.11718.0586-.23438.52343-.11328.0586h-.23438l-.05859-.1172m9.61328-14.39062l-.11719-.17578v-.69922l.29297-.875.1172-.17187.17577-.35156.11328-.23047.1172-.29297.35155-.75781.1172-.23047.17187-.23438h.17578l.11719-.0586h.64062l.11719.0586.23437.23438.17188.11328.35156.29297.11719.11718.11328.17579v.11328l.11719.05859.11718.11719v.69922l-.05859.17578v.23047l-.0586.17578-.34765 1.05078-.11719.23047-.11719.23437-.11718.0586-.23047.23437-.64063.28906h-.875l-.41015-.11718-.64063-.46485"/><path fill="none" stroke="#bebebe" stroke-linecap="round" stroke-linejoin="round" stroke-miterlimit="10" stroke-width=".5" d="M467.95703 311.69531H144.02734v168.625h323.9297v-168.625"/><g clip-path="url(#a)"><path fill="#fff" fill-opacity="0" fill-rule="evenodd" d="M144 475.89063v4.4375-168.65625h.0039H144v164.21875"/></g><g clip-path="url(#b)"><path fill="#fff" fill-opacity="0" fill-rule="evenodd" d="M144.0039 480.32813V311.67188h17.75v129.41796l-3.51952 3.73047-.32422 4.4414-.59375 3.61329-.40625.82422-.84375 4.4375.26562 4.4375.98438.66406 4.4375 1.42578 4.4375-1.14453 4.4375.88672 4.4375-.5625 4.4414-.91797.73828-.35156 3.69922-1.75781 3.95313-2.6797.21875-4.4375-4.17188-2.6953-4.4375-1.42188-.38281-.32031-4.0586-1.50781-3.92968-2.9336-.50781-.5586-4.4375-1.64843-4.4375-1.52344V311.67188h306.24218v168.65625H144.00391"/></g><path fill="#50fcfc" fill-rule="evenodd" d="M156.33203 462.57422l-.26562-4.4375.84375-4.4375.40625-.82422.59375-3.61328.32422-4.4414 3.51953-3.73048v2.53907l-1.125 1.1914 1.125 3.05469 3.17578 1.38672-3.17578 1.82031-1.0625 2.61719-1.3672 4.4375 2.4297 3.09765 4.4375-.58593 4.4375.47265 4.4375-.28125 3.64453-2.70312-3.64453-3.84375-.84375-.59375-3.59375-2.89063-3.6875-1.54687-.75-.40235-2.86328-4.03906-1.57422-1.1914v-2.53907l4.4375 1.52344 4.4375 1.64844.5078.5586 3.9297 2.93359 4.05859 1.5078.38281.32032 4.4375 1.42188 4.17188 2.6953-.21875 4.4375-3.95313 2.6797-3.69922 1.7578-.73828.35157-4.4414.91797-4.4375.5625-4.4375-.88672-4.4375 1.14453-4.4375-1.42578-.98438-.66406"/><path fill="#00e8fc" fill-rule="evenodd" d="M161.7539 461.23438l-2.42968-3.09766 1.36719-4.4375 1.0625-2.61719 3.17578-1.82031-3.17578-1.38672-1.125-3.05469 1.125-1.1914 1.57422 1.1914 2.86328 4.03906.75.40235 3.6875 1.54687 3.59375 2.89063.84375.59375 3.64453 3.84375-3.64453 2.70312-4.4375.28125-4.4375-.47265-4.4375.58594"/><g clip-path="url(#c)"><path fill="#fff" fill-opacity="0" fill-rule="evenodd" d="M467.9961 480.32813H468V311.67188h-.0039H468v168.65625h-.0039"/></g><g clip-path="url(#d)"><path fill="none" stroke="#000" stroke-linecap="round" stroke-linejoin="round" stroke-miterlimit="10" stroke-width=".5" d="M147.5039 480.58203l-7.0078-.50781"/></g><g clip-path="url(#e)"><path fill="none" stroke="#000" stroke-linecap="round" stroke-linejoin="round" stroke-miterlimit="10" stroke-width=".5" d="M147.5039 480.58203l.9922 2.2461"/></g><g clip-path="url(#f)"><path fill="none" stroke="#000" stroke-linecap="round" stroke-linejoin="round" stroke-miterlimit="10" stroke-width=".5" d="M146.48438 480.50781l.49609 1.125"/></g><g clip-path="url(#g)"><path fill="none" stroke="#000" stroke-linecap="round" stroke-linejoin="round" stroke-miterlimit="10" stroke-width=".5" d="M160.82813 480.45313l-7.02344-.25"/></g><g clip-path="url(#h)"><path fill="none" stroke="#000" stroke-linecap="round" stroke-linejoin="round" stroke-miterlimit="10" stroke-width=".5" d="M160.82813 480.45313l1.07421 2.20703"/></g><g clip-path="url(#i)"><path fill="none" stroke="#000" stroke-linecap="round" stroke-linejoin="round" stroke-miterlimit="10" stroke-width=".5" d="M159.80469 480.41797l.53906 1.10156"/></g><g clip-path="url(#j)"><path fill="none" stroke="#000" stroke-linecap="round" stroke-linejoin="round" stroke-miterlimit="10" stroke-width=".5" d="M174.125 480.6914l-6.98828-.72656"/></g><g clip-path="url(#k)"><path fill="none" stroke="#000" stroke-linecap="round" stroke-linejoin="round" stroke-miterlimit="10" stroke-width=".5" d="M174.125 480.6914l.92188 2.27735"/></g><g clip-path="url(#l)"><path fill="none" stroke="#000" stroke-linecap="round" stroke-linejoin="round" stroke-miterlimit="10" stroke-width=".5" d="M173.10938 480.58594l.46093 1.13672"/></g><g clip-path="url(#m)"><path fill="none" stroke="#000" stroke-linecap="round" stroke-linejoin="round" stroke-miterlimit="10" stroke-width=".5" d="M187.4336 480.73438l-6.97657-.8125"/></g><g clip-path="url(#n)"><path fill="none" stroke="#000" stroke-linecap="round" stroke-linejoin="round" stroke-miterlimit="10" stroke-width=".5" d="M187.4336 480.73438l.89452 2.28515"/></g><g clip-path="url(#o)"><path fill="none" stroke="#000" stroke-linecap="round" stroke-linejoin="round" stroke-miterlimit="10" stroke-width=".5" d="M186.41797 480.61719l.44922 1.14062"/></g><g clip-path="url(#p)"><path fill="none" stroke="#000" stroke-linecap="round" stroke-linejoin="round" stroke-miterlimit="10" stroke-width=".5" d="M200.75781 480.66016L193.76171 480"/></g><g clip-path="url(#q)"><path fill="none" stroke="#000" stroke-linecap="round" stroke-linejoin="round" stroke-miterlimit="10" stroke-width=".5" d="M200.75781 480.66016l.94531 2.26562"/></g><g clip-path="url(#r)"><path fill="none" stroke="#000" stroke-linecap="round" stroke-linejoin="round" stroke-miterlimit="10" stroke-width=".5" d="M199.74219 480.5625l.46875 1.13281"/></g><g clip-path="url(#s)"><path fill="none" stroke="#000" stroke-linecap="round" stroke-linejoin="round" stroke-miterlimit="10" stroke-width=".5" d="M214.08203 480.53516l-7.01562-.41016"/></g><g clip-path="url(#t)"><path fill="none" stroke="#000" stroke-linecap="round" stroke-linejoin="round" stroke-miterlimit="10" stroke-width=".5" d="M214.08203 480.53516l1.02344 2.23047"/></g><g clip-path="url(#u)"><path fill="none" stroke="#000" stroke-linecap="round" stroke-linejoin="round" stroke-miterlimit="10" stroke-width=".5" d="M213.0625 480.47266l.51172 1.11718"/></g><g clip-path="url(#v)"><path fill="none" stroke="#000" stroke-linecap="round" stroke-linejoin="round" stroke-miterlimit="10" stroke-width=".5" d="M227.39453 480.59766l-7.00781-.53907"/></g><g clip-path="url(#w)"><path fill="none" stroke="#000" stroke-linecap="round" stroke-linejoin="round" stroke-miterlimit="10" stroke-width=".5" d="M227.39453 480.59766l.98047 2.25"/></g><g clip-path="url(#x)"><path fill="none" stroke="#000" stroke-linecap="round" stroke-linejoin="round" stroke-miterlimit="10" stroke-width=".5" d="M226.375 480.51953l.49219 1.125"/></g><g clip-path="url(#y)"><path fill="none" stroke="#000" stroke-linecap="round" stroke-linejoin="round" stroke-miterlimit="10" stroke-width=".5" d="M240.71875 480.375l-7.02734-.09375"/></g><g clip-path="url(#z)"><path fill="none" stroke="#000" stroke-linecap="round" stroke-linejoin="round" stroke-miterlimit="10" stroke-width=".5" d="M240.71875 480.375l1.1211 2.1836"/></g><g clip-path="url(#A)"><path fill="none" stroke="#000" stroke-linecap="round" stroke-linejoin="round" stroke-miterlimit="10" stroke-width=".5" d="M239.69531 480.36328l.5625 1.08985"/></g><g clip-path="url(#B)"><path fill="none" stroke="#000" stroke-linecap="round" stroke-linejoin="round" stroke-miterlimit="10" stroke-width=".5" d="M254.03125 480.15234l-7.01953.35547"/></g><g clip-path="url(#C)"><path fill="none" stroke="#000" stroke-linecap="round" stroke-linejoin="round" stroke-miterlimit="10" stroke-width=".5" d="M254.03125 480.15234l1.25781 2.10547"/></g><g clip-path="url(#D)"><path fill="none" stroke="#000" stroke-linecap="round" stroke-linejoin="round" stroke-miterlimit="10" stroke-width=".5" d="M253.00781 480.20313l.6289 1.05078"/></g><g clip-path="url(#E)"><path fill="none" stroke="#000" stroke-linecap="round" stroke-linejoin="round" stroke-miterlimit="10" stroke-width=".5" d="M267.34375 480.1211l-7.01563.41406"/></g><g clip-path="url(#F)"><path fill="none" stroke="#000" stroke-linecap="round" stroke-linejoin="round" stroke-miterlimit="10" stroke-width=".5" d="M267.34375 480.1211l1.27734 2.09374"/></g><g clip-path="url(#G)"><path fill="none" stroke="#000" stroke-linecap="round" stroke-linejoin="round" stroke-miterlimit="10" stroke-width=".5" d="M266.32422 480.17969l.63672 1.04687"/></g><g clip-path="url(#H)"><path fill="none" stroke="#000" stroke-linecap="round" stroke-linejoin="round" stroke-miterlimit="10" stroke-width=".5" d="M280.66406 480.3164l-7.02734.02735"/></g><g clip-path="url(#I)"><path fill="none" stroke="#000" stroke-linecap="round" stroke-linejoin="round" stroke-miterlimit="10" stroke-width=".5" d="M280.66406 480.3164l1.16016 2.16016"/></g><g clip-path="url(#J)"><path fill="none" stroke="#000" stroke-linecap="round" stroke-linejoin="round" stroke-miterlimit="10" stroke-width=".5" d="M279.64063 480.32031l.58203 1.07813"/></g><g clip-path="url(#K)"><path fill="none" stroke="#000" stroke-linecap="round" stroke-linejoin="round" stroke-miterlimit="10" stroke-width=".5" d="M293.97656 480.20703l-7.02344.24219"/></g><g clip-path="url(#L)"><path fill="none" stroke="#000" stroke-linecap="round" stroke-linejoin="round" stroke-miterlimit="10" stroke-width=".5" d="M293.97656 480.20703l1.22656 2.125"/></g><g clip-path="url(#M)"><path fill="none" stroke="#000" stroke-linecap="round" stroke-linejoin="round" stroke-miterlimit="10" stroke-width=".5" d="M292.95703 480.24219l.61328 1.0625"/></g><g clip-path="url(#N)"><path fill="none" stroke="#000" stroke-linecap="round" stroke-linejoin="round" stroke-miterlimit="10" stroke-width=".5" d="M307.28906 480.1289l-7.01562.39844"/></g><g clip-path="url(#O)"><path fill="none" stroke="#000" stroke-linecap="round" stroke-linejoin="round" stroke-miterlimit="10" stroke-width=".5" d="M307.28906 480.1289l1.27344 2.09766"/></g><g clip-path="url(#P)"><path fill="none" stroke="#000" stroke-linecap="round" stroke-linejoin="round" stroke-miterlimit="10" stroke-width=".5" d="M306.26953 480.1875l.63672 1.04688"/></g><g clip-path="url(#Q)"><path fill="none" stroke="#000" stroke-linecap="round" stroke-linejoin="round" stroke-miterlimit="10" stroke-width=".5" d="M320.60547 480.50781l-7.01953-.35937"/></g><g clip-path="url(#R)"><path fill="none" stroke="#000" stroke-linecap="round" stroke-linejoin="round" stroke-miterlimit="10" stroke-width=".5" d="M320.60547 480.50781l1.03906 2.22266"/></g><g clip-path="url(#S)"><path fill="none" stroke="#000" stroke-linecap="round" stroke-linejoin="round" stroke-miterlimit="10" stroke-width=".5" d="M319.58203 480.45703l.51953 1.10938"/></g><g clip-path="url(#T)"><path fill="none" stroke="#000" stroke-linecap="round" stroke-linejoin="round" stroke-miterlimit="10" stroke-width=".5" d="M333.8789 480.90234l-6.93359-1.14843"/></g><g clip-path="url(#U)"><path fill="none" stroke="#000" stroke-linecap="round" stroke-linejoin="round" stroke-miterlimit="10" stroke-width=".5" d="M333.8789 480.90234l.78126 2.32422"/></g><g clip-path="url(#V)"><path fill="none" stroke="#000" stroke-linecap="round" stroke-linejoin="round" stroke-miterlimit="10" stroke-width=".5" d="M347.05078 481.46875l-6.64844-2.28125"/></g><g clip-path="url(#W)"><path fill="none" stroke="#000" stroke-linecap="round" stroke-linejoin="round" stroke-miterlimit="10" stroke-width=".5" d="M360.34766 481.51172l-6.61329-2.36719"/></g><g clip-path="url(#X)"><path fill="none" stroke="#000" stroke-linecap="round" stroke-linejoin="round" stroke-miterlimit="10" stroke-width=".5" d="M373.65625 481.53906l-6.59766-2.41797"/></g><g clip-path="url(#Y)"><path fill="none" stroke="#000" stroke-linecap="round" stroke-linejoin="round" stroke-miterlimit="10" stroke-width=".5" d="M387.1211 480.99219l-6.89844-1.32813"/></g><g clip-path="url(#Z)"><path fill="none" stroke="#000" stroke-linecap="round" stroke-linejoin="round" stroke-miterlimit="10" stroke-width=".5" d="M387.1211 480.99219l.72265 2.34375"/></g><g clip-path="url(#aa)"><path fill="none" stroke="#000" stroke-linecap="round" stroke-linejoin="round" stroke-miterlimit="10" stroke-width=".5" d="M400.28125 481.54297l-6.58984-2.42969"/></g><g clip-path="url(#ab)"><path fill="none" stroke="#000" stroke-linecap="round" stroke-linejoin="round" stroke-miterlimit="10" stroke-width=".5" d="M399.32422 481.1914l.16406 1.21485"/></g><g clip-path="url(#ac)"><path fill="none" stroke="#000" stroke-linecap="round" stroke-linejoin="round" stroke-miterlimit="10" stroke-width=".5" d="M413.58594 481.57813l-6.5664-2.5"/></g><g clip-path="url(#ad)"><path fill="none" stroke="#000" stroke-linecap="round" stroke-linejoin="round" stroke-miterlimit="10" stroke-width=".5" d="M412.6289 481.21484l.15235 1.21875"/></g><g clip-path="url(#ae)"><path fill="none" stroke="#000" stroke-linecap="round" stroke-linejoin="round" stroke-miterlimit="10" stroke-width=".5" d="M426.05078 482.85938l-4.8711-5.0625"/></g><g clip-path="url(#af)"><path fill="none" stroke="#000" stroke-linecap="round" stroke-linejoin="round" stroke-miterlimit="10" stroke-width=".5" d="M438.5586 483.4414l-3.25391-6.22656"/></g><g clip-path="url(#ag)"><path fill="none" stroke="#000" stroke-linecap="round" stroke-linejoin="round" stroke-miterlimit="10" stroke-width=".5" d="M452.0586 483.33984l-3.625-6.02343"/></g><g clip-path="url(#ah)"><path fill="none" stroke="#000" stroke-linecap="round" stroke-linejoin="round" stroke-miterlimit="10" stroke-width=".5" d="M464.52344 483.70703l-1.92578-6.75781"/></g><g clip-path="url(#ai)"><path fill="none" stroke="#000" stroke-linecap="round" stroke-linejoin="round" stroke-miterlimit="10" stroke-width=".5" d="M147.50781 467.20313l-7.01562-.37891"/></g><path fill="none" stroke="#000" stroke-linecap="round" stroke-linejoin="round" stroke-miterlimit="10" stroke-width=".5" d="M147.50781 467.20313l1.03516 2.22656m-2.05469-2.28125l.51563 1.11328m13.82422-1.30078l-7.02735.10547m7.02734-.10547l1.1836 2.14843m-2.20703-2.1328l.59375 1.07421m13.73047-1.35937l-6.9961.64453m6.9961-.64453l1.34375 2.05468m-2.36328-1.96093l.67578 1.02734m13.67187-.85156l-7.02344.10547m7.02344-.10547l1.1836 2.15234m-2.20313-2.13672l.58984 1.07422m13.7461-.92187l-7.02344-.22657m7.02344.22657l1.07812 2.19921m-2.10156-2.23437l.53906 1.10156m13.80078-1.2461l-7.02734.12891m7.02734-.1289l1.1875 2.14453m-2.21093-2.125l.59375 1.07422m13.73828-1.23438l-7.01563.41016m7.01563-.41016l1.27734 2.09375m-2.29687-2.03515l.63672 1.04687m13.68359-1.27344l-6.98828.7461m6.98828-.7461l1.375 2.03125m-2.39063-1.92187l.6875 1.01562m13.5586-1.59765l-6.82031 1.6914m6.8203-1.6914l1.64063 1.82422m-2.63281-1.57813l.82031.91406m13.52735-.98828l-6.89844 1.34766m6.89844-1.34766l1.54297 1.90625m-2.54688-1.71093l.77344.95312m13.5664-1.03125l-6.9414 1.11328m6.9414-1.11328l1.48047 1.95703m-2.49219-1.79687l.7422.98047m13.57421-1.1875l-6.92187 1.20703m6.92187-1.20703l1.50781 1.9375m-2.51172-1.76172l.75.96875m13.54297-1.28907l-6.86718 1.4961m6.86718-1.4961l1.58594 1.8711m-2.58594-1.65235l.79297.9336m13.57813-.80078l-6.98047.79297m6.98047-.79297l1.39062 2.02343m-2.40625-1.91015l.69531 1.01172m13.65625-.90235l-7.01953.34766m7.01953-.34766l1.25391 2.10547m-2.27734-2.05469l.6289 1.0547m13.71094-.8125l-7.02344-.23829m7.02344.23828l1.07813 2.20313m12.02734-1.1289l-6.60547-2.38673m6.60547 2.38672l.34766 2.42969m12.7578-1.96094l-6.1875-3.32422m6.1875 3.32422l-.0078 2.45313m13.55468-2.98047l-6.65234-2.26953m5.6836 1.9375l.19921 1.21093m13.96875-.58203l-6.41797-2.86328m15.66016 4.83594l1.72656-6.8086m-1.47656 5.82032l-1.1914.28906m14.11718.66016l2.00781-6.73047m-1.71484 5.7539l-1.20313.2422m16.53516.6289l-2.61328-6.51953m2.23437 5.5703l-.79296.9375m13.78515.21095l-1.21094-6.91797m1.21094 6.91797l-1.9336 1.51171m15.97266-1.71875l-2.65625-6.5039m2.26954 5.5586l-.78516.9414"/><g clip-path="url(#aj)"><path fill="none" stroke="#000" stroke-linecap="round" stroke-linejoin="round" stroke-miterlimit="10" stroke-width=".5" d="M147.51172 453.61328l-7.02344.16797"/></g><path fill="none" stroke="#000" stroke-linecap="round" stroke-linejoin="round" stroke-miterlimit="10" stroke-width=".5" d="M147.51172 453.61328l1.20312 2.14063m12.11328-2.1836l-7.02343.2539m7.02344-.2539l1.22656 2.125m12.08984-1.9961h-7.02734m7.02734 0l1.15234 2.16407M187.44531 454l-7-.60156m7 .60156l.96485 2.25781m12.36328-2.64062l-7.02735.16406m7.02735-.16406l1.20312 2.13672m-2.22656-2.11328l.60156 1.0703m13.73438-1.16015l-7.01953.29297m7.01953-.29297l1.24219 2.11719m-2.26563-2.07422l.6211 1.0586m13.61327-1.82032l-6.8125 1.73047m6.8125-1.73047l1.64844 1.8164m-2.64062-1.5625l.82422.90626m13.49218-1.10938l-6.83203 1.63282m6.83203-1.63282l1.625 1.83985m11.51172-2.39453l-6.47265 2.73828m6.47265-2.73828l1.90235 1.54687m-2.84375-1.14844l.94922.77344m13.2578-1.27734l-6.375 2.95312m6.375-2.95312l1.95704 1.48047m-2.88281-1.05079l1.95312 1.48047m12.36328-1.73828l-6.52734 2.60938m6.52734-2.60938l1.8711 1.58203m-2.82032-1.20312l1.8711 1.58203m12.48437-1.70703l-6.70703 2.10156m6.70703-2.10156l1.7461 1.72265m-2.72266-1.41796l1.7461 1.72265m12.59765-1.82812l-6.8164 1.70312m6.8164-1.70312l1.64453 1.8203m-2.63281-1.57421l1.64062 1.82422m12.70703-1.8711l-6.90234 1.3047m6.90234-1.3047l1.53516 1.91407m-2.53906-1.72266l1.53515 1.91406m12.79297-2.05468l-6.92187 1.19922m6.92187-1.19922l1.50782 1.9414m-2.51172-1.76562l.75.96875m13.5625-1.17969l-6.91016 1.27344m6.91016-1.27344l1.52734 1.92188m-2.53125-1.73829l.76172.96094m13.4336-1.625l-6.66016 2.23438m6.66015-2.23438l1.78125 1.6875m10.76953-2.96875l-5.1328 4.79688m4.38671-4.10157l1.16016.39844m11.69531-1.9375l-2.71875 6.48047m2.32031-5.53516l1.22266-.11328m12.39062-.8711l-2.51953 6.5586m11.24219-2.16406l6.66406-2.22656m-5.69531 1.90234l-.88672-.84375m13.4336 1.64844l6.26171-3.1914m-6.26172 3.1914l-2.0078-1.40625m16.97265 2.9961l2.96484-6.3672m-2.53515 5.44141l-1.22657.0625m15.1875 1.16797l.81641-6.98047m-.69922 5.96485l-1.14453.4453m14.8711.59376l-.2422-7.02344m.20704 6l-1.0625.61328"/><g clip-path="url(#ak)"><path fill="none" stroke="#000" stroke-linecap="round" stroke-linejoin="round" stroke-miterlimit="10" stroke-width=".5" d="M147.51172 440.3086l-7.02344.15234"/></g><path fill="none" stroke="#000" stroke-linecap="round" stroke-linejoin="round" stroke-miterlimit="10" stroke-width=".5" d="M147.51172 440.3086l1.19922 2.14062m-2.21875-2.1211l.59765 1.07422m13.73828-1.10937l-7.02734.1836m7.02734-.1836l1.20704 2.13672m12.09765-2.32813l-7.0039.5625m7.0039-.5625l1.32031 2.07031m-2.33984-1.98828l.66016 1.03516m13.67969-.625l-7.01563-.41797m7.01563.41797l1.01953 2.23047m-2.03907-2.29297l.50782 1.11719m13.73437-.4414l-6.83203-1.64845m6.83203 1.64844l.61328 2.3789M214.08594 440.5l-7.02344-.23437m7.02344.23437l1.08203 2.20313m12.02734-3.51563l-6.60937 2.39063m6.60937-2.39063l1.82031 1.64453m11.69141-.75781l-7 .61719m5.98047-.52735l.66797 1.03125m13.67187-1.04297l-7.01172.46094m7.01172-.46094l1.28907 2.08985m11.7539-3.23047l-6.46875 2.74219m6.46875-2.7422l1.90625 1.54688m11.54688-1.15625l-6.7461 1.96485m6.7461-1.96485l1.71093 1.75782m-2.6914-1.47266l.85547.8789m13.48828-.98437l-6.83985 1.60547m6.83985-1.60547l1.61719 1.84375m-2.61329-1.60937l1.6172 1.84375m12.6914-2.08985l-6.83594 1.6289m6.83594-1.6289l1.6211 1.83985m-2.6172-1.60547l.8125.92187m13.51563-1.08203l-6.8711 1.48047m6.8711-1.48047l1.58203 1.875m-2.58203-1.66015l.79297.9375m13.54297-1.03516l-6.91407 1.2461m6.91407-1.2461l1.51953 1.92578m11.69922-2.33594l-6.71875 2.0625m6.71875-2.0625l1.73437 1.73438m11.53516-1.8711l-6.6289 2.33594m6.6289-2.33594l1.80469 1.66016m10.46484-3.17187l-4.53906 5.36328m3.8789-4.58594l1.19922.26172m10.1914-1.85938l.63282 7m-.54297-5.98047l1.02735-.67187m12.41796-.35938l.19141 7.02344m-.16406-6l1.0664-.60547m13.33985-.26562l-2.04297 6.72265m2.04297-6.72265l2.40625-.47266m10.13281.32813l-.4961 7.0078m.42579-5.98827l1.1211-.4961m8.5039 2.87891l7.02734.20313m-7.02734-.20313l-1.08594-2.19922m15.52344 4.8789l4.78125-5.15234m-4.78125 5.15235l-2.3711-.63281m16.63672 1.26171L465 437.1797m-2.45703 5.47656l-1.22656.08203"/><g clip-path="url(#al)"><path fill="none" stroke="#000" stroke-linecap="round" stroke-linejoin="round" stroke-miterlimit="10" stroke-width=".5" d="M147.5039 426.82422l-7.0078.49219"/></g><path fill="none" stroke="#000" stroke-linecap="round" stroke-linejoin="round" stroke-miterlimit="10" stroke-width=".5" d="M147.5039 426.82422l1.30079 2.07812m-2.32031-2.0078l.65234 1.03905m13.67578-.51562l-6.99219-.69531m6.99219.6953l.92969 2.26954m-1.94922-2.3711l.46875 1.13282m13.82031-.71875l-6.90234-1.32422m6.90234 1.32422l.72266 2.34375m-1.72656-2.53516l.35937 1.17188m14.00781-1.32813l-7-.6289m7 .6289l.95313 2.26172m12.25781-1.67187l-6.79297-1.8086m5.80469 1.54688l.27734 1.1914m12.91797.83203l-4.57422-5.33203m3.90625 4.5586l-.44531 1.14062m15.28906-1.47656l-6.29687-3.11328m5.38281 2.66015l.03516 1.22657m14.47265-1.5625l-6.85547-1.53125m5.85938 1.30469l.32422 1.18359m14.04687-1.28516l-6.97265-.8789m5.95703.75l.4375 1.14843m13.61328-2.89453l-6.41406 2.8711m5.48046-2.45313l.96875.75m13.10157-1.51172l-6.0586 3.5586m5.17578-3.04297l1.04688.64453m13.21484-1.04688l-6.1875 3.33203m6.1875-3.33203l2.04297 1.36328m11.63281-.33984l-6.90625 1.28516m6.90625-1.28516l1.53125 1.91797m11.83985-1.44922l-7.01953.34766m7.01953-.34766l1.25781 2.10938m12.05469-1.71094l-7.01172-.44922m7.01172.44922l1.01172 2.23437m12.3086-2.39453l-7.02345-.1289m7.02344.1289l1.11328 2.1914m11.90235-3.67968l-6.42579 2.84766m6.42579-2.84766l1.92968 1.51172m-2.86328-1.09766l.96485.75782m13.04296-1.625l-5.9414 3.7539m5.9414-3.7539l2.12891 1.21875m-2.9961-.67188l1.06641.60938m12.41016-1.96485l-4.53125 5.3711m3.8711-4.58985l1.19921.25781m13.71485.21094l-6.41407 2.8711m6.41407-2.8711l1.9375 1.50781m-2.8672-1.08984l.96485.7539m12.94922-1.7578l-5.7461 4.04296m5.7461-4.04297l2.1875 1.10938m-3.02344-.52344l1.09375.55469m12.48438-1.77344l-4.60156 5.3086m4.60156-5.3086l2.39062.54688m-3.0625.22265l2.39453.55078m-3.0625.22266l1.19532.27344m14.45703-.3711l-6.59766 2.41797m6.59766-2.41797l1.82812 1.63672m-2.78906-1.28515l.91406.8164m13.35547 1.27344l-6.58203-2.46484m6.58203 2.46484l.3164 2.4336m13.13282-2.88672l-6.85156-1.5586m6.85156 1.5586l.64453 2.36718"/><g clip-path="url(#am)"><path fill="none" stroke="#000" stroke-linecap="round" stroke-linejoin="round" stroke-miterlimit="10" stroke-width=".5" d="M147.33203 412.64063l-6.66406 2.22265"/></g><path fill="none" stroke="#000" stroke-linecap="round" stroke-linejoin="round" stroke-miterlimit="10" stroke-width=".5" d="M147.33203 412.64063l1.77734 1.6914m-2.74609-1.36719l.89063.84766m13.53515-.57422l-6.94922 1.02735m6.94922-1.02735l1.45703 1.97656m11.7422-.42968l-6.71485-2.0625m5.73828 1.76172l.23047 1.20703m14.14844-1.25391L180.5 413.07031m5.89063 1.16797l.35156 1.17578m13.92187-.78906l-6.8086-1.74219m5.81642 1.48828l.28906 1.19141m10.83594-5.3164l-.44532 7.01562m11.92969-6.63281L225.5 416.875m13.875-5.88281l-4.33984 5.52344m3.71093-4.71875l1.20703.21484m13.375-.3711l-5.61718 4.22657m19.50781-1.16016l-6.76563-1.90625m5.78125 1.6289l.25782 1.19923m13.44922-4.00782l-5.58203 4.26563m4.76953-3.64453l1.11718.50781m11.67579-2.19531l-2.91016 6.39844m2.91015-6.39844l2.44922-.14844m9.83594-.14062l-.85547 6.97656m.73438-5.96094l1.14453-.4414m14.59375.69921l-5.45703 4.42578m4.66406-3.78125l1.1289.48047m13.42579-.41797l-6.34766 3.01172m5.42188-2.57031l.98437.73047m13.5586-.16406l-6.95313 1m6.95313-1l1.44921 1.98047m11.90235-1.4375l-7.02735-.08985m7.02735.08985l1.125 2.18359m-2.14844-2.19531l.5625 1.08984m13.48047-2.53516l-6.4336 2.82422m6.4336-2.82422l1.92578 1.52344m-2.86328-1.10937l1.92578 1.51953m12.49219-1.46875l-6.76563 1.89844m6.76563-1.89844l1.69531 1.77344m-2.67969-1.4961l1.69531 1.77344m12.44141-2.50781l-6.4414 2.8125m6.4414-2.8125l1.92188 1.52343m-2.85938-1.11328l1.92188 1.52344m-2.85938-1.11719l.96094.76172m13.92187-2.13672l-5.82812 3.92969m5.82812-3.92969l2.16797 1.15235m-3.01562-.58203l2.16406 1.15234m-3.01172-.57813l2.16406 1.15235m12.76172-2.41797l-5.65625 4.17187m5.65625-4.17187l2.21094 1.0625m-3.03516-.45703l2.21485 1.0625m-3.03906-.45313l2.21484 1.0586m13.17969-1.4961l-6.51954 2.61719m6.51954-2.61719l1.875 1.57813m-2.82422-1.19922l1.8789 1.58203m12.48829-1.66797l-6.72657 2.03125m6.72656-2.03125l1.73047 1.74219m-2.70703-1.44531l1.72656 1.74218m-2.70703-1.44921l.86329.87109m14.55859-.54688l-7.02344.20313"/><g clip-path="url(#an)"><path fill="none" stroke="#000" stroke-linecap="round" stroke-linejoin="round" stroke-miterlimit="10" stroke-width=".5" d="M467.07422 413.65234l1.21484 2.13282"/></g><path fill="none" stroke="#000" stroke-linecap="round" stroke-linejoin="round" stroke-miterlimit="10" stroke-width=".5" d="M466.05078 413.6836l.60938 1.0664"/><g clip-path="url(#ao)"><path fill="none" stroke="#000" stroke-linecap="round" stroke-linejoin="round" stroke-miterlimit="10" stroke-width=".5" d="M147.16797 398.91406l-6.33594 3.04688"/></g><path fill="none" stroke="#000" stroke-linecap="round" stroke-linejoin="round" stroke-miterlimit="10" stroke-width=".5" d="M147.16797 398.91406l1.97656 1.45313m-2.89844-1.00781l.98828.72656m12.60157-2.09766l-5.03906 4.89844m5.03906-4.89844l2.33594.75m-3.07032-.03515l1.16797.375m11.51953-1.95704l-2.3164 6.63282m1.97656-5.66797l1.21484-.1875m8.67578.1836l5.21094 4.71093m10.79688-5.86719l-.17188 7.02344m16.76172-2.4961l-6.72656-2.03125m5.75 1.73829l.23828 1.20312m14.1875-1.57031l-6.99219-.70703m6.99219.70703l.92969 2.26953m-1.94922-2.375l.46484 1.13672m13.82031-2.0664l-6.89453 1.35937m6.89453-1.35938l1.55078 1.90235m-2.55468-1.70313l1.55078 1.90235m12.83203-1.26954l-7.01953-.30468m7.01953.30468l1.05469 2.21485m-2.07813-2.25781l.53125 1.10546m13.8086-1.15234l-7.02344-.1211m7.02344.1211l1.11718 2.1836m12.1836-2.57813l-6.9961.66797m6.9961-.66797L282 402.15234m11.75-2.95703l-6.57031 2.48828m6.57031-2.48828l1.84766 1.61719m-2.80078-1.25781l.92187.8125m13.53516-.46485l-6.94532 1.07422m6.94532-1.07422l1.46875 1.96485m-2.48047-1.8086l.73437.98047m13.63282-.50781l-7.02735-.1875m7.02735.1875l1.09375 2.19531m12.16015-1.64453l-6.90625-1.28906m6.90625 1.28906l.73828 2.33985m-1.74218-2.52735l.36718 1.17188m13.46875.25l-5.9375-3.75782m5.9375 3.75782l-.1836 2.4453m-.67968-2.99218l-.09375 1.22266m14.27735-.6836l-5.94922-3.73828m5.94922 3.73828l-.17579 2.44532m-.6875-2.9922l-.08984 1.22657m14.75781-1.96484l-6.92968-1.17188m6.92968 1.17188l.77344 2.32812m-1.78125-2.4961l.38672 1.16407m13.89453-2.3711l-6.84766 1.57813m6.84766-1.57812l1.60938 1.85547m-2.60547-1.625l1.60937 1.85546m12.75781-1.79687l-6.95703 1.0039m6.95703-1.0039l1.44922 1.97656m-2.46093-1.83203l1.44921 1.98047m12.78516-2.5664l-6.76953 1.88671m6.76953-1.88672l1.6914 1.77735m-2.67968-1.5039l1.69531 1.77733m12.16797-3.02343l-5.89062 3.82812m5.89062-3.82812l2.14844 1.1914m-3.0039-.6328l2.14452 1.1875m-3.0039-.63282l1.07422.59765m14.26171-1.1289l-6.5039 2.66797m6.5039-2.66797l1.88672 1.5664m-2.83593-1.17968l1.89062 1.5664m12.57031-1.30078l-6.89453 1.36328m6.89453-1.36328l1.54688 1.90235m-2.55078-1.70313l1.55078 1.90235m12.78515-2l-6.92968 1.16015"/><g clip-path="url(#ap)"><path fill="none" stroke="#000" stroke-linecap="round" stroke-linejoin="round" stroke-miterlimit="10" stroke-width=".5" d="M467.02734 399.85938l1.4922 1.9453"/></g><path fill="none" stroke="#000" stroke-linecap="round" stroke-linejoin="round" stroke-miterlimit="10" stroke-width=".5" d="M466.01953 400.02734l1.49219 1.94532"/><g clip-path="url(#aq)"><path fill="none" stroke="#000" stroke-linecap="round" stroke-linejoin="round" stroke-miterlimit="10" stroke-width=".5" d="M146.85547 385.07422l-5.71094 4.09765"/></g><path fill="none" stroke="#000" stroke-linecap="round" stroke-linejoin="round" stroke-miterlimit="10" stroke-width=".5" d="M146.85547 385.07422l2.19922 1.08594m10.76172-1.50391l-5.00391 4.9336m5.0039-4.9336l2.34376.73438m-3.07032-.01563l1.17188.36719m13.39844-.39844l-6.0586 3.5586m6.0586-3.5586l2.08984 1.28516m-2.97266-.76563l1.04688.64063m13.4414-.53516l-6.64062 2.3086m6.64063-2.3086l1.79687 1.66797m-2.76563-1.33203l.90235.83594m13.55078.3789l-6.98047-.79297m6.98047.79297l.89844 2.28516m12.11328-1.20313l-6.375-2.95312m6.375 2.95312l.13672 2.44922m13.34765-2.8789l-6.71093-2.09375m6.71093 2.09375l.45313 2.41015m-1.42969-2.71484l.22656 1.20312m14.08203-.95703l-6.74218-1.98047m6.74219 1.98047l.49218 2.40235m12.91406-2.8047l-6.92968-1.17577m6.92969 1.17578l.77343 2.32812m12.4961-2.10547l-6.83594-1.62109m6.83594 1.6211l.62109 2.37109m-1.61719-2.60938l.3125 1.1875m13.9375-.72265l-6.71484-2.07422m6.71484 2.07422l.46094 2.41015m13.00781-3.55469l-7.02344.21485m7.02344-.21485l1.21875 2.13282m-2.23828-2.10156l1.21484 2.1328m13.1211-2.1953l-7.02344.27734m7.02344-.27735l1.23437 2.1211m-2.2578-2.07813l1.23437 2.1172m13.10546-1.96876l-7.02734-.10547m7.02734.10547l1.1172 2.1836m-2.14063-2.19922l1.1211 2.18359m13.11718-1.38281L327 386.28516m6.82422 1.67578l.60156 2.3789m-1.59375-2.625l.30078 1.19141m13.55078.11328l-5.91406-3.79297m5.91406 3.79297l-.20312 2.44531m-.65625-2.99609l-.10156 1.22266m14.41796-.91797l-6.19921-3.30078m6.19921 3.30078v2.45312m-.90234-2.9336v1.22657m14.61719-2.69922l-7 .60547m7-.60547l1.33594 2.0586m-2.35157-1.96875l1.33203 2.05859m12.94141-2.54297l-6.88672 1.39453m6.88672-1.39453l1.5586 1.89453m-2.5586-1.6914l1.5586 1.89453m12.76562-2.0625l-6.90234 1.32422m6.90234-1.32422l1.53906 1.91015m-2.54297-1.71875l.76953.95704m13.26563-2.00391l-6.33594 3.03515m6.33594-3.03515l1.97656 1.45312m-2.89844-1.01171l.98829.72656m13.09765-1.45313l-6.03125 3.60938m6.03125-3.60938l2.09766 1.26563m-2.97656-.74219l2.10156 1.26563m12.38672-1.16797l-6.6211 2.36328m6.6211-2.36328l1.8125 1.65625m-2.77735-1.3125l1.8125 1.65625m12.66797-.97657l-7.01953.31641m7.01953-.3164l1.2461 2.11327m-2.26954-2.0664l1.25 2.11328m13.08985-2.0625l-7.02735.125"/><g clip-path="url(#ar)"><path fill="none" stroke="#000" stroke-linecap="round" stroke-linejoin="round" stroke-miterlimit="10" stroke-width=".5" d="M467.07422 387.0625l1.1914 2.14453"/></g><path fill="none" stroke="#000" stroke-linecap="round" stroke-linejoin="round" stroke-miterlimit="10" stroke-width=".5" d="M466.05078 387.07813l1.1914 2.14453"/><g clip-path="url(#as)"><path fill="none" stroke="#000" stroke-linecap="round" stroke-linejoin="round" stroke-miterlimit="10" stroke-width=".5" d="M145.3789 370.57422l-2.7578 6.46484"/></g><path fill="none" stroke="#000" stroke-linecap="round" stroke-linejoin="round" stroke-miterlimit="10" stroke-width=".5" d="M156.96875 370.3125l.6914 6.99219m-.58984-5.97656l1.02344-.6797m15.14453.8086l-5.21875 4.70313m4.46094-4.01954l1.15234.41797m13.65625.17188l-6.6875 2.15625m6.6875-2.15625l1.76172 1.70703m11.67969-1.17969l-6.9414 1.10156m6.9414-1.10156l1.47656 1.96094m11.75781-.48828l-6.78125-1.84375m6.78125 1.84375l.54297 2.39453m12.41406-1.53906l-6.0625-3.55469m6.0625 3.55469l-.10546 2.45312m13.3789-2.38672l-5.98047-3.6875m5.11328 3.14844l-.07812 1.22656m14.6875-1.71093l-6.83203-1.64454m5.83594 1.40625l.30859 1.1875m13.8711-.52734l-6.57032-2.48437m5.61328 2.12109l.15625 1.21875m14.1914-1.07031l-6.72265-2.05469m6.72266 2.05469l.46875 2.40625m12.77734-2.20313l-6.58203-2.46094m6.58203 2.46094l.3164 2.4336m13.07032-2.64844l-6.72656-2.03125m6.72656 2.03125l.47656 2.40625m12.63282-1.8789l-6.31641-3.08594m6.3164 3.08593l.08204 2.45313m13.45703-3.04688l-6.76563-1.89844m5.78125 1.6211l.26172 1.19922m13.96485-.69531l-6.6211-2.35157m6.6211 2.35156l.36328 2.42579m12.96484-2.45704l-6.64453-2.28906m6.64453 2.28906l.38281 2.42579m-1.35156-2.75782l.1914 1.21094m14.2461-1.51562l-6.95312-1.01563m6.95312 1.01563l.82813 2.3125m-1.83985-2.46094l.41406 1.15625m13.9297-1.91016l-6.98438.78906m6.98437-.78906l1.38672 2.02344m-2.40234-1.91016l.6914 1.01172m13.62891-1.19922l-6.96484.9375m6.96484-.9375l1.42969 1.9922m-2.4414-1.85548l.71483.9961m13.51172-1.6211l-6.76172 1.91016m6.76172-1.91016l1.69532 1.77344m-2.6797-1.49219l.84766.88281m12.96875-2.1953l-5.79687 3.97265m5.79687-3.97266l2.17579 1.13672m-3.01954-.5586l1.08594.57032m12.9961-1.25l-5.64454 4.17969m5.64454-4.17969l2.21484 1.05469m-3.03516-.44531l1.10938.52734m13.6211.13281l-6.83204 1.64063m6.83203-1.64063l1.625 1.83594m-2.6211-1.59766l.8125.91797m13.52735-1.02344l-6.89062 1.3711"/><g clip-path="url(#at)"><path fill="none" stroke="#000" stroke-linecap="round" stroke-linejoin="round" stroke-miterlimit="10" stroke-width=".5" d="M467.00781 373.1211l1.55078 1.90234"/></g><path fill="none" stroke="#000" stroke-linecap="round" stroke-linejoin="round" stroke-miterlimit="10" stroke-width=".5" d="M466.0039 373.32031l.77735.95313"/><g clip-path="url(#au)"><path fill="none" stroke="#000" stroke-linecap="round" stroke-linejoin="round" stroke-miterlimit="10" stroke-width=".5" d="M146.51172 358.03516l-5.02344 4.91406"/></g><path fill="none" stroke="#000" stroke-linecap="round" stroke-linejoin="round" stroke-miterlimit="10" stroke-width=".5" d="M145.78125 358.75l1.16797.3711m11.38672 1.37109l-.01953-.19922-.0586-.1914-.09375-.17579-.45703-.3789-.1914-.0547-.19922-.01952-.19922.01953-.19531.05469-.45704.3789-.09375.17578-.05859.1914-.01953.19923.01953.19922.0586.1914.09374.17969.45703.375.19532.0586.19922.01952.19922-.01953.1914-.05859.45703-.375.09375-.17969.0586-.1914.01953-.19922m8.97265 1.14844l6.64453-2.29297m-5.67968 1.95703l-.89453-.83594m13.05859.21094l7.01563-.3711m12.29687 2.66407l-4.97656-4.96094m18.95703 4.03125l-6.3086-3.09766m18.79297 4.1836l-4.64843-5.26954m16.66015 2.63282l-.01953-.19922-.0586-.1914-.09374-.17579-.45703-.3789-.19141-.0547-.19922-.01952-.19922.01953-.19531.05469-.45703.3789-.09375.17578-.0586.1914-.01953.19923.01953.19922.0586.1914.09375.17969.45703.375.19531.0586.19922.01952.19922-.01953.1914-.05859.45704-.375.09375-.17969.0586-.1914.01952-.19922m12.41016 3.51172l-.23438-7.02344m13.69532 7.01562l-.52344-7.0078m14.90625 6.7578l-2.66016-6.5039m2.27344 5.5586l-.78516.9414m15.60547-.72656l-4.89453-5.04297m4.17969 4.30859l-.375 1.16797m14.79297-.8789l-5.67188-4.15235m5.67188 4.15234l-.35156 2.42578m13.23828-1.9453l-4.81641-5.1172m4.8164 5.1172l-.78515 2.32421m13.97266-2.20703l-4.5586-5.34766m3.89453 4.57031l-.45312 1.14063m14.8711-.8125l-5.4375-4.44922m4.64452 3.80078l-.23828 1.20313m14.72657-1.125l-6.19922-3.3086m6.19922 3.3086l-.00391 2.45312m13.48437-2.8125l-6.53125-2.59375m6.53125 2.59375l.26954 2.4414m13.28515-3.51171l-7.01172-.45313m7.01172.45313l1.01172 2.23828m12.28125-2.9336l-6.96484.94141m6.96484-.9414l1.42969 1.99219m11.80078-2.42188l-6.79297 1.79688m6.79297-1.79688l1.66797 1.80078m11.48437-2.27344l-6.46875 2.7422m6.46875-2.7422l1.90625 1.54688m10.9961-2.26953l-5.64453 4.1875m5.64453-4.1875l2.21484 1.05469m11.1211-1.02735l-5.6836 4.13281m5.6836-4.1328l2.20312 1.07421m11.54297-.28125l-6.54688 2.55078"/><g clip-path="url(#av)"><path fill="none" stroke="#000" stroke-linecap="round" stroke-linejoin="round" stroke-miterlimit="10" stroke-width=".5" d="M466.83594 359.21875l1.85937 1.59766"/></g><g clip-path="url(#aw)"><path fill="none" stroke="#000" stroke-linecap="round" stroke-linejoin="round" stroke-miterlimit="10" stroke-width=".5" d="M143.55078 343.69531l.89844 6.96875"/></g><path fill="none" stroke="#000" stroke-linecap="round" stroke-linejoin="round" stroke-miterlimit="10" stroke-width=".5" d="M153.8789 347.90234l6.875-1.44921m-5.875 1.23828l-.78906-.94141m13.07422 1.01172l6.92969-1.16797m-5.92188.9961l-.74609-.97266m13.05469 1.13281l6.92969-1.14453m-5.92188.97656l-.7461-.97265m13.02345.92968l6.98828-.71875m-5.97266.61328l-.6836-1.01953m12.96485.67969l7.02344.17188m-6-.14844l-.55078-1.09766m12.85547 1.45703l7-.59765m-5.98438.51171l-.66406-1.03125m12.94922.89454l7.02734-.15235m-7.02734.15235l-1.19922-2.14063m14.52734 1.76953l7.0039.58985m-7.0039-.58985l-.96875-2.2539m14.30078 2.99609l6.96875-.89453m-6.96875.89453l-1.42187-2m15.4375 3.69922l5.5664-4.28906m-5.5664 4.28906l-2.23438-1.01563m17.91797 2.35938l.82813-6.98047m-.82813 6.98047l-2.28516.88672m16.78125-.94922l-1.53125-6.85547m1.53125 6.85547l-1.86328 1.59765m15.38672-1.64843l-1.94922-6.75m1.94922 6.75l-1.75781 1.70703m15.28516-1.77735l-2.375-6.61328m2.375 6.61329l-1.65235 1.8164m15.17969-1.90234l-2.80078-6.4414m2.39453 5.5039l-.76172.96094m15.15234-.40235l-4.13671-5.6836m4.13671 5.6836l-1.07421 2.20703m15.18359-3.01172l-5.72656-4.07421m5.72656 4.07421l-.3164 2.4336m14.14452-3.49219l-6.75-1.95703m6.75 1.95703l.5 2.40234M400.5 347.1797h-7.02734m6.0039 0l.57813 1.08203m13.48828-2.4414l-6.48047 2.71484m5.53516-2.32032l.94921.77735m13.35547-1.05469l-6.57422 2.48047m6.57422-2.48047l1.84375 1.61719m11.2422-2.10547l-6.11329 3.46094m6.11328-3.46094l2.07031 1.3164m11.05078-1.62109l-5.72656 4.07031m5.72656-4.0703l2.19532 1.09765m11.41797-.59766l-6.32422 3.0664"/><g clip-path="url(#ax)"><path fill="none" stroke="#000" stroke-linecap="round" stroke-linejoin="round" stroke-miterlimit="10" stroke-width=".5" d="M466.72266 345.64453l1.98046 1.44922"/></g><path fill="none" stroke="#000" stroke-linecap="round" stroke-linejoin="round" stroke-miterlimit="10" stroke-width=".5" d="M465.80469 346.09375l.98828.72266"/><g clip-path="url(#ay)"><path fill="none" stroke="#000" stroke-linecap="round" stroke-linejoin="round" stroke-miterlimit="10" stroke-width=".5" d="M144.04688 330.35156l-.09375 7.02344"/></g><g clip-path="url(#az)"><path fill="none" stroke="#000" stroke-linecap="round" stroke-linejoin="round" stroke-miterlimit="10" stroke-width=".5" d="M144.03125 331.3711l1.09375-.5586"/></g><path fill="none" stroke="#000" stroke-linecap="round" stroke-linejoin="round" stroke-miterlimit="10" stroke-width=".5" d="M154.29297 332.07031l6.04297 3.58594m6.84375-1.13281l6.90234-1.32031m-5.89844 1.1289l-.76953-.95703m13.09375 1.20703l6.875-1.4375m-5.875 1.22656l-.78515-.9414m13.03125.67969l7.01172-.4922m-5.9922.42188L194.125 333m13.0039 1.53906l6.89454-1.35156m-5.89453 1.15625l-.77344-.95313m13.22656 1.65625l6.61719-2.36718m-5.65625 2.02344l-.90625-.82813m13.0625.1914l7.01562-.41015m-5.99609.35156l-.63672-1.04687m12.9414.55078l6.9922.69922m-5.97266-.59766l-.46484-1.13281m13.3828 3.39844l5.75-4.03516m-4.91406 3.44922l-1.09375-.55469m14.0625 1.70313l4.76954-5.15625m-4.76953 5.15625l-2.375-.625m16.6289 1.25l2.89453-6.40625m-2.89453 6.40625l-2.44922.15625m16.66797.11328l1.08594-6.94531m-1.08594 6.9453l-2.3164.80079m16.22265-.76172l-.09765-7.02344m.09765 7.02344l-2.15234 1.1836m15.57812-1.1875l-.32031-7.01954m.32031 7.01953l-2.10937 1.25m2.0625-2.26953l-1.05469.625m14.21094.39844l.09375-7.02344m-.09375 7.02344l-2.1836 1.125m17.38282-1.64063l-3.67578-5.99218m3.67578 5.99219l-1.2461 2.11328m15.3711-2.80079l-5.29297-4.61718m5.29297 4.61719l-.5586 2.39062m14.65625-3.9414l-6.85937-1.51563m6.85937 1.51562l.66016 2.36329m12.72656-3.38282l-7.0039.52344m5.98437-.44922l.65625 1.03906m13.41016-2.22265l-6.46875 2.74219m5.52734-2.34375l.95313.77343m13.52734-.41797l-6.91797 1.23438m6.91797-1.23438l1.51562 1.9297m11.61329-2.58985l-6.54297 2.55469m6.54297-2.5547l1.86328 1.59766m11.5078-1.4453l-6.65624 2.25m6.65625-2.25l1.78516 1.68358m11.45312-1.89453l-6.5 2.67188"/><g clip-path="url(#aA)"><path fill="none" stroke="#000" stroke-linecap="round" stroke-linejoin="round" stroke-miterlimit="10" stroke-width=".5" d="M466.8125 332.52734l1.88672 1.56641"/></g><path fill="none" stroke="#000" stroke-linecap="round" stroke-linejoin="round" stroke-miterlimit="10" stroke-width=".5" d="M465.86719 332.91406l.9414.78516"/><g clip-path="url(#aB)"><path fill="none" stroke="#000" stroke-linecap="round" stroke-linejoin="round" stroke-miterlimit="10" stroke-width=".5" d="M145.67969 317.46094l-3.35938 6.17187"/></g><path fill="none" stroke="#000" stroke-linecap="round" stroke-linejoin="round" stroke-miterlimit="10" stroke-width=".5" d="M145.1914 318.35938l1.22657.01171m10.51172-1.3164l.76953 6.98437m-.65625-5.96875l1.01172-.6914m9.4336 1.59765l6.28515 3.14453m7.02734-.0039l6.28906-3.13672m9.21485 4.94922l1.91015-6.76172m10.29688 6.22265l4.125-5.6875m12.27734 2.84375l-.01953-.19921-.0586-.19141-.09374-.17578-.46094-.3789-.1914-.0547-.19923-.01953-.19921.01954-.19141.05468-.46094.3789-.09375.17579-.0586.1914-.01952.19923.01953.19921.0586.19141.09374.17969.46094.375.1914.0586.19923.01952.19921-.01953.19141-.0586.46094-.375.09375-.17968.0586-.1914.01952-.19923m11.6836-3.46093l1.21484 6.92187m10.0625-5.77344l5.28906 4.62891m11.69531-2.3164l-.01953-.19922-.05859-.19141-.09375-.17578-.46094-.3789-.1914-.0547-.19922-.01953-.19922.01954-.1914.05468-.46094.3789-.09375.17579-.0586.1914-.01953.19923.01953.19921.0586.19141.09375.17969.46093.375.1914.0586.19923.01952.19922-.01953.1914-.0586.46094-.375.09375-.17968.0586-.1914.01952-.19923m10.05079 2.70704l4.48047-5.41407m-3.82813 4.625l-1.20313-.24609m14.45313 1.42969l3.3086-6.19922m-3.3086 6.19922l-2.45313-.0039m16.13282.17187l2.57812-6.53907m-2.57812 6.53907l-2.4375.27734m16.07812-.16797l1.92578-6.75781m-1.92578 6.75781l-2.39844.51563m16.78907-.38282l-.22266-7.02343m.22266 7.02343l-2.13281 1.22266m2.09765-2.24219l-1.0625.60938m14.23828.41406l.125-7.02734m-.125 7.02734l-2.1875 1.11328m2.20313-2.13672l-1.08985.55469m13.73829.39453l1.42968-6.8789m-1.42969 6.8789l-2.35937.6875m16.49219-.61719l-.21094-7.02343m.17969 6.0039l-1.0664.60547m17.05468-.90625l-5.49219-4.38281m4.6914 3.7461l-.22656 1.20702m14.37891-.61718l-5.5664-4.28516m4.7578 3.66016l-.20312 1.21093m13.11328.41407l-3.14062-6.28516m15.6211 6.57813l-1.47266-6.8711m1.2578 5.8711l-.9375.78906m17.07423-4.3164l-6.6836 2.17968m5.71094-1.86328l.88281.85156m13.46094-.97266l-6.79687 1.79297m6.79687-1.79297l1.66406 1.80079m11.21875-2.78907l-5.92968 3.76953"/><g clip-path="url(#aC)"><path fill="none" stroke="#000" stroke-linecap="round" stroke-linejoin="round" stroke-miterlimit="10" stroke-width=".5" d="M466.52734 318.66406l2.13282 1.21094"/></g><g clip-path="url(#aD)"><path fill="none" stroke="#000" stroke-linecap="round" stroke-linejoin="round" stroke-miterlimit="10" stroke-width=".5" d="M465.66406 319.21094l2.13281 1.21094"/></g><path fill="#ff3030" fill-rule="evenodd" d="M344.55078 463.21094h7.6914V453.0625h-7.6914v10.14844"/><path fill="azure" fill-rule="evenodd" d="M346.38281 454.89844h.83203v5.73828h3.19532v.74219h-4.02735v-6.48047"/><path fill="#00f" fill-rule="evenodd" d="M383.80078 432.14063h8.61719v-10.14454h-8.61719v10.14454"/><path fill="azure" fill-rule="evenodd" d="M385.63281 423.82813h.83203v2.82421h3.28907v-2.82421h.83203v6.48046h-.83203v-2.91796h-3.28907v2.91796h-.83203v-6.48046"/><path fill="#00f" fill-rule="evenodd" d="M224.01953 414.38672h8.61719v-10.14453h-8.61719v10.14453"/><path fill="azure" fill-rule="evenodd" d="M225.85156 406.07422h.83594v2.82422h3.28516v-2.82422h.83203v6.48047h-.83203v-2.91406h-3.28516v2.91406h-.83594v-6.48047"/><path fill="#ff3030" fill-rule="evenodd" d="M295.72656 405.51172h7.69531v-10.14453h-7.6953v10.14453"/><path fill="azure" fill-rule="evenodd" d="M297.5586 397.19922h.83593v5.73828h3.1914v.74219h-4.02734v-6.48047"/><path fill="#ff3030" fill-rule="evenodd" d="M180.33203 396.63281h7.6914v-10.14453h-7.6914v10.14453"/><path fill="azure" fill-rule="evenodd" d="M182.16406 388.32031h.83203v5.74219h3.19532v.73828h-4.02735v-6.48047"/><path fill="#ffffe0" fill-rule="evenodd" d="M404.45703 459.0039h22.17969v-10.1914h-22.17969v10.1914"/><path fill-rule="evenodd" d="M407.95703 450.64453h.50781v6.29297h-.78515v-4.48828h-1.39063v-.55469l.5625-.0664.25-.0547.23047-.08984.20313-.14062.17578-.21094.14062-.29297.10547-.39453m4.8125 0l.23047.01953.21875.05469.20703.08984.19922.1211.1836.14844.17187.17578.30078.41796.24219.4961.17969.54687.11328.57813.03906.58984-.03906.59375-.11329.58594-.17968.55078-.24219.5039-.30078.4297-.17188.17968-.18359.15235-.19922.12109-.20703.09375-.21875.0586-.23047.01952-.22656-.01953-.21875-.05859-.21094-.09375-.19531-.1211-.1836-.15234-.17187-.17969-.30078-.42968-.2461-.5039-.17968-.55079-.10938-.58594-.03906-.59375h.83203l.03125.5625.08203.50781.125.44141.16406.375.1875.30078.21094.22266.22266.13672.22656.04687.22656-.04687.22266-.13672.21094-.22266.1914-.30078.16407-.375.125-.4414.08203-.50782.02734-.5625-.02734-.5586-.08203-.5039-.125-.4336-.16407-.36718-.1914-.28906-.21094-.21485-.22266-.1328-.22656-.04298-.22656.04297-.22266.13281-.21094.21485-.1875.28906-.16406.36719-.125.4336-.08203.5039-.03125.5586h-.83203l.03906-.58985.10938-.57813.17969-.54687.24609-.4961.30078-.41796.17188-.17579.18359-.14843.19531-.1211.21094-.08984.21875-.05469.22656-.01953m5.09375 0h.50781v6.29297h-.78515v-4.48828h-1.39063v-.55469l.5586-.0664.2539-.0547.23047-.08984.20313-.14062.17187-.21094.14453-.29297.10547-.39453m2.82422 2.17578h.78516l.01953-.3164.0586-.28907.10155-.25.13672-.21484.1836-.17578.22265-.1289.26563-.07813.3086-.02735.23827.01954.22266.0625.20312.10156.1797.13672.14843.17578.11328.20703.07031.23437.02735.26563-.02344.26562-.0664.22657-.10938.1914-.15625.17188-.19922.16015-.2461.16797-.63671.38672-.53516.3164-.4375.31641-.34766.32422-.26171.33594-.19141.35156-.125.36719-.07031.39453-.01954.41797h4.21094v-.73828h-3.33203l.08203-.28516.11328-.23828.14844-.19922.1875-.17969.23047-.17187.28125-.17578.71484-.41797.41797-.20313.34375-.23437.28125-.25.21875-.26563.16406-.27734.11329-.28515.0625-.28516.01953-.28125-.04297-.38281-.11719-.34766-.1914-.3086-.25-.26171-.30079-.21485-.34765-.15625-.3789-.10156-.40626-.03125-.4375.03125-.39844.10156-.35156.16407-.30469.23437-.25.30469-.18359.375-.11719.44531-.03906.51953"/><path fill="#ffffe0" fill-rule="evenodd" d="M310.00781 401.30469h22.17969v-10.1914h-22.17969v10.1914"/><path fill-rule="evenodd" d="M313.5039 392.94531h.51173v6.29297h-.78907V394.75h-1.38672v-.55469l.5586-.0664.2539-.0547.23047-.08593.20313-.14453.17187-.20703.14063-.29688.10547-.39453m4.8164 0l.23047.01953.21875.0547.20703.08983.19531.1211.1836.14844.17187.17578.30079.42187.24609.49219.17969.54688.10937.57812.03906.58984-.03906.59375-.10937.58594-.1797.55469-.24608.5-.30079.42969-.17187.17968-.1836.15235-.1953.125-.20704.08984-.21875.0586-.23047.01953-.23047-.01954-.21875-.05859-.20703-.08984-.19531-.125-.1875-.15235-.16797-.17968-.30469-.4297-.24218-.5-.1797-.55468-.11327-.58594-.03516-.59375h.83203l.02735.56641.08203.5039.125.44141.16406.375.1914.30078.21094.22266.22266.13672.22656.04687.22656-.04687.22266-.13672.21094-.22266.1914-.30078.16016-.375.125-.4414.08203-.50391.03125-.5664-.03125-.5586-.08203-.5-.125-.4375-.16015-.36719-.19141-.28906-.21094-.21484-.22265-.13282-.22657-.04296-.22656.04296-.22266.13282-.21093.21484-.19141.28906-.16406.36719-.125.4375-.08203.5-.02735.5586h-.83203l.03516-.58985.11328-.57813.17969-.54687.24218-.49219.3047-.42187.16796-.17578.1875-.14844.19531-.1211.20703-.08984.21875-.05469.23047-.01953m5.08985 0h.51171v6.29297h-.78906V394.75h-1.38672v-.55469l.5586-.0664.2539-.0547.22657-.08593.20312-.14453.17578-.20703.14063-.29688.10547-.39453m2.82421 2.17578h.78516l.01953-.3164.0625-.28516.09766-.2539.14062-.21485.1797-.17578.22265-.1289.26562-.07813.3086-.02735.23828.01954.22265.0625.20704.10156.17578.14062.15234.17188.10938.20703.07421.23438.02344.26562-.01953.26953-.0664.22266-.10938.1914-.15625.17188-.19922.16406-.25.16406-.63281.39063-.53906.3125-.4375.3164-.34375.32422-.26563.33594-.1914.35156-.125.3711-.06641.39062-.02344.41797h4.21484V398.5h-3.33203l.08203-.28516.11329-.23437.14843-.20313.1875-.17968.23047-.17188.27735-.17578.71875-.41797.41406-.20312.34765-.23047.27735-.2539.22265-.26563.16407-.27735.10937-.28515.0625-.28516.02344-.28125-.04297-.38281-.1211-.34766-.1875-.3086-.25-.26171-.30468-.21485-.34375-.15625-.38281-.09765-.40625-.03516-.4336.03125-.39844.10156-.35546.16407-.3047.23437-.24608.30469-.1875.375-.1172.44531-.03906.51953"/><path fill="#ffffe0" fill-rule="evenodd" d="M226.34766 386.125h22.17968v-10.1914h-22.17968v10.1914"/><path fill-rule="evenodd" d="M229.84766 377.76563h.5078v6.29296h-.78905v-4.48828h-1.38672v-.55469l.5586-.0664.2539-.05469.23047-.08594.20312-.14453.17188-.20703.14453-.29687.10547-.39454m4.8125 0l.23047.01954.21875.05468.20703.08985.1953.1211.1836.14843.17188.17578.30078.42188.2461.49218.17968.54688.10938.57812.03906.58985-.03906.59375-.10938.58593-.17969.5547-.2461.5-.30077.42968-.17188.17969-.1836.15234-.1953.125-.20703.08984-.21875.0586-.23047.01953-.23047-.01953-.21875-.0586-.20703-.08984-.19532-.125-.1875-.15234-.16797-.1797-.30468-.42968-.24219-.5-.17969-.55469-.11328-.58593-.03516-.59375h.83204l.02734.5664.08203.5039.1289.44142.16016.375.19141.30078.21094.22265.22265.13672.22657.04688.22656-.04688.22266-.13672.21093-.22265.1914-.30079.16017-.375.1289-.4414.07813-.5039.03125-.56641-.03125-.5586-.07813-.5-.1289-.4375-.16016-.36719-.1914-.28906-.21095-.21484-.22265-.13281-.22656-.04297-.22657.04297-.22265.1328-.21094.21485-.1914.28906-.16016.3672-.1289.4375-.08204.5-.02734.55859h-.83203l.03515-.58985.11328-.57812.17969-.54688.24219-.49219.30469-.42187.16796-.17578.1875-.14844.19532-.1211.20703-.08984.21875-.05468.23047-.01954m5.08984 0h.51172v6.29297h-.78906v-4.48828h-1.38672v-.55469l.5586-.0664.2539-.05469.22656-.08594.20313-.14453.17578-.20703.14062-.29687.10547-.39454m2.82422 2.17579h.78906l.01953-.31641.0586-.28516.09765-.2539.14063-.21485.17969-.17578.22265-.1289.26563-.07813.30859-.02734.23828.01953.22266.0625.20703.10156.17969.14063.14843.17187.11328.20703.07032.23438.02344.26562-.01954.26953-.0664.22266-.10938.1914-.15625.17188-.19922.16406-.25.16407-.6328.39062-.53517.3125-.4414.3164-.34375.32423-.26563.33593-.1875.35157-.125.36718-.0703.39454-.01954.41796h4.21094v-.73828h-3.33203l.08203-.28515.11328-.23829.14844-.19921.1875-.1797.23047-.17187.27734-.17578.71875-.41797.41406-.20312.34766-.23047.28125-.2539.21875-.26563.16406-.27735.10938-.28515.0625-.28516.02343-.28125-.04297-.38281-.12109-.34766-.1875-.30859-.25-.26172-.30469-.21484-.34375-.15625-.38281-.09766-.40625-.03515-.4336.03125-.39843.10156-.35547.16406-.30469.23438-.2461.30468-.1875.375-.11718.44531-.03906.51954"/><path fill="#ffffe0" fill-rule="evenodd" d="M221.91016 432.9414h22.17968V422.75h-22.17968v10.1914"/><path fill-rule="evenodd" d="M225.40625 424.58203h.51172v6.29688h-.78906v-4.4922h-1.38672v-.55468l.5586-.0625.2539-.05469.22656-.08984.20313-.14063.17578-.21093.14062-.29297.10547-.39844m4.8164 0l.22657.01953.21875.05469.21094.08984.1953.1211.1836.15234.17188.17578.30078.41797.2461.49219.17968.54687.10938.57813.03906.59375-.03906.59375-.10938.58203-.17969.55469-.2461.5-.30077.42969-.17188.17968-.1836.15235-.1953.125-.21094.08984-.21875.0586-.22656.01952-.23047-.01953-.21875-.05859-.20703-.08984-.19922-.125-.1836-.15235-.17187-.17969-.30078-.42968-.24219-.5-.17969-.55469-.11328-.58203-.03906-.59375h.83594l.02734.5625.08203.5039.125.44532.16406.375.19141.30078.21094.21875.22265.13672.22657.04687.22656-.04687.22266-.13672.21093-.21875.1875-.30078.16406-.375.125-.44531.08204-.50391.03125-.5625-.03125-.5625-.08203-.5-.125-.4375-.16407-.36328-.1875-.29297-.21094-.21485-.22265-.1289-.22656-.04688-.22657.04688-.22265.1289-.21094.21485-.1914.29297-.16407.36328-.125.4375-.08203.5-.02734.5625h-.83594l.03906-.59375.11328-.57813.17969-.54687.24219-.49219.30078-.41797.17187-.17578.1836-.15234.19922-.1211.20703-.08984.21875-.05469.23047-.01953m5.08984 0h.50781v6.29688h-.78515v-4.4922h-1.38672v-.55468l.5586-.0625.25-.05469.23046-.08984.20313-.14063.17578-.21093.14062-.29297.10547-.39844m2.82422 2.17578h.78516l.01953-.3164.0625-.28516.09765-.2539.14063-.21485.17969-.17188.22265-.1289.26563-.08203.30859-.02735.23828.01954.22266.0664.20312.10156.17969.13672.14844.17188.11328.20703.07422.23437.02344.26563-.01954.26953-.0664.22266-.10938.1914-.15625.17188-.20312.16406-.2461.16406-.6328.39063-.53907.3125-.4375.3164-.34375.32422-.26563.33594-.1914.35156-.125.3711-.0664.39062-.02345.42188h4.21485v-.7422H238.875l.08594-.28515.11328-.23437.14844-.20313.1875-.17969.23047-.17187.27734-.17578.71875-.41406.41406-.20704.34766-.23046.27734-.25.22266-.26954.16015-.27734.11328-.28515.0625-.28516.01954-.28125-.03907-.38281-.12109-.34766-.1914-.3086-.25-.26171-.30079-.21094-.34375-.16016-.38281-.09765-.40625-.03516-.4336.03516-.39843.09765-.35547.16797-.30469.23438-.25.30078-.1836.375-.11718.44531-.03906.51953"/><path fill="#ffffe0" fill-rule="evenodd" d="M155.53516 414.6211h22.17968v-10.19532h-22.17968v10.19531"/><path fill-rule="evenodd" d="M159.03125 406.26172h.51172v6.29297h-.78906v-4.48828h-1.38672v-.5547l.5586-.0664.2539-.05469.23047-.08984.20312-.14062.17188-.21094.14062-.29297.10547-.39453m4.8164 0l.23048.01953.21875.05469.20703.08984.1953.1211.1836.14843.17188.17578.30078.41797.2461.4961.17968.54296.10938.58204.03906.58984-.03906.59375-.10938.58203-.17969.55469-.2461.5039-.30077.42579-.17188.17968-.1836.15625-.1953.1211-.20703.09375-.21875.05469-.23047.01953-.23047-.01954-.21875-.05468-.20703-.09375-.19532-.1211-.1875-.15625-.16797-.17968-.30468-.42579-.24219-.5039-.17969-.55469-.11328-.58203-.03516-.59375h.83204l.02734.5625.08203.50781.125.4414.16406.375.19141.30079.21094.22266.22265.13671.22657.04688.22656-.04688.22266-.13671.21093-.22266.1914-.30078.16017-.375.125-.4414.08203-.50782.03125-.5625-.03125-.5625-.08203-.5-.125-.4336-.16016-.36718-.1914-.29297-.21095-.21094-.22265-.13281-.22656-.04688-.22657.04688-.22265.13281-.21094.21094-.1914.29297-.16407.36719-.125.43359-.08203.5-.02734.5625h-.83203l.03515-.58984.11328-.58204.17969-.54296.24219-.4961.30469-.41797.16796-.17578.1875-.14844.19532-.12109.20703-.08984.21875-.05469.23047-.01953m5.08984 0h.51172v6.29297h-.78906v-4.48828h-1.38672v-.5547l.5586-.0664.2539-.05469.22656-.08984.20313-.14062.17578-.21094.14062-.29297.10547-.39453m2.82422 2.17578h.78516l.01953-.3164.0625-.28907.09765-.25.14063-.21484.17969-.17578.22265-.12891.26563-.08203.30859-.02735.23828.02344.22266.0625.20703.10156.17578.13672.15234.17579.10938.20312.07422.23828.02344.26172-.01954.26953-.0664.22656-.10938.19141-.15625.17188-.19922.16015-.25.16797-.6328.38672-.53907.3125-.4375.32031-.34375.32422-.26563.33594-.1914.34765-.125.3711-.0664.39453-.02345.41797h4.21485v-.73828h-3.33203l.08203-.28516.11328-.23828.14844-.19922.1875-.1836.23047-.16796.27734-.17578.71875-.41797.41406-.20703.34766-.23047.27734-.25.22266-.26563.16406-.28125.10938-.28125.0625-.28515.02343-.28125-.04297-.38282-.12109-.34765-.1875-.3086-.25-.26562-.30469-.21094-.34375-.16015-.38281-.09766-.40625-.03125-.4336.03125-.39843.09765-.35547.16797-.30469.23438-.25.30469-.1836.375-.11718.4453-.03906.51954"/></g></defs><use xlink:href="#aE"/></svg>