<svg xmlns="http://www.w3.org/2000/svg" role="img" xmlns:xlink="http://www.w3.org/1999/xlink" viewBox="142.45 309.95 326.84 171.84"><defs><clipPath id="a"><path d="M144 311.67188h1v168.65625h-1zm0 0"/></clipPath><clipPath id="b"><path d="M144 311.67188h324v168.65625H144zm0 0"/></clipPath><clipPath id="c"><path d="M467 311.67188h1v168.65625h-1zm0 0"/></clipPath><clipPath id="d"><path d="M144 479h4v1.32813h-4zm0 0"/></clipPath><clipPath id="e"><path d="M147 480h2v.32813h-2zm0 0"/></clipPath><clipPath id="f"><path d="M146 480h2v.32813h-2zm0 0"/></clipPath><clipPath id="g"><path d="M153 479h9v1.32813h-9zm0 0"/></clipPath><clipPath id="h"><path d="M160 480h3v.32813h-3zm0 0"/></clipPath><clipPath id="i"><path d="M159 480h2v.32813h-2zm0 0"/></clipPath><clipPath id="j"><path d="M166 480h9v.32813h-9zm0 0"/></clipPath><clipPath id="k"><path d="M173 480h3v.32813h-3zm0 0"/></clipPath><clipPath id="l"><path d="M172 480h2v.32813h-2zm0 0"/></clipPath><clipPath id="m"><path d="M180 480h8v.32813h-8zm0 0"/></clipPath><clipPath id="n"><path d="M187 480h2v.32813h-2zm0 0"/></clipPath><clipPath id="o"><path d="M186 480h2v.32813h-2zm0 0"/></clipPath><clipPath id="p"><path d="M193 480h9v.32813h-9zm0 0"/></clipPath><clipPath id="q"><path d="M200 480h3v.32813h-3zm0 0"/></clipPath><clipPath id="r"><path d="M199 480h2v.32813h-2zm0 0"/></clipPath><clipPath id="s"><path d="M206 479h9v1.32813h-9zm0 0"/></clipPath><clipPath id="t"><path d="M213 480h3v.32813h-3zm0 0"/></clipPath><clipPath id="u"><path d="M212 480h2v.32813h-2zm0 0"/></clipPath><clipPath id="v"><path d="M220 479h8v1.32813h-8zm0 0"/></clipPath><clipPath id="w"><path d="M227 480h2v.32813h-2zm0 0"/></clipPath><clipPath id="x"><path d="M226 480h2v.32813h-2zm0 0"/></clipPath><clipPath id="y"><path d="M233 479h8v1.32813h-8zm0 0"/></clipPath><clipPath id="z"><path d="M240 480h2v.32813h-2zm0 0"/></clipPath><clipPath id="A"><path d="M239 480h2v.32813h-2zm0 0"/></clipPath><clipPath id="B"><path d="M246 479h9v1.32813h-9zm0 0"/></clipPath><clipPath id="C"><path d="M253 480h3v.32813h-3zm0 0"/></clipPath><clipPath id="D"><path d="M252 480h2v.32813h-2zm0 0"/></clipPath><clipPath id="E"><path d="M260 479h8v1.32813h-8zm0 0"/></clipPath><clipPath id="F"><path d="M267 479h2v1.32813h-2zm0 0"/></clipPath><clipPath id="G"><path d="M266 479h2v1.32813h-2zm0 0"/></clipPath><clipPath id="H"><path d="M273 479h8v1.32813h-8zm0 0"/></clipPath><clipPath id="I"><path d="M280 479h3v1.32813h-3zm0 0"/></clipPath><clipPath id="J"><path d="M279 479h2v1.32813h-2zm0 0"/></clipPath><clipPath id="K"><path d="M286 479h9v1.32813h-9zm0 0"/></clipPath><clipPath id="L"><path d="M293 479h3v1.32813h-3zm0 0"/></clipPath><clipPath id="M"><path d="M292 479h2v1.32813h-2zm0 0"/></clipPath><clipPath id="N"><path d="M300 479h8v1.32813h-8zm0 0"/></clipPath><clipPath id="O"><path d="M307 479h2v1.32813h-2zm0 0"/></clipPath><clipPath id="P"><path d="M306 479h2v1.32813h-2zm0 0"/></clipPath><clipPath id="Q"><path d="M313 479h8v1.32813h-8zm0 0"/></clipPath><clipPath id="R"><path d="M320 479h3v1.32813h-3zm0 0"/></clipPath><clipPath id="S"><path d="M319 479h2v1.32813h-2zm0 0"/></clipPath><clipPath id="T"><path d="M326 479h9v1.32813h-9zm0 0"/></clipPath><clipPath id="U"><path d="M333 480h3v.32813h-3zm0 0"/></clipPath><clipPath id="V"><path d="M340 479h8v1.32813h-8zm0 0"/></clipPath><clipPath id="W"><path d="M346 480h3v.32813h-3zm0 0"/></clipPath><clipPath id="X"><path d="M353 478h8v2.32813h-8zm0 0"/></clipPath><clipPath id="Y"><path d="M366 478h8v2.32813h-8zm0 0"/></clipPath><clipPath id="Z"><path d="M380 478h8v2.32813h-8zm0 0"/></clipPath><clipPath id="aa"><path d="M385 480h2v.32813h-2zm0 0"/></clipPath><clipPath id="ab"><path d="M393 479h8v1.32813h-8zm0 0"/></clipPath><clipPath id="ac"><path d="M399 480h1v.32813h-1zm0 0"/></clipPath><clipPath id="ad"><path d="M406 479h9v1.32813h-9zm0 0"/></clipPath><clipPath id="ae"><path d="M412 480h2v.32813h-2zm0 0"/></clipPath><clipPath id="af"><path d="M419 479h9v1.32813h-9zm0 0"/></clipPath><clipPath id="ag"><path d="M433 477h8v3.32813h-8zm0 0"/></clipPath><clipPath id="ah"><path d="M448 476h4v4.32813h-4zm0 0"/></clipPath><clipPath id="ai"><path d="M462 476h3v4.32813h-3zm0 0"/></clipPath><clipPath id="aj"><path d="M144 466h4v2h-4zm0 0"/></clipPath><clipPath id="ak"><path d="M144 453h4v2h-4zm0 0"/></clipPath><clipPath id="al"><path d="M144 439h4v2h-4zm0 0"/></clipPath><clipPath id="am"><path d="M144 426h4v2h-4zm0 0"/></clipPath><clipPath id="an"><path d="M144 412h4v3h-4zm0 0"/></clipPath><clipPath id="ao"><path d="M465 410h3v3h-3zm0 0"/></clipPath><clipPath id="ap"><path d="M144 399h4v3h-4zm0 0"/></clipPath><clipPath id="aq"><path d="M466 398h2v2h-2zm0 0"/></clipPath><clipPath id="ar"><path d="M144 385h4v4h-4zm0 0"/></clipPath><clipPath id="as"><path d="M466 384h2v3h-2zm0 0"/></clipPath><clipPath id="at"><path d="M465 385h3v3h-3zm0 0"/></clipPath><clipPath id="au"><path d="M144 370h3v7h-3zm0 0"/></clipPath><clipPath id="av"><path d="M466 371h2v3h-2zm0 0"/></clipPath><clipPath id="aw"><path d="M465 372h3v3h-3zm0 0"/></clipPath><clipPath id="ax"><path d="M144 357h3v7h-3zm0 0"/></clipPath><clipPath id="ay"><path d="M465 357h3v2h-3zm0 0"/></clipPath><clipPath id="az"><path d="M144 343h1v8h-1zm0 0"/></clipPath><clipPath id="aA"><path d="M144 343h2v2h-2zm0 0"/></clipPath><clipPath id="aB"><path d="M466 345h2v3h-2zm0 0"/></clipPath><clipPath id="aC"><path d="M144 330h1v8h-1zm0 0"/></clipPath><clipPath id="aD"><path d="M144 330h2v2h-2zm0 0"/></clipPath><clipPath id="aE"><path d="M466 332h2v3h-2zm0 0"/></clipPath><clipPath id="aF"><path d="M144 316h2v9h-2zm0 0"/></clipPath><clipPath id="aG"><path d="M466 318h2v2h-2zm0 0"/></clipPath><g id="aH" clip-path="url(#clip1)"><path fill="#fff" fill-opacity="0" fill-rule="evenodd" d="M0 0h1000v1000H0zm0 0"/><path fill="#d3d3d3" fill-opacity="0" fill-rule="evenodd" d="M162.15234 355.86719l-.23437.29297.0586.23437.11718.17188.17578.23437.29297.34766.11328.0586.11719-.17188.0586-.23438.17577-.17578.46485-.17578h.69922l.23437.29297.28906.8164.0586.17579.17578.23046.35156.23438.69922.69922.17188.17578.23437.34765.23438.41016.28906.58203.41015.46485.23047.23437.23438.17578.11719.23047.17578.29297.17187 1.16406v.23438l.0586.28906.05859.11719.11719.11719.34765.41015.11719.17188.17578.17578.17578.23437.11719.17188.17188.35156.05859.23438.23437.40625.23438-.0586-.17578.17578-.0586.92969h-.58203l-.23437-.11328-.34766.11328-.11719.11719-.05859.29297-.0586.17578-.11718.17187-.46484.29297-.0586.23438-.0586.11328v.64453l.0586.17187v.41016l.0586.0586v.40624l.05859.40625.11719.17579.05859.05859.23047.64062-.0586.29297v.69922l-.05859.58203v.23438l-.0586.23047-.05468.35156v1.92187l.05469.1172h.42578l-.36719.11718-.02344.35156.89063 1.16797 1.74219.53906 1.33984.35938v.53906l.08984.8086.53516.71484 1.51953.26953.89063-.08594.08984 1.16406.53516.1797 1.16015-.1797 2.05469-.98437 1.16016-.36328 1.8789-.17578 1.69531-.1797-.17968.71876-1.51563.08594-1.25.08984-.80469.26953-1.07421.8086.26953.71875.53515.89843-.17968.625-.26563.8086.26563 1.07812.625.89844.80468.17969 1.25-.1797-.26562.72267.09766.5039.05468.29297v.17188l.0586.29296v.40625l.17578.1172.35156.11718h.40625l.29297-.17578.11328-.11719.0586-.11719.11718-.23047.0586-.17578.35156-.46484.23047-.17578.17578-.0586.17578.0586.0586.17578.11718.98828.05469.46875.0586.17188.11718.23437.17578.0586.8164.05859h.28907l.11719.23437.05859.40625.0586.35156v1.10547l.11718.29297.11719.34766.28906.69922.17578.35156.58203.7539.35157.17579.17187.0586.46875.23437.64063.46484.34765.23438.29297.17578.29297.05468.23047.0625.8164.34766.29297.17578.11328.17188.35157.35156.11719.17578.52343.64063v.28906l.0586.35156v.34766l.05859.35156.0586.28906.11718.0586.17188.05859h.17578l.58203.23437.17578.1172.17578.28905.17578.23438.11328.23437.29297.23047.11719.11719v.41016l.0586.05468.28906.23438.23437.11719.0586.11718.11718.17188.0586.11719.23047.23437.05859.17578.23437.0586.1172.05859-.1172.11328-.05859.11719v.11719l-.11719.29296-.11719.28907v.58203l.17579.11719.11718.05859.0586.11719.11719.11719.11328.05859.17578.34765.0586.35157.05858.40625v.17578l-.05859.17578-.11719.69922v.17187l.1172.17579.29296.29296h.40625l.17578.1172.11719.17187.11719.29296v.23438h-.52735l-.23047-.23438h-.23437l-.17578.0586-.0586.69922.0586.34765.11719.17579.17578.41015.11718.23047.28907.46875.17578.05469h.52344l.23437.0586.75781.64062.0586.29296v.23438l.05859.0586.23047.34765v.35156l-.11719.17188v.29297l.29297.28906.29297.17578.17187.0586.29297.17577.29297.1172.58203.40624.28906.23438.29297.17578.21875.16015.01563.01172.23047.17579.64062.52343.17578.23438.1172.17578.17577.17578.11328.17188v.64062l.1172.17578.46874.11719.58203.11719.23438.05859.23047.11328.29297.11719.11328.0586.58593.35156.28907.17187.17578.0625.17578.05469.17578.0586.69922.35155.28906.17579.23438.05468.28906.17578.23437.1172.64063.40624.29297.11719.17187.0586.23438.05859.41015.05859.23047.0586.23438.11718.0586.17188-.41017.17578.46875.0586.0586.29296.11328.23438.17578.05468.23438.0586.17578.05859.40625.11719.64062.23437.11719.17188.0586.23437v.17578l-.0586.1172-.0586.40624.23438.23438.11719.05859.34766.11719.64062.23047.17578.11718.28906.1172.17578.17577.23438.46485.58203 1.10546.17578.17579.34766.17578.17578.11719.35156.11718 1.04688.52344.23437.0586.46485.11327.29297.0586.46484.17578.75781.58203.23438.23438.34765.46484.17578.17578.28907.23438.8164.69921.29297.17579.28906.28906.29297.17578.29297.28906.69531.64063.17578.17578.29297.23437.28907.23438.46875.28906.64062.58203.34766.23438.23437.29297.34766.34765.35156.46485.9336.99218.34765.40625.11719.17579.23437.05859.11328.11719.64454.17578.23047.11328.23437.0586.29297.17577.23047.1172.9336.69921.40624.40625.23438.17578.40625.17578.23437.11719.8164.34766.34766.23437.23438.11719.29297.28906.23047.11719.7578.35156.35157.17188.23047.05859.29297.11719.23437.0586.8711.17577h.8164l.46875.23047.17188.0586.875.69921.46484.1172.29297.05858.17578.0586.23047.0586.46875.05859.34766.05859.35156.0586.40625.05859h.29297l.17187.0586v.23046l.17578.17578h.29297l.34766.0586.35156.05859.69922.11719h.64063l.46484-.23438.29297-.17578.17187-.11719.41016-.17187.28906-.17578.9336-.46485.46875-.29297.52343-.29296.46485-.17188.46484-.17578 1.05078-.46485.28906-.11718.41016-.11719.28906-.11719.52735-.17578 1.51562-.69922.58203-.34765.28907-.0586.29297-.0586.34765-.11718.875-.23047.35156-.11719h.11329l.23437-.05859.875-.23437.23438-.0586h.8125l.35156-.0586.8164-.11718.17188-.0586.35156-.05468.29297-.0586.23047-.05859.8164-.17578.17579-.0586h.34765l.23438-.05859.46484-.11718.75781-.17188.23438-.0586h.34765l.41016-.11718.28906-.0586 1.28516-.05859h.28906l.41016-.0586.23047-.05858h.17578l.875-.1172h.40625l.41015-.11718h.34766l.35156-.11328.8711-.0586h1.75l1.04687.28907.41016.11719.28906.11718.35156.11719.28907.11719 1.05078.17187.28906.0586h.29297l.29297.05859.17187.0586.41016.05859.17187.0586.1172.05858h.11718l.11719.0586.35156.0586h.11328l.41016.0664 1.92187.39453 1.92578.39453 1.51953.44922 1.69532.71875 2.14453.80469 1.60547-.71875 1.42968-.80469 1.16016-1.07813 1.25-.44921 3.03516-.71875 1.875-.35938 2.14453-1.34765 2.23437-1.25391 2.5-1.25781 1.69531-.44922 1.78516-.17969 1.16016-.26953.625.53906 1.33984-.26953.71485-.98828.98437-1.34375.44531-.17969.80469-.35937 1.875-.53907 1.78516-.44921 1.25-.26954 1.16015-.08984 1.69922-.08984 1.96094-.26954 1.25-.08984h.53906l.625-.08984h.89063l2.14453-.17969 2.41015-.17969 2.58985-.08984 1.69531.17969 1.60938.08984 1.42968.35938 1.16016.71875 1.875.98828 1.16015 1.52734.26563.71484.6289.08985.35548.89844.53515.53906.53516 1.52734 1.07422.35938h.53515l-.80469.53515.08985 1.70703.71484 2.69532.89063.80468.89453.98829.71484 1.2578 1.78516.53907 1.51953-.17969.35547 1.34375 1.60937-.80469.98047-.53906.26953.26953.31641-.21484.21875-.14453.80078.44922.44922-.35938h.35547l.53515-.26953.53907-.71875.53515-.26953.625-.98828 1.16016.44922.83984.3711 1.39454.61718 1.6953-.17969h1.60548l1.78515.08985.17969-1.70704.53516-1.34375.80468.26954.4922.84765.40233.40625-.08984.53906v.35938l.71485.44922.71093-.26953h1.42969l.35938.98828.4453 1.25781.71485 1.34375 1.25.6289 1.69531.62891.71485-.17969.17969-.53906.98046-.08984.44922.35937.08594 1.25782-.26563.6289-.53515.17969v.53906l.71484.98438.26563.53906.98437.98828.80078 1.07813-.26562.35937-.08985.89844-.625 2.33203-.35546 2.0664-.08985 1.79298-.17969.71875-.08984.53906v1.4375l-.98047 1.88281-.35937 1.70703-.53516.89844-.80469 1.16797-.26562.53906 2.05469 1.2539.08593.35938-.35546.53906-.08985-.17968v.80859l.08985 1.4375-.44532.71484-1.07422.09375-.26562.71485.53515.89844.8047.71875 1.16015.80859 1.33984.26953.44531.35938-.35546.44921-1.78907-.08984-1.25-.44922-.71484-.71875-.625-.08984-.17578 3.58984-.1875 1.3086h89.35937V311.70313h-55.26953v49.08203l.76172.125 3.28906.54296 2.02344 2.83594v2.7539l2.35156.33204 2.34766.33203h4.05078l-1.3789 4.16016-2.02344.70703-2.02344.70312-.54297.34375-2.59375 1.6172-.1875.11718-2.02344-2.07813-.73046-2.74218-2.67188-2.07813-1.375-3.5-.0664-.08203-1.95704-2.67188 2.75-1.41796v-49.08204H294.42187v91.41407l.1172.03125.1328.01172.07422.07421.10547.04688.08985.0586.08593.05859.08985.0586.29687.29687.0586.08984.03125.11719.02734.11719.01563.13671-.03125.1172-.0586.08983-.0586.08594-.04296.10547-.04688.10156-.02734.1211v.14453l.17578.26953.14844.14844.07422.08594.07422.07421.04296.10547.0625.08985.0586.08593.04297.10547.0586.08985.04687.10156.04296.10547.0586.08594.11719.17968.07421.07422.0625.08594.0586.08984.04297.10547.0586.08985.05858.08593.0625.08985.0586.08984.04297.10156.11719.17969.07421.07422.0586.08594.07422.07421.08984.0586.10547.04687h.14844l.1328-.01562.13282.01562.10156-.04687.07422-.07422.04688-.10156-.01563-.13281v-.14844l-.04687-.10547-.02735-.11719-.04687-.10156-.02735-.1211-.04296-.10156-.0625-.08984-.04297-.10156-.04297-.10547-.03125-.11719-.01563-.13281-.01171-.13672.08593-.0586.0586-.08593.12109-.03125.04297.10547.01562.1328v.1172l.0586.10156.0586.08984.08983.0586.14844.14843.0586.08985.04296.10547-.01171.10156.08593.0586.10547.04687.08594.0586.08984.05858.07422.07422-.11719.02735-.10546.04687-.08594.0586-.07422.07421-.0586.08985-.0625.08594-.02734.12109-.04687.10156-.04297.10547-.03125.11719-.01172.13281-.01563.13281v.14844l.02735.11719.04687.10547.04297.10156.0586.08984.07421.07422.08985.0586.07422.07421.08984.0586.0586.08984.04296.10547.04688.10156.11719.03125.1328.01563h.14845l.11718-.03125.10547.04297.04297.10547.04688.10156.02734.1211L299.5 410l.02734.11719.03125.1211.02735.11718.10547.04297.10156.04687.13281-.01562.14844.14844.0625.08593.07422.07422.07031.07422.08984.0625.10547.04297.10156.04297.1172.03125.13671.01562.11719-.03125.07422-.07422.02734-.11718-.01172-.13282-.03125-.12109-.02734-.11719.04297-.10547h.11719l.08984.0625.11719.02735h.14843l.13282.01562h.14843l.13282.01563.1328-.01563h.14845l.1328-.01562.13282-.01172.13672.01172.11719-.02735.13281-.01562.1914-.0586-.05859.17579-.01562.1328-.02735.1211-.01562.13281-.0586.08594-.1328.01563-.10548.04687-.10546.04297-.1172.03125-.11718.02735-.26563.03125h-.14843l-.13281.01562-.07422.07422.05859.08594.14844.14843.11719.1797.07421.0703.08985.0625.08984.0586.08594.0586.08984.05858.10156.04297.10547.0625.10547.04297.08594.0586.10547.04687.10156.04297.17969.11719.0586.08984-.04298.10156-.04687.10547.01562.13281.22266.22266.0586.08985.04296.10156.03125.1211.04297.10155.01563.13282.03125.11718.01171.13672.03125.11719.14844.14844.10156.04297.10547.04296.1172.03125.1328.01563.13672.01563h.11719l.11719-.03125.08984-.0586.04297-.10547.04688-.10156.04296-.10547.03125-.11719.01172-.1328v-.14845l-.01172-.1328-.01562-.13282-.03125-.11719-.04297-.10547-.04688-.10547-.04296-.10156-.04297-.10547-.01563-.13281.01563-.13281.02734-.11719.03125-.11719.02735-.1211.04687-.10155.08984-.0586.08594-.0625.07422-.07422.08984-.05859.22266-.22266.0586-.08593.07421-.07422.11719-.17969.0586-.08594v-.14844l-.07423-.07421-.10156-.04688-.10547-.04297-.10156-.04297-.0586-.08984-.04687-.10547-.02734-.11719.08984-.05859.11719-.03125.10156-.04297.17969-.11719.14844-.14843.01172-.13282-.01172-.10546-.08985-.0586-.1328.01563h-.14845l-.1328.01562-.13282-.01562-.1211-.03125-.08593-.0586-.07422-.07422-.0586-.08984-.0625-.08594-.11718-.17969-.0586-.08593.03125-.1211.08594-.05859.1211-.03125.05859-.08594v-.1211l-.03125-.11718-.0586-.08984-.05859-.08594-.04687-.10547-.02735-.11719-.01562-.1328.0586-.08985.07421-.07422.08984-.0586.1172-.17968.07421-.07422.0586-.08594.14843-.14844.1211-.03125.1328-.01562.13282.01562.07422.07422.04297.10547.01562.13281-.03125.1172-.11719.03124-.1328.01172-.14844.14844-.04297.10547-.04688.10156-.02734.1211-.03125.11718v.14844l.03125.11719.04297.10546.05859.08985.07422.07031.07422.07422.11719.03125.12109.02734.11719-.02734.1328-.01563h.1172l.08984.0586.07422.07422.04687.10546.0586.08594.10156.04688.13281.01562.10547.04297.08594.0586-.01172.10546-.07422.07422-.17969.11719-.05859.08984-.08984.0586-.07032.07422-.07421.07421-.0625.08985-.02735.11719-.01562.1328.01562.13282-.01562.13281v.14844l.01562.13281.02735.1172.03125.12108.07421.07422.08985.0586.08594.0586.08984.05858.11719.03125v.08594l-.10157.04688-.08984.0586-.26563.03124-.11718.02735h-.14844l-.10547.04296-.10156.04688-.0586.08984-.0625.23438-.01171.13281-.03125.1211-.01563.1328v.29298l-.01172.1328.01172.13673.01563.1328.1328.01563.13282.01172.1211.03125.08593.0586.07422.07421.04688.10547.04296.10157.01563.1328v.44532l-.01563.13281v.44532l.03125.26562.02735.11719.01562.13281.03125.11719.08594.21094.03125.26562v.14844l-.03125.11719-.02734.11718-.03125.1211-.02735.11719-.03125.11718-.03125.1211-.01171.1328-.01563.13282.08984.0586.1172-.03125.10155.01562.04688.10547-.03125.26562v.44141l-.04297.10547-.04688.10547-.04296.10156-.04297.10547-.0586.08594-.03125.12109-.04296.11719-.03125.11719-.01563.1328.01563.13282.05859.08984.10547.04688.08594.0586.05859.08593-.01172.13672-.03125.11719-.04297.10156v.44531l-.01562.13281v.14844l-.03125.11719-.04297.10547-.02735.11719-.04687.10546-.04297.10157-.03125.12109-.02734.11719-.03125.13281-.03125.11719-.02735.11719-.04297.10546-.03125.1172-.03125.12108-.01171.13282-.01563.13281v.29688l.02734.11718v.14844l.04688.39844.02734.11719.0586.08984.12109.03125h.14844l.13281-.01563.0586.08985v.11719l-.0586.08984-.08984.0586-.10157.04296-.10546.04688-.08985.05859-.08594.0586-.13671.01562-.1172-.03125-.1328-.01563-.10157.04688-.0625.08594-.01172.13671-.01562.13282-.03125.11719-.02735.11718-.01562.13281-.03125.1211v.29687l.01563.13282.03125.11718v.14844l.01171.13281v.14844l-.02734.11719-.04688.10156-.02734.1211-.03125.11718-.0586.08985-.07421.07421-.10156.04297-.10547.04688-.11719.02734-.1211.03125-.10156-.04687.0586-.08594.10547-.04688.02734-.11718.03125-.11719.02734-.1211.03125-.11718v-.14844l.01563-.13281-.03125-.11719-.04297-.10547-.10547.01563-.07422.07422-.10156.04296-.08984.0625-.07422.07422-.04297.10157-.01563.1328-.03125.1172L304.25 426l-.03125.11719-.02734.11719-.03125.12109-.02735.11719-.03125.11718-.04297.10547-.08984.0586h-.08984l-.1172-.03125-.03124-.08594.01562-.13672-.03125-.11719v-.14844l-.01171-.1328v-.14844l-.0625-.23438-.02735-.1211-.04297-.10156-.04687-.10546-.0586-.08594-.05859-.08985-.04297-.10546-.0625-.08594-.14844-.14844-.0703-.07422-.10548-.04687-.10547-.04297-.10156-.04297-.29687-.29688-.08985-.07421-.08594-.0586-.10546-.04297-.08985-.0625-.08594-.0586-.10546-.04296-.08985-.0586-.08594-.0625-.07421-.0703-.10547-.04688-.08594-.0586-.10547-.04296-.08984-.0625-.10156-.04297-.10547-.04297-.08594-.0586-.10547-.04687-.10547-.04297-.10156-.04687-.08985-.0586-.10156-.04297-.10547-.04296-.08984-.0625-.11719-.02735-.13281-.01562-.13281.01562H299.75l-.13281.01563-.11719-.03125-.08984-.0586-.07422-.07422-.08985-.05859-.10156-.04688h-.14844l-.12109-.02734-.10156-.04297-.07422-.07422-.11719-.17968-.08984-.0586-.10156-.04297-.08985-.0625-.10547-.04296-.08984-.0586-.08594-.0586-.10547-.04687-.0586-.08594-.05858-.08984-.04297-.10547-.04688-.10156-.07422-.07422-.08594-.0586-.07421-.07421-.08985-.0586-.22265-.22265-.04297-.10547-.03125-.26563.10547-.04296h.14453l.10547.04296.07421.07422.08985.0586.08594.0586.10546.04687.08985.05859.14844.14844.0703.07422.14845.14843.0625.08594.07421.07422.08594.0586.07422.07421.08985.0625.08984.0586.08594.05859.26953.17578.10156.04688.10547.04296.10156.04297.04688-.07421.05859-.08594.07422-.07422.07031-.07422.10547.04297.07422.07422.0586.08984.04296.10156.04688.10547.04296.10547.1211.02735.11719-.02735.07421-.08984.04297-.10547.0586-.08985.07422-.07421.10546-.04297.1172-.02735.1328.01172.08985.0586.14844.14843.05859.08985.04297.10547.04687.10156.04297.10547.04297.10156.10547.04688.10547.04296.13281.01563.08594-.0586.0586-.08984.07421-.07422.10547-.04297.11719.02735.10547.04687.10156.04297.10547.04297.10156.04688.17969.11718v.11719l-.01563.13281.01563.13281.01562.13672.0586.08594.10156.04688.1211.02734.11718.03125h.14844l.11719-.03125.05859-.08984.17969-.1172.05859-.08983.07422-.07422.0586-.08594.11718-.17969.17969-.11719.11719.03125.08984.0586.04297.07422-.01563.1328v.1172l.08985.05859h.14843l.13282-.01563.1328-.01171.26563-.03125.10547-.04297.11719-.03125.1211-.02735.07421-.07421.07031-.07422.0625-.08985-.01562-.10547-.04688-.10156-.10156-.04297-.10547-.01562-.11718.02734-.26563.03125h-.14844l-.07421-.07422-.08985-.0586-.11719-.03124-.11718-.02735-.13282-.01562h-.14843l-.13282.01563h-.29687l-.10547-.04688-.14844-.14844-.04297-.10156-.05859-.08984.22266-.22266.08593-.0586.10547-.04296.11719-.03125.13281-.01563.13281.01563.13672.01562.10157.04297.1328-.01172.08985-.0625.10156-.04297.0625-.08984-.04687-.10156-.08984-.0586-.1172-.03125-.10155-.04296-.0586-.08985-.0625-.08984v-.11719l.01563-.13281.10547-.04688.07421-.07031v-.1211l-.08984-.05859-.03125-.11719.08985-.05859.07421-.07422.04297-.10547.0586-.08984.04687-.10156.01563-.13281v-.14844l-.04688-.10547-.04297-.10156-.08984-.0586-.13281-.01562-.10157-.04297-.13671-.01563-.1172-.03125h-.4453l-.13282-.01562-.13281-.01172-.13281-.01563-.11719-.03125h-.14844l-.13281-.01562-.13281-.01172-.26563-.03125-.1211-.04297-.08593-.0586-.07422-.07421v-.14844l.01172-.13281.10547-.04688.10156-.04296.13281-.01563h.15235l.13281-.01562h.29297l.1211.03125.10156.04296.08984.0586.23438.0625.12109-.04688.08984-.05859.10156-.04297.13282-.01562.10547.04296.10156.04688.13281.01172.1211-.02735h.14453l.12109-.03125.11719-.02734.10547-.04687.07421-.07422.08594-.0586.14844-.14843.0586-.08594.04687-.10547.02734-.11719.01563-.10547-.10156-.04296-.08985-.0586-.11719-.03125-.10546-.04297-.08985-.0625-.07422-.08594-.07422-.07421-.10156-.04297-.10547-.04688-.10156-.04297-.0586-.08984-.04687-.10156-.08594-.21094-.0625-.08594-.05859-.08984-.07422-.07422-.08594-.0586h-.26953l-.11719.03126-.08984.05859-.10156.04297-.13281.01562-.10547-.01562-.02735-.11719-.0625-.08984-.11718-.03125-.10157-.04297-.14843-.14844-.03125-.11719-.01563-.10546.07422-.07422.17969-.1172.11719-.02733.11718-.03125.13672.01562.10156.04297.10547.04297.10156.04687.10547.04297.1172.03125.1328.01563.1172.02734.1328.01563.10547-.01563.08985-.0586-.07422-.07421-.10547-.04297-.07422-.07422-.07422-.08984-.14844-.14844-.08593-.0586-.08985-.05859-.07422-.07422-.08984-.0586-.10156-.04687-.1211-.02734-.10156-.04688-.10547-.04296-.11719-.03125-.10156-.04297-.1211-.03125h-.14843l-.11719.03125-.10546.04297-.08594.0625-.17969.11718-.08594.0586-.08984.0586-.10547.04687-.08594.05859-.10547.04297-.10156.04297-.10547.04687-.07422.07422-.05859.08985-.0586.08593-.04687.10547-.0586.08594-.07421.07422-.13281-.01172-.1172-.03125h-.11718l-.07422.07422-.08984.0586-.07422.07421-.08984.0586-.08594.05859-.10547.04687-.10156.04297-.13672.01563-.10156-.04297-.14844-.14844-.10547-.04688h-.08594l-.10547.04688-.10156.04297-.1211.03125-.11718-.03125-.07422-.07422v-.11719l.03125-.1211.07422-.0703.0586-.08985.07421-.07422.11719-.03125.10547-.04296h.29297l.13281-.01563.13672-.01563.10156-.04296.08985-.0586.10156-.04687.08984-.0586.13281-.01171.08985.05859.13281.01172.08984-.0586.08594-.05859.10547-.04297.08984-.0586.08594-.0625.08985-.05859.14843-.14843.0586-.08594.05859-.08985.10547-.04296.13281-.01563.11719.02735.1211.03125.05859-.0586.05859-.08984.03125-.26563.02734-.11719.10547.01172.13281.01563.10157-.04297.08984-.0586.0586-.08984.07421-.07422.0586-.08984.04687-.10156.01172-.13281-.01172-.13282-.04687-.10547-.14844-.14843-.0586-.08985-.05859-.08594-.04297-.10546v-.44532l.01563-.1328v-.14845l.01172-.1328-.0586-.0586-.08984.0586-.10156-.04298-.17969-.11719-.08594-.05859-.0625-.08984-.0586-.08985-.07421-.07421-.08594-.0586-.1211.03125-.10155.01172-.10547.04688-.08594.05859-.10547.04297-.14844.14844-.08984.05859-.08594.0586-.08984.0625-.10547.04296-.13281.01563v-.1211l.10547-.04297.11718-.03125.07422-.0703.04297-.10548v-.14844l-.02734-.11718-.14844-.14844-.13281-.01563h-.14844l-.11719.03125-.10547.04297-.10156.04297-.08984.0625-.11719.02735-.07422-.07422.01172-.13281-.04297-.10157-.04297-.10547-.08984-.05859-.11719.02734-.1211.03125-.11718.03125-.10156.04297-.1211.03125-.10156.04297-.10547.04297-.08984.0586-.10156.01562v-.11719l.01562-.13281-.0586-.08985-.07421.04297-.14844.14844-.0586.08985-.07421.07421-.04688.10547-.04296.10156-.07422.07422-.0586.08985-.07422.07422-.05859.08593-.07422.07422-.08984.0625-.07422.07031-.07422.07422-.10156.01563-.13281.01562-.10547-.04296v-.1211l.14843-.14844.04297-.10156.0586-.08984.04687-.10156.04297-.10547.0586-.08985.03124-.11719.04297-.10156.03125-.1211.02735-.11718.04687-.10547.04297-.10156.04297-.10547.07422-.07031.08984-.0625.08985-.0586.10156-.04296h.29687l.26563-.03125.10547-.04297-.07422-.07422-.11719-.03125-.10547-.04297-.08984-.0586-.10156-.04687-.08985-.0586-.10156-.04296-.10547-.04297-.08984-.0625-.08594-.0586-.10547-.04296-.10156-.04297-.1211-.03125-.11718-.03125-.10157-.04297L297.5 410.25l-.10156-.04297-.08985-.0586-.04296-.10546-.01563-.13281.10156-.04297.13281-.01563.13672.01563.13282-.01563.10156-.04297.0586-.08984.01562-.10547-.08985-.0586-.07421-.07421-.10157-.04297-.08984-.0586-.14844-.14843-.04297-.10547-.01562-.13281v-.29297l-.0586-.08985-.08984-.05859-.07422-.07422-.04297-.10547-.03125-.11718-.0586-.08985-.07421-.07422-.11719-.02734-.07422-.07422-.08984-.0586-.08984-.0625-.08594-.05859-.07422-.07421-.0586-.08594-.04687-.10547-.08594-.0586-.14843-.14843-.19532-.0586-.1328.01563-.10157.04297-.07422.07422-.04688.10156-.04296.10547-.0586.08984-.0586.08594-.29687.29687-.08984.0586h-.08594l-.0625-.08594-.04297-.10547.03125-.11719.0586-.08984.02734-.11719-.01172-.13281-.08984-.0625-.10547.04688-.11719.02734-.11719.03125-.26953.17578-.10156.04688-.11719.02734-.10546.04687-.08985.0586-.10156.04297-.0586-.08594-.04687-.10547.01563-.13281.04687-.10547.07031-.07422.07422-.07031.0586-.08985v-.14843l-.04297-.10547h-.23829l-.10156.04687-.03125.11719-.02734.11719-.03125.1211-.07422.04296-.13281.01563-.07422-.04688-.04297-.10156-.04297-.10547-.04687-.10156-.04297-.10547-.1211.03125-.10156.04297-.13281.01562-.11719.03125-.10547.04297-.08984.0586-.10156.04687-.1211.02734-.13281.01563-.10156-.04297-.0586-.08985-.04687-.10546-.04297-.10157-.04297-.10546v-.1172l.0586-.08984.08593-.05859.17969-.11719.10156-.04687.10547-.04297.10547-.0586.10156-.04296.08985-.0625.10156-.04297.10547-.0586.10156-.04687.08984-.0586.10547-.04296.10156-.04297.08985-.0625.10156-.04297.13672-.01563.11719.03125.10156.04297.1211.03125.10156.04297.10546.04688.10157.04296.10547.04297.10156.04688.10547.04297.10156.04297.10547.04687.08594.0586.10546.04296.1172.03125.10546.04297.10156.04688.08985.0586.10547.04296.10156.04297.10547.04687.11719.02735.10156.04687.1211.02735h.14843l.08594-.0586.01562-.10156.0586-.08984-.02735-.1172-.07422-.07421-.11719-.17969-.07421-.07422-.08985-.07421-.17969-.1172-.08593-.05859-.10547-.04296-.10156-.04688-.26954-.17578-.05859-.08985-.07422-.07421-.0586-.08985-.04296-.10156-.03125-.11719-.01563-.13672v-.5625l-.01171-.1328-.01563-.13282-.03125-.11719-.01562-.13281-.01172-.13281-.03125-.1211-.22266-.22265-.0586-.08594-.01562-.10547.03125-.11719.13281-.01562v-91.41406H172.9922v1.45312l-.0586.23438-.35156 1.05078-.17187.52343-.1172.34766-.17577.41016-.11719.17187-.23438.29297-.23046.0586h-.35157l-.11718.05859-.23047.40625v.29297l.11719.17578.23046.23047.1172.23437.64062.75781.29297.46485.17578.23437.23047.35156.23437.34766.64063.8164.17578.46485.17187.41016.11719.69531.17578.46875.11719 1.39844.0586.46484v.875l.11718 1.04688v4.78125l-.0586.46484-.35156 1.28125-.17578.52344-.11328.41015-.35156.9297L172.93359 336l-.23437.58203-.11719.17578-.17187.34766-.17578.40625-.35157.8164-.0586.29297-.11327.29297-.11719.28906-.0586.17579-.11718.875-.0586.40625-.05859.11718-.0586.17579-.05859.17187-.23047.52734-.11718.17188v.23437l-.11719.23438-.0586.17187-.17577.58594v.28906l-.0586.17579v.29296l-.0586.11329-.05859.52734v.17187l-.05468.23438v2.6211l-.17578.8164-.1172.17578-.17577.23438-.1172.17187-.11327.23438-.58594.93359-.23047.28906-.29297.46485-.17578.23437-.28906.35156-.35156.69922-.11328.23047-.17579.41016-.17578.23046-.40625.52735-.8164.69922-.29297.17187-.28906.23438-.17579.11719-.17578.17578-.52344.40625-.52734.17578-.17187.17578-.23438.05469-.64062.17578h-.75782m12.21094 31.02344l-1.07422.44921.35938.89454 1.25-.71485.44531-.53906-.98047-.08985"/><path fill="#d3d3d3" fill-opacity="0" fill-rule="evenodd" d="M201.50781 416.59766h-.89453l.44922.6289.98047.35938.80469-.08985.4453-.98828-.17577.08985-.71485-.35547-.89453.35547m154.6211 59.0703l-.0586-.52343v-.29297l.11328-.29297.0586-.23046.46875-.46875h.11328l.11719-.11329.11718-.05859h.17579l.23437-.0586h.34766l.23437.0586.11719.0586.23047.17187.0586.17578.11718.58203v.29297l-.11719.17578-.17187.28906-.17579.17579-.52734.52343-.23047.23438-.11719.0586h-.17578l-.11718-.0586-.40625-.29297-.17579-.11719-.11718-.0586-.0586-.11327-.05468-.1172m6.64062-10.95702l-.0586-.17188v-1.10937l.0586-.17188.17578-.0586.17188-.05858h.17578l.23437-.0586.1172.0586.05858.69921-.05859.17188-.11719.17578-.11718.0586-.23438.52343-.11328.0586h-.23438l-.05859-.1172m9.61328-14.39062l-.11719-.17578v-.69922l.29297-.875.1172-.17187.17577-.35156.11328-.23047.1172-.29297.35155-.75781.1172-.23047.17187-.23438h.17578l.11719-.0586h.64062l.11719.0586.23437.23438.17188.11328.35156.29297.11719.11718.11328.17579v.11328l.11719.05859.11718.11719v.69922l-.05859.17578v.23047l-.0586.17578-.34765 1.05078-.11719.23047-.11719.23437-.11718.0586-.23047.23437-.64063.28906h-.875l-.41015-.11718-.64063-.46485"/><path fill="none" stroke="#bebebe" stroke-linecap="round" stroke-linejoin="round" stroke-miterlimit="10" stroke-width=".5" d="M467.95703 311.69531H144.02734v168.625h323.9297v-168.625"/><g clip-path="url(#a)"><path fill="#fff" fill-opacity="0" fill-rule="evenodd" d="M144 475.89063v4.4375h.0039H144V311.67188h.0039H144v164.21875"/></g><g clip-path="url(#b)"><path fill="#fff" fill-opacity="0" fill-rule="evenodd" d="M144.0039 480.32813V311.67188h26.625v148.7539l-2.2539 2.14844 2.2539 1.0039 4.4375-.15625 4.44141-.83203.03125-.01562-.03125-.03516-4.4414-1.16015-4.4375-.95313v-148.7539h297.36718v168.65625H144.00391"/></g><path fill="#50fcfc" fill-rule="evenodd" d="M170.6289 463.57813l-2.2539-1.00391 2.2539-2.14844 4.4375.95313 4.44141 1.16015.03125.03516-.03125.01562-4.4414.83204-4.4375.15625"/><g clip-path="url(#c)"><path fill="#fff" fill-opacity="0" fill-rule="evenodd" d="M467.9961 480.32813H468V311.67188h-.0039H468v168.65625h-.0039"/></g><g clip-path="url(#d)"><path fill="none" stroke="#000" stroke-linecap="round" stroke-linejoin="round" stroke-miterlimit="10" stroke-width=".5" d="M147.4961 480.6836l-6.9922-.71094"/></g><g clip-path="url(#e)"><path fill="none" stroke="#000" stroke-linecap="round" stroke-linejoin="round" stroke-miterlimit="10" stroke-width=".5" d="M147.4961 480.6836l.92577 2.27343"/></g><g clip-path="url(#f)"><path fill="none" stroke="#000" stroke-linecap="round" stroke-linejoin="round" stroke-miterlimit="10" stroke-width=".5" d="M146.47656 480.58203l.46485 1.13281"/></g><g clip-path="url(#g)"><path fill="none" stroke="#000" stroke-linecap="round" stroke-linejoin="round" stroke-miterlimit="10" stroke-width=".5" d="M160.82813 480.42578l-7.02344-.19531"/></g><g clip-path="url(#h)"><path fill="none" stroke="#000" stroke-linecap="round" stroke-linejoin="round" stroke-miterlimit="10" stroke-width=".5" d="M160.82813 480.42578l1.08984 2.19531"/></g><g clip-path="url(#i)"><path fill="none" stroke="#000" stroke-linecap="round" stroke-linejoin="round" stroke-miterlimit="10" stroke-width=".5" d="M159.80469 480.39844l.54687 1.09765"/></g><g clip-path="url(#j)"><path fill="none" stroke="#000" stroke-linecap="round" stroke-linejoin="round" stroke-miterlimit="10" stroke-width=".5" d="M174.14453 480.28906l-7.02734.08203"/></g><g clip-path="url(#k)"><path fill="none" stroke="#000" stroke-linecap="round" stroke-linejoin="round" stroke-miterlimit="10" stroke-width=".5" d="M174.14453 480.28906l1.17578 2.15235"/></g><g clip-path="url(#l)"><path fill="none" stroke="#000" stroke-linecap="round" stroke-linejoin="round" stroke-miterlimit="10" stroke-width=".5" d="M173.1211 480.30078l.58984 1.07422"/></g><g clip-path="url(#m)"><path fill="none" stroke="#000" stroke-linecap="round" stroke-linejoin="round" stroke-miterlimit="10" stroke-width=".5" d="M187.45703 480.3125l-7.02344.03516"/></g><g clip-path="url(#n)"><path fill="none" stroke="#000" stroke-linecap="round" stroke-linejoin="round" stroke-miterlimit="10" stroke-width=".5" d="M187.45703 480.3125l1.16406 2.16016"/></g><g clip-path="url(#o)"><path fill="none" stroke="#000" stroke-linecap="round" stroke-linejoin="round" stroke-miterlimit="10" stroke-width=".5" d="M186.4375 480.3164l.58203 1.08204"/></g><g clip-path="url(#p)"><path fill="none" stroke="#000" stroke-linecap="round" stroke-linejoin="round" stroke-miterlimit="10" stroke-width=".5" d="M200.77344 480.34375l-7.02735-.02734"/></g><g clip-path="url(#q)"><path fill="none" stroke="#000" stroke-linecap="round" stroke-linejoin="round" stroke-miterlimit="10" stroke-width=".5" d="M200.77344 480.34375l1.14453 2.17188"/></g><g clip-path="url(#r)"><path fill="none" stroke="#000" stroke-linecap="round" stroke-linejoin="round" stroke-miterlimit="10" stroke-width=".5" d="M199.75 480.33984l.57422 1.08594"/></g><g clip-path="url(#s)"><path fill="none" stroke="#000" stroke-linecap="round" stroke-linejoin="round" stroke-miterlimit="10" stroke-width=".5" d="M214.08594 480.41797l-7.02344-.17969"/></g><g clip-path="url(#t)"><path fill="none" stroke="#000" stroke-linecap="round" stroke-linejoin="round" stroke-miterlimit="10" stroke-width=".5" d="M214.08594 480.41797l1.09765 2.19531"/></g><g clip-path="url(#u)"><path fill="none" stroke="#000" stroke-linecap="round" stroke-linejoin="round" stroke-miterlimit="10" stroke-width=".5" d="M213.0664 480.39453l.54688 1.09766"/></g><g clip-path="url(#v)"><path fill="none" stroke="#000" stroke-linecap="round" stroke-linejoin="round" stroke-miterlimit="10" stroke-width=".5" d="M227.39063 480.6211l-7-.58594"/></g><g clip-path="url(#w)"><path fill="none" stroke="#000" stroke-linecap="round" stroke-linejoin="round" stroke-miterlimit="10" stroke-width=".5" d="M227.39063 480.6211l.96875 2.2539"/></g><g clip-path="url(#x)"><path fill="none" stroke="#000" stroke-linecap="round" stroke-linejoin="round" stroke-miterlimit="10" stroke-width=".5" d="M226.3711 480.53516l.48437 1.1289"/></g><g clip-path="url(#y)"><path fill="none" stroke="#000" stroke-linecap="round" stroke-linejoin="round" stroke-miterlimit="10" stroke-width=".5" d="M240.69531 480.73047l-6.98047-.80469"/></g><g clip-path="url(#z)"><path fill="none" stroke="#000" stroke-linecap="round" stroke-linejoin="round" stroke-miterlimit="10" stroke-width=".5" d="M240.69531 480.73047l.89844 2.28515"/></g><g clip-path="url(#A)"><path fill="none" stroke="#000" stroke-linecap="round" stroke-linejoin="round" stroke-miterlimit="10" stroke-width=".5" d="M239.67969 480.61328l.44922 1.14453"/></g><g clip-path="url(#B)"><path fill="none" stroke="#000" stroke-linecap="round" stroke-linejoin="round" stroke-miterlimit="10" stroke-width=".5" d="M254.02734 480.52734l-7.01562-.39843"/></g><g clip-path="url(#C)"><path fill="none" stroke="#000" stroke-linecap="round" stroke-linejoin="round" stroke-miterlimit="10" stroke-width=".5" d="M254.02734 480.52734l1.02735 2.22657"/></g><g clip-path="url(#D)"><path fill="none" stroke="#000" stroke-linecap="round" stroke-linejoin="round" stroke-miterlimit="10" stroke-width=".5" d="M253.00781 480.46875l.51563 1.11328"/></g><g clip-path="url(#E)"><path fill="none" stroke="#000" stroke-linecap="round" stroke-linejoin="round" stroke-miterlimit="10" stroke-width=".5" d="M267.34375 480.14453l-7.01563.36719"/></g><g clip-path="url(#F)"><path fill="none" stroke="#000" stroke-linecap="round" stroke-linejoin="round" stroke-miterlimit="10" stroke-width=".5" d="M267.34375 480.14453l1.26563 2.10547"/></g><g clip-path="url(#G)"><path fill="none" stroke="#000" stroke-linecap="round" stroke-linejoin="round" stroke-miterlimit="10" stroke-width=".5" d="M266.32422 480.19922l.63281 1.05078"/></g><g clip-path="url(#H)"><path fill="none" stroke="#000" stroke-linecap="round" stroke-linejoin="round" stroke-miterlimit="10" stroke-width=".5" d="M280.64844 479.98438l-6.9961.6875"/></g><g clip-path="url(#I)"><path fill="none" stroke="#000" stroke-linecap="round" stroke-linejoin="round" stroke-miterlimit="10" stroke-width=".5" d="M280.64844 479.98438l1.35547 2.04687"/></g><g clip-path="url(#J)"><path fill="none" stroke="#000" stroke-linecap="round" stroke-linejoin="round" stroke-miterlimit="10" stroke-width=".5" d="M279.6289 480.08594l.6797 1.01953"/></g><g clip-path="url(#K)"><path fill="none" stroke="#000" stroke-linecap="round" stroke-linejoin="round" stroke-miterlimit="10" stroke-width=".5" d="M293.95703 479.9375l-6.98437.78125"/></g><g clip-path="url(#L)"><path fill="none" stroke="#000" stroke-linecap="round" stroke-linejoin="round" stroke-miterlimit="10" stroke-width=".5" d="M293.95703 479.9375l1.38672 2.02344"/></g><g clip-path="url(#M)"><path fill="none" stroke="#000" stroke-linecap="round" stroke-linejoin="round" stroke-miterlimit="10" stroke-width=".5" d="M292.9414 480.05078l.69141 1.01172"/></g><g clip-path="url(#N)"><path fill="none" stroke="#000" stroke-linecap="round" stroke-linejoin="round" stroke-miterlimit="10" stroke-width=".5" d="M307.28516 480.07422l-7.00782.50781"/></g><g clip-path="url(#O)"><path fill="none" stroke="#000" stroke-linecap="round" stroke-linejoin="round" stroke-miterlimit="10" stroke-width=".5" d="M307.28516 480.07422l1.30468 2.07812"/></g><g clip-path="url(#P)"><path fill="none" stroke="#000" stroke-linecap="round" stroke-linejoin="round" stroke-miterlimit="10" stroke-width=".5" d="M306.26563 480.14844l.65234 1.03906"/></g><g clip-path="url(#Q)"><path fill="none" stroke="#000" stroke-linecap="round" stroke-linejoin="round" stroke-miterlimit="10" stroke-width=".5" d="M320.59766 480.01953l-7 .61719"/></g><g clip-path="url(#R)"><path fill="none" stroke="#000" stroke-linecap="round" stroke-linejoin="round" stroke-miterlimit="10" stroke-width=".5" d="M320.59766 480.01953l1.33593 2.0586"/></g><g clip-path="url(#S)"><path fill="none" stroke="#000" stroke-linecap="round" stroke-linejoin="round" stroke-miterlimit="10" stroke-width=".5" d="M319.57813 480.10938l.66796 1.02734"/></g><g clip-path="url(#T)"><path fill="none" stroke="#000" stroke-linecap="round" stroke-linejoin="round" stroke-miterlimit="10" stroke-width=".5" d="M333.91797 480.5586l-7.01172-.46094"/></g><g clip-path="url(#U)"><path fill="none" stroke="#000" stroke-linecap="round" stroke-linejoin="round" stroke-miterlimit="10" stroke-width=".5" d="M333.91797 480.5586l1.0039 2.23827"/></g><g clip-path="url(#V)"><path fill="none" stroke="#000" stroke-linecap="round" stroke-linejoin="round" stroke-miterlimit="10" stroke-width=".5" d="M347.1836 480.96094l-6.91407-1.26172"/></g><g clip-path="url(#W)"><path fill="none" stroke="#000" stroke-linecap="round" stroke-linejoin="round" stroke-miterlimit="10" stroke-width=".5" d="M347.1836 480.96094l.74218 2.33594"/></g><g clip-path="url(#X)"><path fill="none" stroke="#000" stroke-linecap="round" stroke-linejoin="round" stroke-miterlimit="10" stroke-width=".5" d="M360.21484 481.83594l-6.34765-3.01563"/></g><g clip-path="url(#Y)"><path fill="none" stroke="#000" stroke-linecap="round" stroke-linejoin="round" stroke-miterlimit="10" stroke-width=".5" d="M373.53125 481.83594l-6.34766-3.01563"/></g><g clip-path="url(#Z)"><path fill="none" stroke="#000" stroke-linecap="round" stroke-linejoin="round" stroke-miterlimit="10" stroke-width=".5" d="M387.0039 481.44531l-6.66406-2.23437"/></g><g clip-path="url(#aa)"><path fill="none" stroke="#000" stroke-linecap="round" stroke-linejoin="round" stroke-miterlimit="10" stroke-width=".5" d="M386.03125 481.1211l.20313 1.21093"/></g><g clip-path="url(#ab)"><path fill="none" stroke="#000" stroke-linecap="round" stroke-linejoin="round" stroke-miterlimit="10" stroke-width=".5" d="M400.375 481.2539l-6.77734-1.84765"/></g><g clip-path="url(#ac)"><path fill="none" stroke="#000" stroke-linecap="round" stroke-linejoin="round" stroke-miterlimit="10" stroke-width=".5" d="M399.39063 480.98438l.26953 1.1953"/></g><g clip-path="url(#ad)"><path fill="none" stroke="#000" stroke-linecap="round" stroke-linejoin="round" stroke-miterlimit="10" stroke-width=".5" d="M413.8086 480.5625l-7.01173-.46484"/></g><g clip-path="url(#ae)"><path fill="none" stroke="#000" stroke-linecap="round" stroke-linejoin="round" stroke-miterlimit="10" stroke-width=".5" d="M412.78906 480.49219l.5 1.1211"/></g><g clip-path="url(#af)"><path fill="none" stroke="#000" stroke-linecap="round" stroke-linejoin="round" stroke-miterlimit="10" stroke-width=".5" d="M427 481.27734l-6.76563-1.89843"/></g><g clip-path="url(#ag)"><path fill="none" stroke="#000" stroke-linecap="round" stroke-linejoin="round" stroke-miterlimit="10" stroke-width=".5" d="M439.76172 482.41016l-5.66016-4.16407"/></g><g clip-path="url(#ah)"><path fill="none" stroke="#000" stroke-linecap="round" stroke-linejoin="round" stroke-miterlimit="10" stroke-width=".5" d="M451.4414 483.63281l-2.39062-6.60937"/></g><g clip-path="url(#ai)"><path fill="none" stroke="#000" stroke-linecap="round" stroke-linejoin="round" stroke-miterlimit="10" stroke-width=".5" d="M464.3086 483.76172l-1.4961-6.86719"/></g><g clip-path="url(#aj)"><path fill="none" stroke="#000" stroke-linecap="round" stroke-linejoin="round" stroke-miterlimit="10" stroke-width=".5" d="M147.5 467.30078l-7-.57422"/></g><path fill="none" stroke="#000" stroke-linecap="round" stroke-linejoin="round" stroke-miterlimit="10" stroke-width=".5" d="M147.5 467.30078l.97266 2.2539m-1.98828-2.33593l.48437 1.125m13.85156-1.10547l-7.01172-.44922m7.01172.44922l1.01172 2.23828m-2.03125-2.30468l.5039 1.12109m13.83595-1.36719l-7.02344.17578m7.02344-.17578l1.20703 2.13672m-2.22657-2.11328l.60157 1.07031m13.68359-1.60156l-6.92188 1.1914m6.92188-1.1914l1.5039 1.9414m-2.51171-1.76953l.7539.97266m13.6211-.44922l-7.02344-.19922m7.02344.19922l1.08984 2.19922m-2.11328-2.22656l.54688 1.09765m13.78906-1.05859l-7.02344-.22266m7.02344.22266l1.08594 2.19922m-2.10547-2.23438l.53906 1.10157m13.79687-1.0625l-7.02343-.23047m7.02343.23047l1.07813 2.20312m-2.10156-2.23437l.54297 1.10156m13.78125-.85156l-6.9961-.66797m6.9961.66797l.9414 2.26562M239.6836 467.25l.47266 1.13281m13.875-1.23437l-7.02344-.26953m7.02344.26953l1.0664 2.21093m-2.08593-2.25l.53125 1.10547m13.80469-1.1914l-7.02735-.01953m7.02735.01953l1.14843 2.16797m-2.16796-2.17188l.5703 1.08594m13.72657-1.625l-6.94922 1.0664m6.94922-1.0664l1.46484 1.96875m-2.47656-1.8125l.73438.98437m13.51171-1.52343l-6.78515 1.83203m6.78515-1.83203l1.67579 1.78906m-2.66407-1.52344l.83985.89453m13.49219-1.03515l-6.84375 1.58203m6.84375-1.58203l1.61328 1.85156m-2.60938-1.6211l.80469.92579m13.54687-.96094l-6.92578 1.1914m6.92578-1.1914l1.50391 1.9414m-2.51172-1.76562l.75.96875m13.61719-.77344l-7.01172.44922m7.01172-.44922l1.28515 2.08985m11.77735-.53907l-6.50781-2.65234m5.5625 2.26562l.12109 1.21875m13.42188.26954l-5.07422-4.85547m5.07421 4.85547l-.66406 2.36328m13.9961-2.3789l-5.10547-4.82423m5.10547 4.82422l-.65235 2.36719m14.82813-3.95703l-6.83203-1.64453m5.83984 1.40625l.30469 1.1875m12.16406 1.37109l-3.15234-6.28516m2.6914 5.3711l-.70703 1m13.4414.24218l-1.0703-6.9414m.91406 5.9336l-.98047.73437m16.97265-1.46485l-6.11328-3.46484m18.69141 4.3711l-4.63672-5.27735m3.96094 4.51172l-.4336 1.14453m15.09375-1.17188l-5.97656-3.6914m5.10938 3.15625l-.08203 1.22265m11.76171.94532l-.97265-6.95703m.83203 5.9453l-.99219.72266"/><g clip-path="url(#ak)"><path fill="none" stroke="#000" stroke-linecap="round" stroke-linejoin="round" stroke-miterlimit="10" stroke-width=".5" d="M147.50781 453.86328l-7.01562-.32812"/></g><path fill="none" stroke="#000" stroke-linecap="round" stroke-linejoin="round" stroke-miterlimit="10" stroke-width=".5" d="M147.50781 453.86328l1.05078 2.21485m-2.0703-2.26563l.52343 1.10938m13.78125-.71485l-6.95313-1.01953m6.95313 1.01953l.82422 2.3125m12.51562-2.5625l-7.00781-.51562m7.00781.51562l.99219 2.24219m12.33203-2.34375l-7.02344-.3125m7.02344.3125l1.05469 2.21484m12.24219-2.73047l-6.98828.71485m6.98828-.71485l1.36718 2.03907m11.95703-1.97266l-7.0039.58594m7.0039-.58594l1.32813 2.0625m-2.34766-1.97656l.66407 1.03125m13.67578-1.00781l-7.01563.36718m7.01563-.36718l1.26562 2.10156m-2.28515-2.05078l.6328 1.05468m13.62892-1.66796l-6.8672 1.49218m6.8672-1.49218l1.58203 1.87109m-2.58203-1.65625l.79296.9375m13.44532-1.4414l-6.71485 2.0703m6.71485-2.0703l1.73828 1.73046m-2.71485-1.42969l.8672.86329m13.45702-1.0547l-6.78125 1.85157m6.78125-1.85156l1.67969 1.78906m-2.66797-1.51953l.83985.89453m13.47656-1.11719l-6.80469 1.7539m6.80469-1.7539l1.65625 1.8125m-2.64844-1.55469l.82813.90235m13.47265-1.17969l-6.79297 1.79297m6.79297-1.79297l1.66797 1.80078m-2.65625-1.53906l.83203.90234m13.4375-1.28515l-6.72656 2.03906m6.72656-2.03906l1.73047 1.73828m-2.71094-1.4414l.86719.87109m13.40234-1.25l-6.67187 2.20312m6.67187-2.20312l1.77344 1.6953m-2.7461-1.375l.88673.84767m13.26953-1.50391l-6.41406 2.875m6.41406-2.875l1.9375 1.5039m11.55078-1.02734l-6.75781 1.91797m6.7578-1.91797l1.69923 1.77344m11.63281.08594l-6.79297-1.80078m5.80469 1.53906l.27734 1.19531m13.21094.55078l-5.16406-4.76953m4.41406 4.07813l-.3125 1.18359m11.6875.63672l.21875-7.02344m11.04297 6.28125l4.32422-5.53906m-3.69531 4.73437l-1.20704-.21484m14.13282 1.1875l3.84765-5.8789m-3.84765 5.8789l-2.44532-.21875m15.77344.23047l3.8164-5.89844m-3.26171 5.03906l-1.21875-.10156m16.26172 1.5039l-.7461-6.98828m.63672 5.97266l-1.01562.6875m16.16406-.34375l-4.19531-5.64062m3.58594 4.8203l-.52735 1.10548m13.20703.30078l-1.70312-6.8164m1.70312 6.8164l-1.82422 1.64453"/><g clip-path="url(#al)"><path fill="none" stroke="#000" stroke-linecap="round" stroke-linejoin="round" stroke-miterlimit="10" stroke-width=".5" d="M147.50781 440.16016l-7.01562.44922"/></g><path fill="none" stroke="#000" stroke-linecap="round" stroke-linejoin="round" stroke-miterlimit="10" stroke-width=".5" d="M147.50781 440.16016l1.28516 2.08593m-2.3086-2.02343l.64454 1.04687m13.6875-.61719l-7.00391-.53906m7.0039.53906l.98438 2.25M174 441.37891l-6.73828-1.9922M174 441.37892l.49219 2.40234m12.9375-2.94922l-6.96875-.89844m6.96875.89844l.86719 2.29688m12.47265-2.87891l-7.01953.26953m7.01953-.26953l1.23438 2.1211m-2.25391-2.08204l.61719 1.0586m13.70312-1.33594l-6.98828.74219m6.98828-.7422l1.3711 2.03516m-2.39063-1.92578l.6875 1.01563m13.53516-1.69922l-6.76563 1.89453m6.76563-1.89453l1.69531 1.77344m11.4336-2.28516l-6.39454 2.91406m6.39453-2.91406l1.94532 1.4961m11.04297-2.0625l-5.7422 4.05078m5.7422-4.05079l2.1914 1.10547m11.17969-1.02734l-5.85156 3.89062m5.85156-3.89062l2.16015 1.16797m-3.01171-.60156l1.07812.58593m13.38281-.60937l-6.4414 2.8086m6.4414-2.8086l1.92188 1.52344m-2.85938-1.1172l.96094.76173m13.125-1.5039l-6.10547 3.48046m6.10547-3.48047l2.07031 1.3086m-2.96093-.8047l1.03906.65626m13.375-.73047l-6.52344 2.61719m6.52344-2.6172l1.875 1.58204m-2.82422-1.19922l1.875 1.58203m12.4961-1.64844l-6.73829 1.98438m6.73828-1.98438l1.71875 1.75391m-2.69921-1.46484l1.71875 1.7539m12.3125-2.69922l-6.20704 3.29688m6.20704-3.29688l2.03125 1.375m-2.9336-.89453l1.01563.6875m13.3164-.92578l-6.4375 2.8125m6.4375-2.8125L348.8672 440.5m11.1211-2.03125l-5.89454 3.82812m5.89453-3.82812l2.14453 1.1914m9.74219-2.4453l-3.03516 6.33593m2.59375-5.41406l1.22266-.05078m9.69922-.96094l2.63281 6.51562m-2.63281-6.51562l1.57812-1.8789m10.6797 2.54687l4.74609 5.17969m-4.7461-5.1797l.8164-2.3125m12.33204 2.47657l5.07812 4.85547m-5.07812-4.85547l.66406-2.36328m12.6211 7.1875l5.13671-4.79688m-4.38671 4.09766l-1.16016-.39844m12.96094-2.40234l6.66797 2.20703m-5.69922-1.88672l-.20703-1.21094m15.67187 5.5l.42969-7.01562m-.36719 5.9961l-1.11719.5078m13.02735.15626l3.11328-6.30079m-2.66016 5.38282l-1.22656.03515"/><g clip-path="url(#am)"><path fill="none" stroke="#000" stroke-linecap="round" stroke-linejoin="round" stroke-miterlimit="10" stroke-width=".5" d="M147.46875 426.5039l-6.9375 1.13282"/></g><path fill="none" stroke="#000" stroke-linecap="round" stroke-linejoin="round" stroke-miterlimit="10" stroke-width=".5" d="M147.46875 426.5039l1.48438 1.94923m-2.4961-1.78516l.7461.97656m13.61328-.84766l-7.00391.54297m7.0039-.54297l1.31641 2.07032m-2.33594-1.99219l.66016 1.03516m13.6875-.88672l-7.02734.08984m7.02734-.08984l1.17969 2.14844m-2.20313-2.13672l.58985 1.07422m13.73828-1.27735l-7.00781.47266m7.0078-.47266l1.29688 2.08594m-2.3164-2.01563l.64844 1.04297m13.67968-1.21875l-6.9961.6836m6.9961-.6836l1.35547 2.04297m-2.375-1.94531l.67969 1.02344m13.67187-.73047l-7.02734-.09766m7.02734.09766l1.1211 2.17969m-2.14453-2.19532l.5625 1.08985m13.74218-1.60547l-6.96093.96484m5.94922-.82422l.71875.99219m13.51953-1.57031l-6.78125 1.84375m5.79297-1.57813l.83984.89453m12.4336-2.83984l-4.72657 5.19922m4.72656-5.19922l2.3789.60547m10.92188-.61719l-4.69922 5.22266m4.01563-4.46485l1.1914.29688m13.53126-.14844l-6.14453 3.41016m6.14453-3.41016l2.05859 1.33594m11.15625-1.5039l-5.94531 3.74609m5.94531-3.7461l2.1289 1.21875m11.41016-.80078l-6.39453 2.91016m6.39453-2.91016l1.94922 1.49219m11.19531-1.82031l-6.05078 3.5664m6.05078-3.5664l2.09375 1.28125m11.53907-.57813l-6.6875 2.16016m6.6875-2.16016l1.76171 1.70703m11.2422-2.39843l-6.06641 3.54296m6.0664-3.54296l2.08985 1.28906m10.9453-1.70313l-5.5039 4.3711m5.5039-4.3711l2.25.97657m10.04298-1.85157l-3.45703 6.1211m3.45703-6.1211l2.44922.0625m8.75-.49218l.77343 6.98437m-.77343-6.98437l2.02734-1.38672m-1.91406 2.40234l1.01172-.6914m15.01171.6328l-4.87109 5.06641m4.8711-5.0664l2.35937.67187m-3.0664.0664l1.17968.33595m12.55469-1.32032l-4.29688 5.5586m4.29688-5.5586l2.41797.41407m-3.04297.39453l2.41797.41406m-3.04297.39453l1.21094.20703m12.61328-2.26562l-2.8125 6.4414m2.8125-6.4414l2.44531-.1875m-2.85547 1.125l2.44531-.1875m-2.85546 1.125l2.44921-.1875m12.09375-1.47657l-3.6289 6.01954m3.6289-6.01954l2.44922.13282m-2.97656.74218l2.44922.13282m-2.98047.74218l1.22656.06641m13.85938-1.2461l-5.05469 4.87891m5.05469-4.8789l2.33594.7578m-3.07032-.04687l1.16797.37891m11.74219-1.8789l-2.77735 6.45702m2.77735-6.45703l2.44531-.20312m-2.84765 1.14453l1.22265-.10156"/><g clip-path="url(#an)"><path fill="none" stroke="#000" stroke-linecap="round" stroke-linejoin="round" stroke-miterlimit="10" stroke-width=".5" d="M147.41406 412.92969l-6.82812 1.64844"/></g><path fill="none" stroke="#000" stroke-linecap="round" stroke-linejoin="round" stroke-miterlimit="10" stroke-width=".5" d="M147.41406 412.92969l1.6289 1.83594m-2.62108-1.59766l.8125.92187m13.5625-.8125l-6.96485.94922m6.96484-.94922l1.4336 1.9922m-2.44531-1.85157l.71484.9961m13.64063-.57423l-7.02344-.17578m7.02344.17578l1.09765 2.19532m-2.11719-2.21875l.54688 1.09765m13.7539-1.67578l-6.95312 1.03125m6.95313-1.03125l1.45703 1.97656m-2.46875-1.82422l.72656.98438m13.61328-1.01953l-6.98047.79297m6.98047-.79297l1.39063 2.02344m11.8125-2.58594l-6.75782 1.92187m5.77735-1.64453l.84765.88672m13.50781.52734l-6.875-1.46093m5.875 1.25l.33594 1.17968m13.3125.46094l-5.54297-4.32031m4.73828 3.6914l-.21484 1.20704m14.67969-4.35938l-6.23438 3.24219m5.32813-2.76953l1.01172.69531m13.60156.67578l-7.01563-.44531m7.01563.44531l1.01172 2.23438m12.21484-3.26953l-6.83984 1.625m6.83984-1.625l1.6211 1.84375m10.14843-4.00391l-3.75 5.94531m3.20703-5.07812l1.22266.08984m11.125-1.48047l-.72656 6.99219m.6211-5.97266l1.13671-.46093m13.61719-.14063l-3.39453 6.15625m2.89844-5.26172l1.22656.01953m13.65234-.0078l-5.52734 4.33983m4.72265-3.70703l1.1211.4961m13.67187.3164l-6.875 1.45313m5.875-1.24219l.78516.9414m13.59375-.16406l-7.0039-.52343m7.0039.52343l.98828 2.2461m12.0625-3.875l-6.47266 2.73437m6.47266-2.73437l1.90234 1.54687m-2.84375-1.14843l.94922.77343m12.97266-1.78515l-5.80469 3.96093m5.80469-3.96093l2.17187 1.14062m-3.01562-.5664l2.17187 1.14062m-3.01953-.5625l1.08985.57031m14.01562-1.5664l-6.0039 3.64843m6.0039-3.64843l2.10938 1.2539m-2.98047-.72265l2.10937 1.2539m11.51953-2.48437l-4.89062 5.04687m4.89062-5.04687l2.35938.67969m-3.07031.05468l2.35546.6797m-3.0664.05468l1.17969.33984m12.89453-2.3125l-3.5664 6.05469m3.5664-6.05469l2.45312.10547m-2.96875.77344l2.44922.10937m-2.96875.77344l1.22266.05469m12.30469-2.17188l-1.91797 6.76172m1.91796-6.76172l2.39454-.51562m-2.67579 1.5l2.39844-.51563m12.65235.35938l-4.82422 5.10937m4.82422-5.10937l2.36328.64844m-3.0664.09375l1.18358.32421m12.87891-1.02343l-4.91797 5.01953"/><g clip-path="url(#ao)"><path fill="none" stroke="#000" stroke-linecap="round" stroke-linejoin="round" stroke-miterlimit="10" stroke-width=".5" d="M466.01953 411.24219l2.35547.69531"/></g><path fill="none" stroke="#000" stroke-linecap="round" stroke-linejoin="round" stroke-miterlimit="10" stroke-width=".5" d="M465.30469 411.97266l1.17578.34765"/><g clip-path="url(#ap)"><path fill="none" stroke="#000" stroke-linecap="round" stroke-linejoin="round" stroke-miterlimit="10" stroke-width=".5" d="M147.3125 399.26172l-6.625 2.35156"/></g><path fill="none" stroke="#000" stroke-linecap="round" stroke-linejoin="round" stroke-miterlimit="10" stroke-width=".5" d="M147.3125 399.26172l1.8086 1.65625m-2.77344-1.3125l.90625.82812m13.42578-1.0078l-6.73047 2.02733m6.73047-2.02734l1.72656 1.74219m-2.70703-1.44922l.86328.8711m13.47656-1.00391l-6.8164 1.70312m6.8164-1.70312l1.64063 1.82422m10.83594-3.3672l-5.14063 4.78907m4.39453-4.09375l1.15625.40235m12.42578-1.52735l-4.1836 5.64844m3.57423-4.82422l1.21484.17969m14.07422 1.1836l-6.91016 1.27343m5.90235-1.08594l.76562.96094m13.60156-.82422l-7 .625m7-.625l1.33985 2.05469m-2.35938-1.96485l.67188 1.02735m13.46875-1.99219l-6.61328 2.375m6.61328-2.375l1.8164 1.65234m11.625-1.20703l-6.86718 1.48438m6.86719-1.48438l1.58593 1.875m-2.58203-1.65625l.78906.9336m13.58203-.77735l-6.98828.73438m6.98828-.73438l1.375 2.03516m11.94141-1.28516l-6.98828-.76172m5.97266.64844l.45312 1.14063m13.82813-2.09766l-6.89063 1.3789m6.89063-1.3789l1.55468 1.89844m11.20704-3.20313l-5.78516 3.98828m5.78516-3.98828l2.17968 1.1289m-3.01953-.55077l1.08985.5664m13.66796.48438l-6.98828.72656m6.98828-.72656l1.3711 2.03906m11.49219-3.4375l-6.08204 3.52344m6.08204-3.52344l2.08203 1.30078m11.70312.38281l-7.02344.15625m7.02344-.15625L348.4375 402.5m-2.22266-2.11719l.60157 1.07031m12.72265 1.45313l-4.9961-4.9375m4.9961 4.9375l-.69922 2.35156m14.95313-5.55078l-6.875 1.46094m6.875-1.46094l1.57812 1.8789m10.98438-3.41406l-5.36719 4.53516m5.36719-4.53515l2.27734.91015m-3.0586-.25l2.27735.91016m12.50782-.28516l-6.7461 1.96485m6.7461-1.96485l1.71093 1.75781m-2.6914-1.47265l.85547.8789m13.5625-.53125l-6.9922.69922m6.9922-.69922l1.36328 2.03907m10.80859-4.30079l-4.70312 5.21875m4.70312-5.21875l2.3789.59375m-3.0625.16797l2.37891.59375m11.6914-1.28906l-4.84765 5.08985m4.84766-5.08985l2.36328.66016m-3.07031.07812l2.36328.66016m-3.0664.08203l1.17968.32813m13.78516-1.5586l-5.32422 4.58594m5.32422-4.58594l2.28515.89063m-3.0625-.22266l1.14453.44531m13.14844-.85547l-5.72656 4.07032"/><g clip-path="url(#aq)"><path fill="none" stroke="#000" stroke-linecap="round" stroke-linejoin="round" stroke-miterlimit="10" stroke-width=".5" d="M466.42578 398.40234L468.6211 399.5"/></g><path fill="none" stroke="#000" stroke-linecap="round" stroke-linejoin="round" stroke-miterlimit="10" stroke-width=".5" d="M465.59375 398.9961l1.09375.54687"/><g clip-path="url(#ar)"><path fill="none" stroke="#000" stroke-linecap="round" stroke-linejoin="round" stroke-miterlimit="10" stroke-width=".5" d="M147.23828 385.75781l-6.47656 2.73047"/></g><path fill="none" stroke="#000" stroke-linecap="round" stroke-linejoin="round" stroke-miterlimit="10" stroke-width=".5" d="M147.23828 385.75781l1.90234 1.55078m11.57813-1.0625L153.91406 388m6.80469-1.7539l1.65625 1.80859m10.59375-3.55078l-4.67969 5.24218m4.67969-5.24218l2.38281.58203m10.80469-.6914l-4.42188 5.46093m4.42188-5.46094l2.41016.46485m-3.0547.32812l1.20704.23438m13.28125-.5l-5.47656 4.40234M200 384.92187l2.2539.96485m-3.05077-.32422l1.125.48438m13.7578 1.21093l-7.02343-.26953m7.02344.26953l1.0664 2.21094m11.98047-.9961l-6.48437-2.69921m5.54297 2.3086l.11328 1.21874m14.1836-.92578l-6.56642-2.5039m5.61329 2.14062l.15234 1.21484m14.3086-2.60547l-6.95313 1.00391m6.95312-1.0039l1.45313 1.98046m11.6914-2.67578l-6.60937 2.39453m6.60938-2.39453l1.8203 1.64453m11.69923-.64062l-7.01953.38672m7.01953-.38672l1.26562 2.10156m-2.28906-2.04297l.63672 1.05078m13.70703-.85547l-7.02734-.12109m7.02734.1211l1.11328 2.1875m12.0664-3.21485l-6.7578 1.9336m6.7578-1.9336l1.70313 1.76953m11.73828-.55078l-7.01172-.5039m7.01172.5039l.99219 2.24219m12.1211-3.6875l-6.60938 2.38672m6.60937-2.38672l1.82032 1.64453m11.70312-.3125l-7.02344-.27735m6 .23829l.53125 1.10546m13.75782-.60156l-6.92578-1.20703m6.92578 1.20703l.76172 2.33203m-1.76954-2.5078l.38282 1.16405m13.96484-2.03125l-6.97266.87891m6.97266-.8789l1.41016 2.0078m-2.42578-1.8789l1.41406 2.00781m12.5664-3.27734l-6.27734 3.16015m6.27734-3.16015l2.00391 1.41797m-2.91406-.95703l2 1.41796m12.4336-1.37109l-6.69141 2.14453m6.6914-2.14453l1.75781 1.71094m-2.73046-1.39844l.8789.85547m13.3789-1.2539l-6.6328 2.3203m6.6328-2.3203l1.8047 1.66406m-2.76954-1.32813l.90235.83203m12.85937-2.13672l-5.59375 4.25391m5.59375-4.2539l2.22657 1.02734m10.96093-1.1836l-5.33984 4.56641m5.33984-4.5664l2.28516.89843m-3.0625-.23437l1.14453.44921m13.19922-.78125l-5.84375 3.90235m5.84375-3.90235l2.16016 1.16016m-3.01172-.59375l2.16406 1.16016m12.0039-1.72656l-5.84374 3.90234"/><g clip-path="url(#as)"><path fill="none" stroke="#000" stroke-linecap="round" stroke-linejoin="round" stroke-miterlimit="10" stroke-width=".5" d="M466.48438 385.17188l2.16015 1.16015"/></g><g clip-path="url(#at)"><path fill="none" stroke="#000" stroke-linecap="round" stroke-linejoin="round" stroke-miterlimit="10" stroke-width=".5" d="M465.63281 385.73828l2.16016 1.16016"/></g><g clip-path="url(#au)"><path fill="none" stroke="#000" stroke-linecap="round" stroke-linejoin="round" stroke-miterlimit="10" stroke-width=".5" d="M146.10156 370.99219l-4.20312 5.63281"/></g><path fill="none" stroke="#000" stroke-linecap="round" stroke-linejoin="round" stroke-miterlimit="10" stroke-width=".5" d="M145.48828 371.8125l1.21484.1836m13.86329.47656l-6.5 2.67187m5.55468-2.28125l.94141.78125m13.53906-.375l-6.9414 1.07813m5.92968-.92188l.73828.98047m12.53516-3.14844l-4.83594 5.10156m4.83594-5.10156l2.36328.65235m11.94922 1.07421l-6.83203 1.64844m6.83203-1.64844l1.6289 1.83594m11.78516-.99219l-7.02734-.04296m7.02734.04296l1.13672 2.17579M227.3086 373l-6.83593 1.61719M227.30859 373l1.6211 1.83984m-2.61328-1.60546l.80859.92187m13.55078-.89844l-6.9414 1.10156m5.92968-.9414l.74219.98047m13.54297.1836l-6.85547-1.54688m5.85547 1.3203l.32422 1.1836m14.07422-1.75781l-7.02735.05078m7.02735-.05078l1.16797 2.16016m12.125-2.54297l-6.98047.82031m5.96484-.70313l.69922 1.00782m13.63281-.32813l-6.98437-.77344m6.98437.77344l.90625 2.27735m12.42578-2.87891l-7.01562.42969m7.01562-.42969l1.28125 2.08984m12.03516-1.72265l-7.01953-.30469m7.01953.30469l1.0586 2.21094m12.2539-2.1836l-7.01563-.36328m7.01563.36328l1.03906 2.22656m12.21875-1.73437l-6.89844-1.34375m6.89844 1.34375l.71484 2.34375m12.5547-2.14844l-6.8086-1.73828m6.8086 1.73828l.58202 2.38672m-1.57422-2.63672l.29297 1.1914m14.04688-1.0703l-6.8711-1.47657m6.8711 1.47656l.66797 2.35938m-1.66797-2.57422l.33594 1.17969m14.04296-1.99219l-7.0039.57813m7.0039-.57813l1.32813 2.0625m-2.34766-1.98047l.66407 1.03125m13.58203-1.66406l-6.82422 1.67969m6.82422-1.67969l1.63672 1.82813m-2.62891-1.58594l.8164.91797m13.34766-1.61329l-6.53515 2.58594m6.53515-2.58594l1.86719 1.58985m11.26562-1.97656l-6.17187 3.35937m6.17187-3.35937l2.04688 1.35156m10.6914-2.1289l-5.01953 4.91406m5.01954-4.91407l2.33984.74219m-3.07031-.02734l1.17187.37109m12.85938-1.10156l-4.99219 4.94531m4.99219-4.94531l2.34375.73047m-3.07032-.01172l1.17188.36719m13.39844-.40235l-6.04688 3.57813"/><g clip-path="url(#av)"><path fill="none" stroke="#000" stroke-linecap="round" stroke-linejoin="round" stroke-miterlimit="10" stroke-width=".5" d="M466.58594 372.01953l2.09375 1.27735"/></g><g clip-path="url(#aw)"><path fill="none" stroke="#000" stroke-linecap="round" stroke-linejoin="round" stroke-miterlimit="10" stroke-width=".5" d="M465.70703 372.53906l2.09375 1.27735"/></g><g clip-path="url(#ax)"><path fill="none" stroke="#000" stroke-linecap="round" stroke-linejoin="round" stroke-miterlimit="10" stroke-width=".5" d="M146.0039 357.60938l-4.0078 5.76953"/></g><path fill="none" stroke="#000" stroke-linecap="round" stroke-linejoin="round" stroke-miterlimit="10" stroke-width=".5" d="M145.42188 358.44922l1.21875.14453m13.875.44922l-6.40235 2.89844m5.47266-2.47657l.96875.75m9.38281 3.72266l1.38281-6.89063m16.02735 2.57422l-6.8047 1.7422m5.81642-1.48829l.82421.90625m13.58985-.28906h-7.02735m18.2461 3.21484l-2.83594-6.42969m15.25781 6.69141l-1.04687-6.94922m.89453 5.9375l-.98438.73047m16.03907-.38672l-4.22266-5.61328m11.91406 2.84375l7.02735-.07813m11.8789 2.8711l-4.15625-5.66406M265.3086 362.5l-.53125 1.10547m15.15625-.96875l-5.5664-4.28906m19.4414 3.22265l-6.6875-2.15234m5.71485 1.83984l.21875 1.20703m13.92187-.51171l-6.39062-2.92188m6.39062 2.92188l.14844 2.44921m13.29687-2.78125l-6.65234-2.2578m6.65234 2.2578l.39454 2.42188m13.08593-3.95313l-6.98047.8047m6.98047-.8047l1.39063 2.01954m11.29687.42187l-5.72656-4.07422m5.72656 4.07422l-.3164 2.42969m13.7461-2.60156l-5.95704-3.73438m5.95703 3.73438l-.17578 2.44921m13.67578-2.78515l-6.32422-3.0625m6.32422 3.0625l.08984 2.45312m13.57032-3.79297l-7.01563-.3789m7.01563.3789l1.03125 2.22657m12.15625-3.3711l-6.76172 1.91016m6.76172-1.91016l1.69922 1.76953m11.48046-2.16406l-6.49218 2.69531m6.49218-2.6953l1.89454 1.5625m11.0625-2.21876l-5.77344 4.00781m5.77344-4.0078l2.17968 1.125m11.03907-1.25392l-5.58204 4.26563m5.58204-4.26563l2.23046 1.02344m10.1875-1.84765l-3.78906 5.91796m3.78906-5.91796l2.44532.19921m11.03906-.08593l-4.125 5.6875"/><g clip-path="url(#ay)"><path fill="none" stroke="#000" stroke-linecap="round" stroke-linejoin="round" stroke-miterlimit="10" stroke-width=".5" d="M465.625 357.64844l2.42969.33984"/></g><g clip-path="url(#az)"><path fill="none" stroke="#000" stroke-linecap="round" stroke-linejoin="round" stroke-miterlimit="10" stroke-width=".5" d="M144.17188 343.66797l-.34375 7.01953"/></g><g clip-path="url(#aA)"><path fill="none" stroke="#000" stroke-linecap="round" stroke-linejoin="round" stroke-miterlimit="10" stroke-width=".5" d="M144.1211 344.6914l1.10937-.52343"/></g><path fill="none" stroke="#000" stroke-linecap="round" stroke-linejoin="round" stroke-miterlimit="10" stroke-width=".5" d="M157.83984 343.70313l-1.05078 6.94921m.89844-5.9375l1.16016-.40625m8.58203 1.42188l6.40234 2.89453m8.80469 1.8164l2.61719-6.52343m9.63672 5.85547l4.73828-5.1914m7.72265 3.98827l6.44922-2.78515m7.6289 3.90234l4.92188-5.01953m-4.20703 4.28906l-1.17578-.34765m13.10938.17187l6.2539-3.20703m-5.34375 2.74219l-1.00781-.69922m13.15234.49219l6.77344-1.86329m-5.78906 1.59375l-.83985-.89062m13.37891 1.72656l6.35938-2.9961m-5.4336 2.5586l-.98437-.73437m14.91797 2.78515l3.26953-6.21875m-2.79297 5.3125l-1.22656.0039m15.8125 1.3047l-.22266-7.02344m.1875 6l-1.0625.60937m15.61719.15625l-2.63282-6.51171m2.25 5.5664l-.78906.9375m14.71485-.09375l-3.08985-6.3086m3.08985 6.3086l-1.4375 1.98828m15.8789-2.85937l-5.33984-4.5664m5.33984 4.5664l-.53515 2.39844m12.30078-1.35157l-2.2422-6.66015m1.91798 5.6914l-.84375.89063m15.10547-.19922l-3.48828-6.10156m2.98046 5.21093l-.65625 1.03907m15.95704-1.79688l-6.44141-2.8086m6.4414 2.8086l.1875 2.44531m13.41797-3.80078l-7.02734-.09765m7.02734.09765l1.1211 2.1836m12.0625-3.19141l-6.76172 1.92188m6.76172-1.92188l1.69922 1.76563m11.1953-2.70313l-5.91796 3.79297m5.91797-3.79297l2.13672 1.20313m10.85547-1.62891L420.98047 349.5m5.27344-4.64453l2.29297.86328m10.5664-1.29297L434.75 349.9336m4.36328-5.5078l2.41406.4414m10.96875-.38672l-4.5 5.39844m4.5-5.39844l2.40235.5m11.73047.48437l-6.13282 3.42579"/><g clip-path="url(#aB)"><path fill="none" stroke="#000" stroke-linecap="round" stroke-linejoin="round" stroke-miterlimit="10" stroke-width=".5" d="M466.6289 345.46484l2.0625 1.32813"/></g><g clip-path="url(#aC)"><path fill="none" stroke="#000" stroke-linecap="round" stroke-linejoin="round" stroke-miterlimit="10" stroke-width=".5" d="M144.32813 330.36328l-.65625 6.9961"/></g><g clip-path="url(#aD)"><path fill="none" stroke="#000" stroke-linecap="round" stroke-linejoin="round" stroke-miterlimit="10" stroke-width=".5" d="M144.23438 331.38281l1.1289-.47265"/></g><path fill="none" stroke="#000" stroke-linecap="round" stroke-linejoin="round" stroke-miterlimit="10" stroke-width=".5" d="M156.83203 330.38281l.96484 6.96094m-.82421-5.94922l.99609-.71875m9.15234 3.36328l7.01953-.35156m-6 .30078l-.6289-1.05469m13.13281 2.13672l6.60156-2.41406m-5.64062 2.0625l-.91406-.8164m13.29687 1.24218l6.54297-2.5625m-5.58984 2.1914l-.9336-.80077m13.1289-.82422l6.87892 1.42969m-5.87891-1.22266l-.34375-1.17578m13.09375-.13672l6.00781 3.64062m7.72656.5586l5.16797-4.75781m-4.41797 4.0664l-1.15625-.40625m13.94532 1.32422l4.71875-5.21094m-4.03125 4.45313l-1.1875-.30078m13.60937.85156l5.13281-4.79688m-4.38671 4.09766l-1.16016-.39844m15.61328 2.14453l1.36328-6.89062m-1.16406 5.89062l-1.17578.35547m14.59765.6914l.75391-6.98437m-.7539 6.98438l-2.27735.91406m17.01172-1.05078l-2.08594-6.71094m2.08594 6.71094l-1.72656 1.74219m14.26172-1.59375l-.52344-7.00781m.52344 7.0078l-2.07813 1.3086m17.05469-1.875l-3.85156-5.875m3.85156 5.875l-1.17969 2.15235m13.3125-1.65625l-1.48828-6.8672m1.48828 6.8672l-1.8711 1.58593m15.97266-1.85547l-3.0586-6.32812m2.61329 5.40625l-.72656.99219m16.21094-1.91016l-6.50782-2.64844m19.86719.10938l-6.59375 2.42969m6.59375-2.4297l1.82813 1.63673m11.70312-.375l-7.02734-.09375m6.0039.07812l.5625 1.08985m13.44922-2.60547l-6.3711 2.96875m5.44141-2.53516l.98047.73828m12.67969-2.04687l-5.20703 4.71875m4.44922-4.03125l1.15625.41406m12.72656-1.29688l-4.82422 5.10938m4.82422-5.10938l2.36328.64844m11.04688-.55469l-5.01563 4.92188m5.01563-4.92188l2.33984.7422m11.64844.22265l-6.35938 2.99219"/><g clip-path="url(#aE)"><path fill="none" stroke="#000" stroke-linecap="round" stroke-linejoin="round" stroke-miterlimit="10" stroke-width=".5" d="M466.74219 332.36719l1.96484 1.46875"/></g><path fill="none" stroke="#000" stroke-linecap="round" stroke-linejoin="round" stroke-miterlimit="10" stroke-width=".5" d="M465.8164 332.80078l.98048.73438"/><g clip-path="url(#aF)"><path fill="none" stroke="#000" stroke-linecap="round" stroke-linejoin="round" stroke-miterlimit="10" stroke-width=".5" d="M144.8164 317.1289l-1.6328 6.83594"/></g><path fill="none" stroke="#000" stroke-linecap="round" stroke-linejoin="round" stroke-miterlimit="10" stroke-width=".5" d="M144.8164 317.1289l2.375-.61718m10.65626.5625l-1.06641 6.94531m.91016-5.9336l1.16015-.40624m11-.5586l1.5586 6.85157m14.09375-.27735l-3.1172-6.29687m18 4.7539l-6.2539-3.20703m5.34375 2.73828l.01953 1.22657m12.60938.80078l-3.0625-6.32422m2.61719 5.40234l-.72266.99219m16.46484-3.28906l-7.02343.11328m19.97265 1.5039l-6.29297-3.12109m19.80078.46094l-6.67578 2.19531m19.87891.29297l-6.45313-2.78125m16.39454 4.90234l.29297-7.01953m-.25 5.9961l-1.10547.53125m14.97265.46484l-.89843-6.96875m.89843 6.96875l-2 1.42188m15.91407-1.55079l-2.09375-6.70703m2.09375 6.70703l-1.72657 1.7461m13.9961-1.58594v-7.02734m0 7.02734l-2.16797 1.15234m15.52344-1.15234l-.08594-7.02734m.08594 7.02734l-2.15235 1.17578m15.27735-1.17969l.29687-7.01953m-.29687 7.01953l-2.21485 1.0586m13.6836-1.67578l3.98828-5.78516m-3.40625 4.9414l-1.21875-.14062m14.39453 1.24219l3.10547-6.30469m14.8828 1.54297l-6.24608 3.21875m5.33984-2.75l1.00781.69922m13.09375-1.38281l-6.0039 3.64843m5.1328-3.11718l1.0547.6289m13.60937 1.15625l-6.96094-.98047m14.3711 3.03125l4.85156-5.08593m11.21484-.95313l-.65234 6.9961m.5586-5.98047l1.1289-.47266m14 .09766l-4.09375 5.71484m4.09375-5.71484l2.42969.32421m11.54297.28907l-5.40625 4.48828"/><g clip-path="url(#aG)"><path fill="none" stroke="#000" stroke-linecap="round" stroke-linejoin="round" stroke-miterlimit="10" stroke-width=".5" d="M466.26563 318.30469l2.26953.9336"/></g><path fill="none" stroke="#000" stroke-linecap="round" stroke-linejoin="round" stroke-miterlimit="10" stroke-width=".5" d="M465.48047 318.95703l2.26953.9336"/><path fill="#ff3030" fill-rule="evenodd" d="M366.74219 476.52344h7.6914V466.3789h-7.6914v10.14453"/><path fill="azure" fill-rule="evenodd" d="M368.57422 468.21094h.83203v5.74219h3.19531v.73828h-4.02734v-6.48047"/><path fill="#ff3030" fill-rule="evenodd" d="M251.34375 449.89453h7.6914V439.75h-7.6914v10.14453"/><path fill="azure" fill-rule="evenodd" d="M253.17578 441.58203h.83594v5.73828h3.1914v.74219h-4.02734v-6.48047"/><path fill="#ff3030" fill-rule="evenodd" d="M326.79688 445.45703h7.6914V435.3125h-7.6914v10.14453"/><path fill="azure" fill-rule="evenodd" d="M328.6289 437.14453h.83204v5.73828h3.19531v.74219h-4.02734v-6.48047"/><path fill="#00f" fill-rule="evenodd" d="M388.23828 432.14063h8.61719v-10.14454h-8.61719v10.14454"/><path fill="azure" fill-rule="evenodd" d="M390.07031 423.82813h.83594v2.82421h3.28516v-2.82421h.83203v6.48046h-.83203v-2.91796h-3.28516v2.91796h-.83594v-6.48046"/><path fill="#ff3030" fill-rule="evenodd" d="M193.64453 427.70313h7.69531v-10.14454h-7.6953v10.14454"/><path fill="azure" fill-rule="evenodd" d="M195.47656 419.39063h.83594v5.73828h3.1914v.74218h-4.02734v-6.48046"/><path fill="#00f" fill-rule="evenodd" d="M224.01953 418.82813h8.61719v-10.14844h-8.61719v10.14844"/><path fill="azure" fill-rule="evenodd" d="M225.85156 410.51172h.83594v2.82422h3.28516v-2.82422h.83203v6.48047h-.83203v-2.91406h-3.28516v2.91406h-.83594v-6.48047"/><path fill="#ff3030" fill-rule="evenodd" d="M451.07031 418.82813h7.6914v-10.14844h-7.6914v10.14844"/><path fill="azure" fill-rule="evenodd" d="M452.90234 410.51172h.83204v5.74219h3.1953v.73828h-4.02734v-6.48047"/><path fill="#ff3030" fill-rule="evenodd" d="M291.28906 401.07422h7.6914v-10.14844h-7.6914v10.14844"/><path fill="azure" fill-rule="evenodd" d="M293.1211 392.76172h.83593V398.5h3.1914v.73828h-4.02734v-6.47656"/><path fill="#ff3030" fill-rule="evenodd" d="M193.64453 374.4414h7.69531v-10.14452h-7.6953v10.14453"/><path fill="azure" fill-rule="evenodd" d="M195.47656 366.1289h.83594v5.7422h3.1914v.73827h-4.02734v-6.48046"/><path fill="#ffffe0" fill-rule="evenodd" d="M352.34766 392.42578h22.17968v-10.1914h-22.17968v10.1914"/><path fill-rule="evenodd" d="M355.84766 384.07031h.5078v6.29297h-.78515V385.875h-1.39062v-.5586l.5586-.0625.2539-.05468.23047-.08985.20312-.14062.17188-.21094.14453-.29297.10547-.39453m4.8125 0l.23046.01563.21875.0586.20704.08983.1953.1172.1836.15234.17188.17578.30469.41797.24218.49218.17969.54688.10938.58203.03906.58984-.03906.59375-.10938.58204-.17969.55468-.24219.5039-.30468.42579-.17188.17969-.1836.15234-.1953.125-.20704.09375-.21875.05469-.23046.01953-.23047-.01953-.21875-.05469-.20703-.09375-.19532-.125-.18359-.15234-.17188-.17969-.30468-.42578-.24219-.5039-.17969-.5547-.10937-.58203-.03906-.59375h.83203l.03125.5625.07812.50782.1289.4414.16016.375.19141.30078.21094.21875.22265.14063.22657.04687.22656-.04687.22265-.14063.21094-.21875.1914-.30078.16017-.375.1289-.4414.08203-.50782.02735-.5625-.02735-.5625-.08203-.5-.1289-.43359-.16016-.36719-.1914-.29297-.21094-.21484-.22266-.1289-.22656-.04688-.22657.04687-.22265.12891-.21094.21484-.1914.29297-.16016.36719-.1289.4336-.07813.5-.03125.5625h-.83204l.03907-.58985.10937-.58203.17969-.54688.24219-.49218.30469-.41797.17187-.17578.1836-.15235.1953-.11719.20704-.08984.21875-.0586.23047-.01562m5.08984 0h.51172v6.29297h-.78906V385.875h-1.38672v-.5586l.5586-.0625.2539-.05468.22656-.08985.20703-.14062.17188-.21094.14062-.29297.10547-.39453m2.82422 2.17188h.78906l.01953-.3164.0586-.28517.09765-.25.14063-.21875.1836-.17187.22265-.1289.26562-.08204.30469-.02734.23828.02344.22656.0625.20313.10156.17969.13672.14843.17578.11329.20312.0703.23829.02735.26171-.02344.26954-.0664.22656-.10938.1914-.15625.17188-.19922.16015-.24609.16797-.63672.38672-.53515.3125-.4375.3164-.34766.32813-.26563.33204-.1875.35156-.125.3711-.0703.39452-.01954.41797h4.21094v-.74219h-3.33203l.08203-.28125.11328-.23828.14844-.20312.1875-.17969.23046-.17188.27735-.17578.71875-.41406.41406-.20703.34766-.23047.28125-.25.21875-.26953.16406-.27734.10938-.28125.0664-.28516.01953-.28125-.04297-.38281-.12109-.35156-.1875-.3047-.25-.26562-.30469-.21094-.34375-.16015-.3789-.09766-.41016-.03125-.4336.03125-.39843.09766-.35547.16797-.30469.23437-.2461.30469-.1875.3711-.11327.44921-.04297.51563"/><path fill="#ffffe0" fill-rule="evenodd" d="M218.92578 370.23438h22.17969v-10.19141h-22.17969v10.1914"/><path fill-rule="evenodd" d="M222.42578 361.875h.50781v6.29688h-.78906v-4.48829h-1.38672v-.55859l.5586-.0625.2539-.05469.23047-.08984.20313-.14063.17187-.21093.14063-.29297.10937-.39844m4.8125 0l.23047.01953.21875.0586.20703.08593.19531.1211.1836.15234.17187.17578.30078.41797.2461.49219.17969.54687.10937.58203.03906.58985-.03906.59375-.10938.58203-.17968.55469-.2461.5039-.30078.42578-.17187.1797-.1836.15233-.1953.125-.20704.09375-.21875.0547-.23047.01952-.23047-.01953-.21875-.05469-.20703-.09375-.19531-.125-.1875-.15234-.16797-.17969-.30469-.42578-.24219-.5039-.17968-.5547-.11328-.58202-.03516-.59375h.83203l.02734.5625.08204.50781.1289.4414.16016.375.1914.30079.21094.21875.22266.13672.22656.04687.22656-.04687.22266-.13672.21094-.21875.1914-.30078.16016-.375.125-.44141.08203-.50781.03125-.5625-.03125-.5625-.08203-.5-.125-.4336-.16016-.36718-.1914-.29297-.21094-.21485-.22266-.1289-.22656-.04688-.22656.04688-.22266.1289-.21094.21485-.1914.29297-.16016.36718-.1289.4336-.08203.5-.02735.5625h-.83203l.03516-.58985.11328-.58203.17969-.54687.24218-.49219.30469-.41797.16797-.17578.1875-.15234.19531-.1211.20703-.08594.21875-.05859.23047-.01953m5.08984 0h.51172v6.29688h-.78906v-4.48829h-1.38672v-.55859l.5586-.0625.2539-.05469.22656-.08984.20313-.14063.17578-.21093.14063-.29297.10547-.39844m2.82421 2.17578h.78516l.01953-.3164.0625-.28516.09766-.2539.14062-.21485.17969-.17188.22266-.1289.26562-.08203.3086-.02735.23828.02344.22265.0625.20703.10156.17578.13672.15235.17188.11328.20703.07031.23828.02344.26172-.01953.26953-.0664.22656-.10938.1914-.15625.16798-.19922.16406-.25.16797-.63281.38672-.53907.3125-.4375.3164-.34375.32422-.26562.33594-.1914.35156-.125.3711-.06641.39453-.02344.41796h4.21484v-.74218h-3.33203l.08203-.28125.11328-.23828.14844-.20313.1875-.17969.23047-.17187.27734-.17578.71875-.41406.41407-.20704.34765-.23046.27735-.25.22265-.26954.16406-.27734.10938-.28125.0625-.28516.02344-.28125-.04297-.38671-.1211-.34766-.1875-.30469-.25-.26562-.30468-.21094-.34375-.16016-.38281-.09765-.40625-.03516-.4336.03516-.39844.09765-.35547.16797-.30468.23438-.2461.30078-.1875.375-.11718.44922-.03907.51562"/><path fill="#ffffe0" fill-rule="evenodd" d="M359.4961 328.84766h22.17968v-10.19532H359.4961v10.19532"/><path fill-rule="evenodd" d="M362.9961 320.48828h.51171v6.29297h-.78906v-4.48828h-1.38672v-.55469l.5586-.0664.25-.0547.23046-.08984.20313-.14062.17578-.21094.14063-.29297.10546-.39453m4.8125 0l.23047.01953.21875.05469.20703.08984.19922.1211.1836.14844.17187.17578.30078.41796.24219.4961.17969.54687.11328.57813.03906.58984-.03906.59375-.11328.58594-.17969.55078-.24219.5039-.30078.42579-.17187.17969-.1836.15625-.19922.12109-.20703.09375-.21875.05469-.23047.01953-.22656-.01953-.21875-.05469-.21094-.09375-.1953-.1211-.1836-.15624-.17188-.1797-.30078-.42577-.24219-.5039-.17968-.55079-.11329-.58594-.03906-.59375h.83594l.02734.5625.08204.50781.125.44141.16406.375.1914.30078.21094.22266.22266.13672.22265.04687.22657-.04687.22265-.13672.21094-.22266.1914-.30078.16407-.375.125-.4414.08203-.50782.02734-.5625-.02734-.5625-.08203-.5-.125-.4336-.16406-.36718-.19141-.29297-.21094-.21094-.22265-.1328-.22657-.04688-.22265.04687-.22266.13281-.21094.21094-.1914.29297-.16406.36719-.125.4336-.08204.5-.02734.5625h-.83594l.03906-.58985.11329-.57813.17968-.54687.2422-.4961.30077-.41796.17188-.17579.1836-.14843.1953-.1211.21094-.08984.21875-.05469.22656-.01953m5.09375 0h.50782v6.29297h-.78516v-4.48828h-1.39063v-.55469l.5625-.0664.25-.0547.23047-.08984.20313-.14062.17578-.21094.14063-.29297.10546-.39453m6.8047 1.61719h-.78907l-.05078-.21094-.08203-.1875-.10547-.15625-.1289-.13281-.14845-.10156-.16015-.07422-.16797-.04688-.17188-.01562-.32812.04297-.28906.12109-.2461.19531-.20312.26563-.16016.33984-.11719.40235-.0703.46875-.02345.52734.19141-.20313.1836-.16015.1875-.1211.18359-.08984.1875-.0586.19531-.03906.39844-.02343.3086.03125.3203.09375.31641.15234.29297.21875.25781.28516.19922.35156.07031.19922.05469.21875.02734.23437.00391.25-.78516.04688-.02734-.25781-.07813-.25-.12109-.23438-.16015-.21094-.19532-.17969-.21875-.13671-.24219-.08594-.2539-.03125-.2539.03125-.2422.08594-.21875.13671-.1914.1797-.16406.21093-.1211.23438-.07812.25-.02735.2578.02735.26173.07812.25.1211.23437.16406.21094.1914.17578.21875.13672.2422.08984.2539.03125.2539-.03125.2422-.08984.21874-.13672.19531-.17578.16016-.21094.1211-.23437.07812-.25.02734-.26172.78516-.04688-.03125.3711-.08984.375-.16016.35546-.22266.32813-.28906.28516-.16797.11718-.1914.10157-.20313.08203-.22656.0625-.23828.03906-.26172.01172-.28125-.01563-.26172-.04687-.23828-.07422-.21485-.10547-.1953-.13281-.17188-.15625-.15625-.17969-.13672-.20312-.11328-.22266-.10156-.23828-.14454-.53516-.08593-.59375-.02735-.64062.03906-.7461.11329-.66015.1875-.57813.12109-.25781.13672-.23047.15234-.20703.16797-.17969.1875-.15625.20313-.1289.21875-.10157.23046-.07421.25-.04297.26172-.01563.36329.03125.33203.09766.29687.15234.25781.19922.21094.23828.16406.27735.1172.30078.0625.3203"/></g></defs><use xlink:href="#aH"/></svg>