<svg xmlns="http://www.w3.org/2000/svg" role="img" xmlns:xlink="http://www.w3.org/1999/xlink" viewBox="142.45 309.95 326.84 171.84"><defs><clipPath id="a"><path d="M144 311.67188h1v168.65625h-1zm0 0"/></clipPath><clipPath id="b"><path d="M144 480h1v.32813h-1zm0 0"/></clipPath><clipPath id="c"><path d="M144 311.67188h324v168.65625H144zm0 0"/></clipPath><clipPath id="d"><path d="M429 476h7v4.32813h-7zm0 0"/></clipPath><clipPath id="e"><path d="M430 478h5v2.32813h-5zm0 0"/></clipPath><clipPath id="f"><path d="M467 311.67188h1v168.65625h-1zm0 0"/></clipPath><clipPath id="g"><path d="M144 480h4v.32813h-4zm0 0"/></clipPath><clipPath id="h"><path d="M147 480h2v.32813h-2zm0 0"/></clipPath><clipPath id="i"><path d="M146 480h2v.32813h-2zm0 0"/></clipPath><clipPath id="j"><path d="M153 479h9v1.32813h-9zm0 0"/></clipPath><clipPath id="k"><path d="M160 480h3v.32813h-3zm0 0"/></clipPath><clipPath id="l"><path d="M159 480h2v.32813h-2zm0 0"/></clipPath><clipPath id="m"><path d="M166 479h9v1.32813h-9zm0 0"/></clipPath><clipPath id="n"><path d="M173 480h3v.32813h-3zm0 0"/></clipPath><clipPath id="o"><path d="M172 480h2v.32813h-2zm0 0"/></clipPath><clipPath id="p"><path d="M180 479h8v1.32813h-8zm0 0"/></clipPath><clipPath id="q"><path d="M187 480h2v.32813h-2zm0 0"/></clipPath><clipPath id="r"><path d="M186 480h2v.32813h-2zm0 0"/></clipPath><clipPath id="s"><path d="M193 480h9v.32813h-9zm0 0"/></clipPath><clipPath id="t"><path d="M200 480h3v.32813h-3zm0 0"/></clipPath><clipPath id="u"><path d="M206 479h9v1.32813h-9zm0 0"/></clipPath><clipPath id="v"><path d="M213 479h3v1.32813h-3zm0 0"/></clipPath><clipPath id="w"><path d="M212 479h2v1.32813h-2zm0 0"/></clipPath><clipPath id="x"><path d="M220 479h8v1.32813h-8zm0 0"/></clipPath><clipPath id="y"><path d="M227 479h2v1.32813h-2zm0 0"/></clipPath><clipPath id="z"><path d="M226 479h2v1.32813h-2zm0 0"/></clipPath><clipPath id="A"><path d="M233 479h8v1.32813h-8zm0 0"/></clipPath><clipPath id="B"><path d="M240 479h3v1.32813h-3zm0 0"/></clipPath><clipPath id="C"><path d="M239 479h2v1.32813h-2zm0 0"/></clipPath><clipPath id="D"><path d="M246 479h9v1.32813h-9zm0 0"/></clipPath><clipPath id="E"><path d="M253 479h3v1.32813h-3zm0 0"/></clipPath><clipPath id="F"><path d="M260 479h8v1.32813h-8zm0 0"/></clipPath><clipPath id="G"><path d="M267 479h3v1.32813h-3zm0 0"/></clipPath><clipPath id="H"><path d="M273 480h8v.32813h-8zm0 0"/></clipPath><clipPath id="I"><path d="M280 480h3v.32813h-3zm0 0"/></clipPath><clipPath id="J"><path d="M286 480h9v.32813h-9zm0 0"/></clipPath><clipPath id="K"><path d="M293 480h3v.32813h-3zm0 0"/></clipPath><clipPath id="L"><path d="M300 479h8v1.32813h-8zm0 0"/></clipPath><clipPath id="M"><path d="M306 480h2v.32813h-2zm0 0"/></clipPath><clipPath id="N"><path d="M313 479h8v1.32813h-8zm0 0"/></clipPath><clipPath id="O"><path d="M319 480h2v.32813h-2zm0 0"/></clipPath><clipPath id="P"><path d="M326 479h9v1.32813h-9zm0 0"/></clipPath><clipPath id="Q"><path d="M332 480h2v.32813h-2zm0 0"/></clipPath><clipPath id="R"><path d="M340 479h8v1.32813h-8zm0 0"/></clipPath><clipPath id="S"><path d="M345 479h3v1.32813h-3zm0 0"/></clipPath><clipPath id="T"><path d="M353 479h8v1.32813h-8zm0 0"/></clipPath><clipPath id="U"><path d="M359 479h2v1.32813h-2zm0 0"/></clipPath><clipPath id="V"><path d="M366 479h9v1.32813h-9zm0 0"/></clipPath><clipPath id="W"><path d="M372 479h2v1.32813h-2zm0 0"/></clipPath><clipPath id="X"><path d="M380 478h8v2.32813h-8zm0 0"/></clipPath><clipPath id="Y"><path d="M394 477h6v3.32813h-6zm0 0"/></clipPath><clipPath id="Z"><path d="M407 478h7v2.32813h-7zm0 0"/></clipPath><clipPath id="aa"><path d="M419 479h9v1.32813h-9zm0 0"/></clipPath><clipPath id="ab"><path d="M426 480h2v.32813h-2zm0 0"/></clipPath><clipPath id="ac"><path d="M433 479h8v1.32813h-8zm0 0"/></clipPath><clipPath id="ad"><path d="M447 477h6v3.32813h-6zm0 0"/></clipPath><clipPath id="ae"><path d="M462 476h3v4.32813h-3zm0 0"/></clipPath><clipPath id="af"><path d="M144 466h4v2h-4zm0 0"/></clipPath><clipPath id="ag"><path d="M144 453h4v2h-4zm0 0"/></clipPath><clipPath id="ah"><path d="M144 439h4v2h-4zm0 0"/></clipPath><clipPath id="ai"><path d="M144 425h4v4h-4zm0 0"/></clipPath><clipPath id="aj"><path d="M144 412h4v3h-4zm0 0"/></clipPath><clipPath id="ak"><path d="M466 412h2v3h-2zm0 0"/></clipPath><clipPath id="al"><path d="M144 399h4v3h-4zm0 0"/></clipPath><clipPath id="am"><path d="M466 398h2v4h-2zm0 0"/></clipPath><clipPath id="an"><path d="M144 386h4v2h-4zm0 0"/></clipPath><clipPath id="ao"><path d="M466 385h2v4h-2zm0 0"/></clipPath><clipPath id="ap"><path d="M144 373h4v2h-4zm0 0"/></clipPath><clipPath id="aq"><path d="M466 372h2v3h-2zm0 0"/></clipPath><clipPath id="ar"><path d="M144 357h3v7h-3zm0 0"/></clipPath><clipPath id="as"><path d="M465 357h3v2h-3zm0 0"/></clipPath><clipPath id="at"><path d="M144 346h4v2h-4zm0 0"/></clipPath><clipPath id="au"><path d="M144 330h1v8h-1zm0 0"/></clipPath><clipPath id="av"><path d="M466 332h2v4h-2zm0 0"/></clipPath><clipPath id="aw"><path d="M144 317h3v7h-3zm0 0"/></clipPath><clipPath id="ax"><path d="M466 319h2v3h-2zm0 0"/></clipPath><g id="ay" clip-path="url(#clip1)"><path fill="#fff" fill-opacity="0" fill-rule="evenodd" d="M0 0h1000v1000H0zm0 0"/><path fill="#d3d3d3" fill-opacity="0" fill-rule="evenodd" d="M162.15234 355.86719l-.23437.29297.0586.23437.11718.17188.17578.23437.29297.34766.11328.0586.11719-.17188.0586-.23438.17577-.17578.46485-.17578h.69922l.23437.29297.28906.8164.0586.17579.17578.23046.35156.23438.69922.69922.17188.17578.23437.34765.23438.41016.28906.58203.41015.46485.23047.23437.23438.17578.11719.23047.17578.29297.17187 1.16406v.23438l.0586.28906.05859.11719.11719.11719.34765.41015.11719.17188.17578.17578.17578.23437.11719.17188.17188.35156.05859.23438.23437.40625.23438-.0586-.17578.17578-.0586.92969h-.58203l-.23437-.11328-.34766.11328-.11719.11719-.05859.29297-.0586.17578-.11718.17187-.46484.29297-.0586.23438-.0586.11328v.64453l.0586.17187v.41016l.0586.0586v.40624l.05859.40625.11719.17579.05859.05859.23047.64062-.0586.29297v.69922l-.05859.58203v.23438l-.0586.23047-.05468.35156v1.92187l.05469.1172h.42578l-.36719.11718-.02344.35156.89063 1.16797 1.74219.53906 1.33984.35938v.53906l.08984.8086.53516.71484 1.51953.26953.89063-.08594.08984 1.16406.53516.1797 1.16015-.1797 2.05469-.98437 1.16016-.36328 1.8789-.17578 1.69531-.1797-.17968.71876-1.51563.08594-1.25.08984-.80469.26953-1.07421.8086.26953.71875.53515.89843-.17968.625-.26563.8086.26563 1.07812.625.89844.80468.17969 1.25-.1797-.26562.72267.09766.5039.05468.29297v.17188l.0586.29296v.40625l.17578.1172.35156.11718h.40625l.29297-.17578.11328-.11719.0586-.11719.11718-.23047.0586-.17578.35156-.46484.23047-.17578.17578-.0586.17578.0586.0586.17578.11718.98828.05469.46875.0586.17188.11718.23437.17578.0586.8164.05859h.28907l.11719.23437.05859.40625.0586.35156v1.10547l.11718.29297.11719.34766.28906.69922.17578.35156.58203.7539.35157.17579.17187.0586.46875.23437.64063.46484.34765.23438.29297.17578.29297.05468.23047.0625.8164.34766.29297.17578.11328.17188.35157.35156.11719.17578.52343.64063v.28906l.0586.35156v.34766l.05859.35156.0586.28906.11718.0586.17188.05859h.17578l.58203.23437.17578.1172.17578.28905.17578.23438.11328.23437.29297.23047.11719.11719v.41016l.0586.05468.28906.23438.23437.11719.0586.11718.11718.17188.0586.11719.23047.23437.05859.17578.23437.0586.1172.05859-.1172.11328-.05859.11719v.11719l-.11719.29296-.11719.28907v.58203l.17579.11719.11718.05859.0586.11719.11719.11719.11328.05859.17578.34765.0586.35157.05858.40625v.17578l-.05859.17578-.11719.69922v.17187l.1172.17579.29296.29296h.40625l.17578.1172.11719.17187.11719.29296v.23438h-.52735l-.23047-.23438h-.23437l-.17578.0586-.0586.69922.0586.34765.11719.17579.17578.41015.11718.23047.28907.46875.17578.05469h.52344l.23437.0586.75781.64062.0586.29296v.23438l.05859.0586.23047.34765v.35156l-.11719.17188v.29297l.29297.28906.29297.17578.17187.0586.29297.17577.29297.1172.58203.40624.28906.23438.29297.17578.21875.16015.01563.01172.23047.17579.64062.52343.17578.23438.1172.17578.17577.17578.11328.17188v.64062l.1172.17578.46874.11719.58203.11719.23438.05859.23047.11328.29297.11719.11328.0586.58593.35156.28907.17187.17578.0625.17578.05469.17578.0586.69922.35155.28906.17579.23438.05468.28906.17578.23437.1172.64063.40624.29297.11719.17187.0586.23438.05859.41015.05859.23047.0586.23438.11718.0586.17188-.41017.17578.46875.0586.0586.29296.11328.23438.17578.05468.23438.0586.17578.05859.40625.11719.64062.23437.11719.17188.0586.23437v.17578l-.0586.1172-.0586.40624.23438.23438.11719.05859.34766.11719.64062.23047.17578.11718.28906.1172.17578.17577.23438.46485.58203 1.10546.17578.17579.34766.17578.17578.11719.35156.11718 1.04688.52344.23437.0586.46485.11327.29297.0586.46484.17578.75781.58203.23438.23438.34765.46484.17578.17578.28907.23438.8164.69921.29297.17579.28906.28906.29297.17578.29297.28906.69531.64063.17578.17578.29297.23437.28907.23438.46875.28906.64062.58203.34766.23438.23437.29297.34766.34765.35156.46485.9336.99218.34765.40625.11719.17579.23437.05859.11328.11719.64454.17578.23047.11328.23437.0586.29297.17577.23047.1172.9336.69921.40624.40625.23438.17578.40625.17578.23437.11719.8164.34766.34766.23437.23438.11719.29297.28906.23047.11719.7578.35156.35157.17188.23047.05859.29297.11719.23437.0586.8711.17577h.8164l.46875.23047.17188.0586.875.69921.46484.1172.29297.05858.17578.0586.23047.0586.46875.05859.34766.05859.35156.0586.40625.05859h.29297l.17187.0586v.23046l.17578.17578h.29297l.34766.0586.35156.05859.69922.11719h.64063l.46484-.23438.29297-.17578.17187-.11719.41016-.17187.28906-.17578.9336-.46485.46875-.29297.52343-.29296.46485-.17188.46484-.17578 1.05078-.46485.28906-.11718.41016-.11719.28906-.11719.52735-.17578 1.51562-.69922.58203-.34765.28907-.0586.29297-.0586.34765-.11718.875-.23047.35156-.11719h.11329l.23437-.05859.875-.23437.23438-.0586h.8125l.35156-.0586.8164-.11718.17188-.0586.35156-.05468.29297-.0586.23047-.05859.8164-.17578.17579-.0586h.34765l.23438-.05859.46484-.11718.75781-.17188.23438-.0586h.34765l.41016-.11718.28906-.0586 1.28516-.05859h.28906l.41016-.0586.23047-.05858h.17578l.875-.1172h.40625l.41015-.11718h.34766l.35156-.11328.8711-.0586h1.75l1.04687.28907.41016.11719.28906.11718.35156.11719.28907.11719 1.05078.17187.28906.0586h.29297l.29297.05859.17187.0586.41016.05859.17187.0586.1172.05858h.11718l.11719.0586.35156.0586h.11328l.41016.0664 1.92187.39453 1.92578.39453 1.51953.44922 1.69532.71875 2.14453.80469 1.60547-.71875 1.42968-.80469 1.16016-1.07813 1.25-.44921 3.03516-.71875 1.875-.35938 2.14453-1.34765 2.23437-1.25391 2.5-1.25781 1.69531-.44922 1.78516-.17969 1.16016-.26953.625.53906 1.33984-.26953.71485-.98828.98437-1.34375.44531-.17969.80469-.35937 1.875-.53907 1.78516-.44921 1.25-.26954 1.16015-.08984 1.69922-.08984 1.96094-.26954 1.25-.08984h.53906l.625-.08984h.89063l2.14453-.17969 2.41015-.17969 2.58985-.08984 1.69531.17969 1.60938.08984 1.42968.35938 1.16016.71875 1.875.98828 1.16015 1.52734.26563.71484.6289.08985.35548.89844.53515.53906.53516 1.52734 1.07422.35938h.53515l-.80469.53515.08985 1.70703.71484 2.69532.89063.80468.89453.98829.71484 1.2578 1.78516.53907 1.51953-.17969.35547 1.34375 1.60937-.80469.98047-.53906.26953.26953.31641-.21484.21875-.14453.80078.44922.44922-.35938h.35547l.53515-.26953.53907-.71875.53515-.26953.625-.98828 1.16016.44922.83984.3711 1.39454.61718 1.6953-.17969h1.60548l1.78515.08985.17969-1.70704.53516-1.34375.80468.26954.4922.84765.40233.40625-.08984.53906v.35938l.71485.44922.71093-.26953h1.42969l.35938.98828.4453 1.25781.71485 1.34375 1.25.6289 1.69531.62891.71485-.17969.17969-.53906.98046-.08984.44922.35937.08594 1.25782-.26563.6289-.53515.17969v.53906l.71484.98438.26563.53906.98437.98828.80078 1.07813-.26562.35937-.08985.89844-.625 2.33203-.35546 2.0664-.08985 1.79298-.17969.71875-.08984.53906v1.4375l-.98047 1.88281-.35937 1.70703-.53516.89844-.80469 1.16797-.26562.53906 2.05469 1.2539.08593.35938-.35546.53906-.08985-.17968v.80859l.08985 1.4375-.44532.71484-1.07422.09375-.26562.71485.53515.89844.8047.71875 1.16015.80859 1.33984.26953.44531.35938-.35546.44921-1.78907-.08984-1.25-.44922-.71484-.71875-.625-.08984-.17578 3.58984-.1875 1.3086h89.35937V311.70313h-55.26953v49.08203l.76172.125 3.28906.54296 2.02344 2.83594v2.7539l2.35156.33204 2.34766.33203h4.05078l-1.3789 4.16016-2.02344.70703-2.02344.70312-.54297.34375-2.59375 1.6172-.1875.11718-2.02344-2.07813-.73046-2.74218-2.67188-2.07813-1.375-3.5-.0664-.08203-1.95704-2.67188 2.75-1.41796v-49.08204H294.42187v91.41407l.1172.03125.1328.01172.07422.07421.10547.04688.08985.0586.08593.05859.08985.0586.29687.29687.0586.08984.03125.11719.02734.11719.01563.13671-.03125.1172-.0586.08983-.0586.08594-.04296.10547-.04688.10156-.02734.1211v.14453l.17578.26953.14844.14844.07422.08594.07422.07421.04296.10547.0625.08985.0586.08593.04297.10547.0586.08985.04687.10156.04296.10547.0586.08594.11719.17968.07421.07422.0625.08594.0586.08984.04297.10547.0586.08985.05858.08593.0625.08985.0586.08984.04297.10156.11719.17969.07421.07422.0586.08594.07422.07421.08984.0586.10547.04687h.14844l.1328-.01562.13282.01562.10156-.04687.07422-.07422.04688-.10156-.01563-.13281v-.14844l-.04687-.10547-.02735-.11719-.04687-.10156-.02735-.1211-.04296-.10156-.0625-.08984-.04297-.10156-.04297-.10547-.03125-.11719-.01563-.13281-.01171-.13672.08593-.0586.0586-.08593.12109-.03125.04297.10547.01562.1328v.1172l.0586.10156.0586.08984.08983.0586.14844.14843.0586.08985.04296.10547-.01171.10156.08593.0586.10547.04687.08594.0586.08984.05858.07422.07422-.11719.02735-.10546.04687-.08594.0586-.07422.07421-.0586.08985-.0625.08594-.02734.12109-.04687.10156-.04297.10547-.03125.11719-.01172.13281-.01563.13281v.14844l.02735.11719.04687.10547.04297.10156.0586.08984.07421.07422.08985.0586.07422.07421.08984.0586.0586.08984.04296.10547.04688.10156.11719.03125.1328.01563h.14845l.11718-.03125.10547.04297.04297.10547.04688.10156.02734.1211L299.5 410l.02734.11719.03125.1211.02735.11718.10547.04297.10156.04687.13281-.01562.14844.14844.0625.08593.07422.07422.07031.07422.08984.0625.10547.04297.10156.04297.1172.03125.13671.01562.11719-.03125.07422-.07422.02734-.11718-.01172-.13282-.03125-.12109-.02734-.11719.04297-.10547h.11719l.08984.0625.11719.02735h.14843l.13282.01562h.14843l.13282.01563.1328-.01563h.14845l.1328-.01562.13282-.01172.13672.01172.11719-.02735.13281-.01562.1914-.0586-.05859.17579-.01562.1328-.02735.1211-.01562.13281-.0586.08594-.1328.01563-.10548.04687-.10546.04297-.1172.03125-.11718.02735-.26563.03125h-.14843l-.13281.01562-.07422.07422.05859.08594.14844.14843.11719.1797.07421.0703.08985.0625.08984.0586.08594.0586.08984.05858.10156.04297.10547.0625.10547.04297.08594.0586.10547.04687.10156.04297.17969.11719.0586.08984-.04298.10156-.04687.10547.01562.13281.22266.22266.0586.08985.04296.10156.03125.1211.04297.10155.01563.13282.03125.11718.01171.13672.03125.11719.14844.14844.10156.04297.10547.04296.1172.03125.1328.01563.13672.01563h.11719l.11719-.03125.08984-.0586.04297-.10547.04688-.10156.04296-.10547.03125-.11719.01172-.1328v-.14845l-.01172-.1328-.01562-.13282-.03125-.11719-.04297-.10547-.04688-.10547-.04296-.10156-.04297-.10547-.01563-.13281.01563-.13281.02734-.11719.03125-.11719.02735-.1211.04687-.10155.08984-.0586.08594-.0625.07422-.07422.08984-.05859.22266-.22266.0586-.08593.07421-.07422.11719-.17969.0586-.08594v-.14844l-.07423-.07421-.10156-.04688-.10547-.04297-.10156-.04297-.0586-.08984-.04687-.10547-.02734-.11719.08984-.05859.11719-.03125.10156-.04297.17969-.11719.14844-.14843.01172-.13282-.01172-.10546-.08985-.0586-.1328.01563h-.14845l-.1328.01562-.13282-.01562-.1211-.03125-.08593-.0586-.07422-.07422-.0586-.08984-.0625-.08594-.11718-.17969-.0586-.08593.03125-.1211.08594-.05859.1211-.03125.05859-.08594v-.1211l-.03125-.11718-.0586-.08984-.05859-.08594-.04687-.10547-.02735-.11719-.01562-.1328.0586-.08985.07421-.07422.08984-.0586.1172-.17968.07421-.07422.0586-.08594.14843-.14844.1211-.03125.1328-.01562.13282.01562.07422.07422.04297.10547.01562.13281-.03125.1172-.11719.03124-.1328.01172-.14844.14844-.04297.10547-.04688.10156-.02734.1211-.03125.11718v.14844l.03125.11719.04297.10546.05859.08985.07422.07031.07422.07422.11719.03125.12109.02734.11719-.02734.1328-.01563h.1172l.08984.0586.07422.07422.04687.10546.0586.08594.10156.04688.13281.01562.10547.04297.08594.0586-.01172.10546-.07422.07422-.17969.11719-.05859.08984-.08984.0586-.07032.07422-.07421.07421-.0625.08985-.02735.11719-.01562.1328.01562.13282-.01562.13281v.14844l.01562.13281.02735.1172.03125.12108.07421.07422.08985.0586.08594.0586.08984.05858.11719.03125v.08594l-.10157.04688-.08984.0586-.26563.03124-.11718.02735h-.14844l-.10547.04296-.10156.04688-.0586.08984-.0625.23438-.01171.13281-.03125.1211-.01563.1328v.29298l-.01172.1328.01172.13673.01563.1328.1328.01563.13282.01172.1211.03125.08593.0586.07422.07421.04688.10547.04296.10157.01563.1328v.44532l-.01563.13281v.44532l.03125.26562.02735.11719.01562.13281.03125.11719.08594.21094.03125.26562v.14844l-.03125.11719-.02734.11718-.03125.1211-.02735.11719-.03125.11718-.03125.1211-.01171.1328-.01563.13282.08984.0586.1172-.03125.10155.01562.04688.10547-.03125.26562v.44141l-.04297.10547-.04688.10547-.04296.10156-.04297.10547-.0586.08594-.03125.12109-.04296.11719-.03125.11719-.01563.1328.01563.13282.05859.08984.10547.04688.08594.0586.05859.08593-.01172.13672-.03125.11719-.04297.10156v.44531l-.01562.13281v.14844l-.03125.11719-.04297.10547-.02735.11719-.04687.10546-.04297.10157-.03125.12109-.02734.11719-.03125.13281-.03125.11719-.02735.11719-.04297.10546-.03125.1172-.03125.12108-.01171.13282-.01563.13281v.29688l.02734.11718v.14844l.04688.39844.02734.11719.0586.08984.12109.03125h.14844l.13281-.01563.0586.08985v.11719l-.0586.08984-.08984.0586-.10157.04296-.10546.04688-.08985.05859-.08594.0586-.13671.01562-.1172-.03125-.1328-.01563-.10157.04688-.0625.08594-.01172.13671-.01562.13282-.03125.11719-.02735.11718-.01562.13281-.03125.1211v.29687l.01563.13282.03125.11718v.14844l.01171.13281v.14844l-.02734.11719-.04688.10156-.02734.1211-.03125.11718-.0586.08985-.07421.07421-.10156.04297-.10547.04688-.11719.02734-.1211.03125-.10156-.04687.0586-.08594.10547-.04688.02734-.11718.03125-.11719.02734-.1211.03125-.11718v-.14844l.01563-.13281-.03125-.11719-.04297-.10547-.10547.01563-.07422.07422-.10156.04296-.08984.0625-.07422.07422-.04297.10157-.01563.1328-.03125.1172L304.25 426l-.03125.11719-.02734.11719-.03125.12109-.02735.11719-.03125.11718-.04297.10547-.08984.0586h-.08984l-.1172-.03125-.03124-.08594.01562-.13672-.03125-.11719v-.14844l-.01171-.1328v-.14844l-.0625-.23438-.02735-.1211-.04297-.10156-.04687-.10546-.0586-.08594-.05859-.08985-.04297-.10546-.0625-.08594-.14844-.14844-.0703-.07422-.10548-.04687-.10547-.04297-.10156-.04297-.29687-.29688-.08985-.07421-.08594-.0586-.10546-.04297-.08985-.0625-.08594-.0586-.10546-.04296-.08985-.0586-.08594-.0625-.07421-.0703-.10547-.04688-.08594-.0586-.10547-.04296-.08984-.0625-.10156-.04297-.10547-.04297-.08594-.0586-.10547-.04687-.10547-.04297-.10156-.04687-.08985-.0586-.10156-.04297-.10547-.04296-.08984-.0625-.11719-.02735-.13281-.01562-.13281.01562H299.75l-.13281.01563-.11719-.03125-.08984-.0586-.07422-.07422-.08985-.05859-.10156-.04688h-.14844l-.12109-.02734-.10156-.04297-.07422-.07422-.11719-.17968-.08984-.0586-.10156-.04297-.08985-.0625-.10547-.04296-.08984-.0586-.08594-.0586-.10547-.04687-.0586-.08594-.05858-.08984-.04297-.10547-.04688-.10156-.07422-.07422-.08594-.0586-.07421-.07421-.08985-.0586-.22265-.22265-.04297-.10547-.03125-.26563.10547-.04296h.14453l.10547.04296.07421.07422.08985.0586.08594.0586.10546.04687.08985.05859.14844.14844.0703.07422.14845.14843.0625.08594.07421.07422.08594.0586.07422.07421.08985.0625.08984.0586.08594.05859.26953.17578.10156.04688.10547.04296.10156.04297.04688-.07421.05859-.08594.07422-.07422.07031-.07422.10547.04297.07422.07422.0586.08984.04296.10156.04688.10547.04296.10547.1211.02735.11719-.02735.07421-.08984.04297-.10547.0586-.08985.07422-.07421.10546-.04297.1172-.02735.1328.01172.08985.0586.14844.14843.05859.08985.04297.10547.04687.10156.04297.10547.04297.10156.10547.04688.10547.04296.13281.01563.08594-.0586.0586-.08984.07421-.07422.10547-.04297.11719.02735.10547.04687.10156.04297.10547.04297.10156.04688.17969.11718v.11719l-.01563.13281.01563.13281.01562.13672.0586.08594.10156.04688.1211.02734.11718.03125h.14844l.11719-.03125.05859-.08984.17969-.1172.05859-.08983.07422-.07422.0586-.08594.11718-.17969.17969-.11719.11719.03125.08984.0586.04297.07422-.01563.1328v.1172l.08985.05859h.14843l.13282-.01563.1328-.01171.26563-.03125.10547-.04297.11719-.03125.1211-.02735.07421-.07421.07031-.07422.0625-.08985-.01562-.10547-.04688-.10156-.10156-.04297-.10547-.01562-.11718.02734-.26563.03125h-.14844l-.07421-.07422-.08985-.0586-.11719-.03124-.11718-.02735-.13282-.01562h-.14843l-.13282.01563h-.29687l-.10547-.04688-.14844-.14844-.04297-.10156-.05859-.08984.22266-.22266.08593-.0586.10547-.04296.11719-.03125.13281-.01563.13281.01563.13672.01562.10157.04297.1328-.01172.08985-.0625.10156-.04297.0625-.08984-.04687-.10156-.08984-.0586-.1172-.03125-.10155-.04296-.0586-.08985-.0625-.08984v-.11719l.01563-.13281.10547-.04688.07421-.07031v-.1211l-.08984-.05859-.03125-.11719.08985-.05859.07421-.07422.04297-.10547.0586-.08984.04687-.10156.01563-.13281v-.14844l-.04688-.10547-.04297-.10156-.08984-.0586-.13281-.01562-.10157-.04297-.13671-.01563-.1172-.03125h-.4453l-.13282-.01562-.13281-.01172-.13281-.01563-.11719-.03125h-.14844l-.13281-.01562-.13281-.01172-.26563-.03125-.1211-.04297-.08593-.0586-.07422-.07421v-.14844l.01172-.13281.10547-.04688.10156-.04296.13281-.01563h.15235l.13281-.01562h.29297l.1211.03125.10156.04296.08984.0586.23438.0625.12109-.04688.08984-.05859.10156-.04297.13282-.01562.10547.04296.10156.04688.13281.01172.1211-.02735h.14453l.12109-.03125.11719-.02734.10547-.04687.07421-.07422.08594-.0586.14844-.14843.0586-.08594.04687-.10547.02734-.11719.01563-.10547-.10156-.04296-.08985-.0586-.11719-.03125-.10546-.04297-.08985-.0625-.07422-.08594-.07422-.07421-.10156-.04297-.10547-.04688-.10156-.04297-.0586-.08984-.04687-.10156-.08594-.21094-.0625-.08594-.05859-.08984-.07422-.07422-.08594-.0586h-.26953l-.11719.03126-.08984.05859-.10156.04297-.13281.01562-.10547-.01562-.02735-.11719-.0625-.08984-.11718-.03125-.10157-.04297-.14843-.14844-.03125-.11719-.01563-.10546.07422-.07422.17969-.1172.11719-.02733.11718-.03125.13672.01562.10156.04297.10547.04297.10156.04687.10547.04297.1172.03125.1328.01563.1172.02734.1328.01563.10547-.01563.08985-.0586-.07422-.07421-.10547-.04297-.07422-.07422-.07422-.08984-.14844-.14844-.08593-.0586-.08985-.05859-.07422-.07422-.08984-.0586-.10156-.04687-.1211-.02734-.10156-.04688-.10547-.04296-.11719-.03125-.10156-.04297-.1211-.03125h-.14843l-.11719.03125-.10546.04297-.08594.0625-.17969.11718-.08594.0586-.08984.0586-.10547.04687-.08594.05859-.10547.04297-.10156.04297-.10547.04687-.07422.07422-.05859.08985-.0586.08593-.04687.10547-.0586.08594-.07421.07422-.13281-.01172-.1172-.03125h-.11718l-.07422.07422-.08984.0586-.07422.07421-.08984.0586-.08594.05859-.10547.04687-.10156.04297-.13672.01563-.10156-.04297-.14844-.14844-.10547-.04688h-.08594l-.10547.04688-.10156.04297-.1211.03125-.11718-.03125-.07422-.07422v-.11719l.03125-.1211.07422-.0703.0586-.08985.07421-.07422.11719-.03125.10547-.04296h.29297l.13281-.01563.13672-.01563.10156-.04296.08985-.0586.10156-.04687.08984-.0586.13281-.01171.08985.05859.13281.01172.08984-.0586.08594-.05859.10547-.04297.08984-.0586.08594-.0625.08985-.05859.14843-.14843.0586-.08594.05859-.08985.10547-.04296.13281-.01563.11719.02735.1211.03125.05859-.0586.05859-.08984.03125-.26563.02734-.11719.10547.01172.13281.01563.10157-.04297.08984-.0586.0586-.08984.07421-.07422.0586-.08984.04687-.10156.01172-.13281-.01172-.13282-.04687-.10547-.14844-.14843-.0586-.08985-.05859-.08594-.04297-.10546v-.44532l.01563-.1328v-.14845l.01172-.1328-.0586-.0586-.08984.0586-.10156-.04298-.17969-.11719-.08594-.05859-.0625-.08984-.0586-.08985-.07421-.07421-.08594-.0586-.1211.03125-.10155.01172-.10547.04688-.08594.05859-.10547.04297-.14844.14844-.08984.05859-.08594.0586-.08984.0625-.10547.04296-.13281.01563v-.1211l.10547-.04297.11718-.03125.07422-.0703.04297-.10548v-.14844l-.02734-.11718-.14844-.14844-.13281-.01563h-.14844l-.11719.03125-.10547.04297-.10156.04297-.08984.0625-.11719.02735-.07422-.07422.01172-.13281-.04297-.10157-.04297-.10547-.08984-.05859-.11719.02734-.1211.03125-.11718.03125-.10156.04297-.1211.03125-.10156.04297-.10547.04297-.08984.0586-.10156.01562v-.11719l.01562-.13281-.0586-.08985-.07421.04297-.14844.14844-.0586.08985-.07421.07421-.04688.10547-.04296.10156-.07422.07422-.0586.08985-.07422.07422-.05859.08593-.07422.07422-.08984.0625-.07422.07031-.07422.07422-.10156.01563-.13281.01562-.10547-.04296v-.1211l.14843-.14844.04297-.10156.0586-.08984.04687-.10156.04297-.10547.0586-.08985.03124-.11719.04297-.10156.03125-.1211.02735-.11718.04687-.10547.04297-.10156.04297-.10547.07422-.07031.08984-.0625.08985-.0586.10156-.04296h.29687l.26563-.03125.10547-.04297-.07422-.07422-.11719-.03125-.10547-.04297-.08984-.0586-.10156-.04687-.08985-.0586-.10156-.04296-.10547-.04297-.08984-.0625-.08594-.0586-.10547-.04296-.10156-.04297-.1211-.03125-.11718-.03125-.10157-.04297L297.5 410.25l-.10156-.04297-.08985-.0586-.04296-.10546-.01563-.13281.10156-.04297.13281-.01563.13672.01563.13282-.01563.10156-.04297.0586-.08984.01562-.10547-.08985-.0586-.07421-.07421-.10157-.04297-.08984-.0586-.14844-.14843-.04297-.10547-.01562-.13281v-.29297l-.0586-.08985-.08984-.05859-.07422-.07422-.04297-.10547-.03125-.11718-.0586-.08985-.07421-.07422-.11719-.02734-.07422-.07422-.08984-.0586-.08984-.0625-.08594-.05859-.07422-.07421-.0586-.08594-.04687-.10547-.08594-.0586-.14843-.14843-.19532-.0586-.1328.01563-.10157.04297-.07422.07422-.04688.10156-.04296.10547-.0586.08984-.0586.08594-.29687.29687-.08984.0586h-.08594l-.0625-.08594-.04297-.10547.03125-.11719.0586-.08984.02734-.11719-.01172-.13281-.08984-.0625-.10547.04688-.11719.02734-.11719.03125-.26953.17578-.10156.04688-.11719.02734-.10546.04687-.08985.0586-.10156.04297-.0586-.08594-.04687-.10547.01563-.13281.04687-.10547.07031-.07422.07422-.07031.0586-.08985v-.14843l-.04297-.10547h-.23829l-.10156.04687-.03125.11719-.02734.11719-.03125.1211-.07422.04296-.13281.01563-.07422-.04688-.04297-.10156-.04297-.10547-.04687-.10156-.04297-.10547-.1211.03125-.10156.04297-.13281.01562-.11719.03125-.10547.04297-.08984.0586-.10156.04687-.1211.02734-.13281.01563-.10156-.04297-.0586-.08985-.04687-.10546-.04297-.10157-.04297-.10546v-.1172l.0586-.08984.08593-.05859.17969-.11719.10156-.04687.10547-.04297.10547-.0586.10156-.04296.08985-.0625.10156-.04297.10547-.0586.10156-.04687.08984-.0586.10547-.04296.10156-.04297.08985-.0625.10156-.04297.13672-.01563.11719.03125.10156.04297.1211.03125.10156.04297.10546.04688.10157.04296.10547.04297.10156.04688.10547.04297.10156.04297.10547.04687.08594.0586.10546.04296.1172.03125.10546.04297.10156.04688.08985.0586.10547.04296.10156.04297.10547.04687.11719.02735.10156.04687.1211.02735h.14843l.08594-.0586.01562-.10156.0586-.08984-.02735-.1172-.07422-.07421-.11719-.17969-.07421-.07422-.08985-.07421-.17969-.1172-.08593-.05859-.10547-.04296-.10156-.04688-.26954-.17578-.05859-.08985-.07422-.07421-.0586-.08985-.04296-.10156-.03125-.11719-.01563-.13672v-.5625l-.01171-.1328-.01563-.13282-.03125-.11719-.01562-.13281-.01172-.13281-.03125-.1211-.22266-.22265-.0586-.08594-.01562-.10547.03125-.11719.13281-.01562v-91.41406H172.9922v1.45312l-.0586.23438-.35156 1.05078-.17187.52343-.1172.34766-.17577.41016-.11719.17187-.23438.29297-.23046.0586h-.35157l-.11718.05859-.23047.40625v.29297l.11719.17578.23046.23047.1172.23437.64062.75781.29297.46485.17578.23437.23047.35156.23437.34766.64063.8164.17578.46485.17187.41016.11719.69531.17578.46875.11719 1.39844.0586.46484v.875l.11718 1.04688v4.78125l-.0586.46484-.35156 1.28125-.17578.52344-.11328.41015-.35156.9297L172.93359 336l-.23437.58203-.11719.17578-.17187.34766-.17578.40625-.35157.8164-.0586.29297-.11327.29297-.11719.28906-.0586.17579-.11718.875-.0586.40625-.05859.11718-.0586.17579-.05859.17187-.23047.52734-.11718.17188v.23437l-.11719.23438-.0586.17187-.17577.58594v.28906l-.0586.17579v.29296l-.0586.11329-.05859.52734v.17187l-.05468.23438v2.6211l-.17578.8164-.1172.17578-.17577.23438-.1172.17187-.11327.23438-.58594.93359-.23047.28906-.29297.46485-.17578.23437-.28906.35156-.35156.69922-.11328.23047-.17579.41016-.17578.23046-.40625.52735-.8164.69922-.29297.17187-.28906.23438-.17579.11719-.17578.17578-.52344.40625-.52734.17578-.17187.17578-.23438.05469-.64062.17578h-.75782m12.21094 31.02344l-1.07422.44921.35938.89454 1.25-.71485.44531-.53906-.98047-.08985"/><path fill="#d3d3d3" fill-opacity="0" fill-rule="evenodd" d="M201.50781 416.59766h-.89453l.44922.6289.98047.35938.80469-.08985.4453-.98828-.17577.08985-.71485-.35547-.89453.35547m154.6211 59.0703l-.0586-.52343v-.29297l.11328-.29297.0586-.23046.46875-.46875h.11328l.11719-.11329.11718-.05859h.17579l.23437-.0586h.34766l.23437.0586.11719.0586.23047.17187.0586.17578.11718.58203v.29297l-.11719.17578-.17187.28906-.17579.17579-.52734.52343-.23047.23438-.11719.0586h-.17578l-.11718-.0586-.40625-.29297-.17579-.11719-.11718-.0586-.0586-.11327-.05468-.1172m6.64062-10.95702l-.0586-.17188v-1.10937l.0586-.17188.17578-.0586.17188-.05858h.17578l.23437-.0586.1172.0586.05858.69921-.05859.17188-.11719.17578-.11718.0586-.23438.52343-.11328.0586h-.23438l-.05859-.1172m9.61328-14.39062l-.11719-.17578v-.69922l.29297-.875.1172-.17187.17577-.35156.11328-.23047.1172-.29297.35155-.75781.1172-.23047.17187-.23438h.17578l.11719-.0586h.64062l.11719.0586.23437.23438.17188.11328.35156.29297.11719.11718.11328.17579v.11328l.11719.05859.11718.11719v.69922l-.05859.17578v.23047l-.0586.17578-.34765 1.05078-.11719.23047-.11719.23437-.11718.0586-.23047.23437-.64063.28906h-.875l-.41015-.11718-.64063-.46485"/><path fill="none" stroke="#bebebe" stroke-linecap="round" stroke-linejoin="round" stroke-miterlimit="10" stroke-width=".5" d="M467.95703 311.69531H144.02734v168.625h323.9297v-168.625"/><g clip-path="url(#a)"><path fill="#fff" fill-opacity="0" fill-rule="evenodd" d="M144 475.89063v4.2539-168.47265h.0039H144v164.21875"/></g><g clip-path="url(#b)"><path fill="#50fcfc" fill-rule="evenodd" d="M144.0039 480.32813v-.1797l.08204.1797h-.08203"/></g><g clip-path="url(#c)"><path fill="#fff" fill-opacity="0" fill-rule="evenodd" d="M144.0039 480.14844V311.67188h71.01173v109.30468l-1.23829 1.65235 1.23828 1.77734.94532 2.66406 3.49219 3.23828 4.4375.44922.78515.75 3.65234 2.6875 1.63672 1.75 2.80078 3.0039 2.82032 1.4336-2.82031 3.46094-2.44922.97656-1.98828 1.08203-2.35547-1.08203-2.08203-1.21094-4.4375-.97265-4.13282 2.1836-.30469.16015-.49218-.16016-3.60156-4.4375 3.2578-4.4375-3.60546-1.52344-4.4375-1.60156-3.05469-1.3125-1.38281-.89844-2.07031-3.53906-2.3672-4.03515-4.4414.48828-4.4375 2.03906-3.53906 1.50781-.89844.25-4.4375 1.10938-3.76172 3.07812-.67968.4336-4.4375 1.14453-3.21875 2.85937-1.21875.45313-4.4375.78515-3.60547 3.19922-.83203 4.38281-.04297.0547-3.07422 4.4414-1.32422 3.26562-1.78516 1.17188 1.78516 3.7461.08984.6914 1.4922 4.4375 2.85937 2.05469 4.4375.72656 4.4375-.7461 4.4375.28516 4.4375-.22265 4.4414-.32813 4.4375-1.66797.14453-.10156 4.29297-1.80078 4.4375-.19531 4.4414-.87891 4.4375-.69531 2.80079-.8672 1.63672-.28124 4.4375-.77735 4.4414-.3789 4.4375-2.1211 4.4375-.58203 2.04688-.29687 2.39063-.66406 4.4375-3.69532.21484-.07812 4.22656-2.03906 2.70313-2.40235 1.73437-.57812 4.4375-2.8789.96484-.98048-.96484-.9961-4.4375-2.62108-1.48828-.82032-2.94922-2.26953-3.78906-2.16797-.65234-.69922-3.44922-3.73828-.98828-1.8086-4.22266-2.6328-.21484-.08594-.38672.08594-4.05078.25-1.09375-.25-3.34375-1.65235V311.67187h44.3828v122.8672l-1.53124 1.40624 1.53125.8789.83203-.8789-.83203-1.40625V311.67187h115.39453v135.4961l-2.0625 2.09375 2.0625 2.0586 2.16797-2.0586-2.16797-2.09375v-135.4961h13.3164v145.98047l-.5.48438-3.46875 4.4375 3.96875 3.6289 3.58594-3.6289-1.39844-4.4375-2.1875-.48438V311.67188h79.88672v168.65625h-32.15625l-3.34765-3.3672-3.29688 3.3672H144.08594l-.08203-.1797"/></g><path fill="#50fcfc" fill-rule="evenodd" d="M152.875 457.44531l-1.78516-3.7461 1.78516-1.17187 1.32422-3.26562 3.07422-4.4414.04297-.0547.83203-4.3828 3.60547-3.19923 4.4375-.78515 1.21875-.45313 3.21875-2.85937 4.4375-1.14453.67968-.4336 3.76172-3.07812 4.4375-1.10938v2.9961l-4.4375.60156-.72265.58984-3.71875 2.39453-4.4375 1.70313-.38282.33984-4.05468 1.50781-4.4375 1.6172-1.48047 1.3125-2.30469 4.4375-.42578 4.4414-.22656 2.36719-.83985 2.0703.58203 4.4375.25782.44923 4.4375 3.96094 4.4375-.57813 4.4375.14844 4.4375-.2461 4.4414-1.19921 4.4375-1.73829 1.63281-.79687 2.8047-1.36328 4.4375.10547 4.4414-1.04297 4.4375-1.39844 4.4375.41016 4.4375-.53125 3.28516-.6172-3.28516-1.97655-4.4375-.4297-4.4375 1.375-4.00781-3.40624-.4297-1.91797-.5703-2.52344.5703-.85156 2.11329-3.58594-2.11328-2.6836-.88672-1.7539-3.55469-4.0625-2.25-.375-2.1875-.46875-4.4375-.72265v-2.9961l.89844-.25 3.53906-1.50781 4.4375-2.03906 4.4414-.48828 2.3672 4.03515 2.0703 3.53906 1.38282.89844 3.05469 1.3125V439.5l-.57422.88281.57422 4.07813 3.67187-4.07813-3.67187-.88281v-6.67969l4.4375 1.60156 3.60547 1.52344-3.25781 4.4375 3.60156 4.4375.49219.16016.30468-.16016 4.13281-2.1836 4.4375.97267 2.08204 1.21093 2.35547 1.08203 1.98828-1.08203 2.44922-.97656 2.8203-3.46094-2.8203-1.4336-2.80079-3.0039-1.63672-1.75-3.65234-2.6875-.78516-.75-4.4375-.44922-3.49218-3.23828-.94531-2.66406-1.23829-1.77734 1.23828-1.65235 3.34375 1.65235 1.09375.25v3.45312l-.61328.73828.61328.5664 2.57813-.5664-2.57813-.73828v-3.45312l4.05079-.25.38672-.08594.21484.08594 4.22266 2.6328.98828 1.8086 3.44922 3.73828.65234.69922 3.78906 2.16797 2.94922 2.26953 1.48828.82031 4.4375 2.6211.96484.9961-.96484.98046-4.4375 2.8789-1.73437.57813-2.70313 2.40235-4.22656 2.03906-.21484.07812-4.4375 3.69532-2.39063.66406-2.04688.29687-4.4375.58204-4.4375 2.12109-4.4414.3789-4.4375.77735-1.63672.28125-2.80078.86719-4.4375.6953-4.4414.87892-4.4375.1953-4.29298 1.80079-.14453.10156-4.4375 1.66797-4.4414.32813-4.4375.22265-4.4375-.28515-4.4375.74609-4.4375-.72656-2.85938-2.0547-1.49219-4.4375-.08984-.6914"/><path fill="#00e8fc" fill-rule="evenodd" d="M157.0586 458.13672l-.58204-4.4375.83985-2.07031.22656-2.3672.42578-4.4414 2.30469-4.4375 1.48047-1.3125 4.4375-1.61719 4.05468-1.5078.38282-.33985 4.4375-1.70313 3.71875-2.39453.72265-.58984v5.1211l-4.4414 2.82812-4.4375.91406-4.4375-.57422-2.3711 1.17578-2.0664.85156-2.69141 3.58594.08984 4.4414-.1914 4.4375.6836 4.4375 2.10937 2.0547 4.4375-.2422 4.4375-.05077 4.4375-.53906 2.16015-1.22266-2.16015-2.5-1.2422-1.9375 1.2422-2.96485 4.4414-.01171 4.4375 2.49218 1.14063-3.95312 3.29687-3.30469.78516-1.13672-.78516-1.96875-3.67187-2.46875-.76563-.2539-4.4375-4.08985v-5.1211l4.4375-.60155 4.4375.72265 2.1875.46875 2.25.375 3.55469 4.0625.88672 1.7539 2.11328 2.6836-2.11328 3.58594-.57031.85156.5703 2.52344.4297 1.91797 4.0078 3.40625 4.4375-1.375 4.4375.42969 3.28517 1.97656-3.28516.61719-4.4375.53125-4.4375-.41016-4.4375 1.39844-4.4414 1.04297-4.4375-.10547-2.8047 1.36328-1.6328.79687-4.4375 1.73829-4.44141 1.19921-4.4375.2461-4.4375-.14844-4.4375.57813-4.4375-3.96094-.25782-.44922"/><path fill="#00d4fc" fill-rule="evenodd" d="M159.64453 458.13672l-.6836-4.4375.19141-4.4375-.08984-4.4414 2.6914-3.58594v1.46093l-1.59374 2.125.60156 4.4414.07812 4.4375.91407 3.50782 3.71875-3.50781-.89453-4.4375 1.61328-2.85547 3.70312-1.58594-3.70312-1.64844-4.4375-.47656v-1.46094l2.0664-.85156 2.3711-1.17578 4.4375.57422 4.4375-.91406 4.4414-2.82813 4.4375 4.08985.76563.2539 3.67187 2.46875.78516 1.96875-.78516 1.13672-3.29687 3.30469-1.14063 3.95312-4.4375-2.49218-4.4414.01171-1.2422 2.96485 1.2422 1.9375 2.16015 2.5-2.16015 1.22265-4.4375.53907-4.4375.05078-4.4375.24219-2.10938-2.0547"/><path fill="#00c4fc" fill-rule="evenodd" d="M160.76172 449.26172l-.60156-4.4414 1.59375-2.125v1.46093l-.5.66406.5 2.40625 1.60547-2.40625-1.60547-.66406v-1.46094l4.4375.47656 3.70312 1.64844-3.70312 1.58594-1.61328 2.85547.89453 4.4375-3.71875 3.50781-.91407-3.50781-.07812-4.4375"/><path fill="#00b8fc" fill-rule="evenodd" d="M161.7539 447.22656l-.5-2.40625.5-.66406 1.60548.66406-1.60547 2.40625"/><path fill="#fff" fill-opacity="0" fill-rule="evenodd" d="M206.13672 439.5l-.57422.88281.57422 4.07813 3.67187-4.07813-3.67187-.88281"/><path fill="#00e8fc" fill-rule="evenodd" d="M219.45313 427.63672l-.61329-.5664.61328-.73829 2.57813.73828-2.57813.5664"/><path fill="#50fcfc" fill-rule="evenodd" d="M259.39844 436.82422l-1.53125-.8789 1.53125-1.40626.83203 1.40625-.83203.8789m115.39453 14.4961l-2.0625-2.0586 2.0625-2.09374 2.16797 2.09375-2.16797 2.0586m13.3164 14.8828l-3.96875-3.6289 3.46875-4.4375.5-.48438v2.23047l-2.33203 2.6914 2.33204 2.13282 2.10937-2.13281-2.10938-2.6914v-2.23048l2.1875.48438 1.39844 4.4375-3.58594 3.6289"/><path fill="#00e8fc" fill-rule="evenodd" d="M388.10938 464.70703l-2.33204-2.13281 2.33204-2.6914 2.10937 2.6914-2.10938 2.13281"/><g clip-path="url(#d)"><path fill="#50fcfc" fill-rule="evenodd" d="M429.19531 480.32813h1.71094l1.58594-1.6172 1.60937 1.6172h1.73828l-3.34765-3.3672-3.29688 3.3672"/></g><g clip-path="url(#e)"><path fill="#00e8fc" fill-rule="evenodd" d="M430.90625 480.32813l1.58594-1.6172 1.60937 1.6172h-3.19531"/></g><g clip-path="url(#f)"><path fill="#fff" fill-opacity="0" fill-rule="evenodd" d="M467.9961 480.32813H468V311.67188h-.0039H468v168.65625h-.0039"/></g><path fill="#fff" fill-opacity="0" fill-rule="evenodd" d="M223.91406 436.90234l3.98828 4.26954 7.28125-6.80079-3.98828-4.26953-7.28125 6.80078"/><path fill-rule="evenodd" d="M232.2461 433.91016l.34374.37109-4.59765 4.29688-.53906-.57422 3.28125-3.0625-.94532-1.01563.40625-.3789.42969.36328.21094.14843.21875.10547.2461.05469.26952-.01953.3125-.09766.36328-.1914"/><path fill="#fff" fill-opacity="0" fill-rule="evenodd" d="M163.02734 469.85156l5.83203-.30078-.51171-9.94922-5.83203.30078.51171 9.94922"/><path fill-rule="evenodd" d="M166.10547 461.55469l.50781-.02735.32422 6.28516-.78516.04297-.23437-4.48438-1.38672.07032-.02734-.5547.55468-.09374.25-.0664.22657-.10157.1953-.15234.16017-.21875.1289-.30079.08594-.39843"/><g clip-path="url(#g)"><path fill="none" stroke="#000" stroke-linecap="round" stroke-linejoin="round" stroke-miterlimit="10" stroke-width=".5" d="M147.51172 480.39453l-7.02344-.13281"/></g><g clip-path="url(#h)"><path fill="none" stroke="#000" stroke-linecap="round" stroke-linejoin="round" stroke-miterlimit="10" stroke-width=".5" d="M147.51172 480.39453l1.11328 2.1875"/></g><g clip-path="url(#i)"><path fill="none" stroke="#000" stroke-linecap="round" stroke-linejoin="round" stroke-miterlimit="10" stroke-width=".5" d="M146.49219 480.375l.55469 1.09375"/></g><g clip-path="url(#j)"><path fill="none" stroke="#000" stroke-linecap="round" stroke-linejoin="round" stroke-miterlimit="10" stroke-width=".5" d="M160.8164 480.60938l-7.0039-.5625"/></g><g clip-path="url(#k)"><path fill="none" stroke="#000" stroke-linecap="round" stroke-linejoin="round" stroke-miterlimit="10" stroke-width=".5" d="M160.8164 480.60938l.97657 2.2539"/></g><g clip-path="url(#l)"><path fill="none" stroke="#000" stroke-linecap="round" stroke-linejoin="round" stroke-miterlimit="10" stroke-width=".5" d="M159.79688 480.52734l.48828 1.125"/></g><g clip-path="url(#m)"><path fill="none" stroke="#000" stroke-linecap="round" stroke-linejoin="round" stroke-miterlimit="10" stroke-width=".5" d="M174.14063 480.48828l-7.01954-.3164"/></g><g clip-path="url(#n)"><path fill="none" stroke="#000" stroke-linecap="round" stroke-linejoin="round" stroke-miterlimit="10" stroke-width=".5" d="M174.14063 480.48828l1.05468 2.21485"/></g><g clip-path="url(#o)"><path fill="none" stroke="#000" stroke-linecap="round" stroke-linejoin="round" stroke-miterlimit="10" stroke-width=".5" d="M173.11719 480.4414l.52734 1.10938"/></g><g clip-path="url(#p)"><path fill="none" stroke="#000" stroke-linecap="round" stroke-linejoin="round" stroke-miterlimit="10" stroke-width=".5" d="M187.45703 480.42188l-7.02344-.1836"/></g><g clip-path="url(#q)"><path fill="none" stroke="#000" stroke-linecap="round" stroke-linejoin="round" stroke-miterlimit="10" stroke-width=".5" d="M187.45703 480.42188l1.09375 2.1953"/></g><g clip-path="url(#r)"><path fill="none" stroke="#000" stroke-linecap="round" stroke-linejoin="round" stroke-miterlimit="10" stroke-width=".5" d="M186.4336 480.39453l.55077 1.09766"/></g><g clip-path="url(#s)"><path fill="none" stroke="#000" stroke-linecap="round" stroke-linejoin="round" stroke-miterlimit="10" stroke-width=".5" d="M200.77344 480.3164l-7.02735.02344"/></g><g clip-path="url(#t)"><path fill="none" stroke="#000" stroke-linecap="round" stroke-linejoin="round" stroke-miterlimit="10" stroke-width=".5" d="M200.77344 480.3164l1.16015 2.16407"/></g><g clip-path="url(#u)"><path fill="none" stroke="#000" stroke-linecap="round" stroke-linejoin="round" stroke-miterlimit="10" stroke-width=".5" d="M214.07813 480.05469l-7.00391.55078"/></g><g clip-path="url(#v)"><path fill="none" stroke="#000" stroke-linecap="round" stroke-linejoin="round" stroke-miterlimit="10" stroke-width=".5" d="M214.07813 480.05469l1.3164 2.07031"/></g><g clip-path="url(#w)"><path fill="none" stroke="#000" stroke-linecap="round" stroke-linejoin="round" stroke-miterlimit="10" stroke-width=".5" d="M213.0586 480.13281l.66015 1.03516"/></g><g clip-path="url(#x)"><path fill="none" stroke="#000" stroke-linecap="round" stroke-linejoin="round" stroke-miterlimit="10" stroke-width=".5" d="M227.40234 480.1914l-7.02343.27735"/></g><g clip-path="url(#y)"><path fill="none" stroke="#000" stroke-linecap="round" stroke-linejoin="round" stroke-miterlimit="10" stroke-width=".5" d="M227.40234 480.1914l1.23438 2.1172"/></g><g clip-path="url(#z)"><path fill="none" stroke="#000" stroke-linecap="round" stroke-linejoin="round" stroke-miterlimit="10" stroke-width=".5" d="M226.3789 480.23047l.6172 1.0586"/></g><g clip-path="url(#A)"><path fill="none" stroke="#000" stroke-linecap="round" stroke-linejoin="round" stroke-miterlimit="10" stroke-width=".5" d="M240.70313 480l-6.9961.65625"/></g><g clip-path="url(#B)"><path fill="none" stroke="#000" stroke-linecap="round" stroke-linejoin="round" stroke-miterlimit="10" stroke-width=".5" d="M240.70313 480l1.35156 2.04688"/></g><g clip-path="url(#C)"><path fill="none" stroke="#000" stroke-linecap="round" stroke-linejoin="round" stroke-miterlimit="10" stroke-width=".5" d="M239.6875 480.09375l.67188 1.02734"/></g><g clip-path="url(#D)"><path fill="none" stroke="#000" stroke-linecap="round" stroke-linejoin="round" stroke-miterlimit="10" stroke-width=".5" d="M253.98828 479.7539l-6.9336 1.14844"/></g><g clip-path="url(#E)"><path fill="none" stroke="#000" stroke-linecap="round" stroke-linejoin="round" stroke-miterlimit="10" stroke-width=".5" d="M253.98828 479.7539l1.48828 1.94923"/></g><g clip-path="url(#F)"><path fill="none" stroke="#000" stroke-linecap="round" stroke-linejoin="round" stroke-miterlimit="10" stroke-width=".5" d="M267.29297 479.69531l-6.91406 1.26563"/></g><g clip-path="url(#G)"><path fill="none" stroke="#000" stroke-linecap="round" stroke-linejoin="round" stroke-miterlimit="10" stroke-width=".5" d="M267.29297 479.69531l1.52344 1.92578"/></g><g clip-path="url(#H)"><path fill="none" stroke="#000" stroke-linecap="round" stroke-linejoin="round" stroke-miterlimit="10" stroke-width=".5" d="M280.66406 480.27344l-7.02734.11328"/></g><g clip-path="url(#I)"><path fill="none" stroke="#000" stroke-linecap="round" stroke-linejoin="round" stroke-miterlimit="10" stroke-width=".5" d="M280.66406 480.27344l1.1875 2.14453"/></g><g clip-path="url(#J)"><path fill="none" stroke="#000" stroke-linecap="round" stroke-linejoin="round" stroke-miterlimit="10" stroke-width=".5" d="M293.98047 480.26563l-7.02735.125"/></g><g clip-path="url(#K)"><path fill="none" stroke="#000" stroke-linecap="round" stroke-linejoin="round" stroke-miterlimit="10" stroke-width=".5" d="M293.98047 480.26563l1.1875 2.14453"/></g><g clip-path="url(#L)"><path fill="none" stroke="#000" stroke-linecap="round" stroke-linejoin="round" stroke-miterlimit="10" stroke-width=".5" d="M307.28516 480.58203l-7.00782-.50781"/></g><g clip-path="url(#M)"><path fill="none" stroke="#000" stroke-linecap="round" stroke-linejoin="round" stroke-miterlimit="10" stroke-width=".5" d="M306.26563 480.50781l.49609 1.1211"/></g><g clip-path="url(#N)"><path fill="none" stroke="#000" stroke-linecap="round" stroke-linejoin="round" stroke-miterlimit="10" stroke-width=".5" d="M320.58594 480.72656l-6.98047-.79687"/></g><g clip-path="url(#O)"><path fill="none" stroke="#000" stroke-linecap="round" stroke-linejoin="round" stroke-miterlimit="10" stroke-width=".5" d="M319.57031 480.61328l.44922 1.14063"/></g><g clip-path="url(#P)"><path fill="none" stroke="#000" stroke-linecap="round" stroke-linejoin="round" stroke-miterlimit="10" stroke-width=".5" d="M333.90234 480.72266l-6.98437-.78907"/></g><g clip-path="url(#Q)"><path fill="none" stroke="#000" stroke-linecap="round" stroke-linejoin="round" stroke-miterlimit="10" stroke-width=".5" d="M332.88672 480.60938l.44922 1.14062"/></g><g clip-path="url(#R)"><path fill="none" stroke="#000" stroke-linecap="round" stroke-linejoin="round" stroke-miterlimit="10" stroke-width=".5" d="M347.16797 479.61328l-6.88281 1.42969"/></g><g clip-path="url(#S)"><path fill="none" stroke="#000" stroke-linecap="round" stroke-linejoin="round" stroke-miterlimit="10" stroke-width=".5" d="M346.16406 479.82422l.78516.9414"/></g><g clip-path="url(#T)"><path fill="none" stroke="#000" stroke-linecap="round" stroke-linejoin="round" stroke-miterlimit="10" stroke-width=".5" d="M360.48828 479.65234l-6.89453 1.35157"/></g><g clip-path="url(#U)"><path fill="none" stroke="#000" stroke-linecap="round" stroke-linejoin="round" stroke-miterlimit="10" stroke-width=".5" d="M359.48438 479.85156l.77343.94922"/></g><g clip-path="url(#V)"><path fill="none" stroke="#000" stroke-linecap="round" stroke-linejoin="round" stroke-miterlimit="10" stroke-width=".5" d="M373.78906 479.58594l-6.86719 1.48828"/></g><g clip-path="url(#W)"><path fill="none" stroke="#000" stroke-linecap="round" stroke-linejoin="round" stroke-miterlimit="10" stroke-width=".5" d="M372.78906 479.80078l.79297.9375"/></g><g clip-path="url(#X)"><path fill="none" stroke="#000" stroke-linecap="round" stroke-linejoin="round" stroke-miterlimit="10" stroke-width=".5" d="M386.88281 481.7539l-6.42187-2.84765"/></g><g clip-path="url(#Y)"><path fill="none" stroke="#000" stroke-linecap="round" stroke-linejoin="round" stroke-miterlimit="10" stroke-width=".5" d="M398.85547 483.30469l-3.73828-5.94922"/></g><g clip-path="url(#Z)"><path fill="none" stroke="#000" stroke-linecap="round" stroke-linejoin="round" stroke-miterlimit="10" stroke-width=".5" d="M413.21484 482.29297l-5.82421-3.92969"/></g><g clip-path="url(#aa)"><path fill="none" stroke="#000" stroke-linecap="round" stroke-linejoin="round" stroke-miterlimit="10" stroke-width=".5" d="M427.03906 481.11719l-6.84765-1.57422"/></g><g clip-path="url(#ab)"><path fill="none" stroke="#000" stroke-linecap="round" stroke-linejoin="round" stroke-miterlimit="10" stroke-width=".5" d="M427.03906 481.11719l.64063 2.36719"/></g><g clip-path="url(#ac)"><path fill="none" stroke="#000" stroke-linecap="round" stroke-linejoin="round" stroke-miterlimit="10" stroke-width=".5" d="M440.28906 481.36719l-6.71484-2.07813"/></g><g clip-path="url(#ad)"><path fill="none" stroke="#000" stroke-linecap="round" stroke-linejoin="round" stroke-miterlimit="10" stroke-width=".5" d="M452.35156 483.14063l-4.21094-5.625"/></g><g clip-path="url(#ae)"><path fill="none" stroke="#000" stroke-linecap="round" stroke-linejoin="round" stroke-miterlimit="10" stroke-width=".5" d="M464.14453 483.79297l-1.16797-6.92969"/></g><g clip-path="url(#af)"><path fill="none" stroke="#000" stroke-linecap="round" stroke-linejoin="round" stroke-miterlimit="10" stroke-width=".5" d="M147.51172 467.03516l-7.02344-.04297"/></g><path fill="none" stroke="#000" stroke-linecap="round" stroke-linejoin="round" stroke-miterlimit="10" stroke-width=".5" d="M147.51172 467.03516l1.14062 2.17187m-2.16015-2.17969l.57031 1.08594m13.76172-.91406l-7.01953-.3711m7.01953.3711l1.03516 2.22265m-2.0547-2.27734l.51563 1.11328m13.82031-1.14843l-7.02343-.19141m7.02344.1914l1.09375 2.19532m-2.11329-2.22266l.54688 1.09766m13.78906-1.23438l-7.02344.13672m7.02344-.13672l1.19531 2.14453m-2.21484-2.125l.59375 1.07032m13.71875-1.44532l-6.97656.84766m6.97656-.84766l1.40234 2.01172m-2.41797-1.89062l.70313 1.00781m13.54688-1.5586l-6.81641 1.70704m6.8164-1.70703l1.64454 1.8203m-2.63672-1.57421l.82031.91406m13.44922-1.29297L220.51953 468m6.74219-1.97266l1.71484 1.75782m-2.69531-1.46875l.85547.8789m13.45312-1.125l-6.76953 1.88672m6.76953-1.88672l1.69141 1.77344m-2.67578-1.5l.84375.88672m13.47656-1.07813l-6.8125 1.72266m6.8125-1.72266l1.64844 1.81641m-2.63672-1.5664l.82031.91015m13.44531-1.30078l-6.73437 2.0039m6.73438-2.0039l1.72265 1.7461m-2.70312-1.45313l.86328.8711m13.44922-1.10548l-6.76953 1.88672m6.76953-1.88672l1.6914 1.77735m-2.67578-1.50391l.84375.89063m13.41016-1.31641l-6.67578 2.1914m6.67578-2.1914l1.76953 1.69531m11.52734-1.75l-6.64062 2.30078m6.64062-2.30078l1.79688 1.67188m11.53906-1.61329l-6.67969 2.1836m5.70703-1.86328l.88282.84765m13.07422-1.8828l-6.02344 3.61327m5.14844-3.08984l1.05078.63281m12.52734-1.91797l-4.79687 5.13672m4.79687-5.13672l2.3711.64063m10.97265-.61328l-4.85547 5.08203m4.14844-4.33985l1.1836.33203m12.11718-1.60546l-3.41406 6.14453m2.91797-5.25l1.22656.02343m9.70312-1.15625l2.35157 6.6211m13.76562-.19531l-3.2539-6.23047m2.77734 5.32422l-.6914 1.01171m15.97656-1.60546l-6.23829-3.23047m5.32813 2.76172l.01562 1.22656M427 466.07032l-6.76953 1.88671m5.78516-1.61328l.84765.89062m13.23438 1.30079l-6.33594-3.04297m5.41406 2.59765l.05078 1.22657m12.9375.64062l-3.83593-5.88672m3.27734 5.03125l-.59375 1.07422m12.91016.33203l-.71875-6.98828m.71875 6.98828l-2.03907 1.36719"/><g clip-path="url(#ag)"><path fill="none" stroke="#000" stroke-linecap="round" stroke-linejoin="round" stroke-miterlimit="10" stroke-width=".5" d="M147.51172 453.75781l-7.02344-.11719"/></g><path fill="none" stroke="#000" stroke-linecap="round" stroke-linejoin="round" stroke-miterlimit="10" stroke-width=".5" d="M147.51172 453.75781l1.11719 2.1836m12.17968-1.85547l-6.98437-.77344m6.98437.77344l.90625 2.27734m12.42578-2.76562l-7.02343.19922m7.02344-.19922l1.21484 2.1328m12.10156-1.8828l-7.02344-.29688m6 .2539l.53125 1.10548m13.72266-1.98828l-6.85156 1.55468m5.85547-1.32812l.80078.92578m13.23437-1.92969l-6.30078 3.10938m5.38281-2.65625l.9961.71484m13.33594-.94531l-6.50391 2.66015m6.5039-2.66015l1.88672 1.57031m11.10157-2.1875l-5.84766 3.89453m5.84766-3.89453l2.16015 1.16797m11.10547-1.24219l-5.7461 4.04297m5.7461-4.04297l2.1875 1.10938m10.97656-1.3047l-5.4453 4.4375m5.4453-4.4375l2.26172.94923m-3.05469-.30469l1.13282.47656m13.19531-.82031l-5.88672 3.83594m5.88672-3.83594l2.14844 1.1836m-3.0039-.625l1.07421.58984m13.11719-1.11719l-5.92578 3.77344m5.92578-3.77344l2.13672 1.20703m-3-.66016l1.0664.60547m13.10547-1.16015l-5.91406 3.78906m5.91406-3.78906l2.14063 1.20312m-3-.65234l1.0703.60156m12.71485-1.65625l-5.13672 4.79688m5.13672-4.79688l2.32031.79688M318.91797 452l1.16015.39844m12.90625-1.08985l-5.14843 4.78125m5.14843-4.78125l2.32032.80078m-3.07032-.10546l1.16016.40234m13.04688-.9375l-5.4297 4.46094m5.4297-4.46094l2.26562.9414m-3.05469-.29296l1.13282.47265m12.73437-1.3828l-4.95703 4.98437m4.95703-4.98438l2.34766.71094m-3.07032.01562l1.17579.35547m12.35546-1.5l-3.9453 5.8164m3.9453-5.8164l2.4375.26172m-3.01171.58594l1.21875.13281m9.72265-1.44531l1.94922 6.75m-1.94922-6.75l1.76172-1.70703m9.41016 3.46093l6.23828 3.2422m-5.32813-2.76954l-.01172-1.22656m14.01172 5.54297l3.04688-6.33594m-2.60156 5.41406l-1.22657.04688M425 450.46875l-2.76563 6.46094m2.36329-5.52344l1.22265-.10156m14.54688 1.65234l-6.8711 1.48438m5.8711-1.26954l.78906.9375m7.03516 1.32422l6.10937-3.47265m11.57422 4.9961l-2.625-6.51563m2.625 6.51562l-1.57813 1.8789"/><g clip-path="url(#ah)"><path fill="none" stroke="#000" stroke-linecap="round" stroke-linejoin="round" stroke-miterlimit="10" stroke-width=".5" d="M147.4961 440.02344l-6.9922.71875"/></g><path fill="none" stroke="#000" stroke-linecap="round" stroke-linejoin="round" stroke-miterlimit="10" stroke-width=".5" d="M147.4961 440.02344l1.36718 2.03906m11.92188-2.21875l-6.94141 1.07813m6.9414-1.07813l1.47266 1.96484m11.875-1.1289l-7.0039-.59375m5.98437.50781l.48047 1.1289m13.85938-1.55078l-7.01563.42579m5.9961-.36329l.63671 1.04688m13.69922-1.09766l-7.01562.39844m5.99218-.33984l.63672 1.05078m13.58203-1.83594l-6.77734 1.85156m6.77734-1.85156l1.6836 1.78906m11.41797-2.36328l-6.35157 3.0039m6.35157-3.0039l1.96875 1.46485m11.39062-1.3711l-6.4414 2.8125m5.5039-2.40234l.96094.76172m12.45312-2.34766l-4.76172 5.16797m4.76172-5.16797l2.3711.6211m11.08203-.48438l-5.04297 4.89062m5.04297-4.89062l2.33594.7539m10.9453-.79296l-4.96874 4.96875m4.96875-4.96875l2.34375.71875m-3.0664.0039l1.17187.35938m13.16015-.74219l-5.5625 4.28906m5.5625-4.28906l2.23828 1.01172m11.02735-1.07422l-5.46485 4.41797m5.46485-4.41797l2.25781.96094m-3.05078-.32031l1.1289.48046m12.78126-1.35156l-5.06641 4.875m5.0664-4.875l2.33204.76563m-3.07032-.05469l2.33204.76172m11.73828-1.44922l-5.10157 4.83203m5.10157-4.83203l2.32812.78125m-3.07031-.07813l2.32812.78125m11.4961-1.71093l-4.63672 5.28125m4.63672-5.28125l2.39062.5625m-3.0625.20703l1.19141.28125m12.45312-1.3164l-3.94921 5.8125m3.94921-5.8125l2.4375.26562m-3.01171.58203l1.21875.1289m11.875-1.3789l-2.35938 6.6211m2.35938-6.6211l2.42578-.35938m-2.76953 1.32032l1.21484-.17579m10.74219-.94921l1.04687 6.94921m-1.04687-6.94921l1.97265-1.46094m9.41407 2.41797l4.90234 5.03125m-4.90234-5.03125l.74609-2.33594m12.32031 7.10156l5.40235-4.4961m-5.40235 4.4961l-2.27344-.92969m14.91016-.34765l6.7539-1.94531m-5.76952 1.66406l-.85157-.88281m14.0625-2.28125l4.9961 4.9453m-4.26953-4.22655l.35546-1.17188m16.46094 5.98438l-3.46094-6.11329m2.95704 5.22266l-.65625 1.03516m16.15234-2.34375l-6.8125-1.71485m5.82031 1.46485l.29688 1.1914"/><g clip-path="url(#ai)"><path fill="none" stroke="#000" stroke-linecap="round" stroke-linejoin="round" stroke-miterlimit="10" stroke-width=".5" d="M147.3789 426.10938l-6.7578 1.91796"/></g><path fill="none" stroke="#000" stroke-linecap="round" stroke-linejoin="round" stroke-miterlimit="10" stroke-width=".5" d="M147.3789 426.10938l1.69923 1.76953m11.46484-2.19922l-6.45313 2.77734m6.45313-2.77734l1.91406 1.53125m11.59766-.92969l-6.84766 1.57422m6.84766-1.57422l1.60937 1.85156m11.79297-1.16406l-7.02344.19922m7.02344-.19922l1.21094 2.13672m12.09766-2.25l-7.01172.42578m7.01172-.42578l1.28125 2.09375m12.01171-2.33984l-6.96484.92187m5.95313-.78906l.71093.9961m13.58594-.02345l-6.90625-1.29296m5.90234 1.10546l.3672 1.17188m13.95702-2.25l-6.91797 1.23828m5.91016-1.0586l.75781.96485m13.17188-2.24219l-6.13281 3.4336m6.1328-3.4336l2.0625 1.32813m10.75782-2.00781l-5.14063 4.79296m5.14063-4.79296l2.32031.80078m10.83985-.95313l-4.83203 5.09766m4.83203-5.09766l2.36718.65235m10.78907-.79688l-4.51563 5.38672m4.51563-5.38672l2.40234.51172m11.40625-.0039l-5.5 4.37109m5.5-4.3711l2.25.97657m11.05078-.9961l-5.47265 4.41016m5.47265-4.41016l2.2539.96485m-3.05077-.32422l1.1289.48437m12.80469-1.32812l-5.11328 4.8203m5.11328-4.8203l2.32422.78515m-3.07031-.08593l1.16406.39453m12.72266-1.26563l-4.76563 5.16016m4.76563-5.16016l2.375.6211m-3.06641.1289l1.1836.3125m12.67187-1.19531l-4.46485 5.42578m4.46485-5.42578l2.40625.48828m-3.05469.30078l1.20313.2461m12.21875-1.40235l-3.38282 6.16016m3.38282-6.16016l2.45312.03125m-2.94531.86328l1.22656.01953m11.1914-1.33593l-.60156 7.0039m.60157-7.0039l2.2578-.96094m-2.34765 1.98047l1.1289-.48047m14.3047.33203l-4.66016 5.26172m4.66016-5.26172l2.38672.57813m-3.0625.1875l2.3828.57812m-3.0625.1875l1.19141.28906m13.82032-1.47265l-5.33985 4.5664m5.33985-4.5664l2.28125.89843m-3.0586-.23437l2.28125.89844m11.17188-2.14453l-4.0664 5.73046m3.47655-4.89843l1.21485.16015m12.95312-.78515l-4.58984 5.3164m4.58984-5.3164l2.39453.54297m11.9961 1.11718l-6.73828 1.9961m6.73828-1.9961l1.71875 1.75m-2.69922-1.45703l.85937.875m13.44532.79297l-6.75782-1.92578m6.75782 1.92578l.51172 2.39844m-1.4961-2.67969l.51563 2.39844"/><g clip-path="url(#aj)"><path fill="none" stroke="#000" stroke-linecap="round" stroke-linejoin="round" stroke-miterlimit="10" stroke-width=".5" d="M147.46875 413.19531l-6.9375 1.11328"/></g><path fill="none" stroke="#000" stroke-linecap="round" stroke-linejoin="round" stroke-miterlimit="10" stroke-width=".5" d="M147.46875 413.19531l1.48047 1.95703m11.58984-2.79297l-6.44922 2.78907m6.44922-2.78906l1.91797 1.52734m11.11328-2.05469l-5.88281 3.84375m5.88281-3.84375l2.14844 1.17969m11.58984-.28125l-6.72656 2.04687m6.72656-2.04687l1.73047 1.73828m10.75781-3.14453l-5.07421 4.85937m5.07422-4.85937l2.33203.76562m8.69922-1.83984l-.50391 7.00781m.42969-5.98828l1.12109-.4961m9.45703 5.38673l5.11719-4.8125m10.38672 5.89843l.74219-6.98828m-.63672 5.97266l-1.13672.45703m17.90625-4.40625l-6.3789 2.94531m5.44921-2.51562l.97656.74219m12.67188-2.07032l-5.1875 4.73828m4.4336-4.04687l1.15624.41016m12.83985-1.17579l-5.04297 4.89063m5.04297-4.89063l2.33593.75391m10.39844-1.23828l-3.88281 5.85937m3.88281-5.85937l2.4414.23828m10.90626-.21875l-3.94532 5.8164m3.3711-4.96874l1.21875.1328m13.28906-.4414l-5.1836 4.74219m5.1836-4.74219l2.3125.82032m-3.0664-.13282l1.15624.41016m12.90625-1.10938l-5.16796 4.76172m5.16796-4.76172l2.3125.8125m10.19922-1.45703l-3.5625 6.05469m3.5625-6.05469l2.44922.10547m-2.96875.77344l1.22656.05469m12.70704-.875l-3.76172 5.93359m3.76171-5.9336l2.44922.19141m-2.99609.67188l1.22266.09765m13.93359.50391l-6.35156 3.00781m6.35156-3.00781l1.96875 1.46484m-2.89453-1.02734l1.96875 1.46484m-2.89063-1.02734l.98438.73047m13.78906-2.24219l-5.57422 4.27735m5.57422-4.27735l2.23438 1.01953m-3.04297-.39453l2.23047 1.01563m-3.04297-.39453l1.11719.5078m13.96875-1.54296l-5.8711 3.85937m5.8711-3.85937L402.07421 413m-3.00781-.61719l2.15234 1.17969m-3.0039-.61719l2.15234 1.17578m12.6875-2.55078l-5.50781 4.36719m5.5078-4.36719l2.25.98047m-3.05077-.34375l2.24609.98047m-3.04688-.34766l2.2461.98047m-3.04688-.34375l1.125.48828m14.69141-2.26562l-5.70313 4.10547m5.70313-4.10547l2.19922 1.08594m-3.03125-.48828l2.20312 1.08593m-3.03125-.48828l2.19922 1.08594m13.375-.8789l-6.90234 1.30468m6.90234-1.30469l1.53516 1.91407m-2.53906-1.72266l1.53515 1.91406m-2.53906-1.72656l1.53516 1.91406m13.72656-2.5625l-6.78125 1.84375m6.78125-1.84375l1.67969 1.78906m-2.66407-1.51953l1.6797 1.78516m-2.66798-1.51953l.83985.89453m14.44921-1.42578l-6.78125 1.83594"/><g clip-path="url(#ak)"><path fill="none" stroke="#000" stroke-linecap="round" stroke-linejoin="round" stroke-miterlimit="10" stroke-width=".5" d="M466.95313 412.83594l1.67968 1.78906"/></g><path fill="none" stroke="#000" stroke-linecap="round" stroke-linejoin="round" stroke-miterlimit="10" stroke-width=".5" d="M465.96484 413.10156l1.6797 1.78906m-2.66407-1.52343l.83984.89844"/><g clip-path="url(#al)"><path fill="none" stroke="#000" stroke-linecap="round" stroke-linejoin="round" stroke-miterlimit="10" stroke-width=".5" d="M147.48828 400.00781l-6.97656.85938"/></g><path fill="none" stroke="#000" stroke-linecap="round" stroke-linejoin="round" stroke-miterlimit="10" stroke-width=".5" d="M147.48828 400.00781l1.40625 2.00781m-2.42187-1.8828l.70312 1.0039m13.63672-1.01563l-6.9961.63282m6.9961-.63282l1.34375 2.0547m-2.35938-1.96095l.67188 1.02735m13.33594-2.3086l-6.35156 3.00782m6.35156-3.00782l1.96875 1.46485m10.1836-2.83985l-4.02345 5.76172m3.4375-4.92578l1.21875.14844m9.57032-1.4414l2.19922 6.67577m-1.87891-5.70703l.84766-.88281m12.14453-.08594l2.20703 6.67188m-1.88672-5.69922l.84766-.88672m13.98437-.1836l-1.47266 6.8711m1.26172-5.8711l1.17969-.33593m12.63281 2.76953l-.01953-.19922-.0586-.1914-.09374-.17579-.45703-.3789-.19141-.05469-.19922-.02344-.19922.02344-.19531.05469-.45703.3789-.09375.17579-.0586.1914-.01953.19922.01953.19922.0586.1914.09375.1797.45703.375.19531.05859.19922.01953.19922-.01953.1914-.0586.45704-.375.09375-.17969.0586-.1914.01952-.19922m15.77735.44922l-6.96875-.89453m5.95703.76172l.4336 1.14843m10.67968-4.96875l-.53906 7.00782m.46093-5.98829l1.1211-.48828m15.01172 1.16016l-6.01954 3.6289m17.7422-5.03124l-2.83595 6.42968m2.42579-5.49218l1.22265-.08985m10.63281-1.11719l.90235 6.96875m-.76953-5.95312l1-.71094m15.85937 1.78516l-6.44922 2.78906m6.44922-2.78906l1.91797 1.53125m10.52734-2.7461l-4.70703 5.21875m4.70703-5.21875l2.37891.59766m10.30078-1.05078l-3.4375 6.1289m3.4375-6.1289l2.45313.05469m11.83203.7461l-5.3789 4.52343m4.59374-3.86328l1.14063.45703m13.32422-.58985l-6.10938 3.46875m6.10938-3.46875l2.07421 1.31641m-2.96093-.8125l1.03515.66016m12.66016-1.84766l-5.09766 4.83594m5.09766-4.83594l2.32812.77735m-3.0703-.07422l2.32812.77734m12.26953-.74219l-6.17578 3.35938m6.17578-3.35938l2.04687 1.35156m-2.9453-.86328l2.04687 1.35547m12.26171-1.64844l-6.36718 2.96875m6.36718-2.96875l1.96094 1.47657m-2.88672-1.04297l1.96094 1.47656m-2.88672-1.04687l.98047.73828m14.04688-1.875l-6.08594 3.51562m6.08594-3.51562l2.07812 1.30078m-2.96484-.78906l2.08203 1.30078m-2.96875-.78906l2.08203 1.30078m13.1914-1.94922l-6.45703 2.76953m6.45704-2.76953l1.91406 1.53515m-2.85156-1.1328l1.91015 1.53515m-2.85156-1.13281l1.91406 1.53515m13.34375-2.1836l-6.58203 2.45704m6.58203-2.45703l1.83594 1.625m-2.79297-1.26953l1.83594 1.625m-2.79688-1.26563l.92188.8125m14.3086-1.53515l-6.57813 2.46875"/><g clip-path="url(#am)"><path fill="none" stroke="#000" stroke-linecap="round" stroke-linejoin="round" stroke-miterlimit="10" stroke-width=".5" d="M466.85156 399.20313l1.83985 1.625"/></g><path fill="none" stroke="#000" stroke-linecap="round" stroke-linejoin="round" stroke-miterlimit="10" stroke-width=".5" d="M465.89453 399.5625l1.83985 1.625m-2.79688-1.26563l.91797.8125"/><g clip-path="url(#an)"><path fill="none" stroke="#000" stroke-linecap="round" stroke-linejoin="round" stroke-miterlimit="10" stroke-width=".5" d="M147.49219 387.51563l-6.98438-.78516"/></g><path fill="none" stroke="#000" stroke-linecap="round" stroke-linejoin="round" stroke-miterlimit="10" stroke-width=".5" d="M147.49219 387.51563l.90234 2.28125m12.4336-2.70313l-7.02735.0586m7.02734-.0586L162 389.25m11.67578-3.88281l-6.08984 3.51172m6.08984-3.51172l2.07813 1.30469m10.47656-2.21485l-4.57422 5.33203m4.57422-5.33203l2.39453.53516m8.55078-1.38281l.16797 7.02734m-.14453-6.0039l1.07031-.60157m14.29688 5.98828l-3.98047-5.79297m18.8164 2.91406l-7.02734-.03515m7.02734.03515l1.14453 2.17188m12.16016-2.4961l-7 .61329m7-.61328l1.33594 2.05468m-2.35547-1.96484l.66797 1.02734m13.60156-1.54687l-6.8711 1.47265m6.8711-1.47265l1.57813 1.875m11.66015-2.16406l-6.71875 2.05078m6.71875-2.05078l1.73438 1.73828m11.67187-.04297l-6.89844-1.33985m6.89844 1.33985l.71875 2.34375m12.40625-4.3164l-6.52344 2.60937m6.52344-2.60938l1.875 1.58203m11.6875-.46093l-7.01562.36328m7.01562-.36328l1.26172 2.10546m11.71875-3.43359l-6.34765 3.01953m6.34765-3.01953l1.96875 1.46094m11.66016.46875l-6.97656-.83985m5.96093.71875l.44531 1.14454m11.83594-4.64844l-2.875 6.41015m2.45703-5.47656l1.22266-.08203m14.27344.90625l-6.40235 2.89844m5.46875-2.48047l.97266.75m13.4336-.75l-6.71876 2.0625m6.71875-2.0625l1.73829 1.73047m-2.71485-1.4336l.86719.8672m13.1211-1.8672l-6.10938 3.46485m6.10937-3.46485l2.07031 1.31641m11.09375-1.5625l-5.80859 3.95703m5.8086-3.95703l2.17187 1.14453m-3.01563-.5664l1.08594.5703m13.03906-1.1953l-5.74218 4.05078m5.74219-4.05078l2.1914 1.10937m-3.02734-.51953l2.1914 1.10938m12.04297-1.57422l-5.91015 3.80078m5.91015-3.80078l2.14063 1.19921m-3-.64453l2.14062 1.19922m11.76563-2.1211l-5.3711 4.53517m5.3711-4.53516l2.27734.91406m-3.0586-.2539l2.27735.91015m12.32031-.77734l-6.375 2.95312m6.375-2.95312l1.95704 1.48047m-2.88282-1.05079l1.95313 1.48047m12.46094-1.46875l-6.71875 2.06641"/><g clip-path="url(#ao)"><path fill="none" stroke="#000" stroke-linecap="round" stroke-linejoin="round" stroke-miterlimit="10" stroke-width=".5" d="M466.92188 386.08984l1.73437 1.73438"/></g><path fill="none" stroke="#000" stroke-linecap="round" stroke-linejoin="round" stroke-miterlimit="10" stroke-width=".5" d="M465.9414 386.39063l1.73829 1.73437"/><g clip-path="url(#ap)"><path fill="none" stroke="#000" stroke-linecap="round" stroke-linejoin="round" stroke-miterlimit="10" stroke-width=".5" d="M140.52344 373.28906l6.95312 1.03906"/></g><path fill="none" stroke="#000" stroke-linecap="round" stroke-linejoin="round" stroke-miterlimit="10" stroke-width=".5" d="M159.34766 376.67578l-4.0625-5.73437m3.46875 4.89843l-.55078 1.09766m15.86718-2.41406l-6.8789-1.4336m5.8789 1.22657l.33985 1.17968m13.59375-3.41796l-6.1172 3.46093m6.1172-3.46094l2.0703 1.31641m11.03517-1.64062l-5.69922 4.10937m5.69922-4.10937l2.20312 1.08593m11.75781.61329l-6.99219.70703m6.9922-.70704l1.36327 2.04297m-2.3789-1.9375l.67969 1.01954m13.21484.95703l-6.11719-3.45313m6.11719 3.45313l-.0586 2.45312m13.29297-2.3164l-5.95703-3.72657m5.95703 3.72656l-.17187 2.44922m13.88281-3.33984l-6.75-1.94922m6.75 1.94922l.50781 2.40234m12.89063-4.0078l-6.91406 1.26562m6.91406-1.26563l1.52344 1.92188m-2.53125-1.73829l.76171.96094m13.60157-.1836l-6.9961-.65624m6.9961.65625l.94531 2.26172m12.3125-1.86719l-6.8789-1.44531m5.875 1.23437l.34374 1.17969m13.95703-2.49219l-6.84375 1.60156m5.84766-1.36718l.8086.92187m13.5703-.76562l-6.98046.82031m6.98047-.82031l1.39453 2.01953m11.71875-2.84766l-6.57813 2.47266m6.57813-2.47266l1.83984 1.625m11.6211.34766l-6.8711-1.46875m6.8711 1.46875l.67578 2.35937m12.67578-3.65234l-6.9414 1.11328m6.9414-1.11328l1.48047 1.95703m11.84765-.94922l-6.96875-.90234m6.96875.90234l.86328 2.29688m12.44532-3.23828l-6.95703.98437m6.95703-.98437l1.44531 1.98046m11.35937-3.37109l-5.93359 3.76563m5.9336-3.76563l2.1328 1.21094m10.51563-1.98438L408 376.46484m4.60156-5.3125l2.39063.54688m11.16797-.3164l-5.08594 4.85156m5.08594-4.85157l2.32812.77344m-3.07031-.0664l1.16406.38671m12.66797-1.3086l-4.63672 5.28126m4.63672-5.28125l2.38672.5625m-3.0625.20703l1.19531.28125m13.25-.57031l-5.54687 4.3164m5.54687-4.3164l2.23828 1.0039m-3.04687-.375l1.1211.5m13.61718.10157l-6.77735 1.85937"/><g clip-path="url(#aq)"><path fill="none" stroke="#000" stroke-linecap="round" stroke-linejoin="round" stroke-miterlimit="10" stroke-width=".5" d="M466.94922 372.8789l1.6836 1.78516"/></g><path fill="none" stroke="#000" stroke-linecap="round" stroke-linejoin="round" stroke-miterlimit="10" stroke-width=".5" d="M465.96484 373.14844l.83985.89453"/><g clip-path="url(#ar)"><path fill="none" stroke="#000" stroke-linecap="round" stroke-linejoin="round" stroke-miterlimit="10" stroke-width=".5" d="M141.53516 362.9961l4.92968-5.00782"/></g><path fill="none" stroke="#000" stroke-linecap="round" stroke-linejoin="round" stroke-miterlimit="10" stroke-width=".5" d="M154.91797 363.0625l4.79297-5.13672m-4.09375 4.39063l-1.1875-.32032m13.65625.92188l5.08984-4.84766m-4.34766 4.14063l-1.16796-.38672m14.51562 1.70312l3.53906-6.0703m12.60157-.31642l-2.10938 6.70313m17.54688-4.85156l-6.35547 3m5.42969-2.5625l.98437.73437m13.33984 1.63281l-6.52343-2.60937m6.52343 2.60938l.26563 2.4414m12.08594-1.08984l-4.59766-5.3125m4.59766 5.3125l-.88282 2.28906m11.8047-1.4336l.1875-7.02343m-.16017 6.0039l-1.09765.54688m16.82812-.42188l-4.6953-5.23046m18.93358 3.89453l-6.54296-2.5586m5.59375 2.1836l.14062 1.21875m14.33203-1.64844l-6.96093-.94922m6.96093.94922l.85157 2.30078m12.03906-1.04297l-6.10938-3.46875m6.10938 3.46875l-.0664 2.45313m13.83593-4.03516l-7.01953-.30078m6 .25781l.52734 1.10547m11.5039 2.08594l-2.41405-6.60156m2.0625 5.64062l-.82032.91406m14.39844.07813l-2.23437-6.66406m17.48828 5.0664l-6.11328-3.46875m5.22265 2.96485l-.03515 1.22656m14.43359-1.1211l-6.5-2.66796m5.55469 2.27734l.12109 1.22266m14.39844-1.94532l-7.01563-.4453m5.99219.3828l.50781 1.1172m13.57032-2.6211l-6.4961 2.6875m5.55078-2.29297l.94532.77734m12.48046-2.38281l-4.82421 5.10938m4.82421-5.10938l2.36329.64844m10.26953-1.14844l-3.46485 6.11328m3.46485-6.11328l2.45312.0664m10.67578-.16406l-3.08984 6.3086m3.08984-6.3086l2.45313-.08203m-2.90235 1l1.22657-.04297m12.16797-1.03125l-2.35157 6.6211m2.35157-6.6211l2.42578-.36328m11.72265.78906l-4.01562 5.76954"/><g clip-path="url(#as)"><path fill="none" stroke="#000" stroke-linecap="round" stroke-linejoin="round" stroke-miterlimit="10" stroke-width=".5" d="M465.57031 357.60938l2.4336.29296"/></g><g clip-path="url(#at)"><path fill="none" stroke="#000" stroke-linecap="round" stroke-linejoin="round" stroke-miterlimit="10" stroke-width=".5" d="M140.4961 347.44531l7.0078-.53515"/></g><path fill="none" stroke="#000" stroke-linecap="round" stroke-linejoin="round" stroke-miterlimit="10" stroke-width=".5" d="M154.48828 349.26563l5.65234-4.17579m-4.82812 3.56641l-1.10938-.52734m14.75391 2.14062l3.34766-6.17969m-2.85938 5.27735l-1.22656-.00781m13.36328.41796l4.72656-5.19921m-4.03906 4.4453l-1.1875-.30468m13.0625.08203l6.23047-3.2461m-6.23047 3.2461l-2.02344-1.39062m14.94532-.06641l7.01953-.32813m-6 .27735l-.625-1.05469m13.40625-.84765l6.04687 3.57812m11.3125-1.78906l-.01953-.19922-.0586-.19531-.09374-.17579-.45703-.375-.19141-.05859-.19922-.01953-.19922.01953-.19531.0586-.45703.375-.09375.17578-.0586.1953-.01953.19923.01953.19922.0586.1914.09375.17578.45703.375.19531.0586.19922.01953.19922-.01953.1914-.0586.45704-.375.09375-.17578.0586-.1914.01952-.19922m10.375 2.9414l3.83985-5.88671m-3.28125 5.03125l-1.22266-.10938m12.42578-1.42969l6.9414-1.09375m-5.92968.9336l-.73828-.98047m13 .66797l7.02734-.15235m-7.02734.15235l-1.19531-2.14063m14.65625 3.0625l6.73828-1.9961m-5.75781 1.70704l-.85938-.875m15.4414 3.4961l2.2422-6.66016m-1.91797 5.6914l-1.21094.19922m14.35156.8164l1.9414-6.7539m-1.66015 5.76953l-1.19922.25781m13.0625.13672l4.28125-5.57421m-3.65625 4.76171l-1.21094-.20312m14.58985 1.42578l2.90625-6.39453m-2.48438 5.46484l-1.22656.07813m14.91016 1.10547l1.32422-6.90235m-1.12891 5.89844l-1.17578.36328m16.5664.3125l-3.21875-6.2461m2.75 5.33985l-.69921 1.00781m16.05078-1.72265l-6.35157-3.0039m5.42579 2.5664l.05859 1.22656m14.46484-2.91797l-6.91797 1.2539m5.91016-1.0703l.76172.96093m12.39453-3.17969l-4.58594 5.32422m3.91797-4.55078l1.19922.26953m12.11328-1.49609l-3.2461 6.23047m3.2461-6.23047l2.45313-.02344m10.36328-.1914l-2.2461 6.66015m2.2461-6.66015l2.42187-.39844m11.02735.44922l-2.51563 6.5586m2.15235-5.60548l1.21484-.14844m13.5586-.1328l-4.70704 5.21874m4.02344-4.46094l1.1914.29688"/><g clip-path="url(#au)"><path fill="none" stroke="#000" stroke-linecap="round" stroke-linejoin="round" stroke-miterlimit="10" stroke-width=".5" d="M144.1211 330.35156l-.2422 7.02344"/></g><path fill="none" stroke="#000" stroke-linecap="round" stroke-linejoin="round" stroke-miterlimit="10" stroke-width=".5" d="M155.53906 336.89453l3.55469-6.0625m9.80469 6.08985l3.46094-6.1172m-2.95704 5.22657L168.17578 336m13.53125.57031l4.47656-5.41797m-4.47656 5.41797l-2.40234-.48828m14.75781-.75781l6.39453-2.92188m-6.39453 2.92188l-1.94531-1.49219m15.25781 1.48438l6.39844-2.90625m-5.46485 2.48437l-.97265-.75m13.03906-.28125h7.02734m-6.0039 0l-.57422-1.08203m13.10547-.1836l6.55469 2.53126m-5.60157-2.16407l-.14844-1.21875m12.42188 1.10547l6.73047 2.02344m-5.75-1.73047l-.24219-1.20312m12.42969 1.86718l7.02344.10938m-6.00391-.09375l-.5586-1.09375m12.875 1.52734l6.98048-.78906m-5.96485.67578l-.69531-1.01172m13.08594 1.61328l6.80078-1.76562m-6.80078 1.76562l-1.66016-1.80468m15.25 2.52734l6.25-3.21094m-6.25 3.21094l-2.01563-1.40234m16.5586 2.7539l3.79687-5.91406m-3.24609 5.05469l-1.22266-.10156m17.21875 1.2539l-2.67187-6.5m2.28515 5.55469l-.78125.94531m12.23829.14453l1.8164-6.78906m-1.55078 5.80078l-1.19531.27735m13.39062.35546l3.52735-6.07812m-3.52735 6.07812l-2.45312-.09375m17.5586.56641l-.0547-7.02344m.0547 7.02344l-2.15626 1.17188m18.16797-2.46485l-5.44531-4.4375m5.44531 4.4375l-.47656 2.40625m13.875-2.51172l-5.61328-4.22656m19.07422.21094l-5.90625 3.80469m5.04687-3.25391l1.07031.60156m13.17188-1.04297l-6.04297 3.58594m5.16406-3.0664l1.05078.64062m13.1875-1.08203l-6.1289 3.42969m6.1289-3.4297l2.06641 1.32813m11.51953-.71875l-6.67187 2.21094m6.67187-2.21094l1.77344 1.69531m11.61328-1.44921l-6.8125 1.71875"/><g clip-path="url(#av)"><path fill="none" stroke="#000" stroke-linecap="round" stroke-linejoin="round" stroke-miterlimit="10" stroke-width=".5" d="M466.96875 333.0039l1.64453 1.82032"/></g><g clip-path="url(#aw)"><path fill="none" stroke="#000" stroke-linecap="round" stroke-linejoin="round" stroke-miterlimit="10" stroke-width=".5" d="M146.17188 317.78516l-4.34375 5.52343"/></g><path fill="none" stroke="#000" stroke-linecap="round" stroke-linejoin="round" stroke-miterlimit="10" stroke-width=".5" d="M145.53906 318.58984l1.20703.21875m13.5625 3.57813l-5.98828-3.67578m5.11719 3.14062l-.07422 1.22266m12.27734.83984l-2.02343-6.73047m1.73047 5.75l-.8711.86329m13.67188.2578l-.40625-7.01562m.34765 5.9961l-1.05078.63671m13.58985.33204l1.26562-6.91016M196.8125 323l-1.17188.3711m16.54297.30077l-3.21875-6.24609m2.75391 5.33594l-.69922 1.00781m16.19922-2.08984l-6.65625-2.26172m5.6875 1.92969l.19531 1.21093m14.13672-2.98437l-6.7539 1.94922m5.76953-1.66797l.85547.88281m12.97265-2.16797l-5.8086 3.95703m4.96095-3.3828l1.08593.5703m11.80469-2.27734l-3.26953 6.21875m2.79687-5.3125l1.22657-.00781m10.84375-1.30078l.16796 7.02343m-.14453-6l1.07032-.60156m10.55078.04688l3.50781 6.08984m-2.9961-5.20313l.65235-1.04296m10.39844 3.01562l7.01562.3711m-5.9961-.31641l-.51952-1.11328m13.6914 3.57031l5.26172-4.65625m-5.26172 4.65625l-2.30078-.85938m18.65625 2.02344L330 317.0586m.70312 5.96485l-1.01171.69531m13.6953.32813l.6797-6.9961m-.6797 6.9961l-2.26952.93359m14.63672-1.16406l2.57421-6.53907m-2.57421 6.53907l-2.4375.28125m2.8125-1.23047l-1.21875.13672m13.77734.63671l3.33984-6.18359m-3.33984 6.1836l-2.45703-.01954m17.6211.4375l-.35938-7.01953m.35937 7.01953l-2.10547 1.26172m15.3711-1.26172l-.26172-7.02343m.22265 6.0039l-1.05859.61328m16.14453-.125l-3.72656-5.95703m3.1836 5.08985l-.61329 1.0625m15.04297-.64063l-4.8711-5.0664m4.16407 4.32812l-.38281 1.16406m15.42968-3.57031l-6.91796 1.21875m5.91406-1.03906l.7539.96484m13.58204-1.0586l-6.94922 1.04688m6.94922-1.04687l1.46093 1.97265m11.77735-2.33203l-6.80078 1.76563"/><g clip-path="url(#ax)"><path fill="none" stroke="#000" stroke-linecap="round" stroke-linejoin="round" stroke-miterlimit="10" stroke-width=".5" d="M466.96094 319.66406l1.66015 1.8086"/></g><path fill="none" stroke="#000" stroke-linecap="round" stroke-linejoin="round" stroke-miterlimit="10" stroke-width=".5" d="M465.97266 319.92188l.82812.90234"/><path fill="#ff3030" fill-rule="evenodd" d="M433.3164 467.64844h7.69141V457.5039h-7.6914v10.14453"/><path fill="azure" fill-rule="evenodd" d="M435.14844 459.33594h.83594v5.73828h3.1914v.74219h-4.02734v-6.48047"/><path fill="#00f" fill-rule="evenodd" d="M392.67578 463.21094h8.6211V453.0625h-8.6211v10.14844"/><path fill="azure" fill-rule="evenodd" d="M394.51172 454.89844h.83203v2.82031h3.28516v-2.82031h.83203v6.48047h-.83203v-2.91797h-3.28516v2.91797h-.83203v-6.48047"/><path fill="#ff3030" fill-rule="evenodd" d="M322.35938 436.57813h7.6914v-10.14454h-7.6914v10.14454"/><path fill="azure" fill-rule="evenodd" d="M324.1914 428.26563h.83204v5.74218h3.19531v.73828h-4.02734v-6.48046"/><path fill="#00f" fill-rule="evenodd" d="M388.23828 432.14063h8.61719v-10.14454h-8.61719v10.14454"/><path fill="azure" fill-rule="evenodd" d="M390.07031 423.82813h.83594v2.82421h3.28516v-2.82421h.83203v6.48046h-.83203v-2.91796h-3.28516v2.91796h-.83594v-6.48046"/><path fill="#ff3030" fill-rule="evenodd" d="M189.20703 427.70313h7.6914v-10.14454h-7.6914v10.14454"/><path fill="azure" fill-rule="evenodd" d="M191.03906 419.39063h.83594v5.73828h3.1914v.74218h-4.02734v-6.48046"/><path fill="#00f" fill-rule="evenodd" d="M219.58203 414.38672h8.61719v-10.14453h-8.61719v10.14453"/><path fill="azure" fill-rule="evenodd" d="M221.41406 406.07422h.83203v2.82422h3.28907v-2.82422h.83203v6.48047h-.83203v-2.91406h-3.28907v2.91406h-.83203v-6.48047"/><path fill="#ff3030" fill-rule="evenodd" d="M184.76953 387.75781h7.6914v-10.14453h-7.6914v10.14453"/><path fill="azure" fill-rule="evenodd" d="M186.60156 379.44531h.83203v5.73828h3.19532v.7422h-4.02735v-6.48048"/><path fill="#ff3030" fill-rule="evenodd" d="M313.48047 387.75781h7.6914v-10.14453h-7.6914v10.14453"/><path fill="azure" fill-rule="evenodd" d="M315.3125 379.44531h.83594v5.73828h3.1914v.7422h-4.02734v-6.48048"/><path fill="#ffffe0" fill-rule="evenodd" d="M342.66406 379.11328h22.17969v-10.1914h-22.17969v10.1914"/><path fill-rule="evenodd" d="M346.16406 370.7539h.50781v6.29298h-.78906v-4.48829h-1.38672v-.55468l.5586-.06641.2539-.05469.23047-.08984.20313-.14063.17187-.21093.14063-.29297.10937-.39453m4.8125 0l.23047.01953.21875.05469.20703.08984.19531.1211.1836.14843.17187.17578.30079.42188.24609.49218.17969.54688.10937.57812.03906.58985-.03906.59375-.10937.58594-.1797.55468-.24608.5-.30079.42969-.17187.17969-.1836.15234-.1953.1211-.20704.09375-.21875.05859-.23047.01953-.23047-.01953-.21875-.0586-.20703-.09375-.19531-.12109-.1875-.15234-.16797-.17969-.30469-.42969-.24218-.5-.1797-.55469-.11327-.58593-.03516-.59375h.83203l.02735.5625.08203.50781.1289.4414.16016.375.1914.30079.21094.22265.22266.13672.22656.04688.22656-.04688.22266-.13672.21094-.22265.1914-.30078.16016-.375.125-.44141.08203-.50781.03125-.5625-.03125-.5586-.08203-.5-.125-.4375-.16015-.36718-.19141-.28907-.21094-.21484-.22265-.13281-.22657-.04297-.22656.04297-.22266.13281-.21093.21484-.19141.28907-.16016.36718-.1289.4375-.08203.5-.02735.5586h-.83203l.03516-.58985.11328-.57812.17969-.54688.24218-.49218.3047-.42188.16796-.17578.1875-.14844.19531-.1211.20703-.08983.21875-.0547.23047-.01952m5.08985 0h.51171v6.29296h-.78906v-4.48828h-1.38672v-.55468l.5586-.06641.2539-.05469.22657-.08984.20312-.14063.17578-.21093.14063-.29297.10547-.39453m2.82421 2.17578h.78907l.01953-.3164.0586-.28517.09765-.2539.14062-.21485.1797-.17578.22265-.1289.26562-.07813.3086-.02734.23828.01953.22265.0625.20704.10156.17968.14063.14844.17187.11328.20703.07031.23438.02344.26562-.01953.26954-.0664.22265-.10938.1914-.15625.17188-.19922.16406-.25.16407-.63281.39062-.53906.3125-.4375.3164-.34375.32423-.26563.33594-.1875.35156-.1289.36719-.06641.39453-.01953.41796h4.21093v-.73828h-3.33203l.08203-.28515.11329-.23828.14843-.19922.1875-.17969.23047-.17188.27735-.17578.71875-.41796.41406-.20313.34765-.23047.28125-.2539.21875-.26563.16407-.27734.10937-.28516.0625-.28516.02344-.28125-.04297-.3828-.1211-.34767-.1875-.30859-.25-.26172-.30468-.21484-.34375-.15625-.38281-.09766-.40625-.03515-.4336.03125-.39844.10156-.35546.16406-.3047.23438-.24608.30468-.1875.375-.1172.44532-.03906.51953"/><path fill="#ffffe0" fill-rule="evenodd" d="M204.34766 361.35938h22.17968v-10.19141h-22.17968v10.1914"/><path fill-rule="evenodd" d="M207.84766 353h.5078v6.29297h-.78515v-4.48828h-1.39062V354.25l.5586-.0664.2539-.05079.23047-.08984.20312-.14453.17188-.20703.14453-.29688.10547-.39453m4.8125 0l.23047.01953.21875.05469.20703.08984.1953.1211.1836.14843.17188.17579.30469.42187.24218.49219.17969.54687.10938.57813.03906.58984-.03906.59375-.10938.58594-.17969.55469-.24219.5-.30468.42968-.17188.1797-.1836.15233-.1953.125-.20703.08985-.21875.0586-.23047.01952-.23047-.01953-.21875-.0586-.20703-.08983-.19532-.125-.18359-.15235-.17188-.17969-.30468-.42968-.24219-.5-.17969-.5547-.10937-.58593-.03906-.59375h.83203l.03125.5664.07812.50391.1289.44141.16016.375.19141.30078.21094.22266.22265.13672.22657.04687.22656-.04687.22266-.13672.21093-.22266.1914-.30078.16017-.375.1289-.4414.08203-.50391.02735-.5664-.02735-.5586-.08203-.5-.1289-.4375-.16016-.36328-.1914-.29297-.21095-.21485-.22265-.1328-.22656-.04298-.22657.04297-.22265.13281-.21094.21485-.1914.29297-.16016.36328-.1289.4375-.07813.5-.03125.5586h-.83203l.03906-.58985.10937-.57813.17969-.54687.24219-.49219.30469-.42188.17187-.17578.1836-.14843.1953-.1211.20704-.08984.21875-.05469.23047-.01953m5.08984 0h.51172v6.29297h-.78906v-4.48828h-1.38672V354.25l.5586-.0664.2539-.05079.22656-.08984.20703-.14453.17188-.20703.14062-.29688L217.75 353m2.82422 2.17578h.78906l.01953-.3164.0586-.28516.09765-.2539.14063-.21485.1836-.17578.22265-.1289.26562-.07813.30469-.02735.23828.01953.22656.0625.20313.10157.17969.14062.14843.17188.11328.20703.07032.23437.02734.26563-.02344.26953-.0664.22265-.10938.19141-.15625.17188-.19922.16406-.24609.16406-.63672.39063-.53516.3125-.4375.3164-.34765.32422-.26563.33594-.1875.35156-.125.3711-.0703.39062-.01954.41797h4.21094v-.73828h-3.33203l.08203-.28516.11328-.23437.14844-.20313.1875-.17969.23047-.17187.27734-.17578.71875-.41797.41406-.20313.34766-.23046.28125-.25391.21875-.26563.16406-.27734.10938-.28516.0664-.28515.01953-.28125-.04297-.38281-.12109-.34766-.1875-.3086-.25-.26171-.30469-.21485-.34375-.15625-.3789-.09765-.41016-.03516-.4336.03125-.39843.10156-.35547.16406-.30469.23438-.2461.30469-.1875.375-.11327.44531-.04297.51953"/><path fill="#ffffe0" fill-rule="evenodd" d="M424.41016 432.3711h22.17968v-10.19141h-22.17968v10.1914"/><path fill-rule="evenodd" d="M427.91016 424.01172h.5078v6.29687h-.78515v-4.48828h-1.39062v-.5586l.5625-.0625.25-.05468.23047-.08984.20312-.14063.17578-.21094.14063-.29296.10547-.39844m4.8125 0l.23046.01953.21875.0586.20704.08984.1953.11719.1875.15234.17188.17578.30079.41797.24218.49219.17969.54687.11328.58203.03516.58985-.03516.59375-.11328.58203-.17969.55469-.24219.5039-.30078.42578-.17187.17969-.1875.15234-.19531.125-.20704.09375-.21875.0547-.23046.01952-.23047-.01953-.21875-.05469-.20703-.09375-.19532-.125-.18359-.15234-.17188-.17969-.30078-.42578-.24609-.5039-.17969-.5547-.10937-.58202-.03906-.59375h.83203l.03125.5625.08203.5078.125.44142.16015.375.19141.30078.21094.21875.22265.13671.22657.04688.22656-.04688.22265-.13671.21094-.21875.1914-.30079.16407-.375.125-.4414.08203-.50781.02735-.5625-.02735-.5625-.08203-.5-.125-.4336-.16406-.36719-.1914-.29296-.21094-.21485-.22266-.1289-.22656-.04688-.22657.04688-.22265.1289-.21094.21485-.1914.29296-.16016.3672-.125.43359-.08203.5-.03125.5625h-.83204l.03907-.58985.10937-.58203.17969-.54687.2461-.4922.30077-.41796.17188-.17578.1836-.15235.1953-.11718.20704-.08985.21875-.05859.23047-.01953m5.09375 0h.5078v6.29687h-.78515v-4.48828h-1.39062v-.5586l.5586-.0625.2539-.05468.23047-.08984.20312-.14063.17188-.21094.14453-.29296.10547-.39844m2.8203 2.17578h.78907l.01953-.3164.0586-.28516.09765-.2539.14063-.21485.1836-.17188.22265-.1289.26562-.08204.3086-.02734.23437.02344.22656.0625.20313.10156.17969.13672.14843.17578.11329.20313.0703.23828.02735.26172-.02344.26953-.0664.22656-.10938.1914-.15625.17188-.19922.16016-.24609.16797-.63672.38671-.53515.3125-.4375.31641-.34766.32422-.26172.33594-.1914.35156-.125.3711-.07032.39452-.01953.41797h4.21094v-.74218h-3.33203l.08203-.28125.11328-.23829.14844-.20312.1875-.17969.23046-.17187.28125-.17578.71485-.41407.41797-.20703.34375-.23047.28125-.25.21875-.26953.16406-.27734.11328-.28125.0625-.28516.01953-.28125-.04297-.38281-.11718-.35156-.19141-.30469-.25-.26563-.30078-.21093-.34766-.16016-.3789-.09765-.40625-.03516-.4375.03515-.39844.09766-.35156.16797-.3086.23438-.2461.30468-.1875.3711-.11327.44921-.04297.51563"/></g></defs><use xlink:href="#ay"/></svg>