<svg xmlns="http://www.w3.org/2000/svg" role="img" xmlns:xlink="http://www.w3.org/1999/xlink" viewBox="142.45 309.95 326.84 171.84"><defs><clipPath id="a"><path d="M144 311.67188h1v168.65625h-1zm0 0"/></clipPath><clipPath id="b"><path d="M144 480h1v.32813h-1zm0 0"/></clipPath><clipPath id="c"><path d="M144 311.67188h324v168.65625H144zm0 0"/></clipPath><clipPath id="d"><path d="M429 476h7v4.32813h-7zm0 0"/></clipPath><clipPath id="e"><path d="M430 478h5v2.32813h-5zm0 0"/></clipPath><clipPath id="f"><path d="M467 311.67188h1v168.65625h-1zm0 0"/></clipPath><clipPath id="g"><path d="M144 480h4v.32813h-4zm0 0"/></clipPath><clipPath id="h"><path d="M147 480h2v.32813h-2zm0 0"/></clipPath><clipPath id="i"><path d="M146 480h2v.32813h-2zm0 0"/></clipPath><clipPath id="j"><path d="M153 479h9v1.32813h-9zm0 0"/></clipPath><clipPath id="k"><path d="M160 480h3v.32813h-3zm0 0"/></clipPath><clipPath id="l"><path d="M159 480h2v.32813h-2zm0 0"/></clipPath><clipPath id="m"><path d="M166 479h9v1.32813h-9zm0 0"/></clipPath><clipPath id="n"><path d="M173 480h3v.32813h-3zm0 0"/></clipPath><clipPath id="o"><path d="M172 480h2v.32813h-2zm0 0"/></clipPath><clipPath id="p"><path d="M180 480h8v.32813h-8zm0 0"/></clipPath><clipPath id="q"><path d="M187 480h2v.32813h-2zm0 0"/></clipPath><clipPath id="r"><path d="M186 480h2v.32813h-2zm0 0"/></clipPath><clipPath id="s"><path d="M193 479h9v1.32813h-9zm0 0"/></clipPath><clipPath id="t"><path d="M200 479h3v1.32813h-3zm0 0"/></clipPath><clipPath id="u"><path d="M199 479h2v1.32813h-2zm0 0"/></clipPath><clipPath id="v"><path d="M206 479h9v1.32813h-9zm0 0"/></clipPath><clipPath id="w"><path d="M213 480h3v.32813h-3zm0 0"/></clipPath><clipPath id="x"><path d="M212 480h2v.32813h-2zm0 0"/></clipPath><clipPath id="y"><path d="M220 479h8v1.32813h-8zm0 0"/></clipPath><clipPath id="z"><path d="M227 480h2v.32813h-2zm0 0"/></clipPath><clipPath id="A"><path d="M226 480h2v.32813h-2zm0 0"/></clipPath><clipPath id="B"><path d="M233 480h8v.32813h-8zm0 0"/></clipPath><clipPath id="C"><path d="M240 480h3v.32813h-3zm0 0"/></clipPath><clipPath id="D"><path d="M239 480h2v.32813h-2zm0 0"/></clipPath><clipPath id="E"><path d="M246 479h9v1.32813h-9zm0 0"/></clipPath><clipPath id="F"><path d="M253 479h3v1.32813h-3zm0 0"/></clipPath><clipPath id="G"><path d="M252 479h2v1.32813h-2zm0 0"/></clipPath><clipPath id="H"><path d="M260 479h8v1.32813h-8zm0 0"/></clipPath><clipPath id="I"><path d="M267 479h2v1.32813h-2zm0 0"/></clipPath><clipPath id="J"><path d="M266 479h2v1.32813h-2zm0 0"/></clipPath><clipPath id="K"><path d="M273 479h8v1.32813h-8zm0 0"/></clipPath><clipPath id="L"><path d="M280 479h3v1.32813h-3zm0 0"/></clipPath><clipPath id="M"><path d="M279 479h2v1.32813h-2zm0 0"/></clipPath><clipPath id="N"><path d="M286 479h9v1.32813h-9zm0 0"/></clipPath><clipPath id="O"><path d="M293 479h3v1.32813h-3zm0 0"/></clipPath><clipPath id="P"><path d="M300 480h8v.32813h-8zm0 0"/></clipPath><clipPath id="Q"><path d="M307 480h2v.32813h-2zm0 0"/></clipPath><clipPath id="R"><path d="M313 479h8v1.32813h-8zm0 0"/></clipPath><clipPath id="S"><path d="M319 480h2v.32813h-2zm0 0"/></clipPath><clipPath id="T"><path d="M326 479h9v1.32813h-9zm0 0"/></clipPath><clipPath id="U"><path d="M332 480h2v.32813h-2zm0 0"/></clipPath><clipPath id="V"><path d="M339 479h9v1.32813h-9zm0 0"/></clipPath><clipPath id="W"><path d="M345 479h3v1.32813h-3zm0 0"/></clipPath><clipPath id="X"><path d="M353 479h8v1.32813h-8zm0 0"/></clipPath><clipPath id="Y"><path d="M359 479h2v1.32813h-2zm0 0"/></clipPath><clipPath id="Z"><path d="M366 478h8v2.32813h-8zm0 0"/></clipPath><clipPath id="aa"><path d="M372 479h2v1.32813h-2zm0 0"/></clipPath><clipPath id="ab"><path d="M380 478h7v2.32813h-7zm0 0"/></clipPath><clipPath id="ac"><path d="M395 476h4v4.32813h-4zm0 0"/></clipPath><clipPath id="ad"><path d="M407 478h7v2.32813h-7zm0 0"/></clipPath><clipPath id="ae"><path d="M419 479h9v1.32813h-9zm0 0"/></clipPath><clipPath id="af"><path d="M425 480h2v.32813h-2zm0 0"/></clipPath><clipPath id="ag"><path d="M433 478h8v2.32813h-8zm0 0"/></clipPath><clipPath id="ah"><path d="M439 480h1v.32813h-1zm0 0"/></clipPath><clipPath id="ai"><path d="M446 478h8v2.32813h-8zm0 0"/></clipPath><clipPath id="aj"><path d="M460 478h7v2.32813h-7zm0 0"/></clipPath><clipPath id="ak"><path d="M144 466h4v2h-4zm0 0"/></clipPath><clipPath id="al"><path d="M144 453h4v1h-4zm0 0"/></clipPath><clipPath id="am"><path d="M144 439h4v2h-4zm0 0"/></clipPath><clipPath id="an"><path d="M144 426h4v2h-4zm0 0"/></clipPath><clipPath id="ao"><path d="M466 427h2v4h-2zm0 0"/></clipPath><clipPath id="ap"><path d="M144 412h4v3h-4zm0 0"/></clipPath><clipPath id="aq"><path d="M466 411h2v3h-2zm0 0"/></clipPath><clipPath id="ar"><path d="M144 399h4v3h-4zm0 0"/></clipPath><clipPath id="as"><path d="M466 398h2v3h-2zm0 0"/></clipPath><clipPath id="at"><path d="M144 384h3v6h-3zm0 0"/></clipPath><clipPath id="au"><path d="M466 385h2v4h-2zm0 0"/></clipPath><clipPath id="av"><path d="M144 371h4v6h-4zm0 0"/></clipPath><clipPath id="aw"><path d="M466 372h2v3h-2zm0 0"/></clipPath><clipPath id="ax"><path d="M144 357h2v7h-2zm0 0"/></clipPath><clipPath id="ay"><path d="M144 346h4v2h-4zm0 0"/></clipPath><clipPath id="az"><path d="M466 345h2v2h-2zm0 0"/></clipPath><clipPath id="aA"><path d="M144 331h3v6h-3zm0 0"/></clipPath><clipPath id="aB"><path d="M466 332h2v3h-2zm0 0"/></clipPath><clipPath id="aC"><path d="M144 317h3v7h-3zm0 0"/></clipPath><clipPath id="aD"><path d="M466 318h2v3h-2zm0 0"/></clipPath><g id="aE" clip-path="url(#clip1)"><path fill="#fff" fill-opacity="0" fill-rule="evenodd" d="M0 0h1000v1000H0zm0 0"/><path fill="#d3d3d3" fill-opacity="0" fill-rule="evenodd" d="M162.15234 355.86719l-.23437.29297.0586.23437.11718.17188.17578.23437.29297.34766.11328.0586.11719-.17188.0586-.23438.17577-.17578.46485-.17578h.69922l.23437.29297.28906.8164.0586.17579.17578.23046.35156.23438.69922.69922.17188.17578.23437.34765.23438.41016.28906.58203.41015.46485.23047.23437.23438.17578.11719.23047.17578.29297.17187 1.16406v.23438l.0586.28906.05859.11719.11719.11719.34765.41015.11719.17188.17578.17578.17578.23437.11719.17188.17188.35156.05859.23438.23437.40625.23438-.0586-.17578.17578-.0586.92969h-.58203l-.23437-.11328-.34766.11328-.11719.11719-.05859.29297-.0586.17578-.11718.17187-.46484.29297-.0586.23438-.0586.11328v.64453l.0586.17187v.41016l.0586.0586v.40624l.05859.40625.11719.17579.05859.05859.23047.64062-.0586.29297v.69922l-.05859.58203v.23438l-.0586.23047-.05468.35156v1.92187l.05469.1172h.42578l-.36719.11718-.02344.35156.89063 1.16797 1.74219.53906 1.33984.35938v.53906l.08984.8086.53516.71484 1.51953.26953.89063-.08594.08984 1.16406.53516.1797 1.16015-.1797 2.05469-.98437 1.16016-.36328 1.8789-.17578 1.69531-.1797-.17968.71876-1.51563.08594-1.25.08984-.80469.26953-1.07421.8086.26953.71875.53515.89843-.17968.625-.26563.8086.26563 1.07812.625.89844.80468.17969 1.25-.1797-.26562.72267.09766.5039.05468.29297v.17188l.0586.29296v.40625l.17578.1172.35156.11718h.40625l.29297-.17578.11328-.11719.0586-.11719.11718-.23047.0586-.17578.35156-.46484.23047-.17578.17578-.0586.17578.0586.0586.17578.11718.98828.05469.46875.0586.17188.11718.23437.17578.0586.8164.05859h.28907l.11719.23437.05859.40625.0586.35156v1.10547l.11718.29297.11719.34766.28906.69922.17578.35156.58203.7539.35157.17579.17187.0586.46875.23437.64063.46484.34765.23438.29297.17578.29297.05468.23047.0625.8164.34766.29297.17578.11328.17188.35157.35156.11719.17578.52343.64063v.28906l.0586.35156v.34766l.05859.35156.0586.28906.11718.0586.17188.05859h.17578l.58203.23437.17578.1172.17578.28905.17578.23438.11328.23437.29297.23047.11719.11719v.41016l.0586.05468.28906.23438.23437.11719.0586.11718.11718.17188.0586.11719.23047.23437.05859.17578.23437.0586.1172.05859-.1172.11328-.05859.11719v.11719l-.11719.29296-.11719.28907v.58203l.17579.11719.11718.05859.0586.11719.11719.11719.11328.05859.17578.34765.0586.35157.05858.40625v.17578l-.05859.17578-.11719.69922v.17187l.1172.17579.29296.29296h.40625l.17578.1172.11719.17187.11719.29296v.23438h-.52735l-.23047-.23438h-.23437l-.17578.0586-.0586.69922.0586.34765.11719.17579.17578.41015.11718.23047.28907.46875.17578.05469h.52344l.23437.0586.75781.64062.0586.29296v.23438l.05859.0586.23047.34765v.35156l-.11719.17188v.29297l.29297.28906.29297.17578.17187.0586.29297.17577.29297.1172.58203.40624.28906.23438.29297.17578.21875.16015.01563.01172.23047.17579.64062.52343.17578.23438.1172.17578.17577.17578.11328.17188v.64062l.1172.17578.46874.11719.58203.11719.23438.05859.23047.11328.29297.11719.11328.0586.58593.35156.28907.17187.17578.0625.17578.05469.17578.0586.69922.35155.28906.17579.23438.05468.28906.17578.23437.1172.64063.40624.29297.11719.17187.0586.23438.05859.41015.05859.23047.0586.23438.11718.0586.17188-.41017.17578.46875.0586.0586.29296.11328.23438.17578.05468.23438.0586.17578.05859.40625.11719.64062.23437.11719.17188.0586.23437v.17578l-.0586.1172-.0586.40624.23438.23438.11719.05859.34766.11719.64062.23047.17578.11718.28906.1172.17578.17577.23438.46485.58203 1.10546.17578.17579.34766.17578.17578.11719.35156.11718 1.04688.52344.23437.0586.46485.11327.29297.0586.46484.17578.75781.58203.23438.23438.34765.46484.17578.17578.28907.23438.8164.69921.29297.17579.28906.28906.29297.17578.29297.28906.69531.64063.17578.17578.29297.23437.28907.23438.46875.28906.64062.58203.34766.23438.23437.29297.34766.34765.35156.46485.9336.99218.34765.40625.11719.17579.23437.05859.11328.11719.64454.17578.23047.11328.23437.0586.29297.17577.23047.1172.9336.69921.40624.40625.23438.17578.40625.17578.23437.11719.8164.34766.34766.23437.23438.11719.29297.28906.23047.11719.7578.35156.35157.17188.23047.05859.29297.11719.23437.0586.8711.17577h.8164l.46875.23047.17188.0586.875.69921.46484.1172.29297.05858.17578.0586.23047.0586.46875.05859.34766.05859.35156.0586.40625.05859h.29297l.17187.0586v.23046l.17578.17578h.29297l.34766.0586.35156.05859.69922.11719h.64063l.46484-.23438.29297-.17578.17187-.11719.41016-.17187.28906-.17578.9336-.46485.46875-.29297.52343-.29296.46485-.17188.46484-.17578 1.05078-.46485.28906-.11718.41016-.11719.28906-.11719.52735-.17578 1.51562-.69922.58203-.34765.28907-.0586.29297-.0586.34765-.11718.875-.23047.35156-.11719h.11329l.23437-.05859.875-.23437.23438-.0586h.8125l.35156-.0586.8164-.11718.17188-.0586.35156-.05468.29297-.0586.23047-.05859.8164-.17578.17579-.0586h.34765l.23438-.05859.46484-.11718.75781-.17188.23438-.0586h.34765l.41016-.11718.28906-.0586 1.28516-.05859h.28906l.41016-.0586.23047-.05858h.17578l.875-.1172h.40625l.41015-.11718h.34766l.35156-.11328.8711-.0586h1.75l1.04687.28907.41016.11719.28906.11718.35156.11719.28907.11719 1.05078.17187.28906.0586h.29297l.29297.05859.17187.0586.41016.05859.17187.0586.1172.05858h.11718l.11719.0586.35156.0586h.11328l.41016.0664 1.92187.39453 1.92578.39453 1.51953.44922 1.69532.71875 2.14453.80469 1.60547-.71875 1.42968-.80469 1.16016-1.07813 1.25-.44921 3.03516-.71875 1.875-.35938 2.14453-1.34765 2.23437-1.25391 2.5-1.25781 1.69531-.44922 1.78516-.17969 1.16016-.26953.625.53906 1.33984-.26953.71485-.98828.98437-1.34375.44531-.17969.80469-.35937 1.875-.53907 1.78516-.44921 1.25-.26954 1.16015-.08984 1.69922-.08984 1.96094-.26954 1.25-.08984h.53906l.625-.08984h.89063l2.14453-.17969 2.41015-.17969 2.58985-.08984 1.69531.17969 1.60938.08984 1.42968.35938 1.16016.71875 1.875.98828 1.16015 1.52734.26563.71484.6289.08985.35548.89844.53515.53906.53516 1.52734 1.07422.35938h.53515l-.80469.53515.08985 1.70703.71484 2.69532.89063.80468.89453.98829.71484 1.2578 1.78516.53907 1.51953-.17969.35547 1.34375 1.60937-.80469.98047-.53906.26953.26953.31641-.21484.21875-.14453.80078.44922.44922-.35938h.35547l.53515-.26953.53907-.71875.53515-.26953.625-.98828 1.16016.44922.83984.3711 1.39454.61718 1.6953-.17969h1.60548l1.78515.08985.17969-1.70704.53516-1.34375.80468.26954.4922.84765.40233.40625-.08984.53906v.35938l.71485.44922.71093-.26953h1.42969l.35938.98828.4453 1.25781.71485 1.34375 1.25.6289 1.69531.62891.71485-.17969.17969-.53906.98046-.08984.44922.35937.08594 1.25782-.26563.6289-.53515.17969v.53906l.71484.98438.26563.53906.98437.98828.80078 1.07813-.26562.35937-.08985.89844-.625 2.33203-.35546 2.0664-.08985 1.79298-.17969.71875-.08984.53906v1.4375l-.98047 1.88281-.35937 1.70703-.53516.89844-.80469 1.16797-.26562.53906 2.05469 1.2539.08593.35938-.35546.53906-.08985-.17968v.80859l.08985 1.4375-.44532.71484-1.07422.09375-.26562.71485.53515.89844.8047.71875 1.16015.80859 1.33984.26953.44531.35938-.35546.44921-1.78907-.08984-1.25-.44922-.71484-.71875-.625-.08984-.17578 3.58984-.1875 1.3086h89.35937V311.70313h-55.26953v49.08203l.76172.125 3.28906.54296 2.02344 2.83594v2.7539l2.35156.33204 2.34766.33203h4.05078l-1.3789 4.16016-2.02344.70703-2.02344.70312-.54297.34375-2.59375 1.6172-.1875.11718-2.02344-2.07813-.73046-2.74218-2.67188-2.07813-1.375-3.5-.0664-.08203-1.95704-2.67188 2.75-1.41796v-49.08204H294.42187v91.41407l.1172.03125.1328.01172.07422.07421.10547.04688.08985.0586.08593.05859.08985.0586.29687.29687.0586.08984.03125.11719.02734.11719.01563.13671-.03125.1172-.0586.08983-.0586.08594-.04296.10547-.04688.10156-.02734.1211v.14453l.17578.26953.14844.14844.07422.08594.07422.07421.04296.10547.0625.08985.0586.08593.04297.10547.0586.08985.04687.10156.04296.10547.0586.08594.11719.17968.07421.07422.0625.08594.0586.08984.04297.10547.0586.08985.05858.08593.0625.08985.0586.08984.04297.10156.11719.17969.07421.07422.0586.08594.07422.07421.08984.0586.10547.04687h.14844l.1328-.01562.13282.01562.10156-.04687.07422-.07422.04688-.10156-.01563-.13281v-.14844l-.04687-.10547-.02735-.11719-.04687-.10156-.02735-.1211-.04296-.10156-.0625-.08984-.04297-.10156-.04297-.10547-.03125-.11719-.01563-.13281-.01171-.13672.08593-.0586.0586-.08593.12109-.03125.04297.10547.01562.1328v.1172l.0586.10156.0586.08984.08983.0586.14844.14843.0586.08985.04296.10547-.01171.10156.08593.0586.10547.04687.08594.0586.08984.05858.07422.07422-.11719.02735-.10546.04687-.08594.0586-.07422.07421-.0586.08985-.0625.08594-.02734.12109-.04687.10156-.04297.10547-.03125.11719-.01172.13281-.01563.13281v.14844l.02735.11719.04687.10547.04297.10156.0586.08984.07421.07422.08985.0586.07422.07421.08984.0586.0586.08984.04296.10547.04688.10156.11719.03125.1328.01563h.14845l.11718-.03125.10547.04297.04297.10547.04688.10156.02734.1211L299.5 410l.02734.11719.03125.1211.02735.11718.10547.04297.10156.04687.13281-.01562.14844.14844.0625.08593.07422.07422.07031.07422.08984.0625.10547.04297.10156.04297.1172.03125.13671.01562.11719-.03125.07422-.07422.02734-.11718-.01172-.13282-.03125-.12109-.02734-.11719.04297-.10547h.11719l.08984.0625.11719.02735h.14843l.13282.01562h.14843l.13282.01563.1328-.01563h.14845l.1328-.01562.13282-.01172.13672.01172.11719-.02735.13281-.01562.1914-.0586-.05859.17579-.01562.1328-.02735.1211-.01562.13281-.0586.08594-.1328.01563-.10548.04687-.10546.04297-.1172.03125-.11718.02735-.26563.03125h-.14843l-.13281.01562-.07422.07422.05859.08594.14844.14843.11719.1797.07421.0703.08985.0625.08984.0586.08594.0586.08984.05858.10156.04297.10547.0625.10547.04297.08594.0586.10547.04687.10156.04297.17969.11719.0586.08984-.04298.10156-.04687.10547.01562.13281.22266.22266.0586.08985.04296.10156.03125.1211.04297.10155.01563.13282.03125.11718.01171.13672.03125.11719.14844.14844.10156.04297.10547.04296.1172.03125.1328.01563.13672.01563h.11719l.11719-.03125.08984-.0586.04297-.10547.04688-.10156.04296-.10547.03125-.11719.01172-.1328v-.14845l-.01172-.1328-.01562-.13282-.03125-.11719-.04297-.10547-.04688-.10547-.04296-.10156-.04297-.10547-.01563-.13281.01563-.13281.02734-.11719.03125-.11719.02735-.1211.04687-.10155.08984-.0586.08594-.0625.07422-.07422.08984-.05859.22266-.22266.0586-.08593.07421-.07422.11719-.17969.0586-.08594v-.14844l-.07423-.07421-.10156-.04688-.10547-.04297-.10156-.04297-.0586-.08984-.04687-.10547-.02734-.11719.08984-.05859.11719-.03125.10156-.04297.17969-.11719.14844-.14843.01172-.13282-.01172-.10546-.08985-.0586-.1328.01563h-.14845l-.1328.01562-.13282-.01562-.1211-.03125-.08593-.0586-.07422-.07422-.0586-.08984-.0625-.08594-.11718-.17969-.0586-.08593.03125-.1211.08594-.05859.1211-.03125.05859-.08594v-.1211l-.03125-.11718-.0586-.08984-.05859-.08594-.04687-.10547-.02735-.11719-.01562-.1328.0586-.08985.07421-.07422.08984-.0586.1172-.17968.07421-.07422.0586-.08594.14843-.14844.1211-.03125.1328-.01562.13282.01562.07422.07422.04297.10547.01562.13281-.03125.1172-.11719.03124-.1328.01172-.14844.14844-.04297.10547-.04688.10156-.02734.1211-.03125.11718v.14844l.03125.11719.04297.10546.05859.08985.07422.07031.07422.07422.11719.03125.12109.02734.11719-.02734.1328-.01563h.1172l.08984.0586.07422.07422.04687.10546.0586.08594.10156.04688.13281.01562.10547.04297.08594.0586-.01172.10546-.07422.07422-.17969.11719-.05859.08984-.08984.0586-.07032.07422-.07421.07421-.0625.08985-.02735.11719-.01562.1328.01562.13282-.01562.13281v.14844l.01562.13281.02735.1172.03125.12108.07421.07422.08985.0586.08594.0586.08984.05858.11719.03125v.08594l-.10157.04688-.08984.0586-.26563.03124-.11718.02735h-.14844l-.10547.04296-.10156.04688-.0586.08984-.0625.23438-.01171.13281-.03125.1211-.01563.1328v.29298l-.01172.1328.01172.13673.01563.1328.1328.01563.13282.01172.1211.03125.08593.0586.07422.07421.04688.10547.04296.10157.01563.1328v.44532l-.01563.13281v.44532l.03125.26562.02735.11719.01562.13281.03125.11719.08594.21094.03125.26562v.14844l-.03125.11719-.02734.11718-.03125.1211-.02735.11719-.03125.11718-.03125.1211-.01171.1328-.01563.13282.08984.0586.1172-.03125.10155.01562.04688.10547-.03125.26562v.44141l-.04297.10547-.04688.10547-.04296.10156-.04297.10547-.0586.08594-.03125.12109-.04296.11719-.03125.11719-.01563.1328.01563.13282.05859.08984.10547.04688.08594.0586.05859.08593-.01172.13672-.03125.11719-.04297.10156v.44531l-.01562.13281v.14844l-.03125.11719-.04297.10547-.02735.11719-.04687.10546-.04297.10157-.03125.12109-.02734.11719-.03125.13281-.03125.11719-.02735.11719-.04297.10546-.03125.1172-.03125.12108-.01171.13282-.01563.13281v.29688l.02734.11718v.14844l.04688.39844.02734.11719.0586.08984.12109.03125h.14844l.13281-.01563.0586.08985v.11719l-.0586.08984-.08984.0586-.10157.04296-.10546.04688-.08985.05859-.08594.0586-.13671.01562-.1172-.03125-.1328-.01563-.10157.04688-.0625.08594-.01172.13671-.01562.13282-.03125.11719-.02735.11718-.01562.13281-.03125.1211v.29687l.01563.13282.03125.11718v.14844l.01171.13281v.14844l-.02734.11719-.04688.10156-.02734.1211-.03125.11718-.0586.08985-.07421.07421-.10156.04297-.10547.04688-.11719.02734-.1211.03125-.10156-.04687.0586-.08594.10547-.04688.02734-.11718.03125-.11719.02734-.1211.03125-.11718v-.14844l.01563-.13281-.03125-.11719-.04297-.10547-.10547.01563-.07422.07422-.10156.04296-.08984.0625-.07422.07422-.04297.10157-.01563.1328-.03125.1172L304.25 426l-.03125.11719-.02734.11719-.03125.12109-.02735.11719-.03125.11718-.04297.10547-.08984.0586h-.08984l-.1172-.03125-.03124-.08594.01562-.13672-.03125-.11719v-.14844l-.01171-.1328v-.14844l-.0625-.23438-.02735-.1211-.04297-.10156-.04687-.10546-.0586-.08594-.05859-.08985-.04297-.10546-.0625-.08594-.14844-.14844-.0703-.07422-.10548-.04687-.10547-.04297-.10156-.04297-.29687-.29688-.08985-.07421-.08594-.0586-.10546-.04297-.08985-.0625-.08594-.0586-.10546-.04296-.08985-.0586-.08594-.0625-.07421-.0703-.10547-.04688-.08594-.0586-.10547-.04296-.08984-.0625-.10156-.04297-.10547-.04297-.08594-.0586-.10547-.04687-.10547-.04297-.10156-.04687-.08985-.0586-.10156-.04297-.10547-.04296-.08984-.0625-.11719-.02735-.13281-.01562-.13281.01562H299.75l-.13281.01563-.11719-.03125-.08984-.0586-.07422-.07422-.08985-.05859-.10156-.04688h-.14844l-.12109-.02734-.10156-.04297-.07422-.07422-.11719-.17968-.08984-.0586-.10156-.04297-.08985-.0625-.10547-.04296-.08984-.0586-.08594-.0586-.10547-.04687-.0586-.08594-.05858-.08984-.04297-.10547-.04688-.10156-.07422-.07422-.08594-.0586-.07421-.07421-.08985-.0586-.22265-.22265-.04297-.10547-.03125-.26563.10547-.04296h.14453l.10547.04296.07421.07422.08985.0586.08594.0586.10546.04687.08985.05859.14844.14844.0703.07422.14845.14843.0625.08594.07421.07422.08594.0586.07422.07421.08985.0625.08984.0586.08594.05859.26953.17578.10156.04688.10547.04296.10156.04297.04688-.07421.05859-.08594.07422-.07422.07031-.07422.10547.04297.07422.07422.0586.08984.04296.10156.04688.10547.04296.10547.1211.02735.11719-.02735.07421-.08984.04297-.10547.0586-.08985.07422-.07421.10546-.04297.1172-.02735.1328.01172.08985.0586.14844.14843.05859.08985.04297.10547.04687.10156.04297.10547.04297.10156.10547.04688.10547.04296.13281.01563.08594-.0586.0586-.08984.07421-.07422.10547-.04297.11719.02735.10547.04687.10156.04297.10547.04297.10156.04688.17969.11718v.11719l-.01563.13281.01563.13281.01562.13672.0586.08594.10156.04688.1211.02734.11718.03125h.14844l.11719-.03125.05859-.08984.17969-.1172.05859-.08983.07422-.07422.0586-.08594.11718-.17969.17969-.11719.11719.03125.08984.0586.04297.07422-.01563.1328v.1172l.08985.05859h.14843l.13282-.01563.1328-.01171.26563-.03125.10547-.04297.11719-.03125.1211-.02735.07421-.07421.07031-.07422.0625-.08985-.01562-.10547-.04688-.10156-.10156-.04297-.10547-.01562-.11718.02734-.26563.03125h-.14844l-.07421-.07422-.08985-.0586-.11719-.03124-.11718-.02735-.13282-.01562h-.14843l-.13282.01563h-.29687l-.10547-.04688-.14844-.14844-.04297-.10156-.05859-.08984.22266-.22266.08593-.0586.10547-.04296.11719-.03125.13281-.01563.13281.01563.13672.01562.10157.04297.1328-.01172.08985-.0625.10156-.04297.0625-.08984-.04687-.10156-.08984-.0586-.1172-.03125-.10155-.04296-.0586-.08985-.0625-.08984v-.11719l.01563-.13281.10547-.04688.07421-.07031v-.1211l-.08984-.05859-.03125-.11719.08985-.05859.07421-.07422.04297-.10547.0586-.08984.04687-.10156.01563-.13281v-.14844l-.04688-.10547-.04297-.10156-.08984-.0586-.13281-.01562-.10157-.04297-.13671-.01563-.1172-.03125h-.4453l-.13282-.01562-.13281-.01172-.13281-.01563-.11719-.03125h-.14844l-.13281-.01562-.13281-.01172-.26563-.03125-.1211-.04297-.08593-.0586-.07422-.07421v-.14844l.01172-.13281.10547-.04688.10156-.04296.13281-.01563h.15235l.13281-.01562h.29297l.1211.03125.10156.04296.08984.0586.23438.0625.12109-.04688.08984-.05859.10156-.04297.13282-.01562.10547.04296.10156.04688.13281.01172.1211-.02735h.14453l.12109-.03125.11719-.02734.10547-.04687.07421-.07422.08594-.0586.14844-.14843.0586-.08594.04687-.10547.02734-.11719.01563-.10547-.10156-.04296-.08985-.0586-.11719-.03125-.10546-.04297-.08985-.0625-.07422-.08594-.07422-.07421-.10156-.04297-.10547-.04688-.10156-.04297-.0586-.08984-.04687-.10156-.08594-.21094-.0625-.08594-.05859-.08984-.07422-.07422-.08594-.0586h-.26953l-.11719.03126-.08984.05859-.10156.04297-.13281.01562-.10547-.01562-.02735-.11719-.0625-.08984-.11718-.03125-.10157-.04297-.14843-.14844-.03125-.11719-.01563-.10546.07422-.07422.17969-.1172.11719-.02733.11718-.03125.13672.01562.10156.04297.10547.04297.10156.04687.10547.04297.1172.03125.1328.01563.1172.02734.1328.01563.10547-.01563.08985-.0586-.07422-.07421-.10547-.04297-.07422-.07422-.07422-.08984-.14844-.14844-.08593-.0586-.08985-.05859-.07422-.07422-.08984-.0586-.10156-.04687-.1211-.02734-.10156-.04688-.10547-.04296-.11719-.03125-.10156-.04297-.1211-.03125h-.14843l-.11719.03125-.10546.04297-.08594.0625-.17969.11718-.08594.0586-.08984.0586-.10547.04687-.08594.05859-.10547.04297-.10156.04297-.10547.04687-.07422.07422-.05859.08985-.0586.08593-.04687.10547-.0586.08594-.07421.07422-.13281-.01172-.1172-.03125h-.11718l-.07422.07422-.08984.0586-.07422.07421-.08984.0586-.08594.05859-.10547.04687-.10156.04297-.13672.01563-.10156-.04297-.14844-.14844-.10547-.04688h-.08594l-.10547.04688-.10156.04297-.1211.03125-.11718-.03125-.07422-.07422v-.11719l.03125-.1211.07422-.0703.0586-.08985.07421-.07422.11719-.03125.10547-.04296h.29297l.13281-.01563.13672-.01563.10156-.04296.08985-.0586.10156-.04687.08984-.0586.13281-.01171.08985.05859.13281.01172.08984-.0586.08594-.05859.10547-.04297.08984-.0586.08594-.0625.08985-.05859.14843-.14843.0586-.08594.05859-.08985.10547-.04296.13281-.01563.11719.02735.1211.03125.05859-.0586.05859-.08984.03125-.26563.02734-.11719.10547.01172.13281.01563.10157-.04297.08984-.0586.0586-.08984.07421-.07422.0586-.08984.04687-.10156.01172-.13281-.01172-.13282-.04687-.10547-.14844-.14843-.0586-.08985-.05859-.08594-.04297-.10546v-.44532l.01563-.1328v-.14845l.01172-.1328-.0586-.0586-.08984.0586-.10156-.04298-.17969-.11719-.08594-.05859-.0625-.08984-.0586-.08985-.07421-.07421-.08594-.0586-.1211.03125-.10155.01172-.10547.04688-.08594.05859-.10547.04297-.14844.14844-.08984.05859-.08594.0586-.08984.0625-.10547.04296-.13281.01563v-.1211l.10547-.04297.11718-.03125.07422-.0703.04297-.10548v-.14844l-.02734-.11718-.14844-.14844-.13281-.01563h-.14844l-.11719.03125-.10547.04297-.10156.04297-.08984.0625-.11719.02735-.07422-.07422.01172-.13281-.04297-.10157-.04297-.10547-.08984-.05859-.11719.02734-.1211.03125-.11718.03125-.10156.04297-.1211.03125-.10156.04297-.10547.04297-.08984.0586-.10156.01562v-.11719l.01562-.13281-.0586-.08985-.07421.04297-.14844.14844-.0586.08985-.07421.07421-.04688.10547-.04296.10156-.07422.07422-.0586.08985-.07422.07422-.05859.08593-.07422.07422-.08984.0625-.07422.07031-.07422.07422-.10156.01563-.13281.01562-.10547-.04296v-.1211l.14843-.14844.04297-.10156.0586-.08984.04687-.10156.04297-.10547.0586-.08985.03124-.11719.04297-.10156.03125-.1211.02735-.11718.04687-.10547.04297-.10156.04297-.10547.07422-.07031.08984-.0625.08985-.0586.10156-.04296h.29687l.26563-.03125.10547-.04297-.07422-.07422-.11719-.03125-.10547-.04297-.08984-.0586-.10156-.04687-.08985-.0586-.10156-.04296-.10547-.04297-.08984-.0625-.08594-.0586-.10547-.04296-.10156-.04297-.1211-.03125-.11718-.03125-.10157-.04297L297.5 410.25l-.10156-.04297-.08985-.0586-.04296-.10546-.01563-.13281.10156-.04297.13281-.01563.13672.01563.13282-.01563.10156-.04297.0586-.08984.01562-.10547-.08985-.0586-.07421-.07421-.10157-.04297-.08984-.0586-.14844-.14843-.04297-.10547-.01562-.13281v-.29297l-.0586-.08985-.08984-.05859-.07422-.07422-.04297-.10547-.03125-.11718-.0586-.08985-.07421-.07422-.11719-.02734-.07422-.07422-.08984-.0586-.08984-.0625-.08594-.05859-.07422-.07421-.0586-.08594-.04687-.10547-.08594-.0586-.14843-.14843-.19532-.0586-.1328.01563-.10157.04297-.07422.07422-.04688.10156-.04296.10547-.0586.08984-.0586.08594-.29687.29687-.08984.0586h-.08594l-.0625-.08594-.04297-.10547.03125-.11719.0586-.08984.02734-.11719-.01172-.13281-.08984-.0625-.10547.04688-.11719.02734-.11719.03125-.26953.17578-.10156.04688-.11719.02734-.10546.04687-.08985.0586-.10156.04297-.0586-.08594-.04687-.10547.01563-.13281.04687-.10547.07031-.07422.07422-.07031.0586-.08985v-.14843l-.04297-.10547h-.23829l-.10156.04687-.03125.11719-.02734.11719-.03125.1211-.07422.04296-.13281.01563-.07422-.04688-.04297-.10156-.04297-.10547-.04687-.10156-.04297-.10547-.1211.03125-.10156.04297-.13281.01562-.11719.03125-.10547.04297-.08984.0586-.10156.04687-.1211.02734-.13281.01563-.10156-.04297-.0586-.08985-.04687-.10546-.04297-.10157-.04297-.10546v-.1172l.0586-.08984.08593-.05859.17969-.11719.10156-.04687.10547-.04297.10547-.0586.10156-.04296.08985-.0625.10156-.04297.10547-.0586.10156-.04687.08984-.0586.10547-.04296.10156-.04297.08985-.0625.10156-.04297.13672-.01563.11719.03125.10156.04297.1211.03125.10156.04297.10546.04688.10157.04296.10547.04297.10156.04688.10547.04297.10156.04297.10547.04687.08594.0586.10546.04296.1172.03125.10546.04297.10156.04688.08985.0586.10547.04296.10156.04297.10547.04687.11719.02735.10156.04687.1211.02735h.14843l.08594-.0586.01562-.10156.0586-.08984-.02735-.1172-.07422-.07421-.11719-.17969-.07421-.07422-.08985-.07421-.17969-.1172-.08593-.05859-.10547-.04296-.10156-.04688-.26954-.17578-.05859-.08985-.07422-.07421-.0586-.08985-.04296-.10156-.03125-.11719-.01563-.13672v-.5625l-.01171-.1328-.01563-.13282-.03125-.11719-.01562-.13281-.01172-.13281-.03125-.1211-.22266-.22265-.0586-.08594-.01562-.10547.03125-.11719.13281-.01562v-91.41406H172.9922v1.45312l-.0586.23438-.35156 1.05078-.17187.52343-.1172.34766-.17577.41016-.11719.17187-.23438.29297-.23046.0586h-.35157l-.11718.05859-.23047.40625v.29297l.11719.17578.23046.23047.1172.23437.64062.75781.29297.46485.17578.23437.23047.35156.23437.34766.64063.8164.17578.46485.17187.41016.11719.69531.17578.46875.11719 1.39844.0586.46484v.875l.11718 1.04688v4.78125l-.0586.46484-.35156 1.28125-.17578.52344-.11328.41015-.35156.9297L172.93359 336l-.23437.58203-.11719.17578-.17187.34766-.17578.40625-.35157.8164-.0586.29297-.11327.29297-.11719.28906-.0586.17579-.11718.875-.0586.40625-.05859.11718-.0586.17579-.05859.17187-.23047.52734-.11718.17188v.23437l-.11719.23438-.0586.17187-.17577.58594v.28906l-.0586.17579v.29296l-.0586.11329-.05859.52734v.17187l-.05468.23438v2.6211l-.17578.8164-.1172.17578-.17577.23438-.1172.17187-.11327.23438-.58594.93359-.23047.28906-.29297.46485-.17578.23437-.28906.35156-.35156.69922-.11328.23047-.17579.41016-.17578.23046-.40625.52735-.8164.69922-.29297.17187-.28906.23438-.17579.11719-.17578.17578-.52344.40625-.52734.17578-.17187.17578-.23438.05469-.64062.17578h-.75782m12.21094 31.02344l-1.07422.44921.35938.89454 1.25-.71485.44531-.53906-.98047-.08985"/><path fill="#d3d3d3" fill-opacity="0" fill-rule="evenodd" d="M201.50781 416.59766h-.89453l.44922.6289.98047.35938.80469-.08985.4453-.98828-.17577.08985-.71485-.35547-.89453.35547m154.6211 59.0703l-.0586-.52343v-.29297l.11328-.29297.0586-.23046.46875-.46875h.11328l.11719-.11329.11718-.05859h.17579l.23437-.0586h.34766l.23437.0586.11719.0586.23047.17187.0586.17578.11718.58203v.29297l-.11719.17578-.17187.28906-.17579.17579-.52734.52343-.23047.23438-.11719.0586h-.17578l-.11718-.0586-.40625-.29297-.17579-.11719-.11718-.0586-.0586-.11327-.05468-.1172m6.64062-10.95702l-.0586-.17188v-1.10937l.0586-.17188.17578-.0586.17188-.05858h.17578l.23437-.0586.1172.0586.05858.69921-.05859.17188-.11719.17578-.11718.0586-.23438.52343-.11328.0586h-.23438l-.05859-.1172m9.61328-14.39062l-.11719-.17578v-.69922l.29297-.875.1172-.17187.17577-.35156.11328-.23047.1172-.29297.35155-.75781.1172-.23047.17187-.23438h.17578l.11719-.0586h.64062l.11719.0586.23437.23438.17188.11328.35156.29297.11719.11718.11328.17579v.11328l.11719.05859.11718.11719v.69922l-.05859.17578v.23047l-.0586.17578-.34765 1.05078-.11719.23047-.11719.23437-.11718.0586-.23047.23437-.64063.28906h-.875l-.41015-.11718-.64063-.46485"/><path fill="none" stroke="#bebebe" stroke-linecap="round" stroke-linejoin="round" stroke-miterlimit="10" stroke-width=".5" d="M467.95703 311.69531H144.02734v168.625h323.9297v-168.625"/><g clip-path="url(#a)"><path fill="#fff" fill-opacity="0" fill-rule="evenodd" d="M144 475.89063v4.2539-168.47265h.0039H144v164.21875"/></g><g clip-path="url(#b)"><path fill="#50fcfc" fill-rule="evenodd" d="M144.0039 480.32813v-.1797l.08204.1797h-.08203"/></g><g clip-path="url(#c)"><path fill="#fff" fill-opacity="0" fill-rule="evenodd" d="M144.0039 480.14844V311.67188h88.76173v105.6289l-3.32813.89063-1.10938.69921-4.4375 1.13282-4.4375.51172-4.4375-1.39844-2.08593 3.49219-2.35547 3.95703-2.41406.48437-2.02344.35547-1.49219-.35547-2.94531-1.89844-4.27734-2.54296-.16016-.03516-.10547.03516-4.33594.73046-4.4375 2.15625-3.58984 1.5547-.84766.24218-4.4375 1.10547-3.76562 3.08984-.67578.4336-4.4375 1.14453-3.21875 2.85937-1.21875.44531-4.4375.75782-3.63282 3.23437-.80468 4.27735-.1172.16015-3.08593 4.4414-1.23828 3.01563-2.16016 1.42188 1.5625 4.4375.59766.6289 1.13281 3.8086 3.3086 2.48437 4.4375.95313 4.4375-.72266 4.4375.23828 4.4375-.42968 4.4414-.39844 4.4375-1.28516 1.14453-.83984 3.29297-1.01563 4.4375-.24609 4.4414-.98438 4.4375-.46484 4.4375-.5586 3.27735-1.16796 1.16016-.21875 4.4414-.41016 4.4375-1.75 4.4375.03125 4.4375-1.375 1.08204-.71484 3.35547-2.83594 2.95312-1.60156 1.48828-1.125 4.4375-3.04297.23438-.27344 4.20312-3.1211 1.29297-1.3164-1.29297-1.80469-3.14453-2.6328-1.29297-1.96485-4.4375-2.32422-.22266-.14844-.72656-4.4375-1.51172-4.4414 1.125-4.4375-3.10547-.89063v-105.6289h26.63282V433.375l-3.0039 2.57031 3.0039 1.4336 1.3711-1.4336-1.3711-2.57031V311.67187h8.875v117.17188L265.5 431.50781l2.77344 2.21485 2.5586-2.21485-2.5586-2.66406V311.67187h106.51953V446.625l-2.51953 2.63672 2.51953 2.67969 2.44922-2.6797-2.44922-2.63671V311.67187h13.3164v145.64454l-1.03125.8203-3.24609 4.4375 4.27735 4.125 3.91406-4.125-.35547-4.4375-3.5586-.8203V311.67187h79.88672v168.65625h-32.15625l-3.34765-3.36718-3.29688 3.36719H144.08594l-.08203-.1797"/></g><path fill="#50fcfc" fill-rule="evenodd" d="M152.27734 458.13672l-1.5625-4.4375 2.16016-1.42188 1.23828-3.01562 3.08594-4.4414.11719-.16016.80468-4.27735 3.63282-3.23437 4.4375-.75781 1.21875-.44532 3.21875-2.85937 4.4375-1.14453.67578-.4336 3.76562-3.08984 4.4375-1.10547.84766-.24219 3.58984-1.55469 4.4375-2.15625v3.51563l-.34375.19531-4.09375 3.40625-4.4375-.1836-4.4375.61329-.73437.60156-3.70703 2.39063-4.4375 1.70703-.38282.33984-4.05468 1.48438-4.4375 1.55078-1.57422 1.40234-2.3086 4.4375-.4375 4.4414-.11718 1.21485-1.48828 3.22266.3203 4.4375 1.16798 2.16797 1.2539 2.26953 3.1836 1.64062 3.91797-1.64062.51953-.11719 1.7539.11719 2.6836.46094 2.03515-.46094 2.40235-.26172 4.4414-.60938 4.4375-.86718 4.4375-1.75781 4.4375-.00391 2.24219-.9375 2.19922-1.14063 4.4375-.93359 4.4375-.3711 4.4375-.47656 4.4414-.99218.8672-.52344 3.5703-3.2461 4.4375.00782 2.83985-1.19922-2.83984-1.23047-3.0547-3.21094-1.3828-1.39062-2.15235 1.39062-2.28516 1.53125-4.4414 1.14844-4.29297 1.76172-.14453.02344-4.4375 1.36718-2.01172-1.39062 1.33594-4.4414.67578-2.3711.41016-2.0664 4.02734-1.50391 4.4375.74218 3.73828-3.67578-3.73828-1.13672-4.4375-1.48828-4.4375-.89062-1.625-.92188-2.8125-1.60937-4.0586-2.82813-.3828-.19531v-3.51563l4.33593-.73046.10547-.03516.16016.03516 4.27734 2.54296 2.94531 1.89844 1.49219.35547 2.02344-.35547 2.41406-.48437 2.35547-3.95703 2.08594-3.4922 4.4375 1.39845 4.4375-.51172v5.33203l-4.4375.22656-1.50391 1.48828 1.5039 1.5664 4.4375.41798v5.8164l-1.875 1.07422 1.875 1.01563 3.7422 3.42187.6953 2.4961 4.4375-.85547 1.0625-1.64063-1.0625-.57812-3.92578-3.85938-.51172-.55078-4.4375-.52344v-5.8164l3.94141 2.45312.4961.26172 3.875 4.17578.5625.55469 2.15234-.55469-2.15234-1.1875-3.83594-3.25-.60156-.70312-2.00391-3.73438-2.4336-1.71484v-5.33203l4.4375-1.13281 1.10938-.69922 3.32813-.89063 3.10546.89063-1.125 4.4375 1.51172 4.4414.72656 4.4375.22266.14844 4.4375 2.32422v6.10156l-.55469.30078.5547.27344.33202-.27344-.33203-.30078v-6.10156l1.29297 1.96484 3.14453 2.63281 1.29297 1.8047-1.29297 1.3164-4.20312 3.1211-.23438.27343-4.4375 3.04297-1.48828 1.125-2.95313 1.60156-3.35546 2.83594-1.08203.71484-4.4375 1.375-4.4375-.03125-4.4375 1.75-4.44141.41016-1.16016.21875-3.27734 1.16797-4.4375.5586-4.4375.46483-4.4414.98438-4.4375.2461-3.29298 1.01562-1.14453.83984-4.4375 1.28516-4.4414.39844-4.4375.42968-4.4375-.23828-4.4375.72266-4.4375-.95313-3.3086-2.48437-1.13281-3.8086-.59766-.6289"/><path fill="#00e8fc" fill-rule="evenodd" d="M156.14844 458.13672l-.32031-4.4375 1.48828-3.22266.11718-1.21484.4375-4.4414 2.3086-4.4375 1.57422-1.40235 4.4375-1.55078 4.05468-1.48438.38282-.33984 4.4375-1.70703 3.70703-2.39063.73437-.60156v4.85938l-.39062.17968-4.05078 2.57031-4.4375 1.04688-4.4375-.40234-2.51563 1.22265-1.92187.65625-2.9375 3.78125-.15235 4.4414-.36328 4.4375.22266 4.4375 3.23047 3.66017 4.4375-.94532 4.4375-.05078 4.4375-.49219 4.4414-1.76562 1.72656-.40625 2.71094-1.23438 4.4375-2.78515 2.16797-.41797-2.16797-2.71485-.34765-1.72265.34765-.73047 1.36328-3.71094-1.36328-3.51562-2.58594-.92188-1.85156-.35937-4.16797-4.07813-.26953-.17969v-4.85937l4.4375-.61328 4.4375.1836 4.09375-3.40626.34375-.19531.38281.19531 4.0586 2.82813 2.8125 1.60937 1.625.92188 4.4375.89062 4.4375 1.48828 3.73828 1.13672-3.73828 3.67578-4.4375-.74218-4.02734 1.5039-.41016 2.0664-.67578 2.3711-1.33594 4.4414 2.01172 1.39063 4.4375-1.36718.14453-.02344 4.29297-1.76172 4.4414-1.14844 2.28516-1.53125 2.15234-1.39062 1.38282 1.39062 3.05469 3.21094 2.83984 1.23047-2.83984 1.19922-4.4375-.00781-3.57032 3.24609-.86719.52344-4.4414.99218-4.4375.47657-4.4375.37109-4.4375.9336-2.19922 1.14062-2.24219.9375-4.4375.0039-4.4375 1.75782-4.4375.86719-4.4414.60937-2.40235.26172-2.03515.46094-2.6836-.46094-1.7539-.11719-.51953.11719-3.91797 1.64062-3.1836-1.64062-1.2539-2.26953-1.16797-2.16797"/><path fill="#00d4fc" fill-rule="evenodd" d="M158.52344 458.13672l-.22266-4.4375.36328-4.4375.15235-4.4414 2.9375-3.78126 1.92187-.65625 2.51563-1.22265v2.96093l-4.4375.13282-1.9961 2.5664.14063 4.4414-.27344 4.4375.41797 4.4375 1.71094 1.9375 4.4375-.82812 4.4375-.4453 4.4375-.4922.39453-.17187-.39453-.9961-.8711-3.4414-.64453-4.4375-1.85937-4.4414-1.0625-.94532-4.4375-1.7539v-2.96094l4.4375.40234 4.4375-1.04688 4.05078-2.5703.39062-.1797.26953.1797 4.16797 4.07812 1.85156.35937 2.58594.92188 1.36328 3.51562-1.36328 3.71094-.34765.73047.34765 1.72265 2.16797 2.71485-2.16797.41797-4.4375 2.78515-2.71094 1.23438-1.72656.40625-4.4414 1.76562-4.4375.4922-4.4375.05077-4.4375.94531-3.23047-3.66015"/><path fill="#00c4fc" fill-rule="evenodd" d="M160.04297 458.13672l-.41797-4.4375.27344-4.4375-.14063-4.4414 1.9961-2.56641v1.21093l-1.0547 1.35547.4297 4.4414-.17578 4.4375.60937 4.4375.1914.21485 1.27344-.21484 2.11328-4.4375-1.17968-4.4375.77734-4.4414-2.98437-1.35548v-1.21093l4.4375-.13282 4.4375 1.75391v8.88672l-2.26172.9375 2.26172 1.0039.58203-1.0039-.58203-.9375V443.875l1.0625.94531 1.85937 4.4414.64453 4.4375.8711 3.44142.39453.99609-.39453.17187-4.4375.4922-4.4375.4453-4.4375.82813-1.71094-1.9375"/><path fill="#00b8fc" fill-rule="evenodd" d="M161.1289 449.26172l-.42968-4.4414 1.05469-1.35548v1.21485l-.11328.14062.11328.85938.3125-.85938-.3125-.14062v-1.21485l2.98437 1.35547-.77734 4.4414 1.17969 4.4375-2.11329 4.4375-1.27343.21485-.19141-.21484-.60938-4.4375.17579-4.4375"/><path fill="#00a8fc" fill-rule="evenodd" d="M161.7539 445.67969l-.11327-.85938.11328-.14062.3125.14062-.3125.85938"/><path fill="#00b8fc" fill-rule="evenodd" d="M170.6289 454.70313l-2.26171-1.00391 2.26172-.9375.58203.9375-.58203 1.0039"/><path fill="#00e8fc" fill-rule="evenodd" d="M219.45313 428.63672l-1.50391-1.5664 1.5039-1.48829 4.4375-.22656 2.4336 1.71484 2.0039 3.73438.60157.70312 3.83594 3.25 2.15234 1.1875-2.15234.55469-.5625-.55469-3.875-4.17578-.4961-.26172-3.9414-2.45312-4.4375-.41797"/><path fill="#fff" fill-opacity="0" fill-rule="evenodd" d="M223.89063 434.8711l-1.875 1.07421 1.875 1.01563 3.74218 3.42187.69531 2.4961 4.4375-.85547 1.0625-1.64063-1.0625-.57812-3.92578-3.85938-.51172-.55078-4.4375-.52344"/><path fill="#00e8fc" fill-rule="evenodd" d="M241.64453 440.65625l-.55469-.27344.5547-.30078.33202.30078-.33203.27344"/><path fill="#50fcfc" fill-rule="evenodd" d="M259.39844 437.3789l-3.0039-1.43359 3.0039-2.57031 1.3711 2.57031-1.3711 1.4336m8.875-3.65625L265.5 431.5078l2.77344-2.66406 2.5586 2.66406-2.5586 2.21485m106.51953 18.21875l-2.51953-2.6797 2.51953-2.63671 2.44922 2.63672-2.44922 2.67969m13.3164 14.7578l-4.27734-4.125 3.2461-4.4375 1.03125-.8203v2.3164l-2.71094 2.9414 2.71094 2.61329 2.48046-2.61328-2.48046-2.9414v-2.31641l3.55859.8203.35547 4.4375-3.91406 4.125"/><path fill="#00e8fc" fill-rule="evenodd" d="M388.10938 465.1875l-2.71094-2.61328 2.71094-2.9414v2.83593l-.09766.10547.09765.09765.08985-.09765-.08985-.10547v-2.83594l2.48047 2.9414-2.48046 2.61329"/><path fill="#00d4fc" fill-rule="evenodd" d="M388.10938 462.67188l-.09766-.09766.09765-.10547.08985.10547-.08985.09765"/><g clip-path="url(#d)"><path fill="#50fcfc" fill-rule="evenodd" d="M429.19531 480.32813h1.71094l1.58594-1.6172 1.60937 1.6172h1.73828l-3.34765-3.3672-3.29688 3.3672"/></g><g clip-path="url(#e)"><path fill="#00e8fc" fill-rule="evenodd" d="M430.90625 480.32813h3.19531l-1.60937-1.6172-1.58594 1.6172"/></g><g clip-path="url(#f)"><path fill="#fff" fill-opacity="0" fill-rule="evenodd" d="M467.9961 480.32813H468V311.67188h-.0039H468v168.65625h-.0039"/></g><path fill="#fff" fill-opacity="0" fill-rule="evenodd" d="M229.53906 419.40625l.23438 5.83594 9.95312-.39844-.23437-5.83594-9.95313.39844"/><path fill-rule="evenodd" d="M237.80078 422.57813l.01953.5078-6.28906.25391-.03125-.78906 4.48828-.17969-.0586-1.38671.5547-.02344.08984.5586.0625.25.09766.22655.15234.19532.21484.16406.30078.13281.39844.08985"/><g clip-path="url(#g)"><path fill="none" stroke="#000" stroke-linecap="round" stroke-linejoin="round" stroke-miterlimit="10" stroke-width=".5" d="M147.51172 480.36328l-7.02344-.0664"/></g><g clip-path="url(#h)"><path fill="none" stroke="#000" stroke-linecap="round" stroke-linejoin="round" stroke-miterlimit="10" stroke-width=".5" d="M147.51172 480.36328l1.13281 2.17578"/></g><g clip-path="url(#i)"><path fill="none" stroke="#000" stroke-linecap="round" stroke-linejoin="round" stroke-miterlimit="10" stroke-width=".5" d="M146.49219 480.35156l.5664 1.08985"/></g><g clip-path="url(#j)"><path fill="none" stroke="#000" stroke-linecap="round" stroke-linejoin="round" stroke-miterlimit="10" stroke-width=".5" d="M160.82422 480.46875l-7.01953-.27734"/></g><g clip-path="url(#k)"><path fill="none" stroke="#000" stroke-linecap="round" stroke-linejoin="round" stroke-miterlimit="10" stroke-width=".5" d="M160.82422 480.46875l1.0664 2.20703"/></g><g clip-path="url(#l)"><path fill="none" stroke="#000" stroke-linecap="round" stroke-linejoin="round" stroke-miterlimit="10" stroke-width=".5" d="M159.80469 480.42578l.53125 1.10547"/></g><g clip-path="url(#m)"><path fill="none" stroke="#000" stroke-linecap="round" stroke-linejoin="round" stroke-miterlimit="10" stroke-width=".5" d="M174.13281 480.61328l-7.0039-.5664"/></g><g clip-path="url(#n)"><path fill="none" stroke="#000" stroke-linecap="round" stroke-linejoin="round" stroke-miterlimit="10" stroke-width=".5" d="M174.13281 480.61328l.97266 2.25"/></g><g clip-path="url(#o)"><path fill="none" stroke="#000" stroke-linecap="round" stroke-linejoin="round" stroke-miterlimit="10" stroke-width=".5" d="M173.11328 480.53125l.48828 1.125"/></g><g clip-path="url(#p)"><path fill="none" stroke="#000" stroke-linecap="round" stroke-linejoin="round" stroke-miterlimit="10" stroke-width=".5" d="M187.45703 480.35547l-7.02344-.05078"/></g><g clip-path="url(#q)"><path fill="none" stroke="#000" stroke-linecap="round" stroke-linejoin="round" stroke-miterlimit="10" stroke-width=".5" d="M187.45703 480.35547l1.13672 2.17187"/></g><g clip-path="url(#r)"><path fill="none" stroke="#000" stroke-linecap="round" stroke-linejoin="round" stroke-miterlimit="10" stroke-width=".5" d="M186.4375 480.34766l.5664 1.08593"/></g><g clip-path="url(#s)"><path fill="none" stroke="#000" stroke-linecap="round" stroke-linejoin="round" stroke-miterlimit="10" stroke-width=".5" d="M200.76953 480.14844l-7.01953.36328"/></g><g clip-path="url(#t)"><path fill="none" stroke="#000" stroke-linecap="round" stroke-linejoin="round" stroke-miterlimit="10" stroke-width=".5" d="M200.76953 480.14844l1.26172 2.10156"/></g><g clip-path="url(#u)"><path fill="none" stroke="#000" stroke-linecap="round" stroke-linejoin="round" stroke-miterlimit="10" stroke-width=".5" d="M199.75 480.19922l.6289 1.05078"/></g><g clip-path="url(#v)"><path fill="none" stroke="#000" stroke-linecap="round" stroke-linejoin="round" stroke-miterlimit="10" stroke-width=".5" d="M214.08203 480.5625l-7.01172-.46875"/></g><g clip-path="url(#w)"><path fill="none" stroke="#000" stroke-linecap="round" stroke-linejoin="round" stroke-miterlimit="10" stroke-width=".5" d="M214.08203 480.5625l1.0039 2.24219"/></g><g clip-path="url(#x)"><path fill="none" stroke="#000" stroke-linecap="round" stroke-linejoin="round" stroke-miterlimit="10" stroke-width=".5" d="M213.0625 480.4961l.5 1.11718"/></g><g clip-path="url(#y)"><path fill="none" stroke="#000" stroke-linecap="round" stroke-linejoin="round" stroke-miterlimit="10" stroke-width=".5" d="M227.39453 480.59766l-7.00781-.53516"/></g><g clip-path="url(#z)"><path fill="none" stroke="#000" stroke-linecap="round" stroke-linejoin="round" stroke-miterlimit="10" stroke-width=".5" d="M227.39453 480.59766l.98438 2.24609"/></g><g clip-path="url(#A)"><path fill="none" stroke="#000" stroke-linecap="round" stroke-linejoin="round" stroke-miterlimit="10" stroke-width=".5" d="M226.375 480.51953l.49219 1.1211"/></g><g clip-path="url(#B)"><path fill="none" stroke="#000" stroke-linecap="round" stroke-linejoin="round" stroke-miterlimit="10" stroke-width=".5" d="M240.71875 480.34375l-7.02734-.02734"/></g><g clip-path="url(#C)"><path fill="none" stroke="#000" stroke-linecap="round" stroke-linejoin="round" stroke-miterlimit="10" stroke-width=".5" d="M240.71875 480.34375l1.14453 2.17188"/></g><g clip-path="url(#D)"><path fill="none" stroke="#000" stroke-linecap="round" stroke-linejoin="round" stroke-miterlimit="10" stroke-width=".5" d="M239.69531 480.33984l.57422 1.08594"/></g><g clip-path="url(#E)"><path fill="none" stroke="#000" stroke-linecap="round" stroke-linejoin="round" stroke-miterlimit="10" stroke-width=".5" d="M254.01563 479.96094l-6.98829.73437"/></g><g clip-path="url(#F)"><path fill="none" stroke="#000" stroke-linecap="round" stroke-linejoin="round" stroke-miterlimit="10" stroke-width=".5" d="M254.01563 479.96094l1.37109 2.03515"/></g><g clip-path="url(#G)"><path fill="none" stroke="#000" stroke-linecap="round" stroke-linejoin="round" stroke-miterlimit="10" stroke-width=".5" d="M253 480.07031l.6836 1.01563"/></g><g clip-path="url(#H)"><path fill="none" stroke="#000" stroke-linecap="round" stroke-linejoin="round" stroke-miterlimit="10" stroke-width=".5" d="M267.32813 479.92969l-6.98438.79687"/></g><g clip-path="url(#I)"><path fill="none" stroke="#000" stroke-linecap="round" stroke-linejoin="round" stroke-miterlimit="10" stroke-width=".5" d="M267.32813 479.92969l1.38671 2.02344"/></g><g clip-path="url(#J)"><path fill="none" stroke="#000" stroke-linecap="round" stroke-linejoin="round" stroke-miterlimit="10" stroke-width=".5" d="M266.3125 480.04688l.6914 1.01171"/></g><g clip-path="url(#K)"><path fill="none" stroke="#000" stroke-linecap="round" stroke-linejoin="round" stroke-miterlimit="10" stroke-width=".5" d="M280.65625 480.08984l-7.01172.47657"/></g><g clip-path="url(#L)"><path fill="none" stroke="#000" stroke-linecap="round" stroke-linejoin="round" stroke-miterlimit="10" stroke-width=".5" d="M280.65625 480.08984l1.29688 2.08203"/></g><g clip-path="url(#M)"><path fill="none" stroke="#000" stroke-linecap="round" stroke-linejoin="round" stroke-miterlimit="10" stroke-width=".5" d="M279.63672 480.16016l.64844 1.03906"/></g><g clip-path="url(#N)"><path fill="none" stroke="#000" stroke-linecap="round" stroke-linejoin="round" stroke-miterlimit="10" stroke-width=".5" d="M293.96484 480.02344l-7 .61328"/></g><g clip-path="url(#O)"><path fill="none" stroke="#000" stroke-linecap="round" stroke-linejoin="round" stroke-miterlimit="10" stroke-width=".5" d="M293.96484 480.02344l1.33594 2.0586"/></g><g clip-path="url(#P)"><path fill="none" stroke="#000" stroke-linecap="round" stroke-linejoin="round" stroke-miterlimit="10" stroke-width=".5" d="M307.29297 480.3125l-7.02735.03125"/></g><g clip-path="url(#Q)"><path fill="none" stroke="#000" stroke-linecap="round" stroke-linejoin="round" stroke-miterlimit="10" stroke-width=".5" d="M307.29297 480.3125l1.16406 2.16406"/></g><g clip-path="url(#R)"><path fill="none" stroke="#000" stroke-linecap="round" stroke-linejoin="round" stroke-miterlimit="10" stroke-width=".5" d="M320.4961 481.20703l-6.80079-1.75781"/></g><g clip-path="url(#S)"><path fill="none" stroke="#000" stroke-linecap="round" stroke-linejoin="round" stroke-miterlimit="10" stroke-width=".5" d="M319.50781 480.95313l.28516 1.1914"/></g><g clip-path="url(#T)"><path fill="none" stroke="#000" stroke-linecap="round" stroke-linejoin="round" stroke-miterlimit="10" stroke-width=".5" d="M333.89453 480.77734l-6.96875-.89843"/></g><g clip-path="url(#U)"><path fill="none" stroke="#000" stroke-linecap="round" stroke-linejoin="round" stroke-miterlimit="10" stroke-width=".5" d="M332.88281 480.64453l.4336 1.14844"/></g><g clip-path="url(#V)"><path fill="none" stroke="#000" stroke-linecap="round" stroke-linejoin="round" stroke-miterlimit="10" stroke-width=".5" d="M347.21094 479.86719l-6.96875.92187"/></g><g clip-path="url(#W)"><path fill="none" stroke="#000" stroke-linecap="round" stroke-linejoin="round" stroke-miterlimit="10" stroke-width=".5" d="M346.19531 480l.71485 1"/></g><g clip-path="url(#X)"><path fill="none" stroke="#000" stroke-linecap="round" stroke-linejoin="round" stroke-miterlimit="10" stroke-width=".5" d="M360.42578 479.38672l-6.76953 1.88281"/></g><g clip-path="url(#Y)"><path fill="none" stroke="#000" stroke-linecap="round" stroke-linejoin="round" stroke-miterlimit="10" stroke-width=".5" d="M359.4414 479.66016l.84376.89062"/></g><g clip-path="url(#Z)"><path fill="none" stroke="#000" stroke-linecap="round" stroke-linejoin="round" stroke-miterlimit="10" stroke-width=".5" d="M373.6836 479.20703l-6.65626 2.2461"/></g><g clip-path="url(#aa)"><path fill="none" stroke="#000" stroke-linecap="round" stroke-linejoin="round" stroke-miterlimit="10" stroke-width=".5" d="M372.71484 479.53125l.89454.84375"/></g><g clip-path="url(#ab)"><path fill="none" stroke="#000" stroke-linecap="round" stroke-linejoin="round" stroke-miterlimit="10" stroke-width=".5" d="M386.64453 478.45703l-5.94922 3.74219"/></g><path fill="none" stroke="#000" stroke-linecap="round" stroke-linejoin="round" stroke-miterlimit="10" stroke-width=".5" d="M385.78125 479.0039l1.0625.60938"/><g clip-path="url(#ac)"><path fill="none" stroke="#000" stroke-linecap="round" stroke-linejoin="round" stroke-miterlimit="10" stroke-width=".5" d="M395.3086 477.24219l3.35546 6.17187"/></g><g clip-path="url(#ad)"><path fill="none" stroke="#000" stroke-linecap="round" stroke-linejoin="round" stroke-miterlimit="10" stroke-width=".5" d="M407.3125 482.17969l5.97656-3.69922"/></g><g clip-path="url(#ae)"><path fill="none" stroke="#000" stroke-linecap="round" stroke-linejoin="round" stroke-miterlimit="10" stroke-width=".5" d="M427.09766 480.8086l-6.96094-.96094"/></g><g clip-path="url(#af)"><path fill="none" stroke="#000" stroke-linecap="round" stroke-linejoin="round" stroke-miterlimit="10" stroke-width=".5" d="M426.08594 480.66797l.42187 1.15234"/></g><g clip-path="url(#ag)"><path fill="none" stroke="#000" stroke-linecap="round" stroke-linejoin="round" stroke-miterlimit="10" stroke-width=".5" d="M440.19922 481.61719l-6.53516-2.57813"/></g><g clip-path="url(#ah)"><path fill="none" stroke="#000" stroke-linecap="round" stroke-linejoin="round" stroke-miterlimit="10" stroke-width=".5" d="M439.25 481.24219l.13672 1.21875"/></g><g clip-path="url(#ai)"><path fill="none" stroke="#000" stroke-linecap="round" stroke-linejoin="round" stroke-miterlimit="10" stroke-width=".5" d="M453.28125 482.10156l-6.0664-3.54687"/></g><g clip-path="url(#aj)"><path fill="none" stroke="#000" stroke-linecap="round" stroke-linejoin="round" stroke-miterlimit="10" stroke-width=".5" d="M466.65625 481.99219l-6.1875-3.32813"/></g><g clip-path="url(#ak)"><path fill="none" stroke="#000" stroke-linecap="round" stroke-linejoin="round" stroke-miterlimit="10" stroke-width=".5" d="M147.50781 467.19922l-7.01562-.3711"/></g><path fill="none" stroke="#000" stroke-linecap="round" stroke-linejoin="round" stroke-miterlimit="10" stroke-width=".5" d="M147.50781 467.19922l1.03516 2.22656m12.27734-2.17969l-7.01172-.46484m7.01172.46484l1.00781 2.23438m12.3125-2.375l-7.02343-.1836m7.02344.1836l1.09765 2.19922m12.21094-2.55469l-7.00781.52734m7.0078-.52734l1.3086 2.07813m11.97266-2.3711l-6.9375 1.11328m6.9375-1.11328l1.48047 1.95703m11.75781-2.3125l-6.78516 1.82422m6.78516-1.82422l1.67578 1.79688m-2.66406-1.53125l.83984.89844m13.4375-1.25782l-6.73437 2.01172m6.73437-2.01172l1.72266 1.7461m-2.70313-1.45313l.86328.8711m13.42188-1.19922l-6.71094 2.08203m6.71094-2.08203l1.74219 1.72656m-2.71875-1.42188l.8711.86329m13.39843-1.22657l-6.67188 2.19922m6.67188-2.19922l1.77344 1.69532m-2.7422-1.375l.88673.84765m13.48437-.85937l-6.84375 1.58203m6.84375-1.58203l1.61328 1.85156m-2.60937-1.6211l.80469.92579m13.39843-1.53125l-6.6289 2.33203m6.6289-2.33203l1.8047 1.66015M279.5 466.1875l.90234.82813m13.28907-1.39454l-6.45313 2.78516m6.45313-2.78516l1.91796 1.53516m-2.85546-1.1289l.95703.76562m13.28125-1.20313l-6.42188 2.84766m6.42188-2.84766l1.9336 1.51172m11.19921-1.86718l-6.0586 3.55859m6.0586-3.5586l2.08984 1.28516m11.125-1.44922l-5.85547 3.88672m5.85547-3.88672l2.15625 1.16797m11.0586-1.3086l-5.66016 4.16798m5.66016-4.16797l2.21484 1.0625m10.85938-1.35547l-5.17579 4.7539m5.17579-4.7539l2.3125.8164m9.86718-1.64062l-2.90625 6.40234m2.90625-6.40234l2.44922-.15234m8.57031-.0586l1.6875 6.82422m-1.4414-5.83203l.91406-.8164m12.45313-.23438l1.08984 6.9414m13.79297-3.46874l-.01953-.20313-.0586-.1914-.09375-.17579-.46093-.375-.19141-.0586-.19922-.01952-.19922.01953-.1914.0586-.45704.375-.09765.17577-.0586.19141-.01953.20313.01953.19921.0586.19141.09765.17578.45704.375.1914.0586.19922.01953.19922-.01953.1914-.0586.46094-.375.09375-.17578.0586-.1914.01953-.19922m15.80469-.1172l-7.02344.23048m20.32812-.39844l-7.0039.5664m5.98437-.48437l.66016 1.03516m13.67969-.65625l-7.01563-.35547m5.9961.30469l.51953 1.10937m13.73828-1.99219l-6.86328 1.51172m5.86718-1.28906l.79297.9336"/><g clip-path="url(#al)"><path fill="none" stroke="#000" stroke-linecap="round" stroke-linejoin="round" stroke-miterlimit="10" stroke-width=".5" d="M147.51172 453.7461l-7.02344-.09376"/></g><path fill="none" stroke="#000" stroke-linecap="round" stroke-linejoin="round" stroke-miterlimit="10" stroke-width=".5" d="M147.51172 453.7461l1.125 2.17968m12.17969-2.53125l-7 .60938m7-.60938l1.33593 2.0586m11.87891-2.64063l-6.80078 1.77344m5.8086-1.51563l.83202.90235m13.46875-1.1836l-6.78906 1.82032m5.80078-1.5547l.83594.89454m12.89453-2.34375l-5.64453 4.1875m4.82422-3.57813l1.10547.52735m13.375-.5664l-6.33203 3.04687m5.41015-2.60547l.98828.72656m13.26953-1.1211l-6.375 2.95313m6.375-2.95312l1.95704 1.48047m10.89843-2.21875l-5.45312 4.42968m5.45312-4.42969l2.25782.95313m11.04297-.97266l-5.42579 4.46485m5.42578-4.46485l2.26563.94141m-3.05469-.28906l1.13281.46875m13.3086-.6289l-6.10156 3.48437m6.10156-3.48438l2.07422 1.3125M266 452.46484l1.03516.65625m13.04687-1.35937l-5.86328 3.8711m5.86328-3.8711l2.15625 1.17578m-3.00781-.60937l1.07812.58593m13.12891-1.08593l-5.94531 3.74218m5.94531-3.74218l2.1289 1.21875m-2.99218-.67579l1.0625.60938m13.08594-1.20313l-5.88282 3.84375m5.88282-3.84375l2.14843 1.1836m-3.0039-.625l2.14843 1.1836m12.0625-1.6797l-5.96484 3.71875m5.96484-3.71875l2.125 1.23047m-2.99218-.6875l1.0625.61328m13.16797-1.07421l-6.0625 3.55468m6.0625-3.55468l2.08984 1.28515m-2.97266-.76953l1.04688.64453m13.01172-1.38281l-5.78125 3.9961m5.78125-3.9961l2.17968 1.1289m-3.02343-.54687l1.08984.5625m12.78906-1.4961l-5.22265 4.70313m5.22265-4.70312l2.3047.83984m10.30858-1.4414l-3.8164 5.90234m3.8164-5.90235l2.44141.21094m9.6914-.69531l-1.45312 6.875m1.24219-5.875l1.17578-.33984m8.88281.57812l5.48047 4.39844m-4.6836-3.76172l.23048-1.20313m11.51562 2.66797l7.02344.19532m8.78906-3.46094l2.02735 6.72656m15.21875-5.32422l-5.83204 3.92188M439 452.30859l1.08203.57813m10.01563-2.69922l.29687 7.02344m-.2539-6l1.05859-.6211m15.42578 1.38672l-6.125 3.44532m5.23437-2.94532l1.03125.66407"/><g clip-path="url(#am)"><path fill="none" stroke="#000" stroke-linecap="round" stroke-linejoin="round" stroke-miterlimit="10" stroke-width=".5" d="M147.5 440.08203l-7 .60156"/></g><path fill="none" stroke="#000" stroke-linecap="round" stroke-linejoin="round" stroke-miterlimit="10" stroke-width=".5" d="M147.5 440.08203l1.33594 2.0586m11.77734-2.96485l-6.59766 2.41406m6.59766-2.41406l1.82813 1.63672M174 439.39062l-6.73828 1.98438M174 439.39062l1.71875 1.75391m11.6875-1.35937l-6.92188 1.1953m6.92188-1.1953l1.5039 1.9414m11.22657-3.35937l-5.7539 4.03125m4.91796-3.44531l1.09375.55859m12.75781-1.51563L208 442.77344m4.40234-4.08203l1.16016.40234m13.29297-.59766l-5.92969 3.77344m5.0664-3.22266l1.06641.60547m12.19922-2.12109l-4.10547 5.70313m3.50782-4.8711l1.21875.16406m12.32422-1.23046l-3.36329 6.17187m2.8711-5.27344l1.23047.01172m13.64843-.0039l-5.5078 4.35937m5.5078-4.35938l2.25.98438m11.14063-.88672l-5.66016 4.16797m5.66016-4.16797l2.21094 1.0586m10.91015-1.29688l-5.27344 4.64453m5.27344-4.64453l2.29688.86328m11.17968-.66797l-5.59765 4.25m5.59765-4.25l2.23047 1.03125m-3.04297-.41015l1.11329.51172m12.87109-1.3086l-5.3086 4.60547m5.3086-4.60547l2.28906.8789m-3.0625-.21093l1.14453.4414m12.7461-1.3203l-4.91016 5.02734m4.91016-5.02735l2.35547.6875m-3.07032.04297l1.17578.34375m12.85547-1.07422l-4.91406 5.02344m4.91406-5.02344l2.35547.69532m-3.07031.03515l1.17578.34766m11.71875-1.82031l-2.64453 6.5078m2.26172-5.5625l1.21875-.125m11.9414-.99218l-1.5703 6.85156m1.5703-6.85156l2.3711-.63672m10.26562.55078l-.21093 7.02344m.17968-6l1.09766-.54297m12.11328-.48047l.0586 7.02735m-.05079-6.00781l1.07813-.58204m10.45312.0586l3.60938 6.03125m-3.08203-5.15235l.63281-1.05078m15.54297.05078l-3.16797 6.27344m2.70703-5.35937l1.22656-.02735m14.32813 1.23438l-6.72656 2.03125m5.75-1.73438l.86328.86719m13.57031-.41016l-7.00781.52735m5.98828-.45313l.65625 1.03907m13.64453-.28907l-6.9375-1.1211m5.92578.95704l.39844 1.16016"/><g clip-path="url(#an)"><path fill="none" stroke="#000" stroke-linecap="round" stroke-linejoin="round" stroke-miterlimit="10" stroke-width=".5" d="M147.51172 427.19531l-7.02344-.2539"/></g><path fill="none" stroke="#000" stroke-linecap="round" stroke-linejoin="round" stroke-miterlimit="10" stroke-width=".5" d="M147.51172 427.19531l1.07031 2.20703M160.78125 426.5l-6.9336 1.13672m6.9336-1.13672l1.48828 1.95313m11.80469-2.08985l-6.88672 1.41016m6.88672-1.41016l1.5625 1.89453m11.625-2.34765l-6.63281 2.3164m6.6328-2.3164l1.80079 1.66406m11.2539-2.24219l-6.11327 3.47266m5.22265-2.96485l1.03516.65625m12.9414-1.51562l-5.65234 4.17578m4.82813-3.5664l1.10937.52734m12.27734-1.88672l-4.14843 5.67578m15.8125-6.32422l-.84766 6.97266m15.95703-6.21094l-4.4336 5.44922m18.96876-3.44922l-6.875 1.44922m19.57812-2.8086l-5.65234 4.16797m4.83203-3.5625l1.10547.53125m12.85156-1.36328l-5.29297 4.6211m5.29297-4.6211l2.29297.875m11.48437-.19922l-6.21875 3.26954m6.21875-3.26954l2.02735 1.37891m10.69531-2.19531l-5.03516 4.90234m5.03516-4.90234l2.33594.7461m-3.07031-.03126l1.16796.3711m12.98829-.97266l-5.2461 4.67578m5.2461-4.67578l2.30078.85156m-3.0664-.17187l1.15233.42578m12.69532-1.33985l-4.78516 5.14454m4.78516-5.14454l2.3711.63282m11.39843-.1211l-5.6914 4.1211m5.6914-4.1211l2.20312 1.07813m11.30078-.78906l-6.0664 3.54296m6.0664-3.54296l2.08594 1.28906m-2.96875-.77344l1.04297.64453m12.71875-1.7539l-5.19531 4.73046m5.19531-4.73046l2.3086.82421m-3.06641-.13671l1.15625.41406m13.61719.0586l-6.59766 2.41015m6.59766-2.41016l1.82812 1.64063m-2.78516-1.28907l1.82422 1.64063m12.47266-1.92188l-6.64844 2.27344m6.64844-2.27344l1.79297 1.67579m-2.75781-1.34766l.89453.83984m13.32422-1.33984l-6.52344 2.61328m6.52344-2.61328l1.875 1.58594m-2.82422-1.20313l.9375.78906m13.2461-1.35156L433.75 428.5547m6.36328-2.97266l1.96094 1.47266m-2.88672-1.04297l.98047.73828m13.58984.38281l-7.02344-.125m7.02344.125l1.11328 2.1836m12.17188-1.77735l-6.96485-.9414"/><g clip-path="url(#ao)"><path fill="none" stroke="#000" stroke-linecap="round" stroke-linejoin="round" stroke-miterlimit="10" stroke-width=".5" d="M467.04297 427.53906l.85156 2.30469"/></g><g clip-path="url(#ap)"><path fill="none" stroke="#000" stroke-linecap="round" stroke-linejoin="round" stroke-miterlimit="10" stroke-width=".5" d="M147.44922 414.42578l-6.89844-1.34375"/></g><path fill="none" stroke="#000" stroke-linecap="round" stroke-linejoin="round" stroke-miterlimit="10" stroke-width=".5" d="M146.44531 414.23047l.35938 1.17187m13.97656-2.21875l-6.9336 1.14063m5.92579-.97656l.74219.97656m13.37109-1.89453l-6.51172 2.64453m5.5625-2.25781l.9414.78515m13.27344-1.28515l-6.41406 2.875m5.48047-2.45704l.96875.75391m12.9336-1.77344l-5.72266 4.07813m4.89062-3.48438l1.09766.54688m12.30078-1.91016l-4.22266 5.61719m3.60547-4.80078l1.21485.1914m7.25.76172l6.71093 2.07422m-5.73437-1.76953l-.23047-1.20703m12.41406 2.07422l7.01953-.26563m-6 .22657l-.61718-1.0586m12.9375.51563l6.96875.89843m10.0664-3.95703l-.46875 7.01172m15.8086-6.19531l-4.51953 5.38281m3.86328-4.59765l1.19922.2539m10.71484-1.85547l-.40235 7.01563m.34375-5.9961l1.11329-.51171m14.4375.41406l-4.75782 5.17187m4.06641-4.42187l1.1836.3125m12.6875-1.17969l-4.48829 5.40625m3.83594-4.6211l1.19922.25m12.78516-1.01952l-4.52344 5.375m3.86719-4.59375l1.19921.2539m13.13672-.67969l-5.2539 4.66407m5.2539-4.66407l2.30078.85547m11.89454 1.26172l-7.01172.42969m7.01172-.42969l1.28515 2.08985m11.8789-2.92188l-6.70702 2.09375m6.70703-2.09375l1.7461 1.72656m-2.72266-1.42187l1.74609 1.72656m12.45312-2.28516l-6.52734 2.60157m6.52734-2.60157l1.875 1.58204m-2.82421-1.20313l1.875 1.58203m12.36718-2.01953l-6.48047 2.71484m6.48047-2.71484l1.89844 1.55469m-2.83984-1.16016l1.89843 1.55469m-2.84375-1.15625l.94922.77344m14.22266-1.63282l-6.42188 2.85157m6.42188-2.85157l1.9336 1.51563m-2.8672-1.10156l1.9336 1.51562m12.50781-1.3711l-6.8086 1.73438m6.8086-1.73437l1.65235 1.8164m-2.64063-1.5625l1.64844 1.8125m12.69922-1.87109l-6.89453 1.34375m6.89453-1.34375l1.54687 1.90625m-2.55078-1.71094l.77344.95313m13.375-1.74219l-6.55469 2.53125m6.55469-2.53125l1.85547 1.60547m-2.8086-1.23828l.92578.80078m13.16407-1.55469l-6.19922 3.30469"/><g clip-path="url(#aq)"><path fill="none" stroke="#000" stroke-linecap="round" stroke-linejoin="round" stroke-miterlimit="10" stroke-width=".5" d="M466.66016 412.10156l2.03906 1.36719"/></g><g clip-path="url(#ar)"><path fill="none" stroke="#000" stroke-linecap="round" stroke-linejoin="round" stroke-miterlimit="10" stroke-width=".5" d="M147.42578 399.66406l-6.85156 1.54688"/></g><path fill="none" stroke="#000" stroke-linecap="round" stroke-linejoin="round" stroke-miterlimit="10" stroke-width=".5" d="M147.42578 399.66406l1.60156 1.85938m11.60547-2.23828l-6.63672 2.30859m6.63672-2.3086l1.80078 1.66407m11.41407-1.92188l-6.4375 2.82032m5.5-2.41016l.96484.76172m11.64063-2.90235l-3.14063 6.28516m2.6836-5.3711l1.22656-.03124m8.29687-.01563l5.35547 4.54688m-4.57813-3.88281l.26172-1.19922m12.39453.40234l5.1211 4.8125m-4.3789-4.10938l.32421-1.18359m11.6836 1.27735l6.24609 3.21875m-5.33594-2.75l-.01562-1.22657m12.4414.72266l6.20703 3.29297m-5.30468-2.8164v-1.22657m15.01562-1.08203l1.0039 6.95312m-.85937-5.9414l.99219-.72657m9.26172 2.38282l6.83594 1.61718m-5.84375-1.3828l-.3086-1.1875m12.79297.4414l6.51172 2.64062m-5.5625-2.2539l-.1289-1.22266m13.89843-.82813l3.70313 5.97266m-3.16407-5.10547l.6172-1.0586m17.45702 3.86329l-6.89062-1.3711m19.97265-.73827l-6.42578 2.84375m5.49219-2.4297l.96484.75782m13.32813-1.0625l-6.51563 2.625m6.51563-2.625l1.8789 1.57813m11.62891-.92579l-6.89844 1.32422m6.89844-1.32422l1.53906 1.91016m11.82813-.9414l-7.0039-.61329m5.98437.52344l.48047 1.1289m13.86328-1.42577l-7.02344.15625m7.02344-.15625L375.0703 402.5m11.67578-3.76172l-6.14843 3.40235m6.14843-3.40235l2.0547 1.33594m-2.94923-.83985l1.02735.66797m13.54296-.20703l-6.87109 1.48828m6.8711-1.48828l1.58203 1.8711m-2.58204-1.65625l1.58594 1.875m12.6914-2.23829l-6.79687 1.78516m6.79688-1.78515l1.66406 1.80078m-2.65234-1.54297l1.66406 1.80469m12.54687-2.3672l-6.60937 2.39063m6.60937-2.39062l1.82032 1.64453m-2.78125-1.29688l1.8164 1.64454m12.45703-1.9922l-6.60546 2.39063m6.60546-2.39062l1.82032 1.64844m-2.78125-1.30079l.91015.82422m13.33985-1.2461l-6.55078 2.54298m6.55078-2.54297l1.85547 1.60156m-2.8086-1.23437l.92578.80078M466.76562 399l-6.41015 2.8789"/><g clip-path="url(#as)"><path fill="none" stroke="#000" stroke-linecap="round" stroke-linejoin="round" stroke-miterlimit="10" stroke-width=".5" d="M466.76563 399l1.9414 1.5039"/></g><path fill="none" stroke="#000" stroke-linecap="round" stroke-linejoin="round" stroke-miterlimit="10" stroke-width=".5" d="M465.83594 399.41797l.96875.7539"/><g clip-path="url(#at)"><path fill="none" stroke="#000" stroke-linecap="round" stroke-linejoin="round" stroke-miterlimit="10" stroke-width=".5" d="M146.64844 384.8125l-5.29688 4.6211"/></g><path fill="none" stroke="#000" stroke-linecap="round" stroke-linejoin="round" stroke-miterlimit="10" stroke-width=".5" d="M145.8789 385.48438l1.14454.4375m12.9961-1.03907l-5.41017 4.48047m5.41016-4.48047l2.26953.9336m11.35156-.50391l-6.02343 3.6211m6.02344-3.6211l2.10546 1.26563m11.23828-1.21485l-6.07812 3.51953m6.07813-3.51953l2.08203 1.29688m11.6914.8125l-6.99219-.69922m20.10938-.85547l-6.59766 2.41015m5.63672-2.05859l.91406.8164m13.54297.50782l-6.96093-.9414m6.96093.9414l.85157 2.30078m12.41015-1.9961l-6.85547-1.55077m6.85547 1.55078l.64453 2.36719m-1.64062-2.59375l.32031 1.18359m14.0664-1.46485l-7.0078-.53515m7.0078.53515l.98438 2.25m-2.0039-2.32812l.49218 1.125m13.85157-1.29297l-7.02735-.04297m7.02735.04297l1.14062 2.17188m-2.16015-2.1797l.5664 1.08595m13.7539-1.42579l-6.99609.65235m6.9961-.65235l1.34765 2.05079m11.98047-1.63282l-7.02343-.18359m7.02343.1836l1.09766 2.1953m12.15234-1.59765l-6.89062-1.3789m5.88672 1.17968l.35156 1.17188m14.03125-1.46485l-7.01953-.39453m5.9961.33594l.51562 1.11719m13.76562-1.91407l-6.90234 1.31641m5.89844-1.125l.76562.95703m13.51953.3164l-6.83984-1.61327m5.84765 1.3789l.3125 1.1875m13.96485-2.6836l-6.77735 1.84767m6.77735-1.84766l1.6836 1.78906m11.55468-2.03125l-6.625 2.33594m6.625-2.33594l1.8086 1.66016m11.2578-2.21875l-6.125 3.44922m6.125-3.44922l2.06641 1.32422m-2.96094-.82032l1.03516.66016m13.3164-.875l-6.41015 2.8711m6.41016-2.8711l1.9375 1.5039m-2.8711-1.08593l.96875.75m13.26563-1.20703l-6.3789 2.94922m6.3789-2.94922l1.95312 1.48437m-2.88281-1.05469l1.95313 1.48438m12.27343-1.94922l-6.34375 3.01953m6.34375-3.01953l1.97266 1.45703m-2.89453-1.01953l.98437.73047m13.125-1.41406l-6.08984 3.51172m6.08984-3.51172l2.07813 1.30469m-2.96485-.79297l1.03907.65234m13.17968-1.13281l-6.125 3.44922m6.125-3.44922l2.06641 1.32422m11.5664-.56641l-6.7578 1.9336"/><g clip-path="url(#au)"><path fill="none" stroke="#000" stroke-linecap="round" stroke-linejoin="round" stroke-miterlimit="10" stroke-width=".5" d="M466.9414 386.15625l1.70313 1.76953"/></g><path fill="none" stroke="#000" stroke-linecap="round" stroke-linejoin="round" stroke-miterlimit="10" stroke-width=".5" d="M465.95703 386.4375l.85156.88281"/><g clip-path="url(#av)"><path fill="none" stroke="#000" stroke-linecap="round" stroke-linejoin="round" stroke-miterlimit="10" stroke-width=".5" d="M141.1211 375.82031l5.7578-4.02344"/></g><path fill="none" stroke="#000" stroke-linecap="round" stroke-linejoin="round" stroke-miterlimit="10" stroke-width=".5" d="M155.59375 370.7461l3.4414 6.125m12.98048-6.29298l-2.76954 6.46094m2.3672-5.51953l1.22265-.10156m13.9336.29687l-5.64845 4.1836m4.82422-3.57422l1.10938.52734m13.6289.15625l-6.84375 1.59766m6.84375-1.59766l1.61328 1.85156m11.78125-.79296l-7.0078-.51563m7.0078.51563l.9922 2.24609m11.77343-.59766l-5.90625-3.8125m5.90625 3.8125l-.20703 2.44141m-.65234-2.9961l-.10547 1.22266m14.6289-1.3711l-6.60156-2.40624m6.60156 2.40625l.33985 2.42969m-1.30078-2.78125l.16796 1.21484m14.31641-1.92188l-7.01953-.28906m7.01953.28906l1.0625 2.21094m12.2539-2.3125l-7.02343-.08594m7.02344.08594l1.125 2.17969m12.18359-2.4375l-7.01172.42578m7.01172-.42578l1.28125 2.09375m12.03906-1.79297l-7.02344-.17578m7.02344.17578l1.09766 2.19531m12.0586-3.33593l-6.70313 2.10937m6.70312-2.10937l1.75 1.72265m11.72656-.72265l-7.02734.10546m7.02735-.10546l1.18359 2.15234m12.01953-1.21094l-6.80078-1.77344m6.80078 1.77344l.5664 2.38672m12.79298-2.59375l-6.89454-1.35937m6.89454 1.35937l.71484 2.34766m12.66406-3.14453l-7.01953.23437m7.01953-.23437l1.22656 2.125m12.08985-1.89063l-7.02344-.23437m7.02344.23437l1.07812 2.20313m11.86719-3.89063l-6.28516 3.14063m6.28516-3.14063l2 1.42188m11.2461-1.5586l-6.14454 3.41406m6.14453-3.41406l2.0586 1.33594m-2.95313-.83984l1.03125.66796m13.21875-1.08984l-6.22265 3.26563m6.22265-3.26563l2.02344 1.38672m-2.92969-.91016l1.01172.69141m12.85156-1.71484l-5.5078 4.35937m5.5078-4.35937l2.2461.98046m-3.04688-.34765l1.125.49219m12.97266-1.14844l-5.47656 4.40234m5.47656-4.40234l2.25781.96875m-3.05078-.32813l1.125.48438m13.04688-1.04297l-5.60157 4.24219m5.60156-4.24219l2.22657 1.03125m11.46875-.40625l-6.35938 2.99219"/><g clip-path="url(#aw)"><path fill="none" stroke="#000" stroke-linecap="round" stroke-linejoin="round" stroke-miterlimit="10" stroke-width=".5" d="M466.74219 372.3125l1.96484 1.46875"/></g><g clip-path="url(#ax)"><path fill="none" stroke="#000" stroke-linecap="round" stroke-linejoin="round" stroke-miterlimit="10" stroke-width=".5" d="M142.57813 363.70703l2.84375-6.42578"/></g><path fill="none" stroke="#000" stroke-linecap="round" stroke-linejoin="round" stroke-miterlimit="10" stroke-width=".5" d="M154.92188 363.0625l4.78906-5.14063m-4.09375 4.39454L154.43359 362m12.6875-1.3086l7.01563-.39452m-5.99219.33593l-.63672-1.05078m13.26563-.59765L187.11719 362m13.53515-2.42188l-6.78515 1.83204m5.79687-1.56641l.83985.89453m13.4375.76563l-6.73047-2.02344m5.75 1.73047l.23828 1.20312m13.45312.25l-5.52343-4.34375m5.52343 4.34375l-.43359 2.41797m13.70703-2.36719l-5.4414-4.4453m4.65234 3.80077l-.24219 1.20313m14.83984-1.35938l-6.42578-2.84375m5.4922 2.42969l.08593 1.22266m14.39453-1.55079l-6.89453-1.35937m5.89453 1.16016l.35547 1.17578m13.99219-1.16016L273.67187 360m5.94532.84375l.41797 1.15234m13.80859-.53515l-6.7539-1.9375m5.76952 1.65625l.25782 1.19922m13.98437-.7422l-6.64453-2.28905m5.67969 1.95703l.1914 1.21094m14.23438-1.45704l-6.9336-1.1289m5.92579.96484l.39453 1.16016m12.3125 1.42578l-3.69922-5.97266m3.16016 5.10156l-.6172 1.0625m15.38673-1.01171l-5.53125-4.33594m4.72656 3.70703l-.21484 1.20703m14.58984-.94922l-6.04297-3.58984m5.16406 3.0664l-.05859 1.22657m14.35547-.88672l-6.2461-3.22266m6.2461 3.22266l.02734 2.45312m13.66406-3.74218l-7-.64454m7 .64454l.94532 2.26171m11.8789-4.39453l-6.01953 3.6211m5.14453-3.09375l1.05079.6289m12.0664-2.27734l-3.8711 5.86328m3.8711-5.86328l2.4414.23047m10.7422-.3164l-3.60938 6.03124m3.60938-6.03125l2.44921.125m10.70704-.21484l-3.29297 6.21094m3.29296-6.21094h2.45313m11.6914.61328l-4.95312 4.98828M452.72266 358l2.34765.70703m10.8125-.85156l-4.64062 5.27344m3.96484-4.50782l1.19531.28516"/><g clip-path="url(#ay)"><path fill="none" stroke="#000" stroke-linecap="round" stroke-linejoin="round" stroke-miterlimit="10" stroke-width=".5" d="M140.5 346.85938l7 .64062"/></g><path fill="none" stroke="#000" stroke-linecap="round" stroke-linejoin="round" stroke-miterlimit="10" stroke-width=".5" d="M154.27344 348.9336l6.08594-3.51173m-5.20313 3l-1.03906-.64843m14.41406 2.22265l4.19922-5.6328m-3.58984 4.8125l-1.21094-.1875m12.66797-.7422l6.6953-2.13671m-5.72265 1.82421l-.875-.85546m13.10156.70312l6.92579-1.20703m-5.91797 1.03125l-.75-.96875m13.4414 2.23437l6.16016-3.3828m-5.26563 2.89062l-1.02343-.67188m17.29297 2.89844l-1.53907-6.85547m1.31641 5.85938l-.9336.79687m13.60548.28516l.1914-7.02735m9.73438 3.0586l6.96875.91015m-5.95313-.77734l-.4336-1.14844m13.7422-1.01953l4.95312 4.98047m-4.23438-4.25781l.36329-1.17188m12.27343.41016l4.8711 5.0625m-4.8711-5.0625l.76172-2.33594m11.96094 3.08594l6.0586 3.5586m-5.1797-3.04298l.0547-1.22265m12.0039 3.35546l6.8086-1.73828m-5.81641 1.48438l-.82422-.90625m16.10547 3.77734l.89453-6.97265m-.76563 5.95703l-1.14453.4336m15.03125.60155l-.50781-7.01171m.4336 5.99218l-1.03907.65235m13.1914.23437l1.96876-6.7461m-1.6836 5.76563l-1.19921.25m15.78125.82422l-1.13282-6.9336m.96485 5.92579l-.97657.74219m14.54297.25l-1.30469-6.90235m1.1172 5.89844l-.95704.76953m16.13281-.58203l-4.64843-5.26953m3.97265 4.5039l-.42969 1.14844m15.20704-1.38672l-6.22266-3.2578m5.32031 2.78124l.00781 1.22656m13.69141-4.7539l-5.1836 4.7461m4.4297-4.0547l1.15625.41016m11.32421-2.09375l-2.0078 6.73438m1.71483-5.75782l1.20313-.24219m12.4961-.70703l-2.19141 6.67579m2.1914-6.67579l2.41797-.41796m11.73828.82421l-3.875 5.86329m3.3125-5.01172l1.21875.11718m13.76563.20704l-6.08594 3.51171"/><g clip-path="url(#az)"><path fill="none" stroke="#000" stroke-linecap="round" stroke-linejoin="round" stroke-miterlimit="10" stroke-width=".5" d="M466.60547 345.42188l2.07812 1.30078"/></g><g clip-path="url(#aA)"><path fill="none" stroke="#000" stroke-linecap="round" stroke-linejoin="round" stroke-miterlimit="10" stroke-width=".5" d="M141.35938 331.54297l5.28125 4.64062"/></g><path fill="none" stroke="#000" stroke-linecap="round" stroke-linejoin="round" stroke-miterlimit="10" stroke-width=".5" d="M154.65625 336.16016l5.3164-4.59375m-4.54296 3.92578l-1.14453-.44531m13.8164 1.2539l5.0586-4.875m-5.0586 4.875l-2.33594-.76172m14.98829-.20703l6.3828-2.9375m-6.3828 2.9375l-1.95313-1.48828m14.97266.4414l6.97656-.84765m-5.96094.72656l-.70312-1.00781m13.02344 1.28906l6.92968-1.16406m-5.92187.9961l-.7461-.97266m13.1211-.32813l6.79687 1.77344m-5.8086-1.51563l-.28515-1.1953m12.65235.78515l6.71484 2.07422m-5.73828-1.76953l-.23047-1.20704m12.67188.6211l6.51171 2.64062m-5.5664-2.2578l-.125-1.21876m12.51172.79688l6.47656 2.71875m-5.53516-2.32422l-.11328-1.22266m12.38672 1.08985l6.67578 2.1914m-6.67578-2.1914l-.41797-2.41407m13.6875 2.5625l6.76563 1.89453m-6.76563-1.89453l-.52344-2.39453m13.71094 3.1875l7.01953.3125m-7.01953-.3125l-1.05078-2.21875m14.50781 3.36328l6.74219-1.98047m-5.76172 1.69532l-.85937-.87891m14.95312 3.29688l3.22266-6.2422m-3.22266 6.2422l-2.45312.03125m15.92578.04687l2.90625-6.39844m-2.90625 6.39844l-2.44922.15234m15.71875-.17187l2.9961-6.35938m-2.9961 6.35938l-2.44922.11719m18.15625.10156l-1.78516-6.79688m1.78516 6.79688l-1.80469 1.66406m15.51563-1.79297l-2.57813-6.53906m2.57813 6.53906L383.36719 339m15.64844-2.26953l-4.0586-5.73438m3.46875 4.89844l-.55078 1.09766m15.85547-2.35547l-6.85547-1.54688m5.85547 1.32032l.32422 1.18359m14.05469-2.10547l-6.98829.75m6.98829-.75l1.375 2.03125m11.58593-3.23437l-6.27734 3.15625m6.27734-3.15625l2.0039 1.41406m11.30079-1.4375l-6.2539 3.20312m6.2539-3.20312l2.01172 1.40234m11.4375-1.10547l-6.52344 2.60938"/><g clip-path="url(#aB)"><path fill="none" stroke="#000" stroke-linecap="round" stroke-linejoin="round" stroke-miterlimit="10" stroke-width=".5" d="M466.82422 332.5586l1.875 1.58202"/></g><g clip-path="url(#aC)"><path fill="none" stroke="#000" stroke-linecap="round" stroke-linejoin="round" stroke-miterlimit="10" stroke-width=".5" d="M141.4375 318.14453l5.125 4.80469"/></g><path fill="none" stroke="#000" stroke-linecap="round" stroke-linejoin="round" stroke-miterlimit="10" stroke-width=".5" d="M153.84766 319.98828l6.9375 1.1211m-5.9297-.95704l-.39452-1.16406m14.73047 4.76563l2.875-6.41016m-2.45703 5.47656l-1.22266.08203m14.4336.97657l2.24609-6.66016m-1.91797 5.6914l-1.21094.19923m13.76172.58593l3.125-6.29297m-2.67188 5.375l-1.22656.03516m17.51953.71094l-3.73828-5.94922m3.19531 5.08203l-.61328 1.0664m15.97656-2.1953l-6.75-1.96094m5.76563 1.67578l.2539 1.20312m14.16798-1.5586l-6.9961-.67968m5.97656.58203l.46875 1.13281M253.67578 319l-6.3086 3.09375m5.39063-2.64063l.99219.71875m12.17969-2.4453l-4.1875 5.64062m3.57812-4.82031l1.21485.18359m10.69922-1.69531l-.16797 7.02343m.14453-6l1.09765-.55078m11.15235-.32812l2.01172 6.73437m-1.71875-5.7539l.87109-.85938m10.8789.57031l4.55079 5.35547m-3.88672-4.57812l.45312-1.14063m12.16407.39063l4.62109 5.29687m9.36328.45703l3.28516-6.21093m-2.8086 5.30859l-1.22656.0039m14.28125 1.00391l2.85156-6.42187m-2.85156 6.42187l-2.44922.17188m15.74219-.17969l2.89453-6.40234m-2.89453 6.40234l-2.44922.15625m14.94922-.67188l4.52734-5.37109m-4.52734 5.3711l-2.40234-.51563m17.93359 1.34375l.09375-7.02734m-.09375 7.02734l-2.1836 1.1211m16.64844-1.30079l-2.20703-6.67187m2.20703 6.67187l-1.6914 1.77344m16.15234-2.41016l-4.5-5.39843m4.5 5.39843l-.92578 2.27344m15.19922-3.53906l-6.41406-2.86719m6.41406 2.86719l.16797 2.44922m13.45312-3.92578l-7.02734.08593m7.02734-.08593l1.17969 2.15234m12.08594-2.6875l-6.92969 1.15625m6.92969-1.15625l1.49219 1.94922m-2.5-1.78125l.74609.97656m13.34765-1.9336l-6.47265 2.73829"/><g clip-path="url(#aD)"><path fill="none" stroke="#000" stroke-linecap="round" stroke-linejoin="round" stroke-miterlimit="10" stroke-width=".5" d="M466.79688 319.17969l1.90625 1.54297"/></g><path fill="none" stroke="#000" stroke-linecap="round" stroke-linejoin="round" stroke-miterlimit="10" stroke-width=".5" d="M465.85547 319.57813l.95312.77343"/><path fill="#00f" fill-rule="evenodd" d="M224.01953 414.38672h8.61719v-10.14453h-8.61719v10.14453"/><path fill="azure" fill-rule="evenodd" d="M225.85156 406.07422h.83594v2.82422h3.28516v-2.82422h.83203v6.48047h-.83203v-2.91406h-3.28516v2.91406h-.83594v-6.48047"/><path fill="#ff3030" fill-rule="evenodd" d="M388.9336 414.38672h7.6914v-10.14453h-7.6914v10.14453"/><path fill="azure" fill-rule="evenodd" d="M390.76563 406.07422h.83203v5.74219h3.1953v.73828h-4.02733v-6.48047"/><path fill="#00f" fill-rule="evenodd" d="M370.48438 396.63281h8.62109v-10.14453h-8.6211v10.14453"/><path fill="azure" fill-rule="evenodd" d="M372.3164 388.32031h.83594v2.82422h3.28516v-2.82422h.83203v6.48047h-.83203v-2.91406h-3.28516v2.91406h-.83593v-6.48047"/><path fill="#ff3030" fill-rule="evenodd" d="M189.20703 383.32031h7.6914v-10.14844h-7.6914v10.14844"/><path fill="azure" fill-rule="evenodd" d="M191.03906 375.00781h.83594v5.73828h3.1914v.7422h-4.02734v-6.48048"/><path fill="#ffffe0" fill-rule="evenodd" d="M347.82422 352.48438h22.1836v-10.19532h-22.1836v10.19531"/><path fill-rule="evenodd" d="M351.32422 344.125h.51172v6.29297h-.78906v-4.48828h-1.38672v-.5586l.55859-.0625.2539-.05468.22657-.08985.20312-.14062.17579-.21094.14062-.29297.10547-.39453m4.8164 0l.22657.01563.21875.05859.21094.08984.1953.11719.1836.15234.17188.17579.30078.41796.24219.4961.17968.54297.11328.58203.03907.58984-.03907.59375-.11328.58203-.17969.55469-.24218.5039-.30078.42579-.17188.17969-.1836.15234-.1953.125-.21094.09375-.21875.05469-.22656.01953-.23047-.01953-.21875-.0547-.20704-.09374-.19921-.125-.1836-.15235-.17187-.17968-.30078-.42578-.2422-.50391-.17968-.55469-.11328-.58203-.03906-.59375h.83594l.02734.5625.08203.50781.125.44141.16406.375.1914.30078.21095.22266.22265.13672.22656.04687.22657-.04687.22265-.13672.20704-.22266.1914-.30078.16406-.375.125-.4414.08204-.50782.02734-.5625-.02735-.5625-.08203-.5-.125-.4336-.16406-.36718-.1914-.29297-.20704-.21484-.22265-.1289-.22656-.04688-.22657.04687-.22265.1289-.21094.21485-.1914.29297-.16407.36719-.125.4336-.08203.5-.02735.5625h-.83593l.03906-.58985.11328-.58203.17969-.54297.24219-.4961.30078-.41796.17187-.17579.1836-.15234.19921-.11719.20704-.08984.21875-.0586.23046-.01562m5.08985 0h.50781v6.29297h-.78515v-4.48828h-1.39063v-.5586l.5625-.0625.25-.05468.23047-.08985.20312-.14062.17579-.21094.14062-.29297.10547-.39453m2.82422 2.17188h.78515l.01954-.3125.05859-.28907.10156-.25.14063-.21875.17968-.17187.22266-.1289.26563-.08204.30859-.02734.23828.02343.22266.0625.20312.10157.17969.13671.14844.17579.11328.20312.07422.23828.02343.26172-.02343.26953-.0625.22656-.11329.19141-.15234.17188-.20312.16015-.2461.16797-.63281.38672-.53906.3125-.4375.3164-.34766.32813-.26172.33594-.1914.34765-.125.3711-.06641.39453-.02344.41797h4.21094v-.74219h-3.33203l.08594-.28125.11328-.23828.14844-.20313.1875-.17968.23046-.16797.27735-.17578.71875-.41797.41406-.20703.34375-.23047.28125-.25.22266-.26953.16015-.27735.11328-.28125.0625-.28515.01954-.28125-.03907-.38281-.1211-.35157-.1914-.30469-.25-.26562-.30078-.21094-.34765-.16015-.37891-.09766-.40625-.03125-.4336.03125-.39843.09766-.35547.16796-.30469.23438-.25.30469-.1836.3711-.11718.44921-.03906.51563"/><path fill="#ffffe0" fill-rule="evenodd" d="M226.34766 431.9336h22.17968v-10.19141h-22.17968v10.1914"/><path fill-rule="evenodd" d="M229.84766 423.57422h.5078v6.29297h-.78905v-4.48828h-1.38672v-.5547l.5586-.0664.2539-.05469.23047-.08984.20312-.14062.17188-.21094.14453-.29297.10547-.39453m4.8125 0l.23047.01953.21875.05469.20703.08984.1953.1211.1836.14843.17188.17578.30078.41797.2461.4961.17968.54687.10938.57813.03906.58984-.03906.59375-.10938.58594-.17969.55078-.2461.5039-.30077.4297-.17188.17968-.1836.15234-.1953.1211-.20703.09375-.21875.05469-.23047.02343-.23047-.02344-.21875-.05468-.20703-.09375-.19532-.1211-.1875-.15234-.16797-.17969-.30468-.42969-.24219-.5039-.17969-.55078-.11328-.58594-.03516-.59375h.83204l.02734.5625.08203.50781.1289.4414.16016.375L234 429l.21094.22266.22265.13671.22657.04688.22656-.04688.22266-.13671.21093-.22266.1914-.30078.16017-.375.1289-.4414.07813-.50782.03125-.5625-.03125-.5586-.07813-.5039-.1289-.4336-.16016-.36718-.1914-.29297-.21095-.21094-.22265-.13281-.22656-.04297-.22657.04297-.22265.13281-.21094.21094-.1914.29297-.16016.36719-.1289.43359-.08204.5039-.02734.5586h-.83203l.03515-.58984.11328-.57813.17969-.54687.24219-.4961.30469-.41797.16796-.17578.1875-.14844.19532-.12109.20703-.08984.21875-.05469.23047-.01953m5.08984 0h.51172v6.29297h-.78906v-4.48828h-1.38672v-.5547l.5586-.0664.2539-.05469.22656-.08984.20313-.14062.17578-.21094.14062-.29297.10547-.39453m2.82422 2.17578h.78906l.01953-.3164.0586-.28907.09765-.25.14063-.21484.17969-.17578.22265-.12891.26563-.07813.30859-.02734.23828.01953.22266.0625.20703.10156.17969.13672.14843.17579.11328.20312.07032.23828.02344.26563-.01954.26562-.0664.22656-.10938.19141-.15625.17188-.19922.16015-.25.16797-.6328.38672-.53517.3164-.4414.31641-.34375.32422-.26563.33594-.1875.35156-.125.36719-.0703.39453-.01954.41797h4.21094v-.73828h-3.33203l.08203-.28516.11328-.23828.14844-.19922.1875-.17969.23047-.17187.27734-.17578.71875-.41797.41406-.20313.34766-.23437.28125-.25.21875-.26563.16406-.27734.10938-.28516.0625-.28515.02343-.28125-.04297-.38282-.12109-.34765-.1875-.3086-.25-.26171-.30469-.21485-.34375-.15625-.38281-.10156-.40625-.03125-.4336.03125-.39843.09765-.35547.16797-.30469.23438-.2461.30469-.1875.375-.11718.4453-.03906.51954"/><path fill="#ffffe0" fill-rule="evenodd" d="M189.22656 419.0586h22.17969v-10.19141h-22.17969v10.1914"/><path fill-rule="evenodd" d="M192.72656 410.69922h.50781v6.29297h-.78906v-4.48828h-1.38672v-.5547l.5586-.0664.2539-.05469.23047-.08984.20313-.14062.17187-.21094.14063-.29297.10937-.39453m4.8125 0l.23047.01953.21875.05469.20703.08984.19531.1211.1836.14843.17187.17578.30078.41797.2461.4961.17969.54687.10937.57813.03906.58984-.03906.59375-.10937.58594-.1797.55469-.24608.5-.30079.42968-.17187.17969-.1836.15234-.1953.1211-.20704.09375-.21875.0586-.23047.01952-.23047-.01953-.21875-.0586-.20703-.09374-.19531-.1211-.1875-.15234-.16797-.17969-.30469-.42969-.24218-.5-.1797-.55468-.11327-.58594-.03516-.59375h.83203l.02735.5625.08203.50781.1289.4414.16016.375.1914.30079.21094.22266.22266.13671.22656.04688.22656-.04688.22266-.13671.21094-.22266.1914-.30078.16016-.375.125-.4414.08203-.50782.03125-.5625-.03125-.5586-.08203-.5039-.125-.4336-.16016-.36718-.1914-.28906-.21094-.21485-.22266-.13281-.22656-.04297-.22656.04297-.22266.13281-.21093.21485-.19141.28906-.16016.36719-.1289.43359-.08203.5039-.02735.5586h-.83203l.03516-.58984.11328-.57813.17969-.54687.24218-.4961.3047-.41797.16796-.17578.1875-.14844.19531-.12109.20703-.08984.21875-.05469.23047-.01953m5.08985 0h.51172v6.29297h-.78907v-4.48828h-1.38672v-.5547l.5586-.0664.2539-.05469.22657-.08984.20312-.14062.17578-.21094.14063-.29297.10547-.39453m2.82422 2.17578h.78515l.01953-.3164.0625-.28516.09766-.2539.14062-.21485.1797-.17578.22265-.12891.26562-.07813.3086-.02734.23828.01953.22265.0625.20703.10156.17579.14063.15234.17188.11328.20703.07031.23437.02344.26563-.01953.26562-.0664.22656-.10938.19141-.15625.17188-.19922.16015-.25.16797-.63281.39063-.53906.3125-.4375.3164-.34375.32422-.26563.33594-.1914.35156-.125.36719-.06641.39453-.02344.41797h4.21484v-.73828h-3.33203l.08203-.28516.11328-.23828.14844-.19922.1875-.17969.23047-.17187.27734-.17578.71875-.41797.41407-.20313.34765-.23047.27735-.2539.22265-.26563.16407-.27734.10937-.28516.0625-.28515.02344-.28125-.04297-.38282-.1211-.34765-.1875-.3086-.25-.26171-.30468-.21485-.34375-.15625-.38281-.09765-.40625-.03516-.4336.03125-.39844.10156-.35546.16406-.3047.23438-.24608.30469-.1875.375-.1172.4453-.03905.51954"/></g></defs><use xlink:href="#aE"/></svg>