<svg xmlns="http://www.w3.org/2000/svg" role="img" xmlns:xlink="http://www.w3.org/1999/xlink" viewBox="142.45 309.95 326.84 171.84"><defs><clipPath id="a"><path d="M144 311.67188h1v168.65625h-1zm0 0"/></clipPath><clipPath id="b"><path d="M144 480h1v.32813h-1zm0 0"/></clipPath><clipPath id="c"><path d="M144 311.67188h324v168.65625H144zm0 0"/></clipPath><clipPath id="d"><path d="M429 476h7v4.32813h-7zm0 0"/></clipPath><clipPath id="e"><path d="M430 478h5v2.32813h-5zm0 0"/></clipPath><clipPath id="f"><path d="M457 479h4v1.32813h-4zm0 0"/></clipPath><clipPath id="g"><path d="M467 311.67188h1v168.65625h-1zm0 0"/></clipPath><clipPath id="h"><path d="M144 479h4v1.32813h-4zm0 0"/></clipPath><clipPath id="i"><path d="M147 479h2v1.32813h-2zm0 0"/></clipPath><clipPath id="j"><path d="M146 480h2v.32813h-2zm0 0"/></clipPath><clipPath id="k"><path d="M153 479h9v1.32813h-9zm0 0"/></clipPath><clipPath id="l"><path d="M160 479h3v1.32813h-3zm0 0"/></clipPath><clipPath id="m"><path d="M159 479h2v1.32813h-2zm0 0"/></clipPath><clipPath id="n"><path d="M166 479h9v1.32813h-9zm0 0"/></clipPath><clipPath id="o"><path d="M173 479h3v1.32813h-3zm0 0"/></clipPath><clipPath id="p"><path d="M180 479h8v1.32813h-8zm0 0"/></clipPath><clipPath id="q"><path d="M187 479h2v1.32813h-2zm0 0"/></clipPath><clipPath id="r"><path d="M186 480h2v.32813h-2zm0 0"/></clipPath><clipPath id="s"><path d="M193 479h9v1.32813h-9zm0 0"/></clipPath><clipPath id="t"><path d="M200 479h3v1.32813h-3zm0 0"/></clipPath><clipPath id="u"><path d="M206 479h9v1.32813h-9zm0 0"/></clipPath><clipPath id="v"><path d="M213 480h3v.32813h-3zm0 0"/></clipPath><clipPath id="w"><path d="M220 479h8v1.32813h-8zm0 0"/></clipPath><clipPath id="x"><path d="M227 480h2v.32813h-2zm0 0"/></clipPath><clipPath id="y"><path d="M226 480h2v.32813h-2zm0 0"/></clipPath><clipPath id="z"><path d="M233 479h8v1.32813h-8zm0 0"/></clipPath><clipPath id="A"><path d="M240 480h2v.32813h-2zm0 0"/></clipPath><clipPath id="B"><path d="M246 479h9v1.32813h-9zm0 0"/></clipPath><clipPath id="C"><path d="M253 480h3v.32813h-3zm0 0"/></clipPath><clipPath id="D"><path d="M260 479h8v1.32813h-8zm0 0"/></clipPath><clipPath id="E"><path d="M267 479h2v1.32813h-2zm0 0"/></clipPath><clipPath id="F"><path d="M273 479h8v1.32813h-8zm0 0"/></clipPath><clipPath id="G"><path d="M280 479h3v1.32813h-3zm0 0"/></clipPath><clipPath id="H"><path d="M286 479h9v1.32813h-9zm0 0"/></clipPath><clipPath id="I"><path d="M293 479h3v1.32813h-3zm0 0"/></clipPath><clipPath id="J"><path d="M300 479h8v1.32813h-8zm0 0"/></clipPath><clipPath id="K"><path d="M306 479h2v1.32813h-2zm0 0"/></clipPath><clipPath id="L"><path d="M313 480h8v.32813h-8zm0 0"/></clipPath><clipPath id="M"><path d="M319 480h2v.32813h-2zm0 0"/></clipPath><clipPath id="N"><path d="M326 479h9v1.32813h-9zm0 0"/></clipPath><clipPath id="O"><path d="M332 479h2v1.32813h-2zm0 0"/></clipPath><clipPath id="P"><path d="M340 479h8v1.32813h-8zm0 0"/></clipPath><clipPath id="Q"><path d="M345 479h3v1.32813h-3zm0 0"/></clipPath><clipPath id="R"><path d="M354 477h6v3.32813h-6zm0 0"/></clipPath><clipPath id="S"><path d="M369 476h3v4.32813h-3zm0 0"/></clipPath><clipPath id="T"><path d="M382 476h3v4.32813h-3zm0 0"/></clipPath><clipPath id="U"><path d="M396 476h2v4.32813h-2zm0 0"/></clipPath><clipPath id="V"><path d="M406 479h9v1.32813h-9zm0 0"/></clipPath><clipPath id="W"><path d="M419 479h9v1.32813h-9zm0 0"/></clipPath><clipPath id="X"><path d="M425 479h3v1.32813h-3zm0 0"/></clipPath><clipPath id="Y"><path d="M433 479h8v1.32813h-8zm0 0"/></clipPath><clipPath id="Z"><path d="M440 479h3v1.32813h-3zm0 0"/></clipPath><clipPath id="aa"><path d="M446 480h9v.32813h-9zm0 0"/></clipPath><clipPath id="ab"><path d="M453 480h3v.32813h-3zm0 0"/></clipPath><clipPath id="ac"><path d="M459 479h9v1.32813h-9zm0 0"/></clipPath><clipPath id="ad"><path d="M465 479h2v1.32813h-2zm0 0"/></clipPath><clipPath id="ae"><path d="M144 466h4v2h-4zm0 0"/></clipPath><clipPath id="af"><path d="M144 453h4v2h-4zm0 0"/></clipPath><clipPath id="ag"><path d="M144 440h4v1h-4zm0 0"/></clipPath><clipPath id="ah"><path d="M466 438h2v2h-2zm0 0"/></clipPath><clipPath id="ai"><path d="M144 425h4v4h-4zm0 0"/></clipPath><clipPath id="aj"><path d="M144 412h4v3h-4zm0 0"/></clipPath><clipPath id="ak"><path d="M465 410h3v2h-3zm0 0"/></clipPath><clipPath id="al"><path d="M144 398h4v5h-4zm0 0"/></clipPath><clipPath id="am"><path d="M466 398h2v2h-2zm0 0"/></clipPath><clipPath id="an"><path d="M144 385h4v4h-4zm0 0"/></clipPath><clipPath id="ao"><path d="M466 385h2v3h-2zm0 0"/></clipPath><clipPath id="ap"><path d="M144 371h4v5h-4zm0 0"/></clipPath><clipPath id="aq"><path d="M465 371h3v2h-3zm0 0"/></clipPath><clipPath id="ar"><path d="M144 359h4v3h-4zm0 0"/></clipPath><clipPath id="as"><path d="M465 357h3v2h-3zm0 0"/></clipPath><clipPath id="at"><path d="M144 346h4v3h-4zm0 0"/></clipPath><clipPath id="au"><path d="M144 330h3v7h-3zm0 0"/></clipPath><clipPath id="av"><path d="M466 332h2v3h-2zm0 0"/></clipPath><clipPath id="aw"><path d="M144 317h3v7h-3zm0 0"/></clipPath><clipPath id="ax"><path d="M466 319h2v3h-2zm0 0"/></clipPath><g id="ay" clip-path="url(#clip1)"><path fill="#fff" fill-opacity="0" fill-rule="evenodd" d="M0 0h1000v1000H0zm0 0"/><path fill="#d3d3d3" fill-opacity="0" fill-rule="evenodd" d="M162.15234 355.86719l-.23437.29297.0586.23437.11718.17188.17578.23437.29297.34766.11328.0586.11719-.17188.0586-.23438.17577-.17578.46485-.17578h.69922l.23437.29297.28906.8164.0586.17579.17578.23046.35156.23438.69922.69922.17188.17578.23437.34765.23438.41016.28906.58203.41015.46485.23047.23437.23438.17578.11719.23047.17578.29297.17187 1.16406v.23438l.0586.28906.05859.11719.11719.11719.34765.41015.11719.17188.17578.17578.17578.23437.11719.17188.17188.35156.05859.23438.23437.40625.23438-.0586-.17578.17578-.0586.92969h-.58203l-.23437-.11328-.34766.11328-.11719.11719-.05859.29297-.0586.17578-.11718.17187-.46484.29297-.0586.23438-.0586.11328v.64453l.0586.17187v.41016l.0586.0586v.40624l.05859.40625.11719.17579.05859.05859.23047.64062-.0586.29297v.69922l-.05859.58203v.23438l-.0586.23047-.05468.35156v1.92187l.05469.1172h.42578l-.36719.11718-.02344.35156.89063 1.16797 1.74219.53906 1.33984.35938v.53906l.08984.8086.53516.71484 1.51953.26953.89063-.08594.08984 1.16406.53516.1797 1.16015-.1797 2.05469-.98437 1.16016-.36328 1.8789-.17578 1.69531-.1797-.17968.71876-1.51563.08594-1.25.08984-.80469.26953-1.07421.8086.26953.71875.53515.89843-.17968.625-.26563.8086.26563 1.07812.625.89844.80468.17969 1.25-.1797-.26562.72267.09766.5039.05468.29297v.17188l.0586.29296v.40625l.17578.1172.35156.11718h.40625l.29297-.17578.11328-.11719.0586-.11719.11718-.23047.0586-.17578.35156-.46484.23047-.17578.17578-.0586.17578.0586.0586.17578.11718.98828.05469.46875.0586.17188.11718.23437.17578.0586.8164.05859h.28907l.11719.23437.05859.40625.0586.35156v1.10547l.11718.29297.11719.34766.28906.69922.17578.35156.58203.7539.35157.17579.17187.0586.46875.23437.64063.46484.34765.23438.29297.17578.29297.05468.23047.0625.8164.34766.29297.17578.11328.17188.35157.35156.11719.17578.52343.64063v.28906l.0586.35156v.34766l.05859.35156.0586.28906.11718.0586.17188.05859h.17578l.58203.23437.17578.1172.17578.28905.17578.23438.11328.23437.29297.23047.11719.11719v.41016l.0586.05468.28906.23438.23437.11719.0586.11718.11718.17188.0586.11719.23047.23437.05859.17578.23437.0586.1172.05859-.1172.11328-.05859.11719v.11719l-.11719.29296-.11719.28907v.58203l.17579.11719.11718.05859.0586.11719.11719.11719.11328.05859.17578.34765.0586.35157.05858.40625v.17578l-.05859.17578-.11719.69922v.17187l.1172.17579.29296.29296h.40625l.17578.1172.11719.17187.11719.29296v.23438h-.52735l-.23047-.23438h-.23437l-.17578.0586-.0586.69922.0586.34765.11719.17579.17578.41015.11718.23047.28907.46875.17578.05469h.52344l.23437.0586.75781.64062.0586.29296v.23438l.05859.0586.23047.34765v.35156l-.11719.17188v.29297l.29297.28906.29297.17578.17187.0586.29297.17577.29297.1172.58203.40624.28906.23438.29297.17578.21875.16015.01563.01172.23047.17579.64062.52343.17578.23438.1172.17578.17577.17578.11328.17188v.64062l.1172.17578.46874.11719.58203.11719.23438.05859.23047.11328.29297.11719.11328.0586.58593.35156.28907.17187.17578.0625.17578.05469.17578.0586.69922.35155.28906.17579.23438.05468.28906.17578.23437.1172.64063.40624.29297.11719.17187.0586.23438.05859.41015.05859.23047.0586.23438.11718.0586.17188-.41017.17578.46875.0586.0586.29296.11328.23438.17578.05468.23438.0586.17578.05859.40625.11719.64062.23437.11719.17188.0586.23437v.17578l-.0586.1172-.0586.40624.23438.23438.11719.05859.34766.11719.64062.23047.17578.11718.28906.1172.17578.17577.23438.46485.58203 1.10546.17578.17579.34766.17578.17578.11719.35156.11718 1.04688.52344.23437.0586.46485.11327.29297.0586.46484.17578.75781.58203.23438.23438.34765.46484.17578.17578.28907.23438.8164.69921.29297.17579.28906.28906.29297.17578.29297.28906.69531.64063.17578.17578.29297.23437.28907.23438.46875.28906.64062.58203.34766.23438.23437.29297.34766.34765.35156.46485.9336.99218.34765.40625.11719.17579.23437.05859.11328.11719.64454.17578.23047.11328.23437.0586.29297.17577.23047.1172.9336.69921.40624.40625.23438.17578.40625.17578.23437.11719.8164.34766.34766.23437.23438.11719.29297.28906.23047.11719.7578.35156.35157.17188.23047.05859.29297.11719.23437.0586.8711.17577h.8164l.46875.23047.17188.0586.875.69921.46484.1172.29297.05858.17578.0586.23047.0586.46875.05859.34766.05859.35156.0586.40625.05859h.29297l.17187.0586v.23046l.17578.17578h.29297l.34766.0586.35156.05859.69922.11719h.64063l.46484-.23438.29297-.17578.17187-.11719.41016-.17187.28906-.17578.9336-.46485.46875-.29297.52343-.29296.46485-.17188.46484-.17578 1.05078-.46485.28906-.11718.41016-.11719.28906-.11719.52735-.17578 1.51562-.69922.58203-.34765.28907-.0586.29297-.0586.34765-.11718.875-.23047.35156-.11719h.11329l.23437-.05859.875-.23437.23438-.0586h.8125l.35156-.0586.8164-.11718.17188-.0586.35156-.05468.29297-.0586.23047-.05859.8164-.17578.17579-.0586h.34765l.23438-.05859.46484-.11718.75781-.17188.23438-.0586h.34765l.41016-.11718.28906-.0586 1.28516-.05859h.28906l.41016-.0586.23047-.05858h.17578l.875-.1172h.40625l.41015-.11718h.34766l.35156-.11328.8711-.0586h1.75l1.04687.28907.41016.11719.28906.11718.35156.11719.28907.11719 1.05078.17187.28906.0586h.29297l.29297.05859.17187.0586.41016.05859.17187.0586.1172.05858h.11718l.11719.0586.35156.0586h.11328l.41016.0664 1.92187.39453 1.92578.39453 1.51953.44922 1.69532.71875 2.14453.80469 1.60547-.71875 1.42968-.80469 1.16016-1.07813 1.25-.44921 3.03516-.71875 1.875-.35938 2.14453-1.34765 2.23437-1.25391 2.5-1.25781 1.69531-.44922 1.78516-.17969 1.16016-.26953.625.53906 1.33984-.26953.71485-.98828.98437-1.34375.44531-.17969.80469-.35937 1.875-.53907 1.78516-.44921 1.25-.26954 1.16015-.08984 1.69922-.08984 1.96094-.26954 1.25-.08984h.53906l.625-.08984h.89063l2.14453-.17969 2.41015-.17969 2.58985-.08984 1.69531.17969 1.60938.08984 1.42968.35938 1.16016.71875 1.875.98828 1.16015 1.52734.26563.71484.6289.08985.35548.89844.53515.53906.53516 1.52734 1.07422.35938h.53515l-.80469.53515.08985 1.70703.71484 2.69532.89063.80468.89453.98829.71484 1.2578 1.78516.53907 1.51953-.17969.35547 1.34375 1.60937-.80469.98047-.53906.26953.26953.31641-.21484.21875-.14453.80078.44922.44922-.35938h.35547l.53515-.26953.53907-.71875.53515-.26953.625-.98828 1.16016.44922.83984.3711 1.39454.61718 1.6953-.17969h1.60548l1.78515.08985.17969-1.70704.53516-1.34375.80468.26954.4922.84765.40233.40625-.08984.53906v.35938l.71485.44922.71093-.26953h1.42969l.35938.98828.4453 1.25781.71485 1.34375 1.25.6289 1.69531.62891.71485-.17969.17969-.53906.98046-.08984.44922.35937.08594 1.25782-.26563.6289-.53515.17969v.53906l.71484.98438.26563.53906.98437.98828.80078 1.07813-.26562.35937-.08985.89844-.625 2.33203-.35546 2.0664-.08985 1.79298-.17969.71875-.08984.53906v1.4375l-.98047 1.88281-.35937 1.70703-.53516.89844-.80469 1.16797-.26562.53906 2.05469 1.2539.08593.35938-.35546.53906-.08985-.17968v.80859l.08985 1.4375-.44532.71484-1.07422.09375-.26562.71485.53515.89844.8047.71875 1.16015.80859 1.33984.26953.44531.35938-.35546.44921-1.78907-.08984-1.25-.44922-.71484-.71875-.625-.08984-.17578 3.58984-.1875 1.3086h89.35937V311.70313h-55.26953v49.08203l.76172.125 3.28906.54296 2.02344 2.83594v2.7539l2.35156.33204 2.34766.33203h4.05078l-1.3789 4.16016-2.02344.70703-2.02344.70312-.54297.34375-2.59375 1.6172-.1875.11718-2.02344-2.07813-.73046-2.74218-2.67188-2.07813-1.375-3.5-.0664-.08203-1.95704-2.67188 2.75-1.41796v-49.08204H294.42187v91.41407l.1172.03125.1328.01172.07422.07421.10547.04688.08985.0586.08593.05859.08985.0586.29687.29687.0586.08984.03125.11719.02734.11719.01563.13671-.03125.1172-.0586.08983-.0586.08594-.04296.10547-.04688.10156-.02734.1211v.14453l.17578.26953.14844.14844.07422.08594.07422.07421.04296.10547.0625.08985.0586.08593.04297.10547.0586.08985.04687.10156.04296.10547.0586.08594.11719.17968.07421.07422.0625.08594.0586.08984.04297.10547.0586.08985.05858.08593.0625.08985.0586.08984.04297.10156.11719.17969.07421.07422.0586.08594.07422.07421.08984.0586.10547.04687h.14844l.1328-.01562.13282.01562.10156-.04687.07422-.07422.04688-.10156-.01563-.13281v-.14844l-.04687-.10547-.02735-.11719-.04687-.10156-.02735-.1211-.04296-.10156-.0625-.08984-.04297-.10156-.04297-.10547-.03125-.11719-.01563-.13281-.01171-.13672.08593-.0586.0586-.08593.12109-.03125.04297.10547.01562.1328v.1172l.0586.10156.0586.08984.08983.0586.14844.14843.0586.08985.04296.10547-.01171.10156.08593.0586.10547.04687.08594.0586.08984.05858.07422.07422-.11719.02735-.10546.04687-.08594.0586-.07422.07421-.0586.08985-.0625.08594-.02734.12109-.04687.10156-.04297.10547-.03125.11719-.01172.13281-.01563.13281v.14844l.02735.11719.04687.10547.04297.10156.0586.08984.07421.07422.08985.0586.07422.07421.08984.0586.0586.08984.04296.10547.04688.10156.11719.03125.1328.01563h.14845l.11718-.03125.10547.04297.04297.10547.04688.10156.02734.1211L299.5 410l.02734.11719.03125.1211.02735.11718.10547.04297.10156.04687.13281-.01562.14844.14844.0625.08593.07422.07422.07031.07422.08984.0625.10547.04297.10156.04297.1172.03125.13671.01562.11719-.03125.07422-.07422.02734-.11718-.01172-.13282-.03125-.12109-.02734-.11719.04297-.10547h.11719l.08984.0625.11719.02735h.14843l.13282.01562h.14843l.13282.01563.1328-.01563h.14845l.1328-.01562.13282-.01172.13672.01172.11719-.02735.13281-.01562.1914-.0586-.05859.17579-.01562.1328-.02735.1211-.01562.13281-.0586.08594-.1328.01563-.10548.04687-.10546.04297-.1172.03125-.11718.02735-.26563.03125h-.14843l-.13281.01562-.07422.07422.05859.08594.14844.14843.11719.1797.07421.0703.08985.0625.08984.0586.08594.0586.08984.05858.10156.04297.10547.0625.10547.04297.08594.0586.10547.04687.10156.04297.17969.11719.0586.08984-.04298.10156-.04687.10547.01562.13281.22266.22266.0586.08985.04296.10156.03125.1211.04297.10155.01563.13282.03125.11718.01171.13672.03125.11719.14844.14844.10156.04297.10547.04296.1172.03125.1328.01563.13672.01563h.11719l.11719-.03125.08984-.0586.04297-.10547.04688-.10156.04296-.10547.03125-.11719.01172-.1328v-.14845l-.01172-.1328-.01562-.13282-.03125-.11719-.04297-.10547-.04688-.10547-.04296-.10156-.04297-.10547-.01563-.13281.01563-.13281.02734-.11719.03125-.11719.02735-.1211.04687-.10155.08984-.0586.08594-.0625.07422-.07422.08984-.05859.22266-.22266.0586-.08593.07421-.07422.11719-.17969.0586-.08594v-.14844l-.07423-.07421-.10156-.04688-.10547-.04297-.10156-.04297-.0586-.08984-.04687-.10547-.02734-.11719.08984-.05859.11719-.03125.10156-.04297.17969-.11719.14844-.14843.01172-.13282-.01172-.10546-.08985-.0586-.1328.01563h-.14845l-.1328.01562-.13282-.01562-.1211-.03125-.08593-.0586-.07422-.07422-.0586-.08984-.0625-.08594-.11718-.17969-.0586-.08593.03125-.1211.08594-.05859.1211-.03125.05859-.08594v-.1211l-.03125-.11718-.0586-.08984-.05859-.08594-.04687-.10547-.02735-.11719-.01562-.1328.0586-.08985.07421-.07422.08984-.0586.1172-.17968.07421-.07422.0586-.08594.14843-.14844.1211-.03125.1328-.01562.13282.01562.07422.07422.04297.10547.01562.13281-.03125.1172-.11719.03124-.1328.01172-.14844.14844-.04297.10547-.04688.10156-.02734.1211-.03125.11718v.14844l.03125.11719.04297.10546.05859.08985.07422.07031.07422.07422.11719.03125.12109.02734.11719-.02734.1328-.01563h.1172l.08984.0586.07422.07422.04687.10546.0586.08594.10156.04688.13281.01562.10547.04297.08594.0586-.01172.10546-.07422.07422-.17969.11719-.05859.08984-.08984.0586-.07032.07422-.07421.07421-.0625.08985-.02735.11719-.01562.1328.01562.13282-.01562.13281v.14844l.01562.13281.02735.1172.03125.12108.07421.07422.08985.0586.08594.0586.08984.05858.11719.03125v.08594l-.10157.04688-.08984.0586-.26563.03124-.11718.02735h-.14844l-.10547.04296-.10156.04688-.0586.08984-.0625.23438-.01171.13281-.03125.1211-.01563.1328v.29298l-.01172.1328.01172.13673.01563.1328.1328.01563.13282.01172.1211.03125.08593.0586.07422.07421.04688.10547.04296.10157.01563.1328v.44532l-.01563.13281v.44532l.03125.26562.02735.11719.01562.13281.03125.11719.08594.21094.03125.26562v.14844l-.03125.11719-.02734.11718-.03125.1211-.02735.11719-.03125.11718-.03125.1211-.01171.1328-.01563.13282.08984.0586.1172-.03125.10155.01562.04688.10547-.03125.26562v.44141l-.04297.10547-.04688.10547-.04296.10156-.04297.10547-.0586.08594-.03125.12109-.04296.11719-.03125.11719-.01563.1328.01563.13282.05859.08984.10547.04688.08594.0586.05859.08593-.01172.13672-.03125.11719-.04297.10156v.44531l-.01562.13281v.14844l-.03125.11719-.04297.10547-.02735.11719-.04687.10546-.04297.10157-.03125.12109-.02734.11719-.03125.13281-.03125.11719-.02735.11719-.04297.10546-.03125.1172-.03125.12108-.01171.13282-.01563.13281v.29688l.02734.11718v.14844l.04688.39844.02734.11719.0586.08984.12109.03125h.14844l.13281-.01563.0586.08985v.11719l-.0586.08984-.08984.0586-.10157.04296-.10546.04688-.08985.05859-.08594.0586-.13671.01562-.1172-.03125-.1328-.01563-.10157.04688-.0625.08594-.01172.13671-.01562.13282-.03125.11719-.02735.11718-.01562.13281-.03125.1211v.29687l.01563.13282.03125.11718v.14844l.01171.13281v.14844l-.02734.11719-.04688.10156-.02734.1211-.03125.11718-.0586.08985-.07421.07421-.10156.04297-.10547.04688-.11719.02734-.1211.03125-.10156-.04687.0586-.08594.10547-.04688.02734-.11718.03125-.11719.02734-.1211.03125-.11718v-.14844l.01563-.13281-.03125-.11719-.04297-.10547-.10547.01563-.07422.07422-.10156.04296-.08984.0625-.07422.07422-.04297.10157-.01563.1328-.03125.1172L304.25 426l-.03125.11719-.02734.11719-.03125.12109-.02735.11719-.03125.11718-.04297.10547-.08984.0586h-.08984l-.1172-.03125-.03124-.08594.01562-.13672-.03125-.11719v-.14844l-.01171-.1328v-.14844l-.0625-.23438-.02735-.1211-.04297-.10156-.04687-.10546-.0586-.08594-.05859-.08985-.04297-.10546-.0625-.08594-.14844-.14844-.0703-.07422-.10548-.04687-.10547-.04297-.10156-.04297-.29687-.29688-.08985-.07421-.08594-.0586-.10546-.04297-.08985-.0625-.08594-.0586-.10546-.04296-.08985-.0586-.08594-.0625-.07421-.0703-.10547-.04688-.08594-.0586-.10547-.04296-.08984-.0625-.10156-.04297-.10547-.04297-.08594-.0586-.10547-.04687-.10547-.04297-.10156-.04687-.08985-.0586-.10156-.04297-.10547-.04296-.08984-.0625-.11719-.02735-.13281-.01562-.13281.01562H299.75l-.13281.01563-.11719-.03125-.08984-.0586-.07422-.07422-.08985-.05859-.10156-.04688h-.14844l-.12109-.02734-.10156-.04297-.07422-.07422-.11719-.17968-.08984-.0586-.10156-.04297-.08985-.0625-.10547-.04296-.08984-.0586-.08594-.0586-.10547-.04687-.0586-.08594-.05858-.08984-.04297-.10547-.04688-.10156-.07422-.07422-.08594-.0586-.07421-.07421-.08985-.0586-.22265-.22265-.04297-.10547-.03125-.26563.10547-.04296h.14453l.10547.04296.07421.07422.08985.0586.08594.0586.10546.04687.08985.05859.14844.14844.0703.07422.14845.14843.0625.08594.07421.07422.08594.0586.07422.07421.08985.0625.08984.0586.08594.05859.26953.17578.10156.04688.10547.04296.10156.04297.04688-.07421.05859-.08594.07422-.07422.07031-.07422.10547.04297.07422.07422.0586.08984.04296.10156.04688.10547.04296.10547.1211.02735.11719-.02735.07421-.08984.04297-.10547.0586-.08985.07422-.07421.10546-.04297.1172-.02735.1328.01172.08985.0586.14844.14843.05859.08985.04297.10547.04687.10156.04297.10547.04297.10156.10547.04688.10547.04296.13281.01563.08594-.0586.0586-.08984.07421-.07422.10547-.04297.11719.02735.10547.04687.10156.04297.10547.04297.10156.04688.17969.11718v.11719l-.01563.13281.01563.13281.01562.13672.0586.08594.10156.04688.1211.02734.11718.03125h.14844l.11719-.03125.05859-.08984.17969-.1172.05859-.08983.07422-.07422.0586-.08594.11718-.17969.17969-.11719.11719.03125.08984.0586.04297.07422-.01563.1328v.1172l.08985.05859h.14843l.13282-.01563.1328-.01171.26563-.03125.10547-.04297.11719-.03125.1211-.02735.07421-.07421.07031-.07422.0625-.08985-.01562-.10547-.04688-.10156-.10156-.04297-.10547-.01562-.11718.02734-.26563.03125h-.14844l-.07421-.07422-.08985-.0586-.11719-.03124-.11718-.02735-.13282-.01562h-.14843l-.13282.01563h-.29687l-.10547-.04688-.14844-.14844-.04297-.10156-.05859-.08984.22266-.22266.08593-.0586.10547-.04296.11719-.03125.13281-.01563.13281.01563.13672.01562.10157.04297.1328-.01172.08985-.0625.10156-.04297.0625-.08984-.04687-.10156-.08984-.0586-.1172-.03125-.10155-.04296-.0586-.08985-.0625-.08984v-.11719l.01563-.13281.10547-.04688.07421-.07031v-.1211l-.08984-.05859-.03125-.11719.08985-.05859.07421-.07422.04297-.10547.0586-.08984.04687-.10156.01563-.13281v-.14844l-.04688-.10547-.04297-.10156-.08984-.0586-.13281-.01562-.10157-.04297-.13671-.01563-.1172-.03125h-.4453l-.13282-.01562-.13281-.01172-.13281-.01563-.11719-.03125h-.14844l-.13281-.01562-.13281-.01172-.26563-.03125-.1211-.04297-.08593-.0586-.07422-.07421v-.14844l.01172-.13281.10547-.04688.10156-.04296.13281-.01563h.15235l.13281-.01562h.29297l.1211.03125.10156.04296.08984.0586.23438.0625.12109-.04688.08984-.05859.10156-.04297.13282-.01562.10547.04296.10156.04688.13281.01172.1211-.02735h.14453l.12109-.03125.11719-.02734.10547-.04687.07421-.07422.08594-.0586.14844-.14843.0586-.08594.04687-.10547.02734-.11719.01563-.10547-.10156-.04296-.08985-.0586-.11719-.03125-.10546-.04297-.08985-.0625-.07422-.08594-.07422-.07421-.10156-.04297-.10547-.04688-.10156-.04297-.0586-.08984-.04687-.10156-.08594-.21094-.0625-.08594-.05859-.08984-.07422-.07422-.08594-.0586h-.26953l-.11719.03126-.08984.05859-.10156.04297-.13281.01562-.10547-.01562-.02735-.11719-.0625-.08984-.11718-.03125-.10157-.04297-.14843-.14844-.03125-.11719-.01563-.10546.07422-.07422.17969-.1172.11719-.02733.11718-.03125.13672.01562.10156.04297.10547.04297.10156.04687.10547.04297.1172.03125.1328.01563.1172.02734.1328.01563.10547-.01563.08985-.0586-.07422-.07421-.10547-.04297-.07422-.07422-.07422-.08984-.14844-.14844-.08593-.0586-.08985-.05859-.07422-.07422-.08984-.0586-.10156-.04687-.1211-.02734-.10156-.04688-.10547-.04296-.11719-.03125-.10156-.04297-.1211-.03125h-.14843l-.11719.03125-.10546.04297-.08594.0625-.17969.11718-.08594.0586-.08984.0586-.10547.04687-.08594.05859-.10547.04297-.10156.04297-.10547.04687-.07422.07422-.05859.08985-.0586.08593-.04687.10547-.0586.08594-.07421.07422-.13281-.01172-.1172-.03125h-.11718l-.07422.07422-.08984.0586-.07422.07421-.08984.0586-.08594.05859-.10547.04687-.10156.04297-.13672.01563-.10156-.04297-.14844-.14844-.10547-.04688h-.08594l-.10547.04688-.10156.04297-.1211.03125-.11718-.03125-.07422-.07422v-.11719l.03125-.1211.07422-.0703.0586-.08985.07421-.07422.11719-.03125.10547-.04296h.29297l.13281-.01563.13672-.01563.10156-.04296.08985-.0586.10156-.04687.08984-.0586.13281-.01171.08985.05859.13281.01172.08984-.0586.08594-.05859.10547-.04297.08984-.0586.08594-.0625.08985-.05859.14843-.14843.0586-.08594.05859-.08985.10547-.04296.13281-.01563.11719.02735.1211.03125.05859-.0586.05859-.08984.03125-.26563.02734-.11719.10547.01172.13281.01563.10157-.04297.08984-.0586.0586-.08984.07421-.07422.0586-.08984.04687-.10156.01172-.13281-.01172-.13282-.04687-.10547-.14844-.14843-.0586-.08985-.05859-.08594-.04297-.10546v-.44532l.01563-.1328v-.14845l.01172-.1328-.0586-.0586-.08984.0586-.10156-.04298-.17969-.11719-.08594-.05859-.0625-.08984-.0586-.08985-.07421-.07421-.08594-.0586-.1211.03125-.10155.01172-.10547.04688-.08594.05859-.10547.04297-.14844.14844-.08984.05859-.08594.0586-.08984.0625-.10547.04296-.13281.01563v-.1211l.10547-.04297.11718-.03125.07422-.0703.04297-.10548v-.14844l-.02734-.11718-.14844-.14844-.13281-.01563h-.14844l-.11719.03125-.10547.04297-.10156.04297-.08984.0625-.11719.02735-.07422-.07422.01172-.13281-.04297-.10157-.04297-.10547-.08984-.05859-.11719.02734-.1211.03125-.11718.03125-.10156.04297-.1211.03125-.10156.04297-.10547.04297-.08984.0586-.10156.01562v-.11719l.01562-.13281-.0586-.08985-.07421.04297-.14844.14844-.0586.08985-.07421.07421-.04688.10547-.04296.10156-.07422.07422-.0586.08985-.07422.07422-.05859.08593-.07422.07422-.08984.0625-.07422.07031-.07422.07422-.10156.01563-.13281.01562-.10547-.04296v-.1211l.14843-.14844.04297-.10156.0586-.08984.04687-.10156.04297-.10547.0586-.08985.03124-.11719.04297-.10156.03125-.1211.02735-.11718.04687-.10547.04297-.10156.04297-.10547.07422-.07031.08984-.0625.08985-.0586.10156-.04296h.29687l.26563-.03125.10547-.04297-.07422-.07422-.11719-.03125-.10547-.04297-.08984-.0586-.10156-.04687-.08985-.0586-.10156-.04296-.10547-.04297-.08984-.0625-.08594-.0586-.10547-.04296-.10156-.04297-.1211-.03125-.11718-.03125-.10157-.04297L297.5 410.25l-.10156-.04297-.08985-.0586-.04296-.10546-.01563-.13281.10156-.04297.13281-.01563.13672.01563.13282-.01563.10156-.04297.0586-.08984.01562-.10547-.08985-.0586-.07421-.07421-.10157-.04297-.08984-.0586-.14844-.14843-.04297-.10547-.01562-.13281v-.29297l-.0586-.08985-.08984-.05859-.07422-.07422-.04297-.10547-.03125-.11718-.0586-.08985-.07421-.07422-.11719-.02734-.07422-.07422-.08984-.0586-.08984-.0625-.08594-.05859-.07422-.07421-.0586-.08594-.04687-.10547-.08594-.0586-.14843-.14843-.19532-.0586-.1328.01563-.10157.04297-.07422.07422-.04688.10156-.04296.10547-.0586.08984-.0586.08594-.29687.29687-.08984.0586h-.08594l-.0625-.08594-.04297-.10547.03125-.11719.0586-.08984.02734-.11719-.01172-.13281-.08984-.0625-.10547.04688-.11719.02734-.11719.03125-.26953.17578-.10156.04688-.11719.02734-.10546.04687-.08985.0586-.10156.04297-.0586-.08594-.04687-.10547.01563-.13281.04687-.10547.07031-.07422.07422-.07031.0586-.08985v-.14843l-.04297-.10547h-.23829l-.10156.04687-.03125.11719-.02734.11719-.03125.1211-.07422.04296-.13281.01563-.07422-.04688-.04297-.10156-.04297-.10547-.04687-.10156-.04297-.10547-.1211.03125-.10156.04297-.13281.01562-.11719.03125-.10547.04297-.08984.0586-.10156.04687-.1211.02734-.13281.01563-.10156-.04297-.0586-.08985-.04687-.10546-.04297-.10157-.04297-.10546v-.1172l.0586-.08984.08593-.05859.17969-.11719.10156-.04687.10547-.04297.10547-.0586.10156-.04296.08985-.0625.10156-.04297.10547-.0586.10156-.04687.08984-.0586.10547-.04296.10156-.04297.08985-.0625.10156-.04297.13672-.01563.11719.03125.10156.04297.1211.03125.10156.04297.10546.04688.10157.04296.10547.04297.10156.04688.10547.04297.10156.04297.10547.04687.08594.0586.10546.04296.1172.03125.10546.04297.10156.04688.08985.0586.10547.04296.10156.04297.10547.04687.11719.02735.10156.04687.1211.02735h.14843l.08594-.0586.01562-.10156.0586-.08984-.02735-.1172-.07422-.07421-.11719-.17969-.07421-.07422-.08985-.07421-.17969-.1172-.08593-.05859-.10547-.04296-.10156-.04688-.26954-.17578-.05859-.08985-.07422-.07421-.0586-.08985-.04296-.10156-.03125-.11719-.01563-.13672v-.5625l-.01171-.1328-.01563-.13282-.03125-.11719-.01562-.13281-.01172-.13281-.03125-.1211-.22266-.22265-.0586-.08594-.01562-.10547.03125-.11719.13281-.01562v-91.41406H172.9922v1.45312l-.0586.23438-.35156 1.05078-.17187.52343-.1172.34766-.17577.41016-.11719.17187-.23438.29297-.23046.0586h-.35157l-.11718.05859-.23047.40625v.29297l.11719.17578.23046.23047.1172.23437.64062.75781.29297.46485.17578.23437.23047.35156.23437.34766.64063.8164.17578.46485.17187.41016.11719.69531.17578.46875.11719 1.39844.0586.46484v.875l.11718 1.04688v4.78125l-.0586.46484-.35156 1.28125-.17578.52344-.11328.41015-.35156.9297L172.93359 336l-.23437.58203-.11719.17578-.17187.34766-.17578.40625-.35157.8164-.0586.29297-.11327.29297-.11719.28906-.0586.17579-.11718.875-.0586.40625-.05859.11718-.0586.17579-.05859.17187-.23047.52734-.11718.17188v.23437l-.11719.23438-.0586.17187-.17577.58594v.28906l-.0586.17579v.29296l-.0586.11329-.05859.52734v.17187l-.05468.23438v2.6211l-.17578.8164-.1172.17578-.17577.23438-.1172.17187-.11327.23438-.58594.93359-.23047.28906-.29297.46485-.17578.23437-.28906.35156-.35156.69922-.11328.23047-.17579.41016-.17578.23046-.40625.52735-.8164.69922-.29297.17187-.28906.23438-.17579.11719-.17578.17578-.52344.40625-.52734.17578-.17187.17578-.23438.05469-.64062.17578h-.75782m12.21094 31.02344l-1.07422.44921.35938.89454 1.25-.71485.44531-.53906-.98047-.08985"/><path fill="#d3d3d3" fill-opacity="0" fill-rule="evenodd" d="M201.50781 416.59766h-.89453l.44922.6289.98047.35938.80469-.08985.4453-.98828-.17577.08985-.71485-.35547-.89453.35547m154.6211 59.0703l-.0586-.52343v-.29297l.11328-.29297.0586-.23046.46875-.46875h.11328l.11719-.11329.11718-.05859h.17579l.23437-.0586h.34766l.23437.0586.11719.0586.23047.17187.0586.17578.11718.58203v.29297l-.11719.17578-.17187.28906-.17579.17579-.52734.52343-.23047.23438-.11719.0586h-.17578l-.11718-.0586-.40625-.29297-.17579-.11719-.11718-.0586-.0586-.11327-.05468-.1172m6.64062-10.95702l-.0586-.17188v-1.10937l.0586-.17188.17578-.0586.17188-.05858h.17578l.23437-.0586.1172.0586.05858.69921-.05859.17188-.11719.17578-.11718.0586-.23438.52343-.11328.0586h-.23438l-.05859-.1172m9.61328-14.39062l-.11719-.17578v-.69922l.29297-.875.1172-.17187.17577-.35156.11328-.23047.1172-.29297.35155-.75781.1172-.23047.17187-.23438h.17578l.11719-.0586h.64062l.11719.0586.23437.23438.17188.11328.35156.29297.11719.11718.11328.17579v.11328l.11719.05859.11718.11719v.69922l-.05859.17578v.23047l-.0586.17578-.34765 1.05078-.11719.23047-.11719.23437-.11718.0586-.23047.23437-.64063.28906h-.875l-.41015-.11718-.64063-.46485"/><path fill="none" stroke="#bebebe" stroke-linecap="round" stroke-linejoin="round" stroke-miterlimit="10" stroke-width=".5" d="M467.95703 311.69531H144.02734v168.625h323.9297v-168.625"/><g clip-path="url(#a)"><path fill="#fff" fill-opacity="0" fill-rule="evenodd" d="M144 475.89063v4.25-168.46875h.0039H144v164.21875"/></g><g clip-path="url(#b)"><path fill="#50fcfc" fill-rule="evenodd" d="M144.0039 480.32813v-.1797l.08204.1797h-.08203"/></g><g clip-path="url(#c)"><path fill="#fff" fill-opacity="0" fill-rule="evenodd" d="M144.0039 480.14844V311.67188h88.76173v105.6289l-3.35157.89063-1.08594.60937-4.4375.6211-4.4375-.94141-4.4375.0625-2.79296 4.08594-1.64844 3.73437-4.4375.57422-4.4375-3.04688-2.90625-1.26171-1.53125-.44141-1.73828.4414-2.70313.32032-4.4375 2.17969-4.04687 1.9414-.39063.11328-4.4375 1.08985-3.95312 3.23437-.48828.3164-4.4375 1.13282-3.39844 2.98828-1.03906.39063-4.4375.78515-3.64453 3.26172-.79297 4.27735-.1172.16015-3.08593 4.4414-1.23828 3.01563-2.16016 1.42188 1.5625 4.4375.59766.6289 1.10938 3.8086 3.33203 2.52734 4.4375 1.08594 4.4375-.6875 4.4375.22266 4.4375-.50782 4.4414-.3789 4.4375-.80469 2.07813-1.45703 2.35937-.8086 4.4375-.30078 4.4414-.875 4.4375-.2539 4.4375-.57422 3.8125-1.625.625-.14063 4.44142-.07812 4.4375-1.3164 4.4375-.19141 4.4375-1.78125 1.3789-.9297 3.0586-2.33593 3.71484-2.10156.72656-.67969 4.4375-2.86719.77344-.89453 3.66406-.92969 3.48438-3.5078.95312-4.01954 4.4375 1.15235 4.4414.7578 2.25391-2.32812-2.2539-4.42578-.07422-.01172-4.36719-3.27734-2.53906 3.27734-1.89844 2.89063-4.4375-2.23047-4.4375-.61328-.29687-.04688-4.14063-4.07031-.50781-.36719-1.82813-4.4414 1.02344-4.4375-3.1289-.89063v-105.6289h35.5078v117.05078l-3.1328 2.78515 3.1328 2.34375 3.75-2.34375-3.75-2.78515V311.67187h13.31641v117.91016l-2.5 1.92578.51172 4.4375 1.98828 1.8086 2.27344-1.8086-.40625-4.4375-1.86719-1.92578V311.67188h93.20313v134.33984l-3.15235 3.25 3.15235 3.63281 3.09375-3.63281-3.09375-3.25V311.67187h17.7539v140.34375l-.98046 1.6836-3.45704.76172-4.4375 2.89844-.96875.77734-2.7578 4.4375.39843 4.4414 2.16797 4.4375.97656 4.4375.1836.17579 1.24609-.17579 3.1914-1.45703 4.4375-2.1914.72657-.78906 2.14844-4.4375-.02735-4.44141 1.07031-4.4375.51954-1.4336 1.37109-3.0039-1.3711-1.55469-4.4375-.1289V311.67188h57.69922v145.4414l-1.53125 1.02344 1.53125 2.3086 1.01563-2.3086-1.01563-1.02344v-145.4414h17.75v168.65625h-7.67187l-1.19922-.81641-1.83984.8164h-21.44141l-3.35156-3.36718-3.29688 3.36719H144.08594l-.08203-.1797"/></g><path fill="#50fcfc" fill-rule="evenodd" d="M152.27734 458.13672l-1.5625-4.4375 2.16016-1.42188 1.23828-3.01562 3.08594-4.4414.11719-.16016.79297-4.27735 3.64453-3.26172 4.4375-.78515 1.03906-.39063 3.39844-2.98828 4.4375-1.13281.48828-.3164 3.95312-3.23438 4.4375-1.08985.39063-.11328 4.04687-1.9414 4.4375-2.1797v3.03517l-1.76953 1.08593-2.66797 1.65625-4.4375 1.01563-4.4375.9336-1.01562.83202-3.42578 2.23047-4.4375 1.64063-.64063.5664-3.79687 1.42969-4.4375 1.55078-1.62891 1.45703-2.26172 4.4375-.42969 4.4414-.11718 1.20704-1.4961 3.23047.3164 4.4375 1.1797 2.25.89453 2.1875 3.54297 2.07422 4.4375-1.98438 4.4375.8711 3.4375-.96094 1-.15235 4.4414-.58593 4.4375-.75781 4.4375-1.72657 4.4375.03906 3.01953-1.2539 1.42188-.51172 4.4375-.35547 4.4375-.52734 4.4375-1.07813 4.4414-.78125 2.17188-1.1836 2.26563-1.70312 4.4375-.11328 4.4375-1.875.89843-.7461-.89844-.86327-4.4375-1.625-1.9414-1.95313-2.4961-2.60547-2.2539-1.83203-1.6211-4.4375-.5625-.875-4.4414-1.54687-4.4375-1.82031-.26953-.19532-4.16797-2.27344-4.4375-1.13671-2.27734-1.02735-2.16407-1.08594v-3.03515l2.70313-.32031 1.73828-.44141 1.53125.4414 2.90625 1.26173 4.4375 3.04687 4.4375-.57422 1.64844-3.73437 2.79297-4.08594 4.4375-.0625v3l-3.08594 1.14844.73437 4.4414 2.35156 2.41797 4.4375.36719v5.60937l-.72656.48047.72656.41797 4.4375 3.55078.27344-3.96875-.27344-.39453-4.4375-.08594v-5.60937l2.25391 1.65234 2.1836 1.4414 2.0664 2.9961 2.3711 2.3711v1.79296l-3.97266.27344 3.97266.92188.96093-.92188-.96094-.27344v-1.79296l4.44141.9453 1.19922 1.1211 3.23828 2.54688 4.4375-.89063 1.64844-1.65625-1.64844-4.10156-.13672-.33594-4.30078-3.0625-4.4375-.13281-1.3789-1.24219-3.0625-2.8164-3.35547-1.6211-1.08203-1-4.4375-1.78906-2.66016-1.65234-1.77734-1.14844v-3l4.4375.9414 4.4375-.62109 1.08593-.60937 3.35156-.89063 3.12891.89063-1.02344 4.4375 1.82813 4.4414.50781.36719 4.14063 4.07031.29687.04688 4.4375.61328 4.4375 2.23047 1.89844-2.89063 2.53906-3.27734 4.36719 3.27734.07422.01172 2.2539 4.42578-2.2539 2.32813-4.4414-.75781-4.4375-1.15235-.95313 4.01953-3.48438 3.50781-3.66406.9297-.77344.89452-4.4375 2.8672-.72656.67968-3.71484 2.10156-3.0586 2.33594-1.3789.92969-4.4375 1.78125-4.4375.1914-4.4375 1.3164-4.44141.07813-.625.14063-3.8125 1.625-4.4375.57422-4.4375.2539-4.4414.875-4.4375.30079-2.35938.80859-2.07813 1.45703-4.4375.80469-4.4414.3789-4.4375.50782-4.4375-.22266-4.4375.6875-4.4375-1.08594-3.33203-2.52734-1.10938-3.8086-.59766-.6289"/><path fill="#00e8fc" fill-rule="evenodd" d="M156.13672 458.13672l-.3164-4.4375 1.49609-3.23047.11718-1.20703.4297-4.4414 2.26171-4.4375 1.6289-1.45704 4.4375-1.55078 3.79688-1.42969.64063-.5664 4.4375-1.64063 3.42578-2.23047 1.01562-.83203 4.4375-.9336 4.4375-1.01562 2.66797-1.65625 1.76953-1.08594v6.91016l-4.32422 3.05078-.11328.1289-4.4375 1.77735-2.33203-1.90625-2.10547-.84765-1.67969.84765-2.76171 2.08594-4.4375 1.38672-4.4375-.3125-2.61328 1.27734L161.7539 441l-2.96485 3.82031-.13281 4.4414-.35938 4.4375.21094 4.4375 3.2461 4.07423 4.4375-1.25 4.4375.11719 4.4375-.64063 4.4414-1.70313 2.35547-.59765 2.08203-.99219 4.4375-2.20312 4.4375.74609 4.4414-1.05078 4.4375-.76953 1.03517-.16797 3.40234-1.58985 4.25-2.84765-4.25-2.82422-1.92188-1.61719-2.51562-2.71875-.90625-1.71875.90625-2.19922 1.13281-2.23828-1.13281-.875-4.4375-1.47265-4.4414-.70313v-6.91015l2.16405 1.08593 2.27735 1.02735 4.4375 1.13671 4.16797 2.27344.26953.19531 4.4375 1.82032 4.4414 1.54687.5625.875 1.6211 4.4375 2.2539 1.83203 2.4961 2.60547 1.9414 1.95313 4.4375 1.625.89844.86328-.89844.7461-4.4375 1.875-4.4375.11327-2.26562 1.70313-2.17188 1.1836-4.4414.78124-4.4375 1.07813-4.4375.52734-4.4375.35547-1.42188.51172-3.01953 1.2539-4.4375-.03906-4.4375 1.72656-4.4375.75782-4.4414.58594-1 .15234-3.4375.96094-4.4375-.8711-4.4375 1.98438-3.54297-2.07422-.89453-2.1875-1.1797-2.25"/><path fill="#00d4fc" fill-rule="evenodd" d="M158.50781 458.13672l-.21094-4.4375.35938-4.4375.13281-4.4414L161.75391 441l1.82422-.61719 2.61328-1.27734v2.83203l-4.4375.25781-2.03516 2.625.16406 4.4414-.26172 4.4375.39063 4.4375 1.74219 2.1836 4.4375-1.0039 4.4375-.26954 4.4375-.59375.73437-.3164-.73437-1.59375-.84766-2.84375-.65234-4.4375-1.81641-4.4414-1.1211-1.02344-4.4375-1.85938v-2.83203l4.4375.3125 4.4375-1.38672 2.76173-2.08594 1.67968-.84765 2.10547.84765 2.33203 1.90625 4.4375-1.77734.11328-.1289 4.32422-3.05079v6.0039l-1.01953 1.48438-3.41797 3.60547-4.4375.70313-4.4375-.01954-.16015.14844.16015.48828 4.4375.19141 4.4375-.23047.52735-.44922 3.91015-3.77734.71485-.66016-.71485-1.48437v-6.0039l4.4414.70312 4.4375 1.47265 1.13282.875-1.13281 2.23828-.90625 2.19922.90625 1.71875 2.51562 2.71875 1.92188 1.61719 4.25 2.82422-4.25 2.84765-3.40234 1.58985-1.03516.16797-4.4375.76953-4.4414 1.05078-4.4375-.7461-4.4375 2.20313-2.08204.99219-2.35547.59765-4.4414 1.70313-4.4375.64063-4.4375-.1172-4.4375 1.25-3.2461-4.07421"/><path fill="#00c4fc" fill-rule="evenodd" d="M160.01172 458.13672l-.39063-4.4375.26172-4.4375-.16406-4.4414 2.03516-2.625v1.1953l-1.10938 1.4297.46094 4.4414-.16016 4.4375.57422 4.4375.23438.29297 1.5703-.29297 1.82813-4.4375-1.14453-4.4375.85156-4.4414-3.10546-1.4297v-1.1953l4.4375-.25782 4.4375 1.85938v8.92968l-2.3125.97266 2.3125 1.19531.60937-1.19531-.60937-.97266v-8.92969l1.12109 1.02344 1.8164 4.4414.65235 4.4375.84766 2.84376.73437 1.59375-.73437.3164-4.4375.59375-4.4375.26954-4.4375 1.0039-1.7422-2.1836"/><path fill="#00b8fc" fill-rule="evenodd" d="M161.10547 449.26172l-.46094-4.4414 1.10938-1.4297v1.19532l-.1836.23437.1836 1.30469.5078-1.30469-.5078-.23437v-1.19531l3.10547 1.42968-.85157 4.4414 1.14453 4.4375-1.82812 4.4375-1.57031.29298-.23438-.29297-.57422-4.4375.16016-4.4375"/><path fill="#00a8fc" fill-rule="evenodd" d="M161.7539 446.125l-.18359-1.30469.1836-.23437.5078.23437-.5078 1.30469"/><path fill="#00b8fc" fill-rule="evenodd" d="M170.6289 454.89453l-2.3125-1.19531 2.3125-.97266.60938.97266-.60937 1.19531"/><path fill="#00c4fc" fill-rule="evenodd" d="M179.50781 445.3086l-.16015-.48829.16015-.14844 4.4375.01954 4.4375-.70313 3.41797-3.60547 1.01953-1.48437.71485 1.48437-.71485.66016-3.91015 3.77734-.52735.44922-4.4375.23047-4.4375-.1914"/><path fill="#00e8fc" fill-rule="evenodd" d="M217.10156 427.07031l-.73437-4.4414 3.08594-1.14844 1.77734 1.14844 2.66016 1.65234 4.4375 1.78906 1.08203 1 3.35547 1.6211 3.0625 2.8164 1.3789 1.24219 4.4375.13281v2.21485l-2.86719.84765 2.8672 2.57031 1.1914-2.5703-1.1914-.84766v-2.21485l4.30077 3.0625.13672.33594 1.64844 4.10156-1.64844 1.65625-4.4375.89063-3.23828-2.54688-1.19922-1.1211-4.4414-.9453-2.3711-2.3711-2.0664-2.9961-2.1836-1.4414-2.2539-1.65234-4.4375-.36719-2.35157-2.41797"/><path fill="#fff" fill-opacity="0" fill-rule="evenodd" d="M223.89063 435.46484l-.72657.48047.72656.41797 4.4375 3.55078.27344-3.96875-.27344-.39453-4.4375-.08594m8.875 4.64454l-3.97265.27343 3.97266.92188.96093-.92188-.96094-.27344"/><path fill="#00d4fc" fill-rule="evenodd" d="M241.64453 438.51563l-2.86719-2.57032 2.8672-.84765 1.1914.84765-1.1914 2.57031"/><path fill="#50fcfc" fill-rule="evenodd" d="M268.27344 433.85156l-3.13281-2.34375 3.1328-2.78515 3.75 2.78515-3.75 2.34375m11.32813 2.09375l-.51172-4.4375 2.5-1.92578 1.8672 1.92578.40624 4.4375-2.27344 1.8086-1.98828-1.8086m95.1914 16.94922l-3.15233-3.63281 3.15234-3.25v2.39062l-.83203.85938.83203.95703.8164-.95703-.8164-.85938v-2.39062l3.09375 3.25-3.09375 3.63281"/><path fill="#00e8fc" fill-rule="evenodd" d="M374.79297 450.21875l-.83203-.95703.83203-.85938.8164.85938-.8164.95703"/><path fill="#50fcfc" fill-rule="evenodd" d="M380.34375 467.01563l-.39844-4.44141 2.75781-4.4375.96875-.77735 4.4375-2.89843v1.44922l-2.83593 2.22656-1.60156 1.2539-2.5625 3.1836 1.20703 4.4414 1.35546 2.00391 4.4375.92969 3.66797-2.9336.67579-4.4414-.41797-4.4375-3.92579-2.22656v-1.44922l3.45704-.76172.98046-1.6836 4.4375.12891 1.3711 1.55469-1.3711 3.0039-.51953 1.4336-1.0703 4.4375.02733 4.4414-2.14843 4.4375-.72656.78907-4.4375 2.1914-3.19141 1.45704-1.2461.17578-.18359-.17579-.97656-4.4375-2.16797-4.4375"/><path fill="#00e8fc" fill-rule="evenodd" d="M382.3164 467.01563l-1.20702-4.44141 2.5625-3.1836 1.60156-1.2539 2.83594-2.22656v2.34375l-4.4375 3.54296-.62891.77735.6289 1.57812 4.40625 2.86329.03125.01171.01563-.01171 3.20313-4.44141-3.21875-4.32031v-2.34375l3.92578 2.22656.41796 4.4375-.67578 4.4414-3.66796 2.9336-4.4375-.92969-1.35547-2.0039"/><path fill="#00d4fc" fill-rule="evenodd" d="M383.67188 464.15234l-.62891-1.57812.6289-.77735 4.4375-3.54296v1.51171l-3.2578 2.8086 3.2578 2.89453 2.09375-2.89453-2.09375-2.8086v-1.51171l3.21875 4.3203-3.20312 4.44142-.01563.01171-.03125-.01171-4.40625-2.86329"/><path fill="#00c4fc" fill-rule="evenodd" d="M388.10938 465.46875l-3.25782-2.89453 3.25781-2.8086v1.50782l-1.5078 1.30078 1.5078 1.33984.96875-1.33984-.96875-1.30078v-1.50781l2.09375 2.80859-2.09375 2.89453"/><path fill="#00b8fc" fill-rule="evenodd" d="M388.10938 463.91406l-1.50782-1.33984 1.50781-1.30078.96875 1.30078-.96875 1.33984"/><g clip-path="url(#d)"><path fill="#50fcfc" fill-rule="evenodd" d="M429.19531 480.32813h1.71094l1.58594-1.6172 1.61328 1.6172h1.73828l-3.35156-3.3672-3.29688 3.3672"/></g><g clip-path="url(#e)"><path fill="#00e8fc" fill-rule="evenodd" d="M430.90625 480.32813l1.58594-1.6172 1.61328 1.6172h-3.19922"/></g><path fill="#50fcfc" fill-rule="evenodd" d="M450.2461 460.44531l-1.53126-2.3086 1.53125-1.02343 1.01563 1.02344-1.01563 2.3086"/><g clip-path="url(#f)"><path fill="#50fcfc" fill-rule="evenodd" d="M457.28516 480.32813l1.83984-.81641 1.19922.8164h-3.03906"/></g><g clip-path="url(#g)"><path fill="#fff" fill-opacity="0" fill-rule="evenodd" d="M467.9961 480.32813H468V311.67188h-.0039H468v168.65625h-.0039"/></g><path fill="#fff" fill-opacity="0" fill-rule="evenodd" d="M254.55078 437.2461l3.39453-4.75391-8.10547-5.78906-3.39453 4.7539 8.10547 5.78906"/><path fill-rule="evenodd" d="M249.97266 429.67578l.29297-.41406 5.125 3.65625-.45704.64062-3.65625-2.60937-.80468 1.1289-.45313-.3203.27344-.4961.10156-.23438.0625-.23828v-.25l-.0664-.26172-.16016-.28515-.25781-.3164"/><g clip-path="url(#h)"><path fill="none" stroke="#000" stroke-linecap="round" stroke-linejoin="round" stroke-miterlimit="10" stroke-width=".5" d="M147.51172 480.24219l-7.02344.17187"/></g><g clip-path="url(#i)"><path fill="none" stroke="#000" stroke-linecap="round" stroke-linejoin="round" stroke-miterlimit="10" stroke-width=".5" d="M147.51172 480.24219l1.20703 2.13672"/></g><g clip-path="url(#j)"><path fill="none" stroke="#000" stroke-linecap="round" stroke-linejoin="round" stroke-miterlimit="10" stroke-width=".5" d="M146.49219 480.26563l.60156 1.0703"/></g><g clip-path="url(#k)"><path fill="none" stroke="#000" stroke-linecap="round" stroke-linejoin="round" stroke-miterlimit="10" stroke-width=".5" d="M160.82031 480.10156l-7.01172.45703"/></g><g clip-path="url(#l)"><path fill="none" stroke="#000" stroke-linecap="round" stroke-linejoin="round" stroke-miterlimit="10" stroke-width=".5" d="M160.82031 480.10156l1.29297 2.08594"/></g><g clip-path="url(#m)"><path fill="none" stroke="#000" stroke-linecap="round" stroke-linejoin="round" stroke-miterlimit="10" stroke-width=".5" d="M159.80078 480.16797l.64453 1.04297"/></g><g clip-path="url(#n)"><path fill="none" stroke="#000" stroke-linecap="round" stroke-linejoin="round" stroke-miterlimit="10" stroke-width=".5" d="M174.14063 480.19531l-7.02344.26563"/></g><g clip-path="url(#o)"><path fill="none" stroke="#000" stroke-linecap="round" stroke-linejoin="round" stroke-miterlimit="10" stroke-width=".5" d="M174.14063 480.19531l1.23437 2.1211"/></g><g clip-path="url(#p)"><path fill="none" stroke="#000" stroke-linecap="round" stroke-linejoin="round" stroke-miterlimit="10" stroke-width=".5" d="M187.45703 480.21484l-7.02344.22657"/></g><g clip-path="url(#q)"><path fill="none" stroke="#000" stroke-linecap="round" stroke-linejoin="round" stroke-miterlimit="10" stroke-width=".5" d="M187.45703 480.21484l1.22266 2.12891"/></g><g clip-path="url(#r)"><path fill="none" stroke="#000" stroke-linecap="round" stroke-linejoin="round" stroke-miterlimit="10" stroke-width=".5" d="M186.4336 480.25l.61327 1.0625"/></g><g clip-path="url(#s)"><path fill="none" stroke="#000" stroke-linecap="round" stroke-linejoin="round" stroke-miterlimit="10" stroke-width=".5" d="M200.76953 480.17969l-7.01953.29687"/></g><g clip-path="url(#t)"><path fill="none" stroke="#000" stroke-linecap="round" stroke-linejoin="round" stroke-miterlimit="10" stroke-width=".5" d="M200.76953 480.17969l1.24219 2.11719"/></g><g clip-path="url(#u)"><path fill="none" stroke="#000" stroke-linecap="round" stroke-linejoin="round" stroke-miterlimit="10" stroke-width=".5" d="M214.08594 480.5l-7.01953-.33984"/></g><g clip-path="url(#v)"><path fill="none" stroke="#000" stroke-linecap="round" stroke-linejoin="round" stroke-miterlimit="10" stroke-width=".5" d="M214.08594 480.5l1.04297 2.21875"/></g><g clip-path="url(#w)"><path fill="none" stroke="#000" stroke-linecap="round" stroke-linejoin="round" stroke-miterlimit="10" stroke-width=".5" d="M227.38672 480.66016l-6.9961-.66407"/></g><g clip-path="url(#x)"><path fill="none" stroke="#000" stroke-linecap="round" stroke-linejoin="round" stroke-miterlimit="10" stroke-width=".5" d="M227.38672 480.66016l.94531 2.26562"/></g><g clip-path="url(#y)"><path fill="none" stroke="#000" stroke-linecap="round" stroke-linejoin="round" stroke-miterlimit="10" stroke-width=".5" d="M226.3711 480.5625l.46874 1.13281"/></g><g clip-path="url(#z)"><path fill="none" stroke="#000" stroke-linecap="round" stroke-linejoin="round" stroke-miterlimit="10" stroke-width=".5" d="M240.70313 480.66797l-6.9961-.67578"/></g><g clip-path="url(#A)"><path fill="none" stroke="#000" stroke-linecap="round" stroke-linejoin="round" stroke-miterlimit="10" stroke-width=".5" d="M240.70313 480.66797l.9375 2.26562"/></g><g clip-path="url(#B)"><path fill="none" stroke="#000" stroke-linecap="round" stroke-linejoin="round" stroke-miterlimit="10" stroke-width=".5" d="M254.02734 480.53125l-7.01562-.40625"/></g><g clip-path="url(#C)"><path fill="none" stroke="#000" stroke-linecap="round" stroke-linejoin="round" stroke-miterlimit="10" stroke-width=".5" d="M254.02734 480.53125l1.02735 2.23047"/></g><g clip-path="url(#D)"><path fill="none" stroke="#000" stroke-linecap="round" stroke-linejoin="round" stroke-miterlimit="10" stroke-width=".5" d="M267.32813 479.92969l-6.98438.80078"/></g><g clip-path="url(#E)"><path fill="none" stroke="#000" stroke-linecap="round" stroke-linejoin="round" stroke-miterlimit="10" stroke-width=".5" d="M267.32813 479.92969l1.39062 2.01953"/></g><g clip-path="url(#F)"><path fill="none" stroke="#000" stroke-linecap="round" stroke-linejoin="round" stroke-miterlimit="10" stroke-width=".5" d="M280.66016 480.125l-7.01563.41016"/></g><g clip-path="url(#G)"><path fill="none" stroke="#000" stroke-linecap="round" stroke-linejoin="round" stroke-miterlimit="10" stroke-width=".5" d="M280.66016 480.125l1.27343 2.09375"/></g><g clip-path="url(#H)"><path fill="none" stroke="#000" stroke-linecap="round" stroke-linejoin="round" stroke-miterlimit="10" stroke-width=".5" d="M293.96484 480.02344l-7 .60937"/></g><g clip-path="url(#I)"><path fill="none" stroke="#000" stroke-linecap="round" stroke-linejoin="round" stroke-miterlimit="10" stroke-width=".5" d="M293.96484 480.02344l1.33594 2.0586"/></g><g clip-path="url(#J)"><path fill="none" stroke="#000" stroke-linecap="round" stroke-linejoin="round" stroke-miterlimit="10" stroke-width=".5" d="M307.26172 479.85156l-6.96094.95313"/></g><g clip-path="url(#K)"><path fill="none" stroke="#000" stroke-linecap="round" stroke-linejoin="round" stroke-miterlimit="10" stroke-width=".5" d="M306.25 479.99219l.71484.99219"/></g><g clip-path="url(#L)"><path fill="none" stroke="#000" stroke-linecap="round" stroke-linejoin="round" stroke-miterlimit="10" stroke-width=".5" d="M320.60938 480.3164l-7.02735.02735"/></g><g clip-path="url(#M)"><path fill="none" stroke="#000" stroke-linecap="round" stroke-linejoin="round" stroke-miterlimit="10" stroke-width=".5" d="M319.58594 480.32031l.58203 1.07813"/></g><g clip-path="url(#N)"><path fill="none" stroke="#000" stroke-linecap="round" stroke-linejoin="round" stroke-miterlimit="10" stroke-width=".5" d="M333.91016 480.03125l-7 .59766"/></g><g clip-path="url(#O)"><path fill="none" stroke="#000" stroke-linecap="round" stroke-linejoin="round" stroke-miterlimit="10" stroke-width=".5" d="M332.89453 480.11719l.66406 1.03125"/></g><g clip-path="url(#P)"><path fill="none" stroke="#000" stroke-linecap="round" stroke-linejoin="round" stroke-miterlimit="10" stroke-width=".5" d="M347.14063 479.5l-6.82813 1.66016"/></g><g clip-path="url(#Q)"><path fill="none" stroke="#000" stroke-linecap="round" stroke-linejoin="round" stroke-miterlimit="10" stroke-width=".5" d="M346.14844 479.74219l.8125.91406"/></g><g clip-path="url(#R)"><path fill="none" stroke="#000" stroke-linecap="round" stroke-linejoin="round" stroke-miterlimit="10" stroke-width=".5" d="M359.64063 477.96484l-5.19922 4.73047"/></g><path fill="none" stroke="#000" stroke-linecap="round" stroke-linejoin="round" stroke-miterlimit="10" stroke-width=".5" d="M358.88281 478.65234l1.15625.41407"/><g clip-path="url(#S)"><path fill="none" stroke="#000" stroke-linecap="round" stroke-linejoin="round" stroke-miterlimit="10" stroke-width=".5" d="M371.04688 476.88281l-1.38282 6.89063"/></g><g clip-path="url(#T)"><path fill="none" stroke="#000" stroke-linecap="round" stroke-linejoin="round" stroke-miterlimit="10" stroke-width=".5" d="M382.78906 476.92578l1.76172 6.80469"/></g><path fill="none" stroke="#000" stroke-linecap="round" stroke-linejoin="round" stroke-miterlimit="10" stroke-width=".5" d="M383.04688 477.91797l.90234-.82813"/><g clip-path="url(#U)"><path fill="none" stroke="#000" stroke-linecap="round" stroke-linejoin="round" stroke-miterlimit="10" stroke-width=".5" d="M396.875 476.8164l.22266 7.02344"/></g><g clip-path="url(#V)"><path fill="none" stroke="#000" stroke-linecap="round" stroke-linejoin="round" stroke-miterlimit="10" stroke-width=".5" d="M413.75781 479.70703l-6.91406 1.2461"/></g><g clip-path="url(#W)"><path fill="none" stroke="#000" stroke-linecap="round" stroke-linejoin="round" stroke-miterlimit="10" stroke-width=".5" d="M427.00781 479.41016l-6.78125 1.83593"/></g><g clip-path="url(#X)"><path fill="none" stroke="#000" stroke-linecap="round" stroke-linejoin="round" stroke-miterlimit="10" stroke-width=".5" d="M426.01953 479.67969l.83985.89453"/></g><g clip-path="url(#Y)"><path fill="none" stroke="#000" stroke-linecap="round" stroke-linejoin="round" stroke-miterlimit="10" stroke-width=".5" d="M440.40234 479.77344l-6.9414 1.10937"/></g><g clip-path="url(#Z)"><path fill="none" stroke="#000" stroke-linecap="round" stroke-linejoin="round" stroke-miterlimit="10" stroke-width=".5" d="M440.40234 479.77344l1.47657 1.95703"/></g><g clip-path="url(#aa)"><path fill="none" stroke="#000" stroke-linecap="round" stroke-linejoin="round" stroke-miterlimit="10" stroke-width=".5" d="M453.75781 480.40234l-7.02344-.14843"/></g><g clip-path="url(#ab)"><path fill="none" stroke="#000" stroke-linecap="round" stroke-linejoin="round" stroke-miterlimit="10" stroke-width=".5" d="M453.75781 480.40234l1.10547 2.19141"/></g><g clip-path="url(#ac)"><path fill="none" stroke="#000" stroke-linecap="round" stroke-linejoin="round" stroke-miterlimit="10" stroke-width=".5" d="M467.03906 479.83203l-6.95703.9961"/></g><g clip-path="url(#ad)"><path fill="none" stroke="#000" stroke-linecap="round" stroke-linejoin="round" stroke-miterlimit="10" stroke-width=".5" d="M466.02734 479.97656l.72266.98828"/></g><g clip-path="url(#ae)"><path fill="none" stroke="#000" stroke-linecap="round" stroke-linejoin="round" stroke-miterlimit="10" stroke-width=".5" d="M147.51172 466.98828l-7.02344.05078"/></g><path fill="none" stroke="#000" stroke-linecap="round" stroke-linejoin="round" stroke-miterlimit="10" stroke-width=".5" d="M147.51172 466.98828l1.17187 2.15625m-2.1914-2.14844l.58203 1.07813m13.7461-1.3086l-7.01173.4961m7.01172-.4961l1.30078 2.07813m-2.3203-2.00781l.64843 1.04297m13.6836-1.16016l-7.00391.58984m7.0039-.58984l1.32813 2.0664m11.98828-2.03124l-7.00781.51953m7.0078-.51953l1.3086 2.07812m11.95703-2.46875l-6.90625 1.30078m6.90625-1.30078l1.53125 1.91406m11.7461-2.08593l-6.83203 1.64453m6.83203-1.64453l1.625 1.83593m11.64844-1.98437l-6.75391 1.9414m6.7539-1.9414l1.70704 1.76562m-2.6875-1.48437l.85156.88281m13.33594-1.48047l-6.53516 2.57422m6.53516-2.57422l1.86718 1.59375m-2.8164-1.21875l.9336.79688m13.36327-1.09766l-6.59765 2.42578m6.59765-2.42578l1.82813 1.63672m11.50781-1.5664l-6.64453 2.28515m6.64453-2.28516l1.79688 1.67188m11.41015-1.95313l-6.42578 2.84766m6.42578-2.84766l1.92969 1.51563m11.39844-1.48047l-6.45313 2.77734m6.45313-2.77734l1.91797 1.53125m11.40625-1.51563l-6.46875 2.7461m6.46875-2.7461l1.90625 1.54297m11.47265-1.3828l-6.59375 2.42577m6.59375-2.42578l1.82813 1.63281m11.17968-2.26562l-5.98046 3.6914m5.10937-3.15234l1.0586.61719m12.64062-1.77735l-5.00781 4.9336m4.27734-4.21485l1.17188.3672m12.33984-1.52735l-3.9414 5.8164m3.37109-4.96875l1.21875.12891M370.375 463.5l-.03906 7.02734m.03515-6.0039l1.08594-.57032m8.99219 1.66016l6.44531 2.80078M396.5625 470.5l.84766-6.97266M413.75 467.6836l-6.89844-1.33984m5.89453 1.14453l.35938 1.17188m12.9961-4.13282L421.1328 469.5m4.2461-4.2461l1.17187.35547m13.49219-.23046l-6.22266 3.26953m6.22266-3.26953l2.02734 1.3828m11.22657-1.48827l-6.10157 3.48047m6.10157-3.48047l2.07421 1.3086m11.19532-1.38673l-6.01172 3.63672m5.13672-3.10937l1.05468.6289"/><g clip-path="url(#af)"><path fill="none" stroke="#000" stroke-linecap="round" stroke-linejoin="round" stroke-miterlimit="10" stroke-width=".5" d="M147.5 453.375l-7 .64844"/></g><path fill="none" stroke="#000" stroke-linecap="round" stroke-linejoin="round" stroke-miterlimit="10" stroke-width=".5" d="M147.5 453.375l1.34375 2.05078m11.94922-2.23047l-6.95313 1.00782m6.95313-1.00782l1.44922 1.97657m11.76562-2.4375l-6.75781 1.92578m5.77734-1.64453l.84766.8828m13.52344-.85156l-6.90625 1.30079m5.90234-1.10938l.76563.95703m13.48047-1.45703l-6.76172 1.92188m5.77734-1.64063l.85156.88281m13.23047-1.73437l-6.32422 3.0625m5.40235-2.61719l.99218.72266m13.00782-1.58203l-5.85157 3.89062m5-3.32422l1.07813.58203m12.8711-1.4414l-5.41798 4.47265m4.63282-3.8203l1.1328.46874m13.01563-1.0625l-5.51172 4.35938m5.51172-4.35938l2.2461.98438m11.32422-.6172l-6.02344 3.625m6.02344-3.625l2.10156 1.26173m11.34766-1.01172l-6.29297 3.125m6.29297-3.125l1.99609 1.42969m11.11719-1.78516l-5.89063 3.83203m5.89063-3.83203l2.14843 1.1914m11.25-1.05468l-6.05468 3.5625m6.05468-3.5625l2.09375 1.28125m11.21485-1.29688l-6.04297 3.59375m6.04297-3.59375l2.09765 1.27344m11.12891-1.41406l-5.86328 3.875m5.86328-3.875l2.15234 1.17187m11.07032-1.30468l-5.6797 4.14062m5.6797-4.14062l2.20703 1.07422m9.72265-2.20313l-2.91015 6.39453m2.91015-6.39453l2.44922-.14844m10.6875.07422l-2.55469 6.54688m2.1836-5.59375l1.21875-.14453M385.1289 450.5l-2.91407 6.39453m2.48828-5.46094l1.22657-.07812m10.35547-1.10156l1.40234 6.88672m-1.19922-5.88282l.94922-.78125m15.53125.9375l-5.33594 4.57032m4.5625-3.90625l1.14063.44921m12.26953-1.72265l-3.98047 5.78906m3.40234-4.94922l1.21875.14063m14.02344.8203l-6.67578 2.1875m6.67578-2.1875l1.76953 1.69923m10.66016-3.1211l-4.90625 5.03125m4.90625-5.03125l2.35547.6875m11.42578-.1289l-5.83594 3.91406m4.98438-3.34375l1.08203.57813"/><g clip-path="url(#ag)"><path fill="none" stroke="#000" stroke-linecap="round" stroke-linejoin="round" stroke-miterlimit="10" stroke-width=".5" d="M147.51172 440.51563l-7.02344-.26563"/></g><path fill="none" stroke="#000" stroke-linecap="round" stroke-linejoin="round" stroke-miterlimit="10" stroke-width=".5" d="M147.51172 440.51563l1.07031 2.21093m12.14453-3.1875l-6.82422 1.6875m5.83203-1.4414l.81641.91406m13.33984-1.625l-6.51953 2.6211m5.57032-2.2422l.9375.79297m13.55859-.25l-6.98438.77735m5.96875-.66406l.69141 1.01171m13.17578-2.51953l-6.0586 3.5625m5.17579-3.04297l1.04688.64063m12.78906-1.66406l-5.33594 4.5703m4.5625-3.90624l1.14063.44922m13.5703-.0586l-6.58202 2.46094m5.625-2.10156l.92187.8125m12.17188-2.75l-4.22266 5.61719m3.60938-4.80078l1.21093.1914m11.2539-1.65234l-1.29296 6.90625m1.29297-6.90625l2.33984-.73438m11.49219.8711l-2.32813 6.6328M265 437.06642l2.42578-.3672m11.96485.97657l-4.47657 5.41797m4.47656-5.41797l2.40235.49219m10.57031-.74219l-3.79297 5.91406m3.79297-5.91406l2.44531.19922m11.41016.22656l-4.875 5.0625m4.875-5.0625l2.35937.67188m-3.0703.0664l1.17968.33594m13.22266-.64844l-5.62891 4.21094m5.6289-4.21094l2.21876 1.04688m-3.03907-.4336l1.10938.52344m12.89062-1.30468l-5.35937 4.54687m5.35937-4.54687l2.28125.91015m-3.05859-.2461l1.13672.45313m12.67969-1.40625l-4.8086 5.125m4.8086-5.125l2.37109.64453m9.16406-1.53906l-1.2461 6.91406m1.2461-6.91406l2.33594-.75m9.46094.8086l1.78906 6.79687m-1.78906-6.79687l1.80078-1.66407m9.98047 7.60547l4.85547-5.08203m-4.14844 4.33984l-1.17969-.33203m19.72656-1.6211l-7.01953.3047m7.01953-.3047l1.2461 2.11329m12-2.67969l-6.8789 1.4375m5.875-1.22656l.78515.9414m13.4336-1.52343l-6.6797 2.17969m5.70703-1.85938l.88282.84766m13.5664.21094l-7.0039-.57422m7.0039.57422l.97266 2.25m12.34375-2.26563l-7.00781-.54297m7.00781.54297l.98047 2.2461m11.8125-4.38282l-5.96094 3.72656"/><g clip-path="url(#ah)"><path fill="none" stroke="#000" stroke-linecap="round" stroke-linejoin="round" stroke-miterlimit="10" stroke-width=".5" d="M466.54297 438.51953l2.125 1.22656"/></g><g clip-path="url(#ai)"><path fill="none" stroke="#000" stroke-linecap="round" stroke-linejoin="round" stroke-miterlimit="10" stroke-width=".5" d="M147.3711 428.05469l-6.7422-1.97266"/></g><path fill="none" stroke="#000" stroke-linecap="round" stroke-linejoin="round" stroke-miterlimit="10" stroke-width=".5" d="M146.39063 427.76953l.25 1.19922m14.18359-1.72266l-7.01953-.35547m6 .3047l.51953 1.10937m13.78516-1.72266l-6.95704.97266m5.94532-.83203l.71875.99218m13.2578.95313l-6.2578-3.19922m5.34765 2.73438l.01953 1.22656m13.62891.05469l-5.10547-4.82813m4.36328 4.125l-.32422 1.1836m15.05078-4.30079l-6.4414 2.8086m5.5039-2.40235l.96094.76563m12.13672-2.60938l-4.13281 5.6836m3.53125-4.85547l1.21484.16797m13.40235-.32032l-5.53516 4.33203m4.73047-3.69921l1.1211.49609m13.1875-.85938l-5.91407 3.79297m5.05469-3.24218l1.07031.60156m10.1211-2.76953l.05468 7.02734m14.98438-6.58984l-3.39454 6.15234m2.89844-5.25781l1.22656.01953m12.29297-1.0586l-2.80859 6.44141m2.39844-5.5039l1.22265-.09375m14.54297 3.0703l-6.89062-1.38671m17.96875-2.60547l-2.41797 6.59766m2.41797-6.59766l2.4336-.33594m11.51952.64453l-3.6914 5.98047m3.6914-5.98047l2.44922.16016m-2.98828.71094l1.22656.07812m13.67969.0547l-5.79688 3.97265m5.79688-3.97266l2.17578 1.13672m11.33985-.80078l-6.19922 3.30469m5.29687-2.82422l1.01953.6836m11.60156-2.6875l-3.0078 6.34765m2.5703-5.42578l1.22657-.0547m12.7539-.75l-3.46093 6.11329m3.46093-6.11328l2.45313.0625m12.5039 2.01172l-6.74609 1.96484m6.7461-1.96484l1.71093 1.75781m-2.6914-1.47266l.85546.87891m13.4297-1.19922l-6.72657 2.03516m6.72656-2.03516l1.73047 1.74219m-2.70703-1.44531l1.72656 1.73828m12.27344-2.72266l-6.14063 3.41016m6.14063-3.41016l2.0586 1.33203m-2.95313-.83594l2.0586 1.33204m11.84765-2.28516l-5.53516 4.32422m5.53516-4.32422l2.24219.9961m-3.04688-.3672l1.1211.5m13.47265-.32421l-6.48437 2.71484m6.48437-2.71484l1.89844 1.55468m-2.84375-1.16015l.94922.77734m12.19922-2.60937l-4.25782 5.58984m3.63672-4.77734l1.21094.19922"/><g clip-path="url(#aj)"><path fill="none" stroke="#000" stroke-linecap="round" stroke-linejoin="round" stroke-miterlimit="10" stroke-width=".5" d="M147.4336 413.01172l-6.8672 1.48437"/></g><path fill="none" stroke="#000" stroke-linecap="round" stroke-linejoin="round" stroke-miterlimit="10" stroke-width=".5" d="M146.4336 413.22656l.79296.9375m13.34766-1.72656l-6.51953 2.6289m5.57031-2.24609l.9414.78907m13.39063-.98438l-6.65234 2.25781m5.6836-1.92968l.89452.83984m12.78516-2.26172l-5.44531 4.44531m4.65234-3.80078l1.13281.47656m12.8789-1.23437l-5.25 4.67187m4.48438-3.99218l1.15235.42578m13.65234 2.28906l-6.69922-2.11719m19.99219 2.1836l-6.65625-2.25391m5.6875 1.92578l.19922 1.21094m14.2461-1.60547l-6.98048-.80469m5.96485.6875l.44922 1.14063m13.89843-1.63281l-7.01562.41015m5.9961-.34765l.63671 1.04687m13.70313-1.00781l-7.02344.21094m6-.1797l.60937 1.06641m13.07422-3.03515l-5.71484 4.08594m4.88281-3.4922l1.10156.54688m13.54688-.13281l-6.71484 2.07031m5.73828-1.76953l.86718.86328m13.54297-.64453l-6.95312 1.02735m5.9414-.875l.72657.98437m13.63672-.70703l-7.02735.17187m7.02735-.17187l1.20312 2.14062m12.09766-1.71875l-6.9961-.67187m5.97657.57422l.46875 1.13281m13.8789-1.48828l-7.02344.23437m7.02344-.23437l1.22266 2.125m12.09375-2.03125l-7.02735.04687m7.02735-.04687l1.16406 2.16015m11.89063-3.46484l-6.50782 2.65235m6.50782-2.65235L375.49609 414m-2.83203-1.1875l.9414.78516m12.95704-1.83985l-5.78516 3.98828m5.78516-3.98828l2.17969 1.1289m-3.01953-.54687l1.08984.5625m13.28516-.78125l-6.22266 3.26563m6.22266-3.26563L402.125 413.5m-2.9336-.90625l2.02735 1.38281m12.19531-1.85547l-6.22656 3.26172m6.22656-3.26172l2.02344 1.38672m-2.92969-.91015l2.02735 1.3828m12.3164-1.59765l-6.46875 2.74219m6.46875-2.74219l1.90625 1.54297m-2.84765-1.14453l.95312.77344m13.26953-1.2539l-6.40234 2.90234m6.40234-2.90235l1.9414 1.5m-2.875-1.07422l.97267.7461m13.11718-1.47657l-6.08593 3.51563m6.08593-3.51563l2.08203 1.30079m-2.96875-.78907l1.04297.65235m12.14844-2.27344l-4.0625 5.73437"/><g clip-path="url(#ak)"><path fill="none" stroke="#000" stroke-linecap="round" stroke-linejoin="round" stroke-miterlimit="10" stroke-width=".5" d="M465.59375 410.88672l2.4336.3125"/></g><path fill="none" stroke="#000" stroke-linecap="round" stroke-linejoin="round" stroke-miterlimit="10" stroke-width=".5" d="M465.0039 411.72266l1.21485.15625"/><g clip-path="url(#al)"><path fill="none" stroke="#000" stroke-linecap="round" stroke-linejoin="round" stroke-miterlimit="10" stroke-width=".5" d="M147.08203 398.75l-6.16406 3.3789"/></g><path fill="none" stroke="#000" stroke-linecap="round" stroke-linejoin="round" stroke-miterlimit="10" stroke-width=".5" d="M147.08203 398.75l2.05078 1.34375m10.5-2.29688l-4.63672 5.28125m4.63672-5.28125l2.39063.56641m10.17969-1.0664l-3.14844 6.28125m2.6914-5.3672l1.22657-.02734m11.93359-1.125l-1.92188 6.75782m1.64063-5.77344l1.20313-.25781m14.66796 1.28515l-6.47265 2.73438m5.53125-2.33594l.95312.77344m11.26953-3.10547l-2.40234 6.60156m16.97266-5.8125l-4.91407 5.02344m4.19922-4.29297l1.17578.34766m13.3086-.53125l-5.82422 3.92968m4.97656-3.35546l1.08594.57421m13.625.21094l-6.92188 1.21485m5.91407-1.03907l.7578.96875m13.32813-1.9375l-6.4453 2.80078m5.5078-2.39453l.96094.76563m12.64063-2.16406l-5.14454 4.78515m4.39844-4.08984l1.15625.40234m13.17188-.77734l-5.67969 4.14062m4.85547-3.53515l1.10156.53515m13.48828-.3086l-6.57812 2.47657m5.6211-2.11719l.91796.8125m13.54688-.40625l-6.96485.94532m5.94922-.8086l.71875.9961m13.53906-1.5L327 401.28125m6.82031-1.6836l1.64063 1.82813m11.60156.11719l-6.67188-2.21094m5.69922 1.89063l.20704 1.21093m13.93359-.51953l-6.3789-2.95312m5.44921 2.52344l.07031 1.22656m14.29688-3.44922l-6.6211 2.35547m6.6211-2.35547l1.8086 1.65234m-2.77344-1.3125l.90625.82813m13.1875-1.59375l-6.25 3.20703m6.25-3.20703l2.01562 1.39844m-2.92578-.9336l1.00781.69922m13.4961-.42578l-6.8086 1.72656m6.8086-1.72656l1.64843 1.82031m-2.63672-1.5664l.82422.90625m13.35547-1.5547l-6.5625 2.51563m6.5625-2.51562l1.85156 1.60937m-2.80468-1.24219l1.85156 1.60938m12.16797-2.49219l-6.0625 3.55078m6.0625-3.55078l2.08984 1.28516m-2.97265-.76953l1.04687.64453m12.60156-1.8711l-4.96875 4.96875m4.96875-4.96875l2.34766.71875m-3.07031.00391l1.17578.35938m13.57422-.0625l-6.38672 2.92968m6.38672-2.92968l1.94921 1.48828m-2.8789-1.0625l.97265.7461m12.95313-1.72657l-5.75 4.03906"/><g clip-path="url(#am)"><path fill="none" stroke="#000" stroke-linecap="round" stroke-linejoin="round" stroke-miterlimit="10" stroke-width=".5" d="M466.4375 398.41797l2.1875 1.11328"/></g><path fill="none" stroke="#000" stroke-linecap="round" stroke-linejoin="round" stroke-miterlimit="10" stroke-width=".5" d="M465.60156 399.00781l1.09375.55469"/><g clip-path="url(#an)"><path fill="none" stroke="#000" stroke-linecap="round" stroke-linejoin="round" stroke-miterlimit="10" stroke-width=".5" d="M147.19531 385.66016l-6.39062 2.92578"/></g><path fill="none" stroke="#000" stroke-linecap="round" stroke-linejoin="round" stroke-miterlimit="10" stroke-width=".5" d="M146.26563 386.08594l.97265.74219m12.52344-2.22657l-4.89063 5.04688m4.17578-4.3125l1.1797.33984m12.73046-1.1836l-4.65234 5.26563m4.65234-5.26562l2.38672.57031m9.98828-1.16797l-2.77344 6.45703m2.77344-6.45703l2.44531-.20312m7.80078 6.51562l3.36329-6.16797m15.01172 4.04688l-6.75782-1.92188m5.77735 1.64063l.2578 1.19922m14.17188-1.77735l-7.02343-.20703m7.02343.20703l1.08594 2.19922m12.22266-2.51172l-7.01172.41797m7.01172-.41797l1.28125 2.09766m12.03515-2.125l-7.01172.47656m7.01172-.47656l1.29297 2.08203m11.98828-2.38281l-6.9453 1.07422m6.9453-1.07422l1.46875 1.96484m11.85157-1.9336l-6.95704 1.01173m5.94532-.86329l.72265.98829m13.53125-1.4961l-6.80859 1.73438m6.8086-1.73438l1.65234 1.8125m11.42578-2.46484l-6.33594 3.03515m5.41406-2.59375l.98828.72657m13.1211-1.41016l-6.08203 3.51953m5.19922-3.00781l1.03906.65234m13.17578-1.13671l-6.11328 3.46484m5.22265-2.96094l1.03516.65625m13.33594-.82422l-6.44531 2.79297m5.5078-2.38672l.96095.76563m13.47265-.64063l-6.8086 1.73047m6.8086-1.73047l1.65235 1.8164m11.59375-2.05468l-6.67188 2.20703m6.67188-2.20703l1.77343 1.69531m11.22266-2.39062l-6.03516 3.59765m6.03516-3.59765l2.10156 1.26953m-2.97656-.7461l1.04687.63673m13.1875-1.08204l-6.12109 3.44532m6.1211-3.44532l2.0664 1.32032m-2.95703-.82032l1.03516.66016m13.17187-1.16016l-6.125 3.44141m6.125-3.4414l2.0664 1.32421m-2.95702-.82422l1.03515.66407m12.90625-1.57032l-5.59375 4.25391m5.59375-4.2539l2.22656 1.02343m-3.04296-.40625l1.11718.51563m12.72266-1.46485l-5.01172 4.92188m5.01172-4.92188l2.33984.73828m-3.0664-.02343l1.16797.37109m13.30468-.55469l-5.875 3.85938m5.875-3.85938l2.15235 1.17578m-3.00782-.61718l1.07813.58984m13.3125-.76563l-6.3125 3.08985"/><g clip-path="url(#ao)"><path fill="none" stroke="#000" stroke-linecap="round" stroke-linejoin="round" stroke-miterlimit="10" stroke-width=".5" d="M466.71875 385.57813l1.98438 1.4414"/></g><g clip-path="url(#ap)"><path fill="none" stroke="#000" stroke-linecap="round" stroke-linejoin="round" stroke-miterlimit="10" stroke-width=".5" d="M141.02734 371.9336l5.94532 3.75"/></g><path fill="none" stroke="#000" stroke-linecap="round" stroke-linejoin="round" stroke-miterlimit="10" stroke-width=".5" d="M154.32813 371.95703l5.97265 3.70313m-5.10156-3.16407l.08203-1.22656m17.36719-.33594l-4.03516 5.75m3.44922-4.91406l1.21484.14844m12.69532-.98047l-4.0547 5.73828m3.46485-4.90234l1.21875.15625m13.51563-.16406l-5.71485 4.08593m4.88282-3.49219l1.10156.54688m13.6211.16016l-6.8672 1.48437m5.8711-1.26953l.78906.9375m13.60156-.47266l-7.02343.125m6.0039-.10546l.59375 1.0703m13.74219-1.02734h-7.02734m7.02734 0l1.15234 2.16797m11.98438-3.27344l-6.67188 2.20704m6.67188-2.20704l1.77344 1.69532m11.2539-2.33985l-6.09375 3.5m6.09375-3.5l2.07813 1.3047m11.15234-1.44532l-5.92578 3.78125m5.0625-3.23047l1.07031.60547m13.39063-.61719l-6.48828 2.70313m5.54297-2.3086l.94921.77735m13.41797-.8711l-6.70703 2.09766m5.73438-1.79297l.87109.86328m13.54688-.58203l-6.96485.92578m5.95313-.78906l.71093.9961m13.59375-1.27735l-6.92187 1.21875m5.91406-1.04297l.75781.96875m12.98829-2.54297l-5.76954 4.01563m4.9297-3.4297l1.09374.5586m13.42969-.47265l-6.5039 2.66796m6.5039-2.66796l1.88672 1.5664m11.64062-.8164l-6.92969 1.16796m6.9297-1.16796l1.49609 1.9453m11.53515-2.85155l-6.36328 2.98046m6.36328-2.98046l1.96485 1.47656m11.09765-1.92969l-5.85547 3.89063m5.85547-3.89063l2.15625 1.16797m-3.00781-.60156l1.07813.58203m13.03515-1.22266l-5.75 4.03906m5.75-4.03906l2.1875 1.10938m-3.02344-.52344l1.09375.5586m12.9336-1.3125l-5.5 4.375m5.5-4.375l2.25.98046m-3.05078-.34375l1.125.48828m12.46093-1.66015l-4.4414 5.44531m4.4414-5.44531l2.40625.47656m-3.05078.3164l1.20313.23829m13.08594-.72266l-5.10157 4.82813m5.10156-4.82813l2.32813.78125m-3.07031-.07812l1.16406.39062m12.82813-1.16406l-4.96875 4.96875"/><g clip-path="url(#aq)"><path fill="none" stroke="#000" stroke-linecap="round" stroke-linejoin="round" stroke-miterlimit="10" stroke-width=".5" d="M466.04688 371.32422l2.34375.71875"/></g><g clip-path="url(#ar)"><path fill="none" stroke="#000" stroke-linecap="round" stroke-linejoin="round" stroke-miterlimit="10" stroke-width=".5" d="M140.5039 360.14453l6.9922.69922"/></g><path fill="none" stroke="#000" stroke-linecap="round" stroke-linejoin="round" stroke-miterlimit="10" stroke-width=".5" d="M153.80078 360.54688l7.02734-.10938m-6.0039.09375l-.59375-1.07422m17.04687-2.41797l-1.29687 6.90625m1.10937-5.90234l1.17188-.36328m13.88672.07422l-4.40625 5.47656m3.76562-4.67969l1.20313.23047m13.67578.10938l-6.2539 3.20703m5.34374-2.7422l1.00781.70313m13.46485-.53906l-6.75 1.94922m5.76953-1.66797l.85547.88281m13.54687-.67578l-6.96093.97266m5.94922-.83203l.71875.99219m13.36718-2.00391l-6.48047 2.71484m5.53907-2.32031l.94922.77344m13.21093-1.3789l-6.28906 3.13671m6.28906-3.13672l2 1.42188m10.76563-2.22266l-5.1875 4.73828m5.1875-4.73828l2.3125.82422m10.55078-1.24219l-4.28125 5.57422m4.28125-5.57422l2.41797.40625m10.28125-.78515l-3.05078 6.32812m3.05078-6.32813l2.45312-.09765m10.71875.03515l-2.76562 6.45704m2.76562-6.45704l2.44531-.20703m9.3047-.07421l.36327 7.01953m-.30859-6l1.05078-.62891m15.89063 2.8125l-7 .60938m20.2539.42968l-6.875-1.46484m20.23047 1.21484l-6.95703-.96484m5.94531.82422l.42188 1.15234m13.9336-1.3125l-7.01563-.36719m5.99609.31641l.51953 1.10938m13.70703-2.13282l-6.79687 1.78125m6.79687-1.78125l1.66406 1.80469m11.04688-3.04297l-5.58984 4.26172m5.58984-4.26172l2.22656 1.02344m11.0039-1.1289l-5.42187 4.46874m5.42188-4.46875l2.26953.9414m10.70312-1.30468l-4.73437 5.19531m4.73437-5.1953l2.375.60937m10.89454-.64844l-4.64454 5.27344m4.64454-5.27344l2.38671.5664m10.76563-.69921l-4.32031 5.54296m4.32031-5.54296l2.41797.42187m10.78515-.5039l-4.09765 5.70703"/><g clip-path="url(#as)"><path fill="none" stroke="#000" stroke-linecap="round" stroke-linejoin="round" stroke-miterlimit="10" stroke-width=".5" d="M465.60938 357.64063l2.43359.32812"/></g><g clip-path="url(#at)"><path fill="none" stroke="#000" stroke-linecap="round" stroke-linejoin="round" stroke-miterlimit="10" stroke-width=".5" d="M140.58203 346.35938L147.41797 348"/></g><path fill="none" stroke="#000" stroke-linecap="round" stroke-linejoin="round" stroke-miterlimit="10" stroke-width=".5" d="M153.8086 347.3789l7.01562-.40234m-7.01563.40235l-1.27343-2.09766m15.40625 4.16016l5.375-4.52735m-4.59375 3.86719l-1.13672-.45703m13.84375 1.3086l5.02734-4.91016m13.60547 4.57812l-5.60156-4.24219m19.6289 2.19922l-7.02734-.16015m6.0039.13671l.55079 1.09766m13.78515-1.20312l-7.02343.09765m6.0039-.08203l.58985 1.07422m13.36718-2.6289l-6.26953 3.17577m5.35938-2.71484l1 .70703m12.77344-1.84765l-5.3672 4.53515m4.58595-3.875l1.14062.45313m11.23828-2.22266l-1.92969 6.75781m1.64844-5.77734l1.19922-.2539m11.48047-.86329l-.09766 7.02735m.08594-6.00391l1.08984-.5625m11.33594-.35547l1.70313 6.8164m-1.45313-5.82421l.91016-.82031m11.51562.05468l2.98438 6.36329m-2.55078-5.4375l.73828-.98047m12.49218-.08594l2.28516 6.64453m-1.95312-5.67969l.83984-.89453m9.77734 3.46485l7.01563-.42579m-5.99219.36329l-.64062-1.04297m13.11718-.2461l6.64844 2.28125m-5.67969-1.94922l-.1953-1.21484m18.17968 4.66797l-4.6289-5.28906m18.30859 4.91796l-5.35547-4.55078m4.57422 3.89063l-.26172 1.19531m14.78125-1.16015l-6.20313-3.30079m5.30078 2.82032v1.22656m14.60157-2.8164l-6.97266.83984m5.96094-.71875l.69922 1.0078m12.20312-3.55468l-4.125 5.6914m3.52734-4.86327l1.21485.17187m11.82031-1.46094l-2.36719 6.6172m2.3672-6.6172l2.42577-.35546m11.52344.65625l-3.63672 6.01171m3.63672-6.01171l2.44922.1328m10.71094-.22265l-3.32813 6.1914m2.84375-5.28906l1.22656.00391m13.79297.17969l-5.76562 4.01953m4.92578-3.4336l1.08984.5586"/><g clip-path="url(#au)"><path fill="none" stroke="#000" stroke-linecap="round" stroke-linejoin="round" stroke-miterlimit="10" stroke-width=".5" d="M141.72266 331.1875l4.55468 5.35156"/></g><path fill="none" stroke="#000" stroke-linecap="round" stroke-linejoin="round" stroke-miterlimit="10" stroke-width=".5" d="M153.84375 333.33203l6.94531 1.0625m-5.9375-.91015l-.40234-1.15625m13.09375 3.21093l6.17578-3.35156m-5.27734 2.86328l-1.02344-.67578m14.66797 2.46875l3.71875-5.96094m-3.17578 5.09375l-1.22657-.08203m19.3711-1.96094l-7.02735-.14062m6.00391.1211l.55469 1.09374m10.73828 2.33594l-.9375-6.96094m17.28516 3.80469l-7-.64844m5.98046.55469l.47266 1.13281m13.83594-1.8789l-6.94922 1.03125m5.9375-.88282l.73047.98829m13.3164-2.08204l-6.39062 2.92188m5.46094-2.4961l.97656.7422m8.25-2.71094l3.64844 6.0078m-3.1172-5.1328l.625-1.0547m11.4297.76954l5.10546 4.82812m-4.36328-4.125l.32813-1.18359m12.3711.35547l4.85546 5.07812m-4.15234-4.33984l.38672-1.16406m11.67968 1.09375l5.94532 3.74219m-5.08204-3.19922l.08985-1.22266m14.4375-.84766l1.79297 6.79688m-1.53125-5.8086l.90234-.83203m11 .38672l4.09375 5.71094m-3.4961-4.8789l.54298-1.10157m11.75 5.6211l4.9453-4.9922m-4.9453 4.9922l-2.35157-.70704m15.10157-.02343l6.07421-3.53125m-6.07421 3.53125l-2.08594-1.29688m18.40234 3.04297l.07031-7.02344m-.05859 6.0039l-1.08984.5625m15.6914.22267l-2.52343-6.5586m2.52343 6.5586l-1.60937 1.85546m16.5039-3.0664l-5.68359-4.13281M399 335.32813l-.17188 1.21484m14.97266-2.9961l-7 .63282m5.98047-.53906l.67187 1.02734m13.46094-2.01953l-6.59375 2.42969m6.59375-2.4297l1.82813 1.63282m11.34765-1.96094l-6.3164 3.08594m6.3164-3.08594l1.98438 1.4414m10.625-2.41405l-4.90625 5.03125m4.90625-5.03125l2.35547.68359m11.75781.5l-6.5039 2.66406"/><g clip-path="url(#av)"><path fill="none" stroke="#000" stroke-linecap="round" stroke-linejoin="round" stroke-miterlimit="10" stroke-width=".5" d="M466.8125 332.53125l1.88672 1.57031"/></g><g clip-path="url(#aw)"><path fill="none" stroke="#000" stroke-linecap="round" stroke-linejoin="round" stroke-miterlimit="10" stroke-width=".5" d="M141.8086 317.80078l4.3828 5.49219"/></g><path fill="none" stroke="#000" stroke-linecap="round" stroke-linejoin="round" stroke-miterlimit="10" stroke-width=".5" d="M154.70703 318.19531l5.21875 4.70703m-4.46094-4.02343l.29688-1.19141m15.89062 2.85938l-.01953-.19922-.0586-.19141-.09374-.17578-.46094-.3789-.1914-.0547-.19922-.01953-.19922.01954-.1914.05468-.45704.3789-.09375.17579-.0586.1914-.01952.19923.01953.19921.05859.19141.09375.17969.45703.375.1914.0586.19923.01952.19922-.01953.1914-.0586.46094-.375.09375-.17968.0586-.1914.01952-.19923m13.28125 3.3711l-1.97656-6.74219m1.6875 5.76172l-.8789.85938m14.77343.02343l-2.5586-6.54297m2.1875 5.58985l-.80077.9336m16.21484-1.4375l-6.01562-3.63282m5.14062 3.10547l-.0664 1.22656m14.7578-2.73438l-7.01562.44141m7.01563-.4414l1.28515 2.08984m11.92578-2.74219l-6.80859 1.7461m6.8086-1.7461l1.65234 1.8125m11.25781-2.76953l-5.9961 3.66016m5.9961-3.66016l2.11328 1.2461m10.41406-2.14844l-4.42187 5.46484m4.42188-5.46484l2.40625.46875m9.90625-1.03516l-2.41797 6.59766m2.41797-6.59766l2.42968-.33594m10.57422.23828l-1.79687 6.79297m1.79687-6.79297l2.39063-.55859m10.55468.48047l-1.05468 6.94922m.90234-5.9375l1.15625-.40625m13.7461-.04688l-3.92579 5.83203m3.35547-4.98437l1.21875.1289m8.65235-.91406l4.10546 5.70313m-3.5078-4.8711l.54296-1.10156m11.02344 4.5664l6.40625-2.88671m-5.47656 2.46484l-.96875-.75m14.1289 2.26563l4.85547-5.07813m-4.85547 5.07813l-2.36328-.66406m14.79297-.69922l6.625-2.34766m-6.625 2.34766l-1.8086-1.65625m17.5586 3.8828l1.7539-6.80468m-1.7539 6.80469l-2.38281.57422m17.34375-.54688l-1.53516-6.85937m1.53516 6.85937l-1.8672 1.59766m16.58985-2.26563l-4.35156-5.51953m3.71875 4.71485l-.4961 1.125m15.71876-2.42188l-6.90235-1.3164m5.89844 1.125l.36328 1.17187m13.4336-3.58594l-5.85547 3.89063m5.0039-3.32422l1.07813.58594m13.3789-.61329l-6.4375 2.81641m6.4375-2.8164l1.92579 1.52343m11.60546-.85937l-6.86718 1.48828"/><g clip-path="url(#ax)"><path fill="none" stroke="#000" stroke-linecap="round" stroke-linejoin="round" stroke-miterlimit="10" stroke-width=".5" d="M466.9961 319.80469l1.58593 1.8711"/></g><path fill="none" stroke="#000" stroke-linecap="round" stroke-linejoin="round" stroke-miterlimit="10" stroke-width=".5" d="M465.9961 320.01953l.79296.9375"/><path fill="#00f" fill-rule="evenodd" d="M383.80078 472.08594h8.61719V461.9414h-8.61719v10.14453"/><path fill="azure" fill-rule="evenodd" d="M385.63281 463.77344h.83203v2.82422h3.28907v-2.82422h.83203v6.48047h-.83203v-2.91797h-3.28907v2.91797h-.83203v-6.48047"/><path fill="#00f" fill-rule="evenodd" d="M192.94922 454.33203h8.6211V444.1875h-8.6211v10.14453"/><path fill="azure" fill-rule="evenodd" d="M194.78516 446.01953h.83203v2.82422h3.28515v-2.82422h.83594V452.5h-.83594v-2.91406h-3.28515V452.5h-.83203v-6.48047"/><path fill="#00f" fill-rule="evenodd" d="M419.3086 427.70313h8.61718v-10.14454h-8.61719v10.14454"/><path fill="azure" fill-rule="evenodd" d="M421.14063 419.39063h.83203v2.82421h3.28515v-2.82421h.83594v6.48046h-.83594v-2.91796h-3.28515v2.91796h-.83204v-6.48046"/><path fill="#ff3030" fill-rule="evenodd" d="M380.05469 418.82813H387.75v-10.14844h-7.69531v10.14844"/><path fill="azure" fill-rule="evenodd" d="M381.89063 410.51172h.83203v5.74219h3.1953v.73828h-4.02733v-6.48047"/><path fill="#ff3030" fill-rule="evenodd" d="M295.72656 409.94922h7.69531v-10.14453h-7.6953v10.14453"/><path fill="azure" fill-rule="evenodd" d="M297.5586 401.63672h.83593v5.73828h3.1914v.74219h-4.02734v-6.48047"/><path fill="#00f" fill-rule="evenodd" d="M370.48438 396.63281h8.62109v-10.14453h-8.6211v10.14453"/><path fill="azure" fill-rule="evenodd" d="M372.3164 388.32031h.83594v2.82422h3.28516v-2.82422h.83203v6.48047h-.83203v-2.91406h-3.28516v2.91406h-.83593v-6.48047"/><path fill="#ff3030" fill-rule="evenodd" d="M189.20703 383.32031h7.6914v-10.14844h-7.6914v10.14844"/><path fill="azure" fill-rule="evenodd" d="M191.03906 375.00781h.83594v5.73828h3.1914v.7422h-4.02734v-6.48048"/><path fill="#ffffe0" fill-rule="evenodd" d="M419.6836 472.3164h22.17968V462.125H419.6836v10.1914"/><path fill-rule="evenodd" d="M423.1836 463.95703h.5078v6.29688h-.78515v-4.48829h-1.39063v-.55859l.5586-.0625.2539-.05469.23047-.08984.20313-.14063.17187-.21093.14454-.29297.10546-.39844m4.8125 0l.23047.01953.21875.0586.20703.08593.19532.1211.18359.15234.17188.17578.30468.41797.24219.49219.17969.54687.10937.58204.03906.58984-.03906.59375-.10937.58203-.17969.55469-.24219.5039-.30469.42579-.17187.17968-.1836.15235-.1953.125-.20704.09375-.21875.05468-.23047.01954-.23046-.01954-.21875-.05468-.20704-.09375-.1953-.125-.1836-.15235-.17188-.17969-.30469-.42578-.24218-.5039-.17969-.55469-.10938-.58203-.03906-.59375h.83203l.02735.5625.08203.50781.1289.4414.16016.375.1914.30079.21094.21875.22266.13672.22656.04687.22657-.04687.22265-.13672.21094-.21875.1914-.30078.16016-.375.1289-.4414.07813-.50782.03125-.5625-.03125-.5625-.07812-.5-.1289-.4336-.16016-.36718-.19141-.29297-.21094-.21485-.22265-.1289-.22657-.04688-.22656.04688-.22265.1289-.21094.21485-.1914.29297-.16017.36719-.1289.43359-.08203.5-.02735.5625h-.83203l.03906-.58985.10938-.58203.17969-.54687.24219-.49219.30468-.41797.17188-.17578.1836-.15234.1953-.1211.20704-.08593.21875-.0586.23046-.01953m4.95313 0l.23047.01953.21875.0586.20703.08593.19531.1211.1836.15234.17187.17578.30078.41797.2461.49219.17968.54687.10938.58204.03906.58984-.03906.59375-.10938.58203-.17969.55469-.24609.5039-.30078.42579-.17188.17968-.18359.15235-.19531.125-.20703.09375-.21875.05468-.23047.01954-.23047-.01954-.21875-.05468-.20703-.09375-.19531-.125-.1875-.15235-.16797-.17969-.30469-.42578-.24219-.5039-.17969-.55469-.11328-.58203-.03515-.59375h.83203l.02734.5625.08203.50781.12891.4414.16016.375.1914.30079.21094.21875.22266.13672.22656.04687.22656-.04687.22266-.13672.21094-.21875.1914-.30078.16016-.375.125-.4414.08203-.50782.03125-.5625-.03125-.5625-.08203-.5-.125-.4336-.16016-.36718-.1914-.29297-.21094-.21485-.22266-.1289-.22656-.04688-.22656.04688-.22266.1289-.21094.21485-.1914.29297-.16016.36719-.1289.43359-.08204.5-.02734.5625h-.83203l.03515-.58985.11329-.58203.17968-.54687.24219-.49219.30469-.41797.16797-.17578.1875-.15234.1953-.1211.20704-.08593.21875-.0586.23047-.01953m4.95312 0l.38672.03125.35938.08203.32031.13672.28125.1875.23047.23438.17187.28515.10938.33203.03906.37891-.02344.27344-.05468.23437-.08985.20313-.11328.16797-.1289.14453-.13672.1211-.28907.19921.23438.11719.20703.14844.17969.17187.15625.1914.1211.21485.08983.23047.0586.24219.01953.2578-.03516.3086-.10546.32422-.17188.32813-.23828.30468-.3086.26954-.37109.21484-.21094.08203-.23046.0586-.2422.03906-.26171.01171-.26172-.01171-.24219-.03907-.22265-.05859-.20313-.08203-.35937-.21485-.29297-.26953-.22266-.30468-.15625-.32813-.09375-.32422-.02734-.3086h.83203l.02734.25.07813.23829.1211.21094.16015.1836.19531.15233.21875.11329.23828.07421.25781.02344.25391-.02344.24219-.07421.21875-.11329.1914-.15234.16016-.1836.125-.21093.07422-.23828.02734-.25-.02734-.2539-.07422-.23438-.125-.21485-.16016-.18359-.1914-.15234-.21875-.11329-.24219-.07421-.2539-.02344-.25782.02344-.23828.07421-.21875.11329-.19531.15234-.16016.1836-.1211.21484-.07812.23437-.02734.2539h-.83203l.01953-.2539.05469-.24219.08984-.22265.125-.20703.15234-.1914.1836-.17188.20703-.15625.23047-.12891-.28516-.19922-.14062-.1211-.12891-.14452-.11328-.16797-.08594-.20313-.0586-.23437-.01952-.27344h.78515l.02344.21484.0664.19141.10548.16406.13671.14063.16407.11328.1875.08203.20703.04688.22265.01953.21875-.01954.20704-.04687.1875-.08203.16796-.11328.13672-.14063.10156-.16406.06641-.1914.02344-.21485-.02344-.21484-.0664-.19141-.10157-.16406-.13672-.14063-.16796-.11328-.1875-.08203-.20704-.04688-.21875-.01953-.22265.01954-.20703.04687-.1875.08203-.16407.11328-.13671.14063-.10547.16406-.06641.1914-.02344.21485h-.78515l.03906-.3789.10547-.33204.17578-.28515.23047-.23438.27734-.1875.32422-.13672.35938-.08203.38671-.03125"/><path fill="#ffffe0" fill-rule="evenodd" d="M328.42969 388.40625h22.17969v-10.1914h-22.1797v10.1914"/><path fill-rule="evenodd" d="M331.92969 380.04688h.50781v6.29296h-.78516v-4.48828h-1.39062v-.55469l.5586-.0664.2539-.05469.23047-.08984.20312-.14063.17188-.20703.14453-.29687.10547-.39454m4.8125 0l.23047.01954.21875.05468.20703.08985.19531.1211.1836.14843.17187.17578.30469.42188.24218.49218.1797.54688.10937.57812.03906.58985-.03906.59375-.10938.58593-.17969.5547-.24218.5-.3047.42968-.17187.17969-.18359.15234-.19531.1211-.20703.09374-.21875.0586-.23047.01953-.23047-.01953-.21875-.0586-.20703-.09375-.19531-.12109-.1836-.15234-.17187-.1797-.3047-.42968-.24218-.5-.17969-.55469-.10937-.58593-.03906-.59375h.83203l.02734.5625.08203.5078.1289.44142.16017.375.1914.30078.21094.22265.22265.13672.22657.04688.22656-.04688.22266-.13672.21093-.22265.19141-.30079.16016-.375.1289-.4414.07813-.50781.03125-.5625-.03125-.5586-.07813-.5-.1289-.4375-.16016-.36719-.1914-.28906-.21094-.21484-.22266-.13281-.22656-.04297-.22656.04297-.22266.1328-.21094.21485-.1914.28906-.16016.3672-.1289.4375-.08204.5-.02734.55859h-.83203l.03906-.58985.10937-.57812.1797-.54688.24218-.49219.30469-.42187.17187-.17578.1836-.14844.1953-.1211.20704-.08984.21875-.05468.23047-.01954m4.95312 0l.23047.01954.21875.05468.20703.08985.19531.1211.1836.14843.17187.17578.30079.42188.24609.49218.17969.54688.10937.57812.03906.58985-.03906.59375-.10937.58593-.1797.5547-.24608.5-.30079.42968-.17187.17969-.1836.15234-.1953.1211-.20704.09374-.21875.0586-.23047.01953-.23047-.01953-.21875-.0586-.20703-.09375-.19531-.12109-.1875-.15234-.16797-.1797-.30469-.42968-.24218-.5-.1797-.55469-.11327-.58593-.03516-.59375h.83203l.02735.5625.08203.5078.125.44142.16406.375.1914.30078.21094.22265.22266.13672.22656.04688.22656-.04688.22266-.13672.21094-.22265.1914-.30079.16016-.375.125-.4414.08203-.50781.03125-.5625-.03125-.5586-.08203-.5-.125-.4375-.16015-.36719-.19141-.28906-.21094-.21484-.22265-.13281-.22657-.04297-.22656.04297-.22266.1328-.21093.21485-.19141.28906-.16406.3672-.125.4375-.08203.5-.02735.55859h-.83203l.03516-.58985.11328-.57812.17969-.54688.24218-.49219.3047-.42187.16796-.17578.1875-.14844.19531-.1211.20703-.08984.21875-.05468.23047-.01954m4.95313 0l.38672.02735.35937.08203.32031.13672.28125.1875.23047.23828.17188.28516.10937.33203.03516.375-.01953.27734-.0586.23438-.08593.19921-.11329.17188-.1289.14063-.13672.125-.28906.1953.23437.1211.20703.14453.1797.17188.15624.19531.1211.21094.08984.23047.0586.24609.01952.2539-.03515.3086-.10547.32813-.17188.32421-.23828.3047-.3086.26952-.37108.21485-.21094.08203-.23047.0586-.24219.03905-.26172.01563-.26172-.01563-.24218-.03906-.22266-.0586-.20313-.08202-.35937-.21485-.29297-.26953-.22265-.30469-.15625-.32421-.09375-.32813-.02735-.3086h.83203l.02735.25391.07812.23438.1211.21094.16015.1875.19531.15234.21875.11328.23829.07031.2578.02735.25391-.02735.23829-.07031.22265-.11328.1914-.15235.16016-.1875.125-.21093.07422-.23438.02735-.2539-.02735-.25391-.07422-.23438-.125-.21093-.16015-.1875-.1914-.15235-.22267-.11328-.23828-.07422-.2539-.02343-.25781.02343-.23829.07422-.21875.11328-.1953.15235-.16017.1875-.12109.21094-.07812.23437-.02735.2539h-.83203l.01953-.2539.05469-.23828.08984-.22656.125-.20704.15235-.1914.1836-.17188.20702-.15234.23047-.13281-.28515-.19531-.14063-.125-.1289-.14063-.11329-.17188-.08594-.19921-.05859-.23438-.01953-.27734h.78516l.02343.21484.06641.1914.10547.16798.13672.14062.16406.10938.1875.08203.20703.05078.22266.01562.21875-.01562.20703-.05078.1875-.08203.16797-.10938.13672-.14062.10156-.16797.0664-.1914.02344-.21485-.02344-.21094-.0664-.1914-.10156-.16798-.13672-.14062-.16797-.10938-.1875-.08203-.20703-.05078-.21875-.01562-.22266.01562-.20703.05078-.1875.08204-.16406.10937-.13672.14063-.10547.16796-.0664.19141-.02344.21094H344.75l.03906-.375.10547-.33203.17578-.28516.23047-.23828.27735-.1875.32421-.13672.35938-.08203.38672-.02735"/><path fill="#ffffe0" fill-rule="evenodd" d="M323.99219 339.09375h22.17969v-10.1914h-22.1797v10.1914"/><path fill-rule="evenodd" d="M327.48828 330.73438H328v6.29296h-.78906v-4.48828h-1.38672v-.55469l.5586-.0664.2539-.05078.22656-.08985.20703-.14453.17188-.20703.14062-.29687.10547-.39454m4.8164 0l.22657.01954.21875.05468.21094.08985.19531.1211.1836.14843.17187.17578.30078.42188.2461.49218.17968.54688.10938.57812.03906.58985-.03906.59375-.10938.58593-.17969.5547-.24609.5-.30078.42968-.17188.17969-.18359.15234-.19531.125-.21094.08984-.21875.0586-.22656.01953-.23047-.01953-.21875-.0586-.20703-.08984-.19922-.125-.1836-.15234-.17187-.1797-.30078-.42968-.24219-.5-.17969-.55469-.11328-.58593-.03515-.59375h.83203l.02734.5664.08203.5039.125.44142.16406.375.19141.30078.21094.22265.22265.13672.22657.04688.22656-.04688.22266-.13672.21093-.22265.1875-.30079.16407-.375.125-.4414.08203-.5039.03125-.56641-.03125-.5586-.08203-.5-.125-.4375-.16407-.36328-.1875-.29297-.21093-.21484-.22266-.13281-.22656-.04297-.22656.04297-.22266.1328-.21094.21485-.1914.29297-.16407.36328-.125.4375-.08203.5-.02734.5586h-.83203l.03515-.58985.11328-.57812.1797-.54688.24218-.49219.30078-.42187.17188-.17578.18359-.14844.19922-.1211.20703-.08984.21875-.05468.23047-.01954m5.08984 0h.50781v6.29297h-.78515v-4.48828h-1.38672v-.55469l.5586-.0664.25-.05078.23046-.08985.20313-.14453.17578-.20703.14062-.29687.10547-.39454m2.82422 2.17579h.78516l.01953-.31641.0625-.28516.09765-.2539.14063-.21485.17969-.17578.22265-.1289.26563-.07813.3086-.02734.23827.01953.22266.0625.20703.10156.17578.14063.14844.17187.11328.20703.07422.23438.02344.26562-.01954.26953-.0664.22266-.10938.1914-.15625.17188-.20312.16406-.2461.16407-.6328.39062-.53907.3125-.4375.3164-.34375.32423-.26563.33593-.1914.35157-.125.37109-.0664.39063-.02344.41796h4.21484v-.73828h-3.33203l.08203-.28515.11328-.23438.14844-.20312.1875-.1797.23047-.17187.27734-.17578.71875-.41797.41406-.20312.34766-.23047.27734-.2539.22266-.26563.16406-.27735.10938-.28515.0625-.28516.02343-.28125-.04296-.38281-.1211-.34766-.1875-.30859-.2539-.26172-.30079-.21484-.34375-.15625-.3828-.09766-.40626-.03515-.4336.03125-.39843.10156-.35547.16406-.30469.23438-.25.30468-.18359.375-.11719.44531-.03906.51954"/><path fill="#ffffe0" fill-rule="evenodd" d="M213.03125 350.10156h22.17969v-10.1914h-22.17969v10.1914"/><path fill-rule="evenodd" d="M216.53125 341.7461h.50781v6.29296h-.78515v-4.48828h-1.39063v-.5586l.5625-.0625.25-.05468.23047-.08984.20313-.14063.17578-.21094.14062-.29296.10547-.39454m4.8125 0l.23047.01563.21875.0586.20703.08984.19922.11718.1836.15235.17187.17578.30078.41797.24219.49219.17968.54687.11328.58203.03516.58985-.03516.59375-.11328.58203-.17968.55468-.2422.50391-.30077.42578-.17188.17969-.1836.15234-.19921.125-.20703.09375-.21875.05469-.23047.01953-.22656-.01953-.22266-.05469-.20703-.09375-.19531-.125-.1836-.15234-.17187-.17969-.30078-.42578-.2461-.5039-.17968-.5547-.10938-.58202-.03906-.59375h.83203l.03125.5625.08203.5078.125.44141.16406.375.1875.30079.21094.21875.22266.14062.22656.04688.22656-.04688.22266-.14063.21094-.21875.1914-.30078.16406-.375.125-.4414.08204-.50781.02734-.5625-.02734-.5625-.08203-.5-.125-.4336-.16407-.36719-.1914-.29296-.21094-.21485-.22266-.1289-.22656-.04688-.22656.04688-.22266.1289-.21094.21485-.1875.29296-.16406.3672-.125.43358-.08203.5-.03125.5625h-.83203l.03906-.58984.10938-.58203.17968-.54688.2461-.49218.30078-.41797.17187-.17578.1836-.15235.19531-.11718.20703-.08985.22266-.0586.22656-.01562m5.09375 0h.50781v6.29297h-.78515v-4.48828h-1.39063v-.5586l.5586-.0625.2539-.05468.23047-.08984.20313-.14063.17187-.21094.14453-.29296.10547-.39454m2.82031 2.17188h.78906l.01954-.3164.05859-.28516.09766-.25.14062-.21875.1836-.17188.22265-.1289.26563-.08204.30859-.02734.23828.02344.22266.0625.20312.10156.17969.13672.14844.17578.11328.20313.07031.23828.02734.26171-.02343.26954-.0664.22656-.10938.1914-.15625.17188-.19922.16016-.2461.16796-.63672.38672-.53515.3125-.4375.31641-.34766.32813-.26172.33203-.1914.35156-.125.3711-.07031.39452-.01954.41797h4.21094v-.74219H230l.08203-.28125.11328-.23828.14844-.20312.1875-.17969.23047-.17187.28125-.17579.71484-.41406.41797-.20703.34375-.23047.28125-.25.21875-.26953.16406-.27734.11328-.28125.0625-.28516.01954-.28125-.04297-.38281-.11719-.35156-.1914-.3047-.25-.26562-.30079-.21093-.34765-.16016-.37891-.09766-.40625-.03125-.4375.03125-.39844.09766-.35156.16797-.30469.23437-.25.3047-.1875.37108-.11328.44922-.04297.51563"/></g></defs><use xlink:href="#ay"/></svg>