<svg xmlns="http://www.w3.org/2000/svg" role="img" xmlns:xlink="http://www.w3.org/1999/xlink" viewBox="142.45 309.95 326.84 171.84"><defs><clipPath id="a"><path d="M144 311.67188h1v168.65625h-1zm0 0"/></clipPath><clipPath id="b"><path d="M144 480h1v.32813h-1zm0 0"/></clipPath><clipPath id="c"><path d="M144 311.67188h324v168.65625H144zm0 0"/></clipPath><clipPath id="d"><path d="M429 477h7v3.32813h-7zm0 0"/></clipPath><clipPath id="e"><path d="M431 478h3v2.32813h-3zm0 0"/></clipPath><clipPath id="f"><path d="M467 311.67188h1v168.65625h-1zm0 0"/></clipPath><clipPath id="g"><path d="M144 479h4v1.32813h-4zm0 0"/></clipPath><clipPath id="h"><path d="M147 480h2v.32813h-2zm0 0"/></clipPath><clipPath id="i"><path d="M146 480h2v.32813h-2zm0 0"/></clipPath><clipPath id="j"><path d="M153 479h9v1.32813h-9zm0 0"/></clipPath><clipPath id="k"><path d="M160 480h2v.32813h-2zm0 0"/></clipPath><clipPath id="l"><path d="M159 480h2v.32813h-2zm0 0"/></clipPath><clipPath id="m"><path d="M166 479h9v1.32813h-9zm0 0"/></clipPath><clipPath id="n"><path d="M173 480h3v.32813h-3zm0 0"/></clipPath><clipPath id="o"><path d="M172 480h2v.32813h-2zm0 0"/></clipPath><clipPath id="p"><path d="M180 479h8v1.32813h-8zm0 0"/></clipPath><clipPath id="q"><path d="M187 480h2v.32813h-2zm0 0"/></clipPath><clipPath id="r"><path d="M186 480h2v.32813h-2zm0 0"/></clipPath><clipPath id="s"><path d="M193 479h9v1.32813h-9zm0 0"/></clipPath><clipPath id="t"><path d="M200 480h2v.32813h-2zm0 0"/></clipPath><clipPath id="u"><path d="M199 480h2v.32813h-2zm0 0"/></clipPath><clipPath id="v"><path d="M206 479h9v1.32813h-9zm0 0"/></clipPath><clipPath id="w"><path d="M213 480h3v.32813h-3zm0 0"/></clipPath><clipPath id="x"><path d="M212 480h2v.32813h-2zm0 0"/></clipPath><clipPath id="y"><path d="M220 479h8v1.32813h-8zm0 0"/></clipPath><clipPath id="z"><path d="M227 479h2v1.32813h-2zm0 0"/></clipPath><clipPath id="A"><path d="M226 479h2v1.32813h-2zm0 0"/></clipPath><clipPath id="B"><path d="M233 479h8v1.32813h-8zm0 0"/></clipPath><clipPath id="C"><path d="M240 479h3v1.32813h-3zm0 0"/></clipPath><clipPath id="D"><path d="M239 479h2v1.32813h-2zm0 0"/></clipPath><clipPath id="E"><path d="M246 479h9v1.32813h-9zm0 0"/></clipPath><clipPath id="F"><path d="M253 479h3v1.32813h-3zm0 0"/></clipPath><clipPath id="G"><path d="M252 479h2v1.32813h-2zm0 0"/></clipPath><clipPath id="H"><path d="M260 480h8v.32813h-8zm0 0"/></clipPath><clipPath id="I"><path d="M267 480h2v.32813h-2zm0 0"/></clipPath><clipPath id="J"><path d="M266 480h2v.32813h-2zm0 0"/></clipPath><clipPath id="K"><path d="M273 479h8v1.32813h-8zm0 0"/></clipPath><clipPath id="L"><path d="M280 480h2v.32813h-2zm0 0"/></clipPath><clipPath id="M"><path d="M279 480h2v.32813h-2zm0 0"/></clipPath><clipPath id="N"><path d="M286 479h9v1.32813h-9zm0 0"/></clipPath><clipPath id="O"><path d="M293 480h3v.32813h-3zm0 0"/></clipPath><clipPath id="P"><path d="M292 480h2v.32813h-2zm0 0"/></clipPath><clipPath id="Q"><path d="M300 479h8v1.32813h-8zm0 0"/></clipPath><clipPath id="R"><path d="M307 480h2v.32813h-2zm0 0"/></clipPath><clipPath id="S"><path d="M306 480h2v.32813h-2zm0 0"/></clipPath><clipPath id="T"><path d="M313 479h8v1.32813h-8zm0 0"/></clipPath><clipPath id="U"><path d="M320 480h2v.32813h-2zm0 0"/></clipPath><clipPath id="V"><path d="M326 479h9v1.32813h-9zm0 0"/></clipPath><clipPath id="W"><path d="M333 480h2v.32813h-2zm0 0"/></clipPath><clipPath id="X"><path d="M340 479h8v1.32813h-8zm0 0"/></clipPath><clipPath id="Y"><path d="M346 480h3v.32813h-3zm0 0"/></clipPath><clipPath id="Z"><path d="M353 479h8v1.32813h-8zm0 0"/></clipPath><clipPath id="aa"><path d="M360 480h2v.32813h-2zm0 0"/></clipPath><clipPath id="ab"><path d="M366 479h9v1.32813h-9zm0 0"/></clipPath><clipPath id="ac"><path d="M373 479h3v1.32813h-3zm0 0"/></clipPath><clipPath id="ad"><path d="M379 479h9v1.32813h-9zm0 0"/></clipPath><clipPath id="ae"><path d="M385 480h2v.32813h-2zm0 0"/></clipPath><clipPath id="af"><path d="M393 479h8v1.32813h-8zm0 0"/></clipPath><clipPath id="ag"><path d="M399 479h2v1.32813h-2zm0 0"/></clipPath><clipPath id="ah"><path d="M406 478h8v2.32813h-8zm0 0"/></clipPath><clipPath id="ai"><path d="M412 479h2v1.32813h-2zm0 0"/></clipPath><clipPath id="aj"><path d="M419 479h9v1.32813h-9zm0 0"/></clipPath><clipPath id="ak"><path d="M425 479h3v1.32813h-3zm0 0"/></clipPath><clipPath id="al"><path d="M433 477h7v3.32813h-7zm0 0"/></clipPath><clipPath id="am"><path d="M446 479h8v1.32813h-8zm0 0"/></clipPath><clipPath id="an"><path d="M452 480h2v.32813h-2zm0 0"/></clipPath><clipPath id="ao"><path d="M462 476h3v4.32813h-3zm0 0"/></clipPath><clipPath id="ap"><path d="M144 466h4v2h-4zm0 0"/></clipPath><clipPath id="aq"><path d="M144 453h4v1h-4zm0 0"/></clipPath><clipPath id="ar"><path d="M144 439h4v3h-4zm0 0"/></clipPath><clipPath id="as"><path d="M144 426h4v2h-4zm0 0"/></clipPath><clipPath id="at"><path d="M144 411h4v5h-4zm0 0"/></clipPath><clipPath id="au"><path d="M466 412h2v3h-2zm0 0"/></clipPath><clipPath id="av"><path d="M144 398h4v5h-4zm0 0"/></clipPath><clipPath id="aw"><path d="M466 398h2v3h-2zm0 0"/></clipPath><clipPath id="ax"><path d="M144 384h3v6h-3zm0 0"/></clipPath><clipPath id="ay"><path d="M466 385h2v3h-2zm0 0"/></clipPath><clipPath id="az"><path d="M144 370h3v7h-3zm0 0"/></clipPath><clipPath id="aA"><path d="M466 371h2v2h-2zm0 0"/></clipPath><clipPath id="aB"><path d="M144 359h2v3h-2zm0 0"/></clipPath><clipPath id="aC"><path d="M466 358h2v3h-2zm0 0"/></clipPath><clipPath id="aD"><path d="M144 345h4v4h-4zm0 0"/></clipPath><clipPath id="aE"><path d="M466 345h2v4h-2zm0 0"/></clipPath><clipPath id="aF"><path d="M144 330h3v7h-3zm0 0"/></clipPath><clipPath id="aG"><path d="M466 332h2v3h-2zm0 0"/></clipPath><clipPath id="aH"><path d="M144 316h2v9h-2zm0 0"/></clipPath><clipPath id="aI"><path d="M466 318h2v3h-2zm0 0"/></clipPath><g id="aJ" clip-path="url(#clip1)"><path fill="#fff" fill-opacity="0" fill-rule="evenodd" d="M0 0h1000v1000H0zm0 0"/><path fill="#d3d3d3" fill-opacity="0" fill-rule="evenodd" d="M162.15234 355.86719l-.23437.29297.0586.23437.11718.17188.17578.23437.29297.34766.11328.0586.11719-.17188.0586-.23438.17577-.17578.46485-.17578h.69922l.23437.29297.28906.8164.0586.17579.17578.23046.35156.23438.69922.69922.17188.17578.23437.34765.23438.41016.28906.58203.41015.46485.23047.23437.23438.17578.11719.23047.17578.29297.17187 1.16406v.23438l.0586.28906.05859.11719.11719.11719.34765.41015.11719.17188.17578.17578.17578.23437.11719.17188.17188.35156.05859.23438.23437.40625.23438-.0586-.17578.17578-.0586.92969h-.58203l-.23437-.11328-.34766.11328-.11719.11719-.05859.29297-.0586.17578-.11718.17187-.46484.29297-.0586.23438-.0586.11328v.64453l.0586.17187v.41016l.0586.0586v.40624l.05859.40625.11719.17579.05859.05859.23047.64062-.0586.29297v.69922l-.05859.58203v.23438l-.0586.23047-.05468.35156v1.92187l.05469.1172h.42578l-.36719.11718-.02344.35156.89063 1.16797 1.74219.53906 1.33984.35938v.53906l.08984.8086.53516.71484 1.51953.26953.89063-.08594.08984 1.16406.53516.1797 1.16015-.1797 2.05469-.98437 1.16016-.36328 1.8789-.17578 1.69531-.1797-.17968.71876-1.51563.08594-1.25.08984-.80469.26953-1.07421.8086.26953.71875.53515.89843-.17968.625-.26563.8086.26563 1.07812.625.89844.80468.17969 1.25-.1797-.26562.72267.09766.5039.05468.29297v.17188l.0586.29296v.40625l.17578.1172.35156.11718h.40625l.29297-.17578.11328-.11719.0586-.11719.11718-.23047.0586-.17578.35156-.46484.23047-.17578.17578-.0586.17578.0586.0586.17578.11718.98828.05469.46875.0586.17188.11718.23437.17578.0586.8164.05859h.28907l.11719.23437.05859.40625.0586.35156v1.10547l.11718.29297.11719.34766.28906.69922.17578.35156.58203.7539.35157.17579.17187.0586.46875.23437.64063.46484.34765.23438.29297.17578.29297.05468.23047.0625.8164.34766.29297.17578.11328.17188.35157.35156.11719.17578.52343.64063v.28906l.0586.35156v.34766l.05859.35156.0586.28906.11718.0586.17188.05859h.17578l.58203.23437.17578.1172.17578.28905.17578.23438.11328.23437.29297.23047.11719.11719v.41016l.0586.05468.28906.23438.23437.11719.0586.11718.11718.17188.0586.11719.23047.23437.05859.17578.23437.0586.1172.05859-.1172.11328-.05859.11719v.11719l-.11719.29296-.11719.28907v.58203l.17579.11719.11718.05859.0586.11719.11719.11719.11328.05859.17578.34765.0586.35157.05858.40625v.17578l-.05859.17578-.11719.69922v.17187l.1172.17579.29296.29296h.40625l.17578.1172.11719.17187.11719.29296v.23438h-.52735l-.23047-.23438h-.23437l-.17578.0586-.0586.69922.0586.34765.11719.17579.17578.41015.11718.23047.28907.46875.17578.05469h.52344l.23437.0586.75781.64062.0586.29296v.23438l.05859.0586.23047.34765v.35156l-.11719.17188v.29297l.29297.28906.29297.17578.17187.0586.29297.17577.29297.1172.58203.40624.28906.23438.29297.17578.21875.16015.01563.01172.23047.17579.64062.52343.17578.23438.1172.17578.17577.17578.11328.17188v.64062l.1172.17578.46874.11719.58203.11719.23438.05859.23047.11328.29297.11719.11328.0586.58593.35156.28907.17187.17578.0625.17578.05469.17578.0586.69922.35155.28906.17579.23438.05468.28906.17578.23437.1172.64063.40624.29297.11719.17187.0586.23438.05859.41015.05859.23047.0586.23438.11718.0586.17188-.41017.17578.46875.0586.0586.29296.11328.23438.17578.05468.23438.0586.17578.05859.40625.11719.64062.23437.11719.17188.0586.23437v.17578l-.0586.1172-.0586.40624.23438.23438.11719.05859.34766.11719.64062.23047.17578.11718.28906.1172.17578.17577.23438.46485.58203 1.10546.17578.17579.34766.17578.17578.11719.35156.11718 1.04688.52344.23437.0586.46485.11327.29297.0586.46484.17578.75781.58203.23438.23438.34765.46484.17578.17578.28907.23438.8164.69921.29297.17579.28906.28906.29297.17578.29297.28906.69531.64063.17578.17578.29297.23437.28907.23438.46875.28906.64062.58203.34766.23438.23437.29297.34766.34765.35156.46485.9336.99218.34765.40625.11719.17579.23437.05859.11328.11719.64454.17578.23047.11328.23437.0586.29297.17577.23047.1172.9336.69921.40624.40625.23438.17578.40625.17578.23437.11719.8164.34766.34766.23437.23438.11719.29297.28906.23047.11719.7578.35156.35157.17188.23047.05859.29297.11719.23437.0586.8711.17577h.8164l.46875.23047.17188.0586.875.69921.46484.1172.29297.05858.17578.0586.23047.0586.46875.05859.34766.05859.35156.0586.40625.05859h.29297l.17187.0586v.23046l.17578.17578h.29297l.34766.0586.35156.05859.69922.11719h.64063l.46484-.23438.29297-.17578.17187-.11719.41016-.17187.28906-.17578.9336-.46485.46875-.29297.52343-.29296.46485-.17188.46484-.17578 1.05078-.46485.28906-.11718.41016-.11719.28906-.11719.52735-.17578 1.51562-.69922.58203-.34765.28907-.0586.29297-.0586.34765-.11718.875-.23047.35156-.11719h.11329l.23437-.05859.875-.23437.23438-.0586h.8125l.35156-.0586.8164-.11718.17188-.0586.35156-.05468.29297-.0586.23047-.05859.8164-.17578.17579-.0586h.34765l.23438-.05859.46484-.11718.75781-.17188.23438-.0586h.34765l.41016-.11718.28906-.0586 1.28516-.05859h.28906l.41016-.0586.23047-.05858h.17578l.875-.1172h.40625l.41015-.11718h.34766l.35156-.11328.8711-.0586h1.75l1.04687.28907.41016.11719.28906.11718.35156.11719.28907.11719 1.05078.17187.28906.0586h.29297l.29297.05859.17187.0586.41016.05859.17187.0586.1172.05858h.11718l.11719.0586.35156.0586h.11328l.41016.0664 1.92187.39453 1.92578.39453 1.51953.44922 1.69532.71875 2.14453.80469 1.60547-.71875 1.42968-.80469 1.16016-1.07813 1.25-.44921 3.03516-.71875 1.875-.35938 2.14453-1.34765 2.23437-1.25391 2.5-1.25781 1.69531-.44922 1.78516-.17969 1.16016-.26953.625.53906 1.33984-.26953.71485-.98828.98437-1.34375.44531-.17969.80469-.35937 1.875-.53907 1.78516-.44921 1.25-.26954 1.16015-.08984 1.69922-.08984 1.96094-.26954 1.25-.08984h.53906l.625-.08984h.89063l2.14453-.17969 2.41015-.17969 2.58985-.08984 1.69531.17969 1.60938.08984 1.42968.35938 1.16016.71875 1.875.98828 1.16015 1.52734.26563.71484.6289.08985.35548.89844.53515.53906.53516 1.52734 1.07422.35938h.53515l-.80469.53515.08985 1.70703.71484 2.69532.89063.80468.89453.98829.71484 1.2578 1.78516.53907 1.51953-.17969.35547 1.34375 1.60937-.80469.98047-.53906.26953.26953.31641-.21484.21875-.14453.80078.44922.44922-.35938h.35547l.53515-.26953.53907-.71875.53515-.26953.625-.98828 1.16016.44922.83984.3711 1.39454.61718 1.6953-.17969h1.60548l1.78515.08985.17969-1.70704.53516-1.34375.80468.26954.4922.84765.40233.40625-.08984.53906v.35938l.71485.44922.71093-.26953h1.42969l.35938.98828.4453 1.25781.71485 1.34375 1.25.6289 1.69531.62891.71485-.17969.17969-.53906.98046-.08984.44922.35937.08594 1.25782-.26563.6289-.53515.17969v.53906l.71484.98438.26563.53906.98437.98828.80078 1.07813-.26562.35937-.08985.89844-.625 2.33203-.35546 2.0664-.08985 1.79298-.17969.71875-.08984.53906v1.4375l-.98047 1.88281-.35937 1.70703-.53516.89844-.80469 1.16797-.26562.53906 2.05469 1.2539.08593.35938-.35546.53906-.08985-.17968v.80859l.08985 1.4375-.44532.71484-1.07422.09375-.26562.71485.53515.89844.8047.71875 1.16015.80859 1.33984.26953.44531.35938-.35546.44921-1.78907-.08984-1.25-.44922-.71484-.71875-.625-.08984-.17578 3.58984-.1875 1.3086h89.35937V311.70313h-55.26953v49.08203l.76172.125 3.28906.54296 2.02344 2.83594v2.7539l2.35156.33204 2.34766.33203h4.05078l-1.3789 4.16016-2.02344.70703-2.02344.70312-.54297.34375-2.59375 1.6172-.1875.11718-2.02344-2.07813-.73046-2.74218-2.67188-2.07813-1.375-3.5-.0664-.08203-1.95704-2.67188 2.75-1.41796v-49.08204H294.42187v91.41407l.1172.03125.1328.01172.07422.07421.10547.04688.08985.0586.08593.05859.08985.0586.29687.29687.0586.08984.03125.11719.02734.11719.01563.13671-.03125.1172-.0586.08983-.0586.08594-.04296.10547-.04688.10156-.02734.1211v.14453l.17578.26953.14844.14844.07422.08594.07422.07421.04296.10547.0625.08985.0586.08593.04297.10547.0586.08985.04687.10156.04296.10547.0586.08594.11719.17968.07421.07422.0625.08594.0586.08984.04297.10547.0586.08985.05858.08593.0625.08985.0586.08984.04297.10156.11719.17969.07421.07422.0586.08594.07422.07421.08984.0586.10547.04687h.14844l.1328-.01562.13282.01562.10156-.04687.07422-.07422.04688-.10156-.01563-.13281v-.14844l-.04687-.10547-.02735-.11719-.04687-.10156-.02735-.1211-.04296-.10156-.0625-.08984-.04297-.10156-.04297-.10547-.03125-.11719-.01563-.13281-.01171-.13672.08593-.0586.0586-.08593.12109-.03125.04297.10547.01562.1328v.1172l.0586.10156.0586.08984.08983.0586.14844.14843.0586.08985.04296.10547-.01171.10156.08593.0586.10547.04687.08594.0586.08984.05858.07422.07422-.11719.02735-.10546.04687-.08594.0586-.07422.07421-.0586.08985-.0625.08594-.02734.12109-.04687.10156-.04297.10547-.03125.11719-.01172.13281-.01563.13281v.14844l.02735.11719.04687.10547.04297.10156.0586.08984.07421.07422.08985.0586.07422.07421.08984.0586.0586.08984.04296.10547.04688.10156.11719.03125.1328.01563h.14845l.11718-.03125.10547.04297.04297.10547.04688.10156.02734.1211L299.5 410l.02734.11719.03125.1211.02735.11718.10547.04297.10156.04687.13281-.01562.14844.14844.0625.08593.07422.07422.07031.07422.08984.0625.10547.04297.10156.04297.1172.03125.13671.01562.11719-.03125.07422-.07422.02734-.11718-.01172-.13282-.03125-.12109-.02734-.11719.04297-.10547h.11719l.08984.0625.11719.02735h.14843l.13282.01562h.14843l.13282.01563.1328-.01563h.14845l.1328-.01562.13282-.01172.13672.01172.11719-.02735.13281-.01562.1914-.0586-.05859.17579-.01562.1328-.02735.1211-.01562.13281-.0586.08594-.1328.01563-.10548.04687-.10546.04297-.1172.03125-.11718.02735-.26563.03125h-.14843l-.13281.01562-.07422.07422.05859.08594.14844.14843.11719.1797.07421.0703.08985.0625.08984.0586.08594.0586.08984.05858.10156.04297.10547.0625.10547.04297.08594.0586.10547.04687.10156.04297.17969.11719.0586.08984-.04298.10156-.04687.10547.01562.13281.22266.22266.0586.08985.04296.10156.03125.1211.04297.10155.01563.13282.03125.11718.01171.13672.03125.11719.14844.14844.10156.04297.10547.04296.1172.03125.1328.01563.13672.01563h.11719l.11719-.03125.08984-.0586.04297-.10547.04688-.10156.04296-.10547.03125-.11719.01172-.1328v-.14845l-.01172-.1328-.01562-.13282-.03125-.11719-.04297-.10547-.04688-.10547-.04296-.10156-.04297-.10547-.01563-.13281.01563-.13281.02734-.11719.03125-.11719.02735-.1211.04687-.10155.08984-.0586.08594-.0625.07422-.07422.08984-.05859.22266-.22266.0586-.08593.07421-.07422.11719-.17969.0586-.08594v-.14844l-.07423-.07421-.10156-.04688-.10547-.04297-.10156-.04297-.0586-.08984-.04687-.10547-.02734-.11719.08984-.05859.11719-.03125.10156-.04297.17969-.11719.14844-.14843.01172-.13282-.01172-.10546-.08985-.0586-.1328.01563h-.14845l-.1328.01562-.13282-.01562-.1211-.03125-.08593-.0586-.07422-.07422-.0586-.08984-.0625-.08594-.11718-.17969-.0586-.08593.03125-.1211.08594-.05859.1211-.03125.05859-.08594v-.1211l-.03125-.11718-.0586-.08984-.05859-.08594-.04687-.10547-.02735-.11719-.01562-.1328.0586-.08985.07421-.07422.08984-.0586.1172-.17968.07421-.07422.0586-.08594.14843-.14844.1211-.03125.1328-.01562.13282.01562.07422.07422.04297.10547.01562.13281-.03125.1172-.11719.03124-.1328.01172-.14844.14844-.04297.10547-.04688.10156-.02734.1211-.03125.11718v.14844l.03125.11719.04297.10546.05859.08985.07422.07031.07422.07422.11719.03125.12109.02734.11719-.02734.1328-.01563h.1172l.08984.0586.07422.07422.04687.10546.0586.08594.10156.04688.13281.01562.10547.04297.08594.0586-.01172.10546-.07422.07422-.17969.11719-.05859.08984-.08984.0586-.07032.07422-.07421.07421-.0625.08985-.02735.11719-.01562.1328.01562.13282-.01562.13281v.14844l.01562.13281.02735.1172.03125.12108.07421.07422.08985.0586.08594.0586.08984.05858.11719.03125v.08594l-.10157.04688-.08984.0586-.26563.03124-.11718.02735h-.14844l-.10547.04296-.10156.04688-.0586.08984-.0625.23438-.01171.13281-.03125.1211-.01563.1328v.29298l-.01172.1328.01172.13673.01563.1328.1328.01563.13282.01172.1211.03125.08593.0586.07422.07421.04688.10547.04296.10157.01563.1328v.44532l-.01563.13281v.44532l.03125.26562.02735.11719.01562.13281.03125.11719.08594.21094.03125.26562v.14844l-.03125.11719-.02734.11718-.03125.1211-.02735.11719-.03125.11718-.03125.1211-.01171.1328-.01563.13282.08984.0586.1172-.03125.10155.01562.04688.10547-.03125.26562v.44141l-.04297.10547-.04688.10547-.04296.10156-.04297.10547-.0586.08594-.03125.12109-.04296.11719-.03125.11719-.01563.1328.01563.13282.05859.08984.10547.04688.08594.0586.05859.08593-.01172.13672-.03125.11719-.04297.10156v.44531l-.01562.13281v.14844l-.03125.11719-.04297.10547-.02735.11719-.04687.10546-.04297.10157-.03125.12109-.02734.11719-.03125.13281-.03125.11719-.02735.11719-.04297.10546-.03125.1172-.03125.12108-.01171.13282-.01563.13281v.29688l.02734.11718v.14844l.04688.39844.02734.11719.0586.08984.12109.03125h.14844l.13281-.01563.0586.08985v.11719l-.0586.08984-.08984.0586-.10157.04296-.10546.04688-.08985.05859-.08594.0586-.13671.01562-.1172-.03125-.1328-.01563-.10157.04688-.0625.08594-.01172.13671-.01562.13282-.03125.11719-.02735.11718-.01562.13281-.03125.1211v.29687l.01563.13282.03125.11718v.14844l.01171.13281v.14844l-.02734.11719-.04688.10156-.02734.1211-.03125.11718-.0586.08985-.07421.07421-.10156.04297-.10547.04688-.11719.02734-.1211.03125-.10156-.04687.0586-.08594.10547-.04688.02734-.11718.03125-.11719.02734-.1211.03125-.11718v-.14844l.01563-.13281-.03125-.11719-.04297-.10547-.10547.01563-.07422.07422-.10156.04296-.08984.0625-.07422.07422-.04297.10157-.01563.1328-.03125.1172L304.25 426l-.03125.11719-.02734.11719-.03125.12109-.02735.11719-.03125.11718-.04297.10547-.08984.0586h-.08984l-.1172-.03125-.03124-.08594.01562-.13672-.03125-.11719v-.14844l-.01171-.1328v-.14844l-.0625-.23438-.02735-.1211-.04297-.10156-.04687-.10546-.0586-.08594-.05859-.08985-.04297-.10546-.0625-.08594-.14844-.14844-.0703-.07422-.10548-.04687-.10547-.04297-.10156-.04297-.29687-.29688-.08985-.07421-.08594-.0586-.10546-.04297-.08985-.0625-.08594-.0586-.10546-.04296-.08985-.0586-.08594-.0625-.07421-.0703-.10547-.04688-.08594-.0586-.10547-.04296-.08984-.0625-.10156-.04297-.10547-.04297-.08594-.0586-.10547-.04687-.10547-.04297-.10156-.04687-.08985-.0586-.10156-.04297-.10547-.04296-.08984-.0625-.11719-.02735-.13281-.01562-.13281.01562H299.75l-.13281.01563-.11719-.03125-.08984-.0586-.07422-.07422-.08985-.05859-.10156-.04688h-.14844l-.12109-.02734-.10156-.04297-.07422-.07422-.11719-.17968-.08984-.0586-.10156-.04297-.08985-.0625-.10547-.04296-.08984-.0586-.08594-.0586-.10547-.04687-.0586-.08594-.05858-.08984-.04297-.10547-.04688-.10156-.07422-.07422-.08594-.0586-.07421-.07421-.08985-.0586-.22265-.22265-.04297-.10547-.03125-.26563.10547-.04296h.14453l.10547.04296.07421.07422.08985.0586.08594.0586.10546.04687.08985.05859.14844.14844.0703.07422.14845.14843.0625.08594.07421.07422.08594.0586.07422.07421.08985.0625.08984.0586.08594.05859.26953.17578.10156.04688.10547.04296.10156.04297.04688-.07421.05859-.08594.07422-.07422.07031-.07422.10547.04297.07422.07422.0586.08984.04296.10156.04688.10547.04296.10547.1211.02735.11719-.02735.07421-.08984.04297-.10547.0586-.08985.07422-.07421.10546-.04297.1172-.02735.1328.01172.08985.0586.14844.14843.05859.08985.04297.10547.04687.10156.04297.10547.04297.10156.10547.04688.10547.04296.13281.01563.08594-.0586.0586-.08984.07421-.07422.10547-.04297.11719.02735.10547.04687.10156.04297.10547.04297.10156.04688.17969.11718v.11719l-.01563.13281.01563.13281.01562.13672.0586.08594.10156.04688.1211.02734.11718.03125h.14844l.11719-.03125.05859-.08984.17969-.1172.05859-.08983.07422-.07422.0586-.08594.11718-.17969.17969-.11719.11719.03125.08984.0586.04297.07422-.01563.1328v.1172l.08985.05859h.14843l.13282-.01563.1328-.01171.26563-.03125.10547-.04297.11719-.03125.1211-.02735.07421-.07421.07031-.07422.0625-.08985-.01562-.10547-.04688-.10156-.10156-.04297-.10547-.01562-.11718.02734-.26563.03125h-.14844l-.07421-.07422-.08985-.0586-.11719-.03124-.11718-.02735-.13282-.01562h-.14843l-.13282.01563h-.29687l-.10547-.04688-.14844-.14844-.04297-.10156-.05859-.08984.22266-.22266.08593-.0586.10547-.04296.11719-.03125.13281-.01563.13281.01563.13672.01562.10157.04297.1328-.01172.08985-.0625.10156-.04297.0625-.08984-.04687-.10156-.08984-.0586-.1172-.03125-.10155-.04296-.0586-.08985-.0625-.08984v-.11719l.01563-.13281.10547-.04688.07421-.07031v-.1211l-.08984-.05859-.03125-.11719.08985-.05859.07421-.07422.04297-.10547.0586-.08984.04687-.10156.01563-.13281v-.14844l-.04688-.10547-.04297-.10156-.08984-.0586-.13281-.01562-.10157-.04297-.13671-.01563-.1172-.03125h-.4453l-.13282-.01562-.13281-.01172-.13281-.01563-.11719-.03125h-.14844l-.13281-.01562-.13281-.01172-.26563-.03125-.1211-.04297-.08593-.0586-.07422-.07421v-.14844l.01172-.13281.10547-.04688.10156-.04296.13281-.01563h.15235l.13281-.01562h.29297l.1211.03125.10156.04296.08984.0586.23438.0625.12109-.04688.08984-.05859.10156-.04297.13282-.01562.10547.04296.10156.04688.13281.01172.1211-.02735h.14453l.12109-.03125.11719-.02734.10547-.04687.07421-.07422.08594-.0586.14844-.14843.0586-.08594.04687-.10547.02734-.11719.01563-.10547-.10156-.04296-.08985-.0586-.11719-.03125-.10546-.04297-.08985-.0625-.07422-.08594-.07422-.07421-.10156-.04297-.10547-.04688-.10156-.04297-.0586-.08984-.04687-.10156-.08594-.21094-.0625-.08594-.05859-.08984-.07422-.07422-.08594-.0586h-.26953l-.11719.03126-.08984.05859-.10156.04297-.13281.01562-.10547-.01562-.02735-.11719-.0625-.08984-.11718-.03125-.10157-.04297-.14843-.14844-.03125-.11719-.01563-.10546.07422-.07422.17969-.1172.11719-.02733.11718-.03125.13672.01562.10156.04297.10547.04297.10156.04687.10547.04297.1172.03125.1328.01563.1172.02734.1328.01563.10547-.01563.08985-.0586-.07422-.07421-.10547-.04297-.07422-.07422-.07422-.08984-.14844-.14844-.08593-.0586-.08985-.05859-.07422-.07422-.08984-.0586-.10156-.04687-.1211-.02734-.10156-.04688-.10547-.04296-.11719-.03125-.10156-.04297-.1211-.03125h-.14843l-.11719.03125-.10546.04297-.08594.0625-.17969.11718-.08594.0586-.08984.0586-.10547.04687-.08594.05859-.10547.04297-.10156.04297-.10547.04687-.07422.07422-.05859.08985-.0586.08593-.04687.10547-.0586.08594-.07421.07422-.13281-.01172-.1172-.03125h-.11718l-.07422.07422-.08984.0586-.07422.07421-.08984.0586-.08594.05859-.10547.04687-.10156.04297-.13672.01563-.10156-.04297-.14844-.14844-.10547-.04688h-.08594l-.10547.04688-.10156.04297-.1211.03125-.11718-.03125-.07422-.07422v-.11719l.03125-.1211.07422-.0703.0586-.08985.07421-.07422.11719-.03125.10547-.04296h.29297l.13281-.01563.13672-.01563.10156-.04296.08985-.0586.10156-.04687.08984-.0586.13281-.01171.08985.05859.13281.01172.08984-.0586.08594-.05859.10547-.04297.08984-.0586.08594-.0625.08985-.05859.14843-.14843.0586-.08594.05859-.08985.10547-.04296.13281-.01563.11719.02735.1211.03125.05859-.0586.05859-.08984.03125-.26563.02734-.11719.10547.01172.13281.01563.10157-.04297.08984-.0586.0586-.08984.07421-.07422.0586-.08984.04687-.10156.01172-.13281-.01172-.13282-.04687-.10547-.14844-.14843-.0586-.08985-.05859-.08594-.04297-.10546v-.44532l.01563-.1328v-.14845l.01172-.1328-.0586-.0586-.08984.0586-.10156-.04298-.17969-.11719-.08594-.05859-.0625-.08984-.0586-.08985-.07421-.07421-.08594-.0586-.1211.03125-.10155.01172-.10547.04688-.08594.05859-.10547.04297-.14844.14844-.08984.05859-.08594.0586-.08984.0625-.10547.04296-.13281.01563v-.1211l.10547-.04297.11718-.03125.07422-.0703.04297-.10548v-.14844l-.02734-.11718-.14844-.14844-.13281-.01563h-.14844l-.11719.03125-.10547.04297-.10156.04297-.08984.0625-.11719.02735-.07422-.07422.01172-.13281-.04297-.10157-.04297-.10547-.08984-.05859-.11719.02734-.1211.03125-.11718.03125-.10156.04297-.1211.03125-.10156.04297-.10547.04297-.08984.0586-.10156.01562v-.11719l.01562-.13281-.0586-.08985-.07421.04297-.14844.14844-.0586.08985-.07421.07421-.04688.10547-.04296.10156-.07422.07422-.0586.08985-.07422.07422-.05859.08593-.07422.07422-.08984.0625-.07422.07031-.07422.07422-.10156.01563-.13281.01562-.10547-.04296v-.1211l.14843-.14844.04297-.10156.0586-.08984.04687-.10156.04297-.10547.0586-.08985.03124-.11719.04297-.10156.03125-.1211.02735-.11718.04687-.10547.04297-.10156.04297-.10547.07422-.07031.08984-.0625.08985-.0586.10156-.04296h.29687l.26563-.03125.10547-.04297-.07422-.07422-.11719-.03125-.10547-.04297-.08984-.0586-.10156-.04687-.08985-.0586-.10156-.04296-.10547-.04297-.08984-.0625-.08594-.0586-.10547-.04296-.10156-.04297-.1211-.03125-.11718-.03125-.10157-.04297L297.5 410.25l-.10156-.04297-.08985-.0586-.04296-.10546-.01563-.13281.10156-.04297.13281-.01563.13672.01563.13282-.01563.10156-.04297.0586-.08984.01562-.10547-.08985-.0586-.07421-.07421-.10157-.04297-.08984-.0586-.14844-.14843-.04297-.10547-.01562-.13281v-.29297l-.0586-.08985-.08984-.05859-.07422-.07422-.04297-.10547-.03125-.11718-.0586-.08985-.07421-.07422-.11719-.02734-.07422-.07422-.08984-.0586-.08984-.0625-.08594-.05859-.07422-.07421-.0586-.08594-.04687-.10547-.08594-.0586-.14843-.14843-.19532-.0586-.1328.01563-.10157.04297-.07422.07422-.04688.10156-.04296.10547-.0586.08984-.0586.08594-.29687.29687-.08984.0586h-.08594l-.0625-.08594-.04297-.10547.03125-.11719.0586-.08984.02734-.11719-.01172-.13281-.08984-.0625-.10547.04688-.11719.02734-.11719.03125-.26953.17578-.10156.04688-.11719.02734-.10546.04687-.08985.0586-.10156.04297-.0586-.08594-.04687-.10547.01563-.13281.04687-.10547.07031-.07422.07422-.07031.0586-.08985v-.14843l-.04297-.10547h-.23829l-.10156.04687-.03125.11719-.02734.11719-.03125.1211-.07422.04296-.13281.01563-.07422-.04688-.04297-.10156-.04297-.10547-.04687-.10156-.04297-.10547-.1211.03125-.10156.04297-.13281.01562-.11719.03125-.10547.04297-.08984.0586-.10156.04687-.1211.02734-.13281.01563-.10156-.04297-.0586-.08985-.04687-.10546-.04297-.10157-.04297-.10546v-.1172l.0586-.08984.08593-.05859.17969-.11719.10156-.04687.10547-.04297.10547-.0586.10156-.04296.08985-.0625.10156-.04297.10547-.0586.10156-.04687.08984-.0586.10547-.04296.10156-.04297.08985-.0625.10156-.04297.13672-.01563.11719.03125.10156.04297.1211.03125.10156.04297.10546.04688.10157.04296.10547.04297.10156.04688.10547.04297.10156.04297.10547.04687.08594.0586.10546.04296.1172.03125.10546.04297.10156.04688.08985.0586.10547.04296.10156.04297.10547.04687.11719.02735.10156.04687.1211.02735h.14843l.08594-.0586.01562-.10156.0586-.08984-.02735-.1172-.07422-.07421-.11719-.17969-.07421-.07422-.08985-.07421-.17969-.1172-.08593-.05859-.10547-.04296-.10156-.04688-.26954-.17578-.05859-.08985-.07422-.07421-.0586-.08985-.04296-.10156-.03125-.11719-.01563-.13672v-.5625l-.01171-.1328-.01563-.13282-.03125-.11719-.01562-.13281-.01172-.13281-.03125-.1211-.22266-.22265-.0586-.08594-.01562-.10547.03125-.11719.13281-.01562v-91.41406H172.9922v1.45312l-.0586.23438-.35156 1.05078-.17187.52343-.1172.34766-.17577.41016-.11719.17187-.23438.29297-.23046.0586h-.35157l-.11718.05859-.23047.40625v.29297l.11719.17578.23046.23047.1172.23437.64062.75781.29297.46485.17578.23437.23047.35156.23437.34766.64063.8164.17578.46485.17187.41016.11719.69531.17578.46875.11719 1.39844.0586.46484v.875l.11718 1.04688v4.78125l-.0586.46484-.35156 1.28125-.17578.52344-.11328.41015-.35156.9297L172.93359 336l-.23437.58203-.11719.17578-.17187.34766-.17578.40625-.35157.8164-.0586.29297-.11327.29297-.11719.28906-.0586.17579-.11718.875-.0586.40625-.05859.11718-.0586.17579-.05859.17187-.23047.52734-.11718.17188v.23437l-.11719.23438-.0586.17187-.17577.58594v.28906l-.0586.17579v.29296l-.0586.11329-.05859.52734v.17187l-.05468.23438v2.6211l-.17578.8164-.1172.17578-.17577.23438-.1172.17187-.11327.23438-.58594.93359-.23047.28906-.29297.46485-.17578.23437-.28906.35156-.35156.69922-.11328.23047-.17579.41016-.17578.23046-.40625.52735-.8164.69922-.29297.17187-.28906.23438-.17579.11719-.17578.17578-.52344.40625-.52734.17578-.17187.17578-.23438.05469-.64062.17578h-.75782m12.21094 31.02344l-1.07422.44921.35938.89454 1.25-.71485.44531-.53906-.98047-.08985"/><path fill="#d3d3d3" fill-opacity="0" fill-rule="evenodd" d="M201.50781 416.59766h-.89453l.44922.6289.98047.35938.80469-.08985.4453-.98828-.17577.08985-.71485-.35547-.89453.35547m154.6211 59.0703l-.0586-.52343v-.29297l.11328-.29297.0586-.23046.46875-.46875h.11328l.11719-.11329.11718-.05859h.17579l.23437-.0586h.34766l.23437.0586.11719.0586.23047.17187.0586.17578.11718.58203v.29297l-.11719.17578-.17187.28906-.17579.17579-.52734.52343-.23047.23438-.11719.0586h-.17578l-.11718-.0586-.40625-.29297-.17579-.11719-.11718-.0586-.0586-.11327-.05468-.1172m6.64062-10.95702l-.0586-.17188v-1.10937l.0586-.17188.17578-.0586.17188-.05858h.17578l.23437-.0586.1172.0586.05858.69921-.05859.17188-.11719.17578-.11718.0586-.23438.52343-.11328.0586h-.23438l-.05859-.1172m9.61328-14.39062l-.11719-.17578v-.69922l.29297-.875.1172-.17187.17577-.35156.11328-.23047.1172-.29297.35155-.75781.1172-.23047.17187-.23438h.17578l.11719-.0586h.64062l.11719.0586.23437.23438.17188.11328.35156.29297.11719.11718.11328.17579v.11328l.11719.05859.11718.11719v.69922l-.05859.17578v.23047l-.0586.17578-.34765 1.05078-.11719.23047-.11719.23437-.11718.0586-.23047.23437-.64063.28906h-.875l-.41015-.11718-.64063-.46485"/><path fill="none" stroke="#bebebe" stroke-linecap="round" stroke-linejoin="round" stroke-miterlimit="10" stroke-width=".5" d="M467.95703 311.69531H144.02734v168.625h323.9297v-168.625"/><g clip-path="url(#a)"><path fill="#fff" fill-opacity="0" fill-rule="evenodd" d="M144 475.89063v4.26171-168.48046h.0039H144v164.21875"/></g><g clip-path="url(#b)"><path fill="#50fcfc" fill-rule="evenodd" d="M144.0039 480.32813v-.17188l.08204.17188h-.08203"/></g><g clip-path="url(#c)"><path fill="#fff" fill-opacity="0" fill-rule="evenodd" d="M144.0039 480.15625V311.67187h48.81641v112.15235l-4.4375 3.15625-.57031.08984-3.86719.36328-4.4375 2.62891-1.90234 1.44531-2.53906 1.5586-4.10547 2.8789-.33203.58985-4.4375 1.96875-3.3672 1.8789-1.0703.34766-3.58985 4.08984-.38672 4.4414-.46093 3.17579-.64063 1.26172-1.71484 4.4375-.29297 4.4375 2.64844 1.94531 4.4375.71485 4.4375-1.07422 4.4375.35937 4.4375-.67578 4.4414-.91797.73828-.35156 3.69922-1.75 3.95703-2.6875.48047-2.83203.58985-1.60547 1.45312-4.4375 2.39453-3.46875.88672-.97266 3.55469-1.28515 4-3.15235.4375-.94531 4.4375-1.35938 4.4375-1.91406.83984-.21875-.83984-.25-4.4375-2.7461-4.10156-1.4414-.33594-.1875-2.875-4.25-1.5625-3.17578-4.4414-.07031V311.67187h22.1953v110.875l-.05859.08204.0586.10156 1.19921 4.33984 3.23828 3.02735 4.4375-.67579 1.8086 2.08594 2.6289 1.51953 2.33594 2.91797 2.10156 2.33985 3.02344-2.33985-3.02344-2.9414-2.07421-1.4961-2.36328-4.08203-.44532-.35547-3.99219-3.21484-4.4375-.33985-4.29296-.88671-.14453-.08204v-110.875h26.6289V438.1797l-2.23047 2.20312 2.23047 2.09766 2.67578-2.09766-2.67578-2.20312V311.67188h133.14844v135.5078l-2.0586 2.08204 2.0586 2.0586 2.16797-2.0586-2.16797-2.08203V311.67188h93.20312v168.65625h-32.19921l-3.3047-3.26954-3.25 3.26954H144.08595l-.08203-.17188"/></g><path fill="#50fcfc" fill-rule="evenodd" d="M157.3164 464.51953l-2.64843-1.94531.29297-4.4375 1.71484-4.4375.64063-1.26172.46093-3.17578.38672-4.4414 3.58985-4.08985v2.52734l-1.3711 1.5625 1.3711 4.23047.94922.21094-.94922.26953-1.46875 4.16797-1.5547 4.4375 3.02345 4.10937 4.4375-1.12109 4.4375.41016 4.4375-.54688 3.74609-2.85156-3.7461-4.14844-.375-.28906-4.0625-3.22656-3.42968-1.21094-1.00781-.69531-2.21094-3.7461-2.22656-1.5625v-2.52734l1.0703-.34766 3.3672-1.8789 4.4375-1.96875.33203-.58985 4.10547-2.8789 2.53906-1.5586 1.90234-1.44531 4.4375-2.6289v16.71874l-.1289.66797.1289.0625.44531-.0625-.4453-.66797V427.4336l3.86718-.36328.57031-.08984 4.4375-3.15625v11.20703l-.91015.91406-3.30078 4.4375 4.21093.82031 2.14063-.8203-1.42188-4.4375-.71875-.91407v-11.20703l4.4414.07031 1.5625 3.17578 2.875 4.25.33595.1875 4.10156 1.4414 4.4375 2.7461.83984.25-.83984.21875-4.4375 1.91406-4.4375 1.35938-.4375.94531-4 3.15235-3.55469 1.28515-.88672.97266-2.39453 3.46875-1.45312 4.4375-.58985 1.60547-.48047 2.83203-3.95703 2.6875-3.69922 1.75-.73828.35156-4.4414.91797-4.4375.67578-4.4375-.35937-4.4375 1.07421-4.4375-.71484"/><path fill="#00e8fc" fill-rule="evenodd" d="M161.7539 462.2461l-3.02343-4.10938 1.55469-4.4375 1.46875-4.16797.94922-.26953-.94922-.21094-1.3711-4.23047 1.3711-1.5625 2.22656 1.5625 2.21094 3.7461 1.0078.6953 3.4297 1.21095v7.23046l-.8672.4336.8672.13672.83984-.13672-.83984-.4336v-7.23046l4.0625 3.22656.375.28906 3.74609 4.14844-3.7461 2.85156-4.4375.54688-4.4375-.41016-4.4375 1.1211"/><path fill="#00d4fc" fill-rule="evenodd" d="M170.6289 458.27344l-.86718-.13672.86719-.4336.83984.4336-.83984.13672"/><path fill="#00e8fc" fill-rule="evenodd" d="M183.94531 444.88281l-.1289-.0625.1289-.66797.44531.66797-.4453.0625m8.875-3.67969l-4.21095-.8203 3.30079-4.4375.91015-.91407.71875.91406 1.42188 4.4375-2.14063.82031"/><path fill="#50fcfc" fill-rule="evenodd" d="M215.01563 422.73047l-.0586-.10156.0586-.08204.14453.08204 4.29297.88671v3.53125l-.01954.02344.01953.01563.03125-.01563-.03125-.02344v-3.53125l4.4375.33985 3.9922 3.21484.4453.35547 2.36329 4.08203 2.07422 1.4961 3.02343 2.9414-3.02344 2.33985-2.10156-2.33985-2.33594-2.91797-2.6289-1.51953-1.8086-2.08594-4.4375.67579-3.23828-3.02735-1.19922-4.33984"/><path fill="#00e8fc" fill-rule="evenodd" d="M219.45313 427.08594l-.01954-.01563.01953-.02344.03125.02344-.03125.01563"/><path fill="#50fcfc" fill-rule="evenodd" d="M241.64453 442.48047l-2.23047-2.09766 2.23047-2.20312 2.67578 2.20312-2.67578 2.09766m133.14844 8.83984l-2.0586-2.0586 2.0586-2.08202 2.16797 2.08203-2.16797 2.0586"/><g clip-path="url(#d)"><path fill="#50fcfc" fill-rule="evenodd" d="M429.24219 480.32813h1.78515l1.46485-1.47657 1.49219 1.47656h1.8125l-3.3047-3.26953-3.25 3.26954"/></g><g clip-path="url(#e)"><path fill="#00e8fc" fill-rule="evenodd" d="M431.02734 480.32813l1.46485-1.47657 1.49219 1.47656h-2.95704"/></g><g clip-path="url(#f)"><path fill="#fff" fill-opacity="0" fill-rule="evenodd" d="M467.9961 480.32813H468V311.67188h-.0039H468v168.65625h-.0039"/></g><path fill="#fff" fill-opacity="0" fill-rule="evenodd" d="M192.64063 458.60156l1.91796-5.51562-9.41015-3.26953-1.91797 5.51953 9.41016 3.26562"/><path fill-rule="evenodd" d="M186.10938 452.63281l.16796-.48437 5.94922 2.0664-.25781.7422-4.24219-1.47267-.45703 1.3125-.52344-.18359.1211-.54687.03125-.25782-.00781-.24609-.06641-.23828-.14063-.23438-.23437-.23046-.33984-.22657"/><g clip-path="url(#g)"><path fill="none" stroke="#000" stroke-linecap="round" stroke-linejoin="round" stroke-miterlimit="10" stroke-width=".5" d="M147.5039 480.60547l-7.0078-.55469"/></g><g clip-path="url(#h)"><path fill="none" stroke="#000" stroke-linecap="round" stroke-linejoin="round" stroke-miterlimit="10" stroke-width=".5" d="M147.5039 480.60547l.97657 2.25"/></g><g clip-path="url(#i)"><path fill="none" stroke="#000" stroke-linecap="round" stroke-linejoin="round" stroke-miterlimit="10" stroke-width=".5" d="M146.48438 480.52344l.48828 1.125"/></g><g clip-path="url(#j)"><path fill="none" stroke="#000" stroke-linecap="round" stroke-linejoin="round" stroke-miterlimit="10" stroke-width=".5" d="M160.8125 480.67969l-6.99219-.69922"/></g><g clip-path="url(#k)"><path fill="none" stroke="#000" stroke-linecap="round" stroke-linejoin="round" stroke-miterlimit="10" stroke-width=".5" d="M160.8125 480.67969l.92969 2.26953"/></g><g clip-path="url(#l)"><path fill="none" stroke="#000" stroke-linecap="round" stroke-linejoin="round" stroke-miterlimit="10" stroke-width=".5" d="M159.79297 480.57813l.46484 1.1328"/></g><g clip-path="url(#m)"><path fill="none" stroke="#000" stroke-linecap="round" stroke-linejoin="round" stroke-miterlimit="10" stroke-width=".5" d="M174.1289 480.66797l-6.99609-.67969"/></g><g clip-path="url(#n)"><path fill="none" stroke="#000" stroke-linecap="round" stroke-linejoin="round" stroke-miterlimit="10" stroke-width=".5" d="M174.1289 480.66797l.9336 2.26953"/></g><g clip-path="url(#o)"><path fill="none" stroke="#000" stroke-linecap="round" stroke-linejoin="round" stroke-miterlimit="10" stroke-width=".5" d="M173.10938 480.57031l.46875 1.13281"/></g><g clip-path="url(#p)"><path fill="none" stroke="#000" stroke-linecap="round" stroke-linejoin="round" stroke-miterlimit="10" stroke-width=".5" d="M187.45313 480.51953l-7.01563-.38281"/></g><g clip-path="url(#q)"><path fill="none" stroke="#000" stroke-linecap="round" stroke-linejoin="round" stroke-miterlimit="10" stroke-width=".5" d="M187.45313 480.51953l1.03125 2.22656"/></g><g clip-path="url(#r)"><path fill="none" stroke="#000" stroke-linecap="round" stroke-linejoin="round" stroke-miterlimit="10" stroke-width=".5" d="M186.4336 480.46484l.51562 1.11328"/></g><g clip-path="url(#s)"><path fill="none" stroke="#000" stroke-linecap="round" stroke-linejoin="round" stroke-miterlimit="10" stroke-width=".5" d="M200.75781 480.64844l-6.9961-.64063"/></g><g clip-path="url(#t)"><path fill="none" stroke="#000" stroke-linecap="round" stroke-linejoin="round" stroke-miterlimit="10" stroke-width=".5" d="M200.75781 480.64844l.94922 2.26172"/></g><g clip-path="url(#u)"><path fill="none" stroke="#000" stroke-linecap="round" stroke-linejoin="round" stroke-miterlimit="10" stroke-width=".5" d="M199.74219 480.55469l.47265 1.13281"/></g><g clip-path="url(#v)"><path fill="none" stroke="#000" stroke-linecap="round" stroke-linejoin="round" stroke-miterlimit="10" stroke-width=".5" d="M214.08594 480.46094l-7.02344-.26172"/></g><g clip-path="url(#w)"><path fill="none" stroke="#000" stroke-linecap="round" stroke-linejoin="round" stroke-miterlimit="10" stroke-width=".5" d="M214.08594 480.46094l1.07031 2.20703"/></g><g clip-path="url(#x)"><path fill="none" stroke="#000" stroke-linecap="round" stroke-linejoin="round" stroke-miterlimit="10" stroke-width=".5" d="M213.0664 480.42188l.53516 1.10156"/></g><g clip-path="url(#y)"><path fill="none" stroke="#000" stroke-linecap="round" stroke-linejoin="round" stroke-miterlimit="10" stroke-width=".5" d="M227.39844 480.15234l-7.01563.35157"/></g><g clip-path="url(#z)"><path fill="none" stroke="#000" stroke-linecap="round" stroke-linejoin="round" stroke-miterlimit="10" stroke-width=".5" d="M227.39844 480.15234l1.26172 2.10547"/></g><g clip-path="url(#A)"><path fill="none" stroke="#000" stroke-linecap="round" stroke-linejoin="round" stroke-miterlimit="10" stroke-width=".5" d="M226.3789 480.20313l.62891 1.05468"/></g><g clip-path="url(#B)"><path fill="none" stroke="#000" stroke-linecap="round" stroke-linejoin="round" stroke-miterlimit="10" stroke-width=".5" d="M240.6875 479.85938l-6.96484.9375"/></g><g clip-path="url(#C)"><path fill="none" stroke="#000" stroke-linecap="round" stroke-linejoin="round" stroke-miterlimit="10" stroke-width=".5" d="M240.6875 479.85938l1.42969 1.99609"/></g><g clip-path="url(#D)"><path fill="none" stroke="#000" stroke-linecap="round" stroke-linejoin="round" stroke-miterlimit="10" stroke-width=".5" d="M239.67578 479.9961l.71484.99609"/></g><g clip-path="url(#E)"><path fill="none" stroke="#000" stroke-linecap="round" stroke-linejoin="round" stroke-miterlimit="10" stroke-width=".5" d="M254.03125 480.15625l-7.01953.34375"/></g><g clip-path="url(#F)"><path fill="none" stroke="#000" stroke-linecap="round" stroke-linejoin="round" stroke-miterlimit="10" stroke-width=".5" d="M254.03125 480.15625l1.2539 2.10938"/></g><g clip-path="url(#G)"><path fill="none" stroke="#000" stroke-linecap="round" stroke-linejoin="round" stroke-miterlimit="10" stroke-width=".5" d="M253.00781 480.20703l.6289 1.05469"/></g><g clip-path="url(#H)"><path fill="none" stroke="#000" stroke-linecap="round" stroke-linejoin="round" stroke-miterlimit="10" stroke-width=".5" d="M267.34766 480.41016l-7.02344-.16016"/></g><g clip-path="url(#I)"><path fill="none" stroke="#000" stroke-linecap="round" stroke-linejoin="round" stroke-miterlimit="10" stroke-width=".5" d="M267.34766 480.41016l1.10156 2.1914"/></g><g clip-path="url(#J)"><path fill="none" stroke="#000" stroke-linecap="round" stroke-linejoin="round" stroke-miterlimit="10" stroke-width=".5" d="M266.32422 480.38672l.55469 1.09375"/></g><g clip-path="url(#K)"><path fill="none" stroke="#000" stroke-linecap="round" stroke-linejoin="round" stroke-miterlimit="10" stroke-width=".5" d="M280.65625 480.54688l-7.01172-.4336"/></g><g clip-path="url(#L)"><path fill="none" stroke="#000" stroke-linecap="round" stroke-linejoin="round" stroke-miterlimit="10" stroke-width=".5" d="M280.65625 480.54688l1.01563 2.23046"/></g><g clip-path="url(#M)"><path fill="none" stroke="#000" stroke-linecap="round" stroke-linejoin="round" stroke-miterlimit="10" stroke-width=".5" d="M279.63672 480.48438l.50781 1.11328"/></g><g clip-path="url(#N)"><path fill="none" stroke="#000" stroke-linecap="round" stroke-linejoin="round" stroke-miterlimit="10" stroke-width=".5" d="M293.97656 480.49219l-7.01953-.32813"/></g><g clip-path="url(#O)"><path fill="none" stroke="#000" stroke-linecap="round" stroke-linejoin="round" stroke-miterlimit="10" stroke-width=".5" d="M293.97656 480.49219l1.05078 2.21875"/></g><g clip-path="url(#P)"><path fill="none" stroke="#000" stroke-linecap="round" stroke-linejoin="round" stroke-miterlimit="10" stroke-width=".5" d="M292.95313 480.44531l.52734 1.10938"/></g><g clip-path="url(#Q)"><path fill="none" stroke="#000" stroke-linecap="round" stroke-linejoin="round" stroke-miterlimit="10" stroke-width=".5" d="M307.28516 480.57813l-7.00782-.5"/></g><g clip-path="url(#R)"><path fill="none" stroke="#000" stroke-linecap="round" stroke-linejoin="round" stroke-miterlimit="10" stroke-width=".5" d="M307.28516 480.57813l.99609 2.24218"/></g><g clip-path="url(#S)"><path fill="none" stroke="#000" stroke-linecap="round" stroke-linejoin="round" stroke-miterlimit="10" stroke-width=".5" d="M306.26563 480.5039l.49609 1.1211"/></g><g clip-path="url(#T)"><path fill="none" stroke="#000" stroke-linecap="round" stroke-linejoin="round" stroke-miterlimit="10" stroke-width=".5" d="M320.58594 480.73047l-6.98047-.80469"/></g><g clip-path="url(#U)"><path fill="none" stroke="#000" stroke-linecap="round" stroke-linejoin="round" stroke-miterlimit="10" stroke-width=".5" d="M320.58594 480.73047l.89453 2.28515"/></g><g clip-path="url(#V)"><path fill="none" stroke="#000" stroke-linecap="round" stroke-linejoin="round" stroke-miterlimit="10" stroke-width=".5" d="M333.89063 480.82031l-6.95704-.98047"/></g><g clip-path="url(#W)"><path fill="none" stroke="#000" stroke-linecap="round" stroke-linejoin="round" stroke-miterlimit="10" stroke-width=".5" d="M333.89063 480.82031l.83593 2.30469"/></g><g clip-path="url(#X)"><path fill="none" stroke="#000" stroke-linecap="round" stroke-linejoin="round" stroke-miterlimit="10" stroke-width=".5" d="M347.20313 480.84375L340.25 479.8125"/></g><g clip-path="url(#Y)"><path fill="none" stroke="#000" stroke-linecap="round" stroke-linejoin="round" stroke-miterlimit="10" stroke-width=".5" d="M347.20313 480.84375l.8203 2.3125"/></g><g clip-path="url(#Z)"><path fill="none" stroke="#000" stroke-linecap="round" stroke-linejoin="round" stroke-miterlimit="10" stroke-width=".5" d="M360.55078 480.5039l-7.01953-.35156"/></g><g clip-path="url(#aa)"><path fill="none" stroke="#000" stroke-linecap="round" stroke-linejoin="round" stroke-miterlimit="10" stroke-width=".5" d="M360.55078 480.5039l1.04297 2.22266"/></g><g clip-path="url(#ab)"><path fill="none" stroke="#000" stroke-linecap="round" stroke-linejoin="round" stroke-miterlimit="10" stroke-width=".5" d="M373.86719 480.17188l-7.01953.3125"/></g><g clip-path="url(#ac)"><path fill="none" stroke="#000" stroke-linecap="round" stroke-linejoin="round" stroke-miterlimit="10" stroke-width=".5" d="M373.86719 480.17188l1.2461 2.11328"/></g><g clip-path="url(#ad)"><path fill="none" stroke="#000" stroke-linecap="round" stroke-linejoin="round" stroke-miterlimit="10" stroke-width=".5" d="M387.14063 480.89063l-6.9375-1.125"/></g><g clip-path="url(#ae)"><path fill="none" stroke="#000" stroke-linecap="round" stroke-linejoin="round" stroke-miterlimit="10" stroke-width=".5" d="M386.1289 480.72656l.39844 1.16016"/></g><g clip-path="url(#af)"><path fill="none" stroke="#000" stroke-linecap="round" stroke-linejoin="round" stroke-miterlimit="10" stroke-width=".5" d="M400.3789 479.41406l-6.78515 1.82813"/></g><g clip-path="url(#ag)"><path fill="none" stroke="#000" stroke-linecap="round" stroke-linejoin="round" stroke-miterlimit="10" stroke-width=".5" d="M399.39063 479.67969l.83984.89453"/></g><g clip-path="url(#ah)"><path fill="none" stroke="#000" stroke-linecap="round" stroke-linejoin="round" stroke-miterlimit="10" stroke-width=".5" d="M413.54688 478.98047l-6.48829 2.69922"/></g><g clip-path="url(#ai)"><path fill="none" stroke="#000" stroke-linecap="round" stroke-linejoin="round" stroke-miterlimit="10" stroke-width=".5" d="M412.60156 479.3711l.94922.77734"/></g><g clip-path="url(#aj)"><path fill="none" stroke="#000" stroke-linecap="round" stroke-linejoin="round" stroke-miterlimit="10" stroke-width=".5" d="M427.11719 480.03906l-7.0039.57813"/></g><g clip-path="url(#ak)"><path fill="none" stroke="#000" stroke-linecap="round" stroke-linejoin="round" stroke-miterlimit="10" stroke-width=".5" d="M426.09766 480.125l.66406 1.03125"/></g><g clip-path="url(#al)"><path fill="none" stroke="#000" stroke-linecap="round" stroke-linejoin="round" stroke-miterlimit="10" stroke-width=".5" d="M439.69922 482.49219l-5.53516-4.32813"/></g><g clip-path="url(#am)"><path fill="none" stroke="#000" stroke-linecap="round" stroke-linejoin="round" stroke-miterlimit="10" stroke-width=".5" d="M453.7461 480.65234l-7-.64453"/></g><g clip-path="url(#an)"><path fill="none" stroke="#000" stroke-linecap="round" stroke-linejoin="round" stroke-miterlimit="10" stroke-width=".5" d="M452.72656 480.5586l.47656 1.1289"/></g><g clip-path="url(#ao)"><path fill="none" stroke="#000" stroke-linecap="round" stroke-linejoin="round" stroke-miterlimit="10" stroke-width=".5" d="M464.55078 483.69922l-1.97656-6.74219"/></g><g clip-path="url(#ap)"><path fill="none" stroke="#000" stroke-linecap="round" stroke-linejoin="round" stroke-miterlimit="10" stroke-width=".5" d="M147.51172 466.91797l-7.02344.1914"/></g><path fill="none" stroke="#000" stroke-linecap="round" stroke-linejoin="round" stroke-miterlimit="10" stroke-width=".5" d="M147.51172 466.91797l1.21094 2.13672m-2.23047-2.10938l.60156 1.0664m13.73438-1.05859l-7.02735.1211m7.02734-.1211l1.19141 2.14454m-2.21484-2.12891l.59765 1.07422m13.7422-.96094l-7.02735-.13672m7.02734.13672l1.10938 2.1875m-2.13282-2.20703l.5547 1.09375m13.77343-.91016l-7.00781-.46484m7.0078.46484l1.00782 2.23828m-2.02734-2.30468l.5039 1.11718m13.83985-1.28125h-7.02735m7.02735 0l1.15234 2.16407m-2.17578-2.16407l.57813 1.08204m13.7578-1.25782l-7.01952.34766m7.01953-.34766l1.2539 2.10938m-2.27734-2.0586l.6289 1.0547m13.69141-1.3086l-6.98437.7539m6.98437-.7539l1.3789 2.03125m-2.39452-1.92188l.6875 1.01563m13.51953-1.7461l-6.73828 1.9961m6.73828-1.9961l1.71875 1.75m-2.69922-1.46093l.85938.875m13.47265-1.03125l-6.8086 1.73047m6.8086-1.73047l1.65234 1.8125m-2.64453-1.5625l.82813.90625m13.54297-.85157l-6.9375 1.1211m6.9375-1.1211l1.48047 1.95704m-2.48828-1.79297l.73828.97656m13.625-.77734l-7.01563.39453m7.01563-.39453l1.26953 2.09765m-2.29297-2.03906l.63672 1.04688m13.67578-1.35547l-6.96875.89453m6.96875-.89453l1.41797 2.0039m-2.42969-1.8711l.70703 1m13.6211-1.14452l-6.96875.91797m6.96875-.91797l1.42187 2m-2.4375-1.86719l.71484 1m13.6172-1.10937l-6.97266.87109m6.97265-.8711l1.41016 2.00782m-2.42578-1.88281l.70703 1.0039m13.6289-1.07422l-6.98437.76172m6.98437-.76172l1.38282 2.02735m11.89843-2.27344l-6.91406 1.2539m6.91406-1.2539l1.51954 1.92578m11.47656-2.8789l-6.27735 3.16015m6.27735-3.16016l2.0039 1.41407m11.16016-1.6836l-5.97266 3.69922m5.10157-3.16015l1.0625.61718m13.37109-.67578l-6.46875 2.73828m5.52734-2.33984l.95313.77344m13.51953-.46485l-6.90234 1.32422m5.89843-1.13281l.76954.95703m13.5-1.35938l-6.8047 1.7461m5.81641-1.49219l.82813.90625m13.40234-1.41016l-6.65625 2.2461m5.6875-1.91797l.89063.83984m11.15234 3.29688l-2.17578-6.6836m16.5664 6.11329l-4.32421-5.53907m18.89062 1.94141l-6.83203 1.65234m5.83985-1.41015l.8125.91797"/><g clip-path="url(#aq)"><path fill="none" stroke="#000" stroke-linecap="round" stroke-linejoin="round" stroke-miterlimit="10" stroke-width=".5" d="M147.51172 453.67969l-7.02344.03906"/></g><path fill="none" stroke="#000" stroke-linecap="round" stroke-linejoin="round" stroke-miterlimit="10" stroke-width=".5" d="M147.51172 453.67969l1.16406 2.16015m-2.1836-2.15625l.58204 1.08203m13.7539-1.08984l-7.02734.04688m7.02734-.04688l1.16797 2.15625m12.13672-1.84765l-7.0039-.57032m7.0039.57031l.97266 2.25391m12.34766-2.35937l-7.01563-.36328m7.01563.36328l1.03906 2.22656m-2.0586-2.27734l.51953 1.10937m13.82032-1.14063l-7.02344-.19921m7.02344.19922l1.08984 2.19921m12.21484-2.02343l-7.0039-.54688m7.0039.54688l.98047 2.24609m12.3047-3.05078l-6.94532 1.0586m6.94531-1.0586l1.46484 1.96875m11.70313-2.57031l-6.65234 2.26562m6.65234-2.26562l1.78906 1.67968m11.4336-1.92187l-6.46875 2.75m6.46875-2.75l1.90625 1.54297m11.55468-1.13282l-6.7578 1.9297m6.7578-1.9297l1.70313 1.76563m-2.6875-1.48438l.85156.88282m13.55078-.67188l-6.96484.94531m6.96484-.9453l1.4336 1.99218m11.89843-1.85938l-6.99609.6797m6.9961-.6797l1.35546 2.04688m-2.375-1.94922l.67969 1.02344m13.66797-.8125l-7.02735.0625m7.02735-.0625l1.17187 2.15625m-2.1914-2.14844l.58593 1.07813m13.73829-1.32032l-7.00391.53125m7.0039-.53125l1.3125 2.07422m-2.33203-1.9961l.65625 1.03516m13.6836-1.0703l-7.01172.4414m7.01172-.4414l1.28515 2.08984m12.03516-1.92579l-7.02344.1172m6.00391-.10157l.59375 1.07422m12.76953-3.46094L354.5 456.125m4.34375-4.14844l1.16406.38672m11.71094-1.90234l-2.72656 6.47656m2.32812-5.53516l1.22266-.10937m12.78125-.69531l-3.30469 6.20312m2.82422-5.30078h1.22656m12.42578-.97266l-3.01953 6.34375m2.58203-5.42187l1.22657-.05469m14.20312.82031l-6.3711 2.96485m5.44141-2.53125l.98047.73828m13.16797 1.98047l-6.1836-3.33594m16.27344 5.17969l.26954-7.02344m16.53125 2.46094l-6.70313 2.10156m19.85547-2.52734l-6.3789 2.94921m5.45312-2.51953l.97656.7422"/><g clip-path="url(#ar)"><path fill="none" stroke="#000" stroke-linecap="round" stroke-linejoin="round" stroke-miterlimit="10" stroke-width=".5" d="M147.49219 440.75781l-6.98438-.75"/></g><path fill="none" stroke="#000" stroke-linecap="round" stroke-linejoin="round" stroke-miterlimit="10" stroke-width=".5" d="M147.49219 440.75781l.91406 2.27735m12.3086-1.76563L153.91405 439.5m6.80078 1.76953l.57032 2.38672m12.58984-1.92969l-6.49219-2.6875m5.55078 2.29688l.1172 1.22265m13.8164-.22656l-5.84375-3.89844m4.9961 3.33203l-.125 1.21875m14.60155-1.23437l-6.47265-2.73047m5.53125 2.33203l.10937 1.22266m14.42578-2.2539l-7.02734.125m6.0039-.10548l.59376 1.07422m13.51953.20313l-6.57813-2.46485m5.6211 2.10547l.16015 1.21485m13.8164-3.9297l-5.98827 3.6797m5.11719-3.14453l1.05859.625m10.2539-2.83204l-.24218 7.02344m.20703-6l1.10156-.53906m14.52734.46094l-4.79687 5.13671m4.79688-5.13671l2.36718.63672m11.89844.87109l-6.69922 2.1211m6.69922-2.1211l1.7539 1.71484m11.39063-2.15234l-6.35937 2.99219m6.35937-2.9922l1.96485 1.47266m11.66406-.36718l-6.98438.78125m6.98438-.78125l1.38281 2.02734m11.94922-1.80469l-7.01953.33985m7.01953-.33985l1.2539 2.10938m12.05079-2.26953l-6.9961.66015m6.9961-.66015l1.34765 2.04687m11.58594-3.33593L340.60547 442m6.23828-3.23437l2.01953 1.39453m10.02344-2.76563l-3.6914 5.98047m3.15624-5.10938l1.22266.07813m12.1836-1.17969l-2.8047 6.4414m2.8047-6.4414l2.44921-.1914m11.91797 5.92578l-4.90625-5.03125m19.19531 1.75l-6.85547 1.53125m6.85547-1.53125l1.59766 1.86328m11.73437-1.78516l-6.89062 1.3789m6.89062-1.3789l1.5547 1.89844m11.8203-1.47656l-7.0078.53515m5.98827-.45703l.65625 1.03516m13.29688.75781l-6.25-3.21094m5.34375 2.7461l.01562 1.22656m14.38282-1.15625l-6.59766-2.41797m6.59766 2.41797l.33593 2.42969m13.17188-3.26563l-6.98828-.7461m5.97265.63673l.45703 1.13672"/><g clip-path="url(#as)"><path fill="none" stroke="#000" stroke-linecap="round" stroke-linejoin="round" stroke-miterlimit="10" stroke-width=".5" d="M147.45313 426.41797l-6.90625 1.30078"/></g><path fill="none" stroke="#000" stroke-linecap="round" stroke-linejoin="round" stroke-miterlimit="10" stroke-width=".5" d="M147.45313 426.41797l1.53125 1.91797m11.79687-.6875l-6.92969-1.16016m6.92969 1.16016l.77734 2.32422m12.29688-1.50782l-6.44922-2.79297m5.51172 2.38672l.09766 1.22266m13.84765-.25781l-5.83594-3.91016m4.98828 3.33984l-.125 1.22266m14.07813-.3711l-5.41797-4.47265m4.63281 3.82031l-.24609 1.20313m15.0586-1.97656l-6.83985-1.6211M213 427.64453l.3086 1.1836m11.94921-4.9961l-2.73437 6.47266m2.33594-5.53125l1.22265-.10938m14.6211 2.08203l-6.9961.64453m19.60156 1.81641l-5.57422-4.27734m18.82422 4.35547l-5.44922-4.4336m17.87891-.77734l-3.67578 5.98828m18.0586-4.96875l-5.8086 3.95313m18.61719.58984L301.3828 424.5m4.09766 4.39063l-.39844 1.16015m14.76563-5.16797l-5.50391 4.3711m4.70313-3.73438l1.125.49219m13.32812-.61328l-6.17969 3.33984m6.17969-3.33984l2.04688 1.35547m11.4453-.98438l-6.53124 2.59766m6.53125-2.59766l1.8711 1.58594m11.5-1.42578l-6.64454 2.27734m5.67969-1.94531l.89453.83594m12.16406-2.84766l-4.20312 5.63672m3.58984-4.8164l1.21484.1875m12.3125-1.26173l-3.40234 6.14844m2.91016-5.2539l1.22656.01953m14.32422 2.85937l-6.88672-1.40234m6.88672 1.40234l.69531 2.35156m12.60156-3.83203l-6.85156 1.5586m6.85156-1.5586l1.60547 1.85547m-2.60156-1.6289l.80078.92578m13.35938-1.65235l-6.54688 2.5586m6.54688-2.5586l1.85937 1.60157m-2.8125-1.22657l1.85938 1.59766m12.55468-1.4961l-6.83984 1.60547m6.83984-1.60546l1.61719 1.84765M439.35547 426.5l.8086.92578m13.59374-.26172l-7.02344-.1914m7.02344.1914l1.09375 2.19532m12.16406-1.64454l-6.90625-1.29296m6.90625 1.29296l.73438 2.33985"/><g clip-path="url(#at)"><path fill="none" stroke="#000" stroke-linecap="round" stroke-linejoin="round" stroke-miterlimit="10" stroke-width=".5" d="M147.1211 412.13672l-6.2422 3.23437"/></g><path fill="none" stroke="#000" stroke-linecap="round" stroke-linejoin="round" stroke-miterlimit="10" stroke-width=".5" d="M147.1211 412.13672l2.01952 1.39062m10.3711-2.51562l-4.39063 5.48437m3.75-4.6875l1.20703.22657m13.8047 3.04296l-6.50782-2.65234m5.5625 2.26953l.125 1.21875m14.16406-.91015l-6.5625-2.50391m5.60938 2.14063l.15234 1.21875m14.34766-2.15625l-7.02735.10156m6.00391-.08985l.59375 1.07813m13.5586.09375l-6.65235-2.26563m20.07031.36328l-6.85937 1.53516m18.99219 1.9336l-4.4961-5.39844m18.57031 4.51953l-6.01172-3.64063m5.13672 3.10938l-.0703 1.22656m14.65624-1.64062l-6.80469-1.75M266.25 414.375l.28516 1.1914m12.48437-4.78906l-3.73828 5.94922m18.32031-4.5625l-6.26953 3.17578m19.73047-.33203L300.5 412.5m5.60938 2.14063l.15234 1.21875m14.32422-1.69141l-6.98047-.82813m5.96484.70704l.44531 1.14453m13.89063-1.07422l-6.98828-.72656m5.97265.62109l.46094 1.13672m13.875-1.10938l-7.0039-.57031m7.0039.57031l.97266 2.2539m12.32422-3.01952l-6.96485.96094m6.96485-.96094l1.4336 1.98828m11.55077-3.0625l-6.30078 3.10937m6.30078-3.10937l1.99219 1.4336m11.0039-1.95704l-5.66796 4.15625m5.66797-4.15625l2.21093 1.0664m10.96485-1.24609l-5.38672 4.51563m5.38672-4.51563l2.27344.91797m11.39843-.40625L407.25 415.5m6.10156-3.49219l2.07422 1.3086m-2.96094-.80078l1.03516.65625m13.53906-.21875l-6.84375 1.59765m6.84375-1.59765l1.61328 1.84765m-2.60937-1.61328l.80469.92188m13.58593-.07422l-7.0039-.5625m7.0039.5625l.97657 2.25m12.34375-2.73438l-7.01563.40625m7.01563-.40625l1.27343 2.09766m-2.29296-2.03906l.63671 1.05078m13.50782-2.07032l-6.63282 2.32813"/><g clip-path="url(#au)"><path fill="none" stroke="#000" stroke-linecap="round" stroke-linejoin="round" stroke-miterlimit="10" stroke-width=".5" d="M466.8789 412.58984l1.80079 1.66407"/></g><g clip-path="url(#av)"><path fill="none" stroke="#000" stroke-linecap="round" stroke-linejoin="round" stroke-miterlimit="10" stroke-width=".5" d="M146.9336 398.5039l-5.8672 3.8672"/></g><path fill="none" stroke="#000" stroke-linecap="round" stroke-linejoin="round" stroke-miterlimit="10" stroke-width=".5" d="M146.9336 398.5039l2.15234 1.17579m-3.0039-.61328l1.07421.58984m12.67188-1.67578l-5.02344 4.91406m5.02344-4.91406l2.33593.7461m-3.0664-.03126l1.16797.375m12.6289-1.32031l-4.52734 5.375m3.86719-4.58984l1.19921.2578m13.78125.36329l-6.53906 2.5664m18.17578 1.84766l-3.1836-6.26562m2.71876 5.35547l-.70313 1.0039m15.46485-.83594L208 398.04688m19.30078 1.5547l-6.82422 1.67577m5.83203-1.43359l.82032.91406m13.58203-.53515l-7.01172.42968m7.01172-.42968l1.28515 2.09375m11.92188-.98829l-6.79688-1.78125m5.8086 1.52344l.28125 1.19531m13.95703-.71093l-6.66406-2.23047m5.6953 1.90625l.19923 1.21094m14.16406-2.84766l-6.82031 1.6914m5.82812-1.4453l.8164.91015m13.57813-.63281l-6.99609.64062m5.97656-.54687l.67188 1.02734m13.30468.76953l-6.28515-3.14062m5.3711 2.6836l.03124 1.22655m14.40235-1.26171l-6.69141-2.15625m5.71875 1.84375l.21484 1.20703m14.19141-1.37891l-6.92578-1.1875m5.91797 1.01563l.38281 1.16406m13.69922-.1914L340.5 399.04296m5.51172 2.38281l.09765 1.22266m14.44532-2.125l-7.02735-.17188m6.00391.14844l.55078 1.09766m13.78516-1.03516l-7.02344-.25m7.02344.25l1.07422 2.20703m11.42968-4.57812l-5.40234 4.49218m5.40234-4.49218l2.27344.92968m11.70703.3086l-6.73047 2.01953m6.73047-2.01953l1.72656 1.74219m11.57422-1.79297L406.95312 401.5m6.69922-2.1211l1.75 1.71876m-2.72656-1.41016l.875.85938m13.41797-1.16407l-6.70313 2.11328m6.70313-2.11328l1.75 1.71875m-2.72656-1.41406l.875.85938m13.52734-.70313l-6.92578 1.1875m6.92578-1.1875l1.5 1.9414m11.84766-1.69921l-6.99219.70703m6.99219-.70703l1.36328 2.03906m-2.3789-1.9375l.67968 1.01953m13.28516-2.36719l-6.25782 3.19532"/><g clip-path="url(#aw)"><path fill="none" stroke="#000" stroke-linecap="round" stroke-linejoin="round" stroke-miterlimit="10" stroke-width=".5" d="M466.6914 398.83984l2.01173 1.40625"/></g><path fill="none" stroke="#000" stroke-linecap="round" stroke-linejoin="round" stroke-miterlimit="10" stroke-width=".5" d="M465.78125 399.30469l1.0039.70312"/><g clip-path="url(#ax)"><path fill="none" stroke="#000" stroke-linecap="round" stroke-linejoin="round" stroke-miterlimit="10" stroke-width=".5" d="M146.60547 384.76563l-5.21094 4.71484"/></g><path fill="none" stroke="#000" stroke-linecap="round" stroke-linejoin="round" stroke-miterlimit="10" stroke-width=".5" d="M145.84766 385.45313l1.15234.41406m13.07813-.91797l-5.52344 4.34765m5.52344-4.34765l2.24218.99219m11.33985-.59766l-6.0586 3.5586m6.0586-3.5586l2.08984 1.28516m-2.97266-.76563l1.04688.64063m13.10547-1.23829l-5.96875 3.71485m5.96875-3.71485l2.1211 1.23047m9.49218 3.89844l-2.5664-6.54297m2.1953 5.58985l-.80078.93359m16.26563-1.52344l-6.1211-3.45312m6.1211 3.45312l-.0625 2.45313M227.12109 388.5l-6.46484-2.7539m5.52734 2.35546l.10547 1.21875m14.40235-2.6211l-6.97266.84767m5.96094-.72657l.70312 1.00781m13.625-1.14453l-6.97265.87891m6.97265-.8789l1.41406 2.0039m11.92579-1.6211l-7.02344.11329m7.02344-.11328l1.1875 2.14453m12.1289-2.0664l-7.02734-.04298m6.0039.03516l.57032 1.08594m13.76562-.95313l-7.01953-.29297m7.01953.29297l1.0625 2.21094m12.14063-1.46485l-6.79688-1.78515m6.79688 1.78515l.5625 2.38672m12.83203-2.77343l-6.95703-1.01172m6.95703 1.01172l.82812 2.30859m12.47266-2.23047l-6.92969-1.16797m6.92969 1.16797l.77734 2.32813m12.14844-1.21485l-6.15234-3.39453m5.25781 2.90235l-.01953 1.22656m14.5664-1.59375l-6.82421-1.67578m5.83203 1.43359l.30078 1.1875m14.05078-2.42188l-6.91016 1.27735m6.91016-1.27735l1.52344 1.92188m11.38281-3.03516L380.625 388.875m6.09375-3.5039l2.07813 1.30468m11.24218-1.29297l-6.10547 3.48047m6.10547-3.48047l2.07422 1.3125m-2.96094-.80469l1.03516.65625m13.01172-1.41015l-5.79688 3.97265m5.79688-3.97265l2.17578 1.13672m-3.01953-.5586l1.08984.56641m12.85547-1.42578l-5.36719 4.53515m5.3672-4.53515l2.27734.91015m-3.0586-.25l1.14063.45704m13.34375-.55079l-6.14453 3.40235m6.14453-3.40235l2.05859 1.33594m11.5664-.58594l-6.76562 1.90235m6.76563-1.90235l1.6953 1.77735m-2.67968-1.5l.84766.88672m13.3789-1.39063l-6.62109 2.35547"/><g clip-path="url(#ay)"><path fill="none" stroke="#000" stroke-linecap="round" stroke-linejoin="round" stroke-miterlimit="10" stroke-width=".5" d="M466.8711 385.94531l1.8125 1.65625"/></g><g clip-path="url(#az)"><path fill="none" stroke="#000" stroke-linecap="round" stroke-linejoin="round" stroke-miterlimit="10" stroke-width=".5" d="M141.83203 371.04297l4.33594 5.53125"/></g><path fill="none" stroke="#000" stroke-linecap="round" stroke-linejoin="round" stroke-miterlimit="10" stroke-width=".5" d="M155.44922 370.83203l3.73047 5.95313m-3.1875-5.08594l.61328-1.0664m16.23437.4453l-4.41797 5.46094m4.41797-5.46094l2.41016.46485m11.41406.03906l-5.4375 4.45313m4.64453-3.8047l1.13282.47267m13.41797-.42579l-6.32422 3.0625m5.40625-2.61718l.98828.72656m13.58594.10547l-7.00782.50781m5.98828-.4336l.65625 1.03516m13.63672-1.45703l-6.92187 1.20313m5.91406-1.02735l.7539.96875m13.6211-.61719l-7.02734.14844m6.0039-.125l.59766 1.07031m13.6289-1.90625l-6.80078 1.77344m5.8086-1.51562l.83203.90234m13.21484-1.84375l-6.28515 3.14063m5.37109-2.6836l1 .71094m13.60156.4375l-7.02734-.07031m6.0039.0586l.56641 1.08983m13.65235-.19921l-6.78516-1.82813m5.79687 1.5625l.27344 1.19531m13.76953-.2578l-6.26562-3.17579m5.35547 2.71484l.02343 1.22657m13.84375-.19922l-5.55078-4.30469m5.55078 4.30469l-.41797 2.41797m13.92579-2.69141l-5.9375-3.76172m5.07421 3.21485l-.09375 1.22265m14.65625-1.50781l-6.70703-2.09375m5.73438 1.78906l.22656 1.20703m14.20313-1.57031l-6.98829-.75781m6.98829.75781l.91015 2.28125m12.41406-2.92188l-7.0078.52344m7.0078-.52344l1.3125 2.07422m11.63672-3.39453l-6.27343 3.16406m6.27343-3.16406l2.00391 1.41797m11.21094-1.60156l-6.07422 3.53125m6.07422-3.53125l2.08593 1.29297m-2.96875-.78125l1.04297.64844m12.95313-1.46875l-5.67188 4.14843m5.67188-4.14844l2.21094 1.07032m-3.03516-.46485l1.10547.53125m13.04297-1.125l-5.6914 4.125m5.6914-4.125l2.20312 1.07813m-3.03125-.47656l1.10156.53906m12.6797-1.5625l-4.96876 4.96875m4.96875-4.96875l2.34766.71875m-3.07031.0039l1.17578.35938m13.26953-.59375l-5.78125 3.99219m5.78125-3.99219l2.17969 1.1289m-3.01954-.54687l1.08985.5625m12.89844-1.36719l-5.44922 4.4375"/><g clip-path="url(#aA)"><path fill="none" stroke="#000" stroke-linecap="round" stroke-linejoin="round" stroke-miterlimit="10" stroke-width=".5" d="M466.28516 371.58984l2.26171.95313"/></g><g clip-path="url(#aB)"><path fill="none" stroke="#000" stroke-linecap="round" stroke-linejoin="round" stroke-miterlimit="10" stroke-width=".5" d="M145.02344 360.49219l-.01953-.19922-.0586-.1914-.09375-.17579-.46094-.3789-.1914-.0547-.19922-.01952-.19922.01953-.1914.05469-.46094.3789-.09375.17578-.0586.1914-.01953.19923.01953.19922.0586.1914.09375.17969.46094.375.1914.0586.19922.01952.19922-.01953.1914-.05859.46094-.375.09375-.17969.0586-.1914.01953-.19922"/></g><path fill="none" stroke="#000" stroke-linecap="round" stroke-linejoin="round" stroke-miterlimit="10" stroke-width=".5" d="M153.8086 360.70703l7.01171-.42969m12.04688-2.49218l-4.47656 5.41796m3.82812-4.6289l1.19922.2461m13.42578-.3125l-5.79688 3.97265m19.57032-3.01953l-6.71485 2.0664m20.16016-1.44921l-6.97656.82812m17.25-3.89844l-.89063 6.96875m13.17969-6.94922l1.16016 6.9297m13.41015-6.91017l-1.35156 6.89454M251 358.04687l1.17188-.35546m11.34375-.69532l.64062 6.9961m-.54688-5.98047l1.02735-.67188m11.24219-.12109l2.54296 6.55078m10.45313-6.41015l3.17969 6.26562m12.83594.20313l-2.22266-6.66797m1.90234 5.6953l-.84765.89063m14.41406.10157l-2.08203-6.71094m1.78125 5.73437l-.86328.8711m15.27734-.25781L328.57031 357.5m3.14453 5.11719l-.62109 1.05469m15.17969-.75782l-5.09375-4.83984m5.09375 4.83984l-.65625 2.36328m14.69922-3.51171l-6.55079-2.54297m6.55079 2.54296l.28906 2.4336m13.2461-3.33594l-6.98829-.74219m6.98828.7422l.91406 2.27733m12.33594-3.40234l-6.86328 1.51172m6.86328-1.51172l1.59375 1.86719m11.75-1.71875l-6.91797 1.21484m6.91797-1.21484l1.51172 1.9336m11.65235-2.51173l-6.6172 2.3711m6.6172-2.3711l1.8164 1.65235m11.32031-2.0664l-6.2578 3.19921m6.2578-3.19922l2.01172 1.40625m11.3164-1.3789l-6.28515 3.14453m6.28516-3.14454l2 1.42188m-2.91406-.96484l1 .71093m13.1914-1.24218l-6.21094 3.28906m6.21094-3.28906l2.03125 1.3789m11.14844-1.61328l-5.9375 3.76172"/><g clip-path="url(#aC)"><path fill="none" stroke="#000" stroke-linecap="round" stroke-linejoin="round" stroke-miterlimit="10" stroke-width=".5" d="M466.53125 358.61328l2.13281 1.21485"/></g><g clip-path="url(#aD)"><path fill="none" stroke="#000" stroke-linecap="round" stroke-linejoin="round" stroke-miterlimit="10" stroke-width=".5" d="M140.74219 345.85938l6.51562 2.63671"/></g><path fill="none" stroke="#000" stroke-linecap="round" stroke-linejoin="round" stroke-miterlimit="10" stroke-width=".5" d="M153.80078 347.10156l7.02734.15235m-6.0039-.12891l-.55078-1.09375m14.4414 4.09375l3.82813-5.89453m14.20312.82422l-5.60156 4.2461m19.33984-3.51563l-6.44921 2.78515m19.96875-2.15625l-6.85938 1.53125m14.9961-3.8125l3.5 6.08985m11.2539-6.54297l.6211 7m-.53125-5.98438l1.02734-.66797m12.4336-.36328l.15234 7.02735m-.12891-6.00391l1.07031-.59766m10.48828.07422l3.6172 6.02735m-3.08985-5.14844l.63281-1.05078m11.3164.875l5.29297 4.6211m-4.52343-3.94923l.28125-1.19531m11.48047 2.08594l6.86328 1.5m-5.86719-1.28516l-.33203-1.17969m13.83984 4.41797l4.48438-5.41015m-3.83203 4.625l-1.20313-.25m14.88672 1.625l2.4414-6.58985m-2.08593 5.63281l-1.21485.16407m15.56641 1.00781l-.34375-7.01953m.29688 6l-1.0547.625m14.6172.3789l-.7422-6.98828m.63282 5.97266l-1.01562.6875m16.2578-.41797l-4.3789-5.4961m4.3789 5.4961l-.98046 2.2539m14.66406-2.59374l-5.11719-4.8164m5.1172 4.8164l-.64454 2.36719m14.7461-3.69532l-6.6875-2.16015m6.6875 2.16015l.42578 2.41797m13.05468-3.63281l-7.01953.26953m7.01953-.26953l1.23438 2.1211m12.03125-2.58985l-6.92188 1.20703m6.92188-1.20703l1.50781 1.9375m11.53125-2.8164l-6.3711 2.96484m6.3711-2.96485l1.96094 1.48047m10.98828-2.09765l-5.63672 4.19921m5.63672-4.19921l2.21875 1.04687m10.85156-1.33984l-5.14844 4.78515m5.14844-4.78515l2.3164.80468m11.76954.50782l-6.6875 2.16406"/><g clip-path="url(#aE)"><path fill="none" stroke="#000" stroke-linecap="round" stroke-linejoin="round" stroke-miterlimit="10" stroke-width=".5" d="M466.90625 346.09766l1.76172 1.70312"/></g><g clip-path="url(#aF)"><path fill="none" stroke="#000" stroke-linecap="round" stroke-linejoin="round" stroke-miterlimit="10" stroke-width=".5" d="M141.99219 330.98047l4.01562 5.76562"/></g><path fill="none" stroke="#000" stroke-linecap="round" stroke-linejoin="round" stroke-miterlimit="10" stroke-width=".5" d="M154.30078 332.0586l6.02734 3.60937m-5.14843-3.08594l.0586-1.22265m11.88671 2.27734l7.01172.45312m-5.99219-.38671l-.5039-1.1172m13.0703-.09765l6.46876 2.75m-5.52735-2.35156l-.10547-1.22266m19.04297 1.08203l-6.66015 2.23438m5.6914-1.91016l.89063.84375m12.77734-2.28515l-5.42578 4.46875m19.10547-3.9297l-6.15625 3.39063m5.25781-2.89843l1.02735.67187m12.6914-1.84765l-5.16797 4.7578m4.41797-4.0664l1.15625.40625m12.99219-1.00781l-5.33203 4.57812m4.55469-3.91015l1.14453.44531m11.83203-1.97656l-3.10156 6.30469m2.64843-5.38672l1.22657-.03907m11.33593-1.22265l-.6875 6.99219m.58594-5.97657l1.13281-.46484m9.90625.07812l4.0625 5.73438m-3.47265-4.89844l.55468-1.09765m11.11329 4.80468l6.17578-3.35156m-5.27735 2.86328l-1.01953-.67578m14.07813 2.00781l4.89453-5.03906m-4.89453 5.03906l-2.35547-.6836m17.3789 1.59767l1.47657-6.8672m-1.26172 5.8672l-1.17969.33593m15.79688.65625l-1.5547-6.85156m1.5547 6.85156l-1.85938 1.60156m16.01172-1.90625l-3.23047-6.24218m3.23047 6.24219l-1.39844 2.01953m15.92188-3.05079l-5.64844-4.17968m5.64844 4.17969l-.36328 2.42968m14.27734-3.72656l-6.84375-1.58984m5.84766 1.35937l.3164 1.1875m14.08203-1.89453l-7.01953.28906m7.01953-.28906l1.2422 2.11328m12.0664-2.2539l-7.0039.5664m7.0039-.5664l1.32031 2.0703m11.9375-2.46484l-6.89453 1.35938m6.89453-1.35938l1.55078 1.90235m11.64844-2.34766l-6.66016 2.25m6.66016-2.25l1.78515 1.6836m11.41407-1.97657l-6.42969 2.83594m6.42969-2.83594l1.92968 1.51563m11.40235-1.48047l-6.46094 2.76562"/><g clip-path="url(#aG)"><path fill="none" stroke="#000" stroke-linecap="round" stroke-linejoin="round" stroke-miterlimit="10" stroke-width=".5" d="M466.79297 332.48047l1.91015 1.53515"/></g><g clip-path="url(#aH)"><path fill="none" stroke="#000" stroke-linecap="round" stroke-linejoin="round" stroke-miterlimit="10" stroke-width=".5" d="M145.02344 317.1875l-2.04688 6.72266"/></g><path fill="none" stroke="#000" stroke-linecap="round" stroke-linejoin="round" stroke-miterlimit="10" stroke-width=".5" d="M144.72656 318.16406l1.20313-.23437m11.10156-.88281l.5664 7.0039m-.48437-5.98437l1.03516-.66407m14.55469.3086l-4.14454 5.67578m17.02344-5.94922l-3.27344 6.21875m2.79688-5.3125l1.22656-.0039m14.41406 2.63671l-6.97265-.85547m5.96094.73047l.4375 1.14453m13.83593-.70703l-6.86719-1.48437m5.8711 1.26953l.33203 1.17969m13.7539-3.13672l-6.41406 2.86328m5.48047-2.44922l.96875.7539m12.82031-1.92577l-5.49609 4.3789m4.69531-3.74219l1.12891.48829m12.35547-1.7422l-4.23047 5.60938m3.61328-4.79297l1.21094.19141m11.79687-1.50781l-2.3828 6.60937m2.03515-5.64844l1.21484-.17187m10.6914-.95313l1.12891 6.9375m-.96484-5.92578l.97656-.74218m9.47266 4.49609l6.53125-2.59375m6.72656 2.4336l6.64844-2.26954m-5.6836 1.9375l-.89453-.83594m13.57813 1.87891l5.98047-3.6914m-5.10938 3.15234l-1.0586-.61719m15.42188 2.65625l2.14453-6.6914m-2.14453 6.6914l-2.41406.4375m16.73047-.26953l.14062-7.02734m-.14062 7.02734l-2.1914 1.10547m15.2539-1.1211l.64453-6.99609m-.55078 5.97656l-1.13281.47657m13.85547.46093l1.64062-6.83203m-1.40234 5.83594l-1.1875.3086m15.59375.74609l-1.01563-6.95313m.86719 5.9414l-.98828.72657m15.86719-.25l-3.84766-5.8789m3.28906 5.02343l-.58984 1.07422m14.59765-.3125l-4.11718-5.69531m3.51953 4.86719l-.53906 1.10156m15.17968-.97656l-5.5703-4.28516m4.7578 3.66016l-.20312 1.21093m15.0586-2.83203l-7.02735.20703m7.02734-.20703l1.21485 2.13281m11.9375-3.08203l-6.70313 2.10547m6.70313-2.10547l1.75 1.72266m-2.72266-1.41797l.8711.86328m13.22265-1.66015l-6.3125 3.08984"/><g clip-path="url(#aI)"><path fill="none" stroke="#000" stroke-linecap="round" stroke-linejoin="round" stroke-miterlimit="10" stroke-width=".5" d="M466.71875 319.0039l1.98438 1.4375"/></g><path fill="none" stroke="#000" stroke-linecap="round" stroke-linejoin="round" stroke-miterlimit="10" stroke-width=".5" d="M465.80078 319.45313l.99219.71875"/><path fill="#00f" fill-rule="evenodd" d="M419.3086 427.70313h8.61718v-10.14454h-8.61719v10.14454"/><path fill="azure" fill-rule="evenodd" d="M421.14063 419.39063h.83203v2.82421h3.28515v-2.82421h.83594v6.48046h-.83594v-2.91796h-3.28515v2.91796h-.83204v-6.48046"/><path fill="#ff3030" fill-rule="evenodd" d="M437.7539 409.94922h7.69532v-10.14453h-7.69531v10.14453"/><path fill="azure" fill-rule="evenodd" d="M439.58594 401.63672h.83594v5.73828h3.1914v.74219h-4.02734v-6.48047"/><path fill="#ff3030" fill-rule="evenodd" d="M295.72656 405.51172h7.69531v-10.14453h-7.6953v10.14453"/><path fill="azure" fill-rule="evenodd" d="M297.5586 397.19922h.83593v5.73828h3.1914v.74219h-4.02734v-6.48047"/><path fill="#00f" fill-rule="evenodd" d="M370.48438 396.63281h8.62109v-10.14453h-8.6211v10.14453"/><path fill="azure" fill-rule="evenodd" d="M372.3164 388.32031h.83594v2.82422h3.28516v-2.82422h.83203v6.48047h-.83203v-2.91406h-3.28516v2.91406h-.83593v-6.48047"/><path fill="#ff3030" fill-rule="evenodd" d="M189.20703 383.32031h7.6914v-10.14844h-7.6914v10.14844"/><path fill="azure" fill-rule="evenodd" d="M191.03906 375.00781h.83594v5.73828h3.1914v.7422h-4.02734v-6.48048"/><path fill="#ffffe0" fill-rule="evenodd" d="M434.94922 443.11328h22.17969v-10.1914h-22.1797v10.1914"/><path fill-rule="evenodd" d="M438.44922 434.7539h.50781v6.29688h-.78515v-4.48828h-1.39063v-.5586l.5625-.0625.25-.05468.23047-.08985.20312-.14062.17579-.21094.14062-.29297.10547-.39843m4.8125 0l.23047.01953.21875.0586.20703.08593.19531.1211.1875.15234.17188.17578.30078.41797.24219.49218.17968.54688.11328.58203.03516.58984-.03516.59375-.11328.58204-.17969.55468-.24218.5039-.30078.42579-.17188.17969-.1875.15234-.19531.125-.20703.09375-.21875.05469-.23047.01953-.23047-.01953-.21875-.05469-.20703-.09375-.19531-.125-.1836-.15234-.17187-.17969-.30078-.42578-.2461-.5039-.17969-.5547-.10937-.58203-.03906-.59375h.83203l.03125.5625.08203.50391.125.44531.16016.375.1914.30078.21094.21875.22266.13672.22656.04688.22656-.04688.22266-.13672.21094-.21875.1914-.30078.16406-.375.125-.44531.08204-.5039.02734-.5625-.02735-.5625-.08203-.5-.125-.4336-.16406-.36719-.1914-.29297-.21094-.21484-.22266-.1289-.22656-.04688-.22656.04687-.22266.12891-.21094.21484-.1914.29297-.16016.36719-.125.4336-.08203.5-.03125.5625h-.83203l.03906-.58985.10938-.58203.17968-.54688.2461-.49218.30078-.41797.17187-.17578.1836-.15235.1953-.1211.20704-.08593.21875-.0586.23047-.01952m4.95312 0l.23047.01953.21875.0586.20703.08593.19532.1211.1875.15234.16796.17578.3047.41797.24218.49218.17969.54688.10937.58203.03906.58984-.03906.59375-.10937.58204-.17969.55468-.24219.5039-.30469.42579-.16796.17969-.1875.15234-.19532.125-.20703.09375-.21875.05469-.23047.01953-.23046-.01953-.21875-.05469-.20704-.09375-.1953-.125-.1836-.15234-.17188-.17969-.30469-.42578-.24218-.5039-.17969-.5547-.10938-.58203-.03906-.59375h.83203l.03125.5625.07813.50391.1289.44531.16016.375.1914.30078.21094.21875.22266.13672.22656.04688.22657-.04688.22265-.13672.21094-.21875.1914-.30078.16016-.375.1289-.44531.08204-.5039.02734-.5625-.02734-.5625-.08203-.5-.1289-.4336-.16016-.36719-.19141-.29297-.21094-.21484-.22265-.1289-.22657-.04688-.22656.04687-.22265.12891-.21094.21484-.1914.29297-.16017.36719-.1289.4336-.07813.5-.03125.5625h-.83203l.03906-.58985.10938-.58203.17969-.54688.24219-.49218.30468-.41797.17188-.17578.1836-.15235.1953-.1211.20704-.08593.21875-.0586.23046-.01952m4.95313 0l.38672.03125.35937.08203.32031.13672.28125.1875.23047.23437.17188.28516.10937.33203.03907.3789-.02344.27344-.05469.23438-.08984.20312-.10938.16797-.1289.14453-.14063.1211-.28906.19921.23437.1172.20704.14843.18359.16797.15234.19531.125.21485.08985.23046.05468.2422.01954.2539-.03516.3125-.10156.32422-.17188.32421-.24219.3086-.30468.26953-.375.21484-.21094.07813-.23047.0625-.24219.03906-.26172.01172-.2578-.01172-.2422-.03906-.22656-.0625-.20312-.07813-.35938-.21484-.28906-.26953-.22266-.3086-.15625-.32421-.09375-.32422-.03125-.3125h.83203l.02735.2539.07812.23438.1211.21484.16015.1836.19531.15234.21875.11328.2422.07422.2539.02344.2539-.02344.2422-.07422.21874-.11328.1914-.15234.16407-.1836.1211-.21484.07812-.23438.02734-.2539-.02734-.25-.07813-.23438-.12109-.21484-.16406-.1836-.1914-.15234-.21876-.11328-.24219-.07422-.2539-.02344-.2539.02344-.2422.07422-.21875.11328-.1953.15235-.16016.18359-.1211.21484-.07812.23438-.02735.25h-.83203l.01953-.25.0547-.24219.08983-.22266.125-.21093.15235-.1875.1836-.17188.20702-.15625.23047-.1289-.28515-.19922-.14063-.1211-.1289-.14453-.10938-.16797-.08984-.20312-.0586-.23438-.01953-.27344h.78906l.01954.21485.0664.1914.10547.16407.13672.14062.16406.11328.1914.08204.20313.04687.22266.01953.21875-.01953.20703-.04688.1914-.08203.16407-.11328.13672-.14062.10547-.16406.0625-.19141.02343-.21485-.02343-.21484-.0625-.1914-.10547-.16407-.13672-.14062-.16406-.11328-.19141-.08204-.20703-.04687-.21875-.01953-.22266.01953-.20312.04688-.1914.08203-.16407.11328-.13672.14062-.10547.16406-.0664.19141-.01954.21485h-.78906l.03906-.37891.10938-.33203.17187-.28516.23047-.23437.27735-.1875.32421-.13672.35938-.08203.38672-.03125"/><path fill="#ffffe0" fill-rule="evenodd" d="M315.11328 337.99219h22.17969v-10.1914h-22.17969v10.1914"/><path fill-rule="evenodd" d="M318.61328 329.63281h.50781v6.29297h-.78515v-4.48828h-1.39063v-.55469l.5625-.0664.25-.0547.23047-.08593.20313-.14453.17578-.20703.14062-.29688.10547-.39453m4.8125 0l.23047.01953.21875.0547.20703.08983.19922.1211.1836.14844.17187.17578.30078.42187.24219.49219.17969.54688.11328.57812.03515.58984-.03515.59375-.11329.58594-.17968.55469-.24219.5-.30078.42969-.17188.17968-.18359.15235-.19922.125-.20703.08984-.21875.0586-.23047.01953-.22656-.01954-.21875-.05859-.21094-.08984-.19531-.125-.1836-.15235-.17187-.17968-.30078-.4297-.2461-.5-.17968-.55468-.10938-.58594-.03906-.59375h.83203l.03125.56641.08203.5039.125.44141.16406.375.1875.30078.21094.22266.22266.13672.22656.04687.22656-.04687.22266-.13672.21094-.22266.1914-.30078.16407-.375.125-.4414.08203-.50391.02734-.5664-.02734-.5586-.08203-.5-.125-.4375-.16407-.36719-.1914-.28906-.21094-.21484-.22266-.13282-.22656-.04296-.22656.04296-.22266.13282-.21094.21484-.1875.28906-.16406.36719-.125.4375-.08203.5-.03125.5586h-.83203l.03906-.58985.10938-.57813.17969-.54687.24609-.49219.30078-.42187.17188-.17578.18359-.14844.19531-.1211.21094-.08984.21875-.05469.22656-.01953m5.09375 0h.50781v6.29297h-.78515v-4.48828h-1.39063v-.55469l.5586-.0664.2539-.0547.23047-.08593.20313-.14453.17187-.20703.14453-.29688.10547-.39453m2.82031 2.17578h.78907l.01953-.3164.0586-.28516.10155-.2539.13672-.21485.1836-.17578.22265-.1289.26563-.07813.3086-.02735.23827.01954.22266.0625.20312.10156.1797.14062.14843.17188.11328.20703.07031.23438.02735.26562-.02344.26953-.0664.22266-.10938.1914-.15625.17188-.19922.16406-.2461.16406-.63671.39063-.53516.3125-.4375.3164-.34766.32422-.26171.33594-.19141.35156-.125.3672-.07031.39452-.01954.41797h4.21094v-.73828h-3.33203l.08203-.28516.11328-.23828.14844-.19922.1875-.17968.23047-.17188.28125-.17578.71484-.41797.41797-.20312.34375-.23047.28125-.2539.21875-.26563.16406-.27735.11329-.28515.0625-.28516.01953-.28125-.04297-.38281-.11719-.34766-.1914-.3086-.25-.26171-.30079-.21485-.34765-.15625-.3789-.09765-.40626-.03516-.4375.03125-.39844.10156-.35156.16407-.30469.23437-.25.30469-.1875.375-.11328.44531-.04297.51953"/><path fill="#ffffe0" fill-rule="evenodd" d="M221.91016 350.14453h22.17968v-10.1914h-22.17968v10.1914"/><path fill-rule="evenodd" d="M225.40625 341.78516h.51172v6.29687h-.78906v-4.49219h-1.38672v-.55468l.5586-.0625.2539-.0547.22656-.08983.20313-.14063.17578-.21094.14062-.29297.10547-.39843m4.8164 0l.22657.01953.21875.05469.21094.08984.1953.1211.1836.15234.17188.17578.30078.41797.2461.49218.17968.54688.10938.57812.03906.59375-.03906.59375-.10938.58204-.17969.55468-.2461.5-.30077.42969-.17188.17969-.1836.15234-.1953.125-.21094.08985-.21875.05859-.22656.01953-.23047-.01953-.21875-.0586-.20703-.08984-.19922-.125-.1836-.15234-.17187-.17969-.30078-.42969-.24219-.5-.17969-.55469-.11328-.58203-.03906-.59375h.83594l.02734.5625.08203.50391.125.44531.16406.375.19141.30078.21094.21875.22265.13672.22657.04688.22656-.04688.22266-.13672.21093-.21875.1875-.30078.16406-.375.125-.44531.08204-.5039.03125-.5625-.03125-.5625-.08203-.5-.125-.4336-.16407-.36719-.1875-.29297-.21094-.21484-.22265-.1289-.22656-.04688-.22657.04687-.22265.12891-.21094.21484-.1914.29297-.16407.36719-.125.4336-.08203.5-.02734.5625h-.83594l.03906-.59376.11328-.57812.17969-.54688.24219-.49218.30078-.41797.17187-.17578.1836-.15235.19922-.1211.20703-.08983.21875-.0547.23047-.01952m5.08984 0h.50781v6.29687h-.78515v-4.49219h-1.38672v-.55468l.5586-.0625.25-.0547.23046-.08983.20313-.14063.17578-.21094.14062-.29297.10547-.39843m2.82422 2.17578h.78516l.01953-.3164.0625-.28517.09765-.2539.14063-.21485.17969-.17187.22265-.1289.26563-.08204.30859-.02734.23828.02344.22266.0625.20312.10156.17969.13672.14844.17187.11328.20703.07422.23438.02344.26562-.01954.26954-.0664.22265-.10938.19531-.15625.16797-.20312.16406-.2461.16407-.6328.39062-.53907.3125-.4375.3164-.34375.32423-.26563.33594-.1914.35156-.125.3711-.0664.39062-.02345.42187h4.21485v-.74219H238.875l.08594-.28515.11328-.23438.14844-.20312.1875-.17969.23047-.17188.27734-.17578.71875-.41406.41406-.20703.34766-.23047.27734-.25.22266-.26953.16015-.27734.11328-.28516.0625-.28516.01954-.28125-.03907-.3828-.12109-.34767-.1914-.30859-.25-.26172-.30079-.21094-.34375-.16015-.38281-.09766-.40625-.03515-.4336.03515-.39843.09766-.35547.16797-.30469.23437-.25.30078-.1836.375-.11718.44532-.03906.51953"/></g></defs><use xlink:href="#aJ"/></svg>