<svg xmlns="http://www.w3.org/2000/svg" role="img" xmlns:xlink="http://www.w3.org/1999/xlink" viewBox="142.45 309.95 326.84 171.84"><defs><clipPath id="a"><path d="M144 311.67188h1v168.65625h-1zm0 0"/></clipPath><clipPath id="b"><path d="M144 480h1v.32813h-1zm0 0"/></clipPath><clipPath id="c"><path d="M144 311.67188h324v168.65625H144zm0 0"/></clipPath><clipPath id="d"><path d="M429 476h7v4.32813h-7zm0 0"/></clipPath><clipPath id="e"><path d="M430 478h5v2.32813h-5zm0 0"/></clipPath><clipPath id="f"><path d="M457 479h4v1.32813h-4zm0 0"/></clipPath><clipPath id="g"><path d="M467 311.67188h1v168.65625h-1zm0 0"/></clipPath><clipPath id="h"><path d="M144 480h4v.32813h-4zm0 0"/></clipPath><clipPath id="i"><path d="M147 480h2v.32813h-2zm0 0"/></clipPath><clipPath id="j"><path d="M146 480h2v.32813h-2zm0 0"/></clipPath><clipPath id="k"><path d="M153 479h9v1.32813h-9zm0 0"/></clipPath><clipPath id="l"><path d="M160 479h3v1.32813h-3zm0 0"/></clipPath><clipPath id="m"><path d="M159 479h2v1.32813h-2zm0 0"/></clipPath><clipPath id="n"><path d="M166 480h9v.32813h-9zm0 0"/></clipPath><clipPath id="o"><path d="M173 480h3v.32813h-3zm0 0"/></clipPath><clipPath id="p"><path d="M180 479h8v1.32813h-8zm0 0"/></clipPath><clipPath id="q"><path d="M187 479h2v1.32813h-2zm0 0"/></clipPath><clipPath id="r"><path d="M186 480h2v.32813h-2zm0 0"/></clipPath><clipPath id="s"><path d="M193 479h9v1.32813h-9zm0 0"/></clipPath><clipPath id="t"><path d="M200 479h3v1.32813h-3zm0 0"/></clipPath><clipPath id="u"><path d="M199 479h2v1.32813h-2zm0 0"/></clipPath><clipPath id="v"><path d="M206 479h9v1.32813h-9zm0 0"/></clipPath><clipPath id="w"><path d="M213 480h3v.32813h-3zm0 0"/></clipPath><clipPath id="x"><path d="M212 480h2v.32813h-2zm0 0"/></clipPath><clipPath id="y"><path d="M220 479h8v1.32813h-8zm0 0"/></clipPath><clipPath id="z"><path d="M227 480h2v.32813h-2zm0 0"/></clipPath><clipPath id="A"><path d="M226 480h2v.32813h-2zm0 0"/></clipPath><clipPath id="B"><path d="M233 479h8v1.32813h-8zm0 0"/></clipPath><clipPath id="C"><path d="M240 480h2v.32813h-2zm0 0"/></clipPath><clipPath id="D"><path d="M246 479h9v1.32813h-9zm0 0"/></clipPath><clipPath id="E"><path d="M253 480h3v.32813h-3zm0 0"/></clipPath><clipPath id="F"><path d="M260 479h8v1.32813h-8zm0 0"/></clipPath><clipPath id="G"><path d="M267 479h2v1.32813h-2zm0 0"/></clipPath><clipPath id="H"><path d="M273 479h8v1.32813h-8zm0 0"/></clipPath><clipPath id="I"><path d="M280 479h3v1.32813h-3zm0 0"/></clipPath><clipPath id="J"><path d="M286 479h9v1.32813h-9zm0 0"/></clipPath><clipPath id="K"><path d="M293 479h3v1.32813h-3zm0 0"/></clipPath><clipPath id="L"><path d="M300 479h8v1.32813h-8zm0 0"/></clipPath><clipPath id="M"><path d="M306 479h2v1.32813h-2zm0 0"/></clipPath><clipPath id="N"><path d="M313 479h8v1.32813h-8zm0 0"/></clipPath><clipPath id="O"><path d="M319 480h2v.32813h-2zm0 0"/></clipPath><clipPath id="P"><path d="M326 479h9v1.32813h-9zm0 0"/></clipPath><clipPath id="Q"><path d="M332 479h2v1.32813h-2zm0 0"/></clipPath><clipPath id="R"><path d="M340 479h8v1.32813h-8zm0 0"/></clipPath><clipPath id="S"><path d="M345 479h3v1.32813h-3zm0 0"/></clipPath><clipPath id="T"><path d="M353 478h8v2.32813h-8zm0 0"/></clipPath><clipPath id="U"><path d="M368 476h5v4.32813h-5zm0 0"/></clipPath><clipPath id="V"><path d="M382 476h3v4.32813h-3zm0 0"/></clipPath><clipPath id="W"><path d="M396 476h2v4.32813h-2zm0 0"/></clipPath><clipPath id="X"><path d="M406 479h9v1.32813h-9zm0 0"/></clipPath><clipPath id="Y"><path d="M419 479h9v1.32813h-9zm0 0"/></clipPath><clipPath id="Z"><path d="M425 479h3v1.32813h-3zm0 0"/></clipPath><clipPath id="aa"><path d="M433 479h8v1.32813h-8zm0 0"/></clipPath><clipPath id="ab"><path d="M440 479h2v1.32813h-2zm0 0"/></clipPath><clipPath id="ac"><path d="M446 479h8v1.32813h-8zm0 0"/></clipPath><clipPath id="ad"><path d="M453 480h2v.32813h-2zm0 0"/></clipPath><clipPath id="ae"><path d="M459 479h9v1.32813h-9zm0 0"/></clipPath><clipPath id="af"><path d="M465 479h2v1.32813h-2zm0 0"/></clipPath><clipPath id="ag"><path d="M144 466h4v2h-4zm0 0"/></clipPath><clipPath id="ah"><path d="M144 453h4v2h-4zm0 0"/></clipPath><clipPath id="ai"><path d="M466 451h2v3h-2zm0 0"/></clipPath><clipPath id="aj"><path d="M144 440h4v1h-4zm0 0"/></clipPath><clipPath id="ak"><path d="M466 438h2v3h-2zm0 0"/></clipPath><clipPath id="al"><path d="M144 425h4v4h-4zm0 0"/></clipPath><clipPath id="am"><path d="M144 413h4v2h-4zm0 0"/></clipPath><clipPath id="an"><path d="M465 410h3v2h-3zm0 0"/></clipPath><clipPath id="ao"><path d="M144 398h4v5h-4zm0 0"/></clipPath><clipPath id="ap"><path d="M466 398h2v2h-2zm0 0"/></clipPath><clipPath id="aq"><path d="M144 385h4v5h-4zm0 0"/></clipPath><clipPath id="ar"><path d="M466 385h2v3h-2zm0 0"/></clipPath><clipPath id="as"><path d="M144 371h4v5h-4zm0 0"/></clipPath><clipPath id="at"><path d="M465 371h3v2h-3zm0 0"/></clipPath><clipPath id="au"><path d="M144 360h4v1h-4zm0 0"/></clipPath><clipPath id="av"><path d="M465 357h3v2h-3zm0 0"/></clipPath><clipPath id="aw"><path d="M144 346h4v3h-4zm0 0"/></clipPath><clipPath id="ax"><path d="M144 330h3v7h-3zm0 0"/></clipPath><clipPath id="ay"><path d="M466 332h2v3h-2zm0 0"/></clipPath><clipPath id="az"><path d="M144 317h3v7h-3zm0 0"/></clipPath><clipPath id="aA"><path d="M466 319h2v3h-2zm0 0"/></clipPath><g id="aB" clip-path="url(#clip1)"><path fill="#fff" fill-opacity="0" fill-rule="evenodd" d="M0 0h1000v1000H0zm0 0"/><path fill="#d3d3d3" fill-opacity="0" fill-rule="evenodd" d="M162.15234 355.86719l-.23437.29297.0586.23437.11718.17188.17578.23437.29297.34766.11328.0586.11719-.17188.0586-.23438.17577-.17578.46485-.17578h.69922l.23437.29297.28906.8164.0586.17579.17578.23046.35156.23438.69922.69922.17188.17578.23437.34765.23438.41016.28906.58203.41015.46485.23047.23437.23438.17578.11719.23047.17578.29297.17187 1.16406v.23438l.0586.28906.05859.11719.11719.11719.34765.41015.11719.17188.17578.17578.17578.23437.11719.17188.17188.35156.05859.23438.23437.40625.23438-.0586-.17578.17578-.0586.92969h-.58203l-.23437-.11328-.34766.11328-.11719.11719-.05859.29297-.0586.17578-.11718.17187-.46484.29297-.0586.23438-.0586.11328v.64453l.0586.17187v.41016l.0586.0586v.40624l.05859.40625.11719.17579.05859.05859.23047.64062-.0586.29297v.69922l-.05859.58203v.23438l-.0586.23047-.05468.35156v1.92187l.05469.1172h.42578l-.36719.11718-.02344.35156.89063 1.16797 1.74219.53906 1.33984.35938v.53906l.08984.8086.53516.71484 1.51953.26953.89063-.08594.08984 1.16406.53516.1797 1.16015-.1797 2.05469-.98437 1.16016-.36328 1.8789-.17578 1.69531-.1797-.17968.71876-1.51563.08594-1.25.08984-.80469.26953-1.07421.8086.26953.71875.53515.89843-.17968.625-.26563.8086.26563 1.07812.625.89844.80468.17969 1.25-.1797-.26562.72267.09766.5039.05468.29297v.17188l.0586.29296v.40625l.17578.1172.35156.11718h.40625l.29297-.17578.11328-.11719.0586-.11719.11718-.23047.0586-.17578.35156-.46484.23047-.17578.17578-.0586.17578.0586.0586.17578.11718.98828.05469.46875.0586.17188.11718.23437.17578.0586.8164.05859h.28907l.11719.23437.05859.40625.0586.35156v1.10547l.11718.29297.11719.34766.28906.69922.17578.35156.58203.7539.35157.17579.17187.0586.46875.23437.64063.46484.34765.23438.29297.17578.29297.05468.23047.0625.8164.34766.29297.17578.11328.17188.35157.35156.11719.17578.52343.64063v.28906l.0586.35156v.34766l.05859.35156.0586.28906.11718.0586.17188.05859h.17578l.58203.23437.17578.1172.17578.28905.17578.23438.11328.23437.29297.23047.11719.11719v.41016l.0586.05468.28906.23438.23437.11719.0586.11718.11718.17188.0586.11719.23047.23437.05859.17578.23437.0586.1172.05859-.1172.11328-.05859.11719v.11719l-.11719.29296-.11719.28907v.58203l.17579.11719.11718.05859.0586.11719.11719.11719.11328.05859.17578.34765.0586.35157.05858.40625v.17578l-.05859.17578-.11719.69922v.17187l.1172.17579.29296.29296h.40625l.17578.1172.11719.17187.11719.29296v.23438h-.52735l-.23047-.23438h-.23437l-.17578.0586-.0586.69922.0586.34765.11719.17579.17578.41015.11718.23047.28907.46875.17578.05469h.52344l.23437.0586.75781.64062.0586.29296v.23438l.05859.0586.23047.34765v.35156l-.11719.17188v.29297l.29297.28906.29297.17578.17187.0586.29297.17577.29297.1172.58203.40624.28906.23438.29297.17578.21875.16015.01563.01172.23047.17579.64062.52343.17578.23438.1172.17578.17577.17578.11328.17188v.64062l.1172.17578.46874.11719.58203.11719.23438.05859.23047.11328.29297.11719.11328.0586.58593.35156.28907.17187.17578.0625.17578.05469.17578.0586.69922.35155.28906.17579.23438.05468.28906.17578.23437.1172.64063.40624.29297.11719.17187.0586.23438.05859.41015.05859.23047.0586.23438.11718.0586.17188-.41017.17578.46875.0586.0586.29296.11328.23438.17578.05468.23438.0586.17578.05859.40625.11719.64062.23437.11719.17188.0586.23437v.17578l-.0586.1172-.0586.40624.23438.23438.11719.05859.34766.11719.64062.23047.17578.11718.28906.1172.17578.17577.23438.46485.58203 1.10546.17578.17579.34766.17578.17578.11719.35156.11718 1.04688.52344.23437.0586.46485.11327.29297.0586.46484.17578.75781.58203.23438.23438.34765.46484.17578.17578.28907.23438.8164.69921.29297.17579.28906.28906.29297.17578.29297.28906.69531.64063.17578.17578.29297.23437.28907.23438.46875.28906.64062.58203.34766.23438.23437.29297.34766.34765.35156.46485.9336.99218.34765.40625.11719.17579.23437.05859.11328.11719.64454.17578.23047.11328.23437.0586.29297.17577.23047.1172.9336.69921.40624.40625.23438.17578.40625.17578.23437.11719.8164.34766.34766.23437.23438.11719.29297.28906.23047.11719.7578.35156.35157.17188.23047.05859.29297.11719.23437.0586.8711.17577h.8164l.46875.23047.17188.0586.875.69921.46484.1172.29297.05858.17578.0586.23047.0586.46875.05859.34766.05859.35156.0586.40625.05859h.29297l.17187.0586v.23046l.17578.17578h.29297l.34766.0586.35156.05859.69922.11719h.64063l.46484-.23438.29297-.17578.17187-.11719.41016-.17187.28906-.17578.9336-.46485.46875-.29297.52343-.29296.46485-.17188.46484-.17578 1.05078-.46485.28906-.11718.41016-.11719.28906-.11719.52735-.17578 1.51562-.69922.58203-.34765.28907-.0586.29297-.0586.34765-.11718.875-.23047.35156-.11719h.11329l.23437-.05859.875-.23437.23438-.0586h.8125l.35156-.0586.8164-.11718.17188-.0586.35156-.05468.29297-.0586.23047-.05859.8164-.17578.17579-.0586h.34765l.23438-.05859.46484-.11718.75781-.17188.23438-.0586h.34765l.41016-.11718.28906-.0586 1.28516-.05859h.28906l.41016-.0586.23047-.05858h.17578l.875-.1172h.40625l.41015-.11718h.34766l.35156-.11328.8711-.0586h1.75l1.04687.28907.41016.11719.28906.11718.35156.11719.28907.11719 1.05078.17187.28906.0586h.29297l.29297.05859.17187.0586.41016.05859.17187.0586.1172.05858h.11718l.11719.0586.35156.0586h.11328l.41016.0664 1.92187.39453 1.92578.39453 1.51953.44922 1.69532.71875 2.14453.80469 1.60547-.71875 1.42968-.80469 1.16016-1.07813 1.25-.44921 3.03516-.71875 1.875-.35938 2.14453-1.34765 2.23437-1.25391 2.5-1.25781 1.69531-.44922 1.78516-.17969 1.16016-.26953.625.53906 1.33984-.26953.71485-.98828.98437-1.34375.44531-.17969.80469-.35937 1.875-.53907 1.78516-.44921 1.25-.26954 1.16015-.08984 1.69922-.08984 1.96094-.26954 1.25-.08984h.53906l.625-.08984h.89063l2.14453-.17969 2.41015-.17969 2.58985-.08984 1.69531.17969 1.60938.08984 1.42968.35938 1.16016.71875 1.875.98828 1.16015 1.52734.26563.71484.6289.08985.35548.89844.53515.53906.53516 1.52734 1.07422.35938h.53515l-.80469.53515.08985 1.70703.71484 2.69532.89063.80468.89453.98829.71484 1.2578 1.78516.53907 1.51953-.17969.35547 1.34375 1.60937-.80469.98047-.53906.26953.26953.31641-.21484.21875-.14453.80078.44922.44922-.35938h.35547l.53515-.26953.53907-.71875.53515-.26953.625-.98828 1.16016.44922.83984.3711 1.39454.61718 1.6953-.17969h1.60548l1.78515.08985.17969-1.70704.53516-1.34375.80468.26954.4922.84765.40233.40625-.08984.53906v.35938l.71485.44922.71093-.26953h1.42969l.35938.98828.4453 1.25781.71485 1.34375 1.25.6289 1.69531.62891.71485-.17969.17969-.53906.98046-.08984.44922.35937.08594 1.25782-.26563.6289-.53515.17969v.53906l.71484.98438.26563.53906.98437.98828.80078 1.07813-.26562.35937-.08985.89844-.625 2.33203-.35546 2.0664-.08985 1.79298-.17969.71875-.08984.53906v1.4375l-.98047 1.88281-.35937 1.70703-.53516.89844-.80469 1.16797-.26562.53906 2.05469 1.2539.08593.35938-.35546.53906-.08985-.17968v.80859l.08985 1.4375-.44532.71484-1.07422.09375-.26562.71485.53515.89844.8047.71875 1.16015.80859 1.33984.26953.44531.35938-.35546.44921-1.78907-.08984-1.25-.44922-.71484-.71875-.625-.08984-.17578 3.58984-.1875 1.3086h89.35937V311.70313h-55.26953v49.08203l.76172.125 3.28906.54296 2.02344 2.83594v2.7539l2.35156.33204 2.34766.33203h4.05078l-1.3789 4.16016-2.02344.70703-2.02344.70312-.54297.34375-2.59375 1.6172-.1875.11718-2.02344-2.07813-.73046-2.74218-2.67188-2.07813-1.375-3.5-.0664-.08203-1.95704-2.67188 2.75-1.41796v-49.08204H294.42187v91.41407l.1172.03125.1328.01172.07422.07421.10547.04688.08985.0586.08593.05859.08985.0586.29687.29687.0586.08984.03125.11719.02734.11719.01563.13671-.03125.1172-.0586.08983-.0586.08594-.04296.10547-.04688.10156-.02734.1211v.14453l.17578.26953.14844.14844.07422.08594.07422.07421.04296.10547.0625.08985.0586.08593.04297.10547.0586.08985.04687.10156.04296.10547.0586.08594.11719.17968.07421.07422.0625.08594.0586.08984.04297.10547.0586.08985.05858.08593.0625.08985.0586.08984.04297.10156.11719.17969.07421.07422.0586.08594.07422.07421.08984.0586.10547.04687h.14844l.1328-.01562.13282.01562.10156-.04687.07422-.07422.04688-.10156-.01563-.13281v-.14844l-.04687-.10547-.02735-.11719-.04687-.10156-.02735-.1211-.04296-.10156-.0625-.08984-.04297-.10156-.04297-.10547-.03125-.11719-.01563-.13281-.01171-.13672.08593-.0586.0586-.08593.12109-.03125.04297.10547.01562.1328v.1172l.0586.10156.0586.08984.08983.0586.14844.14843.0586.08985.04296.10547-.01171.10156.08593.0586.10547.04687.08594.0586.08984.05858.07422.07422-.11719.02735-.10546.04687-.08594.0586-.07422.07421-.0586.08985-.0625.08594-.02734.12109-.04687.10156-.04297.10547-.03125.11719-.01172.13281-.01563.13281v.14844l.02735.11719.04687.10547.04297.10156.0586.08984.07421.07422.08985.0586.07422.07421.08984.0586.0586.08984.04296.10547.04688.10156.11719.03125.1328.01563h.14845l.11718-.03125.10547.04297.04297.10547.04688.10156.02734.1211L299.5 410l.02734.11719.03125.1211.02735.11718.10547.04297.10156.04687.13281-.01562.14844.14844.0625.08593.07422.07422.07031.07422.08984.0625.10547.04297.10156.04297.1172.03125.13671.01562.11719-.03125.07422-.07422.02734-.11718-.01172-.13282-.03125-.12109-.02734-.11719.04297-.10547h.11719l.08984.0625.11719.02735h.14843l.13282.01562h.14843l.13282.01563.1328-.01563h.14845l.1328-.01562.13282-.01172.13672.01172.11719-.02735.13281-.01562.1914-.0586-.05859.17579-.01562.1328-.02735.1211-.01562.13281-.0586.08594-.1328.01563-.10548.04687-.10546.04297-.1172.03125-.11718.02735-.26563.03125h-.14843l-.13281.01562-.07422.07422.05859.08594.14844.14843.11719.1797.07421.0703.08985.0625.08984.0586.08594.0586.08984.05858.10156.04297.10547.0625.10547.04297.08594.0586.10547.04687.10156.04297.17969.11719.0586.08984-.04298.10156-.04687.10547.01562.13281.22266.22266.0586.08985.04296.10156.03125.1211.04297.10155.01563.13282.03125.11718.01171.13672.03125.11719.14844.14844.10156.04297.10547.04296.1172.03125.1328.01563.13672.01563h.11719l.11719-.03125.08984-.0586.04297-.10547.04688-.10156.04296-.10547.03125-.11719.01172-.1328v-.14845l-.01172-.1328-.01562-.13282-.03125-.11719-.04297-.10547-.04688-.10547-.04296-.10156-.04297-.10547-.01563-.13281.01563-.13281.02734-.11719.03125-.11719.02735-.1211.04687-.10155.08984-.0586.08594-.0625.07422-.07422.08984-.05859.22266-.22266.0586-.08593.07421-.07422.11719-.17969.0586-.08594v-.14844l-.07423-.07421-.10156-.04688-.10547-.04297-.10156-.04297-.0586-.08984-.04687-.10547-.02734-.11719.08984-.05859.11719-.03125.10156-.04297.17969-.11719.14844-.14843.01172-.13282-.01172-.10546-.08985-.0586-.1328.01563h-.14845l-.1328.01562-.13282-.01562-.1211-.03125-.08593-.0586-.07422-.07422-.0586-.08984-.0625-.08594-.11718-.17969-.0586-.08593.03125-.1211.08594-.05859.1211-.03125.05859-.08594v-.1211l-.03125-.11718-.0586-.08984-.05859-.08594-.04687-.10547-.02735-.11719-.01562-.1328.0586-.08985.07421-.07422.08984-.0586.1172-.17968.07421-.07422.0586-.08594.14843-.14844.1211-.03125.1328-.01562.13282.01562.07422.07422.04297.10547.01562.13281-.03125.1172-.11719.03124-.1328.01172-.14844.14844-.04297.10547-.04688.10156-.02734.1211-.03125.11718v.14844l.03125.11719.04297.10546.05859.08985.07422.07031.07422.07422.11719.03125.12109.02734.11719-.02734.1328-.01563h.1172l.08984.0586.07422.07422.04687.10546.0586.08594.10156.04688.13281.01562.10547.04297.08594.0586-.01172.10546-.07422.07422-.17969.11719-.05859.08984-.08984.0586-.07032.07422-.07421.07421-.0625.08985-.02735.11719-.01562.1328.01562.13282-.01562.13281v.14844l.01562.13281.02735.1172.03125.12108.07421.07422.08985.0586.08594.0586.08984.05858.11719.03125v.08594l-.10157.04688-.08984.0586-.26563.03124-.11718.02735h-.14844l-.10547.04296-.10156.04688-.0586.08984-.0625.23438-.01171.13281-.03125.1211-.01563.1328v.29298l-.01172.1328.01172.13673.01563.1328.1328.01563.13282.01172.1211.03125.08593.0586.07422.07421.04688.10547.04296.10157.01563.1328v.44532l-.01563.13281v.44532l.03125.26562.02735.11719.01562.13281.03125.11719.08594.21094.03125.26562v.14844l-.03125.11719-.02734.11718-.03125.1211-.02735.11719-.03125.11718-.03125.1211-.01171.1328-.01563.13282.08984.0586.1172-.03125.10155.01562.04688.10547-.03125.26562v.44141l-.04297.10547-.04688.10547-.04296.10156-.04297.10547-.0586.08594-.03125.12109-.04296.11719-.03125.11719-.01563.1328.01563.13282.05859.08984.10547.04688.08594.0586.05859.08593-.01172.13672-.03125.11719-.04297.10156v.44531l-.01562.13281v.14844l-.03125.11719-.04297.10547-.02735.11719-.04687.10546-.04297.10157-.03125.12109-.02734.11719-.03125.13281-.03125.11719-.02735.11719-.04297.10546-.03125.1172-.03125.12108-.01171.13282-.01563.13281v.29688l.02734.11718v.14844l.04688.39844.02734.11719.0586.08984.12109.03125h.14844l.13281-.01563.0586.08985v.11719l-.0586.08984-.08984.0586-.10157.04296-.10546.04688-.08985.05859-.08594.0586-.13671.01562-.1172-.03125-.1328-.01563-.10157.04688-.0625.08594-.01172.13671-.01562.13282-.03125.11719-.02735.11718-.01562.13281-.03125.1211v.29687l.01563.13282.03125.11718v.14844l.01171.13281v.14844l-.02734.11719-.04688.10156-.02734.1211-.03125.11718-.0586.08985-.07421.07421-.10156.04297-.10547.04688-.11719.02734-.1211.03125-.10156-.04687.0586-.08594.10547-.04688.02734-.11718.03125-.11719.02734-.1211.03125-.11718v-.14844l.01563-.13281-.03125-.11719-.04297-.10547-.10547.01563-.07422.07422-.10156.04296-.08984.0625-.07422.07422-.04297.10157-.01563.1328-.03125.1172L304.25 426l-.03125.11719-.02734.11719-.03125.12109-.02735.11719-.03125.11718-.04297.10547-.08984.0586h-.08984l-.1172-.03125-.03124-.08594.01562-.13672-.03125-.11719v-.14844l-.01171-.1328v-.14844l-.0625-.23438-.02735-.1211-.04297-.10156-.04687-.10546-.0586-.08594-.05859-.08985-.04297-.10546-.0625-.08594-.14844-.14844-.0703-.07422-.10548-.04687-.10547-.04297-.10156-.04297-.29687-.29688-.08985-.07421-.08594-.0586-.10546-.04297-.08985-.0625-.08594-.0586-.10546-.04296-.08985-.0586-.08594-.0625-.07421-.0703-.10547-.04688-.08594-.0586-.10547-.04296-.08984-.0625-.10156-.04297-.10547-.04297-.08594-.0586-.10547-.04687-.10547-.04297-.10156-.04687-.08985-.0586-.10156-.04297-.10547-.04296-.08984-.0625-.11719-.02735-.13281-.01562-.13281.01562H299.75l-.13281.01563-.11719-.03125-.08984-.0586-.07422-.07422-.08985-.05859-.10156-.04688h-.14844l-.12109-.02734-.10156-.04297-.07422-.07422-.11719-.17968-.08984-.0586-.10156-.04297-.08985-.0625-.10547-.04296-.08984-.0586-.08594-.0586-.10547-.04687-.0586-.08594-.05858-.08984-.04297-.10547-.04688-.10156-.07422-.07422-.08594-.0586-.07421-.07421-.08985-.0586-.22265-.22265-.04297-.10547-.03125-.26563.10547-.04296h.14453l.10547.04296.07421.07422.08985.0586.08594.0586.10546.04687.08985.05859.14844.14844.0703.07422.14845.14843.0625.08594.07421.07422.08594.0586.07422.07421.08985.0625.08984.0586.08594.05859.26953.17578.10156.04688.10547.04296.10156.04297.04688-.07421.05859-.08594.07422-.07422.07031-.07422.10547.04297.07422.07422.0586.08984.04296.10156.04688.10547.04296.10547.1211.02735.11719-.02735.07421-.08984.04297-.10547.0586-.08985.07422-.07421.10546-.04297.1172-.02735.1328.01172.08985.0586.14844.14843.05859.08985.04297.10547.04687.10156.04297.10547.04297.10156.10547.04688.10547.04296.13281.01563.08594-.0586.0586-.08984.07421-.07422.10547-.04297.11719.02735.10547.04687.10156.04297.10547.04297.10156.04688.17969.11718v.11719l-.01563.13281.01563.13281.01562.13672.0586.08594.10156.04688.1211.02734.11718.03125h.14844l.11719-.03125.05859-.08984.17969-.1172.05859-.08983.07422-.07422.0586-.08594.11718-.17969.17969-.11719.11719.03125.08984.0586.04297.07422-.01563.1328v.1172l.08985.05859h.14843l.13282-.01563.1328-.01171.26563-.03125.10547-.04297.11719-.03125.1211-.02735.07421-.07421.07031-.07422.0625-.08985-.01562-.10547-.04688-.10156-.10156-.04297-.10547-.01562-.11718.02734-.26563.03125h-.14844l-.07421-.07422-.08985-.0586-.11719-.03124-.11718-.02735-.13282-.01562h-.14843l-.13282.01563h-.29687l-.10547-.04688-.14844-.14844-.04297-.10156-.05859-.08984.22266-.22266.08593-.0586.10547-.04296.11719-.03125.13281-.01563.13281.01563.13672.01562.10157.04297.1328-.01172.08985-.0625.10156-.04297.0625-.08984-.04687-.10156-.08984-.0586-.1172-.03125-.10155-.04296-.0586-.08985-.0625-.08984v-.11719l.01563-.13281.10547-.04688.07421-.07031v-.1211l-.08984-.05859-.03125-.11719.08985-.05859.07421-.07422.04297-.10547.0586-.08984.04687-.10156.01563-.13281v-.14844l-.04688-.10547-.04297-.10156-.08984-.0586-.13281-.01562-.10157-.04297-.13671-.01563-.1172-.03125h-.4453l-.13282-.01562-.13281-.01172-.13281-.01563-.11719-.03125h-.14844l-.13281-.01562-.13281-.01172-.26563-.03125-.1211-.04297-.08593-.0586-.07422-.07421v-.14844l.01172-.13281.10547-.04688.10156-.04296.13281-.01563h.15235l.13281-.01562h.29297l.1211.03125.10156.04296.08984.0586.23438.0625.12109-.04688.08984-.05859.10156-.04297.13282-.01562.10547.04296.10156.04688.13281.01172.1211-.02735h.14453l.12109-.03125.11719-.02734.10547-.04687.07421-.07422.08594-.0586.14844-.14843.0586-.08594.04687-.10547.02734-.11719.01563-.10547-.10156-.04296-.08985-.0586-.11719-.03125-.10546-.04297-.08985-.0625-.07422-.08594-.07422-.07421-.10156-.04297-.10547-.04688-.10156-.04297-.0586-.08984-.04687-.10156-.08594-.21094-.0625-.08594-.05859-.08984-.07422-.07422-.08594-.0586h-.26953l-.11719.03126-.08984.05859-.10156.04297-.13281.01562-.10547-.01562-.02735-.11719-.0625-.08984-.11718-.03125-.10157-.04297-.14843-.14844-.03125-.11719-.01563-.10546.07422-.07422.17969-.1172.11719-.02733.11718-.03125.13672.01562.10156.04297.10547.04297.10156.04687.10547.04297.1172.03125.1328.01563.1172.02734.1328.01563.10547-.01563.08985-.0586-.07422-.07421-.10547-.04297-.07422-.07422-.07422-.08984-.14844-.14844-.08593-.0586-.08985-.05859-.07422-.07422-.08984-.0586-.10156-.04687-.1211-.02734-.10156-.04688-.10547-.04296-.11719-.03125-.10156-.04297-.1211-.03125h-.14843l-.11719.03125-.10546.04297-.08594.0625-.17969.11718-.08594.0586-.08984.0586-.10547.04687-.08594.05859-.10547.04297-.10156.04297-.10547.04687-.07422.07422-.05859.08985-.0586.08593-.04687.10547-.0586.08594-.07421.07422-.13281-.01172-.1172-.03125h-.11718l-.07422.07422-.08984.0586-.07422.07421-.08984.0586-.08594.05859-.10547.04687-.10156.04297-.13672.01563-.10156-.04297-.14844-.14844-.10547-.04688h-.08594l-.10547.04688-.10156.04297-.1211.03125-.11718-.03125-.07422-.07422v-.11719l.03125-.1211.07422-.0703.0586-.08985.07421-.07422.11719-.03125.10547-.04296h.29297l.13281-.01563.13672-.01563.10156-.04296.08985-.0586.10156-.04687.08984-.0586.13281-.01171.08985.05859.13281.01172.08984-.0586.08594-.05859.10547-.04297.08984-.0586.08594-.0625.08985-.05859.14843-.14843.0586-.08594.05859-.08985.10547-.04296.13281-.01563.11719.02735.1211.03125.05859-.0586.05859-.08984.03125-.26563.02734-.11719.10547.01172.13281.01563.10157-.04297.08984-.0586.0586-.08984.07421-.07422.0586-.08984.04687-.10156.01172-.13281-.01172-.13282-.04687-.10547-.14844-.14843-.0586-.08985-.05859-.08594-.04297-.10546v-.44532l.01563-.1328v-.14845l.01172-.1328-.0586-.0586-.08984.0586-.10156-.04298-.17969-.11719-.08594-.05859-.0625-.08984-.0586-.08985-.07421-.07421-.08594-.0586-.1211.03125-.10155.01172-.10547.04688-.08594.05859-.10547.04297-.14844.14844-.08984.05859-.08594.0586-.08984.0625-.10547.04296-.13281.01563v-.1211l.10547-.04297.11718-.03125.07422-.0703.04297-.10548v-.14844l-.02734-.11718-.14844-.14844-.13281-.01563h-.14844l-.11719.03125-.10547.04297-.10156.04297-.08984.0625-.11719.02735-.07422-.07422.01172-.13281-.04297-.10157-.04297-.10547-.08984-.05859-.11719.02734-.1211.03125-.11718.03125-.10156.04297-.1211.03125-.10156.04297-.10547.04297-.08984.0586-.10156.01562v-.11719l.01562-.13281-.0586-.08985-.07421.04297-.14844.14844-.0586.08985-.07421.07421-.04688.10547-.04296.10156-.07422.07422-.0586.08985-.07422.07422-.05859.08593-.07422.07422-.08984.0625-.07422.07031-.07422.07422-.10156.01563-.13281.01562-.10547-.04296v-.1211l.14843-.14844.04297-.10156.0586-.08984.04687-.10156.04297-.10547.0586-.08985.03124-.11719.04297-.10156.03125-.1211.02735-.11718.04687-.10547.04297-.10156.04297-.10547.07422-.07031.08984-.0625.08985-.0586.10156-.04296h.29687l.26563-.03125.10547-.04297-.07422-.07422-.11719-.03125-.10547-.04297-.08984-.0586-.10156-.04687-.08985-.0586-.10156-.04296-.10547-.04297-.08984-.0625-.08594-.0586-.10547-.04296-.10156-.04297-.1211-.03125-.11718-.03125-.10157-.04297L297.5 410.25l-.10156-.04297-.08985-.0586-.04296-.10546-.01563-.13281.10156-.04297.13281-.01563.13672.01563.13282-.01563.10156-.04297.0586-.08984.01562-.10547-.08985-.0586-.07421-.07421-.10157-.04297-.08984-.0586-.14844-.14843-.04297-.10547-.01562-.13281v-.29297l-.0586-.08985-.08984-.05859-.07422-.07422-.04297-.10547-.03125-.11718-.0586-.08985-.07421-.07422-.11719-.02734-.07422-.07422-.08984-.0586-.08984-.0625-.08594-.05859-.07422-.07421-.0586-.08594-.04687-.10547-.08594-.0586-.14843-.14843-.19532-.0586-.1328.01563-.10157.04297-.07422.07422-.04688.10156-.04296.10547-.0586.08984-.0586.08594-.29687.29687-.08984.0586h-.08594l-.0625-.08594-.04297-.10547.03125-.11719.0586-.08984.02734-.11719-.01172-.13281-.08984-.0625-.10547.04688-.11719.02734-.11719.03125-.26953.17578-.10156.04688-.11719.02734-.10546.04687-.08985.0586-.10156.04297-.0586-.08594-.04687-.10547.01563-.13281.04687-.10547.07031-.07422.07422-.07031.0586-.08985v-.14843l-.04297-.10547h-.23829l-.10156.04687-.03125.11719-.02734.11719-.03125.1211-.07422.04296-.13281.01563-.07422-.04688-.04297-.10156-.04297-.10547-.04687-.10156-.04297-.10547-.1211.03125-.10156.04297-.13281.01562-.11719.03125-.10547.04297-.08984.0586-.10156.04687-.1211.02734-.13281.01563-.10156-.04297-.0586-.08985-.04687-.10546-.04297-.10157-.04297-.10546v-.1172l.0586-.08984.08593-.05859.17969-.11719.10156-.04687.10547-.04297.10547-.0586.10156-.04296.08985-.0625.10156-.04297.10547-.0586.10156-.04687.08984-.0586.10547-.04296.10156-.04297.08985-.0625.10156-.04297.13672-.01563.11719.03125.10156.04297.1211.03125.10156.04297.10546.04688.10157.04296.10547.04297.10156.04688.10547.04297.10156.04297.10547.04687.08594.0586.10546.04296.1172.03125.10546.04297.10156.04688.08985.0586.10547.04296.10156.04297.10547.04687.11719.02735.10156.04687.1211.02735h.14843l.08594-.0586.01562-.10156.0586-.08984-.02735-.1172-.07422-.07421-.11719-.17969-.07421-.07422-.08985-.07421-.17969-.1172-.08593-.05859-.10547-.04296-.10156-.04688-.26954-.17578-.05859-.08985-.07422-.07421-.0586-.08985-.04296-.10156-.03125-.11719-.01563-.13672v-.5625l-.01171-.1328-.01563-.13282-.03125-.11719-.01562-.13281-.01172-.13281-.03125-.1211-.22266-.22265-.0586-.08594-.01562-.10547.03125-.11719.13281-.01562v-91.41406H172.9922v1.45312l-.0586.23438-.35156 1.05078-.17187.52343-.1172.34766-.17577.41016-.11719.17187-.23438.29297-.23046.0586h-.35157l-.11718.05859-.23047.40625v.29297l.11719.17578.23046.23047.1172.23437.64062.75781.29297.46485.17578.23437.23047.35156.23437.34766.64063.8164.17578.46485.17187.41016.11719.69531.17578.46875.11719 1.39844.0586.46484v.875l.11718 1.04688v4.78125l-.0586.46484-.35156 1.28125-.17578.52344-.11328.41015-.35156.9297L172.93359 336l-.23437.58203-.11719.17578-.17187.34766-.17578.40625-.35157.8164-.0586.29297-.11327.29297-.11719.28906-.0586.17579-.11718.875-.0586.40625-.05859.11718-.0586.17579-.05859.17187-.23047.52734-.11718.17188v.23437l-.11719.23438-.0586.17187-.17577.58594v.28906l-.0586.17579v.29296l-.0586.11329-.05859.52734v.17187l-.05468.23438v2.6211l-.17578.8164-.1172.17578-.17577.23438-.1172.17187-.11327.23438-.58594.93359-.23047.28906-.29297.46485-.17578.23437-.28906.35156-.35156.69922-.11328.23047-.17579.41016-.17578.23046-.40625.52735-.8164.69922-.29297.17187-.28906.23438-.17579.11719-.17578.17578-.52344.40625-.52734.17578-.17187.17578-.23438.05469-.64062.17578h-.75782m12.21094 31.02344l-1.07422.44921.35938.89454 1.25-.71485.44531-.53906-.98047-.08985"/><path fill="#d3d3d3" fill-opacity="0" fill-rule="evenodd" d="M201.50781 416.59766h-.89453l.44922.6289.98047.35938.80469-.08985.4453-.98828-.17577.08985-.71485-.35547-.89453.35547m154.6211 59.0703l-.0586-.52343v-.29297l.11328-.29297.0586-.23046.46875-.46875h.11328l.11719-.11329.11718-.05859h.17579l.23437-.0586h.34766l.23437.0586.11719.0586.23047.17187.0586.17578.11718.58203v.29297l-.11719.17578-.17187.28906-.17579.17579-.52734.52343-.23047.23438-.11719.0586h-.17578l-.11718-.0586-.40625-.29297-.17579-.11719-.11718-.0586-.0586-.11327-.05468-.1172m6.64062-10.95702l-.0586-.17188v-1.10937l.0586-.17188.17578-.0586.17188-.05858h.17578l.23437-.0586.1172.0586.05858.69921-.05859.17188-.11719.17578-.11718.0586-.23438.52343-.11328.0586h-.23438l-.05859-.1172m9.61328-14.39062l-.11719-.17578v-.69922l.29297-.875.1172-.17187.17577-.35156.11328-.23047.1172-.29297.35155-.75781.1172-.23047.17187-.23438h.17578l.11719-.0586h.64062l.11719.0586.23437.23438.17188.11328.35156.29297.11719.11718.11328.17579v.11328l.11719.05859.11718.11719v.69922l-.05859.17578v.23047l-.0586.17578-.34765 1.05078-.11719.23047-.11719.23437-.11718.0586-.23047.23437-.64063.28906h-.875l-.41015-.11718-.64063-.46485"/><path fill="none" stroke="#bebebe" stroke-linecap="round" stroke-linejoin="round" stroke-miterlimit="10" stroke-width=".5" d="M467.95703 311.69531H144.02734v168.625h323.9297v-168.625"/><g clip-path="url(#a)"><path fill="#fff" fill-opacity="0" fill-rule="evenodd" d="M144 475.89063v4.25-168.46875h.0039H144v164.21875"/></g><g clip-path="url(#b)"><path fill="#50fcfc" fill-rule="evenodd" d="M144.0039 480.32813v-.1797l.08204.1797h-.08203"/></g><g clip-path="url(#c)"><path fill="#fff" fill-opacity="0" fill-rule="evenodd" d="M144.0039 480.14844V311.67188h88.76173v105.6289l-3.35157.89063-1.08594.60937-4.4375.76563-4.4375-.89844-4.4375-.02735-2.51171 3.98829-1.9297 3.73437-4.4375.63672-4.4375-2.94922-3.01562-1.42187-1.42187-.39844-1.39063.39844-3.05078.41015-4.4375 2.1875-3.84375 1.84375-.59375.17969-4.4375 1.07813-3.89062 3.17968-.55078.35156L170.6289 433l-3.32813 2.94531-1.10937.41797-4.4375.76953-3.64063 3.25-.79687 4.27735-.1172.16015-3.08593 4.4414-1.23828 3.01563-2.16016 1.42188 1.5625 4.4375.59766.6289 1.10938 3.8086 3.33203 2.52734 4.4375 1.08594 4.4375-.6875 4.4375.22266 4.4375-.50782 4.4414-.38671 4.4375-.8047 2.0664-1.44921 2.3711-.85156 4.4375-.32813 4.4414-.96094 4.4375-.27343 4.4375-.57422 3.61329-1.44922.82422-.16406 4.4414-.10157 4.4375-1.4453 4.4375-.47657 4.4375-1.3711 1.3086-.8789 3.1289-2.39063 3.59375-2.04687.84766-.76563 4.4375-3.02734.5586-.64844 3.8789-.9414 3.47656-3.4961.96094-4.02344 4.4375 1.15235 4.4414.75781 2.25-2.32422-2.25-3.96484-4.4414.65234-4.4375 1.85156-4.4375-.58984-4.4375-2.09375-1.36719-.29297-3.0703-3.83984-.54298-.59766-1.84765-4.4414 1.07812-4.4375-3.1289-.89063v-105.6289h35.5078v117.05078l-3.1328 2.78515 3.1328 2.34375 3.42579-2.34375-3.42578-2.78515V311.67187h13.3164v119.6172l-.33984.21874-1.64844 4.4375 1.98828 1.8086 2.27344-1.8086-2.07812-4.4375-.19532-.21875V311.67187h93.20313v134.33985l-3.15235 3.25 3.15235 3.61328 3.08984-3.61328-3.08984-3.25V311.67187h22.1914v140.66407l-4.4375.36328-.52734 1-3.91015 1.23437-4.4375 2.66016-.6875.54297-2.96875 4.4375.4414 4.4414 2.05469 4.4375.97656 4.4375.1836.17579 1.24609-.17579 3.1914-1.46875 4.4375-2.23046.67579-.73829 1.14843-4.4375.45704-4.4414.70312-4.4375 1.45313-2.49219 1.19921-1.94531-1.19921-1.36328V311.67188h53.26171v145.4414l-1.53125 1.02344 1.53125 2.3086 1.01563-2.3086-1.01563-1.02344v-145.4414h17.75v168.65625h-7.67187l-1.19922-.81641-1.83984.8164h-21.44141l-3.35156-3.36718-3.29688 3.36719H144.08594l-.08203-.1797"/></g><path fill="#50fcfc" fill-rule="evenodd" d="M152.27734 458.13672l-1.5625-4.4375 2.16016-1.42188 1.23828-3.01562 3.08594-4.4414.11719-.16016.79687-4.27735 3.64063-3.25 4.4375-.76953 1.10937-.41797L170.62891 433l4.4375-1.14063.55078-.35156 3.89062-3.17969 4.4375-1.07812.59375-.17969 3.84375-1.84375 4.4375-2.1875v3.10156l-1.52734.9297-2.91016 1.82421-4.4375 1.08594-4.4375.77344-.92187.7539-3.51953 2.26563-4.4375 1.66406-.57422.50781-3.86328 1.45313-4.4375 1.55078-1.60547 1.4336-2.28516 4.4375-.42969 4.4414-.11718 1.20703-1.4961 3.23047.3164 4.4375 1.1797 2.25.89453 2.1875 3.54297 2.07422 4.4375-1.98438 4.4375.8711 3.4375-.96094 1-.15235 4.4414-.59375 4.4375-.7578 4.4375-1.87891 4.4375.01562 2.52735-1.07031 1.91406-.71485 4.4375-.36718 4.4375-.48438 4.4375-.98828 4.4414-.86719 1.77735-1.01562 2.66016-2.03906 4.4375-.34375 4.4375-1.63672.51171-.41797-.51172-.48047-4.4375-1.89844-1.9453-2.0625-2.4922-2.60547-2.2578-1.83203-1.625-4.4375-.5547-.86719-4.4414-1.52343-4.4375-1.84375-.27734-.20313-4.16016-2.1836-4.4375-1.0625-2.61719-1.1914-1.82422-.92969v-3.10156l3.05078-.41015 1.39063-.39844 1.42187.39844 3.01563 1.42187L206.13672 427l4.4375-.63672 1.92969-3.73437 2.51172-3.98829 4.4375.02735v4.71094l-2.35157 3.6914 2.35156 2.41797 4.4375.3164v5.66016l-.72656.48047.72656.41797 4.4375 3.55469.29297-3.97266-.29297-.39453-4.4375-.08594v-5.66015l2.25391 1.70312 2.1836 1.4414 2.23437 2.9961 2.20313 2.20313v1.9375l-3.97657.29687 3.97656.98828.96485-.98828-.96484-.29687v-1.9375l4.4414.9414 1.20703 1.29297 3.23047 2.4961 4.4375-.85547 1.6289-1.64063-1.6289-2.28125-2.28906-2.15625-2.14844-1.82031-4.4375-.85156-2.57422-1.76563-1.86719-1.91797-4.4375-1.59375-.60937-.92578-3.82813-2.625-4.4375-1.0664v-4.71094l4.4375.89844 4.4375-.76563 1.08594-.60937 3.35156-.89063 3.12891.89063-1.07812 4.4375 1.84765 4.4414.54297.59766 3.07031 3.83984 1.3672.29297 4.4375 2.09375 4.4375.58985 4.4375-1.85157 4.4414-.65234 2.25 3.96484-2.25 2.32422-4.4414-.75781-4.4375-1.15235-.96095 4.02344-3.47656 3.4961-3.8789.9414-.5586.64844-4.4375 3.02734-.84766.76563-3.59375 2.04687-3.1289 2.39063-1.3086.8789-4.4375 1.3711-4.4375.47656-4.4375 1.44531-4.4414.10157-.82422.16406-3.61328 1.44922-4.4375.57422-4.4375.27343-4.4414.96094-4.4375.32813-2.3711.85156-2.0664 1.44922-4.4375.80469-4.44141.38671-4.4375.50782-4.4375-.22266-4.4375.6875-4.4375-1.08594-3.33203-2.52734-1.10938-3.8086-.59766-.6289"/><path fill="#00e8fc" fill-rule="evenodd" d="M156.13672 458.13672l-.3164-4.4375 1.49609-3.23047.11718-1.20703.4297-4.4414 2.28515-4.4375 1.60547-1.4336 4.4375-1.55078 3.86328-1.45313.57422-.50781 4.4375-1.66406 3.51953-2.26563.92187-.7539 4.4375-.77344 4.4375-1.08594 2.91016-1.82422 1.52734-.92969v7.125l-3.61328 2.6797-.82422 1.0703-4.4375 1.625-3.09375-2.6953-1.34375-.60548-1.26953.60547-3.17187 2.28906-4.4375 1.23438-4.4375-.33984-2.57422 1.2539-1.86328.6289-2.96094 3.8086-.1289 4.4414-.3672 4.4375.21094 4.4375 3.2461 4.07423 4.4375-1.25 4.4375.11719 4.4375-.64063 4.4414-1.70703 2.3164-.59375 2.1211-1.0625 4.4375-2.47266 4.4375.16016 4.4414-.5625 3.1211-.5.98438-4.4375.33203-.38672.33203.38672 4.10547 2.17187 3.50781-2.17187-3.50781-2.51563-2.10547-1.92578-2.33203-2.42187-1.26172-2.01563 1.26172-2.80469.79297-1.6328-.79297-.60938-4.4375-1.30469-4.4414-.76563v-7.125l1.82421.9297 2.61719 1.1914 4.4375 1.0625 4.16016 2.1836.27734.20312 4.4375 1.84375 4.4414 1.52344.5547.86718 1.625 4.4375 2.2578 1.83203 2.4922 2.60547 1.9453 2.0625 4.4375 1.89844.51172.48047-.51172.41797-4.4375 1.63672-4.4375.34375-2.66015 2.03906-1.77734 1.01562-4.44141.8672-4.4375.98827-4.4375.48438-4.4375.36719-1.91406.71484-2.52735 1.07031-4.4375-.01562-4.4375 1.8789-4.4375.75781-4.4414.59375-1 .15235-3.4375.96094-4.4375-.8711-4.4375 1.98438-3.54297-2.07422-.89453-2.1875-1.1797-2.25"/><path fill="#00d4fc" fill-rule="evenodd" d="M158.50781 458.13672l-.21094-4.4375.3672-4.4375.1289-4.4414 2.96094-3.8086 1.86328-.6289 2.57422-1.25391v2.86718l-4.4375.21094-2.03125 2.61328.16797 4.4414-.26954 4.4375.39063 4.4375 1.74219 2.1836 4.4375-1.0039 4.4375-.26954 4.4375-.59375.73437-.3164-.73437-1.59375-.84766-2.84375-.66406-4.4375-1.84375-4.4414-1.08203-.97657-4.4375-1.84766v-2.86718l4.4375.33984 4.4375-1.23438 3.17187-2.28906 1.26953-.60547 1.34375.60547 3.09375 2.69531 4.4375-1.625.82422-1.0703 3.61328-2.6797 4.4414.76563 4.4375 1.30469.79298.60937-.79297 1.63281-1.26172 2.8047 1.26172 2.01562 2.33203 2.42187 2.10547 1.92578 3.50781 2.51563-3.50781 2.17187-4.10547-2.17187-.33203-.38672-.33203.38672-.98438 4.4375-3.1211.5-4.4414.5625-4.4375-.16016-4.4375 2.47266-2.1211 1.0625-2.3164.59375-4.4414 1.70703-4.4375.64063-4.4375-.1172-4.4375 1.25-3.2461-4.07421"/><path fill="#00c4fc" fill-rule="evenodd" d="M160.01172 458.13672l-.39063-4.4375.26953-4.4375-.16796-4.4414 2.03125-2.61329v1.19531l-1.10157 1.41797.46875 4.4414-.17187 4.4375.57031 4.4375.23438.29298 1.5703-.29297 1.82423-4.4375-1.17188-4.4375.86328-4.4414-3.08593-1.41798v-1.1953l4.4375-.21095 4.4375 1.84766v8.88672l-2.3125.96875 2.3125 1.19531.60937-1.19531-.60937-.96875v-8.88672l1.08203.97656 1.84375 4.4414.66406 4.4375.84766 2.84376.73437 1.59375-.73437.3164-4.4375.59375-4.4375.26954-4.4375 1.0039-1.7422-2.1836"/><path fill="#00b8fc" fill-rule="evenodd" d="M161.1211 449.26172l-.46876-4.4414 1.10157-1.41798v1.19532l-.17188.22265.17188 1.23438.48437-1.23438-.48437-.22265v-1.19532l3.08593 1.41797-.86328 4.4414 1.17188 4.4375-1.82422 4.4375-1.57031.29298-.23438-.29297-.57031-4.4375.17187-4.4375"/><path fill="#00a8fc" fill-rule="evenodd" d="M161.7539 446.05469l-.17187-1.23438.17188-.22265.48437.22265-.48437 1.23438"/><path fill="#00b8fc" fill-rule="evenodd" d="M170.6289 454.89453l-2.3125-1.19531 2.3125-.96875.60938.96875-.60937 1.19531"/><path fill="#00e8fc" fill-rule="evenodd" d="M219.45313 429.48828l-2.35157-2.41797 2.35156-3.6914 4.4375 1.0664 3.82813 2.625.60938.92578 4.4375 1.59375 1.86718 1.91797 2.57422 1.76563 4.4375.85156 2.14844 1.82031 2.28906 2.15625 1.6289 2.28125-1.6289 1.64063-4.4375.85547-3.23047-2.4961-1.20703-1.29297-4.4414-.9414-2.20313-2.20313-2.23438-2.9961-2.18359-1.4414-2.2539-1.70312-4.4375-.3164"/><path fill="#fff" fill-opacity="0" fill-rule="evenodd" d="M223.89063 435.46484l-.72657.48047.72656.41797 4.4375 3.55469.29297-3.97266-.29297-.39453-4.4375-.08594m8.875 4.6211l-3.97656.29687 3.97656.98828.96485-.98828-.96484-.29687"/><path fill="#50fcfc" fill-rule="evenodd" d="M268.27344 433.85156l-3.13281-2.34375 3.1328-2.78515 3.42579 2.78515-3.42578 2.34375m13.3164 3.90235l-1.98828-1.8086 1.64844-4.4375.33984-.21875.19532.21875 2.07812 4.4375-2.27344 1.8086m93.20313 15.12109l-3.15235-3.61328 3.15235-3.25v2.39453l-.82813.85547.82813.95312.8164-.95312-.8164-.85547v-2.39453l3.08984 3.25-3.08984 3.61328"/><path fill="#00e8fc" fill-rule="evenodd" d="M374.79297 450.21484l-.82813-.95312.82813-.85547.8164.85547-.8164.95312"/><path fill="#50fcfc" fill-rule="evenodd" d="M380.45703 467.01563l-.4414-4.44141 2.96875-4.4375.6875-.54297 4.4375-2.66016v2.35157l-1.25782.85156-3.17969 1.46094-2.3789 2.97656 1.32812 4.4414 1.05079 1.62891 4.4375.8711 2.64453-2.5 1.46093-4.44141-2.27343-4.4375-1.83204-.85156v-2.35157l3.91016-1.23437.52735-1 4.4375-.36328 1.19921 1.36328-1.19921 1.94531-1.45313 2.49219-.70313 4.4375-.45703 4.4414-1.14843 4.4375-.67579.73829-4.4375 2.23046-3.1914 1.46875-1.2461.17579-.18359-.17579-.97656-4.4375-2.05469-4.4375"/><path fill="#00e8fc" fill-rule="evenodd" d="M382.6211 467.01563l-1.32813-4.44141 2.3789-2.97656 3.1797-1.46094 1.2578-.85156v1.89453l-4.4375 3.08203-.2539.3125.2539.63281 4.4375 3.29297 2.94922-3.92578-2.94921-3.39453v-1.89453l1.83203.85156 2.27343 4.4375-1.46093 4.4414-2.64454 2.5-4.4375-.87109-1.05078-1.6289"/><path fill="#00d4fc" fill-rule="evenodd" d="M383.67188 463.20703l-.25391-.63281.2539-.3125 4.4375-3.08203v1.33203l-2.83203 2.0625 2.83204 2.38672 1.79296-2.38672-1.79296-2.0625v-1.33203l2.94921 3.39453-2.94921 3.92578-4.4375-3.29297"/><path fill="#00c4fc" fill-rule="evenodd" d="M388.10938 464.96094l-2.83204-2.38672 2.83204-2.0625v1.32812l-1.00782.73438 1.00781.85156.63672-.85156-.63671-.73438v-1.32812l1.79296 2.0625-1.79296 2.38672"/><path fill="#00b8fc" fill-rule="evenodd" d="M388.10938 463.42578l-1.00782-.85156 1.00781-.73438.63672.73438-.63671.85156"/><g clip-path="url(#d)"><path fill="#50fcfc" fill-rule="evenodd" d="M429.19531 480.32813h1.71094l1.58594-1.6172 1.61328 1.6172h1.73828l-3.35156-3.3672-3.29688 3.3672"/></g><g clip-path="url(#e)"><path fill="#00e8fc" fill-rule="evenodd" d="M430.90625 480.32813l1.58594-1.6172 1.61328 1.6172h-3.19922"/></g><path fill="#50fcfc" fill-rule="evenodd" d="M450.2461 460.44531l-1.53126-2.3086 1.53125-1.02343 1.01563 1.02344-1.01563 2.3086"/><g clip-path="url(#f)"><path fill="#50fcfc" fill-rule="evenodd" d="M457.28516 480.32813l1.83984-.81641 1.19922.8164h-3.03906"/></g><g clip-path="url(#g)"><path fill="#fff" fill-opacity="0" fill-rule="evenodd" d="M467.9961 480.32813H468V311.67188h-.0039H468v168.65625h-.0039"/></g><path fill="#fff" fill-opacity="0" fill-rule="evenodd" d="M257.71484 444.15625l5.55079-1.8164-3.09766-9.46876-5.55078 1.82032 3.09765 9.46484"/><path fill-rule="evenodd" d="M258.51172 435.34375l.48437-.16016 1.95704 5.98438-.7461.2461-1.39453-4.26954-1.32031.4336-.17578-.52735.51171-.23828.22657-.1289.1875-.15626.14844-.19921.10156-.25391.04297-.32422-.02344-.40625"/><path fill="#fff" fill-opacity="0" fill-rule="evenodd" d="M176.78125 470.3125l5.78906-.77344-1.32031-9.875-5.79297.77735 1.32422 9.87109"/><path fill-rule="evenodd" d="M179.17188 461.79297l.5039-.0664.83594 6.23827-.78125.10547-.59766-4.45312-1.375.1875-.07422-.55078.54688-.14063.24219-.08594.21484-.12109.1836-.16406.14452-.23438.10157-.3086.05469-.40624"/><g clip-path="url(#h)"><path fill="none" stroke="#000" stroke-linecap="round" stroke-linejoin="round" stroke-miterlimit="10" stroke-width=".5" d="M147.51172 480.26172l-7.02344.13281"/></g><g clip-path="url(#i)"><path fill="none" stroke="#000" stroke-linecap="round" stroke-linejoin="round" stroke-miterlimit="10" stroke-width=".5" d="M147.51172 480.26172l1.19531 2.14453"/></g><g clip-path="url(#j)"><path fill="none" stroke="#000" stroke-linecap="round" stroke-linejoin="round" stroke-miterlimit="10" stroke-width=".5" d="M146.49219 480.28125l.59375 1.07422"/></g><g clip-path="url(#k)"><path fill="none" stroke="#000" stroke-linecap="round" stroke-linejoin="round" stroke-miterlimit="10" stroke-width=".5" d="M160.82422 480.16406l-7.01953.32813"/></g><g clip-path="url(#l)"><path fill="none" stroke="#000" stroke-linecap="round" stroke-linejoin="round" stroke-miterlimit="10" stroke-width=".5" d="M160.82422 480.16406l1.2539 2.10938"/></g><g clip-path="url(#m)"><path fill="none" stroke="#000" stroke-linecap="round" stroke-linejoin="round" stroke-miterlimit="10" stroke-width=".5" d="M159.80469 480.21094l.625 1.05469"/></g><g clip-path="url(#n)"><path fill="none" stroke="#000" stroke-linecap="round" stroke-linejoin="round" stroke-miterlimit="10" stroke-width=".5" d="M174.14453 480.26563l-7.02734.1289"/></g><g clip-path="url(#o)"><path fill="none" stroke="#000" stroke-linecap="round" stroke-linejoin="round" stroke-miterlimit="10" stroke-width=".5" d="M174.14453 480.26563l1.1914 2.14453"/></g><g clip-path="url(#p)"><path fill="none" stroke="#000" stroke-linecap="round" stroke-linejoin="round" stroke-miterlimit="10" stroke-width=".5" d="M187.45703 480.2461l-7.02344.16406"/></g><g clip-path="url(#q)"><path fill="none" stroke="#000" stroke-linecap="round" stroke-linejoin="round" stroke-miterlimit="10" stroke-width=".5" d="M187.45703 480.2461l1.20313 2.13671"/></g><g clip-path="url(#r)"><path fill="none" stroke="#000" stroke-linecap="round" stroke-linejoin="round" stroke-miterlimit="10" stroke-width=".5" d="M186.4375 480.26953l.60156 1.07031"/></g><g clip-path="url(#s)"><path fill="none" stroke="#000" stroke-linecap="round" stroke-linejoin="round" stroke-miterlimit="10" stroke-width=".5" d="M200.76953 480.1875l-7.01953.28516"/></g><g clip-path="url(#t)"><path fill="none" stroke="#000" stroke-linecap="round" stroke-linejoin="round" stroke-miterlimit="10" stroke-width=".5" d="M200.76953 480.1875l1.24219 2.11719"/></g><g clip-path="url(#u)"><path fill="none" stroke="#000" stroke-linecap="round" stroke-linejoin="round" stroke-miterlimit="10" stroke-width=".5" d="M199.75 480.22656l.61719 1.0586"/></g><g clip-path="url(#v)"><path fill="none" stroke="#000" stroke-linecap="round" stroke-linejoin="round" stroke-miterlimit="10" stroke-width=".5" d="M214.08203 480.51563l-7.01562-.375"/></g><g clip-path="url(#w)"><path fill="none" stroke="#000" stroke-linecap="round" stroke-linejoin="round" stroke-miterlimit="10" stroke-width=".5" d="M214.08203 480.51563l1.03516 2.22656"/></g><g clip-path="url(#x)"><path fill="none" stroke="#000" stroke-linecap="round" stroke-linejoin="round" stroke-miterlimit="10" stroke-width=".5" d="M213.0625 480.46094l.51953 1.11328"/></g><g clip-path="url(#y)"><path fill="none" stroke="#000" stroke-linecap="round" stroke-linejoin="round" stroke-miterlimit="10" stroke-width=".5" d="M227.39063 480.65625l-7-.65234"/></g><g clip-path="url(#z)"><path fill="none" stroke="#000" stroke-linecap="round" stroke-linejoin="round" stroke-miterlimit="10" stroke-width=".5" d="M227.39063 480.65625l.9453 2.26172"/></g><g clip-path="url(#A)"><path fill="none" stroke="#000" stroke-linecap="round" stroke-linejoin="round" stroke-miterlimit="10" stroke-width=".5" d="M226.3711 480.5586l.47265 1.1328"/></g><g clip-path="url(#B)"><path fill="none" stroke="#000" stroke-linecap="round" stroke-linejoin="round" stroke-miterlimit="10" stroke-width=".5" d="M240.70703 480.61328l-7.0039-.5664"/></g><g clip-path="url(#C)"><path fill="none" stroke="#000" stroke-linecap="round" stroke-linejoin="round" stroke-miterlimit="10" stroke-width=".5" d="M240.70703 480.61328l.97266 2.25"/></g><g clip-path="url(#D)"><path fill="none" stroke="#000" stroke-linecap="round" stroke-linejoin="round" stroke-miterlimit="10" stroke-width=".5" d="M254.03125 480.42188l-7.02344-.1836"/></g><g clip-path="url(#E)"><path fill="none" stroke="#000" stroke-linecap="round" stroke-linejoin="round" stroke-miterlimit="10" stroke-width=".5" d="M254.03125 480.42188l1.09766 2.1953"/></g><g clip-path="url(#F)"><path fill="none" stroke="#000" stroke-linecap="round" stroke-linejoin="round" stroke-miterlimit="10" stroke-width=".5" d="M267.32422 479.92578l-6.98047.80469"/></g><g clip-path="url(#G)"><path fill="none" stroke="#000" stroke-linecap="round" stroke-linejoin="round" stroke-miterlimit="10" stroke-width=".5" d="M267.32422 479.92578l1.39453 2.01953"/></g><g clip-path="url(#H)"><path fill="none" stroke="#000" stroke-linecap="round" stroke-linejoin="round" stroke-miterlimit="10" stroke-width=".5" d="M280.65625 480.10547l-7.01172.44922"/></g><g clip-path="url(#I)"><path fill="none" stroke="#000" stroke-linecap="round" stroke-linejoin="round" stroke-miterlimit="10" stroke-width=".5" d="M280.65625 480.10547l1.28906 2.08594"/></g><g clip-path="url(#J)"><path fill="none" stroke="#000" stroke-linecap="round" stroke-linejoin="round" stroke-miterlimit="10" stroke-width=".5" d="M293.96484 480.01172l-7 .63281"/></g><g clip-path="url(#K)"><path fill="none" stroke="#000" stroke-linecap="round" stroke-linejoin="round" stroke-miterlimit="10" stroke-width=".5" d="M293.96484 480.01172l1.34375 2.05469"/></g><g clip-path="url(#L)"><path fill="none" stroke="#000" stroke-linecap="round" stroke-linejoin="round" stroke-miterlimit="10" stroke-width=".5" d="M307.26953 479.91797l-6.97656.82031"/></g><g clip-path="url(#M)"><path fill="none" stroke="#000" stroke-linecap="round" stroke-linejoin="round" stroke-miterlimit="10" stroke-width=".5" d="M306.2539 480.03906l.69923 1.00781"/></g><g clip-path="url(#N)"><path fill="none" stroke="#000" stroke-linecap="round" stroke-linejoin="round" stroke-miterlimit="10" stroke-width=".5" d="M320.60547 480.46484l-7.01953-.26953"/></g><g clip-path="url(#O)"><path fill="none" stroke="#000" stroke-linecap="round" stroke-linejoin="round" stroke-miterlimit="10" stroke-width=".5" d="M319.58594 480.42578l.53125 1.10156"/></g><g clip-path="url(#P)"><path fill="none" stroke="#000" stroke-linecap="round" stroke-linejoin="round" stroke-miterlimit="10" stroke-width=".5" d="M333.92188 480.15234l-7.01954.35157"/></g><g clip-path="url(#Q)"><path fill="none" stroke="#000" stroke-linecap="round" stroke-linejoin="round" stroke-miterlimit="10" stroke-width=".5" d="M332.89844 480.20313l.6289 1.05468"/></g><g clip-path="url(#R)"><path fill="none" stroke="#000" stroke-linecap="round" stroke-linejoin="round" stroke-miterlimit="10" stroke-width=".5" d="M347.16016 479.58594l-6.8672 1.48437"/></g><g clip-path="url(#S)"><path fill="none" stroke="#000" stroke-linecap="round" stroke-linejoin="round" stroke-miterlimit="10" stroke-width=".5" d="M346.16016 479.80469l.79296.9375"/></g><g clip-path="url(#T)"><path fill="none" stroke="#000" stroke-linecap="round" stroke-linejoin="round" stroke-miterlimit="10" stroke-width=".5" d="M359.89453 478.27734l-5.70703 4.10157"/></g><path fill="none" stroke="#000" stroke-linecap="round" stroke-linejoin="round" stroke-miterlimit="10" stroke-width=".5" d="M359.0625 478.875l1.10156.54297"/><g clip-path="url(#U)"><path fill="none" stroke="#000" stroke-linecap="round" stroke-linejoin="round" stroke-miterlimit="10" stroke-width=".5" d="M371.79297 477.1211l-2.875 6.41406"/></g><g clip-path="url(#V)"><path fill="none" stroke="#000" stroke-linecap="round" stroke-linejoin="round" stroke-miterlimit="10" stroke-width=".5" d="M383.22266 476.84375l.89453 6.96875"/></g><g clip-path="url(#W)"><path fill="none" stroke="#000" stroke-linecap="round" stroke-linejoin="round" stroke-miterlimit="10" stroke-width=".5" d="M396.80078 476.82031l.3711 7.01563"/></g><g clip-path="url(#X)"><path fill="none" stroke="#000" stroke-linecap="round" stroke-linejoin="round" stroke-miterlimit="10" stroke-width=".5" d="M413.80469 480.57422l-7.00781-.48828"/></g><g clip-path="url(#Y)"><path fill="none" stroke="#000" stroke-linecap="round" stroke-linejoin="round" stroke-miterlimit="10" stroke-width=".5" d="M427.05078 479.59375l-6.8711 1.47266"/></g><g clip-path="url(#Z)"><path fill="none" stroke="#000" stroke-linecap="round" stroke-linejoin="round" stroke-miterlimit="10" stroke-width=".5" d="M426.05078 479.8086l.79297.9375"/></g><g clip-path="url(#aa)"><path fill="none" stroke="#000" stroke-linecap="round" stroke-linejoin="round" stroke-miterlimit="10" stroke-width=".5" d="M440.4375 480.07422l-7.01172.50781"/></g><g clip-path="url(#ab)"><path fill="none" stroke="#000" stroke-linecap="round" stroke-linejoin="round" stroke-miterlimit="10" stroke-width=".5" d="M440.4375 480.07422l1.30469 2.07812"/></g><g clip-path="url(#ac)"><path fill="none" stroke="#000" stroke-linecap="round" stroke-linejoin="round" stroke-miterlimit="10" stroke-width=".5" d="M453.7461 480.6289l-7-.60156"/></g><g clip-path="url(#ad)"><path fill="none" stroke="#000" stroke-linecap="round" stroke-linejoin="round" stroke-miterlimit="10" stroke-width=".5" d="M453.7461 480.6289l.96484 2.25782"/></g><g clip-path="url(#ae)"><path fill="none" stroke="#000" stroke-linecap="round" stroke-linejoin="round" stroke-miterlimit="10" stroke-width=".5" d="M467.07031 480.15234l-7.01953.35547"/></g><g clip-path="url(#af)"><path fill="none" stroke="#000" stroke-linecap="round" stroke-linejoin="round" stroke-miterlimit="10" stroke-width=".5" d="M466.05078 480.20313l.6289 1.05078"/></g><g clip-path="url(#ag)"><path fill="none" stroke="#000" stroke-linecap="round" stroke-linejoin="round" stroke-miterlimit="10" stroke-width=".5" d="M147.51172 467.01563h-7.02344"/></g><path fill="none" stroke="#000" stroke-linecap="round" stroke-linejoin="round" stroke-miterlimit="10" stroke-width=".5" d="M147.51172 467.01563l1.15234 2.16406m-2.17187-2.16406l.57422 1.08203m13.7578-1.25391l-7.01952.33984m7.01953-.33984l1.25781 2.10547m-2.27734-2.0586l.625 1.0547m13.71094-1.09766l-7.01954.33203m7.01953-.33203l1.25391 2.10937m12.05469-2.20312l-7.00781.51953m7.0078-.51953l1.3086 2.07422m11.96094-2.44141l-6.91406 1.2539m6.91406-1.2539l1.51953 1.92578m11.7539-2.11719l-6.83202 1.63672m6.83203-1.63672l1.625 1.83594m11.65234-1.97266l-6.76172 1.91016m6.76172-1.91016l1.69922 1.76954m-2.67969-1.4922l.84766.88282m13.35547-1.44531l-6.57422 2.48047m6.57422-2.48047l1.84375 1.61719m-2.80078-1.25782l.92187.8086m13.375-1.10547l-6.6211 2.35937m6.6211-2.35937l1.8086 1.65234m11.53515-1.5586l-6.6836 2.16798m6.6836-2.16797l1.76563 1.70703m11.41797-2.05469l-6.41797 2.86328m6.41797-2.86328l1.93359 1.50781m11.40234-1.45703l-6.46094 2.76172m6.46094-2.76172l1.91016 1.54297m11.40625-1.54297l-6.46094 2.76172m6.46094-2.76172l1.91015 1.53907m11.44922-1.4336l-6.54687 2.55078m6.54687-2.55078l1.85938 1.59766m11.26953-1.9961l-6.17578 3.34766m6.17578-3.34766l2.04687 1.35547m10.82032-2l-5.28125 4.63672m4.51172-3.96094l1.14843.4336m12.4336-1.57813l-4.27735 5.57422m3.65625-4.76172l1.21094.20313m10.77734-1.73828l-.3789 7.01953m.32031-5.9961l1.11328-.51953m8.85547 1.58594l6.42969 2.83984m10.69531 2.04297l-1.1914-6.92578m17.41406 3.72266l-7.00782-.51953m5.98829.4453l.49609 1.1211m12.90625-3.69922l-5.14063 4.78516m4.39454-4.08984l1.15625.39843m13.52734-.16406l-6.38672 2.92578m6.38672-2.92578l1.94922 1.48828m11.44531-1.30078l-6.54687 2.55078m5.59375-2.17968l.92968.79687m13.16016-1.55469l-6.1875 3.32422m5.28906-2.83984l1.01953.67969"/><g clip-path="url(#ah)"><path fill="none" stroke="#000" stroke-linecap="round" stroke-linejoin="round" stroke-miterlimit="10" stroke-width=".5" d="M147.5039 453.4414l-7.0078.51563"/></g><path fill="none" stroke="#000" stroke-linecap="round" stroke-linejoin="round" stroke-miterlimit="10" stroke-width=".5" d="M147.5039 453.4414l1.3086 2.07423m11.98047-2.32422l-6.95313 1.01562m6.95313-1.01562l1.45312 1.97656m11.73438-2.52344l-6.70313 2.10938m5.73047-1.80078l.875.85937m13.52344-.71484l-6.92188 1.20312m5.91407-1.02734l.7539.96875m13.48828-1.5039l-6.76171 1.92187m5.77734-1.64453l.85156.88671m13.34766-1.46875l-6.5586 2.52735m5.60157-2.16016l.92969.80469m12.71093-2.21485l-5.29687 4.61329m4.52734-3.94141l1.14453.4375m13.02735-1.00781l-5.47266 4.41015m4.67578-3.76562l1.1289.48047m13.04688-1.04297l-5.59765 4.2461m5.59765-4.2461l2.22656 1.03125m11.3125-.6914l-6.05078 3.5703m6.05078-3.5703l2.09375 1.27734m11.29688-1.15235l-6.19531 3.3164m6.19531-3.3164l2.03516 1.36719m11.08203-1.6875l-5.80469 3.96094m5.80469-3.96094l2.17187 1.13672m11.26953-.9414l-6.05468 3.5703m6.05468-3.5703l2.08985 1.28124m-2.97266-.76172l1.04688.64063m13.12109-1.20703l-5.9961 3.66406m5.9961-3.66406l2.11328 1.2461m11.16016-1.3125l-5.91406 3.79296m5.91406-3.79297l2.14062 1.20313m11.07032-1.35938l-5.70313 4.10938m5.70313-4.10938l2.19921 1.08594m9.9375-2.1211l-3.34765 6.1797m3.34765-6.1797l2.45313.01954m10.33984-.25l-2.30078 6.64062m1.96485-5.67578l1.21093-.1875m12.25-.83594l-1.92187 6.75781m1.64062-5.77734l1.19922-.25781m9.95313-.52735l2.96484 6.3672m-2.53516-5.44141l.73829-.98047m16.58593 1.33984l-5.91406 3.79688m5.05469-3.2461l1.07031.60156m12.13281-2.15234l-3.97265 5.79688m3.39453-4.95313l1.22265.13672m13.97266.67578l-6.57422 2.48047m5.61719-2.11719l.92187.8086m12.76172-2.1797l-5.39843 4.4961m5.39843-4.4961l2.27344.9297m11.3125-.5586l-5.9375 3.75781"/><g clip-path="url(#ai)"><path fill="none" stroke="#000" stroke-linecap="round" stroke-linejoin="round" stroke-miterlimit="10" stroke-width=".5" d="M466.53125 451.82031l2.13281 1.21485"/></g><g clip-path="url(#aj)"><path fill="none" stroke="#000" stroke-linecap="round" stroke-linejoin="round" stroke-miterlimit="10" stroke-width=".5" d="M147.51172 440.44922l-7.02344-.1289"/></g><path fill="none" stroke="#000" stroke-linecap="round" stroke-linejoin="round" stroke-miterlimit="10" stroke-width=".5" d="M147.51172 440.44922l1.11328 2.1875m12.0664-3.22656l-6.7539 1.9453m5.76953-1.66015l.85547.8789m13.29688-1.57812l-6.45704 2.77344m5.51563-2.3711l.95703.76954m13.53906-.33985l-6.9375 1.10938m5.92969-.94922l.73828.98047m13.02344-2.5586l-5.8125 3.94923m4.96484-3.375l1.08594.5703m12.82813-1.46874l-5.31641 4.59375m4.54297-3.92578l1.14453.4453m13.55078-.11327l-6.53125 2.59375m5.58203-2.21485l.9336.79297m12.0078-2.80078l-3.88671 5.85547m3.32031-5.0039l1.22266.11718m10.91015-1.55078l-.38672 7.01563m.32813-5.9961l1.11328-.51562m13.47266-.21485l-2.8125 6.4375m2.8125-6.4375l2.44922-.1875m11.78125.76953l-4.64453 5.27344m4.64453-5.27344l2.38672.57032m10.7578-.71094l-4.30468 5.55469m4.30469-5.5547l2.41797.41798m11.28906-.0664l-5.08594 4.85155m5.08594-4.85156l2.32812.77344m-3.0703-.0664l1.16405.38671m13.1836-.74219l-5.66797 4.15235m5.66797-4.15235l2.21094 1.06641m-3.03516-.46484l1.10547.53515m12.90234-1.3086l-5.40625 4.4922m5.40625-4.4922l2.26953.9297m-3.05469-.27344l1.13282.46484m12.71875-1.39062l-4.90625 5.03125m4.90625-5.03125l2.35547.6875m9.41406-1.5664l-1.8164 6.78905m1.8164-6.78906l2.39062-.55078m9.28907.50781l1.45703 6.875m-1.45703-6.875l1.8789-1.57422m9.85547 7.66407l4.61328-5.30078m-3.9414 4.52734l-1.19532-.27344m19.60938-2.19922l-6.92578 1.1875m6.92578-1.1875l1.5 1.9414m11.64844-2.5625l-6.59375 2.4297m5.63671-2.07422l.91407.8164m13.32422-1.2578l-6.52735 2.60546m5.57813-2.22656l.9375.79297m13.57812.1953l-7.02734-.1328m7.02734.1328l1.10938 2.1875m12.20703-2.24218l-7.02735-.01953m7.02735.01953l1.14453 2.16797m11.84766-3.64453l-6.38672 2.9336"/><g clip-path="url(#ak)"><path fill="none" stroke="#000" stroke-linecap="round" stroke-linejoin="round" stroke-miterlimit="10" stroke-width=".5" d="M466.7539 438.91797l1.95313 1.48828"/></g><g clip-path="url(#al)"><path fill="none" stroke="#000" stroke-linecap="round" stroke-linejoin="round" stroke-miterlimit="10" stroke-width=".5" d="M147.41406 427.89844l-6.82812-1.66016"/></g><path fill="none" stroke="#000" stroke-linecap="round" stroke-linejoin="round" stroke-miterlimit="10" stroke-width=".5" d="M147.41406 427.89844l.60547 2.3789m12.80469-3.0625l-7.01953-.29297m7.01953.29297l1.0625 2.21094m12.21094-2.91406l-6.9375 1.11328m5.92968-.94922l.73828.97656m13.41407.62891l-6.59375-2.42578m6.59375 2.42578l.33594 2.42969m12.65234-1.76172l-5.9375-3.76172m5.07031 3.21484l-.08984 1.22266m14.51953-3.97266l-6.4336 2.83203m5.4961-2.41796l.96484.7578m12.1289-2.60546l-4.11718 5.69922m3.51563-4.86719l1.21875.16406m13.125-.6289l-4.96875 4.96875m4.24609-4.2461l1.17188.35547m13.21484-.67187l-5.66797 4.15625m4.83984-3.55469l1.10547.53516m10.20313-2.57422v7.02734m14.51172-6.8164l-2.39063 6.60546m16.08985-6.4414l-3.16407 6.27734m2.70313-5.36328l1.22656-.02734m14.42188 2.89062l-6.91016-1.27734m17.83594-2.71094l-2.12891 6.69922m2.1289-6.69922l2.41407-.4414m11.63281.77343l-3.59375 6.03516m3.59375-6.03516l2.45313.11719m-2.97657.76172l1.22657.0586m13.71484.09374l-5.79688 3.97266m5.79688-3.97266l2.17578 1.13672m11.39453-.69531l-6.3086 3.08984m5.39063-2.64062l.9961.71875m11.96484-2.58985l-3.76562 5.9336m3.21875-5.07032l1.22265.09375m13.01172-.68359l-4.50781 5.38672m4.50781-5.38672l2.40235.50781m12.03906 1.23438l-6.76172 1.90234m6.76172-1.90234l1.69531 1.77343m-2.67969-1.49609l.84766.88672m13.48437-1.04688l-6.82812 1.66797m6.82812-1.66797l1.63282 1.83204m-2.625-1.58985l1.6328 1.83203m12.41407-2.78906l-6.3086 3.09766m6.3086-3.09766l1.98828 1.4414m-2.90625-.98827l1.98828 1.4375m12.05079-2.23438l-5.91797 3.78516m5.91796-3.78516l2.13672 1.20313m-2.99609-.65235l1.0664.60156m13.47266-.39453l-6.64844 2.26953m6.64844-2.26953l1.79297 1.6797m10.98828-2.6797l-5.57812 4.26953m4.76562-3.64843l1.11719.50781"/><g clip-path="url(#am)"><path fill="none" stroke="#000" stroke-linecap="round" stroke-linejoin="round" stroke-miterlimit="10" stroke-width=".5" d="M147.48047 413.27344l-6.96094.96094"/></g><path fill="none" stroke="#000" stroke-linecap="round" stroke-linejoin="round" stroke-miterlimit="10" stroke-width=".5" d="M146.46875 413.41406l.71875.99219m13.51563-1.58203l-6.77735 1.85937m5.79297-1.58984l.83984.89063m13.41797-1.30079l-6.69531 2.13672m5.72266-1.82422l.8789.85547m12.63281-2.4961l-5.14062 4.79688m4.39063-4.09765l1.16015.39843m13.24219-.67187l-5.8164 3.94531m4.96874-3.3711l1.08594.57032m12.875 3.0664l-5.41406-4.48046m19.42578 3.1211l-6.80469-1.75782m5.8125 1.5l.28906 1.19531m14.12891-1.8164h-7.02734m6.0039 0l.57813 1.08203M254 413.2539l-6.95703.99609m5.94531-.85156l.72266.99218m13.59765-1.17187l-6.9453 1.07031m5.93358-.91406l.73438.98437m12.9414-2.69921l-5.64452 4.1875m4.82421-3.57813l1.10547.52734m13.44922-.40234l-6.48047 2.71484m5.53516-2.3203l.95312.77734m13.5-.5547l-6.86718 1.48438m5.86718-1.26953l.79297.9375m13.57813-.82031l-6.98047.8164m6.98047-.8164l1.39453 2.01953m11.9375-1.79297l-7.01563.36328m5.9961-.30859l.63281 1.05078m13.6875-1.30078l-6.98438.75781m6.98438-.75781l1.3789 2.02734m11.95313-1.82422l-7.01953.34766m7.01953-.34765l1.25781 2.10937m11.8711-3.07813l-6.64453 2.28907m6.64453-2.28906l1.79297 1.67578m-2.76172-1.34375l.89843.83984m13.00391-1.94531l-5.88672 3.83594m5.88672-3.83594l2.14844 1.1836m-3.0039-.625l1.07421.58984m13.35547-.6797l-6.40234 2.89844m6.40234-2.89843l1.9414 1.4961m-2.875-1.07423l1.94532 1.4961m12.28906-1.94532l-6.375 2.95313m6.375-2.95313l1.95703 1.48047m-2.88281-1.05078l1.95312 1.48047m12.375-1.70703l-6.54687 2.54687m6.54687-2.54687l1.85938 1.59765m-2.8125-1.22656l.92969.79688m13.3125-1.23438l-6.4961 2.67969m6.4961-2.67969l1.89062 1.5664m-2.83594-1.17577l.94532.78125m13.1914-1.4375l-6.25 3.21093m6.25-3.21093l2.01563 1.40234m-2.92578-.9336l1.00781.69923m12.2461-2.33985l-4.3047 5.55469"/><g clip-path="url(#an)"><path fill="none" stroke="#000" stroke-linecap="round" stroke-linejoin="round" stroke-miterlimit="10" stroke-width=".5" d="M465.71484 410.97656l2.41797.41797"/></g><path fill="none" stroke="#000" stroke-linecap="round" stroke-linejoin="round" stroke-miterlimit="10" stroke-width=".5" d="M465.08984 411.78516l1.20704.20703"/><g clip-path="url(#ao)"><path fill="none" stroke="#000" stroke-linecap="round" stroke-linejoin="round" stroke-miterlimit="10" stroke-width=".5" d="M147.14453 398.8711l-6.28906 3.1328"/></g><path fill="none" stroke="#000" stroke-linecap="round" stroke-linejoin="round" stroke-miterlimit="10" stroke-width=".5" d="M147.14453 398.8711l1.9961 1.42968m10.62109-2.38281l-4.89453 5.03906m4.89453-5.03906l2.35937.6836m10.3711-1.14454l-3.72266 5.96094m3.17969-5.09375l1.22656.08594m11.72656-1.35157l-1.91406 6.76172m1.63672-5.77734l1.19531-.26172m14.91016 2.10156l-6.9414 1.10938m17.37109-4.01953l-1.16797 6.92968m16.30469-6.02734l-4.8125 5.125m4.10937-4.3789l1.1875.32421M240 398.3086l-5.58984 4.26172m4.77734-3.64453l1.11328.51563m13.64453.20703l-6.84765 1.57812m5.85156-1.34765l.80469.92578m13.32812-1.71094l-6.49219 2.6914m5.54688-2.30077l.94531.78125m12.54297-2.32422l-4.94922 4.99218m4.23047-4.26562l1.17188.35547m13.15625-.7461l-5.53907 4.32422m4.73438-3.69531l1.1211.5m13.61718.09766l-6.77344 1.86718m5.78906-1.59375l.84375.89063m13.54688-.73438l-6.95703 1.01172m5.94531-.86719l.72656.98829m13.53516-1.46485L327 401.27344m6.82422-1.67188l1.63281 1.82813m11.6914-.20313l-6.84765-1.57422m5.85156 1.34375l.32032 1.1836m13.89062-.59766l-6.64453-2.28906m5.67578 1.95703l.1914 1.21094m14.1172-3.08594l-6.69532 2.1289m6.69531-2.1289l1.75391 1.71484m11.35938-2.21484l-6.29297 3.1289m6.29297-3.1289l1.99609 1.42578m-2.91016-.97265l.9961.71484m13.5039-.4336l-6.83203 1.65625m6.83203-1.65625l1.62891 1.83204m-2.625-1.58985l.8164.91406m13.39454-1.48828l-6.63281 2.32032m6.6328-2.32032l1.8047 1.66797m-2.76954-1.32812l.90235.83203m13.17187-1.64453l-6.22265 3.26562m6.22265-3.26562l2.02735 1.38672m-2.9297-.91016l1.01173.6914m12.78515-1.79296l-5.3789 4.51953m5.3789-4.51953l2.27735.91797m11.53515-.14063l-6.375 2.96094m6.375-2.96094l1.95704 1.48047m-2.88282-1.04688l.97656.73829m13.00391-1.63282l-5.85547 3.88672"/><g clip-path="url(#ap)"><path fill="none" stroke="#000" stroke-linecap="round" stroke-linejoin="round" stroke-miterlimit="10" stroke-width=".5" d="M466.48828 398.4961l2.16016 1.16796"/></g><path fill="none" stroke="#000" stroke-linecap="round" stroke-linejoin="round" stroke-miterlimit="10" stroke-width=".5" d="M465.63672 399.0625l1.07812.58203"/><g clip-path="url(#aq)"><path fill="none" stroke="#000" stroke-linecap="round" stroke-linejoin="round" stroke-miterlimit="10" stroke-width=".5" d="M147.08984 385.45313l-6.17968 3.33984"/></g><path fill="none" stroke="#000" stroke-linecap="round" stroke-linejoin="round" stroke-miterlimit="10" stroke-width=".5" d="M146.1914 385.9375l1.02344.67969m12.47657-2.08203l-4.75391 5.17578M159 385.28906l1.1875.3086m12.76172-1.11329l-4.64063 5.27735m4.64063-5.27735l2.38672.56641m10.08984-1.11328l-2.96094 6.3711m2.96094-6.3711l2.44922-.13281m9.13672 6.82422l.4961-7.01172m16.45702 4.42969l-6.78125-1.84766m5.79688 1.57812l.26953 1.19532m14.15234-1.69922l-7.02343-.30078m7.02343.30078l1.0547 2.21484m12.26171-2.39844l-7.02734.06641m7.02734-.0664l1.17188 2.15624m12.14062-2.30078l-7.01953.35547m7.01953-.35547l1.25781 2.10547m12.03516-2.35156l-6.97656.84765m6.97656-.84765l1.40234 2.01172m11.90625-2.0664l-6.96484.95702m6.96484-.95703l1.4336 1.99219m11.80859-2.35547l-6.82031 1.6836m6.82031-1.6836l1.64062 1.82813m11.46875-2.4297l-6.40625 2.88673m5.47266-2.46485l.97266.75m13.1875-1.35547l-6.22657 3.25782m5.32032-2.78516l1.01172.6914m13.23437-1.11718l-6.27734 3.16015m5.36328-2.69921l1 .70703m13.53515-.27344l-6.89062 1.3711m5.88672-1.17188l.77734.94922m13.52344-1.24219l-6.85156 1.5586m5.85156-1.33204l.80469.92969m13.44531-1.39844l-6.72266 2.04297m6.72266-2.04297l1.73047 1.73828m11.32031-2.375l-6.19531 3.31641m6.19531-3.3164l2.03906 1.36718m11.29297-1.33594L393.8711 388.75m6.23047-3.2539l2.02344 1.38671m-2.92969-.91406l1.01172.69531m13.1914-1.19922l-6.1953 3.31641m6.1953-3.3164l2.03907 1.36718m-2.9414-.88281l1.01952.6836m12.9375-1.58204l-5.67187 4.14453m5.67187-4.14453l2.20704 1.0664m-3.03125-.46484l1.10156.53516m12.79687-1.4336l-5.1914 4.73829m5.1914-4.73828l2.3125.82421m-3.0664-.1328l1.15234.41015m13.1875-.76172l-5.73437 4.0625m5.73437-4.0625l2.1914 1.10156m-3.02734-.51172l1.09766.55079m13.39453-.54297l-6.41797 2.86328"/><g clip-path="url(#ar)"><path fill="none" stroke="#000" stroke-linecap="round" stroke-linejoin="round" stroke-miterlimit="10" stroke-width=".5" d="M466.76953 385.6914l1.9336 1.51173"/></g><g clip-path="url(#as)"><path fill="none" stroke="#000" stroke-linecap="round" stroke-linejoin="round" stroke-miterlimit="10" stroke-width=".5" d="M140.88672 372.17969l6.22656 3.25781"/></g><path fill="none" stroke="#000" stroke-linecap="round" stroke-linejoin="round" stroke-miterlimit="10" stroke-width=".5" d="M154.26172 372.07031l6.10937 3.47266m-5.22265-2.96485l.03515-1.22656m17.37891-.47656l-3.86328 5.86719M172 371.72656l1.22266.11719m12.9414-.75781l-4.4375 5.44531m3.79297-4.65234l1.20313.23437m13.5703-.07812l-6.0664 3.54687m5.1836-3.03125l1.04297.64453m13.61328.20313l-6.98047.82031m5.96484-.69922l.69531 1.00781m13.65625-.5625l-7.02343-.3125m6 .26563l.52734 1.10937m13.8125-1.11328l-7.02344-.21094m7.02344.21094l1.08594 2.19922m12.10547-3.22265l-6.78125 1.83593m6.78125-1.83594l1.67968 1.78907m11.36328-2.49219l-6.23437 3.24219m6.23438-3.24219l2.01953 1.39063m11.25-1.47266l-6.14453 3.40625m5.25-2.91016l1.03125.66797m13.4414-.5664l-6.67187 2.21093m5.70312-1.88672l.88672.84375m13.45313-.98828l-6.78125 1.85156m5.79296-1.58203l.83985.89454m13.58203-.35938l-7.01953.24219m6-.20703l.61328 1.0625m13.72656-1.04297l-7.02734.13281m6.0039-.11328l.59766 1.07031m13.35938-2.61328l-6.26563 3.17969m5.35547-2.71485l1.0039.70313m13.40626-.72656l-6.63672 2.29687m6.63672-2.29687l1.80078 1.66796m11.67187-1.02734l-6.95312 1.01563m6.95312-1.01563l1.45313 1.98047m11.55468-2.9961l-6.33593 3.04298m6.33593-3.04297l1.97657 1.45703m11.0664-1.92188l-5.79297 3.97656m5.79297-3.97656l2.17578 1.13672m11.10157-1.1914l-5.71875 4.08593m5.71875-4.08594l2.1953 1.09375m10.98438-1.26953l-5.44921 4.4375m5.44921-4.4375l2.26172.95313m-3.05468-.3086l1.1328.47657m12.40235-1.67969l-4.30078 5.55469m4.30078-5.55469l2.41797.41406m-3.04297.39453l1.20703.20704m13.14844-.64063l-5.13281 4.80078m5.13281-4.80078l2.32031.79688m-3.0664-.09766l1.16015.39844m12.92969-1.06641l-5.1875 4.74219"/><g clip-path="url(#at)"><path fill="none" stroke="#000" stroke-linecap="round" stroke-linejoin="round" stroke-miterlimit="10" stroke-width=".5" d="M466.15625 371.4375l2.3086.82031"/></g><g clip-path="url(#au)"><path fill="none" stroke="#000" stroke-linecap="round" stroke-linejoin="round" stroke-miterlimit="10" stroke-width=".5" d="M140.48828 360.53906l7.02344-.08984"/></g><path fill="none" stroke="#000" stroke-linecap="round" stroke-linejoin="round" stroke-miterlimit="10" stroke-width=".5" d="M153.8164 360.8086l6.9961-.63282m-5.97656.54297l-.67188-1.02734m16.96485-2.67579l-.9961 6.95704m.85156-5.94532l1.15235-.41796m14.51172.64062l-5.40625 4.48438m4.6211-3.83204l1.1328.46875m13.55078-.11718l-6.57421 2.47656m5.61718-2.11719l.92188.8125m13.51953-.57031l-6.91016 1.27734m5.90235-1.09375l.76562.96094m13.61328-.55469l-7.02343.09375m6.0039-.07812l.58985 1.07422m13.58203-2.09766l-6.69922 2.11328m5.72656-1.8086l.875.86329m13.28125-1.52344l-6.4336 2.82422m5.4961-2.41406l.96484.76172m12.75391-2.03125l-5.36719 4.53906m5.3672-4.53906l2.27734.91015m10.5039-1.41797L275 363.27344m4.30078-5.5586l2.41797.41407m10.3086-.78125l-3.125 6.29296m3.125-6.29296l2.45312-.07032m10.77734.02735l-2.95312 6.375m2.52343-5.44531l1.22657-.07032m11.0664-1.1836l-.05078 7.02735m.04297-6.0039l1.08984-.57032m15.2422 4.82813l-6.07032-3.53906m19.4414 3.4453l-6.17968-3.35155m19.79687 2.59765l-6.78515-1.83984m5.79687 1.57031l.27344 1.19531m14.11719-1.36328l-6.96094-.96875m5.94922.82813l.42187 1.15234m13.84766-2.29687l-6.84375 1.60546m5.84766-1.37109l.80859.92188m12.94922-2.38282l-5.73828 4.0547m5.73828-4.0547l2.1914 1.10547m11.00782-1.25781l-5.50782 4.36328m5.50782-4.36328l2.25.98047M426.09375 358l-4.95313 4.98438M426.09375 358l2.34766.71094m10.8203-.84766l-4.66015 5.25781m4.66016-5.2578l2.38672.57812m10.89453-.60938l-4.59375 5.32031m4.59375-5.3203l2.39062.54687m10.71094-.71485l-4.16797 5.65625"/><g clip-path="url(#av)"><path fill="none" stroke="#000" stroke-linecap="round" stroke-linejoin="round" stroke-miterlimit="10" stroke-width=".5" d="M465.64453 357.66406l2.42969.35938"/></g><g clip-path="url(#aw)"><path fill="none" stroke="#000" stroke-linecap="round" stroke-linejoin="round" stroke-miterlimit="10" stroke-width=".5" d="M140.5664 346.4375l6.8672 1.48047"/></g><path fill="none" stroke="#000" stroke-linecap="round" stroke-linejoin="round" stroke-miterlimit="10" stroke-width=".5" d="M153.82813 347.59375l6.97656-.83203m-5.96485.71094l-.69922-1.00782m13.78907 2.96094l5.40234-4.49219m-4.61719 3.83594l-1.13672-.46484m15.66407 2.3164l1.40625-6.88671m15.16406 5.85937l-5.10156-4.83203m19.3164 3.07812l-6.90234-1.32421m5.89844 1.1328l.35937 1.17188m14-1.26562l-6.98437-.75m5.96875.64062l.45703 1.13672m13.52344-2.97656L234.0625 348.75m5.3711-2.6875l1 .71094m12.59374-2.05469l-5.01562 4.91797m4.28906-4.20313l1.16797.3711m10.98438-2.08594l-1.23438 6.91797m1.05469-5.91016l1.16797-.3789m11.39453-.66797l.6289 6.9961m-.53906-5.98048l1.02735-.66797m11.73046-.27343l1.5625 6.85156m-1.33203-5.85547l.92578-.80469m11.78907-.08594l2.30468 6.63672m-1.96875-5.67187l.83204-.89844M315.60156 344l2.98828 6.35938m-2.55468-5.4375l.73828-.98047m10.26562 4.22656l6.74219-1.98047m-5.76172 1.69531l-.85547-.8789m13.0625-.16016l6.9961.66797m-5.97657-.57031l-.46875-1.13282m16.33985 4.88282l-.15235-7.02735m15.98829 5.88281l-5.19532-4.73437m4.4414 4.04297l-.30468 1.1875m14.88672-1.23438l-6.22266-3.26171m5.32032 2.78906l.0039 1.22656M400.5 347.08984l-7.02734.17579m6.0039-.14844l.60157 1.0664m12.58593-3.60546l-4.72656 5.19921m4.03906-4.4414l1.1914.30078m11.60548-1.77735l-2.3125 6.63672m2.3125-6.63671l2.42187-.375m11.42969.61328l-3.38672 6.16015m3.38672-6.16015l2.45313.03515m11.26171.22266L448.15234 350m3.57813-4.82422l1.21484.1836m13.53516-.13672l-5.83594 3.91406m4.98438-3.34766l1.08203.58203"/><g clip-path="url(#ax)"><path fill="none" stroke="#000" stroke-linecap="round" stroke-linejoin="round" stroke-miterlimit="10" stroke-width=".5" d="M141.6836 331.22266l4.6328 5.28125"/></g><path fill="none" stroke="#000" stroke-linecap="round" stroke-linejoin="round" stroke-miterlimit="10" stroke-width=".5" d="M153.80469 333.67578l7.01953.375m-5.9961-.32031l-.51953-1.11328m13.39844 3.1914l5.84766-3.89062m-5 3.32422l-1.07813-.58203m13.77735 1.46093l5.3828-4.51562m-4.59765 3.85937l-1.14062-.46093m19.85547-.76563l-6.98828-.75m5.97265.64063l.45703 1.13671m7.4336.51172l5.89062-3.83203m13.875 2.15625l-7.00781-.47656m5.98828.40625l.5 1.1211m13.78906-1.90626l-6.91797 1.23438m5.91016-1.05469l.75781.96485m13.0586-2.4297l-5.90625 3.8047m5.04687-3.25l1.07422.59765m8.79297-2.49219l2.71094 6.48438m-2.31641-5.53906l.77734-.94922m11.10547.67187l4.78516 5.14844m-4.08985-4.39844l.40235-1.16015m12.30469.33203l4.60937 5.30469m-3.9375-4.53125l.4414-1.14844m11.83594.74219l5.33985 4.5703m-4.5625-3.90624l.26953-1.19531m13.77344-.4961l2.33203 6.625m-1.99219-5.66406l.82813-.90235m10.93359.66797l4.75781 5.17188m-4.0664-4.41797l.41015-1.16016m12.04688 5.41016l5.09375-4.83984m-5.09375 4.83984l-2.32813-.77734m15.35547.43359l5.66797-4.14844m-5.66797 4.14844l-2.21094-1.0664M370.25 337.375l.21484-7.02344m-.18359 6l-1.10156.54297m16.0039.14063l-3.02343-6.34375m3.02343 6.34375l-1.46093 1.97265m16.125-3.10547l-5.72266-4.07812m4.89062 3.48437l-.16015 1.21485m14.95703-2.5664l-7.02344-.1875m6.0039.16015l.54688 1.09765m13.6211-2.24218l-6.6875 2.15625m6.6875-2.15625l1.76172 1.71093m11.4414-2.0078l-6.46484 2.75m6.46484-2.75l1.91016 1.54687m10.80469-2.5l-5.26172 4.65625m5.26172-4.65625l2.29687.85937m11.64453.15235l-6.51562 2.6328"/><g clip-path="url(#ay)"><path fill="none" stroke="#000" stroke-linecap="round" stroke-linejoin="round" stroke-miterlimit="10" stroke-width=".5" d="M466.82031 332.54688l1.8789 1.57421"/></g><g clip-path="url(#az)"><path fill="none" stroke="#000" stroke-linecap="round" stroke-linejoin="round" stroke-miterlimit="10" stroke-width=".5" d="M141.76172 317.83984l4.47656 5.41797"/></g><path fill="none" stroke="#000" stroke-linecap="round" stroke-linejoin="round" stroke-miterlimit="10" stroke-width=".5" d="M154.58594 318.33594l5.45703 4.42578m-4.66406-3.78125l.23437-1.20703m14.42969 6.23828l1.17187-6.92969m13.2461 6.9414l-1.03125-6.94921m.88281 5.9375l-.98828.73047m14.78906.21484l-1.70703-6.8164m1.45703 5.82421l-.91016.82032m16.58204-1.34375l-5.92188-3.78516m5.0625 3.23438l-.09766 1.22265m14.82032-2.72656l-7.01953.32031m7.01953-.32031l1.25 2.11328m11.98828-2.71094l-6.86328 1.51563m6.86328-1.51563l1.58984 1.86719m11.3125-2.90625L247.5 322.34375m6.03906-3.59375l2.09766 1.27344m10.3789-2.23047l-4.35937 5.51172m4.35938-5.51172l2.41406.4375m9.78515-1.03125l-2.1289 6.69531m2.1289-6.69531l2.41407-.4414m10.5078.33984l-1.33984 6.89843m1.33985-6.89843l2.34765-.71485m10.54688.66016l-.5039 7.00781m.43359-5.98828l1.1211-.4961m13.41405-.24218l-2.80078 6.44531m2.39453-5.50781l1.22266-.09375m8.94531-.39453l4.3086 5.55078m-3.6836-4.7461l.5039-1.11718m11.26954 4.79687l6.14063-3.42187m-5.2461 2.92578l-1.03125-.66797m14.02735 1.92969l4.98828-4.94922m-4.98829 4.94922l-2.34375-.72656m14.8711-.5l6.5664-2.5m-6.5664 2.5l-1.84766-1.61329m17.72266 3.8047l1.4414-6.87892m-1.4414 6.87891l-2.35547.67969m17.26563-.71485l-1.7461-6.80859m1.7461 6.8086l-1.8125 1.65234m16.5-2.35547l-4.48829-5.40625m4.48829 5.40625l-.9336 2.27344m15.42188-4.16406l-6.83594-1.6211m5.83984 1.38281l.3125 1.1875m13.77735-3.21875l-6.39454 2.91407m5.46485-2.48829l.97265.7461m13.35938-.96485l-6.57031 2.5m6.57031-2.5l1.84766 1.6172m11.59375-1.20313l-6.82422 1.67187"/><g clip-path="url(#aA)"><path fill="none" stroke="#000" stroke-linecap="round" stroke-linejoin="round" stroke-miterlimit="10" stroke-width=".5" d="M466.97266 319.71094l1.63671 1.83203"/></g><path fill="none" stroke="#000" stroke-linecap="round" stroke-linejoin="round" stroke-miterlimit="10" stroke-width=".5" d="M465.98047 319.95703l.8164.91406"/><path fill="#00f" fill-rule="evenodd" d="M419.3086 427.70313h8.61718v-10.14454h-8.61719v10.14454"/><path fill="azure" fill-rule="evenodd" d="M421.14063 419.39063h.83203v2.82421h3.28515v-2.82421h.83594v6.48046h-.83594v-2.91796h-3.28515v2.91796h-.83204v-6.48046"/><path fill="#ff3030" fill-rule="evenodd" d="M380.05469 418.82813H387.75v-10.14844h-7.69531v10.14844"/><path fill="azure" fill-rule="evenodd" d="M381.89063 410.51172h.83203v5.74219h3.1953v.73828h-4.02733v-6.48047"/><path fill="#ff3030" fill-rule="evenodd" d="M295.72656 409.94922h7.69531v-10.14453h-7.6953v10.14453"/><path fill="azure" fill-rule="evenodd" d="M297.5586 401.63672h.83593v5.73828h3.1914v.74219h-4.02734v-6.48047"/><path fill="#00f" fill-rule="evenodd" d="M370.48438 396.63281h8.62109v-10.14453h-8.6211v10.14453"/><path fill="azure" fill-rule="evenodd" d="M372.3164 388.32031h.83594v2.82422h3.28516v-2.82422h.83203v6.48047h-.83203v-2.91406h-3.28516v2.91406h-.83593v-6.48047"/><path fill="#ff3030" fill-rule="evenodd" d="M189.20703 383.32031h7.6914v-10.14844h-7.6914v10.14844"/><path fill="azure" fill-rule="evenodd" d="M191.03906 375.00781h.83594v5.73828h3.1914v.7422h-4.02734v-6.48048"/><path fill="#ffffe0" fill-rule="evenodd" d="M341.74219 395.64453h22.1836v-10.1914h-22.1836v10.1914"/><path fill-rule="evenodd" d="M345.24219 387.28516h.51172v6.29296h-.78907v-4.48828h-1.38671v-.55468l.55859-.06641.2539-.05469.22657-.08984.20312-.14063.17578-.21093.14063-.29297.10547-.39453m4.8164 0l.22657.01953.21875.05469.21093.08984.19532.1211.18359.14843.17188.17578.30078.41797.24218.4961.1797.54687.11327.57812.03906.58985-.03906.59375-.11328.58594-.17969.55078-.24218.5039-.30079.42969-.17187.17969-.1836.15234-.1953.1211-.21094.09375-.21875.05468-.22657.02344-.23046-.02344-.21875-.05469-.20704-.09375-.19921-.12109-.1836-.15234-.17187-.17969-.30079-.42969-.24218-.5039-.17969-.55079-.11328-.58593-.03906-.59375h.83593l.02735.5625.08203.50781.125.4414.16406.375.1914.30079.21094.22265.22266.13672.22656.04688.22657-.04688.22265-.13672.21094-.22265.1875-.30078.16406-.375.125-.44141.08203-.50781.03125-.5625-.03125-.5586-.08203-.5039-.125-.4336-.16406-.36718-.1875-.29297-.21094-.21094-.22265-.13281-.22657-.04297-.22656.04297-.22265.13281-.21094.21094-.1914.29297-.16407.36718-.125.4336-.08203.5039-.02735.5586h-.83593l.03906-.58985.11328-.57812.17969-.54688.24219-.49609.30078-.41797.17187-.17578.1836-.14844.19921-.1211.20704-.08983.21875-.0547.23046-.01952m4.94922 0l.23047.01953.21875.05469.20703.08984.19922.1211.1836.14843.17187.17578.30078.41797.24219.4961.17969.54687.11328.57812.03906.58985-.03906.59375-.11328.58594-.1797.55078-.24218.5039-.30078.42969-.17188.17969-.18359.15234-.19922.1211-.20703.09375-.21875.05468-.23047.02344-.22656-.02344-.21875-.05469-.21094-.09375-.19531-.12109-.1836-.15234-.17187-.17969-.30078-.42969-.24219-.5039-.17969-.55079-.11328-.58593-.03906-.59375h.83594l.02734.5625.08203.50781.125.4414.16407.375.1914.30079.20703.22265.22266.13672.22656.04688.22656-.04688.22266-.13672.21094-.22265.1914-.30078.16407-.375.125-.44141.08203-.50781.02734-.5625-.02734-.5586-.08203-.5039-.125-.4336-.16406-.36718-.19141-.29297-.21094-.21094-.22265-.13281-.22657-.04297-.22656.04297-.22266.13281-.20703.21094-.1914.29297-.16407.36718-.125.4336-.08203.5039-.02734.5586h-.83594l.03906-.58985.11329-.57812.17968-.54688.24219-.49609.30078-.41797.17188-.17578.18359-.14844.19531-.1211.21094-.08983.21875-.0547.22656-.01952m4.95313 0l.38672.02734.35937.08203.32422.13672.27734.1875.23047.23828.17578.28516.10547.33203.03906.375-.01953.27734-.05859.23438-.08594.19922-.11328.16796-.1289.14454-.14063.125-.28516.1953.23047.1172.20703.14843.1836.17188.15234.1914.125.21485.08985.23047.05468.24219.01953.2578-.03125.3086-.10546.32813-.17188.32421-.23828.3047-.3086.26952-.375.21485-.21093.08203-.22656.0586-.2461.03906-.26172.01562-.25781-.01563-.24219-.03906-.22265-.0586-.20704-.08202-.35937-.21485-.28906-.26953-.22266-.30469-.15625-.32421-.09375-.32813-.03125-.3086h.83594l.02734.25391.07422.23438.125.21094.16016.18359.1914.15234.22266.1172.23828.0703.2539.02735.25782-.02735.23828-.0703.21875-.1172.19531-.15234.16016-.1836.1211-.21093.07812-.23438.02734-.2539-.02734-.2539-.07813-.23438-.12109-.21094-.16016-.1875-.1953-.15235-.21876-.11328-.23828-.07421-.25781-.02344-.2539.02344-.23829.07421-.22266.11329-.1914.15234-.16016.1875-.125.21094-.07422.23437-.02734.2539h-.83594l.01953-.2539.0586-.23828.08984-.22656.1211-.20703.15624-.19141.1797-.17188.20702-.15234.23438-.13281-.28906-.19531-.13672-.125-.12891-.14454-.11328-.16796-.08594-.19922-.0586-.23438-.01952-.27734h.78515l.02344.21484.0664.1914.10157.16798.13672.14062.16797.10938.1875.08203.20703.05078.21875.01563.22265-.01563.20704-.05078.1875-.08203.16406-.10938.13672-.14062.10546-.16797.06641-.1914.02344-.21485-.02344-.21485-.0664-.1914-.10547-.16406-.13672-.14063-.16406-.10937-.1875-.08204-.20704-.05078-.22265-.01562-.21875.01562-.20703.05079-.1875.08203-.16797.10937-.13672.14063-.10156.16406-.06641.1914-.02344.21485h-.78515l.03515-.375.10938-.33203.17187-.28516.23047-.23828.28125-.1875.32031-.13672.35938-.08203.38672-.02734"/><path fill="#ffffe0" fill-rule="evenodd" d="M395.0039 410.90234h22.1797v-10.1953h-22.1797v10.1953"/><path fill-rule="evenodd" d="M398.5039 402.54297h.50782v6.29297h-.78516v-4.48828h-1.39062v-.5547l.5625-.0664.25-.05469.23047-.08984.20312-.14062.17578-.21094.14063-.29297.10547-.39453m4.8125 0l.23046.01953.21875.05469.20704.08984.19921.1211.1836.14843.17187.17578.30079.41797.24218.4961.17969.54687.11328.57813.03516.58984-.03516.59375-.11328.58594-.17969.55078-.24219.5039-.30078.42579-.17187.17968-.1836.15625-.19921.1211-.20704.09375-.21875.05469-.23046.01953-.22657-.01954-.22265-.05468-.20703-.09375-.19532-.1211-.18359-.15625-.17188-.17968-.30078-.42579-.24609-.5039-.17969-.55078-.10937-.58594-.03906-.59375h.83203l.03125.5625.08203.50781.125.4414.16015.375.19141.30079.21094.22266.22265.13671.22657.04688.22656-.04688.22265-.13671.21094-.22266.1914-.30078.16407-.375.125-.4414.08203-.50782.02735-.5625-.02735-.5625-.08203-.5-.125-.4336-.16406-.36718-.1914-.29297-.21094-.21094-.22266-.13281-.22656-.04688-.22657.04688-.22265.13281-.21094.21094-.1914.29297-.16016.36719-.125.43359-.08203.5-.03125.5625h-.83204l.03907-.58984.10937-.57813.17969-.54687.2461-.4961.30077-.41797.17188-.17578.1836-.14844.1953-.12109.20704-.08984.22265-.05469.22657-.01953m4.95312 0l.23047.01953.21875.05469.20703.08984.19531.1211.1875.14843.16797.17578.30469.41797.24219.4961.17969.54687.11328.57813.03515.58984-.03515.59375-.11329.58594-.17968.55078-.24219.5039-.30469.42579-.16797.17968-.1875.15625-.1953.1211-.20704.09375-.21875.05469-.23047.01953-.23047-.01954-.21875-.05468-.20703-.09375-.19531-.1211-.1836-.15625-.17187-.17968-.30078-.42579-.2461-.5039-.17968-.55078-.10938-.58594-.03906-.59375h.83203l.03125.5625.07813.50781.1289.4414.16016.375.1914.30079.21094.22266.22266.13671.22656.04688.22656-.04688.22266-.13671.21094-.22266.1914-.30078.16016-.375.1289-.4414.08204-.50782.02734-.5625-.02734-.5625-.08203-.5-.12891-.4336-.16016-.36718-.1914-.29297-.21094-.21094-.22266-.13281-.22656-.04688-.22656.04688-.22266.13281-.21094.21094-.1914.29297-.16016.36719-.1289.43359-.07813.5-.03125.5625h-.83203l.03906-.58984.10938-.57813.17969-.54687.24609-.4961.30078-.41797.17188-.17578.18359-.14844.19531-.12109.20703-.08984.21875-.05469.23047-.01953m4.95313 0l.38671.02734.35938.08203.32031.13672.28125.1875.23047.23828.17188.28516.10937.33203.03906.375-.02343.27344-.0547.23828-.08983.19922-.10938.16797-.1289.14453-.14063.125-.28906.19531.23437.11719.20703.14844.1836.17187.15234.1914.125.21485.08984.23047.0547.24219.01952.25781-.03515.3086-.10157.32812-.17187.32422-.24219.30469-.30469.26953-.375.21484-.21093.08203-.23047.0586-.24219.03906-.26172.01172-.25781-.01172-.24219-.03906-.22265-.0586-.20704-.08203-.35937-.21484-.28906-.26954-.22266-.30468-.15625-.32422-.09375-.32813-.03125-.30859h.83203l.02735.2539.07812.23438.1211.21094.16015.1836.19531.15234.21875.11718.24219.07032.2539.02734.25391-.02734.24219-.07032.21875-.11718.19531-.15235.16016-.1836.1211-.21093.07812-.23437.02734-.25391-.02734-.2539-.07813-.23438-.1211-.21485-.16015-.18359-.19531-.15234-.21875-.11328-.24219-.07422-.2539-.02344-.25391.02344-.24219.07422-.21875.11328-.19531.15234-.16016.1836-.12109.21484-.07813.23437-.02734.25391h-.83203l.01953-.2539.05469-.23829.08984-.22656.125-.20703.15235-.1914.18359-.17188.20703-.15235.23047-.1328-.28516-.19532-.14062-.125-.1289-.14453-.10938-.16797-.08985-.19922-.05859-.23828-.01953-.27344h.78906l.01953.21485.0664.1914.10548.16797.13672.13672.16406.11328.1914.08203.20704.05078.21875.01563.21875-.01563.20703-.05078.1914-.08203.16407-.11328.13671-.13672.10547-.16797.0625-.1914.02344-.21485-.02344-.21484-.0625-.1914-.10546-.16407-.13672-.14063-.16407-.10937-.1914-.08203-.20703-.05078-.21875-.01954-.21875.01954-.20704.05078-.1914.08203-.16406.10937-.13672.14063-.10547.16406-.0664.1914-.01954.21485h-.78906l.03906-.375.10938-.33203.17187-.28516.23047-.23828.27734-.1875.32422-.13672.35938-.08203.38672-.02734"/><path fill="#ffffe0" fill-rule="evenodd" d="M310.67578 342.22656h22.17969v-10.1914h-22.17969v10.1914"/><path fill-rule="evenodd" d="M314.17578 333.86719h.50781v6.29297h-.78515v-4.48829h-1.39063v-.55468l.5586-.0664.2539-.0547.23047-.08593.20313-.14454.17187-.20703.14453-.29687.10547-.39453m4.8125 0l.23047.01953.21875.05469.20703.08984.19531.1211.1836.14843.17187.17578.30469.42188.24219.49219.17969.54687.10937.57813.03906.58984-.03906.59375-.10938.58594-.17968.55468-.24219.5-.30469.4297-.17187.17968-.1836.15234-.1953.125-.20704.08985-.21875.05859-.23047.01953-.23047-.01953-.21875-.0586-.20703-.08984-.19531-.125-.1836-.15234-.17187-.17969-.30469-.42969-.24219-.5-.17968-.55468-.10938-.58594-.03906-.59375h.83203l.03125.5664.07813.50391.1289.4414.16016.375.1914.30079.21094.22265.22266.13672.22656.04688.22656-.04688.22266-.13671.21094-.22266.1914-.30078.16016-.375.1289-.4414.08204-.50392.02734-.5664-.02734-.5586-.08203-.5-.12891-.4375-.16016-.36718-.1914-.28906-.21094-.21485-.22266-.13281-.22656-.04297-.22656.04297-.22266.13281-.21094.21485-.1914.28906-.16016.36719-.1289.4375-.07813.5-.03125.55859h-.83203l.03906-.58985.10938-.57812.17969-.54688.24218-.49218.30469-.42188.17188-.17578.18359-.14844.19531-.12109.20703-.08984.21875-.0547.23047-.01952m5.08985 0h.51171v6.29297h-.78906v-4.48829h-1.38672v-.55468l.5586-.0664.2539-.0547.23047-.08593.20313-.14454.17187-.20703.14063-.29687.10546-.39453m2.82422 2.17578h.78907l.01953-.3164.0586-.28516.09765-.25391.14062-.21484.1836-.17579.22265-.1289.26563-.07813.30469-.02734.23828.01953.22656.0625.20312.10156.1797.14063.14843.17187.11328.20704.07031.23437.02735.26563-.02344.26953-.0664.22265-.10938.1914-.15625.17188-.19922.16407-.2461.16406-.63671.39062-.53516.3125-.4375.31641-.34766.32422-.26562.33594-.1875.35156-.125.36719-.07031.39453-.01954.41797h4.21094v-.73829h-3.33203l.08203-.28515.11328-.23438.14844-.20312.1875-.17969.23047-.17187.27734-.17579.71875-.41796.41407-.20313.34765-.23047.28125-.2539.21875-.26563.16406-.27734.10938-.28516.0664-.28515.01954-.28125-.04297-.38282-.1211-.34765-.1875-.3086-.25-.26172-.30468-.21484-.34375-.15625-.3789-.09766-.41017-.03515-.43359.03125-.39844.10156-.35546.16406-.3047.23438-.24609.30469-.1875.375-.11328.4453-.04297.51954"/><path fill="#ffffe0" fill-rule="evenodd" d="M226.34766 353.79688h22.17968v-10.19141h-22.17968v10.1914"/><path fill-rule="evenodd" d="M229.84766 345.4375h.5078v6.29297h-.78905v-4.48828h-1.38672v-.55469l.5586-.0664.2539-.0547.23047-.08984.20312-.14062.17188-.21094.14453-.29297.10547-.39453m4.8125 0l.23047.01953.21875.05469.20703.08984.1953.1211.1836.14843.17188.17579.30078.41796.2461.4961.17968.54687.10938.57813.03906.58984-.03906.59375-.10938.58594-.17969.55078-.2461.5039-.30077.4297-.17188.17577-.1836.15625-.1953.1211-.20703.09375-.21875.05469-.23047.01953-.23047-.01953-.21875-.0547-.20703-.09374-.19532-.1211-.1875-.15625-.16797-.17578-.30468-.42968-.24219-.50391-.17969-.55078-.11328-.58594-.03516-.59375h.83204l.02734.5625.08203.50781.1289.44141.16016.375.19141.30078.21094.22266.22265.13672.22657.04687.22656-.04687.22266-.13672.21093-.22266.1914-.30078.16017-.375.1289-.4414.07813-.50782.03125-.5625-.03125-.5586-.07813-.5039-.1289-.4336-.16016-.36718-.1914-.29297-.21095-.21094-.22265-.1328-.22656-.04688-.22657.04687-.22265.13281-.21094.21094-.1914.29297-.16016.36719-.1289.4336-.08204.5039-.02734.5586h-.83203l.03515-.58985.11328-.57813.17969-.54687.24219-.4961.30469-.41796.16796-.17579.1875-.14843.19532-.1211.20703-.08984.21875-.05469.23047-.01953m5.08984 0h.51172v6.29297h-.78906v-4.48828h-1.38672v-.55469l.5586-.0664.2539-.0547.22656-.08984.20313-.14062.17578-.21094.14062-.29297.10547-.39453m2.82422 2.17578h.78906l.01953-.3164.0586-.28907.09765-.25.14063-.21484.17969-.17578.22265-.1289.26563-.07813.30859-.03125.23828.02343.22266.0625.20703.10157.17969.13671.14843.17579.11328.20312.07032.23828.02344.26563-.01954.26562-.0664.22656-.10938.19141-.15625.17188-.19922.16015-.25.16797-.6328.38672-.53517.3164-.4414.31641-.34375.32422-.26563.33594-.1875.35156-.125.36719-.0703.39453-.01954.41797h4.21094v-.73828h-3.33203l.08203-.28516.11328-.23828.14844-.19922.1875-.17969.23047-.17187.27734-.17578.71875-.41797.41406-.20313.34766-.23437.28125-.25.21875-.26563.16406-.27734.10938-.28516.0625-.28515.02343-.28125-.04297-.38281-.12109-.34766-.1875-.3086-.25-.26171-.30469-.21485-.34375-.15625-.38281-.10156-.40625-.03125-.4336.03125-.39843.09766-.35547.16796-.30469.23438-.2461.30469-.1875.375-.11718.44531-.03906.51953"/><path fill="#ffffe0" fill-rule="evenodd" d="M149.47266 427.9336h22.17968v-10.19141h-22.17968v10.1914"/><path fill-rule="evenodd" d="M152.97266 419.57422h.5078v6.29687h-.78905v-4.49218h-1.38672v-.5547l.5586-.0625.2539-.05468.23047-.08984.20312-.14063.17188-.21094.14453-.29687.10547-.39453m4.8125 0l.23047.01953.21875.05469.20703.08984.1953.1211.1836.15234.17188.17187.30078.42188.2461.49219.17968.54687.10938.57813.03906.59375-.03906.59375-.10938.58203-.17969.55469-.2461.5-.30077.42968-.17188.17969-.1836.15234-.1953.125-.20703.08985-.21875.0586-.23047.01952-.23047-.01953-.21875-.0586-.20703-.08984-.19532-.125-.1875-.15234-.16797-.17969-.30468-.42969-.24219-.5-.17969-.55468-.11328-.58203-.03516-.59375h.83204l.02734.5625.08203.5039.1289.44531.16016.375.19141.30079.21094.21875.22265.13671.22657.04688.22656-.04688.22266-.13671.21093-.21875.1914-.30079.16017-.375.125-.4453.08203-.50391.03125-.5625-.03125-.5625-.08203-.5-.125-.4375-.16016-.36329-.1914-.29296-.21095-.21485-.22265-.13281-.22656-.04297-.22657.04297-.22265.13281-.21094.21485-.1914.29296-.16016.36329-.1289.4375-.08204.5-.02734.5625h-.83203l.03515-.59375.11328-.57813.17969-.54687.24219-.4922.30469-.42187.16796-.17187.1875-.15235.19532-.12109.20703-.08984.21875-.05469.23047-.01953m5.08984 0h.51172v6.29687h-.78906v-4.49218h-1.38672v-.5547l.5586-.0625.2539-.05468.22656-.08984.20313-.14063.17578-.21094.14062-.29687.10547-.39453m2.82422 2.17578h.78906l.01953-.3164.0586-.28516.09765-.2539.14063-.21485.17969-.17188.22265-.1289.26563-.08204.30859-.02734.23828.01953.22266.0625.20703.10156.17969.14063.14843.17188.11328.20703.07032.23437.02344.26563-.01954.26953-.0664.22265-.10938.19141-.15625.17188-.19922.16406-.25.16406-.6328.39063-.53517.3125-.4414.3164-.34375.32422-.26563.33594-.1875.35156-.125.3711-.0703.39062-.01954.42187h4.21094v-.74218h-3.33203l.08203-.28516.11328-.23438.14844-.20312.1875-.17969.23047-.17187.27734-.17578.71875-.41407.41406-.20703.34766-.23047.28125-.25.21875-.26953.16406-.27734.10938-.28516.0625-.28515.02343-.28125-.04297-.38282-.12109-.34765-.1875-.3086-.25-.26171-.30469-.21094-.34375-.16016-.38281-.09765-.40625-.03516-.4336.03515-.39843.09766-.35547.16797-.30469.23438-.2461.30078-.1875.375-.11718.4453-.03906.51954"/></g></defs><use xlink:href="#aB"/></svg>