<svg xmlns="http://www.w3.org/2000/svg" role="img" xmlns:xlink="http://www.w3.org/1999/xlink" viewBox="163.05 348.05 301.39 101.89"><defs><clipPath id="a"><path d="M144 311.67188h324v168.65625H144zm0 0"/></clipPath><clipPath id="b"><path d="M144 479h4v1.32813h-4zm0 0"/></clipPath><clipPath id="c"><path d="M147 480h2v.32813h-2zm0 0"/></clipPath><clipPath id="d"><path d="M146 480h2v.32813h-2zm0 0"/></clipPath><clipPath id="e"><path d="M153 479h9v1.32813h-9zm0 0"/></clipPath><clipPath id="f"><path d="M160 480h3v.32813h-3zm0 0"/></clipPath><clipPath id="g"><path d="M159 480h2v.32813h-2zm0 0"/></clipPath><clipPath id="h"><path d="M166 479h9v1.32813h-9zm0 0"/></clipPath><clipPath id="i"><path d="M173 479h3v1.32813h-3zm0 0"/></clipPath><clipPath id="j"><path d="M172 479h2v1.32813h-2zm0 0"/></clipPath><clipPath id="k"><path d="M180 479h8v1.32813h-8zm0 0"/></clipPath><clipPath id="l"><path d="M187 479h2v1.32813h-2zm0 0"/></clipPath><clipPath id="m"><path d="M186 479h2v1.32813h-2zm0 0"/></clipPath><clipPath id="n"><path d="M193 480h9v.32813h-9zm0 0"/></clipPath><clipPath id="o"><path d="M200 480h3v.32813h-3zm0 0"/></clipPath><clipPath id="p"><path d="M199 480h2v.32813h-2zm0 0"/></clipPath><clipPath id="q"><path d="M206 480h9v.32813h-9zm0 0"/></clipPath><clipPath id="r"><path d="M213 480h3v.32813h-3zm0 0"/></clipPath><clipPath id="s"><path d="M212 480h3v.32813h-3zm0 0"/></clipPath><clipPath id="t"><path d="M220 479h8v1.32813h-8zm0 0"/></clipPath><clipPath id="u"><path d="M227 480h2v.32813h-2zm0 0"/></clipPath><clipPath id="v"><path d="M226 480h2v.32813h-2zm0 0"/></clipPath><clipPath id="w"><path d="M233 479h8v1.32813h-8zm0 0"/></clipPath><clipPath id="x"><path d="M240 480h2v.32813h-2zm0 0"/></clipPath><clipPath id="y"><path d="M239 480h2v.32813h-2zm0 0"/></clipPath><clipPath id="z"><path d="M246 479h9v1.32813h-9zm0 0"/></clipPath><clipPath id="A"><path d="M253 480h3v.32813h-3zm0 0"/></clipPath><clipPath id="B"><path d="M252 480h2v.32813h-2zm0 0"/></clipPath><clipPath id="C"><path d="M260 479h8v1.32813h-8zm0 0"/></clipPath><clipPath id="D"><path d="M267 479h2v1.32813h-2zm0 0"/></clipPath><clipPath id="E"><path d="M266 479h2v1.32813h-2zm0 0"/></clipPath><clipPath id="F"><path d="M273 479h8v1.32813h-8zm0 0"/></clipPath><clipPath id="G"><path d="M280 479h3v1.32813h-3zm0 0"/></clipPath><clipPath id="H"><path d="M279 479h2v1.32813h-2zm0 0"/></clipPath><clipPath id="I"><path d="M286 479h9v1.32813h-9zm0 0"/></clipPath><clipPath id="J"><path d="M293 479h3v1.32813h-3zm0 0"/></clipPath><clipPath id="K"><path d="M292 479h2v1.32813h-2zm0 0"/></clipPath><clipPath id="L"><path d="M300 479h8v1.32813h-8zm0 0"/></clipPath><clipPath id="M"><path d="M307 479h2v1.32813h-2zm0 0"/></clipPath><clipPath id="N"><path d="M306 479h2v1.32813h-2zm0 0"/></clipPath><clipPath id="O"><path d="M313 479h8v1.32813h-8zm0 0"/></clipPath><clipPath id="P"><path d="M320 479h3v1.32813h-3zm0 0"/></clipPath><clipPath id="Q"><path d="M326 479h9v1.32813h-9zm0 0"/></clipPath><clipPath id="R"><path d="M333 480h3v.32813h-3zm0 0"/></clipPath><clipPath id="S"><path d="M339 479h9v1.32813h-9zm0 0"/></clipPath><clipPath id="T"><path d="M346 480h3v.32813h-3zm0 0"/></clipPath><clipPath id="U"><path d="M353 478h8v2.32813h-8zm0 0"/></clipPath><clipPath id="V"><path d="M367 478h7v2.32813h-7zm0 0"/></clipPath><clipPath id="W"><path d="M380 478h8v2.32813h-8zm0 0"/></clipPath><clipPath id="X"><path d="M393 478h8v2.32813h-8zm0 0"/></clipPath><clipPath id="Y"><path d="M406 478h8v2.32813h-8zm0 0"/></clipPath><clipPath id="Z"><path d="M412 478h2v2.32813h-2zm0 0"/></clipPath><clipPath id="aa"><path d="M420 477h7v3.32813h-7zm0 0"/></clipPath><clipPath id="ab"><path d="M433 479h8v1.32813h-8zm0 0"/></clipPath><clipPath id="ac"><path d="M439 479h2v1.32813h-2zm0 0"/></clipPath><clipPath id="ad"><path d="M449 476h3v4.32813h-3zm0 0"/></clipPath><clipPath id="ae"><path d="M461 476h5v4.32813h-5zm0 0"/></clipPath><clipPath id="af"><path d="M144 466h4v2h-4zm0 0"/></clipPath><clipPath id="ag"><path d="M144 453h4v2h-4zm0 0"/></clipPath><clipPath id="ah"><path d="M144 439h4v2h-4zm0 0"/></clipPath><clipPath id="ai"><path d="M144 426h4v2h-4zm0 0"/></clipPath><clipPath id="aj"><path d="M144 412h4v3h-4zm0 0"/></clipPath><clipPath id="ak"><path d="M465 410h3v2h-3zm0 0"/></clipPath><clipPath id="al"><path d="M144 398h4v4h-4zm0 0"/></clipPath><clipPath id="am"><path d="M465 397h3v2h-3zm0 0"/></clipPath><clipPath id="an"><path d="M144 385h4v4h-4zm0 0"/></clipPath><clipPath id="ao"><path d="M465 384h3v2h-3zm0 0"/></clipPath><clipPath id="ap"><path d="M144 370h3v8h-3zm0 0"/></clipPath><clipPath id="aq"><path d="M466 371h2v2h-2zm0 0"/></clipPath><clipPath id="ar"><path d="M144 357h3v7h-3zm0 0"/></clipPath><clipPath id="as"><path d="M144 343h1v8h-1zm0 0"/></clipPath><clipPath id="at"><path d="M144 343h2v2h-2zm0 0"/></clipPath><clipPath id="au"><path d="M466 345h2v3h-2zm0 0"/></clipPath><clipPath id="av"><path d="M144 330h1v8h-1zm0 0"/></clipPath><clipPath id="aw"><path d="M144 328h3v3h-3zm0 0"/></clipPath><clipPath id="ax"><path d="M466 332h2v2h-2zm0 0"/></clipPath><clipPath id="ay"><path d="M144 316h1v9h-1zm0 0"/></clipPath><clipPath id="az"><path d="M465 317h3v3h-3zm0 0"/></clipPath><g id="aA" clip-path="url(#clip1)"><path fill="#fff" fill-opacity="0" fill-rule="evenodd" d="M.0586 0h1000v1000h-1000zm0 0"/><path fill="#d3d3d3" fill-opacity="0" fill-rule="evenodd" d="M162.21094 355.86719l-.23438.29297.0586.23437.11718.17188.17578.23437.29297.34766.11328.0586.1172-.17188.05859-.23438.17578-.17578.46484-.17578h.69922l.23438.29297.28906.8164.0586.17579.17577.23046.35156.23438.69922.69922.17188.17578.23437.34765.23438.41016.28906.58203.41016.46485.23047.23437.23437.17578.11719.23047.17578.29297.17188 1.16406v.23438l.05859.28906.0586.11719.11718.11719.34766.41015.11718.17188.17578.17578.17579.23437.11718.17188.17188.35156.0586.23438.23437.40625.23437-.0586-.17578.17578-.0586.92969h-.58202l-.23438-.11328-.34766.11328-.11718.11719-.0586.29297-.05859.17578-.11719.17187-.46484.29297-.0586.23438-.05859.11328v.64453l.0586.17187v.41016l.05859.0586v.40624l.0586.40625.11718.17579.0586.05859.23046.64062-.0586.29297v.69922l-.05858.58203v.23438l-.0586.23047-.05469.35156v1.92187l.0547.1172h.42577l-.36719.11718-.02343.35156.89062 1.16797 1.74219.53906 1.33984.35938v.53906l.08985.8086.53515.71484 1.51953.26953.89063-.08594.08984 1.16406.53516.1797 1.16016-.1797 2.05468-.98437 1.16016-.36328 1.8789-.17578 1.69532-.1797-.17969.71876-1.51562.08594-1.25.08984-.8047.26953-1.07421.8086.26953.71875.53516.89843-.17969.625-.26563.8086.26563 1.07812.625.89844.80469.17969 1.25-.1797-.26563.72267.09766.5039.05469.29297v.17188l.05859.29296v.40625l.17578.1172.35156.11718h.40625l.29297-.17578.11328-.11719.0586-.11719.11719-.23047.05859-.17578.35156-.46484.23047-.17578.17578-.0586.17578.0586.0586.17578.11718.98828.0547.46875.05858.17188.1172.23437.17577.0586.81641.05859h.28906l.11719.23437.0586.40625.05859.35156v1.10547l.11719.29297.11718.34766.28906.69922.17579.35156.58203.7539.35156.17579.17188.0586.46875.23437.64062.46484.34766.23438.29297.17578.29296.05468.23047.0625.8164.34766.29298.17578.11328.17188.35156.35156.11719.17578.52344.64063v.28906l.05859.35156v.34766l.0586.35156.05859.28906.11719.0586.17187.05859h.17578l.58203.23437.17578.1172.17578.28905.17579.23438.11328.23437.29297.23047.11718.11719v.41016l.0586.05468.28906.23438.23438.11719.05859.11718.11719.17188.05859.11719.23047.23437.0586.17578.23437.0586.11719.05859-.1172.11328-.05859.11719v.11719l-.11718.29296-.1172.28907v.58203l.17579.11719.11719.05859.0586.11719.11718.11719.11328.05859.17578.34765.0586.35157.05859.40625v.17578l-.0586.17578-.11718.69922v.17187l.11719.17579.29296.29296h.40625l.17578.1172.1172.17187.11718.29296v.23438h-.52734l-.23047-.23438h-.23438l-.17578.0586-.0586.69922.0586.34765.11719.17579.17578.41015.11719.23047.28906.46875.17578.05469h.52344l.23437.0586.75782.64062.05859.29296v.23438l.0586.0586.23046.34765v.35156l-.11719.17188v.29297l.29297.28906.29297.17578.17188.0586.29297.17577.29297.1172.58203.40624.28906.23438.29297.17578.21875.16015.01562.01172.23047.17579.64063.52343.17578.23438.11719.17578.17578.17578.11328.17188v.64062l.11719.17578.46875.11719.58203.11719.23437.05859.23047.11328.29297.11719.11328.0586.58594.35156.28906.17187.17578.0625.17578.05469.17578.0586.69922.35155.28906.17579.23438.05468.28906.17578.23438.1172.64062.40624.29297.11719.17188.0586.23437.05859.41016.05859.23047.0586.23437.11718.0586.17188-.41016.17578.46875.0586.0586.29296.11327.23438.17578.05468.23438.0586.17578.05859.40625.11719.64063.23437.11718.17188.0586.23437v.17578l-.0586.1172-.05859.40624.23438.23438.11718.05859.34766.11719.64062.23047.17578.11718.28907.1172.17578.17577.23437.46485.58203 1.10546.17579.17579.34765.17578.17578.11719.35157.11718 1.04687.52344.23438.0586.46484.11327.29297.0586.46484.17578.75781.58203.23438.23438.34766.46484.17578.17578.28906.23438.8164.69921.29298.17579.28906.28906.29297.17578.29297.28906.6953.64063.17579.17578.29297.23437.28906.23438.46875.28906.64063.58203.34765.23438.23438.29297.34765.34765.35156.46485.9336.99218.34766.40625.11718.17579.23438.05859.11328.11719.64453.17578.23047.11328.23437.0586.29297.17577.23047.1172.9336.69921.40625.40625.23437.17578.40625.17578.23438.11719.8164.34766.34766.23437.23437.11719.29297.28906.23047.11719.75781.35156.35156.17188.23047.05859.29297.11719.23438.0586.8711.17577h.8164l.46875.23047.17187.0586.875.69921.46485.1172.29297.05858.17578.0586.23047.0586.46875.05859.34765.05859.35156.0586.40625.05859h.29297l.17188.0586v.23046l.17578.17578h.29297l.34765.0586.35157.05859.69922.11719h.64062l.46484-.23438.29297-.17578.17188-.11719.41015-.17187.28907-.17578.93359-.46485.46875-.29297.52344-.29296.46484-.17188.46484-.17578 1.05079-.46485.28906-.11718.41016-.11719.28906-.11719.52734-.17578 1.51563-.69922.58203-.34765.28906-.0586.29297-.0586.34766-.11718.875-.23047.35156-.11719h.11328l.23437-.05859.875-.23437.23438-.0586h.8125l.35156-.0586.8164-.11718.17188-.0586.35156-.05468.29297-.0586.23047-.05859.8164-.17578.17579-.0586h.34766l.23437-.05859.46485-.11718.7578-.17188.23438-.0586h.34766l.41015-.11718.28907-.0586 1.28515-.05859h.28907l.41015-.0586.23047-.05858h.17578l.875-.1172h.40625l.41016-.11718h.34765l.35157-.11328.8711-.0586h1.75l1.04687.28907.41015.11719.28906.11718.35157.11719.28906.11719 1.05078.17187.28906.0586h.29297l.29297.05859.17188.0586.41015.05859.17188.0586.11719.05858h.11718l.11719.0586.35156.0586h.11328l.41016.0664 1.92188.39453 1.92578.39453 1.51953.44922 1.69531.71875 2.14453.80469 1.60547-.71875 1.42969-.80469 1.16015-1.07813 1.25-.44921 3.03516-.71875 1.875-.35938 2.14453-1.34765 2.23438-1.25391 2.5-1.25781 1.6953-.44922 1.78517-.17969 1.16015-.26953.625.53906 1.33985-.26953.71484-.98828.98437-1.34375.44532-.17969.80468-.35937 1.875-.53907 1.78516-.44921 1.25-.26954 1.16016-.08984 1.69921-.08984 1.96094-.26954 1.25-.08984h.53906l.625-.08984h.89063l2.14453-.17969 2.41016-.17969 2.58984-.08984 1.69531.17969 1.60938.08984 1.42969.35938 1.16015.71875 1.875.98828 1.16016 1.52734.26562.71484.62891.08985.35547.89844.53515.53906.53516 1.52734 1.07422.35938h.53516l-.8047.53515.08985 1.70703.71485 2.69532.89062.80468.89453.98829.71485 1.2578 1.78515.53907 1.51953-.17969.35547 1.34375 1.60938-.80469.98047-.53906.26953.26953.3164-.21484.21875-.14453.80079.44922.44921-.35938h.35547l.53516-.26953.53906-.71875.53516-.26953.625-.98828 1.16015.44922.83985.3711 1.39453.61718 1.69531-.17969h1.60547l1.78516.08985.17968-1.70704.53516-1.34375.80469.26954.49219.84765.40234.40625-.08985.53906v.35938l.71485.44922.71094-.26953h1.42968l.35938.98828.44531 1.25781.71485 1.34375 1.25.6289 1.6953.62891.71485-.17969.17969-.53906.98047-.08984.44922.35937.08593 1.25782-.26562.6289-.53516.17969v.53906l.71485.98438.26562.53906.98438.98828.80078 1.07813-.26563.35937-.08984.89844-.625 2.33203-.35547 2.0664-.08984 1.79298-.1797.71875-.08983.53906v1.4375l-.98047 1.88281-.35938 1.70703-.53515.89844-.8047 1.16797-.26562.53906 2.05469 1.2539.08594.35938-.35547.53906-.08985-.17968v.80859l.08985 1.4375-.44531.71484-1.07422.09375-.26563.71485.53516.89844.80469.71875 1.16015.80859 1.33985.26953.4453.35938-.35546.44921-1.78906-.08984-1.25-.44922-.71485-.71875-.625-.08984-.17578 3.58984-.1875 1.3086h89.35938V311.70313h-55.26953v49.08203l.76171.125 3.28907.54296 2.02344 2.83594v2.7539l2.35156.33204 2.34765.33203h4.05079l-1.37891 4.16016-2.02344.70703-2.02344.70312-.54296.34375-2.59375 1.6172-.1875.11718-2.02344-2.07813-.73047-2.74218-2.67188-2.07813-1.375-3.5-.0664-.08203-1.95703-2.67188 2.75-1.41796v-49.08204h-118.2422v91.41407l.1172.03125.1328.01172.07423.07421.10547.04688.08984.0586.08594.05859.08984.0586.29688.29687.05859.08984.03125.11719.02734.11719.01563.13671-.03125.1172-.0586.08983-.05859.08594-.04297.10547-.04687.10156-.02735.1211v.14453l.17579.26953.14843.14844.07422.08594.07422.07421.04297.10547.0625.08985.0586.08593.04296.10547.0586.08985.04687.10156.04297.10547.0586.08594.11718.17968.07422.07422.0625.08594.0586.08984.04296.10547.0586.08985.05859.08593.0625.08985.0586.08984.04296.10156.11719.17969.07422.07422.0586.08594.07421.07421.08984.0586.10547.04687h.14844l.13281-.01562.13281.01562.10157-.04687.07422-.07422.04687-.10156-.01562-.13281v-.14844l-.04688-.10547-.02734-.11719-.04688-.10156-.02734-.1211-.04297-.10156-.0625-.08984-.04297-.10156-.04297-.10547-.03125-.11719-.01562-.13281-.01172-.13672.08594-.0586.05859-.08593.1211-.03125.04296.10547.01563.1328v.1172l.0586.10156.05858.08984.08985.0586.14844.14843.05859.08985.04297.10547-.01172.10156.08594.0586.10547.04687.08593.0586.08985.05858.07422.07422-.1172.02735-.10546.04687-.08594.0586-.07422.07421-.05859.08985-.0625.08594-.02734.12109-.04688.10156-.04297.10547-.03125.11719-.01172.13281-.01562.13281v.14844l.02734.11719.04688.10547.04297.10156.05859.08984.07422.07422.08984.0586.07422.07421.08985.0586.05859.08984.04297.10547.04687.10156.11719.03125.13281.01563h.14844l.11719-.03125.10547.04297.04296.10547.04688.10156.02734.1211.03125.11718.02735.11719.03125.1211.02734.11718.10547.04297.10156.04687.13281-.01562.14844.14844.0625.08593.07422.07422.07031.07422.08985.0625.10547.04297.10156.04297.11719.03125.13671.01562.1172-.03125.07421-.07422.02735-.11718-.01172-.13282-.03125-.12109-.02735-.11719.04297-.10547h.11719l.08984.0625.11719.02735h.14844l.13281.01562h.14844l.13281.01563.13281-.01563h.14844l.13281-.01562.13281-.01172.13672.01172.1172-.02735.1328-.01562.19141-.0586-.0586.17579-.01562.1328-.02734.1211-.01563.13281-.0586.08594-.1328.01563-.10547.04687-.10547.04297-.11719.03125-.11719.02735-.26562.03125h-.14844l-.13281.01562-.07422.07422.0586.08594.14843.14843.11719.1797.07422.0703.08984.0625.08985.0586.08593.0586.08985.05858.10156.04297.10547.0625.10547.04297.08593.0586.10547.04687.10156.04297.1797.11719.05859.08984-.04297.10156-.04688.10547.01563.13281.22265.22266.0586.08985.04297.10156.03125.1211.04296.10155.01563.13282.03125.11718.01172.13672.03125.11719.14844.14844.10156.04297.10547.04296.11719.03125.1328.01563.13673.01563h.11718l.1172-.03125.08983-.0586.04297-.10547.04688-.10156.04297-.10547.03125-.11719.01172-.1328v-.14845l-.01172-.1328-.01563-.13282-.03125-.11719-.04297-.10547-.04687-.10547-.04297-.10156-.04297-.10547-.01562-.13281.01562-.13281.02735-.11719.03125-.11719.02734-.1211.04687-.10155.08985-.0586.08594-.0625.07421-.07422.08985-.05859.22265-.22266.0586-.08593.07422-.07422.11718-.17969.0586-.08594v-.14844l-.07422-.07421-.10156-.04688-.10547-.04297-.10156-.04297-.0586-.08984-.04687-.10547-.02735-.11719.08985-.05859.11718-.03125.10157-.04297.17968-.11719.14844-.14843.01172-.13282-.01172-.10546-.08984-.0586-.13281.01563h-.14844l-.13281.01562-.13282-.01562-.1211-.03125-.08593-.0586-.07422-.07422-.0586-.08984-.0625-.08594-.11718-.17969-.0586-.08593.03126-.1211.08594-.05859.12109-.03125.0586-.08594v-.1211l-.03126-.11718-.0586-.08984-.05858-.08594-.04688-.10547-.02734-.11719-.01563-.1328.0586-.08985.07421-.07422.08985-.0586.11719-.17968.07421-.07422.0586-.08594.14844-.14844.12109-.03125.13281-.01562.13281.01562.07422.07422.04297.10547.01563.13281-.03125.1172-.1172.03124-.1328.01172-.14844.14844-.04297.10547-.04688.10156-.02734.1211-.03125.11718v.14844l.03125.11719.04297.10546.0586.08985.07421.07031.07422.07422.11719.03125.1211.02734.11718-.02734.13281-.01563h.11719l.08984.0586.07422.07422.04688.10546.0586.08594.10155.04688.13282.01562.10546.04297.08594.0586-.01172.10546-.07421.07422-.1797.11719-.05859.08984-.08984.0586-.07031.07422-.07422.07421-.0625.08985-.02735.11719-.01562.1328.01563.13282-.01563.13281v.14844l.01563.13281.02734.1172.03125.12108.07422.07422.08984.0586.08594.0586.08984.05858.11719.03125v.08594l-.10156.04688-.08985.0586-.26562.03124-.11719.02735h-.14844l-.10546.04296-.10157.04688-.0586.08984-.0625.23438-.01171.13281-.03125.1211-.01563.1328v.29298l-.01171.1328.01171.13673.01563.1328.13281.01563.13281.01172.1211.03125.08594.0586.07421.07421.04688.10547.04297.10157.01562.1328v.44532l-.01562.13281v.44532l.03125.26562.02734.11719.01563.13281.03125.11719.08594.21094.03125.26562v.14844l-.03125.11719-.02735.11718-.03125.1211-.02734.11719-.03125.11718-.03125.1211-.01172.1328-.01563.13282.08985.0586.11719-.03125.10156.01562.04687.10547-.03125.26562v.44141l-.04297.10547-.04687.10547-.04297.10156-.04297.10547-.0586.08594-.03124.12109-.04297.11719-.03125.11719-.01563.1328.01563.13282.0586.08984.10546.04688.08594.0586.0586.08593-.01173.13672-.03125.11719-.04296.10156v.44531l-.01563.13281v.14844l-.03125.11719-.04297.10547-.02734.11719-.04688.10546-.04297.10157-.03125.12109-.02734.11719-.03125.13281-.03125.11719-.02734.11719-.04297.10546-.03125.1172-.03125.12108-.01172.13282-.01563.13281v.29688l.02735.11718v.14844l.04687.39844.02735.11719.05859.08984.1211.03125h.14843l.13281-.01563.0586.08985v.11719l-.0586.08984-.08984.0586-.10156.04296-.10547.04688-.08985.05859-.08593.0586-.13672.01562-.11719-.03125-.13281-.01563-.10156.04688-.0625.08594-.01172.13671-.01563.13282-.03125.11719-.02734.11718-.01563.13281-.03125.1211v.29687l.01563.13282.03125.11718v.14844l.01172.13281v.14844l-.02735.11719-.04687.10156-.02735.1211-.03125.11718-.05859.08985-.07422.07421-.10156.04297-.10547.04688-.11719.02734-.12109.03125-.10156-.04687.0586-.08594.10546-.04688.02734-.11718.03125-.11719.02735-.1211.03125-.11718v-.14844l.01562-.13281-.03125-.11719-.04297-.10547-.10546.01563-.07422.07422-.10157.04296-.08984.0625-.07422.07422-.04297.10157-.01562.1328-.03125.1172-.02735.12109-.03125.11719-.02734.11719-.03125.12109-.02734.11719-.03125.11718-.04297.10547-.08985.0586h-.08984l-.11719-.03125-.03125-.08594.01563-.13672-.03125-.11719v-.14844l-.01172-.1328v-.14844l-.0625-.23438-.02735-.1211-.04296-.10156-.04688-.10546-.0586-.08594-.05859-.08985-.04296-.10546-.0625-.08594-.14844-.14844-.07031-.07422-.10547-.04687-.10547-.04297-.10156-.04297-.29688-.29688-.08984-.07421-.08594-.0586-.10547-.04297-.08984-.0625-.08594-.0586-.10547-.04296-.08984-.0586-.08594-.0625-.07422-.0703-.10547-.04688-.08594-.0586-.10546-.04296-.08985-.0625-.10156-.04297-.10547-.04297-.08594-.0586-.10547-.04687-.10546-.04297-.10157-.04687-.08984-.0586-.10156-.04297-.10547-.04296-.08985-.0625-.11718-.02735-.13282-.01562-.1328.01562h-.14845l-.1328.01563-.1172-.03125-.08984-.0586-.07422-.07422-.08984-.05859-.10156-.04688h-.14844l-.1211-.02734-.10156-.04297-.07422-.07422-.11719-.17968-.08984-.0586-.10156-.04297-.08985-.0625-.10546-.04296-.08985-.0586-.08594-.0586-.10546-.04687-.0586-.08594-.0586-.08984-.04296-.10547-.04688-.10156-.07421-.07422-.08594-.0586-.07422-.07421-.08984-.0586-.22266-.22265-.04297-.10547-.03125-.26563.10547-.04296h.14453l.10547.04296.07422.07422.08984.0586.08594.0586.10547.04687.08984.05859.14844.14844.07031.07422.14844.14843.0625.08594.07422.07422.08594.0586.07421.07421.08985.0625.08984.0586.08594.05859.26953.17578.10156.04688.10547.04296.10156.04297.04688-.07421.0586-.08594.07421-.07422.07031-.07422.10547.04297.07422.07422.0586.08984.04296.10156.04688.10547.04297.10547.1211.02735.11718-.02735.07422-.08984.04297-.10547.0586-.08985.07421-.07421.10547-.04297.11719-.02735.1328.01172.08985.0586.14844.14843.0586.08985.04296.10547.04688.10156.04297.10547.04296.10156.10547.04688.10547.04296.13281.01563.08594-.0586.0586-.08984.07421-.07422.10547-.04297.1172.02735.10546.04687.10156.04297.10547.04297.10156.04688.1797.11718v.11719l-.01563.13281.01562.13281.01563.13672.05859.08594.10156.04688.1211.02734.11718.03125h.14844l.11719-.03125.0586-.08984.17968-.1172.0586-.08983.07421-.07422.0586-.08594.11718-.17969.1797-.11719.11718.03125.08984.0586.04297.07422-.01562.1328v.1172l.08984.05859h.14844l.13281-.01563.13281-.01171.26563-.03125.10547-.04297.11718-.03125.1211-.02735.07422-.07421.0703-.07422.0625-.08985-.01562-.10547-.04687-.10156-.10156-.04297-.10547-.01562-.11719.02734-.26563.03125h-.14843l-.07422-.07422-.08985-.0586-.11718-.03124-.11719-.02735-.13281-.01562H304.25l-.13281.01563h-.29688l-.10547-.04688-.14843-.14844-.04297-.10156-.0586-.08984.22266-.22266.08594-.0586.10547-.04296.11718-.03125.13282-.01563.1328.01563.13673.01562.10156.04297.13281-.01172.08985-.0625.10156-.04297.0625-.08984-.04688-.10156-.08984-.0586-.11719-.03125-.10156-.04296-.0586-.08985-.0625-.08984v-.11719l.01563-.13281.10547-.04688.07422-.07031v-.1211l-.08985-.05859-.03125-.11719.08985-.05859.07422-.07422.04297-.10547.05859-.08984.04688-.10156.01562-.13281v-.14844l-.04688-.10547-.04296-.10156-.08985-.0586-.13281-.01562-.10156-.04297-.13672-.01563-.11719-.03125h-.44531l-.13281-.01562-.13282-.01172-.1328-.01563-.1172-.03125h-.14843l-.13282-.01562-.1328-.01172-.26563-.03125-.1211-.04297-.08594-.0586-.07421-.07421v-.14844l.01171-.13281.10547-.04688.10157-.04296.1328-.01563h.15235l.13281-.01562h.29297l.1211.03125.10156.04296.08984.0586.23438.0625.1211-.04688.08984-.05859.10156-.04297.13281-.01562.10547.04296.10156.04688.13281.01172.1211-.02735h.14453l.1211-.03125.11718-.02734.10547-.04687.07422-.07422.08594-.0586.14843-.14843.0586-.08594.04687-.10547.02735-.11719.01562-.10547-.10156-.04296-.08985-.0586-.11718-.03125-.10547-.04297-.08985-.0625-.07421-.08594-.07422-.07421-.10156-.04297-.10547-.04688-.10157-.04297-.05859-.08984-.04688-.10156-.08593-.21094-.0625-.08594-.0586-.08984-.07421-.07422-.08594-.0586h-.26953l-.1172.03126-.08983.05859-.10157.04297-.13281.01562-.10547-.01562-.02734-.11719-.0625-.08984-.11719-.03125-.10156-.04297-.14844-.14844-.03125-.11719-.01563-.10546.07422-.07422.1797-.1172.11718-.02733.11719-.03125.13671.01562.10157.04297.10547.04297.10156.04687.10547.04297.11719.03125.1328.01563.1172.02734.1328.01563.10548-.01563.08984-.0586-.07422-.07421-.10547-.04297-.07422-.07422-.07421-.08984-.14844-.14844-.08594-.0586-.08984-.05859-.07422-.07422-.08985-.0586-.10156-.04687-.1211-.02734-.10156-.04688-.10546-.04296-.1172-.03125-.10155-.04297-.1211-.03125h-.14844l-.11718.03125-.10547.04297-.08594.0625-.17969.11718-.08593.0586-.08985.0586-.10547.04687-.08593.05859-.10547.04297-.10156.04297-.10547.04687-.07422.07422-.0586.08985-.05859.08593-.04688.10547-.05859.08594-.07422.07422-.13281-.01172-.11719-.03125h-.11719l-.07421.07422-.08985.0586-.07422.07421-.08984.0586-.08594.05859-.10547.04687-.10156.04297-.13672.01563-.10156-.04297-.14844-.14844-.10547-.04688h-.08593l-.10547.04688-.10156.04297-.1211.03125-.11719-.03125-.07421-.07422v-.11719l.03125-.1211.07421-.0703.0586-.08985.07422-.07422.11718-.03125.10547-.04296h.29297l.13281-.01563.13672-.01563.10156-.04296.08985-.0586.10156-.04687.08985-.0586.1328-.01171.08985.05859.13281.01172.08985-.0586.08594-.05859.10546-.04297.08985-.0586.08594-.0625.08984-.05859.14844-.14843.05859-.08594.0586-.08985.10546-.04296.13281-.01563.1172.02735.12109.03125.05859-.0586.0586-.08984.03124-.26563.02735-.11719.10547.01172.1328.01563.10157-.04297.08985-.0586.05859-.08984.07422-.07422.0586-.08984.04687-.10156.01171-.13281-.01171-.13282-.04688-.10547-.14844-.14843-.05859-.08985-.0586-.08594-.04296-.10546v-.44532l.01562-.1328v-.14845l.01172-.1328-.0586-.0586-.08984.0586-.10156-.04298-.17969-.11719-.08593-.05859-.0625-.08984-.0586-.08985-.07422-.07421-.08593-.0586-.1211.03125-.10156.01172-.10547.04688-.08594.05859-.10546.04297-.14844.14844-.08985.05859-.08593.0586-.08985.0625-.10547.04296-.1328.01563v-.1211l.10546-.04297.11719-.03125.07422-.0703.04296-.10548v-.14844l-.02734-.11718-.14844-.14844-.1328-.01563h-.14845l-.11718.03125-.10547.04297-.10156.04297-.08985.0625-.11719.02735-.07421-.07422.01171-.13281-.04296-.10157-.04297-.10547-.08985-.05859-.11719.02734-.12109.03125-.11719.03125-.10156.04297-.1211.03125-.10156.04297-.10546.04297-.08985.0586-.10156.01562v-.11719l.01563-.13281-.0586-.08985-.07422.04297-.14844.14844-.05859.08985-.07422.07421-.04687.10547-.04297.10156-.07422.07422-.0586.08985-.07421.07422-.0586.08593-.07421.07422-.08985.0625-.07422.07031-.07422.07422-.10156.01563-.13281.01562-.10547-.04296v-.1211l.14844-.14844.04297-.10156.05859-.08984.04688-.10156.04296-.10547.0586-.08985.03125-.11719.04297-.10156.03125-.1211.02734-.11718.04688-.10547.04296-.10156.04297-.10547.07422-.07031.08985-.0625.08984-.0586.10156-.04296h.29688l.26562-.03125.10547-.04297-.07422-.07422-.11719-.03125-.10546-.04297-.08985-.0586-.10156-.04687-.08985-.0586-.10156-.04296-.10547-.04297-.08984-.0625-.08594-.0586-.10547-.04296-.10156-.04297-.1211-.03125-.11718-.03125-.10156-.04297-.1211-.03125-.10156-.04297-.08984-.0586-.04297-.10546-.01563-.13281.10157-.04297.1328-.01563.13673.01563.13281-.01563.10156-.04297.0586-.08984.01562-.10547-.08984-.0586-.07422-.07421-.10156-.04297-.08985-.0586-.14844-.14843-.04296-.10547-.01563-.13281v-.29297l-.0586-.08985-.08984-.05859-.07421-.07422-.04297-.10547-.03125-.11718-.0586-.08985-.07422-.07422-.11718-.02734-.07422-.07422-.08985-.0586-.08984-.0625-.08594-.05859-.07422-.07421-.05859-.08594-.04688-.10547-.08593-.0586-.14844-.14843-.19531-.0586-.13281.01563-.10157.04297-.07422.07422-.04687.10156-.04297.10547-.0586.08984-.05859.08594-.29687.29687-.08985.0586h-.08593l-.0625-.08594-.04297-.10547.03125-.11719.0586-.08984.02733-.11719-.01171-.13281-.08985-.0625-.10547.04688-.11718.02734-.1172.03125-.26952.17578-.10156.04688-.1172.02734-.10546.04687-.08985.0586-.10156.04297-.0586-.08594-.04687-.10547.01563-.13281.04687-.10547.07032-.07422.07421-.07031.0586-.08985v-.14843l-.04297-.10547h-.23828l-.10156.04687-.03125.11719-.02735.11719-.03125.1211-.07422.04296-.1328.01563-.07423-.04688-.04297-.10156-.04296-.10547L293 407.1289l-.04297-.10547-.1211.03125-.10156.04297-.1328.01562-.1172.03125-.10546.04297-.08985.0586-.10156.04687-.1211.02734-.1328.01563-.10157-.04297-.0586-.08985-.04687-.10546-.04297-.10157-.04296-.10546v-.1172l.05859-.08984.08594-.05859.17968-.11719.10157-.04687.10546-.04297.10547-.0586.10157-.04296.08984-.0625.10156-.04297.10547-.0586.10156-.04687.08985-.0586.10547-.04296.10156-.04297.08984-.0625.10156-.04297.13672-.01563.1172.03125.10155.04297.1211.03125.10156.04297.10547.04688.10156.04296.10547.04297.10156.04688.10547.04297.10156.04297.10547.04687.08594.0586.10547.04296.11719.03125.10546.04297.10157.04688.08984.0586.10547.04296.10156.04297.10547.04687.11719.02735.10156.04687.1211.02735h.14843l.08594-.0586.01563-.10156.05859-.08984-.02735-.1172-.07421-.07421-.1172-.17969-.07421-.07422-.08984-.07421-.1797-.1172-.08593-.05859-.10547-.04296-.10156-.04688-.26953-.17578-.0586-.08985-.07421-.07421-.0586-.08985-.04297-.10156-.03125-.11719-.01562-.13672v-.5625l-.01172-.1328-.01563-.13282-.03125-.11719-.01562-.13281-.01172-.13281-.03125-.1211-.22265-.22265-.0586-.08594-.01562-.10547.03125-.11719.1328-.01562v-91.41406H173.05079v1.45312l-.0586.23438-.35155 1.05078-.17188.52343-.11719.34766-.17578.41016-.11719.17187-.23437.29297-.23047.0586h-.35156l-.11719.05859-.23047.40625v.29297l.11719.17578.23047.23047.11719.23437.64062.75781.29297.46485.17578.23437.23047.35156.23437.34766.64063.8164.17578.46485.17188.41016.11718.69531.17578.46875.1172 1.39844.05858.46484v.875l.1172 1.04688v4.78125l-.0586.46484-.35156 1.28125-.17578.52344-.11329.41015-.35156.9297L172.9922 336l-.23438.58203-.11719.17578-.17187.34766-.17578.40625-.35156.8164-.0586.29297-.11328.29297-.11719.28906-.05859.17579-.11719.875-.0586.40625-.05858.11718-.0586.17579-.0586.17187-.23046.52734-.11719.17188v.23437l-.11719.23438-.05859.17187-.17578.58594v.28906l-.0586.17579v.29296l-.05859.11329-.0586.52734v.17187l-.05468.23438v2.6211l-.17578.8164-.11719.17578-.17578.23438-.11719.17187-.11328.23438-.58594.93359-.23047.28906-.29296.46485-.17578.23437-.28907.35156-.35156.69922-.11328.23047-.17578.41016-.17578.23046-.40625.52735-.81641.69922-.29297.17187-.28906.23438-.17578.11719-.17578.17578-.52344.40625-.52734.17578-.17188.17578-.23438.05469-.64062.17578h-.75781m12.21094 31.02344l-1.07422.44921.35937.89454 1.25-.71485.44531-.53906-.98047-.08985"/><path fill="#d3d3d3" fill-opacity="0" fill-rule="evenodd" d="M201.5664 416.59766h-.89452l.44921.6289.98047.35938.80469-.08985.44531-.98828-.17578.08985-.71484-.35547-.89453.35547m154.62109 59.0703l-.0586-.52343v-.29297l.11329-.29297.0586-.23046.46874-.46875h.11328l.11719-.11329.11719-.05859h.17578l.23437-.0586h.34766l.23438.0586.11718.0586.23047.17187.0586.17578.11718.58203v.29297l-.11719.17578-.17187.28906-.17578.17579-.52735.52343-.23046.23438-.1172.0586h-.17577l-.11719-.0586-.40625-.29297-.17578-.11719-.11719-.0586-.0586-.11327-.05468-.1172m6.64063-10.95702l-.0586-.17188v-1.10937l.0586-.17188.17578-.0586.17187-.05858h.17578l.23438-.0586.11719.0586.05859.69921-.0586.17188-.11718.17578-.11719.0586-.23438.52343-.11328.0586h-.23437l-.0586-.1172m9.61329-14.39062l-.1172-.17578v-.69922l.29298-.875.11719-.17187.17578-.35156.11328-.23047.11719-.29297.35156-.75781.11719-.23047.17187-.23438h.17578l.11719-.0586h.64062l.1172.0586.23437.23438.17187.11328.35156.29297.1172.11718.11327.17579v.11328l.11719.05859.11719.11719v.69922l-.0586.17578v.23047l-.05859.17578-.34766 1.05078-.11718.23047-.1172.23437-.11718.0586-.23047.23437-.64062.28906h-.875l-.41016-.11718-.64062-.46485"/><path fill="none" stroke="#bebebe" stroke-linecap="round" stroke-linejoin="round" stroke-miterlimit="10" stroke-width=".5" d="M0 311.69531h0v168.625h0v-168.625"/><g clip-path="url(#a)"><path fill="#fff" fill-opacity="0" fill-rule="evenodd" d="M144.0586 311.67188v168.65625h324V311.67188h-324"/></g><g clip-path="url(#b)"><path fill="none" stroke="#000" stroke-linecap="round" stroke-linejoin="round" stroke-miterlimit="10" stroke-width=".5" d="M0 480.67578v-.6914"/></g><g clip-path="url(#c)"><path fill="none" stroke="#000" stroke-linecap="round" stroke-linejoin="round" stroke-miterlimit="10" stroke-width=".5" d="M0 480.67578v2.26953"/></g><g clip-path="url(#d)"><path fill="none" stroke="#000" stroke-linecap="round" stroke-linejoin="round" stroke-miterlimit="10" stroke-width=".5" d="M0 480.57422v1.13281"/></g><g clip-path="url(#e)"><path fill="none" stroke="#000" stroke-linecap="round" stroke-linejoin="round" stroke-miterlimit="10" stroke-width=".5" d="M0 480.49219v-.32422"/></g><g clip-path="url(#f)"><path fill="none" stroke="#000" stroke-linecap="round" stroke-linejoin="round" stroke-miterlimit="10" stroke-width=".5" d="M0 480.49219v2.21484"/></g><g clip-path="url(#g)"><path fill="none" stroke="#000" stroke-linecap="round" stroke-linejoin="round" stroke-miterlimit="10" stroke-width=".5" d="M0 480.44531v1.10547"/></g><g clip-path="url(#h)"><path fill="none" stroke="#000" stroke-linecap="round" stroke-linejoin="round" stroke-miterlimit="10" stroke-width=".5" d="M0 480.21094v.23437"/></g><g clip-path="url(#i)"><path fill="none" stroke="#000" stroke-linecap="round" stroke-linejoin="round" stroke-miterlimit="10" stroke-width=".5" d="M0 480.21094v2.1289"/></g><g clip-path="url(#j)"><path fill="none" stroke="#000" stroke-linecap="round" stroke-linejoin="round" stroke-miterlimit="10" stroke-width=".5" d="M0 480.2461v1.0625"/></g><g clip-path="url(#k)"><path fill="none" stroke="#000" stroke-linecap="round" stroke-linejoin="round" stroke-miterlimit="10" stroke-width=".5" d="M0 480.08594v.48437"/></g><g clip-path="url(#l)"><path fill="none" stroke="#000" stroke-linecap="round" stroke-linejoin="round" stroke-miterlimit="10" stroke-width=".5" d="M0 480.08594v2.08203"/></g><g clip-path="url(#m)"><path fill="none" stroke="#000" stroke-linecap="round" stroke-linejoin="round" stroke-miterlimit="10" stroke-width=".5" d="M0 480.15625v1.04297"/></g><g clip-path="url(#n)"><path fill="none" stroke="#000" stroke-linecap="round" stroke-linejoin="round" stroke-miterlimit="10" stroke-width=".5" d="M0 480.26172v.13672"/></g><g clip-path="url(#o)"><path fill="none" stroke="#000" stroke-linecap="round" stroke-linejoin="round" stroke-miterlimit="10" stroke-width=".5" d="M0 480.26172v2.14062"/></g><g clip-path="url(#p)"><path fill="none" stroke="#000" stroke-linecap="round" stroke-linejoin="round" stroke-miterlimit="10" stroke-width=".5" d="M0 480.28125v1.07031"/></g><g clip-path="url(#q)"><path fill="none" stroke="#000" stroke-linecap="round" stroke-linejoin="round" stroke-miterlimit="10" stroke-width=".5" d="M0 480.36719v-.07813"/></g><g clip-path="url(#r)"><path fill="none" stroke="#000" stroke-linecap="round" stroke-linejoin="round" stroke-miterlimit="10" stroke-width=".5" d="M0 480.36719v2.17969"/></g><g clip-path="url(#s)"><path fill="none" stroke="#000" stroke-linecap="round" stroke-linejoin="round" stroke-miterlimit="10" stroke-width=".5" d="M0 480.35547v2.17969"/></g><g clip-path="url(#t)"><path fill="none" stroke="#000" stroke-linecap="round" stroke-linejoin="round" stroke-miterlimit="10" stroke-width=".5" d="M0 480.54688v-.4375"/></g><g clip-path="url(#u)"><path fill="none" stroke="#000" stroke-linecap="round" stroke-linejoin="round" stroke-miterlimit="10" stroke-width=".5" d="M0 480.54688v2.23437"/></g><g clip-path="url(#v)"><path fill="none" stroke="#000" stroke-linecap="round" stroke-linejoin="round" stroke-miterlimit="10" stroke-width=".5" d="M0 480.48438v2.23437"/></g><g clip-path="url(#w)"><path fill="none" stroke="#000" stroke-linecap="round" stroke-linejoin="round" stroke-miterlimit="10" stroke-width=".5" d="M0 480.71875v-.77734"/></g><g clip-path="url(#x)"><path fill="none" stroke="#000" stroke-linecap="round" stroke-linejoin="round" stroke-miterlimit="10" stroke-width=".5" d="M0 480.71875V483"/></g><g clip-path="url(#y)"><path fill="none" stroke="#000" stroke-linecap="round" stroke-linejoin="round" stroke-miterlimit="10" stroke-width=".5" d="M0 480.60547v1.14062"/></g><g clip-path="url(#z)"><path fill="none" stroke="#000" stroke-linecap="round" stroke-linejoin="round" stroke-miterlimit="10" stroke-width=".5" d="M0 480.73828v-.82031"/></g><g clip-path="url(#A)"><path fill="none" stroke="#000" stroke-linecap="round" stroke-linejoin="round" stroke-miterlimit="10" stroke-width=".5" d="M0 480.73828v2.28516"/></g><g clip-path="url(#B)"><path fill="none" stroke="#000" stroke-linecap="round" stroke-linejoin="round" stroke-miterlimit="10" stroke-width=".5" d="M0 480.6211v1.14062"/></g><g clip-path="url(#C)"><path fill="none" stroke="#000" stroke-linecap="round" stroke-linejoin="round" stroke-miterlimit="10" stroke-width=".5" d="M0 480.21094v.23437"/></g><g clip-path="url(#D)"><path fill="none" stroke="#000" stroke-linecap="round" stroke-linejoin="round" stroke-miterlimit="10" stroke-width=".5" d="M0 480.21094v2.1289"/></g><g clip-path="url(#E)"><path fill="none" stroke="#000" stroke-linecap="round" stroke-linejoin="round" stroke-miterlimit="10" stroke-width=".5" d="M0 480.2461v1.0625"/></g><g clip-path="url(#F)"><path fill="none" stroke="#000" stroke-linecap="round" stroke-linejoin="round" stroke-miterlimit="10" stroke-width=".5" d="M0 479.9336v.78906"/></g><g clip-path="url(#G)"><path fill="none" stroke="#000" stroke-linecap="round" stroke-linejoin="round" stroke-miterlimit="10" stroke-width=".5" d="M0 479.9336v2.02343"/></g><g clip-path="url(#H)"><path fill="none" stroke="#000" stroke-linecap="round" stroke-linejoin="round" stroke-miterlimit="10" stroke-width=".5" d="M0 480.04688v1.01171"/></g><g clip-path="url(#I)"><path fill="none" stroke="#000" stroke-linecap="round" stroke-linejoin="round" stroke-miterlimit="10" stroke-width=".5" d="M0 479.89844v.85937"/></g><g clip-path="url(#J)"><path fill="none" stroke="#000" stroke-linecap="round" stroke-linejoin="round" stroke-miterlimit="10" stroke-width=".5" d="M0 479.89844v2.01172"/></g><g clip-path="url(#K)"><path fill="none" stroke="#000" stroke-linecap="round" stroke-linejoin="round" stroke-miterlimit="10" stroke-width=".5" d="M0 480.02344v1.00781"/></g><g clip-path="url(#L)"><path fill="none" stroke="#000" stroke-linecap="round" stroke-linejoin="round" stroke-miterlimit="10" stroke-width=".5" d="M0 480.17969v.30078"/></g><g clip-path="url(#M)"><path fill="none" stroke="#000" stroke-linecap="round" stroke-linejoin="round" stroke-miterlimit="10" stroke-width=".5" d="M0 480.17969v2.11328"/></g><g clip-path="url(#N)"><path fill="none" stroke="#000" stroke-linecap="round" stroke-linejoin="round" stroke-miterlimit="10" stroke-width=".5" d="M0 480.22266v1.05859"/></g><g clip-path="url(#O)"><path fill="none" stroke="#000" stroke-linecap="round" stroke-linejoin="round" stroke-miterlimit="10" stroke-width=".5" d="M0 479.86719v.92187"/></g><g clip-path="url(#P)"><path fill="none" stroke="#000" stroke-linecap="round" stroke-linejoin="round" stroke-miterlimit="10" stroke-width=".5" d="M0 479.86719v2"/></g><g clip-path="url(#Q)"><path fill="none" stroke="#000" stroke-linecap="round" stroke-linejoin="round" stroke-miterlimit="10" stroke-width=".5" d="M0 480.42188v-.1875"/></g><g clip-path="url(#R)"><path fill="none" stroke="#000" stroke-linecap="round" stroke-linejoin="round" stroke-miterlimit="10" stroke-width=".5" d="M0 480.42188v2.19921"/></g><g clip-path="url(#S)"><path fill="none" stroke="#000" stroke-linecap="round" stroke-linejoin="round" stroke-miterlimit="10" stroke-width=".5" d="M0 480.71484v-.76953"/></g><g clip-path="url(#T)"><path fill="none" stroke="#000" stroke-linecap="round" stroke-linejoin="round" stroke-miterlimit="10" stroke-width=".5" d="M0 480.71484v2.27735"/></g><g clip-path="url(#U)"><path fill="none" stroke="#000" stroke-linecap="round" stroke-linejoin="round" stroke-miterlimit="10" stroke-width=".5" d="M0 482.0586v-3.45704"/></g><g clip-path="url(#V)"><path fill="none" stroke="#000" stroke-linecap="round" stroke-linejoin="round" stroke-miterlimit="10" stroke-width=".5" d="M0 482.1211v-3.58594"/></g><g clip-path="url(#W)"><path fill="none" stroke="#000" stroke-linecap="round" stroke-linejoin="round" stroke-miterlimit="10" stroke-width=".5" d="M0 481.94922v-3.24219"/></g><g clip-path="url(#X)"><path fill="none" stroke="#000" stroke-linecap="round" stroke-linejoin="round" stroke-miterlimit="10" stroke-width=".5" d="M0 478.3711v3.91406"/></g><g clip-path="url(#Y)"><path fill="none" stroke="#000" stroke-linecap="round" stroke-linejoin="round" stroke-miterlimit="10" stroke-width=".5" d="M0 478.6914v3.27344"/></g><g clip-path="url(#Z)"><path fill="none" stroke="#000" stroke-linecap="round" stroke-linejoin="round" stroke-miterlimit="10" stroke-width=".5" d="M0 479.16797v.6914"/></g><g clip-path="url(#aa)"><path fill="none" stroke="#000" stroke-linecap="round" stroke-linejoin="round" stroke-miterlimit="10" stroke-width=".5" d="M0 477.78125v5.09375"/></g><path fill="none" stroke="#000" stroke-linecap="round" stroke-linejoin="round" stroke-miterlimit="10" stroke-width=".5" d="M0 478.52344v.32812"/><g clip-path="url(#ab)"><path fill="none" stroke="#000" stroke-linecap="round" stroke-linejoin="round" stroke-miterlimit="10" stroke-width=".5" d="M0 479.90234v.85547"/></g><g clip-path="url(#ac)"><path fill="none" stroke="#000" stroke-linecap="round" stroke-linejoin="round" stroke-miterlimit="10" stroke-width=".5" d="M0 480.02734v1.00391"/></g><g clip-path="url(#ad)"><path fill="none" stroke="#000" stroke-linecap="round" stroke-linejoin="round" stroke-miterlimit="10" stroke-width=".5" d="M0 483.77344v-6.89063"/></g><g clip-path="url(#ae)"><path fill="none" stroke="#000" stroke-linecap="round" stroke-linejoin="round" stroke-miterlimit="10" stroke-width=".5" d="M0 483.53906v-6.41797"/></g><g clip-path="url(#af)"><path fill="none" stroke="#000" stroke-linecap="round" stroke-linejoin="round" stroke-miterlimit="10" stroke-width=".5" d="M0 467.2539v-.48046"/></g><path fill="none" stroke="#000" stroke-linecap="round" stroke-linejoin="round" stroke-miterlimit="10" stroke-width=".5" d="M0 467.2539v2.23829m0-2.3086v1.1172m0-1.02735v-.51953m0 .51953v2.2461m0-2.32423v1.125m0-1.52734v.4414m0-.4414v2.08984m0-2.02734v1.04687m0-1.73437v1.6914m0-1.6914v1.82422m0-1.57813v.91407m0-.5547v.48048m0-.48047v2.08203m0-2.01172v1.04297m0-.70703v-.33203m0 .33203v2.21875m0-2.26563v1.10938m0-1.03906v-.37891m0 .3789v2.22657m0-2.28125v1.11328m0-.85938v-.77734m0 .77734v2.27735m0-2.39063v1.14063m0-1.16406v-.50391m0 .5039v2.2461m0-2.3164v1.12109m0-1.19141v-.22266m0 .22266v2.19922m0-2.23047v1.09766m0-1.5586v.76172m0-.76172v2.03125m0-1.91797v1.01172m0-1.67187v1.85547m0-1.85547v1.78515m0-1.51562v.89453m0-.94922v1.42578m0-1.42578v1.88672m0-1.67969v.9414m0-.98046v1.08984m0-1.08984v1.96484m0-1.58203v.32422m0-.32422v2.11328m0-.38671v-3.12891m0 2.67187v1.22657m0-.04297v-4.58203m0 4.58203v2.39453m0-2.74219v-3.88672m0 3.32032v1.22265m0-2.0039v-1.19141m0 1.01953v1.16406m0 1.92578v-7.02343m0 6.96875v-6.91797m0 5.91406v.7539m0-3.15624v-.10547m0 1.73047v-3.35547m0 2.86718v1.22657m0-.97657v-2.8789m0 2.46094v1.22265m0 1.17578v-6.83984m0 5.84375v.8086"/><g clip-path="url(#ag)"><path fill="none" stroke="#000" stroke-linecap="round" stroke-linejoin="round" stroke-miterlimit="10" stroke-width=".5" d="M0 453.94922v-.5"/></g><path fill="none" stroke="#000" stroke-linecap="round" stroke-linejoin="round" stroke-miterlimit="10" stroke-width=".5" d="M0 453.94922v2.24219m0-2.31641V455m0-.92188v-.76171m0 .76172v2.28125m0-2.34766v-.625m0 .625v2.26172m0-2.35157v1.12891m0-1.5039v.30468m0-.30469v2.11329m0-2.07032v1.0586m0-1.44922v1m0-1v1.97656m0-1.71094v.46875m0-.46875v2.08203m0-2.01562v1.04297m0-1.0039v.2578m0-.2578v2.12109m0-2.08594v1.0625m0-1.41016v.88281m0-.8828v2.0039m0-1.875v1m0-.75781v.14062m0-.14062v2.14062m0-2.1211v1.07032m0-1.16797v.29297m0-.29297v2.11719m0-2.42188v.90625m0-.90625v1.9961m0-1.86719v1m0-1.29297v1.23047m0-1.23047v1.9336m0-2.16407v1.69531m0-1.6953v1.82421m0-1.57812v.91015m0-1.04687v1.47656m0-1.47656v1.875m0-1.66016v.9375m0-1.26562v1.70312m0-1.70312v1.8203m0-1.60937v1.28125m0-1.28125v1.91797m0 .44531v-3.44921m0 2.94921v1.22657m0 .60937v-6.1211m0 5.23048v1.03515m0-1.96875v-2.46875m0 2.10938v1.21484m0 1.20703v-6.59375m0 6.29297v-5.99219m0 5.9922v-.14845m0-1.8203v-2.0586m0 1.76172v-.86719m0 3.0586v-5.84766m0 4.9961v1.08202m0-.40234v-5.5039m0 4.70312v1.125m0 .13281v-6.41406m0 6.41406v1.9375"/><g clip-path="url(#ah)"><path fill="none" stroke="#000" stroke-linecap="round" stroke-linejoin="round" stroke-miterlimit="10" stroke-width=".5" d="M0 440.21875v.33203"/></g><path fill="none" stroke="#000" stroke-linecap="round" stroke-linejoin="round" stroke-miterlimit="10" stroke-width=".5" d="M0 440.21875v2.10938m0-2.0625v1.05468m0-.6875v-.5m0 .5v2.24219m0-1.66016v-1.66406m0 1.66406v2.37891m0-2.78516v-.85156m0 .85156v2.28907m0-2.65235v-.1211m0 .1211v2.1836m0-2.20313v1.09375m0-1.95312v1.6328m0-1.6328v1.83984m0-1.60156v.91797m0-1.08985v1.5m0-1.5v1.8711m0-1.65235v.9336m0-2.4336v4.0664m0-4.0664v1.09766m0-1.25v4.36719m0-4.3672v.98048m0-.96875v4.34765m0-4.34765v.98828m0-.35547v.49219m0-.2539v2.60546m0-2.60547v1.58203m0-1.20312v.78906m0-1.71484v3.6953m0-3.6953v1.23828m0-.69922v.61719m0-.5625v2.5078m0-2.5078v1.61328m0-1.2461v.8047m0-1.3086v2.78125m0-2.78125v1.53515m0-1.1289v.76562m0-1.09765v2.63672m0-2.63672v1.57422m0-1.19141v.78906m0-1.10937v2.51171m0-2.51171v1.60937m0-2v3.29297m0-3.29297v1.3711m0-3.15625v6.86328m0-5.8672v-.32812m0-.09765v5.71875m0-4.88672v-1.09766m0 3.46094v-.67187m0 .57421v-1.02343m0-.21485v2m0-2v-2.40625m0 4.52735v-2.23828m0 1.91015v-.84375m0 3.25v-6.39453m0 5.46094v.07422m0 .7578v-6.1953m0 6.1953v2.03907m0-1.6211v-7.02734m0 6.00391v.57422"/><g clip-path="url(#ai)"><path fill="none" stroke="#000" stroke-linecap="round" stroke-linejoin="round" stroke-miterlimit="10" stroke-width=".5" d="M0 426.42969v1.27734"/></g><path fill="none" stroke="#000" stroke-linecap="round" stroke-linejoin="round" stroke-miterlimit="10" stroke-width=".5" d="M0 426.42969v1.92187m0-1.73437v.96094m0-.85157v.6836m0-.6836v2.04297m0-1.94531v1.02344m0-.98438v.41016m0-.41016v2.09766m0-1.83594v-.11328m0 .11328v2.1875m0-2.20312v1.09375m0-1.65235v1.03516m0-1.03516v1.97266m0-1.82422v.98828m0-.83984v.4414m0-.4414v2.08984m0-2.02344v1.04297m0-2.38281v2.98828m0-2.98828v1.47266m0-1.08204v2.20704m0-2.20704v1.69532m0-2.51172v3.83984m0-3.83984v1.1836m0-2.14063v5.7539m0-4.91797v.14844m0 .96875v1.84766m0-1.57813v.89453m0-2.3164v4.15234m0-4.15234v1.0625m0-.27344v2.57422m0-2.57422v1.59375m0-1.96484v3.3164m0-3.3164v1.36718m0-1.0664v2.71484m0-2.71484v1.55078m0-1.15625v.77734m0-1.17578v2.72266m0-2.72266v1.55078m0-1.66015v2.9414m0-2.51562v.74219m0-3.04688v6.70313m0-6.70313v-.44922m0 .47266v6.65234m0-6.65234v-1.78906m0 2.35546v5.51954m0-5.51954v.4336m0-.58203v5.8164m0-5.8164v.26172m0 .58593v.25782m0 .58593v.13282m0-1.94141v6.05078m0-6.05078v.10547m0 .77344v.10937m0 .77344v.05078m0-1.9961v6.41797m0-6.41796v-.16797m0 1.10156v-.16797m0 1.10156v-.08203M0 424.25v5.63672M0 424.25v.3711m0 .44921v.1875m0-1.60156v6.82422m0-6.82422v-.59766m0 1.58985v-.59766"/><g clip-path="url(#aj)"><path fill="none" stroke="#000" stroke-linecap="round" stroke-linejoin="round" stroke-miterlimit="10" stroke-width=".5" d="M0 413.08984v1.32813"/></g><path fill="none" stroke="#000" stroke-linecap="round" stroke-linejoin="round" stroke-miterlimit="10" stroke-width=".5" d="M0 413.08984V415m0-1.71875v.95703m0-1.11328v1.25781m0-1.25781v1.92578m0-1.65625v.71485m0-.71485v2.03906m0-2.23437v1.10937m0-1.10937v1.95703m0-1.79688v.98047m0-.92968v.6875m0-.6875v2.04296m0-1.9453v1.02343m0-.67578v-.20313m0 .20313v2.19922m0-1.85157v-.89843m0 .89843V416.5m0-2.16797v-1.15625m0 1.15625v2.32422m0-3.26563v.72657m0-.72657v2.03516m0-2.00781v.67187m0-.67187v2.04687m0-1.94922v1.02344m0-1.32422v1.07813m0-1.07813v1.96094m0-4.26562v5.6875m0-4.86329v.17188m0-.6836v5.0625m0-5.21484v5.36719m0-4.58594v.25781m0-.48046v4.25m0-3.63282v.51563m0 .5664v.84766m0-.84766v2.01172m0-1.03515v-1.10157m0 1.10157v2.32031m0-4.46094v3.17969m0-3.17969v1.41016m0-.94922v.70703m0-1.79297v4.42969m0-4.42969v.95313m0-.3086v.95313m0-.3086v.95313m0-1.99219v3.92578m0-3.92578v1.15625m0-.58203v1.15234m0-.58203v.57813m0-2.36328v5.20703m0-5.20703v.60156m0 .15625v.60156m0-2.08594v6.66407m0-6.66407v-.40234m0 1.3711v-.40235m0 1.3711v-.19922m0-1.66797v6.51953m0-6.51953v-.25782m0 1.20704v-.25782m0-.40625v5.95313m0-5.95313v.17188m0 .6914v.08985m0-1.02735v6.10157"/><g clip-path="url(#ak)"><path fill="none" stroke="#000" stroke-linecap="round" stroke-linejoin="round" stroke-miterlimit="10" stroke-width=".5" d="M0 410.70313v.07421"/></g><path fill="none" stroke="#000" stroke-linecap="round" stroke-linejoin="round" stroke-miterlimit="10" stroke-width=".5" d="M0 411.58984v.03907"/><g clip-path="url(#al)"><path fill="none" stroke="#000" stroke-linecap="round" stroke-linejoin="round" stroke-miterlimit="10" stroke-width=".5" d="M0 399.1875v2.5"/></g><path fill="none" stroke="#000" stroke-linecap="round" stroke-linejoin="round" stroke-miterlimit="10" stroke-width=".5" d="M0 399.1875v1.61719m0-1.2539v.80858m0-1.04687v2.2539m0-2.2539v1.67969m0-1.35156v.83984m0-.91406v1.74609m0-1.7461v1.8125m0-2.29687v2.71094m0-2.71094v1.5586m0-1.20704v2.00782m0-2.00782v1.7461m0-1.8164v2.15233m0-2.15234v1.71094m0-1.16406v1.05468m0-1.05468v1.96875m0-1.8125v.98437m0-1.66015v2.09375m0-2.09375v1.72656m0-1.86328v2.36718m0-2.36718v1.65234m0-1.28125v1.6289m0-1.6289v1.83984m0-1.77734v1.5039m0-1.5039v1.8711m0-2.85157v3.46094m0-2.95703v.66015M0 398.75v3.3789m0-3.3789v1.34375m0-.4414v1.5703m0-1.5703v1.85546m0-1.625v.92578m0-1.23046v1.71875m0-1.71875v1.8203m0-1.5703v1.22265m0-1.22265v1.92968m0-.1875v-2.26562m0 2.26562v2.42188m0-4.45703v1.80859m0-1.8086v1.79688m0-1.53515v.89843m0-2.92969v5.34375m0-5.34375v.53125m0 .2461v.53125m0-.08594v2.89844m0-2.89844v1.5m0-1.07812v1.5m0-1.17188v1.40235m0-1.40235v1.89063m0-4.07813v5.77735m0-5.77735v.28516m0 .55469v.14062m0-1.0586v5.9336m0-5.9336v.1875m0 .67579v.1875m0 .67578v.09375m0-.8711v4.03125m0-4.03125v1.11329m0-1.92579v5.65625"/><g clip-path="url(#am)"><path fill="none" stroke="#000" stroke-linecap="round" stroke-linejoin="round" stroke-miterlimit="10" stroke-width=".5" d="M0 397.60938v.35546"/></g><g clip-path="url(#an)"><path fill="none" stroke="#000" stroke-linecap="round" stroke-linejoin="round" stroke-miterlimit="10" stroke-width=".5" d="M0 385.66797v2.91015"/></g><path fill="none" stroke="#000" stroke-linecap="round" stroke-linejoin="round" stroke-miterlimit="10" stroke-width=".5" d="M0 385.66797v1.4961m0-.53516v.98828m0-.98828v1.98437m0-1.83984v.99219m0-3.29297v5.30078m0-5.30078v.55078m0-1.14844v6.4961m0-6.4961v-.23828m0 1.1836v-.1172m0-.92187v6.6875m0-6.6875v-.4336m0 4.35938v-1.16797m0 1.16797v2.32813m0-2v-1.82032m0 1.5547v1.1953m0-1.32421v-1.03516m0 .88281v1.15625m0-2.24219v1.44141m0-1.4414v1.8828m0-2.8164v3.3086m0-3.3086v1.36719m0-.9414v2.45702m0-2.45703v1.6289m0-1.26952v.8125m0-.47266v1.0586m0-1.0586v1.96875m0-2.8711v2.8672m0-2.8672v1.50782m0-.30469v.45703m0-.45703v2.08985m0-1.71485v-.29297m0 .25v1.10547m0-1.78515v1.15234m0-.98438v.97266m0-.65625v.1875m0-.1875v2.13281m0-2.10547v1.06641m0-1.45313v.90625m0-.90625v2m0-1.87109v2m0-3.38281v3.41015m0-3.41015v1.33594m0-.83985v.66797m0-.94922v2.98047m0-2.98047v1.47656m0-1.04296v1.47656m0-1.70313v2.56641m0-2.5664v1.59765m0-1.22266v.79688m0-2.19922v4.6211m0-4.6211v.8789m0-1.125v5.1172m0-5.1172v.64454m0 .09765v.32422m0-.85156v4.6836m0-4.6836v.84375m0-.16406v.84765m0-1.71875v5.06641"/><g clip-path="url(#ao)"><path fill="none" stroke="#000" stroke-linecap="round" stroke-linejoin="round" stroke-miterlimit="10" stroke-width=".5" d="M0 384.58984v.67188"/></g><path fill="none" stroke="#000" stroke-linecap="round" stroke-linejoin="round" stroke-miterlimit="10" stroke-width=".5" d="M0 385.32813v.66796m0 .06641v.33594"/><g clip-path="url(#ap)"><path fill="none" stroke="#000" stroke-linecap="round" stroke-linejoin="round" stroke-miterlimit="10" stroke-width=".5" d="M0 370.8086v6"/></g><path fill="none" stroke="#000" stroke-linecap="round" stroke-linejoin="round" stroke-miterlimit="10" stroke-width=".5" d="M0 371.67969v.07422m0 .58984v2.92969m0-2.5039v.74608m0-1.14062v2.86719m0-2.86719v1.50781m0-2.60547v5.0625m0-5.0625v.67579m0-.14063v3.99219m0-3.41406v.5664m0-.20703v2.11719M0 372.75v1.71875m0-1.63672v1.95313m0-1.95313v1.75781m0-1.47656v.88281m0-1.67187v2.96875m0-2.96875v1.47656m0 .57422v-1.13281m0 .96875v1.16015m0-1.83984v.55469m0-.55469v2.07031m0-2.83984v2.09375m0-1.78906v.85937m0-.53125v.82813m0-.82813v2.01172m0-2.59766v2m0-2v1.75m0-.5v-.5m0 .5v2.2422m0-1.47267v-2.03906m0 2.03906v2.40625m0-2.88671v-1.07813m0 1.07813v2.3164m0-2.53125v-.64844m0 .64844v2.26172m0-2.35547v1.1289m0-1.2578v-.20704m0 .20704v2.19921m0-2.22656v1.09766m0-1.73438v1.125m0-1.125v1.95704m0-1.79297v.97656m0-1.92969v2.69922m0-2.69922v1.5586m0-1.16407v.77735m0-1.60157v3.5586m0-3.5586v1.28516m0-.76563v.64063m0-.57422v2.39063m0-2.39063v1.64844m0-2.2539v3.59765m0-3.59766v1.27344m0-.75v.63672m0-2.04688v5.3711m0-5.3711v.51563m0 .26562v.25782m0-.60157v4.4961"/><g clip-path="url(#aq)"><path fill="none" stroke="#000" stroke-linecap="round" stroke-linejoin="round" stroke-miterlimit="10" stroke-width=".5" d="M0 371.5586v.92968"/></g><path fill="none" stroke="#000" stroke-linecap="round" stroke-linejoin="round" stroke-miterlimit="10" stroke-width=".5" d="M0 372.21484v.9297"/><g clip-path="url(#ar)"><path fill="none" stroke="#000" stroke-linecap="round" stroke-linejoin="round" stroke-miterlimit="10" stroke-width=".5" d="M0 357.47656v6.03516"/></g><path fill="none" stroke="#000" stroke-linecap="round" stroke-linejoin="round" stroke-miterlimit="10" stroke-width=".5" d="M0 358.35547v.0586m0 .05859v4.03906m0-3.44922v.55469m0 1.78125v-1.8125m0-.51563v2.84375m0-2.42969v.75782m0-.99219v2.48438m0 .17968v-2.84375m0 4.47266v-6.09766m0 5.21094v1.03516m0-2.23047v-1.9375m0-2.23047v6.40234m0-.59765v-5.20704m0 4.44922v1.15235m0-2.78516v-.42578m0 .85547v-1.28516m0 1.5v-1.71875m0 1.71875v2.38281m0-2.32421v-1.83594m0 1.57031v1.19531m0-2.74218v1.78906m0-1.78906v1.80078m0 .91015v-3.6289m0 3.6289v2.44922m0-2.05078v-4.42969m0 4.4297v2.41015m0-3.05469v1.20703m0-1.07031v-3.41016m0 3.41016v2.45312m0-3.78906v-.74219m0 .7422v2.27733m0-3.63671v1.98046m0-1.98046v1.7539M0 359v2.98828M0 359v1.47266m0-2.03516v4.10938m0-4.10938v1.08594m0-1.32031v4.57812m0-4.57813v.89454m0-.22657v.44532m0-1.4922v5.33985m0-5.33984v.53125m0-1.05469v6.38281m0-6.3828v-.13673m0 1.0664v-.0703"/><g clip-path="url(#as)"><path fill="none" stroke="#000" stroke-linecap="round" stroke-linejoin="round" stroke-miterlimit="10" stroke-width=".5" d="M0 343.66406v7.02735"/></g><g clip-path="url(#at)"><path fill="none" stroke="#000" stroke-linecap="round" stroke-linejoin="round" stroke-miterlimit="10" stroke-width=".5" d="M0 344.6875v-.58984"/></g><path fill="none" stroke="#000" stroke-linecap="round" stroke-linejoin="round" stroke-miterlimit="10" stroke-width=".5" d="M0 343.69922v6.95703m0-5.94531v-.41797m0-.49219v6.7539m0-.09765v-6.5586m0 2.01173v2.53906m0 .51172v-3.5625m0 4.78906v-6.01953m0 5.14453v-.0664m0-.14454v-3.84765m0 3.28906v-.59375m0 .0625v-1.66797m0 1.42578v-.91797m0 2.03906v-3.42578m0 2.9297v-.66407m0 2.94922v-7.0039m0 5.98437v.66015m0 .28516v-6.85156m0 5.85156v.80469m0-.19532v-6.07421m0 5.1914v1.04297m0 .07422v-6.54297m0 6.54297v1.86328m0-3.05469v-4.15625m0 4.15625v2.42578m0-1.33203v-6.34765m0 5.42578v.98437m0-.92969v-4.61328m0 3.94141v1.19531M0 348.25v-2.14453M0 348.25v2.41406m0-3.3164v-.33985m0 .33985v2.21875m0-3.25v1.72265m0-1.72265v1.8164m0-2.98437v4.0586m0-4.0586v1.10547m0-1.92579v5.69922m0-5.69921v.33593m0-.35547v5.73829m0-5.73829v.3125m0-.03906v5.1914m0-5.1914v.60547m0 .14844v.30469m0-.17188v3.41797"/><g clip-path="url(#au)"><path fill="none" stroke="#000" stroke-linecap="round" stroke-linejoin="round" stroke-miterlimit="10" stroke-width=".5" d="M0 345.46875v1.33594"/></g><g clip-path="url(#av)"><path fill="none" stroke="#000" stroke-linecap="round" stroke-linejoin="round" stroke-miterlimit="10" stroke-width=".5" d="M0 330.35156v7.02344"/></g><g clip-path="url(#aw)"><path fill="none" stroke="#000" stroke-linecap="round" stroke-linejoin="round" stroke-miterlimit="10" stroke-width=".5" d="M0 330.35156v-1.11328"/></g><path fill="none" stroke="#000" stroke-linecap="round" stroke-linejoin="round" stroke-miterlimit="10" stroke-width=".5" d="M0 330.41406v6.89844m0-5.89453v-.76953m0 1.76172v2.90625m0-2.48438v-1.22265m0-.52735v5.5625m0-.77734v-4.00781m0 3.42578v-.5625m0-1.50782v1.29688m0-1.10938v-1.16796m0-.5586v4.375m0 1.01953v-6.41406m0 6.70313v-6.9922m0 6.47266v-5.95312m0 5.08984v-.08984m0 1.48047v-7.00781m0 5.98828v.48828m0 .53125v-7.00781m0 7.0078v1.3086m0-1.58203v-6.46094m0 6.46094v1.91016m0-1.63672v-7.00781m0 5.98828v.49218m0 .26172V330.625m0 6.47656v1.90235m0-2.84766v.95313m0-.29688v-5.90234m0 5.90234v2.14453m0-2.57031v-5.04688m0 4.3125v1.16797m0-4.32812v2.73828m0-2.79297v2.85156m0-2.85156v1.51172m0-.1289v.08593m0-.07422v1.07813m0-1.5586v1.02344m0-.875v.98828m0-3.64062v6.03125m0-5.15235v.0586m0-1.0586V337m0-6.27344v-.05469m0 .60547v5.17188m0-5.17188v.6172m0 .35937v3.21875"/><g clip-path="url(#ax)"><path fill="none" stroke="#000" stroke-linecap="round" stroke-linejoin="round" stroke-miterlimit="10" stroke-width=".5" d="M0 332.2539v1.39844"/></g><path fill="none" stroke="#000" stroke-linecap="round" stroke-linejoin="round" stroke-miterlimit="10" stroke-width=".5" d="M0 332.72266v.69921"/><g clip-path="url(#ay)"><path fill="none" stroke="#000" stroke-linecap="round" stroke-linejoin="round" stroke-miterlimit="10" stroke-width=".5" d="M0 317.0586v6.97656"/></g><path fill="none" stroke="#000" stroke-linecap="round" stroke-linejoin="round" stroke-miterlimit="10" stroke-width=".5" d="M0 317.0586v-.87891m0 .86328v7.01172m0-5.99219v-.4961m0-.53124v7.02734m0-2.72266v-1.58203m0 .78906h0m0 2.21875v-4.4375m0 3.79297v1.20313m0-4.13281v2.71484m0-2.32031v.77344m0 .91796v-1.45703m0 1.2461v1.17578m0-3.375v3.36328m0-3.0625v2.76172m0 2.1211v-7.00782m0 6.79297v-6.57813m0 5.6211v.92187m0-.23828v-6.03125m0 6.03125v2.10156m0-1.66797v-6.89453m0 5.89063v.77344m0 .28906v-7.01172m0 7.01172v1.28515m0-1.3203v-6.94532m0 6.94531v.80469m0-1.34375v-5.86328m0 5.86328v-.23438m0 .76172v-6.92187m0 1.80078v3.32422m0-3.32422V320.25m0-1.4336v3.46094m0-2.95703v.66016m0 .60156v-.07031m0 .0625v1.08984m0 2.14063v-6.51172m0 5.5625v.1289m0-5.94921v7.02734m0-6.0039v-.58204m0-.09375v6.32813m0-6.32813v-.09375m0 .83985v4.83593"/><g clip-path="url(#az)"><path fill="none" stroke="#000" stroke-linecap="round" stroke-linejoin="round" stroke-miterlimit="10" stroke-width=".5" d="M0 318.1289v.78126"/></g><path fill="none" stroke="#000" stroke-linecap="round" stroke-linejoin="round" stroke-miterlimit="10" stroke-width=".5" d="M0 318.83594v.77734"/><path fill="#00f" fill-rule="evenodd" d="M388.29688 436.57813h8.61718v-10.14454h-8.61719v10.14454"/><path fill="azure" fill-rule="evenodd" d="M390.1289 428.26563h.83594v2.82421H394.25v-2.82421h.83203v6.48046H394.25v-2.91406h-3.28516v2.91406h-.83593v-6.48046"/><path fill="#ff3030" fill-rule="evenodd" d="M326.85547 432.14063h7.6914v-10.14454h-7.6914v10.14454"/><path fill="azure" fill-rule="evenodd" d="M328.6875 423.82813h.83203v5.73828h3.19531v.74218h-4.02734v-6.48046"/><path fill="#ff3030" fill-rule="evenodd" d="M455.5664 418.82813h7.69141v-10.14844h-7.6914v10.14844"/><path fill="azure" fill-rule="evenodd" d="M457.39844 410.51172h.83594v5.74219h3.1914v.73828h-4.02734v-6.48047"/><path fill="#ff3030" fill-rule="evenodd" d="M189.26563 414.38672h7.6914v-10.14453h-7.6914v10.14453"/><path fill="azure" fill-rule="evenodd" d="M191.09766 406.07422h.83593v5.74219h3.19141v.73828h-4.02734v-6.48047"/><path fill="#00f" fill-rule="evenodd" d="M215.20313 414.38672h8.61718v-10.14453h-8.61719v10.14453"/><path fill="azure" fill-rule="evenodd" d="M217.03516 406.07422h.83203v2.82422h3.28515v-2.82422h.83594v6.48047h-.83594v-2.91406h-3.28515v2.91406h-.83203v-6.48047"/><path fill="#ff3030" fill-rule="evenodd" d="M349.04688 409.94922h7.6914v-10.14453h-7.6914v10.14453"/><path fill="azure" fill-rule="evenodd" d="M350.8789 401.63672h.83204v5.73828h3.19531v.74219h-4.02734v-6.48047"/><path fill="#ff3030" fill-rule="evenodd" d="M291.34766 405.51172h7.6914v-10.14453h-7.6914v10.14453"/><path fill="azure" fill-rule="evenodd" d="M293.17969 397.19922h.83594v5.73828h3.1914v.74219h-4.02734v-6.48047"/><path fill="#ff3030" fill-rule="evenodd" d="M189.26563 378.88281h7.6914v-10.14844h-7.6914v10.14844"/><path fill="azure" fill-rule="evenodd" d="M191.09766 370.5664h.83593v5.7422h3.19141v.73827h-4.02734v-6.48046"/><path fill="#ffffe0" fill-rule="evenodd" d="M328.48828 371.63672h22.17969v-10.1914h-22.17969v10.1914"/><path fill-rule="evenodd" d="M331.98828 363.27734h.50781v6.29688h-.78515v-4.49219h-1.39063v-.55469l.5586-.0625.2539-.05468.23047-.08985.20313-.14062.17187-.21094.14453-.29688.10547-.39453m4.8125 0l.23047.01954.21875.05468.20703.08985.19531.12109.1836.14844.17187.17578.30469.42187.24219.4922.17969.54687.10937.57812.03906.59375-.03906.59375-.10938.58203-.17968.55469-.24219.5-.30469.42969-.17187.17969-.1836.15234-.1953.125-.20704.08984-.21875.0586-.23047.01953-.23047-.01953-.21875-.0586-.20703-.08984-.19531-.125-.1836-.15235-.17187-.17968-.30469-.42969-.24219-.5-.17968-.55469-.10938-.58203-.03906-.59375h.83203l.02735.5625.08203.5039.1289.44532.16016.375.1914.30078.21094.21875.22266.13672.22656.04688.22656-.04688.22266-.13672.21094-.21875.1914-.30078.16016-.375.1289-.44531.07813-.5039.03125-.5625-.03125-.5625-.07812-.5-.12891-.4375-.16016-.36329-.1914-.29297-.21094-.21484-.22266-.13281-.22656-.04297-.22656.04296-.22266.13282-.21094.21484-.1914.29297-.16016.36328-.1289.4375-.08204.5-.02734.5625h-.83203l.03906-.59375.10938-.57812.17969-.54688.24218-.49219.30469-.42187.17188-.17578.18359-.14844.19531-.1211.20703-.08984.21875-.05469.23047-.01953m5.08985 0h.51171v6.29688h-.78906v-4.49219h-1.38672v-.55469l.5586-.0625.2539-.05468.22656-.08985.20313-.14062.17578-.21094.14063-.29688.10546-.39453m2.82422 2.17579h.78907l.01953-.31641.0586-.28516.09765-.2539.14062-.21485.17969-.17187.22656-.1289.26172-.08204.3086-.02734.23828.01953.22265.0625.20703.10156.1797.14063.14843.17187.11328.20703.07031.23438.02344.26562-.01953.26953-.0664.22266-.10938.1914-.15625.17188-.19922.16406-.25.16406-.63281.39063-.53516.3125-.4375.3164-.34766.32423-.26562.33593-.1875.35156-.125.3711-.07031.39062-.01954.42188h4.21094v-.74219h-3.33203l.08203-.28515.11328-.23438.14844-.20313.1875-.17968.23047-.17188.27734-.17578.71875-.41406.41407-.20703.34765-.23047.28125-.25.21875-.26953.16406-.27735.10938-.28515.0664-.28516.01954-.28125-.04297-.38281-.1211-.34766-.1875-.3086-.25-.26171-.30468-.21094-.34375-.16015-.38281-.09766-.40625-.03516-.4336.03516-.39844.09766-.35546.16796-.3047.23438-.24609.30078-.1875.375-.11718.44531-.03907.51954"/><path fill="#ffffe0" fill-rule="evenodd" d="M195.33594 359.64453h22.17969v-10.1914h-22.1797v10.1914"/><path fill-rule="evenodd" d="M198.83594 351.28516h.50781v6.29687h-.78516v-4.49219h-1.39062v-.55468l.5625-.06641.25-.05078.23047-.08985.20312-.14453.17578-.20703.14063-.29687.10547-.39453m4.8125 0l.23047.01953.21875.05469.20703.08984.19922.1211.18359.14843.17188.17578.30078.42188.24218.49218.1797.54688.11327.57812.03906.59375-.03906.58985-.11328.58594-.17969.55468-.24218.5-.30078.42969-.17188.17969-.1836.15234-.19921.125-.20703.08985-.21875.05859-.23047.01953-.22656-.01953-.21875-.0586-.21094-.08984-.19531-.125-.1836-.15234-.17187-.17969-.30078-.42969-.2422-.5-.18359-.55469-.10937-.58593-.03906-.58985h.83203l.03125.5625.08203.50391.125.44531.16406.3711.1875.30078.21094.22265.22266.13672.22656.04688.22656-.04688.22266-.13672.21093-.22265.19141-.30078.16406-.3711.125-.44531.08203-.5039.02735-.5625-.02735-.5625-.08203-.5-.125-.4375-.16406-.36329-.1914-.29297-.21094-.21484-.22266-.13281-.22656-.04297-.22656.04297-.22266.13281-.21094.21484-.1875.29297-.16406.36328-.125.4375-.08203.5-.03125.5625h-.83203l.03906-.59375.10937-.57812.1836-.54688.24219-.49218.30078-.42188.17187-.17578.1836-.14844.1953-.1211.21095-.08983.21875-.0547.22656-.01952m5.09375 0h.50781v6.29687h-.78516v-4.49219h-1.39062v-.55468l.5625-.06641.25-.05078.23047-.08985.20312-.14453.17188-.20703.14453-.29687.10547-.39453m2.82422 2.17578h.78515l.01953-.3164.0586-.28517.10156-.2539.13672-.21485.1836-.17578.22265-.1289.26562-.07813.3086-.02734.23828.01953.22266.0625.20312.10156.17969.14063.14844.17187.11328.20703.0703.23438.02735.26562-.02344.26954-.0664.22265-.10938.1914-.15234.17188-.20313.16406-.24609.16407-.63281.39062-.53906.3125-.4375.3164-.34766.32423-.26172.33594-.1914.35156-.125.3711-.07032.39062-.01953.42187h4.21094v-.74219h-3.33203l.08203-.28515.11719-.23438.14453-.20312.1875-.17969.23047-.17188.28125-.17578.71484-.41796.41797-.20313.34375-.23047.28125-.2539.21875-.26563.16406-.27734.11328-.28516.0625-.28516.01953-.28125-.04297-.3828-.11718-.34767-.1914-.30859-.25-.26172-.30079-.21484-.34766-.15625-.3789-.09766-.40625-.03515-.4375.03125-.39844.10156-.35156.16406-.30469.23438-.25.30468-.1836.375-.11718.44532-.03906.51953"/><path fill="#ffffe0" fill-rule="evenodd" d="M164.26953 448.91406h22.17969v-10.1914h-22.17969v10.1914"/><path fill-rule="evenodd" d="M167.76953 440.55469h.50781v6.29687h-.78906v-4.48828h-1.38672v-.5586l.5586-.0625.2539-.05468.23047-.08984.20313-.14063.17187-.21094.14063-.29296.10937-.39844m4.8125 0l.23047.01953.21875.0586.20703.08984.19531.11718.1836.15235.17187.17578.30078.41797.2461.49219.17969.54687.10937.58203.03906.58985-.03906.59375-.10938.58203-.17968.55468-.2461.50391-.30078.42578-.17187.17969-.1836.15234-.1953.125-.20704.09375-.21875.05469-.23047.01953-.23047-.01953-.21875-.05469-.20703-.09375-.19531-.125-.1875-.15234-.16797-.17969-.30469-.42578-.24219-.5039-.17968-.5547-.11328-.58202-.03516-.59375h.83203l.02734.5625.08204.5078.1289.44141.16016.375.1914.30079.21094.21875.22266.13671.22656.04688.22656-.04688.22266-.13671.21094-.21875.1914-.30079.16016-.375.125-.4414.08203-.50781.03125-.5625-.03125-.5625-.08203-.5-.125-.4336-.16016-.36719-.1914-.29296-.21094-.21485-.22266-.1289-.22656-.04688-.22656.04688-.22266.1289-.21094.21485-.1914.29296-.16016.3672-.1289.43358-.08203.5-.02735.5625H170.5l.03516-.58984.11328-.58203.17969-.54688.24218-.49218.30469-.41797.16797-.17578.1875-.15235.19531-.11718.20703-.08985.21875-.0586.23047-.01952m5.08984 0h.51172v6.29687h-.78906v-4.48828h-1.38672v-.5586l.5586-.0625.2539-.05468.22656-.08984.20313-.14063.17578-.21094.14063-.29296.10547-.39844m2.82421 2.17578h.78516l.01953-.3164.0625-.28516.09766-.25391.14062-.21484.17969-.17188.22266-.1289.26562-.08204.3086-.02734.23828.02344.22265.0625.20703.10156.17578.13672.15235.17578.11328.20313.07031.23828.02344.26171-.01953.26954-.0664.22656-.10938.1914-.15625.17188-.19922.16016-.25.16796-.63281.38672-.53907.3125-.4375.31641-.34375.32422-.26562.33594-.1914.35156-.125.3711-.06641.39452-.02344.41797h4.21484v-.74219h-3.33203l.08203-.28125.11328-.23828.14844-.20312.1875-.17969.23047-.17187.27734-.17579.71875-.41406.41407-.20703.34765-.23047.27735-.25.22265-.26953.16406-.27734.10938-.28125.0625-.28516.02344-.28125-.04297-.38281-.1211-.35156-.1875-.3047-.25-.26562-.30468-.21093-.34375-.16016-.38281-.09766-.40625-.03515-.4336.03515-.39844.09766-.35547.16797-.30468.23437-.2461.3047-.1875.37108-.11718.44922-.03907.51563"/></g></defs><use xlink:href="#aA"/></svg>