<svg xmlns="http://www.w3.org/2000/svg" role="img" xmlns:xlink="http://www.w3.org/1999/xlink" viewBox="142.45 309.95 326.84 171.84"><defs><clipPath id="a"><path d="M144 311.67188h1v168.65625h-1zm0 0"/></clipPath><clipPath id="b"><path d="M144 311.67188h324v168.65625H144zm0 0"/></clipPath><clipPath id="c"><path d="M381 460h23v20.32813h-23zm0 0"/></clipPath><clipPath id="d"><path d="M384 476h17v4.32813h-17zm0 0"/></clipPath><clipPath id="e"><path d="M388 477h9v3.32813h-9zm0 0"/></clipPath><clipPath id="f"><path d="M390 479h5v1.32813h-5zm0 0"/></clipPath><clipPath id="g"><path d="M467 311.67188h1v168.65625h-1zm0 0"/></clipPath><clipPath id="h"><path d="M144 479h4v1.32813h-4zm0 0"/></clipPath><clipPath id="i"><path d="M147 479h3v1.32813h-3zm0 0"/></clipPath><clipPath id="j"><path d="M146 479h2v1.32813h-2zm0 0"/></clipPath><clipPath id="k"><path d="M153 479h9v1.32813h-9zm0 0"/></clipPath><clipPath id="l"><path d="M160 479h3v1.32813h-3zm0 0"/></clipPath><clipPath id="m"><path d="M159 479h2v1.32813h-2zm0 0"/></clipPath><clipPath id="n"><path d="M166 479h9v1.32813h-9zm0 0"/></clipPath><clipPath id="o"><path d="M173 479h3v1.32813h-3zm0 0"/></clipPath><clipPath id="p"><path d="M172 479h3v1.32813h-3zm0 0"/></clipPath><clipPath id="q"><path d="M180 479h8v1.32813h-8zm0 0"/></clipPath><clipPath id="r"><path d="M187 479h3v1.32813h-3zm0 0"/></clipPath><clipPath id="s"><path d="M186 479h2v1.32813h-2zm0 0"/></clipPath><clipPath id="t"><path d="M193 479h9v1.32813h-9zm0 0"/></clipPath><clipPath id="u"><path d="M200 479h3v1.32813h-3zm0 0"/></clipPath><clipPath id="v"><path d="M199 480h2v.32813h-2zm0 0"/></clipPath><clipPath id="w"><path d="M206 479h9v1.32813h-9zm0 0"/></clipPath><clipPath id="x"><path d="M213 479h3v1.32813h-3zm0 0"/></clipPath><clipPath id="y"><path d="M212 479h2v1.32813h-2zm0 0"/></clipPath><clipPath id="z"><path d="M220 480h8v.32813h-8zm0 0"/></clipPath><clipPath id="A"><path d="M227 480h2v.32813h-2zm0 0"/></clipPath><clipPath id="B"><path d="M233 479h8v1.32813h-8zm0 0"/></clipPath><clipPath id="C"><path d="M240 479h3v1.32813h-3zm0 0"/></clipPath><clipPath id="D"><path d="M239 479h2v1.32813h-2zm0 0"/></clipPath><clipPath id="E"><path d="M246 480h9v.32813h-9zm0 0"/></clipPath><clipPath id="F"><path d="M253 480h3v.32813h-3zm0 0"/></clipPath><clipPath id="G"><path d="M260 479h8v1.32813h-8zm0 0"/></clipPath><clipPath id="H"><path d="M267 479h2v1.32813h-2zm0 0"/></clipPath><clipPath id="I"><path d="M273 479h8v1.32813h-8zm0 0"/></clipPath><clipPath id="J"><path d="M280 479h3v1.32813h-3zm0 0"/></clipPath><clipPath id="K"><path d="M286 478h9v2.32813h-9zm0 0"/></clipPath><clipPath id="L"><path d="M293 478h3v2.32813h-3zm0 0"/></clipPath><clipPath id="M"><path d="M300 479h8v1.32813h-8zm0 0"/></clipPath><clipPath id="N"><path d="M306 479h4v1.32813h-4zm0 0"/></clipPath><clipPath id="O"><path d="M313 479h8v1.32813h-8zm0 0"/></clipPath><clipPath id="P"><path d="M320 479h3v1.32813h-3zm0 0"/></clipPath><clipPath id="Q"><path d="M326 479h9v1.32813h-9zm0 0"/></clipPath><clipPath id="R"><path d="M332 480h2v.32813h-2zm0 0"/></clipPath><clipPath id="S"><path d="M340 478h7v2.32813h-7zm0 0"/></clipPath><clipPath id="T"><path d="M354 477h6v3.32813h-6zm0 0"/></clipPath><clipPath id="U"><path d="M368 476h4v4.32813h-4zm0 0"/></clipPath><clipPath id="V"><path d="M381 477h6v3.32813h-6zm0 0"/></clipPath><clipPath id="W"><path d="M393 479h8v1.32813h-8zm0 0"/></clipPath><clipPath id="X"><path d="M408 477h5v3.32813h-5zm0 0"/></clipPath><clipPath id="Y"><path d="M420 477h7v3.32813h-7zm0 0"/></clipPath><clipPath id="Z"><path d="M433 478h8v2.32813h-8zm0 0"/></clipPath><clipPath id="aa"><path d="M446 478h8v2.32813h-8zm0 0"/></clipPath><clipPath id="ab"><path d="M459 479h9v1.32813h-9zm0 0"/></clipPath><clipPath id="ac"><path d="M460 479h2v1.32813h-2zm0 0"/></clipPath><clipPath id="ad"><path d="M144 466h4v2h-4zm0 0"/></clipPath><clipPath id="ae"><path d="M144 453h4v2h-4zm0 0"/></clipPath><clipPath id="af"><path d="M144 439h4v3h-4zm0 0"/></clipPath><clipPath id="ag"><path d="M144 426h4v2h-4zm0 0"/></clipPath><clipPath id="ah"><path d="M144 412h4v3h-4zm0 0"/></clipPath><clipPath id="ai"><path d="M144 398h4v5h-4zm0 0"/></clipPath><clipPath id="aj"><path d="M465 397h3v1h-3zm0 0"/></clipPath><clipPath id="ak"><path d="M144 385h4v4h-4zm0 0"/></clipPath><clipPath id="al"><path d="M465 384h3v2h-3zm0 0"/></clipPath><clipPath id="am"><path d="M144 373h4v2h-4zm0 0"/></clipPath><clipPath id="an"><path d="M465 371h3v2h-3zm0 0"/></clipPath><clipPath id="ao"><path d="M144 356h1v9h-1zm0 0"/></clipPath><clipPath id="ap"><path d="M465 357h3v3h-3zm0 0"/></clipPath><clipPath id="aq"><path d="M144 346h4v2h-4zm0 0"/></clipPath><clipPath id="ar"><path d="M466 345h2v3h-2zm0 0"/></clipPath><clipPath id="as"><path d="M144 333h4v2h-4zm0 0"/></clipPath><clipPath id="at"><path d="M466 331h2v3h-2zm0 0"/></clipPath><clipPath id="au"><path d="M144 318h4v5h-4zm0 0"/></clipPath><clipPath id="av"><path d="M465 317h3v3h-3zm0 0"/></clipPath><g id="aw" clip-path="url(#clip1)"><path fill="#fff" fill-opacity="0" fill-rule="evenodd" d="M0 0h1000v1000H0zm0 0"/><path fill="#d3d3d3" fill-opacity="0" fill-rule="evenodd" d="M162.15234 355.86719l-.23437.29297.0586.23437.11718.17188.17578.23437.29297.34766.11328.0586.11719-.17188.0586-.23438.17577-.17578.46485-.17578h.69922l.23437.29297.28906.8164.0586.17579.17578.23046.35156.23438.69922.69922.17188.17578.23437.34765.23438.41016.28906.58203.41015.46485.23047.23437.23438.17578.11719.23047.17578.29297.17187 1.16406v.23438l.0586.28906.05859.11719.11719.11719.34765.41015.11719.17188.17578.17578.17578.23437.11719.17188.17188.35156.05859.23438.23437.40625.23438-.0586-.17578.17578-.0586.92969h-.58203l-.23437-.11328-.34766.11328-.11719.11719-.05859.29297-.0586.17578-.11718.17187-.46484.29297-.0586.23438-.0586.11328v.64453l.0586.17187v.41016l.0586.0586v.40624l.05859.40625.11719.17579.05859.05859.23047.64062-.0586.29297v.69922l-.05859.58203v.23438l-.0586.23047-.05468.35156v1.92187l.05469.1172h.42578l-.36719.11718-.02344.35156.89063 1.16797 1.74219.53906 1.33984.35938v.53906l.08984.8086.53516.71484 1.51953.26953.89063-.08594.08984 1.16406.53516.1797 1.16015-.1797 2.05469-.98437 1.16016-.36328 1.8789-.17578 1.69531-.1797-.17968.71876-1.51563.08594-1.25.08984-.80469.26953-1.07421.8086.26953.71875.53515.89843-.17968.625-.26563.8086.26563 1.07812.625.89844.80468.17969 1.25-.1797-.26562.72267.09766.5039.05468.29297v.17188l.0586.29296v.40625l.17578.1172.35156.11718h.40625l.29297-.17578.11328-.11719.0586-.11719.11718-.23047.0586-.17578.35156-.46484.23047-.17578.17578-.0586.17578.0586.0586.17578.11718.98828.05469.46875.0586.17188.11718.23437.17578.0586.8164.05859h.28907l.11719.23437.05859.40625.0586.35156v1.10547l.11718.29297.11719.34766.28906.69922.17578.35156.58203.7539.35157.17579.17187.0586.46875.23437.64063.46484.34765.23438.29297.17578.29297.05468.23047.0625.8164.34766.29297.17578.11328.17188.35157.35156.11719.17578.52343.64063v.28906l.0586.35156v.34766l.05859.35156.0586.28906.11718.0586.17188.05859h.17578l.58203.23437.17578.1172.17578.28905.17578.23438.11328.23437.29297.23047.11719.11719v.41016l.0586.05468.28906.23438.23437.11719.0586.11718.11718.17188.0586.11719.23047.23437.05859.17578.23437.0586.1172.05859-.1172.11328-.05859.11719v.11719l-.11719.29296-.11719.28907v.58203l.17579.11719.11718.05859.0586.11719.11719.11719.11328.05859.17578.34765.0586.35157.05858.40625v.17578l-.05859.17578-.11719.69922v.17187l.1172.17579.29296.29296h.40625l.17578.1172.11719.17187.11719.29296v.23438h-.52735l-.23047-.23438h-.23437l-.17578.0586-.0586.69922.0586.34765.11719.17579.17578.41015.11718.23047.28907.46875.17578.05469h.52344l.23437.0586.75781.64062.0586.29296v.23438l.05859.0586.23047.34765v.35156l-.11719.17188v.29297l.29297.28906.29297.17578.17187.0586.29297.17577.29297.1172.58203.40624.28906.23438.29297.17578.21875.16015.01563.01172.23047.17579.64062.52343.17578.23438.1172.17578.17577.17578.11328.17188v.64062l.1172.17578.46874.11719.58203.11719.23438.05859.23047.11328.29297.11719.11328.0586.58593.35156.28907.17187.17578.0625.17578.05469.17578.0586.69922.35155.28906.17579.23438.05468.28906.17578.23437.1172.64063.40624.29297.11719.17187.0586.23438.05859.41015.05859.23047.0586.23438.11718.0586.17188-.41017.17578.46875.0586.0586.29296.11328.23438.17578.05468.23438.0586.17578.05859.40625.11719.64062.23437.11719.17188.0586.23437v.17578l-.0586.1172-.0586.40624.23438.23438.11719.05859.34766.11719.64062.23047.17578.11718.28906.1172.17578.17577.23438.46485.58203 1.10546.17578.17579.34766.17578.17578.11719.35156.11718 1.04688.52344.23437.0586.46485.11327.29297.0586.46484.17578.75781.58203.23438.23438.34765.46484.17578.17578.28907.23438.8164.69921.29297.17579.28906.28906.29297.17578.29297.28906.69531.64063.17578.17578.29297.23437.28907.23438.46875.28906.64062.58203.34766.23438.23437.29297.34766.34765.35156.46485.9336.99218.34765.40625.11719.17579.23437.05859.11328.11719.64454.17578.23047.11328.23437.0586.29297.17577.23047.1172.9336.69921.40624.40625.23438.17578.40625.17578.23437.11719.8164.34766.34766.23437.23438.11719.29297.28906.23047.11719.7578.35156.35157.17188.23047.05859.29297.11719.23437.0586.8711.17577h.8164l.46875.23047.17188.0586.875.69921.46484.1172.29297.05858.17578.0586.23047.0586.46875.05859.34766.05859.35156.0586.40625.05859h.29297l.17187.0586v.23046l.17578.17578h.29297l.34766.0586.35156.05859.69922.11719h.64063l.46484-.23438.29297-.17578.17187-.11719.41016-.17187.28906-.17578.9336-.46485.46875-.29297.52343-.29296.46485-.17188.46484-.17578 1.05078-.46485.28906-.11718.41016-.11719.28906-.11719.52735-.17578 1.51562-.69922.58203-.34765.28907-.0586.29297-.0586.34765-.11718.875-.23047.35156-.11719h.11329l.23437-.05859.875-.23437.23438-.0586h.8125l.35156-.0586.8164-.11718.17188-.0586.35156-.05468.29297-.0586.23047-.05859.8164-.17578.17579-.0586h.34765l.23438-.05859.46484-.11718.75781-.17188.23438-.0586h.34765l.41016-.11718.28906-.0586 1.28516-.05859h.28906l.41016-.0586.23047-.05858h.17578l.875-.1172h.40625l.41015-.11718h.34766l.35156-.11328.8711-.0586h1.75l1.04687.28907.41016.11719.28906.11718.35156.11719.28907.11719 1.05078.17187.28906.0586h.29297l.29297.05859.17187.0586.41016.05859.17187.0586.1172.05858h.11718l.11719.0586.35156.0586h.11328l.41016.0664 1.92187.39453 1.92578.39453 1.51953.44922 1.69532.71875 2.14453.80469 1.60547-.71875 1.42968-.80469 1.16016-1.07813 1.25-.44921 3.03516-.71875 1.875-.35938 2.14453-1.34765 2.23437-1.25391 2.5-1.25781 1.69531-.44922 1.78516-.17969 1.16016-.26953.625.53906 1.33984-.26953.71485-.98828.98437-1.34375.44531-.17969.80469-.35937 1.875-.53907 1.78516-.44921 1.25-.26954 1.16015-.08984 1.69922-.08984 1.96094-.26954 1.25-.08984h.53906l.625-.08984h.89063l2.14453-.17969 2.41015-.17969 2.58985-.08984 1.69531.17969 1.60938.08984 1.42968.35938 1.16016.71875 1.875.98828 1.16015 1.52734.26563.71484.6289.08985.35548.89844.53515.53906.53516 1.52734 1.07422.35938h.53515l-.80469.53515.08985 1.70703.71484 2.69532.89063.80468.89453.98829.71484 1.2578 1.78516.53907 1.51953-.17969.35547 1.34375 1.60937-.80469.98047-.53906.26953.26953.31641-.21484.21875-.14453.80078.44922.44922-.35938h.35547l.53515-.26953.53907-.71875.53515-.26953.625-.98828 1.16016.44922.83984.3711 1.39454.61718 1.6953-.17969h1.60548l1.78515.08985.17969-1.70704.53516-1.34375.80468.26954.4922.84765.40233.40625-.08984.53906v.35938l.71485.44922.71093-.26953h1.42969l.35938.98828.4453 1.25781.71485 1.34375 1.25.6289 1.69531.62891.71485-.17969.17969-.53906.98046-.08984.44922.35937.08594 1.25782-.26563.6289-.53515.17969v.53906l.71484.98438.26563.53906.98437.98828.80078 1.07813-.26562.35937-.08985.89844-.625 2.33203-.35546 2.0664-.08985 1.79298-.17969.71875-.08984.53906v1.4375l-.98047 1.88281-.35937 1.70703-.53516.89844-.80469 1.16797-.26562.53906 2.05469 1.2539.08593.35938-.35546.53906-.08985-.17968v.80859l.08985 1.4375-.44532.71484-1.07422.09375-.26562.71485.53515.89844.8047.71875 1.16015.80859 1.33984.26953.44531.35938-.35546.44921-1.78907-.08984-1.25-.44922-.71484-.71875-.625-.08984-.17578 3.58984-.1875 1.3086h89.35937V311.70313h-55.26953v49.08203l.76172.125 3.28906.54296 2.02344 2.83594v2.7539l2.35156.33204 2.34766.33203h4.05078l-1.3789 4.16016-2.02344.70703-2.02344.70312-.54297.34375-2.59375 1.6172-.1875.11718-2.02344-2.07813-.73046-2.74218-2.67188-2.07813-1.375-3.5-.0664-.08203-1.95704-2.67188 2.75-1.41796v-49.08204H294.42187v91.41407l.1172.03125.1328.01172.07422.07421.10547.04688.08985.0586.08593.05859.08985.0586.29687.29687.0586.08984.03125.11719.02734.11719.01563.13671-.03125.1172-.0586.08983-.0586.08594-.04296.10547-.04688.10156-.02734.1211v.14453l.17578.26953.14844.14844.07422.08594.07422.07421.04296.10547.0625.08985.0586.08593.04297.10547.0586.08985.04687.10156.04296.10547.0586.08594.11719.17968.07421.07422.0625.08594.0586.08984.04297.10547.0586.08985.05858.08593.0625.08985.0586.08984.04297.10156.11719.17969.07421.07422.0586.08594.07422.07421.08984.0586.10547.04687h.14844l.1328-.01562.13282.01562.10156-.04687.07422-.07422.04688-.10156-.01563-.13281v-.14844l-.04687-.10547-.02735-.11719-.04687-.10156-.02735-.1211-.04296-.10156-.0625-.08984-.04297-.10156-.04297-.10547-.03125-.11719-.01563-.13281-.01171-.13672.08593-.0586.0586-.08593.12109-.03125.04297.10547.01562.1328v.1172l.0586.10156.0586.08984.08983.0586.14844.14843.0586.08985.04296.10547-.01171.10156.08593.0586.10547.04687.08594.0586.08984.05858.07422.07422-.11719.02735-.10546.04687-.08594.0586-.07422.07421-.0586.08985-.0625.08594-.02734.12109-.04687.10156-.04297.10547-.03125.11719-.01172.13281-.01563.13281v.14844l.02735.11719.04687.10547.04297.10156.0586.08984.07421.07422.08985.0586.07422.07421.08984.0586.0586.08984.04296.10547.04688.10156.11719.03125.1328.01563h.14845l.11718-.03125.10547.04297.04297.10547.04688.10156.02734.1211L299.5 410l.02734.11719.03125.1211.02735.11718.10547.04297.10156.04687.13281-.01562.14844.14844.0625.08593.07422.07422.07031.07422.08984.0625.10547.04297.10156.04297.1172.03125.13671.01562.11719-.03125.07422-.07422.02734-.11718-.01172-.13282-.03125-.12109-.02734-.11719.04297-.10547h.11719l.08984.0625.11719.02735h.14843l.13282.01562h.14843l.13282.01563.1328-.01563h.14845l.1328-.01562.13282-.01172.13672.01172.11719-.02735.13281-.01562.1914-.0586-.05859.17579-.01562.1328-.02735.1211-.01562.13281-.0586.08594-.1328.01563-.10548.04687-.10546.04297-.1172.03125-.11718.02735-.26563.03125h-.14843l-.13281.01562-.07422.07422.05859.08594.14844.14843.11719.1797.07421.0703.08985.0625.08984.0586.08594.0586.08984.05858.10156.04297.10547.0625.10547.04297.08594.0586.10547.04687.10156.04297.17969.11719.0586.08984-.04298.10156-.04687.10547.01562.13281.22266.22266.0586.08985.04296.10156.03125.1211.04297.10155.01563.13282.03125.11718.01171.13672.03125.11719.14844.14844.10156.04297.10547.04296.1172.03125.1328.01563.13672.01563h.11719l.11719-.03125.08984-.0586.04297-.10547.04688-.10156.04296-.10547.03125-.11719.01172-.1328v-.14845l-.01172-.1328-.01562-.13282-.03125-.11719-.04297-.10547-.04688-.10547-.04296-.10156-.04297-.10547-.01563-.13281.01563-.13281.02734-.11719.03125-.11719.02735-.1211.04687-.10155.08984-.0586.08594-.0625.07422-.07422.08984-.05859.22266-.22266.0586-.08593.07421-.07422.11719-.17969.0586-.08594v-.14844l-.07423-.07421-.10156-.04688-.10547-.04297-.10156-.04297-.0586-.08984-.04687-.10547-.02734-.11719.08984-.05859.11719-.03125.10156-.04297.17969-.11719.14844-.14843.01172-.13282-.01172-.10546-.08985-.0586-.1328.01563h-.14845l-.1328.01562-.13282-.01562-.1211-.03125-.08593-.0586-.07422-.07422-.0586-.08984-.0625-.08594-.11718-.17969-.0586-.08593.03125-.1211.08594-.05859.1211-.03125.05859-.08594v-.1211l-.03125-.11718-.0586-.08984-.05859-.08594-.04687-.10547-.02735-.11719-.01562-.1328.0586-.08985.07421-.07422.08984-.0586.1172-.17968.07421-.07422.0586-.08594.14843-.14844.1211-.03125.1328-.01562.13282.01562.07422.07422.04297.10547.01562.13281-.03125.1172-.11719.03124-.1328.01172-.14844.14844-.04297.10547-.04688.10156-.02734.1211-.03125.11718v.14844l.03125.11719.04297.10546.05859.08985.07422.07031.07422.07422.11719.03125.12109.02734.11719-.02734.1328-.01563h.1172l.08984.0586.07422.07422.04687.10546.0586.08594.10156.04688.13281.01562.10547.04297.08594.0586-.01172.10546-.07422.07422-.17969.11719-.05859.08984-.08984.0586-.07032.07422-.07421.07421-.0625.08985-.02735.11719-.01562.1328.01562.13282-.01562.13281v.14844l.01562.13281.02735.1172.03125.12108.07421.07422.08985.0586.08594.0586.08984.05858.11719.03125v.08594l-.10157.04688-.08984.0586-.26563.03124-.11718.02735h-.14844l-.10547.04296-.10156.04688-.0586.08984-.0625.23438-.01171.13281-.03125.1211-.01563.1328v.29298l-.01172.1328.01172.13673.01563.1328.1328.01563.13282.01172.1211.03125.08593.0586.07422.07421.04688.10547.04296.10157.01563.1328v.44532l-.01563.13281v.44532l.03125.26562.02735.11719.01562.13281.03125.11719.08594.21094.03125.26562v.14844l-.03125.11719-.02734.11718-.03125.1211-.02735.11719-.03125.11718-.03125.1211-.01171.1328-.01563.13282.08984.0586.1172-.03125.10155.01562.04688.10547-.03125.26562v.44141l-.04297.10547-.04688.10547-.04296.10156-.04297.10547-.0586.08594-.03125.12109-.04296.11719-.03125.11719-.01563.1328.01563.13282.05859.08984.10547.04688.08594.0586.05859.08593-.01172.13672-.03125.11719-.04297.10156v.44531l-.01562.13281v.14844l-.03125.11719-.04297.10547-.02735.11719-.04687.10546-.04297.10157-.03125.12109-.02734.11719-.03125.13281-.03125.11719-.02735.11719-.04297.10546-.03125.1172-.03125.12108-.01171.13282-.01563.13281v.29688l.02734.11718v.14844l.04688.39844.02734.11719.0586.08984.12109.03125h.14844l.13281-.01563.0586.08985v.11719l-.0586.08984-.08984.0586-.10157.04296-.10546.04688-.08985.05859-.08594.0586-.13671.01562-.1172-.03125-.1328-.01563-.10157.04688-.0625.08594-.01172.13671-.01562.13282-.03125.11719-.02735.11718-.01562.13281-.03125.1211v.29687l.01563.13282.03125.11718v.14844l.01171.13281v.14844l-.02734.11719-.04688.10156-.02734.1211-.03125.11718-.0586.08985-.07421.07421-.10156.04297-.10547.04688-.11719.02734-.1211.03125-.10156-.04687.0586-.08594.10547-.04688.02734-.11718.03125-.11719.02734-.1211.03125-.11718v-.14844l.01563-.13281-.03125-.11719-.04297-.10547-.10547.01563-.07422.07422-.10156.04296-.08984.0625-.07422.07422-.04297.10157-.01563.1328-.03125.1172L304.25 426l-.03125.11719-.02734.11719-.03125.12109-.02735.11719-.03125.11718-.04297.10547-.08984.0586h-.08984l-.1172-.03125-.03124-.08594.01562-.13672-.03125-.11719v-.14844l-.01171-.1328v-.14844l-.0625-.23438-.02735-.1211-.04297-.10156-.04687-.10546-.0586-.08594-.05859-.08985-.04297-.10546-.0625-.08594-.14844-.14844-.0703-.07422-.10548-.04687-.10547-.04297-.10156-.04297-.29687-.29688-.08985-.07421-.08594-.0586-.10546-.04297-.08985-.0625-.08594-.0586-.10546-.04296-.08985-.0586-.08594-.0625-.07421-.0703-.10547-.04688-.08594-.0586-.10547-.04296-.08984-.0625-.10156-.04297-.10547-.04297-.08594-.0586-.10547-.04687-.10547-.04297-.10156-.04687-.08985-.0586-.10156-.04297-.10547-.04296-.08984-.0625-.11719-.02735-.13281-.01562-.13281.01562H299.75l-.13281.01563-.11719-.03125-.08984-.0586-.07422-.07422-.08985-.05859-.10156-.04688h-.14844l-.12109-.02734-.10156-.04297-.07422-.07422-.11719-.17968-.08984-.0586-.10156-.04297-.08985-.0625-.10547-.04296-.08984-.0586-.08594-.0586-.10547-.04687-.0586-.08594-.05858-.08984-.04297-.10547-.04688-.10156-.07422-.07422-.08594-.0586-.07421-.07421-.08985-.0586-.22265-.22265-.04297-.10547-.03125-.26563.10547-.04296h.14453l.10547.04296.07421.07422.08985.0586.08594.0586.10546.04687.08985.05859.14844.14844.0703.07422.14845.14843.0625.08594.07421.07422.08594.0586.07422.07421.08985.0625.08984.0586.08594.05859.26953.17578.10156.04688.10547.04296.10156.04297.04688-.07421.05859-.08594.07422-.07422.07031-.07422.10547.04297.07422.07422.0586.08984.04296.10156.04688.10547.04296.10547.1211.02735.11719-.02735.07421-.08984.04297-.10547.0586-.08985.07422-.07421.10546-.04297.1172-.02735.1328.01172.08985.0586.14844.14843.05859.08985.04297.10547.04687.10156.04297.10547.04297.10156.10547.04688.10547.04296.13281.01563.08594-.0586.0586-.08984.07421-.07422.10547-.04297.11719.02735.10547.04687.10156.04297.10547.04297.10156.04688.17969.11718v.11719l-.01563.13281.01563.13281.01562.13672.0586.08594.10156.04688.1211.02734.11718.03125h.14844l.11719-.03125.05859-.08984.17969-.1172.05859-.08983.07422-.07422.0586-.08594.11718-.17969.17969-.11719.11719.03125.08984.0586.04297.07422-.01563.1328v.1172l.08985.05859h.14843l.13282-.01563.1328-.01171.26563-.03125.10547-.04297.11719-.03125.1211-.02735.07421-.07421.07031-.07422.0625-.08985-.01562-.10547-.04688-.10156-.10156-.04297-.10547-.01562-.11718.02734-.26563.03125h-.14844l-.07421-.07422-.08985-.0586-.11719-.03124-.11718-.02735-.13282-.01562h-.14843l-.13282.01563h-.29687l-.10547-.04688-.14844-.14844-.04297-.10156-.05859-.08984.22266-.22266.08593-.0586.10547-.04296.11719-.03125.13281-.01563.13281.01563.13672.01562.10157.04297.1328-.01172.08985-.0625.10156-.04297.0625-.08984-.04687-.10156-.08984-.0586-.1172-.03125-.10155-.04296-.0586-.08985-.0625-.08984v-.11719l.01563-.13281.10547-.04688.07421-.07031v-.1211l-.08984-.05859-.03125-.11719.08985-.05859.07421-.07422.04297-.10547.0586-.08984.04687-.10156.01563-.13281v-.14844l-.04688-.10547-.04297-.10156-.08984-.0586-.13281-.01562-.10157-.04297-.13671-.01563-.1172-.03125h-.4453l-.13282-.01562-.13281-.01172-.13281-.01563-.11719-.03125h-.14844l-.13281-.01562-.13281-.01172-.26563-.03125-.1211-.04297-.08593-.0586-.07422-.07421v-.14844l.01172-.13281.10547-.04688.10156-.04296.13281-.01563h.15235l.13281-.01562h.29297l.1211.03125.10156.04296.08984.0586.23438.0625.12109-.04688.08984-.05859.10156-.04297.13282-.01562.10547.04296.10156.04688.13281.01172.1211-.02735h.14453l.12109-.03125.11719-.02734.10547-.04687.07421-.07422.08594-.0586.14844-.14843.0586-.08594.04687-.10547.02734-.11719.01563-.10547-.10156-.04296-.08985-.0586-.11719-.03125-.10546-.04297-.08985-.0625-.07422-.08594-.07422-.07421-.10156-.04297-.10547-.04688-.10156-.04297-.0586-.08984-.04687-.10156-.08594-.21094-.0625-.08594-.05859-.08984-.07422-.07422-.08594-.0586h-.26953l-.11719.03126-.08984.05859-.10156.04297-.13281.01562-.10547-.01562-.02735-.11719-.0625-.08984-.11718-.03125-.10157-.04297-.14843-.14844-.03125-.11719-.01563-.10546.07422-.07422.17969-.1172.11719-.02733.11718-.03125.13672.01562.10156.04297.10547.04297.10156.04687.10547.04297.1172.03125.1328.01563.1172.02734.1328.01563.10547-.01563.08985-.0586-.07422-.07421-.10547-.04297-.07422-.07422-.07422-.08984-.14844-.14844-.08593-.0586-.08985-.05859-.07422-.07422-.08984-.0586-.10156-.04687-.1211-.02734-.10156-.04688-.10547-.04296-.11719-.03125-.10156-.04297-.1211-.03125h-.14843l-.11719.03125-.10546.04297-.08594.0625-.17969.11718-.08594.0586-.08984.0586-.10547.04687-.08594.05859-.10547.04297-.10156.04297-.10547.04687-.07422.07422-.05859.08985-.0586.08593-.04687.10547-.0586.08594-.07421.07422-.13281-.01172-.1172-.03125h-.11718l-.07422.07422-.08984.0586-.07422.07421-.08984.0586-.08594.05859-.10547.04687-.10156.04297-.13672.01563-.10156-.04297-.14844-.14844-.10547-.04688h-.08594l-.10547.04688-.10156.04297-.1211.03125-.11718-.03125-.07422-.07422v-.11719l.03125-.1211.07422-.0703.0586-.08985.07421-.07422.11719-.03125.10547-.04296h.29297l.13281-.01563.13672-.01563.10156-.04296.08985-.0586.10156-.04687.08984-.0586.13281-.01171.08985.05859.13281.01172.08984-.0586.08594-.05859.10547-.04297.08984-.0586.08594-.0625.08985-.05859.14843-.14843.0586-.08594.05859-.08985.10547-.04296.13281-.01563.11719.02735.1211.03125.05859-.0586.05859-.08984.03125-.26563.02734-.11719.10547.01172.13281.01563.10157-.04297.08984-.0586.0586-.08984.07421-.07422.0586-.08984.04687-.10156.01172-.13281-.01172-.13282-.04687-.10547-.14844-.14843-.0586-.08985-.05859-.08594-.04297-.10546v-.44532l.01563-.1328v-.14845l.01172-.1328-.0586-.0586-.08984.0586-.10156-.04298-.17969-.11719-.08594-.05859-.0625-.08984-.0586-.08985-.07421-.07421-.08594-.0586-.1211.03125-.10155.01172-.10547.04688-.08594.05859-.10547.04297-.14844.14844-.08984.05859-.08594.0586-.08984.0625-.10547.04296-.13281.01563v-.1211l.10547-.04297.11718-.03125.07422-.0703.04297-.10548v-.14844l-.02734-.11718-.14844-.14844-.13281-.01563h-.14844l-.11719.03125-.10547.04297-.10156.04297-.08984.0625-.11719.02735-.07422-.07422.01172-.13281-.04297-.10157-.04297-.10547-.08984-.05859-.11719.02734-.1211.03125-.11718.03125-.10156.04297-.1211.03125-.10156.04297-.10547.04297-.08984.0586-.10156.01562v-.11719l.01562-.13281-.0586-.08985-.07421.04297-.14844.14844-.0586.08985-.07421.07421-.04688.10547-.04296.10156-.07422.07422-.0586.08985-.07422.07422-.05859.08593-.07422.07422-.08984.0625-.07422.07031-.07422.07422-.10156.01563-.13281.01562-.10547-.04296v-.1211l.14843-.14844.04297-.10156.0586-.08984.04687-.10156.04297-.10547.0586-.08985.03124-.11719.04297-.10156.03125-.1211.02735-.11718.04687-.10547.04297-.10156.04297-.10547.07422-.07031.08984-.0625.08985-.0586.10156-.04296h.29687l.26563-.03125.10547-.04297-.07422-.07422-.11719-.03125-.10547-.04297-.08984-.0586-.10156-.04687-.08985-.0586-.10156-.04296-.10547-.04297-.08984-.0625-.08594-.0586-.10547-.04296-.10156-.04297-.1211-.03125-.11718-.03125-.10157-.04297L297.5 410.25l-.10156-.04297-.08985-.0586-.04296-.10546-.01563-.13281.10156-.04297.13281-.01563.13672.01563.13282-.01563.10156-.04297.0586-.08984.01562-.10547-.08985-.0586-.07421-.07421-.10157-.04297-.08984-.0586-.14844-.14843-.04297-.10547-.01562-.13281v-.29297l-.0586-.08985-.08984-.05859-.07422-.07422-.04297-.10547-.03125-.11718-.0586-.08985-.07421-.07422-.11719-.02734-.07422-.07422-.08984-.0586-.08984-.0625-.08594-.05859-.07422-.07421-.0586-.08594-.04687-.10547-.08594-.0586-.14843-.14843-.19532-.0586-.1328.01563-.10157.04297-.07422.07422-.04688.10156-.04296.10547-.0586.08984-.0586.08594-.29687.29687-.08984.0586h-.08594l-.0625-.08594-.04297-.10547.03125-.11719.0586-.08984.02734-.11719-.01172-.13281-.08984-.0625-.10547.04688-.11719.02734-.11719.03125-.26953.17578-.10156.04688-.11719.02734-.10546.04687-.08985.0586-.10156.04297-.0586-.08594-.04687-.10547.01563-.13281.04687-.10547.07031-.07422.07422-.07031.0586-.08985v-.14843l-.04297-.10547h-.23829l-.10156.04687-.03125.11719-.02734.11719-.03125.1211-.07422.04296-.13281.01563-.07422-.04688-.04297-.10156-.04297-.10547-.04687-.10156-.04297-.10547-.1211.03125-.10156.04297-.13281.01562-.11719.03125-.10547.04297-.08984.0586-.10156.04687-.1211.02734-.13281.01563-.10156-.04297-.0586-.08985-.04687-.10546-.04297-.10157-.04297-.10546v-.1172l.0586-.08984.08593-.05859.17969-.11719.10156-.04687.10547-.04297.10547-.0586.10156-.04296.08985-.0625.10156-.04297.10547-.0586.10156-.04687.08984-.0586.10547-.04296.10156-.04297.08985-.0625.10156-.04297.13672-.01563.11719.03125.10156.04297.1211.03125.10156.04297.10546.04688.10157.04296.10547.04297.10156.04688.10547.04297.10156.04297.10547.04687.08594.0586.10546.04296.1172.03125.10546.04297.10156.04688.08985.0586.10547.04296.10156.04297.10547.04687.11719.02735.10156.04687.1211.02735h.14843l.08594-.0586.01562-.10156.0586-.08984-.02735-.1172-.07422-.07421-.11719-.17969-.07421-.07422-.08985-.07421-.17969-.1172-.08593-.05859-.10547-.04296-.10156-.04688-.26954-.17578-.05859-.08985-.07422-.07421-.0586-.08985-.04296-.10156-.03125-.11719-.01563-.13672v-.5625l-.01171-.1328-.01563-.13282-.03125-.11719-.01562-.13281-.01172-.13281-.03125-.1211-.22266-.22265-.0586-.08594-.01562-.10547.03125-.11719.13281-.01562v-91.41406H172.9922v1.45312l-.0586.23438-.35156 1.05078-.17187.52343-.1172.34766-.17577.41016-.11719.17187-.23438.29297-.23046.0586h-.35157l-.11718.05859-.23047.40625v.29297l.11719.17578.23046.23047.1172.23437.64062.75781.29297.46485.17578.23437.23047.35156.23437.34766.64063.8164.17578.46485.17187.41016.11719.69531.17578.46875.11719 1.39844.0586.46484v.875l.11718 1.04688v4.78125l-.0586.46484-.35156 1.28125-.17578.52344-.11328.41015-.35156.9297L172.93359 336l-.23437.58203-.11719.17578-.17187.34766-.17578.40625-.35157.8164-.0586.29297-.11327.29297-.11719.28906-.0586.17579-.11718.875-.0586.40625-.05859.11718-.0586.17579-.05859.17187-.23047.52734-.11718.17188v.23437l-.11719.23438-.0586.17187-.17577.58594v.28906l-.0586.17579v.29296l-.0586.11329-.05859.52734v.17187l-.05468.23438v2.6211l-.17578.8164-.1172.17578-.17577.23438-.1172.17187-.11327.23438-.58594.93359-.23047.28906-.29297.46485-.17578.23437-.28906.35156-.35156.69922-.11328.23047-.17579.41016-.17578.23046-.40625.52735-.8164.69922-.29297.17187-.28906.23438-.17579.11719-.17578.17578-.52344.40625-.52734.17578-.17187.17578-.23438.05469-.64062.17578h-.75782m12.21094 31.02344l-1.07422.44921.35938.89454 1.25-.71485.44531-.53906-.98047-.08985"/><path fill="#d3d3d3" fill-opacity="0" fill-rule="evenodd" d="M201.50781 416.59766h-.89453l.44922.6289.98047.35938.80469-.08985.4453-.98828-.17577.08985-.71485-.35547-.89453.35547m154.6211 59.0703l-.0586-.52343v-.29297l.11328-.29297.0586-.23046.46875-.46875h.11328l.11719-.11329.11718-.05859h.17579l.23437-.0586h.34766l.23437.0586.11719.0586.23047.17187.0586.17578.11718.58203v.29297l-.11719.17578-.17187.28906-.17579.17579-.52734.52343-.23047.23438-.11719.0586h-.17578l-.11718-.0586-.40625-.29297-.17579-.11719-.11718-.0586-.0586-.11327-.05468-.1172m6.64062-10.95702l-.0586-.17188v-1.10937l.0586-.17188.17578-.0586.17188-.05858h.17578l.23437-.0586.1172.0586.05858.69921-.05859.17188-.11719.17578-.11718.0586-.23438.52343-.11328.0586h-.23438l-.05859-.1172m9.61328-14.39062l-.11719-.17578v-.69922l.29297-.875.1172-.17187.17577-.35156.11328-.23047.1172-.29297.35155-.75781.1172-.23047.17187-.23438h.17578l.11719-.0586h.64062l.11719.0586.23437.23438.17188.11328.35156.29297.11719.11718.11328.17579v.11328l.11719.05859.11718.11719v.69922l-.05859.17578v.23047l-.0586.17578-.34765 1.05078-.11719.23047-.11719.23437-.11718.0586-.23047.23437-.64063.28906h-.875l-.41015-.11718-.64063-.46485"/><path fill="none" stroke="#bebebe" stroke-linecap="round" stroke-linejoin="round" stroke-miterlimit="10" stroke-width=".5" d="M467.95703 311.69531H144.02734v168.625h323.9297v-168.625"/><g clip-path="url(#a)"><path fill="#fff" fill-opacity="0" fill-rule="evenodd" d="M144 475.89063v4.4375h.0039H144V311.67188h.0039H144v164.21875"/></g><g clip-path="url(#b)"><path fill="#fff" fill-opacity="0" fill-rule="evenodd" d="M144.0039 480.32813V311.67188h79.88673V419.1953l-4.4375.90625-4.4375-.3164-2.54688 2.84375-1.89453 1.60156-4.4375.3086-4.4375-.36329-4.4375 1.35156-1.89844 1.54297-2.54297 1.26172-4.4375 1.65235-4.4375 1.3828-.32031.14063-4.11719 2.0039-3.90625 2.4336-.53515.6289-4.4375-.18358-4.4375 2.23437-4.4375-.7461-2.26953 2.50391-1.6211 4.4375-.54687 2.5-2.82813 1.9414-1.55078 4.4375.71875 4.4375 3.66016 4.17579.14843.26172 4.28907 2.16406 4.4375-.25 4.4375-1.08594 4.4375 1.27344 4.4414.01953 4.4375-.1211 4.4375-1.74608 4.4375.23828 1.0625-.4922 3.3789-1.14062 4.4375-.66406 4.4375-1.2461 4.4375-.97656.6836-.41015 3.75781-1.40625 4.4375-1.67188 2.70704-1.35937 1.73047-.57422 4.4375-1.09766 2.89843-2.76562 1.53906-1.73828 2.22657-2.70313 2.21484-4.21094 4.4375 3.48829 4.4375-.28125 3.26953-3.4336 1.07031-4.4375-4.33984-3.6211-4.4375-.67577-.46094-.14063-3.97656-3.48437-.79297-.95313-3.51562-4.4414-.13281-.21485-4.4375-2.36328-4.4375-.85547V311.67187h35.5078v117.23047l-4.4414.23438-3.57031 2.3711-.75 4.4375 4.32031 3.14452 4.4414.0625 3.03907-3.20703.24219-4.4375-3.28125-2.60547V311.67188h13.3125v118.11718l-4.4375.22266-2.44922 1.4961 2.44922 1.29296 4.4375.32422 4.4414-.375.85547 3.19531 3.58203 3.52735 3.96875-3.52735-2.45312-4.4375-1.51563-1.51172-4.4375.17188-4.4414-.3789v-118.1172h79.89062v125.94141l-2.83594 2.76953 2.83594 2.85547 3.16797-2.85547-3.16797-2.76953v-125.9414h17.7539v131.3203l-2.09765 1.82813 1.48047 4.4414.61719 1.67579 4.4375 2.39453 4.4414-2.22656 4.4375 1.22265 2.23438-3.0664 2.20313-3.66016.69921-.78125-.69921-.6875-1.94141.6875-2.4961.94531-4.4375 2.46094-4.4414-3.2539-1.38281-.15235-3.0547-1.82812V311.67188h97.64063v168.65625h-64.2578l-2.3125-2.82422-4.44142-1.2461-4.4375-.22656-1.41796-.14063 1.41796-2.99218 1.51172-1.44531-1.51171-3.95704-.09766-.48046-4.33985-2.95704-2.25-1.48437-2.1875-2.44531-1.40234 2.4453-.6289 4.44142.96484 4.4375 1.0664 2.48828 1.09766 1.94921-1.09765.73438-2.23829 3.70313H144.00391"/></g><path fill="#50fcfc" fill-rule="evenodd" d="M153.65625 458.13672l-.71875-4.4375 1.55078-4.4375 2.82813-1.9414.54687-2.5 1.6211-4.4375 2.26953-2.50391 4.4375.74609v4.42578l-4.4375.96875-.3711.80078-.89453 4.4414-1.70312 4.4375.94922 4.4375 2.01953 2.46485 4.4375-2.19922 1.3125-.26562-1.3125-1.03125-.375-3.40625.375-2.33985.79687-2.09765 2.66406-4.4414-3.46093-1.76954V438.625l4.4375-2.23438 4.4375.1836v19.20312l-3.82813 2.35938 3.82813 2.41015 3.49218-2.41015-3.49218-2.35938v-19.20312l.53515-.6289 3.90625-2.4336v6.61719l-.3086.2539-.44921 4.4375.75781 1.52735 4.4375-.6211 1-.90625-1-2.20703-3.625-2.23047-.8125-.2539v-6.6172l4.11719-2.0039.32031-.14062 4.4375-1.38281 4.4375-1.65235 2.54297-1.26172 1.89844-1.54297 4.4375-1.35156 4.4375.36328 4.4375-.3086 1.89453-1.60155 2.54688-2.84375 4.4375.3164 4.4375-.90625v2.85938l-1.31641.57422-3.1211 1.44921-2.77734 2.9922-1.66016 4.21093-3.44921-4.21094-.9922-.41406-2.59374.41406-1.84375.20313-1.52344-.20313-2.91406-.54687-1.17188.54687-3.26562 1.14453-4.4414 2.77735-.96485.51562.40234 4.4375.5625.75781 3.1914 3.6797 1.25 2.60937 1.25782 1.82812-1.25781.90235-3.58594 3.53906-.79297 4.4375-.0625.09765-2.89844 4.33985 2.89844 1.07812 2.4336-1.07812 2.0078-1.45703 4.4375.86719 4.4375-1.39063 4.4375-.89453 2.73438-1.5625 1.70703-1.04688 4.4375-2.42187 4.01954-.96875.41797-.22656 4.4375-1.98438 1.85156-2.23047-1.85156-2.1914-1.71094-2.2461-.5664-4.4375 2.27733-.86328 1 .86328 3.4375 3.73828 4.44141-.72656L240 440.38281l1.64453 1.34766 4.4375-.40625.89844-.9414.07031-4.4375-.96875-.8086-4.4375-2.1211-4.4375-1.30078-.15625-.20703-3.83203-4.4375-.45313-.55469-4.4375-2.75-3.51953-1.13671-.91797-.57422v-2.85938l4.4375.85547 4.4375 2.36328.13282.21485 3.51562 4.4414.79297.95313 3.97656 3.48437.46094.14063 4.4375.67578 4.33984 3.6211-1.0703 4.4375-3.26954 3.43359-4.4375.28125-4.4375-3.48829-2.21484 4.21094-2.22656 2.70313-1.53907 1.73828-2.89844 2.76562-4.4375 1.09766-1.73046.57422-2.70703 1.35937-4.4375 1.67188-3.75782 1.40625-.6836.41015-4.4375.97657-4.4375 1.2461-4.4375.66405-3.3789 1.14063-1.0625.49219-4.4375-.23829-4.4375 1.7461-4.4375.1211-4.4414-.01954-4.4375-1.27344-4.4375 1.08594-4.4375.25-4.28907-2.16406-.14843-.26172-3.66016-4.17578"/><path fill="#00e8fc" fill-rule="evenodd" d="M159.73438 458.13672l-.94922-4.4375 1.70312-4.4375.89453-4.4414.3711-.80079 4.4375-.96875 3.46093 1.76953-2.66406 4.4414-.79687 2.09767-.375 2.33984.375 3.40625 1.3125 1.03125-1.3125.26562-4.4375 2.19922-2.01953-2.46484m15.33203 2.41015l-3.82813-2.41015 3.82813-2.35938 3.49218 2.35938-3.49218 2.41015"/><path fill="#fff" fill-opacity="0" fill-rule="evenodd" d="M179.19922 440.38281l-.44922 4.4375.75781 1.52735 4.4375-.6211 1-.90625-1-2.20703-3.625-2.23047-.8125-.2539-.3086.2539"/><path fill="#00e8fc" fill-rule="evenodd" d="M192.82031 459.21484l-2.89844-1.07812 2.89844-4.33985.0625-.09765.79297-4.4375 3.58594-3.53906 1.25781-.90235-1.25781-1.82812-1.25-2.60938-3.1914-3.67969-.5625-.7578-.40235-4.4375.96484-.51563 4.4414-2.77735 3.26563-1.14453 1.17188-.54687v2.9336l-4.4375 1.71483-.50781.33594.5078 2.23047 4.4375 1.7461 4.4375-.82032 2.9375-3.15625-2.9375-1.39844-4.4375-.65234v-2.9336l2.91407.54688 1.52344.20313 1.84375-.20313 2.59375-.41406.99219.41406 3.44922 4.21094 1.66015-4.21094 2.77734-2.99219 3.1211-1.44921 1.3164-.57422v3.64062l-2.17968 1.375 2.17969 2.63672 1.0625 1.80078 3.375 1.64453 3.23046 2.79297 1.20703 1.3164 4.44141-.76171 4.4375.78906 1.14063-1.34375-1.14063-.65234-4.4375-.1289-2.74219-3.65626-1.69922-1.85156-3.21484-2.58594-1.22266-.85547-4.4375-.51953v-3.64062l.91797.57422 3.51953 1.13671 4.4375 2.75.45313.5547 3.83203 4.4375.15625.20702 4.4375 1.30079 4.4375 2.12109.96875.8086-.07031 4.4375-.89844.9414-4.4375.40625L240 440.3828l-2.79297-1.42578-4.4414.72656-3.4375-3.73828-1-.86328-2.27735.86328.5664 4.4375 1.71095 2.2461 1.85156 2.1914-1.85156 2.23047-4.4375 1.98438-.41797.22656-4.01953.96875-4.4375 2.42187-1.70704 1.04688-2.73437 1.5625-4.4375.89453-4.4375 1.39063-4.4375-.8672-2.00781 1.45704-2.4336 1.07812"/><path fill="#00d4fc" fill-rule="evenodd" d="M197.26172 433.73828l-.50781-2.23047.5078-.33594 4.4375-1.71484 4.4375.65235 2.9375 1.39843-2.9375 3.15625-4.4375.82031-4.4375-1.74609m26.62892-4.03125l-2.1797-2.63672 2.1797-1.375 4.4375.51953 1.22265.85547 3.21484 2.58594 1.69922 1.85156 2.7422 3.65625 4.4375.1289 1.14062.65235-1.14063 1.34375-4.4375-.78906-4.4414.76172-1.20704-1.3164-3.23047-2.79298-3.375-1.64453-1.0625-1.80078"/><path fill="#50fcfc" fill-rule="evenodd" d="M254.95703 439.08984l-4.32031-3.14453.75-4.4375 3.57031-2.3711 4.4414-.23437v4.82813l-4.4414 1.4375-.40234.77734.40234.29297 4.4414.63672.87891-.92969-.8789-2.21484v-4.82813l3.28125 2.60547-.24219 4.4375-3.03906 3.20703-4.4414-.0625"/><path fill="#00e8fc" fill-rule="evenodd" d="M254.95703 436.23828l-.40234-.29297.40234-.77734 4.4414-1.4375.87891 2.21484-.8789.92969-4.4414-.63672"/><path fill="#50fcfc" fill-rule="evenodd" d="M268.27344 432.80078l-2.44922-1.29297 2.44922-1.4961 4.4375-.22265 4.4414.3789 4.4375-.17187v2.97657l-2.09765 2.97265 2.09765 2.0664 2.32032-2.0664-2.32032-2.97265v-2.97657l1.51563 1.51172 2.45312 4.4375-3.96875 3.52735-3.58203-3.52735-.85547-3.19531-4.4414.375-4.4375-.32422"/><path fill="#00e8fc" fill-rule="evenodd" d="M281.58984 438.01172l-2.09765-2.0664 2.09765-2.97266 2.32032 2.97265-2.32032 2.0664"/><path fill="#50fcfc" fill-rule="evenodd" d="M352.60156 443.23828l-2.83594-2.85547 2.83594-2.76953v2.6211l-.15234.14843.15234.15625.17188-.15625-.17188-.14844v-2.62109l3.16797 2.76953-3.16797 2.85547"/><path fill="#00e8fc" fill-rule="evenodd" d="M352.60156 440.53906l-.15234-.15625.15234-.14844.17188.14844-.17188.15625"/><path fill="#50fcfc" fill-rule="evenodd" d="M369.73828 449.26172l-1.48047-4.4414 2.09766-1.82813 3.05469 1.82812 1.3828.15235v1.9375l-2.55468 2.35156 2.55469 2.23047 2.60156-2.23047-2.60156-2.35156v-1.9375l4.4414 3.2539 4.4375-2.46094 2.4961-.9453 1.9414-.6875.69922.6875-.69921.78124-2.20313 3.66016-2.23438 3.0664-4.4375-1.22265-4.4414 2.22656-4.4375-2.39453-.61719-1.67578"/><path fill="#00e8fc" fill-rule="evenodd" d="M374.79297 451.49219l-2.55469-2.23047 2.55469-2.35156 2.60156 2.35156-2.60156 2.23047"/><g clip-path="url(#c)"><path fill="#50fcfc" fill-rule="evenodd" d="M382.60547 471.45313l-.96485-4.4375.62891-4.44141 1.40235-2.44531 2.1875 2.4453 2.25 1.48438V471.25l-.54688.20313.54688.24609.91406-.2461-.91406-.20312v-7.1914l4.33984 2.95702.09765.48047 1.51172 3.95704-1.51171 1.4453-1.41797 2.9922 1.41796.14062 4.4375.22656 4.44141 1.2461 2.3125 2.82421h-2.96484l-3.78906-2.51562-4.4375-1.04297-4.4375.3086-3.69922 3.25h-2.97657l2.23829-3.70313 1.09765-.73438-1.09765-1.94921-1.06641-2.48829"/></g><path fill="#fff" fill-opacity="0" fill-rule="evenodd" d="M388.10938 471.25l-.54688.20313.54688.24609.91406-.2461-.91406-.20312"/><g clip-path="url(#d)"><path fill="#00e8fc" fill-rule="evenodd" d="M384.41016 480.32813l3.69921-3.25 4.4375-.3086 4.4375 1.04297 3.78907 2.51563h-3.85938l-4.36719-2.33204-4.36718 2.33204h-3.76953"/></g><g clip-path="url(#e)"><path fill="#00d4fc" fill-rule="evenodd" d="M388.17969 480.32813h2.30078l2.0664-1.10547 2.07032 1.10546h2.29687l-4.36719-2.33203-4.36718 2.33204"/></g><g clip-path="url(#f)"><path fill="#00c4fc" fill-rule="evenodd" d="M390.48047 480.32813l2.0664-1.10547 2.07032 1.10546h-4.13672"/></g><g clip-path="url(#g)"><path fill="#fff" fill-opacity="0" fill-rule="evenodd" d="M467.9961 480.32813H468V311.67188h-.0039H468v168.65625h-.0039"/></g><path fill="#fff" fill-opacity="0" fill-rule="evenodd" d="M240.8711 435.53906l5.32421 2.40235 4.09375-9.08204-5.32812-2.39843-4.08985 9.07812"/><path fill-rule="evenodd" d="M247.39844 429.5664l.46484.21094-2.58594 5.73829-.71484-.32422 1.84375-4.08985-1.26563-.57422.22657-.5039.53906.17187.25.05469.2461.01172.24218-.04688.2461-.12109.25-.20703.2578-.32031"/><g clip-path="url(#h)"><path fill="none" stroke="#000" stroke-linecap="round" stroke-linejoin="round" stroke-miterlimit="10" stroke-width=".5" d="M147.5039 480.0625l-7.0078.53516"/></g><g clip-path="url(#i)"><path fill="none" stroke="#000" stroke-linecap="round" stroke-linejoin="round" stroke-miterlimit="10" stroke-width=".5" d="M147.5039 480.0625l1.3125 2.07031"/></g><g clip-path="url(#j)"><path fill="none" stroke="#000" stroke-linecap="round" stroke-linejoin="round" stroke-miterlimit="10" stroke-width=".5" d="M146.48438 480.14063l.65625 1.03515"/></g><g clip-path="url(#k)"><path fill="none" stroke="#000" stroke-linecap="round" stroke-linejoin="round" stroke-miterlimit="10" stroke-width=".5" d="M160.82031 480.11328l-7.01172.4336"/></g><g clip-path="url(#l)"><path fill="none" stroke="#000" stroke-linecap="round" stroke-linejoin="round" stroke-miterlimit="10" stroke-width=".5" d="M160.82031 480.11328l1.28516 2.08985"/></g><g clip-path="url(#m)"><path fill="none" stroke="#000" stroke-linecap="round" stroke-linejoin="round" stroke-miterlimit="10" stroke-width=".5" d="M159.80078 480.17578l.64063 1.04297"/></g><g clip-path="url(#n)"><path fill="none" stroke="#000" stroke-linecap="round" stroke-linejoin="round" stroke-miterlimit="10" stroke-width=".5" d="M174.13672 480.1211l-7.01563.41406"/></g><g clip-path="url(#o)"><path fill="none" stroke="#000" stroke-linecap="round" stroke-linejoin="round" stroke-miterlimit="10" stroke-width=".5" d="M174.13672 480.1211l1.27734 2.09374"/></g><g clip-path="url(#p)"><path fill="none" stroke="#000" stroke-linecap="round" stroke-linejoin="round" stroke-miterlimit="10" stroke-width=".5" d="M173.11719 480.1836l.63672 1.04687"/></g><g clip-path="url(#q)"><path fill="none" stroke="#000" stroke-linecap="round" stroke-linejoin="round" stroke-miterlimit="10" stroke-width=".5" d="M187.44531 480.03125l-7 .59375"/></g><g clip-path="url(#r)"><path fill="none" stroke="#000" stroke-linecap="round" stroke-linejoin="round" stroke-miterlimit="10" stroke-width=".5" d="M187.44531 480.03125l1.33203 2.0625"/></g><g clip-path="url(#s)"><path fill="none" stroke="#000" stroke-linecap="round" stroke-linejoin="round" stroke-miterlimit="10" stroke-width=".5" d="M186.42578 480.11719l.66797 1.03125"/></g><g clip-path="url(#t)"><path fill="none" stroke="#000" stroke-linecap="round" stroke-linejoin="round" stroke-miterlimit="10" stroke-width=".5" d="M200.77344 480.23047l-7.02344.19922"/></g><g clip-path="url(#u)"><path fill="none" stroke="#000" stroke-linecap="round" stroke-linejoin="round" stroke-miterlimit="10" stroke-width=".5" d="M200.77344 480.23047l1.21094 2.13281"/></g><g clip-path="url(#v)"><path fill="none" stroke="#000" stroke-linecap="round" stroke-linejoin="round" stroke-miterlimit="10" stroke-width=".5" d="M199.75 480.25781l.60547 1.0664"/></g><g clip-path="url(#w)"><path fill="none" stroke="#000" stroke-linecap="round" stroke-linejoin="round" stroke-miterlimit="10" stroke-width=".5" d="M214.08594 480.20703l-7.02344.24219"/></g><g clip-path="url(#x)"><path fill="none" stroke="#000" stroke-linecap="round" stroke-linejoin="round" stroke-miterlimit="10" stroke-width=".5" d="M214.08594 480.20703l1.22656 2.125"/></g><g clip-path="url(#y)"><path fill="none" stroke="#000" stroke-linecap="round" stroke-linejoin="round" stroke-miterlimit="10" stroke-width=".5" d="M213.0664 480.24219l.61329 1.0625"/></g><g clip-path="url(#z)"><path fill="none" stroke="#000" stroke-linecap="round" stroke-linejoin="round" stroke-miterlimit="10" stroke-width=".5" d="M227.40234 480.33984l-7.02734-.02343"/></g><g clip-path="url(#A)"><path fill="none" stroke="#000" stroke-linecap="round" stroke-linejoin="round" stroke-miterlimit="10" stroke-width=".5" d="M227.40234 480.33984l1.14844 2.17188"/></g><g clip-path="url(#B)"><path fill="none" stroke="#000" stroke-linecap="round" stroke-linejoin="round" stroke-miterlimit="10" stroke-width=".5" d="M240.71094 480.09375l-7.01172.46875"/></g><g clip-path="url(#C)"><path fill="none" stroke="#000" stroke-linecap="round" stroke-linejoin="round" stroke-miterlimit="10" stroke-width=".5" d="M240.71094 480.09375l1.29297 2.08594"/></g><g clip-path="url(#D)"><path fill="none" stroke="#000" stroke-linecap="round" stroke-linejoin="round" stroke-miterlimit="10" stroke-width=".5" d="M239.6914 480.16406l.64844 1.03906"/></g><g clip-path="url(#E)"><path fill="none" stroke="#000" stroke-linecap="round" stroke-linejoin="round" stroke-miterlimit="10" stroke-width=".5" d="M254.03516 480.38672l-7.02735-.11328"/></g><g clip-path="url(#F)"><path fill="none" stroke="#000" stroke-linecap="round" stroke-linejoin="round" stroke-miterlimit="10" stroke-width=".5" d="M254.03516 480.38672l1.11718 2.1836"/></g><g clip-path="url(#G)"><path fill="none" stroke="#000" stroke-linecap="round" stroke-linejoin="round" stroke-miterlimit="10" stroke-width=".5" d="M267.32422 479.91016l-6.97656.83593"/></g><g clip-path="url(#H)"><path fill="none" stroke="#000" stroke-linecap="round" stroke-linejoin="round" stroke-miterlimit="10" stroke-width=".5" d="M267.32422 479.91016l1.40234 2.01562"/></g><g clip-path="url(#I)"><path fill="none" stroke="#000" stroke-linecap="round" stroke-linejoin="round" stroke-miterlimit="10" stroke-width=".5" d="M280.5664 479.4961l-6.82812 1.66406"/></g><g clip-path="url(#J)"><path fill="none" stroke="#000" stroke-linecap="round" stroke-linejoin="round" stroke-miterlimit="10" stroke-width=".5" d="M280.5664 479.4961l1.62891 1.83593"/></g><g clip-path="url(#K)"><path fill="none" stroke="#000" stroke-linecap="round" stroke-linejoin="round" stroke-miterlimit="10" stroke-width=".5" d="M293.8086 479.2461l-6.6875 2.16406"/></g><g clip-path="url(#L)"><path fill="none" stroke="#000" stroke-linecap="round" stroke-linejoin="round" stroke-miterlimit="10" stroke-width=".5" d="M293.8086 479.2461l1.76171 1.70702"/></g><g clip-path="url(#M)"><path fill="none" stroke="#000" stroke-linecap="round" stroke-linejoin="round" stroke-miterlimit="10" stroke-width=".5" d="M307.20313 479.53125l-6.84375 1.59375"/></g><g clip-path="url(#N)"><path fill="none" stroke="#000" stroke-linecap="round" stroke-linejoin="round" stroke-miterlimit="10" stroke-width=".5" d="M307.20313 479.53125l1.61328 1.84766"/></g><g clip-path="url(#O)"><path fill="none" stroke="#000" stroke-linecap="round" stroke-linejoin="round" stroke-miterlimit="10" stroke-width=".5" d="M320.60156 480.08594l-7.01172.48437"/></g><g clip-path="url(#P)"><path fill="none" stroke="#000" stroke-linecap="round" stroke-linejoin="round" stroke-miterlimit="10" stroke-width=".5" d="M320.60156 480.08594l1.29688 2.08203"/></g><g clip-path="url(#Q)"><path fill="none" stroke="#000" stroke-linecap="round" stroke-linejoin="round" stroke-miterlimit="10" stroke-width=".5" d="M333.89063 480.8125l-6.96094-.96875"/></g><g clip-path="url(#R)"><path fill="none" stroke="#000" stroke-linecap="round" stroke-linejoin="round" stroke-miterlimit="10" stroke-width=".5" d="M332.8789 480.67188l.42188 1.15234"/></g><g clip-path="url(#S)"><path fill="none" stroke="#000" stroke-linecap="round" stroke-linejoin="round" stroke-miterlimit="10" stroke-width=".5" d="M346.73438 482.14063l-6.01954-3.625"/></g><g clip-path="url(#T)"><path fill="none" stroke="#000" stroke-linecap="round" stroke-linejoin="round" stroke-miterlimit="10" stroke-width=".5" d="M359.04297 483.21484l-4.0039-5.77343"/></g><g clip-path="url(#U)"><path fill="none" stroke="#000" stroke-linecap="round" stroke-linejoin="round" stroke-miterlimit="10" stroke-width=".5" d="M371.71484 483.57031L369 477.08984"/></g><g clip-path="url(#V)"><path fill="none" stroke="#000" stroke-linecap="round" stroke-linejoin="round" stroke-miterlimit="10" stroke-width=".5" d="M381.46094 483.0625l4.41797-5.46484"/></g><g clip-path="url(#W)"><path fill="none" stroke="#000" stroke-linecap="round" stroke-linejoin="round" stroke-miterlimit="10" stroke-width=".5" d="M393.53906 479.65625L400.4336 481"/></g><g clip-path="url(#X)"><path fill="none" stroke="#000" stroke-linecap="round" stroke-linejoin="round" stroke-miterlimit="10" stroke-width=".5" d="M408.60547 477.25l3.39062 6.15625"/></g><g clip-path="url(#Y)"><path fill="none" stroke="#000" stroke-linecap="round" stroke-linejoin="round" stroke-miterlimit="10" stroke-width=".5" d="M426.08984 477.83203l-4.9453 4.99219"/></g><g clip-path="url(#Z)"><path fill="none" stroke="#000" stroke-linecap="round" stroke-linejoin="round" stroke-miterlimit="10" stroke-width=".5" d="M439.98047 478.58594l-6.09766 3.48828"/></g><g clip-path="url(#aa)"><path fill="none" stroke="#000" stroke-linecap="round" stroke-linejoin="round" stroke-miterlimit="10" stroke-width=".5" d="M446.98438 481.6289l6.52734-2.60156"/></g><g clip-path="url(#ab)"><path fill="none" stroke="#000" stroke-linecap="round" stroke-linejoin="round" stroke-miterlimit="10" stroke-width=".5" d="M460.09766 480.91406l6.92968-1.16797"/></g><g clip-path="url(#ac)"><path fill="none" stroke="#000" stroke-linecap="round" stroke-linejoin="round" stroke-miterlimit="10" stroke-width=".5" d="M461.10547 480.74219l-.75-.97266"/></g><g clip-path="url(#ad)"><path fill="none" stroke="#000" stroke-linecap="round" stroke-linejoin="round" stroke-miterlimit="10" stroke-width=".5" d="M147.51172 467.0664l-7.02344-.10546"/></g><path fill="none" stroke="#000" stroke-linecap="round" stroke-linejoin="round" stroke-miterlimit="10" stroke-width=".5" d="M147.51172 467.0664l1.1211 2.1836m-2.14063-2.19922l.5586 1.08985m13.74608-1.60157l-6.96484.94922m6.96484-.94922l1.4336 1.99219m-2.44531-1.85547l.71484.9961m13.59375-1.25782l-6.92578 1.19922m6.92578-1.19922l1.5039 1.9414m-2.51171-1.76562l.75.96875m13.58594-1.0625l-6.95313 1.03516m6.95313-1.03516l1.45703 1.97266m-2.46875-1.82031l.72656.98437m13.60547-1.09765l-6.96094.95703m6.96094-.95703l1.4336 1.98828m-2.44923-1.84766l.71875.99219m13.64063-.78516l-7.02344.26563m7.02344-.26563l1.23437 2.1211m-2.2539-2.08594l.61328 1.0625m13.71094-1.28906l-7 .64453m7-.64453l1.34375 2.05078m-2.36329-1.95703l.67188 1.02734m13.60156-1.51953l-6.8789 1.4414m6.8789-1.4414l1.57031 1.88281m-2.5703-1.67187l.78515.9414m13.48828-1.32812l-6.79297 1.79297m6.79297-1.79297l1.66797 1.80078m-2.65625-1.53906l.83203.89843m13.45703-1.21875l-6.76563 1.91016m6.76563-1.91016l1.69531 1.77344m-2.67969-1.4961l.84766.88673m13.35156-1.46485l-6.5625 2.51172m6.5625-2.51172l1.84766 1.60938m-2.80469-1.2461l.92578.8086m13.07032-1.73047l-6.01563 3.6289m6.01563-3.6289l2.10546 1.25781m-2.98046-.73047l1.05468.6289m13.1875-1.07421l-6.11718 3.46484m6.11718-3.46484l2.06641 1.32031m-2.95703-.8164l1.03515.66015m13.34766-.80078l-6.47266 2.73828m6.47266-2.73828l1.90625 1.54297m11.34375-1.6836l-6.34375 3.01954m6.34375-3.01953l1.97266 1.46093M346.5 464.85938l-5.55078 4.30859m5.55078-4.3086l2.23828 1.00391m9.76172-2.04687l-2.91797 6.39453m2.49219-5.46485l1.22656-.07421m8.42578.01171l5.26172 4.66016m-4.4961-3.98047l.28516-1.19531m11.44141 3.4961l6.90625-1.30079m-5.90234 1.10938l-.76563-.95703m13.2461-.75391l6.5664 2.5039m-5.60937-2.14062l-.15235-1.21875m13.85547-.82422l3.875 5.86328m12.21875-6.34375l-1.67969 6.82422m1.4336-5.83203l1.1914-.30078m10.63282-.67578l1.79296 6.79297m-1.53125-5.8047l.90235-.83202m10.2539 1.10937l5.58594 4.26172m-4.77344-3.64062l.19922-1.21094m11.83594 1.41016l6.51953 2.62109m-5.57031-2.24219l-.1289-1.21875"/><g clip-path="url(#ae)"><path fill="none" stroke="#000" stroke-linecap="round" stroke-linejoin="round" stroke-miterlimit="10" stroke-width=".5" d="M147.51172 453.5625l-7.02344.27344"/></g><path fill="none" stroke="#000" stroke-linecap="round" stroke-linejoin="round" stroke-miterlimit="10" stroke-width=".5" d="M147.51172 453.5625l1.23437 2.1211m-2.2578-2.08204l.61718 1.0586m13.72266-1.06641l-7.02344.21094m7.02344-.21094l1.21484 2.1289m-2.23828-2.09765l.60937 1.0625m13.70313-1.42969l-6.97266.8789m6.97266-.8789l1.41406 2.00781m11.8164-2.4453l-6.80468 1.7578m6.80469-1.7578l1.65625 1.8125m11.76172-1.16798l-7.01172.46875m5.99218-.40234l.64844 1.04297m13.59766-.0586l-6.83594-1.6328M213 454.27733l.3086 1.1875m14.04296-2.375l-6.92187 1.21875m6.92187-1.21875l1.50781 1.9336m11.69532-2.38282l-6.69922 2.11329m6.69922-2.11329l1.75 1.72266m11.53125-1.83203l-6.6289 2.33203m6.6289-2.33203l1.80469 1.66406m11.3164-2.10547l-6.24219 3.21875m6.2422-3.21875l2.01952 1.39453m-2.92578-.92968l1.00781.69922m13.09766-1.37891l-6.00781 3.64453m6.00781-3.64453l2.10547 1.2539m-2.98047-.72265l1.05469.6289m13.1289-1.16796l-5.99609 3.66406m5.9961-3.66406l2.11327 1.2461m-2.98828-.71485l1.0586.625m13.16015-1.10938l-6.05468 3.57031m6.05468-3.5703l2.08985 1.28124m-2.97266-.76172l1.04688.64063m12.8789-1.55469l-5.51172 4.35938m5.51172-4.35938l2.2461.98438m-3.04688-.35157l1.1211.4922m12.5703-1.57423l-4.66406 5.25781m4.66407-5.2578l2.38672.57421m10.48437-.91016l-3.77344 5.9297m3.77344-5.9297l2.44531.19141m9.75391-.65625l-1.54297 6.85547m1.54297-6.85547l2.36719-.64844m9.03906.75391l2.27734 6.64844m-2.27734-6.64844l1.67578-1.79297m12.19922 1.65234l1.15234 6.9297m-.98437-5.92188l.97656-.7461m11.08985.10547l3.3164 6.19531m-2.83203-5.29296l.6836-1.01954m17.3203 3.20704l-7.02734.01562m6.0039-.01562l.57813 1.08203m13.4297-2.5625l-6.3672 2.97265m13.21485-2.73828l6.5664 2.5039m7.4336-3.61718l5.19531 4.73047m-4.4375-4.04297l.30078-1.1875m14.55078-.63281l.60938 7m-.52344-5.98047l1.03125-.66797"/><g clip-path="url(#af)"><path fill="none" stroke="#000" stroke-linecap="round" stroke-linejoin="round" stroke-miterlimit="10" stroke-width=".5" d="M147.48438 440.84375l-6.96875-.91797"/></g><path fill="none" stroke="#000" stroke-linecap="round" stroke-linejoin="round" stroke-miterlimit="10" stroke-width=".5" d="M147.48438 440.84375l.85937 2.29688m-1.875-2.4336l.42969 1.15235m13.91015-1.10938l-6.98828-.73438m6.98828.73438l.92188 2.27734m-1.9375-2.3828l.46094 1.13671m13.87109-1.04297l-6.99219-.70703m6.99219.70703l.92969 2.26953m12.30078-3.46484l-6.82031 1.67969m6.8203-1.6797l1.63673 1.83204m11.34765-2.6836l-6.16015 3.38282m5.26172-2.89063l1.02734.67188m13.36719-.77734l-6.52344 2.60937m5.57422-2.23047l.9375.79297m13.53516.6836l-6.9375-1.10157m5.92968.9414l.39844 1.16016m13.85547-2.4375l-6.80078 1.77735m5.8125-1.51953l.82812.90234m11.84766-3.30469l-3.54688 6.0664m3.54688-6.0664l2.45312.09766m11.9297.86719l-5.6836 4.1328m5.6836-4.1328l2.20702 1.07812m10.89453-1.34375l-5.2539 4.66406m5.2539-4.66406l2.30079.85547m-3.06641-.17578l1.15234.42578m12.17188-1.7461l-3.74219 5.94532m3.74219-5.94531l2.44922.17968m-2.9922.6836l1.22267.08984m13.47656-.21484l-5.42188 4.46875m5.42188-4.46875l2.26562.9375m-3.05468-.28906l1.1328.47265m13.3086-.63281l-6.09765 3.49219m6.09765-3.4922l2.07813 1.3086m10.86328-1.83984l-5.34766 4.5586m5.34766-4.5586l2.28125.90234m10.08594-1.6836L342 443.44142m3.45313-6.1172l2.45312.0625m9.78125-.45702l-1.29297 6.90625m1.29297-6.90625l2.33984-.73438m8.44141 1.22657l3.77734 5.92578m-3.77734-5.92578l1.20703-2.13672m-.66015 2.99609l.60546-1.0664m10.6836 4.17187l6.73437-2.00781m-5.7539 1.71484l-.86328-.8711m20.05859.54298L393.49219 440m5.96875.65625l.45703 1.13672m13.52344-2.98828l-6.28125 3.15625m5.36718-2.69532l1 .71094m13.60157.33594l-7.02344.14453m6-.125l.59766 1.07031m13.33203-2.66406l-6.20703 3.29297m6.20703-3.29297l2.03125 1.375m11.6875.09375l-7.01563.35156m5.9961-.30078l.6289 1.05469m13.41406-2.34375l-6.43359 2.82812m5.5-2.41406l.96094.75781"/><g clip-path="url(#ag)"><path fill="none" stroke="#000" stroke-linecap="round" stroke-linejoin="round" stroke-miterlimit="10" stroke-width=".5" d="M147.51172 427.02734l-7.02344.08203"/></g><path fill="none" stroke="#000" stroke-linecap="round" stroke-linejoin="round" stroke-miterlimit="10" stroke-width=".5" d="M147.51172 427.02734l1.17969 2.15235m-2.19922-2.14063l.58594 1.07422m13.75-1.01953l-7.02735-.05078m7.02734.05078l1.13672 2.17578m-2.16015-2.1836l.57031 1.08594m13.76563-1.27343l-7.01954.33984m7.01953-.33984l1.25391 2.10937m-2.27734-2.0586l.6289 1.05079m13.6797-1.41406l-6.96095.96484m6.96094-.96484l1.4375 1.98828m11.89453-1.16797l-6.9961-.67578m5.97657.57812l.46875 1.13282m13.51953-2.9297l-6.30078 3.11329m5.38281-2.66016l.9961.71875m11.19922-2.94921l-2.22657 6.66796m1.90235-5.6953l1.21094-.20313m14.74218 1.79687l-6.85547 1.53516m5.85938-1.3125l.79687.9336M254 426.5664l-6.95703 1.0039m5.9414-.85937l.72657.99219m13.4375-1.8086l-6.625 2.34766m5.66015-2.0039l.90625.82812m12.6172-2.41016l-5.10938 4.82422m4.36328-4.1211l1.16406.39063m13.52734-.16016l-6.375 2.95703m5.44922-2.52734l.97656.74219m13.26954 1.77344l-6.38282-2.9336m5.45313 2.50782l.07422 1.22265m11.89843-5.65625l-1.83984 6.78516m1.83984-6.78516l2.39063-.54297m12.02344 1.0586l-4.03907 5.7539m4.03907-5.7539l2.4336.30468m-3.01954.53516l1.21484.14844m13.58594-.0664l-5.83594 3.91015m5.83594-3.91016l2.16406 1.15625m11.42578-.66797l-6.38671 2.9336m6.38671-2.9336l1.94922 1.48828m10.46875-2.67968l-4.59375 5.3164m4.59375-5.3164l2.39453.54687m10.08204-1.08594l-2.91797 6.39454m2.91797-6.39454l2.44921-.14843m12.90235 2.97265l-6.98828.7461m6.98828-.7461l1.375 2.03516m11.88281-2.39844l-6.8711 1.47266m6.8711-1.47266l1.57813 1.8789m10.83984-3.5703l-5.08203 4.85546m5.08203-4.85547l2.33203.77344m-3.07031-.0664l1.16406.38672m13.02344-.94532l-5.34766 4.5586m5.34766-4.5586l2.28125.89844m10.11719-1.66406l-3.51172 6.08984m3.51172-6.08984l2.44921.08594m12.46485 1.91796l-6.71094 2.08204m5.73438-1.77735l.87109.86328"/><g clip-path="url(#ah)"><path fill="none" stroke="#000" stroke-linecap="round" stroke-linejoin="round" stroke-miterlimit="10" stroke-width=".5" d="M147.4414 413.04297l-6.8828 1.42187"/></g><path fill="none" stroke="#000" stroke-linecap="round" stroke-linejoin="round" stroke-miterlimit="10" stroke-width=".5" d="M147.4414 413.04297l1.56641 1.88672m11.55078-2.52735l-6.48828 2.69922m6.48828-2.69922l1.89453 1.5586m10.98829-2.3125l-5.625 4.21093m4.80859-3.59765l1.10938.52344m12.66015-1.55079l-4.89844 5.03907m4.1875-4.30469l1.17578.33984m12.41407-1.43359l-4.02735 5.75781m3.44141-4.92187l1.21875.14844m7.25 1.08203l6.83594 1.625m13.32422-1.58594l-6.85157 1.54687m5.85547-1.32421l.80078.93359m13.59766-.42969l-7.02734.09375m7.02734-.09375l1.17969 2.14844m12.1289-1.85938l-7.01172-.48437m7.01172.48437l1 2.2422m12.29688-2.91798l-6.97656.86719m6.97656-.86719l1.41015 2.00781M280.58204 413l-6.86328 1.50781M280.58203 413l1.58985 1.8711m11.73046-1.83985l-6.875 1.44531m6.875-1.44531l1.57422 1.88281m11.7539-1.82812l-6.89843 1.33594m6.89844-1.33594l1.54297 1.90625m11.76953-1.92969l-6.89063 1.3789m5.88672-1.17577l.77735.94921m13.5078-1.28906l-6.82812 1.65234m6.82813-1.65234l1.6289 1.83594m11.78516-1.11328l-7.02344.20703m7.02344-.20703l1.21484 2.13281m12.05079-2.6211l-6.92579 1.1875m6.92579-1.1875l1.5039 1.9375m11.67969-2.45702l-6.66406 2.22656m6.66406-2.22656l1.78125 1.6875m10.47656-3.25l-4.55078 5.35156m4.55078-5.35156l2.39844.52343m11.01562-.4375l-4.74609 5.17969m4.7461-5.17969l2.375.61328m11.32812-.19922l-5.52344 4.34766m5.52344-4.34765l2.2461.99218M426 411.17187l-4.76563 5.16407M426 411.17188l2.3711.62109m10.78124-.76172l-4.4414 5.44531m4.4414-5.44531l2.40625.47266m10.78907-.56641l-4.19922 5.63281m4.19922-5.63281l2.42578.3711m9.01953-1.0625l-.46094 7.01171m.46094-7.01172l2.23828-1.0039"/><g clip-path="url(#ai)"><path fill="none" stroke="#000" stroke-linecap="round" stroke-linejoin="round" stroke-miterlimit="10" stroke-width=".5" d="M147.22656 399.04688l-6.45312 2.78125"/></g><path fill="none" stroke="#000" stroke-linecap="round" stroke-linejoin="round" stroke-miterlimit="10" stroke-width=".5" d="M147.22656 399.04688l1.91406 1.53515m10.67188-2.61719l-4.9961 4.94532m4.9961-4.94532l2.34375.73047m10.51172-1.11719l-4.07813 5.72266m4.07813-5.72265l2.4336.3203m10.28124-.66796l-2.875 6.41406m2.875-6.41406l2.44531-.16406m10.60938.0625l-2.35547 6.62109m2.01172-5.66016l1.21484-.17968m9.46875 5.54687l3.59375-6.03906m15.03125 3.07812l-7.02343-.11718m6.0039.10156l.55469 1.09375m13.78125-1.19531l-7.02734.11718m7.02734-.11718l1.1875 2.14843m12.1289-2.16406l-7.02734.15235m7.02735-.15235l1.1953 2.14063m12.08985-2.51563l-6.96875.89844m6.96875-.89844l1.41797 2m11.82031-2.40625l-6.8164 1.71485m6.8164-1.71485l1.64454 1.8164m11.66406-1.84765l-6.80078 1.77344m6.80078-1.77344l1.66015 1.80469m11.60938-1.95313l-6.71484 2.07032m6.71484-2.07032l1.74219 1.73047m11.71875-.98437l-7.00391.58203m7.0039-.58203l1.32813 2.0625m11.90625-2.58203l-6.83984 1.61718m6.83984-1.61718l1.61719 1.84375m11.76953-1.40235l-6.98828.73438m5.97266-.625l.6875 1.01562m12.78125-3.08594l-5.26172 4.65625m4.49609-3.97656l1.14844.42969m12.3711-1.61719l-4.14063 5.67578m4.14062-5.67578l2.42969.34375m11.1211-.16015l-4.60938 5.30468m4.60937-5.30468l2.39063.55468m-3.0625.21875l1.19531.27735m12.64844-1.16797l-4.32422 5.53906m4.32422-5.53906l2.41406.42578m11.5664.26172l-5.65624 4.16797m5.65625-4.16797l2.21484 1.0625m10.55469-1.65235l-4.5625 5.34375m4.5625-5.34375l2.39453.53125m10.13281-1.03906l-2.98828 6.36328m2.98828-6.36328l2.44922-.1211m12.10156 1.08985l-5.46093 4.42188m5.46093-4.42188l2.25782.96094m10.25-1.6914l-3.84375 5.8828"/><g clip-path="url(#aj)"><path fill="none" stroke="#000" stroke-linecap="round" stroke-linejoin="round" stroke-miterlimit="10" stroke-width=".5" d="M465.48438 397.4961l2.4414.22265"/></g><g clip-path="url(#ak)"><path fill="none" stroke="#000" stroke-linecap="round" stroke-linejoin="round" stroke-miterlimit="10" stroke-width=".5" d="M147.1836 385.63672l-6.3672 2.97265"/></g><path fill="none" stroke="#000" stroke-linecap="round" stroke-linejoin="round" stroke-miterlimit="10" stroke-width=".5" d="M147.1836 385.63672l1.96093 1.47265m11.08984-1.9414l-5.83593 3.91406m5.83594-3.91406l2.16406 1.15625m10.83203-1.5625l-5.20313 4.72265m5.20313-4.72265l2.3086.82812m9.91796-1.64062l-3.02344 6.34765m3.02344-6.34765l2.44922-.10547m10.41797-.07031l-2.125 6.69922m17.71484-2.25391l-6.67578-2.1914m6.67578 2.1914l.41797 2.41797m12.71875-1.97656l-6.32031-3.07422m6.32031 3.07422l.08594 2.45312m13.51172-3.28906l-6.88672-1.40235m6.88672 1.40235l.69531 2.35547m12.6875-2.92188l-7.02344-.26953m7.02344.26953l1.0664 2.21094m-2.08593-2.25l.53125 1.10547m13.79297-.91797l-7.0039-.5664m7.0039.5664l.97656 2.2539m-1.99219-2.33593l.48438 1.125m13.85937-1.35938l-7.02734.06641m7.02734-.0664l1.17188 2.15624m-2.19531-2.14453l.58593 1.07813m13.7461-1.29688l-7.01172.48047m7.01172-.48047l1.29687 2.08203m-2.32031-2.01171l.65234 1.03906m13.64844-1.4336l-6.9375 1.12891m6.9375-1.1289l1.48438 1.95312m-2.4961-1.78906l.74219.97656M320.5 386.2539l-6.8086 1.73828m6.8086-1.73828l1.65234 1.8125m-2.64453-1.5586l.82813.90625m13.28515-1.71484l-6.42187 2.84765m6.42187-2.84765l1.9336 1.51172m10.73437-2.48828l-5.1289 4.80078m4.3828-4.10156l1.16407.39453m13.34375-.50782l-6.01953 3.62891m6.01953-3.6289l2.10547 1.26171m11.22656-1.23437l-6.05078 3.57422m6.05078-3.57422l2.09375 1.28125m-2.97656-.76172l1.04688.64062m12.55859-1.90625l-4.86719 5.07032m4.86719-5.07032l2.35937.66797m-3.0703.0664l1.18359.33595m12.71484-1.1875l-4.61328 5.30078m4.61328-5.30078l2.39062.55078m-3.0625.21875l1.19532.27734m12.66797-1.14844l-4.3672 5.50391m4.3672-5.5039l2.41406.4453m10.58594-.66796l-3.73438 5.94922m3.73438-5.94922l2.44921.17578m10.80079-.21485l-3.60547 6.02735m3.60547-6.02735l2.45312.1211m11.41016.28125l-4.70313 5.22265m4.70313-5.22265l2.3828.59375m11.25-.26953l-5.33593 4.57422"/><g clip-path="url(#al)"><path fill="none" stroke="#000" stroke-linecap="round" stroke-linejoin="round" stroke-miterlimit="10" stroke-width=".5" d="M466.23047 384.83594l2.28515.89453"/></g><g clip-path="url(#am)"><path fill="none" stroke="#000" stroke-linecap="round" stroke-linejoin="round" stroke-miterlimit="10" stroke-width=".5" d="M147.46875 373.25l-6.9375 1.11719"/></g><path fill="none" stroke="#000" stroke-linecap="round" stroke-linejoin="round" stroke-miterlimit="10" stroke-width=".5" d="M146.46094 373.41406l.73828.97656m13.16406-2.32812l-6.09766 3.49219m6.09766-3.49219l2.07813 1.3086m10.14062-2.48438l-3.90234 5.84375m3.90234-5.84375l2.4414.24219m10.88673-.23438l-3.9297 5.82813m3.9297-5.82813l2.4414.25781m11.67188.48829l-5.52735 4.33593m4.72266-3.70703l1.125.4961m13.71484 1.5039l-6.96484-.92187m6.96484.92187l.85938 2.29688m12.32031-1.6875l-6.69531-2.14454m6.69531 2.14454l.4336 2.41796m-1.41016-2.73046l.21875 1.21093m13.92969-.53125L234 372.3711m6.41016 2.875l.16797 2.44922m-1.09766-2.86719l.08203 1.22266m14.35938-1.35547l-6.80079-1.77344m6.80078 1.77344l.56641 2.38672m-1.5586-2.64453l.28516 1.1914m14.07813-1.20312l-6.91797-1.23437m6.91797 1.23437l.7539 2.33594m-1.7578-2.51563l.375 1.16797m13.97265-1.16406l-6.97266-.88281m6.97266.88281l.8711 2.29297m-1.88673-2.42188l.4375 1.14844m13.91797-1.28515l-7.01953-.35547m7.01953.35546l1.03906 2.22266m-2.0625-2.27344l.51954 1.11329m13.80468-1.56641l-6.99609.65234m6.9961-.65234l1.35156 2.05078m-2.3672-1.95313l.67188 1.02344m13.60938-1.47656l-6.89453 1.36719m6.89453-1.36719l1.55078 1.90234m-2.55469-1.70312l.77735.94922m13.44921-1.50781l-6.71093 2.08593m6.71093-2.08594l1.7422 1.72266m-2.71876-1.42187l.8711.86328M347 372.53516l-6.54688 2.54687M347 372.53516l1.85937 1.60156m-2.8125-1.23047l.9297.80078m13.29687-1.27734l-6.46485 2.75781m6.46485-2.75781l1.91015 1.54297m-2.85156-1.14063l.95703.76953m13.21485-1.35937l-6.29297 3.1289m6.29297-3.1289l1.99609 1.42969m-2.91406-.97266l1 .71484m12.80078-1.83594l-5.4336 4.45704m5.4336-4.45704l2.26562.94532m-3.05468-.29688l1.1328.47266m12.59766-1.50781l-4.68359 5.23437m4.6836-5.23437l2.3828.58593m-3.0625.17579l1.19141.29296m12.62891-1.20312l-4.33594 5.53125m4.33594-5.53125l2.41406.42969m-3.04687.375l1.21093.21484M425.72657 371l-4.22266 5.61719M425.72656 371l2.42578.3789m-3.03906.4375l1.21094.19141m12.64844-1.0586l-4.08204 5.71876m4.08204-5.71875l2.43359.32031m-3.02734.51172l1.21484.16016m12.92969-.8086l-4.55469 5.35156m4.55469-5.35156l2.39843.52735m11.07422-.38282l-4.87109 5.0625"/><g clip-path="url(#an)"><path fill="none" stroke="#000" stroke-linecap="round" stroke-linejoin="round" stroke-miterlimit="10" stroke-width=".5" d="M465.9961 371.27734l2.36327.67188"/></g><g clip-path="url(#ao)"><path fill="none" stroke="#000" stroke-linecap="round" stroke-linejoin="round" stroke-miterlimit="10" stroke-width=".5" d="M144.05469 356.98047l-.10938 7.02734"/></g><path fill="none" stroke="#000" stroke-linecap="round" stroke-linejoin="round" stroke-miterlimit="10" stroke-width=".5" d="M159.78125 357.99219l-4.9336 5.0039m4.21876-4.27734l1.17578.35156M172.47266 357.5l-3.6836 5.98438m3.6836-5.98438l2.44922.15625m10.80468-.1914l-3.5625 6.05859m3.5625-6.0586l2.44922.10157m12.54688 2.32421l-6.92188 1.20704m5.91406-1.03125l.75391.96875m12.90625 1.58203l-5.59766-4.2461m5.59766 4.2461l-.39063 2.42187m14.08204-3.04297l-6.35157-3.0078m6.35157 3.0078l.11328 2.45313m13.26953-2.60938l-6.48828-2.6953m6.48828 2.6953l.23437 2.44532m-1.17968-2.83594l.11718 1.22265m14.3125-1.34375l-6.82812-1.66796m6.82812 1.66796l.60547 2.375m-1.59765-2.61718l.30078 1.1875m14.10547-1.71094l-7.02344-.13672m7.02344.13672l1.10937 2.1875m12.20703-2.33984l-7.02734.16406m7.02734-.16406l1.20313 2.14062m-2.22656-2.11719l.60156 1.07032m13.73437-1.1211l-7.02343.21875m7.02343-.21875l1.21875 2.1289m-2.23828-2.09765l.60938 1.0664m13.6875-1.52733l-6.94532 1.07812m6.94532-1.07813l1.46875 1.96485m-2.48047-1.80469l.73437.98047m13.46094-1.6875l-6.6836 2.17578m6.6836-2.17578l1.76563 1.70313m-2.73829-1.38672l.88282.85156m13.34375-1.33594l-6.5625 2.51172m6.5625-2.51172l1.85156 1.61328m11.5625-1.3164l-6.76172 1.91406m6.76172-1.91406l1.69922 1.77343m-2.6836-1.49218l.85157.8828m13.375-1.39452l-6.61328 2.375m6.61328-2.375l1.8164 1.64844m-2.77734-1.30079l.90625.82422m13.33594-1.26562l-6.54297 2.5625m6.54297-2.5625l1.86328 1.59765m-2.8164-1.22265l.92968.79687m13.05078-1.7461l-5.96875 3.71095m5.96875-3.71094l2.1211 1.23437m-2.9922-.6914l1.0625.61328m12.87891-1.4961l-5.48047 4.39454m5.48047-4.39454l2.2539.96875m-3.05077-.33203l1.1289.48438m12.98047-1.1289l-5.47265 4.40624m5.47265-4.40625l2.2539.96485m-3.05077-.32422l1.1289.48437m13.01563-1.08203l-5.53906 4.32031m5.53906-4.3203l2.24219 1m-3.04688-.3711l1.1211.5m12.95312-1.1836l-5.44922 4.4336m5.44922-4.4336l2.26172.95313m-3.05469-.3086l1.13281.47657m13.01954-1.07031l-5.53516 4.32812m5.53516-4.32813l2.24218.9961m-3.05078-.36719l1.1211.5m12.77343-1.39062l-5.07812 4.85546"/><g clip-path="url(#ap)"><path fill="none" stroke="#000" stroke-linecap="round" stroke-linejoin="round" stroke-miterlimit="10" stroke-width=".5" d="M466.10156 358.0664l2.32813.76563"/></g><path fill="none" stroke="#000" stroke-linecap="round" stroke-linejoin="round" stroke-miterlimit="10" stroke-width=".5" d="M465.36328 358.76953l1.16406.38672"/><g clip-path="url(#aq)"><path fill="none" stroke="#000" stroke-linecap="round" stroke-linejoin="round" stroke-miterlimit="10" stroke-width=".5" d="M140.49219 346.98438l7.01562.39062"/></g><path fill="none" stroke="#000" stroke-linecap="round" stroke-linejoin="round" stroke-miterlimit="10" stroke-width=".5" d="M154.44922 345.14453l5.73047 4.0664m-4.89844-3.47265l.16016-1.21875m16.2539-.6914l-2.1289 6.69921m1.8164-5.72265l1.20703-.22266m12.46875-.73437l-2.22656 6.66406m2.22656-6.66406l2.42188-.40625m13.17187 2.82421l-6.78515 1.82422m5.80078-1.55859l.83594.89844m12.29687 2.46875l-4.44922-5.4414m4.44922 5.4414l-.94922 2.26172m15.08594-3.23047l-6.09375-3.5039m6.09375 3.5039l-.08203 2.45312m13.45703-2.5625l-6.21094-3.28515m6.21094 3.28515l.0039 2.45703m13.51563-2.91796L247.21093 346m6.6211 2.35938l.35547 2.42578m13.16016-3.46875l-7.02344-.27735m7.02344.27735l1.0664 2.21093m12.2461-2.51171l-7.01953.32812m7.01953-.32813l1.25 2.10938m12.0664-1.78516l-7.01953-.3203m7.01953.3203l1.05078 2.21485m-2.07421-2.26172l.52734 1.10547m13.8086-1.42578l-7.01563.41015m7.01562-.41015l1.27735 2.09375m-2.29688-2.03516l.63672 1.04688m13.58203-1.8086l-6.78515 1.82031m6.78515-1.8203l1.67578 1.79296M319.5 346.53125l.83984.89844m13.23829-1.77344l-6.33204 3.04297m6.33204-3.04297l1.97656 1.45313m-2.89844-1.01172l.98828.72656m13.46094-.60547l-6.75781 1.92188m6.7578-1.92188l1.69923 1.76563m-2.6836-1.48829l.85157.88672m13.55468-.64453l-6.97265.8789m6.97265-.8789l1.41407 2.00781m-2.4297-1.8789l.70704 1.0039m13.5-1.70703l-6.72656 2.02735m6.72656-2.02735l1.73047 1.74219m-2.70703-1.44531l1.72656 1.74219m11.98438-3.17188l-5.5625 4.29297m5.5625-4.29297l2.23437 1.01172m-3.04297-.38672l2.23438 1.01172m11.46484-2.09375l-4.71875 5.20703m4.71875-5.20703l2.3789.60156m-3.0625.15625l1.1875.30078m13.07423-.79687l-5.2422 4.6836m5.2422-4.6836l2.30078.85156m-3.0625-.16797l1.15234.42188m13.27344-.64454l-5.9375 3.76172m5.9375-3.76171l2.13281 1.21484m-2.9961-.66797l1.06641.60938m13.17578-1.04688l-6.0664 3.54688m6.0664-3.54688l2.08594 1.28906m-2.96875-.77344l1.04297.64454m13.14453-1.1797l-6.04687 3.58204m6.04687-3.58203l2.09375 1.27344m-2.97265-.75391l1.04687.64063m13.40234-.63672l-6.55468 2.53515"/><g clip-path="url(#ar)"><path fill="none" stroke="#000" stroke-linecap="round" stroke-linejoin="round" stroke-miterlimit="10" stroke-width=".5" d="M466.83984 345.91016l1.85547 1.60546"/></g><path fill="none" stroke="#000" stroke-linecap="round" stroke-linejoin="round" stroke-miterlimit="10" stroke-width=".5" d="M465.88672 346.28125l.92578.80078"/><g clip-path="url(#as)"><path fill="none" stroke="#000" stroke-linecap="round" stroke-linejoin="round" stroke-miterlimit="10" stroke-width=".5" d="M140.48828 333.96094l7.02344-.19531"/></g><path fill="none" stroke="#000" stroke-linecap="round" stroke-linejoin="round" stroke-miterlimit="10" stroke-width=".5" d="M153.8125 333.57422l7.0039.57812m-5.98437-.49609l-.48437-1.125m17.30468 1.33203l-.01953-.19922-.0586-.1914-.09374-.17579-.46094-.3789-.1914-.0586-.19922-.01953-.19922.01954-.1914.05859-.45704.3789-.09375.17579-.0586.1914-.01952.19922.01953.19922.05859.1914.09375.17579.45703.3789.1914.0586.19923.01953.19922-.01953.1914-.0586.46094-.3789.09375-.17578.0586-.19141.01952-.19922m14.46875-2.75781l-4.35156 5.51562m3.71875-4.71484l1.20703.21875m13.90235.64453l-6.67578 2.1875m5.70703-1.8711l.8828.85157m12.82423 2.09766l-5.52344-4.34375m5.52344 4.34375l-.4336 2.41406m13.39453-2.02735l-4.8164-5.11718m4.8164 5.11719l-.78515 2.32421m.08594-3.0703l-.39453 1.16405m14.61718-.6328l-5.23047-4.6875m5.23047 4.6875l-.58594 2.3828m14.39063-3.08203l-6.21094-3.28906m6.21094 3.28906l.0039 2.45313m-.90624-2.9336l.0039 1.22657m14.47656-1.38672l-6.73437-2.01172m6.73438 2.01172l.48046 2.40625m-1.46093-2.69531l.24218 1.19921m14.16016-1.39062l-6.94922-1.04688m6.94922 1.04688l.8164 2.3164m-1.82812-2.46875l.41016 1.15625m13.9414-1.21093l-7-.63281m7 .6328l.95313 2.26173m-1.97266-2.35547l.47657 1.13281m13.87109-1.3789l-7.02734.04296m7.02734-.04297L308.46094 336m12.11719-2.61719l-6.96485.96094m6.96485-.96094l1.43359 1.99219m-2.44922-1.85156l.71875.9961m13.4414-1.83204l-6.62109 2.35156m6.6211-2.35156l1.80859 1.65625m-2.77344-1.3125l.90625.82813m13.33203-1.28125l-6.53906 2.5703m6.53906-2.5703l1.86329 1.59375M360.4453 333l-6.8086 1.72656M360.44532 333l1.65235 1.8164m11.59765-2.04296l-6.67968 2.17969m6.67968-2.1797l1.76953 1.69923m-2.74218-1.38282l.88672.85157m12.65625-2.44922l-5.1875 4.74219m5.1875-4.7422l2.3125.82423m-3.06641-.13282l2.3086.82032m11.42577-1.83204l-4.51953 5.38282m4.51953-5.38281l2.39844.51171m-3.05469.26954l2.39844.51171m11.21485-1.55468l-3.8047 5.90625m3.8047-5.90625l2.4453.20312m-3 .65625l1.22266.10156m13.34375-.37109l-5.19921 4.72656m5.19921-4.72656l2.3125.82813m11.26954-.5l-5.73047 4.0703m5.73047-4.0703l2.1914 1.09765m-3.02734-.5039l1.09765.54687m12.95313-1.27344l-5.53125 4.33594m5.53125-4.33594l2.24219.9961m-3.04688-.36329l1.1211.4961m13.26953-.73047l-6.07032 3.53906"/><g clip-path="url(#at)"><path fill="none" stroke="#000" stroke-linecap="round" stroke-linejoin="round" stroke-miterlimit="10" stroke-width=".5" d="M466.59766 332.09375l2.08593 1.29297"/></g><path fill="none" stroke="#000" stroke-linecap="round" stroke-linejoin="round" stroke-miterlimit="10" stroke-width=".5" d="M465.71484 332.60938l1.04297.64453"/><g clip-path="url(#au)"><path fill="none" stroke="#000" stroke-linecap="round" stroke-linejoin="round" stroke-miterlimit="10" stroke-width=".5" d="M140.97656 322.33984l6.04688-3.58203"/></g><path fill="none" stroke="#000" stroke-linecap="round" stroke-linejoin="round" stroke-miterlimit="10" stroke-width=".5" d="M153.86328 321.19531l6.90625-1.29687m-6.90625 1.29687l-1.53125-1.91797m14.79297 1.53907l7.00781-.53516m-5.98828.45703l-.65625-1.03906m19.85938-.02735l-6.8047 1.75m19.54298 1.21485l-5.65235-4.17578m4.82813 3.5664l-.17969 1.21485m13.67969.05469l-4.3711-5.5m4.3711 5.5l-.98047 2.25m14.66797-2.59375l-5.11719-4.8125m5.11719 4.8125l-.64453 2.37109m-.09766-3.07031l-.32422 1.18359m14.55078-.67578l-5.45703-4.42578m5.45703 4.42578l-.46875 2.40625m-.32422-3.05078l-.23437 1.20312m14.4961-.76172l-5.76173-4.01953m5.76172 4.01953l-.29687 2.4375m-.54297-3.02343l-.14844 1.21875m14.57031-1.08594l-6.29687-3.11719m6.29688 3.11719l.0703 2.45312m-.98437-2.90625l.03516 1.22657m14.39062-1.25391l-6.6914-2.15234m6.6914 2.15234l.4336 2.41406m-1.40625-2.72656l.21484 1.20703m14.23828-1.89453l-7.02344-.15234m7.02344.15234l1.10547 2.1914m-2.125-2.21484l.55078 1.09766m13.77735-1.41406l-7.00782.52343m7.00782-.52343l1.30859 2.07812m11.9961-2.17969l-6.98829.73047m6.98828-.73047l1.3711 2.03125m-2.38672-1.92578l.6836 1.01563m13.49609-1.83985l-6.6836 2.16797m6.6836-2.16797l1.76171 1.70313m-2.73437-1.39063l.88281.85547m13.29688-1.45703l-6.46875 2.7461m6.46875-2.7461l1.90625 1.54297m-2.84766-1.14453l.95313.77344m12.52734-2.3125l-4.91797 5.02343m4.91797-5.02343l2.35156.6953m11.25781-.36718l-5.5078 4.36719m5.5078-4.36719l2.25.98438m10.76563-1.3125l-4.91016 5.02734m4.91016-5.02734l2.35547.6914m-3.07031.03906l1.17968.34375m12.69922-1.21484l-4.60547 5.3086m4.60547-5.3086l2.39063.54688m-3.0625.22265l1.19531.27735m12.63281-1.17579l-4.28906 5.56641m4.28906-5.5664l2.41797.40625m-3.04297.40234l2.42188.41015m9.71484-1.93359l-.6836 6.99219m.6836-6.99219l2.26953-.9336m10.51563.92188l.3789 7.01563m16.25782-5.09766l-6.26563 3.17969m6.26563-3.17969l2.0078 1.41016m10.8086-2.14453l-5.26953 4.65234"/><g clip-path="url(#av)"><path fill="none" stroke="#000" stroke-linecap="round" stroke-linejoin="round" stroke-miterlimit="10" stroke-width=".5" d="M466.19531 318.22266l2.29688.86328"/></g><path fill="none" stroke="#000" stroke-linecap="round" stroke-linejoin="round" stroke-miterlimit="10" stroke-width=".5" d="M465.42969 318.89844l2.29687.86328"/><path fill="#ff3030" fill-rule="evenodd" d="M162.57813 463.21094h7.6914V453.0625h-7.6914v10.14844"/><path fill="azure" fill-rule="evenodd" d="M164.41016 454.89844h.83203v5.73828h3.19531v.74219h-4.02734v-6.48047"/><path fill="#00f" fill-rule="evenodd" d="M201.82813 454.33203h8.61718V444.1875h-8.61719v10.14453"/><path fill="azure" fill-rule="evenodd" d="M203.66016 446.01953h.83203v2.82422h3.28906v-2.82422h.83203V452.5h-.83203v-2.91406h-3.28906V452.5h-.83203v-6.48047"/><path fill="#00f" fill-rule="evenodd" d="M317.22656 454.33203h8.61719V444.1875h-8.61719v10.14453"/><path fill="azure" fill-rule="evenodd" d="M319.0586 446.01953h.83202v2.82422h3.28516v-2.82422h.83594V452.5h-.83594v-2.91406h-3.28515V452.5h-.83204v-6.48047"/><path fill="#ff3030" fill-rule="evenodd" d="M384.4961 414.38672h7.6914v-10.14453h-7.6914v10.14453"/><path fill="azure" fill-rule="evenodd" d="M386.32813 406.07422h.83203v5.74219h3.1953v.73828h-4.02733v-6.48047"/><path fill="#ff3030" fill-rule="evenodd" d="M295.72656 409.94922h7.69531v-10.14453h-7.6953v10.14453"/><path fill="azure" fill-rule="evenodd" d="M297.5586 401.63672h.83593v5.73828h3.1914v.74219h-4.02734v-6.48047"/><path fill="#ff3030" fill-rule="evenodd" d="M198.08203 374.4414h7.69531v-10.14452h-7.6953v10.14453"/><path fill="azure" fill-rule="evenodd" d="M199.91797 366.1289h.83203v5.7422h3.19531v.73827h-4.02734v-6.48046"/><path fill="#ffffe0" fill-rule="evenodd" d="M337.30469 398.3125h22.17969v-10.1914h-22.1797v10.1914"/><path fill-rule="evenodd" d="M340.80469 389.95313h.50781V396.25h-.78516v-4.49219h-1.39062v-.55469l.5625-.0664.25-.05078.23047-.08985.20312-.14062.17578-.21094.14063-.29687.10547-.39454m4.8125 0l.23047.01954.21875.05468.20703.08985.19922.1211.18359.14843.17188.17578.30078.42188.24218.49218.1797.54688.11327.57812.03906.59375-.03906.58985-.11328.58593-.17969.5547-.24218.5-.30079.42968-.17187.17969-.1836.15234-.19921.125-.20703.08984-.21875.0586-.23047.01953-.22656-.01953-.21875-.0586-.21094-.08984-.19531-.125-.1836-.15234-.17187-.1797-.30079-.42968-.24218-.5-.1836-.55469-.10937-.58593-.03906-.58985h.83203l.03125.5625.08203.5039.125.44532.16406.375.1875.29688.21094.22265.22265.13672.22657.04688.22656-.04688.22266-.13672.21093-.22265.19141-.29688.16406-.375.125-.44531.08203-.5039.02735-.5625-.02735-.5625-.08203-.5-.125-.4375-.16406-.36329-.1914-.29297-.21094-.21484-.22266-.13281-.22656-.04297-.22656.04297-.22266.1328-.21094.21485-.1875.29297-.16406.36328-.125.4375-.08203.5-.03125.5625h-.83203l.03906-.59375.10937-.57812.1836-.54688.24219-.49219.30078-.42187.17187-.17578.1836-.14844.1953-.1211.21094-.08984.21875-.05468.22657-.01954m4.95312 0l.23047.01954.21875.05468.20703.08985.19922.1211.1836.14843.17187.17578.30078.42188.24219.49218.17969.54688.11328.57812.03515.59375-.03515.58985-.11328.58593-.1797.5547-.24218.5-.30078.42968-.17188.17969-.18359.15234-.19922.125-.20703.08984-.21875.0586-.23047.01953-.22656-.01953-.22266-.0586-.20703-.08984-.19531-.125-.1836-.15234-.17187-.1797-.30078-.42968-.2461-.5-.17968-.55469-.10938-.58593-.03906-.58985h.83203l.03125.5625.08203.5039.125.44532.16407.375.1875.29688.21093.22265.22266.13672.22656.04688.22656-.04688.22266-.13672.21094-.22265.1914-.29688.16407-.375.125-.44531.08203-.5039.02734-.5625-.02734-.5625-.08203-.5-.125-.4375-.16406-.36329-.19141-.29297-.21094-.21484-.22265-.13281-.22657-.04297-.22656.04297-.22266.1328-.21093.21485-.1875.29297-.16407.36328-.125.4375-.08203.5-.03125.5625h-.83203l.03906-.59375.10938-.57812.17969-.54688.24609-.49219.30078-.42187.17188-.17578.18359-.14844.19531-.1211.20703-.08984.22266-.05468.22656-.01954m4.95313 0l.38672.02735.35937.08594.32422.1328.27734.1875.23047.23829.17188.28516.10937.33203.03906.3789-.01953.27344-.05859.23438-.08984.19921-.10938.17188-.1289.14453-.14063.1211-.28516.1953.23047.1211.20703.14453.1836.17188.15234.19531.125.21094.08985.23047.05468.24609.01953.2539-.03515.3125-.10156.32423-.17188.32421-.24219.3086-.30469.26953-.375.21484-.21093.07813-.22656.0625-.2461.03906-.26172.01172-.25781-.01172-.24219-.03906-.22265-.0625-.20704-.07813-.35937-.21484-.28906-.26953-.22266-.3086-.15625-.32421-.09375-.32422-.03125-.3125h.83203l.02735.2539.07812.23438.1211.21484.16406.1836.1914.15234.21875.11328.2422.07422.2539.02344.2539-.02344.2422-.07422.21874-.11328.19531-.15235.16016-.18359.1211-.21484.07812-.23438.02734-.2539-.02734-.25-.07813-.23829-.12109-.21093-.16016-.1836-.1953-.15234-.21876-.11719-.24219-.07031-.2539-.02734-.2539.02734-.2422.07031-.21875.11719-.1914.15234-.16406.1836-.1211.21094-.07812.23828-.02735.25h-.83203l.01953-.25391.05469-.23828.09375-.22266.1211-.21094.15234-.1914.1836-.17188.20702-.15234.23438-.13281-.28906-.19531-.14063-.1211-.1289-.14453-.10938-.17188-.08985-.19921-.05468-.23438-.02344-.27344h.78906l.02344.21485.0664.1914.10157.16407.13672.14062.16406.11328.1914.07813.20704.05078.21875.01953.22265-.01953.20704-.05078.1875-.07813.16406-.11328.13672-.14062.10546-.16407.06641-.1914.01953-.21485-.01953-.21484-.0664-.1914-.10547-.16798-.13672-.13671-.16406-.11329-.1875-.08203-.20704-.05078-.22265-.01562-.21875.01562-.20703.05078-.19141.08204-.16406.11328-.13672.13671-.10156.16797-.06641.19141-.02344.21484h-.78906l.03906-.3789.10938-.33203.17187-.28516.23047-.23828.28125-.1875.32031-.13281.35938-.08594.38672-.02735"/><path fill="#ffffe0" fill-rule="evenodd" d="M253.36328 365.79688h22.17969v-10.19141h-22.17969v10.1914"/><path fill-rule="evenodd" d="M256.86328 357.4375h.50781v6.29688h-.78515v-4.4922h-1.39063v-.55468l.5625-.0664.25-.05079.23047-.08984.20313-.14063.17578-.21093.14062-.29688.10547-.39453m4.8125 0l.23047.01953.21875.05469.20703.08984.19922.1211.1836.14843.17187.17579.30078.42187.24219.49219.17969.54687.11328.57813.03906.59375-.03906.58984-.11329.58594-.17968.55469-.24219.5-.30078.42968-.17188.1797-.18359.15233-.19922.125-.20703.08985-.21875.0586-.23047.01952-.22656-.01953-.21875-.0586-.21094-.08983-.19531-.125-.1836-.15235-.17187-.17969-.30078-.42968-.2461-.5-.17968-.5547-.10938-.58593-.03906-.58984h.83203l.03125.5625.08203.5039.125.44532.16406.375.1875.29687.21094.22266.22266.13672.22656.04687.22656-.04687.22266-.13672.21094-.22266.1914-.29687.16407-.375.125-.44532.08203-.5039.02734-.5625-.02734-.5625-.08203-.5-.125-.4375-.16407-.36328-.1914-.29297-.21094-.21485-.22266-.1328-.22656-.04298-.22656.04297-.22266.13281-.21094.21485-.1875.29297-.16406.36328-.125.4375-.08203.5-.03125.5625h-.83203l.03906-.59375.10938-.57813.17969-.54687.24609-.49219.30078-.42188.17188-.17578.18359-.14843.19531-.1211.21094-.08984.21875-.05469.22656-.01953m4.95313 0l.23046.01953.21875.05469.20704.08984.1953.1211.1875.14843.17188.17579.30079.42187.24218.49219.17969.54687.11328.57813.03516.59375-.03516.58984-.11328.58594-.17969.55469-.24219.5-.30078.42968-.17187.1797-.1875.15233-.19531.125-.20704.08985-.21875.0586-.23046.01952-.23047-.01953-.21875-.0586-.20703-.08983-.19532-.125-.18359-.15235-.17188-.17969-.30078-.42968-.24609-.5-.17969-.5547-.10937-.58593-.03906-.58984h.83203l.03125.5625.08203.5039.125.44532.16015.375.19141.29687.21094.22266.22265.13672.22657.04687.22656-.04687.22265-.13672.21094-.22266.1914-.29687.16407-.375.125-.44532.08203-.5039.02735-.5625-.02735-.5625-.08203-.5-.125-.4375-.16406-.36328-.1914-.29297-.21094-.21485-.22266-.1328-.22656-.04298-.22657.04297-.22265.13281-.21094.21485-.1914.29297-.16016.36328-.125.4375-.08203.5-.03125.5625h-.83204l.03907-.59375.10937-.57813.17969-.54687.2461-.49219.30077-.42188.17188-.17578.1836-.14843.1953-.1211.20704-.08984.21875-.05469.23047-.01953m4.95312 0l.38672.02734.35938.08594.32421.13281.27735.1875.23047.23829.17187.28515.10938.33203.03906.3789-.01953.27345-.0586.23437-.08984.19922-.10938.17188-.1289.14453-.14063.12109-.28515.19531.23047.1211.20703.14453.1836.17187.15233.19531.125.21094.08985.23047.05469.2461.01953.2539-.03516.3086-.10156.32812-.17188.32422-.24218.3086-.3047.26952-.375.21485-.21093.07812-.22656.0625-.2461.03906-.26171.01172-.25782-.01171-.24218-.03907-.22266-.0625-.20703-.07812-.35938-.21485-.28906-.26953-.22265-.3086-.15625-.32421-.09375-.32813-.03125-.30859h.83203l.02734.2539.07813.23438.12109.21485.16406.18359.1914.15234.21876.11329.24219.07421.2539.02344.2539-.02344.2422-.07421.21875-.11329.1953-.15234.16016-.1836.1211-.21484.07812-.23437.02735-.2539-.02735-.25392-.07812-.23437-.1211-.21094-.16015-.1836-.19531-.15233-.21875-.1172-.2422-.0703-.2539-.02735-.2539.02735-.2422.0703-.21874.1172-.1914.15234-.16407.1836-.1211.21093-.07812.23438-.02734.2539h-.83204l.01954-.2539.05468-.23829.08985-.22265.125-.21094.15234-.1914.1836-.17188.20703-.15235.23437-.1328-.28906-.19532-.14063-.1211-.1289-.14452-.10938-.17188-.08984-.19922-.05469-.23437-.02344-.27344h.78907l.02343.21484.0625.1914.10547.16407.13672.14063.16406.10937.19141.08203.20703.05078.21875.01954.22266-.01954.20312-.05078.1914-.08203.16407-.10937.13672-.14063.10547-.16406.0664-.1914.01954-.21485-.01954-.21485-.0664-.1914-.10547-.16797-.13672-.13672-.16406-.11328-.1914-.08203-.20313-.05078-.22266-.01563-.21875.01563-.20703.05078-.1914.08203-.16407.11328-.13672.13672-.10547.16797-.0625.1914-.02343.21485h-.78907l.03907-.3789.10937-.33204.17188-.28515.23046-.23829.28125-.1875.32032-.1328.35937-.08595.38672-.02734"/><path fill="#ffffe0" fill-rule="evenodd" d="M168.64844 392.39453h22.17969v-10.1914h-22.1797v10.1914"/><path fill-rule="evenodd" d="M172.14844 384.03516h.50781v6.29687h-.78516v-4.49219h-1.39062v-.55468l.5586-.06641.2539-.05078.23047-.08985.20312-.14062.17188-.21094.14453-.29687.10547-.39453m4.8125 0l.23047.01953.21875.05469.20703.08984.19531.1211.1836.14843.17187.17578.30469.42188.24218.49218.1797.54688.10937.57812.03906.59375-.03906.58985-.10938.58594-.17969.55468-.24218.5-.3047.42969-.17187.17969-.18359.15234-.19531.125-.20703.08985-.21875.05859-.23047.01953-.23047-.01953-.21875-.0586-.20703-.08984-.19531-.125-.1836-.15234-.17187-.17969-.3047-.42969-.24218-.5-.17969-.55469-.10937-.58593-.03906-.58985h.83203l.03125.5625.07812.50391.1289.44531.16017.3711.1914.30078.21094.22265.22266.13672.22656.04688.22656-.04688.22266-.13672.21093-.22265.19141-.30078.16016-.3711.1289-.44531.08203-.5039.02735-.5625-.02735-.5625-.08203-.5-.1289-.4375-.16016-.36329-.1914-.29297-.21094-.21484-.22266-.13281-.22656-.04297-.22656.04297-.22266.13281-.21094.21484-.1914.29297-.16016.36328-.1289.4375-.07813.5-.03125.5625h-.83203l.03906-.59375.10937-.57812.1797-.54688.24218-.49218.30469-.42188.17187-.17578.1836-.14844.1953-.1211.20704-.08983.21875-.0547.23047-.01952m4.95312 0l.23047.01953.21875.05469.20703.08984.19531.1211.1836.14843.17187.17578.30078.42188.2461.49218.17969.54688.10937.57812.03906.59375-.03906.58985-.10937.58594-.1797.55468-.24608.5-.30079.42969-.17187.17969-.1836.15234-.1953.125-.20704.08985-.21875.05859-.23047.01953-.23047-.01953-.21875-.0586-.20703-.08984-.19531-.125-.1875-.15234-.16797-.17969-.30469-.42969-.24218-.5-.1797-.55469-.11327-.58593-.03516-.58985h.83203l.02735.5625.08203.50391.1289.44531.16016.3711.1914.30078.21094.22265.22266.13672.22656.04688.22656-.04688.22266-.13672.21094-.22265.1914-.30078.16016-.3711.1289-.44531.07813-.5039.03125-.5625-.03125-.5625-.07812-.5-.1289-.4375-.16017-.36329-.1914-.29297-.21094-.21484-.22266-.13281-.22656-.04297-.22656.04297-.22266.13281-.21093.21484-.19141.29297-.16016.36328-.1289.4375-.08203.5-.02735.5625h-.83203l.03516-.59375.11328-.57812.17969-.54688.24218-.49218.3047-.42188.16796-.17578.1875-.14844.19531-.1211.20703-.08983.21875-.0547.23047-.01952m4.95313 0l.38672.02734.35937.08203.32031.13672.28125.1875.23047.23828.17188.28516.10937.33203.03906.3789-.02343.27344-.05469.23438-.08984.19922-.11328.17187-.12891.14453-.13672.1211-.28906.1953.23437.1211.20703.14453.1797.17188.15624.19531.1211.21094.09375.23047.05468.2461.01953.2539-.03515.3086-.10547.32812-.17188.32421-.23828.3086-.30469.26953-.375.21094-.21093.08203-.23047.0625-.24219.03906-.26172.01172-.26172-.01172-.23828-.03906-.22656-.0625-.20313-.08203-.35937-.21094-.28906-.26953-.22266-.3086-.16016-.32421-.08984-.32813-.03125-.3086h.83203l.02735.25391.07812.23438.1211.21484.16015.1836.19531.15234.21875.11328.23828.07422.25782.02344.2539-.02344.2422-.07422.21874-.11328.1914-.15234.16016-.1836.125-.21484.07813-.23438.02734-.2539-.02734-.2539-.07813-.23438-.125-.21094-.16015-.1836-.1914-.15234-.21876-.11719-.24219-.0703-.2539-.02735-.25781.02734-.23829.07031-.21875.1172-.1953.15233-.16017.1836-.12109.21094-.07812.23437-.02735.2539h-.83203l.01953-.2539.05469-.23828.08984-.22266.125-.21093.15235-.19141.1836-.17188.20702-.15234.23047-.13281-.28516-.19531-.14062-.1211-.1289-.14453-.11329-.17187-.08594-.19922-.05859-.23438-.01953-.27344h.78516l.02343.21485.06641.1914.10547.16407.13672.14062.16406.10938.1875.08203.20703.05078.22266.01953.21875-.01953.20703-.05078.1875-.08203.16797-.10938.13672-.14062.10156-.16406.0664-.19141.02344-.21485-.02344-.21484-.0664-.1914-.10156-.16797-.13672-.13672-.16797-.11328-.1875-.08204-.20703-.05078-.21875-.01562-.22266.01562-.20703.05079-.1875.08203-.16406.11328-.13672.13672-.10547.16796-.0664.19141-.02344.21485h-.78516l.03906-.37891.10938-.33203.17187-.28516.23047-.23828.27734-.1875.32422-.13672.35938-.08203.38672-.02734"/><path fill="#ffffe0" fill-rule="evenodd" d="M251.42969 423.4961h22.17969v-10.19141h-22.1797v10.1914"/><path fill-rule="evenodd" d="M254.92969 415.13672h.50781v6.29687h-.78516v-4.49218h-1.39062v-.5547l.5586-.0664.2539-.05078.23047-.08984.20312-.14453.17188-.20704.14453-.29687.10547-.39453m4.8125 0l.23047.01953.21875.05469.20703.08984.19531.1211.1836.14843.17187.17578.30469.42188.24218.49219.1797.54687.10937.57813.03906.58984-.03906.59375-.10938.58594-.17969.55469-.24218.5-.3047.42968-.17187.17969-.18359.15234-.19531.125-.20703.08985-.21875.0586-.23047.01952-.23047-.01953-.21875-.0586-.20703-.08984-.19531-.125-.1836-.15234-.17187-.17969-.3047-.42969-.24218-.5-.17969-.55468-.10937-.58594-.03906-.59375h.83203l.02734.5664.08203.50391.1289.4414.16017.375.1914.30079.21094.22266.22265.13671.22657.04688.22656-.04688.22266-.13671.21093-.22266.19141-.30078.16016-.375.1289-.4414.07813-.50391.03125-.56641-.03125-.5586-.07813-.5-.1289-.4375-.16016-.36327-.1914-.29297-.21094-.21485-.22266-.13281-.22656-.04297-.22656.04297-.22266.13281-.21094.21485-.1914.29296-.16016.36329-.1289.4375-.08204.5-.02734.55859h-.83203l.03906-.58984.10937-.57813.1797-.54687.24218-.4922.30469-.42187.17187-.17578.1836-.14844.1953-.12109.20704-.08984.21875-.05469.23047-.01953m4.95312 0l.23047.01953.21875.05469.20703.08984.19531.1211.1836.14843.17187.17578.30079.42188.24609.49219.17969.54687.10937.57813.03906.58984-.03906.59375-.10937.58594-.1797.55469-.24608.5-.30079.42968-.17187.17969-.1836.15234-.1953.125-.20704.08985-.21875.0586-.23047.01952-.23047-.01953-.21875-.0586-.20703-.08984-.19531-.125-.1875-.15234-.16797-.17969-.30469-.42969-.24218-.5-.1797-.55468-.11327-.58594-.03516-.59375h.83203l.02735.5664.08203.50391.125.4414.16406.375.1914.30079.21094.22266.22266.13671.22656.04688.22656-.04688.22266-.13671.21094-.22266.1914-.30078.16016-.375.125-.4414.08203-.50391.03125-.56641-.03125-.5586-.08203-.5-.125-.4375-.16015-.36327-.19141-.29297-.21094-.21485-.22265-.13281-.22657-.04297-.22656.04297-.22266.13281-.21093.21485-.19141.29296-.16406.36329-.125.4375-.08203.5-.02735.55859h-.83203l.03516-.58984.11328-.57813.17969-.54687.24218-.4922.3047-.42187.16796-.17578.1875-.14844.19531-.12109.20703-.08984.21875-.05469.23047-.01953m4.95313 0l.38672.02734.35937.08203.32031.13672.28125.1875.23047.23828.17188.28516.10937.33203.03516.3789-.01953.27344-.0586.23438-.08593.19922-.11329.17187-.1289.14454-.13672.12109-.28906.19531.23437.1211.20703.14453.1797.17187.15624.19531.1211.21094.08984.23047.0586.2461.01952.2539-.03515.3086-.10547.32812-.17188.32422-.23828.30469-.3086.26953-.37108.21484-.21094.08203-.23047.0625-.24219.03516-.26172.01562-.26172-.01562-.24218-.03516-.22266-.0625-.20313-.08203-.35937-.21484-.29297-.26954-.22265-.30468-.15625-.32422-.09375-.32813-.02735-.30859h.83203l.02735.2539.07812.23438.1211.21094.16015.1875.19531.15234.21875.11328.23829.07422.2578.02344.25391-.02344.23829-.07422.22265-.11328.1914-.15234.16016-.1875.125-.21094.07422-.23437.02735-.25391-.02735-.2539-.07422-.23438-.125-.21094-.16015-.1836-.1914-.15234-.22267-.11718-.23828-.07032-.2539-.02734-.25781.02734-.23829.07032-.21875.11718-.1953.15235-.16017.1836-.12109.21093-.07812.23437-.02735.25391h-.83203l.01953-.2539.05469-.23829.08984-.22656.125-.20703.15235-.1914.1836-.17188.20702-.15235.23047-.1328-.28515-.19532-.14063-.1211-.1289-.14453-.11329-.17187-.08594-.19922-.05859-.23438-.01953-.27343h.78516l.02343.21484.06641.1875.10547.16797.13672.14063.16406.10937.1875.08203.20703.05078.22266.01563.21875-.01563.20703-.05078.1875-.08203.16797-.10938.13672-.14062.10156-.16797.0664-.1875.02344-.21484-.02344-.21485-.0664-.1914-.10156-.16797-.13672-.14063-.16797-.10937-.1875-.08203-.20703-.05078-.21875-.01563-.22266.01563-.20703.05078-.1875.08203-.16406.10937-.13672.14063-.10547.16797-.0664.1914-.02344.21485H267.75l.03906-.3789.10547-.33204.17578-.28516.23047-.23828.27735-.1875.32421-.13672.35938-.08203.38672-.02734"/><path fill="#ffffe0" fill-rule="evenodd" d="M306.23828 347.2539h22.17969v-10.1914h-22.17969v10.1914"/><path fill-rule="evenodd" d="M309.73828 338.89453h.50781v6.29297h-.78906v-4.48828h-1.38672v-.55469l.5586-.0664.2539-.0547.23047-.08593.20313-.14453.17187-.20703.14063-.29688.10937-.39453m4.8125 0l.23047.01953.21875.05469.20703.08984.19531.1211.1836.14844.17187.17578.30078.42187.2461.49219.17969.54687.10937.57813.03906.58984-.03906.59375-.10938.58594-.17968.55469-.2461.5-.30078.42969-.17187.17968-.1836.15235-.1953.125-.20704.08984-.21875.0586-.23047.01952-.23047-.01953-.21875-.05859-.20703-.08984-.19531-.125-.1875-.15235-.16797-.17969-.30469-.42968-.24219-.5-.17968-.55469-.11328-.58594-.03516-.59375h.83203l.02735.5664.08203.50392.1289.4414.16016.375.1914.30078.21094.22266.22266.13672.22656.04687.22656-.04687.22266-.13672.21094-.22266.1914-.30078.16016-.375.125-.4414.08203-.50391.03125-.5664-.03125-.5586-.08203-.5-.125-.4375-.16016-.36719-.1914-.28906-.21094-.21485-.22266-.1328-.22656-.04298-.22656.04297-.22266.13281-.21094.21485-.1914.28906-.16016.36719-.1289.4375-.08204.5-.02734.5586h-.83203l.03516-.58985.11328-.57813.17969-.54687.24218-.49219.30469-.42187.16797-.17579.1875-.14843.19531-.1211.20703-.08984.21875-.05469.23047-.01953m5.08985 0h.51171v6.29297h-.78906v-4.48828h-1.38672v-.55469l.5586-.0664.2539-.0547.22656-.08593.20313-.14453.17578-.20703.14063-.29688.10546-.39453m2.82422 2.17578h.78516l.02344-.3164.0586-.28516.09765-.2539.14062-.21485.17969-.17578.22266-.1289.26562-.07813.3086-.02735.23828.01954.22265.0625.20703.10156.1797.14062.14843.17188.11328.20703.07031.23437.02344.26563-.01953.26953-.0664.22266-.10938.1914-.15625.17188-.19922.16406-.25.16406-.63281.39063-.53907.3125-.4375.3164-.34375.32422-.26562.33594-.1914.35156-.125.36719-.06641.39453-.01954.41797h4.21094v-.73828h-3.33203l.08203-.28516.11328-.23828.14844-.19922.1875-.17969.23047-.17187.27734-.17578.71875-.41797.41407-.20313.34765-.23046.28125-.25391.21875-.26563.16406-.27734.10938-.28515.0625-.28516.02344-.28125-.04297-.38281-.1211-.34766-.1875-.3086-.25-.26171-.30468-.21485-.34375-.15625-.38281-.09765-.40625-.03516-.4336.03125-.39844.10156-.35546.16407-.3047.23437-.24609.30469-.1875.375-.11718.44531-.03907.51953"/></g></defs><use xlink:href="#aw"/></svg>