<svg xmlns="http://www.w3.org/2000/svg" role="img" xmlns:xlink="http://www.w3.org/1999/xlink" viewBox="142.45 309.95 326.84 171.84"><defs><clipPath id="a"><path d="M144 311.67188h1v168.65625h-1zm0 0"/></clipPath><clipPath id="b"><path d="M144 311.67188h324v168.65625H144zm0 0"/></clipPath><clipPath id="c"><path d="M381 461h23v19.32813h-23zm0 0"/></clipPath><clipPath id="d"><path d="M384 476h17v4.32813h-17zm0 0"/></clipPath><clipPath id="e"><path d="M388 477h9v3.32813h-9zm0 0"/></clipPath><clipPath id="f"><path d="M390 479h5v1.32813h-5zm0 0"/></clipPath><clipPath id="g"><path d="M467 311.67188h1v168.65625h-1zm0 0"/></clipPath><clipPath id="h"><path d="M144 479h4v1.32813h-4zm0 0"/></clipPath><clipPath id="i"><path d="M147 479h3v1.32813h-3zm0 0"/></clipPath><clipPath id="j"><path d="M146 479h2v1.32813h-2zm0 0"/></clipPath><clipPath id="k"><path d="M153 479h9v1.32813h-9zm0 0"/></clipPath><clipPath id="l"><path d="M160 479h3v1.32813h-3zm0 0"/></clipPath><clipPath id="m"><path d="M159 479h3v1.32813h-3zm0 0"/></clipPath><clipPath id="n"><path d="M166 479h9v1.32813h-9zm0 0"/></clipPath><clipPath id="o"><path d="M173 479h3v1.32813h-3zm0 0"/></clipPath><clipPath id="p"><path d="M172 479h3v1.32813h-3zm0 0"/></clipPath><clipPath id="q"><path d="M180 479h8v1.32813h-8zm0 0"/></clipPath><clipPath id="r"><path d="M187 479h3v1.32813h-3zm0 0"/></clipPath><clipPath id="s"><path d="M186 479h2v1.32813h-2zm0 0"/></clipPath><clipPath id="t"><path d="M193 479h9v1.32813h-9zm0 0"/></clipPath><clipPath id="u"><path d="M200 479h3v1.32813h-3zm0 0"/></clipPath><clipPath id="v"><path d="M199 479h2v1.32813h-2zm0 0"/></clipPath><clipPath id="w"><path d="M206 479h9v1.32813h-9zm0 0"/></clipPath><clipPath id="x"><path d="M213 479h3v1.32813h-3zm0 0"/></clipPath><clipPath id="y"><path d="M212 480h2v.32813h-2zm0 0"/></clipPath><clipPath id="z"><path d="M220 479h8v1.32813h-8zm0 0"/></clipPath><clipPath id="A"><path d="M227 479h2v1.32813h-2zm0 0"/></clipPath><clipPath id="B"><path d="M226 479h2v1.32813h-2zm0 0"/></clipPath><clipPath id="C"><path d="M233 479h8v1.32813h-8zm0 0"/></clipPath><clipPath id="D"><path d="M240 479h3v1.32813h-3zm0 0"/></clipPath><clipPath id="E"><path d="M239 479h2v1.32813h-2zm0 0"/></clipPath><clipPath id="F"><path d="M246 480h9v.32813h-9zm0 0"/></clipPath><clipPath id="G"><path d="M253 480h3v.32813h-3zm0 0"/></clipPath><clipPath id="H"><path d="M252 480h2v.32813h-2zm0 0"/></clipPath><clipPath id="I"><path d="M260 479h8v1.32813h-8zm0 0"/></clipPath><clipPath id="J"><path d="M267 479h3v1.32813h-3zm0 0"/></clipPath><clipPath id="K"><path d="M266 479h2v1.32813h-2zm0 0"/></clipPath><clipPath id="L"><path d="M273 479h8v1.32813h-8zm0 0"/></clipPath><clipPath id="M"><path d="M280 479h3v1.32813h-3zm0 0"/></clipPath><clipPath id="N"><path d="M286 478h9v2.32813h-9zm0 0"/></clipPath><clipPath id="O"><path d="M293 478h3v2.32813h-3zm0 0"/></clipPath><clipPath id="P"><path d="M300 479h8v1.32813h-8zm0 0"/></clipPath><clipPath id="Q"><path d="M306 479h4v1.32813h-4zm0 0"/></clipPath><clipPath id="R"><path d="M313 479h8v1.32813h-8zm0 0"/></clipPath><clipPath id="S"><path d="M320 479h3v1.32813h-3zm0 0"/></clipPath><clipPath id="T"><path d="M326 479h9v1.32813h-9zm0 0"/></clipPath><clipPath id="U"><path d="M332 480h2v.32813h-2zm0 0"/></clipPath><clipPath id="V"><path d="M340 478h7v2.32813h-7zm0 0"/></clipPath><clipPath id="W"><path d="M354 477h6v3.32813h-6zm0 0"/></clipPath><clipPath id="X"><path d="M368 477h5v3.32813h-5zm0 0"/></clipPath><clipPath id="Y"><path d="M381 477h6v3.32813h-6zm0 0"/></clipPath><clipPath id="Z"><path d="M393 480h8v.32813h-8zm0 0"/></clipPath><clipPath id="aa"><path d="M393 479h2v1.32813h-2zm0 0"/></clipPath><clipPath id="ab"><path d="M409 476h2v4.32813h-2zm0 0"/></clipPath><clipPath id="ac"><path d="M422 479h3v1.32813h-3zm0 0"/></clipPath><clipPath id="ad"><path d="M435 479h4v1.32813h-4zm0 0"/></clipPath><clipPath id="ae"><path d="M447 477h7v3.32813h-7zm0 0"/></clipPath><clipPath id="af"><path d="M459 479h9v1.32813h-9zm0 0"/></clipPath><clipPath id="ag"><path d="M144 466h4v2h-4zm0 0"/></clipPath><clipPath id="ah"><path d="M144 453h4v2h-4zm0 0"/></clipPath><clipPath id="ai"><path d="M144 439h4v3h-4zm0 0"/></clipPath><clipPath id="aj"><path d="M144 426h4v2h-4zm0 0"/></clipPath><clipPath id="ak"><path d="M466 426h2v3h-2zm0 0"/></clipPath><clipPath id="al"><path d="M144 412h4v3h-4zm0 0"/></clipPath><clipPath id="am"><path d="M465 410h3v2h-3zm0 0"/></clipPath><clipPath id="an"><path d="M144 399h4v3h-4zm0 0"/></clipPath><clipPath id="ao"><path d="M465 397h3v2h-3zm0 0"/></clipPath><clipPath id="ap"><path d="M144 385h4v4h-4zm0 0"/></clipPath><clipPath id="aq"><path d="M466 385h2v3h-2zm0 0"/></clipPath><clipPath id="ar"><path d="M144 373h4v2h-4zm0 0"/></clipPath><clipPath id="as"><path d="M466 371h2v2h-2zm0 0"/></clipPath><clipPath id="at"><path d="M144 357h2v7h-2zm0 0"/></clipPath><clipPath id="au"><path d="M465 357h3v3h-3zm0 0"/></clipPath><clipPath id="av"><path d="M144 345h4v5h-4zm0 0"/></clipPath><clipPath id="aw"><path d="M466 345h2v3h-2zm0 0"/></clipPath><clipPath id="ax"><path d="M144 332h4v4h-4zm0 0"/></clipPath><clipPath id="ay"><path d="M466 331h2v3h-2zm0 0"/></clipPath><clipPath id="az"><path d="M144 318h4v5h-4zm0 0"/></clipPath><clipPath id="aA"><path d="M465 317h3v3h-3zm0 0"/></clipPath><g id="aB" clip-path="url(#clip1)"><path fill="#fff" fill-opacity="0" fill-rule="evenodd" d="M0 0h1000v1000H0zm0 0"/><path fill="#d3d3d3" fill-opacity="0" fill-rule="evenodd" d="M162.15234 355.86719l-.23437.29297.0586.23437.11718.17188.17578.23437.29297.34766.11328.0586.11719-.17188.0586-.23438.17577-.17578.46485-.17578h.69922l.23437.29297.28906.8164.0586.17579.17578.23046.35156.23438.69922.69922.17188.17578.23437.34765.23438.41016.28906.58203.41015.46485.23047.23437.23438.17578.11719.23047.17578.29297.17187 1.16406v.23438l.0586.28906.05859.11719.11719.11719.34765.41015.11719.17188.17578.17578.17578.23437.11719.17188.17188.35156.05859.23438.23437.40625.23438-.0586-.17578.17578-.0586.92969h-.58203l-.23437-.11328-.34766.11328-.11719.11719-.05859.29297-.0586.17578-.11718.17187-.46484.29297-.0586.23438-.0586.11328v.64453l.0586.17187v.41016l.0586.0586v.40624l.05859.40625.11719.17579.05859.05859.23047.64062-.0586.29297v.69922l-.05859.58203v.23438l-.0586.23047-.05468.35156v1.92187l.05469.1172h.42578l-.36719.11718-.02344.35156.89063 1.16797 1.74219.53906 1.33984.35938v.53906l.08984.8086.53516.71484 1.51953.26953.89063-.08594.08984 1.16406.53516.1797 1.16015-.1797 2.05469-.98437 1.16016-.36328 1.8789-.17578 1.69531-.1797-.17968.71876-1.51563.08594-1.25.08984-.80469.26953-1.07421.8086.26953.71875.53515.89843-.17968.625-.26563.8086.26563 1.07812.625.89844.80468.17969 1.25-.1797-.26562.72267.09766.5039.05468.29297v.17188l.0586.29296v.40625l.17578.1172.35156.11718h.40625l.29297-.17578.11328-.11719.0586-.11719.11718-.23047.0586-.17578.35156-.46484.23047-.17578.17578-.0586.17578.0586.0586.17578.11718.98828.05469.46875.0586.17188.11718.23437.17578.0586.8164.05859h.28907l.11719.23437.05859.40625.0586.35156v1.10547l.11718.29297.11719.34766.28906.69922.17578.35156.58203.7539.35157.17579.17187.0586.46875.23437.64063.46484.34765.23438.29297.17578.29297.05468.23047.0625.8164.34766.29297.17578.11328.17188.35157.35156.11719.17578.52343.64063v.28906l.0586.35156v.34766l.05859.35156.0586.28906.11718.0586.17188.05859h.17578l.58203.23437.17578.1172.17578.28905.17578.23438.11328.23437.29297.23047.11719.11719v.41016l.0586.05468.28906.23438.23437.11719.0586.11718.11718.17188.0586.11719.23047.23437.05859.17578.23437.0586.1172.05859-.1172.11328-.05859.11719v.11719l-.11719.29296-.11719.28907v.58203l.17579.11719.11718.05859.0586.11719.11719.11719.11328.05859.17578.34765.0586.35157.05858.40625v.17578l-.05859.17578-.11719.69922v.17187l.1172.17579.29296.29296h.40625l.17578.1172.11719.17187.11719.29296v.23438h-.52735l-.23047-.23438h-.23437l-.17578.0586-.0586.69922.0586.34765.11719.17579.17578.41015.11718.23047.28907.46875.17578.05469h.52344l.23437.0586.75781.64062.0586.29296v.23438l.05859.0586.23047.34765v.35156l-.11719.17188v.29297l.29297.28906.29297.17578.17187.0586.29297.17577.29297.1172.58203.40624.28906.23438.29297.17578.21875.16015.01563.01172.23047.17579.64062.52343.17578.23438.1172.17578.17577.17578.11328.17188v.64062l.1172.17578.46874.11719.58203.11719.23438.05859.23047.11328.29297.11719.11328.0586.58593.35156.28907.17187.17578.0625.17578.05469.17578.0586.69922.35155.28906.17579.23438.05468.28906.17578.23437.1172.64063.40624.29297.11719.17187.0586.23438.05859.41015.05859.23047.0586.23438.11718.0586.17188-.41017.17578.46875.0586.0586.29296.11328.23438.17578.05468.23438.0586.17578.05859.40625.11719.64062.23437.11719.17188.0586.23437v.17578l-.0586.1172-.0586.40624.23438.23438.11719.05859.34766.11719.64062.23047.17578.11718.28906.1172.17578.17577.23438.46485.58203 1.10546.17578.17579.34766.17578.17578.11719.35156.11718 1.04688.52344.23437.0586.46485.11327.29297.0586.46484.17578.75781.58203.23438.23438.34765.46484.17578.17578.28907.23438.8164.69921.29297.17579.28906.28906.29297.17578.29297.28906.69531.64063.17578.17578.29297.23437.28907.23438.46875.28906.64062.58203.34766.23438.23437.29297.34766.34765.35156.46485.9336.99218.34765.40625.11719.17579.23437.05859.11328.11719.64454.17578.23047.11328.23437.0586.29297.17577.23047.1172.9336.69921.40624.40625.23438.17578.40625.17578.23437.11719.8164.34766.34766.23437.23438.11719.29297.28906.23047.11719.7578.35156.35157.17188.23047.05859.29297.11719.23437.0586.8711.17577h.8164l.46875.23047.17188.0586.875.69921.46484.1172.29297.05858.17578.0586.23047.0586.46875.05859.34766.05859.35156.0586.40625.05859h.29297l.17187.0586v.23046l.17578.17578h.29297l.34766.0586.35156.05859.69922.11719h.64063l.46484-.23438.29297-.17578.17187-.11719.41016-.17187.28906-.17578.9336-.46485.46875-.29297.52343-.29296.46485-.17188.46484-.17578 1.05078-.46485.28906-.11718.41016-.11719.28906-.11719.52735-.17578 1.51562-.69922.58203-.34765.28907-.0586.29297-.0586.34765-.11718.875-.23047.35156-.11719h.11329l.23437-.05859.875-.23437.23438-.0586h.8125l.35156-.0586.8164-.11718.17188-.0586.35156-.05468.29297-.0586.23047-.05859.8164-.17578.17579-.0586h.34765l.23438-.05859.46484-.11718.75781-.17188.23438-.0586h.34765l.41016-.11718.28906-.0586 1.28516-.05859h.28906l.41016-.0586.23047-.05858h.17578l.875-.1172h.40625l.41015-.11718h.34766l.35156-.11328.8711-.0586h1.75l1.04687.28907.41016.11719.28906.11718.35156.11719.28907.11719 1.05078.17187.28906.0586h.29297l.29297.05859.17187.0586.41016.05859.17187.0586.1172.05858h.11718l.11719.0586.35156.0586h.11328l.41016.0664 1.92187.39453 1.92578.39453 1.51953.44922 1.69532.71875 2.14453.80469 1.60547-.71875 1.42968-.80469 1.16016-1.07813 1.25-.44921 3.03516-.71875 1.875-.35938 2.14453-1.34765 2.23437-1.25391 2.5-1.25781 1.69531-.44922 1.78516-.17969 1.16016-.26953.625.53906 1.33984-.26953.71485-.98828.98437-1.34375.44531-.17969.80469-.35937 1.875-.53907 1.78516-.44921 1.25-.26954 1.16015-.08984 1.69922-.08984 1.96094-.26954 1.25-.08984h.53906l.625-.08984h.89063l2.14453-.17969 2.41015-.17969 2.58985-.08984 1.69531.17969 1.60938.08984 1.42968.35938 1.16016.71875 1.875.98828 1.16015 1.52734.26563.71484.6289.08985.35548.89844.53515.53906.53516 1.52734 1.07422.35938h.53515l-.80469.53515.08985 1.70703.71484 2.69532.89063.80468.89453.98829.71484 1.2578 1.78516.53907 1.51953-.17969.35547 1.34375 1.60937-.80469.98047-.53906.26953.26953.31641-.21484.21875-.14453.80078.44922.44922-.35938h.35547l.53515-.26953.53907-.71875.53515-.26953.625-.98828 1.16016.44922.83984.3711 1.39454.61718 1.6953-.17969h1.60548l1.78515.08985.17969-1.70704.53516-1.34375.80468.26954.4922.84765.40233.40625-.08984.53906v.35938l.71485.44922.71093-.26953h1.42969l.35938.98828.4453 1.25781.71485 1.34375 1.25.6289 1.69531.62891.71485-.17969.17969-.53906.98046-.08984.44922.35937.08594 1.25782-.26563.6289-.53515.17969v.53906l.71484.98438.26563.53906.98437.98828.80078 1.07813-.26562.35937-.08985.89844-.625 2.33203-.35546 2.0664-.08985 1.79298-.17969.71875-.08984.53906v1.4375l-.98047 1.88281-.35937 1.70703-.53516.89844-.80469 1.16797-.26562.53906 2.05469 1.2539.08593.35938-.35546.53906-.08985-.17968v.80859l.08985 1.4375-.44532.71484-1.07422.09375-.26562.71485.53515.89844.8047.71875 1.16015.80859 1.33984.26953.44531.35938-.35546.44921-1.78907-.08984-1.25-.44922-.71484-.71875-.625-.08984-.17578 3.58984-.1875 1.3086h89.35937V311.70313h-55.26953v49.08203l.76172.125 3.28906.54296 2.02344 2.83594v2.7539l2.35156.33204 2.34766.33203h4.05078l-1.3789 4.16016-2.02344.70703-2.02344.70312-.54297.34375-2.59375 1.6172-.1875.11718-2.02344-2.07813-.73046-2.74218-2.67188-2.07813-1.375-3.5-.0664-.08203-1.95704-2.67188 2.75-1.41796v-49.08204H294.42187v91.41407l.1172.03125.1328.01172.07422.07421.10547.04688.08985.0586.08593.05859.08985.0586.29687.29687.0586.08984.03125.11719.02734.11719.01563.13671-.03125.1172-.0586.08983-.0586.08594-.04296.10547-.04688.10156-.02734.1211v.14453l.17578.26953.14844.14844.07422.08594.07422.07421.04296.10547.0625.08985.0586.08593.04297.10547.0586.08985.04687.10156.04296.10547.0586.08594.11719.17968.07421.07422.0625.08594.0586.08984.04297.10547.0586.08985.05858.08593.0625.08985.0586.08984.04297.10156.11719.17969.07421.07422.0586.08594.07422.07421.08984.0586.10547.04687h.14844l.1328-.01562.13282.01562.10156-.04687.07422-.07422.04688-.10156-.01563-.13281v-.14844l-.04687-.10547-.02735-.11719-.04687-.10156-.02735-.1211-.04296-.10156-.0625-.08984-.04297-.10156-.04297-.10547-.03125-.11719-.01563-.13281-.01171-.13672.08593-.0586.0586-.08593.12109-.03125.04297.10547.01562.1328v.1172l.0586.10156.0586.08984.08983.0586.14844.14843.0586.08985.04296.10547-.01171.10156.08593.0586.10547.04687.08594.0586.08984.05858.07422.07422-.11719.02735-.10546.04687-.08594.0586-.07422.07421-.0586.08985-.0625.08594-.02734.12109-.04687.10156-.04297.10547-.03125.11719-.01172.13281-.01563.13281v.14844l.02735.11719.04687.10547.04297.10156.0586.08984.07421.07422.08985.0586.07422.07421.08984.0586.0586.08984.04296.10547.04688.10156.11719.03125.1328.01563h.14845l.11718-.03125.10547.04297.04297.10547.04688.10156.02734.1211L299.5 410l.02734.11719.03125.1211.02735.11718.10547.04297.10156.04687.13281-.01562.14844.14844.0625.08593.07422.07422.07031.07422.08984.0625.10547.04297.10156.04297.1172.03125.13671.01562.11719-.03125.07422-.07422.02734-.11718-.01172-.13282-.03125-.12109-.02734-.11719.04297-.10547h.11719l.08984.0625.11719.02735h.14843l.13282.01562h.14843l.13282.01563.1328-.01563h.14845l.1328-.01562.13282-.01172.13672.01172.11719-.02735.13281-.01562.1914-.0586-.05859.17579-.01562.1328-.02735.1211-.01562.13281-.0586.08594-.1328.01563-.10548.04687-.10546.04297-.1172.03125-.11718.02735-.26563.03125h-.14843l-.13281.01562-.07422.07422.05859.08594.14844.14843.11719.1797.07421.0703.08985.0625.08984.0586.08594.0586.08984.05858.10156.04297.10547.0625.10547.04297.08594.0586.10547.04687.10156.04297.17969.11719.0586.08984-.04298.10156-.04687.10547.01562.13281.22266.22266.0586.08985.04296.10156.03125.1211.04297.10155.01563.13282.03125.11718.01171.13672.03125.11719.14844.14844.10156.04297.10547.04296.1172.03125.1328.01563.13672.01563h.11719l.11719-.03125.08984-.0586.04297-.10547.04688-.10156.04296-.10547.03125-.11719.01172-.1328v-.14845l-.01172-.1328-.01562-.13282-.03125-.11719-.04297-.10547-.04688-.10547-.04296-.10156-.04297-.10547-.01563-.13281.01563-.13281.02734-.11719.03125-.11719.02735-.1211.04687-.10155.08984-.0586.08594-.0625.07422-.07422.08984-.05859.22266-.22266.0586-.08593.07421-.07422.11719-.17969.0586-.08594v-.14844l-.07423-.07421-.10156-.04688-.10547-.04297-.10156-.04297-.0586-.08984-.04687-.10547-.02734-.11719.08984-.05859.11719-.03125.10156-.04297.17969-.11719.14844-.14843.01172-.13282-.01172-.10546-.08985-.0586-.1328.01563h-.14845l-.1328.01562-.13282-.01562-.1211-.03125-.08593-.0586-.07422-.07422-.0586-.08984-.0625-.08594-.11718-.17969-.0586-.08593.03125-.1211.08594-.05859.1211-.03125.05859-.08594v-.1211l-.03125-.11718-.0586-.08984-.05859-.08594-.04687-.10547-.02735-.11719-.01562-.1328.0586-.08985.07421-.07422.08984-.0586.1172-.17968.07421-.07422.0586-.08594.14843-.14844.1211-.03125.1328-.01562.13282.01562.07422.07422.04297.10547.01562.13281-.03125.1172-.11719.03124-.1328.01172-.14844.14844-.04297.10547-.04688.10156-.02734.1211-.03125.11718v.14844l.03125.11719.04297.10546.05859.08985.07422.07031.07422.07422.11719.03125.12109.02734.11719-.02734.1328-.01563h.1172l.08984.0586.07422.07422.04687.10546.0586.08594.10156.04688.13281.01562.10547.04297.08594.0586-.01172.10546-.07422.07422-.17969.11719-.05859.08984-.08984.0586-.07032.07422-.07421.07421-.0625.08985-.02735.11719-.01562.1328.01562.13282-.01562.13281v.14844l.01562.13281.02735.1172.03125.12108.07421.07422.08985.0586.08594.0586.08984.05858.11719.03125v.08594l-.10157.04688-.08984.0586-.26563.03124-.11718.02735h-.14844l-.10547.04296-.10156.04688-.0586.08984-.0625.23438-.01171.13281-.03125.1211-.01563.1328v.29298l-.01172.1328.01172.13673.01563.1328.1328.01563.13282.01172.1211.03125.08593.0586.07422.07421.04688.10547.04296.10157.01563.1328v.44532l-.01563.13281v.44532l.03125.26562.02735.11719.01562.13281.03125.11719.08594.21094.03125.26562v.14844l-.03125.11719-.02734.11718-.03125.1211-.02735.11719-.03125.11718-.03125.1211-.01171.1328-.01563.13282.08984.0586.1172-.03125.10155.01562.04688.10547-.03125.26562v.44141l-.04297.10547-.04688.10547-.04296.10156-.04297.10547-.0586.08594-.03125.12109-.04296.11719-.03125.11719-.01563.1328.01563.13282.05859.08984.10547.04688.08594.0586.05859.08593-.01172.13672-.03125.11719-.04297.10156v.44531l-.01562.13281v.14844l-.03125.11719-.04297.10547-.02735.11719-.04687.10546-.04297.10157-.03125.12109-.02734.11719-.03125.13281-.03125.11719-.02735.11719-.04297.10546-.03125.1172-.03125.12108-.01171.13282-.01563.13281v.29688l.02734.11718v.14844l.04688.39844.02734.11719.0586.08984.12109.03125h.14844l.13281-.01563.0586.08985v.11719l-.0586.08984-.08984.0586-.10157.04296-.10546.04688-.08985.05859-.08594.0586-.13671.01562-.1172-.03125-.1328-.01563-.10157.04688-.0625.08594-.01172.13671-.01562.13282-.03125.11719-.02735.11718-.01562.13281-.03125.1211v.29687l.01563.13282.03125.11718v.14844l.01171.13281v.14844l-.02734.11719-.04688.10156-.02734.1211-.03125.11718-.0586.08985-.07421.07421-.10156.04297-.10547.04688-.11719.02734-.1211.03125-.10156-.04687.0586-.08594.10547-.04688.02734-.11718.03125-.11719.02734-.1211.03125-.11718v-.14844l.01563-.13281-.03125-.11719-.04297-.10547-.10547.01563-.07422.07422-.10156.04296-.08984.0625-.07422.07422-.04297.10157-.01563.1328-.03125.1172L304.25 426l-.03125.11719-.02734.11719-.03125.12109-.02735.11719-.03125.11718-.04297.10547-.08984.0586h-.08984l-.1172-.03125-.03124-.08594.01562-.13672-.03125-.11719v-.14844l-.01171-.1328v-.14844l-.0625-.23438-.02735-.1211-.04297-.10156-.04687-.10546-.0586-.08594-.05859-.08985-.04297-.10546-.0625-.08594-.14844-.14844-.0703-.07422-.10548-.04687-.10547-.04297-.10156-.04297-.29687-.29688-.08985-.07421-.08594-.0586-.10546-.04297-.08985-.0625-.08594-.0586-.10546-.04296-.08985-.0586-.08594-.0625-.07421-.0703-.10547-.04688-.08594-.0586-.10547-.04296-.08984-.0625-.10156-.04297-.10547-.04297-.08594-.0586-.10547-.04687-.10547-.04297-.10156-.04687-.08985-.0586-.10156-.04297-.10547-.04296-.08984-.0625-.11719-.02735-.13281-.01562-.13281.01562H299.75l-.13281.01563-.11719-.03125-.08984-.0586-.07422-.07422-.08985-.05859-.10156-.04688h-.14844l-.12109-.02734-.10156-.04297-.07422-.07422-.11719-.17968-.08984-.0586-.10156-.04297-.08985-.0625-.10547-.04296-.08984-.0586-.08594-.0586-.10547-.04687-.0586-.08594-.05858-.08984-.04297-.10547-.04688-.10156-.07422-.07422-.08594-.0586-.07421-.07421-.08985-.0586-.22265-.22265-.04297-.10547-.03125-.26563.10547-.04296h.14453l.10547.04296.07421.07422.08985.0586.08594.0586.10546.04687.08985.05859.14844.14844.0703.07422.14845.14843.0625.08594.07421.07422.08594.0586.07422.07421.08985.0625.08984.0586.08594.05859.26953.17578.10156.04688.10547.04296.10156.04297.04688-.07421.05859-.08594.07422-.07422.07031-.07422.10547.04297.07422.07422.0586.08984.04296.10156.04688.10547.04296.10547.1211.02735.11719-.02735.07421-.08984.04297-.10547.0586-.08985.07422-.07421.10546-.04297.1172-.02735.1328.01172.08985.0586.14844.14843.05859.08985.04297.10547.04687.10156.04297.10547.04297.10156.10547.04688.10547.04296.13281.01563.08594-.0586.0586-.08984.07421-.07422.10547-.04297.11719.02735.10547.04687.10156.04297.10547.04297.10156.04688.17969.11718v.11719l-.01563.13281.01563.13281.01562.13672.0586.08594.10156.04688.1211.02734.11718.03125h.14844l.11719-.03125.05859-.08984.17969-.1172.05859-.08983.07422-.07422.0586-.08594.11718-.17969.17969-.11719.11719.03125.08984.0586.04297.07422-.01563.1328v.1172l.08985.05859h.14843l.13282-.01563.1328-.01171.26563-.03125.10547-.04297.11719-.03125.1211-.02735.07421-.07421.07031-.07422.0625-.08985-.01562-.10547-.04688-.10156-.10156-.04297-.10547-.01562-.11718.02734-.26563.03125h-.14844l-.07421-.07422-.08985-.0586-.11719-.03124-.11718-.02735-.13282-.01562h-.14843l-.13282.01563h-.29687l-.10547-.04688-.14844-.14844-.04297-.10156-.05859-.08984.22266-.22266.08593-.0586.10547-.04296.11719-.03125.13281-.01563.13281.01563.13672.01562.10157.04297.1328-.01172.08985-.0625.10156-.04297.0625-.08984-.04687-.10156-.08984-.0586-.1172-.03125-.10155-.04296-.0586-.08985-.0625-.08984v-.11719l.01563-.13281.10547-.04688.07421-.07031v-.1211l-.08984-.05859-.03125-.11719.08985-.05859.07421-.07422.04297-.10547.0586-.08984.04687-.10156.01563-.13281v-.14844l-.04688-.10547-.04297-.10156-.08984-.0586-.13281-.01562-.10157-.04297-.13671-.01563-.1172-.03125h-.4453l-.13282-.01562-.13281-.01172-.13281-.01563-.11719-.03125h-.14844l-.13281-.01562-.13281-.01172-.26563-.03125-.1211-.04297-.08593-.0586-.07422-.07421v-.14844l.01172-.13281.10547-.04688.10156-.04296.13281-.01563h.15235l.13281-.01562h.29297l.1211.03125.10156.04296.08984.0586.23438.0625.12109-.04688.08984-.05859.10156-.04297.13282-.01562.10547.04296.10156.04688.13281.01172.1211-.02735h.14453l.12109-.03125.11719-.02734.10547-.04687.07421-.07422.08594-.0586.14844-.14843.0586-.08594.04687-.10547.02734-.11719.01563-.10547-.10156-.04296-.08985-.0586-.11719-.03125-.10546-.04297-.08985-.0625-.07422-.08594-.07422-.07421-.10156-.04297-.10547-.04688-.10156-.04297-.0586-.08984-.04687-.10156-.08594-.21094-.0625-.08594-.05859-.08984-.07422-.07422-.08594-.0586h-.26953l-.11719.03126-.08984.05859-.10156.04297-.13281.01562-.10547-.01562-.02735-.11719-.0625-.08984-.11718-.03125-.10157-.04297-.14843-.14844-.03125-.11719-.01563-.10546.07422-.07422.17969-.1172.11719-.02733.11718-.03125.13672.01562.10156.04297.10547.04297.10156.04687.10547.04297.1172.03125.1328.01563.1172.02734.1328.01563.10547-.01563.08985-.0586-.07422-.07421-.10547-.04297-.07422-.07422-.07422-.08984-.14844-.14844-.08593-.0586-.08985-.05859-.07422-.07422-.08984-.0586-.10156-.04687-.1211-.02734-.10156-.04688-.10547-.04296-.11719-.03125-.10156-.04297-.1211-.03125h-.14843l-.11719.03125-.10546.04297-.08594.0625-.17969.11718-.08594.0586-.08984.0586-.10547.04687-.08594.05859-.10547.04297-.10156.04297-.10547.04687-.07422.07422-.05859.08985-.0586.08593-.04687.10547-.0586.08594-.07421.07422-.13281-.01172-.1172-.03125h-.11718l-.07422.07422-.08984.0586-.07422.07421-.08984.0586-.08594.05859-.10547.04687-.10156.04297-.13672.01563-.10156-.04297-.14844-.14844-.10547-.04688h-.08594l-.10547.04688-.10156.04297-.1211.03125-.11718-.03125-.07422-.07422v-.11719l.03125-.1211.07422-.0703.0586-.08985.07421-.07422.11719-.03125.10547-.04296h.29297l.13281-.01563.13672-.01563.10156-.04296.08985-.0586.10156-.04687.08984-.0586.13281-.01171.08985.05859.13281.01172.08984-.0586.08594-.05859.10547-.04297.08984-.0586.08594-.0625.08985-.05859.14843-.14843.0586-.08594.05859-.08985.10547-.04296.13281-.01563.11719.02735.1211.03125.05859-.0586.05859-.08984.03125-.26563.02734-.11719.10547.01172.13281.01563.10157-.04297.08984-.0586.0586-.08984.07421-.07422.0586-.08984.04687-.10156.01172-.13281-.01172-.13282-.04687-.10547-.14844-.14843-.0586-.08985-.05859-.08594-.04297-.10546v-.44532l.01563-.1328v-.14845l.01172-.1328-.0586-.0586-.08984.0586-.10156-.04298-.17969-.11719-.08594-.05859-.0625-.08984-.0586-.08985-.07421-.07421-.08594-.0586-.1211.03125-.10155.01172-.10547.04688-.08594.05859-.10547.04297-.14844.14844-.08984.05859-.08594.0586-.08984.0625-.10547.04296-.13281.01563v-.1211l.10547-.04297.11718-.03125.07422-.0703.04297-.10548v-.14844l-.02734-.11718-.14844-.14844-.13281-.01563h-.14844l-.11719.03125-.10547.04297-.10156.04297-.08984.0625-.11719.02735-.07422-.07422.01172-.13281-.04297-.10157-.04297-.10547-.08984-.05859-.11719.02734-.1211.03125-.11718.03125-.10156.04297-.1211.03125-.10156.04297-.10547.04297-.08984.0586-.10156.01562v-.11719l.01562-.13281-.0586-.08985-.07421.04297-.14844.14844-.0586.08985-.07421.07421-.04688.10547-.04296.10156-.07422.07422-.0586.08985-.07422.07422-.05859.08593-.07422.07422-.08984.0625-.07422.07031-.07422.07422-.10156.01563-.13281.01562-.10547-.04296v-.1211l.14843-.14844.04297-.10156.0586-.08984.04687-.10156.04297-.10547.0586-.08985.03124-.11719.04297-.10156.03125-.1211.02735-.11718.04687-.10547.04297-.10156.04297-.10547.07422-.07031.08984-.0625.08985-.0586.10156-.04296h.29687l.26563-.03125.10547-.04297-.07422-.07422-.11719-.03125-.10547-.04297-.08984-.0586-.10156-.04687-.08985-.0586-.10156-.04296-.10547-.04297-.08984-.0625-.08594-.0586-.10547-.04296-.10156-.04297-.1211-.03125-.11718-.03125-.10157-.04297L297.5 410.25l-.10156-.04297-.08985-.0586-.04296-.10546-.01563-.13281.10156-.04297.13281-.01563.13672.01563.13282-.01563.10156-.04297.0586-.08984.01562-.10547-.08985-.0586-.07421-.07421-.10157-.04297-.08984-.0586-.14844-.14843-.04297-.10547-.01562-.13281v-.29297l-.0586-.08985-.08984-.05859-.07422-.07422-.04297-.10547-.03125-.11718-.0586-.08985-.07421-.07422-.11719-.02734-.07422-.07422-.08984-.0586-.08984-.0625-.08594-.05859-.07422-.07421-.0586-.08594-.04687-.10547-.08594-.0586-.14843-.14843-.19532-.0586-.1328.01563-.10157.04297-.07422.07422-.04688.10156-.04296.10547-.0586.08984-.0586.08594-.29687.29687-.08984.0586h-.08594l-.0625-.08594-.04297-.10547.03125-.11719.0586-.08984.02734-.11719-.01172-.13281-.08984-.0625-.10547.04688-.11719.02734-.11719.03125-.26953.17578-.10156.04688-.11719.02734-.10546.04687-.08985.0586-.10156.04297-.0586-.08594-.04687-.10547.01563-.13281.04687-.10547.07031-.07422.07422-.07031.0586-.08985v-.14843l-.04297-.10547h-.23829l-.10156.04687-.03125.11719-.02734.11719-.03125.1211-.07422.04296-.13281.01563-.07422-.04688-.04297-.10156-.04297-.10547-.04687-.10156-.04297-.10547-.1211.03125-.10156.04297-.13281.01562-.11719.03125-.10547.04297-.08984.0586-.10156.04687-.1211.02734-.13281.01563-.10156-.04297-.0586-.08985-.04687-.10546-.04297-.10157-.04297-.10546v-.1172l.0586-.08984.08593-.05859.17969-.11719.10156-.04687.10547-.04297.10547-.0586.10156-.04296.08985-.0625.10156-.04297.10547-.0586.10156-.04687.08984-.0586.10547-.04296.10156-.04297.08985-.0625.10156-.04297.13672-.01563.11719.03125.10156.04297.1211.03125.10156.04297.10546.04688.10157.04296.10547.04297.10156.04688.10547.04297.10156.04297.10547.04687.08594.0586.10546.04296.1172.03125.10546.04297.10156.04688.08985.0586.10547.04296.10156.04297.10547.04687.11719.02735.10156.04687.1211.02735h.14843l.08594-.0586.01562-.10156.0586-.08984-.02735-.1172-.07422-.07421-.11719-.17969-.07421-.07422-.08985-.07421-.17969-.1172-.08593-.05859-.10547-.04296-.10156-.04688-.26954-.17578-.05859-.08985-.07422-.07421-.0586-.08985-.04296-.10156-.03125-.11719-.01563-.13672v-.5625l-.01171-.1328-.01563-.13282-.03125-.11719-.01562-.13281-.01172-.13281-.03125-.1211-.22266-.22265-.0586-.08594-.01562-.10547.03125-.11719.13281-.01562v-91.41406H172.9922v1.45312l-.0586.23438-.35156 1.05078-.17187.52343-.1172.34766-.17577.41016-.11719.17187-.23438.29297-.23046.0586h-.35157l-.11718.05859-.23047.40625v.29297l.11719.17578.23046.23047.1172.23437.64062.75781.29297.46485.17578.23437.23047.35156.23437.34766.64063.8164.17578.46485.17187.41016.11719.69531.17578.46875.11719 1.39844.0586.46484v.875l.11718 1.04688v4.78125l-.0586.46484-.35156 1.28125-.17578.52344-.11328.41015-.35156.9297L172.93359 336l-.23437.58203-.11719.17578-.17187.34766-.17578.40625-.35157.8164-.0586.29297-.11327.29297-.11719.28906-.0586.17579-.11718.875-.0586.40625-.05859.11718-.0586.17579-.05859.17187-.23047.52734-.11718.17188v.23437l-.11719.23438-.0586.17187-.17577.58594v.28906l-.0586.17579v.29296l-.0586.11329-.05859.52734v.17187l-.05468.23438v2.6211l-.17578.8164-.1172.17578-.17577.23438-.1172.17187-.11327.23438-.58594.93359-.23047.28906-.29297.46485-.17578.23437-.28906.35156-.35156.69922-.11328.23047-.17579.41016-.17578.23046-.40625.52735-.8164.69922-.29297.17187-.28906.23438-.17579.11719-.17578.17578-.52344.40625-.52734.17578-.17187.17578-.23438.05469-.64062.17578h-.75782m12.21094 31.02344l-1.07422.44921.35938.89454 1.25-.71485.44531-.53906-.98047-.08985"/><path fill="#d3d3d3" fill-opacity="0" fill-rule="evenodd" d="M201.50781 416.59766h-.89453l.44922.6289.98047.35938.80469-.08985.4453-.98828-.17577.08985-.71485-.35547-.89453.35547m154.6211 59.0703l-.0586-.52343v-.29297l.11328-.29297.0586-.23046.46875-.46875h.11328l.11719-.11329.11718-.05859h.17579l.23437-.0586h.34766l.23437.0586.11719.0586.23047.17187.0586.17578.11718.58203v.29297l-.11719.17578-.17187.28906-.17579.17579-.52734.52343-.23047.23438-.11719.0586h-.17578l-.11718-.0586-.40625-.29297-.17579-.11719-.11718-.0586-.0586-.11327-.05468-.1172m6.64062-10.95702l-.0586-.17188v-1.10937l.0586-.17188.17578-.0586.17188-.05858h.17578l.23437-.0586.1172.0586.05858.69921-.05859.17188-.11719.17578-.11718.0586-.23438.52343-.11328.0586h-.23438l-.05859-.1172m9.61328-14.39062l-.11719-.17578v-.69922l.29297-.875.1172-.17187.17577-.35156.11328-.23047.1172-.29297.35155-.75781.1172-.23047.17187-.23438h.17578l.11719-.0586h.64062l.11719.0586.23437.23438.17188.11328.35156.29297.11719.11718.11328.17579v.11328l.11719.05859.11718.11719v.69922l-.05859.17578v.23047l-.0586.17578-.34765 1.05078-.11719.23047-.11719.23437-.11718.0586-.23047.23437-.64063.28906h-.875l-.41015-.11718-.64063-.46485"/><path fill="none" stroke="#bebebe" stroke-linecap="round" stroke-linejoin="round" stroke-miterlimit="10" stroke-width=".5" d="M467.95703 311.69531H144.02734v168.625h323.9297v-168.625"/><g clip-path="url(#a)"><path fill="#fff" fill-opacity="0" fill-rule="evenodd" d="M144 475.89063v4.4375h.0039H144V311.67188h.0039H144v164.21875"/></g><g clip-path="url(#b)"><path fill="#fff" fill-opacity="0" fill-rule="evenodd" d="M144.0039 480.32813V311.67188h79.88673v108.88671l-4.4375.90625-4.4375-.4414-1.41407 1.60547-3.02734 1.60156-4.4375.3125-4.4375-.36328-4.4375 1.4961-1.73828 1.39452-2.70313 1.30469-4.4375 1.75781-4.16406 1.375-.27344.6289-4.4375 1.52345-3.54687 2.28515-.89453 1.3164-4.4375-.77343-4.4375 2.5625-4.4375-1.01562-2.1836 2.34765-1.60547 4.4375-.64843 2.79688-2.33594 1.64453-1.85938 4.4375.85938 4.4375 3.33594 3.84765.32422.58985 4.11328 2.08203 4.4375-.22266 4.4375-1.13671 4.4375 1.34765 4.4414-.01172 4.4375-.11328 4.4375-1.82031 4.4375.36328 1.05469-.48828 3.38672-1.26563 4.4375-.6289 4.4375-1.2539 3.7539-1.28907.6836-.16406 4.4414-2.08985 4.4375-1.83594.77344-.34765 3.66406-1.3789 4.4375-.6797 2.40625-2.3789 2.03125-2.61328 1.44141-1.82813-1.4414-3.80469-.33985-.6328.33984-.08204 4.44141-.01953.1211.10156 4.3164 3.6875 4.4375-.8711 2.60156-2.8164 1.29688-4.4375-3.89844-3.47265-4.4375-.72657-2.10937-.23828-2.32813-1.41015-2.90234-3.02735-1.41016-4.4414-.1289-.21485-.81641.21485-3.6211.48046-.60937-.48046-3.82813-2.07032V311.67188h31.06641v117.65234l-3.45703 2.1836.25 4.4375 3.20703 2.01952 4.4414.96485 2.80079-2.98438.1289-4.4375-2.92968-2.16015-4.4414-.02344V311.67187h13.3164v119.78125l-.125.0547.125.04296.26953-.04297-.26953-.05469V311.67188h13.3164v120.52735l-3.58203 3.7461 3.58203 3.52734 3.6875-3.52735-3.6875-3.7461V311.67189h71.01172v126.3828l-2.375 2.32813 2.375 2.42188 2.76563-2.42188-2.76563-2.32812V311.67188h17.7539v131.3203l-2.09765 1.82813 1.48047 4.4414.61719 1.41017 4.4375 2.59765 4.4414-2.1836 4.4375 1.16407 2.14454-2.98828 2.29296-3.66016.69922-.78125-.69921-.6875-1.94141.6875-2.4961 1.00781-4.4375 2.42188-4.4414-3.26953-1.38281-.16016-3.0547-1.82812V311.67188h97.64063v168.65625h-64.2578l-2.3125-2.82422-4.44142-1.2461-4.4375-.22656-1.41796-.14063 1.41796-3.28125 1.125-1.15625-1.125-1.66406-1.65625-2.77344-2.78125-1.85546-3.5664-2.58594-.8711-.82031-.48437.8203-.83984 4.44142.5 4.4375.82421 1.6953 1.46094 2.7422-1.46094 1.01171-2.23828 3.42579H144.00391"/></g><path fill="#50fcfc" fill-rule="evenodd" d="M153.98047 458.13672l-.85938-4.4375 1.85938-4.4375 2.33594-1.64453.64843-2.79688 1.60547-4.4375 2.1836-2.34765 4.4375 1.01562v4.21485l-4.3086 1.55468-.1289.3125-.73438 4.1289-2.13672 4.4375 1.1836 4.4375 1.6875 2.10157 4.1289-2.10156-.22265-4.4375-.09375-4.4375.625-.27344 2.86328-4.16797-2.86328-1.55469v-4.21484l4.4375-2.5625 4.4375.77344v19.27734l-3.02735 1.59766 3.02735 1.63672 2.5625-1.63672-2.5625-1.59766v-19.27734l.89453-1.3164 3.54687-2.28516v5.8789l-1.25781.84375.28516 4.4375.97265 1.8125 4.4375-.76562 1.16406-1.04688-1.16406-3.4336-1.3789-1.0039-3.0586-.84375v-5.8789l4.4375-1.52344.27344-.6289 4.16406-1.375v6.5625l-2.16797 3.6875 2.16797.40234.28906-.40235-.28906-3.6875v-6.5625l4.4375-1.75781 2.70313-1.30469 1.73828-1.39453 4.4375-1.4961 4.4375.36329 4.4375-.3125 3.02734-1.60156 1.41406-1.60547 4.4375.4414v3.2461l-2.74218 2.35937-1.69531 4.21094-3.44922-4.21094-.9922-.41406-2.58593.41406-1.85156.21875-1.5586-.21875-2.8789-.53125-1.08203.53125-3.35547 1.22656-4.4414 2.83204-.69141.3789.6914 2.69531v22.02735l-2.07422 1.90625 2.07422.6875 1.46094-.6875-1.46094-1.90625v-22.02735l.26953 1.7422 3.14844 4.4375 1.02344 1.82421 2.0664 2.61328-2.0664 1.90235-2.35547 2.53906 2.35547 3.59765.65625.83985 3.78125 2.89844 4.4375-2.26172 4.4375-.14063.72656-.4961 3.71484-2.43358 2.51563-2.00391 1.92188-2.46875 4.4375-.58594 4.4375-1.3711.0078-.01562-.0078-.01562-2.125-4.42188-.79688-4.4375 2.92188-1.13281 1.44921 1.13281 2.98828 2.6836 4.44141-.76563 2.94531 2.51953 1.4922 1.27344 2.82812-1.27344 1.60937-3.86328.16797-.57422-.16797-.14844-4.4375-1.74218-4.4375-.20703-4.4414-1.78125-.41016-.5586-4.02734-3.52344-4.4375-.60937-.38672-.30469-4.05078-2.35937v-3.2461l4.4375-.90625 3.82812 2.07032.60938.48046 3.62109-.48046.8164-.21485.12891.21485 1.41016 4.4414 2.90234 3.02735 2.32813 1.41015 2.10937.23828 4.4375.72657 3.89844 3.47265-1.29688 4.4375-2.60156 2.8164-4.4375.8711-4.3164-3.6875-.1211-.10156-4.4414.01953-.33985.08203.33984.63281 1.44141 3.8047-1.4414 1.82812-2.03125 2.61328-2.40625 2.3789-4.4375.6797-3.66407 1.3789-.77344.34765-4.4375 1.83594-4.4414 2.08985-.6836.16406-3.7539 1.28906-4.4375 1.2539-4.4375.62891-3.38672 1.26563-1.05469.48828-4.4375-.36328-4.4375 1.82031-4.4375.11328-4.4414.01172-4.4375-1.34765-4.4375 1.13671-4.4375.22266-4.11328-2.08203-.32422-.58985-3.33594-3.84765"/><path fill="#00e8fc" fill-rule="evenodd" d="M160.0664 458.13672l-1.18359-4.4375 2.13672-4.4375.73438-4.1289.1289-.3125 4.3086-1.5547 2.86328 1.5547-2.86328 4.16796-.625.27344.09375 4.4375.22265 4.4375-4.1289 2.10156-1.6875-2.10156m15 1.63672l-3.02735-1.63672 3.02735-1.59766 2.5625 1.59766-2.5625 1.63672"/><path fill="#fff" fill-opacity="0" fill-rule="evenodd" d="M179.50781 439.53906l-1.25781.84375.28516 4.4375.97265 1.8125 4.4375-.76562 1.16406-1.04688-1.16406-3.4336-1.3789-1.0039-3.0586-.84375m8.875-2.84375l-2.16797 3.6875 2.16797.40235.28906-.40235-.28906-3.6875"/><path fill="#00e8fc" fill-rule="evenodd" d="M192.82031 458.82422l-2.07422-.6875 2.07422-1.90625 1.46094 1.90625-1.46094.6875m0-24.6211l-.6914-2.6953.6914-.37891 4.4414-2.83204 3.35548-1.22656 1.08203-.53125v3.08203l-4.4375 1.6172-.40234.26952.40234 1.54297 4.4375 1.48438 4.4375-.26172 2.71094-2.76563-2.71094-1.19922-4.4375-.6875v-3.08203l2.8789.53125 1.5586.21875 1.85156-.21875 2.58594-.41406.99219.41406 3.44922 4.21094 1.6953-4.21094 2.7422-2.35937 4.05078 2.35937.38672.30469 4.4375.60938v2.58593l-2.55079.9375 2.55078.8789 1.07422-.8789-1.07422-.9375v-2.58594l4.02735 3.52344.41016.5586 4.4414 1.78125 4.4375.20703 4.4375 1.74219.16797.14843-.16797.57422-1.60937 3.86328-2.82813 1.27344-1.49219-1.27344-2.9453-2.51953-4.44142.76563-2.98828-2.6836-1.44922-1.13281-2.92187 1.13281.79688 4.4375 2.125 4.42188.0078.01562-.0078.01563-4.4375 1.3711-4.4375.58593-1.92188 2.46875-2.51563 2.0039-3.71484 2.4336-.72656.4961-4.4375.14062-4.4375 2.26172-3.78125-2.89844-.65625-.83985-2.35547-3.59765 2.35547-2.53906 2.0664-1.90235-2.0664-2.61328-1.02344-1.82422-3.14844-4.4375-.26953-1.74219"/><path fill="#00d4fc" fill-rule="evenodd" d="M197.26172 433.05078l-.40234-1.54297.40234-.26953 4.4375-1.61719 4.4375.6875 2.71094 1.19922-2.71094 2.76563-4.4375.26172-4.4375-1.48438m31.0664-.66406l-2.55078-.8789 2.55078-.9375 1.07422.9375-1.07422.8789"/><path fill="#50fcfc" fill-rule="evenodd" d="M251.75 435.94531l-.25-4.4375 3.45703-2.1836 4.4414.02345V435.25l-.66796.69531.66797.29688.27734-.29688-.27734-.69531v-5.90234l2.92969 2.16015-.12891 4.4375-2.80078 2.98438-4.4414-.96485-3.20704-2.01953"/><path fill="#00e8fc" fill-rule="evenodd" d="M259.39844 436.24219l-.66797-.29688.66797-.69531.27734.69531-.27734.29688"/><path fill="#50fcfc" fill-rule="evenodd" d="M268.27344 431.55078l-.125-.04297.125-.05469.26953.0547-.26953.04296m13.3164 7.92188l-3.58203-3.52735 3.58203-3.7461v1.5547l-2.09765 2.1914 2.09765 2.0625 2.15625-2.0625-2.15625-2.1914v-1.5547l3.6875 3.7461-3.6875 3.52735"/><path fill="#00e8fc" fill-rule="evenodd" d="M281.58984 438.00781l-2.09765-2.0625 2.09765-2.1914 2.15625 2.1914-2.15625 2.0625"/><path fill="#50fcfc" fill-rule="evenodd" d="M352.60156 442.80469l-2.375-2.42188 2.375-2.32812 2.76563 2.32812-2.76563 2.42188m17.13672 6.45703l-1.48047-4.4414 2.09766-1.82813 3.05469 1.82812 1.3828.16016v2.04297l-2.4453 2.23828 2.4453 2.09765 2.48829-2.09765-2.48828-2.23828v-2.04297l4.4414 3.26953 4.4375-2.42188 2.4961-1.0078 1.9414-.6875.69922.6875-.69921.78124-2.29297 3.66016-2.14454 2.98828-4.4375-1.16406-4.4414 2.1836-4.4375-2.59767-.61719-1.41015"/><path fill="#00e8fc" fill-rule="evenodd" d="M374.79297 451.35938l-2.44531-2.09766 2.4453-2.23828 2.48829 2.23828-2.48828 2.09765"/><g clip-path="url(#c)"><path fill="#50fcfc" fill-rule="evenodd" d="M382.84766 471.45313l-.5-4.4375.83984-4.44141.48438-.82031.87109.8203 3.5664 2.58595v5.43359l-1.1953.85938 1.1953.4453 1.78907-.4453-1.78906-.85938v-5.4336l2.78125 1.85548 1.65625 2.77343 1.125 1.66406-1.125 1.15625-1.41797 3.28125 1.41796.14063 4.4375.22656 4.44141 1.2461 2.3125 2.82421h-2.96484l-3.78906-2.51562-4.4375-1.04297-4.4375.3086-3.69922 3.25h-2.97657l2.23829-3.42579 1.46093-1.01171-1.46094-2.7422-.82421-1.6953"/></g><path fill="#fff" fill-opacity="0" fill-rule="evenodd" d="M388.10938 470.59375l-1.19532.85938 1.19531.4453 1.78907-.4453-1.78906-.85938"/><g clip-path="url(#d)"><path fill="#00e8fc" fill-rule="evenodd" d="M384.41016 480.32813l3.69921-3.25 4.4375-.3086 4.4375 1.04297 3.78907 2.51563h-3.85938l-4.36719-2.33204-4.36718 2.33204h-3.76953"/></g><g clip-path="url(#e)"><path fill="#00d4fc" fill-rule="evenodd" d="M388.17969 480.32813h2.30078l2.0664-1.10547 2.07032 1.10546h2.29687l-4.36719-2.33203-4.36718 2.33204"/></g><g clip-path="url(#f)"><path fill="#00c4fc" fill-rule="evenodd" d="M390.48047 480.32813l2.0664-1.10547 2.07032 1.10546h-4.13672"/></g><g clip-path="url(#g)"><path fill="#fff" fill-opacity="0" fill-rule="evenodd" d="M467.9961 480.32813H468V311.67188h-.0039H468v168.65625h-.0039"/></g><path fill="#fff" fill-opacity="0" fill-rule="evenodd" d="M244.15625 434.05078l1.61328 5.61328 9.57422-2.75-1.61328-5.61328-9.57422 2.75"/><path fill-rule="evenodd" d="M252.9336 435.16797l.14062.48828-6.05078 1.73828-.21485-.7539 4.3125-1.2422-.3828-1.33202.53515-.15625.21484.52343.1211.22657.15234.1953.1914.15626.25.10937.32032.0547.41015-.00782"/><g clip-path="url(#h)"><path fill="none" stroke="#000" stroke-linecap="round" stroke-linejoin="round" stroke-miterlimit="10" stroke-width=".5" d="M147.5 480.03906l-7 .57813"/></g><g clip-path="url(#i)"><path fill="none" stroke="#000" stroke-linecap="round" stroke-linejoin="round" stroke-miterlimit="10" stroke-width=".5" d="M147.5 480.03906l1.32813 2.0664"/></g><g clip-path="url(#j)"><path fill="none" stroke="#000" stroke-linecap="round" stroke-linejoin="round" stroke-miterlimit="10" stroke-width=".5" d="M146.48438 480.125l.66015 1.03125"/></g><g clip-path="url(#k)"><path fill="none" stroke="#000" stroke-linecap="round" stroke-linejoin="round" stroke-miterlimit="10" stroke-width=".5" d="M160.82031 480.09766l-7.01172.46484"/></g><g clip-path="url(#l)"><path fill="none" stroke="#000" stroke-linecap="round" stroke-linejoin="round" stroke-miterlimit="10" stroke-width=".5" d="M160.82031 480.09766l1.29297 2.08203"/></g><g clip-path="url(#m)"><path fill="none" stroke="#000" stroke-linecap="round" stroke-linejoin="round" stroke-miterlimit="10" stroke-width=".5" d="M159.80078 480.16406l1.29297 2.08594"/></g><g clip-path="url(#n)"><path fill="none" stroke="#000" stroke-linecap="round" stroke-linejoin="round" stroke-miterlimit="10" stroke-width=".5" d="M174.13281 480.07422l-7.00781.50781"/></g><g clip-path="url(#o)"><path fill="none" stroke="#000" stroke-linecap="round" stroke-linejoin="round" stroke-miterlimit="10" stroke-width=".5" d="M174.13281 480.07422l1.3086 2.07812"/></g><g clip-path="url(#p)"><path fill="none" stroke="#000" stroke-linecap="round" stroke-linejoin="round" stroke-miterlimit="10" stroke-width=".5" d="M173.11328 480.14844l1.3086 2.07812"/></g><g clip-path="url(#q)"><path fill="none" stroke="#000" stroke-linecap="round" stroke-linejoin="round" stroke-miterlimit="10" stroke-width=".5" d="M187.4336 479.91797l-6.97657.82422"/></g><g clip-path="url(#r)"><path fill="none" stroke="#000" stroke-linecap="round" stroke-linejoin="round" stroke-miterlimit="10" stroke-width=".5" d="M187.4336 479.91797l1.39843 2.01562"/></g><g clip-path="url(#s)"><path fill="none" stroke="#000" stroke-linecap="round" stroke-linejoin="round" stroke-miterlimit="10" stroke-width=".5" d="M186.41797 480.03516l.69922 1.0078"/></g><g clip-path="url(#t)"><path fill="none" stroke="#000" stroke-linecap="round" stroke-linejoin="round" stroke-miterlimit="10" stroke-width=".5" d="M200.76953 480.1289l-7.01562.39844"/></g><g clip-path="url(#u)"><path fill="none" stroke="#000" stroke-linecap="round" stroke-linejoin="round" stroke-miterlimit="10" stroke-width=".5" d="M200.76953 480.1289l1.27344 2.09766"/></g><g clip-path="url(#v)"><path fill="none" stroke="#000" stroke-linecap="round" stroke-linejoin="round" stroke-miterlimit="10" stroke-width=".5" d="M199.7461 480.1875l.63671 1.04688"/></g><g clip-path="url(#w)"><path fill="none" stroke="#000" stroke-linecap="round" stroke-linejoin="round" stroke-miterlimit="10" stroke-width=".5" d="M214.08594 480.23047l-7.02344.19531"/></g><g clip-path="url(#x)"><path fill="none" stroke="#000" stroke-linecap="round" stroke-linejoin="round" stroke-miterlimit="10" stroke-width=".5" d="M214.08594 480.23047l1.21484 2.13281"/></g><g clip-path="url(#y)"><path fill="none" stroke="#000" stroke-linecap="round" stroke-linejoin="round" stroke-miterlimit="10" stroke-width=".5" d="M213.0664 480.25781l.60548 1.0664"/></g><g clip-path="url(#z)"><path fill="none" stroke="#000" stroke-linecap="round" stroke-linejoin="round" stroke-miterlimit="10" stroke-width=".5" d="M227.40234 480.1836l-7.02343.29296"/></g><g clip-path="url(#A)"><path fill="none" stroke="#000" stroke-linecap="round" stroke-linejoin="round" stroke-miterlimit="10" stroke-width=".5" d="M227.40234 480.1836l1.23828 2.11718"/></g><g clip-path="url(#B)"><path fill="none" stroke="#000" stroke-linecap="round" stroke-linejoin="round" stroke-miterlimit="10" stroke-width=".5" d="M226.3789 480.22656l.6211 1.0586"/></g><g clip-path="url(#C)"><path fill="none" stroke="#000" stroke-linecap="round" stroke-linejoin="round" stroke-miterlimit="10" stroke-width=".5" d="M240.71094 480.10156l-7.01172.45313"/></g><g clip-path="url(#D)"><path fill="none" stroke="#000" stroke-linecap="round" stroke-linejoin="round" stroke-miterlimit="10" stroke-width=".5" d="M240.71094 480.10156L242 482.1875"/></g><g clip-path="url(#E)"><path fill="none" stroke="#000" stroke-linecap="round" stroke-linejoin="round" stroke-miterlimit="10" stroke-width=".5" d="M239.6914 480.16797l.64454 1.04297"/></g><g clip-path="url(#F)"><path fill="none" stroke="#000" stroke-linecap="round" stroke-linejoin="round" stroke-miterlimit="10" stroke-width=".5" d="M254.03516 480.35156l-7.02735-.04297"/></g><g clip-path="url(#G)"><path fill="none" stroke="#000" stroke-linecap="round" stroke-linejoin="round" stroke-miterlimit="10" stroke-width=".5" d="M254.03516 480.35156l1.13672 2.17188"/></g><g clip-path="url(#H)"><path fill="none" stroke="#000" stroke-linecap="round" stroke-linejoin="round" stroke-miterlimit="10" stroke-width=".5" d="M253.01172 480.34375l.57031 1.08594"/></g><g clip-path="url(#I)"><path fill="none" stroke="#000" stroke-linecap="round" stroke-linejoin="round" stroke-miterlimit="10" stroke-width=".5" d="M267.3086 479.80078l-6.94532 1.0586"/></g><g clip-path="url(#J)"><path fill="none" stroke="#000" stroke-linecap="round" stroke-linejoin="round" stroke-miterlimit="10" stroke-width=".5" d="M267.3086 479.80078l1.46484 1.96875"/></g><g clip-path="url(#K)"><path fill="none" stroke="#000" stroke-linecap="round" stroke-linejoin="round" stroke-miterlimit="10" stroke-width=".5" d="M266.29688 479.95313l.73437.98437"/></g><g clip-path="url(#L)"><path fill="none" stroke="#000" stroke-linecap="round" stroke-linejoin="round" stroke-miterlimit="10" stroke-width=".5" d="M280.54688 479.42188l-6.79297 1.8125"/></g><g clip-path="url(#M)"><path fill="none" stroke="#000" stroke-linecap="round" stroke-linejoin="round" stroke-miterlimit="10" stroke-width=".5" d="M280.54688 479.42188l1.67187 1.79687"/></g><g clip-path="url(#N)"><path fill="none" stroke="#000" stroke-linecap="round" stroke-linejoin="round" stroke-miterlimit="10" stroke-width=".5" d="M293.76563 479.1211l-6.60157 2.41406"/></g><g clip-path="url(#O)"><path fill="none" stroke="#000" stroke-linecap="round" stroke-linejoin="round" stroke-miterlimit="10" stroke-width=".5" d="M293.76563 479.1211l1.82421 1.64062"/></g><g clip-path="url(#P)"><path fill="none" stroke="#000" stroke-linecap="round" stroke-linejoin="round" stroke-miterlimit="10" stroke-width=".5" d="M307.13672 479.28516l-6.71094 2.08984"/></g><g clip-path="url(#Q)"><path fill="none" stroke="#000" stroke-linecap="round" stroke-linejoin="round" stroke-miterlimit="10" stroke-width=".5" d="M307.13672 479.28516l1.74219 1.72265"/></g><g clip-path="url(#R)"><path fill="none" stroke="#000" stroke-linecap="round" stroke-linejoin="round" stroke-miterlimit="10" stroke-width=".5" d="M320.59375 479.99219l-6.9961.67187"/></g><g clip-path="url(#S)"><path fill="none" stroke="#000" stroke-linecap="round" stroke-linejoin="round" stroke-miterlimit="10" stroke-width=".5" d="M320.59375 479.99219l1.35547 2.04687"/></g><g clip-path="url(#T)"><path fill="none" stroke="#000" stroke-linecap="round" stroke-linejoin="round" stroke-miterlimit="10" stroke-width=".5" d="M333.89063 480.8086l-6.96094-.96094"/></g><g clip-path="url(#U)"><path fill="none" stroke="#000" stroke-linecap="round" stroke-linejoin="round" stroke-miterlimit="10" stroke-width=".5" d="M332.8789 480.66797l.42188 1.15234"/></g><g clip-path="url(#V)"><path fill="none" stroke="#000" stroke-linecap="round" stroke-linejoin="round" stroke-miterlimit="10" stroke-width=".5" d="M346.73828 482.13281l-6.02734-3.60937"/></g><g clip-path="url(#W)"><path fill="none" stroke="#000" stroke-linecap="round" stroke-linejoin="round" stroke-miterlimit="10" stroke-width=".5" d="M359.27734 483.03906l-4.47265-5.42187"/></g><g clip-path="url(#X)"><path fill="none" stroke="#000" stroke-linecap="round" stroke-linejoin="round" stroke-miterlimit="10" stroke-width=".5" d="M372.04688 483.40625l-3.38282-6.15625"/></g><g clip-path="url(#Y)"><path fill="none" stroke="#000" stroke-linecap="round" stroke-linejoin="round" stroke-miterlimit="10" stroke-width=".5" d="M381.54688 483.125l4.25-5.59375"/></g><g clip-path="url(#Z)"><path fill="none" stroke="#000" stroke-linecap="round" stroke-linejoin="round" stroke-miterlimit="10" stroke-width=".5" d="M393.47266 480.35938l7.02734-.0625"/></g><g clip-path="url(#aa)"><path fill="none" stroke="#000" stroke-linecap="round" stroke-linejoin="round" stroke-miterlimit="10" stroke-width=".5" d="M394.4961 480.35156l-.58594-1.07812"/></g><g clip-path="url(#ab)"><path fill="none" stroke="#000" stroke-linecap="round" stroke-linejoin="round" stroke-miterlimit="10" stroke-width=".5" d="M410.05078 476.82422l.5039 7.00781"/></g><g clip-path="url(#ac)"><path fill="none" stroke="#000" stroke-linecap="round" stroke-linejoin="round" stroke-miterlimit="10" stroke-width=".5" d="M424.64063 480.32813l-.01954-.19922-.05859-.19141-.09766-.17578-.45703-.3789-.1914-.0586-.19922-.01953-.19922.01953-.1914.0586-.46094.3789-.09375.17578-.0586.1914-.01953.19923.01953.19921.0586.19141.09375.17969.46093.375.1914.0586.19923.01952.19922-.01953.1914-.0586.45703-.375.09766-.17968.0586-.1914.01952-.19922"/></g><g clip-path="url(#ad)"><path fill="none" stroke="#000" stroke-linecap="round" stroke-linejoin="round" stroke-miterlimit="10" stroke-width=".5" d="M437.95313 480.32813l-.01954-.19922-.05859-.19141-.09375-.17578-.45703-.3789-.1914-.0586-.20313-.01953-.19922.01953-.1914.0586-.45704.3789-.09375.17578-.0586.1914-.01952.19923.01953.19921.0586.19141.09374.17969.45703.375.1914.0586.19923.01952.20312-.01953.1914-.0586.45704-.375.09375-.17968.0586-.1914.01952-.19922"/></g><g clip-path="url(#ae)"><path fill="none" stroke="#000" stroke-linecap="round" stroke-linejoin="round" stroke-miterlimit="10" stroke-width=".5" d="M447.51563 482.53906l5.46093-4.42187"/></g><g clip-path="url(#af)"><path fill="none" stroke="#000" stroke-linecap="round" stroke-linejoin="round" stroke-miterlimit="10" stroke-width=".5" d="M460.07813 479.8711l6.96875.91796"/></g><g clip-path="url(#ag)"><path fill="none" stroke="#000" stroke-linecap="round" stroke-linejoin="round" stroke-miterlimit="10" stroke-width=".5" d="M147.51172 467.05078l-7.02344-.07422"/></g><path fill="none" stroke="#000" stroke-linecap="round" stroke-linejoin="round" stroke-miterlimit="10" stroke-width=".5" d="M147.51172 467.05078l1.1289 2.17969m-2.14843-2.1914l.5625 1.08984m13.74219-1.58203l-6.96485.93359m6.96484-.9336l1.4297 1.9961m-2.44141-1.85938l1.42968 1.9961m12.875-2.26953l-6.92187 1.20703m6.92187-1.20703l1.50782 1.9375m-2.51172-1.76172l.75.96875m13.5664-1.16407l-6.91406 1.2461m6.91406-1.2461l1.51953 1.9297m-2.52343-1.75l.75781.96484m13.5625-1.13282l-6.91797 1.22266m6.91797-1.22266l1.51172 1.9336m-2.51563-1.7539l.75391.96483m13.60547-.83984l-7 .61328m7-.61328l1.33594 2.0586m-2.35157-1.96876l.66797 1.02735m13.6289-1.39063l-6.92968 1.16016m6.92969-1.16016l1.4961 1.94532m-2.50391-1.77735l.74609.97266m13.55469-1.26953l-6.88281 1.41797m6.8828-1.41797l1.5625 1.89062m-2.5664-1.6836l.78516.94532m13.47656-1.38281l-6.76953 1.8789m6.76953-1.8789l1.6914 1.77734m-2.67577-1.5039l.84375.88671m13.42968-1.25l-6.71875 2.0586m6.71875-2.0586l1.73438 1.73438m-2.71094-1.4336l.86719.8672m13.28906-1.53516l-6.44922 2.79297m6.44922-2.79297l1.91797 1.53125m-2.85547-1.125l.95703.76562m13.01953-1.6875l-5.89453 3.82422m5.89453-3.82422l2.14453 1.1875m-3.0039-.63281l1.07422.59375m13.1289-1.10156l-5.95703 3.73047m5.95703-3.73047l2.1289 1.22656m-2.99218-.6836l1.0625.61329m13.33594-.75l-6.39453 2.91797m6.39453-2.91797l1.94531 1.49218m11.4336-1.33984l-6.52344 2.61328m6.52344-2.61328l1.875 1.58203m11.1914-2.08594l-6.02344 3.6211m6.02344-3.6211l2.10156 1.26563m10.44532-2.16016l-4.48828 5.41016m3.83593-4.6211l1.19922.2461m8.72266-1.34766l3.60156 6.03516m8.24219-1.74219l6.54687-2.55078m-5.59375 2.17969l-.92968-.80078m13.83984-2.32422l5.44922 4.4414m-4.65625-3.79687l.23828-1.20313m13.99219-.58203l2.03515 6.72266m14.15625-6.34375l-3.71875 5.96484m3.17578-5.09765l1.22657.08593m10.43359-1.46875l.67578 6.9961m-.57812-5.97656l1.02343-.6797m10.66016.1836l3.74219 5.94922m-3.19531-5.08203l.60937-1.0664m15.50781-.01563l-2.95312 6.3789"/><g clip-path="url(#ah)"><path fill="none" stroke="#000" stroke-linecap="round" stroke-linejoin="round" stroke-miterlimit="10" stroke-width=".5" d="M147.51172 453.5625l-7.02344.27344"/></g><path fill="none" stroke="#000" stroke-linecap="round" stroke-linejoin="round" stroke-miterlimit="10" stroke-width=".5" d="M147.51172 453.5625l1.23437 2.1211m-2.2578-2.08204l.61718 1.0586m13.70703-1.29688l-6.9961.67188m6.9961-.67188l1.35547 2.04297m-2.375-1.94531l.67969 1.02343m13.64843-1.1953l-6.98047.8203m6.98047-.8203l1.39453 2.01952m11.88282-2.2539l-6.90625 1.28515m6.90625-1.28515l1.53125 1.92187m11.83594-1.52344l-7.01172.4922m7.01172-.4922l1.30078 2.08204m11.99218-1.3711l-6.96484-.92969m5.94922.79297l.42969 1.15235m13.72265-2.66797l-6.60937 2.375m6.60937-2.375l1.82031 1.64844m11.4922-1.66797l-6.60157 2.41015m6.60156-2.41015l1.82422 1.64062m-2.78516-1.28906l.91016.82031m13.34766-1.21484l-6.5664 2.5m6.5664-2.5l1.84765 1.61719m-2.80468-1.25391l.92578.8086m13.16015-1.58204l-6.1953 3.3164m6.1953-3.3164l2.03907 1.36719m-2.94141-.88281l1.01953.6836m13.10547-1.32813l-6.01172 3.64062m6.01172-3.64062l2.10938 1.2578m-2.98438-.72655l1.05469.625m13.14453-1.14063L287.44922 455.5m6.03125-3.60547l2.10156 1.26953m-2.97656-.74219l1.04687.63282m13.16797-1.1211l-6.07812 3.53125m6.07812-3.53125l2.08203 1.29297m-2.96875-.78125l1.04297.64844m13.07422-1.29688l-5.91016 3.8047m5.91016-3.8047l2.14063 1.19922m-3-.64453l1.0703.59766m12.88282-1.46094l-5.46484 4.41797m5.46484-4.41797l2.25781.96094m-3.05468-.3164l1.1289.48046m12.53906-1.58203l-4.57812 5.33203m4.57812-5.33203l2.39454.53906m9.9453-1.1289l-2.6289 6.51562m2.6289-6.51562l2.4375-.26172m8.51563.16406l2.09375 6.70703m-1.78906-5.73047l.86328-.8711m11.90235-.01562l2.58593 6.53125m-2.21093-5.58203l.79687-.9336m12.48047-.1328l1.91016 6.76171m-1.63282-5.77734l.88672-.84765m16.45313 2.17187l-6.6914 2.14844m5.71483-1.83594l.88282.85547m12.73828-2.3711l-5.35156 4.55079m4.57421-3.88672l1.14063.45312m8.47266-1.85937l3.60156 6.03515m-3.07422-5.15625l.63281-1.05078m10.9336 1.40235l6.04687 3.57812m-5.16797-3.0586l.05469-1.22265m15.20703-1.01562l.39453 7.01562m-.33594-5.9961l1.04688-.63671"/><g clip-path="url(#ai)"><path fill="none" stroke="#000" stroke-linecap="round" stroke-linejoin="round" stroke-miterlimit="10" stroke-width=".5" d="M147.48438 440.83594l-6.96875-.90625"/></g><path fill="none" stroke="#000" stroke-linecap="round" stroke-linejoin="round" stroke-miterlimit="10" stroke-width=".5" d="M147.48438 440.83594l.86328 2.29687m-1.87891-2.42969l.4336 1.14844m13.89452-.98437l-6.96093-.96875m6.96094.96875l.83984 2.30469m-1.85547-2.44532l.42188 1.15235m13.9414-1.41016l-7.02734-.16797m7.02734.16797l1.09766 2.1914m12.11719-3.10546l-6.82813 1.65625m6.82813-1.65625l1.6289 1.83594m11.42188-2.5625l-6.30078 3.10937m5.3828-2.65625l.9961.71484m13.39063-.80859l-6.60938 2.39063m5.64844-2.04297l.91016.82422m13.54296.51562l-6.96093-.98047m5.9453.83594l.42188 1.15234m13.29688-3.52734l-5.73828 4.05469m4.90625-3.46485l1.09375.55469m11.875-2.19531l-3.38281 6.15625m3.3828-6.15625l2.45704.03515m12.1836 1.2422l-6.03126 3.60546m6.03125-3.60547l2.10156 1.26563m10.92579-1.6797l-5.45703 4.4297m5.45703-4.4297l2.2578.95704m10.89845-1.13672l-5.14063 4.79297m5.14063-4.79297l2.3203.79688m11.34376-.35938l-5.83594 3.91406m5.83594-3.91406l2.16406 1.16016m-3.01172-.58985l1.07813.57813m13.05078-1.19531l-5.76953 4.01172m5.76953-4.01172l2.1836 1.11718m10.6914-1.63671l-4.88672 5.05078m4.88672-5.05078l2.35547.67578m10.4375-1.09375l-3.84766 5.8828m3.84766-5.8828l2.44531.22265m9.55078-.74218l-1.20703 6.92187m1.20703-6.92187l2.33203-.76172m9.19922.91406l2.35938 6.61719m-2.35938-6.6172l1.65235-1.8125m9.52343 3.96876l6.63672 2.3086m-5.67187-1.97266l-.1875-1.21485m18.8828.2461l-6.05077 3.5703m5.17187-3.05077l1.04688.64062m13.28125-.91406l-6.32031 3.07813m5.40234-2.62891l.98828.72266m13.59375.15625l-7.01562.42187m7.01562-.42187l1.27734 2.09375m11.73829-3.3125l-6.41797 2.85937m6.41797-2.85937l1.93359 1.51171m11.57422-.95312l-6.80469 1.74219m5.8164-1.48828l.82813.90625m13.48828-1.1172l-6.82812 1.65626m5.83594-1.41406l.8125.91796"/><g clip-path="url(#aj)"><path fill="none" stroke="#000" stroke-linecap="round" stroke-linejoin="round" stroke-miterlimit="10" stroke-width=".5" d="M147.51172 426.98438l-7.02344.16796"/></g><path fill="none" stroke="#000" stroke-linecap="round" stroke-linejoin="round" stroke-miterlimit="10" stroke-width=".5" d="M147.51172 426.98438l1.20312 2.14062m-2.22265-2.11719l.60156 1.07031m13.73438-.92187l-7.02735-.17578m7.02734.17578l1.09766 2.19531m-2.1211-2.21875l.55079 1.09375M174.14453 427l-7.02734.13672M174.14453 427l1.1914 2.14453m-2.21484-2.125l.59766 1.07422m13.70703-1.51563l-6.96094.98047m6.96094-.98047l1.4414 1.98438m11.83595-2.1875l-6.88672 1.38672m5.88672-1.1836l.77734.94532m13.42969-1.5664l-6.66797 2.22265m5.69531-1.89844l.89063.84375m10.26562-3.5625l-.40625 7.01563m.34766-5.9961l1.11328-.51172m15.48437 2.21875l-6.85156 1.5586m5.85156-1.33203l.80469.92968m13.53906-1.01953l-6.91015 1.28516m5.90234-1.09766l.76563.96094m13.46484-1.51563l-6.72656 2.02344m5.75-1.73047l.86328.8711m12.57812-2.60938l-5.02734 4.91016m4.29687-4.19531l1.16797.375m12.72656-1.23829l-4.72265 5.20704m4.03515-4.44922l1.1875.30078m13.94141 1.1211l-6.97656.84765m5.96094-.72656l.70312 1.0078m11.27735-4.02734l-2.27735 6.64844m2.27735-6.64844l2.42187-.39062m12.13281 1.1289l-4.75781 5.16797m4.75781-5.16796l2.375.61718m-3.0664.13282l1.1875.3125m13.33984-.46094l-5.79688 3.96484m5.79688-3.96484l2.17578 1.13672m11.24219-.98047l-6.0039 3.65234m6.0039-3.65234l2.10937 1.2539m10.69532-1.90234l-4.98438 4.94922m4.98438-4.94922l2.34375.72656m10.42968-1.17578l-3.89843 5.84766m3.89843-5.84766l2.44141.24219m12.41406 2.26953l-6.98047.82422m6.98047-.82422l1.39844 2.01563m11.91406-2.03516l-6.97656.86328m6.97656-.86328l1.41016 2.00781m11.1289-3.8086l-5.42578 4.46485m5.42579-4.46484l2.26953.9414m-3.0586-.29296l1.13281.47265m13.08985-.97265l-5.66016 4.16796m5.66016-4.16796l2.21094 1.0625m10.33984-1.82032l-4.13281 5.6836m4.13281-5.6836l2.42969.33985m12.27344 1.85937l-6.91016 1.28516"/><g clip-path="url(#ak)"><path fill="none" stroke="#000" stroke-linecap="round" stroke-linejoin="round" stroke-miterlimit="10" stroke-width=".5" d="M467.01563 426.42578l1.52734 1.92188"/></g><g clip-path="url(#al)"><path fill="none" stroke="#000" stroke-linecap="round" stroke-linejoin="round" stroke-miterlimit="10" stroke-width=".5" d="M147.47266 413.21484l-6.94532 1.07422"/></g><path fill="none" stroke="#000" stroke-linecap="round" stroke-linejoin="round" stroke-miterlimit="10" stroke-width=".5" d="M147.47266 413.21484l1.46875 1.96485m11.67578-2.625l-6.60547 2.39843m6.60547-2.39843l1.82422 1.64062M173.5 411.72266l-5.73828 4.05859m5.73828-4.0586l2.1914 1.10547m10.38282-1.87109l-4.25781 5.59375m3.63672-4.78125l1.21093.19922m12.1875-1.34766l-3.1836 6.26563m2.71876-5.35547l1.22656-.02344m7.47266 2.66016l6.98047-.82813m12.54687-1.80468l-5.44922 4.4375m4.65625-3.79297l1.13281.47656m13.6836.33203l-6.85938 1.53125m6.85938-1.53125l1.59375 1.86328m11.78516-1.47265l-6.98829.75m6.98828-.75l1.375 2.03125m11.81641-2.64063l-6.7461 1.96875m6.7461-1.96875l1.71485 1.75781m11.35937-2.37109l-6.26172 3.19531m6.26172-3.19531l2.01172 1.40625m11.45312-1.0664l-6.5625 2.51562m5.60938-2.14844l.92578.80469m13.42578-.92969l-6.72656 2.03125m5.7461-1.73437l.86718.86718m13.44531-1.11328l-6.75781 1.92969m5.77344-1.64844l.85156.88281m13.33203-1.5l-6.53125 2.59766m5.58203-2.21875l.9336.79297m13.57812.03516l-7.02344.1875m7.02344-.1875l1.21094 2.1328m12.07422-2.5l-6.96485.91798m6.96485-.91797l1.42578 2m-2.4375-1.86328l.71094.9961m13.45312-1.82032l-6.64062 2.29687m6.64062-2.29687l1.79688 1.67187m-2.76172-1.33593l.89843.83593m12.77344-2.2578l-5.42578 4.46483m5.42578-4.46484l2.26953.9414m-3.05859-.28906l1.13281.46875m12.79297-1.3203l-5.0664 4.86718m5.0664-4.86719l2.33203.76172m-3.07031-.05469l1.16797.38282m12.9961-.96875l-5.28907 4.625m5.28906-4.625l2.29297.87109m-3.0625-.19922l1.14844.4375m12.77734-1.28125l-4.96875 4.96875m4.96875-4.96875l2.34766.71875m10.90234-.78516l-4.83984 5.09766m4.83984-5.09766l2.36328.65625m10.72657-.84765l-4.39063 5.48437m4.39063-5.48437l2.41406.45703m10.47265-.75l-3.53515 6.07031"/><g clip-path="url(#am)"><path fill="none" stroke="#000" stroke-linecap="round" stroke-linejoin="round" stroke-miterlimit="10" stroke-width=".5" d="M465.32813 410.71875l2.45312.09375"/></g><g clip-path="url(#an)"><path fill="none" stroke="#000" stroke-linecap="round" stroke-linejoin="round" stroke-miterlimit="10" stroke-width=".5" d="M147.34375 399.36719l-6.6875 2.14453"/></g><path fill="none" stroke="#000" stroke-linecap="round" stroke-linejoin="round" stroke-miterlimit="10" stroke-width=".5" d="M147.34375 399.36719l1.76172 1.71094m10.6836-3.13282l-4.94923 4.98828m4.94922-4.98828l2.34766.70703m9.89844-1.43359l-2.8125 6.4414m2.8125-6.4414l2.4453-.1914m10.03907-.0547l-1.14844 6.9336m1.14844-6.9336l2.32422-.78515m8.83594 1.11328l3.16406 6.27344m-2.70703-5.35938l.71094-1.0039m10.21875 3.40234l7.01953-.34765m-6 .29687l-.6289-1.05469m19.92577 1.32422l-6.98437-.78906m5.96875.67578l.44922 1.14063m13.89453-1.67188l-7.01172.5039m7.01172-.5039l1.30469 2.07813m12.0078-2.10547l-7.0039.55859m7.0039-.5586l1.32032 2.06641m11.98047-2.19531l-6.98047.8125m6.98047-.8125l1.39453 2.01953m11.8086-2.58594l-6.75391 1.94922m6.7539-1.94922l1.70703 1.76172m11.66407-1.54297l-6.86328 1.50782m6.86328-1.50782l1.58984 1.8672m11.70703-1.9336l-6.83203 1.64453m5.83985-1.40625l.8125.91797m13.59375-.23828l-7.02735-.19532m7.02735.19532l1.08984 2.19921m12.21484-2.58593l-7.0039.58203m7.0039-.58203l1.32813 2.0625m11.99219-1.5586l-7.01563-.42968m7.01563.42968l1.01562 2.23438m12.22266-3.19922l-6.86328 1.5m5.86718-1.28125l.79297.9375m12.76172-2.6836l-5.34766 4.5586m5.34766-4.5586l2.28125.89844m11.05078-.8789l-5.38281 4.51562m5.38281-4.51562l2.27344.92187m-3.05469-.26172l1.13672.45704m12.76563-1.33204l-4.9961 4.94532m4.9961-4.94532l2.33984.73047m11.41406-.1875l-5.875 3.85938m5.875-3.85938l2.15235 1.17969m10.59375-1.84375l-4.73438 5.1914m4.73438-5.1914l2.375.60938m10.49218-.95704l-3.83984 5.88282m3.83984-5.88282l2.44532.21875m11.57812.39063l-5.2539 4.66797m5.2539-4.66797l2.29688.85547m10.91015-.97266l-5.03906 4.89844"/><g clip-path="url(#ao)"><path fill="none" stroke="#000" stroke-linecap="round" stroke-linejoin="round" stroke-miterlimit="10" stroke-width=".5" d="M466.08203 397.98828l2.33594.7539"/></g><g clip-path="url(#ap)"><path fill="none" stroke="#000" stroke-linecap="round" stroke-linejoin="round" stroke-miterlimit="10" stroke-width=".5" d="M147.29297 385.89453l-6.58594 2.45703"/></g><path fill="none" stroke="#000" stroke-linecap="round" stroke-linejoin="round" stroke-miterlimit="10" stroke-width=".5" d="M147.29297 385.89453l1.83594 1.625m10.96875-2.54297l-5.5625 4.29297m5.5625-4.29297l2.23437 1.01172m10.75781-1.375l-4.91797 5.01953m4.91797-5.01953l2.35157.69531m10.22265-1.25l-3.4414 6.12891m3.4414-6.1289l2.45313.05859m-2.95313.83594l1.22656.02734m12.28907-1.07031l-2.83594 6.42578m2.42188-5.49219l1.22265-.08984m14.50781 3.16406l-6.84375-1.58985m6.84375 1.58985l.63282 2.3711m12.49218-1.78516l-6.46093-2.76172m6.46093 2.76172l.20703 2.4453m13.26172-2.8789l-6.76953-1.89453m6.76953 1.89453l.52344 2.39844m12.90234-3.0039l-6.99218-.6836m6.99219.6836l.9375 2.26562M253 387.36328l.46875 1.13672m13.83984-.85547l-6.94922-1.04297m6.94922 1.04297l.82032 2.3125m-1.82813-2.46484l.40625 1.15625m13.9375-1.16797l-6.98828-.71485m6.98828.71485l.92578 2.27344m-1.9414-2.37891l.46484 1.13672m13.88672-1.33594l-7.02735-.10547m7.02735.10547l1.11719 2.1836m-2.14063-2.19922l.5586 1.08984m13.77734-1.25781l-7.02344.26562m7.02344-.26562l1.23047 2.1211m-2.2539-2.08595l.61718 1.0625m13.71094-1.27343l-7 .61718m7-.61718l1.33593 2.05468m-2.35546-1.96484l.66796 1.02734m13.59766-1.5625l-6.86328 1.50391m6.86328-1.5039l1.58984 1.87109m11.4375-2.6836l-6.28906 3.12891m5.375-2.67188l.9961.71094m13.33593-.94531l-6.4961 2.6836m6.4961-2.6836l1.89063 1.5586m11.33984-1.75l-6.32422 3.0664m6.32422-3.0664l1.98047 1.44921m-2.90234-1.0039l.99218.72656m12.71094-1.96875l-5.25781 4.66015m5.25781-4.66015l2.29688.85547m11.0039-.8711l-5.23047 4.69141m5.23047-4.6914l2.30469.83984m-3.0664-.15625l1.15234.41797m12.85156-1.1836l-5.08203 4.85547m5.08203-4.85547l2.32813.77344m10.32812-1.3125l-3.76953 5.9336m3.76953-5.9336l2.44922.1914m10.99219-.10546l-4.01954 5.76172m4.01954-5.76172l2.4375.29687m11.33203.07813l-4.92969 5.01172m4.92969-5.01172l2.35156.69922m11.66797.28906l-6.33985 3.03515"/><g clip-path="url(#aq)"><path fill="none" stroke="#000" stroke-linecap="round" stroke-linejoin="round" stroke-miterlimit="10" stroke-width=".5" d="M466.73047 385.60547l1.97656 1.46094"/></g><g clip-path="url(#ar)"><path fill="none" stroke="#000" stroke-linecap="round" stroke-linejoin="round" stroke-miterlimit="10" stroke-width=".5" d="M147.51172 373.67969l-7.02344.25781"/></g><path fill="none" stroke="#000" stroke-linecap="round" stroke-linejoin="round" stroke-miterlimit="10" stroke-width=".5" d="M146.48828 373.71875l.61719 1.0625m13.15234-2.89453l-5.88281 3.84375m5.88281-3.84375l2.14844 1.1836m10.36328-2.05079l-4.27734 5.57813m4.27734-5.57813l2.41797.40625m10.34375-.7539l-3.17188 6.27343m3.17188-6.27344l2.45313-.05078m11.64453.59375l-4.73828 5.1875m4.05078-4.43359l1.1875.30469m13.8164 2.52344l-6.74219-1.97657m6.7422 1.97656l.5 2.40235m12.76562-2.23828l-6.64063-2.30469m6.64063 2.30469l.3789 2.42187m-1.34765-2.75781l.1914 1.21094m13.91016-.44531l-6.27734-3.16407m6.27734 3.16406l.05078 2.45313m-.96484-2.91406l.02734 1.22656m14.36328-1.13672l-6.59765-2.42187m6.59765 2.42187l.33203 2.42969m-1.29297-2.78125l.16797 1.21484m14.26953-1.47656l-6.92187-1.19922m6.92188 1.19922l.76562 2.33203m-1.77344-2.5039l.38281 1.16406m13.9375-.96875l-6.91796-1.24219m6.91797 1.24219l.75 2.33594m-1.75782-2.51563l.375 1.16797m13.98438-1.2461l-6.98828-.72656m6.98828.72656l.92187 2.27344m-1.9375-2.3789l.46094 1.13671m13.88672-1.49609l-7.02344.20313m7.02344-.20313l1.21484 2.13281m-2.23828-2.10546l.60938 1.0664m13.71093-1.3789l-6.98437.77343m6.98437-.77344l1.38282 2.02735m-2.40235-1.91406l.6914 1.01171m13.58595-1.46875l-6.875 1.46094m6.875-1.46094l1.57812 1.88282m-2.57812-1.66797l.78906.9375m13.47656-1.35156l-6.77344 1.85937m6.77344-1.85937l1.6836 1.78125m-2.66797-1.51172l.83984.89062m13.4336-1.25l-6.72266 2.03906m6.72265-2.03906l1.73047 1.74219m-2.70703-1.44531l.86328.8711m13.39063-1.29298l-6.64453 2.28906m6.64453-2.28906l1.79297 1.67188m-2.76172-1.33985l.89844.83594m13-1.94922l-5.87891 3.84766m5.8789-3.84766l2.15235 1.1836m-3.00781-.6211l1.07812.58985m12.8086-1.52735l-5.3086 4.60156m5.3086-4.60156l2.28906.88281m-3.0586-.21484l1.14454.44531m12.71093-1.35546l-4.85156 5.08593m4.85156-5.08594l2.36328.66407m-3.0703.07812l1.18359.32813m12.78515-1.1211l-4.74219 5.1875m4.7422-5.1875l2.375.61329m-3.06641.14062l1.1875.3086m12.64843-1.20704l-4.40234 5.47656m4.40234-5.47656l2.41016.46094m-3.05078.33594l1.20703.23047m13.04297-.76563l-4.98828 4.95313m4.98828-4.95313l2.34375.72656m11.21094-.45312l-5.47266 4.40625"/><g clip-path="url(#as)"><path fill="none" stroke="#000" stroke-linecap="round" stroke-linejoin="round" stroke-miterlimit="10" stroke-width=".5" d="M466.29688 371.60547l2.2578.96484"/></g><g clip-path="url(#at)"><path fill="none" stroke="#000" stroke-linecap="round" stroke-linejoin="round" stroke-miterlimit="10" stroke-width=".5" d="M145.5625 363.64063l-3.125-6.29297"/></g><path fill="none" stroke="#000" stroke-linecap="round" stroke-linejoin="round" stroke-miterlimit="10" stroke-width=".5" d="M160.4961 359l-6.36329 2.98828m18.75781-4.1836l-4.52343 5.37891m4.52344-5.3789l2.39843.51172m10.65235-.71485l-3.9922 5.78125m3.9922-5.78125l2.4375.28516m12.15234 1.32812l-6.54297 2.5547m6.54297-2.5547l1.86328 1.59766m10.75 2.07422l-5.14062-4.78906m5.14062 4.78906l-.63281 2.3711m14.35937-2.90235l-5.96093-3.72266m5.96093 3.72266l-.17187 2.44531m-.69531-2.98828l-.08594 1.22266m14.42969-.96875l-6.28516-3.14844m6.28516 3.14844l.05859 2.45312m-.97266-2.91015l.02735 1.22656m14.29687-.98047l-6.47656-2.72656m6.47656 2.72656l.22266 2.44531m-1.16406-2.83984l.10937 1.21875m14.38281-1.66406l-6.94922-1.04297m6.94922 1.04296l.82032 2.3125m12.51953-2.49609l-6.9961-.67578m6.9961.67578l.9375 2.26563m-1.95703-2.36329l.46875 1.13282m13.87109-1.08985l-7.0039-.5703m7.0039.5703l.97266 2.25391m-1.9922-2.33594l.48438 1.125m13.85938-1.47656l-7.02344.29688m7.02344-.29688l1.24219 2.11719m-2.26563-2.07422l.6211 1.0586m13.66015-1.59766l-6.91016 1.29296m6.91016-1.29296l1.53125 1.91796m-2.53906-1.73046l.76562.95703m13.46875-1.5l-6.73437 2.0039m6.73437-2.0039l1.72266 1.7461m11.6836-1.375l-6.91407 1.26171m6.91406-1.26172l1.51953 1.92578m-2.52734-1.74219l.76172.96094m13.4961-1.4336l-6.78516 1.83985m6.78515-1.83984l1.67578 1.78515m-2.66406-1.51953l.83985.89454m13.40625-1.34375l-6.67188 2.20703m6.67188-2.20704l1.77343 1.69532m-2.74218-1.375l.88671.84765m13.14063-1.7578l-6.16016 3.3828m6.16016-3.3828l2.05469 1.34374m-2.94922-.85156l1.02734.67187m12.96875-1.5039l-5.73047 4.0625m5.73047-4.0625l2.19531 1.10156m-3.02734-.51172l1.09375.55078m13.0039-1.21094l-5.6328 4.20313m5.6328-4.20313l2.21876 1.05079m-3.03907-.4375l1.10938.52343m13.07422-1.0703l-5.72656 4.07421m5.72656-4.07422l2.1914 1.09375m-3.02734-.5039l1.09766.55078m13.0039-1.20704l-5.6289 4.20704m5.6289-4.20704l2.21875 1.04297M438.92578 359l1.10938.52344m12.86328-1.33594l-5.30469 4.60938m5.30469-4.60938l2.29297.88281m-3.0625-.21094l1.14453.44141m12.875-1.1836l-5.17578 4.75391"/><g clip-path="url(#au)"><path fill="none" stroke="#000" stroke-linecap="round" stroke-linejoin="round" stroke-miterlimit="10" stroke-width=".5" d="M466.14844 358.11719l2.3164.8164"/></g><g clip-path="url(#av)"><path fill="none" stroke="#000" stroke-linecap="round" stroke-linejoin="round" stroke-miterlimit="10" stroke-width=".5" d="M140.9961 349.0039l6.0078-3.64843"/></g><path fill="none" stroke="#000" stroke-linecap="round" stroke-linejoin="round" stroke-miterlimit="10" stroke-width=".5" d="M153.85938 346.54297l6.91015 1.26953m-5.90625-1.08203l-.3711-1.17188m15.89454-1.88671l.48828 7.01171m15.03906-6.41406l-3.9375 5.8164m3.9375-5.8164l2.4414.26172m12.22657 1.5039l-6.64453 2.28516m6.64453-2.28515l1.79297 1.67578m10.5586 2.07422l-4.71485-5.21094m4.71484 5.21094l-.83593 2.30468m14.6328-2.84375l-5.67968-4.1328m5.67969 4.1328l-.33984 2.4297m13.6914-2.48438l-5.7539-4.02735m5.7539 4.02735l-.29687 2.4375m-.53907-3.02344l-.14843 1.21875m14.4414-.84766L247.5 345.37891m6.03906 3.59765l-.11719 2.44922m13.83985-3.47656l-6.85547-1.54297m6.85547 1.54297l.64844 2.36719m12.74218-2.82813l-7-.6211m7 .6211l.95313 2.25781m12.30469-1.87109l-6.88672-1.39453m6.88672 1.39453l.69921 2.35156m-1.70312-2.55469l.35156 1.17579m14.01953-1.3086l-6.99218-.72265m6.99218.72265l.92188 2.27344m-1.9414-2.3789l.46484 1.13671m13.85546-1.85156l-6.96484.91797m6.96484-.91797l1.42579 2m-2.4375-1.86719l.71093 1m13.47657-1.7539l-6.6875 2.16406m6.6875-2.16406l1.76171 1.70312m-2.73437-1.39062l.88281.85546m13.4961-.83593l-6.8672 1.4961m6.8672-1.4961l1.58593 1.875m-2.58593-1.65625l.79296.9375m13.60157-.42969l-7.02735.04688m7.02735-.04688l1.16797 2.15625m-2.19141-2.15234l.58594 1.08203m13.6836-1.7539l-6.89063 1.3789m6.89062-1.3789l1.55469 1.89843m-2.55469-1.69531l1.55078 1.89843m12.35156-3.18359l-6.0664 3.54297m6.0664-3.54297l2.08985 1.28906m-2.97266-.77344l2.08985 1.28907m11.6953-2.3711l-5.23827 4.6797m5.23828-4.6797l2.30469.84766m-3.06641-.16797l1.15234.42578m13.16016-.8164l-5.70703 4.09765m5.70703-4.09765l2.19922 1.08593m-3.03125-.48828l1.10156.54297m13.29688-.73437l-6.21094 3.28515m6.21094-3.28515l2.03125 1.375m-2.9336-.89844l1.01563.6914m13.19531-1.17578l-6.19922 3.3047m6.19922-3.3047l2.03516 1.3672m-2.9375-.88673l1.01953.6836m13.14062-1.27344l-6.08594 3.51953m6.08594-3.51953l2.08203 1.30078m-2.96875-.78906l1.04297.65234m13.28516-.92578l-6.33594 3.04297"/><g clip-path="url(#aw)"><path fill="none" stroke="#000" stroke-linecap="round" stroke-linejoin="round" stroke-miterlimit="10" stroke-width=".5" d="M466.73047 345.65625l1.97656 1.45703"/></g><path fill="none" stroke="#000" stroke-linecap="round" stroke-linejoin="round" stroke-miterlimit="10" stroke-width=".5" d="M465.8086 346.10156l.98827.72656"/><g clip-path="url(#ax)"><path fill="none" stroke="#000" stroke-linecap="round" stroke-linejoin="round" stroke-miterlimit="10" stroke-width=".5" d="M140.70313 335.07422l6.59375-2.42578"/></g><path fill="none" stroke="#000" stroke-linecap="round" stroke-linejoin="round" stroke-miterlimit="10" stroke-width=".5" d="M154.01563 335.07031l6.59765-2.41406m-5.63672 2.0625l-.91406-.82031m15.625 3.34765l1.88672-6.76953m15.59375 1.98438l-6.44531 2.80469m5.5078-2.39454l.96095.76172m13.54687.73828l-6.95312-1.01562m5.9414.86719l.41406 1.15625m13.21875.6289l-5.5664-4.28906m5.5664 4.28906l-.41015 2.41797m-.40234-3.04297l-.20313 1.21094m13.7539.0039l-4.41406-5.46874m4.41407 5.46875l-.96094 2.2578m.32031-3.05468l-.48437 1.1289m14.61328-.48437l-4.76172-5.16406m4.76172 5.16406l-.8086 2.3164m.1172-3.0664l-.40626 1.15625m14.92188-.99219l-5.78125-3.99218m5.78125 3.99219l-.28125 2.4375m-.5586-3.01954l-.14062 1.21875m14.625-1.22265l-6.4375-2.82031m6.4375 2.8203l.1836 2.44532m-1.1211-2.85547l.09375 1.22266m14.32422-1.27735l-6.76953-1.89453m6.76953 1.89453l.52343 2.39844m-1.5078-2.67187l.26171 1.19921m14.09766-1.17578l-6.88672-1.39062m6.88672 1.39062l.69921 2.35157m-1.70312-2.5547l.35156 1.17579m14.0039-1.20313l-6.96483-.92968m6.96484.92969l.85547 2.30078m12.49219-2.80079l-7.02735.07032m7.02735-.07031l1.17578 2.15234m-2.19922-2.14453l.58984 1.07812m13.67969-1.73828l-6.89063 1.375m6.89063-1.375l1.55469 1.89844m-2.5547-1.69922l.77735.94922m13.57813-.91406l-6.96875.90625m6.96875-.90625l1.42187 1.99609m11.91406-1.78906l-7.01171.49219m7.01171-.4922l1.30079 2.07813m11.88671-2.79687l-6.7578 1.92969m6.7578-1.9297l1.70313 1.76563m-2.6875-1.48437l.85156.88281m12.73047-2.4961l-5.32031 4.59376m5.32031-4.59375l2.28516.88671m-3.0625-.21875l2.28906.88672m11.39063-1.95703l-4.4961 5.39844m4.4961-5.39844l2.40234.5m-3.05469.28516l1.19922.25m12.59375-1.17188l-4.14844 5.67188m4.14844-5.67188l2.42969.34766m11.78906.6211l-5.95313 3.73437m5.95313-3.73438l2.125 1.22657m11.2539-1.1211l-6.08202 3.52344m6.08203-3.52344l2.08203 1.29297m-2.96875-.78125l1.04297.64844m13.08203-1.28516l-5.92578 3.77344m5.92578-3.77344l2.13281 1.20703m-2.9961-.66015l1.06641.60547m13.17969-1.04297l-6.0625 3.55469"/><g clip-path="url(#ay)"><path fill="none" stroke="#000" stroke-linecap="round" stroke-linejoin="round" stroke-miterlimit="10" stroke-width=".5" d="M466.59375 332.08594l2.08984 1.28515"/></g><path fill="none" stroke="#000" stroke-linecap="round" stroke-linejoin="round" stroke-miterlimit="10" stroke-width=".5" d="M465.71094 332.60156l1.04297.64453"/><g clip-path="url(#az)"><path fill="none" stroke="#000" stroke-linecap="round" stroke-linejoin="round" stroke-miterlimit="10" stroke-width=".5" d="M141.1211 322.5586l5.7578-4.02344"/></g><path fill="none" stroke="#000" stroke-linecap="round" stroke-linejoin="round" stroke-miterlimit="10" stroke-width=".5" d="M154.1211 322.00781l6.39062-2.92187m-6.39063 2.92187l-1.94922-1.49219m15.19141 1.32813l6.53125-2.58984m-5.57812 2.21093l-.9375-.79296m19.45312 1.8828l-5.77344-4.01171m4.9336 3.42578l-.14844 1.21875m13.72656.00781l-4.6211-5.29297m3.94923 4.52344l-.4375 1.14453m14.28125-.25781l-4.33594-5.53125m4.33594 5.53125l-.99219 2.24219m14.58203-2.48047l-4.88281-5.05078m4.88281 5.05078l-.75781 2.33203m.04687-3.0664l-.3789 1.16796m14.59765-.63672l-5.26953-4.64843m5.26953 4.64843l-.5703 2.38672m-.19532-3.0625l-.28516 1.19531m14.57422-.77734l-5.6836-4.13281m5.6836 4.13281l-.34375 2.42969m-.48437-3.03125l-.17188 1.21484m14.51563-.91797l-6.08594-3.51953m6.08594 3.51953l-.08985 2.44922m-.79687-2.96094l-.04297 1.22266m14.36328-.9375l-6.32031-3.07031m6.32031 3.07031l.08594 2.45313m-1.00781-2.89844l.04687 1.22656m14.51563-1.89844l-6.97657-.83593m6.97657.83593l.88671 2.28907m12.45313-2.6836l-7.02734-.04687m7.02734.04687l1.13672 2.17578m12.17187-2.46093l-7.00781.52343m7.00781-.52343l1.3086 2.07421m-2.32813-1.99609l.65235 1.03516m13.57421-1.74219l-6.79687 1.78516m6.79687-1.78516l1.66407 1.80078m-2.65235-1.54297l.83203.90235m13.3047-1.64454l-6.46485 2.75391m6.46484-2.7539l1.91016 1.54296m-2.84766-1.14062l.95313.76953m12.72656-2.09375l-5.3164 4.59375m5.3164-4.59375l2.28906.88672m11.15235-.73047l-5.57032 4.28516m4.76172-3.66407l1.11719.50782m12.54297-1.625l-4.64453 5.27343m4.64453-5.27343l2.38672.5664m-3.0625.20313l1.1953.28125m12.76173-1.08203l-4.57422 5.33593m4.57422-5.33593l2.39453.53515m-3.0586.24219l1.19532.26953m12.59765-1.19531l-4.20312 5.63281m4.20312-5.63281l2.42579.375m-3.03516.44531l1.21094.1875m10.64062-1.70312l-.0586 7.02734m.05079-6.0039l1.08984-.57032m14.78907.67969l-5.16797 4.75781m19.18359-3.625l-6.57031 2.4961m6.57031-2.4961l1.84766 1.61328m-2.8047-1.25l.92579.8086m12.6875-2.25782l-5.25 4.66797"/><g clip-path="url(#aA)"><path fill="none" stroke="#000" stroke-linecap="round" stroke-linejoin="round" stroke-miterlimit="10" stroke-width=".5" d="M466.1875 318.21484l2.30078.85157"/></g><path fill="none" stroke="#000" stroke-linecap="round" stroke-linejoin="round" stroke-miterlimit="10" stroke-width=".5" d="M465.42188 318.89453l2.30078.85156"/><path fill="#ff3030" fill-rule="evenodd" d="M171.45313 458.77344h7.6914V448.625h-7.6914v10.14844"/><path fill="azure" fill-rule="evenodd" d="M173.28516 450.45703h.83593v5.74219h3.19141v.73828h-4.02734v-6.48047"/><path fill="#00f" fill-rule="evenodd" d="M326.10156 449.89453h8.61719V439.75h-8.61719v10.14453"/><path fill="azure" fill-rule="evenodd" d="M327.9336 441.58203h.83593v2.82422h3.28516v-2.82422h.83203v6.48047h-.83203v-2.91797h-3.28516v2.91797h-.83594v-6.48047"/><path fill="#ff3030" fill-rule="evenodd" d="M295.72656 409.94922h7.69531v-10.14453h-7.6953v10.14453"/><path fill="azure" fill-rule="evenodd" d="M297.5586 401.63672h.83593v5.73828h3.1914v.74219h-4.02734v-6.48047"/><path fill="#ff3030" fill-rule="evenodd" d="M202.52344 370.0039h7.6914v-10.14452h-7.6914v10.14453"/><path fill="azure" fill-rule="evenodd" d="M204.35547 361.6914h.83203v5.73829h3.19531v.74219h-4.02734v-6.48047"/><path fill="#ffffe0" fill-rule="evenodd" d="M355.0586 408.82422h22.17968v-10.1914H355.0586v10.1914"/><path fill-rule="evenodd" d="M358.5586 400.46484h.5078v6.29297h-.78515v-4.48828h-1.39063v-.55469l.5625-.0664.25-.05469.23047-.08984.20313-.14063.17578-.21094.14063-.29296.10546-.39454m4.8125 0l.23047.01954.21875.05468.20703.08985.19922.12109.1836.14844.17187.17578.30078.41797.24219.4961.17969.54687.11328.57812.03515.58985-.03515.59375-.11328.58593-.17969.55078-.24219.50391-.30078.42969-.17187.17969-.1836.15234-.19922.1211-.20703.09374-.21875.05469-.23047.02344-.22656-.02344-.21875-.05469-.21094-.09375-.1953-.1211-.1836-.15233-.17188-.1797-.30078-.42968-.2461-.5039-.17968-.55079-.10938-.58594-.03906-.59375h.83203l.03125.5625.08204.50782.125.4414.16406.375.1875.30079.21094.22265.22265.13672.22656.04688.22657-.04688.22265-.13672.21094-.22265.1914-.30079.16407-.375.125-.4414.08203-.50781.02734-.5625-.02734-.5586-.08203-.5039-.125-.4336-.16406-.36719-.19141-.29296-.21094-.21094-.22265-.13281-.22657-.04297-.22656.04296-.22265.13282-.21094.21094-.1875.29296-.16406.3672-.125.43358-.08204.50391-.03125.5586h-.83203l.03906-.58985.10938-.57812.17969-.54688.2461-.4961.30077-.41796.17188-.17578.1836-.14844.1953-.1211.21094-.08984.21875-.05469.22656-.01953m4.95313 0l.23047.01954.21875.05468.20703.08985.19531.12109.1875.14844.16797.17578.30469.41797.24219.4961.17968.54687.11328.57812.03516.58985-.03516.59375-.11328.58593-.17969.55078-.24218.50391-.30469.42969-.16797.17969-.1875.15234-.19531.1211-.20703.09374-.21875.05469-.23047.02344-.23047-.02344-.21875-.05469-.20703-.09375-.19531-.1211-.1836-.15233-.17187-.1797-.30078-.42968-.2461-.5039-.17969-.55079-.10937-.58594-.03906-.59375h.83203l.03125.5625.08203.50782.125.4414.16016.375.1914.30079.21094.22265.22266.13672.22656.04688.22656-.04688.22266-.13672.21094-.22265.1914-.30079.16016-.375.1289-.4414.08204-.50781.02734-.5625-.02735-.5586-.08203-.5039-.1289-.4336-.16016-.36719-.1914-.29296-.21094-.21094-.22266-.13281-.22656-.04297-.22656.04296-.22266.13282-.21094.21094-.1914.29296-.16016.3672-.125.43358-.08203.50391-.03125.5586h-.83203l.03906-.58985.10938-.57812.17968-.54688.2461-.4961.30078-.41796.17187-.17578.1836-.14844.1953-.1211.20704-.08984.21875-.05469.23047-.01953m4.95312 0l.38672.02735.35938.08203.32031.13672.28125.1875.23047.23828.17187.28515.10938.33204.03906.375-.01953.27734-.0586.23438-.08984.19921-.10937.16797-.1289.14453-.14063.125-.28516.19532.23047.11718.20703.14844.1836.17188.15234.1914.125.21485.08984.23046.05469.2422.01953.2578-.03516.3086-.10156.32812-.17187.32422-.2422.30469-.30468.26953-.375.21485-.21094.08203-.22656.05859-.2461.03906-.26171.01563-.25781-.01563-.2422-.03906-.22265-.0586-.20703-.08202-.35937-.21485-.28907-.26953-.22265-.30469-.15625-.32422-.09375-.32812-.03125-.3086h.83203l.02734.25391.07813.23438.1211.21093.16015.1836.19531.15234.21875.11719.24219.07031.2539.02735.25391-.02735.24219-.07031.21875-.11719.19531-.15234.16016-.1836.12109-.21093.07813-.23438.02734-.2539-.02735-.25391-.07812-.23438-.1211-.21093-.16015-.1875-.19531-.15235-.21875-.11328-.24219-.07422-.2539-.02344-.25391.02344-.24219.07422-.21875.11328-.19531.15235-.16016.1875-.1211.21093-.07812.23438-.02734.2539h-.83203l.01953-.2539.05469-.23828.08984-.22656.125-.20704.15234-.1914.1836-.17188.20703-.15234.23047-.13281-.28516-.19532-.14062-.125-.12891-.14453-.10938-.16797-.08984-.19921-.0586-.23438-.01952-.27734h.78906l.02344.21484.0625.1914.10546.16798.13672.14062.16407.10938.1914.08203.20703.05078.21875.01562.21875-.01562.20704-.05078.1914-.08204.16406-.10937.13672-.14063.10547-.16796.0625-.19141.02344-.21484-.02344-.21485-.0625-.1914-.10547-.16407-.13672-.14062-.16406-.10938-.1914-.08203-.20704-.05078-.21875-.01562-.21875.01562-.20703.05078-.1914.08203-.16407.10938-.13671.14062-.10547.16407-.0625.1914-.02344.21485h-.78906l.03906-.375.10937-.33204.17188-.28515.23047-.23828.28125-.1875.32031-.13672.35938-.08203.38671-.02735"/><path fill="#ffffe0" fill-rule="evenodd" d="M413.86328 423.4961h22.17969v-10.19141h-22.17969v10.1914"/><path fill-rule="evenodd" d="M417.36328 415.13672h.50781v6.29687h-.78515v-4.49218h-1.39063v-.5547l.5625-.0664.25-.05078.23047-.08984.20313-.14453.17578-.20704.14062-.29687.10547-.39453m4.8125 0l.23047.01953.21875.05469.20703.08984.19922.1211.1836.14843.17187.17578.30078.42188.24219.49219.17969.54687.11328.57813.03515.58984-.03515.59375-.11329.58594-.17968.55469-.24219.5-.30078.42968-.17188.17969-.18359.15234-.19922.125-.20703.08985-.21875.0586-.23047.01952-.22656-.01953-.22266-.0586-.20703-.08984-.19531-.125-.1836-.15234-.17187-.17969-.30078-.42969-.2461-.5-.17968-.55468-.10938-.58594-.03906-.59375h.83203l.03125.5664.08203.50391.125.4414.16406.375.1875.30079.21094.22266.22266.13671.22656.04688.22656-.04688.22266-.13671.21094-.22266.1914-.30078.16407-.375.125-.4414.08203-.50391.02734-.56641-.02734-.5586-.08203-.5-.125-.4375-.16407-.36327-.1914-.29297-.21094-.21485-.22266-.13281-.22656-.04297-.22656.04297-.22266.13281-.21094.21485-.1875.29296-.16406.36329-.125.4375-.08203.5-.03125.55859h-.83203l.03906-.58984.10938-.57813.17969-.54687.24609-.4922.30078-.42187.17188-.17578.18359-.14844.19531-.12109.20703-.08984.22266-.05469.22656-.01953m4.95313 0l.23046.01953.21875.05469.20704.08984.1953.1211.1875.14843.16798.17578.30469.42188.24218.49219.17969.54687.11328.57813.03516.58984-.03516.59375-.11328.58594-.17969.55469-.24219.5-.30468.42968-.16797.17969-.1875.15234-.19531.125-.20704.08985-.21875.0586-.23046.01952-.23047-.01953-.21875-.0586-.20703-.08984-.19532-.125-.18359-.15234-.17188-.17969-.30078-.42969-.24609-.5-.17969-.55468-.10937-.58594-.03906-.59375h.83203l.03125.5664.08203.50391.125.4414.16015.375.19141.30079.21094.22266.22265.13671.22657.04688.22656-.04688.22265-.13671.21094-.22266.1914-.30078.16017-.375.1289-.4414.08203-.50391.02735-.56641-.02735-.5586-.08203-.5-.1289-.4375-.16016-.36327-.1914-.29297-.21094-.21485-.22266-.13281-.22656-.04297-.22657.04297-.22265.13281-.21094.21485-.1914.29296-.16016.36329-.125.4375-.08203.5-.03125.55859h-.83204l.03907-.58984.10937-.57813.17969-.54687.2461-.4922.30077-.42187.17188-.17578.1836-.14844.1953-.12109.20704-.08984.21875-.05469.23047-.01953m4.95312 0l.38672.02734.35938.08203.3203.13672.28126.1875.23047.23828.17187.28516.10938.33203.03906.3789-.01953.27344-.0586.23438-.08984.19922-.10938.17187-.1289.14454-.14063.12109-.28515.19531.23047.1211.20703.14453.1836.17187.15233.19531.125.21094.08985.23047.05469.2461.01953.2539-.03516.3086-.10156.32812-.17188.32422-.24218.30469-.3047.26953-.375.21484-.21093.08203-.22656.0625-.2461.03516-.26171.01562-.25782-.01562-.24218-.03516-.22266-.0625-.20703-.08203-.35938-.21484-.28906-.26954-.22265-.30468-.15625-.32422-.09375-.32813-.03125-.30859h.83203l.02734.2539.07813.23438.12109.21094.16015.1875.19532.15234.21875.11328.24219.07422.2539.02344.2539-.02344.2422-.07422.21875-.11328.1953-.15234.16016-.1875.1211-.21094.07812-.23437.02735-.25391-.02735-.2539-.07812-.23438-.1211-.21094-.16015-.1836-.19531-.15234-.21875-.11718-.2422-.07032-.2539-.02734-.2539.02734-.2422.07032-.21874.11718-.19531.15235-.16016.1836-.1211.21093-.07812.23437-.02734.25391h-.83204l.01954-.2539.05468-.23829.08985-.22656.125-.20703.15234-.1914.1836-.17188.20703-.15235.23046-.1328-.28515-.19532-.14063-.1211-.1289-.14453-.10938-.17187-.08984-.19922-.0586-.23438-.01953-.27343h.78907l.01953.21484.0664.1875.10547.16797.13672.14063.16406.10937.19141.08203.20703.05078.21875.01563.21875-.01563.20703-.05078.1914-.08203.16407-.10938L433 417.375l.10547-.16797.0625-.1875.02344-.21484-.02344-.21485-.0625-.1914-.10547-.16797-.13672-.14063-.16406-.10937-.1914-.08203-.20704-.05078-.21875-.01563-.21875.01563-.20703.05078-.1914.08203-.16407.10937-.13672.14063-.10547.16797-.0664.1914-.01953.21485h-.78907l.03907-.3789.10937-.33204.17188-.28516.23046-.23828.27735-.1875.32422-.13672.35937-.08203.38672-.02734"/><path fill="#ffffe0" fill-rule="evenodd" d="M217.46875 347.08984h22.17969v-10.1914h-22.17969v10.1914"/><path fill-rule="evenodd" d="M220.96875 338.73047h.50781v6.29687h-.78515v-4.49218h-1.38672v-.5547l.5586-.0625.25-.05468.23046-.08984.20313-.14063.17578-.21094.14062-.29296.10547-.39844m4.8125 0l.23047.01953.21875.05469.20703.08984.19922.1211.1836.15234.17187.17187.30078.42188.24219.49219.17968.54687.11328.57813.03907.59375-.03906.59375-.11329.58203-.17968.55469-.2422.5-.30077.42968-.17188.17969-.1836.15234-.19921.125-.20703.08985-.21875.0586-.23047.01952-.22656-.01953-.21875-.0586-.21094-.08984-.19531-.125-.1836-.15234-.17187-.17969-.30078-.42969-.24219-.5-.17969-.55468-.11328-.58203-.03906-.59375h.83594l.02734.5625.08203.5039.125.44531.16406.375.19141.30079.20703.21875.22266.13671.22656.04688.22656-.04688.22266-.13671.21094-.21875.1914-.30079.16406-.375.125-.4453.08204-.50391.02734-.5625-.02734-.5625-.08203-.5-.125-.4375-.16407-.36329-.1914-.29296-.21094-.21485-.22266-.13281-.22656-.04297-.22656.04297-.22266.13281-.20703.21485-.1914.29296-.16407.36329-.125.4375-.08203.5-.02734.5625h-.83594l.03906-.59375.11328-.57813.17969-.54687.24219-.4922.30078-.42187.17187-.17187.1836-.15235.19531-.12109.21094-.08984.21875-.05469.22656-.01953m4.95313 0l.23046.01953.21875.05469.20703.08984.19922.1211.1836.15234.17187.17187.30078.42188.2422.49219.17968.54687.11328.57813.03906.59375-.03906.59375-.11328.58203-.17969.55469-.24219.5-.30078.42968-.17187.17969-.1836.15234-.19922.125-.20703.08985-.21875.0586-.23047.01952-.22656-.01953-.21875-.0586-.21094-.08984-.1953-.125-.1836-.15234-.17188-.17969-.30078-.42969-.2461-.5-.17968-.55468-.10937-.58203-.03907-.59375h.83203l.03125.5625.08204.5039.125.44531.16406.375.1875.30079.21094.21875.22265.13671.22656.04688.22657-.04688.22265-.13671.21094-.21875.1914-.30079.16407-.375.125-.4453.08203-.50391.02734-.5625-.02734-.5625-.08203-.5-.125-.4375-.16406-.36329-.1914-.29296-.21095-.21485-.22265-.13281-.22656-.04297-.22657.04297-.22265.13281-.21094.21485-.1875.29296-.16406.36329-.125.4375-.08203.5-.03125.5625h-.83204l.03907-.59375.10937-.57813.17969-.54687.2461-.4922.30077-.42187.17188-.17187.1836-.15235.1953-.12109.21094-.08984.21875-.05469.22656-.01953m4.95313 0l.38672.02734.35937.08594.32422.13281.27735.1875.23047.23828.17187.28516.10938.33203.03906.3789-.01953.27344-.0586.23438-.08594.19922-.11328.17187-.1289.14454-.14063.12109-.28515.19531.23047.1211.20703.14453.18359.17187.15234.19531.125.21485.08985.22656.05469.2461.01953.2539-.03516.3125-.10156.32422-.17188.32422-.23828.3086-.3086.26952-.375.21485-.21093.07812-.22656.0625-.2461.03906-.26172.01172-.2578-.01172-.2422-.03906-.22265-.0625-.20703-.07812-.35938-.21485-.28906-.26953-.22266-.3086-.15625-.32421-.09375-.32422-.03125-.3125h.83203l.02735.2539.07812.23438.125.21485.16016.18359.1914.15234.21876.11328.24218.07422.25391.02344.2539-.02344.2422-.07422.21874-.11328.19532-.15234.16015-.1836.1211-.21484.07812-.23437.02734-.25391-.02734-.25-.07812-.23828-.1211-.21094-.16015-.1836-.19532-.15234-.21875-.11718-.24218-.07032-.25391-.02734-.2539.02734-.2422.07032-.21874.11718-.19141.15235-.16016.1836-.125.21093-.07812.23828-.02734.25h-.83204l.01953-.2539.0547-.23829.09374-.22265.1211-.21094.15625-.1875.17968-.17578.20703-.15235.23438-.1328-.28906-.19532-.13672-.1211-.13281-.14453-.10938-.17187-.08984-.19922-.05469-.23438-.02344-.27343h.78906l.02344.21484.0664.1914.10157.16407.13672.14063.16797.11328.1875.07812.20703.05078.21875.01953.22266-.01953.20703-.05078.1875-.07812.16406-.11329.13672-.14062.10547-.16406.0664-.1914.02344-.21485-.02344-.21485-.0664-.1914-.10547-.16797-.13672-.13672-.16406-.11328-.1875-.08203-.20703-.05078-.22266-.01563-.21875.01563-.20703.05078-.1875.08203-.16797.11328-.13672.13672-.10156.16797-.0664.1914-.02345.21485h-.78906l.03906-.3789.10938-.33204.17188-.28516.23046-.23828.28125-.1875.32032-.13281.35937-.08594.38672-.02734"/><path fill="#ffffe0" fill-rule="evenodd" d="M195.27734 390.17578h22.1797v-10.1914h-22.1797v10.1914"/><path fill-rule="evenodd" d="M198.77734 381.8164h.50782v6.29688H198.5V383.625h-1.39063v-.5586l.5625-.0625.25-.05468.23047-.08985.20313-.14062.17578-.21094.14063-.29297.10546-.39843m4.8125 0l.23047.01953.21875.0586.20703.08593.19922.1211.1836.15234.17187.17578.30078.41797.24219.49218.17969.54688.11328.58203.03906.58984-.03906.59375-.11328.58204-.17969.55468-.24219.5039-.30078.42579-.17187.17969-.1836.15234-.19922.125-.20703.09375-.21875.05469-.23047.01953-.22656-.01953-.21875-.05469-.21094-.09375-.1953-.125-.1836-.15234-.17188-.17969-.30078-.42578-.24219-.5039-.18359-.5547-.10938-.58203-.03906-.59375h.83203l.03125.5625.08203.50391.125.44531.16407.375.1875.30078.21094.21875.22265.13672.22656.04688.22657-.04688.22265-.13672.21094-.21875.1914-.30078.16407-.375.125-.44531.08203-.5039.02734-.5625-.02734-.5625-.08203-.5-.125-.4336-.16406-.36719-.19141-.29297-.21094-.21484-.22265-.1289-.22657-.04688-.22656.04687-.22266.12891-.21093.21484-.1875.29297-.16406.36719-.125.4336-.08204.5-.03125.5625h-.83203l.03906-.58985.10938-.58203.1836-.54688.24218-.49218.30078-.41797.17188-.17578.1836-.15235.1953-.1211.21094-.08593.21875-.0586.22656-.01952m4.95313 0l.23047.01953.21875.0586.20703.08593.19922.1211.1836.15234.17187.17578.30078.41797.24219.49218.17968.54688.11328.58203.03516.58984-.03516.59375-.11328.58204-.17969.55468-.24218.5039-.30078.42579-.17188.17969-.1836.15234-.19921.125-.20703.09375-.21875.05469-.23047.01953-.22656-.01953-.22266-.05469-.20703-.09375-.19531-.125-.1836-.15234-.17187-.17969-.30078-.42578-.2461-.5039-.17969-.5547-.10937-.58203-.03906-.59375h.83203l.03125.5625.08203.50391.125.44531.16016.375.1914.30078.21094.21875.22266.13672.22656.04688.22656-.04688.22266-.13672.21094-.21875.1914-.30078.16406-.375.125-.44531.08203-.5039.02735-.5625-.02734-.5625-.08204-.5-.125-.4336-.16406-.36719-.1914-.29297-.21094-.21484-.22266-.1289-.22656-.04688-.22656.04687-.22266.12891-.21094.21484-.1914.29297-.16016.36719-.125.4336-.08203.5-.03125.5625h-.83203l.03906-.58985.10938-.58203.17968-.54688.2461-.49218.30078-.41797.17187-.17578.1836-.15235.1953-.1211.20704-.08593.22266-.0586.22656-.01952m4.95312 0l.38672.03125.35938.08203.32422.13672.27734.1875.23047.23437.17187.28516.10938.33203.03906.3789-.01953.27344-.0586.23438-.08984.20312-.10937.16797-.1289.14453-.14063.1211-.28516.19921.23047.1172.20703.14843.1836.16797.15234.19531.125.21485.08984.23046.05469.2422.01953.2539-.03516.3125-.10156.32422-.17187.32421-.2422.3086-.30468.26953-.375.21484-.21094.07813-.22656.0625-.2461.03906-.26171.01172-.25781-.01172-.2422-.03906-.22265-.0625-.20703-.07813-.35937-.21484-.28907-.26953-.22265-.3086-.15625-.32421-.09375-.32422-.03125-.3125h.83203l.02734.2539.07813.23438.1211.21484.16405.1836.19141.15234.21875.11328.24219.07422.2539.02344.25391-.02344.24219-.07422.21875-.11328.19531-.15234.16016-.1836.12109-.21484.07813-.23438.02734-.2539-.02734-.25-.07813-.23438-.1211-.21484-.16015-.1836-.19531-.15234-.21875-.11328-.24219-.07422-.2539-.02344-.25391.02344L213 385.25l-.21875.11328-.1914.15235-.16407.18359-.1211.21484-.07812.23438-.02734.25h-.83203l.01953-.25.05469-.24219.09375-.22266.12109-.20703.15234-.1914.1836-.17188.20703-.15625.23437-.1289-.28906-.19922-.14062-.1211-.12891-.14453-.10938-.16797-.08984-.20312-.05469-.23438-.02343-.27344h.78906l.02344.21485.0625.1914.10547.16407.13671.14062.16407.11328.1914.08204.20703.04687.21875.01953.22266-.01953.20703-.04688.1875-.08203.16406-.11328.13672-.14062.10547-.16406.0664-.19141.01954-.21485-.01953-.21484-.0664-.1914-.10548-.16407-.13672-.14062-.16406-.11328-.1875-.08204-.20703-.04687-.22266-.01953-.21875.01953-.20703.04688-.1914.08203-.16407.11328-.13672.14062-.10546.16406-.0625.19141-.02344.21485h-.78906l.03906-.37891.10937-.33203.17188-.28516.23047-.23437.28125-.1875.32031-.13672.35938-.08203.38671-.03125"/><path fill="#ffffe0" fill-rule="evenodd" d="M319.55078 350.57031h22.1836v-10.1914h-22.1836v10.1914"/><path fill-rule="evenodd" d="M323.05078 342.21484h.51172v6.29297h-.78906v-4.48828h-1.38672v-.5586l.5586-.0625.25-.05468.23046-.08984.20313-.14063.17578-.21094.14062-.29296.10547-.39454m4.8125 0l.23047.01563.21875.0586.21094.08984.19531.11718.1836.15235.17187.17578.30078.41797.24219.49219.17969.54687.11328.58203.03906.58985-.03906.59375-.11329.58203-.17968.55468-.24219.50391-.30078.42578-.17188.17969-.18359.15234-.19531.125-.21094.09375-.21875.05469-.23047.01953-.22656-.01953-.21875-.05469-.21094-.09375-.19531-.125-.1836-.15234-.17187-.17969-.30078-.42578-.24219-.5039-.17969-.5547-.11328-.58202-.03906-.59375h.83594l.02734.5625.08203.5078.125.44141.16406.375.19141.30079.21094.21875.22265.14062.22266.04688.22656-.04688.22266-.14063.21094-.21875.1914-.30078.16407-.375.125-.4414.08203-.50781.02734-.5625-.02734-.5625-.08203-.5-.125-.4336-.16407-.36719-.1914-.29296-.21094-.21485-.22266-.1289-.22656-.04688-.22265.04688-.22266.1289-.21094.21485-.1914.29296-.16407.3672-.125.43358-.08203.5-.02734.5625h-.83594l.03906-.58984.11328-.58203.1797-.54688.24218-.49218.30078-.41797.17188-.17578.18359-.15235.19531-.11718.21094-.08985.21875-.0586.22656-.01562m5.09375 0h.50781v6.29297h-.78515v-4.48828h-1.39063v-.5586l.5625-.0625.25-.05468.23047-.08984.20313-.14063.17578-.21094.14062-.29296.10547-.39454m2.82422 2.17188h.78516l.01953-.3125.0586-.28906.10155-.25.14063-.21875.17969-.17188.22265-.1289.26563-.08204.3086-.02734.23827.02344.22266.0625.20312.10156.1797.13672.14843.17578.11328.20313.07422.23828.02344.26171-.02344.26954-.0625.22656-.11328.1914-.15235.17188-.20312.16016-.2461.16796-.6328.38672-.53907.3125-.4375.31641-.34766.32813-.26171.33593-.19141.34766-.125.3711-.0664.39452-.02344.41797h4.21093v-.74219h-3.33203l.08594-.28125.11328-.23828.14844-.20312.1875-.17969.23047-.17187.27734-.17579.71875-.41406.41406-.20703.34375-.23047.28125-.25.21875-.26953.16406-.27734.11329-.28125.0625-.28516.01953-.28125-.03906-.38281-.1211-.35156-.1914-.3047-.25-.26562-.30079-.21093-.34765-.16016-.3789-.09766-.40626-.03125-.4336.03125-.39843.09766-.35547.16797-.30469.23437-.25.3047-.18359.37108-.11719.44922-.03906.51563"/></g></defs><use xlink:href="#aB"/></svg>