<svg xmlns="http://www.w3.org/2000/svg" role="img" xmlns:xlink="http://www.w3.org/1999/xlink" viewBox="142.45 309.95 326.84 171.84"><defs><clipPath id="a"><path d="M144 311.67188h1v168.65625h-1zm0 0"/></clipPath><clipPath id="b"><path d="M144 311.67188h324v168.65625H144zm0 0"/></clipPath><clipPath id="c"><path d="M381 459h23v21.32813h-23zm0 0"/></clipPath><clipPath id="d"><path d="M384 476h17v4.32813h-17zm0 0"/></clipPath><clipPath id="e"><path d="M388 477h9v3.32813h-9zm0 0"/></clipPath><clipPath id="f"><path d="M390 479h5v1.32813h-5zm0 0"/></clipPath><clipPath id="g"><path d="M467 311.67188h1v168.65625h-1zm0 0"/></clipPath><clipPath id="h"><path d="M144 479h4v1.32813h-4zm0 0"/></clipPath><clipPath id="i"><path d="M147 479h3v1.32813h-3zm0 0"/></clipPath><clipPath id="j"><path d="M146 479h2v1.32813h-2zm0 0"/></clipPath><clipPath id="k"><path d="M153 479h9v1.32813h-9zm0 0"/></clipPath><clipPath id="l"><path d="M160 479h3v1.32813h-3zm0 0"/></clipPath><clipPath id="m"><path d="M159 479h2v1.32813h-2zm0 0"/></clipPath><clipPath id="n"><path d="M166 480h9v.32813h-9zm0 0"/></clipPath><clipPath id="o"><path d="M173 480h3v.32813h-3zm0 0"/></clipPath><clipPath id="p"><path d="M172 480h2v.32813h-2zm0 0"/></clipPath><clipPath id="q"><path d="M180 479h8v1.32813h-8zm0 0"/></clipPath><clipPath id="r"><path d="M187 479h2v1.32813h-2zm0 0"/></clipPath><clipPath id="s"><path d="M186 480h2v.32813h-2zm0 0"/></clipPath><clipPath id="t"><path d="M193 480h9v.32813h-9zm0 0"/></clipPath><clipPath id="u"><path d="M200 480h3v.32813h-3zm0 0"/></clipPath><clipPath id="v"><path d="M199 480h2v.32813h-2zm0 0"/></clipPath><clipPath id="w"><path d="M206 479h9v1.32813h-9zm0 0"/></clipPath><clipPath id="x"><path d="M213 479h3v1.32813h-3zm0 0"/></clipPath><clipPath id="y"><path d="M212 479h2v1.32813h-2zm0 0"/></clipPath><clipPath id="z"><path d="M220 480h8v.32813h-8zm0 0"/></clipPath><clipPath id="A"><path d="M227 480h2v.32813h-2zm0 0"/></clipPath><clipPath id="B"><path d="M233 479h8v1.32813h-8zm0 0"/></clipPath><clipPath id="C"><path d="M240 479h3v1.32813h-3zm0 0"/></clipPath><clipPath id="D"><path d="M246 480h9v.32813h-9zm0 0"/></clipPath><clipPath id="E"><path d="M253 480h3v.32813h-3zm0 0"/></clipPath><clipPath id="F"><path d="M260 479h8v1.32813h-8zm0 0"/></clipPath><clipPath id="G"><path d="M267 479h2v1.32813h-2zm0 0"/></clipPath><clipPath id="H"><path d="M273 479h8v1.32813h-8zm0 0"/></clipPath><clipPath id="I"><path d="M280 479h3v1.32813h-3zm0 0"/></clipPath><clipPath id="J"><path d="M286 479h9v1.32813h-9zm0 0"/></clipPath><clipPath id="K"><path d="M293 479h3v1.32813h-3zm0 0"/></clipPath><clipPath id="L"><path d="M300 479h8v1.32813h-8zm0 0"/></clipPath><clipPath id="M"><path d="M307 479h2v1.32813h-2zm0 0"/></clipPath><clipPath id="N"><path d="M313 479h8v1.32813h-8zm0 0"/></clipPath><clipPath id="O"><path d="M319 479h2v1.32813h-2zm0 0"/></clipPath><clipPath id="P"><path d="M326 479h9v1.32813h-9zm0 0"/></clipPath><clipPath id="Q"><path d="M332 480h2v.32813h-2zm0 0"/></clipPath><clipPath id="R"><path d="M340 478h8v2.32813h-8zm0 0"/></clipPath><clipPath id="S"><path d="M355 476h4v4.32813h-4zm0 0"/></clipPath><clipPath id="T"><path d="M369 476h2v4.32813h-2zm0 0"/></clipPath><clipPath id="U"><path d="M380 479h8v1.32813h-8zm0 0"/></clipPath><clipPath id="V"><path d="M393 479h8v1.32813h-8zm0 0"/></clipPath><clipPath id="W"><path d="M393 479h2v1.32813h-2zm0 0"/></clipPath><clipPath id="X"><path d="M406 479h9v1.32813h-9zm0 0"/></clipPath><clipPath id="Y"><path d="M407 478h2v2.32813h-2zm0 0"/></clipPath><clipPath id="Z"><path d="M419 479h9v1.32813h-9zm0 0"/></clipPath><clipPath id="aa"><path d="M420 479h2v1.32813h-2zm0 0"/></clipPath><clipPath id="ab"><path d="M435 476h4v4.32813h-4zm0 0"/></clipPath><clipPath id="ac"><path d="M446 478h8v2.32813h-8zm0 0"/></clipPath><clipPath id="ad"><path d="M446 480h3v.32813h-3zm0 0"/></clipPath><clipPath id="ae"><path d="M460 478h7v2.32813h-7zm0 0"/></clipPath><clipPath id="af"><path d="M460 480h2v.32813h-2zm0 0"/></clipPath><clipPath id="ag"><path d="M144 466h4v2h-4zm0 0"/></clipPath><clipPath id="ah"><path d="M144 453h4v1h-4zm0 0"/></clipPath><clipPath id="ai"><path d="M144 439h4v3h-4zm0 0"/></clipPath><clipPath id="aj"><path d="M144 426h4v2h-4zm0 0"/></clipPath><clipPath id="ak"><path d="M465 424h3v1h-3zm0 0"/></clipPath><clipPath id="al"><path d="M144 412h4v3h-4zm0 0"/></clipPath><clipPath id="am"><path d="M144 398h4v5h-4zm0 0"/></clipPath><clipPath id="an"><path d="M144 385h4v4h-4zm0 0"/></clipPath><clipPath id="ao"><path d="M144 371h4v5h-4zm0 0"/></clipPath><clipPath id="ap"><path d="M144 356h1v9h-1zm0 0"/></clipPath><clipPath id="aq"><path d="M144 357h2v2h-2zm0 0"/></clipPath><clipPath id="ar"><path d="M465 357h3v2h-3zm0 0"/></clipPath><clipPath id="as"><path d="M144 344h3v7h-3zm0 0"/></clipPath><clipPath id="at"><path d="M466 345h2v3h-2zm0 0"/></clipPath><clipPath id="au"><path d="M144 332h4v3h-4zm0 0"/></clipPath><clipPath id="av"><path d="M466 332h2v2h-2zm0 0"/></clipPath><clipPath id="aw"><path d="M144 318h4v5h-4zm0 0"/></clipPath><clipPath id="ax"><path d="M465 317h3v3h-3zm0 0"/></clipPath><g id="ay" clip-path="url(#clip1)"><path fill="#fff" fill-opacity="0" fill-rule="evenodd" d="M0 0h1000v1000H0zm0 0"/><path fill="#d3d3d3" fill-opacity="0" fill-rule="evenodd" d="M162.15234 355.86719l-.23437.29297.0586.23437.11718.17188.17578.23437.29297.34766.11328.0586.11719-.17188.0586-.23438.17577-.17578.46485-.17578h.69922l.23437.29297.28906.8164.0586.17579.17578.23046.35156.23438.69922.69922.17188.17578.23437.34765.23438.41016.28906.58203.41015.46485.23047.23437.23438.17578.11719.23047.17578.29297.17187 1.16406v.23438l.0586.28906.05859.11719.11719.11719.34765.41015.11719.17188.17578.17578.17578.23437.11719.17188.17188.35156.05859.23438.23437.40625.23438-.0586-.17578.17578-.0586.92969h-.58203l-.23437-.11328-.34766.11328-.11719.11719-.05859.29297-.0586.17578-.11718.17187-.46484.29297-.0586.23438-.0586.11328v.64453l.0586.17187v.41016l.0586.0586v.40624l.05859.40625.11719.17579.05859.05859.23047.64062-.0586.29297v.69922l-.05859.58203v.23438l-.0586.23047-.05468.35156v1.92187l.05469.1172h.42578l-.36719.11718-.02344.35156.89063 1.16797 1.74219.53906 1.33984.35938v.53906l.08984.8086.53516.71484 1.51953.26953.89063-.08594.08984 1.16406.53516.1797 1.16015-.1797 2.05469-.98437 1.16016-.36328 1.8789-.17578 1.69531-.1797-.17968.71876-1.51563.08594-1.25.08984-.80469.26953-1.07421.8086.26953.71875.53515.89843-.17968.625-.26563.8086.26563 1.07812.625.89844.80468.17969 1.25-.1797-.26562.72267.09766.5039.05468.29297v.17188l.0586.29296v.40625l.17578.1172.35156.11718h.40625l.29297-.17578.11328-.11719.0586-.11719.11718-.23047.0586-.17578.35156-.46484.23047-.17578.17578-.0586.17578.0586.0586.17578.11718.98828.05469.46875.0586.17188.11718.23437.17578.0586.8164.05859h.28907l.11719.23437.05859.40625.0586.35156v1.10547l.11718.29297.11719.34766.28906.69922.17578.35156.58203.7539.35157.17579.17187.0586.46875.23437.64063.46484.34765.23438.29297.17578.29297.05468.23047.0625.8164.34766.29297.17578.11328.17188.35157.35156.11719.17578.52343.64063v.28906l.0586.35156v.34766l.05859.35156.0586.28906.11718.0586.17188.05859h.17578l.58203.23437.17578.1172.17578.28905.17578.23438.11328.23437.29297.23047.11719.11719v.41016l.0586.05468.28906.23438.23437.11719.0586.11718.11718.17188.0586.11719.23047.23437.05859.17578.23437.0586.1172.05859-.1172.11328-.05859.11719v.11719l-.11719.29296-.11719.28907v.58203l.17579.11719.11718.05859.0586.11719.11719.11719.11328.05859.17578.34765.0586.35157.05858.40625v.17578l-.05859.17578-.11719.69922v.17187l.1172.17579.29296.29296h.40625l.17578.1172.11719.17187.11719.29296v.23438h-.52735l-.23047-.23438h-.23437l-.17578.0586-.0586.69922.0586.34765.11719.17579.17578.41015.11718.23047.28907.46875.17578.05469h.52344l.23437.0586.75781.64062.0586.29296v.23438l.05859.0586.23047.34765v.35156l-.11719.17188v.29297l.29297.28906.29297.17578.17187.0586.29297.17577.29297.1172.58203.40624.28906.23438.29297.17578.21875.16015.01563.01172.23047.17579.64062.52343.17578.23438.1172.17578.17577.17578.11328.17188v.64062l.1172.17578.46874.11719.58203.11719.23438.05859.23047.11328.29297.11719.11328.0586.58593.35156.28907.17187.17578.0625.17578.05469.17578.0586.69922.35155.28906.17579.23438.05468.28906.17578.23437.1172.64063.40624.29297.11719.17187.0586.23438.05859.41015.05859.23047.0586.23438.11718.0586.17188-.41017.17578.46875.0586.0586.29296.11328.23438.17578.05468.23438.0586.17578.05859.40625.11719.64062.23437.11719.17188.0586.23437v.17578l-.0586.1172-.0586.40624.23438.23438.11719.05859.34766.11719.64062.23047.17578.11718.28906.1172.17578.17577.23438.46485.58203 1.10546.17578.17579.34766.17578.17578.11719.35156.11718 1.04688.52344.23437.0586.46485.11327.29297.0586.46484.17578.75781.58203.23438.23438.34765.46484.17578.17578.28907.23438.8164.69921.29297.17579.28906.28906.29297.17578.29297.28906.69531.64063.17578.17578.29297.23437.28907.23438.46875.28906.64062.58203.34766.23438.23437.29297.34766.34765.35156.46485.9336.99218.34765.40625.11719.17579.23437.05859.11328.11719.64454.17578.23047.11328.23437.0586.29297.17577.23047.1172.9336.69921.40624.40625.23438.17578.40625.17578.23437.11719.8164.34766.34766.23437.23438.11719.29297.28906.23047.11719.7578.35156.35157.17188.23047.05859.29297.11719.23437.0586.8711.17577h.8164l.46875.23047.17188.0586.875.69921.46484.1172.29297.05858.17578.0586.23047.0586.46875.05859.34766.05859.35156.0586.40625.05859h.29297l.17187.0586v.23046l.17578.17578h.29297l.34766.0586.35156.05859.69922.11719h.64063l.46484-.23438.29297-.17578.17187-.11719.41016-.17187.28906-.17578.9336-.46485.46875-.29297.52343-.29296.46485-.17188.46484-.17578 1.05078-.46485.28906-.11718.41016-.11719.28906-.11719.52735-.17578 1.51562-.69922.58203-.34765.28907-.0586.29297-.0586.34765-.11718.875-.23047.35156-.11719h.11329l.23437-.05859.875-.23437.23438-.0586h.8125l.35156-.0586.8164-.11718.17188-.0586.35156-.05468.29297-.0586.23047-.05859.8164-.17578.17579-.0586h.34765l.23438-.05859.46484-.11718.75781-.17188.23438-.0586h.34765l.41016-.11718.28906-.0586 1.28516-.05859h.28906l.41016-.0586.23047-.05858h.17578l.875-.1172h.40625l.41015-.11718h.34766l.35156-.11328.8711-.0586h1.75l1.04687.28907.41016.11719.28906.11718.35156.11719.28907.11719 1.05078.17187.28906.0586h.29297l.29297.05859.17187.0586.41016.05859.17187.0586.1172.05858h.11718l.11719.0586.35156.0586h.11328l.41016.0664 1.92187.39453 1.92578.39453 1.51953.44922 1.69532.71875 2.14453.80469 1.60547-.71875 1.42968-.80469 1.16016-1.07813 1.25-.44921 3.03516-.71875 1.875-.35938 2.14453-1.34765 2.23437-1.25391 2.5-1.25781 1.69531-.44922 1.78516-.17969 1.16016-.26953.625.53906 1.33984-.26953.71485-.98828.98437-1.34375.44531-.17969.80469-.35937 1.875-.53907 1.78516-.44921 1.25-.26954 1.16015-.08984 1.69922-.08984 1.96094-.26954 1.25-.08984h.53906l.625-.08984h.89063l2.14453-.17969 2.41015-.17969 2.58985-.08984 1.69531.17969 1.60938.08984 1.42968.35938 1.16016.71875 1.875.98828 1.16015 1.52734.26563.71484.6289.08985.35548.89844.53515.53906.53516 1.52734 1.07422.35938h.53515l-.80469.53515.08985 1.70703.71484 2.69532.89063.80468.89453.98829.71484 1.2578 1.78516.53907 1.51953-.17969.35547 1.34375 1.60937-.80469.98047-.53906.26953.26953.31641-.21484.21875-.14453.80078.44922.44922-.35938h.35547l.53515-.26953.53907-.71875.53515-.26953.625-.98828 1.16016.44922.83984.3711 1.39454.61718 1.6953-.17969h1.60548l1.78515.08985.17969-1.70704.53516-1.34375.80468.26954.4922.84765.40233.40625-.08984.53906v.35938l.71485.44922.71093-.26953h1.42969l.35938.98828.4453 1.25781.71485 1.34375 1.25.6289 1.69531.62891.71485-.17969.17969-.53906.98046-.08984.44922.35937.08594 1.25782-.26563.6289-.53515.17969v.53906l.71484.98438.26563.53906.98437.98828.80078 1.07813-.26562.35937-.08985.89844-.625 2.33203-.35546 2.0664-.08985 1.79298-.17969.71875-.08984.53906v1.4375l-.98047 1.88281-.35937 1.70703-.53516.89844-.80469 1.16797-.26562.53906 2.05469 1.2539.08593.35938-.35546.53906-.08985-.17968v.80859l.08985 1.4375-.44532.71484-1.07422.09375-.26562.71485.53515.89844.8047.71875 1.16015.80859 1.33984.26953.44531.35938-.35546.44921-1.78907-.08984-1.25-.44922-.71484-.71875-.625-.08984-.17578 3.58984-.1875 1.3086h89.35937V311.70313h-55.26953v49.08203l.76172.125 3.28906.54296 2.02344 2.83594v2.7539l2.35156.33204 2.34766.33203h4.05078l-1.3789 4.16016-2.02344.70703-2.02344.70312-.54297.34375-2.59375 1.6172-.1875.11718-2.02344-2.07813-.73046-2.74218-2.67188-2.07813-1.375-3.5-.0664-.08203-1.95704-2.67188 2.75-1.41796v-49.08204H294.42187v91.41407l.1172.03125.1328.01172.07422.07421.10547.04688.08985.0586.08593.05859.08985.0586.29687.29687.0586.08984.03125.11719.02734.11719.01563.13671-.03125.1172-.0586.08983-.0586.08594-.04296.10547-.04688.10156-.02734.1211v.14453l.17578.26953.14844.14844.07422.08594.07422.07421.04296.10547.0625.08985.0586.08593.04297.10547.0586.08985.04687.10156.04296.10547.0586.08594.11719.17968.07421.07422.0625.08594.0586.08984.04297.10547.0586.08985.05858.08593.0625.08985.0586.08984.04297.10156.11719.17969.07421.07422.0586.08594.07422.07421.08984.0586.10547.04687h.14844l.1328-.01562.13282.01562.10156-.04687.07422-.07422.04688-.10156-.01563-.13281v-.14844l-.04687-.10547-.02735-.11719-.04687-.10156-.02735-.1211-.04296-.10156-.0625-.08984-.04297-.10156-.04297-.10547-.03125-.11719-.01563-.13281-.01171-.13672.08593-.0586.0586-.08593.12109-.03125.04297.10547.01562.1328v.1172l.0586.10156.0586.08984.08983.0586.14844.14843.0586.08985.04296.10547-.01171.10156.08593.0586.10547.04687.08594.0586.08984.05858.07422.07422-.11719.02735-.10546.04687-.08594.0586-.07422.07421-.0586.08985-.0625.08594-.02734.12109-.04687.10156-.04297.10547-.03125.11719-.01172.13281-.01563.13281v.14844l.02735.11719.04687.10547.04297.10156.0586.08984.07421.07422.08985.0586.07422.07421.08984.0586.0586.08984.04296.10547.04688.10156.11719.03125.1328.01563h.14845l.11718-.03125.10547.04297.04297.10547.04688.10156.02734.1211L299.5 410l.02734.11719.03125.1211.02735.11718.10547.04297.10156.04687.13281-.01562.14844.14844.0625.08593.07422.07422.07031.07422.08984.0625.10547.04297.10156.04297.1172.03125.13671.01562.11719-.03125.07422-.07422.02734-.11718-.01172-.13282-.03125-.12109-.02734-.11719.04297-.10547h.11719l.08984.0625.11719.02735h.14843l.13282.01562h.14843l.13282.01563.1328-.01563h.14845l.1328-.01562.13282-.01172.13672.01172.11719-.02735.13281-.01562.1914-.0586-.05859.17579-.01562.1328-.02735.1211-.01562.13281-.0586.08594-.1328.01563-.10548.04687-.10546.04297-.1172.03125-.11718.02735-.26563.03125h-.14843l-.13281.01562-.07422.07422.05859.08594.14844.14843.11719.1797.07421.0703.08985.0625.08984.0586.08594.0586.08984.05858.10156.04297.10547.0625.10547.04297.08594.0586.10547.04687.10156.04297.17969.11719.0586.08984-.04298.10156-.04687.10547.01562.13281.22266.22266.0586.08985.04296.10156.03125.1211.04297.10155.01563.13282.03125.11718.01171.13672.03125.11719.14844.14844.10156.04297.10547.04296.1172.03125.1328.01563.13672.01563h.11719l.11719-.03125.08984-.0586.04297-.10547.04688-.10156.04296-.10547.03125-.11719.01172-.1328v-.14845l-.01172-.1328-.01562-.13282-.03125-.11719-.04297-.10547-.04688-.10547-.04296-.10156-.04297-.10547-.01563-.13281.01563-.13281.02734-.11719.03125-.11719.02735-.1211.04687-.10155.08984-.0586.08594-.0625.07422-.07422.08984-.05859.22266-.22266.0586-.08593.07421-.07422.11719-.17969.0586-.08594v-.14844l-.07423-.07421-.10156-.04688-.10547-.04297-.10156-.04297-.0586-.08984-.04687-.10547-.02734-.11719.08984-.05859.11719-.03125.10156-.04297.17969-.11719.14844-.14843.01172-.13282-.01172-.10546-.08985-.0586-.1328.01563h-.14845l-.1328.01562-.13282-.01562-.1211-.03125-.08593-.0586-.07422-.07422-.0586-.08984-.0625-.08594-.11718-.17969-.0586-.08593.03125-.1211.08594-.05859.1211-.03125.05859-.08594v-.1211l-.03125-.11718-.0586-.08984-.05859-.08594-.04687-.10547-.02735-.11719-.01562-.1328.0586-.08985.07421-.07422.08984-.0586.1172-.17968.07421-.07422.0586-.08594.14843-.14844.1211-.03125.1328-.01562.13282.01562.07422.07422.04297.10547.01562.13281-.03125.1172-.11719.03124-.1328.01172-.14844.14844-.04297.10547-.04688.10156-.02734.1211-.03125.11718v.14844l.03125.11719.04297.10546.05859.08985.07422.07031.07422.07422.11719.03125.12109.02734.11719-.02734.1328-.01563h.1172l.08984.0586.07422.07422.04687.10546.0586.08594.10156.04688.13281.01562.10547.04297.08594.0586-.01172.10546-.07422.07422-.17969.11719-.05859.08984-.08984.0586-.07032.07422-.07421.07421-.0625.08985-.02735.11719-.01562.1328.01562.13282-.01562.13281v.14844l.01562.13281.02735.1172.03125.12108.07421.07422.08985.0586.08594.0586.08984.05858.11719.03125v.08594l-.10157.04688-.08984.0586-.26563.03124-.11718.02735h-.14844l-.10547.04296-.10156.04688-.0586.08984-.0625.23438-.01171.13281-.03125.1211-.01563.1328v.29298l-.01172.1328.01172.13673.01563.1328.1328.01563.13282.01172.1211.03125.08593.0586.07422.07421.04688.10547.04296.10157.01563.1328v.44532l-.01563.13281v.44532l.03125.26562.02735.11719.01562.13281.03125.11719.08594.21094.03125.26562v.14844l-.03125.11719-.02734.11718-.03125.1211-.02735.11719-.03125.11718-.03125.1211-.01171.1328-.01563.13282.08984.0586.1172-.03125.10155.01562.04688.10547-.03125.26562v.44141l-.04297.10547-.04688.10547-.04296.10156-.04297.10547-.0586.08594-.03125.12109-.04296.11719-.03125.11719-.01563.1328.01563.13282.05859.08984.10547.04688.08594.0586.05859.08593-.01172.13672-.03125.11719-.04297.10156v.44531l-.01562.13281v.14844l-.03125.11719-.04297.10547-.02735.11719-.04687.10546-.04297.10157-.03125.12109-.02734.11719-.03125.13281-.03125.11719-.02735.11719-.04297.10546-.03125.1172-.03125.12108-.01171.13282-.01563.13281v.29688l.02734.11718v.14844l.04688.39844.02734.11719.0586.08984.12109.03125h.14844l.13281-.01563.0586.08985v.11719l-.0586.08984-.08984.0586-.10157.04296-.10546.04688-.08985.05859-.08594.0586-.13671.01562-.1172-.03125-.1328-.01563-.10157.04688-.0625.08594-.01172.13671-.01562.13282-.03125.11719-.02735.11718-.01562.13281-.03125.1211v.29687l.01563.13282.03125.11718v.14844l.01171.13281v.14844l-.02734.11719-.04688.10156-.02734.1211-.03125.11718-.0586.08985-.07421.07421-.10156.04297-.10547.04688-.11719.02734-.1211.03125-.10156-.04687.0586-.08594.10547-.04688.02734-.11718.03125-.11719.02734-.1211.03125-.11718v-.14844l.01563-.13281-.03125-.11719-.04297-.10547-.10547.01563-.07422.07422-.10156.04296-.08984.0625-.07422.07422-.04297.10157-.01563.1328-.03125.1172L304.25 426l-.03125.11719-.02734.11719-.03125.12109-.02735.11719-.03125.11718-.04297.10547-.08984.0586h-.08984l-.1172-.03125-.03124-.08594.01562-.13672-.03125-.11719v-.14844l-.01171-.1328v-.14844l-.0625-.23438-.02735-.1211-.04297-.10156-.04687-.10546-.0586-.08594-.05859-.08985-.04297-.10546-.0625-.08594-.14844-.14844-.0703-.07422-.10548-.04687-.10547-.04297-.10156-.04297-.29687-.29688-.08985-.07421-.08594-.0586-.10546-.04297-.08985-.0625-.08594-.0586-.10546-.04296-.08985-.0586-.08594-.0625-.07421-.0703-.10547-.04688-.08594-.0586-.10547-.04296-.08984-.0625-.10156-.04297-.10547-.04297-.08594-.0586-.10547-.04687-.10547-.04297-.10156-.04687-.08985-.0586-.10156-.04297-.10547-.04296-.08984-.0625-.11719-.02735-.13281-.01562-.13281.01562H299.75l-.13281.01563-.11719-.03125-.08984-.0586-.07422-.07422-.08985-.05859-.10156-.04688h-.14844l-.12109-.02734-.10156-.04297-.07422-.07422-.11719-.17968-.08984-.0586-.10156-.04297-.08985-.0625-.10547-.04296-.08984-.0586-.08594-.0586-.10547-.04687-.0586-.08594-.05858-.08984-.04297-.10547-.04688-.10156-.07422-.07422-.08594-.0586-.07421-.07421-.08985-.0586-.22265-.22265-.04297-.10547-.03125-.26563.10547-.04296h.14453l.10547.04296.07421.07422.08985.0586.08594.0586.10546.04687.08985.05859.14844.14844.0703.07422.14845.14843.0625.08594.07421.07422.08594.0586.07422.07421.08985.0625.08984.0586.08594.05859.26953.17578.10156.04688.10547.04296.10156.04297.04688-.07421.05859-.08594.07422-.07422.07031-.07422.10547.04297.07422.07422.0586.08984.04296.10156.04688.10547.04296.10547.1211.02735.11719-.02735.07421-.08984.04297-.10547.0586-.08985.07422-.07421.10546-.04297.1172-.02735.1328.01172.08985.0586.14844.14843.05859.08985.04297.10547.04687.10156.04297.10547.04297.10156.10547.04688.10547.04296.13281.01563.08594-.0586.0586-.08984.07421-.07422.10547-.04297.11719.02735.10547.04687.10156.04297.10547.04297.10156.04688.17969.11718v.11719l-.01563.13281.01563.13281.01562.13672.0586.08594.10156.04688.1211.02734.11718.03125h.14844l.11719-.03125.05859-.08984.17969-.1172.05859-.08983.07422-.07422.0586-.08594.11718-.17969.17969-.11719.11719.03125.08984.0586.04297.07422-.01563.1328v.1172l.08985.05859h.14843l.13282-.01563.1328-.01171.26563-.03125.10547-.04297.11719-.03125.1211-.02735.07421-.07421.07031-.07422.0625-.08985-.01562-.10547-.04688-.10156-.10156-.04297-.10547-.01562-.11718.02734-.26563.03125h-.14844l-.07421-.07422-.08985-.0586-.11719-.03124-.11718-.02735-.13282-.01562h-.14843l-.13282.01563h-.29687l-.10547-.04688-.14844-.14844-.04297-.10156-.05859-.08984.22266-.22266.08593-.0586.10547-.04296.11719-.03125.13281-.01563.13281.01563.13672.01562.10157.04297.1328-.01172.08985-.0625.10156-.04297.0625-.08984-.04687-.10156-.08984-.0586-.1172-.03125-.10155-.04296-.0586-.08985-.0625-.08984v-.11719l.01563-.13281.10547-.04688.07421-.07031v-.1211l-.08984-.05859-.03125-.11719.08985-.05859.07421-.07422.04297-.10547.0586-.08984.04687-.10156.01563-.13281v-.14844l-.04688-.10547-.04297-.10156-.08984-.0586-.13281-.01562-.10157-.04297-.13671-.01563-.1172-.03125h-.4453l-.13282-.01562-.13281-.01172-.13281-.01563-.11719-.03125h-.14844l-.13281-.01562-.13281-.01172-.26563-.03125-.1211-.04297-.08593-.0586-.07422-.07421v-.14844l.01172-.13281.10547-.04688.10156-.04296.13281-.01563h.15235l.13281-.01562h.29297l.1211.03125.10156.04296.08984.0586.23438.0625.12109-.04688.08984-.05859.10156-.04297.13282-.01562.10547.04296.10156.04688.13281.01172.1211-.02735h.14453l.12109-.03125.11719-.02734.10547-.04687.07421-.07422.08594-.0586.14844-.14843.0586-.08594.04687-.10547.02734-.11719.01563-.10547-.10156-.04296-.08985-.0586-.11719-.03125-.10546-.04297-.08985-.0625-.07422-.08594-.07422-.07421-.10156-.04297-.10547-.04688-.10156-.04297-.0586-.08984-.04687-.10156-.08594-.21094-.0625-.08594-.05859-.08984-.07422-.07422-.08594-.0586h-.26953l-.11719.03126-.08984.05859-.10156.04297-.13281.01562-.10547-.01562-.02735-.11719-.0625-.08984-.11718-.03125-.10157-.04297-.14843-.14844-.03125-.11719-.01563-.10546.07422-.07422.17969-.1172.11719-.02733.11718-.03125.13672.01562.10156.04297.10547.04297.10156.04687.10547.04297.1172.03125.1328.01563.1172.02734.1328.01563.10547-.01563.08985-.0586-.07422-.07421-.10547-.04297-.07422-.07422-.07422-.08984-.14844-.14844-.08593-.0586-.08985-.05859-.07422-.07422-.08984-.0586-.10156-.04687-.1211-.02734-.10156-.04688-.10547-.04296-.11719-.03125-.10156-.04297-.1211-.03125h-.14843l-.11719.03125-.10546.04297-.08594.0625-.17969.11718-.08594.0586-.08984.0586-.10547.04687-.08594.05859-.10547.04297-.10156.04297-.10547.04687-.07422.07422-.05859.08985-.0586.08593-.04687.10547-.0586.08594-.07421.07422-.13281-.01172-.1172-.03125h-.11718l-.07422.07422-.08984.0586-.07422.07421-.08984.0586-.08594.05859-.10547.04687-.10156.04297-.13672.01563-.10156-.04297-.14844-.14844-.10547-.04688h-.08594l-.10547.04688-.10156.04297-.1211.03125-.11718-.03125-.07422-.07422v-.11719l.03125-.1211.07422-.0703.0586-.08985.07421-.07422.11719-.03125.10547-.04296h.29297l.13281-.01563.13672-.01563.10156-.04296.08985-.0586.10156-.04687.08984-.0586.13281-.01171.08985.05859.13281.01172.08984-.0586.08594-.05859.10547-.04297.08984-.0586.08594-.0625.08985-.05859.14843-.14843.0586-.08594.05859-.08985.10547-.04296.13281-.01563.11719.02735.1211.03125.05859-.0586.05859-.08984.03125-.26563.02734-.11719.10547.01172.13281.01563.10157-.04297.08984-.0586.0586-.08984.07421-.07422.0586-.08984.04687-.10156.01172-.13281-.01172-.13282-.04687-.10547-.14844-.14843-.0586-.08985-.05859-.08594-.04297-.10546v-.44532l.01563-.1328v-.14845l.01172-.1328-.0586-.0586-.08984.0586-.10156-.04298-.17969-.11719-.08594-.05859-.0625-.08984-.0586-.08985-.07421-.07421-.08594-.0586-.1211.03125-.10155.01172-.10547.04688-.08594.05859-.10547.04297-.14844.14844-.08984.05859-.08594.0586-.08984.0625-.10547.04296-.13281.01563v-.1211l.10547-.04297.11718-.03125.07422-.0703.04297-.10548v-.14844l-.02734-.11718-.14844-.14844-.13281-.01563h-.14844l-.11719.03125-.10547.04297-.10156.04297-.08984.0625-.11719.02735-.07422-.07422.01172-.13281-.04297-.10157-.04297-.10547-.08984-.05859-.11719.02734-.1211.03125-.11718.03125-.10156.04297-.1211.03125-.10156.04297-.10547.04297-.08984.0586-.10156.01562v-.11719l.01562-.13281-.0586-.08985-.07421.04297-.14844.14844-.0586.08985-.07421.07421-.04688.10547-.04296.10156-.07422.07422-.0586.08985-.07422.07422-.05859.08593-.07422.07422-.08984.0625-.07422.07031-.07422.07422-.10156.01563-.13281.01562-.10547-.04296v-.1211l.14843-.14844.04297-.10156.0586-.08984.04687-.10156.04297-.10547.0586-.08985.03124-.11719.04297-.10156.03125-.1211.02735-.11718.04687-.10547.04297-.10156.04297-.10547.07422-.07031.08984-.0625.08985-.0586.10156-.04296h.29687l.26563-.03125.10547-.04297-.07422-.07422-.11719-.03125-.10547-.04297-.08984-.0586-.10156-.04687-.08985-.0586-.10156-.04296-.10547-.04297-.08984-.0625-.08594-.0586-.10547-.04296-.10156-.04297-.1211-.03125-.11718-.03125-.10157-.04297L297.5 410.25l-.10156-.04297-.08985-.0586-.04296-.10546-.01563-.13281.10156-.04297.13281-.01563.13672.01563.13282-.01563.10156-.04297.0586-.08984.01562-.10547-.08985-.0586-.07421-.07421-.10157-.04297-.08984-.0586-.14844-.14843-.04297-.10547-.01562-.13281v-.29297l-.0586-.08985-.08984-.05859-.07422-.07422-.04297-.10547-.03125-.11718-.0586-.08985-.07421-.07422-.11719-.02734-.07422-.07422-.08984-.0586-.08984-.0625-.08594-.05859-.07422-.07421-.0586-.08594-.04687-.10547-.08594-.0586-.14843-.14843-.19532-.0586-.1328.01563-.10157.04297-.07422.07422-.04688.10156-.04296.10547-.0586.08984-.0586.08594-.29687.29687-.08984.0586h-.08594l-.0625-.08594-.04297-.10547.03125-.11719.0586-.08984.02734-.11719-.01172-.13281-.08984-.0625-.10547.04688-.11719.02734-.11719.03125-.26953.17578-.10156.04688-.11719.02734-.10546.04687-.08985.0586-.10156.04297-.0586-.08594-.04687-.10547.01563-.13281.04687-.10547.07031-.07422.07422-.07031.0586-.08985v-.14843l-.04297-.10547h-.23829l-.10156.04687-.03125.11719-.02734.11719-.03125.1211-.07422.04296-.13281.01563-.07422-.04688-.04297-.10156-.04297-.10547-.04687-.10156-.04297-.10547-.1211.03125-.10156.04297-.13281.01562-.11719.03125-.10547.04297-.08984.0586-.10156.04687-.1211.02734-.13281.01563-.10156-.04297-.0586-.08985-.04687-.10546-.04297-.10157-.04297-.10546v-.1172l.0586-.08984.08593-.05859.17969-.11719.10156-.04687.10547-.04297.10547-.0586.10156-.04296.08985-.0625.10156-.04297.10547-.0586.10156-.04687.08984-.0586.10547-.04296.10156-.04297.08985-.0625.10156-.04297.13672-.01563.11719.03125.10156.04297.1211.03125.10156.04297.10546.04688.10157.04296.10547.04297.10156.04688.10547.04297.10156.04297.10547.04687.08594.0586.10546.04296.1172.03125.10546.04297.10156.04688.08985.0586.10547.04296.10156.04297.10547.04687.11719.02735.10156.04687.1211.02735h.14843l.08594-.0586.01562-.10156.0586-.08984-.02735-.1172-.07422-.07421-.11719-.17969-.07421-.07422-.08985-.07421-.17969-.1172-.08593-.05859-.10547-.04296-.10156-.04688-.26954-.17578-.05859-.08985-.07422-.07421-.0586-.08985-.04296-.10156-.03125-.11719-.01563-.13672v-.5625l-.01171-.1328-.01563-.13282-.03125-.11719-.01562-.13281-.01172-.13281-.03125-.1211-.22266-.22265-.0586-.08594-.01562-.10547.03125-.11719.13281-.01562v-91.41406H172.9922v1.45312l-.0586.23438-.35156 1.05078-.17187.52343-.1172.34766-.17577.41016-.11719.17187-.23438.29297-.23046.0586h-.35157l-.11718.05859-.23047.40625v.29297l.11719.17578.23046.23047.1172.23437.64062.75781.29297.46485.17578.23437.23047.35156.23437.34766.64063.8164.17578.46485.17187.41016.11719.69531.17578.46875.11719 1.39844.0586.46484v.875l.11718 1.04688v4.78125l-.0586.46484-.35156 1.28125-.17578.52344-.11328.41015-.35156.9297L172.93359 336l-.23437.58203-.11719.17578-.17187.34766-.17578.40625-.35157.8164-.0586.29297-.11327.29297-.11719.28906-.0586.17579-.11718.875-.0586.40625-.05859.11718-.0586.17579-.05859.17187-.23047.52734-.11718.17188v.23437l-.11719.23438-.0586.17187-.17577.58594v.28906l-.0586.17579v.29296l-.0586.11329-.05859.52734v.17187l-.05468.23438v2.6211l-.17578.8164-.1172.17578-.17577.23438-.1172.17187-.11327.23438-.58594.93359-.23047.28906-.29297.46485-.17578.23437-.28906.35156-.35156.69922-.11328.23047-.17579.41016-.17578.23046-.40625.52735-.8164.69922-.29297.17187-.28906.23438-.17579.11719-.17578.17578-.52344.40625-.52734.17578-.17187.17578-.23438.05469-.64062.17578h-.75782m12.21094 31.02344l-1.07422.44921.35938.89454 1.25-.71485.44531-.53906-.98047-.08985"/><path fill="#d3d3d3" fill-opacity="0" fill-rule="evenodd" d="M201.50781 416.59766h-.89453l.44922.6289.98047.35938.80469-.08985.4453-.98828-.17577.08985-.71485-.35547-.89453.35547m154.6211 59.0703l-.0586-.52343v-.29297l.11328-.29297.0586-.23046.46875-.46875h.11328l.11719-.11329.11718-.05859h.17579l.23437-.0586h.34766l.23437.0586.11719.0586.23047.17187.0586.17578.11718.58203v.29297l-.11719.17578-.17187.28906-.17579.17579-.52734.52343-.23047.23438-.11719.0586h-.17578l-.11718-.0586-.40625-.29297-.17579-.11719-.11718-.0586-.0586-.11327-.05468-.1172m6.64062-10.95702l-.0586-.17188v-1.10937l.0586-.17188.17578-.0586.17188-.05858h.17578l.23437-.0586.1172.0586.05858.69921-.05859.17188-.11719.17578-.11718.0586-.23438.52343-.11328.0586h-.23438l-.05859-.1172m9.61328-14.39062l-.11719-.17578v-.69922l.29297-.875.1172-.17187.17577-.35156.11328-.23047.1172-.29297.35155-.75781.1172-.23047.17187-.23438h.17578l.11719-.0586h.64062l.11719.0586.23437.23438.17188.11328.35156.29297.11719.11718.11328.17579v.11328l.11719.05859.11718.11719v.69922l-.05859.17578v.23047l-.0586.17578-.34765 1.05078-.11719.23047-.11719.23437-.11718.0586-.23047.23437-.64063.28906h-.875l-.41015-.11718-.64063-.46485"/><path fill="none" stroke="#bebebe" stroke-linecap="round" stroke-linejoin="round" stroke-miterlimit="10" stroke-width=".5" d="M467.95703 311.69531H144.02734v168.625h323.9297v-168.625"/><g clip-path="url(#a)"><path fill="#fff" fill-opacity="0" fill-rule="evenodd" d="M144 475.89063v4.4375h.0039H144V311.67188h.0039H144v164.21875"/></g><g clip-path="url(#b)"><path fill="#fff" fill-opacity="0" fill-rule="evenodd" d="M144.0039 480.32813V311.67188h75.44923V415.6328l-3.09766 2.5586-1.33984 1.13671-2.54688 3.30079-1.89453 1.60156-4.4375.3086-4.4375-.36329-4.4375 1.30469-1.94922 1.58984-2.49219 1.1836-4.4375 1.53515-4.4375 1.57422-.33594.14453-4.10156 1.58594-4.35547 2.85156-.08593.05078-4.4375.23829-4.4375 1.71093-4.4375-.71875-2.9922 3.15625-1.1875 4.4375-.2578 1.14453-3.9336 3.29688-.50781 2.08203-.83594 2.35547.83594 4.0586.04297.3789 3.39844 4.4375 1 .59765 4.4375 2.02735 4.4375-.58594 4.4375-1.02344 4.4375 1.15625 4.4414.03125 4.4375-.09375 4.4375-1.58984 4.4375.13281 1.35156-.65234 3.08985-.73438 4.4375-.5664 4.4375-.67578 4.4375-.87891 4.22656-1.58203.21484-.04297 4.4375-1.59375 4.4375-1.4961 2.27344-1.30468 2.16406-.57031 4.4375-3.28516.54688-.58203 3.79297-4.4414.10156-.14454 4.4375-.25781 4.4375-.54688 3.28516-3.48828 1.15234-3.85547 4.4375 2.71094 4.4414-.07812 3.04688-3.21485.44531-4.4375-3.49218-2.90234-4.4414-.42188-4.17579 3.32422-.26172 2.14453-.6875-2.14453-3.75-1.9414-4.4375-2.3711-4.4375.11328-.27734-.23828-2.41797-4.4414-1.7461-2.625-2.16406-1.8125-2.27344-1.14454-4.4375-.91796-4.4375-.4961V311.67187h57.69922v116.96485l-4.4414.86328-4.4375.2539-2.71875 1.75391 2.71875 1.53516 4.4375.36328 4.4414.86328.85547 1.67578 3.58203 3.52735 3.96875-3.52735-2.23437-4.4375-1.73438-1.54687-4.4375-1.32422V311.67187h26.62891v119.11329l-1 .72265 1 .79297.73438-.79297-.73438-.72265V311.67187h48.82031v125.94141l-2.83984 2.76953 2.83984 2.85547 3.1914-2.85547-3.1914-2.76953v-125.9414h17.7539v131.3203l-2.09765 1.82813 1.48047 4.4414.61719 1.73048 4.4375 2.36328 4.4414-2.21485 4.4375 1.1875 2.23438-3.0664 2.20313-3.66016.69921-.78125-.69921-.6875-1.94141.6875-2.4961.94531-4.4375 2.4336-4.4414-3.22656-1.38281-.15235-3.0547-1.82812V311.67188h97.64063v168.65625h-64.2578l-2.3125-2.82422-4.44142-1.2461-4.4375-.22656-1.41796-.14063 1.41796-2.99218 1.51172-1.44531-1.51171-3.95704-.09766-.48046-4.33985-3.53125-1.32421-.91016-3.11329-2.6914-1.61718 2.6914-.4375 4.4414.98828 4.4375 1.0664 2.48829 1.09766 1.94921-1.09765.73438-2.23829 3.70313H144.00391"/></g><path fill="#50fcfc" fill-rule="evenodd" d="M152.875 457.75781l-.83594-4.0586.83594-2.35546.50781-2.08203 3.9336-3.29688.2578-1.14453 1.1875-4.4375 2.9922-3.15625 4.4375.71875 4.4375-1.71094 4.4375-.23828.08593-.05078 4.35547-2.85156 4.10156-1.58594.33594-.14453 4.4375-1.57422 4.4375-1.53515 2.49219-1.1836 1.94922-1.58984 4.4375-1.30469 4.4375.36328 4.4375-.3086 1.89453-1.60155 2.54688-3.30079 1.33984-1.13671 3.09766-2.5586v3.38281l-4.07813 3.61329.6836 4.4414-1.04298 4.21094-3.44921-4.21094-.9922-.41406-2.59374.41406-1.84375.20313-1.52344-.20313-2.91406-.54687-1.19531.54687-3.2422 1.09766-4.4414 2.58984-1.42578.75.55078 4.4375.875 1.21485 2.78906 3.22265 1.65235 3.07031 1.02734 1.3672-1.02734.53124-3.95313 3.91016-.48828.54687-4.4375 3.20313-1.48047.6875-2.95703 1.00781-4.4375-.39844-3.03515-.60937-1.40625-1.58594-4.02344-2.85156 2.83984-4.4414-3.2539-2.71485-4.4375-.27344-4.4375-1.1875-1.7422 4.17578-.8203 4.4414-1.20313 4.4375.39844 4.4375 3.36719 4.00782 4.4375-1.01953 4.4375-1.03125 4.4375 1.52344 4.4414-.09766 4.4375-.14453 4.4375-1.39453 4.4375.84375 4.4414-1.8125 4.4375-.07031 2.27735-.8047 2.16016-.61327 4.4375-.73438 4.4414-1.54687 2.71875-1.54297 1.71875-.97656 4.4375-1.0586 4.4375-1.15234 1.50391-1.25 2.9336-2.5664 1.76171-1.875 2.6797-3.89844 4.4375 1.93359 4.4375-1.46875.9453-1.0039 2.4336-4.4375-3.3789-3.66407-1.19923-.77344-3.23828-2.70312-4.4375.05469-2.08203-1.78907-2.35938-2.79687-1.74218-1.64453-2.69531-2.60938-4.4375.50781-4.4375-1.51171v-3.38282l4.4375.4961 4.4375.91796 2.27343 1.14454 2.16406 1.8125 1.7461 2.625 2.41797 4.4414.27734.23828 4.4375-.11328 4.4375 2.3711 3.75 1.9414.6875 2.14453.26172-2.14453 4.17578-3.32422v2.9922l-.41406.33202-.67969 4.4375 1.09375.76563 4.4414.1914.90626-.95703-.90625-2.8789-2.98828-1.5586-1.45313-.33203v-2.99219l4.4414.42188 3.4922 2.90234-.44532 4.4375-3.04687 3.21485-4.4414.07812-4.4375-2.71094-1.15235 3.85547-3.28516 3.48828-4.4375.54688-4.4375.25781-.10156.14453-3.79297 4.4414-.54688.58204-4.4375 3.28516-2.16406.5703-2.27344 1.3047-4.4375 1.49609-4.4375 1.59375-.21484.04297-4.22656 1.58203-4.4375.8789-4.4375.67579-4.4375.5664-3.08984.73438-1.35157.65234-4.4375-.13281-4.4375 1.58984-4.4375.09375-4.4414-.03125-4.4375-1.15625-4.4375 1.02344-4.4375.58594-4.4375-2.02735-1-.59765-3.39844-4.4375-.04297-.3789"/><path fill="#00e8fc" fill-rule="evenodd" d="M158.38672 458.13672l-.39844-4.4375 1.20313-4.4375.8203-4.4414 1.7422-4.17579v11.0039l-1.01563 2.05079.73047 4.4375.28516.33594.86328-.33594 1.08203-4.4375-1.94531-2.05078v-11.0039l4.4375 1.1875 4.4375.27343 3.2539 2.71484-2.83984 4.4414 4.02344 2.85157 1.40625 1.58594 3.03515.60937 4.4375.39844 2.95703-1.00781 1.48047-.6875 4.4375-3.20313.48828-.54687 3.95313-3.91016 1.02734-.53125-1.02734-1.36719-1.65234-3.0703-2.78907-3.22266-.875-1.21485-.55078-4.4375 1.42578-.75 4.4414-2.58984 3.2422-1.09766 1.1953-.54687v2.9336l-4.4375 1.625-.66796.42577.66797 2.98438 4.4375 1.07812 4.4375-.69922 2.95312-3.36328-2.95312-1.40234-4.4375-.64844v-2.9336l2.91406.54688 1.52344.20313 1.84375-.20313 2.59375-.41406.99219.41406 3.44922 4.21094 1.04296-4.21094-.68359-4.4414 4.07813-3.61329 4.4375 1.51172 4.4375-.5078v4.10155l-4.4375.9922-4.4375.17187-.4375 1.78515.4375.57422 4.0625 3.86328-4.0625 4.23828-.5547.19922.39063 4.4375-4.27344 2.46485-2.48046 1.97265-1.96094 1.54688-4.4375 2.6289-.58203.26563-3.85547 1.91406-3.85938 2.52344 3.85938 1.25781 4.4375-.5625 4.02734-.69531.41016-.33594 4.4414-3.84765.58204-.25391 3.85547-3.64844 4.4375-.02734 1.3125-.76563-1.3125-1.98047-4.125-2.45703.15625-4.4375 3.96875-3.60156 4.4375 1.22656v1.83594l-1.44532.53906 1.44531 3.02344.60938-3.02344-.60938-.53906v-1.83594l2.67579 2.375 1.76172 2.1875 4.4414-.45312 4.4375 2.5625 4.4375-2.0625 1.46484-2.23438-1.46484-1.59375-4.41406-2.84375-.02344-.01953-4.4375-.04297-4.4414-3.66406-1.21875-.71094-3.21875-2.94922v-4.10156l2.6953 2.60938 1.7422 1.64453 2.35937 2.79687 2.08203 1.78906 4.4375-.05468 3.23828 2.70312 1.19922.77344 3.3789 3.66406-2.43359 4.4375-.9453 1.0039-4.4375 1.46876-4.4375-1.9336-2.6797 3.89844-1.76172 1.875-2.93359 2.5664-1.5039 1.25-4.4375 1.15235-4.4375 1.0586-1.71875.97656-2.71875 1.54297-4.44141 1.54687-4.4375.73438-2.16016.61328-2.27734.80469-4.4375.0703-4.4414 1.8125-4.4375-.84374-4.4375 1.39453-4.4375.14453-4.44141.09766-4.4375-1.52344-4.4375 1.03125-4.4375 1.01953-3.3672-4.00781"/><path fill="#00d4fc" fill-rule="evenodd" d="M161.46875 458.13672l-.73047-4.4375 1.01563-2.05078 1.9453 2.05078-1.08202 4.4375-.86328.33594-.28516-.33594m35.79297-23.64453l-.66797-2.98438.66797-.42578 4.4375-1.625 4.4375.64844 2.95312 1.40234-2.95312 3.36328-4.4375.69922-4.4375-1.07812m4.4375 20.46484l-3.85938-1.25781 3.85938-2.52344 3.85547-1.91406.58203-.26563 4.4375-2.6289 1.96094-1.54688 2.48047-1.97265 4.27343-2.46485-.39062-4.4375.55469-.19922 4.0625-4.23828-4.0625-3.86328-.4375-.57422.4375-1.78515 4.4375-.17188 4.4375-.99219v6.38672l-.53516 1 .53516.23047 4.4375 1.82422.51562-2.05469-.51563-.42187-4.4375-.57813v-6.38672l3.21875 2.94922 1.21875.71094 4.44141 3.66406 4.4375.04297v3l-2.39453 1.45703 2.39453 1.40235 3-1.40235-3-1.45703v-3l.02344.01953 4.41406 2.84375 1.46484 1.59375-1.46484 2.23438-4.4375 2.0625-4.4375-2.5625-4.4414.45312-1.76172-2.1875-2.67578-2.375-4.4375-1.22656-3.96875 3.60156-.15625 4.4375 4.125 2.45703 1.3125 1.98047-1.3125.76563-4.4375.02734-3.85547 3.64844-.58203.2539-4.44141 3.84766-.41016.33594-4.02734.69531-4.4375.5625"/><path fill="#50fcfc" fill-rule="evenodd" d="M228.32813 435.40625l-1.44532.53906 1.44531 3.02344.60938-3.02344-.60938-.53906"/><path fill="#00c4fc" fill-rule="evenodd" d="M228.32813 431.73828l-.53516-.23047.53516-1 4.4375.57813.51562.42187-.51563 2.05469-4.4375-1.82422m13.31641 5.60938L239.25 435.9453l2.39453-1.45703 3 1.45703-3 1.40235"/><path fill="#00e8fc" fill-rule="evenodd" d="M254.95703 436.71094l-1.09375-.76563.67969-4.4375.41406-.33203 1.45313.33203 2.98828 1.5586.90625 2.8789-.90625.95703-4.4414-.1914"/><path fill="#50fcfc" fill-rule="evenodd" d="M268.27344 433.04297l-2.71875-1.53516 2.71875-1.7539 4.4375-.25391 4.4414-.86328 4.4375 1.32422v3l-2.09765 2.98437 2.09765 2.0664 2.32032-2.0664-2.32032-2.98437v-3l1.73438 1.54687 2.23437 4.4375-3.96875 3.52735-3.58203-3.52735-.85547-1.67578-4.4414-.86328-4.4375-.36328"/><path fill="#00e8fc" fill-rule="evenodd" d="M281.58984 438.01172l-2.09765-2.0664 2.09765-2.98438 2.32032 2.98437-2.32032 2.0664"/><path fill="#50fcfc" fill-rule="evenodd" d="M303.78125 432.30078l-1-.79297 1-.72265.73438.72265-.73438.79297m48.82031 10.9375l-2.83984-2.85547 2.83984-2.76953v2.6211l-.15234.14843.15234.15625.17578-.15625-.17578-.14844v-2.62109l3.1914 2.76953-3.1914 2.85547"/><path fill="#00e8fc" fill-rule="evenodd" d="M352.60156 440.53906l-.15234-.15625.15234-.14844.17578.14844-.17578.15625"/><path fill="#50fcfc" fill-rule="evenodd" d="M369.73828 449.26172l-1.48047-4.4414 2.09766-1.82813 3.05469 1.82812 1.3828.15235v1.9375l-2.55468 2.35156 2.55469 2.24219 2.60547-2.2422-2.60547-2.35155v-1.9375l4.4414 3.22656 4.4375-2.4336 2.4961-.9453 1.9414-.6875.69922.6875-.69921.78124-2.20313 3.66016-2.23438 3.0664-4.4375-1.1875-4.4414 2.21485-4.4375-2.36328-.61719-1.73047"/><path fill="#00e8fc" fill-rule="evenodd" d="M374.79297 451.5039l-2.55469-2.24218 2.55469-2.35156 2.60547 2.35156-2.60547 2.24219"/><g clip-path="url(#c)"><path fill="#50fcfc" fill-rule="evenodd" d="M382.60547 471.45313l-.98828-4.4375.4375-4.44141 1.61719-2.6914 3.11328 2.6914 1.32421.91015V471.25l-.54687.20313.54688.24609.91406-.2461-.91406-.20312v-7.76563l4.33984 3.53125.09765.48047 1.51172 3.95704-1.51171 1.4453-1.41797 2.9922 1.41796.14062 4.4375.22656 4.44141 1.2461 2.3125 2.82421h-2.96484l-3.78906-2.51562-4.4375-1.04297-4.4375.3086-3.69922 3.25h-2.97657l2.23829-3.70313 1.09765-.73438-1.09765-1.94921-1.06641-2.48829"/></g><g clip-path="url(#d)"><path fill="#00e8fc" fill-rule="evenodd" d="M384.41016 480.32813h3.76953l4.36719-2.33204 4.36718 2.33204h3.85938l-3.78906-2.51563-4.4375-1.04297-4.4375.3086-3.69922 3.25"/></g><path fill="#fff" fill-opacity="0" fill-rule="evenodd" d="M388.10938 471.25l-.54688.20313.54688.24609.91406-.2461-.91406-.20312"/><g clip-path="url(#e)"><path fill="#00d4fc" fill-rule="evenodd" d="M388.17969 480.32813h2.30078l2.0664-1.10547 2.07032 1.10546h2.29687l-4.36719-2.33203-4.36718 2.33204"/></g><g clip-path="url(#f)"><path fill="#00c4fc" fill-rule="evenodd" d="M390.48047 480.32813l2.0664-1.10547 2.07032 1.10546h-4.13672"/></g><g clip-path="url(#g)"><path fill="#fff" fill-opacity="0" fill-rule="evenodd" d="M467.9961 480.32813H468V311.67188h-.0039H468v168.65625h-.0039"/></g><path fill="#fff" fill-opacity="0" fill-rule="evenodd" d="M240.6836 432.46094l5.17187 2.71875 4.63672-8.8164-5.16797-2.71876-4.64063 8.8164"/><path fill-rule="evenodd" d="M247.5664 426.89453l.44923.23828-2.9297 5.57031-.6953-.36718 2.08984-3.97266-1.23047-.64453.25781-.49219.52735.20313.25.07031.24218.02734.2461-.03125.2539-.10546.26172-.19532.27735-.30078"/><path fill="#fff" fill-opacity="0" fill-rule="evenodd" d="M202.9336 460.23438l7.83593-1.17188-1.5039-10.07813-7.83985 1.17188 1.50781 10.07813"/><path fill-rule="evenodd" d="M204.15234 451.60156l3.25-.48437.10938.73047-2.60938.39062.03907 1.82031.19922-.1953.24609-.17188.3086-.13282.375-.08984.32421-.02344.34766.03516.35156.09765.33984.16407.3125.2461.14063.15624.125.17578.11328.20313.09766.22656.07422.25.05468.27734.03125.44532-.03906.42968-.11328.40625-.1875.3711-.26172.32422-.16016.14062-.17968.125-.19532.10938-.21875.09375-.23437.0703-.25781.05079-.46485.03516-.41015-.04297-.35547-.11328-.30469-.16797-.25781-.22656-.21094-.26954-.17578-.30859-.14063-.33594.77735-.11719.11719.21485.1289.1914.14844.16407.16797.1289.1836.09766.19921.0625.21875.02344.23047-.01563.3086-.07031.26562-.11328.22656-.15235.17969-.1953.13281-.23829.07813-.27734.03125-.3164-.02735-.35938-.0586-.25782-.10155-.25-.13672-.23046-.1797-.20313-.21874-.16406-.25781-.11328-.30078-.0547-.33985.01563-.32812.08204-.26172.15234-.24219.22265-.26953.3125-.6875.10547-.04688-3.45703"/><g clip-path="url(#h)"><path fill="none" stroke="#000" stroke-linecap="round" stroke-linejoin="round" stroke-miterlimit="10" stroke-width=".5" d="M147.50781 480.13672l-7.01562.38281"/></g><g clip-path="url(#i)"><path fill="none" stroke="#000" stroke-linecap="round" stroke-linejoin="round" stroke-miterlimit="10" stroke-width=".5" d="M147.50781 480.13672l1.26953 2.10156"/></g><g clip-path="url(#j)"><path fill="none" stroke="#000" stroke-linecap="round" stroke-linejoin="round" stroke-miterlimit="10" stroke-width=".5" d="M146.48828 480.1914l.63281 1.05079"/></g><g clip-path="url(#k)"><path fill="none" stroke="#000" stroke-linecap="round" stroke-linejoin="round" stroke-miterlimit="10" stroke-width=".5" d="M160.82422 480.19531l-7.01953.26953"/></g><g clip-path="url(#l)"><path fill="none" stroke="#000" stroke-linecap="round" stroke-linejoin="round" stroke-miterlimit="10" stroke-width=".5" d="M160.82422 480.19531l1.23437 2.11719"/></g><g clip-path="url(#m)"><path fill="none" stroke="#000" stroke-linecap="round" stroke-linejoin="round" stroke-miterlimit="10" stroke-width=".5" d="M159.80469 480.23438l.61719 1.05859"/></g><g clip-path="url(#n)"><path fill="none" stroke="#000" stroke-linecap="round" stroke-linejoin="round" stroke-miterlimit="10" stroke-width=".5" d="M174.14453 480.2539l-7.02734.14844"/></g><g clip-path="url(#o)"><path fill="none" stroke="#000" stroke-linecap="round" stroke-linejoin="round" stroke-miterlimit="10" stroke-width=".5" d="M174.14453 480.2539l1.19531 2.14454"/></g><g clip-path="url(#p)"><path fill="none" stroke="#000" stroke-linecap="round" stroke-linejoin="round" stroke-miterlimit="10" stroke-width=".5" d="M173.1211 480.27734l.59765 1.07032"/></g><g clip-path="url(#q)"><path fill="none" stroke="#000" stroke-linecap="round" stroke-linejoin="round" stroke-miterlimit="10" stroke-width=".5" d="M187.45703 480.24219l-7.02344.17187"/></g><g clip-path="url(#r)"><path fill="none" stroke="#000" stroke-linecap="round" stroke-linejoin="round" stroke-miterlimit="10" stroke-width=".5" d="M187.45703 480.24219l1.20703 2.13672"/></g><g clip-path="url(#s)"><path fill="none" stroke="#000" stroke-linecap="round" stroke-linejoin="round" stroke-miterlimit="10" stroke-width=".5" d="M186.4375 480.26563l.60156 1.0703"/></g><g clip-path="url(#t)"><path fill="none" stroke="#000" stroke-linecap="round" stroke-linejoin="round" stroke-miterlimit="10" stroke-width=".5" d="M200.77344 480.30078l-7.02735.05469"/></g><g clip-path="url(#u)"><path fill="none" stroke="#000" stroke-linecap="round" stroke-linejoin="round" stroke-miterlimit="10" stroke-width=".5" d="M200.77344 480.30078l1.16797 2.16016"/></g><g clip-path="url(#v)"><path fill="none" stroke="#000" stroke-linecap="round" stroke-linejoin="round" stroke-miterlimit="10" stroke-width=".5" d="M199.75 480.3086l.58594 1.07812"/></g><g clip-path="url(#w)"><path fill="none" stroke="#000" stroke-linecap="round" stroke-linejoin="round" stroke-miterlimit="10" stroke-width=".5" d="M214.08203 480.08984l-7.01172.48047"/></g><g clip-path="url(#x)"><path fill="none" stroke="#000" stroke-linecap="round" stroke-linejoin="round" stroke-miterlimit="10" stroke-width=".5" d="M214.08203 480.08984l1.29688 2.08203"/></g><g clip-path="url(#y)"><path fill="none" stroke="#000" stroke-linecap="round" stroke-linejoin="round" stroke-miterlimit="10" stroke-width=".5" d="M213.0625 480.16016l.64844 1.03906"/></g><g clip-path="url(#z)"><path fill="none" stroke="#000" stroke-linecap="round" stroke-linejoin="round" stroke-miterlimit="10" stroke-width=".5" d="M227.40234 480.375l-7.02343-.08984"/></g><g clip-path="url(#A)"><path fill="none" stroke="#000" stroke-linecap="round" stroke-linejoin="round" stroke-miterlimit="10" stroke-width=".5" d="M227.40234 480.375l1.125 2.17969"/></g><g clip-path="url(#B)"><path fill="none" stroke="#000" stroke-linecap="round" stroke-linejoin="round" stroke-miterlimit="10" stroke-width=".5" d="M240.70703 480.04688l-7.0039.5625"/></g><g clip-path="url(#C)"><path fill="none" stroke="#000" stroke-linecap="round" stroke-linejoin="round" stroke-miterlimit="10" stroke-width=".5" d="M240.70703 480.04688l1.32031 2.0703"/></g><g clip-path="url(#D)"><path fill="none" stroke="#000" stroke-linecap="round" stroke-linejoin="round" stroke-miterlimit="10" stroke-width=".5" d="M254.03516 480.27344l-7.02735.10937"/></g><g clip-path="url(#E)"><path fill="none" stroke="#000" stroke-linecap="round" stroke-linejoin="round" stroke-miterlimit="10" stroke-width=".5" d="M254.03516 480.27344l1.18359 2.15234"/></g><g clip-path="url(#F)"><path fill="none" stroke="#000" stroke-linecap="round" stroke-linejoin="round" stroke-miterlimit="10" stroke-width=".5" d="M267.33984 480.05469l-7.0078.54687"/></g><g clip-path="url(#G)"><path fill="none" stroke="#000" stroke-linecap="round" stroke-linejoin="round" stroke-miterlimit="10" stroke-width=".5" d="M267.33984 480.05469l1.31641 2.07031"/></g><g clip-path="url(#H)"><path fill="none" stroke="#000" stroke-linecap="round" stroke-linejoin="round" stroke-miterlimit="10" stroke-width=".5" d="M280.60938 479.70313l-6.91407 1.2539"/></g><g clip-path="url(#I)"><path fill="none" stroke="#000" stroke-linecap="round" stroke-linejoin="round" stroke-miterlimit="10" stroke-width=".5" d="M280.60938 479.70313l1.51953 1.92578"/></g><g clip-path="url(#J)"><path fill="none" stroke="#000" stroke-linecap="round" stroke-linejoin="round" stroke-miterlimit="10" stroke-width=".5" d="M293.89844 479.57813l-6.86328 1.5039"/></g><g clip-path="url(#K)"><path fill="none" stroke="#000" stroke-linecap="round" stroke-linejoin="round" stroke-miterlimit="10" stroke-width=".5" d="M293.89844 479.57813l1.58984 1.86718"/></g><g clip-path="url(#L)"><path fill="none" stroke="#000" stroke-linecap="round" stroke-linejoin="round" stroke-miterlimit="10" stroke-width=".5" d="M307.27344 479.94531l-6.98438.76953"/></g><g clip-path="url(#M)"><path fill="none" stroke="#000" stroke-linecap="round" stroke-linejoin="round" stroke-miterlimit="10" stroke-width=".5" d="M307.27344 479.94531l1.38281 2.02735"/></g><g clip-path="url(#N)"><path fill="none" stroke="#000" stroke-linecap="round" stroke-linejoin="round" stroke-miterlimit="10" stroke-width=".5" d="M320.60156 480.10547l-7.01172.44531"/></g><g clip-path="url(#O)"><path fill="none" stroke="#000" stroke-linecap="round" stroke-linejoin="round" stroke-miterlimit="10" stroke-width=".5" d="M319.58203 480.17188l.64453 1.04296"/></g><g clip-path="url(#P)"><path fill="none" stroke="#000" stroke-linecap="round" stroke-linejoin="round" stroke-miterlimit="10" stroke-width=".5" d="M333.91406 480.61719l-7.0039-.57422"/></g><g clip-path="url(#Q)"><path fill="none" stroke="#000" stroke-linecap="round" stroke-linejoin="round" stroke-miterlimit="10" stroke-width=".5" d="M332.89453 480.53125l.48438 1.1289"/></g><g clip-path="url(#R)"><path fill="none" stroke="#000" stroke-linecap="round" stroke-linejoin="round" stroke-miterlimit="10" stroke-width=".5" d="M346.90625 481.82422l-6.35938-2.98828"/></g><g clip-path="url(#S)"><path fill="none" stroke="#000" stroke-linecap="round" stroke-linejoin="round" stroke-miterlimit="10" stroke-width=".5" d="M358.48828 483.53125l-2.89453-6.40234"/></g><g clip-path="url(#T)"><path fill="none" stroke="#000" stroke-linecap="round" stroke-linejoin="round" stroke-miterlimit="10" stroke-width=".5" d="M370.73438 483.82031l-.75391-6.98437"/></g><g clip-path="url(#U)"><path fill="none" stroke="#000" stroke-linecap="round" stroke-linejoin="round" stroke-miterlimit="10" stroke-width=".5" d="M380.28125 481.2539l6.78125-1.85156"/></g><g clip-path="url(#V)"><path fill="none" stroke="#000" stroke-linecap="round" stroke-linejoin="round" stroke-miterlimit="10" stroke-width=".5" d="M393.48047 480.58203l7.01172-.50781"/></g><g clip-path="url(#W)"><path fill="none" stroke="#000" stroke-linecap="round" stroke-linejoin="round" stroke-miterlimit="10" stroke-width=".5" d="M394.5 480.50781l-.65234-1.03906"/></g><g clip-path="url(#X)"><path fill="none" stroke="#000" stroke-linecap="round" stroke-linejoin="round" stroke-miterlimit="10" stroke-width=".5" d="M406.80469 479.98828l6.99219.67969"/></g><g clip-path="url(#Y)"><path fill="none" stroke="#000" stroke-linecap="round" stroke-linejoin="round" stroke-miterlimit="10" stroke-width=".5" d="M407.82031 480.08984l-.46875-1.13672"/></g><g clip-path="url(#Z)"><path fill="none" stroke="#000" stroke-linecap="round" stroke-linejoin="round" stroke-miterlimit="10" stroke-width=".5" d="M420.13672 480.82422l6.95703-.99219"/></g><g clip-path="url(#aa)"><path fill="none" stroke="#000" stroke-linecap="round" stroke-linejoin="round" stroke-miterlimit="10" stroke-width=".5" d="M421.14844 480.67969l-.72266-.99219"/></g><g clip-path="url(#ab)"><path fill="none" stroke="#000" stroke-linecap="round" stroke-linejoin="round" stroke-miterlimit="10" stroke-width=".5" d="M435.73047 477.02734l2.40234 6.60157"/></g><g clip-path="url(#ac)"><path fill="none" stroke="#000" stroke-linecap="round" stroke-linejoin="round" stroke-miterlimit="10" stroke-width=".5" d="M446.94531 481.53516l6.60156-2.41016"/></g><g clip-path="url(#ad)"><path fill="none" stroke="#000" stroke-linecap="round" stroke-linejoin="round" stroke-miterlimit="10" stroke-width=".5" d="M447.90625 481.1836l-.91406-.82032"/></g><g clip-path="url(#ae)"><path fill="none" stroke="#000" stroke-linecap="round" stroke-linejoin="round" stroke-miterlimit="10" stroke-width=".5" d="M460.5664 482.16406l5.9922-3.67187"/></g><g clip-path="url(#af)"><path fill="none" stroke="#000" stroke-linecap="round" stroke-linejoin="round" stroke-miterlimit="10" stroke-width=".5" d="M461.4375 481.6289l-1.0586-.62109"/></g><g clip-path="url(#ag)"><path fill="none" stroke="#000" stroke-linecap="round" stroke-linejoin="round" stroke-miterlimit="10" stroke-width=".5" d="M147.51172 467.01563h-7.02344"/></g><path fill="none" stroke="#000" stroke-linecap="round" stroke-linejoin="round" stroke-miterlimit="10" stroke-width=".5" d="M147.51172 467.01563l1.15234 2.16406m-2.17187-2.16406l.57422 1.08203m13.74218-1.44141l-6.98828.71484m6.98828-.71484l1.3672 2.03516m-2.38282-1.9336l.6836 1.01953m13.60546-1.41015l-6.90625 1.29297m6.90625-1.29297l1.53125 1.91797m-2.53516-1.73047l.76563.96094m13.54297-1.20704l-6.88281 1.41016m6.8828-1.41016l1.5625 1.89063m-2.5625-1.6836l.78126.94532m13.58984-.76172l-6.9961.6289m6.9961-.6289l1.34375 2.05469m-2.35937-1.96485l.67187 1.02735m13.67578-.7461l-7.02734-.11328m7.02734.11328l1.1172 2.1836m12.1953-2.35938l-7.02343.23828m7.02343-.23828l1.22266 2.1289m12.02344-2.70702l-6.88672 1.39453m6.88672-1.39453l1.5586 1.89062m11.68358-2.1836l-6.74218 1.98048m6.74219-1.98047l1.71484 1.7539m11.60156-1.7539l-6.74219 1.98047m6.7422-1.98047l1.71484 1.7539m11.54687-1.92187l-6.63281 2.3164m6.63281-2.3164l1.80078 1.66406m11.3086-2.13281l-6.22657 3.2539m6.22656-3.2539l2.02735 1.38672m-2.9336-.91406l1.01563.6914m13.09375-1.36328l-6 3.65234m6-3.65234l2.10938 1.25m10.84765-1.73828l-5.28515 4.6289m5.28515-4.6289l2.29688.8711m10.84765-1.0547l-4.94531 4.9961m4.94531-4.9961l2.35156.70704m10.69141-.94922l-4.40234 5.48047m3.76172-4.6836l1.20703.23047m11.07422-1.76172l-1.05079 6.94922m.89844-5.9375l1.15625-.40625m9.36328.32422l4.84375 5.08984m-4.14062-4.34765l.39062-1.16407m11.2422 2.08204l6.80077 1.76953m-5.8086-1.51172l-.28515-1.19531m12.4961 1.78906l7.02734.0664m-7.02734-.0664l-1.13282-2.17578m15.85547-.60547l4.21094 5.6289m-4.21094-5.6289l1.04688-2.21875m13.16797 1.73437l2.41015 6.59766m-2.0586-5.63672l.82032-.91406m13.10938-.2539l.48046 7.01171m-.41015-5.99219l1.03906-.64843m8.9336 3.1914l7.02343-.11328m-6.0039.09766l-.58985-1.07422m12.88281 1.0664l7.02735-.0664m-6.0039.0586l-.58594-1.07813"/><g clip-path="url(#ah)"><path fill="none" stroke="#000" stroke-linecap="round" stroke-linejoin="round" stroke-miterlimit="10" stroke-width=".5" d="M147.51172 453.7461l-7.02344-.09766"/></g><path fill="none" stroke="#000" stroke-linecap="round" stroke-linejoin="round" stroke-miterlimit="10" stroke-width=".5" d="M147.51172 453.7461l1.125 2.18359m-2.14453-2.19532l.5586 1.08985m13.77343-.95313l-7.01953-.34375m7.01953.34375l1.04687 2.21875m12.25782-2.6914l-7 .60156m7-.60156l1.33593 2.0586m11.95703-2.26954l-6.95312 1.02344m6.95313-1.02344l1.45312 1.97656m11.77734-2.38672l-6.78125 1.84375m5.79297-1.57422l.83985.89454m13.5078.48828l-6.87108-1.46094m5.87109 1.25l.33984 1.17578m14.03516-1.35547l-6.99219-.67969m6.99219.6797l.9375 2.26562m12.20703-3.74219l-6.65234 2.27344m6.65234-2.27344l1.78906 1.67578m11.47266-1.82422l-6.54297 2.5664m6.54297-2.5664l1.86328 1.59766m11.1836-2.13281l-6.01173 3.64062m6.01172-3.64062l2.10938 1.2578m-2.98047-.72655l1.05078.6289m13.10938-1.20312l-5.95703 3.72656m5.95703-3.72656l2.125 1.22656m-2.9922-.6836l1.0625.61329m13.14063-1.125l-5.99609 3.66406m5.9961-3.66406l2.11328 1.2461m-2.98829-.71485l1.0586.625m13.2539-.9414l-6.24218 3.23437m6.24218-3.23438l2.01954 1.39453m-2.9297-.92187l1.01173.69531m12.96875-1.57031l-5.75 4.03906m5.75-4.03906l2.1875 1.10937m10.33593-1.91797l-4.17187 5.65625m4.17187-5.65625l2.42579.35938m10.21484-.75l-2.82031 6.4375m2.8203-6.4375l2.44532-.1836m10.01172-.0664l-1.10547 6.9375m1.10547-6.9375l2.32422-.79688m-2.48438 1.8047l1.16016-.39845m11.73828-.65625l.04688 7.02735m-.04688-7.02735l2.16016-1.16406m12.98437 1.66406l-3.60937 6.03125m3.08203-5.15234l1.22656.0586m7.625.58984l6.3711 2.97265m-6.3711-2.97265l-.125-2.44922m17.625 7.30469l-1.9961-6.73829m10.82032 3.76954l6.98438-.79688m13.33203.52344l-7.01953-.25m6 .21484l.53515 1.10157m11.9336-4.29688l-3.28907 6.21094m3.28907-6.21094l2.45312-.0039m10-.31641l-1.5664 6.85156m1.33984-5.85547l1.1836-.32031"/><g clip-path="url(#ai)"><path fill="none" stroke="#000" stroke-linecap="round" stroke-linejoin="round" stroke-miterlimit="10" stroke-width=".5" d="M147.44531 441.08203l-6.89062-1.39453"/></g><path fill="none" stroke="#000" stroke-linecap="round" stroke-linejoin="round" stroke-miterlimit="10" stroke-width=".5" d="M147.44531 441.08203l.69922 2.35156m12.66797-2.72265l-6.9961-.65625m6.9961.65625l.94531 2.26562m12.29297-1.78906l-6.83984-1.60937m6.83984 1.60937l.625 2.375m12.78125-3.26562l-7.02344.17187m7.02344-.17187l1.20313 2.14062m12.03125-2.80078l-6.86328 1.4961m5.86718-1.28126l.79297.9375m13.59766-.5039l-7.02344.19922m6.0039-.17188l.60548 1.0664m13.73046-.85156l-7.02343-.28906m6 .2461l.53125 1.10546m13.6914-2.10937l-6.79297 1.80469m5.8047-1.54297l.83593.89843m12.70703-2.57812l-5.27344 4.64453m4.50781-3.96875l1.14844.42969m12.89453-1.14844l-5.1953 4.73047m5.1953-4.73047l2.3086.82422m-3.0625-.13672l1.15234.41406m13.03516-.96484l-5.4336 4.45312m5.4336-4.45312l2.26562.94531m-3.05469-.29687l1.13282.47265M293.04687 438l-5.16015 4.76953M293.04687 438l2.31641.8086m10.97656-.83204l-5.11718 4.8125m5.11718-4.8125l2.32422.78906m-3.07031-.08984l1.16406.39453m13.10547-.84765l-5.53515 4.32421m5.53515-4.32421l2.24219.99609m-3.04688-.36719l1.1211.4961m12.89453-1.25782l-5.32422 4.58594m5.32422-4.58594l2.28515.89063m-3.0625-.22266l1.14454.44531m12.37109-1.64453l-4.17578 5.65235m4.17578-5.65235l2.42969.35938m10.11328-.79297l-2.6289 6.51562m2.6289-6.51562l2.4414-.25781m8.07813.33203l2.96094 6.3711m-2.96094-6.3711l1.48047-1.96094m10.25 3.42578l6.13281 3.4375m-6.13281-3.4375l.05469-2.44922m14.13671 6.91407l4.37891-5.4922m-3.74219 4.69532l-1.20703-.22656m13.08985.13281l5.96875-3.71094m-5.09766 3.17188l-1.0625-.61719m19.64844-2.23828l-6.3164 3.07812m5.39843-2.6289l.99219.72265m11.97656-2.58984l-3.78516 5.91797m3.78516-5.91797l2.44531.19531m12.47266 2.39844l-6.99219.72656m5.97266-.62109l.6875 1.01953m12.33984-3.50781l-4.3789 5.4961"/><g clip-path="url(#aj)"><path fill="none" stroke="#000" stroke-linecap="round" stroke-linejoin="round" stroke-miterlimit="10" stroke-width=".5" d="M147.51172 427.10547l-7.02344-.07422"/></g><path fill="none" stroke="#000" stroke-linecap="round" stroke-linejoin="round" stroke-miterlimit="10" stroke-width=".5" d="M147.51172 427.10547l1.1289 2.17969m-2.14843-2.19141l.5625 1.08984m13.77344-1.14843l-7.02735.0703m7.02734-.0703L162 429.1875m-2.19531-2.14453l.58984 1.07812m13.75-1.09765l-7.02734.08984m7.02734-.08984l1.17969 2.15234m-2.20313-2.14062l.58985 1.07812m13.73047-1.38281l-6.9922.67578m6.9922-.67578l1.35547 2.04687m11.97656-1.58203l-7.02344-.2539m7.02344.2539l1.07031 2.20703m12-3.625l-6.53516 2.58203m5.58203-2.20703l.9336.79688m13.26562-1.33203l-6.39843 2.90234m5.46875-2.48047l.97265.75m13.58203.07422l-7.01562.41406m7.01562-.41406l1.27735 2.09375m12.04297-1.84766l-7.02735-.08203m6.0039.07032l.5625 1.08984m12.96485-3.36328l-5.41015 4.48828m5.41015-4.48828l2.26953.9336m10.75391-1.2422l-4.82422 5.10547m4.82422-5.10547l2.36719.65235m10.9961-.60547l-4.92188 5.01172m4.20703-4.28516l1.17578.35156m13.21484-.66796l-5.64062 4.1914m5.64062-4.1914l2.21485 1.05078m10.21875-1.88672L315.15625 430m3.8789-5.86328l2.44141.23437m11.27344.07422l-4.67578 5.2461m4.67578-5.2461l2.38281.58203m-3.0625.1797l1.1914.29296m13.21876-.60938l-5.51172 4.35547m5.51172-4.35547l2.25.98438m-3.05078-.35156l1.125.49218m13.57031-.05468l-6.66797 2.21484m6.66797-2.21484l1.77734 1.6914m9.29297-3.92578l-2.17968 6.6836m2.17968-6.6836l2.41797-.42187m-2.73437 1.39453l1.20703-.21094m11.3086-.9336l.05468 7.02735m-.05469-7.02734l2.15625-1.16797m-2.14844 2.1914l1.07813-.58593m15.34375 1.39843l-6.17578 3.35547m6.17578-3.35547l2.04687 1.35157m10.69922-2.125l-5.03515 4.90234m5.03515-4.90234l2.33594.75m-3.07031-.03516l2.33594.7461m11.4414-1.71094l-4.49219 5.40234m4.4922-5.40234l2.40234.4961m-3.0586.28905l2.40235.5m10.3164-1.95312l-1.98828 6.73828m1.98828-6.73828l2.40235-.49219m-2.69141 1.47266l1.19922-.2461m11.4336-.8789l-.04688 7.02734m.04687-7.02734l2.17578-1.13672m-2.1836 2.16015l1.08985-.5703m14.33203.2578l-4.24218 5.60547"/><g clip-path="url(#ak)"><path fill="none" stroke="#000" stroke-linecap="round" stroke-linejoin="round" stroke-miterlimit="10" stroke-width=".5" d="M465.6836 424.26563l2.42187.39062"/></g><g clip-path="url(#al)"><path fill="none" stroke="#000" stroke-linecap="round" stroke-linejoin="round" stroke-miterlimit="10" stroke-width=".5" d="M147.3789 412.78906l-6.7578 1.92969"/></g><path fill="none" stroke="#000" stroke-linecap="round" stroke-linejoin="round" stroke-miterlimit="10" stroke-width=".5" d="M147.3789 412.78906l1.70313 1.76563m11.41016-2.30078l-6.35547 3m6.35547-3l1.96484 1.46484m11.19922-1.7539l-6.05078 3.57812m6.05078-3.57813l2.09375 1.28125m11.27344-1.1914l-6.15625 3.39453m5.25781-2.89844l1.02734.66797m13.45703-.52734l-6.69921 2.125M199.6328 413l.8789.85938m10.10938-3.6211l-.08984 7.02735m.07813-6.00391l1.08984-.5625m14.91406 5.27344l-5.44531-4.4375m4.65234 3.79296l-.23828 1.20313m14.6875-1.0586l-6.1289-3.4414m6.1289 3.4414l-.0586 2.45313m13.75391-3.47265l-6.88672-1.39844m6.88672 1.39844l.69532 2.35156m12.65625-2.57813l-6.96094-.94531m6.96094.94531l.85156 2.30078m12.47266-2.36718l-6.98047-.8125m6.98047.8125l.89453 2.28515m12.4375-2.91406l-7.01172.44531m7.01172-.44531l1.28515 2.08984m12.01953-1.53515l-6.99218-.66797m6.99218.66797l.94141 2.26953m11.96094-4.28906l-6.16797 3.37109m5.26953-2.8789l1.02734.67577m13.54297-.19921l-6.8789 1.43359m6.8789-1.4336l1.57032 1.88673m11.8125-1.35157l-7.01563.36719m7.01563-.36719l1.26562 2.10156m11.9961-2.55078l-6.91016 1.26563m6.91015-1.26563l1.52344 1.92578m11.26172-3.23828l-5.85156 3.89063m5.85156-3.89063l2.16016 1.16407m-3.01172-.59766l1.08203.58203m12.0586-2.16015l-3.80079 5.91015m3.80078-5.91015l2.44532.20703m-2.9961.65625l2.44531.20312m11.41407-1.07031l-3.78516 5.92187m3.78516-5.92187l2.4453.19531m-2.99608.66406l1.22265.09766m12.82031-.83594l-4.14062 5.67578m4.14062-5.67578l2.4297.34766m-3.03126.48047l1.21485.17187m12.17578-1.3164l-3.08594 6.3125m3.08594-6.3125l2.44922-.08594m-2.89844 1.0039l1.22656-.04296m12.01172-1.08204l-2.03516 6.72657m2.03516-6.72657l2.40625-.47656m10.48047.375l-1.17969 6.92969m1.17969-6.92969l2.32812-.77344m-2.5 1.78125l1.16407-.38671m11.73437-.67188v7.02734m0-7.02734l2.16406-1.14844m-2.16406 2.17188l1.08203-.57422"/><g clip-path="url(#am)"><path fill="none" stroke="#000" stroke-linecap="round" stroke-linejoin="round" stroke-miterlimit="10" stroke-width=".5" d="M147.10938 398.80078l-6.21875 3.27735"/></g><path fill="none" stroke="#000" stroke-linecap="round" stroke-linejoin="round" stroke-miterlimit="10" stroke-width=".5" d="M147.10938 398.80078l2.02734 1.3789m11.01953-1.80859l-5.6836 4.13672m5.6836-4.13672l2.20703 1.07422m11.22266-.90625l-5.91016 3.80078m5.91016-3.80078l2.14062 1.19922m11.07031-1.35547l-5.70312 4.10938m5.70313-4.10938l2.19921 1.08594m11.75782.59375l-6.98828.7539m5.97265-.64452l.6875 1.01562m9.6914 2.73438l.91407-6.96875m16.35938 3.18359l-7 .60156m7-.60156l1.33203 2.0625m11.97656-1.39844l-6.98828-.72656m6.98828.72656l.92187 2.27344m-1.9375-2.3789l.46094 1.13671m13.875-1.07422l-6.9961-.64062m6.9961.64062l.94922 2.26172M253 400.66406l.47656 1.13281m13.85156-1.74218l-6.98437.76953m6.98438-.76953l1.3828 2.02734m-2.39843-1.91797l.6914 1.01563m13.62891-1.21094l-6.96484.9414m6.96484-.9414l1.4336 1.99219m-2.44532-1.85547l.71485.9961m13.53906-1.51563l-6.8164 1.70312m6.8164-1.70312l1.64063 1.82422m11.64062-1.94532l-6.75 1.94532m6.75-1.94532l1.70703 1.76172m11.65235-1.58594l-6.83985 1.59766m6.83985-1.59765l1.61718 1.84765m-2.60937-1.61719l.80469.92579m13.39062-1.53907l-6.61719 2.35938m6.61719-2.35938l1.8125 1.65625m11.48047-1.72265l-6.57031 2.49218m5.61328-2.1289l.92187.8086m11.21485-3.2461l-2.30078 6.64062m1.96484-5.67187l1.21484-.1914m13.88282.17968l-5.19532 4.73047m5.19532-4.73047l2.3125.82812m-3.06641-.14062l1.15625.41406m12-1.82031l-3.3711 6.16406m3.3711-6.16406l2.45312.02734m-2.9414.8711l2.45312.02734m11.60938-.76953l-3.88672 5.85547m3.88672-5.85547l2.4414.23828m-3.0078.61328l1.22265.1211m13.32422-.39844l-5.21875 4.70312m5.21875-4.70312l2.30859.83984m-3.0664-.15625l1.15234.42188m12.27734-1.66797l-3.92969 5.82812m3.9297-5.82812l2.4375.25781m-3.01173.58984l1.22266.12891m11.38672-1.50781l-1.3711 6.89062m1.3711-6.89062l2.34765-.70703m-2.54687 1.71093l1.17578-.35546m14.42578.64062l-5.54687 4.3164m5.54687-4.3164l2.23828 1m9.60157-2.10938l-2.59766 6.53125m2.59766-6.53125l2.4375-.26953m-2.81641 1.22266l1.22266-.13672"/><g clip-path="url(#an)"><path fill="none" stroke="#000" stroke-linecap="round" stroke-linejoin="round" stroke-miterlimit="10" stroke-width=".5" d="M147.1289 385.52344l-6.2578 3.19922"/></g><path fill="none" stroke="#000" stroke-linecap="round" stroke-linejoin="round" stroke-miterlimit="10" stroke-width=".5" d="M147.1289 385.52344l2.01173 1.40234m11.3203-1.36328l-6.29296 3.1211m6.29297-3.1211l1.9961 1.42578m11.08202-1.83594l-5.8164 3.94532m5.8164-3.94532l2.16797 1.14454m-3.01562-.57422l1.08593.57421m11.9336-2.21093l-3.53125 6.07422m3.53125-6.07422l2.45312.08984m5.73438 1.92969l6.72265 2.03515m-5.74609-1.73828l-.23438-1.20312m18.4922 4.33594l-5.11329-4.82422m5.11328 4.82422l-.64844 2.36718m-.09765-3.0703l-.32422 1.18358m14.875-1.14453l-6.09375-3.49609m6.09375 3.4961l-.07813 2.45312m13.85547-4.00781l-7.01953-.38672m7.01953.38672l1.03125 2.22656m-2.05468-2.28516l.51562 1.11328m13.8086-.87109l-6.98829-.7539m6.98828.7539l.91016 2.27734m-1.92969-2.38671l.45703 1.14062m13.89454-1.34375l-7.02344-.125m7.02344.125l1.11328 2.1836m-2.13281-2.20313l.55468 1.09375m13.76953-1.4414l-7.0039.60546m7.0039-.60547l1.33204 2.0586m-2.35157-1.96875l.66797 1.02734m13.64844-1.27734l-6.96484.92578m6.96484-.92578l1.42578 1.99609m-2.4414-1.85938l.71484.9961m13.50781-1.63672l-6.7539 1.9375m6.7539-1.9375l1.70703 1.76172m-2.6875-1.48047l.85156.88281m13.41016-1.27734l-6.6836 2.16015m6.6836-2.16015l1.76563 1.70703m-2.73829-1.39453l.88282.85547m13.01562-1.99219l-5.90625 3.8086m5.90625-3.8086l2.14453 1.19922m10.64844-1.83203l-4.85937 5.07422m4.85937-5.07422l2.35938.66406m11.5664.11328L354 388.88281m6.08203-3.51953l2.08203 1.30078m-2.96484-.78906l1.03906.65234m12.98828-1.42578l-5.74218 4.04688m5.74218-4.04688l2.1914 1.10547m-3.02343-.51953l1.09375.55469m12.70313-1.5664l-5.03907 4.89452m5.03907-4.89453l2.33593.75m-3.0703-.03906l1.16796.375m12.66406-1.29297l-4.60547 5.3086m4.60547-5.3086l2.39063.54688m-3.0625.22656l2.39062.54687m11.17188-1.63281l-3.75781 5.9375m3.7578-5.9375l2.44532.1836m-2.99219.67968l1.22266.08985m12.8789-.78907L421.5 389.92578m4.23438-5.60547l2.42187.38281m-3.03906.4336l1.21094.1914m11.98828-1.43359l-2.76953 6.45703m2.76953-6.45703l2.4453-.20703m-2.84765 1.14453l1.22266-.10156m13.40234-.26953l-4.58593 5.32422m4.58593-5.32422L454.9336 385m10.12891-1.05469l-3.0039 6.35547m3.0039-6.35547l2.45313-.11328"/><g clip-path="url(#ao)"><path fill="none" stroke="#000" stroke-linecap="round" stroke-linejoin="round" stroke-miterlimit="10" stroke-width=".5" d="M147.13672 372.22266l-6.27344 3.17187"/></g><path fill="none" stroke="#000" stroke-linecap="round" stroke-linejoin="round" stroke-miterlimit="10" stroke-width=".5" d="M146.22266 372.6836l1.0039.70702m13.28516-1.04296l-6.39453 2.92187m6.39453-2.92187l1.94531 1.49218m10.34375-2.79296l-4.34375 5.52343m4.34375-5.52344l2.41797.4336m-3.04688.3711l1.20704.21484m12.16797-1.38672l-3.20313 6.2539m3.20313-6.2539L188 370.64453m11.45703.42188l-4.39453 5.48437m3.7539-4.6875l1.20704.22656m14.0586 1.9297l-7.01563-.42188m7.01562.42187l1.01953 2.23047m12.03125-1.08594l-6.48437-2.71484m6.48437 2.71484l.22266 2.44531m-1.16797-2.83984l.11328 1.22266m14.01172-.53906l-6.21094-3.28907m6.21094 3.28906l.0039 2.45313m-.91015-2.9336l.0039 1.22657m14.4375-1.26172l-6.65234-2.25781m6.65235 2.25781l.39453 2.42188m-1.36328-2.75l.19922 1.21093m14.15234-1.10937l-6.78906-1.80469m6.78906 1.80469l.5586 2.39062m-1.54688-2.65234l.5586 2.39062m13.83593-2.60546l-6.97266-.85157m6.97266.85156l.88281 2.28907m-1.89453-2.41406l.4375 1.14453m13.91797-1.51172l-7.02735.13281m7.02735-.13281l1.1914 2.14453m-2.21484-2.125l.59375 1.07422m13.65625-1.80078l-6.85547 1.54687m6.85547-1.54687l1.60156 1.85937m-2.59765-1.63281l.80078.92969m13.3789-1.60157l-6.58984 2.4375m6.58985-2.4375l1.83203 1.63282m-2.78907-1.27735l.91407.8125m13.29687-1.32031l-6.46875 2.74219m6.46875-2.74219l1.90625 1.54297m-2.84765-1.14453l.95312.77344m13.3164-1.14454l-6.49218 2.6836m6.49219-2.6836l1.89453 1.5625m-2.83985-1.17187l.94532.78125m13.30078-1.20313l-6.46485 2.75m6.46485-2.75l1.91015 1.53907m-2.85156-1.14063l1.91016 1.54297m12.19922-2.25l-6.16797 3.36719m6.16797-3.36719l2.04687 1.34766m-2.94531-.85938l2.05078 1.35156m11.875-2.28515l-5.59375 4.25781m5.59375-4.25781l2.22656 1.02734m-3.04297-.40625l2.23047 1.02735m11.70313-1.88282l-5.19922 4.72656m5.19922-4.72656l2.3086.82422m-3.06642-.13672l1.15625.41406m12.94141-1.07421l-5.25 4.66796m5.25-4.66796l2.30078.85546m-3.0625-.17578l1.14844.4297M426.26563 371.5l-5.29688 4.61719m5.29688-4.61719l2.28906.875m-3.0625-.20313l1.14844.4375m12.72656-1.33593l-4.8711 5.07031m4.8711-5.07031l2.35937.67187m-3.07031.0664l1.17969.33595m12.85937-1.0586l-4.89844 5.03906m4.89844-5.03906l2.35938.6875m10.05469-1.32422l-3.09375 6.3125m3.09375-6.3125l2.44921-.07812"/><g clip-path="url(#ap)"><path fill="none" stroke="#000" stroke-linecap="round" stroke-linejoin="round" stroke-miterlimit="10" stroke-width=".5" d="M143.92188 356.98047l.15625 7.02344"/></g><g clip-path="url(#aq)"><path fill="none" stroke="#000" stroke-linecap="round" stroke-linejoin="round" stroke-miterlimit="10" stroke-width=".5" d="M143.94531 358.0039l1.07031-.60156"/></g><path fill="none" stroke="#000" stroke-linecap="round" stroke-linejoin="round" stroke-miterlimit="10" stroke-width=".5" d="M159.46094 357.71094l-4.29297 5.5625m3.66797-4.7539l1.21094.20702m13.36328-.38281l-5.5586 4.30078m5.5586-4.30078l2.23437 1.00781m9.78516-2.04297l-2.96875 6.3672m2.96875-6.3672l2.45312-.1289m12.79688 2.51172l-6.83985 1.60546m5.84766-1.37109l.80469.92188m13.35156.9375l-6.53516-2.58204m6.53516 2.58204l.27344 2.4375m12.95312-2.23829l-6.36328-2.98046m6.36328 2.98046l.125 2.44922m-1.05078-2.8828l.0625 1.22655m14.22656-.89843l-6.45703-2.76954m6.45703 2.76954l.20703 2.4453m-1.14453-2.85155l.10157 1.22265m14.41797-1.84375l-6.98829-.71875m6.98828.71875l.92579 2.27344M253 360.7461l.46094 1.13671m13.88672-1.49219l-7.02344.20704m7.02344-.20704l1.21484 2.12891m-2.23828-2.10156l.60937 1.0664m13.73047-1.01562l-7.02734.04688m7.02734-.04688l1.16797 2.16016m-2.1914-2.15235l.58593 1.07813m13.7461-1.25781l-7.01563.39062m7.01563-.39063l1.27343 2.09766m-2.29297-2.03906l.63672 1.04687m13.64453-1.5664l-6.90625 1.3125m6.90625-1.3125l1.53516 1.91406m-2.54297-1.72266l.76953.95704m13.45703-1.52735l-6.71484 2.07422m6.71484-2.07422l1.73829 1.72656m-2.71485-1.42578l.8711.86328m13.28125-1.53906l-6.4375 2.82422m6.4375-2.82422l1.92578 1.51953m-2.86328-1.10937l.96484.76172m13.40625-.85547l-6.67578 2.1914m6.67578-2.1914l1.77344 1.69922m-2.74219-1.38282l.88281.85157m13.40625-1.15235l-6.6836 2.16016m6.6836-2.16016l1.76563 1.70703m-2.73828-1.39453l.8828.85547m13.4961-.83594l-6.86719 1.4922m6.8672-1.4922l1.58593 1.875m-2.58594-1.65625l1.58594 1.8711m12.29687-3.16797l-6.0039 3.65234m6.0039-3.65234l2.11329 1.2539m-2.98438-.72265l2.10938 1.2539m11.67187-2.32812l-5.1914 4.73438m5.1914-4.73438l2.3125.82422m-3.0664-.13281l2.30859.82421m12.01953-1.19921l-5.70703 4.10156m5.70703-4.10156l2.19922 1.08984m-3.03125-.49219l2.19922 1.08594m12-1.60547l-5.8164 3.94531m5.8164-3.9453l2.17187 1.14843m-3.01562-.57422l2.16797 1.14844m11.76562-2.01953l-5.36328 4.53906m5.36328-4.53906l2.28125.91406m-3.0625-.2539l1.14063.45702m13.26562-.6875l-5.98437 3.6797m5.98437-3.6797l2.11719 1.2422m10.52344-2.04298l-4.63282 5.28516"/><g clip-path="url(#ar)"><path fill="none" stroke="#000" stroke-linecap="round" stroke-linejoin="round" stroke-miterlimit="10" stroke-width=".5" d="M465.8789 357.85156l2.38673.5625"/></g><path fill="none" stroke="#000" stroke-linecap="round" stroke-linejoin="round" stroke-miterlimit="10" stroke-width=".5" d="M465.20313 358.6211l1.1953.28124"/><g clip-path="url(#as)"><path fill="none" stroke="#000" stroke-linecap="round" stroke-linejoin="round" stroke-miterlimit="10" stroke-width=".5" d="M142.0039 344.28516l3.9922 5.78515"/></g><path fill="none" stroke="#000" stroke-linecap="round" stroke-linejoin="round" stroke-miterlimit="10" stroke-width=".5" d="M156.51563 343.75781l1.60156 6.83985m-1.3711-5.84375l.92578-.8086m13.8047-.17578l-1.69141 6.82031m1.4453-5.82812l1.1875-.30078m12.75-.57813l-2.4453 6.58985m2.4453-6.58985l2.4336-.32422m11.77344.81641l-4.23047 5.60938m3.61719-4.79297l1.21094.1914m12.80859 4.53125l-4.41016-5.46875m3.76953 4.67188l-.48437 1.1289m15.52344-1.83203l-6.57813-2.47265m6.57813 2.47265l.3164 2.4336m12.9961-2.42579l-6.57422-2.48828m6.57422 2.48829l.3086 2.43359m-1.26563-2.79297l.15625 1.21484m14.29297-1.51171l-6.9297-1.17188m6.9297 1.17188l.77343 2.32812m-1.78125-2.5l.38672 1.16406m13.98438-1.57812h-7.02735m7.02735 0l1.15234 2.16406m-2.17188-2.16406l.57422 1.08203m13.75782-.88672l-7.01563-.39453m7.01563.39453l1.02734 2.23047m-2.05078-2.28516l.51562 1.11328m13.82422-1.11718l-7.02344-.27735m7.02344.27735l1.0664 2.21093m-2.08984-2.25l.53516 1.10547m13.76953-1.70312l-6.95703.9961m6.95703-.9961l1.44922 1.98437m-2.46094-1.83984l.72266.99219m13.55078-1.42188l-6.84766 1.5664m6.84766-1.5664L322.125 348.25m-2.60156-1.625l.80468.92578m13.48438-1.25l-6.80469 1.7539m6.80469-1.7539l1.65625 1.8125m-2.64453-1.55469l1.65625 1.8086m12.63281-2.125l-6.77344 1.8711m6.77344-1.8711l1.6875 1.78125m-2.67187-1.50781l.84375.89062m13.46875-1.10938l-6.80079 1.76172m6.80079-1.76171l1.66015 1.8125m-2.64844-1.5547l.82813.90626m13.39844-1.42969l-6.64453 2.29297m6.64453-2.29297l1.79297 1.67578m-2.76172-1.33984l1.79687 1.67187m12.11719-2.76172l-5.91016 3.80079m5.91016-3.80079l2.14062 1.19922m-3-.64844l2.14063 1.19922m-3-.64453l1.07031.60156m13.77344-1.97656l-5.52734 4.33985m5.52734-4.33985l2.24219.99219m-3.04688-.35938l2.24219.98829m11.57031-1.96485l-4.91406 5.02735m4.91406-5.02735l2.35547.6914m-3.07031.03907l2.35547.6914m11.83593-1.25L421 349.51954m5.23437-4.6836l2.3047.84376m-3.06641-.16406l2.30468.84765m11.63672-1.66797l-4.96875 4.96875m4.96875-4.96875l2.34766.71485m-3.07031.0078l1.17578.35548m12.95703-.98047l-5.15625 4.77344m5.15625-4.77344l2.3164.80469m11.69922.3203l-6.55859 2.51954"/><g clip-path="url(#at)"><path fill="none" stroke="#000" stroke-linecap="round" stroke-linejoin="round" stroke-miterlimit="10" stroke-width=".5" d="M466.83984 345.91797l1.85547 1.60937"/></g><g clip-path="url(#au)"><path fill="none" stroke="#000" stroke-linecap="round" stroke-linejoin="round" stroke-miterlimit="10" stroke-width=".5" d="M140.57422 333.08984l6.85156 1.54688"/></g><path fill="none" stroke="#000" stroke-linecap="round" stroke-linejoin="round" stroke-miterlimit="10" stroke-width=".5" d="M154.55469 331.6875l5.51953 4.35156m-4.71484-3.71875l.21875-1.20703m13.66796-.48047l2.76953 6.46094m-2.36718-5.51953l.76953-.95703m16.5664 1.48047l-6.07812 3.53125m5.1914-3.01563l1.04298.64453m12.97265-1.44531l-5.70703 4.10156m5.70703-4.10156l2.19922 1.08594m11.4414 2.46094l-6.35937-2.9922m5.4336 2.5547l.0625 1.22656m13.76171-.11328l-5.52343-4.34375m5.52343 4.34375l-.4375 2.41406m13.87891-2.58203l-5.77344-4.00781m5.77344 4.0078l-.28906 2.4336m13.9961-3.1836l-6.5625-2.5078m6.5625 2.5078l.30468 2.4336m-1.25781-2.79687L253 335.96875m14.27734-1.39063l-6.8828-1.42968m6.8828 1.42969l.6875 2.35546m-1.6914-2.5664l.34375 1.17969m14.02343-1.26563l-6.97656-.83594m6.97656.83594l.88282 2.28906m-1.89844-2.41015l.4414 1.14453m13.89844-1.10547l-6.99609-.67188m6.9961.67188l.9375 2.26562m-1.95704-2.36328l.46875 1.13281m13.8789-1.41015l-7.02734.07812m7.02735-.07812l1.17969 2.15234m-2.19922-2.14062l.58593 1.07422m13.6875-1.71485l-6.90234 1.33594m6.90234-1.33594l1.54297 1.90625m-2.54687-1.71094l.76953.95313m13.47656-1.4414l-6.75781 1.92187m6.75781-1.92188l1.70313 1.76563m-2.6836-1.48828l.84766.88672m13.48047-1.05079l-6.82031 1.69532m6.8203-1.69531l1.64063 1.82421m11.59766-2.07812l-6.66797 2.20312m6.66797-2.20312l1.77734 1.6914m11.36328-2.1289l-6.3164 3.07812m6.3164-3.07812l1.98438 1.4414m11.11719-1.8164l-5.89453 3.82812m5.89453-3.82812l2.14843 1.1914m-3.0039-.6328l2.14453 1.1875m11.89062-1.94141l-5.62109 4.21875m5.6211-4.21875l2.22265 1.04296m-3.03906-.42968l2.21875 1.04297m11.91015-1.65625l-5.61718 4.21875m5.61718-4.21875l2.22266 1.03906m-3.03906-.42578l1.10937.51953m13.01172-1.14844l-5.59375 4.25m5.59375-4.25l2.22656 1.02735m9.45313-2.21875l-2.32422 6.6328m2.32422-6.6328l2.42187-.3711m12.10938 1.10156l-4.75781 5.17188m4.75781-5.17188l2.375.6211m-3.0664.13281l1.1875.3086m13.59374-.03126l-6.30468 3.10547"/><g clip-path="url(#av)"><path fill="none" stroke="#000" stroke-linecap="round" stroke-linejoin="round" stroke-miterlimit="10" stroke-width=".5" d="M466.71484 332.3086l1.98829 1.4375"/></g><path fill="none" stroke="#000" stroke-linecap="round" stroke-linejoin="round" stroke-miterlimit="10" stroke-width=".5" d="M465.79688 332.76172l.99609.71875"/><g clip-path="url(#aw)"><path fill="none" stroke="#000" stroke-linecap="round" stroke-linejoin="round" stroke-miterlimit="10" stroke-width=".5" d="M140.84766 322.09766L147.15234 319"/></g><path fill="none" stroke="#000" stroke-linecap="round" stroke-linejoin="round" stroke-miterlimit="10" stroke-width=".5" d="M153.80078 320.54688h7.02734m-7.02734 0l-1.15234-2.16407m2.17578 2.16406l-.57813-1.08203m12.9297.44532l6.91015 1.27343m-6.91016-1.27343l-.74219-2.33985m18.27344-.45312l-1.52344 6.85937m1.30078-5.85937l1.1836-.32813m15.02344 2.00781l-6.86328 1.5m5.86718-1.28125l.79297.9336m12.92578 1.67187l-5.67578-4.14453m4.84766 3.54297l-.17188 1.21094m14.21485-.48047l-5.47657-4.40234m5.47657 4.40234l-.46094 2.41016m13.67969-2.29688l-5.28516-4.63281m5.28516 4.63281l-.5625 2.39063m-.20703-3.0625l-.28125 1.1914m14.53906-.73047l-5.6289-4.20703m5.6289 4.20703l-.375 2.42579m-.44531-3.03907l-.1875 1.21485m14.65625-1.14454l-6.29688-3.125m6.29688 3.125l.0664 2.45313m-.98437-2.90625l.03515 1.22656m14.5-1.66406l-6.89843-1.33984m6.89843 1.33984l.71485 2.34375m-1.71875-2.53906l.35937 1.17187m14.02344-1.61719l-7.02734-.0625m7.02734.0625l1.13281 2.1797m-2.15625-2.1875l.5664 1.08984m13.76563-1.32813l-7.01562.4336m7.01562-.4336l1.28125 2.08985m-2.30468-2.02735l.64453 1.04688m13.67578-1.29688l-6.98047.80469m6.98047-.80469l1.39453 2.01953m-2.41016-1.90234l.69532 1.01172m13.48046-1.83594l-6.66796 2.22266m6.66796-2.22266l1.77735 1.6914m-2.75-1.36718l.89062.84375m13.32032-1.3711l-6.51563 2.62891m6.51563-2.6289l1.8789 1.57812m-2.82812-1.19531l.9414.78906m12.25782-2.60156l-4.38672 5.48828m4.38672-5.48828l2.41406.45312m11.14062-.2461l-4.86718 5.07032m4.86718-5.07031l2.35938.66797m11.27344-.3164l-5.50391 4.36718m5.5039-4.36719l2.25.98047M385.6211 319l1.125.49219m12.42579-1.69531l-4.3711 5.5m4.3711-5.5l2.41406.4453m-3.05078.35548l1.20703.22265m12.66797-1.08203l-4.21875 5.6211m4.21875-5.6211l2.42187.3789m-3.03515.4375l1.21093.19141m11.33985-1.63671l-1.46094 6.875m1.46094-6.875l2.35547-.67579m-2.57032 1.67579l1.17969-.33594m9.27734.15234l4.6836 5.24219m-4-4.47656l.42187-1.15235m17.26953.78125l-5.43359 4.45703m5.4336-4.45703l2.26171.94531m10.95313-1.05859l-5.23828 4.6836"/><g clip-path="url(#ax)"><path fill="none" stroke="#000" stroke-linecap="round" stroke-linejoin="round" stroke-miterlimit="10" stroke-width=".5" d="M466.17969 318.20703l2.30469.84766"/></g><path fill="none" stroke="#000" stroke-linecap="round" stroke-linejoin="round" stroke-miterlimit="10" stroke-width=".5" d="M465.41797 318.88672l2.30469.84765"/><path fill="#00f" fill-rule="evenodd" d="M303.91016 467.64844h8.61718V457.5039h-8.61718v10.14453"/><path fill="azure" fill-rule="evenodd" d="M305.74219 459.33594h.83203v2.82422h3.28906v-2.82422h.83203v6.48047h-.83203v-2.91797h-3.28906v2.91797h-.83203v-6.48047"/><path fill="#00f" fill-rule="evenodd" d="M383.80078 467.64844h8.61719V457.5039h-8.61719v10.14453"/><path fill="azure" fill-rule="evenodd" d="M385.63281 459.33594h.83203v2.82422h3.28907v-2.82422h.83203v6.48047h-.83203v-2.91797h-3.28907v2.91797h-.83203v-6.48047"/><path fill="#00f" fill-rule="evenodd" d="M197.39063 463.21094h8.61718V453.0625h-8.61719v10.14844"/><path fill="azure" fill-rule="evenodd" d="M199.22266 454.89844h.83203v2.82031h3.28515v-2.82031h.83594v6.48047h-.83594v-2.91797h-3.28515v2.91797h-.83203v-6.48047"/><path fill="#00f" fill-rule="evenodd" d="M383.80078 436.57813h8.61719v-10.14454h-8.61719v10.14454"/><path fill="azure" fill-rule="evenodd" d="M385.63281 428.26563h.83203v2.82421h3.28907v-2.82421h.83203v6.48046h-.83203v-2.91406h-3.28907v2.91406h-.83203v-6.48046"/><path fill="#ff3030" fill-rule="evenodd" d="M375.61719 418.82813h7.69531v-10.14844h-7.69531v10.14844"/><path fill="azure" fill-rule="evenodd" d="M377.44922 410.51172h.83594v5.74219h3.1914v.73828h-4.02734v-6.48047"/><path fill="#ff3030" fill-rule="evenodd" d="M295.72656 409.94922h7.69531v-10.14453h-7.6953v10.14453"/><path fill="azure" fill-rule="evenodd" d="M297.5586 401.63672h.83593v5.73828h3.1914v.74219h-4.02734v-6.48047"/><path fill="#ff3030" fill-rule="evenodd" d="M193.64453 374.4414h7.69531v-10.14452h-7.6953v10.14453"/><path fill="azure" fill-rule="evenodd" d="M195.47656 366.1289h.83594v5.7422h3.1914v.73827h-4.02734v-6.48046"/><path fill="#ffffe0" fill-rule="evenodd" d="M346.1836 407.36328h22.17968v-10.1914H346.1836v10.1914"/><path fill-rule="evenodd" d="M349.6836 399.00781h.5078v6.29297h-.78906v-4.48828h-1.38671v-.5586l.55859-.0625.2539-.05468.23047-.08985.20313-.14062.17187-.21094.14063-.29297.10937-.39453m4.8125 0l.23047.01563.21875.0586.20703.08983.19532.1172.18359.15234.17188.17578.30078.41797.24609.49218.17969.54688.10937.58203.03906.58984-.03906.59375-.10937.58204-.17969.55468-.2461.5039-.30077.42579-.17188.17969-.1836.15234-.1953.125-.20704.09375-.21875.05469-.23047.01953-.23046-.01953-.21875-.05469-.20704-.09375-.1953-.125-.1875-.15234-.16798-.17969-.30469-.42578-.24218-.5039-.17969-.5547-.11328-.58203-.03516-.59375h.83203l.02735.5625.08203.50782.1289.4414.16016.375.1914.30078.21094.21875.22266.14063.22656.04297.22657-.04297.22265-.14063.21094-.21875.1914-.30078.16016-.375.125-.4414.08203-.50782.03125-.5625-.03125-.5625-.08203-.5-.125-.43359-.16015-.36719-.19141-.29297-.21094-.21484-.22265-.1289-.22657-.04688-.22656.04687-.22265.12891-.21094.21484-.1914.29297-.16017.36719-.1289.4336-.08203.5-.02735.5625h-.83203l.03516-.58985.11328-.58203.17969-.54688.24219-.49218.30468-.41797.16797-.17578.1875-.15235.19531-.11719.20704-.08984.21875-.0586.23046-.01562m4.95313 0l.22656.01563.21875.0586.21094.08983.19531.1172.1836.15234.17187.17578.30078.41797.2461.49218.17968.54688.10938.58203.03906.58984-.03906.59375-.10938.58204-.17969.55468-.24609.5039-.30078.42579-.17188.17969-.18359.15234-.19531.125-.21094.09375-.21875.05469-.22656.01953-.23047-.01953-.21875-.05469-.20703-.09375-.19922-.125-.1836-.15234-.17187-.17969-.30078-.42578-.24219-.5039-.17969-.5547-.11328-.58203-.03906-.59375h.83594l.02734.5625.08203.50782.125.4414.16407.375.1914.30078.21094.21875.22266.14063.22656.04297.22656-.04297.22266-.14063.21094-.21875.1875-.30078.16406-.375.125-.4414.08203-.50782.03125-.5625-.03125-.5625-.08203-.5-.125-.43359-.16406-.36719-.1875-.29297-.21094-.21484-.22266-.1289-.22656-.04688-.22656.04687L359 399.875l-.21094.21484-.1914.29297-.16407.36719-.125.4336-.08203.5-.02734.5625h-.83594l.03906-.58985.11329-.58203.17968-.54688.24219-.49218.30078-.41797.17188-.17578.18359-.15235.19922-.11719.20703-.08984.21875-.0586.23047-.01562m4.95312 0l.38672.02735.35547.08203.32422.13672.28125.1875.23047.23437.17187.28516.10938.33203.03515.3789-.01953.27344-.05859.23438-.08594.20312-.11328.16797-.1289.14453-.14063.1211-.28516.19921.23047.1172.21094.14843.17969.17188.15625.1914.1211.21485.08983.23046.0586.2422.01953.2578-.03516.3086-.10546.32422-.17188.32812-.23828.30469-.3086.26953-.37109.21484-.21094.08204-.23046.05859-.2461.03906-.25781.01172-.26172-.01172-.24219-.03906-.22265-.0586-.20704-.08203-.35546-.21484-.29297-.26953-.22266-.30469-.15625-.32812-.09375-.32422-.03125-.3086h.83594l.02734.25.07813.23829.1211.21093.16015.1836.1914.15234.22266.11328.23828.07422.25781.02344.25391-.02344.23828-.07422.22266-.11328.1914-.15234.16016-.1836.1211-.21094.07812-.23828.02734-.25-.02734-.2539-.07813-.23438-.12109-.21484-.16016-.1836-.1914-.15234-.22266-.11328-.23828-.07422-.2539-.02344-.25782.02344-.23828.07422-.22266.11328-.1914.15235-.16016.18359-.1211.21484-.07812.23438-.02734.2539h-.83594l.01953-.2539.0586-.24219.08984-.22266.125-.20703.15234-.1914.1797-.17188.21093-.15234.23047-.13281-.28516-.19922-.14062-.1211-.12891-.14453-.11328-.16797-.08594-.20312-.0586-.23438-.01952-.27344h.78515l.02344.21485.0664.1914.10548.16407.13671.14062.16407.11328.1875.08204.20703.05078.22265.01562.21875-.01562.20704-.05079.1875-.08203.16796-.11328.13672-.14062.10156-.16406.06641-.19141.02344-.21485-.02344-.21484-.0664-.1914-.10157-.16407-.13672-.14062-.16796-.11328-.1875-.08204-.20704-.04687-.21875-.01953-.22265.01953-.20703.04688-.1875.08203-.16407.11328-.13671.14062-.10547.16406-.06641.19141-.02344.21485h-.78515l.03515-.37891.10938-.33203.17578-.28516.22656-.23437.28125-.1875.32422-.13672.35547-.08203.39062-.02735"/><path fill="#ffffe0" fill-rule="evenodd" d="M417.19531 433.85938H439.375v-10.19141h-22.17969v10.1914"/><path fill-rule="evenodd" d="M420.69531 425.5h.50781v6.29688h-.78515v-4.4922h-1.39063V426.75l.5625-.0664.25-.05079.23047-.08984.20313-.14063.17578-.21093.14062-.29688.10547-.39453m4.8125 0l.23047.01953.21875.05469.20703.08984.19922.1211.1836.14843.17187.17579.30078.42187.24219.49219.17969.54687.11328.57813.03906.59375-.03906.58984-.11328.58594-.1797.55469-.24218.5-.30078.42968-.17188.1797-.18359.15233-.19922.125-.20703.08985-.21875.0586-.23047.01952-.22656-.01953-.21875-.0586-.21094-.08983-.19531-.125-.1836-.15235-.17187-.17969-.30078-.42968-.2461-.5-.17968-.5547-.10938-.58593-.03906-.58984h.83203l.03125.5625.08203.5039.125.44532.16407.37109.1875.30078.21093.22266.22266.13672.22656.04687.22656-.04687.22266-.13672.21094-.22266.1914-.30078.16407-.3711.125-.4453.08203-.50391.02734-.5625-.02734-.5625-.08203-.5-.125-.4375-.16406-.36328-.19141-.29297-.21094-.21485-.22265-.1328-.22657-.04298-.22656.04297-.22266.13281-.21093.21485-.1875.29297-.16407.36328-.125.4375-.08203.5-.03125.5625h-.83203l.03906-.59375.10938-.57813.17969-.54687.24609-.49219.30078-.42188.17188-.17578.18359-.14843.19531-.1211.21094-.08984.21875-.05469.22656-.01953m4.95313 0l.23047.01953.21875.05469.20703.08984.19531.1211.1875.14843.16797.17579.30469.42187.24218.49219.1797.54687.11327.57813.03516.59375-.03516.58984-.11328.58594-.17969.55469-.24218.5-.3047.42968-.16796.1797-.1875.15233-.19531.125-.20703.08985-.21875.0586-.23047.01952-.23047-.01953-.21875-.0586-.20703-.08983-.19531-.125-.1836-.15235-.17187-.17969-.30079-.42968-.24609-.5-.17969-.5547-.10937-.58593-.03906-.58984h.83203l.03125.5625.08203.5039.125.44532.16015.37109.19141.30078.21094.22266.22265.13672.22657.04687.22656-.04687.22266-.13672.21093-.22266.19141-.30078.16406-.3711.125-.4453.08203-.50391.02735-.5625-.02735-.5625-.08203-.5-.125-.4375-.16406-.36328-.1914-.29297-.21094-.21485-.22266-.1328-.22656-.04298-.22656.04297-.22266.13281-.21094.21485-.1914.29297-.16016.36328-.125.4375-.08203.5-.03125.5625h-.83203l.03906-.59375.10937-.57813.1797-.54687.24608-.49219.30079-.42188.17187-.17578.1836-.14843.1953-.1211.20704-.08984.21875-.05469.23047-.01953m4.95312 0l.38672.02734.35938.08204.32421.13671.27735.1875.23047.23829.17187.28515.10938.33203.03906.3789-.01953.27345-.0586.23437-.08984.19922-.10937.17188-.12891.14453-.14063.12109-.28515.19531.23047.1211.20703.14453.1836.17187.15234.19531.125.21094.08984.23047.05469.2461.01953.2539-.03516.3086-.10156.32812-.17188.32422-.24218.3086-.30469.26952-.375.21094-.21094.08203-.22656.0625-.2461.03906-.26171.01172-.25781-.01171-.2422-.03907-.22265-.0625-.20703-.08203-.35938-.21094-.28906-.26953-.22265-.3086-.15625-.32421-.09375-.32813-.03125-.30859h.83203l.02734.2539.07813.23438.12109.21485.16406.18359.1914.15234.21876.11329.24219.07421.2539.02344.2539-.02344.2422-.07421.21875-.11329.1953-.15234.16017-.1836.12109-.21484.07812-.23437.02735-.2539-.02735-.25392-.07812-.23437-.1211-.21094-.16015-.1836-.19531-.15233-.21875-.1172-.2422-.0703-.2539-.02735-.2539.02735-.2422.0703-.21874.1172-.1914.15234-.16407.1836-.1211.21093-.07812.23438-.02734.2539h-.83203l.01953-.2539.05469-.23829.08984-.22265.125-.21094.15234-.1914.1836-.17188.20703-.15235.23437-.1328-.28906-.19532-.14063-.1211-.1289-.14452-.10938-.17188-.08984-.19922-.05469-.23437-.02344-.27344h.78907l.02344.21484.0625.1914.10546.16407.13672.14063.16406.10937.19141.08203.20703.05078.21875.01954.22266-.01954.20312-.05078.19141-.08203.16406-.10937.13672-.14063.10547-.16406.0664-.1914.01954-.21485-.01953-.21485-.06641-.1914-.10547-.16797-.13672-.13672-.16406-.11328-.1914-.08203-.20313-.05078-.22266-.01563-.21875.01563-.20703.05078-.1914.08203-.16407.11328-.13672.13672-.10546.16797-.0625.1914-.02344.21485h-.78906l.03906-.3789.10937-.33204.17188-.28515.23047-.23829.28125-.1875.3203-.13671.35938-.08204.38672-.02734"/><path fill="#ffffe0" fill-rule="evenodd" d="M223.85547 348.04297h22.17969v-10.1914h-22.1797v10.1914"/><path fill-rule="evenodd" d="M227.35156 339.6836h.51172v6.29687h-.78906v-4.49219h-1.38672v-.55469l.5586-.0625.2539-.05468.22656-.08985.20313-.14062.17578-.21094.14062-.29297.10547-.39844m4.8164 0l.22657.01954.21875.05468.21094.08985.19531.12109.1836.15234.17187.17579.30078.41796.2461.4922.17968.54687.10938.57812.03906.59375-.03906.59375-.10938.58203-.17969.55469-.24609.5-.30078.42969-.17188.17969-.18359.15234-.19531.125-.21094.08984-.21875.0586-.22656.01953-.23047-.01953-.21875-.0586-.20703-.08984-.19922-.125-.1836-.15235-.17187-.17968-.30078-.42969-.24219-.5-.17969-.55469-.11328-.58203-.03906-.59375h.83594l.02734.5625.08203.5039.125.44532.16407.375.1914.30078.21094.21875.22266.13672.22656.04688.22656-.04688.22266-.13672.21094-.21875.1875-.30078.16406-.375.125-.44531.08203-.5039.03125-.5625-.03125-.5625-.08203-.5-.125-.4336-.16406-.36719-.1875-.29297-.21094-.21484-.22266-.1289-.22656-.04688-.22656.04687-.22266.1289-.21094.21485-.1914.29297-.16407.36719-.125.4336-.08203.5-.02734.5625h-.83594l.03906-.59376.11328-.57812.1797-.54688.24218-.49219.30078-.41796.17188-.17579.18359-.15234.19922-.1211.20703-.08984.21875-.05469.23047-.01953m4.95312 0l.22657.01954.21875.05468.21093.08985.19532.12109.18359.15234.17188.17579.30078.41796.24218.4922.1797.54687.11327.57812.03906.59375-.03906.59375-.11328.58203-.17969.55469-.24218.5-.30078.42969-.17188.17969-.1836.15234-.1953.125-.21094.08984-.21875.0586-.22657.01953-.23047-.01953-.21875-.0586-.21093-.08984-.19531-.125-.1836-.15235-.17187-.17968-.30078-.42969-.2422-.5-.17968-.55469-.11328-.58203-.03906-.59375h.83593l.02735.5625.08203.5039.125.44532.16406.375.1914.30078.21095.21875.22265.13672.22656.04688.22266-.04688.22266-.13672.21093-.21875.19141-.30078.16406-.375.125-.44531.08203-.5039.02735-.5625-.02735-.5625-.08203-.5-.125-.4336-.16406-.36719-.1914-.29297-.21094-.21484-.22266-.1289-.22266-.04688-.22656.04687-.22266.1289-.21093.21485-.1914.29297-.16407.36719-.125.4336-.08203.5-.02735.5625h-.83593l.03906-.59376.11328-.57812.17969-.54688.24219-.49219.30078-.41796.17187-.17579.1836-.15234.1953-.1211.21095-.08984.21875-.05469.23046-.01953m4.94922 0l.38672.02735.35938.08594.32422.1328.27734.1875.23047.23829.17578.28515.10547.33204.03906.3789-.01953.27344-.0586.23438-.08593.20312-.11328.16797-.12891.14453-.14063.1211-.28515.19921.23047.11719.20703.14453.1836.17188.15234.1953.125.21485.08984.22656.0586.2461.01562.2539-.03125.3125-.10547.32422-.17188.32422-.23828.3086-.30859.26953-.375.21484-.21094.07813-.22656.0625-.2461.03906-.2578.01172-.26173-.01172-.24218-.03906-.22266-.0625-.20703-.07813-.35938-.21484-.28906-.26953-.22265-.3086-.15625-.32422-.09375-.32421-.03125-.3125h.83593l.02735.2539.07422.23438.125.21484.16015.1836.1914.15234.22267.11328.23828.07422.2539.02344.25781-.02344.23829-.07422.21875-.11328.1953-.15235.16017-.18359.12109-.21484.07812-.23438.02735-.2539-.02735-.25-.07812-.23829-.1211-.21093-.16015-.1836-.19531-.15234-.21875-.11719-.23828-.07031-.25782-.02735-.2539.02735-.23828.07031-.22266.11719-.1914.15234-.16016.1836-.125.21093-.07422.23829-.02735.25h-.83593l.01953-.25391.0586-.23828.08983-.22266.1211-.21094.15625-.1875.17969-.17578.20703-.15234.23437-.1289-.28515-.19923-.14063-.12109-.1289-.14453-.11329-.16797-.08593-.20313-.0586-.23437-.01953-.27344h.78516l.02344.21485.0664.1914.10156.16406.13672.14063.16797.11328.1875.08203.20703.04688.21875.01953.22266-.01953.20703-.04688.1875-.08203.16406-.11328.13672-.14063.10547-.16406.0664-.1914.02344-.21485-.02343-.21484-.06641-.1914-.10547-.16798-.13672-.13671-.16406-.11329-.1875-.08203-.20703-.05078-.22266-.01562-.21875.01562-.20703.05078-.1875.08203-.16797.11329-.13672.13671-.10156.16797-.0664.1914-.02344.21485h-.78516l.03516-.3789.10937-.33204.17188-.28515.23047-.23828.28125-.1875.3203-.13281.35938-.08594.38672-.02735"/><path fill="#ffffe0" fill-rule="evenodd" d="M204.15625 391.3711h22.17969v-10.19532h-22.17969v10.19531"/><path fill-rule="evenodd" d="M207.65234 383.01172h.51172v6.29297h-.78906v-4.48828h-1.38672v-.5547l.5586-.0664.2539-.05469.23047-.08984.20313-.14062.17187-.21094.14063-.29297.10546-.39453m4.81641 0l.23047.01953.21875.05469.20703.08984.19531.1211.1836.14843.17187.17578.30078.41797.2461.4961.17968.54687.10938.57813.03906.58984-.03906.59375-.10938.58594-.17968.55078-.2461.5039-.30078.42579-.17187.17968-.1836.15625-.19531.1211-.20703.09375-.21875.05469-.23047.01953-.23047-.01954-.21875-.05468-.20703-.09375-.19531-.1211-.1875-.15625-.16797-.17968-.30469-.42579-.24219-.5039-.17968-.55078-.11328-.58594-.03516-.59375h.83203l.02734.5625.08203.50781.125.4414.16407.375.1914.30079.21094.22266.22266.13671.22656.04688.22656-.04688.22266-.13671.21094-.22266.1914-.30078.16016-.375.125-.4414.08203-.50782.03125-.5625-.03125-.5625-.08203-.5-.125-.4336-.16016-.36718-.1914-.29297-.21094-.21094-.22266-.13281-.22656-.04688-.22656.04688-.22266.13281-.21094.21094-.1914.29297-.16406.36719-.125.43359-.08204.5-.02734.5625h-.83203l.03516-.58984.11328-.57813.17968-.54687.2422-.4961.30468-.41797.16797-.17578.1875-.14844.19531-.12109.20703-.08984.21875-.05469.23047-.01953m4.95313 0l.22656.01953.21875.05469.21094.08984.1953.1211.1836.14843.17188.17578.30078.41797.2461.4961.17968.54687.10937.57813.03907.58984-.03907.59375-.10937.58594-.17969.55078-.2461.5039-.30077.42579-.17188.17968-.1836.15625-.1953.1211-.21094.09375-.21875.05469-.22656.01953-.23047-.01954-.21875-.05468-.20703-.09375-.19922-.1211-.1836-.15625-.17187-.17968-.30078-.42579-.2422-.5039-.17968-.55078-.11328-.58594-.03906-.59375h.83594l.02734.5625.08203.50781.125.4414.16406.375.1914.30079.21095.22266.22265.13671.22656.04688.22657-.04688.22265-.13671.21094-.22266.1875-.30078.16406-.375.125-.4414.08203-.50782.03125-.5625-.03125-.5625-.08203-.5-.125-.4336-.16406-.36718-.1875-.29297-.21094-.21094-.22265-.13281-.22656-.04688-.22657.04688-.22265.13281-.21094.21094-.1914.29297-.16407.36719-.125.43359-.08203.5-.02734.5625h-.83594l.03906-.58984.11328-.57813.17969-.54687.24219-.4961.30078-.41797.17187-.17578.1836-.14844.19922-.12109.20703-.08984.21875-.05469.23047-.01953m4.95312 0l.38672.02734.35547.08203.32422.13672.28125.1875.22656.23828.17578.28516.10938.33203.03515.375-.01953.27344-.0586.23828-.08593.19922-.11328.16797-.1289.14453-.14063.125-.28516.19531.23047.11719.21094.14844.17968.17187.15625.1914.1211.21485.08984.23047.0586.24219.01953.25781-.03516.3086-.10547.32812-.17187.32422-.23828.30469-.3086.26953-.3711.21484-.21484.08203-.22656.0586-.2461.03906-.2578.01172-.26172-.01172-.2422-.03906-.22265-.0586-.20703-.08203-.35547-.21484-.29297-.26954-.22265-.30468-.15625-.32422-.09375-.32813-.03125-.30859h.83594l.02734.2539.07812.23438.1211.21094.16015.1836.19141.15234.22266.11718.23828.07032.25781.02734.2539-.02734.23829-.07032.22265-.11718.19141-.15235.16016-.1836.12109-.21093.07813-.23437.02734-.25391-.02734-.2539-.07813-.23438-.1211-.21485-.16015-.18359-.1914-.15234-.22266-.11328-.23828-.07422-.25391-.02344-.25781.02344-.23828.07422-.22266.11328-.1914.15234-.16016.1836-.1211.21484-.07812.23437-.02734.25391h-.83594l.01953-.2539.0586-.23829.08984-.22656.125-.20703.15234-.1914.17969-.17188.21094-.15235.23046-.1328-.28515-.19532-.14063-.125-.1289-.14453-.11328-.16797-.08594-.19922-.0586-.23828-.01953-.27344h.78516l.02344.21485.0664.1914.10547.16797.13672.13672.16406.11328.1875.08203.20703.05078.22266.01563.21875-.01563.20703-.05078.1875-.08203.16406-.11328.14063-.13672.10156-.16797.0664-.1914.02345-.21485-.02344-.21484-.0664-.1914-.10157-.16407-.14063-.14063-.16406-.10937-.1875-.08203-.20703-.05078-.21875-.01954-.22266.01954-.20703.05078-.1875.08203-.16406.10937-.13672.14063-.10547.16406-.0664.1914-.02344.21485h-.78516l.03516-.375.10937-.33203.17578-.28516.22657-.23828.28125-.1875.32422-.13672.35547-.08203.39062-.02734"/><path fill="#ffffe0" fill-rule="evenodd" d="M341.74219 366.89063h22.1836V356.6953h-22.1836v10.19531"/><path fill-rule="evenodd" d="M345.24219 358.53125h.51172v6.29297h-.78907v-4.48828h-1.38671v-.5586l.55859-.0625.2539-.05468.22657-.08985.20312-.14062.17578-.21094.14063-.29297.10547-.39453m4.8164 0l.22657.01563.21875.05859.21093.08984.19532.1211.18359.14843.17188.17579.30078.41796.24218.4961.1797.54297.11327.58203.03906.58984-.03906.59375-.11328.58203-.17969.55469-.24218.5039-.30079.42579-.17187.17969-.1836.15234-.1953.125-.21094.09375-.21875.05469-.22657.01953-.23046-.01953-.21875-.0547-.20704-.09374-.19921-.125-.1836-.15235-.17187-.17968-.30079-.42578-.24218-.50391-.17969-.55469-.11328-.58203-.03906-.59375h.83593l.02735.5625.08203.50781.125.44141.16406.375.1914.30078.21094.22266.22266.13672.22656.04687.22657-.04687.22265-.13672.21094-.22266.1875-.30078.16406-.375.125-.4414.08203-.50782.03125-.5625-.03125-.5625-.08203-.5-.125-.4336-.16406-.36718-.1875-.29297-.21094-.21484-.22265-.1289-.22657-.04688-.22656.04687-.22265.1289-.21094.21485-.1914.29297-.16407.36719-.125.4336-.08203.5-.02735.5625h-.83593l.03906-.58985.11328-.58203.17969-.54297.24219-.4961.30078-.41796.17187-.17579.1836-.14843.19921-.1211.20704-.08984.21875-.0586.23046-.01562m5.08985 0h.50781v6.29297h-.78516v-4.48828h-1.39062v-.5586l.5625-.0625.25-.05468.23047-.08985.20312-.14062.17578-.21094.14063-.29297.10547-.39453m2.82422 2.17188h.78515l.01953-.3125.0586-.28907.10156-.25.14063-.21875.17968-.17187.22266-.1289.26562-.08204.3086-.02734.23828.02343.22265.0625.20313.10157.17969.13671.14844.17579.11328.20312.07421.23828.02344.26172-.01953.26953-.0664.22656-.10938.19141-.15625.17188-.20313.16015-.24609.16797-.63281.38672-.53906.3125-.4375.32031-.34375.32422-.26563.33594-.1914.34765-.125.3711-.06641.39453-.02344.41797h4.21485v-.74219h-3.33594l.08594-.28125.11328-.23828.14843-.19922.1875-.1836.23047-.16796.27735-.17578.71875-.41797.41406-.20703.34375-.23047.28125-.25.22265-.26563.16016-.28125.11328-.28125.0625-.28515.01953-.28125-.03906-.38281-.1211-.34766-.1914-.3086-.25-.26562-.30078-.21094-.34766-.16015-.3789-.09766-.40625-.03125-.4336.03125-.39843.09766-.35547.16796-.30469.23438-.25.30469-.1836.3711-.11718.44921-.03906.51563"/></g></defs><use xlink:href="#ay"/></svg>