<svg xmlns="http://www.w3.org/2000/svg" role="img" xmlns:xlink="http://www.w3.org/1999/xlink" viewBox="142.45 309.95 326.84 171.84"><defs><clipPath id="a"><path d="M144 311.67188h324v168.65625H144zm0 0"/></clipPath><clipPath id="b"><path d="M144 479h4v1.32813h-4zm0 0"/></clipPath><clipPath id="c"><path d="M147 479h3v1.32813h-3zm0 0"/></clipPath><clipPath id="d"><path d="M146 479h2v1.32813h-2zm0 0"/></clipPath><clipPath id="e"><path d="M153 479h9v1.32813h-9zm0 0"/></clipPath><clipPath id="f"><path d="M160 479h3v1.32813h-3zm0 0"/></clipPath><clipPath id="g"><path d="M159 479h2v1.32813h-2zm0 0"/></clipPath><clipPath id="h"><path d="M166 479h9v1.32813h-9zm0 0"/></clipPath><clipPath id="i"><path d="M173 480h3v.32813h-3zm0 0"/></clipPath><clipPath id="j"><path d="M172 480h2v.32813h-2zm0 0"/></clipPath><clipPath id="k"><path d="M180 479h8v1.32813h-8zm0 0"/></clipPath><clipPath id="l"><path d="M187 480h2v.32813h-2zm0 0"/></clipPath><clipPath id="m"><path d="M186 480h2v.32813h-2zm0 0"/></clipPath><clipPath id="n"><path d="M193 479h9v1.32813h-9zm0 0"/></clipPath><clipPath id="o"><path d="M200 480h2v.32813h-2zm0 0"/></clipPath><clipPath id="p"><path d="M199 480h2v.32813h-2zm0 0"/></clipPath><clipPath id="q"><path d="M206 480h9v.32813h-9zm0 0"/></clipPath><clipPath id="r"><path d="M213 480h3v.32813h-3zm0 0"/></clipPath><clipPath id="s"><path d="M212 480h2v.32813h-2zm0 0"/></clipPath><clipPath id="t"><path d="M220 479h8v1.32813h-8zm0 0"/></clipPath><clipPath id="u"><path d="M227 479h3v1.32813h-3zm0 0"/></clipPath><clipPath id="v"><path d="M233 479h8v1.32813h-8zm0 0"/></clipPath><clipPath id="w"><path d="M240 479h3v1.32813h-3zm0 0"/></clipPath><clipPath id="x"><path d="M246 479h9v1.32813h-9zm0 0"/></clipPath><clipPath id="y"><path d="M253 479h3v1.32813h-3zm0 0"/></clipPath><clipPath id="z"><path d="M260 479h8v1.32813h-8zm0 0"/></clipPath><clipPath id="A"><path d="M266 480h2v.32813h-2zm0 0"/></clipPath><clipPath id="B"><path d="M273 479h8v1.32813h-8zm0 0"/></clipPath><clipPath id="C"><path d="M280 479h3v1.32813h-3zm0 0"/></clipPath><clipPath id="D"><path d="M286 479h9v1.32813h-9zm0 0"/></clipPath><clipPath id="E"><path d="M293 479h3v1.32813h-3zm0 0"/></clipPath><clipPath id="F"><path d="M300 479h8v1.32813h-8zm0 0"/></clipPath><clipPath id="G"><path d="M306 479h4v1.32813h-4zm0 0"/></clipPath><clipPath id="H"><path d="M313 478h8v2.32813h-8zm0 0"/></clipPath><clipPath id="I"><path d="M319 479h2v1.32813h-2zm0 0"/></clipPath><clipPath id="J"><path d="M326 478h8v2.32813h-8zm0 0"/></clipPath><clipPath id="K"><path d="M332 479h2v1.32813h-2zm0 0"/></clipPath><clipPath id="L"><path d="M340 477h7v3.32813h-7zm0 0"/></clipPath><clipPath id="M"><path d="M354 477h6v3.32813h-6zm0 0"/></clipPath><clipPath id="N"><path d="M366 479h8v1.32813h-8zm0 0"/></clipPath><clipPath id="O"><path d="M379 480h9v.32813h-9zm0 0"/></clipPath><clipPath id="P"><path d="M393 478h8v2.32813h-8zm0 0"/></clipPath><clipPath id="Q"><path d="M393 480h2v.32813h-2zm0 0"/></clipPath><clipPath id="R"><path d="M407 477h7v3.32813h-7zm0 0"/></clipPath><clipPath id="S"><path d="M422 476h3v4.32813h-3zm0 0"/></clipPath><clipPath id="T"><path d="M433 478h8v2.32813h-8zm0 0"/></clipPath><clipPath id="U"><path d="M447 478h7v2.32813h-7zm0 0"/></clipPath><clipPath id="V"><path d="M460 477h7v3.32813h-7zm0 0"/></clipPath><clipPath id="W"><path d="M144 466h4v2h-4zm0 0"/></clipPath><clipPath id="X"><path d="M465 463h3v2h-3zm0 0"/></clipPath><clipPath id="Y"><path d="M144 453h4v2h-4zm0 0"/></clipPath><clipPath id="Z"><path d="M465 450h3v2h-3zm0 0"/></clipPath><clipPath id="aa"><path d="M144 439h4v2h-4zm0 0"/></clipPath><clipPath id="ab"><path d="M466 438h2v3h-2zm0 0"/></clipPath><clipPath id="ac"><path d="M144 426h4v2h-4zm0 0"/></clipPath><clipPath id="ad"><path d="M466 424h2v3h-2zm0 0"/></clipPath><clipPath id="ae"><path d="M144 412h4v3h-4zm0 0"/></clipPath><clipPath id="af"><path d="M466 411h2v2h-2zm0 0"/></clipPath><clipPath id="ag"><path d="M144 399h4v3h-4zm0 0"/></clipPath><clipPath id="ah"><path d="M466 399h2v3h-2zm0 0"/></clipPath><clipPath id="ai"><path d="M144 385h4v4h-4zm0 0"/></clipPath><clipPath id="aj"><path d="M466 385h2v4h-2zm0 0"/></clipPath><clipPath id="ak"><path d="M144 372h4v4h-4zm0 0"/></clipPath><clipPath id="al"><path d="M144 358h4v5h-4zm0 0"/></clipPath><clipPath id="am"><path d="M466 358h2v3h-2zm0 0"/></clipPath><clipPath id="an"><path d="M144 343h1v8h-1zm0 0"/></clipPath><clipPath id="ao"><path d="M144 349h1v2h-1zm0 0"/></clipPath><clipPath id="ap"><path d="M466 345h2v3h-2zm0 0"/></clipPath><clipPath id="aq"><path d="M144 330h3v8h-3zm0 0"/></clipPath><clipPath id="ar"><path d="M466 332h2v3h-2zm0 0"/></clipPath><clipPath id="as"><path d="M144 318h4v5h-4zm0 0"/></clipPath><clipPath id="at"><path d="M466 318h2v2h-2zm0 0"/></clipPath><g id="au" clip-path="url(#clip1)"><path fill="#fff" fill-opacity="0" fill-rule="evenodd" d="M0 0h1000v1000H0zm0 0"/><path fill="#d3d3d3" fill-opacity="0" fill-rule="evenodd" d="M162.15234 355.86719l-.23437.29297.0586.23437.11718.17188.17578.23437.29297.34766.11328.0586.11719-.17188.0586-.23438.17577-.17578.46485-.17578h.69922l.23437.29297.28906.8164.0586.17579.17578.23046.35156.23438.69922.69922.17188.17578.23437.34765.23438.41016.28906.58203.41015.46485.23047.23437.23438.17578.11719.23047.17578.29297.17187 1.16406v.23438l.0586.28906.05859.11719.11719.11719.34765.41015.11719.17188.17578.17578.17578.23437.11719.17188.17188.35156.05859.23438.23437.40625.23438-.0586-.17578.17578-.0586.92969h-.58203l-.23437-.11328-.34766.11328-.11719.11719-.05859.29297-.0586.17578-.11718.17187-.46484.29297-.0586.23438-.0586.11328v.64453l.0586.17187v.41016l.0586.0586v.40624l.05859.40625.11719.17579.05859.05859.23047.64062-.0586.29297v.69922l-.05859.58203v.23438l-.0586.23047-.05468.35156v1.92187l.05469.1172h.42578l-.36719.11718-.02344.35156.89063 1.16797 1.74219.53906 1.33984.35938v.53906l.08984.8086.53516.71484 1.51953.26953.89063-.08594.08984 1.16406.53516.1797 1.16015-.1797 2.05469-.98437 1.16016-.36328 1.8789-.17578 1.69531-.1797-.17968.71876-1.51563.08594-1.25.08984-.80469.26953-1.07421.8086.26953.71875.53515.89843-.17968.625-.26563.8086.26563 1.07812.625.89844.80468.17969 1.25-.1797-.26562.72267.09766.5039.05468.29297v.17188l.0586.29296v.40625l.17578.1172.35156.11718h.40625l.29297-.17578.11328-.11719.0586-.11719.11718-.23047.0586-.17578.35156-.46484.23047-.17578.17578-.0586.17578.0586.0586.17578.11718.98828.05469.46875.0586.17188.11718.23437.17578.0586.8164.05859h.28907l.11719.23437.05859.40625.0586.35156v1.10547l.11718.29297.11719.34766.28906.69922.17578.35156.58203.7539.35157.17579.17187.0586.46875.23437.64063.46484.34765.23438.29297.17578.29297.05468.23047.0625.8164.34766.29297.17578.11328.17188.35157.35156.11719.17578.52343.64063v.28906l.0586.35156v.34766l.05859.35156.0586.28906.11718.0586.17188.05859h.17578l.58203.23437.17578.1172.17578.28905.17578.23438.11328.23437.29297.23047.11719.11719v.41016l.0586.05468.28906.23438.23437.11719.0586.11718.11718.17188.0586.11719.23047.23437.05859.17578.23437.0586.1172.05859-.1172.11328-.05859.11719v.11719l-.11719.29296-.11719.28907v.58203l.17579.11719.11718.05859.0586.11719.11719.11719.11328.05859.17578.34765.0586.35157.05858.40625v.17578l-.05859.17578-.11719.69922v.17187l.1172.17579.29296.29296h.40625l.17578.1172.11719.17187.11719.29296v.23438h-.52735l-.23047-.23438h-.23437l-.17578.0586-.0586.69922.0586.34765.11719.17579.17578.41015.11718.23047.28907.46875.17578.05469h.52344l.23437.0586.75781.64062.0586.29296v.23438l.05859.0586.23047.34765v.35156l-.11719.17188v.29297l.29297.28906.29297.17578.17187.0586.29297.17577.29297.1172.58203.40624.28906.23438.29297.17578.21875.16015.01563.01172.23047.17579.64062.52343.17578.23438.1172.17578.17577.17578.11328.17188v.64062l.1172.17578.46874.11719.58203.11719.23438.05859.23047.11328.29297.11719.11328.0586.58593.35156.28907.17187.17578.0625.17578.05469.17578.0586.69922.35155.28906.17579.23438.05468.28906.17578.23437.1172.64063.40624.29297.11719.17187.0586.23438.05859.41015.05859.23047.0586.23438.11718.0586.17188-.41017.17578.46875.0586.0586.29296.11328.23438.17578.05468.23438.0586.17578.05859.40625.11719.64062.23437.11719.17188.0586.23437v.17578l-.0586.1172-.0586.40624.23438.23438.11719.05859.34766.11719.64062.23047.17578.11718.28906.1172.17578.17577.23438.46485.58203 1.10546.17578.17579.34766.17578.17578.11719.35156.11718 1.04688.52344.23437.0586.46485.11327.29297.0586.46484.17578.75781.58203.23438.23438.34765.46484.17578.17578.28907.23438.8164.69921.29297.17579.28906.28906.29297.17578.29297.28906.69531.64063.17578.17578.29297.23437.28907.23438.46875.28906.64062.58203.34766.23438.23437.29297.34766.34765.35156.46485.9336.99218.34765.40625.11719.17579.23437.05859.11328.11719.64454.17578.23047.11328.23437.0586.29297.17577.23047.1172.9336.69921.40624.40625.23438.17578.40625.17578.23437.11719.8164.34766.34766.23437.23438.11719.29297.28906.23047.11719.7578.35156.35157.17188.23047.05859.29297.11719.23437.0586.8711.17577h.8164l.46875.23047.17188.0586.875.69921.46484.1172.29297.05858.17578.0586.23047.0586.46875.05859.34766.05859.35156.0586.40625.05859h.29297l.17187.0586v.23046l.17578.17578h.29297l.34766.0586.35156.05859.69922.11719h.64063l.46484-.23438.29297-.17578.17187-.11719.41016-.17187.28906-.17578.9336-.46485.46875-.29297.52343-.29296.46485-.17188.46484-.17578 1.05078-.46485.28906-.11718.41016-.11719.28906-.11719.52735-.17578 1.51562-.69922.58203-.34765.28907-.0586.29297-.0586.34765-.11718.875-.23047.35156-.11719h.11329l.23437-.05859.875-.23437.23438-.0586h.8125l.35156-.0586.8164-.11718.17188-.0586.35156-.05468.29297-.0586.23047-.05859.8164-.17578.17579-.0586h.34765l.23438-.05859.46484-.11718.75781-.17188.23438-.0586h.34765l.41016-.11718.28906-.0586 1.28516-.05859h.28906l.41016-.0586.23047-.05858h.17578l.875-.1172h.40625l.41015-.11718h.34766l.35156-.11328.8711-.0586h1.75l1.04687.28907.41016.11719.28906.11718.35156.11719.28907.11719 1.05078.17187.28906.0586h.29297l.29297.05859.17187.0586.41016.05859.17187.0586.1172.05858h.11718l.11719.0586.35156.0586h.11328l.41016.0664 1.92187.39453 1.92578.39453 1.51953.44922 1.69532.71875 2.14453.80469 1.60547-.71875 1.42968-.80469 1.16016-1.07813 1.25-.44921 3.03516-.71875 1.875-.35938 2.14453-1.34765 2.23437-1.25391 2.5-1.25781 1.69531-.44922 1.78516-.17969 1.16016-.26953.625.53906 1.33984-.26953.71485-.98828.98437-1.34375.44531-.17969.80469-.35937 1.875-.53907 1.78516-.44921 1.25-.26954 1.16015-.08984 1.69922-.08984 1.96094-.26954 1.25-.08984h.53906l.625-.08984h.89063l2.14453-.17969 2.41015-.17969 2.58985-.08984 1.69531.17969 1.60938.08984 1.42968.35938 1.16016.71875 1.875.98828 1.16015 1.52734.26563.71484.6289.08985.35548.89844.53515.53906.53516 1.52734 1.07422.35938h.53515l-.80469.53515.08985 1.70703.71484 2.69532.89063.80468.89453.98829.71484 1.2578 1.78516.53907 1.51953-.17969.35547 1.34375 1.60937-.80469.98047-.53906.26953.26953.31641-.21484.21875-.14453.80078.44922.44922-.35938h.35547l.53515-.26953.53907-.71875.53515-.26953.625-.98828 1.16016.44922.83984.3711 1.39454.61718 1.6953-.17969h1.60548l1.78515.08985.17969-1.70704.53516-1.34375.80468.26954.4922.84765.40233.40625-.08984.53906v.35938l.71485.44922.71093-.26953h1.42969l.35938.98828.4453 1.25781.71485 1.34375 1.25.6289 1.69531.62891.71485-.17969.17969-.53906.98046-.08984.44922.35937.08594 1.25782-.26563.6289-.53515.17969v.53906l.71484.98438.26563.53906.98437.98828.80078 1.07813-.26562.35937-.08985.89844-.625 2.33203-.35546 2.0664-.08985 1.79298-.17969.71875-.08984.53906v1.4375l-.98047 1.88281-.35937 1.70703-.53516.89844-.80469 1.16797-.26562.53906 2.05469 1.2539.08593.35938-.35546.53906-.08985-.17968v.80859l.08985 1.4375-.44532.71484-1.07422.09375-.26562.71485.53515.89844.8047.71875 1.16015.80859 1.33984.26953.44531.35938-.35546.44921-1.78907-.08984-1.25-.44922-.71484-.71875-.625-.08984-.17578 3.58984-.1875 1.3086h89.35937V311.70313h-55.26953v49.08203l.76172.125 3.28906.54296 2.02344 2.83594v2.7539l2.35156.33204 2.34766.33203h4.05078l-1.3789 4.16016-2.02344.70703-2.02344.70312-.54297.34375-2.59375 1.6172-.1875.11718-2.02344-2.07813-.73046-2.74218-2.67188-2.07813-1.375-3.5-.0664-.08203-1.95704-2.67188 2.75-1.41796v-49.08204H294.42187v91.41407l.1172.03125.1328.01172.07422.07421.10547.04688.08985.0586.08593.05859.08985.0586.29687.29687.0586.08984.03125.11719.02734.11719.01563.13671-.03125.1172-.0586.08983-.0586.08594-.04296.10547-.04688.10156-.02734.1211v.14453l.17578.26953.14844.14844.07422.08594.07422.07421.04296.10547.0625.08985.0586.08593.04297.10547.0586.08985.04687.10156.04296.10547.0586.08594.11719.17968.07421.07422.0625.08594.0586.08984.04297.10547.0586.08985.05858.08593.0625.08985.0586.08984.04297.10156.11719.17969.07421.07422.0586.08594.07422.07421.08984.0586.10547.04687h.14844l.1328-.01562.13282.01562.10156-.04687.07422-.07422.04688-.10156-.01563-.13281v-.14844l-.04687-.10547-.02735-.11719-.04687-.10156-.02735-.1211-.04296-.10156-.0625-.08984-.04297-.10156-.04297-.10547-.03125-.11719-.01563-.13281-.01171-.13672.08593-.0586.0586-.08593.12109-.03125.04297.10547.01562.1328v.1172l.0586.10156.0586.08984.08983.0586.14844.14843.0586.08985.04296.10547-.01171.10156.08593.0586.10547.04687.08594.0586.08984.05858.07422.07422-.11719.02735-.10546.04687-.08594.0586-.07422.07421-.0586.08985-.0625.08594-.02734.12109-.04687.10156-.04297.10547-.03125.11719-.01172.13281-.01563.13281v.14844l.02735.11719.04687.10547.04297.10156.0586.08984.07421.07422.08985.0586.07422.07421.08984.0586.0586.08984.04296.10547.04688.10156.11719.03125.1328.01563h.14845l.11718-.03125.10547.04297.04297.10547.04688.10156.02734.1211L299.5 410l.02734.11719.03125.1211.02735.11718.10547.04297.10156.04687.13281-.01562.14844.14844.0625.08593.07422.07422.07031.07422.08984.0625.10547.04297.10156.04297.1172.03125.13671.01562.11719-.03125.07422-.07422.02734-.11718-.01172-.13282-.03125-.12109-.02734-.11719.04297-.10547h.11719l.08984.0625.11719.02735h.14843l.13282.01562h.14843l.13282.01563.1328-.01563h.14845l.1328-.01562.13282-.01172.13672.01172.11719-.02735.13281-.01562.1914-.0586-.05859.17579-.01562.1328-.02735.1211-.01562.13281-.0586.08594-.1328.01563-.10548.04687-.10546.04297-.1172.03125-.11718.02735-.26563.03125h-.14843l-.13281.01562-.07422.07422.05859.08594.14844.14843.11719.1797.07421.0703.08985.0625.08984.0586.08594.0586.08984.05858.10156.04297.10547.0625.10547.04297.08594.0586.10547.04687.10156.04297.17969.11719.0586.08984-.04298.10156-.04687.10547.01562.13281.22266.22266.0586.08985.04296.10156.03125.1211.04297.10155.01563.13282.03125.11718.01171.13672.03125.11719.14844.14844.10156.04297.10547.04296.1172.03125.1328.01563.13672.01563h.11719l.11719-.03125.08984-.0586.04297-.10547.04688-.10156.04296-.10547.03125-.11719.01172-.1328v-.14845l-.01172-.1328-.01562-.13282-.03125-.11719-.04297-.10547-.04688-.10547-.04296-.10156-.04297-.10547-.01563-.13281.01563-.13281.02734-.11719.03125-.11719.02735-.1211.04687-.10155.08984-.0586.08594-.0625.07422-.07422.08984-.05859.22266-.22266.0586-.08593.07421-.07422.11719-.17969.0586-.08594v-.14844l-.07423-.07421-.10156-.04688-.10547-.04297-.10156-.04297-.0586-.08984-.04687-.10547-.02734-.11719.08984-.05859.11719-.03125.10156-.04297.17969-.11719.14844-.14843.01172-.13282-.01172-.10546-.08985-.0586-.1328.01563h-.14845l-.1328.01562-.13282-.01562-.1211-.03125-.08593-.0586-.07422-.07422-.0586-.08984-.0625-.08594-.11718-.17969-.0586-.08593.03125-.1211.08594-.05859.1211-.03125.05859-.08594v-.1211l-.03125-.11718-.0586-.08984-.05859-.08594-.04687-.10547-.02735-.11719-.01562-.1328.0586-.08985.07421-.07422.08984-.0586.1172-.17968.07421-.07422.0586-.08594.14843-.14844.1211-.03125.1328-.01562.13282.01562.07422.07422.04297.10547.01562.13281-.03125.1172-.11719.03124-.1328.01172-.14844.14844-.04297.10547-.04688.10156-.02734.1211-.03125.11718v.14844l.03125.11719.04297.10546.05859.08985.07422.07031.07422.07422.11719.03125.12109.02734.11719-.02734.1328-.01563h.1172l.08984.0586.07422.07422.04687.10546.0586.08594.10156.04688.13281.01562.10547.04297.08594.0586-.01172.10546-.07422.07422-.17969.11719-.05859.08984-.08984.0586-.07032.07422-.07421.07421-.0625.08985-.02735.11719-.01562.1328.01562.13282-.01562.13281v.14844l.01562.13281.02735.1172.03125.12108.07421.07422.08985.0586.08594.0586.08984.05858.11719.03125v.08594l-.10157.04688-.08984.0586-.26563.03124-.11718.02735h-.14844l-.10547.04296-.10156.04688-.0586.08984-.0625.23438-.01171.13281-.03125.1211-.01563.1328v.29298l-.01172.1328.01172.13673.01563.1328.1328.01563.13282.01172.1211.03125.08593.0586.07422.07421.04688.10547.04296.10157.01563.1328v.44532l-.01563.13281v.44532l.03125.26562.02735.11719.01562.13281.03125.11719.08594.21094.03125.26562v.14844l-.03125.11719-.02734.11718-.03125.1211-.02735.11719-.03125.11718-.03125.1211-.01171.1328-.01563.13282.08984.0586.1172-.03125.10155.01562.04688.10547-.03125.26562v.44141l-.04297.10547-.04688.10547-.04296.10156-.04297.10547-.0586.08594-.03125.12109-.04296.11719-.03125.11719-.01563.1328.01563.13282.05859.08984.10547.04688.08594.0586.05859.08593-.01172.13672-.03125.11719-.04297.10156v.44531l-.01562.13281v.14844l-.03125.11719-.04297.10547-.02735.11719-.04687.10546-.04297.10157-.03125.12109-.02734.11719-.03125.13281-.03125.11719-.02735.11719-.04297.10546-.03125.1172-.03125.12108-.01171.13282-.01563.13281v.29688l.02734.11718v.14844l.04688.39844.02734.11719.0586.08984.12109.03125h.14844l.13281-.01563.0586.08985v.11719l-.0586.08984-.08984.0586-.10157.04296-.10546.04688-.08985.05859-.08594.0586-.13671.01562-.1172-.03125-.1328-.01563-.10157.04688-.0625.08594-.01172.13671-.01562.13282-.03125.11719-.02735.11718-.01562.13281-.03125.1211v.29687l.01563.13282.03125.11718v.14844l.01171.13281v.14844l-.02734.11719-.04688.10156-.02734.1211-.03125.11718-.0586.08985-.07421.07421-.10156.04297-.10547.04688-.11719.02734-.1211.03125-.10156-.04687.0586-.08594.10547-.04688.02734-.11718.03125-.11719.02734-.1211.03125-.11718v-.14844l.01563-.13281-.03125-.11719-.04297-.10547-.10547.01563-.07422.07422-.10156.04296-.08984.0625-.07422.07422-.04297.10157-.01563.1328-.03125.1172L304.25 426l-.03125.11719-.02734.11719-.03125.12109-.02735.11719-.03125.11718-.04297.10547-.08984.0586h-.08984l-.1172-.03125-.03124-.08594.01562-.13672-.03125-.11719v-.14844l-.01171-.1328v-.14844l-.0625-.23438-.02735-.1211-.04297-.10156-.04687-.10546-.0586-.08594-.05859-.08985-.04297-.10546-.0625-.08594-.14844-.14844-.0703-.07422-.10548-.04687-.10547-.04297-.10156-.04297-.29687-.29688-.08985-.07421-.08594-.0586-.10546-.04297-.08985-.0625-.08594-.0586-.10546-.04296-.08985-.0586-.08594-.0625-.07421-.0703-.10547-.04688-.08594-.0586-.10547-.04296-.08984-.0625-.10156-.04297-.10547-.04297-.08594-.0586-.10547-.04687-.10547-.04297-.10156-.04687-.08985-.0586-.10156-.04297-.10547-.04296-.08984-.0625-.11719-.02735-.13281-.01562-.13281.01562H299.75l-.13281.01563-.11719-.03125-.08984-.0586-.07422-.07422-.08985-.05859-.10156-.04688h-.14844l-.12109-.02734-.10156-.04297-.07422-.07422-.11719-.17968-.08984-.0586-.10156-.04297-.08985-.0625-.10547-.04296-.08984-.0586-.08594-.0586-.10547-.04687-.0586-.08594-.05858-.08984-.04297-.10547-.04688-.10156-.07422-.07422-.08594-.0586-.07421-.07421-.08985-.0586-.22265-.22265-.04297-.10547-.03125-.26563.10547-.04296h.14453l.10547.04296.07421.07422.08985.0586.08594.0586.10546.04687.08985.05859.14844.14844.0703.07422.14845.14843.0625.08594.07421.07422.08594.0586.07422.07421.08985.0625.08984.0586.08594.05859.26953.17578.10156.04688.10547.04296.10156.04297.04688-.07421.05859-.08594.07422-.07422.07031-.07422.10547.04297.07422.07422.0586.08984.04296.10156.04688.10547.04296.10547.1211.02735.11719-.02735.07421-.08984.04297-.10547.0586-.08985.07422-.07421.10546-.04297.1172-.02735.1328.01172.08985.0586.14844.14843.05859.08985.04297.10547.04687.10156.04297.10547.04297.10156.10547.04688.10547.04296.13281.01563.08594-.0586.0586-.08984.07421-.07422.10547-.04297.11719.02735.10547.04687.10156.04297.10547.04297.10156.04688.17969.11718v.11719l-.01563.13281.01563.13281.01562.13672.0586.08594.10156.04688.1211.02734.11718.03125h.14844l.11719-.03125.05859-.08984.17969-.1172.05859-.08983.07422-.07422.0586-.08594.11718-.17969.17969-.11719.11719.03125.08984.0586.04297.07422-.01563.1328v.1172l.08985.05859h.14843l.13282-.01563.1328-.01171.26563-.03125.10547-.04297.11719-.03125.1211-.02735.07421-.07421.07031-.07422.0625-.08985-.01562-.10547-.04688-.10156-.10156-.04297-.10547-.01562-.11718.02734-.26563.03125h-.14844l-.07421-.07422-.08985-.0586-.11719-.03124-.11718-.02735-.13282-.01562h-.14843l-.13282.01563h-.29687l-.10547-.04688-.14844-.14844-.04297-.10156-.05859-.08984.22266-.22266.08593-.0586.10547-.04296.11719-.03125.13281-.01563.13281.01563.13672.01562.10157.04297.1328-.01172.08985-.0625.10156-.04297.0625-.08984-.04687-.10156-.08984-.0586-.1172-.03125-.10155-.04296-.0586-.08985-.0625-.08984v-.11719l.01563-.13281.10547-.04688.07421-.07031v-.1211l-.08984-.05859-.03125-.11719.08985-.05859.07421-.07422.04297-.10547.0586-.08984.04687-.10156.01563-.13281v-.14844l-.04688-.10547-.04297-.10156-.08984-.0586-.13281-.01562-.10157-.04297-.13671-.01563-.1172-.03125h-.4453l-.13282-.01562-.13281-.01172-.13281-.01563-.11719-.03125h-.14844l-.13281-.01562-.13281-.01172-.26563-.03125-.1211-.04297-.08593-.0586-.07422-.07421v-.14844l.01172-.13281.10547-.04688.10156-.04296.13281-.01563h.15235l.13281-.01562h.29297l.1211.03125.10156.04296.08984.0586.23438.0625.12109-.04688.08984-.05859.10156-.04297.13282-.01562.10547.04296.10156.04688.13281.01172.1211-.02735h.14453l.12109-.03125.11719-.02734.10547-.04687.07421-.07422.08594-.0586.14844-.14843.0586-.08594.04687-.10547.02734-.11719.01563-.10547-.10156-.04296-.08985-.0586-.11719-.03125-.10546-.04297-.08985-.0625-.07422-.08594-.07422-.07421-.10156-.04297-.10547-.04688-.10156-.04297-.0586-.08984-.04687-.10156-.08594-.21094-.0625-.08594-.05859-.08984-.07422-.07422-.08594-.0586h-.26953l-.11719.03126-.08984.05859-.10156.04297-.13281.01562-.10547-.01562-.02735-.11719-.0625-.08984-.11718-.03125-.10157-.04297-.14843-.14844-.03125-.11719-.01563-.10546.07422-.07422.17969-.1172.11719-.02733.11718-.03125.13672.01562.10156.04297.10547.04297.10156.04687.10547.04297.1172.03125.1328.01563.1172.02734.1328.01563.10547-.01563.08985-.0586-.07422-.07421-.10547-.04297-.07422-.07422-.07422-.08984-.14844-.14844-.08593-.0586-.08985-.05859-.07422-.07422-.08984-.0586-.10156-.04687-.1211-.02734-.10156-.04688-.10547-.04296-.11719-.03125-.10156-.04297-.1211-.03125h-.14843l-.11719.03125-.10546.04297-.08594.0625-.17969.11718-.08594.0586-.08984.0586-.10547.04687-.08594.05859-.10547.04297-.10156.04297-.10547.04687-.07422.07422-.05859.08985-.0586.08593-.04687.10547-.0586.08594-.07421.07422-.13281-.01172-.1172-.03125h-.11718l-.07422.07422-.08984.0586-.07422.07421-.08984.0586-.08594.05859-.10547.04687-.10156.04297-.13672.01563-.10156-.04297-.14844-.14844-.10547-.04688h-.08594l-.10547.04688-.10156.04297-.1211.03125-.11718-.03125-.07422-.07422v-.11719l.03125-.1211.07422-.0703.0586-.08985.07421-.07422.11719-.03125.10547-.04296h.29297l.13281-.01563.13672-.01563.10156-.04296.08985-.0586.10156-.04687.08984-.0586.13281-.01171.08985.05859.13281.01172.08984-.0586.08594-.05859.10547-.04297.08984-.0586.08594-.0625.08985-.05859.14843-.14843.0586-.08594.05859-.08985.10547-.04296.13281-.01563.11719.02735.1211.03125.05859-.0586.05859-.08984.03125-.26563.02734-.11719.10547.01172.13281.01563.10157-.04297.08984-.0586.0586-.08984.07421-.07422.0586-.08984.04687-.10156.01172-.13281-.01172-.13282-.04687-.10547-.14844-.14843-.0586-.08985-.05859-.08594-.04297-.10546v-.44532l.01563-.1328v-.14845l.01172-.1328-.0586-.0586-.08984.0586-.10156-.04298-.17969-.11719-.08594-.05859-.0625-.08984-.0586-.08985-.07421-.07421-.08594-.0586-.1211.03125-.10155.01172-.10547.04688-.08594.05859-.10547.04297-.14844.14844-.08984.05859-.08594.0586-.08984.0625-.10547.04296-.13281.01563v-.1211l.10547-.04297.11718-.03125.07422-.0703.04297-.10548v-.14844l-.02734-.11718-.14844-.14844-.13281-.01563h-.14844l-.11719.03125-.10547.04297-.10156.04297-.08984.0625-.11719.02735-.07422-.07422.01172-.13281-.04297-.10157-.04297-.10547-.08984-.05859-.11719.02734-.1211.03125-.11718.03125-.10156.04297-.1211.03125-.10156.04297-.10547.04297-.08984.0586-.10156.01562v-.11719l.01562-.13281-.0586-.08985-.07421.04297-.14844.14844-.0586.08985-.07421.07421-.04688.10547-.04296.10156-.07422.07422-.0586.08985-.07422.07422-.05859.08593-.07422.07422-.08984.0625-.07422.07031-.07422.07422-.10156.01563-.13281.01562-.10547-.04296v-.1211l.14843-.14844.04297-.10156.0586-.08984.04687-.10156.04297-.10547.0586-.08985.03124-.11719.04297-.10156.03125-.1211.02735-.11718.04687-.10547.04297-.10156.04297-.10547.07422-.07031.08984-.0625.08985-.0586.10156-.04296h.29687l.26563-.03125.10547-.04297-.07422-.07422-.11719-.03125-.10547-.04297-.08984-.0586-.10156-.04687-.08985-.0586-.10156-.04296-.10547-.04297-.08984-.0625-.08594-.0586-.10547-.04296-.10156-.04297-.1211-.03125-.11718-.03125-.10157-.04297L297.5 410.25l-.10156-.04297-.08985-.0586-.04296-.10546-.01563-.13281.10156-.04297.13281-.01563.13672.01563.13282-.01563.10156-.04297.0586-.08984.01562-.10547-.08985-.0586-.07421-.07421-.10157-.04297-.08984-.0586-.14844-.14843-.04297-.10547-.01562-.13281v-.29297l-.0586-.08985-.08984-.05859-.07422-.07422-.04297-.10547-.03125-.11718-.0586-.08985-.07421-.07422-.11719-.02734-.07422-.07422-.08984-.0586-.08984-.0625-.08594-.05859-.07422-.07421-.0586-.08594-.04687-.10547-.08594-.0586-.14843-.14843-.19532-.0586-.1328.01563-.10157.04297-.07422.07422-.04688.10156-.04296.10547-.0586.08984-.0586.08594-.29687.29687-.08984.0586h-.08594l-.0625-.08594-.04297-.10547.03125-.11719.0586-.08984.02734-.11719-.01172-.13281-.08984-.0625-.10547.04688-.11719.02734-.11719.03125-.26953.17578-.10156.04688-.11719.02734-.10546.04687-.08985.0586-.10156.04297-.0586-.08594-.04687-.10547.01563-.13281.04687-.10547.07031-.07422.07422-.07031.0586-.08985v-.14843l-.04297-.10547h-.23829l-.10156.04687-.03125.11719-.02734.11719-.03125.1211-.07422.04296-.13281.01563-.07422-.04688-.04297-.10156-.04297-.10547-.04687-.10156-.04297-.10547-.1211.03125-.10156.04297-.13281.01562-.11719.03125-.10547.04297-.08984.0586-.10156.04687-.1211.02734-.13281.01563-.10156-.04297-.0586-.08985-.04687-.10546-.04297-.10157-.04297-.10546v-.1172l.0586-.08984.08593-.05859.17969-.11719.10156-.04687.10547-.04297.10547-.0586.10156-.04296.08985-.0625.10156-.04297.10547-.0586.10156-.04687.08984-.0586.10547-.04296.10156-.04297.08985-.0625.10156-.04297.13672-.01563.11719.03125.10156.04297.1211.03125.10156.04297.10546.04688.10157.04296.10547.04297.10156.04688.10547.04297.10156.04297.10547.04687.08594.0586.10546.04296.1172.03125.10546.04297.10156.04688.08985.0586.10547.04296.10156.04297.10547.04687.11719.02735.10156.04687.1211.02735h.14843l.08594-.0586.01562-.10156.0586-.08984-.02735-.1172-.07422-.07421-.11719-.17969-.07421-.07422-.08985-.07421-.17969-.1172-.08593-.05859-.10547-.04296-.10156-.04688-.26954-.17578-.05859-.08985-.07422-.07421-.0586-.08985-.04296-.10156-.03125-.11719-.01563-.13672v-.5625l-.01171-.1328-.01563-.13282-.03125-.11719-.01562-.13281-.01172-.13281-.03125-.1211-.22266-.22265-.0586-.08594-.01562-.10547.03125-.11719.13281-.01562v-91.41406H172.9922v1.45312l-.0586.23438-.35156 1.05078-.17187.52343-.1172.34766-.17577.41016-.11719.17187-.23438.29297-.23046.0586h-.35157l-.11718.05859-.23047.40625v.29297l.11719.17578.23046.23047.1172.23437.64062.75781.29297.46485.17578.23437.23047.35156.23437.34766.64063.8164.17578.46485.17187.41016.11719.69531.17578.46875.11719 1.39844.0586.46484v.875l.11718 1.04688v4.78125l-.0586.46484-.35156 1.28125-.17578.52344-.11328.41015-.35156.9297L172.93359 336l-.23437.58203-.11719.17578-.17187.34766-.17578.40625-.35157.8164-.0586.29297-.11327.29297-.11719.28906-.0586.17579-.11718.875-.0586.40625-.05859.11718-.0586.17579-.05859.17187-.23047.52734-.11718.17188v.23437l-.11719.23438-.0586.17187-.17577.58594v.28906l-.0586.17579v.29296l-.0586.11329-.05859.52734v.17187l-.05468.23438v2.6211l-.17578.8164-.1172.17578-.17577.23438-.1172.17187-.11327.23438-.58594.93359-.23047.28906-.29297.46485-.17578.23437-.28906.35156-.35156.69922-.11328.23047-.17579.41016-.17578.23046-.40625.52735-.8164.69922-.29297.17187-.28906.23438-.17579.11719-.17578.17578-.52344.40625-.52734.17578-.17187.17578-.23438.05469-.64062.17578h-.75782m12.21094 31.02344l-1.07422.44921.35938.89454 1.25-.71485.44531-.53906-.98047-.08985"/><path fill="#d3d3d3" fill-opacity="0" fill-rule="evenodd" d="M201.50781 416.59766h-.89453l.44922.6289.98047.35938.80469-.08985.4453-.98828-.17577.08985-.71485-.35547-.89453.35547m154.6211 59.0703l-.0586-.52343v-.29297l.11328-.29297.0586-.23046.46875-.46875h.11328l.11719-.11329.11718-.05859h.17579l.23437-.0586h.34766l.23437.0586.11719.0586.23047.17187.0586.17578.11718.58203v.29297l-.11719.17578-.17187.28906-.17579.17579-.52734.52343-.23047.23438-.11719.0586h-.17578l-.11718-.0586-.40625-.29297-.17579-.11719-.11718-.0586-.0586-.11327-.05468-.1172m6.64062-10.95702l-.0586-.17188v-1.10937l.0586-.17188.17578-.0586.17188-.05858h.17578l.23437-.0586.1172.0586.05858.69921-.05859.17188-.11719.17578-.11718.0586-.23438.52343-.11328.0586h-.23438l-.05859-.1172m9.61328-14.39062l-.11719-.17578v-.69922l.29297-.875.1172-.17187.17577-.35156.11328-.23047.1172-.29297.35155-.75781.1172-.23047.17187-.23438h.17578l.11719-.0586h.64062l.11719.0586.23437.23438.17188.11328.35156.29297.11719.11718.11328.17579v.11328l.11719.05859.11718.11719v.69922l-.05859.17578v.23047l-.0586.17578-.34765 1.05078-.11719.23047-.11719.23437-.11718.0586-.23047.23437-.64063.28906h-.875l-.41015-.11718-.64063-.46485"/><path fill="none" stroke="#bebebe" stroke-linecap="round" stroke-linejoin="round" stroke-miterlimit="10" stroke-width=".5" d="M467.95703 311.69531H144.02734v168.625h323.9297v-168.625"/><g clip-path="url(#a)"><path fill="#fff" fill-opacity="0" fill-rule="evenodd" d="M144 311.67188v168.65625h324V311.67188H144"/></g><g clip-path="url(#b)"><path fill="none" stroke="#000" stroke-linecap="round" stroke-linejoin="round" stroke-miterlimit="10" stroke-width=".5" d="M147.50781 480.14453l-7.01562.36719"/></g><g clip-path="url(#c)"><path fill="none" stroke="#000" stroke-linecap="round" stroke-linejoin="round" stroke-miterlimit="10" stroke-width=".5" d="M147.50781 480.14453l1.26563 2.10156"/></g><g clip-path="url(#d)"><path fill="none" stroke="#000" stroke-linecap="round" stroke-linejoin="round" stroke-miterlimit="10" stroke-width=".5" d="M146.48828 480.19922l.63281 1.05078"/></g><g clip-path="url(#e)"><path fill="none" stroke="#000" stroke-linecap="round" stroke-linejoin="round" stroke-miterlimit="10" stroke-width=".5" d="M160.82031 480.10547l-7.01172.44531"/></g><g clip-path="url(#f)"><path fill="none" stroke="#000" stroke-linecap="round" stroke-linejoin="round" stroke-miterlimit="10" stroke-width=".5" d="M160.82031 480.10547l1.28906 2.08984"/></g><g clip-path="url(#g)"><path fill="none" stroke="#000" stroke-linecap="round" stroke-linejoin="round" stroke-miterlimit="10" stroke-width=".5" d="M159.80078 480.17188l.64453 1.04296"/></g><g clip-path="url(#h)"><path fill="none" stroke="#000" stroke-linecap="round" stroke-linejoin="round" stroke-miterlimit="10" stroke-width=".5" d="M174.13672 480.57031l-7.01172-.48437"/></g><g clip-path="url(#i)"><path fill="none" stroke="#000" stroke-linecap="round" stroke-linejoin="round" stroke-miterlimit="10" stroke-width=".5" d="M174.13672 480.57031l1 2.24219"/></g><g clip-path="url(#j)"><path fill="none" stroke="#000" stroke-linecap="round" stroke-linejoin="round" stroke-miterlimit="10" stroke-width=".5" d="M173.11719 480.5l.4961 1.1211"/></g><g clip-path="url(#k)"><path fill="none" stroke="#000" stroke-linecap="round" stroke-linejoin="round" stroke-miterlimit="10" stroke-width=".5" d="M187.44531 480.64453l-7-.63281"/></g><g clip-path="url(#l)"><path fill="none" stroke="#000" stroke-linecap="round" stroke-linejoin="round" stroke-miterlimit="10" stroke-width=".5" d="M187.44531 480.64453l.94922 2.26172"/></g><g clip-path="url(#m)"><path fill="none" stroke="#000" stroke-linecap="round" stroke-linejoin="round" stroke-miterlimit="10" stroke-width=".5" d="M186.42578 480.55469l.47656 1.1289"/></g><g clip-path="url(#n)"><path fill="none" stroke="#000" stroke-linecap="round" stroke-linejoin="round" stroke-miterlimit="10" stroke-width=".5" d="M200.7539 480.69922l-6.98827-.74219"/></g><g clip-path="url(#o)"><path fill="none" stroke="#000" stroke-linecap="round" stroke-linejoin="round" stroke-miterlimit="10" stroke-width=".5" d="M200.7539 480.69922l.91798 2.27734"/></g><g clip-path="url(#p)"><path fill="none" stroke="#000" stroke-linecap="round" stroke-linejoin="round" stroke-miterlimit="10" stroke-width=".5" d="M199.73828 480.59375l.45703 1.13672"/></g><g clip-path="url(#q)"><path fill="none" stroke="#000" stroke-linecap="round" stroke-linejoin="round" stroke-miterlimit="10" stroke-width=".5" d="M214.08984 480.27734l-7.02734.10157"/></g><g clip-path="url(#r)"><path fill="none" stroke="#000" stroke-linecap="round" stroke-linejoin="round" stroke-miterlimit="10" stroke-width=".5" d="M214.08984 480.27734l1.1797 2.15235"/></g><g clip-path="url(#s)"><path fill="none" stroke="#000" stroke-linecap="round" stroke-linejoin="round" stroke-miterlimit="10" stroke-width=".5" d="M213.0664 480.29297l.58985 1.07422"/></g><g clip-path="url(#t)"><path fill="none" stroke="#000" stroke-linecap="round" stroke-linejoin="round" stroke-miterlimit="10" stroke-width=".5" d="M227.3789 479.90234l-6.97656.85157"/></g><g clip-path="url(#u)"><path fill="none" stroke="#000" stroke-linecap="round" stroke-linejoin="round" stroke-miterlimit="10" stroke-width=".5" d="M227.3789 479.90234l1.40626 2.01172"/></g><g clip-path="url(#v)"><path fill="none" stroke="#000" stroke-linecap="round" stroke-linejoin="round" stroke-miterlimit="10" stroke-width=".5" d="M240.70703 480.05469l-7.0039.54687"/></g><g clip-path="url(#w)"><path fill="none" stroke="#000" stroke-linecap="round" stroke-linejoin="round" stroke-miterlimit="10" stroke-width=".5" d="M240.70703 480.05469l1.3164 2.07031"/></g><g clip-path="url(#x)"><path fill="none" stroke="#000" stroke-linecap="round" stroke-linejoin="round" stroke-miterlimit="10" stroke-width=".5" d="M254.03125 480.23047l-7.02344.19531"/></g><g clip-path="url(#y)"><path fill="none" stroke="#000" stroke-linecap="round" stroke-linejoin="round" stroke-miterlimit="10" stroke-width=".5" d="M254.03125 480.23047l1.21484 2.13672"/></g><g clip-path="url(#z)"><path fill="none" stroke="#000" stroke-linecap="round" stroke-linejoin="round" stroke-miterlimit="10" stroke-width=".5" d="M267.34766 480.42578l-7.02344-.19531"/></g><g clip-path="url(#A)"><path fill="none" stroke="#000" stroke-linecap="round" stroke-linejoin="round" stroke-miterlimit="10" stroke-width=".5" d="M266.32422 480.39844l.54687 1.09765"/></g><g clip-path="url(#B)"><path fill="none" stroke="#000" stroke-linecap="round" stroke-linejoin="round" stroke-miterlimit="10" stroke-width=".5" d="M280.61719 479.76563l-6.9336 1.1289"/></g><g clip-path="url(#C)"><path fill="none" stroke="#000" stroke-linecap="round" stroke-linejoin="round" stroke-miterlimit="10" stroke-width=".5" d="M280.61719 479.76563l1.48828 1.95312"/></g><g clip-path="url(#D)"><path fill="none" stroke="#000" stroke-linecap="round" stroke-linejoin="round" stroke-miterlimit="10" stroke-width=".5" d="M293.9375 479.78516l-6.9414 1.08984"/></g><g clip-path="url(#E)"><path fill="none" stroke="#000" stroke-linecap="round" stroke-linejoin="round" stroke-miterlimit="10" stroke-width=".5" d="M293.9375 479.78516l1.47266 1.96093"/></g><g clip-path="url(#F)"><path fill="none" stroke="#000" stroke-linecap="round" stroke-linejoin="round" stroke-miterlimit="10" stroke-width=".5" d="M307.19531 479.5l-6.82812 1.65625"/></g><g clip-path="url(#G)"><path fill="none" stroke="#000" stroke-linecap="round" stroke-linejoin="round" stroke-miterlimit="10" stroke-width=".5" d="M307.19531 479.5l1.6289 1.83594"/></g><g clip-path="url(#H)"><path fill="none" stroke="#000" stroke-linecap="round" stroke-linejoin="round" stroke-miterlimit="10" stroke-width=".5" d="M320.34766 479l-6.50391 2.65625"/></g><g clip-path="url(#I)"><path fill="none" stroke="#000" stroke-linecap="round" stroke-linejoin="round" stroke-miterlimit="10" stroke-width=".5" d="M319.40234 479.38672l.94141.78515"/></g><g clip-path="url(#J)"><path fill="none" stroke="#000" stroke-linecap="round" stroke-linejoin="round" stroke-miterlimit="10" stroke-width=".5" d="M333.58594 478.82813l-6.35156 3.0039"/></g><g clip-path="url(#K)"><path fill="none" stroke="#000" stroke-linecap="round" stroke-linejoin="round" stroke-miterlimit="10" stroke-width=".5" d="M332.66406 479.26563l.98438.73046"/></g><g clip-path="url(#L)"><path fill="none" stroke="#000" stroke-linecap="round" stroke-linejoin="round" stroke-miterlimit="10" stroke-width=".5" d="M346.4414 478.09766l-5.42968 4.46093"/></g><path fill="none" stroke="#000" stroke-linecap="round" stroke-linejoin="round" stroke-miterlimit="10" stroke-width=".5" d="M345.64844 478.7461l1.13281.47265"/><g clip-path="url(#M)"><path fill="none" stroke="#000" stroke-linecap="round" stroke-linejoin="round" stroke-miterlimit="10" stroke-width=".5" d="M359.33594 477.66797l-4.58985 5.32031"/></g><path fill="none" stroke="#000" stroke-linecap="round" stroke-linejoin="round" stroke-miterlimit="10" stroke-width=".5" d="M358.66797 478.4414l1.19531.27344"/><g clip-path="url(#N)"><path fill="none" stroke="#000" stroke-linecap="round" stroke-linejoin="round" stroke-miterlimit="10" stroke-width=".5" d="M373.75 479.42188l-6.78906 1.8125"/></g><g clip-path="url(#O)"><path fill="none" stroke="#000" stroke-linecap="round" stroke-linejoin="round" stroke-miterlimit="10" stroke-width=".5" d="M380.16016 480.40234l7.02343-.14843"/></g><g clip-path="url(#P)"><path fill="none" stroke="#000" stroke-linecap="round" stroke-linejoin="round" stroke-miterlimit="10" stroke-width=".5" d="M393.6914 481.54297l6.58985-2.42969"/></g><g clip-path="url(#Q)"><path fill="none" stroke="#000" stroke-linecap="round" stroke-linejoin="round" stroke-miterlimit="10" stroke-width=".5" d="M394.64844 481.1914l-.91406-.8164"/></g><g clip-path="url(#R)"><path fill="none" stroke="#000" stroke-linecap="round" stroke-linejoin="round" stroke-miterlimit="10" stroke-width=".5" d="M407.5625 482.52734l5.48047-4.39843"/></g><g clip-path="url(#S)"><path fill="none" stroke="#000" stroke-linecap="round" stroke-linejoin="round" stroke-miterlimit="10" stroke-width=".5" d="M424.16016 483.80078l-1.08594-6.9414"/></g><g clip-path="url(#T)"><path fill="none" stroke="#000" stroke-linecap="round" stroke-linejoin="round" stroke-miterlimit="10" stroke-width=".5" d="M439.79688 478.29688l-5.73047 4.0625"/></g><path fill="none" stroke="#000" stroke-linecap="round" stroke-linejoin="round" stroke-miterlimit="10" stroke-width=".5" d="M438.96484 478.88672l1.09375.55078"/><g clip-path="url(#U)"><path fill="none" stroke="#000" stroke-linecap="round" stroke-linejoin="round" stroke-miterlimit="10" stroke-width=".5" d="M453.07813 478.25l-5.66407 4.16016"/></g><path fill="none" stroke="#000" stroke-linecap="round" stroke-linejoin="round" stroke-miterlimit="10" stroke-width=".5" d="M453.07813 478.25l2.21093 1.0625"/><g clip-path="url(#V)"><path fill="none" stroke="#000" stroke-linecap="round" stroke-linejoin="round" stroke-miterlimit="10" stroke-width=".5" d="M466 477.80078l-4.8789 5.0586"/></g><path fill="none" stroke="#000" stroke-linecap="round" stroke-linejoin="round" stroke-miterlimit="10" stroke-width=".5" d="M465.28906 478.53516l1.17969.33593"/><g clip-path="url(#W)"><path fill="none" stroke="#000" stroke-linecap="round" stroke-linejoin="round" stroke-miterlimit="10" stroke-width=".5" d="M147.5039 466.75l-7.0078.52734"/></g><path fill="none" stroke="#000" stroke-linecap="round" stroke-linejoin="round" stroke-miterlimit="10" stroke-width=".5" d="M147.5039 466.75l1.3125 2.07031m-2.33202-1.9961l.65625 1.03907m13.65234-1.35547l-6.95313 1.01172m6.95313-1.01172l1.44922 1.98047m-2.46094-1.83203l.72656.98828m13.60938-1.0586l-6.97266.85938m6.97266-.85937l1.41015 2.00781m11.9297-1.6875l-7.02345.21484m7.02344-.21484l1.21875 2.1289m12.09766-1.90624l-7.02344-.23047m7.02344.23047l1.07812 2.20312m12.23438-2.5l-7.01953.36328m7.01953-.36328l1.26172 2.10156m12.0039-2.52734l-6.92187 1.21484m6.92187-1.21484l1.50781 1.9336m11.78125-2.07032l-6.86718 1.48828m6.86719-1.48828l1.58203 1.875m11.71484-1.94531l-6.83594 1.6289m6.83594-1.6289l1.625 1.83984m11.64063-2.02734l-6.73438 2.0039m6.73438-2.0039l1.72265 1.75m11.35547-2.34375l-6.26172 3.1914m6.26172-3.1914l2.01172 1.40625m11.51172-.90235l-6.67969 2.1836m5.70703-1.86719l.88672.85156m13.22266-1.60937l-6.32422 3.0664m6.32422-3.0664l1.98437 1.44922m11.44922-1.17578l-6.5586 2.51953m6.5586-2.51953l1.85156 1.61328m11.54297-1.38282l-6.71875 2.0586m6.71875-2.0586l1.73828 1.73438m11.4375-2.11328l-6.4375 2.8164m6.4375-2.8164l1.92188 1.52344m11.19531-1.91016l-6.04297 3.58984m5.16406-3.0664l1.04688.63672m12.48828-1.96485l-4.72656 5.19922m4.03906-4.4414l1.1914.30078m8.42579-1.33204l4.04687 5.7461m-3.45703-4.91016l.55469-1.09375m10.6875 3.33985l7.01172-.41797m-5.99219.35937l-.64063-1.04687m14.01172 3.4336l4.86328-5.07423m-4.15625 4.33594l-1.17968-.33594m19.69922-1.95312l-6.96094.98047m5.94531-.83594l.72266.99219m13.63672-.50391l-7.01954-.28516m7.01954.28516l1.0625 2.21484m11.58593-4.42187l-5.68359 4.1289m5.6836-4.1289l2.20312 1.07422m10.38281-1.8164l-4.22656 5.61327"/><g clip-path="url(#X)"><path fill="none" stroke="#000" stroke-linecap="round" stroke-linejoin="round" stroke-miterlimit="10" stroke-width=".5" d="M465.67578 464.20703l2.42188.38281"/></g><g clip-path="url(#Y)"><path fill="none" stroke="#000" stroke-linecap="round" stroke-linejoin="round" stroke-miterlimit="10" stroke-width=".5" d="M147.50781 453.8789l-7.01562-.35937"/></g><path fill="none" stroke="#000" stroke-linecap="round" stroke-linejoin="round" stroke-miterlimit="10" stroke-width=".5" d="M147.50781 453.8789l1.03906 2.22266m12.28125-2.50781l-7.02343.21094m7.02344-.21094l1.21484 2.13281m12.09766-1.89062l-7.01954-.27735m7.01953.27735l1.06641 2.21094m12.23828-2.0547l-7-.58593m7 .58594l.96875 2.2539m12.33594-2.13671l-6.98047-.82032m6.98047.82032l.89063 2.28515m12.41796-2.22656l-6.96484-.9375m6.96484.9375l.85157 2.29687m12.49218-2.91015l-7.02343.28906m7.02343-.28906l1.23828 2.11719m-2.26171-2.07422L227 454.65625m13.57813-1.9375l-6.7461 1.96094m6.7461-1.96094l1.71093 1.75781m-2.6914-1.47265l.85547.8789m13.32421-1.5039l-6.51172 2.64062m6.51172-2.64062l1.88282 1.57422m-2.83203-1.19141l.9414.78516m13.25-1.33594l-6.36719 2.97265m6.3672-2.97265l1.96093 1.47656m-2.88672-1.04297l1.96094 1.47656m12.21094-2.04687l-6.23047 3.25m6.23047-3.25l2.02343 1.38672m-2.92969-.91406l1.01172.6953m13.125-1.32421l-6.05859 3.5586m6.0586-3.5586l2.08984 1.28516m-2.97266-.76563l1.04688.64063m13.10156-1.23829l-5.96094 3.71875m5.96094-3.71875l2.125 1.22657m11.02344-1.47266l-5.62891 4.21094m5.6289-4.21094l2.21876 1.04297m11.33203-.6836l-6.09766 3.4922m6.09766-3.4922l2.07422 1.3086m11.17578-1.41797l-5.96875 3.70703m5.96875-3.70703l2.1211 1.23438m-2.98829-.69532l1.0586.61719m12.32812-2.04687l-4.3789 5.49218m4.3789-5.49218l2.41406.44921m-3.05078.34766l1.20703.22656m11.22266-1.72656l-1.33594 6.89844m1.33594-6.89844l2.34765-.71875m9.15235.84766l2.29687 6.64062m-2.29687-6.64062l1.67187-1.79688m10.48438 2.46485l4.61328 5.30078m-4.61328-5.30078l.8789-2.28907m15.29297 8.41016l-1.09765-6.9414m.9375 5.93359l-.98047.73828m17.39843-3.59766l-6.98437.79688m5.96484-.6797l.69532 1.01173m13.64843-.4414l-7.0039-.57813m7.0039.57812l.96875 2.2539m11.72657-4.55468l-5.76172 4.02344m5.76172-4.02344l2.18359 1.11719m-3.02344-.53125l1.09375.5586m12.41406-1.84376l-4.46875 5.42188"/><g clip-path="url(#Z)"><path fill="none" stroke="#000" stroke-linecap="round" stroke-linejoin="round" stroke-miterlimit="10" stroke-width=".5" d="M465.79688 450.98828l2.40234.48828"/></g><g clip-path="url(#aa)"><path fill="none" stroke="#000" stroke-linecap="round" stroke-linejoin="round" stroke-miterlimit="10" stroke-width=".5" d="M147.5039 440.66406l-7.0078-.5586"/></g><path fill="none" stroke="#000" stroke-linecap="round" stroke-linejoin="round" stroke-miterlimit="10" stroke-width=".5" d="M147.5039 440.66406l.97657 2.25m12.29297-1.90625l-6.91797-1.2461m6.91797 1.2461l.75 2.33594m12.5625-2.32813l-6.91406-1.26171m6.91406 1.26171l.7461 2.33594m12.51171-2.08203l-6.79688-1.77344m6.79688 1.77344l.5664 2.39063m12.85548-3.0547l-7.01172-.4453m7.01172.4453l1.01171 2.23438m-2.03125-2.29687l.50782 1.11719m13.83593-1.26954l-7.02734-.01562m7.02734.01562l1.14453 2.16797m-2.16796-2.16797l.57422 1.08204m13.72265-1.62891l-6.94531 1.07812m6.94531-1.07812l1.46875 1.96484m11.59766-2.8164l-6.44922 2.78515m6.44922-2.78515l1.91797 1.53125m10.6953-2.58594l-5.04687 4.89062m5.04688-4.89062l2.33594.7539m11.58984.10157l-6.26563 3.17969m6.26563-3.1797l2.00781 1.41016m11.09766-1.76953l-5.84375 3.90235m5.84375-3.90235l2.16015 1.16016M279.22267 439l1.08203.58203m13.13672-1.0664l-5.94922 3.73828m5.94922-3.73829l2.1289 1.21875m-2.9961-.67578l1.06642.60938m12.89062-1.46875l-5.5039 4.36719m5.5039-4.3672l2.25.98048m-3.05078-.34375l1.125.48828m13.02734-1.07813l-5.57422 4.27735m5.57422-4.27735l2.23438 1.01563m-3.04297-.39453l2.23047 1.01953m11.78515-1.77735l-5.35937 4.54688m5.35937-4.54688l2.28125.90625m-3.0625-.24218l1.14063.45312m12.14453-1.82031l-3.73437 5.95312m3.73437-5.95312l2.44922.17969m11.07422-.03516l-4.15235 5.66797m4.15235-5.66797l2.42969.35156m-3.03125.47266l1.21093.17578m11.33985-1.60937l-1.41797 6.8828m1.41797-6.8828l2.35156-.69141m-2.5586 1.69531l1.17579-.34765m10.07812-.36329l3.11719 6.29688m-3.11719-6.29688l1.42969-1.99218m-.97656 2.91015l.71484-.99609m12.76953-.16016l1.8711 6.77344m-1.8711-6.77344l1.78125-1.6875m13.63281 1.76172l-2.32812 6.6289m2.32812-6.6289l2.42579-.3711m12.89843 2.17188l-6.34375 3.02344m6.34375-3.02344l1.97266 1.46094m-2.89453-1.01953l.98437.73047m13.16016-1.34766l-6.16016 3.375m6.16016-3.375l2.05078 1.34766m-2.94531-.85547l1.02344.67187m13.34765-.82812l-6.48437 2.70703m6.48437-2.70703l1.89844 1.55469m-2.83984-1.16407l1.89453 1.5586m12.23437-2.22266l-6.23047 3.2539"/><g clip-path="url(#ab)"><path fill="none" stroke="#000" stroke-linecap="round" stroke-linejoin="round" stroke-miterlimit="10" stroke-width=".5" d="M466.67578 438.75781l2.02344 1.38672"/></g><g clip-path="url(#ac)"><path fill="none" stroke="#000" stroke-linecap="round" stroke-linejoin="round" stroke-miterlimit="10" stroke-width=".5" d="M147.44922 427.73438l-6.89844-1.33204"/></g><path fill="none" stroke="#000" stroke-linecap="round" stroke-linejoin="round" stroke-miterlimit="10" stroke-width=".5" d="M147.44922 427.73438l.71875 2.34765m12.55469-2.15234l-6.8125-1.72266m6.8125 1.72266l.58203 2.38672m-1.57422-2.63672l.29297 1.1914m13.98437-.83593l-6.75781-1.9336m6.75781 1.9336l.51172 2.39843m12.8125-2.42968l-6.77344-1.8711m6.77344 1.8711l.53516 2.39453m-1.51953-2.66797l.26562 1.19922m14.10156-1.21485l-6.90625-1.29296m6.90625 1.29296l.73047 2.34375m-1.73828-2.53125l.36719 1.17188m14.01172-1.4961l-7.02344-.26953m7.02344.26954l1.0664 2.21093m12.23047-1.97265l-6.98437-.7461m6.98437.7461l.91797 2.27343m11.63281-4.85937l-5.45703 4.42969m4.66406-3.78516l1.12891.47656m12.0625-1.91797l-3.6211 6.02344m3.6211-6.02344l2.44922.125m9.96094-.5078l-1.8125 6.78905m1.54687-5.80468l1.19531-.27735m14.69532 1.27344l-6.4336 2.82422m6.4336-2.82422l1.92578 1.51953m10.98047-2.21875l-5.61719 4.22266m5.61719-4.22266l2.22265 1.03906m11.14453-.96875l-5.71875 4.08594m5.71875-4.08594l2.19532 1.08985m9.53125-2.32422l-2.54297 6.55078m2.54297-6.55078l2.4336-.28906m-2.8047 1.24218l1.21875-.14453m13.3672-.29297l-4.34376 5.51954m4.34375-5.51954l2.41797.4336m11.01953-.33594l-4.58594 5.32422m4.58594-5.32422l2.39453.54297m10.64063-.76172l-4.02735 5.76172m4.02735-5.76172l2.4336.29688m-3.01954.54296l1.21875.14844m11.8086-1.42969l-2.28126 6.64454m2.28125-6.64454l2.42188-.38671m-2.7539 1.35156l1.21093-.1914m11.20312-.96485l.1836 7.02734m-.1836-7.02734l2.13672-1.20703m-2.10937 2.23047l1.07031-.60547m14.04297.03906l-3.46484 6.11328m3.46484-6.11328l2.45312.0664m-2.95703.82422l1.22657.03125m13.17578-.5078l-4.63282 5.28515m4.63282-5.28516l2.39062.5625m-3.0625.20703l2.38672.5625m-3.0625.20703l1.19531.28125m13.7461-1.54687l-5.1914 4.73828m5.1914-4.73828l2.3125.82422m-3.0664-.13281l1.15624.41015m12.1836-1.71094l-3.73047 5.95704m3.73046-5.95704l2.44532.17579m-2.98828.6914l1.22265.08594m13.92188.47266l-6.30469 3.10546m6.30469-3.10546l1.99218 1.4375m-2.91015-.98438l.9961.71875m12.84765-1.78906l-5.52344 4.33984"/><g clip-path="url(#ad)"><path fill="none" stroke="#000" stroke-linecap="round" stroke-linejoin="round" stroke-miterlimit="10" stroke-width=".5" d="M466.32422 424.89844l2.2461.98828"/></g><g clip-path="url(#ae)"><path fill="none" stroke="#000" stroke-linecap="round" stroke-linejoin="round" stroke-miterlimit="10" stroke-width=".5" d="M147.41797 414.5625l-6.83594-1.61719"/></g><path fill="none" stroke="#000" stroke-linecap="round" stroke-linejoin="round" stroke-miterlimit="10" stroke-width=".5" d="M147.41797 414.5625l.6211 2.375m12.65624-2.22656l-6.76172-1.91406m6.76172 1.91406l.51953 2.39844m12.83594-2.5547l-6.83984-1.60156m6.83984 1.60157l.6289 2.3711m12.59766-2.0625l-6.66797-2.21876m6.66797 2.21875l.41016 2.41797m13.08594-3.5625l-7.02735.07031m7.02735-.07031l1.17187 2.15625m11.9414-3.29688l-6.62108 2.34766m6.62109-2.34765l1.8086 1.65625m11.26952 1.22265l-6.14843-3.40625m5.2539 2.91016l-.02344 1.22656m12.91407.60938l-3.51172-6.08594m3.51172 6.08594l-1.30078 2.08203m13.55078-8.57032l-1.38281 6.89063m16.27343-6.1289l-4.53125 5.36718m4.53125-5.36719l2.39844.51563m12.16016 2.30469l-7.01953-.27344m6 .23437l.53125 1.10157m11.93359-4.3047l-3.28125 6.21095m3.28125-6.21094l2.45703-.00781m10.00781-.3125l-1.57812 6.84765m1.34765-5.85156l1.1836-.3164m12.6914-.58594l-2.23828 6.66406m2.23828-6.66406l2.41797-.40235m11.34375.58594l-3.1289 6.29297m3.1289-6.29297l2.45313-.0664m11.86328.8164l-5.13672 4.79687m5.13672-4.79687l2.32031.79687m11.60547.10547l-6.35547 2.99219m6.35547-2.99219l1.96484 1.46875m11.0586-1.98047l-5.76953 4.01563m5.76953-4.01563l2.17968 1.1211m-3.01953-.53516l1.08985.5586m12.71093-1.57032l-5.0664 4.86719m5.0664-4.86719l2.33204.76172m-3.06641-.05469l2.33203.76563m11.6836-1.51172l-4.9961 4.9414m4.9961-4.9414l2.34374.73047M398.75782 412l1.17187.36719m12.63672-1.29688l-4.53125 5.36719m4.53125-5.36719l2.39843.51563m-3.05468.26562l2.39843.51563m11.54297-1.32422l-4.47265 5.42187m4.47265-5.42187l2.40625.48828m-3.05469.30078l1.19922.2461m12.0586-1.48829l-3.0586 6.32813m3.0586-6.32813l2.45312-.09375m11.8125.76563l-4.95703 4.98437m4.95703-4.98437l2.34766.71094m11.23828-.40625l-5.5 4.37109"/><g clip-path="url(#af)"><path fill="none" stroke="#000" stroke-linecap="round" stroke-linejoin="round" stroke-miterlimit="10" stroke-width=".5" d="M466.3125 411.5664l2.25.98048"/></g><path fill="none" stroke="#000" stroke-linecap="round" stroke-linejoin="round" stroke-miterlimit="10" stroke-width=".5" d="M465.51172 412.20313l1.125.48828"/><g clip-path="url(#ag)"><path fill="none" stroke="#000" stroke-linecap="round" stroke-linejoin="round" stroke-miterlimit="10" stroke-width=".5" d="M147.40234 401.32031l-6.80468-1.76172"/></g><path fill="none" stroke="#000" stroke-linecap="round" stroke-linejoin="round" stroke-miterlimit="10" stroke-width=".5" d="M147.40234 401.32031l.57032 2.38281m12.60937-1.97265l-6.53516-2.58203m6.53516 2.58203l.27344 2.4375m13.13281-2.6914l-6.71484-2.07813m6.71484 2.07812l.45703 2.41016m12.90235-2.57031l-6.8047-1.75782m6.8047 1.75782l.5703 2.38671m12.7461-2.39453l-6.8086-1.74218m5.81642 1.48828l.28906 1.19531m7.1875-1.04297l6.85547-1.53906m-5.85938 1.3164l-.80078-.92968m13.05078.01953l6.99219.72656m-5.97266-.6211l-.46094-1.13671m18.77344 3.84375l-5.03906-4.89844m5.03906 4.89844l-.6836 2.35547m12.50392-1.44531l-2.0547-6.71875m1.75782 5.74218l-.86719.86719m16.9336-3.71484l-6.96485.93359m5.95313-.80078l.71484 1m13.2539.9414l-6.24609-3.21484m6.2461 3.21485l.03515 2.45312m13.63672-4.5586l-6.95703.9961m5.94531-.85156l.72266.98828m13.59766-1.16016l-6.94532 1.05078m6.94532-1.05078l1.46484 1.96875m11.64063-2.75l-6.52735 2.60938m6.52735-2.60938l1.87109 1.58594m11.01562-2.35547l-5.66796 4.15235m5.66796-4.15235l2.20704 1.0664m11.78125.82423l-7.01563.37109m5.9961-.32031l.6328 1.05469m13.31641.6875l-6.2461-3.21875m6.2461 3.21875l.03125 2.45312m13.41016-5.39844l-6.5 2.67188m6.5-2.67188l1.89062 1.5664m-2.83593-1.17577l.9453.78125m12.23829-2.59375l-4.34766 5.51953m4.34766-5.51953l2.41797.4336m-3.05078.36718l2.41797.4375m12.10156-.67188l-5.48828 4.38282m5.48828-4.38282l2.2539.97266m-3.05078-.33594l1.125.48828m13.71485.53907l-6.94531 1.05859m6.9453-1.0586l1.46485 1.96876m9.8711-4.6211l-2.98438 6.36328m2.98438-6.36328l2.44921-.125m-2.8828 1.05078l1.22265-.0625m12.16015-1.01171l-2.2578 6.65625m2.2578-6.65625l2.42188-.39454m-2.75 1.36329l1.21094-.19532m14.5039 1.10547l-6.39843 2.90235m6.39843-2.90235l1.94532 1.4961m11.52734-1.08985l-6.71094 2.08594"/><g clip-path="url(#ah)"><path fill="none" stroke="#000" stroke-linecap="round" stroke-linejoin="round" stroke-miterlimit="10" stroke-width=".5" d="M466.91797 399.39453l1.74219 1.72656"/></g><path fill="none" stroke="#000" stroke-linecap="round" stroke-linejoin="round" stroke-miterlimit="10" stroke-width=".5" d="M465.9414 399.69922l.8711.86328"/><g clip-path="url(#ai)"><path fill="none" stroke="#000" stroke-linecap="round" stroke-linejoin="round" stroke-miterlimit="10" stroke-width=".5" d="M147.39063 388.04297l-6.78125-1.83985"/></g><path fill="none" stroke="#000" stroke-linecap="round" stroke-linejoin="round" stroke-miterlimit="10" stroke-width=".5" d="M146.40625 387.77344l.26953 1.19922m14.08984-1.19532l-6.90234-1.30859m6.90234 1.3086l.73047 2.34374m12.60547-3.54296l-6.9414 1.08984m6.9414-1.08985l1.47266 1.96094m9.59375-4.71094l-2.44531 6.58985m2.4453-6.58985l2.4336-.32421m8.21094.41796l2.89453 6.40235m-2.47266-5.47266l.75-.96875M210.25 383.625l.64844 6.9961m16.32031-2.3672l-6.65625-2.2578m6.65625 2.2578l.39453 2.41798m11.8789-.87891l-4.5703-5.33985m3.90234 4.5625l-.44531 1.14063m15.19922-1.30078l-6.11329-3.46485m6.11328 3.46485l-.0664 2.45312m13.79297-3.62109l-6.9375-1.1289m6.9375 1.1289l.78515 2.32422m12.3047-1.53516l-6.48829-2.70703m6.48828 2.70703l.23047 2.4414m-1.17578-2.83593l.11719 1.22266m14.39843-1.84375l-6.99609-.67578m6.9961.67578l.9375 2.26562m12.375-2.96094l-6.9922.71875m6.9922-.71875l1.36718 2.03516m-2.38672-1.9336l.6836 1.01954m13.64062-1.21094l-6.97266.89453m6.97266-.89453L322 388.67968m11.8164-2.41406l-6.8125 1.71485m6.8125-1.71485l1.64844 1.81641m11.7461-1.39844l-6.97266.87891m6.97266-.8789l1.41406 2.0078m11.92578-1.76952l-7.01562.40234m7.01562-.40235l1.26953 2.09766m-2.29297-2.03906l.63672 1.05078m13.4336-2.26953l-6.48047 2.72265m6.48047-2.72265l1.89843 1.55469m-2.84375-1.15625l1.90235 1.55078m11.5625-3.10938l-4.89453 5.04297m4.89453-5.04297l2.35937.6836m-3.07031.05078l1.17969.33984m13.27734-.57031l-5.7539 4.03515m5.7539-4.03515l2.1875 1.10937m-3.02344-.52343l1.08985.55859m12.6836-1.59375l-5 4.9336m5-4.9336l2.34374.73047m-3.07031-.01172l1.17187.36328m11.97266-1.74219l-3.20703 6.25391m3.20703-6.2539l2.45312-.03516m11.89063.83594l-5.26172 4.65234m5.26172-4.65235l2.30078.85938m-3.0664-.1836l1.14843.4297m13.78125.75l-6.96094.9453m6.96094-.9453l1.4336 1.98827m11.79296-2.4414l-6.78125 1.84765"/><g clip-path="url(#aj)"><path fill="none" stroke="#000" stroke-linecap="round" stroke-linejoin="round" stroke-miterlimit="10" stroke-width=".5" d="M466.95313 386.19922l1.67968 1.78515"/></g><g clip-path="url(#ak)"><path fill="none" stroke="#000" stroke-linecap="round" stroke-linejoin="round" stroke-miterlimit="10" stroke-width=".5" d="M147.17578 375.3164l-6.35156-3.01562"/></g><path fill="none" stroke="#000" stroke-linecap="round" stroke-linejoin="round" stroke-miterlimit="10" stroke-width=".5" d="M146.25 374.875l.05469 1.22656m13.91406-.3125l-5.80469-3.96094m5.80469 3.96094l-.26953 2.4375m14.08203-5.30078l-6.80078 1.76172m5.8125-1.5039l.82812.90624m11.94532-3.2539l-3.7422 5.94531m3.19923-5.08203l1.22265.08984m9.84375-1.3711l1.84375 6.78126m-1.57812-5.79297l.89453-.84375m9.65625 2.4414l6.83984 1.60938m-5.84375-1.375l-.3164-1.1875m13.25781 3.88281l5.59375-4.25m-4.78125 3.63282l-1.11328-.51563m18.66016 1.71094l-4.4922-5.40625m3.83595 4.61719l-.46485 1.13671m14.91797-.83984l-5.46094-4.42187m5.46094 4.42187l-.46875 2.41016m14.38672-3.51172L260.5 372.69922m6.66797 2.21875l.41015 2.41797m-1.3789-2.74219l.20703 1.21094m14.01172-.70703l-6.53516-2.57813m6.53516 2.57813l.27734 2.4375m13.05078-2.46875l-6.5625-2.51563m6.5625 2.51563l.30078 2.43359m13.15625-2.88672l-6.84375-1.60937m6.84375 1.60937l.625 2.3711m-1.62109-2.60547l.3125 1.1875m14.08984-1.66407l-7.02734-.1875m7.02734.1875l1.08985 2.19922m-2.11328-2.22656l.54687 1.09766m13.77344-1.51954l-6.99219.71094m6.99219-.71094l1.36328 2.03907m-2.3789-1.9336l.67968 1.01954m13.625-1.33594l-6.9375 1.13281m6.9375-1.13281l1.48438 1.95312m-2.4961-1.78906l1.48828 1.95313m-2.49609-1.78907l.74219.97656m14.59765-1.2539l-6.94921 1.02734m6.94921-1.02734l1.45704 1.97656m-2.46875-1.82422l1.45703 1.97266m-2.46875-1.82422l.73047.98828M373.61719 372.5l-6.52344 2.61719m6.52344-2.61719l1.875 1.58203m-2.82422-1.19922l1.875 1.58203m12.1914-2.3789l-6.125 3.44531m6.125-3.44531l2.06641 1.32422m-2.95703-.82422l2.0664 1.32422m11.88672-2.21094l-5.62109 4.21875m5.6211-4.21875l2.22265 1.04297m-3.03906-.42969l1.10937.52344m12.75-1.45703l-5.07812 4.85937m5.07812-4.85937l2.33203.76953m-3.0703-.0625l1.16405.38281m12.8086-1.17188l-4.91406 5.02344m4.91406-5.02344l2.35547.69141m11.47265-.05469l-5.9414 3.75m5.9414-3.75l2.13282 1.21875m11.39062-.84375l-6.35547 3m6.35547-3l1.96484 1.46875m11.28907-1.58984l-6.23438 3.24219m5.32813-2.76953l1.00781.6953"/><g clip-path="url(#al)"><path fill="none" stroke="#000" stroke-linecap="round" stroke-linejoin="round" stroke-miterlimit="10" stroke-width=".5" d="M147.11328 362.1211l-6.22656-3.25782"/></g><path fill="none" stroke="#000" stroke-linecap="round" stroke-linejoin="round" stroke-miterlimit="10" stroke-width=".5" d="M158.85156 363.65234l-3.07031-6.3203m2.6211 5.40233l-.72266.9922m13.8711.15624l-1.84376-6.78125m1.57813 5.79688l-.89453.83984m14.29296.1914l-1.47656-6.87109m1.26172 5.8711l-.9375.78906m13.6875.28906l.08203-7.02734m-.07031 6.0039l-1.08984.5625m17.46484-4.83593l-6.0586 3.5625m19.46875-3.38672l-6.25 3.21484m5.33985-2.7461l1.00781.69923m11.9375 3.42578l-3.6914-5.97656m3.6914 5.97656l-1.23437 2.1211m15.45312-2.92188l-5.5-4.3711m5.5 4.3711l-.44531 2.41406m13.79297-2.45313l-5.5625-4.29296m5.5625 4.29296l-.41016 2.41797m13.96875-2.77734l-6.04687-3.57813m6.04687 3.57813l-.11328 2.45313m-.76953-2.97266l-.05469 1.22656m14.47266-1.14844l-6.49219-2.6914m6.49219 2.6914l.23437 2.44141m-1.17969-2.83594l.23829 2.44531m14.22265-2.71484l-6.89062-1.36719m6.89062 1.3672l.70703 2.35155m-1.71093-2.55078l.71093 2.35156m13.66016-2.51171l-6.9961-.64454m6.9961.64454l.94922 2.26171m-1.96485-2.35546l.94532 2.26171m13.39843-2.37109l-7.02343-.24219m7.02343.2422L335 362.8203m-2.09766-2.24219l1.07422 2.20704m13.2539-2.02735l-7.0078-.53125m7.0078.53125l.98438 2.25m-2.0039-2.32812l.98437 2.25m13.35938-2.4375h-7.02735m7.02735 0l1.15234 2.16797m-2.17578-2.16797l1.15234 2.16797m13.16407-2.54688l-6.98438.75781m6.98438-.7578l1.3789 2.03124m-2.39453-1.92187l1.3789 2.03125m12.66798-3.19141l-6.41797 2.86328m6.41797-2.86328l1.9375 1.50781m-2.8711-1.09375l1.9375 1.51172m11.9336-2.57812l-5.66016 4.16406m5.66016-4.16406l2.21093 1.0625m-3.03515-.45704l2.21093 1.0625m-3.03515-.45703l1.10547.53125m13.66015-1.98437l-5.26562 4.65234m5.26562-4.65234l2.30078.86328m-3.0664-.1875l2.29687.86328m11.76172-1.5664l-5.22265 4.70312m5.22265-4.70313l2.30469.83985m-3.0625-.15625l1.15234.42187m13.00391-1.01171l-5.38672 4.51562m5.38672-4.51563l2.27344.92188m11.35547-.48438l-6.01172 3.64063m5.13672-3.10938l1.05078.62891m13.07812-1.2539l-5.89062 3.83203"/><g clip-path="url(#am)"><path fill="none" stroke="#000" stroke-linecap="round" stroke-linejoin="round" stroke-miterlimit="10" stroke-width=".5" d="M466.50781 358.57813l2.14453 1.1875"/></g><g clip-path="url(#an)"><path fill="none" stroke="#000" stroke-linecap="round" stroke-linejoin="round" stroke-miterlimit="10" stroke-width=".5" d="M143.91797 350.6914l.16406-7.02734"/></g><g clip-path="url(#ao)"><path fill="none" stroke="#000" stroke-linecap="round" stroke-linejoin="round" stroke-miterlimit="10" stroke-width=".5" d="M143.9414 349.66797l-1.09765.55078"/></g><path fill="none" stroke="#000" stroke-linecap="round" stroke-linejoin="round" stroke-miterlimit="10" stroke-width=".5" d="M160.82031 346.94531l-7.01172.46485m13.625-1.6875l6.39453 2.91015m6.75391-2.46484l6.72656 2.01953m-5.75-1.72656l-.23828-1.20313m15.8164 5.42969l.25-7.01953m-.21483 6l-1.10547.53515m16.42578-.08203l-3.83594-5.88671m3.27734 5.03125l-.58984 1.07421m16.03906-3.55468l-6.98437.78906m6.98437-.78906l1.38672 2.01953m11.10156.66406l-5.33203-4.58203m5.33203 4.58203l-.53906 2.39453m13.20703-1.8125l-4.03906-5.7461m4.03906 5.7461l-1.10937 2.1914m14.84765-2.53906l-4.8828-5.05078m4.8828 5.05079l-.7578 2.33593m14.69921-3.14844l-6.13672-3.42578m6.13672 3.42579l-.05469 2.45312m-.83984-2.94922l-.02344 1.22656m14.35547-.96875l-6.3789-2.94921m6.3789 2.94921l.13281 2.44922m-1.0625-2.8789l.13672 2.44921m14.23828-2.34375l-6.64062-2.30078m6.64062 2.30079l.3789 2.42578m-1.34765-2.76172l.3789 2.42578m13.98438-2.36328l-6.80078-1.7539m6.80078 1.7539l.57422 2.38672m-1.5625-2.64063l.57422 2.38672m13.83594-3.21875l-7.01563.41797m7.01563-.41797l1.27734 2.09375m-2.29687-2.03125l.63672 1.04688m13.55468-1.91797l-6.72656 2.03515m6.72656-2.03515l1.73047 1.74218m-2.71094-1.4453l.8672.87108m13.48046-.97265L353.625 348m6.83203-1.64453l1.6289 1.83594m-2.625-1.59766l.81641.91797m13.58985-.45313l-7.02344.23829m7.02344-.23829l1.22656 2.12891m-2.2461-2.09375l1.22266 2.125M387.0586 346.25l-6.77734 1.85938m6.77734-1.85938l1.6836 1.78516m-2.66797-1.51563l1.6836 1.78516m12.51171-2.3789l-6.5664 2.5078m6.5664-2.5078l1.84766 1.61327m-2.80469-1.25l.92578.80469m13.0625-1.74219l-6 3.65235m6-3.65235l2.11328 1.25m-2.98437-.71875l2.10937 1.25m11.39844-2.59375l-4.64063 5.27735m4.64063-5.27735l2.38672.5664m-3.0625.20313l2.38672.56641m11.79297-1.15625l-5.01954 4.91797m5.01954-4.91797l2.33984.74219m-3.07031-.02735l1.16797.3711m13.53906-.13672l-6.34375 3.01953m6.34375-3.01953l1.97265 1.46484m11.46875-1.16406l-6.59765 2.41797"/><g clip-path="url(#ap)"><path fill="none" stroke="#000" stroke-linecap="round" stroke-linejoin="round" stroke-miterlimit="10" stroke-width=".5" d="M466.85938 345.96875l1.82812 1.64063"/></g><path fill="none" stroke="#000" stroke-linecap="round" stroke-linejoin="round" stroke-miterlimit="10" stroke-width=".5" d="M465.90234 346.32031l.91016.82031"/><g clip-path="url(#aq)"><path fill="none" stroke="#000" stroke-linecap="round" stroke-linejoin="round" stroke-miterlimit="10" stroke-width=".5" d="M142.19922 336.8789l3.60156-6.03124"/></g><path fill="none" stroke="#000" stroke-linecap="round" stroke-linejoin="round" stroke-miterlimit="10" stroke-width=".5" d="M156.3789 337.25l1.875-6.77344m-1.60546 5.78906l-1.19531.26563m16.19921-2.66797l-.01953-.19922-.0586-.1914-.09374-.17579-.46094-.3789-.1914-.0586-.19922-.01953-.19922.01954-.1914.05859-.45704.3789-.09375.17579-.0586.1914-.01952.19922.01953.19922.05859.1914.09375.17579.45703.3789.1914.0586.19923.01953.19922-.01953.1914-.0586.46094-.3789.09375-.17578.0586-.19141.01952-.19922m14.69922-2.5586l-4.8125 5.1172m4.11328-4.375l1.1836.32421M194.46875 336l5.58203-4.27344m-4.76953 3.65235l-1.11328-.51172m16.76953 2.49219l-.72266-6.9922m.72266 6.9922l-2.03516 1.36718m18.25782-3.57812l-6.53907-2.57031m6.53907 2.5703l.27734 2.4375m12.78906-1.92968l-6.04297-3.58594m6.04297 3.58594l-.11328 2.44922m-.76562-2.97266l-.0586 1.22656m13.63672.06641l-4.8125-5.125m4.8125 5.125l-.78906 2.32031m14.03125-2.2539l-4.66406-5.25781m4.66406 5.2578l-.85938 2.30079m.1797-3.0664l-.4297 1.14843m14.83985-.82031l-5.4961-4.38281m5.4961 4.3828l-.45313 2.41016m-.34765-3.04687l-.22657 1.20312m14.35547-.58593l-5.52344-4.34375m5.52344 4.34375l-.4336 2.41406m-.37109-3.04688l-.21484 1.20704m14.53516-.85157l-5.92188-3.78906m5.92188 3.78906l-.19922 2.44531m-.66406-2.99609l-.09766 1.22266m14.29297-.70313L314.11719 332m5.95703 3.72656l-.17188 2.44531m-.6953-2.98828l-.08595 1.22266m14.48438-1.08203l-6.39063-2.92188m6.39063 2.92188l.14844 2.44922m-1.07813-2.875l.07422 1.22656m14.4336-2.88281l-6.91407 1.24219m6.91406-1.2422l1.51953 1.92579m-2.52343-1.7461l.75781.96485m13.375-1.80469l-6.54297 2.5625m6.54297-2.5625l1.86328 1.59766m11.66797-.73438l-6.97656.83594m6.97656-.83594l1.40234 2.01172m-2.41797-1.89062l.70313 1.0078m13.2539-2.33983l-6.22656 3.2578m6.22657-3.2578l2.02343 1.3828m-2.92968-.91015l1.01171.6914m13.08594-1.3789l-5.98047 3.6875m5.98047-3.6875l2.11719 1.23828m11.60156-.29687l-6.78906 1.80469m6.78906-1.8047l1.67188 1.79688m11.1289-2.90625l-5.76172 4.02344m5.76172-4.02344l2.1875 1.11719m-3.02343-.53125l1.08984.5586m12.0039-2.13673l-3.64453 6.00782m3.64454-6.00781l2.44921.14062m-2.98046.73438l1.22656.0703m13.78515.21094l-5.97656 3.69532m5.97656-3.69531l2.1211 1.23828m-2.98828-.69922l1.0586.61719m13.42187-.5547l-6.57032 2.4922"/><g clip-path="url(#ar)"><path fill="none" stroke="#000" stroke-linecap="round" stroke-linejoin="round" stroke-miterlimit="10" stroke-width=".5" d="M466.84766 332.61719l1.84375 1.61328"/></g><path fill="none" stroke="#000" stroke-linecap="round" stroke-linejoin="round" stroke-miterlimit="10" stroke-width=".5" d="M465.89063 332.97656l1.84765 1.61719"/><g clip-path="url(#as)"><path fill="none" stroke="#000" stroke-linecap="round" stroke-linejoin="round" stroke-miterlimit="10" stroke-width=".5" d="M140.86328 322.13281l6.27344-3.16797"/></g><path fill="none" stroke="#000" stroke-linecap="round" stroke-linejoin="round" stroke-miterlimit="10" stroke-width=".5" d="M155.10547 323.28125l4.41797-5.46484m-3.77344 4.66796l-1.20703-.23437m13.51172.6914l5.14844-4.78515m-4.39844 4.08594l-1.16016-.39844m13.9375 1.30469l4.72656-5.19922m-4.03906 4.4414l-1.1875-.30078m19.65625-1.05859l-6.95703-.96875m6.95703.96875l.84375 2.30469m12.0664-1.08985L207.5 318.84766m6.14844 3.39843l-.03906 2.45704m13.21875-2.22657l-5.875-3.85937m5.875 3.85937l-.23047 2.44531m-.625-3.0039l-.11328 1.21875m14.85546-2.78125l-7.01953.38281m7.01953-.38281l1.26563 2.10156m11.69922-.3711l-6.3164-3.07812m6.3164 3.07813l.08594 2.45312m12.29687-1.27344l-4.45313-5.4375m4.45313 5.4375l-.94922 2.26563m13.91016-2.01172l-3.7461-5.94531m3.7461 5.94531l-1.21875 2.1289m15.14453-2.61718l-4.96875-4.96875m4.96875 4.96875l-.71484 2.34766m14.11328-2.4336l-5.13282-4.79687m5.13282 4.79687l-.63672 2.3711m14.53906-3.21875L313.9414 319m6.3086 3.09766l.07813 2.45312m13.5664-3.55469l-6.96875-.89453m6.96875.89453l.86719 2.29688m12.39844-2l-6.8672-1.49219m6.8672 1.49219l.66406 2.36328m12.66406-3.78906l-6.89453 1.35937m5.89063-1.16015l.77343.95312m13.46875-1.46484l-6.74218 1.98828m5.76171-1.69922l.85938.875m13.20312-1.75l-6.27734 3.16016m6.27734-3.16016l2.00391 1.41797m10.22656-2.6914l-4.10547 5.70702m4.10547-5.70703l2.42969.32813m10.25781-.6875l-2.84765 6.42578m2.84765-6.42578l2.44532-.17578m9.90625-.09375l-.92188 6.96484m.78906-5.95313l1.14844-.42968m12.85938 2.89844l-.01954-.19922-.05859-.19141-.09375-.17578-.45703-.3789-.1914-.0547-.20313-.01953-.19922.01954-.1914.05468-.45704.3789-.09375.17579-.0586.1914-.01952.19923.01953.19921.0586.19141.09374.17969.45703.375.1914.0586.19923.01952.20312-.01953.1914-.0586.45704-.375.09375-.17968.0586-.1914.01953-.19923m15.32421-1.77734l-6.0625 3.55469m6.0625-3.55469l2.08985 1.28906m10.89453-1.76171l-5.39844 4.5"/><g clip-path="url(#at)"><path fill="none" stroke="#000" stroke-linecap="round" stroke-linejoin="round" stroke-miterlimit="10" stroke-width=".5" d="M466.26172 318.29688l2.26953.92968"/></g><path fill="none" stroke="#000" stroke-linecap="round" stroke-linejoin="round" stroke-miterlimit="10" stroke-width=".5" d="M465.47656 318.95313l1.13672.46484"/><path fill="#ff3030" fill-rule="evenodd" d="M353.42578 449.89453h7.6914V439.75h-7.6914v10.14453"/><path fill="azure" fill-rule="evenodd" d="M355.25781 441.58203h.83594v5.73828h3.1914v.74219h-4.02734v-6.48047"/><path fill="#00f" fill-rule="evenodd" d="M388.23828 432.14063h8.61719v-10.14454h-8.61719v10.14454"/><path fill="azure" fill-rule="evenodd" d="M390.07031 423.82813h.83594v2.82421h3.28516v-2.82421h.83203v6.48046h-.83203v-2.91796h-3.28516v2.91796h-.83594v-6.48046"/><path fill="#00f" fill-rule="evenodd" d="M224.01953 418.82813h8.61719v-10.14844h-8.61719v10.14844"/><path fill="azure" fill-rule="evenodd" d="M225.85156 410.51172h.83594v2.82422h3.28516v-2.82422h.83203v6.48047h-.83203v-2.91406h-3.28516v2.91406h-.83594v-6.48047"/><path fill="#ff3030" fill-rule="evenodd" d="M446.63281 414.38672h7.6914v-10.14453h-7.6914v10.14453"/><path fill="azure" fill-rule="evenodd" d="M448.46484 406.07422h.83204v5.74219h3.1953v.73828h-4.02734v-6.48047"/><path fill="#ff3030" fill-rule="evenodd" d="M211.39844 370.0039h7.6914v-10.14452h-7.6914v10.14453"/><path fill="azure" fill-rule="evenodd" d="M213.23047 361.6914h.83594v5.73829h3.1914v.74219h-4.02734v-6.48047"/><path fill="#ffffe0" fill-rule="evenodd" d="M342.83594 383.55078h22.17969v-10.1914h-22.1797v10.1914"/><path fill-rule="evenodd" d="M346.33594 375.1914h.50781v6.29688h-.78516v-4.49219h-1.39062v-.55468l.5625-.06641.25-.05078.23047-.08985.20312-.14453.17578-.20703.14063-.29687.10547-.39453m4.8125 0l.23047.01953.21875.05469.20703.08984.19922.1211.18359.14843.17188.17578.30078.42188.24218.49218.1797.54688.11327.57812.03906.59375-.03906.58985-.11328.58594-.17969.55468-.24218.5-.30079.42969-.17187.17969-.1836.15234-.19921.125-.20703.08985-.21875.05859-.23047.01953-.22656-.01953-.21875-.0586-.21094-.08984-.19531-.125-.1836-.15234-.17187-.17969-.30079-.42969-.24609-.5-.17969-.55469-.10937-.58593-.03906-.58985h.83203l.03125.5625.08203.50391.125.44531.16406.3711.1875.30078.21094.22265.22265.13672.22657.04688.22656-.04688.22266-.13672.21093-.22265.19141-.30078.16406-.3711.125-.44531.08203-.5039.02735-.5625-.02735-.5625-.08203-.5-.125-.4375L352 376.5703l-.1914-.29297-.21094-.21484-.22266-.13281-.22656-.04297-.22656.04297-.22266.13281-.21094.21484-.1875.29297-.16406.36328-.125.4375-.08203.5-.03125.5625h-.83203l.03906-.59375.10937-.57812.1797-.54688.24608-.49218.30079-.42188.17187-.17578.1836-.14844.1953-.1211.21094-.08983.21875-.0547.22657-.01952m5.09375 0h.50781v6.29687h-.78516v-4.49219h-1.39062v-.55468l.5586-.06641.2539-.05078.23047-.08985.20312-.14453.17188-.20703.14453-.29687.10547-.39453m2.82422 2.17578h.78515l.01953-.3164.0586-.28517.10156-.2539.13672-.21485.1836-.17578.22265-.1289.26562-.07813.3086-.02734.23828.01953.22265.0625.20313.10156.17969.14063.14844.17187.11328.20703.0703.23438.02735.26562-.02344.26954-.0664.22265-.10938.1914-.15625.17188-.19921.16406-.2461.16407-.63672.39062-.53515.3125-.4375.3164-.34766.32423-.26172.33594-.1914.35156-.125.3711-.07032.39062-.01953.42187h4.21094v-.74219h-3.33203l.08203-.28515.11328-.23438.14844-.20312.1875-.17969.23047-.17188.28125-.17578.71484-.41796.41797-.20313.34375-.23047.28125-.2539.21875-.26563.16406-.27734.11328-.28516.0625-.28516.01953-.28125-.04296-.3828-.1172-.34767-.1914-.30859-.25-.26172-.30078-.21484-.34766-.15625-.3789-.09766-.40625-.03515-.4375.03125-.39844.10156-.35156.16406-.30469.23438-.25.30468-.1836.375-.11718.44532-.03906.51953"/><path fill="#ffffe0" fill-rule="evenodd" d="M230.78516 335.97266h22.17968v-10.19141h-22.17968v10.1914"/><path fill-rule="evenodd" d="M234.28516 327.61328h.5078v6.29297h-.78515v-4.48828h-1.39062v-.55469l.5625-.0664.25-.0547.23047-.08984.20312-.14062.17188-.21094.14453-.29297.10547-.39453m4.8125 0l.23047.01953.21875.05469.20703.08984.1953.1211.1875.14844.16798.17578.30469.41796.24218.4961.17969.54687.11328.57813.03516.58984-.03516.59375-.11328.58594-.17969.55469-.24219.5-.30468.42969-.16797.17968-.1875.15235-.19531.12109-.20703.09375-.21875.0586-.23047.01952-.23047-.01953-.21875-.05859-.20703-.09375-.19532-.1211-.18359-.15234-.17188-.17969-.30078-.42968-.24609-.5-.17969-.55469-.10937-.58594-.03906-.59375h.83203l.03125.5625.08203.50781.125.44141.16015.375.19141.30078.21094.22266.22265.13672.22657.04687.22656-.04687.22266-.13672.21093-.22266.1914-.30078.16017-.375.1289-.4414.08203-.50782.02735-.5625-.02735-.5586-.08203-.5-.1289-.4375-.16016-.36718-.1914-.28906-.21095-.21485-.22265-.1328-.22656-.04298-.22657.04297-.22265.13281-.21094.21485-.1914.28906-.16016.36719-.125.4375-.08203.5-.03125.5586h-.83203l.03906-.58985.10937-.57813.17969-.54687.2461-.4961.30077-.41796.17188-.17579.1836-.14843.1953-.1211.20704-.08984.21875-.05469.23047-.01953m5.09375 0h.5078v6.29297h-.78905v-4.48828h-1.38672v-.55469l.5586-.0664.2539-.0547.23047-.08984.20312-.14062.17188-.21094.14062-.29297.10938-.39453m2.8203 2.17578h.78907l.01953-.3164.0586-.28516.09765-.2539.14063-.21485.1836-.17578.22265-.1289.26562-.07813.3086-.02735.23437.01954.22656.0625.20313.10156.17969.14062.14843.17188.11328.20703.07032.23437.02734.26563-.02344.26562-.0664.22657-.10938.1914-.15625.17188-.19922.16015-.24609.16797-.63672.39063-.53516.3125-.4375.3164-.34765.32422-.26563.33594-.1875.35156-.125.36719-.0703.39453-.01954.41797h4.21094v-.73828h-3.33203l.08203-.28516.11328-.23828.14844-.19922.1875-.17969.23047-.17187.28125-.17578.71484-.41797.41406-.20313.34766-.23046.28125-.25391.21875-.26563.16406-.27734.10938-.28515.0664-.28516.01953-.28125-.04297-.38281-.12109-.34766-.1875-.3086-.25-.26171-.30469-.21485-.34375-.15625-.3789-.09765-.40625-.03516-.4375.03125-.39844.10156-.35547.16407-.30469.23437-.2461.30469-.1875.375-.11327.44531-.04297.51953"/></g></defs><use xlink:href="#au"/></svg>