<svg xmlns="http://www.w3.org/2000/svg" role="img" xmlns:xlink="http://www.w3.org/1999/xlink" viewBox="142.45 309.95 326.84 171.84"><defs><clipPath id="a"><path d="M144 311.67188h1v168.65625h-1zm0 0"/></clipPath><clipPath id="b"><path d="M144 311.67188h324v168.65625H144zm0 0"/></clipPath><clipPath id="c"><path d="M467 311.67188h1v168.65625h-1zm0 0"/></clipPath><clipPath id="d"><path d="M144 479h4v1.32813h-4zm0 0"/></clipPath><clipPath id="e"><path d="M147 480h2v.32813h-2zm0 0"/></clipPath><clipPath id="f"><path d="M153 479h8v1.32813h-8zm0 0"/></clipPath><clipPath id="g"><path d="M159 480h2v.32813h-2zm0 0"/></clipPath><clipPath id="h"><path d="M166 479h9v1.32813h-9zm0 0"/></clipPath><clipPath id="i"><path d="M172 479h3v1.32813h-3zm0 0"/></clipPath><clipPath id="j"><path d="M180 478h8v2.32813h-8zm0 0"/></clipPath><clipPath id="k"><path d="M185 479h3v1.32813h-3zm0 0"/></clipPath><clipPath id="l"><path d="M194 477h7v3.32813h-7zm0 0"/></clipPath><clipPath id="m"><path d="M207 477h7v3.32813h-7zm0 0"/></clipPath><clipPath id="n"><path d="M221 477h6v3.32813h-6zm0 0"/></clipPath><clipPath id="o"><path d="M235 477h5v3.32813h-5zm0 0"/></clipPath><clipPath id="p"><path d="M248 476h5v4.32813h-5zm0 0"/></clipPath><clipPath id="q"><path d="M262 476h4v4.32813h-4zm0 0"/></clipPath><clipPath id="r"><path d="M275 476h4v4.32813h-4zm0 0"/></clipPath><clipPath id="s"><path d="M289 476h3v4.32813h-3zm0 0"/></clipPath><clipPath id="t"><path d="M303 476h2v4.32813h-2zm0 0"/></clipPath><clipPath id="u"><path d="M316 476h2v4.32813h-2zm0 0"/></clipPath><clipPath id="v"><path d="M329 476h3v4.32813h-3zm0 0"/></clipPath><clipPath id="w"><path d="M342 476h3v4.32813h-3zm0 0"/></clipPath><clipPath id="x"><path d="M355 476h4v4.32813h-4zm0 0"/></clipPath><clipPath id="y"><path d="M369 476h3v4.32813h-3zm0 0"/></clipPath><clipPath id="z"><path d="M380 478h8v2.32813h-8zm0 0"/></clipPath><clipPath id="A"><path d="M385 478h3v2.32813h-3zm0 0"/></clipPath><clipPath id="B"><path d="M394 477h6v3.32813h-6zm0 0"/></clipPath><clipPath id="C"><path d="M407 477h7v3.32813h-7zm0 0"/></clipPath><clipPath id="D"><path d="M420 477h7v3.32813h-7zm0 0"/></clipPath><clipPath id="E"><path d="M433 478h8v2.32813h-8zm0 0"/></clipPath><clipPath id="F"><path d="M439 478h4v2.32813h-4zm0 0"/></clipPath><clipPath id="G"><path d="M438 479h3v1.32813h-3zm0 0"/></clipPath><clipPath id="H"><path d="M447 478h7v2.32813h-7zm0 0"/></clipPath><clipPath id="I"><path d="M460 477h7v3.32813h-7zm0 0"/></clipPath><clipPath id="J"><path d="M465 477h3v2h-3zm0 0"/></clipPath><clipPath id="K"><path d="M144 466h4v2h-4zm0 0"/></clipPath><clipPath id="L"><path d="M466 465h2v3h-2zm0 0"/></clipPath><clipPath id="M"><path d="M144 452h4v3h-4zm0 0"/></clipPath><clipPath id="N"><path d="M466 452h2v3h-2zm0 0"/></clipPath><clipPath id="O"><path d="M144 439h4v2h-4zm0 0"/></clipPath><clipPath id="P"><path d="M466 440h2v3h-2zm0 0"/></clipPath><clipPath id="Q"><path d="M144 426h4v2h-4zm0 0"/></clipPath><clipPath id="R"><path d="M466 425h2v2h-2zm0 0"/></clipPath><clipPath id="S"><path d="M144 413h4v2h-4zm0 0"/></clipPath><clipPath id="T"><path d="M144 399h4v3h-4zm0 0"/></clipPath><clipPath id="U"><path d="M465 397h3v2h-3zm0 0"/></clipPath><clipPath id="V"><path d="M144 386h4v3h-4zm0 0"/></clipPath><clipPath id="W"><path d="M466 384h2v3h-2zm0 0"/></clipPath><clipPath id="X"><path d="M144 372h4v4h-4zm0 0"/></clipPath><clipPath id="Y"><path d="M466 371h2v3h-2zm0 0"/></clipPath><clipPath id="Z"><path d="M144 360h4v1h-4zm0 0"/></clipPath><clipPath id="aa"><path d="M466 359h2v3h-2zm0 0"/></clipPath><clipPath id="ab"><path d="M144 346h4v2h-4zm0 0"/></clipPath><clipPath id="ac"><path d="M466 346h2v4h-2zm0 0"/></clipPath><clipPath id="ad"><path d="M144 333h4v2h-4zm0 0"/></clipPath><clipPath id="ae"><path d="M466 332h2v3h-2zm0 0"/></clipPath><clipPath id="af"><path d="M144 319h4v3h-4zm0 0"/></clipPath><clipPath id="ag"><path d="M466 318h2v2h-2zm0 0"/></clipPath><clipPath id="ah"><path d="M465 318h3v3h-3zm0 0"/></clipPath><g id="ai" clip-path="url(#clip1)"><path fill="#fff" fill-opacity="0" fill-rule="evenodd" d="M0 0h1000v1000H0zm0 0"/><path fill="#d3d3d3" fill-opacity="0" fill-rule="evenodd" d="M162.15234 355.86719l-.23437.29297.0586.23437.11718.17188.17578.23437.29297.34766.11328.0586.11719-.17188.0586-.23438.17577-.17578.46485-.17578h.69922l.23437.29297.28906.8164.0586.17579.17578.23046.35156.23438.69922.69922.17188.17578.23437.34765.23438.41016.28906.58203.41015.46485.23047.23437.23438.17578.11719.23047.17578.29297.17187 1.16406v.23438l.0586.28906.05859.11719.11719.11719.34765.41015.11719.17188.17578.17578.17578.23437.11719.17188.17188.35156.05859.23438.23437.40625.23438-.0586-.17578.17578-.0586.92969h-.58203l-.23437-.11328-.34766.11328-.11719.11719-.05859.29297-.0586.17578-.11718.17187-.46484.29297-.0586.23438-.0586.11328v.64453l.0586.17187v.41016l.0586.0586v.40624l.05859.40625.11719.17579.05859.05859.23047.64062-.0586.29297v.69922l-.05859.58203v.23438l-.0586.23047-.05468.35156v1.92187l.05469.1172h.42578l-.36719.11718-.02344.35156.89063 1.16797 1.74219.53906 1.33984.35938v.53906l.08984.8086.53516.71484 1.51953.26953.89063-.08594.08984 1.16406.53516.1797 1.16015-.1797 2.05469-.98437 1.16016-.36328 1.8789-.17578 1.69531-.1797-.17968.71876-1.51563.08594-1.25.08984-.80469.26953-1.07421.8086.26953.71875.53515.89843-.17968.625-.26563.8086.26563 1.07812.625.89844.80468.17969 1.25-.1797-.26562.72267.09766.5039.05468.29297v.17188l.0586.29296v.40625l.17578.1172.35156.11718h.40625l.29297-.17578.11328-.11719.0586-.11719.11718-.23047.0586-.17578.35156-.46484.23047-.17578.17578-.0586.17578.0586.0586.17578.11718.98828.05469.46875.0586.17188.11718.23437.17578.0586.8164.05859h.28907l.11719.23437.05859.40625.0586.35156v1.10547l.11718.29297.11719.34766.28906.69922.17578.35156.58203.7539.35157.17579.17187.0586.46875.23437.64063.46484.34765.23438.29297.17578.29297.05468.23047.0625.8164.34766.29297.17578.11328.17188.35157.35156.11719.17578.52343.64063v.28906l.0586.35156v.34766l.05859.35156.0586.28906.11718.0586.17188.05859h.17578l.58203.23437.17578.1172.17578.28905.17578.23438.11328.23437.29297.23047.11719.11719v.41016l.0586.05468.28906.23438.23437.11719.0586.11718.11718.17188.0586.11719.23047.23437.05859.17578.23437.0586.1172.05859-.1172.11328-.05859.11719v.11719l-.11719.29296-.11719.28907v.58203l.17579.11719.11718.05859.0586.11719.11719.11719.11328.05859.17578.34765.0586.35157.05858.40625v.17578l-.05859.17578-.11719.69922v.17187l.1172.17579.29296.29296h.40625l.17578.1172.11719.17187.11719.29296v.23438h-.52735l-.23047-.23438h-.23437l-.17578.0586-.0586.69922.0586.34765.11719.17579.17578.41015.11718.23047.28907.46875.17578.05469h.52344l.23437.0586.75781.64062.0586.29296v.23438l.05859.0586.23047.34765v.35156l-.11719.17188v.29297l.29297.28906.29297.17578.17187.0586.29297.17577.29297.1172.58203.40624.28906.23438.29297.17578.21875.16015.01563.01172.23047.17579.64062.52343.17578.23438.1172.17578.17577.17578.11328.17188v.64062l.1172.17578.46874.11719.58203.11719.23438.05859.23047.11328.29297.11719.11328.0586.58593.35156.28907.17187.17578.0625.17578.05469.17578.0586.69922.35155.28906.17579.23438.05468.28906.17578.23437.1172.64063.40624.29297.11719.17187.0586.23438.05859.41015.05859.23047.0586.23438.11718.0586.17188-.41017.17578.46875.0586.0586.29296.11328.23438.17578.05468.23438.0586.17578.05859.40625.11719.64062.23437.11719.17188.0586.23437v.17578l-.0586.1172-.0586.40624.23438.23438.11719.05859.34766.11719.64062.23047.17578.11718.28906.1172.17578.17577.23438.46485.58203 1.10546.17578.17579.34766.17578.17578.11719.35156.11718 1.04688.52344.23437.0586.46485.11327.29297.0586.46484.17578.75781.58203.23438.23438.34765.46484.17578.17578.28907.23438.8164.69921.29297.17579.28906.28906.29297.17578.29297.28906.69531.64063.17578.17578.29297.23437.28907.23438.46875.28906.64062.58203.34766.23438.23437.29297.34766.34765.35156.46485.9336.99218.34765.40625.11719.17579.23437.05859.11328.11719.64454.17578.23047.11328.23437.0586.29297.17577.23047.1172.9336.69921.40624.40625.23438.17578.40625.17578.23437.11719.8164.34766.34766.23437.23438.11719.29297.28906.23047.11719.7578.35156.35157.17188.23047.05859.29297.11719.23437.0586.8711.17577h.8164l.46875.23047.17188.0586.875.69921.46484.1172.29297.05858.17578.0586.23047.0586.46875.05859.34766.05859.35156.0586.40625.05859h.29297l.17187.0586v.23046l.17578.17578h.29297l.34766.0586.35156.05859.69922.11719h.64063l.46484-.23438.29297-.17578.17187-.11719.41016-.17187.28906-.17578.9336-.46485.46875-.29297.52343-.29296.46485-.17188.46484-.17578 1.05078-.46485.28906-.11718.41016-.11719.28906-.11719.52735-.17578 1.51562-.69922.58203-.34765.28907-.0586.29297-.0586.34765-.11718.875-.23047.35156-.11719h.11329l.23437-.05859.875-.23437.23438-.0586h.8125l.35156-.0586.8164-.11718.17188-.0586.35156-.05468.29297-.0586.23047-.05859.8164-.17578.17579-.0586h.34765l.23438-.05859.46484-.11718.75781-.17188.23438-.0586h.34765l.41016-.11718.28906-.0586 1.28516-.05859h.28906l.41016-.0586.23047-.05858h.17578l.875-.1172h.40625l.41015-.11718h.34766l.35156-.11328.8711-.0586h1.75l1.04687.28907.41016.11719.28906.11718.35156.11719.28907.11719 1.05078.17187.28906.0586h.29297l.29297.05859.17187.0586.41016.05859.17187.0586.1172.05858h.11718l.11719.0586.35156.0586h.11328l.41016.0664 1.92187.39453 1.92578.39453 1.51953.44922 1.69532.71875 2.14453.80469 1.60547-.71875 1.42968-.80469 1.16016-1.07813 1.25-.44921 3.03516-.71875 1.875-.35938 2.14453-1.34765 2.23437-1.25391 2.5-1.25781 1.69531-.44922 1.78516-.17969 1.16016-.26953.625.53906 1.33984-.26953.71485-.98828.98437-1.34375.44531-.17969.80469-.35937 1.875-.53907 1.78516-.44921 1.25-.26954 1.16015-.08984 1.69922-.08984 1.96094-.26954 1.25-.08984h.53906l.625-.08984h.89063l2.14453-.17969 2.41015-.17969 2.58985-.08984 1.69531.17969 1.60938.08984 1.42968.35938 1.16016.71875 1.875.98828 1.16015 1.52734.26563.71484.6289.08985.35548.89844.53515.53906.53516 1.52734 1.07422.35938h.53515l-.80469.53515.08985 1.70703.71484 2.69532.89063.80468.89453.98829.71484 1.2578 1.78516.53907 1.51953-.17969.35547 1.34375 1.60937-.80469.98047-.53906.26953.26953.31641-.21484.21875-.14453.80078.44922.44922-.35938h.35547l.53515-.26953.53907-.71875.53515-.26953.625-.98828 1.16016.44922.83984.3711 1.39454.61718 1.6953-.17969h1.60548l1.78515.08985.17969-1.70704.53516-1.34375.80468.26954.4922.84765.40233.40625-.08984.53906v.35938l.71485.44922.71093-.26953h1.42969l.35938.98828.4453 1.25781.71485 1.34375 1.25.6289 1.69531.62891.71485-.17969.17969-.53906.98046-.08984.44922.35937.08594 1.25782-.26563.6289-.53515.17969v.53906l.71484.98438.26563.53906.98437.98828.80078 1.07813-.26562.35937-.08985.89844-.625 2.33203-.35546 2.0664-.08985 1.79298-.17969.71875-.08984.53906v1.4375l-.98047 1.88281-.35937 1.70703-.53516.89844-.80469 1.16797-.26562.53906 2.05469 1.2539.08593.35938-.35546.53906-.08985-.17968v.80859l.08985 1.4375-.44532.71484-1.07422.09375-.26562.71485.53515.89844.8047.71875 1.16015.80859 1.33984.26953.44531.35938-.35546.44921-1.78907-.08984-1.25-.44922-.71484-.71875-.625-.08984-.17578 3.58984-.1875 1.3086h89.35937V311.70313h-55.26953v49.08203l.76172.125 3.28906.54296 2.02344 2.83594v2.7539l2.35156.33204 2.34766.33203h4.05078l-1.3789 4.16016-2.02344.70703-2.02344.70312-.54297.34375-2.59375 1.6172-.1875.11718-2.02344-2.07813-.73046-2.74218-2.67188-2.07813-1.375-3.5-.0664-.08203-1.95704-2.67188 2.75-1.41796v-49.08204H294.42187v91.41407l.1172.03125.1328.01172.07422.07421.10547.04688.08985.0586.08593.05859.08985.0586.29687.29687.0586.08984.03125.11719.02734.11719.01563.13671-.03125.1172-.0586.08983-.0586.08594-.04296.10547-.04688.10156-.02734.1211v.14453l.17578.26953.14844.14844.07422.08594.07422.07421.04296.10547.0625.08985.0586.08593.04297.10547.0586.08985.04687.10156.04296.10547.0586.08594.11719.17968.07421.07422.0625.08594.0586.08984.04297.10547.0586.08985.05858.08593.0625.08985.0586.08984.04297.10156.11719.17969.07421.07422.0586.08594.07422.07421.08984.0586.10547.04687h.14844l.1328-.01562.13282.01562.10156-.04687.07422-.07422.04688-.10156-.01563-.13281v-.14844l-.04687-.10547-.02735-.11719-.04687-.10156-.02735-.1211-.04296-.10156-.0625-.08984-.04297-.10156-.04297-.10547-.03125-.11719-.01563-.13281-.01171-.13672.08593-.0586.0586-.08593.12109-.03125.04297.10547.01562.1328v.1172l.0586.10156.0586.08984.08983.0586.14844.14843.0586.08985.04296.10547-.01171.10156.08593.0586.10547.04687.08594.0586.08984.05858.07422.07422-.11719.02735-.10546.04687-.08594.0586-.07422.07421-.0586.08985-.0625.08594-.02734.12109-.04687.10156-.04297.10547-.03125.11719-.01172.13281-.01563.13281v.14844l.02735.11719.04687.10547.04297.10156.0586.08984.07421.07422.08985.0586.07422.07421.08984.0586.0586.08984.04296.10547.04688.10156.11719.03125.1328.01563h.14845l.11718-.03125.10547.04297.04297.10547.04688.10156.02734.1211L299.5 410l.02734.11719.03125.1211.02735.11718.10547.04297.10156.04687.13281-.01562.14844.14844.0625.08593.07422.07422.07031.07422.08984.0625.10547.04297.10156.04297.1172.03125.13671.01562.11719-.03125.07422-.07422.02734-.11718-.01172-.13282-.03125-.12109-.02734-.11719.04297-.10547h.11719l.08984.0625.11719.02735h.14843l.13282.01562h.14843l.13282.01563.1328-.01563h.14845l.1328-.01562.13282-.01172.13672.01172.11719-.02735.13281-.01562.1914-.0586-.05859.17579-.01562.1328-.02735.1211-.01562.13281-.0586.08594-.1328.01563-.10548.04687-.10546.04297-.1172.03125-.11718.02735-.26563.03125h-.14843l-.13281.01562-.07422.07422.05859.08594.14844.14843.11719.1797.07421.0703.08985.0625.08984.0586.08594.0586.08984.05858.10156.04297.10547.0625.10547.04297.08594.0586.10547.04687.10156.04297.17969.11719.0586.08984-.04298.10156-.04687.10547.01562.13281.22266.22266.0586.08985.04296.10156.03125.1211.04297.10155.01563.13282.03125.11718.01171.13672.03125.11719.14844.14844.10156.04297.10547.04296.1172.03125.1328.01563.13672.01563h.11719l.11719-.03125.08984-.0586.04297-.10547.04688-.10156.04296-.10547.03125-.11719.01172-.1328v-.14845l-.01172-.1328-.01562-.13282-.03125-.11719-.04297-.10547-.04688-.10547-.04296-.10156-.04297-.10547-.01563-.13281.01563-.13281.02734-.11719.03125-.11719.02735-.1211.04687-.10155.08984-.0586.08594-.0625.07422-.07422.08984-.05859.22266-.22266.0586-.08593.07421-.07422.11719-.17969.0586-.08594v-.14844l-.07423-.07421-.10156-.04688-.10547-.04297-.10156-.04297-.0586-.08984-.04687-.10547-.02734-.11719.08984-.05859.11719-.03125.10156-.04297.17969-.11719.14844-.14843.01172-.13282-.01172-.10546-.08985-.0586-.1328.01563h-.14845l-.1328.01562-.13282-.01562-.1211-.03125-.08593-.0586-.07422-.07422-.0586-.08984-.0625-.08594-.11718-.17969-.0586-.08593.03125-.1211.08594-.05859.1211-.03125.05859-.08594v-.1211l-.03125-.11718-.0586-.08984-.05859-.08594-.04687-.10547-.02735-.11719-.01562-.1328.0586-.08985.07421-.07422.08984-.0586.1172-.17968.07421-.07422.0586-.08594.14843-.14844.1211-.03125.1328-.01562.13282.01562.07422.07422.04297.10547.01562.13281-.03125.1172-.11719.03124-.1328.01172-.14844.14844-.04297.10547-.04688.10156-.02734.1211-.03125.11718v.14844l.03125.11719.04297.10546.05859.08985.07422.07031.07422.07422.11719.03125.12109.02734.11719-.02734.1328-.01563h.1172l.08984.0586.07422.07422.04687.10546.0586.08594.10156.04688.13281.01562.10547.04297.08594.0586-.01172.10546-.07422.07422-.17969.11719-.05859.08984-.08984.0586-.07032.07422-.07421.07421-.0625.08985-.02735.11719-.01562.1328.01562.13282-.01562.13281v.14844l.01562.13281.02735.1172.03125.12108.07421.07422.08985.0586.08594.0586.08984.05858.11719.03125v.08594l-.10157.04688-.08984.0586-.26563.03124-.11718.02735h-.14844l-.10547.04296-.10156.04688-.0586.08984-.0625.23438-.01171.13281-.03125.1211-.01563.1328v.29298l-.01172.1328.01172.13673.01563.1328.1328.01563.13282.01172.1211.03125.08593.0586.07422.07421.04688.10547.04296.10157.01563.1328v.44532l-.01563.13281v.44532l.03125.26562.02735.11719.01562.13281.03125.11719.08594.21094.03125.26562v.14844l-.03125.11719-.02734.11718-.03125.1211-.02735.11719-.03125.11718-.03125.1211-.01171.1328-.01563.13282.08984.0586.1172-.03125.10155.01562.04688.10547-.03125.26562v.44141l-.04297.10547-.04688.10547-.04296.10156-.04297.10547-.0586.08594-.03125.12109-.04296.11719-.03125.11719-.01563.1328.01563.13282.05859.08984.10547.04688.08594.0586.05859.08593-.01172.13672-.03125.11719-.04297.10156v.44531l-.01562.13281v.14844l-.03125.11719-.04297.10547-.02735.11719-.04687.10546-.04297.10157-.03125.12109-.02734.11719-.03125.13281-.03125.11719-.02735.11719-.04297.10546-.03125.1172-.03125.12108-.01171.13282-.01563.13281v.29688l.02734.11718v.14844l.04688.39844.02734.11719.0586.08984.12109.03125h.14844l.13281-.01563.0586.08985v.11719l-.0586.08984-.08984.0586-.10157.04296-.10546.04688-.08985.05859-.08594.0586-.13671.01562-.1172-.03125-.1328-.01563-.10157.04688-.0625.08594-.01172.13671-.01562.13282-.03125.11719-.02735.11718-.01562.13281-.03125.1211v.29687l.01563.13282.03125.11718v.14844l.01171.13281v.14844l-.02734.11719-.04688.10156-.02734.1211-.03125.11718-.0586.08985-.07421.07421-.10156.04297-.10547.04688-.11719.02734-.1211.03125-.10156-.04687.0586-.08594.10547-.04688.02734-.11718.03125-.11719.02734-.1211.03125-.11718v-.14844l.01563-.13281-.03125-.11719-.04297-.10547-.10547.01563-.07422.07422-.10156.04296-.08984.0625-.07422.07422-.04297.10157-.01563.1328-.03125.1172L304.25 426l-.03125.11719-.02734.11719-.03125.12109-.02735.11719-.03125.11718-.04297.10547-.08984.0586h-.08984l-.1172-.03125-.03124-.08594.01562-.13672-.03125-.11719v-.14844l-.01171-.1328v-.14844l-.0625-.23438-.02735-.1211-.04297-.10156-.04687-.10546-.0586-.08594-.05859-.08985-.04297-.10546-.0625-.08594-.14844-.14844-.0703-.07422-.10548-.04687-.10547-.04297-.10156-.04297-.29687-.29688-.08985-.07421-.08594-.0586-.10546-.04297-.08985-.0625-.08594-.0586-.10546-.04296-.08985-.0586-.08594-.0625-.07421-.0703-.10547-.04688-.08594-.0586-.10547-.04296-.08984-.0625-.10156-.04297-.10547-.04297-.08594-.0586-.10547-.04687-.10547-.04297-.10156-.04687-.08985-.0586-.10156-.04297-.10547-.04296-.08984-.0625-.11719-.02735-.13281-.01562-.13281.01562H299.75l-.13281.01563-.11719-.03125-.08984-.0586-.07422-.07422-.08985-.05859-.10156-.04688h-.14844l-.12109-.02734-.10156-.04297-.07422-.07422-.11719-.17968-.08984-.0586-.10156-.04297-.08985-.0625-.10547-.04296-.08984-.0586-.08594-.0586-.10547-.04687-.0586-.08594-.05858-.08984-.04297-.10547-.04688-.10156-.07422-.07422-.08594-.0586-.07421-.07421-.08985-.0586-.22265-.22265-.04297-.10547-.03125-.26563.10547-.04296h.14453l.10547.04296.07421.07422.08985.0586.08594.0586.10546.04687.08985.05859.14844.14844.0703.07422.14845.14843.0625.08594.07421.07422.08594.0586.07422.07421.08985.0625.08984.0586.08594.05859.26953.17578.10156.04688.10547.04296.10156.04297.04688-.07421.05859-.08594.07422-.07422.07031-.07422.10547.04297.07422.07422.0586.08984.04296.10156.04688.10547.04296.10547.1211.02735.11719-.02735.07421-.08984.04297-.10547.0586-.08985.07422-.07421.10546-.04297.1172-.02735.1328.01172.08985.0586.14844.14843.05859.08985.04297.10547.04687.10156.04297.10547.04297.10156.10547.04688.10547.04296.13281.01563.08594-.0586.0586-.08984.07421-.07422.10547-.04297.11719.02735.10547.04687.10156.04297.10547.04297.10156.04688.17969.11718v.11719l-.01563.13281.01563.13281.01562.13672.0586.08594.10156.04688.1211.02734.11718.03125h.14844l.11719-.03125.05859-.08984.17969-.1172.05859-.08983.07422-.07422.0586-.08594.11718-.17969.17969-.11719.11719.03125.08984.0586.04297.07422-.01563.1328v.1172l.08985.05859h.14843l.13282-.01563.1328-.01171.26563-.03125.10547-.04297.11719-.03125.1211-.02735.07421-.07421.07031-.07422.0625-.08985-.01562-.10547-.04688-.10156-.10156-.04297-.10547-.01562-.11718.02734-.26563.03125h-.14844l-.07421-.07422-.08985-.0586-.11719-.03124-.11718-.02735-.13282-.01562h-.14843l-.13282.01563h-.29687l-.10547-.04688-.14844-.14844-.04297-.10156-.05859-.08984.22266-.22266.08593-.0586.10547-.04296.11719-.03125.13281-.01563.13281.01563.13672.01562.10157.04297.1328-.01172.08985-.0625.10156-.04297.0625-.08984-.04687-.10156-.08984-.0586-.1172-.03125-.10155-.04296-.0586-.08985-.0625-.08984v-.11719l.01563-.13281.10547-.04688.07421-.07031v-.1211l-.08984-.05859-.03125-.11719.08985-.05859.07421-.07422.04297-.10547.0586-.08984.04687-.10156.01563-.13281v-.14844l-.04688-.10547-.04297-.10156-.08984-.0586-.13281-.01562-.10157-.04297-.13671-.01563-.1172-.03125h-.4453l-.13282-.01562-.13281-.01172-.13281-.01563-.11719-.03125h-.14844l-.13281-.01562-.13281-.01172-.26563-.03125-.1211-.04297-.08593-.0586-.07422-.07421v-.14844l.01172-.13281.10547-.04688.10156-.04296.13281-.01563h.15235l.13281-.01562h.29297l.1211.03125.10156.04296.08984.0586.23438.0625.12109-.04688.08984-.05859.10156-.04297.13282-.01562.10547.04296.10156.04688.13281.01172.1211-.02735h.14453l.12109-.03125.11719-.02734.10547-.04687.07421-.07422.08594-.0586.14844-.14843.0586-.08594.04687-.10547.02734-.11719.01563-.10547-.10156-.04296-.08985-.0586-.11719-.03125-.10546-.04297-.08985-.0625-.07422-.08594-.07422-.07421-.10156-.04297-.10547-.04688-.10156-.04297-.0586-.08984-.04687-.10156-.08594-.21094-.0625-.08594-.05859-.08984-.07422-.07422-.08594-.0586h-.26953l-.11719.03126-.08984.05859-.10156.04297-.13281.01562-.10547-.01562-.02735-.11719-.0625-.08984-.11718-.03125-.10157-.04297-.14843-.14844-.03125-.11719-.01563-.10546.07422-.07422.17969-.1172.11719-.02733.11718-.03125.13672.01562.10156.04297.10547.04297.10156.04687.10547.04297.1172.03125.1328.01563.1172.02734.1328.01563.10547-.01563.08985-.0586-.07422-.07421-.10547-.04297-.07422-.07422-.07422-.08984-.14844-.14844-.08593-.0586-.08985-.05859-.07422-.07422-.08984-.0586-.10156-.04687-.1211-.02734-.10156-.04688-.10547-.04296-.11719-.03125-.10156-.04297-.1211-.03125h-.14843l-.11719.03125-.10546.04297-.08594.0625-.17969.11718-.08594.0586-.08984.0586-.10547.04687-.08594.05859-.10547.04297-.10156.04297-.10547.04687-.07422.07422-.05859.08985-.0586.08593-.04687.10547-.0586.08594-.07421.07422-.13281-.01172-.1172-.03125h-.11718l-.07422.07422-.08984.0586-.07422.07421-.08984.0586-.08594.05859-.10547.04687-.10156.04297-.13672.01563-.10156-.04297-.14844-.14844-.10547-.04688h-.08594l-.10547.04688-.10156.04297-.1211.03125-.11718-.03125-.07422-.07422v-.11719l.03125-.1211.07422-.0703.0586-.08985.07421-.07422.11719-.03125.10547-.04296h.29297l.13281-.01563.13672-.01563.10156-.04296.08985-.0586.10156-.04687.08984-.0586.13281-.01171.08985.05859.13281.01172.08984-.0586.08594-.05859.10547-.04297.08984-.0586.08594-.0625.08985-.05859.14843-.14843.0586-.08594.05859-.08985.10547-.04296.13281-.01563.11719.02735.1211.03125.05859-.0586.05859-.08984.03125-.26563.02734-.11719.10547.01172.13281.01563.10157-.04297.08984-.0586.0586-.08984.07421-.07422.0586-.08984.04687-.10156.01172-.13281-.01172-.13282-.04687-.10547-.14844-.14843-.0586-.08985-.05859-.08594-.04297-.10546v-.44532l.01563-.1328v-.14845l.01172-.1328-.0586-.0586-.08984.0586-.10156-.04298-.17969-.11719-.08594-.05859-.0625-.08984-.0586-.08985-.07421-.07421-.08594-.0586-.1211.03125-.10155.01172-.10547.04688-.08594.05859-.10547.04297-.14844.14844-.08984.05859-.08594.0586-.08984.0625-.10547.04296-.13281.01563v-.1211l.10547-.04297.11718-.03125.07422-.0703.04297-.10548v-.14844l-.02734-.11718-.14844-.14844-.13281-.01563h-.14844l-.11719.03125-.10547.04297-.10156.04297-.08984.0625-.11719.02735-.07422-.07422.01172-.13281-.04297-.10157-.04297-.10547-.08984-.05859-.11719.02734-.1211.03125-.11718.03125-.10156.04297-.1211.03125-.10156.04297-.10547.04297-.08984.0586-.10156.01562v-.11719l.01562-.13281-.0586-.08985-.07421.04297-.14844.14844-.0586.08985-.07421.07421-.04688.10547-.04296.10156-.07422.07422-.0586.08985-.07422.07422-.05859.08593-.07422.07422-.08984.0625-.07422.07031-.07422.07422-.10156.01563-.13281.01562-.10547-.04296v-.1211l.14843-.14844.04297-.10156.0586-.08984.04687-.10156.04297-.10547.0586-.08985.03124-.11719.04297-.10156.03125-.1211.02735-.11718.04687-.10547.04297-.10156.04297-.10547.07422-.07031.08984-.0625.08985-.0586.10156-.04296h.29687l.26563-.03125.10547-.04297-.07422-.07422-.11719-.03125-.10547-.04297-.08984-.0586-.10156-.04687-.08985-.0586-.10156-.04296-.10547-.04297-.08984-.0625-.08594-.0586-.10547-.04296-.10156-.04297-.1211-.03125-.11718-.03125-.10157-.04297L297.5 410.25l-.10156-.04297-.08985-.0586-.04296-.10546-.01563-.13281.10156-.04297.13281-.01563.13672.01563.13282-.01563.10156-.04297.0586-.08984.01562-.10547-.08985-.0586-.07421-.07421-.10157-.04297-.08984-.0586-.14844-.14843-.04297-.10547-.01562-.13281v-.29297l-.0586-.08985-.08984-.05859-.07422-.07422-.04297-.10547-.03125-.11718-.0586-.08985-.07421-.07422-.11719-.02734-.07422-.07422-.08984-.0586-.08984-.0625-.08594-.05859-.07422-.07421-.0586-.08594-.04687-.10547-.08594-.0586-.14843-.14843-.19532-.0586-.1328.01563-.10157.04297-.07422.07422-.04688.10156-.04296.10547-.0586.08984-.0586.08594-.29687.29687-.08984.0586h-.08594l-.0625-.08594-.04297-.10547.03125-.11719.0586-.08984.02734-.11719-.01172-.13281-.08984-.0625-.10547.04688-.11719.02734-.11719.03125-.26953.17578-.10156.04688-.11719.02734-.10546.04687-.08985.0586-.10156.04297-.0586-.08594-.04687-.10547.01563-.13281.04687-.10547.07031-.07422.07422-.07031.0586-.08985v-.14843l-.04297-.10547h-.23829l-.10156.04687-.03125.11719-.02734.11719-.03125.1211-.07422.04296-.13281.01563-.07422-.04688-.04297-.10156-.04297-.10547-.04687-.10156-.04297-.10547-.1211.03125-.10156.04297-.13281.01562-.11719.03125-.10547.04297-.08984.0586-.10156.04687-.1211.02734-.13281.01563-.10156-.04297-.0586-.08985-.04687-.10546-.04297-.10157-.04297-.10546v-.1172l.0586-.08984.08593-.05859.17969-.11719.10156-.04687.10547-.04297.10547-.0586.10156-.04296.08985-.0625.10156-.04297.10547-.0586.10156-.04687.08984-.0586.10547-.04296.10156-.04297.08985-.0625.10156-.04297.13672-.01563.11719.03125.10156.04297.1211.03125.10156.04297.10546.04688.10157.04296.10547.04297.10156.04688.10547.04297.10156.04297.10547.04687.08594.0586.10546.04296.1172.03125.10546.04297.10156.04688.08985.0586.10547.04296.10156.04297.10547.04687.11719.02735.10156.04687.1211.02735h.14843l.08594-.0586.01562-.10156.0586-.08984-.02735-.1172-.07422-.07421-.11719-.17969-.07421-.07422-.08985-.07421-.17969-.1172-.08593-.05859-.10547-.04296-.10156-.04688-.26954-.17578-.05859-.08985-.07422-.07421-.0586-.08985-.04296-.10156-.03125-.11719-.01563-.13672v-.5625l-.01171-.1328-.01563-.13282-.03125-.11719-.01562-.13281-.01172-.13281-.03125-.1211-.22266-.22265-.0586-.08594-.01562-.10547.03125-.11719.13281-.01562v-91.41406H172.9922v1.45312l-.0586.23438-.35156 1.05078-.17187.52343-.1172.34766-.17577.41016-.11719.17187-.23438.29297-.23046.0586h-.35157l-.11718.05859-.23047.40625v.29297l.11719.17578.23046.23047.1172.23437.64062.75781.29297.46485.17578.23437.23047.35156.23437.34766.64063.8164.17578.46485.17187.41016.11719.69531.17578.46875.11719 1.39844.0586.46484v.875l.11718 1.04688v4.78125l-.0586.46484-.35156 1.28125-.17578.52344-.11328.41015-.35156.9297L172.93359 336l-.23437.58203-.11719.17578-.17187.34766-.17578.40625-.35157.8164-.0586.29297-.11327.29297-.11719.28906-.0586.17579-.11718.875-.0586.40625-.05859.11718-.0586.17579-.05859.17187-.23047.52734-.11718.17188v.23437l-.11719.23438-.0586.17187-.17577.58594v.28906l-.0586.17579v.29296l-.0586.11329-.05859.52734v.17187l-.05468.23438v2.6211l-.17578.8164-.1172.17578-.17577.23438-.1172.17187-.11327.23438-.58594.93359-.23047.28906-.29297.46485-.17578.23437-.28906.35156-.35156.69922-.11328.23047-.17579.41016-.17578.23046-.40625.52735-.8164.69922-.29297.17187-.28906.23438-.17579.11719-.17578.17578-.52344.40625-.52734.17578-.17187.17578-.23438.05469-.64062.17578h-.75782m12.21094 31.02344l-1.07422.44921.35938.89454 1.25-.71485.44531-.53906-.98047-.08985"/><path fill="#d3d3d3" fill-opacity="0" fill-rule="evenodd" d="M201.50781 416.59766h-.89453l.44922.6289.98047.35938.80469-.08985.4453-.98828-.17577.08985-.71485-.35547-.89453.35547m154.6211 59.0703l-.0586-.52343v-.29297l.11328-.29297.0586-.23046.46875-.46875h.11328l.11719-.11329.11718-.05859h.17579l.23437-.0586h.34766l.23437.0586.11719.0586.23047.17187.0586.17578.11718.58203v.29297l-.11719.17578-.17187.28906-.17579.17579-.52734.52343-.23047.23438-.11719.0586h-.17578l-.11718-.0586-.40625-.29297-.17579-.11719-.11718-.0586-.0586-.11327-.05468-.1172m6.64062-10.95702l-.0586-.17188v-1.10937l.0586-.17188.17578-.0586.17188-.05858h.17578l.23437-.0586.1172.0586.05858.69921-.05859.17188-.11719.17578-.11718.0586-.23438.52343-.11328.0586h-.23438l-.05859-.1172m9.61328-14.39062l-.11719-.17578v-.69922l.29297-.875.1172-.17187.17577-.35156.11328-.23047.1172-.29297.35155-.75781.1172-.23047.17187-.23438h.17578l.11719-.0586h.64062l.11719.0586.23437.23438.17188.11328.35156.29297.11719.11718.11328.17579v.11328l.11719.05859.11718.11719v.69922l-.05859.17578v.23047l-.0586.17578-.34765 1.05078-.11719.23047-.11719.23437-.11718.0586-.23047.23437-.64063.28906h-.875l-.41015-.11718-.64063-.46485"/><path fill="none" stroke="#bebebe" stroke-linecap="round" stroke-linejoin="round" stroke-miterlimit="10" stroke-width=".5" d="M467.95703 311.69531H144.02734v168.625h323.9297v-168.625"/><g clip-path="url(#a)"><path fill="#fff" fill-opacity="0" fill-rule="evenodd" d="M144 475.89063v4.4375h.0039H144V311.67188h.0039H144v164.21875"/></g><g clip-path="url(#b)"><path fill="#fff" fill-opacity="0" fill-rule="evenodd" d="M144.0039 480.32813V311.67188h244.10548v147.375l-4.4375 2.53906-.89063.98828.89063 1.07031 4.4375 2.04688 3.04687-3.1172-3.04688-3.52733v-147.375h79.88672v168.65625H144.00391"/></g><path fill="#50fcfc" fill-rule="evenodd" d="M383.67188 463.64453l-.89063-1.07031.89063-.98828 4.4375-2.53906v2.48046l-1.4922 1.04688 1.4922.92578.90234-.92578-.90235-1.04688v-2.48046l3.04688 3.52734-3.04688 3.11719-4.4375-2.04688"/><path fill="#00e8fc" fill-rule="evenodd" d="M388.10938 463.5l-1.4922-.92578 1.4922-1.04688.90234 1.04688-.90235.92578"/><g clip-path="url(#c)"><path fill="#fff" fill-opacity="0" fill-rule="evenodd" d="M467.9961 480.32813H468V311.67188h-.0039H468v168.65625h-.0039"/></g><g clip-path="url(#d)"><path fill="none" stroke="#000" stroke-linecap="round" stroke-linejoin="round" stroke-miterlimit="10" stroke-width=".5" d="M147.44922 480.9961l-6.89844-1.33594"/></g><g clip-path="url(#e)"><path fill="none" stroke="#000" stroke-linecap="round" stroke-linejoin="round" stroke-miterlimit="10" stroke-width=".5" d="M147.44922 480.9961l.71875 2.34765"/></g><g clip-path="url(#f)"><path fill="none" stroke="#000" stroke-linecap="round" stroke-linejoin="round" stroke-miterlimit="10" stroke-width=".5" d="M160.6836 481.32031l-6.73829-1.98437"/></g><g clip-path="url(#g)"><path fill="none" stroke="#000" stroke-linecap="round" stroke-linejoin="round" stroke-miterlimit="10" stroke-width=".5" d="M159.70313 481.03125l.24609 1.20313"/></g><g clip-path="url(#h)"><path fill="none" stroke="#000" stroke-linecap="round" stroke-linejoin="round" stroke-miterlimit="10" stroke-width=".5" d="M174.0625 479.57031l-6.86328 1.51563"/></g><g clip-path="url(#i)"><path fill="none" stroke="#000" stroke-linecap="round" stroke-linejoin="round" stroke-miterlimit="10" stroke-width=".5" d="M173.0625 479.78906l.79688.9336"/></g><g clip-path="url(#j)"><path fill="none" stroke="#000" stroke-linecap="round" stroke-linejoin="round" stroke-miterlimit="10" stroke-width=".5" d="M187.11719 478.8164l-6.34375 3.02344"/></g><g clip-path="url(#k)"><path fill="none" stroke="#000" stroke-linecap="round" stroke-linejoin="round" stroke-miterlimit="10" stroke-width=".5" d="M186.19531 479.25781l.98438.73047"/></g><g clip-path="url(#l)"><path fill="none" stroke="#000" stroke-linecap="round" stroke-linejoin="round" stroke-miterlimit="10" stroke-width=".5" d="M199.84375 477.94531l-5.16406 4.76563"/></g><path fill="none" stroke="#000" stroke-linecap="round" stroke-linejoin="round" stroke-miterlimit="10" stroke-width=".5" d="M199.08984 478.64063l1.16016.40234"/><g clip-path="url(#m)"><path fill="none" stroke="#000" stroke-linecap="round" stroke-linejoin="round" stroke-miterlimit="10" stroke-width=".5" d="M213.125 477.91016l-5.10156 4.83593"/></g><path fill="none" stroke="#000" stroke-linecap="round" stroke-linejoin="round" stroke-miterlimit="10" stroke-width=".5" d="M212.38281 478.61719l1.16406.38672"/><g clip-path="url(#n)"><path fill="none" stroke="#000" stroke-linecap="round" stroke-linejoin="round" stroke-miterlimit="10" stroke-width=".5" d="M226.4336 477.90625l-5.08985 4.84375"/></g><path fill="none" stroke="#000" stroke-linecap="round" stroke-linejoin="round" stroke-miterlimit="10" stroke-width=".5" d="M225.69531 478.60938l1.16406.39062"/><g clip-path="url(#o)"><path fill="none" stroke="#000" stroke-linecap="round" stroke-linejoin="round" stroke-miterlimit="10" stroke-width=".5" d="M238.98438 477.30078l-3.5586 6.0586"/></g><path fill="none" stroke="#000" stroke-linecap="round" stroke-linejoin="round" stroke-miterlimit="10" stroke-width=".5" d="M238.46875 478.17969l1.22266.05469"/><g clip-path="url(#p)"><path fill="none" stroke="#000" stroke-linecap="round" stroke-linejoin="round" stroke-miterlimit="10" stroke-width=".5" d="M251.94922 477.11719l-2.85938 6.42187"/></g><path fill="none" stroke="#000" stroke-linecap="round" stroke-linejoin="round" stroke-miterlimit="10" stroke-width=".5" d="M251.53516 478.05469l1.22265-.08594"/><g clip-path="url(#q)"><path fill="none" stroke="#000" stroke-linecap="round" stroke-linejoin="round" stroke-miterlimit="10" stroke-width=".5" d="M265.40625 477.1875l-3.14063 6.28516"/></g><path fill="none" stroke="#000" stroke-linecap="round" stroke-linejoin="round" stroke-miterlimit="10" stroke-width=".5" d="M264.94922 478.10156l1.22656-.03125"/><g clip-path="url(#r)"><path fill="none" stroke="#000" stroke-linecap="round" stroke-linejoin="round" stroke-miterlimit="10" stroke-width=".5" d="M278.54297 477.10156l-2.78516 6.45313"/></g><path fill="none" stroke="#000" stroke-linecap="round" stroke-linejoin="round" stroke-miterlimit="10" stroke-width=".5" d="M278.13672 478.04297l1.22265-.10156"/><g clip-path="url(#s)"><path fill="none" stroke="#000" stroke-linecap="round" stroke-linejoin="round" stroke-miterlimit="10" stroke-width=".5" d="M291.26953 476.91016l-1.60547 6.83984"/></g><path fill="none" stroke="#000" stroke-linecap="round" stroke-linejoin="round" stroke-miterlimit="10" stroke-width=".5" d="M291.03516 477.90234l1.1875-.3125"/><g clip-path="url(#t)"><path fill="none" stroke="#000" stroke-linecap="round" stroke-linejoin="round" stroke-miterlimit="10" stroke-width=".5" d="M303.61719 476.82031l.32812 7.01953"/></g><path fill="none" stroke="#000" stroke-linecap="round" stroke-linejoin="round" stroke-miterlimit="10" stroke-width=".5" d="M303.66406 477.83984l1.05469-.625"/><g clip-path="url(#u)"><path fill="none" stroke="#000" stroke-linecap="round" stroke-linejoin="round" stroke-miterlimit="10" stroke-width=".5" d="M316.6211 476.84766l.94921 6.96093"/></g><path fill="none" stroke="#000" stroke-linecap="round" stroke-linejoin="round" stroke-miterlimit="10" stroke-width=".5" d="M316.6211 476.84766l1.98827-1.4336"/><g clip-path="url(#v)"><path fill="none" stroke="#000" stroke-linecap="round" stroke-linejoin="round" stroke-miterlimit="10" stroke-width=".5" d="M329.92969 476.84766l.96094 6.96093"/></g><path fill="none" stroke="#000" stroke-linecap="round" stroke-linejoin="round" stroke-miterlimit="10" stroke-width=".5" d="M329.92969 476.84766l1.99219-1.4375"/><g clip-path="url(#w)"><path fill="none" stroke="#000" stroke-linecap="round" stroke-linejoin="round" stroke-miterlimit="10" stroke-width=".5" d="M342.96484 476.89844l1.51954 6.85937"/></g><path fill="none" stroke="#000" stroke-linecap="round" stroke-linejoin="round" stroke-miterlimit="10" stroke-width=".5" d="M342.96484 476.89844l1.8672-1.59375"/><g clip-path="url(#x)"><path fill="none" stroke="#000" stroke-linecap="round" stroke-linejoin="round" stroke-miterlimit="10" stroke-width=".5" d="M356.17188 476.92578l1.73828 6.8086"/></g><path fill="none" stroke="#000" stroke-linecap="round" stroke-linejoin="round" stroke-miterlimit="10" stroke-width=".5" d="M356.42578 477.91406l.90625-.82422"/><g clip-path="url(#y)"><path fill="none" stroke="#000" stroke-linecap="round" stroke-linejoin="round" stroke-miterlimit="10" stroke-width=".5" d="M371.32031 476.94922l-1.92578 6.75781"/></g><path fill="none" stroke="#000" stroke-linecap="round" stroke-linejoin="round" stroke-miterlimit="10" stroke-width=".5" d="M371.03906 477.9336l1.19922-.25782"/><g clip-path="url(#z)"><path fill="none" stroke="#000" stroke-linecap="round" stroke-linejoin="round" stroke-miterlimit="10" stroke-width=".5" d="M386.82422 478.77344l-6.30469 3.10937"/></g><g clip-path="url(#A)"><path fill="none" stroke="#000" stroke-linecap="round" stroke-linejoin="round" stroke-miterlimit="10" stroke-width=".5" d="M385.90625 479.22656l.9961.71875"/></g><g clip-path="url(#B)"><path fill="none" stroke="#000" stroke-linecap="round" stroke-linejoin="round" stroke-miterlimit="10" stroke-width=".5" d="M399.29297 477.67969l-4.61328 5.30078"/></g><path fill="none" stroke="#000" stroke-linecap="round" stroke-linejoin="round" stroke-miterlimit="10" stroke-width=".5" d="M398.6211 478.44922l1.1953.27734"/><g clip-path="url(#C)"><path fill="none" stroke="#000" stroke-linecap="round" stroke-linejoin="round" stroke-miterlimit="10" stroke-width=".5" d="M413.1289 478.2461l-5.65624 4.16796"/></g><path fill="none" stroke="#000" stroke-linecap="round" stroke-linejoin="round" stroke-miterlimit="10" stroke-width=".5" d="M412.3086 478.85156l1.10546.53125"/><g clip-path="url(#D)"><path fill="none" stroke="#000" stroke-linecap="round" stroke-linejoin="round" stroke-miterlimit="10" stroke-width=".5" d="M426.1211 477.86328l-5.00782 4.92969"/></g><path fill="none" stroke="#000" stroke-linecap="round" stroke-linejoin="round" stroke-miterlimit="10" stroke-width=".5" d="M426.1211 477.86328l2.33984.73828m-3.07031-.01953l1.17187.36719"/><g clip-path="url(#E)"><path fill="none" stroke="#000" stroke-linecap="round" stroke-linejoin="round" stroke-miterlimit="10" stroke-width=".5" d="M440.1836 479l-6.50391 2.65625"/></g><g clip-path="url(#F)"><path fill="none" stroke="#000" stroke-linecap="round" stroke-linejoin="round" stroke-miterlimit="10" stroke-width=".5" d="M440.1836 479l1.88671 1.57422"/></g><g clip-path="url(#G)"><path fill="none" stroke="#000" stroke-linecap="round" stroke-linejoin="round" stroke-miterlimit="10" stroke-width=".5" d="M439.23828 479.38672l.9414.78515"/></g><g clip-path="url(#H)"><path fill="none" stroke="#000" stroke-linecap="round" stroke-linejoin="round" stroke-miterlimit="10" stroke-width=".5" d="M453.07813 478.25l-5.66407 4.16016"/></g><path fill="none" stroke="#000" stroke-linecap="round" stroke-linejoin="round" stroke-miterlimit="10" stroke-width=".5" d="M453.07813 478.25l2.21093 1.0625"/><g clip-path="url(#I)"><path fill="none" stroke="#000" stroke-linecap="round" stroke-linejoin="round" stroke-miterlimit="10" stroke-width=".5" d="M466.11328 477.91406l-5.10156 4.83203"/></g><g clip-path="url(#J)"><path fill="none" stroke="#000" stroke-linecap="round" stroke-linejoin="round" stroke-miterlimit="10" stroke-width=".5" d="M466.11328 477.91406l2.32422.78125"/></g><g clip-path="url(#K)"><path fill="none" stroke="#000" stroke-linecap="round" stroke-linejoin="round" stroke-miterlimit="10" stroke-width=".5" d="M147.5039 466.76563l-7.0078.49609"/></g><path fill="none" stroke="#000" stroke-linecap="round" stroke-linejoin="round" stroke-miterlimit="10" stroke-width=".5" d="M147.5039 466.76563l1.30079 2.08203m11.94531-2.57813l-6.86719 1.48828m5.86719-1.27343l.79297.9375m13.39844-1.58204l-6.6211 2.34766m6.6211-2.34766l1.80859 1.65625m11.39453-1.93359l-6.39844 2.90234m5.46875-2.48046l.97266.75m13.01172-1.64454l-5.8789 3.84766m5.02343-3.28906l1.07813.59375m12.88671-1.4375l-5.46484 4.41797m5.46484-4.41797l2.25782.96094m10.54297-1.47657l-4.4375 5.44922m4.4375-5.44922l2.40625.47657m10.8125-.55079l-4.2461 5.59766m4.2461-5.59766l2.42187.39063m11.09375-.23047l-4.64453 5.27734m3.96875-4.5078l1.1914.28124m12.4961-1.28906l-4.03906 5.7539m3.44921-4.91406l1.21875.14844m11.72266-1.46094l-2.11328 6.69922m1.8086-5.72656l1.20312-.22266m11.75-.89062l-.78125 6.98047m.66797-5.96485l1.14062-.45312m13.07031-.38672l-2.34375 6.6289m2.34375-6.6289l2.42579-.36328m10.75.32031l-2.06641 6.71484m2.0664-6.71484l2.40626-.46484m10.9453.47656l-2.13671 6.6914m2.13672-6.6914l2.41406-.4414m10.6289.36327l-1.59374 6.84766m1.59375-6.84766l2.3711-.6289m12.26171 1.2461l-4.23047 5.61327m3.61719-4.79687l1.21094.19531m14.07421 2.34375l-6.9414-1.09766m5.92969.9375l.40234 1.16016m13.5586.09375l-6.21094-3.28516m5.30859 2.8047l.0039 1.22655m14.52735-3.1953l-6.83984 1.61327m5.84375-1.3789l.80859.92187m13.59375-.44531l-7.02344.1914m7.02344-.1914l1.21094 2.13281m11.48828-4.02734l-5.78906 3.98047m5.78906-3.98047l2.17578 1.13281m-3.01953-.55469l1.08984.5664m12.9375-1.32421l-5.52734 4.33984m5.52734-4.33984l2.24219.99219m11.57031-.13281l-6.52344 2.62109m6.52344-2.6211l1.875 1.58204m-2.82422-1.19922l.9375.78906m13.22657-1.39453l-6.32422 3.0664"/><g clip-path="url(#L)"><path fill="none" stroke="#000" stroke-linecap="round" stroke-linejoin="round" stroke-miterlimit="10" stroke-width=".5" d="M466.72266 465.48047l1.98046 1.44922"/></g><path fill="none" stroke="#000" stroke-linecap="round" stroke-linejoin="round" stroke-miterlimit="10" stroke-width=".5" d="M465.80469 465.92578l.98828.72266"/><g clip-path="url(#M)"><path fill="none" stroke="#000" stroke-linecap="round" stroke-linejoin="round" stroke-miterlimit="10" stroke-width=".5" d="M147.38672 452.76172l-6.77344 1.875"/></g><path fill="none" stroke="#000" stroke-linecap="round" stroke-linejoin="round" stroke-miterlimit="10" stroke-width=".5" d="M147.38672 452.76172l1.6875 1.78125m11.72266-1.32031l-6.96094.95312m6.96094-.95312l1.43359 1.98828m11.90625-1.72657l-7.01172.4297m7.01172-.4297l1.28125 2.09375m11.84375-3.03515l-6.63672 2.3086m5.67188-1.97266l.90234.83593m12.78516-2.23828l-5.44532 4.4414m4.65235-3.79296l1.1289.47266m12.78516-1.33594l-5.0625 4.875m5.0625-4.875l2.33203.76172m11.0039-.73828l-5.10156 4.82812m5.10157-4.82812l2.32812.78125m11.01172-.75782l-5.15234 4.78125m5.15234-4.78125l2.3164.8047m10.66407-1.1211l-4.48438 5.41015m4.48438-5.41015l2.40234.4961m10.4414-.82423l-3.53905 6.07032m3.53906-6.07032l2.44922.09375m11.46484.34766l-4.73828 5.1875m4.05078-4.4336l1.1875.3047m12.88672-.9961l-4.8789 5.0586m4.8789-5.0586l2.35937.67578m11.06641-.5625l-5.10156 4.83594m4.35937-4.13281l1.16407.39062m13.08593-.8711l-5.48828 4.38673m5.48828-4.38672l2.25391.97265m10.83984-1.22265l-5.04297 4.89062m5.04297-4.89062l2.33594.7539m11.3125-.35547l-5.71094 4.09375m5.71094-4.09375l2.19922 1.08985m-3.03125-.4961l1.10156.54688m12.96094-1.2539l-5.54297 4.3203m5.54297-4.3203l2.23828 1m11.64453.0625l-6.67578 2.1953m6.67578-2.1953l1.76953 1.6953m10.98828-2.74218l-5.5664 4.28906m5.5664-4.28906l2.23438 1.01172m11.79687.82422l-6.99609.61718m6.9961-.61718l1.33984 2.05468m11.6211-3.3164l-6.28516 3.14062m6.28515-3.14062l1.9961 1.42187m-2.91016-.96484l.9961.71094m13.17968-1.27344l-6.17969 3.34765m6.1797-3.34765l2.04296 1.35937m-2.9414-.8711l1.01952.6797m13.4336-.6172l-6.66016 2.25m6.66016-2.25l1.78515 1.6836m-2.7539-1.35547l.89062.83985m12.91016-2.10547l-5.69531 4.1211m5.69531-4.1211l2.20312 1.08203m-3.03125-.48047l1.10157.53906m13.50781-.24609l-6.6289 2.33203"/><g clip-path="url(#N)"><path fill="none" stroke="#000" stroke-linecap="round" stroke-linejoin="round" stroke-miterlimit="10" stroke-width=".5" d="M466.875 452.53125l1.80469 1.66406"/></g><path fill="none" stroke="#000" stroke-linecap="round" stroke-linejoin="round" stroke-miterlimit="10" stroke-width=".5" d="M465.91016 452.8711l.90234.83202"/><g clip-path="url(#O)"><path fill="none" stroke="#000" stroke-linecap="round" stroke-linejoin="round" stroke-miterlimit="10" stroke-width=".5" d="M147.5 440.0664l-7 .63673"/></g><path fill="none" stroke="#000" stroke-linecap="round" stroke-linejoin="round" stroke-miterlimit="10" stroke-width=".5" d="M147.5 440.0664l1.34375 2.05079m11.96484-1.35547l-6.98828-.75781m6.98828.7578l.91016 2.28126m12.41797-2.85938l-7.01563.39844m7.01563-.39844l1.27344 2.09766m11.89062-2.9375l-6.71094 2.07813m6.71094-2.07813l1.74219 1.73047m11.08984-2.71484l-5.74219 4.05078m5.7422-4.05078l2.1875 1.10546m11.35155-.73828l-6.1953 3.3164m6.1953-3.3164l2.03907 1.36328m11.00781-1.78906l-5.65625 4.16406m5.65625-4.16406l2.21484 1.0625m-3.03515-.45703l1.10547.53125m12.73047-1.4961l-5.0547 4.88282m5.0547-4.88281l2.33203.7578m-3.07032-.04687l1.16797.37891m10.66406-2.14844l-.61328 7m.61328-7l2.25782-.95703m12.26172 1.28516l-3.02344 6.34375m3.02344-6.34375l2.45312-.10547m-2.89062 1.03125l1.22265-.05469m13.17578-.47265l-4.3164 5.54687m4.3164-5.54687l2.41797.42187m-3.04687.38672l1.21094.21094m11.875-1.50782l-2.60157 6.52735m2.60157-6.52735l2.4414-.26953m11.52344.60938l-3.89844 5.84765m3.89844-5.84765l2.4414.24219m11.6797.5l-5.51173 4.36328m5.51172-4.36328l2.2461.98437m11.44922-.38672l-6.27344 3.16406m6.27344-3.16406l2.0039 1.41797m-2.91406-.95703l1 .70703m13.125-1.35156l-6.07422 3.53125m6.07422-3.53125l2.08594 1.29297m-2.96875-.77735l2.08593 1.29297m10.88282-3.05469l-3.61328 6.02735m3.61328-6.02735l2.44922.1211m11.42187.28906l-4.72266 5.20313m4.03516-4.44532l1.1875.30078m13.63672 3.02735l-6.36719-2.96875m6.36719 2.96875l.1289 2.45312m13.25782-2.61718l-6.51172-2.63672m6.51172 2.63672l.25781 2.4375m13.3086-3.94922l-7.01563.38672m7.01562-.38672l1.26954 2.09765m-2.28907-2.04297l.63282 1.05079m13.3828-2.39063l-6.375 2.95313m6.375-2.95313l1.95704 1.48438m-2.88281-1.0547l.97656.7422m13.20703-1.29297l-6.26172 3.1953m6.26172-3.1953l2.00781 1.40625m-2.91797-.94141l2.00782 1.40625m12.5039-1.08984l-6.83593 1.6328m6.83593-1.6328l1.625 1.83984m11.78516-.92969l-7.02344-.1875"/><g clip-path="url(#P)"><path fill="none" stroke="#000" stroke-linecap="round" stroke-linejoin="round" stroke-miterlimit="10" stroke-width=".5" d="M467.07422 440.47656l1.09375 2.19922"/></g><path fill="none" stroke="#000" stroke-linecap="round" stroke-linejoin="round" stroke-miterlimit="10" stroke-width=".5" d="M466.05078 440.44922l.54688 1.09765"/><g clip-path="url(#Q)"><path fill="none" stroke="#000" stroke-linecap="round" stroke-linejoin="round" stroke-miterlimit="10" stroke-width=".5" d="M147.45313 426.42969l-6.90625 1.27734"/></g><path fill="none" stroke="#000" stroke-linecap="round" stroke-linejoin="round" stroke-miterlimit="10" stroke-width=".5" d="M147.45313 426.42969l1.52734 1.91797m11.83203-1.62891l-6.99219.69922m6.99219-.69922l1.35938 2.03906m11.71093-3.01562l-6.50781 2.65234m6.50781-2.65234l1.88672 1.57422m11.39453-1.65625l-6.4375 2.8203m6.4375-2.8203l1.92578 1.51953m11.63282-.71485l-6.92188 1.20704m6.92188-1.20704l1.5078 1.9336m11.3672-3.1211l-6.04297 3.58204m6.04297-3.58204l2.09765 1.27735m-2.97656-.75781l1.04688.64062m13.1875-1.09375l-6.125 3.44922m6.125-3.44922l2.0664 1.32422m11.51172-.72656l-6.65234 2.2539m6.65234-2.2539l1.78906 1.67968m10.7539-2.96484l-5.10937 4.82422m5.10938-4.82422l2.32422.78125m10.7539-1.01172l-4.6328 5.28516m4.6328-5.28516l2.39063.5664m11.19531-.30077l-5.17578 4.7539m5.17578-4.7539l2.3125.8164m10.46485-1.29297l-4.09766 5.70704m3.5-4.875l1.21484.16406m12.38672-1.19531l-3.48047 6.10546m2.97656-5.21484l1.22657.03516m12.28515-1.08203l-2.86328 6.41796m2.86328-6.41796l2.44532-.16797m-2.86329 1.10156l1.22657-.08594m13.48828-.19531L328 429.625m4.82422-5.11328l2.36328.65234m-3.0664.09375l1.18359.32422m13.8086.54688l-6.77345 1.8789m6.77344-1.8789l1.6875 1.78125m-2.67578-1.50782l.84766.89063m13.01562-2.13672l-5.89453 3.82422m5.89453-3.82422l2.14453 1.1875m10.8125-1.64844l-5.17969 4.7461m5.1797-4.7461l2.3125.8164m8.97265-1.91405l-1.11719 6.9414m1.11719-6.9414l2.32031-.79297m-2.48437 1.80469l1.16015-.39844M400.5 427.07422l-7.02734-.01172m7.02734.01172l1.14844 2.17187m-2.17188-2.17187l.57422 1.08203m13.30078-2.82812l-6.10156 3.48046m6.10156-3.48046l2.07422 1.30859m-2.96094-.80469l2.07422 1.3125m-2.96094-.80469l1.03516.65625m13.6211-2.26953l-5.23829 4.6836m5.23828-4.6836l2.3047.84766m-3.06641-.16797l2.30468.84766m11.125-2.09375l-3.9453 5.8164m3.9453-5.8164l2.44141.26562m-3.01172.58203l1.21875.1289m13.3086-.41796l-5.22657 4.69922m5.22656-4.69922l2.3047.84375m11.48437-.17578l-6.17188 3.36328"/><g clip-path="url(#R)"><path fill="none" stroke="#000" stroke-linecap="round" stroke-linejoin="round" stroke-miterlimit="10" stroke-width=".5" d="M466.64844 425.38672l2.04687 1.35156"/></g><g clip-path="url(#S)"><path fill="none" stroke="#000" stroke-linecap="round" stroke-linejoin="round" stroke-miterlimit="10" stroke-width=".5" d="M147.5 413.46094l-7 .58594"/></g><path fill="none" stroke="#000" stroke-linecap="round" stroke-linejoin="round" stroke-miterlimit="10" stroke-width=".5" d="M147.5 413.46094l1.33203 2.0625m-2.35156-1.98047l.66797 1.03125m13.61719-1.49219l-6.89844 1.34375m6.89844-1.34375l1.54296 1.90625m-2.54687-1.71094l.76953.95313m13.2539-2.02735l-6.30859 3.10157m6.3086-3.10156l1.98828 1.4375m-2.90625-.98438l.99219.71875m13.54687-.21875l-6.92188 1.19531m6.92188-1.19531l1.5039 1.9375m11.75-2.22656l-6.80077 1.76953m6.80078-1.76953l1.66015 1.8086m-2.64844-1.55079l1.66016 1.8086m12.72266-1.66798l-6.95703.97657m6.95703-.97657l1.4414 1.98438m11.65235-2.8125l-6.51563 2.63281m6.51563-2.63281l1.8789 1.57422m11.25-1.96094l-6.14453 3.40625m6.14453-3.40625l2.0586 1.33984m-2.94922-.84375l1.02734.66797m12.89063-1.60547l-5.5664 4.28907m5.5664-4.28907l2.23437 1.01172m-3.04687-.38672l1.1211.50391m12.8125-1.35937l-5.1797 4.75m5.1797-4.75l2.3125.8164m-3.06641-.125l1.15625.40625m12.55859-1.4336l-4.47266 5.41798m4.47266-5.41797l2.40625.49219m10.38281-.85157l-3.42187 6.14063m3.42187-6.14063l2.45313.05078m11.27343.21875l-4.24218 5.60157m3.625-4.78906l1.21093.1953m12.76953-.97265l-4.33984 5.53125m4.33984-5.53125l2.41407.42969m11.73437.51172l-6.0039 3.64844m6.0039-3.64844l2.10938 1.2539m11.60156-.32421l-6.79688 1.78906m6.79688-1.78906l1.66406 1.80078m11.41016-2.44922l-6.3164 3.08594m6.3164-3.08594l1.98437 1.4414m10.9961-1.98828l-5.64844 4.17969m5.64844-4.17969l2.21484 1.05469m-3.03516-.44922l1.10547.53125m13.25-.80078l-6.08593 3.50781M386.71484 412l2.08203 1.30078m-2.96875-.79297l2.08204 1.30469m12.28125-1.4961l-6.41016 2.875m6.41016-2.875l1.9375 1.50782m-2.8711-1.08984l1.9375 1.5078m11.88672-2.6328l-5.5625 4.28906m5.5625-4.28906l2.23828 1.01171m-3.04687-.39062l2.23437 1.01562m11.16406-2.34375l-4.10937 5.70313m4.10937-5.70313l2.4297.33204m-3.02735.49609l1.21484.16797m12.51563-1.11719l-3.7461 5.94531m3.7461-5.94531l2.44531.17969m-2.99219.6836l1.22266.08984m12.3711-1.10547l-3.20704 6.25m3.20703-6.25l2.45313-.03907m-2.92188.94532l1.22656-.01563m12.02735-1.10937l-2.15235 6.6875m2.15235-6.6875l2.41797-.4336m-2.73047 1.40625l1.20703-.21875"/><g clip-path="url(#T)"><path fill="none" stroke="#000" stroke-linecap="round" stroke-linejoin="round" stroke-miterlimit="10" stroke-width=".5" d="M147.5 400.125l-7 .6289"/></g><path fill="none" stroke="#000" stroke-linecap="round" stroke-linejoin="round" stroke-miterlimit="10" stroke-width=".5" d="M147.5 400.125l1.33984 2.05469m11.98438-1.92578l-7.01953.36718m7.01953-.36718l1.26172 2.10546m12.05469-2.05859l-7.01954.27344m7.01953-.27344l1.23438 2.1211m12.0664-2.33204l-6.99218.69532m6.99219-.69532l1.35937 2.04297m-2.375-1.9414l.67969 1.02343m13.66797-.75l-7.02735-.05078m7.02735.05078l1.13672 2.17188m12.03906-3.1836l-6.7461 1.96875m6.7461-1.96875l1.71094 1.75782m-2.69532-1.46875l.85938.8789m13.19922-1.77343l-6.26563 3.18359m6.26563-3.1836l2.00781 1.40626m-2.92188-.94532l1.00782.70704m12.5664-2.06641l-4.95703 4.98047m4.95703-4.98047l2.34766.71094m-3.0664.01171l1.17187.35547m12.60937-1.30859l-4.44922 5.4375m4.44922-5.4375l2.40625.48047m-3.05468.3125l1.20312.23828m12.76563-1.02344l-4.46485 5.42578m4.46485-5.42578l2.40625.48438m-3.0547.30469l1.20313.24218m12.92579-.88672l-4.79297 5.13672m4.79297-5.13672l2.37109.63672m-3.0664.10938l1.18359.3164m12.5039-1.33203l-4.14844 5.67188m4.14844-5.67188l2.42969.35156m10.88672-.34765l-4.15235 5.66797m4.15235-5.66797l2.42969.35156m11.51562.23828l-5.41016 4.48438m5.41016-4.48438l2.26953.9336m11.02344-.96094l-5.36719 4.53906m5.36719-4.53906l2.27734.91406m11.21875-.67969l-5.72656 4.07032m5.72656-4.07032l2.19532 1.09766m11.4414-.53906l-6.3711 2.95703m6.3711-2.95703l1.95703 1.48047m11.51172-1.09766l-6.67578 2.1914m6.67578-2.1914l1.76953 1.69922m-2.74218-1.38281l.88671.85156m13.01172-1.98438l-5.89843 3.82422m5.89843-3.82422l2.14453 1.19141m-3.0039-.63672l2.14453 1.1914m12.07422-1.67187l-5.98828 3.67578m5.98828-3.67578l2.11328 1.24219m-2.98438-.70703l1.0586.6211m13.2461-.94923l-6.22657 3.25782m6.22656-3.25782l2.02735 1.38672m-2.9336-.91406l1.01172.69531m12.42188-2.17187l-4.65235 5.26562m4.65235-5.26562l2.38671.57031m-3.0625.19531l1.19532.28516m12.38281-1.36328l-3.82422 5.89453m3.82422-5.89453l2.44531.21094m11.25781.08203l-4.60156 5.30859m4.60156-5.3086l2.39454.54688m-3.0625.22266l1.1953.27734m12.95704-.89062l-4.9414 4.99609"/><g clip-path="url(#U)"><path fill="none" stroke="#000" stroke-linecap="round" stroke-linejoin="round" stroke-miterlimit="10" stroke-width=".5" d="M466.03125 397.9414l2.35156.70313"/></g><path fill="none" stroke="#000" stroke-linecap="round" stroke-linejoin="round" stroke-miterlimit="10" stroke-width=".5" d="M465.3125 398.66797l1.17578.35156"/><g clip-path="url(#V)"><path fill="none" stroke="#000" stroke-linecap="round" stroke-linejoin="round" stroke-miterlimit="10" stroke-width=".5" d="M147.42578 386.34766l-6.85156 1.55468"/></g><path fill="none" stroke="#000" stroke-linecap="round" stroke-linejoin="round" stroke-miterlimit="10" stroke-width=".5" d="M147.42578 386.34766l1.60156 1.85546m11.79688-1.23437l-7.01953.3086m7.01953-.3086l1.2461 2.11328m12.07421-1.95703h-7.02734m7.02734 0l1.15234 2.16406m11.8672-3.57422l-6.4375 2.81641m6.4375-2.8164l1.92577 1.52343m11.51563-1.1914l-6.6914 2.15234m5.71874-1.83985l.8789.85547m13.51563-.73828l-6.90625 1.29297m6.90625-1.29297l1.53125 1.91797m11.39844-2.98437l-6.13672 3.42578m6.13672-3.42578l2.0625 1.33203m-2.95312-.83203l1.03125.66406m12.6289-1.89844l-5.04297 4.89453m5.04297-4.89453l2.33594.7539m-3.07031-.04296l1.16797.3789m12.92968-1.03515l-5.14062 4.78906m5.14062-4.78906l2.32032.79687m-3.06641-.10156l1.16016.39844m12.77734-1.22266l-4.89063 5.04688m4.89063-5.04688l2.35547.67969m-3.0664.05469l1.17577.33984m13.13672-.76172l-5.46484 4.41797m5.46484-4.41797l2.25781.95703m11.40625-.4375l-6.16015 3.37891m6.16015-3.3789l2.05079 1.34374m11.11718-1.58984l-5.86718 3.8711m5.86718-3.8711l2.15235 1.17578m11.39062-.77344l-6.32422 3.06641m6.32422-3.0664l1.98047 1.4453m11.25781-1.59374l-6.16796 3.36328m6.16796-3.36328l2.04688 1.35156m11.3164-1.26172l-6.26562 3.1836m6.26563-3.1836l2.0078 1.41016m11.65235-.3125l-6.95703.98828m6.95703-.98828l1.44531 1.98437m-2.45703-1.83984l.72266.99219m13.60156-1.16016l-6.95312 1.03515m6.95312-1.03515l1.45703 1.97656m-2.46875-1.82422l1.45703 1.97266m12.64063-2.94922l-6.49219 2.6836m6.49219-2.6836l1.89453 1.5586m-2.83984-1.16798l.9453.78125m13.04688-1.6914l-5.95703 3.72265m5.95703-3.72265l2.125 1.22656m-2.99218-.6836l1.0625.61329m13.46484-.42969l-6.64844 2.26953m6.64844-2.26953l1.79297 1.67969m-2.75781-1.34766l.89453.83594m13.08594-1.82031l-6.05079 3.57422m6.05079-3.57422l2.09375 1.27734m-2.97266-.75781l1.04687.64062m12.87891-1.55078l-5.51563 4.35547m5.51563-4.35547l2.25.98828m-3.05078-.35546l1.125.49609m13.1289-.94531l-5.78515 3.98828m5.78515-3.98828l2.17579 1.1289m-3.01954-.54687l1.08985.5625m13.03125-1.19922l-5.71094 4.09765"/><g clip-path="url(#W)"><path fill="none" stroke="#000" stroke-linecap="round" stroke-linejoin="round" stroke-miterlimit="10" stroke-width=".5" d="M466.41797 385.07422l2.19922 1.08984"/></g><path fill="none" stroke="#000" stroke-linecap="round" stroke-linejoin="round" stroke-miterlimit="10" stroke-width=".5" d="M465.58594 385.67188l1.09765.54296"/><g clip-path="url(#X)"><path fill="none" stroke="#000" stroke-linecap="round" stroke-linejoin="round" stroke-miterlimit="10" stroke-width=".5" d="M147.25 372.47266l-6.5 2.67187"/></g><path fill="none" stroke="#000" stroke-linecap="round" stroke-linejoin="round" stroke-miterlimit="10" stroke-width=".5" d="M147.25 372.47266l1.89063 1.5664m11.66406-.6289l-6.98047.79687m6.98047-.79687l1.39062 2.01953m11.88672-2.28516l-6.90234 1.32813m6.90234-1.32813l1.53906 1.91016m11.83594-1.20313l-7.02344-.08984m7.02344.08984l1.125 2.1836m12.15625-2.71875l-6.95703.98437m6.95703-.98437l1.44531 1.98437m11.78907-2.38281l-6.79688 1.77734m6.79688-1.77734l1.66406 1.80469m11.36719-2.54297l-6.22657 3.25781m6.22657-3.25781l2.02343 1.38672m-2.92968-.91407l1.01172.69532m12.84375-1.72657l-5.4961 4.375m5.4961-4.375l2.2539.97657m-3.05078-.33985l1.125.48828m12.625-1.51562l-4.77344 5.15625m4.77344-5.15625l2.3711.625m-3.06641.125l1.1875.3125m13.24219-.59766l-5.60938 4.22656m5.60938-4.22656l2.22656 1.03516m-3.04297-.42188l1.11328.51954m13.4375-.41407l-6.44922 2.78906m6.44922-2.78906l1.91797 1.53125M293.5 372.03906l-6.07031 3.53906m6.07031-3.53906l2.08594 1.29297m-2.96875-.77734l1.04297.64453m13.39843-.65235l-6.55468 2.52344m6.55468-2.52344l1.85547 1.60547m-2.8086-1.23828l.92579.80469m13.44531-.86328l-6.76172 1.90625m6.76172-1.90625l1.69922 1.77344m-2.6836-1.4961l.85157.88672M333.83203 373l-6.83984 1.61328M333.83203 373l1.61719 1.84375m-2.61328-1.60938l.8086.92188m13.58593-.57813l-7.01172.46094m7.01172-.46094l1.29297 2.08594m-2.3125-2.01953l.64453 1.04297m13.6836-1.22656l-6.9961.69531m6.9961-.69531l1.35937 2.04297m-2.3789-1.94141l.67968 1.01953m13.60547-1.4414l-6.89844 1.33593m6.89844-1.33594l1.54297 1.90625m-2.54688-1.71484l1.54297 1.91016m12.625-2.64844l-6.59375 2.42578m6.59375-2.42578l1.82813 1.63672m-2.78907-1.28125l1.83203 1.63281m12.57813-1.53515l-6.86328 1.52343m6.86328-1.52344l1.59375 1.86329m-2.59375-1.64063l.79687.92969m13.08204-2.22656l-5.9922 3.67187m5.9922-3.67187l2.11328 1.24609m-2.98438-.71094l2.11328 1.2461m12.25781-1.4375l-6.36328 2.98437m6.36329-2.98437l1.96484 1.47265m-2.89063-1.03906l.98047.73828m13.35938-.94531l-6.5586 2.53125m6.5586-2.53125l1.85156 1.60547m-2.8086-1.23828l.9297.80468m13.3789-1.0664l-6.63281 2.32031m6.63281-2.32031l1.80469 1.66406m11.21484-2.30078l-6.03906 3.59375"/><g clip-path="url(#Y)"><path fill="none" stroke="#000" stroke-linecap="round" stroke-linejoin="round" stroke-miterlimit="10" stroke-width=".5" d="M466.58203 372.01172l2.09766 1.27344"/></g><g clip-path="url(#Z)"><path fill="none" stroke="#000" stroke-linecap="round" stroke-linejoin="round" stroke-miterlimit="10" stroke-width=".5" d="M147.51172 360.35938l-7.02344.26953"/></g><path fill="none" stroke="#000" stroke-linecap="round" stroke-linejoin="round" stroke-miterlimit="10" stroke-width=".5" d="M147.51172 360.35938l1.23437 2.11718m12.07422-1.73437l-7.01172-.4961m7.01172.4961l.9961 2.24219m-2.01563-2.31641l.4961 1.1211m13.83593-1.04298l-7.00781-.5078m7.00781.5078l.99219 2.2461m12.32813-2.30078l-7.01563-.39844m7.01563.39844l1.02734 2.23046m12.28516-2.17578l-7.01172-.5039m7.01172.5039l.99218 2.2422m-2.01172-2.31642l.4961 1.1211m13.79687-1.88672l-6.92969 1.17188m6.9297-1.17188l1.49609 1.94531m-2.50391-1.77344l.75.97266m13.1914-2.2461l-6.16406 3.37891m6.16407-3.3789l2.05078 1.34375m-2.94922-.85156l1.02734.67187m12.91406-1.58203l-5.62109 4.21484m5.6211-4.21484l2.22265 1.03906M239.19922 359l1.10937.51953m13.07422-1.0664l-5.72265 4.08203m5.72265-4.08204l2.19531 1.09375m11.35938-.70703l-6.20313 3.3086m6.20313-3.3086l2.03516 1.3711m11.30468-1.3164l-6.2539 3.19921m6.2539-3.19922l2.01172 1.40235m11.64063-.40235l-6.92578 1.19531m6.92578-1.1953l1.5039 1.9414m-2.51171-1.76563l.75.96875m13.58984-1.03515l-6.96094.97656m6.96094-.97656l1.4414 1.98437m-2.45703-1.83984l.72266.99219m13.6289-.37891l-7.0039-.53906m7.0039.53906l.98438 2.25m-2.0039-2.32813l.49218 1.125m13.83985-1.01953l-7-.59375m7 .59375l.96875 2.25781m-1.98438-2.34375l.48047 1.12891m13.84766-1.66406l-6.9961.65234m6.9961-.65234l1.35156 2.04687m-2.36719-1.95312l.67188 1.02344m13.66797-1.04688l-7.01172.50781m7.01172-.5078l1.30468 2.07812m-2.32422-2.00391l1.3047 2.07813m13.02734-2.1836l-7.00391.57422m7.0039-.57422l1.32422 2.0625m-2.34375-1.98047l1.32422 2.0664m12.91797-2.70312l-6.82031 1.6836m6.82031-1.6836l1.63672 1.82813m-2.6289-1.58203l.8203.91406m13.40235-1.44922l-6.65234 2.25781m6.65234-2.2578l1.78906 1.68358m-2.75781-1.35546l1.78906 1.68359m12.59375-1.66797l-6.85156 1.57031m6.85156-1.5703l1.60547 1.85546m-2.60156-1.625l1.60547 1.85156m12.74219-1.90234l-6.92188 1.21484m6.92188-1.21484l1.5078 1.9336m-2.51562-1.75782l.7539.96875m13.57032-1.1289l-6.92578 1.17968m6.92578-1.17969l1.5 1.94141m-2.50781-1.76953l.75.97265M453.72656 360l-6.95703.98828M453.72656 360l1.44532 1.98047m-2.45704-1.83594l.72266.98828m13.4414-1.79687l-6.63671 2.3125"/><g clip-path="url(#aa)"><path fill="none" stroke="#000" stroke-linecap="round" stroke-linejoin="round" stroke-miterlimit="10" stroke-width=".5" d="M466.8789 359.33594l1.80079 1.66797"/></g><g clip-path="url(#ab)"><path fill="none" stroke="#000" stroke-linecap="round" stroke-linejoin="round" stroke-miterlimit="10" stroke-width=".5" d="M147.4961 346.84375l-6.9922.66797"/></g><path fill="none" stroke="#000" stroke-linecap="round" stroke-linejoin="round" stroke-miterlimit="10" stroke-width=".5" d="M147.4961 346.84375l1.35546 2.04688m-2.3711-1.94922l.67579 1.02343m13.65625-.4453l-6.9961-.6836m6.9961.6836l.9336 2.26952m-1.95313-2.36719l.46875 1.13282m13.85937-1.76172l-6.98437.76953m6.98437-.76953l1.38282 2.02734m11.95312-1.66015l-7.02344.03515m7.02344-.03515l1.16406 2.16015m-2.18359-2.15625l.58203 1.08203m13.7461-.83593l-7.01172-.46485m7.01172.46485l1.0039 2.23828m-2.02344-2.30469l.50391 1.1211m13.78516-1.91016l-6.91797 1.2461m6.91797-1.2461l1.51562 1.92969m-2.52344-1.7461l.75782.96485m13.28125-2.03125l-6.35157 3.01171m6.35157-3.01171l1.96875 1.46484m-2.89453-1.02735l.98437.73438m12.95703-1.6836l-5.7539 4.03516m5.7539-4.03515l2.1875 1.11328m11.5039-.41797l-6.5078 2.64453m6.5078-2.64453l1.88673 1.57031m11.67968-.50781l-7.0078.52344m7.0078-.52344l1.3086 2.07422m11.98047-2.30469l-6.95704.98047m6.95704-.98047l1.4453 1.98438m11.8672-2.01563l-6.94922 1.04297m6.94922-1.04297l1.46093 1.96875m-2.47265-1.8164l.73047.98437m13.6328-.5586l-7.02343-.11328m7.02344.11329l1.11719 2.18359m-2.13672-2.19922l.5586 1.08984m13.77733-1.23437l-7.02734.20703m7.02734-.20703l1.21485 2.13281m-2.23828-2.10156l1.21484 2.13281m13.125-2.03515l-7.02734-.04688m7.02734.04688l1.13672 2.17187m-2.16016-2.17969l.57032 1.08594m13.74609-.72656l-6.98438-.7539m6.98438.7539l.91406 2.27734m-1.92969-2.38672l.45704 1.14063m13.89453-1.3711l-7.02735-.07421m7.02735.07421l1.1289 2.1797m-2.15234-2.1875l1.1289 2.17577m13.19922-2.46484l-7.0078.51953m7.0078-.51953l1.3086 2.07422m-2.32813-2l1.3086 2.07422m12.94531-2.6836l-6.84375 1.59375m6.84375-1.59375l1.61328 1.84766m-2.60937-1.61719l1.61328 1.84766m12.57812-2.47656l-6.60937 2.38671m6.60937-2.38671l1.82031 1.64843m-2.78125-1.30078l1.82032 1.64453m12.41406-2.10937l-6.51953 2.6211m6.51953-2.6211l1.875 1.57812m-2.82422-1.19531l1.875 1.57813m12.33984-2.07813l-6.42187 2.85547m6.42187-2.85547l1.9297 1.51172m-2.8672-1.09766l1.9336 1.51172m12.38672-1.75781l-6.5586 2.51953m6.5586-2.51953l1.85156 1.60547m-2.80469-1.23828l.92578.80468m13.4297-.91796l-6.73438 2.01171m6.73437-2.01171l1.72266 1.75m11.72265-1.09766l-6.99218.71094"/><g clip-path="url(#ac)"><path fill="none" stroke="#000" stroke-linecap="round" stroke-linejoin="round" stroke-miterlimit="10" stroke-width=".5" d="M467.0586 346.82422l1.36327 2.03515"/></g><path fill="none" stroke="#000" stroke-linecap="round" stroke-linejoin="round" stroke-miterlimit="10" stroke-width=".5" d="M466.03906 346.92578l.6836 1.01953"/><g clip-path="url(#ad)"><path fill="none" stroke="#000" stroke-linecap="round" stroke-linejoin="round" stroke-miterlimit="10" stroke-width=".5" d="M147.4961 333.51953l-6.9922.6875"/></g><path fill="none" stroke="#000" stroke-linecap="round" stroke-linejoin="round" stroke-miterlimit="10" stroke-width=".5" d="M147.4961 333.51953l1.35937 2.04688m11.97266-1.72266l-7.02735.03906m7.02734-.03906l1.16407 2.16016m-2.1875-2.15235l.58203 1.07813m13.75781-.98828l-7.02734-.15625m7.02734.15625l1.10156 2.1953m-2.125-2.21874l.55078 1.09765m13.78516-1.15234h-7.02344m7.02344 0l1.15234 2.16797m-2.17187-2.16797l.57422 1.08203m13.71484-1.64453l-6.9336 1.125m6.9336-1.125l1.48438 1.95313m-2.49219-1.78907l.74219.97657m13.5-1.51954l-6.76953 1.88282m6.76953-1.88281l1.6914 1.77734m-2.67578-1.5039l.84375.89062m13.30469-1.59766l-6.46875 2.75m6.46875-2.75l1.90625 1.54297m-2.84766-1.14453l.95313.77344m13.22266-1.34375l-6.3086 3.09375m6.3086-3.09375l1.98828 1.43359m11.67968-.1211l-7.01172.46876m7.01172-.46875l1.29297 2.08203m11.98047-2.42578l-6.92969 1.15625m6.9297-1.15625l1.49218 1.9453m-2.5-1.77733l.7461.97265m13.52734-1.3789l-6.83203 1.6328m6.83203-1.6328l1.625 1.83984m11.78906-1.0664l-7.02734.08593m7.02734-.08594l1.17578 2.15235m-2.19922-2.14063l.58985 1.07813m13.71875-.58985l-6.96875-.91406m6.96875.91406l.85937 2.29688m-1.875-2.42969l.42969 1.14844m13.92969-1.47266h-7.02735m7.02735 0l1.15234 2.16797m-2.17578-2.16797l.57812 1.08203m13.7461-.77344l-7-.61718m7 .61719l.95703 2.26171m-1.97656-2.35156l.48046 1.1289m13.78907-.60546l-6.8672-1.48438m6.8672 1.48438l.66797 2.36328m-1.66797-2.57813l.33593 1.1797m14.03125-2.12891l-6.97265.84375m6.97265-.84375l1.40625 2.01171m-2.41796-1.89062l.69921 1.00781m13.59375-1.36719l-6.90234 1.32032m6.90234-1.32031l1.53516 1.91015m-2.53906-1.71875l.76562.95703m13.53516-1.23437l-6.86719 1.49219m6.86719-1.4922l1.58594 1.875m-2.58594-1.65624l.79297.9336m13.51562-1.17579l-6.85547 1.53906m6.85547-1.53906l1.59766 1.86328m-2.59375-1.64062l.79687.93359m13.48047-1.29297l-6.78906 1.8125m6.78906-1.8125l1.67188 1.79688m-2.66016-1.53125l1.67188 1.79687m12.59375-2.19531l-6.71094 2.07812m6.71094-2.07812l1.74218 1.73047m-2.71875-1.42578l1.7422 1.72656m12.05468-3.03125l-5.72266 4.07812m5.72266-4.07812l2.19531 1.09375m-3.02734-.5l2.19531 1.09375m12.28516-1.10938l-6.39063 2.92188m6.39063-2.92188l1.94922 1.4922m-2.87891-1.06642l.97656.7461m13.44922-.6875l-6.75 1.95312"/><g clip-path="url(#ae)"><path fill="none" stroke="#000" stroke-linecap="round" stroke-linejoin="round" stroke-miterlimit="10" stroke-width=".5" d="M466.9375 332.88672l1.70703 1.76172"/></g><path fill="none" stroke="#000" stroke-linecap="round" stroke-linejoin="round" stroke-miterlimit="10" stroke-width=".5" d="M465.95313 333.17188l.85546.8789"/><g clip-path="url(#af)"><path fill="none" stroke="#000" stroke-linecap="round" stroke-linejoin="round" stroke-miterlimit="10" stroke-width=".5" d="M147.5 320.23047l-7 .63672"/></g><path fill="none" stroke="#000" stroke-linecap="round" stroke-linejoin="round" stroke-miterlimit="10" stroke-width=".5" d="M147.5 320.23047l1.34375 2.05078m-2.36328-1.95703l.67187 1.02344m13.67578-.80079h-7.02734m7.02734 0l1.15235 2.16797m-2.17578-2.16796l.57812 1.08593m13.71875-1.61719l-6.94531 1.06641m6.94531-1.0664l1.46875 1.96484m-2.47656-1.8086l.73047.98047m13.6211-.92968l-7 .64843m7-.64843l1.34374 2.05078m11.4414-3.60547l-5.9414 3.75781m5.9414-3.75781l2.12892 1.21484m11.1289-1.30078l-5.82812 3.92969m5.82812-3.92969l2.16797 1.15625m11.5039-.48047l-6.53906 2.57813m6.53907-2.57813l1.86328 1.59375m11.6914-.48047l-7.01953.35547m7.01953-.35547l1.25782 2.10547m12.0625-1.97265l-7.02735.08593m7.02735-.08593l1.17578 2.15234m12.07031-2.80078l-6.89063 1.38672m6.89063-1.38672l1.55469 1.89453m11.82422-1.39063l-7.01953.37891m7.01953-.3789l1.26562 2.09765m12.02344-1.4375l-6.96484-.9414m6.96484.9414l.84766 2.30078m12.38671-1.89844l-6.80468-1.74609m6.80468 1.7461l.57813 2.3828m12.83594-2.98046l-7.00391-.55469m7.0039.55469l.97657 2.25m-1.9961-2.32813l.48829 1.125m13.84765-1.59765l-7.00781.54687m7.00781-.54687l1.3164 2.07031m-2.33593-1.98828l.66016 1.03515m13.66406-1.23437l-6.98437.78125m6.98437-.78125l1.38281 2.02734m11.57032-.04296l-6.26172-3.1875m6.26172 3.1875l.04296 2.45312m13.65235-3.97656l-7.02344-.13672m6.0039.11719l.5547 1.09375m13.54296-2.42188l-6.54687 2.55469m6.54687-2.55469l1.85938 1.59766m11.53125-1.375l-6.69922 2.11328m5.72656-1.80469l.875.85938m13.21094-1.67579l-6.29297 3.12891m5.375-2.67578l1 .71484m12.78906-1.84765l-5.40625 4.48828m17.92188-5.19531l-3.8086 5.90234m3.25391-5.04688l1.22266.10547m13.3828-.32812l-5.28124 4.63281m5.28125-4.63281l2.29687.8711m-3.0625-.19532l1.14454.4336m13.07812-.9375l-5.5625 4.29296"/><g clip-path="url(#ag)"><path fill="none" stroke="#000" stroke-linecap="round" stroke-linejoin="round" stroke-miterlimit="10" stroke-width=".5" d="M466.34375 318.40234l2.23438 1.01172"/></g><g clip-path="url(#ah)"><path fill="none" stroke="#000" stroke-linecap="round" stroke-linejoin="round" stroke-miterlimit="10" stroke-width=".5" d="M465.53516 319.02734l2.23437 1.01172"/></g><path fill="none" stroke="#000" stroke-linecap="round" stroke-linejoin="round" stroke-miterlimit="10" stroke-width=".5" d="M464.72656 319.65234l1.11719.50391"/><path fill="#00f" fill-rule="evenodd" d="M246.21094 467.64844h8.61719V457.5039h-8.6172v10.14453"/><path fill="azure" fill-rule="evenodd" d="M248.04297 459.33594h.83594v2.82422h3.28515v-2.82422h.83203v6.48047h-.83203v-2.91797h-3.28515v2.91797h-.83594v-6.48047"/><path fill="#00f" fill-rule="evenodd" d="M312.78516 454.33203h8.62109V444.1875h-8.6211v10.14453"/><path fill="azure" fill-rule="evenodd" d="M314.6211 446.01953h.83202v2.82422h3.28516v-2.82422h.83203V452.5h-.83203v-2.91406h-3.28515V452.5h-.83204v-6.48047"/><path fill="#ff3030" fill-rule="evenodd" d="M362.30469 432.14063h7.6914v-10.14454h-7.6914v10.14454"/><path fill="azure" fill-rule="evenodd" d="M364.13672 423.82813h.83203v5.73828h3.19531v.74218h-4.02734v-6.48046"/><path fill="#00f" fill-rule="evenodd" d="M414.86719 423.26563h8.6211v-10.14844h-8.6211v10.14844"/><path fill="azure" fill-rule="evenodd" d="M416.70313 414.95313h.83203v2.8203h3.28515v-2.8203h.83594v6.48046h-.83594v-2.91796h-3.28515v2.91796h-.83204v-6.48046"/><path fill="#ff3030" fill-rule="evenodd" d="M198.08203 409.94922h7.69531v-10.14453h-7.6953v10.14453"/><path fill="azure" fill-rule="evenodd" d="M199.91797 401.63672h.83203v5.73828h3.19531v.74219h-4.02734v-6.48047"/><path fill="#00f" fill-rule="evenodd" d="M157.44531 401.07422h8.61719v-10.14844h-8.61719v10.14844"/><path fill="azure" fill-rule="evenodd" d="M159.27734 392.76172h.83203v2.82031h3.28907v-2.82031h.83203v6.47656h-.83203v-2.91406h-3.28906v2.91406h-.83204v-6.47656"/><path fill="#ff3030" fill-rule="evenodd" d="M184.76953 383.32031h7.6914v-10.14844h-7.6914v10.14844"/><path fill="azure" fill-rule="evenodd" d="M186.60156 375.00781h.83203v5.73828h3.19532v.7422h-4.02735v-6.48048"/><path fill="#ffffe0" fill-rule="evenodd" d="M386.1289 406.92969h22.1797v-10.1914h-22.1797v10.1914"/><path fill-rule="evenodd" d="M389.625 398.57031h.51172v6.29688h-.78906V400.375h-1.38672v-.55469l.5586-.0664.2539-.05079.23047-.08984.20312-.14453.17188-.20703.14062-.29688.10547-.39453m4.8164 0l.22657.01953.22265.0547.20704.08983.1953.1211.1836.14844.17188.17578.30078.42187.2461.49219.17968.54688.10938.57812.03906.59375-.03906.58984-.10938.58594-.17969.55469-.2461.5-.30077.42969-.17188.17968-.1836.15235-.1953.125-.20704.08984-.22265.0586-.22656.01953-.23047-.01954-.21875-.05859-.20703-.08984-.19922-.125-.1836-.15235-.17187-.17968-.30078-.4297-.24219-.5-.17969-.55468-.11328-.58594-.03515-.58984h.83203l.02734.5625.08203.5039.125.44532.16406.3711.19141.30077.21094.22266.22265.13672.22657.04687.22656-.04687.22265-.13672.21094-.22266.1914-.30078.16017-.3711.125-.4453.08203-.50391.03125-.5625-.03125-.5625-.08204-.5-.125-.4375-.16015-.36328-.1914-.29297-.21094-.21484-.22266-.13282-.22656-.04296-.22657.04296-.22265.13282-.21094.21484-.1914.29297-.16407.36328-.125.4375-.08203.5-.02734.5625h-.83204l.03516-.59375.11328-.57813.17969-.54687.24219-.49219.30078-.42187.17187-.17578.1836-.14844.19922-.1211.20703-.08984.21875-.05469.23047-.01953m5.08984 0h.51172v6.29688h-.78906V400.375h-1.38672v-.55469l.5586-.0664.2539-.05079.22656-.08984.20313-.14453.17578-.20703.14062-.29688.10547-.39453m2.82422 2.17578h.78515l.01954-.3164.0625-.28516.09765-.2539.14063-.21485.17969-.17578.22265-.1289.26563-.07813.30859-.02735.23828.01954.22266.0625.20703.10156.17578.14062.15234.17188.10938.20703.07422.23438.02344.26562-.01954.26953-.0664.22266-.10938.1914-.15625.17188-.19922.16406-.25.16406-.6328.39063-.53907.3125-.4375.3164-.34375.32422-.26563.33594-.1914.35156-.125.3711-.0664.39062-.02345.42188h4.21485v-.74219h-3.33203l.08203-.28516.11328-.23437.14844-.20313.1875-.17968.23046-.17188.27735-.17578.71875-.41797.41406-.20312.34766-.23047.27734-.2539.22266-.26563.16406-.27735.10938-.28515.0625-.28516.02343-.28125-.04297-.38281-.12109-.34766-.1875-.3086-.25-.26171-.30469-.21485-.34375-.15625-.38281-.09765-.40625-.03516-.4336.03125-.39843.10156-.35547.16407-.30469.23437-.25.30469-.1836.375-.11718.44531-.03906.51953"/><path fill="#ffffe0" fill-rule="evenodd" d="M244.10156 395.92578h22.17969v-10.1914h-22.17969v10.1914"/><path fill-rule="evenodd" d="M247.59766 387.5664h.51172v6.29298h-.78907v-4.48829h-1.38672v-.55468l.5586-.06641.2539-.05469.23047-.08594.20313-.14453.17187-.20703.14063-.29687.10547-.39453m4.8164 0l.22656.01953.22266.05469.20703.08984.19531.1211.1836.14843.17187.17578.30078.42188.2461.49218.17969.54688.10937.57812.03906.58985-.03906.59375-.10937.58594-.1797.55468-.24608.5-.30079.42969-.17187.17969-.1836.15234-.1953.125-.20704.08985-.22266.05859-.22656.01953-.23047-.01953-.21875-.0586-.20703-.08984-.19922-.125-.18359-.15234-.17188-.17969-.30078-.42969-.24218-.5-.1797-.55469-.11327-.58593-.03516-.59375h.83203l.02735.5664.08203.50391.125.4414.16406.375.1914.30079.21094.22265.22266.13672.22656.04688.22656-.04688.22266-.13672.21094-.22265.1914-.30078.16016-.375.125-.44141.08203-.5039.03125-.56641-.03125-.5586-.08203-.5-.125-.4375-.16016-.36718-.1914-.28907-.21094-.21484-.22266-.13281-.22656-.04297-.22656.04297-.22266.13281-.21093.21484-.19141.28907-.16406.36718-.125.4375-.08203.5-.02735.5586h-.83203l.03516-.58985.11328-.57812.17969-.54688.24218-.49218.30078-.42188L251.375 388l.1836-.14844.19921-.1211.20703-.08983.21875-.0547.23047-.01952m5.08985 0h.51171v6.29296h-.78906v-4.48828h-1.38672v-.55468l.5586-.06641.25-.05469.23047-.08594.20312-.14453.17578-.20703.14063-.29687.10547-.39453m2.82421 2.17578h.78516l.01953-.3164.0625-.28517.09766-.2539.14062-.21485.1797-.17578.22265-.1289.26562-.07813.3086-.02734.23828.01953.22265.0625.20704.10156.17578.14063.15234.17187.10938.20703.07421.23438.02344.26562-.01953.26954-.0664.22265-.10938.1914-.15625.17188-.19922.16406-.25.16407-.63281.39062-.53906.3125-.4375.3164-.34375.32423-.26563.33594-.1914.35156-.125.36719-.06641.39453-.02344.41796h4.21484v-.73828h-3.33203l.08203-.28515.11329-.23828.14843-.19922.1875-.17969.23047-.17188.27735-.17578.71875-.41796.41406-.20313.34765-.23047.27735-.2539.22265-.26563.16407-.27734.10937-.28516.0625-.28516.02344-.28125-.04297-.3828-.1211-.34767-.1875-.30859-.25-.26172-.30468-.21484-.34375-.15625-.38281-.09766-.40625-.03515-.4336.03125-.39844.10156-.35546.16406-.3047.23438-.25.30468-.18358.375-.1172.44532-.03906.51953"/><path fill="#ffffe0" fill-rule="evenodd" d="M350.6211 365.42969h22.17968v-10.19531H350.6211v10.1953"/><path fill-rule="evenodd" d="M354.1211 357.07031h.5078v6.29297h-.78515V358.875h-1.39063v-.55469l.5586-.0664.2539-.0547.23047-.08983.20313-.14063.17187-.21094.14454-.29297.10546-.39453m4.8125 0l.23047.01953.21875.0547.20703.08983.19532.1211.18359.14844.17188.17578.30468.41797.24219.49609.17969.54688.10937.57812.03906.58984-.03906.59375-.10937.58594-.17969.55078-.24219.5039-.30469.42579-.17187.17969-.1836.15625-.1953.1211-.20704.09374-.21875.05469-.23047.01953-.23046-.01953-.21875-.05469-.20704-.09375-.1953-.1211-.1836-.15624-.17188-.17969-.30469-.42578-.24218-.5039-.17969-.55079-.10938-.58594-.03906-.59375h.83203l.03125.5625.07813.50782.1289.4414.16016.375.1914.30078.21094.22266.22266.13672.22656.04687.22657-.04687.22265-.13672.21094-.22266.1914-.30078.16016-.375.1289-.4414.08204-.50782.02734-.5625-.02734-.5625-.08203-.5-.1289-.43359-.16016-.36719-.19141-.29297-.21094-.21093-.22265-.13282-.22657-.04687-.22656.04687-.22265.13282-.21094.21093-.1914.29297-.16017.36719-.1289.4336-.07813.5-.03125.5625h-.83203l.03906-.58985.10938-.57813.17969-.54687.24219-.4961.30468-.41796.17188-.17578.1836-.14844.1953-.1211.20704-.08984.21875-.05469.23046-.01953m5.08985 0h.51172v6.29297h-.78907V358.875h-1.38671v-.55469l.55859-.0664.2539-.0547.22657-.08983.20703-.14063.17187-.21094.14063-.29297.10547-.39453m6.80469 1.61719h-.78516l-.05078-.21094-.08203-.1875-.10938-.15625-.1289-.13281-.14844-.10156-.15625-.07422-.17188-.04688-.17187-.01562-.32813.04297-.28515.1211-.2461.1953-.20312.26563-.16016.33984-.11719.40235-.0703.46875-.02345.52734.1875-.20313.1875-.16015.1836-.1211.1875-.08984.1875-.0586.1914-.03906.40235-.02343.3086.03125.3203.08984.3125.15625.29688.21875.2539.28516.19922.35156.07422.19922.05078.21875.03125.23437.00391.25-.78906.04688-.02735-.25781-.07421-.25-.125-.23438-.16016-.21094-.1914-.17968-.22266-.13672-.23829-.08594-.2539-.03125-.25781.03125-.23829.08594-.21875.13672-.1953.17968-.16016.21094-.1211.23438-.07812.25-.02735.2578.02735.26173.07812.25.1211.23437.16015.21094.19531.17578.21875.13672.23829.08984.2578.03125.25392-.03125.23828-.08984.22265-.13672.1914-.17578.16017-.21094.125-.23437.07421-.25.02735-.26172.78906-.04688-.03125.3711-.09375.375-.15625.35547-.22266.32812-.28906.28516-.17187.11719-.1875.10156-.20704.08203-.22265.0625-.24219.03906-.25781.01172-.28516-.01563-.25781-.04687-.23828-.07422-.21875-.10547-.1914-.13281-.17579-.15625-.15234-.17969-.13672-.20312-.11719-.22266-.09765-.23828-.14844-.53516-.08594-.59375-.02344-.64062.03516-.7461.11719-.66015.18359-.57813.1211-.2578.13671-.23048.15235-.20703.17187-.17969.1875-.15625.19922-.1289.21875-.10156.23438-.07422.24609-.04297.26172-.01563.36719.03125.33203.09766.29687.15234.2539.19922.21094.23828.16797.27735.11329.30078.0625.32031"/><path fill="#ffffe0" fill-rule="evenodd" d="M208.59375 335.58203h22.17969v-10.1914h-22.17969v10.1914"/><path fill-rule="evenodd" d="M212.09375 327.22266h.50781v6.29687h-.78515v-4.49219h-1.39063v-.55468l.5586-.06641.2539-.05078.23047-.08985.20313-.14453.17187-.20703.14453-.29687.10547-.39453m4.8125 0l.23047.01953.21875.05469.20703.08984.19531.1211.1836.14843.17187.17578.30469.42188.24219.49218.17968.54688.10938.57812.03906.58985-.03906.59375-.10938.58594-.17968.55468-.2422.5-.30468.42969-.17187.17969-.1836.15234-.19531.125-.20703.08985-.21875.05859-.23047.01953-.23047-.01953-.21875-.0586-.20703-.08984-.19531-.125-.1836-.15234-.17187-.17969-.30469-.42969-.24219-.5-.17968-.55469-.10938-.58593-.03906-.59375h.83203l.03125.5664.07813.50391.1289.4414.16016.375.1914.30079.21094.22265.22266.13672.22656.04688.22656-.04688.22266-.13672.21094-.22265.1914-.30078.16016-.375.1289-.44141.08204-.5039.02734-.56641-.02734-.5586-.08203-.5-.12891-.4375-.16016-.36328-.1914-.29297-.21094-.21484-.22266-.13281-.22656-.04297-.22656.04297-.22266.13281-.21094.21484-.1914.29297-.16016.36328-.1289.4375-.07813.5-.03125.5586h-.83203l.03906-.58985.10938-.57812.17968-.54688.2422-.49218.30468-.42188.17187-.17578.1836-.14844.19531-.1211.20703-.08983.21875-.0547.23047-.01952m5.08984 0h.51172v6.29687h-.78906v-4.49219h-1.38672v-.55468l.5586-.06641.2539-.05078.22656-.08985.20703-.14453.17188-.20703.14063-.29687.10546-.39453m6.8047 1.62109h-.78517l-.05078-.21484-.08203-.1836-.10937-.16015-.1289-.13282-.14845-.10156-.15625-.07422-.17187-.04297-.17188-.01562-.32812.03906-.28516.1211-.2461.1953-.20312.26954-.16015.33594-.11719.40625-.07031.46484-.02344.52734.1875-.20312.1875-.16016.1836-.1211.1875-.08983.1875-.0586.1914-.03906.40234-.02344.3086.03125.32031.09375.3125.15625.29688.21875.2539.28516.19922.34765.07422.20313.05078.21484.03125.23438.0039.2539-.78906.04688-.02734-.26172-.07422-.25-.125-.23438-.16016-.21093-.1914-.17578-.22266-.13672-.23828-.08985-.2539-.03125-.25782.03125-.23828.08985-.21875.13672-.19531.17578-.16016.21094-.1211.23437-.07812.25-.02734.26172.02734.25781.07813.25.1211.23438.16015.21093.19531.17579.21875.13671.23828.08985.25781.03125.25391-.03125.23828-.08985.22266-.13671.1914-.17579.16016-.21093.125-.23438.07422-.25.02734-.25781.78907-.04688-.03125.3711-.09375.3711-.15625.35937-.22266.32812-.28906.28125-.17188.11719-.1875.10547-.20703.08203-.22266.0625-.24218.03515-.25781.01563-.28516-.01563-.25781-.04687-.23828-.07813-.21875-.10546-.19141-.12891-.17578-.15625-.15235-.1836-.13672-.19921-.11718-.22266-.09766-.24219-.14844-.53515-.08593-.59375-.02344-.64063.03516-.74219.11718-.66406.1836-.57812.12109-.2539.13672-.23048.15234-.20703.17188-.1836.1875-.15624.19922-.1289.21875-.10157.23437-.07422.2461-.04297.26171-.01562.3672.03515.33202.09375.29688.15235.2539.19921.21094.2422.16797.27343.11328.30078.0625.32422"/></g></defs><use xlink:href="#ai"/></svg>