<svg xmlns="http://www.w3.org/2000/svg" role="img" xmlns:xlink="http://www.w3.org/1999/xlink" viewBox="142.45 309.95 326.84 171.84"><defs><clipPath id="a"><path d="M144 311.67188h1v168.65625h-1zm0 0"/></clipPath><clipPath id="b"><path d="M144 311.67188h324v168.65625H144zm0 0"/></clipPath><clipPath id="c"><path d="M388 477h8v3.32813h-8zm0 0"/></clipPath><clipPath id="d"><path d="M415 478h12v2.32813h-12zm0 0"/></clipPath><clipPath id="e"><path d="M433 477h7v3.32813h-7zm0 0"/></clipPath><clipPath id="f"><path d="M467 459h1v21.32813h-1zm0 0"/></clipPath><clipPath id="g"><path d="M467 311.67188h1V457h-1zm0 0"/></clipPath><clipPath id="h"><path d="M144 479h4v1.32813h-4zm0 0"/></clipPath><clipPath id="i"><path d="M147 479h3v1.32813h-3zm0 0"/></clipPath><clipPath id="j"><path d="M153 478h8v2.32813h-8zm0 0"/></clipPath><clipPath id="k"><path d="M160 478h3v2.32813h-3zm0 0"/></clipPath><clipPath id="l"><path d="M167 478h8v2.32813h-8zm0 0"/></clipPath><clipPath id="m"><path d="M173 478h4v2.32813h-4zm0 0"/></clipPath><clipPath id="n"><path d="M180 478h8v2.32813h-8zm0 0"/></clipPath><clipPath id="o"><path d="M187 478h3v2.32813h-3zm0 0"/></clipPath><clipPath id="p"><path d="M193 479h8v1.32813h-8zm0 0"/></clipPath><clipPath id="q"><path d="M200 479h3v1.32813h-3zm0 0"/></clipPath><clipPath id="r"><path d="M206 479h9v1.32813h-9zm0 0"/></clipPath><clipPath id="s"><path d="M213 479h3v1.32813h-3zm0 0"/></clipPath><clipPath id="t"><path d="M220 479h8v1.32813h-8zm0 0"/></clipPath><clipPath id="u"><path d="M227 479h3v1.32813h-3zm0 0"/></clipPath><clipPath id="v"><path d="M233 479h8v1.32813h-8zm0 0"/></clipPath><clipPath id="w"><path d="M239 479h2v1.32813h-2zm0 0"/></clipPath><clipPath id="x"><path d="M246 479h9v1.32813h-9zm0 0"/></clipPath><clipPath id="y"><path d="M252 479h2v1.32813h-2zm0 0"/></clipPath><clipPath id="z"><path d="M260 478h8v2.32813h-8zm0 0"/></clipPath><clipPath id="A"><path d="M265 478h3v2.32813h-3zm0 0"/></clipPath><clipPath id="B"><path d="M274 477h6v3.32813h-6zm0 0"/></clipPath><clipPath id="C"><path d="M288 476h5v4.32813h-5zm0 0"/></clipPath><clipPath id="D"><path d="M301 477h6v3.32813h-6zm0 0"/></clipPath><clipPath id="E"><path d="M313 478h8v2.32813h-8zm0 0"/></clipPath><clipPath id="F"><path d="M319 479h2v1.32813h-2zm0 0"/></clipPath><clipPath id="G"><path d="M328 476h4v4.32813h-4zm0 0"/></clipPath><clipPath id="H"><path d="M342 476h3v4.32813h-3zm0 0"/></clipPath><clipPath id="I"><path d="M353 477h8v3.32813h-8zm0 0"/></clipPath><clipPath id="J"><path d="M368 477h5v3.32813h-5zm0 0"/></clipPath><clipPath id="K"><path d="M381 477h6v3.32813h-6zm0 0"/></clipPath><clipPath id="L"><path d="M393 478h8v2.32813h-8zm0 0"/></clipPath><clipPath id="M"><path d="M391 480h4v.32813h-4zm0 0"/></clipPath><clipPath id="N"><path d="M406 479h9v1.32813h-9zm0 0"/></clipPath><clipPath id="O"><path d="M406 479h3v1.32813h-3zm0 0"/></clipPath><clipPath id="P"><path d="M421 476h5v4.32813h-5zm0 0"/></clipPath><clipPath id="Q"><path d="M433 479h8v1.32813h-8zm0 0"/></clipPath><clipPath id="R"><path d="M440 479h3v1.32813h-3zm0 0"/></clipPath><clipPath id="S"><path d="M446 478h8v2.32813h-8zm0 0"/></clipPath><clipPath id="T"><path d="M453 478h3v2.32813h-3zm0 0"/></clipPath><clipPath id="U"><path d="M460 478h8v2.32813h-8zm0 0"/></clipPath><clipPath id="V"><path d="M466 478h2v2.32813h-2zm0 0"/></clipPath><clipPath id="W"><path d="M144 465h4v4h-4zm0 0"/></clipPath><clipPath id="X"><path d="M466 465h2v3h-2zm0 0"/></clipPath><clipPath id="Y"><path d="M144 453h4v1h-4zm0 0"/></clipPath><clipPath id="Z"><path d="M466 452h2v3h-2zm0 0"/></clipPath><clipPath id="aa"><path d="M144 439h4v2h-4zm0 0"/></clipPath><clipPath id="ab"><path d="M144 426h4v2h-4zm0 0"/></clipPath><clipPath id="ac"><path d="M465 424h3v2h-3zm0 0"/></clipPath><clipPath id="ad"><path d="M144 413h4v2h-4zm0 0"/></clipPath><clipPath id="ae"><path d="M466 411h2v2h-2zm0 0"/></clipPath><clipPath id="af"><path d="M465 411h3v3h-3zm0 0"/></clipPath><clipPath id="ag"><path d="M144 399h4v2h-4zm0 0"/></clipPath><clipPath id="ah"><path d="M466 398h2v2h-2zm0 0"/></clipPath><clipPath id="ai"><path d="M465 398h3v3h-3zm0 0"/></clipPath><clipPath id="aj"><path d="M144 386h4v2h-4zm0 0"/></clipPath><clipPath id="ak"><path d="M466 385h2v3h-2zm0 0"/></clipPath><clipPath id="al"><path d="M465 385h3v3h-3zm0 0"/></clipPath><clipPath id="am"><path d="M144 373h4v2h-4zm0 0"/></clipPath><clipPath id="an"><path d="M466 371h2v3h-2zm0 0"/></clipPath><clipPath id="ao"><path d="M144 359h4v3h-4zm0 0"/></clipPath><clipPath id="ap"><path d="M466 358h2v2h-2zm0 0"/></clipPath><clipPath id="aq"><path d="M144 346h4v2h-4zm0 0"/></clipPath><clipPath id="ar"><path d="M466 345h2v2h-2zm0 0"/></clipPath><clipPath id="as"><path d="M144 332h4v4h-4zm0 0"/></clipPath><clipPath id="at"><path d="M466 331h2v3h-2zm0 0"/></clipPath><clipPath id="au"><path d="M465 332h3v3h-3zm0 0"/></clipPath><clipPath id="av"><path d="M144 319h4v3h-4zm0 0"/></clipPath><clipPath id="aw"><path d="M465 317h3v3h-3zm0 0"/></clipPath><g id="ax" clip-path="url(#clip1)"><path fill="#fff" fill-opacity="0" fill-rule="evenodd" d="M0 0h1000v1000H0zm0 0"/><path fill="#d3d3d3" fill-opacity="0" fill-rule="evenodd" d="M162.15234 355.86719l-.23437.29297.0586.23437.11718.17188.17578.23437.29297.34766.11328.0586.11719-.17188.0586-.23438.17577-.17578.46485-.17578h.69922l.23437.29297.28906.8164.0586.17579.17578.23046.35156.23438.69922.69922.17188.17578.23437.34765.23438.41016.28906.58203.41015.46485.23047.23437.23438.17578.11719.23047.17578.29297.17187 1.16406v.23438l.0586.28906.05859.11719.11719.11719.34765.41015.11719.17188.17578.17578.17578.23437.11719.17188.17188.35156.05859.23438.23437.40625.23438-.0586-.17578.17578-.0586.92969h-.58203l-.23437-.11328-.34766.11328-.11719.11719-.05859.29297-.0586.17578-.11718.17187-.46484.29297-.0586.23438-.0586.11328v.64453l.0586.17187v.41016l.0586.0586v.40624l.05859.40625.11719.17579.05859.05859.23047.64062-.0586.29297v.69922l-.05859.58203v.23438l-.0586.23047-.05468.35156v1.92187l.05469.1172h.42578l-.36719.11718-.02344.35156.89063 1.16797 1.74219.53906 1.33984.35938v.53906l.08984.8086.53516.71484 1.51953.26953.89063-.08594.08984 1.16406.53516.1797 1.16015-.1797 2.05469-.98437 1.16016-.36328 1.8789-.17578 1.69531-.1797-.17968.71876-1.51563.08594-1.25.08984-.80469.26953-1.07421.8086.26953.71875.53515.89843-.17968.625-.26563.8086.26563 1.07812.625.89844.80468.17969 1.25-.1797-.26562.72267.09766.5039.05468.29297v.17188l.0586.29296v.40625l.17578.1172.35156.11718h.40625l.29297-.17578.11328-.11719.0586-.11719.11718-.23047.0586-.17578.35156-.46484.23047-.17578.17578-.0586.17578.0586.0586.17578.11718.98828.05469.46875.0586.17188.11718.23437.17578.0586.8164.05859h.28907l.11719.23437.05859.40625.0586.35156v1.10547l.11718.29297.11719.34766.28906.69922.17578.35156.58203.7539.35157.17579.17187.0586.46875.23437.64063.46484.34765.23438.29297.17578.29297.05468.23047.0625.8164.34766.29297.17578.11328.17188.35157.35156.11719.17578.52343.64063v.28906l.0586.35156v.34766l.05859.35156.0586.28906.11718.0586.17188.05859h.17578l.58203.23437.17578.1172.17578.28905.17578.23438.11328.23437.29297.23047.11719.11719v.41016l.0586.05468.28906.23438.23437.11719.0586.11718.11718.17188.0586.11719.23047.23437.05859.17578.23437.0586.1172.05859-.1172.11328-.05859.11719v.11719l-.11719.29296-.11719.28907v.58203l.17579.11719.11718.05859.0586.11719.11719.11719.11328.05859.17578.34765.0586.35157.05858.40625v.17578l-.05859.17578-.11719.69922v.17187l.1172.17579.29296.29296h.40625l.17578.1172.11719.17187.11719.29296v.23438h-.52735l-.23047-.23438h-.23437l-.17578.0586-.0586.69922.0586.34765.11719.17579.17578.41015.11718.23047.28907.46875.17578.05469h.52344l.23437.0586.75781.64062.0586.29296v.23438l.05859.0586.23047.34765v.35156l-.11719.17188v.29297l.29297.28906.29297.17578.17187.0586.29297.17577.29297.1172.58203.40624.28906.23438.29297.17578.21875.16015.01563.01172.23047.17579.64062.52343.17578.23438.1172.17578.17577.17578.11328.17188v.64062l.1172.17578.46874.11719.58203.11719.23438.05859.23047.11328.29297.11719.11328.0586.58593.35156.28907.17187.17578.0625.17578.05469.17578.0586.69922.35155.28906.17579.23438.05468.28906.17578.23437.1172.64063.40624.29297.11719.17187.0586.23438.05859.41015.05859.23047.0586.23438.11718.0586.17188-.41017.17578.46875.0586.0586.29296.11328.23438.17578.05468.23438.0586.17578.05859.40625.11719.64062.23437.11719.17188.0586.23437v.17578l-.0586.1172-.0586.40624.23438.23438.11719.05859.34766.11719.64062.23047.17578.11718.28906.1172.17578.17577.23438.46485.58203 1.10546.17578.17579.34766.17578.17578.11719.35156.11718 1.04688.52344.23437.0586.46485.11327.29297.0586.46484.17578.75781.58203.23438.23438.34765.46484.17578.17578.28907.23438.8164.69921.29297.17579.28906.28906.29297.17578.29297.28906.69531.64063.17578.17578.29297.23437.28907.23438.46875.28906.64062.58203.34766.23438.23437.29297.34766.34765.35156.46485.9336.99218.34765.40625.11719.17579.23437.05859.11328.11719.64454.17578.23047.11328.23437.0586.29297.17577.23047.1172.9336.69921.40624.40625.23438.17578.40625.17578.23437.11719.8164.34766.34766.23437.23438.11719.29297.28906.23047.11719.7578.35156.35157.17188.23047.05859.29297.11719.23437.0586.8711.17577h.8164l.46875.23047.17188.0586.875.69921.46484.1172.29297.05858.17578.0586.23047.0586.46875.05859.34766.05859.35156.0586.40625.05859h.29297l.17187.0586v.23046l.17578.17578h.29297l.34766.0586.35156.05859.69922.11719h.64063l.46484-.23438.29297-.17578.17187-.11719.41016-.17187.28906-.17578.9336-.46485.46875-.29297.52343-.29296.46485-.17188.46484-.17578 1.05078-.46485.28906-.11718.41016-.11719.28906-.11719.52735-.17578 1.51562-.69922.58203-.34765.28907-.0586.29297-.0586.34765-.11718.875-.23047.35156-.11719h.11329l.23437-.05859.875-.23437.23438-.0586h.8125l.35156-.0586.8164-.11718.17188-.0586.35156-.05468.29297-.0586.23047-.05859.8164-.17578.17579-.0586h.34765l.23438-.05859.46484-.11718.75781-.17188.23438-.0586h.34765l.41016-.11718.28906-.0586 1.28516-.05859h.28906l.41016-.0586.23047-.05858h.17578l.875-.1172h.40625l.41015-.11718h.34766l.35156-.11328.8711-.0586h1.75l1.04687.28907.41016.11719.28906.11718.35156.11719.28907.11719 1.05078.17187.28906.0586h.29297l.29297.05859.17187.0586.41016.05859.17187.0586.1172.05858h.11718l.11719.0586.35156.0586h.11328l.41016.0664 1.92187.39453 1.92578.39453 1.51953.44922 1.69532.71875 2.14453.80469 1.60547-.71875 1.42968-.80469 1.16016-1.07813 1.25-.44921 3.03516-.71875 1.875-.35938 2.14453-1.34765 2.23437-1.25391 2.5-1.25781 1.69531-.44922 1.78516-.17969 1.16016-.26953.625.53906 1.33984-.26953.71485-.98828.98437-1.34375.44531-.17969.80469-.35937 1.875-.53907 1.78516-.44921 1.25-.26954 1.16015-.08984 1.69922-.08984 1.96094-.26954 1.25-.08984h.53906l.625-.08984h.89063l2.14453-.17969 2.41015-.17969 2.58985-.08984 1.69531.17969 1.60938.08984 1.42968.35938 1.16016.71875 1.875.98828 1.16015 1.52734.26563.71484.6289.08985.35548.89844.53515.53906.53516 1.52734 1.07422.35938h.53515l-.80469.53515.08985 1.70703.71484 2.69532.89063.80468.89453.98829.71484 1.2578 1.78516.53907 1.51953-.17969.35547 1.34375 1.60937-.80469.98047-.53906.26953.26953.31641-.21484.21875-.14453.80078.44922.44922-.35938h.35547l.53515-.26953.53907-.71875.53515-.26953.625-.98828 1.16016.44922.83984.3711 1.39454.61718 1.6953-.17969h1.60548l1.78515.08985.17969-1.70704.53516-1.34375.80468.26954.4922.84765.40233.40625-.08984.53906v.35938l.71485.44922.71093-.26953h1.42969l.35938.98828.4453 1.25781.71485 1.34375 1.25.6289 1.69531.62891.71485-.17969.17969-.53906.98046-.08984.44922.35937.08594 1.25782-.26563.6289-.53515.17969v.53906l.71484.98438.26563.53906.98437.98828.80078 1.07813-.26562.35937-.08985.89844-.625 2.33203-.35546 2.0664-.08985 1.79298-.17969.71875-.08984.53906v1.4375l-.98047 1.88281-.35937 1.70703-.53516.89844-.80469 1.16797-.26562.53906 2.05469 1.2539.08593.35938-.35546.53906-.08985-.17968v.80859l.08985 1.4375-.44532.71484-1.07422.09375-.26562.71485.53515.89844.8047.71875 1.16015.80859 1.33984.26953.44531.35938-.35546.44921-1.78907-.08984-1.25-.44922-.71484-.71875-.625-.08984-.17578 3.58984-.1875 1.3086h89.35937V311.70313h-55.26953v49.08203l.76172.125 3.28906.54296 2.02344 2.83594v2.7539l2.35156.33204 2.34766.33203h4.05078l-1.3789 4.16016-2.02344.70703-2.02344.70312-.54297.34375-2.59375 1.6172-.1875.11718-2.02344-2.07813-.73046-2.74218-2.67188-2.07813-1.375-3.5-.0664-.08203-1.95704-2.67188 2.75-1.41796v-49.08204H294.42187v91.41407l.1172.03125.1328.01172.07422.07421.10547.04688.08985.0586.08593.05859.08985.0586.29687.29687.0586.08984.03125.11719.02734.11719.01563.13671-.03125.1172-.0586.08983-.0586.08594-.04296.10547-.04688.10156-.02734.1211v.14453l.17578.26953.14844.14844.07422.08594.07422.07421.04296.10547.0625.08985.0586.08593.04297.10547.0586.08985.04687.10156.04296.10547.0586.08594.11719.17968.07421.07422.0625.08594.0586.08984.04297.10547.0586.08985.05858.08593.0625.08985.0586.08984.04297.10156.11719.17969.07421.07422.0586.08594.07422.07421.08984.0586.10547.04687h.14844l.1328-.01562.13282.01562.10156-.04687.07422-.07422.04688-.10156-.01563-.13281v-.14844l-.04687-.10547-.02735-.11719-.04687-.10156-.02735-.1211-.04296-.10156-.0625-.08984-.04297-.10156-.04297-.10547-.03125-.11719-.01563-.13281-.01171-.13672.08593-.0586.0586-.08593.12109-.03125.04297.10547.01562.1328v.1172l.0586.10156.0586.08984.08983.0586.14844.14843.0586.08985.04296.10547-.01171.10156.08593.0586.10547.04687.08594.0586.08984.05858.07422.07422-.11719.02735-.10546.04687-.08594.0586-.07422.07421-.0586.08985-.0625.08594-.02734.12109-.04687.10156-.04297.10547-.03125.11719-.01172.13281-.01563.13281v.14844l.02735.11719.04687.10547.04297.10156.0586.08984.07421.07422.08985.0586.07422.07421.08984.0586.0586.08984.04296.10547.04688.10156.11719.03125.1328.01563h.14845l.11718-.03125.10547.04297.04297.10547.04688.10156.02734.1211L299.5 410l.02734.11719.03125.1211.02735.11718.10547.04297.10156.04687.13281-.01562.14844.14844.0625.08593.07422.07422.07031.07422.08984.0625.10547.04297.10156.04297.1172.03125.13671.01562.11719-.03125.07422-.07422.02734-.11718-.01172-.13282-.03125-.12109-.02734-.11719.04297-.10547h.11719l.08984.0625.11719.02735h.14843l.13282.01562h.14843l.13282.01563.1328-.01563h.14845l.1328-.01562.13282-.01172.13672.01172.11719-.02735.13281-.01562.1914-.0586-.05859.17579-.01562.1328-.02735.1211-.01562.13281-.0586.08594-.1328.01563-.10548.04687-.10546.04297-.1172.03125-.11718.02735-.26563.03125h-.14843l-.13281.01562-.07422.07422.05859.08594.14844.14843.11719.1797.07421.0703.08985.0625.08984.0586.08594.0586.08984.05858.10156.04297.10547.0625.10547.04297.08594.0586.10547.04687.10156.04297.17969.11719.0586.08984-.04298.10156-.04687.10547.01562.13281.22266.22266.0586.08985.04296.10156.03125.1211.04297.10155.01563.13282.03125.11718.01171.13672.03125.11719.14844.14844.10156.04297.10547.04296.1172.03125.1328.01563.13672.01563h.11719l.11719-.03125.08984-.0586.04297-.10547.04688-.10156.04296-.10547.03125-.11719.01172-.1328v-.14845l-.01172-.1328-.01562-.13282-.03125-.11719-.04297-.10547-.04688-.10547-.04296-.10156-.04297-.10547-.01563-.13281.01563-.13281.02734-.11719.03125-.11719.02735-.1211.04687-.10155.08984-.0586.08594-.0625.07422-.07422.08984-.05859.22266-.22266.0586-.08593.07421-.07422.11719-.17969.0586-.08594v-.14844l-.07423-.07421-.10156-.04688-.10547-.04297-.10156-.04297-.0586-.08984-.04687-.10547-.02734-.11719.08984-.05859.11719-.03125.10156-.04297.17969-.11719.14844-.14843.01172-.13282-.01172-.10546-.08985-.0586-.1328.01563h-.14845l-.1328.01562-.13282-.01562-.1211-.03125-.08593-.0586-.07422-.07422-.0586-.08984-.0625-.08594-.11718-.17969-.0586-.08593.03125-.1211.08594-.05859.1211-.03125.05859-.08594v-.1211l-.03125-.11718-.0586-.08984-.05859-.08594-.04687-.10547-.02735-.11719-.01562-.1328.0586-.08985.07421-.07422.08984-.0586.1172-.17968.07421-.07422.0586-.08594.14843-.14844.1211-.03125.1328-.01562.13282.01562.07422.07422.04297.10547.01562.13281-.03125.1172-.11719.03124-.1328.01172-.14844.14844-.04297.10547-.04688.10156-.02734.1211-.03125.11718v.14844l.03125.11719.04297.10546.05859.08985.07422.07031.07422.07422.11719.03125.12109.02734.11719-.02734.1328-.01563h.1172l.08984.0586.07422.07422.04687.10546.0586.08594.10156.04688.13281.01562.10547.04297.08594.0586-.01172.10546-.07422.07422-.17969.11719-.05859.08984-.08984.0586-.07032.07422-.07421.07421-.0625.08985-.02735.11719-.01562.1328.01562.13282-.01562.13281v.14844l.01562.13281.02735.1172.03125.12108.07421.07422.08985.0586.08594.0586.08984.05858.11719.03125v.08594l-.10157.04688-.08984.0586-.26563.03124-.11718.02735h-.14844l-.10547.04296-.10156.04688-.0586.08984-.0625.23438-.01171.13281-.03125.1211-.01563.1328v.29298l-.01172.1328.01172.13673.01563.1328.1328.01563.13282.01172.1211.03125.08593.0586.07422.07421.04688.10547.04296.10157.01563.1328v.44532l-.01563.13281v.44532l.03125.26562.02735.11719.01562.13281.03125.11719.08594.21094.03125.26562v.14844l-.03125.11719-.02734.11718-.03125.1211-.02735.11719-.03125.11718-.03125.1211-.01171.1328-.01563.13282.08984.0586.1172-.03125.10155.01562.04688.10547-.03125.26562v.44141l-.04297.10547-.04688.10547-.04296.10156-.04297.10547-.0586.08594-.03125.12109-.04296.11719-.03125.11719-.01563.1328.01563.13282.05859.08984.10547.04688.08594.0586.05859.08593-.01172.13672-.03125.11719-.04297.10156v.44531l-.01562.13281v.14844l-.03125.11719-.04297.10547-.02735.11719-.04687.10546-.04297.10157-.03125.12109-.02734.11719-.03125.13281-.03125.11719-.02735.11719-.04297.10546-.03125.1172-.03125.12108-.01171.13282-.01563.13281v.29688l.02734.11718v.14844l.04688.39844.02734.11719.0586.08984.12109.03125h.14844l.13281-.01563.0586.08985v.11719l-.0586.08984-.08984.0586-.10157.04296-.10546.04688-.08985.05859-.08594.0586-.13671.01562-.1172-.03125-.1328-.01563-.10157.04688-.0625.08594-.01172.13671-.01562.13282-.03125.11719-.02735.11718-.01562.13281-.03125.1211v.29687l.01563.13282.03125.11718v.14844l.01171.13281v.14844l-.02734.11719-.04688.10156-.02734.1211-.03125.11718-.0586.08985-.07421.07421-.10156.04297-.10547.04688-.11719.02734-.1211.03125-.10156-.04687.0586-.08594.10547-.04688.02734-.11718.03125-.11719.02734-.1211.03125-.11718v-.14844l.01563-.13281-.03125-.11719-.04297-.10547-.10547.01563-.07422.07422-.10156.04296-.08984.0625-.07422.07422-.04297.10157-.01563.1328-.03125.1172L304.25 426l-.03125.11719-.02734.11719-.03125.12109-.02735.11719-.03125.11718-.04297.10547-.08984.0586h-.08984l-.1172-.03125-.03124-.08594.01562-.13672-.03125-.11719v-.14844l-.01171-.1328v-.14844l-.0625-.23438-.02735-.1211-.04297-.10156-.04687-.10546-.0586-.08594-.05859-.08985-.04297-.10546-.0625-.08594-.14844-.14844-.0703-.07422-.10548-.04687-.10547-.04297-.10156-.04297-.29687-.29688-.08985-.07421-.08594-.0586-.10546-.04297-.08985-.0625-.08594-.0586-.10546-.04296-.08985-.0586-.08594-.0625-.07421-.0703-.10547-.04688-.08594-.0586-.10547-.04296-.08984-.0625-.10156-.04297-.10547-.04297-.08594-.0586-.10547-.04687-.10547-.04297-.10156-.04687-.08985-.0586-.10156-.04297-.10547-.04296-.08984-.0625-.11719-.02735-.13281-.01562-.13281.01562H299.75l-.13281.01563-.11719-.03125-.08984-.0586-.07422-.07422-.08985-.05859-.10156-.04688h-.14844l-.12109-.02734-.10156-.04297-.07422-.07422-.11719-.17968-.08984-.0586-.10156-.04297-.08985-.0625-.10547-.04296-.08984-.0586-.08594-.0586-.10547-.04687-.0586-.08594-.05858-.08984-.04297-.10547-.04688-.10156-.07422-.07422-.08594-.0586-.07421-.07421-.08985-.0586-.22265-.22265-.04297-.10547-.03125-.26563.10547-.04296h.14453l.10547.04296.07421.07422.08985.0586.08594.0586.10546.04687.08985.05859.14844.14844.0703.07422.14845.14843.0625.08594.07421.07422.08594.0586.07422.07421.08985.0625.08984.0586.08594.05859.26953.17578.10156.04688.10547.04296.10156.04297.04688-.07421.05859-.08594.07422-.07422.07031-.07422.10547.04297.07422.07422.0586.08984.04296.10156.04688.10547.04296.10547.1211.02735.11719-.02735.07421-.08984.04297-.10547.0586-.08985.07422-.07421.10546-.04297.1172-.02735.1328.01172.08985.0586.14844.14843.05859.08985.04297.10547.04687.10156.04297.10547.04297.10156.10547.04688.10547.04296.13281.01563.08594-.0586.0586-.08984.07421-.07422.10547-.04297.11719.02735.10547.04687.10156.04297.10547.04297.10156.04688.17969.11718v.11719l-.01563.13281.01563.13281.01562.13672.0586.08594.10156.04688.1211.02734.11718.03125h.14844l.11719-.03125.05859-.08984.17969-.1172.05859-.08983.07422-.07422.0586-.08594.11718-.17969.17969-.11719.11719.03125.08984.0586.04297.07422-.01563.1328v.1172l.08985.05859h.14843l.13282-.01563.1328-.01171.26563-.03125.10547-.04297.11719-.03125.1211-.02735.07421-.07421.07031-.07422.0625-.08985-.01562-.10547-.04688-.10156-.10156-.04297-.10547-.01562-.11718.02734-.26563.03125h-.14844l-.07421-.07422-.08985-.0586-.11719-.03124-.11718-.02735-.13282-.01562h-.14843l-.13282.01563h-.29687l-.10547-.04688-.14844-.14844-.04297-.10156-.05859-.08984.22266-.22266.08593-.0586.10547-.04296.11719-.03125.13281-.01563.13281.01563.13672.01562.10157.04297.1328-.01172.08985-.0625.10156-.04297.0625-.08984-.04687-.10156-.08984-.0586-.1172-.03125-.10155-.04296-.0586-.08985-.0625-.08984v-.11719l.01563-.13281.10547-.04688.07421-.07031v-.1211l-.08984-.05859-.03125-.11719.08985-.05859.07421-.07422.04297-.10547.0586-.08984.04687-.10156.01563-.13281v-.14844l-.04688-.10547-.04297-.10156-.08984-.0586-.13281-.01562-.10157-.04297-.13671-.01563-.1172-.03125h-.4453l-.13282-.01562-.13281-.01172-.13281-.01563-.11719-.03125h-.14844l-.13281-.01562-.13281-.01172-.26563-.03125-.1211-.04297-.08593-.0586-.07422-.07421v-.14844l.01172-.13281.10547-.04688.10156-.04296.13281-.01563h.15235l.13281-.01562h.29297l.1211.03125.10156.04296.08984.0586.23438.0625.12109-.04688.08984-.05859.10156-.04297.13282-.01562.10547.04296.10156.04688.13281.01172.1211-.02735h.14453l.12109-.03125.11719-.02734.10547-.04687.07421-.07422.08594-.0586.14844-.14843.0586-.08594.04687-.10547.02734-.11719.01563-.10547-.10156-.04296-.08985-.0586-.11719-.03125-.10546-.04297-.08985-.0625-.07422-.08594-.07422-.07421-.10156-.04297-.10547-.04688-.10156-.04297-.0586-.08984-.04687-.10156-.08594-.21094-.0625-.08594-.05859-.08984-.07422-.07422-.08594-.0586h-.26953l-.11719.03126-.08984.05859-.10156.04297-.13281.01562-.10547-.01562-.02735-.11719-.0625-.08984-.11718-.03125-.10157-.04297-.14843-.14844-.03125-.11719-.01563-.10546.07422-.07422.17969-.1172.11719-.02733.11718-.03125.13672.01562.10156.04297.10547.04297.10156.04687.10547.04297.1172.03125.1328.01563.1172.02734.1328.01563.10547-.01563.08985-.0586-.07422-.07421-.10547-.04297-.07422-.07422-.07422-.08984-.14844-.14844-.08593-.0586-.08985-.05859-.07422-.07422-.08984-.0586-.10156-.04687-.1211-.02734-.10156-.04688-.10547-.04296-.11719-.03125-.10156-.04297-.1211-.03125h-.14843l-.11719.03125-.10546.04297-.08594.0625-.17969.11718-.08594.0586-.08984.0586-.10547.04687-.08594.05859-.10547.04297-.10156.04297-.10547.04687-.07422.07422-.05859.08985-.0586.08593-.04687.10547-.0586.08594-.07421.07422-.13281-.01172-.1172-.03125h-.11718l-.07422.07422-.08984.0586-.07422.07421-.08984.0586-.08594.05859-.10547.04687-.10156.04297-.13672.01563-.10156-.04297-.14844-.14844-.10547-.04688h-.08594l-.10547.04688-.10156.04297-.1211.03125-.11718-.03125-.07422-.07422v-.11719l.03125-.1211.07422-.0703.0586-.08985.07421-.07422.11719-.03125.10547-.04296h.29297l.13281-.01563.13672-.01563.10156-.04296.08985-.0586.10156-.04687.08984-.0586.13281-.01171.08985.05859.13281.01172.08984-.0586.08594-.05859.10547-.04297.08984-.0586.08594-.0625.08985-.05859.14843-.14843.0586-.08594.05859-.08985.10547-.04296.13281-.01563.11719.02735.1211.03125.05859-.0586.05859-.08984.03125-.26563.02734-.11719.10547.01172.13281.01563.10157-.04297.08984-.0586.0586-.08984.07421-.07422.0586-.08984.04687-.10156.01172-.13281-.01172-.13282-.04687-.10547-.14844-.14843-.0586-.08985-.05859-.08594-.04297-.10546v-.44532l.01563-.1328v-.14845l.01172-.1328-.0586-.0586-.08984.0586-.10156-.04298-.17969-.11719-.08594-.05859-.0625-.08984-.0586-.08985-.07421-.07421-.08594-.0586-.1211.03125-.10155.01172-.10547.04688-.08594.05859-.10547.04297-.14844.14844-.08984.05859-.08594.0586-.08984.0625-.10547.04296-.13281.01563v-.1211l.10547-.04297.11718-.03125.07422-.0703.04297-.10548v-.14844l-.02734-.11718-.14844-.14844-.13281-.01563h-.14844l-.11719.03125-.10547.04297-.10156.04297-.08984.0625-.11719.02735-.07422-.07422.01172-.13281-.04297-.10157-.04297-.10547-.08984-.05859-.11719.02734-.1211.03125-.11718.03125-.10156.04297-.1211.03125-.10156.04297-.10547.04297-.08984.0586-.10156.01562v-.11719l.01562-.13281-.0586-.08985-.07421.04297-.14844.14844-.0586.08985-.07421.07421-.04688.10547-.04296.10156-.07422.07422-.0586.08985-.07422.07422-.05859.08593-.07422.07422-.08984.0625-.07422.07031-.07422.07422-.10156.01563-.13281.01562-.10547-.04296v-.1211l.14843-.14844.04297-.10156.0586-.08984.04687-.10156.04297-.10547.0586-.08985.03124-.11719.04297-.10156.03125-.1211.02735-.11718.04687-.10547.04297-.10156.04297-.10547.07422-.07031.08984-.0625.08985-.0586.10156-.04296h.29687l.26563-.03125.10547-.04297-.07422-.07422-.11719-.03125-.10547-.04297-.08984-.0586-.10156-.04687-.08985-.0586-.10156-.04296-.10547-.04297-.08984-.0625-.08594-.0586-.10547-.04296-.10156-.04297-.1211-.03125-.11718-.03125-.10157-.04297L297.5 410.25l-.10156-.04297-.08985-.0586-.04296-.10546-.01563-.13281.10156-.04297.13281-.01563.13672.01563.13282-.01563.10156-.04297.0586-.08984.01562-.10547-.08985-.0586-.07421-.07421-.10157-.04297-.08984-.0586-.14844-.14843-.04297-.10547-.01562-.13281v-.29297l-.0586-.08985-.08984-.05859-.07422-.07422-.04297-.10547-.03125-.11718-.0586-.08985-.07421-.07422-.11719-.02734-.07422-.07422-.08984-.0586-.08984-.0625-.08594-.05859-.07422-.07421-.0586-.08594-.04687-.10547-.08594-.0586-.14843-.14843-.19532-.0586-.1328.01563-.10157.04297-.07422.07422-.04688.10156-.04296.10547-.0586.08984-.0586.08594-.29687.29687-.08984.0586h-.08594l-.0625-.08594-.04297-.10547.03125-.11719.0586-.08984.02734-.11719-.01172-.13281-.08984-.0625-.10547.04688-.11719.02734-.11719.03125-.26953.17578-.10156.04688-.11719.02734-.10546.04687-.08985.0586-.10156.04297-.0586-.08594-.04687-.10547.01563-.13281.04687-.10547.07031-.07422.07422-.07031.0586-.08985v-.14843l-.04297-.10547h-.23829l-.10156.04687-.03125.11719-.02734.11719-.03125.1211-.07422.04296-.13281.01563-.07422-.04688-.04297-.10156-.04297-.10547-.04687-.10156-.04297-.10547-.1211.03125-.10156.04297-.13281.01562-.11719.03125-.10547.04297-.08984.0586-.10156.04687-.1211.02734-.13281.01563-.10156-.04297-.0586-.08985-.04687-.10546-.04297-.10157-.04297-.10546v-.1172l.0586-.08984.08593-.05859.17969-.11719.10156-.04687.10547-.04297.10547-.0586.10156-.04296.08985-.0625.10156-.04297.10547-.0586.10156-.04687.08984-.0586.10547-.04296.10156-.04297.08985-.0625.10156-.04297.13672-.01563.11719.03125.10156.04297.1211.03125.10156.04297.10546.04688.10157.04296.10547.04297.10156.04688.10547.04297.10156.04297.10547.04687.08594.0586.10546.04296.1172.03125.10546.04297.10156.04688.08985.0586.10547.04296.10156.04297.10547.04687.11719.02735.10156.04687.1211.02735h.14843l.08594-.0586.01562-.10156.0586-.08984-.02735-.1172-.07422-.07421-.11719-.17969-.07421-.07422-.08985-.07421-.17969-.1172-.08593-.05859-.10547-.04296-.10156-.04688-.26954-.17578-.05859-.08985-.07422-.07421-.0586-.08985-.04296-.10156-.03125-.11719-.01563-.13672v-.5625l-.01171-.1328-.01563-.13282-.03125-.11719-.01562-.13281-.01172-.13281-.03125-.1211-.22266-.22265-.0586-.08594-.01562-.10547.03125-.11719.13281-.01562v-91.41406H172.9922v1.45312l-.0586.23438-.35156 1.05078-.17187.52343-.1172.34766-.17577.41016-.11719.17187-.23438.29297-.23046.0586h-.35157l-.11718.05859-.23047.40625v.29297l.11719.17578.23046.23047.1172.23437.64062.75781.29297.46485.17578.23437.23047.35156.23437.34766.64063.8164.17578.46485.17187.41016.11719.69531.17578.46875.11719 1.39844.0586.46484v.875l.11718 1.04688v4.78125l-.0586.46484-.35156 1.28125-.17578.52344-.11328.41015-.35156.9297L172.93359 336l-.23437.58203-.11719.17578-.17187.34766-.17578.40625-.35157.8164-.0586.29297-.11327.29297-.11719.28906-.0586.17579-.11718.875-.0586.40625-.05859.11718-.0586.17579-.05859.17187-.23047.52734-.11718.17188v.23437l-.11719.23438-.0586.17187-.17577.58594v.28906l-.0586.17579v.29296l-.0586.11329-.05859.52734v.17187l-.05468.23438v2.6211l-.17578.8164-.1172.17578-.17577.23438-.1172.17187-.11327.23438-.58594.93359-.23047.28906-.29297.46485-.17578.23437-.28906.35156-.35156.69922-.11328.23047-.17579.41016-.17578.23046-.40625.52735-.8164.69922-.29297.17187-.28906.23438-.17579.11719-.17578.17578-.52344.40625-.52734.17578-.17187.17578-.23438.05469-.64062.17578h-.75782m12.21094 31.02344l-1.07422.44921.35938.89454 1.25-.71485.44531-.53906-.98047-.08985"/><path fill="#d3d3d3" fill-opacity="0" fill-rule="evenodd" d="M201.50781 416.59766h-.89453l.44922.6289.98047.35938.80469-.08985.4453-.98828-.17577.08985-.71485-.35547-.89453.35547m154.6211 59.0703l-.0586-.52343v-.29297l.11328-.29297.0586-.23046.46875-.46875h.11328l.11719-.11329.11718-.05859h.17579l.23437-.0586h.34766l.23437.0586.11719.0586.23047.17187.0586.17578.11718.58203v.29297l-.11719.17578-.17187.28906-.17579.17579-.52734.52343-.23047.23438-.11719.0586h-.17578l-.11718-.0586-.40625-.29297-.17579-.11719-.11718-.0586-.0586-.11327-.05468-.1172m6.64062-10.95702l-.0586-.17188v-1.10937l.0586-.17188.17578-.0586.17188-.05858h.17578l.23437-.0586.1172.0586.05858.69921-.05859.17188-.11719.17578-.11718.0586-.23438.52343-.11328.0586h-.23438l-.05859-.1172m9.61328-14.39062l-.11719-.17578v-.69922l.29297-.875.1172-.17187.17577-.35156.11328-.23047.1172-.29297.35155-.75781.1172-.23047.17187-.23438h.17578l.11719-.0586h.64062l.11719.0586.23437.23438.17188.11328.35156.29297.11719.11718.11328.17579v.11328l.11719.05859.11718.11719v.69922l-.05859.17578v.23047l-.0586.17578-.34765 1.05078-.11719.23047-.11719.23437-.11718.0586-.23047.23437-.64063.28906h-.875l-.41015-.11718-.64063-.46485"/><path fill="none" stroke="#bebebe" stroke-linecap="round" stroke-linejoin="round" stroke-miterlimit="10" stroke-width=".5" d="M467.95703 311.69531H144.02734v168.625h323.9297v-168.625"/><g clip-path="url(#a)"><path fill="#fff" fill-opacity="0" fill-rule="evenodd" d="M144 475.89063v4.4375h.0039H144V311.67188h.0039H144v164.21875"/></g><g clip-path="url(#b)"><path fill="#fff" fill-opacity="0" fill-rule="evenodd" d="M144.0039 480.32813V311.67188h17.75v139.85937l-1.59765 2.16797-.83594 4.4375 2.4336 2.80078 4.4375-2.13281 4.4375.01172 4.4375.3164 1.91015-.9961-1.91015-1.53515-4.4375.38281-4.4375.21094-2.46485-3.4961-1.97265-2.16796V311.67187h93.20312v138.5547l-3.71484 3.47265 3.71484 3.60156 3.66016-3.60156-3.66016-3.47266V311.67187h119.83594v135.83985l-4.33594 1.75-.10156.10547-2.3086 4.33203 2.3086 1.41797 2.00781-1.41797 2.42969-2.34375 2.05469-2.09375-2.0547-1.75V311.67187h8.87892V449.0547l-.3086.20703.3086.33984v4.76953l-3.66797 3.76563.10156 4.4375 3.5664 4.00781.4922.4336 3.9453 3.49218 4.10938-3.49219.15234-4.4414-.28125-4.4375-3.98046-3.6914-4.4375-.07423v-4.76953l.3164-.33984-.3164-.20703V311.67188h84.32421v144.72265l-1.14843 1.74219 1.14843 1.70703v20.48438h-28.375l-2.6914-2.4922-3.33594 2.4922h-7.27734l-2.69922-1.83204-4.4375-.42578-3.76563 2.25781H395.4297l-2.88281-2.98046-4.02344 2.98046H144.0039"/></g><path fill="#50fcfc" fill-rule="evenodd" d="M161.7539 460.9375l-2.43359-2.80078.83594-4.4375 1.59766-2.16797 1.97265 2.16797 2.46485 3.4961 4.4375-.21094 4.4375-.38282 1.91015 1.53516-1.91015.9961-4.4375-.31641-4.4375-.01172-4.4375 2.13281m93.20312-3.63672l-3.71484-3.60156 3.71484-3.47266v1.49219l-2.11719 1.98047 2.1172 2.05469 2.08593-2.0547-2.08594-1.98046v-1.49219l3.66016 3.47266-3.66016 3.60156"/><path fill="#00e8fc" fill-rule="evenodd" d="M254.95703 455.7539l-2.11719-2.05468 2.1172-1.98047 2.08593 1.98047-2.08594 2.05469"/><path fill="#50fcfc" fill-rule="evenodd" d="M370.35547 455.11719l-2.3086-1.41797 2.3086-4.33203.10156-.10547 4.33594-1.75 2.05469 1.75-2.0547 2.09375-2.42968 2.34375-2.00781 1.41797m9.75 7.45703l-.10156-4.4375 3.66796-3.76563v2.01954l-1.70312 1.74609.19531 4.4375 1.50781 1.69531 3.125 2.7461 1.3125 1.16015 1.3672-1.16015 1.4375-4.44141-2.4297-4.4375-.375-.34766-4.4375-1.39844v-2.01953l4.4375.07422 3.98047 3.6914.28125 4.4375-.15234 4.44142-4.10938 3.49218-3.9453-3.49219-.4922-.43359-3.5664-4.00781"/><path fill="#00e8fc" fill-rule="evenodd" d="M382.16406 462.57422l-.19531-4.4375 1.70313-1.7461 4.4375 1.39844v4.16016l-.95704.625.95704.80078.375-.80078-.375-.625v-4.16016l.375.34766 2.42968 4.4375-1.4375 4.4414-1.36719 1.16016-1.3125-1.16015-3.125-2.7461-1.5078-1.69531"/><path fill="#50fcfc" fill-rule="evenodd" d="M383.67188 449.60156l-.3086-.33984.3086-.20703.3164.20703-.3164.33984"/><path fill="#00d4fc" fill-rule="evenodd" d="M388.10938 463.375l-.95704-.80078.95704-.625.375.625-.375.80078"/><g clip-path="url(#c)"><path fill="#50fcfc" fill-rule="evenodd" d="M388.52344 480.32813l4.02344-2.98047 2.8828 2.98046h-6.90624"/></g><g clip-path="url(#d)"><path fill="#50fcfc" fill-rule="evenodd" d="M415.41406 480.32813l3.76563-2.25782 4.4375.42578 2.69922 1.83204h-10.90235"/></g><g clip-path="url(#e)"><path fill="#50fcfc" fill-rule="evenodd" d="M433.59375 480.32813h6.02734l-2.6914-2.4922-3.33594 2.4922"/></g><path fill="#50fcfc" fill-rule="evenodd" d="M467.9961 459.84375l-1.14844-1.70703 1.14843-1.74219v3.44922"/><g clip-path="url(#f)"><path fill="#fff" fill-opacity="0" fill-rule="evenodd" d="M467.9961 480.32813H468v-20.48047 20.48046h-.0039"/></g><path fill="#50fcfc" fill-rule="evenodd" d="M467.9961 456.39453v3.44922l.0039.0039v-3.45702l-.0039.0039"/><g clip-path="url(#g)"><path fill="#fff" fill-opacity="0" fill-rule="evenodd" d="M467.9961 311.67188H468v144.71875-144.71875h-.0039"/></g><g clip-path="url(#h)"><path fill="none" stroke="#000" stroke-linecap="round" stroke-linejoin="round" stroke-miterlimit="10" stroke-width=".5" d="M147.36719 479.32031l-6.73438 2.01563"/></g><g clip-path="url(#i)"><path fill="none" stroke="#000" stroke-linecap="round" stroke-linejoin="round" stroke-miterlimit="10" stroke-width=".5" d="M147.36719 479.32031l1.72265 1.7461"/></g><g clip-path="url(#j)"><path fill="none" stroke="#000" stroke-linecap="round" stroke-linejoin="round" stroke-miterlimit="10" stroke-width=".5" d="M160.59766 479.08203l-6.56641 2.4961"/></g><g clip-path="url(#k)"><path fill="none" stroke="#000" stroke-linecap="round" stroke-linejoin="round" stroke-miterlimit="10" stroke-width=".5" d="M160.59766 479.08203l1.84765 1.61328"/></g><g clip-path="url(#l)"><path fill="none" stroke="#000" stroke-linecap="round" stroke-linejoin="round" stroke-miterlimit="10" stroke-width=".5" d="M173.91797 479.08984l-6.57813 2.47657"/></g><g clip-path="url(#m)"><path fill="none" stroke="#000" stroke-linecap="round" stroke-linejoin="round" stroke-miterlimit="10" stroke-width=".5" d="M173.91797 479.08984l1.83984 1.625"/></g><g clip-path="url(#n)"><path fill="none" stroke="#000" stroke-linecap="round" stroke-linejoin="round" stroke-miterlimit="10" stroke-width=".5" d="M187.25 479.14063l-6.61328 2.375"/></g><g clip-path="url(#o)"><path fill="none" stroke="#000" stroke-linecap="round" stroke-linejoin="round" stroke-miterlimit="10" stroke-width=".5" d="M187.25 479.14063l1.82031 1.64843"/></g><g clip-path="url(#p)"><path fill="none" stroke="#000" stroke-linecap="round" stroke-linejoin="round" stroke-miterlimit="10" stroke-width=".5" d="M200.6211 479.3086l-6.72266 2.04296"/></g><g clip-path="url(#q)"><path fill="none" stroke="#000" stroke-linecap="round" stroke-linejoin="round" stroke-miterlimit="10" stroke-width=".5" d="M200.6211 479.3086l1.73437 1.73827"/></g><g clip-path="url(#r)"><path fill="none" stroke="#000" stroke-linecap="round" stroke-linejoin="round" stroke-miterlimit="10" stroke-width=".5" d="M213.92578 479.27344l-6.70312 2.10937"/></g><g clip-path="url(#s)"><path fill="none" stroke="#000" stroke-linecap="round" stroke-linejoin="round" stroke-miterlimit="10" stroke-width=".5" d="M213.92578 479.27344l1.75 1.72265"/></g><g clip-path="url(#t)"><path fill="none" stroke="#000" stroke-linecap="round" stroke-linejoin="round" stroke-miterlimit="10" stroke-width=".5" d="M227.33203 479.6289l-6.88672 1.39844"/></g><g clip-path="url(#u)"><path fill="none" stroke="#000" stroke-linecap="round" stroke-linejoin="round" stroke-miterlimit="10" stroke-width=".5" d="M227.33203 479.6289l1.5625 1.89454"/></g><g clip-path="url(#v)"><path fill="none" stroke="#000" stroke-linecap="round" stroke-linejoin="round" stroke-miterlimit="10" stroke-width=".5" d="M240.6914 479.88672l-6.97265.88672"/></g><g clip-path="url(#w)"><path fill="none" stroke="#000" stroke-linecap="round" stroke-linejoin="round" stroke-miterlimit="10" stroke-width=".5" d="M239.67578 480.01563l.70703 1"/></g><g clip-path="url(#x)"><path fill="none" stroke="#000" stroke-linecap="round" stroke-linejoin="round" stroke-miterlimit="10" stroke-width=".5" d="M253.96094 479.625l-6.88281 1.40625"/></g><g clip-path="url(#y)"><path fill="none" stroke="#000" stroke-linecap="round" stroke-linejoin="round" stroke-miterlimit="10" stroke-width=".5" d="M252.96094 479.82813l.78125.9453"/></g><g clip-path="url(#z)"><path fill="none" stroke="#000" stroke-linecap="round" stroke-linejoin="round" stroke-miterlimit="10" stroke-width=".5" d="M266.94531 478.6914l-6.21875 3.27344"/></g><g clip-path="url(#A)"><path fill="none" stroke="#000" stroke-linecap="round" stroke-linejoin="round" stroke-miterlimit="10" stroke-width=".5" d="M266.03906 479.16797l1.01563.6914"/></g><g clip-path="url(#B)"><path fill="none" stroke="#000" stroke-linecap="round" stroke-linejoin="round" stroke-miterlimit="10" stroke-width=".5" d="M279.34375 477.58203l-4.38672 5.49219"/></g><path fill="none" stroke="#000" stroke-linecap="round" stroke-linejoin="round" stroke-miterlimit="10" stroke-width=".5" d="M278.70703 478.38281l1.20313.22656"/><g clip-path="url(#C)"><path fill="none" stroke="#000" stroke-linecap="round" stroke-linejoin="round" stroke-miterlimit="10" stroke-width=".5" d="M291.92188 477.13281l-2.91016 6.39453"/></g><path fill="none" stroke="#000" stroke-linecap="round" stroke-linejoin="round" stroke-miterlimit="10" stroke-width=".5" d="M291.4961 478.0625l1.22656-.07813"/><g clip-path="url(#D)"><path fill="none" stroke="#000" stroke-linecap="round" stroke-linejoin="round" stroke-miterlimit="10" stroke-width=".5" d="M305.84766 477.48828l-4.13282 5.6836"/></g><path fill="none" stroke="#000" stroke-linecap="round" stroke-linejoin="round" stroke-miterlimit="10" stroke-width=".5" d="M305.2461 478.3125l1.21484.17188"/><g clip-path="url(#E)"><path fill="none" stroke="#000" stroke-linecap="round" stroke-linejoin="round" stroke-miterlimit="10" stroke-width=".5" d="M320.4375 479.2461l-6.6836 2.16796"/></g><g clip-path="url(#F)"><path fill="none" stroke="#000" stroke-linecap="round" stroke-linejoin="round" stroke-miterlimit="10" stroke-width=".5" d="M319.46484 479.5586l.88282.85546"/></g><g clip-path="url(#G)"><path fill="none" stroke="#000" stroke-linecap="round" stroke-linejoin="round" stroke-miterlimit="10" stroke-width=".5" d="M331.74219 483.58203l-2.66016-6.5039"/></g><g clip-path="url(#H)"><path fill="none" stroke="#000" stroke-linecap="round" stroke-linejoin="round" stroke-miterlimit="10" stroke-width=".5" d="M343.14844 483.79297l1.15234-6.92969"/></g><g clip-path="url(#I)"><path fill="none" stroke="#000" stroke-linecap="round" stroke-linejoin="round" stroke-miterlimit="10" stroke-width=".5" d="M354.22266 482.42578l5.63671-4.19531"/></g><g clip-path="url(#J)"><path fill="none" stroke="#000" stroke-linecap="round" stroke-linejoin="round" stroke-miterlimit="10" stroke-width=".5" d="M368.5039 483.3125l3.70704-5.96875"/></g><g clip-path="url(#K)"><path fill="none" stroke="#000" stroke-linecap="round" stroke-linejoin="round" stroke-miterlimit="10" stroke-width=".5" d="M381.33594 482.95313l4.67187-5.25"/></g><g clip-path="url(#L)"><path fill="none" stroke="#000" stroke-linecap="round" stroke-linejoin="round" stroke-miterlimit="10" stroke-width=".5" d="M394.0586 482.27344l5.85546-3.89063"/></g><g clip-path="url(#M)"><path fill="none" stroke="#000" stroke-linecap="round" stroke-linejoin="round" stroke-miterlimit="10" stroke-width=".5" d="M394.0586 482.27344l-2.15626-1.16406"/></g><g clip-path="url(#N)"><path fill="none" stroke="#000" stroke-linecap="round" stroke-linejoin="round" stroke-miterlimit="10" stroke-width=".5" d="M406.8164 480.76953l6.97266-.8789"/></g><g clip-path="url(#O)"><path fill="none" stroke="#000" stroke-linecap="round" stroke-linejoin="round" stroke-miterlimit="10" stroke-width=".5" d="M407.82813 480.64063l-.70704-1.00391"/></g><g clip-path="url(#P)"><path fill="none" stroke="#000" stroke-linecap="round" stroke-linejoin="round" stroke-miterlimit="10" stroke-width=".5" d="M422.1836 483.53516l2.86718-6.41407"/></g><g clip-path="url(#Q)"><path fill="none" stroke="#000" stroke-linecap="round" stroke-linejoin="round" stroke-miterlimit="10" stroke-width=".5" d="M440.33984 479.48047l-6.8164 1.69531"/></g><g clip-path="url(#R)"><path fill="none" stroke="#000" stroke-linecap="round" stroke-linejoin="round" stroke-miterlimit="10" stroke-width=".5" d="M440.33984 479.48047l1.64063 1.82422"/></g><g clip-path="url(#S)"><path fill="none" stroke="#000" stroke-linecap="round" stroke-linejoin="round" stroke-miterlimit="10" stroke-width=".5" d="M453.35938 478.69922l-6.22657 3.25781"/></g><g clip-path="url(#T)"><path fill="none" stroke="#000" stroke-linecap="round" stroke-linejoin="round" stroke-miterlimit="10" stroke-width=".5" d="M453.35938 478.69922l2.02734 1.38672"/></g><g clip-path="url(#U)"><path fill="none" stroke="#000" stroke-linecap="round" stroke-linejoin="round" stroke-miterlimit="10" stroke-width=".5" d="M466.78125 478.91797l-6.4375 2.82031"/></g><g clip-path="url(#V)"><path fill="none" stroke="#000" stroke-linecap="round" stroke-linejoin="round" stroke-miterlimit="10" stroke-width=".5" d="M466.78125 478.91797l1.92188 1.52344"/></g><g clip-path="url(#W)"><path fill="none" stroke="#000" stroke-linecap="round" stroke-linejoin="round" stroke-miterlimit="10" stroke-width=".5" d="M147.29688 465.79688l-6.59375 2.43359"/></g><path fill="none" stroke="#000" stroke-linecap="round" stroke-linejoin="round" stroke-miterlimit="10" stroke-width=".5" d="M147.29688 465.79688l1.83203 1.6328m11.5039-1.5703l-6.63672 2.30859m6.63672-2.3086l1.80078 1.66407m11.36328-2.03125l-6.33203 3.04297m6.33203-3.04297l1.97657 1.44922m11.46484-1.15625l-6.58594 2.45703m6.58594-2.45703l1.83594 1.6289m11.5586-1.39062l-6.7422 1.98047m6.7422-1.98047l1.71484 1.7539m11.40234-2.26562l-6.35156 3.0039m6.35156-3.0039l1.96875 1.46484m11.22656-1.69531l-6.10937 3.46484m6.10937-3.46484l2.07031 1.3125m11.36329-1.08594l-6.34766 3.01172m6.34766-3.01172l1.96875 1.46485m10.8164-2.27344l-5.28906 4.6289m5.28906-4.6289l2.29297.875m10.14844-1.59375l-3.53906 6.0664m3.53906-6.0664l2.45312.09766m10.69141-.19141l-3.19922 6.2539m2.73438-5.34374l1.22656-.01954m11.77344-1.17968l-1.63672 6.83203m1.39844-5.83985l1.1875-.30859m12.3203-.69531l-1.55077 6.85547m1.32812-5.85547l1.1836-.32422m11.98046-.73828l-.80078 6.98047m.6836-5.96485l1.14453-.44922m11.39062-.55468l.9961 6.95703m9.30468-3.35938l7.02344-.23828m6.8789 2.0664l5.84766-3.89452m9.14063 5.23047l2.5-6.56641m9.70703 5.88672l4.71484-5.20703M382 468.85938l-1.1914-.29688m12.66406-1.46484l7.02734-.16797m-6.0039.14453l-.60157-1.07031m13.09375 2.18359l6.625-2.34766m-5.66015 2.00391l-.90625-.82812m19.82812 1.3125l-6.51953-2.62891m19.54687-.5586l-5.9414 3.7461m5.07812-3.20313l1.0664.60938m13.57423-.02344l-6.86719 1.48828m6.86719-1.48828l1.58594 1.8711m11.62109-2.26563l-6.64844 2.27734"/><g clip-path="url(#X)"><path fill="none" stroke="#000" stroke-linecap="round" stroke-linejoin="round" stroke-miterlimit="10" stroke-width=".5" d="M466.88672 465.875l1.78906 1.67969"/></g><g clip-path="url(#Y)"><path fill="none" stroke="#000" stroke-linecap="round" stroke-linejoin="round" stroke-miterlimit="10" stroke-width=".5" d="M147.51172 453.67578l-7.02344.04297"/></g><path fill="none" stroke="#000" stroke-linecap="round" stroke-linejoin="round" stroke-miterlimit="10" stroke-width=".5" d="M147.51172 453.67578l1.16797 2.16016m12.14844-2.16016l-7.02735.04688m7.02734-.04688l1.16797 2.16016m12.08203-1.46094l-6.89453-1.35156m6.89453 1.35156l.71485 2.34766m12.66016-2.86328l-7.01954-.32422m7.01953.32422l1.05079 2.21875m12.17968-3.1797l-6.84375 1.59766m6.84375-1.59765l1.61328 1.85156m11.48829-2.48047l-6.41797 2.85938m5.48437-2.44141l.96485.7539m12.9414-1.77343l-5.73437 4.0625m5.73437-4.0625l2.1914 1.10156m11.0625-1.1875l-5.61327 4.23047m5.61328-4.23047l2.22266 1.03906m10.55078-1.60547l-4.53125 5.3672m4.53125-5.3672l2.39843.51563m10.5586-.78516l-3.8125 5.90235m3.8125-5.90235l2.44531.21094m-3 .64844l1.22266.10547m12.80859-.85157l-4.13672 5.6797m4.13672-5.6797l2.42969.34375m11-.2578l-4.36719 5.5078m4.36719-5.5078l2.41406.4414m10.99219-.36719l-4.54688 5.35938m3.88281-4.57813l1.19922.26172m12.2461 4.6875l-3.48047-6.10547m15.05469 6.5664v-7.02734m16.39062 1.8125l-6.14844 3.40235m13.4297-3.59375L360 455.59375m6.88672-1.35156l6.9414-1.08594m-5.93359.92969l-.73437-.98047m12.99609.625l7.02734-.0625m-6.0039.05078l-.58594-1.07813m13.07031-.08984l6.64453 2.29297m-5.67578-1.95703l-.1914-1.21094m13.46093-.54297l4.79688 5.13281m-4.09766-4.38671L409 450.71875m16.3789 6.01953l-3.52734-6.07812m3.01563 5.1914l-.64844 1.04297m16.01953-4.3789l-6.61328 2.36718m6.61328-2.36719l1.8164 1.64844m11.66798-.98047l-6.95313 1.03125m5.9414-.8828l.72657.98827m13.375-1.95312l-6.5039 2.66406"/><g clip-path="url(#Z)"><path fill="none" stroke="#000" stroke-linecap="round" stroke-linejoin="round" stroke-miterlimit="10" stroke-width=".5" d="M466.8125 452.36719l1.88672 1.57031"/></g><g clip-path="url(#aa)"><path fill="none" stroke="#000" stroke-linecap="round" stroke-linejoin="round" stroke-miterlimit="10" stroke-width=".5" d="M147.4961 440.73047l-6.9922-.69531"/></g><path fill="none" stroke="#000" stroke-linecap="round" stroke-linejoin="round" stroke-miterlimit="10" stroke-width=".5" d="M147.4961 440.73047L148.42968 443m-1.94922-2.3711l.46484 1.13673m13.82031-.71875l-6.90234-1.32813m6.90234 1.32813l.72266 2.34765m-1.72656-2.53906l.35937 1.17187m14.01172-1.35937l-7.0039-.57031m7.0039.5703l.97266 2.25392m-1.99219-2.33594l.48438 1.125m13.85937-1.41406l-7.02344.17578m7.02344-.17578l1.20703 2.13671m-2.22656-2.11328l.60156 1.07031m13.69922-1.5039l-6.95703.99219m6.95703-.9922l1.44531 1.98048m-2.45703-1.83594l1.44531 1.98047m12.73829-2.73828l-6.66797 2.22265m6.66797-2.22265l1.77734 1.6914m-2.75-1.36718l.89063.84375m13.38671-1.19141l-6.64843 2.26953m6.64843-2.26953l1.78907 1.67578m10.28515-3.3711l-4.16797 5.65626m3.5625-4.83203l1.21485.17968m13.29297-.46093l-5.33985 4.5703m5.33985-4.5703l2.28125.89843m11.29297-.54687l-5.86329 3.8711m5.86328-3.8711l2.15625 1.17187m-3.0078-.60937l1.07812.58594m12.91015-1.39844l-5.5039 4.36719m5.5039-4.3672l2.25.98438m10.98438-1.08203l-5.34375 4.5625m5.34375-4.5625l2.28515.89844m10.8047-1.13672l-4.89063 5.04297m4.89062-5.04297l2.35938.67969m11.3711-.19922l-5.72267 4.08203m5.72266-4.08203l2.19531 1.09375m11.23438-.92578l-5.94922 3.74219m5.94922-3.7422l2.125 1.22266m11.3164-1.0039l-6.20312 3.30469m6.20312-3.3047l2.03516 1.3711m10.96484-1.85937l-5.57421 4.28125m5.57421-4.28125l2.23047 1.01562m9.5625-2.15234l-2.52734 6.5586m2.52734-6.5586l2.4336-.29688m7.30468.9297l4.625 5.28905m-4.625-5.28906l.8711-2.29297m11.92578 2.85547l5.66016 4.16406m-5.66016-4.16406l.35547-2.42578m16.8125 1.14844l-2.04688 6.72265m2.04688-6.72265l2.40625-.47266m12.41406 1.39063l-5.05469 4.8828m5.0547-4.8828l2.33202.7578m-3.0664-.04687l2.33203.75782m11.85547-1.3125l-5.33204 4.57421m5.33204-4.57421l2.28515.89453m10.15625-1.6289l-3.58594 6.04296m3.58594-6.04297l2.44922.11328m-2.97266.76563l1.22657.05468m12.5039-.99609l-3.36718 6.16797m3.36718-6.16797l2.45313.02734"/><g clip-path="url(#ab)"><path fill="none" stroke="#000" stroke-linecap="round" stroke-linejoin="round" stroke-miterlimit="10" stroke-width=".5" d="M147.50781 427.28516l-7.01562-.4336"/></g><path fill="none" stroke="#000" stroke-linecap="round" stroke-linejoin="round" stroke-miterlimit="10" stroke-width=".5" d="M147.50781 427.28516l1.01563 2.23437m-2.03516-2.29687l.50781 1.11718m13.80078-.79687l-6.96484-.94922m6.96484.94922l.84766 2.30078m-1.85937-2.4375l.42187 1.14844m13.91016-1.0586l-6.97266-.85547m6.97266.85547l.8789 2.29297m-1.89453-2.41797l.4414 1.14844m13.90626-1.69531l-7.00781.48828m7.0078-.48828l1.30079 2.07812m-2.32031-2.0078l1.30078 2.08202m13.0039-2.4414l-6.9453 1.0664m6.9453-1.0664l1.46875 1.96484m-2.48046-1.8125l1.46875 1.96875m12.83593-2.23828l-6.90625 1.30469m6.90625-1.3047l1.53516 1.91407m-2.53906-1.72656l1.53515 1.91406m12.78907-2.07812l-6.91407 1.2539m6.91407-1.2539l1.51953 1.92968m-2.52735-1.74609l.76172.96484m13.3086-1.96484l-6.40625 2.88672m6.40625-2.88672l1.9375 1.5039m-2.8711-1.08203l.96875.75M253.5 425.20703l-5.95703 3.72266m5.95703-3.72266l2.125 1.22656m10.97266-1.53515l-5.52344 4.33984m5.52344-4.33984l2.24609.99218m-3.05078-.35937l1.125.4961m12.6914-1.46876l-4.91796 5.01953m4.91797-5.01953l2.35546.69141m-3.0703.03906l1.17577.34766m13.76563.4336l-6.73828 1.99609m6.73828-1.9961l1.71875 1.75m11.28125-2.48437l-6.11328 3.46484m6.11328-3.46484l2.07031 1.3164m10.97656-1.72265l-5.57422 4.27734m5.57422-4.27734l2.23438 1.01562m-3.04688-.39453l1.11719.50781m13.33594-.62109l-6.22266 3.26172m6.22266-3.26172l2.02734 1.38281m-2.9336-.91015l1.01173.6953m13.48437-.46484l-6.77734 1.85547m6.77734-1.85547l1.6836 1.78516m11.1289-2.85937l-5.76953 4.0078m5.76953-4.0078l2.1836 1.12109m9.73437-2.30078l-2.97656 6.36328m2.97656-6.36328l2.44922-.1289m9.22265-.19923l.3125 7.01953m-.26953-6l1.0586-.62109m15.0586.85156l-5.37892 4.51953m5.37891-4.51953l2.27734.91797m-3.05859-.26172l2.27344.92188m-3.0586-.26172l2.27735.91797m12.02734-2.78125l-4.22265 5.61719m4.22265-5.6172l2.42188.37891m-3.03907.4375l2.42579.37891m-3.03907.4375l1.21094.1914m12.83203-2.14062l-3.21875 6.2461m3.21875-6.2461l2.45313-.03125m-2.92188.9414l2.45313-.03515m-2.92188.9414l2.45313-.03124m-2.92188.9414l1.22656-.01562m14.00391-2.39063l-4.23828 5.60547m4.23828-5.60547l2.42188.38672m-3.03907.4297l2.42188.38671m-3.03906.42969l1.21093.1914m13.23047-1.90234l-4.02344 5.76172m4.02344-5.76172l2.4375.29687m-3.02344.54297l2.4375.29297m-3.02343.54297l1.21875.14844m13.64062-1.52344l-4.76953 5.16016"/><g clip-path="url(#ac)"><path fill="none" stroke="#000" stroke-linecap="round" stroke-linejoin="round" stroke-miterlimit="10" stroke-width=".5" d="M465.94531 424.48828l2.375.625"/></g><path fill="none" stroke="#000" stroke-linecap="round" stroke-linejoin="round" stroke-miterlimit="10" stroke-width=".5" d="M465.25 425.23828l2.375.625m-3.0664.125l1.1875.3125"/><g clip-path="url(#ad)"><path fill="none" stroke="#000" stroke-linecap="round" stroke-linejoin="round" stroke-miterlimit="10" stroke-width=".5" d="M147.50781 413.98438l-7.01562-.46094"/></g><path fill="none" stroke="#000" stroke-linecap="round" stroke-linejoin="round" stroke-miterlimit="10" stroke-width=".5" d="M147.50781 413.98438l1.0039 2.23828m12.31642-2.39063l-7.02735-.15625m7.02734.15625l1.10157 2.1914m-2.125-2.21484l.55078 1.09766m13.78516-1.0664l-7.02344-.17579m7.02344.17578l1.09765 2.19532m-2.11719-2.21875l1.09766 2.1953m13.14844-3.05077l-6.84375 1.58594m6.84375-1.58594l1.61328 1.84765m-2.60938-1.61718l1.61328 1.84765m12.67188-2.1875l-6.79297 1.80469m6.79297-1.80469l1.66797 1.79688m-2.65625-1.53516l.83594.89844m13.55468-.71094l-6.96875.90625m6.96875-.90625l1.42188 2m11.89844-1.14062l-6.97657-.81641m6.97657.8164l.89453 2.28516m11.98828-4.42187l-6.11328 3.46094m6.11328-3.46094l2.07031 1.3164m11.1289-1.51171l-5.8789 3.85156m5.8789-3.85156l2.14845 1.17968m10.26171-2.11718l-4.0703 5.72656m4.0703-5.72656l2.4336.3164m11.36718.09766l-5.04296 4.89844m5.04296-4.89844l2.33594.7539m11.61328.14844l-6.3125 3.08985m5.39453-2.64063l.9922.72266m13.2539-1.14453l-6.33594 3.03906m6.33594-3.03906l1.97656 1.45312m11.2461-1.6289l-6.15235 3.39062m6.15234-3.39063l2.0547 1.33985m-2.94923-.84766l1.02735.67188m12.4961-2.04688l-4.77735 5.15235m4.77734-5.15235l2.3711.6289m-3.06641.1211l1.1836.3164m12.70702-1.17187l-4.53906 5.36719m4.53906-5.36719l2.39844.51953m12.08594 1.45313l-6.8789 1.41797m6.8789-1.41797l1.5664 1.89062m-2.5664-1.68359l.78515.94531m13.4961-1.3086l-6.8086 1.73438m6.8086-1.73437l1.64844 1.8164m-2.64063-1.5625l1.65234 1.8125m-2.64062-1.5625l.82422.90626m14.14062-2.2422l-6.15234 3.39845m6.15234-3.39844l2.0586 1.33984m-2.95313-.84375l2.05469 1.33985m-2.94922-.84766l1.02734.67187m14.19922-1.41796l-6.39453 2.91406m6.39453-2.91406l1.94532 1.49218m-2.875-1.07031l1.9453 1.4961m11.73438-2.78907l-5.26562 4.65625m5.26562-4.65625l2.29688.85938m-3.0625-.1836l2.29687.85938m-3.0625-.17969l2.29688.85938m12.26172-2.50391l-4.6914 5.23047m4.6914-5.23047l2.38281.58984m-3.0625.17188l2.3789.58984m-3.0625.17188l2.38282.58984m12.71484-1.66797l-5.52734 4.34375m5.52734-4.34375l2.24219.99219m-3.04688-.35938l2.2422.98829m-3.04688-.35938l1.1211.4961m13.78124-1.78516l-5.48437 4.39844m5.48437-4.39844l2.2539.96875m-3.05077-.32813l2.2539.96875m-3.05469-.32812l2.25391.96875m12.65234-2.25781l-5.46875 4.41406"/><g clip-path="url(#ae)"><path fill="none" stroke="#000" stroke-linecap="round" stroke-linejoin="round" stroke-miterlimit="10" stroke-width=".5" d="M466.29688 411.54688l2.2578.96093"/></g><g clip-path="url(#af)"><path fill="none" stroke="#000" stroke-linecap="round" stroke-linejoin="round" stroke-miterlimit="10" stroke-width=".5" d="M465.5 412.1875l2.25781.96484"/></g><path fill="none" stroke="#000" stroke-linecap="round" stroke-linejoin="round" stroke-miterlimit="10" stroke-width=".5" d="M464.70313 412.83203l1.1289.48047"/><g clip-path="url(#ag)"><path fill="none" stroke="#000" stroke-linecap="round" stroke-linejoin="round" stroke-miterlimit="10" stroke-width=".5" d="M147.5 400.73438l-7-.59375"/></g><path fill="none" stroke="#000" stroke-linecap="round" stroke-linejoin="round" stroke-miterlimit="10" stroke-width=".5" d="M147.5 400.73438l.96484 2.2578m12.35547-2.30468l-7.01172-.4961m7.01172.4961l.9961 2.24219m12.30859-2.83985l-6.99219.69922m6.99219-.69922l1.36328 2.03907m-2.3789-1.9375l.67968 1.01953m13.40625-2.10938l-6.5 2.67188m6.5-2.67188l1.89063 1.5664M186.25 399.4922l.94531.78125m13.55078-.26953l-6.97265.86718m6.97265-.86718l1.41016 2.0078m-2.42578-1.8789l.70703 1.0039m13.59766-1.3203l-6.91797 1.24218m6.91797-1.24218l1.51562 1.92968m11.7461-2.17187l-6.8125 1.72656m6.8125-1.72656l1.64843 1.8164m11.5039-2.30468l-6.48827 2.70312m6.48828-2.70312l1.89453 1.55469m-2.83984-1.16016l.94922.77734m13.52734-.42969l-6.91797 1.22266m6.91797-1.22265l1.51172 1.93359m11.8086-1.91016l-6.9297 1.17578m6.9297-1.17578l1.49609 1.9414m11.76171-2.20702l-6.8164 1.70312m6.8164-1.70312l1.64453 1.82422m11.59766-2.08204l-6.66797 2.22266m6.66797-2.22265l1.77735 1.6914m11.66406-1.17578l-6.92578 1.1875m6.92578-1.1875l1.5039 1.9414m11.85938-1.17577l-7.01953-.34375m7.01953.34375l1.04297 2.22265m11.03515-5.07422l-4.54687 5.35938m4.54687-5.35938l2.39844.52344m12.15625 2.14453l-7.02734.02735m7.02734-.02735l1.16016 2.16016m11.67187-.36719l-6.0586-3.5625m5.17579 3.04688l-.05078 1.22265m14.66406-3.17578l-6.89062 1.3789m6.89062-1.3789l1.55469 1.89844m-2.55469-1.69922l1.55078 1.89844m11.97656-3.70704l-5.3164 4.59375m5.3164-4.59375l2.28907.88672m-3.0625-.21875l2.28906.88672m-3.0625-.21875l1.14453.44531m14.45703-.38671l-6.79297 1.80468m6.79297-1.80468l1.66797 1.79687m-2.65625-1.53515l.83594.90234m13.53125-.86328l-6.92188 1.20312m6.92188-1.20312l1.50781 1.9375m-2.51562-1.76172l.7539.96875m13.04688-2.46875l-5.875 3.85156m5.875-3.85156l2.15234 1.17969m-3.00781-.6172l2.15234 1.1797m12.16406-1.4961l-6.16796 3.36328m6.16796-3.36328l2.05079 1.35156m-2.94922-.86328l2.05078 1.35157m12.17969-1.8086l-6.20313 3.30078m6.20313-3.30078l2.03515 1.3711m-2.9375-.89063l2.03516 1.3711m-2.9375-.89063l1.01953.6836m13.92969-1.9336l-5.85938 3.8789"/><g clip-path="url(#ah)"><path fill="none" stroke="#000" stroke-linecap="round" stroke-linejoin="round" stroke-miterlimit="10" stroke-width=".5" d="M466.49219 398.5l2.15625 1.16797"/></g><g clip-path="url(#ai)"><path fill="none" stroke="#000" stroke-linecap="round" stroke-linejoin="round" stroke-miterlimit="10" stroke-width=".5" d="M465.64063 399.0625l2.15625 1.17188"/></g><path fill="none" stroke="#000" stroke-linecap="round" stroke-linejoin="round" stroke-miterlimit="10" stroke-width=".5" d="M464.78516 399.6289l1.07812.58204"/><g clip-path="url(#aj)"><path fill="none" stroke="#000" stroke-linecap="round" stroke-linejoin="round" stroke-miterlimit="10" stroke-width=".5" d="M147.50781 386.92578l-7.01562.39453"/></g><path fill="none" stroke="#000" stroke-linecap="round" stroke-linejoin="round" stroke-miterlimit="10" stroke-width=".5" d="M147.50781 386.92578l1.27344 2.09766m12.03125-1.57422l-6.9961-.64844m6.9961.64844l.94922 2.26172m11.92578-4.32031l-6.11328 3.46484m6.11328-3.46485l2.07031 1.31641m-2.96094-.8125l1.03516.65625m12.7461-1.7539l-5.26563 4.65234m5.26563-4.65235l2.29687.85938m-3.0625-.1836l1.14844.4297m13.76172.61718l-6.92188 1.21094m6.92188-1.21094l1.5078 1.9336m-2.51562-1.75782l1.50782 1.9336m12.75-2.40235l-6.79297 1.79297m6.79297-1.79297l1.66797 1.79688m-2.65625-1.53516l1.66796 1.79688m12.41797-2.65235l-6.35937 2.98047m6.35937-2.98047l1.96485 1.47266m-2.89063-1.03906l.98438.73437m13.44922-.66015l-6.7461 1.96484m6.7461-1.96485l1.71093 1.75782m11.53516-1.97266l-6.60938 2.39453m6.60938-2.39453l1.82031 1.64844m-2.78125-1.29688l.91016.82032m13.30469-1.32813l-6.48438 2.70703m6.48438-2.70703l1.89843 1.55469m11.40235-1.58594l-6.45703 2.76953m5.51953-2.36719l.95703.76954m13.57812.03515l-7.01953.35547m5.9961-.30078l.6289 1.05078m13.65235-1.58203l-6.90625 1.3086m6.90625-1.3086l1.53515 1.91406m11.83594-1.4375l-7.01953.35547m7.01953-.35547l1.25781 2.10547m-2.28125-2.05469l.63281 1.0547m13.15235-2.82423l-5.91406 3.79688m5.91406-3.79688l2.14062 1.19922m11.30469-.98437l-6.17188 3.36328m6.17188-3.36328l2.04688 1.35156m11.6875.125l-7.01172.41015m7.01171-.41015l1.27735 2.09765m-2.29688-2.03906l.64063 1.05078m13.60547-1.72265l-6.83203 1.63672m6.83203-1.63672l1.625 1.83594m-2.6211-1.59766l1.625 1.83594m12.5586-2.48829l-6.57813 2.46485m6.57813-2.46485l1.83984 1.6211m-2.79687-1.26172l1.83984 1.6211m12.23047-2.42579l-6.17578 3.35938m6.17578-3.35938l2.04687 1.35156m-2.9453-.86328l2.04687 1.35157m12.22656-1.72657l-6.29297 3.12891m6.29297-3.1289l1.9961 1.42968m-2.91407-.97265l1.9961 1.42578m12.07812-2.16016l-5.98047 3.6875m5.98047-3.6875l2.1211 1.23828m-2.98829-.70312l1.0586.62109m13.24609-.94531l-6.22266 3.26172m6.22266-3.26172l2.02734 1.38281m-2.9336-.90625l1.01563.6914m13.3711-.80859l-6.55469 2.54297m6.55469-2.54297l1.85547 1.60547m-2.8086-1.23437l.92578.80078m13.15625-1.57422l-6.17968 3.34765"/><g clip-path="url(#ak)"><path fill="none" stroke="#000" stroke-linecap="round" stroke-linejoin="round" stroke-miterlimit="10" stroke-width=".5" d="M466.65234 385.44922l2.04297 1.35937"/></g><g clip-path="url(#al)"><path fill="none" stroke="#000" stroke-linecap="round" stroke-linejoin="round" stroke-miterlimit="10" stroke-width=".5" d="M465.7539 385.9375l2.04298 1.35547"/></g><g clip-path="url(#am)"><path fill="none" stroke="#000" stroke-linecap="round" stroke-linejoin="round" stroke-miterlimit="10" stroke-width=".5" d="M147.49219 374.21094l-6.98438-.80469"/></g><path fill="none" stroke="#000" stroke-linecap="round" stroke-linejoin="round" stroke-miterlimit="10" stroke-width=".5" d="M147.49219 374.21094l.89453 2.28515m-1.91016-2.40234l.44531 1.14063m13.89454-1.11329l-7-.6289m7 .6289l.95312 2.26172m-1.97266-2.35156l.47657 1.1289m13.8711-1.42968l-7.02735.15234m7.02734-.15234l1.19531 2.14062m12.10938-2.30468l-7.00781.48046m7.0078-.48046l1.29688 2.08593m11.96094-2.51953l-6.89453 1.35156m6.89453-1.35156l1.54688 1.90625m-2.55078-1.71094l.77343.95313m13.55078-1.13672l-6.90234 1.32813m6.90234-1.32813l1.53907 1.91016m-2.54297-1.71485l.76953.95313m13.34766-1.8164l-6.50391 2.66015m6.5039-2.66016l1.88672 1.57031m-2.83203-1.18359l.94531.78516m13.38282-.9961l-6.63672 2.3125m6.63672-2.3125l1.80078 1.66407m11.5664-1.50391l-6.73828 1.99219m6.73828-1.99219l1.71875 1.75m11.60938-1.71094l-6.76563 1.91016m6.76563-1.91016l1.69531 1.77344m11.6875-1.48828l-6.89844 1.33984m6.89844-1.33984l1.54297 1.91015m11.67578-.1953l-6.71093-2.08594m6.71093 2.08593l.46094 2.41016m13.00781-3.24219l-7.01562-.42187m7.01562.42187l1.01953 2.23047m12.26172-2.97266l-6.94922 1.0625m6.94922-1.0625l1.46485 1.96875m11.8828-1.66796l-7.01171.46093m7.01172-.46094l1.28906 2.08594m12.03125-2.0039l-7.02344.29687m7.02344-.29687l1.24219 2.11718m12.0586-1.6328l-6.9961-.67188m6.9961.67187l.9375 2.26563m-1.95704-2.36329l.47266 1.13282m13.875-1.54688l-7.01953.35156m7.01953-.35156l1.25781 2.10547m-2.28125-2.05469l.6289 1.05079m13.66016-1.53907l-6.92187 1.22656m6.92187-1.22656l1.51172 1.9336M386.125 373.375l.7539.96484m13.26563-2.0703l-6.3164 3.07812m6.3164-3.07813l1.98438 1.44531m-2.90235-.99609l.99219.72266m12.96484-1.64063l-5.76562 4.01563m5.76562-4.01563l2.1836 1.11719m-3.02344-.53516l1.09375.5625m12.88281-1.38281l-5.40625 4.48828m5.40625-4.48828l2.26953.9336m-3.05468-.27735l1.1328.46484m12.87892-1.22265l-5.23047 4.69531m5.23047-4.69531l2.30468.84375m-3.0664-.16016l1.15234.42188m13.19922-.75391l-5.78125 3.99219m5.78125-3.99219l2.17969 1.1289m-3.01953-.55077l1.08984.5664m13.27734-.79687l-6.20703 3.29687"/><g clip-path="url(#an)"><path fill="none" stroke="#000" stroke-linecap="round" stroke-linejoin="round" stroke-miterlimit="10" stroke-width=".5" d="M466.66406 372.16016l2.03516 1.375"/></g><path fill="none" stroke="#000" stroke-linecap="round" stroke-linejoin="round" stroke-miterlimit="10" stroke-width=".5" d="M465.76172 372.64063l1.01562.6875"/><g clip-path="url(#ao)"><path fill="none" stroke="#000" stroke-linecap="round" stroke-linejoin="round" stroke-miterlimit="10" stroke-width=".5" d="M147.48047 360.96094l-6.96094-.9375"/></g><path fill="none" stroke="#000" stroke-linecap="round" stroke-linejoin="round" stroke-miterlimit="10" stroke-width=".5" d="M147.48047 360.96094l.85547 2.30078m-1.86719-2.4375l.42578 1.15234m13.92969-1.64062l-7.01953.3125m7.01953-.3125l1.25 2.11328m11.9375-2.90235l-6.76563 1.89454m6.76563-1.89454l1.69531 1.77344m11.57422-1.92969l-6.67188 2.20704m5.69922-1.88672l.89063.84765m13.13281-1.76953l-6.14453 3.40625m6.14453-3.40625l2.0586 1.33985m10.66796-2.1211l-4.96875 4.96875m4.2461-4.2461l1.17578.35938m11.84766-1.78906l-2.9375 6.38281m2.51171-5.45312l1.22266-.07031m13.33203-.33985l-4.5625 5.34375m3.89844-4.5664l1.19531.26562m13.96484 1.04688l-6.92968 1.16406m5.92187-.99219l.75.97266m13.60938-.8789l-7 .6328m7-.6328l1.33984 2.05468m11.9414-1.16797l-6.93359-1.14063m5.92579.97657L280 362.05859m13.625-.03125l-6.32031-3.0703m6.32031 3.0703l.08984 2.45313m13.375-2.80469l-6.61718-2.36328m6.61718 2.36328l.35547 2.42578m13.07422-2.8125l-6.84765-1.58984m6.84765 1.58984l.6289 2.3711m-1.625-2.60157l.31641 1.1836m13.97657-.89063l-6.8125-1.71875m6.8125 1.71875l.58984 2.38281m12.33984-1.44921l-6.04296-3.58594m6.04296 3.58594l-.11328 2.45312m13.8125-3.3711l-6.8086-1.74609m6.8086 1.7461l.57422 2.38281m-1.5664-2.63672l.28906 1.1914m14.1289-1.76562l-7.02734-.08984m7.02734.08984l1.1211 2.17969m-2.14453-2.19531l.5625 1.09375m13.58593-2.26563l-6.64843 2.28125m6.64843-2.28125l1.79297 1.67578m-2.76172-1.34375l1.79297 1.67579m12.22266-2.60157l-6.11328 3.46875m6.11328-3.46875l2.07031 1.3164m-2.96094-.8125l1.03516.66017m13.05469-1.34766l-5.88281 3.83984m5.8828-3.83984l2.14845 1.1836m-3.00391-.625l1.07422.58984m12.91797-1.39844l-5.52735 4.33984m5.52735-4.33984l2.24609.99219m-3.05078-.36329l1.125.4961m12.76562-1.39063l-5.0664 4.8711m5.0664-4.8711l2.33204.76172m-3.07032-.05469l1.16797.38282m12.94922-1.01953l-5.19531 4.73046m5.19531-4.73046l2.3125.82421m-3.0664-.13671l1.15234.41406m13.11328-.86719l-5.58984 4.25781"/><g clip-path="url(#ap)"><path fill="none" stroke="#000" stroke-linecap="round" stroke-linejoin="round" stroke-miterlimit="10" stroke-width=".5" d="M466.35547 358.36328l2.23047 1.02735"/></g><g clip-path="url(#aq)"><path fill="none" stroke="#000" stroke-linecap="round" stroke-linejoin="round" stroke-miterlimit="10" stroke-width=".5" d="M147.48438 346.74219l-6.96875.875"/></g><path fill="none" stroke="#000" stroke-linecap="round" stroke-linejoin="round" stroke-miterlimit="10" stroke-width=".5" d="M147.48438 346.74219l1.41406 2.0039m11.92969-1.61328l-7.02735.08985m7.02734-.08985l1.1797 2.15235m12.1289-2.30079l-7.01563.38672m7.01563-.38671l1.27344 2.09765m12.03515-2.1875l-7.0039.57031m5.98828-.48828l.66015 1.03125m11.0586-4.23047l-1.77735 6.80079m1.51953-5.8086l1.19141-.28515m10.08984-.52735l2.8086 6.4414m-2.39844-5.5039l.76172-.96094m14.34375-.17578l-1.59375 6.84375m17.25-5l-6.27734 3.15235m5.36328-2.69532l1.0039.71094m13.58594.72266l-7-.6289m5.98047.53515l.48047 1.13281m13.86328-1.51953l-7.01953.33203m7.01953-.33203l1.2539 2.10937m12.0625-1.80078l-7.01952-.28515m7.01953.28515l1.0625 2.21094m-2.08203-2.2539l.53125 1.10937m13.66406-.21875l-6.74219-1.98047m6.74219 1.98047l.4961 2.40234m12.30858-1.34765l-5.71875-4.08985m5.71875 4.08985l-.32421 2.42968m14.08203-3.27343l-6.60547-2.39844m6.60547 2.39844l.34375 2.42968m-1.30469-2.78125l.17188 1.21485m14.29296-1.6836l-6.98437-.76171m6.98437.76171l.91016 2.28125m-1.92578-2.39062l.45703 1.13672m13.86328-.91797l-6.96094-.98047m6.96094.98047l.83594 2.30469m12.15625-1.25391l-6.3164-3.08203m6.3164 3.08203l.08594 2.45313m-1.00391-2.90235l.04297 1.22656m14.46875-1.57812l-6.8711-1.48047m6.8711 1.48047l.66797 2.35937m-1.66797-2.57421l.66797 2.35937m13.69922-3.29297l-6.98047.8164m6.98047-.8164l1.39843 2.01563m-2.41406-1.89844l1.39844 2.01953M400.25 345.875l-6.52734 2.60938M400.25 345.875l1.8711 1.58203m-2.82032-1.20312l1.8711 1.58203M413.38671 345.5l-6.17188 3.35547m6.17188-3.35547l2.04687 1.35547m-2.9453-.86719l1.02343.67578m13.125-1.28125l-6.03906 3.58985m6.03906-3.58985l2.09765 1.27344m-2.97656-.75l2.09766 1.27344m11.88281-2.11719l-5.61328 4.23047m5.61328-4.23047l2.22266 1.03516m-3.03906-.41797l2.22265 1.03515m11.91016-1.64843l-5.61719 4.22265m5.61719-4.22265l2.22265 1.03906m-3.03906-.42578l2.22266 1.03906m12.10547-1.36328L460.55859 349"/><g clip-path="url(#ar)"><path fill="none" stroke="#000" stroke-linecap="round" stroke-linejoin="round" stroke-miterlimit="10" stroke-width=".5" d="M466.5664 345.35547l2.10938 1.2539"/></g><path fill="none" stroke="#000" stroke-linecap="round" stroke-linejoin="round" stroke-miterlimit="10" stroke-width=".5" d="M465.6914 345.88672l1.0547.625"/><g clip-path="url(#as)"><path fill="none" stroke="#000" stroke-linecap="round" stroke-linejoin="round" stroke-miterlimit="10" stroke-width=".5" d="M147.30469 332.66797l-6.60938 2.39062"/></g><path fill="none" stroke="#000" stroke-linecap="round" stroke-linejoin="round" stroke-miterlimit="10" stroke-width=".5" d="M147.30469 332.66797l1.82031 1.64453m11.48047-1.67969l-6.58203 2.46094m6.58203-2.46094l1.83984 1.6289m10.7539-2.79687l-5.13671 4.79688m4.38672-4.09766l1.16016.39453m11.72265-1.92187l-2.77344 6.45312m2.3711-5.51562l1.22265-.10156m11.33594-1.1172l-.45703 7.01563m.39063-5.99218l1.11718-.50782m15.49219 2.35157l-6.91016 1.28125m5.90235-1.09375l.76562.96093m13.49219.41016L220.5 332.94531m5.79688 1.5664l.27343 1.19923m13.91797-.58985l-6.5625-2.51562m5.60547 2.14844l.15234 1.21875m14.32422-1.6836l-6.97656-.85156m6.97656.85156l.88281 2.28906m12.45704-2.5625l-7.02344-.30468m7.02344.30469l1.05468 2.21484m12.22657-1.8711l-6.95703-.99218m6.95703.99219l.83203 2.30859m-1.84375-2.45313l.41797 1.15625m13.9453-1.46875l-7.02733-.07812m7.02734.07812l1.125 2.1797m11.71875-.46485l-6.08594-3.50781m5.19922 2.99609l-.03906 1.22656m13.92969-.26172l-5.46485-4.41406m5.46485 4.41406l-.46485 2.41016m-.32812-3.05078l-.23438 1.20312m14.92969-1.61719l-6.63672-2.30468m6.63672 2.30469l.375 2.42578m-1.33984-2.76172l.375 2.42578m14.07421-2.8125l-6.97656-.85938m6.97656.85938l.87891 2.28906m-1.89453-2.41406l.4375 1.14453m13.85937-2.08594L353.58594 334.5m6.91015-1.27344l1.52735 1.92188m-2.53125-1.73828l.76172.96093m13.29297.96485l-6.37891-2.94531m6.3789 2.9453l.13672 2.44923m13.46485-4.4336l-6.95313 1.02344m6.95313-1.02344l1.45312 1.97656M386.13672 333.5l.72656.98828m13.63672-.57812l-7.02734-.09375m7.02734.09375l1.1211 2.17968m11.93359-3.55468l-6.50781 2.65625m6.5078-2.65625l1.88673 1.5703m-2.83203-1.18358l.9414.78515m13.04688-1.70312l-5.96094 3.71875m5.96094-3.71875l2.125 1.23046m-2.9922-.6875l1.0625.61329m13.14454-1.11329l-6.01172 3.63282m6.01172-3.63281l2.10938 1.2578m-2.98438-.73046l1.05469.6289m13.15625-1.12109l-6.05469 3.5625m6.05469-3.5625l2.09375 1.28125m-2.97266-.76562l2.08985 1.28515m-2.97266-.76562l1.04687.64062m13.98829-1.75l-5.96875 3.71094"/><g clip-path="url(#at)"><path fill="none" stroke="#000" stroke-linecap="round" stroke-linejoin="round" stroke-miterlimit="10" stroke-width=".5" d="M466.54688 332.00781l2.12109 1.23438"/></g><g clip-path="url(#au)"><path fill="none" stroke="#000" stroke-linecap="round" stroke-linejoin="round" stroke-miterlimit="10" stroke-width=".5" d="M465.67578 332.54688l2.125 1.23437"/></g><g clip-path="url(#av)"><path fill="none" stroke="#000" stroke-linecap="round" stroke-linejoin="round" stroke-miterlimit="10" stroke-width=".5" d="M147.42578 319.77344l-6.85156 1.54687"/></g><path fill="none" stroke="#000" stroke-linecap="round" stroke-linejoin="round" stroke-miterlimit="10" stroke-width=".5" d="M147.42578 319.77344l1.60156 1.85937m11.69141-1.94922l-6.8086 1.73047m6.8086-1.73047l1.65234 1.81641m11.3125-2.6875l-6.10937 3.47266m6.10937-3.47266l2.07422 1.3164m10.3125-2.3789l-4.25 5.59766m4.25-5.59766l2.42188.39063m12.25781 2.01562l-6.98047.78516m6.98047-.78516l1.38672 2.02344m11.89453-2.25781l-6.91406 1.2539m6.91406-1.2539l1.51953 1.92578m-2.52344-1.7422l.75782.96095m13.43359-1.64454l-6.65625 2.25m6.65625-2.25l1.78516 1.6836M226.25 319.75l.89453.84375m13.45703-.94531l-6.79297 1.80078m6.79297-1.80078l1.66797 1.79687m-2.65625-1.53515l.83594.89843m13.58594-.26171h-7.02735m7.02735 0l1.15234 2.16796m12.15234-2.41015l-7.0078.48828m7.0078-.48828l1.30078 2.08203m12.01563-1.60156l-7.01172-.47266m7.01172.47266l1.0039 2.23828m12.28126-1.96485l-6.95313-1.01953m6.95313 1.01953l.82422 2.3125m12.49609-3.30078l-6.96094.95313m5.94922-.8125l.71484.99219m13.23047 1l-6.19922-3.3086m6.19922 3.3086l-.0039 2.45312m13.36718-2.55078l-6.29687-3.11719m6.29687 3.11719l.07032 2.45312M346 323.22656l-4.54687-5.35547m3.88671 4.57422l-.45312 1.14063m14.77734-.70313l-5.2461-4.67187m19.40626 2.90625l-6.9336-1.14063m5.92188.97656l.39453 1.16407M386.82813 319l-6.3125 3.09375M386.82813 319l1.98437 1.4414m11.1289-1.79687l-5.91015 3.80469m5.91016-3.80469l2.14062 1.19922m11.46875-.63281l-6.5 2.67578m5.55469-2.28516l.94531.78125m12.3711 2.8164l-4.60938-5.30468m14.89453-.78515l1.44531 6.875m-1.23437-5.875l.9414-.78516m15.10938.5039l-4.44531 5.44141m4.44531-5.4414l2.40625.47656m11.1914-.22266l-5.0078 4.92969"/><g clip-path="url(#aw)"><path fill="none" stroke="#000" stroke-linecap="round" stroke-linejoin="round" stroke-miterlimit="10" stroke-width=".5" d="M466.0664 318.08203l2.33985.73828"/></g><path fill="none" stroke="#000" stroke-linecap="round" stroke-linejoin="round" stroke-miterlimit="10" stroke-width=".5" d="M465.33594 318.80078l2.34375.73438m-3.07031-.01563l1.16796.36719"/><path fill="#ff3030" fill-rule="evenodd" d="M269.09766 436.57813h7.6914v-10.14454h-7.6914v10.14454"/><path fill="azure" fill-rule="evenodd" d="M270.92969 428.26563h.83203v5.74218h3.19531v.73828h-4.02734v-6.48046"/><path fill="#00f" fill-rule="evenodd" d="M383.80078 436.57813h8.61719v-10.14454h-8.61719v10.14454"/><path fill="azure" fill-rule="evenodd" d="M385.63281 428.26563h.83203v2.82421h3.28907v-2.82421h.83203v6.48046h-.83203v-2.91406h-3.28907v2.91406h-.83203v-6.48046"/><path fill="#ff3030" fill-rule="evenodd" d="M326.79688 432.14063h7.6914v-10.14454h-7.6914v10.14454"/><path fill="azure" fill-rule="evenodd" d="M328.6289 423.82813h.83204v5.73828h3.19531v.74218h-4.02734v-6.48046"/><path fill="#00f" fill-rule="evenodd" d="M148.5664 423.26563h8.6211v-10.14844h-8.6211v10.14844"/><path fill="azure" fill-rule="evenodd" d="M150.40234 414.95313h.83203v2.8203h3.28516v-2.8203h.83203v6.48046h-.83203v-2.91796h-3.28516v2.91796h-.83203v-6.48046"/><path fill="#00f" fill-rule="evenodd" d="M224.01953 414.38672h8.61719v-10.14453h-8.61719v10.14453"/><path fill="azure" fill-rule="evenodd" d="M225.85156 406.07422h.83594v2.82422h3.28516v-2.82422h.83203v6.48047h-.83203v-2.91406h-3.28516v2.91406h-.83594v-6.48047"/><path fill="#ff3030" fill-rule="evenodd" d="M384.4961 414.38672h7.6914v-10.14453h-7.6914v10.14453"/><path fill="azure" fill-rule="evenodd" d="M386.32813 406.07422h.83203v5.74219h3.1953v.73828h-4.02733v-6.48047"/><path fill="#ff3030" fill-rule="evenodd" d="M175.89063 409.94922h7.6953v-10.14453h-7.6953v10.14453"/><path fill="azure" fill-rule="evenodd" d="M177.72656 401.63672h.83203v5.73828H181.75v.74219h-4.02344v-6.48047"/><path fill="#ffffe0" fill-rule="evenodd" d="M292.92188 392.4961h22.17968v-10.19141h-22.17969v10.1914"/><path fill-rule="evenodd" d="M296.42188 384.13672h.5078v6.29687h-.78515v-4.49218h-1.39062v-.5547l.5625-.0625.25-.05468.23046-.08984.20313-.14063.17578-.21094.14063-.29687.10546-.39453m4.8125 0l.23047.01953.21875.05469.20704.08984.1953.1211.1875.14843.16798.17578.30468.42188.2422.49219.17968.54687.11328.57813.03516.59375-.03516.59375-.11328.58203-.17969.55469-.24219.5-.30468.42968-.16797.17969-.1875.15234-.19531.125-.20704.08985-.21875.0586-.23046.01952-.23047-.01953-.21875-.0586-.20704-.08984-.1953-.125-.1836-.15234-.17188-.17969-.30078-.42969-.2461-.5-.17968-.55468-.10937-.58203-.03907-.59375h.83204l.03125.5625.08203.5039.125.44531.16015.375.1914.30079.21095.21875.22265.13671.22656.04688.22657-.04688.22265-.13671.21094-.21875.1914-.30079.16407-.375.125-.4453.08203-.50391.02735-.5625-.02735-.5625-.08203-.5-.125-.4375-.16406-.36329-.1914-.29296-.21095-.21485-.22265-.13281-.22656-.04297-.22657.04297-.22265.13281-.21094.21485-.1914.29296-.16016.36329-.125.4375-.08204.5-.03125.5625h-.83203l.03907-.59375.10937-.57813.17969-.54687.2461-.4922.30077-.42187.17188-.17578.1836-.14844.1953-.12109.20704-.08984.21875-.05469.23046-.01953m5.09375 0h.50782v6.29687h-.78516v-4.49218h-1.39062v-.5547l.55859-.0625.2539-.05468.23048-.08984.20312-.14063.17188-.21094.14453-.29687.10546-.39453m2.82032 2.17578h.78906l.01953-.3164.0586-.28516.09765-.2539.14063-.21485.18359-.17188.22266-.1289.26562-.08204.3086-.02734.23437.01953.22656.0625.20313.10156.17969.14063.14843.17188.11328.20703.07032.23437.02734.26563-.02344.26953-.0664.22265-.10938.19141-.15625.17188-.19922.16406-.2461.16406-.63671.39063-.53516.3125-.4375.3164-.34765.32422-.26172.33594-.1914.35156-.125.3711-.07032.39062-.01953.42187h4.21094v-.74218h-3.33204l.08204-.28516.11328-.23438.14844-.20312.1875-.17969.23046-.17187.28125-.17578.71485-.41407.41797-.20703.34375-.23047.28125-.25.21875-.26953.16406-.27734.11328-.28516.0625-.28515.01953-.28125-.04297-.38282-.11719-.34765-.1914-.3086-.25-.26171-.30078-.21094-.34766-.16016-.3789-.09765-.40625-.03516-.4375.03515-.39844.09766-.35156.16406-.3086.23829-.2461.30078-.1875.375-.11327.4453-.04297.51954"/><path fill="#ffffe0" fill-rule="evenodd" d="M284.04688 421.78906h22.17968v-10.1914h-22.17969v10.1914"/><path fill-rule="evenodd" d="M287.54297 413.42969h.51172v6.29687h-.78906v-4.49219h-1.38672v-.55468l.55859-.0625.2539-.05469.22657-.08984.20703-.14063.17188-.21094.14062-.29296.10547-.39844m4.8164 0l.22657.01953.22265.05469.20704.08984.1953.1211.1836.15234.17188.17578.30078.41797.2461.49219.17968.54687.10937.57813.03907.59375-.03907.59375-.10937.58203-.17969.55468-.2461.50391-.30077.42578-.17188.17969-.1836.15234-.1953.125-.20704.08985-.22265.05859-.22656.01953-.23047-.01953-.21875-.0586-.20704-.08984-.19921-.125-.1836-.15234-.17187-.17969-.30078-.42578-.2422-.5039-.17968-.5547-.11328-.58202-.03516-.59375h.83204l.02734.5625.08203.5039.125.44531.16406.375.1914.30079.21095.21875.22265.13671.22656.04688.22657-.04688.22265-.13671.21094-.21875.1875-.30079.16406-.375.125-.4453.08204-.50392.03125-.5625-.03125-.5625-.08204-.5-.125-.43359-.16406-.36719-.1875-.29296-.21094-.21485-.22265-.1289-.22656-.04688-.22657.04688-.22265.1289-.21094.21485-.1914.29296-.16407.3672-.125.43358-.08203.5-.02735.5625h-.83203l.03516-.59375.11328-.57812.17969-.54688.24219-.49218.30078-.41797.17187-.17578.1836-.15235.19921-.12109.20704-.08984.21875-.0547.23046-.01952m5.08985 0h.50781v6.29687h-.78515v-4.49219h-1.38672v-.55468l.55859-.0625.25-.05469.23047-.08984.20312-.14063.17579-.21094.14062-.29296.10547-.39844m2.82422 2.17578h.78515l.01954-.3164.0625-.28516.09765-.25391.14063-.21484.17968-.17188.22266-.1289.26563-.08204.30859-.02734.23828.02344.22266.0625.20703.10156.17578.13672.15234.17187.10938.20704.07422.23437.02343.26563-.01953.26953-.0664.22265-.10938.19531-.15625.16797-.20312.16407-.2461.16406-.63281.39062-.53906.3125-.4375.31641-.34375.32422-.26563.33594-.1914.35156-.125.3711-.06641.39062-.02344.42187h4.21485v-.74219h-3.33204l.08204-.28515.11328-.23438.14844-.20312.1875-.17969.23046-.17187.27735-.17579.71875-.41406.41406-.20703.34766-.23047.27734-.25.22266-.26953.16406-.27734.10937-.28516.0625-.28515.02344-.28125-.04297-.38282-.1211-.34765-.1875-.3086-.2539-.26172-.30078-.21093-.34375-.16016-.38281-.09766-.40625-.03515-.4336.03515-.39843.09766-.35547.16797-.30469.23437-.25.30079-.1836.375-.11718.4453-.03906.51954"/><path fill="#ffffe0" fill-rule="evenodd" d="M396.42578 476.75781h22.17969V466.5625h-22.17969v10.19531"/><path fill-rule="evenodd" d="M399.92578 468.39844h.50781v6.29297h-.78906v-4.48829h-1.38672v-.55468l.5586-.0664.2539-.0547.23047-.08984.20313-.14063.17187-.21093.14063-.29297.10937-.39453m4.8125 0l.23047.01953.21875.05469.20703.08984.19531.1211.1836.14843.17187.17578.30078.41797.2461.4961.17969.54687.10937.57813.03906.58984-.03906.59375-.10938.58594-.17968.55078-.2461.5039-.30078.42579-.17187.17968-.1836.15625-.1953.1211-.20704.09375-.21875.05468-.23047.01954-.23047-.01954-.21875-.05468-.20703-.09375-.19531-.1211-.1875-.15625-.16797-.17969-.30469-.42578-.24219-.5039-.17968-.55078-.11328-.58594-.03516-.59375h.83203l.02735.5625.08203.50781.1289.4414.16016.375.1914.30079.21094.22265.22266.13672.22656.04688.22656-.04688.22266-.13671.21094-.22266.1914-.30078.16016-.375.125-.4414.08203-.50782.03125-.5625-.03125-.5625-.08203-.5-.125-.4336-.16016-.36718-.1914-.29297-.21094-.21094-.22266-.13281-.22656-.04688-.22656.04688-.22266.13281-.21094.21094-.1914.29297-.16016.36719-.1289.43359-.08204.5-.02734.5625h-.83203l.03516-.58985.11328-.57812.17969-.54688.24218-.49609.30469-.41797.16797-.17578.1875-.14844.19531-.12109.20703-.08984.21875-.0547.23047-.01952m5.08985 0h.51171v6.29297h-.78906v-4.48829h-1.38672v-.55468l.5586-.0664.2539-.0547.22656-.08984.20313-.14063.17578-.21093.14063-.29297.10546-.39453m2.82422 2.17578h.78907l.01953-.3164.0586-.28907.09765-.25.14062-.21484.17969-.17579.22266-.1289.26562-.08203.3086-.02735.23828.02344.22265.0625.20703.10156.1797.13672.14843.17578.11328.20313.07031.23828.02344.26172-.01953.26953-.0664.22656-.10938.1914-.15625.17188-.19922.16016-.25.16797-.63281.38672-.53907.3164-.4375.31641-.34375.32422-.26562.33594-.1875.35156-.1289.36719-.06641.39453-.01954.41797h4.21094v-.73829h-3.33203l.08203-.28515.11328-.23828.14844-.19922.1875-.17969.23047-.17187.27734-.17579.71875-.41796.41407-.20704.34765-.23046.28125-.25.21875-.26563.16406-.28125.10938-.28125.0625-.28515.02344-.28125-.04297-.38282-.1211-.34765-.1875-.3086-.25-.26172-.30468-.21484-.34375-.15625-.38281-.10156-.40625-.03125-.4336.03125-.39844.09765-.35546.16797-.3047.23438-.24609.30469-.1875.375-.11718.4453-.03907.51954"/><path fill="#ffffe0" fill-rule="evenodd" d="M319.55078 349.16797h22.1836v-10.1914h-22.1836v10.1914"/><path fill-rule="evenodd" d="M323.05078 340.8086h.51172v6.29687h-.78906v-4.49219h-1.38672v-.55469l.5586-.0625.25-.05468.23046-.08985.20313-.14062.17578-.21094.14062-.29297.10547-.39844m4.8125 0l.23047.01954.21875.05468.21094.08985.19531.12109.1836.15234.17187.17579.30078.41796.24219.4922.17969.54687.11328.57812.03906.59375-.03906.59375-.11329.58203-.17968.55469-.24219.5-.30078.42969-.17188.17969-.18359.15234-.19531.125-.21094.08984-.21875.0586-.23047.01953-.22656-.01953-.21875-.0586-.21094-.08984-.19531-.125-.1836-.15235-.17187-.17968-.30078-.42969-.24219-.5-.17969-.55469-.11328-.58203-.03906-.59375h.83594l.02734.5625.08203.5039.125.44532.16406.375.19141.30078.21094.21875.22265.13672.22266.04688.22656-.04688.22266-.13672.21094-.21875.1914-.30078.16407-.375.125-.44531.08203-.5039.02734-.5625-.02734-.5625-.08203-.5-.125-.4375-.16407-.36329-.1914-.29297-.21094-.21484-.22266-.1289-.22656-.04688-.22265.04687-.22266.1289-.21094.21485-.1914.29297-.16407.36328-.125.4375-.08203.5-.02734.5625h-.83594l.03906-.59375.11328-.57812.1797-.54688.24218-.49219.30078-.41796.17188-.17579.18359-.15234.19531-.1211.21094-.08984.21875-.05469.22656-.01953m5.09375 0h.50781v6.29688h-.78515v-4.49219h-1.39063v-.55469l.5625-.0625.25-.05468.23047-.08985.20313-.14062.17578-.21094.14062-.29297.10547-.39844m6.80469 1.6211h-.78906l-.05079-.21094-.08203-.1875-.10546-.16016-.12891-.1289-.14844-.10547-.16015-.07422-.16797-.04297-.17188-.01562-.32812.03906-.28907.1211-.24609.1953-.20313.26954-.16015.33593-.11719.40625-.07031.46485-.02344.52734.1914-.20312.1836-.15625.1875-.125.1836-.08594.1875-.0625.1953-.03516.39844-.02344.3086.02735.32031.09375.3164.15625.29298.21875.2578.28515.19923.35157.07031.19922.05469.21484.02734.23828.0039.25-.78515.04688-.02734-.26172-.07813-.25-.1211-.23438-.16015-.21094-.19531-.17578-.21875-.13671-.24219-.08985-.2539-.03125-.25391.03125-.24219.08985-.21875.13671-.1914.17579-.16407.21093-.12109.23438-.07813.25-.02734.26172.02735.2578.07812.25.1211.23438.16406.21094.1914.17969.21875.13672.24219.08594.2539.03125.25391-.03125.24219-.08594.21875-.13672.19531-.17969.16016-.21094.1211-.23437.07812-.25.02734-.25781.78516-.04688-.03125.3711-.08985.37109-.16015.35937-.22266.32813-.28906.28125-.16797.1211-.1914.10156-.20313.08203-.22656.0625-.23829.03906-.26171.01172-.28125-.01563-.26172-.04687-.23828-.07813-.21485-.10547-.19531-.1289-.17188-.15625-.15625-.17969-.13671-.20313-.11329-.22265-.10156-.24219-.14453-.53515-.08594-.59375-.02734-.64063.03906-.74219.11328-.66406.1875-.57813.1211-.2539.13672-.23047.15234-.20703.16797-.1836.1875-.15234.20312-.13281.21875-.10156.23047-.07032.25-.04687.26172-.01563.36328.03516.33203.09375.29688.15234.25781.19922.21094.24219.16406.27344.11719.30469.0625.3203"/><path fill="#ffffe0" fill-rule="evenodd" d="M190.83984 340.57422h22.1797v-10.1914h-22.1797v10.1914"/><path fill-rule="evenodd" d="M194.33984 332.21484h.50782v6.29688h-.78516v-4.48828h-1.39063v-.5586l.5625-.0625.25-.05468.23047-.08985.20313-.14062.17578-.21094.14063-.29297.10546-.39844m4.8125 0l.23047.01954.21875.05859.20703.08594.19532.12109.1875.15234.16797.17579.30468.41796.24219.4922.17969.54687.11328.58203.03516.58984-.03516.59375-.11328.58203-.17969.55469-.24219.5039-.30469.42579-.16796.17969-.1875.15234-.19532.125-.20703.09375-.21875.05469-.23047.01953-.23047-.01953-.21875-.0547-.20703-.09374-.1953-.125-.1836-.15235-.17188-.17968-.30078-.42578-.2461-.50391-.17968-.55469-.10938-.58203-.03906-.59375h.83203l.03125.5625.08203.50781.125.44141.16016.375.1914.30078.21095.21875.22265.13672.22656.04688.22657-.04688.22265-.13672.21094-.21875.1914-.30078.16016-.375.1289-.4414.08204-.50782.02734-.5625-.02734-.5625-.08203-.5-.1289-.4336-.16016-.36718-.19141-.29297-.21094-.21484-.22265-.1289-.22657-.04688-.22656.04687-.22266.1289-.21093.21485-.1914.29297-.16017.36719-.125.4336-.08203.5-.03125.5625h-.83203l.03906-.58985.10938-.58203.17969-.54688.2461-.49219.30077-.41796.17188-.17579.1836-.15234.1953-.1211.20703-.08593.21875-.0586.23047-.01953m5.09375 0h.50782v6.29688h-.78907v-4.48828h-1.38672v-.5586l.5586-.0625.2539-.05468.23047-.08985.20313-.14062.17187-.21094.14063-.29297.10937-.39844m6.80078 1.6211h-.78515l-.05078-.21094-.08203-.1875-.10938-.15625-.1289-.13281-.14454-.10156-.16015-.07422-.16797-.04688-.17578-.01562-.32813.04296-.28515.1172-.2461.1953-.20312.26954-.16016.33984-.11719.40234-.0703.46875-.02345.52735.1875-.20313.1875-.16015.1836-.1211.1875-.08984.1875-.0625.1914-.03516.40235-.02344.3086.03125.3203.08985.31641.15625.29297.21875.2539.28515.19922.35157.07422.19922.05078.21875.03125.23437.00391.25-.78906.04688-.02344-.25782-.07813-.2539-.125-.23438-.16015-.20703-.1914-.17969-.21876-.13671-.24219-.08985-.2539-.02734-.25781.02734-.23828.08985-.21875.13671-.19532.1797-.16015.20702-.1211.23438-.07812.2539-.02735.25782.02735.2578.07812.25392.1211.23437.16015.20703.19531.17969.21875.13672.23829.08594.2578.03125.25392-.03125.24218-.08594.21875-.13672.1914-.17969.16017-.20703.125-.23438.07812-.2539.02344-.25781.78906-.04688-.03125.3711-.09375.37109-.15625.35937-.22266.32813-.28906.28125-.17187.1211-.1875.10156-.20703.08203-.22266.0625-.24219.03906-.25781.01172-.28516-.01563-.25781-.04687-.23828-.07813-.21484-.10156-.19532-.13281-.17578-.15625-.15234-.17969-.13672-.20313-.11719-.22265-.09766-.24219-.14843-.53515-.08203-.59375-.02735-.64063.03906-.74219.11329-.66406.1875-.57813.11718-.2539.13672-.23047.15625-.20703.16797-.17969.1875-.15625.20313-.1289.21484-.10157.23438-.07422.24609-.04687.26172-.01563.36719.03516.33203.09766.29687.14843.2539.19922.21095.24219.16796.27344.11328.30469.0625.3203"/></g></defs><use xlink:href="#ax"/></svg>