<svg xmlns="http://www.w3.org/2000/svg" role="img" xmlns:xlink="http://www.w3.org/1999/xlink" viewBox="142.45 309.95 326.84 171.84"><defs><clipPath id="a"><path d="M144 311.67188h1v168.65625h-1zm0 0"/></clipPath><clipPath id="b"><path d="M144 311.67188h324v168.65625H144zm0 0"/></clipPath><clipPath id="c"><path d="M467 311.67188h1v168.65625h-1zm0 0"/></clipPath><clipPath id="d"><path d="M144 479h4v1.32813h-4zm0 0"/></clipPath><clipPath id="e"><path d="M147 480h2v.32813h-2zm0 0"/></clipPath><clipPath id="f"><path d="M153 479h9v1.32813h-9zm0 0"/></clipPath><clipPath id="g"><path d="M160 480h2v.32813h-2zm0 0"/></clipPath><clipPath id="h"><path d="M166 479h9v1.32813h-9zm0 0"/></clipPath><clipPath id="i"><path d="M172 479h2v1.32813h-2zm0 0"/></clipPath><clipPath id="j"><path d="M180 478h8v2.32813h-8zm0 0"/></clipPath><clipPath id="k"><path d="M186 479h2v1.32813h-2zm0 0"/></clipPath><clipPath id="l"><path d="M193 478h8v2.32813h-8zm0 0"/></clipPath><clipPath id="m"><path d="M199 479h2v1.32813h-2zm0 0"/></clipPath><clipPath id="n"><path d="M207 477h7v3.32813h-7zm0 0"/></clipPath><clipPath id="o"><path d="M220 477h7v3.32813h-7zm0 0"/></clipPath><clipPath id="p"><path d="M235 477h5v3.32813h-5zm0 0"/></clipPath><clipPath id="q"><path d="M248 477h5v3.32813h-5zm0 0"/></clipPath><clipPath id="r"><path d="M262 476h4v4.32813h-4zm0 0"/></clipPath><clipPath id="s"><path d="M275 476h4v4.32813h-4zm0 0"/></clipPath><clipPath id="t"><path d="M289 476h3v4.32813h-3zm0 0"/></clipPath><clipPath id="u"><path d="M303 476h2v4.32813h-2zm0 0"/></clipPath><clipPath id="v"><path d="M316 476h2v4.32813h-2zm0 0"/></clipPath><clipPath id="w"><path d="M329 476h2v4.32813h-2zm0 0"/></clipPath><clipPath id="x"><path d="M343 476h2v4.32813h-2zm0 0"/></clipPath><clipPath id="y"><path d="M356 476h2v4.32813h-2zm0 0"/></clipPath><clipPath id="z"><path d="M366 478h8v2.32813h-8zm0 0"/></clipPath><clipPath id="A"><path d="M382 476h3v4.32813h-3zm0 0"/></clipPath><clipPath id="B"><path d="M394 477h6v3.32813h-6zm0 0"/></clipPath><clipPath id="C"><path d="M406 479h9v1.32813h-9zm0 0"/></clipPath><clipPath id="D"><path d="M412 479h2v1.32813h-2zm0 0"/></clipPath><clipPath id="E"><path d="M420 478h7v2.32813h-7zm0 0"/></clipPath><clipPath id="F"><path d="M433 478h8v2.32813h-8zm0 0"/></clipPath><clipPath id="G"><path d="M439 478h4v2.32813h-4zm0 0"/></clipPath><clipPath id="H"><path d="M438 479h3v1.32813h-3zm0 0"/></clipPath><clipPath id="I"><path d="M446 479h8v1.32813h-8zm0 0"/></clipPath><clipPath id="J"><path d="M453 479h3v1.32813h-3zm0 0"/></clipPath><clipPath id="K"><path d="M460 477h7v3.32813h-7zm0 0"/></clipPath><clipPath id="L"><path d="M466 477h2v3h-2zm0 0"/></clipPath><clipPath id="M"><path d="M144 466h4v2h-4zm0 0"/></clipPath><clipPath id="N"><path d="M466 464h2v3h-2zm0 0"/></clipPath><clipPath id="O"><path d="M144 452h4v3h-4zm0 0"/></clipPath><clipPath id="P"><path d="M466 451h2v3h-2zm0 0"/></clipPath><clipPath id="Q"><path d="M144 439h4v2h-4zm0 0"/></clipPath><clipPath id="R"><path d="M466 439h2v4h-2zm0 0"/></clipPath><clipPath id="S"><path d="M144 426h4v2h-4zm0 0"/></clipPath><clipPath id="T"><path d="M465 423h3v2h-3zm0 0"/></clipPath><clipPath id="U"><path d="M144 413h4v2h-4zm0 0"/></clipPath><clipPath id="V"><path d="M466 411h2v3h-2zm0 0"/></clipPath><clipPath id="W"><path d="M465 412h3v2h-3zm0 0"/></clipPath><clipPath id="X"><path d="M144 399h4v3h-4zm0 0"/></clipPath><clipPath id="Y"><path d="M466 398h2v3h-2zm0 0"/></clipPath><clipPath id="Z"><path d="M465 399h3v3h-3zm0 0"/></clipPath><clipPath id="aa"><path d="M144 386h4v3h-4zm0 0"/></clipPath><clipPath id="ab"><path d="M466 385h2v3h-2zm0 0"/></clipPath><clipPath id="ac"><path d="M465 385h3v3h-3zm0 0"/></clipPath><clipPath id="ad"><path d="M144 373h4v2h-4zm0 0"/></clipPath><clipPath id="ae"><path d="M466 372h2v2h-2zm0 0"/></clipPath><clipPath id="af"><path d="M144 359h4v3h-4zm0 0"/></clipPath><clipPath id="ag"><path d="M466 358h2v3h-2zm0 0"/></clipPath><clipPath id="ah"><path d="M144 346h4v2h-4zm0 0"/></clipPath><clipPath id="ai"><path d="M466 345h2v3h-2zm0 0"/></clipPath><clipPath id="aj"><path d="M144 333h4v2h-4zm0 0"/></clipPath><clipPath id="ak"><path d="M466 332h2v3h-2zm0 0"/></clipPath><clipPath id="al"><path d="M144 320h4v2h-4zm0 0"/></clipPath><clipPath id="am"><path d="M465 317h3v3h-3zm0 0"/></clipPath><g id="an" clip-path="url(#clip1)"><path fill="#fff" fill-opacity="0" fill-rule="evenodd" d="M0 0h1000v1000H0zm0 0"/><path fill="#d3d3d3" fill-opacity="0" fill-rule="evenodd" d="M162.15234 355.86719l-.23437.29297.0586.23437.11718.17188.17578.23437.29297.34766.11328.0586.11719-.17188.0586-.23438.17577-.17578.46485-.17578h.69922l.23437.29297.28906.8164.0586.17579.17578.23046.35156.23438.69922.69922.17188.17578.23437.34765.23438.41016.28906.58203.41015.46485.23047.23437.23438.17578.11719.23047.17578.29297.17187 1.16406v.23438l.0586.28906.05859.11719.11719.11719.34765.41015.11719.17188.17578.17578.17578.23437.11719.17188.17188.35156.05859.23438.23437.40625.23438-.0586-.17578.17578-.0586.92969h-.58203l-.23437-.11328-.34766.11328-.11719.11719-.05859.29297-.0586.17578-.11718.17187-.46484.29297-.0586.23438-.0586.11328v.64453l.0586.17187v.41016l.0586.0586v.40624l.05859.40625.11719.17579.05859.05859.23047.64062-.0586.29297v.69922l-.05859.58203v.23438l-.0586.23047-.05468.35156v1.92187l.05469.1172h.42578l-.36719.11718-.02344.35156.89063 1.16797 1.74219.53906 1.33984.35938v.53906l.08984.8086.53516.71484 1.51953.26953.89063-.08594.08984 1.16406.53516.1797 1.16015-.1797 2.05469-.98437 1.16016-.36328 1.8789-.17578 1.69531-.1797-.17968.71876-1.51563.08594-1.25.08984-.80469.26953-1.07421.8086.26953.71875.53515.89843-.17968.625-.26563.8086.26563 1.07812.625.89844.80468.17969 1.25-.1797-.26562.72267.09766.5039.05468.29297v.17188l.0586.29296v.40625l.17578.1172.35156.11718h.40625l.29297-.17578.11328-.11719.0586-.11719.11718-.23047.0586-.17578.35156-.46484.23047-.17578.17578-.0586.17578.0586.0586.17578.11718.98828.05469.46875.0586.17188.11718.23437.17578.0586.8164.05859h.28907l.11719.23437.05859.40625.0586.35156v1.10547l.11718.29297.11719.34766.28906.69922.17578.35156.58203.7539.35157.17579.17187.0586.46875.23437.64063.46484.34765.23438.29297.17578.29297.05468.23047.0625.8164.34766.29297.17578.11328.17188.35157.35156.11719.17578.52343.64063v.28906l.0586.35156v.34766l.05859.35156.0586.28906.11718.0586.17188.05859h.17578l.58203.23437.17578.1172.17578.28905.17578.23438.11328.23437.29297.23047.11719.11719v.41016l.0586.05468.28906.23438.23437.11719.0586.11718.11718.17188.0586.11719.23047.23437.05859.17578.23437.0586.1172.05859-.1172.11328-.05859.11719v.11719l-.11719.29296-.11719.28907v.58203l.17579.11719.11718.05859.0586.11719.11719.11719.11328.05859.17578.34765.0586.35157.05858.40625v.17578l-.05859.17578-.11719.69922v.17187l.1172.17579.29296.29296h.40625l.17578.1172.11719.17187.11719.29296v.23438h-.52735l-.23047-.23438h-.23437l-.17578.0586-.0586.69922.0586.34765.11719.17579.17578.41015.11718.23047.28907.46875.17578.05469h.52344l.23437.0586.75781.64062.0586.29296v.23438l.05859.0586.23047.34765v.35156l-.11719.17188v.29297l.29297.28906.29297.17578.17187.0586.29297.17577.29297.1172.58203.40624.28906.23438.29297.17578.21875.16015.01563.01172.23047.17579.64062.52343.17578.23438.1172.17578.17577.17578.11328.17188v.64062l.1172.17578.46874.11719.58203.11719.23438.05859.23047.11328.29297.11719.11328.0586.58593.35156.28907.17187.17578.0625.17578.05469.17578.0586.69922.35155.28906.17579.23438.05468.28906.17578.23437.1172.64063.40624.29297.11719.17187.0586.23438.05859.41015.05859.23047.0586.23438.11718.0586.17188-.41017.17578.46875.0586.0586.29296.11328.23438.17578.05468.23438.0586.17578.05859.40625.11719.64062.23437.11719.17188.0586.23437v.17578l-.0586.1172-.0586.40624.23438.23438.11719.05859.34766.11719.64062.23047.17578.11718.28906.1172.17578.17577.23438.46485.58203 1.10546.17578.17579.34766.17578.17578.11719.35156.11718 1.04688.52344.23437.0586.46485.11327.29297.0586.46484.17578.75781.58203.23438.23438.34765.46484.17578.17578.28907.23438.8164.69921.29297.17579.28906.28906.29297.17578.29297.28906.69531.64063.17578.17578.29297.23437.28907.23438.46875.28906.64062.58203.34766.23438.23437.29297.34766.34765.35156.46485.9336.99218.34765.40625.11719.17579.23437.05859.11328.11719.64454.17578.23047.11328.23437.0586.29297.17577.23047.1172.9336.69921.40624.40625.23438.17578.40625.17578.23437.11719.8164.34766.34766.23437.23438.11719.29297.28906.23047.11719.7578.35156.35157.17188.23047.05859.29297.11719.23437.0586.8711.17577h.8164l.46875.23047.17188.0586.875.69921.46484.1172.29297.05858.17578.0586.23047.0586.46875.05859.34766.05859.35156.0586.40625.05859h.29297l.17187.0586v.23046l.17578.17578h.29297l.34766.0586.35156.05859.69922.11719h.64063l.46484-.23438.29297-.17578.17187-.11719.41016-.17187.28906-.17578.9336-.46485.46875-.29297.52343-.29296.46485-.17188.46484-.17578 1.05078-.46485.28906-.11718.41016-.11719.28906-.11719.52735-.17578 1.51562-.69922.58203-.34765.28907-.0586.29297-.0586.34765-.11718.875-.23047.35156-.11719h.11329l.23437-.05859.875-.23437.23438-.0586h.8125l.35156-.0586.8164-.11718.17188-.0586.35156-.05468.29297-.0586.23047-.05859.8164-.17578.17579-.0586h.34765l.23438-.05859.46484-.11718.75781-.17188.23438-.0586h.34765l.41016-.11718.28906-.0586 1.28516-.05859h.28906l.41016-.0586.23047-.05858h.17578l.875-.1172h.40625l.41015-.11718h.34766l.35156-.11328.8711-.0586h1.75l1.04687.28907.41016.11719.28906.11718.35156.11719.28907.11719 1.05078.17187.28906.0586h.29297l.29297.05859.17187.0586.41016.05859.17187.0586.1172.05858h.11718l.11719.0586.35156.0586h.11328l.41016.0664 1.92187.39453 1.92578.39453 1.51953.44922 1.69532.71875 2.14453.80469 1.60547-.71875 1.42968-.80469 1.16016-1.07813 1.25-.44921 3.03516-.71875 1.875-.35938 2.14453-1.34765 2.23437-1.25391 2.5-1.25781 1.69531-.44922 1.78516-.17969 1.16016-.26953.625.53906 1.33984-.26953.71485-.98828.98437-1.34375.44531-.17969.80469-.35937 1.875-.53907 1.78516-.44921 1.25-.26954 1.16015-.08984 1.69922-.08984 1.96094-.26954 1.25-.08984h.53906l.625-.08984h.89063l2.14453-.17969 2.41015-.17969 2.58985-.08984 1.69531.17969 1.60938.08984 1.42968.35938 1.16016.71875 1.875.98828 1.16015 1.52734.26563.71484.6289.08985.35548.89844.53515.53906.53516 1.52734 1.07422.35938h.53515l-.80469.53515.08985 1.70703.71484 2.69532.89063.80468.89453.98829.71484 1.2578 1.78516.53907 1.51953-.17969.35547 1.34375 1.60937-.80469.98047-.53906.26953.26953.31641-.21484.21875-.14453.80078.44922.44922-.35938h.35547l.53515-.26953.53907-.71875.53515-.26953.625-.98828 1.16016.44922.83984.3711 1.39454.61718 1.6953-.17969h1.60548l1.78515.08985.17969-1.70704.53516-1.34375.80468.26954.4922.84765.40233.40625-.08984.53906v.35938l.71485.44922.71093-.26953h1.42969l.35938.98828.4453 1.25781.71485 1.34375 1.25.6289 1.69531.62891.71485-.17969.17969-.53906.98046-.08984.44922.35937.08594 1.25782-.26563.6289-.53515.17969v.53906l.71484.98438.26563.53906.98437.98828.80078 1.07813-.26562.35937-.08985.89844-.625 2.33203-.35546 2.0664-.08985 1.79298-.17969.71875-.08984.53906v1.4375l-.98047 1.88281-.35937 1.70703-.53516.89844-.80469 1.16797-.26562.53906 2.05469 1.2539.08593.35938-.35546.53906-.08985-.17968v.80859l.08985 1.4375-.44532.71484-1.07422.09375-.26562.71485.53515.89844.8047.71875 1.16015.80859 1.33984.26953.44531.35938-.35546.44921-1.78907-.08984-1.25-.44922-.71484-.71875-.625-.08984-.17578 3.58984-.1875 1.3086h89.35937V311.70313h-55.26953v49.08203l.76172.125 3.28906.54296 2.02344 2.83594v2.7539l2.35156.33204 2.34766.33203h4.05078l-1.3789 4.16016-2.02344.70703-2.02344.70312-.54297.34375-2.59375 1.6172-.1875.11718-2.02344-2.07813-.73046-2.74218-2.67188-2.07813-1.375-3.5-.0664-.08203-1.95704-2.67188 2.75-1.41796v-49.08204H294.42187v91.41407l.1172.03125.1328.01172.07422.07421.10547.04688.08985.0586.08593.05859.08985.0586.29687.29687.0586.08984.03125.11719.02734.11719.01563.13671-.03125.1172-.0586.08983-.0586.08594-.04296.10547-.04688.10156-.02734.1211v.14453l.17578.26953.14844.14844.07422.08594.07422.07421.04296.10547.0625.08985.0586.08593.04297.10547.0586.08985.04687.10156.04296.10547.0586.08594.11719.17968.07421.07422.0625.08594.0586.08984.04297.10547.0586.08985.05858.08593.0625.08985.0586.08984.04297.10156.11719.17969.07421.07422.0586.08594.07422.07421.08984.0586.10547.04687h.14844l.1328-.01562.13282.01562.10156-.04687.07422-.07422.04688-.10156-.01563-.13281v-.14844l-.04687-.10547-.02735-.11719-.04687-.10156-.02735-.1211-.04296-.10156-.0625-.08984-.04297-.10156-.04297-.10547-.03125-.11719-.01563-.13281-.01171-.13672.08593-.0586.0586-.08593.12109-.03125.04297.10547.01562.1328v.1172l.0586.10156.0586.08984.08983.0586.14844.14843.0586.08985.04296.10547-.01171.10156.08593.0586.10547.04687.08594.0586.08984.05858.07422.07422-.11719.02735-.10546.04687-.08594.0586-.07422.07421-.0586.08985-.0625.08594-.02734.12109-.04687.10156-.04297.10547-.03125.11719-.01172.13281-.01563.13281v.14844l.02735.11719.04687.10547.04297.10156.0586.08984.07421.07422.08985.0586.07422.07421.08984.0586.0586.08984.04296.10547.04688.10156.11719.03125.1328.01563h.14845l.11718-.03125.10547.04297.04297.10547.04688.10156.02734.1211L299.5 410l.02734.11719.03125.1211.02735.11718.10547.04297.10156.04687.13281-.01562.14844.14844.0625.08593.07422.07422.07031.07422.08984.0625.10547.04297.10156.04297.1172.03125.13671.01562.11719-.03125.07422-.07422.02734-.11718-.01172-.13282-.03125-.12109-.02734-.11719.04297-.10547h.11719l.08984.0625.11719.02735h.14843l.13282.01562h.14843l.13282.01563.1328-.01563h.14845l.1328-.01562.13282-.01172.13672.01172.11719-.02735.13281-.01562.1914-.0586-.05859.17579-.01562.1328-.02735.1211-.01562.13281-.0586.08594-.1328.01563-.10548.04687-.10546.04297-.1172.03125-.11718.02735-.26563.03125h-.14843l-.13281.01562-.07422.07422.05859.08594.14844.14843.11719.1797.07421.0703.08985.0625.08984.0586.08594.0586.08984.05858.10156.04297.10547.0625.10547.04297.08594.0586.10547.04687.10156.04297.17969.11719.0586.08984-.04298.10156-.04687.10547.01562.13281.22266.22266.0586.08985.04296.10156.03125.1211.04297.10155.01563.13282.03125.11718.01171.13672.03125.11719.14844.14844.10156.04297.10547.04296.1172.03125.1328.01563.13672.01563h.11719l.11719-.03125.08984-.0586.04297-.10547.04688-.10156.04296-.10547.03125-.11719.01172-.1328v-.14845l-.01172-.1328-.01562-.13282-.03125-.11719-.04297-.10547-.04688-.10547-.04296-.10156-.04297-.10547-.01563-.13281.01563-.13281.02734-.11719.03125-.11719.02735-.1211.04687-.10155.08984-.0586.08594-.0625.07422-.07422.08984-.05859.22266-.22266.0586-.08593.07421-.07422.11719-.17969.0586-.08594v-.14844l-.07423-.07421-.10156-.04688-.10547-.04297-.10156-.04297-.0586-.08984-.04687-.10547-.02734-.11719.08984-.05859.11719-.03125.10156-.04297.17969-.11719.14844-.14843.01172-.13282-.01172-.10546-.08985-.0586-.1328.01563h-.14845l-.1328.01562-.13282-.01562-.1211-.03125-.08593-.0586-.07422-.07422-.0586-.08984-.0625-.08594-.11718-.17969-.0586-.08593.03125-.1211.08594-.05859.1211-.03125.05859-.08594v-.1211l-.03125-.11718-.0586-.08984-.05859-.08594-.04687-.10547-.02735-.11719-.01562-.1328.0586-.08985.07421-.07422.08984-.0586.1172-.17968.07421-.07422.0586-.08594.14843-.14844.1211-.03125.1328-.01562.13282.01562.07422.07422.04297.10547.01562.13281-.03125.1172-.11719.03124-.1328.01172-.14844.14844-.04297.10547-.04688.10156-.02734.1211-.03125.11718v.14844l.03125.11719.04297.10546.05859.08985.07422.07031.07422.07422.11719.03125.12109.02734.11719-.02734.1328-.01563h.1172l.08984.0586.07422.07422.04687.10546.0586.08594.10156.04688.13281.01562.10547.04297.08594.0586-.01172.10546-.07422.07422-.17969.11719-.05859.08984-.08984.0586-.07032.07422-.07421.07421-.0625.08985-.02735.11719-.01562.1328.01562.13282-.01562.13281v.14844l.01562.13281.02735.1172.03125.12108.07421.07422.08985.0586.08594.0586.08984.05858.11719.03125v.08594l-.10157.04688-.08984.0586-.26563.03124-.11718.02735h-.14844l-.10547.04296-.10156.04688-.0586.08984-.0625.23438-.01171.13281-.03125.1211-.01563.1328v.29298l-.01172.1328.01172.13673.01563.1328.1328.01563.13282.01172.1211.03125.08593.0586.07422.07421.04688.10547.04296.10157.01563.1328v.44532l-.01563.13281v.44532l.03125.26562.02735.11719.01562.13281.03125.11719.08594.21094.03125.26562v.14844l-.03125.11719-.02734.11718-.03125.1211-.02735.11719-.03125.11718-.03125.1211-.01171.1328-.01563.13282.08984.0586.1172-.03125.10155.01562.04688.10547-.03125.26562v.44141l-.04297.10547-.04688.10547-.04296.10156-.04297.10547-.0586.08594-.03125.12109-.04296.11719-.03125.11719-.01563.1328.01563.13282.05859.08984.10547.04688.08594.0586.05859.08593-.01172.13672-.03125.11719-.04297.10156v.44531l-.01562.13281v.14844l-.03125.11719-.04297.10547-.02735.11719-.04687.10546-.04297.10157-.03125.12109-.02734.11719-.03125.13281-.03125.11719-.02735.11719-.04297.10546-.03125.1172-.03125.12108-.01171.13282-.01563.13281v.29688l.02734.11718v.14844l.04688.39844.02734.11719.0586.08984.12109.03125h.14844l.13281-.01563.0586.08985v.11719l-.0586.08984-.08984.0586-.10157.04296-.10546.04688-.08985.05859-.08594.0586-.13671.01562-.1172-.03125-.1328-.01563-.10157.04688-.0625.08594-.01172.13671-.01562.13282-.03125.11719-.02735.11718-.01562.13281-.03125.1211v.29687l.01563.13282.03125.11718v.14844l.01171.13281v.14844l-.02734.11719-.04688.10156-.02734.1211-.03125.11718-.0586.08985-.07421.07421-.10156.04297-.10547.04688-.11719.02734-.1211.03125-.10156-.04687.0586-.08594.10547-.04688.02734-.11718.03125-.11719.02734-.1211.03125-.11718v-.14844l.01563-.13281-.03125-.11719-.04297-.10547-.10547.01563-.07422.07422-.10156.04296-.08984.0625-.07422.07422-.04297.10157-.01563.1328-.03125.1172L304.25 426l-.03125.11719-.02734.11719-.03125.12109-.02735.11719-.03125.11718-.04297.10547-.08984.0586h-.08984l-.1172-.03125-.03124-.08594.01562-.13672-.03125-.11719v-.14844l-.01171-.1328v-.14844l-.0625-.23438-.02735-.1211-.04297-.10156-.04687-.10546-.0586-.08594-.05859-.08985-.04297-.10546-.0625-.08594-.14844-.14844-.0703-.07422-.10548-.04687-.10547-.04297-.10156-.04297-.29687-.29688-.08985-.07421-.08594-.0586-.10546-.04297-.08985-.0625-.08594-.0586-.10546-.04296-.08985-.0586-.08594-.0625-.07421-.0703-.10547-.04688-.08594-.0586-.10547-.04296-.08984-.0625-.10156-.04297-.10547-.04297-.08594-.0586-.10547-.04687-.10547-.04297-.10156-.04687-.08985-.0586-.10156-.04297-.10547-.04296-.08984-.0625-.11719-.02735-.13281-.01562-.13281.01562H299.75l-.13281.01563-.11719-.03125-.08984-.0586-.07422-.07422-.08985-.05859-.10156-.04688h-.14844l-.12109-.02734-.10156-.04297-.07422-.07422-.11719-.17968-.08984-.0586-.10156-.04297-.08985-.0625-.10547-.04296-.08984-.0586-.08594-.0586-.10547-.04687-.0586-.08594-.05858-.08984-.04297-.10547-.04688-.10156-.07422-.07422-.08594-.0586-.07421-.07421-.08985-.0586-.22265-.22265-.04297-.10547-.03125-.26563.10547-.04296h.14453l.10547.04296.07421.07422.08985.0586.08594.0586.10546.04687.08985.05859.14844.14844.0703.07422.14845.14843.0625.08594.07421.07422.08594.0586.07422.07421.08985.0625.08984.0586.08594.05859.26953.17578.10156.04688.10547.04296.10156.04297.04688-.07421.05859-.08594.07422-.07422.07031-.07422.10547.04297.07422.07422.0586.08984.04296.10156.04688.10547.04296.10547.1211.02735.11719-.02735.07421-.08984.04297-.10547.0586-.08985.07422-.07421.10546-.04297.1172-.02735.1328.01172.08985.0586.14844.14843.05859.08985.04297.10547.04687.10156.04297.10547.04297.10156.10547.04688.10547.04296.13281.01563.08594-.0586.0586-.08984.07421-.07422.10547-.04297.11719.02735.10547.04687.10156.04297.10547.04297.10156.04688.17969.11718v.11719l-.01563.13281.01563.13281.01562.13672.0586.08594.10156.04688.1211.02734.11718.03125h.14844l.11719-.03125.05859-.08984.17969-.1172.05859-.08983.07422-.07422.0586-.08594.11718-.17969.17969-.11719.11719.03125.08984.0586.04297.07422-.01563.1328v.1172l.08985.05859h.14843l.13282-.01563.1328-.01171.26563-.03125.10547-.04297.11719-.03125.1211-.02735.07421-.07421.07031-.07422.0625-.08985-.01562-.10547-.04688-.10156-.10156-.04297-.10547-.01562-.11718.02734-.26563.03125h-.14844l-.07421-.07422-.08985-.0586-.11719-.03124-.11718-.02735-.13282-.01562h-.14843l-.13282.01563h-.29687l-.10547-.04688-.14844-.14844-.04297-.10156-.05859-.08984.22266-.22266.08593-.0586.10547-.04296.11719-.03125.13281-.01563.13281.01563.13672.01562.10157.04297.1328-.01172.08985-.0625.10156-.04297.0625-.08984-.04687-.10156-.08984-.0586-.1172-.03125-.10155-.04296-.0586-.08985-.0625-.08984v-.11719l.01563-.13281.10547-.04688.07421-.07031v-.1211l-.08984-.05859-.03125-.11719.08985-.05859.07421-.07422.04297-.10547.0586-.08984.04687-.10156.01563-.13281v-.14844l-.04688-.10547-.04297-.10156-.08984-.0586-.13281-.01562-.10157-.04297-.13671-.01563-.1172-.03125h-.4453l-.13282-.01562-.13281-.01172-.13281-.01563-.11719-.03125h-.14844l-.13281-.01562-.13281-.01172-.26563-.03125-.1211-.04297-.08593-.0586-.07422-.07421v-.14844l.01172-.13281.10547-.04688.10156-.04296.13281-.01563h.15235l.13281-.01562h.29297l.1211.03125.10156.04296.08984.0586.23438.0625.12109-.04688.08984-.05859.10156-.04297.13282-.01562.10547.04296.10156.04688.13281.01172.1211-.02735h.14453l.12109-.03125.11719-.02734.10547-.04687.07421-.07422.08594-.0586.14844-.14843.0586-.08594.04687-.10547.02734-.11719.01563-.10547-.10156-.04296-.08985-.0586-.11719-.03125-.10546-.04297-.08985-.0625-.07422-.08594-.07422-.07421-.10156-.04297-.10547-.04688-.10156-.04297-.0586-.08984-.04687-.10156-.08594-.21094-.0625-.08594-.05859-.08984-.07422-.07422-.08594-.0586h-.26953l-.11719.03126-.08984.05859-.10156.04297-.13281.01562-.10547-.01562-.02735-.11719-.0625-.08984-.11718-.03125-.10157-.04297-.14843-.14844-.03125-.11719-.01563-.10546.07422-.07422.17969-.1172.11719-.02733.11718-.03125.13672.01562.10156.04297.10547.04297.10156.04687.10547.04297.1172.03125.1328.01563.1172.02734.1328.01563.10547-.01563.08985-.0586-.07422-.07421-.10547-.04297-.07422-.07422-.07422-.08984-.14844-.14844-.08593-.0586-.08985-.05859-.07422-.07422-.08984-.0586-.10156-.04687-.1211-.02734-.10156-.04688-.10547-.04296-.11719-.03125-.10156-.04297-.1211-.03125h-.14843l-.11719.03125-.10546.04297-.08594.0625-.17969.11718-.08594.0586-.08984.0586-.10547.04687-.08594.05859-.10547.04297-.10156.04297-.10547.04687-.07422.07422-.05859.08985-.0586.08593-.04687.10547-.0586.08594-.07421.07422-.13281-.01172-.1172-.03125h-.11718l-.07422.07422-.08984.0586-.07422.07421-.08984.0586-.08594.05859-.10547.04687-.10156.04297-.13672.01563-.10156-.04297-.14844-.14844-.10547-.04688h-.08594l-.10547.04688-.10156.04297-.1211.03125-.11718-.03125-.07422-.07422v-.11719l.03125-.1211.07422-.0703.0586-.08985.07421-.07422.11719-.03125.10547-.04296h.29297l.13281-.01563.13672-.01563.10156-.04296.08985-.0586.10156-.04687.08984-.0586.13281-.01171.08985.05859.13281.01172.08984-.0586.08594-.05859.10547-.04297.08984-.0586.08594-.0625.08985-.05859.14843-.14843.0586-.08594.05859-.08985.10547-.04296.13281-.01563.11719.02735.1211.03125.05859-.0586.05859-.08984.03125-.26563.02734-.11719.10547.01172.13281.01563.10157-.04297.08984-.0586.0586-.08984.07421-.07422.0586-.08984.04687-.10156.01172-.13281-.01172-.13282-.04687-.10547-.14844-.14843-.0586-.08985-.05859-.08594-.04297-.10546v-.44532l.01563-.1328v-.14845l.01172-.1328-.0586-.0586-.08984.0586-.10156-.04298-.17969-.11719-.08594-.05859-.0625-.08984-.0586-.08985-.07421-.07421-.08594-.0586-.1211.03125-.10155.01172-.10547.04688-.08594.05859-.10547.04297-.14844.14844-.08984.05859-.08594.0586-.08984.0625-.10547.04296-.13281.01563v-.1211l.10547-.04297.11718-.03125.07422-.0703.04297-.10548v-.14844l-.02734-.11718-.14844-.14844-.13281-.01563h-.14844l-.11719.03125-.10547.04297-.10156.04297-.08984.0625-.11719.02735-.07422-.07422.01172-.13281-.04297-.10157-.04297-.10547-.08984-.05859-.11719.02734-.1211.03125-.11718.03125-.10156.04297-.1211.03125-.10156.04297-.10547.04297-.08984.0586-.10156.01562v-.11719l.01562-.13281-.0586-.08985-.07421.04297-.14844.14844-.0586.08985-.07421.07421-.04688.10547-.04296.10156-.07422.07422-.0586.08985-.07422.07422-.05859.08593-.07422.07422-.08984.0625-.07422.07031-.07422.07422-.10156.01563-.13281.01562-.10547-.04296v-.1211l.14843-.14844.04297-.10156.0586-.08984.04687-.10156.04297-.10547.0586-.08985.03124-.11719.04297-.10156.03125-.1211.02735-.11718.04687-.10547.04297-.10156.04297-.10547.07422-.07031.08984-.0625.08985-.0586.10156-.04296h.29687l.26563-.03125.10547-.04297-.07422-.07422-.11719-.03125-.10547-.04297-.08984-.0586-.10156-.04687-.08985-.0586-.10156-.04296-.10547-.04297-.08984-.0625-.08594-.0586-.10547-.04296-.10156-.04297-.1211-.03125-.11718-.03125-.10157-.04297L297.5 410.25l-.10156-.04297-.08985-.0586-.04296-.10546-.01563-.13281.10156-.04297.13281-.01563.13672.01563.13282-.01563.10156-.04297.0586-.08984.01562-.10547-.08985-.0586-.07421-.07421-.10157-.04297-.08984-.0586-.14844-.14843-.04297-.10547-.01562-.13281v-.29297l-.0586-.08985-.08984-.05859-.07422-.07422-.04297-.10547-.03125-.11718-.0586-.08985-.07421-.07422-.11719-.02734-.07422-.07422-.08984-.0586-.08984-.0625-.08594-.05859-.07422-.07421-.0586-.08594-.04687-.10547-.08594-.0586-.14843-.14843-.19532-.0586-.1328.01563-.10157.04297-.07422.07422-.04688.10156-.04296.10547-.0586.08984-.0586.08594-.29687.29687-.08984.0586h-.08594l-.0625-.08594-.04297-.10547.03125-.11719.0586-.08984.02734-.11719-.01172-.13281-.08984-.0625-.10547.04688-.11719.02734-.11719.03125-.26953.17578-.10156.04688-.11719.02734-.10546.04687-.08985.0586-.10156.04297-.0586-.08594-.04687-.10547.01563-.13281.04687-.10547.07031-.07422.07422-.07031.0586-.08985v-.14843l-.04297-.10547h-.23829l-.10156.04687-.03125.11719-.02734.11719-.03125.1211-.07422.04296-.13281.01563-.07422-.04688-.04297-.10156-.04297-.10547-.04687-.10156-.04297-.10547-.1211.03125-.10156.04297-.13281.01562-.11719.03125-.10547.04297-.08984.0586-.10156.04687-.1211.02734-.13281.01563-.10156-.04297-.0586-.08985-.04687-.10546-.04297-.10157-.04297-.10546v-.1172l.0586-.08984.08593-.05859.17969-.11719.10156-.04687.10547-.04297.10547-.0586.10156-.04296.08985-.0625.10156-.04297.10547-.0586.10156-.04687.08984-.0586.10547-.04296.10156-.04297.08985-.0625.10156-.04297.13672-.01563.11719.03125.10156.04297.1211.03125.10156.04297.10546.04688.10157.04296.10547.04297.10156.04688.10547.04297.10156.04297.10547.04687.08594.0586.10546.04296.1172.03125.10546.04297.10156.04688.08985.0586.10547.04296.10156.04297.10547.04687.11719.02735.10156.04687.1211.02735h.14843l.08594-.0586.01562-.10156.0586-.08984-.02735-.1172-.07422-.07421-.11719-.17969-.07421-.07422-.08985-.07421-.17969-.1172-.08593-.05859-.10547-.04296-.10156-.04688-.26954-.17578-.05859-.08985-.07422-.07421-.0586-.08985-.04296-.10156-.03125-.11719-.01563-.13672v-.5625l-.01171-.1328-.01563-.13282-.03125-.11719-.01562-.13281-.01172-.13281-.03125-.1211-.22266-.22265-.0586-.08594-.01562-.10547.03125-.11719.13281-.01562v-91.41406H172.9922v1.45312l-.0586.23438-.35156 1.05078-.17187.52343-.1172.34766-.17577.41016-.11719.17187-.23438.29297-.23046.0586h-.35157l-.11718.05859-.23047.40625v.29297l.11719.17578.23046.23047.1172.23437.64062.75781.29297.46485.17578.23437.23047.35156.23437.34766.64063.8164.17578.46485.17187.41016.11719.69531.17578.46875.11719 1.39844.0586.46484v.875l.11718 1.04688v4.78125l-.0586.46484-.35156 1.28125-.17578.52344-.11328.41015-.35156.9297L172.93359 336l-.23437.58203-.11719.17578-.17187.34766-.17578.40625-.35157.8164-.0586.29297-.11327.29297-.11719.28906-.0586.17579-.11718.875-.0586.40625-.05859.11718-.0586.17579-.05859.17187-.23047.52734-.11718.17188v.23437l-.11719.23438-.0586.17187-.17577.58594v.28906l-.0586.17579v.29296l-.0586.11329-.05859.52734v.17187l-.05468.23438v2.6211l-.17578.8164-.1172.17578-.17577.23438-.1172.17187-.11327.23438-.58594.93359-.23047.28906-.29297.46485-.17578.23437-.28906.35156-.35156.69922-.11328.23047-.17579.41016-.17578.23046-.40625.52735-.8164.69922-.29297.17187-.28906.23438-.17579.11719-.17578.17578-.52344.40625-.52734.17578-.17187.17578-.23438.05469-.64062.17578h-.75782m12.21094 31.02344l-1.07422.44921.35938.89454 1.25-.71485.44531-.53906-.98047-.08985"/><path fill="#d3d3d3" fill-opacity="0" fill-rule="evenodd" d="M201.50781 416.59766h-.89453l.44922.6289.98047.35938.80469-.08985.4453-.98828-.17577.08985-.71485-.35547-.89453.35547m154.6211 59.0703l-.0586-.52343v-.29297l.11328-.29297.0586-.23046.46875-.46875h.11328l.11719-.11329.11718-.05859h.17579l.23437-.0586h.34766l.23437.0586.11719.0586.23047.17187.0586.17578.11718.58203v.29297l-.11719.17578-.17187.28906-.17579.17579-.52734.52343-.23047.23438-.11719.0586h-.17578l-.11718-.0586-.40625-.29297-.17579-.11719-.11718-.0586-.0586-.11327-.05468-.1172m6.64062-10.95702l-.0586-.17188v-1.10937l.0586-.17188.17578-.0586.17188-.05858h.17578l.23437-.0586.1172.0586.05858.69921-.05859.17188-.11719.17578-.11718.0586-.23438.52343-.11328.0586h-.23438l-.05859-.1172m9.61328-14.39062l-.11719-.17578v-.69922l.29297-.875.1172-.17187.17577-.35156.11328-.23047.1172-.29297.35155-.75781.1172-.23047.17187-.23438h.17578l.11719-.0586h.64062l.11719.0586.23437.23438.17188.11328.35156.29297.11719.11718.11328.17579v.11328l.11719.05859.11718.11719v.69922l-.05859.17578v.23047l-.0586.17578-.34765 1.05078-.11719.23047-.11719.23437-.11718.0586-.23047.23437-.64063.28906h-.875l-.41015-.11718-.64063-.46485"/><path fill="none" stroke="#bebebe" stroke-linecap="round" stroke-linejoin="round" stroke-miterlimit="10" stroke-width=".5" d="M467.95703 311.69531H144.02734v168.625h323.9297v-168.625"/><g clip-path="url(#a)"><path fill="#fff" fill-opacity="0" fill-rule="evenodd" d="M144 475.89063v4.4375h.0039H144V311.67188h.0039H144v164.21875"/></g><g clip-path="url(#b)"><path fill="#fff" fill-opacity="0" fill-rule="evenodd" d="M144.0039 480.32813V311.67188h244.10548v147.375l-4.4375 2.53906-.89063.98828.89063 1.07031 4.4375 2.04688 3.04687-3.1172-3.04688-3.52733v-147.375h79.88672v168.65625H144.00391"/></g><path fill="#50fcfc" fill-rule="evenodd" d="M383.67188 463.64453l-.89063-1.07031.89063-.98828 4.4375-2.53906v2.48046l-1.4922 1.04688 1.4922.92578.90234-.92578-.90235-1.04688v-2.48046l3.04688 3.52734-3.04688 3.11719-4.4375-2.04688"/><path fill="#00e8fc" fill-rule="evenodd" d="M388.10938 463.5l-1.4922-.92578 1.4922-1.04688.90234 1.04688-.90235.92578"/><g clip-path="url(#c)"><path fill="#fff" fill-opacity="0" fill-rule="evenodd" d="M467.9961 480.32813H468V311.67188h-.0039H468v168.65625h-.0039"/></g><g clip-path="url(#d)"><path fill="none" stroke="#000" stroke-linecap="round" stroke-linejoin="round" stroke-miterlimit="10" stroke-width=".5" d="M147.40625 481.1875l-6.8125-1.71875"/></g><g clip-path="url(#e)"><path fill="none" stroke="#000" stroke-linecap="round" stroke-linejoin="round" stroke-miterlimit="10" stroke-width=".5" d="M147.40625 481.1875l.58594 2.38281"/></g><g clip-path="url(#f)"><path fill="none" stroke="#000" stroke-linecap="round" stroke-linejoin="round" stroke-miterlimit="10" stroke-width=".5" d="M160.76563 480.98047l-6.90235-1.30469"/></g><g clip-path="url(#g)"><path fill="none" stroke="#000" stroke-linecap="round" stroke-linejoin="round" stroke-miterlimit="10" stroke-width=".5" d="M160.76563 480.98047l.73046 2.34375"/></g><g clip-path="url(#h)"><path fill="none" stroke="#000" stroke-linecap="round" stroke-linejoin="round" stroke-miterlimit="10" stroke-width=".5" d="M174.14063 480.14844l-7.01954.35937"/></g><g clip-path="url(#i)"><path fill="none" stroke="#000" stroke-linecap="round" stroke-linejoin="round" stroke-miterlimit="10" stroke-width=".5" d="M173.11719 480.20313l.63281 1.05078"/></g><g clip-path="url(#j)"><path fill="none" stroke="#000" stroke-linecap="round" stroke-linejoin="round" stroke-miterlimit="10" stroke-width=".5" d="M187.26563 479.1836l-6.64063 2.28906"/></g><g clip-path="url(#k)"><path fill="none" stroke="#000" stroke-linecap="round" stroke-linejoin="round" stroke-miterlimit="10" stroke-width=".5" d="M186.30078 479.51563l.89844.83984"/></g><g clip-path="url(#l)"><path fill="none" stroke="#000" stroke-linecap="round" stroke-linejoin="round" stroke-miterlimit="10" stroke-width=".5" d="M200.51953 479.01172l-6.51562 2.63281"/></g><g clip-path="url(#m)"><path fill="none" stroke="#000" stroke-linecap="round" stroke-linejoin="round" stroke-miterlimit="10" stroke-width=".5" d="M199.57031 479.39453l.9414.78906"/></g><g clip-path="url(#n)"><path fill="none" stroke="#000" stroke-linecap="round" stroke-linejoin="round" stroke-miterlimit="10" stroke-width=".5" d="M213.39453 478.23438l-5.64062 4.1875"/></g><path fill="none" stroke="#000" stroke-linecap="round" stroke-linejoin="round" stroke-miterlimit="10" stroke-width=".5" d="M212.57422 478.84375l1.10937.52734"/><g clip-path="url(#o)"><path fill="none" stroke="#000" stroke-linecap="round" stroke-linejoin="round" stroke-miterlimit="10" stroke-width=".5" d="M226.65625 478.16016l-5.53125 4.33593"/></g><path fill="none" stroke="#000" stroke-linecap="round" stroke-linejoin="round" stroke-miterlimit="10" stroke-width=".5" d="M225.85156 478.78906l1.1211.5"/><g clip-path="url(#p)"><path fill="none" stroke="#000" stroke-linecap="round" stroke-linejoin="round" stroke-miterlimit="10" stroke-width=".5" d="M239.04297 477.33594l-3.67578 5.98828"/></g><path fill="none" stroke="#000" stroke-linecap="round" stroke-linejoin="round" stroke-miterlimit="10" stroke-width=".5" d="M238.50781 478.20703l1.22656.07422"/><g clip-path="url(#q)"><path fill="none" stroke="#000" stroke-linecap="round" stroke-linejoin="round" stroke-miterlimit="10" stroke-width=".5" d="M252.32031 477.3125l-3.60156 6.03516"/></g><path fill="none" stroke="#000" stroke-linecap="round" stroke-linejoin="round" stroke-miterlimit="10" stroke-width=".5" d="M251.79688 478.1914l1.22656.0586"/><g clip-path="url(#r)"><path fill="none" stroke="#000" stroke-linecap="round" stroke-linejoin="round" stroke-miterlimit="10" stroke-width=".5" d="M265.14453 477.0664l-2.61719 6.52344"/></g><path fill="none" stroke="#000" stroke-linecap="round" stroke-linejoin="round" stroke-miterlimit="10" stroke-width=".5" d="M264.76172 478.01563l1.22265-.12891"/><g clip-path="url(#s)"><path fill="none" stroke="#000" stroke-linecap="round" stroke-linejoin="round" stroke-miterlimit="10" stroke-width=".5" d="M278.60156 477.1289l-2.89844 6.40235"/></g><path fill="none" stroke="#000" stroke-linecap="round" stroke-linejoin="round" stroke-miterlimit="10" stroke-width=".5" d="M278.17969 478.0586l1.22265-.07813"/><g clip-path="url(#t)"><path fill="none" stroke="#000" stroke-linecap="round" stroke-linejoin="round" stroke-miterlimit="10" stroke-width=".5" d="M291.51563 476.97656l-2.10157 6.70703"/></g><path fill="none" stroke="#000" stroke-linecap="round" stroke-linejoin="round" stroke-miterlimit="10" stroke-width=".5" d="M291.21094 477.95313l1.20703-.22657"/><g clip-path="url(#u)"><path fill="none" stroke="#000" stroke-linecap="round" stroke-linejoin="round" stroke-miterlimit="10" stroke-width=".5" d="M303.61719 476.82031l.32812 7.01953"/></g><path fill="none" stroke="#000" stroke-linecap="round" stroke-linejoin="round" stroke-miterlimit="10" stroke-width=".5" d="M303.66406 477.83984l1.05469-.625"/><g clip-path="url(#v)"><path fill="none" stroke="#000" stroke-linecap="round" stroke-linejoin="round" stroke-miterlimit="10" stroke-width=".5" d="M317.32813 476.82422l-.46485 7.01172"/></g><path fill="none" stroke="#000" stroke-linecap="round" stroke-linejoin="round" stroke-miterlimit="10" stroke-width=".5" d="M317.26172 477.84375l1.11719-.5039"/><g clip-path="url(#w)"><path fill="none" stroke="#000" stroke-linecap="round" stroke-linejoin="round" stroke-miterlimit="10" stroke-width=".5" d="M330.73828 476.83203l-.65625 6.9961"/></g><path fill="none" stroke="#000" stroke-linecap="round" stroke-linejoin="round" stroke-miterlimit="10" stroke-width=".5" d="M330.73828 476.83203l2.26563-.94531"/><g clip-path="url(#x)"><path fill="none" stroke="#000" stroke-linecap="round" stroke-linejoin="round" stroke-miterlimit="10" stroke-width=".5" d="M343.26953 476.84375l.91406 6.96875"/></g><path fill="none" stroke="#000" stroke-linecap="round" stroke-linejoin="round" stroke-miterlimit="10" stroke-width=".5" d="M343.26953 476.84375l1.9961-1.42188"/><g clip-path="url(#y)"><path fill="none" stroke="#000" stroke-linecap="round" stroke-linejoin="round" stroke-miterlimit="10" stroke-width=".5" d="M356.71875 476.83203l.64453 6.9961"/></g><path fill="none" stroke="#000" stroke-linecap="round" stroke-linejoin="round" stroke-miterlimit="10" stroke-width=".5" d="M356.8125 477.84766l1.02344-.67188"/><g clip-path="url(#z)"><path fill="none" stroke="#000" stroke-linecap="round" stroke-linejoin="round" stroke-miterlimit="10" stroke-width=".5" d="M373.64844 479.10547l-6.58594 2.44922"/></g><g clip-path="url(#A)"><path fill="none" stroke="#000" stroke-linecap="round" stroke-linejoin="round" stroke-miterlimit="10" stroke-width=".5" d="M384.1836 483.80469l-1.02735-6.95313"/></g><g clip-path="url(#B)"><path fill="none" stroke="#000" stroke-linecap="round" stroke-linejoin="round" stroke-miterlimit="10" stroke-width=".5" d="M399.15625 483.09375l-4.33984-5.53125"/></g><g clip-path="url(#C)"><path fill="none" stroke="#000" stroke-linecap="round" stroke-linejoin="round" stroke-miterlimit="10" stroke-width=".5" d="M413.76172 479.71875l-6.92188 1.21875"/></g><g clip-path="url(#D)"><path fill="none" stroke="#000" stroke-linecap="round" stroke-linejoin="round" stroke-miterlimit="10" stroke-width=".5" d="M412.7539 479.89453l.75782.96875"/></g><g clip-path="url(#E)"><path fill="none" stroke="#000" stroke-linecap="round" stroke-linejoin="round" stroke-miterlimit="10" stroke-width=".5" d="M426.58594 478.44922l-5.9375 3.75781"/></g><path fill="none" stroke="#000" stroke-linecap="round" stroke-linejoin="round" stroke-miterlimit="10" stroke-width=".5" d="M426.58594 478.44922l2.13281 1.21484"/><g clip-path="url(#F)"><path fill="none" stroke="#000" stroke-linecap="round" stroke-linejoin="round" stroke-miterlimit="10" stroke-width=".5" d="M440.1914 479.01953l-6.51952 2.61719"/></g><g clip-path="url(#G)"><path fill="none" stroke="#000" stroke-linecap="round" stroke-linejoin="round" stroke-miterlimit="10" stroke-width=".5" d="M440.1914 479.01953l1.875 1.58203"/></g><g clip-path="url(#H)"><path fill="none" stroke="#000" stroke-linecap="round" stroke-linejoin="round" stroke-miterlimit="10" stroke-width=".5" d="M439.24219 479.40234l.9375.78907"/></g><g clip-path="url(#I)"><path fill="none" stroke="#000" stroke-linecap="round" stroke-linejoin="round" stroke-miterlimit="10" stroke-width=".5" d="M453.6836 479.59375l-6.8711 1.46875"/></g><g clip-path="url(#J)"><path fill="none" stroke="#000" stroke-linecap="round" stroke-linejoin="round" stroke-miterlimit="10" stroke-width=".5" d="M453.6836 479.59375l1.57812 1.8789"/></g><g clip-path="url(#K)"><path fill="none" stroke="#000" stroke-linecap="round" stroke-linejoin="round" stroke-miterlimit="10" stroke-width=".5" d="M466.38281 478.23438l-5.64062 4.1875"/></g><g clip-path="url(#L)"><path fill="none" stroke="#000" stroke-linecap="round" stroke-linejoin="round" stroke-miterlimit="10" stroke-width=".5" d="M466.38281 478.23438l2.21485 1.05078"/></g><path fill="none" stroke="#000" stroke-linecap="round" stroke-linejoin="round" stroke-miterlimit="10" stroke-width=".5" d="M465.5625 478.84375l1.10547.52734"/><g clip-path="url(#M)"><path fill="none" stroke="#000" stroke-linecap="round" stroke-linejoin="round" stroke-miterlimit="10" stroke-width=".5" d="M147.51172 467.08594l-7.02344-.14453"/></g><path fill="none" stroke="#000" stroke-linecap="round" stroke-linejoin="round" stroke-miterlimit="10" stroke-width=".5" d="M147.51172 467.08594l1.10937 2.1914m12.1875-2.64843l-6.98437.76953m6.98437-.76953l1.38282 2.02734m11.90234-2.22266l-6.92969 1.16016m6.92969-1.16016l1.4961 1.94532m11.76952-2.1875l-6.83203 1.64453m5.83985-1.40625l.8125.91797m13.17187-2.00782l-6.17969 3.34766m6.1797-3.34766l2.04296 1.35938m11.24219-1.41016l-6.1211 3.45313m6.1211-3.45313l2.0664 1.32031m11.1836-1.43359l-5.99219 3.67578m5.99219-3.67578L229 466.42188m10.76172-1.82032l-5.10938 4.82422m5.10938-4.82422l2.32422.78516m10.80078-.96875l-4.73438 5.1914m4.73438-5.1914l2.3789.60937m10.60938-.875l-4.07813 5.72266m3.48438-4.89063l1.21484.16016m11.7461-1.46875l-2.1836 6.67578m1.8672-5.70703l1.20702-.21094m12.1875-.82812l-1.71094 6.8164m1.46094-5.82421l1.1914-.29688m11.8672-.78125l-.69922 6.99219m.59765-5.97656l1.13672-.46485m12.72656-.48047l-1.58984 6.84766m1.35938-5.85156l1.18359-.3125m13.76172-.0039l-4.39063 5.48827m4.39063-5.48828l2.41015.45313m11.14844-.23829l-4.8789 5.0586m4.8789-5.0586l2.35938.67579m11.3789-.1836l-5.72265 4.07422m5.72265-4.07422l2.19532 1.09375m11.71484.3086l-6.91016 1.26953m5.90235-1.08594l.76562.96094m13.60547-.7539l-7.00781.48827m5.98828-.41797l.64844 1.03907m12.54297 1.73828l-4.72266-5.20703m4.03516 4.44921l-.41797 1.15235m15.21875-4.53125l-6.32032 3.0664m5.40235-2.62109l.99219.72266m12.65625-2.02344l-5.15235 4.77734m5.15235-4.77734l2.3203.80469m10.82813-.97266l-4.8164 5.11328m4.8164-5.11328l2.3672.64453m11.64452.26953l-6.21094 3.28516m6.21094-3.28516l2.03125 1.375m10.9375-1.91015l-5.51562 4.35547"/><g clip-path="url(#N)"><path fill="none" stroke="#000" stroke-linecap="round" stroke-linejoin="round" stroke-miterlimit="10" stroke-width=".5" d="M466.32031 464.83594l2.2461.98437"/></g><path fill="none" stroke="#000" stroke-linecap="round" stroke-linejoin="round" stroke-miterlimit="10" stroke-width=".5" d="M465.51563 465.46875l1.125.49219"/><g clip-path="url(#O)"><path fill="none" stroke="#000" stroke-linecap="round" stroke-linejoin="round" stroke-miterlimit="10" stroke-width=".5" d="M147.42578 452.91797l-6.85156 1.5625"/></g><path fill="none" stroke="#000" stroke-linecap="round" stroke-linejoin="round" stroke-miterlimit="10" stroke-width=".5" d="M147.42578 452.91797l1.60547 1.85547m11.79688-.96094l-7.02344-.23047m7.02344.23047l1.07812 2.20703m12.23828-2.27344l-7.02734-.09765m7.02734.09765l1.1211 2.1836m12.1289-2.90625l-6.89844 1.35156m5.89453-1.15625l.77344.95312m13.32422-1.85546l-6.45703 2.76562m6.45703-2.76562l1.91406 1.53515m11.32032-1.71484l-6.29297 3.125m6.29297-3.125l1.99609 1.42969m11.14844-1.73829l-5.95313 3.73829m5.95313-3.73828l2.125 1.22265M226 452.375l1.0625.60938m12.48438-1.90625l-4.6836 5.23828m4.6836-5.23828l2.3828.58593m-3.0625.17578l1.19141.29297m11.70703-1.71875l-2.49218 6.57031m2.49219-6.5703l2.43359-.3086m-2.79688 1.26562l1.21875-.15625m13.10157-.48047l-3.77735 5.92579m3.77735-5.92578l2.44922.1953m-2.9961.66798l1.22266.09765m13.1289-.58593l-4.7539 5.17578m4.7539-5.17578l2.375.62109m10.60547-.89063l-4.08203 5.71875m4.08203-5.71875l2.4336.32032m-3.02735.51171l1.21485.16016m12.89062-.84375l-4.47656 5.41797m4.47656-5.41797l2.40235.49219m11.14843-.27734l-4.94922 4.99218m4.94922-4.99219l2.34766.70704m-3.0664.01953l1.17187.35547m13.48828-.23828l-6.20313 3.30468m6.20313-3.30469l2.03516 1.3711m-2.9375-.89063l2.03515 1.3711m11.8711-2.33594l-5.57813 4.26953m5.57813-4.26953l2.23046 1.01953m-3.04296-.39844l1.11718.51172m12.95703-1.20312l-5.47265 4.41015m5.47265-4.41015l2.25782.96484m11.16406-.82422l-5.6875 4.1289m5.6875-4.1289l2.20312 1.07813m10.98438-1.23828l-5.4336 4.45312m5.4336-4.45312l2.26562.9453m11.6836.22657l-6.69922 2.10938m6.69922-2.10938l1.75 1.71875m11.625-1.51562l-6.8164 1.70312m6.8164-1.70312l1.64062 1.8203m-2.63281-1.57421l.82031.91016m13.46875-1.22266l-6.78125 1.83594m6.78125-1.83594l1.67969 1.78906m-2.66797-1.52344l.83985.89454m12.89843-2.32813l-5.65234 4.17188m5.65234-4.17188l2.21485 1.0586m-3.03516-.45313l1.10547.53125m13.11328-1.01953l-5.82031 3.9336m5.82031-3.9336l2.16797 1.15234m11.42969-.65625l-6.38282 2.9414"/><g clip-path="url(#P)"><path fill="none" stroke="#000" stroke-linecap="round" stroke-linejoin="round" stroke-miterlimit="10" stroke-width=".5" d="M466.7539 452.22656l1.95313 1.48438"/></g><path fill="none" stroke="#000" stroke-linecap="round" stroke-linejoin="round" stroke-miterlimit="10" stroke-width=".5" d="M465.82422 452.65625l.97656.74219"/><g clip-path="url(#Q)"><path fill="none" stroke="#000" stroke-linecap="round" stroke-linejoin="round" stroke-miterlimit="10" stroke-width=".5" d="M147.50781 440.1914l-7.01562.38282"/></g><path fill="none" stroke="#000" stroke-linecap="round" stroke-linejoin="round" stroke-miterlimit="10" stroke-width=".5" d="M147.50781 440.1914l1.26953 2.10157m12.03125-1.51953l-6.98437-.78125m6.98437.78125l.90235 2.28125m12.4336-2.69922l-7.02735.05469m7.02734-.0547l1.16797 2.16017m12.11719-2.58985l-6.96875.91406m6.96875-.91406l1.42187 2m11.75-2.6289l-6.6836 2.17578m6.6836-2.17578L202.3672 441m-2.73828-1.38672l.8828.85156m13.15235-1.7578l-6.17578 3.35155m6.17578-3.35156l2.04688 1.35547m-2.94531-.86719l2.04687 1.35547m11.90625-2.2539l-5.65625 4.17187m5.65625-4.17187l2.21094 1.05859m-3.03516-.45313L227 439.4336m12.4961-1.71484l-4.58204 5.32813m4.58203-5.32813l2.39453.53906m10.38672-.91406l-3.51562 6.08203m3.51562-6.08203l2.45313.08594m11.30078.21094l-4.39063 5.48828m4.39063-5.48828l2.41016.45312m-3.05078.34375l1.20703.22656m12.28125-1.33984l-3.45703 6.11719m3.45703-6.1172l2.45312.0625m-2.95703.82813l1.22656.03125m12.21875-1.10546l-2.70703 6.48437m2.70703-6.48437l2.4414-.22657m-2.83593 1.17188l1.22266-.11328m12.96094-.58985l-3.65625 6m3.65625-6l2.44921.14453m-2.98046.73047l1.22265.07032m13.42969-.26954l-5.26563 4.65235m5.26563-4.65235l2.29687.85938m-3.0664-.1836l2.30078.85938m12.13281-1.0625l-5.96875 3.70703m5.96875-3.70703l2.1211 1.23047m-2.98829-.6914l2.1211 1.23046m11.76953-2.17578l-5.38281 4.51563m5.3828-4.51563l2.27345.91797m-3.0586-.26172l1.14063.46094m12.14453-1.82813l-3.7539 5.9414m3.7539-5.9414l2.44531.1836m-2.99219.67968l1.22266.08985m11.42188-1.4336l-1.31641 6.90235m1.3164-6.90235l2.34376-.72656m-2.53516 1.73047l1.17187-.36328m9.4297.10547l4.48827 5.40625m-4.48828-5.40625l.9336-2.26953m-.28125 3.05859l.46875-1.13672m11.71875 5.27735l5.4414-4.44922m13.625.44922l-6.0625 3.55078m6.0625-3.55078l2.08985 1.28906m-2.96875-.77344l2.08593 1.28906m11.9414-2.0625l-5.73046 4.0664m5.73047-4.0664l2.19531 1.10156m-3.02734-.51171l2.1914 1.10156m11.82813-1.86719l-5.47266 4.41406m5.47266-4.41406l2.2539.96484m-3.05078-.3203l1.12891.48046m12.98828-1.11719l-5.48437 4.39844m5.48437-4.39844l2.2539.97266m11.81641.90625l-6.99609.64453"/><g clip-path="url(#R)"><path fill="none" stroke="#000" stroke-linecap="round" stroke-linejoin="round" stroke-miterlimit="10" stroke-width=".5" d="M467.0586 440.0625l1.34765 2.05078"/></g><path fill="none" stroke="#000" stroke-linecap="round" stroke-linejoin="round" stroke-miterlimit="10" stroke-width=".5" d="M466.04297 440.15625l.67187 1.02344"/><g clip-path="url(#S)"><path fill="none" stroke="#000" stroke-linecap="round" stroke-linejoin="round" stroke-miterlimit="10" stroke-width=".5" d="M147.5039 426.82422l-7.0078.48828"/></g><path fill="none" stroke="#000" stroke-linecap="round" stroke-linejoin="round" stroke-miterlimit="10" stroke-width=".5" d="M147.5039 426.82422l1.30079 2.07812m11.98047-2.39453l-6.9375 1.1211m6.9375-1.1211l1.48047 1.95703m11.72265-2.42578l-6.71875 2.0586m6.71875-2.0586l1.73828 1.73438m11.73047-.84375l-7.02344.27734m7.02344-.27734l1.23828 2.11718m-2.26172-2.07812l.6211 1.0586m13.61328-1.8125l-6.8164 1.70702m6.8164-1.70703l1.64453 1.82032m-2.63672-1.57422l.82422.91015m13.40625-1.42187l-6.66016 2.23828m6.66016-2.23828l1.78125 1.6875m-2.75-1.36328l1.78125 1.6875m12.61328-1.59375l-6.88281 1.40234m6.88281-1.40234l1.5625 1.89453m-2.5625-1.6914l.78125.94921m13.07031-2.3125l-5.95703 3.72266m5.95703-3.72266l2.125 1.22656m-2.99218-.68359l1.0625.61328m12.94922-1.40625l-5.6172 4.22266m5.6172-4.22266l2.22265 1.03906m-3.03906-.42578l1.10937.51953m12.30078-1.84765l-4.17187 5.65234m4.17188-5.65234l2.42578.35937m-3.03125.46094l1.21093.17969m13.22657-.53125l-5.20703 4.71484m5.20703-4.71484l2.30859.83203m-3.0664-.14453l1.15624.41406m11.07422-2.17578L289.70703 430.5m1.51953-6.86328l2.36328-.65235m11.36328.77344l-2.34375 6.625m2.34375-6.625l2.42579-.36719m11.42187.60547l-3.41016 6.14453m3.41016-6.14453l2.45313.04297m-2.94922.85156l1.22656.01954m14.02344.58593l-6.28516 3.14453m6.28516-3.14453l2 1.42188m-2.91407-.96485l1 .71094m13.3672-.84765l-6.5625 2.5039m6.5625-2.5039l1.84765 1.61328m-2.80078-1.25l1.84765 1.61328m12.21094-2.42578l-6.14453 3.40234m6.14453-3.40234l2.0586 1.33593m-2.95313-.83984l1.03125.66797m13.20312-1.125l-6.1914 3.32422m6.1914-3.32422l2.03907 1.36719m-2.9414-.88282l1.01952.6836m12.89063-1.64453l-5.57813 4.27734m5.57813-4.27734l2.23047 1.01953m-3.04297-.39453l2.23047 1.01562m-3.04297-.39453l2.23437 1.01953m13.05078-1.71094l-6.26953 3.16797m6.26953-3.16797l2.00782 1.41407m-2.91797-.95313l2.0039 1.41406m-2.91797-.95312l2.00391 1.41406m12.96484-2.63672l-5.92968 3.76953m5.92968-3.76953l2.13672 1.21094m-3-.66406l2.13672 1.21094m-3-.66016l1.07031.60547m12.57813-2.96094l-3.14063 6.28516m3.14063-6.28516l2.45312-.0625m-2.91015.97656l2.45312-.0625m10.71094-1.08984l-1.92578 6.76172m1.92578-6.76172l2.39844-.51172m-2.67969 1.4961l2.39844-.51172m-2.67969 1.49609l1.20313-.25781m12.90625-1.63282l-2.39063 6.60547m2.39063-6.60547l2.42968-.34765m-2.77734 1.3086l2.42969-.34766m11.82031-.33985l-3.5625 6.0586"/><g clip-path="url(#T)"><path fill="none" stroke="#000" stroke-linecap="round" stroke-linejoin="round" stroke-miterlimit="10" stroke-width=".5" d="M465.34375 424.03906l2.44922.10547"/></g><path fill="none" stroke="#000" stroke-linecap="round" stroke-linejoin="round" stroke-miterlimit="10" stroke-width=".5" d="M464.82422 424.92188l2.45312.10546"/><g clip-path="url(#U)"><path fill="none" stroke="#000" stroke-linecap="round" stroke-linejoin="round" stroke-miterlimit="10" stroke-width=".5" d="M147.50781 413.95703l-7.01562-.41015"/></g><path fill="none" stroke="#000" stroke-linecap="round" stroke-linejoin="round" stroke-miterlimit="10" stroke-width=".5" d="M147.50781 413.95703l1.02344 2.23047m-2.04297-2.28906L147 415.01172m13.73438-2.07031l-6.83985 1.62109m6.83984-1.6211l1.6211 1.84376m11.73437-1.65235l-6.91797 1.24219m6.91797-1.24219l1.51563 1.92969m-2.52344-1.75l.75781.96484m13.56641-1.13671l-6.92188 1.22656m6.92188-1.22656l1.51172 1.93359m-2.51953-1.7539l1.51172 1.92968m12.60937-2.80469L194 415.0625m6.51953-2.61719l1.8789 1.58203m-2.82812-1.20312l1.8789 1.58203m12.625-.96875l-7 .63281m7-.63281l1.34376 2.05469m-2.36328-1.96485l.67187 1.02735m13.55078-1.73047L220.5 414.67969m6.77734-1.85547l1.6836 1.78516m-2.66797-1.51563l.83984.89453m13.07422-2.0586l-6.0039 3.64845m6.0039-3.64844l2.10938 1.2539m-2.98047-.72265l2.10937 1.2539m12.19531-1.57421l-6.24218 3.22656m6.24219-3.22656l2.01953 1.39453m-2.92578-.92578l1.0078.69921m13.07813-1.41015l-5.96875 3.71094m5.96875-3.71094l2.1211 1.23047m11.1875-1.23828l-5.95703 3.72656m5.95703-3.72656l2.125 1.22656m10.89062-1.63672l-5.35937 4.54687m4.58203-3.88671l1.13672.45703m11.98047-1.91797l-3.40625 6.14844m2.91015-5.25391l1.22656.01953m12.69532-.84766l-3.62891 6.01563m3.6289-6.01563l2.44923.13282m11.66015.51953l-5.21875 4.71094m5.21875-4.71094l2.30469.83594m11.47266-.19141l-6.14063 3.42187m6.14063-3.42187l2.05859 1.33203m11.49219-.8086l-6.61328 2.375m6.61328-2.375l1.8164 1.65235m11.66797-.98437l-6.94922 1.03906m6.94922-1.03906l1.45703 1.97265m-2.46875-1.82031l1.46094 1.97266m12.36719-3.47657l-5.95313 3.73828m5.95313-3.73828l2.125 1.22266m-2.99219-.67578l2.1289 1.22265m-2.99609-.67968l1.0664.60937m14.21095-1.26562l-6.41016 2.875m6.41016-2.875l1.9375 1.5039m-2.8711-1.08593l1.9375 1.5039m-2.86718-1.08594l.96875.75391m13.6914-2.41406l-5.375 4.52344m5.375-4.52344l2.27735.91406m-3.0586-.25781l2.27735.91406m10.28906-2.625l-2.3164 6.63281m2.3164-6.63281l2.42578-.375m-2.76172 1.33984l1.21094-.1875m12.51172-.7539l-2.45703 6.58203m2.45703-6.58203l2.43359-.32031m-2.78906 1.27734l2.42969-.32031m12.02343-.22657l-4.01953 5.76563m4.01953-5.76563l2.4336.29688m-3.01953.54297l2.4375.29297m12.39843-.16407l-5.89453 3.82813"/><g clip-path="url(#V)"><path fill="none" stroke="#000" stroke-linecap="round" stroke-linejoin="round" stroke-miterlimit="10" stroke-width=".5" d="M466.50781 411.83984l2.14844 1.19141"/></g><g clip-path="url(#W)"><path fill="none" stroke="#000" stroke-linecap="round" stroke-linejoin="round" stroke-miterlimit="10" stroke-width=".5" d="M465.65234 412.39844l2.14454 1.1875"/></g><path fill="none" stroke="#000" stroke-linecap="round" stroke-linejoin="round" stroke-miterlimit="10" stroke-width=".5" d="M464.79297 412.95313l1.07422.59375"/><g clip-path="url(#X)"><path fill="none" stroke="#000" stroke-linecap="round" stroke-linejoin="round" stroke-miterlimit="10" stroke-width=".5" d="M147.4961 400.10547l-6.9922.66406"/></g><path fill="none" stroke="#000" stroke-linecap="round" stroke-linejoin="round" stroke-miterlimit="10" stroke-width=".5" d="M147.4961 400.10547l1.35156 2.05078m11.87109-2.58203l-6.8086 1.73047m6.8086-1.73047l1.65234 1.8125m11.76563-1.17188l-7.01172.44532m7.01172-.44532l1.28516 2.08985m-2.3047-2.02344l.64063 1.04297m13.6875-1.19922l-7 .6289m7-.6289l1.33985 2.05469m-2.35938-1.96485l.67188 1.02735m13.5039-1.88281l-6.6836 2.16015m6.6836-2.16015l1.76563 1.70703m-2.73828-1.39454l1.76562 1.70704m12.57422-1.85157l-6.78906 1.82032m6.78906-1.82032l1.67578 1.79688m-2.66406-1.53125l.83594.89844m13.41797-1.33594l-6.6875 2.16406m6.6875-2.16406l1.76171 1.70703m-2.73437-1.39063l.8789.85157m13.1797-1.71094l-6.23048 3.2539m6.23047-3.2539l2.02344 1.38672m-2.92969-.91406l1.01172.6953m12.92969-1.61718l-5.67188 4.14844m5.67188-4.14844l2.21094 1.07031m11.57812-.17968l-6.61719 2.36718m6.6172-2.36718l1.8125 1.65234m11.33593-2.03906l-6.28516 3.14062m6.28516-3.14062l2 1.42187m11.67969-.0664l-7.01563.42968m5.9961-.36718l.64062 1.04687m13.57031-1.84375l-6.76562 1.89844m6.76562-1.89844l1.69531 1.77344m11.75-.79688l-7.02734-.05468m7.02735.05468l1.13671 2.17579m11.83204-3.72657l-6.33204 3.04688m6.33204-3.04688l1.97656 1.45313m11.57422-.79688l-6.8086 1.73828m6.8086-1.73828l1.65234 1.8125m11.52344.35547l-6.52735-2.60156m6.52735 2.60156l.26953 2.4414m-1.21875-2.8203l.13281 1.22265m14.34375-2.64844l-6.95312 1.00782m6.95312-1.00782l1.45313 1.98047m-2.46485-1.83203l1.45313 1.97656m12.29687-3.60546l-5.80078 3.96875m5.80078-3.96875l2.17578 1.14062m-3.01953-.5625l2.17578 1.13672m12.46094-.69922l-6.7539 1.9414m6.7539-1.9414l1.70703 1.76172m-2.6914-1.48047l.85546.88281m13.54297-.70703l-6.95312 1.02735m6.95312-1.02735l1.45704 1.97266m-2.46875-1.82422l.72656.98828m12.75-2.96094l-5.25 4.67188m5.25-4.67188l2.30078.85156m-3.0664-.17187l1.15234.42578m12.46484-1.53906l-4.32422 5.53906m4.32422-5.53906l2.41797.42969m-3.04688.3789l2.41797.42578m12.13672-.62109l-5.54687 4.3125m5.54687-4.3125l2.24219 1.0039m-3.04688-.375l2.23829 1.00391m12.32421-.89062l-6.42968 2.83203"/><g clip-path="url(#Y)"><path fill="none" stroke="#000" stroke-linecap="round" stroke-linejoin="round" stroke-miterlimit="10" stroke-width=".5" d="M466.77734 399.02344l1.92579 1.51562"/></g><g clip-path="url(#Z)"><path fill="none" stroke="#000" stroke-linecap="round" stroke-linejoin="round" stroke-miterlimit="10" stroke-width=".5" d="M465.83984 399.4336l1.9297 1.51952"/></g><g clip-path="url(#aa)"><path fill="none" stroke="#000" stroke-linecap="round" stroke-linejoin="round" stroke-miterlimit="10" stroke-width=".5" d="M147.42578 386.34766l-6.85156 1.55078"/></g><path fill="none" stroke="#000" stroke-linecap="round" stroke-linejoin="round" stroke-miterlimit="10" stroke-width=".5" d="M147.42578 386.34766l1.60156 1.85937m11.63672-2.14453l-6.69922 2.1211m6.69922-2.1211l1.7539 1.71875m-2.72655-1.41016l.875.85938m13.5-.83203l-6.875 1.44922m6.875-1.44922l1.57422 1.88281m-2.57422-1.67188l.78906.94141m12.84766-2.60156l-5.51563 4.35156m5.51563-4.35156l2.24609.98437m-3.04688-.35156l1.1211.49219m13.66406 1.82422l-6.85547-1.55078m6.85547 1.55078l.64453 2.36719m12.69531-3.79688l-6.90234 1.3086m6.90234-1.3086l1.53516 1.91406m-2.53906-1.72265l1.53515 1.91015m12.42188-3.11719l-6.17969 3.34375m6.17969-3.34375l2.04297 1.35547m-2.9414-.87109l1.01952.67969m13.11328-1.3086l-6.01953 3.62891m6.01953-3.6289l2.10547 1.26171m-2.98047-.73437l1.05078.63281m13.19141-1.07031l-6.125 3.44922m6.125-3.44922l2.0664 1.32422m-2.95702-.82032l1.03515.66016m13.2461-1.02344l-6.27344 3.16797m6.27344-3.16797l2.0039 1.41406M266.0586 386l1.00391.70703m12.70313-1.92969l-5.23047 4.69532m5.23047-4.69532l2.30468.83985m11.86328.9336L287 387.6953m6.9336-1.14453l1.48828 1.94922m11.64453-.1289l-6.57032-2.4961m6.57032 2.4961l.30468 2.43359m13.20704-3.21875l-6.96485-.92578m6.96485.92578l.85546 2.30078m12.46875-3.15235l-6.98437.77735m6.98437-.77735l1.38672 2.02735m-2.40234-1.91406l.6914 1.01171m13.65626-.90234l-7.01954.33203m7.01954-.33203l1.2539 2.11328m12.04297-1.53125l-6.98047-.83203m6.98047.83203l.88672 2.28906m-1.90234-2.41015l.88671 2.28906m13.40235-3.26562l-6.89453 1.36328m6.89453-1.36328l1.54687 1.90234m-2.55078-1.70313l1.55078 1.90235m-2.55468-1.70313l.77343.94922m14.48438-1.61328l-6.76563 1.89453m6.76563-1.89453l1.69531 1.77344m-2.67969-1.5l.84766.89062m13.42578-1.2578l-6.71484 2.08202m6.71484-2.08203l1.74219 1.72656m-2.71875-1.42187l.8711.86328m13.23827-1.6289l-6.35156 3.0039m6.35156-3.0039l1.96875 1.46484m-2.89062-1.02735l.98047.73047m13.09765-1.47265l-6.03125 3.61328m6.03125-3.61328l2.09766 1.26953m-2.97656-.74219l1.05078.63281m13.07031-1.26953l-5.89062 3.83203m5.89062-3.83203l2.14844 1.1875m-3.0039-.6289l1.07421.59375m13.34766-.69532l-6.39063 2.92188m6.39063-2.92188l1.94922 1.48828m-2.87891-1.0664l.97656.7461m13.30078-1.09767l-6.45312 2.77735"/><g clip-path="url(#ab)"><path fill="none" stroke="#000" stroke-linecap="round" stroke-linejoin="round" stroke-miterlimit="10" stroke-width=".5" d="M466.78906 385.73438l1.91406 1.53515"/></g><g clip-path="url(#ac)"><path fill="none" stroke="#000" stroke-linecap="round" stroke-linejoin="round" stroke-miterlimit="10" stroke-width=".5" d="M465.85156 386.13672l1.91406 1.53515"/></g><g clip-path="url(#ad)"><path fill="none" stroke="#000" stroke-linecap="round" stroke-linejoin="round" stroke-miterlimit="10" stroke-width=".5" d="M147.47266 373.27344l-6.94532 1.07031"/></g><path fill="none" stroke="#000" stroke-linecap="round" stroke-linejoin="round" stroke-miterlimit="10" stroke-width=".5" d="M147.47266 373.27344l1.46875 1.96484m11.78125-2.28906l-6.8125 1.71875m6.8125-1.71875l1.64453 1.8164m11.64453-1.91406l-6.76172 1.91406m6.76172-1.91406l1.69922 1.76953m-2.6836-1.49218l.84766.88671m13.35156-1.46093l-6.5625 2.50781m6.5625-2.50781l1.85156 1.61328m11.6836-.63281l-7.0039.54687m7.0039-.54687l1.3164 2.0703m11.98829-2.18358l-6.98438.76953m6.98438-.76954l1.3828 2.02735m-2.39843-1.91406l.6914 1.01562M227.15235 372.5l-6.52343 2.61719m6.52343-2.61719l1.875 1.58203m-2.82422-1.20312l.9375.79296M239.85548 371.5l-5.29688 4.61719m5.29688-4.61719l2.28906.875m-3.0625-.20313l1.14844.4375m13.4414-.35546l-6.30078 3.10937m6.30078-3.10937l1.9922 1.43359m-2.91016-.98047l.99609.71485m13.39844-.78125l-6.625 2.33593m6.625-2.33594l1.8086 1.65625m11.60155-1.33984l-6.8164 1.70313m6.8164-1.70313l1.64454 1.82031m11.69921-1.6914l-6.875 1.44531m6.875-1.44531l1.57422 1.88281m11.8164-1.26563l-7.02343.20704m7.02344-.20704l1.21484 2.13282m-2.23828-2.10156l.60938 1.0664m13.68359-.42969l-6.9336-1.125m6.9336 1.125l.79297 2.32032m-1.80078-2.48438l.39453 1.16016m13.9414-1.07031l-6.95703-.98047m6.95704.98046l.83984 2.3086m-1.85156-2.44922l.41797 1.15234m13.90234-.97656l-6.94922-1.04687m6.94922 1.04687l.8164 2.3164m-1.82812-2.46874l.41016 1.15625m13.8789-.79688l-6.8711-1.46094m6.8711 1.46094l.67578 2.35938m-1.67578-2.57031l.67578 2.35546m13.71094-2.67578l-7.01562-.39844m7.01562.39844l1.02735 2.22656m-2.04688-2.28515l1.02734 2.22656m13.3125-2.32812l-7.02734-.07813m7.02734.07813l1.12891 2.17968m-2.14844-2.1914l1.125 2.17969m13.21094-2.2461l-7.02734.07813m7.02734-.07813l1.17578 2.15235m-2.19922-2.14063l1.17578 2.15234m13.13282-2.58203l-6.96875.91406m6.96875-.91406l1.42578 2m-2.4414-1.86719l.71484 1m13.64453-.78125l-7.02344.21094m7.02344-.21094l1.21484 2.12891m11.90625-3.17578l-6.63672 2.30469m6.63672-2.30469l1.80078 1.67188m11.46094-1.8125l-6.53125 2.58593m6.53125-2.58594l1.8711 1.58985m11.34765-1.8164l-6.33594 3.03906"/><g clip-path="url(#ae)"><path fill="none" stroke="#000" stroke-linecap="round" stroke-linejoin="round" stroke-miterlimit="10" stroke-width=".5" d="M466.73047 372.28906l1.97656 1.45313"/></g><g clip-path="url(#af)"><path fill="none" stroke="#000" stroke-linecap="round" stroke-linejoin="round" stroke-miterlimit="10" stroke-width=".5" d="M147.49219 360.89453l-6.98438-.80078"/></g><path fill="none" stroke="#000" stroke-linecap="round" stroke-linejoin="round" stroke-miterlimit="10" stroke-width=".5" d="M147.49219 360.89453l.89453 2.28125m-1.91016-2.39844l.44531 1.14063m13.88672-1.78906l-6.98828.73046m6.98828-.73046l1.3711 2.03515m-2.38672-1.92969l.6836 1.01563m13.66796-.67188l-7.02734-.16796m7.02734.16796l1.09766 2.19141m-2.1211-2.21875l.55078 1.09766m13.72266-.4961l-6.89844-1.3203m6.89844 1.3203l.72656 2.34766m12.64844-2.86328l-7.01953-.28516m7.01953.28516l1.0625 2.21094m-2.08203-2.25391l.53125 1.10547m13.8086-1.2461l-7.02735.08204m7.02734-.08204l1.17578 2.15235m-2.19921-2.14063l.58984 1.07422m13.5-2.33984l-6.53125 2.58594m6.53125-2.58594l1.8711 1.59375m-2.82032-1.21485l.9336.79297m12.92968-1.91015l-5.73047 4.0664m5.73047-4.0664l2.19531 1.09765m-3.02734-.5078l1.09375.55077m13.28516-.76562l-6.19531 3.3164m6.1953-3.3164l2.03907 1.36328m11.1875-1.51953l-6.01953 3.625m6.01953-3.625l2.10547 1.26172m-2.98047-.73438l1.05469.63281m13.6289.38282l-7.0039.54296m7.0039-.54296l1.31641 2.0703m11.97266-2.32812l-6.94922 1.0547m6.94922-1.0547l1.46093 1.97266m11.88672-1.2539l-7.01562-.38282m7.01562.38281l1.03125 2.22657m-2.05078-2.28125l.51563 1.11328m13.78125-.70703l-6.94141-1.08204m6.9414 1.08204l.8047 2.3164m-1.8125-2.47656l.80468 2.32031m13.53125-2.25781l-6.96875-.89063m6.96875.89063l.8711 2.29688m-1.88282-2.42579l.4336 1.14844m13.59765.01172l-6.375-2.95313m6.375 2.95313l.13281 2.45313m-1.0625-2.88282l.07032 1.22656m14.41406-1.49218l-6.85547-1.5586m6.85547 1.5586l.64063 2.36719m-1.64063-2.59375l.64453 2.36718m13.72266-2.44531l-6.96094-.95313m6.96094.95313l.84765 2.30469m-1.85937-2.4414l.84765 2.30077m13.48829-3.05469l-6.97657.83204m6.97657-.83204l1.40234 2.01172m-2.41797-1.89062l1.40235 2.01172m12.92578-2.16406l-6.97266.89062m6.97266-.89063l1.41796 2.00391m-2.43359-1.875l.70703 1.0039m13.5625-1.46874l-6.85156 1.5664m6.85156-1.5664l1.60547 1.85547m11.66016-2.04688l-6.7539 1.94531m6.7539-1.9453l1.70703 1.76562m11.54297-1.96485l-6.625 2.34375m6.625-2.34375l1.8086 1.66016m11.40233-1.92188l-6.41406 2.8672m6.41406-2.8672l1.9375 1.50782m11.35938-1.54688l-6.3789 2.94531"/><g clip-path="url(#ag)"><path fill="none" stroke="#000" stroke-linecap="round" stroke-linejoin="round" stroke-miterlimit="10" stroke-width=".5" d="M466.75 359.01953l1.95703 1.48438"/></g><g clip-path="url(#ah)"><path fill="none" stroke="#000" stroke-linecap="round" stroke-linejoin="round" stroke-miterlimit="10" stroke-width=".5" d="M147.5 346.86328l-7 .6289"/></g><path fill="none" stroke="#000" stroke-linecap="round" stroke-linejoin="round" stroke-miterlimit="10" stroke-width=".5" d="M147.5 346.86328l1.33984 2.05469m-2.35937-1.96485l.67187 1.02735m13.67578-.75781l-7.02734-.08985m7.02734.08985l1.125 2.18359m-2.14843-2.19531l.5625 1.08984m13.77734-1.1875l-7.02734.1289m7.02734-.1289l1.1914 2.14453m-2.21484-2.125l.59375 1.07031m13.65625-.23828l-6.85156-1.57421m6.85156 1.57421l.63672 2.3711m-1.63672-2.60156l.32032 1.1875m14.05859-1.33204l-6.98047-.82421m6.98047.82421l.89063 2.28516m12.23046-3.91016l-6.59375 2.42579m6.59375-2.42579l1.83203 1.63672m11.13282-2.33984l-5.89063 3.83203m5.89063-3.83203l2.14844 1.1875m-3.00782-.6289l1.07422.59374m13.10938-1.13281l-5.91016 3.79688m5.91016-3.79688l2.14062 1.19922m11.67578.0586l-6.91015 1.27734m6.91015-1.27735l1.52344 1.92188m11.83203-.92969l-6.99219-.70703m6.9922.70703l.92577 2.27344m12.40235-2.75l-7.01953.2461m7.01953-.2461l1.23047 2.125m-2.25-2.08985l.61328 1.0625m13.72265-.875l-7.02343-.19921m7.02343.19921l1.08985 2.19922m-2.10938-2.22656l.54297 1.09766m13.7461-.59375l-6.9297-1.15235m6.9297 1.15235l.78124 2.32812m-1.78906-2.4961l.39063 1.16407m13.92187-.92578l-6.91015-1.29297m6.91015 1.29297l.73438 2.33984m-1.7422-2.52734l.73438 2.33984m13.64844-2.82422l-7.02734.05079m7.02734-.05079l1.16797 2.16016m-2.1914-2.15234l.58203 1.07812m13.7539-.98047l-7.02344-.15625m7.02344.15625l1.10547 2.1914m-2.1289-2.21483l.55468 1.09375m13.69922-.3711l-6.85547-1.5586m6.85547 1.5586l.64063 2.36719m-1.64063-2.59375l.64453 2.36719m13.71094-2.34766l-6.9336-1.14453m6.9336 1.14453l.78516 2.32422m-1.79688-2.49219l.78516 2.32422m-1.79297-2.48828l.39453 1.16015m14.95703-1.83593l-6.97266.8711m6.97266-.8711l1.41406 2.00781m-2.42578-1.88281l1.41016 2.00781m-2.42578-1.8789l.70703 1.0039m14.51172-1.83984l-6.72266 2.03515m6.72266-2.03515l1.73047 1.73828m-2.70704-1.4414l1.73047 1.73827m-2.71093-1.4414l.86718.86718m14.3711-1.57421l-6.65235 2.26562m6.65235-2.26563l1.78906 1.6797m-2.75781-1.35157l.89453.83984m13.36719-1.22656l-6.60938 2.3789m6.60938-2.3789l1.8164 1.64844m-2.77734-1.30469l.91015.82422m12.96485-1.95703l-5.8086 3.95703m5.8086-3.95703l2.17187 1.14453m11.1875-1.07422l-5.89843 3.8164m5.89843-3.8164l2.14453 1.1914m11.53125-.46484l-6.61718 2.36329"/><g clip-path="url(#ai)"><path fill="none" stroke="#000" stroke-linecap="round" stroke-linejoin="round" stroke-miterlimit="10" stroke-width=".5" d="M466.8711 345.9961l1.8125 1.65234"/></g><path fill="none" stroke="#000" stroke-linecap="round" stroke-linejoin="round" stroke-miterlimit="10" stroke-width=".5" d="M465.90625 346.33984l.90625.82422"/><g clip-path="url(#aj)"><path fill="none" stroke="#000" stroke-linecap="round" stroke-linejoin="round" stroke-miterlimit="10" stroke-width=".5" d="M147.50781 333.64453l-7.01562.4375"/></g><path fill="none" stroke="#000" stroke-linecap="round" stroke-linejoin="round" stroke-miterlimit="10" stroke-width=".5" d="M147.50781 333.64453l1.28516 2.08985m-2.3086-2.02735l.64454 1.04688m13.6914-.62891l-7.00781-.52344m7.00781.52344l.98438 2.2461m-2.0039-2.32423l.49218 1.125m13.78125-.60937l-6.88672-1.39844m6.88672 1.39844l.69531 2.35156m12.64453-2.5l-6.9375-1.10547m6.9375 1.10547l.79688 2.32422m-1.80469-2.48437l.39844 1.16015m13.76953-2.71484l-6.6289 2.32812m6.6289-2.32812l1.80469 1.66406m11.16797-2.3789l-5.94141 3.7578m5.9414-3.7578l2.12891 1.21484m10.90625-1.59375l-5.38281 4.51562m5.38281-4.51562l2.27734.92187m11.65235.14844l-6.61328 2.375m5.65234-2.03125l.90625.82422m13.42969 1.03125l-6.73047-2.02344m6.73047 2.02344l.48047 2.40625m12.9414-2.8789l-6.9453-1.07813m6.9453 1.07812l.8047 2.31641m12.49218-2.22266l-6.91016-1.26562m6.91016 1.26562l.74219 2.33985m-1.7461-2.52344l.3711 1.16797m13.96875-1.11328l-6.95313-1.01172m6.95313 1.01172l.82812 2.3125m-1.83984-2.45703l.41406 1.15234m13.88672-.83594l-6.89844-1.35156m6.89844 1.35156l.71094 2.34766m-1.71485-2.54297l.35547 1.17188m13.76563-.32032l-6.50391-2.66797m6.5039 2.66797l.2422 2.44531m-1.1875-2.83203l.24218 2.44141m14.09375-2.2539l-6.65234-2.26563m6.65234 2.26562l.39063 2.42188m-1.35938-2.7539l.39453 2.42187m-1.36328-2.75l.19531 1.21094m15.22657-1.33985l-6.9922-.6875m6.9922.6875l.93359 2.26953m-1.94922-2.3711l.9336 2.26954m13.16406-3.8125l-6.52735 2.60156m6.52735-2.60156l1.8711 1.58594m-2.82032-1.20703l.9375.79296m13.45312 1.04688l-6.78125-1.83594m6.78125 1.83594l.54688 2.39063m-1.53125-2.65625l.27344 1.1953m14.14843-1.90234l-7.02734.10938m7.02734-.10938l1.1875 2.14844m-2.21093-2.13281l1.1875 2.14844m13.10156-1.50782l-6.92578-1.20312m6.92578 1.20312l.76172 2.33204m-1.76953-2.50782l.76562 2.33203m13.60156-2.97656l-7.01562.4375m7.01562-.4375l1.28516 2.08985m-2.30469-2.02735l1.28516 2.08985m12.5625-3.72657l-6.04297 3.58594m6.04297-3.58594l2.09765 1.27735m-2.97656-.75391l2.09766 1.27344m12.35156-1.27735l-6.55078 2.54297m6.55078-2.54297l1.85938 1.60547m-2.8125-1.23437l1.85937 1.60156m12.48047-1.76172l-6.69531 2.125m6.69531-2.125l1.7539 1.71485m-2.72656-1.40625l1.75391 1.71484m12.47656-2.19531l-6.57812 2.46875"/><g clip-path="url(#ak)"><path fill="none" stroke="#000" stroke-linecap="round" stroke-linejoin="round" stroke-miterlimit="10" stroke-width=".5" d="M466.85156 332.6289l1.83985 1.625"/></g><path fill="none" stroke="#000" stroke-linecap="round" stroke-linejoin="round" stroke-miterlimit="10" stroke-width=".5" d="M465.89453 332.98828l1.83985 1.625"/><g clip-path="url(#al)"><path fill="none" stroke="#000" stroke-linecap="round" stroke-linejoin="round" stroke-miterlimit="10" stroke-width=".5" d="M147.5039 320.29688l-7.0078.5"/></g><path fill="none" stroke="#000" stroke-linecap="round" stroke-linejoin="round" stroke-miterlimit="10" stroke-width=".5" d="M147.5039 320.29688l1.3047 2.08203m-2.32423-2.00782l.65235 1.03907m13.6914-.9922l-7.02343.25782m7.02344-.25781l1.23046 2.125m-2.2539-2.08594l.61328 1.0625m13.69531-1.41797l-6.96875.89453m6.96875-.89453l1.42188 2m-2.4336-1.8711l.70703 1m13.28516-2.24218l-6.29688 3.1211m6.29688-3.1211l1.99219 1.42969m10.48437-2.51953l-4.61719 5.29687m4.6172-5.29687l2.38671.55469m11.67578.36328l-6.11328 3.46484m6.11328-3.46484l2.07031 1.3164m11.5547-.58594l-6.73438 2.00391m6.73437-2.0039l1.72266 1.74609m11.69922-1.26172l-6.94922 1.03125m6.94922-1.03125l1.46094 1.97266m-2.47266-1.82032l.73047.98438m13.52344-1.5039l-6.80079 1.76562m6.80078-1.76563l1.66016 1.8086m-2.64844-1.55079l.82813.90235m13.46875-1.17969l-6.78906 1.8086m6.78906-1.8086l1.67187 1.79297m11.67188-.10156l-6.84766-1.57422m6.84766 1.57422l.63672 2.36719m12.59765-2.07032l-6.68359-2.17187m6.6836 2.17187l.42577 2.41797m13.04297-3.86328l-6.99218.71875m6.99218-.71875l1.3672 2.03906m11.93358-1.20703l-6.96484-.9414m6.96484.9414l.85157 2.30078m-1.86328-2.4375l.42578 1.14844m13.91015-1.10156l-6.98437-.76563m6.98437.76563l.91016 2.28125m-1.92578-2.39063l.45703 1.13672m13.72656-.33594l-6.6914-2.14453m6.6914 2.14453l.4375 2.41407m13.04688-3.51954l-7.02735.06641m6.00391-.0586l.58594 1.07813m13.58203-2.13672l-6.6836 2.16797m6.6836-2.16797l1.76172 1.70313m11.38281-2.13281L380.5 322.05859m6.34375-3.02343l1.97266 1.46093m-2.89844-1.01953l.98828.73047m13.15234-1.36719l-6.14453 3.41407m6.14453-3.41407l2.0586 1.33594m10.59375-2.1836l-4.82032 5.11329m4.1211-4.3711l1.17969.32422m13.82812.6172l-6.80469 1.74608m5.81641-1.49218l.82422.90625m9.52344-3.75781l1.10546 6.9414m-1.10546-6.9414l1.95703-1.47657m14.25 2.32422l-4.67578 5.2461m4.67578-5.2461l2.38281.58203m-3.0625.17969l1.1914.29297m13.0547-.80469l-5.1797 4.7461"/><g clip-path="url(#am)"><path fill="none" stroke="#000" stroke-linecap="round" stroke-linejoin="round" stroke-miterlimit="10" stroke-width=".5" d="M466.15234 318.17578l2.3125.82031"/></g><path fill="none" stroke="#000" stroke-linecap="round" stroke-linejoin="round" stroke-miterlimit="10" stroke-width=".5" d="M465.39844 318.86719l2.3125.8164m-3.0664-.1289l1.15624.41015"/><path fill="#00f" fill-rule="evenodd" d="M388.23828 472.08594h8.61719V461.9414h-8.61719v10.14453"/><path fill="azure" fill-rule="evenodd" d="M390.07031 463.77344h.83594v2.82422h3.28516v-2.82422h.83203v6.48047h-.83203v-2.91797h-3.28516v2.91797h-.83594v-6.48047"/><path fill="#ff3030" fill-rule="evenodd" d="M326.79688 436.57813h7.6914v-10.14454h-7.6914v10.14454"/><path fill="azure" fill-rule="evenodd" d="M328.6289 428.26563h.83204v5.74218h3.19531v.73828h-4.02734v-6.48046"/><path fill="#00f" fill-rule="evenodd" d="M410.42969 423.26563h8.6211v-10.14844h-8.6211v10.14844"/><path fill="azure" fill-rule="evenodd" d="M412.26172 414.95313h.83594v2.8203h3.28515v-2.8203h.83203v6.48046h-.83203v-2.91796h-3.28515v2.91796h-.83594v-6.48046"/><path fill="#ff3030" fill-rule="evenodd" d="M193.64453 418.82813h7.69531v-10.14844h-7.6953v10.14844"/><path fill="azure" fill-rule="evenodd" d="M195.47656 410.51172h.83594v5.74219h3.1914v.73828h-4.02734v-6.48047"/><path fill="#ffffe0" fill-rule="evenodd" d="M375.55078 423.4961h22.1836v-10.19141h-22.1836v10.1914"/><path fill-rule="evenodd" d="M379.05078 415.13672h.51172v6.29687h-.78906v-4.49218h-1.38672v-.5547l.5586-.0664.25-.05078.23046-.08984.20313-.14453.17578-.20704.14062-.29687.10547-.39453m4.8164 0l.22657.01953.21875.05469.21094.08984.19531.1211.1836.14843.17187.17578.30078.42188.24219.49219.17969.54687.11328.57813.03906.58984-.03906.59375-.11329.58594-.17968.55469-.24219.5-.30078.42968-.17188.17969-.18359.15234-.19531.125-.21094.08985-.21875.0586-.22656.01952-.23047-.01953-.21875-.0586-.20703-.08984-.19922-.125-.1836-.15234-.17187-.17969-.30078-.42969-.24219-.5-.17969-.55468-.11328-.58594-.03906-.59375h.83594l.02734.5664.08203.50391.125.4414.16406.375.19141.30079.21094.22266.22265.13671.22657.04688.22265-.04688.22266-.13671.21094-.22266.1914-.30078.16407-.375.125-.4414.08203-.50391.02734-.56641-.02734-.5586-.08203-.5-.125-.4375-.16407-.36327-.1914-.29297-.21094-.21485-.22266-.13281-.22265-.04297-.22656.04297-.22266.13281-.21094.21485-.1914.29296-.16407.36329-.125.4375-.08203.5-.02734.55859h-.83594l.03906-.58984.11328-.57813.1797-.54687.24218-.4922.30078-.42187.17188-.17578.18359-.14844.19922-.12109.20703-.08984.21875-.05469.23047-.01953m5.08984 0h.50781v6.29687h-.78515v-4.49218h-1.39063v-.5547l.5625-.0664.25-.05078.23047-.08984.20313-.14453.17578-.20704.14062-.29687.10547-.39453m2.82422 2.17578h.78516l.01953-.3164.0586-.28516.10155-.2539.14063-.21485.17969-.17578.22265-.12891.26563-.07813.3086-.02734.23827.01953.22266.0625.20312.10156.1797.14063.14843.17188.11328.20703.07422.23437.02344.26563-.02344.26953-.0625.22265-.11328.19141-.15235.17188-.20312.16406-.2461.16406-.6328.39063-.53907.3125-.4375.3164-.34766.32422-.26171.33594-.19141.35156-.125.3711-.0664.39062-.02344.42187h4.21093v-.74218h-3.33203l.08594-.28516.11328-.23438.14844-.20312.1875-.17969.23047-.17187.27734-.17578.71875-.41797.41406-.20313.34375-.23047.28125-.2539.21875-.26563.16406-.27734.11329-.28516.0625-.28515.01953-.28125-.03906-.38282-.1211-.34765-.1914-.3086-.25-.26171-.30079-.21485-.34765-.15625-.3789-.09765-.40626-.03516-.4336.03125-.39843.10156-.35547.16406-.30469.23438-.25.30469-.18359.375-.11719.4453-.03906.51954"/><path fill="#ffffe0" fill-rule="evenodd" d="M288.48438 401.14844h22.17968v-10.1914h-22.17969v10.1914"/><path fill-rule="evenodd" d="M291.98438 392.78906h.5078v6.29688h-.78515v-4.49219h-1.39062v-.55469l.55859-.0664.2539-.05079.23048-.08984.20312-.14062.17188-.21094.14453-.29688.10546-.39453m4.8125 0l.23047.01953.21875.0547.20704.08983.1953.1211.1836.14844.17188.17578.30468.42187.2422.49219.17968.54688.10937.57812.03907.59375-.03907.58984-.10937.58594-.17969.55469-.24219.5-.30468.42969-.17188.17968-.1836.15235-.1953.125-.20704.08984-.21875.0586-.23046.01953-.23047-.01954-.21875-.05859-.20704-.08984-.1953-.125-.1836-.15235-.17188-.17968-.30468-.4297-.2422-.5-.17968-.55468-.10937-.58594-.03907-.58984h.83204l.02734.5625.08203.5039.1289.44532.16016.3711.1914.30077.21095.22266.22265.13672.22656.04687.22657-.04687.22265-.13672.21094-.22266.1914-.30078.16016-.3711.12891-.4453.07813-.50391.03125-.5625-.03125-.5625-.07813-.5-.1289-.4375-.16016-.36328-.1914-.29297-.21095-.21484-.22265-.13282-.22656-.04296-.22657.04296-.22265.13282-.21094.21484-.1914.29297-.16016.36328-.12891.4375-.08203.5-.02735.5625h-.83203l.03907-.59375.10937-.57813.17969-.54687.24219-.49219.30468-.42187.17188-.17578.1836-.14844.1953-.1211.20704-.08984.21875-.05469.23046-.01953m5.08985 0h.51172v6.29688h-.78906v-4.49219h-1.38672v-.55469l.55859-.0664.2539-.05079.22657-.08984.20312-.14062.17579-.21094.14062-.29688.10547-.39453m2.82422 2.17578H305.5l.01953-.3164.0586-.28516.09765-.2539.14063-.21485.17968-.17578.22657-.1289.26562-.07813.30469-.02735.23828.01954.22656.0625.20313.10156.17969.14062.14843.17188.11328.20703.07032.23438.02343.26562-.01953.26953-.0664.22266-.10938.1914-.15625.17188-.19922.16406-.2461.16406-.63671.39063-.53516.3125-.4375.3164-.34765.32422-.26563.33594-.1875.35156-.125.3711-.07031.39062-.01953.42188h4.21094v-.74219h-3.33204l.08204-.28516.11328-.23437.14844-.20313.1875-.17968.23046-.17188.27735-.17578.71875-.41797.41406-.20312.34766-.23047.28125-.2539.21875-.26563.16406-.27735.10937-.28515.06641-.28516.01953-.28125-.04297-.38281-.1211-.34766-.1875-.3086-.25-.26171-.30468-.21485-.34375-.15625-.38281-.09765-.40625-.03516-.4336.03516-.39843.09765-.35547.16407-.30469.23437-.2461.30469-.1875.375-.11718.44531-.03906.51953"/><path fill="#ffffe0" fill-rule="evenodd" d="M306.23828 352.91016h22.17969v-10.19141h-22.17969v10.1914"/><path fill-rule="evenodd" d="M309.73828 344.55078h.50781v6.29297h-.78906v-4.48828h-1.38672v-.55469l.5586-.0664.2539-.0547.23047-.08984.20313-.14062.17187-.21094.14063-.29297.10937-.39453m4.8125 0l.23047.01953.21875.05469.20703.08984.19531.1211.1836.14844.17187.17578.30078.41796.2461.4961.17969.54687.10937.57813.03906.58984-.03906.59375-.10938.58594-.17968.55469-.2461.5-.30078.42969-.17187.17968-.1836.15235-.1953.12109L315 351l-.21875.0586-.23047.01952-.23047-.01953-.21875-.05859-.20703-.09375-.19531-.1211-.1875-.15234-.16797-.17969-.30469-.42968-.24219-.5-.17968-.55469-.11328-.58594-.03516-.59375h.83203l.02735.5625.08203.50781.1289.44141.16016.375.1914.30078.21094.22266.22266.13672.22656.04687.22656-.04687.22266-.13672.21094-.22266.1914-.30078.16016-.375.125-.4414.08203-.50782.03125-.5625-.03125-.5586-.08203-.5-.125-.4375-.16016-.36718-.1914-.28906-.21094-.21485-.22266-.1328-.22656-.04298-.22656.04297-.22266.13281-.21094.21485-.1914.28906-.16016.36719-.1289.4375-.08204.5-.02734.5586h-.83203l.03516-.58985.11328-.57813.17969-.54687.24218-.4961.30469-.41796.16797-.17579.1875-.14843.19531-.1211.20703-.08984.21875-.05469.23047-.01953m5.08985 0h.51171v6.29297h-.78906v-4.48828h-1.38672v-.55469l.5586-.0664.2539-.0547.22656-.08984.20313-.14062.17578-.21094.14063-.29297.10546-.39453m6.8047 1.6211h-.78516l-.05079-.21485-.08203-.1836-.10937-.16015-.1289-.13281-.14844-.10156-.16016-.07422-.16797-.04688-.17188-.01172-.32812.03907-.28516.12109-.24609.19531-.20703.26953-.16016.33594-.11328.40625-.07031.46485-.02344.52734.1875-.20313.1875-.16015.1836-.1211.1875-.08984.1875-.0586.1914-.03906.40235-.02343.30468.03125.32031.09375.31641.15234.29688.22266.2539.28125.19922.35156.07422.19922.05078.21875.02735.23437.0078.2539-.78906.04298-.02734-.25781-.07812-.25-.1211-.23438-.16015-.21094-.19532-.17578-.21875-.14062-.23828-.08594-.25781-.03125-.2539.03125-.23829.08594-.22265.14062-.19141.17578-.16016.21094-.125.23438-.07421.25-.02735.2578.02735.26173.07421.25.125.23437.16016.21094.1914.17578.22266.13672.23828.08984.25391.03125.25781-.03125.23828-.08984.21875-.13672.19532-.17578.16015-.21094.1211-.23437.07812-.25.02735-.26172.78906-.04297-.03125.36719-.09375.375-.15625.35546-.22266.32813-.28906.28516-.17188.11718-.1875.10157-.20703.08593-.22265.0586-.2422.03906-.26171.01563-.28125-.01954-.26172-.04687-.23437-.07422-.21875-.10547-.19532-.13281-.17187-.15625-.15625-.17969-.13281-.19922-.1172-.22265-.09765-.2422-.14844-.53515-.08593-.59375-.02735-.64062.03907-.74219.11328-.66406.1875-.57813.1211-.2539.13671-.23438.15234-.20703.17188-.17969.1875-.15625.19922-.1289.21875-.10157.23437-.07421.2461-.04297.26171-.01563.3672.03125.33202.09766.29297.15234.25781.19922.21094.23828.16797.27735.11328.30078.0625.32421"/><path fill="#ffffe0" fill-rule="evenodd" d="M217.46875 350.15625h22.17969v-10.1914h-22.17969v10.1914"/><path fill-rule="evenodd" d="M220.96875 341.79688h.50781v6.29687h-.78515v-4.49219h-1.38672v-.55469l.5586-.0625.25-.05468.23046-.08985.20313-.14062.17578-.21094.14062-.29297.10547-.39844m4.8125 0l.23047.01954.21875.05468.20703.08985.19922.1211.1836.15233.17187.17579.30078.41796.24219.4922.17968.54687.11328.57812.03907.59375-.03906.59375-.11329.58203-.17968.5547-.2422.5039-.30077.42578-.17188.17969-.1836.15234-.19921.125-.20703.08984-.21875.0586-.23047.01953-.22656-.01953-.21875-.0586-.21094-.08984-.19531-.125-.1836-.15234-.17187-.1797-.30078-.42577-.24219-.5039-.17969-.5547-.11328-.58203-.03906-.59375h.83594l.02734.5625.08203.5039.125.44532.16406.375.19141.30078.20703.21875.22266.13672.22656.04688.22656-.04688.22266-.13672.21094-.21875.1914-.30078.16406-.375.125-.44531.08204-.5039.02734-.5625-.02734-.5625-.08203-.5-.125-.4336-.16407-.36719-.1914-.29297-.21094-.21484-.22266-.1289-.22656-.04688-.22656.04687-.22266.1289-.20703.21485-.1914.29297-.16407.36719-.125.4336-.08203.5-.02734.5625h-.83594l.03906-.59376.11328-.57812.17969-.54688.24219-.49219.30078-.41796.17187-.17579.1836-.15234.19531-.1211.21094-.08984.21875-.05468.22656-.01954m5.09375 0h.50781v6.29688h-.78515v-4.49219h-1.39063v-.55469l.5625-.0625.25-.05468.23047-.08985.20313-.14062.17578-.21094.14062-.29297.10547-.39844m6.80469 1.6211h-.78906l-.05079-.21094-.08203-.1875-.10547-.16015-.1328-.12891-.14454-.10547-.16016-.07422-.16797-.04297-.17187-.01562-.32813.04297-.28906.11718-.2461.19532-.20312.26953-.16015.33984-.11719.40235-.07031.46875-.02344.52343.1914-.19922.1836-.16015.1875-.125.1836-.08594.1875-.0625.1953-.03516.39844-.02343.3086.02734.32031.09375.3164.15625.29298.21875.2578.28516.19923.35156.0703.19922.0547.21875.02734.23437.0039.25-.78515.04688-.02734-.25781-.07813-.25391-.1211-.23438-.16015-.21093-.19531-.17579-.21875-.13671-.24219-.08985-.2539-.03125-.25391.03125-.24219.08985-.21875.13671-.19531.17579-.16016.21093-.1211.23438-.07812.2539-.02734.25782.02734.25781.07813.25.1211.23438.16015.21093.19531.17969.21875.13672.24219.08594.2539.03125.25391-.03125.24219-.08594.21875-.13672.19531-.17969.16016-.21094.1211-.23437.07812-.25.02734-.25781.78516-.04688-.03125.3711-.08985.37109-.16015.35938-.22266.32812-.28906.28125-.17188.1211-.1875.10156-.20312.08203-.22656.0625-.23829.03906-.26172.01172-.28125-.01563-.26171-.04687-.23828-.07813-.21485-.10156-.19531-.13281-.17188-.15625-.15625-.17969-.13672-.20312-.11328-.22266-.10156-.24219-.14844-.53515-.08203-.59375-.02734-.64063.03906-.74219.11328-.66406.1875-.57812.11719-.25391.14063-.23047.15234-.20703.16797-.1836.1875-.15234.20312-.1289.21875-.10547.23047-.07031.25-.04688.26172-.01563.36328.03516.33203.09375.29688.15235.25781.19921.21094.2422.16406.27343.11719.30469.0625.3203"/></g></defs><use xlink:href="#an"/></svg>