<svg xmlns="http://www.w3.org/2000/svg" role="img" xmlns:xlink="http://www.w3.org/1999/xlink" viewBox="142.45 309.95 326.84 171.84"><defs><clipPath id="a"><path d="M144 311.67188h1v168.65625h-1zm0 0"/></clipPath><clipPath id="b"><path d="M144 311.67188h324v168.65625H144zm0 0"/></clipPath><clipPath id="c"><path d="M385 475h12v5.32813h-12zm0 0"/></clipPath><clipPath id="d"><path d="M390 478h5v2.32813h-5zm0 0"/></clipPath><clipPath id="e"><path d="M415 478h12v2.32813h-12zm0 0"/></clipPath><clipPath id="f"><path d="M433 477h7v3.32813h-7zm0 0"/></clipPath><clipPath id="g"><path d="M467 459h1v21.32813h-1zm0 0"/></clipPath><clipPath id="h"><path d="M467 311.67188h1V457h-1zm0 0"/></clipPath><clipPath id="i"><path d="M144 480h4v.32813h-4zm0 0"/></clipPath><clipPath id="j"><path d="M147 480h2v.32813h-2zm0 0"/></clipPath><clipPath id="k"><path d="M153 480h9v.32813h-9zm0 0"/></clipPath><clipPath id="l"><path d="M160 480h3v.32813h-3zm0 0"/></clipPath><clipPath id="m"><path d="M166 479h9v1.32813h-9zm0 0"/></clipPath><clipPath id="n"><path d="M173 480h3v.32813h-3zm0 0"/></clipPath><clipPath id="o"><path d="M180 479h8v1.32813h-8zm0 0"/></clipPath><clipPath id="p"><path d="M187 480h2v.32813h-2zm0 0"/></clipPath><clipPath id="q"><path d="M193 480h9v.32813h-9zm0 0"/></clipPath><clipPath id="r"><path d="M200 480h3v.32813h-3zm0 0"/></clipPath><clipPath id="s"><path d="M206 479h9v1.32813h-9zm0 0"/></clipPath><clipPath id="t"><path d="M213 479h3v1.32813h-3zm0 0"/></clipPath><clipPath id="u"><path d="M220 479h8v1.32813h-8zm0 0"/></clipPath><clipPath id="v"><path d="M227 479h3v1.32813h-3zm0 0"/></clipPath><clipPath id="w"><path d="M233 479h8v1.32813h-8zm0 0"/></clipPath><clipPath id="x"><path d="M240 479h3v1.32813h-3zm0 0"/></clipPath><clipPath id="y"><path d="M246 478h9v2.32813h-9zm0 0"/></clipPath><clipPath id="z"><path d="M253 478h3v2.32813h-3zm0 0"/></clipPath><clipPath id="A"><path d="M260 478h8v2.32813h-8zm0 0"/></clipPath><clipPath id="B"><path d="M273 478h8v2.32813h-8zm0 0"/></clipPath><clipPath id="C"><path d="M286 478h8v2.32813h-8zm0 0"/></clipPath><clipPath id="D"><path d="M292 479h2v1.32813h-2zm0 0"/></clipPath><clipPath id="E"><path d="M300 479h8v1.32813h-8zm0 0"/></clipPath><clipPath id="F"><path d="M306 480h2v.32813h-2zm0 0"/></clipPath><clipPath id="G"><path d="M313 479h8v1.32813h-8zm0 0"/></clipPath><clipPath id="H"><path d="M319 480h1v.32813h-1zm0 0"/></clipPath><clipPath id="I"><path d="M329 476h3v4.32813h-3zm0 0"/></clipPath><clipPath id="J"><path d="M341 477h5v3.32813h-5zm0 0"/></clipPath><clipPath id="K"><path d="M353 478h8v2.32813h-8zm0 0"/></clipPath><clipPath id="L"><path d="M353 480h2v.32813h-2zm0 0"/></clipPath><clipPath id="M"><path d="M369 476h3v4.32813h-3zm0 0"/></clipPath><clipPath id="N"><path d="M380 477h7v3.32813h-7zm0 0"/></clipPath><clipPath id="O"><path d="M393 479h8v1.32813h-8zm0 0"/></clipPath><clipPath id="P"><path d="M393 479h2v1.32813h-2zm0 0"/></clipPath><clipPath id="Q"><path d="M406 478h8v2.32813h-8zm0 0"/></clipPath><clipPath id="R"><path d="M423 476h2v4.32813h-2zm0 0"/></clipPath><clipPath id="S"><path d="M436 476h2v4.32813h-2zm0 0"/></clipPath><clipPath id="T"><path d="M449 476h2v4.32813h-2zm0 0"/></clipPath><clipPath id="U"><path d="M460 477h7v3.32813h-7zm0 0"/></clipPath><clipPath id="V"><path d="M144 466h4v2h-4zm0 0"/></clipPath><clipPath id="W"><path d="M144 453h4v2h-4zm0 0"/></clipPath><clipPath id="X"><path d="M144 439h4v2h-4zm0 0"/></clipPath><clipPath id="Y"><path d="M466 439h2v3h-2zm0 0"/></clipPath><clipPath id="Z"><path d="M144 426h4v2h-4zm0 0"/></clipPath><clipPath id="aa"><path d="M466 425h2v3h-2zm0 0"/></clipPath><clipPath id="ab"><path d="M144 413h4v2h-4zm0 0"/></clipPath><clipPath id="ac"><path d="M466 412h2v3h-2zm0 0"/></clipPath><clipPath id="ad"><path d="M144 399h4v3h-4zm0 0"/></clipPath><clipPath id="ae"><path d="M466 398h2v4h-2zm0 0"/></clipPath><clipPath id="af"><path d="M144 386h4v3h-4zm0 0"/></clipPath><clipPath id="ag"><path d="M466 385h2v4h-2zm0 0"/></clipPath><clipPath id="ah"><path d="M144 373h4v2h-4zm0 0"/></clipPath><clipPath id="ai"><path d="M466 372h2v3h-2zm0 0"/></clipPath><clipPath id="aj"><path d="M144 360h4v1h-4zm0 0"/></clipPath><clipPath id="ak"><path d="M466 358h2v3h-2zm0 0"/></clipPath><clipPath id="al"><path d="M144 345h4v4h-4zm0 0"/></clipPath><clipPath id="am"><path d="M466 345h2v3h-2zm0 0"/></clipPath><clipPath id="an"><path d="M144 331h3v6h-3zm0 0"/></clipPath><clipPath id="ao"><path d="M466 331h2v3h-2zm0 0"/></clipPath><clipPath id="ap"><path d="M465 332h3v3h-3zm0 0"/></clipPath><clipPath id="aq"><path d="M144 318h4v5h-4zm0 0"/></clipPath><clipPath id="ar"><path d="M465 318h3v2h-3zm0 0"/></clipPath><g id="as" clip-path="url(#clip1)"><path fill="#fff" fill-opacity="0" fill-rule="evenodd" d="M0 0h1000v1000H0zm0 0"/><path fill="#d3d3d3" fill-opacity="0" fill-rule="evenodd" d="M162.15234 355.86719l-.23437.29297.0586.23437.11718.17188.17578.23437.29297.34766.11328.0586.11719-.17188.0586-.23438.17577-.17578.46485-.17578h.69922l.23437.29297.28906.8164.0586.17579.17578.23046.35156.23438.69922.69922.17188.17578.23437.34765.23438.41016.28906.58203.41015.46485.23047.23437.23438.17578.11719.23047.17578.29297.17187 1.16406v.23438l.0586.28906.05859.11719.11719.11719.34765.41015.11719.17188.17578.17578.17578.23437.11719.17188.17188.35156.05859.23438.23437.40625.23438-.0586-.17578.17578-.0586.92969h-.58203l-.23437-.11328-.34766.11328-.11719.11719-.05859.29297-.0586.17578-.11718.17187-.46484.29297-.0586.23438-.0586.11328v.64453l.0586.17187v.41016l.0586.0586v.40624l.05859.40625.11719.17579.05859.05859.23047.64062-.0586.29297v.69922l-.05859.58203v.23438l-.0586.23047-.05468.35156v1.92187l.05469.1172h.42578l-.36719.11718-.02344.35156.89063 1.16797 1.74219.53906 1.33984.35938v.53906l.08984.8086.53516.71484 1.51953.26953.89063-.08594.08984 1.16406.53516.1797 1.16015-.1797 2.05469-.98437 1.16016-.36328 1.8789-.17578 1.69531-.1797-.17968.71876-1.51563.08594-1.25.08984-.80469.26953-1.07421.8086.26953.71875.53515.89843-.17968.625-.26563.8086.26563 1.07812.625.89844.80468.17969 1.25-.1797-.26562.72267.09766.5039.05468.29297v.17188l.0586.29296v.40625l.17578.1172.35156.11718h.40625l.29297-.17578.11328-.11719.0586-.11719.11718-.23047.0586-.17578.35156-.46484.23047-.17578.17578-.0586.17578.0586.0586.17578.11718.98828.05469.46875.0586.17188.11718.23437.17578.0586.8164.05859h.28907l.11719.23437.05859.40625.0586.35156v1.10547l.11718.29297.11719.34766.28906.69922.17578.35156.58203.7539.35157.17579.17187.0586.46875.23437.64063.46484.34765.23438.29297.17578.29297.05468.23047.0625.8164.34766.29297.17578.11328.17188.35157.35156.11719.17578.52343.64063v.28906l.0586.35156v.34766l.05859.35156.0586.28906.11718.0586.17188.05859h.17578l.58203.23437.17578.1172.17578.28905.17578.23438.11328.23437.29297.23047.11719.11719v.41016l.0586.05468.28906.23438.23437.11719.0586.11718.11718.17188.0586.11719.23047.23437.05859.17578.23437.0586.1172.05859-.1172.11328-.05859.11719v.11719l-.11719.29296-.11719.28907v.58203l.17579.11719.11718.05859.0586.11719.11719.11719.11328.05859.17578.34765.0586.35157.05858.40625v.17578l-.05859.17578-.11719.69922v.17187l.1172.17579.29296.29296h.40625l.17578.1172.11719.17187.11719.29296v.23438h-.52735l-.23047-.23438h-.23437l-.17578.0586-.0586.69922.0586.34765.11719.17579.17578.41015.11718.23047.28907.46875.17578.05469h.52344l.23437.0586.75781.64062.0586.29296v.23438l.05859.0586.23047.34765v.35156l-.11719.17188v.29297l.29297.28906.29297.17578.17187.0586.29297.17577.29297.1172.58203.40624.28906.23438.29297.17578.21875.16015.01563.01172.23047.17579.64062.52343.17578.23438.1172.17578.17577.17578.11328.17188v.64062l.1172.17578.46874.11719.58203.11719.23438.05859.23047.11328.29297.11719.11328.0586.58593.35156.28907.17187.17578.0625.17578.05469.17578.0586.69922.35155.28906.17579.23438.05468.28906.17578.23437.1172.64063.40624.29297.11719.17187.0586.23438.05859.41015.05859.23047.0586.23438.11718.0586.17188-.41017.17578.46875.0586.0586.29296.11328.23438.17578.05468.23438.0586.17578.05859.40625.11719.64062.23437.11719.17188.0586.23437v.17578l-.0586.1172-.0586.40624.23438.23438.11719.05859.34766.11719.64062.23047.17578.11718.28906.1172.17578.17577.23438.46485.58203 1.10546.17578.17579.34766.17578.17578.11719.35156.11718 1.04688.52344.23437.0586.46485.11327.29297.0586.46484.17578.75781.58203.23438.23438.34765.46484.17578.17578.28907.23438.8164.69921.29297.17579.28906.28906.29297.17578.29297.28906.69531.64063.17578.17578.29297.23437.28907.23438.46875.28906.64062.58203.34766.23438.23437.29297.34766.34765.35156.46485.9336.99218.34765.40625.11719.17579.23437.05859.11328.11719.64454.17578.23047.11328.23437.0586.29297.17577.23047.1172.9336.69921.40624.40625.23438.17578.40625.17578.23437.11719.8164.34766.34766.23437.23438.11719.29297.28906.23047.11719.7578.35156.35157.17188.23047.05859.29297.11719.23437.0586.8711.17577h.8164l.46875.23047.17188.0586.875.69921.46484.1172.29297.05858.17578.0586.23047.0586.46875.05859.34766.05859.35156.0586.40625.05859h.29297l.17187.0586v.23046l.17578.17578h.29297l.34766.0586.35156.05859.69922.11719h.64063l.46484-.23438.29297-.17578.17187-.11719.41016-.17187.28906-.17578.9336-.46485.46875-.29297.52343-.29296.46485-.17188.46484-.17578 1.05078-.46485.28906-.11718.41016-.11719.28906-.11719.52735-.17578 1.51562-.69922.58203-.34765.28907-.0586.29297-.0586.34765-.11718.875-.23047.35156-.11719h.11329l.23437-.05859.875-.23437.23438-.0586h.8125l.35156-.0586.8164-.11718.17188-.0586.35156-.05468.29297-.0586.23047-.05859.8164-.17578.17579-.0586h.34765l.23438-.05859.46484-.11718.75781-.17188.23438-.0586h.34765l.41016-.11718.28906-.0586 1.28516-.05859h.28906l.41016-.0586.23047-.05858h.17578l.875-.1172h.40625l.41015-.11718h.34766l.35156-.11328.8711-.0586h1.75l1.04687.28907.41016.11719.28906.11718.35156.11719.28907.11719 1.05078.17187.28906.0586h.29297l.29297.05859.17187.0586.41016.05859.17187.0586.1172.05858h.11718l.11719.0586.35156.0586h.11328l.41016.0664 1.92187.39453 1.92578.39453 1.51953.44922 1.69532.71875 2.14453.80469 1.60547-.71875 1.42968-.80469 1.16016-1.07813 1.25-.44921 3.03516-.71875 1.875-.35938 2.14453-1.34765 2.23437-1.25391 2.5-1.25781 1.69531-.44922 1.78516-.17969 1.16016-.26953.625.53906 1.33984-.26953.71485-.98828.98437-1.34375.44531-.17969.80469-.35937 1.875-.53907 1.78516-.44921 1.25-.26954 1.16015-.08984 1.69922-.08984 1.96094-.26954 1.25-.08984h.53906l.625-.08984h.89063l2.14453-.17969 2.41015-.17969 2.58985-.08984 1.69531.17969 1.60938.08984 1.42968.35938 1.16016.71875 1.875.98828 1.16015 1.52734.26563.71484.6289.08985.35548.89844.53515.53906.53516 1.52734 1.07422.35938h.53515l-.80469.53515.08985 1.70703.71484 2.69532.89063.80468.89453.98829.71484 1.2578 1.78516.53907 1.51953-.17969.35547 1.34375 1.60937-.80469.98047-.53906.26953.26953.31641-.21484.21875-.14453.80078.44922.44922-.35938h.35547l.53515-.26953.53907-.71875.53515-.26953.625-.98828 1.16016.44922.83984.3711 1.39454.61718 1.6953-.17969h1.60548l1.78515.08985.17969-1.70704.53516-1.34375.80468.26954.4922.84765.40233.40625-.08984.53906v.35938l.71485.44922.71093-.26953h1.42969l.35938.98828.4453 1.25781.71485 1.34375 1.25.6289 1.69531.62891.71485-.17969.17969-.53906.98046-.08984.44922.35937.08594 1.25782-.26563.6289-.53515.17969v.53906l.71484.98438.26563.53906.98437.98828.80078 1.07813-.26562.35937-.08985.89844-.625 2.33203-.35546 2.0664-.08985 1.79298-.17969.71875-.08984.53906v1.4375l-.98047 1.88281-.35937 1.70703-.53516.89844-.80469 1.16797-.26562.53906 2.05469 1.2539.08593.35938-.35546.53906-.08985-.17968v.80859l.08985 1.4375-.44532.71484-1.07422.09375-.26562.71485.53515.89844.8047.71875 1.16015.80859 1.33984.26953.44531.35938-.35546.44921-1.78907-.08984-1.25-.44922-.71484-.71875-.625-.08984-.17578 3.58984-.1875 1.3086h89.35937V311.70313h-55.26953v49.08203l.76172.125 3.28906.54296 2.02344 2.83594v2.7539l2.35156.33204 2.34766.33203h4.05078l-1.3789 4.16016-2.02344.70703-2.02344.70312-.54297.34375-2.59375 1.6172-.1875.11718-2.02344-2.07813-.73046-2.74218-2.67188-2.07813-1.375-3.5-.0664-.08203-1.95704-2.67188 2.75-1.41796v-49.08204H294.42187v91.41407l.1172.03125.1328.01172.07422.07421.10547.04688.08985.0586.08593.05859.08985.0586.29687.29687.0586.08984.03125.11719.02734.11719.01563.13671-.03125.1172-.0586.08983-.0586.08594-.04296.10547-.04688.10156-.02734.1211v.14453l.17578.26953.14844.14844.07422.08594.07422.07421.04296.10547.0625.08985.0586.08593.04297.10547.0586.08985.04687.10156.04296.10547.0586.08594.11719.17968.07421.07422.0625.08594.0586.08984.04297.10547.0586.08985.05858.08593.0625.08985.0586.08984.04297.10156.11719.17969.07421.07422.0586.08594.07422.07421.08984.0586.10547.04687h.14844l.1328-.01562.13282.01562.10156-.04687.07422-.07422.04688-.10156-.01563-.13281v-.14844l-.04687-.10547-.02735-.11719-.04687-.10156-.02735-.1211-.04296-.10156-.0625-.08984-.04297-.10156-.04297-.10547-.03125-.11719-.01563-.13281-.01171-.13672.08593-.0586.0586-.08593.12109-.03125.04297.10547.01562.1328v.1172l.0586.10156.0586.08984.08983.0586.14844.14843.0586.08985.04296.10547-.01171.10156.08593.0586.10547.04687.08594.0586.08984.05858.07422.07422-.11719.02735-.10546.04687-.08594.0586-.07422.07421-.0586.08985-.0625.08594-.02734.12109-.04687.10156-.04297.10547-.03125.11719-.01172.13281-.01563.13281v.14844l.02735.11719.04687.10547.04297.10156.0586.08984.07421.07422.08985.0586.07422.07421.08984.0586.0586.08984.04296.10547.04688.10156.11719.03125.1328.01563h.14845l.11718-.03125.10547.04297.04297.10547.04688.10156.02734.1211L299.5 410l.02734.11719.03125.1211.02735.11718.10547.04297.10156.04687.13281-.01562.14844.14844.0625.08593.07422.07422.07031.07422.08984.0625.10547.04297.10156.04297.1172.03125.13671.01562.11719-.03125.07422-.07422.02734-.11718-.01172-.13282-.03125-.12109-.02734-.11719.04297-.10547h.11719l.08984.0625.11719.02735h.14843l.13282.01562h.14843l.13282.01563.1328-.01563h.14845l.1328-.01562.13282-.01172.13672.01172.11719-.02735.13281-.01562.1914-.0586-.05859.17579-.01562.1328-.02735.1211-.01562.13281-.0586.08594-.1328.01563-.10548.04687-.10546.04297-.1172.03125-.11718.02735-.26563.03125h-.14843l-.13281.01562-.07422.07422.05859.08594.14844.14843.11719.1797.07421.0703.08985.0625.08984.0586.08594.0586.08984.05858.10156.04297.10547.0625.10547.04297.08594.0586.10547.04687.10156.04297.17969.11719.0586.08984-.04298.10156-.04687.10547.01562.13281.22266.22266.0586.08985.04296.10156.03125.1211.04297.10155.01563.13282.03125.11718.01171.13672.03125.11719.14844.14844.10156.04297.10547.04296.1172.03125.1328.01563.13672.01563h.11719l.11719-.03125.08984-.0586.04297-.10547.04688-.10156.04296-.10547.03125-.11719.01172-.1328v-.14845l-.01172-.1328-.01562-.13282-.03125-.11719-.04297-.10547-.04688-.10547-.04296-.10156-.04297-.10547-.01563-.13281.01563-.13281.02734-.11719.03125-.11719.02735-.1211.04687-.10155.08984-.0586.08594-.0625.07422-.07422.08984-.05859.22266-.22266.0586-.08593.07421-.07422.11719-.17969.0586-.08594v-.14844l-.07423-.07421-.10156-.04688-.10547-.04297-.10156-.04297-.0586-.08984-.04687-.10547-.02734-.11719.08984-.05859.11719-.03125.10156-.04297.17969-.11719.14844-.14843.01172-.13282-.01172-.10546-.08985-.0586-.1328.01563h-.14845l-.1328.01562-.13282-.01562-.1211-.03125-.08593-.0586-.07422-.07422-.0586-.08984-.0625-.08594-.11718-.17969-.0586-.08593.03125-.1211.08594-.05859.1211-.03125.05859-.08594v-.1211l-.03125-.11718-.0586-.08984-.05859-.08594-.04687-.10547-.02735-.11719-.01562-.1328.0586-.08985.07421-.07422.08984-.0586.1172-.17968.07421-.07422.0586-.08594.14843-.14844.1211-.03125.1328-.01562.13282.01562.07422.07422.04297.10547.01562.13281-.03125.1172-.11719.03124-.1328.01172-.14844.14844-.04297.10547-.04688.10156-.02734.1211-.03125.11718v.14844l.03125.11719.04297.10546.05859.08985.07422.07031.07422.07422.11719.03125.12109.02734.11719-.02734.1328-.01563h.1172l.08984.0586.07422.07422.04687.10546.0586.08594.10156.04688.13281.01562.10547.04297.08594.0586-.01172.10546-.07422.07422-.17969.11719-.05859.08984-.08984.0586-.07032.07422-.07421.07421-.0625.08985-.02735.11719-.01562.1328.01562.13282-.01562.13281v.14844l.01562.13281.02735.1172.03125.12108.07421.07422.08985.0586.08594.0586.08984.05858.11719.03125v.08594l-.10157.04688-.08984.0586-.26563.03124-.11718.02735h-.14844l-.10547.04296-.10156.04688-.0586.08984-.0625.23438-.01171.13281-.03125.1211-.01563.1328v.29298l-.01172.1328.01172.13673.01563.1328.1328.01563.13282.01172.1211.03125.08593.0586.07422.07421.04688.10547.04296.10157.01563.1328v.44532l-.01563.13281v.44532l.03125.26562.02735.11719.01562.13281.03125.11719.08594.21094.03125.26562v.14844l-.03125.11719-.02734.11718-.03125.1211-.02735.11719-.03125.11718-.03125.1211-.01171.1328-.01563.13282.08984.0586.1172-.03125.10155.01562.04688.10547-.03125.26562v.44141l-.04297.10547-.04688.10547-.04296.10156-.04297.10547-.0586.08594-.03125.12109-.04296.11719-.03125.11719-.01563.1328.01563.13282.05859.08984.10547.04688.08594.0586.05859.08593-.01172.13672-.03125.11719-.04297.10156v.44531l-.01562.13281v.14844l-.03125.11719-.04297.10547-.02735.11719-.04687.10546-.04297.10157-.03125.12109-.02734.11719-.03125.13281-.03125.11719-.02735.11719-.04297.10546-.03125.1172-.03125.12108-.01171.13282-.01563.13281v.29688l.02734.11718v.14844l.04688.39844.02734.11719.0586.08984.12109.03125h.14844l.13281-.01563.0586.08985v.11719l-.0586.08984-.08984.0586-.10157.04296-.10546.04688-.08985.05859-.08594.0586-.13671.01562-.1172-.03125-.1328-.01563-.10157.04688-.0625.08594-.01172.13671-.01562.13282-.03125.11719-.02735.11718-.01562.13281-.03125.1211v.29687l.01563.13282.03125.11718v.14844l.01171.13281v.14844l-.02734.11719-.04688.10156-.02734.1211-.03125.11718-.0586.08985-.07421.07421-.10156.04297-.10547.04688-.11719.02734-.1211.03125-.10156-.04687.0586-.08594.10547-.04688.02734-.11718.03125-.11719.02734-.1211.03125-.11718v-.14844l.01563-.13281-.03125-.11719-.04297-.10547-.10547.01563-.07422.07422-.10156.04296-.08984.0625-.07422.07422-.04297.10157-.01563.1328-.03125.1172L304.25 426l-.03125.11719-.02734.11719-.03125.12109-.02735.11719-.03125.11718-.04297.10547-.08984.0586h-.08984l-.1172-.03125-.03124-.08594.01562-.13672-.03125-.11719v-.14844l-.01171-.1328v-.14844l-.0625-.23438-.02735-.1211-.04297-.10156-.04687-.10546-.0586-.08594-.05859-.08985-.04297-.10546-.0625-.08594-.14844-.14844-.0703-.07422-.10548-.04687-.10547-.04297-.10156-.04297-.29687-.29688-.08985-.07421-.08594-.0586-.10546-.04297-.08985-.0625-.08594-.0586-.10546-.04296-.08985-.0586-.08594-.0625-.07421-.0703-.10547-.04688-.08594-.0586-.10547-.04296-.08984-.0625-.10156-.04297-.10547-.04297-.08594-.0586-.10547-.04687-.10547-.04297-.10156-.04687-.08985-.0586-.10156-.04297-.10547-.04296-.08984-.0625-.11719-.02735-.13281-.01562-.13281.01562H299.75l-.13281.01563-.11719-.03125-.08984-.0586-.07422-.07422-.08985-.05859-.10156-.04688h-.14844l-.12109-.02734-.10156-.04297-.07422-.07422-.11719-.17968-.08984-.0586-.10156-.04297-.08985-.0625-.10547-.04296-.08984-.0586-.08594-.0586-.10547-.04687-.0586-.08594-.05858-.08984-.04297-.10547-.04688-.10156-.07422-.07422-.08594-.0586-.07421-.07421-.08985-.0586-.22265-.22265-.04297-.10547-.03125-.26563.10547-.04296h.14453l.10547.04296.07421.07422.08985.0586.08594.0586.10546.04687.08985.05859.14844.14844.0703.07422.14845.14843.0625.08594.07421.07422.08594.0586.07422.07421.08985.0625.08984.0586.08594.05859.26953.17578.10156.04688.10547.04296.10156.04297.04688-.07421.05859-.08594.07422-.07422.07031-.07422.10547.04297.07422.07422.0586.08984.04296.10156.04688.10547.04296.10547.1211.02735.11719-.02735.07421-.08984.04297-.10547.0586-.08985.07422-.07421.10546-.04297.1172-.02735.1328.01172.08985.0586.14844.14843.05859.08985.04297.10547.04687.10156.04297.10547.04297.10156.10547.04688.10547.04296.13281.01563.08594-.0586.0586-.08984.07421-.07422.10547-.04297.11719.02735.10547.04687.10156.04297.10547.04297.10156.04688.17969.11718v.11719l-.01563.13281.01563.13281.01562.13672.0586.08594.10156.04688.1211.02734.11718.03125h.14844l.11719-.03125.05859-.08984.17969-.1172.05859-.08983.07422-.07422.0586-.08594.11718-.17969.17969-.11719.11719.03125.08984.0586.04297.07422-.01563.1328v.1172l.08985.05859h.14843l.13282-.01563.1328-.01171.26563-.03125.10547-.04297.11719-.03125.1211-.02735.07421-.07421.07031-.07422.0625-.08985-.01562-.10547-.04688-.10156-.10156-.04297-.10547-.01562-.11718.02734-.26563.03125h-.14844l-.07421-.07422-.08985-.0586-.11719-.03124-.11718-.02735-.13282-.01562h-.14843l-.13282.01563h-.29687l-.10547-.04688-.14844-.14844-.04297-.10156-.05859-.08984.22266-.22266.08593-.0586.10547-.04296.11719-.03125.13281-.01563.13281.01563.13672.01562.10157.04297.1328-.01172.08985-.0625.10156-.04297.0625-.08984-.04687-.10156-.08984-.0586-.1172-.03125-.10155-.04296-.0586-.08985-.0625-.08984v-.11719l.01563-.13281.10547-.04688.07421-.07031v-.1211l-.08984-.05859-.03125-.11719.08985-.05859.07421-.07422.04297-.10547.0586-.08984.04687-.10156.01563-.13281v-.14844l-.04688-.10547-.04297-.10156-.08984-.0586-.13281-.01562-.10157-.04297-.13671-.01563-.1172-.03125h-.4453l-.13282-.01562-.13281-.01172-.13281-.01563-.11719-.03125h-.14844l-.13281-.01562-.13281-.01172-.26563-.03125-.1211-.04297-.08593-.0586-.07422-.07421v-.14844l.01172-.13281.10547-.04688.10156-.04296.13281-.01563h.15235l.13281-.01562h.29297l.1211.03125.10156.04296.08984.0586.23438.0625.12109-.04688.08984-.05859.10156-.04297.13282-.01562.10547.04296.10156.04688.13281.01172.1211-.02735h.14453l.12109-.03125.11719-.02734.10547-.04687.07421-.07422.08594-.0586.14844-.14843.0586-.08594.04687-.10547.02734-.11719.01563-.10547-.10156-.04296-.08985-.0586-.11719-.03125-.10546-.04297-.08985-.0625-.07422-.08594-.07422-.07421-.10156-.04297-.10547-.04688-.10156-.04297-.0586-.08984-.04687-.10156-.08594-.21094-.0625-.08594-.05859-.08984-.07422-.07422-.08594-.0586h-.26953l-.11719.03126-.08984.05859-.10156.04297-.13281.01562-.10547-.01562-.02735-.11719-.0625-.08984-.11718-.03125-.10157-.04297-.14843-.14844-.03125-.11719-.01563-.10546.07422-.07422.17969-.1172.11719-.02733.11718-.03125.13672.01562.10156.04297.10547.04297.10156.04687.10547.04297.1172.03125.1328.01563.1172.02734.1328.01563.10547-.01563.08985-.0586-.07422-.07421-.10547-.04297-.07422-.07422-.07422-.08984-.14844-.14844-.08593-.0586-.08985-.05859-.07422-.07422-.08984-.0586-.10156-.04687-.1211-.02734-.10156-.04688-.10547-.04296-.11719-.03125-.10156-.04297-.1211-.03125h-.14843l-.11719.03125-.10546.04297-.08594.0625-.17969.11718-.08594.0586-.08984.0586-.10547.04687-.08594.05859-.10547.04297-.10156.04297-.10547.04687-.07422.07422-.05859.08985-.0586.08593-.04687.10547-.0586.08594-.07421.07422-.13281-.01172-.1172-.03125h-.11718l-.07422.07422-.08984.0586-.07422.07421-.08984.0586-.08594.05859-.10547.04687-.10156.04297-.13672.01563-.10156-.04297-.14844-.14844-.10547-.04688h-.08594l-.10547.04688-.10156.04297-.1211.03125-.11718-.03125-.07422-.07422v-.11719l.03125-.1211.07422-.0703.0586-.08985.07421-.07422.11719-.03125.10547-.04296h.29297l.13281-.01563.13672-.01563.10156-.04296.08985-.0586.10156-.04687.08984-.0586.13281-.01171.08985.05859.13281.01172.08984-.0586.08594-.05859.10547-.04297.08984-.0586.08594-.0625.08985-.05859.14843-.14843.0586-.08594.05859-.08985.10547-.04296.13281-.01563.11719.02735.1211.03125.05859-.0586.05859-.08984.03125-.26563.02734-.11719.10547.01172.13281.01563.10157-.04297.08984-.0586.0586-.08984.07421-.07422.0586-.08984.04687-.10156.01172-.13281-.01172-.13282-.04687-.10547-.14844-.14843-.0586-.08985-.05859-.08594-.04297-.10546v-.44532l.01563-.1328v-.14845l.01172-.1328-.0586-.0586-.08984.0586-.10156-.04298-.17969-.11719-.08594-.05859-.0625-.08984-.0586-.08985-.07421-.07421-.08594-.0586-.1211.03125-.10155.01172-.10547.04688-.08594.05859-.10547.04297-.14844.14844-.08984.05859-.08594.0586-.08984.0625-.10547.04296-.13281.01563v-.1211l.10547-.04297.11718-.03125.07422-.0703.04297-.10548v-.14844l-.02734-.11718-.14844-.14844-.13281-.01563h-.14844l-.11719.03125-.10547.04297-.10156.04297-.08984.0625-.11719.02735-.07422-.07422.01172-.13281-.04297-.10157-.04297-.10547-.08984-.05859-.11719.02734-.1211.03125-.11718.03125-.10156.04297-.1211.03125-.10156.04297-.10547.04297-.08984.0586-.10156.01562v-.11719l.01562-.13281-.0586-.08985-.07421.04297-.14844.14844-.0586.08985-.07421.07421-.04688.10547-.04296.10156-.07422.07422-.0586.08985-.07422.07422-.05859.08593-.07422.07422-.08984.0625-.07422.07031-.07422.07422-.10156.01563-.13281.01562-.10547-.04296v-.1211l.14843-.14844.04297-.10156.0586-.08984.04687-.10156.04297-.10547.0586-.08985.03124-.11719.04297-.10156.03125-.1211.02735-.11718.04687-.10547.04297-.10156.04297-.10547.07422-.07031.08984-.0625.08985-.0586.10156-.04296h.29687l.26563-.03125.10547-.04297-.07422-.07422-.11719-.03125-.10547-.04297-.08984-.0586-.10156-.04687-.08985-.0586-.10156-.04296-.10547-.04297-.08984-.0625-.08594-.0586-.10547-.04296-.10156-.04297-.1211-.03125-.11718-.03125-.10157-.04297L297.5 410.25l-.10156-.04297-.08985-.0586-.04296-.10546-.01563-.13281.10156-.04297.13281-.01563.13672.01563.13282-.01563.10156-.04297.0586-.08984.01562-.10547-.08985-.0586-.07421-.07421-.10157-.04297-.08984-.0586-.14844-.14843-.04297-.10547-.01562-.13281v-.29297l-.0586-.08985-.08984-.05859-.07422-.07422-.04297-.10547-.03125-.11718-.0586-.08985-.07421-.07422-.11719-.02734-.07422-.07422-.08984-.0586-.08984-.0625-.08594-.05859-.07422-.07421-.0586-.08594-.04687-.10547-.08594-.0586-.14843-.14843-.19532-.0586-.1328.01563-.10157.04297-.07422.07422-.04688.10156-.04296.10547-.0586.08984-.0586.08594-.29687.29687-.08984.0586h-.08594l-.0625-.08594-.04297-.10547.03125-.11719.0586-.08984.02734-.11719-.01172-.13281-.08984-.0625-.10547.04688-.11719.02734-.11719.03125-.26953.17578-.10156.04688-.11719.02734-.10546.04687-.08985.0586-.10156.04297-.0586-.08594-.04687-.10547.01563-.13281.04687-.10547.07031-.07422.07422-.07031.0586-.08985v-.14843l-.04297-.10547h-.23829l-.10156.04687-.03125.11719-.02734.11719-.03125.1211-.07422.04296-.13281.01563-.07422-.04688-.04297-.10156-.04297-.10547-.04687-.10156-.04297-.10547-.1211.03125-.10156.04297-.13281.01562-.11719.03125-.10547.04297-.08984.0586-.10156.04687-.1211.02734-.13281.01563-.10156-.04297-.0586-.08985-.04687-.10546-.04297-.10157-.04297-.10546v-.1172l.0586-.08984.08593-.05859.17969-.11719.10156-.04687.10547-.04297.10547-.0586.10156-.04296.08985-.0625.10156-.04297.10547-.0586.10156-.04687.08984-.0586.10547-.04296.10156-.04297.08985-.0625.10156-.04297.13672-.01563.11719.03125.10156.04297.1211.03125.10156.04297.10546.04688.10157.04296.10547.04297.10156.04688.10547.04297.10156.04297.10547.04687.08594.0586.10546.04296.1172.03125.10546.04297.10156.04688.08985.0586.10547.04296.10156.04297.10547.04687.11719.02735.10156.04687.1211.02735h.14843l.08594-.0586.01562-.10156.0586-.08984-.02735-.1172-.07422-.07421-.11719-.17969-.07421-.07422-.08985-.07421-.17969-.1172-.08593-.05859-.10547-.04296-.10156-.04688-.26954-.17578-.05859-.08985-.07422-.07421-.0586-.08985-.04296-.10156-.03125-.11719-.01563-.13672v-.5625l-.01171-.1328-.01563-.13282-.03125-.11719-.01562-.13281-.01172-.13281-.03125-.1211-.22266-.22265-.0586-.08594-.01562-.10547.03125-.11719.13281-.01562v-91.41406H172.9922v1.45312l-.0586.23438-.35156 1.05078-.17187.52343-.1172.34766-.17577.41016-.11719.17187-.23438.29297-.23046.0586h-.35157l-.11718.05859-.23047.40625v.29297l.11719.17578.23046.23047.1172.23437.64062.75781.29297.46485.17578.23437.23047.35156.23437.34766.64063.8164.17578.46485.17187.41016.11719.69531.17578.46875.11719 1.39844.0586.46484v.875l.11718 1.04688v4.78125l-.0586.46484-.35156 1.28125-.17578.52344-.11328.41015-.35156.9297L172.93359 336l-.23437.58203-.11719.17578-.17187.34766-.17578.40625-.35157.8164-.0586.29297-.11327.29297-.11719.28906-.0586.17579-.11718.875-.0586.40625-.05859.11718-.0586.17579-.05859.17187-.23047.52734-.11718.17188v.23437l-.11719.23438-.0586.17187-.17577.58594v.28906l-.0586.17579v.29296l-.0586.11329-.05859.52734v.17187l-.05468.23438v2.6211l-.17578.8164-.1172.17578-.17577.23438-.1172.17187-.11327.23438-.58594.93359-.23047.28906-.29297.46485-.17578.23437-.28906.35156-.35156.69922-.11328.23047-.17579.41016-.17578.23046-.40625.52735-.8164.69922-.29297.17187-.28906.23438-.17579.11719-.17578.17578-.52344.40625-.52734.17578-.17187.17578-.23438.05469-.64062.17578h-.75782m12.21094 31.02344l-1.07422.44921.35938.89454 1.25-.71485.44531-.53906-.98047-.08985"/><path fill="#d3d3d3" fill-opacity="0" fill-rule="evenodd" d="M201.50781 416.59766h-.89453l.44922.6289.98047.35938.80469-.08985.4453-.98828-.17577.08985-.71485-.35547-.89453.35547m154.6211 59.0703l-.0586-.52343v-.29297l.11328-.29297.0586-.23046.46875-.46875h.11328l.11719-.11329.11718-.05859h.17579l.23437-.0586h.34766l.23437.0586.11719.0586.23047.17187.0586.17578.11718.58203v.29297l-.11719.17578-.17187.28906-.17579.17579-.52734.52343-.23047.23438-.11719.0586h-.17578l-.11718-.0586-.40625-.29297-.17579-.11719-.11718-.0586-.0586-.11327-.05468-.1172m6.64062-10.95702l-.0586-.17188v-1.10937l.0586-.17188.17578-.0586.17188-.05858h.17578l.23437-.0586.1172.0586.05858.69921-.05859.17188-.11719.17578-.11718.0586-.23438.52343-.11328.0586h-.23438l-.05859-.1172m9.61328-14.39062l-.11719-.17578v-.69922l.29297-.875.1172-.17187.17577-.35156.11328-.23047.1172-.29297.35155-.75781.1172-.23047.17187-.23438h.17578l.11719-.0586h.64062l.11719.0586.23437.23438.17188.11328.35156.29297.11719.11718.11328.17579v.11328l.11719.05859.11718.11719v.69922l-.05859.17578v.23047l-.0586.17578-.34765 1.05078-.11719.23047-.11719.23437-.11718.0586-.23047.23437-.64063.28906h-.875l-.41015-.11718-.64063-.46485"/><path fill="none" stroke="#bebebe" stroke-linecap="round" stroke-linejoin="round" stroke-miterlimit="10" stroke-width=".5" d="M467.95703 311.69531H144.02734v168.625h323.9297v-168.625"/><g clip-path="url(#a)"><path fill="#fff" fill-opacity="0" fill-rule="evenodd" d="M144 475.89063v4.4375h.0039H144V311.67188h.0039H144v164.21875"/></g><g clip-path="url(#b)"><path fill="#fff" fill-opacity="0" fill-rule="evenodd" d="M144.0039 480.32813V311.67188h17.75v138.1914l-2.93359 3.83594-.38672 4.4375 2.54297 4.4375.77735.6875.82812-.6875 3.60938-2.35547 4.4375.13281 4.4375.20703 4.14843-2.42187-4.14843-3.8125-2.71094-.625-1.72656-.44922-4.4375-.15234-4.4375-3.23438v-138.1914h53.26172V447.875l-2.62891 1.38672-1.8125 1.89844-.99219 2.53906.99219.86719 4.0039-.8672.4375-.40624 1.5547.40625 2.8828.20703.27735-.20703.21875-4.4375-.4961-.92969-4.4375-.45703V311.67187h13.3125V433.6836l-3.67187 2.26172.34766 4.4375 3.32422 2.02735 4.4375-1.51563.6289-.51172-.6289-.4336-2.52735-4.0039-1.91016-2.26172V311.67188h26.62891v138.55078l-3.8789 3.47656 3.8789 3.78125 3.66797-3.78125-3.66797-3.47656V311.67187h26.63281v146.45704l-.02734.0078.02734.01173.07813-.01172-.07813-.00781V311.67187h22.19141v146.33985l-.50781.125.50781.20703.65234-.20703-.65234-.125V311.67187h13.3164v145.46485l-4.4414.09765-2.51172.90235 2.51172.80078 4.4414-.11719 3.83204-.6836-3.83203-1V311.67189h53.2578V440.5664l-4.4375 4.24218-.02733.01172.02734.10547.33203 4.33594-.33203.39062-3.11719 4.04688-.75781 4.4375 2.09375 4.4375 1.78125 1.0586 4.4375 1.4375 4.4375.40624 3.11719 1.53906 1.32421 1.03125 2.46875-1.03125 1.96875-.26171.34375.26171 4.09375 4.125 4.4375-2.09375 1.66016-2.03125 1.70703-4.4414.23828-4.4375-.43359-4.4375.125-4.4375-3.29688-2.76953-4.4375.3711-4.4375-.98048-4.4375-.97265-.08593-.08985-4.35547-4.00781-4.4375-.2461V311.67189h97.64062v144.72265l-1.14843 1.74219 1.14843 1.70703v20.48438h-28.35546l-2.71094-2.4922-3.33594 2.4922h-7.27734l-2.69922-1.83204-4.4375-.44921-3.76953 2.28125h-19.375L392.54687 476l-4.14843-.10938-.28906-.10546-.07032.10546-2.1875 4.4375H144.00391"/></g><path fill="#50fcfc" fill-rule="evenodd" d="M160.97656 462.57422l-2.54297-4.4375.38672-4.4375 2.9336-3.83594v7.64453l-.07032.6289.07032.10548.16797-.10547-.16797-.6289v-7.64454l4.4375 3.23438 4.4375.15234 1.72656.44922 2.71094.625 4.14843 3.8125-4.14843 2.42187-4.4375-.20703-4.4375-.13281-3.60938 2.35547-.82812.6875-.77735-.6875"/><path fill="#00e8fc" fill-rule="evenodd" d="M161.7539 458.24219l-.0703-.10547.0703-.6289.16798.6289-.16797.10547"/><path fill="#50fcfc" fill-rule="evenodd" d="M210.57422 454.5664l-.99219-.86718.99219-2.53906 1.8125-1.89844 2.6289-1.38672 4.4375.45703.4961.92969-.21875 4.4375-.27734.20703-2.88282-.20703-1.55469-.40625-.4375.40625-4.0039.86719m14.42969-14.1836l-.34766-4.4375 3.67188-2.26172 1.91015 2.26172 2.52734 4.0039.62891.4336-.6289.51172-4.4375 1.51563-3.32422-2.02735m29.95312 17.09766l-3.8789-3.78125 3.8789-3.47656v1.48437l-2.22266 1.99219 2.22266 2.16797 2.10156-2.16797-2.10156-1.99219v-1.48437l3.66797 3.47656-3.66797 3.78125"/><path fill="#00e8fc" fill-rule="evenodd" d="M254.95703 455.86719l-2.22266-2.16797 2.22266-1.99219 2.10156 1.99219-2.10156 2.16797"/><path fill="#50fcfc" fill-rule="evenodd" d="M281.58984 458.14844l-.02734-.01172.02734-.00781.07813.0078-.07813.01173m22.19141.19531l-.50781-.20703.50781-.125.65234.125-.65234.20703m8.875.59375l-2.51172-.80078 2.51172-.90235 4.4414-.09765 3.83204 1-3.83203.6836-4.44141.11718m51.48047 3.63672l-2.09375-4.4375.75781-4.4375 3.11719-4.04688.33203-.39062-.33203-4.33594-.02735-.10547.02735-.01172 4.4375-4.24218 4.4375.24609 4.35547 4.00781.08594.08985 4.4375.97265v3.29297l-.3047.08594-4.1328 1.1914-4.44141 1.21485-4.4375-1.95313-3.34375 3.98438 3.34375 3.17578 2.95703 1.26172 1.48047 1.85156 1.01172 2.58594 3.42969 2 4.4375.38281 2.7539 2.0586 1.6836 1.6953 2.01171-1.6953 1.28125-4.44141-1.1875-4.4375-2.10546-1.59375-3.1836-2.84375-1.125-4.4375-.1289-.08594v-3.29297l4.4375.98047 4.4375-.3711 3.29687 2.76954-.125 4.4375.4336 4.4375-.23829 4.4375-1.70703 4.4414-1.66015 2.03125-4.4375 2.09375-4.09375-4.125-.34375-.26171-1.96875.26171-2.46875 1.03125-1.32422-1.03125-3.1172-1.53906-4.4375-.40625-4.4375-1.4375-1.78124-1.0586"/><path fill="#00e8fc" fill-rule="evenodd" d="M370.35547 456.875l-3.34375-3.17578 3.34375-3.98438 4.4375 1.95313 4.4414-1.21485 4.13282-1.1914.30469-.08594v8.1289l-1.3047.83204 1.3047 2.08594 1.70703 2.35156 2.73046 1.60547.81641-1.60547-.8164-1.41406-3.52344-3.02344-.91406-.83203v-8.1289l.1289.08593 1.125 4.4375 3.1836 2.84375 2.10546 1.59375 1.1875 4.4375-1.28125 4.4414-2.01171 1.69532-1.6836-1.69531-2.7539-2.0586-4.4375-.38281-3.4297-2-1.01171-2.58594-1.48047-1.85156-2.95703-1.26172"/><path fill="#00d4fc" fill-rule="evenodd" d="M383.67188 460.22266l-1.3047-2.08594 1.3047-.83203.91406.83203 3.52344 3.02344.8164 1.41406-.8164 1.60547-2.73047-1.60547-1.70704-2.35156"/><g clip-path="url(#c)"><path fill="#50fcfc" fill-rule="evenodd" d="M385.85156 480.32813h4.29297l2.40235-1.91016 1.53906 1.91015h1.94922L392.54687 476l-4.14843-.10938-.28906-.10546-.07032.10546-2.1875 4.4375"/></g><g clip-path="url(#d)"><path fill="#00e8fc" fill-rule="evenodd" d="M390.14453 480.32813l2.40235-1.91016 1.53906 1.91015h-3.9414"/></g><g clip-path="url(#e)"><path fill="#50fcfc" fill-rule="evenodd" d="M415.41016 480.32813l3.76953-2.28125 4.4375.44921 2.69922 1.83204h-10.90625"/></g><g clip-path="url(#f)"><path fill="#50fcfc" fill-rule="evenodd" d="M433.59375 480.32813l3.33594-2.4922 2.71094 2.4922h-6.04688"/></g><path fill="#50fcfc" fill-rule="evenodd" d="M467.9961 459.84375l-1.14844-1.70703 1.14843-1.74219v3.44922"/><g clip-path="url(#g)"><path fill="#fff" fill-opacity="0" fill-rule="evenodd" d="M467.9961 480.32813H468v-20.48047 20.48046h-.0039"/></g><path fill="#50fcfc" fill-rule="evenodd" d="M467.9961 456.39453v3.44922l.0039.0039v-3.45702l-.0039.0039"/><g clip-path="url(#h)"><path fill="#fff" fill-opacity="0" fill-rule="evenodd" d="M467.9961 311.67188H468v144.71875-144.71875h-.0039"/></g><g clip-path="url(#i)"><path fill="none" stroke="#000" stroke-linecap="round" stroke-linejoin="round" stroke-miterlimit="10" stroke-width=".5" d="M147.51172 480.26953l-7.02344.11719"/></g><g clip-path="url(#j)"><path fill="none" stroke="#000" stroke-linecap="round" stroke-linejoin="round" stroke-miterlimit="10" stroke-width=".5" d="M147.51172 480.26953l1.1914 2.14844"/></g><g clip-path="url(#k)"><path fill="none" stroke="#000" stroke-linecap="round" stroke-linejoin="round" stroke-miterlimit="10" stroke-width=".5" d="M160.82813 480.28125l-7.02735.09375"/></g><g clip-path="url(#l)"><path fill="none" stroke="#000" stroke-linecap="round" stroke-linejoin="round" stroke-miterlimit="10" stroke-width=".5" d="M160.82813 480.28125l1.17968 2.15234"/></g><g clip-path="url(#m)"><path fill="none" stroke="#000" stroke-linecap="round" stroke-linejoin="round" stroke-miterlimit="10" stroke-width=".5" d="M174.1211 480.73047l-6.98048-.80469"/></g><g clip-path="url(#n)"><path fill="none" stroke="#000" stroke-linecap="round" stroke-linejoin="round" stroke-miterlimit="10" stroke-width=".5" d="M174.1211 480.73047l.89452 2.28515"/></g><g clip-path="url(#o)"><path fill="none" stroke="#000" stroke-linecap="round" stroke-linejoin="round" stroke-miterlimit="10" stroke-width=".5" d="M187.45703 480.48438l-7.02344-.3086"/></g><g clip-path="url(#p)"><path fill="none" stroke="#000" stroke-linecap="round" stroke-linejoin="round" stroke-miterlimit="10" stroke-width=".5" d="M187.45703 480.48438l1.05469 2.21484"/></g><g clip-path="url(#q)"><path fill="none" stroke="#000" stroke-linecap="round" stroke-linejoin="round" stroke-miterlimit="10" stroke-width=".5" d="M200.77344 480.29688l-7.02735.0625"/></g><g clip-path="url(#r)"><path fill="none" stroke="#000" stroke-linecap="round" stroke-linejoin="round" stroke-miterlimit="10" stroke-width=".5" d="M200.77344 480.29688l1.17187 2.15625"/></g><g clip-path="url(#s)"><path fill="none" stroke="#000" stroke-linecap="round" stroke-linejoin="round" stroke-miterlimit="10" stroke-width=".5" d="M214.0664 479.92188l-6.98046.8125"/></g><g clip-path="url(#t)"><path fill="none" stroke="#000" stroke-linecap="round" stroke-linejoin="round" stroke-miterlimit="10" stroke-width=".5" d="M214.0664 479.92188l1.39454 2.01953"/></g><g clip-path="url(#u)"><path fill="none" stroke="#000" stroke-linecap="round" stroke-linejoin="round" stroke-miterlimit="10" stroke-width=".5" d="M227.375 479.89063l-6.97266.875"/></g><g clip-path="url(#v)"><path fill="none" stroke="#000" stroke-linecap="round" stroke-linejoin="round" stroke-miterlimit="10" stroke-width=".5" d="M227.375 479.89063l1.41406 2.0078"/></g><g clip-path="url(#w)"><path fill="none" stroke="#000" stroke-linecap="round" stroke-linejoin="round" stroke-miterlimit="10" stroke-width=".5" d="M240.71094 480.07422l-7.00781.50781"/></g><g clip-path="url(#x)"><path fill="none" stroke="#000" stroke-linecap="round" stroke-linejoin="round" stroke-miterlimit="10" stroke-width=".5" d="M240.71094 480.07422l1.30469 2.07812"/></g><g clip-path="url(#y)"><path fill="none" stroke="#000" stroke-linecap="round" stroke-linejoin="round" stroke-miterlimit="10" stroke-width=".5" d="M253.84375 479.1836l-6.64453 2.28906"/></g><g clip-path="url(#z)"><path fill="none" stroke="#000" stroke-linecap="round" stroke-linejoin="round" stroke-miterlimit="10" stroke-width=".5" d="M253.84375 479.1836l1.79297 1.67187"/></g><g clip-path="url(#A)"><path fill="none" stroke="#000" stroke-linecap="round" stroke-linejoin="round" stroke-miterlimit="10" stroke-width=".5" d="M266.82813 478.48828l-5.98438 3.67969"/></g><path fill="none" stroke="#000" stroke-linecap="round" stroke-linejoin="round" stroke-miterlimit="10" stroke-width=".5" d="M265.95703 479.02344l1.0586.6211"/><g clip-path="url(#B)"><path fill="none" stroke="#000" stroke-linecap="round" stroke-linejoin="round" stroke-miterlimit="10" stroke-width=".5" d="M280.07422 478.3789l-5.84766 3.89844"/></g><path fill="none" stroke="#000" stroke-linecap="round" stroke-linejoin="round" stroke-miterlimit="10" stroke-width=".5" d="M279.22266 478.94531l1.08203.58203"/><g clip-path="url(#C)"><path fill="none" stroke="#000" stroke-linecap="round" stroke-linejoin="round" stroke-miterlimit="10" stroke-width=".5" d="M293.70313 478.96875l-6.47657 2.72266"/></g><g clip-path="url(#D)"><path fill="none" stroke="#000" stroke-linecap="round" stroke-linejoin="round" stroke-miterlimit="10" stroke-width=".5" d="M292.76172 479.36328l.95312.77735"/></g><g clip-path="url(#E)"><path fill="none" stroke="#000" stroke-linecap="round" stroke-linejoin="round" stroke-miterlimit="10" stroke-width=".5" d="M307.29297 480.46875l-7.02344-.27734"/></g><g clip-path="url(#F)"><path fill="none" stroke="#000" stroke-linecap="round" stroke-linejoin="round" stroke-miterlimit="10" stroke-width=".5" d="M306.26953 480.42578l.53125 1.10547"/></g><g clip-path="url(#G)"><path fill="none" stroke="#000" stroke-linecap="round" stroke-linejoin="round" stroke-miterlimit="10" stroke-width=".5" d="M320.46484 481.32813l-6.73828-2"/></g><g clip-path="url(#H)"><path fill="none" stroke="#000" stroke-linecap="round" stroke-linejoin="round" stroke-miterlimit="10" stroke-width=".5" d="M319.48438 481.03906l.24218 1.19922"/></g><g clip-path="url(#I)"><path fill="none" stroke="#000" stroke-linecap="round" stroke-linejoin="round" stroke-miterlimit="10" stroke-width=".5" d="M331.15625 483.76172l-1.49219-6.86719"/></g><g clip-path="url(#J)"><path fill="none" stroke="#000" stroke-linecap="round" stroke-linejoin="round" stroke-miterlimit="10" stroke-width=".5" d="M341.78906 483.25781l3.875-5.85937"/></g><g clip-path="url(#K)"><path fill="none" stroke="#000" stroke-linecap="round" stroke-linejoin="round" stroke-miterlimit="10" stroke-width=".5" d="M353.79297 481.66406l6.4961-2.67187"/></g><g clip-path="url(#L)"><path fill="none" stroke="#000" stroke-linecap="round" stroke-linejoin="round" stroke-miterlimit="10" stroke-width=".5" d="M354.73828 481.27734l-.94531-.78125"/></g><g clip-path="url(#M)"><path fill="none" stroke="#000" stroke-linecap="round" stroke-linejoin="round" stroke-miterlimit="10" stroke-width=".5" d="M369.77344 483.79297l1.16797-6.92969"/></g><g clip-path="url(#N)"><path fill="none" stroke="#000" stroke-linecap="round" stroke-linejoin="round" stroke-miterlimit="10" stroke-width=".5" d="M381.07813 482.69922l5.18359-4.74219"/></g><g clip-path="url(#O)"><path fill="none" stroke="#000" stroke-linecap="round" stroke-linejoin="round" stroke-miterlimit="10" stroke-width=".5" d="M393.5 480.7539l6.97266-.85156"/></g><g clip-path="url(#P)"><path fill="none" stroke="#000" stroke-linecap="round" stroke-linejoin="round" stroke-miterlimit="10" stroke-width=".5" d="M394.51172 480.6289l-.70313-1.0039"/></g><g clip-path="url(#Q)"><path fill="none" stroke="#000" stroke-linecap="round" stroke-linejoin="round" stroke-miterlimit="10" stroke-width=".5" d="M406.97656 479.19922l6.65235 2.26172"/></g><path fill="none" stroke="#000" stroke-linecap="round" stroke-linejoin="round" stroke-miterlimit="10" stroke-width=".5" d="M407.9414 479.52734l-.1953-1.21093"/><g clip-path="url(#R)"><path fill="none" stroke="#000" stroke-linecap="round" stroke-linejoin="round" stroke-miterlimit="10" stroke-width=".5" d="M423.3164 476.82813l.60157 7"/></g><g clip-path="url(#S)"><path fill="none" stroke="#000" stroke-linecap="round" stroke-linejoin="round" stroke-miterlimit="10" stroke-width=".5" d="M437.0586 476.8164l-.25391 7.02344"/></g><g clip-path="url(#T)"><path fill="none" stroke="#000" stroke-linecap="round" stroke-linejoin="round" stroke-miterlimit="10" stroke-width=".5" d="M449.85156 476.83594l.78906 6.98437"/></g><g clip-path="url(#U)"><path fill="none" stroke="#000" stroke-linecap="round" stroke-linejoin="round" stroke-miterlimit="10" stroke-width=".5" d="M466.04297 477.83984l-4.96094 4.97657"/></g><path fill="none" stroke="#000" stroke-linecap="round" stroke-linejoin="round" stroke-miterlimit="10" stroke-width=".5" d="M465.32031 478.5664l1.17578.35548"/><g clip-path="url(#V)"><path fill="none" stroke="#000" stroke-linecap="round" stroke-linejoin="round" stroke-miterlimit="10" stroke-width=".5" d="M147.51172 467.14063l-7.02344-.25"/></g><path fill="none" stroke="#000" stroke-linecap="round" stroke-linejoin="round" stroke-miterlimit="10" stroke-width=".5" d="M147.51172 467.14063l1.07422 2.20312m12.24219-2.39453l-7.02735.1289m7.02734-.1289l1.19141 2.14453m12.125-2.07031l-7.02734-.01953m7.02734.01953l1.14453 2.17187m12.16797-2.32812l-7.02344.29297m7.02344-.29297l1.23828 2.11719m-2.26172-2.07422l.6211 1.05859m13.6836-1.4414l-6.95704.97265m6.95703-.97266l1.4414 1.98828m-2.45312-1.84765l.72266.9961m13.48828-1.66798l-6.72656 2.03516m6.72656-2.03516l1.73047 1.73828m-2.70703-1.4414l.86328.86719m13.3711-1.33985l-6.60938 2.38672m6.60937-2.38672l1.82031 1.64453m-2.78125-1.29687l.91016.82422m13.3711-1.15625l-6.6211 2.35547m6.6211-2.35547l1.8125 1.65625m11.45703-1.77344l-6.53125 2.58984m6.53125-2.58984l1.87109 1.58984m11.03125-2.34765l-5.70313 4.10547m5.70313-4.10547l2.19922 1.08593m10.66406-1.60156l-4.80078 5.13672m4.80078-5.13672l2.36719.64063m10.7539-.80469l-4.41406 5.46484m4.41406-5.46484l2.41016.46484m11.01172-.375l-4.6289 5.28516m3.95702-4.51563l1.19532.27735m12.70312-1.125l-4.44922 5.4414m3.80079-4.64843l1.20312.23828m12.78516-1.01172l-4.4961 5.40234m3.83985-4.61718l1.20312.2539m13.64453 3.26953l-6.25-3.21484m13.1914.26953l6.4961 2.67578m7.07813.50782l5.98047-3.69141m-5.11329 3.15234l-1.05859-.61718m13.1875.49609l6.61719-2.3711m-5.65625 2.02344l-.90625-.82422m14.54297-2.8828l4.05078 5.73827m-3.46094-4.90234l.55078-1.09766m11.42969.96875l5.53906 4.32422m-4.73047-3.69531l.21094-1.20703m11.67578 1.8164l6.78125 1.84766m-5.79687-1.57812l-.26953-1.19532m12.58984.96094l6.80078 1.77734m-5.8125-1.51953l-.28125-1.1914m14.86719-1.5l2.28125 6.64453m-1.94922-5.67969l.83984-.89453m15.6875.6875l-4.80468 5.1289m4.10546-4.3828l1.1836.3203"/><g clip-path="url(#W)"><path fill="none" stroke="#000" stroke-linecap="round" stroke-linejoin="round" stroke-miterlimit="10" stroke-width=".5" d="M147.5 454.01172l-7-.625"/></g><path fill="none" stroke="#000" stroke-linecap="round" stroke-linejoin="round" stroke-miterlimit="10" stroke-width=".5" d="M147.5 454.01172l.95313 2.26172m12.35156-2.1836l-6.98047-.78515m6.98047.78515l.90234 2.28516m-1.91797-2.39844l.45313 1.14063m13.84375-.78906l-6.91406-1.25782m6.91406 1.25781l.7461 2.33985m12.62108-3.1875l-7.01562.4375m7.01563-.4375l1.28515 2.08984m-2.3086-2.02734l.64454 1.04687m13.57422-1.8164l-6.77735 1.84765m6.77735-1.84765l1.6836 1.78906m-2.66798-1.51953l.83985.89453m13.42578-1.28906l-6.70703 2.10156m6.70703-2.10156l1.7461 1.72265m11.07812-2.70703l-5.72657 4.07031m5.72657-4.0703l2.1953 1.09765m11.23048-.9336l-5.94922 3.7422m5.94922-3.7422l2.1289 1.21875m11.72657.70313l-7.02735-.10547m6.0039.08985l.5586 1.09375m13.29297-2.91016l-6.05469 3.5625m6.0547-3.5625l2.09374 1.28515m-2.97265-.76562l1.04296.64063m12.82032-1.63282l-5.39454 4.50781m5.39454-4.5078l2.27343.92187m-3.05859-.26563l1.13672.46094m12.85547-1.23828l-5.17969 4.75m5.17969-4.75l2.3125.82031m-3.0664-.1289l1.15624.41015m13.08984-.89453l-5.53125 4.33203m5.53125-4.33203l2.2422.9961m11.48046-.33204l-6.34766 3.00781m6.34766-3.0078l1.96875 1.46484m11.36719-1.42579l-6.38672 2.9297m6.38672-2.9297l1.94922 1.48829m11.4336-1.32813L340.46483 455m5.57422-2.22656l.9375.79297m13.27735-1.28907l-6.42579 2.84375m13.6172-3.39062l5.8203 3.9375m9.90235-5.44531l1.00781 6.95312m-.85937-5.9414l.98828-.72657m11.55468-.13672l2.25391 6.65625m-2.2539-6.65625l1.67968-1.78515m11.48438 1.83984l2.5586 6.54688m-2.5586-6.54688l1.59765-1.85937m11.61328 1.90234L425 456.92969m-2.76563-6.46094l1.53907-1.91016m9.77734 4.1797l6.76172 1.92187m-5.77734-1.64454l-.25782-1.19921m13.66016-.76563l4.61719 5.29688m-3.94532-4.52735l.4375-1.14453m16.94922.48828l-4.86718 5.07031m4.16015-4.33203l1.17969.33594"/><g clip-path="url(#X)"><path fill="none" stroke="#000" stroke-linecap="round" stroke-linejoin="round" stroke-miterlimit="10" stroke-width=".5" d="M147.5039 440.64844l-7.0078-.53125"/></g><path fill="none" stroke="#000" stroke-linecap="round" stroke-linejoin="round" stroke-miterlimit="10" stroke-width=".5" d="M147.5039 440.64844l.98438 2.25m-2.0039-2.32422l.49218 1.1211m13.8164-.8125l-6.95702-1m6.95703 1l.83203 2.30859m-1.84375-2.45313l.83203 2.3086m13.51563-2.35157l-7-.625m7 .625l.95703 2.26172m-1.97266-2.35156l.95313 2.25781m13.39062-2.53125l-7.02344.10547m7.02344-.10547l1.1875 2.14844m-2.20703-2.13281l1.1836 2.14843m13.14843-2.26172l-7.01953.29688m7.01953-.29688l1.24219 2.1172m-2.26172-2.07423l.6211 1.0586m13.67187-1.52344l-6.9336 1.14453m6.9336-1.14453l1.48828 1.94922m11.69922-2.46875l-6.67969 2.17969m5.70703-1.85938l.88281.85156m11.84766-3.10937l-3.5664 6.05469m3.04687-5.17188l1.22656.05078m14.10156.82422l-6.55468 2.53906m5.60156-2.16797l.92969.80079m13.34765-1.14454l-6.57422 2.48438m6.57422-2.48438l1.84375 1.6211m11.31641-1.97266l-6.26172 3.1914m6.26172-3.1914l2.01172 1.40625m11.33203-1.34765l-6.32031 3.07421m6.32031-3.07421l1.98438 1.4414m-2.90235-.9961l.99219.72266m13.14844-1.34375l-6.13282 3.42579m6.13282-3.42579L308.91016 440m-2.95313-.83203l1.03125.66797m13.28516-.95313l-6.35547 3.0039m6.35547-3.0039l1.96484 1.46485m-2.89062-1.02735l.98437.73047m12.98828-1.63672l-5.82031 3.9375m5.82031-3.9375l2.16797 1.14844m10.5039-1.86328l-4.53124 5.3711m4.53125-5.3711l2.39844.51562m8.52343-1.34375l.2539 7.02344m-.21874-6l1.0625-.61719m13.16797-.30859l-1.64844 6.83203m1.41016-5.83984l1.1875-.30469m12.71093-.58594l-2.33593 6.6289m1.99609-5.66405l1.21094-.1836m13.32422-.32422l-4.09766 5.71094m3.5-4.8789l1.21875.16406m13.1836-.5664l-5.07813 4.85546m5.07812-4.85547l2.33204.76953m11.45703-.14844l-6.02735 3.61329m6.02735-3.61329l2.10156 1.26563m-2.97656-.74219l1.05078.63281m13.41797-.58593l-6.58204 2.46875m6.58204-2.46875l1.83984 1.625m-2.79688-1.26563l1.83594 1.625m12.47266-1.875l-6.65625 2.25m6.65625-2.25l1.78515 1.6875m11.66407-1.16406l-6.92188 1.20703"/><g clip-path="url(#Y)"><path fill="none" stroke="#000" stroke-linecap="round" stroke-linejoin="round" stroke-miterlimit="10" stroke-width=".5" d="M467.02344 439.78125l1.50781 1.9336"/></g><g clip-path="url(#Z)"><path fill="none" stroke="#000" stroke-linecap="round" stroke-linejoin="round" stroke-miterlimit="10" stroke-width=".5" d="M147.50781 426.88672l-7.01562.36328"/></g><path fill="none" stroke="#000" stroke-linecap="round" stroke-linejoin="round" stroke-miterlimit="10" stroke-width=".5" d="M147.50781 426.88672l1.26563 2.10156m-2.28516-2.05078l.63281 1.05469m13.70703-.85156l-7.02734-.14454m7.02734.14453l1.10938 2.1875m-2.13281-2.21093l1.10937 2.1914m13.22656-2.35547l-7.02343.23047m7.02344-.23047l1.22265 2.12891m-2.24219-2.09375l.60938 1.0625m13.72656-1.10547l-7.02344.2461m7.02344-.2461l1.22656 2.125m-2.25-2.08984l.61328 1.0625m13.72657-.8789l-7.02344-.19141m7.02344.1914l1.09375 2.19532m12.1914-1.82422l-6.96484-.9336m6.96484.9336l.85547 2.30078m12.48828-2.61328l-7.02343-.3086m7.02343.3086l1.0547 2.21484m12.20702-2.9961l-6.91406 1.25391m6.91406-1.2539l1.51953 1.92578m11.29297-3.19531l-5.91406 3.79296m5.91406-3.79296l2.14063 1.20312m11.4375-.71484l-6.4375 2.8164m5.5-2.40625l.96094.76172m13.23828-1.28906l-6.33203 3.05078m5.41015-2.60547l.98828.72266m13.3711-.88281l-6.57422 2.48046m6.57422-2.48046l1.83984 1.62109m11.65234-.94922l-6.93359 1.13672m6.9336-1.13672l1.48828 1.94922m11.60937-2.72266l-6.4961 2.6836m6.4961-2.6836l1.89063 1.5625m11.10937-2.15625l-5.86328 3.8711m5.86328-3.8711l2.15234 1.17188m10.90235-1.51953l-5.34375 4.5664m5.34375-4.5664l2.28125.89843m11.54297-.10937l-6.36328 2.98828m6.36328-2.98828l1.96093 1.47266m-2.88671-1.03516l.98046.73437m13.08594-1.49218l-6.01562 3.6328m5.14062-3.10546l1.05469.6289m12.08984-2.2578l-3.92187 5.83203m3.92187-5.83204l2.4375.25391m12.41797 2.36328l-7.0039.59766m7.0039-.59766l1.33203 2.0625m-2.35156-1.97656l.66406 1.03125m13.5586-1.73828l-6.78125 1.83984m6.78125-1.83984l1.67968 1.78906m-2.66406-1.52344l.83985.89453m12.95703-2.24609l-5.77344 4.01172m5.77344-4.01172l2.17968 1.125m-3.01953-.53906l2.17969 1.1211m-3.01953-.53907l1.08984.5625m13.86719-1.78125l-5.69922 4.11328m5.69922-4.11328l2.19922 1.08203m-3.02734-.48437l2.19921 1.08203m12.08204-1.46875l-5.97657 3.6914m5.97657-3.6914l2.12109 1.23828m-2.98828-.70313l1.0586.6211m13.41015-.58985l-6.54688 2.5586"/><g clip-path="url(#aa)"><path fill="none" stroke="#000" stroke-linecap="round" stroke-linejoin="round" stroke-miterlimit="10" stroke-width=".5" d="M466.83594 425.78906l1.85937 1.60156"/></g><path fill="none" stroke="#000" stroke-linecap="round" stroke-linejoin="round" stroke-miterlimit="10" stroke-width=".5" d="M465.88281 426.16406l.92969.79688"/><g clip-path="url(#ab)"><path fill="none" stroke="#000" stroke-linecap="round" stroke-linejoin="round" stroke-miterlimit="10" stroke-width=".5" d="M147.4961 413.39063l-6.9922.72265"/></g><path fill="none" stroke="#000" stroke-linecap="round" stroke-linejoin="round" stroke-miterlimit="10" stroke-width=".5" d="M147.4961 413.39063l1.36718 2.03906m-2.38672-1.9336l.6875 1.01953m13.66016-.96484l-7.01563.40625m7.01563-.40625l1.27344 2.09766m-2.29688-2.03906l.64063 1.05078m13.6289-1.6172l-6.88281 1.42188m6.88281-1.42187l1.5664 1.89062m-2.5664-1.68359l.78125.94531m13.5586-1.03515l-6.9297 1.1875m6.9297-1.1875l1.5 1.9414m11.83984-1.75781l-6.98047.82031m6.98047-.82031l1.39844 2.01563m11.89453-2.16797l-6.9375 1.125m6.9375-1.125l1.48437 1.95312m-2.49218-1.78906l.74218.97656m13.39063-1.84375l-6.55469 2.53125m6.55469-2.53125l1.85547 1.60938m11.35156-1.86328l-6.33984 3.03906m5.41797-2.59766l.98828.73047m12.85156-1.8125l-5.54297 4.32031m5.54297-4.32031l2.23828 1.0039m10.86328-1.2539l-5.11719 4.8164m5.1172-4.8164l2.32421.78906m11.5625.02735l-6.26172 3.18359m6.26172-3.1836l2.01172 1.41016m11.60937.91797l-6.87109-1.46875m19.95312-.71094l-6.40625 2.88672m5.47266-2.46484l.97266.75m12.94531-1.7539l-5.74219 4.05077m5.74219-4.05078l2.1875 1.10938m11.5-.42969l-6.48828 2.69531m6.48828-2.69531l1.89453 1.5586m11.66016.22265l-6.97266-.86719m6.97266.86719l.8789 2.29297m-1.89062-2.41797l.4375 1.14453m13.91406-1.28125l-7.01953-.34375m7.01953.34375l1.04297 2.21875m-2.0664-2.26953l1.04687 2.22266m13.26172-2.82422l-6.96094.95703m6.96094-.95703l1.4375 1.99219m-2.44922-1.85157l1.4375 1.98828m12.78906-2.60156l-6.76172 1.90625m6.76172-1.90625l1.69922 1.76953m-2.67969-1.49218l1.69531 1.76953m12.50391-2.34375L393.70313 415m6.5664-2.4961l1.84766 1.6172m-2.80078-1.25391l1.84375 1.61719m12.3828-2.08204l-6.48437 2.70313m6.48438-2.70313l1.89844 1.5547m-2.83985-1.16016l1.89453 1.55468m12.34375-2l-6.4453 2.80078m6.4453-2.80078l1.91797 1.53125m-2.85547-1.1211l.95703.76173m13.3125-1.13281l-6.48046 2.72265m6.48046-2.72265l1.89844 1.55468m-2.84375-1.15625l.95313.77344m13.24218-1.3086l-6.35156 3m6.35156-3l1.96875 1.46485M452.5 412.69141l.98437.73047m13.26563-1.14454l-6.375 2.95313"/><g clip-path="url(#ac)"><path fill="none" stroke="#000" stroke-linecap="round" stroke-linejoin="round" stroke-miterlimit="10" stroke-width=".5" d="M466.75 412.27734l1.95703 1.48047"/></g><path fill="none" stroke="#000" stroke-linecap="round" stroke-linejoin="round" stroke-miterlimit="10" stroke-width=".5" d="M465.82031 412.70703l.98047.73828"/><g clip-path="url(#ad)"><path fill="none" stroke="#000" stroke-linecap="round" stroke-linejoin="round" stroke-miterlimit="10" stroke-width=".5" d="M147.47266 399.91406l-6.94532 1.04688"/></g><path fill="none" stroke="#000" stroke-linecap="round" stroke-linejoin="round" stroke-miterlimit="10" stroke-width=".5" d="M147.47266 399.91406l1.46484 1.97266m11.85938-1.90625l-6.96485.91406m6.96484-.91406l1.42579 1.9961m11.18359-3.69141l-5.55078 4.30859m5.55078-4.3086l2.23828 1.00391m11.72656.36719l-6.85156 1.5625m5.85547-1.33203l.80078.92578m13.35156.92188l-6.53125-2.59375m6.53125 2.59375l.26953 2.4414m13.28125-3.47656l-7.0078-.52344m7.0078.52344l.98829 2.2461m-2.00782-2.32032l.4961 1.1211m13.83594-1.60548l-7 .59766m7-.59765l1.33203 2.05859m-2.35157-1.97266l.66797 1.03125m13.63672-1.36719l-6.9414 1.09375m6.9414-1.09375l1.47656 1.96094m-2.48437-1.80078l.73437.98047m13.58203-1.17578l-6.92968 1.16406m6.92969-1.16406l1.49609 1.94531m-2.5039-1.77344l.75.97266m13.60155-.94922l-6.98437.77735m6.98438-.77735l1.3828 2.02735m-2.39843-1.91407l1.38281 2.02344m12.91406-2.3711l-6.91796 1.2422m6.91797-1.2422l1.51562 1.9297M279.60156 400l1.51563 1.92969m12.85156-1.24219l-7.00781-.5m7.00781.5l.9961 2.2461m-2.01563-2.31641l.5 1.1211m13.84375-1.33985l-7.02735.08203m7.02735-.08203l1.17969 2.15234m12.10546-1.66015l-6.96484-.90625m6.96485.90625l.86328 2.29687m-1.875-2.42578l.42968 1.14844m13.75-.3711l-6.67187-2.20312m6.67187 2.20312l.41407 2.41797m-1.38282-2.73828l.41407 2.41797m13.59375-1.46875l-6.1172-3.46094m6.1172 3.46094l-.06641 2.45312m-.82422-2.95703l-.0664 2.45313m14.625-2.83985l-6.82422-1.67578m6.82421 1.67578l.60157 2.37891m-1.59375-2.625l.60156 2.3789m13.78906-2.61718l-6.99219-.70703m6.9922.70703l.92968 2.26953m-1.94531-2.3711l.46094 1.13282m13.69921-2.52344l-6.64843 2.27735m6.64843-2.27735l1.78907 1.67578m-2.75782-1.34375l1.79297 1.67578m12.57031-1.74609l-6.80859 1.75m6.8086-1.75l1.65234 1.8125m-2.64453-1.5586l1.65625 1.8125m12.60937-2.20702l-6.72656 2.03515m6.72656-2.03515l1.73047 1.73828m-2.70703-1.44532l1.72656 1.7422m12.46875-2.3125l-6.53515 2.58593m6.53515-2.58594l1.86719 1.59375m-2.8164-1.21484l1.86718 1.58984m12.49219-1.70312l-6.72266 2.05859m6.72266-2.0586l1.73437 1.73438m-2.71484-1.4336l.86719.8672m13.39062-1.28125l-6.64844 2.28125m6.64844-2.28125l1.79297 1.67968m-2.76172-1.34765l.89844.83984m13.34375-1.28516l-6.5625 2.50782"/><g clip-path="url(#ae)"><path fill="none" stroke="#000" stroke-linecap="round" stroke-linejoin="round" stroke-miterlimit="10" stroke-width=".5" d="M466.84375 399.1836l1.84766 1.61327"/></g><path fill="none" stroke="#000" stroke-linecap="round" stroke-linejoin="round" stroke-miterlimit="10" stroke-width=".5" d="M465.88672 399.54688l.92578.80859"/><g clip-path="url(#af)"><path fill="none" stroke="#000" stroke-linecap="round" stroke-linejoin="round" stroke-miterlimit="10" stroke-width=".5" d="M147.41406 386.29297l-6.82812 1.66015"/></g><path fill="none" stroke="#000" stroke-linecap="round" stroke-linejoin="round" stroke-miterlimit="10" stroke-width=".5" d="M147.41406 386.29297l1.63281 1.83203m11.78125-1.08984l-7.02734.17578m7.02734-.17578l1.20313 2.14062m-2.22656-2.11328l.60156 1.07031m13.73828-1.08203l-7.02734.14453m7.02734-.14453l1.19531 2.14453m-2.21875-2.1211l1.19532 2.14063m13.1328-1.84765l-7.0078-.48828m7.0078.48828l1 2.24219m-2.01952-2.3125l1 2.24218m12.98437-.86719l-6.3086-3.09375m6.3086 3.09375l.08203 2.44922m-1-2.90234l.08203 2.45313m14.50782-3.71094l-7.01953.32422m7.01953-.32422l1.25 2.11328m-2.27344-2.0664l1.25 2.11327m13.08984-2.10156l-7.02343.20703m7.02343-.20703l1.21485 2.13281m-2.23828-2.10156l.60937 1.0664m13.66797-1.64843l-6.90234 1.3086m6.90234-1.3086l1.53516 1.91406m-2.53907-1.72265l.76953.95703m13.50391-1.35938l-6.8086 1.73047m6.8086-1.73047l1.64844 1.8164m11.65234-1.86718l-6.78125 1.83203m6.78125-1.83203L268.90625 388m11.75781-.9375l-7.02734.1211m7.02734-.1211l1.1875 2.14453m-2.21094-2.125l.59375 1.07031m13.73438-.75l-7.0039-.55859m7.0039.5586l.97656 2.25m-1.9961-2.33204l.48829 1.125m13.80469-.71094l-6.92188-1.22265m6.92188 1.22265L308 390.06642m-1.76563-2.51172l.37891 1.16797m13.91797-.86329l-6.8711-1.47265m6.8711 1.47265l.67188 2.36329m-1.67188-2.57813l.33594 1.1836m13.94922-.83204l-6.8086-1.74609m6.8086 1.7461l.57421 2.3828m-1.5664-2.63671l.28906 1.1914m13.64844-.04296l-6.07031-3.53516m6.0703 3.53515l-.09374 2.45313m13.19922-2.13281l-5.65235-4.17188m5.65235 4.17188l-.35938 2.42578m14.33594-4.9414l-6.97656.85937m6.97656-.85938l1.40625 2.00781m-2.42188-1.8828l1.41016 2.0078m12.77344-2.79687l-6.67969 2.1836m6.67969-2.1836l1.76562 1.69922m-2.73828-1.38281l1.76953 1.70312m12.27735-2.58594l-6.19922 3.31641m6.19922-3.3164l2.03515 1.36718m-2.9375-.88281l1.01954.6836m13.16796-1.21876l-6.14062 3.41797m6.14062-3.41797l2.0586 1.33594m-2.95313-.83594l1.03125.66406m13.1875-1.14843l-6.15625 3.38672m6.15625-3.38672l2.05469 1.33984m-2.95313-.84765l1.02735.67187m13.33594-.85938l-6.45704 2.77735m6.45704-2.77735l1.91406 1.53516m-2.85547-1.13281l.95703.76953m13.4375-.78516l-6.73437 2.00391m6.73437-2.0039l1.72266 1.74609m-2.70313-1.45313l.86328.8711m13.45704-1.08204l-6.78125 1.83985"/><g clip-path="url(#ag)"><path fill="none" stroke="#000" stroke-linecap="round" stroke-linejoin="round" stroke-miterlimit="10" stroke-width=".5" d="M466.95313 386.20313l1.67968 1.78906"/></g><path fill="none" stroke="#000" stroke-linecap="round" stroke-linejoin="round" stroke-miterlimit="10" stroke-width=".5" d="M465.96484 386.46875l.83985.89453"/><g clip-path="url(#ah)"><path fill="none" stroke="#000" stroke-linecap="round" stroke-linejoin="round" stroke-miterlimit="10" stroke-width=".5" d="M147.51172 373.65625l-7.02344.30469"/></g><path fill="none" stroke="#000" stroke-linecap="round" stroke-linejoin="round" stroke-miterlimit="10" stroke-width=".5" d="M147.51172 373.65625l1.24219 2.11328m-2.26563-2.07031l.6211 1.0586m13.65234-.25782l-6.89063-1.38281m6.89063 1.38281l.70312 2.34766m-1.70703-2.55079l.35156 1.17579m14.00782-1.25l-6.97656-.82813m6.97656.82813l.89062 2.28906m-1.90234-2.41016l.4414 1.14453m13.91016-1.3203l-7.02344-.23829m7.02344.23828l1.07813 2.20703m-2.10157-2.23828l.53907 1.10156m13.80078-1.13671l-7.02735-.10547m7.02735.10546l1.1211 2.1836m-2.14454-2.19922l.5625 1.09375m13.77734-1.0625l-7.02734-.13281m7.02734.13281l1.10938 2.1875m-2.13281-2.20703l.55468 1.09375m13.78125-1.1914l-7.02343.10156m7.02343-.10157l1.1836 2.15235m12.08594-2.6797l-6.9336 1.15626m6.9336-1.15625l1.49218 1.94922m11.73828-2.32422l-6.76172 1.90625m5.77735-1.6289l.84766.88671m13.3828-1.3789l-6.625 2.33593m5.66016-1.9961l.90625.82813m13.51172-.65234l-6.90234 1.30469m6.90234-1.30469l1.53516 1.91406m11.74219-.42187l-6.82422-1.67969m6.82422 1.67969l.59765 2.3789m12.7461-2.51562l-6.88282-1.40625m6.88282 1.40625l.6953 2.35156m12.63282-2.41015l-6.91016-1.28907m6.91016 1.28906l.73438 2.33985m12.59375-2.42969l-6.9375-1.10937m6.9375 1.10937l.79687 2.32031m12.48828-2.14453l-6.875-1.46094m6.875 1.46094l.67578 2.35547m12.61328-2.23828l-6.8203-1.69531m6.8203 1.69531l.59375 2.3789m-1.58984-2.625l.30078 1.1875m14.10938-1.64062l-7.01953-.29687m7.01953.29687l1.0586 2.21094m-2.08204-2.2539l1.0625 2.21093m13.21875-2.96875l-6.90625 1.30469m6.90625-1.30469l1.53516 1.91406m-2.54297-1.72656l.76953.95703m13.40234-1.6875l-6.60547 2.39063m6.60547-2.39063l1.82031 1.64453m-2.78125-1.29687l.91016.82422m13.16016-1.63282l-6.19532 3.3125m6.19532-3.3125l2.03906 1.3672m-2.9414-.88673l1.01952.6836m13.08594-1.36329l-5.96875 3.71094m5.96875-3.71094l2.1211 1.23047m11.38671-.8789l-6.35546 3.00781m6.35546-3.00781l1.96485 1.46875m-2.89063-1.03125l.98438.73437m13.40234-.80469l-6.64844 2.27344m6.64844-2.27344l1.79297 1.67579M452.60547 373l.89453.83984m13.32031-1.34765l-6.51562 2.63281"/><g clip-path="url(#ai)"><path fill="none" stroke="#000" stroke-linecap="round" stroke-linejoin="round" stroke-miterlimit="10" stroke-width=".5" d="M466.82031 372.49219l1.8789 1.57812"/></g><g clip-path="url(#aj)"><path fill="none" stroke="#000" stroke-linecap="round" stroke-linejoin="round" stroke-miterlimit="10" stroke-width=".5" d="M147.51172 360.42188l-7.02344.14062"/></g><path fill="none" stroke="#000" stroke-linecap="round" stroke-linejoin="round" stroke-miterlimit="10" stroke-width=".5" d="M147.51172 360.42188l1.19531 2.14453m-2.21484-2.125l.59765 1.07421m13.73047-1.27343l-7.00781.5039m7.00781-.5039l1.30469 2.07812m-2.32422-2.00781l.65234 1.03906m13.6875-.71484l-7.01953-.28516m7.01953.28516l1.0625 2.21094m12.19532-2.9961l-6.90625 1.28125m6.90625-1.28125l1.52734 1.92188m11.27734-3.19922l-5.88671 3.83594m5.88672-3.83594l2.14843 1.1875m9.84766-2.38281l-3.25 6.23046m2.77734-5.32421l1.22656-.01172m13.08985-.5586l-4.30469 5.5547m3.67578-4.7461l1.21094.20703m13.61719-.0039l-6.07422 3.53124m5.1914-3.01562l1.04297.64844m13.62891.42187l-7.01953.35938m5.9961-.3047l.6328 1.05079m13.53907.14844l-6.6914-2.14454m5.71874 1.83204l.21875 1.20703m13.8164-.29688l-6.18359-3.33984m5.28516 2.85156l-.00781 1.22656m14.41797-1.16796l-6.57422-2.48047m5.61719 2.11718l.15625 1.21875m14.17578-1.03125l-6.69532-2.1289m6.69532 2.1289l.4414 2.41407m12.92578-2.59375l-6.80078-1.77344m6.80078 1.77344l.56641 2.38671m12.77344-2.48437l-6.84766-1.57813m6.84766 1.57813l.63281 2.3711m12.42578-1.64454l-6.33984-3.03125m6.33984 3.03125L347 364.46094m13.35938-2.8125l-6.63672-2.3086m6.63672 2.3086l.3789 2.42187m-1.34375-2.75781l.1875 1.21094m14.21485-1.32031l-6.88282-1.42188m6.88282 1.42188l.6914 2.35546m-1.6914-2.5625l.34375 1.1797m14.01953-2.09767l-6.97657.82813m6.97657-.82813l1.39843 2.01563m-2.41406-1.89453l1.39844 2.01562m12.88281-2.4453l-6.8789 1.4453m6.8789-1.4453l1.57031 1.8828m-2.5703-1.67187l.78515.9414m13.4961-1.28906l-6.8125 1.72266m6.8125-1.72266l1.64843 1.8164m-2.64063-1.5664l.82422.90625m13.45313-1.27344l-6.75 1.95313m6.75-1.95313l1.70703 1.76172m-2.6914-1.47656l.85546.88281m13.4414-1.17187l-6.74609 1.96094m6.7461-1.96094l1.71094 1.75781m-2.69141-1.47265l.85547.8789m13.42187-1.22265l-6.71093 2.08203m6.71093-2.08204l1.74219 1.72657m-2.71875-1.42578l.8711.86328m13.04687-1.98047l-5.96484 3.71484"/><g clip-path="url(#ak)"><path fill="none" stroke="#000" stroke-linecap="round" stroke-linejoin="round" stroke-miterlimit="10" stroke-width=".5" d="M466.54297 358.63672l2.125 1.23047"/></g><path fill="none" stroke="#000" stroke-linecap="round" stroke-linejoin="round" stroke-miterlimit="10" stroke-width=".5" d="M465.67578 359.17578l1.0625.61719"/><g clip-path="url(#al)"><path fill="none" stroke="#000" stroke-linecap="round" stroke-linejoin="round" stroke-miterlimit="10" stroke-width=".5" d="M147.35938 346.14453l-6.71875 2.0664"/></g><path fill="none" stroke="#000" stroke-linecap="round" stroke-linejoin="round" stroke-miterlimit="10" stroke-width=".5" d="M147.35938 346.14453l1.73828 1.73047m11.57422-1.73047l-6.71485 2.0664m6.71484-2.0664l1.73829 1.73438m11.4453-2.09375l-6.45312 2.78515m6.45313-2.78515l1.91797 1.53515m10.03515-3.1211l-3.72656 5.95704m3.72656-5.95703l2.44922.17187m8.8164-.70312l.3711 7.01953m-.3711-7.01953l2.10157-1.26172m11.42969 1.25781l-.0586 7.02735m.0586-7.02735l2.17578-1.13281m13.46484 2.03906l-4.71093 5.21485m4.02343-4.45704l1.19141.30079m13.95313 1.86718l-6.9961-.63671m5.98047.54296l.47266 1.13282m13.53906.14062l-6.35547-2.9961m6.35547 2.9961l.11719 2.45313m13.40234-2.9961l-6.76563-1.91015m6.76563 1.91015l.51953 2.39844m12.78125-2.35938l-6.73828-1.98828m6.73828 1.98829l.49219 2.40234m12.57422-1.78516l-6.24219-3.22265m6.24219 3.22265l.03125 2.45313m12.98437-1.96875l-5.64062-4.1914m5.64062 4.1914l-.36718 2.42578m13.97265-2.88672l-6.22265-3.26953m6.22265 3.26953l.01172 2.45313m13.64453-3.4336l-6.90234-1.3086m6.90234 1.3086l.72656 2.34375m12.54297-2.13281l-6.8125-1.73047m6.8125 1.73047l.58203 2.38281m12.60547-1.98437l-6.5586-2.52735m6.5586 2.52735l.29688 2.4375m-1.25-2.8047l.14453 1.21876m14.29687-1.45703l-6.90234-1.3164m6.90234 1.3164l.72266 2.34765m-1.72656-2.53906l.35937 1.17188m14.01172-1.89063l-7.00781.5039m7.00781-.5039l1.30469 2.07813M386.15625 347l1.30469 2.07813m12.97265-2.58204l-6.89453 1.36329m6.89453-1.36329l1.55079 1.90235m-2.5547-1.70313l1.55079 1.90235m12.76562-2.11329l-6.89062 1.38672m6.89062-1.38671l1.5547 1.89843m-2.5586-1.69531l1.5586 1.89453m12.6875-2.38672l-6.7461 1.96485m6.7461-1.96485l1.71484 1.75781m-2.69532-1.47265l1.71094 1.75781m12.5625-2.11719l-6.69922 2.11329m6.69922-2.11329l1.75 1.72266m-2.72266-1.41406l1.75 1.71875M453.5 345.84766l-6.5039 2.66015m6.5039-2.66015l1.88672 1.5664m-2.83594-1.17969l.94531.78516m13.16407-1.4961l-6.19922 3.3086"/><g clip-path="url(#am)"><path fill="none" stroke="#000" stroke-linecap="round" stroke-linejoin="round" stroke-miterlimit="10" stroke-width=".5" d="M466.66016 345.52344l2.03906 1.3711"/></g><path fill="none" stroke="#000" stroke-linecap="round" stroke-linejoin="round" stroke-miterlimit="10" stroke-width=".5" d="M465.75781 346.0039l1.01953.6875"/><g clip-path="url(#an)"><path fill="none" stroke="#000" stroke-linecap="round" stroke-linejoin="round" stroke-miterlimit="10" stroke-width=".5" d="M146.75 331.67578l-5.5 4.375"/></g><path fill="none" stroke="#000" stroke-linecap="round" stroke-linejoin="round" stroke-miterlimit="10" stroke-width=".5" d="M145.94922 332.3125l1.125.48828m12.48828-1.63672l-4.4961 5.39844m3.84376-4.61328l1.19922.25m10.98046-1.82031l-.92187 6.96875m.78906-5.95313l1.14844-.42969m10.73828-.4375l2.20313 6.67188m-2.20313-6.67188l1.69531-1.77343m11.82813 1.71093l1.78515 6.79688m-1.52343-5.8086l.89843-.83203m16.47657 4.01172l-6.85547-1.53906m5.85937 1.3164l.32422 1.1836m13.94531-.79688l-6.77343-1.86718m6.77343 1.86719l.53516 2.39453m12.7539-2.3086l-6.72265-2.03906m6.72266 2.03906l.47656 2.40625m12.6289-1.8711l-6.30078-3.11327m6.30078 3.11328l.07032 2.45312m13.3125-2.60156l-6.4375-2.8125m6.4375 2.8125l.1875 2.44531m13.21484-2.66796l-6.61328-2.3672m6.61328 2.3672l.35547 2.42578m13.0664-2.76954l-6.82421-1.67968m6.82422 1.67969l.59765 2.3789m12.03125-1l-5.45312-4.4375m5.45312 4.4375l-.47656 2.40625m13.61719-2.21094l-5.10547-4.82812m5.10547 4.82812l-.65235 2.3672m14.42579-2.97267l-6.02344-3.61718m6.02344 3.61719l-.125 2.44921m-.75-2.97656l-.0625 1.22656m14.57421-1.39843l-6.66406-2.22266m6.66406 2.22266l.41016 2.42187m12.8789-2.34765l-6.61327-2.3711m6.61328 2.3711l.35546 2.42968m13.07032-2.79687l-6.83594-1.63281m6.83594 1.6328l.61719 2.375m-1.61329-2.61327l.3125 1.1875m14.0625-2.2422l-6.96093.95313m6.96093-.95312l1.4336 1.99219m-2.44531-1.85157l.71484.9922m13.55469-1.4375l-6.84766 1.5625m6.84766-1.5625l1.60546 1.85155m11.73047-1.76562l-6.89062 1.38672m6.89062-1.38672l1.5547 1.89844m11.73437-2.01563l-6.83594 1.625m6.83594-1.625l1.62109 1.83985m-2.61719-1.60547l.8125.92187m13.33594-1.66015l-6.51172 2.6328m6.51172-2.6328l1.88281 1.57421m-2.82812-1.1914l1.8789 1.57422m12.33985-2.0547l-6.42969 2.82813m6.42969-2.82812l1.92969 1.51953m-2.86329-1.10938l1.92579 1.51954m12.15625-2.26563l-6.09375 3.4961"/><g clip-path="url(#ao)"><path fill="none" stroke="#000" stroke-linecap="round" stroke-linejoin="round" stroke-miterlimit="10" stroke-width=".5" d="M466.60938 332.11328l2.07812 1.3086"/></g><g clip-path="url(#ap)"><path fill="none" stroke="#000" stroke-linecap="round" stroke-linejoin="round" stroke-miterlimit="10" stroke-width=".5" d="M465.72266 332.625l2.07812 1.30469"/></g><g clip-path="url(#aq)"><path fill="none" stroke="#000" stroke-linecap="round" stroke-linejoin="round" stroke-miterlimit="10" stroke-width=".5" d="M147.17188 319.03906l-6.34375 3.01563"/></g><path fill="none" stroke="#000" stroke-linecap="round" stroke-linejoin="round" stroke-miterlimit="10" stroke-width=".5" d="M146.25 319.48047l.98438.73047m12.52734-2.1836l-4.89063 5.04297m4.1797-4.3125l1.17577.34375m12.16016-1.59765l-3.51172 6.08984m3.51172-6.08984l2.44922.08593m12.45703 1.89063l-6.69531 2.13281m6.6953-2.13281l1.75392 1.71875m11.72265-.44531l-7.01562-.41407m7.01562.41407l1.01953 2.23046m-2.04297-2.28906l.51172 1.11328m13.82031-1l-7.0078-.51953m7.0078.51953l.98829 2.2461m-2.00782-2.32422l.4961 1.125m13.8086-.77735l-6.94532-1.0625m6.94531 1.0625l.8125 2.31641m-1.82422-2.46875l.40625 1.15625m13.85156-.66406l-6.80859-1.74219m6.8086 1.74219l.57812 2.38281m-1.57031-2.63672l.29297 1.1914m14.03125-1.01171l-6.84375-1.59375m6.84375 1.59375l.6328 2.3711m12.64454-2.21876l-6.76563-1.89843m6.76563 1.89843l.52344 2.39844m12.50781-1.69531l-6.19922-3.30469m6.19922 3.30469v2.45312m13.39453-2.60937l-6.35937-2.99219m6.35937 2.99219l.1211 2.45312m13.01562-2.12109l-6-3.65625m6 3.65625l-.14453 2.44922m12.51562-1.42578l-4.11328-5.69922m4.11328 5.69922l-1.08203 2.19922m15.17578-2.97266l-5.66796-4.15234m5.66796 4.15234l-.35156 2.42578m13.29297-1.9961l-4.92187-5.01171m4.20703 4.28125l-.3711 1.17187m12.91016.4297l-1.9414-6.75392m1.66015 5.76954l-.88281.85546m16.51562-1.42968l-6.01172-3.64063m5.13672 3.11328l-.07031 1.22266m14.72266-3.0664l-6.94141 1.10156m6.9414-1.10157l1.47657 1.96094M400.5 320.50781l-7.02734.08203m6.0039-.0703l.58985 1.07812m12.98047 1.14453l-5.48829-4.39063m18.63282 4.58594l-5.15235-4.77734m19.16407 1.10937l-6.54688 2.55469m5.59766-2.17969l.92968.79688m13.1797-1.51954l-6.23048 3.25m6.23047-3.25l2.02344 1.39063m-2.92969-.91797l1.01172.69531m12.75-1.83984l-5.3164 4.59375"/><g clip-path="url(#ar)"><path fill="none" stroke="#000" stroke-linecap="round" stroke-linejoin="round" stroke-miterlimit="10" stroke-width=".5" d="M466.21875 318.25l2.28906.88672"/></g><path fill="none" stroke="#000" stroke-linecap="round" stroke-linejoin="round" stroke-miterlimit="10" stroke-width=".5" d="M465.44531 318.91797l2.28906.88672"/><path fill="#00f" fill-rule="evenodd" d="M388.23828 467.64844h8.61719V457.5039h-8.61719v10.14453"/><path fill="azure" fill-rule="evenodd" d="M390.07031 459.33594h.83594v2.82422h3.28516v-2.82422h.83203v6.48047h-.83203v-2.91797h-3.28516v2.91797h-.83594v-6.48047"/><path fill="#ff3030" fill-rule="evenodd" d="M295.72656 445.45703h7.69531V435.3125h-7.6953v10.14453"/><path fill="azure" fill-rule="evenodd" d="M297.5586 437.14453h.83593v5.73828h3.1914v.74219h-4.02734v-6.48047"/><path fill="#00f" fill-rule="evenodd" d="M383.80078 432.14063h8.61719v-10.14454h-8.61719v10.14454"/><path fill="azure" fill-rule="evenodd" d="M385.63281 423.82813h.83203v2.82421h3.28907v-2.82421h.83203v6.48046h-.83203v-2.91796h-3.28907v2.91796h-.83203v-6.48046"/><path fill="#ff3030" fill-rule="evenodd" d="M291.28906 414.38672h7.6914v-10.14453h-7.6914v10.14453"/><path fill="azure" fill-rule="evenodd" d="M293.1211 406.07422h.83593v5.74219h3.1914v.73828h-4.02734v-6.48047"/><path fill="#ff3030" fill-rule="evenodd" d="M184.76953 396.63281h7.6914v-10.14453h-7.6914v10.14453"/><path fill="azure" fill-rule="evenodd" d="M186.60156 388.32031h.83203v5.74219h3.19532v.73828h-4.02735v-6.48047"/><path fill="#ffffe0" fill-rule="evenodd" d="M346.54688 401.30469h22.17968v-10.1914h-22.17969v10.1914"/><path fill-rule="evenodd" d="M350.04688 392.94531h.5078v6.29297h-.78906V394.75h-1.38671v-.55469l.55859-.0664.2539-.0547.23048-.08593.20312-.14453.17188-.20703.14062-.29688.10938-.39453m4.8125 0l.23046.01953.21875.0547.20704.08983.1953.1211.1836.14844.17188.17578.30078.42187.2461.49219.17968.54688.10937.57812.03907.58984-.03907.59375-.10937.58594-.17969.55469-.2461.5-.30077.42969-.17188.17968-.1836.15235-.1953.125-.20704.08984-.21875.0586-.23046.01953-.23047-.01954-.21875-.05859-.20704-.08984-.1953-.125-.1875-.15235-.16798-.17968-.30468-.4297-.2422-.5-.17968-.55468-.11328-.58594-.03516-.59375h.83204l.02734.56641.08203.5039.1289.44141.16016.375.1914.30078.21095.22266.22265.13672.22656.04687.22657-.04687.22265-.13672.21094-.22266.1914-.30078.16016-.375.125-.4414.08204-.50391.03125-.5664-.03125-.5586-.08204-.5-.125-.4375-.16015-.36719-.1914-.28906-.21095-.21484-.22265-.13282-.22656-.04296-.22657.04296-.22265.13282-.21094.21484-.1914.28906-.16016.36719-.12891.4375-.08203.5-.02735.5586h-.83203l.03516-.58985.11328-.57813.17969-.54687.24219-.49219.30468-.42187.16797-.17578.1875-.14844.19531-.1211.20704-.08984.21875-.05469.23046-.01953m5.08985 0h.51172v6.29297h-.78906V394.75h-1.38672v-.55469l.55859-.0664.2539-.0547.22657-.08593.20312-.14453.17579-.20703.14062-.29688.10547-.39453m2.82422 2.17578h.78906l.01953-.3164.0586-.28516.09765-.2539.14063-.21485.17968-.17578.22266-.1289.26563-.07813.30859-.02735.23828.01954.22266.0625.20703.10156.17969.14062.14843.17188.11328.20703.07032.23438.02343.26562-.01953.26953-.0664.22266-.10938.1914-.15625.17188-.19922.16406-.25.16406-.63281.39063-.53906.3125-.4375.3164-.34375.32422-.26563.33594-.1875.35156-.1289.3711-.06641.39062-.01953.41797h4.21094V398.5h-3.33204l.08204-.28516.11328-.23437.14844-.20313.1875-.17968.23046-.17188.27735-.17578.71875-.41797.41406-.20312.34766-.23047.28125-.2539.21875-.26563.16406-.27735.10937-.28515.0625-.28516.02344-.28125-.04297-.38281-.1211-.34766-.1875-.3086-.25-.26171-.30468-.21485-.34375-.15625-.38281-.09765-.40625-.03516-.4336.03125-.39843.10156-.35547.16407-.30469.23437-.2461.30469-.1875.375-.11718.44531-.03906.51953"/><path fill="#ffffe0" fill-rule="evenodd" d="M239.66016 440.45703h22.18359v-10.1914h-22.1836v10.1914"/><path fill-rule="evenodd" d="M243.16016 432.09766h.51172v6.29687h-.78907v-4.49219h-1.38672v-.55468l.5586-.06641.2539-.05078.22657-.08985.20312-.14062.17578-.21094.14063-.29687.10547-.39453m4.8164 0l.22656.01953.21875.05469.21094.08984.19531.1211.1836.14843.17187.17578.30078.42188.2422.49218.17968.54688.11328.57812.03906.59375-.03906.58985-.11328.58594-.17969.55468-.24219.5-.30078.42969-.17187.17969-.1836.15234-.1953.125-.21095.08985-.21875.05859-.22656.01953-.23047-.01953-.21875-.0586-.20703-.08984-.19922-.125-.18359-.15234-.17188-.17969-.30078-.42969-.24218-.5-.1797-.55469-.11327-.58593-.03906-.58985h.83593l.02735.5625.08203.50391.125.44531.16406.375.1914.29688.21094.22265.22266.13672.22656.04688.22656-.04688.22266-.13672.20703-.22265.1914-.29688.16407-.375.125-.44531.08203-.5039.02735-.5625-.02735-.5625-.08203-.5-.125-.4375-.16406-.36329-.1914-.29297-.20704-.21484-.22266-.13281-.22656-.04297-.22656.04297-.22266.13281-.21093.21484-.19141.29297-.16406.36328-.125.4375-.08203.5-.02735.5625h-.83594l.03907-.59375.11328-.57812.17969-.54688.24218-.49218.30078-.42188.17188-.17578.1836-.14844.19921-.1211.20703-.08983.21875-.0547.23047-.01952m5.08985 0h.5078v6.29687h-.78515v-4.49219h-1.39062v-.55468l.5625-.06641.25-.05078.23047-.08985.20312-.14062.17578-.21094.14063-.29687.10547-.39453m2.82422 2.17578h.78515l.01953-.3164.0586-.28517.10156-.2539.14062-.21485.1797-.17187.22265-.1289.26562-.08204.3086-.02734.23828.01953.22265.0625.20313.10156.17969.14063.14843.17187.11329.20703.07421.23438.02344.26562-.02344.26954-.0625.22265-.11328.1914-.15234.17188-.20313.16406-.24609.16407-.63281.39062-.53906.3125-.4375.3164-.34766.32423-.26172.33594-.1914.35156-.125.3711-.06641.39062-.02344.42187h4.21094v-.74219h-3.33203l.08593-.28515.11329-.23438.14843-.20312.1875-.17969.23047-.17188.27735-.17578.71875-.41406.41406-.20703.34375-.23047.28125-.25.22265-.26953.16016-.27734.11328-.28516.0625-.28516.01953-.28125-.03906-.3828-.1211-.34767-.1914-.30859-.25-.26172-.30078-.21094-.34766-.16015-.3789-.09766-.40625-.03515-.4336.03515-.39844.09766-.35546.16406-.3047.23438-.25.30468-.18358.375-.1172.44532-.03905.51953"/><path fill="#ffffe0" fill-rule="evenodd" d="M199.71484 460.85547h22.1836v-10.1914h-22.1836v10.1914"/><path fill-rule="evenodd" d="M203.21484 452.4961h.51172v6.29687h-.78906v-4.49219h-1.38672v-.55469l.5586-.0664.2539-.05078.22656-.08985.20313-.14062.17578-.21094.14063-.29688.10546-.39453m4.81641 0l.22656.01954.21875.05468.21094.08985.19531.12109.1836.14844.17187.17578.30078.42187.24219.4922.17969.54687.11328.57812.03906.59375-.03906.58985-.11328.58593-.17969.55469-.24219.5-.30078.42969-.17187.17969-.1836.15234-.19531.125-.21094.08984-.21875.0586-.22656.01953-.23047-.01953-.21875-.0586-.20703-.08984-.19922-.125-.1836-.15235-.17187-.17968-.30078-.42969-.24219-.5-.17968-.55469-.11328-.58594-.03907-.58984h.83594l.02734.5625.08203.5039.125.44532.16407.3711.1914.30077.21094.22266.22266.13672.22656.04688.22656-.04688.22266-.13672.21094-.22265.1875-.30079.16406-.37109.125-.44531.08203-.5039.03125-.5625-.03125-.5625-.08203-.5-.125-.4375-.16406-.36329-.1875-.29297-.21094-.21484-.22266-.13281-.22656-.04297-.22656.04296-.22266.13282-.21094.21484-.1914.29297-.16406.36328-.125.4375-.08204.5-.02734.5625h-.83594l.03906-.59375.11329-.57812.17968-.54688.2422-.49219.30077-.42187.17188-.17578.1836-.14844.19921-.1211.20703-.08984.21875-.05469.23047-.01953m5.08984 0h.50782v6.29688h-.78516v-4.49219h-1.39063v-.55469l.5625-.0664.25-.05078.23047-.08985.20313-.14062.17578-.21094.14063-.29688.10546-.39453m2.82422 2.17579h.78516l.01953-.31641.0586-.28516.10156-.2539.14062-.21485.17969-.17187.22266-.1289.26562-.08204.3086-.02734.23827.01953.22266.0625.20313.10156.17968.14063.14844.17187.11328.20703.07422.23438.02344.26562-.02344.26953-.0625.22266-.11328.1914-.15234.17188-.20313.16406-.2461.16406-.6328.39063-.53907.3125-.4375.3164-.34765.32423-.26172.33593-.1914.35156-.125.3711-.06642.39062-.02343.42188h4.21484v-.74219h-3.33594l.08594-.28515.11328-.23438.14844-.20313.1875-.17968.23047-.17188.27734-.17578.71875-.41406.41406-.20703.34375-.23047.28125-.25.22266-.26953.16016-.27735.11328-.28515.0625-.28516.01953-.28125-.03906-.38281-.1211-.34766-.1914-.3086-.25-.26171-.30078-.21094-.34766-.16015-.3789-.09766-.40626-.03516-.43359.03516-.39844.09766-.35547.16406-.30468.23437-.25.3047-.1836.375-.11719.4453-.03906.51954"/><path fill="#ffffe0" fill-rule="evenodd" d="M319.55078 347.50781h22.1836v-10.1914h-22.1836v10.1914"/><path fill-rule="evenodd" d="M323.05078 339.14844h.51172v6.29687h-.78906v-4.49219h-1.38672v-.55468l.5586-.0625.25-.05469.23046-.08984.20313-.14063.17578-.21094.14062-.29296.10547-.39844m4.8125 0l.23047.01953.21875.05469.21094.08984.19531.1211.1836.15234.17187.17578.30078.41797.24219.49219.17969.54687.11328.57813.03906.59375-.03906.59375-.11329.58203-.17968.55468-.24219.5-.30078.4297-.17188.17968-.18359.15234-.19531.125-.21094.08985-.21875.05859-.23047.01953-.22656-.01953-.21875-.0586-.21094-.08984-.19531-.125-.1836-.15234-.17187-.17969-.30078-.42969-.24219-.5-.17969-.55468-.11328-.58204-.03906-.59375h.83594l.02734.5625.08203.50391.125.44531.16406.375.19141.30079.21094.21875.22265.13671.22266.04688.22656-.04688.22266-.13671.21094-.21875.1914-.30079.16407-.375.125-.4453.08203-.50392.02734-.5625-.02734-.5625-.08203-.5-.125-.43359-.16407-.36719-.1914-.29296-.21094-.21485-.22266-.1289-.22656-.04688-.22265.04688-.22266.1289-.21094.21485-.1914.29296-.16407.3672-.125.43358-.08203.5-.02734.5625h-.83594l.03906-.59375.11328-.57812.1797-.54688.24218-.49218.30078-.41797.17188-.17578.18359-.15235.19531-.12109.21094-.08984.21875-.0547.22656-.01952m5.09375 0h.50781v6.29687h-.78515v-4.49219h-1.39063v-.55468l.5625-.0625.25-.05469.23047-.08984.20313-.14063.17578-.21094.14062-.29296.10547-.39844m6.80469 1.6211h-.78906l-.05079-.21095-.08203-.1875-.10546-.16015-.12891-.1289-.14844-.10548-.16015-.07422-.16797-.04296-.17188-.01563-.32812.03906-.28907.1211-.24609.1953-.20313.26954-.16015.33984-.11719.40235-.07031.46875-.02344.52344.1914-.19922.1836-.16016.1875-.125.1836-.08594.1875-.0625.1953-.03515.39844-.02344.3086.02734.32031.09375.3164.15625.29298.21875.2578.28516.19923.35156.07031.19922.05469.21875.02734.23438.0039.25-.78515.04687-.02734-.25781-.07813-.2539-.1211-.23438-.16015-.21094-.19531-.17578-.21875-.13672-.24219-.08985-.2539-.03125-.25391.03125-.24219.08985-.21875.13672-.1914.17578-.16407.21094-.12109.23437-.07813.2539-.02734.25782.02735.25781.07812.25.1211.23438.16406.21094.1914.17968.21875.13672.24219.08594.2539.03125.25391-.03125.24219-.08594.21875-.13672.19531-.17969.16016-.21093.1211-.23438.07812-.25.02734-.25781.78516-.04688-.03125.3711-.08985.3711-.16015.35937-.22266.32812-.28906.28125-.16797.1211-.1914.10156-.20313.08203-.22656.0625-.23829.03906-.26171.01172-.28125-.01562-.26172-.04688-.23828-.07812-.21485-.10547-.19531-.1289-.17188-.15626-.15625-.17969-.13671-.20312-.11329-.22266-.10156-.24219-.14453-.53515-.08594-.59375-.02734-.64063.03906-.74218.11328-.66407.1875-.57812.1211-.2539.13672-.23048.15234-.20703.16797-.1836.1875-.15233.20312-.13282.21875-.10156.23047-.07031.25-.04688.26172-.01562.36328.03515.33203.09375.29688.15235.25781.19922.21094.24218.16406.27344.11719.30469.0625.32031"/><path fill="#ffffe0" fill-rule="evenodd" d="M177.52344 340.86328h22.1836v-10.19531h-22.1836v10.19531"/><path fill-rule="evenodd" d="M181.02344 332.5039h.51172v6.29298h-.78907v-4.48829h-1.38672v-.55468l.5586-.06641.25-.05469.23047-.08984.20312-.14063.17578-.21093.14063-.29297.10547-.39453m4.8125 0l.23047.01953.21875.05469.20703.08984.19922.1211.18359.14843.17188.17578.30078.41797.24218.4961.1797.54687.11327.57812.03906.58985-.03906.59375-.11328.58203-.17969.55469-.24218.5039-.30078.42578-.17188.1797-.1836.15624-.19921.1211-.20703.09375-.21875.05468-.23047.01953-.22656-.01953-.21875-.05469-.21094-.09375-.19531-.12109-.1836-.15625-.17187-.17969-.30078-.42578-.2422-.5039-.17968-.5547-.11328-.58202-.03906-.59375h.83593l.02735.5625.08203.50781.125.4414.16406.375.1914.30079.21095.22265.22265.13672.22266.04688.22656-.04688.22266-.13672.21093-.22265.19141-.30078.16406-.375.125-.44141.08203-.50781.02735-.5625-.02735-.5625-.08203-.5-.125-.4336-.16406-.36718-.1914-.29297-.21094-.21094-.22266-.13281-.22656-.04688-.22266.04688-.22266.13281-.21093.21094-.1914.29297-.16407.36718-.125.4336-.08203.5-.02735.5625h-.83593l.03906-.58985.11328-.57812.17969-.54688.24219-.49609.30078-.41797.17187-.17578.1836-.14844.1953-.1211.21095-.08983.21875-.0547.22656-.01952m5.09375 0h.50781v6.29296h-.78516v-4.48828h-1.39062v-.55468l.5625-.06641.25-.05469.23047-.08984.20312-.14063.17578-.21093.14063-.29297.10547-.39453m6.80469 1.61718h-.78907l-.05078-.21093-.08203-.1875-.10547-.15625-.13281-.13282-.14453-.10156-.16016-.07422-.16797-.04687-.17187-.01563-.32813.04297-.28906.11719-.2461.19922-.20312.26562-.16016.33985-.11718.40234-.07031.46875-.02344.52734.1914-.20312.1836-.16016.1875-.1211.1836-.08983.1875-.0586.1953-.03906.39844-.02344.3086.03125.3203.08985.31641.15625.29297.21875.25781.28515.19922.35156.07032.19922.05468.21875.02735.23438.0039.25-.78515.04687-.02735-.25781-.07812-.25-.1211-.23438-.16015-.21093-.19531-.17969-.21875-.13672-.2422-.08594-.2539-.03125-.2539.03125-.2422.08594-.21874.13672-.1914.17969-.16407.21094-.1211.23437-.07812.25-.02734.25781.02734.25781.07813.25391.12109.23438.16406.21093.1914.17579.21876.13671.24219.08985.2539.03125.2539-.03125.2422-.08985.21875-.13671.1953-.17579.16017-.21093.12109-.23438.07812-.2539.02735-.25782.78515-.04687-.03125.3711-.08984.37108-.16016.35938-.22265.32813-.28906.28125-.17188.12109-.1875.10156-.20313.08203-.22656.0625-.23828.03906-.26172.01172-.28125-.01562-.26172-.04688-.23828-.07421-.21484-.10547-.19531-.13282-.17188-.15625-.15625-.17968-.13672-.20313-.11328-.22265-.10156-.2422-.14453-.53515-.08594-.58984-.02734-.64063.03906-.7461.11328-.66015.1875-.57812.1211-.25781.13671-.23047.15235-.20704.16797-.17968.1875-.15625.20312-.1289.21875-.10157.23047-.07422.25-.04688.26172-.01171.36328.03125.33203.09765.29688.14844.2578.20313.21095.23828.16406.27734.11719.30078.0625.32031"/></g></defs><use xlink:href="#as"/></svg>