<svg xmlns="http://www.w3.org/2000/svg" role="img" xmlns:xlink="http://www.w3.org/1999/xlink" viewBox="142.45 309.95 326.84 171.84"><defs><clipPath id="a"><path d="M144 311.67188h1v168.65625h-1zm0 0"/></clipPath><clipPath id="b"><path d="M144 311.67188h324v168.65625H144zm0 0"/></clipPath><clipPath id="c"><path d="M467 311.67188h1v168.65625h-1zm0 0"/></clipPath><clipPath id="d"><path d="M144 479h4v1.32813h-4zm0 0"/></clipPath><clipPath id="e"><path d="M147 480h2v.32813h-2zm0 0"/></clipPath><clipPath id="f"><path d="M153 479h8v1.32813h-8zm0 0"/></clipPath><clipPath id="g"><path d="M159 480h2v.32813h-2zm0 0"/></clipPath><clipPath id="h"><path d="M166 479h9v1.32813h-9zm0 0"/></clipPath><clipPath id="i"><path d="M172 479h3v1.32813h-3zm0 0"/></clipPath><clipPath id="j"><path d="M180 478h8v2.32813h-8zm0 0"/></clipPath><clipPath id="k"><path d="M185 479h3v1.32813h-3zm0 0"/></clipPath><clipPath id="l"><path d="M194 478h7v2.32813h-7zm0 0"/></clipPath><clipPath id="m"><path d="M207 477h7v3.32813h-7zm0 0"/></clipPath><clipPath id="n"><path d="M220 477h7v3.32813h-7zm0 0"/></clipPath><clipPath id="o"><path d="M235 477h5v3.32813h-5zm0 0"/></clipPath><clipPath id="p"><path d="M248 476h5v4.32813h-5zm0 0"/></clipPath><clipPath id="q"><path d="M262 476h4v4.32813h-4zm0 0"/></clipPath><clipPath id="r"><path d="M275 476h4v4.32813h-4zm0 0"/></clipPath><clipPath id="s"><path d="M289 476h3v4.32813h-3zm0 0"/></clipPath><clipPath id="t"><path d="M303 476h2v4.32813h-2zm0 0"/></clipPath><clipPath id="u"><path d="M316 476h2v4.32813h-2zm0 0"/></clipPath><clipPath id="v"><path d="M330 476h1v4.32813h-1zm0 0"/></clipPath><clipPath id="w"><path d="M342 476h3v4.32813h-3zm0 0"/></clipPath><clipPath id="x"><path d="M356 476h2v4.32813h-2zm0 0"/></clipPath><clipPath id="y"><path d="M368 477h5v3.32813h-5zm0 0"/></clipPath><clipPath id="z"><path d="M379 479h9v1.32813h-9zm0 0"/></clipPath><clipPath id="A"><path d="M393 478h8v2.32813h-8zm0 0"/></clipPath><clipPath id="B"><path d="M406 478h8v2.32813h-8zm0 0"/></clipPath><clipPath id="C"><path d="M412 479h2v1.32813h-2zm0 0"/></clipPath><clipPath id="D"><path d="M420 477h7v3.32813h-7zm0 0"/></clipPath><clipPath id="E"><path d="M433 478h8v2.32813h-8zm0 0"/></clipPath><clipPath id="F"><path d="M439 478h4v2.32813h-4zm0 0"/></clipPath><clipPath id="G"><path d="M439 479h2v1.32813h-2zm0 0"/></clipPath><clipPath id="H"><path d="M446 478h8v2.32813h-8zm0 0"/></clipPath><clipPath id="I"><path d="M453 478h3v2.32813h-3zm0 0"/></clipPath><clipPath id="J"><path d="M460 477h7v3.32813h-7zm0 0"/></clipPath><clipPath id="K"><path d="M466 477h2v3h-2zm0 0"/></clipPath><clipPath id="L"><path d="M144 466h4v2h-4zm0 0"/></clipPath><clipPath id="M"><path d="M466 465h2v2h-2zm0 0"/></clipPath><clipPath id="N"><path d="M144 452h4v3h-4zm0 0"/></clipPath><clipPath id="O"><path d="M466 452h2v3h-2zm0 0"/></clipPath><clipPath id="P"><path d="M144 439h4v2h-4zm0 0"/></clipPath><clipPath id="Q"><path d="M466 440h2v3h-2zm0 0"/></clipPath><clipPath id="R"><path d="M144 426h4v2h-4zm0 0"/></clipPath><clipPath id="S"><path d="M465 424h3v2h-3zm0 0"/></clipPath><clipPath id="T"><path d="M144 413h4v2h-4zm0 0"/></clipPath><clipPath id="U"><path d="M465 410h3v2h-3zm0 0"/></clipPath><clipPath id="V"><path d="M144 399h4v2h-4zm0 0"/></clipPath><clipPath id="W"><path d="M466 398h2v2h-2zm0 0"/></clipPath><clipPath id="X"><path d="M144 386h4v3h-4zm0 0"/></clipPath><clipPath id="Y"><path d="M466 385h2v3h-2zm0 0"/></clipPath><clipPath id="Z"><path d="M144 372h4v3h-4zm0 0"/></clipPath><clipPath id="aa"><path d="M466 371h2v3h-2zm0 0"/></clipPath><clipPath id="ab"><path d="M144 360h4v1h-4zm0 0"/></clipPath><clipPath id="ac"><path d="M466 359h2v3h-2zm0 0"/></clipPath><clipPath id="ad"><path d="M144 346h4v2h-4zm0 0"/></clipPath><clipPath id="ae"><path d="M466 346h2v3h-2zm0 0"/></clipPath><clipPath id="af"><path d="M144 333h4v2h-4zm0 0"/></clipPath><clipPath id="ag"><path d="M466 332h2v3h-2zm0 0"/></clipPath><clipPath id="ah"><path d="M144 320h4v2h-4zm0 0"/></clipPath><clipPath id="ai"><path d="M466 318h2v2h-2zm0 0"/></clipPath><g id="aj" clip-path="url(#clip1)"><path fill="#fff" fill-opacity="0" fill-rule="evenodd" d="M0 0h1000v1000H0zm0 0"/><path fill="#d3d3d3" fill-opacity="0" fill-rule="evenodd" d="M162.15234 355.86719l-.23437.29297.0586.23437.11718.17188.17578.23437.29297.34766.11328.0586.11719-.17188.0586-.23438.17577-.17578.46485-.17578h.69922l.23437.29297.28906.8164.0586.17579.17578.23046.35156.23438.69922.69922.17188.17578.23437.34765.23438.41016.28906.58203.41015.46485.23047.23437.23438.17578.11719.23047.17578.29297.17187 1.16406v.23438l.0586.28906.05859.11719.11719.11719.34765.41015.11719.17188.17578.17578.17578.23437.11719.17188.17188.35156.05859.23438.23437.40625.23438-.0586-.17578.17578-.0586.92969h-.58203l-.23437-.11328-.34766.11328-.11719.11719-.05859.29297-.0586.17578-.11718.17187-.46484.29297-.0586.23438-.0586.11328v.64453l.0586.17187v.41016l.0586.0586v.40624l.05859.40625.11719.17579.05859.05859.23047.64062-.0586.29297v.69922l-.05859.58203v.23438l-.0586.23047-.05468.35156v1.92187l.05469.1172h.42578l-.36719.11718-.02344.35156.89063 1.16797 1.74219.53906 1.33984.35938v.53906l.08984.8086.53516.71484 1.51953.26953.89063-.08594.08984 1.16406.53516.1797 1.16015-.1797 2.05469-.98437 1.16016-.36328 1.8789-.17578 1.69531-.1797-.17968.71876-1.51563.08594-1.25.08984-.80469.26953-1.07421.8086.26953.71875.53515.89843-.17968.625-.26563.8086.26563 1.07812.625.89844.80468.17969 1.25-.1797-.26562.72267.09766.5039.05468.29297v.17188l.0586.29296v.40625l.17578.1172.35156.11718h.40625l.29297-.17578.11328-.11719.0586-.11719.11718-.23047.0586-.17578.35156-.46484.23047-.17578.17578-.0586.17578.0586.0586.17578.11718.98828.05469.46875.0586.17188.11718.23437.17578.0586.8164.05859h.28907l.11719.23437.05859.40625.0586.35156v1.10547l.11718.29297.11719.34766.28906.69922.17578.35156.58203.7539.35157.17579.17187.0586.46875.23437.64063.46484.34765.23438.29297.17578.29297.05468.23047.0625.8164.34766.29297.17578.11328.17188.35157.35156.11719.17578.52343.64063v.28906l.0586.35156v.34766l.05859.35156.0586.28906.11718.0586.17188.05859h.17578l.58203.23437.17578.1172.17578.28905.17578.23438.11328.23437.29297.23047.11719.11719v.41016l.0586.05468.28906.23438.23437.11719.0586.11718.11718.17188.0586.11719.23047.23437.05859.17578.23437.0586.1172.05859-.1172.11328-.05859.11719v.11719l-.11719.29296-.11719.28907v.58203l.17579.11719.11718.05859.0586.11719.11719.11719.11328.05859.17578.34765.0586.35157.05858.40625v.17578l-.05859.17578-.11719.69922v.17187l.1172.17579.29296.29296h.40625l.17578.1172.11719.17187.11719.29296v.23438h-.52735l-.23047-.23438h-.23437l-.17578.0586-.0586.69922.0586.34765.11719.17579.17578.41015.11718.23047.28907.46875.17578.05469h.52344l.23437.0586.75781.64062.0586.29296v.23438l.05859.0586.23047.34765v.35156l-.11719.17188v.29297l.29297.28906.29297.17578.17187.0586.29297.17577.29297.1172.58203.40624.28906.23438.29297.17578.21875.16015.01563.01172.23047.17579.64062.52343.17578.23438.1172.17578.17577.17578.11328.17188v.64062l.1172.17578.46874.11719.58203.11719.23438.05859.23047.11328.29297.11719.11328.0586.58593.35156.28907.17187.17578.0625.17578.05469.17578.0586.69922.35155.28906.17579.23438.05468.28906.17578.23437.1172.64063.40624.29297.11719.17187.0586.23438.05859.41015.05859.23047.0586.23438.11718.0586.17188-.41017.17578.46875.0586.0586.29296.11328.23438.17578.05468.23438.0586.17578.05859.40625.11719.64062.23437.11719.17188.0586.23437v.17578l-.0586.1172-.0586.40624.23438.23438.11719.05859.34766.11719.64062.23047.17578.11718.28906.1172.17578.17577.23438.46485.58203 1.10546.17578.17579.34766.17578.17578.11719.35156.11718 1.04688.52344.23437.0586.46485.11327.29297.0586.46484.17578.75781.58203.23438.23438.34765.46484.17578.17578.28907.23438.8164.69921.29297.17579.28906.28906.29297.17578.29297.28906.69531.64063.17578.17578.29297.23437.28907.23438.46875.28906.64062.58203.34766.23438.23437.29297.34766.34765.35156.46485.9336.99218.34765.40625.11719.17579.23437.05859.11328.11719.64454.17578.23047.11328.23437.0586.29297.17577.23047.1172.9336.69921.40624.40625.23438.17578.40625.17578.23437.11719.8164.34766.34766.23437.23438.11719.29297.28906.23047.11719.7578.35156.35157.17188.23047.05859.29297.11719.23437.0586.8711.17577h.8164l.46875.23047.17188.0586.875.69921.46484.1172.29297.05858.17578.0586.23047.0586.46875.05859.34766.05859.35156.0586.40625.05859h.29297l.17187.0586v.23046l.17578.17578h.29297l.34766.0586.35156.05859.69922.11719h.64063l.46484-.23438.29297-.17578.17187-.11719.41016-.17187.28906-.17578.9336-.46485.46875-.29297.52343-.29296.46485-.17188.46484-.17578 1.05078-.46485.28906-.11718.41016-.11719.28906-.11719.52735-.17578 1.51562-.69922.58203-.34765.28907-.0586.29297-.0586.34765-.11718.875-.23047.35156-.11719h.11329l.23437-.05859.875-.23437.23438-.0586h.8125l.35156-.0586.8164-.11718.17188-.0586.35156-.05468.29297-.0586.23047-.05859.8164-.17578.17579-.0586h.34765l.23438-.05859.46484-.11718.75781-.17188.23438-.0586h.34765l.41016-.11718.28906-.0586 1.28516-.05859h.28906l.41016-.0586.23047-.05858h.17578l.875-.1172h.40625l.41015-.11718h.34766l.35156-.11328.8711-.0586h1.75l1.04687.28907.41016.11719.28906.11718.35156.11719.28907.11719 1.05078.17187.28906.0586h.29297l.29297.05859.17187.0586.41016.05859.17187.0586.1172.05858h.11718l.11719.0586.35156.0586h.11328l.41016.0664 1.92187.39453 1.92578.39453 1.51953.44922 1.69532.71875 2.14453.80469 1.60547-.71875 1.42968-.80469 1.16016-1.07813 1.25-.44921 3.03516-.71875 1.875-.35938 2.14453-1.34765 2.23437-1.25391 2.5-1.25781 1.69531-.44922 1.78516-.17969 1.16016-.26953.625.53906 1.33984-.26953.71485-.98828.98437-1.34375.44531-.17969.80469-.35937 1.875-.53907 1.78516-.44921 1.25-.26954 1.16015-.08984 1.69922-.08984 1.96094-.26954 1.25-.08984h.53906l.625-.08984h.89063l2.14453-.17969 2.41015-.17969 2.58985-.08984 1.69531.17969 1.60938.08984 1.42968.35938 1.16016.71875 1.875.98828 1.16015 1.52734.26563.71484.6289.08985.35548.89844.53515.53906.53516 1.52734 1.07422.35938h.53515l-.80469.53515.08985 1.70703.71484 2.69532.89063.80468.89453.98829.71484 1.2578 1.78516.53907 1.51953-.17969.35547 1.34375 1.60937-.80469.98047-.53906.26953.26953.31641-.21484.21875-.14453.80078.44922.44922-.35938h.35547l.53515-.26953.53907-.71875.53515-.26953.625-.98828 1.16016.44922.83984.3711 1.39454.61718 1.6953-.17969h1.60548l1.78515.08985.17969-1.70704.53516-1.34375.80468.26954.4922.84765.40233.40625-.08984.53906v.35938l.71485.44922.71093-.26953h1.42969l.35938.98828.4453 1.25781.71485 1.34375 1.25.6289 1.69531.62891.71485-.17969.17969-.53906.98046-.08984.44922.35937.08594 1.25782-.26563.6289-.53515.17969v.53906l.71484.98438.26563.53906.98437.98828.80078 1.07813-.26562.35937-.08985.89844-.625 2.33203-.35546 2.0664-.08985 1.79298-.17969.71875-.08984.53906v1.4375l-.98047 1.88281-.35937 1.70703-.53516.89844-.80469 1.16797-.26562.53906 2.05469 1.2539.08593.35938-.35546.53906-.08985-.17968v.80859l.08985 1.4375-.44532.71484-1.07422.09375-.26562.71485.53515.89844.8047.71875 1.16015.80859 1.33984.26953.44531.35938-.35546.44921-1.78907-.08984-1.25-.44922-.71484-.71875-.625-.08984-.17578 3.58984-.1875 1.3086h89.35937V311.70313h-55.26953v49.08203l.76172.125 3.28906.54296 2.02344 2.83594v2.7539l2.35156.33204 2.34766.33203h4.05078l-1.3789 4.16016-2.02344.70703-2.02344.70312-.54297.34375-2.59375 1.6172-.1875.11718-2.02344-2.07813-.73046-2.74218-2.67188-2.07813-1.375-3.5-.0664-.08203-1.95704-2.67188 2.75-1.41796v-49.08204H294.42187v91.41407l.1172.03125.1328.01172.07422.07421.10547.04688.08985.0586.08593.05859.08985.0586.29687.29687.0586.08984.03125.11719.02734.11719.01563.13671-.03125.1172-.0586.08983-.0586.08594-.04296.10547-.04688.10156-.02734.1211v.14453l.17578.26953.14844.14844.07422.08594.07422.07421.04296.10547.0625.08985.0586.08593.04297.10547.0586.08985.04687.10156.04296.10547.0586.08594.11719.17968.07421.07422.0625.08594.0586.08984.04297.10547.0586.08985.05858.08593.0625.08985.0586.08984.04297.10156.11719.17969.07421.07422.0586.08594.07422.07421.08984.0586.10547.04687h.14844l.1328-.01562.13282.01562.10156-.04687.07422-.07422.04688-.10156-.01563-.13281v-.14844l-.04687-.10547-.02735-.11719-.04687-.10156-.02735-.1211-.04296-.10156-.0625-.08984-.04297-.10156-.04297-.10547-.03125-.11719-.01563-.13281-.01171-.13672.08593-.0586.0586-.08593.12109-.03125.04297.10547.01562.1328v.1172l.0586.10156.0586.08984.08983.0586.14844.14843.0586.08985.04296.10547-.01171.10156.08593.0586.10547.04687.08594.0586.08984.05858.07422.07422-.11719.02735-.10546.04687-.08594.0586-.07422.07421-.0586.08985-.0625.08594-.02734.12109-.04687.10156-.04297.10547-.03125.11719-.01172.13281-.01563.13281v.14844l.02735.11719.04687.10547.04297.10156.0586.08984.07421.07422.08985.0586.07422.07421.08984.0586.0586.08984.04296.10547.04688.10156.11719.03125.1328.01563h.14845l.11718-.03125.10547.04297.04297.10547.04688.10156.02734.1211L299.5 410l.02734.11719.03125.1211.02735.11718.10547.04297.10156.04687.13281-.01562.14844.14844.0625.08593.07422.07422.07031.07422.08984.0625.10547.04297.10156.04297.1172.03125.13671.01562.11719-.03125.07422-.07422.02734-.11718-.01172-.13282-.03125-.12109-.02734-.11719.04297-.10547h.11719l.08984.0625.11719.02735h.14843l.13282.01562h.14843l.13282.01563.1328-.01563h.14845l.1328-.01562.13282-.01172.13672.01172.11719-.02735.13281-.01562.1914-.0586-.05859.17579-.01562.1328-.02735.1211-.01562.13281-.0586.08594-.1328.01563-.10548.04687-.10546.04297-.1172.03125-.11718.02735-.26563.03125h-.14843l-.13281.01562-.07422.07422.05859.08594.14844.14843.11719.1797.07421.0703.08985.0625.08984.0586.08594.0586.08984.05858.10156.04297.10547.0625.10547.04297.08594.0586.10547.04687.10156.04297.17969.11719.0586.08984-.04298.10156-.04687.10547.01562.13281.22266.22266.0586.08985.04296.10156.03125.1211.04297.10155.01563.13282.03125.11718.01171.13672.03125.11719.14844.14844.10156.04297.10547.04296.1172.03125.1328.01563.13672.01563h.11719l.11719-.03125.08984-.0586.04297-.10547.04688-.10156.04296-.10547.03125-.11719.01172-.1328v-.14845l-.01172-.1328-.01562-.13282-.03125-.11719-.04297-.10547-.04688-.10547-.04296-.10156-.04297-.10547-.01563-.13281.01563-.13281.02734-.11719.03125-.11719.02735-.1211.04687-.10155.08984-.0586.08594-.0625.07422-.07422.08984-.05859.22266-.22266.0586-.08593.07421-.07422.11719-.17969.0586-.08594v-.14844l-.07423-.07421-.10156-.04688-.10547-.04297-.10156-.04297-.0586-.08984-.04687-.10547-.02734-.11719.08984-.05859.11719-.03125.10156-.04297.17969-.11719.14844-.14843.01172-.13282-.01172-.10546-.08985-.0586-.1328.01563h-.14845l-.1328.01562-.13282-.01562-.1211-.03125-.08593-.0586-.07422-.07422-.0586-.08984-.0625-.08594-.11718-.17969-.0586-.08593.03125-.1211.08594-.05859.1211-.03125.05859-.08594v-.1211l-.03125-.11718-.0586-.08984-.05859-.08594-.04687-.10547-.02735-.11719-.01562-.1328.0586-.08985.07421-.07422.08984-.0586.1172-.17968.07421-.07422.0586-.08594.14843-.14844.1211-.03125.1328-.01562.13282.01562.07422.07422.04297.10547.01562.13281-.03125.1172-.11719.03124-.1328.01172-.14844.14844-.04297.10547-.04688.10156-.02734.1211-.03125.11718v.14844l.03125.11719.04297.10546.05859.08985.07422.07031.07422.07422.11719.03125.12109.02734.11719-.02734.1328-.01563h.1172l.08984.0586.07422.07422.04687.10546.0586.08594.10156.04688.13281.01562.10547.04297.08594.0586-.01172.10546-.07422.07422-.17969.11719-.05859.08984-.08984.0586-.07032.07422-.07421.07421-.0625.08985-.02735.11719-.01562.1328.01562.13282-.01562.13281v.14844l.01562.13281.02735.1172.03125.12108.07421.07422.08985.0586.08594.0586.08984.05858.11719.03125v.08594l-.10157.04688-.08984.0586-.26563.03124-.11718.02735h-.14844l-.10547.04296-.10156.04688-.0586.08984-.0625.23438-.01171.13281-.03125.1211-.01563.1328v.29298l-.01172.1328.01172.13673.01563.1328.1328.01563.13282.01172.1211.03125.08593.0586.07422.07421.04688.10547.04296.10157.01563.1328v.44532l-.01563.13281v.44532l.03125.26562.02735.11719.01562.13281.03125.11719.08594.21094.03125.26562v.14844l-.03125.11719-.02734.11718-.03125.1211-.02735.11719-.03125.11718-.03125.1211-.01171.1328-.01563.13282.08984.0586.1172-.03125.10155.01562.04688.10547-.03125.26562v.44141l-.04297.10547-.04688.10547-.04296.10156-.04297.10547-.0586.08594-.03125.12109-.04296.11719-.03125.11719-.01563.1328.01563.13282.05859.08984.10547.04688.08594.0586.05859.08593-.01172.13672-.03125.11719-.04297.10156v.44531l-.01562.13281v.14844l-.03125.11719-.04297.10547-.02735.11719-.04687.10546-.04297.10157-.03125.12109-.02734.11719-.03125.13281-.03125.11719-.02735.11719-.04297.10546-.03125.1172-.03125.12108-.01171.13282-.01563.13281v.29688l.02734.11718v.14844l.04688.39844.02734.11719.0586.08984.12109.03125h.14844l.13281-.01563.0586.08985v.11719l-.0586.08984-.08984.0586-.10157.04296-.10546.04688-.08985.05859-.08594.0586-.13671.01562-.1172-.03125-.1328-.01563-.10157.04688-.0625.08594-.01172.13671-.01562.13282-.03125.11719-.02735.11718-.01562.13281-.03125.1211v.29687l.01563.13282.03125.11718v.14844l.01171.13281v.14844l-.02734.11719-.04688.10156-.02734.1211-.03125.11718-.0586.08985-.07421.07421-.10156.04297-.10547.04688-.11719.02734-.1211.03125-.10156-.04687.0586-.08594.10547-.04688.02734-.11718.03125-.11719.02734-.1211.03125-.11718v-.14844l.01563-.13281-.03125-.11719-.04297-.10547-.10547.01563-.07422.07422-.10156.04296-.08984.0625-.07422.07422-.04297.10157-.01563.1328-.03125.1172L304.25 426l-.03125.11719-.02734.11719-.03125.12109-.02735.11719-.03125.11718-.04297.10547-.08984.0586h-.08984l-.1172-.03125-.03124-.08594.01562-.13672-.03125-.11719v-.14844l-.01171-.1328v-.14844l-.0625-.23438-.02735-.1211-.04297-.10156-.04687-.10546-.0586-.08594-.05859-.08985-.04297-.10546-.0625-.08594-.14844-.14844-.0703-.07422-.10548-.04687-.10547-.04297-.10156-.04297-.29687-.29688-.08985-.07421-.08594-.0586-.10546-.04297-.08985-.0625-.08594-.0586-.10546-.04296-.08985-.0586-.08594-.0625-.07421-.0703-.10547-.04688-.08594-.0586-.10547-.04296-.08984-.0625-.10156-.04297-.10547-.04297-.08594-.0586-.10547-.04687-.10547-.04297-.10156-.04687-.08985-.0586-.10156-.04297-.10547-.04296-.08984-.0625-.11719-.02735-.13281-.01562-.13281.01562H299.75l-.13281.01563-.11719-.03125-.08984-.0586-.07422-.07422-.08985-.05859-.10156-.04688h-.14844l-.12109-.02734-.10156-.04297-.07422-.07422-.11719-.17968-.08984-.0586-.10156-.04297-.08985-.0625-.10547-.04296-.08984-.0586-.08594-.0586-.10547-.04687-.0586-.08594-.05858-.08984-.04297-.10547-.04688-.10156-.07422-.07422-.08594-.0586-.07421-.07421-.08985-.0586-.22265-.22265-.04297-.10547-.03125-.26563.10547-.04296h.14453l.10547.04296.07421.07422.08985.0586.08594.0586.10546.04687.08985.05859.14844.14844.0703.07422.14845.14843.0625.08594.07421.07422.08594.0586.07422.07421.08985.0625.08984.0586.08594.05859.26953.17578.10156.04688.10547.04296.10156.04297.04688-.07421.05859-.08594.07422-.07422.07031-.07422.10547.04297.07422.07422.0586.08984.04296.10156.04688.10547.04296.10547.1211.02735.11719-.02735.07421-.08984.04297-.10547.0586-.08985.07422-.07421.10546-.04297.1172-.02735.1328.01172.08985.0586.14844.14843.05859.08985.04297.10547.04687.10156.04297.10547.04297.10156.10547.04688.10547.04296.13281.01563.08594-.0586.0586-.08984.07421-.07422.10547-.04297.11719.02735.10547.04687.10156.04297.10547.04297.10156.04688.17969.11718v.11719l-.01563.13281.01563.13281.01562.13672.0586.08594.10156.04688.1211.02734.11718.03125h.14844l.11719-.03125.05859-.08984.17969-.1172.05859-.08983.07422-.07422.0586-.08594.11718-.17969.17969-.11719.11719.03125.08984.0586.04297.07422-.01563.1328v.1172l.08985.05859h.14843l.13282-.01563.1328-.01171.26563-.03125.10547-.04297.11719-.03125.1211-.02735.07421-.07421.07031-.07422.0625-.08985-.01562-.10547-.04688-.10156-.10156-.04297-.10547-.01562-.11718.02734-.26563.03125h-.14844l-.07421-.07422-.08985-.0586-.11719-.03124-.11718-.02735-.13282-.01562h-.14843l-.13282.01563h-.29687l-.10547-.04688-.14844-.14844-.04297-.10156-.05859-.08984.22266-.22266.08593-.0586.10547-.04296.11719-.03125.13281-.01563.13281.01563.13672.01562.10157.04297.1328-.01172.08985-.0625.10156-.04297.0625-.08984-.04687-.10156-.08984-.0586-.1172-.03125-.10155-.04296-.0586-.08985-.0625-.08984v-.11719l.01563-.13281.10547-.04688.07421-.07031v-.1211l-.08984-.05859-.03125-.11719.08985-.05859.07421-.07422.04297-.10547.0586-.08984.04687-.10156.01563-.13281v-.14844l-.04688-.10547-.04297-.10156-.08984-.0586-.13281-.01562-.10157-.04297-.13671-.01563-.1172-.03125h-.4453l-.13282-.01562-.13281-.01172-.13281-.01563-.11719-.03125h-.14844l-.13281-.01562-.13281-.01172-.26563-.03125-.1211-.04297-.08593-.0586-.07422-.07421v-.14844l.01172-.13281.10547-.04688.10156-.04296.13281-.01563h.15235l.13281-.01562h.29297l.1211.03125.10156.04296.08984.0586.23438.0625.12109-.04688.08984-.05859.10156-.04297.13282-.01562.10547.04296.10156.04688.13281.01172.1211-.02735h.14453l.12109-.03125.11719-.02734.10547-.04687.07421-.07422.08594-.0586.14844-.14843.0586-.08594.04687-.10547.02734-.11719.01563-.10547-.10156-.04296-.08985-.0586-.11719-.03125-.10546-.04297-.08985-.0625-.07422-.08594-.07422-.07421-.10156-.04297-.10547-.04688-.10156-.04297-.0586-.08984-.04687-.10156-.08594-.21094-.0625-.08594-.05859-.08984-.07422-.07422-.08594-.0586h-.26953l-.11719.03126-.08984.05859-.10156.04297-.13281.01562-.10547-.01562-.02735-.11719-.0625-.08984-.11718-.03125-.10157-.04297-.14843-.14844-.03125-.11719-.01563-.10546.07422-.07422.17969-.1172.11719-.02733.11718-.03125.13672.01562.10156.04297.10547.04297.10156.04687.10547.04297.1172.03125.1328.01563.1172.02734.1328.01563.10547-.01563.08985-.0586-.07422-.07421-.10547-.04297-.07422-.07422-.07422-.08984-.14844-.14844-.08593-.0586-.08985-.05859-.07422-.07422-.08984-.0586-.10156-.04687-.1211-.02734-.10156-.04688-.10547-.04296-.11719-.03125-.10156-.04297-.1211-.03125h-.14843l-.11719.03125-.10546.04297-.08594.0625-.17969.11718-.08594.0586-.08984.0586-.10547.04687-.08594.05859-.10547.04297-.10156.04297-.10547.04687-.07422.07422-.05859.08985-.0586.08593-.04687.10547-.0586.08594-.07421.07422-.13281-.01172-.1172-.03125h-.11718l-.07422.07422-.08984.0586-.07422.07421-.08984.0586-.08594.05859-.10547.04687-.10156.04297-.13672.01563-.10156-.04297-.14844-.14844-.10547-.04688h-.08594l-.10547.04688-.10156.04297-.1211.03125-.11718-.03125-.07422-.07422v-.11719l.03125-.1211.07422-.0703.0586-.08985.07421-.07422.11719-.03125.10547-.04296h.29297l.13281-.01563.13672-.01563.10156-.04296.08985-.0586.10156-.04687.08984-.0586.13281-.01171.08985.05859.13281.01172.08984-.0586.08594-.05859.10547-.04297.08984-.0586.08594-.0625.08985-.05859.14843-.14843.0586-.08594.05859-.08985.10547-.04296.13281-.01563.11719.02735.1211.03125.05859-.0586.05859-.08984.03125-.26563.02734-.11719.10547.01172.13281.01563.10157-.04297.08984-.0586.0586-.08984.07421-.07422.0586-.08984.04687-.10156.01172-.13281-.01172-.13282-.04687-.10547-.14844-.14843-.0586-.08985-.05859-.08594-.04297-.10546v-.44532l.01563-.1328v-.14845l.01172-.1328-.0586-.0586-.08984.0586-.10156-.04298-.17969-.11719-.08594-.05859-.0625-.08984-.0586-.08985-.07421-.07421-.08594-.0586-.1211.03125-.10155.01172-.10547.04688-.08594.05859-.10547.04297-.14844.14844-.08984.05859-.08594.0586-.08984.0625-.10547.04296-.13281.01563v-.1211l.10547-.04297.11718-.03125.07422-.0703.04297-.10548v-.14844l-.02734-.11718-.14844-.14844-.13281-.01563h-.14844l-.11719.03125-.10547.04297-.10156.04297-.08984.0625-.11719.02735-.07422-.07422.01172-.13281-.04297-.10157-.04297-.10547-.08984-.05859-.11719.02734-.1211.03125-.11718.03125-.10156.04297-.1211.03125-.10156.04297-.10547.04297-.08984.0586-.10156.01562v-.11719l.01562-.13281-.0586-.08985-.07421.04297-.14844.14844-.0586.08985-.07421.07421-.04688.10547-.04296.10156-.07422.07422-.0586.08985-.07422.07422-.05859.08593-.07422.07422-.08984.0625-.07422.07031-.07422.07422-.10156.01563-.13281.01562-.10547-.04296v-.1211l.14843-.14844.04297-.10156.0586-.08984.04687-.10156.04297-.10547.0586-.08985.03124-.11719.04297-.10156.03125-.1211.02735-.11718.04687-.10547.04297-.10156.04297-.10547.07422-.07031.08984-.0625.08985-.0586.10156-.04296h.29687l.26563-.03125.10547-.04297-.07422-.07422-.11719-.03125-.10547-.04297-.08984-.0586-.10156-.04687-.08985-.0586-.10156-.04296-.10547-.04297-.08984-.0625-.08594-.0586-.10547-.04296-.10156-.04297-.1211-.03125-.11718-.03125-.10157-.04297L297.5 410.25l-.10156-.04297-.08985-.0586-.04296-.10546-.01563-.13281.10156-.04297.13281-.01563.13672.01563.13282-.01563.10156-.04297.0586-.08984.01562-.10547-.08985-.0586-.07421-.07421-.10157-.04297-.08984-.0586-.14844-.14843-.04297-.10547-.01562-.13281v-.29297l-.0586-.08985-.08984-.05859-.07422-.07422-.04297-.10547-.03125-.11718-.0586-.08985-.07421-.07422-.11719-.02734-.07422-.07422-.08984-.0586-.08984-.0625-.08594-.05859-.07422-.07421-.0586-.08594-.04687-.10547-.08594-.0586-.14843-.14843-.19532-.0586-.1328.01563-.10157.04297-.07422.07422-.04688.10156-.04296.10547-.0586.08984-.0586.08594-.29687.29687-.08984.0586h-.08594l-.0625-.08594-.04297-.10547.03125-.11719.0586-.08984.02734-.11719-.01172-.13281-.08984-.0625-.10547.04688-.11719.02734-.11719.03125-.26953.17578-.10156.04688-.11719.02734-.10546.04687-.08985.0586-.10156.04297-.0586-.08594-.04687-.10547.01563-.13281.04687-.10547.07031-.07422.07422-.07031.0586-.08985v-.14843l-.04297-.10547h-.23829l-.10156.04687-.03125.11719-.02734.11719-.03125.1211-.07422.04296-.13281.01563-.07422-.04688-.04297-.10156-.04297-.10547-.04687-.10156-.04297-.10547-.1211.03125-.10156.04297-.13281.01562-.11719.03125-.10547.04297-.08984.0586-.10156.04687-.1211.02734-.13281.01563-.10156-.04297-.0586-.08985-.04687-.10546-.04297-.10157-.04297-.10546v-.1172l.0586-.08984.08593-.05859.17969-.11719.10156-.04687.10547-.04297.10547-.0586.10156-.04296.08985-.0625.10156-.04297.10547-.0586.10156-.04687.08984-.0586.10547-.04296.10156-.04297.08985-.0625.10156-.04297.13672-.01563.11719.03125.10156.04297.1211.03125.10156.04297.10546.04688.10157.04296.10547.04297.10156.04688.10547.04297.10156.04297.10547.04687.08594.0586.10546.04296.1172.03125.10546.04297.10156.04688.08985.0586.10547.04296.10156.04297.10547.04687.11719.02735.10156.04687.1211.02735h.14843l.08594-.0586.01562-.10156.0586-.08984-.02735-.1172-.07422-.07421-.11719-.17969-.07421-.07422-.08985-.07421-.17969-.1172-.08593-.05859-.10547-.04296-.10156-.04688-.26954-.17578-.05859-.08985-.07422-.07421-.0586-.08985-.04296-.10156-.03125-.11719-.01563-.13672v-.5625l-.01171-.1328-.01563-.13282-.03125-.11719-.01562-.13281-.01172-.13281-.03125-.1211-.22266-.22265-.0586-.08594-.01562-.10547.03125-.11719.13281-.01562v-91.41406H172.9922v1.45312l-.0586.23438-.35156 1.05078-.17187.52343-.1172.34766-.17577.41016-.11719.17187-.23438.29297-.23046.0586h-.35157l-.11718.05859-.23047.40625v.29297l.11719.17578.23046.23047.1172.23437.64062.75781.29297.46485.17578.23437.23047.35156.23437.34766.64063.8164.17578.46485.17187.41016.11719.69531.17578.46875.11719 1.39844.0586.46484v.875l.11718 1.04688v4.78125l-.0586.46484-.35156 1.28125-.17578.52344-.11328.41015-.35156.9297L172.93359 336l-.23437.58203-.11719.17578-.17187.34766-.17578.40625-.35157.8164-.0586.29297-.11327.29297-.11719.28906-.0586.17579-.11718.875-.0586.40625-.05859.11718-.0586.17579-.05859.17187-.23047.52734-.11718.17188v.23437l-.11719.23438-.0586.17187-.17577.58594v.28906l-.0586.17579v.29296l-.0586.11329-.05859.52734v.17187l-.05468.23438v2.6211l-.17578.8164-.1172.17578-.17577.23438-.1172.17187-.11327.23438-.58594.93359-.23047.28906-.29297.46485-.17578.23437-.28906.35156-.35156.69922-.11328.23047-.17579.41016-.17578.23046-.40625.52735-.8164.69922-.29297.17187-.28906.23438-.17579.11719-.17578.17578-.52344.40625-.52734.17578-.17187.17578-.23438.05469-.64062.17578h-.75782m12.21094 31.02344l-1.07422.44921.35938.89454 1.25-.71485.44531-.53906-.98047-.08985"/><path fill="#d3d3d3" fill-opacity="0" fill-rule="evenodd" d="M201.50781 416.59766h-.89453l.44922.6289.98047.35938.80469-.08985.4453-.98828-.17577.08985-.71485-.35547-.89453.35547m154.6211 59.0703l-.0586-.52343v-.29297l.11328-.29297.0586-.23046.46875-.46875h.11328l.11719-.11329.11718-.05859h.17579l.23437-.0586h.34766l.23437.0586.11719.0586.23047.17187.0586.17578.11718.58203v.29297l-.11719.17578-.17187.28906-.17579.17579-.52734.52343-.23047.23438-.11719.0586h-.17578l-.11718-.0586-.40625-.29297-.17579-.11719-.11718-.0586-.0586-.11327-.05468-.1172m6.64062-10.95702l-.0586-.17188v-1.10937l.0586-.17188.17578-.0586.17188-.05858h.17578l.23437-.0586.1172.0586.05858.69921-.05859.17188-.11719.17578-.11718.0586-.23438.52343-.11328.0586h-.23438l-.05859-.1172m9.61328-14.39062l-.11719-.17578v-.69922l.29297-.875.1172-.17187.17577-.35156.11328-.23047.1172-.29297.35155-.75781.1172-.23047.17187-.23438h.17578l.11719-.0586h.64062l.11719.0586.23437.23438.17188.11328.35156.29297.11719.11718.11328.17579v.11328l.11719.05859.11718.11719v.69922l-.05859.17578v.23047l-.0586.17578-.34765 1.05078-.11719.23047-.11719.23437-.11718.0586-.23047.23437-.64063.28906h-.875l-.41015-.11718-.64063-.46485"/><path fill="none" stroke="#bebebe" stroke-linecap="round" stroke-linejoin="round" stroke-miterlimit="10" stroke-width=".5" d="M467.95703 311.69531H144.02734v168.625h323.9297v-168.625"/><g clip-path="url(#a)"><path fill="#fff" fill-opacity="0" fill-rule="evenodd" d="M144 475.89063v4.4375h.0039H144V311.67188h.0039H144v164.21875"/></g><g clip-path="url(#b)"><path fill="#fff" fill-opacity="0" fill-rule="evenodd" d="M144.0039 480.32813V311.67188h244.10548v147.375l-4.4375 2.53906-.89063.98828.89063 1.07031 4.4375 2.04688 3.04687-3.1172-3.04688-3.52733v-147.375h79.88672v168.65625H144.00391"/></g><path fill="#50fcfc" fill-rule="evenodd" d="M383.67188 463.64453l-.89063-1.07031.89063-.98828 4.4375-2.53906v2.48046l-1.4922 1.04688 1.4922.92578.90234-.92578-.90235-1.04688v-2.48046l3.04688 3.52734-3.04688 3.11719-4.4375-2.04688"/><path fill="#00e8fc" fill-rule="evenodd" d="M388.10938 463.5l-1.4922-.92578 1.4922-1.04688.90234 1.04688-.90235.92578"/><g clip-path="url(#c)"><path fill="#fff" fill-opacity="0" fill-rule="evenodd" d="M467.9961 480.32813H468V311.67188h-.0039H468v168.65625h-.0039"/></g><g clip-path="url(#d)"><path fill="none" stroke="#000" stroke-linecap="round" stroke-linejoin="round" stroke-miterlimit="10" stroke-width=".5" d="M147.42969 481.09375l-6.85938-1.52734"/></g><g clip-path="url(#e)"><path fill="none" stroke="#000" stroke-linecap="round" stroke-linejoin="round" stroke-miterlimit="10" stroke-width=".5" d="M147.42969 481.09375l.65234 2.36328"/></g><g clip-path="url(#f)"><path fill="none" stroke="#000" stroke-linecap="round" stroke-linejoin="round" stroke-miterlimit="10" stroke-width=".5" d="M160.73438 481.14063l-6.83985-1.6211"/></g><g clip-path="url(#g)"><path fill="none" stroke="#000" stroke-linecap="round" stroke-linejoin="round" stroke-miterlimit="10" stroke-width=".5" d="M159.73828 480.90234l.3125 1.1875"/></g><g clip-path="url(#h)"><path fill="none" stroke="#000" stroke-linecap="round" stroke-linejoin="round" stroke-miterlimit="10" stroke-width=".5" d="M174.10547 479.82422l-6.95313 1.01172"/></g><g clip-path="url(#i)"><path fill="none" stroke="#000" stroke-linecap="round" stroke-linejoin="round" stroke-miterlimit="10" stroke-width=".5" d="M173.09375 479.96875l.72656.98828"/></g><g clip-path="url(#j)"><path fill="none" stroke="#000" stroke-linecap="round" stroke-linejoin="round" stroke-miterlimit="10" stroke-width=".5" d="M187.1914 478.98828l-6.49218 2.67969"/></g><g clip-path="url(#k)"><path fill="none" stroke="#000" stroke-linecap="round" stroke-linejoin="round" stroke-miterlimit="10" stroke-width=".5" d="M186.2461 479.3789l.94921.78126"/></g><g clip-path="url(#l)"><path fill="none" stroke="#000" stroke-linecap="round" stroke-linejoin="round" stroke-miterlimit="10" stroke-width=".5" d="M200.21484 478.42578l-5.91015 3.80469"/></g><path fill="none" stroke="#000" stroke-linecap="round" stroke-linejoin="round" stroke-miterlimit="10" stroke-width=".5" d="M199.35547 478.98047l1.07031.59765"/><g clip-path="url(#m)"><path fill="none" stroke="#000" stroke-linecap="round" stroke-linejoin="round" stroke-miterlimit="10" stroke-width=".5" d="M213.26172 478.0625l-5.3711 4.53125"/></g><path fill="none" stroke="#000" stroke-linecap="round" stroke-linejoin="round" stroke-miterlimit="10" stroke-width=".5" d="M212.48047 478.72266l1.13672.45312"/><g clip-path="url(#n)"><path fill="none" stroke="#000" stroke-linecap="round" stroke-linejoin="round" stroke-miterlimit="10" stroke-width=".5" d="M226.57031 478.0586l-5.35937 4.54296"/></g><path fill="none" stroke="#000" stroke-linecap="round" stroke-linejoin="round" stroke-miterlimit="10" stroke-width=".5" d="M225.79297 478.71875l1.13672.45313"/><g clip-path="url(#o)"><path fill="none" stroke="#000" stroke-linecap="round" stroke-linejoin="round" stroke-miterlimit="10" stroke-width=".5" d="M239.03125 477.32813l-3.65234 6"/></g><path fill="none" stroke="#000" stroke-linecap="round" stroke-linejoin="round" stroke-miterlimit="10" stroke-width=".5" d="M238.5 478.20313l1.22656.0703"/><g clip-path="url(#p)"><path fill="none" stroke="#000" stroke-linecap="round" stroke-linejoin="round" stroke-miterlimit="10" stroke-width=".5" d="M252.11719 477.19922l-3.1914 6.25781"/></g><path fill="none" stroke="#000" stroke-linecap="round" stroke-linejoin="round" stroke-miterlimit="10" stroke-width=".5" d="M251.65234 478.10938l1.22657-.01954"/><g clip-path="url(#q)"><path fill="none" stroke="#000" stroke-linecap="round" stroke-linejoin="round" stroke-miterlimit="10" stroke-width=".5" d="M265.27344 477.1211l-2.875 6.41406"/></g><path fill="none" stroke="#000" stroke-linecap="round" stroke-linejoin="round" stroke-miterlimit="10" stroke-width=".5" d="M264.85547 478.05469l1.22265-.08203"/><g clip-path="url(#r)"><path fill="none" stroke="#000" stroke-linecap="round" stroke-linejoin="round" stroke-miterlimit="10" stroke-width=".5" d="M278.54297 477.10156l-2.78516 6.45313"/></g><path fill="none" stroke="#000" stroke-linecap="round" stroke-linejoin="round" stroke-miterlimit="10" stroke-width=".5" d="M278.13672 478.04297l1.22265-.10156"/><g clip-path="url(#s)"><path fill="none" stroke="#000" stroke-linecap="round" stroke-linejoin="round" stroke-miterlimit="10" stroke-width=".5" d="M291.36719 476.9336l-1.80078 6.79296"/></g><path fill="none" stroke="#000" stroke-linecap="round" stroke-linejoin="round" stroke-miterlimit="10" stroke-width=".5" d="M291.10547 477.92188l1.19531-.28125"/><g clip-path="url(#t)"><path fill="none" stroke="#000" stroke-linecap="round" stroke-linejoin="round" stroke-miterlimit="10" stroke-width=".5" d="M303.61719 476.82031l.32422 7.01953"/></g><path fill="none" stroke="#000" stroke-linecap="round" stroke-linejoin="round" stroke-miterlimit="10" stroke-width=".5" d="M303.66406 477.83984l1.0586-.625"/><g clip-path="url(#u)"><path fill="none" stroke="#000" stroke-linecap="round" stroke-linejoin="round" stroke-miterlimit="10" stroke-width=".5" d="M316.92188 476.82031l.34765 7.01953"/></g><path fill="none" stroke="#000" stroke-linecap="round" stroke-linejoin="round" stroke-miterlimit="10" stroke-width=".5" d="M316.92188 476.82031l2.10546-1.25781"/><g clip-path="url(#v)"><path fill="none" stroke="#000" stroke-linecap="round" stroke-linejoin="round" stroke-miterlimit="10" stroke-width=".5" d="M330.28516 476.8164l.2539 7.02344"/></g><path fill="none" stroke="#000" stroke-linecap="round" stroke-linejoin="round" stroke-miterlimit="10" stroke-width=".5" d="M330.28516 476.8164l2.12109-1.23046"/><g clip-path="url(#w)"><path fill="none" stroke="#000" stroke-linecap="round" stroke-linejoin="round" stroke-miterlimit="10" stroke-width=".5" d="M343.08984 476.8711l1.26954 6.91406"/></g><path fill="none" stroke="#000" stroke-linecap="round" stroke-linejoin="round" stroke-miterlimit="10" stroke-width=".5" d="M343.08984 476.8711l1.92579-1.52344"/><g clip-path="url(#x)"><path fill="none" stroke="#000" stroke-linecap="round" stroke-linejoin="round" stroke-miterlimit="10" stroke-width=".5" d="M356.33594 476.88672l1.41015 6.88281"/></g><path fill="none" stroke="#000" stroke-linecap="round" stroke-linejoin="round" stroke-miterlimit="10" stroke-width=".5" d="M356.53906 477.88672l.94531-.78125"/><g clip-path="url(#y)"><path fill="none" stroke="#000" stroke-linecap="round" stroke-linejoin="round" stroke-miterlimit="10" stroke-width=".5" d="M372.2539 477.3711l-3.79687 5.91406"/></g><g clip-path="url(#z)"><path fill="none" stroke="#000" stroke-linecap="round" stroke-linejoin="round" stroke-miterlimit="10" stroke-width=".5" d="M387.10547 481.07813l-6.86719-1.5"/></g><g clip-path="url(#A)"><path fill="none" stroke="#000" stroke-linecap="round" stroke-linejoin="round" stroke-miterlimit="10" stroke-width=".5" d="M399.92969 478.40625l-5.88672 3.84375"/></g><path fill="none" stroke="#000" stroke-linecap="round" stroke-linejoin="round" stroke-miterlimit="10" stroke-width=".5" d="M399.07031 478.96484l1.07813.59375"/><g clip-path="url(#B)"><path fill="none" stroke="#000" stroke-linecap="round" stroke-linejoin="round" stroke-miterlimit="10" stroke-width=".5" d="M413.5586 479.01172l-6.51563 2.63281"/></g><g clip-path="url(#C)"><path fill="none" stroke="#000" stroke-linecap="round" stroke-linejoin="round" stroke-miterlimit="10" stroke-width=".5" d="M412.60938 479.39453l.9414.78906"/></g><g clip-path="url(#D)"><path fill="none" stroke="#000" stroke-linecap="round" stroke-linejoin="round" stroke-miterlimit="10" stroke-width=".5" d="M426.36328 478.13672l-5.49219 4.38281"/></g><path fill="none" stroke="#000" stroke-linecap="round" stroke-linejoin="round" stroke-miterlimit="10" stroke-width=".5" d="M426.36328 478.13672l2.25.97656m-3.05078-.33594l1.1289.48828"/><g clip-path="url(#E)"><path fill="none" stroke="#000" stroke-linecap="round" stroke-linejoin="round" stroke-miterlimit="10" stroke-width=".5" d="M440.20313 479.05078l-6.54297 2.55469"/></g><g clip-path="url(#F)"><path fill="none" stroke="#000" stroke-linecap="round" stroke-linejoin="round" stroke-miterlimit="10" stroke-width=".5" d="M440.20313 479.05078l1.86328 1.59766"/></g><g clip-path="url(#G)"><path fill="none" stroke="#000" stroke-linecap="round" stroke-linejoin="round" stroke-miterlimit="10" stroke-width=".5" d="M439.25 479.42188l.9336.80078"/></g><g clip-path="url(#H)"><path fill="none" stroke="#000" stroke-linecap="round" stroke-linejoin="round" stroke-miterlimit="10" stroke-width=".5" d="M453.46094 478.91016l-6.42969 2.83593"/></g><g clip-path="url(#I)"><path fill="none" stroke="#000" stroke-linecap="round" stroke-linejoin="round" stroke-miterlimit="10" stroke-width=".5" d="M453.46094 478.91016l1.92969 1.51562"/></g><g clip-path="url(#J)"><path fill="none" stroke="#000" stroke-linecap="round" stroke-linejoin="round" stroke-miterlimit="10" stroke-width=".5" d="M466.25781 478.07813l-5.39453 4.5039"/></g><g clip-path="url(#K)"><path fill="none" stroke="#000" stroke-linecap="round" stroke-linejoin="round" stroke-miterlimit="10" stroke-width=".5" d="M466.25781 478.07813l2.27344.92187"/></g><g clip-path="url(#L)"><path fill="none" stroke="#000" stroke-linecap="round" stroke-linejoin="round" stroke-miterlimit="10" stroke-width=".5" d="M147.51172 466.92969l-7.02344.16797"/></g><path fill="none" stroke="#000" stroke-linecap="round" stroke-linejoin="round" stroke-miterlimit="10" stroke-width=".5" d="M147.51172 466.92969l1.20312 2.14062m12.07813-2.5586l-6.95703 1.00391m6.95703-1.0039l1.44922 1.98047m11.77734-2.40235l-6.78125 1.84766m6.78125-1.84766l1.67969 1.78907m11.57812-1.98047l-6.66406 2.23047m5.69531-1.90625l.89063.84765m12.96484-2.03125l-5.8086 3.94922m4.96485-3.375l1.08594.57031m12.98047-1.27734l-5.6211 4.21484m5.6211-4.21484l2.22266 1.04297m10.76562-1.42188L221.40625 469.5m4.96875-4.97266l2.34766.71875m10.86328-.8164l-4.76172 5.16797m4.76172-5.16797l2.375.625m11.25-.30078l-5.38281 4.51953m4.60156-3.86328l1.13672.46093m12.6953-1.39843l-4.85155 5.08203m4.14453-4.34375l1.1836.33203m11.41796-1.89453l-2.01172 6.73047m1.71875-5.75l1.20313-.2422m12.2578-.78124l-1.71484 6.8164m1.46485-5.82421l1.1914-.29297m12.57422-.64063l-2.11718 6.69922m1.80859-5.72656l1.20703-.22266m12.76563-.6211l-2.81641 6.44141m2.40625-5.5039l1.22266-.09375m12.91796-.625l-3.64843 6.0039m3.11718-5.1289l1.22657.07031m12.46875-1.03516l-3.34375 6.1836m3.34375-6.1836l2.45312.01954m12.20313 1.26562l-6.02735 3.61328m5.15235-3.08594l1.05078.63282m13.60547 1.1211l-6.96094-.94923m5.94922.8086L373.25 468.5m13.63281-.0586l-6.42187-2.85546m5.48828 2.4414l.08594 1.22266m14.1953-.89063l-6.48827-2.6914m5.54687 2.30078l.11719 1.21875m14.39062-2.51563l-6.99218.6836m6.99218-.6836l1.35938 2.04297m11.17969-3.92578l-5.4375 4.44922m5.4375-4.44922l2.26172.94922m11.0664-.9336l-5.46484 4.41798m5.46484-4.41797l2.25781.96484m11.6172.01953l-6.58595 2.44922m6.58594-2.44922l1.83594 1.6289m-2.79297-1.27343l.91797.8125m13.1289-1.66016l-6.1328 3.4336"/><g clip-path="url(#M)"><path fill="none" stroke="#000" stroke-linecap="round" stroke-linejoin="round" stroke-miterlimit="10" stroke-width=".5" d="M466.6289 465.29688l2.0625 1.32812"/></g><path fill="none" stroke="#000" stroke-linecap="round" stroke-linejoin="round" stroke-miterlimit="10" stroke-width=".5" d="M465.73438 465.79688l1.03125.66406"/><g clip-path="url(#N)"><path fill="none" stroke="#000" stroke-linecap="round" stroke-linejoin="round" stroke-miterlimit="10" stroke-width=".5" d="M147.40625 452.83984l-6.8125 1.71875"/></g><path fill="none" stroke="#000" stroke-linecap="round" stroke-linejoin="round" stroke-miterlimit="10" stroke-width=".5" d="M147.40625 452.83984l1.64844 1.82032m11.76172-1.2461l-7.00391.5664m5.98438-.48437l.66406 1.03516m13.67969-.96875l-7.01954.27344m7.01953-.27344l1.23438 2.1211m11.95703-2.91798l-6.77344 1.86329m5.78907-1.58985l.84375.89063m13-2.17188l-5.85938 3.8789m5.85938-3.8789l2.15625 1.17188m10.9453-1.45703l-5.4375 4.44922m5.4375-4.44922l2.26563.94922m11.28516-.62891l-5.90625 3.8125m5.90625-3.8125l2.14063 1.19531m-3-.64062l1.0703.59765m12.60157-1.76562l-4.89844 5.03906m4.89844-5.03906l2.35547.6836m-3.07031.05077l1.17968.33985m11.98047-1.69141l-3.16406 6.27344m3.16406-6.27344l2.45313-.05469m-2.91406.96485l1.22656-.02344m13.0586-.57422l-4.1836 5.64844m4.1836-5.64844l2.42968.36328m11.36719.0664l-5.14453 4.78516m5.14453-4.78515l2.3203.80468m10.82423-.97656l-4.80078 5.13281m4.80078-5.1328l2.36719.64062m11.20312-.3711l-5.3164 4.59375m5.3164-4.59375l2.28906.88282m10.97266-.94922l-5.20703 4.72265m5.20703-4.72265l2.3086.83203m11.17968-.6211l-5.55469 4.30079m5.55469-4.30078l2.23828 1.0078m-3.04687-.3828l1.12109.5039m13.11719-.97656l-5.78125 4m5.78125-4l2.17969 1.1289m-3.02344-.54687l1.08984.5625m12.96875-1.28125l-5.58203 4.27344m5.58203-4.27344l2.23047 1.01953m11.58594-.11328l-6.58203 2.46094m6.58203-2.46094l1.83594 1.625m-2.79297-1.26563l.91797.8125m12.80468-2.13671l-5.48828 4.39062m5.48828-4.39062l2.2539.97265m11.82423 1.01563l-7.01172.41406m7.01172-.41406l1.28125 2.09375m11.63672-3.52344l-6.21875 3.27344m6.21875-3.27344l2.02734 1.3789m-2.9336-.90234l1.01563.6875m13.35547-.83984l-6.51953 2.625m6.51953-2.625l1.8789 1.57812m-2.82812-1.1953l.9414.78905m13.37891-1.02343l-6.6289 2.32812m6.6289-2.32812l1.8047 1.66015m-2.76954-1.32031l.90234.82813m12.72657-2.29688l-5.32422 4.58594m5.32422-4.58594l2.28515.88672m11.67188.21094l-6.60938 2.39062"/><g clip-path="url(#O)"><path fill="none" stroke="#000" stroke-linecap="round" stroke-linejoin="round" stroke-miterlimit="10" stroke-width=".5" d="M466.86719 452.5039l1.82031 1.64454"/></g><path fill="none" stroke="#000" stroke-linecap="round" stroke-linejoin="round" stroke-miterlimit="10" stroke-width=".5" d="M465.90234 452.85156l.91016.82422"/><g clip-path="url(#P)"><path fill="none" stroke="#000" stroke-linecap="round" stroke-linejoin="round" stroke-miterlimit="10" stroke-width=".5" d="M147.5039 440.125l-7.0078.51953"/></g><path fill="none" stroke="#000" stroke-linecap="round" stroke-linejoin="round" stroke-miterlimit="10" stroke-width=".5" d="M147.5039 440.125l1.3086 2.07422m11.99219-1.41016l-6.98047-.8125m6.98047.8125l.89453 2.28516m12.4414-2.8086l-7.02343.23438m7.02344-.23438l1.22656 2.12891m11.9375-3.04687l-6.71875 2.0703m6.71875-2.0703l1.73828 1.73437m11.34375-2.30078l-6.2539 3.20313m6.2539-3.20313l2.01172 1.40234m11.30469-1.40234l-6.25391 3.20313m6.2539-3.20313l2.01172 1.40234m-2.92187-.9375l1.00781.70313m12.7539-1.85547l-5.32812 4.58203m5.32813-4.58203l2.28515.89063m-3.0625-.22657l1.14453.44531m12.44532-1.58984l-4.32422 5.53906m4.32422-5.53906l2.41797.42578m-3.04688.3789l1.20703.21485m11.11328-1.72265l-1.07812 6.9453m1.07812-6.9453l2.31641-.8047m12.54297 1.44532l-4.16406 5.66406m4.16406-5.66406l2.42578.35547m-3.03125.46875l1.21094.17969m12.29687-1.26172l-3.33984 6.17969m3.33984-6.1797l2.45703.01563m-2.9414.88282l1.22656.0078m12.33594-1.02343l-2.86719 6.41406m2.86719-6.41406l2.44922-.16797m-2.8672 1.10156l1.22657-.08203m12.82813-.6875l-3.50782 6.08985m3.50782-6.08985l2.44921.08203m-2.96093.80079l1.22656.04297m13.58984-.07422l-5.48828 4.38672m5.48828-4.38672l2.25391.97265m-3.05078-.33593l1.125.48828m13.22656-.78907l-5.96875 3.71094m5.96875-3.71094l2.1211 1.23438m-2.98829-.6914l2.1211 1.23046M346.5 438.22656l-5.54688 4.3164m5.54688-4.3164l2.23828 1m-3.04687-.3711l1.12109.5m11.80469-2.11327l-3.15235 6.28125m3.15235-6.28125l2.45312-.0586m10.03906-.23046l-1.5078 6.86328m1.28905-5.8672l1.1836-.32812m15.10547 2.59766l-7.01953.32813m6-.28125l.625 1.05468m13.28515.75l-6.16797-3.375m6.16797 3.375l-.03125 2.45313m13.64844-5.07031l-6.77344 1.86328m6.77344-1.86328l1.6875 1.78125m-2.67188-1.51172l.84375.89062m12.69532-2.5625l-5.2539 4.66406m5.2539-4.66406l2.30078.85547m-3.0625-.17578l2.29687.85547m12.39844-.55469l-6.48828 2.70313m6.48828-2.70313l1.89453 1.5586m-2.83984-1.16407l.94922.77735m13.29297-1.21094l-6.45313 2.78515m6.45313-2.78515l1.91406 1.53125m11.6875-.23438l-7.02344.1875"/><g clip-path="url(#Q)"><path fill="none" stroke="#000" stroke-linecap="round" stroke-linejoin="round" stroke-miterlimit="10" stroke-width=".5" d="M467.07422 440.28906l1.21094 2.13281"/></g><path fill="none" stroke="#000" stroke-linecap="round" stroke-linejoin="round" stroke-miterlimit="10" stroke-width=".5" d="M466.05078 440.3164l.60547 1.06641"/><g clip-path="url(#R)"><path fill="none" stroke="#000" stroke-linecap="round" stroke-linejoin="round" stroke-miterlimit="10" stroke-width=".5" d="M147.48438 426.6289l-6.96875.87891"/></g><path fill="none" stroke="#000" stroke-linecap="round" stroke-linejoin="round" stroke-miterlimit="10" stroke-width=".5" d="M147.48438 426.6289l1.41406 2.00391m11.89453-2.07422l-6.95313 1.01954m6.95313-1.01954l1.45312 1.97657m11.6172-2.84375l-6.46485 2.7539m6.46484-2.7539l1.90625 1.54297m11.64063-.75l-6.9297 1.16796m6.9297-1.16797l1.49609 1.94532m11.6875-2.46875l-6.66797 2.21484m6.66797-2.21484l1.77734 1.6914m-2.74609-1.36718l.88672.84375m13.26172-1.51172l-6.39844 2.90234m6.39844-2.90234l1.94531 1.5m-2.875-1.07813l.97266.75m13.26953-1.17968l-6.39063 2.91796m6.39063-2.91796l1.94922 1.49218m-2.87891-1.0664l.97266.74609m13.28515-1.14453L233.9961 428.5m6.41797-2.86328l1.9336 1.51172m10.84375-2.36328l-5.33985 4.5664m5.33985-4.5664l2.28515.89843m-3.0625-.23437l1.14063.44922m12.36719-1.65625l-4.17188 5.65234m4.17188-5.65234l2.42578.35937m-3.03516.46094l1.21484.17969m13.35938-.375l-5.47266 4.40234m5.47266-4.40234l2.25781.96484m9.58203-2.04297l-2.51953 6.5586m2.51953-6.5586l2.4336-.29687m10.83203.27734l-2.42188 6.59766m2.42188-6.59766l2.42968-.33594m11.08204.41797l-2.81641 6.4375m2.8164-6.4375l2.44922-.1875m-2.85937 1.1211l1.22266-.09375m13.99218.38672l-5.79297 3.98046m5.79297-3.98047l2.17578 1.13672m-3.01953-.55859l1.08594.57031m13.41797-.51172l-6.48438 2.70703m6.48438-2.70703l1.89844 1.5586m-2.84375-1.16407l1.89843 1.5547m11.75391-2.91798l-5.26953 4.64453m5.26953-4.64453l2.29688.86328m11.0625-.8125l-5.35938 4.54297m5.35938-4.54297l2.28125.90625m10.28125-1.57421l-3.85157 5.8789m3.85157-5.8789l2.4414.22265m-3.0039.63282l2.4453.22265m-3.0039.63281l1.22266.11329m14.3125-.66797l-6.05078 3.5703m6.05078-3.5703l2.09375 1.27734m-2.97266-.75781l2.09375 1.27734m-2.97656-.76172l1.04687.64063m14.01563-1.70313l-6.02344 3.6211m6.02344-3.6211l2.10547 1.26172m-2.98047-.73437l2.10156 1.26172m-2.98047-.73438l1.0547.6289m13.1953-2.61718l-4.38672 5.48828m4.38672-5.48828l2.41407.45312m-3.05079.34375l2.41016.45313m10.64063-1.77344l-2.58204 6.53516m2.58204-6.53516l2.4375-.27344m-2.8125 1.22266l2.4375-.27344m11.20312-.69531l-2.48437 6.57422m2.48437-6.57422l2.4336-.3125m11.87109.88281l-4.46094 5.4336"/><g clip-path="url(#S)"><path fill="none" stroke="#000" stroke-linecap="round" stroke-linejoin="round" stroke-miterlimit="10" stroke-width=".5" d="M465.79297 424.35156l2.40234.48828"/></g><path fill="none" stroke="#000" stroke-linecap="round" stroke-linejoin="round" stroke-miterlimit="10" stroke-width=".5" d="M465.14453 425.14453l1.19922.24219"/><g clip-path="url(#T)"><path fill="none" stroke="#000" stroke-linecap="round" stroke-linejoin="round" stroke-miterlimit="10" stroke-width=".5" d="M147.51172 413.6914l-7.02344.125"/></g><path fill="none" stroke="#000" stroke-linecap="round" stroke-linejoin="round" stroke-miterlimit="10" stroke-width=".5" d="M147.51172 413.6914l1.1914 2.14454m-2.21093-2.1289l.59375 1.07421m13.65625-1.80078l-6.85547 1.54687m6.85547-1.54687l1.60156 1.85937m-2.59766-1.6328l.80078.92968m13.35157-1.66797l-6.53906 2.57031m6.53906-2.57031l1.86719 1.59375m-2.81641-1.21875l.9336.79688m13.55468-.26954l-6.98438.76563m6.98438-.76563l1.38281 2.02735m-2.39844-1.91797l.69141 1.01562m13.46094-1.91015l-6.6289 2.33593m6.6289-2.33593l1.80469 1.66015m-2.76953-1.3203l1.80859 1.66015m12.64844-1.22657l-6.98047.78907m6.98047-.78907l1.39062 2.01954m-2.40625-1.90625l.69531 1.01171m13.44532-1.9414l-6.60157 2.41797m6.60157-2.41797l1.82422 1.64062m-2.78516-1.28906l.91406.82031m13.01563-1.86328l-5.91016 3.80469m5.91016-3.80469l2.14062 1.19531m-3-.64062l1.07031.59766m13.04688-1.2422l-5.79297 3.98048m5.79297-3.98047l2.17578 1.13281m-3.01953-.55078l1.08594.5664m12.7578-1.53906l-5.16405 4.76563m5.16406-4.76563l2.3164.8086m-3.0664-.11719l1.15625.40625m12.94531-1.0586l-5.23437 4.6875m5.23437-4.6875l2.30078.84376m10.80469-1.0586l-4.8164 5.11719m4.8164-5.11719l2.36719.64453m11.03515-.55859l-4.99609 4.9414M305.55078 412l1.17188.36719m12.73828-1.21094l-4.73047 5.19531m4.73047-5.19531l2.3789.60547m11.20313-.33594l-5.26172 4.65625m5.26172-4.65625l2.29687.85938m11.76563.5039l-6.75781 1.92969m6.7578-1.92969l1.70313 1.76563m11.10157-2.82813l-5.73829 4.05469m5.73829-4.05469l2.1914 1.10547m-3.02734-.51562l1.09765.55078m13.13672-1.01953l-5.90625 3.80859m5.90625-3.8086l2.14454 1.19922m-3.00391-.64453l1.07031.59766m13.21875-.96484l-6.13281 3.4375m6.13281-3.4375l2.0625 1.32812m-2.95703-.82812l2.0664 1.32812m-2.95702-.82812l1.03125.66406m14.10937-1.58203l-6.21484 3.27343m6.21484-3.27343l2.03125 1.3789m-2.9336-.90234l2.02735 1.3789m11.90234-2.3164l-5.63671 4.19531m5.63671-4.19531l2.21485 1.05078m-3.03516-.4414l2.21485 1.05078m10.89453-2.58594l-3.58594 6.04297m3.58594-6.04297l2.44921.11719m-2.97265.76562l1.22656.05469m12.25-1.125L435.5 416.96094m2.86328-6.41797l2.44531-.16797m-2.86328 1.10156l2.44922-.16797m11.03906-.86328l-2.375 6.61328m2.375-6.61328l2.4297-.35156m-2.77345 1.3164l1.21485-.17577m13.53515-.15625l-4.55859 5.35156"/><g clip-path="url(#U)"><path fill="none" stroke="#000" stroke-linecap="round" stroke-linejoin="round" stroke-miterlimit="10" stroke-width=".5" d="M465.83984 411.07813l2.39844.53125"/></g><path fill="none" stroke="#000" stroke-linecap="round" stroke-linejoin="round" stroke-miterlimit="10" stroke-width=".5" d="M465.17578 411.85547l2.39844.53125"/><g clip-path="url(#V)"><path fill="none" stroke="#000" stroke-linecap="round" stroke-linejoin="round" stroke-miterlimit="10" stroke-width=".5" d="M147.5 400.125l-7 .625"/></g><path fill="none" stroke="#000" stroke-linecap="round" stroke-linejoin="round" stroke-miterlimit="10" stroke-width=".5" d="M147.5 400.125l1.33984 2.05469m11.97266-2.07422l-6.9961.66406m6.9961-.66406l1.35156 2.05078m11.98047-1.73047l-7.02734.02344m7.02734-.02344l1.15625 2.16406m12.09766-2.80468l-6.90625 1.30859m6.90625-1.3086l1.53515 1.91407m-2.53906-1.72656l1.53516 1.91406m12.69922-2.45313l-6.73438 2.00782m6.73438-2.00782l1.72265 1.75m-2.70312-1.45703l.85937.875m13.45313-1.10547l-6.76953 1.88282m6.76953-1.88282l1.6914 1.77735m-2.67578-1.5039l.84375.89062m13.22656-1.76172l-6.3125 3.08203m6.3125-3.08203l1.98829 1.4375m-2.90625-.99219l.99218.72266m12.78907-1.8672L234.5 402.6797m5.41016-4.48047l2.26953.9336m-3.05469-.28516l2.26953.9375m11.6914-1.7461l-5.1328 4.80078m5.1328-4.80078l2.32032.79297m-3.0664-.09375l1.16015.39453m13.15625-.78906l-5.64063 4.1914m5.64063-4.1914l2.21484 1.05078m10.82813-1.375l-5.09766 4.83594m5.09766-4.83594l2.32812.78125m-3.0703-.07812l1.16405.39062m13.08203-.8789l-5.47265 4.41015m4.67578-3.76953l1.1289.48047m13.58594-.00781l-6.67968 2.17968m6.67968-2.17968l1.76563 1.70312m11.26953-2.33984l-6.1211 3.45312m6.1211-3.45312l2.0664 1.32031m11.1836-1.42969l-5.99219 3.67188m5.99219-3.67188l2.11328 1.2461m11.26172-1.14454l-6.10938 3.46875m6.10938-3.46875l2.07031 1.31641m11.67188-.0586l-6.96485.95313m6.96485-.95312l1.4336 1.99219m11.86718-2.07813l-6.9375 1.125m6.9375-1.125l1.48437 1.95313m-2.49218-1.78907l.74218.97656m13.07422-2.46875l-5.92187 3.78516m5.92187-3.78515l2.13672 1.20312m-3-.65234l2.13672 1.20312m-2.9961-.65234l1.06641.60156m14.24219-1.1914l-6.46484 2.76171m6.46484-2.76172l1.91016 1.53907m-2.85157-1.13672l.95313.76953m13.42578-.83594l-6.71094 2.08594m6.71094-2.08594l1.74219 1.73047m-2.71875-1.42578l.8711.86328m12.4453-2.71094l-4.7578 5.17188m4.7578-5.17188l2.375.6211m-3.0664.1328l1.1875.3086m12.79687-1.08203l-4.71484 5.21094m4.71484-5.21094l2.3789.60156m-3.0664.15625l1.1914.30079m12.92579-.94922l-4.94531 4.99218m4.94531-4.99218l2.35156.70703M452 398.66797l1.17578.35156m13.3086-.53125l-5.84375 3.90235"/><g clip-path="url(#W)"><path fill="none" stroke="#000" stroke-linecap="round" stroke-linejoin="round" stroke-miterlimit="10" stroke-width=".5" d="M466.48438 398.48828l2.16015 1.16016"/></g><path fill="none" stroke="#000" stroke-linecap="round" stroke-linejoin="round" stroke-miterlimit="10" stroke-width=".5" d="M465.63281 399.05469l1.08203.58203"/><g clip-path="url(#X)"><path fill="none" stroke="#000" stroke-linecap="round" stroke-linejoin="round" stroke-miterlimit="10" stroke-width=".5" d="M147.42578 386.34766l-6.85156 1.55468"/></g><path fill="none" stroke="#000" stroke-linecap="round" stroke-linejoin="round" stroke-miterlimit="10" stroke-width=".5" d="M147.42578 386.34766l1.60156 1.85546m11.71875-1.83984l-6.86328 1.51953m6.86328-1.51953l1.59375 1.86719m11.77344-1.5586l-6.96875.90235m6.96875-.90235l1.42188 2m11.58593-3.05468l-6.35156 3.01172m6.35156-3.01172l1.96875 1.46484m11.67188-.24219l-7.0039.56641m5.98437-.48438l.66406 1.03516m13.64453-1.34765l-6.95312 1.02734m6.95312-1.02735l1.45703 1.97657m-2.46875-1.82422l.73047.98437m13.1289-2.43359l-6.01952 3.625m6.01953-3.625l2.10547 1.26172m-2.98047-.73438l1.05469.62891m12.7539-1.67969l-5.25 4.67188m5.25-4.67188l2.30078.85156m-3.0664-.17187l1.15234.42578m13.07422-.92969l-5.54688 4.31641m5.54688-4.3164l2.23828 1.0039m-3.04297-.375l1.11719.5m12.76953-1.39844l-5.07813 4.85547m5.07813-4.85547l2.32813.76953m-3.06641-.0625l1.16406.38282m13.39844-.40625l-6.09766 3.49218m6.09766-3.49218l2.07812 1.30468m11.47266-.8125l-6.5664 2.50391m6.5664-2.5039l1.84766 1.61327m11.6875-.6289l-7.00782.53906m7.00782-.53906l1.3125 2.07031m11.97265-1.27734l-6.94922-1.04688m6.94922 1.04688l.8164 2.3125m12.28126-4.15625l-6.51172 2.63672m6.51172-2.63672l1.8789 1.57422m-2.82812-1.19141l.9414.78906m13.31641-1.1914l-6.5 2.67578m6.5-2.67578l1.88672 1.5664m11.6914-.14062l-7.02734-.17578m7.02735.17578l1.09765 2.19531m-2.12109-2.21875l.55078 1.09375m13.74219-1.72656l-6.9336 1.13672m6.9336-1.13672l1.48828 1.94922m-2.5-1.78516l1.48828 1.95313m12.65625-2.79297l-6.57031 2.49218m6.57031-2.49218l1.84375 1.61718M386 386.2383l1.84766 1.61718m12.51953-1.6875l-6.76172 1.91015m6.76172-1.91015l1.69922 1.77344m-2.6836-1.4961l.84766.88672m13.32422-1.53515l-6.50781 2.65234m6.5078-2.65235l1.88673 1.57032m-2.83204-1.1836l.94141.78516m13.09766-1.61719l-6.0664 3.54688m6.0664-3.54688l2.08984 1.28906m-2.97265-.77343l1.04687.64453m12.60156-1.8711l-4.96875 4.96875m4.96875-4.96875l2.34766.71485m-3.07031.00781l2.34765.71485m12.47656-.2461l-6.53906 2.58203m6.53906-2.58203l1.8672 1.59375m-2.82032-1.21875l.9336.79688m13.14452-1.57032l-6.16015 3.38282"/><g clip-path="url(#Y)"><path fill="none" stroke="#000" stroke-linecap="round" stroke-linejoin="round" stroke-miterlimit="10" stroke-width=".5" d="M466.64063 385.4336l2.05468 1.34374"/></g><path fill="none" stroke="#000" stroke-linecap="round" stroke-linejoin="round" stroke-miterlimit="10" stroke-width=".5" d="M465.7461 385.92578l1.02343.67188"/><g clip-path="url(#Z)"><path fill="none" stroke="#000" stroke-linecap="round" stroke-linejoin="round" stroke-miterlimit="10" stroke-width=".5" d="M147.39453 372.90234l-6.78906 1.8125"/></g><path fill="none" stroke="#000" stroke-linecap="round" stroke-linejoin="round" stroke-miterlimit="10" stroke-width=".5" d="M147.39453 372.90234l1.67188 1.79297m11.71484-1.47265l-6.92969 1.17187m6.92969-1.17187l1.4961 1.9453m-2.50782-1.77343l.75.97266m13.5-1.48438l-6.77734 1.85156m6.77734-1.85156l1.6836 1.78516m-2.66797-1.51563l.83984.89454m13.58203-.39454l-7.02344.3125m7.02344-.3125l1.2461 2.11329m12.0625-1.7461l-7.01172-.42187m7.01172.42187l1.01953 2.23047m12.1953-3.3086l-6.80858 1.73438m6.80859-1.73437l1.65234 1.8125m-2.64453-1.5625l.82813.91015m13.28125-1.72656l-6.41407 2.86719m6.41407-2.86719l1.9375 1.50781m-2.8711-1.08984l.96875.7539m12.82031-1.92578l-5.49609 4.375m5.4961-4.375l2.25.97657m-3.05079-.33985l1.12891.48828m13.00781-1.10156l-5.53906 4.32422m5.53906-4.32422l2.24219 1m-3.04688-.3711l1.1211.5m13.28906-.6953l-6.11719 3.45703m6.1172-3.45704l2.0703 1.32032m11.42188-.96094l-6.47266 2.74219m6.47266-2.74219l1.90625 1.54688m11.48047-1.35938l-6.61719 2.36719m6.61719-2.36719l1.8164 1.65234m-2.77734-1.30859l.90625.82422m13.53516-.51953l-6.94532 1.07031m6.94532-1.07031l1.46875 1.96484m-2.48047-1.8086l.73437.98438m13.59766-1.10547l-6.95703 1m6.95703-1l1.44922 1.98047m-2.46094-1.83594l.72266.98829m13.62109-.26563l-6.98828-.73437m6.98828.73437l.91797 2.27344m-1.9375-2.38281l.46094 1.14062m13.89062-1.42969l-7.02734.0586m7.02734-.0586l1.17188 2.16016m-2.19141-2.14844l.58203 1.07813m13.7461-1.3086l-7.01172.5m7.01172-.5l1.30078 2.07813m-2.32032-2.0039l1.30079 2.07812m12.98828-2.51563l-6.92188 1.22266m6.92188-1.22266l1.51172 1.9336m-2.51954-1.75391l1.51172 1.9336m12.79297-2.20704l-6.88281 1.41406m6.88281-1.41406l1.5625 1.88672m-2.5664-1.6836l.78515.94532m13.57422-.89844l-6.96484.91406m6.96484-.91406l1.42578 1.9961m-2.4375-1.86329l1.42188 1.9961m-2.4375-1.86328l.71484 1m14.39063-2.15235l-6.4922 2.6875m6.4922-2.6875l1.89453 1.5625m-2.83985-1.17187l.94922.78125m13.52344-.45313l-6.91406 1.2461m6.91406-1.2461l1.51953 1.9297m-2.52734-1.7461l.76172.96484m13.53515-1.27344l-6.86328 1.5m6.86328-1.5l1.58985 1.8672m-2.58985-1.64845l.79688.9336m13.5039-1.22266l-6.83593 1.63672m6.83593-1.63672l1.625 1.83985m11.40625-2.60938l-6.26562 3.17969"/><g clip-path="url(#aa)"><path fill="none" stroke="#000" stroke-linecap="round" stroke-linejoin="round" stroke-miterlimit="10" stroke-width=".5" d="M466.69531 372.21875l2.00781 1.41016"/></g><g clip-path="url(#ab)"><path fill="none" stroke="#000" stroke-linecap="round" stroke-linejoin="round" stroke-miterlimit="10" stroke-width=".5" d="M147.51172 360.65234l-7.02344-.3203"/></g><path fill="none" stroke="#000" stroke-linecap="round" stroke-linejoin="round" stroke-miterlimit="10" stroke-width=".5" d="M147.51172 360.65234l1.05078 2.21875m12.25781-2.16796l-7.01172-.42188m7.01172.42188l1.01953 2.23437m-2.03906-2.29297l.51172 1.11328m13.8125-.90234l-6.98828-.72656m6.98828.72656l.92188 2.27344m-1.9375-2.37891l.46093 1.13672m13.84766-.8711l-6.94922-1.04296m6.94922 1.04296l.82031 2.3125m12.53125-2.70312l-7.01953-.26563m7.01953.26563l1.07031 2.21094m-2.08984-2.25l.53516 1.10547m13.75-1.8086l-6.91797 1.22266m6.91797-1.22266l1.51172 1.9336m-2.51954-1.75782l.75782.96875m13.33593-1.91406l-6.46093 2.76172m6.46093-2.76172l1.91016 1.53906m-2.85156-1.13671l.95703.76953m13.02734-1.6875l-5.91797 3.78906m5.91797-3.78906l2.14063 1.20312m-3-.65234l1.0664.60156m12.9961-1.32031l-5.6914 4.125m5.6914-4.125l2.20312 1.07812m-3.03125-.47656l1.10156.53906m13.23438-.83594l-6.07813 3.51954m6.07813-3.51954l2.08203 1.29688m11.49219-.74219l-6.59766 2.41016m6.59766-2.41016l1.82812 1.63672m-2.78515-1.28906l.91015.82031m13.47266-.8086l-6.82031 1.69141m6.82031-1.6914l1.64063 1.82422m11.77734-.89844l-7.02344-.16406m7.02344.16406l1.10156 2.19531m-2.125-2.21875l.55078 1.09766m13.6836-.30469l-6.81641-1.70313m6.8164 1.70313l.59376 2.38281m-1.58594-2.6289l.29687 1.1914m14.08985-2.22265l-6.97656.85546m6.97656-.85546l1.40625 2.01171m-2.42188-1.88671l.70313 1.0039m13.57422.04688l-6.8672-1.5m6.8672 1.5l.66015 2.36328m-1.66015-2.58203l.33203 1.1836M360.5 361.12108l-6.91797-1.2539m6.91797 1.2539l.7461 2.33594m-1.75391-2.51953l.7461 2.33594m13.62109-2.53516l-7.00782-.48828m7.00782.48828l1 2.24219m-2.01954-2.3125l1 2.23828m13.3125-2.89453l-6.96093.96094m6.96093-.96094l1.4375 1.99219m-2.44921-1.85157l1.43359 1.98829m12.84375-2.40235l-6.86328 1.50781m6.86328-1.5078l1.58984 1.87108m-2.58984-1.64843l1.58984 1.86719m12.74219-2l-6.89844 1.33203m6.89844-1.33204l1.54297 1.90625m-2.54688-1.71484l.77344.95703m13.53906-1.1914l-6.8828 1.41406m6.8828-1.41406l1.5625 1.89062m-2.5664-1.6836l.78515.94532m13.47657-1.38672l-6.76953 1.88672m6.76953-1.88672l1.6914 1.77735m-2.67578-1.50391l.84375.89062m13.46875-1.10937l-6.79687 1.77734m6.79687-1.77734l1.66406 1.80469m-2.65234-1.54688l.83203.90235m13.36719-1.4961l-6.58594 2.44922"/><g clip-path="url(#ac)"><path fill="none" stroke="#000" stroke-linecap="round" stroke-linejoin="round" stroke-miterlimit="10" stroke-width=".5" d="M466.85547 359.26953l1.83594 1.6289"/></g><path fill="none" stroke="#000" stroke-linecap="round" stroke-linejoin="round" stroke-miterlimit="10" stroke-width=".5" d="M465.89844 359.625l.91406.8125"/><g clip-path="url(#ad)"><path fill="none" stroke="#000" stroke-linecap="round" stroke-linejoin="round" stroke-miterlimit="10" stroke-width=".5" d="M147.5 346.86328l-7 .63281"/></g><path fill="none" stroke="#000" stroke-linecap="round" stroke-linejoin="round" stroke-miterlimit="10" stroke-width=".5" d="M147.5 346.86328l1.33984 2.05078m-2.35937-1.96094l.67187 1.02735m13.64844-.34766l-6.96875-.91015m6.96875.91015l.85938 2.29688m-1.875-2.42969l.42968 1.14844m13.9297-1.42578l-7.02735-.08985m7.02734.08985l1.125 2.17968m-2.14844-2.1914l.5625 1.08984m13.75-.71094l-6.97656-.82421m6.97656.82421l.89063 2.28907m-1.90625-2.41016l.44531 1.14453m13.91016-1.33594l-7.02344-.19921m7.02344.19921l1.08984 2.19922M199.75 347.25l.54688 1.09766m13.76953-1.5586l-6.98438.77735m6.98438-.77735l1.38672 2.02735m-2.40235-1.91407l.6914 1.01172m13.20704-2.46875l-6.11719 3.46485m6.11719-3.46485l2.07031 1.32031m-2.96094-.8164l1.03516.66015m13.01172-1.41796l-5.79688 3.97265m5.79688-3.97265l2.17187 1.13671m-3.01562-.55859l1.08594.57031M254 346.70313l-6.96094.94921M254 346.70313l1.4375 1.99218m11.90625-1.29297l-7.01563-.44921m7.01563.44921l1.01172 2.23438m12.3086-2.35156l-7.02345-.21485m7.02344.21485l1.08203 2.20312m12.20703-2.73828l-6.97656.85547m6.97656-.85547l1.40625 2.01172m-2.42187-1.88672l.70313 1.0039m13.65234-.69921h-7.02735m7.02735 0l1.15234 2.16406m-2.17187-2.16406l.57422 1.08203m13.73437-.64063l-6.97265-.88671m6.97265.88671l.8711 2.29297m-1.88672-2.42187l.87109 2.29297m13.47656-2.33594l-7.00781-.53906m7.00781.53906l.98438 2.2461m-2.0039-2.32813l.98437 2.25m13.35156-2.17969l-7.00781-.51953m7.0078.51953l.98829 2.2461m-2.00781-2.32032l.4961 1.1211m13.84765-1.32813l-7.02735.04297m7.02735-.04297l1.16406 2.16016m-2.1875-2.15235l1.16406 2.16016m13.17578-2.19922l-7.02734.10547m7.02734-.10547l1.1836 2.14844m-2.20703-2.13281l1.18359 2.14843m13.0664-2.88672l-6.85156 1.55079m6.85157-1.55079l1.60156 1.85547m-2.59766-1.6289l1.60156 1.85546m-2.59765-1.6328l.80078.92968m14.40234-1.7461l-6.64453 2.28516m6.64453-2.28515l1.79297 1.67578m-2.75781-1.34375l1.79297 1.67578m12.41797-2.19531l-6.5039 2.66015m6.5039-2.66015l1.88672 1.5703m-2.83594-1.18358l1.88672 1.5703m12.28515-2.16015l-6.3203 3.0664m6.3203-3.0664l1.98047 1.44531m-2.89844-1l.98829.72266m13.2578-1.14453l-6.34765 3.01953m6.34766-3.01953l1.96875 1.46094m11.23828-1.66407l-6.13281 3.42579m6.13281-3.42579l2.0625 1.32813m11.625-.33985l-6.875 1.45313"/><g clip-path="url(#ae)"><path fill="none" stroke="#000" stroke-linecap="round" stroke-linejoin="round" stroke-miterlimit="10" stroke-width=".5" d="M467 346.45313l1.57422 1.8789"/></g><path fill="none" stroke="#000" stroke-linecap="round" stroke-linejoin="round" stroke-miterlimit="10" stroke-width=".5" d="M466 346.66406l.78516.9375"/><g clip-path="url(#af)"><path fill="none" stroke="#000" stroke-linecap="round" stroke-linejoin="round" stroke-miterlimit="10" stroke-width=".5" d="M147.5039 333.58984l-7.0078.54688"/></g><path fill="none" stroke="#000" stroke-linecap="round" stroke-linejoin="round" stroke-miterlimit="10" stroke-width=".5" d="M147.5039 333.58984l1.31641 2.07032m-2.33594-1.9922l.65625 1.03517m13.66797-.48438l-6.98828-.71094m6.98828.71094l.9297 2.27344m-1.94532-2.375l.46484 1.13281m13.875-1.09375l-7.0039-.58984m7.0039.58984l.96485 2.25781m12.34765-2.2539l-7-.59375m7 .59375l.96485 2.2578m-1.98438-2.34374l.48438 1.1289m13.80859-1.94921l-6.91797 1.21875m6.91797-1.21875l1.51172 1.93359m11.63672-2.55469l-6.58203 2.46094m6.58203-2.46094l1.83594 1.625m-2.79297-1.26562l.91797.8125m13.02343-1.83203l-5.92187 3.78125m5.92187-3.78125l2.13672 1.20312m-3-.65234l1.07031.60156m13.28907-.83203l-6.28516 3.14062m6.28516-3.14062l2 1.42187m11.6328.76172L247.0625 333.25m6.91797 1.22656l.75781 2.33203m12.58984-2.57812l-6.98828-.73438m6.98828.73438l.92188 2.27734m-1.9375-2.38281l.46094 1.13672m13.89062-1.33594l-7.02734-.125m7.02734.125l1.11328 2.1836m-2.13672-2.20313l.5586 1.09375m13.77734-.97266l-7.01953-.32812m7.01953.32812l1.05078 2.21485m-2.07422-2.26563l.52735 1.10938m13.8086-1.03516l-7.01563-.375m7.01562.375l1.03516 2.22656m-2.05469-2.28125l.51563 1.11329m13.73828-.47657l-6.85547-1.53906m6.85547 1.53906L321.17187 337m-1.64453-2.58984l.64844 2.36718m13.57813-1.83593l-6.6875-2.15625m6.6875 2.15625l.43359 2.41406m-1.40625-2.72656l.4336 2.41406m13.92968-2.36719l-6.83594-1.6289m6.83594 1.6289l.61719 2.375m-1.61328-2.60937l.61718 2.375m13.66797-3.8711l-6.78515 1.83594m6.78515-1.83594l1.67578 1.78906m-2.66406-1.52343l.83985.89453m13.55468.20703l-6.96875-.89844m6.96875.89844l.8672 2.29688m-1.87892-2.42579l.4297 1.14844m13.91796-1.71094l-7.01172.48438m7.01172-.48438l1.30078 2.08204m-2.32031-2.01172l.64844 1.04296m13.69531-.89453l-7.02734.04297m7.02734-.04297L401.66406 336m-2.1875-2.15234l.58203 1.07812m13.75391-1.23047l-7.01953.33594m7.01953-.33594l1.2539 2.10938m-2.27734-2.0586l1.2539 2.10938m12.82423-3.32422l-6.5039 2.66406m6.5039-2.66406l1.88672 1.57031m-2.83204-1.1836l1.88672 1.57032m11.98438-2.66015l-5.72266 4.0703m5.72266-4.0703l2.19531 1.09765m-3.02734-.50781l2.19531 1.09765m12.36328-.92578l-6.54687 2.54688m6.54687-2.54688l1.85938 1.60157m-2.8125-1.23047l.92968.80078m13.41407-.96875l-6.69532 2.14062"/><g clip-path="url(#ag)"><path fill="none" stroke="#000" stroke-linecap="round" stroke-linejoin="round" stroke-miterlimit="10" stroke-width=".5" d="M466.91016 332.79297l1.7539 1.71484"/></g><path fill="none" stroke="#000" stroke-linecap="round" stroke-linejoin="round" stroke-miterlimit="10" stroke-width=".5" d="M465.9336 333.10547l1.7578 1.71094"/><g clip-path="url(#ah)"><path fill="none" stroke="#000" stroke-linecap="round" stroke-linejoin="round" stroke-miterlimit="10" stroke-width=".5" d="M147.5039 320.26172l-7.0078.57031"/></g><path fill="none" stroke="#000" stroke-linecap="round" stroke-linejoin="round" stroke-miterlimit="10" stroke-width=".5" d="M147.5039 320.26172l1.32032 2.0664m-2.33984-1.98046l.66015 1.03125m13.6836-.8047l-7.02735-.05077m7.02734.05078l1.13672 2.17578m-2.16015-2.1836l.57031 1.08594m13.70703-1.75l-6.90625 1.29297m6.90625-1.29297l1.53125 1.91797m-2.53516-1.73047l.76563.95704m13.5-1.39454l-6.79688 1.79297m6.79688-1.79297l1.66406 1.80079m10.96875-3.13672l-5.42969 4.46093m5.4297-4.46093l2.26562.9453m11.3789-.46874l-6.08984 3.50781m6.08984-3.50781l2.07813 1.30469m11.5625-.53907l-6.74219 1.98047m6.74219-1.98047l1.71484 1.75391m11.73438-.98047l-7.01172.4336m7.01172-.4336l1.28515 2.08985m12.01953-2.23047l-6.99218.71484m6.99219-.71484l1.36718 2.03906m11.85547-2.55469l-6.80469 1.7461m6.8047-1.7461l1.65624 1.8086m11.75-.58204l-6.98828-.71093m6.98828.71093l.92969 2.27344m12.23828-1.5586l-6.6914-2.14062m6.6914 2.14063l.4375 2.41797m13.0039-2.94922l-6.9453-1.07813m6.9453 1.07813l.8047 2.3164m12.53906-2.54687l-7.00391-.61328m7.0039.61328l.95704 2.25781m-1.97656-2.34765l.48046 1.1289m13.8672-1.3125l-7.02735-.0664m7.02734.0664l1.1289 2.17578m-2.15234-2.1875l.56641 1.08985m13.7539-.75782l-6.99218-.70703m6.99219.70703l.92578 2.26954m12.13672-1.27735l-6.48829-2.6914m5.54688 2.30078l.11719 1.21875m14.25781-3.19532l-6.72266 2.04297m5.7422-1.7461l.86718.8672m13.22265-1.6875l-6.3125 3.08984m6.3125-3.08984l1.98438 1.4375m11.17188-1.72266l-5.9961 3.66016m5.9961-3.66016l2.11328 1.25m10.6289-1.96484l-4.85156 5.08593m4.14453-4.34375l1.1836.33204m13.3125-.51563l-5.79688 3.96875m4.95313-3.39063l1.08593.57032m10.64844-2.64453l-.94922 6.96093m.8125-5.94921l1.14844-.42188m14.33984.4336l-5.02344 4.91406m5.02344-4.91407l2.33985.7422m-3.07032-.02735l1.16797.3711m13.0664-.875l-5.40233 4.49608"/><g clip-path="url(#ai)"><path fill="none" stroke="#000" stroke-linecap="round" stroke-linejoin="round" stroke-miterlimit="10" stroke-width=".5" d="M466.26172 318.30078l2.27344.92969"/></g><path fill="none" stroke="#000" stroke-linecap="round" stroke-linejoin="round" stroke-miterlimit="10" stroke-width=".5" d="M465.47656 318.95313l2.26953.92968m-3.05468-.27344l1.13671.46485"/><path fill="#00f" fill-rule="evenodd" d="M201.82813 467.64844h8.61718V457.5039h-8.61719v10.14453"/><path fill="azure" fill-rule="evenodd" d="M203.66016 459.33594h.83203v2.82422h3.28906v-2.82422h.83203v6.48047h-.83203v-2.91797h-3.28906v2.91797h-.83203v-6.48047"/><path fill="#ff3030" fill-rule="evenodd" d="M371.17969 454.33203h7.6914V444.1875h-7.6914v10.14453"/><path fill="azure" fill-rule="evenodd" d="M373.01172 446.01953h.83594v5.73828h3.1914V452.5h-4.02734v-6.48047"/><path fill="#00f" fill-rule="evenodd" d="M414.86719 423.26563h8.6211v-10.14844h-8.6211v10.14844"/><path fill="azure" fill-rule="evenodd" d="M416.70313 414.95313h.83203v2.8203h3.28515v-2.8203h.83594v6.48046h-.83594v-2.91796h-3.28515v2.91796h-.83204v-6.48046"/><path fill="#ff3030" fill-rule="evenodd" d="M193.64453 414.38672h7.69531v-10.14453h-7.6953v10.14453"/><path fill="azure" fill-rule="evenodd" d="M195.47656 406.07422h.83594v5.74219h3.1914v.73828h-4.02734v-6.48047"/><path fill="#ff3030" fill-rule="evenodd" d="M180.33203 383.32031h7.6914v-10.14844h-7.6914v10.14844"/><path fill="azure" fill-rule="evenodd" d="M182.16406 375.00781h.83203v5.73828h3.19532v.7422h-4.02735v-6.48048"/><path fill="#ffffe0" fill-rule="evenodd" d="M381.6875 423.53906h22.1836v-10.1914h-22.1836v10.1914"/><path fill-rule="evenodd" d="M385.1875 415.17969h.51172v6.29687h-.78906v-4.49219h-1.38672v-.55468l.5586-.0664.2539-.05079.22656-.08984.20313-.14454.17578-.20703.14062-.29687.10547-.39453m4.8164 0l.22657.01953.21875.05469.21094.08984.1953.1211.1836.14843.17188.17578.30078.42188.24219.49219.17968.54687.11329.57813.03906.59375-.03906.58984-.11329.58594-.17968.55468-.2422.5-.30077.4297-.17188.17968-.1836.15234-.1953.125-.21094.08985-.21875.05859-.22656.01953-.23047-.01953-.21875-.0586-.20703-.08984-.19922-.125-.1836-.15234-.17187-.17969-.30078-.42969-.24219-.5-.17969-.55468-.11328-.58594-.03906-.58985h.83594l.02734.5625.08203.50391.125.44531.16406.3711.19141.30078.21094.22265.22265.13672.22657.04688.22656-.04688.22265-.13671.20704-.22266.1914-.30078.16406-.3711.125-.4453.08204-.50392.02734-.5625-.02734-.5625-.08204-.5-.125-.4375-.16406-.36328-.1914-.29296-.20704-.21485-.22265-.13281-.22656-.04297-.22657.04297-.22265.13281-.21094.21485-.1914.29296-.16407.36329-.125.4375-.08203.5-.02734.5625h-.83594l.03906-.59375.11328-.57813.17969-.54688.24219-.49218.30078-.42188.17187-.17578.1836-.14844.19922-.12109.20703-.08984.21875-.0547.23047-.01952m5.08984 0h.50781v6.29687h-.78515v-4.49219h-1.39063v-.55468l.5625-.0664.25-.05079.23047-.08984.20313-.14454.17578-.20703.14062-.29687.10547-.39453m2.82422 2.17578h.78515l.01954-.3164.05859-.28516.10156-.25391.14063-.21484.17969-.17579.22265-.1289.26563-.07813L400 415.875l.23828.01953.22266.0625.20312.10156.17969.14063.14844.17187.11328.20704.07422.23437.02344.26563-.02344.26953-.0625.22265-.11328.1914-.15235.17188-.20312.16407-.2461.16406-.6328.39062-.53907.3125-.4375.31641-.34766.32422-.26172.33594-.1914.35156-.125.3711-.0664.39062-.02345.42187h4.21485v-.74219h-3.33594l.08594-.28515.11328-.23438.14844-.20312.1875-.17969.23046-.17187.27735-.17579.71875-.41796.41406-.20313.34375-.23047.28125-.2539.22266-.26563.16015-.27734.11329-.28516.0625-.28515.01953-.28125-.03907-.38282-.12109-.34765-.1914-.3086-.25-.26172-.30079-.21484-.34765-.15625-.37891-.09766L400 415.1797l-.4336.03125-.39843.10156-.35547.16406-.30469.23438-.25.30469-.1836.375-.11718.4453-.03906.51954"/><path fill="#ffffe0" fill-rule="evenodd" d="M252.97656 408.69922h22.17969v-10.1914h-22.17969v10.1914"/><path fill-rule="evenodd" d="M256.47656 400.33984h.50781v6.29297h-.78515v-4.48828h-1.39063v-.55469l.5625-.0664.25-.05469.23047-.08984.20313-.14063.17578-.21094.14062-.29296.10547-.39454m4.8125 0l.23047.01954.21875.05468.20703.08985.19531.12109.1875.14844.17188.17578.30078.42187.24219.4922.17969.54687.11328.57812.03515.58985-.03515.59375-.11328.58593-.1797.55469-.24218.5-.30078.42969-.17188.17969-.1875.15234-.1953.1211-.20704.09374-.21875.0586-.23047.01953-.22656-.01953-.22266-.0586-.20703-.09375-.19531-.1211-.1836-.15233-.17187-.1797-.30078-.42968-.2461-.5-.17968-.55469-.10938-.58594-.03906-.59375h.83203l.03125.5625.08203.50782.125.4414.16016.375.1914.30079.21094.22265.22266.13672.22656.04688.22656-.04688.22266-.13672.21094-.22265.1914-.30079.16407-.375.125-.4414.08203-.50781.02734-.5625-.02734-.5586-.08203-.5-.125-.4375-.16406-.36719-.19141-.28906-.21094-.21484-.22265-.13281-.22657-.04297-.22656.04296-.22266.13282-.21093.21484-.19141.28906-.16016.3672-.125.4375-.08203.5-.03125.55858h-.83203l.03906-.58984.10938-.57812.17969-.54688.24609-.49219.30078-.42187.17188-.17578.18359-.14844.19531-.1211.20703-.08984.22266-.05469.22656-.01953m5.09375 0h.50781v6.29297h-.78515v-4.48828h-1.39063v-.55469l.5586-.0664.2539-.05469.23047-.08984.20313-.14063.17187-.21094.14453-.29296.10547-.39454m2.82031 2.17579h.78907l.01953-.31641.0586-.28516.09765-.2539.14062-.21485.1836-.17578.22265-.1289.26563-.07813.3086-.02734.23437.01953.22656.0625.20313.10156.17968.14063.14844.17187.11328.20703.07031.23438.02735.26562-.02344.26953-.0664.22266-.10938.1914-.15625.17188-.19922.16016-.2461.16796-.63671.39063-.53516.3125-.4375.3164-.34765.32423-.26172.33593-.19141.35156-.125.3672-.07031.39452-.01953.41797h4.21093v-.73828h-3.33203l.08203-.28515.11329-.23829.14843-.19921.1875-.1797.23047-.17187.28125-.17578.71485-.41797.41796-.20312.34375-.23047.28125-.2539.21875-.26563.16407-.27735.11328-.28515.0625-.28516.01953-.28125-.04297-.38281-.11719-.34766-.1914-.3086-.25-.26171-.30079-.21484-.34765-.15625-.3789-.09766-.40626-.03516-.4375.03125-.39844.10157-.35156.16406-.3086.23437-.24608.3047-.1875.375-.11329.4453-.04296.51954"/><path fill="#ffffe0" fill-rule="evenodd" d="M186.40234 367.4961h22.1797v-10.19141h-22.1797v10.1914"/><path fill-rule="evenodd" d="M189.90234 359.13672h.50782v6.29687h-.78516v-4.48828h-1.39063v-.5586l.5586-.0625.2539-.05468.23047-.08984.20313-.14063.17187-.21094.14453-.29296.10547-.39844m4.8125 0l.23047.01953.21875.0586.20703.08984.19532.11719.18359.15234.17188.17578.30468.41797.24219.49219.17969.54687.10937.58203.03906.58985-.03906.59375-.10937.58203-.17969.55469-.24219.5039-.30469.42578-.17187.17969-.1836.15234-.1953.125-.20704.09375-.21875.0547-.23047.01952-.23047-.01953-.21875-.05469-.20703-.09375-.1953-.125-.1875-.15234-.16798-.17969-.30469-.42578-.24218-.5039-.17969-.5547-.10938-.58202-.03906-.59375h.83203l.02735.5625.08203.5078.1289.44142.16016.375.1914.30078.21095.21875.22265.13671.22656.04688.22657-.04688.22265-.13671.21094-.21875.1914-.30079.16016-.375.1289-.4414.07813-.50781.03125-.5625-.03125-.5625-.07812-.5-.1289-.4336-.16016-.36719-.19141-.29296-.21094-.21485-.22265-.1289-.22657-.04688-.22656.04688-.22266.1289-.21093.21485-.1914.29296-.16017.3672-.1289.43359-.08203.5-.02735.5625h-.83203l.03906-.58985.10938-.58203.17969-.54687.24219-.4922.30468-.41796.16797-.17578.1875-.15235.19531-.11718.20703-.08985.21875-.05859.23047-.01953m5.08985 0h.51172v6.29687h-.78907v-4.48828h-1.38672v-.5586l.5586-.0625.2539-.05468.22657-.08984.20312-.14063.17578-.21094.14063-.29296.10547-.39844m2.82422 2.17578h.78906l.01953-.3164.0586-.28516.09765-.2539.14063-.21485.17968-.17188.22656-.1289.26172-.08204.3086-.02734.23828.02344.22266.0625.20703.10156.17968.13672.14844.17578.11328.20313.07031.23828.02344.26172-.01953.26953-.0664.22656-.10938.1914-.15625.17188-.19922.16016-.25.16797-.63281.38671-.53516.3125-.4375.31641-.34765.32422-.26563.33594-.1875.35156-.125.3711-.07031.39452-.01953.41797h4.21094v-.74218h-3.33204l.08203-.28125.11329-.23829.14843-.20312.1875-.17969.23047-.17187.27735-.17578.71875-.41407.41406-.20703.34766-.23047.28125-.25.21875-.26953.16406-.27734.10937-.28125.0664-.28516.01954-.28125-.04297-.38281-.1211-.35156-.1875-.30469-.25-.26563-.30468-.21093-.34375-.16016-.38281-.09765-.40625-.03516-.4336.03515-.39843.09766-.35547.16797-.30469.23438-.2461.30468-.1875.3711-.11718.44921-.03906.51563"/><path fill="#ffffe0" fill-rule="evenodd" d="M159.76953 448.83203h22.1836v-10.1914h-22.1836v10.1914"/><path fill-rule="evenodd" d="M163.26953 440.47266h.51172v6.29296h-.78906v-4.48828h-1.38672v-.55468l.5586-.06641.2539-.05469.22656-.08984.20313-.14063.17578-.21093.14062-.29297.10547-.39453m4.8164 0l.22657.01953.21875.05469.21094.08984.19531.1211.1836.14843.17187.17578.30078.41797.24219.4961.1836.54687.10937.57812.03906.58985-.03906.59375-.10938.58594-.1836.55078-.24218.5039-.30078.42969-.17188.17578-.18359.15625-.19531.1211-.21094.09375-.21875.05468-.22656.01953-.23047-.01953-.21875-.05469-.20703-.09375-.19922-.12109-.1836-.15625-.17187-.17578-.30078-.42969-.24219-.5039-.17969-.55079-.11328-.58593-.03906-.59375h.83594l.02734.5625.08203.50781.125.4414.16406.375.19141.30079.21094.22265.22266.13672.22656.04688.22656-.04688.22266-.13672.21093-.22265.1875-.30078.16407-.375.125-.44141.08203-.50781.03125-.5625-.03125-.5586-.08203-.5039-.125-.4336-.16407-.36718-.1875-.29297-.21093-.21094-.22266-.13281-.22656-.04688-.22656.04688-.22266.13281-.21094.21094-.1914.29297-.16407.36718-.125.4336-.08203.5039-.02734.5586H166l.03906-.58985.11328-.57812.1797-.54688.24218-.49609.30078-.41797.17188-.17578.18359-.14844.19922-.1211.20703-.08983.21875-.0547.23047-.01952m5.08984 0h.50781v6.29296h-.78515v-4.48828h-1.39063v-.55468l.5625-.06641.25-.05469.23047-.08984.20313-.14063.17578-.21093.14062-.29297.10547-.39453M176 442.64844h.78516l.01953-.3164.0586-.28907.10155-.25.14063-.21485.17969-.17578.22265-.1289.26563-.07813.3086-.03125.23827.02344.22266.0625.20312.10156.1797.13672.14843.17578.11328.20313.07422.23828.02344.26562-.01953.26563-.06641.22656-.11328.1914-.15235.17188-.20312.16016-.2461.16797-.6328.38672-.53907.3164-.4375.3164-.34375.32423-.26563.33594-.1914.35156-.125.36719-.0664.39453-.02345.41796h4.21485v-.73828h-3.33594l.08594-.28515.11328-.23828.14844-.19922.1875-.17969.23047-.17188.27734-.17578.71875-.41796.41406-.20313.34375-.23438.28125-.25.22266-.26562.16016-.27734.11328-.28516.0625-.28516.01953-.28125-.03906-.3828-.1211-.34767-.1914-.30859-.25-.26172-.30079-.21484-.34765-.15625-.3789-.10156-.40626-.03125-.4336.03125-.39843.09765-.35547.16797-.30469.23438-.25.30468-.18359.375-.11719.44532-.03906.51953"/><path fill="#ffffe0" fill-rule="evenodd" d="M337.30469 361.82031h22.17969V351.625h-22.1797v10.19531"/><path fill-rule="evenodd" d="M340.80469 353.46094h.50781v6.29297h-.78516v-4.48829h-1.39062v-.55468l.5625-.0664.25-.0547.23047-.08984.20312-.14063.17578-.21093.14063-.29297.10547-.39453m4.8125 0l.23047.01953.21875.05469.20703.08984.19922.1211.18359.14843.17188.17578.30078.41797.24218.4961.1797.54687.11327.57813.03906.58984-.03906.59375-.11328.58594-.17969.55078-.24218.5039-.30079.42579-.17187.17968-.1836.15625-.19921.1211-.20703.09375-.21875.05468-.23047.01954-.22656-.01954-.21875-.05468-.21094-.09375-.19531-.1211-.1836-.15625-.17187-.17969-.30079-.42578-.24218-.5039-.1836-.55078-.10937-.58594-.03906-.59375h.83203l.03125.5625.08203.50781.125.4414.16406.375.1875.30079.21094.22265.22265.13672.22657.04688.22656-.04688.22266-.13671.21093-.22266.19141-.30078.16406-.375.125-.4414.08203-.50782.02735-.5625-.02735-.5625-.08203-.5-.125-.4336-.16406-.36718-.1914-.29297-.21094-.21094-.22266-.13281-.22656-.04688-.22656.04688-.22266.13281-.21094.21094-.1875.29297-.16406.36719-.125.43359-.08203.5-.03125.5625h-.83203l.03906-.58985.10937-.57812.1836-.54688.24219-.49609.30078-.41797.17187-.17578.1836-.14844.1953-.12109.21094-.08984.21875-.0547.22657-.01952m5.09375 0h.50781v6.29297h-.78516v-4.48829h-1.39062v-.55468l.5625-.0664.25-.0547.23047-.08984.20312-.14063.17188-.21093.14453-.29297.10547-.39453m6.80469 1.61719h-.78907l-.05078-.21094-.08203-.1875-.10547-.15625-.13281-.13281-.14453-.10157-.16016-.07422-.16797-.04687-.17187-.01563-.32813.04297-.28906.1211-.2461.1953-.20312.26563-.16015.33985-.1172.40234-.0703.46875-.02344.52735.1914-.20313.1836-.16016.1875-.12109.1836-.08984.1875-.0586.1914-.03906.40234-.02344.3086.03125.3203.08985.31641.15625.29297.21875.25781.28515.19532.35156.07422.19922.05078.21875.03125.23438.0039.25-.78515.04687-.02735-.2578-.07812-.25-.1211-.23438-.16015-.21094-.19531-.17969-.21875-.13672-.2422-.08594-.2539-.03125-.2539.03125-.2422.08594-.21874.13672-.19531.17969-.16016.21094-.1211.23437-.07812.25-.02734.25781.02734.25782.07813.2539.12109.23438.16016.21094.1953.17578.21876.13671.24219.08985.2539.03125.2539-.03125.2422-.08985.21875-.13671.1953-.17579.16017-.21093.12109-.23438.07812-.2539.02735-.25782.78515-.04687-.03125.3711-.08984.37109-.16016.35937-.22265.32813-.28906.28515-.17188.11719-.1875.10156-.20313.08203-.22656.0625-.24219.03907-.2578.01171-.28516-.01562-.25782-.04688-.23828-.07421-.21484-.10547-.19531-.13281-.17579-.15625-.15234-.1797-.13672-.20312-.11719-.22265-.09765-.2422-.14844-.53124-.08203-.59375-.02734-.64063.03906-.74609.11328-.66016.1875-.57812.11719-.25781.13672-.23047.15625-.20703.16796-.1797.1875-.15624.20313-.1289.21875-.10157.23047-.07422.2461-.04297.26562-.01562.36328.03125.33203.09765.29688.15235.2539.19922.21485.23828.16406.27734.11719.30078.0625.32031"/><path fill="#ffffe0" fill-rule="evenodd" d="M185.28906 330.28906h22.1836v-10.1914h-22.1836v10.1914"/><path fill-rule="evenodd" d="M188.78906 321.92969h.51172v6.29687h-.78906v-4.48828H187.125v-.5586l.5586-.0625.2539-.05468.22656-.08984.20313-.14063.17578-.21094.14062-.29296.10547-.39844m4.8164 0l.22657.01953.21875.0586.21094.08593.19531.1211.1836.15234.17187.17578.30078.41797.24219.49219.17969.54687.11328.58203.03906.58985-.03906.59375-.11328.58203-.1797.55468-.24218.50391-.30078.42578-.17188.17969-.18359.15234-.19531.125-.21094.09375-.21875.05469-.22656.01953-.23047-.01953-.21875-.05469-.20703-.09375-.19922-.125-.1836-.15234-.17187-.17969-.30078-.42578-.24219-.5039-.17969-.5547-.11328-.58202-.03906-.59375h.83594l.02734.5625.08203.5078.125.44141.16407.375.1914.30079.21094.21875.22266.13671.22656.04688.22266-.04688.22265-.13671.21094-.21875.1914-.30079.16407-.375.125-.4414.08203-.50781.02734-.5625-.02734-.5625-.08203-.5-.125-.4336-.16406-.36719-.19141-.29296-.21094-.21485-.22266-.1289-.22265-.04688-.22656.04688-.22266.1289-.21094.21485-.1914.29296-.16407.3672-.125.43358-.08203.5-.02734.5625h-.83594l.03906-.58984.11328-.58203.1797-.54688.24218-.49218.30078-.41797.17188-.17578.18359-.15235.19922-.12109.20703-.08594.21875-.0586.23047-.01952m5.08984 0h.50781v6.29687h-.78515v-4.48828h-1.39063v-.5586l.5625-.0625.25-.05468.23047-.08984.20313-.14063.17578-.21094.14062-.29296.10547-.39844m6.80469 1.6211h-.78906l-.05078-.21095-.08203-.1875-.10547-.15625-.12891-.1328-.14844-.10157-.16015-.07422-.16797-.04688-.17188-.01562-.32812.04297-.28906.11719-.2461.1953-.20312.26954-.16016.33984-.11719.40235-.07031.46875-.02344.52344.1914-.19922.1836-.16016.1875-.1211.1836-.08984.1875-.0625.1953-.03515.39845-.02344.30859.03125.32031.08984.3164.15625.29298.21875.25781.28516.19922.35156.07031.19922.05469.21875.02734.23438.0039.25-.78515.04687-.02734-.25781-.07813-.2539-.12109-.23438-.16016-.20704-.1953-.17968-.21876-.13672-.24219-.08985-.2539-.03125-.2539.03125-.2422.08985-.21875.13672-.1914.17969-.16406.20703-.1211.23437-.07812.2539-.02735.25782.02735.25781.07812.25.1211.23828.16406.20704.1914.17968.21875.13672.2422.08594.2539.03125.2539-.03125.2422-.08594.21874-.13672.19531-.17969.16016-.20703.1211-.23828.07812-.25.02734-.25781.78516-.04688-.03125.3711-.08984.3711-.16016.35937-.22266.32812-.28906.28125-.16797.1211-.1914.10156-.20313.08203-.22656.0625-.23828.03906-.26172.01172-.28125-.01562-.26172-.04688-.23828-.07812-.21485-.10157-.1953-.1328-.17188-.15626-.15625-.17969-.13672-.20312-.11328-.22266-.10157-.24219-.14453-.53515-.08594-.59375-.02734-.64063.03906-.74218.11328-.66407.1875-.57812.1211-.2539.13672-.23048.15234-.20703.17188-.17969.18359-.15625.20313-.1289.21875-.10156.23046-.07422.25-.04688.26172-.01562.36328.03515.33203.09766.29688.14844.25781.19922.21094.24218.16406.27344.11719.30469.0625.32031"/></g></defs><use xlink:href="#aj"/></svg>