<svg xmlns="http://www.w3.org/2000/svg" role="img" xmlns:xlink="http://www.w3.org/1999/xlink" viewBox="142.45 309.95 326.84 171.84"><defs><clipPath id="a"><path d="M144 311.67188h1v168.65625h-1zm0 0"/></clipPath><clipPath id="b"><path d="M144 311.67188h324v168.65625H144zm0 0"/></clipPath><clipPath id="c"><path d="M388 477h8v3.32813h-8zm0 0"/></clipPath><clipPath id="d"><path d="M415 478h12v2.32813h-12zm0 0"/></clipPath><clipPath id="e"><path d="M433 477h7v3.32813h-7zm0 0"/></clipPath><clipPath id="f"><path d="M467 459h1v21.32813h-1zm0 0"/></clipPath><clipPath id="g"><path d="M467 311.67188h1V457h-1zm0 0"/></clipPath><clipPath id="h"><path d="M144 479h4v1.32813h-4zm0 0"/></clipPath><clipPath id="i"><path d="M147 479h3v1.32813h-3zm0 0"/></clipPath><clipPath id="j"><path d="M153 478h8v2.32813h-8zm0 0"/></clipPath><clipPath id="k"><path d="M160 478h3v2.32813h-3zm0 0"/></clipPath><clipPath id="l"><path d="M167 478h8v2.32813h-8zm0 0"/></clipPath><clipPath id="m"><path d="M173 478h4v2.32813h-4zm0 0"/></clipPath><clipPath id="n"><path d="M180 478h8v2.32813h-8zm0 0"/></clipPath><clipPath id="o"><path d="M186 478h4v2.32813h-4zm0 0"/></clipPath><clipPath id="p"><path d="M193 478h8v2.32813h-8zm0 0"/></clipPath><clipPath id="q"><path d="M200 478h3v2.32813h-3zm0 0"/></clipPath><clipPath id="r"><path d="M207 478h8v2.32813h-8zm0 0"/></clipPath><clipPath id="s"><path d="M213 478h3v2.32813h-3zm0 0"/></clipPath><clipPath id="t"><path d="M220 479h8v1.32813h-8zm0 0"/></clipPath><clipPath id="u"><path d="M227 479h3v1.32813h-3zm0 0"/></clipPath><clipPath id="v"><path d="M233 479h8v1.32813h-8zm0 0"/></clipPath><clipPath id="w"><path d="M239 479h2v1.32813h-2zm0 0"/></clipPath><clipPath id="x"><path d="M246 479h9v1.32813h-9zm0 0"/></clipPath><clipPath id="y"><path d="M252 479h2v1.32813h-2zm0 0"/></clipPath><clipPath id="z"><path d="M260 478h8v2.32813h-8zm0 0"/></clipPath><clipPath id="A"><path d="M265 478h3v2.32813h-3zm0 0"/></clipPath><clipPath id="B"><path d="M274 477h6v3.32813h-6zm0 0"/></clipPath><clipPath id="C"><path d="M288 476h4v4.32813h-4zm0 0"/></clipPath><clipPath id="D"><path d="M301 477h5v3.32813h-5zm0 0"/></clipPath><clipPath id="E"><path d="M313 479h8v1.32813h-8zm0 0"/></clipPath><clipPath id="F"><path d="M319 479h2v1.32813h-2zm0 0"/></clipPath><clipPath id="G"><path d="M328 476h4v4.32813h-4zm0 0"/></clipPath><clipPath id="H"><path d="M342 476h3v4.32813h-3zm0 0"/></clipPath><clipPath id="I"><path d="M353 478h8v2.32813h-8zm0 0"/></clipPath><clipPath id="J"><path d="M368 477h5v3.32813h-5zm0 0"/></clipPath><clipPath id="K"><path d="M381 477h6v3.32813h-6zm0 0"/></clipPath><clipPath id="L"><path d="M393 478h8v2.32813h-8zm0 0"/></clipPath><clipPath id="M"><path d="M391 480h4v.32813h-4zm0 0"/></clipPath><clipPath id="N"><path d="M406 479h9v1.32813h-9zm0 0"/></clipPath><clipPath id="O"><path d="M406 479h3v1.32813h-3zm0 0"/></clipPath><clipPath id="P"><path d="M421 476h5v4.32813h-5zm0 0"/></clipPath><clipPath id="Q"><path d="M433 479h8v1.32813h-8zm0 0"/></clipPath><clipPath id="R"><path d="M440 479h3v1.32813h-3zm0 0"/></clipPath><clipPath id="S"><path d="M446 478h8v2.32813h-8zm0 0"/></clipPath><clipPath id="T"><path d="M453 478h3v2.32813h-3zm0 0"/></clipPath><clipPath id="U"><path d="M460 478h8v2.32813h-8zm0 0"/></clipPath><clipPath id="V"><path d="M466 478h2v2.32813h-2zm0 0"/></clipPath><clipPath id="W"><path d="M144 465h4v4h-4zm0 0"/></clipPath><clipPath id="X"><path d="M466 465h2v3h-2zm0 0"/></clipPath><clipPath id="Y"><path d="M144 453h4v2h-4zm0 0"/></clipPath><clipPath id="Z"><path d="M466 452h2v3h-2zm0 0"/></clipPath><clipPath id="aa"><path d="M144 439h4v2h-4zm0 0"/></clipPath><clipPath id="ab"><path d="M144 426h4v2h-4zm0 0"/></clipPath><clipPath id="ac"><path d="M465 424h3v2h-3zm0 0"/></clipPath><clipPath id="ad"><path d="M144 413h4v2h-4zm0 0"/></clipPath><clipPath id="ae"><path d="M466 411h2v2h-2zm0 0"/></clipPath><clipPath id="af"><path d="M144 399h4v3h-4zm0 0"/></clipPath><clipPath id="ag"><path d="M466 398h2v2h-2zm0 0"/></clipPath><clipPath id="ah"><path d="M465 398h3v3h-3zm0 0"/></clipPath><clipPath id="ai"><path d="M144 386h4v2h-4zm0 0"/></clipPath><clipPath id="aj"><path d="M466 385h2v2h-2zm0 0"/></clipPath><clipPath id="ak"><path d="M465 385h3v3h-3zm0 0"/></clipPath><clipPath id="al"><path d="M144 373h4v2h-4zm0 0"/></clipPath><clipPath id="am"><path d="M466 371h2v3h-2zm0 0"/></clipPath><clipPath id="an"><path d="M144 359h4v3h-4zm0 0"/></clipPath><clipPath id="ao"><path d="M466 358h2v2h-2zm0 0"/></clipPath><clipPath id="ap"><path d="M144 346h4v2h-4zm0 0"/></clipPath><clipPath id="aq"><path d="M466 345h2v2h-2zm0 0"/></clipPath><clipPath id="ar"><path d="M144 332h4v4h-4zm0 0"/></clipPath><clipPath id="as"><path d="M466 331h2v3h-2zm0 0"/></clipPath><clipPath id="at"><path d="M465 332h3v3h-3zm0 0"/></clipPath><clipPath id="au"><path d="M144 319h4v3h-4zm0 0"/></clipPath><clipPath id="av"><path d="M465 317h3v3h-3zm0 0"/></clipPath><clipPath id="aw"><path d="M175 470h9v10.32813h-9zm0 0"/></clipPath><g id="ax" clip-path="url(#clip1)"><path fill="#fff" fill-opacity="0" fill-rule="evenodd" d="M0 0h1000v1000H0zm0 0"/><path fill="#d3d3d3" fill-opacity="0" fill-rule="evenodd" d="M162.15234 355.86719l-.23437.29297.0586.23437.11718.17188.17578.23437.29297.34766.11328.0586.11719-.17188.0586-.23438.17577-.17578.46485-.17578h.69922l.23437.29297.28906.8164.0586.17579.17578.23046.35156.23438.69922.69922.17188.17578.23437.34765.23438.41016.28906.58203.41015.46485.23047.23437.23438.17578.11719.23047.17578.29297.17187 1.16406v.23438l.0586.28906.05859.11719.11719.11719.34765.41015.11719.17188.17578.17578.17578.23437.11719.17188.17188.35156.05859.23438.23437.40625.23438-.0586-.17578.17578-.0586.92969h-.58203l-.23437-.11328-.34766.11328-.11719.11719-.05859.29297-.0586.17578-.11718.17187-.46484.29297-.0586.23438-.0586.11328v.64453l.0586.17187v.41016l.0586.0586v.40624l.05859.40625.11719.17579.05859.05859.23047.64062-.0586.29297v.69922l-.05859.58203v.23438l-.0586.23047-.05468.35156v1.92187l.05469.1172h.42578l-.36719.11718-.02344.35156.89063 1.16797 1.74219.53906 1.33984.35938v.53906l.08984.8086.53516.71484 1.51953.26953.89063-.08594.08984 1.16406.53516.1797 1.16015-.1797 2.05469-.98437 1.16016-.36328 1.8789-.17578 1.69531-.1797-.17968.71876-1.51563.08594-1.25.08984-.80469.26953-1.07421.8086.26953.71875.53515.89843-.17968.625-.26563.8086.26563 1.07812.625.89844.80468.17969 1.25-.1797-.26562.72267.09766.5039.05468.29297v.17188l.0586.29296v.40625l.17578.1172.35156.11718h.40625l.29297-.17578.11328-.11719.0586-.11719.11718-.23047.0586-.17578.35156-.46484.23047-.17578.17578-.0586.17578.0586.0586.17578.11718.98828.05469.46875.0586.17188.11718.23437.17578.0586.8164.05859h.28907l.11719.23437.05859.40625.0586.35156v1.10547l.11718.29297.11719.34766.28906.69922.17578.35156.58203.7539.35157.17579.17187.0586.46875.23437.64063.46484.34765.23438.29297.17578.29297.05468.23047.0625.8164.34766.29297.17578.11328.17188.35157.35156.11719.17578.52343.64063v.28906l.0586.35156v.34766l.05859.35156.0586.28906.11718.0586.17188.05859h.17578l.58203.23437.17578.1172.17578.28905.17578.23438.11328.23437.29297.23047.11719.11719v.41016l.0586.05468.28906.23438.23437.11719.0586.11718.11718.17188.0586.11719.23047.23437.05859.17578.23437.0586.1172.05859-.1172.11328-.05859.11719v.11719l-.11719.29296-.11719.28907v.58203l.17579.11719.11718.05859.0586.11719.11719.11719.11328.05859.17578.34765.0586.35157.05858.40625v.17578l-.05859.17578-.11719.69922v.17187l.1172.17579.29296.29296h.40625l.17578.1172.11719.17187.11719.29296v.23438h-.52735l-.23047-.23438h-.23437l-.17578.0586-.0586.69922.0586.34765.11719.17579.17578.41015.11718.23047.28907.46875.17578.05469h.52344l.23437.0586.75781.64062.0586.29296v.23438l.05859.0586.23047.34765v.35156l-.11719.17188v.29297l.29297.28906.29297.17578.17187.0586.29297.17577.29297.1172.58203.40624.28906.23438.29297.17578.21875.16015.01563.01172.23047.17579.64062.52343.17578.23438.1172.17578.17577.17578.11328.17188v.64062l.1172.17578.46874.11719.58203.11719.23438.05859.23047.11328.29297.11719.11328.0586.58593.35156.28907.17187.17578.0625.17578.05469.17578.0586.69922.35155.28906.17579.23438.05468.28906.17578.23437.1172.64063.40624.29297.11719.17187.0586.23438.05859.41015.05859.23047.0586.23438.11718.0586.17188-.41017.17578.46875.0586.0586.29296.11328.23438.17578.05468.23438.0586.17578.05859.40625.11719.64062.23437.11719.17188.0586.23437v.17578l-.0586.1172-.0586.40624.23438.23438.11719.05859.34766.11719.64062.23047.17578.11718.28906.1172.17578.17577.23438.46485.58203 1.10546.17578.17579.34766.17578.17578.11719.35156.11718 1.04688.52344.23437.0586.46485.11327.29297.0586.46484.17578.75781.58203.23438.23438.34765.46484.17578.17578.28907.23438.8164.69921.29297.17579.28906.28906.29297.17578.29297.28906.69531.64063.17578.17578.29297.23437.28907.23438.46875.28906.64062.58203.34766.23438.23437.29297.34766.34765.35156.46485.9336.99218.34765.40625.11719.17579.23437.05859.11328.11719.64454.17578.23047.11328.23437.0586.29297.17577.23047.1172.9336.69921.40624.40625.23438.17578.40625.17578.23437.11719.8164.34766.34766.23437.23438.11719.29297.28906.23047.11719.7578.35156.35157.17188.23047.05859.29297.11719.23437.0586.8711.17577h.8164l.46875.23047.17188.0586.875.69921.46484.1172.29297.05858.17578.0586.23047.0586.46875.05859.34766.05859.35156.0586.40625.05859h.29297l.17187.0586v.23046l.17578.17578h.29297l.34766.0586.35156.05859.69922.11719h.64063l.46484-.23438.29297-.17578.17187-.11719.41016-.17187.28906-.17578.9336-.46485.46875-.29297.52343-.29296.46485-.17188.46484-.17578 1.05078-.46485.28906-.11718.41016-.11719.28906-.11719.52735-.17578 1.51562-.69922.58203-.34765.28907-.0586.29297-.0586.34765-.11718.875-.23047.35156-.11719h.11329l.23437-.05859.875-.23437.23438-.0586h.8125l.35156-.0586.8164-.11718.17188-.0586.35156-.05468.29297-.0586.23047-.05859.8164-.17578.17579-.0586h.34765l.23438-.05859.46484-.11718.75781-.17188.23438-.0586h.34765l.41016-.11718.28906-.0586 1.28516-.05859h.28906l.41016-.0586.23047-.05858h.17578l.875-.1172h.40625l.41015-.11718h.34766l.35156-.11328.8711-.0586h1.75l1.04687.28907.41016.11719.28906.11718.35156.11719.28907.11719 1.05078.17187.28906.0586h.29297l.29297.05859.17187.0586.41016.05859.17187.0586.1172.05858h.11718l.11719.0586.35156.0586h.11328l.41016.0664 1.92187.39453 1.92578.39453 1.51953.44922 1.69532.71875 2.14453.80469 1.60547-.71875 1.42968-.80469 1.16016-1.07813 1.25-.44921 3.03516-.71875 1.875-.35938 2.14453-1.34765 2.23437-1.25391 2.5-1.25781 1.69531-.44922 1.78516-.17969 1.16016-.26953.625.53906 1.33984-.26953.71485-.98828.98437-1.34375.44531-.17969.80469-.35937 1.875-.53907 1.78516-.44921 1.25-.26954 1.16015-.08984 1.69922-.08984 1.96094-.26954 1.25-.08984h.53906l.625-.08984h.89063l2.14453-.17969 2.41015-.17969 2.58985-.08984 1.69531.17969 1.60938.08984 1.42968.35938 1.16016.71875 1.875.98828 1.16015 1.52734.26563.71484.6289.08985.35548.89844.53515.53906.53516 1.52734 1.07422.35938h.53515l-.80469.53515.08985 1.70703.71484 2.69532.89063.80468.89453.98829.71484 1.2578 1.78516.53907 1.51953-.17969.35547 1.34375 1.60937-.80469.98047-.53906.26953.26953.31641-.21484.21875-.14453.80078.44922.44922-.35938h.35547l.53515-.26953.53907-.71875.53515-.26953.625-.98828 1.16016.44922.83984.3711 1.39454.61718 1.6953-.17969h1.60548l1.78515.08985.17969-1.70704.53516-1.34375.80468.26954.4922.84765.40233.40625-.08984.53906v.35938l.71485.44922.71093-.26953h1.42969l.35938.98828.4453 1.25781.71485 1.34375 1.25.6289 1.69531.62891.71485-.17969.17969-.53906.98046-.08984.44922.35937.08594 1.25782-.26563.6289-.53515.17969v.53906l.71484.98438.26563.53906.98437.98828.80078 1.07813-.26562.35937-.08985.89844-.625 2.33203-.35546 2.0664-.08985 1.79298-.17969.71875-.08984.53906v1.4375l-.98047 1.88281-.35937 1.70703-.53516.89844-.80469 1.16797-.26562.53906 2.05469 1.2539.08593.35938-.35546.53906-.08985-.17968v.80859l.08985 1.4375-.44532.71484-1.07422.09375-.26562.71485.53515.89844.8047.71875 1.16015.80859 1.33984.26953.44531.35938-.35546.44921-1.78907-.08984-1.25-.44922-.71484-.71875-.625-.08984-.17578 3.58984-.1875 1.3086h89.35937V311.70313h-55.26953v49.08203l.76172.125 3.28906.54296 2.02344 2.83594v2.7539l2.35156.33204 2.34766.33203h4.05078l-1.3789 4.16016-2.02344.70703-2.02344.70312-.54297.34375-2.59375 1.6172-.1875.11718-2.02344-2.07813-.73046-2.74218-2.67188-2.07813-1.375-3.5-.0664-.08203-1.95704-2.67188 2.75-1.41796v-49.08204H294.42187v91.41407l.1172.03125.1328.01172.07422.07421.10547.04688.08985.0586.08593.05859.08985.0586.29687.29687.0586.08984.03125.11719.02734.11719.01563.13671-.03125.1172-.0586.08983-.0586.08594-.04296.10547-.04688.10156-.02734.1211v.14453l.17578.26953.14844.14844.07422.08594.07422.07421.04296.10547.0625.08985.0586.08593.04297.10547.0586.08985.04687.10156.04296.10547.0586.08594.11719.17968.07421.07422.0625.08594.0586.08984.04297.10547.0586.08985.05858.08593.0625.08985.0586.08984.04297.10156.11719.17969.07421.07422.0586.08594.07422.07421.08984.0586.10547.04687h.14844l.1328-.01562.13282.01562.10156-.04687.07422-.07422.04688-.10156-.01563-.13281v-.14844l-.04687-.10547-.02735-.11719-.04687-.10156-.02735-.1211-.04296-.10156-.0625-.08984-.04297-.10156-.04297-.10547-.03125-.11719-.01563-.13281-.01171-.13672.08593-.0586.0586-.08593.12109-.03125.04297.10547.01562.1328v.1172l.0586.10156.0586.08984.08983.0586.14844.14843.0586.08985.04296.10547-.01171.10156.08593.0586.10547.04687.08594.0586.08984.05858.07422.07422-.11719.02735-.10546.04687-.08594.0586-.07422.07421-.0586.08985-.0625.08594-.02734.12109-.04687.10156-.04297.10547-.03125.11719-.01172.13281-.01563.13281v.14844l.02735.11719.04687.10547.04297.10156.0586.08984.07421.07422.08985.0586.07422.07421.08984.0586.0586.08984.04296.10547.04688.10156.11719.03125.1328.01563h.14845l.11718-.03125.10547.04297.04297.10547.04688.10156.02734.1211L299.5 410l.02734.11719.03125.1211.02735.11718.10547.04297.10156.04687.13281-.01562.14844.14844.0625.08593.07422.07422.07031.07422.08984.0625.10547.04297.10156.04297.1172.03125.13671.01562.11719-.03125.07422-.07422.02734-.11718-.01172-.13282-.03125-.12109-.02734-.11719.04297-.10547h.11719l.08984.0625.11719.02735h.14843l.13282.01562h.14843l.13282.01563.1328-.01563h.14845l.1328-.01562.13282-.01172.13672.01172.11719-.02735.13281-.01562.1914-.0586-.05859.17579-.01562.1328-.02735.1211-.01562.13281-.0586.08594-.1328.01563-.10548.04687-.10546.04297-.1172.03125-.11718.02735-.26563.03125h-.14843l-.13281.01562-.07422.07422.05859.08594.14844.14843.11719.1797.07421.0703.08985.0625.08984.0586.08594.0586.08984.05858.10156.04297.10547.0625.10547.04297.08594.0586.10547.04687.10156.04297.17969.11719.0586.08984-.04298.10156-.04687.10547.01562.13281.22266.22266.0586.08985.04296.10156.03125.1211.04297.10155.01563.13282.03125.11718.01171.13672.03125.11719.14844.14844.10156.04297.10547.04296.1172.03125.1328.01563.13672.01563h.11719l.11719-.03125.08984-.0586.04297-.10547.04688-.10156.04296-.10547.03125-.11719.01172-.1328v-.14845l-.01172-.1328-.01562-.13282-.03125-.11719-.04297-.10547-.04688-.10547-.04296-.10156-.04297-.10547-.01563-.13281.01563-.13281.02734-.11719.03125-.11719.02735-.1211.04687-.10155.08984-.0586.08594-.0625.07422-.07422.08984-.05859.22266-.22266.0586-.08593.07421-.07422.11719-.17969.0586-.08594v-.14844l-.07423-.07421-.10156-.04688-.10547-.04297-.10156-.04297-.0586-.08984-.04687-.10547-.02734-.11719.08984-.05859.11719-.03125.10156-.04297.17969-.11719.14844-.14843.01172-.13282-.01172-.10546-.08985-.0586-.1328.01563h-.14845l-.1328.01562-.13282-.01562-.1211-.03125-.08593-.0586-.07422-.07422-.0586-.08984-.0625-.08594-.11718-.17969-.0586-.08593.03125-.1211.08594-.05859.1211-.03125.05859-.08594v-.1211l-.03125-.11718-.0586-.08984-.05859-.08594-.04687-.10547-.02735-.11719-.01562-.1328.0586-.08985.07421-.07422.08984-.0586.1172-.17968.07421-.07422.0586-.08594.14843-.14844.1211-.03125.1328-.01562.13282.01562.07422.07422.04297.10547.01562.13281-.03125.1172-.11719.03124-.1328.01172-.14844.14844-.04297.10547-.04688.10156-.02734.1211-.03125.11718v.14844l.03125.11719.04297.10546.05859.08985.07422.07031.07422.07422.11719.03125.12109.02734.11719-.02734.1328-.01563h.1172l.08984.0586.07422.07422.04687.10546.0586.08594.10156.04688.13281.01562.10547.04297.08594.0586-.01172.10546-.07422.07422-.17969.11719-.05859.08984-.08984.0586-.07032.07422-.07421.07421-.0625.08985-.02735.11719-.01562.1328.01562.13282-.01562.13281v.14844l.01562.13281.02735.1172.03125.12108.07421.07422.08985.0586.08594.0586.08984.05858.11719.03125v.08594l-.10157.04688-.08984.0586-.26563.03124-.11718.02735h-.14844l-.10547.04296-.10156.04688-.0586.08984-.0625.23438-.01171.13281-.03125.1211-.01563.1328v.29298l-.01172.1328.01172.13673.01563.1328.1328.01563.13282.01172.1211.03125.08593.0586.07422.07421.04688.10547.04296.10157.01563.1328v.44532l-.01563.13281v.44532l.03125.26562.02735.11719.01562.13281.03125.11719.08594.21094.03125.26562v.14844l-.03125.11719-.02734.11718-.03125.1211-.02735.11719-.03125.11718-.03125.1211-.01171.1328-.01563.13282.08984.0586.1172-.03125.10155.01562.04688.10547-.03125.26562v.44141l-.04297.10547-.04688.10547-.04296.10156-.04297.10547-.0586.08594-.03125.12109-.04296.11719-.03125.11719-.01563.1328.01563.13282.05859.08984.10547.04688.08594.0586.05859.08593-.01172.13672-.03125.11719-.04297.10156v.44531l-.01562.13281v.14844l-.03125.11719-.04297.10547-.02735.11719-.04687.10546-.04297.10157-.03125.12109-.02734.11719-.03125.13281-.03125.11719-.02735.11719-.04297.10546-.03125.1172-.03125.12108-.01171.13282-.01563.13281v.29688l.02734.11718v.14844l.04688.39844.02734.11719.0586.08984.12109.03125h.14844l.13281-.01563.0586.08985v.11719l-.0586.08984-.08984.0586-.10157.04296-.10546.04688-.08985.05859-.08594.0586-.13671.01562-.1172-.03125-.1328-.01563-.10157.04688-.0625.08594-.01172.13671-.01562.13282-.03125.11719-.02735.11718-.01562.13281-.03125.1211v.29687l.01563.13282.03125.11718v.14844l.01171.13281v.14844l-.02734.11719-.04688.10156-.02734.1211-.03125.11718-.0586.08985-.07421.07421-.10156.04297-.10547.04688-.11719.02734-.1211.03125-.10156-.04687.0586-.08594.10547-.04688.02734-.11718.03125-.11719.02734-.1211.03125-.11718v-.14844l.01563-.13281-.03125-.11719-.04297-.10547-.10547.01563-.07422.07422-.10156.04296-.08984.0625-.07422.07422-.04297.10157-.01563.1328-.03125.1172L304.25 426l-.03125.11719-.02734.11719-.03125.12109-.02735.11719-.03125.11718-.04297.10547-.08984.0586h-.08984l-.1172-.03125-.03124-.08594.01562-.13672-.03125-.11719v-.14844l-.01171-.1328v-.14844l-.0625-.23438-.02735-.1211-.04297-.10156-.04687-.10546-.0586-.08594-.05859-.08985-.04297-.10546-.0625-.08594-.14844-.14844-.0703-.07422-.10548-.04687-.10547-.04297-.10156-.04297-.29687-.29688-.08985-.07421-.08594-.0586-.10546-.04297-.08985-.0625-.08594-.0586-.10546-.04296-.08985-.0586-.08594-.0625-.07421-.0703-.10547-.04688-.08594-.0586-.10547-.04296-.08984-.0625-.10156-.04297-.10547-.04297-.08594-.0586-.10547-.04687-.10547-.04297-.10156-.04687-.08985-.0586-.10156-.04297-.10547-.04296-.08984-.0625-.11719-.02735-.13281-.01562-.13281.01562H299.75l-.13281.01563-.11719-.03125-.08984-.0586-.07422-.07422-.08985-.05859-.10156-.04688h-.14844l-.12109-.02734-.10156-.04297-.07422-.07422-.11719-.17968-.08984-.0586-.10156-.04297-.08985-.0625-.10547-.04296-.08984-.0586-.08594-.0586-.10547-.04687-.0586-.08594-.05858-.08984-.04297-.10547-.04688-.10156-.07422-.07422-.08594-.0586-.07421-.07421-.08985-.0586-.22265-.22265-.04297-.10547-.03125-.26563.10547-.04296h.14453l.10547.04296.07421.07422.08985.0586.08594.0586.10546.04687.08985.05859.14844.14844.0703.07422.14845.14843.0625.08594.07421.07422.08594.0586.07422.07421.08985.0625.08984.0586.08594.05859.26953.17578.10156.04688.10547.04296.10156.04297.04688-.07421.05859-.08594.07422-.07422.07031-.07422.10547.04297.07422.07422.0586.08984.04296.10156.04688.10547.04296.10547.1211.02735.11719-.02735.07421-.08984.04297-.10547.0586-.08985.07422-.07421.10546-.04297.1172-.02735.1328.01172.08985.0586.14844.14843.05859.08985.04297.10547.04687.10156.04297.10547.04297.10156.10547.04688.10547.04296.13281.01563.08594-.0586.0586-.08984.07421-.07422.10547-.04297.11719.02735.10547.04687.10156.04297.10547.04297.10156.04688.17969.11718v.11719l-.01563.13281.01563.13281.01562.13672.0586.08594.10156.04688.1211.02734.11718.03125h.14844l.11719-.03125.05859-.08984.17969-.1172.05859-.08983.07422-.07422.0586-.08594.11718-.17969.17969-.11719.11719.03125.08984.0586.04297.07422-.01563.1328v.1172l.08985.05859h.14843l.13282-.01563.1328-.01171.26563-.03125.10547-.04297.11719-.03125.1211-.02735.07421-.07421.07031-.07422.0625-.08985-.01562-.10547-.04688-.10156-.10156-.04297-.10547-.01562-.11718.02734-.26563.03125h-.14844l-.07421-.07422-.08985-.0586-.11719-.03124-.11718-.02735-.13282-.01562h-.14843l-.13282.01563h-.29687l-.10547-.04688-.14844-.14844-.04297-.10156-.05859-.08984.22266-.22266.08593-.0586.10547-.04296.11719-.03125.13281-.01563.13281.01563.13672.01562.10157.04297.1328-.01172.08985-.0625.10156-.04297.0625-.08984-.04687-.10156-.08984-.0586-.1172-.03125-.10155-.04296-.0586-.08985-.0625-.08984v-.11719l.01563-.13281.10547-.04688.07421-.07031v-.1211l-.08984-.05859-.03125-.11719.08985-.05859.07421-.07422.04297-.10547.0586-.08984.04687-.10156.01563-.13281v-.14844l-.04688-.10547-.04297-.10156-.08984-.0586-.13281-.01562-.10157-.04297-.13671-.01563-.1172-.03125h-.4453l-.13282-.01562-.13281-.01172-.13281-.01563-.11719-.03125h-.14844l-.13281-.01562-.13281-.01172-.26563-.03125-.1211-.04297-.08593-.0586-.07422-.07421v-.14844l.01172-.13281.10547-.04688.10156-.04296.13281-.01563h.15235l.13281-.01562h.29297l.1211.03125.10156.04296.08984.0586.23438.0625.12109-.04688.08984-.05859.10156-.04297.13282-.01562.10547.04296.10156.04688.13281.01172.1211-.02735h.14453l.12109-.03125.11719-.02734.10547-.04687.07421-.07422.08594-.0586.14844-.14843.0586-.08594.04687-.10547.02734-.11719.01563-.10547-.10156-.04296-.08985-.0586-.11719-.03125-.10546-.04297-.08985-.0625-.07422-.08594-.07422-.07421-.10156-.04297-.10547-.04688-.10156-.04297-.0586-.08984-.04687-.10156-.08594-.21094-.0625-.08594-.05859-.08984-.07422-.07422-.08594-.0586h-.26953l-.11719.03126-.08984.05859-.10156.04297-.13281.01562-.10547-.01562-.02735-.11719-.0625-.08984-.11718-.03125-.10157-.04297-.14843-.14844-.03125-.11719-.01563-.10546.07422-.07422.17969-.1172.11719-.02733.11718-.03125.13672.01562.10156.04297.10547.04297.10156.04687.10547.04297.1172.03125.1328.01563.1172.02734.1328.01563.10547-.01563.08985-.0586-.07422-.07421-.10547-.04297-.07422-.07422-.07422-.08984-.14844-.14844-.08593-.0586-.08985-.05859-.07422-.07422-.08984-.0586-.10156-.04687-.1211-.02734-.10156-.04688-.10547-.04296-.11719-.03125-.10156-.04297-.1211-.03125h-.14843l-.11719.03125-.10546.04297-.08594.0625-.17969.11718-.08594.0586-.08984.0586-.10547.04687-.08594.05859-.10547.04297-.10156.04297-.10547.04687-.07422.07422-.05859.08985-.0586.08593-.04687.10547-.0586.08594-.07421.07422-.13281-.01172-.1172-.03125h-.11718l-.07422.07422-.08984.0586-.07422.07421-.08984.0586-.08594.05859-.10547.04687-.10156.04297-.13672.01563-.10156-.04297-.14844-.14844-.10547-.04688h-.08594l-.10547.04688-.10156.04297-.1211.03125-.11718-.03125-.07422-.07422v-.11719l.03125-.1211.07422-.0703.0586-.08985.07421-.07422.11719-.03125.10547-.04296h.29297l.13281-.01563.13672-.01563.10156-.04296.08985-.0586.10156-.04687.08984-.0586.13281-.01171.08985.05859.13281.01172.08984-.0586.08594-.05859.10547-.04297.08984-.0586.08594-.0625.08985-.05859.14843-.14843.0586-.08594.05859-.08985.10547-.04296.13281-.01563.11719.02735.1211.03125.05859-.0586.05859-.08984.03125-.26563.02734-.11719.10547.01172.13281.01563.10157-.04297.08984-.0586.0586-.08984.07421-.07422.0586-.08984.04687-.10156.01172-.13281-.01172-.13282-.04687-.10547-.14844-.14843-.0586-.08985-.05859-.08594-.04297-.10546v-.44532l.01563-.1328v-.14845l.01172-.1328-.0586-.0586-.08984.0586-.10156-.04298-.17969-.11719-.08594-.05859-.0625-.08984-.0586-.08985-.07421-.07421-.08594-.0586-.1211.03125-.10155.01172-.10547.04688-.08594.05859-.10547.04297-.14844.14844-.08984.05859-.08594.0586-.08984.0625-.10547.04296-.13281.01563v-.1211l.10547-.04297.11718-.03125.07422-.0703.04297-.10548v-.14844l-.02734-.11718-.14844-.14844-.13281-.01563h-.14844l-.11719.03125-.10547.04297-.10156.04297-.08984.0625-.11719.02735-.07422-.07422.01172-.13281-.04297-.10157-.04297-.10547-.08984-.05859-.11719.02734-.1211.03125-.11718.03125-.10156.04297-.1211.03125-.10156.04297-.10547.04297-.08984.0586-.10156.01562v-.11719l.01562-.13281-.0586-.08985-.07421.04297-.14844.14844-.0586.08985-.07421.07421-.04688.10547-.04296.10156-.07422.07422-.0586.08985-.07422.07422-.05859.08593-.07422.07422-.08984.0625-.07422.07031-.07422.07422-.10156.01563-.13281.01562-.10547-.04296v-.1211l.14843-.14844.04297-.10156.0586-.08984.04687-.10156.04297-.10547.0586-.08985.03124-.11719.04297-.10156.03125-.1211.02735-.11718.04687-.10547.04297-.10156.04297-.10547.07422-.07031.08984-.0625.08985-.0586.10156-.04296h.29687l.26563-.03125.10547-.04297-.07422-.07422-.11719-.03125-.10547-.04297-.08984-.0586-.10156-.04687-.08985-.0586-.10156-.04296-.10547-.04297-.08984-.0625-.08594-.0586-.10547-.04296-.10156-.04297-.1211-.03125-.11718-.03125-.10157-.04297L297.5 410.25l-.10156-.04297-.08985-.0586-.04296-.10546-.01563-.13281.10156-.04297.13281-.01563.13672.01563.13282-.01563.10156-.04297.0586-.08984.01562-.10547-.08985-.0586-.07421-.07421-.10157-.04297-.08984-.0586-.14844-.14843-.04297-.10547-.01562-.13281v-.29297l-.0586-.08985-.08984-.05859-.07422-.07422-.04297-.10547-.03125-.11718-.0586-.08985-.07421-.07422-.11719-.02734-.07422-.07422-.08984-.0586-.08984-.0625-.08594-.05859-.07422-.07421-.0586-.08594-.04687-.10547-.08594-.0586-.14843-.14843-.19532-.0586-.1328.01563-.10157.04297-.07422.07422-.04688.10156-.04296.10547-.0586.08984-.0586.08594-.29687.29687-.08984.0586h-.08594l-.0625-.08594-.04297-.10547.03125-.11719.0586-.08984.02734-.11719-.01172-.13281-.08984-.0625-.10547.04688-.11719.02734-.11719.03125-.26953.17578-.10156.04688-.11719.02734-.10546.04687-.08985.0586-.10156.04297-.0586-.08594-.04687-.10547.01563-.13281.04687-.10547.07031-.07422.07422-.07031.0586-.08985v-.14843l-.04297-.10547h-.23829l-.10156.04687-.03125.11719-.02734.11719-.03125.1211-.07422.04296-.13281.01563-.07422-.04688-.04297-.10156-.04297-.10547-.04687-.10156-.04297-.10547-.1211.03125-.10156.04297-.13281.01562-.11719.03125-.10547.04297-.08984.0586-.10156.04687-.1211.02734-.13281.01563-.10156-.04297-.0586-.08985-.04687-.10546-.04297-.10157-.04297-.10546v-.1172l.0586-.08984.08593-.05859.17969-.11719.10156-.04687.10547-.04297.10547-.0586.10156-.04296.08985-.0625.10156-.04297.10547-.0586.10156-.04687.08984-.0586.10547-.04296.10156-.04297.08985-.0625.10156-.04297.13672-.01563.11719.03125.10156.04297.1211.03125.10156.04297.10546.04688.10157.04296.10547.04297.10156.04688.10547.04297.10156.04297.10547.04687.08594.0586.10546.04296.1172.03125.10546.04297.10156.04688.08985.0586.10547.04296.10156.04297.10547.04687.11719.02735.10156.04687.1211.02735h.14843l.08594-.0586.01562-.10156.0586-.08984-.02735-.1172-.07422-.07421-.11719-.17969-.07421-.07422-.08985-.07421-.17969-.1172-.08593-.05859-.10547-.04296-.10156-.04688-.26954-.17578-.05859-.08985-.07422-.07421-.0586-.08985-.04296-.10156-.03125-.11719-.01563-.13672v-.5625l-.01171-.1328-.01563-.13282-.03125-.11719-.01562-.13281-.01172-.13281-.03125-.1211-.22266-.22265-.0586-.08594-.01562-.10547.03125-.11719.13281-.01562v-91.41406H172.9922v1.45312l-.0586.23438-.35156 1.05078-.17187.52343-.1172.34766-.17577.41016-.11719.17187-.23438.29297-.23046.0586h-.35157l-.11718.05859-.23047.40625v.29297l.11719.17578.23046.23047.1172.23437.64062.75781.29297.46485.17578.23437.23047.35156.23437.34766.64063.8164.17578.46485.17187.41016.11719.69531.17578.46875.11719 1.39844.0586.46484v.875l.11718 1.04688v4.78125l-.0586.46484-.35156 1.28125-.17578.52344-.11328.41015-.35156.9297L172.93359 336l-.23437.58203-.11719.17578-.17187.34766-.17578.40625-.35157.8164-.0586.29297-.11327.29297-.11719.28906-.0586.17579-.11718.875-.0586.40625-.05859.11718-.0586.17579-.05859.17187-.23047.52734-.11718.17188v.23437l-.11719.23438-.0586.17187-.17577.58594v.28906l-.0586.17579v.29296l-.0586.11329-.05859.52734v.17187l-.05468.23438v2.6211l-.17578.8164-.1172.17578-.17577.23438-.1172.17187-.11327.23438-.58594.93359-.23047.28906-.29297.46485-.17578.23437-.28906.35156-.35156.69922-.11328.23047-.17579.41016-.17578.23046-.40625.52735-.8164.69922-.29297.17187-.28906.23438-.17579.11719-.17578.17578-.52344.40625-.52734.17578-.17187.17578-.23438.05469-.64062.17578h-.75782m12.21094 31.02344l-1.07422.44921.35938.89454 1.25-.71485.44531-.53906-.98047-.08985"/><path fill="#d3d3d3" fill-opacity="0" fill-rule="evenodd" d="M201.50781 416.59766h-.89453l.44922.6289.98047.35938.80469-.08985.4453-.98828-.17577.08985-.71485-.35547-.89453.35547m154.6211 59.0703l-.0586-.52343v-.29297l.11328-.29297.0586-.23046.46875-.46875h.11328l.11719-.11329.11718-.05859h.17579l.23437-.0586h.34766l.23437.0586.11719.0586.23047.17187.0586.17578.11718.58203v.29297l-.11719.17578-.17187.28906-.17579.17579-.52734.52343-.23047.23438-.11719.0586h-.17578l-.11718-.0586-.40625-.29297-.17579-.11719-.11718-.0586-.0586-.11327-.05468-.1172m6.64062-10.95702l-.0586-.17188v-1.10937l.0586-.17188.17578-.0586.17188-.05858h.17578l.23437-.0586.1172.0586.05858.69921-.05859.17188-.11719.17578-.11718.0586-.23438.52343-.11328.0586h-.23438l-.05859-.1172m9.61328-14.39062l-.11719-.17578v-.69922l.29297-.875.1172-.17187.17577-.35156.11328-.23047.1172-.29297.35155-.75781.1172-.23047.17187-.23438h.17578l.11719-.0586h.64062l.11719.0586.23437.23438.17188.11328.35156.29297.11719.11718.11328.17579v.11328l.11719.05859.11718.11719v.69922l-.05859.17578v.23047l-.0586.17578-.34765 1.05078-.11719.23047-.11719.23437-.11718.0586-.23047.23437-.64063.28906h-.875l-.41015-.11718-.64063-.46485"/><path fill="none" stroke="#bebebe" stroke-linecap="round" stroke-linejoin="round" stroke-miterlimit="10" stroke-width=".5" d="M467.95703 311.69531H144.02734v168.625h323.9297v-168.625"/><g clip-path="url(#a)"><path fill="#fff" fill-opacity="0" fill-rule="evenodd" d="M144 475.89063v4.4375h.0039H144V311.67188h.0039H144v164.21875"/></g><g clip-path="url(#b)"><path fill="#fff" fill-opacity="0" fill-rule="evenodd" d="M144.0039 480.32813V311.67188h17.75V451.5664l-1.58593 2.1328-.82813 4.4375 2.41407 2.71485 4.4375-2.1875 4.4375.0586 4.4375.2578 1.58593-.84374-1.58593-1.3086-4.4375.3125-4.4375.35547-2.6875-3.79687-1.75-2.13281V311.67187h93.20312v138.5547l-3.71484 3.47265 3.71484 3.58594 3.66016-3.58594-3.66016-3.47266V311.67187h119.83594v135.84766l-4.03516 1.74219-.40234.44531-2.23828 3.99219 2.23828 1.375 1.94531-1.375 2.49219-2.35938 2.05469-2.07812-2.0547-1.74219V311.67188h8.87892v142.79296l-3.64454 3.67188.08985 4.4375 3.55469 4.00781.49218.4336 3.94531 3.49218 4.10938-3.49219.15234-4.4414-.28125-4.4375-3.98046-3.64453-4.4375-.02735V311.67188h84.32421v144.72265l-1.14843 1.74219 1.14843 1.70703v20.48438h-28.375l-2.6914-2.4922-3.33594 2.4922h-7.27734l-2.69922-1.83204-4.4375-.42578-3.76563 2.25781H395.4297l-2.88281-2.98046-4.02344 2.98046H144.0039"/></g><path fill="#50fcfc" fill-rule="evenodd" d="M161.7539 460.85156l-2.41406-2.71484.82813-4.4375 1.58594-2.13281 1.75 2.1328 2.6875 3.79688 4.4375-.35546 4.4375-.3125 1.58593 1.30859-1.58593.84375-4.4375-.25781-4.4375-.0586-4.4375 2.1875m93.20312-3.5664l-3.71484-3.58594 3.71484-3.47266v1.49219l-2.11719 1.98047 2.1172 2.04297 2.08593-2.04297-2.08594-1.98047v-1.49219l3.66016 3.47266-3.66016 3.58594"/><path fill="#00e8fc" fill-rule="evenodd" d="M254.95703 455.74219l-2.11719-2.04297 2.1172-1.98047 2.08593 1.98047-2.08594 2.04297"/><path fill="#50fcfc" fill-rule="evenodd" d="M370.35547 455.07422l-2.23828-1.375 2.23828-3.99219.40234-.44531 4.03516-1.74219 2.05469 1.74219-2.0547 2.07812-2.49218 2.35938-1.94531 1.375m9.76172 7.5l-.08985-4.4375 3.64454-3.67188v1.97657l-1.6836 1.6953.17969 4.4375 1.5039 1.69532 3.125 2.7461 1.3125 1.16015 1.3672-1.16015 1.4375-4.44141-2.4297-4.4375-.375-.34375-4.4375-1.35156v-1.97657l4.4375.02735 3.98047 3.64453.28125 4.4375-.15234 4.4414-4.10938 3.4922-3.9453-3.4922-.4922-.43359-3.55468-4.00781"/><path fill="#00e8fc" fill-rule="evenodd" d="M382.16797 462.57422l-.17969-4.4375 1.6836-1.69531 4.4375 1.35156v4.15625l-.95704.625.95704.80078.375-.80078-.375-.625v-4.15625l.375.34375 2.42968 4.4375-1.4375 4.4414-1.36719 1.16016-1.3125-1.16015-3.125-2.7461-1.5039-1.69531"/><path fill="#00d4fc" fill-rule="evenodd" d="M388.10938 463.375l-.95704-.80078.95704-.625.375.625-.375.80078"/><g clip-path="url(#c)"><path fill="#50fcfc" fill-rule="evenodd" d="M388.52344 480.32813l4.02344-2.98047 2.8828 2.98046h-6.90624"/></g><g clip-path="url(#d)"><path fill="#50fcfc" fill-rule="evenodd" d="M415.41406 480.32813l3.76563-2.25782 4.4375.42578 2.69922 1.83204h-10.90235"/></g><g clip-path="url(#e)"><path fill="#50fcfc" fill-rule="evenodd" d="M433.59375 480.32813h6.02734l-2.6914-2.4922-3.33594 2.4922"/></g><path fill="#50fcfc" fill-rule="evenodd" d="M467.9961 459.84375l-1.14844-1.70703 1.14843-1.74219v3.44922"/><g clip-path="url(#f)"><path fill="#fff" fill-opacity="0" fill-rule="evenodd" d="M467.9961 480.32813H468v-20.48047 20.48046h-.0039"/></g><path fill="#50fcfc" fill-rule="evenodd" d="M467.9961 456.39453v3.44922l.0039.0039v-3.45702l-.0039.0039"/><g clip-path="url(#g)"><path fill="#fff" fill-opacity="0" fill-rule="evenodd" d="M467.9961 311.67188H468v144.71875-144.71875h-.0039"/></g><g clip-path="url(#h)"><path fill="none" stroke="#000" stroke-linecap="round" stroke-linejoin="round" stroke-miterlimit="10" stroke-width=".5" d="M147.36328 479.3164l-6.72656 2.02344"/></g><g clip-path="url(#i)"><path fill="none" stroke="#000" stroke-linecap="round" stroke-linejoin="round" stroke-miterlimit="10" stroke-width=".5" d="M147.36328 479.3164l1.73047 1.7422"/></g><g clip-path="url(#j)"><path fill="none" stroke="#000" stroke-linecap="round" stroke-linejoin="round" stroke-miterlimit="10" stroke-width=".5" d="M160.59375 479.07031l-6.5586 2.51563"/></g><g clip-path="url(#k)"><path fill="none" stroke="#000" stroke-linecap="round" stroke-linejoin="round" stroke-miterlimit="10" stroke-width=".5" d="M160.59375 479.07031l1.85156 1.60938"/></g><g clip-path="url(#l)"><path fill="none" stroke="#000" stroke-linecap="round" stroke-linejoin="round" stroke-miterlimit="10" stroke-width=".5" d="M173.89063 479.01953l-6.52344 2.61719"/></g><g clip-path="url(#m)"><path fill="none" stroke="#000" stroke-linecap="round" stroke-linejoin="round" stroke-miterlimit="10" stroke-width=".5" d="M173.89063 479.01953l1.875 1.58203"/></g><g clip-path="url(#n)"><path fill="none" stroke="#000" stroke-linecap="round" stroke-linejoin="round" stroke-miterlimit="10" stroke-width=".5" d="M187.21875 479.05469l-6.54688 2.54687"/></g><g clip-path="url(#o)"><path fill="none" stroke="#000" stroke-linecap="round" stroke-linejoin="round" stroke-miterlimit="10" stroke-width=".5" d="M187.21875 479.05469l1.85938 1.60156"/></g><g clip-path="url(#p)"><path fill="none" stroke="#000" stroke-linecap="round" stroke-linejoin="round" stroke-miterlimit="10" stroke-width=".5" d="M200.59766 479.23047l-6.67578 2.19922"/></g><g clip-path="url(#q)"><path fill="none" stroke="#000" stroke-linecap="round" stroke-linejoin="round" stroke-miterlimit="10" stroke-width=".5" d="M200.59766 479.23047l1.77343 1.69531"/></g><g clip-path="url(#r)"><path fill="none" stroke="#000" stroke-linecap="round" stroke-linejoin="round" stroke-miterlimit="10" stroke-width=".5" d="M213.89453 479.17969l-6.64062 2.30078"/></g><g clip-path="url(#s)"><path fill="none" stroke="#000" stroke-linecap="round" stroke-linejoin="round" stroke-miterlimit="10" stroke-width=".5" d="M213.89453 479.17969l1.79688 1.66797"/></g><g clip-path="url(#t)"><path fill="none" stroke="#000" stroke-linecap="round" stroke-linejoin="round" stroke-miterlimit="10" stroke-width=".5" d="M227.32422 479.58594l-6.86719 1.48437"/></g><g clip-path="url(#u)"><path fill="none" stroke="#000" stroke-linecap="round" stroke-linejoin="round" stroke-miterlimit="10" stroke-width=".5" d="M227.32422 479.58594l1.58203 1.875"/></g><g clip-path="url(#v)"><path fill="none" stroke="#000" stroke-linecap="round" stroke-linejoin="round" stroke-miterlimit="10" stroke-width=".5" d="M240.6914 479.8789l-6.96874.90235"/></g><g clip-path="url(#w)"><path fill="none" stroke="#000" stroke-linecap="round" stroke-linejoin="round" stroke-miterlimit="10" stroke-width=".5" d="M239.67578 480.00781l.71094 1"/></g><g clip-path="url(#x)"><path fill="none" stroke="#000" stroke-linecap="round" stroke-linejoin="round" stroke-miterlimit="10" stroke-width=".5" d="M253.95313 479.57813l-6.86329 1.5"/></g><g clip-path="url(#y)"><path fill="none" stroke="#000" stroke-linecap="round" stroke-linejoin="round" stroke-miterlimit="10" stroke-width=".5" d="M252.95313 479.79688l.79687.93359"/></g><g clip-path="url(#z)"><path fill="none" stroke="#000" stroke-linecap="round" stroke-linejoin="round" stroke-miterlimit="10" stroke-width=".5" d="M266.98047 478.76563l-6.28906 3.1289"/></g><g clip-path="url(#A)"><path fill="none" stroke="#000" stroke-linecap="round" stroke-linejoin="round" stroke-miterlimit="10" stroke-width=".5" d="M266.0664 479.21875l.9961.71484"/></g><g clip-path="url(#B)"><path fill="none" stroke="#000" stroke-linecap="round" stroke-linejoin="round" stroke-miterlimit="10" stroke-width=".5" d="M279.14063 477.4336l-3.98047 5.78906"/></g><path fill="none" stroke="#000" stroke-linecap="round" stroke-linejoin="round" stroke-miterlimit="10" stroke-width=".5" d="M278.5625 478.27734l1.21875.13672"/><g clip-path="url(#C)"><path fill="none" stroke="#000" stroke-linecap="round" stroke-linejoin="round" stroke-miterlimit="10" stroke-width=".5" d="M291.73438 477.05078l-2.53516 6.55469"/></g><path fill="none" stroke="#000" stroke-linecap="round" stroke-linejoin="round" stroke-miterlimit="10" stroke-width=".5" d="M291.36328 478.0039l1.21875-.14452"/><g clip-path="url(#D)"><path fill="none" stroke="#000" stroke-linecap="round" stroke-linejoin="round" stroke-miterlimit="10" stroke-width=".5" d="M305.6914 477.38281l-3.82421 5.89453"/></g><path fill="none" stroke="#000" stroke-linecap="round" stroke-linejoin="round" stroke-miterlimit="10" stroke-width=".5" d="M305.13672 478.23828l1.22265.10547"/><g clip-path="url(#E)"><path fill="none" stroke="#000" stroke-linecap="round" stroke-linejoin="round" stroke-miterlimit="10" stroke-width=".5" d="M320.45703 479.30078l-6.72265 2.05469"/></g><g clip-path="url(#F)"><path fill="none" stroke="#000" stroke-linecap="round" stroke-linejoin="round" stroke-miterlimit="10" stroke-width=".5" d="M319.47656 479.60156l.86719.86719"/></g><g clip-path="url(#G)"><path fill="none" stroke="#000" stroke-linecap="round" stroke-linejoin="round" stroke-miterlimit="10" stroke-width=".5" d="M331.69922 483.59766l-2.57813-6.53907"/></g><g clip-path="url(#H)"><path fill="none" stroke="#000" stroke-linecap="round" stroke-linejoin="round" stroke-miterlimit="10" stroke-width=".5" d="M343.1875 483.80078l1.07813-6.94531"/></g><g clip-path="url(#I)"><path fill="none" stroke="#000" stroke-linecap="round" stroke-linejoin="round" stroke-miterlimit="10" stroke-width=".5" d="M354.19922 482.39453l5.6836-4.1289"/></g><g clip-path="url(#J)"><path fill="none" stroke="#000" stroke-linecap="round" stroke-linejoin="round" stroke-miterlimit="10" stroke-width=".5" d="M368.40234 483.25l3.90625-5.84375"/></g><g clip-path="url(#K)"><path fill="none" stroke="#000" stroke-linecap="round" stroke-linejoin="round" stroke-miterlimit="10" stroke-width=".5" d="M381.29688 482.91797l4.74609-5.17969"/></g><g clip-path="url(#L)"><path fill="none" stroke="#000" stroke-linecap="round" stroke-linejoin="round" stroke-miterlimit="10" stroke-width=".5" d="M394.00781 482.19531l5.95703-3.73437"/></g><g clip-path="url(#M)"><path fill="none" stroke="#000" stroke-linecap="round" stroke-linejoin="round" stroke-miterlimit="10" stroke-width=".5" d="M394.00781 482.19531l-2.125-1.22265"/></g><g clip-path="url(#N)"><path fill="none" stroke="#000" stroke-linecap="round" stroke-linejoin="round" stroke-miterlimit="10" stroke-width=".5" d="M406.79297 480.54297l7.01562-.42578"/></g><g clip-path="url(#O)"><path fill="none" stroke="#000" stroke-linecap="round" stroke-linejoin="round" stroke-miterlimit="10" stroke-width=".5" d="M407.8164 480.48047l-.64062-1.04688"/></g><g clip-path="url(#P)"><path fill="none" stroke="#000" stroke-linecap="round" stroke-linejoin="round" stroke-miterlimit="10" stroke-width=".5" d="M422.22266 483.55469l2.78515-6.45313"/></g><g clip-path="url(#Q)"><path fill="none" stroke="#000" stroke-linecap="round" stroke-linejoin="round" stroke-miterlimit="10" stroke-width=".5" d="M440.30469 479.34375l-6.7461 1.97266"/></g><g clip-path="url(#R)"><path fill="none" stroke="#000" stroke-linecap="round" stroke-linejoin="round" stroke-miterlimit="10" stroke-width=".5" d="M440.30469 479.34375l1.71094 1.7539"/></g><g clip-path="url(#S)"><path fill="none" stroke="#000" stroke-linecap="round" stroke-linejoin="round" stroke-miterlimit="10" stroke-width=".5" d="M453.33203 478.65234l-6.17187 3.35547"/></g><g clip-path="url(#T)"><path fill="none" stroke="#000" stroke-linecap="round" stroke-linejoin="round" stroke-miterlimit="10" stroke-width=".5" d="M453.33203 478.65234l2.04688 1.35157"/></g><g clip-path="url(#U)"><path fill="none" stroke="#000" stroke-linecap="round" stroke-linejoin="round" stroke-miterlimit="10" stroke-width=".5" d="M466.7539 478.85547l-6.3828 2.94531"/></g><g clip-path="url(#V)"><path fill="none" stroke="#000" stroke-linecap="round" stroke-linejoin="round" stroke-miterlimit="10" stroke-width=".5" d="M466.7539 478.85547l1.95313 1.48828"/></g><g clip-path="url(#W)"><path fill="none" stroke="#000" stroke-linecap="round" stroke-linejoin="round" stroke-miterlimit="10" stroke-width=".5" d="M147.27734 465.7461l-6.55468 2.53515"/></g><path fill="none" stroke="#000" stroke-linecap="round" stroke-linejoin="round" stroke-miterlimit="10" stroke-width=".5" d="M147.27734 465.7461l1.85547 1.60156m11.47266-1.56641l-6.58203 2.46484m6.58203-2.46484l1.83984 1.625m11.33594-1.9414l-6.30469 3.10156m6.30469-3.10157l1.99219 1.4336m11.44922-1.15235l-6.5547 2.53516m6.5547-2.53516l1.85547 1.60547m11.54296-1.35547l-6.72265 2.03907m6.72265-2.03907l1.73438 1.73828m11.3711-2.27343l-6.3047 3.10547m6.3047-3.10547l1.99218 1.4375m11.21094-1.64844l-6.07813 3.52734m6.07813-3.52734l2.08203 1.29297m11.35156-1.0664l-6.3164 3.07421m6.3164-3.07422l1.98438 1.44532m10.76953-2.27735l-5.1914 4.73828m5.1914-4.73828l2.3086.82422m10.10155-1.53516l-3.3828 6.16016m3.3828-6.16016l2.45313.03125m10.73437-.09765l-3.1289 6.29297m2.67578-5.375l1.22656-.03516m11.8125-1.14844l-1.67187 6.82422m1.42968-5.83203l1.1875-.30078m12.34375-.69922l-1.61718 6.83984m1.3828-5.84375l1.1836-.3125m11.79688-.76953l-.48047 7.01172m.41015-5.99219l1.1211-.5m10.80078-.30859l2.44922 6.58984m8.58203-3.09375l7.01562-.40234m6.66407 1.77344l6.28515-3.14453m8.63672 4.73046l3.07031-6.3164m9.25391 5.60156l5.05078-4.88672m-4.3164 4.17578l-1.16407-.3789m12.75782-1.25l7.02734-.20703m-6.0039.17968l-.60938-1.0664m13.05469 2.01953l6.71875-2.0586m-5.7422 1.75782l-.86718-.86719m20.07422-.05469l-7.01563.38672m19.75-2.13281l-5.85546 3.8789m5.0039-3.3164l1.07813.58594m13.58984.02343l-6.85937 1.53516m6.85937-1.53516l1.59766 1.86328m11.59765-2.27734l-6.61718 2.36328"/><g clip-path="url(#X)"><path fill="none" stroke="#000" stroke-linecap="round" stroke-linejoin="round" stroke-miterlimit="10" stroke-width=".5" d="M466.8711 465.83203l1.8125 1.65235"/></g><g clip-path="url(#Y)"><path fill="none" stroke="#000" stroke-linecap="round" stroke-linejoin="round" stroke-miterlimit="10" stroke-width=".5" d="M147.51172 453.6211l-7.02344.15624"/></g><path fill="none" stroke="#000" stroke-linecap="round" stroke-linejoin="round" stroke-miterlimit="10" stroke-width=".5" d="M147.51172 453.6211l1.20312 2.13671m12.10938-2.1914l-7.01953.26562m7.01953-.26562l1.23437 2.12109m12.03907-1.42578l-6.9375-1.125m6.9375 1.125l.78906 2.32422m12.57031-2.85547l-7.02344-.0664m7.02344.0664l1.13281 2.17969m12.08594-3.03907l-6.83203 1.65235m6.83203-1.65235l1.6289 1.83594m11.47266-2.45703l-6.40234 2.89844m5.46875-2.47657l.97266.75m12.92968-1.76953l-5.71093 4.09375m5.71093-4.09375l2.19922 1.08985m11.07813-1.14063l-5.63672 4.19531m5.63672-4.1953l2.21875 1.05077m10.5586-1.6289l-4.5586 5.34765m4.5586-5.34765l2.39452.53125m10.54688-.8086l-3.8125 5.90235m3.8125-5.90235l2.44531.21094m-3 .64844l1.22266.10547m12.86328-.8125l-4.2461 5.60156m4.2461-5.60156l2.42187.39062m10.92188-.36719l-4.30078 5.5547m4.30078-5.5547l2.41797.41407m11.10156-.24219l-4.71484 5.21094m4.03125-4.45313l1.1875.30078m10.60156 5.0586l-.29297-7.02344m13.41406 7.02344l.09766-7.02735m16.4961 2.13282l-6.46095 2.76562m13.41016-2.96875l6.26953 3.17188m6.90235-.32813l6.55859-2.51953m-5.60547 2.15625l-.92578-.80469m13.05469.03906l7.02343-.26171m-6 .22656l-.61718-1.0625m13.13672-.28125l6.5664 2.5m-5.61328-2.13672l-.15234-1.21875m12.94922.04687l5.6953 4.11329m12.84766.52734l-4.76171-5.16797m4.0703 4.41797l-.40624 1.15625m15.34375-4.16797l-6.6211 2.35938m6.6211-2.35938l1.8125 1.65234m11.69531-.7578l-7.0039.5703m5.98437-.48828l.66016 1.03516m13.48828-1.99219l-6.63282 2.3164"/><g clip-path="url(#Z)"><path fill="none" stroke="#000" stroke-linecap="round" stroke-linejoin="round" stroke-miterlimit="10" stroke-width=".5" d="M466.8789 452.53906l1.80079 1.66797"/></g><g clip-path="url(#aa)"><path fill="none" stroke="#000" stroke-linecap="round" stroke-linejoin="round" stroke-miterlimit="10" stroke-width=".5" d="M147.5 440.67969l-7-.59375"/></g><path fill="none" stroke="#000" stroke-linecap="round" stroke-linejoin="round" stroke-miterlimit="10" stroke-width=".5" d="M147.5 440.67969l.96484 2.25781m-1.98437-2.34375l.48437 1.1289M160.77344 441l-6.91797-1.23438M160.77344 441l.7539 2.33594m-1.76172-2.51563l.37891 1.16797m13.99219-1.38281l-7.01172-.4414m7.01172.4414l1.01172 2.23437m-2.03125-2.30078l.50781 1.11719m13.82813-1.4414l-7.01563.33593m7.01563-.33594l1.2539 2.10938m-2.27344-2.0586l.625 1.0547m13.6797-1.44532l-6.95313 1.01563m6.95312-1.01563l1.45313 1.97656m-2.46485-1.82812L201.1797 442m12.70312-2.80078l-6.61328 2.3711m6.61328-2.3711l1.8164 1.64844m-2.77733-1.3047l.90625.82423m13.33593-1.25781l-6.54687 2.54687m6.54687-2.54687l1.85938 1.60156m10.23437-3.17969l-4.10547 5.70313m4.10547-5.70313l2.4336.33203M253 437.89453l-4.95703 4.98047M253 437.89453l2.34766.71094m11.32812-.28906l-5.67969 4.13672m5.6797-4.13672l2.20702 1.0703m-3.03515-.46874l1.10547.53516m12.91015-1.30079l-5.42578 4.46485m5.42578-4.46485l2.26563.94141m10.88672-1.1289l-5.09766 4.83593m5.09765-4.83594l2.32422.77735m10.82032-.94532l-4.75782 5.17188m4.75782-5.17188l2.375.6211m11.42968-.0625l-5.73828 4.05469m5.73828-4.0547l2.19141 1.10938m11.1914-1.0078l-5.875 3.85155m5.875-3.85156l2.15235 1.17969m11.26953-1.00781l-6.08594 3.51171m6.08594-3.51171l2.08203 1.29687m10.98828-1.66406l-5.59765 4.24219m4.78515-3.625l1.11329.51562m11.55468-2.25781l-2.67969 6.4961m2.6797-6.4961l2.4414-.24219m7.09375.96094l4.88281 5.05469m-4.88281-5.0547l.75781-2.33202m12.0039 3.02344l5.98829 3.67187m-5.98828-3.67187l.14844-2.44922m17.49609 1.03515l-2.66797 6.5m2.66797-6.5l2.4414-.24218m-2.83203 1.1875l1.22266-.1211m13.73438.05078l-5.17188 4.7539m5.17188-4.7539l2.3125.8125m-3.06641-.1211l2.3164.8125m11.91016-1.3203l-5.48828 4.38672m5.48828-4.38672l2.2539.97265m10.16016-1.77343l-3.6875 5.98437m3.6875-5.98437l2.44922.15625m10.5-.35157l-2.95312 6.375m2.95312-6.375l2.44922-.13281m-2.8789 1.0625l1.22656-.07031"/><g clip-path="url(#ab)"><path fill="none" stroke="#000" stroke-linecap="round" stroke-linejoin="round" stroke-miterlimit="10" stroke-width=".5" d="M147.50781 427.26953l-7.01562-.40234"/></g><path fill="none" stroke="#000" stroke-linecap="round" stroke-linejoin="round" stroke-miterlimit="10" stroke-width=".5" d="M147.50781 427.26953l1.02344 2.23047m-2.04297-2.28906L147 428.32813m13.79688-.78516l-6.96485-.94922m6.96484.94922l.84766 2.30078m-1.85937-2.4414l.42187 1.15234m13.91016-1.0625l-6.97656-.84766m6.97656.84766L175 429.78125m-1.89844-2.41406l.4414 1.14453m13.90626-1.70703l-7.00781.52734m7.0078-.52734l1.3125 2.07422m-2.33202-1.9961l1.3125 2.07031m12.98828-2.4375l-6.9414 1.10547m6.9414-1.10547l1.47656 1.95704m-2.48828-1.79688l1.48047 1.95703m12.79687-2.36718l-6.83984 1.60546m6.83984-1.60546l1.6172 1.84375M213 426.5l1.61719 1.84375m12.71484-1.97656l-6.88281 1.40625m6.88281-1.40625l1.5625 1.89062m-2.5625-1.6875l1.5625 1.89063m12.55469-2.74219l-6.48828 2.69922m6.48828-2.69922l1.89453 1.5625m-2.83594-1.16797l.94531.77735m13.0625-1.66016l-5.98828 3.67578m5.98828-3.67578l2.11329 1.2461m10.94922-1.60548l-5.48438 4.39454m5.48438-4.39454l2.2539.97266m-3.05078-.33203l1.125.48437m12.66797-1.46875l-4.84766 5.08204m4.84766-5.08204l2.36328.66016m-3.0664.07813l1.17968.33203m13.71094.2539l-6.59375 2.4336m6.59375-2.4336l1.83203 1.63282m11.27734-2.08594l-6.18359 3.33984m6.1836-3.33984l2.04296 1.35937m10.94531-1.85937l-5.52734 4.33984m5.52734-4.33984l2.2422.99219m-3.04688-.35938l1.1211.49219m13.35546-.57031l-6.24219 3.23046m6.24219-3.23046l2.01953 1.39843m-2.92578-.92578l1.00781.69531m13.46094-.55859l-6.73438 2.01172m6.73438-2.01172l1.72266 1.74219m11.09375-2.76563l-5.73829 4.0586m5.73829-4.0586l2.1914 1.10157m9.6836-2.28125l-2.85938 6.41796m2.85938-6.41796l2.44921-.17188m9.05079-.11328l.76953 6.98828m-.65625-5.96875l1.01562-.6914m15.3125.96874l-5.48047 4.39454m5.48047-4.39454l2.2539.96875m-3.05077-.32812l2.2539.96875m-3.05078-.33203l1.125.48437m13.09766-2.41406l-4.10938 5.69922m4.10938-5.69922l2.4336.33203m-3.03126.4961l2.4336.33203m-3.03125.5l1.21484.16406m12.79297-2.1289l-3.10156 6.30859m3.10156-6.3086l2.45312-.07422m-2.90625.9922l2.45313-.07423m-2.90235.99219l2.45313-.07812m12.20312-1.5l-3.98046 5.79296m3.98046-5.79296l2.4375.27734m-3.01953.5664l2.44141.27735m-3.01953.5664l1.21875.13672m13.16406-1.8828l-3.79687 5.91405m3.79687-5.91406l2.44531.19922m-2.99609.66016l2.44531.19922m-3 .66015l1.22266.10156m13.57422-1.54296l-4.54688 5.35546"/><g clip-path="url(#ac)"><path fill="none" stroke="#000" stroke-linecap="round" stroke-linejoin="round" stroke-miterlimit="10" stroke-width=".5" d="M465.83594 424.39063l2.39453.52343"/></g><path fill="none" stroke="#000" stroke-linecap="round" stroke-linejoin="round" stroke-miterlimit="10" stroke-width=".5" d="M465.17188 425.16797l2.39843.52344m-3.0586.2578l1.19923.26173"/><g clip-path="url(#ad)"><path fill="none" stroke="#000" stroke-linecap="round" stroke-linejoin="round" stroke-miterlimit="10" stroke-width=".5" d="M147.4961 414.08203l-6.9922-.65625"/></g><path fill="none" stroke="#000" stroke-linecap="round" stroke-linejoin="round" stroke-miterlimit="10" stroke-width=".5" d="M147.4961 414.08203l.9453 2.26563m12.38673-2.48438l-7.02344-.21875m7.02344.21875l1.08203 2.19922m-2.10547-2.23047l.54297 1.09766m13.79297-1.01172l-7.01954-.32813m7.01953.32813l1.05079 2.21875m-2.07422-2.26563l1.05078 2.21485m13.20312-3.11328l-6.85156 1.5625m6.85156-1.5625l1.60547 1.85937m-2.60156-1.63281l1.60156 1.85937m12.66406-2.26953l-6.7578 1.92969m6.7578-1.92969l1.69922 1.76953m-2.68359-1.48828l.85156.88282m13.54688-.69922l-6.95703 1m6.95703-1l1.44531 1.98047m11.88281-1.08594l-6.98437-.79297m6.98437.79297l.89844 2.28515m11.91797-4.51953l-5.98828 3.67969m5.98828-3.67969l2.11719 1.24219m11.12109-1.35938l-5.83594 3.91407m5.83594-3.91407l2.16406 1.15625m10.14453-2.14843l-3.8203 5.89843m3.8203-5.89843l2.44532.21093m11.5078.32032l-5.09765 4.83593m5.09766-4.83593l2.32812.78125m11.6836.28906l-6.48828 2.69531m5.54296-2.30469l.94922.78125m13.21875-1.3789l-6.30468 3.10937m6.30468-3.10937l1.98828 1.4336m11.2461-1.58204l-6.14453 3.40625m6.14453-3.40625l2.0586 1.33594m10.61718-2.16797l-4.86719 5.07031m4.86719-5.07031l2.36328.67187m-3.07031.06641l1.17969.33594m12.6914-1.21094l-4.5664 5.34375m4.5664-5.34375l2.39453.53125m12.10157 1.55469l-6.92579 1.17187m6.92579-1.17187l1.5 1.9414m-2.50782-1.77343l.75.97265m13.52735-1.375l-6.83594 1.63672m6.83594-1.63672l1.625 1.83985m-2.6211-1.60157l1.625 1.83985m-2.61718-1.60156l.8125.92187M386.75 412.0586l-6.15625 3.39063m6.15625-3.39063l2.05469 1.33985m-2.95313-.84766l2.05469 1.33984m-2.94922-.84765l1.02734.67187m14.17188-1.48047l-6.33984 3.03907m6.33984-3.03907l1.97266 1.45704m-2.89454-1.01563l1.97266 1.45703m11.71094-2.72265l-5.23438 4.6875m5.23438-4.6875l2.30469.84765m-3.06641-.16406l2.30469.84375m-3.0664-.16406l1.15233.42187m13.29297-2.16406l-4.4453 5.4414m4.4453-5.4414l2.40625.48047m-3.05468.3125l2.40625.48047m-3.05079.3125l2.40625.47656m12.6836-1.58203l-5.41016 4.48047m5.41016-4.48047l2.26953.9336m-3.05469-.28126l2.26953.9336m-3.05859-.28125l1.13672.46875m13.73437-1.79688l-5.37109 4.53125m5.3711-4.53125l2.27734.91406m-3.0586-.2539l2.27735.91015m-3.0625-.2539l2.28125.91406M466.2578 411.5l-5.39062 4.50781"/><g clip-path="url(#ae)"><path fill="none" stroke="#000" stroke-linecap="round" stroke-linejoin="round" stroke-miterlimit="10" stroke-width=".5" d="M466.25781 411.5l2.27344.92578"/></g><path fill="none" stroke="#000" stroke-linecap="round" stroke-linejoin="round" stroke-miterlimit="10" stroke-width=".5" d="M465.47266 412.15625l2.27343.92188m-3.05859-.26563l1.13672.46094"/><g clip-path="url(#af)"><path fill="none" stroke="#000" stroke-linecap="round" stroke-linejoin="round" stroke-miterlimit="10" stroke-width=".5" d="M147.48828 400.85156l-6.97656-.82812"/></g><path fill="none" stroke="#000" stroke-linecap="round" stroke-linejoin="round" stroke-miterlimit="10" stroke-width=".5" d="M147.48828 400.85156l.89063 2.28906m12.4414-2.4414l-7.00781-.51953m7.00781.51953l.98828 2.2461m12.32032-2.8125l-7 .60937m7-.60938l1.33593 2.0586m-2.35156-1.96875l.66797 1.03125m13.51172-1.87891l-6.69531 2.125m6.6953-2.125l1.75392 1.71875m-2.72657-1.40625l.875.85547m13.54688-.5664l-6.96485.92187m6.96485-.92188l1.42969 1.9961m-2.44141-1.86329l.71094 1M214 399.66017l-6.85156 1.55468M214 399.66016l1.60547 1.85937m-2.60156-1.63281l.80078.92969m13.47265-1.3125l-6.77343 1.86718m6.77343-1.86718l1.6875 1.78515M240.41016 399L234 401.8789M240.41016 399l1.9375 1.5039m-2.8711-1.08593l.96875.75m13.52344-.40235l-6.89844 1.34375m6.89844-1.34375l1.54688 1.90625m11.76171-1.9375l-6.8828 1.41016m6.8828-1.41015l1.5625 1.89062m11.64063-2.30078l-6.66016 2.23047m6.66016-2.23047l1.78125 1.6875m11.55078-1.64063l-6.69531 2.13282m6.69531-2.13282l1.75781 1.71485m11.63281-1.44922l-6.84375 1.60156m6.84375-1.60156l1.61329 1.84765m11.78125-.76562l-7.00391-.5625m7.0039.5625l.97657 2.2539m11.17969-5.15234l-4.6836 5.23828m4.6836-5.23828l2.3828.58203m12.0586 1.48438l-6.9375 1.10547m6.9375-1.10547l1.48047 1.95703m11.54297.09766l-6.35547-3.00391m5.42969 2.5664l.0586 1.22657m14.4375-3.03906l-6.8672 1.49609m6.8672-1.4961l1.58593 1.8711m-2.58594-1.65625l1.58985 1.8711m11.91015-3.6836l-5.23437 4.6875m5.23437-4.6875l2.30469.84766m-3.0664-.16407l2.30468.84375m-3.0664-.16406l1.15234.42578m14.42187-.49219l-6.70703 2.09375m6.70703-2.09375l1.7461 1.72657m-2.72266-1.42188l.875.86328m13.51172-.79296l-6.89844 1.34765m6.89844-1.34765l1.54688 1.90625m-2.55079-1.71094l.77344.95312m12.94922-2.52734l-5.70703 4.10156m5.70703-4.10156l2.19922 1.08984m-3.02735-.49219l2.19922 1.08594m12.11329-1.42578l-6.04297 3.58985m6.04296-3.58985l2.09766 1.27344m-2.97656-.7539l2.09765 1.27734m12.14063-1.71875l-6.13281 3.43359m6.13281-3.4336l2.0625 1.32813m-2.95313-.82812l2.0625 1.32812m-2.95703-.82812l1.03125.66406m13.875-1.96875l-5.74609 4.04297"/><g clip-path="url(#ag)"><path fill="none" stroke="#000" stroke-linecap="round" stroke-linejoin="round" stroke-miterlimit="10" stroke-width=".5" d="M466.4336 398.41797l2.1914 1.10937"/></g><g clip-path="url(#ah)"><path fill="none" stroke="#000" stroke-linecap="round" stroke-linejoin="round" stroke-miterlimit="10" stroke-width=".5" d="M465.59766 399.0039l2.1914 1.10938"/></g><path fill="none" stroke="#000" stroke-linecap="round" stroke-linejoin="round" stroke-miterlimit="10" stroke-width=".5" d="M464.76172 399.59375l1.09375.55469"/><g clip-path="url(#ai)"><path fill="none" stroke="#000" stroke-linecap="round" stroke-linejoin="round" stroke-miterlimit="10" stroke-width=".5" d="M147.51172 387.04297l-7.02344.16015"/></g><path fill="none" stroke="#000" stroke-linecap="round" stroke-linejoin="round" stroke-miterlimit="10" stroke-width=".5" d="M147.51172 387.04297l1.19922 2.14062m12.10547-1.78125l-7.00391-.55859m7.0039.5586l.97657 2.25m12.0039-4.05079l-6.33593 3.04297m6.33594-3.04297l1.97656 1.45703m-2.89844-1.01171l.98828.72656m12.48438-2.21485l-4.8047 5.12891m4.8047-5.1289l2.36718.64452m-3.0664.10157l1.1836.32031m13.85155.70703l-6.84765 1.58203m6.84765-1.58203l1.60938 1.85156m-2.60547-1.62109l.80469.92578m13.45312-1.35547l-6.74219 1.98047m6.7422-1.98047l1.71484 1.75781m-2.69532-1.46875l1.71485 1.75391m12.33594-2.65625l-6.25 3.20703m6.25-3.20703l2.01562 1.40235m-2.92578-.9375l1.00781.70312m13.40625-.73047l-6.6289 2.33203m6.6289-2.33203l1.80469 1.66406m11.4961-1.70312l-6.59766 2.41015m6.59765-2.41015l1.82422 1.63672m-2.78516-1.28516l.91407.8164M267 385.60157l-6.33203 3.04688M267 385.60156l1.98047 1.45313m11.19531-1.72266l-6.04687 3.58203m5.16406-3.0586l1.04687.63673m13.63672.5039l-7.02344.25391m6.00391-.21875l.61328 1.0625m13.625-1.79297l-6.83203 1.64453m6.83203-1.64453l1.6289 1.83985m11.77735-1.23438l-7.01172.4336m7.01172-.4336l1.28516 2.08984m-2.30469-2.02734l.64063 1.04688m13.10937-2.84766l-5.83984 3.91015m5.83984-3.91015l2.16016 1.16015m11.35937-.80468l-6.2539 3.20312m6.2539-3.20312l2.01563 1.40234m11.67187-.125l-6.9961.64453m6.9961-.64453l1.34766 2.05078m-2.36328-1.95703l.67187 1.02344m13.5664-1.65625l-6.8125 1.72265m6.8125-1.72265l1.64845 1.8164m-2.64063-1.5664l1.64844 1.8164m12.52734-2.48437l-6.54687 2.5586m6.54687-2.5586l1.85938 1.59766m-2.8125-1.22657l1.85937 1.60157m12.21094-2.39454l-6.15234 3.40235m6.15234-3.40235l2.05469 1.33985m-2.95313-.84375l2.0586 1.33594m12.20312-1.73438l-6.25 3.20703m6.25-3.20703l2.01563 1.40235m-2.92188-.9375l2.01172 1.40234m12.1289-2.01953l-6.08593 3.51172m6.08594-3.51172l2.07812 1.30078m-2.96484-.78906l1.03906.64843m13.20312-1.08593l-6.16796 3.36328m6.16796-3.36328l2.05079 1.35156m-2.94532-.85938l1.02344.67579m13.36719-.78125l-6.53125 2.58984m6.53125-2.58985l1.8711 1.58985m-2.82032-1.21485l.9336.79688m13.10156-1.64453l-6.07422 3.53515"/><g clip-path="url(#aj)"><path fill="none" stroke="#000" stroke-linecap="round" stroke-linejoin="round" stroke-miterlimit="10" stroke-width=".5" d="M466.59766 385.35547l2.08593 1.29297"/></g><g clip-path="url(#ak)"><path fill="none" stroke="#000" stroke-linecap="round" stroke-linejoin="round" stroke-miterlimit="10" stroke-width=".5" d="M465.71484 385.8711l2.08594 1.29296"/></g><g clip-path="url(#al)"><path fill="none" stroke="#000" stroke-linecap="round" stroke-linejoin="round" stroke-miterlimit="10" stroke-width=".5" d="M147.47656 374.3125l-6.95312-1.00781"/></g><path fill="none" stroke="#000" stroke-linecap="round" stroke-linejoin="round" stroke-miterlimit="10" stroke-width=".5" d="M147.47656 374.3125l.83203 2.3086m-1.84375-2.45704l.41407 1.15625m13.9375-1.21484l-7.00391-.59375m7.0039.59375l.96485 2.25781m-1.98438-2.34375l.48438 1.1289m13.86328-1.40624l-7.02734.1289m7.02734-.1289l1.1914 2.14844m12.1211-2.20704l-7.02344.2461m7.02344-.2461l1.22656 2.125m12.02735-2.66015l-6.90235 1.32031m6.90235-1.32031l1.53906 1.91406m-2.54297-1.72266l.76953.95704M214 373.01563l-6.84766 1.58593M214 373.01562l1.60938 1.84766m-2.60547-1.61719l.80468.92579m13.3125-1.7422l-6.46484 2.75391m6.46484-2.7539l1.91016 1.54297m-2.84766-1.14063l.95313.76953m13.35547-1.03515l-6.57422 2.48437m6.57422-2.48437l1.84375 1.61718m11.53515-1.43359l-6.69922 2.11719m6.69922-2.11719l1.75 1.71875m11.53907-1.79688l-6.64844 2.27344m6.64844-2.27344l1.78906 1.6797m11.61328-1.39063l-6.82031 1.69531m6.82031-1.69531l1.63672 1.82422m11.66015-.0625l-6.78515-1.82813m6.78515 1.82813l.54688 2.39062m12.88281-3.11719l-7.01562-.375m7.01562.375l1.03516 2.22657m12.22265-3.07813l-6.90234 1.32813m6.90235-1.32813l1.53906 1.90625m11.8125-1.67187l-6.97656.85937m6.97656-.85937l1.40625 2.0078m11.92969-1.73046l-7.01954.30469m7.01954-.30469l1.24609 2.11719m12.0586-1.65625l-6.9961-.6211m6.9961.6211l.95702 2.26172m-1.97265-2.35157L360 375.15625m13.85938-1.61719l-7.00782.53516m7.00781-.53516l1.3125 2.07422m-2.33203-1.9961l.65625 1.03907m13.63672-1.45313l-6.92187 1.21094m6.92187-1.21094l1.50781 1.9336m-2.51562-1.75781l.7539.96875m13.28126-2.04688l-6.34766 3.01172m6.34766-3.01172l1.96875 1.46485m-2.89063-1.02344l.98438.73047m12.98437-1.64063l-5.8125 3.95313m5.8125-3.95313l2.17188 1.14453m-3.01954-.57031l1.08594.57422m12.89453-1.39453l-5.4453 4.4414m5.4453-4.4414l2.26172.95312m-3.05469-.30469l1.13282.47657m12.82812-1.29297l-5.15234 4.78125m5.15234-4.78125l2.3164.80469m-3.0664-.10938l1.16016.40235m13.1875-.75l-5.71875 4.08593m5.71875-4.08594l2.19531 1.09375m-3.02734-.5l1.09765.54688m13.26954-.78906L460.48046 375.5"/><g clip-path="url(#am)"><path fill="none" stroke="#000" stroke-linecap="round" stroke-linejoin="round" stroke-miterlimit="10" stroke-width=".5" d="M466.64063 372.11719l2.05468 1.34765"/></g><path fill="none" stroke="#000" stroke-linecap="round" stroke-linejoin="round" stroke-miterlimit="10" stroke-width=".5" d="M465.7461 372.60938l1.02734.67187"/><g clip-path="url(#an)"><path fill="none" stroke="#000" stroke-linecap="round" stroke-linejoin="round" stroke-miterlimit="10" stroke-width=".5" d="M147.47656 361.01172l-6.95312-1.03906"/></g><path fill="none" stroke="#000" stroke-linecap="round" stroke-linejoin="round" stroke-miterlimit="10" stroke-width=".5" d="M147.47656 361.01172l.8164 2.3125m-1.82812-2.46094l.41016 1.15625m13.95313-1.59765l-7.02735.14062m7.02734-.14063l1.19532 2.14454M174 359.5l-6.74219 1.98438M174 359.5l1.71875 1.7539m11.57422-1.82421l-6.69531 2.1289m5.72265-1.8203l.875.85937m13.1836-1.72266l-6.23828 3.23828m6.23828-3.23828l2.01953 1.39063m10.8711-2.02735l-5.39063 4.50781m4.60547-3.85156l1.13671.46094m12.22266-1.78125l-3.90625 5.83984m3.33984-4.99219l1.21875.125m12.98047-.73437l-4.54297 5.35938m3.88282-4.57813l1.19922.26172m13.94921.94922l-6.89062 1.3789m5.89062-1.17968l.77735.94921m13.57422-.9375l-6.96094.95704m6.96094-.95704l1.4375 1.98829m11.8828-1.07813l-6.97265-.86328m5.96094.73438l.4375 1.14843m13.60547-.00781l-6.40625-2.88672m6.40625 2.88672l.16016 2.44922m13.26953-2.73828l-6.63672-2.3125m6.63672 2.3125l.375 2.42578m13.04687-2.79688l-6.84765-1.5703m6.84765 1.5703l.64063 2.3711m-1.63672-2.59766l.32031 1.1836m14-.9922l-6.86719-1.49609m6.86719 1.4961l.66406 2.36328m12.2539-1.34766l-6.07421-3.53125m6.07422 3.53125l-.08984 2.45313m13.77343-3.34766l-6.8086-1.74219m6.8086 1.7422l.57813 2.38671m-1.57031-2.64063l.28906 1.19532m14.1289-1.85547l-7.02734.08984m7.02734-.08984l1.1797 2.15234m-2.20313-2.14062l.58984 1.07812m13.53906-2.23828l-6.60937 2.38672m6.60937-2.38672l1.82032 1.64453m-2.78125-1.29687l1.8164 1.64453m12.20313-2.54297l-6.09766 3.48828m6.09766-3.48828l2.07812 1.3086m-2.96484-.80079l1.03906.65235m13.0039-1.41407l-5.78124 3.9961m5.78125-3.9961l2.17968 1.125m10.97266-1.34375l-5.45703 4.4297m5.45703-4.4297l2.26172.95704m-3.05469-.3125l1.1289.48046m12.75391-1.375l-5.0039 4.9336m5.0039-4.9336l2.33985.73438m-3.0664-.01953l1.16796.36719m12.9336-1.01954l-5.125 4.8086m5.125-4.8086l2.3203.78907m-3.0664-.08985l1.16016.39453m13.09765-.86718l-5.51562 4.35156"/><g clip-path="url(#ao)"><path fill="none" stroke="#000" stroke-linecap="round" stroke-linejoin="round" stroke-miterlimit="10" stroke-width=".5" d="M466.32031 358.3164l2.2461.98829"/></g><g clip-path="url(#ap)"><path fill="none" stroke="#000" stroke-linecap="round" stroke-linejoin="round" stroke-miterlimit="10" stroke-width=".5" d="M147.5 346.85547l-7 .64453"/></g><path fill="none" stroke="#000" stroke-linecap="round" stroke-linejoin="round" stroke-miterlimit="10" stroke-width=".5" d="M147.5 346.85547l1.34375 2.05469m11.98438-1.6875l-7.02735-.08985m7.02734.08985l1.125 2.17968m12.1875-2.33984l-7.02343.23047m7.02344-.23047l1.22265 2.1289m12.08984-2.24218l-7.01562.46094m7.01563-.46094l1.28906 2.08594m9.89844-5.08594l-2.76172 6.46094m2.35937-5.52344l1.22266-.10156m9.86328-.89063l2.5 6.5664m-2.13672-5.60937l.8086-.92578m15.18359.22656l-3.57813 6.05079m18.39063-4.26563l-6.57422 2.48047m5.61719-2.1211l.92187.8125m13.57031.29297l-7.01172-.44921m5.9922.3828l.5039 1.1211m13.83594-1.20312l-7.02344-.15235m7.02344.15235l1.10547 2.1914m12.20703-2.14062l-7.01953-.2539m7.01953.2539l1.07422 2.20703m12.13671-1.47656l-6.8125-1.71485m6.8125 1.71485l.58985 2.3828m12.14062-1.14452l-5.64062-4.1914m5.64062 4.1914l-.36719 2.42578m14.13282-3.24219l-6.54297-2.55469m6.54297 2.5547l.28906 2.43358m-1.23828-2.80859l.14062 1.21875m14.34375-1.73828l-6.98437-.76953m6.98437.76953l.91016 2.27734m-1.92578-2.39062l.45312 1.14062m13.88672-1.11718l-7-.58985m7 .58985l.96485 2.2578m12.02734-1.05077l-6.35547-3.0039m6.35547 3.0039l.11328 2.44922m-1.03906-2.88672l.0586 1.22656m14.42968-1.5l-6.84766-1.58203m6.84766 1.58203l.63281 2.3711m-1.6289-2.60157l.6328 2.3711m13.7422-3.34375l-6.97657.82421m6.97657-.82421l1.39843 2.01562m-2.41406-1.89453l1.39844 2.01562m12.73437-2.95703l-6.58203 2.46485m6.58203-2.46485l1.83985 1.625m-2.79688-1.26562l1.83594 1.6211m12.1914-2.4961l-6.09374 3.4961m6.09375-3.4961l2.07812 1.30469m-2.96484-.79688l1.03906.65625m13.11719-1.24219l-6 3.65625m6-3.65625l2.10937 1.25m-2.98437-.71875l2.11328 1.25m11.85937-2.09765l-5.5664 4.28515m5.5664-4.28515l2.23438 1.01562m-3.04297-.39062l2.23437 1.01171m11.875-1.65625l-5.53906 4.32422m5.53906-4.32421l2.2422.99609m-3.04688-.36719l1.1211.5m13.22655-.80078l-5.99218 3.66797"/><g clip-path="url(#aq)"><path fill="none" stroke="#000" stroke-linecap="round" stroke-linejoin="round" stroke-miterlimit="10" stroke-width=".5" d="M466.5586 345.34375l2.11327 1.2461"/></g><path fill="none" stroke="#000" stroke-linecap="round" stroke-linejoin="round" stroke-miterlimit="10" stroke-width=".5" d="M465.6875 345.8789l1.05469.6211"/><g clip-path="url(#ar)"><path fill="none" stroke="#000" stroke-linecap="round" stroke-linejoin="round" stroke-miterlimit="10" stroke-width=".5" d="M147.32813 332.73438l-6.65625 2.2578"/></g><path fill="none" stroke="#000" stroke-linecap="round" stroke-linejoin="round" stroke-miterlimit="10" stroke-width=".5" d="M147.32813 332.73438l1.78515 1.67968m11.52344-1.6914l-6.64453 2.28125m6.64453-2.28125l1.79297 1.67578m10.88672-2.80078l-5.3711 4.53125m4.58985-3.8711l1.13672.45703m11.68359-2.0703l-2.82031 6.4375m2.41015-5.5l1.22266-.09376m11.32031-1.13281l-.45312 7.01562m.38672-5.99218l1.11718-.50782m15.49219 2.35547l-6.91016 1.26953m5.90625-1.08203l.76172.96094m13.5039.3711l-6.80468-1.76563m5.8125 1.50781l.28516 1.1914m13.91015-.58202l-6.58203-2.46875m5.625 2.10937l.15625 1.21485m14.29297-1.53125l-6.9375-1.1172m6.9375 1.1172l.79297 2.32421m12.5625-2.71875l-7.01953-.32812m7.01953.32812l1.05078 2.21875m12.23047-1.85156l-6.94531-1.0625m6.94531 1.0625l.8086 2.3164m-1.82032-2.46874l.40625 1.15625m13.95703-1.40625l-7.02344-.25781m7.02344.2578l1.07031 2.20704m11.78907-.59766l-6.10938-3.47656m5.21875 2.96875l-.03515 1.22656m13.85937-.17578l-5.34766-4.5625m5.34766 4.5625l-.52734 2.39453m-.25-3.0586l-.26563 1.19532m14.98047-1.59375l-6.58984-2.4375m6.58984 2.4375l.32813 2.4336m-1.28907-2.78907l.32813 2.4336m14.1289-2.79297l-6.95312-1.00781m6.95312 1.0078l.82813 2.3086m-1.83984-2.45703l.41406 1.15625m13.88281-2.1875l-6.89453 1.35156m6.89453-1.35156l1.54688 1.90625m-2.55079-1.71094l.77344.95313m13.30078.96875l-6.40625-2.88281m6.40625 2.8828l.16407 2.44923m13.42968-4.375l-6.96093.96875m6.96093-.96875l1.4375 1.98828m-2.45312-1.84766l.72265.99219m13.64063-.60156l-7.02734-.09375m7.02734.09375l1.1211 2.18359m12.02734-3.30469l-6.6914 2.14844m6.6914-2.14844l1.75781 1.71094m-2.73438-1.39844l.88282.85547m13.00781-2.00781l-5.89063 3.82812m5.89063-3.82812l2.14453 1.1875m-3-.63281l1.07031.59765M439.91016 332l-5.95704 3.72656M439.91016 332l2.125 1.22266m-2.9922-.6797l1.0625.60938m13.13673-1.125l-5.99219 3.67188m5.99219-3.67188l2.11328 1.2422m-2.98438-.71095l2.11328 1.2461m-2.98437-.71094l1.05469.625m13.98047-1.73047l-5.94532 3.7461"/><g clip-path="url(#as)"><path fill="none" stroke="#000" stroke-linecap="round" stroke-linejoin="round" stroke-miterlimit="10" stroke-width=".5" d="M466.53516 331.98828l2.1289 1.22266"/></g><g clip-path="url(#at)"><path fill="none" stroke="#000" stroke-linecap="round" stroke-linejoin="round" stroke-miterlimit="10" stroke-width=".5" d="M465.66797 332.53516l2.1289 1.21875"/></g><g clip-path="url(#au)"><path fill="none" stroke="#000" stroke-linecap="round" stroke-linejoin="round" stroke-miterlimit="10" stroke-width=".5" d="M147.4336 319.79688l-6.8672 1.5039"/></g><path fill="none" stroke="#000" stroke-linecap="round" stroke-linejoin="round" stroke-miterlimit="10" stroke-width=".5" d="M147.4336 319.79688l1.58593 1.87109m11.70703-1.95703l-6.82422 1.67578m6.82422-1.67578l1.63672 1.82812m11.3789-2.6211l-6.22265 3.26173m6.22266-3.26172l2.02734 1.38281m10.17969-2.63672l-4.00781 5.76953m4.0078-5.76953l2.4375.28906m12.35548 2.1211l-6.96485.94531m6.96485-.94531l1.4336 1.99219m11.85155-2.1836l-6.90234 1.32813m6.90234-1.32813l1.53907 1.91016m-2.54297-1.71485l.76953.95313m13.40234-1.67969l-6.60937 2.39453m6.60937-2.39453l1.82031 1.64453m-2.78125-1.29687l.91016.82031m13.42969-.96484l-6.73828 1.98437m6.73828-1.98437l1.71875 1.7539m-2.69922-1.46484l.85938.875m13.58203-.22656l-7.02735.11328m7.02735-.11328l1.1875 2.14453m12.11718-2.33203l-7.0078.48437m7.0078-.48437l1.30078 2.08203m12.01954-1.67969l-7.01953-.32031m7.01953.32031l1.05078 2.21875m12.22265-1.82031l-6.9375-1.11719m6.9375 1.11719l.79297 2.32422m12.53516-3.35547l-6.96094.94531m5.94922-.8086l.71484.9961m13.32422.80469l-6.38672-2.92578m6.38672 2.92578l.14453 2.44922m13.15625-2.41797l-6.35937-2.99219m6.35937 2.99219l.1211 2.45312m12.15234-1.15625l-4.27344-5.58203m3.64844 4.76953l-.50781 1.11329m14.78906-.60157l-4.95703-4.98437m19.27734 2.9375l-6.96875-.89063m5.95704.76172l.43359 1.14844m13.55469-3.02735l-6.29297 3.125m6.29297-3.125l1.99609 1.4297m-2.91016-.97266l.9961.71093m13.0039-1.5664l-5.83203 3.92187m5.83203-3.92187l2.16407 1.15625m11.39062-.73828l-6.3125 3.08984m5.39453-2.64063l.99219.71875m12.35547 3.0586l-4.53906-5.36328m14.72656-.72656l1.71484 6.8164m-1.46484-5.82422l.91016-.82422m15.15625.45704l-4.28907 5.5664m4.28907-5.5664l2.41796.40625m11.2461-.09766l-4.98828 4.94922"/><g clip-path="url(#av)"><path fill="none" stroke="#000" stroke-linecap="round" stroke-linejoin="round" stroke-miterlimit="10" stroke-width=".5" d="M466.05469 318.07422l2.34375.72656"/></g><path fill="none" stroke="#000" stroke-linecap="round" stroke-linejoin="round" stroke-miterlimit="10" stroke-width=".5" d="M465.33203 318.79297l2.33985.72656m-3.06641-.00781l1.17187.36328"/><g clip-path="url(#aw)"><path fill="#00f" fill-rule="evenodd" d="M175.19922 480.96484h8.61719v-10.14843h-8.6172v10.14843"/></g><path fill="azure" fill-rule="evenodd" d="M177.03125 472.65234h.83203v2.82032h3.28516v-2.82032h.83594v6.47657h-.83594v-2.91407h-3.28516v2.91407h-.83203v-6.47657"/><path fill="#ff3030" fill-rule="evenodd" d="M269.09766 436.57813h7.6914v-10.14454h-7.6914v10.14454"/><path fill="azure" fill-rule="evenodd" d="M270.92969 428.26563h.83203v5.74218h3.19531v.73828h-4.02734v-6.48046"/><path fill="#00f" fill-rule="evenodd" d="M383.80078 436.57813h8.61719v-10.14454h-8.61719v10.14454"/><path fill="azure" fill-rule="evenodd" d="M385.63281 428.26563h.83203v2.82421h3.28907v-2.82421h.83203v6.48046h-.83203v-2.91406h-3.28907v2.91406h-.83203v-6.48046"/><path fill="#ff3030" fill-rule="evenodd" d="M326.79688 432.14063h7.6914v-10.14454h-7.6914v10.14454"/><path fill="azure" fill-rule="evenodd" d="M328.6289 423.82813h.83204v5.73828h3.19531v.74218h-4.02734v-6.48046"/><path fill="#00f" fill-rule="evenodd" d="M224.01953 414.38672h8.61719v-10.14453h-8.61719v10.14453"/><path fill="azure" fill-rule="evenodd" d="M225.85156 406.07422h.83594v2.82422h3.28516v-2.82422h.83203v6.48047h-.83203v-2.91406h-3.28516v2.91406h-.83594v-6.48047"/><path fill="#ff3030" fill-rule="evenodd" d="M384.4961 414.38672h7.6914v-10.14453h-7.6914v10.14453"/><path fill="azure" fill-rule="evenodd" d="M386.32813 406.07422h.83203v5.74219h3.1953v.73828h-4.02733v-6.48047"/><path fill="#ff3030" fill-rule="evenodd" d="M175.89063 409.94922h7.6953v-10.14453h-7.6953v10.14453"/><path fill="azure" fill-rule="evenodd" d="M177.72656 401.63672h.83203v5.73828H181.75v.74219h-4.02344v-6.48047"/><path fill="#ffffe0" fill-rule="evenodd" d="M350.75781 405.74219h22.17969v-10.1914h-22.17969v10.1914"/><path fill-rule="evenodd" d="M354.25781 397.38281h.50781v6.29688h-.78515v-4.49219h-1.39063v-.55469l.5586-.0664.2539-.05079.23047-.08984.20313-.14062.17187-.21094.14453-.29688.10547-.39453m4.8125 0l.23047.01953.21875.0547.20703.08983.19531.1211.1836.14844.17187.17578.3047.42187.24218.49219.17969.54688.10937.57812.03906.59375-.03906.58984-.10937.58594-.1797.55469-.24218.5-.30469.42969-.17187.17968-.1836.15235-.1953.125-.20704.08984-.21875.0586-.23047.01953-.23047-.01954-.21875-.05859-.20703-.08984-.19531-.125-.1836-.15235-.17187-.17968-.30469-.4297-.24218-.5-.1797-.55468-.10937-.58594-.03906-.58984h.83203l.02735.5625.08203.5039.1289.44532.16016.3711.1914.30077.21094.22266.22266.13672.22656.04687.22656-.04687.22266-.13672.21094-.22266.1914-.30078.16016-.3711.1289-.4453.07813-.50391.03125-.5625-.03125-.5625-.07812-.5-.1289-.4375-.16017-.36328-.1914-.29297-.21094-.21484-.22265-.13282-.22657-.04296-.22656.04296-.22266.13282-.21093.21484-.19141.29297-.16016.36328-.1289.4375-.08203.5-.02735.5625h-.83203l.03906-.59375.10938-.57813.17969-.54687.24218-.49219.3047-.42187.17187-.17578.18359-.14844.19531-.1211.20703-.08984.21875-.05469.23047-.01953m5.08985 0h.51171v6.29688h-.78906v-4.49219h-1.38672v-.55469l.5586-.0664.2539-.05079.22657-.08984.20312-.14062.17578-.21094.14063-.29688.10547-.39453m2.82421 2.17578h.78907l.01953-.3164.0586-.28516.09765-.2539.14062-.21485.1797-.17187.22655-.13282.26563-.07812.30469-.02735.23828.01954.22656.0625.20313.10156.17968.14062.14844.17188.11328.20703.07031.23438.02344.26562-.01953.26953-.0664.22266-.10938.1914-.15625.17188-.19922.16406-.2461.16406-.63671.39063-.53516.3125-.4375.3164-.34765.32422-.26563.33594-.1875.35156-.125.3711-.07031.39062-.01953.42188h4.21093v-.74219h-3.33203l.08203-.28516.11329-.23437.14843-.20313.1875-.17968.23047-.17188.27735-.17578.71875-.41406.41406-.20703.34765-.23047.28125-.25.21875-.26953.16407-.27735.10937-.28515.0664-.28516.01954-.28125-.04297-.38281-.1211-.34766-.1875-.3086-.25-.26171-.30468-.21094-.34375-.16015-.38281-.09766-.40625-.03516-.4336.03516-.39844.09765-.35546.16407-.3047.23437-.24608.30469-.1875.375-.1172.44531-.03906.51953"/><path fill="#ffffe0" fill-rule="evenodd" d="M323.99219 448.53906h22.17969v-10.1914h-22.1797v10.1914"/><path fill-rule="evenodd" d="M327.48828 440.17969H328v6.29687h-.78906v-4.49219h-1.38672v-.55468l.5586-.0664.2539-.05079.22656-.08984.20703-.14454.17188-.20703.14062-.29687.10547-.39453m4.8164 0l.22657.01953.21875.05469.21094.08984.19531.1211.1836.14843.17187.17578.30078.42188.2461.49219.17968.54687.10938.57813.03906.59375-.03906.58984-.10938.58594-.17969.55468-.24609.5-.30078.4297-.17188.17968-.18359.15234-.19531.125-.21094.08985-.21875.05859-.22656.01953-.23047-.01953-.21875-.0586-.20703-.08984-.19922-.125-.1836-.15234-.17187-.17969-.30078-.42969-.24219-.5-.17969-.55468-.11328-.58594-.03515-.58985h.83203l.02734.5625.08203.50391.125.44531.16406.3711.19141.30078.21094.22265.22265.13672.22657.04688.22656-.04688.22266-.13671.21093-.22266.1875-.30078.16407-.3711.125-.4453.08203-.50392.03125-.5625-.03125-.5625-.08203-.5-.125-.4375-.16407-.36328-.1875-.29296-.21093-.21485-.22266-.13281-.22656-.04297-.22656.04297-.22266.13281-.21094.21485-.1914.29296-.16407.36329-.125.4375-.08203.5-.02734.5625h-.83203l.03515-.59375.11328-.57813.1797-.54688.24218-.49218.30078-.42188.17188-.17578.18359-.14844.19922-.12109.20703-.08984.21875-.0547.23047-.01952m5.08984 0h.50781v6.29687h-.78515v-4.49219h-1.38672v-.55468l.5586-.0664.25-.05079.23046-.08984.20313-.14454.17578-.20703.14062-.29687.10547-.39453m2.82422 2.17578h.78516l.01953-.3164.0625-.28516.09765-.25391.14063-.21484.17969-.17579.22265-.1289.26563-.07813.3086-.02734.23827.01953.22266.0625.20703.10156.17578.14063.14844.17187.11328.20704.07422.23437.02344.26563-.01954.26953-.0664.22265-.10938.1914-.15625.17188-.20312.16407-.2461.16406-.6328.39062-.53907.3125-.4375.31641-.34375.32422-.26563.33594-.1914.35156-.125.3711-.0664.39062-.02344.42187h4.21484v-.74219h-3.33203l.08203-.28515.11328-.23438.14844-.20312.1875-.17969.23047-.17187.27734-.17579.71875-.41796.41406-.20313.34766-.23047.27734-.2539.22266-.26563.16406-.27734.10938-.28516.0625-.28515.02343-.28125-.04296-.38282-.1211-.34765-.1875-.3086-.2539-.26172-.30079-.21484-.34375-.15625-.3828-.09766-.40626-.03515-.4336.03125-.39843.10156-.35547.16406-.30469.23438-.25.30469-.18359.375-.11719.4453-.03906.51954"/><path fill="#ffffe0" fill-rule="evenodd" d="M392.3789 476.75781h22.1836V466.5625h-22.1836v10.19531"/><path fill-rule="evenodd" d="M395.8789 468.39844h.51173v6.29297h-.78907v-4.48829h-1.38672v-.55468l.5586-.0664.2539-.0547.22657-.08984.20312-.14063.17578-.21093.14063-.29297.10547-.39453m4.8164 0l.22656.01953.21875.05469.21094.08984.19531.1211.1836.14843.17187.17578.30079.41797.24218.4961.17969.54687.11328.57813.03906.58984-.03906.59375-.11328.58594-.17969.55078-.24219.5039-.30078.42579-.17187.17968-.1836.15625-.1953.1211-.21094.09375-.21875.05468-.22657.01954-.23047-.01954-.21875-.05468-.20703-.09375-.19922-.1211-.18359-.15625-.17188-.17969-.30078-.42578-.24218-.5039-.1797-.55078-.11327-.58594-.03906-.59375h.83593l.02735.5625.08203.50781.125.4414.16406.375.1914.30079.21094.22265.22266.13672.22656.04688.22656-.04688.22266-.13671.21094-.22266.1875-.30078.16406-.375.125-.4414.08203-.50782.03125-.5625-.03125-.5625-.08203-.5-.125-.4336-.16406-.36718-.1875-.29297-.21094-.21094-.22265-.13281-.22657-.04688-.22656.04688-.22266.13281-.21093.21094-.19141.29297-.16406.36719-.125.43359-.08203.5-.02735.5625h-.83594l.03907-.58985.11328-.57812.17969-.54688.24218-.49609.30079-.41797.17187-.17578.1836-.14844.19921-.12109.20703-.08984.21875-.0547.23047-.01952m5.08985 0h.5078v6.29297h-.78515v-4.48829h-1.39062v-.55468l.5625-.0664.25-.0547.23047-.08984.20312-.14063.17578-.21093.14063-.29297.10547-.39453m2.82421 2.17578h.78516l.01953-.3164.0586-.28907.10156-.25.14062-.21484.1797-.17579.22265-.1289.26562-.08203.3086-.02735.23828.02344.22265.0625.20313.10156.17969.13672.14843.17578.11329.20313.07421.23828.02344.26172-.01953.26953-.0664.22656-.11329.1914-.15234.17188-.20313.16016-.24609.16797-.63281.38672-.53906.3164-.4375.31641-.34375.32422-.26563.33594-.1914.35156-.125.36719-.06641.39453-.02344.41797h4.21484v-.73829h-3.33593l.08593-.28515.11329-.23828.14843-.19922.1875-.17969.23047-.17187.27735-.17579.71875-.41796.41406-.20704.34375-.23046.28125-.25.22265-.26563.16016-.28125.11328-.28125.0625-.28515.01953-.28125-.03906-.38282-.1211-.34765-.1914-.3086-.25-.26172-.30078-.21484-.34766-.15625-.3789-.10156-.40625-.03125-.4336.03125-.39844.09765-.35546.16797-.3047.23438-.25.30469-.18358.375-.1172.4453-.03906.51954"/><path fill="#ffffe0" fill-rule="evenodd" d="M337.30469 352.58984h22.17969v-10.1914h-22.1797v10.1914"/><path fill-rule="evenodd" d="M340.80469 344.23047h.50781v6.29687h-.78516v-4.49218h-1.39062v-.5547l.5625-.0625.25-.05468.23047-.08984.20312-.14063.17578-.21094.14063-.29296.10547-.39844m4.8125 0l.23047.01953.21875.05469.20703.08984.19922.1211.18359.15234.17188.17578.30078.41797.24218.49219.1797.54687.11327.57813.03906.59375-.03906.59375-.11328.58203-.17969.55469-.24218.5039-.30079.42578-.17187.17969-.1836.15234-.19921.125-.20703.08985-.21875.0586-.23047.01952-.22656-.01953-.21875-.0586-.21094-.08984-.19531-.125-.1836-.15234-.17187-.17969-.30079-.42578-.24218-.5039-.1836-.5547-.10937-.58202-.03906-.59375h.83203l.03125.5625.08203.5039.125.44531.16406.375.1875.30079.21094.21875.22265.13671.22657.04688.22656-.04688.22266-.13671.21093-.21875.19141-.30079.16406-.375.125-.4453.08203-.50391.02735-.5625-.02735-.5625-.08203-.5-.125-.4336-.16406-.36719-.1914-.29296-.21094-.21485-.22266-.1289-.22656-.04688-.22656.04688-.22266.1289-.21094.21485-.1875.29296-.16406.3672-.125.43359-.08203.5-.03125.5625h-.83203l.03906-.59375.10937-.57813.1836-.54687.24219-.4922.30078-.41796.17187-.17578.1836-.15235.1953-.12109.21094-.08984.21875-.05469.22657-.01953m5.09375 0h.50781v6.29687h-.78516v-4.49218h-1.39062v-.5547l.5625-.0625.25-.05468.23047-.08984.20312-.14063.17188-.21094.14453-.29296.10547-.39844m6.80469 1.6211h-.78907l-.05078-.21094-.08203-.1875-.10547-.16016-.13281-.1289-.14453-.10548-.16016-.07421-.16797-.04297-.17187-.01563-.32813.04297-.28906.11719-.2461.19531-.20312.26953-.16015.33985-.1172.40234-.0703.46875-.02344.52344.1914-.19922.1836-.16016.1875-.125.1836-.08594.1875-.0625.1914-.03515.40234-.02344.3086.02734.3203.09375.31641.15625.29297.21875.25781.28516.19532.35156.07422.19922.05078.21875.03125.23438.0039.25-.78515.04687-.02735-.25781-.07812-.2539-.1211-.23438-.16015-.21094-.19531-.17578-.21875-.13672-.2422-.08984-.2539-.03125-.2539.03125-.2422.08984-.21874.13672-.19531.17578-.16016.21094-.1211.23437-.07812.2539-.02734.25782.02734.25781.07813.25.12109.23438.16016.21094.1953.17968.21876.13672.24219.08594.2539.03125.2539-.03125.2422-.08594.21875-.13672.1953-.17968.16017-.21094.12109-.23438.07812-.25.02735-.2578.78515-.04688-.03125.37109-.08984.3711-.16016.35937-.22265.32812-.28906.28125-.17188.1211-.1875.10156-.20313.08203-.22656.0625-.24219.03906-.2578.01172-.28516-.01562-.25782-.04688-.23828-.07812-.21484-.10156-.19531-.13282-.17579-.15625-.15234-.17969-.13672-.20312-.11719-.22266-.09765-.24218-.14844-.53516-.08203-.59375-.02734-.64063.03906-.74218.11328-.66406.1875-.57813.11719-.2539.13672-.23048.15625-.20703.16796-.18359.1875-.15234.20313-.12891.21875-.10547.23047-.07031.2461-.04688.26562-.01562.36328.03515.33203.09375.29688.15235.2539.19922.21485.24219.16406.27343.11719.30469.0625.32031"/><path fill="#ffffe0" fill-rule="evenodd" d="M177.53906 339.16797h22.17969v-10.1914h-22.17969v10.1914"/><path fill-rule="evenodd" d="M181.03516 330.8086h.51172v6.29296h-.78907v-4.48828h-1.38672v-.55469l.5586-.0664.2539-.05469.22657-.08594.20312-.14453.17578-.20703.14063-.29688.10547-.39453m4.8164 0l.22656.01954.21875.05468.21094.08985.19531.12109.1836.14844.17187.17578.30078.42187.2461.4922.17969.54687.10937.57812.03906.58985-.03906.59375-.10937.58593-.1797.55469-.24608.5-.30079.42969-.17187.17969-.1836.15234-.1953.125-.21095.08984-.21875.0586-.22656.01953-.23047-.01953-.21875-.0586-.20703-.08984-.19922-.125-.18359-.15235-.17188-.17968-.30078-.42969-.24218-.5-.1797-.55469-.11327-.58594-.03906-.59375h.83593l.02735.56641.08203.5039.125.44141.16406.375.1914.30079.21094.22265.22266.13672.22656.04688.22656-.04688.22266-.13672.21094-.22265.1875-.30079.16406-.375.125-.4414.08203-.5039.03125-.56642-.03125-.55859-.08203-.5-.125-.4375-.16406-.36719-.1875-.28906-.21094-.21484-.22266-.13281-.22656-.04297-.22656.04296-.22266.13282-.21093.21484-.19141.28906-.16406.3672-.125.4375-.08203.5-.02735.55858h-.83594l.03907-.58984.11328-.57812.17969-.54688.24218-.49219.30078-.42187.17188-.17578.1836-.14844.19921-.1211.20703-.08984.21875-.05469.23047-.01953m5.08985 0h.5078v6.29297h-.78515v-4.48828h-1.38672v-.55469l.5586-.0664.25-.05469.23047-.08594.20312-.14453.17578-.20703.14063-.29688.10547-.39453m6.80468 1.6211h-.78906l-.05078-.21485-.08203-.18359-.10547-.16016-.1289-.1328-.14844-.10157-.16016-.07422-.16797-.04297-.17187-.01562-.32813.03906-.28906.1211-.2461.1953-.20312.26954-.16016.33593-.11328.40625-.07031.46485-.02734.52734.1914-.20312.1875-.16016.1836-.1211.1875-.08984.1875-.0586.1914-.03905.39844-.02344.3086.03125.3203.09375.31641.15234.29297.22266.25781.28125.19922.35156.07031.19922.0547.21875.02734.23438.0039.2539-.78515.04297-.02735-.25781-.07812-.25-.1211-.23438-.16015-.21094-.19531-.17578-.21875-.14062-.23829-.08594-.2578-.03125-.25392.03125-.24218.08594-.21875.14062-.1914.17579-.16017.21093-.125.23438-.07812.25-.02734.25781.02734.26172.07813.25.125.23437.16015.21094.1914.17578.21876.13672.24219.08985.2539.03125.25781-.03125.23828-.08985.21875-.13672.19532-.17578.16015-.21094.1211-.23437.07812-.25.02735-.26172.78515-.04297-.02734.36719-.09375.375-.15625.35547-.22266.32812-.29297.28516-.16797.11719-.1875.10156-.20703.08594-.22265.05859-.24219.03906-.26172.01563-.28125-.01563-.26172-.05078-.23828-.07422-.21484-.10547-.19531-.1328-.17188-.15626-.15625-.17969-.13281-.19921-.11719-.22266-.10156-.24219-.14453-.53515-.08594-.59375-.02734-.64063.03906-.74219.11328-.66406.1875-.57813.1211-.2539.13671-.23438.15234-.20703.17188-.17969.1836-.15625.20312-.1289.21875-.10156.23047-.07422.25-.04297.26172-.01563.36718.03125.33203.09766.29297.15234.25782.19922.21093.23828.16407.27735.11718.30078.0625.32422"/></g></defs><use xlink:href="#ax"/></svg>