<svg xmlns="http://www.w3.org/2000/svg" role="img" xmlns:xlink="http://www.w3.org/1999/xlink" viewBox="142.45 309.95 326.84 171.84"><defs><clipPath id="a"><path d="M144 311.67188h1v168.65625h-1zm0 0"/></clipPath><clipPath id="b"><path d="M144 311.67188h324v168.65625H144zm0 0"/></clipPath><clipPath id="c"><path d="M418 479h3v1.32813h-3zm0 0"/></clipPath><clipPath id="d"><path d="M467 311.67188h1v168.65625h-1zm0 0"/></clipPath><clipPath id="e"><path d="M144 479h4v1.32813h-4zm0 0"/></clipPath><clipPath id="f"><path d="M147 480h2v.32813h-2zm0 0"/></clipPath><clipPath id="g"><path d="M146 480h2v.32813h-2zm0 0"/></clipPath><clipPath id="h"><path d="M153 479h9v1.32813h-9zm0 0"/></clipPath><clipPath id="i"><path d="M160 480h2v.32813h-2zm0 0"/></clipPath><clipPath id="j"><path d="M159 480h2v.32813h-2zm0 0"/></clipPath><clipPath id="k"><path d="M166 479h9v1.32813h-9zm0 0"/></clipPath><clipPath id="l"><path d="M173 480h3v.32813h-3zm0 0"/></clipPath><clipPath id="m"><path d="M172 480h2v.32813h-2zm0 0"/></clipPath><clipPath id="n"><path d="M180 479h8v1.32813h-8zm0 0"/></clipPath><clipPath id="o"><path d="M187 480h2v.32813h-2zm0 0"/></clipPath><clipPath id="p"><path d="M186 480h2v.32813h-2zm0 0"/></clipPath><clipPath id="q"><path d="M193 479h9v1.32813h-9zm0 0"/></clipPath><clipPath id="r"><path d="M200 480h3v.32813h-3zm0 0"/></clipPath><clipPath id="s"><path d="M206 479h9v1.32813h-9zm0 0"/></clipPath><clipPath id="t"><path d="M213 480h3v.32813h-3zm0 0"/></clipPath><clipPath id="u"><path d="M220 479h8v1.32813h-8zm0 0"/></clipPath><clipPath id="v"><path d="M227 480h2v.32813h-2zm0 0"/></clipPath><clipPath id="w"><path d="M233 479h8v1.32813h-8zm0 0"/></clipPath><clipPath id="x"><path d="M240 480h2v.32813h-2zm0 0"/></clipPath><clipPath id="y"><path d="M246 479h9v1.32813h-9zm0 0"/></clipPath><clipPath id="z"><path d="M253 480h3v.32813h-3zm0 0"/></clipPath><clipPath id="A"><path d="M260 479h8v1.32813h-8zm0 0"/></clipPath><clipPath id="B"><path d="M266 479h2v1.32813h-2zm0 0"/></clipPath><clipPath id="C"><path d="M273 479h8v1.32813h-8zm0 0"/></clipPath><clipPath id="D"><path d="M279 479h2v1.32813h-2zm0 0"/></clipPath><clipPath id="E"><path d="M287 478h7v2.32813h-7zm0 0"/></clipPath><clipPath id="F"><path d="M301 476h5v4.32813h-5zm0 0"/></clipPath><clipPath id="G"><path d="M316 476h2v4.32813h-2zm0 0"/></clipPath><clipPath id="H"><path d="M330 476h1v4.32813h-1zm0 0"/></clipPath><clipPath id="I"><path d="M343 476h2v4.32813h-2zm0 0"/></clipPath><clipPath id="J"><path d="M356 476h3v4.32813h-3zm0 0"/></clipPath><clipPath id="K"><path d="M368 477h5v3.32813h-5zm0 0"/></clipPath><clipPath id="L"><path d="M380 479h8v1.32813h-8zm0 0"/></clipPath><clipPath id="M"><path d="M393 479h8v1.32813h-8zm0 0"/></clipPath><clipPath id="N"><path d="M393 479h2v1.32813h-2zm0 0"/></clipPath><clipPath id="O"><path d="M407 478h7v2.32813h-7zm0 0"/></clipPath><clipPath id="P"><path d="M406 480h3v.32813h-3zm0 0"/></clipPath><clipPath id="Q"><path d="M419 479h9v1.32813h-9zm0 0"/></clipPath><clipPath id="R"><path d="M433 478h8v2.32813h-8zm0 0"/></clipPath><clipPath id="S"><path d="M448 476h4v4.32813h-4zm0 0"/></clipPath><clipPath id="T"><path d="M461 477h5v3.32813h-5zm0 0"/></clipPath><clipPath id="U"><path d="M144 466h4v2h-4zm0 0"/></clipPath><clipPath id="V"><path d="M466 464h2v3h-2zm0 0"/></clipPath><clipPath id="W"><path d="M144 453h4v2h-4zm0 0"/></clipPath><clipPath id="X"><path d="M144 439h4v3h-4zm0 0"/></clipPath><clipPath id="Y"><path d="M144 426h4v2h-4zm0 0"/></clipPath><clipPath id="Z"><path d="M144 413h4v2h-4zm0 0"/></clipPath><clipPath id="aa"><path d="M465 410h3v2h-3zm0 0"/></clipPath><clipPath id="ab"><path d="M144 398h4v4h-4zm0 0"/></clipPath><clipPath id="ac"><path d="M466 397h2v3h-2zm0 0"/></clipPath><clipPath id="ad"><path d="M465 398h3v3h-3zm0 0"/></clipPath><clipPath id="ae"><path d="M144 385h4v4h-4zm0 0"/></clipPath><clipPath id="af"><path d="M466 384h2v3h-2zm0 0"/></clipPath><clipPath id="ag"><path d="M465 385h3v3h-3zm0 0"/></clipPath><clipPath id="ah"><path d="M144 372h4v4h-4zm0 0"/></clipPath><clipPath id="ai"><path d="M466 371h2v3h-2zm0 0"/></clipPath><clipPath id="aj"><path d="M144 358h4v5h-4zm0 0"/></clipPath><clipPath id="ak"><path d="M466 359h2v3h-2zm0 0"/></clipPath><clipPath id="al"><path d="M144 346h4v2h-4zm0 0"/></clipPath><clipPath id="am"><path d="M466 345h2v4h-2zm0 0"/></clipPath><clipPath id="an"><path d="M144 333h4v2h-4zm0 0"/></clipPath><clipPath id="ao"><path d="M466 332h2v3h-2zm0 0"/></clipPath><clipPath id="ap"><path d="M465 332h3v3h-3zm0 0"/></clipPath><clipPath id="aq"><path d="M144 319h4v3h-4zm0 0"/></clipPath><clipPath id="ar"><path d="M465 317h3v2h-3zm0 0"/></clipPath><g id="as" clip-path="url(#clip1)"><path fill="#fff" fill-opacity="0" fill-rule="evenodd" d="M0 0h1000v1000H0zm0 0"/><path fill="#d3d3d3" fill-opacity="0" fill-rule="evenodd" d="M162.15234 355.86719l-.23437.29297.0586.23437.11718.17188.17578.23437.29297.34766.11328.0586.11719-.17188.0586-.23438.17577-.17578.46485-.17578h.69922l.23437.29297.28906.8164.0586.17579.17578.23046.35156.23438.69922.69922.17188.17578.23437.34765.23438.41016.28906.58203.41015.46485.23047.23437.23438.17578.11719.23047.17578.29297.17187 1.16406v.23438l.0586.28906.05859.11719.11719.11719.34765.41015.11719.17188.17578.17578.17578.23437.11719.17188.17188.35156.05859.23438.23437.40625.23438-.0586-.17578.17578-.0586.92969h-.58203l-.23437-.11328-.34766.11328-.11719.11719-.05859.29297-.0586.17578-.11718.17187-.46484.29297-.0586.23438-.0586.11328v.64453l.0586.17187v.41016l.0586.0586v.40624l.05859.40625.11719.17579.05859.05859.23047.64062-.0586.29297v.69922l-.05859.58203v.23438l-.0586.23047-.05468.35156v1.92187l.05469.1172h.42578l-.36719.11718-.02344.35156.89063 1.16797 1.74219.53906 1.33984.35938v.53906l.08984.8086.53516.71484 1.51953.26953.89063-.08594.08984 1.16406.53516.1797 1.16015-.1797 2.05469-.98437 1.16016-.36328 1.8789-.17578 1.69531-.1797-.17968.71876-1.51563.08594-1.25.08984-.80469.26953-1.07421.8086.26953.71875.53515.89843-.17968.625-.26563.8086.26563 1.07812.625.89844.80468.17969 1.25-.1797-.26562.72267.09766.5039.05468.29297v.17188l.0586.29296v.40625l.17578.1172.35156.11718h.40625l.29297-.17578.11328-.11719.0586-.11719.11718-.23047.0586-.17578.35156-.46484.23047-.17578.17578-.0586.17578.0586.0586.17578.11718.98828.05469.46875.0586.17188.11718.23437.17578.0586.8164.05859h.28907l.11719.23437.05859.40625.0586.35156v1.10547l.11718.29297.11719.34766.28906.69922.17578.35156.58203.7539.35157.17579.17187.0586.46875.23437.64063.46484.34765.23438.29297.17578.29297.05468.23047.0625.8164.34766.29297.17578.11328.17188.35157.35156.11719.17578.52343.64063v.28906l.0586.35156v.34766l.05859.35156.0586.28906.11718.0586.17188.05859h.17578l.58203.23437.17578.1172.17578.28905.17578.23438.11328.23437.29297.23047.11719.11719v.41016l.0586.05468.28906.23438.23437.11719.0586.11718.11718.17188.0586.11719.23047.23437.05859.17578.23437.0586.1172.05859-.1172.11328-.05859.11719v.11719l-.11719.29296-.11719.28907v.58203l.17579.11719.11718.05859.0586.11719.11719.11719.11328.05859.17578.34765.0586.35157.05858.40625v.17578l-.05859.17578-.11719.69922v.17187l.1172.17579.29296.29296h.40625l.17578.1172.11719.17187.11719.29296v.23438h-.52735l-.23047-.23438h-.23437l-.17578.0586-.0586.69922.0586.34765.11719.17579.17578.41015.11718.23047.28907.46875.17578.05469h.52344l.23437.0586.75781.64062.0586.29296v.23438l.05859.0586.23047.34765v.35156l-.11719.17188v.29297l.29297.28906.29297.17578.17187.0586.29297.17577.29297.1172.58203.40624.28906.23438.29297.17578.21875.16015.01563.01172.23047.17579.64062.52343.17578.23438.1172.17578.17577.17578.11328.17188v.64062l.1172.17578.46874.11719.58203.11719.23438.05859.23047.11328.29297.11719.11328.0586.58593.35156.28907.17187.17578.0625.17578.05469.17578.0586.69922.35155.28906.17579.23438.05468.28906.17578.23437.1172.64063.40624.29297.11719.17187.0586.23438.05859.41015.05859.23047.0586.23438.11718.0586.17188-.41017.17578.46875.0586.0586.29296.11328.23438.17578.05468.23438.0586.17578.05859.40625.11719.64062.23437.11719.17188.0586.23437v.17578l-.0586.1172-.0586.40624.23438.23438.11719.05859.34766.11719.64062.23047.17578.11718.28906.1172.17578.17577.23438.46485.58203 1.10546.17578.17579.34766.17578.17578.11719.35156.11718 1.04688.52344.23437.0586.46485.11327.29297.0586.46484.17578.75781.58203.23438.23438.34765.46484.17578.17578.28907.23438.8164.69921.29297.17579.28906.28906.29297.17578.29297.28906.69531.64063.17578.17578.29297.23437.28907.23438.46875.28906.64062.58203.34766.23438.23437.29297.34766.34765.35156.46485.9336.99218.34765.40625.11719.17579.23437.05859.11328.11719.64454.17578.23047.11328.23437.0586.29297.17577.23047.1172.9336.69921.40624.40625.23438.17578.40625.17578.23437.11719.8164.34766.34766.23437.23438.11719.29297.28906.23047.11719.7578.35156.35157.17188.23047.05859.29297.11719.23437.0586.8711.17577h.8164l.46875.23047.17188.0586.875.69921.46484.1172.29297.05858.17578.0586.23047.0586.46875.05859.34766.05859.35156.0586.40625.05859h.29297l.17187.0586v.23046l.17578.17578h.29297l.34766.0586.35156.05859.69922.11719h.64063l.46484-.23438.29297-.17578.17187-.11719.41016-.17187.28906-.17578.9336-.46485.46875-.29297.52343-.29296.46485-.17188.46484-.17578 1.05078-.46485.28906-.11718.41016-.11719.28906-.11719.52735-.17578 1.51562-.69922.58203-.34765.28907-.0586.29297-.0586.34765-.11718.875-.23047.35156-.11719h.11329l.23437-.05859.875-.23437.23438-.0586h.8125l.35156-.0586.8164-.11718.17188-.0586.35156-.05468.29297-.0586.23047-.05859.8164-.17578.17579-.0586h.34765l.23438-.05859.46484-.11718.75781-.17188.23438-.0586h.34765l.41016-.11718.28906-.0586 1.28516-.05859h.28906l.41016-.0586.23047-.05858h.17578l.875-.1172h.40625l.41015-.11718h.34766l.35156-.11328.8711-.0586h1.75l1.04687.28907.41016.11719.28906.11718.35156.11719.28907.11719 1.05078.17187.28906.0586h.29297l.29297.05859.17187.0586.41016.05859.17187.0586.1172.05858h.11718l.11719.0586.35156.0586h.11328l.41016.0664 1.92187.39453 1.92578.39453 1.51953.44922 1.69532.71875 2.14453.80469 1.60547-.71875 1.42968-.80469 1.16016-1.07813 1.25-.44921 3.03516-.71875 1.875-.35938 2.14453-1.34765 2.23437-1.25391 2.5-1.25781 1.69531-.44922 1.78516-.17969 1.16016-.26953.625.53906 1.33984-.26953.71485-.98828.98437-1.34375.44531-.17969.80469-.35937 1.875-.53907 1.78516-.44921 1.25-.26954 1.16015-.08984 1.69922-.08984 1.96094-.26954 1.25-.08984h.53906l.625-.08984h.89063l2.14453-.17969 2.41015-.17969 2.58985-.08984 1.69531.17969 1.60938.08984 1.42968.35938 1.16016.71875 1.875.98828 1.16015 1.52734.26563.71484.6289.08985.35548.89844.53515.53906.53516 1.52734 1.07422.35938h.53515l-.80469.53515.08985 1.70703.71484 2.69532.89063.80468.89453.98829.71484 1.2578 1.78516.53907 1.51953-.17969.35547 1.34375 1.60937-.80469.98047-.53906.26953.26953.31641-.21484.21875-.14453.80078.44922.44922-.35938h.35547l.53515-.26953.53907-.71875.53515-.26953.625-.98828 1.16016.44922.83984.3711 1.39454.61718 1.6953-.17969h1.60548l1.78515.08985.17969-1.70704.53516-1.34375.80468.26954.4922.84765.40233.40625-.08984.53906v.35938l.71485.44922.71093-.26953h1.42969l.35938.98828.4453 1.25781.71485 1.34375 1.25.6289 1.69531.62891.71485-.17969.17969-.53906.98046-.08984.44922.35937.08594 1.25782-.26563.6289-.53515.17969v.53906l.71484.98438.26563.53906.98437.98828.80078 1.07813-.26562.35937-.08985.89844-.625 2.33203-.35546 2.0664-.08985 1.79298-.17969.71875-.08984.53906v1.4375l-.98047 1.88281-.35937 1.70703-.53516.89844-.80469 1.16797-.26562.53906 2.05469 1.2539.08593.35938-.35546.53906-.08985-.17968v.80859l.08985 1.4375-.44532.71484-1.07422.09375-.26562.71485.53515.89844.8047.71875 1.16015.80859 1.33984.26953.44531.35938-.35546.44921-1.78907-.08984-1.25-.44922-.71484-.71875-.625-.08984-.17578 3.58984-.1875 1.3086h89.35937V311.70313h-55.26953v49.08203l.76172.125 3.28906.54296 2.02344 2.83594v2.7539l2.35156.33204 2.34766.33203h4.05078l-1.3789 4.16016-2.02344.70703-2.02344.70312-.54297.34375-2.59375 1.6172-.1875.11718-2.02344-2.07813-.73046-2.74218-2.67188-2.07813-1.375-3.5-.0664-.08203-1.95704-2.67188 2.75-1.41796v-49.08204H294.42187v91.41407l.1172.03125.1328.01172.07422.07421.10547.04688.08985.0586.08593.05859.08985.0586.29687.29687.0586.08984.03125.11719.02734.11719.01563.13671-.03125.1172-.0586.08983-.0586.08594-.04296.10547-.04688.10156-.02734.1211v.14453l.17578.26953.14844.14844.07422.08594.07422.07421.04296.10547.0625.08985.0586.08593.04297.10547.0586.08985.04687.10156.04296.10547.0586.08594.11719.17968.07421.07422.0625.08594.0586.08984.04297.10547.0586.08985.05858.08593.0625.08985.0586.08984.04297.10156.11719.17969.07421.07422.0586.08594.07422.07421.08984.0586.10547.04687h.14844l.1328-.01562.13282.01562.10156-.04687.07422-.07422.04688-.10156-.01563-.13281v-.14844l-.04687-.10547-.02735-.11719-.04687-.10156-.02735-.1211-.04296-.10156-.0625-.08984-.04297-.10156-.04297-.10547-.03125-.11719-.01563-.13281-.01171-.13672.08593-.0586.0586-.08593.12109-.03125.04297.10547.01562.1328v.1172l.0586.10156.0586.08984.08983.0586.14844.14843.0586.08985.04296.10547-.01171.10156.08593.0586.10547.04687.08594.0586.08984.05858.07422.07422-.11719.02735-.10546.04687-.08594.0586-.07422.07421-.0586.08985-.0625.08594-.02734.12109-.04687.10156-.04297.10547-.03125.11719-.01172.13281-.01563.13281v.14844l.02735.11719.04687.10547.04297.10156.0586.08984.07421.07422.08985.0586.07422.07421.08984.0586.0586.08984.04296.10547.04688.10156.11719.03125.1328.01563h.14845l.11718-.03125.10547.04297.04297.10547.04688.10156.02734.1211L299.5 410l.02734.11719.03125.1211.02735.11718.10547.04297.10156.04687.13281-.01562.14844.14844.0625.08593.07422.07422.07031.07422.08984.0625.10547.04297.10156.04297.1172.03125.13671.01562.11719-.03125.07422-.07422.02734-.11718-.01172-.13282-.03125-.12109-.02734-.11719.04297-.10547h.11719l.08984.0625.11719.02735h.14843l.13282.01562h.14843l.13282.01563.1328-.01563h.14845l.1328-.01562.13282-.01172.13672.01172.11719-.02735.13281-.01562.1914-.0586-.05859.17579-.01562.1328-.02735.1211-.01562.13281-.0586.08594-.1328.01563-.10548.04687-.10546.04297-.1172.03125-.11718.02735-.26563.03125h-.14843l-.13281.01562-.07422.07422.05859.08594.14844.14843.11719.1797.07421.0703.08985.0625.08984.0586.08594.0586.08984.05858.10156.04297.10547.0625.10547.04297.08594.0586.10547.04687.10156.04297.17969.11719.0586.08984-.04298.10156-.04687.10547.01562.13281.22266.22266.0586.08985.04296.10156.03125.1211.04297.10155.01563.13282.03125.11718.01171.13672.03125.11719.14844.14844.10156.04297.10547.04296.1172.03125.1328.01563.13672.01563h.11719l.11719-.03125.08984-.0586.04297-.10547.04688-.10156.04296-.10547.03125-.11719.01172-.1328v-.14845l-.01172-.1328-.01562-.13282-.03125-.11719-.04297-.10547-.04688-.10547-.04296-.10156-.04297-.10547-.01563-.13281.01563-.13281.02734-.11719.03125-.11719.02735-.1211.04687-.10155.08984-.0586.08594-.0625.07422-.07422.08984-.05859.22266-.22266.0586-.08593.07421-.07422.11719-.17969.0586-.08594v-.14844l-.07423-.07421-.10156-.04688-.10547-.04297-.10156-.04297-.0586-.08984-.04687-.10547-.02734-.11719.08984-.05859.11719-.03125.10156-.04297.17969-.11719.14844-.14843.01172-.13282-.01172-.10546-.08985-.0586-.1328.01563h-.14845l-.1328.01562-.13282-.01562-.1211-.03125-.08593-.0586-.07422-.07422-.0586-.08984-.0625-.08594-.11718-.17969-.0586-.08593.03125-.1211.08594-.05859.1211-.03125.05859-.08594v-.1211l-.03125-.11718-.0586-.08984-.05859-.08594-.04687-.10547-.02735-.11719-.01562-.1328.0586-.08985.07421-.07422.08984-.0586.1172-.17968.07421-.07422.0586-.08594.14843-.14844.1211-.03125.1328-.01562.13282.01562.07422.07422.04297.10547.01562.13281-.03125.1172-.11719.03124-.1328.01172-.14844.14844-.04297.10547-.04688.10156-.02734.1211-.03125.11718v.14844l.03125.11719.04297.10546.05859.08985.07422.07031.07422.07422.11719.03125.12109.02734.11719-.02734.1328-.01563h.1172l.08984.0586.07422.07422.04687.10546.0586.08594.10156.04688.13281.01562.10547.04297.08594.0586-.01172.10546-.07422.07422-.17969.11719-.05859.08984-.08984.0586-.07032.07422-.07421.07421-.0625.08985-.02735.11719-.01562.1328.01562.13282-.01562.13281v.14844l.01562.13281.02735.1172.03125.12108.07421.07422.08985.0586.08594.0586.08984.05858.11719.03125v.08594l-.10157.04688-.08984.0586-.26563.03124-.11718.02735h-.14844l-.10547.04296-.10156.04688-.0586.08984-.0625.23438-.01171.13281-.03125.1211-.01563.1328v.29298l-.01172.1328.01172.13673.01563.1328.1328.01563.13282.01172.1211.03125.08593.0586.07422.07421.04688.10547.04296.10157.01563.1328v.44532l-.01563.13281v.44532l.03125.26562.02735.11719.01562.13281.03125.11719.08594.21094.03125.26562v.14844l-.03125.11719-.02734.11718-.03125.1211-.02735.11719-.03125.11718-.03125.1211-.01171.1328-.01563.13282.08984.0586.1172-.03125.10155.01562.04688.10547-.03125.26562v.44141l-.04297.10547-.04688.10547-.04296.10156-.04297.10547-.0586.08594-.03125.12109-.04296.11719-.03125.11719-.01563.1328.01563.13282.05859.08984.10547.04688.08594.0586.05859.08593-.01172.13672-.03125.11719-.04297.10156v.44531l-.01562.13281v.14844l-.03125.11719-.04297.10547-.02735.11719-.04687.10546-.04297.10157-.03125.12109-.02734.11719-.03125.13281-.03125.11719-.02735.11719-.04297.10546-.03125.1172-.03125.12108-.01171.13282-.01563.13281v.29688l.02734.11718v.14844l.04688.39844.02734.11719.0586.08984.12109.03125h.14844l.13281-.01563.0586.08985v.11719l-.0586.08984-.08984.0586-.10157.04296-.10546.04688-.08985.05859-.08594.0586-.13671.01562-.1172-.03125-.1328-.01563-.10157.04688-.0625.08594-.01172.13671-.01562.13282-.03125.11719-.02735.11718-.01562.13281-.03125.1211v.29687l.01563.13282.03125.11718v.14844l.01171.13281v.14844l-.02734.11719-.04688.10156-.02734.1211-.03125.11718-.0586.08985-.07421.07421-.10156.04297-.10547.04688-.11719.02734-.1211.03125-.10156-.04687.0586-.08594.10547-.04688.02734-.11718.03125-.11719.02734-.1211.03125-.11718v-.14844l.01563-.13281-.03125-.11719-.04297-.10547-.10547.01563-.07422.07422-.10156.04296-.08984.0625-.07422.07422-.04297.10157-.01563.1328-.03125.1172L304.25 426l-.03125.11719-.02734.11719-.03125.12109-.02735.11719-.03125.11718-.04297.10547-.08984.0586h-.08984l-.1172-.03125-.03124-.08594.01562-.13672-.03125-.11719v-.14844l-.01171-.1328v-.14844l-.0625-.23438-.02735-.1211-.04297-.10156-.04687-.10546-.0586-.08594-.05859-.08985-.04297-.10546-.0625-.08594-.14844-.14844-.0703-.07422-.10548-.04687-.10547-.04297-.10156-.04297-.29687-.29688-.08985-.07421-.08594-.0586-.10546-.04297-.08985-.0625-.08594-.0586-.10546-.04296-.08985-.0586-.08594-.0625-.07421-.0703-.10547-.04688-.08594-.0586-.10547-.04296-.08984-.0625-.10156-.04297-.10547-.04297-.08594-.0586-.10547-.04687-.10547-.04297-.10156-.04687-.08985-.0586-.10156-.04297-.10547-.04296-.08984-.0625-.11719-.02735-.13281-.01562-.13281.01562H299.75l-.13281.01563-.11719-.03125-.08984-.0586-.07422-.07422-.08985-.05859-.10156-.04688h-.14844l-.12109-.02734-.10156-.04297-.07422-.07422-.11719-.17968-.08984-.0586-.10156-.04297-.08985-.0625-.10547-.04296-.08984-.0586-.08594-.0586-.10547-.04687-.0586-.08594-.05858-.08984-.04297-.10547-.04688-.10156-.07422-.07422-.08594-.0586-.07421-.07421-.08985-.0586-.22265-.22265-.04297-.10547-.03125-.26563.10547-.04296h.14453l.10547.04296.07421.07422.08985.0586.08594.0586.10546.04687.08985.05859.14844.14844.0703.07422.14845.14843.0625.08594.07421.07422.08594.0586.07422.07421.08985.0625.08984.0586.08594.05859.26953.17578.10156.04688.10547.04296.10156.04297.04688-.07421.05859-.08594.07422-.07422.07031-.07422.10547.04297.07422.07422.0586.08984.04296.10156.04688.10547.04296.10547.1211.02735.11719-.02735.07421-.08984.04297-.10547.0586-.08985.07422-.07421.10546-.04297.1172-.02735.1328.01172.08985.0586.14844.14843.05859.08985.04297.10547.04687.10156.04297.10547.04297.10156.10547.04688.10547.04296.13281.01563.08594-.0586.0586-.08984.07421-.07422.10547-.04297.11719.02735.10547.04687.10156.04297.10547.04297.10156.04688.17969.11718v.11719l-.01563.13281.01563.13281.01562.13672.0586.08594.10156.04688.1211.02734.11718.03125h.14844l.11719-.03125.05859-.08984.17969-.1172.05859-.08983.07422-.07422.0586-.08594.11718-.17969.17969-.11719.11719.03125.08984.0586.04297.07422-.01563.1328v.1172l.08985.05859h.14843l.13282-.01563.1328-.01171.26563-.03125.10547-.04297.11719-.03125.1211-.02735.07421-.07421.07031-.07422.0625-.08985-.01562-.10547-.04688-.10156-.10156-.04297-.10547-.01562-.11718.02734-.26563.03125h-.14844l-.07421-.07422-.08985-.0586-.11719-.03124-.11718-.02735-.13282-.01562h-.14843l-.13282.01563h-.29687l-.10547-.04688-.14844-.14844-.04297-.10156-.05859-.08984.22266-.22266.08593-.0586.10547-.04296.11719-.03125.13281-.01563.13281.01563.13672.01562.10157.04297.1328-.01172.08985-.0625.10156-.04297.0625-.08984-.04687-.10156-.08984-.0586-.1172-.03125-.10155-.04296-.0586-.08985-.0625-.08984v-.11719l.01563-.13281.10547-.04688.07421-.07031v-.1211l-.08984-.05859-.03125-.11719.08985-.05859.07421-.07422.04297-.10547.0586-.08984.04687-.10156.01563-.13281v-.14844l-.04688-.10547-.04297-.10156-.08984-.0586-.13281-.01562-.10157-.04297-.13671-.01563-.1172-.03125h-.4453l-.13282-.01562-.13281-.01172-.13281-.01563-.11719-.03125h-.14844l-.13281-.01562-.13281-.01172-.26563-.03125-.1211-.04297-.08593-.0586-.07422-.07421v-.14844l.01172-.13281.10547-.04688.10156-.04296.13281-.01563h.15235l.13281-.01562h.29297l.1211.03125.10156.04296.08984.0586.23438.0625.12109-.04688.08984-.05859.10156-.04297.13282-.01562.10547.04296.10156.04688.13281.01172.1211-.02735h.14453l.12109-.03125.11719-.02734.10547-.04687.07421-.07422.08594-.0586.14844-.14843.0586-.08594.04687-.10547.02734-.11719.01563-.10547-.10156-.04296-.08985-.0586-.11719-.03125-.10546-.04297-.08985-.0625-.07422-.08594-.07422-.07421-.10156-.04297-.10547-.04688-.10156-.04297-.0586-.08984-.04687-.10156-.08594-.21094-.0625-.08594-.05859-.08984-.07422-.07422-.08594-.0586h-.26953l-.11719.03126-.08984.05859-.10156.04297-.13281.01562-.10547-.01562-.02735-.11719-.0625-.08984-.11718-.03125-.10157-.04297-.14843-.14844-.03125-.11719-.01563-.10546.07422-.07422.17969-.1172.11719-.02733.11718-.03125.13672.01562.10156.04297.10547.04297.10156.04687.10547.04297.1172.03125.1328.01563.1172.02734.1328.01563.10547-.01563.08985-.0586-.07422-.07421-.10547-.04297-.07422-.07422-.07422-.08984-.14844-.14844-.08593-.0586-.08985-.05859-.07422-.07422-.08984-.0586-.10156-.04687-.1211-.02734-.10156-.04688-.10547-.04296-.11719-.03125-.10156-.04297-.1211-.03125h-.14843l-.11719.03125-.10546.04297-.08594.0625-.17969.11718-.08594.0586-.08984.0586-.10547.04687-.08594.05859-.10547.04297-.10156.04297-.10547.04687-.07422.07422-.05859.08985-.0586.08593-.04687.10547-.0586.08594-.07421.07422-.13281-.01172-.1172-.03125h-.11718l-.07422.07422-.08984.0586-.07422.07421-.08984.0586-.08594.05859-.10547.04687-.10156.04297-.13672.01563-.10156-.04297-.14844-.14844-.10547-.04688h-.08594l-.10547.04688-.10156.04297-.1211.03125-.11718-.03125-.07422-.07422v-.11719l.03125-.1211.07422-.0703.0586-.08985.07421-.07422.11719-.03125.10547-.04296h.29297l.13281-.01563.13672-.01563.10156-.04296.08985-.0586.10156-.04687.08984-.0586.13281-.01171.08985.05859.13281.01172.08984-.0586.08594-.05859.10547-.04297.08984-.0586.08594-.0625.08985-.05859.14843-.14843.0586-.08594.05859-.08985.10547-.04296.13281-.01563.11719.02735.1211.03125.05859-.0586.05859-.08984.03125-.26563.02734-.11719.10547.01172.13281.01563.10157-.04297.08984-.0586.0586-.08984.07421-.07422.0586-.08984.04687-.10156.01172-.13281-.01172-.13282-.04687-.10547-.14844-.14843-.0586-.08985-.05859-.08594-.04297-.10546v-.44532l.01563-.1328v-.14845l.01172-.1328-.0586-.0586-.08984.0586-.10156-.04298-.17969-.11719-.08594-.05859-.0625-.08984-.0586-.08985-.07421-.07421-.08594-.0586-.1211.03125-.10155.01172-.10547.04688-.08594.05859-.10547.04297-.14844.14844-.08984.05859-.08594.0586-.08984.0625-.10547.04296-.13281.01563v-.1211l.10547-.04297.11718-.03125.07422-.0703.04297-.10548v-.14844l-.02734-.11718-.14844-.14844-.13281-.01563h-.14844l-.11719.03125-.10547.04297-.10156.04297-.08984.0625-.11719.02735-.07422-.07422.01172-.13281-.04297-.10157-.04297-.10547-.08984-.05859-.11719.02734-.1211.03125-.11718.03125-.10156.04297-.1211.03125-.10156.04297-.10547.04297-.08984.0586-.10156.01562v-.11719l.01562-.13281-.0586-.08985-.07421.04297-.14844.14844-.0586.08985-.07421.07421-.04688.10547-.04296.10156-.07422.07422-.0586.08985-.07422.07422-.05859.08593-.07422.07422-.08984.0625-.07422.07031-.07422.07422-.10156.01563-.13281.01562-.10547-.04296v-.1211l.14843-.14844.04297-.10156.0586-.08984.04687-.10156.04297-.10547.0586-.08985.03124-.11719.04297-.10156.03125-.1211.02735-.11718.04687-.10547.04297-.10156.04297-.10547.07422-.07031.08984-.0625.08985-.0586.10156-.04296h.29687l.26563-.03125.10547-.04297-.07422-.07422-.11719-.03125-.10547-.04297-.08984-.0586-.10156-.04687-.08985-.0586-.10156-.04296-.10547-.04297-.08984-.0625-.08594-.0586-.10547-.04296-.10156-.04297-.1211-.03125-.11718-.03125-.10157-.04297L297.5 410.25l-.10156-.04297-.08985-.0586-.04296-.10546-.01563-.13281.10156-.04297.13281-.01563.13672.01563.13282-.01563.10156-.04297.0586-.08984.01562-.10547-.08985-.0586-.07421-.07421-.10157-.04297-.08984-.0586-.14844-.14843-.04297-.10547-.01562-.13281v-.29297l-.0586-.08985-.08984-.05859-.07422-.07422-.04297-.10547-.03125-.11718-.0586-.08985-.07421-.07422-.11719-.02734-.07422-.07422-.08984-.0586-.08984-.0625-.08594-.05859-.07422-.07421-.0586-.08594-.04687-.10547-.08594-.0586-.14843-.14843-.19532-.0586-.1328.01563-.10157.04297-.07422.07422-.04688.10156-.04296.10547-.0586.08984-.0586.08594-.29687.29687-.08984.0586h-.08594l-.0625-.08594-.04297-.10547.03125-.11719.0586-.08984.02734-.11719-.01172-.13281-.08984-.0625-.10547.04688-.11719.02734-.11719.03125-.26953.17578-.10156.04688-.11719.02734-.10546.04687-.08985.0586-.10156.04297-.0586-.08594-.04687-.10547.01563-.13281.04687-.10547.07031-.07422.07422-.07031.0586-.08985v-.14843l-.04297-.10547h-.23829l-.10156.04687-.03125.11719-.02734.11719-.03125.1211-.07422.04296-.13281.01563-.07422-.04688-.04297-.10156-.04297-.10547-.04687-.10156-.04297-.10547-.1211.03125-.10156.04297-.13281.01562-.11719.03125-.10547.04297-.08984.0586-.10156.04687-.1211.02734-.13281.01563-.10156-.04297-.0586-.08985-.04687-.10546-.04297-.10157-.04297-.10546v-.1172l.0586-.08984.08593-.05859.17969-.11719.10156-.04687.10547-.04297.10547-.0586.10156-.04296.08985-.0625.10156-.04297.10547-.0586.10156-.04687.08984-.0586.10547-.04296.10156-.04297.08985-.0625.10156-.04297.13672-.01563.11719.03125.10156.04297.1211.03125.10156.04297.10546.04688.10157.04296.10547.04297.10156.04688.10547.04297.10156.04297.10547.04687.08594.0586.10546.04296.1172.03125.10546.04297.10156.04688.08985.0586.10547.04296.10156.04297.10547.04687.11719.02735.10156.04687.1211.02735h.14843l.08594-.0586.01562-.10156.0586-.08984-.02735-.1172-.07422-.07421-.11719-.17969-.07421-.07422-.08985-.07421-.17969-.1172-.08593-.05859-.10547-.04296-.10156-.04688-.26954-.17578-.05859-.08985-.07422-.07421-.0586-.08985-.04296-.10156-.03125-.11719-.01563-.13672v-.5625l-.01171-.1328-.01563-.13282-.03125-.11719-.01562-.13281-.01172-.13281-.03125-.1211-.22266-.22265-.0586-.08594-.01562-.10547.03125-.11719.13281-.01562v-91.41406H172.9922v1.45312l-.0586.23438-.35156 1.05078-.17187.52343-.1172.34766-.17577.41016-.11719.17187-.23438.29297-.23046.0586h-.35157l-.11718.05859-.23047.40625v.29297l.11719.17578.23046.23047.1172.23437.64062.75781.29297.46485.17578.23437.23047.35156.23437.34766.64063.8164.17578.46485.17187.41016.11719.69531.17578.46875.11719 1.39844.0586.46484v.875l.11718 1.04688v4.78125l-.0586.46484-.35156 1.28125-.17578.52344-.11328.41015-.35156.9297L172.93359 336l-.23437.58203-.11719.17578-.17187.34766-.17578.40625-.35157.8164-.0586.29297-.11327.29297-.11719.28906-.0586.17579-.11718.875-.0586.40625-.05859.11718-.0586.17579-.05859.17187-.23047.52734-.11718.17188v.23437l-.11719.23438-.0586.17187-.17577.58594v.28906l-.0586.17579v.29296l-.0586.11329-.05859.52734v.17187l-.05468.23438v2.6211l-.17578.8164-.1172.17578-.17577.23438-.1172.17187-.11327.23438-.58594.93359-.23047.28906-.29297.46485-.17578.23437-.28906.35156-.35156.69922-.11328.23047-.17579.41016-.17578.23046-.40625.52735-.8164.69922-.29297.17187-.28906.23438-.17579.11719-.17578.17578-.52344.40625-.52734.17578-.17187.17578-.23438.05469-.64062.17578h-.75782m12.21094 31.02344l-1.07422.44921.35938.89454 1.25-.71485.44531-.53906-.98047-.08985"/><path fill="#d3d3d3" fill-opacity="0" fill-rule="evenodd" d="M201.50781 416.59766h-.89453l.44922.6289.98047.35938.80469-.08985.4453-.98828-.17577.08985-.71485-.35547-.89453.35547m154.6211 59.0703l-.0586-.52343v-.29297l.11328-.29297.0586-.23046.46875-.46875h.11328l.11719-.11329.11718-.05859h.17579l.23437-.0586h.34766l.23437.0586.11719.0586.23047.17187.0586.17578.11718.58203v.29297l-.11719.17578-.17187.28906-.17579.17579-.52734.52343-.23047.23438-.11719.0586h-.17578l-.11718-.0586-.40625-.29297-.17579-.11719-.11718-.0586-.0586-.11327-.05468-.1172m6.64062-10.95702l-.0586-.17188v-1.10937l.0586-.17188.17578-.0586.17188-.05858h.17578l.23437-.0586.1172.0586.05858.69921-.05859.17188-.11719.17578-.11718.0586-.23438.52343-.11328.0586h-.23438l-.05859-.1172m9.61328-14.39062l-.11719-.17578v-.69922l.29297-.875.1172-.17187.17577-.35156.11328-.23047.1172-.29297.35155-.75781.1172-.23047.17187-.23438h.17578l.11719-.0586h.64062l.11719.0586.23437.23438.17188.11328.35156.29297.11719.11718.11328.17579v.11328l.11719.05859.11718.11719v.69922l-.05859.17578v.23047l-.0586.17578-.34765 1.05078-.11719.23047-.11719.23437-.11718.0586-.23047.23437-.64063.28906h-.875l-.41015-.11718-.64063-.46485"/><path fill="none" stroke="#bebebe" stroke-linecap="round" stroke-linejoin="round" stroke-miterlimit="10" stroke-width=".5" d="M467.95703 311.69531H144.02734v168.625h323.9297v-168.625"/><g clip-path="url(#a)"><path fill="#fff" fill-opacity="0" fill-rule="evenodd" d="M144 475.89063v4.4375h.0039H144V311.67188h.0039H144v164.21875"/></g><g clip-path="url(#b)"><path fill="#fff" fill-opacity="0" fill-rule="evenodd" d="M144.0039 480.32813V311.67188h17.75v120.30078l-3.03906 3.97265-.84375 4.4375.00782 4.4375-.28125 4.4414-.28125 4.39454-.01953.04297-1.69532 4.4375.53906 4.4375.79297 4.4414.38282 1.04688 4.4375-.10938L166.1914 469l2.51172-1.98438 1.92578-.64843 4.4375-1.32422 4.4414-2.20703.54688-.26172 3.6289-4.4375-4.17578-4.35156-.03125-.08594-4.41015-4.30469-.0586-.13281-1.69531-4.4414-2.6836-3.52344-1.46484-.91407-2.97265-1.35937-1.57422-3.07813-2.86328-3.97265V311.67187h168.65625v150.28516l-.91407.61719.91407.67578 2.1914-.67578-2.1914-.61719V311.67188h22.1914v147.96875l-4.4375 2.16015-4.4375-.63672-3.76953 1.41016 3.76953 1.54687 4.4375-.67578 4.4375 1.4414 4.4414-1.92968.60548-.38281-.60547-.82422-4.4414-2.10938V311.67188h35.5078V453.8125l-4.4375 3.83984-4.4375-3.48437-3.78906 3.96875 3.78906 3.72265.26172.71485 4.17579 4.29297.30078.14844-.30079.2539-2.92968 4.1836 2.92969 3.58203 3.29296-3.58204 1.14454-1.3125 4.4375-1.55859 2.4414-1.5664-2.4414-3.33204-.20313-1.10937-1.00781-4.4375-3.22656-4.32422V311.67187h79.88671v168.65625H420.625l-1.44531-.48437-.48047.48438H144.0039"/></g><path fill="#50fcfc" fill-rule="evenodd" d="M156.14063 462.57422l-.53907-4.4375 1.69531-4.4375.01954-.04297.28125-4.39453.28125-4.4414-.00782-4.4375.84375-4.4375 3.03907-3.97266v4.04687l-2.07813 4.36328-.50781 4.4375-.36719 4.4414.1836 4.4375-.1836 4.4375 2 4.4375.95313.89845 4.4375.46093 2.78906-1.35937 1.64844-.5664 4.4375-1.15626 2.70312-2.71484-1.4961-4.4375-1.20702-1.17578-1.46485-3.26172-2.97265-3.52735-1.1797-.91406-3.2578-2.94531-1.76953-1.49219-2.66797-4.36328v-4.04687l2.86328 3.97265 1.57422 3.07813 2.97265 1.35937 1.46485.91406 2.68359 3.52344 1.69531 4.4414.0586.13282 4.41015 4.30469.03125.08594 4.17578 4.35156-3.6289 4.4375-.54688.26172-4.4414 2.20703-4.4375 1.32422-1.92578.64844L166.1914 469l-4.4375-1.04688-4.4375.10938-.38282-1.04688-.79297-4.4414"/><path fill="#00e8fc" fill-rule="evenodd" d="M158.98438 453.69922l-.1836-4.4375.36719-4.4414.50781-4.4375 2.07813-4.36329v7.05469l-.4336 1.7461-.51172 4.4414.94532 4.38672.03125.05078 4.40625 3.05078 4.4375.17578 1.28515-3.22656-.66015-4.4375-.625-.73828-4.4375-3.26563-1.44922-.4375-2.98828-1.7461v-7.05468l2.66797 4.36328 1.76953 1.49219 3.2578 2.94531 1.1797.91406 2.97265 3.52735 1.46485 3.26172 1.20703 1.17578 1.4961 4.4375-2.70313 2.71484-4.4375 1.15625-1.64844.5664-2.78906 1.35938-4.4375-.46093-.95313-.89844-2-4.4375.1836-4.4375"/><path fill="#00d4fc" fill-rule="evenodd" d="M161.7539 453.64844l-.9453-4.38672.51171-4.4414.4336-1.7461 2.98828 1.7461 1.44922.4375 4.4375 3.26562.625.73828.66015 4.4375-1.28515 3.22656-4.4375-.17578-4.40625-3.05078-.03125-.05078"/><path fill="#50fcfc" fill-rule="evenodd" d="M330.41016 463.25l-.91407-.67578.91407-.61719 2.1914.61719-2.1914.67578m13.3164.8711l-3.76953-1.54688 3.76953-1.41016 4.4375.63672 4.4375-2.16015 4.4414 2.10937.60548.82422-.60547.38281-4.4414 1.92969-4.4375-1.4414-4.4375.67577m35.5078-2.26171l-3.78906-3.72266 3.78906-3.96875 4.4375 3.48437 4.4375-3.83984v4.7539l-4.4375 2.8047-1.09375 1.20312 1.09375 1.1211 4.4375 2.26171 2.26954-3.38281-2.26954-4.00781v-4.75391l3.22657 4.32422 1.00781 4.4375.20313 1.10937 2.4414 3.33204-2.4414 1.5664-4.4375 1.5586-1.14454 1.3125-3.29296 3.58203-2.9297-3.58204 2.9297-4.18359.30078-.2539-.30079-.14844-4.17578-4.29297-.26171-.71485"/><path fill="#00e8fc" fill-rule="evenodd" d="M383.67188 463.69531l-1.09375-1.1211 1.09375-1.20312 4.4375-2.80468 2.26953 4.0078-2.26954 3.38282-4.4375-2.26172"/><g clip-path="url(#c)"><path fill="#50fcfc" fill-rule="evenodd" d="M418.69922 480.32813l.48047-.48438 1.44531.48438h-1.92578"/></g><g clip-path="url(#d)"><path fill="#fff" fill-opacity="0" fill-rule="evenodd" d="M467.9961 480.32813H468V311.67188h-.0039H468v168.65625h-.0039"/></g><g clip-path="url(#e)"><path fill="none" stroke="#000" stroke-linecap="round" stroke-linejoin="round" stroke-miterlimit="10" stroke-width=".5" d="M147.48438 480.76563l-6.96875-.875"/></g><g clip-path="url(#f)"><path fill="none" stroke="#000" stroke-linecap="round" stroke-linejoin="round" stroke-miterlimit="10" stroke-width=".5" d="M147.48438 480.76563l.875 2.29296"/></g><g clip-path="url(#g)"><path fill="none" stroke="#000" stroke-linecap="round" stroke-linejoin="round" stroke-miterlimit="10" stroke-width=".5" d="M146.47266 480.63672l.4375 1.14844"/></g><g clip-path="url(#h)"><path fill="none" stroke="#000" stroke-linecap="round" stroke-linejoin="round" stroke-miterlimit="10" stroke-width=".5" d="M160.78906 480.85547l-6.94922-1.05078"/></g><g clip-path="url(#i)"><path fill="none" stroke="#000" stroke-linecap="round" stroke-linejoin="round" stroke-miterlimit="10" stroke-width=".5" d="M160.78906 480.85547l.8164 2.3125"/></g><g clip-path="url(#j)"><path fill="none" stroke="#000" stroke-linecap="round" stroke-linejoin="round" stroke-miterlimit="10" stroke-width=".5" d="M159.77734 480.70313l.40625 1.15625"/></g><g clip-path="url(#k)"><path fill="none" stroke="#000" stroke-linecap="round" stroke-linejoin="round" stroke-miterlimit="10" stroke-width=".5" d="M174.1211 480.73047l-6.98048-.80469"/></g><g clip-path="url(#l)"><path fill="none" stroke="#000" stroke-linecap="round" stroke-linejoin="round" stroke-miterlimit="10" stroke-width=".5" d="M174.1211 480.73047l.89452 2.28515"/></g><g clip-path="url(#m)"><path fill="none" stroke="#000" stroke-linecap="round" stroke-linejoin="round" stroke-miterlimit="10" stroke-width=".5" d="M173.10547 480.61328l.44922 1.14453"/></g><g clip-path="url(#n)"><path fill="none" stroke="#000" stroke-linecap="round" stroke-linejoin="round" stroke-miterlimit="10" stroke-width=".5" d="M187.4414 480.67578l-6.99218-.6914"/></g><g clip-path="url(#o)"><path fill="none" stroke="#000" stroke-linecap="round" stroke-linejoin="round" stroke-miterlimit="10" stroke-width=".5" d="M187.4414 480.67578l.9336 2.26563"/></g><g clip-path="url(#p)"><path fill="none" stroke="#000" stroke-linecap="round" stroke-linejoin="round" stroke-miterlimit="10" stroke-width=".5" d="M186.42578 480.57422l.46484 1.13281"/></g><g clip-path="url(#q)"><path fill="none" stroke="#000" stroke-linecap="round" stroke-linejoin="round" stroke-miterlimit="10" stroke-width=".5" d="M200.76953 480.5039l-7.01953-.35156"/></g><g clip-path="url(#r)"><path fill="none" stroke="#000" stroke-linecap="round" stroke-linejoin="round" stroke-miterlimit="10" stroke-width=".5" d="M200.76953 480.5039l1.04297 2.22266"/></g><g clip-path="url(#s)"><path fill="none" stroke="#000" stroke-linecap="round" stroke-linejoin="round" stroke-miterlimit="10" stroke-width=".5" d="M214.08203 480.53906l-7.01562-.42187"/></g><g clip-path="url(#t)"><path fill="none" stroke="#000" stroke-linecap="round" stroke-linejoin="round" stroke-miterlimit="10" stroke-width=".5" d="M214.08203 480.53906l1.01953 2.23047"/></g><g clip-path="url(#u)"><path fill="none" stroke="#000" stroke-linecap="round" stroke-linejoin="round" stroke-miterlimit="10" stroke-width=".5" d="M227.375 480.78516l-6.96875-.91016"/></g><g clip-path="url(#v)"><path fill="none" stroke="#000" stroke-linecap="round" stroke-linejoin="round" stroke-miterlimit="10" stroke-width=".5" d="M227.375 480.78516l.85938 2.29687"/></g><g clip-path="url(#w)"><path fill="none" stroke="#000" stroke-linecap="round" stroke-linejoin="round" stroke-miterlimit="10" stroke-width=".5" d="M240.67578 480.88281l-6.9414-1.10937"/></g><g clip-path="url(#x)"><path fill="none" stroke="#000" stroke-linecap="round" stroke-linejoin="round" stroke-miterlimit="10" stroke-width=".5" d="M240.67578 480.88281l.79297 2.32031"/></g><g clip-path="url(#y)"><path fill="none" stroke="#000" stroke-linecap="round" stroke-linejoin="round" stroke-miterlimit="10" stroke-width=".5" d="M254.01563 480.67969l-6.9922-.70313"/></g><g clip-path="url(#z)"><path fill="none" stroke="#000" stroke-linecap="round" stroke-linejoin="round" stroke-miterlimit="10" stroke-width=".5" d="M254.01563 480.67969l.92968 2.26953"/></g><g clip-path="url(#A)"><path fill="none" stroke="#000" stroke-linecap="round" stroke-linejoin="round" stroke-miterlimit="10" stroke-width=".5" d="M267.34375 480.16797l-7.01953.32031"/></g><g clip-path="url(#B)"><path fill="none" stroke="#000" stroke-linecap="round" stroke-linejoin="round" stroke-miterlimit="10" stroke-width=".5" d="M266.32422 480.21484l.625 1.0586"/></g><g clip-path="url(#C)"><path fill="none" stroke="#000" stroke-linecap="round" stroke-linejoin="round" stroke-miterlimit="10" stroke-width=".5" d="M280.60547 479.69531l-6.91016 1.26953"/></g><g clip-path="url(#D)"><path fill="none" stroke="#000" stroke-linecap="round" stroke-linejoin="round" stroke-miterlimit="10" stroke-width=".5" d="M279.60156 479.8789l.76172.96094"/></g><g clip-path="url(#E)"><path fill="none" stroke="#000" stroke-linecap="round" stroke-linejoin="round" stroke-miterlimit="10" stroke-width=".5" d="M293.45703 478.48438l-5.98047 3.6875"/></g><path fill="none" stroke="#000" stroke-linecap="round" stroke-linejoin="round" stroke-miterlimit="10" stroke-width=".5" d="M292.58594 479.01953l1.0586.6211"/><g clip-path="url(#F)"><path fill="none" stroke="#000" stroke-linecap="round" stroke-linejoin="round" stroke-miterlimit="10" stroke-width=".5" d="M305.46094 477.24219l-3.35938 6.17187"/></g><path fill="none" stroke="#000" stroke-linecap="round" stroke-linejoin="round" stroke-miterlimit="10" stroke-width=".5" d="M304.97266 478.14063l1.22656.01171"/><g clip-path="url(#G)"><path fill="none" stroke="#000" stroke-linecap="round" stroke-linejoin="round" stroke-miterlimit="10" stroke-width=".5" d="M317.61328 476.85156l-1.03515 6.95313"/></g><path fill="none" stroke="#000" stroke-linecap="round" stroke-linejoin="round" stroke-miterlimit="10" stroke-width=".5" d="M317.46094 477.86328l1.15625-.41015"/><g clip-path="url(#H)"><path fill="none" stroke="#000" stroke-linecap="round" stroke-linejoin="round" stroke-miterlimit="10" stroke-width=".5" d="M330.27344 476.8164l.27734 7.02344"/></g><g clip-path="url(#I)"><path fill="none" stroke="#000" stroke-linecap="round" stroke-linejoin="round" stroke-miterlimit="10" stroke-width=".5" d="M343.32422 476.83984l.80469 6.98047"/></g><path fill="none" stroke="#000" stroke-linecap="round" stroke-linejoin="round" stroke-miterlimit="10" stroke-width=".5" d="M343.4414 477.85547l1.00782-.69922"/><g clip-path="url(#J)"><path fill="none" stroke="#000" stroke-linecap="round" stroke-linejoin="round" stroke-miterlimit="10" stroke-width=".5" d="M356.26563 476.90234l1.55078 6.85157"/></g><path fill="none" stroke="#000" stroke-linecap="round" stroke-linejoin="round" stroke-miterlimit="10" stroke-width=".5" d="M356.49219 477.89844l.92969-.80078"/><g clip-path="url(#K)"><path fill="none" stroke="#000" stroke-linecap="round" stroke-linejoin="round" stroke-miterlimit="10" stroke-width=".5" d="M368.59766 477.28516l3.51562 6.08593"/></g><path fill="none" stroke="#000" stroke-linecap="round" stroke-linejoin="round" stroke-miterlimit="10" stroke-width=".5" d="M369.10938 478.17188l.65234-1.03907"/><g clip-path="url(#L)"><path fill="none" stroke="#000" stroke-linecap="round" stroke-linejoin="round" stroke-miterlimit="10" stroke-width=".5" d="M380.29688 479.35547l6.75 1.94531"/></g><path fill="none" stroke="#000" stroke-linecap="round" stroke-linejoin="round" stroke-miterlimit="10" stroke-width=".5" d="M381.27734 479.64063l-.2539-1.20313"/><g clip-path="url(#M)"><path fill="none" stroke="#000" stroke-linecap="round" stroke-linejoin="round" stroke-miterlimit="10" stroke-width=".5" d="M393.58203 481.19922l6.8086-1.74219"/></g><g clip-path="url(#N)"><path fill="none" stroke="#000" stroke-linecap="round" stroke-linejoin="round" stroke-miterlimit="10" stroke-width=".5" d="M394.57422 480.94531l-.82813-.90625"/></g><g clip-path="url(#O)"><path fill="none" stroke="#000" stroke-linecap="round" stroke-linejoin="round" stroke-miterlimit="10" stroke-width=".5" d="M407.36719 482.26172l5.8711-3.86328"/></g><g clip-path="url(#P)"><path fill="none" stroke="#000" stroke-linecap="round" stroke-linejoin="round" stroke-miterlimit="10" stroke-width=".5" d="M408.21875 481.69922l-1.07422-.58985"/></g><g clip-path="url(#Q)"><path fill="none" stroke="#000" stroke-linecap="round" stroke-linejoin="round" stroke-miterlimit="10" stroke-width=".5" d="M427.09766 479.85156l-6.96094.95313"/></g><g clip-path="url(#R)"><path fill="none" stroke="#000" stroke-linecap="round" stroke-linejoin="round" stroke-miterlimit="10" stroke-width=".5" d="M439.80469 478.3086l-5.7461 4.03906"/></g><path fill="none" stroke="#000" stroke-linecap="round" stroke-linejoin="round" stroke-miterlimit="10" stroke-width=".5" d="M438.96875 478.89844l1.09375.55469"/><g clip-path="url(#S)"><path fill="none" stroke="#000" stroke-linecap="round" stroke-linejoin="round" stroke-miterlimit="10" stroke-width=".5" d="M451.69531 477.1289l-2.89844 6.39844"/></g><path fill="none" stroke="#000" stroke-linecap="round" stroke-linejoin="round" stroke-miterlimit="10" stroke-width=".5" d="M451.69531 477.1289l2.44922-.15624"/><g clip-path="url(#T)"><path fill="none" stroke="#000" stroke-linecap="round" stroke-linejoin="round" stroke-miterlimit="10" stroke-width=".5" d="M465.32422 477.28906l-3.52344 6.07813"/></g><path fill="none" stroke="#000" stroke-linecap="round" stroke-linejoin="round" stroke-miterlimit="10" stroke-width=".5" d="M464.8125 478.17188l1.22266.04687"/><g clip-path="url(#U)"><path fill="none" stroke="#000" stroke-linecap="round" stroke-linejoin="round" stroke-miterlimit="10" stroke-width=".5" d="M147.51172 467.03906l-7.02344-.05078"/></g><path fill="none" stroke="#000" stroke-linecap="round" stroke-linejoin="round" stroke-miterlimit="10" stroke-width=".5" d="M147.51172 467.03906l1.13672 2.17188m-2.15625-2.17969l.5664 1.08594m13.75782-.78906l-7-.62891m7 .6289l.95312 2.26172m-1.97266-2.35547l.47657 1.13282m13.84375-.9375l-6.97656-.83203m6.97656.83203l.89062 2.28515m-1.90234-2.40625l.4414 1.14454m13.90625-1.22266l-7.01562-.4336m7.01563.4336l1.01562 2.23437m-2.03906-2.29687l.50781 1.11719m13.8164-1.65235l-6.98827.76172m6.98828-.76172l1.3789 2.02735m-2.39453-1.91797l.6875 1.01562m13.64453-1.08593l-6.99219.68359m6.9922-.6836l1.35937 2.04297m11.95312-2.09375l-6.98437.78516m6.98437-.78516l1.38672 2.02344m11.89844-2.23828l-6.92188 1.21484m6.92188-1.21484l1.50781 1.9375m11.6836-2.42578l-6.67579 2.1914m6.67578-2.1914l1.76954 1.69922m11.49609-1.83985l-6.57813 2.47266m6.57813-2.47266l1.83984 1.6211m11.21875-2.16016l-6.0664 3.55078m6.0664-3.55078l2.08985 1.28906m10.94531-1.6953l-5.50781 4.36327m5.50781-4.36328l2.25.98438m10.99219-1.07422l-5.36328 4.54297m5.36328-4.54297l2.28125.91015m10.67187-1.28125l-4.63672 5.28516m3.96094-4.51562l1.19531.28125m12.46485-1.3047l-3.97657 5.79298m3.39844-4.94922l1.21875.13672m12.82031-.87891l-4.26562 5.58984m3.64453-4.77343l1.21094.19922m11.6289-1.57813l-2.0703 6.71484m2.0703-6.71484l2.40625-.46094m10.63672.39063l-1.52734 6.85547m1.30469-5.85938l1.1836-.32812m9.78905-.25782l3.59766 6.03516m-3.07422-5.15625l.63672-1.05078m10.46484 3.59375l6.98047-.8086m-5.96484.69141l-.69531-1.01172m13.05078-.01562l6.86718 1.48047m13.08594.70312l-6.40625-2.88672m5.47266 2.46875l.08203 1.22266m14.46875-2.01953l-7.01172-.45703m5.99219.39062l.5039 1.11719m12.6172-3.9414l-4.58204 5.32421m3.91406-4.55078l1.19532.26953m13.3125-.48047l-5.63282 4.19922"/><g clip-path="url(#V)"><path fill="none" stroke="#000" stroke-linecap="round" stroke-linejoin="round" stroke-miterlimit="10" stroke-width=".5" d="M466.3789 464.91406l2.21876 1.04688"/></g><g clip-path="url(#W)"><path fill="none" stroke="#000" stroke-linecap="round" stroke-linejoin="round" stroke-miterlimit="10" stroke-width=".5" d="M147.51172 453.83984l-7.02344-.28125"/></g><path fill="none" stroke="#000" stroke-linecap="round" stroke-linejoin="round" stroke-miterlimit="10" stroke-width=".5" d="M147.51172 453.83984l1.0625 2.21094m-2.08594-2.2539l.53125 1.10546m13.8086-1.17578l-7.02735-.0586m7.02734.0586l1.13282 2.17969m-2.15625-2.1875l.5664 1.08984m13.77344-1.10937h-7.02734m7.02734 0l1.15234 2.16406m-2.17578-2.16406l.57422 1.08203m13.76172-1.22266l-7.02344.28125m7.02344-.28125l1.23828 2.1172m-2.26172-2.07813l.6211 1.05859m13.65625-.29297l-6.90235-1.32812m6.90235 1.32812l.71875 2.34766m-1.72266-2.53906l.35938 1.17187m13.96875-1.04297l-6.92188-1.20703m6.92188 1.20703l.76562 2.33203m-1.76953-2.50781l.3789 1.16797m13.98829-1.8086l-7.01563.4297m7.01563-.4297l1.28125 2.09376m11.85156-3.01563l-6.64844 2.27344m6.64844-2.27344l1.78906 1.67578m-2.75781-1.34765l.89453.83984m13.39063-1.16016l-6.65235 2.25782m6.65235-2.25782l1.78906 1.67969m-2.75781-1.35156l.89453.83984m13.36719-1.23047l-6.60938 2.38282m6.60938-2.38282l1.8203 1.64844m-2.78124-1.30078l.91015.82422m13.31641-1.30078l-6.51172 2.64062m6.51172-2.64062l1.88281 1.57422m-2.82812-1.19141l.9375.78906m13.30469-1.22266l-6.47266 2.7422m6.47265-2.7422l1.90235 1.54688m11.52344-1.23828l-6.69922 2.1211m6.69922-2.1211l1.7539 1.71875m11.39453-2.14844l-6.36328 2.98438m6.36328-2.98438l1.96094 1.47266m11.05078-2l-5.7539 4.03515m5.7539-4.03515l2.1836 1.11328m10.67187-1.64453l-4.83594 5.09765m4.83594-5.09765l2.36328.65625m-3.0664.08593l1.18359.32813m12.3164-1.47266l-3.80077 5.90625m3.80078-5.90625l2.4453.20313m-2.99608.65625l1.22265.10156m12.36719-1.125l-3.2461 6.23438m3.2461-6.23438l2.45312-.01953m11.875.8125l-5.27343 4.64453m4.5039-3.96875l1.14844.4336m7.78125-1.23438l5.03516 4.89844m-4.3047-4.1875l.34376-1.17578m13.69531 6.26172l2.125-6.69532m-1.8164 5.72266l-1.20704.21875m18.19532-4.55078l-5.83594 3.91406m4.98437-3.34766l1.08204.58203m13.30859 2.37891l-6.28516-3.14062m5.3711 2.68359l.03125 1.22656m13.64453-4.71484l-5.17969 4.7461m5.17969-4.7461l2.3125.82031m11.14062-.66406l-5.45312 4.4336m4.66015-3.78907l1.12891.48047"/><g clip-path="url(#X)"><path fill="none" stroke="#000" stroke-linecap="round" stroke-linejoin="round" stroke-miterlimit="10" stroke-width=".5" d="M147.36719 441.39063l-6.73438-2.01563"/></g><path fill="none" stroke="#000" stroke-linecap="round" stroke-linejoin="round" stroke-miterlimit="10" stroke-width=".5" d="M147.36719 441.39063l.48047 2.40625m-1.46094-2.69922l.24219 1.20312m14.09765-1.07812l-6.82422-1.67578m6.82422 1.67578l.60156 2.3789m-1.59375-2.625l.30079 1.1914m14.09375-1.46093l-6.9961-.64453m6.9961.64453l.94922 2.26172m-1.96875-2.35547l.47656 1.1289m13.86719-1.17968l-7.01563-.35937m7.01563.35937l1.03906 2.22656m-2.0586-2.27734l.51953 1.11328m13.82032-1.15625l-7.02735-.17187m7.02735.17187l1.09765 2.19531m11.94922-3.6289l-6.48828 2.6953m6.48828-2.6953l1.89453 1.55859m-2.83984-1.16797l.94922.78125m13.13672-1.52734l-6.14063 3.41015m6.14063-3.41015l2.0586 1.33203m-2.94923-.83594l1.02735.66797m12.22656-2.26172l-4.23828 5.60547m4.23828-5.60547l2.42187.38672m10.94922-.34375l-4.34765 5.51953m4.34765-5.51953l2.41406.4336m10.9922-.35938l-4.53126 5.3711m4.53125-5.3711l2.39844.51562m11.08984-.35937l-4.8789 5.0586m4.8789-5.0586l2.35938.67187m11.4414-.09375l-5.84765 3.89844m5.84765-3.89844l2.16016 1.16407m11.1289-1.19922l-5.79687 3.97265m5.79688-3.97265l2.17578 1.13281m11.42969-.6211l-6.37891 2.94532m6.3789-2.94531l1.95313 1.48437m11.16016-1.85937l-5.97656 3.6953m5.97656-3.6953l2.1211 1.23828m-2.98829-.69922l1.0586.61719m12.8203-1.57422l-5.36718 4.53125m5.36719-4.53125l2.27734.91406m-3.0586-.2539l1.14063.45703m12.15625-1.81641l-3.76953 5.92969m3.76953-5.9297l2.44531.19142m-2.99218.67187l1.22265.09375m11.39063-1.44531l-1.27344 6.91015m1.27344-6.91015l2.33984-.74219m-2.52344 1.7461l1.16797-.3711m9.32422.23047l4.74219 5.1836m-4.74219-5.1836l.82031-2.3125m-.1328 3.0664l.41015-1.15624m11.17187 3.8125l6.83203-1.64063m-5.83984 1.40234l-.8125-.91796m19.34375-1.79297l-5.58594 4.26172m4.77344-3.64454l1.11719.51172m12.58594-1.59375l-4.73438 5.1914m4.73438-5.1914l2.375.60547m-3.0625.14844l2.375.60937m11.16015-1.72656l-3.80078 5.91406m3.80078-5.91406l2.44531.20313m-3 .66015l2.44532.19922m11.44921-1.04297l-3.84765 5.8789m3.84765-5.8789l2.44141.22266m9.08203-.79688l-.26562 7.02344m.22656-6l1.10547-.53515"/><g clip-path="url(#Y)"><path fill="none" stroke="#000" stroke-linecap="round" stroke-linejoin="round" stroke-miterlimit="10" stroke-width=".5" d="M147.5 427.36328l-7-.58984"/></g><path fill="none" stroke="#000" stroke-linecap="round" stroke-linejoin="round" stroke-miterlimit="10" stroke-width=".5" d="M147.5 427.36328l.96875 2.2539m12.32031-2.01952l-6.94922-1.0586m6.94922 1.0586l.8125 2.3125m-1.82422-2.46875l.40625 1.16015m13.92188-1.02343l-6.95313-1.01954m6.95313 1.01954l.82812 2.3125m-1.83984-2.46094l.41406 1.15625m13.89453-.88672l-6.91406-1.26172m6.91406 1.26172l.7461 2.33594m-1.7539-2.51953l.375 1.16796m13.90624-2.43359l-6.83203 1.63672m6.83203-1.63672l1.625 1.83984m-2.61719-1.60156l.8125.92188m13.44532-1.34766l-6.73047 2.01172m6.73047-2.01172l1.72656 1.74219m-2.70703-1.44922l1.72656 1.7461m12.57422-2.01563l-6.7461 1.96875m6.7461-1.96875l1.71484 1.7539m-2.69531-1.46875l.85547.87891m13.39453-1.3164l-6.65234 2.26953m5.68359-1.9375l.89453.83984m13.14063-1.73047l-6.15625 3.38672m6.15625-3.38672l2.05468 1.34375m10.9297-1.84375l-5.4922 4.38672m5.4922-4.38672l2.25.97266m11.40234-.46094L274.0664 428.75m6.16797-3.36328l2.05078 1.35156M292.5 424.20313l-4.07031 5.73046m4.07031-5.73046l2.4336.3164m10.71093-.42969l-3.72656 5.95704m3.72656-5.95704l2.44531.17188m10.82422-.19922l-3.63672 6.01172m3.63672-6.01172l2.44922.13672m11.19922.09375l-4.30469 5.55078m4.30469-5.55078l2.41797.41406m-3.04297.39063l1.20703.21093m13.32031-.4414l-5.47656 4.40234m5.47656-4.40234l2.25391.96484m-3.05078-.32422l1.1289.48438m12.625-1.50781l-4.76171 5.16796m4.76171-5.16796l2.375.62109m10.95704-.60547l-4.79688 5.13672m4.79688-5.13672l2.37109.64063m10.4414-1.03125l-3.78906 5.91796m3.78907-5.91796l2.4453.19921m-2.99608.66407l2.4453.19922m-2.99609.66015l1.22266.09766m14.32813-.64063l-6.0586 3.5586m6.0586-3.5586l2.08984 1.28516m-2.97266-.76563l2.09375 1.28516m11.48828-2.57812l-4.82812 5.10546m4.82812-5.10546l2.3672.65234m-3.07032.08984l2.36719.65235M411.30859 426l1.1836.32813m13.11719-2.15235l-3.98438 5.78516m3.98438-5.78516l2.4375.27735m-3.01954.5625l2.4375.28125m10.64063-1.53907l-2.34766 6.6211m2.34766-6.6211l2.42578-.36328m-2.76953 1.32422l2.42969-.35937m-2.76954 1.32421l1.21485-.17968m12.5-1.83594l-1.78125 6.80078m1.78125-6.80078l2.38672-.5625m-2.64453 1.55469l2.38671-.56641m11.91797-.14062l-3.24218 6.23046m3.24218-6.23046l2.45313-.02344m-2.92578.92969l2.45312-.02344m-2.92578.92969l1.22656-.01172"/><g clip-path="url(#Z)"><path fill="none" stroke="#000" stroke-linecap="round" stroke-linejoin="round" stroke-miterlimit="10" stroke-width=".5" d="M147.48438 414.20703l-6.96875-.91015"/></g><path fill="none" stroke="#000" stroke-linecap="round" stroke-linejoin="round" stroke-miterlimit="10" stroke-width=".5" d="M147.48438 414.20703l.85937 2.29688m12.48438-2.8125l-7.02735.125m7.02734-.125l1.19141 2.14453m12.11719-1.875l-7.01563-.41406m7.01563.41406l1.02344 2.23047m-2.04297-2.29297l.51172 1.11719m13.79297-.7461l-6.95313-1.03125m6.95313 1.03125l.8203 2.3125m-1.83202-2.46094l.41015 1.15625m13.9414-1.79296l-7.0039.53906m7.0039-.53906l1.31642 2.07421m-2.33594-1.99609l1.3164 2.07422m13.00782-2.26563l-6.98438.76563m6.98438-.76563l1.3828 2.02735m-2.39843-1.91797l.6914 1.01562m13.64454-1.09375l-6.99219.69922m6.99219-.69922l1.36328 2.04297m11.44922-3.53125l-5.98828 3.67578m5.98828-3.67578l2.11719 1.2461m-2.98828-.71094l1.05859.6211m13.36328-.70704l-6.45703 2.77734m6.45703-2.77734l1.91406 1.53516m-2.85547-1.1289l.95703.76562m12.76954-2.03125l-5.39844 4.5m5.39844-4.5l2.27343.92578m10.85157-1.13672l-5.01953 4.92187m5.01953-4.92187l2.33984.74219m-3.07031-.02735l1.16797.3711m11.4414-1.97266l-2.14843 6.6914m1.83593-5.71484l1.20703-.21875m11.53125-.91797l-.37109 7.01563m.32031-5.9961l1.10938-.51953m13.53906-.18359l-2.9336 6.38281m2.9336-6.38281l2.44922-.14453m11.40625.45312l-4.01563 5.76563m4.01563-5.76563l2.4375.28907m10.38672-.57813l-3.03125 6.34375m3.03125-6.34375l2.44922-.10547m9.99218-.17578l-1.28515 6.90625m1.28515-6.90625l2.33985-.73828m12.8789 1.76953l-5.09375 4.84375m5.09375-4.84375l2.32813.77734m11.11719-.6328l-5.35157 4.55468m5.35157-4.55469l2.28125.90625m-3.0586-.24219l2.28125.90235m-3.0625-.24219l1.14063.45313m13.83984-1.64844l-5.5664 4.29297m5.5664-4.29297l2.23438 1.01562m-3.04688-.39062l2.23828 1.01172m11.48047-2.08203l-4.7461 5.18359m4.7461-5.1836l2.375.61329m-3.0664.14453l2.375.61328m-3.06641.14062l1.1875.3047m13.10937-2.12891l-3.9453 5.8125m3.9453-5.8125l2.44141.26171m-3.01562.58204l2.4375.26562m11.3164-1.19922l-3.67578 5.98828m3.67578-5.98828l2.44922.15235m-2.98437.71875l2.44921.15234m11.57032-.91016l-4.01563 5.76563m4.01563-5.76563l2.43359.28907m-3.01953.54687l1.21875.14844m12.80469-.89844l-4.25782 5.59375"/><g clip-path="url(#aa)"><path fill="none" stroke="#000" stroke-linecap="round" stroke-linejoin="round" stroke-miterlimit="10" stroke-width=".5" d="M465.6914 410.95703l2.41798.39453"/></g><path fill="none" stroke="#000" stroke-linecap="round" stroke-linejoin="round" stroke-miterlimit="10" stroke-width=".5" d="M465.07031 411.76953l2.42188.39844m-3.04297.41797l1.21094.19531"/><g clip-path="url(#ab)"><path fill="none" stroke="#000" stroke-linecap="round" stroke-linejoin="round" stroke-miterlimit="10" stroke-width=".5" d="M147.26953 399.14844l-6.53906 2.57812"/></g><path fill="none" stroke="#000" stroke-linecap="round" stroke-linejoin="round" stroke-miterlimit="10" stroke-width=".5" d="M147.26953 399.14844l1.86719 1.59375m-2.82031-1.21875l.93359.79687m13.5586.47266l-6.98829-.71094m6.98828.71094l.9297 2.27344m-1.94532-2.375l.46484 1.13671m13.88672-1.36718l-7.02734-.04688m7.02734.04688l1.13672 2.17578m-2.16016-2.1836l1.13672 2.17579m13.16797-2.66407l-6.96094.94532m6.96094-.94532l1.4336 1.9922m-2.44532-1.85548l1.4336 1.99219m12.80859-2.55469l-6.79297 1.79688m6.79297-1.79688l1.66797 1.80078m-2.65625-1.53906l.83594.89844m13.58203-.39844l-7.01953.27735m7.01953-.27735l1.23828 2.11719m12.0664-2.3086l-7 .65625m7-.65625l1.34766 2.05079m11.66016-3.19141l-6.38281 2.9414m6.3828-2.9414l1.94923 1.48438m11.5703-.91797l-6.79296 1.80468m6.79297-1.80468l1.66797 1.80078m11.63281-1.85156l-6.76563 1.91015m6.76563-1.91015l1.69531 1.76953m11.32031-2.50391l-6.16796 3.375m6.16797-3.375l2.05078 1.35156m11.3125-1.25781l-6.26172 3.1875m5.35156-2.72266l1.0039.70313m12.94141-1.625l-5.70312 4.10547m5.70312-4.10547l2.19922 1.08203m11.73047.39063l-6.9336 1.15625m6.9336-1.15625l1.49219 1.94921m11.39062-3.14062l-6.07031 3.53906m6.07031-3.53906l2.08594 1.29297m10.0586-2.5039l-3.72657 5.96093m3.72656-5.96094l2.44532.17188m9.42968-.6797l-.84375 6.97657m.71875-5.96094l1.14454-.4414m14.73828.88672l-5.73438 4.05859m5.73438-4.0586l2.1914 1.10157m10.39063-1.86719l-4.26563 5.58594m4.26563-5.58594l2.41797.40235m-3.03907.41015l2.42188.40235m11.83203-.9375l-4.90234 5.03125m4.90234-5.03125l2.35547.6875m-3.0664.04296l1.17577.34375m13.73438.33985l-6.67188 2.20703m6.67188-2.20703l1.77344 1.69531m-2.7422-1.375l.88673.84766m12.85547-2.19532l-5.58594 4.26172m5.58594-4.26172l2.23047 1.02344m-3.04297-.40625l2.23047 1.02344m11.71093-1.86719l-5.21484 4.71485m5.21484-4.71485l2.30469.83203m-3.0664-.14844l2.30859.83594m12.17969-.96094l-6.03907 3.59766m6.03907-3.59765l2.09765 1.26953m-2.97656-.7461l1.05078.63281m12.83984-1.58984l-5.42968 4.46094"/><g clip-path="url(#ac)"><path fill="none" stroke="#000" stroke-linecap="round" stroke-linejoin="round" stroke-miterlimit="10" stroke-width=".5" d="M466.27734 398.20703l2.26563.94531"/></g><g clip-path="url(#ad)"><path fill="none" stroke="#000" stroke-linecap="round" stroke-linejoin="round" stroke-miterlimit="10" stroke-width=".5" d="M465.48828 398.85938l2.26563.9414"/></g><g clip-path="url(#ae)"><path fill="none" stroke="#000" stroke-linecap="round" stroke-linejoin="round" stroke-miterlimit="10" stroke-width=".5" d="M147.21094 385.6914l-6.42188 2.86329"/></g><path fill="none" stroke="#000" stroke-linecap="round" stroke-linejoin="round" stroke-miterlimit="10" stroke-width=".5" d="M147.21094 385.6914l1.9336 1.51173m-2.8711-1.09375l1.9375 1.5078m12.60937-.70702l-7.01172.42578m7.01172-.42578l1.28125 2.09375m-2.30078-2.03125l.64063 1.04687m13.60937-1.69922l-6.83984 1.60938m6.83984-1.60938l1.61719 1.84375m-2.61328-1.61328l.8086.92578m13.2578-1.85156l-6.35156 2.9961m6.35156-2.9961l1.96875 1.46484m-2.89062-1.03125l.98047.73438m13.58984.1289l-7.01562.40235m7.01562-.40235l1.27344 2.09766m11.94922-1.07422l-6.83203-1.64453m6.83203 1.64453l.61328 2.375m12.78906-3.42578l-7.01172.46094m7.01172-.46094l1.29297 2.08594m11.96484-2.53125l-6.89453 1.34765m6.89453-1.34765l1.54688 1.90625m11.6836-2.25781l-6.72266 2.05078m6.72265-2.05078l1.73047 1.73828m11.48047-2.02344l-6.51563 2.625m6.51563-2.625l1.8789 1.57813m11.04688-2.29297l-5.73828 4.05078m4.90625-3.46094l1.09375.55078m13.28516-.76953l-6.19922 3.3086m6.19922-3.3086l2.03515 1.3711m10.63281-2.23048l-4.90625 5.02735m4.19141-4.29688l1.17969.34375m13.44531-.30468l-6.09765 3.48828m5.21093-2.98047l1.03906.65234m13.27344-.95703l-6.3164 3.08203m6.3164-3.08203l1.98438 1.44531m10.99219-1.99609l-5.64454 4.1836m4.82422-3.57423l1.10938.52735m13.42187-.45313l-6.4336 2.81641m6.4336-2.8164l1.92578 1.51952m11.35157-1.61328l-6.35547 3.00391m6.35547-3.0039l1.96484 1.46874m-2.89063-1.03125l.98438.73438m13.09375-1.47266l-6.03125 3.60547m6.03125-3.60547l2.09766 1.26563m-2.97657-.74219l1.05079.63281m12.98828-1.39062l-5.72266 4.07422m5.72266-4.07422l2.1953 1.09765m-3.02733-.5039l1.09765.54687m13.05469-1.13672l-5.73047 4.06641m5.73047-4.0664l2.1914 1.10156m-3.02734-.50782l1.09766.54688m13.13672-1.01563l-5.89844 3.81641m5.89844-3.8164l2.14453 1.1914m-3.0039-.63672l1.07421.59766m13.24219-.91406l-6.1836 3.34375m6.1836-3.34375l2.04297 1.35546m-2.94532-.87109l1.02344.67969m13.42969-.625l-6.65235 2.26172m6.65235-2.26172l1.78515 1.67969m-2.7539-1.35157l.89453.83985m12.98438-1.98438l-5.84766 3.89453"/><g clip-path="url(#af)"><path fill="none" stroke="#000" stroke-linecap="round" stroke-linejoin="round" stroke-miterlimit="10" stroke-width=".5" d="M466.48438 385.17578l2.16015 1.16406"/></g><g clip-path="url(#ag)"><path fill="none" stroke="#000" stroke-linecap="round" stroke-linejoin="round" stroke-miterlimit="10" stroke-width=".5" d="M465.63281 385.74219l2.16016 1.16406"/></g><g clip-path="url(#ah)"><path fill="none" stroke="#000" stroke-linecap="round" stroke-linejoin="round" stroke-miterlimit="10" stroke-width=".5" d="M147.17188 372.29297l-6.34375 3.02734"/></g><path fill="none" stroke="#000" stroke-linecap="round" stroke-linejoin="round" stroke-miterlimit="10" stroke-width=".5" d="M147.17188 372.29297l1.97265 1.46094m-2.89453-1.01954l.98438.73047m13.51171-.41015l-6.86328 1.5039m6.86328-1.5039l1.58985 1.8711m-2.58594-1.65235l.79297.9375m13.3789-1.6289l-6.58593 2.45312m6.58594-2.45313l1.83593 1.6289m-2.79297-1.27343l.91797.8164m12.92969-1.97656l-5.73438 4.0625m5.73438-4.0625l2.1914 1.10157m11.76954 1.01953l-7.02735-.17969m7.02735.17969l1.09765 2.1914m12.16407-2.89843l-6.91797 1.23437m6.91797-1.23437l1.51172 1.92968m-2.51954-1.75l.75782.96485m13.59765-.91016l-6.98437.76563m6.98437-.76563l1.38281 2.02735m-2.39843-1.91797l.6914 1.01562m13.625-1.2461l-6.95703 1.00782m6.95703-1.00781l1.44922 1.98047m-2.46094-1.83204l.72266.98829m13.59375-1.20704l-6.9336 1.14844m6.9336-1.14844l1.48828 1.94922m-2.5-1.78125l.7461.97266m13.58593-1.08594l-6.94922 1.03906m6.94922-1.03906l1.46094 1.97266m-2.46875-1.82031l.72656.98437m13.35938-1.98437l-6.47266 2.73046m6.47266-2.73046l1.90625 1.55078m-2.84766-1.15235l.95313.77344m13.45703-.73047l-6.77735 1.85156m6.77735-1.85156l1.6836 1.78516m11.60546-1.88281l-6.72656 2.04296m6.72656-2.04296l1.73047 1.73828m-2.71094-1.4375l.86719.86719m13.14844-1.82813l-6.16797 3.36328m6.16797-3.36328l2.05078 1.35156m-2.94531-.85937l1.02343.67578m13.4922-.41406l-6.77735 1.85937m6.77734-1.85937l1.6836 1.78515m11.74218-1.15234l-7 .59375m7-.59375l1.33203 2.0586m-2.35156-1.97266l.66797 1.03125m13.66406-1.14844l-6.9961.65625m6.9961-.65625l1.35156 2.04687m-2.37109-1.95312l.67578 1.02734m13.64453-1.25781l-6.96484.92969m6.96484-.92969l1.42578 1.9961m-2.4414-1.85938l.71484.9961m13.51953-1.60157l-6.77343 1.86719m6.77343-1.86719l1.6875 1.78125m-2.67187-1.51172l.84375.89063m13.39062-1.375l-6.64453 2.29296m6.64453-2.29296l1.79297 1.67578m-2.76172-1.33985l.89844.83594m13.2539-1.4961l-6.3828 2.94141m6.3828-2.9414l1.95313 1.48828m11.23438-1.73828l-6.125 3.44531m6.125-3.44531l2.0664 1.32422m11.27735-1.26954l-6.1836 3.33594m6.1836-3.33594L442.0664 373.5m11.34765-1.21094l-6.33594 3.03906m6.33594-3.03906l1.97656 1.45703m11.25391-1.62109l-6.16797 3.36719"/><g clip-path="url(#ai)"><path fill="none" stroke="#000" stroke-linecap="round" stroke-linejoin="round" stroke-miterlimit="10" stroke-width=".5" d="M466.64453 372.125l2.05078 1.34766"/></g><path fill="none" stroke="#000" stroke-linecap="round" stroke-linejoin="round" stroke-miterlimit="10" stroke-width=".5" d="M465.75 372.61328l1.02344.67578"/><g clip-path="url(#aj)"><path fill="none" stroke="#000" stroke-linecap="round" stroke-linejoin="round" stroke-miterlimit="10" stroke-width=".5" d="M147.11328 358.86328l-6.22656 3.26172"/></g><path fill="none" stroke="#000" stroke-linecap="round" stroke-linejoin="round" stroke-miterlimit="10" stroke-width=".5" d="M147.11328 358.86328l2.02344 1.38281m11.6914.17188l-7.02734.14844m7.02734-.14844l1.19922 2.14062m-2.22265-2.11718l.60156 1.0703m13.72656-.74608l-7.0039-.54297m7.0039.54296l.98047 2.25m12.32422-2.1289l-6.98438-.78906m6.98438.78906l.90234 2.28125m12.3672-3.35156l-6.89454 1.35156m6.89453-1.35156l1.54688 1.90625m-2.55078-1.70704l.77734.94922M214.05078 361l-6.95312-1.01563M214.05078 361l.82813 2.3125m-1.83985-2.46094l.41406 1.15625m13.94922-1.40234l-7.02343-.22266m7.02343.22266l1.08203 2.20312m-2.10546-2.23437l.54297 1.09765m13.78906-1.42968l-7.01172.5m7.01172-.5l1.30078 2.08203m-2.32031-2.00781l.64843 1.03906m13.63282-1.50781l-6.90625 1.28906m6.90625-1.28906l1.53125 1.91796m-2.53516-1.73046l.76563.96093m13.46484-1.51562l-6.72656 2.02734m6.72656-2.02734l1.73047 1.74219m-2.70703-1.44922l.86328.8711m13.45312-1.07813l-6.77734 1.85156m6.77734-1.85156l1.6836 1.78515m11.64453-1.7461l-6.80078 1.77345m6.80078-1.77344l1.66015 1.8086m-2.65234-1.55079l.83203.90625m13.57422-.58594l-7 .6211m7-.6211l1.33984 2.0547m-2.35937-1.96485l.67187 1.02734m13.65625-1.1914l-6.98437.76953m6.98437-.76954l1.38282 2.02344m-2.40235-1.91406l1.38281 2.02734m12.92188-2.34765l-6.92578 1.1875m6.92578-1.1875l1.5 1.9414m-2.50781-1.76953l.75.97266m13.57422.02344l-6.9297-1.14844m6.9297 1.14844l.78125 2.32812m-1.78907-2.49219l.39063 1.16016m13.98047-1.55469l-7.02735-.02734m7.02735.02734l1.14453 2.17188m-2.16797-2.17578l1.14453 2.17187m13.14844-2.73828l-6.9375 1.11328m6.9375-1.11328l1.48047 1.95703m-2.48828-1.79687l1.48046 1.95703m-2.49218-1.79297l.74218.97656m14.38282-2.0586l-6.51563 2.625m6.51563-2.625l1.8789 1.57813m-2.82812-1.19531l1.8789 1.57813m-2.82421-1.19532l.9375.78906m14.1875-1.75l-6.34766 3.01954m6.34766-3.01954l1.96875 1.46094m-2.89454-1.02344l1.97266 1.46094m12.21484-2.0039l-6.24218 3.22656m6.24218-3.22656l2.01954 1.39843m-2.92579-.92968l1.00782.69921m13.28515-1.01953l-6.38672 2.9336m6.38672-2.9336l1.95313 1.48829m-2.88281-1.0625l.97656.74609m13.39453-.85938l-6.63672 2.3086m6.63672-2.3086l1.80078 1.66407m11.50781-1.6836l-6.625 2.34766m6.625-2.34766l1.8086 1.65625m11.54687-1.53906l-6.70312 2.10938"/><g clip-path="url(#ak)"><path fill="none" stroke="#000" stroke-linecap="round" stroke-linejoin="round" stroke-miterlimit="10" stroke-width=".5" d="M466.91406 359.4375l1.75 1.72266"/></g><path fill="none" stroke="#000" stroke-linecap="round" stroke-linejoin="round" stroke-miterlimit="10" stroke-width=".5" d="M465.9375 359.7461l.875.85937"/><g clip-path="url(#al)"><path fill="none" stroke="#000" stroke-linecap="round" stroke-linejoin="round" stroke-miterlimit="10" stroke-width=".5" d="M147.51172 347.14844l-7.02344.0586"/></g><path fill="none" stroke="#000" stroke-linecap="round" stroke-linejoin="round" stroke-miterlimit="10" stroke-width=".5" d="M147.51172 347.14844l1.17187 2.15625m-2.1914-2.14844l.58594 1.07813m13.75-1l-7.02735-.10938m7.02734.10938l1.1172 2.18359m-2.14063-2.19922l.5586 1.08984m13.76952-.875l-7.00781-.51171m7.00781.51171l.99219 2.2461m-2.01172-2.32031l.4961 1.12109m13.8125-.79688l-6.95313-1.01171m6.95313 1.01171l.82812 2.3086m12.39063-1.85156l-6.75782-1.92579m6.75781 1.92579l.51172 2.39843m12.76172-2.26172l-6.67578-2.19921m6.67578 2.19921l.41406 2.41797m-1.38671-2.73828l.20703 1.21094m14.21094-1.4414l-6.94141-1.09376m6.9414 1.09375l.80079 2.3164m-1.8086-2.47655l.39844 1.16015m13.94922-1.1875l-6.98828-.71875m6.98828.71875l.92578 2.26953m-1.9414-2.375l.46093 1.13672m13.88281-1.19922l-7.01562-.38671m7.01562.38671l1.03516 2.22657m-2.05469-2.28516l.51563 1.11328m13.82422-1.15234l-7.02344-.1914m7.02344.1914l1.09375 2.19531m-2.1172-2.22266l.54688 1.09766m13.69922-1.98047l-6.83593 1.6289m6.83593-1.6289l1.6211 1.83985m-2.6172-1.60157l.8125.91797m13.54298-.91797L287 347.75391m6.92969-1.15235l1.4961 1.94531m-2.50391-1.77734l.74609.97266m13.6211-.38672l-7.01563-.35156m7.01562.35156l1.04297 2.21875m-2.0625-2.27344l.51953 1.11328m13.8125-.9961l-7.01172-.48046m7.01172.48047l1 2.23828m-2.01953-2.3086l1 2.2422m13.17188-3.5l-6.6836 2.17577m6.6836-2.17578l1.76562 1.70704m-2.73828-1.39063l1.76563 1.70703m12.6914-.88281l-7.02344-.10547m7.02344.10547l1.1211 2.1836m-2.14063-2.19923l1.11719 2.1836m13.10937-1.34375l-6.8086-1.7539m6.8086 1.7539l.57422 2.38281m-1.5664-2.63672l.57421 2.38281m-1.5625-2.64062l.28516 1.19531m15.09766-1.16797l-6.98438-.78515m6.98438.78515l.90234 2.28516m-1.91797-2.39844l.90235 2.28125m-1.91797-2.39453l.90234 2.28125m14.42969-2.94531l-6.95313.9961m6.95313-.9961l1.44922 1.98047m-2.46094-1.83594l1.44922 1.98047m-2.46094-1.83594l.72266.99219m14.33984-2.23047l-6.40234 2.89453m6.40234-2.89453l1.9414 1.5m-2.87109-1.07813l1.9414 1.5m-2.875-1.07812l.97267.7461m13.96875-2.03126l-5.92579 3.77735m5.92579-3.77735l2.1328 1.20703m-2.99609-.65625l2.13672 1.20704m-3-.66016l1.07032.60547m14.03125-1.60547l-6.04688 3.58203m6.04688-3.58203l2.09375 1.27734m-2.97657-.75781l2.09766 1.27734m-2.97656-.7539l1.05078.63672m14.16015-1.42579l-6.3164 3.07422m6.3164-3.07421l1.98438 1.4453m-2.90234-.99609l.99218.72266m13.44532-.65234l-6.72657 2.03515m6.72657-2.03515l1.73046 1.73828m-2.71093-1.4414l1.73047 1.73827m12.58203-1.97265l-6.76172 1.91015"/><g clip-path="url(#am)"><path fill="none" stroke="#000" stroke-linecap="round" stroke-linejoin="round" stroke-miterlimit="10" stroke-width=".5" d="M466.9414 346.22266l1.69923 1.77343"/></g><path fill="none" stroke="#000" stroke-linecap="round" stroke-linejoin="round" stroke-miterlimit="10" stroke-width=".5" d="M465.96094 346.5l1.69531 1.77344m-2.67969-1.4961l.84766.88672"/><g clip-path="url(#an)"><path fill="none" stroke="#000" stroke-linecap="round" stroke-linejoin="round" stroke-miterlimit="10" stroke-width=".5" d="M147.48438 333.41406l-6.96875.89844"/></g><path fill="none" stroke="#000" stroke-linecap="round" stroke-linejoin="round" stroke-miterlimit="10" stroke-width=".5" d="M147.48438 333.41406l1.41796 2.0039m-2.42968-1.87108l.70703 1m13.6211-1.1172l-6.97267.8672m6.97266-.8672l1.41016 2.00782m-2.42188-1.88281l.70313 1.0039m13.65234-.71093l-7.02734.03125m7.02734-.03125l1.16016 2.16406m-2.1836-2.16016l.58203 1.08203m13.75391-1.13671l-7.02344.1328m7.02344-.1328l1.19531 2.14453m-2.21484-2.125l.59375 1.0703m13.61328-.08593l-6.76953-1.875m6.76953 1.875l.53125 2.39453m12.8164-2.51172l-6.83202-1.64453m6.83203 1.64453l.61328 2.37891m-1.60938-2.61719l.61328 2.375m13.69922-2.14844l-6.83593-1.61718m6.83593 1.61719l.625 2.37109m-1.61718-2.60938l.62109 2.375m13.75-2.47265l-6.96484-.94531m6.96484.9453l.85156 2.30079m-1.86328-2.4414l.84766 2.30468m13.5-2.90625l-7.00781.53906m7.0078-.53906l1.31641 2.07031m-2.33593-1.99219l.65625 1.03516m13.64843-1.38672l-6.9453 1.08594m6.9453-1.08594l1.47266 1.96485m-2.48438-1.8047l.73438.98048m13.63281-.66797l-7.02734.14062m7.02734-.14062l1.19531 2.14453m-2.21875-2.125l.59766 1.07422m13.66016-1.78125l-6.86328 1.51562m6.86328-1.51562l1.58984 1.86719m11.78125-1.53907l-6.97656.85938m6.97656-.85938l1.40625 2.01172m11.73047-.40234l-6.6211-2.36328m6.6211 2.36328l.35547 2.42969m-1.32031-2.77344l.35546 2.42969m14.04688-2.51172l-6.86328-1.50781m6.86328 1.5078l.66016 2.36329m-1.66016-2.58203l.66016 2.35937m13.71093-2.48828l-6.98047-.8125m6.98047.8125l.89453 2.28516m-1.91015-2.40625l.89453 2.28515m13.46094-2.67578l-7.02735.21094m7.02735-.21094l1.21484 2.13281m-2.23828-2.10156l.60937 1.0664m13.72657-.91405l-7.02344-.15625m7.02344.15625l1.10547 2.1914m-2.125-2.21484l1.10156 2.1914m-2.125-2.21484l.55078 1.09766m14.44531-2.6836l-6.30078 3.10938m6.30078-3.10938l1.99219 1.4336m-2.90625-.98047l1.99219 1.42969m12.60156-.23829l-7.02734-.17968m7.02734.17969l1.09375 2.1953m-2.11719-2.22265l.54688 1.10156m13.73828-1.76171l-6.92188 1.1953m6.92188-1.1953l1.50781 1.9375m-2.51172-1.76563l1.5039 1.9375m12.5586-2.94922l-6.41015 2.875m6.41015-2.875l1.9414 1.5039m-2.87109-1.08593l.96875.75m13.17188-1.38672l-6.19922 3.3125m6.19922-3.3125l2.03516 1.36719m-2.9375-.88672l2.03515 1.36719m-2.9375-.88281l1.01953.68359m14.1836-1.48438l-6.36328 2.98438m6.36328-2.98438l1.96093 1.47266m-2.88671-1.03906l1.96093 1.47265m-2.88672-1.03906l1.96094 1.47266m13.27735-2.17578l-6.50782 2.65625"/><g clip-path="url(#ao)"><path fill="none" stroke="#000" stroke-linecap="round" stroke-linejoin="round" stroke-miterlimit="10" stroke-width=".5" d="M466.8164 332.53516l1.88282 1.5703"/></g><g clip-path="url(#ap)"><path fill="none" stroke="#000" stroke-linecap="round" stroke-linejoin="round" stroke-miterlimit="10" stroke-width=".5" d="M465.86719 332.92188l1.88672 1.5703"/></g><path fill="none" stroke="#000" stroke-linecap="round" stroke-linejoin="round" stroke-miterlimit="10" stroke-width=".5" d="M464.92188 333.3086l.9414.78515"/><g clip-path="url(#aq)"><path fill="none" stroke="#000" stroke-linecap="round" stroke-linejoin="round" stroke-miterlimit="10" stroke-width=".5" d="M147.45703 319.92578l-6.91406 1.2461"/></g><path fill="none" stroke="#000" stroke-linecap="round" stroke-linejoin="round" stroke-miterlimit="10" stroke-width=".5" d="M147.45703 319.92578l1.51953 1.92578m-2.52344-1.7461l.75782.96485m13.51953-1.33984l-6.83203 1.63281m6.83203-1.63281l1.625 1.83984m-2.61719-1.60156l1.625 1.83984m12.65625-2.1914l-6.77734 1.86328m6.77734-1.86328l1.6836 1.78125m-2.67188-1.51172l1.6875 1.78515m12.71875-1.51953l-6.98438.79297m6.98438-.79297l1.38672 2.02344m-2.40234-1.91015l.6914 1.01171m13.53906.1836l-6.78515-1.82813m6.78515 1.82813l.54688 2.39453m-1.53516-2.66016l.27735 1.19531m14.14453-1.72656l-7.02344-.23437m7.02344.23437l1.07812 2.20703m-2.09765-2.23828l1.07812 2.20313m13.24219-2.625l-6.99219.67578m6.99219-.67578l1.35547 2.04687m-2.3711-1.94922l1.35547 2.04688m12.96485-2.24219l-6.97266.8711m6.97266-.8711l1.41406 2.0039m-2.42969-1.8789l1.41406 2.00781m12.83985-2.55078l-6.8164 1.70703m6.8164-1.70703l1.64453 1.82031m-2.63672-1.57421l1.64453 1.8203m12.65625-2.08202l-6.8086 1.73828m6.8086-1.73828l1.65235 1.8125m-2.64063-1.5625l.82422.91015m13.54297-.86718l-6.9336 1.15234m6.9336-1.15234l1.49218 1.9453m-2.5-1.77733l.7461.97265m13.57812-1.13672L287 321.1211m6.9336-1.14453l1.48827 1.94922m-2.5-1.78515l.7461.97656m13.5586-1.25781l-6.89063 1.3789m6.89062-1.3789l1.55469 1.89843m-2.5586-1.69922l.77735.94922m13.58203-.01172l-6.97266-.89843m6.97266.89843l.86328 2.29688m-1.8789-2.42578l.86718 2.29297m13.48438-2.39063l-7.01172-.44531m7.01172.44531l1.01172 2.23438m-2.03125-2.29688l.5039 1.11719m13.83203-1.07031l-7.01562-.41407m7.01562.41407l1.02344 2.23046m-2.04687-2.28906l.51172 1.11328m13.80859-1.67968l-6.98047.83593m5.96484-.71484l.69922 1.00781m13.54688-1.57422l-6.8125 1.72657m6.8125-1.72657l1.64844 1.82032m-2.64063-1.56641l.82422.90625m13.08203-2.1211l-6.00781 3.64844m6.00781-3.64843l2.10938 1.2539m-2.98438-.72265l2.10938 1.2539M399.83984 318.5l-5.70703 4.09766m5.70703-4.09766l2.19922 1.08984m-3.02734-.49609l1.09765.54688m13.69922.6875l-7.01562.4375m5.9961-.375l.64062 1.04687m10.8164 2.5664l-1.26172-6.91406m14.51954-.0078l-1.14454 6.93358m.97657-5.92578l1.16406-.39062m13.46875-.21485l-3.4414 6.12891m3.4414-6.1289l2.45312.05468m-2.95703.83594l1.22657.02734m13.23828-.44921l-4.73828 5.1914"/><g clip-path="url(#ar)"><path fill="none" stroke="#000" stroke-linecap="round" stroke-linejoin="round" stroke-miterlimit="10" stroke-width=".5" d="M465.92969 317.95313l2.3789.60937"/></g><path fill="none" stroke="#000" stroke-linecap="round" stroke-linejoin="round" stroke-miterlimit="10" stroke-width=".5" d="M465.24219 318.70703l2.375.60938m-3.0664.14843l2.3789.60938"/><path fill="#00f" fill-rule="evenodd" d="M388.23828 472.08594h8.61719V461.9414h-8.61719v10.14453"/><path fill="azure" fill-rule="evenodd" d="M390.07031 463.77344h.83594v2.82422h3.28516v-2.82422h.83203v6.48047h-.83203v-2.91797h-3.28516v2.91797h-.83594v-6.48047"/><path fill="#00f" fill-rule="evenodd" d="M383.80078 436.57813h8.61719v-10.14454h-8.61719v10.14454"/><path fill="azure" fill-rule="evenodd" d="M385.63281 428.26563h.83203v2.82421h3.28907v-2.82421h.83203v6.48046h-.83203v-2.91406h-3.28907v2.91406h-.83203v-6.48046"/><path fill="#ff3030" fill-rule="evenodd" d="M371.17969 418.82813h7.6914v-10.14844h-7.6914v10.14844"/><path fill="azure" fill-rule="evenodd" d="M373.01172 410.51172h.83594v5.74219h3.1914v.73828h-4.02734v-6.48047"/><path fill="#ff3030" fill-rule="evenodd" d="M180.33203 405.51172h7.6914v-10.14453h-7.6914v10.14453"/><path fill="azure" fill-rule="evenodd" d="M182.16406 397.19922h.83203v5.73828h3.19532v.74219h-4.02735v-6.48047"/><path fill="#ff3030" fill-rule="evenodd" d="M193.64453 374.4414h7.69531v-10.14452h-7.6953v10.14453"/><path fill="azure" fill-rule="evenodd" d="M195.47656 366.1289h.83594v5.7422h3.1914v.73827h-4.02734v-6.48046"/><path fill="#ffffe0" fill-rule="evenodd" d="M328.42969 395.25781h22.17969v-10.1914h-22.1797v10.1914"/><path fill-rule="evenodd" d="M331.92969 386.90234h.50781v6.29297h-.78516v-4.48828h-1.39062v-.5586l.5586-.0625.2539-.05468.23047-.08984.20312-.14063.17188-.21094.14453-.29296.10547-.39454m4.8125 0l.23047.01563.21875.0586.20703.08984.19531.11718.1836.15235.17187.17578.30469.41797.24218.49219.1797.54687.10937.58203.03906.58985-.03906.59375-.10938.58203-.17969.55468-.24218.50391-.3047.42578-.17187.17969-.18359.15234-.19531.125-.20703.09375-.21875.05469-.23047.01953-.23047-.01953-.21875-.05469-.20703-.09375-.19531-.125-.1836-.15234-.17187-.17969-.3047-.42578-.24218-.5039-.17969-.5547-.10937-.58202-.03906-.59375h.83203l.02734.5625.08203.5078.1289.44141.16017.375.1914.30079.21094.21875.22265.14062.22657.04297.22656-.04297.22266-.14063.21093-.21875.19141-.30078.16016-.375.1289-.4414.07813-.50781.03125-.5625-.03125-.5625-.07813-.5-.1289-.4336-.16016-.36719-.1914-.29296-.21094-.21485-.22266-.1289-.22656-.04688-.22656.04688-.22266.1289-.21094.21485-.1914.29296-.16016.3672-.1289.43358-.08204.5-.02734.5625h-.83203l.03906-.58984.10937-.58203.1797-.54688.24218-.49218.30469-.41797.17187-.17578.1836-.15235.1953-.11718.20704-.08985.21875-.0586.23047-.01562m5.08984 0h.51172v6.29297h-.78906v-4.48828h-1.38672v-.5586l.5586-.0625.2539-.05468.22656-.08984.20313-.14063.17578-.21094.14062-.29296.10547-.39454m2.82422 2.17188h.78906l.01953-.3164.0586-.28516.09765-.25.14063-.21875.17969-.17188.22656-.1289.26172-.08204.3086-.02734.23827.02344.22266.0625.20703.10156.17969.13672.14844.17578.11328.20313.0703.23828.02345.26171-.01954.26954-.0664.22656-.10938.1914-.15625.17188-.19921.16016-.25.16796-.63282.38672-.53515.3125-.4375.31641-.34766.32813-.26563.33203-.1875.35156-.125.3711-.0703.39452-.01954.41797h4.21094v-.74219h-3.33203l.08203-.28125.11328-.23828.14844-.20312.1875-.17969.23047-.17187.27734-.17579.71875-.41406.41406-.20703.34766-.23047.28125-.25.21875-.26953.16406-.27734.10938-.28125.0664-.28516.01953-.28125-.04296-.38281-.1211-.35156-.1875-.3047-.25-.26562-.30469-.21093-.34375-.16016-.3828-.09766-.40626-.03125-.4336.03125-.39843.09766-.35547.16797-.30469.23437-.24609.3047-.1875.37108-.11719.44922-.03906.51563"/><path fill="#ffffe0" fill-rule="evenodd" d="M239.66016 431.60938h22.18359v-10.19141h-22.1836v10.1914"/><path fill-rule="evenodd" d="M243.16016 423.25h.51172v6.29297h-.78907v-4.48828h-1.38672V424.5l.5586-.0664.2539-.05079.22657-.08984.20312-.14453.17578-.20703.14063-.29688.10547-.39453m4.8164 0l.22656.01953.21875.05469.21094.08984.19531.1211.1836.14843.17187.17579.30078.42187.2422.49219.17968.54687.11328.57813.03906.58984-.03906.59375-.11328.58594-.17969.55469-.24219.5-.30078.42968-.17187.1797-.1836.15233-.1953.125-.21095.08985-.21875.0586-.22656.01952-.23047-.01953-.21875-.0586-.20703-.08983-.19922-.125-.18359-.15235-.17188-.17969-.30078-.42968-.24218-.5-.1797-.5547-.11327-.58593-.03906-.59375h.83593l.02735.5664.08203.50391.125.44141.16406.375.1914.30078.21094.22266.22266.13672.22656.04687.22656-.04687.22266-.13672.20703-.22266.1914-.30078.16407-.375.125-.4414.08203-.50391.02735-.5664-.02735-.5586-.08203-.5-.125-.4375-.16406-.36328-.1914-.29297-.20704-.21485-.22266-.1328-.22656-.04298-.22656.04297-.22266.13281-.21093.21485-.19141.29297-.16406.36328-.125.4375-.08203.5-.02735.5586h-.83594l.03907-.58985.11328-.57813.17969-.54687.24218-.49219.30078-.42188.17188-.17578.1836-.14843.19921-.1211.20703-.08984.21875-.05469.23047-.01953m5.08985 0h.5078v6.29297h-.78515v-4.48828h-1.39062V424.5l.5625-.0664.25-.05079.23047-.08984.20312-.14453.17578-.20703.14063-.29688.10547-.39453m2.82422 2.17578h.78515l.01953-.3164.0586-.28516.10156-.2539.14062-.21485.1797-.17578.22265-.1289.26562-.07813.3086-.02735.23828.01953.22265.0625.20313.10157.17969.14062.14843.17188.11329.20703.07421.23437.02344.26563-.02344.26953-.0625.22265-.11328.19141-.15234.17188-.20313.16406-.24609.16406-.63281.39063-.53906.3125-.4375.3164-.34766.32422-.26172.33594-.1914.35156-.125.3711-.06641.39062-.02344.41797h4.21094v-.73828h-3.33203l.08593-.28516.11329-.23437.14843-.20313.1875-.17969.23047-.17187.27735-.17578.71875-.41797.41406-.20313.34375-.23046.28125-.25391.22265-.26563.16016-.27734.11328-.28516.0625-.28515.01953-.28125-.03906-.38281-.1211-.34766-.1914-.3086-.25-.26171-.30078-.21485-.34766-.15625-.3789-.09765-.40625-.03516-.4336.03125-.39844.10156-.35546.16406-.3047.23438-.25.30469-.18358.375-.1172.44531-.03905.51953"/><path fill="#ffffe0" fill-rule="evenodd" d="M164.21094 368.6289h22.17969v-10.1914h-22.1797v10.1914"/><path fill-rule="evenodd" d="M167.71094 360.26953h.50781v6.29688h-.78906v-4.48829h-1.38672v-.55859l.5586-.0625.2539-.05469.23047-.08984.20312-.14063.17188-.21093.14062-.29297.10938-.39844m4.8125 0l.23047.01953.21875.0586.20703.08593.19531.1211.1836.15234.17187.17578.30078.41797.2461.49219.17968.54687.10938.58204.03906.58984-.03906.59375-.10938.58203-.17969.55469-.24609.5039-.30078.42579-.17188.17968-.18359.15235-.19531.125-.20703.09375-.21875.05468-.23047.01954-.23047-.01954-.21875-.05468-.20703-.09375-.19531-.125-.1875-.15235-.16797-.17969-.3047-.42578-.24218-.5039-.17969-.55469-.11328-.58203-.03515-.59375h.83203l.02734.5625.08203.5039.1289.44532.16017.375.1914.30078.21094.21875.22266.13672.22656.04687.22656-.04687.22266-.13672.21093-.21875.19141-.30078.16016-.375.125-.44531.08203-.50391.03125-.5625-.03125-.5625-.08203-.5-.125-.4336-.16016-.36718-.1914-.29297-.21094-.21485-.22266-.1289-.22656-.04688-.22656.04688-.22266.1289-.21094.21485-.1914.29297-.16016.36719-.1289.43359-.08204.5-.02734.5625h-.83203l.03515-.58985.11328-.58203.1797-.54687.24218-.49219.30469-.41797.16797-.17578.1875-.15234.1953-.1211.20704-.08593.21875-.0586.23047-.01953m5.08984 0h.51172v6.29688h-.78906v-4.48829h-1.38672v-.55859l.5586-.0625.2539-.05469.22656-.08984.20313-.14063.17578-.21093.14062-.29297.10547-.39844m2.82422 2.17578h.78516l.01953-.3164.0625-.28516.09765-.2539.14063-.21485.17969-.17188.22265-.1289.26563-.08203.3086-.02735.23827.02344.22266.0625.20703.10156.17578.13672.15234.17188.11329.20703.0703.23828.02345.26172-.01953.26953-.06641.22266-.10938.1953-.15625.16798-.19922.16406-.25.16406-.6328.39063-.53907.3125-.4375.3164-.34375.32422-.26563.33594-.1914.35156-.125.3711-.0664.39453-.02345.41797h4.21485v-.7422h-3.33203l.08203-.28124.11328-.23828.14844-.20313.1875-.17969.23047-.17187.27734-.17578.71875-.41406.41406-.20704.34766-.23046.27734-.25.22266-.26954.16406-.27734.10938-.28515.0625-.28125.02343-.28125-.04297-.38672-.12109-.34766-.1875-.30469-.25-.26562-.30469-.21094-.34375-.16016-.3828-.09765-.40626-.03516-.4336.03516-.39843.09765-.35547.16797-.30469.23438-.24609.30078-.1875.375-.11719.44922-.03906.51562"/><path fill="#ffffe0" fill-rule="evenodd" d="M297.35938 353.53906h22.17968v-10.1914h-22.17969v10.1914"/><path fill-rule="evenodd" d="M300.85938 345.17969h.5078v6.29687h-.78515v-4.49219h-1.38672v-.55468l.5586-.0664.25-.05079.23046-.08984.20313-.14063.17578-.21094.14063-.29687.10546-.39453m4.8125 0l.23047.01953.21875.05469.20704.08984.19921.1211.1836.14843.17187.17578.30078.42188.2422.49219.17968.54687.11328.57813.03906.59375-.03906.58984-.11328.58594-.17969.55468-.24219.5-.30078.4297-.17187.17968-.1836.15234-.19921.125-.20704.08985-.21875.05859-.23046.01953-.22657-.01953-.21875-.0586-.21094-.08984-.1953-.125-.1836-.15234-.17188-.17969-.30078-.42969-.24219-.5-.17968-.55468-.11328-.58594-.03907-.58985h.83204l.03125.5625.08203.50391.125.44531.16406.375.1875.29688.21094.22265.22265.13672.22656.04688.22657-.04688.22265-.13671.21094-.22266.1914-.29688.16407-.375.125-.4453.08203-.50392.02735-.5625-.02735-.5625-.08203-.5-.125-.4375-.16406-.36328-.1914-.29296-.21095-.21485-.22265-.13281-.22656-.04297-.22657.04297-.22265.13281-.21094.21485-.1875.29296-.16406.36329-.125.4375-.08204.5-.03125.5625h-.83203l.03907-.59375.11328-.57813.17969-.54688.24218-.49218.30078-.42188.17188-.17578.1836-.14844.1953-.12109.21094-.08984.21875-.0547.22656-.01952m5.09375 0h.50782v6.29687h-.78516v-4.49219h-1.39062v-.55468l.5625-.0664.25-.05079.23046-.08984.20313-.14063.17188-.21094.14453-.29687.10546-.39453m6.8047 1.6211h-.78907l-.05078-.21095-.08203-.1875-.10547-.16015-.13281-.1289-.14454-.10548-.16015-.07422-.16797-.04296-.17188-.01563-.32812.03906-.28906.1211-.2461.1953-.20312.26954-.16016.33594-.11719.40625-.0703.46484-.02344.52735.1914-.20313.1836-.15625.1875-.125.18359-.08594.1875-.0625.1914-.03515.40235-.02344.3086.02734.3203.09375.31641.15625.29297.21875.25781.28516.19531.34765.07422.20313.05079.21484.03125.23438.0039.2539-.78515.04688-.02735-.26172-.07812-.25-.1211-.23437-.16015-.21094-.19532-.17578-.21875-.13672-.24218-.08985-.25391-.03125-.2539.03125-.2422.08985-.21874.13672-.19532.17578-.16015.21094-.1211.23437-.07812.25-.02735.26172.02735.25781.07812.25.1211.23438.16015.21094.19532.17968.21875.13672.24218.08594.25391.03125.2539-.03125.2422-.08594.21874-.13672.19532-.17969.16015-.21093.1211-.23438.07812-.25.02735-.25781.78515-.04688-.03125.3711-.08984.3711-.16016.35937-.22265.32812-.28907.28125-.17187.1211-.1875.10156-.20313.08203-.22656.0625-.23828.03906-.26172.01172-.28516-.01562-.2578-.04688-.23829-.07812-.21484-.10547-.19532-.1289-.17578-.15626-.15234-.17969-.13672-.20312-.11719-.22266-.09765-.24219-.14844-.53515-.08203-.59375-.02735-.64063.03907-.74218.11328-.66407.1875-.57812.11719-.2539.13671-.23048.15625-.20703.16797-.1836.1875-.15624.20313-.1289.21875-.10157.23047-.07031.24609-.04688.26563-.01562.36328.03515.33203.09375.29687.15235.2539.19922.21485.24218.16406.27344.1172.30078.0625.32422"/><path fill="#ffffe0" fill-rule="evenodd" d="M217.46875 336.36719h22.17969v-10.1914h-22.17969v10.1914"/><path fill-rule="evenodd" d="M220.96875 328.00781h.50781v6.29688h-.78515v-4.49219h-1.38672v-.55469l.5586-.0625.25-.05469.23046-.08984.20313-.14062.17578-.21094.14062-.29688.10547-.39453m4.8125 0l.23047.01953.21875.0547.20703.08983.19922.1211.1836.14844.17187.17578.30078.42187.24219.49219.17968.54688.11328.57812.03907.59375-.03906.59375-.11329.58203-.17968.55469-.2422.5-.30077.42969-.17188.17968-.1836.15235-.19921.125-.20703.08984-.21875.0586-.23047.01953-.22656-.01954-.21875-.05859-.21094-.08984-.19531-.125-.1836-.15235-.17187-.17968-.30078-.4297-.24219-.5-.17969-.55468-.11328-.58203-.03906-.59375h.83594l.02734.5625.08203.5039.125.44532.16406.375.19141.30078.20703.21875.22266.13672.22656.04687.22656-.04687.22266-.13672.21094-.21875.1914-.30078.16406-.375.125-.44531.08204-.50391.02734-.5625-.02734-.5625-.08203-.5-.125-.4375-.16407-.36328-.1914-.29297-.21094-.21484-.22266-.13282-.22656-.04296-.22656.04296-.22266.13282-.20703.21484-.1914.29297-.16407.36328-.125.4375-.08203.5-.02734.5625h-.83594l.03906-.59375.11328-.57813.17969-.54687.24219-.49219.30078-.42187.17187-.17578.1836-.14844.19531-.1211.21094-.08984.21875-.05469.22656-.01953m5.09375 0h.50781v6.29688h-.78515v-4.49219h-1.39063v-.55469l.5625-.0625.25-.05469.23047-.08984.20313-.14062.17578-.21094.14062-.29688.10547-.39453m6.80469 1.6211h-.78906l-.05079-.21094-.08203-.1875-.10547-.16016-.1328-.1289-.14454-.10547-.16016-.07422-.16797-.04297-.17187-.01563-.32813.03907-.28906.1211-.2461.1953-.20312.26954-.16015.33593-.11719.40625-.07031.46485-.02344.52734.1914-.20313.1836-.15625.1875-.125.1836-.08593.1875-.0625.1953-.03516.39844-.02344.3086.02735.32031.09375.3164.15625.29298.21875.2578.28515.19923.34766.0703.20313.0547.21484.02734.23437.0039.25391-.78515.04688-.02734-.26172-.07813-.25-.1211-.23438-.16015-.21094-.19531-.17578-.21875-.13672-.24219-.08984-.2539-.03125-.25391.03125-.24219.08984-.21875.13672-.19531.17578-.16016.21094-.1211.23438-.07812.25-.02734.26171.02734.25782.07813.25.1211.23437.16015.21094.19531.17969.21875.13672.24219.08593.2539.03125.25391-.03125.24219-.08593.21875-.13672.19531-.17969.16016-.21094.1211-.23437.07812-.25.02734-.25781.78516-.04688-.03125.3711-.08985.37109-.16015.35937-.22266.32813-.28906.28125-.17188.1211-.1875.10155-.20312.08204-.22656.0625-.23829.03906-.26172.01172-.28125-.01563-.26171-.04687-.23828-.07813-.21485-.10547-.19531-.1289-.17188-.15625-.15625-.1797-.13672-.20312-.11328-.22265-.10156-.24219-.14844-.53516-.08203-.59375-.02734-.64062.03906-.74219.11328-.66406.1875-.57813.11719-.2539.14063-.23047.15234-.20703.16797-.1836.1875-.15625.20312-.1289.21875-.10156.23047-.07032.25-.04687.26172-.01563.36328.03516.33203.09375.29688.15234.25781.19922.21094.24219.16406.27344.11719.30468.0625.32032"/></g></defs><use xlink:href="#as"/></svg>