<svg xmlns="http://www.w3.org/2000/svg" role="img" xmlns:xlink="http://www.w3.org/1999/xlink" viewBox="142.45 309.95 326.84 171.84"><defs><clipPath id="a"><path d="M144 311.67188h324v168.65625H144zm0 0"/></clipPath><clipPath id="b"><path d="M144 479h4v1.32813h-4zm0 0"/></clipPath><clipPath id="c"><path d="M147 479h3v1.32813h-3zm0 0"/></clipPath><clipPath id="d"><path d="M146 479h2v1.32813h-2zm0 0"/></clipPath><clipPath id="e"><path d="M153 479h9v1.32813h-9zm0 0"/></clipPath><clipPath id="f"><path d="M160 479h3v1.32813h-3zm0 0"/></clipPath><clipPath id="g"><path d="M159 479h2v1.32813h-2zm0 0"/></clipPath><clipPath id="h"><path d="M166 479h9v1.32813h-9zm0 0"/></clipPath><clipPath id="i"><path d="M173 479h3v1.32813h-3zm0 0"/></clipPath><clipPath id="j"><path d="M172 479h3v1.32813h-3zm0 0"/></clipPath><clipPath id="k"><path d="M180 479h8v1.32813h-8zm0 0"/></clipPath><clipPath id="l"><path d="M187 479h3v1.32813h-3zm0 0"/></clipPath><clipPath id="m"><path d="M186 479h2v1.32813h-2zm0 0"/></clipPath><clipPath id="n"><path d="M193 479h8v1.32813h-8zm0 0"/></clipPath><clipPath id="o"><path d="M200 479h3v1.32813h-3zm0 0"/></clipPath><clipPath id="p"><path d="M199 479h2v1.32813h-2zm0 0"/></clipPath><clipPath id="q"><path d="M206 479h9v1.32813h-9zm0 0"/></clipPath><clipPath id="r"><path d="M213 479h3v1.32813h-3zm0 0"/></clipPath><clipPath id="s"><path d="M212 479h3v1.32813h-3zm0 0"/></clipPath><clipPath id="t"><path d="M220 479h8v1.32813h-8zm0 0"/></clipPath><clipPath id="u"><path d="M227 479h3v1.32813h-3zm0 0"/></clipPath><clipPath id="v"><path d="M233 479h8v1.32813h-8zm0 0"/></clipPath><clipPath id="w"><path d="M240 479h3v1.32813h-3zm0 0"/></clipPath><clipPath id="x"><path d="M246 479h9v1.32813h-9zm0 0"/></clipPath><clipPath id="y"><path d="M253 479h3v1.32813h-3zm0 0"/></clipPath><clipPath id="z"><path d="M260 479h8v1.32813h-8zm0 0"/></clipPath><clipPath id="A"><path d="M266 479h4v1.32813h-4zm0 0"/></clipPath><clipPath id="B"><path d="M273 478h8v2.32813h-8zm0 0"/></clipPath><clipPath id="C"><path d="M280 478h3v2.32813h-3zm0 0"/></clipPath><clipPath id="D"><path d="M287 478h7v2.32813h-7zm0 0"/></clipPath><clipPath id="E"><path d="M292 478h2v2.32813h-2zm0 0"/></clipPath><clipPath id="F"><path d="M300 478h7v2.32813h-7zm0 0"/></clipPath><clipPath id="G"><path d="M315 476h4v4.32813h-4zm0 0"/></clipPath><clipPath id="H"><path d="M330 476h1v4.32813h-1zm0 0"/></clipPath><clipPath id="I"><path d="M342 476h4v4.32813h-4zm0 0"/></clipPath><clipPath id="J"><path d="M356 476h2v4.32813h-2zm0 0"/></clipPath><clipPath id="K"><path d="M369 476h3v4.32813h-3zm0 0"/></clipPath><clipPath id="L"><path d="M380 477h7v3.32813h-7zm0 0"/></clipPath><clipPath id="M"><path d="M393 479h8v1.32813h-8zm0 0"/></clipPath><clipPath id="N"><path d="M393 478h2v2.32813h-2zm0 0"/></clipPath><clipPath id="O"><path d="M407 477h7v3.32813h-7zm0 0"/></clipPath><clipPath id="P"><path d="M420 479h8v1.32813h-8zm0 0"/></clipPath><clipPath id="Q"><path d="M425 479h3v1.32813h-3zm0 0"/></clipPath><clipPath id="R"><path d="M434 477h6v3.32813h-6zm0 0"/></clipPath><clipPath id="S"><path d="M448 476h4v4.32813h-4zm0 0"/></clipPath><clipPath id="T"><path d="M461 476h5v4.32813h-5zm0 0"/></clipPath><clipPath id="U"><path d="M144 466h4v2h-4zm0 0"/></clipPath><clipPath id="V"><path d="M465 464h3v2h-3zm0 0"/></clipPath><clipPath id="W"><path d="M144 453h4v2h-4zm0 0"/></clipPath><clipPath id="X"><path d="M144 439h4v3h-4zm0 0"/></clipPath><clipPath id="Y"><path d="M144 426h4v2h-4zm0 0"/></clipPath><clipPath id="Z"><path d="M144 413h4v2h-4zm0 0"/></clipPath><clipPath id="aa"><path d="M144 399h4v2h-4zm0 0"/></clipPath><clipPath id="ab"><path d="M465 397h3v2h-3zm0 0"/></clipPath><clipPath id="ac"><path d="M144 386h4v2h-4zm0 0"/></clipPath><clipPath id="ad"><path d="M465 384h3v1h-3zm0 0"/></clipPath><clipPath id="ae"><path d="M144 373h4v2h-4zm0 0"/></clipPath><clipPath id="af"><path d="M465 370h3v3h-3zm0 0"/></clipPath><clipPath id="ag"><path d="M144 359h4v3h-4zm0 0"/></clipPath><clipPath id="ah"><path d="M144 345h4v4h-4zm0 0"/></clipPath><clipPath id="ai"><path d="M466 345h2v3h-2zm0 0"/></clipPath><clipPath id="aj"><path d="M144 331h4v6h-4zm0 0"/></clipPath><clipPath id="ak"><path d="M466 331h2v3h-2zm0 0"/></clipPath><clipPath id="al"><path d="M465 332h3v3h-3zm0 0"/></clipPath><clipPath id="am"><path d="M144 317h3v7h-3zm0 0"/></clipPath><clipPath id="an"><path d="M465 317h3v2h-3zm0 0"/></clipPath><g id="ao" clip-path="url(#clip1)"><path fill="#fff" fill-opacity="0" fill-rule="evenodd" d="M0 0h1000v1000H0zm0 0"/><path fill="#d3d3d3" fill-opacity="0" fill-rule="evenodd" d="M162.15234 355.86719l-.23437.29297.0586.23437.11718.17188.17578.23437.29297.34766.11328.0586.11719-.17188.0586-.23438.17577-.17578.46485-.17578h.69922l.23437.29297.28906.8164.0586.17579.17578.23046.35156.23438.69922.69922.17188.17578.23437.34765.23438.41016.28906.58203.41015.46485.23047.23437.23438.17578.11719.23047.17578.29297.17187 1.16406v.23438l.0586.28906.05859.11719.11719.11719.34765.41015.11719.17188.17578.17578.17578.23437.11719.17188.17188.35156.05859.23438.23437.40625.23438-.0586-.17578.17578-.0586.92969h-.58203l-.23437-.11328-.34766.11328-.11719.11719-.05859.29297-.0586.17578-.11718.17187-.46484.29297-.0586.23438-.0586.11328v.64453l.0586.17187v.41016l.0586.0586v.40624l.05859.40625.11719.17579.05859.05859.23047.64062-.0586.29297v.69922l-.05859.58203v.23438l-.0586.23047-.05468.35156v1.92187l.05469.1172h.42578l-.36719.11718-.02344.35156.89063 1.16797 1.74219.53906 1.33984.35938v.53906l.08984.8086.53516.71484 1.51953.26953.89063-.08594.08984 1.16406.53516.1797 1.16015-.1797 2.05469-.98437 1.16016-.36328 1.8789-.17578 1.69531-.1797-.17968.71876-1.51563.08594-1.25.08984-.80469.26953-1.07421.8086.26953.71875.53515.89843-.17968.625-.26563.8086.26563 1.07812.625.89844.80468.17969 1.25-.1797-.26562.72267.09766.5039.05468.29297v.17188l.0586.29296v.40625l.17578.1172.35156.11718h.40625l.29297-.17578.11328-.11719.0586-.11719.11718-.23047.0586-.17578.35156-.46484.23047-.17578.17578-.0586.17578.0586.0586.17578.11718.98828.05469.46875.0586.17188.11718.23437.17578.0586.8164.05859h.28907l.11719.23437.05859.40625.0586.35156v1.10547l.11718.29297.11719.34766.28906.69922.17578.35156.58203.7539.35157.17579.17187.0586.46875.23437.64063.46484.34765.23438.29297.17578.29297.05468.23047.0625.8164.34766.29297.17578.11328.17188.35157.35156.11719.17578.52343.64063v.28906l.0586.35156v.34766l.05859.35156.0586.28906.11718.0586.17188.05859h.17578l.58203.23437.17578.1172.17578.28905.17578.23438.11328.23437.29297.23047.11719.11719v.41016l.0586.05468.28906.23438.23437.11719.0586.11718.11718.17188.0586.11719.23047.23437.05859.17578.23437.0586.1172.05859-.1172.11328-.05859.11719v.11719l-.11719.29296-.11719.28907v.58203l.17579.11719.11718.05859.0586.11719.11719.11719.11328.05859.17578.34765.0586.35157.05858.40625v.17578l-.05859.17578-.11719.69922v.17187l.1172.17579.29296.29296h.40625l.17578.1172.11719.17187.11719.29296v.23438h-.52735l-.23047-.23438h-.23437l-.17578.0586-.0586.69922.0586.34765.11719.17579.17578.41015.11718.23047.28907.46875.17578.05469h.52344l.23437.0586.75781.64062.0586.29296v.23438l.05859.0586.23047.34765v.35156l-.11719.17188v.29297l.29297.28906.29297.17578.17187.0586.29297.17577.29297.1172.58203.40624.28906.23438.29297.17578.21875.16015.01563.01172.23047.17579.64062.52343.17578.23438.1172.17578.17577.17578.11328.17188v.64062l.1172.17578.46874.11719.58203.11719.23438.05859.23047.11328.29297.11719.11328.0586.58593.35156.28907.17187.17578.0625.17578.05469.17578.0586.69922.35155.28906.17579.23438.05468.28906.17578.23437.1172.64063.40624.29297.11719.17187.0586.23438.05859.41015.05859.23047.0586.23438.11718.0586.17188-.41017.17578.46875.0586.0586.29296.11328.23438.17578.05468.23438.0586.17578.05859.40625.11719.64062.23437.11719.17188.0586.23437v.17578l-.0586.1172-.0586.40624.23438.23438.11719.05859.34766.11719.64062.23047.17578.11718.28906.1172.17578.17577.23438.46485.58203 1.10546.17578.17579.34766.17578.17578.11719.35156.11718 1.04688.52344.23437.0586.46485.11327.29297.0586.46484.17578.75781.58203.23438.23438.34765.46484.17578.17578.28907.23438.8164.69921.29297.17579.28906.28906.29297.17578.29297.28906.69531.64063.17578.17578.29297.23437.28907.23438.46875.28906.64062.58203.34766.23438.23437.29297.34766.34765.35156.46485.9336.99218.34765.40625.11719.17579.23437.05859.11328.11719.64454.17578.23047.11328.23437.0586.29297.17577.23047.1172.9336.69921.40624.40625.23438.17578.40625.17578.23437.11719.8164.34766.34766.23437.23438.11719.29297.28906.23047.11719.7578.35156.35157.17188.23047.05859.29297.11719.23437.0586.8711.17577h.8164l.46875.23047.17188.0586.875.69921.46484.1172.29297.05858.17578.0586.23047.0586.46875.05859.34766.05859.35156.0586.40625.05859h.29297l.17187.0586v.23046l.17578.17578h.29297l.34766.0586.35156.05859.69922.11719h.64063l.46484-.23438.29297-.17578.17187-.11719.41016-.17187.28906-.17578.9336-.46485.46875-.29297.52343-.29296.46485-.17188.46484-.17578 1.05078-.46485.28906-.11718.41016-.11719.28906-.11719.52735-.17578 1.51562-.69922.58203-.34765.28907-.0586.29297-.0586.34765-.11718.875-.23047.35156-.11719h.11329l.23437-.05859.875-.23437.23438-.0586h.8125l.35156-.0586.8164-.11718.17188-.0586.35156-.05468.29297-.0586.23047-.05859.8164-.17578.17579-.0586h.34765l.23438-.05859.46484-.11718.75781-.17188.23438-.0586h.34765l.41016-.11718.28906-.0586 1.28516-.05859h.28906l.41016-.0586.23047-.05858h.17578l.875-.1172h.40625l.41015-.11718h.34766l.35156-.11328.8711-.0586h1.75l1.04687.28907.41016.11719.28906.11718.35156.11719.28907.11719 1.05078.17187.28906.0586h.29297l.29297.05859.17187.0586.41016.05859.17187.0586.1172.05858h.11718l.11719.0586.35156.0586h.11328l.41016.0664 1.92187.39453 1.92578.39453 1.51953.44922 1.69532.71875 2.14453.80469 1.60547-.71875 1.42968-.80469 1.16016-1.07813 1.25-.44921 3.03516-.71875 1.875-.35938 2.14453-1.34765 2.23437-1.25391 2.5-1.25781 1.69531-.44922 1.78516-.17969 1.16016-.26953.625.53906 1.33984-.26953.71485-.98828.98437-1.34375.44531-.17969.80469-.35937 1.875-.53907 1.78516-.44921 1.25-.26954 1.16015-.08984 1.69922-.08984 1.96094-.26954 1.25-.08984h.53906l.625-.08984h.89063l2.14453-.17969 2.41015-.17969 2.58985-.08984 1.69531.17969 1.60938.08984 1.42968.35938 1.16016.71875 1.875.98828 1.16015 1.52734.26563.71484.6289.08985.35548.89844.53515.53906.53516 1.52734 1.07422.35938h.53515l-.80469.53515.08985 1.70703.71484 2.69532.89063.80468.89453.98829.71484 1.2578 1.78516.53907 1.51953-.17969.35547 1.34375 1.60937-.80469.98047-.53906.26953.26953.31641-.21484.21875-.14453.80078.44922.44922-.35938h.35547l.53515-.26953.53907-.71875.53515-.26953.625-.98828 1.16016.44922.83984.3711 1.39454.61718 1.6953-.17969h1.60548l1.78515.08985.17969-1.70704.53516-1.34375.80468.26954.4922.84765.40233.40625-.08984.53906v.35938l.71485.44922.71093-.26953h1.42969l.35938.98828.4453 1.25781.71485 1.34375 1.25.6289 1.69531.62891.71485-.17969.17969-.53906.98046-.08984.44922.35937.08594 1.25782-.26563.6289-.53515.17969v.53906l.71484.98438.26563.53906.98437.98828.80078 1.07813-.26562.35937-.08985.89844-.625 2.33203-.35546 2.0664-.08985 1.79298-.17969.71875-.08984.53906v1.4375l-.98047 1.88281-.35937 1.70703-.53516.89844-.80469 1.16797-.26562.53906 2.05469 1.2539.08593.35938-.35546.53906-.08985-.17968v.80859l.08985 1.4375-.44532.71484-1.07422.09375-.26562.71485.53515.89844.8047.71875 1.16015.80859 1.33984.26953.44531.35938-.35546.44921-1.78907-.08984-1.25-.44922-.71484-.71875-.625-.08984-.17578 3.58984-.1875 1.3086h89.35937V311.70313h-55.26953v49.08203l.76172.125 3.28906.54296 2.02344 2.83594v2.7539l2.35156.33204 2.34766.33203h4.05078l-1.3789 4.16016-2.02344.70703-2.02344.70312-.54297.34375-2.59375 1.6172-.1875.11718-2.02344-2.07813-.73046-2.74218-2.67188-2.07813-1.375-3.5-.0664-.08203-1.95704-2.67188 2.75-1.41796v-49.08204H294.42187v91.41407l.1172.03125.1328.01172.07422.07421.10547.04688.08985.0586.08593.05859.08985.0586.29687.29687.0586.08984.03125.11719.02734.11719.01563.13671-.03125.1172-.0586.08983-.0586.08594-.04296.10547-.04688.10156-.02734.1211v.14453l.17578.26953.14844.14844.07422.08594.07422.07421.04296.10547.0625.08985.0586.08593.04297.10547.0586.08985.04687.10156.04296.10547.0586.08594.11719.17968.07421.07422.0625.08594.0586.08984.04297.10547.0586.08985.05858.08593.0625.08985.0586.08984.04297.10156.11719.17969.07421.07422.0586.08594.07422.07421.08984.0586.10547.04687h.14844l.1328-.01562.13282.01562.10156-.04687.07422-.07422.04688-.10156-.01563-.13281v-.14844l-.04687-.10547-.02735-.11719-.04687-.10156-.02735-.1211-.04296-.10156-.0625-.08984-.04297-.10156-.04297-.10547-.03125-.11719-.01563-.13281-.01171-.13672.08593-.0586.0586-.08593.12109-.03125.04297.10547.01562.1328v.1172l.0586.10156.0586.08984.08983.0586.14844.14843.0586.08985.04296.10547-.01171.10156.08593.0586.10547.04687.08594.0586.08984.05858.07422.07422-.11719.02735-.10546.04687-.08594.0586-.07422.07421-.0586.08985-.0625.08594-.02734.12109-.04687.10156-.04297.10547-.03125.11719-.01172.13281-.01563.13281v.14844l.02735.11719.04687.10547.04297.10156.0586.08984.07421.07422.08985.0586.07422.07421.08984.0586.0586.08984.04296.10547.04688.10156.11719.03125.1328.01563h.14845l.11718-.03125.10547.04297.04297.10547.04688.10156.02734.1211L299.5 410l.02734.11719.03125.1211.02735.11718.10547.04297.10156.04687.13281-.01562.14844.14844.0625.08593.07422.07422.07031.07422.08984.0625.10547.04297.10156.04297.1172.03125.13671.01562.11719-.03125.07422-.07422.02734-.11718-.01172-.13282-.03125-.12109-.02734-.11719.04297-.10547h.11719l.08984.0625.11719.02735h.14843l.13282.01562h.14843l.13282.01563.1328-.01563h.14845l.1328-.01562.13282-.01172.13672.01172.11719-.02735.13281-.01562.1914-.0586-.05859.17579-.01562.1328-.02735.1211-.01562.13281-.0586.08594-.1328.01563-.10548.04687-.10546.04297-.1172.03125-.11718.02735-.26563.03125h-.14843l-.13281.01562-.07422.07422.05859.08594.14844.14843.11719.1797.07421.0703.08985.0625.08984.0586.08594.0586.08984.05858.10156.04297.10547.0625.10547.04297.08594.0586.10547.04687.10156.04297.17969.11719.0586.08984-.04298.10156-.04687.10547.01562.13281.22266.22266.0586.08985.04296.10156.03125.1211.04297.10155.01563.13282.03125.11718.01171.13672.03125.11719.14844.14844.10156.04297.10547.04296.1172.03125.1328.01563.13672.01563h.11719l.11719-.03125.08984-.0586.04297-.10547.04688-.10156.04296-.10547.03125-.11719.01172-.1328v-.14845l-.01172-.1328-.01562-.13282-.03125-.11719-.04297-.10547-.04688-.10547-.04296-.10156-.04297-.10547-.01563-.13281.01563-.13281.02734-.11719.03125-.11719.02735-.1211.04687-.10155.08984-.0586.08594-.0625.07422-.07422.08984-.05859.22266-.22266.0586-.08593.07421-.07422.11719-.17969.0586-.08594v-.14844l-.07423-.07421-.10156-.04688-.10547-.04297-.10156-.04297-.0586-.08984-.04687-.10547-.02734-.11719.08984-.05859.11719-.03125.10156-.04297.17969-.11719.14844-.14843.01172-.13282-.01172-.10546-.08985-.0586-.1328.01563h-.14845l-.1328.01562-.13282-.01562-.1211-.03125-.08593-.0586-.07422-.07422-.0586-.08984-.0625-.08594-.11718-.17969-.0586-.08593.03125-.1211.08594-.05859.1211-.03125.05859-.08594v-.1211l-.03125-.11718-.0586-.08984-.05859-.08594-.04687-.10547-.02735-.11719-.01562-.1328.0586-.08985.07421-.07422.08984-.0586.1172-.17968.07421-.07422.0586-.08594.14843-.14844.1211-.03125.1328-.01562.13282.01562.07422.07422.04297.10547.01562.13281-.03125.1172-.11719.03124-.1328.01172-.14844.14844-.04297.10547-.04688.10156-.02734.1211-.03125.11718v.14844l.03125.11719.04297.10546.05859.08985.07422.07031.07422.07422.11719.03125.12109.02734.11719-.02734.1328-.01563h.1172l.08984.0586.07422.07422.04687.10546.0586.08594.10156.04688.13281.01562.10547.04297.08594.0586-.01172.10546-.07422.07422-.17969.11719-.05859.08984-.08984.0586-.07032.07422-.07421.07421-.0625.08985-.02735.11719-.01562.1328.01562.13282-.01562.13281v.14844l.01562.13281.02735.1172.03125.12108.07421.07422.08985.0586.08594.0586.08984.05858.11719.03125v.08594l-.10157.04688-.08984.0586-.26563.03124-.11718.02735h-.14844l-.10547.04296-.10156.04688-.0586.08984-.0625.23438-.01171.13281-.03125.1211-.01563.1328v.29298l-.01172.1328.01172.13673.01563.1328.1328.01563.13282.01172.1211.03125.08593.0586.07422.07421.04688.10547.04296.10157.01563.1328v.44532l-.01563.13281v.44532l.03125.26562.02735.11719.01562.13281.03125.11719.08594.21094.03125.26562v.14844l-.03125.11719-.02734.11718-.03125.1211-.02735.11719-.03125.11718-.03125.1211-.01171.1328-.01563.13282.08984.0586.1172-.03125.10155.01562.04688.10547-.03125.26562v.44141l-.04297.10547-.04688.10547-.04296.10156-.04297.10547-.0586.08594-.03125.12109-.04296.11719-.03125.11719-.01563.1328.01563.13282.05859.08984.10547.04688.08594.0586.05859.08593-.01172.13672-.03125.11719-.04297.10156v.44531l-.01562.13281v.14844l-.03125.11719-.04297.10547-.02735.11719-.04687.10546-.04297.10157-.03125.12109-.02734.11719-.03125.13281-.03125.11719-.02735.11719-.04297.10546-.03125.1172-.03125.12108-.01171.13282-.01563.13281v.29688l.02734.11718v.14844l.04688.39844.02734.11719.0586.08984.12109.03125h.14844l.13281-.01563.0586.08985v.11719l-.0586.08984-.08984.0586-.10157.04296-.10546.04688-.08985.05859-.08594.0586-.13671.01562-.1172-.03125-.1328-.01563-.10157.04688-.0625.08594-.01172.13671-.01562.13282-.03125.11719-.02735.11718-.01562.13281-.03125.1211v.29687l.01563.13282.03125.11718v.14844l.01171.13281v.14844l-.02734.11719-.04688.10156-.02734.1211-.03125.11718-.0586.08985-.07421.07421-.10156.04297-.10547.04688-.11719.02734-.1211.03125-.10156-.04687.0586-.08594.10547-.04688.02734-.11718.03125-.11719.02734-.1211.03125-.11718v-.14844l.01563-.13281-.03125-.11719-.04297-.10547-.10547.01563-.07422.07422-.10156.04296-.08984.0625-.07422.07422-.04297.10157-.01563.1328-.03125.1172L304.25 426l-.03125.11719-.02734.11719-.03125.12109-.02735.11719-.03125.11718-.04297.10547-.08984.0586h-.08984l-.1172-.03125-.03124-.08594.01562-.13672-.03125-.11719v-.14844l-.01171-.1328v-.14844l-.0625-.23438-.02735-.1211-.04297-.10156-.04687-.10546-.0586-.08594-.05859-.08985-.04297-.10546-.0625-.08594-.14844-.14844-.0703-.07422-.10548-.04687-.10547-.04297-.10156-.04297-.29687-.29688-.08985-.07421-.08594-.0586-.10546-.04297-.08985-.0625-.08594-.0586-.10546-.04296-.08985-.0586-.08594-.0625-.07421-.0703-.10547-.04688-.08594-.0586-.10547-.04296-.08984-.0625-.10156-.04297-.10547-.04297-.08594-.0586-.10547-.04687-.10547-.04297-.10156-.04687-.08985-.0586-.10156-.04297-.10547-.04296-.08984-.0625-.11719-.02735-.13281-.01562-.13281.01562H299.75l-.13281.01563-.11719-.03125-.08984-.0586-.07422-.07422-.08985-.05859-.10156-.04688h-.14844l-.12109-.02734-.10156-.04297-.07422-.07422-.11719-.17968-.08984-.0586-.10156-.04297-.08985-.0625-.10547-.04296-.08984-.0586-.08594-.0586-.10547-.04687-.0586-.08594-.05858-.08984-.04297-.10547-.04688-.10156-.07422-.07422-.08594-.0586-.07421-.07421-.08985-.0586-.22265-.22265-.04297-.10547-.03125-.26563.10547-.04296h.14453l.10547.04296.07421.07422.08985.0586.08594.0586.10546.04687.08985.05859.14844.14844.0703.07422.14845.14843.0625.08594.07421.07422.08594.0586.07422.07421.08985.0625.08984.0586.08594.05859.26953.17578.10156.04688.10547.04296.10156.04297.04688-.07421.05859-.08594.07422-.07422.07031-.07422.10547.04297.07422.07422.0586.08984.04296.10156.04688.10547.04296.10547.1211.02735.11719-.02735.07421-.08984.04297-.10547.0586-.08985.07422-.07421.10546-.04297.1172-.02735.1328.01172.08985.0586.14844.14843.05859.08985.04297.10547.04687.10156.04297.10547.04297.10156.10547.04688.10547.04296.13281.01563.08594-.0586.0586-.08984.07421-.07422.10547-.04297.11719.02735.10547.04687.10156.04297.10547.04297.10156.04688.17969.11718v.11719l-.01563.13281.01563.13281.01562.13672.0586.08594.10156.04688.1211.02734.11718.03125h.14844l.11719-.03125.05859-.08984.17969-.1172.05859-.08983.07422-.07422.0586-.08594.11718-.17969.17969-.11719.11719.03125.08984.0586.04297.07422-.01563.1328v.1172l.08985.05859h.14843l.13282-.01563.1328-.01171.26563-.03125.10547-.04297.11719-.03125.1211-.02735.07421-.07421.07031-.07422.0625-.08985-.01562-.10547-.04688-.10156-.10156-.04297-.10547-.01562-.11718.02734-.26563.03125h-.14844l-.07421-.07422-.08985-.0586-.11719-.03124-.11718-.02735-.13282-.01562h-.14843l-.13282.01563h-.29687l-.10547-.04688-.14844-.14844-.04297-.10156-.05859-.08984.22266-.22266.08593-.0586.10547-.04296.11719-.03125.13281-.01563.13281.01563.13672.01562.10157.04297.1328-.01172.08985-.0625.10156-.04297.0625-.08984-.04687-.10156-.08984-.0586-.1172-.03125-.10155-.04296-.0586-.08985-.0625-.08984v-.11719l.01563-.13281.10547-.04688.07421-.07031v-.1211l-.08984-.05859-.03125-.11719.08985-.05859.07421-.07422.04297-.10547.0586-.08984.04687-.10156.01563-.13281v-.14844l-.04688-.10547-.04297-.10156-.08984-.0586-.13281-.01562-.10157-.04297-.13671-.01563-.1172-.03125h-.4453l-.13282-.01562-.13281-.01172-.13281-.01563-.11719-.03125h-.14844l-.13281-.01562-.13281-.01172-.26563-.03125-.1211-.04297-.08593-.0586-.07422-.07421v-.14844l.01172-.13281.10547-.04688.10156-.04296.13281-.01563h.15235l.13281-.01562h.29297l.1211.03125.10156.04296.08984.0586.23438.0625.12109-.04688.08984-.05859.10156-.04297.13282-.01562.10547.04296.10156.04688.13281.01172.1211-.02735h.14453l.12109-.03125.11719-.02734.10547-.04687.07421-.07422.08594-.0586.14844-.14843.0586-.08594.04687-.10547.02734-.11719.01563-.10547-.10156-.04296-.08985-.0586-.11719-.03125-.10546-.04297-.08985-.0625-.07422-.08594-.07422-.07421-.10156-.04297-.10547-.04688-.10156-.04297-.0586-.08984-.04687-.10156-.08594-.21094-.0625-.08594-.05859-.08984-.07422-.07422-.08594-.0586h-.26953l-.11719.03126-.08984.05859-.10156.04297-.13281.01562-.10547-.01562-.02735-.11719-.0625-.08984-.11718-.03125-.10157-.04297-.14843-.14844-.03125-.11719-.01563-.10546.07422-.07422.17969-.1172.11719-.02733.11718-.03125.13672.01562.10156.04297.10547.04297.10156.04687.10547.04297.1172.03125.1328.01563.1172.02734.1328.01563.10547-.01563.08985-.0586-.07422-.07421-.10547-.04297-.07422-.07422-.07422-.08984-.14844-.14844-.08593-.0586-.08985-.05859-.07422-.07422-.08984-.0586-.10156-.04687-.1211-.02734-.10156-.04688-.10547-.04296-.11719-.03125-.10156-.04297-.1211-.03125h-.14843l-.11719.03125-.10546.04297-.08594.0625-.17969.11718-.08594.0586-.08984.0586-.10547.04687-.08594.05859-.10547.04297-.10156.04297-.10547.04687-.07422.07422-.05859.08985-.0586.08593-.04687.10547-.0586.08594-.07421.07422-.13281-.01172-.1172-.03125h-.11718l-.07422.07422-.08984.0586-.07422.07421-.08984.0586-.08594.05859-.10547.04687-.10156.04297-.13672.01563-.10156-.04297-.14844-.14844-.10547-.04688h-.08594l-.10547.04688-.10156.04297-.1211.03125-.11718-.03125-.07422-.07422v-.11719l.03125-.1211.07422-.0703.0586-.08985.07421-.07422.11719-.03125.10547-.04296h.29297l.13281-.01563.13672-.01563.10156-.04296.08985-.0586.10156-.04687.08984-.0586.13281-.01171.08985.05859.13281.01172.08984-.0586.08594-.05859.10547-.04297.08984-.0586.08594-.0625.08985-.05859.14843-.14843.0586-.08594.05859-.08985.10547-.04296.13281-.01563.11719.02735.1211.03125.05859-.0586.05859-.08984.03125-.26563.02734-.11719.10547.01172.13281.01563.10157-.04297.08984-.0586.0586-.08984.07421-.07422.0586-.08984.04687-.10156.01172-.13281-.01172-.13282-.04687-.10547-.14844-.14843-.0586-.08985-.05859-.08594-.04297-.10546v-.44532l.01563-.1328v-.14845l.01172-.1328-.0586-.0586-.08984.0586-.10156-.04298-.17969-.11719-.08594-.05859-.0625-.08984-.0586-.08985-.07421-.07421-.08594-.0586-.1211.03125-.10155.01172-.10547.04688-.08594.05859-.10547.04297-.14844.14844-.08984.05859-.08594.0586-.08984.0625-.10547.04296-.13281.01563v-.1211l.10547-.04297.11718-.03125.07422-.0703.04297-.10548v-.14844l-.02734-.11718-.14844-.14844-.13281-.01563h-.14844l-.11719.03125-.10547.04297-.10156.04297-.08984.0625-.11719.02735-.07422-.07422.01172-.13281-.04297-.10157-.04297-.10547-.08984-.05859-.11719.02734-.1211.03125-.11718.03125-.10156.04297-.1211.03125-.10156.04297-.10547.04297-.08984.0586-.10156.01562v-.11719l.01562-.13281-.0586-.08985-.07421.04297-.14844.14844-.0586.08985-.07421.07421-.04688.10547-.04296.10156-.07422.07422-.0586.08985-.07422.07422-.05859.08593-.07422.07422-.08984.0625-.07422.07031-.07422.07422-.10156.01563-.13281.01562-.10547-.04296v-.1211l.14843-.14844.04297-.10156.0586-.08984.04687-.10156.04297-.10547.0586-.08985.03124-.11719.04297-.10156.03125-.1211.02735-.11718.04687-.10547.04297-.10156.04297-.10547.07422-.07031.08984-.0625.08985-.0586.10156-.04296h.29687l.26563-.03125.10547-.04297-.07422-.07422-.11719-.03125-.10547-.04297-.08984-.0586-.10156-.04687-.08985-.0586-.10156-.04296-.10547-.04297-.08984-.0625-.08594-.0586-.10547-.04296-.10156-.04297-.1211-.03125-.11718-.03125-.10157-.04297L297.5 410.25l-.10156-.04297-.08985-.0586-.04296-.10546-.01563-.13281.10156-.04297.13281-.01563.13672.01563.13282-.01563.10156-.04297.0586-.08984.01562-.10547-.08985-.0586-.07421-.07421-.10157-.04297-.08984-.0586-.14844-.14843-.04297-.10547-.01562-.13281v-.29297l-.0586-.08985-.08984-.05859-.07422-.07422-.04297-.10547-.03125-.11718-.0586-.08985-.07421-.07422-.11719-.02734-.07422-.07422-.08984-.0586-.08984-.0625-.08594-.05859-.07422-.07421-.0586-.08594-.04687-.10547-.08594-.0586-.14843-.14843-.19532-.0586-.1328.01563-.10157.04297-.07422.07422-.04688.10156-.04296.10547-.0586.08984-.0586.08594-.29687.29687-.08984.0586h-.08594l-.0625-.08594-.04297-.10547.03125-.11719.0586-.08984.02734-.11719-.01172-.13281-.08984-.0625-.10547.04688-.11719.02734-.11719.03125-.26953.17578-.10156.04688-.11719.02734-.10546.04687-.08985.0586-.10156.04297-.0586-.08594-.04687-.10547.01563-.13281.04687-.10547.07031-.07422.07422-.07031.0586-.08985v-.14843l-.04297-.10547h-.23829l-.10156.04687-.03125.11719-.02734.11719-.03125.1211-.07422.04296-.13281.01563-.07422-.04688-.04297-.10156-.04297-.10547-.04687-.10156-.04297-.10547-.1211.03125-.10156.04297-.13281.01562-.11719.03125-.10547.04297-.08984.0586-.10156.04687-.1211.02734-.13281.01563-.10156-.04297-.0586-.08985-.04687-.10546-.04297-.10157-.04297-.10546v-.1172l.0586-.08984.08593-.05859.17969-.11719.10156-.04687.10547-.04297.10547-.0586.10156-.04296.08985-.0625.10156-.04297.10547-.0586.10156-.04687.08984-.0586.10547-.04296.10156-.04297.08985-.0625.10156-.04297.13672-.01563.11719.03125.10156.04297.1211.03125.10156.04297.10546.04688.10157.04296.10547.04297.10156.04688.10547.04297.10156.04297.10547.04687.08594.0586.10546.04296.1172.03125.10546.04297.10156.04688.08985.0586.10547.04296.10156.04297.10547.04687.11719.02735.10156.04687.1211.02735h.14843l.08594-.0586.01562-.10156.0586-.08984-.02735-.1172-.07422-.07421-.11719-.17969-.07421-.07422-.08985-.07421-.17969-.1172-.08593-.05859-.10547-.04296-.10156-.04688-.26954-.17578-.05859-.08985-.07422-.07421-.0586-.08985-.04296-.10156-.03125-.11719-.01563-.13672v-.5625l-.01171-.1328-.01563-.13282-.03125-.11719-.01562-.13281-.01172-.13281-.03125-.1211-.22266-.22265-.0586-.08594-.01562-.10547.03125-.11719.13281-.01562v-91.41406H172.9922v1.45312l-.0586.23438-.35156 1.05078-.17187.52343-.1172.34766-.17577.41016-.11719.17187-.23438.29297-.23046.0586h-.35157l-.11718.05859-.23047.40625v.29297l.11719.17578.23046.23047.1172.23437.64062.75781.29297.46485.17578.23437.23047.35156.23437.34766.64063.8164.17578.46485.17187.41016.11719.69531.17578.46875.11719 1.39844.0586.46484v.875l.11718 1.04688v4.78125l-.0586.46484-.35156 1.28125-.17578.52344-.11328.41015-.35156.9297L172.93359 336l-.23437.58203-.11719.17578-.17187.34766-.17578.40625-.35157.8164-.0586.29297-.11327.29297-.11719.28906-.0586.17579-.11718.875-.0586.40625-.05859.11718-.0586.17579-.05859.17187-.23047.52734-.11718.17188v.23437l-.11719.23438-.0586.17187-.17577.58594v.28906l-.0586.17579v.29296l-.0586.11329-.05859.52734v.17187l-.05468.23438v2.6211l-.17578.8164-.1172.17578-.17577.23438-.1172.17187-.11327.23438-.58594.93359-.23047.28906-.29297.46485-.17578.23437-.28906.35156-.35156.69922-.11328.23047-.17579.41016-.17578.23046-.40625.52735-.8164.69922-.29297.17187-.28906.23438-.17579.11719-.17578.17578-.52344.40625-.52734.17578-.17187.17578-.23438.05469-.64062.17578h-.75782m12.21094 31.02344l-1.07422.44921.35938.89454 1.25-.71485.44531-.53906-.98047-.08985"/><path fill="#d3d3d3" fill-opacity="0" fill-rule="evenodd" d="M201.50781 416.59766h-.89453l.44922.6289.98047.35938.80469-.08985.4453-.98828-.17577.08985-.71485-.35547-.89453.35547m154.6211 59.0703l-.0586-.52343v-.29297l.11328-.29297.0586-.23046.46875-.46875h.11328l.11719-.11329.11718-.05859h.17579l.23437-.0586h.34766l.23437.0586.11719.0586.23047.17187.0586.17578.11718.58203v.29297l-.11719.17578-.17187.28906-.17579.17579-.52734.52343-.23047.23438-.11719.0586h-.17578l-.11718-.0586-.40625-.29297-.17579-.11719-.11718-.0586-.0586-.11327-.05468-.1172m6.64062-10.95702l-.0586-.17188v-1.10937l.0586-.17188.17578-.0586.17188-.05858h.17578l.23437-.0586.1172.0586.05858.69921-.05859.17188-.11719.17578-.11718.0586-.23438.52343-.11328.0586h-.23438l-.05859-.1172m9.61328-14.39062l-.11719-.17578v-.69922l.29297-.875.1172-.17187.17577-.35156.11328-.23047.1172-.29297.35155-.75781.1172-.23047.17187-.23438h.17578l.11719-.0586h.64062l.11719.0586.23437.23438.17188.11328.35156.29297.11719.11718.11328.17579v.11328l.11719.05859.11718.11719v.69922l-.05859.17578v.23047l-.0586.17578-.34765 1.05078-.11719.23047-.11719.23437-.11718.0586-.23047.23437-.64063.28906h-.875l-.41015-.11718-.64063-.46485"/><path fill="none" stroke="#bebebe" stroke-linecap="round" stroke-linejoin="round" stroke-miterlimit="10" stroke-width=".5" d="M467.95703 311.69531H144.02734v168.625h323.9297v-168.625"/><g clip-path="url(#a)"><path fill="#fff" fill-opacity="0" fill-rule="evenodd" d="M144 311.67188v168.65625h324V311.67188H144"/></g><g clip-path="url(#b)"><path fill="none" stroke="#000" stroke-linecap="round" stroke-linejoin="round" stroke-miterlimit="10" stroke-width=".5" d="M147.5039 480.05469l-7.0078.54687"/></g><g clip-path="url(#c)"><path fill="none" stroke="#000" stroke-linecap="round" stroke-linejoin="round" stroke-miterlimit="10" stroke-width=".5" d="M147.5039 480.05469l1.31641 2.07031"/></g><g clip-path="url(#d)"><path fill="none" stroke="#000" stroke-linecap="round" stroke-linejoin="round" stroke-miterlimit="10" stroke-width=".5" d="M146.48438 480.13672l.65625 1.03515"/></g><g clip-path="url(#e)"><path fill="none" stroke="#000" stroke-linecap="round" stroke-linejoin="round" stroke-miterlimit="10" stroke-width=".5" d="M160.80469 479.92188l-6.98047.8125"/></g><g clip-path="url(#f)"><path fill="none" stroke="#000" stroke-linecap="round" stroke-linejoin="round" stroke-miterlimit="10" stroke-width=".5" d="M160.80469 479.92188l1.39453 2.01562"/></g><g clip-path="url(#g)"><path fill="none" stroke="#000" stroke-linecap="round" stroke-linejoin="round" stroke-miterlimit="10" stroke-width=".5" d="M159.78906 480.03906l.69922 1.01172"/></g><g clip-path="url(#h)"><path fill="none" stroke="#000" stroke-linecap="round" stroke-linejoin="round" stroke-miterlimit="10" stroke-width=".5" d="M174.125 479.95313l-6.98828.75"/></g><g clip-path="url(#i)"><path fill="none" stroke="#000" stroke-linecap="round" stroke-linejoin="round" stroke-miterlimit="10" stroke-width=".5" d="M174.125 479.95313l1.375 2.03125"/></g><g clip-path="url(#j)"><path fill="none" stroke="#000" stroke-linecap="round" stroke-linejoin="round" stroke-miterlimit="10" stroke-width=".5" d="M173.10547 480.0625l.6914 1.01563"/></g><g clip-path="url(#k)"><path fill="none" stroke="#000" stroke-linecap="round" stroke-linejoin="round" stroke-miterlimit="10" stroke-width=".5" d="M187.4414 479.9961l-6.99218.66406"/></g><g clip-path="url(#l)"><path fill="none" stroke="#000" stroke-linecap="round" stroke-linejoin="round" stroke-miterlimit="10" stroke-width=".5" d="M187.4414 479.9961l1.35548 2.04687"/></g><g clip-path="url(#m)"><path fill="none" stroke="#000" stroke-linecap="round" stroke-linejoin="round" stroke-miterlimit="10" stroke-width=".5" d="M186.42578 480.09375l.67578 1.02344"/></g><g clip-path="url(#n)"><path fill="none" stroke="#000" stroke-linecap="round" stroke-linejoin="round" stroke-miterlimit="10" stroke-width=".5" d="M200.73438 479.79688l-6.94532 1.0664"/></g><g clip-path="url(#o)"><path fill="none" stroke="#000" stroke-linecap="round" stroke-linejoin="round" stroke-miterlimit="10" stroke-width=".5" d="M200.73438 479.79688l1.46484 1.96484"/></g><g clip-path="url(#p)"><path fill="none" stroke="#000" stroke-linecap="round" stroke-linejoin="round" stroke-miterlimit="10" stroke-width=".5" d="M199.72266 479.94922l.73437.98437"/></g><g clip-path="url(#q)"><path fill="none" stroke="#000" stroke-linecap="round" stroke-linejoin="round" stroke-miterlimit="10" stroke-width=".5" d="M213.96094 479.38281l-6.76953 1.89063"/></g><g clip-path="url(#r)"><path fill="none" stroke="#000" stroke-linecap="round" stroke-linejoin="round" stroke-miterlimit="10" stroke-width=".5" d="M213.96094 479.38281l1.6914 1.77735"/></g><g clip-path="url(#s)"><path fill="none" stroke="#000" stroke-linecap="round" stroke-linejoin="round" stroke-miterlimit="10" stroke-width=".5" d="M212.97656 479.66016l.84375.88672"/></g><g clip-path="url(#t)"><path fill="none" stroke="#000" stroke-linecap="round" stroke-linejoin="round" stroke-miterlimit="10" stroke-width=".5" d="M227.26563 479.34766l-6.75 1.96093"/></g><g clip-path="url(#u)"><path fill="none" stroke="#000" stroke-linecap="round" stroke-linejoin="round" stroke-miterlimit="10" stroke-width=".5" d="M227.26563 479.34766l1.71093 1.7578"/></g><g clip-path="url(#v)"><path fill="none" stroke="#000" stroke-linecap="round" stroke-linejoin="round" stroke-miterlimit="10" stroke-width=".5" d="M240.60938 479.46094l-6.8086 1.73437"/></g><g clip-path="url(#w)"><path fill="none" stroke="#000" stroke-linecap="round" stroke-linejoin="round" stroke-miterlimit="10" stroke-width=".5" d="M240.60938 479.46094l1.65234 1.8125"/></g><g clip-path="url(#x)"><path fill="none" stroke="#000" stroke-linecap="round" stroke-linejoin="round" stroke-miterlimit="10" stroke-width=".5" d="M253.98438 479.73047l-6.92579 1.19922"/></g><g clip-path="url(#y)"><path fill="none" stroke="#000" stroke-linecap="round" stroke-linejoin="round" stroke-miterlimit="10" stroke-width=".5" d="M253.98438 479.73047l1.5039 1.9375"/></g><g clip-path="url(#z)"><path fill="none" stroke="#000" stroke-linecap="round" stroke-linejoin="round" stroke-miterlimit="10" stroke-width=".5" d="M267.20703 479.33203l-6.74219 1.99219"/></g><g clip-path="url(#A)"><path fill="none" stroke="#000" stroke-linecap="round" stroke-linejoin="round" stroke-miterlimit="10" stroke-width=".5" d="M267.20703 479.33203l1.71485 1.7539"/></g><g clip-path="url(#B)"><path fill="none" stroke="#000" stroke-linecap="round" stroke-linejoin="round" stroke-miterlimit="10" stroke-width=".5" d="M280.39453 478.98047l-6.48828 2.69531"/></g><g clip-path="url(#C)"><path fill="none" stroke="#000" stroke-linecap="round" stroke-linejoin="round" stroke-miterlimit="10" stroke-width=".5" d="M280.39453 478.98047l1.89453 1.5586"/></g><g clip-path="url(#D)"><path fill="none" stroke="#000" stroke-linecap="round" stroke-linejoin="round" stroke-miterlimit="10" stroke-width=".5" d="M293.53125 478.61328l-6.13281 3.42969"/></g><g clip-path="url(#E)"><path fill="none" stroke="#000" stroke-linecap="round" stroke-linejoin="round" stroke-miterlimit="10" stroke-width=".5" d="M292.64063 479.11328l1.03125.66406"/></g><g clip-path="url(#F)"><path fill="none" stroke="#000" stroke-linecap="round" stroke-linejoin="round" stroke-miterlimit="10" stroke-width=".5" d="M306.6211 478.26172l-5.6836 4.13281"/></g><path fill="none" stroke="#000" stroke-linecap="round" stroke-linejoin="round" stroke-miterlimit="10" stroke-width=".5" d="M305.79688 478.86328l1.10156.53906"/><g clip-path="url(#G)"><path fill="none" stroke="#000" stroke-linecap="round" stroke-linejoin="round" stroke-miterlimit="10" stroke-width=".5" d="M318.48828 477.10547l-2.78515 6.44922"/></g><path fill="none" stroke="#000" stroke-linecap="round" stroke-linejoin="round" stroke-miterlimit="10" stroke-width=".5" d="M318.08594 478.04297l1.22265-.10156"/><g clip-path="url(#H)"><path fill="none" stroke="#000" stroke-linecap="round" stroke-linejoin="round" stroke-miterlimit="10" stroke-width=".5" d="M330.51953 476.8164l-.21484 7.02344"/></g><path fill="none" stroke="#000" stroke-linecap="round" stroke-linejoin="round" stroke-miterlimit="10" stroke-width=".5" d="M330.48828 477.83984l1.09766-.54297"/><g clip-path="url(#I)"><path fill="none" stroke="#000" stroke-linecap="round" stroke-linejoin="round" stroke-miterlimit="10" stroke-width=".5" d="M342.59766 477l2.2578 6.65625"/></g><path fill="none" stroke="#000" stroke-linecap="round" stroke-linejoin="round" stroke-miterlimit="10" stroke-width=".5" d="M342.92578 477.96875l.83985-.89063"/><g clip-path="url(#J)"><path fill="none" stroke="#000" stroke-linecap="round" stroke-linejoin="round" stroke-miterlimit="10" stroke-width=".5" d="M356.3711 476.8789l1.33984 6.89844"/></g><path fill="none" stroke="#000" stroke-linecap="round" stroke-linejoin="round" stroke-miterlimit="10" stroke-width=".5" d="M356.5664 477.88281l.95313-.76953"/><g clip-path="url(#K)"><path fill="none" stroke="#000" stroke-linecap="round" stroke-linejoin="round" stroke-miterlimit="10" stroke-width=".5" d="M369.73047 476.8711l1.2539 6.91406"/></g><path fill="none" stroke="#000" stroke-linecap="round" stroke-linejoin="round" stroke-miterlimit="10" stroke-width=".5" d="M369.91016 477.8789l.96484-.76171"/><g clip-path="url(#L)"><path fill="none" stroke="#000" stroke-linecap="round" stroke-linejoin="round" stroke-miterlimit="10" stroke-width=".5" d="M381.04688 477.99219l5.24609 4.67578"/></g><path fill="none" stroke="#000" stroke-linecap="round" stroke-linejoin="round" stroke-miterlimit="10" stroke-width=".5" d="M381.8125 478.67188l.28906-1.19141"/><g clip-path="url(#M)"><path fill="none" stroke="#000" stroke-linecap="round" stroke-linejoin="round" stroke-miterlimit="10" stroke-width=".5" d="M393.4961 479.9414l6.98046.77735"/></g><g clip-path="url(#N)"><path fill="none" stroke="#000" stroke-linecap="round" stroke-linejoin="round" stroke-miterlimit="10" stroke-width=".5" d="M394.51172 480.05469l-.45313-1.14063"/></g><g clip-path="url(#O)"><path fill="none" stroke="#000" stroke-linecap="round" stroke-linejoin="round" stroke-miterlimit="10" stroke-width=".5" d="M407.66016 482.64453l5.28515-4.63281"/></g><g clip-path="url(#P)"><path fill="none" stroke="#000" stroke-linecap="round" stroke-linejoin="round" stroke-miterlimit="10" stroke-width=".5" d="M426.97656 479.30078l-6.71875 2.05469"/></g><g clip-path="url(#Q)"><path fill="none" stroke="#000" stroke-linecap="round" stroke-linejoin="round" stroke-miterlimit="10" stroke-width=".5" d="M426 479.60156l.86719.86719"/></g><g clip-path="url(#R)"><path fill="none" stroke="#000" stroke-linecap="round" stroke-linejoin="round" stroke-miterlimit="10" stroke-width=".5" d="M439.34375 477.77734l-4.82813 5.10547"/></g><path fill="none" stroke="#000" stroke-linecap="round" stroke-linejoin="round" stroke-miterlimit="10" stroke-width=".5" d="M439.34375 477.77734l2.36719.64844"/><g clip-path="url(#S)"><path fill="none" stroke="#000" stroke-linecap="round" stroke-linejoin="round" stroke-miterlimit="10" stroke-width=".5" d="M451.47266 477.03516l-2.44922 6.58593"/></g><path fill="none" stroke="#000" stroke-linecap="round" stroke-linejoin="round" stroke-miterlimit="10" stroke-width=".5" d="M451.47266 477.03516l2.42968-.32422"/><g clip-path="url(#T)"><path fill="none" stroke="#000" stroke-linecap="round" stroke-linejoin="round" stroke-miterlimit="10" stroke-width=".5" d="M465.1289 477.1836l-3.1328 6.28906"/></g><path fill="none" stroke="#000" stroke-linecap="round" stroke-linejoin="round" stroke-miterlimit="10" stroke-width=".5" d="M465.1289 477.1836l2.45313-.06641"/><g clip-path="url(#U)"><path fill="none" stroke="#000" stroke-linecap="round" stroke-linejoin="round" stroke-miterlimit="10" stroke-width=".5" d="M147.48828 466.59766l-6.97656.83203"/></g><path fill="none" stroke="#000" stroke-linecap="round" stroke-linejoin="round" stroke-miterlimit="10" stroke-width=".5" d="M147.48828 466.59766l1.40234 2.01562m-2.41796-1.89453l.69922 1.00781m13.64843-.97265l-7.00781.51953m7.00781-.51953l1.3086 2.07422m-2.32813-2l.65234 1.03906m13.66016-1.32031l-6.96484.93359m6.96484-.9336l1.42969 1.9922m-2.44531-1.85548l.71484.9961m13.58984-1.28907l-6.91406 1.2461m6.91406-1.2461l1.51953 1.9297m-2.52343-1.75l.75781.96484m13.58984-.97266l-6.96875.90234m6.96875-.90234l1.41797 2m-2.4336-1.86719l.71095 1m13.59765-1.26562l-6.92969 1.16797m6.9297-1.16797l1.49609 1.94922m-2.50391-1.77735l.75.97266m13.57031-1.15625l-6.92578 1.1914m6.92578-1.1914l1.5039 1.9414m-2.5078-1.76562l.75.96875m13.38672-1.8125l-6.5586 2.52734m6.5586-2.52734l1.85156 1.60938m-2.80469-1.2422l.92578.8047m13.33203-1.19532l-6.53906 2.57422m6.53906-2.57422l1.86719 1.59375m11.27734-1.96093l-6.1953 3.30859m6.1953-3.3086l2.03907 1.3672m10.96093-1.85548l-5.5664 4.28516m4.75781-3.66016l1.11719.50391m13.26953-.73437l-6.09375 3.49609m5.20703-2.98828l1.03906.65234M307 465.60156l-6.4375 2.82422m5.5-2.41406l.96094.76172m13.35156-1.01953l-6.5586 2.51953m5.60548-2.15235l.92578.8047m12.59765-2.34766l-5.0664 4.87109m4.32812-4.16016l1.16406.3789m12.1172-1.6953l-3.52345 6.08203m3.00782-5.19531l1.22656.04296m12.8125-.79687l-3.9414 5.8164m3.36718-4.96874l1.22266.1289m12.35156-1.16797l-3.3125 6.19922m3.3125-6.19922l2.45312.00782m9.39063-.41797l-.36719 7.01953m.36719-7.01953l2.22265-1.03516m8.3711 2.11328l5.07422 4.86328m-4.33594-4.15625l.33203-1.17968m11.6211 4.4375l6.3203-3.06641m-5.40234 2.6211l-.98828-.72266m20.05469-.51953l-7.01953.30859m7.01953-.3086l1.25 2.11329m11.0039-4.48047l-4.89452 5.04297m4.89453-5.04297l2.35546.67969m-3.0703.05468l1.17968.33985m11.67578-1.82813l-2.54687 6.55078m2.54687-6.55078l2.4375-.28906m12.16797 1.16016L461 469.41797"/><g clip-path="url(#V)"><path fill="none" stroke="#000" stroke-linecap="round" stroke-linejoin="round" stroke-miterlimit="10" stroke-width=".5" d="M466.125 464.60938l2.32031.78906"/></g><g clip-path="url(#W)"><path fill="none" stroke="#000" stroke-linecap="round" stroke-linejoin="round" stroke-miterlimit="10" stroke-width=".5" d="M147.4961 453.34375l-6.9922.71094"/></g><path fill="none" stroke="#000" stroke-linecap="round" stroke-linejoin="round" stroke-miterlimit="10" stroke-width=".5" d="M147.4961 453.34375l1.36718 2.03516m-2.38672-1.9336l1.36719 2.03907m12.98438-1.77344l-7.02735-.02344m7.02734.02344l1.14454 2.17187m-2.16797-2.17578l.57422 1.08594m13.76172-.9414l-7.01954-.3047m7.01953.3047l1.0586 2.21484m-2.08203-2.26172l.53125 1.10937m13.8086-1.21484h-7.02345m7.02344 0l1.15234 2.16406m-2.17187-2.16406l.57422 1.08203m13.75-1.38672l-7 .60938m7-.60938l1.33594 2.0586m-2.35547-1.96875l1.33594 2.05468m12.89062-2.7539l-6.78516 1.82422m6.78516-1.82422l1.67578 1.79687m-2.66406-1.53125l1.67578 1.79297m12.63281-2.03516l-6.79687 1.77735m6.79687-1.77735l1.66406 1.8047m-2.65234-1.54298l1.66406 1.80469m12.1836-3.09766l-5.88672 3.84375m5.88672-3.84375l2.14844 1.1836m-3.00391-.625l2.14844 1.1836m12.01953-1.7422l-5.88281 3.84375m5.8828-3.84375l2.14845 1.1836m-3.00391-.625l1.07422.58984m13.04687-1.22265l-5.78515 3.98828m5.78515-3.98828l2.17969 1.1328m-3.01953-.55077l1.08984.5664m12.92188-1.34375l-5.49219 4.38282m5.49219-4.38282l2.25.97266m10.8164-1.25l-5 4.9375m5-4.9375l2.34375.73437m10.46485-1.16015l-3.98438 5.78906m3.98438-5.78906l2.4375.27734m11.55078.32813l-5.33203 4.57812m5.33203-4.57812l2.28516.89062m11.16015-.73047l-5.58984 4.25782m5.58984-4.25782l2.22656 1.02344m-3.04296-.40625l1.11718.51172m13.14844-.9375l-5.86328 3.875m5.86328-3.875l2.15625 1.17187m-3.00781-.60937l1.07812.58594m12.66407-1.67578l-5.01172 4.92968m5.01172-4.92968l2.33984.73828m9.1211-1.72657l-1.3047 6.90625m1.3047-6.90625l2.34374-.73046m9.98438.68359l.67187 6.9961m-.67187-6.9961l2.04687-1.35156m10.71485 1.45312l1.77734 6.79688m-1.77734-6.79688l1.80468-1.66406m14.5625 2.29297l-4.32812 5.53906m3.69922-4.73437l1.20703.21484m13.59766-.03906l-6.04688 3.57812m6.04688-3.57812l2.09375 1.27734m-2.97266-.75781l1.04687.64062m12.69532-1.76172l-5.14453 4.78125m5.14453-4.78125l2.3203.80079m-3.0664-.10547l1.15625.39843m12.15625-1.70703l-3.64843 6.00782m3.64843-6.00782l2.44922.14063m-2.98047.73437l1.22657.07032m11.76562-1.32032l-1.9414 6.7539m1.9414-6.7539l2.40234-.50781"/><g clip-path="url(#X)"><path fill="none" stroke="#000" stroke-linecap="round" stroke-linejoin="round" stroke-miterlimit="10" stroke-width=".5" d="M147.48438 439.9336l-6.96875.89843"/></g><path fill="none" stroke="#000" stroke-linecap="round" stroke-linejoin="round" stroke-miterlimit="10" stroke-width=".5" d="M147.48438 439.9336l1.41796 2.0039m-2.42968-1.8711l.70703 1m13.64844-.60937l-7.02735-.14844m7.02734.14844l1.10547 2.1914m-2.1289-2.21093l.55469 1.09375m13.67187-.27344l-6.80469-1.75m6.80469 1.75l.57813 2.38672m-1.56641-2.64062l.28906 1.1914m14.07031-1.1875l-6.91406-1.2461m6.91406 1.2461l.75 2.33594m-1.7539-2.51953l.75 2.33594m13.58203-3.32813l-6.9414 1.10156m6.9414-1.10156l1.47656 1.96094m-2.48437-1.80078l1.47656 1.96094m12.6875-2.75l-6.6211 2.35937m6.6211-2.35937l1.8125 1.65625m-2.77734-1.3125l1.8125 1.65234m12.39062-2.1836l-6.46875 2.73829m6.46875-2.73828l1.90625 1.54687m-2.84766-1.14844l1.90625 1.54688m11.85547-2.77735l-5.48047 4.39844m5.48047-4.39844l2.2539.97266m-3.05077-.33203l1.1289.48437m13.21094-.80468l-5.9375 3.7578m5.9375-3.7578l2.13281 1.21484m-2.99609-.66797l1.0664.60938m12.67188-1.71485l-5.05469 4.8789m5.0547-4.8789l2.33593.75782m-3.07031-.05079l1.16797.38282m12.36718-1.53125l-4.02734 5.7578m4.02734-5.7578l2.4375.30078m-3.02344.53906l1.21875.14844m12.76954-.92578l-4.20313 5.6328m4.20313-5.6328l2.42578.375m10.7461-.47657l-3.91407 5.83594m3.91406-5.83594l2.4414.25391m-3.01171.59766l1.22265.125m13.23438-.4961l-5.0586 4.875m5.0586-4.875l2.33203.76172m-3.0664-.05078l1.16406.3789m13.17187-.7539l-5.63281 4.20313m5.63281-4.20313l2.21875 1.04688m-3.03906-.4336l1.10937.52344m12.77735-1.4336l-5.13281 4.80079m5.1328-4.80078l2.32032.79296m-3.0664-.09375l1.16015.39454m12.08984-1.73829l-3.51171 6.08594m3.51171-6.08594l2.45313.08594m-2.96484.80078l1.22656.04297m10.76562-1.39844l.15625 7.02344m-.15625-7.02344l2.14063-1.19921m-2.11719 2.22265l1.07031-.60156m9.33985 1.19531l5.91797 3.78906m-5.91797-3.78906l.19922-2.44531m13.92578 1.5625l4.30078 5.5586m-4.30078-5.5586l1.00781-2.23828m15.98828 1.85547l-3.0625 6.32422m3.0625-6.32422l2.45313-.09375m-2.89844 1.01172l1.22656-.04688m13.83203.20703l-5.66015 4.16406m5.66015-4.16406l2.21485 1.0625m-3.03516-.45703l2.21094 1.0625m11.85547-1.76172l-5.51954 4.35156m5.51954-4.35156l2.24609.98828m-3.05078-.35547l1.125.4961M451.19922 437l-1.90235 6.76563M451.19922 437l2.39844-.51953m-2.67579 1.5039l1.19922-.26171m11.98047-.8125l-1.08203 6.9453m1.08203-6.9453l2.3164-.8047"/><g clip-path="url(#Y)"><path fill="none" stroke="#000" stroke-linecap="round" stroke-linejoin="round" stroke-miterlimit="10" stroke-width=".5" d="M147.51172 427.17578l-7.02344-.21484"/></g><path fill="none" stroke="#000" stroke-linecap="round" stroke-linejoin="round" stroke-miterlimit="10" stroke-width=".5" d="M147.51172 427.17578l1.08594 2.19922m-2.10938-2.23047l.54297 1.10156m13.79688-1.28125l-7.02344.20704m7.02344-.20704l1.21484 2.13282m-2.23828-2.10157l.60937 1.06641m13.73047-1.01172l-7.02734.03516m7.02734-.03516l1.16406 2.16016m-2.1875-2.15625l1.16407 2.16015m13.02734-3.14843l-6.73438 2.0039m6.73438-2.0039l1.72266 1.75m-2.70313-1.45703l.86328.87109m13.4336-1.16797l-6.73438 2.01172m6.73438-2.01172l1.72265 1.7461m-2.70312-1.45313l.85937.875m13.39063-1.29688l-6.64844 2.27344m6.64844-2.27344l1.79297 1.67578m-2.75782-1.34765l.89453.83984m13.44532-.98047l-6.76563 1.89453m6.76563-1.89453l1.69531 1.77735m-2.67969-1.5l.84766.88672m12.92578-2.26172l-5.71484 4.08984m5.71484-4.08984l2.19922 1.08984m-3.03125-.4961l1.09766.54688m13.39453-.53906l-6.40625 2.88672m6.40625-2.88672l1.9414 1.5039m-2.8711-1.08202l.96876.75m13.25-1.23047l-6.35156 3.0039m6.35156-3.0039l1.96875 1.46875m11.26953-1.6211l-6.19922 3.3086m6.19922-3.3086l2.03516 1.36719m10.39453-2.4414l-4.42969 5.45703m4.42969-5.45704l2.41015.47266m10.2461-.89453l-3.11328 6.30078m3.11328-6.30078l2.45312-.07031m12.08203 1.0664l-5.55078 4.3086m5.55078-4.3086l2.23829 1.00782m10.47265-1.61329l-4.34375 5.51954m4.34375-5.51954l2.41797.4336m12.09375 1.32031l-6.73437 2.01172m6.73437-2.01172l1.72266 1.7461m10.92578-2.98829l-5.39844 4.4961m5.39844-4.4961l2.26953.92578m9.42969-2.01953l-2.17188 6.6836m2.17188-6.6836l2.41797-.42578m11.8203.88672l-4.01952 5.76172m4.01953-5.76172l2.4375.29297m-3.01953.54297l2.43359.29687m11.19531-1.30469l-3.48047 6.10547m3.48047-6.10547l2.45313.07422m-2.96094.81641l2.45313.07031m12.2578-.23828l-5.2578 4.66016m5.2578-4.66016l2.30079.85547m-3.0664-.17578l2.30077.85547m11.89454-1.40235l-5.48438 4.39453m5.48438-4.39453l2.2539.96875m-3.05469-.32812l2.25391.96875m-3.05078-.33203l1.1289.48437m12.88282-2.55469l-3.6836 5.98047m3.6836-5.98047l2.44922.15235m-2.98438.71875l2.44922.15234m9.91406-1.52734l-.71093 6.98828m.71093-6.98828l2.27344-.92969m-2.375 1.94531l2.26953-.92578m11.76172.02735l-1.9375 6.7539m1.9375-6.7539l2.39844-.51172m-2.67969 1.4961l2.39844-.51173"/><g clip-path="url(#Z)"><path fill="none" stroke="#000" stroke-linecap="round" stroke-linejoin="round" stroke-miterlimit="10" stroke-width=".5" d="M147.50781 413.54688l-7.01562.41015"/></g><path fill="none" stroke="#000" stroke-linecap="round" stroke-linejoin="round" stroke-miterlimit="10" stroke-width=".5" d="M147.50781 413.54688l1.27735 2.09765m-2.29688-2.03515l.63672 1.04687m13.67188-1.3789l-6.96094.95312m6.96094-.95313l1.43359 1.98828m-2.44922-1.85156l1.4375 1.99219m12.52344-3.28125l-6.22656 3.25781m6.22656-3.25781l2.02734 1.38672m-2.9336-.91406l2.02735 1.38671m12.2461-1.7578l-6.32813 3.05468m6.32813-3.05469l1.98046 1.44922m-2.90234-1.0039l1.98047 1.44921m11.8164-2.58593l-5.44921 4.43359m5.44922-4.4336l2.26171.95704m-3.05468-.3086l2.26172.95313m11.80468-1.65234l-5.36719 4.53515m5.3672-4.53515l2.28124.91406m11.82031.78515l-6.9375 1.14063m6.9375-1.14063l1.48438 1.94922m-2.4961-1.78515l.7461.97656m13.44922-1.67578l-6.67188 2.21094m6.67188-2.21094l1.77344 1.69531m-2.7461-1.375l.88672.84766m13.4375-1.03907l-6.75 1.94922m6.75-1.94922l1.71094 1.76172m-2.6914-1.47656l.85546.88281m13.42969-1.20312l-6.72656 2.02344m6.72656-2.02344l1.72656 1.74219m-2.70312-1.44922l.86328.87109m13.5586-.52734l-6.98829.74609m6.98828-.7461l1.375 2.03126m-2.39062-1.92188l.6875 1.01563m13.30859-2.28907l-6.3164 3.07813m6.3164-3.07813l1.98437 1.44532m11.5547-.85157l-6.76563 1.89063m5.78125-1.61719l.84765.89063m13.57422-.00391l-7.01172-.4336m5.9922.3711l.5078 1.11719m13.00782.9961l-5.3711-4.53126m4.58985 3.8711l-.26172 1.19921m15.14843-3.3203l-6.95312 1.02733m5.9414-.875l.72657.98829m12.46094-3.25l-4.67579 5.25m4.67579-5.25l2.3828.58203m10.76173-.72266l-4.33203 5.53125m3.69921-4.72656l1.21094.21484m13.77344.30469l-6.41016 2.8789m6.41016-2.8789l1.9414 1.50781m-2.87109-1.08594l.96875.75m12.76953-1.98046l-5.39453 4.5m5.39453-4.5l2.27344.92187m-3.0586-.26953l1.13673.46484m12.87109-1.22265l-5.21094 4.71093m5.21094-4.71093l2.3086.83203m-3.06641-.14844l2.3086.83594m11.25-1.98828l-4.1836 5.64843m4.1836-5.64843l2.42577.36328m-3.03515.45703l1.21484.1836m12.76172-.96485l-4.28516 5.57031m4.28516-5.57031l2.41797.40625m-3.04297.40234l1.21094.20313m11.47656-1.625l-1.78125 6.79687m1.78125-6.79687l2.39062-.5664m-2.64843 1.55468l1.1953-.28125m13.21095-.3711l-3.44922 6.1211m3.44922-6.1211l2.45312.0625m-2.95312.82813l2.45312.0625"/><g clip-path="url(#aa)"><path fill="none" stroke="#000" stroke-linecap="round" stroke-linejoin="round" stroke-miterlimit="10" stroke-width=".5" d="M147.5039 400.72266l-7.0078-.56641"/></g><path fill="none" stroke="#000" stroke-linecap="round" stroke-linejoin="round" stroke-miterlimit="10" stroke-width=".5" d="M147.5039 400.72266l.97266 2.2539m-1.99219-2.33594l.48438 1.125m13.55469-2.76171l-6.41797 2.86718m6.41797-2.86718l1.9336 1.5078m-2.8672-1.08983l.96875.7539m12.81641-1.9336l-5.48828 4.39063m5.48828-4.39062l2.25.97265m-3.05078-.33203l1.1289.48438m12.70704-1.4336l-4.9297 5.01172m4.9297-5.01172l2.35156.69532m11.9336 1.0664l-6.8672 1.48828m6.8672-1.48828l1.58202 1.8711m-2.58203-1.65625l.79297.9375m13.57422.01562l-6.97656-.84765m6.97656.84765l.88281 2.28906m-1.89844-2.41406l.44141 1.14453m13.71094-2.625l-6.61719 2.36328m6.61719-2.36328l1.8125 1.65235m-2.77344-1.3086l1.8125 1.65235m12.4961-1.90235l-6.6836 2.17188m6.6836-2.17188l1.76562 1.70703m-2.73828-1.39062l1.76562 1.70703m12.47657-2.15625l-6.58985 2.4414m6.58985-2.4414l1.83203 1.6289m-2.79297-1.27343l1.83594 1.6289m12.32422-2.26171l-6.35938 2.99609m6.35938-2.9961l1.96484 1.46876m-2.89063-1.03516l.98047.73438m13.55469-.19922l-6.94922 1.05468m6.94922-1.05468l1.46484 1.97265m11.87891-1.71484l-7.00781.54297m7.00781-.54297l1.3164 2.07031m-2.33593-1.99219l.65625 1.03516m13.6875-.89844l-7.02344.11328m7.02344-.11328l1.1875 2.14844m12.10547-2.48047l-6.98047.77735m6.98047-.77735l1.38672 2.02735m11.94921-1.79297l-7.01953.30468m7.01953-.30468l1.2422 2.11718m11.96093-1.07812l-6.79688-1.77344m5.8086 1.51563l.28515 1.1953m11.85938 1.46485l-2.47656-6.57812m2.11328 5.6211l-.8086.92187m16.75782-3.3672l-7.02344.22657m6.0039-.1914l.60938 1.0625m13.10938-2.97266l-5.79297 3.97656m5.79297-3.97656l2.17578 1.13281m-3.01563-.55469l1.08594.56641m13.53516-.17969l-6.72266 2.04688m6.72266-2.04688l1.73437 1.73828m11.67969-1.32812l-6.91797 1.22656m6.91797-1.22656l1.51172 1.9336m11.47656-2.91016l-6.26563 3.17968m6.26563-3.17968l2.00781 1.41015m-2.91797-.94531l1 .70313m12.08594-2.46875l-3.98828 5.78515m3.98828-5.78515l2.4375.28125m10.80078-.33204l-3.83594 5.88672m3.83594-5.88672l2.44531.21485m11.0586-.08594l-4.21094 5.625"/><g clip-path="url(#ab)"><path fill="none" stroke="#000" stroke-linecap="round" stroke-linejoin="round" stroke-miterlimit="10" stroke-width=".5" d="M465.66797 397.625l2.42187.375"/></g><path fill="none" stroke="#000" stroke-linecap="round" stroke-linejoin="round" stroke-miterlimit="10" stroke-width=".5" d="M465.05469 398.44531l1.21094.1875"/><g clip-path="url(#ac)"><path fill="none" stroke="#000" stroke-linecap="round" stroke-linejoin="round" stroke-miterlimit="10" stroke-width=".5" d="M147.51172 387.10156l-7.02344.04297"/></g><path fill="none" stroke="#000" stroke-linecap="round" stroke-linejoin="round" stroke-miterlimit="10" stroke-width=".5" d="M147.51172 387.10156l1.16797 2.16016m11.71094-3.83203l-6.15235 3.39062m6.15234-3.39062l2.0547 1.33984m-2.94923-.84765l1.02735.67187m13.08984-1.32422l-5.96875 3.70703m5.96875-3.70703l2.125 1.23438m-2.99219-.69532l1.0625.6172m13.10547-1.1797L180.97656 389m5.9375-3.7539l2.13281 1.21484m-2.99609-.66797l2.13281 1.21484m12.46094 1.05469l-6.76953-1.8789m6.76953 1.8789l.53125 2.39453m-1.51562-2.66797l.26562 1.19922m14.13672-2.30469l-6.97266.87891m6.97266-.8789l1.41406 2.0078m-2.42969-1.8789l.70704 1.0039m13.64453-.48437l-7.01563-.41797m7.01563.41797l1.01953 2.23047m12.29297-2.69922l-7.00781.51953m7.0078-.51953l1.3086 2.07422m-2.32812-2l.65234 1.03906m13.57813-1.73437l-6.8047 1.76172m6.8047-1.76172l1.65625 1.8125M252.93358 386.5l1.65625 1.8086m12.35157-2.82423l-6.21485 3.27735m6.21485-3.27735l2.03125 1.37891m-2.9336-.90234l1.01563.6914m13.13281-1.29687l-6.07422 3.53515m6.07422-3.53515l2.08594 1.29687m-2.96875-.78125l1.04297.64844m13.39843-.65234l-6.5625 2.51172m6.5625-2.51172l1.85157 1.60937m-2.8047-1.2461l1.85157 1.61329m12.44922-1.88672l-6.6289 2.33203m6.6289-2.33203l1.8086 1.66406m-2.76954-1.32421l.90235.83203m13.5078-.69532l-6.89062 1.37891m6.89063-1.3789l1.55078 1.89843m-2.55469-1.69922l.77735.95313m13.48828-1.36719l-6.78906 1.8086m6.78906-1.8086l1.67187 1.79688m11.76172-.75782l-7.02344-.26953m6 .23047l.53516 1.10547m13.79297-.90235l-7.0039-.59765m5.98437.51172l.48047 1.1289m13.80468-1.99218l-6.90625 1.30468m6.90625-1.30468l1.53516 1.91406m-2.53906-1.72656l.76562.95703m12.9414-2.5625l-5.67968 4.13672m5.67969-4.13672l2.20703 1.07422m11.30078-.77735l-6.0664 3.54297m6.0664-3.54297l2.08985 1.29297m11.375-1.00781l-6.3672 2.97265m6.3672-2.97265l1.96093 1.47656m11.33985-1.50781l-6.33594 3.03515m6.33594-3.03515l1.97656 1.45312m11.0625-1.92578l-5.78516 3.98047m5.78516-3.98047l2.17969 1.1289m11.41015-.66015l-6.33203 3.04297m6.33203-3.04297l1.97657 1.45313m-2.89844-1.01172l.98828.72656m12.13281-2.5l-4.10156 5.70703"/><g clip-path="url(#ad)"><path fill="none" stroke="#000" stroke-linecap="round" stroke-linejoin="round" stroke-miterlimit="10" stroke-width=".5" d="M465.61328 384.26953l2.42969.32813"/></g><g clip-path="url(#ae)"><path fill="none" stroke="#000" stroke-linecap="round" stroke-linejoin="round" stroke-miterlimit="10" stroke-width=".5" d="M147.51172 373.88672l-7.02344-.15625"/></g><path fill="none" stroke="#000" stroke-linecap="round" stroke-linejoin="round" stroke-miterlimit="10" stroke-width=".5" d="M147.51172 373.88672l1.10547 2.1914m12.1914-2.63671l-6.98828.73437m6.98828-.73437l1.3711 2.03515m11.94922-2.0039l-6.9961.67187m6.9961-.67187l1.35156 2.04687m11.95703-1.32031l-6.98438-.78125m6.98438.78125l.90625 2.27734m12.32813-1.83203l-6.82422-1.67187m6.82422 1.67187l.60546 2.3789m-1.59765-2.62109l.60547 2.375m13.79687-2.73437l-7.01172-.46875m7.01172.46875l1.0039 2.23828m-2.02343-2.30469l1.0039 2.23828m13.3125-2.83593l-6.97656.85937m6.97657-.85937l1.40625 2.0078m-2.42188-1.8828l.70313 1.0039m13.65234-.80469l-7.02344.21094m7.02344-.21094l1.21484 2.13282m-2.23828-2.10156l1.21485 2.1289m13.10937-2.39453l-6.9961.67578m6.9961-.67578l1.35156 2.04688M253 373.5703l1.35547 2.04297m12.91797-2.53515l-6.875 1.46093m6.875-1.46094l1.57422 1.88282m-2.57422-1.66797l.78906.9375m13.375-1.66016l-6.57422 2.47656m6.57422-2.47656l1.84375 1.6211m-2.80078-1.26172l1.84375 1.6211m12.45312-1.91407l-6.625 2.34375m6.625-2.34375l1.8086 1.65625m-2.77344-1.3164l1.8086 1.66015m-2.76954-1.3164l.90235.82812m14.3164-1.57031l-6.58203 2.46093m6.58203-2.46094l1.83985 1.625m-2.79688-1.26953l1.83984 1.625m-2.79687-1.26562l.91797.8125m14.28906-1.59375l-6.53125 2.59375m6.53125-2.59375l1.86719 1.58984m-2.82031-1.21094l1.87109 1.58594m-2.82031-1.21094l.9336.79688m14.41015-1.16797l-6.78516 1.82422m6.78516-1.82422l1.67578 1.79297m-2.66406-1.52734l1.67578 1.79296m12.67578-1.85546l-6.88281 1.42187m6.8828-1.42187l1.56641 1.88671m-2.5703-1.67968l1.5664 1.88672m12.80469-1.76954l-6.98438.77344m6.98438-.77344l1.3828 2.02735m-2.40234-1.91406l1.38282 2.02734m12.91406-2.39063l-6.91016 1.26954m6.91016-1.26954l1.52344 1.92579m-2.53125-1.73829l1.52734 1.92188m12.71094-2.45703l-6.7461 1.96875m6.7461-1.96875l1.71484 1.75781m-2.69531-1.47265l.85547.8789m13.5-.9414l-6.86328 1.52343m6.86328-1.52344l1.59375 1.86329m11.57812-2.33985l-6.57422 2.47656m6.57422-2.47656l1.83985 1.61719m11.2539-2.09766l-6.1328 3.4336m5.23827-2.9336l1.03125.66407m13.33594-.84375l-6.44922 2.79296m5.51172-2.38671l.95703.76562m13.46094-.69531l-6.78125 1.84375m6.78125-1.84375l1.67969 1.78906m10.62109-3.45703l-4.75 5.17969"/><g clip-path="url(#af)"><path fill="none" stroke="#000" stroke-linecap="round" stroke-linejoin="round" stroke-miterlimit="10" stroke-width=".5" d="M465.9375 371.21875l2.375.61328"/></g><g clip-path="url(#ag)"><path fill="none" stroke="#000" stroke-linecap="round" stroke-linejoin="round" stroke-miterlimit="10" stroke-width=".5" d="M147.46484 361.07422l-6.92968-1.16016"/></g><path fill="none" stroke="#000" stroke-linecap="round" stroke-linejoin="round" stroke-miterlimit="10" stroke-width=".5" d="M147.46484 361.07422l.77735 2.32422m12.46875-3.8086l-6.79297 1.8086m6.79297-1.8086l1.67187 1.79688m11.67578-1.66016l-6.85547 1.53516m6.85547-1.53516l1.59766 1.85938m11.80078-1.16016l-7.02344.13672m7.02344-.13672l1.19531 2.14453m-2.21484-2.125l.59375 1.07031m13.45703.36329l-6.45703-2.77344m6.45703 2.77344l.20313 2.4453m-1.14063-2.84765l.10156 1.22266m14.15625-.83203l-6.46875-2.7461m6.46875 2.7461l.21485 2.4414m-1.15625-2.84375l.10937 1.22266m14.41406-1.86719l-7-.65234m7 .65234l.94532 2.26172m-1.96485-2.35547l.94532 2.26172m13.40234-2.57422l-7.02734.15625m7.02734-.15625l1.19922 2.14063m-2.22266-2.11719l1.19922 2.14063m13.11328-2.52344l-6.97265.875m6.97265-.875l1.41016 2.00781m-2.42578-1.8789l1.41406 2.0078m12.75781-2.82421l-6.65625 2.25m6.65625-2.25l1.78516 1.6875m-2.7539-1.35938l.89452.84375m13.42188-1.0625l-6.72266 2.03516m6.72266-2.03516l1.73047 1.73828m-2.70703-1.4453l1.73046 1.74218m12.64454-1.70703l-6.89063 1.3789m6.89063-1.3789l1.55468 1.89844m-2.55468-1.69922l1.55468 1.89843m-2.55859-1.6953l.77734.94921m14.57813-1.13281l-6.96485.9375m6.96485-.9375l1.4336 1.99219m-2.44532-1.85547l1.42969 1.99218m-2.4414-1.85546l.71483.99609m14.54297-1.6875l-6.80078 1.77344m6.80078-1.77344l1.66016 1.8086m-2.64844-1.55079l1.66016 1.8086m-2.65235-1.55079l.83204.90625m14.41796-1.58593l-6.70703 2.10156m6.70703-2.10156l1.7461 1.72265m-2.72266-1.41406l1.7461 1.72266m12.67187-1.44922l-6.96484.9414m6.96484-.9414l1.4336 1.99219m-2.44532-1.85547l1.42969 1.99218m12.89844-2.13671l-6.96485.95703m6.96485-.95704l1.4336 1.98829m-2.44923-1.85157l1.4375 1.9922m-2.44922-1.85157l.71875.9961m14.59766-1.42579l-6.91406 1.26172m6.91406-1.26172l1.52344 1.92578m-2.52735-1.74219l1.51953 1.92579m-2.52734-1.7422l1.52344 1.92579m13.66015-2.83203l-6.625 2.33594m6.625-2.33594l1.8086 1.66015m-2.77344-1.3203l1.8086 1.66015m-2.77344-1.32031l1.8086 1.66015m13.33593-2.59765l-6.42578 2.85156m6.42578-2.85156l1.92969 1.51562m-2.8672-1.09765l1.9336 1.51171m-2.86719-1.09765l.96485.7539m14.16406-1.70312l-6.3125 3.08594m6.3125-3.08594l1.98828 1.4414m-2.90625-.99218l.99219.72265m13.23047-1.1914l-6.29297 3.125m6.29297-3.125l1.9961 1.42969m10.71484-2.29297l-5.08204 4.85156m5.08204-4.85156l2.32812.77343m10.875-.88671l-4.85937 5.07812m4.85937-5.07813l2.36328.66797m10.77344-.82421l-4.5 5.39453m3.84375-4.60938l1.20312.25"/><g clip-path="url(#ah)"><path fill="none" stroke="#000" stroke-linecap="round" stroke-linejoin="round" stroke-miterlimit="10" stroke-width=".5" d="M147.30469 348.36719l-6.60938-2.3789"/></g><path fill="none" stroke="#000" stroke-linecap="round" stroke-linejoin="round" stroke-miterlimit="10" stroke-width=".5" d="M147.30469 348.36719l.35156 2.42969m13.03906-4.57813l-6.76172 1.91797m6.76172-1.91797l1.69922 1.77344m11.75-.8125h-7.02734m7.02734 0l1.15234 2.16406m-2.17578-2.16406l.57422 1.08203m13.63672-.15625L180.5547 346.25m6.77734 1.85547l.53906 2.39453m-1.52343-2.66406l.26953 1.19531m13.98828-.77734l-6.6914-2.15235m6.6914 2.15235l.4336 2.41796m-1.40626-2.73046l.42969 2.41406m13.91406-2.30078l-6.80469-1.7539m6.8047 1.7539l.57421 2.38672m-1.5625-2.64063l.57422 2.38672m13.82422-2.64844l-6.99219-.72265m6.99219.72265l.92187 2.27344m-1.9414-2.3789l.92578 2.27343m13.42187-2.34375l-7.01953-.3711m7.01953.3711l1.03516 2.22656m-2.0586-2.28125l1.03907 2.22657m13.30469-2.35547h-7.02735m7.02735 0l1.15234 2.16406m-2.17578-2.16406l1.15234 2.16406m13.1836-2.25l-7.02344.17188m7.02344-.17188l1.20312 2.13672m-2.22656-2.11328l.60547 1.07031m13.73437-1.08984l-7.02734.16015m7.02734-.16015l1.19922 2.14062m-2.22265-2.11719l1.20312 2.14063m13.13281-1.91406l-7.01953-.33594m7.01953.33594l1.04688 2.21875m-2.07031-2.26954l.52343 1.10938m13.71094-.36328l-6.8125-1.73047m6.8125 1.73047l.58203 2.38281m-1.57422-2.63672l.58594 2.38281m13.80469-2.59765l-6.98047-.79297m6.98047.79297l.89844 2.28515m-1.91407-2.39843l.89844 2.28125m-1.91406-2.39844l.44922 1.14063m14.79687-2.23438l-6.77734 1.85547m6.77734-1.85547l1.6836 1.78516m-2.67188-1.51563l1.6836 1.78516m12.5664-2.22656l-6.67187 2.19921m6.67187-2.19921l1.77344 1.69921m-2.74219-1.3789l1.76953 1.69922m-2.74219-1.37891l.88672.84766m14.53907-.61329l-7.01172.44922m7.01172-.44921l1.28906 2.08593m-2.3086-2.01953l1.28907 2.08594m-2.3086-2.02344l.64453 1.04688m14.71485-1.08594l-7.02344.27344m7.02344-.27344l1.23437 2.11719m-2.25781-2.07813l1.23828 2.11719m-2.25781-2.07813l1.23437 2.1211m13.94532-3.17578l-6.66407 2.22265m6.66407-2.22265l1.77734 1.6914m-2.7461-1.36719l1.77735 1.69141m-2.7461-1.36719l.88673.84375m14.33203-1.58984l-6.59766 2.41797m6.59766-2.41797l1.82812 1.63672m-2.78906-1.28516l1.82812 1.63672m-2.78906-1.28515l.91406.8203m14.09766-2.01562l-6.14844 3.40625m6.14844-3.40625l2.0586 1.33594m-2.95313-.84375l2.0586 1.33984m-2.95313-.84375l1.02734.66797m14.15625-1.5039l-6.30469 3.10156m6.3047-3.10156l1.98827 1.43359m-2.90625-.98438l1.98828 1.4375m12.10547-2.14453l-6.02734 3.61329m6.02734-3.61329l2.10157 1.26563m-2.98047-.74219l1.05078.63281m13.04687-1.30859l-5.83593 3.91797m5.83593-3.91797l2.16407 1.15625m-3.01172-.58594l1.08203.57813m13.32812-.71094l-6.33203 3.04688"/><g clip-path="url(#ai)"><path fill="none" stroke="#000" stroke-linecap="round" stroke-linejoin="round" stroke-miterlimit="10" stroke-width=".5" d="M466.72656 345.65625l1.98047 1.44922"/></g><path fill="none" stroke="#000" stroke-linecap="round" stroke-linejoin="round" stroke-miterlimit="10" stroke-width=".5" d="M465.80469 346.09766l.99219.72656"/><g clip-path="url(#aj)"><path fill="none" stroke="#000" stroke-linecap="round" stroke-linejoin="round" stroke-miterlimit="10" stroke-width=".5" d="M146.8125 335.96875l-5.625-4.21094"/></g><path fill="none" stroke="#000" stroke-linecap="round" stroke-linejoin="round" stroke-miterlimit="10" stroke-width=".5" d="M146.8125 335.96875l-.3789 2.42578m14.35546-4.00781l-6.94922-1.04688m6.94922 1.04688l.8164 2.3125m12.33985-1.67188l-6.6289-2.33203m6.6289 2.33203l.36719 2.42579m-1.33203-2.76172l.1836 1.21093m14.125-.95703l-6.6875-2.16406m6.6875 2.16406l.42968 2.41406m-1.40234-2.73046l.21484 1.21093m13.95703-.58593l-6.45703-2.78125m6.45703 2.78125l.19922 2.4453m-1.14063-2.85155l.10157 1.22265m14.29687-1.21094l-6.73828-1.99609m6.73828 1.9961l.48828 2.40625m-1.46875-2.69532l.48828 2.40625m-1.46875-2.69531l.2422 1.20313m15.17577-1.47266l-7.02343-.29688m7.02343.29688l1.0586 2.21484m-2.08203-2.25781l1.05859 2.21484m-2.07813-2.2578l.52735 1.10546m14.82422-1.41406l-7.01172.49219m7.01172-.4922l1.30078 2.08204m-2.32031-2.01172l1.30078 2.08203m12.98828-2.51172l-6.92188 1.21094m6.92188-1.21094l1.50781 1.9336m-2.51562-1.75782l1.51172 1.9336m12.79296-2.21094l-6.8828 1.41406m6.8828-1.41406l1.56641 1.88672m-2.5664-1.6836l1.5625 1.89063m12.74218-2.13281l-6.86328 1.49219m6.86328-1.4922l1.58985 1.8711m-2.58594-1.65625l1.58594 1.8711m12.76562-1.87891l-6.94531 1.07812m6.94531-1.07812l1.47266 1.96484m-2.48438-1.8086l.73828.98438m13.6289-.55468l-7.02343-.09375m7.02344.09375l1.125 2.18359m11.98047-1.02734l-6.60547-2.40625m6.60547 2.40625l.33984 2.42968m-1.30078-2.78125l.33984 2.4297m14.09766-2.6836l-6.92578-1.19531m6.92578 1.1953l.76563 2.33204m-1.77344-2.50781l.76562 2.33203m13.58203-2.33985l-6.97656-.82812m6.97656.82812l.89063 2.28516m-1.90625-2.40625l.44531 1.14453m13.80078-2.30469l-6.8086 1.73438m6.8086-1.73438l1.65235 1.81641m-2.64063-1.5664l.82422.91015m13.5-1.07031l-6.85156 1.55469m6.85156-1.5547l1.60547 1.85938m-2.60156-1.63281l1.60156 1.85938m-2.59766-1.63282l.80078.92969m13.75782-2.8789l-5.35547 4.54687m5.35547-4.54688l2.28125.90625m-3.0586-.24609l2.28125.90625m-3.0625-.24219l1.14063.45313m13.94922-1.4961l-5.78516 3.98438m5.78516-3.98438l2.17968 1.13282m-3.01953-.5547l1.08985.56642m13.66796.49609l-6.99218.70312m6.99219-.70312l1.36328 2.03906m-2.37891-1.9375l.67969 1.01953m13.46484-1.95312l-6.61719 2.36719m6.6172-2.3672l1.8125 1.65235m-2.77735-1.3086l1.8164 1.65235m12.27735-2.42187l-6.2461 3.21875m6.2461-3.21875l2.01562 1.39453m-2.92578-.92578l2.01953 1.39453m-2.92578-.92578l1.00781.6953m14.08985-1.69921l-6.17578 3.35156m6.17578-3.35156l2.04297 1.35547m-2.94141-.86719l2.04297 1.35156m-2.9414-.86328l2.04296 1.35156m12.99219-2.46093l-6.02735 3.61719"/><g clip-path="url(#ak)"><path fill="none" stroke="#000" stroke-linecap="round" stroke-linejoin="round" stroke-miterlimit="10" stroke-width=".5" d="M466.57422 332.05469l2.10156 1.26562"/></g><g clip-path="url(#al)"><path fill="none" stroke="#000" stroke-linecap="round" stroke-linejoin="round" stroke-miterlimit="10" stroke-width=".5" d="M465.69922 332.58203l2.10156 1.26563"/></g><path fill="none" stroke="#000" stroke-linecap="round" stroke-linejoin="round" stroke-miterlimit="10" stroke-width=".5" d="M464.82031 333.10547l1.05078.63281"/><g clip-path="url(#am)"><path fill="none" stroke="#000" stroke-linecap="round" stroke-linejoin="round" stroke-miterlimit="10" stroke-width=".5" d="M146.44922 323.0664l-4.89844-5.03906"/></g><path fill="none" stroke="#000" stroke-linecap="round" stroke-linejoin="round" stroke-miterlimit="10" stroke-width=".5" d="M146.44922 323.0664l-.75 2.33594m.03906-3.0664l-.375 1.16797m15.27734-1.81641l-6.64843-2.27734m6.64844 2.27734l.38671 2.42188m-1.35547-2.75391l.19532 1.21094m14.05469-.79297l-6.58594-2.44922m6.58594 2.44922l.32812 2.42969m-1.28516-2.78907l.16407 1.21875m14.14843-.97265l-6.66406-2.22266m6.66406 2.22266l.41016 2.41796m-1.3789-2.74218l.40624 2.41797m13.96485-2.39454l-6.83985-1.62109m6.83985 1.6211l.6211 2.375m-1.6172-2.60938l.6211 2.3711m13.73047-2.33204l-6.91797-1.23437m6.91797 1.23437l.7539 2.33594m-1.76172-2.51563l.75391 2.33594m13.6211-2.66797l-7.02344-.20703m7.02343.20703l1.08985 2.19922m-2.11328-2.23047l1.08984 2.19922m-2.10938-2.23047l.54297 1.10157m14.8086-1.3672l-7.01172.44532m7.01172-.44531L242 322.41406m-2.3086-2.02344l1.28516 2.08985m13.01172-2.4961l-6.9375 1.125m6.9375-1.125l1.48438 1.95704m-2.4922-1.79297l1.48438 1.95312m12.85547-2.01562l-6.96875.92187m6.96875-.92187l1.42578 2m-2.4414-1.86328l1.42578 1.99609m12.8789-2.28906l-6.91796 1.23437m6.91797-1.23437l1.51562 1.9336m-2.52344-1.75392l1.51563 1.9336m12.69922-2.54688l-6.70313 2.10547m6.70313-2.10547l1.75 1.72266m-2.72266-1.41797l1.7461 1.72266m12.69921-1.1875l-7.01562.42187m7.01562-.42187l1.27735 2.09375m-2.30078-2.03125l1.28125 2.09375m13.02734-1.45703l-6.95703-.97266m6.95703.97266l.84375 2.30468m-1.85547-2.44921l.84375 2.30468m13.51563-2.48437l-7.01954-.32813m7.01954.32813l1.04687 2.21875m-2.07031-2.26563l1.05078 2.21875m13.28516-2.17969l-7.01954-.3125m7.01954.3125l1.05468 2.21485m-2.07422-2.25781l.52735 1.10546m13.8125-1.21875h-7.02735m6.00391 0l.57813 1.08594m13.4375-2.5586l-6.37891 2.94532m6.3789-2.94531l1.95313 1.48437m-2.88281-1.05468l.97656.74218m13.10547-1.48046l-6.05469 3.5625m6.05469-3.5625l2.08984 1.28515m-2.96875-.76562l2.08985 1.28125m-2.97266-.76172l1.04688.64062m14.0078-1.71484l-6.01171 3.63672m6.01172-3.63672l2.10547 1.25781m-2.98047-.73047l2.10937 1.25781m12.58203-.18359l-7.01562.4336m7.01562-.4336l1.28125 2.08985m11.83594-.69141l-6.61719-2.36328m17.45313-2.23438l-1.66016 6.82813m1.66016-6.82813l2.3789-.60547m11.98047 1.05079l-3.75 5.9414m3.75-5.9414l2.44922.18359m-2.99218.67969l1.22265.08984m13.05469-.64453l-4.58984 5.32031"/><g clip-path="url(#an)"><path fill="none" stroke="#000" stroke-linecap="round" stroke-linejoin="round" stroke-miterlimit="10" stroke-width=".5" d="M465.85547 317.88672l2.39453.54297"/></g><path fill="none" stroke="#000" stroke-linecap="round" stroke-linejoin="round" stroke-miterlimit="10" stroke-width=".5" d="M465.1875 318.66016l2.39453.54296m-3.0625.23438l2.39453.54297"/><path fill="#ff3030" fill-rule="evenodd" d="M362.30469 463.21094h7.6914V453.0625h-7.6914v10.14844"/><path fill="azure" fill-rule="evenodd" d="M364.13672 454.89844h.83203v5.73828h3.19531v.74219h-4.02734v-6.48047"/><path fill="#00f" fill-rule="evenodd" d="M157.44531 445.45703h8.61719V435.3125h-8.61719v10.14453"/><path fill="azure" fill-rule="evenodd" d="M159.27734 437.14453h.83203v2.82422h3.28907v-2.82422h.83203v6.48047h-.83203v-2.91797h-3.28906v2.91797h-.83204v-6.48047"/><path fill="#ff3030" fill-rule="evenodd" d="M251.34375 445.45703h7.6914V435.3125h-7.6914v10.14453"/><path fill="azure" fill-rule="evenodd" d="M253.17578 437.14453h.83594v5.73828h3.1914v.74219h-4.02734v-6.48047"/><path fill="#ff3030" fill-rule="evenodd" d="M322.35938 441.01953h7.6914V430.8711h-7.6914v10.14844"/><path fill="azure" fill-rule="evenodd" d="M324.1914 432.70703h.83204v5.73828h3.19531v.73828h-4.02734v-6.47656"/><path fill="#ff3030" fill-rule="evenodd" d="M198.08203 436.57813h7.69531v-10.14454h-7.6953v10.14454"/><path fill="azure" fill-rule="evenodd" d="M199.91797 428.26563h.83203v5.74218h3.19531v.73828h-4.02734v-6.48046"/><path fill="#ffffe0" fill-rule="evenodd" d="M359.4961 422.96875h22.17968v-10.1914H359.4961v10.1914"/><path fill-rule="evenodd" d="M362.9961 414.60938h.51171v6.29296h-.78906v-4.48828h-1.38672v-.55469l.5586-.0664.25-.05469.23046-.08984.20313-.14063.17578-.21094.14063-.29296.10546-.39454m4.8125 0l.23047.01954.21875.05468.20703.08985.19922.1211.1836.14843.17187.17578.30078.41797.24219.4961.17969.54687.11328.57812.03906.58985-.03906.59375-.11328.58593-.17969.55079-.24219.5039-.30078.42969-.17187.17969-.1836.15234-.19922.1211-.20703.09374-.21875.0547-.23047.01952-.22656-.01953-.21875-.05469-.21094-.09375-.1953-.12109-.1836-.15234-.17188-.1797-.30078-.42968-.24219-.5039-.17968-.55079-.11329-.58593-.03906-.59375h.83594l.02734.5625.08204.5078.125.44142.16406.375.1914.30078.21094.22265.22266.13672.22265.04688.22657-.04688.22265-.13672.21094-.22265.1914-.30079.16407-.375.125-.4414.08203-.50781.02734-.5625-.02734-.5586-.08203-.5039-.125-.4336-.16406-.36719-.19141-.29296-.21094-.21094-.22265-.13281-.22657-.04297-.22265.04297-.22266.1328-.21094.21095-.1914.29296-.16406.3672-.125.43359-.08204.5039-.02734.5586h-.83594l.03906-.58985.11329-.57812.17968-.54688.2422-.4961.30077-.41796.17188-.17578.1836-.14844.1953-.1211.21094-.08984.21875-.05468.22656-.01954m5.09375 0h.50782v6.29297h-.78516v-4.48828h-1.39063v-.55469l.5625-.0664.25-.05469.23047-.08984.20313-.14063.17578-.21094.14063-.29296.10546-.39454m2.82422 2.17579h.78516l.01953-.31641.0586-.28906.10156-.25.14062-.21485.17969-.17578.22265-.1289.26563-.07813.3086-.02734.23827.01953.22266.0625.20313.10156.17968.13672.14844.17578.11328.20313.07422.23828.02344.26562-.02344.26563-.0625.22656-.11328.1914-.15234.17188-.20313.16016-.2461.16797-.6328.38671-.53907.31641-.4375.3164-.34765.32423-.26172.33593-.1914.35157-.125.36718-.06642.39454-.02343.41796h4.21094v-.73828h-3.33204l.08594-.28515.11328-.23829.14844-.19921.1875-.1797.23047-.17187.27734-.17578.71875-.41797.41406-.20312.34375-.23438.28125-.25.21875-.26562.16407-.27735.11328-.28515.0625-.28516.01953-.28125-.03906-.38281-.1211-.34766-.1914-.30859-.25-.26172-.30078-.21484-.34766-.15625-.3789-.10156-.40626-.03125-.43359.03125-.39844.09765-.35547.16797-.30468.23438-.25.30468-.1836.375-.11719.44531-.03906.51954"/><path fill="#ffffe0" fill-rule="evenodd" d="M221.91016 438.82813h22.17968v-10.19141h-22.17968v10.1914"/><path fill-rule="evenodd" d="M225.40625 430.46875h.51172v6.29297h-.78906v-4.48828h-1.38672v-.55469l.5586-.0664.2539-.0547.22656-.08593.20313-.14453.17578-.20703.14062-.29688.10547-.39453m4.8164 0l.22657.01953.21875.05469.21094.08984.1953.1211.1836.14843.17188.17579.30078.42187.2461.49219.17968.54687.10938.57813.03906.58984-.03906.59375-.10938.58594-.17969.55469-.2461.5-.30077.42968-.17188.1797-.1836.15233-.1953.125-.21094.08985-.21875.0586-.22656.01952-.23047-.01953-.21875-.0586-.20703-.08983-.19922-.125-.1836-.15235-.17187-.17969-.30078-.42968-.24219-.5-.17969-.5547-.11328-.58593-.03906-.59375h.83594l.02734.5664.08203.50391.125.44141.16406.375.19141.30078.21094.22266.22265.13672.22657.04687.22656-.04687.22266-.13672.21093-.22266.1875-.30078.16406-.375.125-.4414.08204-.50391.03125-.5664-.03125-.5586-.08203-.5-.125-.4375-.16407-.36719-.1875-.28906-.21094-.21485-.22265-.1328-.22656-.04298-.22657.04297-.22265.13281-.21094.21485-.1914.28906-.16407.36719-.125.4375-.08203.5-.02734.5586h-.83594l.03906-.58985.11328-.57813.17969-.54687.24219-.49219.30078-.42188.17187-.17578.1836-.14843.19922-.1211.20703-.08984.21875-.05469.23047-.01953m5.08984 0h.50781v6.29297h-.78515v-4.48828h-1.38672v-.55469l.5586-.0664.25-.0547.23046-.08593.20313-.14453.17578-.20703.14062-.29688.10547-.39453m2.82422 2.17578h.78516l.01953-.3164.0625-.28516.09765-.2539.14063-.21485.17969-.17578.22265-.1289.26563-.07813.30859-.02735.23828.01953.22266.0625.20312.10157.17969.14062.14844.17188.11328.20703.07422.23437.02344.26563-.01954.26953-.0664.22265-.10938.19141-.15625.17188-.20312.16406-.2461.16406-.6328.39063-.53907.3125-.4375.3164-.34375.32422-.26563.33594-.1914.35156-.125.36719-.0664.39453-.02345.41797h4.21485v-.73828H238.875l.08594-.28516.11328-.23437.14844-.20313.1875-.17969.23047-.17187.27734-.17578.71875-.41797.41406-.20313.34766-.23046.27734-.25391.22266-.26563.16015-.27734.11328-.28516.0625-.28515.01954-.28125-.03907-.38281-.12109-.34766-.1914-.3086-.25-.26171-.30079-.21485-.34375-.15625-.38281-.09765-.40625-.03516-.4336.03125-.39843.10156-.35547.16406-.30469.23438-.25.30469-.1836.375-.11718.44531-.03906.51953"/><path fill="#ffffe0" fill-rule="evenodd" d="M158.2461 387.98828h22.18359v-10.1914h-22.1836v10.1914"/><path fill-rule="evenodd" d="M161.7461 379.6289h.51171v6.29688h-.78906v-4.49219h-1.38672v-.55468l.5586-.0625.2539-.0547.22656-.08983.20313-.14063.17578-.21094.14063-.29297.10546-.39843m4.81641 0l.22656.01953.21875.05469.21094.08984.19531.1211.1836.15234.17187.17578.30078.41797.24219.49218.17969.54688.11328.57812.03906.59375-.03906.59375-.11328.58204-.17969.55468-.24219.5-.30078.42969-.17187.17969-.1836.15234-.19531.125-.21094.08985-.21875.05859-.22656.01953-.23047-.01953-.21875-.0586-.20703-.08984-.19922-.125-.1836-.15234-.17187-.17969-.30078-.42969-.24219-.5-.17968-.55469-.11328-.58203-.03907-.59375h.83594l.02734.5625.08203.50391.125.44531.16407.375.1914.30078.21094.21875.22266.13672.22656.04688.22656-.04688.22266-.13672.20703-.21875.1914-.30078.16407-.375.125-.44531.08203-.5039.02734-.5625-.02734-.5625-.08203-.5-.125-.4375-.16406-.36329-.19141-.29297-.20703-.21484-.22266-.1289-.22656-.04688-.22656.04687-.22266.12891-.21094.21484-.1914.29297-.16406.36328-.125.4375-.08204.5-.02734.5625h-.83594l.03906-.59375.11329-.57812.17968-.54688.2422-.49218.30077-.41797.17188-.17578.1836-.15235.19921-.1211.20703-.08983.21875-.0547.23047-.01952m5.08984 0h.50782v6.29687h-.78516v-4.49219h-1.39063v-.55468l.5625-.0625.25-.0547.23047-.08983.20313-.14063.17578-.21094.14063-.29297.10546-.39843m2.82422 2.17578h.78516l.01953-.3164.0586-.28517.10156-.2539.14062-.21485.17969-.17187.22266-.1289.26562-.08204.3086-.02734.23827.02344.22266.0625.20313.10156.17968.13672.14844.17187.11328.20703.07422.23438.02344.26562-.02344.26954-.0625.22265-.11328.1914-.15234.17188-.20313.16406-.2461.16407-.6328.39062-.53907.3125-.4375.3164-.34765.32423-.26172.33594-.1914.35156-.125.3711-.06642.39062-.02343.42187h4.21094v-.74219h-3.33204l.08594-.28515.11328-.23438.14844-.20312.1875-.17969.23047-.17188.27734-.17578.71875-.41406.41406-.20703.34375-.23047.28125-.25.22266-.26953.16016-.27734.11328-.28516.0625-.28516.01953-.28125-.03906-.3828-.1211-.34767-.1914-.30859-.25-.26172-.30078-.21094-.34766-.16015-.3789-.09766-.40626-.03515-.43359.03515-.39844.09766-.35547.16797-.30468.23437-.25.30078-.1836.375-.11719.44532-.03906.51953"/><path fill="#ffffe0" fill-rule="evenodd" d="M213.03125 472.10156h22.17969v-10.1914h-22.17969v10.1914"/><path fill-rule="evenodd" d="M216.53125 463.74219h.50781v6.29687h-.78515v-4.49219h-1.39063v-.55468l.5625-.0664.25-.05079.23047-.08984.20313-.14454.17578-.20703.14062-.29687.10547-.39453m4.8125 0l.23047.01953.21875.05469.20703.08984.19922.1211.1836.14843.17187.17578.30078.42188.24219.49219.17968.54687.11328.57813.03516.59375-.03516.58984-.11328.58594-.17968.55468-.2422.5-.30077.4297-.17188.17968-.1836.15234-.19921.125-.20703.08985-.21875.05859-.23047.01953-.22656-.01953-.22266-.0586-.20703-.08984-.19531-.125-.1836-.15234-.17187-.17969-.30078-.42969-.2461-.5-.17968-.55468-.10938-.58594-.03906-.58985h.83203l.03125.5625.08203.50391.125.44531.16406.3711.1875.30078.21094.22265.22266.13672.22656.04688.22656-.04688.22266-.13671.21094-.22266.1914-.30078.16406-.3711.125-.4453.08204-.50392.02734-.5625-.02734-.5625-.08203-.5-.125-.4375-.16407-.36328-.1914-.29296-.21094-.21485-.22266-.13281-.22656-.04297-.22656.04297-.22266.13281-.21094.21485-.1875.29296-.16406.36329-.125.4375-.08203.5-.03125.5625h-.83203l.03906-.59375.10938-.57813.17968-.54688.2461-.49218.30078-.42188.17187-.17578.1836-.14844.19531-.12109.20703-.08984.22266-.0547.22656-.01952m5.09375 0h.50781v6.29687h-.78515v-4.49219h-1.39063v-.55468l.5586-.0664.2539-.05079.23047-.08984.20313-.14454.17187-.20703.14453-.29687.10547-.39453m2.82031 2.17578h.78906l.01954-.3164.05859-.28516.09766-.25391.14062-.21484.1836-.17579.22265-.1289.26563-.07813.30859-.02734.23828.01953.22266.0625.20312.10156.17969.14063.14844.17187.11328.20704.07031.23437.02734.26563-.02343.26953-.0664.22265-.10938.1914-.15625.17188-.19922.16407-.2461.16406-.63672.39062-.53515.3125-.4375.31641-.34766.32422-.26172.33594-.1914.35156-.125.3711-.07031.39062-.01954.42187h4.21094v-.74219H230l.08203-.28515.11328-.23438.14844-.20312.1875-.17969.23047-.17187.28125-.17579.71484-.41796.41797-.20313.34375-.23047.28125-.2539.21875-.26563.16406-.27734.11328-.28516.0625-.28515.01954-.28125-.04297-.38282-.11719-.34765-.1914-.3086-.25-.26172-.30079-.21484-.34765-.15625-.37891-.09766-.40625-.03515-.4375.03515-.39844.09766-.35156.16406-.30469.23438-.25.30469-.1875.375-.11328.4453-.04297.51954"/><path fill="#ffffe0" fill-rule="evenodd" d="M306.23828 369.71875h22.17969v-10.1914h-22.17969v10.1914"/><path fill-rule="evenodd" d="M309.73828 361.35938h.50781v6.29296h-.78906v-4.48828h-1.38672v-.55469l.5586-.0664.2539-.05078.23047-.08985.20313-.14453.17187-.20703.14063-.29687.10937-.39454m4.8125 0l.23047.01954.21875.05468.20703.08985.19531.1211.1836.14843.17187.17578.30078.42188.2461.49218.17969.54688.10937.57812.03906.58985-.03906.59375-.10938.58593-.17968.5547-.2461.5-.30078.42968-.17187.17969-.1836.15234-.1953.125-.20704.08984-.21875.0586-.23047.01953-.23047-.01953-.21875-.0586-.20703-.08984-.19531-.125-.1875-.15234-.16797-.1797-.30469-.42968-.24219-.5-.17968-.55469-.11328-.58593-.03516-.59375h.83203l.02735.5664.08203.5039.1289.44142.16016.375.1914.30078.21094.22265.22266.13672.22656.04688.22656-.04688.22266-.13672.21094-.22265.1914-.30079.16016-.375.125-.4414.08203-.5039.03125-.56641-.03125-.5586-.08203-.5-.125-.4375-.16016-.36328-.1914-.29297-.21094-.21484-.22266-.13281-.22656-.04297-.22656.04297-.22266.1328-.21094.21485-.1914.29297-.16016.36328-.1289.4375-.08204.5-.02734.5586h-.83203l.03516-.58985.11328-.57812.17969-.54688.24218-.49219.30469-.42187.16797-.17578.1875-.14844.19531-.1211.20703-.08984.21875-.05468.23047-.01954m5.08985 0h.51171v6.29297h-.78906v-4.48828h-1.38672v-.55469l.5586-.0664.2539-.05078.22656-.08985.20313-.14453.17578-.20703.14063-.29687.10546-.39454m6.8047 1.6211h-.78516l-.05079-.21485-.08203-.18359-.10937-.16015-.1289-.13282-.14844-.10156-.16016-.07422-.16797-.04297-.17188-.01562-.32812.03906-.28516.1211-.24609.1953-.20703.26954-.16016.33594-.11328.40625-.07031.46484-.02344.52734.1875-.20312.1875-.16016.1836-.1211.1875-.08984.1875-.05859.1914-.03906.40235-.02344.30468.03125.32031.09375.31641.15625.29688.21875.2539.28125.19922.35156.07422.20313.05078.21484.02735.23438.0078.2539-.78906.04688-.02734-.26172-.07812-.25-.1211-.23438-.16015-.21093-.19532-.17579-.21875-.13671-.23828-.08985-.25781-.03125-.2539.03125-.23829.08985-.22265.13671-.19141.17579-.16016.21093-.125.23438-.07421.25-.02735.26172.02735.25781.07421.25.125.23438.16016.21093.1914.17578.22266.13672.23828.08985.25391.03125.25781-.03125.23828-.08985.21875-.13672.19532-.17578.16015-.21094.1211-.23437.07812-.25.02735-.25781.78906-.04688-.03125.3711-.09375.37109-.15625.35547-.22266.33203-.28906.28125-.17188.11719-.1875.10547-.20703.08203-.22265.0625-.2422.03515-.26171.01563-.28125-.01563-.26172-.04687-.23437-.07813-.21875-.10546-.19532-.12891-.17187-.15625-.15625-.1836-.13281-.19921-.1172-.22266-.09765-.24219-.14844-.53515-.08593-.59375-.02735-.64063.03907-.74219.11328-.66406.1875-.57812.1211-.25391.13671-.23047.15234-.20703.17188-.1836.1875-.15624.19922-.12891.21875-.10156.23437-.07422.2461-.04297.26171-.01563.3672.03516.33202.09375.29297.15235.25781.19921.21094.2422.16797.27343.11328.30078.0625.32422"/><path fill="#ffffe0" fill-rule="evenodd" d="M186.40234 339.52734h22.1797v-10.1914h-22.1797v10.1914"/><path fill-rule="evenodd" d="M189.90234 331.16797h.50782v6.29687h-.78516v-4.49218h-1.39063v-.5547l.5586-.0664.2539-.05078.23047-.08984.20313-.14453.17187-.20704.14453-.29687.10547-.39453m4.8125 0l.23047.01953.21875.05469.20703.08984.19532.1211.18359.14843.17188.17578.30468.42188.24219.49219.17969.54687.10937.57813.03906.59375-.03906.58984-.10937.58594-.17969.55469-.24219.5-.30469.42968-.17187.17969-.1836.15234-.1953.125-.20704.08985-.21875.0586-.23047.01952-.23047-.01953-.21875-.0586-.20703-.08984-.1953-.125-.1875-.15234-.16798-.17969-.30469-.42969-.24218-.5-.17969-.55468-.10938-.58594-.03906-.58984h.83203l.02735.5625.08203.5039.1289.44531.16016.3711.1914.30078.21095.22266.22265.13671.22656.04688.22657-.04688.22265-.13671.21094-.22266.1914-.30078.16016-.3711.1289-.4453.07813-.50391.03125-.5625-.03125-.5625-.07812-.5-.1289-.4375-.16016-.36329-.19141-.29296-.21094-.21485-.22265-.13281-.22657-.04297-.22656.04297-.22266.13281-.21093.21485-.1914.29296-.16017.36329-.1289.4375-.08203.5-.02735.5625h-.83203l.03906-.59375.10938-.57813.17969-.54687.24219-.4922.30468-.42187.16797-.17578.1875-.14844.19531-.12109.20703-.08984.21875-.05469.23047-.01953m5.08985 0h.51172v6.29687h-.78907v-4.49218h-1.38672v-.5547l.5586-.0664.2539-.05078.22657-.08984.20312-.14453.17578-.20704.14063-.29687.10547-.39453m6.80469 1.6211h-.78516l-.05078-.21485-.08203-.1836-.10938-.16015-.1289-.1289-.14844-.10548-.16016-.07421-.16797-.04297-.17187-.01563-.32813.03906-.28515.1211-.2461.19531-.20312.26953-.16406.33594-.11329.40625-.0703.46484-.02345.52735.1875-.20313.1875-.16015.1836-.1211.1875-.08984.1875-.0586.1914-.03515.40235-.02735.30469.03125.3203.09375.31641.15625.29688.21875.2539.28516.19922.34766.07422.20312.05078.21485.03125.23437.00391.2539-.78906.04688-.02735-.26172-.07812-.25-.1211-.23437-.16015-.21094-.1914-.17578-.22266-.13672-.23828-.08984-.25782-.03125-.2539.03125-.23828.08984-.22266.13672-.1914.17578-.16016.21094-.1211.23437-.07812.25-.02735.26172.02735.25781.07812.25.1211.23438.16015.21094.1914.17578.22267.14062.23828.08594.2539.03125.25781-.03125.23829-.08594.22265-.14062.1914-.17578.16017-.21094.12109-.23438.07812-.25.02735-.2578.78906-.04688-.03125.37109-.09375.3711-.15625.35937-.22266.32812-.28906.28125-.17187.1211-.1875.10156-.20703.08203-.22266.0625-.24219.03516-.26172.01562-.28125-.01562-.26172-.04688-.23437-.07812-.21875-.10547-.1914-.1289-.17579-.15626-.15625-.17969-.13281-.20312-.11719-.22266-.09766-.24218-.14843-.53516-.08594-.59375-.02734-.64063.03906-.74218.11328-.66406.1875-.57813.1211-.2539.13671-.23048.15235-.20703.17187-.18359.1875-.15625.19922-.1289.21875-.10157.23438-.07422.24609-.04297.26172-.01562.36719.03515.33203.09375.29687.15235.2539.19922.21095.24219.16796.27343.11328.30078.0625.32422"/><path fill="#ffffe0" fill-rule="evenodd" d="M319.55078 328.60938h22.13672v-10.19141h-22.13672v10.1914"/><path fill-rule="evenodd" d="M323.05078 320.25h.51172v6.29688h-.78906v-4.4922h-1.38672V321.5l.5586-.0664.25-.05079.23046-.08984.20313-.14453.17578-.20703.14062-.29688.10547-.39453m4.8125 0l.23047.01953.21875.05469.21094.08984.19531.1211.1836.14843.17187.17579.30078.42187.24219.49219.17969.54687.11328.57813.03906.58984-.03906.59375-.11329.58594-.17968.55469-.24219.5-.30078.42968-.17188.1797-.18359.15233-.19531.125-.21094.08985-.21875.0586-.23047.01952-.22656-.01953-.21875-.0586-.21094-.08983-.19531-.125-.1836-.15235-.17187-.17969-.30078-.42968-.24219-.5-.17969-.5547-.11328-.58593-.03906-.59375h.83594l.02734.5664.08203.50391.125.44141.16406.375.19141.30078.21094.22266.22265.13672.22266.04687.22656-.04687.22266-.13672.21094-.22266.1914-.30078.16407-.375.125-.4414.08203-.50391.02734-.5664-.02734-.5586-.08203-.5-.125-.4375-.16407-.36328-.1914-.29297-.21094-.21485-.22266-.1328-.22656-.04298-.22265.04297-.22266.13281-.21094.21485-.1914.29297-.16407.36328-.125.4375-.08203.5-.02734.5586h-.83594l.03906-.58985.11328-.57813.1797-.54687.24218-.49219.30078-.42188.17188-.17578.18359-.14843.19531-.1211.21094-.08984.21875-.05469.22656-.01953m2.96485 2.17578h.78515l.01953-.3164.0586-.28516.10156-.2539.14062-.21485.1797-.17578.22265-.1289.26562-.07813.3086-.02735.23828.01953.22265.0625.20313.10157.17969.14062.14843.17188.11329.20703.07421.23437.02344.26563-.01953.26953-.0664.22265-.10938.19141-.15625.17188-.20313.16406-.24609.16406-.63281.39063-.53906.3125-.4375.3164-.34375.32422-.26563.33594-.1914.35156-.125.3711-.06641.39062-.02344.42188h4.21484v-.7422h-3.33593l.08593-.28515.11329-.23437.14843-.20313.1875-.17969.23047-.17187.27735-.17578.71875-.41797.41406-.20313.34375-.23046.28125-.25391.22265-.26563.16016-.27734.11328-.28516.0625-.28515.01953-.28125-.03906-.38281-.1211-.34766-.1914-.3086-.25-.26171-.30078-.21485-.34766-.15625-.3789-.09765-.40625-.03516-.4336.03125-.39844.10156-.35546.16406-.3047.23438-.25.30469-.18358.375-.1172.44531-.03906.51953m6.94141-2.17578l.23047.01953.21875.05469.20703.08984.19922.1211.1836.14843.17187.17579.30078.42187.24219.49219.17969.54687.11328.57813.03515.58984-.03515.59375-.11329.58594-.17968.55469-.24219.5-.30078.42968-.17188.1797-.18359.15233-.19922.125-.20703.08985-.21875.0586-.23047.01952-.22656-.01953-.22266-.0586-.20703-.08983-.19531-.125-.1836-.15235-.17187-.17969-.30078-.42968-.2461-.5-.17968-.5547-.10938-.58593-.03906-.59375h.83203l.03125.5664.08203.50391.125.44141.16406.375.1875.30078.21094.22266.22266.13672.22656.04687.22656-.04687.22266-.13672.21094-.22266.1914-.30078.16407-.375.125-.4414.08203-.50391.02734-.5664-.02734-.5586-.08203-.5-.125-.4375-.16407-.36328-.1914-.29297-.21094-.21485-.22266-.1328-.22656-.04298-.22656.04297-.22266.13281-.21094.21485-.1875.29297-.16406.36328-.125.4375-.08203.5-.03125.5586h-.83203l.03906-.58985.10938-.57813.17969-.54687.24609-.49219.30078-.42188.17188-.17578.18359-.14843.19531-.1211.20703-.08984.22266-.05469.22656-.01953"/></g></defs><use xlink:href="#ao"/></svg>