<svg xmlns="http://www.w3.org/2000/svg" role="img" xmlns:xlink="http://www.w3.org/1999/xlink" viewBox="142.45 309.95 326.84 171.84"><defs><clipPath id="a"><path d="M144 311.67188h1v168.65625h-1zm0 0"/></clipPath><clipPath id="b"><path d="M144 311.67188h324v168.65625H144zm0 0"/></clipPath><clipPath id="c"><path d="M391 479h3v1.32813h-3zm0 0"/></clipPath><clipPath id="d"><path d="M418 480h2v.32813h-2zm0 0"/></clipPath><clipPath id="e"><path d="M467 311.67188h1v168.65625h-1zm0 0"/></clipPath><clipPath id="f"><path d="M144 479h4v1.32813h-4zm0 0"/></clipPath><clipPath id="g"><path d="M147 480h2v.32813h-2zm0 0"/></clipPath><clipPath id="h"><path d="M146 480h2v.32813h-2zm0 0"/></clipPath><clipPath id="i"><path d="M153 479h9v1.32813h-9zm0 0"/></clipPath><clipPath id="j"><path d="M160 480h3v.32813h-3zm0 0"/></clipPath><clipPath id="k"><path d="M159 480h2v.32813h-2zm0 0"/></clipPath><clipPath id="l"><path d="M166 479h9v1.32813h-9zm0 0"/></clipPath><clipPath id="m"><path d="M173 480h3v.32813h-3zm0 0"/></clipPath><clipPath id="n"><path d="M180 479h8v1.32813h-8zm0 0"/></clipPath><clipPath id="o"><path d="M187 480h2v.32813h-2zm0 0"/></clipPath><clipPath id="p"><path d="M193 479h9v1.32813h-9zm0 0"/></clipPath><clipPath id="q"><path d="M200 480h2v.32813h-2zm0 0"/></clipPath><clipPath id="r"><path d="M206 479h9v1.32813h-9zm0 0"/></clipPath><clipPath id="s"><path d="M213 480h3v.32813h-3zm0 0"/></clipPath><clipPath id="t"><path d="M220 479h8v1.32813h-8zm0 0"/></clipPath><clipPath id="u"><path d="M226 479h2v1.32813h-2zm0 0"/></clipPath><clipPath id="v"><path d="M233 479h8v1.32813h-8zm0 0"/></clipPath><clipPath id="w"><path d="M239 479h2v1.32813h-2zm0 0"/></clipPath><clipPath id="x"><path d="M246 479h9v1.32813h-9zm0 0"/></clipPath><clipPath id="y"><path d="M252 480h2v.32813h-2zm0 0"/></clipPath><clipPath id="z"><path d="M260 480h8v.32813h-8zm0 0"/></clipPath><clipPath id="A"><path d="M266 480h2v.32813h-2zm0 0"/></clipPath><clipPath id="B"><path d="M273 479h8v1.32813h-8zm0 0"/></clipPath><clipPath id="C"><path d="M279 479h2v1.32813h-2zm0 0"/></clipPath><clipPath id="D"><path d="M287 478h7v2.32813h-7zm0 0"/></clipPath><clipPath id="E"><path d="M301 477h5v3.32813h-5zm0 0"/></clipPath><clipPath id="F"><path d="M316 476h2v4.32813h-2zm0 0"/></clipPath><clipPath id="G"><path d="M329 476h3v4.32813h-3zm0 0"/></clipPath><clipPath id="H"><path d="M341 477h6v3.32813h-6zm0 0"/></clipPath><clipPath id="I"><path d="M354 477h6v3.32813h-6zm0 0"/></clipPath><clipPath id="J"><path d="M367 477h7v3.32813h-7zm0 0"/></clipPath><clipPath id="K"><path d="M379 480h9v.32813h-9zm0 0"/></clipPath><clipPath id="L"><path d="M380 478h2v2.32813h-2zm0 0"/></clipPath><clipPath id="M"><path d="M393 478h8v2.32813h-8zm0 0"/></clipPath><clipPath id="N"><path d="M393 480h2v.32813h-2zm0 0"/></clipPath><clipPath id="O"><path d="M407 477h6v3.32813h-6zm0 0"/></clipPath><clipPath id="P"><path d="M419 479h9v1.32813h-9zm0 0"/></clipPath><clipPath id="Q"><path d="M425 480h2v.32813h-2zm0 0"/></clipPath><clipPath id="R"><path d="M433 478h8v2.32813h-8zm0 0"/></clipPath><clipPath id="S"><path d="M439 478h4v2.32813h-4zm0 0"/></clipPath><clipPath id="T"><path d="M447 477h6v3.32813h-6zm0 0"/></clipPath><clipPath id="U"><path d="M460 477h7v3.32813h-7zm0 0"/></clipPath><clipPath id="V"><path d="M144 466h4v2h-4zm0 0"/></clipPath><clipPath id="W"><path d="M144 453h4v2h-4zm0 0"/></clipPath><clipPath id="X"><path d="M144 439h4v3h-4zm0 0"/></clipPath><clipPath id="Y"><path d="M466 437h2v3h-2zm0 0"/></clipPath><clipPath id="Z"><path d="M144 425h4v4h-4zm0 0"/></clipPath><clipPath id="aa"><path d="M466 425h2v3h-2zm0 0"/></clipPath><clipPath id="ab"><path d="M144 413h4v2h-4zm0 0"/></clipPath><clipPath id="ac"><path d="M466 412h2v3h-2zm0 0"/></clipPath><clipPath id="ad"><path d="M144 399h4v3h-4zm0 0"/></clipPath><clipPath id="ae"><path d="M466 399h2v3h-2zm0 0"/></clipPath><clipPath id="af"><path d="M144 386h4v2h-4zm0 0"/></clipPath><clipPath id="ag"><path d="M466 386h2v4h-2zm0 0"/></clipPath><clipPath id="ah"><path d="M144 372h4v4h-4zm0 0"/></clipPath><clipPath id="ai"><path d="M466 373h2v4h-2zm0 0"/></clipPath><clipPath id="aj"><path d="M144 358h4v5h-4zm0 0"/></clipPath><clipPath id="ak"><path d="M466 360h2v4h-2zm0 0"/></clipPath><clipPath id="al"><path d="M144 344h3v7h-3zm0 0"/></clipPath><clipPath id="am"><path d="M466 346h2v3h-2zm0 0"/></clipPath><clipPath id="an"><path d="M144 332h4v3h-4zm0 0"/></clipPath><clipPath id="ao"><path d="M466 332h2v3h-2zm0 0"/></clipPath><clipPath id="ap"><path d="M144 320h4v1h-4zm0 0"/></clipPath><clipPath id="aq"><path d="M465 317h3v3h-3zm0 0"/></clipPath><g id="ar" clip-path="url(#clip1)"><path fill="#fff" fill-opacity="0" fill-rule="evenodd" d="M0 0h1000v1000H0zm0 0"/><path fill="#d3d3d3" fill-opacity="0" fill-rule="evenodd" d="M162.15234 355.86719l-.23437.29297.0586.23437.11718.17188.17578.23437.29297.34766.11328.0586.11719-.17188.0586-.23438.17577-.17578.46485-.17578h.69922l.23437.29297.28906.8164.0586.17579.17578.23046.35156.23438.69922.69922.17188.17578.23437.34765.23438.41016.28906.58203.41015.46485.23047.23437.23438.17578.11719.23047.17578.29297.17187 1.16406v.23438l.0586.28906.05859.11719.11719.11719.34765.41015.11719.17188.17578.17578.17578.23437.11719.17188.17188.35156.05859.23438.23437.40625.23438-.0586-.17578.17578-.0586.92969h-.58203l-.23437-.11328-.34766.11328-.11719.11719-.05859.29297-.0586.17578-.11718.17187-.46484.29297-.0586.23438-.0586.11328v.64453l.0586.17187v.41016l.0586.0586v.40624l.05859.40625.11719.17579.05859.05859.23047.64062-.0586.29297v.69922l-.05859.58203v.23438l-.0586.23047-.05468.35156v1.92187l.05469.1172h.42578l-.36719.11718-.02344.35156.89063 1.16797 1.74219.53906 1.33984.35938v.53906l.08984.8086.53516.71484 1.51953.26953.89063-.08594.08984 1.16406.53516.1797 1.16015-.1797 2.05469-.98437 1.16016-.36328 1.8789-.17578 1.69531-.1797-.17968.71876-1.51563.08594-1.25.08984-.80469.26953-1.07421.8086.26953.71875.53515.89843-.17968.625-.26563.8086.26563 1.07812.625.89844.80468.17969 1.25-.1797-.26562.72267.09766.5039.05468.29297v.17188l.0586.29296v.40625l.17578.1172.35156.11718h.40625l.29297-.17578.11328-.11719.0586-.11719.11718-.23047.0586-.17578.35156-.46484.23047-.17578.17578-.0586.17578.0586.0586.17578.11718.98828.05469.46875.0586.17188.11718.23437.17578.0586.8164.05859h.28907l.11719.23437.05859.40625.0586.35156v1.10547l.11718.29297.11719.34766.28906.69922.17578.35156.58203.7539.35157.17579.17187.0586.46875.23437.64063.46484.34765.23438.29297.17578.29297.05468.23047.0625.8164.34766.29297.17578.11328.17188.35157.35156.11719.17578.52343.64063v.28906l.0586.35156v.34766l.05859.35156.0586.28906.11718.0586.17188.05859h.17578l.58203.23437.17578.1172.17578.28905.17578.23438.11328.23437.29297.23047.11719.11719v.41016l.0586.05468.28906.23438.23437.11719.0586.11718.11718.17188.0586.11719.23047.23437.05859.17578.23437.0586.1172.05859-.1172.11328-.05859.11719v.11719l-.11719.29296-.11719.28907v.58203l.17579.11719.11718.05859.0586.11719.11719.11719.11328.05859.17578.34765.0586.35157.05858.40625v.17578l-.05859.17578-.11719.69922v.17187l.1172.17579.29296.29296h.40625l.17578.1172.11719.17187.11719.29296v.23438h-.52735l-.23047-.23438h-.23437l-.17578.0586-.0586.69922.0586.34765.11719.17579.17578.41015.11718.23047.28907.46875.17578.05469h.52344l.23437.0586.75781.64062.0586.29296v.23438l.05859.0586.23047.34765v.35156l-.11719.17188v.29297l.29297.28906.29297.17578.17187.0586.29297.17577.29297.1172.58203.40624.28906.23438.29297.17578.21875.16015.01563.01172.23047.17579.64062.52343.17578.23438.1172.17578.17577.17578.11328.17188v.64062l.1172.17578.46874.11719.58203.11719.23438.05859.23047.11328.29297.11719.11328.0586.58593.35156.28907.17187.17578.0625.17578.05469.17578.0586.69922.35155.28906.17579.23438.05468.28906.17578.23437.1172.64063.40624.29297.11719.17187.0586.23438.05859.41015.05859.23047.0586.23438.11718.0586.17188-.41017.17578.46875.0586.0586.29296.11328.23438.17578.05468.23438.0586.17578.05859.40625.11719.64062.23437.11719.17188.0586.23437v.17578l-.0586.1172-.0586.40624.23438.23438.11719.05859.34766.11719.64062.23047.17578.11718.28906.1172.17578.17577.23438.46485.58203 1.10546.17578.17579.34766.17578.17578.11719.35156.11718 1.04688.52344.23437.0586.46485.11327.29297.0586.46484.17578.75781.58203.23438.23438.34765.46484.17578.17578.28907.23438.8164.69921.29297.17579.28906.28906.29297.17578.29297.28906.69531.64063.17578.17578.29297.23437.28907.23438.46875.28906.64062.58203.34766.23438.23437.29297.34766.34765.35156.46485.9336.99218.34765.40625.11719.17579.23437.05859.11328.11719.64454.17578.23047.11328.23437.0586.29297.17577.23047.1172.9336.69921.40624.40625.23438.17578.40625.17578.23437.11719.8164.34766.34766.23437.23438.11719.29297.28906.23047.11719.7578.35156.35157.17188.23047.05859.29297.11719.23437.0586.8711.17577h.8164l.46875.23047.17188.0586.875.69921.46484.1172.29297.05858.17578.0586.23047.0586.46875.05859.34766.05859.35156.0586.40625.05859h.29297l.17187.0586v.23046l.17578.17578h.29297l.34766.0586.35156.05859.69922.11719h.64063l.46484-.23438.29297-.17578.17187-.11719.41016-.17187.28906-.17578.9336-.46485.46875-.29297.52343-.29296.46485-.17188.46484-.17578 1.05078-.46485.28906-.11718.41016-.11719.28906-.11719.52735-.17578 1.51562-.69922.58203-.34765.28907-.0586.29297-.0586.34765-.11718.875-.23047.35156-.11719h.11329l.23437-.05859.875-.23437.23438-.0586h.8125l.35156-.0586.8164-.11718.17188-.0586.35156-.05468.29297-.0586.23047-.05859.8164-.17578.17579-.0586h.34765l.23438-.05859.46484-.11718.75781-.17188.23438-.0586h.34765l.41016-.11718.28906-.0586 1.28516-.05859h.28906l.41016-.0586.23047-.05858h.17578l.875-.1172h.40625l.41015-.11718h.34766l.35156-.11328.8711-.0586h1.75l1.04687.28907.41016.11719.28906.11718.35156.11719.28907.11719 1.05078.17187.28906.0586h.29297l.29297.05859.17187.0586.41016.05859.17187.0586.1172.05858h.11718l.11719.0586.35156.0586h.11328l.41016.0664 1.92187.39453 1.92578.39453 1.51953.44922 1.69532.71875 2.14453.80469 1.60547-.71875 1.42968-.80469 1.16016-1.07813 1.25-.44921 3.03516-.71875 1.875-.35938 2.14453-1.34765 2.23437-1.25391 2.5-1.25781 1.69531-.44922 1.78516-.17969 1.16016-.26953.625.53906 1.33984-.26953.71485-.98828.98437-1.34375.44531-.17969.80469-.35937 1.875-.53907 1.78516-.44921 1.25-.26954 1.16015-.08984 1.69922-.08984 1.96094-.26954 1.25-.08984h.53906l.625-.08984h.89063l2.14453-.17969 2.41015-.17969 2.58985-.08984 1.69531.17969 1.60938.08984 1.42968.35938 1.16016.71875 1.875.98828 1.16015 1.52734.26563.71484.6289.08985.35548.89844.53515.53906.53516 1.52734 1.07422.35938h.53515l-.80469.53515.08985 1.70703.71484 2.69532.89063.80468.89453.98829.71484 1.2578 1.78516.53907 1.51953-.17969.35547 1.34375 1.60937-.80469.98047-.53906.26953.26953.31641-.21484.21875-.14453.80078.44922.44922-.35938h.35547l.53515-.26953.53907-.71875.53515-.26953.625-.98828 1.16016.44922.83984.3711 1.39454.61718 1.6953-.17969h1.60548l1.78515.08985.17969-1.70704.53516-1.34375.80468.26954.4922.84765.40233.40625-.08984.53906v.35938l.71485.44922.71093-.26953h1.42969l.35938.98828.4453 1.25781.71485 1.34375 1.25.6289 1.69531.62891.71485-.17969.17969-.53906.98046-.08984.44922.35937.08594 1.25782-.26563.6289-.53515.17969v.53906l.71484.98438.26563.53906.98437.98828.80078 1.07813-.26562.35937-.08985.89844-.625 2.33203-.35546 2.0664-.08985 1.79298-.17969.71875-.08984.53906v1.4375l-.98047 1.88281-.35937 1.70703-.53516.89844-.80469 1.16797-.26562.53906 2.05469 1.2539.08593.35938-.35546.53906-.08985-.17968v.80859l.08985 1.4375-.44532.71484-1.07422.09375-.26562.71485.53515.89844.8047.71875 1.16015.80859 1.33984.26953.44531.35938-.35546.44921-1.78907-.08984-1.25-.44922-.71484-.71875-.625-.08984-.17578 3.58984-.1875 1.3086h89.35937V311.70313h-55.26953v49.08203l.76172.125 3.28906.54296 2.02344 2.83594v2.7539l2.35156.33204 2.34766.33203h4.05078l-1.3789 4.16016-2.02344.70703-2.02344.70312-.54297.34375-2.59375 1.6172-.1875.11718-2.02344-2.07813-.73046-2.74218-2.67188-2.07813-1.375-3.5-.0664-.08203-1.95704-2.67188 2.75-1.41796v-49.08204H294.42187v91.41407l.1172.03125.1328.01172.07422.07421.10547.04688.08985.0586.08593.05859.08985.0586.29687.29687.0586.08984.03125.11719.02734.11719.01563.13671-.03125.1172-.0586.08983-.0586.08594-.04296.10547-.04688.10156-.02734.1211v.14453l.17578.26953.14844.14844.07422.08594.07422.07421.04296.10547.0625.08985.0586.08593.04297.10547.0586.08985.04687.10156.04296.10547.0586.08594.11719.17968.07421.07422.0625.08594.0586.08984.04297.10547.0586.08985.05858.08593.0625.08985.0586.08984.04297.10156.11719.17969.07421.07422.0586.08594.07422.07421.08984.0586.10547.04687h.14844l.1328-.01562.13282.01562.10156-.04687.07422-.07422.04688-.10156-.01563-.13281v-.14844l-.04687-.10547-.02735-.11719-.04687-.10156-.02735-.1211-.04296-.10156-.0625-.08984-.04297-.10156-.04297-.10547-.03125-.11719-.01563-.13281-.01171-.13672.08593-.0586.0586-.08593.12109-.03125.04297.10547.01562.1328v.1172l.0586.10156.0586.08984.08983.0586.14844.14843.0586.08985.04296.10547-.01171.10156.08593.0586.10547.04687.08594.0586.08984.05858.07422.07422-.11719.02735-.10546.04687-.08594.0586-.07422.07421-.0586.08985-.0625.08594-.02734.12109-.04687.10156-.04297.10547-.03125.11719-.01172.13281-.01563.13281v.14844l.02735.11719.04687.10547.04297.10156.0586.08984.07421.07422.08985.0586.07422.07421.08984.0586.0586.08984.04296.10547.04688.10156.11719.03125.1328.01563h.14845l.11718-.03125.10547.04297.04297.10547.04688.10156.02734.1211L299.5 410l.02734.11719.03125.1211.02735.11718.10547.04297.10156.04687.13281-.01562.14844.14844.0625.08593.07422.07422.07031.07422.08984.0625.10547.04297.10156.04297.1172.03125.13671.01562.11719-.03125.07422-.07422.02734-.11718-.01172-.13282-.03125-.12109-.02734-.11719.04297-.10547h.11719l.08984.0625.11719.02735h.14843l.13282.01562h.14843l.13282.01563.1328-.01563h.14845l.1328-.01562.13282-.01172.13672.01172.11719-.02735.13281-.01562.1914-.0586-.05859.17579-.01562.1328-.02735.1211-.01562.13281-.0586.08594-.1328.01563-.10548.04687-.10546.04297-.1172.03125-.11718.02735-.26563.03125h-.14843l-.13281.01562-.07422.07422.05859.08594.14844.14843.11719.1797.07421.0703.08985.0625.08984.0586.08594.0586.08984.05858.10156.04297.10547.0625.10547.04297.08594.0586.10547.04687.10156.04297.17969.11719.0586.08984-.04298.10156-.04687.10547.01562.13281.22266.22266.0586.08985.04296.10156.03125.1211.04297.10155.01563.13282.03125.11718.01171.13672.03125.11719.14844.14844.10156.04297.10547.04296.1172.03125.1328.01563.13672.01563h.11719l.11719-.03125.08984-.0586.04297-.10547.04688-.10156.04296-.10547.03125-.11719.01172-.1328v-.14845l-.01172-.1328-.01562-.13282-.03125-.11719-.04297-.10547-.04688-.10547-.04296-.10156-.04297-.10547-.01563-.13281.01563-.13281.02734-.11719.03125-.11719.02735-.1211.04687-.10155.08984-.0586.08594-.0625.07422-.07422.08984-.05859.22266-.22266.0586-.08593.07421-.07422.11719-.17969.0586-.08594v-.14844l-.07423-.07421-.10156-.04688-.10547-.04297-.10156-.04297-.0586-.08984-.04687-.10547-.02734-.11719.08984-.05859.11719-.03125.10156-.04297.17969-.11719.14844-.14843.01172-.13282-.01172-.10546-.08985-.0586-.1328.01563h-.14845l-.1328.01562-.13282-.01562-.1211-.03125-.08593-.0586-.07422-.07422-.0586-.08984-.0625-.08594-.11718-.17969-.0586-.08593.03125-.1211.08594-.05859.1211-.03125.05859-.08594v-.1211l-.03125-.11718-.0586-.08984-.05859-.08594-.04687-.10547-.02735-.11719-.01562-.1328.0586-.08985.07421-.07422.08984-.0586.1172-.17968.07421-.07422.0586-.08594.14843-.14844.1211-.03125.1328-.01562.13282.01562.07422.07422.04297.10547.01562.13281-.03125.1172-.11719.03124-.1328.01172-.14844.14844-.04297.10547-.04688.10156-.02734.1211-.03125.11718v.14844l.03125.11719.04297.10546.05859.08985.07422.07031.07422.07422.11719.03125.12109.02734.11719-.02734.1328-.01563h.1172l.08984.0586.07422.07422.04687.10546.0586.08594.10156.04688.13281.01562.10547.04297.08594.0586-.01172.10546-.07422.07422-.17969.11719-.05859.08984-.08984.0586-.07032.07422-.07421.07421-.0625.08985-.02735.11719-.01562.1328.01562.13282-.01562.13281v.14844l.01562.13281.02735.1172.03125.12108.07421.07422.08985.0586.08594.0586.08984.05858.11719.03125v.08594l-.10157.04688-.08984.0586-.26563.03124-.11718.02735h-.14844l-.10547.04296-.10156.04688-.0586.08984-.0625.23438-.01171.13281-.03125.1211-.01563.1328v.29298l-.01172.1328.01172.13673.01563.1328.1328.01563.13282.01172.1211.03125.08593.0586.07422.07421.04688.10547.04296.10157.01563.1328v.44532l-.01563.13281v.44532l.03125.26562.02735.11719.01562.13281.03125.11719.08594.21094.03125.26562v.14844l-.03125.11719-.02734.11718-.03125.1211-.02735.11719-.03125.11718-.03125.1211-.01171.1328-.01563.13282.08984.0586.1172-.03125.10155.01562.04688.10547-.03125.26562v.44141l-.04297.10547-.04688.10547-.04296.10156-.04297.10547-.0586.08594-.03125.12109-.04296.11719-.03125.11719-.01563.1328.01563.13282.05859.08984.10547.04688.08594.0586.05859.08593-.01172.13672-.03125.11719-.04297.10156v.44531l-.01562.13281v.14844l-.03125.11719-.04297.10547-.02735.11719-.04687.10546-.04297.10157-.03125.12109-.02734.11719-.03125.13281-.03125.11719-.02735.11719-.04297.10546-.03125.1172-.03125.12108-.01171.13282-.01563.13281v.29688l.02734.11718v.14844l.04688.39844.02734.11719.0586.08984.12109.03125h.14844l.13281-.01563.0586.08985v.11719l-.0586.08984-.08984.0586-.10157.04296-.10546.04688-.08985.05859-.08594.0586-.13671.01562-.1172-.03125-.1328-.01563-.10157.04688-.0625.08594-.01172.13671-.01562.13282-.03125.11719-.02735.11718-.01562.13281-.03125.1211v.29687l.01563.13282.03125.11718v.14844l.01171.13281v.14844l-.02734.11719-.04688.10156-.02734.1211-.03125.11718-.0586.08985-.07421.07421-.10156.04297-.10547.04688-.11719.02734-.1211.03125-.10156-.04687.0586-.08594.10547-.04688.02734-.11718.03125-.11719.02734-.1211.03125-.11718v-.14844l.01563-.13281-.03125-.11719-.04297-.10547-.10547.01563-.07422.07422-.10156.04296-.08984.0625-.07422.07422-.04297.10157-.01563.1328-.03125.1172L304.25 426l-.03125.11719-.02734.11719-.03125.12109-.02735.11719-.03125.11718-.04297.10547-.08984.0586h-.08984l-.1172-.03125-.03124-.08594.01562-.13672-.03125-.11719v-.14844l-.01171-.1328v-.14844l-.0625-.23438-.02735-.1211-.04297-.10156-.04687-.10546-.0586-.08594-.05859-.08985-.04297-.10546-.0625-.08594-.14844-.14844-.0703-.07422-.10548-.04687-.10547-.04297-.10156-.04297-.29687-.29688-.08985-.07421-.08594-.0586-.10546-.04297-.08985-.0625-.08594-.0586-.10546-.04296-.08985-.0586-.08594-.0625-.07421-.0703-.10547-.04688-.08594-.0586-.10547-.04296-.08984-.0625-.10156-.04297-.10547-.04297-.08594-.0586-.10547-.04687-.10547-.04297-.10156-.04687-.08985-.0586-.10156-.04297-.10547-.04296-.08984-.0625-.11719-.02735-.13281-.01562-.13281.01562H299.75l-.13281.01563-.11719-.03125-.08984-.0586-.07422-.07422-.08985-.05859-.10156-.04688h-.14844l-.12109-.02734-.10156-.04297-.07422-.07422-.11719-.17968-.08984-.0586-.10156-.04297-.08985-.0625-.10547-.04296-.08984-.0586-.08594-.0586-.10547-.04687-.0586-.08594-.05858-.08984-.04297-.10547-.04688-.10156-.07422-.07422-.08594-.0586-.07421-.07421-.08985-.0586-.22265-.22265-.04297-.10547-.03125-.26563.10547-.04296h.14453l.10547.04296.07421.07422.08985.0586.08594.0586.10546.04687.08985.05859.14844.14844.0703.07422.14845.14843.0625.08594.07421.07422.08594.0586.07422.07421.08985.0625.08984.0586.08594.05859.26953.17578.10156.04688.10547.04296.10156.04297.04688-.07421.05859-.08594.07422-.07422.07031-.07422.10547.04297.07422.07422.0586.08984.04296.10156.04688.10547.04296.10547.1211.02735.11719-.02735.07421-.08984.04297-.10547.0586-.08985.07422-.07421.10546-.04297.1172-.02735.1328.01172.08985.0586.14844.14843.05859.08985.04297.10547.04687.10156.04297.10547.04297.10156.10547.04688.10547.04296.13281.01563.08594-.0586.0586-.08984.07421-.07422.10547-.04297.11719.02735.10547.04687.10156.04297.10547.04297.10156.04688.17969.11718v.11719l-.01563.13281.01563.13281.01562.13672.0586.08594.10156.04688.1211.02734.11718.03125h.14844l.11719-.03125.05859-.08984.17969-.1172.05859-.08983.07422-.07422.0586-.08594.11718-.17969.17969-.11719.11719.03125.08984.0586.04297.07422-.01563.1328v.1172l.08985.05859h.14843l.13282-.01563.1328-.01171.26563-.03125.10547-.04297.11719-.03125.1211-.02735.07421-.07421.07031-.07422.0625-.08985-.01562-.10547-.04688-.10156-.10156-.04297-.10547-.01562-.11718.02734-.26563.03125h-.14844l-.07421-.07422-.08985-.0586-.11719-.03124-.11718-.02735-.13282-.01562h-.14843l-.13282.01563h-.29687l-.10547-.04688-.14844-.14844-.04297-.10156-.05859-.08984.22266-.22266.08593-.0586.10547-.04296.11719-.03125.13281-.01563.13281.01563.13672.01562.10157.04297.1328-.01172.08985-.0625.10156-.04297.0625-.08984-.04687-.10156-.08984-.0586-.1172-.03125-.10155-.04296-.0586-.08985-.0625-.08984v-.11719l.01563-.13281.10547-.04688.07421-.07031v-.1211l-.08984-.05859-.03125-.11719.08985-.05859.07421-.07422.04297-.10547.0586-.08984.04687-.10156.01563-.13281v-.14844l-.04688-.10547-.04297-.10156-.08984-.0586-.13281-.01562-.10157-.04297-.13671-.01563-.1172-.03125h-.4453l-.13282-.01562-.13281-.01172-.13281-.01563-.11719-.03125h-.14844l-.13281-.01562-.13281-.01172-.26563-.03125-.1211-.04297-.08593-.0586-.07422-.07421v-.14844l.01172-.13281.10547-.04688.10156-.04296.13281-.01563h.15235l.13281-.01562h.29297l.1211.03125.10156.04296.08984.0586.23438.0625.12109-.04688.08984-.05859.10156-.04297.13282-.01562.10547.04296.10156.04688.13281.01172.1211-.02735h.14453l.12109-.03125.11719-.02734.10547-.04687.07421-.07422.08594-.0586.14844-.14843.0586-.08594.04687-.10547.02734-.11719.01563-.10547-.10156-.04296-.08985-.0586-.11719-.03125-.10546-.04297-.08985-.0625-.07422-.08594-.07422-.07421-.10156-.04297-.10547-.04688-.10156-.04297-.0586-.08984-.04687-.10156-.08594-.21094-.0625-.08594-.05859-.08984-.07422-.07422-.08594-.0586h-.26953l-.11719.03126-.08984.05859-.10156.04297-.13281.01562-.10547-.01562-.02735-.11719-.0625-.08984-.11718-.03125-.10157-.04297-.14843-.14844-.03125-.11719-.01563-.10546.07422-.07422.17969-.1172.11719-.02733.11718-.03125.13672.01562.10156.04297.10547.04297.10156.04687.10547.04297.1172.03125.1328.01563.1172.02734.1328.01563.10547-.01563.08985-.0586-.07422-.07421-.10547-.04297-.07422-.07422-.07422-.08984-.14844-.14844-.08593-.0586-.08985-.05859-.07422-.07422-.08984-.0586-.10156-.04687-.1211-.02734-.10156-.04688-.10547-.04296-.11719-.03125-.10156-.04297-.1211-.03125h-.14843l-.11719.03125-.10546.04297-.08594.0625-.17969.11718-.08594.0586-.08984.0586-.10547.04687-.08594.05859-.10547.04297-.10156.04297-.10547.04687-.07422.07422-.05859.08985-.0586.08593-.04687.10547-.0586.08594-.07421.07422-.13281-.01172-.1172-.03125h-.11718l-.07422.07422-.08984.0586-.07422.07421-.08984.0586-.08594.05859-.10547.04687-.10156.04297-.13672.01563-.10156-.04297-.14844-.14844-.10547-.04688h-.08594l-.10547.04688-.10156.04297-.1211.03125-.11718-.03125-.07422-.07422v-.11719l.03125-.1211.07422-.0703.0586-.08985.07421-.07422.11719-.03125.10547-.04296h.29297l.13281-.01563.13672-.01563.10156-.04296.08985-.0586.10156-.04687.08984-.0586.13281-.01171.08985.05859.13281.01172.08984-.0586.08594-.05859.10547-.04297.08984-.0586.08594-.0625.08985-.05859.14843-.14843.0586-.08594.05859-.08985.10547-.04296.13281-.01563.11719.02735.1211.03125.05859-.0586.05859-.08984.03125-.26563.02734-.11719.10547.01172.13281.01563.10157-.04297.08984-.0586.0586-.08984.07421-.07422.0586-.08984.04687-.10156.01172-.13281-.01172-.13282-.04687-.10547-.14844-.14843-.0586-.08985-.05859-.08594-.04297-.10546v-.44532l.01563-.1328v-.14845l.01172-.1328-.0586-.0586-.08984.0586-.10156-.04298-.17969-.11719-.08594-.05859-.0625-.08984-.0586-.08985-.07421-.07421-.08594-.0586-.1211.03125-.10155.01172-.10547.04688-.08594.05859-.10547.04297-.14844.14844-.08984.05859-.08594.0586-.08984.0625-.10547.04296-.13281.01563v-.1211l.10547-.04297.11718-.03125.07422-.0703.04297-.10548v-.14844l-.02734-.11718-.14844-.14844-.13281-.01563h-.14844l-.11719.03125-.10547.04297-.10156.04297-.08984.0625-.11719.02735-.07422-.07422.01172-.13281-.04297-.10157-.04297-.10547-.08984-.05859-.11719.02734-.1211.03125-.11718.03125-.10156.04297-.1211.03125-.10156.04297-.10547.04297-.08984.0586-.10156.01562v-.11719l.01562-.13281-.0586-.08985-.07421.04297-.14844.14844-.0586.08985-.07421.07421-.04688.10547-.04296.10156-.07422.07422-.0586.08985-.07422.07422-.05859.08593-.07422.07422-.08984.0625-.07422.07031-.07422.07422-.10156.01563-.13281.01562-.10547-.04296v-.1211l.14843-.14844.04297-.10156.0586-.08984.04687-.10156.04297-.10547.0586-.08985.03124-.11719.04297-.10156.03125-.1211.02735-.11718.04687-.10547.04297-.10156.04297-.10547.07422-.07031.08984-.0625.08985-.0586.10156-.04296h.29687l.26563-.03125.10547-.04297-.07422-.07422-.11719-.03125-.10547-.04297-.08984-.0586-.10156-.04687-.08985-.0586-.10156-.04296-.10547-.04297-.08984-.0625-.08594-.0586-.10547-.04296-.10156-.04297-.1211-.03125-.11718-.03125-.10157-.04297L297.5 410.25l-.10156-.04297-.08985-.0586-.04296-.10546-.01563-.13281.10156-.04297.13281-.01563.13672.01563.13282-.01563.10156-.04297.0586-.08984.01562-.10547-.08985-.0586-.07421-.07421-.10157-.04297-.08984-.0586-.14844-.14843-.04297-.10547-.01562-.13281v-.29297l-.0586-.08985-.08984-.05859-.07422-.07422-.04297-.10547-.03125-.11718-.0586-.08985-.07421-.07422-.11719-.02734-.07422-.07422-.08984-.0586-.08984-.0625-.08594-.05859-.07422-.07421-.0586-.08594-.04687-.10547-.08594-.0586-.14843-.14843-.19532-.0586-.1328.01563-.10157.04297-.07422.07422-.04688.10156-.04296.10547-.0586.08984-.0586.08594-.29687.29687-.08984.0586h-.08594l-.0625-.08594-.04297-.10547.03125-.11719.0586-.08984.02734-.11719-.01172-.13281-.08984-.0625-.10547.04688-.11719.02734-.11719.03125-.26953.17578-.10156.04688-.11719.02734-.10546.04687-.08985.0586-.10156.04297-.0586-.08594-.04687-.10547.01563-.13281.04687-.10547.07031-.07422.07422-.07031.0586-.08985v-.14843l-.04297-.10547h-.23829l-.10156.04687-.03125.11719-.02734.11719-.03125.1211-.07422.04296-.13281.01563-.07422-.04688-.04297-.10156-.04297-.10547-.04687-.10156-.04297-.10547-.1211.03125-.10156.04297-.13281.01562-.11719.03125-.10547.04297-.08984.0586-.10156.04687-.1211.02734-.13281.01563-.10156-.04297-.0586-.08985-.04687-.10546-.04297-.10157-.04297-.10546v-.1172l.0586-.08984.08593-.05859.17969-.11719.10156-.04687.10547-.04297.10547-.0586.10156-.04296.08985-.0625.10156-.04297.10547-.0586.10156-.04687.08984-.0586.10547-.04296.10156-.04297.08985-.0625.10156-.04297.13672-.01563.11719.03125.10156.04297.1211.03125.10156.04297.10546.04688.10157.04296.10547.04297.10156.04688.10547.04297.10156.04297.10547.04687.08594.0586.10546.04296.1172.03125.10546.04297.10156.04688.08985.0586.10547.04296.10156.04297.10547.04687.11719.02735.10156.04687.1211.02735h.14843l.08594-.0586.01562-.10156.0586-.08984-.02735-.1172-.07422-.07421-.11719-.17969-.07421-.07422-.08985-.07421-.17969-.1172-.08593-.05859-.10547-.04296-.10156-.04688-.26954-.17578-.05859-.08985-.07422-.07421-.0586-.08985-.04296-.10156-.03125-.11719-.01563-.13672v-.5625l-.01171-.1328-.01563-.13282-.03125-.11719-.01562-.13281-.01172-.13281-.03125-.1211-.22266-.22265-.0586-.08594-.01562-.10547.03125-.11719.13281-.01562v-91.41406H172.9922v1.45312l-.0586.23438-.35156 1.05078-.17187.52343-.1172.34766-.17577.41016-.11719.17187-.23438.29297-.23046.0586h-.35157l-.11718.05859-.23047.40625v.29297l.11719.17578.23046.23047.1172.23437.64062.75781.29297.46485.17578.23437.23047.35156.23437.34766.64063.8164.17578.46485.17187.41016.11719.69531.17578.46875.11719 1.39844.0586.46484v.875l.11718 1.04688v4.78125l-.0586.46484-.35156 1.28125-.17578.52344-.11328.41015-.35156.9297L172.93359 336l-.23437.58203-.11719.17578-.17187.34766-.17578.40625-.35157.8164-.0586.29297-.11327.29297-.11719.28906-.0586.17579-.11718.875-.0586.40625-.05859.11718-.0586.17579-.05859.17187-.23047.52734-.11718.17188v.23437l-.11719.23438-.0586.17187-.17577.58594v.28906l-.0586.17579v.29296l-.0586.11329-.05859.52734v.17187l-.05468.23438v2.6211l-.17578.8164-.1172.17578-.17577.23438-.1172.17187-.11327.23438-.58594.93359-.23047.28906-.29297.46485-.17578.23437-.28906.35156-.35156.69922-.11328.23047-.17579.41016-.17578.23046-.40625.52735-.8164.69922-.29297.17187-.28906.23438-.17579.11719-.17578.17578-.52344.40625-.52734.17578-.17187.17578-.23438.05469-.64062.17578h-.75782m12.21094 31.02344l-1.07422.44921.35938.89454 1.25-.71485.44531-.53906-.98047-.08985"/><path fill="#d3d3d3" fill-opacity="0" fill-rule="evenodd" d="M201.50781 416.59766h-.89453l.44922.6289.98047.35938.80469-.08985.4453-.98828-.17577.08985-.71485-.35547-.89453.35547m154.6211 59.0703l-.0586-.52343v-.29297l.11328-.29297.0586-.23046.46875-.46875h.11328l.11719-.11329.11718-.05859h.17579l.23437-.0586h.34766l.23437.0586.11719.0586.23047.17187.0586.17578.11718.58203v.29297l-.11719.17578-.17187.28906-.17579.17579-.52734.52343-.23047.23438-.11719.0586h-.17578l-.11718-.0586-.40625-.29297-.17579-.11719-.11718-.0586-.0586-.11327-.05468-.1172m6.64062-10.95702l-.0586-.17188v-1.10937l.0586-.17188.17578-.0586.17188-.05858h.17578l.23437-.0586.1172.0586.05858.69921-.05859.17188-.11719.17578-.11718.0586-.23438.52343-.11328.0586h-.23438l-.05859-.1172m9.61328-14.39062l-.11719-.17578v-.69922l.29297-.875.1172-.17187.17577-.35156.11328-.23047.1172-.29297.35155-.75781.1172-.23047.17187-.23438h.17578l.11719-.0586h.64062l.11719.0586.23437.23438.17188.11328.35156.29297.11719.11718.11328.17579v.11328l.11719.05859.11718.11719v.69922l-.05859.17578v.23047l-.0586.17578-.34765 1.05078-.11719.23047-.11719.23437-.11718.0586-.23047.23437-.64063.28906h-.875l-.41015-.11718-.64063-.46485"/><path fill="none" stroke="#bebebe" stroke-linecap="round" stroke-linejoin="round" stroke-miterlimit="10" stroke-width=".5" d="M467.95703 311.69531H144.02734v168.625h323.9297v-168.625"/><g clip-path="url(#a)"><path fill="#fff" fill-opacity="0" fill-rule="evenodd" d="M144 475.89063v4.4375h.0039H144V311.67188h.0039H144v164.21875"/></g><g clip-path="url(#b)"><path fill="#fff" fill-opacity="0" fill-rule="evenodd" d="M144.0039 480.32813V311.67188h17.75v131.73046l-1.34374 1.41797-2.44532 4.4414.33594 4.4375 3.45313 4.25 3.51562-4.25.92188-3.58593 4.22265 3.58594.21485.34765.17968-.34765-.17968-1.25781-1.5625-3.1797-2.875-.5039L163 444.82031l-1.2461-1.41797V311.67188h226.35548v149.71875l-2.01954 1.18359 2.01954.75781.875-.75781-.875-1.1836V311.67188h79.88671v168.65625h-48.51953l-.29687-.29687-1.0039.29688h-25l-.62892-.84766-.66406.84765h-247.8789"/></g><path fill="#50fcfc" fill-rule="evenodd" d="M158.30078 453.69922l-.33594-4.4375 2.44532-4.4414 1.34375-1.41798v5.16407l-.51953.6953.51953 1.72267.6328-1.72266-.6328-.69531v-5.16407L163 444.82031l3.1914 3.9375 2.875.5039 1.5625 3.1797.1797 1.2578-.1797.34767-.21484-.34766-4.22265-3.58594-.92188 3.58594-3.51562 4.25-3.45313-4.25"/><path fill="#00e8fc" fill-rule="evenodd" d="M161.7539 450.98438l-.51952-1.72266.51953-.69531.6328.6953-.6328 1.72267"/><path fill="#50fcfc" fill-rule="evenodd" d="M388.10938 463.33203l-2.01954-.75781 2.01954-1.1836.875 1.1836-.875.75781"/><g clip-path="url(#c)"><path fill="#50fcfc" fill-rule="evenodd" d="M391.88281 480.32813l.66406-.84766.62891.84765h-1.29297"/></g><g clip-path="url(#d)"><path fill="#50fcfc" fill-rule="evenodd" d="M418.17578 480.32813l1.0039-.29688.29688.29688h-1.30078"/></g><g clip-path="url(#e)"><path fill="#fff" fill-opacity="0" fill-rule="evenodd" d="M467.9961 480.32813H468V311.67188h-.0039H468v168.65625h-.0039"/></g><g clip-path="url(#f)"><path fill="none" stroke="#000" stroke-linecap="round" stroke-linejoin="round" stroke-miterlimit="10" stroke-width=".5" d="M147.50781 480.50781l-7.01562-.35937"/></g><g clip-path="url(#g)"><path fill="none" stroke="#000" stroke-linecap="round" stroke-linejoin="round" stroke-miterlimit="10" stroke-width=".5" d="M147.50781 480.50781l1.03906 2.22266"/></g><g clip-path="url(#h)"><path fill="none" stroke="#000" stroke-linecap="round" stroke-linejoin="round" stroke-miterlimit="10" stroke-width=".5" d="M146.48828 480.45703l.51953 1.10938"/></g><g clip-path="url(#i)"><path fill="none" stroke="#000" stroke-linecap="round" stroke-linejoin="round" stroke-miterlimit="10" stroke-width=".5" d="M160.82422 480.48828l-7.01953-.32031"/></g><g clip-path="url(#j)"><path fill="none" stroke="#000" stroke-linecap="round" stroke-linejoin="round" stroke-miterlimit="10" stroke-width=".5" d="M160.82422 480.48828l1.05078 2.21875"/></g><g clip-path="url(#k)"><path fill="none" stroke="#000" stroke-linecap="round" stroke-linejoin="round" stroke-miterlimit="10" stroke-width=".5" d="M159.80469 480.4414l.52344 1.10938"/></g><g clip-path="url(#l)"><path fill="none" stroke="#000" stroke-linecap="round" stroke-linejoin="round" stroke-miterlimit="10" stroke-width=".5" d="M174.1289 480.64453l-7-.63281"/></g><g clip-path="url(#m)"><path fill="none" stroke="#000" stroke-linecap="round" stroke-linejoin="round" stroke-miterlimit="10" stroke-width=".5" d="M174.1289 480.64453l.95313 2.26172"/></g><g clip-path="url(#n)"><path fill="none" stroke="#000" stroke-linecap="round" stroke-linejoin="round" stroke-miterlimit="10" stroke-width=".5" d="M187.42578 480.8125l-6.96094-.96875"/></g><g clip-path="url(#o)"><path fill="none" stroke="#000" stroke-linecap="round" stroke-linejoin="round" stroke-miterlimit="10" stroke-width=".5" d="M187.42578 480.8125l.84375 2.30469"/></g><g clip-path="url(#p)"><path fill="none" stroke="#000" stroke-linecap="round" stroke-linejoin="round" stroke-miterlimit="10" stroke-width=".5" d="M200.75781 480.66406l-6.9961-.67187"/></g><g clip-path="url(#q)"><path fill="none" stroke="#000" stroke-linecap="round" stroke-linejoin="round" stroke-miterlimit="10" stroke-width=".5" d="M200.75781 480.66406l.9414 2.26563"/></g><g clip-path="url(#r)"><path fill="none" stroke="#000" stroke-linecap="round" stroke-linejoin="round" stroke-miterlimit="10" stroke-width=".5" d="M214.08594 480.48047l-7.01953-.30469"/></g><g clip-path="url(#s)"><path fill="none" stroke="#000" stroke-linecap="round" stroke-linejoin="round" stroke-miterlimit="10" stroke-width=".5" d="M214.08594 480.48047l1.0586 2.21484"/></g><g clip-path="url(#t)"><path fill="none" stroke="#000" stroke-linecap="round" stroke-linejoin="round" stroke-miterlimit="10" stroke-width=".5" d="M227.40234 480.17578l-7.02343.30469"/></g><g clip-path="url(#u)"><path fill="none" stroke="#000" stroke-linecap="round" stroke-linejoin="round" stroke-miterlimit="10" stroke-width=".5" d="M226.3789 480.22266l.6211 1.05468"/></g><g clip-path="url(#v)"><path fill="none" stroke="#000" stroke-linecap="round" stroke-linejoin="round" stroke-miterlimit="10" stroke-width=".5" d="M240.71484 480.19922l-7.01953.25781"/></g><g clip-path="url(#w)"><path fill="none" stroke="#000" stroke-linecap="round" stroke-linejoin="round" stroke-miterlimit="10" stroke-width=".5" d="M239.69531 480.23828l.61719 1.0586"/></g><g clip-path="url(#x)"><path fill="none" stroke="#000" stroke-linecap="round" stroke-linejoin="round" stroke-miterlimit="10" stroke-width=".5" d="M254.01563 480.70313l-6.98829-.75"/></g><g clip-path="url(#y)"><path fill="none" stroke="#000" stroke-linecap="round" stroke-linejoin="round" stroke-miterlimit="10" stroke-width=".5" d="M252.9961 480.59375l.45702 1.14063"/></g><g clip-path="url(#z)"><path fill="none" stroke="#000" stroke-linecap="round" stroke-linejoin="round" stroke-miterlimit="10" stroke-width=".5" d="M267.34766 480.3711l-7.02344-.08594"/></g><g clip-path="url(#A)"><path fill="none" stroke="#000" stroke-linecap="round" stroke-linejoin="round" stroke-miterlimit="10" stroke-width=".5" d="M266.32813 480.35938l.5625 1.08984"/></g><g clip-path="url(#B)"><path fill="none" stroke="#000" stroke-linecap="round" stroke-linejoin="round" stroke-miterlimit="10" stroke-width=".5" d="M280.5664 479.5l-6.82812 1.66016"/></g><g clip-path="url(#C)"><path fill="none" stroke="#000" stroke-linecap="round" stroke-linejoin="round" stroke-miterlimit="10" stroke-width=".5" d="M279.57031 479.74219l.8164.91406"/></g><g clip-path="url(#D)"><path fill="none" stroke="#000" stroke-linecap="round" stroke-linejoin="round" stroke-miterlimit="10" stroke-width=".5" d="M293.33594 478.30078l-5.74219 4.05469"/></g><g clip-path="url(#E)"><path fill="none" stroke="#000" stroke-linecap="round" stroke-linejoin="round" stroke-miterlimit="10" stroke-width=".5" d="M305.47266 477.25l-3.38282 6.16016"/></g><g clip-path="url(#F)"><path fill="none" stroke="#000" stroke-linecap="round" stroke-linejoin="round" stroke-miterlimit="10" stroke-width=".5" d="M317.51953 476.83984l-.84765 6.97657"/></g><path fill="none" stroke="#000" stroke-linecap="round" stroke-linejoin="round" stroke-miterlimit="10" stroke-width=".5" d="M317.39453 477.85547l1.14453-.4414"/><g clip-path="url(#G)"><path fill="none" stroke="#000" stroke-linecap="round" stroke-linejoin="round" stroke-miterlimit="10" stroke-width=".5" d="M329.51563 476.92969l1.78906 6.79687"/></g><path fill="none" stroke="#000" stroke-linecap="round" stroke-linejoin="round" stroke-miterlimit="10" stroke-width=".5" d="M329.77734 477.91797l.90235-.83203"/><g clip-path="url(#H)"><path fill="none" stroke="#000" stroke-linecap="round" stroke-linejoin="round" stroke-miterlimit="10" stroke-width=".5" d="M341.48438 477.6211l4.48437 5.41406"/></g><path fill="none" stroke="#000" stroke-linecap="round" stroke-linejoin="round" stroke-miterlimit="10" stroke-width=".5" d="M342.13672 478.41016l.46875-1.13282"/><g clip-path="url(#I)"><path fill="none" stroke="#000" stroke-linecap="round" stroke-linejoin="round" stroke-miterlimit="10" stroke-width=".5" d="M355.23047 477.3164l3.6211 6.02344"/></g><path fill="none" stroke="#000" stroke-linecap="round" stroke-linejoin="round" stroke-miterlimit="10" stroke-width=".5" d="M355.75781 478.19531l.6289-1.05469"/><g clip-path="url(#J)"><path fill="none" stroke="#000" stroke-linecap="round" stroke-linejoin="round" stroke-miterlimit="10" stroke-width=".5" d="M367.5586 478.20313l5.59374 4.2539"/></g><path fill="none" stroke="#000" stroke-linecap="round" stroke-linejoin="round" stroke-miterlimit="10" stroke-width=".5" d="M368.375 478.82031l.19531-1.21094"/><g clip-path="url(#K)"><path fill="none" stroke="#000" stroke-linecap="round" stroke-linejoin="round" stroke-miterlimit="10" stroke-width=".5" d="M380.15625 480.30469l7.02734.04687"/></g><g clip-path="url(#L)"><path fill="none" stroke="#000" stroke-linecap="round" stroke-linejoin="round" stroke-miterlimit="10" stroke-width=".5" d="M381.17969 480.3125l-.5664-1.08984"/></g><g clip-path="url(#M)"><path fill="none" stroke="#000" stroke-linecap="round" stroke-linejoin="round" stroke-miterlimit="10" stroke-width=".5" d="M393.64844 481.42578l6.67578-2.19531"/></g><g clip-path="url(#N)"><path fill="none" stroke="#000" stroke-linecap="round" stroke-linejoin="round" stroke-miterlimit="10" stroke-width=".5" d="M394.6211 481.10547l-.88673-.84766"/></g><g clip-path="url(#O)"><path fill="none" stroke="#000" stroke-linecap="round" stroke-linejoin="round" stroke-miterlimit="10" stroke-width=".5" d="M407.96875 482.95313l4.66797-5.25"/></g><g clip-path="url(#P)"><path fill="none" stroke="#000" stroke-linecap="round" stroke-linejoin="round" stroke-miterlimit="10" stroke-width=".5" d="M427.03906 481.125l-6.84375-1.58984"/></g><g clip-path="url(#Q)"><path fill="none" stroke="#000" stroke-linecap="round" stroke-linejoin="round" stroke-miterlimit="10" stroke-width=".5" d="M426.04297 480.89063l.3164 1.1875"/></g><g clip-path="url(#R)"><path fill="none" stroke="#000" stroke-linecap="round" stroke-linejoin="round" stroke-miterlimit="10" stroke-width=".5" d="M440.23047 479.1211l-6.59766 2.41406"/></g><g clip-path="url(#S)"><path fill="none" stroke="#000" stroke-linecap="round" stroke-linejoin="round" stroke-miterlimit="10" stroke-width=".5" d="M440.23047 479.1211l1.82812 1.63671"/></g><g clip-path="url(#T)"><path fill="none" stroke="#000" stroke-linecap="round" stroke-linejoin="round" stroke-miterlimit="10" stroke-width=".5" d="M452.49219 477.6289L448 483.03126"/></g><path fill="none" stroke="#000" stroke-linecap="round" stroke-linejoin="round" stroke-miterlimit="10" stroke-width=".5" d="M452.49219 477.6289l2.40234.5"/><g clip-path="url(#U)"><path fill="none" stroke="#000" stroke-linecap="round" stroke-linejoin="round" stroke-miterlimit="10" stroke-width=".5" d="M465.96484 477.76563l-4.80468 5.125"/></g><path fill="none" stroke="#000" stroke-linecap="round" stroke-linejoin="round" stroke-miterlimit="10" stroke-width=".5" d="M465.26563 478.51172l1.18359.32031"/><g clip-path="url(#V)"><path fill="none" stroke="#000" stroke-linecap="round" stroke-linejoin="round" stroke-miterlimit="10" stroke-width=".5" d="M147.51172 467.11328l-7.02344-.19922"/></g><path fill="none" stroke="#000" stroke-linecap="round" stroke-linejoin="round" stroke-miterlimit="10" stroke-width=".5" d="M147.51172 467.11328l1.08984 2.19922m-2.11328-2.22656l.54688 1.09765m13.78515-1.42968l-7.00781.51953m7.00781-.51953l1.3086 2.07421m-2.32813-2l.65234 1.03907m13.69141-.8086l-7.02734-.08984m7.02734.08984l1.1211 2.1836m-2.14454-2.19532l.5625 1.08985m13.76172-.79688l-7-.65234m7 .65234l.94531 2.26172m12.3672-2.26172l-6.9961-.65234m6.9961.65234l.94921 2.26172m12.375-2.38672l-7.01562-.40234m7.01562.40234l1.02734 2.23047m12.28907-2.63281l-7.01563.40234m7.01563-.40234l1.27344 2.09766m12.03906-2.13672l-7.01172.48047m5.99219-.41016l.64843 1.03906m13.0547-2.89062l-5.75 4.04297m4.91405-3.45313l1.09375.55469m12.71875-1.55469l-5.0703 4.86328m4.33202-4.15625l1.16406.38281m13.08204-.875l-5.45704 4.4336m4.66407-3.78906l1.1289.48046m12.48828-1.61718l-4.47656 5.41797m3.82813-4.62891l1.19922.2461m13.77734.33984l-6.5 2.66797m5.55469-2.28125l.94531.78515m13.54687-.30078l-6.96484.92578m5.95313-.79297l.71093 1m13.21094-2.36328l-6.15625 3.38672m5.26172-2.89453l1.02734.67187m11.7422-2.57812l-3.27345 6.21484m3.27344-6.21484l2.45313-.01172m9.87109-.33594l-1.29297 6.91016m1.29297-6.91016l2.34375-.73047m9.83203.70704l.98438 6.95703m-.83985-5.94532l.99219-.72265m10.03906.85937l5.26172 4.66016m-4.4961-3.98047l.28907-1.19531m11.58203 1.66797l6.6211 2.35547m-5.65626-2.01172l-.17968-1.21485m13.09765 4.2422l5.48828-4.38673m-4.6914 3.75l-1.125-.48828m19.42578-2.83203l-6.07813 3.52734m17.88672-4.92578l-3.0664 6.32422m2.6211-5.40234l1.22655-.04688m13.10547-.52344l-4.21094 5.6211m3.60157-4.80469l1.21093.1875m13.71094.16016l-6.20703 3.29297m5.30469-2.81641l1.01562.6875"/><g clip-path="url(#W)"><path fill="none" stroke="#000" stroke-linecap="round" stroke-linejoin="round" stroke-miterlimit="10" stroke-width=".5" d="M147.5039 453.45703l-7.0078.48047"/></g><path fill="none" stroke="#000" stroke-linecap="round" stroke-linejoin="round" stroke-miterlimit="10" stroke-width=".5" d="M147.5039 453.45703l1.30079 2.08203m-2.32031-2.01172l.64843 1.04297m13.65625-1.39453l-6.94922 1.04297m6.94922-1.04297l1.46094 1.97266m11.83203-2.11328l-6.90234 1.32812m6.90234-1.32812l1.53906 1.90625m-2.54297-1.71485l.76954.95703m13.60937-.35156l-7.02344-.26562m7.02344.26562l1.07031 2.20703m-2.09375-2.2461l.53516 1.10157m13.78906-.875l-6.9961-.64062m6.9961.64062l.94922 2.26172m-1.96484-2.35547l.47265 1.13281m13.82032-1.96484l-6.92188 1.20703m6.92188-1.20703l1.5078 1.9375m-2.51171-1.76172l.75.96875m13.38672-1.80469l-6.55469 2.53125m6.55469-2.53125l1.85547 1.60547m-2.8086-1.23828l.92578.80469m13.17579-1.53906l-6.22266 3.26172m6.22266-3.26172l2.02734 1.38672m11.28125-1.39844l-6.21094 3.28515m6.21094-3.28515l2.03125 1.3789m10.89063-1.96875l-5.42188 4.46875m5.42188-4.46875l2.26562.94141m10.72656-1.28516l-4.77344 5.15625m4.77344-5.15625l2.3711.625m10.61328-.89453l-4.11328 5.69532m4.11328-5.69532l2.42969.33203m10.34765-.65234l-3.04297 6.33594m3.04297-6.33594l2.45313-.10156m11.8789.83594l-5.07422 4.86328m5.07422-4.86328l2.32813.76562m11.21094-.5039l-5.52344 4.34374m5.52344-4.34375l2.24609.9922m-3.04688-.35938l1.1211.49609m12.65625-1.5039l-4.84375 5.08984m4.84375-5.08985l2.36328.66016m-3.07031.08203l1.18359.32813m12.30078-1.48828l-3.76953 5.92968m3.76953-5.92968l2.44531.1875m-2.99609.67187l1.22656.09766m11.76172-1.35938l-2.01172 6.73438m2.01172-6.73438l2.40235-.48437m-2.69532 1.46484l1.20313-.24219m9.73828-.46875l3.32031 6.19532m-3.32031-6.19532l1.36328-2.03906m10.77344 3.0625l5.67578 4.14844m-5.67578-4.14844l.34765-2.42969m.48047 3.03516l.17188-1.21484m12.9961-.08985l4.3125 5.54688m-4.3125-5.54688l1.0039-2.23828m15.55469 1.67188l-2.17579 6.67968m1.85938-5.71093l1.20703-.21094m11.5664-.92578l-.45702 7.01172m.45703-7.01172l2.23828-1.00782m9.91015 1.12891l1.87891 6.77344m-1.60547-5.78906l.88672-.84375m13.67188-.21875l-1.15625 6.92968m.98828-5.92187l1.16406-.39063"/><g clip-path="url(#X)"><path fill="none" stroke="#000" stroke-linecap="round" stroke-linejoin="round" stroke-miterlimit="10" stroke-width=".5" d="M147.46484 440.96484l-6.92968-1.16015"/></g><path fill="none" stroke="#000" stroke-linecap="round" stroke-linejoin="round" stroke-miterlimit="10" stroke-width=".5" d="M147.46484 440.96484l.77735 2.32422m-1.78516-2.4961l.39063 1.16407m13.95703-1.17969l-6.98047-.78906m6.98047.78906l.90234 2.28125m12.4375-2.66406l-7.02734-.01953m7.02734.01953l1.14453 2.16797m-2.16797-2.17188l.57422 1.08594m13.75781-1.25781l-7.01953.32813m7.01953-.32813l1.25391 2.11328m-2.27344-2.0625l.625 1.05469m13.57032-1.9414l-6.73828 2m6.73828-2l1.71875 1.75m-2.69922-1.45704l.85937.8711m13.30469-1.52344l-6.47656 2.72265m6.47656-2.72265l1.90234 1.55078m-2.84375-1.15625l.95313.77734m12.9375-1.83594l-5.74219 4.04688m5.74219-4.04688l2.1914 1.10547m-3.02734-.51562l1.09375.55469m12.84375-1.41797l-5.3164 4.59375m5.3164-4.59375l2.28906.88672m-3.0625-.21875l1.14453.4414m13.05079-.98047l-5.52735 4.33985m5.52735-4.33985l2.24218.9922m-3.04687-.36329l1.1211.5m12.78905-1.3711l-5.10937 4.82032m5.10938-4.82031l2.32421.78515m11.15235-.60156l-5.4336 4.45703m5.4336-4.45703l2.26562.94531m10.7461-1.27344l-4.82422 5.10938m4.82422-5.10938l2.36328.64844m10.41797-1.0625l-3.75782 5.9375m3.75782-5.9375l2.4453.1836m-2.99218.67968l1.22266.09375m13.42578-.27734l-5.33203 4.57813m5.33203-4.57813l2.28515.89453m-3.0625-.22656l1.14454.44531m13.0078-1.04297l-5.44921 4.4375m5.44922-4.4375l2.26172.95313m-3.05469-.3086l2.26172.95313m11.6914-1.77344l-5.14453 4.78906m5.14453-4.78906l2.32032.80078m-3.0664-.10156l2.3164.80078m11.33984-1.8711l-4.33203 5.53126m4.33203-5.53125l2.41797.42969m-3.04688.375l1.20704.21484m12.10546-1.41406l-3.0703 6.3203m3.0703-6.3203l2.45313-.08985m-2.89844 1.01172l2.45313-.08984m10.61718-1.08203l-1.6875 6.8203m1.6875-6.8203l2.37891-.59766m-2.625 1.58984l1.1914-.29687m11.13673-.77735l.77734 6.98438m-.77734-6.98438l2.02343-1.3828m11.70313 1.36327l-.04688 7.02735m.04688-7.02735l2.17578-1.13672m13.82422 2.41016l-5.41406 4.48047m5.41406-4.48047l2.26953.9336m-3.0586-.28125l1.13282.46484m11.76172-2.0586l-2.9961 6.35938m2.9961-6.35938l2.44922-.11718m-2.88672 1.04297l2.45312-.1172m11.32422-.79296l-3.04687 6.33203m3.04687-6.33203l2.45313-.09766m-2.89454 1.01953l2.45313-.09765m12.5664.19922l-5.5703 4.28125"/><g clip-path="url(#Y)"><path fill="none" stroke="#000" stroke-linecap="round" stroke-linejoin="round" stroke-miterlimit="10" stroke-width=".5" d="M466.34766 438.24219l2.23437 1.01562"/></g><g clip-path="url(#Z)"><path fill="none" stroke="#000" stroke-linecap="round" stroke-linejoin="round" stroke-miterlimit="10" stroke-width=".5" d="M147.28906 428.30469l-6.57812-2.47266"/></g><path fill="none" stroke="#000" stroke-linecap="round" stroke-linejoin="round" stroke-miterlimit="10" stroke-width=".5" d="M147.28906 428.30469l.3164 2.4336m12.9922-2.41407l-6.5625-2.51172m6.5625 2.51172l.30078 2.4336m13.16015-2.92188l-6.85547-1.53516m6.85547 1.53516l.65235 2.36718m12.74219-3.33203l-7.01563.39453m7.01563-.39453l1.26953 2.10157m-2.28907-2.04297l.63282 1.05078m13.625-1.66016l-6.86328 1.4961m6.86328-1.4961l1.58984 1.8711m-2.58594-1.65235l.79297.9336m13.4375-1.46094l-6.69922 2.11328m6.69922-2.11328l1.75 1.71875m-2.72656-1.41406l.8789.85937m13.3125-1.4414l-6.5 2.66796m6.5-2.66797l1.88672 1.56641m-2.83203-1.17969l.94531.78516m13.01563-1.7461l-5.89844 3.81641m5.89844-3.8164l2.14453 1.1914m-3.0039-.63672l1.0703.59766m13.10938-1.14063l-5.91406 3.79297m5.91406-3.79297l2.14063 1.19922m-3-.64843l1.07031.60156m13.0586-1.22656l-5.82032 3.9414m5.82031-3.9414l2.16797 1.14843m-3.01562-.57422l2.16797 1.14844m11.6328-2.17187l-5.09765 4.83984m5.09766-4.83984l2.32812.77734m-3.0703-.07422l1.16405.39063m12.02735-1.75782l-3.36328 6.16797m3.36328-6.16797l2.45312.02735m11.17969.16797l-4 5.77734m4-5.77734l2.4375.28515m11.66406.46485l-5.57422 4.27734m5.57422-4.27734l2.23438 1.01953m-3.04297-.39453l1.11328.50781m13.21875-.83203l-5.98828 3.67578m5.98828-3.67578l2.11328 1.24219m-2.98437-.70704l1.05468.6211m13.01172-1.33594l-5.75 4.03516m5.75-4.03516l2.1875 1.10938m-3.02344-.52344l1.09375.55469m13.34375-.65235l-6.32421 3.0586m6.32421-3.0586l1.98047 1.44922m-2.89843-1.0039l.98828.72265m12.96093-1.65234l-5.7578 4.02734m5.7578-4.02734l2.1875 1.11718m-3.02343-.53125l1.09375.5586m12.875-1.38281l-5.39063 4.5039m5.39063-4.5039l2.27343.92187m-3.05859-.26562l2.27344.92187m-3.0586-.26953l1.13672.46484m14.07032-1.3203l-6.03516 3.59765m6.03516-3.59766l2.09765 1.27344m-2.97656-.75l2.10156 1.27344m11.85156-2.14844l-5.55468 4.30078m5.55468-4.30078l2.23829 1.00781m-3.04688-.38281l2.23828 1.00781m11.08985-2.38281l-3.96485 5.80078m3.96485-5.80078l2.4375.26953m-3.01172.57422l2.4375.26953m-3.01563.57422l1.21875.13672m13.1836-1.86719l-3.83204 5.88672m3.83204-5.88672l2.4453.21484m-3.0039.64063l2.44531.21875m-3 .63672l1.21875.10937M452.5 424.3711l-4.50781 5.39453M452.5 424.3711l2.39844.50391m-3.05469.28125l2.40234.5039m-3.05859.28126l1.20312.2539m14.4961-.26562l-6.64844 2.27734"/><g clip-path="url(#aa)"><path fill="none" stroke="#000" stroke-linecap="round" stroke-linejoin="round" stroke-miterlimit="10" stroke-width=".5" d="M466.88672 425.92969l1.78906 1.67578"/></g><path fill="none" stroke="#000" stroke-linecap="round" stroke-linejoin="round" stroke-miterlimit="10" stroke-width=".5" d="M465.91797 426.26172l1.79297 1.67578m-2.75781-1.34375l.89453.83594"/><g clip-path="url(#ab)"><path fill="none" stroke="#000" stroke-linecap="round" stroke-linejoin="round" stroke-miterlimit="10" stroke-width=".5" d="M147.48828 414.1836l-6.97656-.85938"/></g><path fill="none" stroke="#000" stroke-linecap="round" stroke-linejoin="round" stroke-miterlimit="10" stroke-width=".5" d="M147.48828 414.1836l.8789 2.28906m12.45313-2.4961l-7.01172-.44922m7.01172.44922l1.01172 2.23828m-2.03125-2.30078l.50781 1.11719m13.7461-.48828l-6.84766-1.57813m6.84766 1.57813l.63672 2.36719m-1.63282-2.59766l.31641 1.1836m14.05469-1.27735l-6.96875-.92969m6.96875.92969l.85156 2.30078m-1.86719-2.4375l.42578 1.15235m13.9336-1.58985l-7.02344.21875m7.02344-.21875l1.21875 2.1289m11.91406-3.13671l-6.66406 2.23047m6.66406-2.23047l1.78125 1.6914m11.09766-2.5664l-5.78907 3.98437m5.78907-3.98437l2.17578 1.13281m11.17578-1.07422l-5.86328 3.86719m5.86328-3.86719l2.15625 1.17188m11.15234-1.1836l-5.85156 3.89063m5.85156-3.89063l2.16016 1.16407m11.47656-.5586l-6.4961 2.67969m6.4961-2.67969l1.89453 1.5625m11.375-1.67187l-6.40234 2.89844m6.40234-2.89844l1.9414 1.5m10.78517-2.40235l-5.22657 4.69922m5.22657-4.69922l2.30468.84375m10.22266-1.49609l-3.64844 6.00781m3.11719-5.13281l1.22656.07031m13.92578.46485l-6.26172 3.1875m5.35157-2.72266l1.0039.70313m13.20703-1.19532l-6.23437 3.24219m6.23437-3.24219l2.02344 1.39063m10.91406-1.96875l-5.48046 4.39844m4.68359-3.75782l1.1289.48438m13.59766 2.1211l-6.70703-2.09376m6.70703 2.09375l.45313 2.41406m13.01172-3.71093l-7.00782.5m7.00782-.5l1.30468 2.07812m-2.32422-2.0039l.65235 1.03906m13.34375-2.39063l-6.32813 3.05469m6.32813-3.05469l1.98047 1.44922m-2.90235-1.0039l1.98047 1.44921m12.3086-1.77734l-6.4336 2.82031m6.4336-2.82031l1.92578 1.51953m-2.85938-1.10937l1.92188 1.51953m12.01953-2.48828l-5.82031 3.9375m5.8203-3.9375l2.16798 1.14843m-3.01563-.57421l2.16797 1.14843m-3.01172-.57812l1.08203.57422m13.6289-2.09766L421 416.09765m5.23047-4.6914l2.30469.84375m-3.0625-.16016l2.30078.84375m12.0586-1.16015l-5.8047 3.96094m5.8047-3.96094l2.17577 1.14062m-3.01953-.5664l2.17188 1.14062m12.125-1.5039l-6.07422 3.53515m6.07422-3.53515l2.08203 1.29296m-2.96875-.77734l2.08594 1.29297m-2.96875-.77735l1.04296.64454m14.30079-1.1172l-6.59766 2.42188"/><g clip-path="url(#ac)"><path fill="none" stroke="#000" stroke-linecap="round" stroke-linejoin="round" stroke-miterlimit="10" stroke-width=".5" d="M466.85938 412.54297l1.82812 1.63672"/></g><path fill="none" stroke="#000" stroke-linecap="round" stroke-linejoin="round" stroke-miterlimit="10" stroke-width=".5" d="M465.90234 412.89453l1.82422 1.64063"/><g clip-path="url(#ad)"><path fill="none" stroke="#000" stroke-linecap="round" stroke-linejoin="round" stroke-miterlimit="10" stroke-width=".5" d="M147.5 400.75781l-7-.64062"/></g><path fill="none" stroke="#000" stroke-linecap="round" stroke-linejoin="round" stroke-miterlimit="10" stroke-width=".5" d="M147.5 400.75781l.94922 2.26172m12.3789-2.69531l-7.02343.22656m7.02344-.22656l1.21875 2.1289m-2.2422-2.09375l.60938 1.0625m13.67188-1.62109l-6.91016 1.27344m6.91016-1.27344l1.52344 1.92188m-2.53125-1.73438l.76562.96094m13.375-1.78516l-6.54688 2.54688m6.54688-2.54688l1.85938 1.60156m11.6953-.20703l-7.02343-.23828m7.02344.23828l1.07422 2.20313m12.21093-2.78516l-6.96484.92578m6.96484-.92578l1.42578 1.99219m-2.4414-1.85938l.71484.9961m13.5625-1.42188l-6.85937 1.51172m6.85937-1.51172l1.59375 1.8672m-2.58984-1.64845l1.58984 1.8672m12.77735-1.77735l-6.97266.89062m6.97266-.89062l1.41797 2.0039m-2.4336-1.875l1.41797 2.00391m12.92969-1.98047l-7.0039.58985m7.0039-.58985l1.32812 2.0625m-2.34765-1.97656l.66406 1.03125m13.60547-1.55078l-6.875 1.45312m6.875-1.45312l1.57422 1.88281m11.78515-1.63672l-6.96093.96485m5.9453-.82422l.71876.99218m13.61719-1.0703l-6.97657.83593m5.96094-.71485l.70313 1.00782m13.65234-.58594l-7.02344-.25m7.02344.25l1.07422 2.20703m11.96484-.96875l-6.47265-2.72656m6.47265 2.72656l.22266 2.44531m13.36719-3.69921l-7.02344-.21875m6.0039.1875l.53907 1.10156m13.65625-2.16797l-6.7422 1.97656m5.76173-1.6875l.85547.8789m11.42187 3.0625l-2.70703-6.48437M358 402.73828l-.77734.94922m16.34375-1.82422l-6.42188-2.85156m5.48828 2.4375l.08594 1.22265m13.79297-4.30468l-5.67969 4.14062m5.67969-4.14062l2.20703 1.07422m-3.03516-.46875l1.10547.53515m13.70703 1.1211l-7.01953-.38282m7.01953.38282l1.03125 2.22656m-2.05468-2.28125l.51562 1.11328m13.76953-.60938l-6.91015-1.28125m6.91015 1.28125l.73438 2.34375m12.45312-4.11328l-6.65625 2.25782m6.65625-2.25782l1.78516 1.6797m-2.7539-1.35157l.89062.83984m13.33594-1.3164l-6.54297 2.55468m6.54297-2.55468l1.86328 1.59765m-2.8125-1.22656l.92968.80078m13.45313-.8125l-6.78125 1.83594m6.78125-1.83594l1.67969 1.78906m-2.66407-1.52343l1.67579 1.79296m12.65625-1.9375l-6.84375 1.59375"/><g clip-path="url(#ae)"><path fill="none" stroke="#000" stroke-linecap="round" stroke-linejoin="round" stroke-miterlimit="10" stroke-width=".5" d="M466.98438 399.64063l1.61328 1.85156"/></g><path fill="none" stroke="#000" stroke-linecap="round" stroke-linejoin="round" stroke-miterlimit="10" stroke-width=".5" d="M465.98828 399.875l1.61328 1.84766"/><g clip-path="url(#af)"><path fill="none" stroke="#000" stroke-linecap="round" stroke-linejoin="round" stroke-miterlimit="10" stroke-width=".5" d="M147.47656 386.61328l-6.95312 1.01953"/></g><path fill="none" stroke="#000" stroke-linecap="round" stroke-linejoin="round" stroke-miterlimit="10" stroke-width=".5" d="M147.47656 386.61328l1.45313 1.97266m-2.46485-1.82422l.72657.98828m13.5703-1.3086l-6.89452 1.36329m6.89453-1.36328l1.55078 1.90234m-2.55469-1.70313l.77735.94922m12.91406-2.5625l-5.64063 4.19141m5.64063-4.1914l2.21875 1.05077m-3.03906-.4414l1.10937.52734m12.36328-1.8164l-4.3125 5.55078m4.3125-5.55078l2.41797.42187m-3.04687.38672l1.21093.21094m13.79297 3.17187l-6.42969-2.83203m5.4922 2.42188l.08984 1.22265m14.41015-1.64453l-6.92969-1.16797m6.9297 1.16797l.77734 2.32813m-1.78516-2.4961l.38672 1.16406m13.98437-1.6289l-7.02343.09765m7.02343-.09765l1.1836 2.15234m12.08203-2.69531l-6.92578 1.1836m6.92578-1.1836l1.5 1.9414m-2.50781-1.76952l.75.97265m13.49609-1.4961l-6.76953 1.88673m6.76953-1.88672l1.6914 1.78125m11.37891-2.41016l-6.28515 3.14453m6.28515-3.14453l2 1.42188m11.23438-1.57422l-6.1211 3.44922m6.1211-3.44922l2.0664 1.32422m11.6875.09765l-7 .60547m7-.60547l1.33594 2.0586m11.98828-1.5547l-7.01562-.39843m5.9961.33985l.51171 1.11328m13.8086-.89063l-6.98829-.72656m5.97266.61719l.46094 1.14062m13.86718-1.00781l-6.98437-.77735m5.96875.66407l.45312 1.14062m13.05079.875l-5.32813-4.58203m4.55078 3.91406l-.26953 1.19922m15.08984-1.90234l-6.78515-1.83985m5.79687 1.57422l.27344 1.19532m14.1211-2.3086l-6.96876.92188m6.96875-.92188l1.42579 1.9961m-2.44141-1.86329l1.42578 1.9961m12.8125-2.58594l-6.78125 1.83203m6.78125-1.83203l1.67969 1.78906m-2.66797-1.52343l.83984.89453m13.5664-.59766l-6.98827.70703m6.98828-.70703l1.36719 2.03906m11.93359-2.15625l-6.96094.94141m6.96094-.9414l1.4336 1.99218m11.91015-1.6836l-7.01953.32423m7.01953-.32422l1.2539 2.10937m12.0625-1.82812l-7.01952-.23828m7.01953.23828l1.07812 2.20703m-2.09765-2.24219l.53906 1.10156m13.79687-1.07812l-7.02343-.21485m7.02343.21485l1.08594 2.20312m-2.10547-2.23437l.53906 1.10156m13.77735-1.55469l-6.98438.75391"/><g clip-path="url(#ag)"><path fill="none" stroke="#000" stroke-linecap="round" stroke-linejoin="round" stroke-miterlimit="10" stroke-width=".5" d="M467.05469 386.7461l1.3789 2.02734"/></g><path fill="none" stroke="#000" stroke-linecap="round" stroke-linejoin="round" stroke-miterlimit="10" stroke-width=".5" d="M466.03906 386.85547l1.3789 2.03125"/><g clip-path="url(#ah)"><path fill="none" stroke="#000" stroke-linecap="round" stroke-linejoin="round" stroke-miterlimit="10" stroke-width=".5" d="M147.2461 372.46094l-6.4922 2.69531"/></g><path fill="none" stroke="#000" stroke-linecap="round" stroke-linejoin="round" stroke-miterlimit="10" stroke-width=".5" d="M147.2461 372.46094l1.89452 1.5586m-2.83984-1.16798l1.89453 1.5586m12.54688-1.375l-6.85547 1.54687m6.85547-1.54687l1.60156 1.85937m-2.59766-1.63672l.80078.92969m13.27735-1.83984l-6.39063 2.92187m6.39063-2.92187l1.94922 1.49218m-2.8789-1.0664l.97655.7461m13.45703-.65626l-6.76562 1.89063m6.76563-1.89063l1.6914 1.77735m-2.67578-1.50391l1.6914 1.77734m12.67188-.42578l-6.89453-1.35937m6.89453 1.35937l.71094 2.34766m-1.71484-2.54688l.71093 2.35156m13.66406-2.5703l-7.0078-.52344m7.0078.52343l.98829 2.2461m-2.00782-2.32032l.4961 1.1211m13.84375-1.125l-7.01563-.36719m7.01563.36719l1.03906 2.22265m-2.0586-2.27734l.51954 1.11328m13.82031-1.17187l-7.02734-.14063m7.02734.14063l1.10938 2.1875m-2.13282-2.20704l.55469 1.09375m13.71875-1.82421l-6.89453 1.35937m6.89453-1.35937l1.54688 1.90234m-2.55079-1.70313l.77344.94922m13.29297-1.92968l-6.39063 2.92187m6.39063-2.92187l1.94922 1.49218m11.23828-1.74609l-6.13672 3.42578m6.13672-3.42578l2.0625 1.33203m11.58203-.51953l-6.79297 1.80469m6.79297-1.80469l1.66797 1.80078m-2.65625-1.53906l.83203.90234m13.5-1.03906l-6.85156 1.55078m6.85156-1.55078l1.60156 1.85938m-2.59765-1.63282l.80078.92969m13.58594-.67969l-7.00391.60156m7.0039-.60156l1.33204 2.0586m11.98437-2.02344l-7.00781.53125m7.00781-.53125l1.3125 2.07422m11.98438-1.35938l-6.96875-.89844m6.96875.89844l.86719 2.29297m12.3828-1.94531l-6.83984-1.59375m6.83985 1.59375l.63281 2.3711m-1.625-2.60157l.3125 1.1836m14.07031-1.39063l-6.99219-.71875m6.9922.71875l.92577 2.26953m-1.9414-2.375l.92187 2.27344m13.41016-2.8789l-6.99219.69921m6.99219-.69922l1.35937 2.04297m-2.3789-1.9414l.6836 1.02343m13.64062-1.21094l-6.97266.8711m6.97266-.8711l1.41015 2.00782M399.45703 373.5l.70703 1.0039m13.61719-1.1875l-6.96094.98048m6.96094-.98047l1.4414 1.98437m11.90626-1.51172l-7.02735.03906m7.02735-.03906l1.16406 2.16016m12.14453-2.39453l-7.01172.5039m7.01172-.5039l1.30078 2.08203m12.01953-1.73828l-7.02344-.1836m7.02344.1836l1.09766 2.19531m12.21875-2.19922l-7.02344-.17187"/><g clip-path="url(#ai)"><path fill="none" stroke="#000" stroke-linecap="round" stroke-linejoin="round" stroke-miterlimit="10" stroke-width=".5" d="M467.07422 373.89453l1.09765 2.19531"/></g><path fill="none" stroke="#000" stroke-linecap="round" stroke-linejoin="round" stroke-miterlimit="10" stroke-width=".5" d="M466.05078 373.8711l.55078 1.09374"/><g clip-path="url(#aj)"><path fill="none" stroke="#000" stroke-linecap="round" stroke-linejoin="round" stroke-miterlimit="10" stroke-width=".5" d="M146.91406 358.52734l-5.82812 3.9297"/></g><path fill="none" stroke="#000" stroke-linecap="round" stroke-linejoin="round" stroke-miterlimit="10" stroke-width=".5" d="M146.91406 358.52734l2.16406 1.15235m-3.01171-.57813l1.08203.57422m13.50781-.26562l-6.6836 2.16406m6.6836-2.16406l1.76563 1.70703m11.6914-.17578l-6.96875-.89454m6.96875.89454l.8711 2.29296m12.47265-2.66796l-7.02344-.14454m7.02344.14454l1.10938 2.1875m12.01172-1.10938l-6.63672-2.30469m6.63672 2.3047l.3789 2.42577m-1.34375-2.76172l.1875 1.21485m14.13672-1.01563l-6.72656-2.03125m6.72656 2.03125l.47656 2.40625m-1.45312-2.69922l.23828 1.20313m14.17187-1.4375l-6.96093-.97656m6.96093.97656l.83985 2.30469m-1.85156-2.44532l.41796 1.15235m13.9375-1.35156l-7.01953-.29297m7.01953.29296l1.0625 2.21094m-2.08203-2.2539l.53125 1.10546m13.79297-1.54296l-6.9961.66406m6.9961-.66406l1.35156 2.04687M253 360.25781l.67578 1.02344m13.32031-2.32422l-6.3203 3.07031m6.3203-3.0703l1.98438 1.4453m-2.90235-.99609l.98829.72266m13.4375-.6836l-6.70703 2.09766m6.70703-2.09766l1.74609 1.72266m-2.72266-1.41797l.875.86328m13.5625-.4375l-7 .63672m7-.63672l1.34375 2.05078m-2.36328-1.95703l.67188 1.02344m13.66015-1.15625l-6.99218.71484m6.99218-.71484l1.3672 2.03515m-2.38673-1.93359l.6836 1.01953m13.54296-1.6875l-6.77734 1.84375m6.77734-1.84375l1.6836 1.78906M319.5 359.83985l.83984.89454m13.58203-.3672l-7.02343.25m7.02343-.25l1.22657 2.125m-2.2461-2.08593l.61328 1.0625m13.6211-.1289l-6.82031-1.69141m6.8203 1.6914l.59766 2.37891m-1.58984-2.625l.29688 1.1875m14.03125-1.03906l-6.86329-1.5m6.86329 1.5l.66406 2.36328m-1.66016-2.57813l.66016 2.35938m13.72656-2.71485l-7.01562-.35937m7.01562.35938l1.03906 2.22656m-2.05859-2.27735l1.03906 2.22266m13.1914-3.23047l-6.80468 1.75781m6.80469-1.7578l1.65625 1.8125m-2.64844-1.5547l1.66016 1.8086m12.57031-2.3164l-6.65234 2.2578m6.65234-2.2578l1.78906 1.68358m-2.75781-1.35546l1.78906 1.68359m12.60547-1.60547l-6.875 1.44531m6.875-1.4453l1.57422 1.8828m-2.57422-1.67187l.78906.9414m13.57422-.85937l-6.97265.86328m6.97265-.86328l1.41016 2.00781m-2.42188-1.88281l.70313 1.0039m13.60156-1.29687l-6.92578 1.19922m6.92578-1.19922l1.5039 1.9375m-2.51171-1.76172l.75.96875m13.625-.57031l-7.02735.05078m7.02735-.05078l1.16797 2.15625m12.1289-1.8086l-6.99609-.64843"/><g clip-path="url(#ak)"><path fill="none" stroke="#000" stroke-linecap="round" stroke-linejoin="round" stroke-miterlimit="10" stroke-width=".5" d="M467.0586 360.8164l.94921 2.26563"/></g><g clip-path="url(#al)"><path fill="none" stroke="#000" stroke-linecap="round" stroke-linejoin="round" stroke-miterlimit="10" stroke-width=".5" d="M146.2461 344.47656l-4.4922 5.40625"/></g><path fill="none" stroke="#000" stroke-linecap="round" stroke-linejoin="round" stroke-miterlimit="10" stroke-width=".5" d="M146.2461 344.47656l2.40234.4961m12.17578 2.0039l-7.01563.40235m7.01563-.40235l1.27344 2.09766m11.98047-1.22266l-6.89454-1.34765m6.89453 1.34765l.71485 2.34766m12.60937-2.39063l-6.91406-1.26171m6.91406 1.26171l.7461 2.33594m12.25781-1.40234l-6.29297-3.1289m6.29297 3.1289l.0664 2.45312m13.30079-2.5586l-6.39453-2.91796m6.39453 2.91797l.14844 2.44922m-1.08204-2.875l.07813 1.22656m14.33594-1.24219l-6.72657-2.03515m6.72657 2.03515l.47265 2.40625m-1.45312-2.70312l.23828 1.20312m14.1211-1.14062l-6.85157-1.5664m6.85156 1.5664l.64063 2.36719m12.75781-3.29297l-7.01953.28515m7.01953-.28515l1.23828 2.12109m-2.26172-2.07813l.6211 1.0586m13.44922-2.3125l-6.48438 2.70703m6.48438-2.70703l1.89843 1.55469m-2.84375-1.16016l.94922.77734m13.27344-1.2578l-6.41016 2.8789m6.41016-2.8789l1.9375 1.5078m-2.8711-1.08984l.96876.7539m13.55078-.23827l-6.95313 1.01171m6.95313-1.01171l1.45312 1.97656m-2.46484-1.83203l.72656.99218m13.625-.30859l-7-.64453m7 .64453l.94531 2.26563m-1.96484-2.35938l.47266 1.13281m13.84765-1.79687l-6.97265.8711m6.97265-.8711l1.41016 2.00781m-2.42578-1.88281l1.41406 2.00781m12.92187-1.30469l-6.98437-.78515m6.98437.78515l.90235 2.28125m-1.91797-2.39453l.44922 1.14063m13.85156-.8086l-6.92187-1.21875m6.92187 1.21875l.75781 2.33203m-1.76562-2.51171l.3789 1.16796m13.90625-.80468l-6.84765-1.58985m6.84765 1.58985l.63282 2.37109m-1.62891-2.60156l.63281 2.3711m-1.6289-2.60157l.3164 1.1836m15.07422-1.32813l-7.01562-.3789m7.01562.3789l1.03516 2.22265m-2.05469-2.27734l1.03516 2.22266m-2.0547-2.27735l1.03126 2.22266m14.16406-3.36328l-6.69922 2.1211m6.69922-2.1211l1.7539 1.71484m-2.72655-1.40625l1.75 1.71485m-2.72657-1.40625l1.7539 1.71875m13.45313-2.50391l-6.58203 2.45703m6.58203-2.45703l1.83594 1.625m-2.79297-1.26953l1.83594 1.6289m-2.79297-1.26953l.91797.8125m14.42969-1.15234l-6.8164 1.70703m6.8164-1.70703l1.64062 1.82422m-2.63281-1.57422l1.64063 1.82031m-2.63282-1.57422l1.64453 1.82422m13.6875-2.17578l-6.8828 1.42188m6.8828-1.42188l1.56641 1.88672m-2.57031-1.6836l1.5664 1.89063m-2.5664-1.6836l.78515.94532m14.58594-1.03125l-6.98828.76953m6.98828-.76953l1.3789 2.03125m-2.39843-1.91797l1.38281 2.02734m12.94922-2.16406l-6.98047.8164m6.98047-.8164l1.39453 2.01953m-2.41015-1.89844l1.39453 2.01563m12.91797-2.2539l-6.94922 1.05077"/><g clip-path="url(#am)"><path fill="none" stroke="#000" stroke-linecap="round" stroke-linejoin="round" stroke-miterlimit="10" stroke-width=".5" d="M467.03516 346.65234L468.5 348.625"/></g><path fill="none" stroke="#000" stroke-linecap="round" stroke-linejoin="round" stroke-miterlimit="10" stroke-width=".5" d="M466.02344 346.80469l1.46484 1.97265"/><g clip-path="url(#an)"><path fill="none" stroke="#000" stroke-linecap="round" stroke-linejoin="round" stroke-miterlimit="10" stroke-width=".5" d="M147.44531 333.16797l-6.89062 1.39062"/></g><path fill="none" stroke="#000" stroke-linecap="round" stroke-linejoin="round" stroke-miterlimit="10" stroke-width=".5" d="M147.44531 333.16797l1.5586 1.89453m11.82422-1.15234l-7.02735-.09375m7.02734.09375l1.125 2.17968m12.1875-2.1289l-7.02343-.19531m7.02344.1953l1.09375 2.19923m12.21875-2.06641l-7.01563-.46094m7.01563.46094l1.0078 2.23438M200.625 334.875l-6.73047-2.02344m6.73047 2.02344l.48047 2.40625m12.78906-2.26172l-6.63672-2.3125m6.63672 2.3125l.375 2.42188m-1.33984-2.75782l.1875 1.21094m14.27734-1.79687l-7.01172-.46875m7.01172.46875l1.00781 2.23828m-2.02734-2.3086l.5039 1.1211m13.8125-1.72656l-6.97265.8828m6.97266-.8828l1.41406 2.0039m-2.42969-1.875l.70703 1m13.57813-1.39453l-6.88281 1.41406m6.8828-1.41406l1.56641 1.89063m-2.5664-1.6836l.78125.94531m13.48047-1.3789l-6.77344 1.86719m6.77344-1.8672l1.6875 1.78126m-2.67188-1.50781l.84375.89062m13-2.16797l-5.86328 3.875m5.86328-3.875l2.15625 1.17188m11.3086-.92579l-6.16016 3.37891m6.16015-3.3789l2.05079 1.34765m11.32812 1.90625l-6.29297-3.125m6.29297 3.125l.07031 2.45313m-.98437-2.90625l.03515 1.22656m14.46094-1.5l-6.82422-1.67188m6.82422 1.67188l.60156 2.3789m-1.59375-2.62109l.60157 2.3789m13.8086-2.97265h-7.02735m7.02734 0l1.15235 2.16797m-2.17579-2.16797l1.15235 2.16797m13.17187-2.47266l-7 .60938m7-.60938l1.33594 2.0547m-2.35547-1.96876l.66797 1.03125m13.65234-.38672l-6.97265-.85547m6.97265.85547l.87891 2.29297m-1.89063-2.41406l.4375 1.14453m13.89063-1.01172l-6.97266-.875m6.97266.875l.875 2.28906m-1.89063-2.41796l.875 2.29296m13.44532-3.09765l-6.95703.99219m6.95703-.9922l1.44922 1.98048m-2.46094-1.83594l1.44922 1.98047m12.83594-2.35938l-6.8711 1.46094m6.8711-1.46094L402 335.01562m-2.57813-1.66796l.78907.9375m13.49219-1.3086l-6.80079 1.76953m6.80079-1.76953l1.66015 1.8086m-2.65234-1.55079l.83203.90625m13.33984-1.5664l-6.53515 2.57812m6.53515-2.57812l1.86719 1.58984m-2.8164-1.21484l1.86718 1.58984m12.35938-2.0586l-6.45704 2.76563m6.45704-2.76562l1.91406 1.53515m-2.85156-1.1328l1.91015 1.53515m-2.85156-1.13281l.95703.76953m14.375-1.20313l-6.73047 2.02344m6.73047-2.02344l1.72656 1.74219m-2.70703-1.44922l1.72656 1.7461m-2.70703-1.44922l.86329.87109m14.32421-1.71484l-6.55468 2.53125"/><g clip-path="url(#ao)"><path fill="none" stroke="#000" stroke-linecap="round" stroke-linejoin="round" stroke-miterlimit="10" stroke-width=".5" d="M466.83984 332.59766l1.85547 1.60937"/></g><path fill="none" stroke="#000" stroke-linecap="round" stroke-linejoin="round" stroke-miterlimit="10" stroke-width=".5" d="M465.88672 332.96484l1.85547 1.60938m-2.8086-1.23828l.92579.80078"/><g clip-path="url(#ap)"><path fill="none" stroke="#000" stroke-linecap="round" stroke-linejoin="round" stroke-miterlimit="10" stroke-width=".5" d="M147.51172 320.61328l-7.02344-.1289"/></g><path fill="none" stroke="#000" stroke-linecap="round" stroke-linejoin="round" stroke-miterlimit="10" stroke-width=".5" d="M147.51172 320.61328l1.11328 2.1875m-2.13281-2.20703l.55469 1.09375m13.78125-1.1211l-7.02735-.03906m7.02734.03907l1.14063 2.17187m-2.16406-2.17578l1.14062 2.17188m13.19531-2.00782l-7.01953-.35937m7.01953.35937l1.03907 2.22266m-2.0625-2.27344l.51953 1.11328m13.8125-.97265l-7.00781-.53516m7.0078.53516l.98048 2.25m-2-2.32813l.49219 1.125m13.79687-.69922l-6.91797-1.23437m6.91797 1.23437l.7539 2.33594m-1.76171-2.51563l.7539 2.33594m13.625-2.82031l-7.02734.09766m7.02734-.09766l1.1797 2.14844m-2.20313-2.13672l1.18359 2.15234m-2.20703-2.13672l.59375 1.07422m14.6875-1.80469l-6.86719 1.5m6.86719-1.5l1.58594 1.8711m-2.58594-1.65235l1.58984 1.8711m12.6211-2.46094l-6.66016 2.2461m6.66016-2.2461l1.78515 1.6836m-2.7539-1.35938l1.78515 1.6836m12.53906-1.875l-6.74218 1.98046m6.74219-1.98047l1.71875 1.75391m-2.69922-1.46875l.85937.8789m13.46484-1.05859l-6.80078 1.76953m6.80078-1.76953l1.66016 1.80469m-2.64844-1.54688l.83204.90235m13.51171-.98828l-6.8789 1.42578m6.8789-1.42578l1.57032 1.88672m11.51562-2.60547l-6.41797 2.85937m6.41797-2.85937l1.9336 1.51172m-2.8672-1.09375l.96485.7539m13.58203.0586l-7.01562.39843m7.01562-.39843l1.27344 2.09765m11.73437-.44922l-6.40234-2.89843m6.40234 2.89843l.15625 2.44922m-1.08593-2.8711l.07422 1.22657m14.4453-1.72656l-6.94921-1.05078m6.94922 1.05078l.8125 2.3125m-1.82422-2.46875l.40625 1.16015m13.95703-1.53125h-7.02734m7.02734 0l1.15234 2.16797m12.01172-3.1914l-6.72265 2.05078m5.74218-1.7539l.8672.86718m13.4453-1.11328l-6.7539 1.94531m6.7539-1.94531l1.70313 1.76562m11.27734-2.54687l-6.08593 3.51172m6.08593-3.51172l2.08203 1.30078m-2.96875-.78906l1.04297.64844m13.60938.96875l-6.98828-.7461m5.97265.63672l.45703 1.13672m13.5.21094l-6.24218-3.22657m5.33593 2.75782l.01172 1.22656m13.95703-4.39844l-5.73437 4.0586m4.89844-3.46875l1.09765.55078m11.88672-2.1875l-3.40234 6.14843m3.40234-6.14843l2.45313.03906m11.91797.85547l-5.51172 4.35937m5.51172-4.35937l2.24609.98828m-3.05078-.35156l1.125.49218m12.8789-1.26171l-5.28515 4.6289"/><g clip-path="url(#aq)"><path fill="none" stroke="#000" stroke-linecap="round" stroke-linejoin="round" stroke-miterlimit="10" stroke-width=".5" d="M466.20313 318.23438l2.29687.87109"/></g><path fill="none" stroke="#000" stroke-linecap="round" stroke-linejoin="round" stroke-miterlimit="10" stroke-width=".5" d="M465.4375 318.90625l2.29297.8711m-3.0625-.19532l2.29297.8711"/><path fill="#00f" fill-rule="evenodd" d="M157.44531 458.77344h8.61719V448.625h-8.61719v10.14844"/><path fill="azure" fill-rule="evenodd" d="M159.27734 450.45703h.83203v2.82422h3.28907v-2.82422h.83203v6.48047h-.83203v-2.91406h-3.28906v2.91406h-.83204v-6.48047"/><path fill="#ff3030" fill-rule="evenodd" d="M260.21875 445.45703h7.69531V435.3125h-7.69531v10.14453"/><path fill="azure" fill-rule="evenodd" d="M262.05469 437.14453h.83203v5.73828h3.19531v.74219h-4.02734v-6.48047"/><path fill="#ff3030" fill-rule="evenodd" d="M331.23438 445.45703h7.6914V435.3125h-7.6914v10.14453"/><path fill="azure" fill-rule="evenodd" d="M333.0664 437.14453h.83594v5.73828h3.19141v.74219h-4.02734v-6.48047"/><path fill="#ff3030" fill-rule="evenodd" d="M184.76953 436.57813h7.6914v-10.14454h-7.6914v10.14454"/><path fill="azure" fill-rule="evenodd" d="M186.60156 428.26563h.83203v5.74218h3.19532v.73828h-4.02735v-6.48046"/><path fill="#ffffe0" fill-rule="evenodd" d="M292.92188 415.22656h22.17968v-10.1914h-22.17969v10.1914"/><path fill-rule="evenodd" d="M296.42188 406.86719h.5078v6.29687h-.78515v-4.48828h-1.39062v-.5586l.5625-.0625.25-.05468.23046-.08984.20313-.14063.17578-.21094.14063-.29296.10546-.39844m4.8125 0l.23047.01953.21875.0586.20704.08593.1953.1211.1875.15234.16798.17578.30468.41797.2422.49219.17968.54687.11328.58203.03516.58985-.03516.59375-.11328.58203-.17969.55468-.24219.50391-.30468.42578-.16797.17969-.1875.15234-.19531.125-.20704.09375-.21875.05469-.23046.01953-.23047-.01953-.21875-.05469-.20704-.09375-.1953-.125-.1836-.15234-.17188-.17969-.30078-.42578-.2461-.5039-.17968-.5547-.10937-.58202-.03907-.59375h.83204l.03125.5625.08203.5039.125.44531.16015.375.1914.30079.21095.21875.22265.13671.22656.04688.22657-.04688.22265-.13671.21094-.21875.1914-.30079.16407-.375.125-.4453.08203-.50392.02735-.5625-.02735-.5625-.08203-.5-.125-.43359-.16406-.36719-.1914-.29296-.21095-.21485-.22265-.1289-.22656-.04688-.22657.04688-.22265.1289-.21094.21485-.1914.29296-.16016.3672-.125.43358-.08204.5-.03125.5625h-.83203l.03907-.58984.10937-.58203.17969-.54688.2461-.49218.30077-.41797.17188-.17578.1836-.15235.1953-.12109.20704-.08594.21875-.0586.23046-.01952m5.09375 0h.50782v6.29687h-.78516v-4.48828h-1.39062v-.5586l.55859-.0625.2539-.05468.23048-.08984.20312-.14063.17188-.21094.14453-.29296.10546-.39844m2.82032 2.17578h.78906l.01953-.3164.0586-.28516.09765-.25391.14063-.21484.18359-.17188.22266-.1289.26562-.08204.3086-.02734.23437.02344.22656.0625.20313.10156.17969.13672.14843.17187.11328.20704.07032.23828.02734.26171-.02344.26954-.0664.22265-.10938.19531-.15625.16797-.19922.16407-.2461.16406-.63671.39062-.53516.3125-.4375.31641-.34765.32422-.26172.33594-.1914.35156-.125.3711-.07032.39452-.01953.41797h4.21094v-.74219h-3.33204l.08204-.28125.11328-.23828.14844-.20312.1875-.17969.23046-.17187.28125-.17579.71485-.41406.41797-.20703.34375-.23047.28125-.25.21875-.26953.16406-.27734.11328-.28125.0625-.28516.01953-.28125-.04297-.38672-.11719-.34765-.1914-.3047-.25-.26562-.30078-.21093-.34766-.16016-.3789-.09766-.40625-.03515-.4375.03515-.39844.09766-.35156.16797-.3086.23437-.2461.30079-.1875.375-.11327.44921-.04297.51563"/><path fill="#ffffe0" fill-rule="evenodd" d="M181.3711 387.98828h22.17968v-10.1914H181.3711v10.1914"/><path fill-rule="evenodd" d="M184.8711 379.6289h.5078v6.29688h-.78515v-4.49219h-1.39063v-.55468l.5625-.0625.25-.0547.23047-.08983.20313-.14063.17578-.21094.14063-.29297.10546-.39843m4.8125 0l.23047.01953.21875.05469.20703.08984.19532.1211.1875.15234.16797.17578.30468.41797.24219.49218.17969.54688.11328.57812.03516.59375-.03516.59375-.11328.58204-.17969.55468-.24219.5-.30469.42969-.16796.17969-.1875.15234-.19532.125-.20703.08985-.21875.05859-.23047.01953-.23047-.01953-.21875-.0586-.20703-.08984-.1953-.125-.1836-.15234-.17188-.17969-.30078-.42969-.2461-.5-.17968-.55469-.10938-.58203-.03906-.59375h.83203l.03125.5625.08203.50391.125.44531.16016.375.1914.30078.21095.21875.22265.13672.22656.04688.22657-.04688.22265-.13672.21094-.21875.1914-.30078.16016-.375.1289-.44531.08204-.5039.02734-.5625-.02734-.5625-.08203-.5-.1289-.4375-.16016-.36329-.19141-.29297-.21094-.21484-.22265-.1289-.22657-.04688-.22656.04687-.22266.12891-.21093.21484-.1914.29297-.16017.36328-.125.4375-.08203.5-.03125.5625h-.83203l.03906-.59375.10938-.57812.17969-.54688.2461-.49218.30077-.41797.17188-.17578.1836-.15235.1953-.1211.20703-.08983.21875-.0547.23047-.01952m5.09375 0h.50782v6.29687h-.78907v-4.49219h-1.38672v-.55468l.5586-.0625.2539-.0547.23047-.08983.20313-.14063.17187-.21094.14063-.29297.10937-.39843m2.82032 2.17578h.78906l.01953-.3164.0586-.28517.09765-.2539.14063-.21485.18359-.17187.22266-.1289.26562-.08204.3086-.02734.23437.02344.22656.0625.20313.10156.17968.13672.14844.17187.11328.20703.07031.23438.02735.26562-.02344.26954-.0664.22265-.10938.1914-.15625.17188-.19922.16406-.2461.16407-.63671.39062-.53516.3125-.4375.3164-.34765.32423-.26172.33594-.1914.35156-.125.3711-.07032.39062-.01953.42187h4.21094v-.74219h-3.33204l.08203-.28515.11329-.23438.14843-.20312.1875-.17969.23047-.17188.28125-.17578.71485-.41406.41406-.20703.34766-.23047.28125-.25.21875-.26953.16406-.27734.10937-.28516.0664-.28516.01954-.28125-.04297-.3828-.1211-.34767-.1875-.30859-.25-.26172-.30077-.21094-.34766-.16015-.3789-.09766-.40626-.03515-.4375.03515-.39843.09766-.35547.16797-.30469.23437-.2461.30078-.1875.375-.11327.44532-.04297.51953"/><path fill="#ffffe0" fill-rule="evenodd" d="M403.88281 470.20313h22.17969v-10.19141h-22.17969v10.1914"/><path fill-rule="evenodd" d="M407.3789 461.84375h.51173v6.29297h-.78907v-4.48828h-1.38672v-.55469l.5586-.0664.2539-.0547.22657-.08593.20312-.14453.17578-.20703.14063-.29688.10547-.39453m4.8164 0l.22656.01953.21875.05469.21094.08984.19531.1211.1836.14843.17187.17579.30079.42187.24609.49219.17969.54687.10937.57813.03906.58984-.03906.59375-.10937.58594-.1797.55469-.24608.5-.30079.42968-.17187.1797-.1836.15233-.1953.125-.21094.08985-.21875.0586-.22657.01952-.23047-.01953-.21875-.0586-.20703-.08983-.19922-.125-.18359-.15235-.17188-.17969-.30078-.42968-.24218-.5-.1797-.5547-.11327-.58593-.03906-.59375h.83593l.02735.5664.08203.50391.125.44141.16406.375.1914.30078.21094.22266.22266.13672.22656.04687.22656-.04687.22266-.13672.21094-.22266.1875-.30078.16406-.375.125-.4414.08203-.50391.03125-.5664-.03125-.5586-.08203-.5-.125-.4375-.16406-.36719-.1875-.28906-.21094-.21485-.22265-.1328-.22657-.04298-.22656.04297-.22266.13281-.21093.21485-.19141.28906-.16406.36719-.125.4375-.08203.5-.02735.5586h-.83594l.03907-.58985.11328-.57813.17969-.54687.24218-.49219.30079-.42188.17187-.17578.1836-.14843.19921-.1211.20703-.08984.21875-.05469.23047-.01953m5.08985 0h.5078v6.29297h-.78515v-4.48828h-1.38672v-.55469l.5586-.0664.25-.0547.23047-.08593.20312-.14453.17578-.20703.14063-.29688.10547-.39453m2.82421 2.17578h.78516l.01953-.3164.0625-.28516.09766-.2539.14062-.21485.1797-.17578.22265-.1289.26562-.07813.3086-.02735.23828.01953.22265.0625.20313.10157.17969.14062.14843.17188.11329.20703.07421.23437.02344.26563-.01953.26953-.0664.22265-.10938.19141-.15625.17188-.20313.16406-.24609.16406-.63281.39063-.53906.3125-.4375.3164-.34375.32422-.26563.33594-.1914.35156-.125.36719-.06641.39453-.02344.41797h4.21484v-.73828h-3.33593l.08593-.28516.11329-.23437.14843-.20313.1875-.17969.23047-.17187.27735-.17578.71875-.41797.41406-.20313.34765-.23046.27735-.25391.22265-.26563.16016-.27734.11328-.28516.0625-.28515.01953-.28125-.03906-.38281-.1211-.34766-.1914-.3086-.25-.26171-.30078-.21485-.34375-.15625-.38281-.09765-.40625-.03516-.4336.03125-.39844.10156-.35546.16406-.3047.23438-.25.30469-.18358.375-.1172.44531-.03906.51953"/><path fill="#ffffe0" fill-rule="evenodd" d="M337.30469 366.57031h22.17969V356.375h-22.1797v10.19531"/><path fill-rule="evenodd" d="M340.80469 358.21094h.50781v6.29297h-.78516v-4.48829h-1.39062v-.55468l.5625-.0664.25-.0547.23047-.08984.20312-.14063.17578-.21093.14063-.29297.10547-.39453m4.8125 0l.23047.01953.21875.05469.20703.08984.19922.1211.18359.14843.17188.17578.30078.41797.24218.4961.1797.54687.11327.57813.03906.58984-.03906.59375-.11328.58594-.17969.55078-.24218.5039-.30079.42579-.17187.17968-.1836.15625-.19921.1211-.20703.09375-.21875.05468-.23047.01954-.22656-.01954-.21875-.05468-.21094-.09375-.19531-.1211-.1836-.15625-.17187-.17969-.30079-.42578-.24218-.5039-.1836-.55078-.10937-.58594-.03906-.59375h.83203l.03125.5625.08203.50781.125.4414.16406.375.1875.30079.21094.22265.22265.13672.22657.04688.22656-.04688.22266-.13671.21093-.22266.19141-.30078.16406-.375.125-.4414.08203-.50782.02735-.5625-.02735-.5625-.08203-.5-.125-.4336-.16406-.36718-.1914-.29297-.21094-.21094-.22266-.13281-.22656-.04688-.22656.04688-.22266.13281-.21094.21094-.1875.29297-.16406.36719-.125.43359-.08203.5-.03125.5625h-.83203l.03906-.58985.10937-.57812.1836-.54688.24219-.49609.30078-.41797.17187-.17578.1836-.14844.1953-.12109.21094-.08984.21875-.0547.22657-.01952m5.09375 0h.50781v6.29297h-.78516v-4.48829h-1.39062v-.55468l.5625-.0664.25-.0547.23047-.08984.20312-.14063.17188-.21093.14453-.29297.10547-.39453m6.80469 1.61719h-.78907l-.05078-.21094-.08203-.1875-.10547-.15625-.13281-.13281-.14453-.10157-.16016-.07422-.16797-.04687-.17187-.01563-.32813.04297-.28906.11719-.2461.19922-.20312.26562-.16015.33985-.1172.40234-.0703.46875-.02344.52735.1914-.20313.1836-.16016.1875-.12109.1836-.08984.1875-.0586.1914-.03906.40234-.02344.3086.03125.3203.08985.31641.15625.29297.21875.25781.28515.19532.35156.07422.19922.05078.21875.03125.23438.0039.25-.78515.04687-.02735-.2578-.07812-.25-.1211-.23438-.16015-.21094-.19531-.17969-.21875-.13672-.2422-.08594-.2539-.03125-.2539.03125-.2422.08594-.21874.13672-.19531.17969-.16016.21094-.1211.23437-.07812.25-.02734.25781.02734.25782.07813.2539.12109.23438.16016.21094.1953.17578.21876.13671.24219.08985.2539.03125.2539-.03125.2422-.08985.21875-.13671.1953-.17579.16017-.21093.12109-.23438.07812-.2539.02735-.25782.78515-.04687-.03125.3711-.08984.37109-.16016.35937-.22265.32813-.28906.28515-.17188.11719-.1875.10156-.20313.08203-.22656.0625-.24219.03907-.2578.01171-.28516-.01562-.25782-.04688-.23828-.07421-.21484-.10547-.19531-.13281-.17579-.15625-.15234-.1797-.13672-.20312-.11719-.22265-.09765-.2422-.14844-.53515-.08203-.58984-.02734-.64063.03906-.74609.11328-.66016.1875-.57812.11719-.25781.13672-.23047.15625-.20703.16796-.1797.1875-.15624.20313-.1289.21875-.10157.23047-.07422.2461-.04297.26562-.01562.36328.03125.33203.09765.29688.15235.2539.19922.21485.23828.16406.27734.11719.30078.0625.32031"/><path fill="#ffffe0" fill-rule="evenodd" d="M217.46875 341.26953h22.17969v-10.1914h-22.17969v10.1914"/><path fill-rule="evenodd" d="M220.96875 332.91016h.50781v6.29687h-.78515v-4.49219h-1.38672v-.55468l.5586-.0625.25-.0547.23046-.08983.20313-.14063.17578-.21094.14062-.29297.10547-.39843m4.8125 0l.23047.01953.21875.05469.20703.08984.19922.1211.1836.15234.17187.17187.30078.42188.24219.49218.17968.54688.11328.57812.03907.59375-.03906.59375-.11329.58204-.17968.55468-.2422.5-.30077.42969-.17188.17969-.1836.15234-.19921.125-.20703.08985-.21875.05859-.23047.01953-.22656-.01953-.21875-.0586-.21094-.08984-.19531-.125-.1836-.15234-.17187-.17969-.30078-.42969-.24219-.5-.17969-.55469-.11328-.58203-.03906-.59375h.83594l.02734.5625.08203.50391.125.44531.16406.375.19141.30078.20703.21875.22266.13672.22656.04688.22656-.04688.22266-.13672.21094-.21875.1914-.30078.16406-.375.125-.44531.08204-.5039.02734-.5625-.02734-.5625-.08203-.5-.125-.4375-.16407-.36329-.1914-.29297-.21094-.21484-.22266-.13281-.22656-.04297-.22656.04297-.22266.13281-.20703.21484-.1914.29297-.16407.36328-.125.4375-.08203.5-.02734.5625h-.83594l.03906-.59375.11328-.57812.17969-.54688.24219-.49218.30078-.42188.17187-.17187.1836-.15235.19531-.1211.21094-.08983.21875-.0547.22656-.01952m5.09375 0h.50781v6.29687h-.78515v-4.49219h-1.39063v-.55468l.5625-.0625.25-.0547.23047-.08983.20313-.14063.17578-.21094.14062-.29297.10547-.39843m6.80469 1.62109h-.78906l-.05079-.21094-.08203-.1875-.10547-.16015-.1328-.12891-.14454-.10547-.16016-.07422-.16797-.04297-.17187-.01562-.32813.03906-.28906.1211-.2461.1953-.20312.26954-.16015.33594-.11719.40625-.07031.46484-.02344.52734.1914-.20312.1836-.15625.1875-.125.1836-.08594.1875-.0625.1953-.03515.39844-.02344.3086.02734.32031.09375.3164.15625.29298.21875.2578.28516.19923.35156.0703.19922.0547.21484.02734.23828.0039.25-.78515.04688-.02734-.26172-.07813-.25-.1211-.23438-.16015-.21093-.19531-.17578-.21875-.13672-.24219-.08985-.2539-.03125-.25391.03125-.24219.08985-.21875.13672-.19531.17578-.16016.21094-.1211.23437-.07812.25-.02734.26172.02734.25781.07813.25.1211.23438.16015.21093.19531.1797.21875.13671.24219.08594.2539.03125.25391-.03125.24219-.08594.21875-.13672.19531-.17969.16016-.21093.1211-.23438.07812-.25.02734-.25781.78516-.04688-.03125.3711-.08985.3711-.16015.35937-.22266.32812-.28906.28125-.17188.1211-.1875.10156-.20312.08203-.22656.0625-.23829.03906-.26172.01172-.28125-.01563-.26171-.04687-.23828-.07813-.21485-.10546-.19531-.12891-.17188-.15625-.15625-.17969-.13672-.20312-.11328-.22266-.10156-.24219-.14844-.53515-.08203-.59375-.02734-.64063.03906-.74219.11328-.66406.1875-.57812.11719-.2539.14063-.23048.15234-.20703.16797-.1836.1875-.15234.20312-.1328.21875-.10157.23047-.07031.25-.04688.26172-.01562.36328.03515.33203.09375.29688.15235.25781.19921.21094.2422.16406.27343.11719.30469.0625.32031"/></g></defs><use xlink:href="#ar"/></svg>