<svg xmlns="http://www.w3.org/2000/svg" role="img" xmlns:xlink="http://www.w3.org/1999/xlink" viewBox="142.45 309.95 326.84 171.84"><defs><clipPath id="a"><path d="M144 311.67188h1v168.65625h-1zm0 0"/></clipPath><clipPath id="b"><path d="M144 311.67188h324v168.65625H144zm0 0"/></clipPath><clipPath id="c"><path d="M389 476h8v4.32813h-8zm0 0"/></clipPath><clipPath id="d"><path d="M392 480h1v.32813h-1zm0 0"/></clipPath><clipPath id="e"><path d="M418 480h2v.32813h-2zm0 0"/></clipPath><clipPath id="f"><path d="M467 311.67188h1v168.65625h-1zm0 0"/></clipPath><clipPath id="g"><path d="M144 480h4v.32813h-4zm0 0"/></clipPath><clipPath id="h"><path d="M147 480h2v.32813h-2zm0 0"/></clipPath><clipPath id="i"><path d="M146 480h2v.32813h-2zm0 0"/></clipPath><clipPath id="j"><path d="M153 479h9v1.32813h-9zm0 0"/></clipPath><clipPath id="k"><path d="M160 480h2v.32813h-2zm0 0"/></clipPath><clipPath id="l"><path d="M166 479h9v1.32813h-9zm0 0"/></clipPath><clipPath id="m"><path d="M173 480h2v.32813h-2zm0 0"/></clipPath><clipPath id="n"><path d="M180 479h8v1.32813h-8zm0 0"/></clipPath><clipPath id="o"><path d="M187 480h2v.32813h-2zm0 0"/></clipPath><clipPath id="p"><path d="M193 479h8v1.32813h-8zm0 0"/></clipPath><clipPath id="q"><path d="M200 480h2v.32813h-2zm0 0"/></clipPath><clipPath id="r"><path d="M206 479h9v1.32813h-9zm0 0"/></clipPath><clipPath id="s"><path d="M213 480h3v.32813h-3zm0 0"/></clipPath><clipPath id="t"><path d="M220 480h8v.32813h-8zm0 0"/></clipPath><clipPath id="u"><path d="M227 480h2v.32813h-2zm0 0"/></clipPath><clipPath id="v"><path d="M233 479h8v1.32813h-8zm0 0"/></clipPath><clipPath id="w"><path d="M239 479h2v1.32813h-2zm0 0"/></clipPath><clipPath id="x"><path d="M246 479h9v1.32813h-9zm0 0"/></clipPath><clipPath id="y"><path d="M252 479h3v1.32813h-3zm0 0"/></clipPath><clipPath id="z"><path d="M260 478h8v2.32813h-8zm0 0"/></clipPath><clipPath id="A"><path d="M265 479h3v1.32813h-3zm0 0"/></clipPath><clipPath id="B"><path d="M273 478h8v2.32813h-8zm0 0"/></clipPath><clipPath id="C"><path d="M289 476h3v4.32813h-3zm0 0"/></clipPath><clipPath id="D"><path d="M303 476h2v4.32813h-2zm0 0"/></clipPath><clipPath id="E"><path d="M316 476h2v4.32813h-2zm0 0"/></clipPath><clipPath id="F"><path d="M329 476h3v4.32813h-3zm0 0"/></clipPath><clipPath id="G"><path d="M340 477h7v3.32813h-7zm0 0"/></clipPath><clipPath id="H"><path d="M353 478h8v2.32813h-8zm0 0"/></clipPath><clipPath id="I"><path d="M367 478h7v2.32813h-7zm0 0"/></clipPath><clipPath id="J"><path d="M380 477h7v3.32813h-7zm0 0"/></clipPath><clipPath id="K"><path d="M394 477h6v3.32813h-6zm0 0"/></clipPath><clipPath id="L"><path d="M408 476h4v4.32813h-4zm0 0"/></clipPath><clipPath id="M"><path d="M420 477h7v3.32813h-7zm0 0"/></clipPath><clipPath id="N"><path d="M436 476h2v4.32813h-2zm0 0"/></clipPath><clipPath id="O"><path d="M448 476h4v4.32813h-4zm0 0"/></clipPath><clipPath id="P"><path d="M460 478h7v2.32813h-7zm0 0"/></clipPath><clipPath id="Q"><path d="M466 478h2v2h-2zm0 0"/></clipPath><clipPath id="R"><path d="M144 466h4v2h-4zm0 0"/></clipPath><clipPath id="S"><path d="M144 453h4v1h-4zm0 0"/></clipPath><clipPath id="T"><path d="M466 452h2v3h-2zm0 0"/></clipPath><clipPath id="U"><path d="M144 439h4v3h-4zm0 0"/></clipPath><clipPath id="V"><path d="M466 440h2v4h-2zm0 0"/></clipPath><clipPath id="W"><path d="M144 426h4v2h-4zm0 0"/></clipPath><clipPath id="X"><path d="M466 427h2v3h-2zm0 0"/></clipPath><clipPath id="Y"><path d="M144 413h4v2h-4zm0 0"/></clipPath><clipPath id="Z"><path d="M466 412h2v3h-2zm0 0"/></clipPath><clipPath id="aa"><path d="M144 399h4v3h-4zm0 0"/></clipPath><clipPath id="ab"><path d="M466 398h2v3h-2zm0 0"/></clipPath><clipPath id="ac"><path d="M144 386h4v2h-4zm0 0"/></clipPath><clipPath id="ad"><path d="M466 386h2v3h-2zm0 0"/></clipPath><clipPath id="ae"><path d="M144 372h4v4h-4zm0 0"/></clipPath><clipPath id="af"><path d="M144 358h4v5h-4zm0 0"/></clipPath><clipPath id="ag"><path d="M466 358h2v3h-2zm0 0"/></clipPath><clipPath id="ah"><path d="M144 345h4v4h-4zm0 0"/></clipPath><clipPath id="ai"><path d="M466 345h2v3h-2zm0 0"/></clipPath><clipPath id="aj"><path d="M144 333h4v2h-4zm0 0"/></clipPath><clipPath id="ak"><path d="M466 331h2v3h-2zm0 0"/></clipPath><clipPath id="al"><path d="M465 332h3v2h-3zm0 0"/></clipPath><clipPath id="am"><path d="M144 320h4v1h-4zm0 0"/></clipPath><clipPath id="an"><path d="M465 317h3v2h-3zm0 0"/></clipPath><g id="ao" clip-path="url(#clip1)"><path fill="#fff" fill-opacity="0" fill-rule="evenodd" d="M0 0h1000v1000H0zm0 0"/><path fill="#d3d3d3" fill-opacity="0" fill-rule="evenodd" d="M162.15234 355.86719l-.23437.29297.0586.23437.11718.17188.17578.23437.29297.34766.11328.0586.11719-.17188.0586-.23438.17577-.17578.46485-.17578h.69922l.23437.29297.28906.8164.0586.17579.17578.23046.35156.23438.69922.69922.17188.17578.23437.34765.23438.41016.28906.58203.41015.46485.23047.23437.23438.17578.11719.23047.17578.29297.17187 1.16406v.23438l.0586.28906.05859.11719.11719.11719.34765.41015.11719.17188.17578.17578.17578.23437.11719.17188.17188.35156.05859.23438.23437.40625.23438-.0586-.17578.17578-.0586.92969h-.58203l-.23437-.11328-.34766.11328-.11719.11719-.05859.29297-.0586.17578-.11718.17187-.46484.29297-.0586.23438-.0586.11328v.64453l.0586.17187v.41016l.0586.0586v.40624l.05859.40625.11719.17579.05859.05859.23047.64062-.0586.29297v.69922l-.05859.58203v.23438l-.0586.23047-.05468.35156v1.92187l.05469.1172h.42578l-.36719.11718-.02344.35156.89063 1.16797 1.74219.53906 1.33984.35938v.53906l.08984.8086.53516.71484 1.51953.26953.89063-.08594.08984 1.16406.53516.1797 1.16015-.1797 2.05469-.98437 1.16016-.36328 1.8789-.17578 1.69531-.1797-.17968.71876-1.51563.08594-1.25.08984-.80469.26953-1.07421.8086.26953.71875.53515.89843-.17968.625-.26563.8086.26563 1.07812.625.89844.80468.17969 1.25-.1797-.26562.72267.09766.5039.05468.29297v.17188l.0586.29296v.40625l.17578.1172.35156.11718h.40625l.29297-.17578.11328-.11719.0586-.11719.11718-.23047.0586-.17578.35156-.46484.23047-.17578.17578-.0586.17578.0586.0586.17578.11718.98828.05469.46875.0586.17188.11718.23437.17578.0586.8164.05859h.28907l.11719.23437.05859.40625.0586.35156v1.10547l.11718.29297.11719.34766.28906.69922.17578.35156.58203.7539.35157.17579.17187.0586.46875.23437.64063.46484.34765.23438.29297.17578.29297.05468.23047.0625.8164.34766.29297.17578.11328.17188.35157.35156.11719.17578.52343.64063v.28906l.0586.35156v.34766l.05859.35156.0586.28906.11718.0586.17188.05859h.17578l.58203.23437.17578.1172.17578.28905.17578.23438.11328.23437.29297.23047.11719.11719v.41016l.0586.05468.28906.23438.23437.11719.0586.11718.11718.17188.0586.11719.23047.23437.05859.17578.23437.0586.1172.05859-.1172.11328-.05859.11719v.11719l-.11719.29296-.11719.28907v.58203l.17579.11719.11718.05859.0586.11719.11719.11719.11328.05859.17578.34765.0586.35157.05858.40625v.17578l-.05859.17578-.11719.69922v.17187l.1172.17579.29296.29296h.40625l.17578.1172.11719.17187.11719.29296v.23438h-.52735l-.23047-.23438h-.23437l-.17578.0586-.0586.69922.0586.34765.11719.17579.17578.41015.11718.23047.28907.46875.17578.05469h.52344l.23437.0586.75781.64062.0586.29296v.23438l.05859.0586.23047.34765v.35156l-.11719.17188v.29297l.29297.28906.29297.17578.17187.0586.29297.17577.29297.1172.58203.40624.28906.23438.29297.17578.21875.16015.01563.01172.23047.17579.64062.52343.17578.23438.1172.17578.17577.17578.11328.17188v.64062l.1172.17578.46874.11719.58203.11719.23438.05859.23047.11328.29297.11719.11328.0586.58593.35156.28907.17187.17578.0625.17578.05469.17578.0586.69922.35155.28906.17579.23438.05468.28906.17578.23437.1172.64063.40624.29297.11719.17187.0586.23438.05859.41015.05859.23047.0586.23438.11718.0586.17188-.41017.17578.46875.0586.0586.29296.11328.23438.17578.05468.23438.0586.17578.05859.40625.11719.64062.23437.11719.17188.0586.23437v.17578l-.0586.1172-.0586.40624.23438.23438.11719.05859.34766.11719.64062.23047.17578.11718.28906.1172.17578.17577.23438.46485.58203 1.10546.17578.17579.34766.17578.17578.11719.35156.11718 1.04688.52344.23437.0586.46485.11327.29297.0586.46484.17578.75781.58203.23438.23438.34765.46484.17578.17578.28907.23438.8164.69921.29297.17579.28906.28906.29297.17578.29297.28906.69531.64063.17578.17578.29297.23437.28907.23438.46875.28906.64062.58203.34766.23438.23437.29297.34766.34765.35156.46485.9336.99218.34765.40625.11719.17579.23437.05859.11328.11719.64454.17578.23047.11328.23437.0586.29297.17577.23047.1172.9336.69921.40624.40625.23438.17578.40625.17578.23437.11719.8164.34766.34766.23437.23438.11719.29297.28906.23047.11719.7578.35156.35157.17188.23047.05859.29297.11719.23437.0586.8711.17577h.8164l.46875.23047.17188.0586.875.69921.46484.1172.29297.05858.17578.0586.23047.0586.46875.05859.34766.05859.35156.0586.40625.05859h.29297l.17187.0586v.23046l.17578.17578h.29297l.34766.0586.35156.05859.69922.11719h.64063l.46484-.23438.29297-.17578.17187-.11719.41016-.17187.28906-.17578.9336-.46485.46875-.29297.52343-.29296.46485-.17188.46484-.17578 1.05078-.46485.28906-.11718.41016-.11719.28906-.11719.52735-.17578 1.51562-.69922.58203-.34765.28907-.0586.29297-.0586.34765-.11718.875-.23047.35156-.11719h.11329l.23437-.05859.875-.23437.23438-.0586h.8125l.35156-.0586.8164-.11718.17188-.0586.35156-.05468.29297-.0586.23047-.05859.8164-.17578.17579-.0586h.34765l.23438-.05859.46484-.11718.75781-.17188.23438-.0586h.34765l.41016-.11718.28906-.0586 1.28516-.05859h.28906l.41016-.0586.23047-.05858h.17578l.875-.1172h.40625l.41015-.11718h.34766l.35156-.11328.8711-.0586h1.75l1.04687.28907.41016.11719.28906.11718.35156.11719.28907.11719 1.05078.17187.28906.0586h.29297l.29297.05859.17187.0586.41016.05859.17187.0586.1172.05858h.11718l.11719.0586.35156.0586h.11328l.41016.0664 1.92187.39453 1.92578.39453 1.51953.44922 1.69532.71875 2.14453.80469 1.60547-.71875 1.42968-.80469 1.16016-1.07813 1.25-.44921 3.03516-.71875 1.875-.35938 2.14453-1.34765 2.23437-1.25391 2.5-1.25781 1.69531-.44922 1.78516-.17969 1.16016-.26953.625.53906 1.33984-.26953.71485-.98828.98437-1.34375.44531-.17969.80469-.35937 1.875-.53907 1.78516-.44921 1.25-.26954 1.16015-.08984 1.69922-.08984 1.96094-.26954 1.25-.08984h.53906l.625-.08984h.89063l2.14453-.17969 2.41015-.17969 2.58985-.08984 1.69531.17969 1.60938.08984 1.42968.35938 1.16016.71875 1.875.98828 1.16015 1.52734.26563.71484.6289.08985.35548.89844.53515.53906.53516 1.52734 1.07422.35938h.53515l-.80469.53515.08985 1.70703.71484 2.69532.89063.80468.89453.98829.71484 1.2578 1.78516.53907 1.51953-.17969.35547 1.34375 1.60937-.80469.98047-.53906.26953.26953.31641-.21484.21875-.14453.80078.44922.44922-.35938h.35547l.53515-.26953.53907-.71875.53515-.26953.625-.98828 1.16016.44922.83984.3711 1.39454.61718 1.6953-.17969h1.60548l1.78515.08985.17969-1.70704.53516-1.34375.80468.26954.4922.84765.40233.40625-.08984.53906v.35938l.71485.44922.71093-.26953h1.42969l.35938.98828.4453 1.25781.71485 1.34375 1.25.6289 1.69531.62891.71485-.17969.17969-.53906.98046-.08984.44922.35937.08594 1.25782-.26563.6289-.53515.17969v.53906l.71484.98438.26563.53906.98437.98828.80078 1.07813-.26562.35937-.08985.89844-.625 2.33203-.35546 2.0664-.08985 1.79298-.17969.71875-.08984.53906v1.4375l-.98047 1.88281-.35937 1.70703-.53516.89844-.80469 1.16797-.26562.53906 2.05469 1.2539.08593.35938-.35546.53906-.08985-.17968v.80859l.08985 1.4375-.44532.71484-1.07422.09375-.26562.71485.53515.89844.8047.71875 1.16015.80859 1.33984.26953.44531.35938-.35546.44921-1.78907-.08984-1.25-.44922-.71484-.71875-.625-.08984-.17578 3.58984-.1875 1.3086h89.35937V311.70313h-55.26953v49.08203l.76172.125 3.28906.54296 2.02344 2.83594v2.7539l2.35156.33204 2.34766.33203h4.05078l-1.3789 4.16016-2.02344.70703-2.02344.70312-.54297.34375-2.59375 1.6172-.1875.11718-2.02344-2.07813-.73046-2.74218-2.67188-2.07813-1.375-3.5-.0664-.08203-1.95704-2.67188 2.75-1.41796v-49.08204H294.42187v91.41407l.1172.03125.1328.01172.07422.07421.10547.04688.08985.0586.08593.05859.08985.0586.29687.29687.0586.08984.03125.11719.02734.11719.01563.13671-.03125.1172-.0586.08983-.0586.08594-.04296.10547-.04688.10156-.02734.1211v.14453l.17578.26953.14844.14844.07422.08594.07422.07421.04296.10547.0625.08985.0586.08593.04297.10547.0586.08985.04687.10156.04296.10547.0586.08594.11719.17968.07421.07422.0625.08594.0586.08984.04297.10547.0586.08985.05858.08593.0625.08985.0586.08984.04297.10156.11719.17969.07421.07422.0586.08594.07422.07421.08984.0586.10547.04687h.14844l.1328-.01562.13282.01562.10156-.04687.07422-.07422.04688-.10156-.01563-.13281v-.14844l-.04687-.10547-.02735-.11719-.04687-.10156-.02735-.1211-.04296-.10156-.0625-.08984-.04297-.10156-.04297-.10547-.03125-.11719-.01563-.13281-.01171-.13672.08593-.0586.0586-.08593.12109-.03125.04297.10547.01562.1328v.1172l.0586.10156.0586.08984.08983.0586.14844.14843.0586.08985.04296.10547-.01171.10156.08593.0586.10547.04687.08594.0586.08984.05858.07422.07422-.11719.02735-.10546.04687-.08594.0586-.07422.07421-.0586.08985-.0625.08594-.02734.12109-.04687.10156-.04297.10547-.03125.11719-.01172.13281-.01563.13281v.14844l.02735.11719.04687.10547.04297.10156.0586.08984.07421.07422.08985.0586.07422.07421.08984.0586.0586.08984.04296.10547.04688.10156.11719.03125.1328.01563h.14845l.11718-.03125.10547.04297.04297.10547.04688.10156.02734.1211L299.5 410l.02734.11719.03125.1211.02735.11718.10547.04297.10156.04687.13281-.01562.14844.14844.0625.08593.07422.07422.07031.07422.08984.0625.10547.04297.10156.04297.1172.03125.13671.01562.11719-.03125.07422-.07422.02734-.11718-.01172-.13282-.03125-.12109-.02734-.11719.04297-.10547h.11719l.08984.0625.11719.02735h.14843l.13282.01562h.14843l.13282.01563.1328-.01563h.14845l.1328-.01562.13282-.01172.13672.01172.11719-.02735.13281-.01562.1914-.0586-.05859.17579-.01562.1328-.02735.1211-.01562.13281-.0586.08594-.1328.01563-.10548.04687-.10546.04297-.1172.03125-.11718.02735-.26563.03125h-.14843l-.13281.01562-.07422.07422.05859.08594.14844.14843.11719.1797.07421.0703.08985.0625.08984.0586.08594.0586.08984.05858.10156.04297.10547.0625.10547.04297.08594.0586.10547.04687.10156.04297.17969.11719.0586.08984-.04298.10156-.04687.10547.01562.13281.22266.22266.0586.08985.04296.10156.03125.1211.04297.10155.01563.13282.03125.11718.01171.13672.03125.11719.14844.14844.10156.04297.10547.04296.1172.03125.1328.01563.13672.01563h.11719l.11719-.03125.08984-.0586.04297-.10547.04688-.10156.04296-.10547.03125-.11719.01172-.1328v-.14845l-.01172-.1328-.01562-.13282-.03125-.11719-.04297-.10547-.04688-.10547-.04296-.10156-.04297-.10547-.01563-.13281.01563-.13281.02734-.11719.03125-.11719.02735-.1211.04687-.10155.08984-.0586.08594-.0625.07422-.07422.08984-.05859.22266-.22266.0586-.08593.07421-.07422.11719-.17969.0586-.08594v-.14844l-.07423-.07421-.10156-.04688-.10547-.04297-.10156-.04297-.0586-.08984-.04687-.10547-.02734-.11719.08984-.05859.11719-.03125.10156-.04297.17969-.11719.14844-.14843.01172-.13282-.01172-.10546-.08985-.0586-.1328.01563h-.14845l-.1328.01562-.13282-.01562-.1211-.03125-.08593-.0586-.07422-.07422-.0586-.08984-.0625-.08594-.11718-.17969-.0586-.08593.03125-.1211.08594-.05859.1211-.03125.05859-.08594v-.1211l-.03125-.11718-.0586-.08984-.05859-.08594-.04687-.10547-.02735-.11719-.01562-.1328.0586-.08985.07421-.07422.08984-.0586.1172-.17968.07421-.07422.0586-.08594.14843-.14844.1211-.03125.1328-.01562.13282.01562.07422.07422.04297.10547.01562.13281-.03125.1172-.11719.03124-.1328.01172-.14844.14844-.04297.10547-.04688.10156-.02734.1211-.03125.11718v.14844l.03125.11719.04297.10546.05859.08985.07422.07031.07422.07422.11719.03125.12109.02734.11719-.02734.1328-.01563h.1172l.08984.0586.07422.07422.04687.10546.0586.08594.10156.04688.13281.01562.10547.04297.08594.0586-.01172.10546-.07422.07422-.17969.11719-.05859.08984-.08984.0586-.07032.07422-.07421.07421-.0625.08985-.02735.11719-.01562.1328.01562.13282-.01562.13281v.14844l.01562.13281.02735.1172.03125.12108.07421.07422.08985.0586.08594.0586.08984.05858.11719.03125v.08594l-.10157.04688-.08984.0586-.26563.03124-.11718.02735h-.14844l-.10547.04296-.10156.04688-.0586.08984-.0625.23438-.01171.13281-.03125.1211-.01563.1328v.29298l-.01172.1328.01172.13673.01563.1328.1328.01563.13282.01172.1211.03125.08593.0586.07422.07421.04688.10547.04296.10157.01563.1328v.44532l-.01563.13281v.44532l.03125.26562.02735.11719.01562.13281.03125.11719.08594.21094.03125.26562v.14844l-.03125.11719-.02734.11718-.03125.1211-.02735.11719-.03125.11718-.03125.1211-.01171.1328-.01563.13282.08984.0586.1172-.03125.10155.01562.04688.10547-.03125.26562v.44141l-.04297.10547-.04688.10547-.04296.10156-.04297.10547-.0586.08594-.03125.12109-.04296.11719-.03125.11719-.01563.1328.01563.13282.05859.08984.10547.04688.08594.0586.05859.08593-.01172.13672-.03125.11719-.04297.10156v.44531l-.01562.13281v.14844l-.03125.11719-.04297.10547-.02735.11719-.04687.10546-.04297.10157-.03125.12109-.02734.11719-.03125.13281-.03125.11719-.02735.11719-.04297.10546-.03125.1172-.03125.12108-.01171.13282-.01563.13281v.29688l.02734.11718v.14844l.04688.39844.02734.11719.0586.08984.12109.03125h.14844l.13281-.01563.0586.08985v.11719l-.0586.08984-.08984.0586-.10157.04296-.10546.04688-.08985.05859-.08594.0586-.13671.01562-.1172-.03125-.1328-.01563-.10157.04688-.0625.08594-.01172.13671-.01562.13282-.03125.11719-.02735.11718-.01562.13281-.03125.1211v.29687l.01563.13282.03125.11718v.14844l.01171.13281v.14844l-.02734.11719-.04688.10156-.02734.1211-.03125.11718-.0586.08985-.07421.07421-.10156.04297-.10547.04688-.11719.02734-.1211.03125-.10156-.04687.0586-.08594.10547-.04688.02734-.11718.03125-.11719.02734-.1211.03125-.11718v-.14844l.01563-.13281-.03125-.11719-.04297-.10547-.10547.01563-.07422.07422-.10156.04296-.08984.0625-.07422.07422-.04297.10157-.01563.1328-.03125.1172L304.25 426l-.03125.11719-.02734.11719-.03125.12109-.02735.11719-.03125.11718-.04297.10547-.08984.0586h-.08984l-.1172-.03125-.03124-.08594.01562-.13672-.03125-.11719v-.14844l-.01171-.1328v-.14844l-.0625-.23438-.02735-.1211-.04297-.10156-.04687-.10546-.0586-.08594-.05859-.08985-.04297-.10546-.0625-.08594-.14844-.14844-.0703-.07422-.10548-.04687-.10547-.04297-.10156-.04297-.29687-.29688-.08985-.07421-.08594-.0586-.10546-.04297-.08985-.0625-.08594-.0586-.10546-.04296-.08985-.0586-.08594-.0625-.07421-.0703-.10547-.04688-.08594-.0586-.10547-.04296-.08984-.0625-.10156-.04297-.10547-.04297-.08594-.0586-.10547-.04687-.10547-.04297-.10156-.04687-.08985-.0586-.10156-.04297-.10547-.04296-.08984-.0625-.11719-.02735-.13281-.01562-.13281.01562H299.75l-.13281.01563-.11719-.03125-.08984-.0586-.07422-.07422-.08985-.05859-.10156-.04688h-.14844l-.12109-.02734-.10156-.04297-.07422-.07422-.11719-.17968-.08984-.0586-.10156-.04297-.08985-.0625-.10547-.04296-.08984-.0586-.08594-.0586-.10547-.04687-.0586-.08594-.05858-.08984-.04297-.10547-.04688-.10156-.07422-.07422-.08594-.0586-.07421-.07421-.08985-.0586-.22265-.22265-.04297-.10547-.03125-.26563.10547-.04296h.14453l.10547.04296.07421.07422.08985.0586.08594.0586.10546.04687.08985.05859.14844.14844.0703.07422.14845.14843.0625.08594.07421.07422.08594.0586.07422.07421.08985.0625.08984.0586.08594.05859.26953.17578.10156.04688.10547.04296.10156.04297.04688-.07421.05859-.08594.07422-.07422.07031-.07422.10547.04297.07422.07422.0586.08984.04296.10156.04688.10547.04296.10547.1211.02735.11719-.02735.07421-.08984.04297-.10547.0586-.08985.07422-.07421.10546-.04297.1172-.02735.1328.01172.08985.0586.14844.14843.05859.08985.04297.10547.04687.10156.04297.10547.04297.10156.10547.04688.10547.04296.13281.01563.08594-.0586.0586-.08984.07421-.07422.10547-.04297.11719.02735.10547.04687.10156.04297.10547.04297.10156.04688.17969.11718v.11719l-.01563.13281.01563.13281.01562.13672.0586.08594.10156.04688.1211.02734.11718.03125h.14844l.11719-.03125.05859-.08984.17969-.1172.05859-.08983.07422-.07422.0586-.08594.11718-.17969.17969-.11719.11719.03125.08984.0586.04297.07422-.01563.1328v.1172l.08985.05859h.14843l.13282-.01563.1328-.01171.26563-.03125.10547-.04297.11719-.03125.1211-.02735.07421-.07421.07031-.07422.0625-.08985-.01562-.10547-.04688-.10156-.10156-.04297-.10547-.01562-.11718.02734-.26563.03125h-.14844l-.07421-.07422-.08985-.0586-.11719-.03124-.11718-.02735-.13282-.01562h-.14843l-.13282.01563h-.29687l-.10547-.04688-.14844-.14844-.04297-.10156-.05859-.08984.22266-.22266.08593-.0586.10547-.04296.11719-.03125.13281-.01563.13281.01563.13672.01562.10157.04297.1328-.01172.08985-.0625.10156-.04297.0625-.08984-.04687-.10156-.08984-.0586-.1172-.03125-.10155-.04296-.0586-.08985-.0625-.08984v-.11719l.01563-.13281.10547-.04688.07421-.07031v-.1211l-.08984-.05859-.03125-.11719.08985-.05859.07421-.07422.04297-.10547.0586-.08984.04687-.10156.01563-.13281v-.14844l-.04688-.10547-.04297-.10156-.08984-.0586-.13281-.01562-.10157-.04297-.13671-.01563-.1172-.03125h-.4453l-.13282-.01562-.13281-.01172-.13281-.01563-.11719-.03125h-.14844l-.13281-.01562-.13281-.01172-.26563-.03125-.1211-.04297-.08593-.0586-.07422-.07421v-.14844l.01172-.13281.10547-.04688.10156-.04296.13281-.01563h.15235l.13281-.01562h.29297l.1211.03125.10156.04296.08984.0586.23438.0625.12109-.04688.08984-.05859.10156-.04297.13282-.01562.10547.04296.10156.04688.13281.01172.1211-.02735h.14453l.12109-.03125.11719-.02734.10547-.04687.07421-.07422.08594-.0586.14844-.14843.0586-.08594.04687-.10547.02734-.11719.01563-.10547-.10156-.04296-.08985-.0586-.11719-.03125-.10546-.04297-.08985-.0625-.07422-.08594-.07422-.07421-.10156-.04297-.10547-.04688-.10156-.04297-.0586-.08984-.04687-.10156-.08594-.21094-.0625-.08594-.05859-.08984-.07422-.07422-.08594-.0586h-.26953l-.11719.03126-.08984.05859-.10156.04297-.13281.01562-.10547-.01562-.02735-.11719-.0625-.08984-.11718-.03125-.10157-.04297-.14843-.14844-.03125-.11719-.01563-.10546.07422-.07422.17969-.1172.11719-.02733.11718-.03125.13672.01562.10156.04297.10547.04297.10156.04687.10547.04297.1172.03125.1328.01563.1172.02734.1328.01563.10547-.01563.08985-.0586-.07422-.07421-.10547-.04297-.07422-.07422-.07422-.08984-.14844-.14844-.08593-.0586-.08985-.05859-.07422-.07422-.08984-.0586-.10156-.04687-.1211-.02734-.10156-.04688-.10547-.04296-.11719-.03125-.10156-.04297-.1211-.03125h-.14843l-.11719.03125-.10546.04297-.08594.0625-.17969.11718-.08594.0586-.08984.0586-.10547.04687-.08594.05859-.10547.04297-.10156.04297-.10547.04687-.07422.07422-.05859.08985-.0586.08593-.04687.10547-.0586.08594-.07421.07422-.13281-.01172-.1172-.03125h-.11718l-.07422.07422-.08984.0586-.07422.07421-.08984.0586-.08594.05859-.10547.04687-.10156.04297-.13672.01563-.10156-.04297-.14844-.14844-.10547-.04688h-.08594l-.10547.04688-.10156.04297-.1211.03125-.11718-.03125-.07422-.07422v-.11719l.03125-.1211.07422-.0703.0586-.08985.07421-.07422.11719-.03125.10547-.04296h.29297l.13281-.01563.13672-.01563.10156-.04296.08985-.0586.10156-.04687.08984-.0586.13281-.01171.08985.05859.13281.01172.08984-.0586.08594-.05859.10547-.04297.08984-.0586.08594-.0625.08985-.05859.14843-.14843.0586-.08594.05859-.08985.10547-.04296.13281-.01563.11719.02735.1211.03125.05859-.0586.05859-.08984.03125-.26563.02734-.11719.10547.01172.13281.01563.10157-.04297.08984-.0586.0586-.08984.07421-.07422.0586-.08984.04687-.10156.01172-.13281-.01172-.13282-.04687-.10547-.14844-.14843-.0586-.08985-.05859-.08594-.04297-.10546v-.44532l.01563-.1328v-.14845l.01172-.1328-.0586-.0586-.08984.0586-.10156-.04298-.17969-.11719-.08594-.05859-.0625-.08984-.0586-.08985-.07421-.07421-.08594-.0586-.1211.03125-.10155.01172-.10547.04688-.08594.05859-.10547.04297-.14844.14844-.08984.05859-.08594.0586-.08984.0625-.10547.04296-.13281.01563v-.1211l.10547-.04297.11718-.03125.07422-.0703.04297-.10548v-.14844l-.02734-.11718-.14844-.14844-.13281-.01563h-.14844l-.11719.03125-.10547.04297-.10156.04297-.08984.0625-.11719.02735-.07422-.07422.01172-.13281-.04297-.10157-.04297-.10547-.08984-.05859-.11719.02734-.1211.03125-.11718.03125-.10156.04297-.1211.03125-.10156.04297-.10547.04297-.08984.0586-.10156.01562v-.11719l.01562-.13281-.0586-.08985-.07421.04297-.14844.14844-.0586.08985-.07421.07421-.04688.10547-.04296.10156-.07422.07422-.0586.08985-.07422.07422-.05859.08593-.07422.07422-.08984.0625-.07422.07031-.07422.07422-.10156.01563-.13281.01562-.10547-.04296v-.1211l.14843-.14844.04297-.10156.0586-.08984.04687-.10156.04297-.10547.0586-.08985.03124-.11719.04297-.10156.03125-.1211.02735-.11718.04687-.10547.04297-.10156.04297-.10547.07422-.07031.08984-.0625.08985-.0586.10156-.04296h.29687l.26563-.03125.10547-.04297-.07422-.07422-.11719-.03125-.10547-.04297-.08984-.0586-.10156-.04687-.08985-.0586-.10156-.04296-.10547-.04297-.08984-.0625-.08594-.0586-.10547-.04296-.10156-.04297-.1211-.03125-.11718-.03125-.10157-.04297L297.5 410.25l-.10156-.04297-.08985-.0586-.04296-.10546-.01563-.13281.10156-.04297.13281-.01563.13672.01563.13282-.01563.10156-.04297.0586-.08984.01562-.10547-.08985-.0586-.07421-.07421-.10157-.04297-.08984-.0586-.14844-.14843-.04297-.10547-.01562-.13281v-.29297l-.0586-.08985-.08984-.05859-.07422-.07422-.04297-.10547-.03125-.11718-.0586-.08985-.07421-.07422-.11719-.02734-.07422-.07422-.08984-.0586-.08984-.0625-.08594-.05859-.07422-.07421-.0586-.08594-.04687-.10547-.08594-.0586-.14843-.14843-.19532-.0586-.1328.01563-.10157.04297-.07422.07422-.04688.10156-.04296.10547-.0586.08984-.0586.08594-.29687.29687-.08984.0586h-.08594l-.0625-.08594-.04297-.10547.03125-.11719.0586-.08984.02734-.11719-.01172-.13281-.08984-.0625-.10547.04688-.11719.02734-.11719.03125-.26953.17578-.10156.04688-.11719.02734-.10546.04687-.08985.0586-.10156.04297-.0586-.08594-.04687-.10547.01563-.13281.04687-.10547.07031-.07422.07422-.07031.0586-.08985v-.14843l-.04297-.10547h-.23829l-.10156.04687-.03125.11719-.02734.11719-.03125.1211-.07422.04296-.13281.01563-.07422-.04688-.04297-.10156-.04297-.10547-.04687-.10156-.04297-.10547-.1211.03125-.10156.04297-.13281.01562-.11719.03125-.10547.04297-.08984.0586-.10156.04687-.1211.02734-.13281.01563-.10156-.04297-.0586-.08985-.04687-.10546-.04297-.10157-.04297-.10546v-.1172l.0586-.08984.08593-.05859.17969-.11719.10156-.04687.10547-.04297.10547-.0586.10156-.04296.08985-.0625.10156-.04297.10547-.0586.10156-.04687.08984-.0586.10547-.04296.10156-.04297.08985-.0625.10156-.04297.13672-.01563.11719.03125.10156.04297.1211.03125.10156.04297.10546.04688.10157.04296.10547.04297.10156.04688.10547.04297.10156.04297.10547.04687.08594.0586.10546.04296.1172.03125.10546.04297.10156.04688.08985.0586.10547.04296.10156.04297.10547.04687.11719.02735.10156.04687.1211.02735h.14843l.08594-.0586.01562-.10156.0586-.08984-.02735-.1172-.07422-.07421-.11719-.17969-.07421-.07422-.08985-.07421-.17969-.1172-.08593-.05859-.10547-.04296-.10156-.04688-.26954-.17578-.05859-.08985-.07422-.07421-.0586-.08985-.04296-.10156-.03125-.11719-.01563-.13672v-.5625l-.01171-.1328-.01563-.13282-.03125-.11719-.01562-.13281-.01172-.13281-.03125-.1211-.22266-.22265-.0586-.08594-.01562-.10547.03125-.11719.13281-.01562v-91.41406H172.9922v1.45312l-.0586.23438-.35156 1.05078-.17187.52343-.1172.34766-.17577.41016-.11719.17187-.23438.29297-.23046.0586h-.35157l-.11718.05859-.23047.40625v.29297l.11719.17578.23046.23047.1172.23437.64062.75781.29297.46485.17578.23437.23047.35156.23437.34766.64063.8164.17578.46485.17187.41016.11719.69531.17578.46875.11719 1.39844.0586.46484v.875l.11718 1.04688v4.78125l-.0586.46484-.35156 1.28125-.17578.52344-.11328.41015-.35156.9297L172.93359 336l-.23437.58203-.11719.17578-.17187.34766-.17578.40625-.35157.8164-.0586.29297-.11327.29297-.11719.28906-.0586.17579-.11718.875-.0586.40625-.05859.11718-.0586.17579-.05859.17187-.23047.52734-.11718.17188v.23437l-.11719.23438-.0586.17187-.17577.58594v.28906l-.0586.17579v.29296l-.0586.11329-.05859.52734v.17187l-.05468.23438v2.6211l-.17578.8164-.1172.17578-.17577.23438-.1172.17187-.11327.23438-.58594.93359-.23047.28906-.29297.46485-.17578.23437-.28906.35156-.35156.69922-.11328.23047-.17579.41016-.17578.23046-.40625.52735-.8164.69922-.29297.17187-.28906.23438-.17579.11719-.17578.17578-.52344.40625-.52734.17578-.17187.17578-.23438.05469-.64062.17578h-.75782m12.21094 31.02344l-1.07422.44921.35938.89454 1.25-.71485.44531-.53906-.98047-.08985"/><path fill="#d3d3d3" fill-opacity="0" fill-rule="evenodd" d="M201.50781 416.59766h-.89453l.44922.6289.98047.35938.80469-.08985.4453-.98828-.17577.08985-.71485-.35547-.89453.35547m154.6211 59.0703l-.0586-.52343v-.29297l.11328-.29297.0586-.23046.46875-.46875h.11328l.11719-.11329.11718-.05859h.17579l.23437-.0586h.34766l.23437.0586.11719.0586.23047.17187.0586.17578.11718.58203v.29297l-.11719.17578-.17187.28906-.17579.17579-.52734.52343-.23047.23438-.11719.0586h-.17578l-.11718-.0586-.40625-.29297-.17579-.11719-.11718-.0586-.0586-.11327-.05468-.1172m6.64062-10.95702l-.0586-.17188v-1.10937l.0586-.17188.17578-.0586.17188-.05858h.17578l.23437-.0586.1172.0586.05858.69921-.05859.17188-.11719.17578-.11718.0586-.23438.52343-.11328.0586h-.23438l-.05859-.1172m9.61328-14.39062l-.11719-.17578v-.69922l.29297-.875.1172-.17187.17577-.35156.11328-.23047.1172-.29297.35155-.75781.1172-.23047.17187-.23438h.17578l.11719-.0586h.64062l.11719.0586.23437.23438.17188.11328.35156.29297.11719.11718.11328.17579v.11328l.11719.05859.11718.11719v.69922l-.05859.17578v.23047l-.0586.17578-.34765 1.05078-.11719.23047-.11719.23437-.11718.0586-.23047.23437-.64063.28906h-.875l-.41015-.11718-.64063-.46485"/><path fill="none" stroke="#bebebe" stroke-linecap="round" stroke-linejoin="round" stroke-miterlimit="10" stroke-width=".5" d="M467.95703 311.69531H144.02734v168.625h323.9297v-168.625"/><g clip-path="url(#a)"><path fill="#fff" fill-opacity="0" fill-rule="evenodd" d="M144 475.89063v4.4375h.0039H144V311.67188h.0039H144v164.21875"/></g><g clip-path="url(#b)"><path fill="#fff" fill-opacity="0" fill-rule="evenodd" d="M144.0039 480.32813V311.67188h8.8711v155.0625l-.5625.28125.5625.23828.60547-.23829-.60547-.28125v-155.0625h8.8789v131.6875l-1.36718 1.46094-2.48828 4.4414.17578 4.4375 3.67969 4.25782 3.53515-4.25781.90235-3.58594 4.21875 3.58594.21875.35547.18359-.35547-.1836-1.27344-1.5625-3.16406-2.875-.5039-3.16796-3.9375-1.26953-1.46094v-131.6875h217.48047v145.33984l-1.35157 1.125-3.08984 3.28906-1.28125 1.14844 1.28125.89453 4.4414.35547 4.4375.30469v10.86328l-1.4453.89844 1.4453.21093.89454-.21094-.89454-.89843V464.1289l4.4375.76562 4.4375-1.25 3.01563-1.07031 1.42188-3.9336.07812-.5039-.07813-.0586-4.4375-1.05468-3.57421 1.11328-.86329.41015-4.4375 3.0625-2.30078-3.47265-2.13671-1.125V311.67187h88.76171v168.65625h-48.51562l-.30078-.29687-1.01563.29688h-21.58984l-4.02735-3.70313-2.92968 3.70313H144.0039"/></g><path fill="#50fcfc" fill-rule="evenodd" d="M152.875 467.2539l-.5625-.23827.5625-.28125.60547.28125-.60547.23828m5.19922-13.5547l-.17578-4.4375 2.48828-4.4414 1.36719-1.46094v5.125l-.58985.77735.58985 1.95312.70703-1.95312-.70703-.77735v-5.125l1.26953 1.46094 3.16797 3.9375 2.875.5039 1.5625 3.16407.18359 1.27344-.1836.35547-.21874-.35547-4.21875-3.58594-.90235 3.58594-3.53515 4.25781-3.6797-4.25781"/><path fill="#00e8fc" fill-rule="evenodd" d="M161.7539 451.21484l-.58984-1.95312.58985-.77735.70703.77735-.70703 1.95312"/><path fill="#50fcfc" fill-rule="evenodd" d="M374.79297 463.46875l-1.28125-.89453 1.28125-1.14844 3.08984-3.28906 1.35156-1.125 2.13672 1.125 2.30079 3.47265 4.4375-3.0625.86328-.41015 3.57421-1.11328 4.4375 1.05469.07813.05859-.07813.5039-1.42187 3.9336-3.01563 1.07031-4.4375 1.25-4.4375-.76562-4.4375-.3047-4.4414-.35546m8.8789 12.63281l-1.4453-.21094 1.4453-.89843.89454.89844-.89454.21093"/><g clip-path="url(#c)"><path fill="#50fcfc" fill-rule="evenodd" d="M389.61719 480.32813h2.6836l.24608-.3125.34375.3125h3.6836l-4.02735-3.70313-2.92968 3.70313"/></g><g clip-path="url(#d)"><path fill="#00e8fc" fill-rule="evenodd" d="M392.30078 480.32813l.2461-.3125.34375.3125h-.58985"/></g><g clip-path="url(#e)"><path fill="#50fcfc" fill-rule="evenodd" d="M418.16406 480.32813l1.01563-.29688.30078.29688h-1.3164"/></g><g clip-path="url(#f)"><path fill="#fff" fill-opacity="0" fill-rule="evenodd" d="M467.9961 480.32813H468V311.67188h-.0039H468v168.65625h-.0039"/></g><g clip-path="url(#g)"><path fill="none" stroke="#000" stroke-linecap="round" stroke-linejoin="round" stroke-miterlimit="10" stroke-width=".5" d="M147.51172 480.3086l-7.02344.03906"/></g><g clip-path="url(#h)"><path fill="none" stroke="#000" stroke-linecap="round" stroke-linejoin="round" stroke-miterlimit="10" stroke-width=".5" d="M147.51172 480.3086l1.16406 2.16015"/></g><g clip-path="url(#i)"><path fill="none" stroke="#000" stroke-linecap="round" stroke-linejoin="round" stroke-miterlimit="10" stroke-width=".5" d="M146.49219 480.3164l.58203 1.07813"/></g><g clip-path="url(#j)"><path fill="none" stroke="#000" stroke-linecap="round" stroke-linejoin="round" stroke-miterlimit="10" stroke-width=".5" d="M160.80469 480.73438l-6.98047-.8125"/></g><g clip-path="url(#k)"><path fill="none" stroke="#000" stroke-linecap="round" stroke-linejoin="round" stroke-miterlimit="10" stroke-width=".5" d="M160.80469 480.73438l.89453 2.28515"/></g><g clip-path="url(#l)"><path fill="none" stroke="#000" stroke-linecap="round" stroke-linejoin="round" stroke-miterlimit="10" stroke-width=".5" d="M174.0625 481.08203l-6.86328-1.50781"/></g><g clip-path="url(#m)"><path fill="none" stroke="#000" stroke-linecap="round" stroke-linejoin="round" stroke-miterlimit="10" stroke-width=".5" d="M174.0625 481.08203l.66016 2.36328"/></g><g clip-path="url(#n)"><path fill="none" stroke="#000" stroke-linecap="round" stroke-linejoin="round" stroke-miterlimit="10" stroke-width=".5" d="M187.36719 481.13281l-6.84375-1.60547"/></g><g clip-path="url(#o)"><path fill="none" stroke="#000" stroke-linecap="round" stroke-linejoin="round" stroke-miterlimit="10" stroke-width=".5" d="M187.36719 481.13281l.625 2.3711"/></g><g clip-path="url(#p)"><path fill="none" stroke="#000" stroke-linecap="round" stroke-linejoin="round" stroke-miterlimit="10" stroke-width=".5" d="M200.6875 481.10938l-6.85156-1.5586"/></g><g clip-path="url(#q)"><path fill="none" stroke="#000" stroke-linecap="round" stroke-linejoin="round" stroke-miterlimit="10" stroke-width=".5" d="M200.6875 481.10938l.64063 2.36718"/></g><g clip-path="url(#r)"><path fill="none" stroke="#000" stroke-linecap="round" stroke-linejoin="round" stroke-miterlimit="10" stroke-width=".5" d="M214.04297 480.88672l-6.9375-1.11719"/></g><g clip-path="url(#s)"><path fill="none" stroke="#000" stroke-linecap="round" stroke-linejoin="round" stroke-miterlimit="10" stroke-width=".5" d="M214.04297 480.88672l.79297 2.32422"/></g><g clip-path="url(#t)"><path fill="none" stroke="#000" stroke-linecap="round" stroke-linejoin="round" stroke-miterlimit="10" stroke-width=".5" d="M227.40234 480.3086l-7.02734.04296"/></g><g clip-path="url(#u)"><path fill="none" stroke="#000" stroke-linecap="round" stroke-linejoin="round" stroke-miterlimit="10" stroke-width=".5" d="M227.40234 480.3086l1.16797 2.16015"/></g><g clip-path="url(#v)"><path fill="none" stroke="#000" stroke-linecap="round" stroke-linejoin="round" stroke-miterlimit="10" stroke-width=".5" d="M240.69531 479.92969l-6.98047.79687"/></g><g clip-path="url(#w)"><path fill="none" stroke="#000" stroke-linecap="round" stroke-linejoin="round" stroke-miterlimit="10" stroke-width=".5" d="M239.67969 480.04688l.69531 1.01171"/></g><g clip-path="url(#x)"><path fill="none" stroke="#000" stroke-linecap="round" stroke-linejoin="round" stroke-miterlimit="10" stroke-width=".5" d="M253.9375 479.51172l-6.83203 1.63672"/></g><g clip-path="url(#y)"><path fill="none" stroke="#000" stroke-linecap="round" stroke-linejoin="round" stroke-miterlimit="10" stroke-width=".5" d="M252.9414 479.75l.8125.91797"/></g><g clip-path="url(#z)"><path fill="none" stroke="#000" stroke-linecap="round" stroke-linejoin="round" stroke-miterlimit="10" stroke-width=".5" d="M267.16797 479.21094l-6.66406 2.23437"/></g><g clip-path="url(#A)"><path fill="none" stroke="#000" stroke-linecap="round" stroke-linejoin="round" stroke-miterlimit="10" stroke-width=".5" d="M266.19922 479.53516l.89062.84375"/></g><g clip-path="url(#B)"><path fill="none" stroke="#000" stroke-linecap="round" stroke-linejoin="round" stroke-miterlimit="10" stroke-width=".5" d="M280.29297 478.76172l-6.28516 3.13672"/></g><g clip-path="url(#C)"><path fill="none" stroke="#000" stroke-linecap="round" stroke-linejoin="round" stroke-miterlimit="10" stroke-width=".5" d="M291.17578 476.88672l-1.42187 6.88281"/></g><g clip-path="url(#D)"><path fill="none" stroke="#000" stroke-linecap="round" stroke-linejoin="round" stroke-miterlimit="10" stroke-width=".5" d="M303.27344 476.85156l1.01562 6.95313"/></g><g clip-path="url(#E)"><path fill="none" stroke="#000" stroke-linecap="round" stroke-linejoin="round" stroke-miterlimit="10" stroke-width=".5" d="M316.99219 476.8164l.20703 7.02344"/></g><path fill="none" stroke="#000" stroke-linecap="round" stroke-linejoin="round" stroke-miterlimit="10" stroke-width=".5" d="M317.02344 477.83984l1.0664-.60937"/><g clip-path="url(#F)"><path fill="none" stroke="#000" stroke-linecap="round" stroke-linejoin="round" stroke-miterlimit="10" stroke-width=".5" d="M329.375 476.97266l2.07422 6.71484"/></g><path fill="none" stroke="#000" stroke-linecap="round" stroke-linejoin="round" stroke-miterlimit="10" stroke-width=".5" d="M329.67578 477.94922l.86328-.8711"/><g clip-path="url(#G)"><path fill="none" stroke="#000" stroke-linecap="round" stroke-linejoin="round" stroke-miterlimit="10" stroke-width=".5" d="M341.04297 478.0586l5.36328 4.53906"/></g><path fill="none" stroke="#000" stroke-linecap="round" stroke-linejoin="round" stroke-miterlimit="10" stroke-width=".5" d="M341.82422 478.71875l.26172-1.19922"/><g clip-path="url(#H)"><path fill="none" stroke="#000" stroke-linecap="round" stroke-linejoin="round" stroke-miterlimit="10" stroke-width=".5" d="M354.08984 478.42188l5.90235 3.8125"/></g><path fill="none" stroke="#000" stroke-linecap="round" stroke-linejoin="round" stroke-miterlimit="10" stroke-width=".5" d="M354.94922 478.97656l.10156-1.22265"/><g clip-path="url(#I)"><path fill="none" stroke="#000" stroke-linecap="round" stroke-linejoin="round" stroke-miterlimit="10" stroke-width=".5" d="M367.3164 478.5664l6.07813 3.52735"/></g><path fill="none" stroke="#000" stroke-linecap="round" stroke-linejoin="round" stroke-miterlimit="10" stroke-width=".5" d="M368.20313 479.07813l.04296-1.22657"/><g clip-path="url(#J)"><path fill="none" stroke="#000" stroke-linecap="round" stroke-linejoin="round" stroke-miterlimit="10" stroke-width=".5" d="M380.98828 478.0586l5.36719 4.53906"/></g><path fill="none" stroke="#000" stroke-linecap="round" stroke-linejoin="round" stroke-miterlimit="10" stroke-width=".5" d="M381.76953 478.71875l.25781-1.19922"/><g clip-path="url(#K)"><path fill="none" stroke="#000" stroke-linecap="round" stroke-linejoin="round" stroke-miterlimit="10" stroke-width=".5" d="M394.80078 477.57813l4.3711 5.5039"/></g><path fill="none" stroke="#000" stroke-linecap="round" stroke-linejoin="round" stroke-miterlimit="10" stroke-width=".5" d="M395.4375 478.3789l.48828-1.125"/><g clip-path="url(#L)"><path fill="none" stroke="#000" stroke-linecap="round" stroke-linejoin="round" stroke-miterlimit="10" stroke-width=".5" d="M409.15234 477.00781l2.30079 6.64063"/></g><g clip-path="url(#M)"><path fill="none" stroke="#000" stroke-linecap="round" stroke-linejoin="round" stroke-miterlimit="10" stroke-width=".5" d="M426.375 478.15234l-5.51563 4.35547"/></g><path fill="none" stroke="#000" stroke-linecap="round" stroke-linejoin="round" stroke-miterlimit="10" stroke-width=".5" d="M425.57031 478.78516l1.125.49218"/><g clip-path="url(#N)"><path fill="none" stroke="#000" stroke-linecap="round" stroke-linejoin="round" stroke-miterlimit="10" stroke-width=".5" d="M437.00781 476.8164l-.15234 7.02344"/></g><path fill="none" stroke="#000" stroke-linecap="round" stroke-linejoin="round" stroke-miterlimit="10" stroke-width=".5" d="M436.98828 477.83984l1.09375-.55468"/><g clip-path="url(#O)"><path fill="none" stroke="#000" stroke-linecap="round" stroke-linejoin="round" stroke-miterlimit="10" stroke-width=".5" d="M451.35547 476.9961l-2.21875 6.66796"/></g><path fill="none" stroke="#000" stroke-linecap="round" stroke-linejoin="round" stroke-miterlimit="10" stroke-width=".5" d="M451.03125 477.96484l1.21094-.20312"/><g clip-path="url(#P)"><path fill="none" stroke="#000" stroke-linecap="round" stroke-linejoin="round" stroke-miterlimit="10" stroke-width=".5" d="M466.47266 478.35938l-5.82032 3.9414"/></g><g clip-path="url(#Q)"><path fill="none" stroke="#000" stroke-linecap="round" stroke-linejoin="round" stroke-miterlimit="10" stroke-width=".5" d="M466.47266 478.35938l2.16796 1.14843"/></g><g clip-path="url(#R)"><path fill="none" stroke="#000" stroke-linecap="round" stroke-linejoin="round" stroke-miterlimit="10" stroke-width=".5" d="M147.51172 466.89453l-7.02344.23828"/></g><path fill="none" stroke="#000" stroke-linecap="round" stroke-linejoin="round" stroke-miterlimit="10" stroke-width=".5" d="M147.51172 466.89453l1.22266 2.125m-2.2461-2.08984l.61328 1.0625m13.72656-1.05469l-7.02734.15234m7.02734-.15234l1.19922 2.14063m12.0547-1.41407l-6.90626-1.30078m6.90625 1.30078l.73047 2.33985m12.54688-2.16797l-6.82813-1.64453m6.82813 1.64453l.61328 2.3789m12.78515-2.8828l-6.9961-.63673m6.9961.63672l.95313 2.26172m12.36719-2.85937l-7.00391.55859m7.0039-.5586l1.32032 2.06641m11.9414-2.45312l-6.89843 1.33203m6.89843-1.33203l1.54297 1.91015m11.71094-2.17578l-6.77734 1.86328m6.77734-1.86328l1.6836 1.78516m11.3828-2.4336l-6.27734 3.16016m5.36328-2.69922l1 .70703m12.73047-1.90234l-5.28515 4.6289m5.28515-4.6289l2.29688.8711m11.14453-.72266l-5.53516 4.33203m4.73047-3.69922l1.1211.4961m12.48046-1.66407l-4.49609 5.40234m3.83984-4.61718l1.20313.25m13.11719-.69922l-5.19532 4.73047m4.4375-4.04297l1.15625.41406m12.04297-1.79687l-3.44922 6.12109m2.94922-5.23047l1.22656.03125m12.25391-1.08594l-2.78125 6.44922m2.78125-6.44922l2.44922-.19922m10.5039.06641l-2.05859 6.71875m2.0586-6.71875l2.41015-.46875m10.55078.3789l-1.34765 6.89454m1.34765-6.89453l2.34766-.71485m9.67969.70313l1.22656 6.91797m-1.22656-6.91797l1.9336-1.51172m8.8828 3.33984l6.22657 3.26172m-5.32032-2.78515l-.0078-1.22657m13.16796-.21875l4.72266 5.19922m-4.03516-4.44531l.41406-1.15234m14.66016-.51563l-.17188 7.02734m.14844-6.0039l1.09766-.55078m13.79687-.06641l-3.28515 6.21484m2.80859-5.30859l1.22656-.0039m10.80078-1.3047l.2461 7.01954m-.21094-6l1.0625-.61328m13.99219.0039l-3.30469 6.19922m2.82422-5.29687h1.22656m13.28906-.39453l-4.74218 5.18359m4.05078-4.42969l1.1875.30469"/><g clip-path="url(#S)"><path fill="none" stroke="#000" stroke-linecap="round" stroke-linejoin="round" stroke-miterlimit="10" stroke-width=".5" d="M147.51172 453.64453l-7.02344.10547"/></g><path fill="none" stroke="#000" stroke-linecap="round" stroke-linejoin="round" stroke-miterlimit="10" stroke-width=".5" d="M147.51172 453.64453l1.1875 2.14844m-2.20703-2.13281l.58984 1.07422m13.72266-1.4375l-6.98047.80078m6.98047-.80078l1.39062 2.02343m-2.40625-1.90625l.69531 1.01172m13.66016-.76953l-7.02734.08594m7.02734-.08594l1.17578 2.15234m-2.19922-2.14062l1.1797 2.15234m13.08593-2.82422l-6.88281 1.40625m6.8828-1.40625l1.5625 1.89063m-2.5625-1.6875l1.5625 1.89062m12.57423-2.6953L193.99609 455m6.52735-2.60547l1.875 1.58594m-2.82422-1.20703l.9375.79297m13.1836-1.48438l-6.23829 3.23438m6.23828-3.23438l2.01953 1.39453m-2.92968-.92578l1.01172.69922m13.1289-1.32422l-6.07031 3.54297m6.07031-3.54297l2.08594 1.29297m-2.96875-.77734l1.04297.64843m13.19531-1.09375l-6.14844 3.40235m6.14844-3.40235l2.05469 1.33985m-2.94922-.84375l1.02734.66797m12.99219-1.46485l-5.77344 4.0039m5.77344-4.0039l2.1836 1.125m-3.02344-.54297l1.09375.5625m12.92968-1.3203l-5.51172 4.35937m5.51172-4.35938l2.25.98438m-3.05078-.35157l1.125.4922m12.89844-1.23829l-5.32422 4.58594m5.32422-4.58594l2.28906.89063m-3.0625-.22266l1.14453.44531m12.87891-1.1875l-5.19531 4.73438m5.19531-4.73438l2.3125.82422m-3.0664-.13672l1.15234.41406m12.94922-1.0625l-5.26172 4.65625m5.26172-4.65625l2.30078.85938m-3.0664-.1836l1.15233.4297m12.94532-1.08985l-5.29297 4.6211m5.29297-4.6211l2.29297.875m-3.0625-.20313l1.14453.4375m12.66406-1.39062l-4.73828 5.1875m4.73828-5.1875l2.375.60937m-3.0664.14454l1.1914.30468m12.625-1.21875l-4.36328 5.50782m4.36328-5.50782l2.41406.4414m10.5625-.67968l-3.6836 5.98438m3.6836-5.98438l2.44922.15625m9.92578-.5586l-1.80469 6.78907m1.8047-6.78906l2.39062-.5586m9.72265.45313l.59766 7m-.50781-5.98438l1.02734-.66406m13.32422-.26562l-1.65234 6.82812m1.41406-5.83594l1.1875-.30468m14.14453.36718l-5.21094 4.71875m4.45313-4.03125l1.15234.41407m12.25-1.67578l-3.86719 5.86718m3.3047-5.01562l1.21874.11719m12.78516-.88282l-4.1211 5.6914m3.52344-4.86327l1.21484.17187m13.4336-.28125l-5.58985 4.25782m4.77344-3.64063l1.11719.51563m13.61328.09765l-6.79297 1.79297"/><g clip-path="url(#T)"><path fill="none" stroke="#000" stroke-linecap="round" stroke-linejoin="round" stroke-miterlimit="10" stroke-width=".5" d="M466.95703 452.80078l1.66797 1.80078"/></g><g clip-path="url(#U)"><path fill="none" stroke="#000" stroke-linecap="round" stroke-linejoin="round" stroke-miterlimit="10" stroke-width=".5" d="M147.48828 440.8086l-6.97656-.84766"/></g><path fill="none" stroke="#000" stroke-linecap="round" stroke-linejoin="round" stroke-miterlimit="10" stroke-width=".5" d="M147.48828 440.8086l.88281 2.28906m-1.89843-2.41407l.4414 1.14453m13.91406-1.33593l-7.02343-.21875m7.02344.21875l1.08203 2.20312m-2.10547-2.23437l.54297 1.10156m13.79687-1.16797l-7.02734-.01953m7.02734.01953l1.14453 2.16797m-2.16797-2.17188l1.14453 2.16797m13.17188-2.55468l-6.98438.7578m6.98438-.7578l1.3789 2.03125m-2.39452-1.91797l1.3789 2.02734m12.89063-2.52344l-6.85938 1.52344m6.85938-1.52344l1.59375 1.8672m-2.59375-1.64454l.79687.9336m13.25781-1.90626l-6.33984 3.02735m6.33984-3.02735l1.97266 1.45703m-2.89453-1.01562l.98437.72656m13.28516-1.09765l-6.40625 2.8828m6.40625-2.8828l1.9414 1.5039m-2.87109-1.08203l.96875.75m12.8789-1.84375L234.40235 442.5m5.60938-4.23047l2.22266 1.03516m-3.03907-.42188l1.10938.51953m12.58594-1.61328l-4.7422 5.1875m4.7422-5.1875l2.3789.61328m11.22656-.3164l-5.3203 4.59375m5.3203-4.59375l2.28516.88672m10.73047-1.19141l-4.71875 5.20703m4.71875-5.20703l2.3789.60156m10.40235-1l-3.65625 6m3.65625-6l2.44922.14453m12.10937 1.14844l-6.14062 3.41406m6.14062-3.41406l2.0586 1.33594m-2.95313-.83985l1.03125.66797m12.92578-1.55468l-5.63672 4.19921m5.63672-4.19921l2.21875 1.04687m10.8086-1.38281l-5.0625 4.8711m5.0625-4.8711l2.33203.76172m10.88281-.86328l-4.86328 5.07421m4.86328-5.07421l2.36328.66796m-3.07031.07032l1.17969.33203M357.98437 437l-1.8828 6.76953m1.60546-5.78516l1.19922-.26562m13.07812-.44922l-3.2539 6.22656m3.2539-6.22656l2.45313-.01953m12.71875 3.57031l-6.97266-.8711m5.96094.7422l.4375 1.14843m13.90625-1.73828l-7.0039.5625m5.98437-.48047l.66016 1.03516m13.65625-.39063l-6.96875-.88671m5.95703.7578l.4336 1.14454m13.77733-2.45703l-6.73828 1.99219m6.73828-1.9922l1.71875 1.75391m11.16407-2.6875l-5.8711 3.85938m5.8711-3.85938l2.15234 1.1797m-3.00781-.6172l1.07812.58985m13.54688-.14453l-6.78125 1.84765m6.78125-1.84765l1.67969 1.78515m11.71484-.3203l-6.9414-1.08595"/><g clip-path="url(#V)"><path fill="none" stroke="#000" stroke-linecap="round" stroke-linejoin="round" stroke-miterlimit="10" stroke-width=".5" d="M467.03125 440.92578l.80469 2.32031"/></g><g clip-path="url(#W)"><path fill="none" stroke="#000" stroke-linecap="round" stroke-linejoin="round" stroke-miterlimit="10" stroke-width=".5" d="M147.5039 427.33594l-7.0078-.53516"/></g><path fill="none" stroke="#000" stroke-linecap="round" stroke-linejoin="round" stroke-miterlimit="10" stroke-width=".5" d="M147.5039 427.33594l.98048 2.25m12.30859-2.01563l-6.95703-1.0039m6.95703 1.0039l.82812 2.3125m-1.83984-2.45703l.41406 1.15625m13.92969-1.16015l-6.99219-.70704m6.99219.70703l.92969 2.26954m-1.94531-2.375l.46484 1.13672m13.85156-1.85547l-6.96094.9414m6.96094-.9414l1.4336 1.99218m11.58984-2.99218l-6.3789 2.9414m6.3789-2.9414l1.95312 1.48437m11.33203-1.55078l-6.3203 3.07422m6.3203-3.07422l1.98438 1.44531m10.8789-2.14844l-5.41406 4.48047m5.41407-4.48047l2.26953.9375m11.60156.00391l-6.52734 2.59766m6.52734-2.59766l1.8711 1.58594m11.39452-1.71094l-6.42578 2.84766m6.42578-2.84766l1.9297 1.51563m-2.8672-1.10157l.96485.75782m12.8086-1.95313l-5.46876 4.41016m5.46875-4.41016l2.25781.96485m10.96485-1.07422l-5.28516 4.6289m5.28516-4.6289l2.29297.87109m10.84375-1.0625L288 429.57422m4.21484-4.28125l1.17578.34765m13.1836-.70312l-5.58594 4.26172m4.77344-3.64063l1.11328.51172m12.71875-1.47265l-4.9961 4.9414m4.9961-4.9414l2.34375.73046m11.26172-.39843l-5.57422 4.27734m5.57422-4.27734l2.23047 1.01562m11.47265-.3789l-6.35156 3.0039m6.35156-3.0039l1.96875 1.46875m11.14844-1.83204l-5.95703 3.73047m5.95703-3.73047l2.125 1.22657m10.7461-1.79688l-5.07032 4.8711m5.07031-4.8711l2.33204.76563m11.05468-.6875l-5.21093 4.71484m5.21093-4.71484l2.3047.83203m11.90624 1.79687l-7.0039-.54297m7.0039.54297l.98047 2.25m12.34766-2.57422l-7.02735.10547m7.02735-.10547L415 429.16406m11.73047-3.72265l-6.22656 3.2539m6.22656-3.2539l2.02344 1.38672m-2.9297-.91407l1.01173.69531m12.84765-1.72265l-5.5039 4.36719m5.5039-4.3672l2.25.98048m-3.05078-.34766l1.125.49219m13.41797-.4414l-6.35937 2.99609m6.35937-2.9961l1.96484 1.47266M452.5 426.0078l.98437.73438m13.57422.6836l-6.99218-.71485"/><g clip-path="url(#X)"><path fill="none" stroke="#000" stroke-linecap="round" stroke-linejoin="round" stroke-miterlimit="10" stroke-width=".5" d="M467.0586 427.42578l.92577 2.26953"/></g><path fill="none" stroke="#000" stroke-linecap="round" stroke-linejoin="round" stroke-miterlimit="10" stroke-width=".5" d="M466.03906 427.32031l.46485 1.13672"/><g clip-path="url(#Y)"><path fill="none" stroke="#000" stroke-linecap="round" stroke-linejoin="round" stroke-miterlimit="10" stroke-width=".5" d="M147.5 414.04297l-7-.57813"/></g><path fill="none" stroke="#000" stroke-linecap="round" stroke-linejoin="round" stroke-miterlimit="10" stroke-width=".5" d="M147.5 414.04297l.97266 2.25m12.33984-2.21485l-6.9961-.64843m6.9961.64844l.94922 2.26171m-1.96484-2.35547l.47265 1.12891m13.85547-.99219l-6.98828-.73437m6.98828.73437l.91797 2.27344m12.39453-2.24219l-6.98438-.79687m6.98438.79687l.89844 2.28125m12.26953-3.7578l-6.6914 2.15234m5.71874-1.83594l.8789.85156m13.28907-1.48047l-6.45312 2.78125m6.45312-2.78125l1.91797 1.53516m11.03125-2.1875l-5.71875 4.08594m4.88672-3.4922l1.09766.54688m13.55468-.10547l-6.73047 2.01563m5.75391-1.72266l.85938.8711m13.45703-1.08203l-6.78125 1.84765m5.79687-1.57812l.83984.89453m13.46875-1.13672l-6.79687 1.79297m6.79688-1.79297l1.66406 1.80078m11.07812-2.98828l-5.65234 4.17187m5.65234-4.17187l2.21485 1.0586m10.91406-1.29298l-5.27735 4.64063m5.27735-4.64063l2.29297.86329m11.875 1.0625l-6.98438.78906m5.96875-.67578l.6914 1.01172m13.4297-1.98047l-6.56641 2.5m5.61328-2.13672l.92188.8086m13.53125-.47657l-6.9375 1.10547m5.92968-.9414l.73828.97655m13.59766-.10156l-6.96094-.96875m5.94532.82813l.42187 1.15234m13.69531-2.78906l-6.53515 2.58594m6.53515-2.58594l1.8672 1.58984m11.03124-2.35156l-5.69922 4.10937m5.69922-4.10937l2.19922 1.08203M386.71485 412l-6.08985 3.50781M386.71484 412l2.08203 1.30469m-2.96484-.79297l1.03906.64844m12.98438-1.4375l-5.73828 4.0625m5.73828-4.0625l2.1914 1.10156m-3.02734-.51172l1.09766.55078m13.13281-1.01953l-5.89844 3.82031m5.89844-3.82031l2.14453 1.1914m-3.0039-.63671l1.07421.59375m13.07032-1.1914l-5.83985 3.90624m5.83985-3.90625l2.16406 1.15625m11.20703-1.07422l-5.94922 3.74219m5.94922-3.74219l2.1289 1.21875m11.3047-1.01562l-6.1836 3.33594m6.1836-3.33594l2.04296 1.35937m11.54688-.69922l-6.73438 2.01563"/><g clip-path="url(#Z)"><path fill="none" stroke="#000" stroke-linecap="round" stroke-linejoin="round" stroke-miterlimit="10" stroke-width=".5" d="M466.92969 412.7461l1.72265 1.74609"/></g><g clip-path="url(#aa)"><path fill="none" stroke="#000" stroke-linecap="round" stroke-linejoin="round" stroke-miterlimit="10" stroke-width=".5" d="M147.44922 401.10938l-6.89844-1.34375"/></g><path fill="none" stroke="#000" stroke-linecap="round" stroke-linejoin="round" stroke-miterlimit="10" stroke-width=".5" d="M147.44922 401.10938l.71484 2.34765m12.65625-2.7539l-7.00781-.52735m7.00781.52735l.98438 2.24609m12.33203-2.70313l-7.01563.38672m7.01563-.38672l1.26953 2.09766m12.0039-2.48438l-6.92968 1.15625m6.92969-1.15625l1.49218 1.94922m11.84766-1.76562l-6.98047.78906m5.96484-.67578l.69532 1.01172m13.61328-1.29688l-6.9336 1.13672m6.9336-1.13672l1.48828 1.94922m11.84766-1.80078l-6.97657.83594m6.97657-.83594l1.40234 2.01563m-2.41797-1.89454l.70313 1.00782m13.64843-.88281l-7.01953.34375m7.01953-.34375l1.25782 2.10546m-2.27735-2.05468l.625 1.05468m13.66797-1.48437l-6.9375 1.10547m6.9375-1.10547l1.48047 1.95703m11.44922-3.09375l-6.16406 3.375m6.16406-3.375l2.05078 1.34766m11.13672-1.5625l-5.90625 3.80859m5.04687-3.2539l1.07032.59765m13.07421-1.19531l-5.85156 3.89062m5-3.32422l1.08203.58204m13.5-.28907l-6.67968 2.17578m5.70703-1.85937l.88281.85156m13.57813-.0664l-7.02735-.03125m6.0039.02734l.57423 1.08594m13.71875-1.65625l-6.9375 1.11718m5.92968-.95312l.73829.97656m13.46484-1.64062L340.375 401.5m5.72656-1.8125l.875.85547m13.5664-.38672l-7.0039.5664M372.6172 397.75l-4.52344 5.375m18.03906-5.1914l-4.92578 5.01171m4.92578-5.01172l2.35547.69532m11.09375-.5586l-5.1914 4.73438m5.1914-4.73438l2.3125.82422m11.5664.0039l-6.3203 3.07813m6.3203-3.07812l1.98438 1.44531m11.10938-1.82813l-5.8789 3.84766m5.8789-3.84765l2.15234 1.17968m11.11719-1.25l-5.78516 3.98438m5.78516-3.98438l2.17969 1.13281m11.38671-.71093l-6.28515 3.14062m6.28515-3.14062l1.9961 1.42187m11.40625-1.22656l-6.46485 2.75"/><g clip-path="url(#ab)"><path fill="none" stroke="#000" stroke-linecap="round" stroke-linejoin="round" stroke-miterlimit="10" stroke-width=".5" d="M466.79297 399.0625l1.91015 1.54297"/></g><g clip-path="url(#ac)"><path fill="none" stroke="#000" stroke-linecap="round" stroke-linejoin="round" stroke-miterlimit="10" stroke-width=".5" d="M147.47656 386.60547l-6.95312 1.03515"/></g><path fill="none" stroke="#000" stroke-linecap="round" stroke-linejoin="round" stroke-miterlimit="10" stroke-width=".5" d="M147.47656 386.60547l1.45703 1.97265m11.83985-2.08593l-6.91406 1.26172m6.91406-1.26172l1.51953 1.92578m11.73437-2.19531l-6.79297 1.80078m6.79297-1.80078l1.66797 1.79687m11.53125.35547l-6.5625-2.5039m5.60938 2.14062l.15234 1.21875m13.88672-.3711l-6.10547-3.47265m5.21875 2.96875l-.03516 1.22656m14.56641-1.51172l-6.76562-1.89453m6.76562 1.89453l.52734 2.39844m12.91016-3.08594l-7.00781-.51953m7.00781.51953l.98828 2.2461m12.32422-2.79688l-7.0039.58203m7.0039-.58203l1.32813 2.0664m11.84375-2.8125l-6.71485 2.07423m6.71485-2.07422l1.73828 1.72656m11.51562-1.90625l-6.59375 2.4375m6.59375-2.4375l1.83203 1.6289m11.4961-1.58593l-6.6211 2.34765m6.6211-2.34765l1.8125 1.65625m11.6211-1.2539l-6.85548 1.54296m5.85547-1.32031l.80078.9336m13.44922-1.39844l-6.72656 2.02734m5.75-1.73047l.86328.8711m13.53125-.71485l-6.9336 1.1211m5.92579-.95704l.74218.97656m13.6172-.875l-7.00391.58985m5.98437-.5039l.66406 1.03124m13.52735-1.85156l-6.71875 2.0586m5.74218-1.75782l.8672.86719m13.55468-.54297l-6.98047.8086m5.96484-.69141l.69532 1.01172m13.50781-1.7422l-6.72656 2.03907m6.72656-2.03906l1.73047 1.73828m11.17187-2.6289l-5.89843 3.8164m5.89843-3.8164l2.14453 1.1914m11.22266-1.10938l-6.0039 3.65235m6.0039-3.65235l2.10938 1.25391m11.34765-.99219l-6.28906 3.12891m6.28906-3.1289l2 1.42577m11.26172-1.53125l-6.17969 3.34375m6.1797-3.34375l2.04296 1.35547m11.24219-1.41406l-6.1211 3.45703m6.1211-3.45703l2.0664 1.32031m11.32032-1.1875l-6.26172 3.19141m6.26172-3.1914l2.0078 1.41015m11.63282-.42969l-6.91797 1.23047"/><g clip-path="url(#ad)"><path fill="none" stroke="#000" stroke-linecap="round" stroke-linejoin="round" stroke-miterlimit="10" stroke-width=".5" d="M467.01953 386.50781l1.51563 1.9336"/></g><g clip-path="url(#ae)"><path fill="none" stroke="#000" stroke-linecap="round" stroke-linejoin="round" stroke-miterlimit="10" stroke-width=".5" d="M147.3086 372.6289l-6.6172 2.35938"/></g><path fill="none" stroke="#000" stroke-linecap="round" stroke-linejoin="round" stroke-miterlimit="10" stroke-width=".5" d="M147.3086 372.6289l1.8125 1.65235m-2.77344-1.3086l.90625.82423m13.48828-.76172l-6.85547 1.54687m6.85547-1.54687l1.60156 1.85937m-2.59766-1.63281l.80078.92969m13.58204-.6836l-7 .60156m7-.60156l1.33593 2.0586m-2.35156-1.97266l.66406 1.03125m13.20313.95313l-6.07031-3.53907m6.0703 3.53906l-.09765 2.45313m-.78515-2.96875l-.05078 1.22656m14.2578-.73047l-6.08984-3.5039m6.08985 3.5039l-.08203 2.45313m13.71484-3.17969l-6.72266-2.04687m6.72266 2.04687l.46875 2.40625m12.97656-3.03515l-6.98437-.78907m6.98437.78906l.90235 2.28125m12.41797-2.98828l-6.9961.625m6.9961-.625l1.34375 2.0547m-2.35938-1.96485l.66797 1.02734m13.52734-1.82422l-6.72656 2.03906m6.72656-2.03906l1.73047 1.74219m-2.70703-1.44531l.86328.8711m13.34375-1.41798l-6.55469 2.53516m6.5547-2.53516l1.85546 1.60547m-2.8086-1.23437l.92579.80078m13.33203-1.1914l-6.53516 2.57812m6.53516-2.57813l1.86719 1.58985m11.54297-1.31641l-6.72657 2.03125m6.72657-2.03125l1.73046 1.73828m11.59766-1.70313l-6.75 1.96094m6.75-1.96094l1.71094 1.75782m11.69531-1.34375l-6.9336 1.13281m6.9336-1.13281l1.48828 1.95312m11.84375-1.83203l-6.96875.89063m6.96875-.89063l1.41797 2.0039m11.90625-1.1875l-6.98828-.74218m6.98828.74219l.91797 2.27734m12.40234-2.30078l-6.99218-.69922m6.99218.69922l.92969 2.27344m12.39844-2.75781l-7.02344.27343m7.02344-.27344l1.23437 2.1211m11.875-3.17969l-6.60937 2.39063m6.60937-2.39063l1.82032 1.64453m11.48437-1.66406l-6.58984 2.42969m6.58984-2.42969l1.83203 1.63281m11.26953-2.10547l-6.16406 3.375m6.16406-3.375l2.05078 1.34766m11.46094-.92188l-6.5586 2.52344m6.5586-2.52344l1.85547 1.60547m11.58203-1.23437l-6.80078 1.78125m6.80078-1.78125l1.66016 1.80469m11.28906-2.6875l-6.07031 3.54687m6.07031-3.54687l2.08594 1.28906m11.66797-.03125l-6.94922 1.03125m5.9414-.88281l.72657.98828"/><g clip-path="url(#af)"><path fill="none" stroke="#000" stroke-linecap="round" stroke-linejoin="round" stroke-miterlimit="10" stroke-width=".5" d="M146.88281 358.48828L141.1172 362.5"/></g><path fill="none" stroke="#000" stroke-linecap="round" stroke-linejoin="round" stroke-miterlimit="10" stroke-width=".5" d="M146.88281 358.48828l2.1836 1.1211m-3.01953-.53907l1.08984.5625m13.35547-.64062l-6.35547 3m6.35547-3l1.96484 1.46875m11.6875.08203l-7.02734-.10156m7.02734.10156l1.11719 2.1836m-2.14063-2.19532l.5586 1.08984m13.5.2422l-6.46875-2.73829m6.46875 2.73828l.21875 2.44531m-1.16016-2.84375l.10938 1.22266m14.15625-.83984l-6.48438-2.71094m6.48438 2.71094l.22656 2.4453m-1.17188-2.83983l.11328 1.22265M214.05078 361l-6.95312-1.01172M214.05078 361l.82813 2.3086m-1.83985-2.45704l.41406 1.15625m13.9336-1.16406l-6.99219-.69922m6.99219.69922l.92969 2.26953m-1.94532-2.3711l.46485 1.13282m13.8711-1.67188l-7.00392.58204m7.00391-.58204l1.32813 2.0625m-2.34766-1.98046l.66406 1.03125m13.61328-1.52344l-6.88672 1.40234m6.88672-1.40234l1.5586 1.89062m-2.5625-1.6875l.78125.94532m13.40625-1.6211l-6.625 2.34766m6.625-2.34766l1.8086 1.65625m-2.77345-1.3164l.90625.82812m13.41407-1.04297l-6.70703 2.09766m6.70703-2.09766l1.74609 1.72266m-2.72266-1.41797l.875.86328m13.46485-1.0039l-6.80078 1.76562m6.80078-1.76563l1.66015 1.8086m11.67188-1.73438l-6.83594 1.6172m6.83594-1.6172l1.6211 1.84375m11.77734-1.34375l-7 .6172m7-.6172l1.33593 2.0586m11.9922-1.73438l-7.02735-.03125m7.02734.03125l1.14063 2.17188m12.17187-2.125l-7.02344-.1211m7.02344.1211l1.11719 2.1836m-2.13672-2.20313l.55469 1.09375m13.77343-1.3711l-7.01171.47266m7.01171-.47266l1.29297 2.08594m-2.3125-2.01563l.64844 1.03907m13.67969-1.21094l-6.9961.67188m6.9961-.67188l1.35156 2.04688m-2.3711-1.94922l.67579 1.02343m13.57031-1.6328l-6.82031 1.6953m6.82031-1.6953l1.64063 1.82421m-2.63282-1.57813l.82032.91407m13.48828-1.14453l-6.82422 1.66406m6.82422-1.66406l1.63281 1.83203m-2.625-1.58985l.8164.91797m13.53516-.96875l-6.91015 1.28125m6.91015-1.28125l1.52735 1.92188m-2.53516-1.73438l.76562.96094m13.57813-1l-6.95703.98828M427.09375 360l1.44531 1.98047m-2.45703-1.83985l.72266.9922m13.625-.95313l-6.9961.6289m6.9961-.6289l1.34375 2.05469m-2.35938-1.96485l.66797 1.02735m13.3125-2.36329l-6.29687 3.1172m6.29687-3.1172l1.9961 1.4297m-2.91016-.97657l.9961.71484m13.11718-1.38281l-6.0664 3.54688"/><g clip-path="url(#ag)"><path fill="none" stroke="#000" stroke-linecap="round" stroke-linejoin="round" stroke-miterlimit="10" stroke-width=".5" d="M466.59375 358.71875l2.08984 1.29297"/></g><g clip-path="url(#ah)"><path fill="none" stroke="#000" stroke-linecap="round" stroke-linejoin="round" stroke-miterlimit="10" stroke-width=".5" d="M147.25 345.84375l-6.5 2.66797"/></g><path fill="none" stroke="#000" stroke-linecap="round" stroke-linejoin="round" stroke-miterlimit="10" stroke-width=".5" d="M147.25 345.84375l1.89063 1.5664m11.67968-.45312l-7.01172.4414m7.01172-.4414l1.28516 2.08985m12.01953-1.5l-6.98828-.73438m6.98828.73438l.91797 2.27343m-1.9336-2.38281l.45704 1.13672m13.6953-.24219l-6.6328-2.3086m6.6328 2.3086l.375 2.42578m-1.33983-2.76172l.1875 1.21485m14.10546-.91406l-6.66015-2.23829m6.66015 2.23829l.40235 2.41796m13.07031-3.09375l-6.97266-.8828m6.97266.8828l.86719 2.29297m-1.88281-2.42187l.43359 1.14453m13.92187-1.36328l-7.02343-.1914m7.02343.1914l1.09375 2.19531m-2.11718-2.22266l.54687 1.09766m13.78125-1.46094l-7.0039.58985m7.0039-.58985l1.32813 2.0625m-2.34766-1.97656L240.35156 348m13.60156-1.57031l-6.86718 1.4961m6.86719-1.4961l1.58593 1.8711m-2.58594-1.65235l.79297.9336m13.25-1.9375l-6.3203 3.0664m6.3203-3.0664l1.98438 1.44921m-2.90235-1.0039l.98829.72656m13.4453-.66797l-6.71874 2.0586m6.71875-2.0586l1.73437 1.73437m11.72266-.96875l-7.00781.52735m7.00781-.52735l1.3125 2.07422m12.01172-1.71875l-7.02344-.1836m7.02344.1836l1.09375 2.19531m-2.11719-2.22265l.55078 1.09765m13.78906-1.1328l-7.02734-.0586m7.02735.0586l1.1328 2.17577m-2.15624-2.1836l.5664 1.08595m13.76563-1.34766l-7.01172.48047m7.01172-.48047l1.29687 2.08594m-2.3203-2.01563l.64843 1.04297m13.69531-.76172l-7.02344-.21875m7.02344.21875l1.08203 2.19922m-2.10547-2.23437l.54297 1.10156m13.76172-.6914l-6.95703-.97266m6.95703.97265l.84375 2.30469m-1.85547-2.44531l.83985 2.30469m13.52343-2.64844h-7.02734m7.02734 0l1.15235 2.16406m-2.17578-2.16406L374 349.34375m-2.17578-2.16406l.57812 1.08203m14.7422-1.625l-6.94532 1.08203m6.94531-1.08203l1.46875 1.96484m-2.48047-1.80469l1.47266 1.96094m-2.48438-1.80469l.73829.98047m14.5664-1.48046l-6.8789 1.45312m6.8789-1.45313L402 348.33204m-2.57813-1.66797L401 348.54296m12.73047-2.13671l-6.85547 1.54297m6.85547-1.54297l1.59765 1.85938m-2.59765-1.63672l1.60156 1.85937m12.71485-2.07812l-6.85938 1.53515m6.85938-1.53515l1.59375 1.86328m-2.59375-1.63672l1.59765 1.86328m12.66016-2.29688l-6.75 1.95313m6.75-1.95313l1.71094 1.75782m-2.69141-1.47656l1.70703 1.76171m12.38281-2.58593l-6.33594 3.03515m6.33594-3.03515l1.97656 1.45703m-2.89843-1.01563l.98828.72656m13.1914-1.28125l-6.22265 3.26172"/><g clip-path="url(#ai)"><path fill="none" stroke="#000" stroke-linecap="round" stroke-linejoin="round" stroke-miterlimit="10" stroke-width=".5" d="M466.67188 345.54688l2.02734 1.3828"/></g><path fill="none" stroke="#000" stroke-linecap="round" stroke-linejoin="round" stroke-miterlimit="10" stroke-width=".5" d="M465.76953 346.02344l1.01172.6914"/><g clip-path="url(#aj)"><path fill="none" stroke="#000" stroke-linecap="round" stroke-linejoin="round" stroke-miterlimit="10" stroke-width=".5" d="M147.49219 333.47656l-6.98438.77344"/></g><path fill="none" stroke="#000" stroke-linecap="round" stroke-linejoin="round" stroke-miterlimit="10" stroke-width=".5" d="M147.49219 333.47656L148.875 335.5m11.92578-2.07813l-6.97266.88282m6.97266-.88281l1.41406 2.0039m-2.42968-1.875l.70703 1m13.5625-1.46484l-6.85156 1.55469m6.85156-1.5547l1.60547 1.85938m11.79297-.88672l-7.01563-.39062m7.01563.39062l1.03125 2.22657m12.17187-1.51954l-6.79297-1.80468m5.80469 1.54297l.27734 1.1953m14.0625-1.09374l-6.86719-1.48438m6.8672 1.48438l.66796 2.36328m-1.66406-2.57813l.33203 1.1797M227.40235 334l-7.02344-.27344m7.02343.27344l1.06641 2.20703m-2.08984-2.25l.53515 1.10547m13.79297-1.47266l-7.0039.54688m7.0039-.54688l1.32031 2.07032m-2.33984-1.9922l.66016 1.03517m13.54297-1.83594l-6.73829 1.99219m6.73828-1.9922l1.71875 1.75m-2.69921-1.46093l.85937.875m13.00781-2.08984l-5.8828 3.83984m5.8828-3.83984l2.14844 1.1875m-3.0039-.62891l1.07421.59375m13.52735-.21875l-6.7461 1.97266m6.7461-1.97266l1.71484 1.75781m11.72656-.45312l-7-.63281m7 .6328l.95313 2.26173m12.24219-1.6211l-6.76172-1.91406m6.76172 1.91406l.51953 2.39453m12.8789-2.76171l-6.92578-1.1797m6.92578 1.1797l.77344 2.32812m-1.78125-2.5l.38672 1.16406m13.98437-1.6875l-7.02343.21094m7.02343-.21094l1.21875 2.1289m-2.23828-2.09765l.60547 1.0625m13.6836-.40625l-6.9297-1.16406m6.9297 1.16406l.77734 2.32422m-1.78516-2.4961l.38672 1.16407m13.86328-.65625l-6.78515-1.83594m6.78515 1.83594l.54688 2.39063m-1.53516-2.66016l.27344 1.19531m14.15234-1.80469l-7.02734-.07812m7.02734.07812l1.125 2.1797m-2.14843-2.19142l1.1289 2.1797m13.13281-2.9297l-6.875 1.44532m6.875-1.44531l1.57422 1.8828m11.73828-1.89843l-6.87109 1.47266m6.8711-1.47266l1.58203 1.8789m11.6914-2.05077l-6.78906 1.8203m6.78906-1.8203l1.67188 1.79687m-2.66016-1.53125l.83594.89844m13.44922-1.23047l-6.75 1.95312m6.75-1.95312l1.70703 1.76172m-2.6914-1.47656l1.71093 1.76171m12.52734-2.23828l-6.6289 2.33594m6.6289-2.33594l1.8047 1.66016m-2.76954-1.32031l1.80469 1.66015m12.30078-2.41015l-6.27735 3.15625m6.27735-3.15625l2 1.41796m-2.91406-.96093l2 1.42187m11.97265-2.3086l-5.76562 4.01563"/><g clip-path="url(#ak)"><path fill="none" stroke="#000" stroke-linecap="round" stroke-linejoin="round" stroke-miterlimit="10" stroke-width=".5" d="M466.44531 331.85547l2.1836 1.11719"/></g><g clip-path="url(#al)"><path fill="none" stroke="#000" stroke-linecap="round" stroke-linejoin="round" stroke-miterlimit="10" stroke-width=".5" d="M465.60547 332.4375l2.1836 1.1211"/></g><g clip-path="url(#am)"><path fill="none" stroke="#000" stroke-linecap="round" stroke-linejoin="round" stroke-miterlimit="10" stroke-width=".5" d="M147.51172 320.54688h-7.02344"/></g><path fill="none" stroke="#000" stroke-linecap="round" stroke-linejoin="round" stroke-miterlimit="10" stroke-width=".5" d="M147.51172 320.54688l1.15234 2.16796m-2.17187-2.16796l.57422 1.08593m13.76172-1.0586l-7.02735-.05468m7.02734.05469l1.13672 2.17578m-2.16015-2.1836l.57031 1.08985m13.76563-.98047l-7.02344-.25781m7.02344.25781l1.07421 2.20703m-2.09375-2.24219l.53516 1.10157m13.73828-.53516l-6.90234-1.32031m6.90234 1.32031l.72656 2.34375m-1.73047-2.53515l.72657 2.34375m13.60156-2.19922l-6.91797-1.22657m6.91797 1.22657l.75781 2.33593m-1.76172-2.51562l.75391 2.33594m13.61328-2.97266l-7.01562.41016m7.01562-.41016l1.27734 2.09375m-2.29687-2.03516l1.27734 2.09766m-2.29687-2.03906l.63672 1.05078m14.64844-1.6836l-6.875 1.44141m6.875-1.4414l1.57421 1.8828m-2.57422-1.67187l1.57032 1.88281m12.7461-2.08984l-6.87892 1.4336m6.87891-1.4336l1.57031 1.88672m-2.5703-1.67969l.78515.94531m13.52344-1.1914l-6.86329 1.50781m6.86328-1.50781l1.58985 1.8711m-2.58984-1.65235l.79687.9375m13.5-1.23047l-6.82813 1.66016m6.82813-1.66016l1.6289 1.83203m11.60157-2.1289l-6.66016 2.25m6.66016-2.25l1.78516 1.68359m11.71093-.71875l-7.01953.32031m7.01953-.32031l1.25 2.11328m11.95313-1.0625l-6.79688-1.78125m6.79688 1.78125l.5664 2.39063m12.76954-2.48047l-6.83985-1.60157m6.83985 1.60157l.6289 2.375m-1.625-2.60547l.3164 1.1836m14.05079-2.25392l-6.95313 1.00391m6.95313-1.0039l1.45312 1.98046m-2.46484-1.83593l.72656.99218m13.54688-1.4375l-6.84375 1.60157m6.84375-1.60157l1.61328 1.84766m-2.60938-1.61328l.8086.92187m13.53515.28516l-6.91015-1.28125M359.49219 321l.36719 1.17188m14.01171-1.625h-7.02734m7.02734 0l1.15235 2.16796m11.58594-4.09765l-5.875 3.85937m5.875-3.85937l2.15234 1.17969m11.64844-.03516l-6.84766 1.57422m5.85156-1.34766l.80469.92578m11.78906-3.4375l-3.41406 6.14453m18.53516-3.04296l-7.02735-.0625m20.30469.5625l-6.94922-1.0586m5.9375.90235l.40625 1.16015m13.54688-3.1875l-6.20313 3.3086m6.20313-3.3086l2.03515 1.3711m-2.9375-.89063l2.03516 1.3711m11.44922-2.79298l-4.73438 5.19141"/><g clip-path="url(#an)"><path fill="none" stroke="#000" stroke-linecap="round" stroke-linejoin="round" stroke-miterlimit="10" stroke-width=".5" d="M465.92969 317.95313l2.375.60546"/></g><path fill="none" stroke="#000" stroke-linecap="round" stroke-linejoin="round" stroke-miterlimit="10" stroke-width=".5" d="M465.23828 318.70703l2.3789.60938m-3.0664.14453l1.1875.30469"/><path fill="#ff3030" fill-rule="evenodd" d="M184.76953 458.77344h7.6914V448.625h-7.6914v10.14844"/><path fill="azure" fill-rule="evenodd" d="M186.60156 450.45703h.83203v5.74219h3.19532v.73828h-4.02735v-6.48047"/><path fill="#ff3030" fill-rule="evenodd" d="M455.50781 441.01953h7.6914V430.8711h-7.6914v10.14844"/><path fill="azure" fill-rule="evenodd" d="M457.33984 432.70703h.83594v5.73828h3.1914v.73828h-4.02734v-6.47656"/><path fill="#ff3030" fill-rule="evenodd" d="M171.45313 378.88281h7.6914v-10.14844h-7.6914v10.14844"/><path fill="azure" fill-rule="evenodd" d="M173.28516 370.5664h.83593v5.7422h3.19141v.73827h-4.02734v-6.48046"/><path fill="#ffffe0" fill-rule="evenodd" d="M332.86719 384.50781h22.17969v-10.1914h-22.1797v10.1914"/><path fill-rule="evenodd" d="M336.36719 376.14844h.50781v6.29297h-.78516v-4.48829h-1.39062v-.55468l.5625-.0664.25-.0547.23047-.08984.20312-.14063.17578-.20703.14063-.29687.10547-.39453m4.8125 0l.23047.01953.21875.05469.20703.08984.19531.1211.1875.14843.16797.17578.30469.42188.24218.49219.1797.54687.11327.57813.03516.58984-.03516.59375-.11328.58594-.17969.55468-.24218.5-.3047.4297-.16796.17968-.1875.15234-.19531.125-.20703.08985-.21875.05859-.23047.01953-.23047-.01953-.21875-.0586-.20703-.08984-.19531-.125-.1836-.15234-.17187-.17969-.30079-.42969-.24609-.5-.17969-.55468-.10937-.58594-.03906-.59375h.83203l.03125.5664.08203.50391.125.4414.16015.375.19141.30079.21094.22265.22265.13672.22657.04688.22656-.04688.22266-.13671.21093-.22266.19141-.30078.16016-.375.1289-.4414.08203-.50392.02735-.5664-.02735-.5586-.08203-.5-.1289-.4375-.16016-.36718-.1914-.28906-.21094-.21485-.22266-.13281-.22656-.04297-.22656.04297-.22266.13281-.21094.21485-.1914.28906-.16016.36719-.125.4375-.08203.5-.03125.55859h-.83203l.03906-.58985.10937-.57812.1797-.54688.24608-.49218.30079-.42188.17187-.17578.1836-.14844.1953-.12109.20704-.08984.21875-.0547.23047-.01952m5.09375 0h.50781v6.29297h-.78906v-4.48829h-1.38672v-.55468l.5586-.0664.2539-.0547.23047-.08984.20312-.14063.17188-.20703.14062-.29687.10938-.39453m2.82031 2.17578h.78906l.01953-.3164.0586-.28516.09765-.25391.14063-.21484.1836-.17579.22265-.1289.26562-.07813.3086-.02734.23437.01953.22656.0625.20313.10156.17969.14063.14844.17187.11328.20704.0703.23437.02735.26563-.02344.26953-.0664.22265-.10938.1914-.15625.17188-.19921.16407-.2461.16406-.63672.39062-.53515.3125-.4375.31641-.34766.32422-.26172.33594-.1914.35156-.125.36719-.07032.39453-.01953.41797h4.21094v-.73829h-3.33203l.08203-.28515.11328-.23828.14844-.19922.1875-.17969.23047-.17187.28125-.17579.71484-.41796.41797-.20313.34375-.23047.28125-.2539.21875-.26563.16406-.27734.10938-.28516.0664-.28515.01953-.28125-.04296-.38282-.1211-.34765-.1875-.3086-.25-.26172-.30078-.21484-.34766-.15625-.3789-.09766-.40625-.03515-.4375.03125-.39844.10156-.35547.16406-.30469.23438-.24609.30469-.1875.375-.11328.4453-.04297.51954"/><path fill="#ffffe0" fill-rule="evenodd" d="M221.91016 424.9961h22.17968v-10.19141h-22.17968v10.1914"/><path fill-rule="evenodd" d="M225.40625 416.63672h.51172v6.29687h-.78906v-4.49218h-1.38672v-.5547l.5586-.0625.2539-.05468.22656-.08984.20313-.14063.17578-.21094.14062-.29687.10547-.39453m4.8164 0l.22657.01953.21875.05469.21094.08984.1953.1211.1836.14843.17188.17578.30078.42188.2461.49219.17968.54687.10938.57813.03906.59375-.03906.59375-.10938.58203-.17969.55469-.2461.5-.30077.42968-.17188.17969-.1836.15234-.1953.125-.21094.08985-.21875.0586-.22656.01952-.23047-.01953-.21875-.0586-.20703-.08984-.19922-.125-.1836-.15234-.17187-.17969-.30078-.42969-.24219-.5-.17969-.55468-.11328-.58203-.03906-.59375h.83594l.02734.5625.08203.5039.125.44531.16406.375.19141.30079.21094.21875.22265.13671.22657.04688.22656-.04688.22266-.13671.21093-.21875.1875-.30079.16406-.375.125-.4453.08204-.50391.03125-.5625-.03125-.5625-.08203-.5-.125-.4375-.16407-.36329-.1875-.29296-.21094-.21485-.22265-.13281-.22656-.04297-.22657.04297-.22265.13281-.21094.21485-.1914.29296-.16407.36329-.125.4375-.08203.5-.02734.5625h-.83594l.03906-.59375.11328-.57813.17969-.54687.24219-.4922.30078-.42187.17187-.17578.1836-.14844.19922-.12109.20703-.08984.21875-.05469.23047-.01953m5.08984 0h.50781v6.29687h-.78515v-4.49218h-1.38672v-.5547l.5586-.0625.25-.05468.23046-.08984.20313-.14063.17578-.21094.14062-.29687.10547-.39453m2.82422 2.17578h.78516l.01953-.3164.0625-.28516.09765-.2539.14063-.21485.17969-.17188.22265-.1289.26563-.08204.30859-.02734.23828.01953.22266.0625.20312.10156.17969.14063.14844.17188.11328.20703.07422.23437.02344.26563-.01954.26953-.0664.22265-.10938.19141-.15625.17188-.20312.16406-.2461.16406-.6328.39063-.53907.3125-.4375.3164-.34375.32422-.26563.33594-.1914.35156-.125.3711-.0664.39062-.02345.42187h4.21485v-.74218H238.875l.08594-.28516.11328-.23438.14844-.20312.1875-.17969.23047-.17187.27734-.17578.71875-.41407.41406-.20703.34766-.23047.27734-.25.22266-.26953.16015-.27734.11328-.28516.0625-.28515.01954-.28125-.03907-.38282-.12109-.34765-.1914-.3086-.25-.26171-.30079-.21094-.34375-.16016-.38281-.09765-.40625-.03516-.4336.03515-.39843.09766-.35547.16406-.30469.23829-.25.30078-.1836.375-.11718.4453-.03906.51954"/><path fill="#ffffe0" fill-rule="evenodd" d="M337.52344 352.48438h22.1836v-10.19532h-22.1836v10.19531"/><path fill-rule="evenodd" d="M341.02344 344.125h.51172v6.29297h-.78907v-4.48828h-1.38671v-.5586l.55859-.0625.2539-.05468.22657-.08985.20312-.14062.17578-.21094.14063-.29297.10547-.39453m4.8164 0l.22657.01563.21875.05859.21093.08984.19532.11719.18359.15234.17188.17579.30078.41796.24218.4961.1797.54297.11327.58203.03906.58984-.03906.59375-.11328.58203-.17969.55469-.24218.5039-.30079.42579-.17187.17969-.1836.15234-.1953.125-.21094.09375-.21875.05469-.22657.01953-.23046-.01953-.21875-.0547-.20704-.09374-.19921-.125-.1836-.15235-.17187-.17968-.30079-.42578-.24218-.50391-.17969-.55469-.11328-.58203-.03906-.59375h.83593l.02735.5625.08203.50781.125.44141.16406.375.1914.30078.21094.22266.22266.13672.22656.04687.22657-.04687.22265-.13672.20703-.22266.19141-.30078.16406-.375.125-.4414.08203-.50782.02735-.5625-.02735-.5625-.08203-.5-.125-.4336-.16406-.36718-.1914-.29297-.20704-.21484-.22265-.1289-.22657-.04688-.22656.04687-.22265.1289-.21094.21485-.1914.29297-.16407.36719-.125.4336-.08203.5-.02735.5625h-.83593l.03906-.58985.11328-.58203.17969-.54297.24219-.4961.30078-.41796.17187-.17579.1836-.15234.19921-.11719.20704-.08984.21875-.0586.23046-.01562m5.08985 0h.50781v6.29297h-.78516v-4.48828h-1.39062v-.5586l.5625-.0625.25-.05468.23047-.08985.20312-.14062.17578-.21094.14063-.29297.10547-.39453m6.80469 1.61719h-.78907l-.05078-.21094-.08203-.1875-.10547-.15625-.1289-.13281-.14844-.10156-.16016-.07422-.16797-.04688-.17187-.01562-.32813.04296-.28906.1172-.2461.19921-.20312.26563-.16015.33984-.1172.40234-.0703.46875-.02344.52735.1914-.20313.1836-.16015.1875-.1211.1836-.08984.1914-.0625.1914-.03516.39844-.02344.3086.03125.3203.08985.31641.15625.29297.21875.25781.28515.19922.35157.07032.19922.05468.21875.02735.23437.0039.25-.78515.04688-.02735-.25782-.07812-.25-.1211-.23828-.16015-.20703-.19531-.17969-.21875-.13671-.2422-.08594-.2539-.03125-.2539.03125-.2422.08594-.21874.13671-.1914.1797-.16407.20702-.1211.23828-.07812.25-.02734.25782.02734.2578.07813.25392.12109.23437.16406.20703.1914.17969.21876.13672.24219.08984.2539.03125.2539-.03125.2422-.08984.21875-.13672.1953-.17969.16017-.20703.12109-.23438.07812-.2539.02735-.25781.78515-.04688-.02734.3711-.09375.37109-.16016.35937-.22265.32813-.28906.28125-.16797.1211-.19141.10156-.20313.08203-.22265.0625-.24219.03906-.26172.01172-.28125-.01563-.26172-.04687-.23828-.07422-.21484-.10547-.19531-.13281-.17188-.15625-.15625-.17969-.13281-.20313-.11719-.22265-.10156-.24219-.14453-.53515-.08594-.59375-.02734-.63672.03906-.7461.11328-.66406.1875-.57422.1211-.25781.13671-.23047.15235-.20703.17187-.17969.1836-.15625.20312-.1289.21875-.10157.23047-.07422.25-.04687.26172-.01172.36328.03125.33594.09766.29296.14843.25782.19922.21094.24219.16406.27344.11719.30469.0625.3203"/><path fill="#ffffe0" fill-rule="evenodd" d="M173.08594 326.55469h22.17969v-10.1914h-22.1797v10.1914"/><path fill-rule="evenodd" d="M176.58594 318.19531h.50781v6.29688h-.78516v-4.48828h-1.39062v-.5586l.5625-.0625.25-.05469.23047-.08984.20312-.14062.17578-.21094.14063-.29297.10547-.39844m4.8125 0l.23047.01953.21875.0586.20703.08594.19922.12109.18359.15234.17188.17578.30078.41797.24218.49219.1797.54688.11327.58203.03516.58984-.03516.59375-.11328.58203-.17969.55469-.24218.5039-.30078.42579-.17188.17968-.1836.15235-.19921.125-.20703.09375-.21875.05469-.23047.01953-.22656-.01954-.21875-.05468-.21094-.09375-.19531-.125-.1836-.15235-.17187-.17968-.30078-.42579-.2461-.5039-.17969-.55469-.10937-.58203-.03906-.59375h.83203l.03125.5625.08203.5039.125.44532.16406.375.1875.30078.21094.21875.22266.13672.22656.04687.22656-.04687.22266-.13672.21093-.21875.19141-.30078.16406-.375.125-.44531.08203-.50391.02735-.5625-.02735-.5625-.08203-.5-.125-.4336-.16406-.36718-.1914-.29297-.21094-.21484-.22266-.12891-.22656-.04688-.22656.04688-.22266.1289-.21094.21485-.1875.29297-.16406.36719-.125.43359-.08203.5-.03125.5625h-.83203l.03906-.58984.10937-.58204.1797-.54687.24608-.49219.30079-.41797.17187-.17578.1836-.15234.1953-.1211.21095-.08593.21875-.0586.22656-.01953m5.09375 0H187v6.29688h-.78516v-4.48828h-1.39062v-.5586l.5586-.0625.2539-.05469.23047-.08984.20312-.14062.17188-.21094.14453-.29297.10547-.39844m6.80078 1.6211h-.78516l-.05078-.21094-.08203-.1875-.10938-.16016-.1289-.1289-.14453-.10157-.16016-.07421-.16797-.04688-.17578-.01563-.32422.04297-.28906.1172-.2461.1953-.20312.26954-.16016.33984-.11718.40234-.07031.46875-.02344.52344.1875-.19922.1875-.16015.1875-.1211.1836-.08984.1875-.0625.1914-.03516.40234-.02344.3086.03125.3203.08985.31641.15625.29297.21875.2539.28515.19923.35157.07422.19921.05078.21875.03125.23438.0039.25-.78515.04688-.02735-.25782-.07812-.2539-.125-.23438-.16016-.20703-.1914-.17969-.21875-.13672-.2422-.08984-.2539-.03125-.2539.03125-.2422.08984-.21874.13672-.19531.17969-.16016.20703-.1211.23438-.07812.2539-.02734.25781.02734.25782.07813.25.12109.23828.16016.20703.1953.17969.21876.13672.24219.08593.2539.03125.2539-.03125.2422-.08593.21875-.13672.1914-.17969.16016-.20703.125-.23828.07812-.25.02735-.25781.78515-.04688-.03125.3711-.09375.37109-.15625.35937-.22265.32813-.28906.28125-.17188.1211-.1875.10155-.20703.08204-.22266.0625-.24219.03906-.2578.01172-.28516-.01563-.25782-.04687-.23828-.07813-.21484-.10156-.19531-.13281-.17578-.15625-.15235-.1797-.13672-.20312-.11719-.22265-.09765-.24219-.14844-.53516-.08203-.59375-.02734-.64062.03906-.74219.11328-.66406.1875-.57813.11719-.2539.13672-.23047.15625-.20703.16797-.17969.1875-.15625.20312-.1289.21484-.10157.23438-.07422.2461-.04687.26171-.01563.36719.03516.33203.09765.29688.14844.2539.19922.21484.24219.16407.27344.11719.30468.05859.32032"/></g></defs><use xlink:href="#ao"/></svg>