<svg xmlns="http://www.w3.org/2000/svg" role="img" xmlns:xlink="http://www.w3.org/1999/xlink" viewBox="142.45 309.95 326.84 171.84"><defs><clipPath id="a"><path d="M144 451h1v29.32813h-1zm0 0"/></clipPath><clipPath id="b"><path d="M144 311.67188h1V318h-1zm0 0"/></clipPath><clipPath id="c"><path d="M144 311.67188h324v168.65625H144zm0 0"/></clipPath><clipPath id="d"><path d="M144 311.67188h8V321h-8zm0 0"/></clipPath><clipPath id="e"><path d="M381 460h18v20.32813h-18zm0 0"/></clipPath><clipPath id="f"><path d="M391 479h4v1.32813h-4zm0 0"/></clipPath><clipPath id="g"><path d="M467 311.67188h1v168.65625h-1zm0 0"/></clipPath><clipPath id="h"><path d="M144 479h4v1.32813h-4zm0 0"/></clipPath><clipPath id="i"><path d="M147 480h2v.32813h-2zm0 0"/></clipPath><clipPath id="j"><path d="M146 480h2v.32813h-2zm0 0"/></clipPath><clipPath id="k"><path d="M153 480h9v.32813h-9zm0 0"/></clipPath><clipPath id="l"><path d="M160 480h3v.32813h-3zm0 0"/></clipPath><clipPath id="m"><path d="M159 480h2v.32813h-2zm0 0"/></clipPath><clipPath id="n"><path d="M166 479h9v1.32813h-9zm0 0"/></clipPath><clipPath id="o"><path d="M173 480h3v.32813h-3zm0 0"/></clipPath><clipPath id="p"><path d="M172 480h2v.32813h-2zm0 0"/></clipPath><clipPath id="q"><path d="M180 480h8v.32813h-8zm0 0"/></clipPath><clipPath id="r"><path d="M187 480h2v.32813h-2zm0 0"/></clipPath><clipPath id="s"><path d="M186 480h2v.32813h-2zm0 0"/></clipPath><clipPath id="t"><path d="M193 479h9v1.32813h-9zm0 0"/></clipPath><clipPath id="u"><path d="M200 479h3v1.32813h-3zm0 0"/></clipPath><clipPath id="v"><path d="M199 479h2v1.32813h-2zm0 0"/></clipPath><clipPath id="w"><path d="M206 480h9v.32813h-9zm0 0"/></clipPath><clipPath id="x"><path d="M213 480h3v.32813h-3zm0 0"/></clipPath><clipPath id="y"><path d="M212 480h2v.32813h-2zm0 0"/></clipPath><clipPath id="z"><path d="M220 479h8v1.32813h-8zm0 0"/></clipPath><clipPath id="A"><path d="M227 479h2v1.32813h-2zm0 0"/></clipPath><clipPath id="B"><path d="M226 479h2v1.32813h-2zm0 0"/></clipPath><clipPath id="C"><path d="M233 479h8v1.32813h-8zm0 0"/></clipPath><clipPath id="D"><path d="M240 479h3v1.32813h-3zm0 0"/></clipPath><clipPath id="E"><path d="M239 479h2v1.32813h-2zm0 0"/></clipPath><clipPath id="F"><path d="M246 479h9v1.32813h-9zm0 0"/></clipPath><clipPath id="G"><path d="M253 479h3v1.32813h-3zm0 0"/></clipPath><clipPath id="H"><path d="M260 479h8v1.32813h-8zm0 0"/></clipPath><clipPath id="I"><path d="M267 479h3v1.32813h-3zm0 0"/></clipPath><clipPath id="J"><path d="M273 479h8v1.32813h-8zm0 0"/></clipPath><clipPath id="K"><path d="M280 479h3v1.32813h-3zm0 0"/></clipPath><clipPath id="L"><path d="M286 479h9v1.32813h-9zm0 0"/></clipPath><clipPath id="M"><path d="M293 479h3v1.32813h-3zm0 0"/></clipPath><clipPath id="N"><path d="M300 479h8v1.32813h-8zm0 0"/></clipPath><clipPath id="O"><path d="M305 479h3v1.32813h-3zm0 0"/></clipPath><clipPath id="P"><path d="M313 479h8v1.32813h-8zm0 0"/></clipPath><clipPath id="Q"><path d="M319 479h2v1.32813h-2zm0 0"/></clipPath><clipPath id="R"><path d="M326 480h9v.32813h-9zm0 0"/></clipPath><clipPath id="S"><path d="M332 480h2v.32813h-2zm0 0"/></clipPath><clipPath id="T"><path d="M340 478h8v2.32813h-8zm0 0"/></clipPath><clipPath id="U"><path d="M345 479h3v1.32813h-3zm0 0"/></clipPath><clipPath id="V"><path d="M353 478h8v2.32813h-8zm0 0"/></clipPath><clipPath id="W"><path d="M369 476h3v4.32813h-3zm0 0"/></clipPath><clipPath id="X"><path d="M380 478h8v2.32813h-8zm0 0"/></clipPath><clipPath id="Y"><path d="M380 480h2v.32813h-2zm0 0"/></clipPath><clipPath id="Z"><path d="M393 478h8v2.32813h-8zm0 0"/></clipPath><clipPath id="aa"><path d="M391 479h3v1.32813h-3zm0 0"/></clipPath><clipPath id="ab"><path d="M406 478h8v2.32813h-8zm0 0"/></clipPath><clipPath id="ac"><path d="M404 480h4v.32813h-4zm0 0"/></clipPath><clipPath id="ad"><path d="M419 479h9v1.32813h-9zm0 0"/></clipPath><clipPath id="ae"><path d="M420 479h2v1.32813h-2zm0 0"/></clipPath><clipPath id="af"><path d="M433 478h8v2.32813h-8zm0 0"/></clipPath><clipPath id="ag"><path d="M446 478h8v2.32813h-8zm0 0"/></clipPath><clipPath id="ah"><path d="M459 479h9v1.32813h-9zm0 0"/></clipPath><clipPath id="ai"><path d="M460 479h2v1.32813h-2zm0 0"/></clipPath><clipPath id="aj"><path d="M144 466h4v2h-4zm0 0"/></clipPath><clipPath id="ak"><path d="M144 452h4v3h-4zm0 0"/></clipPath><clipPath id="al"><path d="M144 439h4v3h-4zm0 0"/></clipPath><clipPath id="am"><path d="M144 425h4v4h-4zm0 0"/></clipPath><clipPath id="an"><path d="M144 412h4v3h-4zm0 0"/></clipPath><clipPath id="ao"><path d="M144 399h4v3h-4zm0 0"/></clipPath><clipPath id="ap"><path d="M144 386h4v3h-4zm0 0"/></clipPath><clipPath id="aq"><path d="M144 372h4v4h-4zm0 0"/></clipPath><clipPath id="ar"><path d="M144 357h2v7h-2zm0 0"/></clipPath><clipPath id="as"><path d="M465 357h3v3h-3zm0 0"/></clipPath><clipPath id="at"><path d="M144 345h4v5h-4zm0 0"/></clipPath><clipPath id="au"><path d="M466 345h2v3h-2zm0 0"/></clipPath><clipPath id="av"><path d="M144 332h4v4h-4zm0 0"/></clipPath><clipPath id="aw"><path d="M466 332h2v3h-2zm0 0"/></clipPath><clipPath id="ax"><path d="M465 332h3v3h-3zm0 0"/></clipPath><clipPath id="ay"><path d="M144 318h4v5h-4zm0 0"/></clipPath><clipPath id="az"><path d="M465 317h3v2h-3zm0 0"/></clipPath><g id="aA" clip-path="url(#clip1)"><path fill="#fff" fill-opacity="0" fill-rule="evenodd" d="M0 0h1000v1000H0zm0 0"/><path fill="#d3d3d3" fill-opacity="0" fill-rule="evenodd" d="M162.15234 355.86719l-.23437.29297.0586.23437.11718.17188.17578.23437.29297.34766.11328.0586.11719-.17188.0586-.23438.17577-.17578.46485-.17578h.69922l.23437.29297.28906.8164.0586.17579.17578.23046.35156.23438.69922.69922.17188.17578.23437.34765.23438.41016.28906.58203.41015.46485.23047.23437.23438.17578.11719.23047.17578.29297.17187 1.16406v.23438l.0586.28906.05859.11719.11719.11719.34765.41015.11719.17188.17578.17578.17578.23437.11719.17188.17188.35156.05859.23438.23437.40625.23438-.0586-.17578.17578-.0586.92969h-.58203l-.23437-.11328-.34766.11328-.11719.11719-.05859.29297-.0586.17578-.11718.17187-.46484.29297-.0586.23438-.0586.11328v.64453l.0586.17187v.41016l.0586.0586v.40624l.05859.40625.11719.17579.05859.05859.23047.64062-.0586.29297v.69922l-.05859.58203v.23438l-.0586.23047-.05468.35156v1.92187l.05469.1172h.42578l-.36719.11718-.02344.35156.89063 1.16797 1.74219.53906 1.33984.35938v.53906l.08984.8086.53516.71484 1.51953.26953.89063-.08594.08984 1.16406.53516.1797 1.16015-.1797 2.05469-.98437 1.16016-.36328 1.8789-.17578 1.69531-.1797-.17968.71876-1.51563.08594-1.25.08984-.80469.26953-1.07421.8086.26953.71875.53515.89843-.17968.625-.26563.8086.26563 1.07812.625.89844.80468.17969 1.25-.1797-.26562.72267.09766.5039.05468.29297v.17188l.0586.29296v.40625l.17578.1172.35156.11718h.40625l.29297-.17578.11328-.11719.0586-.11719.11718-.23047.0586-.17578.35156-.46484.23047-.17578.17578-.0586.17578.0586.0586.17578.11718.98828.05469.46875.0586.17188.11718.23437.17578.0586.8164.05859h.28907l.11719.23437.05859.40625.0586.35156v1.10547l.11718.29297.11719.34766.28906.69922.17578.35156.58203.7539.35157.17579.17187.0586.46875.23437.64063.46484.34765.23438.29297.17578.29297.05468.23047.0625.8164.34766.29297.17578.11328.17188.35157.35156.11719.17578.52343.64063v.28906l.0586.35156v.34766l.05859.35156.0586.28906.11718.0586.17188.05859h.17578l.58203.23437.17578.1172.17578.28905.17578.23438.11328.23437.29297.23047.11719.11719v.41016l.0586.05468.28906.23438.23437.11719.0586.11718.11718.17188.0586.11719.23047.23437.05859.17578.23437.0586.1172.05859-.1172.11328-.05859.11719v.11719l-.11719.29296-.11719.28907v.58203l.17579.11719.11718.05859.0586.11719.11719.11719.11328.05859.17578.34765.0586.35157.05858.40625v.17578l-.05859.17578-.11719.69922v.17187l.1172.17579.29296.29296h.40625l.17578.1172.11719.17187.11719.29296v.23438h-.52735l-.23047-.23438h-.23437l-.17578.0586-.0586.69922.0586.34765.11719.17579.17578.41015.11718.23047.28907.46875.17578.05469h.52344l.23437.0586.75781.64062.0586.29296v.23438l.05859.0586.23047.34765v.35156l-.11719.17188v.29297l.29297.28906.29297.17578.17187.0586.29297.17577.29297.1172.58203.40624.28906.23438.29297.17578.21875.16015.01563.01172.23047.17579.64062.52343.17578.23438.1172.17578.17577.17578.11328.17188v.64062l.1172.17578.46874.11719.58203.11719.23438.05859.23047.11328.29297.11719.11328.0586.58593.35156.28907.17187.17578.0625.17578.05469.17578.0586.69922.35155.28906.17579.23438.05468.28906.17578.23437.1172.64063.40624.29297.11719.17187.0586.23438.05859.41015.05859.23047.0586.23438.11718.0586.17188-.41017.17578.46875.0586.0586.29296.11328.23438.17578.05468.23438.0586.17578.05859.40625.11719.64062.23437.11719.17188.0586.23437v.17578l-.0586.1172-.0586.40624.23438.23438.11719.05859.34766.11719.64062.23047.17578.11718.28906.1172.17578.17577.23438.46485.58203 1.10546.17578.17579.34766.17578.17578.11719.35156.11718 1.04688.52344.23437.0586.46485.11327.29297.0586.46484.17578.75781.58203.23438.23438.34765.46484.17578.17578.28907.23438.8164.69921.29297.17579.28906.28906.29297.17578.29297.28906.69531.64063.17578.17578.29297.23437.28907.23438.46875.28906.64062.58203.34766.23438.23437.29297.34766.34765.35156.46485.9336.99218.34765.40625.11719.17579.23437.05859.11328.11719.64454.17578.23047.11328.23437.0586.29297.17577.23047.1172.9336.69921.40624.40625.23438.17578.40625.17578.23437.11719.8164.34766.34766.23437.23438.11719.29297.28906.23047.11719.7578.35156.35157.17188.23047.05859.29297.11719.23437.0586.8711.17577h.8164l.46875.23047.17188.0586.875.69921.46484.1172.29297.05858.17578.0586.23047.0586.46875.05859.34766.05859.35156.0586.40625.05859h.29297l.17187.0586v.23046l.17578.17578h.29297l.34766.0586.35156.05859.69922.11719h.64063l.46484-.23438.29297-.17578.17187-.11719.41016-.17187.28906-.17578.9336-.46485.46875-.29297.52343-.29296.46485-.17188.46484-.17578 1.05078-.46485.28906-.11718.41016-.11719.28906-.11719.52735-.17578 1.51562-.69922.58203-.34765.28907-.0586.29297-.0586.34765-.11718.875-.23047.35156-.11719h.11329l.23437-.05859.875-.23437.23438-.0586h.8125l.35156-.0586.8164-.11718.17188-.0586.35156-.05468.29297-.0586.23047-.05859.8164-.17578.17579-.0586h.34765l.23438-.05859.46484-.11718.75781-.17188.23438-.0586h.34765l.41016-.11718.28906-.0586 1.28516-.05859h.28906l.41016-.0586.23047-.05858h.17578l.875-.1172h.40625l.41015-.11718h.34766l.35156-.11328.8711-.0586h1.75l1.04687.28907.41016.11719.28906.11718.35156.11719.28907.11719 1.05078.17187.28906.0586h.29297l.29297.05859.17187.0586.41016.05859.17187.0586.1172.05858h.11718l.11719.0586.35156.0586h.11328l.41016.0664 1.92187.39453 1.92578.39453 1.51953.44922 1.69532.71875 2.14453.80469 1.60547-.71875 1.42968-.80469 1.16016-1.07813 1.25-.44921 3.03516-.71875 1.875-.35938 2.14453-1.34765 2.23437-1.25391 2.5-1.25781 1.69531-.44922 1.78516-.17969 1.16016-.26953.625.53906 1.33984-.26953.71485-.98828.98437-1.34375.44531-.17969.80469-.35937 1.875-.53907 1.78516-.44921 1.25-.26954 1.16015-.08984 1.69922-.08984 1.96094-.26954 1.25-.08984h.53906l.625-.08984h.89063l2.14453-.17969 2.41015-.17969 2.58985-.08984 1.69531.17969 1.60938.08984 1.42968.35938 1.16016.71875 1.875.98828 1.16015 1.52734.26563.71484.6289.08985.35548.89844.53515.53906.53516 1.52734 1.07422.35938h.53515l-.80469.53515.08985 1.70703.71484 2.69532.89063.80468.89453.98829.71484 1.2578 1.78516.53907 1.51953-.17969.35547 1.34375 1.60937-.80469.98047-.53906.26953.26953.31641-.21484.21875-.14453.80078.44922.44922-.35938h.35547l.53515-.26953.53907-.71875.53515-.26953.625-.98828 1.16016.44922.83984.3711 1.39454.61718 1.6953-.17969h1.60548l1.78515.08985.17969-1.70704.53516-1.34375.80468.26954.4922.84765.40233.40625-.08984.53906v.35938l.71485.44922.71093-.26953h1.42969l.35938.98828.4453 1.25781.71485 1.34375 1.25.6289 1.69531.62891.71485-.17969.17969-.53906.98046-.08984.44922.35937.08594 1.25782-.26563.6289-.53515.17969v.53906l.71484.98438.26563.53906.98437.98828.80078 1.07813-.26562.35937-.08985.89844-.625 2.33203-.35546 2.0664-.08985 1.79298-.17969.71875-.08984.53906v1.4375l-.98047 1.88281-.35937 1.70703-.53516.89844-.80469 1.16797-.26562.53906 2.05469 1.2539.08593.35938-.35546.53906-.08985-.17968v.80859l.08985 1.4375-.44532.71484-1.07422.09375-.26562.71485.53515.89844.8047.71875 1.16015.80859 1.33984.26953.44531.35938-.35546.44921-1.78907-.08984-1.25-.44922-.71484-.71875-.625-.08984-.17578 3.58984-.1875 1.3086h89.35937V311.70313h-55.26953v49.08203l.76172.125 3.28906.54296 2.02344 2.83594v2.7539l2.35156.33204 2.34766.33203h4.05078l-1.3789 4.16016-2.02344.70703-2.02344.70312-.54297.34375-2.59375 1.6172-.1875.11718-2.02344-2.07813-.73046-2.74218-2.67188-2.07813-1.375-3.5-.0664-.08203-1.95704-2.67188 2.75-1.41796v-49.08204H294.42187v91.41407l.1172.03125.1328.01172.07422.07421.10547.04688.08985.0586.08593.05859.08985.0586.29687.29687.0586.08984.03125.11719.02734.11719.01563.13671-.03125.1172-.0586.08983-.0586.08594-.04296.10547-.04688.10156-.02734.1211v.14453l.17578.26953.14844.14844.07422.08594.07422.07421.04296.10547.0625.08985.0586.08593.04297.10547.0586.08985.04687.10156.04296.10547.0586.08594.11719.17968.07421.07422.0625.08594.0586.08984.04297.10547.0586.08985.05858.08593.0625.08985.0586.08984.04297.10156.11719.17969.07421.07422.0586.08594.07422.07421.08984.0586.10547.04687h.14844l.1328-.01562.13282.01562.10156-.04687.07422-.07422.04688-.10156-.01563-.13281v-.14844l-.04687-.10547-.02735-.11719-.04687-.10156-.02735-.1211-.04296-.10156-.0625-.08984-.04297-.10156-.04297-.10547-.03125-.11719-.01563-.13281-.01171-.13672.08593-.0586.0586-.08593.12109-.03125.04297.10547.01562.1328v.1172l.0586.10156.0586.08984.08983.0586.14844.14843.0586.08985.04296.10547-.01171.10156.08593.0586.10547.04687.08594.0586.08984.05858.07422.07422-.11719.02735-.10546.04687-.08594.0586-.07422.07421-.0586.08985-.0625.08594-.02734.12109-.04687.10156-.04297.10547-.03125.11719-.01172.13281-.01563.13281v.14844l.02735.11719.04687.10547.04297.10156.0586.08984.07421.07422.08985.0586.07422.07421.08984.0586.0586.08984.04296.10547.04688.10156.11719.03125.1328.01563h.14845l.11718-.03125.10547.04297.04297.10547.04688.10156.02734.1211L299.5 410l.02734.11719.03125.1211.02735.11718.10547.04297.10156.04687.13281-.01562.14844.14844.0625.08593.07422.07422.07031.07422.08984.0625.10547.04297.10156.04297.1172.03125.13671.01562.11719-.03125.07422-.07422.02734-.11718-.01172-.13282-.03125-.12109-.02734-.11719.04297-.10547h.11719l.08984.0625.11719.02735h.14843l.13282.01562h.14843l.13282.01563.1328-.01563h.14845l.1328-.01562.13282-.01172.13672.01172.11719-.02735.13281-.01562.1914-.0586-.05859.17579-.01562.1328-.02735.1211-.01562.13281-.0586.08594-.1328.01563-.10548.04687-.10546.04297-.1172.03125-.11718.02735-.26563.03125h-.14843l-.13281.01562-.07422.07422.05859.08594.14844.14843.11719.1797.07421.0703.08985.0625.08984.0586.08594.0586.08984.05858.10156.04297.10547.0625.10547.04297.08594.0586.10547.04687.10156.04297.17969.11719.0586.08984-.04298.10156-.04687.10547.01562.13281.22266.22266.0586.08985.04296.10156.03125.1211.04297.10155.01563.13282.03125.11718.01171.13672.03125.11719.14844.14844.10156.04297.10547.04296.1172.03125.1328.01563.13672.01563h.11719l.11719-.03125.08984-.0586.04297-.10547.04688-.10156.04296-.10547.03125-.11719.01172-.1328v-.14845l-.01172-.1328-.01562-.13282-.03125-.11719-.04297-.10547-.04688-.10547-.04296-.10156-.04297-.10547-.01563-.13281.01563-.13281.02734-.11719.03125-.11719.02735-.1211.04687-.10155.08984-.0586.08594-.0625.07422-.07422.08984-.05859.22266-.22266.0586-.08593.07421-.07422.11719-.17969.0586-.08594v-.14844l-.07423-.07421-.10156-.04688-.10547-.04297-.10156-.04297-.0586-.08984-.04687-.10547-.02734-.11719.08984-.05859.11719-.03125.10156-.04297.17969-.11719.14844-.14843.01172-.13282-.01172-.10546-.08985-.0586-.1328.01563h-.14845l-.1328.01562-.13282-.01562-.1211-.03125-.08593-.0586-.07422-.07422-.0586-.08984-.0625-.08594-.11718-.17969-.0586-.08593.03125-.1211.08594-.05859.1211-.03125.05859-.08594v-.1211l-.03125-.11718-.0586-.08984-.05859-.08594-.04687-.10547-.02735-.11719-.01562-.1328.0586-.08985.07421-.07422.08984-.0586.1172-.17968.07421-.07422.0586-.08594.14843-.14844.1211-.03125.1328-.01562.13282.01562.07422.07422.04297.10547.01562.13281-.03125.1172-.11719.03124-.1328.01172-.14844.14844-.04297.10547-.04688.10156-.02734.1211-.03125.11718v.14844l.03125.11719.04297.10546.05859.08985.07422.07031.07422.07422.11719.03125.12109.02734.11719-.02734.1328-.01563h.1172l.08984.0586.07422.07422.04687.10546.0586.08594.10156.04688.13281.01562.10547.04297.08594.0586-.01172.10546-.07422.07422-.17969.11719-.05859.08984-.08984.0586-.07032.07422-.07421.07421-.0625.08985-.02735.11719-.01562.1328.01562.13282-.01562.13281v.14844l.01562.13281.02735.1172.03125.12108.07421.07422.08985.0586.08594.0586.08984.05858.11719.03125v.08594l-.10157.04688-.08984.0586-.26563.03124-.11718.02735h-.14844l-.10547.04296-.10156.04688-.0586.08984-.0625.23438-.01171.13281-.03125.1211-.01563.1328v.29298l-.01172.1328.01172.13673.01563.1328.1328.01563.13282.01172.1211.03125.08593.0586.07422.07421.04688.10547.04296.10157.01563.1328v.44532l-.01563.13281v.44532l.03125.26562.02735.11719.01562.13281.03125.11719.08594.21094.03125.26562v.14844l-.03125.11719-.02734.11718-.03125.1211-.02735.11719-.03125.11718-.03125.1211-.01171.1328-.01563.13282.08984.0586.1172-.03125.10155.01562.04688.10547-.03125.26562v.44141l-.04297.10547-.04688.10547-.04296.10156-.04297.10547-.0586.08594-.03125.12109-.04296.11719-.03125.11719-.01563.1328.01563.13282.05859.08984.10547.04688.08594.0586.05859.08593-.01172.13672-.03125.11719-.04297.10156v.44531l-.01562.13281v.14844l-.03125.11719-.04297.10547-.02735.11719-.04687.10546-.04297.10157-.03125.12109-.02734.11719-.03125.13281-.03125.11719-.02735.11719-.04297.10546-.03125.1172-.03125.12108-.01171.13282-.01563.13281v.29688l.02734.11718v.14844l.04688.39844.02734.11719.0586.08984.12109.03125h.14844l.13281-.01563.0586.08985v.11719l-.0586.08984-.08984.0586-.10157.04296-.10546.04688-.08985.05859-.08594.0586-.13671.01562-.1172-.03125-.1328-.01563-.10157.04688-.0625.08594-.01172.13671-.01562.13282-.03125.11719-.02735.11718-.01562.13281-.03125.1211v.29687l.01563.13282.03125.11718v.14844l.01171.13281v.14844l-.02734.11719-.04688.10156-.02734.1211-.03125.11718-.0586.08985-.07421.07421-.10156.04297-.10547.04688-.11719.02734-.1211.03125-.10156-.04687.0586-.08594.10547-.04688.02734-.11718.03125-.11719.02734-.1211.03125-.11718v-.14844l.01563-.13281-.03125-.11719-.04297-.10547-.10547.01563-.07422.07422-.10156.04296-.08984.0625-.07422.07422-.04297.10157-.01563.1328-.03125.1172L304.25 426l-.03125.11719-.02734.11719-.03125.12109-.02735.11719-.03125.11718-.04297.10547-.08984.0586h-.08984l-.1172-.03125-.03124-.08594.01562-.13672-.03125-.11719v-.14844l-.01171-.1328v-.14844l-.0625-.23438-.02735-.1211-.04297-.10156-.04687-.10546-.0586-.08594-.05859-.08985-.04297-.10546-.0625-.08594-.14844-.14844-.0703-.07422-.10548-.04687-.10547-.04297-.10156-.04297-.29687-.29688-.08985-.07421-.08594-.0586-.10546-.04297-.08985-.0625-.08594-.0586-.10546-.04296-.08985-.0586-.08594-.0625-.07421-.0703-.10547-.04688-.08594-.0586-.10547-.04296-.08984-.0625-.10156-.04297-.10547-.04297-.08594-.0586-.10547-.04687-.10547-.04297-.10156-.04687-.08985-.0586-.10156-.04297-.10547-.04296-.08984-.0625-.11719-.02735-.13281-.01562-.13281.01562H299.75l-.13281.01563-.11719-.03125-.08984-.0586-.07422-.07422-.08985-.05859-.10156-.04688h-.14844l-.12109-.02734-.10156-.04297-.07422-.07422-.11719-.17968-.08984-.0586-.10156-.04297-.08985-.0625-.10547-.04296-.08984-.0586-.08594-.0586-.10547-.04687-.0586-.08594-.05858-.08984-.04297-.10547-.04688-.10156-.07422-.07422-.08594-.0586-.07421-.07421-.08985-.0586-.22265-.22265-.04297-.10547-.03125-.26563.10547-.04296h.14453l.10547.04296.07421.07422.08985.0586.08594.0586.10546.04687.08985.05859.14844.14844.0703.07422.14845.14843.0625.08594.07421.07422.08594.0586.07422.07421.08985.0625.08984.0586.08594.05859.26953.17578.10156.04688.10547.04296.10156.04297.04688-.07421.05859-.08594.07422-.07422.07031-.07422.10547.04297.07422.07422.0586.08984.04296.10156.04688.10547.04296.10547.1211.02735.11719-.02735.07421-.08984.04297-.10547.0586-.08985.07422-.07421.10546-.04297.1172-.02735.1328.01172.08985.0586.14844.14843.05859.08985.04297.10547.04687.10156.04297.10547.04297.10156.10547.04688.10547.04296.13281.01563.08594-.0586.0586-.08984.07421-.07422.10547-.04297.11719.02735.10547.04687.10156.04297.10547.04297.10156.04688.17969.11718v.11719l-.01563.13281.01563.13281.01562.13672.0586.08594.10156.04688.1211.02734.11718.03125h.14844l.11719-.03125.05859-.08984.17969-.1172.05859-.08983.07422-.07422.0586-.08594.11718-.17969.17969-.11719.11719.03125.08984.0586.04297.07422-.01563.1328v.1172l.08985.05859h.14843l.13282-.01563.1328-.01171.26563-.03125.10547-.04297.11719-.03125.1211-.02735.07421-.07421.07031-.07422.0625-.08985-.01562-.10547-.04688-.10156-.10156-.04297-.10547-.01562-.11718.02734-.26563.03125h-.14844l-.07421-.07422-.08985-.0586-.11719-.03124-.11718-.02735-.13282-.01562h-.14843l-.13282.01563h-.29687l-.10547-.04688-.14844-.14844-.04297-.10156-.05859-.08984.22266-.22266.08593-.0586.10547-.04296.11719-.03125.13281-.01563.13281.01563.13672.01562.10157.04297.1328-.01172.08985-.0625.10156-.04297.0625-.08984-.04687-.10156-.08984-.0586-.1172-.03125-.10155-.04296-.0586-.08985-.0625-.08984v-.11719l.01563-.13281.10547-.04688.07421-.07031v-.1211l-.08984-.05859-.03125-.11719.08985-.05859.07421-.07422.04297-.10547.0586-.08984.04687-.10156.01563-.13281v-.14844l-.04688-.10547-.04297-.10156-.08984-.0586-.13281-.01562-.10157-.04297-.13671-.01563-.1172-.03125h-.4453l-.13282-.01562-.13281-.01172-.13281-.01563-.11719-.03125h-.14844l-.13281-.01562-.13281-.01172-.26563-.03125-.1211-.04297-.08593-.0586-.07422-.07421v-.14844l.01172-.13281.10547-.04688.10156-.04296.13281-.01563h.15235l.13281-.01562h.29297l.1211.03125.10156.04296.08984.0586.23438.0625.12109-.04688.08984-.05859.10156-.04297.13282-.01562.10547.04296.10156.04688.13281.01172.1211-.02735h.14453l.12109-.03125.11719-.02734.10547-.04687.07421-.07422.08594-.0586.14844-.14843.0586-.08594.04687-.10547.02734-.11719.01563-.10547-.10156-.04296-.08985-.0586-.11719-.03125-.10546-.04297-.08985-.0625-.07422-.08594-.07422-.07421-.10156-.04297-.10547-.04688-.10156-.04297-.0586-.08984-.04687-.10156-.08594-.21094-.0625-.08594-.05859-.08984-.07422-.07422-.08594-.0586h-.26953l-.11719.03126-.08984.05859-.10156.04297-.13281.01562-.10547-.01562-.02735-.11719-.0625-.08984-.11718-.03125-.10157-.04297-.14843-.14844-.03125-.11719-.01563-.10546.07422-.07422.17969-.1172.11719-.02733.11718-.03125.13672.01562.10156.04297.10547.04297.10156.04687.10547.04297.1172.03125.1328.01563.1172.02734.1328.01563.10547-.01563.08985-.0586-.07422-.07421-.10547-.04297-.07422-.07422-.07422-.08984-.14844-.14844-.08593-.0586-.08985-.05859-.07422-.07422-.08984-.0586-.10156-.04687-.1211-.02734-.10156-.04688-.10547-.04296-.11719-.03125-.10156-.04297-.1211-.03125h-.14843l-.11719.03125-.10546.04297-.08594.0625-.17969.11718-.08594.0586-.08984.0586-.10547.04687-.08594.05859-.10547.04297-.10156.04297-.10547.04687-.07422.07422-.05859.08985-.0586.08593-.04687.10547-.0586.08594-.07421.07422-.13281-.01172-.1172-.03125h-.11718l-.07422.07422-.08984.0586-.07422.07421-.08984.0586-.08594.05859-.10547.04687-.10156.04297-.13672.01563-.10156-.04297-.14844-.14844-.10547-.04688h-.08594l-.10547.04688-.10156.04297-.1211.03125-.11718-.03125-.07422-.07422v-.11719l.03125-.1211.07422-.0703.0586-.08985.07421-.07422.11719-.03125.10547-.04296h.29297l.13281-.01563.13672-.01563.10156-.04296.08985-.0586.10156-.04687.08984-.0586.13281-.01171.08985.05859.13281.01172.08984-.0586.08594-.05859.10547-.04297.08984-.0586.08594-.0625.08985-.05859.14843-.14843.0586-.08594.05859-.08985.10547-.04296.13281-.01563.11719.02735.1211.03125.05859-.0586.05859-.08984.03125-.26563.02734-.11719.10547.01172.13281.01563.10157-.04297.08984-.0586.0586-.08984.07421-.07422.0586-.08984.04687-.10156.01172-.13281-.01172-.13282-.04687-.10547-.14844-.14843-.0586-.08985-.05859-.08594-.04297-.10546v-.44532l.01563-.1328v-.14845l.01172-.1328-.0586-.0586-.08984.0586-.10156-.04298-.17969-.11719-.08594-.05859-.0625-.08984-.0586-.08985-.07421-.07421-.08594-.0586-.1211.03125-.10155.01172-.10547.04688-.08594.05859-.10547.04297-.14844.14844-.08984.05859-.08594.0586-.08984.0625-.10547.04296-.13281.01563v-.1211l.10547-.04297.11718-.03125.07422-.0703.04297-.10548v-.14844l-.02734-.11718-.14844-.14844-.13281-.01563h-.14844l-.11719.03125-.10547.04297-.10156.04297-.08984.0625-.11719.02735-.07422-.07422.01172-.13281-.04297-.10157-.04297-.10547-.08984-.05859-.11719.02734-.1211.03125-.11718.03125-.10156.04297-.1211.03125-.10156.04297-.10547.04297-.08984.0586-.10156.01562v-.11719l.01562-.13281-.0586-.08985-.07421.04297-.14844.14844-.0586.08985-.07421.07421-.04688.10547-.04296.10156-.07422.07422-.0586.08985-.07422.07422-.05859.08593-.07422.07422-.08984.0625-.07422.07031-.07422.07422-.10156.01563-.13281.01562-.10547-.04296v-.1211l.14843-.14844.04297-.10156.0586-.08984.04687-.10156.04297-.10547.0586-.08985.03124-.11719.04297-.10156.03125-.1211.02735-.11718.04687-.10547.04297-.10156.04297-.10547.07422-.07031.08984-.0625.08985-.0586.10156-.04296h.29687l.26563-.03125.10547-.04297-.07422-.07422-.11719-.03125-.10547-.04297-.08984-.0586-.10156-.04687-.08985-.0586-.10156-.04296-.10547-.04297-.08984-.0625-.08594-.0586-.10547-.04296-.10156-.04297-.1211-.03125-.11718-.03125-.10157-.04297L297.5 410.25l-.10156-.04297-.08985-.0586-.04296-.10546-.01563-.13281.10156-.04297.13281-.01563.13672.01563.13282-.01563.10156-.04297.0586-.08984.01562-.10547-.08985-.0586-.07421-.07421-.10157-.04297-.08984-.0586-.14844-.14843-.04297-.10547-.01562-.13281v-.29297l-.0586-.08985-.08984-.05859-.07422-.07422-.04297-.10547-.03125-.11718-.0586-.08985-.07421-.07422-.11719-.02734-.07422-.07422-.08984-.0586-.08984-.0625-.08594-.05859-.07422-.07421-.0586-.08594-.04687-.10547-.08594-.0586-.14843-.14843-.19532-.0586-.1328.01563-.10157.04297-.07422.07422-.04688.10156-.04296.10547-.0586.08984-.0586.08594-.29687.29687-.08984.0586h-.08594l-.0625-.08594-.04297-.10547.03125-.11719.0586-.08984.02734-.11719-.01172-.13281-.08984-.0625-.10547.04688-.11719.02734-.11719.03125-.26953.17578-.10156.04688-.11719.02734-.10546.04687-.08985.0586-.10156.04297-.0586-.08594-.04687-.10547.01563-.13281.04687-.10547.07031-.07422.07422-.07031.0586-.08985v-.14843l-.04297-.10547h-.23829l-.10156.04687-.03125.11719-.02734.11719-.03125.1211-.07422.04296-.13281.01563-.07422-.04688-.04297-.10156-.04297-.10547-.04687-.10156-.04297-.10547-.1211.03125-.10156.04297-.13281.01562-.11719.03125-.10547.04297-.08984.0586-.10156.04687-.1211.02734-.13281.01563-.10156-.04297-.0586-.08985-.04687-.10546-.04297-.10157-.04297-.10546v-.1172l.0586-.08984.08593-.05859.17969-.11719.10156-.04687.10547-.04297.10547-.0586.10156-.04296.08985-.0625.10156-.04297.10547-.0586.10156-.04687.08984-.0586.10547-.04296.10156-.04297.08985-.0625.10156-.04297.13672-.01563.11719.03125.10156.04297.1211.03125.10156.04297.10546.04688.10157.04296.10547.04297.10156.04688.10547.04297.10156.04297.10547.04687.08594.0586.10546.04296.1172.03125.10546.04297.10156.04688.08985.0586.10547.04296.10156.04297.10547.04687.11719.02735.10156.04687.1211.02735h.14843l.08594-.0586.01562-.10156.0586-.08984-.02735-.1172-.07422-.07421-.11719-.17969-.07421-.07422-.08985-.07421-.17969-.1172-.08593-.05859-.10547-.04296-.10156-.04688-.26954-.17578-.05859-.08985-.07422-.07421-.0586-.08985-.04296-.10156-.03125-.11719-.01563-.13672v-.5625l-.01171-.1328-.01563-.13282-.03125-.11719-.01562-.13281-.01172-.13281-.03125-.1211-.22266-.22265-.0586-.08594-.01562-.10547.03125-.11719.13281-.01562v-91.41406H172.9922v1.45312l-.0586.23438-.35156 1.05078-.17187.52343-.1172.34766-.17577.41016-.11719.17187-.23438.29297-.23046.0586h-.35157l-.11718.05859-.23047.40625v.29297l.11719.17578.23046.23047.1172.23437.64062.75781.29297.46485.17578.23437.23047.35156.23437.34766.64063.8164.17578.46485.17187.41016.11719.69531.17578.46875.11719 1.39844.0586.46484v.875l.11718 1.04688v4.78125l-.0586.46484-.35156 1.28125-.17578.52344-.11328.41015-.35156.9297L172.93359 336l-.23437.58203-.11719.17578-.17187.34766-.17578.40625-.35157.8164-.0586.29297-.11327.29297-.11719.28906-.0586.17579-.11718.875-.0586.40625-.05859.11718-.0586.17579-.05859.17187-.23047.52734-.11718.17188v.23437l-.11719.23438-.0586.17187-.17577.58594v.28906l-.0586.17579v.29296l-.0586.11329-.05859.52734v.17187l-.05468.23438v2.6211l-.17578.8164-.1172.17578-.17577.23438-.1172.17187-.11327.23438-.58594.93359-.23047.28906-.29297.46485-.17578.23437-.28906.35156-.35156.69922-.11328.23047-.17579.41016-.17578.23046-.40625.52735-.8164.69922-.29297.17187-.28906.23438-.17579.11719-.17578.17578-.52344.40625-.52734.17578-.17187.17578-.23438.05469-.64062.17578h-.75782m12.21094 31.02344l-1.07422.44921.35938.89454 1.25-.71485.44531-.53906-.98047-.08985"/><path fill="#d3d3d3" fill-opacity="0" fill-rule="evenodd" d="M201.50781 416.59766h-.89453l.44922.6289.98047.35938.80469-.08985.4453-.98828-.17577.08985-.71485-.35547-.89453.35547m154.6211 59.0703l-.0586-.52343v-.29297l.11328-.29297.0586-.23046.46875-.46875h.11328l.11719-.11329.11718-.05859h.17579l.23437-.0586h.34766l.23437.0586.11719.0586.23047.17187.0586.17578.11718.58203v.29297l-.11719.17578-.17187.28906-.17579.17579-.52734.52343-.23047.23438-.11719.0586h-.17578l-.11718-.0586-.40625-.29297-.17579-.11719-.11718-.0586-.0586-.11327-.05468-.1172m6.64062-10.95702l-.0586-.17188v-1.10937l.0586-.17188.17578-.0586.17188-.05858h.17578l.23437-.0586.1172.0586.05858.69921-.05859.17188-.11719.17578-.11718.0586-.23438.52343-.11328.0586h-.23438l-.05859-.1172m9.61328-14.39062l-.11719-.17578v-.69922l.29297-.875.1172-.17187.17577-.35156.11328-.23047.1172-.29297.35155-.75781.1172-.23047.17187-.23438h.17578l.11719-.0586h.64062l.11719.0586.23437.23438.17188.11328.35156.29297.11719.11718.11328.17579v.11328l.11719.05859.11718.11719v.69922l-.05859.17578v.23047l-.0586.17578-.34765 1.05078-.11719.23047-.11719.23437-.11718.0586-.23047.23437-.64063.28906h-.875l-.41015-.11718-.64063-.46485"/><path fill="none" stroke="#bebebe" stroke-linecap="round" stroke-linejoin="round" stroke-miterlimit="10" stroke-width=".5" d="M467.95703 311.69531H144.02734v168.625h323.9297v-168.625"/><g clip-path="url(#a)"><path fill="#fff" fill-opacity="0" fill-rule="evenodd" d="M144 475.89063v4.4375h.0039H144v-29.16797 24.73046"/></g><g clip-path="url(#b)"><path fill="#50fcfc" fill-rule="evenodd" d="M144 316.10938v.95312-5.39063h.0039H144v4.4375"/></g><path fill="#50fcfc" fill-rule="evenodd" d="M144 447.97266v3.1875l.0039-.00391v-3.1875l-.0039.0039"/><path fill="#00e8fc" fill-rule="evenodd" d="M144 437.0586v10.91406l.0039-.00391v-10.90234l-.0039-.00782"/><path fill="#50fcfc" fill-rule="evenodd" d="M144 430.96875v6.08984l.0039.00782v-6.09766H144"/><path fill="#fff" fill-opacity="0" fill-rule="evenodd" d="M144 317.0625v113.90625h.0039V317.06641L144 317.0625"/><g clip-path="url(#c)"><path fill="#fff" fill-opacity="0" fill-rule="evenodd" d="M144.0039 480.32813v-29.17188l2.32813-1.89453 1.97656-4.4414-.78515-4.4375-.67578-4.4375-2.31641-4.4375-.52734-.53907V317.06641l3.8828 3.48046.55079.3711.52734-.3711 2.25782-4.4375-.07422-4.4375h32.79687v8.45313l-.39453.42188.39453.48437.96875-.48438-.96875-.42187v-8.45313h44.38281v93.5l-4.4375.39844-4.4375 3.21094-.9375.53516-3.5 2.21484-3.20703 2.22266-1.23437.77734-2.51172-.77734-1.92578-.47266-.57031.47266-1.01172 4.4375 1.58203 1.5078 4.4375.21876 2.77344 2.71094-2.77344.64843-4.4375 1.10157-4.4375-.50782-4.4375.33204-4.4414.8125-4.4375.8828-2.41798 1.17188-2.01953.76953-4.4375.73047-4.4414.7539-4.4375.73048-4.37891 1.45312-.0586.03906-4.4375 1.45704-2.80468 2.9414-1.63281 2.6836-2.64453 1.7539-.33594 4.4375 1.73828 4.4414-.5 4.4375 1.74219 4.28907.01562.14844 1.13281 4.4375 3.28907 2.79687 4.1914-2.79687.2461-.17578 4.4375.17578 4.4375-.60547 4.4414.39063 4.4375-.65625 4.4375-2.15235 4.4375-.32422 2.03125-1.08984 2.41016-1.78125 4.4375 1.14453 4.125.63672.3125.0625 4.4375.23828 4.4414 1.46094 4.4375-.80078 4.4375 1.07812 4.4375-1.32422 1.31641-.71484 3.1211-1.15235 4.4414-.30859 3.91016-2.97656.52734-.9961 4.4375-2.55859 1.3711 3.55469 3.0664 1.73047 4.4375-.23438 3.50781-1.4961-3.5078-1.85155-4.4375-1.83594-2.8672-.75-1.5703-.39453-4.4375-2.98438-4.4375 2.26172-1.77345 1.11719-2.66797 1.13672-3.26171-1.13672 1.4375-4.4414 1.82422-3.21485 4.4414.00781 4.4375 2.86328 4.4375-.39844 3.45703-3.6953.6289-4.4375-2.13671-4.4375-1.94922-1.47657-2.88281-2.96094-1.55469-.92187-4.4375-1.26953-3.49219-2.25-.94922-2.25-1.4453-2.1875-1.32423-4.4375 2.41797-4.4375-4.08594-4.14454v-93.5h31.07032V425.9922l-1.78125 1.07812-2.66016 2.34766-2.40234 2.08984-1.0586 4.4375 3.46094 1.88281 4.4414.12891 2.125-2.01172.76173-4.4375-.8711-4.4375-2.01562-1.07812V311.67188h13.3125v113.10937l-2.5625 2.28906-1.875.64844-3.36328 3.78906 3.36328 2.16016 4.4375.6875 4.4414.09765 1.64454 1.4922 2.79296 2.60546 4.4375-1.24219 1.78516-1.36328.6211-4.4375-2.40626-2.49219-4.4375-1.46484-4.4375.83594-3.5078-1.3164-.9336-2.28907V311.67187h75.45312v121.50391l-2.71484 2.76953 2.71484 2.625 1.58594 1.8125 2.85156 2.7461 2.91016-2.7461-2.91016-2.8164-1.84765-1.6211-2.58985-2.76953v-121.5039h31.07031v121.48046l-3.35156 2.79297 2.96485 4.4375-4.0547 2.98047-1.53905 1.45703-1.94141 4.4414 3.48047 3.46876 3.69531-3.46875-1.83594-4.4414 2.58204-3.89454.46484-.54297.78906-4.4375-1.2539-2.79297V311.67188h8.875v132.65234l-1.80079.4961 1.80079.52343.71093-.52344-.71094-.4961V311.67189h79.88672v168.65625h-69.36328l-1.64844-2.28516-4.4375-2.01953-.38671-.13281.38671-.33204 2.52344-4.10546-2.52344-3.82032-.54687-.61719-3.10547-4.4414-.78515-1.96875-4.4375.3164-1.21485 1.65235-.9961 4.4414 2.21094 3.44922 1.04297.98829-1.04296 2.03906-1.02735 2.39844 1.02735 1.35546 3.76171 3.08204H144.00391"/></g><path fill="#50fcfc" fill-rule="evenodd" d="M146.33203 449.26172l-2.32812 1.89453v-3.1875l2.4414-3.14844-1.3789-4.4375-1.0625-3.3164v-6.09766l.52734.53906 2.3164 4.4375.67579 4.4375.78515 4.4375-1.97656 4.4414"/><path fill="#00e8fc" fill-rule="evenodd" d="M146.44531 444.82031l-2.4414 3.14844v-10.90234l1.0625 3.3164 1.3789 4.4375"/><g clip-path="url(#d)"><path fill="#50fcfc" fill-rule="evenodd" d="M147.88672 320.54688l-3.88281-3.48047v-5.39454h7.14453l.07422 4.4375-2.25782 4.4375-.52734.3711-.55078-.3711"/></g><path fill="#50fcfc" fill-rule="evenodd" d="M156.07422 449.26172l-1.73828-4.4414.33594-4.4375 2.64453-1.75391 1.6328-2.6836 2.8047-2.9414 4.4375-1.45704.05859-.03906 4.3789-1.45312 4.4375-.73047 4.44141-.7539 4.4375-.73048 2.01953-.76953 2.41797-1.17187 4.4375-.88281 4.4414-.8125 4.4375-.33204 4.4375.50782 4.4375-1.10157 2.77345-.64843-2.77344-2.71094-4.4375-.21875-1.58203-1.50781 1.01172-4.4375.5703-.47266 1.92579.47266 2.51172.77734 1.23437-.77734 3.20703-2.22266 3.5-2.21484.9375-.53516 4.4375-3.21094 4.4375-.39844v1.62891l-4.4375.61719-2.3125 1.89844-2.125 2.92968-1.69921 1.50782-1.1211 4.4375-.09375 4.4375-1.52344 1.96875-4.4414-.27344-4.39063 2.7461-.04687.12109-.3164-.1211-4.1211-.8711-2.80078.8711-1.63672.58594-4.4414 2.75-1.4961 1.10156-2.9414 3.32813-4.4375-.57813-4.4375.5586-4.44141.57421-.75782.5547-3.67968 1.92968-4.4375.72266-4.4375-1.6836-2.16407 3.46875-1.72265 4.4375.70703 4.4414.35547 4.4375.08203 4.4375 2.6289 4.4375.11329.09767.14062-.09766 4.29688-3.05469 4.4375.35938 4.4375-1.64844 2.60547-.09375.95703-4.4375-3.5625-1.79297-4.4375 1.27734-3.7422-3.92187 3.7422-2.21875 2.45312-2.22266 1.98438-2.64062 2.40234 2.64062 2.03906 1.61719 3.77344 2.82422-.51563 4.4375.32422 4.4375.85547.01562.02344-.01562.15234-4.4375 1.34375-4.4375 2.91797-1.7539 4.4375.13671 2.26953 1.61719 2.17188 1.3164 1.8789-1.3164-1.8789-3.54688-.53906-.89453.53906-1.16797 4.4375.46094.92578.70703 1.39844 4.4414 2.11328 2.03517 2.79687-2.03516-.60547-4.4414-2.1914-1.9961-2.08203-2.4414-.4961-4.4375 2.57813-.60548 4.04297-3.83203.39453-.16406 4.4414-.03125 4.4375-3.39063 1.00782-.85156 3.42969-3.83594v10.60547l-4.4375.85157-1.02344 1.2539 1.02344 1.53906 2.42578 2.89844 2.01172 1.65625 4.4375-.07422 3.0039-1.58203-2.6836-4.4375-.3203-.2461-4.4375-1.85937v-10.60546l1.98046 3.83593 1.16797 4.4375 1.28906.71485 4.4375 3.47265.35157.25 4.08984 2.4414 2.64063 1.9961 1.79687 1.46485 4.4375.03515 1.40234-1.5-1.32812-4.4375-.07422-.09375-4.4375-1.51562-4.4375-2.09766-.53906-.73047-3.90234-3.26172-1.83985-1.17578-2.59766-2.28125-3.91406-2.16015.28516-4.4375 2.41016-4.4375 1.21875-1.46094 2.48046-2.97656-2.48047-2.51563v-1.6289l4.08594 4.14453-2.41797 4.4375 1.32422 4.4375 1.44531 2.1875.94922 2.25 3.4922 2.25 4.4375 1.26953 1.55468.92187 2.88281 2.96094 1.94922 1.47656 2.13672 4.4375-.6289 4.4375-3.45704 3.69531-4.4375.39844-4.4375-2.86328-4.4414-.00781-1.82422 3.21484-1.4375 4.4414 3.26172 1.13673 2.66796-1.13672 1.77344-1.11719 4.4375-2.26172 4.4375 2.98438 1.57031.39453 2.8672.75 4.4375 1.83594 3.5078 1.85156-3.5078 1.4961-4.4375.23437-3.06642-1.73047-1.37109-3.55469-4.4375 2.5586-.52734.99609-3.91016 2.97656-4.4414.3086-3.1211 1.15234-1.3164.71484-4.4375 1.32422-4.4375-1.07812-4.4375.80078-4.44141-1.46094-4.4375-.23828-.3125-.0625-4.125-.63672-4.4375-1.14453-2.41016 1.78125-2.03125 1.08984-4.4375.32422-4.4375 2.15235-4.4375.65625-4.4414-.39063-4.4375.60547-4.4375-.17578-.2461.17578-4.1914 2.79687-3.28907-2.79687-1.1328-4.4375-.01563-.14844-1.7422-4.28906.5-4.4375"/><path fill="#00e8fc" fill-rule="evenodd" d="M158.57422 449.26172l-.70703-4.4414 1.72265-4.4375 2.16407-3.46876v5.35938l-1.75 2.54687 1.17578 4.4414.57422 2.17579.83593-2.17578 2.88672-4.4414-3.72265-2.54688v-5.35938l4.4375 1.6836 4.4375-.72266 3.67968-1.92969.75782-.55469 4.4414-.57421 4.4375-.5586 4.4375.57813v2.1836l-4.4375.5664-4.4375-.20703-2.33594 3.0039 2.33594 2.08985 4.4375-.39063 4.4375.82031 1.91406-2.51953-1.91406-3.36328v-2.1836l2.9414-3.32812 1.4961-1.10156 4.4414-2.75 1.63673-.58594 2.80078-.8711 4.1211.8711.3164.1211.04687-.1211 4.39063-2.7461v1.7461l-1.59766 1 1.59766 1.55469 2.3125-1.55469-2.3125-1v-1.7461l4.4414.27345 1.52344-1.96875.09375-4.4375 1.1211-4.4375 1.69922-1.50782 2.125-2.92968 2.3125-1.89844v4.80078l-.98829 1.53516.98828.82421.54297-.82421-.54297-1.53516v-4.80078l4.4375-.61719 2.48047 2.51563-2.48047 2.97656-1.21875 1.46094-2.41015 4.4375-.28516 4.4375 3.91406 2.16015 2.59766 2.28125 1.83984 1.17578 3.90235 3.26172.53906.73047 4.4375 2.09766 4.4375 1.51562.07422.09375 1.32813 4.4375-1.40235 1.5-4.4375-.03515-1.79687-1.46485-2.64063-1.9961-4.08984-2.4414-.35156-.25-4.4375-3.47265-1.28907-.71485-1.16797-4.4375-1.98047-3.83594-3.42968 3.83594-1.00781.85156-4.4375 3.39063-4.44141.03125-.39453.16406-4.04297 3.83203-2.57813.60547.4961 4.4375 2.08203 2.4414 2.1914 1.9961.60547 4.4414-2.79687 2.03517-2.11328-2.03516-1.39844-4.4414-.92578-.70704-4.4375-.46094-.53906 1.16797.53906.89453 1.8789 3.54688-1.8789 1.3164-2.17188-1.3164-2.26953-1.61719-4.4375-.13672-2.91797 1.7539-1.34375 4.4375-.15234 4.4375-.02344.01563-.85547-.01562-.32422-4.4375.51563-4.4375-3.77344-2.82422-2.03906-1.61719-2.40234-2.64062-1.98438 2.64062-2.45312 2.22266-3.7422 2.21875 3.7422 3.92187 4.4375-1.27734 3.5625 1.79297-.95703 4.4375-2.60547.09375-4.4375 1.64844-4.4375-.35938-4.29688 3.05469-.14062.09765-.11328-.09765-2.62891-4.4375-.08203-4.4375-.35547-4.4375"/><path fill="#00d4fc" fill-rule="evenodd" d="M161.17969 449.26172l-1.17578-4.4414 1.75-2.54688 3.72265 2.54687-2.88672 4.4414-.83593 2.17579-.57422-2.17578"/><path fill="#50fcfc" fill-rule="evenodd" d="M179.50781 437.3789l-2.33594 3.00391 2.33594 2.08985 4.4375-.39063 4.4375.82031 1.91406-2.51953-1.91406-3.36328-4.4375.5664-4.4375-.20702m4.4375-116.34766l-.39453-.48438.39453-.42187.96875.42188-.96875.48437"/><path fill="#00d4fc" fill-rule="evenodd" d="M210.57422 428.625l-1.59766-1.55469 1.59766-1 2.3125 1-2.3125 1.55469"/><path fill="#fff" fill-opacity="0" fill-rule="evenodd" d="M219.45313 434.6914l-1.02344 1.25391 1.02344 1.53906 2.42578 2.89844 2.01172 1.65625 4.4375-.07422 3.0039-1.58203-2.6836-4.4375-.3203-.2461-4.4375-1.85937-4.4375.85157"/><path fill="#00d4fc" fill-rule="evenodd" d="M223.89063 414.57813l-.98829-.82422.98828-1.53516.54297 1.53516-.54297.82421"/><path fill="#50fcfc" fill-rule="evenodd" d="M254.95703 437.82813l-3.46094-1.88282 1.0586-4.4375 2.40234-2.08984 2.66016-2.34766 1.78125-1.07812 2.01562 1.07812.8711 4.4375-.76172 4.4375-2.125 2.01172-4.4414-.1289m13.3164-4.16016l-3.36328-2.16016 3.36328-3.78906 1.875-.64844 2.5625-2.28906.9336 2.28906 3.5078 1.3164 4.4375-.83593v1.25l-4.4375 2.5-4.4414.09375-.19531.11328.1953.0625 4.44141.1289 4.4375 4.08985 3.90625-4.28125-3.90625-2.70703v-1.25l4.4375 1.46485 2.40625 2.49218-.62109 4.4375-1.78516 1.36328-4.4375 1.2422-2.79296-2.60548-1.64454-1.49219-4.4414-.09765-4.4375-.6875"/><path fill="#00e8fc" fill-rule="evenodd" d="M272.71094 431.57031l-.19531-.0625.1953-.11328 4.44141-.09375 4.4375-2.5v2.08203l-1.05468.625 1.05468.98438.89844-.98438-.89844-.625v-2.08203l3.90625 2.70703-3.90625 4.28125-4.4375-4.08984-4.4414-.1289"/><path fill="#00d4fc" fill-rule="evenodd" d="M281.58984 432.49219l-1.05468-.98438 1.05468-.625.89844.625-.89844.98438"/><path fill="#50fcfc" fill-rule="evenodd" d="M348.16406 438.57031l-2.71484-2.625 2.71484-2.76953 2.58985 2.76953 1.84765 1.6211 2.91016 2.8164-2.91016 2.7461-2.85156-2.7461-1.58594-1.8125m26.6289 14.16016l-3.48046-3.46875 1.9414-4.4414 1.53907-1.45704v3.71485l-1.52735 2.18359 1.52735 1.51953 1.6211-1.51953-1.6211-2.1836v-3.71484l4.05469-2.98047-2.96485-4.4375 3.35156-2.79297 1.25391 2.79297-.78906 4.4375-.46485.54297-2.58203 3.89453 1.83594 4.4414-3.69531 3.46876"/><path fill="#00e8fc" fill-rule="evenodd" d="M374.79297 450.78125l-1.52735-1.51953 1.52735-2.1836 1.6211 2.1836-1.6211 1.51953"/><g clip-path="url(#e)"><path fill="#50fcfc" fill-rule="evenodd" d="M383.67188 470.46484l-2.21094-3.44921.9961-4.44141 1.21483-1.65235 4.4375-.3164.78516 1.96875L392 467.01562l.54688.6172 2.52343 3.8203-2.52344 4.10547-.38671.33204.38671.1328 4.4375 2.01954 1.64844 2.28515h-4.41406l-1.67188-1.30859-1.42968 1.3086h-3.6836l-3.76171-3.08204-1.02735-1.35546 1.02735-2.39844 1.04296-2.03906-1.04296-.98829"/></g><path fill="#50fcfc" fill-rule="evenodd" d="M388.10938 445.34375l-1.80079-.52344 1.80079-.4961.71093.4961-.71094.52344"/><g clip-path="url(#f)"><path fill="#00e8fc" fill-rule="evenodd" d="M391.11719 480.32813h3.10156l-1.67188-1.3086-1.42968 1.3086"/></g><g clip-path="url(#g)"><path fill="#fff" fill-opacity="0" fill-rule="evenodd" d="M467.9961 480.32813H468V311.67188h-.0039H468v168.65625h-.0039"/></g><path fill="#fff" fill-opacity="0" fill-rule="evenodd" d="M218.1875 415.42969l5.00781-3.00781-5.1289-8.53907-5.00782 3.00781 5.12891 8.53907"/><path fill-rule="evenodd" d="M217 406.66016l.4375-.26172 3.24219 5.39453-.67578.40625-2.3125-3.84766-1.1875.71485-.28907-.47657.44922-.34375.1875-.17578.15235-.19531.10156-.22656.03906-.26953-.03125-.32422-.11328-.39453"/><path fill="#fff" fill-opacity="0" fill-rule="evenodd" d="M227.10938 464.85156l5.39453-2.24219-3.82422-9.19921-5.39453 2.24218 3.82422 9.19922"/><path fill-rule="evenodd" d="M227.22266 456.0039l.46875-.1953 2.41406 5.8125-.72656.30077-1.72266-4.14453-1.28125.53125-.21484-.51171.49218-.27735.21485-.14453.17578-.17188.13281-.20703.08203-.26171.01563-.32422-.05078-.40625"/><g clip-path="url(#h)"><path fill="none" stroke="#000" stroke-linecap="round" stroke-linejoin="round" stroke-miterlimit="10" stroke-width=".5" d="M147.51172 480.47266l-7.02344-.28907"/></g><g clip-path="url(#i)"><path fill="none" stroke="#000" stroke-linecap="round" stroke-linejoin="round" stroke-miterlimit="10" stroke-width=".5" d="M147.51172 480.47266l1.0625 2.21093"/></g><g clip-path="url(#j)"><path fill="none" stroke="#000" stroke-linecap="round" stroke-linejoin="round" stroke-miterlimit="10" stroke-width=".5" d="M146.48828 480.42969l.53125 1.10547"/></g><g clip-path="url(#k)"><path fill="none" stroke="#000" stroke-linecap="round" stroke-linejoin="round" stroke-miterlimit="10" stroke-width=".5" d="M160.82813 480.3789l-7.02735-.10156"/></g><g clip-path="url(#l)"><path fill="none" stroke="#000" stroke-linecap="round" stroke-linejoin="round" stroke-miterlimit="10" stroke-width=".5" d="M160.82813 480.3789l1.12109 2.1836"/></g><g clip-path="url(#m)"><path fill="none" stroke="#000" stroke-linecap="round" stroke-linejoin="round" stroke-miterlimit="10" stroke-width=".5" d="M159.80469 480.36328l.5625 1.09375"/></g><g clip-path="url(#n)"><path fill="none" stroke="#000" stroke-linecap="round" stroke-linejoin="round" stroke-miterlimit="10" stroke-width=".5" d="M174.14063 480.41797l-7.02344-.17969"/></g><g clip-path="url(#o)"><path fill="none" stroke="#000" stroke-linecap="round" stroke-linejoin="round" stroke-miterlimit="10" stroke-width=".5" d="M174.14063 480.41797l1.09765 2.19531"/></g><g clip-path="url(#p)"><path fill="none" stroke="#000" stroke-linecap="round" stroke-linejoin="round" stroke-miterlimit="10" stroke-width=".5" d="M173.1211 480.39063l.54687 1.09765"/></g><g clip-path="url(#q)"><path fill="none" stroke="#000" stroke-linecap="round" stroke-linejoin="round" stroke-miterlimit="10" stroke-width=".5" d="M187.45703 480.33984l-7.02344-.02343"/></g><g clip-path="url(#r)"><path fill="none" stroke="#000" stroke-linecap="round" stroke-linejoin="round" stroke-miterlimit="10" stroke-width=".5" d="M187.45703 480.33984l1.14453 2.17188"/></g><g clip-path="url(#s)"><path fill="none" stroke="#000" stroke-linecap="round" stroke-linejoin="round" stroke-miterlimit="10" stroke-width=".5" d="M186.4375 480.33594l.57031 1.08594"/></g><g clip-path="url(#t)"><path fill="none" stroke="#000" stroke-linecap="round" stroke-linejoin="round" stroke-miterlimit="10" stroke-width=".5" d="M200.76953 480.17969l-7.01953.29687"/></g><g clip-path="url(#u)"><path fill="none" stroke="#000" stroke-linecap="round" stroke-linejoin="round" stroke-miterlimit="10" stroke-width=".5" d="M200.76953 480.17969l1.24219 2.11719"/></g><g clip-path="url(#v)"><path fill="none" stroke="#000" stroke-linecap="round" stroke-linejoin="round" stroke-miterlimit="10" stroke-width=".5" d="M199.75 480.22266l.6211 1.05859"/></g><g clip-path="url(#w)"><path fill="none" stroke="#000" stroke-linecap="round" stroke-linejoin="round" stroke-miterlimit="10" stroke-width=".5" d="M214.08984 480.28125l-7.02734.09375"/></g><g clip-path="url(#x)"><path fill="none" stroke="#000" stroke-linecap="round" stroke-linejoin="round" stroke-miterlimit="10" stroke-width=".5" d="M214.08984 480.28125l1.1797 2.14844"/></g><g clip-path="url(#y)"><path fill="none" stroke="#000" stroke-linecap="round" stroke-linejoin="round" stroke-miterlimit="10" stroke-width=".5" d="M213.0664 480.29297l.58985 1.07812"/></g><g clip-path="url(#z)"><path fill="none" stroke="#000" stroke-linecap="round" stroke-linejoin="round" stroke-miterlimit="10" stroke-width=".5" d="M227.39453 480.05078l-7.00781.55469"/></g><g clip-path="url(#A)"><path fill="none" stroke="#000" stroke-linecap="round" stroke-linejoin="round" stroke-miterlimit="10" stroke-width=".5" d="M227.39453 480.05078l1.3164 2.07031"/></g><g clip-path="url(#B)"><path fill="none" stroke="#000" stroke-linecap="round" stroke-linejoin="round" stroke-miterlimit="10" stroke-width=".5" d="M226.375 480.13281l.66016 1.03516"/></g><g clip-path="url(#C)"><path fill="none" stroke="#000" stroke-linecap="round" stroke-linejoin="round" stroke-miterlimit="10" stroke-width=".5" d="M240.6875 479.85547l-6.96484.94531"/></g><g clip-path="url(#D)"><path fill="none" stroke="#000" stroke-linecap="round" stroke-linejoin="round" stroke-miterlimit="10" stroke-width=".5" d="M240.6875 479.85547l1.4336 1.99219"/></g><g clip-path="url(#E)"><path fill="none" stroke="#000" stroke-linecap="round" stroke-linejoin="round" stroke-miterlimit="10" stroke-width=".5" d="M239.67578 479.99219l.71484.9961"/></g><g clip-path="url(#F)"><path fill="none" stroke="#000" stroke-linecap="round" stroke-linejoin="round" stroke-miterlimit="10" stroke-width=".5" d="M253.99219 479.78906l-6.9414 1.08203"/></g><g clip-path="url(#G)"><path fill="none" stroke="#000" stroke-linecap="round" stroke-linejoin="round" stroke-miterlimit="10" stroke-width=".5" d="M253.99219 479.78906l1.47265 1.96094"/></g><g clip-path="url(#H)"><path fill="none" stroke="#000" stroke-linecap="round" stroke-linejoin="round" stroke-miterlimit="10" stroke-width=".5" d="M267.28125 479.63672l-6.89063 1.38281"/></g><g clip-path="url(#I)"><path fill="none" stroke="#000" stroke-linecap="round" stroke-linejoin="round" stroke-miterlimit="10" stroke-width=".5" d="M267.28125 479.63672l1.55469 1.89844"/></g><g clip-path="url(#J)"><path fill="none" stroke="#000" stroke-linecap="round" stroke-linejoin="round" stroke-miterlimit="10" stroke-width=".5" d="M280.55469 479.45703l-6.8086 1.74219"/></g><g clip-path="url(#K)"><path fill="none" stroke="#000" stroke-linecap="round" stroke-linejoin="round" stroke-miterlimit="10" stroke-width=".5" d="M280.55469 479.45703l1.65234 1.8125"/></g><g clip-path="url(#L)"><path fill="none" stroke="#000" stroke-linecap="round" stroke-linejoin="round" stroke-miterlimit="10" stroke-width=".5" d="M293.8789 479.5039l-6.82812 1.65235"/></g><g clip-path="url(#M)"><path fill="none" stroke="#000" stroke-linecap="round" stroke-linejoin="round" stroke-miterlimit="10" stroke-width=".5" d="M293.8789 479.5039l1.63282 1.83204"/></g><g clip-path="url(#N)"><path fill="none" stroke="#000" stroke-linecap="round" stroke-linejoin="round" stroke-miterlimit="10" stroke-width=".5" d="M307.13672 479.28125l-6.71094 2.09375"/></g><g clip-path="url(#O)"><path fill="none" stroke="#000" stroke-linecap="round" stroke-linejoin="round" stroke-miterlimit="10" stroke-width=".5" d="M306.16016 479.58594l.87109.86328"/></g><g clip-path="url(#P)"><path fill="none" stroke="#000" stroke-linecap="round" stroke-linejoin="round" stroke-miterlimit="10" stroke-width=".5" d="M320.5664 479.76953l-6.9414 1.11719"/></g><g clip-path="url(#Q)"><path fill="none" stroke="#000" stroke-linecap="round" stroke-linejoin="round" stroke-miterlimit="10" stroke-width=".5" d="M319.55469 479.9336l.74219.97656"/></g><g clip-path="url(#R)"><path fill="none" stroke="#000" stroke-linecap="round" stroke-linejoin="round" stroke-miterlimit="10" stroke-width=".5" d="M333.92578 480.30469l-7.02734.04687"/></g><g clip-path="url(#S)"><path fill="none" stroke="#000" stroke-linecap="round" stroke-linejoin="round" stroke-miterlimit="10" stroke-width=".5" d="M332.90234 480.3125l.58204 1.07813"/></g><g clip-path="url(#T)"><path fill="none" stroke="#000" stroke-linecap="round" stroke-linejoin="round" stroke-miterlimit="10" stroke-width=".5" d="M347.0586 479.21875l-6.66798 2.21875"/></g><g clip-path="url(#U)"><path fill="none" stroke="#000" stroke-linecap="round" stroke-linejoin="round" stroke-miterlimit="10" stroke-width=".5" d="M346.08984 479.54297l.88672.84765"/></g><g clip-path="url(#V)"><path fill="none" stroke="#000" stroke-linecap="round" stroke-linejoin="round" stroke-miterlimit="10" stroke-width=".5" d="M360.05469 482.13672l-6.02735-3.61719"/></g><g clip-path="url(#W)"><path fill="none" stroke="#000" stroke-linecap="round" stroke-linejoin="round" stroke-miterlimit="10" stroke-width=".5" d="M369.4336 483.71875l1.84765-6.78125"/></g><g clip-path="url(#X)"><path fill="none" stroke="#000" stroke-linecap="round" stroke-linejoin="round" stroke-miterlimit="10" stroke-width=".5" d="M380.4336 481.69531l6.47656-2.73047"/></g><g clip-path="url(#Y)"><path fill="none" stroke="#000" stroke-linecap="round" stroke-linejoin="round" stroke-miterlimit="10" stroke-width=".5" d="M381.375 481.29688l-.94922-.77344"/></g><g clip-path="url(#Z)"><path fill="none" stroke="#000" stroke-linecap="round" stroke-linejoin="round" stroke-miterlimit="10" stroke-width=".5" d="M393.6914 481.55078l6.58985-2.44531"/></g><g clip-path="url(#aa)"><path fill="none" stroke="#000" stroke-linecap="round" stroke-linejoin="round" stroke-miterlimit="10" stroke-width=".5" d="M393.6914 481.55078l-1.83202-1.6289"/></g><g clip-path="url(#ab)"><path fill="none" stroke="#000" stroke-linecap="round" stroke-linejoin="round" stroke-miterlimit="10" stroke-width=".5" d="M407.22266 482.01953l6.15625-3.38281"/></g><g clip-path="url(#ac)"><path fill="none" stroke="#000" stroke-linecap="round" stroke-linejoin="round" stroke-miterlimit="10" stroke-width=".5" d="M407.22266 482.01953l-2.0547-1.34375"/></g><g clip-path="url(#ad)"><path fill="none" stroke="#000" stroke-linecap="round" stroke-linejoin="round" stroke-miterlimit="10" stroke-width=".5" d="M420.14844 480.8789l6.9375-1.10156"/></g><g clip-path="url(#ae)"><path fill="none" stroke="#000" stroke-linecap="round" stroke-linejoin="round" stroke-miterlimit="10" stroke-width=".5" d="M421.15625 480.71875l-.73828-.97656"/></g><g clip-path="url(#af)"><path fill="none" stroke="#000" stroke-linecap="round" stroke-linejoin="round" stroke-miterlimit="10" stroke-width=".5" d="M433.64063 479.09375l6.58203 2.46875"/></g><path fill="none" stroke="#000" stroke-linecap="round" stroke-linejoin="round" stroke-miterlimit="10" stroke-width=".5" d="M434.59766 479.45313l-.15625-1.21485"/><g clip-path="url(#ag)"><path fill="none" stroke="#000" stroke-linecap="round" stroke-linejoin="round" stroke-miterlimit="10" stroke-width=".5" d="M447.09375 478.77344l6.30469 3.10937"/></g><path fill="none" stroke="#000" stroke-linecap="round" stroke-linejoin="round" stroke-miterlimit="10" stroke-width=".5" d="M448.01172 479.22656L447.97656 478"/><g clip-path="url(#ah)"><path fill="none" stroke="#000" stroke-linecap="round" stroke-linejoin="round" stroke-miterlimit="10" stroke-width=".5" d="M460.17969 481.27734l6.76562-1.89843"/></g><g clip-path="url(#ai)"><path fill="none" stroke="#000" stroke-linecap="round" stroke-linejoin="round" stroke-miterlimit="10" stroke-width=".5" d="M461.16406 481l-.84765-.88672"/></g><g clip-path="url(#aj)"><path fill="none" stroke="#000" stroke-linecap="round" stroke-linejoin="round" stroke-miterlimit="10" stroke-width=".5" d="M147.5 467.33203l-7-.63672"/></g><path fill="none" stroke="#000" stroke-linecap="round" stroke-linejoin="round" stroke-miterlimit="10" stroke-width=".5" d="M147.5 467.33203l.94922 2.26172m-1.96875-2.35547l.47656 1.13281m13.8711-1.3789l-7.02735.04297m7.02734-.04297l1.16797 2.15625m-2.1914-2.15235l.58594 1.08204m13.73046-1.45313l-6.98437.77734m6.98437-.77734l1.38672 2.02344m-2.40234-1.91016l.6914 1.01172m13.64454-1.09375l-6.9922.71484m6.9922-.71484l1.36328 2.03906m-2.38281-1.9336l.68359 1.01954m13.64062-1.22266l-6.96875.91016m6.96875-.91016l1.42188 2m-2.4375-1.86718l1.42187 2m12.86328-2.39844l-6.8789 1.4414m6.8789-1.4414l1.57032 1.88281m-2.57422-1.67187l.78906.9414m13.46484-1.40625l-6.75 1.94922m6.75-1.94922l1.70704 1.76172m-2.6875-1.48047l.85156.88282m13.39062-1.33985l-6.64062 2.30078m6.64062-2.30078l1.79688 1.67188m-2.76563-1.33594l.89844.83203m13.39844-1.1211l-6.67188 2.20704m6.67188-2.20703l1.77344 1.6953m-2.7422-1.375l.88673.85157m13.4336-1.05469L260.46483 468m6.7422-1.97266l1.71484 1.75782m-2.69532-1.47266l.85547.8789m13.3711-1.375l-6.60547 2.39454m6.60547-2.39453l1.8203 1.64453m-2.78124-1.29688l.91015.82422m13.2461-1.46094L287.28125 468.5m6.36719-2.97266L295.60937 467m11.33204-1.52344l-6.32032 3.07422m6.32032-3.07422l1.98437 1.44532m11.30078-1.50782l-6.26172 3.19922m5.35157-2.73437l1.0039.70312m12.77344-1.83594l-5.36719 4.53516m4.58594-3.875l1.14062.45703m12.65625-1.42969l-4.76953 5.16016m4.07813-4.41016l1.1875.3125m11.72265-1.75l-2.57421 6.53516m2.19921-5.58594l1.21875-.13672m11.7422-1.01562l-1.11329 6.9414m10.41016-4.07812l6.92187 1.21484m-5.91406-1.03906l-.38281-1.16406m12.65625 1.94922l6.98828-.70703m-6.98828.70703l-1.36719-2.03907m15.53125-.625l5.29297 4.6211m-4.52344-3.94922l.27734-1.19531m14.625-.66797l.57813 7.0039m-.49219-5.98437l1.03125-.66406m13.51953-.21094l-2.0664 6.71484m1.76562-5.73828l1.20313-.23437m10.52343-.79297l1.71094 6.8164m-1.46094-5.82421l.91016-.82422m11.9336-.10547l2.15234 6.6914m-1.83985-5.71874l.85547-.87891"/><g clip-path="url(#ak)"><path fill="none" stroke="#000" stroke-linecap="round" stroke-linejoin="round" stroke-miterlimit="10" stroke-width=".5" d="M147.46094 454.3125l-6.92188-1.22656"/></g><path fill="none" stroke="#000" stroke-linecap="round" stroke-linejoin="round" stroke-miterlimit="10" stroke-width=".5" d="M147.46094 454.3125l.7539 2.33203m-1.76172-2.51172l.37891 1.16797m13.97656-1.23437l-6.98828-.73438m6.98828.73438l.92188 2.27343m12.41406-2.6289l-7.02734-.02735m7.02734.02735l1.14453 2.17187m12.14844-2.58203l-6.98438.79297m6.98438-.79297l1.38672 2.02344m11.9375-1.89453l-7.0039.53906m7.0039-.53906l1.3164 2.07031m-2.33593-1.99219l.66015 1.03516m13.6836-.9961l-7.01953.3047m7.01953-.3047l1.2461 2.11329m-2.26954-2.07032l.625 1.0586m13.63281-1.71875l-6.85937 1.53515m6.85937-1.53515l1.59766 1.86328m11.54297-2.41406l-6.51172 2.64062m6.51172-2.64062l1.88281 1.57422m11.26953-1.91797l-6.1875 3.32812m6.1875-3.32812l2.04297 1.35937m-2.9414-.875l1.01952.67969m13.39454-.72266l-6.58594 2.4414m6.58594-2.4414l1.83593 1.63282m-2.79296-1.27735l.91796.8164m13.34375-1.20312l-6.5664 2.5039m6.5664-2.5039l1.84766 1.61719m-2.80469-1.25l.92578.80469m13.30078-1.28906l-6.47265 2.73828m6.47265-2.73828l1.90235 1.54687m-2.84375-1.14844l.94922.77344m13.29687-1.1875l-6.45312 2.77344m6.45312-2.77344l1.91406 1.53516m-2.85156-1.13282l.95703.76954m13.08204-1.58985l-6.02735 3.60938m6.02735-3.60938l2.10156 1.26563m10.92187-1.6875l-5.4414 4.44922m5.4414-4.44922l2.26172.94922m9.8789-1.875l-3.09765 6.30468m3.09766-6.30468l2.45312-.08204m10.7539.02735l-2.8789 6.41406m2.8789-6.41406l2.44532-.16406m-2.86719 1.09765l1.22657-.08203m11.98437-1.03906l-1.82422 6.78515m1.82422-6.78515l2.39063-.55078m11.71484.87109l-3.40625 6.14844m2.91016-5.2539l1.22656.01952m8.10156.01172l5.5586 4.29688m-4.75-3.67188l.20703-1.21094m12.08984 4.57813l5.98047-3.6875m-5.11328 3.15234l-1.0586-.6211m13.38672-2.32812l6.21485 3.28125m-5.3086-2.80468l-.0039-1.22657m17.64843-.40625l-4.2539 5.59375m3.63672-4.78125l1.21093.19922m12.53516-1.14453l-3.88281 5.85938m3.88281-5.85938l2.4414.23828m-3.0078.61328l1.22265.1211m12.41797-1.11719l-3.40235 6.14844m3.40235-6.14844l2.45312.03906"/><g clip-path="url(#al)"><path fill="none" stroke="#000" stroke-linecap="round" stroke-linejoin="round" stroke-miterlimit="10" stroke-width=".5" d="M147.41797 441.1914l-6.83594-1.61718"/></g><path fill="none" stroke="#000" stroke-linecap="round" stroke-linejoin="round" stroke-miterlimit="10" stroke-width=".5" d="M147.41797 441.1914l.625 2.375m-1.61719-2.60937l.3086 1.1875m14.05078-1.21484l-6.94141-1.09375m6.9414 1.09375l.80079 2.32031m12.53515-2.45312l-6.98047-.82813m6.98047.82813l.88672 2.28515m12.42578-2.29297l-6.98047-.8086m6.98047.8086l.89844 2.28125m12.4375-2.5586l-7.01953-.2578m7.01953.2578l1.07422 2.21095m12.23828-2.09375l-7.01172-.4922m7.01172.4922l.9961 2.24218m12.1289-3.64453l-6.63281 2.3164m6.63281-2.3164l1.80078 1.66407m11.23828-2.26954l-6.08203 3.52344m6.08203-3.52344l2.08203 1.29688m10.8672-1.8125l-5.34766 4.5586m5.34765-4.5586l2.28125.89844m10.74219-1.20313l-4.76563 5.16406m4.76563-5.16406l2.375.625m10.8711-.6836l-4.62891 5.28516m4.6289-5.28515l2.39063.5586m11.2539-.23048l-5.28906 4.625m5.28906-4.625l2.29297.8711m11.05079-.83985l-5.34375 4.5625m5.34375-4.5625l2.28125.89844m-3.0586-.23437l1.14063.44921m12.88671-1.1875l-5.21484 4.71094m5.21485-4.71094l2.30859.83594m-3.0664-.14844l2.30468.83594m11.9375-1.3164l-5.55469 4.30078m5.55469-4.30078l2.23828 1.0078m-3.04687-.3828l1.12109.5039m12.78125-1.39062l-5.10938 4.82422m5.10938-4.82422l2.32422.78125m-3.0664-.08203l1.16015.39453m11.79687-1.88282l-2.91015 6.39844m2.91015-6.39844l2.44532-.15234m9.19921-.15625l.4336 7.01563m-.4336-7.01563l2.08985-1.28125m-2.02735 2.30469l1.04688-.64453m10.20313.40234l4.43359 5.45313m-4.4336-5.45313l.95313-2.25781M393.49219 440l6.98828.76563m-5.96875-.65235l-.45703-1.14062m12.89062 2.44922l6.71094-2.07813m-6.71094 2.07813l-1.74219-1.72657m21.25391-1.38281l-5.67969 4.14063m4.85157-3.53907l1.10546.53907m11.73829-2.22657l-3.08204 6.3125m3.08204-6.3125l2.45312-.08593m10.53906-.0547l-2.4375 6.59376m11.72266-5.40235l5.625 4.21094"/><g clip-path="url(#am)"><path fill="none" stroke="#000" stroke-linecap="round" stroke-linejoin="round" stroke-miterlimit="10" stroke-width=".5" d="M147.39844 427.96484l-6.79688-1.79297"/></g><path fill="none" stroke="#000" stroke-linecap="round" stroke-linejoin="round" stroke-miterlimit="10" stroke-width=".5" d="M147.39844 427.96484l.5625 2.38672m12.79297-2.55469l-6.875-1.45703m6.875 1.45703l.67578 2.35938m12.53125-1.96484l-6.66016-2.2461m6.66016 2.2461l.39453 2.42187m12.92969-2.46094l-6.6797-2.16796m6.6797 2.16796l.42578 2.41797m13.0586-3.3086l-7.01563-.38671m7.01562.38672l1.02734 2.23047m11.71875-4.34766l-5.8828 3.84766m5.8828-3.84766l2.14844 1.1836m10.84375-1.60157l-5.23828 4.6836m5.23828-4.6836l2.30469.84766m11.78125.5586l-6.77344 1.87109m6.77344-1.8711l1.6836 1.78125m11.02343-2.99219l-5.5625 4.29297m4.7539-3.66797l1.1172.50782m12.91406-1.2461l-5.3789 4.51953m5.3789-4.51953l2.27734.91797m10.9961-.96875l-5.29297 4.6211m5.29297-4.6211l2.29296.8789m10.17578-1.58593l-3.60156 6.03516m3.07813-5.15625l1.22656.0625m13.38281-.3164l-5.14453 4.78515m5.14453-4.78516l2.32031.80078m10.36329-1.33984L315.16016 430m3.875-5.86328l2.4414.23437m-3.00781.6211l1.22266.11328m13.01171-.69922l-4.58593 5.32422m4.58594-5.32422l2.39453.53906m-3.0625.23438l1.19921.26953m13.36329-.40625l-5.7422 4.05078m5.7422-4.05078l2.1875 1.10547m-3.02344-.51563l1.09375.55078m13.04687-1.15625l-5.72265 4.08203m5.72265-4.08203l2.19532 1.09766m8.3164-2.57031l-.11719 7.02734m.1172-7.02734l2.1875-1.11328m10.57812 1.14843l.98047 6.95704m-.98047-6.95704l1.98437-1.4453m12.90625 1.58202l-2.16797 6.6836m2.16797-6.6836l2.41406-.42969m-2.73046 1.40235l1.20703-.21485m13.26172-.35546l-3.84375 5.8789m3.84375-5.8789l2.4453.21875m-3.0039.63672l1.22266.10937m13.21484-.50781l-4.96875 4.96875m4.96875-4.96875l2.34766.71484m-3.07031.00781l2.34375.71485m10.2578-2.3086l-2.09765 6.70704m2.09766-6.70704l2.41015-.45312m-2.71484 1.42969l1.20313-.22657m11.03515-.89453l.66406 6.9961m-.66406-6.9961l2.04688-1.35156m-1.94922 2.3711l1.02344-.67579m13.05859-.32031l-1.0664 6.94922m1.0664-6.94922l2.3164-.8086m-2.47265 1.82032l1.16016-.40625"/><g clip-path="url(#an)"><path fill="none" stroke="#000" stroke-linecap="round" stroke-linejoin="round" stroke-miterlimit="10" stroke-width=".5" d="M147.45313 414.39844l-6.90625-1.28906"/></g><path fill="none" stroke="#000" stroke-linecap="round" stroke-linejoin="round" stroke-miterlimit="10" stroke-width=".5" d="M147.45313 414.39844l.73437 2.34375m12.52734-2.09766l-6.79687-1.78125m6.79687 1.78125l.56641 2.38672m12.83594-2.83984l-6.97266-.87891m6.97266.8789l.8711 2.29298m12.44921-3.1172l-6.98438.76954m6.98438-.76953l1.38281 2.02734m11.57031-3.23828l-6.2578 3.19531m6.2578-3.19531l2.01172 1.40625m10.83985-2.09375l-5.33594 4.57031m4.5586-3.90625l1.14452.44531m13.36329-.51171l-6.16407 3.375m5.26563-2.88672l1.02734.67578m11.08203 3.89844l-1.95703-6.75m1.95703 6.75l-1.76172 1.70703m17.5547-4.4414l-6.91016-1.28126m6.91015 1.28125l.73438 2.33984m12.52734-2.10937l-6.80469-1.74219m5.81641 1.48828l.28906 1.19141m13.96875-2.84375l-6.71484 2.07031m5.73828-1.76953l.8711.86719m13.54687-.60156l-6.96485.9375m6.96485-.9375l1.42969 1.99218m11.88671-1.97656l-6.96875.90625m5.95313-.77344l.71094 1m12.15234-3.55468l-4.03516 5.75m4.03516-5.75l2.4375.30078m11.91016.82812l-6.10157 3.48828m6.10157-3.48828l2.07422 1.3086m11.5625-.5547l-6.7422 1.98438m6.7422-1.98437l1.71484 1.7539m11.61328.17579l-6.76953-1.875m6.76953 1.875l.53516 2.39453m12.32422-5.27344l-5.85938 3.88281m5.85938-3.88281l2.15625 1.17187m-3.00782-.60546l2.15625 1.16796m11.42188-2.41406l-4.6836 5.23828m4.6836-5.23828l2.38281.58594m-3.0625.17578l2.38281.58594m10.75391-1.91016l-2.96484 6.36719m2.96484-6.36719l2.45312-.1289m-2.8828 1.05468l2.44921-.1289m11.08984-.88672l-2.55078 6.54687m2.55078-6.54687l2.4375-.28906m-2.80859 1.24218l1.21875-.14453m12.90234-.60156l-3.42578 6.13281m3.42578-6.13281l2.45313.04687m-2.94922.84375l1.22656.02735m12.11328-1.13672l-2.48437 6.57031m2.48437-6.57031l2.4375-.3125m9.45313.08984l.36719 7.01563m-.36719-7.01563l2.10156-1.26562m-2.04687 2.28515l1.05078-.6328m12.51562-.39063l-.24218 7.02343m.24218-7.02343l2.20313-1.07813m-2.23828 2.10156l2.20312-1.07812"/><g clip-path="url(#ao)"><path fill="none" stroke="#000" stroke-linecap="round" stroke-linejoin="round" stroke-miterlimit="10" stroke-width=".5" d="M147.47266 400.97266l-6.94532-1.07032"/></g><path fill="none" stroke="#000" stroke-linecap="round" stroke-linejoin="round" stroke-miterlimit="10" stroke-width=".5" d="M146.46094 400.8164l.40625 1.16016m13.91797-.98047l-6.9375-1.11718m5.92578.95703l.39844 1.16015m13.63671-3.05078l-6.35937 2.98828m5.4375-2.55468l.98047.73437m12.7461-1.96094l-5.33595 4.57422m5.33594-4.57422l2.28516.89454m11.63672.12109l-6.55078 2.54297m5.59765-2.17578l.92969.80468m8.6289 3.3047l2.8711-6.41407m15.15625 4.47656l-6.55469-2.53515m5.60156 2.16406l.14453 1.21875m14.33985-2.49219l-6.98828.75m5.97265-.64063l.6875 1.01563m13.5586.10156l-6.8164-1.70312m6.8164 1.70312l.58984 2.38281m12.71094-4.13671l-6.78906 1.80468m6.78906-1.80468l1.67187 1.79687m11.52735-2.15234l-6.5586 2.51562m6.5586-2.51562l1.85156 1.60937m-2.80469-1.24219l.92578.8047m13.41407-.97266l-6.69922 2.11718m6.69922-2.11718l1.75 1.71875m10.42578-3.39063l-4.42188 5.46094m4.42188-5.46094l2.41015.46875m12.04297 1.20313l-6.69922 2.11718m6.69922-2.11718l1.7539 1.71875m-2.72655-1.41016l.875.85938m13.19921-1.69141l-6.27343 3.16797m6.27343-3.16797l2.00391 1.41406m10.34375-2.59765l-4.33594 5.53125m3.70313-4.72657l1.20703.21485m14.07031 1.41796l-6.9961.66016m5.97657-.5664l.67578 1.02343m12.85156-3.04687l-5.3828 4.51562m5.3828-4.51562l2.27735.92187m-3.0586-.26172l2.27344.91797m10.96485-2.3164l-3.66797 5.99218m3.66797-5.99218l2.44921.14843m-2.98046.72266l2.44921.14844m11.52735-.9375l-3.92578 5.82812m3.92578-5.82812l2.4414.25781m-3.01171.58984l2.4414.25782m11.8086-.82422l-4.65235 5.26562m4.65235-5.26562l2.38671.57031m-3.0664.19531l1.19531.28516m12.22266-1.46485l-3.5 6.09375m3.5-6.09375l2.45312.08204m-2.96094.80468l2.44922.08204m10.6797-1.27344l-2.11329 6.70312m2.11328-6.70312l2.41406-.44531m12.25 1.23437L447.84375 403m4.8086-5.125l2.36718.64453m9.60547-1.42969l-2.1289 6.69532m2.1289-6.69532l2.41406-.4414"/><g clip-path="url(#ap)"><path fill="none" stroke="#000" stroke-linecap="round" stroke-linejoin="round" stroke-miterlimit="10" stroke-width=".5" d="M147.40234 387.9961l-6.80468-1.7461"/></g><path fill="none" stroke="#000" stroke-linecap="round" stroke-linejoin="round" stroke-miterlimit="10" stroke-width=".5" d="M146.41406 387.74219l.28906 1.1914m14.10938-1.46093l-6.99219-.69922m5.97266.59765l.46484 1.13672m13.3711-3.21484l-5.9961 3.66015m5.9961-3.66015l2.11328 1.25m9.0664-2.82422l-1.72656 6.8125m1.72656-6.8125l2.38282-.58594m8.29297.95703l3.55078 6.06641m-3.55078-6.0664l1.28906-2.08594m13.07031 8.55468l1.46484-6.87109m16.0547 3.96094l-6.94532-1.05078m5.9375.89843l.40625 1.15625m13.9336-1.12109l-6.98048-.8164m6.98047.8164l.89063 2.28516m12.44531-2.82422l-7.02344.26172m7.02344-.26172l1.23047 2.125m-2.25-2.08594l.61328 1.0625m13.64453-1.72266l-6.86719 1.50391m6.8672-1.5039l1.58593 1.87109m11.70703-1.96094l-6.82422 1.6836m6.82422-1.6836l1.63672 1.82813m-2.6289-1.58204l.8164.91407m13.47656-1.21875l-6.79297 1.80078m6.79297-1.80078l1.66797 1.79687m-2.65625-1.53515l.83203.89843m13.13281-1.98828l-6.11718 3.45703m6.11718-3.45703l2.07032 1.3164m-2.96094-.8125l1.03515.65626m13.34375-.8086L313.86328 388.5m6.46484-2.7539l1.91016 1.53906m-2.85156-1.13672l.95703.76953m12.53906-2.29297l-4.9414 4.9961m4.9414-4.9961l2.34766.70313m-3.0664.02343l1.17577.35156m13.08594-.82421l-5.40234 4.49218m5.40234-4.49218l2.27344.92578m-3.0586-.27344l2.27344.92969m12.11328-1.1875l-5.97265 3.69922m5.97265-3.69922l2.1211 1.23828m-2.98828-.69922l2.11718 1.23828m11.70313-2.26562l-5.2461 4.67578m5.2461-4.67578l2.30078.85156m-3.0664-.17188l2.30468.85157m11.4414-1.85938l-4.57812 5.33203m4.57813-5.33203l2.39453.53906m-3.0625.23829l2.39453.53515m11.67578-1.23437l-4.7539 5.17578m4.7539-5.17578l2.375.61718m-3.0664.13672l2.375.61719m11.01171-1.82813l-3.51172 6.08985m3.51172-6.08985l2.44922.08594m-2.96094.80078l2.45313.08594m11.17969-1.07422l-3.1289 6.29297m3.1289-6.29297l2.45312-.0664m-2.90625.98437l1.22656-.03515m11.89063-1.12891l-1.82422 6.78515m1.82422-6.78515l2.39453-.55078m-2.66016 1.53906l1.19532-.27734m13.05468-.45704l-3.16406 6.27735m3.16406-6.27735l2.45313-.05078m10.66406-.03906l-2.76953 6.45703m2.76953-6.45703l2.44531-.20703m-2.84765 1.14453l1.22265-.10156"/><g clip-path="url(#aq)"><path fill="none" stroke="#000" stroke-linecap="round" stroke-linejoin="round" stroke-miterlimit="10" stroke-width=".5" d="M147.3086 374.98438l-6.6172-2.35547"/></g><path fill="none" stroke="#000" stroke-linecap="round" stroke-linejoin="round" stroke-miterlimit="10" stroke-width=".5" d="M146.34766 374.64453l.17968 1.21094m14.2461-1.42188l-6.91406-1.2539m5.90625 1.07422l.375 1.16796m12.41406-4.55468l-3.84766 5.8789m3.84766-5.8789l2.44531.22265m9.50781-.75l-1.125 6.9375m1.125-6.9375l2.32422-.78906m11.02344.79297l-1.1914 6.92578m1.1914-6.92578l2.33203-.76563m11.4414.87891l-2.10546 6.70313m1.79687-5.73047l1.20703-.22266m14.86328 2.90235l-7-.60157m5.98047.51172l.48438 1.1289m13.71875-.34374l-6.73828-1.99219m6.73828 1.99219l.49219 2.40625m-1.47266-2.69531l.2461 1.20312m13.85937-.41016l-6.35547-3m6.35547 3l.11719 2.44922m13.23047-2.52734l-6.42579-2.84375m6.42578 2.84375l.17579 2.44922m13.4375-3.69922l-7.01953-.34766m7.01953.34766l1.04297 2.22265m-2.0625-2.26953l.51953 1.10938m13.8164-1.35547l-7.02343.24219m7.02343-.24219l1.22657 2.125m-2.2461-2.08984l.60938 1.0625m13.59375-1.9375l-6.75782 1.92187m6.75782-1.92187l1.69922 1.76562m-2.6836-1.48828l.85156.88672m13.33985-1.48438l-6.54297 2.5625m6.54297-2.5625l1.86328 1.59766m-2.8164-1.22266l.93359.79688m13.12109-1.6211l-6.11719 3.46094m6.11719-3.46094l2.07031 1.32032m-2.96093-.8164l1.03515.66015m13.42188-.61328l-6.6172 2.35937m6.6172-2.35937l1.8125 1.65625m-2.77344-1.3125l.90625.82812m13.48437-.77734l-6.84765 1.57031m6.84765-1.57031l1.60938 1.85547m-2.60547-1.625l1.60547 1.85156m12.48828-2.73047l-6.41406 2.86719m6.41406-2.86719l1.9375 1.50781m-2.8711-1.08984l1.9375 1.50781m12.01563-2.45703l-5.82422 3.92969m5.82422-3.92969l2.16797 1.14844m-3.01562-.57813l2.16796 1.15235m11.8086-1.97657l-5.44922 4.4375m5.44922-4.4375l2.26172.95313m-3.0547-.3086l1.12892.47657m12.8789-1.24219l-5.2461 4.67578m5.2461-4.67578l2.30078.85156m-3.0664-.16797l2.30078.84766m11.875-1.41797l-5.4375 4.44922m5.4375-4.44922l2.26172.94922m-3.0547-.30078l1.13282.47265m11.98438-1.95312l-3.45703 6.11719m3.45703-6.11719l2.45312.0586m-2.95703.83202l1.22656.02735m13.16407-.51563l-4.60157 5.3125m4.60157-5.3125l2.39062.54688m9.83984-1.1875l-2.43359 6.59375m2.4336-6.59375l2.43359-.33203m-2.78516 1.29297l1.21485-.16797"/><g clip-path="url(#ar)"><path fill="none" stroke="#000" stroke-linecap="round" stroke-linejoin="round" stroke-miterlimit="10" stroke-width=".5" d="M142.26953 363.55078l3.46094-6.11719"/></g><path fill="none" stroke="#000" stroke-linecap="round" stroke-linejoin="round" stroke-miterlimit="10" stroke-width=".5" d="M160.30469 362.33594l-5.98047-3.6875m19.41797.21484l-6.22266 3.26172m5.3164-2.78906l1.01173.6914m11.22656-2.85937l-2.26172 6.65234m1.9336-5.6875l1.21093-.19531m12.32422-.80469l-2.04297 6.72266m1.7461-5.7461l1.20312-.23437m11.39844-.89453l-.02344 7.02734m.01953-6.0039l1.08594-.57422m15.45312 4.44922l-6.46093-2.76954m5.51953 2.36329l.10156 1.22265m13.74219-.10156l-5.63281-4.20313m5.6328 4.20313l-.375 2.42578m-.4453-3.03515l-.1875 1.21093m14.8164-1.52344l-6.6211-2.35546m6.6211 2.35546l.35547 2.42579m13.16016-3.50391l-7.02344-.20313m7.02344.20313l1.08984 2.19922m-2.11328-2.22656l.54687 1.09765m13.76953-.76172l-6.98046-.8164m6.98047.8164l.89453 2.28516m-1.91016-2.40625l.44531 1.14453m13.89063-1.07031l-6.98828-.72266m6.98828.72266l.92187 2.27344m-1.9375-2.37891l.46094 1.13672m13.8789-1.66797l-7.0078.55078m7.0078-.55078l1.31641 2.0664m-2.33593-1.98827l.65625 1.03515m13.61718-1.53125l-6.88672 1.38672m6.88672-1.38672l1.5586 1.89453M319.53906 360l.77735.94922M333.78125 359.5l-6.74219 1.98828m6.74219-1.98828l1.71875 1.75m-2.69922-1.46094l.85938.875m13.5625-.51953l-6.9922.69531m6.9922-.6953l1.35937 2.04296m-2.3789-1.9414l.68359 1.02343m13.6289-1.30078l-6.94921 1.04688m6.94922-1.04688l1.46093 1.97266m-2.47265-1.82032l1.46093 1.97266m12.82422-2.34375l-6.86718 1.48438m6.86718-1.48438l1.58594 1.875m-2.58203-1.65625l1.58203 1.8711m-2.58203-1.65626l.78906.9375m14.14453-2.36328l-6.10937 3.47266m6.10937-3.47266l2.07032 1.3125m-2.96094-.8086l2.07422 1.3125m-2.96094-.80858l1.03516.66015m13.60937-2.28906l-5.21484 4.71484m5.21484-4.71484l2.30469.83203m-3.0664-.14844l2.30859.83594m-3.06641-.14844l1.15625.41797m13.79297-1.65625l-5.44531 4.44531m5.4453-4.4453l2.26173.94921m-3.0547-.30078l2.26173.94922m-3.05469-.30469l1.13281.47656m13.63282-1.92578l-5.17188 4.75781m5.17188-4.7578l2.3125.8164m-3.06641-.1211l2.3164.8125m11.42579-1.8203l-4.51953 5.3828m4.51953-5.3828l2.39843.51171m11.3672-.05469l-5.42188 4.46875m5.42187-4.46875l2.26953.9414m10.89453-1.11327l-5.11718 4.8164"/><g clip-path="url(#as)"><path fill="none" stroke="#000" stroke-linecap="round" stroke-linejoin="round" stroke-miterlimit="10" stroke-width=".5" d="M466.1211 358.08594l2.32421.78906"/></g><path fill="none" stroke="#000" stroke-linecap="round" stroke-linejoin="round" stroke-miterlimit="10" stroke-width=".5" d="M465.375 358.78516l1.16406.39453"/><g clip-path="url(#at)"><path fill="none" stroke="#000" stroke-linecap="round" stroke-linejoin="round" stroke-miterlimit="10" stroke-width=".5" d="M140.97266 348.96094l6.05468-3.5664"/></g><path fill="none" stroke="#000" stroke-linecap="round" stroke-linejoin="round" stroke-miterlimit="10" stroke-width=".5" d="M157.38672 350.6914l-.14453-7.02734m11.6875 6.58985l3.39844-6.15235m14.55468 1.14453l-5.875 3.86329m5.01953-3.30079l1.07422.58985m11.97266-2.23047l-3.625 6.01953m3.09766-5.14453l1.22265.0664m11.71875-1.32421l-1.82422 6.78515m1.5586-5.79687l1.1953-.27735m14.85157 3.64844l-6.75781-1.9336m5.77344 1.65235l.2578 1.19922m13.8711-.45313l-6.41797-2.86328m6.41797 2.86329l.17188 2.44921m13.07422-2.30468l-6.28125-3.15235m6.28125 3.15235l.05859 2.45312m13.6289-4.07812l-7.02343.09765m7.02344-.09765l1.18359 2.14843m-2.20313-2.1328l.58985 1.07421m13.67578-.33984l-6.88672-1.40235m6.88672 1.40235l.69531 2.35546m-1.69922-2.55859l.69532 2.35547m13.68359-2.58203l-7.00781-.54297m7.00781.54297l.98047 2.25m-2-2.32813l.48828 1.125m13.85156-1.15625l-7.01953-.32421m7.01953.32421l1.05469 2.21485m-2.07422-2.26172l.52735 1.10937m13.8125-1.3125l-7.02735.17579m7.02735-.17579l1.20312 2.14063m-2.22656-2.11328l.60156 1.0664m13.63281-1.85156L327 348.02343m6.82031-1.6914l1.64063 1.82422m-2.63281-1.57813l1.64062 1.82422m-2.63281-1.57812l.82031.91406m14.46875-1.45703l-6.79688 1.79297m6.79688-1.79297l1.66406 1.80078m-2.65234-1.53906l1.66406 1.80078m12.7539-1.10938l-7.02734-.11328m7.02735.11329l1.11719 2.1875m-2.14063-2.20313l1.11719 2.1836m13.20703-2.53126l-7 .6172m7-.6172l1.33984 2.0547m-2.35937-1.96485l1.33984 2.05469m12.69922-3.28125l-6.40625 2.88671m6.40625-2.88671l1.9414 1.5039m-2.875-1.08203l1.94141 1.5039m12.20703-2.1289l-6.20703 3.29297m6.20703-3.29297l2.03516 1.3789m-2.9375-.89843l2.03125 1.375m12.3164-1.58203l-6.46874 2.7461m6.46875-2.7461l1.90625 1.54297m-2.84766-1.14454L414.5 347.7461m11.55469-3.09765l-4.8789 5.0586m4.8789-5.0586l2.35937.67578m-3.07031.0625l2.35938.67187m10.95312-1.9414l-3.44922 6.1211m3.44922-6.1211l2.45313.0586m-2.95704.83202l1.22657.02735m13.46093-.23047l-5.1875 4.7461m5.1875-4.7461l2.3125.82422m-3.0664-.13282l1.15625.41016m13.58203-.02734l-6.52735 2.60156"/><g clip-path="url(#au)"><path fill="none" stroke="#000" stroke-linecap="round" stroke-linejoin="round" stroke-miterlimit="10" stroke-width=".5" d="M466.82422 345.8789l1.875 1.58594"/></g><path fill="none" stroke="#000" stroke-linecap="round" stroke-linejoin="round" stroke-miterlimit="10" stroke-width=".5" d="M465.875 346.25781l.9375.79297"/><g clip-path="url(#av)"><path fill="none" stroke="#000" stroke-linecap="round" stroke-linejoin="round" stroke-miterlimit="10" stroke-width=".5" d="M140.71094 335.10156l6.57812-2.47656"/></g><path fill="none" stroke="#000" stroke-linecap="round" stroke-linejoin="round" stroke-miterlimit="10" stroke-width=".5" d="M154.21094 335.50781l6.20703-3.28906m-5.30469 2.8125l-1.01562-.6875m13.12109.36328l6.82031-1.6875m13.24219-.26172l-6.67188 2.21094m20.16016-1.3086l-7.01562.40626m5.99218-.34766l.63672 1.05078m13.69922-.69531l-7.01562-.42188m20.0664 1.5625l-6.48437-2.70312m5.54297 2.3086l.11328 1.22265m14.21094-.9961l-6.6172-2.36718m6.6172 2.36719l.35156 2.42578m13.05469-2.73047l-6.8047-1.75781m6.8047 1.7578l.57421 2.38673m12.81641-2.75782l-6.95313-1.01562m6.95313 1.01562l.82813 2.3086m-1.83985-2.45703l.41406 1.15625m13.83985-.64454l-6.8086-1.74218m6.8086 1.74219l.57812 2.3828m-1.57031-2.63671l.29297 1.1914m14.0039-.90625l-6.78906-1.80859m6.78907 1.8086l.55859 2.39062m-1.54688-2.65234l.28125 1.1953m14.125-1.47655l-6.99218-.71875m6.99218.71875l.92188 2.27343m12.40625-2.45312l-7.01953-.35938m7.01953.35938l1.03906 2.22265m-2.0625-2.27343l.51953 1.10937m13.82422-1.20703l-7.02734-.0625m7.02734.0625l1.1289 2.17578m-2.15234-2.1836l.56641 1.08595m13.7461-1.53907l-6.97657.85938m6.97656-.85938l1.40625 2.00782m-2.42187-1.88282l.70312 1.00391m13.62891-.28516l-6.98047-.83203m6.98047.83203l.88672 2.28907m-1.90234-2.41016l.4414 1.14453m13.85547-2.07422L366.90234 334.5m6.91016-1.27344l1.52344 1.92188m-2.53125-1.73438l1.52734 1.92188m11.83203-3.94922l-4.98437 4.95312m4.98437-4.95312l2.34375.72656m-3.07031-.0039l2.34375.72265m-3.0664-.0039l2.34374.72656m12.07813-2.47266l-4.30078 5.5625m4.30078-5.5625l2.41797.41406m-3.04297.39454l2.41797.41406m11.58203-1.17188l-4.42188 5.46094m4.42188-5.46094l2.41016.46485m11.91015.85156l-6.4336 2.82812m6.4336-2.82812l1.92578 1.51953m9.17188-3.47266l-1.9961 6.73438m1.9961-6.73438l2.40625-.49218m-2.69531 1.46875l1.19921-.2422m14.02735.28907l-5.23828 4.6836m5.23828-4.6836l2.30078.84766m-3.0625-.16406l1.14844.42187m13.48047-.27344l-6.34375 3.02344"/><g clip-path="url(#aw)"><path fill="none" stroke="#000" stroke-linecap="round" stroke-linejoin="round" stroke-miterlimit="10" stroke-width=".5" d="M466.73438 332.35156l1.97265 1.46094"/></g><g clip-path="url(#ax)"><path fill="none" stroke="#000" stroke-linecap="round" stroke-linejoin="round" stroke-miterlimit="10" stroke-width=".5" d="M465.8086 332.78906l1.97265 1.46094"/></g><g clip-path="url(#ay)"><path fill="none" stroke="#000" stroke-linecap="round" stroke-linejoin="round" stroke-miterlimit="10" stroke-width=".5" d="M140.78125 321.95313l6.4375-2.8125"/></g><path fill="none" stroke="#000" stroke-linecap="round" stroke-linejoin="round" stroke-miterlimit="10" stroke-width=".5" d="M154.30469 322.35938l6.01953-3.625m-6.01953 3.625l-2.10547-1.26172m16.6289 2.46875l3.60157-6.03516m-3.07422 5.15625l-1.22656-.0625M187.42969 321l-6.96875-.90625m5.95312.77734l.4336 1.14844m13.5625.08203l-6.30078-3.10937m5.38671 2.66015l.03516 1.22266m13.2461.41406l-4.40235-5.48047m4.40234 5.48047l-.96875 2.2539m14.19532-2.1875l-4.22657-5.61327m4.22657 5.61328l-1.03907 2.22265m.42578-3.03906l-.51953 1.10938m15.17188-1.03125l-5.67578-4.14063m5.67578 4.14063l-.34375 2.42969m-.48047-3.03125l-.17188 1.21484m14.33204-.63672l-5.71485-4.08984m5.71485 4.08984l-.32813 2.4336M252.54688 322l-.16407 1.21484m14.53516-.98046l-6.16406-3.3711m6.16406 3.3711l-.02735 2.45312m-.87109-2.94531l-.01172 1.22656m14.47657-1.3086l-6.66797-2.22656m6.66797 2.22657l.40625 2.42187m-1.37891-2.7461l.20312 1.21094m14.10547-.95703l-6.71094-2.08203m6.71094 2.08203L294.28125 324m12.79687-2.23828l-6.59375-2.42969m6.59375 2.42969l.33204 2.4336m13.15625-3.09376l-6.94141-1.10937m6.9414 1.10937l.79297 2.32422m-1.80468-2.48437l.39843 1.16015m13.95704-1.85547l-7 .60547m7-.60547l1.33593 2.0586m-2.35156-1.97266l.66406 1.03125m13.66407-1.14453l-6.9961.65625m6.9961-.65625l1.35156 2.05078m-2.36719-1.95312l.67188 1.02343m13.48828-1.92578l-6.65235 2.26953m6.65235-2.26953l1.78906 1.67578m-2.75781-1.34765l.89453.83984m13.32031-1.35156l-6.51562 2.63281m6.51562-2.63281l1.8789 1.57812m-2.82812-1.1953l.9414.78905m12.44532-2.4414l-4.75781 5.17187m4.75781-5.17187l2.375.6211m-3.0664.1328l2.37109.6172m10.91406-1.88282l-3.3164 6.19531m3.3164-6.19531l2.45313.00781m-2.9375.89453l2.45703.00781m10.96093-1.08593l-2.55078 6.54687m2.55078-6.54687l2.4375-.28516m-2.80859 1.23828l2.4375-.28515m10.4336-.875l-.92188 6.96484m.92187-6.96484l2.29688-.85938m7.51562 6.10547l6.08204-3.52734m-5.19532 3.01171l-1.04297-.64843m19.13282-2.9375l-5.24219 4.67578m5.24219-4.67578l2.30468.84765m10.58594-1.25l-4.39453 5.48047"/><g clip-path="url(#az)"><path fill="none" stroke="#000" stroke-linecap="round" stroke-linejoin="round" stroke-miterlimit="10" stroke-width=".5" d="M465.75781 317.8086l2.41406.45312"/></g><path fill="none" stroke="#000" stroke-linecap="round" stroke-linejoin="round" stroke-miterlimit="10" stroke-width=".5" d="M465.1211 318.60547l2.41015.45703"/><path fill="#00f" fill-rule="evenodd" d="M383.80078 472.08594h8.61719V461.9414h-8.61719v10.14453"/><path fill="azure" fill-rule="evenodd" d="M385.63281 463.77344h.83203v2.82422h3.28907v-2.82422h.83203v6.48047h-.83203v-2.91797h-3.28907v2.91797h-.83203v-6.48047"/><path fill="#00f" fill-rule="evenodd" d="M308.34766 467.64844h8.61718V457.5039h-8.61718v10.14453"/><path fill="azure" fill-rule="evenodd" d="M310.17969 459.33594h.83594v2.82422h3.28515v-2.82422h.83203v6.48047h-.83203v-2.91797h-3.28515v2.91797h-.83594v-6.48047"/><path fill="#00f" fill-rule="evenodd" d="M383.80078 436.57813h8.61719v-10.14454h-8.61719v10.14454"/><path fill="azure" fill-rule="evenodd" d="M385.63281 428.26563h.83203v2.82421h3.28907v-2.82421h.83203v6.48046h-.83203v-2.91406h-3.28907v2.91406h-.83203v-6.48046"/><path fill="#ff3030" fill-rule="evenodd" d="M375.61719 418.82813h7.69531v-10.14844h-7.69531v10.14844"/><path fill="azure" fill-rule="evenodd" d="M377.44922 410.51172h.83594v5.74219h3.1914v.73828h-4.02734v-6.48047"/><path fill="#ff3030" fill-rule="evenodd" d="M291.28906 409.94922h7.6914v-10.14453h-7.6914v10.14453"/><path fill="azure" fill-rule="evenodd" d="M293.1211 401.63672h.83593v5.73828h3.1914v.74219h-4.02734v-6.48047"/><path fill="#ff3030" fill-rule="evenodd" d="M206.96094 370.0039h7.6914v-10.14452h-7.6914v10.14453"/><path fill="azure" fill-rule="evenodd" d="M208.79297 361.6914h.83203v5.73829h3.19531v.74219h-4.02734v-6.48047"/><path fill="#ffffe0" fill-rule="evenodd" d="M403.35156 463.4414h22.17969V453.25h-22.17969v10.1914"/><path fill-rule="evenodd" d="M406.85156 455.08203h.51172v6.29688h-.78906v-4.4922h-1.38672v-.55468l.5586-.0664.25-.05079.23046-.08984.20313-.14453.17578-.20703.14062-.29688.10547-.39453m4.8125 0l.23047.01953.21875.05469.20703.08984.19922.1211.1836.14844.17187.17578.30078.42187.24219.49219.17969.54687.11328.57813.03906.58984-.03906.59375-.11328.58594-.1797.55469-.24218.5-.30078.42969-.17188.17968-.18359.15235-.19922.125-.20703.08984-.21875.0586-.23047.01952-.22656-.01953-.21875-.05859-.21094-.08984-.19531-.125-.1836-.15235-.17187-.17969-.30078-.42968-.24219-.5-.17969-.55469-.11328-.58594-.03906-.59375h.83594l.02734.5664.08203.50392.125.4414.16407.375.1914.30078.20703.22266.22657.13672.22265.04687.22656-.04687.22266-.13672.21094-.22266.1914-.30078.16407-.375.125-.4414.08203-.50391.02734-.5664-.02734-.5586-.08203-.5-.125-.4375-.16406-.36328-.19141-.29297-.21094-.21485-.22265-.1328-.22657-.04298-.22265.04297-.22657.13281-.20703.21485-.1914.29297-.16407.36328-.125.4375-.08203.5-.02734.5586h-.83594l.03906-.58985.11329-.57813.17968-.54687.24219-.49219.30078-.42187.17188-.17579.18359-.14843.19531-.1211.21094-.08984.21875-.05469.22656-.01953m4.95313 0l.23047.01953.21875.05469.20703.08984.19922.1211.18359.14844.17188.17578.30078.42187.24218.49219.1797.54687.11327.57813.03906.58984-.03906.59375-.11328.58594-.17969.55469-.24218.5-.30079.42969-.17187.17968-.1836.15235-.19921.125-.20703.08984-.21875.0586-.23047.01952-.22656-.01953-.21875-.05859-.21094-.08984-.19531-.125-.1836-.15235-.17187-.17969-.30079-.42968-.24609-.5-.17969-.55469-.10937-.58594-.03906-.59375h.83203l.03125.5664.08203.50392.125.4414.16406.375.1875.30078.21094.22266.22265.13672.22657.04687.22656-.04687.22266-.13672.21093-.22266.19141-.30078.16406-.375.125-.4414.08203-.50391.02735-.5664-.02735-.5586-.08203-.5-.125-.4375-.16406-.36328-.1914-.29297-.21094-.21485-.22266-.1328-.22656-.04298-.22656.04297-.22266.13281-.21094.21485-.1875.29297-.16406.36328-.125.4375-.08203.5-.03125.5586h-.83203l.03906-.58985.10937-.57813.1797-.54687.24608-.49219.30079-.42187.17187-.17579.1836-.14843.1953-.1211.21094-.08984.21875-.05469.22657-.01953m4.95312 0l.38672.02735.35938.08203.32421.13671.27735.1875.23047.23829.17187.28515.10938.33203.03906.37891-.01953.27344-.0586.23437-.08593.19922-.11328.17188-.12891.14453-.14063.1211-.28515.1953.23047.1211.20703.14453.1836.17187.15234.19532.125.21093.08984.23047.05469.2461.01953.2539-.03516.3086-.10156.32812-.17188.32422-.23828.30469-.30859.26953-.375.21484-.21094.08203-.22656.0625-.2461.03516-.26171.01563-.25781-.01563-.2422-.03516-.22265-.0625-.20703-.08203-.35938-.21484-.28906-.26953-.22265-.30469-.15625-.32422-.09375-.32812-.03125-.3086h.83203l.02734.2539.07813.23438.125.21094.16015.1875.1914.15235.21876.11328.24219.07421.2539.02344.2539-.02344.2422-.07421.21875-.11329.1953-.15234.16017-.1875.12109-.21094.07812-.23437.02735-.2539-.02735-.25391-.07812-.23438-.1211-.21094-.16015-.1875-.19531-.14843-.21875-.1172-.2422-.0703-.2539-.02735-.2539.02735-.2422.0703-.21874.1172-.1914.14843-.16016.1875-.125.21094-.07813.23438-.02734.2539h-.83203l.01953-.2539.05469-.23829.09375-.22656.12109-.20703.15625-.1914.17969-.17188.20703-.15234.23437-.13282-.28906-.1953-.13672-.1211-.13281-.14453-.10938-.17188-.08984-.19922-.05469-.23437-.02344-.27344h.78907l.02344.21484.0664.1875.10156.16797.13672.14063.16797.10937.1875.08203.20703.05079.21875.01562.22266-.01563.20703-.05078.1875-.08203.16406-.10937.13672-.14063.10547-.16797.0664-.1875.02344-.21484-.02343-.21484-.06641-.19141-.10547-.16797-.13672-.14062-.16406-.10938-.1875-.08203-.20703-.05078-.22266-.01563-.21875.01563-.20703.05078-.1875.08203-.16797.10938-.13672.14062-.10156.16797-.0664.1914-.02344.21485h-.78906l.03906-.3789.10937-.33204.17188-.28515.23047-.23829.28125-.1875.3203-.13671.35938-.08204.38672-.02734"/><path fill="#ffffe0" fill-rule="evenodd" d="M213.03125 387.08203h22.17969v-10.1914h-22.17969v10.1914"/><path fill-rule="evenodd" d="M216.53125 378.72266h.50781v6.29296h-.78515v-4.48828h-1.39063v-.55468l.5625-.06641.25-.05469.23047-.08594.20313-.14453.17578-.20703.14062-.29687.10547-.39453m4.8125 0l.23047.01953.21875.05469.20703.08984.19922.1211.1836.14843.17187.17578.30078.42188.24219.49218.17968.54688.11328.57812.03516.58985-.03516.59375-.11328.58594-.17968.55468-.2422.5-.30077.42969-.17188.17969-.1836.15234-.19921.125-.20703.08985-.21875.05859-.23047.01953-.22656-.01953-.22266-.0586-.20703-.08984-.19531-.125-.1836-.15234-.17187-.17969-.30078-.42969-.2461-.5-.17968-.55469-.10938-.58593-.03906-.59375h.83203l.03125.5664.08203.50391.125.4414.16406.375.1875.30079.21094.22265.22266.13672.22656.04688.22656-.04688.22266-.13672.21094-.22265.1914-.30078.16406-.375.125-.44141.08204-.5039.02734-.56641-.02734-.5586-.08203-.5-.125-.4375-.16407-.36718-.1914-.28907-.21094-.21484-.22266-.13281-.22656-.04297-.22656.04297-.22266.13281-.21094.21484-.1875.28907-.16406.36718-.125.4375-.08203.5-.03125.5586h-.83203l.03906-.58985.10938-.57812.17968-.54688.2461-.49218.30078-.42188.17187-.17578.1836-.14844.19531-.1211.20703-.08983.22266-.0547.22656-.01952m4.95313 0l.23046.01953.21875.05469.20703.08984.19532.1211.1875.14843.16797.17578.30468.42188.2422.49218.17968.54688.11328.57812.03516.58985-.03516.59375-.11328.58594-.17969.55468-.24219.5-.30468.42969-.16797.17969-.1875.15234-.19531.125-.20704.08985-.21875.05859-.23047.01953-.23046-.01953-.21875-.0586-.20703-.08984-.19532-.125-.1836-.15234-.17187-.17969-.30078-.42969-.2461-.5-.17968-.55469-.10937-.58593-.03907-.59375h.83203l.03125.5664.08204.50391.125.4414.16015.375.1914.30079.21095.22265.22265.13672.22656.04688.22657-.04688.22265-.13672.21094-.22265.1914-.30078.16016-.375.12891-.44141.08203-.5039.02734-.56641-.02734-.5586-.08203-.5-.1289-.4375-.16016-.36718-.1914-.28907-.21095-.21484-.22265-.13281-.22656-.04297-.22657.04297-.22265.13281-.21094.21484-.1914.28907-.16016.36718-.125.4375-.08203.5-.03125.5586h-.83204l.03907-.58985.10937-.57812.17969-.54688.2461-.49218.30077-.42188.17188-.17578.1836-.14844.1953-.1211.20704-.08983.21875-.0547.23047-.01952m4.95312 0l.38672.02734.35937.08203.32032.13672.28125.1875.23047.23828.17187.28516.10938.33203.03906.3789-.02344.27344-.05469.23438-.08984.19922-.10938.17187-.1289.14453-.14063.1211-.28906.1953.23438.1211.20703.14453.18359.17188.15234.19531.125.21094.08985.23047.05469.2461.01953.2539-.03516.3086-.10156.32812-.17188.32421-.24219.3047-.30468.26952-.375.21485-.21094.08203-.22656.0625-.2461.03515-.26172.01563-.2578-.01563-.2422-.03515-.22265-.0625-.20703-.08203-.35938-.21485-.28906-.26953-.22266-.30469-.15625-.32421-.09375-.32813-.03125-.3086h.83203l.02735.25391.07812.23438.1211.21094.16015.1875.19532.15234.21875.11328.24218.07422.25391.02344.2539-.02344.2422-.07422.21874-.11328.19141-.15234.16406-.1875.1211-.21094.07812-.23438.02734-.2539-.02734-.2539-.07812-.23438-.1211-.21094-.16406-.1875-.1914-.15235-.21876-.11328-.24218-.0703-.25391-.02735-.2539.02734-.2422.07031-.21874.11329-.19532.15234-.16015.1875-.1211.21094-.07812.23437-.02734.2539h-.83204l.01953-.2539.0547-.23828.08984-.22656.125-.20703.15234-.19141.1836-.17188.20702-.15234.23047-.13281-.28515-.19531-.14063-.1211-.1289-.14453-.10938-.17187-.08984-.19922-.0586-.23438-.01953-.27344h.78906l.01954.21094.0664.1914.10547.16798.13672.14062.16406.10938.1914.08203.20704.05078.21875.01563.21875-.01563.20703-.05078.1914-.08203.16407-.10938.13672-.14062.10547-.16797.0625-.1914.02344-.21094-.02344-.21485-.0625-.1914-.10547-.16797-.13672-.14063-.16406-.10937-.1914-.08204-.20704-.05078-.21875-.01562-.21875.01562-.20703.05079-.1914.08203-.16407.10937-.13672.14063-.10547.16796-.0664.19141-.01953.21485h-.78907l.03906-.37891.10938-.33203.17188-.28516.23046-.23828.27735-.1875.32422-.13672.35937-.08203.38672-.02734"/><path fill="#ffffe0" fill-rule="evenodd" d="M335.32031 365.79688H357.5v-10.19141h-22.17969v10.1914"/><path fill-rule="evenodd" d="M338.82031 357.4375h.50781v6.29688h-.78515v-4.4922h-1.39063v-.55468l.5625-.0664.25-.05079.23047-.08984.20313-.14063.17187-.21093.14453-.29688.10547-.39453m4.8125 0l.23047.01953.21875.05469.20703.08984.19531.1211.1875.14843.16797.17579.3047.42187.24218.49219.17969.54687.11328.57813.03515.59375-.03515.58984-.11328.58594-.1797.55469-.24218.5-.30469.42968-.16796.1797-.1875.15233-.19532.125-.20703.08985-.21875.0586-.23047.01952-.23047-.01953-.21875-.0586-.20703-.08983-.19531-.125-.1836-.15235-.17187-.17969-.30078-.42968-.2461-.5-.17968-.5547-.10938-.58593-.03906-.58984h.83203l.03125.5625.08203.5039.125.44532.16016.375.1914.29687.21094.22266.22266.13672.22656.04687.22656-.04687.22266-.13672.21094-.22266.1914-.29687.16016-.375.1289-.44532.08204-.5039.02734-.5625-.02734-.5625-.08203-.5-.1289-.4375-.16017-.36328-.1914-.29297-.21094-.21485-.22265-.1328-.22657-.04298-.22656.04297-.22266.13281-.21093.21485-.19141.29297-.16016.36328-.125.4375-.08203.5-.03125.5625h-.83203l.03906-.59375.10938-.57813.17969-.54687.24609-.49219.30078-.42188.17188-.17578.18359-.14843.19531-.1211.20703-.08984.21875-.05469.23047-.01953m5.09375 0h.50781v6.29688h-.78906v-4.4922h-1.38672v-.55468l.5586-.0664.2539-.05079.23047-.08984.20313-.14063.17187-.21093.14063-.29688.10937-.39453m2.82031 2.17578h.78907l.01953-.3164.0586-.28516.09765-.2539.14062-.21485.1836-.17188.22265-.1289.26563-.08203.3086-.02735.23437.01953.22656.0625.20313.10157.17968.14062.14844.17188.11328.20703.07031.23437.02735.26563-.02344.26953-.0664.22265-.10938.19141-.15625.17188-.19922.16406-.2461.16406-.63671.39063-.53516.3125-.4375.3164-.34765.32422-.26563.33594-.1875.35156-.125.3711-.07031.39062-.01953.42188h4.21093v-.7422h-3.33203l.08203-.28515.11329-.23437.14843-.20313.1875-.17969.23047-.17187.28125-.17578.71485-.41406.41406-.20704.34765-.23046.28125-.25.21875-.26954.16407-.27734.10937-.28516.0664-.28515.01954-.28125-.04297-.38281-.1211-.34766-.1875-.3086-.25-.26171-.30468-.21094-.34375-.16016-.3789-.09765-.40626-.03516-.4375.03516-.39844.09765-.35546.16406-.3047.23438-.24608.30469-.1875.375-.11329.44531-.04296.51953"/><path fill="#ffffe0" fill-rule="evenodd" d="M169.44531 325.85156H191.625v-10.1914h-22.17969v10.1914"/><path fill-rule="evenodd" d="M172.94531 317.49219h.50781v6.29687h-.78515v-4.49219h-1.39063v-.55468l.5625-.0664.25-.05079.23047-.08984.20313-.14063.17578-.21094.14062-.29687.10547-.39453m4.8125 0l.23047.01953.21875.05469.20703.08984.19922.1211.1836.14843.17187.17578.30078.42188.24219.49219.17969.54687.11328.57813.03515.59375-.03515.58984-.11328.58594-.1797.55468-.24218.5-.30078.4297-.17188.17968-.18359.15234-.19922.125-.20703.08985-.21875.05859-.23047.01953-.22656-.01953-.22266-.0586-.20703-.08984-.19531-.125-.1836-.15234-.17187-.17969-.30078-.42969-.2461-.5-.17968-.55468-.10938-.58594-.03906-.58985h.83203l.03125.5625.08203.50391.125.44531.16407.375.1875.29688.21093.22265.22266.13672.22656.04688.22656-.04688.22266-.13671.21094-.22266.1914-.29688.16407-.375.125-.4453.08203-.50392.02734-.5625-.02734-.5625-.08203-.5-.125-.4375-.16406-.36328-.19141-.29296-.21094-.21485-.22266-.13281-.22656-.04297-.22656.04297-.22266.13281-.21093.21485-.1875.29296-.16407.36329-.125.4375-.08203.5-.03125.5625h-.83203l.03906-.59375.10938-.57813.17969-.54688.24609-.49218.30078-.42188.17188-.17578.18359-.14844.19531-.12109.20703-.08984.22266-.0547.22656-.01952m5.09375 0h.50781v6.29687h-.78515v-4.49219h-1.39063v-.55468l.5586-.0664.2539-.05079.23047-.08984.20313-.14063.17187-.21094.14453-.29687.10547-.39453m2.82031 2.17578h.78907l.01953-.3164.0586-.28516.09765-.25391.14062-.21484.1836-.17188.22265-.1289.26563-.08204.3086-.02734.23827.01953.22266.0625.20313.10156.17968.14063.14844.17187.11328.20704.07031.23437.02735.26563-.02344.26953-.0664.22265-.10938.1914-.15625.17188-.19922.16407-.2461.16406-.63671.39062-.53516.3125-.4375.31641-.34766.32422-.26171.33594-.19141.35156-.125.3711-.07031.39062-.01953.42187h4.21093v-.74219h-3.33203l.08203-.28515.11328-.23438.14844-.20312.1875-.17969.23047-.17187.28125-.17579.71484-.41406.41797-.20703.34375-.23047.28125-.25.21875-.26953.16407-.27734.11328-.28516.0625-.28515.01953-.28125-.04297-.38282-.11719-.34765-.1914-.3086-.25-.26172-.30078-.21093-.34766-.16016-.3789-.09766-.40626-.03515-.4375.03515-.39844.09766-.35156.16406-.30469.23438-.25.30469-.1875.375-.11328.4453-.04297.51954"/><path fill="#ffffe0" fill-rule="evenodd" d="M323.99219 324.66016h22.17969v-10.19141h-22.1797v10.1914"/><path fill-rule="evenodd" d="M327.48828 316.30078H328v6.29297h-.78906v-4.48828h-1.38672v-.55469l.5586-.0664.2539-.0547.22656-.08593.20703-.14453.17188-.20703.14062-.29688.10547-.39453m4.8164 0l.22657.01953.21875.05469.21094.08984.19531.1211.1836.14844.17187.17578.30078.42187.2461.49219.17968.54687.10938.57813.03906.58984-.03906.59375-.10938.58594-.17969.55469-.24609.5-.30078.42969-.17188.17968-.18359.15235-.19531.125-.21094.08984-.21875.0586-.22656.01952-.23047-.01953-.21875-.05859-.20703-.08984-.19922-.125-.1836-.15235-.17187-.17969-.30078-.42968-.24219-.5-.17969-.55469-.11328-.58594-.03515-.59375h.83203l.02734.5664.08203.50392.125.4414.16406.375.19141.30078.21094.22266.22265.13672.22657.04687.22656-.04687.22266-.13672.21093-.22266.1875-.30078.16407-.375.125-.4414.08203-.50391.03125-.5664-.03125-.5586-.08203-.5-.125-.4375-.16407-.36719-.1875-.28906-.21093-.21485-.22266-.1328-.22656-.04298-.22656.04297-.22266.13281-.21094.21485-.1914.28906-.16407.36719-.125.4375-.08203.5-.02734.5586h-.83203l.03515-.58985.11328-.57813.1797-.54687.24218-.49219.30078-.42187.17188-.17579.18359-.14843.19922-.1211.20703-.08984.21875-.05469.23047-.01953m5.08984 0h.50781v6.29297h-.78515v-4.48828h-1.38672v-.55469l.5586-.0664.25-.0547.23046-.08593.20313-.14453.17578-.20703.14062-.29688.10547-.39453m6.80469 1.6211h-.78516l-.05469-.21485-.08203-.1836-.10546-.16015-.12891-.13281-.14844-.10156-.16015-.07422-.16797-.04297-.17188-.01563-.32812.03907-.28907.12109-.24609.19531-.20313.26953-.16015.33594-.11328.40625-.07031.46485-.02344.52734.1875-.20313.1875-.16015.1836-.1211.1875-.08984.1875-.0586.1914-.03906.40234-.02343.30469.03125.32031.09375.3164.15234.29688.22266.2539.28125.19923.35156.07031.19922.05469.21875.02734.23437.00781.2539-.78906.04298-.02734-.25781-.07813-.25-.1211-.23438-.16015-.21094-.19531-.17578-.21875-.13672-.23828-.08984-.25781-.03125-.25391.03125-.24219.08984-.21875.13672-.1914.17578-.16016.21094-.125.23438-.07813.25-.02343.2578.02344.26173.07812.25.125.23437.16016.21094.1914.17578.21875.13672.24219.08984.2539.03125.25782-.03125.23828-.08984.21875-.13672.19531-.17578.16016-.21094.1211-.23437.07812-.25.02734-.26172.78906-.04297-.03125.36719-.09375.375-.15625.35546-.22265.32813-.29297.28516-.16797.11718-.1875.10157-.20703.08593-.22266.0586-.24219.03906-.26171.01563-.28125-.01563-.26172-.04688-.23828-.07812-.21485-.10547-.19531-.13281-.17188-.15625-.15625-.17969-.1328-.19922-.1172-.22265-.10156-.2422-.14453-.53515-.08594-.59375-.02734-.64062.03906-.74219.11328-.66406.1875-.57813.1211-.2539.13672-.23438.15234-.20312.17188-.1836.18359-.15625.20312-.1289.21875-.10157.23047-.07421.25-.04297.26172-.01563.36719.03516.33203.09375.29297.15234.25781.19922.21094.24219.16406.27344.11719.30078.0625.32421"/></g></defs><use xlink:href="#aA"/></svg>