<svg xmlns="http://www.w3.org/2000/svg" role="img" xmlns:xlink="http://www.w3.org/1999/xlink" viewBox="142.45 309.95 326.84 171.84"><defs><clipPath id="a"><path d="M144 317h1v163.32813h-1zm0 0"/></clipPath><clipPath id="b"><path d="M144 311.67188h1V318h-1zm0 0"/></clipPath><clipPath id="c"><path d="M144 311.67188h324v168.65625H144zm0 0"/></clipPath><clipPath id="d"><path d="M144 311.67188h8V321h-8zm0 0"/></clipPath><clipPath id="e"><path d="M467 311.67188h1v168.65625h-1zm0 0"/></clipPath><clipPath id="f"><path d="M144 479h4v1.32813h-4zm0 0"/></clipPath><clipPath id="g"><path d="M147 480h2v.32813h-2zm0 0"/></clipPath><clipPath id="h"><path d="M153 479h9v1.32813h-9zm0 0"/></clipPath><clipPath id="i"><path d="M160 480h2v.32813h-2zm0 0"/></clipPath><clipPath id="j"><path d="M166 479h9v1.32813h-9zm0 0"/></clipPath><clipPath id="k"><path d="M173 480h3v.32813h-3zm0 0"/></clipPath><clipPath id="l"><path d="M180 479h8v1.32813h-8zm0 0"/></clipPath><clipPath id="m"><path d="M187 480h2v.32813h-2zm0 0"/></clipPath><clipPath id="n"><path d="M193 479h9v1.32813h-9zm0 0"/></clipPath><clipPath id="o"><path d="M200 480h2v.32813h-2zm0 0"/></clipPath><clipPath id="p"><path d="M206 480h9v.32813h-9zm0 0"/></clipPath><clipPath id="q"><path d="M213 480h3v.32813h-3zm0 0"/></clipPath><clipPath id="r"><path d="M220 480h8v.32813h-8zm0 0"/></clipPath><clipPath id="s"><path d="M227 480h2v.32813h-2zm0 0"/></clipPath><clipPath id="t"><path d="M226 480h2v.32813h-2zm0 0"/></clipPath><clipPath id="u"><path d="M233 480h8v.32813h-8zm0 0"/></clipPath><clipPath id="v"><path d="M240 480h3v.32813h-3zm0 0"/></clipPath><clipPath id="w"><path d="M239 480h2v.32813h-2zm0 0"/></clipPath><clipPath id="x"><path d="M246 480h9v.32813h-9zm0 0"/></clipPath><clipPath id="y"><path d="M253 480h3v.32813h-3zm0 0"/></clipPath><clipPath id="z"><path d="M252 480h2v.32813h-2zm0 0"/></clipPath><clipPath id="A"><path d="M260 480h8v.32813h-8zm0 0"/></clipPath><clipPath id="B"><path d="M267 480h2v.32813h-2zm0 0"/></clipPath><clipPath id="C"><path d="M266 480h2v.32813h-2zm0 0"/></clipPath><clipPath id="D"><path d="M273 479h8v1.32813h-8zm0 0"/></clipPath><clipPath id="E"><path d="M280 480h2v.32813h-2zm0 0"/></clipPath><clipPath id="F"><path d="M286 480h9v.32813h-9zm0 0"/></clipPath><clipPath id="G"><path d="M293 480h3v.32813h-3zm0 0"/></clipPath><clipPath id="H"><path d="M300 479h8v1.32813h-8zm0 0"/></clipPath><clipPath id="I"><path d="M307 479h2v1.32813h-2zm0 0"/></clipPath><clipPath id="J"><path d="M313 479h8v1.32813h-8zm0 0"/></clipPath><clipPath id="K"><path d="M319 480h2v.32813h-2zm0 0"/></clipPath><clipPath id="L"><path d="M326 479h9v1.32813h-9zm0 0"/></clipPath><clipPath id="M"><path d="M332 480h2v.32813h-2zm0 0"/></clipPath><clipPath id="N"><path d="M340 479h8v1.32813h-8zm0 0"/></clipPath><clipPath id="O"><path d="M345 480h2v.32813h-2zm0 0"/></clipPath><clipPath id="P"><path d="M353 480h8v.32813h-8zm0 0"/></clipPath><clipPath id="Q"><path d="M359 480h2v.32813h-2zm0 0"/></clipPath><clipPath id="R"><path d="M366 479h8v1.32813h-8zm0 0"/></clipPath><clipPath id="S"><path d="M381 477h6v3.32813h-6zm0 0"/></clipPath><clipPath id="T"><path d="M393 479h8v1.32813h-8zm0 0"/></clipPath><clipPath id="U"><path d="M393 479h2v1.32813h-2zm0 0"/></clipPath><clipPath id="V"><path d="M406 478h8v2.32813h-8zm0 0"/></clipPath><clipPath id="W"><path d="M420 478h8v2.32813h-8zm0 0"/></clipPath><clipPath id="X"><path d="M436 476h2v4.32813h-2zm0 0"/></clipPath><clipPath id="Y"><path d="M449 476h2v4.32813h-2zm0 0"/></clipPath><clipPath id="Z"><path d="M462 476h3v4.32813h-3zm0 0"/></clipPath><clipPath id="aa"><path d="M144 466h4v2h-4zm0 0"/></clipPath><clipPath id="ab"><path d="M144 452h4v3h-4zm0 0"/></clipPath><clipPath id="ac"><path d="M465 451h3v2h-3zm0 0"/></clipPath><clipPath id="ad"><path d="M144 439h4v2h-4zm0 0"/></clipPath><clipPath id="ae"><path d="M144 426h4v2h-4zm0 0"/></clipPath><clipPath id="af"><path d="M466 425h2v4h-2zm0 0"/></clipPath><clipPath id="ag"><path d="M144 412h4v3h-4zm0 0"/></clipPath><clipPath id="ah"><path d="M466 412h2v3h-2zm0 0"/></clipPath><clipPath id="ai"><path d="M144 398h4v5h-4zm0 0"/></clipPath><clipPath id="aj"><path d="M466 399h2v3h-2zm0 0"/></clipPath><clipPath id="ak"><path d="M144 384h3v6h-3zm0 0"/></clipPath><clipPath id="al"><path d="M466 386h2v3h-2zm0 0"/></clipPath><clipPath id="am"><path d="M144 370h2v8h-2zm0 0"/></clipPath><clipPath id="an"><path d="M144 375h2v3h-2zm0 0"/></clipPath><clipPath id="ao"><path d="M144 356h2v9h-2zm0 0"/></clipPath><clipPath id="ap"><path d="M144 362h2v2h-2zm0 0"/></clipPath><clipPath id="aq"><path d="M466 358h2v3h-2zm0 0"/></clipPath><clipPath id="ar"><path d="M144 344h3v7h-3zm0 0"/></clipPath><clipPath id="as"><path d="M466 345h2v3h-2zm0 0"/></clipPath><clipPath id="at"><path d="M144 330h1v8h-1zm0 0"/></clipPath><clipPath id="au"><path d="M144 337h1v2h-1zm0 0"/></clipPath><clipPath id="av"><path d="M466 332h2v3h-2zm0 0"/></clipPath><clipPath id="aw"><path d="M465 332h3v3h-3zm0 0"/></clipPath><clipPath id="ax"><path d="M144 317h2v8h-2zm0 0"/></clipPath><clipPath id="ay"><path d="M466 318h2v3h-2zm0 0"/></clipPath><clipPath id="az"><path d="M465 319h3v3h-3zm0 0"/></clipPath><g id="aA" clip-path="url(#clip1)"><path fill="#fff" fill-opacity="0" fill-rule="evenodd" d="M0 0h1000v1000H0zm0 0"/><path fill="#d3d3d3" fill-opacity="0" fill-rule="evenodd" d="M162.15234 355.86719l-.23437.29297.0586.23437.11718.17188.17578.23437.29297.34766.11328.0586.11719-.17188.0586-.23438.17577-.17578.46485-.17578h.69922l.23437.29297.28906.8164.0586.17579.17578.23046.35156.23438.69922.69922.17188.17578.23437.34765.23438.41016.28906.58203.41015.46485.23047.23437.23438.17578.11719.23047.17578.29297.17187 1.16406v.23438l.0586.28906.05859.11719.11719.11719.34765.41015.11719.17188.17578.17578.17578.23437.11719.17188.17188.35156.05859.23438.23437.40625.23438-.0586-.17578.17578-.0586.92969h-.58203l-.23437-.11328-.34766.11328-.11719.11719-.05859.29297-.0586.17578-.11718.17187-.46484.29297-.0586.23438-.0586.11328v.64453l.0586.17187v.41016l.0586.0586v.40624l.05859.40625.11719.17579.05859.05859.23047.64062-.0586.29297v.69922l-.05859.58203v.23438l-.0586.23047-.05468.35156v1.92187l.05469.1172h.42578l-.36719.11718-.02344.35156.89063 1.16797 1.74219.53906 1.33984.35938v.53906l.08984.8086.53516.71484 1.51953.26953.89063-.08594.08984 1.16406.53516.1797 1.16015-.1797 2.05469-.98437 1.16016-.36328 1.8789-.17578 1.69531-.1797-.17968.71876-1.51563.08594-1.25.08984-.80469.26953-1.07421.8086.26953.71875.53515.89843-.17968.625-.26563.8086.26563 1.07812.625.89844.80468.17969 1.25-.1797-.26562.72267.09766.5039.05468.29297v.17188l.0586.29296v.40625l.17578.1172.35156.11718h.40625l.29297-.17578.11328-.11719.0586-.11719.11718-.23047.0586-.17578.35156-.46484.23047-.17578.17578-.0586.17578.0586.0586.17578.11718.98828.05469.46875.0586.17188.11718.23437.17578.0586.8164.05859h.28907l.11719.23437.05859.40625.0586.35156v1.10547l.11718.29297.11719.34766.28906.69922.17578.35156.58203.7539.35157.17579.17187.0586.46875.23437.64063.46484.34765.23438.29297.17578.29297.05468.23047.0625.8164.34766.29297.17578.11328.17188.35157.35156.11719.17578.52343.64063v.28906l.0586.35156v.34766l.05859.35156.0586.28906.11718.0586.17188.05859h.17578l.58203.23437.17578.1172.17578.28905.17578.23438.11328.23437.29297.23047.11719.11719v.41016l.0586.05468.28906.23438.23437.11719.0586.11718.11718.17188.0586.11719.23047.23437.05859.17578.23437.0586.1172.05859-.1172.11328-.05859.11719v.11719l-.11719.29296-.11719.28907v.58203l.17579.11719.11718.05859.0586.11719.11719.11719.11328.05859.17578.34765.0586.35157.05858.40625v.17578l-.05859.17578-.11719.69922v.17187l.1172.17579.29296.29296h.40625l.17578.1172.11719.17187.11719.29296v.23438h-.52735l-.23047-.23438h-.23437l-.17578.0586-.0586.69922.0586.34765.11719.17579.17578.41015.11718.23047.28907.46875.17578.05469h.52344l.23437.0586.75781.64062.0586.29296v.23438l.05859.0586.23047.34765v.35156l-.11719.17188v.29297l.29297.28906.29297.17578.17187.0586.29297.17577.29297.1172.58203.40624.28906.23438.29297.17578.21875.16015.01563.01172.23047.17579.64062.52343.17578.23438.1172.17578.17577.17578.11328.17188v.64062l.1172.17578.46874.11719.58203.11719.23438.05859.23047.11328.29297.11719.11328.0586.58593.35156.28907.17187.17578.0625.17578.05469.17578.0586.69922.35155.28906.17579.23438.05468.28906.17578.23437.1172.64063.40624.29297.11719.17187.0586.23438.05859.41015.05859.23047.0586.23438.11718.0586.17188-.41017.17578.46875.0586.0586.29296.11328.23438.17578.05468.23438.0586.17578.05859.40625.11719.64062.23437.11719.17188.0586.23437v.17578l-.0586.1172-.0586.40624.23438.23438.11719.05859.34766.11719.64062.23047.17578.11718.28906.1172.17578.17577.23438.46485.58203 1.10546.17578.17579.34766.17578.17578.11719.35156.11718 1.04688.52344.23437.0586.46485.11327.29297.0586.46484.17578.75781.58203.23438.23438.34765.46484.17578.17578.28907.23438.8164.69921.29297.17579.28906.28906.29297.17578.29297.28906.69531.64063.17578.17578.29297.23437.28907.23438.46875.28906.64062.58203.34766.23438.23437.29297.34766.34765.35156.46485.9336.99218.34765.40625.11719.17579.23437.05859.11328.11719.64454.17578.23047.11328.23437.0586.29297.17577.23047.1172.9336.69921.40624.40625.23438.17578.40625.17578.23437.11719.8164.34766.34766.23437.23438.11719.29297.28906.23047.11719.7578.35156.35157.17188.23047.05859.29297.11719.23437.0586.8711.17577h.8164l.46875.23047.17188.0586.875.69921.46484.1172.29297.05858.17578.0586.23047.0586.46875.05859.34766.05859.35156.0586.40625.05859h.29297l.17187.0586v.23046l.17578.17578h.29297l.34766.0586.35156.05859.69922.11719h.64063l.46484-.23438.29297-.17578.17187-.11719.41016-.17187.28906-.17578.9336-.46485.46875-.29297.52343-.29296.46485-.17188.46484-.17578 1.05078-.46485.28906-.11718.41016-.11719.28906-.11719.52735-.17578 1.51562-.69922.58203-.34765.28907-.0586.29297-.0586.34765-.11718.875-.23047.35156-.11719h.11329l.23437-.05859.875-.23437.23438-.0586h.8125l.35156-.0586.8164-.11718.17188-.0586.35156-.05468.29297-.0586.23047-.05859.8164-.17578.17579-.0586h.34765l.23438-.05859.46484-.11718.75781-.17188.23438-.0586h.34765l.41016-.11718.28906-.0586 1.28516-.05859h.28906l.41016-.0586.23047-.05858h.17578l.875-.1172h.40625l.41015-.11718h.34766l.35156-.11328.8711-.0586h1.75l1.04687.28907.41016.11719.28906.11718.35156.11719.28907.11719 1.05078.17187.28906.0586h.29297l.29297.05859.17187.0586.41016.05859.17187.0586.1172.05858h.11718l.11719.0586.35156.0586h.11328l.41016.0664 1.92187.39453 1.92578.39453 1.51953.44922 1.69532.71875 2.14453.80469 1.60547-.71875 1.42968-.80469 1.16016-1.07813 1.25-.44921 3.03516-.71875 1.875-.35938 2.14453-1.34765 2.23437-1.25391 2.5-1.25781 1.69531-.44922 1.78516-.17969 1.16016-.26953.625.53906 1.33984-.26953.71485-.98828.98437-1.34375.44531-.17969.80469-.35937 1.875-.53907 1.78516-.44921 1.25-.26954 1.16015-.08984 1.69922-.08984 1.96094-.26954 1.25-.08984h.53906l.625-.08984h.89063l2.14453-.17969 2.41015-.17969 2.58985-.08984 1.69531.17969 1.60938.08984 1.42968.35938 1.16016.71875 1.875.98828 1.16015 1.52734.26563.71484.6289.08985.35548.89844.53515.53906.53516 1.52734 1.07422.35938h.53515l-.80469.53515.08985 1.70703.71484 2.69532.89063.80468.89453.98829.71484 1.2578 1.78516.53907 1.51953-.17969.35547 1.34375 1.60937-.80469.98047-.53906.26953.26953.31641-.21484.21875-.14453.80078.44922.44922-.35938h.35547l.53515-.26953.53907-.71875.53515-.26953.625-.98828 1.16016.44922.83984.3711 1.39454.61718 1.6953-.17969h1.60548l1.78515.08985.17969-1.70704.53516-1.34375.80468.26954.4922.84765.40233.40625-.08984.53906v.35938l.71485.44922.71093-.26953h1.42969l.35938.98828.4453 1.25781.71485 1.34375 1.25.6289 1.69531.62891.71485-.17969.17969-.53906.98046-.08984.44922.35937.08594 1.25782-.26563.6289-.53515.17969v.53906l.71484.98438.26563.53906.98437.98828.80078 1.07813-.26562.35937-.08985.89844-.625 2.33203-.35546 2.0664-.08985 1.79298-.17969.71875-.08984.53906v1.4375l-.98047 1.88281-.35937 1.70703-.53516.89844-.80469 1.16797-.26562.53906 2.05469 1.2539.08593.35938-.35546.53906-.08985-.17968v.80859l.08985 1.4375-.44532.71484-1.07422.09375-.26562.71485.53515.89844.8047.71875 1.16015.80859 1.33984.26953.44531.35938-.35546.44921-1.78907-.08984-1.25-.44922-.71484-.71875-.625-.08984-.17578 3.58984-.1875 1.3086h89.35937V311.70313h-55.26953v49.08203l.76172.125 3.28906.54296 2.02344 2.83594v2.7539l2.35156.33204 2.34766.33203h4.05078l-1.3789 4.16016-2.02344.70703-2.02344.70312-.54297.34375-2.59375 1.6172-.1875.11718-2.02344-2.07813-.73046-2.74218-2.67188-2.07813-1.375-3.5-.0664-.08203-1.95704-2.67188 2.75-1.41796v-49.08204H294.42187v91.41407l.1172.03125.1328.01172.07422.07421.10547.04688.08985.0586.08593.05859.08985.0586.29687.29687.0586.08984.03125.11719.02734.11719.01563.13671-.03125.1172-.0586.08983-.0586.08594-.04296.10547-.04688.10156-.02734.1211v.14453l.17578.26953.14844.14844.07422.08594.07422.07421.04296.10547.0625.08985.0586.08593.04297.10547.0586.08985.04687.10156.04296.10547.0586.08594.11719.17968.07421.07422.0625.08594.0586.08984.04297.10547.0586.08985.05858.08593.0625.08985.0586.08984.04297.10156.11719.17969.07421.07422.0586.08594.07422.07421.08984.0586.10547.04687h.14844l.1328-.01562.13282.01562.10156-.04687.07422-.07422.04688-.10156-.01563-.13281v-.14844l-.04687-.10547-.02735-.11719-.04687-.10156-.02735-.1211-.04296-.10156-.0625-.08984-.04297-.10156-.04297-.10547-.03125-.11719-.01563-.13281-.01171-.13672.08593-.0586.0586-.08593.12109-.03125.04297.10547.01562.1328v.1172l.0586.10156.0586.08984.08983.0586.14844.14843.0586.08985.04296.10547-.01171.10156.08593.0586.10547.04687.08594.0586.08984.05858.07422.07422-.11719.02735-.10546.04687-.08594.0586-.07422.07421-.0586.08985-.0625.08594-.02734.12109-.04687.10156-.04297.10547-.03125.11719-.01172.13281-.01563.13281v.14844l.02735.11719.04687.10547.04297.10156.0586.08984.07421.07422.08985.0586.07422.07421.08984.0586.0586.08984.04296.10547.04688.10156.11719.03125.1328.01563h.14845l.11718-.03125.10547.04297.04297.10547.04688.10156.02734.1211L299.5 410l.02734.11719.03125.1211.02735.11718.10547.04297.10156.04687.13281-.01562.14844.14844.0625.08593.07422.07422.07031.07422.08984.0625.10547.04297.10156.04297.1172.03125.13671.01562.11719-.03125.07422-.07422.02734-.11718-.01172-.13282-.03125-.12109-.02734-.11719.04297-.10547h.11719l.08984.0625.11719.02735h.14843l.13282.01562h.14843l.13282.01563.1328-.01563h.14845l.1328-.01562.13282-.01172.13672.01172.11719-.02735.13281-.01562.1914-.0586-.05859.17579-.01562.1328-.02735.1211-.01562.13281-.0586.08594-.1328.01563-.10548.04687-.10546.04297-.1172.03125-.11718.02735-.26563.03125h-.14843l-.13281.01562-.07422.07422.05859.08594.14844.14843.11719.1797.07421.0703.08985.0625.08984.0586.08594.0586.08984.05858.10156.04297.10547.0625.10547.04297.08594.0586.10547.04687.10156.04297.17969.11719.0586.08984-.04298.10156-.04687.10547.01562.13281.22266.22266.0586.08985.04296.10156.03125.1211.04297.10155.01563.13282.03125.11718.01171.13672.03125.11719.14844.14844.10156.04297.10547.04296.1172.03125.1328.01563.13672.01563h.11719l.11719-.03125.08984-.0586.04297-.10547.04688-.10156.04296-.10547.03125-.11719.01172-.1328v-.14845l-.01172-.1328-.01562-.13282-.03125-.11719-.04297-.10547-.04688-.10547-.04296-.10156-.04297-.10547-.01563-.13281.01563-.13281.02734-.11719.03125-.11719.02735-.1211.04687-.10155.08984-.0586.08594-.0625.07422-.07422.08984-.05859.22266-.22266.0586-.08593.07421-.07422.11719-.17969.0586-.08594v-.14844l-.07423-.07421-.10156-.04688-.10547-.04297-.10156-.04297-.0586-.08984-.04687-.10547-.02734-.11719.08984-.05859.11719-.03125.10156-.04297.17969-.11719.14844-.14843.01172-.13282-.01172-.10546-.08985-.0586-.1328.01563h-.14845l-.1328.01562-.13282-.01562-.1211-.03125-.08593-.0586-.07422-.07422-.0586-.08984-.0625-.08594-.11718-.17969-.0586-.08593.03125-.1211.08594-.05859.1211-.03125.05859-.08594v-.1211l-.03125-.11718-.0586-.08984-.05859-.08594-.04687-.10547-.02735-.11719-.01562-.1328.0586-.08985.07421-.07422.08984-.0586.1172-.17968.07421-.07422.0586-.08594.14843-.14844.1211-.03125.1328-.01562.13282.01562.07422.07422.04297.10547.01562.13281-.03125.1172-.11719.03124-.1328.01172-.14844.14844-.04297.10547-.04688.10156-.02734.1211-.03125.11718v.14844l.03125.11719.04297.10546.05859.08985.07422.07031.07422.07422.11719.03125.12109.02734.11719-.02734.1328-.01563h.1172l.08984.0586.07422.07422.04687.10546.0586.08594.10156.04688.13281.01562.10547.04297.08594.0586-.01172.10546-.07422.07422-.17969.11719-.05859.08984-.08984.0586-.07032.07422-.07421.07421-.0625.08985-.02735.11719-.01562.1328.01562.13282-.01562.13281v.14844l.01562.13281.02735.1172.03125.12108.07421.07422.08985.0586.08594.0586.08984.05858.11719.03125v.08594l-.10157.04688-.08984.0586-.26563.03124-.11718.02735h-.14844l-.10547.04296-.10156.04688-.0586.08984-.0625.23438-.01171.13281-.03125.1211-.01563.1328v.29298l-.01172.1328.01172.13673.01563.1328.1328.01563.13282.01172.1211.03125.08593.0586.07422.07421.04688.10547.04296.10157.01563.1328v.44532l-.01563.13281v.44532l.03125.26562.02735.11719.01562.13281.03125.11719.08594.21094.03125.26562v.14844l-.03125.11719-.02734.11718-.03125.1211-.02735.11719-.03125.11718-.03125.1211-.01171.1328-.01563.13282.08984.0586.1172-.03125.10155.01562.04688.10547-.03125.26562v.44141l-.04297.10547-.04688.10547-.04296.10156-.04297.10547-.0586.08594-.03125.12109-.04296.11719-.03125.11719-.01563.1328.01563.13282.05859.08984.10547.04688.08594.0586.05859.08593-.01172.13672-.03125.11719-.04297.10156v.44531l-.01562.13281v.14844l-.03125.11719-.04297.10547-.02735.11719-.04687.10546-.04297.10157-.03125.12109-.02734.11719-.03125.13281-.03125.11719-.02735.11719-.04297.10546-.03125.1172-.03125.12108-.01171.13282-.01563.13281v.29688l.02734.11718v.14844l.04688.39844.02734.11719.0586.08984.12109.03125h.14844l.13281-.01563.0586.08985v.11719l-.0586.08984-.08984.0586-.10157.04296-.10546.04688-.08985.05859-.08594.0586-.13671.01562-.1172-.03125-.1328-.01563-.10157.04688-.0625.08594-.01172.13671-.01562.13282-.03125.11719-.02735.11718-.01562.13281-.03125.1211v.29687l.01563.13282.03125.11718v.14844l.01171.13281v.14844l-.02734.11719-.04688.10156-.02734.1211-.03125.11718-.0586.08985-.07421.07421-.10156.04297-.10547.04688-.11719.02734-.1211.03125-.10156-.04687.0586-.08594.10547-.04688.02734-.11718.03125-.11719.02734-.1211.03125-.11718v-.14844l.01563-.13281-.03125-.11719-.04297-.10547-.10547.01563-.07422.07422-.10156.04296-.08984.0625-.07422.07422-.04297.10157-.01563.1328-.03125.1172L304.25 426l-.03125.11719-.02734.11719-.03125.12109-.02735.11719-.03125.11718-.04297.10547-.08984.0586h-.08984l-.1172-.03125-.03124-.08594.01562-.13672-.03125-.11719v-.14844l-.01171-.1328v-.14844l-.0625-.23438-.02735-.1211-.04297-.10156-.04687-.10546-.0586-.08594-.05859-.08985-.04297-.10546-.0625-.08594-.14844-.14844-.0703-.07422-.10548-.04687-.10547-.04297-.10156-.04297-.29687-.29688-.08985-.07421-.08594-.0586-.10546-.04297-.08985-.0625-.08594-.0586-.10546-.04296-.08985-.0586-.08594-.0625-.07421-.0703-.10547-.04688-.08594-.0586-.10547-.04296-.08984-.0625-.10156-.04297-.10547-.04297-.08594-.0586-.10547-.04687-.10547-.04297-.10156-.04687-.08985-.0586-.10156-.04297-.10547-.04296-.08984-.0625-.11719-.02735-.13281-.01562-.13281.01562H299.75l-.13281.01563-.11719-.03125-.08984-.0586-.07422-.07422-.08985-.05859-.10156-.04688h-.14844l-.12109-.02734-.10156-.04297-.07422-.07422-.11719-.17968-.08984-.0586-.10156-.04297-.08985-.0625-.10547-.04296-.08984-.0586-.08594-.0586-.10547-.04687-.0586-.08594-.05858-.08984-.04297-.10547-.04688-.10156-.07422-.07422-.08594-.0586-.07421-.07421-.08985-.0586-.22265-.22265-.04297-.10547-.03125-.26563.10547-.04296h.14453l.10547.04296.07421.07422.08985.0586.08594.0586.10546.04687.08985.05859.14844.14844.0703.07422.14845.14843.0625.08594.07421.07422.08594.0586.07422.07421.08985.0625.08984.0586.08594.05859.26953.17578.10156.04688.10547.04296.10156.04297.04688-.07421.05859-.08594.07422-.07422.07031-.07422.10547.04297.07422.07422.0586.08984.04296.10156.04688.10547.04296.10547.1211.02735.11719-.02735.07421-.08984.04297-.10547.0586-.08985.07422-.07421.10546-.04297.1172-.02735.1328.01172.08985.0586.14844.14843.05859.08985.04297.10547.04687.10156.04297.10547.04297.10156.10547.04688.10547.04296.13281.01563.08594-.0586.0586-.08984.07421-.07422.10547-.04297.11719.02735.10547.04687.10156.04297.10547.04297.10156.04688.17969.11718v.11719l-.01563.13281.01563.13281.01562.13672.0586.08594.10156.04688.1211.02734.11718.03125h.14844l.11719-.03125.05859-.08984.17969-.1172.05859-.08983.07422-.07422.0586-.08594.11718-.17969.17969-.11719.11719.03125.08984.0586.04297.07422-.01563.1328v.1172l.08985.05859h.14843l.13282-.01563.1328-.01171.26563-.03125.10547-.04297.11719-.03125.1211-.02735.07421-.07421.07031-.07422.0625-.08985-.01562-.10547-.04688-.10156-.10156-.04297-.10547-.01562-.11718.02734-.26563.03125h-.14844l-.07421-.07422-.08985-.0586-.11719-.03124-.11718-.02735-.13282-.01562h-.14843l-.13282.01563h-.29687l-.10547-.04688-.14844-.14844-.04297-.10156-.05859-.08984.22266-.22266.08593-.0586.10547-.04296.11719-.03125.13281-.01563.13281.01563.13672.01562.10157.04297.1328-.01172.08985-.0625.10156-.04297.0625-.08984-.04687-.10156-.08984-.0586-.1172-.03125-.10155-.04296-.0586-.08985-.0625-.08984v-.11719l.01563-.13281.10547-.04688.07421-.07031v-.1211l-.08984-.05859-.03125-.11719.08985-.05859.07421-.07422.04297-.10547.0586-.08984.04687-.10156.01563-.13281v-.14844l-.04688-.10547-.04297-.10156-.08984-.0586-.13281-.01562-.10157-.04297-.13671-.01563-.1172-.03125h-.4453l-.13282-.01562-.13281-.01172-.13281-.01563-.11719-.03125h-.14844l-.13281-.01562-.13281-.01172-.26563-.03125-.1211-.04297-.08593-.0586-.07422-.07421v-.14844l.01172-.13281.10547-.04688.10156-.04296.13281-.01563h.15235l.13281-.01562h.29297l.1211.03125.10156.04296.08984.0586.23438.0625.12109-.04688.08984-.05859.10156-.04297.13282-.01562.10547.04296.10156.04688.13281.01172.1211-.02735h.14453l.12109-.03125.11719-.02734.10547-.04687.07421-.07422.08594-.0586.14844-.14843.0586-.08594.04687-.10547.02734-.11719.01563-.10547-.10156-.04296-.08985-.0586-.11719-.03125-.10546-.04297-.08985-.0625-.07422-.08594-.07422-.07421-.10156-.04297-.10547-.04688-.10156-.04297-.0586-.08984-.04687-.10156-.08594-.21094-.0625-.08594-.05859-.08984-.07422-.07422-.08594-.0586h-.26953l-.11719.03126-.08984.05859-.10156.04297-.13281.01562-.10547-.01562-.02735-.11719-.0625-.08984-.11718-.03125-.10157-.04297-.14843-.14844-.03125-.11719-.01563-.10546.07422-.07422.17969-.1172.11719-.02733.11718-.03125.13672.01562.10156.04297.10547.04297.10156.04687.10547.04297.1172.03125.1328.01563.1172.02734.1328.01563.10547-.01563.08985-.0586-.07422-.07421-.10547-.04297-.07422-.07422-.07422-.08984-.14844-.14844-.08593-.0586-.08985-.05859-.07422-.07422-.08984-.0586-.10156-.04687-.1211-.02734-.10156-.04688-.10547-.04296-.11719-.03125-.10156-.04297-.1211-.03125h-.14843l-.11719.03125-.10546.04297-.08594.0625-.17969.11718-.08594.0586-.08984.0586-.10547.04687-.08594.05859-.10547.04297-.10156.04297-.10547.04687-.07422.07422-.05859.08985-.0586.08593-.04687.10547-.0586.08594-.07421.07422-.13281-.01172-.1172-.03125h-.11718l-.07422.07422-.08984.0586-.07422.07421-.08984.0586-.08594.05859-.10547.04687-.10156.04297-.13672.01563-.10156-.04297-.14844-.14844-.10547-.04688h-.08594l-.10547.04688-.10156.04297-.1211.03125-.11718-.03125-.07422-.07422v-.11719l.03125-.1211.07422-.0703.0586-.08985.07421-.07422.11719-.03125.10547-.04296h.29297l.13281-.01563.13672-.01563.10156-.04296.08985-.0586.10156-.04687.08984-.0586.13281-.01171.08985.05859.13281.01172.08984-.0586.08594-.05859.10547-.04297.08984-.0586.08594-.0625.08985-.05859.14843-.14843.0586-.08594.05859-.08985.10547-.04296.13281-.01563.11719.02735.1211.03125.05859-.0586.05859-.08984.03125-.26563.02734-.11719.10547.01172.13281.01563.10157-.04297.08984-.0586.0586-.08984.07421-.07422.0586-.08984.04687-.10156.01172-.13281-.01172-.13282-.04687-.10547-.14844-.14843-.0586-.08985-.05859-.08594-.04297-.10546v-.44532l.01563-.1328v-.14845l.01172-.1328-.0586-.0586-.08984.0586-.10156-.04298-.17969-.11719-.08594-.05859-.0625-.08984-.0586-.08985-.07421-.07421-.08594-.0586-.1211.03125-.10155.01172-.10547.04688-.08594.05859-.10547.04297-.14844.14844-.08984.05859-.08594.0586-.08984.0625-.10547.04296-.13281.01563v-.1211l.10547-.04297.11718-.03125.07422-.0703.04297-.10548v-.14844l-.02734-.11718-.14844-.14844-.13281-.01563h-.14844l-.11719.03125-.10547.04297-.10156.04297-.08984.0625-.11719.02735-.07422-.07422.01172-.13281-.04297-.10157-.04297-.10547-.08984-.05859-.11719.02734-.1211.03125-.11718.03125-.10156.04297-.1211.03125-.10156.04297-.10547.04297-.08984.0586-.10156.01562v-.11719l.01562-.13281-.0586-.08985-.07421.04297-.14844.14844-.0586.08985-.07421.07421-.04688.10547-.04296.10156-.07422.07422-.0586.08985-.07422.07422-.05859.08593-.07422.07422-.08984.0625-.07422.07031-.07422.07422-.10156.01563-.13281.01562-.10547-.04296v-.1211l.14843-.14844.04297-.10156.0586-.08984.04687-.10156.04297-.10547.0586-.08985.03124-.11719.04297-.10156.03125-.1211.02735-.11718.04687-.10547.04297-.10156.04297-.10547.07422-.07031.08984-.0625.08985-.0586.10156-.04296h.29687l.26563-.03125.10547-.04297-.07422-.07422-.11719-.03125-.10547-.04297-.08984-.0586-.10156-.04687-.08985-.0586-.10156-.04296-.10547-.04297-.08984-.0625-.08594-.0586-.10547-.04296-.10156-.04297-.1211-.03125-.11718-.03125-.10157-.04297L297.5 410.25l-.10156-.04297-.08985-.0586-.04296-.10546-.01563-.13281.10156-.04297.13281-.01563.13672.01563.13282-.01563.10156-.04297.0586-.08984.01562-.10547-.08985-.0586-.07421-.07421-.10157-.04297-.08984-.0586-.14844-.14843-.04297-.10547-.01562-.13281v-.29297l-.0586-.08985-.08984-.05859-.07422-.07422-.04297-.10547-.03125-.11718-.0586-.08985-.07421-.07422-.11719-.02734-.07422-.07422-.08984-.0586-.08984-.0625-.08594-.05859-.07422-.07421-.0586-.08594-.04687-.10547-.08594-.0586-.14843-.14843-.19532-.0586-.1328.01563-.10157.04297-.07422.07422-.04688.10156-.04296.10547-.0586.08984-.0586.08594-.29687.29687-.08984.0586h-.08594l-.0625-.08594-.04297-.10547.03125-.11719.0586-.08984.02734-.11719-.01172-.13281-.08984-.0625-.10547.04688-.11719.02734-.11719.03125-.26953.17578-.10156.04688-.11719.02734-.10546.04687-.08985.0586-.10156.04297-.0586-.08594-.04687-.10547.01563-.13281.04687-.10547.07031-.07422.07422-.07031.0586-.08985v-.14843l-.04297-.10547h-.23829l-.10156.04687-.03125.11719-.02734.11719-.03125.1211-.07422.04296-.13281.01563-.07422-.04688-.04297-.10156-.04297-.10547-.04687-.10156-.04297-.10547-.1211.03125-.10156.04297-.13281.01562-.11719.03125-.10547.04297-.08984.0586-.10156.04687-.1211.02734-.13281.01563-.10156-.04297-.0586-.08985-.04687-.10546-.04297-.10157-.04297-.10546v-.1172l.0586-.08984.08593-.05859.17969-.11719.10156-.04687.10547-.04297.10547-.0586.10156-.04296.08985-.0625.10156-.04297.10547-.0586.10156-.04687.08984-.0586.10547-.04296.10156-.04297.08985-.0625.10156-.04297.13672-.01563.11719.03125.10156.04297.1211.03125.10156.04297.10546.04688.10157.04296.10547.04297.10156.04688.10547.04297.10156.04297.10547.04687.08594.0586.10546.04296.1172.03125.10546.04297.10156.04688.08985.0586.10547.04296.10156.04297.10547.04687.11719.02735.10156.04687.1211.02735h.14843l.08594-.0586.01562-.10156.0586-.08984-.02735-.1172-.07422-.07421-.11719-.17969-.07421-.07422-.08985-.07421-.17969-.1172-.08593-.05859-.10547-.04296-.10156-.04688-.26954-.17578-.05859-.08985-.07422-.07421-.0586-.08985-.04296-.10156-.03125-.11719-.01563-.13672v-.5625l-.01171-.1328-.01563-.13282-.03125-.11719-.01562-.13281-.01172-.13281-.03125-.1211-.22266-.22265-.0586-.08594-.01562-.10547.03125-.11719.13281-.01562v-91.41406H172.9922v1.45312l-.0586.23438-.35156 1.05078-.17187.52343-.1172.34766-.17577.41016-.11719.17187-.23438.29297-.23046.0586h-.35157l-.11718.05859-.23047.40625v.29297l.11719.17578.23046.23047.1172.23437.64062.75781.29297.46485.17578.23437.23047.35156.23437.34766.64063.8164.17578.46485.17187.41016.11719.69531.17578.46875.11719 1.39844.0586.46484v.875l.11718 1.04688v4.78125l-.0586.46484-.35156 1.28125-.17578.52344-.11328.41015-.35156.9297L172.93359 336l-.23437.58203-.11719.17578-.17187.34766-.17578.40625-.35157.8164-.0586.29297-.11327.29297-.11719.28906-.0586.17579-.11718.875-.0586.40625-.05859.11718-.0586.17579-.05859.17187-.23047.52734-.11718.17188v.23437l-.11719.23438-.0586.17187-.17577.58594v.28906l-.0586.17579v.29296l-.0586.11329-.05859.52734v.17187l-.05468.23438v2.6211l-.17578.8164-.1172.17578-.17577.23438-.1172.17187-.11327.23438-.58594.93359-.23047.28906-.29297.46485-.17578.23437-.28906.35156-.35156.69922-.11328.23047-.17579.41016-.17578.23046-.40625.52735-.8164.69922-.29297.17187-.28906.23438-.17579.11719-.17578.17578-.52344.40625-.52734.17578-.17187.17578-.23438.05469-.64062.17578h-.75782m12.21094 31.02344l-1.07422.44921.35938.89454 1.25-.71485.44531-.53906-.98047-.08985"/><path fill="#d3d3d3" fill-opacity="0" fill-rule="evenodd" d="M201.50781 416.59766h-.89453l.44922.6289.98047.35938.80469-.08985.4453-.98828-.17577.08985-.71485-.35547-.89453.35547m154.6211 59.0703l-.0586-.52343v-.29297l.11328-.29297.0586-.23046.46875-.46875h.11328l.11719-.11329.11718-.05859h.17579l.23437-.0586h.34766l.23437.0586.11719.0586.23047.17187.0586.17578.11718.58203v.29297l-.11719.17578-.17187.28906-.17579.17579-.52734.52343-.23047.23438-.11719.0586h-.17578l-.11718-.0586-.40625-.29297-.17579-.11719-.11718-.0586-.0586-.11327-.05468-.1172m6.64062-10.95702l-.0586-.17188v-1.10937l.0586-.17188.17578-.0586.17188-.05858h.17578l.23437-.0586.1172.0586.05858.69921-.05859.17188-.11719.17578-.11718.0586-.23438.52343-.11328.0586h-.23438l-.05859-.1172m9.61328-14.39062l-.11719-.17578v-.69922l.29297-.875.1172-.17187.17577-.35156.11328-.23047.1172-.29297.35155-.75781.1172-.23047.17187-.23438h.17578l.11719-.0586h.64062l.11719.0586.23437.23438.17188.11328.35156.29297.11719.11718.11328.17579v.11328l.11719.05859.11718.11719v.69922l-.05859.17578v.23047l-.0586.17578-.34765 1.05078-.11719.23047-.11719.23437-.11718.0586-.23047.23437-.64063.28906h-.875l-.41015-.11718-.64063-.46485"/><path fill="none" stroke="#bebebe" stroke-linecap="round" stroke-linejoin="round" stroke-miterlimit="10" stroke-width=".5" d="M467.95703 311.69531H144.02734v168.625h323.9297v-168.625"/><g clip-path="url(#a)"><path fill="#fff" fill-opacity="0" fill-rule="evenodd" d="M144 475.89063v4.4375h.0039H144V317.0625v158.82813"/></g><g clip-path="url(#b)"><path fill="#50fcfc" fill-rule="evenodd" d="M144 316.10938v.95312-5.39063h.0039H144v4.4375"/></g><g clip-path="url(#c)"><path fill="#fff" fill-opacity="0" fill-rule="evenodd" d="M144.0039 480.32813V317.0664l4.19532 3.48046.23828.15625.22656-.15625 2.42969-4.4375.05469-4.4375h77.17969v94.05079l-4.4375.38671-3.6797 3.20704-.7578 1.39062-2.78907 3.04688 2.78906 3.39453 4.4375.54687 3.57032-3.9414.86719-1 3.60546-3.4375-3.60547-3.59375v-94.05079H467.9961v168.65625H144.00391"/></g><g clip-path="url(#d)"><path fill="#50fcfc" fill-rule="evenodd" d="M148.19922 320.54688l-4.19531-3.48047v-5.39454h7.14453l-.05469 4.4375-2.42969 4.4375-.22656.15625-.23828-.15625"/></g><path fill="#50fcfc" fill-rule="evenodd" d="M219.45313 417.14844l-2.78907-3.39453 2.78906-3.04688.75782-1.39062 3.67969-3.20704 4.4375-.38671v2.48046l-4.4375.3047-.92579.80859-1.94922 4.4375 2.875 1.66015 1.5-1.66015 2.9375-3.375 1.1172-1.0625-1.1172-1.11329v-2.48046l3.60547 3.59375-3.60547 3.4375-.86718 1-3.57031 3.9414-4.4375-.54687"/><path fill="#00e8fc" fill-rule="evenodd" d="M223.89063 415.41406l-2.875-1.66015 1.94921-4.4375.92578-.8086 4.4375-.30469 1.1172 1.11329-1.1172 1.0625-2.9375 3.375-1.5 1.66015"/><g clip-path="url(#e)"><path fill="#fff" fill-opacity="0" fill-rule="evenodd" d="M467.9961 480.32813H468V311.67188h-.0039H468v168.65625h-.0039"/></g><g clip-path="url(#f)"><path fill="none" stroke="#000" stroke-linecap="round" stroke-linejoin="round" stroke-miterlimit="10" stroke-width=".5" d="M147.48438 480.77344l-6.96875-.89063"/></g><g clip-path="url(#g)"><path fill="none" stroke="#000" stroke-linecap="round" stroke-linejoin="round" stroke-miterlimit="10" stroke-width=".5" d="M147.48438 480.77344l.87109 2.29297"/></g><g clip-path="url(#h)"><path fill="none" stroke="#000" stroke-linecap="round" stroke-linejoin="round" stroke-miterlimit="10" stroke-width=".5" d="M160.78125 480.91016l-6.92969-1.16407"/></g><g clip-path="url(#i)"><path fill="none" stroke="#000" stroke-linecap="round" stroke-linejoin="round" stroke-miterlimit="10" stroke-width=".5" d="M160.78125 480.91016l.77734 2.32812"/></g><g clip-path="url(#j)"><path fill="none" stroke="#000" stroke-linecap="round" stroke-linejoin="round" stroke-miterlimit="10" stroke-width=".5" d="M174.10156 480.875l-6.9414-1.09375"/></g><g clip-path="url(#k)"><path fill="none" stroke="#000" stroke-linecap="round" stroke-linejoin="round" stroke-miterlimit="10" stroke-width=".5" d="M174.10156 480.875l.80078 2.32031"/></g><g clip-path="url(#l)"><path fill="none" stroke="#000" stroke-linecap="round" stroke-linejoin="round" stroke-miterlimit="10" stroke-width=".5" d="M187.42969 480.77734l-6.96875-.89843"/></g><g clip-path="url(#m)"><path fill="none" stroke="#000" stroke-linecap="round" stroke-linejoin="round" stroke-miterlimit="10" stroke-width=".5" d="M187.42969 480.77734l.86719 2.29688"/></g><g clip-path="url(#n)"><path fill="none" stroke="#000" stroke-linecap="round" stroke-linejoin="round" stroke-miterlimit="10" stroke-width=".5" d="M200.7539 480.71484l-6.98437-.77343"/></g><g clip-path="url(#o)"><path fill="none" stroke="#000" stroke-linecap="round" stroke-linejoin="round" stroke-miterlimit="10" stroke-width=".5" d="M200.7539 480.71484l.90626 2.28125"/></g><g clip-path="url(#p)"><path fill="none" stroke="#000" stroke-linecap="round" stroke-linejoin="round" stroke-miterlimit="10" stroke-width=".5" d="M214.08984 480.3789l-7.02734-.10156"/></g><g clip-path="url(#q)"><path fill="none" stroke="#000" stroke-linecap="round" stroke-linejoin="round" stroke-miterlimit="10" stroke-width=".5" d="M214.08984 480.3789l1.1211 2.1836"/></g><g clip-path="url(#r)"><path fill="none" stroke="#000" stroke-linecap="round" stroke-linejoin="round" stroke-miterlimit="10" stroke-width=".5" d="M227.40234 480.375l-7.02343-.09375"/></g><g clip-path="url(#s)"><path fill="none" stroke="#000" stroke-linecap="round" stroke-linejoin="round" stroke-miterlimit="10" stroke-width=".5" d="M227.40234 480.375l1.125 2.1836"/></g><g clip-path="url(#t)"><path fill="none" stroke="#000" stroke-linecap="round" stroke-linejoin="round" stroke-miterlimit="10" stroke-width=".5" d="M226.38281 480.36328l.5586 1.08985"/></g><g clip-path="url(#u)"><path fill="none" stroke="#000" stroke-linecap="round" stroke-linejoin="round" stroke-miterlimit="10" stroke-width=".5" d="M240.71875 480.39844l-7.02734-.13672"/></g><g clip-path="url(#v)"><path fill="none" stroke="#000" stroke-linecap="round" stroke-linejoin="round" stroke-miterlimit="10" stroke-width=".5" d="M240.71875 480.39844l1.10938 2.1875"/></g><g clip-path="url(#w)"><path fill="none" stroke="#000" stroke-linecap="round" stroke-linejoin="round" stroke-miterlimit="10" stroke-width=".5" d="M239.69531 480.3789l.55469 1.09376"/></g><g clip-path="url(#x)"><path fill="none" stroke="#000" stroke-linecap="round" stroke-linejoin="round" stroke-miterlimit="10" stroke-width=".5" d="M254.03516 480.38672l-7.02735-.11719"/></g><g clip-path="url(#y)"><path fill="none" stroke="#000" stroke-linecap="round" stroke-linejoin="round" stroke-miterlimit="10" stroke-width=".5" d="M254.03516 480.38672l1.11328 2.1875"/></g><g clip-path="url(#z)"><path fill="none" stroke="#000" stroke-linecap="round" stroke-linejoin="round" stroke-miterlimit="10" stroke-width=".5" d="M253.01172 480.3711l.5586 1.09374"/></g><g clip-path="url(#A)"><path fill="none" stroke="#000" stroke-linecap="round" stroke-linejoin="round" stroke-miterlimit="10" stroke-width=".5" d="M267.34766 480.28125l-7.02344.09766"/></g><g clip-path="url(#B)"><path fill="none" stroke="#000" stroke-linecap="round" stroke-linejoin="round" stroke-miterlimit="10" stroke-width=".5" d="M267.34766 480.28125l1.18359 2.14844"/></g><g clip-path="url(#C)"><path fill="none" stroke="#000" stroke-linecap="round" stroke-linejoin="round" stroke-miterlimit="10" stroke-width=".5" d="M266.32813 480.29297l.58984 1.07812"/></g><g clip-path="url(#D)"><path fill="none" stroke="#000" stroke-linecap="round" stroke-linejoin="round" stroke-miterlimit="10" stroke-width=".5" d="M280.66016 480.45703l-7.01953-.25781"/></g><g clip-path="url(#E)"><path fill="none" stroke="#000" stroke-linecap="round" stroke-linejoin="round" stroke-miterlimit="10" stroke-width=".5" d="M280.66016 480.45703l1.07422 2.20703"/></g><g clip-path="url(#F)"><path fill="none" stroke="#000" stroke-linecap="round" stroke-linejoin="round" stroke-miterlimit="10" stroke-width=".5" d="M293.98047 480.375l-7.02735-.09375"/></g><g clip-path="url(#G)"><path fill="none" stroke="#000" stroke-linecap="round" stroke-linejoin="round" stroke-miterlimit="10" stroke-width=".5" d="M293.98047 480.375l1.1211 2.1836"/></g><g clip-path="url(#H)"><path fill="none" stroke="#000" stroke-linecap="round" stroke-linejoin="round" stroke-miterlimit="10" stroke-width=".5" d="M307.28906 480.14453l-7.01562.36719"/></g><g clip-path="url(#I)"><path fill="none" stroke="#000" stroke-linecap="round" stroke-linejoin="round" stroke-miterlimit="10" stroke-width=".5" d="M307.28906 480.14453l1.26563 2.10156"/></g><g clip-path="url(#J)"><path fill="none" stroke="#000" stroke-linecap="round" stroke-linejoin="round" stroke-miterlimit="10" stroke-width=".5" d="M320.5664 480.88672l-6.9414-1.11328"/></g><g clip-path="url(#K)"><path fill="none" stroke="#000" stroke-linecap="round" stroke-linejoin="round" stroke-miterlimit="10" stroke-width=".5" d="M319.55469 480.72266l.39844 1.16015"/></g><g clip-path="url(#L)"><path fill="none" stroke="#000" stroke-linecap="round" stroke-linejoin="round" stroke-miterlimit="10" stroke-width=".5" d="M333.82813 481.14063l-6.83594-1.6211"/></g><g clip-path="url(#M)"><path fill="none" stroke="#000" stroke-linecap="round" stroke-linejoin="round" stroke-miterlimit="10" stroke-width=".5" d="M332.83594 480.90234l.3086 1.1875"/></g><g clip-path="url(#N)"><path fill="none" stroke="#000" stroke-linecap="round" stroke-linejoin="round" stroke-miterlimit="10" stroke-width=".5" d="M347.14063 481.15625l-6.82813-1.65234"/></g><g clip-path="url(#O)"><path fill="none" stroke="#000" stroke-linecap="round" stroke-linejoin="round" stroke-miterlimit="10" stroke-width=".5" d="M346.14844 480.91406l.30469 1.1875"/></g><g clip-path="url(#P)"><path fill="none" stroke="#000" stroke-linecap="round" stroke-linejoin="round" stroke-miterlimit="10" stroke-width=".5" d="M360.55469 480.32813h-7.02735"/></g><g clip-path="url(#Q)"><path fill="none" stroke="#000" stroke-linecap="round" stroke-linejoin="round" stroke-miterlimit="10" stroke-width=".5" d="M359.53125 480.32813l.57813 1.08203"/></g><g clip-path="url(#R)"><path fill="none" stroke="#000" stroke-linecap="round" stroke-linejoin="round" stroke-miterlimit="10" stroke-width=".5" d="M373.73047 479.34766l-6.7461 1.96484"/></g><g clip-path="url(#S)"><path fill="none" stroke="#000" stroke-linecap="round" stroke-linejoin="round" stroke-miterlimit="10" stroke-width=".5" d="M381.35547 477.6875l4.63281 5.28125"/></g><g clip-path="url(#T)"><path fill="none" stroke="#000" stroke-linecap="round" stroke-linejoin="round" stroke-miterlimit="10" stroke-width=".5" d="M393.52734 480.95313l6.91797-1.2461"/></g><g clip-path="url(#U)"><path fill="none" stroke="#000" stroke-linecap="round" stroke-linejoin="round" stroke-miterlimit="10" stroke-width=".5" d="M394.53516 480.76953l-.75782-.96484"/></g><g clip-path="url(#V)"><path fill="none" stroke="#000" stroke-linecap="round" stroke-linejoin="round" stroke-miterlimit="10" stroke-width=".5" d="M407.14844 481.8789l6.30469-3.10156"/></g><g clip-path="url(#W)"><path fill="none" stroke="#000" stroke-linecap="round" stroke-linejoin="round" stroke-miterlimit="10" stroke-width=".5" d="M420.34375 479.05469l6.54688 2.55078"/></g><path fill="none" stroke="#000" stroke-linecap="round" stroke-linejoin="round" stroke-miterlimit="10" stroke-width=".5" d="M421.29688 479.42578l-.14454-1.21875"/><g clip-path="url(#X)"><path fill="none" stroke="#000" stroke-linecap="round" stroke-linejoin="round" stroke-miterlimit="10" stroke-width=".5" d="M436.95313 476.8164l-.04297 7.02735"/></g><path fill="none" stroke="#000" stroke-linecap="round" stroke-linejoin="round" stroke-miterlimit="10" stroke-width=".5" d="M436.94531 477.83594l1.08985-.5664"/><g clip-path="url(#Y)"><path fill="none" stroke="#000" stroke-linecap="round" stroke-linejoin="round" stroke-miterlimit="10" stroke-width=".5" d="M450.35938 476.8164l-.22657 7.02344"/></g><path fill="none" stroke="#000" stroke-linecap="round" stroke-linejoin="round" stroke-miterlimit="10" stroke-width=".5" d="M450.32813 477.83984l1.10156-.54297"/><g clip-path="url(#Z)"><path fill="none" stroke="#000" stroke-linecap="round" stroke-linejoin="round" stroke-miterlimit="10" stroke-width=".5" d="M462.53906 476.96875l2.04688 6.72266"/></g><path fill="none" stroke="#000" stroke-linecap="round" stroke-linejoin="round" stroke-miterlimit="10" stroke-width=".5" d="M462.83594 477.94531l.86719-.86719"/><g clip-path="url(#aa)"><path fill="none" stroke="#000" stroke-linecap="round" stroke-linejoin="round" stroke-miterlimit="10" stroke-width=".5" d="M147.51172 467.09375l-7.02344-.16016"/></g><path fill="none" stroke="#000" stroke-linecap="round" stroke-linejoin="round" stroke-miterlimit="10" stroke-width=".5" d="M147.51172 467.09375l1.10156 2.19531m12.21484-2.1836l-7.02343-.18359m7.02344.1836l1.09375 2.19922m12.19921-1.8789l-6.98047-.82423m6.98047.82422l.88672 2.28906m12.44922-2.76562l-7.02344.1289m7.02344-.1289l1.1914 2.14453m12.125-2.14844l-7.02734.13672m7.02735-.13672l1.19531 2.14063m12.11719-1.91407l-7.01953-.3164m7.01953.3164l1.05078 2.21875m12.26562-2.48437l-7.02343.21484m7.02343-.21484l1.21875 2.13281m12.09766-2.0586l-7.02734.06641m7.02734-.0664l1.17188 2.15625m12.125-1.76172l-6.98829-.72266m6.98828.72266l.92188 2.27734M253 467.26954l.46094 1.13671m13.88672-1.3164l-7.02344-.15235m7.02344.15234l1.10547 2.19141m-2.125-2.21484l.55078 1.09765m13.78515-1.09765l-7.02734-.10547m7.02734.10547l1.11719 2.18359m-2.14062-2.19922l.55859 1.09375m13.78125-1.0625l-7.02734-.13672m7.02734.13672l1.10937 2.1875m12.19922-2.45703l-7.01562.40234m7.01562-.40234l1.27344 2.09766m12.00781-1.38282L313.6211 466.5m5.9375.8789l.41407 1.15626m13.73437-.30078l-6.58984-2.44141m5.6289 2.08594l.16407 1.21484m14.28125-1.4961l-6.9297-1.16796m5.92188.9961l.38672 1.16405m13.89063-2.38671l-6.83985 1.62109m5.84375-1.38672l.8125.92188m13.5-1.14063l-6.84375 1.58984m13.22657-.70703l7.02343-.17578m-6.0039.14844l-.60156-1.0664m12.90234 1.22265l7.01172-.4336m-5.99219.3711l-.64062-1.04688m13.37109 2.60157l6.14062-3.41797m-5.24609 2.92187l-1.03125-.66797m19.09766-2.9375l-5.14844 4.78516m4.39844-4.08984l1.16015.40234m12.08594-1.7461l-3.51172 6.08594m3.51172-6.08593l2.45313.08203m9.27343-.55078l-.33593 7.01953m.33593-7.01953l2.22266-1.04688m12.27344 1.3125l-2.69922 6.48828m2.69922-6.48828l2.4453-.23047"/><g clip-path="url(#ab)"><path fill="none" stroke="#000" stroke-linecap="round" stroke-linejoin="round" stroke-miterlimit="10" stroke-width=".5" d="M147.48438 453.2461l-6.96875.90624"/></g><path fill="none" stroke="#000" stroke-linecap="round" stroke-linejoin="round" stroke-miterlimit="10" stroke-width=".5" d="M147.48438 453.2461l1.42187 2m11.86328-2.1836l-6.91016 1.26953m5.90625-1.08203l.76172.96094m13.6172-.48047l-7.02735-.0625m6.0039.05469l.56641 1.08593m13.75-.71875l-6.98438-.78125m6.98438.78125l.90234 2.28125m12.40625-2.23828l-6.97265-.8711m6.97265.8711l.875 2.29297m12.41797-2.14453l-6.92969-1.16406m6.9297 1.16406l.77734 2.32812m12.55078-2.40625l-6.95313-1.0078m6.95313 1.0078l.83203 2.3086m12.51953-2.84375l-7.02734.0625m7.02734-.0625l1.17188 2.15625m-2.19532-2.14844l.58594 1.07813m13.70313-1.64063l-6.9297 1.17188m6.9297-1.17188l1.49609 1.94531m-2.5039-1.77343l.75.97265m13.5703-1.15625l-6.92187 1.19531m6.92188-1.1953l1.5039 1.9375m-2.51172-1.76563l.7539.96875m13.54688-1.26563l-6.8789 1.44531m6.8789-1.4453l1.57032 1.8828m-2.57032-1.67187l.78516.9414m13.57422-.89843l-6.96484.9375m6.96484-.9375l1.42969 1.99219m-2.44532-1.85547l.71485.9961m13.48047-1.72657l-6.69922 2.125m6.69922-2.125l1.7539 1.71875m-2.72656-1.41016l.875.85938m13.22656-1.63672l-6.32422 3.0625m6.32422-3.0625l1.98047 1.44531m-2.90234-1l.99219.72266m13.32812-.98047l-6.49219 2.6875m6.49219-2.6875l1.89453 1.5625m11.3125-1.80469l-6.27344 3.16797m6.27344-3.16797l2.0039 1.41406m10.8125-2.14843l-5.27734 4.63671m4.51172-3.96093l1.14844.4336m11-2.23048l-1.41406 6.88281m1.21094-5.8828l1.17578-.34376m8.99218.47266l5.28907 4.625m-5.28907-4.625l.5586-2.39063m12.21875 3.21094l6.36328 2.98047m-6.36328-2.98047l-.125-2.44922m1.05078 2.88282l-.0625-1.22266m12.5664.5664l6.13282 3.4297m-6.13281-3.4297l.05468-2.45312m18.96485 6.48828l-5.27344-4.64453m4.5039 3.96875l-.28124 1.19531m14.98437-4.15625l-6.51172 2.63282m6.51172-2.63282l1.88281 1.57422m10.4336-2.95312l-4.51563 5.38672m4.51563-5.38672l2.39843.51172m11.21485-.22657l-5.10938 4.82032"/><g clip-path="url(#ac)"><path fill="none" stroke="#000" stroke-linecap="round" stroke-linejoin="round" stroke-miterlimit="10" stroke-width=".5" d="M466.11719 451.28906l2.32422.78516"/></g><g clip-path="url(#ad)"><path fill="none" stroke="#000" stroke-linecap="round" stroke-linejoin="round" stroke-miterlimit="10" stroke-width=".5" d="M147.51172 440.54297l-7.02344-.3164"/></g><path fill="none" stroke="#000" stroke-linecap="round" stroke-linejoin="round" stroke-miterlimit="10" stroke-width=".5" d="M147.51172 440.54297l1.05078 2.21484m12.26563-2.375h-7.02735m6.0039 0l.57813 1.08594m13.73438-.64063l-6.97266-.88671m5.95703.7578l.4336 1.14454m13.71484-.26953l-6.60938-2.38281m6.60938 2.3828l.34766 2.4297m12.7578-1.96094l-6.1914-3.32031m6.1914 3.3203l-.0078 2.45313m13.39843-2.60156l-6.34375-3.01953m6.34375 3.01953l.10938 2.44922m13.42578-3.03516L220.5 439.45703m6.78125 1.85156l.53906 2.39453m12.875-2.89843l-6.97656-.83985m6.97656.83985l.88281 2.28906m12.26172-3.86328l-6.63672 2.3086m6.63672-2.3086l1.80078 1.66406m11.51563-1.66016l-6.64063 2.29688m6.64063-2.29688l1.79688 1.67188m11.46875-1.80469l-6.54297 2.5625m6.54297-2.5625l1.86328 1.59766m11.46484-1.5625l-6.57031 2.49219m6.57031-2.4922l1.84766 1.6172m-2.8047-1.25391l.92579.8086m12.91016-1.98438l-5.69532 4.11719m5.69532-4.1172l2.20312 1.08204m-3.03125-.48047l1.10156.53906m12.47657-1.7539l-4.56641 5.34375m4.5664-5.34375l2.39454.53125m-3.0586.2461l1.19532.26562m13.05859-.78125l-5.11328 4.8203m5.11328-4.8203l2.32422.78515m10.96094-.8125l-5.0547 4.8789m5.0547-4.8789l2.33203.75781m11.02734-.71093l-5.14453 4.78125m5.14453-4.78125l2.32031.80078m9.19532-1.83594l-1.54297 6.85547m1.54297-6.85547l2.36718-.64844m-2.59375 1.64454l1.1836-.32422m10.58594-.61328l2 6.73437m-2-6.73438l1.74609-1.72265m-1.45703 2.70312l.875-.85937m12.35937-.17578l1.58203 6.84375m-1.58203-6.84375l1.84766-1.61328m-1.61719 2.60937l.92578-.80469m14.09766-.08984l-2.29297 6.64062m1.95703-5.67578l1.21094-.1914m14.67969 3.48047l-6.77344-1.86329m6.77344 1.86329l.53515 2.39453m12.10938-5.55469l-5.4336 4.45703m5.4336-4.45703l2.26562.94531m11.70703.30469l-6.75 1.95312m6.75-1.95312l1.71094 1.76172m10.7539-3.23047l-5.04687 4.89062m4.3125-4.17968l1.16797.3789"/><g clip-path="url(#ae)"><path fill="none" stroke="#000" stroke-linecap="round" stroke-linejoin="round" stroke-miterlimit="10" stroke-width=".5" d="M147.47656 427.58594l-6.95312-1.03516"/></g><path fill="none" stroke="#000" stroke-linecap="round" stroke-linejoin="round" stroke-miterlimit="10" stroke-width=".5" d="M147.47656 427.58594l.82031 2.3125m12.44922-2.07031l-6.85937-1.51954m6.85937 1.51953l.65625 2.3672m12.6875-2.51173l-6.91797-1.23047m6.91797 1.23047l.75391 2.33594m12.50781-2.09766l-6.8125-1.70703m6.8125 1.70703l.58985 2.38282m12.82422-2.97266l-7.00782-.52734m7.00781.52734l.98438 2.25m12.32031-2.8711l-6.99219.71485m5.97657-.60937l.6836 1.01953m12.78124 1.5625l-5.25781-4.66016m4.49219 3.98047l-.28516 1.19531m14.26563-.40625l-5.0586-4.8789M239 428.79688l-.33594 1.17968m15.35938-3.1875l-7.0039.5586m5.98437-.47657l.66015 1.03125m13.52735-1.875l-6.71094 2.08204m6.71094-2.08204l1.74218 1.72657m11.47266-2.00391l-6.51172 2.63672m6.51172-2.63672l1.88281 1.57813m11.1836-2.07813l-6.01563 3.63672m6.01563-3.63672l2.10547 1.25781m10.67968-1.92969l-4.95703 4.98047m4.95703-4.98047l2.34766.71094m10.21875-1.28125l-3.45703 6.1211m3.45703-6.1211l2.45312.0625m-2.95703.82813l1.22657.03125m12.82421-.77735l-3.92187 5.83204m3.92187-5.83204l2.44141.25391m12.08594 1.15625l-6.34766 3.01563m6.34766-3.01563l1.97265 1.46094m11.03125-1.99219l-5.72265 4.07422m5.72265-4.07422l2.19532 1.09766m10.0703-2.07032l-3.62108 6.01954m3.62109-6.01954l2.44922.12891m-2.97656.7461l1.22656.0664m11.05078-1.4375l-.49219 7.01172m.49219-7.01172l2.24219-.9961m13.625 2.37891l-5.59766 4.2461m5.59766-4.2461l2.22656 1.03125m-3.03906-.41406l1.11328.51563m13.22265-.82422l-6.01562 3.6289m6.01562-3.6289l2.10547 1.2578m-2.98047-.73046l2.10547 1.26172m11.35938-2.64844l-4.5625 5.34766m4.5625-5.34766l2.39453.53125m-3.0586.2461l2.39454.53125m-3.0586.25l1.19922.26171m14.03125-1.17578l-5.73828 4.0586m5.73828-4.0586l2.1914 1.10547m-3.02734-.51562l2.19141 1.10546m12.1875-1.32421l-6.19531 3.3164m6.19531-3.3164l2.03906 1.36718m-2.9414-.8828l1.01953.68358m13.46875-.5078l-6.73828 1.99609"/><g clip-path="url(#af)"><path fill="none" stroke="#000" stroke-linecap="round" stroke-linejoin="round" stroke-miterlimit="10" stroke-width=".5" d="M466.92969 426.07031l1.71875 1.7539"/></g><g clip-path="url(#ag)"><path fill="none" stroke="#000" stroke-linecap="round" stroke-linejoin="round" stroke-miterlimit="10" stroke-width=".5" d="M147.39063 414.67969l-6.78125-1.85547"/></g><path fill="none" stroke="#000" stroke-linecap="round" stroke-linejoin="round" stroke-miterlimit="10" stroke-width=".5" d="M147.39063 414.67969l.53906 2.39453m12.66406-2.0586l-6.5586-2.52343m6.5586 2.52344l.30078 2.43359m12.78125-1.94531l-6.09375-3.5m6.09375 3.5l-.07812 2.45312m13.4453-2.54297l-6.1953-3.32031m6.1953 3.32031l-.01171 2.45313m13.6875-4.72266l-6.91797 1.21875m6.91797-1.21875l1.51172 1.9336m9.73828-4.55079l-2.78516 6.45313m2.37891-5.51563l1.22266-.09765m8.52343 4.76953l5.16407-4.76563m-4.41407 4.07422l-1.15625-.40625m15.38282 2.10547l1.83984-6.78125m-1.83984 6.78125l-2.39063.54297m17.22266-.47266l-1.1914-6.92578m1.01562 5.91797l-.96875.7539m17.26953-2.35156l-6.8125-1.71484m6.8125 1.71484l.58984 2.38282m12.55078-4.6211l-6.46093 2.76563m6.46093-2.76563l1.91016 1.53907m10.4414-2.83985l-4.53906 5.36719m3.8789-4.58594l1.19923.25781m13.13281-.6914l-5.25 4.67187m5.25-4.67187l2.30078.85156m10.33594-1.4414l-3.89453 5.84765m3.89453-5.84766l2.44531.2461m-3.01172.60547l1.22266.1211m12.0625-1.29298l-2.69922 6.48828m2.69922-6.48828l2.4414-.23047m11.76563.77344l-4.48437 5.40625m3.83203-4.6211l1.20312.2461m13.96485.96875l-6.88672 1.40625m6.88672-1.40625l1.5625 1.89453m11.51953-2.6211l-6.42188 2.85938m6.42188-2.85937l1.93359 1.51172m-2.86719-1.09375l1.9336 1.50781m11.66406-2.90234l-5.1211 4.8125m5.1211-4.8125l2.32422.78906m-3.0664-.08985l2.3203.78907m12.21094-.85157l-6.0664 3.53907m6.0664-3.53907l2.08985 1.28907m-2.97266-.77344l2.08984 1.28906m11.71875-2.35156l-5.28515 4.63281m5.28515-4.63281l2.29297.8711m-3.0625-.19532l2.29297.86719m11.32031-1.98828l-4.34375 5.52343m4.34375-5.52343l2.41407.42968m-3.04688.3711l1.20703.21875m13.29688-.47266l-5.45703 4.42578m5.45703-4.42578l2.2578.95703m-3.05077-.3125l1.1289.48047m13.1797-.85156l-5.85938 3.8789m5.85937-3.8789l2.15625 1.17187m-3.00781-.60546l1.07812.58593m13.4375-.47265l-6.55859 2.52343"/><g clip-path="url(#ah)"><path fill="none" stroke="#000" stroke-linecap="round" stroke-linejoin="round" stroke-miterlimit="10" stroke-width=".5" d="M466.83984 412.49219l1.85547 1.60547"/></g><g clip-path="url(#ai)"><path fill="none" stroke="#000" stroke-linecap="round" stroke-linejoin="round" stroke-miterlimit="10" stroke-width=".5" d="M147.03125 402.21875l-6.0625-3.5586"/></g><path fill="none" stroke="#000" stroke-linecap="round" stroke-linejoin="round" stroke-miterlimit="10" stroke-width=".5" d="M146.14844 401.69922l-.05078 1.22656m14.17578-.58984l-5.91406-3.79688m5.05078 3.2461l-.09766 1.22265m13.89063-.17578l-5.14454-4.78906m4.39453 4.09375l-.3164 1.1836m14.39062-.5l-5.16406-4.76563m4.41406 4.07422l-.3125 1.1875m13.81641-.00391l-4.04297-5.75m3.45313 4.91406l-.5547 1.09375m15.76563-2L207.25 399.3086m5.6836 1.9297l.1953 1.21093m14.04298-.75l-6.5625-2.51953m5.60546 2.15234l.14844 1.21875m13.625.03125l-5.5664-4.28906m5.5664 4.28906l-.41016 2.42188m10.6797-1.0625l.52734-7.00782m-.44922 5.98829l-1.125.49218m16.11719.20313l-2.98438-6.35938m2.98438 6.35938l-1.47266 1.96484m16.79297-5.45703l-6.9961.6289m6.9961-.6289l1.34375 2.05469m11.96093-2.17578l-6.97265.87109m6.97265-.8711l1.41016 2.00391m11.89063-2.10547l-6.94532 1.07032m6.94532-1.07032l1.46875 1.96485m-2.48047-1.8086l.73437.98438m13.49219-1.58594l-6.7461 1.96485m6.7461-1.96485l1.71094 1.75781m-2.6914-1.47265l.85546.8789m13.23438-1.70312l-6.33594 3.03906m6.33594-3.03906l1.97656 1.45703m-2.89844-1.01563l1.97656 1.45704m12.60547-.37891h-7.02734m7.02734 0l1.15235 2.16797m-2.17188-2.16797l1.14844 2.16797m12.74219-.45313l-6.13672-3.42578m6.13671 3.42578l-.05078 2.45313m-.84375-2.95313l-.02343 1.22657m14.5039-3.53125l-6.67969 2.18359m6.6797-2.1836l1.76952 1.69923m-2.74218-1.38282l.88671.85156m12.64844-2.45312l-5.17578 4.7539m5.17578-4.7539l2.3164.8164m-3.0664-.125l2.3125.81641m12.44922-.3789l-6.5664 2.49609m6.5664-2.4961l1.84766 1.61329m-2.80078-1.25l.92187.80469m13.25-1.39844l-6.375 2.95312m6.375-2.95312l1.95703 1.48047m-2.88281-1.05079l.97656.7422m12.96875-1.69141l-5.78125 3.99609m5.78125-3.9961l2.17969 1.12891m-3.02344-.54687l1.08985.5625m13.46093-.40235l-6.5664 2.51172m6.5664-2.51172l1.84766 1.61329m-2.80469-1.25l.92578.80859m13.375-1.08594l-6.625 2.33594m6.625-2.33594l1.8086 1.66016m-2.76953-1.32031l.90234.83203m13.38281-1.14844l-6.64062 2.29297"/><g clip-path="url(#aj)"><path fill="none" stroke="#000" stroke-linecap="round" stroke-linejoin="round" stroke-miterlimit="10" stroke-width=".5" d="M466.88281 399.29297l1.79688 1.66797"/></g><path fill="none" stroke="#000" stroke-linecap="round" stroke-linejoin="round" stroke-miterlimit="10" stroke-width=".5" d="M465.91797 399.625l.89453.83594"/><g clip-path="url(#ak)"><path fill="none" stroke="#000" stroke-linecap="round" stroke-linejoin="round" stroke-miterlimit="10" stroke-width=".5" d="M146.57813 389.50781l-5.15625-4.76953"/></g><path fill="none" stroke="#000" stroke-linecap="round" stroke-linejoin="round" stroke-miterlimit="10" stroke-width=".5" d="M145.82813 388.8164l-.3125 1.1836m14.625-.78906l-5.64844-4.17578m4.82422 3.5703l-.1797 1.21095m14.78907-1.47657l-6.59375-2.42968m5.63672 2.07421l.16406 1.21485m13.9961-.59375l-6.3672-2.96485m13.8125 3.7461l5.375-4.52735m-4.59374 3.8672l-1.14063-.45704m18.09766 1.90625l-3.47656-6.10547m3.47656 6.10547L211 392.25m16.07422-3.64453l-6.36719-2.96485m6.36719 2.96485l.13281 2.44922m13.48047-4.40625l-6.96484.94922m6.96484-.94922l1.4336 1.99219m11.82812-.75391l-6.85938-1.52735m6.85938 1.52735l.65625 2.36328m-1.65234-2.58594l.32812 1.1836m13.70703-.17188l-6.30469-3.10547m6.3047 3.10547l.07812 2.45313m-.9961-2.90625l.07813 2.45312m-.9961-2.90234l.03907 1.22265m15.35547-.96875l-6.79297-1.80859m6.79297 1.8086l.55468 2.39062m-1.54297-2.65235l.27735 1.19532m14.13281-1.54688l-7.0039-.58203m7.0039.58203l.96875 2.2539m-1.98828-2.33983l.96875 2.2539m13.375-2.32812l-7.02344-.26172m7.02344.26172l1.07031 2.20703m12.22656-2.70703l-6.98828.73828m6.98828-.73828l1.375 2.03125m11.83985-2.57032l-6.78906 1.81641m6.78906-1.8164l1.67187 1.79296m-2.66015-1.52734l.83593.89453m13.57813-.01953l-7.01172-.46485m7.01172.46485l1.00781 2.23828m12.29688-2.10156l-6.98828-.73828m6.98828.73828l.91797 2.27734m-1.9336-2.38281l.45703 1.13672m13.65625-2.66797l-6.55468 2.53515m6.55468-2.53515l1.85547 1.60547m-2.8086-1.23828l1.85548 1.60546m12.33203-2.16796l-6.39063 2.92578m6.39063-2.92578l1.94922 1.49218m-2.87891-1.0664l1.94922 1.49219m12.51172-1.29297l-6.82422 1.67578m6.82422-1.67578l1.63672 1.83203m-2.62891-1.58594l.8164.91406m13.14063-2.04297l-6.125 3.44532m6.125-3.44532l2.0664 1.32032m-2.95702-.82032l2.0664 1.32422m12.38672-1.28515l-6.61719 2.36328m6.6172-2.36328l1.8125 1.65234m-2.77735-1.3086l1.8164 1.65235m12.58594-1.5664L433.5 387.875m6.86328-1.5039l1.58985 1.87109m-2.58985-1.65235l.79688.9375m13.51953-1.15234l-6.86719 1.4961m6.86719-1.4961l1.58594 1.875m-2.58594-1.65625l.79297.9375m13.57422-.85156l-6.97266.88672"/><g clip-path="url(#al)"><path fill="none" stroke="#000" stroke-linecap="round" stroke-linejoin="round" stroke-miterlimit="10" stroke-width=".5" d="M467.04688 386.67969l1.41406 2.0039"/></g><path fill="none" stroke="#000" stroke-linecap="round" stroke-linejoin="round" stroke-miterlimit="10" stroke-width=".5" d="M466.03125 386.8086l.71094 1.0039"/><g clip-path="url(#am)"><path fill="none" stroke="#000" stroke-linecap="round" stroke-linejoin="round" stroke-miterlimit="10" stroke-width=".5" d="M145.3711 377.04297l-2.7422-6.46875"/></g><g clip-path="url(#an)"><path fill="none" stroke="#000" stroke-linecap="round" stroke-linejoin="round" stroke-miterlimit="10" stroke-width=".5" d="M144.97266 376.10156l-.77344.95313"/></g><path fill="none" stroke="#000" stroke-linecap="round" stroke-linejoin="round" stroke-miterlimit="10" stroke-width=".5" d="M159.21484 376.76172l-3.80078-5.90625m3.25 5.04687l-.60156 1.07032m15.60156-1.39454l-6.07031-3.53906m19.86328 1.8086l-7.02344-.08204m17.58203-3.39062l-1.5078 6.86328m1.28515-5.86328l1.1836-.33203m12.60937 6.1289l-2.02344-6.72656m2.02344 6.72656l-1.74219 1.72657m1.44922-2.70313l-.8711.86328m16.625-1.71093l-6.3164-3.07813m6.3164 3.07813l.08594 2.45312m13.40235-2.875l-6.66016-2.23437m6.66016 2.23437l.40625 2.41797m-1.375-2.74219l.20312 1.20703m13.90234-.4453l-6.30078-3.10938m6.30078 3.10937l.07422 2.45313m-.99218-2.90625l.07422 2.45312m14.15625-2l-6.30079-3.10937m6.30078 3.10937l.07422 2.45313m-.98828-2.90625l.07422 2.45312m14.29688-2.32031l-6.57813-2.46875m6.57813 2.46875l.3164 2.4336m-1.27344-2.79298l.15625 1.21875m14.3047-1.62109l-6.96095-.94531m6.96094.94531l.85156 2.30078m-1.86328-2.4375l.42578 1.15235m13.9336-1.57422l-7.02344.17187m7.02344-.17187l1.20703 2.13671m-2.23047-2.11328l1.20703 2.13672m13.1289-2.22656l-7.01952.30469m7.01953-.30469l1.2461 2.11719m-2.26563-2.07422l.6211 1.0586m13.6875-1.39844l-6.96876.89843m6.96875-.89844l1.41797 2.00391m-2.42969-1.8711l.70703 1m13.64844-.70312l-7.02734.03906m7.02734-.03906l1.16406 2.16016m-2.18359-2.15625l1.16406 2.16015m13.17188-2.10937l-7.02735-.07031m7.02735.07031l1.1289 2.17969m-2.15234-2.1914l1.1289 2.17968m13.20704-2.30078l-7.02344.19531m7.02344-.19531l1.21093 2.13281m-2.23046-2.10547l1.21093 2.13672m13.07422-2.66016l-6.92578 1.1875m6.92578-1.1875l1.5039 1.9375m-2.51171-1.76562l1.5039 1.9414m12.71094-2.5664l-6.70703 2.09375m6.70703-2.09375l1.7461 1.72656m-2.72266-1.42187l.875.86328m13.3125-1.46094l-6.4961 2.67969m6.4961-2.67969l1.89063 1.5664m11.19921-2.01562l-6.04687 3.57813m6.04687-3.57813l2.09375 1.27735m10.8086-1.83985l-5.22266 4.70313m5.22266-4.70313l2.30469.83594m11.39843-.3125l-6 3.65625m6-3.65625l2.11328 1.25m11.53516-.53906l-6.66406 2.23437m5.6914-1.91015l.89063.84375"/><g clip-path="url(#ao)"><path fill="none" stroke="#000" stroke-linecap="round" stroke-linejoin="round" stroke-miterlimit="10" stroke-width=".5" d="M145.19531 363.79688l-2.39062-6.60938"/></g><g clip-path="url(#ap)"><path fill="none" stroke="#000" stroke-linecap="round" stroke-linejoin="round" stroke-miterlimit="10" stroke-width=".5" d="M144.84766 362.83594l-.82422.91015"/></g><path fill="none" stroke="#000" stroke-linecap="round" stroke-linejoin="round" stroke-miterlimit="10" stroke-width=".5" d="M159.91016 362.86328l-5.1875-4.74219m4.42968 4.0547l-.30468 1.1875m15.0039-1.47267l-6.44531-2.79687m6.44531 2.79688l.19531 2.44921m11.16016-.5664l-2.52344-6.5586m2.15625 5.60547l-.80468.92578m16.14843-1.30468l-5.84765-3.89844m5.84765 3.89844l-.24218 2.4414m12.97265-1.76953l-4.67969-5.24219m4.6797 5.2422l-.84766 2.30468m13.98437-2.15625l-4.32031-5.53906m4.32031 5.53906l-.9961 2.24219m.3672-3.04688l-.5 1.1211m15.36718-1.40235l-6.16797-3.36328m6.16797 3.36328l-.02344 2.45313m-.875-2.94141l-.01171 1.22656m14.39062-1.08203l-6.4961-2.67578m6.4961 2.67578l.23828 2.4414m-1.1836-2.83202l.23829 2.4414m13.96875-1.92578l-6.39063-2.92578m6.39063 2.92578l.14453 2.44922m-1.07422-2.875l.14453 2.44922m14.26563-2.46485l-6.72266-2.04296m6.72266 2.04296l.47266 2.40625m-1.44922-2.70312l.47265 2.40625m13.91016-2.48047l-6.90625-1.30078m6.90625 1.30078l.73047 2.33985m-1.73438-2.53125l.73047 2.34375m-1.73437-2.53125l.36328 1.17187m15-1.07422l-6.98828-.74219m6.98828.7422l.91797 2.27733m-1.9336-2.3828l.91797 2.27343m-1.9336-2.38281l.45704 1.13672m14.8789-1.75391l-6.96484.92578m6.96485-.92578l1.42968 1.9961m-2.4414-1.86329l1.42578 1.9961m12.90234-2.125l-6.96875.91406m6.96875-.91406l1.42578 2m-2.4375-1.8672l1.42188 2m12.9336-1.54296l-7.02345-.26172m7.02344.26172l1.07031 2.20703m-2.09375-2.2461l1.07032 2.20704m13.26172-2.08985l-7.01172-.41796m7.01172.41796l1.02343 2.23047m-2.04297-2.29296l1.01954 2.23046m-2.03907-2.28906l.51172 1.11328m14.84766-1.29297l-7.02344.1836m7.02344-.1836l1.21094 2.13672m-2.23047-2.10937l1.20703 2.13281m-2.23047-2.10938l.60547 1.07032m14.71094-1.59375l-6.9375 1.125m6.9375-1.125l1.48437 1.95703m-2.4961-1.79297l1.48438 1.95313m-2.49219-1.78907l.7422.97656m14.53515-1.58203l-6.82422 1.6797m6.82422-1.6797l1.63672 1.82813m-2.62891-1.58203l1.63672 1.82812m12.64844-2.15625l-6.78125 1.84766m6.78125-1.84766l1.67968 1.78516m-2.66796-1.51953l1.68359 1.78906m12.48047-2.46484l-6.5 2.66796m6.5-2.66796l1.88672 1.5664m-2.83203-1.17969l1.88671 1.56641m12.28125-2.15625l-6.3164 3.07031m6.3164-3.0703l1.98438 1.4453m-2.90234-1l.99218.72266m13.28907-1.0664l-6.41407 2.87109m6.41407-2.8711l1.9375 1.50391m-2.8711-1.08594l.96875.75m13.28906-1.15234l-6.42968 2.83594"/><g clip-path="url(#aq)"><path fill="none" stroke="#000" stroke-linecap="round" stroke-linejoin="round" stroke-miterlimit="10" stroke-width=".5" d="M466.77734 359.07422l1.92579 1.51953"/></g><path fill="none" stroke="#000" stroke-linecap="round" stroke-linejoin="round" stroke-miterlimit="10" stroke-width=".5" d="M465.83984 359.48828l.96485.75781"/><g clip-path="url(#ar)"><path fill="none" stroke="#000" stroke-linecap="round" stroke-linejoin="round" stroke-miterlimit="10" stroke-width=".5" d="M146.10938 349.98828l-4.21875-5.61719"/></g><path fill="none" stroke="#000" stroke-linecap="round" stroke-linejoin="round" stroke-miterlimit="10" stroke-width=".5" d="M145.4961 349.16797l-.51954 1.11328m15.11719-.94922l-5.55469-4.30469m5.55469 4.3047l-.41797 2.41796m13.1211-1.8086l-4.33594-5.52734m4.33594 5.52735l-.9922 2.24609m.36329-3.05078l-.4961 1.125m14.35547-.2539l-4.16406-5.66016m4.16406 5.66015l-1.0664 2.21094m14.86328-2.63672l-5.125-4.8086m5.125 4.8086l-.64453 2.36719m14.22265-2.6836l-5.65625-4.17187m5.65625 4.17188l-.35937 2.42578m-.46484-3.03516l-.35547 2.42969m14.17578-1.44531l-5.01563-4.92579m5.01563 4.92579l-.69531 2.35156m-.03516-3.07031l-.69531 2.35546m-.03516-3.0703l-.34766 1.17577m15.46094-.14453l-5.6914-4.1211m5.6914 4.1211l-.33984 2.4336m-.48828-3.03125l-.33985 2.42968m14.66797-2.11328l-6.0586-3.5586m6.0586 3.5586l-.10547 2.45313m-.77734-2.96875l-.10547 2.44921m14.58594-2.54296l-6.625-2.33985m6.625 2.33985l.36719 2.42578m-1.33204-2.76563l.3672 2.42578m13.86327-1.95312l-6.52734-2.60547m6.52734 2.60547l.26563 2.4375m-1.21485-2.8164l.26563 2.4375m14.125-2.4336l-6.77735-1.85547m6.77735 1.85547l.53906 2.39453m-1.52734-2.66406l.53906 2.39453m13.79297-2.2461l-6.83985-1.61328m6.83985 1.61329l.625 2.37109m-1.61719-2.60547l.6211 2.3711m13.78124-2.94141h-7.02734m7.02734 0l1.15235 2.16406m-2.17578-2.16406l1.15234 2.16406m13.07422-3.05078l-6.80078 1.76953m6.80078-1.76953l1.66016 1.80469m-2.65235-1.54688l1.66016 1.80469m12.58203-2.28125l-6.67188 2.20703m6.67188-2.20703l1.77344 1.69531m-2.7461-1.375l.88672.84766m13.55469-.46094l-6.98047.79297m6.98047-.79297l1.39062 2.02344m-2.40625-1.90625l.69532 1.01172m13.65234-.96094l-7.01172.45703m7.01172-.45703l1.28906 2.08594m-2.30859-2.01954l1.28906 2.08594m12.92578-2.85937l-6.77343 1.8711m6.77343-1.8711l1.6875 1.78125m-2.67187-1.50781l1.6836 1.78125m12.48046-2.44922l-6.5039 2.66015m6.5039-2.66015l1.88672 1.5703m-2.83203-1.18358l1.88672 1.5703m12.35547-2l-6.46875 2.75m6.46875-2.75l1.90625 1.54298m-2.84766-1.14454L414.5 347.7461m-2.84766-1.14453l.95313.77344m14.08984-1.89063l-6.15625 3.39063m6.15625-3.39063l2.05469 1.33985m-2.95313-.84766l2.0547 1.33985m-2.94923-.84766l1.02735.67188m14.0664-1.6836l-6.1289 3.4414m6.1289-3.4414l2.0625 1.32813m-2.95312-.82813l2.0625 1.32813m12.23437-1.65235l-6.3125 3.08985m6.3125-3.08985l1.98828 1.4375m-2.90625-.98828l.9922.71875m13.39452-.80469l-6.61718 2.36329"/><g clip-path="url(#as)"><path fill="none" stroke="#000" stroke-linecap="round" stroke-linejoin="round" stroke-miterlimit="10" stroke-width=".5" d="M466.8711 345.9961l1.8125 1.65234"/></g><path fill="none" stroke="#000" stroke-linecap="round" stroke-linejoin="round" stroke-miterlimit="10" stroke-width=".5" d="M465.90625 346.33984l.90625.82422"/><g clip-path="url(#at)"><path fill="none" stroke="#000" stroke-linecap="round" stroke-linejoin="round" stroke-miterlimit="10" stroke-width=".5" d="M144.13672 337.375l-.27344-7.02344"/></g><g clip-path="url(#au)"><path fill="none" stroke="#000" stroke-linecap="round" stroke-linejoin="round" stroke-miterlimit="10" stroke-width=".5" d="M144.13672 337.375l-2.1211 1.23438"/></g><path fill="none" stroke="#000" stroke-linecap="round" stroke-linejoin="round" stroke-miterlimit="10" stroke-width=".5" d="M160.41016 335.52734l-6.19141-3.32812m6.1914 3.32812l-.01171 2.45313m-.89063-2.9375l-.0039 1.22656m14.05078-.45703l-5.84766-3.89844m5.84766 3.89844l-.2461 2.4414m-.60547-3.0078l-.24218 2.4414m14.23047-1.63281l-5.4922-4.38281m5.4922 4.3828l-.45313 2.41407m-.34766-3.05078l-.22265 1.20703m13.6289.10156L195.22267 331m4.07422 5.72656l-1.09375 2.19531m15.36718-3.21875l-5.98828-3.67968m5.98828 3.67969l-.15625 2.44921m-.71484-2.98437l-.15625 2.44922m14.34766-1.92969l-6.00391-3.64844m6.0039 3.64844l-.14062 2.44922m-.73047-2.98047l-.14062 2.44922m-.73438-2.98047l-.07031 1.22656m14.84375.24219l-5.42578-4.46094m5.42578 4.46094l-.48438 2.40625m-.30468-3.05469l-.48828 2.40625m-.30079-3.05469L238.09766 336m15.22265-.01563l-5.60156-4.24218m5.60156 4.24219l-.39062 2.42187m-.42578-3.03906l-.39063 2.42187m-.42187-3.03906l-.19532 1.21094m15.0547.13281l-5.4297-4.46094m5.4297 4.46094L266.0664 338.5m-.3047-3.05469l-.48437 2.40235m-.30859-3.05079l-.24219 1.19922m15.44531-.33593l-6.04296-3.59375m6.04297 3.59375l-.1172 2.44921m-.76171-2.97265l-.11719 2.44922m14.39844-2.08985l-6.21875-3.26953m6.21875 3.26953l.01172 2.45704m-.91407-2.9297l.01172 2.45313m14.44532-2.54297l-6.69532-2.14062m6.69532 2.14062l.4375 2.41407m-1.41407-2.72657l.21875 1.20704m14.14453-1.15625l-6.83984-1.6172m6.83984 1.6172l.625 2.37109m-1.62109-2.60938l.3125 1.1875m14.0586-2.2539l-6.95704.99219m6.95703-.9922l1.44532 1.98048m-2.45703-1.83594l.72265.98828m13.53906-1.45703l-6.83203 1.64062m6.83203-1.64062l1.62891 1.83984m11.64063-2.01172l-6.73829 1.98438m6.73829-1.98438l1.71875 1.75391m11.6914-1.35156l-6.92578 1.17969m6.92578-1.1797l1.5 1.94141m-2.50781-1.76953l.75.96875m13.33203-1.95312l-6.44531 2.80469m6.44531-2.8047l1.91797 1.52735m-2.85547-1.11719l.95703.76172m13.00781-1.69922l-5.87109 3.85938m5.8711-3.85938l2.15234 1.1797m11.38672-.78517l-6.32032 3.07032m6.32032-3.07031l1.98437 1.4453m-2.90234-1l.99219.72266m13.32812-.97265l-6.4961 2.67969m6.4961-2.6797l1.89063 1.56641m-2.83594-1.17578l1.89062 1.5625m12.35547-1.98828l-6.46484 2.75m6.46484-2.75l1.91016 1.54297m-2.85156-1.14063l1.91015 1.54297m12.51172-1.46484l-6.79687 1.78906m6.79687-1.78906l1.66406 1.80078m-2.65234-1.53906l1.66406 1.80078m12.47656-2.53906l-6.46875 2.74219"/><g clip-path="url(#av)"><path fill="none" stroke="#000" stroke-linecap="round" stroke-linejoin="round" stroke-miterlimit="10" stroke-width=".5" d="M466.79688 332.49219l1.90625 1.54687"/></g><g clip-path="url(#aw)"><path fill="none" stroke="#000" stroke-linecap="round" stroke-linejoin="round" stroke-miterlimit="10" stroke-width=".5" d="M465.85547 332.89063l1.90625 1.54687"/></g><g clip-path="url(#ax)"><path fill="none" stroke="#000" stroke-linecap="round" stroke-linejoin="round" stroke-miterlimit="10" stroke-width=".5" d="M142.57031 323.75781l2.85938-6.42187"/></g><path fill="none" stroke="#000" stroke-linecap="round" stroke-linejoin="round" stroke-miterlimit="10" stroke-width=".5" d="M159.33203 323.42578l-4.03125-5.7539m4.03125 5.7539l-1.11328 2.1875m15.48438-3.35937l-6.14454-3.41016m6.14453 3.41016l-.04296 2.45312m-.85157-2.94922l-.02343 1.22656m14.28906-.83593l-6.25781-3.20313m6.2578 3.20313l.03517 2.45312m-.94532-2.91797l.03516 2.45313m13.70312-1.27344l-5.28515-4.6289m5.28515 4.6289l-.55859 2.38672m-.21094-3.0625l-.5586 2.39063M213.09376 323l-5.03516-4.90234M213.09375 323l-.6875 2.35547m-.04688-3.07031l-.6875 2.35546m15.16797-2.17968l-5.89843-3.82422m5.89843 3.82422l-.21484 2.44531m-.64453-3.0039l-.21094 2.4453m14.2539-1.69921l-5.6328-4.20313m5.6328 4.20313l-.375 2.42578m-.4453-3.03516l-.375 2.42188m-.44532-3.03516l-.1875 1.21485m15.20313-.07813l-5.75781-4.02734m5.7578 4.02734l-.29687 2.4336m-.53906-3.01954l-.29688 2.4336m-.54296-3.01954l-.14844 1.21875m15.28516-.27343l-6.04688-3.57422m6.04688 3.57422l-.10938 2.44922m-.76953-2.96875l-.10938 2.44921m14.45313-2.21093l-6.34766-3.01563m6.34766 3.01563l.10937 2.45312m-1.03125-2.89062l.10938 2.44922m14.17187-2.10938l-6.4375-2.82031m6.4375 2.82031l.1875 2.44922m-1.125-2.85938l.09375 1.22266m14.35938-1.41406l-6.83594-1.61719m6.83594 1.61719l.625 2.375m-1.61719-2.60938l.3086 1.1875m14.03515-1.11718l-6.91016-1.28516m6.91016 1.28516l.73828 2.33984m-1.74219-2.52734l.3672 1.16796m13.96093-2.21484l-6.92578 1.17969m6.92578-1.17969l1.5 1.9414m11.39844-3.10156l-6.09375 3.50391m6.09375-3.5039l2.07812 1.30468m10.97266-1.69922l-5.5625 4.29297m4.75-3.66797l1.1211.50391m13.59765.04297l-6.75 1.94922m5.76953-1.66797l.85156.88281m13.54688-.69531l-6.95313 1.01172m6.95313-1.01172l1.45312 1.97656m10.92969-3.89062l-5.08984 4.83984m4.35156-4.13672l1.16406.38672m12.65625-1.3164l-4.6211 5.29296m4.6211-5.29297l2.38672.5547m11.65234.3203l-6.0703 3.53907m6.0703-3.53907l2.08594 1.29297m11.6875.85547l-6.98828-.75781m5.96875.64844l.45703 1.14062m13.71484-2.52734l-6.66406 2.23437m6.66406-2.23437l1.78125 1.6875m-2.75-1.35938l1.78125 1.6875m12.27735-2.53515l-6.21485 3.27734"/><g clip-path="url(#ay)"><path fill="none" stroke="#000" stroke-linecap="round" stroke-linejoin="round" stroke-miterlimit="10" stroke-width=".5" d="M466.66797 318.91016l2.03125 1.3789"/></g><g clip-path="url(#az)"><path fill="none" stroke="#000" stroke-linecap="round" stroke-linejoin="round" stroke-miterlimit="10" stroke-width=".5" d="M465.76563 319.38672l2.02734 1.3789"/></g><path fill="#ff3030" fill-rule="evenodd" d="M317.91797 441.01953h7.69531V430.8711h-7.69531v10.14844"/><path fill="azure" fill-rule="evenodd" d="M319.7539 432.70703h.83204v5.73828h3.1914v.73828h-4.02343v-6.47656"/><path fill="#00f" fill-rule="evenodd" d="M383.80078 432.14063h8.61719v-10.14454h-8.61719v10.14454"/><path fill="azure" fill-rule="evenodd" d="M385.63281 423.82813h.83203v2.82421h3.28907v-2.82421h.83203v6.48046h-.83203v-2.91796h-3.28907v2.91796h-.83203v-6.48046"/><path fill="#00f" fill-rule="evenodd" d="M228.45703 423.26563h8.6211v-10.14844h-8.6211v10.14844"/><path fill="azure" fill-rule="evenodd" d="M230.28906 414.95313h.83594v2.8203h3.28516v-2.8203h.83203v6.48046h-.83203v-2.91796H231.125v2.91796h-.83594v-6.48046"/><path fill="#ff3030" fill-rule="evenodd" d="M446.63281 409.94922h7.6914v-10.14453h-7.6914v10.14453"/><path fill="azure" fill-rule="evenodd" d="M448.46484 401.63672h.83204v5.73828h3.1953v.74219h-4.02734v-6.48047"/><path fill="#ff3030" fill-rule="evenodd" d="M295.72656 396.63281h7.69531v-10.14453h-7.6953v10.14453"/><path fill="azure" fill-rule="evenodd" d="M297.5586 388.32031h.83593v5.74219h3.1914v.73828h-4.02734v-6.48047"/><path fill="#ff3030" fill-rule="evenodd" d="M202.52344 361.1289h7.6914v-10.14843h-7.6914v10.14844"/><path fill="azure" fill-rule="evenodd" d="M204.35547 352.8164h.83203v5.73829h3.19531v.73828h-4.02734v-6.47656"/><path fill="#ffffe0" fill-rule="evenodd" d="M355.65234 396.86719h22.1797v-10.1914h-22.1797v10.1914"/><path fill-rule="evenodd" d="M359.14844 388.50781h.51172v6.29297h-.78907v-4.48828h-1.38671v-.55469l.55859-.0664.2539-.0547.22657-.08983.20312-.14063.17578-.21094.14063-.29297.10547-.39453m4.8164 0l.22657.01953.21875.0547.21093.08983.19532.1211.18359.14844.17188.17578.30078.41797.24609.49609.17969.54688.10937.57812.03906.58984-.03906.59375-.10937.58594-.17969.55078-.2461.5039-.30077.4297-.17188.17578-.1836.15625-.1953.1211-.21094.09374-.21875.05469-.22657.01953-.23046-.01953-.21875-.05469-.20704-.09375-.19921-.1211-.1836-.15624-.17187-.17578-.30079-.4297-.24218-.5039-.17969-.55078-.11328-.58594-.03906-.59375h.83593l.02735.5625.08203.50782.125.4414.16406.375.1914.30078.21094.22266.22266.13672.22656.04687.22657-.04687.22265-.13672.21094-.22266.1875-.30078.16406-.375.125-.4414.08203-.50782.03125-.5625-.03125-.55859-.08203-.5039-.125-.4336-.16406-.36719-.1875-.29297-.21094-.21093-.22265-.13282-.22657-.04687-.22656.04687-.22265.13282-.21094.21093-.1914.29297-.16407.36719-.125.4336-.08203.5039-.02735.5586h-.83593l.03906-.58985.11328-.57813.17969-.54687.24219-.4961.30078-.41796.17187-.17578.1836-.14844.19921-.1211.20704-.08984.21875-.05469.23046-.01953m5.08985 0h.50781v6.29297h-.78516v-4.48828h-1.38671v-.55469l.55859-.0664.25-.0547.23047-.08983.20312-.14063.17578-.21094.14063-.29297.10547-.39453m2.82422 2.17578h.78515l.01953-.3164.0625-.28906.09766-.25.14063-.21485.17968-.17578.22266-.1289.26562-.07813.3086-.03125.23828.02344.22265.0625.20313.10156.17969.13672.14844.17578.11328.20312.07421.23829.02344.26562-.01953.26563-.0664.22656-.10938.1914-.15625.17188-.20313.16015-.24609.16797-.63281.38672-.53906.3164-.4375.31642-.34375.32421-.26563.33594-.1914.35156-.125.3672-.06641.39452-.02344.41797h4.21485v-.73828h-3.33594l.08594-.28516.11328-.23828.14843-.19922.1875-.17968.23047-.17188.27735-.17578.71875-.41797.41406-.20312.34765-.23438.27735-.25.22265-.26562.16016-.27735.11328-.28515.0625-.28516.01953-.28125-.03906-.38281-.1211-.34766-.1914-.3086-.25-.26171-.30078-.21485-.34375-.15625-.38281-.10156-.40625-.03125-.4336.03125-.39843.09766-.35547.16797-.30469.23437-.25.30469-.1836.375-.11718.44531-.03906.51953"/><path fill="#ffffe0" fill-rule="evenodd" d="M239.66016 340.51563h22.18359v-10.19141h-22.1836v10.1914"/><path fill-rule="evenodd" d="M243.16016 332.15625h.51172v6.29688h-.78907v-4.4922h-1.38672v-.55468l.5586-.0625.2539-.05469.22657-.08984.20312-.14063.17578-.21093.14063-.29297.10547-.39844m4.8164 0l.22656.01953.21875.05469.21094.08984.19531.1211.1836.15234.17187.17578.30078.41797.2422.49219.17968.54687.11328.57813.03906.59375-.03906.59375-.11328.58203-.17969.55469-.24219.5039-.30078.42578-.17187.1797-.1836.15233-.1953.125-.21095.08985-.21875.0586-.22656.01952-.23047-.01953-.21875-.0586-.20703-.08983-.19922-.125-.18359-.15235-.17188-.17969-.30078-.42578-.24218-.5039-.1797-.5547-.11327-.58202-.03906-.59375h.83593l.02735.5625.08203.5039.125.44532.16406.375.1914.30078.21094.21875.22266.13672.22656.04687.22656-.04687.22266-.13672.20703-.21875.1914-.30078.16407-.375.125-.44532.08203-.5039.02735-.5625-.02735-.5625-.08203-.5-.125-.4336-.16406-.36718-.1914-.29297-.20704-.21485-.22266-.1289-.22656-.04688-.22656.04688-.22266.1289-.21093.21485-.19141.29297-.16406.36718-.125.4336-.08203.5-.02735.5625h-.83594l.03907-.59375.11328-.57813.17969-.54687.24218-.49219.30078-.41797.17188-.17578.1836-.15234.19921-.1211.20703-.08984.21875-.05469.23047-.01953m5.08985 0h.5078v6.29688h-.78515v-4.4922h-1.39062v-.55468l.5625-.0625.25-.05469.23047-.08984.20312-.14063.17578-.21093.14063-.29297.10547-.39844m2.82422 2.17578h.78515l.01953-.3164.0586-.28516.10156-.2539.14062-.21485.1797-.17188.22265-.1289.26562-.08203.3086-.02735.23828.02344.22265.0625.20313.10156.17969.13672.14843.17188.11329.20703.07421.23437.02344.26563-.02344.26953-.0625.22265-.11328.19532-.15234.16797-.20313.16406-.24609.16406-.63281.39063-.53906.3125-.4375.3164-.34766.32422-.26172.33594-.1914.35156-.125.3711-.06641.39062-.02344.42188h4.21094v-.7422h-3.33203l.08593-.28515.11329-.23437.14843-.20313.1875-.17969.23047-.17187.27735-.17578.71875-.41406.41406-.20704.34375-.23046.28125-.25.22265-.26954.16016-.27734.11328-.28516.0625-.28515.01953-.28125-.03906-.38281-.1211-.34766-.1914-.3086-.25-.26171-.30078-.21094-.34766-.16016-.3789-.09765-.40625-.03516-.4336.03516-.39844.09765-.35546.16797-.3047.23438-.25.30078-.18358.375-.1172.44531-.03905.51953"/></g></defs><use xlink:href="#aA"/></svg>