<svg xmlns="http://www.w3.org/2000/svg" role="img" xmlns:xlink="http://www.w3.org/1999/xlink" viewBox="142.45 309.95 326.84 171.84"><defs><clipPath id="a"><path d="M144 317h1v163.32813h-1zm0 0"/></clipPath><clipPath id="b"><path d="M144 311.67188h1V318h-1zm0 0"/></clipPath><clipPath id="c"><path d="M144 311.67188h324v168.65625H144zm0 0"/></clipPath><clipPath id="d"><path d="M144 311.67188h8V321h-8zm0 0"/></clipPath><clipPath id="e"><path d="M467 311.67188h1v168.65625h-1zm0 0"/></clipPath><clipPath id="f"><path d="M144 479h4v1.32813h-4zm0 0"/></clipPath><clipPath id="g"><path d="M147 480h2v.32813h-2zm0 0"/></clipPath><clipPath id="h"><path d="M146 480h2v.32813h-2zm0 0"/></clipPath><clipPath id="i"><path d="M153 480h9v.32813h-9zm0 0"/></clipPath><clipPath id="j"><path d="M160 480h3v.32813h-3zm0 0"/></clipPath><clipPath id="k"><path d="M166 480h9v.32813h-9zm0 0"/></clipPath><clipPath id="l"><path d="M173 480h3v.32813h-3zm0 0"/></clipPath><clipPath id="m"><path d="M180 479h8v1.32813h-8zm0 0"/></clipPath><clipPath id="n"><path d="M187 480h2v.32813h-2zm0 0"/></clipPath><clipPath id="o"><path d="M186 480h2v.32813h-2zm0 0"/></clipPath><clipPath id="p"><path d="M193 479h9v1.32813h-9zm0 0"/></clipPath><clipPath id="q"><path d="M200 480h3v.32813h-3zm0 0"/></clipPath><clipPath id="r"><path d="M199 480h2v.32813h-2zm0 0"/></clipPath><clipPath id="s"><path d="M206 479h9v1.32813h-9zm0 0"/></clipPath><clipPath id="t"><path d="M213 479h3v1.32813h-3zm0 0"/></clipPath><clipPath id="u"><path d="M212 479h2v1.32813h-2zm0 0"/></clipPath><clipPath id="v"><path d="M220 479h8v1.32813h-8zm0 0"/></clipPath><clipPath id="w"><path d="M227 479h2v1.32813h-2zm0 0"/></clipPath><clipPath id="x"><path d="M226 479h2v1.32813h-2zm0 0"/></clipPath><clipPath id="y"><path d="M233 479h8v1.32813h-8zm0 0"/></clipPath><clipPath id="z"><path d="M240 479h3v1.32813h-3zm0 0"/></clipPath><clipPath id="A"><path d="M239 479h2v1.32813h-2zm0 0"/></clipPath><clipPath id="B"><path d="M246 479h9v1.32813h-9zm0 0"/></clipPath><clipPath id="C"><path d="M253 479h3v1.32813h-3zm0 0"/></clipPath><clipPath id="D"><path d="M260 480h8v.32813h-8zm0 0"/></clipPath><clipPath id="E"><path d="M267 480h2v.32813h-2zm0 0"/></clipPath><clipPath id="F"><path d="M273 479h8v1.32813h-8zm0 0"/></clipPath><clipPath id="G"><path d="M280 479h3v1.32813h-3zm0 0"/></clipPath><clipPath id="H"><path d="M286 480h9v.32813h-9zm0 0"/></clipPath><clipPath id="I"><path d="M293 480h3v.32813h-3zm0 0"/></clipPath><clipPath id="J"><path d="M300 479h8v1.32813h-8zm0 0"/></clipPath><clipPath id="K"><path d="M307 479h2v1.32813h-2zm0 0"/></clipPath><clipPath id="L"><path d="M313 478h8v2.32813h-8zm0 0"/></clipPath><clipPath id="M"><path d="M320 478h3v2.32813h-3zm0 0"/></clipPath><clipPath id="N"><path d="M327 478h7v2.32813h-7zm0 0"/></clipPath><clipPath id="O"><path d="M340 477h7v3.32813h-7zm0 0"/></clipPath><clipPath id="P"><path d="M355 476h4v4.32813h-4zm0 0"/></clipPath><clipPath id="Q"><path d="M370 476h1v4.32813h-1zm0 0"/></clipPath><clipPath id="R"><path d="M379 479h9v1.32813h-9zm0 0"/></clipPath><clipPath id="S"><path d="M380 479h2v1.32813h-2zm0 0"/></clipPath><clipPath id="T"><path d="M393 478h8v2.32813h-8zm0 0"/></clipPath><clipPath id="U"><path d="M391 479h3v1.32813h-3zm0 0"/></clipPath><clipPath id="V"><path d="M406 478h8v2.32813h-8zm0 0"/></clipPath><clipPath id="W"><path d="M404 480h4v.32813h-4zm0 0"/></clipPath><clipPath id="X"><path d="M420 477h7v3.32813h-7zm0 0"/></clipPath><clipPath id="Y"><path d="M433 478h8v2.32813h-8zm0 0"/></clipPath><clipPath id="Z"><path d="M431 479h3v1.32813h-3zm0 0"/></clipPath><clipPath id="aa"><path d="M448 477h5v3.32813h-5zm0 0"/></clipPath><clipPath id="ab"><path d="M462 476h3v4.32813h-3zm0 0"/></clipPath><clipPath id="ac"><path d="M144 466h4v2h-4zm0 0"/></clipPath><clipPath id="ad"><path d="M144 453h4v2h-4zm0 0"/></clipPath><clipPath id="ae"><path d="M144 438h4v4h-4zm0 0"/></clipPath><clipPath id="af"><path d="M144 425h4v4h-4zm0 0"/></clipPath><clipPath id="ag"><path d="M144 412h4v4h-4zm0 0"/></clipPath><clipPath id="ah"><path d="M144 398h4v5h-4zm0 0"/></clipPath><clipPath id="ai"><path d="M465 397h3v3h-3zm0 0"/></clipPath><clipPath id="aj"><path d="M144 385h4v4h-4zm0 0"/></clipPath><clipPath id="ak"><path d="M465 384h3v1h-3zm0 0"/></clipPath><clipPath id="al"><path d="M144 371h4v6h-4zm0 0"/></clipPath><clipPath id="am"><path d="M144 357h3v7h-3zm0 0"/></clipPath><clipPath id="an"><path d="M466 358h2v2h-2zm0 0"/></clipPath><clipPath id="ao"><path d="M144 345h4v4h-4zm0 0"/></clipPath><clipPath id="ap"><path d="M466 345h2v3h-2zm0 0"/></clipPath><clipPath id="aq"><path d="M144 332h4v4h-4zm0 0"/></clipPath><clipPath id="ar"><path d="M466 332h2v3h-2zm0 0"/></clipPath><clipPath id="as"><path d="M144 319h4v3h-4zm0 0"/></clipPath><clipPath id="at"><path d="M466 318h2v2h-2zm0 0"/></clipPath><g id="au" clip-path="url(#clip1)"><path fill="#fff" fill-opacity="0" fill-rule="evenodd" d="M0 0h1000v1000H0zm0 0"/><path fill="#d3d3d3" fill-opacity="0" fill-rule="evenodd" d="M162.15234 355.86719l-.23437.29297.0586.23437.11718.17188.17578.23437.29297.34766.11328.0586.11719-.17188.0586-.23438.17577-.17578.46485-.17578h.69922l.23437.29297.28906.8164.0586.17579.17578.23046.35156.23438.69922.69922.17188.17578.23437.34765.23438.41016.28906.58203.41015.46485.23047.23437.23438.17578.11719.23047.17578.29297.17187 1.16406v.23438l.0586.28906.05859.11719.11719.11719.34765.41015.11719.17188.17578.17578.17578.23437.11719.17188.17188.35156.05859.23438.23437.40625.23438-.0586-.17578.17578-.0586.92969h-.58203l-.23437-.11328-.34766.11328-.11719.11719-.05859.29297-.0586.17578-.11718.17187-.46484.29297-.0586.23438-.0586.11328v.64453l.0586.17187v.41016l.0586.0586v.40624l.05859.40625.11719.17579.05859.05859.23047.64062-.0586.29297v.69922l-.05859.58203v.23438l-.0586.23047-.05468.35156v1.92187l.05469.1172h.42578l-.36719.11718-.02344.35156.89063 1.16797 1.74219.53906 1.33984.35938v.53906l.08984.8086.53516.71484 1.51953.26953.89063-.08594.08984 1.16406.53516.1797 1.16015-.1797 2.05469-.98437 1.16016-.36328 1.8789-.17578 1.69531-.1797-.17968.71876-1.51563.08594-1.25.08984-.80469.26953-1.07421.8086.26953.71875.53515.89843-.17968.625-.26563.8086.26563 1.07812.625.89844.80468.17969 1.25-.1797-.26562.72267.09766.5039.05468.29297v.17188l.0586.29296v.40625l.17578.1172.35156.11718h.40625l.29297-.17578.11328-.11719.0586-.11719.11718-.23047.0586-.17578.35156-.46484.23047-.17578.17578-.0586.17578.0586.0586.17578.11718.98828.05469.46875.0586.17188.11718.23437.17578.0586.8164.05859h.28907l.11719.23437.05859.40625.0586.35156v1.10547l.11718.29297.11719.34766.28906.69922.17578.35156.58203.7539.35157.17579.17187.0586.46875.23437.64063.46484.34765.23438.29297.17578.29297.05468.23047.0625.8164.34766.29297.17578.11328.17188.35157.35156.11719.17578.52343.64063v.28906l.0586.35156v.34766l.05859.35156.0586.28906.11718.0586.17188.05859h.17578l.58203.23437.17578.1172.17578.28905.17578.23438.11328.23437.29297.23047.11719.11719v.41016l.0586.05468.28906.23438.23437.11719.0586.11718.11718.17188.0586.11719.23047.23437.05859.17578.23437.0586.1172.05859-.1172.11328-.05859.11719v.11719l-.11719.29296-.11719.28907v.58203l.17579.11719.11718.05859.0586.11719.11719.11719.11328.05859.17578.34765.0586.35157.05858.40625v.17578l-.05859.17578-.11719.69922v.17187l.1172.17579.29296.29296h.40625l.17578.1172.11719.17187.11719.29296v.23438h-.52735l-.23047-.23438h-.23437l-.17578.0586-.0586.69922.0586.34765.11719.17579.17578.41015.11718.23047.28907.46875.17578.05469h.52344l.23437.0586.75781.64062.0586.29296v.23438l.05859.0586.23047.34765v.35156l-.11719.17188v.29297l.29297.28906.29297.17578.17187.0586.29297.17577.29297.1172.58203.40624.28906.23438.29297.17578.21875.16015.01563.01172.23047.17579.64062.52343.17578.23438.1172.17578.17577.17578.11328.17188v.64062l.1172.17578.46874.11719.58203.11719.23438.05859.23047.11328.29297.11719.11328.0586.58593.35156.28907.17187.17578.0625.17578.05469.17578.0586.69922.35155.28906.17579.23438.05468.28906.17578.23437.1172.64063.40624.29297.11719.17187.0586.23438.05859.41015.05859.23047.0586.23438.11718.0586.17188-.41017.17578.46875.0586.0586.29296.11328.23438.17578.05468.23438.0586.17578.05859.40625.11719.64062.23437.11719.17188.0586.23437v.17578l-.0586.1172-.0586.40624.23438.23438.11719.05859.34766.11719.64062.23047.17578.11718.28906.1172.17578.17577.23438.46485.58203 1.10546.17578.17579.34766.17578.17578.11719.35156.11718 1.04688.52344.23437.0586.46485.11327.29297.0586.46484.17578.75781.58203.23438.23438.34765.46484.17578.17578.28907.23438.8164.69921.29297.17579.28906.28906.29297.17578.29297.28906.69531.64063.17578.17578.29297.23437.28907.23438.46875.28906.64062.58203.34766.23438.23437.29297.34766.34765.35156.46485.9336.99218.34765.40625.11719.17579.23437.05859.11328.11719.64454.17578.23047.11328.23437.0586.29297.17577.23047.1172.9336.69921.40624.40625.23438.17578.40625.17578.23437.11719.8164.34766.34766.23437.23438.11719.29297.28906.23047.11719.7578.35156.35157.17188.23047.05859.29297.11719.23437.0586.8711.17577h.8164l.46875.23047.17188.0586.875.69921.46484.1172.29297.05858.17578.0586.23047.0586.46875.05859.34766.05859.35156.0586.40625.05859h.29297l.17187.0586v.23046l.17578.17578h.29297l.34766.0586.35156.05859.69922.11719h.64063l.46484-.23438.29297-.17578.17187-.11719.41016-.17187.28906-.17578.9336-.46485.46875-.29297.52343-.29296.46485-.17188.46484-.17578 1.05078-.46485.28906-.11718.41016-.11719.28906-.11719.52735-.17578 1.51562-.69922.58203-.34765.28907-.0586.29297-.0586.34765-.11718.875-.23047.35156-.11719h.11329l.23437-.05859.875-.23437.23438-.0586h.8125l.35156-.0586.8164-.11718.17188-.0586.35156-.05468.29297-.0586.23047-.05859.8164-.17578.17579-.0586h.34765l.23438-.05859.46484-.11718.75781-.17188.23438-.0586h.34765l.41016-.11718.28906-.0586 1.28516-.05859h.28906l.41016-.0586.23047-.05858h.17578l.875-.1172h.40625l.41015-.11718h.34766l.35156-.11328.8711-.0586h1.75l1.04687.28907.41016.11719.28906.11718.35156.11719.28907.11719 1.05078.17187.28906.0586h.29297l.29297.05859.17187.0586.41016.05859.17187.0586.1172.05858h.11718l.11719.0586.35156.0586h.11328l.41016.0664 1.92187.39453 1.92578.39453 1.51953.44922 1.69532.71875 2.14453.80469 1.60547-.71875 1.42968-.80469 1.16016-1.07813 1.25-.44921 3.03516-.71875 1.875-.35938 2.14453-1.34765 2.23437-1.25391 2.5-1.25781 1.69531-.44922 1.78516-.17969 1.16016-.26953.625.53906 1.33984-.26953.71485-.98828.98437-1.34375.44531-.17969.80469-.35937 1.875-.53907 1.78516-.44921 1.25-.26954 1.16015-.08984 1.69922-.08984 1.96094-.26954 1.25-.08984h.53906l.625-.08984h.89063l2.14453-.17969 2.41015-.17969 2.58985-.08984 1.69531.17969 1.60938.08984 1.42968.35938 1.16016.71875 1.875.98828 1.16015 1.52734.26563.71484.6289.08985.35548.89844.53515.53906.53516 1.52734 1.07422.35938h.53515l-.80469.53515.08985 1.70703.71484 2.69532.89063.80468.89453.98829.71484 1.2578 1.78516.53907 1.51953-.17969.35547 1.34375 1.60937-.80469.98047-.53906.26953.26953.31641-.21484.21875-.14453.80078.44922.44922-.35938h.35547l.53515-.26953.53907-.71875.53515-.26953.625-.98828 1.16016.44922.83984.3711 1.39454.61718 1.6953-.17969h1.60548l1.78515.08985.17969-1.70704.53516-1.34375.80468.26954.4922.84765.40233.40625-.08984.53906v.35938l.71485.44922.71093-.26953h1.42969l.35938.98828.4453 1.25781.71485 1.34375 1.25.6289 1.69531.62891.71485-.17969.17969-.53906.98046-.08984.44922.35937.08594 1.25782-.26563.6289-.53515.17969v.53906l.71484.98438.26563.53906.98437.98828.80078 1.07813-.26562.35937-.08985.89844-.625 2.33203-.35546 2.0664-.08985 1.79298-.17969.71875-.08984.53906v1.4375l-.98047 1.88281-.35937 1.70703-.53516.89844-.80469 1.16797-.26562.53906 2.05469 1.2539.08593.35938-.35546.53906-.08985-.17968v.80859l.08985 1.4375-.44532.71484-1.07422.09375-.26562.71485.53515.89844.8047.71875 1.16015.80859 1.33984.26953.44531.35938-.35546.44921-1.78907-.08984-1.25-.44922-.71484-.71875-.625-.08984-.17578 3.58984-.1875 1.3086h89.35937V311.70313h-55.26953v49.08203l.76172.125 3.28906.54296 2.02344 2.83594v2.7539l2.35156.33204 2.34766.33203h4.05078l-1.3789 4.16016-2.02344.70703-2.02344.70312-.54297.34375-2.59375 1.6172-.1875.11718-2.02344-2.07813-.73046-2.74218-2.67188-2.07813-1.375-3.5-.0664-.08203-1.95704-2.67188 2.75-1.41796v-49.08204H294.42187v91.41407l.1172.03125.1328.01172.07422.07421.10547.04688.08985.0586.08593.05859.08985.0586.29687.29687.0586.08984.03125.11719.02734.11719.01563.13671-.03125.1172-.0586.08983-.0586.08594-.04296.10547-.04688.10156-.02734.1211v.14453l.17578.26953.14844.14844.07422.08594.07422.07421.04296.10547.0625.08985.0586.08593.04297.10547.0586.08985.04687.10156.04296.10547.0586.08594.11719.17968.07421.07422.0625.08594.0586.08984.04297.10547.0586.08985.05858.08593.0625.08985.0586.08984.04297.10156.11719.17969.07421.07422.0586.08594.07422.07421.08984.0586.10547.04687h.14844l.1328-.01562.13282.01562.10156-.04687.07422-.07422.04688-.10156-.01563-.13281v-.14844l-.04687-.10547-.02735-.11719-.04687-.10156-.02735-.1211-.04296-.10156-.0625-.08984-.04297-.10156-.04297-.10547-.03125-.11719-.01563-.13281-.01171-.13672.08593-.0586.0586-.08593.12109-.03125.04297.10547.01562.1328v.1172l.0586.10156.0586.08984.08983.0586.14844.14843.0586.08985.04296.10547-.01171.10156.08593.0586.10547.04687.08594.0586.08984.05858.07422.07422-.11719.02735-.10546.04687-.08594.0586-.07422.07421-.0586.08985-.0625.08594-.02734.12109-.04687.10156-.04297.10547-.03125.11719-.01172.13281-.01563.13281v.14844l.02735.11719.04687.10547.04297.10156.0586.08984.07421.07422.08985.0586.07422.07421.08984.0586.0586.08984.04296.10547.04688.10156.11719.03125.1328.01563h.14845l.11718-.03125.10547.04297.04297.10547.04688.10156.02734.1211L299.5 410l.02734.11719.03125.1211.02735.11718.10547.04297.10156.04687.13281-.01562.14844.14844.0625.08593.07422.07422.07031.07422.08984.0625.10547.04297.10156.04297.1172.03125.13671.01562.11719-.03125.07422-.07422.02734-.11718-.01172-.13282-.03125-.12109-.02734-.11719.04297-.10547h.11719l.08984.0625.11719.02735h.14843l.13282.01562h.14843l.13282.01563.1328-.01563h.14845l.1328-.01562.13282-.01172.13672.01172.11719-.02735.13281-.01562.1914-.0586-.05859.17579-.01562.1328-.02735.1211-.01562.13281-.0586.08594-.1328.01563-.10548.04687-.10546.04297-.1172.03125-.11718.02735-.26563.03125h-.14843l-.13281.01562-.07422.07422.05859.08594.14844.14843.11719.1797.07421.0703.08985.0625.08984.0586.08594.0586.08984.05858.10156.04297.10547.0625.10547.04297.08594.0586.10547.04687.10156.04297.17969.11719.0586.08984-.04298.10156-.04687.10547.01562.13281.22266.22266.0586.08985.04296.10156.03125.1211.04297.10155.01563.13282.03125.11718.01171.13672.03125.11719.14844.14844.10156.04297.10547.04296.1172.03125.1328.01563.13672.01563h.11719l.11719-.03125.08984-.0586.04297-.10547.04688-.10156.04296-.10547.03125-.11719.01172-.1328v-.14845l-.01172-.1328-.01562-.13282-.03125-.11719-.04297-.10547-.04688-.10547-.04296-.10156-.04297-.10547-.01563-.13281.01563-.13281.02734-.11719.03125-.11719.02735-.1211.04687-.10155.08984-.0586.08594-.0625.07422-.07422.08984-.05859.22266-.22266.0586-.08593.07421-.07422.11719-.17969.0586-.08594v-.14844l-.07423-.07421-.10156-.04688-.10547-.04297-.10156-.04297-.0586-.08984-.04687-.10547-.02734-.11719.08984-.05859.11719-.03125.10156-.04297.17969-.11719.14844-.14843.01172-.13282-.01172-.10546-.08985-.0586-.1328.01563h-.14845l-.1328.01562-.13282-.01562-.1211-.03125-.08593-.0586-.07422-.07422-.0586-.08984-.0625-.08594-.11718-.17969-.0586-.08593.03125-.1211.08594-.05859.1211-.03125.05859-.08594v-.1211l-.03125-.11718-.0586-.08984-.05859-.08594-.04687-.10547-.02735-.11719-.01562-.1328.0586-.08985.07421-.07422.08984-.0586.1172-.17968.07421-.07422.0586-.08594.14843-.14844.1211-.03125.1328-.01562.13282.01562.07422.07422.04297.10547.01562.13281-.03125.1172-.11719.03124-.1328.01172-.14844.14844-.04297.10547-.04688.10156-.02734.1211-.03125.11718v.14844l.03125.11719.04297.10546.05859.08985.07422.07031.07422.07422.11719.03125.12109.02734.11719-.02734.1328-.01563h.1172l.08984.0586.07422.07422.04687.10546.0586.08594.10156.04688.13281.01562.10547.04297.08594.0586-.01172.10546-.07422.07422-.17969.11719-.05859.08984-.08984.0586-.07032.07422-.07421.07421-.0625.08985-.02735.11719-.01562.1328.01562.13282-.01562.13281v.14844l.01562.13281.02735.1172.03125.12108.07421.07422.08985.0586.08594.0586.08984.05858.11719.03125v.08594l-.10157.04688-.08984.0586-.26563.03124-.11718.02735h-.14844l-.10547.04296-.10156.04688-.0586.08984-.0625.23438-.01171.13281-.03125.1211-.01563.1328v.29298l-.01172.1328.01172.13673.01563.1328.1328.01563.13282.01172.1211.03125.08593.0586.07422.07421.04688.10547.04296.10157.01563.1328v.44532l-.01563.13281v.44532l.03125.26562.02735.11719.01562.13281.03125.11719.08594.21094.03125.26562v.14844l-.03125.11719-.02734.11718-.03125.1211-.02735.11719-.03125.11718-.03125.1211-.01171.1328-.01563.13282.08984.0586.1172-.03125.10155.01562.04688.10547-.03125.26562v.44141l-.04297.10547-.04688.10547-.04296.10156-.04297.10547-.0586.08594-.03125.12109-.04296.11719-.03125.11719-.01563.1328.01563.13282.05859.08984.10547.04688.08594.0586.05859.08593-.01172.13672-.03125.11719-.04297.10156v.44531l-.01562.13281v.14844l-.03125.11719-.04297.10547-.02735.11719-.04687.10546-.04297.10157-.03125.12109-.02734.11719-.03125.13281-.03125.11719-.02735.11719-.04297.10546-.03125.1172-.03125.12108-.01171.13282-.01563.13281v.29688l.02734.11718v.14844l.04688.39844.02734.11719.0586.08984.12109.03125h.14844l.13281-.01563.0586.08985v.11719l-.0586.08984-.08984.0586-.10157.04296-.10546.04688-.08985.05859-.08594.0586-.13671.01562-.1172-.03125-.1328-.01563-.10157.04688-.0625.08594-.01172.13671-.01562.13282-.03125.11719-.02735.11718-.01562.13281-.03125.1211v.29687l.01563.13282.03125.11718v.14844l.01171.13281v.14844l-.02734.11719-.04688.10156-.02734.1211-.03125.11718-.0586.08985-.07421.07421-.10156.04297-.10547.04688-.11719.02734-.1211.03125-.10156-.04687.0586-.08594.10547-.04688.02734-.11718.03125-.11719.02734-.1211.03125-.11718v-.14844l.01563-.13281-.03125-.11719-.04297-.10547-.10547.01563-.07422.07422-.10156.04296-.08984.0625-.07422.07422-.04297.10157-.01563.1328-.03125.1172L304.25 426l-.03125.11719-.02734.11719-.03125.12109-.02735.11719-.03125.11718-.04297.10547-.08984.0586h-.08984l-.1172-.03125-.03124-.08594.01562-.13672-.03125-.11719v-.14844l-.01171-.1328v-.14844l-.0625-.23438-.02735-.1211-.04297-.10156-.04687-.10546-.0586-.08594-.05859-.08985-.04297-.10546-.0625-.08594-.14844-.14844-.0703-.07422-.10548-.04687-.10547-.04297-.10156-.04297-.29687-.29688-.08985-.07421-.08594-.0586-.10546-.04297-.08985-.0625-.08594-.0586-.10546-.04296-.08985-.0586-.08594-.0625-.07421-.0703-.10547-.04688-.08594-.0586-.10547-.04296-.08984-.0625-.10156-.04297-.10547-.04297-.08594-.0586-.10547-.04687-.10547-.04297-.10156-.04687-.08985-.0586-.10156-.04297-.10547-.04296-.08984-.0625-.11719-.02735-.13281-.01562-.13281.01562H299.75l-.13281.01563-.11719-.03125-.08984-.0586-.07422-.07422-.08985-.05859-.10156-.04688h-.14844l-.12109-.02734-.10156-.04297-.07422-.07422-.11719-.17968-.08984-.0586-.10156-.04297-.08985-.0625-.10547-.04296-.08984-.0586-.08594-.0586-.10547-.04687-.0586-.08594-.05858-.08984-.04297-.10547-.04688-.10156-.07422-.07422-.08594-.0586-.07421-.07421-.08985-.0586-.22265-.22265-.04297-.10547-.03125-.26563.10547-.04296h.14453l.10547.04296.07421.07422.08985.0586.08594.0586.10546.04687.08985.05859.14844.14844.0703.07422.14845.14843.0625.08594.07421.07422.08594.0586.07422.07421.08985.0625.08984.0586.08594.05859.26953.17578.10156.04688.10547.04296.10156.04297.04688-.07421.05859-.08594.07422-.07422.07031-.07422.10547.04297.07422.07422.0586.08984.04296.10156.04688.10547.04296.10547.1211.02735.11719-.02735.07421-.08984.04297-.10547.0586-.08985.07422-.07421.10546-.04297.1172-.02735.1328.01172.08985.0586.14844.14843.05859.08985.04297.10547.04687.10156.04297.10547.04297.10156.10547.04688.10547.04296.13281.01563.08594-.0586.0586-.08984.07421-.07422.10547-.04297.11719.02735.10547.04687.10156.04297.10547.04297.10156.04688.17969.11718v.11719l-.01563.13281.01563.13281.01562.13672.0586.08594.10156.04688.1211.02734.11718.03125h.14844l.11719-.03125.05859-.08984.17969-.1172.05859-.08983.07422-.07422.0586-.08594.11718-.17969.17969-.11719.11719.03125.08984.0586.04297.07422-.01563.1328v.1172l.08985.05859h.14843l.13282-.01563.1328-.01171.26563-.03125.10547-.04297.11719-.03125.1211-.02735.07421-.07421.07031-.07422.0625-.08985-.01562-.10547-.04688-.10156-.10156-.04297-.10547-.01562-.11718.02734-.26563.03125h-.14844l-.07421-.07422-.08985-.0586-.11719-.03124-.11718-.02735-.13282-.01562h-.14843l-.13282.01563h-.29687l-.10547-.04688-.14844-.14844-.04297-.10156-.05859-.08984.22266-.22266.08593-.0586.10547-.04296.11719-.03125.13281-.01563.13281.01563.13672.01562.10157.04297.1328-.01172.08985-.0625.10156-.04297.0625-.08984-.04687-.10156-.08984-.0586-.1172-.03125-.10155-.04296-.0586-.08985-.0625-.08984v-.11719l.01563-.13281.10547-.04688.07421-.07031v-.1211l-.08984-.05859-.03125-.11719.08985-.05859.07421-.07422.04297-.10547.0586-.08984.04687-.10156.01563-.13281v-.14844l-.04688-.10547-.04297-.10156-.08984-.0586-.13281-.01562-.10157-.04297-.13671-.01563-.1172-.03125h-.4453l-.13282-.01562-.13281-.01172-.13281-.01563-.11719-.03125h-.14844l-.13281-.01562-.13281-.01172-.26563-.03125-.1211-.04297-.08593-.0586-.07422-.07421v-.14844l.01172-.13281.10547-.04688.10156-.04296.13281-.01563h.15235l.13281-.01562h.29297l.1211.03125.10156.04296.08984.0586.23438.0625.12109-.04688.08984-.05859.10156-.04297.13282-.01562.10547.04296.10156.04688.13281.01172.1211-.02735h.14453l.12109-.03125.11719-.02734.10547-.04687.07421-.07422.08594-.0586.14844-.14843.0586-.08594.04687-.10547.02734-.11719.01563-.10547-.10156-.04296-.08985-.0586-.11719-.03125-.10546-.04297-.08985-.0625-.07422-.08594-.07422-.07421-.10156-.04297-.10547-.04688-.10156-.04297-.0586-.08984-.04687-.10156-.08594-.21094-.0625-.08594-.05859-.08984-.07422-.07422-.08594-.0586h-.26953l-.11719.03126-.08984.05859-.10156.04297-.13281.01562-.10547-.01562-.02735-.11719-.0625-.08984-.11718-.03125-.10157-.04297-.14843-.14844-.03125-.11719-.01563-.10546.07422-.07422.17969-.1172.11719-.02733.11718-.03125.13672.01562.10156.04297.10547.04297.10156.04687.10547.04297.1172.03125.1328.01563.1172.02734.1328.01563.10547-.01563.08985-.0586-.07422-.07421-.10547-.04297-.07422-.07422-.07422-.08984-.14844-.14844-.08593-.0586-.08985-.05859-.07422-.07422-.08984-.0586-.10156-.04687-.1211-.02734-.10156-.04688-.10547-.04296-.11719-.03125-.10156-.04297-.1211-.03125h-.14843l-.11719.03125-.10546.04297-.08594.0625-.17969.11718-.08594.0586-.08984.0586-.10547.04687-.08594.05859-.10547.04297-.10156.04297-.10547.04687-.07422.07422-.05859.08985-.0586.08593-.04687.10547-.0586.08594-.07421.07422-.13281-.01172-.1172-.03125h-.11718l-.07422.07422-.08984.0586-.07422.07421-.08984.0586-.08594.05859-.10547.04687-.10156.04297-.13672.01563-.10156-.04297-.14844-.14844-.10547-.04688h-.08594l-.10547.04688-.10156.04297-.1211.03125-.11718-.03125-.07422-.07422v-.11719l.03125-.1211.07422-.0703.0586-.08985.07421-.07422.11719-.03125.10547-.04296h.29297l.13281-.01563.13672-.01563.10156-.04296.08985-.0586.10156-.04687.08984-.0586.13281-.01171.08985.05859.13281.01172.08984-.0586.08594-.05859.10547-.04297.08984-.0586.08594-.0625.08985-.05859.14843-.14843.0586-.08594.05859-.08985.10547-.04296.13281-.01563.11719.02735.1211.03125.05859-.0586.05859-.08984.03125-.26563.02734-.11719.10547.01172.13281.01563.10157-.04297.08984-.0586.0586-.08984.07421-.07422.0586-.08984.04687-.10156.01172-.13281-.01172-.13282-.04687-.10547-.14844-.14843-.0586-.08985-.05859-.08594-.04297-.10546v-.44532l.01563-.1328v-.14845l.01172-.1328-.0586-.0586-.08984.0586-.10156-.04298-.17969-.11719-.08594-.05859-.0625-.08984-.0586-.08985-.07421-.07421-.08594-.0586-.1211.03125-.10155.01172-.10547.04688-.08594.05859-.10547.04297-.14844.14844-.08984.05859-.08594.0586-.08984.0625-.10547.04296-.13281.01563v-.1211l.10547-.04297.11718-.03125.07422-.0703.04297-.10548v-.14844l-.02734-.11718-.14844-.14844-.13281-.01563h-.14844l-.11719.03125-.10547.04297-.10156.04297-.08984.0625-.11719.02735-.07422-.07422.01172-.13281-.04297-.10157-.04297-.10547-.08984-.05859-.11719.02734-.1211.03125-.11718.03125-.10156.04297-.1211.03125-.10156.04297-.10547.04297-.08984.0586-.10156.01562v-.11719l.01562-.13281-.0586-.08985-.07421.04297-.14844.14844-.0586.08985-.07421.07421-.04688.10547-.04296.10156-.07422.07422-.0586.08985-.07422.07422-.05859.08593-.07422.07422-.08984.0625-.07422.07031-.07422.07422-.10156.01563-.13281.01562-.10547-.04296v-.1211l.14843-.14844.04297-.10156.0586-.08984.04687-.10156.04297-.10547.0586-.08985.03124-.11719.04297-.10156.03125-.1211.02735-.11718.04687-.10547.04297-.10156.04297-.10547.07422-.07031.08984-.0625.08985-.0586.10156-.04296h.29687l.26563-.03125.10547-.04297-.07422-.07422-.11719-.03125-.10547-.04297-.08984-.0586-.10156-.04687-.08985-.0586-.10156-.04296-.10547-.04297-.08984-.0625-.08594-.0586-.10547-.04296-.10156-.04297-.1211-.03125-.11718-.03125-.10157-.04297L297.5 410.25l-.10156-.04297-.08985-.0586-.04296-.10546-.01563-.13281.10156-.04297.13281-.01563.13672.01563.13282-.01563.10156-.04297.0586-.08984.01562-.10547-.08985-.0586-.07421-.07421-.10157-.04297-.08984-.0586-.14844-.14843-.04297-.10547-.01562-.13281v-.29297l-.0586-.08985-.08984-.05859-.07422-.07422-.04297-.10547-.03125-.11718-.0586-.08985-.07421-.07422-.11719-.02734-.07422-.07422-.08984-.0586-.08984-.0625-.08594-.05859-.07422-.07421-.0586-.08594-.04687-.10547-.08594-.0586-.14843-.14843-.19532-.0586-.1328.01563-.10157.04297-.07422.07422-.04688.10156-.04296.10547-.0586.08984-.0586.08594-.29687.29687-.08984.0586h-.08594l-.0625-.08594-.04297-.10547.03125-.11719.0586-.08984.02734-.11719-.01172-.13281-.08984-.0625-.10547.04688-.11719.02734-.11719.03125-.26953.17578-.10156.04688-.11719.02734-.10546.04687-.08985.0586-.10156.04297-.0586-.08594-.04687-.10547.01563-.13281.04687-.10547.07031-.07422.07422-.07031.0586-.08985v-.14843l-.04297-.10547h-.23829l-.10156.04687-.03125.11719-.02734.11719-.03125.1211-.07422.04296-.13281.01563-.07422-.04688-.04297-.10156-.04297-.10547-.04687-.10156-.04297-.10547-.1211.03125-.10156.04297-.13281.01562-.11719.03125-.10547.04297-.08984.0586-.10156.04687-.1211.02734-.13281.01563-.10156-.04297-.0586-.08985-.04687-.10546-.04297-.10157-.04297-.10546v-.1172l.0586-.08984.08593-.05859.17969-.11719.10156-.04687.10547-.04297.10547-.0586.10156-.04296.08985-.0625.10156-.04297.10547-.0586.10156-.04687.08984-.0586.10547-.04296.10156-.04297.08985-.0625.10156-.04297.13672-.01563.11719.03125.10156.04297.1211.03125.10156.04297.10546.04688.10157.04296.10547.04297.10156.04688.10547.04297.10156.04297.10547.04687.08594.0586.10546.04296.1172.03125.10546.04297.10156.04688.08985.0586.10547.04296.10156.04297.10547.04687.11719.02735.10156.04687.1211.02735h.14843l.08594-.0586.01562-.10156.0586-.08984-.02735-.1172-.07422-.07421-.11719-.17969-.07421-.07422-.08985-.07421-.17969-.1172-.08593-.05859-.10547-.04296-.10156-.04688-.26954-.17578-.05859-.08985-.07422-.07421-.0586-.08985-.04296-.10156-.03125-.11719-.01563-.13672v-.5625l-.01171-.1328-.01563-.13282-.03125-.11719-.01562-.13281-.01172-.13281-.03125-.1211-.22266-.22265-.0586-.08594-.01562-.10547.03125-.11719.13281-.01562v-91.41406H172.9922v1.45312l-.0586.23438-.35156 1.05078-.17187.52343-.1172.34766-.17577.41016-.11719.17187-.23438.29297-.23046.0586h-.35157l-.11718.05859-.23047.40625v.29297l.11719.17578.23046.23047.1172.23437.64062.75781.29297.46485.17578.23437.23047.35156.23437.34766.64063.8164.17578.46485.17187.41016.11719.69531.17578.46875.11719 1.39844.0586.46484v.875l.11718 1.04688v4.78125l-.0586.46484-.35156 1.28125-.17578.52344-.11328.41015-.35156.9297L172.93359 336l-.23437.58203-.11719.17578-.17187.34766-.17578.40625-.35157.8164-.0586.29297-.11327.29297-.11719.28906-.0586.17579-.11718.875-.0586.40625-.05859.11718-.0586.17579-.05859.17187-.23047.52734-.11718.17188v.23437l-.11719.23438-.0586.17187-.17577.58594v.28906l-.0586.17579v.29296l-.0586.11329-.05859.52734v.17187l-.05468.23438v2.6211l-.17578.8164-.1172.17578-.17577.23438-.1172.17187-.11327.23438-.58594.93359-.23047.28906-.29297.46485-.17578.23437-.28906.35156-.35156.69922-.11328.23047-.17579.41016-.17578.23046-.40625.52735-.8164.69922-.29297.17187-.28906.23438-.17579.11719-.17578.17578-.52344.40625-.52734.17578-.17187.17578-.23438.05469-.64062.17578h-.75782m12.21094 31.02344l-1.07422.44921.35938.89454 1.25-.71485.44531-.53906-.98047-.08985"/><path fill="#d3d3d3" fill-opacity="0" fill-rule="evenodd" d="M201.50781 416.59766h-.89453l.44922.6289.98047.35938.80469-.08985.4453-.98828-.17577.08985-.71485-.35547-.89453.35547m154.6211 59.0703l-.0586-.52343v-.29297l.11328-.29297.0586-.23046.46875-.46875h.11328l.11719-.11329.11718-.05859h.17579l.23437-.0586h.34766l.23437.0586.11719.0586.23047.17187.0586.17578.11718.58203v.29297l-.11719.17578-.17187.28906-.17579.17579-.52734.52343-.23047.23438-.11719.0586h-.17578l-.11718-.0586-.40625-.29297-.17579-.11719-.11718-.0586-.0586-.11327-.05468-.1172m6.64062-10.95702l-.0586-.17188v-1.10937l.0586-.17188.17578-.0586.17188-.05858h.17578l.23437-.0586.1172.0586.05858.69921-.05859.17188-.11719.17578-.11718.0586-.23438.52343-.11328.0586h-.23438l-.05859-.1172m9.61328-14.39062l-.11719-.17578v-.69922l.29297-.875.1172-.17187.17577-.35156.11328-.23047.1172-.29297.35155-.75781.1172-.23047.17187-.23438h.17578l.11719-.0586h.64062l.11719.0586.23437.23438.17188.11328.35156.29297.11719.11718.11328.17579v.11328l.11719.05859.11718.11719v.69922l-.05859.17578v.23047l-.0586.17578-.34765 1.05078-.11719.23047-.11719.23437-.11718.0586-.23047.23437-.64063.28906h-.875l-.41015-.11718-.64063-.46485"/><path fill="none" stroke="#bebebe" stroke-linecap="round" stroke-linejoin="round" stroke-miterlimit="10" stroke-width=".5" d="M467.95703 311.69531H144.02734v168.625h323.9297v-168.625"/><g clip-path="url(#a)"><path fill="#fff" fill-opacity="0" fill-rule="evenodd" d="M144 475.89063v4.4375h.0039H144V317.0625v158.82813"/></g><g clip-path="url(#b)"><path fill="#50fcfc" fill-rule="evenodd" d="M144 316.10938v.95312-5.39063h.0039H144v4.4375"/></g><g clip-path="url(#c)"><path fill="#fff" fill-opacity="0" fill-rule="evenodd" d="M144.0039 480.32813V317.0664l3.88282 3.48046.55078.3711.52734-.3711 2.25782-4.4375-.07422-4.4375h32.79687v8.45313l-.39453.42188.39453.48437.96875-.48438-.96875-.42187v-8.45313h22.1914v104.28516l-.11718 2.23438.11719.10546 1.7461-.10546-1.7461-2.23438V311.67188h22.1914v94.0078l-4.4375.36329-3.90625 3.27344-.53125.87109-4.01171 3.5664-.42578 1.82423-3.67188 2.61328 3.67188 3.57421.11328.86329-.11328.07812-4.44141.69922-3.74219 3.66406-.69531 1.63672-4.4375-.21484-4.4375-.23047-4.20313 3.2461-.23828 3.83202-.42187.60547-4.01563 2.70703-.53906 1.73047-1.79688 4.4375-2.10156 3.82422-.66406.61719-3.77344 2.3164-4.4414-.60156-4.4375.98828-2.625-2.70312 2.625-4.0625.39062-.3789L175.06641 441l.60937-.61719-.60937-2.26953-4.4375.33203-4.4375-.2539-4.4375 1.96093-.21485.23047-1.29297 4.4375-.26562 4.4414-.14844 4.4375-1.16797 4.4375 1.27344 4.4375 1.8164 1.47267 2.27735-1.47266 2.16016-1.57031 4.4375.72265 4.4375-1.42969 4.4414.88672 4.4375-.29296 3.1289-2.75391 1.3086-2.63281 4.4375.5664 3.11719-2.3711 1.32422-1.41796 3.83203-3.01953.60547-1.5586L203 449.26173l.72266 4.4375 2.41406 1.10547 3.8711-1.10547.48046-4.4375-.59375-4.4414-3.75781-3.3672-1.19922-1.0703 1.19922-2.44923 4.4375-.1289 4.4414 1.01562v5.32813l-.71484.67187.71484.35156 1.28907-.35156-1.28906-.67187v-5.32813l1.85156-2.875 2.58594-2.39844 4.4375-1.33593V444.125l-2.67188.69531 2.67188 1.8125v5.17578l-1.6875 1.89063 1.6875 1.95703.66796-1.95703-.66797-1.89063v-5.17578l2.35157-1.8125-2.35156-.69531v-11.91406l4.4375.03125L231.5 435.9453l1.26563 2.15235 4.4414-.57422 2.9961 2.85937 1.4414 1.76563 4.4375-1.02344.73438-.74219 2.23828-4.4375-2.15625-4.4375-.8164-.61328-1.17579.61328-3.26172.97266-1.6289-.97266.3125-4.4375-3.1211-.35937-4.4414-1.17188-4.4375-1.63281-2.81641-1.27734-1.41797-4.4375 3.5-4.4375.73438-.9297 3.60546-3.5078-3.60547-3.63672v-94.00781h31.07032v114.6289l-1.21875.76953-3.22266 3.24219-1.4414 1.19531 1.4414 1.41797 2.91406 3.01953 1.52735.65235.66797-.65235-.66797-3.39453-1.13281-1.04297 1.1328-1.10937 1.35938-3.32813-1.35937-.76953v-114.6289h13.3125v114.61328l-.63672.78515-2.22656 4.4375 2.86328 1.6211 4.4414-.23047 3.1211 3.04687 1.3164 1.27735 2.82422-1.27735 1.61328-.8789 2.19141-3.5586-2.1914-2.29687-4.4375-1.53516-4.4375 2.19531-4.1797-2.80078-.26171-.78515V311.67187h75.45312v122.10938l-2.02734 2.16406 2.02734 1.9375 2.28125 2.5 2.15625 2.08203 2.32813-2.08203-2.32813-2.17187-2.48437-2.26563-1.95313-2.16406V311.67187h26.6289v132.96485l-.19921.1836-2.13672 4.4414 2.33594 2.25 2.66406-2.25-2.38281-4.4414-.28125-.1836V311.67187h13.3164v162.03516l-1.72265 2.1836 1.72265 1.36328 1.16407-1.36329-1.16406-2.18359V311.67188h79.88671v168.65625H144.00391"/></g><g clip-path="url(#d)"><path fill="#50fcfc" fill-rule="evenodd" d="M147.88672 320.54688l-3.88281-3.48047v-5.39454h7.14453l.07422 4.4375-2.25782 4.4375-.52734.3711-.55078-.3711"/></g><path fill="#50fcfc" fill-rule="evenodd" d="M159.9375 462.57422l-1.27344-4.4375 1.16797-4.4375.14844-4.4375.26562-4.4414 1.29297-4.4375.21485-.23048v17.82813l-.07422.15625.07422.14844.21484-.14844-.21484-.15625v-17.82813l4.4375-1.96093 4.4375.2539 4.4375-.33203.60937 2.26953-.60937.61719-4.04688 3.82031-.39062.3789-2.625 4.0625 2.625 2.70313 4.4375-.98828 4.4414.60156 3.77344-2.3164.66406-.61719 2.10156-3.82422 1.79688-4.4375.53906-1.73047 4.01563-2.70703.42187-.60547.23828-3.83203 4.20313-3.2461v7.57423l-3.28906.10937.60937 4.4375 2.67969 2.8125 1.5664-2.8125-1.1914-4.4375-.375-.10937v-7.57422l4.4375.23047 4.4375.21484.69531-1.63672 3.74219-3.66406 4.4414-.69922.11329-.07812-.11328-.86329-3.67188-3.57421 3.67188-2.61329.42578-1.82421 4.01172-3.56641v12.17188l-.19532.26953-4.24219 2.75-4.4414-.8047-2.55078 2.4961 2.55078 3.6836 4.4414-.37891 1.89063-3.30469 2.54688-4.20703.22656-.23437-.22656-.26954V410.1875l.53125-.8711 3.90625-3.27343 4.4375-.36328v2.5039l-4.4375.25782-1.04297.875-2.5 4.4375 3.54297 2.16406v8.13672l-2.81641 3.01562 2.8164 3.32031 1.46485-3.3203-1.46484-3.01563v-8.13672l1.78906-2.16406 2.64844-3.34766 1.12109-1.08984-1.1211-1.13282v-2.5039l3.60547 3.63672-3.60547 3.5078-.73437.9297-3.5 4.4375 1.41797 4.4375 2.8164 1.27734 4.4375 1.63281 4.44141 1.17188 3.1211.35937-.3125 4.4375 1.6289.97266 3.26172-.97266 1.17578-.61328.8164.61328 2.15626 4.4375-2.23828 4.4375-.73438.74219-4.4375 1.02344-1.4414-1.76563-2.9961-2.85937-4.4414.57422L231.5 435.9453l-3.17188-3.70312-4.4375-.03125-4.4375 1.33594-2.58593 2.39843-1.85156 2.875-4.44141-1.01562-4.4375.1289-1.19922 2.44922 1.19922 1.07031 3.75781 3.3672.59375 4.4414-.48047 4.4375-3.8711 1.10547-2.41405-1.10547-.72266-4.4375-1.30078-1.5586-.60547 1.5586-3.83203 3.01953-1.32422 1.41797-3.11719 2.3711-4.4375-.56641-1.3086 2.6328-3.1289 2.75392-4.4375.29296-4.4414-.88671-4.4375 1.42968-4.4375-.72265-2.16016 1.5703-2.27734 1.47267-1.81641-1.47266"/><path fill="#00e8fc" fill-rule="evenodd" d="M161.7539 458.28516l-.07421-.14844.07422-.15625.21484.15625-.21484.14844"/><path fill="#50fcfc" fill-rule="evenodd" d="M183.94531 321.03125l-.39453-.48438.39453-.42187.96875.42188-.96875.48437"/><path fill="#fff" fill-opacity="0" fill-rule="evenodd" d="M197.26172 435.83594l-3.28906.10937.60937 4.4375 2.67969 2.8125 1.5664-2.8125-1.1914-4.4375-.375-.10937"/><path fill="#50fcfc" fill-rule="evenodd" d="M206.13672 418.29688l-.11719-.10547.11719-2.23438 1.7461 2.23438-1.7461.10546"/><path fill="#00e8fc" fill-rule="evenodd" d="M210.57422 430.7539l-2.55078-3.68359 2.55078-2.4961v1.94532l-.5625.55078.5625.8125 1.39062-.8125-1.39062-.55078v-1.94531l4.4414.80469 4.2422-2.75.1953-.26954.22657.26954-.22656.23437-2.54688 4.20703-1.89063 3.30469-4.4414.3789"/><path fill="#00d4fc" fill-rule="evenodd" d="M210.57422 427.88281l-.5625-.8125.5625-.55078 1.39062.55078-1.39062.8125"/><path fill="#50fcfc" fill-rule="evenodd" d="M215.01563 445.17188l-.71485-.35157.71484-.67187 1.28907.67187-1.28906.35156"/><path fill="#00e8fc" fill-rule="evenodd" d="M223.89063 415.91797l-3.54297-2.16406 2.5-4.4375 1.04297-.875 4.4375-.25782 1.12109 1.13282-1.1211 1.08984-2.64843 3.34766-1.78906 2.16406"/><path fill="#fff" fill-opacity="0" fill-rule="evenodd" d="M223.89063 424.05469l-2.81641 3.01562 2.8164 3.32031 1.46485-3.3203-1.46484-3.01563"/><path fill="#50fcfc" fill-rule="evenodd" d="M223.89063 446.63281l-2.67188-1.8125 2.67188-.69531 2.35156.69531-2.35156 1.8125m0 9.02344l-1.6875-1.95703 1.6875-1.89063.66796 1.89063-.66797 1.95703m31.06641-22.73047l-1.4414-1.41797 1.4414-1.19531 3.22266-3.24219 1.21875-.76953 1.35937.76953-1.35937 3.32813-1.13281 1.10937 1.1328 1.04297.66798 3.39453-.66797.65235-1.52735-.65235-2.91406-3.01953m17.7539.20313l-2.86327-1.6211 2.22656-4.4375.63672-.78515.26172.78515 4.17968 2.80078 4.4375-2.1953v1.35546l-3.19921 2.47656 3.19921 3.16797 3.67579-3.16797-3.67579-2.47656v-1.35547l4.4375 1.53516 2.19141 2.29687-2.1914 3.5586-1.61329.8789-2.82422 1.27735-1.3164-1.27735-3.1211-3.04687-4.4414.23047"/><path fill="#00e8fc" fill-rule="evenodd" d="M281.58984 434.67578l-3.19921-3.16797 3.19921-2.47656v2.2539l-.28906.22266.28906.28516.32813-.28516-.32813-.22265v-2.25391l3.67579 2.47656-3.67579 3.16797"/><path fill="#00d4fc" fill-rule="evenodd" d="M281.58984 431.79297l-.28906-.28516.28906-.22265.32813.22265-.32813.28516"/><path fill="#50fcfc" fill-rule="evenodd" d="M348.16406 437.88281l-2.02734-1.9375 2.02734-2.16406 1.95313 2.16406 2.48437 2.26563 2.32813 2.17187-2.32813 2.08203-2.15625-2.08203-2.28125-2.5m26.6289 13.6289l-2.33593-2.25 2.13672-4.4414.19922-.1836.28125.1836 2.38281 4.4414-2.66406 2.25m13.3164 25.7422l-1.72265-1.36329 1.72265-2.18359 1.16407 2.1836-1.16406 1.36328"/><g clip-path="url(#e)"><path fill="#fff" fill-opacity="0" fill-rule="evenodd" d="M467.9961 480.32813H468V311.67188h-.0039H468v168.65625h-.0039"/></g><path fill="#fff" fill-opacity="0" fill-rule="evenodd" d="M213.625 428.66797l5.45703-2.08985-3.5664-9.30078-5.45313 2.08985 3.5625 9.30078"/><path fill-rule="evenodd" d="M213.98438 419.82813l.47656-.1836 2.2539 5.8789-.73828.28126-1.60547-4.1914-1.29687.49608-.19922-.51953.5-.26171.21875-.13672.17969-.16797.14062-.20313.08594-.26172.02734-.32421-.04297-.40625"/><path fill="#fff" fill-opacity="0" fill-rule="evenodd" d="M202.33203 459.60547l5.82813.4414.75-9.93359-5.82422-.4414-.7539 9.93359"/><path fill-rule="evenodd" d="M206.4375 451.76563l.50781.03906-.47656 6.27734-.78516-.0625.33985-4.47656-1.38281-.10156.03906-.5547.5664-.02343.25391-.03515.23438-.07032.21484-.125.1875-.19922.16406-.28125.13672-.38671"/><g clip-path="url(#f)"><path fill="none" stroke="#000" stroke-linecap="round" stroke-linejoin="round" stroke-miterlimit="10" stroke-width=".5" d="M147.51172 480.42578l-7.02344-.19531"/></g><g clip-path="url(#g)"><path fill="none" stroke="#000" stroke-linecap="round" stroke-linejoin="round" stroke-miterlimit="10" stroke-width=".5" d="M147.51172 480.42578l1.08984 2.19922"/></g><g clip-path="url(#h)"><path fill="none" stroke="#000" stroke-linecap="round" stroke-linejoin="round" stroke-miterlimit="10" stroke-width=".5" d="M146.48828 480.39844l.54688 1.09765"/></g><g clip-path="url(#i)"><path fill="none" stroke="#000" stroke-linecap="round" stroke-linejoin="round" stroke-miterlimit="10" stroke-width=".5" d="M160.82813 480.3164l-7.02735.02344"/></g><g clip-path="url(#j)"><path fill="none" stroke="#000" stroke-linecap="round" stroke-linejoin="round" stroke-miterlimit="10" stroke-width=".5" d="M160.82813 480.3164l1.16015 2.16407"/></g><g clip-path="url(#k)"><path fill="none" stroke="#000" stroke-linecap="round" stroke-linejoin="round" stroke-miterlimit="10" stroke-width=".5" d="M174.14453 480.3164l-7.02734.02344"/></g><g clip-path="url(#l)"><path fill="none" stroke="#000" stroke-linecap="round" stroke-linejoin="round" stroke-miterlimit="10" stroke-width=".5" d="M174.14453 480.3164l1.15625 2.16407"/></g><g clip-path="url(#m)"><path fill="none" stroke="#000" stroke-linecap="round" stroke-linejoin="round" stroke-miterlimit="10" stroke-width=".5" d="M187.45313 480.5l-7.01563-.34375"/></g><g clip-path="url(#n)"><path fill="none" stroke="#000" stroke-linecap="round" stroke-linejoin="round" stroke-miterlimit="10" stroke-width=".5" d="M187.45313 480.5l1.04687 2.21875"/></g><g clip-path="url(#o)"><path fill="none" stroke="#000" stroke-linecap="round" stroke-linejoin="round" stroke-miterlimit="10" stroke-width=".5" d="M186.4336 480.44922l.52343 1.11328"/></g><g clip-path="url(#p)"><path fill="none" stroke="#000" stroke-linecap="round" stroke-linejoin="round" stroke-miterlimit="10" stroke-width=".5" d="M200.77344 480.4375l-7.02344-.21875"/></g><g clip-path="url(#q)"><path fill="none" stroke="#000" stroke-linecap="round" stroke-linejoin="round" stroke-miterlimit="10" stroke-width=".5" d="M200.77344 480.4375l1.08203 2.20313"/></g><g clip-path="url(#r)"><path fill="none" stroke="#000" stroke-linecap="round" stroke-linejoin="round" stroke-miterlimit="10" stroke-width=".5" d="M199.75 480.40625l.54297 1.10156"/></g><g clip-path="url(#s)"><path fill="none" stroke="#000" stroke-linecap="round" stroke-linejoin="round" stroke-miterlimit="10" stroke-width=".5" d="M214.07422 480.00781l-6.9961.64063"/></g><g clip-path="url(#t)"><path fill="none" stroke="#000" stroke-linecap="round" stroke-linejoin="round" stroke-miterlimit="10" stroke-width=".5" d="M214.07422 480.00781l1.34375 2.05469"/></g><g clip-path="url(#u)"><path fill="none" stroke="#000" stroke-linecap="round" stroke-linejoin="round" stroke-miterlimit="10" stroke-width=".5" d="M213.05469 480.10156l.67187 1.02735"/></g><g clip-path="url(#v)"><path fill="none" stroke="#000" stroke-linecap="round" stroke-linejoin="round" stroke-miterlimit="10" stroke-width=".5" d="M227.39453 480.08984l-7.00781.47657"/></g><g clip-path="url(#w)"><path fill="none" stroke="#000" stroke-linecap="round" stroke-linejoin="round" stroke-miterlimit="10" stroke-width=".5" d="M227.39453 480.08984l1.29688 2.08203"/></g><g clip-path="url(#x)"><path fill="none" stroke="#000" stroke-linecap="round" stroke-linejoin="round" stroke-miterlimit="10" stroke-width=".5" d="M226.375 480.16016l.64844 1.03906"/></g><g clip-path="url(#y)"><path fill="none" stroke="#000" stroke-linecap="round" stroke-linejoin="round" stroke-miterlimit="10" stroke-width=".5" d="M240.70703 480.02734l-7.0039.60547"/></g><g clip-path="url(#z)"><path fill="none" stroke="#000" stroke-linecap="round" stroke-linejoin="round" stroke-miterlimit="10" stroke-width=".5" d="M240.70703 480.02734l1.33203 2.0586"/></g><g clip-path="url(#A)"><path fill="none" stroke="#000" stroke-linecap="round" stroke-linejoin="round" stroke-miterlimit="10" stroke-width=".5" d="M239.6875 480.11328l.66797 1.03125"/></g><g clip-path="url(#B)"><path fill="none" stroke="#000" stroke-linecap="round" stroke-linejoin="round" stroke-miterlimit="10" stroke-width=".5" d="M254.02734 480.10938l-7.01172.4375"/></g><g clip-path="url(#C)"><path fill="none" stroke="#000" stroke-linecap="round" stroke-linejoin="round" stroke-miterlimit="10" stroke-width=".5" d="M254.02734 480.10938l1.28516 2.08984"/></g><g clip-path="url(#D)"><path fill="none" stroke="#000" stroke-linecap="round" stroke-linejoin="round" stroke-miterlimit="10" stroke-width=".5" d="M267.34766 480.33984l-7.02735-.01953"/></g><g clip-path="url(#E)"><path fill="none" stroke="#000" stroke-linecap="round" stroke-linejoin="round" stroke-miterlimit="10" stroke-width=".5" d="M267.34766 480.33984l1.14843 2.16797"/></g><g clip-path="url(#F)"><path fill="none" stroke="#000" stroke-linecap="round" stroke-linejoin="round" stroke-miterlimit="10" stroke-width=".5" d="M280.66406 480.22266l-7.02344.21484"/></g><g clip-path="url(#G)"><path fill="none" stroke="#000" stroke-linecap="round" stroke-linejoin="round" stroke-miterlimit="10" stroke-width=".5" d="M280.66406 480.22266l1.21485 2.1289"/></g><g clip-path="url(#H)"><path fill="none" stroke="#000" stroke-linecap="round" stroke-linejoin="round" stroke-miterlimit="10" stroke-width=".5" d="M293.98047 480.26563l-7.02735.125"/></g><g clip-path="url(#I)"><path fill="none" stroke="#000" stroke-linecap="round" stroke-linejoin="round" stroke-miterlimit="10" stroke-width=".5" d="M293.98047 480.26563l1.1875 2.14453"/></g><g clip-path="url(#J)"><path fill="none" stroke="#000" stroke-linecap="round" stroke-linejoin="round" stroke-miterlimit="10" stroke-width=".5" d="M307.25781 479.8164l-6.95312 1.02344"/></g><g clip-path="url(#K)"><path fill="none" stroke="#000" stroke-linecap="round" stroke-linejoin="round" stroke-miterlimit="10" stroke-width=".5" d="M307.25781 479.8164l1.45313 1.97657"/></g><g clip-path="url(#L)"><path fill="none" stroke="#000" stroke-linecap="round" stroke-linejoin="round" stroke-miterlimit="10" stroke-width=".5" d="M320.35938 479.02344l-6.52735 2.60937"/></g><g clip-path="url(#M)"><path fill="none" stroke="#000" stroke-linecap="round" stroke-linejoin="round" stroke-miterlimit="10" stroke-width=".5" d="M320.35938 479.02344l1.87109 1.58594"/></g><g clip-path="url(#N)"><path fill="none" stroke="#000" stroke-linecap="round" stroke-linejoin="round" stroke-miterlimit="10" stroke-width=".5" d="M333.33203 478.3789l-5.84375 3.90235"/></g><path fill="none" stroke="#000" stroke-linecap="round" stroke-linejoin="round" stroke-miterlimit="10" stroke-width=".5" d="M332.48438 478.94531l1.07812.58203"/><g clip-path="url(#O)"><path fill="none" stroke="#000" stroke-linecap="round" stroke-linejoin="round" stroke-miterlimit="10" stroke-width=".5" d="M346.30078 477.9375l-5.14844 4.78516"/></g><path fill="none" stroke="#000" stroke-linecap="round" stroke-linejoin="round" stroke-miterlimit="10" stroke-width=".5" d="M345.55078 478.63281l1.16016.40235"/><g clip-path="url(#P)"><path fill="none" stroke="#000" stroke-linecap="round" stroke-linejoin="round" stroke-miterlimit="10" stroke-width=".5" d="M358.39844 477.08594l-2.71485 6.48437"/></g><path fill="none" stroke="#000" stroke-linecap="round" stroke-linejoin="round" stroke-miterlimit="10" stroke-width=".5" d="M358.0039 478.03125l1.21876-.11328"/><g clip-path="url(#Q)"><path fill="none" stroke="#000" stroke-linecap="round" stroke-linejoin="round" stroke-miterlimit="10" stroke-width=".5" d="M370.33984 476.8164l.03125 7.02735"/></g><g clip-path="url(#R)"><path fill="none" stroke="#000" stroke-linecap="round" stroke-linejoin="round" stroke-miterlimit="10" stroke-width=".5" d="M380.22266 481l6.89843-1.33984"/></g><g clip-path="url(#S)"><path fill="none" stroke="#000" stroke-linecap="round" stroke-linejoin="round" stroke-miterlimit="10" stroke-width=".5" d="M381.22656 480.80469l-.77344-.95313"/></g><g clip-path="url(#T)"><path fill="none" stroke="#000" stroke-linecap="round" stroke-linejoin="round" stroke-miterlimit="10" stroke-width=".5" d="M393.67578 481.51172l6.6211-2.36328"/></g><g clip-path="url(#U)"><path fill="none" stroke="#000" stroke-linecap="round" stroke-linejoin="round" stroke-miterlimit="10" stroke-width=".5" d="M393.67578 481.51172l-1.8125-1.65235"/></g><g clip-path="url(#V)"><path fill="none" stroke="#000" stroke-linecap="round" stroke-linejoin="round" stroke-miterlimit="10" stroke-width=".5" d="M407.21875 482.01172l6.16797-3.36719"/></g><g clip-path="url(#W)"><path fill="none" stroke="#000" stroke-linecap="round" stroke-linejoin="round" stroke-miterlimit="10" stroke-width=".5" d="M407.21875 482.01172l-2.05078-1.35156"/></g><g clip-path="url(#X)"><path fill="none" stroke="#000" stroke-linecap="round" stroke-linejoin="round" stroke-miterlimit="10" stroke-width=".5" d="M420.9375 482.60156l5.35938-4.54297"/></g><g clip-path="url(#Y)"><path fill="none" stroke="#000" stroke-linecap="round" stroke-linejoin="round" stroke-miterlimit="10" stroke-width=".5" d="M433.66406 481.625l6.53125-2.59375"/></g><g clip-path="url(#Z)"><path fill="none" stroke="#000" stroke-linecap="round" stroke-linejoin="round" stroke-miterlimit="10" stroke-width=".5" d="M433.66406 481.625l-1.86719-1.58984"/></g><g clip-path="url(#aa)"><path fill="none" stroke="#000" stroke-linecap="round" stroke-linejoin="round" stroke-miterlimit="10" stroke-width=".5" d="M448.47656 483.36328l3.53906-6.07031"/></g><g clip-path="url(#ab)"><path fill="none" stroke="#000" stroke-linecap="round" stroke-linejoin="round" stroke-miterlimit="10" stroke-width=".5" d="M463.98828 483.8164l-.85156-6.97656"/></g><g clip-path="url(#ac)"><path fill="none" stroke="#000" stroke-linecap="round" stroke-linejoin="round" stroke-miterlimit="10" stroke-width=".5" d="M147.5 466.71484l-7 .59766"/></g><path fill="none" stroke="#000" stroke-linecap="round" stroke-linejoin="round" stroke-miterlimit="10" stroke-width=".5" d="M147.5 466.71484l1.33203 2.0586m11.99219-1.89844l-7.01953.28125m7.01953-.28125l1.23828 2.11719m-2.25781-2.07813l.61719 1.0586m13.70312-1.3047l-6.99219.69141m6.99219-.6914l1.35938 2.04297m-2.375-1.9414l.67968 1.02343m13.66797-.6875l-7.02344-.1836m7.02344.1836l1.09375 2.19922m-2.11719-2.22657l.55078 1.10157m13.76172-.73828l-6.97265-.85547m6.97265.85547l.88282 2.28906m-1.89453-2.41406l.4375 1.14453m13.91406-1.5664l-7.02344.23827m7.02344-.23828l1.22656 2.125m-2.2461-2.08984l.61329 1.0625m13.70703-1.32422l-6.99219.6914m6.99219-.6914l1.35937 2.04297m-2.375-1.9414l.6797 1.01952m13.60546-1.44531l-6.89844 1.33984m6.89844-1.33984l1.54297 1.90625m-2.54688-1.71094l.76953.95313m13.51954-1.27344l-6.84375 1.58984m6.84375-1.58984l1.61328 1.85156m-2.60938-1.6211l.8086.92579m13.3789-1.57422l-6.59375 2.42578m6.59375-2.42578l1.82813 1.63281m11.54687-1.45312l-6.71484 2.0664m6.71484-2.0664l1.73828 1.73047m11.60547-1.63672l-6.76953 1.8789m6.76953-1.8789l1.6875 1.78125m11.40235-2.3789l-6.32032 3.07421m6.32032-3.07422l1.98437 1.44531m10.91016-2.10546l-5.48047 4.39453m5.48047-4.39453l2.2539.96875m11-1.04297l-5.35937 4.54297m4.57812-3.88282l1.14063.45313m12.73437-1.35156l-4.91406 5.01953m4.91406-5.01953l2.35547.6914m10.20703-1.2539l-3.40625 6.14453m3.40625-6.14453l2.45313.04296m10.8711-.03906l-3.42579 6.13672m2.92578-5.24219l1.22656.02344m9.77735-1.1875l2.1914 6.67578m-1.87109-5.70312l.84766-.88672m9.84375 2.36328l6.80078 1.77734m-5.8086-1.51953l-.28515-1.1914m12.5 1.66015l7.01953.32422m-6-.27734l-.52344-1.10938M423.71875 463.5l-.20313 7.02734m.17188-6.0039l1.10156-.54297m10.67578-.16016l2.9336 6.38672m-2.5039-5.45703l.74218-.97656m10.19922 4.08984l6.82031-1.69922m-5.82813 1.44922l-.8203-.91016m16.37109 3.82032l.36718-7.01953m-.3164 5.99609l-1.10938.51953"/><g clip-path="url(#ad)"><path fill="none" stroke="#000" stroke-linecap="round" stroke-linejoin="round" stroke-miterlimit="10" stroke-width=".5" d="M147.48828 454.125l-6.97656-.85156"/></g><path fill="none" stroke="#000" stroke-linecap="round" stroke-linejoin="round" stroke-miterlimit="10" stroke-width=".5" d="M147.48828 454.125l.8789 2.28906m12.35157-1.85156l-6.8086-1.73047m6.8086 1.73047l.58594 2.38281m12.58984-1.95312l-6.53125-2.58985m6.53125 2.58985l.27344 2.4414m13.1836-2.86718l-6.8125-1.73438m5.8203 1.48047l.29297 1.1914m14.09766-1.39843l-6.98047-.8125m5.96484.69531l.44532 1.14063m13.89844-1.14453l-7.00391-.57032m7.0039.57031l.97266 2.25391m12.33594-2.8789l-6.99219.67578m6.99219-.67578l1.35547 2.04687m11.82812-2.71875l-6.73047 2.01953m6.73047-2.01953l1.72656 1.7461m11.59375-1.72657l-6.74218 1.98438m6.74219-1.98438l1.71875 1.75m11.48437-2.07812l-6.51563 2.63671m6.51563-2.63671l1.8789 1.57812m11.28516-1.89453l-6.21484 3.27344m6.21484-3.27344l2.03125 1.3789m11.17969-1.5664l-6.00781 3.64453m6.00781-3.64453l2.10938 1.25781m10.9375-1.64062l-5.46875 4.41015m5.46875-4.41015l2.2578.96484m10.80079-1.25l-4.95703 4.98438m4.95703-4.98438l2.34766.71094m10.71875-.9336l-4.46094 5.4297m4.46094-5.4297l2.40625.48438m10.82812-.55078l-4.29687 5.5625m4.29687-5.5625l2.41797.41406m11.33984-.00781l-5.1836 4.75m5.1836-4.75l2.3125.82031m-3.0664-.1289l1.15625.41015m13.05468-.9336l-5.46875 4.41407m5.46875-4.41406l2.25782.96093m11.0078-1.02343l-5.36718 4.53906m4.58594-3.8789l1.13672.45702m8.35937-1.79296l3.83203 5.89062m-3.27734-5.03515l.59375-1.07032m12.89453 6.46485l2.375-6.61328m-2.03125 5.65234l-1.21094.17578m18.58985-1.11719l-6.4414-2.8086m5.5039 2.40235l.09765 1.22266m13.9375-4.04297l-6.0039 3.64844m6.0039-3.64844l2.10938 1.2539m8.48828-2.93359l-.57031 7.0039m.57031-7.0039l2.2539-.97265m-2.33593 1.99218l1.125-.48437m10.53125-.23047l2.91016 6.39844m-2.48438-5.46875l.7461-.97266"/><g clip-path="url(#ae)"><path fill="none" stroke="#000" stroke-linecap="round" stroke-linejoin="round" stroke-miterlimit="10" stroke-width=".5" d="M147.2539 441.71484l-6.5078-2.66015"/></g><path fill="none" stroke="#000" stroke-linecap="round" stroke-linejoin="round" stroke-miterlimit="10" stroke-width=".5" d="M147.2539 441.71484l.2461 2.44141m13.0625-2.4375l-6.4961-2.67188m6.4961 2.67188l.24219 2.4414m13.0664-2.41796l-6.48047-2.71485m5.53907 2.31641l.10937 1.22266m14.22656-1.03516l-6.64062-2.29297m5.67578 1.95703l.1914 1.21485m14.03516-.73047l-6.53125-2.59375m6.53125 2.59375l.26953 2.4375m13.0586-2.47266l-6.5586-2.51953m5.60547 2.15234l.14844 1.21875m14.27734-1.39453l-6.875-1.4375m5.875 1.23047l.34375 1.17578m13.79688-2.99218l-6.52734 2.60937m5.57812-2.23047l.9375.79297m13.28906-1.26172l-6.44922 2.79297m6.44922-2.79297l1.91797 1.53125m10.6914-2.58594l-5.03905 4.89844m5.03906-4.89844l2.33594.75m10.78125-.9375l-4.64454 5.27344m4.64454-5.27344l2.38672.56641m11.42187-.03125l-5.6289 4.20703m5.6289-4.20703l2.21875 1.04297m10.95313-1.21875l-5.34766 4.5586m5.34765-4.5586l2.28516.90234m-3.0625-.23828l1.14063.44922m12.76953-1.3125l-4.98047 4.95312m4.98047-4.95312l2.34765.72266m-3.0703 0l1.17187.35937m12.98437-.95703l-5.21484 4.70703m5.21484-4.70703l2.30469.83594m-3.0625-.15235l1.15234.41797m12.78516-1.2461l-4.94531 4.9922m4.9453-4.9922l2.34767.70704m-3.06641.01953l1.17187.35547m12.47657-1.41016l-4.17579 5.64844m4.17579-5.64844l2.42968.36328m9.39454-1l-1.19532 6.92579m1.19531-6.92579l2.33204-.76953m8.2578 1.4336l4.25392 5.59375m-4.25391-5.59375l1.02734-2.22657m10.90235 4.91797l7.02734.21094m-7.02734-.21094l-1.08594-2.19922m14.40234 2.32422l7.02735-.03906m-6.00782.03516l-.58203-1.08203m12.8789.94921l7.02345.23438m-6.00391-.19922l-.53906-1.10156m17.78906-2.01953l-2.88672 6.40625m2.46485-5.47266l1.22656-.08203m12.57812-.82031l-3.02344 6.34375m2.58204-5.42188l1.22656-.05078m12.65234-.8086l-3.26562 6.22266m2.78906-5.3203l1.22656-.00392"/><g clip-path="url(#af)"><path fill="none" stroke="#000" stroke-linecap="round" stroke-linejoin="round" stroke-miterlimit="10" stroke-width=".5" d="M147.28125 428.32031l-6.5625-2.5039"/></g><path fill="none" stroke="#000" stroke-linecap="round" stroke-linejoin="round" stroke-miterlimit="10" stroke-width=".5" d="M147.28125 428.32031l.3086 2.4336m12.80077-1.98828l-6.15234-3.39454m6.15234 3.39453l-.03906 2.45313m12.99219-1.91797l-5.42969-4.46484m5.42969 4.46484l-.48438 2.40235m13.26563-1.87891l-4.35938-5.51172m4.35938 5.51172l-.98828 2.25m15.10547-3.14453l-5.96094-3.72266m5.96094 3.72266l-.17188 2.44531m13.98438-3.82031l-6.96094-.97266m5.94922.83203l.42187 1.15235m13.85938-2.2422l-6.86719 1.48829m5.86719-1.27344l.79297.9375m13.53515-1.09375l-6.89453 1.3711m5.89063-1.17188l.77734.95313m12.70313-2.82422l-5.21485 4.71484m4.45313-4.02734l1.15625.41797m13.10547-.87891l-5.58594 4.26172m5.58594-4.26172l2.23047 1.02344m11.14453-.94532l-5.70703 4.10547m5.70703-4.10547l2.19922 1.08594m11.46875-.47265l-6.41016 2.8789m6.41015-2.8789l1.9375 1.5039m10.73438-2.46875l-5.125 4.8086m5.125-4.8086l2.32031.79297m10.24219-1.39844l-3.6211 6.01953m3.6211-6.01953l2.45313.12891m-2.98047.7461l1.22656.0664m13.07812-.61328l-4.54296 5.36328m4.54296-5.36328l2.39454.52344m-3.0547.2578l1.19532.26173m12.90234-.92969l-4.79296 5.13672m4.79296-5.13672l2.3711.63281m-3.0664.11328l1.18358.31641m12.29297-1.47266l-3.72265 5.95703m3.72265-5.95703l2.44922.17188m9.14453-.70313l-.27734 7.01953m.27734-7.01953l2.21094-1.0664m8.25781 2.33203l5.41016 4.48828m-4.6211-3.83594l.2461-1.19922m17.66797.51953l-5.36328 4.54297m5.36328-4.54297l2.27734.90625m11.1289-.78906l-5.54687 4.3125m5.54688-4.3125l2.24219 1m-3.04688-.375l1.11719.5039m12.47656-1.67577l-4.4961 5.40234m4.4961-5.40234l2.40235.5039m-3.0547.28125l1.19923.25391m11.76562-1.625l-2.48828 6.57422m2.48828-6.57422l2.4336-.3086m-2.79688 1.26563l1.21875-.15625m11.4961-1.01562l-.5625 7.0039m.5625-7.0039l2.2539-.97266m-2.33594 1.99219l1.1289-.48828m12.70313-.46875l-1.42968 6.8789m1.42968-6.8789l2.35547-.6875m-2.5625 1.6875l2.35547-.6875"/><g clip-path="url(#ag)"><path fill="none" stroke="#000" stroke-linecap="round" stroke-linejoin="round" stroke-miterlimit="10" stroke-width=".5" d="M147.25 415.08984l-6.5-2.67187"/></g><path fill="none" stroke="#000" stroke-linecap="round" stroke-linejoin="round" stroke-miterlimit="10" stroke-width=".5" d="M147.25 415.08984l.23828 2.44141M160.5 415.24219l-6.36719-2.97656m6.36719 2.97656l.125 2.44922m13.3164-2.76563l-6.62109-2.34765m6.6211 2.34765l.36328 2.42969m12.89844-2.28906l-6.51563-2.625m6.51563 2.625l.26171 2.4375m13.15235-4.78516l-6.71485 2.07031m6.71485-2.07031l1.73828 1.73047m10.85156-3.02344l-5.26172 4.65625m4.4961-3.98047l1.14843.42969m11.32422 1.22266l-.01953-.19922-.0586-.1914-.09374-.1797-.46094-.375-.1914-.05859-.19923-.01953-.19921.01953-.19141.0586-.46094.375-.09375.17968-.0586.1914-.01952.19923.01953.19921.0586.19141.09374.17578.46094.3789.1914.0586.19923.01953.19921-.01953.19141-.0586.46094-.3789.09375-.17578.0586-.1914.01952-.19922m13.04297 3.43359l-1.5-6.86719m1.5 6.86719l-1.8711 1.58594m17.9336-5.35547l-6.9961.67187M253 413.51562l.67578 1.02344m12.53125-3.3789l-4.74219 5.1875m4.05079-4.4336l1.1875.30469m12.48437-1.32813l-4.07422 5.72657m3.48047-4.89453l1.21875.16015m12.83203-.88672l-4.35937 5.51172m3.72656-4.70703l1.20703.21875m13.65234.0625l-6.17968 3.34375m5.28125-2.85937l1.01953.67968m12.11719-2.37109l-4.02735 5.75781m3.4414-4.92187l1.21876.15234m13.85937.41797l-6.3789 2.94531m6.3789-2.94531l1.95313 1.48437m10.75-2.39843l-5.15625 4.77343m5.15625-4.77343l2.3164.80468m11.78516.56641l-6.73047 2.03125m6.73047-2.03125l1.72656 1.74219m10.71875-3.19922l-4.99218 4.94531m4.99218-4.94531l2.34375.73047M372.125 412l1.17188.36719m11.8164-1.8164l-2.88672 6.40624m2.88672-6.40625l2.44922-.16016m-2.86719 1.08985l1.22266-.07813m13.36328-.30859l-4.59375 5.32031m4.59375-5.32031l2.39453.54687m-3.0625.22657l1.19922.27343m12.9336-.91015l-4.89063 5.04687m4.89062-5.04687l2.35938.6836m-3.07031.05077l1.17968.33985m13.10938-.79297l-5.41406 4.48047m5.41406-4.48047l2.26953.9375m8.59375-2.19922l-.51172 7.00781m.51172-7.00781l2.2461-.99219m10.70703.98438l.21093 7.02343m-.21093-7.02343l2.1328-1.21875m13.00782 1.66406l-3.4375 6.1289m3.4375-6.1289l2.45313.0586m-2.95313.83593l2.45313.05469"/><g clip-path="url(#ah)"><path fill="none" stroke="#000" stroke-linecap="round" stroke-linejoin="round" stroke-miterlimit="10" stroke-width=".5" d="M147.16797 401.95703l-6.33594-3.03906"/></g><path fill="none" stroke="#000" stroke-linecap="round" stroke-linejoin="round" stroke-miterlimit="10" stroke-width=".5" d="M146.2461 401.51563l.05077 1.22656m13.9297-.33594l-5.82423-3.9336m4.97657 3.35938l-.12891 1.22266m14.88281-2.32813l-7.0039-.57812m5.98437.4961l.48438 1.125m13.85937-1.39845l-7.02344.13282m6.00391-.11329l.59375 1.07422m13.33984-2.66015l-6.22265 3.26953m5.3164-2.79297l1.01563.6875m8.92969-2.84375l2.32812 6.6289m8.8164-2.20702l6.67188-2.21485m-5.69922 1.89063l-.89062-.84375m16.58594 3.57421l-.03516-7.02734m.03516 7.02735l-2.16016 1.16015m2.15625-2.1836l-1.08203.58204m17.71484-1.95313l-6.66015-2.23828m6.66015 2.23828l.40235 2.41797m13.0703-3.96484l-6.97655.85156m6.97656-.85156l1.40625 2.01172m11.92969-1.38281l-7.01563-.40235m7.01563.40235l1.02343 2.22656m12.26953-2.86328l-6.97265.87109m5.95703-.7461l.70703 1.00391m13.5.32031l-6.72656-2.02734m5.7461 1.73047l.24218 1.20313m14.19531-2.1836l-7.00781.52344m7.00781-.52344l1.3086 2.07422m11.49609-3.64844l-5.98828 3.67578m5.11719-3.14062l1.05859.6211m10.30078-2.82813l-.33594 7.01953m.28516-6l1.10938-.52344m15.55468 2.44531l-6.9336 1.13672m5.92579-.97265l.74219.97656m12.99219-2.58985l-5.75782 4.03125m5.75781-4.03125l2.1875 1.1172m-3.02343-.53126l2.1836 1.11719m11.46483-2.27734l-4.75 5.17968m4.75-5.17968l2.375.61718m-3.0664.13672l2.375.61719m-3.0664.13672l1.1875.3086m13.80468-1.50782l-5.34375 4.5625m5.34375-4.5625l2.28516.89844m-3.0625-.23438l1.14453.44922m13.26562-.67578l-5.97656 3.6914m5.97656-3.6914l2.1211 1.23828m-2.98829-.70312l1.0586.62109m12.57031-1.84766l-4.86719 5.07032m4.8672-5.07032l2.35937.66797m10.42968-1.08203l-3.8164 5.90235m3.8164-5.90235l2.44141.20703m-2.9961.65235l1.21876.10156m12.8125-.85156l-4.14063 5.67968m4.14063-5.67968l2.42968.34765m11.44141.16016l-5.25 4.66797"/><g clip-path="url(#ai)"><path fill="none" stroke="#000" stroke-linecap="round" stroke-linejoin="round" stroke-miterlimit="10" stroke-width=".5" d="M466.1875 398.10547l2.30078.85156"/></g><path fill="none" stroke="#000" stroke-linecap="round" stroke-linejoin="round" stroke-miterlimit="10" stroke-width=".5" d="M465.42188 398.78516l1.15234.42578"/><g clip-path="url(#aj)"><path fill="none" stroke="#000" stroke-linecap="round" stroke-linejoin="round" stroke-miterlimit="10" stroke-width=".5" d="M147.1289 388.72656l-6.2578-3.20312"/></g><path fill="none" stroke="#000" stroke-linecap="round" stroke-linejoin="round" stroke-miterlimit="10" stroke-width=".5" d="M146.21875 388.25781l.01563 1.22656m12.73437.73829l-3.3086-6.19922m2.82813 5.29687l-.6875 1.01953m16.17578-2.14062l-6.6914-2.15235m17.66406-2.28906l-2.00781 6.73438m1.71484-5.75781l1.20313-.2422m9.28906-.17577l4.22265 5.61328m-4.22265-5.61328l1.03906-2.22266m12.0625 2.39453l4.65234 5.26953m-3.97656-4.5l.42969-1.14844m16.23437 6.08985l-3.39843-6.15235m2.90234 5.25782l-.66797 1.02734m16.28125-3.48047l-7.0039.54297m5.98437-.46094l.66016 1.03516m13.2539.83984l-6.16406-3.37109m6.16406 3.3711l-.02734 2.45312m13.60937-3.0664l-6.6953-2.14063m6.6953 2.14062l.4375 2.41406m13.04297-3.41796l-7.02734-.13672m7.02734.13672l1.10938 2.1875m11.98047-3.4922l-6.57813 2.47267m6.57813-2.47266l1.83984 1.6211m11.57422-1.32032l-6.77344 1.875m6.77344-1.875l1.6875 1.77734m11.7539-.88671l-7.02734.08984m7.02734-.08985l1.1797 2.15235m11.79687-3.61328l-6.34766 3.01172m6.34766-3.01172l1.96875 1.46484m-2.89453-1.02734l.98437.73047m13.59375.23828l-7.02344.19922m7.02344-.19922l1.21484 2.13281m-2.23828-2.10547l.60938 1.0664m13.34765-2.58593l-6.26171 3.1836m6.26171-3.1836l2.01172 1.41016m-2.92187-.94532l1.0039.70313m12.91407-1.66797l-5.64844 4.1836m5.64844-4.1836l2.21484 1.0586m-3.03516-.44923l2.21485 1.0547m11.6914-1.94141l-5.1875 4.74218m5.1875-4.74218l2.3125.8203m-3.0703-.1328l1.15624.41015m12.9336-1.07812l-5.22266 4.70312m5.22266-4.70312l2.30468.83594m-3.0664-.15235l2.3086.83594m11.01952-2.14844l-3.72656 5.95703m3.72656-5.95703l2.44531.17188m-2.98828.6953l1.22266.08595m12.58984-.98047l-3.6328 6.01562m3.6328-6.01562l2.44922.13281m10.47266-.33984l-2.84766 6.42578m2.84766-6.42578l2.44922-.17188m-2.86328 1.10938l1.22265-.08985m13.91797.28906l-5.67187 4.15235m5.67187-4.15235l2.21094 1.07032m10.39062-1.79297l-4.24218 5.60156"/><g clip-path="url(#ak)"><path fill="none" stroke="#000" stroke-linecap="round" stroke-linejoin="round" stroke-miterlimit="10" stroke-width=".5" d="M465.6836 384.32422l2.42187.38672"/></g><path fill="none" stroke="#000" stroke-linecap="round" stroke-linejoin="round" stroke-miterlimit="10" stroke-width=".5" d="M465.0664 385.13672l1.21094.19531"/><g clip-path="url(#al)"><path fill="none" stroke="#000" stroke-linecap="round" stroke-linejoin="round" stroke-miterlimit="10" stroke-width=".5" d="M146.80078 375.92969l-5.60156-4.24219"/></g><path fill="none" stroke="#000" stroke-linecap="round" stroke-linejoin="round" stroke-miterlimit="10" stroke-width=".5" d="M158.9961 376.89453l-3.35938-6.17187m18.28516 4.3125l-6.58204-2.45704m16.08594-2.24609l1.03906 6.94922m-1.03906-6.94922l1.97266-1.45703m9.30469 2.52344l5.11328 4.82031m-5.11328-4.82031l.64843-2.36719m12.24219 2.91797l5.96094 3.71875m-5.96094-3.71875l.17188-2.44922m18.5664 6.83203l-4.88281-5.05078m4.17187 4.3164l-.375 1.16798m14.35938-.39063l-4.80078-5.13281m4.80078 5.13281l-.79688 2.32031m14.57813-2.85547l-5.73438-4.0625m4.90235 3.47266l-.16016 1.21484m14.52344-.96875l-6.16406-3.375m6.16406 3.375l-.02735 2.45313m13.72266-3.54688l-6.92578-1.1875m6.92578 1.1875l.76953 2.33204m12.59766-2.96485l-7.02734.07813m7.02734-.07813l1.17578 2.15625m-2.19922-2.14453l.58594 1.07813m13.6875-1.71485l-6.89844 1.32813m6.89844-1.32813l1.54297 1.90625m-2.54688-1.71484l.76953.95703m13.44141-1.5664l-6.6836 2.16406m6.6836-2.16407l1.76563 1.70703m-2.73829-1.39062l.88282.85156m13.42187-1.11719l-6.71875 2.0625m6.71875-2.0625l1.73828 1.73438m-2.71484-1.4336l.86719.8672m13.5625-.47266l-6.9922.67187m6.9922-.67187l1.35547 2.04296m-2.3711-1.9453l1.35156 2.04296m12.96875-2.23437l-6.97265.85937m6.97265-.85937l1.41016 2.01171m-2.42578-1.88671l1.41016 2.01171m12.6875-3.03125l-6.50782 2.64844m6.50782-2.64844l1.88671 1.57032m-2.83203-1.1875l1.88282 1.57422m12.03906-2.59766l-5.82813 3.92969m5.82813-3.92969l2.16406 1.15234m-3.01172-.57812l1.08203.57422m13.01172-1.2461l-5.6914 4.125m5.6914-4.125l2.20313 1.07813m-3.03125-.47656l1.10156.53515m12.9961-1.19531L407.5 375.92969m5.60156-4.24219l2.22657 1.03125m-3.03907-.41406l1.10938.51562m13.09375-1.03125l-5.75 4.03906m5.75-4.03906l2.1875 1.10938m10.6875-1.6211l-4.875 5.0625m4.875-5.0625l2.36328.67188m-3.07031.0664l1.17968.33594m13.32422-.5l-5.83593 3.91406m5.83593-3.91406l2.16407 1.15625m9.94921-2.26562l-3.43359 6.13281m3.4336-6.13281l2.45312.05469"/><g clip-path="url(#am)"><path fill="none" stroke="#000" stroke-linecap="round" stroke-linejoin="round" stroke-miterlimit="10" stroke-width=".5" d="M141.63672 363.09375l4.72656-5.19922"/></g><path fill="none" stroke="#000" stroke-linecap="round" stroke-linejoin="round" stroke-miterlimit="10" stroke-width=".5" d="M156.41797 363.89063l1.79297-6.79297m-1.53125 5.80468l-1.19531.28125m14.1289.67188l2.03516-6.72656m-1.74219 5.75l-1.20313.23437m18.7422-2.3086l-7-.625m5.98046.53516l.47656 1.12891m7.08203-.08203l6.55079-2.53906m-5.59766 2.17187l-.92969-.80469m15.91797-3.55078l1.30078 6.90625m-1.11328-5.89844l.95703-.76953M226.35547 363l-4.92969-5.01172m4.21094 4.28125l-.36719 1.17188m14.01563-.1172l-4.16016-5.66015m4.16016 5.66016l-1.0625 2.21094m14.57422-2.36329l-4.55079-5.35546m3.88672 4.57421l-.45312 1.14063m15.30078-1.47266l-6.28906-3.1289m6.28906 3.1289l.0664 2.45313m-.98046-2.91016l.03515 1.22656m14.22657-.83203l-6.35157-3.0078m6.35157 3.0078l.11328 2.45313m-1.03907-2.89063l.0586 1.22657m14.2461-.94141l-6.48438-2.70313m6.48437 2.70313l.23047 2.44531m-1.17187-2.83594l.11328 1.21875m14.35547-1.53125l-6.90625-1.29687m6.90625 1.29688l.73046 2.34375m-1.73437-2.53125l.36328 1.17187m14.01563-1.63281h-7.02735m7.02735 0l1.15234 2.16797m-2.17578-2.16797l1.15234 2.16797m13.17969-1.94141l-7.01172-.45313m7.01172.45313l1.00781 2.23828m-2.02734-2.30469l.5039 1.1211m13.82032-1.63672l-6.9922.71094m6.9922-.71094l1.36328 2.03906m-2.38281-1.9336l.68359 1.01954m13.63281-1.2539l-6.95703.96874m6.95703-.96875l1.4414 1.98828m-2.45312-1.84765l.71875.9961m13.54688-1.46485l-6.83594 1.625m6.83594-1.625l1.6211 1.84375m-2.61329-1.60547l1.6211 1.83984m-2.6172-1.60547l.8125.92188m14.0547-2.4375l-5.96485 3.71484m5.96484-3.71484l2.125 1.22656m-2.99218-.6875l2.125 1.23047m-2.9922-.6914l1.0625.61718m13.69532-2.09765l-5.3789 4.51953m5.3789-4.51954l2.27735.91797m-3.0586-.26171l2.27344.91796m11.82031-1.57812l-5.375 4.52734m5.375-4.52734l2.27735.91406m-3.0586-.25781l2.27735.91406m11.9375-1.42187l-5.60938 4.23046m5.60938-4.23046l2.22265 1.03515m10.49219-1.65625l-4.41016 5.46875m4.41016-5.46875l2.41016.46485m11.67187.39843l-5.94531 3.7422m5.94531-3.7422l2.1289 1.21875m10.9336-1.5703l-5.4414 4.4453"/><g clip-path="url(#an)"><path fill="none" stroke="#000" stroke-linecap="round" stroke-linejoin="round" stroke-miterlimit="10" stroke-width=".5" d="M466.28125 358.26953l2.26563.94922"/></g><g clip-path="url(#ao)"><path fill="none" stroke="#000" stroke-linecap="round" stroke-linejoin="round" stroke-miterlimit="10" stroke-width=".5" d="M140.79297 348.61328l6.41406-2.8711"/></g><path fill="none" stroke="#000" stroke-linecap="round" stroke-linejoin="round" stroke-miterlimit="10" stroke-width=".5" d="M158.33594 347.17969l-.01953-.19922-.0586-.19531-.09375-.17579-.45703-.375-.1914-.05859-.19922-.01953-.19922.01953-.19531.0586-.45704.375-.09375.17578-.05859.1953-.01953.19923.01953.19922.0586.1914.09374.17578.45703.375.19532.0586.19922.01953.19922-.01953.1914-.0586.45703-.375.09375-.17578.0586-.1914.01953-.19922m8.78515-.17578l7.01953.34765m-6-.29687l-.51953-1.10938m13.4375 3.23828l5.77344-4.0078m-4.9336 3.42187l-1.08984-.5586m17.15625 2.58203l-1.40625-6.88671m1.19922 5.8828l-.94531.78126m14.17188.26953l-.81641-6.98047m.69531 5.96484l-1.00781.69922m13.01562.1875l2.03907-6.72265m-1.7422 5.74609l-1.20312.23828m16.33594.71485l-2.1914-6.67579m2.1914 6.67579l-1.69922 1.76953m16.85156-3.17188l-5.86718-3.8711m5.86719 3.8711l-.23047 2.4414m13.32812-2.14843l-5.4336-4.45703m5.4336 4.45703l-.48047 2.40625m-.3086-3.05469l-.24218 1.20313m14.27735-.47266l-5.29297-4.6211m5.29297 4.6211l-.5547 2.39063m14.10157-2.6875l-5.75781-4.02735m5.75781 4.02735l-.29687 2.4375m-.53907-3.02344l-.14843 1.21875m14.60546-1.16016l-6.36718-2.96875m6.36718 2.96875l.12891 2.44922m-1.05469-2.88281l.0625 1.22656m14.47266-1.76953l-6.95313-1.01953m6.95313 1.01953l.82422 2.3086m-1.83594-2.45704l.82422 2.3125m13.48437-3.29297l-6.91796 1.23829m6.91796-1.23829l1.51563 1.9297m-2.52344-1.75l1.51563 1.92968m12.6289-2.74219l-6.5664 2.5039m6.5664-2.5039l1.84766 1.61719m-2.80078-1.25l.92187.80469m13.46094-.81641l-6.79297 1.79297m6.79297-1.79297l1.66797 1.80078m-2.65625-1.53906l.83594.89844m13.57422-.51563l-7.00782.5039m7.00782-.5039l1.30468 2.07813M372.83984 347l.65235 1.03906m13.57422-1.76562l-6.78907 1.8086m6.78907-1.8086l1.67187 1.79687m-2.66015-1.53515l.83593.89843m13.33203-1.5664l-6.51953 2.625m6.51953-2.625l1.87891 1.57812m-2.82812-1.19922l1.8789 1.58204m12.21875-2.31641l-6.1875 3.33203m6.1875-3.33203l2.04297 1.36328m-2.9414-.8789l2.03906 1.36327m11.1914-2.98828l-4.22265 5.6172m4.22265-5.6172l2.42578.37891m-3.03906.4375l2.42188.3789m11.57812-1.14062l-4.36328 5.5039m4.36328-5.5039l2.41406.4414m-3.04687.35938l1.20703.22266m13.67578.10547l-6.23437 3.2461m6.23437-3.2461l2.02344 1.39062m11.36328-1.23828l-6.3789 2.94531"/><g clip-path="url(#ap)"><path fill="none" stroke="#000" stroke-linecap="round" stroke-linejoin="round" stroke-miterlimit="10" stroke-width=".5" d="M466.75 345.70703l1.95703 1.48438"/></g><path fill="none" stroke="#000" stroke-linecap="round" stroke-linejoin="round" stroke-miterlimit="10" stroke-width=".5" d="M465.82422 346.13281l.97656.74219"/><g clip-path="url(#aq)"><path fill="none" stroke="#000" stroke-linecap="round" stroke-linejoin="round" stroke-miterlimit="10" stroke-width=".5" d="M140.8711 335.46094l6.2578-3.19531"/></g><path fill="none" stroke="#000" stroke-linecap="round" stroke-linejoin="round" stroke-miterlimit="10" stroke-width=".5" d="M153.91016 334.72266l6.8125-1.71875m-5.82422 1.46875l-.82422-.91016m13.26172-.91797l6.58984 2.4375M168.29297 333l-.16406-1.21484m12.82812.23046l5.97656 3.69532m-5.10547-3.16016l.07813-1.22265M193.75 333.6875l7.01953.35156m-5.9961-.30078l-.52343-1.10937m17.71484 4.46093l-2.77734-6.45312m2.3711 5.51562l-.76563.95704m15.78516-.98438l-5.37891-4.52344m5.3789 4.52344l-.51171 2.39844m13.13672-1.76953l-3.9961-5.78125m3.9961 5.78125l-1.125 2.17968m14.4375-2.17968l-3.98829-5.78125m3.98828 5.78125l-1.1289 2.17968m15.1289-2.79687l-5.35937-4.54688m5.35938 4.54688l-.52344 2.39844m14.14062-2.81641l-5.96484-3.71484m5.96484 3.71484l-.16797 2.44922m-.69922-2.98828l-.08593 1.22265m14.23828-.6328l-5.90625-3.8125m5.90625 3.8125l-.20703 2.4414m-.65235-2.9961l-.10156 1.22266m14.53125-1.14063l-6.41406-2.86718m6.41406 2.86719l.16797 2.44921m13.19922-2.5703l-6.51953-2.625m6.51953 2.625l.25781 2.4414m-1.20703-2.82422l.1289 1.22265m14.26954-1.24609l-6.78907-1.8125m6.78907 1.8125l.55468 2.39063m-1.54296-2.65625l.27734 1.1953m14.1211-2.2539l-6.97657.83594m6.97656-.83594l1.40235 2.01563m-2.41797-1.89453l.69922 1.0078m13.46875-1.83983l-6.65235 2.2578m6.65235-2.2578l1.78906 1.67968m11.63281-1.29297l-6.86719 1.48438m6.8672-1.48438l1.58593 1.8711m11.11719-3.22266l-5.64063 4.1875m5.64063-4.1875l2.21484 1.05078m-3.03516-.4414l1.10938.52343m13.04687-1.10546l-5.68359 4.1328m5.6836-4.1328l2.20703 1.07421m11.75.53516l-6.96875.91406m6.96875-.91406l1.42578 1.9961m11.1875-3.6875l-5.5625 4.29687m5.5625-4.29688l2.23437 1.01172m-3.04297-.38672l1.1172.50391m12.125-1.9375l-3.80079 5.91406m3.80078-5.91406l2.44531.20313m-3 .65625l1.22266.10156m13.92578.5l-6.35937 2.99219m6.35937-2.9922l1.96484 1.46876M452.5 332.80078l.98437.73828m13.45704-.63281l-6.76172 1.91406"/><g clip-path="url(#ar)"><path fill="none" stroke="#000" stroke-linecap="round" stroke-linejoin="round" stroke-miterlimit="10" stroke-width=".5" d="M466.9414 332.90625l1.69923 1.77344"/></g><path fill="none" stroke="#000" stroke-linecap="round" stroke-linejoin="round" stroke-miterlimit="10" stroke-width=".5" d="M465.95703 333.1836l1.69922 1.77343"/><g clip-path="url(#as)"><path fill="none" stroke="#000" stroke-linecap="round" stroke-linejoin="round" stroke-miterlimit="10" stroke-width=".5" d="M140.66016 321.64063l6.67968-2.1875"/></g><path fill="none" stroke="#000" stroke-linecap="round" stroke-linejoin="round" stroke-miterlimit="10" stroke-width=".5" d="M155.50781 323.5625l3.61328-6.02734m-3.08593 5.14843l-1.22657-.0625m12.51953-.875l6.60547-2.39453m-5.64453 2.04688l-.91015-.82422m13.64062 1.91797l5.85156-3.89063m-5 3.32422l-1.07812-.58203m19.84375.17969l-6.7539-1.94922m6.7539 1.94922l.5039 2.39844m12.82813-2.46094l-6.78516-1.82813m6.78516 1.82813l.54688 2.39453m12.8828-3.48047l-7.01562.34766m7.01563-.34766l1.25781 2.10547m12.03125-1.46485l-6.96484-.93359m6.96484.9336l.85547 2.29687m11.50781-.32813l-5.0586-4.875m5.0586 4.875l-.67578 2.35938m-.0625-3.0664l-.33594 1.17968m14.19531-.28515l-4.67187-5.2461m4.67188 5.2461l-.85157 2.30078m14.23438-2.36329l-4.8086-5.12109m4.8086 5.1211l-.78907 2.32421m14.48438-2.74218l-5.5664-4.28907m5.5664 4.28907l-.41016 2.41796m-.40234-3.04296l-.20313 1.21093m14.33204-.58984l-5.57422-4.28125m5.57422 4.28125l-.40625 2.42188m14.35546-3.76172l-6.83984-1.59766m6.83985 1.59766l.6328 2.37109m-1.625-2.60547l.3125 1.1875m14.08985-1.69531l-7.02734-.11328m7.02734.11328l1.11328 2.1836m12.16797-2.72266l-6.96094.96484m6.96094-.96484l1.4375 1.98828m11.17969-3.65235l-5.5664 4.29297m4.7578-3.66797l1.1172.50391m13.26562-.74219l-6.08203 3.51953m6.08203-3.51953l2.08203 1.29688m11.07422-1.54688l-5.76563 4.01563m5.76563-4.01563l2.1836 1.1211m9.78515-2.27344l-3.07422 6.32031m3.07422-6.32031l2.45312-.08594m10.77344.04688l-2.89844 6.40234m2.89844-6.40234l2.44922-.15625m9.8164-.13282l-.80078 6.98047m12.26954-6.6914l2.89453 6.40234m14.11328-5.90234L448 323.25m4.49219-5.40234l2.40234.5m11.35938-.0547l-5.38672 4.51173"/><g clip-path="url(#at)"><path fill="none" stroke="#000" stroke-linecap="round" stroke-linejoin="round" stroke-miterlimit="10" stroke-width=".5" d="M466.2539 318.29297l2.27344.91797"/></g><path fill="none" stroke="#000" stroke-linecap="round" stroke-linejoin="round" stroke-miterlimit="10" stroke-width=".5" d="M465.47266 318.94922l1.13671.46094"/><path fill="#00f" fill-rule="evenodd" d="M388.23828 472.08594h8.61719V461.9414h-8.61719v10.14453"/><path fill="azure" fill-rule="evenodd" d="M390.07031 463.77344h.83594v2.82422h3.28516v-2.82422h.83203v6.48047h-.83203v-2.91797h-3.28516v2.91797h-.83594v-6.48047"/><path fill="#00f" fill-rule="evenodd" d="M383.80078 436.57813h8.61719v-10.14454h-8.61719v10.14454"/><path fill="azure" fill-rule="evenodd" d="M385.63281 428.26563h.83203v2.82421h3.28907v-2.82421h.83203v6.48046h-.83203v-2.91406h-3.28907v2.91406h-.83203v-6.48046"/><path fill="#00f" fill-rule="evenodd" d="M224.01953 418.82813h8.61719v-10.14844h-8.61719v10.14844"/><path fill="azure" fill-rule="evenodd" d="M225.85156 410.51172h.83594v2.82422h3.28516v-2.82422h.83203v6.48047h-.83203v-2.91406h-3.28516v2.91406h-.83594v-6.48047"/><path fill="#ff3030" fill-rule="evenodd" d="M371.17969 418.82813h7.6914v-10.14844h-7.6914v10.14844"/><path fill="azure" fill-rule="evenodd" d="M373.01172 410.51172h.83594v5.74219h3.1914v.73828h-4.02734v-6.48047"/><path fill="#ff3030" fill-rule="evenodd" d="M291.28906 405.51172h7.6914v-10.14453h-7.6914v10.14453"/><path fill="azure" fill-rule="evenodd" d="M293.1211 397.19922h.83593v5.73828h3.1914v.74219h-4.02734v-6.48047"/><path fill="#ff3030" fill-rule="evenodd" d="M206.96094 361.1289h7.6914v-10.14843h-7.6914v10.14844"/><path fill="azure" fill-rule="evenodd" d="M208.79297 352.8164h.83203v5.73829h3.19531v.73828h-4.02734v-6.47656"/><path fill="#ffffe0" fill-rule="evenodd" d="M346.1836 384.34375h22.17968v-10.1914H346.1836v10.1914"/><path fill-rule="evenodd" d="M349.6836 375.98438h.5078v6.29687h-.78906v-4.49219h-1.38671v-.55469l.55859-.0664.2539-.05078.23047-.08985.20313-.14453.17187-.20703.14063-.29687.10937-.39454m4.8125 0l.23047.01954.21875.05468.20703.08985.19532.1211.18359.14843.17188.17578.30078.42188.24609.49218.17969.54688.10937.57812.03906.58985-.03906.59375-.10937.58593-.17969.5547-.2461.5-.30077.42968-.17188.17969-.1836.15234-.1953.125-.20704.08984-.21875.0586-.23047.01953-.23046-.01953-.21875-.0586-.20704-.08984-.1953-.125-.1875-.15234-.16798-.1797-.30469-.42968-.24218-.5-.17969-.55469-.11328-.58593-.03516-.59375h.83203l.02735.5664.08203.5039.1289.44142.16016.375.1914.30078.21094.22265.22266.13672.22656.04688.22657-.04688.22265-.13672.21094-.22265.1914-.30079.16016-.375.125-.4414.08203-.5039.03125-.56641-.03125-.5586-.08203-.5-.125-.4375-.16015-.36328-.19141-.29297-.21094-.21484-.22265-.13281-.22657-.04297-.22656.04297-.22265.1328-.21094.21485-.1914.29297-.16017.36328-.1289.4375-.08203.5-.02735.5586h-.83203l.03516-.58985.11328-.57812.17969-.54688.24219-.49219.30468-.42187.16797-.17578.1875-.14844.19531-.1211.20704-.08984.21875-.05468.23046-.01954m5.08985 0h.51172v6.29688h-.78907v-4.49219h-1.38671v-.55469l.55859-.0664.2539-.05078.22657-.08985.20312-.14453.17578-.20703.14063-.29687.10547-.39454m2.82422 2.17579h.78515l.02344-.31641.0586-.28516.09765-.2539.14063-.21485.17968-.17578.22266-.1289.26562-.07813.3086-.02734.23828.01953.22265.0625.20704.10156.17578.14063.15234.17187.11328.20703.07031.23438.02344.26562-.01953.26953-.0664.22266-.10938.1914-.15625.17188-.19922.16406-.25.16407-.63281.39062-.53906.3125-.4375.3164-.34375.32423-.26563.33593-.1914.35157-.125.37109-.06641.39063-.02344.42187h4.21485v-.74219h-3.33204l.08204-.28515.11328-.23438.14843-.20312.1875-.1797.23047-.17187.27735-.17578.71875-.41797.41406-.20312.34765-.23047.28125-.2539.21875-.26563.16407-.27735.10937-.28515.0625-.28516.02344-.28125-.04297-.38281-.1211-.34766-.1875-.30859-.25-.26172-.30468-.21484-.34375-.15625-.38281-.09766-.40625-.03515-.4336.03125-.39843.10156-.35547.16406-.30469.23438-.2461.30468-.1875.375-.11718.44531-.03906.51954"/><path fill="#ffffe0" fill-rule="evenodd" d="M199.71484 335.76953h22.1836v-10.1914h-22.1836v10.1914"/><path fill-rule="evenodd" d="M203.21484 327.41016h.51172v6.29687h-.78906v-4.49219h-1.38672v-.55468l.5586-.06641.2539-.05078.22656-.08985.20313-.14453.17578-.20703.14063-.29687.10546-.39453m4.81641 0l.22656.01953.21875.05469.21094.08984.19531.1211.1836.14843.17187.17578.30078.42188.24219.49218.17969.54688.11328.57812.03906.59375-.03906.58985-.11328.58594-.17969.55468-.24219.5-.30078.42969-.17187.17969-.1836.15234-.19531.125-.21094.08985-.21875.05859-.22656.01953-.23047-.01953-.21875-.0586-.20703-.08984-.19922-.125-.1836-.15234-.17187-.17969-.30078-.42969-.24219-.5-.17968-.55469-.11328-.58593-.03907-.58985h.83594l.02734.5625.08203.50391.125.44531.16407.3711.1914.30078.21094.22265.22266.13672.22656.04688.22656-.04688.22266-.13672.21094-.22265.1875-.30078.16406-.3711.125-.44531.08203-.5039.03125-.5625-.03125-.5625-.08203-.5-.125-.4375-.16406-.36329-.1875-.29297-.21094-.21484-.22266-.13281-.22656-.04297-.22656.04297-.22266.13281-.21094.21484-.1914.29297-.16406.36328-.125.4375-.08204.5-.02734.5625h-.83594l.03906-.59375.11329-.57812.17968-.54688.2422-.49218.30077-.42188.17188-.17578.1836-.14844.19921-.1211.20703-.08983.21875-.0547.23047-.01952m5.08984 0h.50782v6.29687h-.78516v-4.49219h-1.39063v-.55468l.5625-.06641.25-.05078.23047-.08985.20313-.14453.17578-.20703.14063-.29687.10546-.39453m2.82422 2.17578h.78516l.01953-.3164.0586-.28517.10156-.2539.14062-.21485.17969-.17578.22266-.1289.26562-.07813.3086-.02734.23827.01953.22266.0625.20313.10156.17968.14063.14844.17187.11328.20703.07422.23438.02344.26562-.02344.26954-.0625.22265-.11328.1914-.15234.17188-.20313.16406-.2461.16407-.6328.39062-.53907.3125-.4375.3164-.34765.32423-.26172.33594-.1914.35156-.125.3711-.06642.39062-.02343.42187h4.21484v-.74219h-3.33594l.08594-.28515.11328-.23438.14844-.20312.1875-.17969.23047-.17188.27734-.17578.71875-.41796.41406-.20313.34375-.23047.28125-.2539.22266-.26563.16016-.27734.11328-.28516.0625-.28516.01953-.28125-.03906-.3828-.1211-.34767-.1914-.30859-.25-.26172-.30078-.21484-.34766-.15625-.3789-.09766-.40626-.03515-.43359.03125-.39844.10156-.35547.16406-.30468.23438-.25.30468-.1836.375-.11719.44532-.03906.51953"/><path fill="#ffffe0" fill-rule="evenodd" d="M195.27734 385.625h22.1797v-10.1914h-22.1797v10.1914"/><path fill-rule="evenodd" d="M198.77734 377.26563h.50782v6.29687H198.5v-4.49219h-1.39063v-.55469l.5625-.0664.25-.05078.23047-.08985.20313-.14453.17578-.20703.14063-.29687.10546-.39454m4.8125 0l.23047.01954.21875.05468.20703.08985.19922.1211.1836.14843.17187.17578.30078.42188.24219.49218.17969.54688.11328.57812.03906.58985-.03906.59375-.11328.58593-.17969.5547-.24219.5-.30078.42968-.17187.17969-.1836.15234-.19922.125-.20703.08984-.21875.0586-.23047.01953-.22656-.01953-.21875-.0586-.21094-.08984-.1953-.125-.1836-.15234-.17188-.1797-.30078-.42968-.24219-.5-.18359-.55469-.10938-.58593-.03906-.59375h.83203l.03125.5664.08203.5039.125.44142.16407.375.1875.30078.21094.22265.22265.13672.22656.04688.22657-.04688.22265-.13672.21094-.22265.1914-.30079.16407-.375.125-.4414.08203-.5039.02734-.56641-.02734-.5586-.08203-.5-.125-.4375-.16406-.36328-.19141-.29297-.21094-.21484-.22265-.13281-.22657-.04297-.22656.04297-.22266.1328-.21093.21485-.1875.29297-.16406.36328-.125.4375-.08204.5-.03125.5586h-.83203l.03906-.58985.10938-.57812.1836-.54688.24218-.49219.30078-.42187.17188-.17578.1836-.14844.1953-.1211.21094-.08984.21875-.05468.22656-.01954m5.09375 0h.50782v6.29688h-.78516v-4.49219h-1.39063v-.55469l.5625-.0664.25-.05078.23047-.08985.20313-.14453.17187-.20703.14453-.29687.10547-.39454m2.82422 2.17579h.78516l.01953-.31641.0586-.28516.10156-.2539.13672-.21485.18359-.17578.22266-.1289.26562-.07813.3086-.02734.23827.01953.22266.0625.20313.10156.17968.14063.14844.17187.11328.20703.07031.23438.02735.26562-.02344.26953-.0664.22266-.10938.1914-.15234.17188-.20313.16406-.2461.16407-.6328.39062-.53907.3125-.4375.3164-.34765.32423-.26172.33593-.1914.35157-.125.37109-.07032.39063-.01953.42187h4.21094v-.74219h-3.33204l.08203-.28515.1172-.23438.14452-.20312.1875-.1797.23047-.17187.28125-.17578.71485-.41797.41797-.20312.34375-.23047.28125-.2539.21875-.26563.16406-.27735.11328-.28515.0625-.28516.01953-.28125-.04297-.38281-.11719-.34766-.1914-.30859-.25-.26172-.30078-.21484-.34766-.15625-.3789-.09766-.40626-.03515-.4375.03125-.39843.10156-.35157.16406-.30468.23438-.25.30468-.1836.375-.11719.44531-.03906.51954"/><path fill="#ffffe0" fill-rule="evenodd" d="M208.59375 461.82813h22.17969V451.6328h-22.17969v10.19531"/><path fill-rule="evenodd" d="M212.09375 453.46875h.50781v6.29297h-.78515v-4.48828h-1.39063v-.55469l.5586-.0664.2539-.0547.23047-.08984.20313-.14062.17187-.21094.14453-.29297.10547-.39453m4.8125 0l.23047.01953.21875.05469.20703.08984.19531.1211.1836.14843.17187.17579.30469.41796.24219.4961.17968.54687.10938.57813.03906.58984-.03906.59375-.10938.58594-.17968.55078-.2422.5039-.30468.42579-.17187.17969-.1836.15625-.19531.12109-.20703.09375-.21875.05469-.23047.01953-.23047-.01953-.21875-.0547-.20703-.09374-.19531-.1211-.1836-.15625-.17187-.17968-.30469-.42578-.24219-.50391-.17968-.55078-.10938-.58594-.03906-.59375h.83203l.03125.5625.07813.50781.1289.44141.16016.375.1914.30078.21094.22266.22266.13672.22656.04687.22656-.04687.22266-.13672.21094-.22266.1914-.30078.16016-.375.1289-.4414.08204-.50782.02734-.5625-.02734-.5625-.08203-.5-.12891-.4336-.16016-.36718-.1914-.29297-.21094-.21094-.22266-.1328-.22656-.04688-.22656.04687-.22266.13281-.21094.21094-.1914.29297-.16016.36719-.1289.4336-.07813.5-.03125.5625h-.83203l.03906-.58985.10938-.57813.17968-.54687.2422-.4961.30468-.41796.17187-.17579.1836-.14843.19531-.1211.20703-.08984.21875-.05469.23047-.01953m5.08984 0h.51172v6.29297h-.78906v-4.48828h-1.38672v-.55469l.5586-.0664.2539-.0547.22656-.08984.20703-.14062.17188-.21094.14063-.29297.10546-.39453m2.82422 2.17578h.78906l.01954-.3164.05859-.28907.09766-.25.14062-.21484.1836-.17578.22265-.1289.26563-.08204.30468-.02734.23828.02343.22657.0625.20312.10157.17969.13671.14844.17579.11328.20312.07031.23828.02734.26563-.02343.26562-.0664.22656-.10938.19141-.15625.17188-.19922.16015-.2461.16797-.63672.38672-.53515.3164-.4375.31641-.34766.32422-.26562.33594-.1875.35156-.125.36719-.07031.39453-.01954.41797h4.21094v-.73828h-3.33203l.08203-.28516.11328-.23828.14844-.19922.1875-.17969.23047-.17187.27734-.17578.71875-.41797.41406-.20703.34766-.23047.28125-.25.21875-.26563.16406-.28125.10938-.28125.0664-.28515.01954-.28125-.04297-.38281-.1211-.34766-.1875-.3086-.25-.26171-.30468-.21485-.34375-.15625-.38282-.10156-.40625-.03125-.43359.03125-.39844.09766-.35547.16796-.30468.23438-.2461.30469-.1875.375-.11328.44531-.04297.51953"/></g></defs><use xlink:href="#au"/></svg>