<svg xmlns="http://www.w3.org/2000/svg" role="img" xmlns:xlink="http://www.w3.org/1999/xlink" viewBox="142.45 309.95 326.84 171.84"><defs><clipPath id="a"><path d="M144 311.67188h1v168.65625h-1zm0 0"/></clipPath><clipPath id="b"><path d="M144 311.67188h324v168.65625H144zm0 0"/></clipPath><clipPath id="c"><path d="M467 311.67188h1v168.65625h-1zm0 0"/></clipPath><clipPath id="d"><path d="M144 480h4v.32813h-4zm0 0"/></clipPath><clipPath id="e"><path d="M147 480h2v.32813h-2zm0 0"/></clipPath><clipPath id="f"><path d="M146 480h2v.32813h-2zm0 0"/></clipPath><clipPath id="g"><path d="M153 480h9v.32813h-9zm0 0"/></clipPath><clipPath id="h"><path d="M160 480h3v.32813h-3zm0 0"/></clipPath><clipPath id="i"><path d="M159 480h2v.32813h-2zm0 0"/></clipPath><clipPath id="j"><path d="M166 479h9v1.32813h-9zm0 0"/></clipPath><clipPath id="k"><path d="M173 479h3v1.32813h-3zm0 0"/></clipPath><clipPath id="l"><path d="M172 479h2v1.32813h-2zm0 0"/></clipPath><clipPath id="m"><path d="M180 479h8v1.32813h-8zm0 0"/></clipPath><clipPath id="n"><path d="M187 479h2v1.32813h-2zm0 0"/></clipPath><clipPath id="o"><path d="M193 479h9v1.32813h-9zm0 0"/></clipPath><clipPath id="p"><path d="M200 479h3v1.32813h-3zm0 0"/></clipPath><clipPath id="q"><path d="M206 479h9v1.32813h-9zm0 0"/></clipPath><clipPath id="r"><path d="M213 479h3v1.32813h-3zm0 0"/></clipPath><clipPath id="s"><path d="M220 479h8v1.32813h-8zm0 0"/></clipPath><clipPath id="t"><path d="M227 479h2v1.32813h-2zm0 0"/></clipPath><clipPath id="u"><path d="M233 479h8v1.32813h-8zm0 0"/></clipPath><clipPath id="v"><path d="M240 480h2v.32813h-2zm0 0"/></clipPath><clipPath id="w"><path d="M246 479h9v1.32813h-9zm0 0"/></clipPath><clipPath id="x"><path d="M253 479h3v1.32813h-3zm0 0"/></clipPath><clipPath id="y"><path d="M260 479h8v1.32813h-8zm0 0"/></clipPath><clipPath id="z"><path d="M266 480h2v.32813h-2zm0 0"/></clipPath><clipPath id="A"><path d="M273 479h8v1.32813h-8zm0 0"/></clipPath><clipPath id="B"><path d="M280 479h3v1.32813h-3zm0 0"/></clipPath><clipPath id="C"><path d="M286 478h9v2.32813h-9zm0 0"/></clipPath><clipPath id="D"><path d="M292 479h2v1.32813h-2zm0 0"/></clipPath><clipPath id="E"><path d="M300 479h8v1.32813h-8zm0 0"/></clipPath><clipPath id="F"><path d="M305 479h3v1.32813h-3zm0 0"/></clipPath><clipPath id="G"><path d="M313 478h8v2.32813h-8zm0 0"/></clipPath><clipPath id="H"><path d="M319 479h2v1.32813h-2zm0 0"/></clipPath><clipPath id="I"><path d="M326 478h8v2.32813h-8zm0 0"/></clipPath><clipPath id="J"><path d="M332 479h2v1.32813h-2zm0 0"/></clipPath><clipPath id="K"><path d="M340 478h8v2.32813h-8zm0 0"/></clipPath><clipPath id="L"><path d="M345 479h3v1.32813h-3zm0 0"/></clipPath><clipPath id="M"><path d="M353 478h8v2.32813h-8zm0 0"/></clipPath><clipPath id="N"><path d="M359 478h2v2.32813h-2zm0 0"/></clipPath><clipPath id="O"><path d="M366 480h9v.32813h-9zm0 0"/></clipPath><clipPath id="P"><path d="M372 480h2v.32813h-2zm0 0"/></clipPath><clipPath id="Q"><path d="M380 478h8v2.32813h-8zm0 0"/></clipPath><clipPath id="R"><path d="M380 480h2v.32813h-2zm0 0"/></clipPath><clipPath id="S"><path d="M393 479h8v1.32813h-8zm0 0"/></clipPath><clipPath id="T"><path d="M393 479h2v1.32813h-2zm0 0"/></clipPath><clipPath id="U"><path d="M407 477h7v3.32813h-7zm0 0"/></clipPath><clipPath id="V"><path d="M423 476h2v4.32813h-2zm0 0"/></clipPath><clipPath id="W"><path d="M434 477h6v3.32813h-6zm0 0"/></clipPath><clipPath id="X"><path d="M446 478h8v2.32813h-8zm0 0"/></clipPath><clipPath id="Y"><path d="M446 480h3v.32813h-3zm0 0"/></clipPath><clipPath id="Z"><path d="M461 476h5v4.32813h-5zm0 0"/></clipPath><clipPath id="aa"><path d="M144 466h4v2h-4zm0 0"/></clipPath><clipPath id="ab"><path d="M144 453h4v2h-4zm0 0"/></clipPath><clipPath id="ac"><path d="M144 439h4v3h-4zm0 0"/></clipPath><clipPath id="ad"><path d="M465 437h3v2h-3zm0 0"/></clipPath><clipPath id="ae"><path d="M144 426h4v2h-4zm0 0"/></clipPath><clipPath id="af"><path d="M144 412h4v4h-4zm0 0"/></clipPath><clipPath id="ag"><path d="M466 411h2v2h-2zm0 0"/></clipPath><clipPath id="ah"><path d="M144 398h4v5h-4zm0 0"/></clipPath><clipPath id="ai"><path d="M466 399h2v3h-2zm0 0"/></clipPath><clipPath id="aj"><path d="M144 384h4v6h-4zm0 0"/></clipPath><clipPath id="ak"><path d="M465 384h3v2h-3zm0 0"/></clipPath><clipPath id="al"><path d="M144 371h3v6h-3zm0 0"/></clipPath><clipPath id="am"><path d="M465 371h3v2h-3zm0 0"/></clipPath><clipPath id="an"><path d="M144 357h3v7h-3zm0 0"/></clipPath><clipPath id="ao"><path d="M465 357h3v3h-3zm0 0"/></clipPath><clipPath id="ap"><path d="M144 343h1v8h-1zm0 0"/></clipPath><clipPath id="aq"><path d="M466 345h2v2h-2zm0 0"/></clipPath><clipPath id="ar"><path d="M144 332h4v3h-4zm0 0"/></clipPath><clipPath id="as"><path d="M466 332h2v3h-2zm0 0"/></clipPath><clipPath id="at"><path d="M144 319h4v3h-4zm0 0"/></clipPath><clipPath id="au"><path d="M465 317h3v2h-3zm0 0"/></clipPath><g id="av" clip-path="url(#clip1)"><path fill="#fff" fill-opacity="0" fill-rule="evenodd" d="M0 0h1000v1000H0zm0 0"/><path fill="#d3d3d3" fill-opacity="0" fill-rule="evenodd" d="M162.15234 355.86719l-.23437.29297.0586.23437.11718.17188.17578.23437.29297.34766.11328.0586.11719-.17188.0586-.23438.17577-.17578.46485-.17578h.69922l.23437.29297.28906.8164.0586.17579.17578.23046.35156.23438.69922.69922.17188.17578.23437.34765.23438.41016.28906.58203.41015.46485.23047.23437.23438.17578.11719.23047.17578.29297.17187 1.16406v.23438l.0586.28906.05859.11719.11719.11719.34765.41015.11719.17188.17578.17578.17578.23437.11719.17188.17188.35156.05859.23438.23437.40625.23438-.0586-.17578.17578-.0586.92969h-.58203l-.23437-.11328-.34766.11328-.11719.11719-.05859.29297-.0586.17578-.11718.17187-.46484.29297-.0586.23438-.0586.11328v.64453l.0586.17187v.41016l.0586.0586v.40624l.05859.40625.11719.17579.05859.05859.23047.64062-.0586.29297v.69922l-.05859.58203v.23438l-.0586.23047-.05468.35156v1.92187l.05469.1172h.42578l-.36719.11718-.02344.35156.89063 1.16797 1.74219.53906 1.33984.35938v.53906l.08984.8086.53516.71484 1.51953.26953.89063-.08594.08984 1.16406.53516.1797 1.16015-.1797 2.05469-.98437 1.16016-.36328 1.8789-.17578 1.69531-.1797-.17968.71876-1.51563.08594-1.25.08984-.80469.26953-1.07421.8086.26953.71875.53515.89843-.17968.625-.26563.8086.26563 1.07812.625.89844.80468.17969 1.25-.1797-.26562.72267.09766.5039.05468.29297v.17188l.0586.29296v.40625l.17578.1172.35156.11718h.40625l.29297-.17578.11328-.11719.0586-.11719.11718-.23047.0586-.17578.35156-.46484.23047-.17578.17578-.0586.17578.0586.0586.17578.11718.98828.05469.46875.0586.17188.11718.23437.17578.0586.8164.05859h.28907l.11719.23437.05859.40625.0586.35156v1.10547l.11718.29297.11719.34766.28906.69922.17578.35156.58203.7539.35157.17579.17187.0586.46875.23437.64063.46484.34765.23438.29297.17578.29297.05468.23047.0625.8164.34766.29297.17578.11328.17188.35157.35156.11719.17578.52343.64063v.28906l.0586.35156v.34766l.05859.35156.0586.28906.11718.0586.17188.05859h.17578l.58203.23437.17578.1172.17578.28905.17578.23438.11328.23437.29297.23047.11719.11719v.41016l.0586.05468.28906.23438.23437.11719.0586.11718.11718.17188.0586.11719.23047.23437.05859.17578.23437.0586.1172.05859-.1172.11328-.05859.11719v.11719l-.11719.29296-.11719.28907v.58203l.17579.11719.11718.05859.0586.11719.11719.11719.11328.05859.17578.34765.0586.35157.05858.40625v.17578l-.05859.17578-.11719.69922v.17187l.1172.17579.29296.29296h.40625l.17578.1172.11719.17187.11719.29296v.23438h-.52735l-.23047-.23438h-.23437l-.17578.0586-.0586.69922.0586.34765.11719.17579.17578.41015.11718.23047.28907.46875.17578.05469h.52344l.23437.0586.75781.64062.0586.29296v.23438l.05859.0586.23047.34765v.35156l-.11719.17188v.29297l.29297.28906.29297.17578.17187.0586.29297.17577.29297.1172.58203.40624.28906.23438.29297.17578.21875.16015.01563.01172.23047.17579.64062.52343.17578.23438.1172.17578.17577.17578.11328.17188v.64062l.1172.17578.46874.11719.58203.11719.23438.05859.23047.11328.29297.11719.11328.0586.58593.35156.28907.17187.17578.0625.17578.05469.17578.0586.69922.35155.28906.17579.23438.05468.28906.17578.23437.1172.64063.40624.29297.11719.17187.0586.23438.05859.41015.05859.23047.0586.23438.11718.0586.17188-.41017.17578.46875.0586.0586.29296.11328.23438.17578.05468.23438.0586.17578.05859.40625.11719.64062.23437.11719.17188.0586.23437v.17578l-.0586.1172-.0586.40624.23438.23438.11719.05859.34766.11719.64062.23047.17578.11718.28906.1172.17578.17577.23438.46485.58203 1.10546.17578.17579.34766.17578.17578.11719.35156.11718 1.04688.52344.23437.0586.46485.11327.29297.0586.46484.17578.75781.58203.23438.23438.34765.46484.17578.17578.28907.23438.8164.69921.29297.17579.28906.28906.29297.17578.29297.28906.69531.64063.17578.17578.29297.23437.28907.23438.46875.28906.64062.58203.34766.23438.23437.29297.34766.34765.35156.46485.9336.99218.34765.40625.11719.17579.23437.05859.11328.11719.64454.17578.23047.11328.23437.0586.29297.17577.23047.1172.9336.69921.40624.40625.23438.17578.40625.17578.23437.11719.8164.34766.34766.23437.23438.11719.29297.28906.23047.11719.7578.35156.35157.17188.23047.05859.29297.11719.23437.0586.8711.17577h.8164l.46875.23047.17188.0586.875.69921.46484.1172.29297.05858.17578.0586.23047.0586.46875.05859.34766.05859.35156.0586.40625.05859h.29297l.17187.0586v.23046l.17578.17578h.29297l.34766.0586.35156.05859.69922.11719h.64063l.46484-.23438.29297-.17578.17187-.11719.41016-.17187.28906-.17578.9336-.46485.46875-.29297.52343-.29296.46485-.17188.46484-.17578 1.05078-.46485.28906-.11718.41016-.11719.28906-.11719.52735-.17578 1.51562-.69922.58203-.34765.28907-.0586.29297-.0586.34765-.11718.875-.23047.35156-.11719h.11329l.23437-.05859.875-.23437.23438-.0586h.8125l.35156-.0586.8164-.11718.17188-.0586.35156-.05468.29297-.0586.23047-.05859.8164-.17578.17579-.0586h.34765l.23438-.05859.46484-.11718.75781-.17188.23438-.0586h.34765l.41016-.11718.28906-.0586 1.28516-.05859h.28906l.41016-.0586.23047-.05858h.17578l.875-.1172h.40625l.41015-.11718h.34766l.35156-.11328.8711-.0586h1.75l1.04687.28907.41016.11719.28906.11718.35156.11719.28907.11719 1.05078.17187.28906.0586h.29297l.29297.05859.17187.0586.41016.05859.17187.0586.1172.05858h.11718l.11719.0586.35156.0586h.11328l.41016.0664 1.92187.39453 1.92578.39453 1.51953.44922 1.69532.71875 2.14453.80469 1.60547-.71875 1.42968-.80469 1.16016-1.07813 1.25-.44921 3.03516-.71875 1.875-.35938 2.14453-1.34765 2.23437-1.25391 2.5-1.25781 1.69531-.44922 1.78516-.17969 1.16016-.26953.625.53906 1.33984-.26953.71485-.98828.98437-1.34375.44531-.17969.80469-.35937 1.875-.53907 1.78516-.44921 1.25-.26954 1.16015-.08984 1.69922-.08984 1.96094-.26954 1.25-.08984h.53906l.625-.08984h.89063l2.14453-.17969 2.41015-.17969 2.58985-.08984 1.69531.17969 1.60938.08984 1.42968.35938 1.16016.71875 1.875.98828 1.16015 1.52734.26563.71484.6289.08985.35548.89844.53515.53906.53516 1.52734 1.07422.35938h.53515l-.80469.53515.08985 1.70703.71484 2.69532.89063.80468.89453.98829.71484 1.2578 1.78516.53907 1.51953-.17969.35547 1.34375 1.60937-.80469.98047-.53906.26953.26953.31641-.21484.21875-.14453.80078.44922.44922-.35938h.35547l.53515-.26953.53907-.71875.53515-.26953.625-.98828 1.16016.44922.83984.3711 1.39454.61718 1.6953-.17969h1.60548l1.78515.08985.17969-1.70704.53516-1.34375.80468.26954.4922.84765.40233.40625-.08984.53906v.35938l.71485.44922.71093-.26953h1.42969l.35938.98828.4453 1.25781.71485 1.34375 1.25.6289 1.69531.62891.71485-.17969.17969-.53906.98046-.08984.44922.35937.08594 1.25782-.26563.6289-.53515.17969v.53906l.71484.98438.26563.53906.98437.98828.80078 1.07813-.26562.35937-.08985.89844-.625 2.33203-.35546 2.0664-.08985 1.79298-.17969.71875-.08984.53906v1.4375l-.98047 1.88281-.35937 1.70703-.53516.89844-.80469 1.16797-.26562.53906 2.05469 1.2539.08593.35938-.35546.53906-.08985-.17968v.80859l.08985 1.4375-.44532.71484-1.07422.09375-.26562.71485.53515.89844.8047.71875 1.16015.80859 1.33984.26953.44531.35938-.35546.44921-1.78907-.08984-1.25-.44922-.71484-.71875-.625-.08984-.17578 3.58984-.1875 1.3086h89.35937V311.70313h-55.26953v49.08203l.76172.125 3.28906.54296 2.02344 2.83594v2.7539l2.35156.33204 2.34766.33203h4.05078l-1.3789 4.16016-2.02344.70703-2.02344.70312-.54297.34375-2.59375 1.6172-.1875.11718-2.02344-2.07813-.73046-2.74218-2.67188-2.07813-1.375-3.5-.0664-.08203-1.95704-2.67188 2.75-1.41796v-49.08204H294.42187v91.41407l.1172.03125.1328.01172.07422.07421.10547.04688.08985.0586.08593.05859.08985.0586.29687.29687.0586.08984.03125.11719.02734.11719.01563.13671-.03125.1172-.0586.08983-.0586.08594-.04296.10547-.04688.10156-.02734.1211v.14453l.17578.26953.14844.14844.07422.08594.07422.07421.04296.10547.0625.08985.0586.08593.04297.10547.0586.08985.04687.10156.04296.10547.0586.08594.11719.17968.07421.07422.0625.08594.0586.08984.04297.10547.0586.08985.05858.08593.0625.08985.0586.08984.04297.10156.11719.17969.07421.07422.0586.08594.07422.07421.08984.0586.10547.04687h.14844l.1328-.01562.13282.01562.10156-.04687.07422-.07422.04688-.10156-.01563-.13281v-.14844l-.04687-.10547-.02735-.11719-.04687-.10156-.02735-.1211-.04296-.10156-.0625-.08984-.04297-.10156-.04297-.10547-.03125-.11719-.01563-.13281-.01171-.13672.08593-.0586.0586-.08593.12109-.03125.04297.10547.01562.1328v.1172l.0586.10156.0586.08984.08983.0586.14844.14843.0586.08985.04296.10547-.01171.10156.08593.0586.10547.04687.08594.0586.08984.05858.07422.07422-.11719.02735-.10546.04687-.08594.0586-.07422.07421-.0586.08985-.0625.08594-.02734.12109-.04687.10156-.04297.10547-.03125.11719-.01172.13281-.01563.13281v.14844l.02735.11719.04687.10547.04297.10156.0586.08984.07421.07422.08985.0586.07422.07421.08984.0586.0586.08984.04296.10547.04688.10156.11719.03125.1328.01563h.14845l.11718-.03125.10547.04297.04297.10547.04688.10156.02734.1211L299.5 410l.02734.11719.03125.1211.02735.11718.10547.04297.10156.04687.13281-.01562.14844.14844.0625.08593.07422.07422.07031.07422.08984.0625.10547.04297.10156.04297.1172.03125.13671.01562.11719-.03125.07422-.07422.02734-.11718-.01172-.13282-.03125-.12109-.02734-.11719.04297-.10547h.11719l.08984.0625.11719.02735h.14843l.13282.01562h.14843l.13282.01563.1328-.01563h.14845l.1328-.01562.13282-.01172.13672.01172.11719-.02735.13281-.01562.1914-.0586-.05859.17579-.01562.1328-.02735.1211-.01562.13281-.0586.08594-.1328.01563-.10548.04687-.10546.04297-.1172.03125-.11718.02735-.26563.03125h-.14843l-.13281.01562-.07422.07422.05859.08594.14844.14843.11719.1797.07421.0703.08985.0625.08984.0586.08594.0586.08984.05858.10156.04297.10547.0625.10547.04297.08594.0586.10547.04687.10156.04297.17969.11719.0586.08984-.04298.10156-.04687.10547.01562.13281.22266.22266.0586.08985.04296.10156.03125.1211.04297.10155.01563.13282.03125.11718.01171.13672.03125.11719.14844.14844.10156.04297.10547.04296.1172.03125.1328.01563.13672.01563h.11719l.11719-.03125.08984-.0586.04297-.10547.04688-.10156.04296-.10547.03125-.11719.01172-.1328v-.14845l-.01172-.1328-.01562-.13282-.03125-.11719-.04297-.10547-.04688-.10547-.04296-.10156-.04297-.10547-.01563-.13281.01563-.13281.02734-.11719.03125-.11719.02735-.1211.04687-.10155.08984-.0586.08594-.0625.07422-.07422.08984-.05859.22266-.22266.0586-.08593.07421-.07422.11719-.17969.0586-.08594v-.14844l-.07423-.07421-.10156-.04688-.10547-.04297-.10156-.04297-.0586-.08984-.04687-.10547-.02734-.11719.08984-.05859.11719-.03125.10156-.04297.17969-.11719.14844-.14843.01172-.13282-.01172-.10546-.08985-.0586-.1328.01563h-.14845l-.1328.01562-.13282-.01562-.1211-.03125-.08593-.0586-.07422-.07422-.0586-.08984-.0625-.08594-.11718-.17969-.0586-.08593.03125-.1211.08594-.05859.1211-.03125.05859-.08594v-.1211l-.03125-.11718-.0586-.08984-.05859-.08594-.04687-.10547-.02735-.11719-.01562-.1328.0586-.08985.07421-.07422.08984-.0586.1172-.17968.07421-.07422.0586-.08594.14843-.14844.1211-.03125.1328-.01562.13282.01562.07422.07422.04297.10547.01562.13281-.03125.1172-.11719.03124-.1328.01172-.14844.14844-.04297.10547-.04688.10156-.02734.1211-.03125.11718v.14844l.03125.11719.04297.10546.05859.08985.07422.07031.07422.07422.11719.03125.12109.02734.11719-.02734.1328-.01563h.1172l.08984.0586.07422.07422.04687.10546.0586.08594.10156.04688.13281.01562.10547.04297.08594.0586-.01172.10546-.07422.07422-.17969.11719-.05859.08984-.08984.0586-.07032.07422-.07421.07421-.0625.08985-.02735.11719-.01562.1328.01562.13282-.01562.13281v.14844l.01562.13281.02735.1172.03125.12108.07421.07422.08985.0586.08594.0586.08984.05858.11719.03125v.08594l-.10157.04688-.08984.0586-.26563.03124-.11718.02735h-.14844l-.10547.04296-.10156.04688-.0586.08984-.0625.23438-.01171.13281-.03125.1211-.01563.1328v.29298l-.01172.1328.01172.13673.01563.1328.1328.01563.13282.01172.1211.03125.08593.0586.07422.07421.04688.10547.04296.10157.01563.1328v.44532l-.01563.13281v.44532l.03125.26562.02735.11719.01562.13281.03125.11719.08594.21094.03125.26562v.14844l-.03125.11719-.02734.11718-.03125.1211-.02735.11719-.03125.11718-.03125.1211-.01171.1328-.01563.13282.08984.0586.1172-.03125.10155.01562.04688.10547-.03125.26562v.44141l-.04297.10547-.04688.10547-.04296.10156-.04297.10547-.0586.08594-.03125.12109-.04296.11719-.03125.11719-.01563.1328.01563.13282.05859.08984.10547.04688.08594.0586.05859.08593-.01172.13672-.03125.11719-.04297.10156v.44531l-.01562.13281v.14844l-.03125.11719-.04297.10547-.02735.11719-.04687.10546-.04297.10157-.03125.12109-.02734.11719-.03125.13281-.03125.11719-.02735.11719-.04297.10546-.03125.1172-.03125.12108-.01171.13282-.01563.13281v.29688l.02734.11718v.14844l.04688.39844.02734.11719.0586.08984.12109.03125h.14844l.13281-.01563.0586.08985v.11719l-.0586.08984-.08984.0586-.10157.04296-.10546.04688-.08985.05859-.08594.0586-.13671.01562-.1172-.03125-.1328-.01563-.10157.04688-.0625.08594-.01172.13671-.01562.13282-.03125.11719-.02735.11718-.01562.13281-.03125.1211v.29687l.01563.13282.03125.11718v.14844l.01171.13281v.14844l-.02734.11719-.04688.10156-.02734.1211-.03125.11718-.0586.08985-.07421.07421-.10156.04297-.10547.04688-.11719.02734-.1211.03125-.10156-.04687.0586-.08594.10547-.04688.02734-.11718.03125-.11719.02734-.1211.03125-.11718v-.14844l.01563-.13281-.03125-.11719-.04297-.10547-.10547.01563-.07422.07422-.10156.04296-.08984.0625-.07422.07422-.04297.10157-.01563.1328-.03125.1172L304.25 426l-.03125.11719-.02734.11719-.03125.12109-.02735.11719-.03125.11718-.04297.10547-.08984.0586h-.08984l-.1172-.03125-.03124-.08594.01562-.13672-.03125-.11719v-.14844l-.01171-.1328v-.14844l-.0625-.23438-.02735-.1211-.04297-.10156-.04687-.10546-.0586-.08594-.05859-.08985-.04297-.10546-.0625-.08594-.14844-.14844-.0703-.07422-.10548-.04687-.10547-.04297-.10156-.04297-.29687-.29688-.08985-.07421-.08594-.0586-.10546-.04297-.08985-.0625-.08594-.0586-.10546-.04296-.08985-.0586-.08594-.0625-.07421-.0703-.10547-.04688-.08594-.0586-.10547-.04296-.08984-.0625-.10156-.04297-.10547-.04297-.08594-.0586-.10547-.04687-.10547-.04297-.10156-.04687-.08985-.0586-.10156-.04297-.10547-.04296-.08984-.0625-.11719-.02735-.13281-.01562-.13281.01562H299.75l-.13281.01563-.11719-.03125-.08984-.0586-.07422-.07422-.08985-.05859-.10156-.04688h-.14844l-.12109-.02734-.10156-.04297-.07422-.07422-.11719-.17968-.08984-.0586-.10156-.04297-.08985-.0625-.10547-.04296-.08984-.0586-.08594-.0586-.10547-.04687-.0586-.08594-.05858-.08984-.04297-.10547-.04688-.10156-.07422-.07422-.08594-.0586-.07421-.07421-.08985-.0586-.22265-.22265-.04297-.10547-.03125-.26563.10547-.04296h.14453l.10547.04296.07421.07422.08985.0586.08594.0586.10546.04687.08985.05859.14844.14844.0703.07422.14845.14843.0625.08594.07421.07422.08594.0586.07422.07421.08985.0625.08984.0586.08594.05859.26953.17578.10156.04688.10547.04296.10156.04297.04688-.07421.05859-.08594.07422-.07422.07031-.07422.10547.04297.07422.07422.0586.08984.04296.10156.04688.10547.04296.10547.1211.02735.11719-.02735.07421-.08984.04297-.10547.0586-.08985.07422-.07421.10546-.04297.1172-.02735.1328.01172.08985.0586.14844.14843.05859.08985.04297.10547.04687.10156.04297.10547.04297.10156.10547.04688.10547.04296.13281.01563.08594-.0586.0586-.08984.07421-.07422.10547-.04297.11719.02735.10547.04687.10156.04297.10547.04297.10156.04688.17969.11718v.11719l-.01563.13281.01563.13281.01562.13672.0586.08594.10156.04688.1211.02734.11718.03125h.14844l.11719-.03125.05859-.08984.17969-.1172.05859-.08983.07422-.07422.0586-.08594.11718-.17969.17969-.11719.11719.03125.08984.0586.04297.07422-.01563.1328v.1172l.08985.05859h.14843l.13282-.01563.1328-.01171.26563-.03125.10547-.04297.11719-.03125.1211-.02735.07421-.07421.07031-.07422.0625-.08985-.01562-.10547-.04688-.10156-.10156-.04297-.10547-.01562-.11718.02734-.26563.03125h-.14844l-.07421-.07422-.08985-.0586-.11719-.03124-.11718-.02735-.13282-.01562h-.14843l-.13282.01563h-.29687l-.10547-.04688-.14844-.14844-.04297-.10156-.05859-.08984.22266-.22266.08593-.0586.10547-.04296.11719-.03125.13281-.01563.13281.01563.13672.01562.10157.04297.1328-.01172.08985-.0625.10156-.04297.0625-.08984-.04687-.10156-.08984-.0586-.1172-.03125-.10155-.04296-.0586-.08985-.0625-.08984v-.11719l.01563-.13281.10547-.04688.07421-.07031v-.1211l-.08984-.05859-.03125-.11719.08985-.05859.07421-.07422.04297-.10547.0586-.08984.04687-.10156.01563-.13281v-.14844l-.04688-.10547-.04297-.10156-.08984-.0586-.13281-.01562-.10157-.04297-.13671-.01563-.1172-.03125h-.4453l-.13282-.01562-.13281-.01172-.13281-.01563-.11719-.03125h-.14844l-.13281-.01562-.13281-.01172-.26563-.03125-.1211-.04297-.08593-.0586-.07422-.07421v-.14844l.01172-.13281.10547-.04688.10156-.04296.13281-.01563h.15235l.13281-.01562h.29297l.1211.03125.10156.04296.08984.0586.23438.0625.12109-.04688.08984-.05859.10156-.04297.13282-.01562.10547.04296.10156.04688.13281.01172.1211-.02735h.14453l.12109-.03125.11719-.02734.10547-.04687.07421-.07422.08594-.0586.14844-.14843.0586-.08594.04687-.10547.02734-.11719.01563-.10547-.10156-.04296-.08985-.0586-.11719-.03125-.10546-.04297-.08985-.0625-.07422-.08594-.07422-.07421-.10156-.04297-.10547-.04688-.10156-.04297-.0586-.08984-.04687-.10156-.08594-.21094-.0625-.08594-.05859-.08984-.07422-.07422-.08594-.0586h-.26953l-.11719.03126-.08984.05859-.10156.04297-.13281.01562-.10547-.01562-.02735-.11719-.0625-.08984-.11718-.03125-.10157-.04297-.14843-.14844-.03125-.11719-.01563-.10546.07422-.07422.17969-.1172.11719-.02733.11718-.03125.13672.01562.10156.04297.10547.04297.10156.04687.10547.04297.1172.03125.1328.01563.1172.02734.1328.01563.10547-.01563.08985-.0586-.07422-.07421-.10547-.04297-.07422-.07422-.07422-.08984-.14844-.14844-.08593-.0586-.08985-.05859-.07422-.07422-.08984-.0586-.10156-.04687-.1211-.02734-.10156-.04688-.10547-.04296-.11719-.03125-.10156-.04297-.1211-.03125h-.14843l-.11719.03125-.10546.04297-.08594.0625-.17969.11718-.08594.0586-.08984.0586-.10547.04687-.08594.05859-.10547.04297-.10156.04297-.10547.04687-.07422.07422-.05859.08985-.0586.08593-.04687.10547-.0586.08594-.07421.07422-.13281-.01172-.1172-.03125h-.11718l-.07422.07422-.08984.0586-.07422.07421-.08984.0586-.08594.05859-.10547.04687-.10156.04297-.13672.01563-.10156-.04297-.14844-.14844-.10547-.04688h-.08594l-.10547.04688-.10156.04297-.1211.03125-.11718-.03125-.07422-.07422v-.11719l.03125-.1211.07422-.0703.0586-.08985.07421-.07422.11719-.03125.10547-.04296h.29297l.13281-.01563.13672-.01563.10156-.04296.08985-.0586.10156-.04687.08984-.0586.13281-.01171.08985.05859.13281.01172.08984-.0586.08594-.05859.10547-.04297.08984-.0586.08594-.0625.08985-.05859.14843-.14843.0586-.08594.05859-.08985.10547-.04296.13281-.01563.11719.02735.1211.03125.05859-.0586.05859-.08984.03125-.26563.02734-.11719.10547.01172.13281.01563.10157-.04297.08984-.0586.0586-.08984.07421-.07422.0586-.08984.04687-.10156.01172-.13281-.01172-.13282-.04687-.10547-.14844-.14843-.0586-.08985-.05859-.08594-.04297-.10546v-.44532l.01563-.1328v-.14845l.01172-.1328-.0586-.0586-.08984.0586-.10156-.04298-.17969-.11719-.08594-.05859-.0625-.08984-.0586-.08985-.07421-.07421-.08594-.0586-.1211.03125-.10155.01172-.10547.04688-.08594.05859-.10547.04297-.14844.14844-.08984.05859-.08594.0586-.08984.0625-.10547.04296-.13281.01563v-.1211l.10547-.04297.11718-.03125.07422-.0703.04297-.10548v-.14844l-.02734-.11718-.14844-.14844-.13281-.01563h-.14844l-.11719.03125-.10547.04297-.10156.04297-.08984.0625-.11719.02735-.07422-.07422.01172-.13281-.04297-.10157-.04297-.10547-.08984-.05859-.11719.02734-.1211.03125-.11718.03125-.10156.04297-.1211.03125-.10156.04297-.10547.04297-.08984.0586-.10156.01562v-.11719l.01562-.13281-.0586-.08985-.07421.04297-.14844.14844-.0586.08985-.07421.07421-.04688.10547-.04296.10156-.07422.07422-.0586.08985-.07422.07422-.05859.08593-.07422.07422-.08984.0625-.07422.07031-.07422.07422-.10156.01563-.13281.01562-.10547-.04296v-.1211l.14843-.14844.04297-.10156.0586-.08984.04687-.10156.04297-.10547.0586-.08985.03124-.11719.04297-.10156.03125-.1211.02735-.11718.04687-.10547.04297-.10156.04297-.10547.07422-.07031.08984-.0625.08985-.0586.10156-.04296h.29687l.26563-.03125.10547-.04297-.07422-.07422-.11719-.03125-.10547-.04297-.08984-.0586-.10156-.04687-.08985-.0586-.10156-.04296-.10547-.04297-.08984-.0625-.08594-.0586-.10547-.04296-.10156-.04297-.1211-.03125-.11718-.03125-.10157-.04297L297.5 410.25l-.10156-.04297-.08985-.0586-.04296-.10546-.01563-.13281.10156-.04297.13281-.01563.13672.01563.13282-.01563.10156-.04297.0586-.08984.01562-.10547-.08985-.0586-.07421-.07421-.10157-.04297-.08984-.0586-.14844-.14843-.04297-.10547-.01562-.13281v-.29297l-.0586-.08985-.08984-.05859-.07422-.07422-.04297-.10547-.03125-.11718-.0586-.08985-.07421-.07422-.11719-.02734-.07422-.07422-.08984-.0586-.08984-.0625-.08594-.05859-.07422-.07421-.0586-.08594-.04687-.10547-.08594-.0586-.14843-.14843-.19532-.0586-.1328.01563-.10157.04297-.07422.07422-.04688.10156-.04296.10547-.0586.08984-.0586.08594-.29687.29687-.08984.0586h-.08594l-.0625-.08594-.04297-.10547.03125-.11719.0586-.08984.02734-.11719-.01172-.13281-.08984-.0625-.10547.04688-.11719.02734-.11719.03125-.26953.17578-.10156.04688-.11719.02734-.10546.04687-.08985.0586-.10156.04297-.0586-.08594-.04687-.10547.01563-.13281.04687-.10547.07031-.07422.07422-.07031.0586-.08985v-.14843l-.04297-.10547h-.23829l-.10156.04687-.03125.11719-.02734.11719-.03125.1211-.07422.04296-.13281.01563-.07422-.04688-.04297-.10156-.04297-.10547-.04687-.10156-.04297-.10547-.1211.03125-.10156.04297-.13281.01562-.11719.03125-.10547.04297-.08984.0586-.10156.04687-.1211.02734-.13281.01563-.10156-.04297-.0586-.08985-.04687-.10546-.04297-.10157-.04297-.10546v-.1172l.0586-.08984.08593-.05859.17969-.11719.10156-.04687.10547-.04297.10547-.0586.10156-.04296.08985-.0625.10156-.04297.10547-.0586.10156-.04687.08984-.0586.10547-.04296.10156-.04297.08985-.0625.10156-.04297.13672-.01563.11719.03125.10156.04297.1211.03125.10156.04297.10546.04688.10157.04296.10547.04297.10156.04688.10547.04297.10156.04297.10547.04687.08594.0586.10546.04296.1172.03125.10546.04297.10156.04688.08985.0586.10547.04296.10156.04297.10547.04687.11719.02735.10156.04687.1211.02735h.14843l.08594-.0586.01562-.10156.0586-.08984-.02735-.1172-.07422-.07421-.11719-.17969-.07421-.07422-.08985-.07421-.17969-.1172-.08593-.05859-.10547-.04296-.10156-.04688-.26954-.17578-.05859-.08985-.07422-.07421-.0586-.08985-.04296-.10156-.03125-.11719-.01563-.13672v-.5625l-.01171-.1328-.01563-.13282-.03125-.11719-.01562-.13281-.01172-.13281-.03125-.1211-.22266-.22265-.0586-.08594-.01562-.10547.03125-.11719.13281-.01562v-91.41406H172.9922v1.45312l-.0586.23438-.35156 1.05078-.17187.52343-.1172.34766-.17577.41016-.11719.17187-.23438.29297-.23046.0586h-.35157l-.11718.05859-.23047.40625v.29297l.11719.17578.23046.23047.1172.23437.64062.75781.29297.46485.17578.23437.23047.35156.23437.34766.64063.8164.17578.46485.17187.41016.11719.69531.17578.46875.11719 1.39844.0586.46484v.875l.11718 1.04688v4.78125l-.0586.46484-.35156 1.28125-.17578.52344-.11328.41015-.35156.9297L172.93359 336l-.23437.58203-.11719.17578-.17187.34766-.17578.40625-.35157.8164-.0586.29297-.11327.29297-.11719.28906-.0586.17579-.11718.875-.0586.40625-.05859.11718-.0586.17579-.05859.17187-.23047.52734-.11718.17188v.23437l-.11719.23438-.0586.17187-.17577.58594v.28906l-.0586.17579v.29296l-.0586.11329-.05859.52734v.17187l-.05468.23438v2.6211l-.17578.8164-.1172.17578-.17577.23438-.1172.17187-.11327.23438-.58594.93359-.23047.28906-.29297.46485-.17578.23437-.28906.35156-.35156.69922-.11328.23047-.17579.41016-.17578.23046-.40625.52735-.8164.69922-.29297.17187-.28906.23438-.17579.11719-.17578.17578-.52344.40625-.52734.17578-.17187.17578-.23438.05469-.64062.17578h-.75782m12.21094 31.02344l-1.07422.44921.35938.89454 1.25-.71485.44531-.53906-.98047-.08985"/><path fill="#d3d3d3" fill-opacity="0" fill-rule="evenodd" d="M201.50781 416.59766h-.89453l.44922.6289.98047.35938.80469-.08985.4453-.98828-.17577.08985-.71485-.35547-.89453.35547m154.6211 59.0703l-.0586-.52343v-.29297l.11328-.29297.0586-.23046.46875-.46875h.11328l.11719-.11329.11718-.05859h.17579l.23437-.0586h.34766l.23437.0586.11719.0586.23047.17187.0586.17578.11718.58203v.29297l-.11719.17578-.17187.28906-.17579.17579-.52734.52343-.23047.23438-.11719.0586h-.17578l-.11718-.0586-.40625-.29297-.17579-.11719-.11718-.0586-.0586-.11327-.05468-.1172m6.64062-10.95702l-.0586-.17188v-1.10937l.0586-.17188.17578-.0586.17188-.05858h.17578l.23437-.0586.1172.0586.05858.69921-.05859.17188-.11719.17578-.11718.0586-.23438.52343-.11328.0586h-.23438l-.05859-.1172m9.61328-14.39062l-.11719-.17578v-.69922l.29297-.875.1172-.17187.17577-.35156.11328-.23047.1172-.29297.35155-.75781.1172-.23047.17187-.23438h.17578l.11719-.0586h.64062l.11719.0586.23437.23438.17188.11328.35156.29297.11719.11718.11328.17579v.11328l.11719.05859.11718.11719v.69922l-.05859.17578v.23047l-.0586.17578-.34765 1.05078-.11719.23047-.11719.23437-.11718.0586-.23047.23437-.64063.28906h-.875l-.41015-.11718-.64063-.46485"/><path fill="none" stroke="#bebebe" stroke-linecap="round" stroke-linejoin="round" stroke-miterlimit="10" stroke-width=".5" d="M467.95703 311.69531H144.02734v168.625h323.9297v-168.625"/><g clip-path="url(#a)"><path fill="#fff" fill-opacity="0" fill-rule="evenodd" d="M144 475.89063v4.4375h.0039H144V311.67188h.0039H144v164.21875"/></g><g clip-path="url(#b)"><path fill="#fff" fill-opacity="0" fill-rule="evenodd" d="M144.0039 480.32813V311.67188h31.0625v17.26953l-.9375.48437.9375.53906.48829-.53906-.48828-.48437v-17.26954h62.14062v144.40625l-1.59766 2.0586 1.59766 1.45703 2.07031-1.45703-2.0703-2.0586V311.67188h230.78905v168.65625H144.00391"/></g><path fill="#50fcfc" fill-rule="evenodd" d="M175.0664 329.96484l-.9375-.53906.9375-.48437.48829.48437-.48828.53906m62.14062 129.62891l-1.59766-1.45703 1.59766-2.0586 2.07031 2.0586-2.0703 1.45703"/><g clip-path="url(#c)"><path fill="#fff" fill-opacity="0" fill-rule="evenodd" d="M467.9961 480.32813H468V311.67188h-.0039H468v168.65625h-.0039"/></g><g clip-path="url(#d)"><path fill="none" stroke="#000" stroke-linecap="round" stroke-linejoin="round" stroke-miterlimit="10" stroke-width=".5" d="M147.51172 480.39453l-7.02344-.13281"/></g><g clip-path="url(#e)"><path fill="none" stroke="#000" stroke-linecap="round" stroke-linejoin="round" stroke-miterlimit="10" stroke-width=".5" d="M147.51172 480.39453l1.11328 2.1914"/></g><g clip-path="url(#f)"><path fill="none" stroke="#000" stroke-linecap="round" stroke-linejoin="round" stroke-miterlimit="10" stroke-width=".5" d="M146.49219 480.375l.55469 1.09375"/></g><g clip-path="url(#g)"><path fill="none" stroke="#000" stroke-linecap="round" stroke-linejoin="round" stroke-miterlimit="10" stroke-width=".5" d="M160.82813 480.34375l-7.02735-.03125"/></g><g clip-path="url(#h)"><path fill="none" stroke="#000" stroke-linecap="round" stroke-linejoin="round" stroke-miterlimit="10" stroke-width=".5" d="M160.82813 480.34375l1.14062 2.17188"/></g><g clip-path="url(#i)"><path fill="none" stroke="#000" stroke-linecap="round" stroke-linejoin="round" stroke-miterlimit="10" stroke-width=".5" d="M159.80469 480.33984l.57422 1.08594"/></g><g clip-path="url(#j)"><path fill="none" stroke="#000" stroke-linecap="round" stroke-linejoin="round" stroke-miterlimit="10" stroke-width=".5" d="M174.14063 480.20313l-7.02344.25"/></g><g clip-path="url(#k)"><path fill="none" stroke="#000" stroke-linecap="round" stroke-linejoin="round" stroke-miterlimit="10" stroke-width=".5" d="M174.14063 480.20313l1.23046 2.125"/></g><g clip-path="url(#l)"><path fill="none" stroke="#000" stroke-linecap="round" stroke-linejoin="round" stroke-miterlimit="10" stroke-width=".5" d="M173.1211 480.23828l.61327 1.0625"/></g><g clip-path="url(#m)"><path fill="none" stroke="#000" stroke-linecap="round" stroke-linejoin="round" stroke-miterlimit="10" stroke-width=".5" d="M187.45703 480.23828l-7.02344.17969"/></g><g clip-path="url(#n)"><path fill="none" stroke="#000" stroke-linecap="round" stroke-linejoin="round" stroke-miterlimit="10" stroke-width=".5" d="M187.45703 480.23828l1.20703 2.13672"/></g><g clip-path="url(#o)"><path fill="none" stroke="#000" stroke-linecap="round" stroke-linejoin="round" stroke-miterlimit="10" stroke-width=".5" d="M200.76953 480.16016l-7.01953.33593"/></g><g clip-path="url(#p)"><path fill="none" stroke="#000" stroke-linecap="round" stroke-linejoin="round" stroke-miterlimit="10" stroke-width=".5" d="M200.76953 480.16016l1.2539 2.10937"/></g><g clip-path="url(#q)"><path fill="none" stroke="#000" stroke-linecap="round" stroke-linejoin="round" stroke-miterlimit="10" stroke-width=".5" d="M214.07813 480.03516l-7.00391.58984"/></g><g clip-path="url(#r)"><path fill="none" stroke="#000" stroke-linecap="round" stroke-linejoin="round" stroke-miterlimit="10" stroke-width=".5" d="M214.07813 480.03516l1.32812 2.0625"/></g><g clip-path="url(#s)"><path fill="none" stroke="#000" stroke-linecap="round" stroke-linejoin="round" stroke-miterlimit="10" stroke-width=".5" d="M227.40234 480.21875l-7.02343.22266"/></g><g clip-path="url(#t)"><path fill="none" stroke="#000" stroke-linecap="round" stroke-linejoin="round" stroke-miterlimit="10" stroke-width=".5" d="M227.40234 480.21875l1.21875 2.1289"/></g><g clip-path="url(#u)"><path fill="none" stroke="#000" stroke-linecap="round" stroke-linejoin="round" stroke-miterlimit="10" stroke-width=".5" d="M240.70313 480.64844l-6.9961-.64063"/></g><g clip-path="url(#v)"><path fill="none" stroke="#000" stroke-linecap="round" stroke-linejoin="round" stroke-miterlimit="10" stroke-width=".5" d="M240.70313 480.64844l.94921 2.26172"/></g><g clip-path="url(#w)"><path fill="none" stroke="#000" stroke-linecap="round" stroke-linejoin="round" stroke-miterlimit="10" stroke-width=".5" d="M254.02344 480.0664l-7.00781.52735"/></g><g clip-path="url(#x)"><path fill="none" stroke="#000" stroke-linecap="round" stroke-linejoin="round" stroke-miterlimit="10" stroke-width=".5" d="M254.02344 480.0664l1.3125 2.07032"/></g><g clip-path="url(#y)"><path fill="none" stroke="#000" stroke-linecap="round" stroke-linejoin="round" stroke-miterlimit="10" stroke-width=".5" d="M267.34766 480.24219l-7.02344.17187"/></g><g clip-path="url(#z)"><path fill="none" stroke="#000" stroke-linecap="round" stroke-linejoin="round" stroke-miterlimit="10" stroke-width=".5" d="M266.32422 480.26563l.60547 1.0703"/></g><g clip-path="url(#A)"><path fill="none" stroke="#000" stroke-linecap="round" stroke-linejoin="round" stroke-miterlimit="10" stroke-width=".5" d="M280.66406 480.21484l-7.02344.22657"/></g><g clip-path="url(#B)"><path fill="none" stroke="#000" stroke-linecap="round" stroke-linejoin="round" stroke-miterlimit="10" stroke-width=".5" d="M280.66406 480.21484l1.21875 2.12891"/></g><g clip-path="url(#C)"><path fill="none" stroke="#000" stroke-linecap="round" stroke-linejoin="round" stroke-miterlimit="10" stroke-width=".5" d="M293.80469 479.23047l-6.67578 2.19531"/></g><g clip-path="url(#D)"><path fill="none" stroke="#000" stroke-linecap="round" stroke-linejoin="round" stroke-miterlimit="10" stroke-width=".5" d="M292.83203 479.55078l.88672.84766"/></g><g clip-path="url(#E)"><path fill="none" stroke="#000" stroke-linecap="round" stroke-linejoin="round" stroke-miterlimit="10" stroke-width=".5" d="M307.20703 479.54297l-6.85156 1.57031"/></g><g clip-path="url(#F)"><path fill="none" stroke="#000" stroke-linecap="round" stroke-linejoin="round" stroke-miterlimit="10" stroke-width=".5" d="M306.21094 479.77344l.80078.92578"/></g><g clip-path="url(#G)"><path fill="none" stroke="#000" stroke-linecap="round" stroke-linejoin="round" stroke-miterlimit="10" stroke-width=".5" d="M320.42578 479.20703l-6.66015 2.24219"/></g><g clip-path="url(#H)"><path fill="none" stroke="#000" stroke-linecap="round" stroke-linejoin="round" stroke-miterlimit="10" stroke-width=".5" d="M319.45703 479.53516l.89063.84375"/></g><g clip-path="url(#I)"><path fill="none" stroke="#000" stroke-linecap="round" stroke-linejoin="round" stroke-miterlimit="10" stroke-width=".5" d="M333.73828 479.19922l-6.65234 2.25781"/></g><g clip-path="url(#J)"><path fill="none" stroke="#000" stroke-linecap="round" stroke-linejoin="round" stroke-miterlimit="10" stroke-width=".5" d="M332.76953 479.52734l.89453.83985"/></g><g clip-path="url(#K)"><path fill="none" stroke="#000" stroke-linecap="round" stroke-linejoin="round" stroke-miterlimit="10" stroke-width=".5" d="M347.02734 479.1289l-6.60156 2.40235"/></g><g clip-path="url(#L)"><path fill="none" stroke="#000" stroke-linecap="round" stroke-linejoin="round" stroke-miterlimit="10" stroke-width=".5" d="M346.0664 479.47656l.91407.82031"/></g><g clip-path="url(#M)"><path fill="none" stroke="#000" stroke-linecap="round" stroke-linejoin="round" stroke-miterlimit="10" stroke-width=".5" d="M360.17969 478.75l-6.27735 3.15625"/></g><g clip-path="url(#N)"><path fill="none" stroke="#000" stroke-linecap="round" stroke-linejoin="round" stroke-miterlimit="10" stroke-width=".5" d="M359.26563 479.21094l1.0039.70703"/></g><g clip-path="url(#O)"><path fill="none" stroke="#000" stroke-linecap="round" stroke-linejoin="round" stroke-miterlimit="10" stroke-width=".5" d="M373.8711 480.36719l-7.02735-.07813"/></g><g clip-path="url(#P)"><path fill="none" stroke="#000" stroke-linecap="round" stroke-linejoin="round" stroke-miterlimit="10" stroke-width=".5" d="M372.84766 480.35547l.5625 1.08984"/></g><g clip-path="url(#Q)"><path fill="none" stroke="#000" stroke-linecap="round" stroke-linejoin="round" stroke-miterlimit="10" stroke-width=".5" d="M380.58594 482.01172l6.16797-3.36719"/></g><g clip-path="url(#R)"><path fill="none" stroke="#000" stroke-linecap="round" stroke-linejoin="round" stroke-miterlimit="10" stroke-width=".5" d="M381.48438 481.52344l-1.02344-.67578"/></g><g clip-path="url(#S)"><path fill="none" stroke="#000" stroke-linecap="round" stroke-linejoin="round" stroke-miterlimit="10" stroke-width=".5" d="M393.54297 481.02344l6.88672-1.39063"/></g><g clip-path="url(#T)"><path fill="none" stroke="#000" stroke-linecap="round" stroke-linejoin="round" stroke-miterlimit="10" stroke-width=".5" d="M394.54297 480.82031l-.77735-.94531"/></g><g clip-path="url(#U)"><path fill="none" stroke="#000" stroke-linecap="round" stroke-linejoin="round" stroke-miterlimit="10" stroke-width=".5" d="M407.78906 482.78516l5.02344-4.91407"/></g><g clip-path="url(#V)"><path fill="none" stroke="#000" stroke-linecap="round" stroke-linejoin="round" stroke-miterlimit="10" stroke-width=".5" d="M423.47656 483.83984l.28125-7.02343"/></g><g clip-path="url(#W)"><path fill="none" stroke="#000" stroke-linecap="round" stroke-linejoin="round" stroke-miterlimit="10" stroke-width=".5" d="M434.8086 477.52734l4.24218 5.60157"/></g><path fill="none" stroke="#000" stroke-linecap="round" stroke-linejoin="round" stroke-miterlimit="10" stroke-width=".5" d="M435.42578 478.34375l.51953-1.11328"/><g clip-path="url(#X)"><path fill="none" stroke="#000" stroke-linecap="round" stroke-linejoin="round" stroke-miterlimit="10" stroke-width=".5" d="M447.08984 481.86719l6.31641-3.07813"/></g><g clip-path="url(#Y)"><path fill="none" stroke="#000" stroke-linecap="round" stroke-linejoin="round" stroke-miterlimit="10" stroke-width=".5" d="M448.00781 481.41797l-.99219-.71875"/></g><g clip-path="url(#Z)"><path fill="none" stroke="#000" stroke-linecap="round" stroke-linejoin="round" stroke-miterlimit="10" stroke-width=".5" d="M462.23438 483.58203l2.65234-6.50781"/></g><g clip-path="url(#aa)"><path fill="none" stroke="#000" stroke-linecap="round" stroke-linejoin="round" stroke-miterlimit="10" stroke-width=".5" d="M147.51172 466.91016l-7.02344.20703"/></g><path fill="none" stroke="#000" stroke-linecap="round" stroke-linejoin="round" stroke-miterlimit="10" stroke-width=".5" d="M147.51172 466.91016l1.21484 2.1289m-2.23828-2.10156l.60938 1.0664m13.73047-1.0078l-7.02735.03515m7.02734-.03516l1.16407 2.16016M159.80469 467l.58203 1.08203m13.7539-1.16015l-7.02343.18359m7.02344-.1836l1.21093 2.13282m-2.23047-2.10547l.60547 1.0664m13.73047-1.09765l-7.02344.1914m7.02344-.1914l1.21094 2.13281m-2.23438-2.10547l.60547 1.0664m13.72656-1.24609l-7.01171.4961m7.01172-.4961l1.30078 2.08204m12.01953-1.73438l-7.02344-.19922m7.02344.19922l1.08984 2.19922m12.14453-3.05469l-6.85937 1.51172m6.85937-1.51172l1.59375 1.86719m11.80078-1.30469l-7.01562.38672m7.01562-.38672l1.26953 2.10157m12.01172-2.41407l-6.95312 1.01172m6.95312-1.01172l1.45313 1.97657m11.8086-2.26172l-6.84766 1.58203m6.84765-1.58203l1.60938 1.85156m11.79687-1.08594l-7.02734.05078m7.02734-.05078l1.16797 2.15625m11.8711-3.4961l-6.47266 2.73048m5.53125-2.33203l.94922.77343m13.16015-1.47656l-6.18359 3.33984m5.28516-2.85156l1.02343.67969m13.14453-1.25l-6.08984 3.5039m6.08984-3.5039l2.07813 1.30469m11.03516-1.6172l-5.6875 4.12891m5.6875-4.1289l2.20703 1.07812m10.95312-1.27734l-5.375 4.52734m5.375-4.52734l2.27735.91797m10.74218-1.22656l-4.78515 5.14453m4.08984-4.39453l1.1836.3164m13.15624-.71875l-5.4414 4.44922m13.6289-4.78516l4.8086 5.1211m-4.10938-4.3789l.39844-1.16016m11.14453 3.47656l6.95703-.9961m-5.9453.85157l-.72267-.99219m13.41407 2.3086l6.17968-3.33985m-5.28125 2.85547l-1.01953-.67969m17.67188 2.8164l-2.29297-6.64452m1.96094 5.67578l-.83594.89843m16.71094-4.23046l-6.7461 1.95703m5.76563-1.67188l.85547.8789m10.59375-3.66015l-1.05469 6.94922m1.05469-6.94922l2.3125-.8125m8.16015 6.92969l4.63282-5.28516m-4.63282 5.28516l-2.39062-.5625"/><g clip-path="url(#ab)"><path fill="none" stroke="#000" stroke-linecap="round" stroke-linejoin="round" stroke-miterlimit="10" stroke-width=".5" d="M147.48828 454.10547l-6.97656-.8164"/></g><path fill="none" stroke="#000" stroke-linecap="round" stroke-linejoin="round" stroke-miterlimit="10" stroke-width=".5" d="M147.48828 454.10547l.89453 2.28906m12.41406-2.21094l-6.96093-.96875m6.96094.96875l.83984 2.3047m12.46875-2.26563l-6.94922-1.05079m6.94922 1.05079l.8125 2.3164m12.50781-2.3711l-6.96094-.9375m6.96094.9375l.85156 2.30079m-1.86328-2.4375l.42578 1.15234m13.9297-1.67187l-7.01954.375m7.01953-.375l1.26563 2.10156m-2.28907-2.04687l.63672 1.05078m13.70313-1.01563l-7.02344.1914m7.02344-.1914l1.21094 2.13672m12.08593-1.64453l-6.98437-.78906m6.98437.78906l.89844 2.28125m12.41016-2.23828l-6.97266-.8789m6.97266.8789l.87109 2.29687m12.46875-2.8125l-7.02344.15625m7.02344-.15625l1.20313 2.14063m12.08593-2.51953l-6.96875.91406m6.96875-.91406l1.42188 2m11.84765-2.26563l-6.8789 1.44531m6.8789-1.4453l1.57032 1.8828m11.6914-2.10156l-6.76953 1.88281m6.76953-1.8828l1.6875 1.78124m11.41016-2.36328l-6.33594 3.04688m6.33594-3.04688l1.97656 1.45313m-2.89844-1.00782l.98828.72657m12.94532-1.6797l-5.73047 4.0625m5.73047-4.0625l2.19531 1.09766m-3.02734-.5078l1.09375.55077m13.0078-1.20703l-5.64062 4.1914m5.64063-4.1914l2.21875 1.05469m-3.03906-.44531l1.10937.52734m12.82031-1.38672l-5.22656 4.69531m5.22656-4.6953l2.3047.83984m-3.06642-.15625l1.15235.41796m12.30469-1.64843l-3.98829 5.78515m3.98829-5.78515l2.4375.28515m-3.01563.5586l1.21875.14062m11.24219-1.5586l-1.1211 6.9375m1.1211-6.9375l2.32031-.79296m8.5586 1.28906l3.74609 5.94531m-3.7461-5.9453l1.21875-2.12891m11.96094 2.21875l4.01953 5.76562m-4.01953-5.76562l1.1211-2.1836m15.99218 2.04297l-3.57812 6.04688m3.57812-6.04688l2.45313.10938m12.46875 2.0039l-6.78906 1.82031m6.78906-1.8203l1.67187 1.79687m11.06641-2.98438l-5.63672 4.19531m5.63672-4.1953l2.21875 1.05077m10.34375-1.79687l-4.13281 5.6836m4.13281-5.6836l2.42969.34375m9.96093-.82422l-2.28125 6.64844m2.28125-6.64844l2.42188-.38672"/><g clip-path="url(#ac)"><path fill="none" stroke="#000" stroke-linecap="round" stroke-linejoin="round" stroke-miterlimit="10" stroke-width=".5" d="M147.41797 441.19922l-6.83594-1.63281"/></g><path fill="none" stroke="#000" stroke-linecap="round" stroke-linejoin="round" stroke-miterlimit="10" stroke-width=".5" d="M147.41797 441.19922l.61719 2.3789m12.33984-1.46875l-6.1211-3.44921m6.1211 3.44922l-.0586 2.45312m-.83202-2.95703l-.02735 1.22656m14.41797-1.10156l-6.48828-2.69531m6.48828 2.6953l.23438 2.44141m12.98437-2.22656l-6.29688-3.125m6.29688 3.125l.0664 2.45313m13.58985-3.59766l-6.98047-.83203m6.98047.83203l.88672 2.28516m-1.90234-2.40625l.4453 1.14062m13.90235-1.67187l-7.01172.46875m7.01172-.46875l1.29297 2.08594m11.9336-1.03907l-6.83594-1.6211m6.83593 1.6211l.6211 2.3711m12.78125-3.4297l-7.01172.4922m7.01172-.4922l1.30078 2.08204m-2.32031-2.00781l.64843 1.03906m13.69532-.92188l-7.02735.11329m7.02735-.11328l1.18359 2.14843m12.11328-1.73828l-6.99219-.71094m6.9922.71094l.92577 2.26953m12.30469-3.46093l-6.82422 1.67187m6.82422-1.67187l1.63672 1.83203m11.69531-1.76953l-6.85547 1.54687m6.85547-1.54688l1.59766 1.85938m-2.59766-1.63281l.80078.92969m13.19922-2.01172l-6.22656 3.2578m6.22656-3.2578l2.02344 1.38672m-2.92969-.91407l1.01172.69531m12.28906-2.28515l-4.38672 5.49219m4.38672-5.4922l2.41016.45313m-3.05078.34766l1.20703.22656m13.39453-.34765l-5.67969 4.13672m5.67969-4.13672l2.20703 1.0703m-3.03125-.46874l1.10156.53516m12.73828-1.4961l-5.08203 4.85156m5.08203-4.85156l2.33204.76953m-3.07032-.0625l1.16407.38282m12.34765-1.5547l-3.9961 5.78126m3.9961-5.78125l2.4375.28515m-3.01953.5586l1.21875.14062m11.1875-1.57031l-1.01562 6.95313m1.01562-6.95313l2.3125-.82422m-2.46094 1.83594l1.15625-.41406m10.27735-.28907l3.04297 6.33594m-3.04297-6.33594l1.45312-1.97656m12.0664 1.89063l2.63673 6.51172m-2.63672-6.51172l1.57422-1.88282m14.66797 2.01563l-3.21875 6.2461m3.21875-6.2461l2.45312-.03516m-2.92187.9414l1.22656-.01562m13.5039-.17968l-5.10937 4.82422m5.10937-4.82422l2.32422.78125m-3.0703-.08203l1.16405.39453m11.94532-1.8086l-3.20704 6.2539m3.20704-6.2539l2.45312-.03906m9.92969-.28516l-1.34375 6.89844m1.34375-6.89844l2.34765-.71484m12.6211 1.53125l-4.65235 5.26563"/><g clip-path="url(#ad)"><path fill="none" stroke="#000" stroke-linecap="round" stroke-linejoin="round" stroke-miterlimit="10" stroke-width=".5" d="M465.88672 437.75l2.38672.57422"/></g><g clip-path="url(#ae)"><path fill="none" stroke="#000" stroke-linecap="round" stroke-linejoin="round" stroke-miterlimit="10" stroke-width=".5" d="M147.51172 427.22656l-7.02344-.3164"/></g><path fill="none" stroke="#000" stroke-linecap="round" stroke-linejoin="round" stroke-miterlimit="10" stroke-width=".5" d="M147.51172 427.22656l1.05078 2.21485m12.21484-1.77735l-6.92578-1.1914m6.92578 1.1914l.76953 2.32813m12.40235-1.77344l-6.64063-2.30078m6.64063 2.30078l.3789 2.42188m-1.34375-2.75782l.19141 1.21094m14.15234-1.07031l-6.76562-1.91016m6.76563 1.91016l.51953 2.39844m-1.50391-2.67579l.25781 1.19922m14.0039-.79687l-6.6875-2.16016m6.6875 2.16016l.4297 2.41797m-1.40625-2.73047l.21484 1.20703m14.01172-.71875l-6.5625-2.51172m6.5625 2.51172l.30078 2.4375m12.2461-1.23828l-5.02735-4.91016m4.29688 4.19531l-.34375 1.1797M240.5 428.28905l-6.58984-2.4375m6.58984 2.4375l.32813 2.42969m12.98437-4.8789l-6.58203 2.45703m6.58203-2.45704l1.83594 1.62891m11.4961.78516l-6.6172-2.3711m5.65235 2.02735l.17578 1.21484m14.29297-2.36719l-6.9961.625m6.9961-.625l1.34375 2.05469m11.74219-3.03125l-6.53907 2.57422m6.53907-2.57422l1.86718 1.59375m11.03907-2.34766l-5.71875 4.08204m5.71875-4.08204l2.1953 1.09375m-3.02734-.5l1.09766.54688m11.71484-2.26563l-3.05078 6.33204m3.05078-6.33204l2.45313-.09765m-2.89844 1.01953l1.22656-.04688m13.33985-.33593l-4.66406 5.2578m4.66406-5.2578l2.38672.57422m11.60156.23437l-6.01172 3.63672m6.01172-3.63672l2.10937 1.2539m10.71094-1.89452l-5.01953 4.91796m5.01953-4.91796l2.33985.74218m-3.07032-.02734l1.16797.3711m12.0625-1.70313l-3.39062 6.15234m3.39062-6.15234l2.45313.03515m-2.94532.85938l1.22657.01953m12.28515-1.0625l-2.79687 6.44922m2.79687-6.44922l2.44532-.1914m12.1914 1.1914l-5.4414 4.44922m5.4414-4.44922l2.26172.94531m-3.05469-.29687l2.26563.94531m11.78515-1.66406l-5.32421 4.58984m5.32421-4.58984l2.28516.89062m-3.0625-.22265l2.28906.89062m-3.0625-.22265l1.14453.4453m13.04688-2.3828l-3.97656 5.79296m3.97656-5.79296l2.4375.27734m-3.01563.5664l1.21875.13672m10.66797-1.59765l.03516 7.02734m-.03516-7.02734l2.16016-1.16406m-2.15625 2.1875l2.16016-1.16407m12.34765.34375l-2.35937 6.6211m2.35937-6.6211l2.42578-.35937m-2.76953 1.32422l1.21485-.1797m12.85156-.60937l-3.17188 6.26954m3.17188-6.26954l2.45312-.05078"/><g clip-path="url(#af)"><path fill="none" stroke="#000" stroke-linecap="round" stroke-linejoin="round" stroke-miterlimit="10" stroke-width=".5" d="M147.32813 412.6289l-6.65625 2.25"/></g><path fill="none" stroke="#000" stroke-linecap="round" stroke-linejoin="round" stroke-miterlimit="10" stroke-width=".5" d="M147.32813 412.6289l1.78515 1.6836m11.67188-1.11719l-6.9375 1.11719m5.92578-.95703l.74219.98047m13.41406.6211l-6.60156-2.41017m6.60156 2.41016l.33984 2.42969m13.0586-2.6875l-6.76563-1.89063m6.76563 1.89063l.52734 2.39844m-1.51172-2.67188l.26172 1.19531m14.08984-1.1328l-6.8711-1.46876m6.8711 1.46875l.67578 2.35938m10.71875.07421l-3.03125-6.33984M211.65234 416l-.73047.98828m12.9375.27734l.0625-7.02734m-.05468 6.00781l-1.08985.5625m15.23828.36328l-1.62109-6.83593m1.6211 6.83593l-1.84375 1.6211m17.83593-5.46875l-6.97265.85937m6.97265-.85937l1.41016 2.00781m11.92969-1.60156l-7.02735.04687m7.02735-.04687l1.16797 2.15625m12.13671-2.40625l-7.0039.54687m7.0039-.54687l1.31641 2.07031m10.48828-4.6914l-3.98437 5.78906m3.98437-5.78907l2.4375.28125m11.5039.26954l-5.23827 4.68359m5.23828-4.6836l2.30469.84766m10.83203-1.03125l-4.87891 5.05469m4.8789-5.05469l2.35938.67578m-3.07031.0586l1.17969.33984m11.52734-1.8789l-2.24219 6.66015m2.24219-6.66016l2.42188-.39843m11.3828.60547l-3.21874 6.25m3.21875-6.25l2.45312-.03125m12.76172 2.99609l-7.01953.32031m7.01953-.32031l1.25 2.10937m11.75-3.41015l-6.39062 2.92187m6.39062-2.92187l1.94922 1.49219m-2.8789-1.06641l1.94921 1.49219m11.97657-2.47657l-5.75 4.03907m5.75-4.03907l2.1875 1.10938m-3.02344-.52344l2.1875 1.10938m-3.02735-.51953l1.09766.55468m14.02344-1.53515l-6.01172 3.64453m6.01172-3.64453l2.10547 1.25781m-2.98047-.72656l2.10937 1.2539m11.36328-2.6289l-4.57812 5.33203m4.57812-5.33203l2.39454.53906m-3.0625.23828l2.39453.53516m9.76953-2.1289l-.9375 6.96483m.9375-6.96484l2.30078-.85156m-2.4375 1.86719l2.30078-.85157m10.21094-.16406l.9414 6.96484m-.9414-6.96484l1.9961-1.42969m-1.85938 2.44532l1.99218-1.4336m13.52344.92578l-3.73047 5.95313m3.73047-5.95313l2.44531.17188m-2.98828.6914l1.22266.08985m13.59375-.0625l-5.65234 4.17187"/><g clip-path="url(#ag)"><path fill="none" stroke="#000" stroke-linecap="round" stroke-linejoin="round" stroke-miterlimit="10" stroke-width=".5" d="M466.38672 411.66797l2.21484 1.0586"/></g><path fill="none" stroke="#000" stroke-linecap="round" stroke-linejoin="round" stroke-miterlimit="10" stroke-width=".5" d="M465.5664 412.27344l1.10548.53125"/><g clip-path="url(#ah)"><path fill="none" stroke="#000" stroke-linecap="round" stroke-linejoin="round" stroke-miterlimit="10" stroke-width=".5" d="M147.04297 398.6836l-6.08594 3.51171"/></g><path fill="none" stroke="#000" stroke-linecap="round" stroke-linejoin="round" stroke-miterlimit="10" stroke-width=".5" d="M147.04297 398.6836l2.08203 1.30077m11.42969-.90234l-6.48047 2.71485m6.48047-2.71485l1.90234 1.55469m11.28906 1.42187l-6.23437-3.24218m5.32812 2.77343l.01172 1.22657m14.51172-1.5586l-6.83594-1.64062m5.83985 1.40234l.3086 1.1875m13.67577-.09765l-6.1836-3.33985m5.28517 2.85156l-.00782 1.23047m8.19531-.48047l5.8711-3.86328m-5.01563 3.30078l-1.07812-.58984m15.14453 2.47266l2.65625-6.50391m-2.26953 5.5586l-1.22266.12109m18.88281-1.55469l-6.80859-1.7461m6.8086 1.7461l.57812 2.38281m-1.57031-2.63672l.57812 2.38282m13.82031-3.375l-6.98828.74609m6.98828-.7461l1.375 2.03126m-2.39453-1.92188l1.375 2.03125m12.9375-2.28906l-6.94922 1.03906m6.94922-1.03906l1.46094 1.97265m-2.46875-1.8203l.73047.98437m13.6211-.32813l-7.00391-.57812m7.0039.57812l.96875 2.2539m-1.98828-2.33593l.48438 1.125m13.53125-2.82031l-6.36719 2.97656m6.36719-2.97656l1.96093 1.47656m-2.88671-1.04297l.98046.73828m13.58985.22266l-7.02344.1914m7.02344-.1914l1.21094 2.13281m11.6953-3.6836l-6.20702 3.29298m6.20703-3.29297l2.03515 1.375m10.65625-2.21875l-4.95703 4.98047m4.95703-4.98047l2.34766.71094m-3.07031.01171l1.17578.35547m13.79297.57032l-6.82422 1.67968m6.82422-1.67968l1.63672 1.82812m-2.6289-1.58203l.8203.91406m13.23438 1.22266l-6.3164-3.08594m6.3164 3.08594l.08203 2.45312m13.42578-5.05468L367.00781 401.5m6.69922-2.1211l1.75 1.71485m-2.72656-1.40625l1.7539 1.71484m11.72657-3.39062l-5.07813 4.85547m5.07813-4.85547l2.33203.76953m-3.07031-.0625l2.32812.76953m12.5586-.03125l-6.7461 1.96094m6.7461-1.96094l1.71093 1.76172m-2.6914-1.47656l.85546.88281m13.5586-.5625l-6.98438.75m6.98438-.75l1.3789 2.03125m10.10547-4.75l-3.32422 6.1914m3.32422-6.1914l2.45313.00781m-2.9375.89063l1.23047.00781m12.48828-.94922l-3.16016 6.27344m3.16016-6.27344l2.45312-.05469m-2.91406.96875l2.45313-.05468m12.58593.21484l-5.6875 4.125m5.6875-4.125l2.20703 1.07813m-3.03515-.47657l1.10547.53906m13.55468-.10546l-6.71875 2.05468"/><g clip-path="url(#ai)"><path fill="none" stroke="#000" stroke-linecap="round" stroke-linejoin="round" stroke-miterlimit="10" stroke-width=".5" d="M466.92188 399.41016l1.73437 1.73437"/></g><path fill="none" stroke="#000" stroke-linecap="round" stroke-linejoin="round" stroke-miterlimit="10" stroke-width=".5" d="M465.94531 399.71094l1.73438 1.73437"/><g clip-path="url(#aj)"><path fill="none" stroke="#000" stroke-linecap="round" stroke-linejoin="round" stroke-miterlimit="10" stroke-width=".5" d="M146.94531 385.20313l-5.89062 3.83984"/></g><path fill="none" stroke="#000" stroke-linecap="round" stroke-linejoin="round" stroke-miterlimit="10" stroke-width=".5" d="M146.94531 385.20313l2.14453 1.1875m11.35157-.875l-6.25 3.21484m6.25-3.21485l2.01172 1.40235m10.47265-2.45703l-4.58984 5.32422m3.92187-4.54688l1.19531.26953m11.13672-1.83984l-1.28906 6.91015m1.28906-6.91015l2.33985-.73438m10.04687.6875l.5664 7.00391m-.5664-7.0039l2.0664-1.32423m15.00392 5.35938l-6.94532-1.0664m6.94531 1.0664l.8125 2.3164m-1.8203-2.47265l.80859 2.3164m13.53515-2.29687l-6.98437-.79297m6.98437.79297l.89844 2.28125m-1.91406-2.39844l.44922 1.14454m13.87109-.94532l-6.96094-.95703m6.96094.95703l.84375 2.30469m-1.85938-2.4414l.84766 2.30077m13.47266-2.09375l-6.9414-1.09765m6.9414 1.09765l.79687 2.32032m-1.8086-2.48047l.39845 1.16015m13.96093-1.28906l-7.0078-.51562m7.0078.51562l.98828 2.24219m-2.0078-2.32031l.49609 1.125m13.84375-1.17578l-7.01953-.26172m7.01953.26172l1.0703 2.20703m-2.08983-2.2461l.53515 1.10547m13.76563-1.71094l-6.95313 1.02735m6.95313-1.02735l1.45703 1.97657m-2.46875-1.82813l.73047.98828m13.57812-1.2578l-6.91406 1.26952m6.91406-1.26953l1.52344 1.92188m-2.53125-1.73829l.76172.96094m13.59765-.86719l-6.98828.71485m6.98828-.71485l1.3672 2.03907m-2.38282-1.9336l.6836 1.01954m13.33593-2.25782l-6.36328 2.98047m6.36328-2.98047l1.96094 1.47266m11.23828-1.6914l-6.13672 3.42187m6.13672-3.42188l2.0625 1.32813m-2.95313-.83203l1.03125.66406m13.52344-.27735l-6.83203 1.65235m6.83203-1.65235l1.6289 1.83594m-2.625-1.59375l1.62891 1.83594m-2.62109-1.59766l.8125.91797m14.1836-2.21094l-6.21485 3.27735m6.21484-3.27735l2.02735 1.37891m-2.9336-.90234l2.03125 1.3789m-2.93359-.90234l1.01563.6914m13.7578-2.18359l-5.51562 4.35547m5.51563-4.35547l2.2461.98828m-3.05079-.35156l2.25.98438m-3.05078-.35157l1.125.4922m13.90625-1.61329l-5.73828 4.0586m5.73828-4.0586l2.1914 1.10156m-3.02734-.51172l2.1914 1.10547m11.69923-2.01562l-5.21875 4.70312m5.21875-4.70312l2.30859.83594m-3.0664-.15235l1.15234.41797m12.32031-1.63281l-4.01953 5.76172m4.01953-5.76172l2.4375.29297m-3.01953.54296l1.21484.14844m12.82813-.8789l-4.3086 5.55078m4.3086-5.55078l2.41797.42187m-3.04297.38672l1.20703.21094m13.10156-.6914l-5.04297 4.89452m5.04297-4.89453l2.33203.7539m-3.0664-.04296l1.16797.3789m12.72265-1.24218l-4.72656 5.19922"/><g clip-path="url(#ak)"><path fill="none" stroke="#000" stroke-linecap="round" stroke-linejoin="round" stroke-miterlimit="10" stroke-width=".5" d="M465.92578 384.52344l2.3789.60547"/></g><path fill="none" stroke="#000" stroke-linecap="round" stroke-linejoin="round" stroke-miterlimit="10" stroke-width=".5" d="M465.23828 385.28125l2.3789.60547"/><g clip-path="url(#al)"><path fill="none" stroke="#000" stroke-linecap="round" stroke-linejoin="round" stroke-miterlimit="10" stroke-width=".5" d="M146.5039 371.34375l-5.0078 4.92969"/></g><path fill="none" stroke="#000" stroke-linecap="round" stroke-linejoin="round" stroke-miterlimit="10" stroke-width=".5" d="M146.5039 371.34375l2.33985.73828m11.45313-.13281l-5.96094 3.71875m5.96094-3.71875l2.125 1.22656m10.35156-2.15234l-4.28516 5.57031m4.28516-5.57031l2.41797.40625m-3.04297.40234l1.21094.20703m12.92968-.84765l-4.6914 5.23437m4.6914-5.23437l2.38281.58984m11.37891-.10547l-5.58203 4.26563m5.58203-4.26563l2.23047 1.01953m11.80078 1.33985l-7.01172-.45313m7.01172.45313l1.00781 2.23828m-2.02734-2.30469l.5039 1.11719m13.45704.3125l-6.26563-3.17969m6.26563 3.17969l.04687 2.45312m-.95703-2.91406l.04297 2.45313m14.53516-3.14844l-6.97266-.8711m6.97266.8711l.875 2.29297m-1.89063-2.41797l.875 2.29297m13.36719-1.71094l-6.79688-1.78125m6.79688 1.78125l.5664 2.39062m-1.55468-2.64843l.5664 2.38671m13.71485-2.04296l-6.75-1.95313m6.75 1.95313l.5039 2.40234m-1.48437-2.6875l.25 1.20313m14.09375-1.09766l-6.84766-1.59375m6.84766 1.59375l.6289 2.3711m-1.625-2.60548l.62891 2.3711m13.77344-2.8711l-7.02734-.125m7.02734.125l1.10937 2.1875m-2.1328-2.20703l1.11327 2.1875m13.19922-2.63281l-6.98047.80469m6.98047-.80469l1.39453 2.02344m-2.41015-1.90625l1.39453 2.01953m-2.41016-1.90235l.69922 1.01172m14.60547-1.51562l-6.89453 1.34375m6.89453-1.34375l1.54687 1.90625m-2.54687-1.71094l1.54297 1.90625m-2.54688-1.71094l.76953.95313m14.53907-1.41016l-6.8711 1.47656m6.8711-1.47656l1.58203 1.875m-2.58203-1.66015l1.58203 1.875M331.84766 373.5l.78906.9375m14.54297-1.28125l-6.90625 1.30469m6.90625-1.30469l1.53515 1.91406m-2.54296-1.72656l1.53515 1.91406m-2.53906-1.72265l.76953.95703m14.57031-1.2539l-6.9336 1.14062m6.9336-1.14063l1.48828 1.94922M359.5 373.40234l1.48828 1.95313m-2.4961-1.78516l.7422.97266m14.51171-1.65625l-6.78125 1.84375m6.78125-1.84375l1.6797 1.78906m-2.66407-1.51953l1.67969 1.78906m-2.66797-1.52344l.83984.89454m14.1875-2.10547l-6.25781 3.19531m6.25781-3.19531l2.01172 1.40625m-2.92187-.9414l2.01171 1.40624m-2.92187-.9414l1.0039.70312m13.98438-1.89453l-5.96484 3.71875m5.96484-3.71875l2.1211 1.22656m-2.98829-.6875l2.1211 1.23047m12.14062-1.63672l-6.1211 3.45313m6.1211-3.45313l2.0664 1.32031m-2.95702-.8164l1.03125.66015m13.05859-1.34765l-5.89453 3.82031m5.89453-3.82031l2.14844 1.1875m11.08594-1.3125l-5.73047 4.0664m5.73047-4.0664l2.1914 1.10156m11.07422-1.16406l-5.63281 4.19531m5.63281-4.19531l2.21875 1.04687m10.78906-1.41015l-5.01562 4.92187"/><g clip-path="url(#am)"><path fill="none" stroke="#000" stroke-linecap="round" stroke-linejoin="round" stroke-miterlimit="10" stroke-width=".5" d="M466.07031 371.34766l2.33985.74218"/></g><path fill="none" stroke="#000" stroke-linecap="round" stroke-linejoin="round" stroke-miterlimit="10" stroke-width=".5" d="M465.33984 372.0625l1.17188.3711"/><g clip-path="url(#an)"><path fill="none" stroke="#000" stroke-linecap="round" stroke-linejoin="round" stroke-miterlimit="10" stroke-width=".5" d="M145.79688 357.47656l-3.59375 6.03516"/></g><path fill="none" stroke="#000" stroke-linecap="round" stroke-linejoin="round" stroke-miterlimit="10" stroke-width=".5" d="M145.27344 358.35156l1.22656.0625m13.1875-.51172l-4.7461 5.1797m4.7461-5.1797l2.3789.6172m11.35548-.16017l-5.58204 4.26954m5.58203-4.26954l2.23047 1.01954m11.46875-.38672l-6.35156 3.0039m6.35156-3.0039l1.96875 1.46484m-2.89062-1.02734l.98047.73047m13.3125-1.04297l-6.46485 2.75m6.46485-2.75l1.91015 1.54297m11.66407-.5586l-6.98438.78516m6.98438-.78516l1.38672 2.02344m11.60156-.10938l-6.33203-3.04687m6.33203 3.04688l.10156 2.45312m-1.01953-2.89453l.09766 2.44922m14.28515-2.36719l-6.6289-2.32813m6.6289 2.32813l.3711 2.42578m-1.33594-2.76562l.3711 2.42578m13.90624-2.07422l-6.6211-2.35156m6.6211 2.35156l.35938 2.42578m-1.32422-2.76563l.17969 1.21094m14.20312-1.22265l-6.82813-1.64844m6.82813 1.64844l.61328 2.375m-1.60547-2.61329l.30469 1.1875m14.04297-1.14062l-6.91016-1.26172m6.91016 1.26172l.7461 2.33594m-1.75-2.51953l.74218 2.33593m13.60547-2.33593l-6.96875-.89844m6.96875.89844l.86719 2.29687m-1.87891-2.42578l.86328 2.29688m-1.8789-2.4297l.43359 1.14844m14.9336-1.51171l-7.01563.35156m7.01562-.35156l1.26172 2.10546m-2.28125-2.05468l1.25781 2.10547m-2.28125-2.0547l.63282 1.0547m14.67187-1.6211l-6.91015 1.28516m6.91015-1.28516l1.52735 1.91797m-2.53125-1.73047l1.52734 1.91797m-2.53516-1.73047l.76563.95703m14.42187-1.84765l-6.63281 2.3164m6.63281-2.3164L335.53125 361m-2.76953-1.32813l1.80469 1.66407m12.62109-1.44922l-6.92187 1.21094m6.92187-1.21094l1.50781 1.9375m-2.51562-1.76172L347.6875 362m12.83203-2.01172L353.5625 361m6.95703-1.01172l1.44922 1.97656m-2.46094-1.83203l1.44922 1.98047m12.83203-2.36328l-6.86718 1.48438m6.86718-1.48438l1.58594 1.875m-2.58203-1.65625l1.58203 1.8711m12.3789-3.03126l-6.16406 3.3711m6.16407-3.3711l2.05078 1.34766m-2.94922-.85938l2.05078 1.34766m-2.94531-.85547l1.02344.67188m13.59765-2.33594l-5.1914 4.73828m5.1914-4.73828l2.3086.82031m-3.06641-.13281l2.3125.82422m-3.0664-.13281l1.15624.41015m13.5586-1.90625l-4.96875 4.96875m4.96875-4.96875l2.34765.71875m-3.07031.0039l2.34766.71876m-3.07032.0039l1.17188.35938m13.71875-1.66797l-5.22656 4.69531m5.22656-4.6953l2.30469.84374m-3.06641-.16015l2.30469.84375m11.73437-1.56641l-5.15625 4.77344m5.15625-4.77344l2.32032.8086m-3.07032-.11329l1.16016.40235m12.73047-1.27344l-4.80469 5.1289m4.80469-5.1289l2.36719.63672m11.05859-.52735l-5.02734 4.91016"/><g clip-path="url(#ao)"><path fill="none" stroke="#000" stroke-linecap="round" stroke-linejoin="round" stroke-miterlimit="10" stroke-width=".5" d="M466.07422 358.03906l2.33984.74219"/></g><g clip-path="url(#ap)"><path fill="none" stroke="#000" stroke-linecap="round" stroke-linejoin="round" stroke-miterlimit="10" stroke-width=".5" d="M144.625 343.71875l-1.25 6.91797"/></g><path fill="none" stroke="#000" stroke-linecap="round" stroke-linejoin="round" stroke-miterlimit="10" stroke-width=".5" d="M144.625 343.71875l2.33594-.7461m11.61328.92579l-2.51953 6.5586m2.51953-6.5586l2.4336-.30078m-2.80079 1.2539l1.21875-.14844m13.46484-.21484l-4.51953 5.3789m4.51953-5.3789l2.39844.51172m11.2539-.1875l-5.1953 4.73438m5.1953-4.73438l2.3086.82422m11.75.46094l-6.6836 2.16015m6.6836-2.16015l1.76563 1.70703m-2.73828-1.39453l.8828.85546m13.46485.78516l-6.80469-1.7461m6.8047 1.7461l.57812 2.38672m-1.5664-2.64063l.28905 1.19532m13.94141-.6836l-6.65625-2.2578m6.65625 2.2578l.39453 2.41797m-1.36328-2.75l.19531 1.21094m13.83594-.3086l-6.15234-3.39843m6.15234 3.39844l-.03906 2.45312m-.85547-2.94922l-.03906 2.45313m14.38672-2.23828l-6.4297-2.83985m6.4297 2.83985l.17968 2.4453m-1.11328-2.85937l.17969 2.44922m14.24219-2.51562l-6.77344-1.8789m6.77344 1.8789l.52734 2.39844m-1.51563-2.67188l.53125 2.39844m13.82032-2.32422l-6.8711-1.48047m6.8711 1.48047l.66797 2.35937m-1.66797-2.57421l.67187 2.35937m13.64844-2.17188l-6.88281-1.42578m6.88281 1.42579l.6875 2.35546m-1.6875-2.5625l.6875 2.35547m-1.6914-2.5625l.34765 1.17578m14.875-.39453l-6.6875-2.16015m6.6875 2.16015l.42969 2.41797m-1.40235-2.73047l.4297 2.41406m-1.40235-2.73046l.21484 1.20703m15.16016-1.04297l-6.91797-1.23047m6.91797 1.23047l.7539 2.33594m-1.76171-2.51563l.7539 2.33594m-1.75781-2.51172l.375 1.16406m14.89844-2.28906l-6.8086 1.73047m6.8086-1.73047l1.64843 1.8125m-2.64062-1.5625l1.65234 1.8164m12.16016-3.16796l-5.82031 3.9375m5.8203-3.9375l2.16798 1.14844m-3.01563-.57813l1.08594.57422m13.24219-.8789l-6.15235 3.40234m6.15235-3.40235l2.05469 1.33985m-2.94922-.84375l1.02734.66796m13.59766.15235l-6.98438.76953m6.98438-.76953l1.3828 2.02734m-2.39843-1.91406l1.38281 2.02344m-2.39843-1.91406l.6914 1.01562m14.50781-1.9336l-6.6875 2.16016m6.6875-2.16015l1.76172 1.70703m-2.73437-1.39063l1.76172 1.70703m-2.73438-1.39453l.8789.85547m14.13673-2.0586l-6.19922 3.3086m6.19922-3.3086l2.03515 1.3672m-2.9375-.88672l2.03516 1.37109m-2.9375-.88672l1.01953.6836m13.40235-2.5586l-4.8047 5.1289m4.8047-5.1289l2.37109.64453m-3.07031.10156l2.37109.64454m-3.07031.10156l1.1836.32031m12.68358-2.39844l-3.10937 6.30079m3.10938-6.30079l2.44921-.07421m-2.90234.99218l2.45313-.07812m-2.90625.99219l1.22656-.03516m12.95703-1.8125l-3.03906 6.33594m3.03906-6.33594l2.45312-.10156m-2.89453 1.02343l2.45313-.10156m11.78125-.54687L448.25 350.0703m3.99219-5.78515l2.4375.28515m-3.01953.5586l1.21875.14062m13.64062.01563l-5.91797 3.78906"/><g clip-path="url(#aq)"><path fill="none" stroke="#000" stroke-linecap="round" stroke-linejoin="round" stroke-miterlimit="10" stroke-width=".5" d="M466.51953 345.28516l2.14063 1.20312"/></g><g clip-path="url(#ar)"><path fill="none" stroke="#000" stroke-linecap="round" stroke-linejoin="round" stroke-miterlimit="10" stroke-width=".5" d="M140.5664 333.1211l6.8672 1.48046"/></g><path fill="none" stroke="#000" stroke-linecap="round" stroke-linejoin="round" stroke-miterlimit="10" stroke-width=".5" d="M156.15625 330.54688l2.3164 6.6328m-2.3164-6.6328l1.66406-1.80079m13.28516 1.63672l-.94922 6.96094m.94922-6.96094l2.30078-.85156m-2.4414 1.86328l1.15234-.42578m14.32422.42188l-4.9922 4.9453m4.9922-4.9453l2.34375.72656m11.64453.23047l-6.33985 3.03125m6.33985-3.03125l1.97265 1.45703m-2.89453-1.01563l.98828.72656m13.57032.72657l-6.98438-.75781m6.98438.7578l.91406 2.28126m-1.92969-2.39063l.91016 2.27735m13.1875-1.23438l-6.51563-2.625m6.51563 2.625l.26172 2.4375m-1.20703-2.82031l.2578 2.4414m13.72657-1.51171l-5.96484-3.71875m5.96484 3.71875l-.16797 2.44921m-.69922-2.99218l-.16797 2.44922m14.36328-1.9297l-5.99218-3.67187m5.99219 3.67188l-.14844 2.44922m-.72266-2.98438l-.14844 2.44922m14.44141-2.09765l-6.20313-3.3047m6.20313 3.3047l-.0039 2.45312m-.89844-2.9336l-.00391 2.45313m14.47656-2.58594l-6.71484-2.07812m6.71484 2.07812l.46094 2.41016m-1.4375-2.71094l.46094 2.41016m13.92578-2.49219l-6.90235-1.3125m6.90235 1.3125l.72656 2.34375m-1.73047-2.53515l.36328 1.17187m13.98828-1.17578l-6.96875-.92188m6.96875.92188l.85547 2.29687M306.25 334.1875l.42969 1.15234m13.92968-1.54296l-7.02734.1328m7.02734-.1328l1.19141 2.14453m-2.21484-2.125l1.1914 2.14453m13.10157-2.65625l-6.9375 1.11719m6.9375-1.1172l1.48437 1.95313m-2.49219-1.79297l1.48047 1.95704m12.78906-2.39454l-6.82812 1.67188m6.82812-1.67188l1.63282 1.83204m-2.6289-1.58985l.8164.91797m13.40234-1.47266l-6.64453 2.29688m6.64453-2.29688l1.79688 1.67188m11.6875-.90625l-6.98438.76562m6.98438-.76562l1.3828 2.02734m-2.39843-1.91406l.6914 1.01172m13.25-2.39063l-6.20312 3.29688m6.20313-3.29688l2.03515 1.3711m-2.9375-.89063l2.03516 1.3711m12.09766-2l-6.03516 3.59375m6.03516-3.59375l2.09765 1.27343m-2.97656-.75l2.10156 1.26954m11.86328-2.13672l-5.57422 4.28125m5.57422-4.28125l2.23047 1.01562m-3.04297-.39062l1.1172.5078m11.86718-2.09765l-3.29297 6.21094m3.29297-6.21094h2.45312m-2.92968.90625l1.22656-.0039m10.8086-1.3086l.22265 7.02344m-.22266-7.02344l2.1289-1.22265m-2.09765 2.24609l1.0625-.61328m14.73438.53906l-4.80469 5.125m4.80469-5.125l2.3711.64063m11.87108.80078l-6.66015 2.23828"/><g clip-path="url(#as)"><path fill="none" stroke="#000" stroke-linecap="round" stroke-linejoin="round" stroke-miterlimit="10" stroke-width=".5" d="M466.89063 332.74219l1.78515 1.6875"/></g><path fill="none" stroke="#000" stroke-linecap="round" stroke-linejoin="round" stroke-miterlimit="10" stroke-width=".5" d="M465.92188 333.07031l.89062.84375"/><g clip-path="url(#at)"><path fill="none" stroke="#000" stroke-linecap="round" stroke-linejoin="round" stroke-miterlimit="10" stroke-width=".5" d="M140.67578 321.6914l6.64844-2.28515"/></g><path fill="none" stroke="#000" stroke-linecap="round" stroke-linejoin="round" stroke-miterlimit="10" stroke-width=".5" d="M153.83984 321.0664l6.94922-1.03906m-6.94922 1.03907l-1.46093-1.97266m2.47265 1.82422l-1.46094-1.97266m15.34375-1.35547l3.79297 5.91407m-3.79297-5.91407l1.19922-2.13671m16.47266 2.58593l-4.92188 5.01953m4.92188-5.01953l2.35156.69531m11.58594.125l-6.16406 3.375m6.16406-3.375l2.05078 1.34766m-2.94922-.85547l1.02735.67188m13.14062-1.24219l-6.07422 3.53125m6.07422-3.53125l2.08594 1.29688m-2.96875-.78125l1.04297.64843m13.52344-.2539l-6.81641 1.71093m6.8164-1.71093l1.64454 1.82421m11.34765.71485l-6.16797-3.36328m6.16797 3.36328l-.02344 2.45312m-.875-2.9414l-.01171 1.22656m14.28125-.83984l-6.27735-3.16016m6.27735 3.16016l.05078 2.45312m-.96485-2.91406l.02735 1.22656m14.29297-.96094l-6.46094-2.76953m6.46094 2.76953l.20312 2.44532m-1.14453-2.85157l.20703 2.44532m14.21485-2.51954l-6.79297-1.80859m6.79297 1.8086l.55468 2.39062m-1.54297-2.65625l.27735 1.19531m14.09375-1.2461L287 319.95704m6.92969 1.17969l.77343 2.32812m-1.78125-2.5l.38672 1.16407m13.98047-1.39844l-7.01562-.36328m7.01562.36328l1.03906 2.22265m-2.05859-2.27734l.51953 1.11328m13.80469-1.58203l-6.9961.6836m6.9961-.6836l1.35547 2.04297m-2.375-1.94531l1.35937 2.04687m12.75391-3.07422l-6.55078 2.54297m6.55078-2.54297l1.85547 1.60157m-2.8086-1.23047l1.85547 1.60156m12.0586-2.65234l-5.84766 3.89843m5.84766-3.89843l2.16015 1.16406m-3.01172-.59375l1.08204.57812m12.67968-1.64843l-5.03515 4.89843m5.03515-4.89843l2.33594.75m11.90625 1.01562l-6.89062 1.3711m5.89062-1.17188l.77344.94922m13.29297-1.92188l-6.39453 2.91407m6.39453-2.91407l1.94922 1.4922m-2.87891-1.06642l.97266.7461m11.71875-2.82031l-3.28516 6.21093m3.28516-6.21093l2.45312-.00391m-2.92969.90625h1.22657m11.30859-1.28906l-.76953 6.98437m.76953-6.98437l2.27734-.90625m-2.39062 1.92187l2.27734-.90625m10.21485-.08594l1.10156 6.94141m-1.10156-6.9414l1.95703-1.47657m-1.79688 2.48438l.98047-.73828m10.40625.5625l4.63672 5.27734m-4.63672-5.27734l.86328-2.29688m17.64063 2.91016l-5.74219 4.05078m4.90625-3.46485l1.09375.5547m12.4336-1.82032l-4.4922 5.40625"/><g clip-path="url(#au)"><path fill="none" stroke="#000" stroke-linecap="round" stroke-linejoin="round" stroke-miterlimit="10" stroke-width=".5" d="M465.8086 317.84375l2.40234.5"/></g><path fill="none" stroke="#000" stroke-linecap="round" stroke-linejoin="round" stroke-miterlimit="10" stroke-width=".5" d="M465.15234 318.63281l2.40235.4961"/><path fill="#00f" fill-rule="evenodd" d="M219.58203 467.64844h8.61719V457.5039h-8.61719v10.14453"/><path fill="azure" fill-rule="evenodd" d="M221.41406 459.33594h.83203v2.82422h3.28907v-2.82422h.83203v6.48047h-.83203v-2.91797h-3.28907v2.91797h-.83203v-6.48047"/><path fill="#ff3030" fill-rule="evenodd" d="M451.07031 458.77344h7.6914V448.625h-7.6914v10.14844"/><path fill="azure" fill-rule="evenodd" d="M452.90234 450.45703h.83204v5.74219h3.1953v.73828h-4.02734v-6.48047"/><path fill="#ff3030" fill-rule="evenodd" d="M357.86328 454.33203h7.69531V444.1875h-7.6953v10.14453"/><path fill="azure" fill-rule="evenodd" d="M359.69922 446.01953h.83203v5.73828h3.1914V452.5h-4.02343v-6.48047"/><path fill="#ff3030" fill-rule="evenodd" d="M206.96094 441.01953h7.6914V430.8711h-7.6914v10.14844"/><path fill="azure" fill-rule="evenodd" d="M208.79297 432.70703h.83203v5.73828h3.19531v.73828h-4.02734v-6.47656"/><path fill="#00f" fill-rule="evenodd" d="M388.23828 436.57813h8.61719v-10.14454h-8.61719v10.14454"/><path fill="azure" fill-rule="evenodd" d="M390.07031 428.26563h.83594v2.82421h3.28516v-2.82421h.83203v6.48046h-.83203v-2.91406h-3.28516v2.91406h-.83594v-6.48046"/><path fill="#00f" fill-rule="evenodd" d="M224.01953 414.38672h8.61719v-10.14453h-8.61719v10.14453"/><path fill="azure" fill-rule="evenodd" d="M225.85156 406.07422h.83594v2.82422h3.28516v-2.82422h.83203v6.48047h-.83203v-2.91406h-3.28516v2.91406h-.83594v-6.48047"/><path fill="#ff3030" fill-rule="evenodd" d="M295.72656 405.51172h7.69531v-10.14453h-7.6953v10.14453"/><path fill="azure" fill-rule="evenodd" d="M297.5586 397.19922h.83593v5.73828h3.1914v.74219h-4.02734v-6.48047"/><path fill="#ff3030" fill-rule="evenodd" d="M198.08203 370.0039h7.69531v-10.14452h-7.6953v10.14453"/><path fill="azure" fill-rule="evenodd" d="M199.91797 361.6914h.83203v5.73829h3.19531v.74219h-4.02734v-6.48047"/><path fill="#ffffe0" fill-rule="evenodd" d="M319.55078 382.57031h22.1836v-10.1914h-22.1836v10.1914"/><path fill-rule="evenodd" d="M323.05078 374.21094h.51172v6.29297h-.78906v-4.48829h-1.38672v-.55468l.5586-.0664.25-.05079.23046-.08984.20313-.14454.17578-.20703.14062-.29687.10547-.39453m4.8125 0l.23047.01953.21875.05469.21094.08984.19531.1211.1836.14843.17187.17578.30078.42188.24219.49219.17969.54687.11328.57813.03906.58984-.03906.59375-.11329.58594-.17968.55468-.24219.5-.30078.4297-.17188.17968-.18359.15234-.19531.125-.21094.08985-.21875.05859-.23047.01953-.22656-.01953-.21875-.0586-.21094-.08984-.19531-.125-.1836-.15234-.17187-.17969-.30078-.42969-.24219-.5-.17969-.55468-.11328-.58594-.03906-.59375h.83594l.02734.5664.08203.50391.125.4414.16406.375.19141.30079.21094.22265.22265.13672.22266.04688.22656-.04688.22266-.13671.21094-.22266.1914-.30078.16407-.375.125-.4414.08203-.50392.02734-.5664-.02734-.5586-.08203-.5-.125-.4375-.16407-.36328-.1914-.29296-.21094-.21485-.22266-.13281-.22656-.04297-.22265.04297-.22266.13281-.21094.21485-.1914.29296-.16407.36329-.125.4375-.08203.5-.02734.55859h-.83594l.03906-.58985.11328-.57812.1797-.54688.24218-.49218.30078-.42188.17188-.17578.18359-.14844.19531-.12109.21094-.08984.21875-.0547.22656-.01952m5.09375 0h.50781v6.29297h-.78515v-4.48829h-1.39063v-.55468l.5625-.0664.25-.05079.23047-.08984.20313-.14454.17578-.20703.14062-.29687.10547-.39453m2.82422 2.17578h.78516l.01953-.3164.0586-.28516.10155-.25391.14063-.21484.17969-.17579.22265-.1289.26563-.07813.3086-.02734.23827.01953.22266.0625.20312.10156.1797.14063.14843.17187.11328.20704.07422.23437.02344.26563-.02344.26953-.0625.22265-.11328.1914-.15235.17188-.20312.16407-.2461.16406-.6328.39062-.53907.3125-.4375.31641-.34766.32422-.26171.33594-.19141.35156-.125.3711-.0664.39062-.02344.41797h4.21093v-.73829h-3.33203l.08594-.28515.11328-.23438.14844-.20312.1875-.17969.23047-.17187.27734-.17579.71875-.41796.41406-.20313.34375-.23047.28125-.2539.21875-.26563.16406-.27734.11329-.28516.0625-.28515.01953-.28125-.03906-.38282-.1211-.34765-.1914-.3086-.25-.26172-.30079-.21484-.34765-.15625-.3789-.09766-.40626-.03515-.4336.03125-.39843.10156-.35547.16406-.30469.23438-.25.30469-.18359.375-.11719.4453-.03906.51954"/><path fill="#ffffe0" fill-rule="evenodd" d="M208.59375 336.84375h22.17969v-10.1914h-22.17969v10.1914"/><path fill-rule="evenodd" d="M212.09375 328.48438h.50781v6.29687h-.78515v-4.49219h-1.39063v-.55469l.5586-.0664.2539-.05078.23047-.08985.20313-.14062.17187-.21094.14453-.29687.10547-.39454m4.8125 0l.23047.01954.21875.05468.20703.08985.19531.1211.1836.14843.17187.17578.30469.42188.24219.49218.17968.54688.10938.57812.03906.59375-.03906.58985-.10938.58593-.17968.5547-.2422.5-.30468.42968-.17187.17969-.1836.15234-.19531.125-.20703.08984-.21875.0586-.23047.01953-.23047-.01953-.21875-.0586-.20703-.08984-.19531-.125-.1836-.15234-.17187-.1797-.30469-.42968-.24219-.5-.17968-.55469-.10938-.58593-.03906-.58985h.83203l.03125.5625.07813.5039.1289.44532.16016.375.1914.29688.21094.22265.22266.13672.22656.04688.22656-.04688.22266-.13672.21094-.22265.1914-.29688.16016-.375.1289-.44531.08204-.5039.02734-.5625-.02734-.5625-.08203-.5-.12891-.4375-.16016-.36329-.1914-.29297-.21094-.21484-.22266-.13281-.22656-.04297-.22656.04297-.22266.1328-.21094.21485-.1914.29297-.16016.36328-.1289.4375-.07813.5-.03125.5625h-.83203l.03906-.59375.10938-.57812.17968-.54688.2422-.49219.30468-.42187.17187-.17578.1836-.14844.19531-.1211.20703-.08984.21875-.05468.23047-.01954m5.08984 0h.51172v6.29688h-.78906v-4.49219h-1.38672v-.55469l.5586-.0664.2539-.05078.22656-.08985.20703-.14062.17188-.21094.14063-.29687.10546-.39454m2.82422 2.17579h.78906l.01954-.31641.05859-.28516.09766-.2539.14062-.21485.1836-.17187.22265-.1289.26563-.08204.30468-.02734.23828.01953.22657.0625.20312.10156.17969.14063.14844.17187.11328.20703.07031.23438.02734.26562-.02343.26953-.0664.22266-.10938.1914-.15625.17188-.19922.16406-.2461.16407-.63672.39062-.53515.3125-.4375.3164-.34766.32423-.26562.33593-.1875.35157-.125.37109-.07031.39063-.01954.42187h4.21094v-.74219h-3.33203l.08203-.28515.11328-.23438.14844-.20312.1875-.1797.23047-.17187.27734-.17578.71875-.41406.41406-.20703.34766-.23047.28125-.25.21875-.26953.16406-.27735.10938-.28515.0664-.28516.01954-.28125-.04297-.38281-.1211-.34766-.1875-.30859-.25-.26172-.30468-.21094-.34375-.16015-.38282-.09766-.40625-.03515-.43359.03515-.39844.09766-.35547.16406-.30468.23438-.2461.30468-.1875.375-.11328.44531-.04297.51954"/><path fill="#ffffe0" fill-rule="evenodd" d="M155.9336 432.3711h22.17968v-10.19141H155.9336v10.1914"/><path fill-rule="evenodd" d="M159.42969 424.01172h.51172v6.29687h-.78907v-4.48828h-1.38672v-.5586l.5586-.0625.2539-.05468.22657-.08984.20312-.14063.17578-.21094.14063-.29296.10547-.39844m4.8164 0l.22657.01953.21875.0586.21093.08984.19532.11719.18359.15234.17188.17578.30078.41797.24218.49219.1836.54687.10937.58203.03906.58985-.03906.59375-.10937.58203-.1836.55469-.24218.5039-.30078.42578-.17188.17969-.1836.15234-.1953.125-.21094.09375-.21875.0547-.22657.01952-.23047-.01953-.21875-.05469-.20703-.09375-.19922-.125-.18359-.15234-.17187-.17969-.30078-.42578-.2422-.5039-.17968-.5547-.11328-.58202-.03906-.59375h.83593l.02735.5625.08203.5078.125.44142.16406.375.1914.30078.21095.21875.22265.13671.22656.04688.22657-.04688.22265-.13671.21094-.21875.1875-.30079.16406-.375.125-.4414.08203-.50781.03125-.5625-.03125-.5625-.08203-.5-.125-.4336-.16406-.36719-.1875-.29296-.21094-.21485-.22265-.1289-.22657-.04688-.22656.04688-.22266.1289-.21093.21485-.1914.29296-.16407.3672-.125.43359-.08203.5-.02735.5625h-.83593l.03906-.58985.11328-.58203.17969-.54687.24219-.4922.30078-.41796.17187-.17578.1836-.15235.19921-.11718.20703-.08985.21875-.05859.23047-.01953m5.08985 0h.50781v6.29687h-.78516v-4.48828h-1.39062v-.5586l.5625-.0625.25-.05468.23047-.08984.20312-.14063.17578-.21094.14063-.29296.10547-.39844m2.82422 2.17578h.78515l.01953-.3164.0586-.28516.10156-.2539.14063-.21485.17968-.17188.22266-.1289.26562-.08204.3086-.02734.23828.02344.22266.0625.20312.10156.17969.13672.14844.17578.11328.20313.07422.23828.02343.26172-.01953.26953-.0664.22656-.10938.1914-.15625.17188-.20313.16016-.24609.16797-.63281.38671-.53906.3125-.4375.31641-.34375.32422-.26563.33594-.1914.35156-.125.3711-.06641.39452-.02344.41797h4.21484v-.74218h-3.33593l.08594-.28125.11328-.23829.14843-.20312.1875-.17969.23047-.17187.27735-.17578.71875-.41407.41406-.20703.34375-.23047.28125-.25.22266-.26953.16015-.27734.11328-.28125.0625-.28516.01953-.28125-.03906-.38281-.1211-.35156-.1914-.30469-.25-.26563-.30078-.21093-.34766-.16016-.3789-.09765-.40625-.03516-.4336.03515-.39843.09766-.35547.16797-.30469.23438-.25.30468-.1836.3711-.11718.44921-.03906.51563"/><path fill="#ffffe0" fill-rule="evenodd" d="M301.80078 328.13281h22.17969v-10.1914h-22.17969v10.1914"/><path fill-rule="evenodd" d="M305.29688 319.77344h.51171v6.29687h-.78906v-4.49219h-1.38672v-.55468l.5586-.0664.2539-.05079.22656-.08984.20313-.14063.17578-.21094.14063-.29687.10546-.39453m4.81641 0l.22656.01953.21875.05469.21094.08984.19531.1211.1836.14843.17187.17578.30078.42188.2422.49219.18358.54687.10938.57813.03906.59375-.03906.58984-.10938.58594-.18359.55468-.24219.5-.30078.4297-.17187.17968-.1836.15234-.1953.125-.21095.08985-.21875.05859-.22656.01953-.23047-.01953-.21875-.0586-.20703-.08984-.19922-.125-.1836-.15234-.17187-.17969-.30078-.42969-.24219-.5-.17968-.55468-.11328-.58594-.03907-.58985h.83594l.02735.5625.08203.50391.125.44531.16406.3711.1914.30078.21094.22265.22266.13672.22656.04688.22656-.04688.22266-.13671.21094-.22266.1875-.30078.16406-.3711.125-.4453.08203-.50392.03125-.5625-.03125-.5625-.08203-.5-.125-.4375-.16406-.36328-.1875-.29296-.21094-.21485-.22266-.13281-.22656-.04297-.22656.04297-.22266.13281-.21094.21485-.1914.29296-.16406.36329-.125.4375-.08204.5-.02734.5625h-.83594l.03907-.59375.11328-.57813.17969-.54688.24218-.49218.30078-.42188.17188-.17578.1836-.14844.19921-.12109.20703-.08984.21875-.0547.23047-.01952m5.08985 0h.5078v6.29687h-.78515v-4.49219h-1.39062v-.55468l.5625-.0664.25-.05079.23046-.08984.20313-.14063.17578-.21094.14063-.29687.10546-.39453m6.8047 1.6211h-.78907l-.05078-.21095-.08203-.1875-.10547-.16015-.1289-.1289-.14844-.10548-.16016-.07422-.16797-.04296-.17188-.01563-.32812.03906-.28906.1211-.2461.1953-.20312.26954-.16016.33594-.11719.40625-.0703.46484-.02344.52735.1914-.20313.1875-.16016.1836-.12109.18359-.08594.1914-.0625.19141-.03515.39844-.02735.3086.03125.3203.09375.31641.15625.29297.21875.25781.28516.19922.34765.07031.20313.0547.21484.02733.23438.00391.2539-.78515.04688-.02735-.26172-.07812-.25-.1211-.23437-.16015-.21094-.19532-.17578-.21875-.13672-.24218-.08985-.25391-.03125-.2539.03125-.2422.08985-.21874.13672-.19141.17578-.16016.21094-.125.23437-.07812.25-.02735.26172.02735.25781.07812.25.125.23438.16016.21094.1914.17968.21876.13672.24218.08594.25391.03125.2539-.03125.2422-.08594.21874-.13672.19532-.17969.16015-.21093.1211-.23438.07812-.25.02735-.25781.78515-.04688-.02734.3711-.09375.3711-.15625.35937-.22266.32812-.29297.28125-.16797.1211-.1914.10156-.20313.08203-.22265.0625-.2422.03906-.26171.01172-.28125-.01562-.26172-.04688-.23828-.07812-.21484-.10547-.19532-.1289-.17187-.15626-.15625-.17969-.13281-.20312-.1172-.22266-.10155-.24219-.14454-.53515-.08593-.59375-.02735-.64063.03907-.74218.11328-.66407.1875-.57812.1211-.2539.13671-.23048.15234-.20703.17188-.1836.1836-.15624.20312-.1289.21875-.10157.23047-.07422.25-.04297.26171-.01562.36329.03515.33593.09375.29297.15235.25781.19922.21094.24218.16406.27344.1172.30078.0625.32422"/></g></defs><use xlink:href="#av"/></svg>