<svg xmlns="http://www.w3.org/2000/svg" role="img" xmlns:xlink="http://www.w3.org/1999/xlink" viewBox="142.45 309.95 326.84 171.84"><defs><clipPath id="a"><path d="M144 448h1v32.32813h-1zm0 0"/></clipPath><clipPath id="b"><path d="M144 311.67188h1V443h-1zm0 0"/></clipPath><clipPath id="c"><path d="M144 311.67188h324v168.65625H144zm0 0"/></clipPath><clipPath id="d"><path d="M145 311.67188h23V328h-23zm0 0"/></clipPath><clipPath id="e"><path d="M467 311.67188h1v168.65625h-1zm0 0"/></clipPath><clipPath id="f"><path d="M144 479h4v1.32813h-4zm0 0"/></clipPath><clipPath id="g"><path d="M147 479h3v1.32813h-3zm0 0"/></clipPath><clipPath id="h"><path d="M146 479h2v1.32813h-2zm0 0"/></clipPath><clipPath id="i"><path d="M153 479h9v1.32813h-9zm0 0"/></clipPath><clipPath id="j"><path d="M160 479h3v1.32813h-3zm0 0"/></clipPath><clipPath id="k"><path d="M159 479h2v1.32813h-2zm0 0"/></clipPath><clipPath id="l"><path d="M166 480h9v.32813h-9zm0 0"/></clipPath><clipPath id="m"><path d="M173 480h3v.32813h-3zm0 0"/></clipPath><clipPath id="n"><path d="M172 480h2v.32813h-2zm0 0"/></clipPath><clipPath id="o"><path d="M180 479h8v1.32813h-8zm0 0"/></clipPath><clipPath id="p"><path d="M187 480h2v.32813h-2zm0 0"/></clipPath><clipPath id="q"><path d="M186 480h2v.32813h-2zm0 0"/></clipPath><clipPath id="r"><path d="M193 479h8v1.32813h-8zm0 0"/></clipPath><clipPath id="s"><path d="M200 480h2v.32813h-2zm0 0"/></clipPath><clipPath id="t"><path d="M199 480h2v.32813h-2zm0 0"/></clipPath><clipPath id="u"><path d="M206 479h9v1.32813h-9zm0 0"/></clipPath><clipPath id="v"><path d="M213 480h3v.32813h-3zm0 0"/></clipPath><clipPath id="w"><path d="M220 479h8v1.32813h-8zm0 0"/></clipPath><clipPath id="x"><path d="M227 480h2v.32813h-2zm0 0"/></clipPath><clipPath id="y"><path d="M233 478h8v2.32813h-8zm0 0"/></clipPath><clipPath id="z"><path d="M246 478h9v2.32813h-9zm0 0"/></clipPath><clipPath id="A"><path d="M260 479h8v1.32813h-8zm0 0"/></clipPath><clipPath id="B"><path d="M266 480h1v.32813h-1zm0 0"/></clipPath><clipPath id="C"><path d="M273 479h8v1.32813h-8zm0 0"/></clipPath><clipPath id="D"><path d="M279 479h2v1.32813h-2zm0 0"/></clipPath><clipPath id="E"><path d="M286 479h9v1.32813h-9zm0 0"/></clipPath><clipPath id="F"><path d="M293 479h3v1.32813h-3zm0 0"/></clipPath><clipPath id="G"><path d="M300 478h7v2.32813h-7zm0 0"/></clipPath><clipPath id="H"><path d="M314 477h6v3.32813h-6zm0 0"/></clipPath><clipPath id="I"><path d="M326 478h8v2.32813h-8zm0 0"/></clipPath><clipPath id="J"><path d="M343 476h2v4.32813h-2zm0 0"/></clipPath><clipPath id="K"><path d="M355 476h4v4.32813h-4zm0 0"/></clipPath><clipPath id="L"><path d="M368 477h5v3.32813h-5zm0 0"/></clipPath><clipPath id="M"><path d="M380 478h8v2.32813h-8zm0 0"/></clipPath><clipPath id="N"><path d="M378 480h3v.32813h-3zm0 0"/></clipPath><clipPath id="O"><path d="M393 478h8v2.32813h-8zm0 0"/></clipPath><clipPath id="P"><path d="M391 480h4v.32813h-4zm0 0"/></clipPath><clipPath id="Q"><path d="M393 480h3v.32813h-3zm0 0"/></clipPath><clipPath id="R"><path d="M407 477h7v3.32813h-7zm0 0"/></clipPath><clipPath id="S"><path d="M421 477h5v3.32813h-5zm0 0"/></clipPath><clipPath id="T"><path d="M436 476h2v4.32813h-2zm0 0"/></clipPath><clipPath id="U"><path d="M448 477h5v3.32813h-5zm0 0"/></clipPath><clipPath id="V"><path d="M460 478h7v2.32813h-7zm0 0"/></clipPath><clipPath id="W"><path d="M458 480h3v.32813h-3zm0 0"/></clipPath><clipPath id="X"><path d="M144 466h4v2h-4zm0 0"/></clipPath><clipPath id="Y"><path d="M144 452h4v3h-4zm0 0"/></clipPath><clipPath id="Z"><path d="M144 438h4v4h-4zm0 0"/></clipPath><clipPath id="aa"><path d="M144 425h4v4h-4zm0 0"/></clipPath><clipPath id="ab"><path d="M466 425h2v3h-2zm0 0"/></clipPath><clipPath id="ac"><path d="M144 411h3v6h-3zm0 0"/></clipPath><clipPath id="ad"><path d="M466 412h2v3h-2zm0 0"/></clipPath><clipPath id="ae"><path d="M144 398h4v5h-4zm0 0"/></clipPath><clipPath id="af"><path d="M466 399h2v3h-2zm0 0"/></clipPath><clipPath id="ag"><path d="M144 386h4v3h-4zm0 0"/></clipPath><clipPath id="ah"><path d="M466 386h2v3h-2zm0 0"/></clipPath><clipPath id="ai"><path d="M144 372h4v4h-4zm0 0"/></clipPath><clipPath id="aj"><path d="M466 372h2v2h-2zm0 0"/></clipPath><clipPath id="ak"><path d="M144 359h4v3h-4zm0 0"/></clipPath><clipPath id="al"><path d="M465 357h3v2h-3zm0 0"/></clipPath><clipPath id="am"><path d="M144 345h4v4h-4zm0 0"/></clipPath><clipPath id="an"><path d="M466 345h2v2h-2zm0 0"/></clipPath><clipPath id="ao"><path d="M144 331h4v6h-4zm0 0"/></clipPath><clipPath id="ap"><path d="M466 331h2v3h-2zm0 0"/></clipPath><clipPath id="aq"><path d="M465 332h3v3h-3zm0 0"/></clipPath><clipPath id="ar"><path d="M144 317h2v7h-2zm0 0"/></clipPath><clipPath id="as"><path d="M465 317h3v2h-3zm0 0"/></clipPath><g id="at" clip-path="url(#clip1)"><path fill="#fff" fill-opacity="0" fill-rule="evenodd" d="M0 0h1000v1000H0zm0 0"/><path fill="#d3d3d3" fill-opacity="0" fill-rule="evenodd" d="M162.15234 355.86719l-.23437.29297.0586.23437.11718.17188.17578.23437.29297.34766.11328.0586.11719-.17188.0586-.23438.17577-.17578.46485-.17578h.69922l.23437.29297.28906.8164.0586.17579.17578.23046.35156.23438.69922.69922.17188.17578.23437.34765.23438.41016.28906.58203.41015.46485.23047.23437.23438.17578.11719.23047.17578.29297.17187 1.16406v.23438l.0586.28906.05859.11719.11719.11719.34765.41015.11719.17188.17578.17578.17578.23437.11719.17188.17188.35156.05859.23438.23437.40625.23438-.0586-.17578.17578-.0586.92969h-.58203l-.23437-.11328-.34766.11328-.11719.11719-.05859.29297-.0586.17578-.11718.17187-.46484.29297-.0586.23438-.0586.11328v.64453l.0586.17187v.41016l.0586.0586v.40624l.05859.40625.11719.17579.05859.05859.23047.64062-.0586.29297v.69922l-.05859.58203v.23438l-.0586.23047-.05468.35156v1.92187l.05469.1172h.42578l-.36719.11718-.02344.35156.89063 1.16797 1.74219.53906 1.33984.35938v.53906l.08984.8086.53516.71484 1.51953.26953.89063-.08594.08984 1.16406.53516.1797 1.16015-.1797 2.05469-.98437 1.16016-.36328 1.8789-.17578 1.69531-.1797-.17968.71876-1.51563.08594-1.25.08984-.80469.26953-1.07421.8086.26953.71875.53515.89843-.17968.625-.26563.8086.26563 1.07812.625.89844.80468.17969 1.25-.1797-.26562.72267.09766.5039.05468.29297v.17188l.0586.29296v.40625l.17578.1172.35156.11718h.40625l.29297-.17578.11328-.11719.0586-.11719.11718-.23047.0586-.17578.35156-.46484.23047-.17578.17578-.0586.17578.0586.0586.17578.11718.98828.05469.46875.0586.17188.11718.23437.17578.0586.8164.05859h.28907l.11719.23437.05859.40625.0586.35156v1.10547l.11718.29297.11719.34766.28906.69922.17578.35156.58203.7539.35157.17579.17187.0586.46875.23437.64063.46484.34765.23438.29297.17578.29297.05468.23047.0625.8164.34766.29297.17578.11328.17188.35157.35156.11719.17578.52343.64063v.28906l.0586.35156v.34766l.05859.35156.0586.28906.11718.0586.17188.05859h.17578l.58203.23437.17578.1172.17578.28905.17578.23438.11328.23437.29297.23047.11719.11719v.41016l.0586.05468.28906.23438.23437.11719.0586.11718.11718.17188.0586.11719.23047.23437.05859.17578.23437.0586.1172.05859-.1172.11328-.05859.11719v.11719l-.11719.29296-.11719.28907v.58203l.17579.11719.11718.05859.0586.11719.11719.11719.11328.05859.17578.34765.0586.35157.05858.40625v.17578l-.05859.17578-.11719.69922v.17187l.1172.17579.29296.29296h.40625l.17578.1172.11719.17187.11719.29296v.23438h-.52735l-.23047-.23438h-.23437l-.17578.0586-.0586.69922.0586.34765.11719.17579.17578.41015.11718.23047.28907.46875.17578.05469h.52344l.23437.0586.75781.64062.0586.29296v.23438l.05859.0586.23047.34765v.35156l-.11719.17188v.29297l.29297.28906.29297.17578.17187.0586.29297.17577.29297.1172.58203.40624.28906.23438.29297.17578.21875.16015.01563.01172.23047.17579.64062.52343.17578.23438.1172.17578.17577.17578.11328.17188v.64062l.1172.17578.46874.11719.58203.11719.23438.05859.23047.11328.29297.11719.11328.0586.58593.35156.28907.17187.17578.0625.17578.05469.17578.0586.69922.35155.28906.17579.23438.05468.28906.17578.23437.1172.64063.40624.29297.11719.17187.0586.23438.05859.41015.05859.23047.0586.23438.11718.0586.17188-.41017.17578.46875.0586.0586.29296.11328.23438.17578.05468.23438.0586.17578.05859.40625.11719.64062.23437.11719.17188.0586.23437v.17578l-.0586.1172-.0586.40624.23438.23438.11719.05859.34766.11719.64062.23047.17578.11718.28906.1172.17578.17577.23438.46485.58203 1.10546.17578.17579.34766.17578.17578.11719.35156.11718 1.04688.52344.23437.0586.46485.11327.29297.0586.46484.17578.75781.58203.23438.23438.34765.46484.17578.17578.28907.23438.8164.69921.29297.17579.28906.28906.29297.17578.29297.28906.69531.64063.17578.17578.29297.23437.28907.23438.46875.28906.64062.58203.34766.23438.23437.29297.34766.34765.35156.46485.9336.99218.34765.40625.11719.17579.23437.05859.11328.11719.64454.17578.23047.11328.23437.0586.29297.17577.23047.1172.9336.69921.40624.40625.23438.17578.40625.17578.23437.11719.8164.34766.34766.23437.23438.11719.29297.28906.23047.11719.7578.35156.35157.17188.23047.05859.29297.11719.23437.0586.8711.17577h.8164l.46875.23047.17188.0586.875.69921.46484.1172.29297.05858.17578.0586.23047.0586.46875.05859.34766.05859.35156.0586.40625.05859h.29297l.17187.0586v.23046l.17578.17578h.29297l.34766.0586.35156.05859.69922.11719h.64063l.46484-.23438.29297-.17578.17187-.11719.41016-.17187.28906-.17578.9336-.46485.46875-.29297.52343-.29296.46485-.17188.46484-.17578 1.05078-.46485.28906-.11718.41016-.11719.28906-.11719.52735-.17578 1.51562-.69922.58203-.34765.28907-.0586.29297-.0586.34765-.11718.875-.23047.35156-.11719h.11329l.23437-.05859.875-.23437.23438-.0586h.8125l.35156-.0586.8164-.11718.17188-.0586.35156-.05468.29297-.0586.23047-.05859.8164-.17578.17579-.0586h.34765l.23438-.05859.46484-.11718.75781-.17188.23438-.0586h.34765l.41016-.11718.28906-.0586 1.28516-.05859h.28906l.41016-.0586.23047-.05858h.17578l.875-.1172h.40625l.41015-.11718h.34766l.35156-.11328.8711-.0586h1.75l1.04687.28907.41016.11719.28906.11718.35156.11719.28907.11719 1.05078.17187.28906.0586h.29297l.29297.05859.17187.0586.41016.05859.17187.0586.1172.05858h.11718l.11719.0586.35156.0586h.11328l.41016.0664 1.92187.39453 1.92578.39453 1.51953.44922 1.69532.71875 2.14453.80469 1.60547-.71875 1.42968-.80469 1.16016-1.07813 1.25-.44921 3.03516-.71875 1.875-.35938 2.14453-1.34765 2.23437-1.25391 2.5-1.25781 1.69531-.44922 1.78516-.17969 1.16016-.26953.625.53906 1.33984-.26953.71485-.98828.98437-1.34375.44531-.17969.80469-.35937 1.875-.53907 1.78516-.44921 1.25-.26954 1.16015-.08984 1.69922-.08984 1.96094-.26954 1.25-.08984h.53906l.625-.08984h.89063l2.14453-.17969 2.41015-.17969 2.58985-.08984 1.69531.17969 1.60938.08984 1.42968.35938 1.16016.71875 1.875.98828 1.16015 1.52734.26563.71484.6289.08985.35548.89844.53515.53906.53516 1.52734 1.07422.35938h.53515l-.80469.53515.08985 1.70703.71484 2.69532.89063.80468.89453.98829.71484 1.2578 1.78516.53907 1.51953-.17969.35547 1.34375 1.60937-.80469.98047-.53906.26953.26953.31641-.21484.21875-.14453.80078.44922.44922-.35938h.35547l.53515-.26953.53907-.71875.53515-.26953.625-.98828 1.16016.44922.83984.3711 1.39454.61718 1.6953-.17969h1.60548l1.78515.08985.17969-1.70704.53516-1.34375.80468.26954.4922.84765.40233.40625-.08984.53906v.35938l.71485.44922.71093-.26953h1.42969l.35938.98828.4453 1.25781.71485 1.34375 1.25.6289 1.69531.62891.71485-.17969.17969-.53906.98046-.08984.44922.35937.08594 1.25782-.26563.6289-.53515.17969v.53906l.71484.98438.26563.53906.98437.98828.80078 1.07813-.26562.35937-.08985.89844-.625 2.33203-.35546 2.0664-.08985 1.79298-.17969.71875-.08984.53906v1.4375l-.98047 1.88281-.35937 1.70703-.53516.89844-.80469 1.16797-.26562.53906 2.05469 1.2539.08593.35938-.35546.53906-.08985-.17968v.80859l.08985 1.4375-.44532.71484-1.07422.09375-.26562.71485.53515.89844.8047.71875 1.16015.80859 1.33984.26953.44531.35938-.35546.44921-1.78907-.08984-1.25-.44922-.71484-.71875-.625-.08984-.17578 3.58984-.1875 1.3086h89.35937V311.70313h-55.26953v49.08203l.76172.125 3.28906.54296 2.02344 2.83594v2.7539l2.35156.33204 2.34766.33203h4.05078l-1.3789 4.16016-2.02344.70703-2.02344.70312-.54297.34375-2.59375 1.6172-.1875.11718-2.02344-2.07813-.73046-2.74218-2.67188-2.07813-1.375-3.5-.0664-.08203-1.95704-2.67188 2.75-1.41796v-49.08204H294.42187v91.41407l.1172.03125.1328.01172.07422.07421.10547.04688.08985.0586.08593.05859.08985.0586.29687.29687.0586.08984.03125.11719.02734.11719.01563.13671-.03125.1172-.0586.08983-.0586.08594-.04296.10547-.04688.10156-.02734.1211v.14453l.17578.26953.14844.14844.07422.08594.07422.07421.04296.10547.0625.08985.0586.08593.04297.10547.0586.08985.04687.10156.04296.10547.0586.08594.11719.17968.07421.07422.0625.08594.0586.08984.04297.10547.0586.08985.05858.08593.0625.08985.0586.08984.04297.10156.11719.17969.07421.07422.0586.08594.07422.07421.08984.0586.10547.04687h.14844l.1328-.01562.13282.01562.10156-.04687.07422-.07422.04688-.10156-.01563-.13281v-.14844l-.04687-.10547-.02735-.11719-.04687-.10156-.02735-.1211-.04296-.10156-.0625-.08984-.04297-.10156-.04297-.10547-.03125-.11719-.01563-.13281-.01171-.13672.08593-.0586.0586-.08593.12109-.03125.04297.10547.01562.1328v.1172l.0586.10156.0586.08984.08983.0586.14844.14843.0586.08985.04296.10547-.01171.10156.08593.0586.10547.04687.08594.0586.08984.05858.07422.07422-.11719.02735-.10546.04687-.08594.0586-.07422.07421-.0586.08985-.0625.08594-.02734.12109-.04687.10156-.04297.10547-.03125.11719-.01172.13281-.01563.13281v.14844l.02735.11719.04687.10547.04297.10156.0586.08984.07421.07422.08985.0586.07422.07421.08984.0586.0586.08984.04296.10547.04688.10156.11719.03125.1328.01563h.14845l.11718-.03125.10547.04297.04297.10547.04688.10156.02734.1211L299.5 410l.02734.11719.03125.1211.02735.11718.10547.04297.10156.04687.13281-.01562.14844.14844.0625.08593.07422.07422.07031.07422.08984.0625.10547.04297.10156.04297.1172.03125.13671.01562.11719-.03125.07422-.07422.02734-.11718-.01172-.13282-.03125-.12109-.02734-.11719.04297-.10547h.11719l.08984.0625.11719.02735h.14843l.13282.01562h.14843l.13282.01563.1328-.01563h.14845l.1328-.01562.13282-.01172.13672.01172.11719-.02735.13281-.01562.1914-.0586-.05859.17579-.01562.1328-.02735.1211-.01562.13281-.0586.08594-.1328.01563-.10548.04687-.10546.04297-.1172.03125-.11718.02735-.26563.03125h-.14843l-.13281.01562-.07422.07422.05859.08594.14844.14843.11719.1797.07421.0703.08985.0625.08984.0586.08594.0586.08984.05858.10156.04297.10547.0625.10547.04297.08594.0586.10547.04687.10156.04297.17969.11719.0586.08984-.04298.10156-.04687.10547.01562.13281.22266.22266.0586.08985.04296.10156.03125.1211.04297.10155.01563.13282.03125.11718.01171.13672.03125.11719.14844.14844.10156.04297.10547.04296.1172.03125.1328.01563.13672.01563h.11719l.11719-.03125.08984-.0586.04297-.10547.04688-.10156.04296-.10547.03125-.11719.01172-.1328v-.14845l-.01172-.1328-.01562-.13282-.03125-.11719-.04297-.10547-.04688-.10547-.04296-.10156-.04297-.10547-.01563-.13281.01563-.13281.02734-.11719.03125-.11719.02735-.1211.04687-.10155.08984-.0586.08594-.0625.07422-.07422.08984-.05859.22266-.22266.0586-.08593.07421-.07422.11719-.17969.0586-.08594v-.14844l-.07423-.07421-.10156-.04688-.10547-.04297-.10156-.04297-.0586-.08984-.04687-.10547-.02734-.11719.08984-.05859.11719-.03125.10156-.04297.17969-.11719.14844-.14843.01172-.13282-.01172-.10546-.08985-.0586-.1328.01563h-.14845l-.1328.01562-.13282-.01562-.1211-.03125-.08593-.0586-.07422-.07422-.0586-.08984-.0625-.08594-.11718-.17969-.0586-.08593.03125-.1211.08594-.05859.1211-.03125.05859-.08594v-.1211l-.03125-.11718-.0586-.08984-.05859-.08594-.04687-.10547-.02735-.11719-.01562-.1328.0586-.08985.07421-.07422.08984-.0586.1172-.17968.07421-.07422.0586-.08594.14843-.14844.1211-.03125.1328-.01562.13282.01562.07422.07422.04297.10547.01562.13281-.03125.1172-.11719.03124-.1328.01172-.14844.14844-.04297.10547-.04688.10156-.02734.1211-.03125.11718v.14844l.03125.11719.04297.10546.05859.08985.07422.07031.07422.07422.11719.03125.12109.02734.11719-.02734.1328-.01563h.1172l.08984.0586.07422.07422.04687.10546.0586.08594.10156.04688.13281.01562.10547.04297.08594.0586-.01172.10546-.07422.07422-.17969.11719-.05859.08984-.08984.0586-.07032.07422-.07421.07421-.0625.08985-.02735.11719-.01562.1328.01562.13282-.01562.13281v.14844l.01562.13281.02735.1172.03125.12108.07421.07422.08985.0586.08594.0586.08984.05858.11719.03125v.08594l-.10157.04688-.08984.0586-.26563.03124-.11718.02735h-.14844l-.10547.04296-.10156.04688-.0586.08984-.0625.23438-.01171.13281-.03125.1211-.01563.1328v.29298l-.01172.1328.01172.13673.01563.1328.1328.01563.13282.01172.1211.03125.08593.0586.07422.07421.04688.10547.04296.10157.01563.1328v.44532l-.01563.13281v.44532l.03125.26562.02735.11719.01562.13281.03125.11719.08594.21094.03125.26562v.14844l-.03125.11719-.02734.11718-.03125.1211-.02735.11719-.03125.11718-.03125.1211-.01171.1328-.01563.13282.08984.0586.1172-.03125.10155.01562.04688.10547-.03125.26562v.44141l-.04297.10547-.04688.10547-.04296.10156-.04297.10547-.0586.08594-.03125.12109-.04296.11719-.03125.11719-.01563.1328.01563.13282.05859.08984.10547.04688.08594.0586.05859.08593-.01172.13672-.03125.11719-.04297.10156v.44531l-.01562.13281v.14844l-.03125.11719-.04297.10547-.02735.11719-.04687.10546-.04297.10157-.03125.12109-.02734.11719-.03125.13281-.03125.11719-.02735.11719-.04297.10546-.03125.1172-.03125.12108-.01171.13282-.01563.13281v.29688l.02734.11718v.14844l.04688.39844.02734.11719.0586.08984.12109.03125h.14844l.13281-.01563.0586.08985v.11719l-.0586.08984-.08984.0586-.10157.04296-.10546.04688-.08985.05859-.08594.0586-.13671.01562-.1172-.03125-.1328-.01563-.10157.04688-.0625.08594-.01172.13671-.01562.13282-.03125.11719-.02735.11718-.01562.13281-.03125.1211v.29687l.01563.13282.03125.11718v.14844l.01171.13281v.14844l-.02734.11719-.04688.10156-.02734.1211-.03125.11718-.0586.08985-.07421.07421-.10156.04297-.10547.04688-.11719.02734-.1211.03125-.10156-.04687.0586-.08594.10547-.04688.02734-.11718.03125-.11719.02734-.1211.03125-.11718v-.14844l.01563-.13281-.03125-.11719-.04297-.10547-.10547.01563-.07422.07422-.10156.04296-.08984.0625-.07422.07422-.04297.10157-.01563.1328-.03125.1172L304.25 426l-.03125.11719-.02734.11719-.03125.12109-.02735.11719-.03125.11718-.04297.10547-.08984.0586h-.08984l-.1172-.03125-.03124-.08594.01562-.13672-.03125-.11719v-.14844l-.01171-.1328v-.14844l-.0625-.23438-.02735-.1211-.04297-.10156-.04687-.10546-.0586-.08594-.05859-.08985-.04297-.10546-.0625-.08594-.14844-.14844-.0703-.07422-.10548-.04687-.10547-.04297-.10156-.04297-.29687-.29688-.08985-.07421-.08594-.0586-.10546-.04297-.08985-.0625-.08594-.0586-.10546-.04296-.08985-.0586-.08594-.0625-.07421-.0703-.10547-.04688-.08594-.0586-.10547-.04296-.08984-.0625-.10156-.04297-.10547-.04297-.08594-.0586-.10547-.04687-.10547-.04297-.10156-.04687-.08985-.0586-.10156-.04297-.10547-.04296-.08984-.0625-.11719-.02735-.13281-.01562-.13281.01562H299.75l-.13281.01563-.11719-.03125-.08984-.0586-.07422-.07422-.08985-.05859-.10156-.04688h-.14844l-.12109-.02734-.10156-.04297-.07422-.07422-.11719-.17968-.08984-.0586-.10156-.04297-.08985-.0625-.10547-.04296-.08984-.0586-.08594-.0586-.10547-.04687-.0586-.08594-.05858-.08984-.04297-.10547-.04688-.10156-.07422-.07422-.08594-.0586-.07421-.07421-.08985-.0586-.22265-.22265-.04297-.10547-.03125-.26563.10547-.04296h.14453l.10547.04296.07421.07422.08985.0586.08594.0586.10546.04687.08985.05859.14844.14844.0703.07422.14845.14843.0625.08594.07421.07422.08594.0586.07422.07421.08985.0625.08984.0586.08594.05859.26953.17578.10156.04688.10547.04296.10156.04297.04688-.07421.05859-.08594.07422-.07422.07031-.07422.10547.04297.07422.07422.0586.08984.04296.10156.04688.10547.04296.10547.1211.02735.11719-.02735.07421-.08984.04297-.10547.0586-.08985.07422-.07421.10546-.04297.1172-.02735.1328.01172.08985.0586.14844.14843.05859.08985.04297.10547.04687.10156.04297.10547.04297.10156.10547.04688.10547.04296.13281.01563.08594-.0586.0586-.08984.07421-.07422.10547-.04297.11719.02735.10547.04687.10156.04297.10547.04297.10156.04688.17969.11718v.11719l-.01563.13281.01563.13281.01562.13672.0586.08594.10156.04688.1211.02734.11718.03125h.14844l.11719-.03125.05859-.08984.17969-.1172.05859-.08983.07422-.07422.0586-.08594.11718-.17969.17969-.11719.11719.03125.08984.0586.04297.07422-.01563.1328v.1172l.08985.05859h.14843l.13282-.01563.1328-.01171.26563-.03125.10547-.04297.11719-.03125.1211-.02735.07421-.07421.07031-.07422.0625-.08985-.01562-.10547-.04688-.10156-.10156-.04297-.10547-.01562-.11718.02734-.26563.03125h-.14844l-.07421-.07422-.08985-.0586-.11719-.03124-.11718-.02735-.13282-.01562h-.14843l-.13282.01563h-.29687l-.10547-.04688-.14844-.14844-.04297-.10156-.05859-.08984.22266-.22266.08593-.0586.10547-.04296.11719-.03125.13281-.01563.13281.01563.13672.01562.10157.04297.1328-.01172.08985-.0625.10156-.04297.0625-.08984-.04687-.10156-.08984-.0586-.1172-.03125-.10155-.04296-.0586-.08985-.0625-.08984v-.11719l.01563-.13281.10547-.04688.07421-.07031v-.1211l-.08984-.05859-.03125-.11719.08985-.05859.07421-.07422.04297-.10547.0586-.08984.04687-.10156.01563-.13281v-.14844l-.04688-.10547-.04297-.10156-.08984-.0586-.13281-.01562-.10157-.04297-.13671-.01563-.1172-.03125h-.4453l-.13282-.01562-.13281-.01172-.13281-.01563-.11719-.03125h-.14844l-.13281-.01562-.13281-.01172-.26563-.03125-.1211-.04297-.08593-.0586-.07422-.07421v-.14844l.01172-.13281.10547-.04688.10156-.04296.13281-.01563h.15235l.13281-.01562h.29297l.1211.03125.10156.04296.08984.0586.23438.0625.12109-.04688.08984-.05859.10156-.04297.13282-.01562.10547.04296.10156.04688.13281.01172.1211-.02735h.14453l.12109-.03125.11719-.02734.10547-.04687.07421-.07422.08594-.0586.14844-.14843.0586-.08594.04687-.10547.02734-.11719.01563-.10547-.10156-.04296-.08985-.0586-.11719-.03125-.10546-.04297-.08985-.0625-.07422-.08594-.07422-.07421-.10156-.04297-.10547-.04688-.10156-.04297-.0586-.08984-.04687-.10156-.08594-.21094-.0625-.08594-.05859-.08984-.07422-.07422-.08594-.0586h-.26953l-.11719.03126-.08984.05859-.10156.04297-.13281.01562-.10547-.01562-.02735-.11719-.0625-.08984-.11718-.03125-.10157-.04297-.14843-.14844-.03125-.11719-.01563-.10546.07422-.07422.17969-.1172.11719-.02733.11718-.03125.13672.01562.10156.04297.10547.04297.10156.04687.10547.04297.1172.03125.1328.01563.1172.02734.1328.01563.10547-.01563.08985-.0586-.07422-.07421-.10547-.04297-.07422-.07422-.07422-.08984-.14844-.14844-.08593-.0586-.08985-.05859-.07422-.07422-.08984-.0586-.10156-.04687-.1211-.02734-.10156-.04688-.10547-.04296-.11719-.03125-.10156-.04297-.1211-.03125h-.14843l-.11719.03125-.10546.04297-.08594.0625-.17969.11718-.08594.0586-.08984.0586-.10547.04687-.08594.05859-.10547.04297-.10156.04297-.10547.04687-.07422.07422-.05859.08985-.0586.08593-.04687.10547-.0586.08594-.07421.07422-.13281-.01172-.1172-.03125h-.11718l-.07422.07422-.08984.0586-.07422.07421-.08984.0586-.08594.05859-.10547.04687-.10156.04297-.13672.01563-.10156-.04297-.14844-.14844-.10547-.04688h-.08594l-.10547.04688-.10156.04297-.1211.03125-.11718-.03125-.07422-.07422v-.11719l.03125-.1211.07422-.0703.0586-.08985.07421-.07422.11719-.03125.10547-.04296h.29297l.13281-.01563.13672-.01563.10156-.04296.08985-.0586.10156-.04687.08984-.0586.13281-.01171.08985.05859.13281.01172.08984-.0586.08594-.05859.10547-.04297.08984-.0586.08594-.0625.08985-.05859.14843-.14843.0586-.08594.05859-.08985.10547-.04296.13281-.01563.11719.02735.1211.03125.05859-.0586.05859-.08984.03125-.26563.02734-.11719.10547.01172.13281.01563.10157-.04297.08984-.0586.0586-.08984.07421-.07422.0586-.08984.04687-.10156.01172-.13281-.01172-.13282-.04687-.10547-.14844-.14843-.0586-.08985-.05859-.08594-.04297-.10546v-.44532l.01563-.1328v-.14845l.01172-.1328-.0586-.0586-.08984.0586-.10156-.04298-.17969-.11719-.08594-.05859-.0625-.08984-.0586-.08985-.07421-.07421-.08594-.0586-.1211.03125-.10155.01172-.10547.04688-.08594.05859-.10547.04297-.14844.14844-.08984.05859-.08594.0586-.08984.0625-.10547.04296-.13281.01563v-.1211l.10547-.04297.11718-.03125.07422-.0703.04297-.10548v-.14844l-.02734-.11718-.14844-.14844-.13281-.01563h-.14844l-.11719.03125-.10547.04297-.10156.04297-.08984.0625-.11719.02735-.07422-.07422.01172-.13281-.04297-.10157-.04297-.10547-.08984-.05859-.11719.02734-.1211.03125-.11718.03125-.10156.04297-.1211.03125-.10156.04297-.10547.04297-.08984.0586-.10156.01562v-.11719l.01562-.13281-.0586-.08985-.07421.04297-.14844.14844-.0586.08985-.07421.07421-.04688.10547-.04296.10156-.07422.07422-.0586.08985-.07422.07422-.05859.08593-.07422.07422-.08984.0625-.07422.07031-.07422.07422-.10156.01563-.13281.01562-.10547-.04296v-.1211l.14843-.14844.04297-.10156.0586-.08984.04687-.10156.04297-.10547.0586-.08985.03124-.11719.04297-.10156.03125-.1211.02735-.11718.04687-.10547.04297-.10156.04297-.10547.07422-.07031.08984-.0625.08985-.0586.10156-.04296h.29687l.26563-.03125.10547-.04297-.07422-.07422-.11719-.03125-.10547-.04297-.08984-.0586-.10156-.04687-.08985-.0586-.10156-.04296-.10547-.04297-.08984-.0625-.08594-.0586-.10547-.04296-.10156-.04297-.1211-.03125-.11718-.03125-.10157-.04297L297.5 410.25l-.10156-.04297-.08985-.0586-.04296-.10546-.01563-.13281.10156-.04297.13281-.01563.13672.01563.13282-.01563.10156-.04297.0586-.08984.01562-.10547-.08985-.0586-.07421-.07421-.10157-.04297-.08984-.0586-.14844-.14843-.04297-.10547-.01562-.13281v-.29297l-.0586-.08985-.08984-.05859-.07422-.07422-.04297-.10547-.03125-.11718-.0586-.08985-.07421-.07422-.11719-.02734-.07422-.07422-.08984-.0586-.08984-.0625-.08594-.05859-.07422-.07421-.0586-.08594-.04687-.10547-.08594-.0586-.14843-.14843-.19532-.0586-.1328.01563-.10157.04297-.07422.07422-.04688.10156-.04296.10547-.0586.08984-.0586.08594-.29687.29687-.08984.0586h-.08594l-.0625-.08594-.04297-.10547.03125-.11719.0586-.08984.02734-.11719-.01172-.13281-.08984-.0625-.10547.04688-.11719.02734-.11719.03125-.26953.17578-.10156.04688-.11719.02734-.10546.04687-.08985.0586-.10156.04297-.0586-.08594-.04687-.10547.01563-.13281.04687-.10547.07031-.07422.07422-.07031.0586-.08985v-.14843l-.04297-.10547h-.23829l-.10156.04687-.03125.11719-.02734.11719-.03125.1211-.07422.04296-.13281.01563-.07422-.04688-.04297-.10156-.04297-.10547-.04687-.10156-.04297-.10547-.1211.03125-.10156.04297-.13281.01562-.11719.03125-.10547.04297-.08984.0586-.10156.04687-.1211.02734-.13281.01563-.10156-.04297-.0586-.08985-.04687-.10546-.04297-.10157-.04297-.10546v-.1172l.0586-.08984.08593-.05859.17969-.11719.10156-.04687.10547-.04297.10547-.0586.10156-.04296.08985-.0625.10156-.04297.10547-.0586.10156-.04687.08984-.0586.10547-.04296.10156-.04297.08985-.0625.10156-.04297.13672-.01563.11719.03125.10156.04297.1211.03125.10156.04297.10546.04688.10157.04296.10547.04297.10156.04688.10547.04297.10156.04297.10547.04687.08594.0586.10546.04296.1172.03125.10546.04297.10156.04688.08985.0586.10547.04296.10156.04297.10547.04687.11719.02735.10156.04687.1211.02735h.14843l.08594-.0586.01562-.10156.0586-.08984-.02735-.1172-.07422-.07421-.11719-.17969-.07421-.07422-.08985-.07421-.17969-.1172-.08593-.05859-.10547-.04296-.10156-.04688-.26954-.17578-.05859-.08985-.07422-.07421-.0586-.08985-.04296-.10156-.03125-.11719-.01563-.13672v-.5625l-.01171-.1328-.01563-.13282-.03125-.11719-.01562-.13281-.01172-.13281-.03125-.1211-.22266-.22265-.0586-.08594-.01562-.10547.03125-.11719.13281-.01562v-91.41406H172.9922v1.45312l-.0586.23438-.35156 1.05078-.17187.52343-.1172.34766-.17577.41016-.11719.17187-.23438.29297-.23046.0586h-.35157l-.11718.05859-.23047.40625v.29297l.11719.17578.23046.23047.1172.23437.64062.75781.29297.46485.17578.23437.23047.35156.23437.34766.64063.8164.17578.46485.17187.41016.11719.69531.17578.46875.11719 1.39844.0586.46484v.875l.11718 1.04688v4.78125l-.0586.46484-.35156 1.28125-.17578.52344-.11328.41015-.35156.9297L172.93359 336l-.23437.58203-.11719.17578-.17187.34766-.17578.40625-.35157.8164-.0586.29297-.11327.29297-.11719.28906-.0586.17579-.11718.875-.0586.40625-.05859.11718-.0586.17579-.05859.17187-.23047.52734-.11718.17188v.23437l-.11719.23438-.0586.17187-.17577.58594v.28906l-.0586.17579v.29296l-.0586.11329-.05859.52734v.17187l-.05468.23438v2.6211l-.17578.8164-.1172.17578-.17577.23438-.1172.17187-.11327.23438-.58594.93359-.23047.28906-.29297.46485-.17578.23437-.28906.35156-.35156.69922-.11328.23047-.17579.41016-.17578.23046-.40625.52735-.8164.69922-.29297.17187-.28906.23438-.17579.11719-.17578.17578-.52344.40625-.52734.17578-.17187.17578-.23438.05469-.64062.17578h-.75782m12.21094 31.02344l-1.07422.44921.35938.89454 1.25-.71485.44531-.53906-.98047-.08985"/><path fill="#d3d3d3" fill-opacity="0" fill-rule="evenodd" d="M201.50781 416.59766h-.89453l.44922.6289.98047.35938.80469-.08985.4453-.98828-.17577.08985-.71485-.35547-.89453.35547m154.6211 59.0703l-.0586-.52343v-.29297l.11328-.29297.0586-.23046.46875-.46875h.11328l.11719-.11329.11718-.05859h.17579l.23437-.0586h.34766l.23437.0586.11719.0586.23047.17187.0586.17578.11718.58203v.29297l-.11719.17578-.17187.28906-.17579.17579-.52734.52343-.23047.23438-.11719.0586h-.17578l-.11718-.0586-.40625-.29297-.17579-.11719-.11718-.0586-.0586-.11327-.05468-.1172m6.64062-10.95702l-.0586-.17188v-1.10937l.0586-.17188.17578-.0586.17188-.05858h.17578l.23437-.0586.1172.0586.05858.69921-.05859.17188-.11719.17578-.11718.0586-.23438.52343-.11328.0586h-.23438l-.05859-.1172m9.61328-14.39062l-.11719-.17578v-.69922l.29297-.875.1172-.17187.17577-.35156.11328-.23047.1172-.29297.35155-.75781.1172-.23047.17187-.23438h.17578l.11719-.0586h.64062l.11719.0586.23437.23438.17188.11328.35156.29297.11719.11718.11328.17579v.11328l.11719.05859.11718.11719v.69922l-.05859.17578v.23047l-.0586.17578-.34765 1.05078-.11719.23047-.11719.23437-.11718.0586-.23047.23437-.64063.28906h-.875l-.41015-.11718-.64063-.46485"/><path fill="none" stroke="#bebebe" stroke-linecap="round" stroke-linejoin="round" stroke-miterlimit="10" stroke-width=".5" d="M467.95703 311.69531H144.02734v168.625h323.9297v-168.625"/><g clip-path="url(#a)"><path fill="#fff" fill-opacity="0" fill-rule="evenodd" d="M144 475.89063v4.4375h.0039H144v-32.15625 27.71875"/></g><g clip-path="url(#b)"><path fill="#fff" fill-opacity="0" fill-rule="evenodd" d="M144 440.38281v2.23047-130.9414h.0039H144V440.3828"/></g><path fill="#50fcfc" fill-rule="evenodd" d="M144 442.61328v5.5586l.0039-.00391v-5.55078l-.0039-.0039"/><g clip-path="url(#c)"><path fill="#fff" fill-opacity="0" fill-rule="evenodd" d="M144.0039 480.32813v-32.16016l2.63282-3.34766-2.63281-2.20312V311.67188h6.8828l-.1914 4.4375-2.25781 1.22656-3.375 3.21094 1.76563 4.4375 1.60937 2.10546 4.4375.60157 2.98438-2.70704 1.45703-.39062 4.14453-4.04688.29297-.24218 4.4375-2.6289 1.51562-1.56642-1.51562-1.51562-4.4375-2.49219-4.4375.02735-3.81641-.45704h21.5664v16.23047l-2.80468 1.52344 2.80469 1.54297 1.3789-1.54297-1.3789-1.52344v-16.23046h39.94922v95.63671l-4.44141.64844-1.92578 1.35938-2.51172 2.36718-2.46484 2.07032-.12891 4.4375-1.84375 1.05078-1.90234-1.05078-2.53516-1.54688-2.5664 1.54688-1.875.45703-4.4375.875-4.0625 3.10547-.375.15234-4.4375 1.46484-4.06641 2.82422-.375.15625-4.4375 1.21485-3.13282 3.0664-1.30468 1.20703-3.60938 3.23047-.82812.94531-3.60157 3.4922-.83593 1.14062-3.96875 3.29687-.47266 2.20703-1.63281 2.23438 1.63281.80078 2.3125 3.63672.14453 4.4375 1.15234 4.4375.83204 1.77344 4.4375 2.1289 4.4375-.16406 4.4375-.27344 4.4375.14063 4.4414-.375 4.4375-.67969 4.4375.54688 4.4375-.48438 4.4414-.58984 4.4375-.03125 4.4375-.33594 4.4375-1.42578 4.44142.79297 3.29687-1.02344 1.14063-1.21094 1.39843 1.21094 3.03906 1.11328 2.59375-1.11328-2.59375-1.60938-2.61328-2.82812 2.61328-2.32422 2.875-2.11328 1.5625-.84375 4.4375.51172 2.125.33203.12891 4.4375 2.1875 2.23828 3.0625-2.23828-1.61328-4.4375 1.51563-4.4375 1.47265-.76563 4.4375-3.36718v8.17968l-1.41797.39063 1.41797.48047.51172-.48047-.51172-.39063v-8.17968l.39844-.3086 4.03906-2.67969 1.65234-1.7578 2.78516-3.1875 4.4414-.3086 1.03126-.9414-1.03125-2.1875-4.4414-1.4375-1.55079 3.625-2.88672 2.44921-1.82031-2.44922-2.61719-3.28125-1.17187-1.15625-3.26563-2.89453-.86328-1.54297-3.57422-3.26953-4.4414-.1289-4.4375-.7461-.26563-.29687-.51172-4.4375-3.66016-3.52735-4.4375-.77344-1.36328-.13671-.82812-4.4375-2.2461-2.00782v-95.63671h66.57422v115.75l-4.4375.8164-4.4414.84766-4.4375-.60938-3.57813 3.03125 3.57813 2.84375 4.4375-.98828 4.4414.64844v15.59375l-4.4414 2.55469-3 1.53906 2.98828 4.4375.01172.01172.16015-.01172 4.28125-.39453 3.7461-4.04297-3.7461-4.09375v-15.59375l4.4375 1.78906.32032.14453 4.11718 2.91797 4.4375-.46484 2.48438-2.45313-2.48438-3.15625-2.1289-1.28125-2.3086-1.59765-4.4375-2.48829v-115.75h93.20313v134.15235l-3.17969 3.4375 3.17969 2.5039 2.79687-2.5039-2.79687-3.4375V311.67187h8.8789v150.52344l-.35546.3789.35546.61329 4.07032-.61328-4.07031-.3789V311.67187h84.32421v168.65625H144.00391"/></g><path fill="#50fcfc" fill-rule="evenodd" d="M146.63672 444.82031l-2.63281 3.34766v-5.55078l2.6328 2.20312"/><g clip-path="url(#d)"><path fill="#50fcfc" fill-rule="evenodd" d="M146.82813 324.98438l-1.76563-4.4375 3.375-3.21094 2.25781-1.22656.1914-4.4375H153.5l3.8164.45703 4.4375-.02735v.65235l-4.4375.125-4.0664 3.23046-.375.3125-4.4375 2.8672-1.32031 1.2578 1.32031 2.2422 4.33984 2.1953.09766.03907.04297-.03906 4.39844-1.1836 3.33203-3.2539 1.10547-.92188 3.9414-3.51563-3.9414-3.35546v-.65235l4.4375 2.49219 1.51562 1.51563-1.51562 1.5664-4.4375 2.6289-.29297.2422-4.14453 4.04687-1.45703.39063-2.98438 2.70703-4.4375-.60157-1.60938-2.10546"/></g><path fill="#00e8fc" fill-rule="evenodd" d="M148.4375 322.78906l-1.32031-2.24219 1.32031-1.2578 4.4375-2.8672.375-.3125 4.0664-3.23046 4.4375-.125v1.07812l-4.4375.30469-2.48827 1.97265-1.95313 1.64454-3.4336 2.79296 3.4336 3.01563 4.4414-1.08594 1.97266-1.92969 2.46485-2.05468 2.67187-2.38281-2.67187-2.27735v-1.07812l3.9414 3.35546-3.9414 3.51563-1.10547.92188-3.33203 3.2539-4.39844 1.1836-.04297.03906-.09766-.03906-4.33984-2.19532"/><path fill="#00d4fc" fill-rule="evenodd" d="M152.875 323.5625l-3.4336-3.01563 3.4336-2.79296 1.95313-1.64454 2.48828-1.97265 4.4375-.30469v1.08203l-4.4375.47656-.91016.71875-3.53125 2.97657-1.79688 1.46094 1.79688 1.57812 4.4414-.97266.6172-.60546 3.8203-3.1836 1.40235-1.2539-1.40234-1.19532v-1.08203l2.67187 2.27735-2.67187 2.3828-2.46485 2.0547-1.97265 1.92968-4.44141 1.08594"/><path fill="#00c4fc" fill-rule="evenodd" d="M152.875 322.125l-1.79688-1.57813 1.79688-1.46093v1.33203l-.16016.1289.16016.14063.67969-.14063-.67969-.1289v-1.33203l3.53125-2.97656.91016-.71875 4.4375-.47657v1.07813l-.89453.11719.89453.12109.13672-.1211-.13672-.11718v-1.07813l1.40234 1.19531-1.40234 1.25391-3.82032 3.1836-.61718.60546-4.44141.97266"/><path fill="#50fcfc" fill-rule="evenodd" d="M152.875 450.0625l-1.63281-.80078 1.63281-2.23438.47266-2.20703 3.96875-3.29687.83593-1.14063 3.60157-3.49219.82812-.9453 3.60938-3.23048 1.30468-1.20703 3.13282-3.0664 4.4375-1.21485.375-.15625 4.0664-2.82422 4.4375-1.46484.375-.15234 4.0625-3.10547 4.4375-.875 1.875-.45703 2.5664-1.54688 2.53517 1.54688 1.90234 1.05078 1.84375-1.05078.1289-4.4375 2.46485-2.07032 2.51172-2.36718 1.92578-1.35938v12.26953l-4.4375.3125-1.24219 2.08985 1.24219.89453 4.4375 1.26172 2.42187-2.15625-2.42187-2.40235v-12.26953l4.4414-.64844 2.2461 2.00782.82812 4.4375 1.36328.13671v2.09375l-4.4375.5-2.2578 1.70704 2.2578 2.24218 1.71875 2.19532 2.71875 3.84375.65625.59765-.65625 2.85156-4.4375-.45312-4.4414-1.66016-2.59766-.73828-1.83984-.77344-4.4375-3.22265-1.33594-.44531-3.10156-1.66797-4.4414-.5-4.4375 1.11719-1.375 1.05078-3.0625 1.22265-4.4375 2.8164-.57423.40235-3.86718 1.625-4.4375 2.71485-.09766.09765-4.33984 4.01172-.47266.42578-3.85156 4.4375-.11328.0625-3.60938 4.375-.72656 4.4414.875 4.4375.41406 4.4375 1.07422 4.4375 1.97266 1.66407 4.4375-.47656 4.4375-.2539 4.4375-.11329 2.48047-.82031 1.96093-.92578 4.4375-.63672 4.35938 1.5625.07812.03125.14063-.03125 4.29687-1.83203 4.4414-1.4336 4.4375-.34375 4.4375.1797 1.5-1.00782 2.9375-1.89063 3.35938-2.54687 1.08203-.67578 4.4375-.53516 4.4375-2.64062.81641-.58594 3.6211-3.0039 4.4375.41406 4.4414-1.58594.52734-.26563 1.02344-4.4375-.27734-4.4375-1.27344-1.45312-.86328-2.98438-3.57813-4.1914-.34375-.2461-4.09375-1.65625-2.54296-2.78515-1.89453-4.29688-.10938-.14062-4.32813-2.20704v-2.09375l4.4375.77344 3.66016 3.52735.51172 4.4375.26563.29687 4.4375.7461 4.4414.1289 3.57422 3.26953.86328 1.54297 3.26563 2.89453 1.17187 1.15625 2.61719 3.28125 1.82031 2.44922 2.88672-2.44922 1.55078-3.625 4.4414 1.4375 1.03126 2.1875-1.03125.9414-4.4414.3086-2.78517 3.1875-1.65234 1.75781-4.03906 2.6797-.39844.30859-4.4375 3.36718-1.47266.76563-1.51562 4.4375 1.61328 4.4375-3.0625 2.23828-2.1875-2.23828-.1289-4.4375-2.125-.33203-4.4375-.51172-1.5625.84375-2.875 2.11328-2.61329 2.32422 2.61328 2.82812 2.59375 1.60938-2.59375 1.11328-3.03906-1.11328-1.39844-1.21094-1.14062 1.21094-3.29688 1.02344-4.4414-.79297-4.4375 1.42578-4.4375.33594-4.4375.03125-4.4414.58984-4.4375.48438-4.4375-.54688-4.4375.67969-4.44141.375-4.4375-.14063-4.4375.27344-4.4375.16406-4.4375-2.1289-.83203-1.77344-1.15235-4.4375-.14453-4.4375-2.3125-3.63672"/><path fill="#00b8fc" fill-rule="evenodd" d="M152.875 320.6875l-.16016-.14063.16016-.1289.67969.1289-.67969.14063"/><path fill="#00e8fc" fill-rule="evenodd" d="M158.29297 453.69922l-.875-4.4375.72656-4.4414 3.60938-4.375v5.2578l-1.32813 3.5586.30469 4.4375.94922 4.4375.07422.1875.25-.1875 2.39453-4.4375-.50781-4.4375-2.13672-3.5586v-5.2578l.11328-.0625 3.85156-4.4375.47266-.42579 4.33984-4.01172.09766-.09765 4.4375-2.71485 3.86718-1.625.57422-.40234 4.4375-2.8164 3.0625-1.22266 1.375-1.05079 4.4375-1.11718v4.29687l-4.4375.59766-4.4375.27734-2.09375 1.4375-2.34375 1.90235-4.4414 2.17578-.57813.35937-2.5625 4.4375-1.29687 2.50781-1.52344 1.9297-1.57813 4.4375.86328 4.4414 2.23829 2.33984 2.21875 2.09766 2.21875 2.07812 4.4414-.10546 4.4375 1.34375 4.4375-1.26954 3.95703-2.04687.48047-.1836 4.4414-.83203 4.4375-.3828 3.9375-3.03907.5-.3711 4.4375-3.20703 1.13673-.86328 3.30469-2.0586 1.92187-2.3789-1.92188-1.33984-.73046-3.09766-2.75-4.4375-.96094-.5664-4.4375-.72657-4.4375-1.6914-2.46875-1.45313-1.96875-.35156-4.4414-1.96094v-4.29687l4.4414.5 3.10156 1.66797 1.33594.4453 4.4375 3.22267 1.83984.77343 2.59766.73828 4.4414 1.66016 4.4375.45313.65625-2.85157-.65625-.59765-2.71875-3.84375-1.71875-2.19532-2.2578-2.24218 2.2578-1.70704 4.4375-.5 4.32813 2.20704.10938.14062v21.6914l-.44141.35938.4414.20313.17579-.20313-.17578-.35937v-21.6914l1.89453 4.29687 2.54297 2.78515 4.09375 1.65625.34375.2461 3.57812 4.1914.86328 2.98438 1.27344 1.45312.27734 4.4375-1.02344 4.4375-.52734.26563-4.4414 1.58594-4.4375-.41407-3.6211 3.0039-.8164.58595-4.4375 2.64062-4.4375.53516-1.08204.67578-3.35937 2.54687-2.9375 1.89063-1.5 1.00781-4.4375-.17969-4.4375.34375-4.4414 1.4336-4.29688 1.83203-.14063.03125-.07812-.03125-4.35938-1.5625-4.4375.63672-1.96094.92578-2.48046.82031-4.4375.11328-4.4375.2539-4.4375.47657-1.97266-1.66406-1.07422-4.4375-.41406-4.4375"/><path fill="#00d4fc" fill-rule="evenodd" d="M160.73047 453.69922l-.30469-4.4375 1.32813-3.5586 2.13672 3.5586.5078 4.4375-2.39452 4.4375-.25.1875-.07422-.1875-.94922-4.4375"/><path fill="#00b8fc" fill-rule="evenodd" d="M161.7539 316.23047l-.89452-.1211.89453-.11718.13672.11719-.13672.12109"/><path fill="#00d4fc" fill-rule="evenodd" d="M168.39063 449.26172l-.86329-4.4414 1.57813-4.4375 1.52344-1.9297 1.29687-2.5078 2.5625-4.4375.57813-.35938 4.4414-2.17578 2.34375-1.90235 2.09375-1.4375v2.82813l-4.4375 2.6211-.85156.42577-3.21094 4.4375-.07422 4.4375.44141 4.4375-.7461.1836-3.65624 4.2578 3.65625 3.59767 4.4414-.78907 3.3711 1.6289 1.0664.54298 1.92578-.54297 2.51172-.52344 4.4375-1.67969 4.4414-1.70312 2.70313-.53125 1.73438-2.9961 4.4375-.64843.88672-.79688 1.84375-4.4375 1.70703-3.17578.51172-1.26172-.51172-.72265-4.4375-2.59766-4.4375 1.11328-4.4375-1.1914-4.4414.71093-2.5547-1.75-1.8828-1.64453-4.4375-1.40234v-2.82813l4.4375-.27734 4.4375-.59766 4.4414 1.96094 1.96875.35156 2.46875 1.45313 4.4375 1.6914 4.4375.72657.96094.5664 2.75 4.4375.73047 3.09766 1.92187 1.33984-1.92188 2.3789-3.30468 2.0586-1.13672.86328-4.4375 3.20704-.5.37109-3.9375 3.03906-4.4375.38281-4.4414.83204-.48048.18359-3.95703 2.04687-4.4375 1.26954-4.4375-1.34375-4.4414.10546-2.21875-2.07812-2.21875-2.09766-2.23828-2.33984"/><path fill="#00c4fc" fill-rule="evenodd" d="M175.0664 452.85938l-3.65624-3.59766 3.65625-4.25781v1.7578l-2.14844 2.5 2.14844 2.10938 4.4414-1.91796.29688-.19141-.29688-.58594-4.4414-1.91406v-1.75781l.74609-.1836-.4414-4.4375.07421-4.4375 3.21094-4.4375.85156-.42578v2.83985l-1.625 2.02343-.53906 4.4375 2.16406 3.08203 4.4375-2.73046v8.42187l-.03906.10547.03906.21094.02344-.21094-.02344-.10547v-8.42188l3.57813 4.08594-1.26953 4.4414 2.1289 1.88673 4.4375-1.66797.52344-.21875 3.91797-2.2461 2.03125-2.1953 2.40625-1.91798 3.4414-2.51953.9961-1.20703 2.36328-3.23047-2.36328-1.625-3.74219 1.625-.69531.5586-4.4375 1.02343-2.97266 2.85547-1.46875.72656-3.25781-.72656.5-4.4375-1.67969-.96875-4.4375-.41406-4.4375-.64063v-2.83984l4.4375-2.6211 4.4375 1.40235 1.88281 1.64453 2.5547 1.75 4.4414-.71094 4.4375 1.19141 4.4375-1.11328 4.4375 2.59766.51172.72265-.51172 1.26172-1.70703 3.17578-1.84375 4.4375-.88672.79688-4.4375.64844-1.73438 2.99609-2.70312.53125-4.4414 1.70312-4.4375 1.6797-2.51173.52343-1.92578.54297-1.0664-.54297-3.3711-1.6289-4.4414.78906"/><path fill="#50fcfc" fill-rule="evenodd" d="M175.0664 330.96875l-2.80468-1.54297 2.80469-1.52344 1.3789 1.52344-1.3789 1.54297"/><path fill="#00b8fc" fill-rule="evenodd" d="M175.0664 451.3711l-2.14843-2.10938 2.14844-2.5v1.75781l-.63672.74219.63672.625 1.39062-.625-1.39062-.74219v-1.75781l4.4414 1.91406.29688.58594-.29688.1914-4.4414 1.91797"/><path fill="#00a8fc" fill-rule="evenodd" d="M175.0664 449.88672l-.63671-.625.63672-.74219 1.39062.74219-1.39062.625"/><path fill="#00b8fc" fill-rule="evenodd" d="M179.50781 443.46484l-2.16406-3.08203.53906-4.4375 1.625-2.02344v5.45313l-.19531 1.00781.19531.27344.41406-.27344-.41406-1.00781v-5.45313l4.4375.64063 4.4375.41406 1.67969.96875-.5 4.4375 3.25781.72656v1.79297l-2.46484 1.91797 2.46484 2.42578 3.73438-2.42578-3.73438-1.91797v-1.79296l1.46875-.72657 2.97266-2.85547 4.4375-1.02343v3.13671l-2.51563.7422 2.51563.48437.65625-.48438-.65625-.74219v-3.13671l.69531-.5586 3.74219-1.625 2.36328 1.625-2.36328 3.23047-.9961 1.20703-3.4414 2.51953-2.40625 1.91797-2.03125 2.19531-3.91797 2.2461-.52344.21875-4.4375 1.66797-2.1289-1.88672 1.26953-4.4414-3.57813-4.08594-4.4375 2.73046"/><path fill="#00a8fc" fill-rule="evenodd" d="M179.50781 440.65625l-.19531-.27344.19531-1.00781.41406 1.00781-.41406.27344"/><path fill="#00d4fc" fill-rule="evenodd" d="M183.94531 449.15625l-.03906.10547.03906.21094.02344-.21094-.02344-.10547"/><path fill="#00a8fc" fill-rule="evenodd" d="M192.82031 447.2461l-2.46484-2.42579 2.46484-1.91797v1.78907l-.16406.1289.16406.16406.2539-.16406-.2539-.1289v-1.78907l3.73438 1.91797-3.73438 2.42578"/><path fill="#009800" fill-rule="evenodd" d="M192.82031 444.98438l-.16406-.16407.16406-.1289.2539.1289-.2539.16406"/><path fill="#00a8fc" fill-rule="evenodd" d="M201.69922 440.86719l-2.51563-.48438 2.51563-.74219.65625.7422-.65625.48437"/><path fill="#fff" fill-opacity="0" fill-rule="evenodd" d="M206.13672 420.53906l-1.24219 2.08985 1.24219.89453 4.4375 1.26172 2.42187-2.15625-2.42187-2.40235-4.4375.3125"/><path fill="#00d4fc" fill-rule="evenodd" d="M223.89063 440.58594l-.44141-.20313.4414-.35937.17579.35937-.17578.20313"/><path fill="#50fcfc" fill-rule="evenodd" d="M246.08203 454.17969l-1.41797-.48047 1.41797-.39063.51172.39063-.51172.48047m22.1914-19.82813l-3.57812-2.84375 3.57813-3.03125 4.4375.60938 4.4414-.84766 4.4375-.8164v1.46093l-3.63671 2.625 3.63671 2.7539 3.6875 1.6836.75.53125 1.90235-.53125-1.90235-1.08203-1.23437-3.35547-3.20313-2.625v-1.46094l4.4375 2.48829 2.3086 1.59765 2.1289 1.28125 2.48438 3.15625-2.48438 2.45313-4.4375.46484-4.11718-2.91797-.32032-.14453-4.4375-1.78906-4.4414-.64844-4.4375.98828m4.42578 23.78516l-2.98828-4.4375 3-1.53906 4.4414-2.5547 3.7461 4.09376-3.7461 4.04297-4.28125.39453-.16015.01172-.01172-.01172"/><path fill="#00e8fc" fill-rule="evenodd" d="M281.58984 434.26172l-3.63671-2.7539 3.63671-2.625v2.4375l-.2578.1875.2578.1953.22657-.1953-.22657-.1875v-2.4375l3.20313 2.625 1.23437 3.35546 1.90235 1.08203-1.90235.53125-.75-.53125-3.6875-1.6836"/><path fill="#00d4fc" fill-rule="evenodd" d="M281.58984 431.70313l-.2578-.19532.2578-.1875.22657.1875-.22657.19531"/><path fill="#50fcfc" fill-rule="evenodd" d="M374.79297 451.76563l-3.17969-2.50391 3.17969-3.4375 2.79687 3.4375-2.79687 2.5039m8.8789 11.42188l-.35546-.61328.35546-.3789 4.07032.3789-4.07031.61328"/><g clip-path="url(#e)"><path fill="#fff" fill-opacity="0" fill-rule="evenodd" d="M467.9961 480.32813H468V311.67188h-.0039H468v168.65625h-.0039"/></g><path fill="#fff" fill-opacity="0" fill-rule="evenodd" d="M242.58594 436.32422l3.5664 4.6289 7.89063-6.08203-3.5664-4.625-7.89063 6.07813"/><path fill-rule="evenodd" d="M251.16016 434.13672l.3125.40234-4.98828 3.84375-.48047-.625 3.55859-2.74219-.84766-1.09765.4375-.33985.39453.40235.19532.16797.21094.1289.23828.07422.26953.00781.32031-.0664.3789-.15625"/><path fill="#fff" fill-opacity="0" fill-rule="evenodd" d="M194.1914 469.89844l5.82813-.40625-.69531-9.9375-5.82813.40625.69532 9.9375"/><path fill-rule="evenodd" d="M197.11719 461.54688l.50781-.03516.4375 6.27734-.78516.05469-.3125-4.47656-1.3828.09765-.03907-.55468.55078-.10547.25-.07031.22266-.10547.1914-.15625.16016-.21875.1211-.3047.07812-.40233"/><g clip-path="url(#f)"><path fill="none" stroke="#000" stroke-linecap="round" stroke-linejoin="round" stroke-miterlimit="10" stroke-width=".5" d="M147.48828 479.91406l-6.97656.82813"/></g><g clip-path="url(#g)"><path fill="none" stroke="#000" stroke-linecap="round" stroke-linejoin="round" stroke-miterlimit="10" stroke-width=".5" d="M147.48828 479.91406l1.39844 2.01563"/></g><g clip-path="url(#h)"><path fill="none" stroke="#000" stroke-linecap="round" stroke-linejoin="round" stroke-miterlimit="10" stroke-width=".5" d="M146.47266 480.03516l.69922 1.0078"/></g><g clip-path="url(#i)"><path fill="none" stroke="#000" stroke-linecap="round" stroke-linejoin="round" stroke-miterlimit="10" stroke-width=".5" d="M160.82031 480.08594l-7.01172.48828"/></g><g clip-path="url(#j)"><path fill="none" stroke="#000" stroke-linecap="round" stroke-linejoin="round" stroke-miterlimit="10" stroke-width=".5" d="M160.82031 480.08594l1.30078 2.07812"/></g><g clip-path="url(#k)"><path fill="none" stroke="#000" stroke-linecap="round" stroke-linejoin="round" stroke-miterlimit="10" stroke-width=".5" d="M159.80078 480.15625l.64844 1.03906"/></g><g clip-path="url(#l)"><path fill="none" stroke="#000" stroke-linecap="round" stroke-linejoin="round" stroke-miterlimit="10" stroke-width=".5" d="M174.14453 480.3125l-7.02734.03125"/></g><g clip-path="url(#m)"><path fill="none" stroke="#000" stroke-linecap="round" stroke-linejoin="round" stroke-miterlimit="10" stroke-width=".5" d="M174.14453 480.3125l1.16016 2.16016"/></g><g clip-path="url(#n)"><path fill="none" stroke="#000" stroke-linecap="round" stroke-linejoin="round" stroke-miterlimit="10" stroke-width=".5" d="M173.1211 480.3164l.58202 1.08204"/></g><g clip-path="url(#o)"><path fill="none" stroke="#000" stroke-linecap="round" stroke-linejoin="round" stroke-miterlimit="10" stroke-width=".5" d="M187.44922 480.60547l-7.00781-.55469"/></g><g clip-path="url(#p)"><path fill="none" stroke="#000" stroke-linecap="round" stroke-linejoin="round" stroke-miterlimit="10" stroke-width=".5" d="M187.44922 480.60547l.97656 2.25"/></g><g clip-path="url(#q)"><path fill="none" stroke="#000" stroke-linecap="round" stroke-linejoin="round" stroke-miterlimit="10" stroke-width=".5" d="M186.42969 480.52344l.48828 1.1289"/></g><g clip-path="url(#r)"><path fill="none" stroke="#000" stroke-linecap="round" stroke-linejoin="round" stroke-miterlimit="10" stroke-width=".5" d="M200.75 480.74219l-6.98047-.82422"/></g><g clip-path="url(#s)"><path fill="none" stroke="#000" stroke-linecap="round" stroke-linejoin="round" stroke-miterlimit="10" stroke-width=".5" d="M200.75 480.74219l.89063 2.28515"/></g><g clip-path="url(#t)"><path fill="none" stroke="#000" stroke-linecap="round" stroke-linejoin="round" stroke-miterlimit="10" stroke-width=".5" d="M199.73438 480.6211l.4453 1.14452"/></g><g clip-path="url(#u)"><path fill="none" stroke="#000" stroke-linecap="round" stroke-linejoin="round" stroke-miterlimit="10" stroke-width=".5" d="M214.04688 480.875l-6.94141-1.08984"/></g><g clip-path="url(#v)"><path fill="none" stroke="#000" stroke-linecap="round" stroke-linejoin="round" stroke-miterlimit="10" stroke-width=".5" d="M214.04688 480.875l.80078 2.3164"/></g><g clip-path="url(#w)"><path fill="none" stroke="#000" stroke-linecap="round" stroke-linejoin="round" stroke-miterlimit="10" stroke-width=".5" d="M227.33203 481.04297l-6.88281-1.42969"/></g><g clip-path="url(#x)"><path fill="none" stroke="#000" stroke-linecap="round" stroke-linejoin="round" stroke-miterlimit="10" stroke-width=".5" d="M227.33203 481.04297l.6875 2.35547"/></g><g clip-path="url(#y)"><path fill="none" stroke="#000" stroke-linecap="round" stroke-linejoin="round" stroke-miterlimit="10" stroke-width=".5" d="M240.45313 481.66797l-6.4961-2.67969"/></g><g clip-path="url(#z)"><path fill="none" stroke="#000" stroke-linecap="round" stroke-linejoin="round" stroke-miterlimit="10" stroke-width=".5" d="M253.83203 481.5039l-6.6211-2.35156"/></g><g clip-path="url(#A)"><path fill="none" stroke="#000" stroke-linecap="round" stroke-linejoin="round" stroke-miterlimit="10" stroke-width=".5" d="M267.27344 481.05469l-6.875-1.44922"/></g><g clip-path="url(#B)"><path fill="none" stroke="#000" stroke-linecap="round" stroke-linejoin="round" stroke-miterlimit="10" stroke-width=".5" d="M266.27344 480.84375l.33984 1.17969"/></g><g clip-path="url(#C)"><path fill="none" stroke="#000" stroke-linecap="round" stroke-linejoin="round" stroke-miterlimit="10" stroke-width=".5" d="M280.65625 480.07813l-7.01172.5"/></g><g clip-path="url(#D)"><path fill="none" stroke="#000" stroke-linecap="round" stroke-linejoin="round" stroke-miterlimit="10" stroke-width=".5" d="M279.63672 480.15234l.64844 1.03907"/></g><g clip-path="url(#E)"><path fill="none" stroke="#000" stroke-linecap="round" stroke-linejoin="round" stroke-miterlimit="10" stroke-width=".5" d="M293.9375 479.78906l-6.94531 1.08203"/></g><g clip-path="url(#F)"><path fill="none" stroke="#000" stroke-linecap="round" stroke-linejoin="round" stroke-miterlimit="10" stroke-width=".5" d="M293.9375 479.78906l1.47266 1.96094"/></g><g clip-path="url(#G)"><path fill="none" stroke="#000" stroke-linecap="round" stroke-linejoin="round" stroke-miterlimit="10" stroke-width=".5" d="M306.71875 482.25781l-5.875-3.85547"/></g><g clip-path="url(#H)"><path fill="none" stroke="#000" stroke-linecap="round" stroke-linejoin="round" stroke-miterlimit="10" stroke-width=".5" d="M319.45313 482.9375l-4.71094-5.21484"/></g><g clip-path="url(#I)"><path fill="none" stroke="#000" stroke-linecap="round" stroke-linejoin="round" stroke-miterlimit="10" stroke-width=".5" d="M333.625 481.7461l-6.42969-2.83594"/></g><g clip-path="url(#J)"><path fill="none" stroke="#000" stroke-linecap="round" stroke-linejoin="round" stroke-miterlimit="10" stroke-width=".5" d="M343.92578 483.83594l-.40234-7.01563"/></g><g clip-path="url(#K)"><path fill="none" stroke="#000" stroke-linecap="round" stroke-linejoin="round" stroke-miterlimit="10" stroke-width=".5" d="M355.71094 483.58203l2.66015-6.5039"/></g><g clip-path="url(#L)"><path fill="none" stroke="#000" stroke-linecap="round" stroke-linejoin="round" stroke-miterlimit="10" stroke-width=".5" d="M368.65625 483.40234l3.39844-6.14843"/></g><g clip-path="url(#M)"><path fill="none" stroke="#000" stroke-linecap="round" stroke-linejoin="round" stroke-miterlimit="10" stroke-width=".5" d="M380.5664 481.96875l6.21094-3.28125"/></g><g clip-path="url(#N)"><path fill="none" stroke="#000" stroke-linecap="round" stroke-linejoin="round" stroke-miterlimit="10" stroke-width=".5" d="M380.5664 481.96875l-2.03124-1.375"/></g><g clip-path="url(#O)"><path fill="none" stroke="#000" stroke-linecap="round" stroke-linejoin="round" stroke-miterlimit="10" stroke-width=".5" d="M393.88672 481.98438l6.19922-3.3086"/></g><g clip-path="url(#P)"><path fill="none" stroke="#000" stroke-linecap="round" stroke-linejoin="round" stroke-miterlimit="10" stroke-width=".5" d="M393.88672 481.98438l-2.03516-1.3711"/></g><g clip-path="url(#Q)"><path fill="none" stroke="#000" stroke-linecap="round" stroke-linejoin="round" stroke-miterlimit="10" stroke-width=".5" d="M394.78906 481.5l-1.01953-.6836"/></g><g clip-path="url(#R)"><path fill="none" stroke="#000" stroke-linecap="round" stroke-linejoin="round" stroke-miterlimit="10" stroke-width=".5" d="M407.48047 482.42188l5.64062-4.1875"/></g><g clip-path="url(#S)"><path fill="none" stroke="#000" stroke-linecap="round" stroke-linejoin="round" stroke-miterlimit="10" stroke-width=".5" d="M421.52344 483.15234l4.1875-5.64453"/></g><g clip-path="url(#T)"><path fill="none" stroke="#000" stroke-linecap="round" stroke-linejoin="round" stroke-miterlimit="10" stroke-width=".5" d="M437.19531 483.83203l-.52734-7.00781"/></g><g clip-path="url(#U)"><path fill="none" stroke="#000" stroke-linecap="round" stroke-linejoin="round" stroke-miterlimit="10" stroke-width=".5" d="M448.44531 483.34375l3.60547-6.03125"/></g><g clip-path="url(#V)"><path fill="none" stroke="#000" stroke-linecap="round" stroke-linejoin="round" stroke-miterlimit="10" stroke-width=".5" d="M460.47656 482.01172l6.16797-3.36719"/></g><g clip-path="url(#W)"><path fill="none" stroke="#000" stroke-linecap="round" stroke-linejoin="round" stroke-miterlimit="10" stroke-width=".5" d="M460.47656 482.01172l-2.04687-1.34766"/></g><g clip-path="url(#X)"><path fill="none" stroke="#000" stroke-linecap="round" stroke-linejoin="round" stroke-miterlimit="10" stroke-width=".5" d="M147.46484 466.4336l-6.92968 1.16015"/></g><path fill="none" stroke="#000" stroke-linecap="round" stroke-linejoin="round" stroke-miterlimit="10" stroke-width=".5" d="M147.46484 466.4336l1.4922 1.94921m-2.5-1.78125l.74608.97656m13.625-.625l-7.02734.1211m7.02734-.1211l1.19141 2.14454m12.09766-1.64453l-6.97266-.87891m6.97266.8789l.8711 2.29297m12.35155-1.83203l-6.78906-1.80078m6.78906 1.80078l.5586 2.39063m12.77344-2.44532l-6.82422-1.6875m6.82422 1.6875l.59765 2.37891m12.77734-2.6836l-6.9414-1.08202m6.9414 1.08203l.8047 2.32031m12.49609-2.23438l-6.91407-1.2539m6.91407 1.2539l.74609 2.33594m12.61328-2.66797l-7.0039-.58984m7.0039.58984l.96484 2.25391m12.34375-2.91406l-6.98828.73047m6.98828-.73047l1.3711 2.03515m11.8789-2.4375l-6.85937 1.53516m6.85938-1.53516l1.59765 1.85938m11.65235-2.09766l-6.73047 2.01172m6.73047-2.01172l1.72656 1.74219m11.66406-1.44922l-6.8789 1.42578m5.8789-1.21875l.78125.94532m13.53516-1.14063l-6.88282 1.40234m5.88282-1.19921l.78125.94921m13.54296-1.11328l-6.90234 1.32422m5.89844-1.13281l.76953.95703m13.5-1.36328l-6.80469 1.7539m5.8164-1.5l.82813.90625m11.08594-3.64843l-2.02344 6.73047m13.46485-6.77344l1.72265 6.8164m-1.47265-5.82421l.91015-.82422m10.42188.8711l5.1875 4.73827m-4.4336-4.05078l.3086-1.1875m11.35547 2.48828l6.98437.76172m-6.98437-.76172l-.91406-2.27734m14.23046 2.26953l6.98047.77734m-6.98047-.77734l-.91015-2.27734m1.92578 2.39062l-.45313-1.14062m12.78516 2.03515l6.91797-1.23828m-6.91797 1.23828l-1.51563-1.92968m15.0625 2.70312l6.45313-2.78516m-6.45313 2.78516l-1.91796-1.53125m2.85546 1.125l-.95703-.76562m14.38672 2.53906l4.34766-5.51953m-4.34766 5.51953l-2.41406-.4336m14.99219-.35546l5.82031-3.94141m-5.82031 3.9414l-2.16797-1.14843m15.03906.21875l6.71094-2.08203m-5.73438 1.78125l-.87109-.86328"/><g clip-path="url(#Y)"><path fill="none" stroke="#000" stroke-linecap="round" stroke-linejoin="round" stroke-miterlimit="10" stroke-width=".5" d="M147.44531 453.00781l-6.89062 1.38281"/></g><path fill="none" stroke="#000" stroke-linecap="round" stroke-linejoin="round" stroke-miterlimit="10" stroke-width=".5" d="M147.44531 453.00781L149 454.90625m11.79688-1.67578l-6.96485.9375m6.96484-.9375l1.4297 1.9961m11.91405-1.6836l-7.01953.3125m5.9961-.26953l.625 1.0586m13.58984-.01173l-6.77344-1.86719m5.78907 1.59375l.26562 1.19922m13.79297-.29687l-6.29297-3.125m5.3789 2.67187l.03126 1.22657m14.08984-.57422l-6.07812-3.52344m6.07812 3.52344l-.08984 2.45312m13.82031-3.57031l-6.90625-1.28906m6.90625 1.28906l.73438 2.33984m12.45312-4.11718l-6.65234 2.26562m6.65234-2.26562l1.78906 1.67578m11.4414-1.89844l-6.48437 2.71094m6.48438-2.71094l1.89844 1.55469m-2.83985-1.16016l.94922.77734m13.05469-1.66406l-5.97656 3.69531m5.97656-3.6953l2.11719 1.23827m11.1289-1.34765l-5.83984 3.91406m5.83984-3.91406l2.16016 1.16015m11.11719-1.21484l-5.76172 4.02344m5.76172-4.02344l2.18359 1.11328m-3.02344-.52734l1.09375.55468m12.76563-1.5078l-5.17578 4.7539m5.17578-4.7539l2.3164.8203m11.02735-.78906l-5.23047 4.69531m5.23047-4.6953l2.30468.84374m11.16016-.66797l-5.52734 4.33985m5.52734-4.33985l2.24219.9922m10.98437-1.09767l-5.35547 4.55079m5.35547-4.55078l2.28125.90625m10.54297-1.37891l-4.3711 5.5m4.3711-5.5l2.41406.44531m9.94532-.98828l-2.46094 6.58203m2.46094-6.58203l2.4336-.32031m7.875.58203l3.55468 6.0625m-3.55469-6.0625l1.28516-2.08985m10.85547 3.21485l5.90234 3.8125m-5.90234-3.8125l.20703-2.44531m.65234 3l.10156-1.22266m12.16016 1.01172l6.29297 3.125m-6.29297-3.125l-.07031-2.45313m13.02343 3.80078l7.01563.42579m-7.01563-.42578l-1.01953-2.23047m2.03907 2.29297l-1.01954-2.23047m13.34375 2.87109l6.95704-.97656m-6.95704.97656l-1.4414-1.98438m2.45312 1.84375l-.72265-.99609m13.13672 1.64844l6.73437-2m-5.7539 1.70703l-.86329-.875m13.14844.98828l6.83203-1.64062m-6.83203 1.64062l-1.625-1.83594"/><g clip-path="url(#Z)"><path fill="none" stroke="#000" stroke-linecap="round" stroke-linejoin="round" stroke-miterlimit="10" stroke-width=".5" d="M147.29688 439.16797l-6.59375 2.42969"/></g><path fill="none" stroke="#000" stroke-linecap="round" stroke-linejoin="round" stroke-miterlimit="10" stroke-width=".5" d="M147.29688 439.16797l1.82812 1.63281m11.57031-1.3789l-6.75781 1.92187m6.75781-1.92188l1.69922 1.76954m11.07422-2.87891l-5.67578 4.14063m4.85156-3.53907l1.10156.53516m12.6875-1.54688l-4.97656 4.96094m19.23828-3.21484l-6.8711 1.46875m5.8711-1.2539l.78906.9375m13.46094.57421l-6.74219-1.98047m5.76172 1.6914l.25 1.20313m14.14844-1.36719l-6.94531-1.07421m5.9336.91796l.40624 1.15625m13.94531-1.85546l-6.99609.6328m5.98047-.53905l.67188 1.02734m13.28515-2.41406l-6.2461 3.21875m6.2461-3.21875l2.01563 1.39843m11.14453-1.66796l-5.9375 3.7578m5.9375-3.7578l2.13281 1.21875m-2.9961-.67188l1.06641.60938m12.84766-1.51954l-5.41016 4.48438m5.41016-4.48438l2.26953.9336m-3.05469-.28125l1.13282.46875m13.15625-.875l-5.78516 3.99219m5.78516-3.9922l2.17578 1.12891m-3.01953-.54687l1.08984.5625m12.8086-1.47266l-5.26954 4.64844m5.26953-4.64844l2.29688.86328m-3.0625-.1875l1.14844.4336m12.60937-1.42969l-4.6211 5.29297m4.6211-5.29297l2.39063.55469m-3.0625.21484l1.1953.27735m13.13282-.70704l-5.30078 4.61329m5.30078-4.61329l2.28906.87891m-3.0625-.20703l1.14844.4375m12.67969-1.3789l-4.78125 5.14843m4.78125-5.14844l2.3711.63282m-3.06641.11718l1.18359.31641m12.41797-1.39063l-3.96485 5.80079m3.96485-5.80079l2.4414.27344m-3.01562.57031l1.21875.13672m11.58203-1.48047l-1.78516 6.79688m1.78516-6.79688l2.38672-.5625m8.35937.875l3.35157 6.17579m-3.35157-6.17579l1.35157-2.04687m11.40625 2.42187l4.46484 5.42579m-4.46484-5.42579l.9375-2.26562m13.6289 1.60547l1.96485 6.7461m-1.96485-6.7461l1.75782-1.71485m12.8828 1.58985l-.6875 6.99219m.6875-6.9922l2.26954-.93359m-2.3711 1.95313l2.26954-.9375m9.27734.25l3.05078 6.32812m-3.05078-6.32812l1.44922-1.98047m-1.00781 2.90234l.72656-.98828m10.52344 1.67578l6.30078 3.11329m-6.30078-3.11329l-.07422-2.45312m.98828 2.90625l-.03516-1.22656m14.77735-1.08985l1.61718 6.83985m-1.61718-6.83985l1.84375-1.62109"/><g clip-path="url(#aa)"><path fill="none" stroke="#000" stroke-linecap="round" stroke-linejoin="round" stroke-miterlimit="10" stroke-width=".5" d="M147.11328 425.4375l-6.22656 3.26172"/></g><path fill="none" stroke="#000" stroke-linecap="round" stroke-linejoin="round" stroke-miterlimit="10" stroke-width=".5" d="M147.11328 425.4375l2.02344 1.38672m11.23828-1.48047l-6.1211 3.44922m6.1211-3.44922l2.0664 1.32031m10.9375-1.78515l-5.49609 4.3789m5.4961-4.3789l2.25.97656m11.67968.19531l-6.72656 2.03516m5.7461-1.73828l.86718.87109m13.57031.10156l-7.01171-.5039m5.99218.42968l.4961 1.1211m13.76172-.53125l-6.85547-1.53516m5.85937 1.3125l.32422 1.1836m13.4375.28125l-5.76172-4.01954m4.92578 3.4375l-.14843 1.21485m14.79687-1.67188l-6.7539-1.9414m5.76953 1.66015l.2539 1.19922m14.10547-2.61719l-6.875 1.45703m6.875-1.45703l1.57813 1.88282m11.5-2.60547l-6.39844 2.90625m6.39844-2.90625l1.9453 1.4961m-2.875-1.07423l.96876.7461m12.44922-2.3086l-4.7461 5.1836m4.7461-5.1836l2.375.61328m10.76562-.76172l-4.39453 5.48047m4.39453-5.48047l2.41016.45313m11.70703.45703l-6 3.66016m6-3.66016l2.10938 1.25m-2.98438-.71484l1.0586.625m13.0039-1.35157l-5.7461 4.04297m5.7461-4.04297l2.1914 1.10938m-3.02734-.51953l1.09375.55469m12.89453-1.35938l-5.41796 4.47266m5.41796-4.47266l2.26563.9375m-3.05469-.28906l1.13281.46875m12.71485-1.39453l-4.90625 5.02734m4.90625-5.02734l2.35547.6875m10.375-1.14844l-3.73828 5.94922m3.73828-5.94922l2.44922.17578m-2.9922.6914l1.22266.08595m13.09375-.60938l-4.65625 5.26172m4.65625-5.26172l2.38672.57031m-3.0625.19532l1.1914.28515m11.11329-1.875l-1.28516 6.91016m1.28516-6.91016l2.33984-.73437m-2.52734 1.74218l1.17188-.37109m14.20312.36719l-5.02734 4.90625m5.02734-4.90625l2.33984.7461m-3.0703-.03516l2.33593.74609m-3.0664-.03125l1.16796.375m12.95703-2.32813l-3.72265 5.95704m3.72265-5.95704l2.44532.16797m-2.98829.69922l2.44922.16797m-2.99218.69922l2.44921.16797m11.70704-2.04297L422 430.1875m3.23438-6.23828l2.45312-.02735m-2.92578.9336l2.45312-.02344m-2.92187.9336l2.45312-.02735m-2.92578.9336l1.22657-.01172m13.72656-2.58594l-3.6836 5.98828m3.6836-5.98828l2.44922.15625m-2.98438.71484l2.44531.15625m-2.98437.71485l2.44922.15625m12.4961-1.47266l-4.79688 5.13672m4.79687-5.13672l2.3711.63672m-3.07032.10937l2.3711.63672m12.51953-.08594l-6.55078 2.54297"/><g clip-path="url(#ab)"><path fill="none" stroke="#000" stroke-linecap="round" stroke-linejoin="round" stroke-miterlimit="10" stroke-width=".5" d="M466.83594 425.79688l1.85937 1.60546"/></g><path fill="none" stroke="#000" stroke-linecap="round" stroke-linejoin="round" stroke-miterlimit="10" stroke-width=".5" d="M465.88281 426.16797l1.85938 1.60547"/><g clip-path="url(#ac)"><path fill="none" stroke="#000" stroke-linecap="round" stroke-linejoin="round" stroke-miterlimit="10" stroke-width=".5" d="M146.67969 411.48047l-5.35938 4.54687"/></g><path fill="none" stroke="#000" stroke-linecap="round" stroke-linejoin="round" stroke-miterlimit="10" stroke-width=".5" d="M146.67969 411.48047l2.27734.90625m-3.0586-.2461l2.28126.90625m12.35937-.6875l-6.44922 2.78516m6.44922-2.78515l1.91797 1.53515m11.61719-.84375l-6.88672 1.40625m6.88672-1.40625l1.5586 1.89063m11.75-1.91016l-6.875 1.4414m5.875-1.23046l.78515.9414m13.09766-2.24609l-6.01172 3.63281m5.13672-3.10547l1.05468.62891m13.35547 2.05469l-6.44922-2.79297m17.46485 4.78516l-1.85547-6.77735m1.58594 5.79297l-.89063.83984m16.01172-.73437l-4.92578-5.01563m4.20703 4.28516l-.36719 1.16797m15.39844-2.34375l-6.92188-1.20313m5.91797 1.02735l.38281 1.16406m13.73438-2.90234l-6.51563 2.625m6.51563-2.625l1.8789 1.57812m10.71485-2.69531l-5.07422 4.85937m5.07422-4.85937l2.33203.76953m-3.07031-.0625l1.16797.38281m12.23828-1.6211l-3.78125 5.92188m3.78125-5.92187l2.44531.1914m-2.9961.66797l1.22266.09766m11.94141-1.30078l-2.3789 6.60937m2.03515-5.64843l1.21484-.17579m13.8047.10157l-5.09766 4.83594m5.09765-4.83594l2.32813.78125m9.97656-1.52344l-3.07813 6.3164m3.07813-6.3164l2.45312-.08594m11.82032.77344l-4.9922 4.94531m4.9922-4.94531l2.34375.73047M345.49609 412l1.17188.36719m13.85937.95703l-6.97265.85937m6.97265-.85937l1.41016 2.00781m-2.42578-1.88281l1.41016 2.00781m12.5664-3.29297l-6.26562 3.17969m6.26562-3.17969l2.00781 1.41016m-2.91796-.94922l2.0078 1.41406m-2.91796-.94922l2.0039 1.41016m12.70704-2.98438l-5.41407 4.47657m5.41407-4.47656l2.26953.93359m-3.0586-.28516l2.26954.9375m-3.0547-.28515l1.13282.46875m13.71875-1.81641l-5.33984 4.5664m5.33984-4.5664l2.28516.89844m-3.0625-.23438l2.28515.89844m-3.0625-.23047l1.14453.44922m13.38282-2.1289l-4.65625 5.26171m4.65625-5.26172l2.38672.57422m-3.0625.1914l2.38671.57423m-3.0664.1914l2.38672.57422m11.80468-2.46094l-3.69921 5.97657m3.69921-5.97657l2.44922.16016m-2.98828.71094l2.44922.16015m-2.98437.70704l1.22265.08203m13.32422-1.71485l-4.01172 5.76563m4.01172-5.76563l2.4375.29297m-3.01953.54688l2.4375.28906m-3.02344.54687l1.21875.14844m14.20703-.85156l-5.89843 3.82031m5.89843-3.82031l2.14453 1.1875m-3.0039-.63281l2.14453 1.1914m-3-.63672l1.07031.59766m14.35156-.88281l-6.68359 2.17187"/><g clip-path="url(#ad)"><path fill="none" stroke="#000" stroke-linecap="round" stroke-linejoin="round" stroke-miterlimit="10" stroke-width=".5" d="M466.90234 412.66797l1.76563 1.70312"/></g><path fill="none" stroke="#000" stroke-linecap="round" stroke-linejoin="round" stroke-miterlimit="10" stroke-width=".5" d="M465.92969 412.98438l1.76562 1.70312"/><g clip-path="url(#ae)"><path fill="none" stroke="#000" stroke-linecap="round" stroke-linejoin="round" stroke-miterlimit="10" stroke-width=".5" d="M147.16797 398.92188l-6.33594 3.03515"/></g><path fill="none" stroke="#000" stroke-linecap="round" stroke-linejoin="round" stroke-miterlimit="10" stroke-width=".5" d="M147.16797 398.92188l1.97656 1.45703m-2.89844-1.01563l1.97657 1.45703m-2.89844-1.01562l.98828.72656m14.03125-1.8789l-6.05469 3.5703m6.05469-3.5703l2.08984 1.28515m-2.97265-.76563l2.09375 1.28125m12.55078-.53515l-6.94922 1.03906m6.94922-1.03906l1.45703 1.97265m9.40625-1.45312l-.01953-.19922-.0586-.1914-.09375-.17579-.46093-.3789-.1914-.05469-.19923-.02344-.19922.02344-.1914.05469-.46094.3789-.09375.17579-.0586.1914-.01952.19922.01953.19922.05859.1914.09375.1797.46094.375.1914.05859.19922.01953.19922-.01953.1914-.0586.46095-.375.09375-.17969.05859-.1914.01953-.19922m9.4961 2.1289l5.58984-4.2578m-4.77735 3.64062l-1.11328-.51172m12.91406-.65625l6.9922-.6836m-5.97266.58204l-.6797-1.01953m14.7461 3.83593l3.45313-6.11718m-2.95313 5.22656l-1.22656-.03125m19.09375-1l-6.65234-2.27344m5.68359 1.9414l.19531 1.21485m14.07031-.83203l-6.61328-2.3711m6.61328 2.3711l.35547 2.42578m13.14453-3.98047l-6.98828.73438m6.98828-.73438l1.375 2.03516m-2.39062-1.92969l.6875 1.01953m13.48047-1.8789l-6.66016 2.24218m6.66016-2.24218L282.26562 401m-2.7539-1.35547l1.78125 1.6836m12.44531-2.17188l-6.54297 2.5664m6.54297-2.5664l1.86328 1.59766m-2.8164-1.22657l1.86328 1.59766m-2.8164-1.22266l.93358.79688m14.38282-1.26172l-6.73438 2m6.73438-2l1.72265 1.75m-2.70312-1.45703l1.72265 1.75m-2.70312-1.46094l1.72266 1.75m13.53906-2.38281l-6.70703 2.10547m6.70703-2.10547l1.7461 1.72265m-2.72266-1.41796l1.74609 1.72265M318.49609 400l.875.85938m14.51172-.95704l-6.94531 1.07032m6.94531-1.07032l1.46875 1.96875m-2.47656-1.8125l1.46484 1.96875m-2.47656-1.8125l.73438.98438m14.6289-1.04297l-7.0039.5664m7.0039-.5664l1.32422 2.0625m-2.33984-1.98047l1.32031 2.0664m12.59766-.1914l-6.17579-3.34765m5.27735 2.85937l-.00781 1.22656m13.16406-5.28125l-4.0625 5.73438m4.0625-5.73438l2.4336.3164m-3.02345.51954l1.21875.15625m12.4961-1.11719l-3.67969 5.98438m3.67969-5.98438l2.44922.15235m-2.98438.71875l2.44922.15234m11.77734-.75781l-4.43359 5.45312m4.4336-5.45312l2.40624.47265m-3.05078.32032l1.20313.23828m13.11328-.69531l-5.14844 4.78515m5.14844-4.78515l2.3164.80078m10.23438-1.42188l-3.6211 6.02344m3.6211-6.02344l2.45313.1289m-2.98047.75l2.45312.12891m11.3711-1.01953l-3.58204 6.04688m3.58204-6.04688l2.44921.11328m-2.96875.76954l2.44922.11328m12.59375.19921l-6 3.65625m6-3.65625l2.11328 1.25m-2.98437-.71875l2.10937 1.25m-2.98437-.71875l1.05469.625M467 399.72267l-6.8789 1.43359"/><g clip-path="url(#af)"><path fill="none" stroke="#000" stroke-linecap="round" stroke-linejoin="round" stroke-miterlimit="10" stroke-width=".5" d="M467 399.72266l1.57031 1.8828"/></g><path fill="none" stroke="#000" stroke-linecap="round" stroke-linejoin="round" stroke-miterlimit="10" stroke-width=".5" d="M466 399.92969l1.57031 1.88672M465 400.1367l.78516.94532"/><g clip-path="url(#ag)"><path fill="none" stroke="#000" stroke-linecap="round" stroke-linejoin="round" stroke-miterlimit="10" stroke-width=".5" d="M147.45703 386.49219l-6.91406 1.26172"/></g><path fill="none" stroke="#000" stroke-linecap="round" stroke-linejoin="round" stroke-miterlimit="10" stroke-width=".5" d="M147.45703 386.49219l1.51953 1.92578m-2.52734-1.74219l1.52344 1.92578m-2.52735-1.74219l.76172.96094m14.42578-1.85156l-6.63672 2.3086m6.63672-2.3086l1.80078 1.66797m-2.76562-1.33203l1.80078 1.66797m-2.76563-1.33204l.89844.83204m14.39453-1.35938l-6.73047 2.01953m6.73047-2.01953l1.72657 1.7461m-2.70703-1.44922l1.72656 1.74218m-2.70313-1.44921l.85938.87109m14.33594-1.6836l-6.57813 2.46485m6.57813-2.46485l1.83984 1.625m-2.79688-1.26562l.92188.8125m7.77734-2.60938l4.5664 5.33985m-3.90233-4.5625l.44921-1.14453m11.08985 2.13672l6.79297 1.80078m-5.8047-1.53906l-.27733-1.19532m19.16406 3.36328l-6.32813-3.05859m6.32813 3.0586l.09375 2.44921m-1.01563-2.89453l.04688 1.22656m14.41406-1.3828l-6.77734-1.85548m6.77734 1.85547l.53906 2.39453m-1.52344-2.66406l.26954 1.19531m14.08593-1.14844l-6.88672-1.40625m6.88672 1.40625l.69532 2.35157m-1.69922-2.5586l.34765 1.17579m14.03125-1.4375l-7.01172-.47266m7.01172.47265l1.00391 2.23829m-2.02344-2.3086l1.0039 2.23828m13.25391-3.17187l-6.85546 1.53515m6.85547-1.53515l1.59765 1.86328m-2.59375-1.64063l1.59766 1.86329m12.75-1.90235L287 387.70703m6.92969-1.16797l1.4961 1.9414m-2.50391-1.77343l1.49609 1.94531m-2.5039-1.77343l.75.97265m14.45312-1.82812l-6.67188 2.19922m6.67188-2.19922l1.77344 1.69922m-2.7422-1.37891l1.76954 1.69922m12.4336-2.23828l-6.51173 2.63672m6.51172-2.63672l1.88282 1.57812m-2.82813-1.19531l1.8789 1.57813m-2.82812-1.19141l.9414.78515m14.26563-1.5625l-6.50781 2.65235m6.50781-2.65235l1.88672 1.57422m-2.83203-1.1875l1.88281 1.57422m11.98047-2.67969l-5.71484 4.08985m5.71484-4.08985l2.19922 1.09375m-3.02734-.49609l1.09765.54297m13.40235-.51953l-6.42578 2.84765m6.42578-2.84765l1.92968 1.51172m-2.86718-1.09766L361.25 387.625m12.1914-2.1875l-6.16796 3.3711m6.16797-3.3711l2.04687 1.35156m-2.94531-.85937l2.05078 1.34765m-2.94922-.85937l1.02735.67578m13.59375-2.33984l-5.1875 4.73828m5.1875-4.73828l2.3125.8203m-3.06641-.1328l2.3086.82421m11.39062-1.86328l-4.44922 5.44141m4.44922-5.4414l2.40625.47656m-3.05469.3164l2.40625.47656m11.32813-1.4414l-3.98829 5.78515m3.98829-5.78515l2.4375.28125m-3.01954.5586l2.4375.28124m10.71485-1.51172l-2.5 6.56641m2.5-6.5664l2.4336-.3047m-2.79688 1.26173l1.21484-.15235m12.36719-.83984l-2.3086 6.63672m2.3086-6.63672l2.42578-.375m-2.76172 1.33984l1.21094-.1875m13.83203.1211l-5.09375 4.83984m5.09375-4.83985l2.32812.77735m-3.0703-.07422l2.32812.77734m12.66406.45313l-6.96094.97265"/><g clip-path="url(#ah)"><path fill="none" stroke="#000" stroke-linecap="round" stroke-linejoin="round" stroke-miterlimit="10" stroke-width=".5" d="M467.04297 386.63672l1.4375 1.98828"/></g><path fill="none" stroke="#000" stroke-linecap="round" stroke-linejoin="round" stroke-miterlimit="10" stroke-width=".5" d="M466.02734 386.78125l1.44141 1.98438"/><g clip-path="url(#ai)"><path fill="none" stroke="#000" stroke-linecap="round" stroke-linejoin="round" stroke-miterlimit="10" stroke-width=".5" d="M147.36328 372.79688l-6.72656 2.02343"/></g><path fill="none" stroke="#000" stroke-linecap="round" stroke-linejoin="round" stroke-miterlimit="10" stroke-width=".5" d="M147.36328 372.79688l1.73047 1.74218m-2.70703-1.44922l1.72656 1.7422m12.6289-1.79688l-6.85546 1.54687m6.85547-1.54687l1.60156 1.85937m-2.59766-1.63281l1.59766 1.85937m12.6914-2.18359l-6.80859 1.74219m6.8086-1.74219l1.65234 1.8125m-2.64453-1.5586l1.65234 1.8125m12.4961-2.53906l-6.4922 2.6875m6.4922-2.6875l1.89453 1.5625m-2.83985-1.17187l1.89453 1.5625m-2.83984-1.17188l1.89453 1.5625M200.6797 373l-6.83985 1.61719M200.6797 373l1.6211 1.84375m-2.6172-1.60938l.8125.92188m12.20313 2.44922l-4.25-5.59375m4.25 5.59375l-1.02734 2.23047m15.5078-3.79297l-6.57812-2.46875m6.57813 2.46875l.32031 2.4336m12.9375-2.28907l-6.46484-2.76172m6.46484 2.76172l.20703 2.44531m-1.14844-2.84765l.20703 2.4453m14.03907-2.02343l-6.44531-2.80078m6.4453 2.80078l.19532 2.44922m-1.13281-2.85547L253 377.2461m-1.13281-2.85156l.09765 1.22266m15.28516-.98438l-6.82813-1.64844m6.82813 1.64844l.61328 2.375m-1.60547-2.61328l.60938 2.375m-1.60547-2.61719l.3086 1.1875m15.09374-1.5703l-7.02734.07812m7.02734-.07813l1.17578 2.15235m-2.19921-2.14063l1.17578 2.15234m-2.19532-2.14062l.58594 1.07422m14.73047-1.60156l-6.9414 1.08593m6.9414-1.08594l1.47266 1.96094m-2.48438-1.80469l1.47266 1.96485m-2.48047-1.80469l1.47266 1.96094m13.82812-2.45313l-6.8789 1.4375m6.8789-1.4375l1.57422 1.88282m-2.57422-1.67579l1.57031 1.88672m-2.57031-1.67578l.78516.9414m14.35547-1.9414l-6.52735 2.60156m6.52735-2.60156l1.87109 1.58594m-2.82031-1.20703l1.87109 1.58594m-2.82031-1.20704l.9336.79297m13.98437-2.1328l-5.9336 3.76562m5.9336-3.76563l2.1328 1.21094m-2.99608-.66406l2.1328 1.21484m12.20704-1.48047l-6.25781 3.20313m6.2578-3.20313l2.01173 1.40235m-2.92188-.9375l2.01172 1.40625m12.375-1.4961l-6.58203 2.45313m6.58203-2.45313l1.83594 1.6289m-2.79297-1.27343l1.83594 1.6289m12.41406-2.05077l-6.53516 2.58203m6.53516-2.58204l1.86719 1.59375m-2.82031-1.21484l1.86718 1.58985m12.05469-2.62891l-5.84375 3.90625m5.84375-3.90625l2.16016 1.16015m-3.01172-.59375l2.16015 1.16016m11.47657-2.34375l-4.78516 5.14063m4.78516-5.14063l2.37109.63281m-3.0664.11329l2.37109.6328m11.35156-1.62109l-4.21094 5.625m4.21094-5.625l2.42578.375m-3.03906.44141l2.42578.3789m11.20703-1.39452l-3.6211 6.02343m3.6211-6.02344l2.45313.12891m-2.97657.7461l1.22266.0664m12.3164-1.10156l-3.01952 6.34375m3.01953-6.34375l2.44922-.10938M438 371.5586l1.22656-.05468m12.42188-.91797l-2.80078 6.44531m2.80078-6.44531l2.44531-.19531m-2.85547 1.1328l1.22266-.09765m14.26953.86328l-6.33594 3.03906"/><g clip-path="url(#aj)"><path fill="none" stroke="#000" stroke-linecap="round" stroke-linejoin="round" stroke-miterlimit="10" stroke-width=".5" d="M466.73047 372.28906l1.97656 1.45703"/></g><path fill="none" stroke="#000" stroke-linecap="round" stroke-linejoin="round" stroke-miterlimit="10" stroke-width=".5" d="M465.8086 372.73047l.98827.73047"/><g clip-path="url(#ak)"><path fill="none" stroke="#000" stroke-linecap="round" stroke-linejoin="round" stroke-miterlimit="10" stroke-width=".5" d="M147.36328 359.47266l-6.72656 2.03906"/></g><path fill="none" stroke="#000" stroke-linecap="round" stroke-linejoin="round" stroke-miterlimit="10" stroke-width=".5" d="M147.36328 359.47266l1.73047 1.73828m-2.71094-1.4414l1.73438 1.73827m12.46484-2.30469l-6.53516 2.57813m6.53516-2.57813l1.86719 1.59375m-2.8164-1.21875l1.86718 1.59375m12.45703-1.8125l-6.65234 2.26954m6.65234-2.26954l1.78906 1.67579m-2.7578-1.34766l1.78905 1.67969m12.35547-2.35547l-6.375 2.96094m6.375-2.96094l1.95703 1.48047m-2.88672-1.04688l1.95704 1.47656m-2.88282-1.04687l.98047.73828m14.36328-1.14844l-6.71875 2.0547m6.71875-2.0547l1.73438 1.73438m-2.71484-1.4336L201.3789 361.5m11.80468 1.34766l-5.21875-4.70704m5.21875 4.70704l-.59375 2.3789m-.16406-3.0664l-.29687 1.1914m14.76562-1.03906l-6.01172-3.64063m6.01172 3.64063l-.13281 2.44922m-.73828-2.98047l-.07031 1.22656m14.26953-.71484l-6.03516-3.60156m6.03516 3.60156l-.1211 2.45312m-.75781-2.97656l-.1211 2.45313m-.7578-2.97657l-.0586 1.22657m15.25-.39454l-6.27344-3.16796m6.27344 3.16796l.05469 2.45313m-.96485-2.91406l.05078 2.45312m-.96484-2.91406l.02734 1.22656m15.32813-.83984l-6.70313-2.09766m6.70313 2.09766l.45313 2.41015m-1.42579-2.71484l.44922 2.41016m13.9961-2.97656l-7.01954-.35938m7.01954.35938l1.03906 2.22656m-2.0625-2.27735l1.03906 2.22266m-2.0586-2.27344l.51954 1.10938M293.94532 360l-6.95704.98828M293.94531 360l1.44531 1.98438m-2.45703-1.83985l1.44532 1.98047m-2.45704-1.83984l.71875.99218m14.54688-1.65234l-6.8125 1.73438m6.8125-1.73438l1.64844 1.8164m-2.64063-1.5625l1.64844 1.81641m-2.64063-1.5625l.82813.90625m14.2461-2.03515l-6.36329 2.97656m6.36328-2.97656l1.96094 1.47265m-2.88672-1.03906l1.96094 1.47266m-2.88672-1.03907l.98047.73829m13.90625-2.09375l-5.80469 3.95703m5.80469-3.95704l2.17187 1.14063m-3.01562-.5664l2.17187 1.14062m-3.01562-.5664l1.08594.5703m13.92968-1.70312l-5.82812 3.92188m5.82812-3.92188l2.16407 1.15625m-3.01172-.58594l2.16406 1.15625m12.45313-.76172l-6.73829 1.9961m6.73829-1.9961l1.71875 1.7461m-2.69922-1.45703l.85937.875m13.45703-1.09766l-6.77734 1.85938m6.77734-1.85938l1.6836 1.78516m-2.67188-1.51563l1.6836 1.78516m12.36718-2.70313l-6.27734 3.16016m6.27734-3.16016l2.00391 1.41797m-2.91797-.96094l2.0039 1.41797m-2.91406-.95703l1 .71094m13.37891-2.63672l-4.7539 5.17188m4.7539-5.17188l2.375.61719m-3.0664.13672l2.375.61718m10.92578-1.875l-3.34375 6.1797m3.34375-6.1797l2.45312.01954m-2.9375.8789l2.45313.01953m11.14062-1.01953l-2.9336 6.38672m2.9336-6.38672l2.45313-.14062m-2.87891 1.0703l2.44922-.14452m11.19531-.82813l-2.73828 6.47266m2.73828-6.47266l2.4414-.21875m-2.83984 1.16016l2.44532-.21875m11.1289-.77735l-2.46094 6.58204m2.46094-6.58204l2.4336-.3203m-2.79297 1.27734L452.33594 358m13.375-.28516l-4.29688 5.5586"/><g clip-path="url(#al)"><path fill="none" stroke="#000" stroke-linecap="round" stroke-linejoin="round" stroke-miterlimit="10" stroke-width=".5" d="M465.71094 357.71484l2.41797.41016"/></g><path fill="none" stroke="#000" stroke-linecap="round" stroke-linejoin="round" stroke-miterlimit="10" stroke-width=".5" d="M465.08594 358.52344l1.20703.20703"/><g clip-path="url(#am)"><path fill="none" stroke="#000" stroke-linecap="round" stroke-linejoin="round" stroke-miterlimit="10" stroke-width=".5" d="M147.32422 346.03906l-6.64844 2.28125"/></g><path fill="none" stroke="#000" stroke-linecap="round" stroke-linejoin="round" stroke-miterlimit="10" stroke-width=".5" d="M147.32422 346.03906l1.79297 1.67188m-2.76172-1.33985l1.79297 1.67188m12.39844-2.2461l-6.46094 2.76172m6.46094-2.76171l1.91015 1.53906m-2.85156-1.13672l1.91016 1.53906m-2.85157-1.13672l.95703.76953m14.06641-1.92187l-6.11719 3.45703m6.11719-3.45703l2.07031 1.3164m-2.96094-.8125l2.07032 1.31641m-2.95703-.8164l1.03125.66015m14.16797-1.46094l-6.32813 3.0547m6.32813-3.0547l1.98046 1.44922m-2.90234-1.00781l1.98047 1.45313m-2.89844-1.00782l.98828.72656m14.36719-1.09765l-6.73047 2.01953m6.73047-2.01953l1.72656 1.7461m-2.70312-1.45313l1.72265 1.7461m-2.70312-1.44923l.86328.8711m14.10547 1.26953l-6.125-3.4414m6.125 3.4414l-.05469 2.45312m-.83594-2.95312l-.05468 2.45312m-.83594-2.95312l-.05469 2.45312m14.96484-1.15625l-5.75-4.03515m5.75 4.03515l-.30078 2.4375m-.53515-3.02344l-.30078 2.4336m-.53516-3.01953l-.30078 2.4336m-.53906-3.02345l-.14844 1.21875m16.03516.45704l-5.8711-3.86329m5.8711 3.86329l-.23047 2.4453m-.625-3.0078l-.23047 2.4453m-.6211-3.0078l-.23047 2.4453m15.55079-1.87109l-6.46485-2.7578m6.46485 2.7578l.20703 2.44532m-1.14844-2.84766l.20703 2.44531m-1.14844-2.84765l.21094 2.4453m15.10547-1.96483l-6.70313-2.11329m6.70313 2.11329l.44531 2.41406m-1.42187-2.72266l.44922 2.41406m-1.42188-2.71875l.22266 1.20313m15.16015-1.10938l-6.9414-1.07421m6.9414 1.07421l.8086 2.31641m-1.8164-2.47266l.80468 2.31641m13.50781-3.3164l-6.91797 1.23827m6.91797-1.23828l1.51563 1.9297m-2.52344-1.75l1.51562 1.92968m12.75391-2.34375l-6.8164 1.70703m6.8164-1.70703l1.64453 1.82422m-2.63281-1.57422l1.64062 1.82031m-2.6328-1.57422l.8203.91406m14.42188-1.60156l-6.70703 2.08985m6.70703-2.08985l1.7461 1.72656m-2.72266-1.42187l1.74609 1.72656m11.82031-3.3164l-5.25781 4.66015m5.25781-4.66015l2.30078.85546m-3.0664-.17578l2.30078.85547m11.85156-1.45312l-5.40234 4.4961m5.40234-4.4961l2.27344.92969m-3.0586-.27344l2.27344.92578m12.25-.9414l-6.2461 3.21484m6.2461-3.21485l2.01563 1.39844m11.51953-.8711l-6.6875 2.16407m6.6875-2.16406l1.76172 1.70312m-2.73438-1.39062l.88282.85546m12.98437-2.03515l-5.84766 3.89844m5.84766-3.89844l2.16016 1.16406m-3.01172-.59765l2.16015 1.16406m11.72657-2.10156l-5.28516 4.63671m5.28516-4.63671l2.29297.87109m-3.0625-.19531l2.29296.86718m11.14844-2.11328l-4 5.77735m4-5.77735l2.4375.28906m-3.01953.55079l2.4375.28906m10.98828-1.40235l-3.05469 6.32813m3.0547-6.32813l2.45312-.09765m-2.89844 1.01562l2.45312-.09375m11.23047-.86328l-2.90234 6.40235m2.90234-6.40235l2.44922-.15234m-2.8711 1.08594l1.22266-.07813m13.10938-.51172l-4.09375 5.71485m4.09375-5.71485l2.4336.32813m-3.02735.5039l1.21484.16407m13.59766-.04688l-5.89844 3.82031"/><g clip-path="url(#an)"><path fill="none" stroke="#000" stroke-linecap="round" stroke-linejoin="round" stroke-miterlimit="10" stroke-width=".5" d="M466.51172 345.26953l2.14453 1.1914"/></g><path fill="none" stroke="#000" stroke-linecap="round" stroke-linejoin="round" stroke-miterlimit="10" stroke-width=".5" d="M465.65234 345.82422l1.07422.59375"/><g clip-path="url(#ao)"><path fill="none" stroke="#000" stroke-linecap="round" stroke-linejoin="round" stroke-miterlimit="10" stroke-width=".5" d="M141.22656 336.01953l5.54688-4.3125"/></g><path fill="none" stroke="#000" stroke-linecap="round" stroke-linejoin="round" stroke-miterlimit="10" stroke-width=".5" d="M160.4336 332.2461l-6.23829 3.23437m6.23828-3.23438l2.01953 1.39063m11.1875-1.58594l-6.01953 3.625m6.01953-3.625l2.10547 1.26172m-2.98047-.73438l2.10157 1.26172m-2.97656-.73437l1.05078.63281M187 332.12891l-6.11328 3.46484M187 332.12891l2.07422 1.3203m-2.96094-.8164l2.07031 1.32031m-2.96093-.8125l2.0703 1.31641m13.42579-1.21875l-6.91406 1.25m6.91406-1.25l1.51953 1.92578m-2.52734-1.7461l1.51953 1.92579m-2.52344-1.74219l.75781.96094m14.51953.14844l-6.8203-1.69531m6.8203 1.6953l.59375 2.38282m-1.58593-2.6289l.59375 2.3828M212 334.21876l.59375 2.3789m14.55078-1.40624l-6.50781-2.65625m6.50781 2.65625l.2461 2.4414m-1.19532-2.82812l.25 2.4414m-1.19531-2.82812l.25 2.4414m-1.19531-2.82812l.125 1.22266m15.84765.3125l-6.14453-3.40625m6.14453 3.40625l-.03906 2.45312m-.85547-2.94922l-.03906 2.45313m-.85156-2.94922l-.04297 2.45312m-.85156-2.94921l-.02344 1.22656m16.01953.26562l-6.14453-3.41406m6.14453 3.41406l-.04688 2.45313m-.84765-2.94922l-.04688 2.45312m-.84765-2.94921l-.04688 2.45312m15.25-1.66016l-6.34765-3.01562m6.34765 3.01562l.11328 2.44922m-1.03515-2.88672l.10937 2.44922m-1.03125-2.89062l.05469 1.22656m15.33594-.99219L273.74609 333m6.8086 1.72656l.58594 2.38281m-1.57422-2.6328l.58203 2.3828m13.82031-2.70703l-7.0039-.57812m7.0039.57812l.96875 2.25391m-1.98828-2.33984l.96875 2.2539m13.33594-2.99219l-6.94532 1.07032m6.94532-1.07031l1.46875 1.96875m-2.48047-1.8125l1.46875 1.96484m12.4414-3.32031l-6.11328 3.46875m6.11328-3.46875l2.07032 1.3164m-2.96094-.8125l2.07031 1.3164m11.52735-2.60546l-4.89454 5.03906m4.89454-5.03906l2.35546.67969m-3.0703.05078l1.17968.34375m12.69922-1.21485l-4.59375 5.32032m4.59375-5.32031l2.39062.54687m-3.0586.22656l1.19532.27344M360 331.96875l-5.91797 3.78906m5.0586-3.23828l1.0664.60156m13.05078-1.24218l-5.80078 3.96875m5.80078-3.96875l2.17188 1.13671m10.6875-1.67578l-4.89063 5.04688m4.89063-5.04688l2.35547.6797m-3.06641.05468l2.35547.67969m10.91797-1.96875l-3.38672 6.15625m3.38672-6.15625l2.45312.03515m-2.94531.85938l2.45313.03515m11.30078-.95703l-3.28125 6.21094m3.28125-6.21094l2.45703-.00781m-2.9336.91016l2.45313-.00782m12.69531.375l-5.99219 3.67188m5.9922-3.67188l2.11327 1.2461m11.28907-1.09375l-6.16797 3.36719m6.16797-3.3672l2.05078 1.34766m11.3125-1.2578l-6.26172 3.1875m6.26172-3.1875l2.0078 1.40624m-2.92187-.9414l2.01172 1.40625m12.13282-2.02735l-6.09375 3.5"/><g clip-path="url(#ap)"><path fill="none" stroke="#000" stroke-linecap="round" stroke-linejoin="round" stroke-miterlimit="10" stroke-width=".5" d="M466.60938 332.11328l2.07812 1.30469"/></g><g clip-path="url(#aq)"><path fill="none" stroke="#000" stroke-linecap="round" stroke-linejoin="round" stroke-miterlimit="10" stroke-width=".5" d="M465.72266 332.625l2.07812 1.30469"/></g><g clip-path="url(#ar)"><path fill="none" stroke="#000" stroke-linecap="round" stroke-linejoin="round" stroke-miterlimit="10" stroke-width=".5" d="M145.47266 317.35938l-2.94532 6.3789"/></g><path fill="none" stroke="#000" stroke-linecap="round" stroke-linejoin="round" stroke-miterlimit="10" stroke-width=".5" d="M145.04297 318.28516l1.22656-.06641m8.76953 5.00781l4.55078-5.35547m-4.55078 5.35547l-2.39453-.52344m21.42969-1.46875l-6.89063-1.375m5.89063 1.17579l.35156 1.17578m13.0039-4.14844l-4.96874 4.96875m4.96875-4.96875l2.34765.71875m-3.0703.0039l2.34765.71876m-3.07031.0039l1.17187.35938m14.3125-.75l-6.41797 2.86328m6.41797-2.86328l1.9336 1.50781m-2.8672-1.09375l1.9336 1.51172m-2.86719-1.09375l.96875.7539m14.48438.33985l-6.95703-.98828m6.95703.98828l.83594 2.30469m-1.84766-2.44922l.83594 2.30469m13.23047-1.25l-6.44141-2.8086m6.4414 2.8086l.19141 2.4453m-1.125-2.85546l.1875 2.44531m-1.125-2.85156l.09375 1.22265m15.1836-.6328l-6.6211-2.35938m6.6211 2.35937l.35546 2.42969m-1.3203-2.76953l.35937 2.42578m-1.32032-2.76953l.17578 1.21094m14.90625-.15235l-6.30468-3.10547m6.30469 3.10547l.07812 2.45313m-.9961-2.90625l.07813 2.45312m-.99219-2.90625l.03516 1.22656m15.1289-.35156l-6.33593-3.04297m6.33594 3.04297l.10156 2.44922m-1.02344-2.89453l.10156 2.45313m-1.02343-2.89454l.05078 1.22657m15.28906-.8047l-6.69922-2.11718m6.69922 2.11719l.44531 2.41406m-1.41797-2.72265l.44532 2.41406m14.0039-3.08985l-7.02344-.14843m7.02344.14843l1.10938 2.19141m-2.1289-2.21094l1.10546 2.1914m12.92969-3.67187l-6.42188 2.85547m6.42188-2.85547l1.9336 1.51172m-2.8672-1.09765l1.9297 1.51171m11.66015-2.91406l-5.10547 4.82813m5.10547-4.82813l2.32812.78516m-3.07031-.08203l2.32422.78515m11.51953-1.6953l-4.67969 5.24218m4.67969-5.24219l2.38281.58203m-3.0625.17969l1.1914.29297m12.84376-1.01563l-4.76172 5.16797m4.76172-5.16797l2.375.6211m-3.0664.1289l1.1875.3125m12.79296-1.08984l-4.70703 5.21875m4.70703-5.21875l2.3789.59766m11.09766-.44141L367.83984 323m5.03125-4.90625l2.33985.75m11.0039-.71875l-5.08593 4.84766m5.08593-4.84766l2.32813.77344m-3.0664-.07031l2.32812.77343m10.58984-2.27344l-2.8164 6.4375m2.8164-6.4375l2.44531-.1875m-2.85547 1.125l2.44532-.1875m10.72265-.9375l-1.70312 6.81641m1.70312-6.8164l2.38282-.59375m-2.62891 1.58593l2.3789-.59375m-2.6289 1.58594l1.1914-.29688m12.5-1.71875l-1.46093 6.875m1.46094-6.875l2.35937-.67578m-2.57031 1.67579l1.17578-.33594m11.85547 6.28125l-.47266-7.01172m.47266 7.01172l-2.08594 1.29297m17.6211-7.3086l-4.91407 5.01953m4.91406-5.01953l2.35547.6914m10.83594-.80858l-4.66406 5.2539"/><g clip-path="url(#as)"><path fill="none" stroke="#000" stroke-linecap="round" stroke-linejoin="round" stroke-miterlimit="10" stroke-width=".5" d="M465.89453 317.92188l2.38672.57812"/></g><path fill="none" stroke="#000" stroke-linecap="round" stroke-linejoin="round" stroke-miterlimit="10" stroke-width=".5" d="M465.21484 318.6836l2.38672.57812m-3.0664.1875l1.1953.28906"/><path fill="#00f" fill-rule="evenodd" d="M392.67578 467.64844h8.6211V457.5039h-8.6211v10.14453"/><path fill="azure" fill-rule="evenodd" d="M394.51172 459.33594h.83203v2.82422h3.28516v-2.82422h.83203v6.48047h-.83203v-2.91797h-3.28516v2.91797h-.83203v-6.48047"/><path fill="#00f" fill-rule="evenodd" d="M201.82813 458.77344h8.61718V448.625h-8.61719v10.14844"/><path fill="azure" fill-rule="evenodd" d="M203.66016 450.45703h.83203v2.82422h3.28906v-2.82422h.83203v6.48047h-.83203v-2.91406h-3.28906v2.91406h-.83203v-6.48047"/><path fill="#ff3030" fill-rule="evenodd" d="M317.91797 436.57813h7.69531v-10.14454h-7.69531v10.14454"/><path fill="azure" fill-rule="evenodd" d="M319.7539 428.26563h.83204v5.74218h3.1914v.73828h-4.02343v-6.48046"/><path fill="#00f" fill-rule="evenodd" d="M383.80078 432.14063h8.61719v-10.14454h-8.61719v10.14454"/><path fill="azure" fill-rule="evenodd" d="M385.63281 423.82813h.83203v2.82421h3.28907v-2.82421h.83203v6.48046h-.83203v-2.91796h-3.28907v2.91796h-.83203v-6.48046"/><path fill="#ff3030" fill-rule="evenodd" d="M184.76953 423.26563h7.6914v-10.14844h-7.6914v10.14844"/><path fill="azure" fill-rule="evenodd" d="M186.60156 414.95313h.83203v5.73828h3.19532v.74218h-4.02735v-6.48046"/><path fill="#00f" fill-rule="evenodd" d="M224.01953 409.94922h8.61719v-10.14453h-8.61719v10.14453"/><path fill="azure" fill-rule="evenodd" d="M225.85156 401.63672h.83594v2.82422h3.28516v-2.82422h.83203v6.48047h-.83203v-2.91797h-3.28516v2.91797h-.83594v-6.48047"/><path fill="#ff3030" fill-rule="evenodd" d="M206.96094 370.0039h7.6914v-10.14452h-7.6914v10.14453"/><path fill="azure" fill-rule="evenodd" d="M208.79297 361.6914h.83203v5.73829h3.19531v.74219h-4.02734v-6.48047"/><path fill="#ffffe0" fill-rule="evenodd" d="M328.42969 391.02344h22.17969v-10.1914h-22.1797v10.1914"/><path fill-rule="evenodd" d="M331.92969 382.66406h.50781v6.29688h-.78516v-4.48828h-1.39062v-.5586l.5586-.0625.2539-.05469.23047-.08984.20312-.14062.17188-.21094.14453-.29297.10547-.39844m4.8125 0l.23047.01953.21875.0586.20703.08594.19531.12109.1836.15234.17187.17578.30469.41797.24218.49219.1797.54688.10937.58203.03906.58984-.03906.59375-.10938.58203-.17969.55469-.24218.5039-.3047.42579-.17187.17968-.18359.15235-.19531.125-.20703.09375-.21875.05469-.23047.01953-.23047-.01954-.21875-.05468-.20703-.09375-.19531-.125-.1836-.15235-.17187-.17968-.3047-.42579-.24218-.5039-.17969-.55469-.10937-.58203-.03906-.59375h.83203l.02734.5625.08203.5039.1289.44532.16017.375.1914.30078.21094.21875.22265.13672.22657.04687.22656-.04687.22266-.13672.21093-.21875.19141-.30078.16016-.375.1289-.44531.07813-.50391.03125-.5625-.03125-.5625-.07813-.5-.1289-.4336-.16016-.36718-.1914-.29297-.21094-.21484-.22266-.12891-.22656-.04688-.22656.04688-.22266.1289-.21094.21485-.1914.29297-.16016.36719-.1289.43359-.08204.5-.02734.5625h-.83203l.03906-.58984.10937-.58204.1797-.54687.24218-.49219.30469-.41797.17187-.17578.1836-.15234.1953-.1211.20704-.08593.21875-.0586.23047-.01953m5.08984 0h.51172v6.29688h-.78906v-4.48828h-1.38672v-.5586l.5586-.0625.2539-.05469.22656-.08984.20313-.14062.17578-.21094.14062-.29297.10547-.39844m2.82422 2.17578h.78906l.01953-.3164.0586-.28516.09765-.2539.14063-.21485.17969-.17187.22656-.12891.26172-.08203.3086-.02735.23827.02344.22266.0625.20703.10156.17969.13672.14844.17188.11328.20703.0703.23828.02345.26172-.01954.26953-.0664.22266-.10938.19531-.15625.16797-.19921.16406-.25.16406-.63282.39063-.53515.3125-.4375.3164-.34766.32422-.26563.33594-.1875.35156-.125.3711-.0703.39453-.01954.41797h4.21094v-.74219h-3.33203l.08203-.28125.11328-.23828.14844-.20313.1875-.17968.23047-.17188.27734-.17578.71875-.41406.41406-.20703.34766-.23047.28125-.25.21875-.26953.16406-.27735.10938-.28515.0664-.28125.01953-.28125-.04296-.38672-.1211-.34766-.1875-.30469-.25-.26562-.30469-.21094-.34375-.16015-.3828-.09766-.40626-.03516-.4336.03516-.39843.09765-.35547.16797-.30469.23438L345 383.5l-.1875.375-.11719.44922-.03906.51562"/><path fill="#ffffe0" fill-rule="evenodd" d="M201.84766 343.60547h22.17968v-10.1914h-22.17968v10.1914"/><path fill-rule="evenodd" d="M205.34375 335.2461h.51172v6.29687h-.78906v-4.49219h-1.38672v-.55469l.5586-.0664.2539-.05078.22656-.08985.20313-.14453.17578-.20703.14062-.29688.10547-.39453m4.8164 0l.22657.01954.21875.05468.21094.08985.1953.12109.1836.14844.17188.17578.30078.42187.2461.4922.17968.54687.10938.57812.03906.59375-.03906.58985-.10938.58593-.17969.55469-.2461.5-.30077.42969-.17188.17969-.1836.15234-.1953.125-.21094.08984-.21875.0586-.22656.01953-.23047-.01953-.21875-.0586-.20703-.08984-.19922-.125-.1836-.15235-.17187-.17968-.30078-.42969-.24219-.5-.17969-.55469-.11328-.58594-.03906-.58984h.83594l.02734.5625.08203.5039.125.44532.16406.3711.19141.30077.21094.22266.22265.13672.22657.04688.22656-.04688.22266-.13672.21093-.22265.1875-.30079.16406-.37109.125-.44531.08204-.5039.03125-.5625-.03125-.5625-.08203-.5-.125-.4375-.16407-.36329-.1875-.29297-.21094-.21484-.22265-.13281-.22656-.04297-.22657.04296-.22265.13282-.21094.21484-.1914.29297-.16407.36328-.125.4375-.08203.5-.02734.5625h-.83594l.03906-.59375.11328-.57812.17969-.54688.24219-.49219.30078-.42187.17187-.17578.1836-.14844.19922-.1211.20703-.08984.21875-.05469.23047-.01953m5.08984 0h.50781v6.29688h-.78515v-4.49219h-1.38672v-.55469l.5586-.0664.25-.05078.23046-.08985.20313-.14453.17578-.20703.14062-.29688.10547-.39453m2.82422 2.17579h.78516l.01953-.31641.0625-.28516.09765-.2539.14063-.21485.17969-.17578.22265-.1289.26563-.07813.30859-.02734.23828.01953.22266.0625.20312.10156.17969.14063.14844.17187.11328.20703.07422.23438.02344.26562-.01954.26953-.0664.22266-.10938.1914-.15625.17188-.20312.16406-.2461.16406-.6328.39063-.53907.3125-.4375.3164-.34375.32423-.26563.33593-.1914.35156-.125.3711-.0664.39062-.02345.42188h4.21485v-.74219h-3.33594l.08594-.28515.11328-.23438.14844-.20313.1875-.17968.23047-.17188.27734-.17578.71875-.41797.41406-.20312.34766-.23047.27734-.2539.22266-.26563.16015-.27735.11328-.28515.0625-.28516.01954-.28125-.03907-.38281-.12109-.34766-.1914-.3086-.25-.26171-.30079-.21484-.34375-.15625-.38281-.09766-.40625-.03516-.4336.03125-.39843.10157-.35547.16406-.30469.23437-.25.3047-.1836.375-.11718.4453-.03906.51954"/><path fill="#ffffe0" fill-rule="evenodd" d="M319.55078 341.1875h22.1836v-10.1914h-22.1836v10.1914"/><path fill-rule="evenodd" d="M323.05078 332.82813h.51172v6.29687h-.78906v-4.49219h-1.38672v-.55469l.5586-.0664.25-.05078.23046-.08985.20313-.14062.17578-.21094.14062-.29687.10547-.39454m4.8125 0l.23047.01954.21875.05468.21094.08985.19531.1211.1836.14843.17187.17578.30078.42188.24219.49218.17969.54688.11328.57812.03906.59375-.03906.58985-.11329.58593-.17968.5547-.24219.5-.30078.42968-.17188.17969-.18359.15234-.19531.125-.21094.08984-.21875.0586-.23047.01953-.22656-.01953-.21875-.0586-.21094-.08984-.19531-.125-.1836-.15234-.17187-.1797-.30078-.42968-.24219-.5-.17969-.55469-.11328-.58593-.03906-.58985h.83594l.02734.5625.08203.5039.125.44532.16406.375.19141.29688.21094.22265.22265.13672.22266.04688.22656-.04688.22266-.13672.21094-.22265.1914-.29688.16407-.375.125-.44531.08203-.5039.02734-.5625-.02734-.5625-.08203-.5-.125-.4375-.16407-.36329-.1914-.29297-.21094-.21484-.22266-.13281-.22656-.04297-.22265.04297-.22266.1328-.21094.21485-.1914.29297-.16407.36328-.125.4375-.08203.5-.02734.5625h-.83594l.03906-.59375.11328-.57812.1797-.54688.24218-.49219.30078-.42187.17188-.17578.18359-.14844.19531-.1211.21094-.08984.21875-.05468.22656-.01954m5.09375 0h.50781v6.29688h-.78515v-4.49219h-1.39063v-.55469l.5625-.0664.25-.05078.23047-.08985.20313-.14062.17578-.21094.14062-.29687.10547-.39454m6.80469 1.6211h-.78906l-.05079-.21094-.08203-.1875-.10546-.16015-.12891-.12891-.14844-.10547-.16015-.07422-.16797-.04297-.17188-.01562-.32812.03906-.28907.1211-.24609.1953-.20313.26954-.16015.33594-.11719.40625-.07031.46484-.02344.52734.1914-.20312.1836-.15625.1875-.125.1836-.08594.1875-.0625.1953-.03516.39844-.02343.3086.02734.32031.09375.3164.15625.29298.21875.2578.28516.19923.34765.07031.20313.05469.21484.02734.23438.0039.2539-.78515.04688-.02734-.26172-.07813-.25-.1211-.23438-.16015-.21093-.19531-.17579-.21875-.13671-.24219-.08985-.2539-.03125-.25391.03125-.24219.08985-.21875.13671-.1914.17579-.16407.21093-.12109.23438-.07813.25-.02734.26172.02735.25781.07812.25.1211.23438.16406.21093.1914.17969.21875.13672.24219.08594.2539.03125.25391-.03125.24219-.08594.21875-.13672.19531-.17969.16016-.21094.1211-.23437.07812-.25.02734-.25781.78516-.04688-.03125.3711-.08985.37109-.16015.35938-.22266.32812-.28906.28125-.16797.1211-.1914.10156-.20313.08203-.22656.0625-.23829.03906-.26171.01172-.28125-.01563-.26172-.04687-.23828-.07813-.21485-.10546-.19531-.12891-.17188-.15625-.15625-.17969-.13671-.20312-.11329-.22266-.10156-.24219-.14453-.53515-.08594-.59375-.02734-.64063.03906-.74219.11328-.66406.1875-.57812.1211-.25391.13672-.23047.15234-.20703.16797-.1836.1875-.15624.20312-.12891.21875-.10156.23047-.07031.25-.04688.26172-.01563.36328.03516.33203.09375.29688.15235.25781.19921.21094.2422.16406.27343.11719.30078.0625.32422"/></g></defs><use xlink:href="#at"/></svg>