<svg xmlns="http://www.w3.org/2000/svg" role="img" xmlns:xlink="http://www.w3.org/1999/xlink" viewBox="142.45 309.95 326.84 171.84"><defs><clipPath id="a"><path d="M144 445h1v35.32813h-1zm0 0"/></clipPath><clipPath id="b"><path d="M144 311.67188h1V441h-1zm0 0"/></clipPath><clipPath id="c"><path d="M144 311.67188h324v168.65625H144zm0 0"/></clipPath><clipPath id="d"><path d="M467 311.67188h1v168.65625h-1zm0 0"/></clipPath><clipPath id="e"><path d="M144 479h4v1.32813h-4zm0 0"/></clipPath><clipPath id="f"><path d="M147 479h3v1.32813h-3zm0 0"/></clipPath><clipPath id="g"><path d="M153 479h9v1.32813h-9zm0 0"/></clipPath><clipPath id="h"><path d="M160 479h3v1.32813h-3zm0 0"/></clipPath><clipPath id="i"><path d="M166 479h9v1.32813h-9zm0 0"/></clipPath><clipPath id="j"><path d="M173 479h3v1.32813h-3zm0 0"/></clipPath><clipPath id="k"><path d="M180 479h8v1.32813h-8zm0 0"/></clipPath><clipPath id="l"><path d="M187 479h3v1.32813h-3zm0 0"/></clipPath><clipPath id="m"><path d="M193 479h8v1.32813h-8zm0 0"/></clipPath><clipPath id="n"><path d="M200 479h3v1.32813h-3zm0 0"/></clipPath><clipPath id="o"><path d="M206 479h9v1.32813h-9zm0 0"/></clipPath><clipPath id="p"><path d="M213 479h3v1.32813h-3zm0 0"/></clipPath><clipPath id="q"><path d="M220 478h8v2.32813h-8zm0 0"/></clipPath><clipPath id="r"><path d="M226 478h4v2.32813h-4zm0 0"/></clipPath><clipPath id="s"><path d="M233 478h8v2.32813h-8zm0 0"/></clipPath><clipPath id="t"><path d="M240 478h3v2.32813h-3zm0 0"/></clipPath><clipPath id="u"><path d="M247 478h7v2.32813h-7zm0 0"/></clipPath><clipPath id="v"><path d="M252 479h3v1.32813h-3zm0 0"/></clipPath><clipPath id="w"><path d="M260 478h7v2.32813h-7zm0 0"/></clipPath><clipPath id="x"><path d="M274 477h7v3.32813h-7zm0 0"/></clipPath><clipPath id="y"><path d="M288 477h5v3.32813h-5zm0 0"/></clipPath><clipPath id="z"><path d="M302 476h3v4.32813h-3zm0 0"/></clipPath><clipPath id="A"><path d="M316 476h2v4.32813h-2zm0 0"/></clipPath><clipPath id="B"><path d="M328 476h5v4.32813h-5zm0 0"/></clipPath><clipPath id="C"><path d="M341 477h5v3.32813h-5zm0 0"/></clipPath><clipPath id="D"><path d="M356 476h2v4.32813h-2zm0 0"/></clipPath><clipPath id="E"><path d="M368 477h5v3.32813h-5zm0 0"/></clipPath><clipPath id="F"><path d="M382 476h4v4.32813h-4zm0 0"/></clipPath><clipPath id="G"><path d="M396 476h2v4.32813h-2zm0 0"/></clipPath><clipPath id="H"><path d="M407 478h7v2.32813h-7zm0 0"/></clipPath><clipPath id="I"><path d="M420 477h7v3.32813h-7zm0 0"/></clipPath><clipPath id="J"><path d="M434 477h6v3.32813h-6zm0 0"/></clipPath><clipPath id="K"><path d="M447 478h7v2.32813h-7zm0 0"/></clipPath><clipPath id="L"><path d="M460 478h7v2.32813h-7zm0 0"/></clipPath><clipPath id="M"><path d="M144 466h4v2h-4zm0 0"/></clipPath><clipPath id="N"><path d="M466 465h2v2h-2zm0 0"/></clipPath><clipPath id="O"><path d="M144 453h4v2h-4zm0 0"/></clipPath><clipPath id="P"><path d="M466 451h2v3h-2zm0 0"/></clipPath><clipPath id="Q"><path d="M144 440h4v1h-4zm0 0"/></clipPath><clipPath id="R"><path d="M466 439h2v3h-2zm0 0"/></clipPath><clipPath id="S"><path d="M144 425h4v4h-4zm0 0"/></clipPath><clipPath id="T"><path d="M466 425h2v4h-2zm0 0"/></clipPath><clipPath id="U"><path d="M144 411h4v5h-4zm0 0"/></clipPath><clipPath id="V"><path d="M466 412h2v3h-2zm0 0"/></clipPath><clipPath id="W"><path d="M144 398h4v5h-4zm0 0"/></clipPath><clipPath id="X"><path d="M466 398h2v3h-2zm0 0"/></clipPath><clipPath id="Y"><path d="M144 384h4v6h-4zm0 0"/></clipPath><clipPath id="Z"><path d="M466 386h2v3h-2zm0 0"/></clipPath><clipPath id="aa"><path d="M144 370h3v7h-3zm0 0"/></clipPath><clipPath id="ab"><path d="M466 373h2v3h-2zm0 0"/></clipPath><clipPath id="ac"><path d="M144 357h2v7h-2zm0 0"/></clipPath><clipPath id="ad"><path d="M144 344h4v6h-4zm0 0"/></clipPath><clipPath id="ae"><path d="M466 345h2v3h-2zm0 0"/></clipPath><clipPath id="af"><path d="M144 331h3v6h-3zm0 0"/></clipPath><clipPath id="ag"><path d="M466 332h2v4h-2zm0 0"/></clipPath><clipPath id="ah"><path d="M144 318h4v5h-4zm0 0"/></clipPath><clipPath id="ai"><path d="M466 318h2v3h-2zm0 0"/></clipPath><g id="aj" clip-path="url(#clip1)"><path fill="#fff" fill-opacity="0" fill-rule="evenodd" d="M0 0h1000v1000H0zm0 0"/><path fill="#d3d3d3" fill-opacity="0" fill-rule="evenodd" d="M162.15234 355.86719l-.23437.29297.0586.23437.11718.17188.17578.23437.29297.34766.11328.0586.11719-.17188.0586-.23438.17577-.17578.46485-.17578h.69922l.23437.29297.28906.8164.0586.17579.17578.23046.35156.23438.69922.69922.17188.17578.23437.34765.23438.41016.28906.58203.41015.46485.23047.23437.23438.17578.11719.23047.17578.29297.17187 1.16406v.23438l.0586.28906.05859.11719.11719.11719.34765.41015.11719.17188.17578.17578.17578.23437.11719.17188.17188.35156.05859.23438.23437.40625.23438-.0586-.17578.17578-.0586.92969h-.58203l-.23437-.11328-.34766.11328-.11719.11719-.05859.29297-.0586.17578-.11718.17187-.46484.29297-.0586.23438-.0586.11328v.64453l.0586.17187v.41016l.0586.0586v.40624l.05859.40625.11719.17579.05859.05859.23047.64062-.0586.29297v.69922l-.05859.58203v.23438l-.0586.23047-.05468.35156v1.92187l.05469.1172h.42578l-.36719.11718-.02344.35156.89063 1.16797 1.74219.53906 1.33984.35938v.53906l.08984.8086.53516.71484 1.51953.26953.89063-.08594.08984 1.16406.53516.1797 1.16015-.1797 2.05469-.98437 1.16016-.36328 1.8789-.17578 1.69531-.1797-.17968.71876-1.51563.08594-1.25.08984-.80469.26953-1.07421.8086.26953.71875.53515.89843-.17968.625-.26563.8086.26563 1.07812.625.89844.80468.17969 1.25-.1797-.26562.72267.09766.5039.05468.29297v.17188l.0586.29296v.40625l.17578.1172.35156.11718h.40625l.29297-.17578.11328-.11719.0586-.11719.11718-.23047.0586-.17578.35156-.46484.23047-.17578.17578-.0586.17578.0586.0586.17578.11718.98828.05469.46875.0586.17188.11718.23437.17578.0586.8164.05859h.28907l.11719.23437.05859.40625.0586.35156v1.10547l.11718.29297.11719.34766.28906.69922.17578.35156.58203.7539.35157.17579.17187.0586.46875.23437.64063.46484.34765.23438.29297.17578.29297.05468.23047.0625.8164.34766.29297.17578.11328.17188.35157.35156.11719.17578.52343.64063v.28906l.0586.35156v.34766l.05859.35156.0586.28906.11718.0586.17188.05859h.17578l.58203.23437.17578.1172.17578.28905.17578.23438.11328.23437.29297.23047.11719.11719v.41016l.0586.05468.28906.23438.23437.11719.0586.11718.11718.17188.0586.11719.23047.23437.05859.17578.23437.0586.1172.05859-.1172.11328-.05859.11719v.11719l-.11719.29296-.11719.28907v.58203l.17579.11719.11718.05859.0586.11719.11719.11719.11328.05859.17578.34765.0586.35157.05858.40625v.17578l-.05859.17578-.11719.69922v.17187l.1172.17579.29296.29296h.40625l.17578.1172.11719.17187.11719.29296v.23438h-.52735l-.23047-.23438h-.23437l-.17578.0586-.0586.69922.0586.34765.11719.17579.17578.41015.11718.23047.28907.46875.17578.05469h.52344l.23437.0586.75781.64062.0586.29296v.23438l.05859.0586.23047.34765v.35156l-.11719.17188v.29297l.29297.28906.29297.17578.17187.0586.29297.17577.29297.1172.58203.40624.28906.23438.29297.17578.21875.16015.01563.01172.23047.17579.64062.52343.17578.23438.1172.17578.17577.17578.11328.17188v.64062l.1172.17578.46874.11719.58203.11719.23438.05859.23047.11328.29297.11719.11328.0586.58593.35156.28907.17187.17578.0625.17578.05469.17578.0586.69922.35155.28906.17579.23438.05468.28906.17578.23437.1172.64063.40624.29297.11719.17187.0586.23438.05859.41015.05859.23047.0586.23438.11718.0586.17188-.41017.17578.46875.0586.0586.29296.11328.23438.17578.05468.23438.0586.17578.05859.40625.11719.64062.23437.11719.17188.0586.23437v.17578l-.0586.1172-.0586.40624.23438.23438.11719.05859.34766.11719.64062.23047.17578.11718.28906.1172.17578.17577.23438.46485.58203 1.10546.17578.17579.34766.17578.17578.11719.35156.11718 1.04688.52344.23437.0586.46485.11327.29297.0586.46484.17578.75781.58203.23438.23438.34765.46484.17578.17578.28907.23438.8164.69921.29297.17579.28906.28906.29297.17578.29297.28906.69531.64063.17578.17578.29297.23437.28907.23438.46875.28906.64062.58203.34766.23438.23437.29297.34766.34765.35156.46485.9336.99218.34765.40625.11719.17579.23437.05859.11328.11719.64454.17578.23047.11328.23437.0586.29297.17577.23047.1172.9336.69921.40624.40625.23438.17578.40625.17578.23437.11719.8164.34766.34766.23437.23438.11719.29297.28906.23047.11719.7578.35156.35157.17188.23047.05859.29297.11719.23437.0586.8711.17577h.8164l.46875.23047.17188.0586.875.69921.46484.1172.29297.05858.17578.0586.23047.0586.46875.05859.34766.05859.35156.0586.40625.05859h.29297l.17187.0586v.23046l.17578.17578h.29297l.34766.0586.35156.05859.69922.11719h.64063l.46484-.23438.29297-.17578.17187-.11719.41016-.17187.28906-.17578.9336-.46485.46875-.29297.52343-.29296.46485-.17188.46484-.17578 1.05078-.46485.28906-.11718.41016-.11719.28906-.11719.52735-.17578 1.51562-.69922.58203-.34765.28907-.0586.29297-.0586.34765-.11718.875-.23047.35156-.11719h.11329l.23437-.05859.875-.23437.23438-.0586h.8125l.35156-.0586.8164-.11718.17188-.0586.35156-.05468.29297-.0586.23047-.05859.8164-.17578.17579-.0586h.34765l.23438-.05859.46484-.11718.75781-.17188.23438-.0586h.34765l.41016-.11718.28906-.0586 1.28516-.05859h.28906l.41016-.0586.23047-.05858h.17578l.875-.1172h.40625l.41015-.11718h.34766l.35156-.11328.8711-.0586h1.75l1.04687.28907.41016.11719.28906.11718.35156.11719.28907.11719 1.05078.17187.28906.0586h.29297l.29297.05859.17187.0586.41016.05859.17187.0586.1172.05858h.11718l.11719.0586.35156.0586h.11328l.41016.0664 1.92187.39453 1.92578.39453 1.51953.44922 1.69532.71875 2.14453.80469 1.60547-.71875 1.42968-.80469 1.16016-1.07813 1.25-.44921 3.03516-.71875 1.875-.35938 2.14453-1.34765 2.23437-1.25391 2.5-1.25781 1.69531-.44922 1.78516-.17969 1.16016-.26953.625.53906 1.33984-.26953.71485-.98828.98437-1.34375.44531-.17969.80469-.35937 1.875-.53907 1.78516-.44921 1.25-.26954 1.16015-.08984 1.69922-.08984 1.96094-.26954 1.25-.08984h.53906l.625-.08984h.89063l2.14453-.17969 2.41015-.17969 2.58985-.08984 1.69531.17969 1.60938.08984 1.42968.35938 1.16016.71875 1.875.98828 1.16015 1.52734.26563.71484.6289.08985.35548.89844.53515.53906.53516 1.52734 1.07422.35938h.53515l-.80469.53515.08985 1.70703.71484 2.69532.89063.80468.89453.98829.71484 1.2578 1.78516.53907 1.51953-.17969.35547 1.34375 1.60937-.80469.98047-.53906.26953.26953.31641-.21484.21875-.14453.80078.44922.44922-.35938h.35547l.53515-.26953.53907-.71875.53515-.26953.625-.98828 1.16016.44922.83984.3711 1.39454.61718 1.6953-.17969h1.60548l1.78515.08985.17969-1.70704.53516-1.34375.80468.26954.4922.84765.40233.40625-.08984.53906v.35938l.71485.44922.71093-.26953h1.42969l.35938.98828.4453 1.25781.71485 1.34375 1.25.6289 1.69531.62891.71485-.17969.17969-.53906.98046-.08984.44922.35937.08594 1.25782-.26563.6289-.53515.17969v.53906l.71484.98438.26563.53906.98437.98828.80078 1.07813-.26562.35937-.08985.89844-.625 2.33203-.35546 2.0664-.08985 1.79298-.17969.71875-.08984.53906v1.4375l-.98047 1.88281-.35937 1.70703-.53516.89844-.80469 1.16797-.26562.53906 2.05469 1.2539.08593.35938-.35546.53906-.08985-.17968v.80859l.08985 1.4375-.44532.71484-1.07422.09375-.26562.71485.53515.89844.8047.71875 1.16015.80859 1.33984.26953.44531.35938-.35546.44921-1.78907-.08984-1.25-.44922-.71484-.71875-.625-.08984-.17578 3.58984-.1875 1.3086h89.35937V311.70313h-55.26953v49.08203l.76172.125 3.28906.54296 2.02344 2.83594v2.7539l2.35156.33204 2.34766.33203h4.05078l-1.3789 4.16016-2.02344.70703-2.02344.70312-.54297.34375-2.59375 1.6172-.1875.11718-2.02344-2.07813-.73046-2.74218-2.67188-2.07813-1.375-3.5-.0664-.08203-1.95704-2.67188 2.75-1.41796v-49.08204H294.42187v91.41407l.1172.03125.1328.01172.07422.07421.10547.04688.08985.0586.08593.05859.08985.0586.29687.29687.0586.08984.03125.11719.02734.11719.01563.13671-.03125.1172-.0586.08983-.0586.08594-.04296.10547-.04688.10156-.02734.1211v.14453l.17578.26953.14844.14844.07422.08594.07422.07421.04296.10547.0625.08985.0586.08593.04297.10547.0586.08985.04687.10156.04296.10547.0586.08594.11719.17968.07421.07422.0625.08594.0586.08984.04297.10547.0586.08985.05858.08593.0625.08985.0586.08984.04297.10156.11719.17969.07421.07422.0586.08594.07422.07421.08984.0586.10547.04687h.14844l.1328-.01562.13282.01562.10156-.04687.07422-.07422.04688-.10156-.01563-.13281v-.14844l-.04687-.10547-.02735-.11719-.04687-.10156-.02735-.1211-.04296-.10156-.0625-.08984-.04297-.10156-.04297-.10547-.03125-.11719-.01563-.13281-.01171-.13672.08593-.0586.0586-.08593.12109-.03125.04297.10547.01562.1328v.1172l.0586.10156.0586.08984.08983.0586.14844.14843.0586.08985.04296.10547-.01171.10156.08593.0586.10547.04687.08594.0586.08984.05858.07422.07422-.11719.02735-.10546.04687-.08594.0586-.07422.07421-.0586.08985-.0625.08594-.02734.12109-.04687.10156-.04297.10547-.03125.11719-.01172.13281-.01563.13281v.14844l.02735.11719.04687.10547.04297.10156.0586.08984.07421.07422.08985.0586.07422.07421.08984.0586.0586.08984.04296.10547.04688.10156.11719.03125.1328.01563h.14845l.11718-.03125.10547.04297.04297.10547.04688.10156.02734.1211L299.5 410l.02734.11719.03125.1211.02735.11718.10547.04297.10156.04687.13281-.01562.14844.14844.0625.08593.07422.07422.07031.07422.08984.0625.10547.04297.10156.04297.1172.03125.13671.01562.11719-.03125.07422-.07422.02734-.11718-.01172-.13282-.03125-.12109-.02734-.11719.04297-.10547h.11719l.08984.0625.11719.02735h.14843l.13282.01562h.14843l.13282.01563.1328-.01563h.14845l.1328-.01562.13282-.01172.13672.01172.11719-.02735.13281-.01562.1914-.0586-.05859.17579-.01562.1328-.02735.1211-.01562.13281-.0586.08594-.1328.01563-.10548.04687-.10546.04297-.1172.03125-.11718.02735-.26563.03125h-.14843l-.13281.01562-.07422.07422.05859.08594.14844.14843.11719.1797.07421.0703.08985.0625.08984.0586.08594.0586.08984.05858.10156.04297.10547.0625.10547.04297.08594.0586.10547.04687.10156.04297.17969.11719.0586.08984-.04298.10156-.04687.10547.01562.13281.22266.22266.0586.08985.04296.10156.03125.1211.04297.10155.01563.13282.03125.11718.01171.13672.03125.11719.14844.14844.10156.04297.10547.04296.1172.03125.1328.01563.13672.01563h.11719l.11719-.03125.08984-.0586.04297-.10547.04688-.10156.04296-.10547.03125-.11719.01172-.1328v-.14845l-.01172-.1328-.01562-.13282-.03125-.11719-.04297-.10547-.04688-.10547-.04296-.10156-.04297-.10547-.01563-.13281.01563-.13281.02734-.11719.03125-.11719.02735-.1211.04687-.10155.08984-.0586.08594-.0625.07422-.07422.08984-.05859.22266-.22266.0586-.08593.07421-.07422.11719-.17969.0586-.08594v-.14844l-.07423-.07421-.10156-.04688-.10547-.04297-.10156-.04297-.0586-.08984-.04687-.10547-.02734-.11719.08984-.05859.11719-.03125.10156-.04297.17969-.11719.14844-.14843.01172-.13282-.01172-.10546-.08985-.0586-.1328.01563h-.14845l-.1328.01562-.13282-.01562-.1211-.03125-.08593-.0586-.07422-.07422-.0586-.08984-.0625-.08594-.11718-.17969-.0586-.08593.03125-.1211.08594-.05859.1211-.03125.05859-.08594v-.1211l-.03125-.11718-.0586-.08984-.05859-.08594-.04687-.10547-.02735-.11719-.01562-.1328.0586-.08985.07421-.07422.08984-.0586.1172-.17968.07421-.07422.0586-.08594.14843-.14844.1211-.03125.1328-.01562.13282.01562.07422.07422.04297.10547.01562.13281-.03125.1172-.11719.03124-.1328.01172-.14844.14844-.04297.10547-.04688.10156-.02734.1211-.03125.11718v.14844l.03125.11719.04297.10546.05859.08985.07422.07031.07422.07422.11719.03125.12109.02734.11719-.02734.1328-.01563h.1172l.08984.0586.07422.07422.04687.10546.0586.08594.10156.04688.13281.01562.10547.04297.08594.0586-.01172.10546-.07422.07422-.17969.11719-.05859.08984-.08984.0586-.07032.07422-.07421.07421-.0625.08985-.02735.11719-.01562.1328.01562.13282-.01562.13281v.14844l.01562.13281.02735.1172.03125.12108.07421.07422.08985.0586.08594.0586.08984.05858.11719.03125v.08594l-.10157.04688-.08984.0586-.26563.03124-.11718.02735h-.14844l-.10547.04296-.10156.04688-.0586.08984-.0625.23438-.01171.13281-.03125.1211-.01563.1328v.29298l-.01172.1328.01172.13673.01563.1328.1328.01563.13282.01172.1211.03125.08593.0586.07422.07421.04688.10547.04296.10157.01563.1328v.44532l-.01563.13281v.44532l.03125.26562.02735.11719.01562.13281.03125.11719.08594.21094.03125.26562v.14844l-.03125.11719-.02734.11718-.03125.1211-.02735.11719-.03125.11718-.03125.1211-.01171.1328-.01563.13282.08984.0586.1172-.03125.10155.01562.04688.10547-.03125.26562v.44141l-.04297.10547-.04688.10547-.04296.10156-.04297.10547-.0586.08594-.03125.12109-.04296.11719-.03125.11719-.01563.1328.01563.13282.05859.08984.10547.04688.08594.0586.05859.08593-.01172.13672-.03125.11719-.04297.10156v.44531l-.01562.13281v.14844l-.03125.11719-.04297.10547-.02735.11719-.04687.10546-.04297.10157-.03125.12109-.02734.11719-.03125.13281-.03125.11719-.02735.11719-.04297.10546-.03125.1172-.03125.12108-.01171.13282-.01563.13281v.29688l.02734.11718v.14844l.04688.39844.02734.11719.0586.08984.12109.03125h.14844l.13281-.01563.0586.08985v.11719l-.0586.08984-.08984.0586-.10157.04296-.10546.04688-.08985.05859-.08594.0586-.13671.01562-.1172-.03125-.1328-.01563-.10157.04688-.0625.08594-.01172.13671-.01562.13282-.03125.11719-.02735.11718-.01562.13281-.03125.1211v.29687l.01563.13282.03125.11718v.14844l.01171.13281v.14844l-.02734.11719-.04688.10156-.02734.1211-.03125.11718-.0586.08985-.07421.07421-.10156.04297-.10547.04688-.11719.02734-.1211.03125-.10156-.04687.0586-.08594.10547-.04688.02734-.11718.03125-.11719.02734-.1211.03125-.11718v-.14844l.01563-.13281-.03125-.11719-.04297-.10547-.10547.01563-.07422.07422-.10156.04296-.08984.0625-.07422.07422-.04297.10157-.01563.1328-.03125.1172L304.25 426l-.03125.11719-.02734.11719-.03125.12109-.02735.11719-.03125.11718-.04297.10547-.08984.0586h-.08984l-.1172-.03125-.03124-.08594.01562-.13672-.03125-.11719v-.14844l-.01171-.1328v-.14844l-.0625-.23438-.02735-.1211-.04297-.10156-.04687-.10546-.0586-.08594-.05859-.08985-.04297-.10546-.0625-.08594-.14844-.14844-.0703-.07422-.10548-.04687-.10547-.04297-.10156-.04297-.29687-.29688-.08985-.07421-.08594-.0586-.10546-.04297-.08985-.0625-.08594-.0586-.10546-.04296-.08985-.0586-.08594-.0625-.07421-.0703-.10547-.04688-.08594-.0586-.10547-.04296-.08984-.0625-.10156-.04297-.10547-.04297-.08594-.0586-.10547-.04687-.10547-.04297-.10156-.04687-.08985-.0586-.10156-.04297-.10547-.04296-.08984-.0625-.11719-.02735-.13281-.01562-.13281.01562H299.75l-.13281.01563-.11719-.03125-.08984-.0586-.07422-.07422-.08985-.05859-.10156-.04688h-.14844l-.12109-.02734-.10156-.04297-.07422-.07422-.11719-.17968-.08984-.0586-.10156-.04297-.08985-.0625-.10547-.04296-.08984-.0586-.08594-.0586-.10547-.04687-.0586-.08594-.05858-.08984-.04297-.10547-.04688-.10156-.07422-.07422-.08594-.0586-.07421-.07421-.08985-.0586-.22265-.22265-.04297-.10547-.03125-.26563.10547-.04296h.14453l.10547.04296.07421.07422.08985.0586.08594.0586.10546.04687.08985.05859.14844.14844.0703.07422.14845.14843.0625.08594.07421.07422.08594.0586.07422.07421.08985.0625.08984.0586.08594.05859.26953.17578.10156.04688.10547.04296.10156.04297.04688-.07421.05859-.08594.07422-.07422.07031-.07422.10547.04297.07422.07422.0586.08984.04296.10156.04688.10547.04296.10547.1211.02735.11719-.02735.07421-.08984.04297-.10547.0586-.08985.07422-.07421.10546-.04297.1172-.02735.1328.01172.08985.0586.14844.14843.05859.08985.04297.10547.04687.10156.04297.10547.04297.10156.10547.04688.10547.04296.13281.01563.08594-.0586.0586-.08984.07421-.07422.10547-.04297.11719.02735.10547.04687.10156.04297.10547.04297.10156.04688.17969.11718v.11719l-.01563.13281.01563.13281.01562.13672.0586.08594.10156.04688.1211.02734.11718.03125h.14844l.11719-.03125.05859-.08984.17969-.1172.05859-.08983.07422-.07422.0586-.08594.11718-.17969.17969-.11719.11719.03125.08984.0586.04297.07422-.01563.1328v.1172l.08985.05859h.14843l.13282-.01563.1328-.01171.26563-.03125.10547-.04297.11719-.03125.1211-.02735.07421-.07421.07031-.07422.0625-.08985-.01562-.10547-.04688-.10156-.10156-.04297-.10547-.01562-.11718.02734-.26563.03125h-.14844l-.07421-.07422-.08985-.0586-.11719-.03124-.11718-.02735-.13282-.01562h-.14843l-.13282.01563h-.29687l-.10547-.04688-.14844-.14844-.04297-.10156-.05859-.08984.22266-.22266.08593-.0586.10547-.04296.11719-.03125.13281-.01563.13281.01563.13672.01562.10157.04297.1328-.01172.08985-.0625.10156-.04297.0625-.08984-.04687-.10156-.08984-.0586-.1172-.03125-.10155-.04296-.0586-.08985-.0625-.08984v-.11719l.01563-.13281.10547-.04688.07421-.07031v-.1211l-.08984-.05859-.03125-.11719.08985-.05859.07421-.07422.04297-.10547.0586-.08984.04687-.10156.01563-.13281v-.14844l-.04688-.10547-.04297-.10156-.08984-.0586-.13281-.01562-.10157-.04297-.13671-.01563-.1172-.03125h-.4453l-.13282-.01562-.13281-.01172-.13281-.01563-.11719-.03125h-.14844l-.13281-.01562-.13281-.01172-.26563-.03125-.1211-.04297-.08593-.0586-.07422-.07421v-.14844l.01172-.13281.10547-.04688.10156-.04296.13281-.01563h.15235l.13281-.01562h.29297l.1211.03125.10156.04296.08984.0586.23438.0625.12109-.04688.08984-.05859.10156-.04297.13282-.01562.10547.04296.10156.04688.13281.01172.1211-.02735h.14453l.12109-.03125.11719-.02734.10547-.04687.07421-.07422.08594-.0586.14844-.14843.0586-.08594.04687-.10547.02734-.11719.01563-.10547-.10156-.04296-.08985-.0586-.11719-.03125-.10546-.04297-.08985-.0625-.07422-.08594-.07422-.07421-.10156-.04297-.10547-.04688-.10156-.04297-.0586-.08984-.04687-.10156-.08594-.21094-.0625-.08594-.05859-.08984-.07422-.07422-.08594-.0586h-.26953l-.11719.03126-.08984.05859-.10156.04297-.13281.01562-.10547-.01562-.02735-.11719-.0625-.08984-.11718-.03125-.10157-.04297-.14843-.14844-.03125-.11719-.01563-.10546.07422-.07422.17969-.1172.11719-.02733.11718-.03125.13672.01562.10156.04297.10547.04297.10156.04687.10547.04297.1172.03125.1328.01563.1172.02734.1328.01563.10547-.01563.08985-.0586-.07422-.07421-.10547-.04297-.07422-.07422-.07422-.08984-.14844-.14844-.08593-.0586-.08985-.05859-.07422-.07422-.08984-.0586-.10156-.04687-.1211-.02734-.10156-.04688-.10547-.04296-.11719-.03125-.10156-.04297-.1211-.03125h-.14843l-.11719.03125-.10546.04297-.08594.0625-.17969.11718-.08594.0586-.08984.0586-.10547.04687-.08594.05859-.10547.04297-.10156.04297-.10547.04687-.07422.07422-.05859.08985-.0586.08593-.04687.10547-.0586.08594-.07421.07422-.13281-.01172-.1172-.03125h-.11718l-.07422.07422-.08984.0586-.07422.07421-.08984.0586-.08594.05859-.10547.04687-.10156.04297-.13672.01563-.10156-.04297-.14844-.14844-.10547-.04688h-.08594l-.10547.04688-.10156.04297-.1211.03125-.11718-.03125-.07422-.07422v-.11719l.03125-.1211.07422-.0703.0586-.08985.07421-.07422.11719-.03125.10547-.04296h.29297l.13281-.01563.13672-.01563.10156-.04296.08985-.0586.10156-.04687.08984-.0586.13281-.01171.08985.05859.13281.01172.08984-.0586.08594-.05859.10547-.04297.08984-.0586.08594-.0625.08985-.05859.14843-.14843.0586-.08594.05859-.08985.10547-.04296.13281-.01563.11719.02735.1211.03125.05859-.0586.05859-.08984.03125-.26563.02734-.11719.10547.01172.13281.01563.10157-.04297.08984-.0586.0586-.08984.07421-.07422.0586-.08984.04687-.10156.01172-.13281-.01172-.13282-.04687-.10547-.14844-.14843-.0586-.08985-.05859-.08594-.04297-.10546v-.44532l.01563-.1328v-.14845l.01172-.1328-.0586-.0586-.08984.0586-.10156-.04298-.17969-.11719-.08594-.05859-.0625-.08984-.0586-.08985-.07421-.07421-.08594-.0586-.1211.03125-.10155.01172-.10547.04688-.08594.05859-.10547.04297-.14844.14844-.08984.05859-.08594.0586-.08984.0625-.10547.04296-.13281.01563v-.1211l.10547-.04297.11718-.03125.07422-.0703.04297-.10548v-.14844l-.02734-.11718-.14844-.14844-.13281-.01563h-.14844l-.11719.03125-.10547.04297-.10156.04297-.08984.0625-.11719.02735-.07422-.07422.01172-.13281-.04297-.10157-.04297-.10547-.08984-.05859-.11719.02734-.1211.03125-.11718.03125-.10156.04297-.1211.03125-.10156.04297-.10547.04297-.08984.0586-.10156.01562v-.11719l.01562-.13281-.0586-.08985-.07421.04297-.14844.14844-.0586.08985-.07421.07421-.04688.10547-.04296.10156-.07422.07422-.0586.08985-.07422.07422-.05859.08593-.07422.07422-.08984.0625-.07422.07031-.07422.07422-.10156.01563-.13281.01562-.10547-.04296v-.1211l.14843-.14844.04297-.10156.0586-.08984.04687-.10156.04297-.10547.0586-.08985.03124-.11719.04297-.10156.03125-.1211.02735-.11718.04687-.10547.04297-.10156.04297-.10547.07422-.07031.08984-.0625.08985-.0586.10156-.04296h.29687l.26563-.03125.10547-.04297-.07422-.07422-.11719-.03125-.10547-.04297-.08984-.0586-.10156-.04687-.08985-.0586-.10156-.04296-.10547-.04297-.08984-.0625-.08594-.0586-.10547-.04296-.10156-.04297-.1211-.03125-.11718-.03125-.10157-.04297L297.5 410.25l-.10156-.04297-.08985-.0586-.04296-.10546-.01563-.13281.10156-.04297.13281-.01563.13672.01563.13282-.01563.10156-.04297.0586-.08984.01562-.10547-.08985-.0586-.07421-.07421-.10157-.04297-.08984-.0586-.14844-.14843-.04297-.10547-.01562-.13281v-.29297l-.0586-.08985-.08984-.05859-.07422-.07422-.04297-.10547-.03125-.11718-.0586-.08985-.07421-.07422-.11719-.02734-.07422-.07422-.08984-.0586-.08984-.0625-.08594-.05859-.07422-.07421-.0586-.08594-.04687-.10547-.08594-.0586-.14843-.14843-.19532-.0586-.1328.01563-.10157.04297-.07422.07422-.04688.10156-.04296.10547-.0586.08984-.0586.08594-.29687.29687-.08984.0586h-.08594l-.0625-.08594-.04297-.10547.03125-.11719.0586-.08984.02734-.11719-.01172-.13281-.08984-.0625-.10547.04688-.11719.02734-.11719.03125-.26953.17578-.10156.04688-.11719.02734-.10546.04687-.08985.0586-.10156.04297-.0586-.08594-.04687-.10547.01563-.13281.04687-.10547.07031-.07422.07422-.07031.0586-.08985v-.14843l-.04297-.10547h-.23829l-.10156.04687-.03125.11719-.02734.11719-.03125.1211-.07422.04296-.13281.01563-.07422-.04688-.04297-.10156-.04297-.10547-.04687-.10156-.04297-.10547-.1211.03125-.10156.04297-.13281.01562-.11719.03125-.10547.04297-.08984.0586-.10156.04687-.1211.02734-.13281.01563-.10156-.04297-.0586-.08985-.04687-.10546-.04297-.10157-.04297-.10546v-.1172l.0586-.08984.08593-.05859.17969-.11719.10156-.04687.10547-.04297.10547-.0586.10156-.04296.08985-.0625.10156-.04297.10547-.0586.10156-.04687.08984-.0586.10547-.04296.10156-.04297.08985-.0625.10156-.04297.13672-.01563.11719.03125.10156.04297.1211.03125.10156.04297.10546.04688.10157.04296.10547.04297.10156.04688.10547.04297.10156.04297.10547.04687.08594.0586.10546.04296.1172.03125.10546.04297.10156.04688.08985.0586.10547.04296.10156.04297.10547.04687.11719.02735.10156.04687.1211.02735h.14843l.08594-.0586.01562-.10156.0586-.08984-.02735-.1172-.07422-.07421-.11719-.17969-.07421-.07422-.08985-.07421-.17969-.1172-.08593-.05859-.10547-.04296-.10156-.04688-.26954-.17578-.05859-.08985-.07422-.07421-.0586-.08985-.04296-.10156-.03125-.11719-.01563-.13672v-.5625l-.01171-.1328-.01563-.13282-.03125-.11719-.01562-.13281-.01172-.13281-.03125-.1211-.22266-.22265-.0586-.08594-.01562-.10547.03125-.11719.13281-.01562v-91.41406H172.9922v1.45312l-.0586.23438-.35156 1.05078-.17187.52343-.1172.34766-.17577.41016-.11719.17187-.23438.29297-.23046.0586h-.35157l-.11718.05859-.23047.40625v.29297l.11719.17578.23046.23047.1172.23437.64062.75781.29297.46485.17578.23437.23047.35156.23437.34766.64063.8164.17578.46485.17187.41016.11719.69531.17578.46875.11719 1.39844.0586.46484v.875l.11718 1.04688v4.78125l-.0586.46484-.35156 1.28125-.17578.52344-.11328.41015-.35156.9297L172.93359 336l-.23437.58203-.11719.17578-.17187.34766-.17578.40625-.35157.8164-.0586.29297-.11327.29297-.11719.28906-.0586.17579-.11718.875-.0586.40625-.05859.11718-.0586.17579-.05859.17187-.23047.52734-.11718.17188v.23437l-.11719.23438-.0586.17187-.17577.58594v.28906l-.0586.17579v.29296l-.0586.11329-.05859.52734v.17187l-.05468.23438v2.6211l-.17578.8164-.1172.17578-.17577.23438-.1172.17187-.11327.23438-.58594.93359-.23047.28906-.29297.46485-.17578.23437-.28906.35156-.35156.69922-.11328.23047-.17579.41016-.17578.23046-.40625.52735-.8164.69922-.29297.17187-.28906.23438-.17579.11719-.17578.17578-.52344.40625-.52734.17578-.17187.17578-.23438.05469-.64062.17578h-.75782m12.21094 31.02344l-1.07422.44921.35938.89454 1.25-.71485.44531-.53906-.98047-.08985"/><path fill="#d3d3d3" fill-opacity="0" fill-rule="evenodd" d="M201.50781 416.59766h-.89453l.44922.6289.98047.35938.80469-.08985.4453-.98828-.17577.08985-.71485-.35547-.89453.35547m154.6211 59.0703l-.0586-.52343v-.29297l.11328-.29297.0586-.23046.46875-.46875h.11328l.11719-.11329.11718-.05859h.17579l.23437-.0586h.34766l.23437.0586.11719.0586.23047.17187.0586.17578.11718.58203v.29297l-.11719.17578-.17187.28906-.17579.17579-.52734.52343-.23047.23438-.11719.0586h-.17578l-.11718-.0586-.40625-.29297-.17579-.11719-.11718-.0586-.0586-.11327-.05468-.1172m6.64062-10.95702l-.0586-.17188v-1.10937l.0586-.17188.17578-.0586.17188-.05858h.17578l.23437-.0586.1172.0586.05858.69921-.05859.17188-.11719.17578-.11718.0586-.23438.52343-.11328.0586h-.23438l-.05859-.1172m9.61328-14.39062l-.11719-.17578v-.69922l.29297-.875.1172-.17187.17577-.35156.11328-.23047.1172-.29297.35155-.75781.1172-.23047.17187-.23438h.17578l.11719-.0586h.64062l.11719.0586.23437.23438.17188.11328.35156.29297.11719.11718.11328.17579v.11328l.11719.05859.11718.11719v.69922l-.05859.17578v.23047l-.0586.17578-.34765 1.05078-.11719.23047-.11719.23437-.11718.0586-.23047.23437-.64063.28906h-.875l-.41015-.11718-.64063-.46485"/><path fill="none" stroke="#bebebe" stroke-linecap="round" stroke-linejoin="round" stroke-miterlimit="10" stroke-width=".5" d="M467.95703 311.69531H144.02734v168.625h323.9297v-168.625"/><g clip-path="url(#a)"><path fill="#fff" fill-opacity="0" fill-rule="evenodd" d="M144 475.89063v4.4375h.0039H144v-34.8672 30.4297"/></g><g clip-path="url(#b)"><path fill="#fff" fill-opacity="0" fill-rule="evenodd" d="M144 435.94531v4.26172-128.53515h.0039H144V435.9453"/></g><path fill="#50fcfc" fill-rule="evenodd" d="M144 440.20703v5.2539h.0039v-5.2539H144"/><g clip-path="url(#c)"><path fill="#fff" fill-opacity="0" fill-rule="evenodd" d="M144.0039 480.32813v-34.8672l.71876-.64062-.51953-4.4375-.19922-.17578V311.67188h17.75v123.72656l-.61328.54687.61328 1.33985v19.27734l-1.19141 1.57422.32422 4.4375.86719.86719 1.8125-.8672.45703-4.4375-2.26953-1.57421v-19.27734l1.54297-1.33985-1.54297-.54687V311.67188h31.0664v107.80859l-4.4375 1.4414-2.32031 1.70704-2.11719 2.0664-2.59375 2.375 2.59375 2.66797 1.41016 1.76953 3.02734 2.63281 4.4375 1.46485 2.1836.33984 2.2578.79297 4.4375 3.28125.26954.36328 4.16797 2.05078 4.4375-.76171 2.15625-1.28907 2.28516-1.60547 3.8789-2.83203.5586-.8789 4.4375-1.64063 2.1914-1.91797-2.1914-2.05469-4.4375.65235-2.33594-3.03516-2.10156-1.95312L210.57422 424l-4.4375-.08984-3.86328-1.28125-.57422-.57422-4.4375-1.70313-4.4414-.8711V311.67189h44.38671v128.36718l-1.10156.34375-3.33984 2.6836-1.20704 1.7539 1.20703.73438 1.00391-.73438 3.4375-3.86719.39063-.5703-.39063-.34376V311.67187H467.9961v168.65625H144.00391"/></g><path fill="#50fcfc" fill-rule="evenodd" d="M144.72266 444.82031l-.71875.64063v-5.2539l.19922.17577.51953 4.4375m16.16406 17.7539l-.32422-4.4375 1.1914-1.57421 2.26954 1.57422-.45703 4.4375-1.8125.86719-.8672-.8672m.8672-25.28905l-.61328-1.33985.61328-.54687 1.54297.54687-1.54297 1.33985m22.1914-7.54688l-2.59375-2.66797 2.59375-2.375 2.11719-2.0664 2.32031-1.70704 4.4375-1.4414v3.85547l-4.4375 1.89062-1.8789 1.84375 1.8789 2.3086 2.78906 2.1289 1.64844.75781 4.4414.52735 4.4375 1.14844 2.5 2.0039 1.9375 2.15235 4.4375-.58985 1.85548-1.5625-1.85547-3.0625-4.4375-1.32812-.02734-.04688.02734-.04687 4.4375-1.3711 1.91797-3.01953-1.91797-.88672-4.4375-.21093-4.4375-.41016-4.4375-.75-4.4414-1.47656v-3.85547l4.4414.8711 4.4375 1.70312.57422.57422 3.86328 1.28125 4.4375.08984 4.4414 1.11719 2.10157 1.95312 2.33594 3.03516 4.4375-.65235 2.1914 2.0547-2.1914 1.91796-4.4375 1.64063-.5586.8789-3.8789 2.83203-2.28516 1.60547-2.15625 1.28906-4.4375.76172-4.16797-2.05078-.26953-.36328-4.4375-3.28125-2.25781-.79297-2.1836-.33984-4.4375-1.46485-3.02734-2.6328-1.41016-1.76954"/><path fill="#00e8fc" fill-rule="evenodd" d="M188.38281 429.3789l-1.8789-2.30859 1.8789-1.84375 4.4375-1.89062 4.4414 1.47656 4.4375.75 4.4375.41016 4.4375.21093 1.91798.88672-1.91797 3.01953-4.4375 1.3711-.02734.04687.02734.04688 4.4375 1.32812 1.85547 3.0625-1.85547 1.5625-4.4375.58985-1.9375-2.15235-2.5-2.0039-4.4375-1.14844-4.4414-.52735-1.64845-.7578-2.78906-2.12891"/><path fill="#50fcfc" fill-rule="evenodd" d="M232.76563 445.55469l-1.20704-.73438 1.20703-1.7539 3.33985-2.6836 1.10156-.34375.39063.34375-.39063.57031-3.4375 3.8672-1.0039.73437"/><g clip-path="url(#d)"><path fill="#fff" fill-opacity="0" fill-rule="evenodd" d="M467.9961 480.32813H468V311.67188h-.0039H468v168.65625h-.0039"/></g><g clip-path="url(#e)"><path fill="none" stroke="#000" stroke-linecap="round" stroke-linejoin="round" stroke-miterlimit="10" stroke-width=".5" d="M147.46875 479.75781l-6.9375 1.14063"/></g><g clip-path="url(#f)"><path fill="none" stroke="#000" stroke-linecap="round" stroke-linejoin="round" stroke-miterlimit="10" stroke-width=".5" d="M147.46875 479.75781l1.48828 1.95313"/></g><g clip-path="url(#g)"><path fill="none" stroke="#000" stroke-linecap="round" stroke-linejoin="round" stroke-miterlimit="10" stroke-width=".5" d="M160.7539 479.60547l-6.8789 1.44531"/></g><g clip-path="url(#h)"><path fill="none" stroke="#000" stroke-linecap="round" stroke-linejoin="round" stroke-miterlimit="10" stroke-width=".5" d="M160.7539 479.60547l1.57423 1.88672"/></g><g clip-path="url(#i)"><path fill="none" stroke="#000" stroke-linecap="round" stroke-linejoin="round" stroke-miterlimit="10" stroke-width=".5" d="M174.09375 479.7461l-6.92969 1.16796"/></g><g clip-path="url(#j)"><path fill="none" stroke="#000" stroke-linecap="round" stroke-linejoin="round" stroke-miterlimit="10" stroke-width=".5" d="M174.09375 479.7461l1.4961 1.9414"/></g><g clip-path="url(#k)"><path fill="none" stroke="#000" stroke-linecap="round" stroke-linejoin="round" stroke-miterlimit="10" stroke-width=".5" d="M187.4336 479.91016l-6.97657.83984"/></g><g clip-path="url(#l)"><path fill="none" stroke="#000" stroke-linecap="round" stroke-linejoin="round" stroke-miterlimit="10" stroke-width=".5" d="M187.4336 479.91016l1.40234 2.01172"/></g><g clip-path="url(#m)"><path fill="none" stroke="#000" stroke-linecap="round" stroke-linejoin="round" stroke-miterlimit="10" stroke-width=".5" d="M200.72266 479.72656l-6.92188 1.20703"/></g><g clip-path="url(#n)"><path fill="none" stroke="#000" stroke-linecap="round" stroke-linejoin="round" stroke-miterlimit="10" stroke-width=".5" d="M200.72266 479.72656l1.5078 1.9336"/></g><g clip-path="url(#o)"><path fill="none" stroke="#000" stroke-linecap="round" stroke-linejoin="round" stroke-miterlimit="10" stroke-width=".5" d="M214.01953 479.625l-6.88672 1.40625"/></g><g clip-path="url(#p)"><path fill="none" stroke="#000" stroke-linecap="round" stroke-linejoin="round" stroke-miterlimit="10" stroke-width=".5" d="M214.01953 479.625l1.5586 1.89453"/></g><g clip-path="url(#q)"><path fill="none" stroke="#000" stroke-linecap="round" stroke-linejoin="round" stroke-miterlimit="10" stroke-width=".5" d="M227.15234 479.02734l-6.52343 2.60547"/></g><g clip-path="url(#r)"><path fill="none" stroke="#000" stroke-linecap="round" stroke-linejoin="round" stroke-miterlimit="10" stroke-width=".5" d="M227.15234 479.02734l1.875 1.58203"/></g><g clip-path="url(#s)"><path fill="none" stroke="#000" stroke-linecap="round" stroke-linejoin="round" stroke-miterlimit="10" stroke-width=".5" d="M240.54297 479.22656l-6.67188 2.20313"/></g><g clip-path="url(#t)"><path fill="none" stroke="#000" stroke-linecap="round" stroke-linejoin="round" stroke-miterlimit="10" stroke-width=".5" d="M240.54297 479.22656l1.77344 1.69531"/></g><g clip-path="url(#u)"><path fill="none" stroke="#000" stroke-linecap="round" stroke-linejoin="round" stroke-miterlimit="10" stroke-width=".5" d="M253.73438 478.90625l-6.42579 2.84375"/></g><g clip-path="url(#v)"><path fill="none" stroke="#000" stroke-linecap="round" stroke-linejoin="round" stroke-miterlimit="10" stroke-width=".5" d="M252.79688 479.32031l.96484.75781"/></g><g clip-path="url(#w)"><path fill="none" stroke="#000" stroke-linecap="round" stroke-linejoin="round" stroke-miterlimit="10" stroke-width=".5" d="M266.67578 478.25781l-5.67969 4.14063"/></g><path fill="none" stroke="#000" stroke-linecap="round" stroke-linejoin="round" stroke-miterlimit="10" stroke-width=".5" d="M265.84766 478.86328l1.10547.53516"/><g clip-path="url(#x)"><path fill="none" stroke="#000" stroke-linecap="round" stroke-linejoin="round" stroke-miterlimit="10" stroke-width=".5" d="M279.94531 478.19922l-5.58984 4.25781"/></g><path fill="none" stroke="#000" stroke-linecap="round" stroke-linejoin="round" stroke-miterlimit="10" stroke-width=".5" d="M279.13281 478.82031l1.11328.51172"/><g clip-path="url(#y)"><path fill="none" stroke="#000" stroke-linecap="round" stroke-linejoin="round" stroke-miterlimit="10" stroke-width=".5" d="M292.15625 477.25l-3.38281 6.15625"/></g><path fill="none" stroke="#000" stroke-linecap="round" stroke-linejoin="round" stroke-miterlimit="10" stroke-width=".5" d="M291.66406 478.14453l1.22656.01953"/><g clip-path="url(#z)"><path fill="none" stroke="#000" stroke-linecap="round" stroke-linejoin="round" stroke-miterlimit="10" stroke-width=".5" d="M304.6914 476.9336l-1.8203 6.78906"/></g><g clip-path="url(#A)"><path fill="none" stroke="#000" stroke-linecap="round" stroke-linejoin="round" stroke-miterlimit="10" stroke-width=".5" d="M317.01172 476.8164l.16797 7.02344"/></g><g clip-path="url(#B)"><path fill="none" stroke="#000" stroke-linecap="round" stroke-linejoin="round" stroke-miterlimit="10" stroke-width=".5" d="M328.90625 477.15234l3.00781 6.35157"/></g><g clip-path="url(#C)"><path fill="none" stroke="#000" stroke-linecap="round" stroke-linejoin="round" stroke-miterlimit="10" stroke-width=".5" d="M341.83984 477.36328l3.77344 5.92969"/></g><g clip-path="url(#D)"><path fill="none" stroke="#000" stroke-linecap="round" stroke-linejoin="round" stroke-miterlimit="10" stroke-width=".5" d="M356.5 476.85547l1.08203 6.94531"/></g><g clip-path="url(#E)"><path fill="none" stroke="#000" stroke-linecap="round" stroke-linejoin="round" stroke-miterlimit="10" stroke-width=".5" d="M372.35156 477.4375l-3.98828 5.78516"/></g><g clip-path="url(#F)"><path fill="none" stroke="#000" stroke-linecap="round" stroke-linejoin="round" stroke-miterlimit="10" stroke-width=".5" d="M382.38672 477.0586l2.57031 6.53906"/></g><g clip-path="url(#G)"><path fill="none" stroke="#000" stroke-linecap="round" stroke-linejoin="round" stroke-miterlimit="10" stroke-width=".5" d="M396.58984 476.83594l.79297 6.98437"/></g><g clip-path="url(#H)"><path fill="none" stroke="#000" stroke-linecap="round" stroke-linejoin="round" stroke-miterlimit="10" stroke-width=".5" d="M413.20313 478.35156l-5.8047 3.95703"/></g><path fill="none" stroke="#000" stroke-linecap="round" stroke-linejoin="round" stroke-miterlimit="10" stroke-width=".5" d="M412.35938 478.92578l1.08593.57031"/><g clip-path="url(#I)"><path fill="none" stroke="#000" stroke-linecap="round" stroke-linejoin="round" stroke-miterlimit="10" stroke-width=".5" d="M426.17188 477.91406l-5.10938 4.82813"/></g><path fill="none" stroke="#000" stroke-linecap="round" stroke-linejoin="round" stroke-miterlimit="10" stroke-width=".5" d="M426.17188 477.91406l2.32421.78516"/><g clip-path="url(#J)"><path fill="none" stroke="#000" stroke-linecap="round" stroke-linejoin="round" stroke-miterlimit="10" stroke-width=".5" d="M439.47656 477.90625l-5.08984 4.84766"/></g><path fill="none" stroke="#000" stroke-linecap="round" stroke-linejoin="round" stroke-miterlimit="10" stroke-width=".5" d="M439.47656 477.90625l2.32813.77344"/><g clip-path="url(#K)"><path fill="none" stroke="#000" stroke-linecap="round" stroke-linejoin="round" stroke-miterlimit="10" stroke-width=".5" d="M453.23438 478.48438l-5.97657 3.6914"/></g><path fill="none" stroke="#000" stroke-linecap="round" stroke-linejoin="round" stroke-miterlimit="10" stroke-width=".5" d="M453.23438 478.48438l2.12109 1.23828"/><g clip-path="url(#L)"><path fill="none" stroke="#000" stroke-linecap="round" stroke-linejoin="round" stroke-miterlimit="10" stroke-width=".5" d="M466.48828 478.38281l-5.85156 3.89063"/></g><path fill="none" stroke="#000" stroke-linecap="round" stroke-linejoin="round" stroke-miterlimit="10" stroke-width=".5" d="M465.63672 478.94922l1.07812.58203"/><g clip-path="url(#M)"><path fill="none" stroke="#000" stroke-linecap="round" stroke-linejoin="round" stroke-miterlimit="10" stroke-width=".5" d="M147.47656 466.51563l-6.95312.99609"/></g><path fill="none" stroke="#000" stroke-linecap="round" stroke-linejoin="round" stroke-miterlimit="10" stroke-width=".5" d="M146.46484 466.66016l.72266.99218m13.55078-1.4375l-6.84375 1.59766m6.84375-1.59766l1.61328 1.84766m11.60938-2.17188l-6.66016 2.2461m6.66016-2.2461l1.78125 1.6836m11.6836-1.03906l-6.96095.96093m6.96094-.96093l1.4375 1.98828m11.8086-2.35547l-6.82032 1.6914m6.82031-1.6914l1.63672 1.82422m11.50782-2.33203l-6.48438 2.70703m6.48438-2.70703l1.89843 1.55468m11.27344-1.86328l-6.19531 3.32422m6.19531-3.32422l2.03906 1.36328m11.26953-1.37109l-6.18359 3.33984m6.1836-3.33984l2.04296 1.35938m11.47266-.91407l-6.58594 2.44922m6.58594-2.44922l1.83594 1.625m11.38672-1.84765l-6.40235 2.89453m6.40235-2.89453l1.9453 1.49609m11.26173-1.71875l-6.1836 3.33984m6.1836-3.33984l2.04297 1.35547m10.91406-1.89453l-5.46484 4.41797m5.46484-4.41797l2.25781.96093m10.5625-1.46093l-4.47656 5.41797m4.47656-5.41797l2.40235.49218m10.52734-.76953L315.24219 470m3.70703-5.97266l2.44922.16407m11.01172-.06641l-3.9961 5.77734m3.9961-5.77734l2.4375.28516m11.1875-.04297l-4.6172 5.29297m3.94532-4.52344l1.19531.27734m12.16407-1.48437l-3.36328 6.16797m2.875-5.26953l1.22656.01171m12.13672-1.11328l-2.48438 6.57422m2.125-5.61719l1.21485-.15625M383.6328 463.5l.07813 7.02734m-.0664-6.0039l1.07421-.58985m12.14063-.42968l.2539 7.01953m-.21484-6l1.0625-.61328m15.84765 2.91406l-7.01562.3789m19.83984-1.98828l-6.03515 3.59766m6.03515-3.59766l2.10157 1.27344m11.02734-1.55469l-5.66016 4.16016m5.66016-4.16016l2.21094 1.0625m11.10937-1.05468l-5.67187 4.14453m5.67187-4.14453l2.21094 1.0664m11.32031-.73828l-6.10156 3.48828"/><g clip-path="url(#N)"><path fill="none" stroke="#000" stroke-linecap="round" stroke-linejoin="round" stroke-miterlimit="10" stroke-width=".5" d="M466.61328 465.26953l2.07422 1.3086"/></g><g clip-path="url(#O)"><path fill="none" stroke="#000" stroke-linecap="round" stroke-linejoin="round" stroke-miterlimit="10" stroke-width=".5" d="M147.49219 453.29688l-6.98438.80468"/></g><path fill="none" stroke="#000" stroke-linecap="round" stroke-linejoin="round" stroke-miterlimit="10" stroke-width=".5" d="M147.49219 453.29688l1.39062 2.01953m11.875-2.3125l-6.88672 1.38672m6.88672-1.38672l1.5586 1.89843m11.71484-2.07812l-6.80469 1.75m5.8164-1.4961l.82813.90625m13.5-1.05859l-6.85156 1.54688m6.85156-1.54688l1.60157 1.85938m11.64453-2.125l-6.71485 2.07812m6.71485-2.07812l1.74219 1.73047m11.46093-2.03907l-6.48828 2.69531m5.54297-2.30468l.94922.78125m12.8711-1.9375l-5.60938 4.22656m4.79297-3.61328l1.11328.51953m12.34375-1.8164l-4.25781 5.58984m4.2578-5.58985l2.41798.39844m11.42968.10547l-5.32422 4.58594m5.32422-4.58594l2.28516.89063m11.41016-.35157l-6.08594 3.50781m6.08594-3.5078l2.08203 1.30077m11.45312-.85547l-6.52343 2.61329m6.52343-2.61328l1.875 1.58593m11.05469-2.29297l-5.75781 4.02735m5.75781-4.02735l2.1875 1.1172m10.71875-1.60157l-4.9375 5m4.9375-5l2.35156.70312m10.63282-.99218l-4.27735 5.57812m4.27735-5.57812l2.42187.40625m10.78516-.48438l-4.0586 5.73438m4.0586-5.73438l2.43359.3086m10.8164-.35547l-3.92968 5.82812m3.92969-5.82812l2.4375.2539m10.9453-.20703l-4.0664 5.73438m4.0664-5.73438l2.4336.3125m9.57813-.88281l-1.46094 6.875m1.25-5.875l1.17969-.33984m11.75-.73438l-.26563 7.02344m.22657-6l1.10546-.53516m10.39844-.04297l3.4336 6.13282m-2.9336-5.2422l.66406-1.03124m14.32813-.27735l-.92188 6.96875m17.08204-4.67578l-6.60938 2.38282m5.64844-2.03516l.91015.82031m13.39063-1.10156l-6.66016 2.25m5.6914-1.92188l.89063.83985m12.98829-1.98828l-5.85157 3.88672m5.85157-3.88672l2.16015 1.16797m11.1875-1.1211l-5.91406 3.79688"/><g clip-path="url(#P)"><path fill="none" stroke="#000" stroke-linecap="round" stroke-linejoin="round" stroke-miterlimit="10" stroke-width=".5" d="M466.51953 451.80078L468.65625 453"/></g><g clip-path="url(#Q)"><path fill="none" stroke="#000" stroke-linecap="round" stroke-linejoin="round" stroke-miterlimit="10" stroke-width=".5" d="M147.51172 440.3164l-7.02344.13282"/></g><path fill="none" stroke="#000" stroke-linecap="round" stroke-linejoin="round" stroke-miterlimit="10" stroke-width=".5" d="M147.51172 440.3164l1.19531 2.14454m12.07031-2.67578l-6.92578 1.19922m6.92578-1.19922l1.50391 1.9375m11.7461-2.23828l-6.79298 1.80078m5.8047-1.53907l.83202.89844m13.46485-1.1875l-6.78125 1.85547m5.79297-1.58594l.84375.89063m13.17187-1.88672l-6.20312 3.30469m5.30078-2.82422l1.01562.6875m12.39063-2.17578l-4.58594 5.32421m3.91797-4.55078l1.19922.26953m11.97656-1.5664l-2.96875 6.36719m2.53516-5.44141l1.22656-.0625m11.32031-1.17969l-.5664 7.0039m.48437-5.98437l1.125-.48828m13.72266-.08594l-3.46485 6.11329m2.96094-5.22657l1.22656.03516m11.97656-1.19922l-2.23437 6.66406m1.90625-5.6953l1.21094-.19923m13.5625-.13672l-4.4961 5.39844m3.84375-4.61328l1.19922.25m12.78516-1.01953l-4.53125 5.3711m4.53125-5.3711l2.39844.51562m10.48828-.82812l-3.67188 5.99219m3.67188-5.9922l2.44922.15235m11.0039-.0625l-3.94922 5.8125m3.94922-5.8125l2.4414.26563m10.98048-.1914l-4.16016 5.66405m4.16016-5.66406l2.42578.35547m10.58594-.55078l-3.5586 6.0586m3.5586-6.0586l2.45312.10156m10.28906-.375l-2.41015 6.60156m2.0586-5.64062l1.21483-.16797m11.26563-1.0039l-.03516 7.02734m.02735-6.00782l1.08593-.5703m12.72657-.41407l-1.01953 6.95312m.87109-5.9414l1.15625-.41016m11.0625-.5586l1.47266 6.8711m-1.25782-5.8711l.9375-.79296m14.29297.0039l-2.78906 6.44922m2.38281-5.51171L412.51172 438m14.03125.4414l-5.85547 3.88672m5.85547-3.88671l2.16015 1.16796m11.67188.06641l-6.88672 1.41406m6.88672-1.41406l1.5625 1.89063m11.76172-1.84375l-6.90235 1.3203m6.90235-1.3203l1.53515 1.91015m11.73438-2.10156l-6.8164 1.70312"/><g clip-path="url(#R)"><path fill="none" stroke="#000" stroke-linecap="round" stroke-linejoin="round" stroke-miterlimit="10" stroke-width=".5" d="M466.96875 439.53125l1.64453 1.82422"/></g><g clip-path="url(#S)"><path fill="none" stroke="#000" stroke-linecap="round" stroke-linejoin="round" stroke-miterlimit="10" stroke-width=".5" d="M147.33984 425.98047l-6.67968 2.17578"/></g><path fill="none" stroke="#000" stroke-linecap="round" stroke-linejoin="round" stroke-miterlimit="10" stroke-width=".5" d="M147.33984 425.98047l1.76563 1.70703m11.55078-1.70703l-6.67969 2.17578m6.67969-2.17578l1.76563 1.69922m11.09375-2.61328l-5.77344 4.0039m4.9336-3.42187l1.08983.5625m9.53907-2.59766l1.28125 6.91016m-1.09375-5.90235l.95703-.76562m12.28906-.26172l1.04688 6.94922m-.89453-5.9375l.98437-.73047m11.13281.04688l3.13281 6.29296m-2.67578-5.375l.71485-1m13.03906-.21875l1.34375 6.89453m-1.14844-5.89062l.95313-.77344m12.6836-.29297l.30858 7.01953m-.26171-6l1.05468-.62109m11.79688-.35547l1.14062 6.9336m-.97265-5.92578l.97265-.7422m9.62891 1.58204l6.23438 3.23828m-5.32813-2.76563l-.01172-1.22656m12.53516.54688l6.0039 3.65234m-5.1289-3.1211l.07031-1.22265m16.25-.88281l-1.75781 6.80078m1.5039-5.8125l1.19141-.28516m12.78516-.57422l-2.57032 6.54297m2.19532-5.58984l1.21875-.14063m13.0039-.54687l-3.63672 6.01172m3.63672-6.01172l2.45313.13672m11.1914.08984l-4.29296 5.5586m4.29296-5.5586l2.41797.41016m11.1914-.15625l-4.88671 5.05078m4.88672-5.05078l2.35937.67969m11.48047-.03907l-5.9336 3.76953m5.9336-3.76953l2.13282 1.21094m-2.9961-.66406l1.0664.60547m13.28907-.83985l-6.28516 3.14453M373.5 425.4961l1.9961 1.42188m10.55468-2.4336l-4.75781 5.16797m4.75781-5.16797l2.375.6172m11.78516.57421l-6.44922 2.78516m6.44922-2.78516l1.91797 1.53125m-2.85547-1.125l1.91797 1.53125m12.1953-2.22656l-6.16796 3.36328m6.16797-3.36328l2.04687 1.34765m-2.9453-.85937l1.02343.67578m12.76562-1.77344l-5.32421 4.58204m5.32421-4.58204l2.28907.88672m-3.0625-.22265l2.28515.89062m11.91407-1.42187l-5.54297 4.3164m5.54297-4.3164l2.24218 1.0039m-3.04687-.375l1.11719.5m13.73437.77344l-7.00781.51172m7.00781-.51172l1.3086 2.07813m11.91796-2.64844l-6.82812 1.65234"/><g clip-path="url(#T)"><path fill="none" stroke="#000" stroke-linecap="round" stroke-linejoin="round" stroke-miterlimit="10" stroke-width=".5" d="M466.97656 426.24219l1.6289 1.83594"/></g><g clip-path="url(#U)"><path fill="none" stroke="#000" stroke-linecap="round" stroke-linejoin="round" stroke-miterlimit="10" stroke-width=".5" d="M147.13672 412.16797l-6.27344 3.16797"/></g><path fill="none" stroke="#000" stroke-linecap="round" stroke-linejoin="round" stroke-miterlimit="10" stroke-width=".5" d="M147.13672 412.16797l2.0039 1.41797m10.64454-2.32813l-4.94141 4.99219m4.9414-4.99219l2.35157.70313m10.66797-.96485l-4.35156 5.51563m3.71875-4.71485l1.20703.21875m11.48047-1.65625l-1.82813 6.78516m1.5625-5.79687l1.19531-.27344m11.83594-.8164l-.73047 6.98827m.73047-6.98828l2.27734-.91797m11.8047 1.08594l-2.26173 6.65235m1.9336-5.6836l1.21093-.19531m12.85938-.59375l-3.1211 6.29687m2.66797-5.3828l1.22657-.03126m12.3789-.96094l-2.79297 6.44922m2.79297-6.44922l2.44531-.1953m9.1875-.08204l.57422 7.0039m-.57422-7.0039l2.0625-1.32422m9.28907 2.1289l4.5 5.39845m-3.84375-4.61329l.46484-1.13671m11.83594.6953l5.21484 4.70704m-4.45703-4.01953l.29688-1.1914m12.88672-.04298l3.96484 5.80469m-3.39063-4.96094l.57032-1.08593m14.4453-.35547l-.58984 7m.58985-7l2.25781-.96875m11.92969 1.15234l-2.32813 6.63281m2.32813-6.63281l2.42578-.36719m12.03906 1.04297l-4.63281 5.28125m4.63281-5.28125l2.39063.5586m12.10156 1.6914l-6.98438.78125m6.98438-.78125l1.38672 2.02344m-2.40235-1.91016l.69141 1.01172m13.6211-1.2461l-6.94922 1.02345m6.94921-1.02344l1.45704 1.97656m-2.46485-1.82812l1.45313 1.97656m12.80078-2.47266l-6.8125 1.71485m6.8125-1.71485l1.64844 1.82031m-2.63672-1.5703l1.64453 1.8203m-2.63672-1.5703l.82031.91015m14.41016-1.64453l-6.67969 2.1875m6.67969-2.1875l1.76562 1.70312m-2.73828-1.38281l1.76953 1.69922m-2.74218-1.38281l.88671.85156m14.20313-1.91016l-6.33984 3.03125m6.33984-3.03125l1.97266 1.45703m-2.89454-1.01562l1.97266 1.45703m-2.89453-1.01563l.98437.72657m13.96094-1.9922l-5.91406 3.79688m5.91406-3.79687l2.14063 1.19922m-3-.64844l2.14062 1.20313m12.28125-1.29688l-6.40625 2.88281m6.40625-2.88281l1.9414 1.5m-2.875-1.08203l1.94141 1.5039m12.59766-.86328l-6.98828.76172m6.98828-.76172l1.3789 2.03125m-2.39843-1.91796l1.38281 2.02734m12.85547-2.64844l-6.79687 1.78125m6.79687-1.78125l1.66406 1.80469m-2.65234-1.54688l.83203.90235m13.32031-1.60938l-6.49609 2.67578"/><g clip-path="url(#V)"><path fill="none" stroke="#000" stroke-linecap="round" stroke-linejoin="round" stroke-miterlimit="10" stroke-width=".5" d="M466.8086 412.41406l1.89062 1.5664"/></g><path fill="none" stroke="#000" stroke-linecap="round" stroke-linejoin="round" stroke-miterlimit="10" stroke-width=".5" d="M465.86328 412.80469l.94531.78125"/><g clip-path="url(#W)"><path fill="none" stroke="#000" stroke-linecap="round" stroke-linejoin="round" stroke-miterlimit="10" stroke-width=".5" d="M147.08203 398.7539l-6.16406 3.3711"/></g><path fill="none" stroke="#000" stroke-linecap="round" stroke-linejoin="round" stroke-miterlimit="10" stroke-width=".5" d="M147.08203 398.7539l2.05078 1.34766m10.58985-2.22265L154.91016 403m4.8125-5.1211l2.36718.64454m10.4922-1.00781l-3.90626 5.84375m3.90625-5.84375l2.4414.24609m10.14454-.61719l-2.44531 6.58985m2.08984-5.63282l1.21484-.16406m12.1797-.88281l-1.89063 6.76562m1.61328-5.78125l1.19922-.26172m14.9453 2.97657l-7-.62891m5.98048.53516l.48047 1.1328m13.85547-1.65233l-7 .59375m7-.59375l1.33203 2.0625m-2.35157-1.97657l.66797 1.03125m13.34375-2.3164l-6.35547 2.99609m6.35547-2.9961l1.96485 1.46876m-2.88672-1.03516l.98047.73438m13.20703-1.27344l-6.2539 3.20703m6.2539-3.20703l2.01172 1.40234m-2.92188-.9375l2.01172 1.40235m12.40625-1.41797l-6.64063 2.30468m6.64063-2.30468l1.79688 1.66796m-2.76563-1.33203l1.80078 1.66797m-2.76562-1.33203l.89843.83594m14.50782-.85547l-6.95703 1.0039m6.95703-1.0039l1.44922 1.97656m-2.46094-1.83203l.72265.98828m13.57813-1.28906l-6.90235 1.3125m6.90235-1.3125l1.53515 1.91406m11.7422-2.08594l-6.82813 1.66016m6.82812-1.66015l1.6289 1.83203m11.57423-2.20313l-6.60547 2.39844m6.60547-2.39844l1.82031 1.64453m-2.78125-1.29297l.91016.82032m13.20312-1.55079l-6.27734 3.15625m6.27734-3.15625l2 1.41797m-2.91406-.95703l1 .70703m13.19531 2.0547l-6.21094-3.28907m6.21094 3.28906l.0039 2.45313m-.91015-2.9297l.0039 1.22657m14.51563-1.52734l-6.8086-1.73047m6.8086 1.73047l.58594 2.38281m-1.57422-2.63672l.28906 1.1914m14.1211-1.6953l-7.02344-.21875m7.02344.21875l1.08593 2.20312m-2.10546-2.23438l.53906 1.10157m13.39844-2.8086l-6.22657 3.25782m6.22657-3.25782l2.02343 1.38672m-2.92968-.91015l2.02343 1.3828m12.41016-1.36718l-6.65234 2.27344m6.65234-2.27344l1.78906 1.67969m-2.75781-1.34766l1.78906 1.67578m12.27735-2.5039l-6.21875 3.26953m6.21875-3.26953l2.02734 1.3789m-2.92969-.90625l2.02735 1.38282m12.26953-1.69922l-6.375 2.95312m6.375-2.95312l1.95703 1.48437m-2.88281-1.05469l1.95312 1.48438m-2.88281-1.05469l.97656.74219m14.48047-.64453l-6.94922 1.03906m6.94922-1.03906l1.46094 1.97265m-2.47266-1.8203l1.46094 1.97265m12.76562-2.58985l-6.74609 1.96875m6.7461-1.96875l1.71093 1.75782m-2.69531-1.46875l1.71484 1.75781m12.46485-2.38281l-6.51172 2.64453"/><g clip-path="url(#X)"><path fill="none" stroke="#000" stroke-linecap="round" stroke-linejoin="round" stroke-miterlimit="10" stroke-width=".5" d="M466.8164 399.11719l1.88282 1.57422"/></g><path fill="none" stroke="#000" stroke-linecap="round" stroke-linejoin="round" stroke-miterlimit="10" stroke-width=".5" d="M465.8711 399.5l.9414.78906"/><g clip-path="url(#Y)"><path fill="none" stroke="#000" stroke-linecap="round" stroke-linejoin="round" stroke-miterlimit="10" stroke-width=".5" d="M146.79297 384.98828l-5.58594 4.26953"/></g><path fill="none" stroke="#000" stroke-linecap="round" stroke-linejoin="round" stroke-miterlimit="10" stroke-width=".5" d="M146.79297 384.98828l2.23047 1.02344m10.76953-1.3789l-4.95703 4.98046m4.95703-4.98047l2.34766.71094m11.79687.59375l-6.61328 2.3711m6.61328-2.3711l1.8164 1.65234m11.70313-.48046l-7.02344.02734m7.02344-.02735l1.16406 2.16016m-2.18359-2.15625l.57813 1.08203m13.69921-.42187l-6.90625-1.30078m6.90625 1.30078l.73047 2.33984m12.41406-1.7461l-6.5703-2.48827m6.5703 2.48828l.3125 2.4336m-1.26562-2.79298l.3086 2.4336m14.17968-3.03516l-7.00781-.5625m7.00781.5625l.97266 2.25m12.32031-3.01172l-6.96484.95703m5.94922-.8164l.71875.99609m13.53515-1.52734l-6.8086 1.73828m6.8086-1.73828l1.65234 1.8125m11.45313-2.40625l-6.39063 2.92578m6.39063-2.92578l1.94922 1.48828m-2.8789-1.0625l.97265.7461M280.48047 386l-6.66016 2.2461M280.48047 386l1.78515 1.6836m-2.7539-1.35548l.89062.83985m13.44922-.98047l-6.77344 1.875m6.77344-1.875l1.6875 1.77734m-2.67187-1.5078l1.6875 1.78124m12.61718-2.02734l-6.78515 1.82422m6.78515-1.82422l1.67579 1.79297m-2.66016-1.52735l1.67578 1.79297m12.67969-1.8164l-6.89453 1.33984m6.89453-1.33985l1.54687 1.90625m-2.54687-1.71093l1.54297 1.90625m12.77343-2.10156l-6.89843 1.33984m6.89843-1.33985l1.54297 1.90625m-2.54687-1.71093l.77344.95312m13.11328 1.32422l-6.03125-3.60547m6.03125 3.60547l-.1211 2.44922m13.89844-3.76953l-6.95703-.96485m6.95703.96485l.84766 2.30469m-1.85938-2.44532l.42188 1.15235m13.91406-1.91406l-6.97656.83984m6.97656-.83985l1.40234 2.01563m-2.41797-1.89063l1.40235 2.01172m12.67578-3.08984l-6.46875 2.75m6.46875-2.75l1.90625 1.54297m-2.84766-1.14453l.95313.77344m13.01562-1.71094l-5.89453 3.82422m5.89453-3.82422l2.14453 1.1914m-3-.6328l1.07032.59374m12.96875-1.33984l-5.63282 4.19922m5.63282-4.19922l2.21875 1.04687m-3.03907-.4375l1.10938.52344m13.01953-1.14453l-5.61719 4.22265m5.6172-4.22265l2.22265 1.03906m-3.04297-.42578l1.11328.51953m13.07422-1.0625l-5.72266 4.08203m5.72266-4.08203l2.19531 1.09766m-3.02734-.5039l1.09765.54687m13.54688-.12891l-6.71875 2.0586m6.71875-2.0586l1.73828 1.73438m-2.71484-1.4336l.86718.86719m13.4922-.90625l-6.85548 1.53515"/><g clip-path="url(#Z)"><path fill="none" stroke="#000" stroke-linecap="round" stroke-linejoin="round" stroke-miterlimit="10" stroke-width=".5" d="M466.98828 386.35547l1.59766 1.86328"/></g><path fill="none" stroke="#000" stroke-linecap="round" stroke-linejoin="round" stroke-miterlimit="10" stroke-width=".5" d="M465.99219 386.57813l.80078.92968"/><g clip-path="url(#aa)"><path fill="none" stroke="#000" stroke-linecap="round" stroke-linejoin="round" stroke-miterlimit="10" stroke-width=".5" d="M146.07813 370.97656l-4.15625 5.66406"/></g><path fill="none" stroke="#000" stroke-linecap="round" stroke-linejoin="round" stroke-miterlimit="10" stroke-width=".5" d="M145.47266 371.80078l1.21484.17578m12.76953-.95312l-4.28125 5.57031m3.65625-4.76172l1.21094.20313m13.70703.15625l-6.23828 3.23046m5.33203-2.7578l1.00781.6953m13.60156.66016l-7.01562-.42187m5.9961.35937l.5078 1.11719m13.46485.29687l-6.29297-3.125m6.29297 3.125l.07031 2.45313m13.07422-2.14844l-5.95312-3.73437m5.95312 3.73437l-.17578 2.44531m13.9961-3.82812l-6.96094-.97266m5.94922.83203l.41796 1.15235m13.90235-2.00781l-6.94922 1.02343m5.9414-.875l.72657.98828m13.30078-2.125l-6.35547 2.9961m5.42969-2.5586l.98437.73438m13.58985.40625l-7.02344-.15625m6 .13281l.55469 1.09766m13.78515-1.15235h-7.02734m7.02734 0l1.15235 2.16797m12.15625-2.36328l-7.01563.39063m7.01563-.39063l1.27343 2.09766m12.03125-2.23438l-6.99609.66406m6.9961-.66406l1.35156 2.04688m11.79297-2.84766l-6.65235 2.26563m6.65235-2.26563l1.78906 1.67578m11.4414-1.89844l-6.48046 2.71094m6.48046-2.71094l1.89844 1.55079m11.5625-1.125l-6.77344 1.85937m6.77344-1.85937l1.6875 1.78125m11.71485-1.375l-6.94922 1.04687m6.94922-1.04687l1.46093 1.96875m-2.47265-1.81641l.73047.98438m13.625-.875l-7.00782.52343m7.00782-.52344l1.3125 2.07422m-2.33204-2l.65625 1.03907m13.53516-1.88282l-6.71875 2.0586m6.71875-2.0586l1.73438 1.73438m11.35156-2.29688l-6.26172 3.1875m6.26172-3.1875l2.00781 1.40625m-2.91797-.9453l1.0039.70702m13.01173-1.52734l-5.84375 3.90625m5.84375-3.90625l2.16015 1.16015m-3.01172-.59375l1.08204.58204m12.84375-1.46485l-5.36329 4.53906m5.36329-4.53906l2.28125.90625m-3.0586-.2461l1.13672.45313m12.58984-1.48828l-4.6289 5.28906m4.6289-5.28906l2.38672.5586m-3.0625.21093l1.19532.28125m13.5-.20312l-6.03907 3.59375m6.03907-3.59375l2.09765 1.26953m11.6875.10156l-6.97656.85156"/><g clip-path="url(#ab)"><path fill="none" stroke="#000" stroke-linecap="round" stroke-linejoin="round" stroke-miterlimit="10" stroke-width=".5" d="M467.05078 373.38281l1.40625 2.00781"/></g><g clip-path="url(#ac)"><path fill="none" stroke="#000" stroke-linecap="round" stroke-linejoin="round" stroke-miterlimit="10" stroke-width=".5" d="M145.73828 357.4414l-3.47656 6.10548"/></g><path fill="none" stroke="#000" stroke-linecap="round" stroke-linejoin="round" stroke-miterlimit="10" stroke-width=".5" d="M145.23438 358.32813l1.22656.03515m14.32031 1.5586l-6.9336 1.14062m17.67188-3.96875l-1.77734 6.79688m17.70703-3.63282l-7.00781.46875m19.17578 2.375l-4.71094-5.21484m15.5625 6.11719l.21094-7.02344m10.02344 4.98828l6.375-2.94922m6.61718 1.35156l7.02344.2461m6.5039-1.33985l6.59376 2.4336m8.1953 1.78515l3.64845-6.0039m14.7578 4.29297l-6.53515-2.58204m19.59375 3.10157l-6.01953-3.625m5.14453 3.09765l-.0664 1.22657m14.60156-1.47657l-6.71485-2.0703m5.73829 1.76952l.23437 1.20313m14.03906-.83985l-6.67578-2.1953m5.70313 1.875l.21093 1.21093m14.16407-2.76953l-6.85157 1.5664m5.85547-1.33984l.80078.92969m12.89454-2.48438l-5.6172 4.22266m5.6172-4.22266l2.22265 1.03906m11.79688 1.1211l-7.02735-.10156m6.00391.08984l.5625 1.08984m13.74219-.64062l-6.96094-.97266m6.96094.97266l.83984 2.30469m12.50781-2.91407l-7.02343.2461m7.02343-.2461l1.22657 2.1211m11.95312-2.96485l-6.7539 1.9336m6.7539-1.9336l1.70313 1.76563m11.27734-2.55469l-6.08594 3.51172m6.08594-3.51172l2.08203 1.29688m10.8789-1.8047l-5.3789 4.52345m5.3789-4.52344l2.27735.91797m-3.0586-.25781l1.13673.45703m12.32812-1.70313l-4.11328 5.69531m4.11328-5.6953l2.4336.33593m-3.03126.49219l1.21485.16796m12.69531-1l-4.10937 5.70313m4.10937-5.70313l2.42969.33204m11.5.23437l-5.33594 4.57422m4.5586-3.91016l1.14062.44922"/><g clip-path="url(#ad)"><path fill="none" stroke="#000" stroke-linecap="round" stroke-linejoin="round" stroke-miterlimit="10" stroke-width=".5" d="M146.78906 345.03906l-5.57812 4.27735"/></g><path fill="none" stroke="#000" stroke-linecap="round" stroke-linejoin="round" stroke-miterlimit="10" stroke-width=".5" d="M145.97656 345.66016l1.11719.51171m12.89844-1.26953l-5.35547 4.55079m4.57812-3.88672l1.14063.45312m7.84766-1.38281l4.85546 5.08203m7.5-3.47266l6.77344 1.86329m-5.78906-1.59375l-.26563-1.19532m12.69532.61719l6.57422 2.48047m-5.6172-2.1211l-.15624-1.21484m12.35547 1.40625l6.89062 1.3789m-5.88672-1.17968l-.35156-1.17578m12.6875 2.46094l6.84375-1.58985m-5.84766 1.35938l-.80859-.92578m13.24219 1.55468l6.61328-2.3828m-5.64844 2.03515l-.91016-.82422m13.08594.45312l6.96485-.94921m-5.95313.8125l-.71484-.9961m12.9961.90235l7.0078-.48829m-5.98828.41797l-.65234-1.04297m12.9375.81641l7.02734.10547m-6.0039-.08985l-.5586-1.08984m15.35938 4.49219l2.01172-6.73047m-1.71875 5.7539l-1.20313.2422m15.88281.8203l-1.30468-6.90234m1.11328 5.89844l-.95703.76953m14.46093.23828l-1.30078-6.90625m1.11328 5.89844l-.96093.76953m15.17187.02344l-2.71875-6.48047m2.32422 5.53906l-.77734.94922m15.66406-.8164l-5.07031-4.86329m4.33203 4.15625l-.33594 1.1797m15.3125-2.29688l-6.91797-1.21485m18.9336 3.3789l-4.32032-5.54296m3.6914 4.73438l-.49608 1.12109m15.32812-1.33594l-6.09766-3.4961m5.21094 2.98829l-.03906 1.22656m14.70312-2.625l-7.01953.32031m6-.27734l.625 1.0586m13.375-2.44923l-6.35156 3.01172m5.42578-2.57421l.98438.73437m13.0039-1.61328l-5.84765 3.89844m5.84765-3.89844l2.16016 1.16406m10.5-1.90234l-4.53516 5.3711m4.53516-5.3711l2.39844.51562m-3.0586.26563l1.19922.25781m13.16016-.65625l-5.30469 4.60547m5.30469-4.60547l2.29297.88281m11.62109.08203l-6.5 2.67579"/><g clip-path="url(#ae)"><path fill="none" stroke="#000" stroke-linecap="round" stroke-linejoin="round" stroke-miterlimit="10" stroke-width=".5" d="M466.8125 345.83984l1.88672 1.56641"/></g><g clip-path="url(#af)"><path fill="none" stroke="#000" stroke-linecap="round" stroke-linejoin="round" stroke-miterlimit="10" stroke-width=".5" d="M146.65234 331.5586l-5.30468 4.60546"/></g><path fill="none" stroke="#000" stroke-linecap="round" stroke-linejoin="round" stroke-miterlimit="10" stroke-width=".5" d="M145.88281 332.23047l1.14453.4414m12.42188-1.60156l-4.26953 5.58594m3.64844-4.77344l1.21093.20313m10.83203-1.72656l-.48437 7.0078m.41406-5.98827l1.1211-.5m10.76171-.29688l2.52344 6.5586m-2.15625-5.60157l.80469-.92578m11.1211.57813l4.5664 5.33984m-3.90234-4.5625l.44921-1.14063m11.08203 3.90235l6.8086-1.73438m-5.82031 1.48047l-.82422-.90625m16.16015 3.78516l.78907-6.98438m-.67578 5.96875l-1.14063.44922m13.21094.23828l3.05469-6.32812m9.74218 6.02344l4.08594-5.71875m-3.48828 4.88671l-1.21875-.16015m12.80078-.3711l6.35938-2.99609m-5.4336 2.5625l-.98437-.73437m13.21093.7578l6.6836-2.17577m-5.71094 1.85937l-.88281-.85156m13.39844 1.60156l6.33593-3.03906m-5.41406 2.59766l-.98828-.72657m14.10937 2.17579l4.87891-5.0547m-4.16797 4.32032l-1.17969-.33984m14.45313 1.58203l3.54297-6.07031m-3.54297 6.0703l-2.44922-.09765m16.45313.40625l2.16796-6.6875m-1.85546 5.71485l-1.20704.21093m14.44922.82813l1.6875-6.82031m-1.6875 6.8203l-2.3789.59766m16.08203-.52343l.91015-6.96875m-.91015 6.96875l-2.29688.85937m14.77735-1.07422l2.57812-6.53906m-2.20312 5.58594l-1.21875.14062m14.21484.83203l2.46875-6.57812m-2.10937 5.6211l-1.21875.16015m15.73437 1.00781l-.65234-7m.55859 5.98047l-1.02734.67188m17.39843-1.91016l-6.57421-2.48438m5.61718 2.1211l.15625 1.21875m14.16797-3.1875l-6.67969 2.17969m6.6797-2.1797l1.76562 1.70313m11.19922-2.46094l-5.98047 3.69532m5.98047-3.69531l2.11718 1.23828M453.65234 333l-6.8125 1.72656M453.65234 333l1.64844 1.8164m11.66797-1.8125l-6.8125 1.71485"/><g clip-path="url(#ag)"><path fill="none" stroke="#000" stroke-linecap="round" stroke-linejoin="round" stroke-miterlimit="10" stroke-width=".5" d="M466.96875 333.0039l1.64453 1.82032"/></g><g clip-path="url(#ah)"><path fill="none" stroke="#000" stroke-linecap="round" stroke-linejoin="round" stroke-miterlimit="10" stroke-width=".5" d="M146.85938 318.5039l-5.71875 4.08985"/></g><path fill="none" stroke="#000" stroke-linecap="round" stroke-linejoin="round" stroke-miterlimit="10" stroke-width=".5" d="M146.02734 319.09766l1.09766.54687m12.23047-1.95703l-4.08203 5.71875m3.48828-4.88672l1.21875.16406m12.35156-1.21093l-3.40625 6.14843m2.91016-5.2539l1.22656.02344m12.59766-.91016l-3.4297 6.13281m2.9297-5.23828l1.22656.02344m13.57812-.08985l-5.41015 4.48047m19.23047-.8125l-6.41797-2.85937m5.48437 2.44531l.08594 1.22266m14.125-.72657l-6.34375-3.02343m5.42188 2.58593l.05078 1.22266m14.4375-1.5039l-6.84766-1.58594m5.85156 1.35546l.3164 1.1875m14.0625-1.35546l-6.98437-.78516m5.96875.67188l.44922 1.14062m13.22656-3.4961L261 322.6211m4.84766-3.54296l1.10156.53125m12.64844-1.58594l-4.89063 5.04687m12.29688-1.92578l6.92578-1.1914m6.72265 2.1953l6.25782-3.19921m-5.34766 2.73437l-1.0039-.70312m14.04296 2.03906l4.98828-4.94531m-4.26171 4.22656l-1.17188-.36328m13.67969 1.0039l5.14844-4.78515m-5.14844 4.78516l-2.3164-.8047m16.11718 1.23829l4.17578-5.65234m-4.17578 5.65234l-2.42578-.36328m15.85547.44531l3.94922-5.8164m-3.94922 5.8164l-2.4375-.26562m15.23047-.17188l4.99609-4.9414m-4.9961 4.9414l-2.34374-.73047m16.49609 1.35547l3.32031-6.19531m-3.32031 6.19531l-2.45313-.00781m16.32813.25l2.19922-6.67578m-2.19922 6.67578l-2.41797.41797m17.55078-.3164l-1.4375-6.87892m1.23047 5.875l-.9414.78907m16.62109-1.20703l-5.75-4.03907m4.91406 3.45313l-.15234 1.21484m14.9375-2.48437l-7.01953-.32813m6 .28125l.52343 1.10938m13.79688-1.5625l-6.99219.67578m6.99219-.67578l1.35547 2.04687m11.67578-3.13672l-6.42188 2.85547"/><g clip-path="url(#ai)"><path fill="none" stroke="#000" stroke-linecap="round" stroke-linejoin="round" stroke-miterlimit="10" stroke-width=".5" d="M466.77344 319.1211l1.92969 1.51171"/></g><path fill="none" stroke="#000" stroke-linecap="round" stroke-linejoin="round" stroke-miterlimit="10" stroke-width=".5" d="M465.83984 319.53516l.96485.7578"/><path fill="#ff3030" fill-rule="evenodd" d="M344.55078 463.21094h7.6914V453.0625h-7.6914v10.14844"/><path fill="azure" fill-rule="evenodd" d="M346.38281 454.89844h.83203v5.73828h3.19532v.74219h-4.02735v-6.48047"/><path fill="#00f" fill-rule="evenodd" d="M383.80078 432.14063h8.61719v-10.14454h-8.61719v10.14454"/><path fill="azure" fill-rule="evenodd" d="M385.63281 423.82813h.83203v2.82421h3.28907v-2.82421h.83203v6.48046h-.83203v-2.91796h-3.28907v2.91796h-.83203v-6.48046"/><path fill="#00f" fill-rule="evenodd" d="M224.01953 409.94922h8.61719v-10.14453h-8.61719v10.14453"/><path fill="azure" fill-rule="evenodd" d="M225.85156 401.63672h.83594v2.82422h3.28516v-2.82422h.83203v6.48047h-.83203v-2.91797h-3.28516v2.91797h-.83594v-6.48047"/><path fill="#ff3030" fill-rule="evenodd" d="M348.98828 401.07422h7.6914v-10.14844h-7.6914v10.14844"/><path fill="azure" fill-rule="evenodd" d="M350.82031 392.76172h.83203V398.5h3.19532v.73828h-4.02735v-6.47656"/><path fill="#ff3030" fill-rule="evenodd" d="M175.89063 392.19531h7.6953v-10.14453h-7.6953v10.14453"/><path fill="azure" fill-rule="evenodd" d="M177.72656 383.88281h.83203v5.73828H181.75v.7422h-4.02344v-6.48048"/><path fill="#ffffe0" fill-rule="evenodd" d="M341.74219 379.3789h22.1836v-10.1953h-22.1836v10.1953"/><path fill-rule="evenodd" d="M345.24219 371.01953h.51172v6.29297h-.78907v-4.48828h-1.38671v-.55469l.55859-.0664.2539-.0547.22657-.08984.20312-.14062.17578-.21094.14063-.29297.10547-.39453m4.8164 0l.22657.01953.21875.05469.21093.08984.19532.1211.18359.14844.17188.17578.30078.41796.24218.4961.1797.54687.11327.57813.03906.58984-.03906.59375-.11328.58594-.17969.55078-.24218.5039-.30079.42579-.17187.17969-.1836.15625-.1953.12109-.21094.09375-.21875.05469-.22657.01953-.23046-.01953-.21875-.05469-.20704-.09375-.19921-.1211-.1836-.15624-.17187-.1797-.30079-.42577-.24218-.5039-.17969-.55079-.11328-.58594-.03906-.59375h.83593l.02735.5625.08203.50781.125.44141.16406.375.1914.30078.21094.22266.22266.13672.22656.04687.22657-.04687.22265-.13672.21094-.22266.1875-.30078.16406-.375.125-.4414.08203-.50782.03125-.5625-.03125-.5625-.08203-.5-.125-.4336-.16406-.36718-.1875-.29297-.21094-.21094-.22265-.1328-.22657-.04688-.22656.04687-.22265.13281-.21094.21094-.1914.29297-.16407.36719-.125.4336-.08203.5-.02735.5625h-.83593l.03906-.58985.11328-.57813.17969-.54687.24219-.4961.30078-.41796.17187-.17579.1836-.14843.19921-.1211.20704-.08984.21875-.05469.23046-.01953m5.08985 0h.50781v6.29297h-.78516v-4.48828h-1.39062v-.55469l.5625-.0664.25-.0547.23047-.08984.20312-.14062.17578-.21094.14063-.29297.10547-.39453m2.82422 2.17578h.78515l.01953-.3164.0586-.28907.10156-.25.14063-.21484.17968-.17578.22266-.1289.26562-.08204.3086-.02734.23828.02344.22265.0625.20313.10156.17969.13672.14844.17578.11328.20312.07421.23828.02344.26172-.01953.26953-.0664.22657-.10938.1914-.15625.17188-.20313.16015-.24609.16797-.63281.38672-.53906.3164-.4375.31641-.34375.32422-.26563.33594-.1914.35156-.125.36719-.06641.39453-.02344.41797h4.21485v-.73828h-3.33594l.08594-.28516.11328-.23828.14843-.19922.1875-.17969.23047-.17187.27735-.17578.71875-.41797.41406-.20703.34375-.23047.28125-.25.22265-.26563.16016-.28125.11328-.28125.0625-.28515.01953-.28125-.03906-.38281-.1211-.34766-.1914-.3086-.25-.26171-.30078-.21485-.34766-.15625-.3789-.10156-.40625-.03125-.4336.03125-.39843.09766-.35547.16797-.30469.23437-.25.30469-.1836.375-.11718.44531-.03906.51953"/><path fill="#ffffe0" fill-rule="evenodd" d="M250.70703 441.25h22.17969v-10.1914h-22.17969V441.25"/><path fill-rule="evenodd" d="M254.20313 432.89063h.51171v6.29296h-.78906v-4.48828h-1.38672v-.55469l.5586-.0664.2539-.05469.22656-.08594.20313-.14453.17578-.20703.14063-.29687.10547-.39454m4.8164 0l.22656.01954.21875.05468.21094.08985.19531.1211.1836.14843.17187.17578.30078.42188.2461.49218.17969.54688.10937.57812.03906.58985-.03906.59375-.10938.58593-.17968.5547-.2461.5-.30078.42968-.17187.17969-.1836.15234-.1953.125-.21095.08984-.21875.0586-.22656.01953-.23047-.01953-.21875-.0586-.20703-.08984-.19922-.125-.1836-.15234-.17187-.1797-.30078-.42968-.24219-.5-.17968-.55469-.11328-.58593-.03907-.59375h.83594l.02735.5664.08203.5039.125.44142.16406.375.1914.30078.21094.22265.22266.13672.22656.04688.22656-.04688.22266-.13672.21094-.22265.1875-.30079.16406-.375.125-.4414.08203-.5039.03125-.56641-.03125-.5586-.08203-.5-.125-.4375-.16406-.36719-.1875-.28906-.21094-.21484-.22266-.13281-.22656-.04297-.22656.04297-.22266.1328-.21094.21485-.1914.28906-.16406.3672-.125.4375-.08204.5-.02734.55859h-.83594l.03907-.58985.11328-.57812.17969-.54688.24218-.49219.30078-.42187.17188-.17578.1836-.14844.19921-.1211.20703-.08984.21875-.05468.23047-.01954m5.08985 0h.5078v6.29297h-.78515v-4.48828h-1.38672v-.55469l.5586-.0664.25-.05469.23046-.08594.20313-.14453.17578-.20703.14063-.29687.10546-.39454m2.82422 2.17579h.78516l.01953-.31641.0625-.28516.09766-.2539.14062-.21485.17969-.17578.22266-.1289.26562-.07813.3086-.02734.23828.01953.22265.0625.20313.10156.17969.14063.14843.17187.11328.20703.07422.23438.02344.26562-.01953.26953-.0664.22266-.10938.1914-.15625.17188-.20313.16406-.2461.16407-.6328.39062-.53907.3125-.4375.3164-.34375.32423-.26562.33593-.1914.35157-.125.36718-.06641.39454-.02344.41796h4.21484v-.73828h-3.33594l.08594-.28515.11328-.23438.14844-.20312.1875-.1797.23047-.17187.27734-.17578.71875-.41797.41407-.20312.34765-.23047.27735-.2539.22265-.26563.16016-.27735.11328-.28515.0625-.28516.01953-.28125-.03906-.38281-.1211-.34766-.1914-.30859-.25-.26172-.30078-.21484-.34375-.15625-.38281-.09766-.40625-.03515-.4336.03125-.39844.10156-.35546.16406-.3047.23438-.25.30468-.18359.375-.11718.44531-.03907.51954"/><path fill="#ffffe0" fill-rule="evenodd" d="M183.30469 343.60547h22.17969v-10.1914h-22.1797v10.1914"/><path fill-rule="evenodd" d="M186.80469 335.2461h.50781v6.29687h-.78906v-4.49219h-1.38672v-.55469l.5586-.0664.2539-.05078.23047-.08985.20312-.14453.17188-.20703.14062-.29688.10938-.39453m4.8125 0l.23047.01954.21875.05468.20703.08985.19531.12109.1836.14844.17187.17578.30078.42187.2461.4922.17968.54687.10938.57812.03906.59375-.03906.58985-.10938.58593-.17969.55469-.24609.5-.30078.42969-.17188.17969-.18359.15234-.19531.125-.20703.08984-.21875.0586-.23047.01953-.23047-.01953-.21875-.0586-.20703-.08984-.19531-.125-.1875-.15235-.16797-.17968-.3047-.42969-.24218-.5-.17969-.55469-.11328-.58594-.03515-.58984h.83203l.02734.5625.08203.5039.1289.44532.16017.3711.1914.30077.21094.22266.22266.13672.22656.04688.22656-.04688.22266-.13672.21093-.22265.19141-.30079.16016-.37109.125-.44531.08203-.5039.03125-.5625-.03125-.5625-.08203-.5-.125-.4375-.16016-.36329-.1914-.29297-.21094-.21484-.22266-.13281-.22656-.04297-.22656.04296-.22266.13282-.21094.21484-.1914.29297-.16016.36328-.1289.4375-.08204.5-.02734.5625h-.83203l.03515-.59375.11328-.57812.1797-.54688.24218-.49219.30469-.42187.16797-.17578.1875-.14844.1953-.1211.20704-.08984.21875-.05469.23047-.01953m5.08984 0h.51172v6.29688h-.78906v-4.49219h-1.38672v-.55469l.5586-.0664.2539-.05078.22656-.08985.20313-.14453.17578-.20703.14062-.29688.10547-.39453m6.80469 1.6211h-.78516l-.05469-.21485-.07812-.18359-.10938-.16016-.1289-.1289-.14844-.10547-.16016-.07422-.16796-.04297-.17188-.01562-.32812.03906-.28516.1211-.2461.1953-.20702.26954-.16016.33593-.11328.40625-.07031.46485-.02344.52734.1875-.20312.1875-.16016.1836-.1211.1875-.08593.1875-.0625.1914-.03516.40234-.02734.30469.03125.32031.09375.3164.15625.29688.21875.2539.28515.19923.34766.07422.20313.05078.21484.02734.23438.00781.2539-.78906.04688-.02734-.26172-.07813-.25-.1211-.23438-.16015-.21094-.19531-.17578-.21875-.13671-.23828-.08985-.25781-.03125-.25391.03125-.23828.08985-.22266.13671-.1914.17579-.16016.21093-.125.23438-.07422.25-.02734.26172.02734.2578.07422.25.125.23438.16016.21094.1914.17578.22266.14063.23828.08594.2539.03125.25782-.03125.23828-.08594.21875-.14063.19531-.17578.16016-.21094.1211-.23437.07812-.25.02734-.25781.78906-.04688-.03125.3711-.09375.37109-.15625.35937-.22265.32813-.28906.28125-.17188.1211-.1875.10156-.20703.08203-.22266.0625-.24219.03515-.26171.01563-.28125-.01563-.26172-.04687-.23828-.07813-.21485-.10547-.19531-.1289-.17188-.15625-.15625-.17969-.1328-.20313-.1172-.22265-.09765-.24219-.14844-.53515-.08594-.59375-.02734-.64063.03906-.74219.11328-.66406.1875-.57813.1211-.2539.13672-.23047.15234-.20703.17188-.1836.1875-.15625.19921-.1289.21875-.10156.23438-.07422.2461-.04297.26171-.01563.36719.03516.33203.09375.29297.15234.25781.19922.21094.24219.16797.27344.11328.30078.0625.32422"/></g></defs><use xlink:href="#aj"/></svg>