<svg xmlns="http://www.w3.org/2000/svg" role="img" xmlns:xlink="http://www.w3.org/1999/xlink" viewBox="142.45 309.95 326.84 171.84"><defs><clipPath id="a"><path d="M144 447h1v33.32813h-1zm0 0"/></clipPath><clipPath id="b"><path d="M144 311.67188h1V435h-1zm0 0"/></clipPath><clipPath id="c"><path d="M144 311.67188h324v168.65625H144zm0 0"/></clipPath><clipPath id="d"><path d="M390 477h6v3.32813h-6zm0 0"/></clipPath><clipPath id="e"><path d="M467 311.67188h1v168.65625h-1zm0 0"/></clipPath><clipPath id="f"><path d="M144 479h4v1.32813h-4zm0 0"/></clipPath><clipPath id="g"><path d="M147 479h3v1.32813h-3zm0 0"/></clipPath><clipPath id="h"><path d="M153 479h9v1.32813h-9zm0 0"/></clipPath><clipPath id="i"><path d="M160 479h3v1.32813h-3zm0 0"/></clipPath><clipPath id="j"><path d="M166 480h9v.32813h-9zm0 0"/></clipPath><clipPath id="k"><path d="M173 480h3v.32813h-3zm0 0"/></clipPath><clipPath id="l"><path d="M180 479h8v1.32813h-8zm0 0"/></clipPath><clipPath id="m"><path d="M186 480h2v.32813h-2zm0 0"/></clipPath><clipPath id="n"><path d="M193 479h8v1.32813h-8zm0 0"/></clipPath><clipPath id="o"><path d="M199 480h2v.32813h-2zm0 0"/></clipPath><clipPath id="p"><path d="M206 479h9v1.32813h-9zm0 0"/></clipPath><clipPath id="q"><path d="M212 480h2v.32813h-2zm0 0"/></clipPath><clipPath id="r"><path d="M220 479h8v1.32813h-8zm0 0"/></clipPath><clipPath id="s"><path d="M226 480h2v.32813h-2zm0 0"/></clipPath><clipPath id="t"><path d="M233 479h8v1.32813h-8zm0 0"/></clipPath><clipPath id="u"><path d="M239 479h2v1.32813h-2zm0 0"/></clipPath><clipPath id="v"><path d="M246 478h9v2.32813h-9zm0 0"/></clipPath><clipPath id="w"><path d="M260 478h7v2.32813h-7zm0 0"/></clipPath><clipPath id="x"><path d="M275 477h5v3.32813h-5zm0 0"/></clipPath><clipPath id="y"><path d="M286 478h8v2.32813h-8zm0 0"/></clipPath><clipPath id="z"><path d="M300 478h8v2.32813h-8zm0 0"/></clipPath><clipPath id="A"><path d="M313 478h8v2.32813h-8zm0 0"/></clipPath><clipPath id="B"><path d="M326 478h8v2.32813h-8zm0 0"/></clipPath><clipPath id="C"><path d="M340 479h8v1.32813h-8zm0 0"/></clipPath><clipPath id="D"><path d="M340 478h2v2.32813h-2zm0 0"/></clipPath><clipPath id="E"><path d="M353 479h8v1.32813h-8zm0 0"/></clipPath><clipPath id="F"><path d="M352 477h2v3.32813h-2zm0 0"/></clipPath><clipPath id="G"><path d="M366 479h9v1.32813h-9zm0 0"/></clipPath><clipPath id="H"><path d="M365 477h3v3.32813h-3zm0 0"/></clipPath><clipPath id="I"><path d="M379 479h9v1.32813h-9zm0 0"/></clipPath><clipPath id="J"><path d="M378 478h3v2.32813h-3zm0 0"/></clipPath><clipPath id="K"><path d="M393 479h8v1.32813h-8zm0 0"/></clipPath><clipPath id="L"><path d="M391 478h3v2.32813h-3zm0 0"/></clipPath><clipPath id="M"><path d="M393 479h2v1.32813h-2zm0 0"/></clipPath><clipPath id="N"><path d="M406 479h8v1.32813h-8zm0 0"/></clipPath><clipPath id="O"><path d="M405 479h3v1.32813h-3zm0 0"/></clipPath><clipPath id="P"><path d="M406 479h3v1.32813h-3zm0 0"/></clipPath><clipPath id="Q"><path d="M420 477h7v3.32813h-7zm0 0"/></clipPath><clipPath id="R"><path d="M434 477h6v3.32813h-6zm0 0"/></clipPath><clipPath id="S"><path d="M448 476h4v4.32813h-4zm0 0"/></clipPath><clipPath id="T"><path d="M461 477h5v3.32813h-5zm0 0"/></clipPath><clipPath id="U"><path d="M144 466h4v2h-4zm0 0"/></clipPath><clipPath id="V"><path d="M144 452h4v3h-4zm0 0"/></clipPath><clipPath id="W"><path d="M144 439h4v2h-4zm0 0"/></clipPath><clipPath id="X"><path d="M465 437h3v2h-3zm0 0"/></clipPath><clipPath id="Y"><path d="M144 426h4v2h-4zm0 0"/></clipPath><clipPath id="Z"><path d="M465 424h3v2h-3zm0 0"/></clipPath><clipPath id="aa"><path d="M144 411h4v6h-4zm0 0"/></clipPath><clipPath id="ab"><path d="M465 410h3v2h-3zm0 0"/></clipPath><clipPath id="ac"><path d="M144 397h3v6h-3zm0 0"/></clipPath><clipPath id="ad"><path d="M466 398h2v2h-2zm0 0"/></clipPath><clipPath id="ae"><path d="M465 398h3v3h-3zm0 0"/></clipPath><clipPath id="af"><path d="M144 385h4v5h-4zm0 0"/></clipPath><clipPath id="ag"><path d="M466 384h2v3h-2zm0 0"/></clipPath><clipPath id="ah"><path d="M144 370h3v8h-3zm0 0"/></clipPath><clipPath id="ai"><path d="M144 357h2v7h-2zm0 0"/></clipPath><clipPath id="aj"><path d="M144 345h4v5h-4zm0 0"/></clipPath><clipPath id="ak"><path d="M144 331h4v6h-4zm0 0"/></clipPath><clipPath id="al"><path d="M144 318h4v5h-4zm0 0"/></clipPath><g id="am" clip-path="url(#clip1)"><path fill="#fff" fill-opacity="0" fill-rule="evenodd" d="M0 0h1000v1000H0zm0 0"/><path fill="#d3d3d3" fill-opacity="0" fill-rule="evenodd" d="M162.15234 355.86719l-.23437.29297.0586.23437.11718.17188.17578.23437.29297.34766.11328.0586.11719-.17188.0586-.23438.17577-.17578.46485-.17578h.69922l.23437.29297.28906.8164.0586.17579.17578.23046.35156.23438.69922.69922.17188.17578.23437.34765.23438.41016.28906.58203.41015.46485.23047.23437.23438.17578.11719.23047.17578.29297.17187 1.16406v.23438l.0586.28906.05859.11719.11719.11719.34765.41015.11719.17188.17578.17578.17578.23437.11719.17188.17188.35156.05859.23438.23437.40625.23438-.0586-.17578.17578-.0586.92969h-.58203l-.23437-.11328-.34766.11328-.11719.11719-.05859.29297-.0586.17578-.11718.17187-.46484.29297-.0586.23438-.0586.11328v.64453l.0586.17187v.41016l.0586.0586v.40624l.05859.40625.11719.17579.05859.05859.23047.64062-.0586.29297v.69922l-.05859.58203v.23438l-.0586.23047-.05468.35156v1.92187l.05469.1172h.42578l-.36719.11718-.02344.35156.89063 1.16797 1.74219.53906 1.33984.35938v.53906l.08984.8086.53516.71484 1.51953.26953.89063-.08594.08984 1.16406.53516.1797 1.16015-.1797 2.05469-.98437 1.16016-.36328 1.8789-.17578 1.69531-.1797-.17968.71876-1.51563.08594-1.25.08984-.80469.26953-1.07421.8086.26953.71875.53515.89843-.17968.625-.26563.8086.26563 1.07812.625.89844.80468.17969 1.25-.1797-.26562.72267.09766.5039.05468.29297v.17188l.0586.29296v.40625l.17578.1172.35156.11718h.40625l.29297-.17578.11328-.11719.0586-.11719.11718-.23047.0586-.17578.35156-.46484.23047-.17578.17578-.0586.17578.0586.0586.17578.11718.98828.05469.46875.0586.17188.11718.23437.17578.0586.8164.05859h.28907l.11719.23437.05859.40625.0586.35156v1.10547l.11718.29297.11719.34766.28906.69922.17578.35156.58203.7539.35157.17579.17187.0586.46875.23437.64063.46484.34765.23438.29297.17578.29297.05468.23047.0625.8164.34766.29297.17578.11328.17188.35157.35156.11719.17578.52343.64063v.28906l.0586.35156v.34766l.05859.35156.0586.28906.11718.0586.17188.05859h.17578l.58203.23437.17578.1172.17578.28905.17578.23438.11328.23437.29297.23047.11719.11719v.41016l.0586.05468.28906.23438.23437.11719.0586.11718.11718.17188.0586.11719.23047.23437.05859.17578.23437.0586.1172.05859-.1172.11328-.05859.11719v.11719l-.11719.29296-.11719.28907v.58203l.17579.11719.11718.05859.0586.11719.11719.11719.11328.05859.17578.34765.0586.35157.05858.40625v.17578l-.05859.17578-.11719.69922v.17187l.1172.17579.29296.29296h.40625l.17578.1172.11719.17187.11719.29296v.23438h-.52735l-.23047-.23438h-.23437l-.17578.0586-.0586.69922.0586.34765.11719.17579.17578.41015.11718.23047.28907.46875.17578.05469h.52344l.23437.0586.75781.64062.0586.29296v.23438l.05859.0586.23047.34765v.35156l-.11719.17188v.29297l.29297.28906.29297.17578.17187.0586.29297.17577.29297.1172.58203.40624.28906.23438.29297.17578.21875.16015.01563.01172.23047.17579.64062.52343.17578.23438.1172.17578.17577.17578.11328.17188v.64062l.1172.17578.46874.11719.58203.11719.23438.05859.23047.11328.29297.11719.11328.0586.58593.35156.28907.17187.17578.0625.17578.05469.17578.0586.69922.35155.28906.17579.23438.05468.28906.17578.23437.1172.64063.40624.29297.11719.17187.0586.23438.05859.41015.05859.23047.0586.23438.11718.0586.17188-.41017.17578.46875.0586.0586.29296.11328.23438.17578.05468.23438.0586.17578.05859.40625.11719.64062.23437.11719.17188.0586.23437v.17578l-.0586.1172-.0586.40624.23438.23438.11719.05859.34766.11719.64062.23047.17578.11718.28906.1172.17578.17577.23438.46485.58203 1.10546.17578.17579.34766.17578.17578.11719.35156.11718 1.04688.52344.23437.0586.46485.11327.29297.0586.46484.17578.75781.58203.23438.23438.34765.46484.17578.17578.28907.23438.8164.69921.29297.17579.28906.28906.29297.17578.29297.28906.69531.64063.17578.17578.29297.23437.28907.23438.46875.28906.64062.58203.34766.23438.23437.29297.34766.34765.35156.46485.9336.99218.34765.40625.11719.17579.23437.05859.11328.11719.64454.17578.23047.11328.23437.0586.29297.17577.23047.1172.9336.69921.40624.40625.23438.17578.40625.17578.23437.11719.8164.34766.34766.23437.23438.11719.29297.28906.23047.11719.7578.35156.35157.17188.23047.05859.29297.11719.23437.0586.8711.17577h.8164l.46875.23047.17188.0586.875.69921.46484.1172.29297.05858.17578.0586.23047.0586.46875.05859.34766.05859.35156.0586.40625.05859h.29297l.17187.0586v.23046l.17578.17578h.29297l.34766.0586.35156.05859.69922.11719h.64063l.46484-.23438.29297-.17578.17187-.11719.41016-.17187.28906-.17578.9336-.46485.46875-.29297.52343-.29296.46485-.17188.46484-.17578 1.05078-.46485.28906-.11718.41016-.11719.28906-.11719.52735-.17578 1.51562-.69922.58203-.34765.28907-.0586.29297-.0586.34765-.11718.875-.23047.35156-.11719h.11329l.23437-.05859.875-.23437.23438-.0586h.8125l.35156-.0586.8164-.11718.17188-.0586.35156-.05468.29297-.0586.23047-.05859.8164-.17578.17579-.0586h.34765l.23438-.05859.46484-.11718.75781-.17188.23438-.0586h.34765l.41016-.11718.28906-.0586 1.28516-.05859h.28906l.41016-.0586.23047-.05858h.17578l.875-.1172h.40625l.41015-.11718h.34766l.35156-.11328.8711-.0586h1.75l1.04687.28907.41016.11719.28906.11718.35156.11719.28907.11719 1.05078.17187.28906.0586h.29297l.29297.05859.17187.0586.41016.05859.17187.0586.1172.05858h.11718l.11719.0586.35156.0586h.11328l.41016.0664 1.92187.39453 1.92578.39453 1.51953.44922 1.69532.71875 2.14453.80469 1.60547-.71875 1.42968-.80469 1.16016-1.07813 1.25-.44921 3.03516-.71875 1.875-.35938 2.14453-1.34765 2.23437-1.25391 2.5-1.25781 1.69531-.44922 1.78516-.17969 1.16016-.26953.625.53906 1.33984-.26953.71485-.98828.98437-1.34375.44531-.17969.80469-.35937 1.875-.53907 1.78516-.44921 1.25-.26954 1.16015-.08984 1.69922-.08984 1.96094-.26954 1.25-.08984h.53906l.625-.08984h.89063l2.14453-.17969 2.41015-.17969 2.58985-.08984 1.69531.17969 1.60938.08984 1.42968.35938 1.16016.71875 1.875.98828 1.16015 1.52734.26563.71484.6289.08985.35548.89844.53515.53906.53516 1.52734 1.07422.35938h.53515l-.80469.53515.08985 1.70703.71484 2.69532.89063.80468.89453.98829.71484 1.2578 1.78516.53907 1.51953-.17969.35547 1.34375 1.60937-.80469.98047-.53906.26953.26953.31641-.21484.21875-.14453.80078.44922.44922-.35938h.35547l.53515-.26953.53907-.71875.53515-.26953.625-.98828 1.16016.44922.83984.3711 1.39454.61718 1.6953-.17969h1.60548l1.78515.08985.17969-1.70704.53516-1.34375.80468.26954.4922.84765.40233.40625-.08984.53906v.35938l.71485.44922.71093-.26953h1.42969l.35938.98828.4453 1.25781.71485 1.34375 1.25.6289 1.69531.62891.71485-.17969.17969-.53906.98046-.08984.44922.35937.08594 1.25782-.26563.6289-.53515.17969v.53906l.71484.98438.26563.53906.98437.98828.80078 1.07813-.26562.35937-.08985.89844-.625 2.33203-.35546 2.0664-.08985 1.79298-.17969.71875-.08984.53906v1.4375l-.98047 1.88281-.35937 1.70703-.53516.89844-.80469 1.16797-.26562.53906 2.05469 1.2539.08593.35938-.35546.53906-.08985-.17968v.80859l.08985 1.4375-.44532.71484-1.07422.09375-.26562.71485.53515.89844.8047.71875 1.16015.80859 1.33984.26953.44531.35938-.35546.44921-1.78907-.08984-1.25-.44922-.71484-.71875-.625-.08984-.17578 3.58984-.1875 1.3086h89.35937V311.70313h-55.26953v49.08203l.76172.125 3.28906.54296 2.02344 2.83594v2.7539l2.35156.33204 2.34766.33203h4.05078l-1.3789 4.16016-2.02344.70703-2.02344.70312-.54297.34375-2.59375 1.6172-.1875.11718-2.02344-2.07813-.73046-2.74218-2.67188-2.07813-1.375-3.5-.0664-.08203-1.95704-2.67188 2.75-1.41796v-49.08204H294.42187v91.41407l.1172.03125.1328.01172.07422.07421.10547.04688.08985.0586.08593.05859.08985.0586.29687.29687.0586.08984.03125.11719.02734.11719.01563.13671-.03125.1172-.0586.08983-.0586.08594-.04296.10547-.04688.10156-.02734.1211v.14453l.17578.26953.14844.14844.07422.08594.07422.07421.04296.10547.0625.08985.0586.08593.04297.10547.0586.08985.04687.10156.04296.10547.0586.08594.11719.17968.07421.07422.0625.08594.0586.08984.04297.10547.0586.08985.05858.08593.0625.08985.0586.08984.04297.10156.11719.17969.07421.07422.0586.08594.07422.07421.08984.0586.10547.04687h.14844l.1328-.01562.13282.01562.10156-.04687.07422-.07422.04688-.10156-.01563-.13281v-.14844l-.04687-.10547-.02735-.11719-.04687-.10156-.02735-.1211-.04296-.10156-.0625-.08984-.04297-.10156-.04297-.10547-.03125-.11719-.01563-.13281-.01171-.13672.08593-.0586.0586-.08593.12109-.03125.04297.10547.01562.1328v.1172l.0586.10156.0586.08984.08983.0586.14844.14843.0586.08985.04296.10547-.01171.10156.08593.0586.10547.04687.08594.0586.08984.05858.07422.07422-.11719.02735-.10546.04687-.08594.0586-.07422.07421-.0586.08985-.0625.08594-.02734.12109-.04687.10156-.04297.10547-.03125.11719-.01172.13281-.01563.13281v.14844l.02735.11719.04687.10547.04297.10156.0586.08984.07421.07422.08985.0586.07422.07421.08984.0586.0586.08984.04296.10547.04688.10156.11719.03125.1328.01563h.14845l.11718-.03125.10547.04297.04297.10547.04688.10156.02734.1211L299.5 410l.02734.11719.03125.1211.02735.11718.10547.04297.10156.04687.13281-.01562.14844.14844.0625.08593.07422.07422.07031.07422.08984.0625.10547.04297.10156.04297.1172.03125.13671.01562.11719-.03125.07422-.07422.02734-.11718-.01172-.13282-.03125-.12109-.02734-.11719.04297-.10547h.11719l.08984.0625.11719.02735h.14843l.13282.01562h.14843l.13282.01563.1328-.01563h.14845l.1328-.01562.13282-.01172.13672.01172.11719-.02735.13281-.01562.1914-.0586-.05859.17579-.01562.1328-.02735.1211-.01562.13281-.0586.08594-.1328.01563-.10548.04687-.10546.04297-.1172.03125-.11718.02735-.26563.03125h-.14843l-.13281.01562-.07422.07422.05859.08594.14844.14843.11719.1797.07421.0703.08985.0625.08984.0586.08594.0586.08984.05858.10156.04297.10547.0625.10547.04297.08594.0586.10547.04687.10156.04297.17969.11719.0586.08984-.04298.10156-.04687.10547.01562.13281.22266.22266.0586.08985.04296.10156.03125.1211.04297.10155.01563.13282.03125.11718.01171.13672.03125.11719.14844.14844.10156.04297.10547.04296.1172.03125.1328.01563.13672.01563h.11719l.11719-.03125.08984-.0586.04297-.10547.04688-.10156.04296-.10547.03125-.11719.01172-.1328v-.14845l-.01172-.1328-.01562-.13282-.03125-.11719-.04297-.10547-.04688-.10547-.04296-.10156-.04297-.10547-.01563-.13281.01563-.13281.02734-.11719.03125-.11719.02735-.1211.04687-.10155.08984-.0586.08594-.0625.07422-.07422.08984-.05859.22266-.22266.0586-.08593.07421-.07422.11719-.17969.0586-.08594v-.14844l-.07423-.07421-.10156-.04688-.10547-.04297-.10156-.04297-.0586-.08984-.04687-.10547-.02734-.11719.08984-.05859.11719-.03125.10156-.04297.17969-.11719.14844-.14843.01172-.13282-.01172-.10546-.08985-.0586-.1328.01563h-.14845l-.1328.01562-.13282-.01562-.1211-.03125-.08593-.0586-.07422-.07422-.0586-.08984-.0625-.08594-.11718-.17969-.0586-.08593.03125-.1211.08594-.05859.1211-.03125.05859-.08594v-.1211l-.03125-.11718-.0586-.08984-.05859-.08594-.04687-.10547-.02735-.11719-.01562-.1328.0586-.08985.07421-.07422.08984-.0586.1172-.17968.07421-.07422.0586-.08594.14843-.14844.1211-.03125.1328-.01562.13282.01562.07422.07422.04297.10547.01562.13281-.03125.1172-.11719.03124-.1328.01172-.14844.14844-.04297.10547-.04688.10156-.02734.1211-.03125.11718v.14844l.03125.11719.04297.10546.05859.08985.07422.07031.07422.07422.11719.03125.12109.02734.11719-.02734.1328-.01563h.1172l.08984.0586.07422.07422.04687.10546.0586.08594.10156.04688.13281.01562.10547.04297.08594.0586-.01172.10546-.07422.07422-.17969.11719-.05859.08984-.08984.0586-.07032.07422-.07421.07421-.0625.08985-.02735.11719-.01562.1328.01562.13282-.01562.13281v.14844l.01562.13281.02735.1172.03125.12108.07421.07422.08985.0586.08594.0586.08984.05858.11719.03125v.08594l-.10157.04688-.08984.0586-.26563.03124-.11718.02735h-.14844l-.10547.04296-.10156.04688-.0586.08984-.0625.23438-.01171.13281-.03125.1211-.01563.1328v.29298l-.01172.1328.01172.13673.01563.1328.1328.01563.13282.01172.1211.03125.08593.0586.07422.07421.04688.10547.04296.10157.01563.1328v.44532l-.01563.13281v.44532l.03125.26562.02735.11719.01562.13281.03125.11719.08594.21094.03125.26562v.14844l-.03125.11719-.02734.11718-.03125.1211-.02735.11719-.03125.11718-.03125.1211-.01171.1328-.01563.13282.08984.0586.1172-.03125.10155.01562.04688.10547-.03125.26562v.44141l-.04297.10547-.04688.10547-.04296.10156-.04297.10547-.0586.08594-.03125.12109-.04296.11719-.03125.11719-.01563.1328.01563.13282.05859.08984.10547.04688.08594.0586.05859.08593-.01172.13672-.03125.11719-.04297.10156v.44531l-.01562.13281v.14844l-.03125.11719-.04297.10547-.02735.11719-.04687.10546-.04297.10157-.03125.12109-.02734.11719-.03125.13281-.03125.11719-.02735.11719-.04297.10546-.03125.1172-.03125.12108-.01171.13282-.01563.13281v.29688l.02734.11718v.14844l.04688.39844.02734.11719.0586.08984.12109.03125h.14844l.13281-.01563.0586.08985v.11719l-.0586.08984-.08984.0586-.10157.04296-.10546.04688-.08985.05859-.08594.0586-.13671.01562-.1172-.03125-.1328-.01563-.10157.04688-.0625.08594-.01172.13671-.01562.13282-.03125.11719-.02735.11718-.01562.13281-.03125.1211v.29687l.01563.13282.03125.11718v.14844l.01171.13281v.14844l-.02734.11719-.04688.10156-.02734.1211-.03125.11718-.0586.08985-.07421.07421-.10156.04297-.10547.04688-.11719.02734-.1211.03125-.10156-.04687.0586-.08594.10547-.04688.02734-.11718.03125-.11719.02734-.1211.03125-.11718v-.14844l.01563-.13281-.03125-.11719-.04297-.10547-.10547.01563-.07422.07422-.10156.04296-.08984.0625-.07422.07422-.04297.10157-.01563.1328-.03125.1172L304.25 426l-.03125.11719-.02734.11719-.03125.12109-.02735.11719-.03125.11718-.04297.10547-.08984.0586h-.08984l-.1172-.03125-.03124-.08594.01562-.13672-.03125-.11719v-.14844l-.01171-.1328v-.14844l-.0625-.23438-.02735-.1211-.04297-.10156-.04687-.10546-.0586-.08594-.05859-.08985-.04297-.10546-.0625-.08594-.14844-.14844-.0703-.07422-.10548-.04687-.10547-.04297-.10156-.04297-.29687-.29688-.08985-.07421-.08594-.0586-.10546-.04297-.08985-.0625-.08594-.0586-.10546-.04296-.08985-.0586-.08594-.0625-.07421-.0703-.10547-.04688-.08594-.0586-.10547-.04296-.08984-.0625-.10156-.04297-.10547-.04297-.08594-.0586-.10547-.04687-.10547-.04297-.10156-.04687-.08985-.0586-.10156-.04297-.10547-.04296-.08984-.0625-.11719-.02735-.13281-.01562-.13281.01562H299.75l-.13281.01563-.11719-.03125-.08984-.0586-.07422-.07422-.08985-.05859-.10156-.04688h-.14844l-.12109-.02734-.10156-.04297-.07422-.07422-.11719-.17968-.08984-.0586-.10156-.04297-.08985-.0625-.10547-.04296-.08984-.0586-.08594-.0586-.10547-.04687-.0586-.08594-.05858-.08984-.04297-.10547-.04688-.10156-.07422-.07422-.08594-.0586-.07421-.07421-.08985-.0586-.22265-.22265-.04297-.10547-.03125-.26563.10547-.04296h.14453l.10547.04296.07421.07422.08985.0586.08594.0586.10546.04687.08985.05859.14844.14844.0703.07422.14845.14843.0625.08594.07421.07422.08594.0586.07422.07421.08985.0625.08984.0586.08594.05859.26953.17578.10156.04688.10547.04296.10156.04297.04688-.07421.05859-.08594.07422-.07422.07031-.07422.10547.04297.07422.07422.0586.08984.04296.10156.04688.10547.04296.10547.1211.02735.11719-.02735.07421-.08984.04297-.10547.0586-.08985.07422-.07421.10546-.04297.1172-.02735.1328.01172.08985.0586.14844.14843.05859.08985.04297.10547.04687.10156.04297.10547.04297.10156.10547.04688.10547.04296.13281.01563.08594-.0586.0586-.08984.07421-.07422.10547-.04297.11719.02735.10547.04687.10156.04297.10547.04297.10156.04688.17969.11718v.11719l-.01563.13281.01563.13281.01562.13672.0586.08594.10156.04688.1211.02734.11718.03125h.14844l.11719-.03125.05859-.08984.17969-.1172.05859-.08983.07422-.07422.0586-.08594.11718-.17969.17969-.11719.11719.03125.08984.0586.04297.07422-.01563.1328v.1172l.08985.05859h.14843l.13282-.01563.1328-.01171.26563-.03125.10547-.04297.11719-.03125.1211-.02735.07421-.07421.07031-.07422.0625-.08985-.01562-.10547-.04688-.10156-.10156-.04297-.10547-.01562-.11718.02734-.26563.03125h-.14844l-.07421-.07422-.08985-.0586-.11719-.03124-.11718-.02735-.13282-.01562h-.14843l-.13282.01563h-.29687l-.10547-.04688-.14844-.14844-.04297-.10156-.05859-.08984.22266-.22266.08593-.0586.10547-.04296.11719-.03125.13281-.01563.13281.01563.13672.01562.10157.04297.1328-.01172.08985-.0625.10156-.04297.0625-.08984-.04687-.10156-.08984-.0586-.1172-.03125-.10155-.04296-.0586-.08985-.0625-.08984v-.11719l.01563-.13281.10547-.04688.07421-.07031v-.1211l-.08984-.05859-.03125-.11719.08985-.05859.07421-.07422.04297-.10547.0586-.08984.04687-.10156.01563-.13281v-.14844l-.04688-.10547-.04297-.10156-.08984-.0586-.13281-.01562-.10157-.04297-.13671-.01563-.1172-.03125h-.4453l-.13282-.01562-.13281-.01172-.13281-.01563-.11719-.03125h-.14844l-.13281-.01562-.13281-.01172-.26563-.03125-.1211-.04297-.08593-.0586-.07422-.07421v-.14844l.01172-.13281.10547-.04688.10156-.04296.13281-.01563h.15235l.13281-.01562h.29297l.1211.03125.10156.04296.08984.0586.23438.0625.12109-.04688.08984-.05859.10156-.04297.13282-.01562.10547.04296.10156.04688.13281.01172.1211-.02735h.14453l.12109-.03125.11719-.02734.10547-.04687.07421-.07422.08594-.0586.14844-.14843.0586-.08594.04687-.10547.02734-.11719.01563-.10547-.10156-.04296-.08985-.0586-.11719-.03125-.10546-.04297-.08985-.0625-.07422-.08594-.07422-.07421-.10156-.04297-.10547-.04688-.10156-.04297-.0586-.08984-.04687-.10156-.08594-.21094-.0625-.08594-.05859-.08984-.07422-.07422-.08594-.0586h-.26953l-.11719.03126-.08984.05859-.10156.04297-.13281.01562-.10547-.01562-.02735-.11719-.0625-.08984-.11718-.03125-.10157-.04297-.14843-.14844-.03125-.11719-.01563-.10546.07422-.07422.17969-.1172.11719-.02733.11718-.03125.13672.01562.10156.04297.10547.04297.10156.04687.10547.04297.1172.03125.1328.01563.1172.02734.1328.01563.10547-.01563.08985-.0586-.07422-.07421-.10547-.04297-.07422-.07422-.07422-.08984-.14844-.14844-.08593-.0586-.08985-.05859-.07422-.07422-.08984-.0586-.10156-.04687-.1211-.02734-.10156-.04688-.10547-.04296-.11719-.03125-.10156-.04297-.1211-.03125h-.14843l-.11719.03125-.10546.04297-.08594.0625-.17969.11718-.08594.0586-.08984.0586-.10547.04687-.08594.05859-.10547.04297-.10156.04297-.10547.04687-.07422.07422-.05859.08985-.0586.08593-.04687.10547-.0586.08594-.07421.07422-.13281-.01172-.1172-.03125h-.11718l-.07422.07422-.08984.0586-.07422.07421-.08984.0586-.08594.05859-.10547.04687-.10156.04297-.13672.01563-.10156-.04297-.14844-.14844-.10547-.04688h-.08594l-.10547.04688-.10156.04297-.1211.03125-.11718-.03125-.07422-.07422v-.11719l.03125-.1211.07422-.0703.0586-.08985.07421-.07422.11719-.03125.10547-.04296h.29297l.13281-.01563.13672-.01563.10156-.04296.08985-.0586.10156-.04687.08984-.0586.13281-.01171.08985.05859.13281.01172.08984-.0586.08594-.05859.10547-.04297.08984-.0586.08594-.0625.08985-.05859.14843-.14843.0586-.08594.05859-.08985.10547-.04296.13281-.01563.11719.02735.1211.03125.05859-.0586.05859-.08984.03125-.26563.02734-.11719.10547.01172.13281.01563.10157-.04297.08984-.0586.0586-.08984.07421-.07422.0586-.08984.04687-.10156.01172-.13281-.01172-.13282-.04687-.10547-.14844-.14843-.0586-.08985-.05859-.08594-.04297-.10546v-.44532l.01563-.1328v-.14845l.01172-.1328-.0586-.0586-.08984.0586-.10156-.04298-.17969-.11719-.08594-.05859-.0625-.08984-.0586-.08985-.07421-.07421-.08594-.0586-.1211.03125-.10155.01172-.10547.04688-.08594.05859-.10547.04297-.14844.14844-.08984.05859-.08594.0586-.08984.0625-.10547.04296-.13281.01563v-.1211l.10547-.04297.11718-.03125.07422-.0703.04297-.10548v-.14844l-.02734-.11718-.14844-.14844-.13281-.01563h-.14844l-.11719.03125-.10547.04297-.10156.04297-.08984.0625-.11719.02735-.07422-.07422.01172-.13281-.04297-.10157-.04297-.10547-.08984-.05859-.11719.02734-.1211.03125-.11718.03125-.10156.04297-.1211.03125-.10156.04297-.10547.04297-.08984.0586-.10156.01562v-.11719l.01562-.13281-.0586-.08985-.07421.04297-.14844.14844-.0586.08985-.07421.07421-.04688.10547-.04296.10156-.07422.07422-.0586.08985-.07422.07422-.05859.08593-.07422.07422-.08984.0625-.07422.07031-.07422.07422-.10156.01563-.13281.01562-.10547-.04296v-.1211l.14843-.14844.04297-.10156.0586-.08984.04687-.10156.04297-.10547.0586-.08985.03124-.11719.04297-.10156.03125-.1211.02735-.11718.04687-.10547.04297-.10156.04297-.10547.07422-.07031.08984-.0625.08985-.0586.10156-.04296h.29687l.26563-.03125.10547-.04297-.07422-.07422-.11719-.03125-.10547-.04297-.08984-.0586-.10156-.04687-.08985-.0586-.10156-.04296-.10547-.04297-.08984-.0625-.08594-.0586-.10547-.04296-.10156-.04297-.1211-.03125-.11718-.03125-.10157-.04297L297.5 410.25l-.10156-.04297-.08985-.0586-.04296-.10546-.01563-.13281.10156-.04297.13281-.01563.13672.01563.13282-.01563.10156-.04297.0586-.08984.01562-.10547-.08985-.0586-.07421-.07421-.10157-.04297-.08984-.0586-.14844-.14843-.04297-.10547-.01562-.13281v-.29297l-.0586-.08985-.08984-.05859-.07422-.07422-.04297-.10547-.03125-.11718-.0586-.08985-.07421-.07422-.11719-.02734-.07422-.07422-.08984-.0586-.08984-.0625-.08594-.05859-.07422-.07421-.0586-.08594-.04687-.10547-.08594-.0586-.14843-.14843-.19532-.0586-.1328.01563-.10157.04297-.07422.07422-.04688.10156-.04296.10547-.0586.08984-.0586.08594-.29687.29687-.08984.0586h-.08594l-.0625-.08594-.04297-.10547.03125-.11719.0586-.08984.02734-.11719-.01172-.13281-.08984-.0625-.10547.04688-.11719.02734-.11719.03125-.26953.17578-.10156.04688-.11719.02734-.10546.04687-.08985.0586-.10156.04297-.0586-.08594-.04687-.10547.01563-.13281.04687-.10547.07031-.07422.07422-.07031.0586-.08985v-.14843l-.04297-.10547h-.23829l-.10156.04687-.03125.11719-.02734.11719-.03125.1211-.07422.04296-.13281.01563-.07422-.04688-.04297-.10156-.04297-.10547-.04687-.10156-.04297-.10547-.1211.03125-.10156.04297-.13281.01562-.11719.03125-.10547.04297-.08984.0586-.10156.04687-.1211.02734-.13281.01563-.10156-.04297-.0586-.08985-.04687-.10546-.04297-.10157-.04297-.10546v-.1172l.0586-.08984.08593-.05859.17969-.11719.10156-.04687.10547-.04297.10547-.0586.10156-.04296.08985-.0625.10156-.04297.10547-.0586.10156-.04687.08984-.0586.10547-.04296.10156-.04297.08985-.0625.10156-.04297.13672-.01563.11719.03125.10156.04297.1211.03125.10156.04297.10546.04688.10157.04296.10547.04297.10156.04688.10547.04297.10156.04297.10547.04687.08594.0586.10546.04296.1172.03125.10546.04297.10156.04688.08985.0586.10547.04296.10156.04297.10547.04687.11719.02735.10156.04687.1211.02735h.14843l.08594-.0586.01562-.10156.0586-.08984-.02735-.1172-.07422-.07421-.11719-.17969-.07421-.07422-.08985-.07421-.17969-.1172-.08593-.05859-.10547-.04296-.10156-.04688-.26954-.17578-.05859-.08985-.07422-.07421-.0586-.08985-.04296-.10156-.03125-.11719-.01563-.13672v-.5625l-.01171-.1328-.01563-.13282-.03125-.11719-.01562-.13281-.01172-.13281-.03125-.1211-.22266-.22265-.0586-.08594-.01562-.10547.03125-.11719.13281-.01562v-91.41406H172.9922v1.45312l-.0586.23438-.35156 1.05078-.17187.52343-.1172.34766-.17577.41016-.11719.17187-.23438.29297-.23046.0586h-.35157l-.11718.05859-.23047.40625v.29297l.11719.17578.23046.23047.1172.23437.64062.75781.29297.46485.17578.23437.23047.35156.23437.34766.64063.8164.17578.46485.17187.41016.11719.69531.17578.46875.11719 1.39844.0586.46484v.875l.11718 1.04688v4.78125l-.0586.46484-.35156 1.28125-.17578.52344-.11328.41015-.35156.9297L172.93359 336l-.23437.58203-.11719.17578-.17187.34766-.17578.40625-.35157.8164-.0586.29297-.11327.29297-.11719.28906-.0586.17579-.11718.875-.0586.40625-.05859.11718-.0586.17579-.05859.17187-.23047.52734-.11718.17188v.23437l-.11719.23438-.0586.17187-.17577.58594v.28906l-.0586.17579v.29296l-.0586.11329-.05859.52734v.17187l-.05468.23438v2.6211l-.17578.8164-.1172.17578-.17577.23438-.1172.17187-.11327.23438-.58594.93359-.23047.28906-.29297.46485-.17578.23437-.28906.35156-.35156.69922-.11328.23047-.17579.41016-.17578.23046-.40625.52735-.8164.69922-.29297.17187-.28906.23438-.17579.11719-.17578.17578-.52344.40625-.52734.17578-.17187.17578-.23438.05469-.64062.17578h-.75782m12.21094 31.02344l-1.07422.44921.35938.89454 1.25-.71485.44531-.53906-.98047-.08985"/><path fill="#d3d3d3" fill-opacity="0" fill-rule="evenodd" d="M201.50781 416.59766h-.89453l.44922.6289.98047.35938.80469-.08985.4453-.98828-.17577.08985-.71485-.35547-.89453.35547m154.6211 59.0703l-.0586-.52343v-.29297l.11328-.29297.0586-.23046.46875-.46875h.11328l.11719-.11329.11718-.05859h.17579l.23437-.0586h.34766l.23437.0586.11719.0586.23047.17187.0586.17578.11718.58203v.29297l-.11719.17578-.17187.28906-.17579.17579-.52734.52343-.23047.23438-.11719.0586h-.17578l-.11718-.0586-.40625-.29297-.17579-.11719-.11718-.0586-.0586-.11327-.05468-.1172m6.64062-10.95702l-.0586-.17188v-1.10937l.0586-.17188.17578-.0586.17188-.05858h.17578l.23437-.0586.1172.0586.05858.69921-.05859.17188-.11719.17578-.11718.0586-.23438.52343-.11328.0586h-.23438l-.05859-.1172m9.61328-14.39062l-.11719-.17578v-.69922l.29297-.875.1172-.17187.17577-.35156.11328-.23047.1172-.29297.35155-.75781.1172-.23047.17187-.23438h.17578l.11719-.0586h.64062l.11719.0586.23437.23438.17188.11328.35156.29297.11719.11718.11328.17579v.11328l.11719.05859.11718.11719v.69922l-.05859.17578v.23047l-.0586.17578-.34765 1.05078-.11719.23047-.11719.23437-.11718.0586-.23047.23437-.64063.28906h-.875l-.41015-.11718-.64063-.46485"/><path fill="none" stroke="#bebebe" stroke-linecap="round" stroke-linejoin="round" stroke-miterlimit="10" stroke-width=".5" d="M467.95703 311.69531H144.02734v168.625h323.9297v-168.625"/><g clip-path="url(#a)"><path fill="#fff" fill-opacity="0" fill-rule="evenodd" d="M144 475.89063v4.4375h.0039H144V447.8203v28.07031"/></g><g clip-path="url(#b)"><path fill="#fff" fill-opacity="0" fill-rule="evenodd" d="M144 431.50781v3.39453-123.23046h.0039H144V431.5078"/></g><path fill="#50fcfc" fill-rule="evenodd" d="M144 445.16016v2.66015h.0039v-2.66406l-.0039.0039"/><path fill="#00e8fc" fill-rule="evenodd" d="M144 437.61719v7.54297l.0039-.00391v-7.53516l-.0039-.0039"/><path fill="#50fcfc" fill-rule="evenodd" d="M144 434.90234v2.71485l.0039.0039v-2.71875H144"/><g clip-path="url(#c)"><path fill="#fff" fill-opacity="0" fill-rule="evenodd" d="M144.0039 480.32813V447.8203l2.9922-3 .67968-4.4375-2.61719-4.4375-1.05468-1.04297V311.67188h146.46093v107.24218l-3.89453 3.71485-.54297 3.82812-4.4375-2.3164-4.4375.08593-4.4414.53516-2.01953 2.3086-1.91016 4.4375 3.92969 3.72656 4.4414-.00782 1.125.71875 1.79688 4.4375-1.8086 4.4375-1.11328.9961-.79687-.9961-3.64453-3.47656-.73047-.96094-3.70703-2.89844-3.97656 2.89844-.46094 3.34375-4.4375-2.95312-4.4414.0664-4.4375.59766-.12892-1.05469.12891-2.3086 4.4375 1.44532 4.4414.59766 3.89063-4.17188-3.89062-4.0586-4.4414 1.4336-4.4375.63281-1.4297-2.4453-3.0078-3.02735-4.4375-.4961-4.4375-.11718-4.44142-.45313-1.40234-.34375-3.03516-2.64062-4.4375-.44531-4.17578-1.35547-.26172-.1836-.27734.1836-4.16016 1.85937-4.4414-.73828-4.4375-.28516-3.03516-.83593-1.40234-1.33204-4.4375-1.40234-4.4414-.44922-4.4375 1.33594-3.08985 1.84766-1.34766.48046-4.4375 1.66407-3.47656 2.29687-.96484.26563-4.4375 1.65234-4.4375 1.52344-1 .9961-3.4375 1.625-3.01563 2.8125-1.42187 3.72265-1.11328.71484 1.11328 2.72656.09765 1.71094.70313 4.4414 1.66406 4.4375-.09375 4.4375.39063 4.4375 1.67578 1.66407 4.4375-1.04297 4.4375 1.04297 4.4375.66797 4.04297-2.33203.39843-.21094 4.4375-.05469 4.4375.07032 1.46485.1953 2.97265 1.125 3.14453-1.125 1.29688-.16796 4.4375-.01563.9375.1836 3.5 1.57031 4.4375 1.16797 4.4414.7539 4.4375.10157 4.4375-.27735 4.4375.08594 4.4375-.0625 4.44141-.41406 4.4375-.92578 2.75781-2 1.6797-.3789 4.4375-.17188 4.4375-.20313 4.4414.00781 4.4375-.1953 4.4375-1.72266 4.08594-1.77344.35156-.1211 1.1875.1211 3.2539.70312 4.4375 2.3672 4.4375-1.79688.78125-1.27344 2.57422-4.4375 1.08203-1.41406 2.32422-3.02344-.94922-4.4414-1.375-.35938-4.4375-.94531-3.49609-3.13282 3.4961-.72265 4.4375-.3711 3.16015-3.34375 1.27734-1.85937 4.44141.03125 4.4375-.70703 1.82422-1.90235.76953-4.4375-2.59375-3.50781-4.4375-.85938-.44531-.07421-3.9961-2.20704-4.4375-1.5078v-107.2422h22.19141v136.3086l-4.4375.71484-.75.5664.75.54688 4.4375-.35937 2.69922-.1875-2.69922-1.28125v-136.3086h35.50781v120.67579l-3.35937 3.59765 3.35937 3.21875 1.34375 1.21875 3.09375 3.03516 4.4414-.42969 4.01954-2.60547-4.01953-2.95703-3.28125-1.48047-1.16016-.9375-4.4375-2.66015V311.67187h13.3164v139.81641l-4.4375.86328-4.25 1.34766 4.25 1.16406 4.4375-.34765 1.76563 3.62109 2.67188 2.39062 3.28125-2.39062-2.23047-4.4375-1.05078-1.52344-4.4375-.6875v-139.8164h17.7539v132.96484l-.33203.1836-4.10937 4.26171-.64063.17969.64063.91797.14844-.91797 4.29296-4.16406 2.70704 4.16406-.85938 4.4375-1.84765 1.82422-4.44141-1.5625-3.14453 4.17578 3.14453 3.53125 4.4414-.33985.26954 1.2461 4.16796 4.25781.4375.1836 4 4.12109 3.28907-4.1211.95703-4.4414.1914-.4336 3.72266-4.0039.16797-4.4375-2.42188-4.4375-1.46875-1.57031-2.0039 1.5703-2.4336.54298-1.9375-.54297-2.5-1.03516-4.30468-3.40625-.13281-.1836V311.67189h88.76171v168.65625H395.25l-2.70313-3.1211-2.40625 3.1211H144.00392"/></g><path fill="#50fcfc" fill-rule="evenodd" d="M146.9961 444.82031l-2.9922 3v-2.66406l.33594-.33594 1.75-4.4375-2.08593-2.76172v-2.71875l1.05468 1.04297 2.6172 4.4375-.6797 4.4375"/><path fill="#00e8fc" fill-rule="evenodd" d="M144.33984 444.82031l-.33593.33594v-7.53516l2.08593 2.76172-1.75 4.4375"/><path fill="#50fcfc" fill-rule="evenodd" d="M157.3164 443.10938l-1.11327-2.72657 1.11328-.71484 1.42187-3.72266 3.01563-2.8125 3.4375-1.625 1-.9961 4.4375-1.52343 4.4375-1.65234.96484-.26563 3.47656-2.29687 4.4375-1.66406 1.34766-.48047 3.08984-1.84766 4.4375-1.33594v3.5586l-4.4375.82812-4.4375 1.6211-3.1289 1.61718-1.3086.67188-4.4414.95312-4.08594 2.8125-.35156.08985-4.4375.62109-4.4375 3.3711-.37891.35546-3.09766 4.4375.64844 4.4375 2.82813 4.3711.08593.0703 3.51563 4.4375.83594 2.28126.58593 2.15625 3.85157 2.60547 4.4375.40234 4.4414-1.70703 4.4375.6914 4.4375.48438 4.4375.40235 4.4414-.41797 4.4375-.15625 4.4375.80468 4.08204 1.32813.35547.14844 4.4414 1.86328 4.4375.26562 4.4375-.6875 4.4375.19531 4.4375-.10546 4.44141-1.03125 1.70703-.64844 2.73047-.3711 4.4375-1.15234 4.4375-.1836 4.4375-.40234 4.4414-.12109 4.4375-.65625 2.5547-1.55078 1.8828-1.67188 4.4375-1.82421 3.3086-.94141-.42187-4.4375-2.88672-3.55078-.8711-.89063-3.0664-4.4375-.5-.39062-.53906.39062-1.3672 4.4375-2.53124 1.48047-1.67578-1.48047-2.76172-2.47656-4.33203 2.47656-.10938.08203-.42969-.08203-4.0078-.90625-.4336-3.53125-.73828-4.4375-3.23438-4.4375-.03125-.03515-4.4375-1.45313-4.4375-.57812-4.4414-.75391-4.4375-.57031L225 431.5078l3.32813 2.65625 1.1875 1.78125-1.1875 2.39063-4.4375-.42578-4.4375-.42188-3.73438-1.54297-.70313-2.44531-.8125-1.99219-.83984-4.4375-2.78906-1.52344-4.4375-.6289-4.4375-.98438-4.4375-.47265-4.4414-.45703v-3.5586l4.4414.44922 4.4375 1.40235 1.40234 1.33203 3.03516.83593 4.4375.28516 4.4414.73828 4.16016-1.85937.27734-.1836.26172.1836 4.17578 1.35546v9.76172l-3.02734 2.19922 3.02734.6914 3.75391-.6914-3.7539-2.19922v-9.76171l4.4375.4453 3.03515 2.64063 1.40234.34375 4.44141.45313 4.4375.11719 4.4375.49609 3.00781 3.02734 1.4297 2.44531 4.4375-.6328 4.4414-1.4336v1.03906l-3.73828 3.01953 3.73828 3.10547 2.89453-3.10547-2.89453-3.01953v-1.03906l3.89062 4.0586-3.89062 4.17187-4.4414-.59766-4.4375-1.44531-.12892 2.3086.12891 1.05468 4.4375-.59766 4.4414-.0664 4.4375 2.95312.46094-3.34375 3.97657-2.89844 3.70703 2.89844.73047.96094 3.64453 3.47656.79687.9961 1.11329-.9961 1.80859-4.4375-1.79688-4.4375-1.125-.71875-4.4414.00781-3.92969-3.72656 1.91016-4.4375 2.01953-2.3086 4.4414-.53515 4.4375-.08594 4.4375 2.31641.54297-3.82812 3.89453-3.71485v1.1836l-2.65234 2.53125-.59766 4.4414-1.1875.57422-3.65234-.57422-.78516-.48828-4.4375.4375-.1328.05078-4.3086.89453-2.76563 3.54297 2.76563 2.6211 4.4414-.00782 2.86329 1.82422 1.57421 2.3125 4.4375.23438 4.4375-1.25781 1.21875-1.28907 3.14844-4.4375.07031-.10937 4.44141.03125 4.35547-4.35938-4.35547-3.3789-4.4414-.65235-.60938-.41015-3.82813-2.53125v-1.1836l4.4375 1.50781 3.9961 2.20704.44531.07421 4.4375.85938 2.59375 3.50781-.76953 4.4375-1.82422 1.90235-4.4375.70703-4.4414-.03125-1.27735 1.85937-3.16016 3.34375-4.4375.3711-3.49609.72265 3.4961 3.13281 4.4375.94532 1.375.35937.94921 4.4414-2.32422 3.02345-1.08203 1.41406-2.57422 4.4375-.78125 1.27344-4.4375 1.79687-4.4375-2.36719-3.2539-.70312-1.1875-.1211-.35156.1211-4.08594 1.77344-4.4375 1.72265-4.4375.19531-4.4414-.0078-4.4375.20312-4.4375.17187-1.6797.3789-2.7578 2-4.4375.92579-4.44142.41406-4.4375.0625-4.4375-.08594-4.4375.27735-4.4375-.10156-4.4414-.75391-4.4375-1.16797-3.5-1.57031-.9375-.1836-4.4375.01563-1.29688.16797-3.14453 1.125-2.97265-1.125-1.46485-.19531-4.4375-.07032-4.4375.0547-.39844.21093-4.04296 2.33203-4.4375-.66797-4.4375-1.04297-4.4375 1.04297-1.67578-1.66406-.39063-4.4375.09375-4.4375-1.66406-4.4375-.70313-4.4414-.09765-1.71094"/><path fill="#00e8fc" fill-rule="evenodd" d="M158.92578 444.82031l-.64844-4.4375 3.09766-4.4375.3789-.35547 4.4375-3.37109 4.4375-.6211.35157-.08984 4.08594-2.8125 4.4414-.95312 1.3086-.67188 3.1289-1.61719 4.4375-1.62109 4.4375-.82812 4.4414.45703 4.4375.47265v2.95704l-2.61718.17968-1.82031.11328-4.4414.20313-4.4375.32422-4.4375 2.80469-3.71095.99218-.72656.32031-.53515-.3203-3.90625-.54688-.79297.54687-3.64453.96094-4.4375 1.22266-2.78125 2.2539-1.65625 2.1836-1.6875 2.2539 1.3789 4.4375.3086.47656 4.4375 3.4336 4.14062.53125-.90625 4.4375 1.20313 1.85547 3.71093-1.85547.72657-1.38672 4.4414-.35156 4.4375-2.39453.91406-.3047 3.52344-1.49608 4.4375-2.23438 1.28125-.71094 3.16016-.71484 4.4375.1836 2.10156.53124-2.10156 3.61719-.5664.82422-3.8711 2.5625-4.4414-.3789-2.60548 2.2539 2.60547 3.28125 4.4414-1.15625 4.4375.47656 4.4375 1.02344.44923.8125 3.98828 2.08984 4.4414 1.92188 3.71485.42578.72266.08203.32812-.08203 4.10938-.98047 4.4375.26953 4.4375.09766 4.4414-.5039 4.4375-.6211 4.4375-1.69531 4.4375-.19922 4.4375-.73829.94531-.0664 3.4961-.6914 2.71875-3.7461 1.71875-3.16797 4.4375.72266 1.64062-1.9922-1.64062-1.66015-4.4375 1.27735-4.4375-3.58204-4.4414 3.00782-3.50392.95703-.93359.30469-4.4375-.01172-1.1875-.29297-3.25-3.25-4.4375-.45313-.40234-.73828.40234-2.42187 2.3164-2.01563 2.1211-1 .08984 1 4.34766 4.11719 3.49219-4.11719-3.44531-4.4375-.04688-.0625-4.4375-2.01953-4.4375-1.73828-1.7539-.61719-2.6875-.69531-2.78907.69531 1.73828 4.4375 1.05078 1.98438 3.50391 2.45312-3.5039 1.05078-4.4375-.09765-3.40625-.95313-1.03125-.34375-2.25.34375-2.1875.45703-4.4375-.16796-.91016-.28907-3.53125-1.41406-1.44922-3.02344-1.53125-4.4375-1.45703-3.33984-2.88281-1.09766-1.5547-.17969v-2.95703l4.4375.98438 4.4375.6289 2.78907 1.52344.83984 4.4375.8125 1.99219.70313 2.44531 3.73438 1.54297 4.4375.42188 4.4375.42578 1.1875-2.39063-1.1875-1.78125L225 431.50781l3.32813-3.39062 4.4375.57031 4.4414.7539 4.4375.57813 4.4375 1.45313.03125.03515 3.23438 4.4375.73828 4.4375.4336 3.53125 4.0078.90625.4297.08203.10937-.08203 4.33203-2.47656 2.76172 2.47656 1.67578 1.48047 2.53125-1.48047 1.36719-4.4375.53906-.39062.5.39062 3.0664 4.4375.8711.89063 2.88672 3.55078.42187 4.4375-3.3086.9414-4.4375 1.82422-1.8828 1.67188-2.5547 1.55078-4.4375.65625-4.4414.1211-4.4375.40234-4.4375.1836-4.4375 1.15233-2.73047.3711-1.70703.64844-4.4414 1.03125-4.4375.10546-4.4375-.1953-4.4375.6875-4.4375-.26563-4.44141-1.86328-.35547-.14844-4.08203-1.32813-4.4375-.80468-4.4375.15625-4.4414.41796-4.4375-.40234-4.4375-.48437-4.4375-.69141-4.44141 1.70703-4.4375-.40234-3.85157-2.60547-.58593-2.15625-.83594-2.28125-3.51563-4.4375-.08593-.07031-2.82813-4.3711"/><path fill="#00d4fc" fill-rule="evenodd" d="M161.44531 444.82031l-1.3789-4.4375 1.6875-2.2539 1.65625-2.1836 2.78125-2.2539 4.4375-1.22266 3.64453-.96094.79297-.54687 3.90625.54687.53515.32031.72656-.3203 3.71094-.9922 4.4375-2.80468 4.4375-.32422v2.39453l-3.66406 1.72656-.77344.90625-3.07422 3.53125-1.36328 1.01563-4.4375 2.3789-3.28515-3.39453-1.15625-.9375-4.4375-1.66797-4.4375 1.82032-.96875.78515-3.41407 4.4375 4.38282 4.26953 4.4375-.5078 4.35937-3.76173.07813-1.20703 1.33593 1.20703 3.10547 1.72656 4.4375 2.62891 4.4375-1.4375 4.4375-.57422 4.20703-2.34375.23438-.55078 1.71094.55078 2.72656.32422.84375-.32422-.84375-2.21484-.8164-2.22266.8164-2.71875.35547-1.71875-.35547-.25781-4.4375-1.26953-4.4414-.19922v-2.39453l4.4414-.20313 1.82031-.11328 2.61719-.17969 1.55469.1797 2.8828 1.09765 1.45704 3.33984 1.53125 4.4375 1.44922 3.02344 3.53125 1.41406.91016.28906 4.4375.16797 2.1875-.45703 2.25-.34375v2.74219l-4.4375.94531-1.7461 1.09375-2.6914 4.10156-1.97657.33985.20313 4.4375-1.95703 4.4375 3.73047 1.71094 4.4375.42187 4.4375-.86328 4.4375.33984 4.4375.65235 4.4414-.28906 4.4375-.64063 2.98438-1.33203 1.45312-1.3086 4.4375-3.10546 4.4375.40625.89453-.4297-.89453-.5625-4.4375.54688-4.4375-2.18359-4.4375-.51563-4.4375-1.58984-.20703-.13281-2.3086-4.4414-1.92577-1.61329-4.4375-.10547-4.4375-.32031v-2.74219l1.03125.34375 3.40625.95313 4.4375.09765 3.5039-1.05078-3.5039-2.45312-1.05079-1.98438-1.73828-4.4375 2.78906-.69531 2.6875.69531 1.75391.61719v2.90625l-1.67187.91406 1.67187 1.20703 1.70313-1.20703-1.70313-.91406V432.125l4.4375 1.73828 4.4375 2.01953v.70313l-3.71094 3.79687 3.71094 3.51563 2.98438-3.51563-2.98438-3.79687v-.70313l.04688.0625 3.4453 4.4375-3.49218 4.11719-4.34766-4.11719-.08984-1-2.1211 1-2.3164 2.01563-.40234 2.42187.40234.73828 4.4375.45313 3.25 3.25 1.1875.29297 4.4375.01172.9336-.3047 3.5039-.95702 4.4414-3.00781 4.4375 3.58203 4.4375-1.27735 1.64063 1.66016-1.64062 1.99219-4.4375-.72266-1.71875 3.16797-2.71875 3.7461-3.4961.6914-.9453.0664-4.4375.73829-4.4375.19921-4.4375 1.69532-4.4375.6211-4.44142.5039-4.4375-.09766-4.4375-.26953-4.10937.98047-.32813.08203-.72265-.08203-3.71484-.42578-4.44141-1.92188-3.98828-2.08984-.44922-.8125-4.4375-1.02344-4.4375-.47656-4.4414 1.15625-2.60548-3.28125 2.60547-2.2539 4.4414.3789 3.8711-2.5625.5664-.82422 2.10157-3.61719-2.10156-.53125-4.4375-.1836-3.16016.71485-1.28125.71094-4.4375 2.23438-3.52344 1.49609-.91406.30469-4.4375 2.39453-4.4414.35156-.72657 1.38672-3.71093 1.85547-1.20313-1.85547.90625-4.4375-4.14062-.53125-4.4375-3.4336-.3086-.47656"/><path fill="#00c4fc" fill-rule="evenodd" d="M166.1914 444.65234l-4.3828-4.26953 3.41406-4.4375.96875-.78515 4.4375-1.82032v.8711l-3.59766 1.73437-.83984.51172-3.42578 3.92578 3.42578 3.33594 4.4375-.47266 3.3203-2.86328-.14843-4.4375-3.17187-1.73437v-.8711l4.4375 1.66797 1.15625.9375 3.28515 3.39453 4.4375-2.3789 1.36328-1.01563 3.07422-3.53125v5.89453l-3.38672 2.07422 3.38672.76953 4.4375-.68359.15235-.08594-.15235-.35156-4.4375-1.72266v-5.89453l.77344-.90625 3.66406-1.72656 4.4414.19922 4.4375 1.26953.35548.25781-.35547 1.71875-.8164 2.71875.8164 2.22266.84375 2.21484-.84375.32422-2.72656-.32422-1.71094-.55078-.23438.55078-4.20703 2.34375-4.4375.57422-4.4375 1.4375-4.4375-2.6289-3.10547-1.72657-1.33593-1.20703-.07813 1.20703-4.35937 3.76172-4.4375.50781"/><path fill="#00b8fc" fill-rule="evenodd" d="M166.1914 443.71875l-3.42577-3.33594 3.42578-3.92578.83984-.51172 3.59766-1.73437v.8711l-1.78907.86327-2.64843 1.60547-2.46875 2.83203 2.46875 2.40625 4.4375-.4414 2.27734-1.96485-.69531-4.4375-1.58203-.86328v-.8711l3.17187 1.73438.14844 4.4375-3.32031 2.86328-4.4375.47266"/><path fill="#00a8fc" fill-rule="evenodd" d="M166.1914 442.78906l-2.46874-2.40625 2.46875-2.83203 2.64843-1.60547 1.78907-.86328v.89453l-4.4375 2.67188-1.51563 1.73437 1.51563 1.47266 4.4375-.40625 1.23437-1.0664-1.23437-4.40626v-.89453l1.58203.86328.69531 4.4375-2.27734 1.96485-4.4375.4414"/><path fill="#009800" fill-rule="evenodd" d="M166.1914 441.85547l-1.51562-1.47266 1.51563-1.73437 4.4375-2.67188v3.72266l-4.4375.04687-.5586.63672.5586.54297 4.4375-.3789.1914-.16407-.1914-.6836v-3.72265l1.23437 4.40625-1.23437 1.0664-4.4375.40626"/><path fill="#00ac00" fill-rule="evenodd" d="M166.1914 440.92578l-.55859-.54297.5586-.63672 4.4375-.04687.1914.6836-.1914.16406-4.4375.3789"/><path fill="#00b8fc" fill-rule="evenodd" d="M188.38281 441.15234l-3.38672-.76953 3.38672-2.07422 4.4375 1.72266.15235.35156-.15235.08594-4.4375.6836"/><path fill="#00c4fc" fill-rule="evenodd" d="M215.01563 459.84766l-3.73047-1.71094 1.95703-4.4375-.20313-4.4375 1.97656-.33985 2.69141-4.10156 1.7461-1.09375 4.4375-.94531 4.4375.32031v2.15235l-4.4375 1.58203-4.23047 2.42578-.20703.21875-1.47266 4.21875 1.47266 3.33203 3.35546-3.33203 1.08203-1.03125.75 1.03125 3.6875 3.01953 1.5547 1.41797 2.8828.69922 4.44141-.07813 4.1914-.6211-.78124-4.4375-3.41016-.86718-4.4414-2.61328-1.89844-.95703-2.53906-4.00781v-2.15235l4.4375.10547 1.92578 1.61328L237 449.26171l.20703.13282 4.4375 1.58985 4.4375.51562v1.94531l-2.80078.2539 2.80078.35938.51172-.35937-.51172-.2539V451.5l4.4375 2.1836 4.4375-.54688.89453.5625-.89453.42969-4.4375-.40625-4.4375 3.10546-1.45312 1.3086-2.98438 1.33203-4.4375.64063-4.4414.28906-4.4375-.65235-4.4375-.33984-4.4375.86328-4.4375-.42187"/><path fill="#00b8fc" fill-rule="evenodd" d="M219.45313 457.03125l-1.47266-3.33203 1.47266-4.21875.20703-.21875 4.23047-2.42578 4.4375-1.58203 2.53906 4.0078 1.89844.95704 4.4414 2.61328 3.41016.86719.78125 4.4375-4.1914.6211-4.44142.07812-2.8828-.69922-1.5547-1.41797-3.6875-3.01953-.75-1.03125-1.08203 1.03125-3.35547 3.33203"/><path fill="#fff" fill-opacity="0" fill-rule="evenodd" d="M223.89063 433.7461l-3.02735 2.19921 3.02734.6914 3.75391-.6914-3.7539-2.19922"/><path fill="#00c4fc" fill-rule="evenodd" d="M237.20703 437.15234l-1.67187-1.20703 1.67187-.91406 1.70313.91406-1.70313 1.20703m8.875 6.7461l-3.71094-3.51563 3.71094-3.79687v.64844l-3.07812 3.14843 3.07812 2.91406 2.47266-2.91406-2.47266-3.14844v-.64843l2.98438 3.79687-2.98438 3.51563"/><path fill="#00b8fc" fill-rule="evenodd" d="M246.08203 443.29688l-3.07812-2.91407 3.07812-3.14844v.64844l-2.44531 2.5 2.44531 2.3164 1.96484-2.3164-1.96484-2.5v-.64844l2.47266 3.14844-2.47266 2.91406m0 10.76172l-2.80078-.35937 2.80078-.2539.51172.2539-.51172.35937"/><path fill="#00a8fc" fill-rule="evenodd" d="M246.08203 442.69922l-2.44531-2.3164 2.44531-2.5v.64843l-1.8086 1.85156 1.8086 1.71485 1.45313-1.71485-1.45313-1.85156v-.64844l1.96484 2.5-1.96484 2.3164"/><path fill="#009800" fill-rule="evenodd" d="M246.08203 442.09766l-1.8086-1.71485 1.8086-1.85156v.64844l-1.17578 1.20312 1.17578 1.11328.94531-1.11328-.9453-1.20312v-.64844l1.45312 1.85156-1.45313 1.71485"/><path fill="#00ac00" fill-rule="evenodd" d="M246.08203 441.4961l-1.17578-1.11329 1.17578-1.20312v.64844l-.54297.55468.54297.51563.4375-.51563-.4375-.55469v-.64843l.94531 1.20312-.9453 1.11328"/><path fill="#00c800" fill-rule="evenodd" d="M246.08203 440.89844l-.54297-.51563.54297-.55469.4375.5547-.4375.51562"/><path fill="#00e8fc" fill-rule="evenodd" d="M259.39844 439.05078l-3.73828-3.10547 3.73828-3.01953v1.72656l-1.60156 1.29297 1.60156 1.32813 1.23828-1.32813-1.23828-1.29297v-1.72656l2.89453 3.01953-2.89453 3.10547"/><path fill="#00d4fc" fill-rule="evenodd" d="M259.39844 437.27344l-1.60156-1.32813 1.60156-1.29297 1.23828 1.29297-1.23828 1.32813"/><path fill="#00e8fc" fill-rule="evenodd" d="M272.71094 434.1289l-2.76563-2.62109 2.76563-3.54297 4.3086-.89453.1328-.05078 4.4375-.4375.78516.48828 3.65234.57422 1.1875-.57422.59766-4.4414 2.65234-2.53125v1.97656l-.58203.55469-.53906 4.4414-3.3164 1.60547-4.4375 1.15625-4.4375.35938-4.44141.2578-.82422 1.0586.82422.78125 4.4414-.01172 4.4375 1.6211 2.63672 2.04687 1.80078.60547 1.47657-.60547 2.96093-1.02734 2.94532-3.41016 1.49218-2.25781 4.44141.05469 2.23438-2.23438-2.23438-1.73437-4.4414-.29688-3.59766-2.41015-.83985-.5547v-1.97655l3.82813 2.53125.60937.41015 4.44141.65235 4.35547 3.3789-4.35547 4.35938-4.4414-.03125-.07032.10937-3.14844 4.4375-1.21875 1.28906-4.4375 1.25782-4.4375-.23438-1.57421-2.3125-2.86329-1.82422-4.4414.00782"/><path fill="#00d4fc" fill-rule="evenodd" d="M272.71094 432.28906l-.82422-.78125.82422-1.0586 4.4414-.2578 4.4375-.35938 4.4375-1.15625 3.31641-1.60547.53906-4.4414.58203-.5547.83985.5547 3.59765 2.41015 4.44141.29688v1.64453l-4.4414.0586-.13673.03124-4.30078 1.35938-4.4375 1.27734-3.5039 1.80078 3.5039 3.1836 4.4375-1.42188 1.52344-1.76172 2.91406-4.40625 4.44141.08203.11328-.11328-.11328-.08984v-1.64453l2.23438 1.73437-2.23438 2.23438-4.4414-.05469-1.4922 2.25781-2.9453 3.41016-2.96094 1.02734-1.47657.60547-1.80078-.60547-2.63672-2.04687-4.4375-1.6211-4.4414.01172"/><path fill="#00c4fc" fill-rule="evenodd" d="M286.02734 434.6914l-3.5039-3.18359 3.5039-1.80078v1.02735l-1.5.77343 1.5 1.35938 4.4375-1.2461.10157-.11328-.10157-.20312-4.4375-.57031v-1.02735l4.4375-1.27734 4.30079-1.35938.13671-.03125 4.44141-.0586.11328.08985-.11328.11328-4.4414-.08203-2.91407 4.40625-1.52344 1.76172-4.4375 1.42188"/><path fill="#00b8fc" fill-rule="evenodd" d="M286.02734 432.86719l-1.5-1.35938 1.5-.77344 4.4375.57032.10157.20312-.10157.11328-4.4375 1.2461"/><path fill="#50fcfc" fill-rule="evenodd" d="M308.21875 449.8086l-.75-.54688.75-.5664 4.4375-.71485 2.69922 1.28125-2.69922.1875-4.4375.35937m39.94531-10.64453l-3.35937-3.21875 3.35937-3.59765v2.45703l-1.0625 1.14062 1.0625 1.01953 3.76953 3.41797.66797.65625 2.83203-.65625-2.83203-1.08594-2.8711-3.35156-1.5664-1.14062v-2.45703l4.4375 2.66015 1.16016.9375 3.28125 1.48047 4.01953 2.95703-4.01953 2.60547-4.4414.42969-3.09376-3.03516-1.34375-1.21875"/><path fill="#00e8fc" fill-rule="evenodd" d="M348.16406 436.96484l-1.0625-1.01953 1.0625-1.14062 1.5664 1.14062 2.8711 3.35156 2.83203 1.08594-2.83203.65625-.66797-.65625-3.76953-3.41797"/><path fill="#50fcfc" fill-rule="evenodd" d="M357.04297 454.86328l-4.25-1.16406 4.25-1.34766 4.4375-.86328 4.4375.6875 1.05078 1.52344 2.23047 4.4375-3.28125 2.39062-2.67188-2.39062-1.76562-3.6211-4.4375.34766m17.75 6.80469l-3.14453-3.53125 3.14453-4.17578 4.4414 1.5625 1.84766-1.82422.85938-4.4375-2.70704-4.16406-4.29296 4.16406-.14844.91797-.64063-.91797.64063-.17969 4.10937-4.26172.33204-.1836.1328.1836 4.3047 3.40625 2.5 1.03516 1.9375.54297 2.43359-.54297 2.0039-1.57031v3.4453l-4.41406 2.5625-.02344.00392-4.4375 1.79687-2.66406 2.63672-.15234 4.4375 2.8164 2.875 3.73829 1.5664.69921.71875.57422-.71875 2.8711-4.4414.99219-2.26172 2.02343-2.17578.10547-4.4375-2.1289-2.5625v-3.44531l1.46875 1.5703 2.42187 4.4375-.16797 4.4375-3.72265 4.00392-.19141.43359-.95703 4.4414-3.28906 4.1211-4-4.1211-.4375-.18359-4.16797-4.25781-.26954-1.2461-4.4414.33985"/><path fill="#00e8fc" fill-rule="evenodd" d="M383.67188 465.44922l-2.81641-2.875.15234-4.4375 2.66406-2.63672 4.4375-1.79688v1.57422l-3.39062 2.85938-1.04688 3.07422-.5625 1.36328.5625.57422 4.4375 2.28515 2.11329-2.85937 1.72265-4.4375-3.83594-2.85938v-1.57421l.02344-.00391 4.41406-2.5625 2.12891 2.5625-.10547 4.4375-2.02344 2.17578-.99218 2.26172-2.8711 4.4414-.57421.71875-.69922-.71875-3.73829-1.5664"/><path fill="#00d4fc" fill-rule="evenodd" d="M383.67188 463.14844l-.5625-.57422.5625-1.36328 1.04687-3.07422 3.39063-2.85938v1.57032l-1.52735 1.28906-.41015 4.4375 1.9375 1.05078.77734-1.05078.94922-4.4375-1.72656-1.28906v-1.57032l3.83593 2.85938-1.72265 4.4375-2.11329 2.85937-4.4375-2.28515"/><path fill="#00c4fc" fill-rule="evenodd" d="M388.10938 463.625l-1.9375-1.05078.41015-4.4375 1.52735-1.28906 1.72656 1.28906-.94922 4.4375-.77735 1.05078"/><g clip-path="url(#d)"><path fill="#50fcfc" fill-rule="evenodd" d="M390.14063 480.32813l2.40625-3.1211 2.70312 3.1211h-5.10938"/></g><g clip-path="url(#e)"><path fill="#fff" fill-opacity="0" fill-rule="evenodd" d="M467.9961 480.32813H468V311.67188h-.0039H468v168.65625h-.0039"/></g><path fill="#fff" fill-opacity="0" fill-rule="evenodd" d="M245.22656 437.03125l5.26172 2.53906 4.32813-8.97265-5.26172-2.53907-4.32813 8.97266"/><path fill-rule="evenodd" d="M251.91016 431.23047l.46093.22265-2.73828 5.66797-.70703-.33984 1.94922-4.04297-1.25-.60547.24219-.5.53125.1836.25.0625.2461.01953.24608-.03906.2461-.11329.25781-.20312.26563-.3125"/><path fill="#fff" fill-opacity="0" fill-rule="evenodd" d="M294 426.30469l5.51953 1.90625 3.25781-9.41016-5.51953-1.91015L294 426.30469"/><path fill-rule="evenodd" d="M299.96484 419.76563l.48047.16796-2.0586 5.94922-.74218-.25781 1.46485-4.24219-1.3086-.45703.17969-.52344.55078.1211.2539.03125.2461-.00781.23828-.07032.23438-.14062.23046-.23047.23047-.33985"/><path fill="#fff" fill-opacity="0" fill-rule="evenodd" d="M201.21484 467.78516l5.50782 1.9453 3.3164-9.39452-5.51172-1.9414-3.3125 9.39062"/><path fill-rule="evenodd" d="M207.21875 461.28516l.48047.16796-2.09375 5.9375-.74219-.26171 1.49219-4.23438-1.3086-.46094.1836-.52343.55078.125.2539.03125.2461-.00782.24219-.0664.23437-.13672.23047-.23047.23047-.33984"/><path fill="#fff" fill-opacity="0" fill-rule="evenodd" d="M182.3789 436.99219l7.25782-3.17578-4.08594-9.33985-7.25781 3.17578 4.08594 9.33985"/><path fill-rule="evenodd" d="M181.30078 428.33984l3.01172-1.3164.29688.67578-2.41797 1.0586.51172 1.74609.14062-.23829.19531-.23046.26172-.21094.33594-.1836.3086-.10546.34374-.0586h.36328l.375.07422.36328.15625.17579.11328.17187.13672.16016.16406.15234.19532.13672.22265.1289.2539.14454.41798.07422.42578-.00391.42187-.08594.40625-.16797.38282-.11718.17968-.13672.16797-.16406.15625-.1836.14453-.21094.13282-.23437.11328-.4414.15625-.40626.0664-.3711-.01562-.33983-.08594-.3047-.15234-.27734-.20313-.25-.25-.22265-.29297.72265-.3125.16407.1797.17578.14843.1875.11719.19531.08203.20313.04687.20703.00781.21875-.03515.21875-.07422.27734-.14844.23047-.17578.17578-.21094.1211-.23437.0664-.26172.00781-.28906-.0586-.3164-.11718-.33595-.125-.23437-.16016-.21485-.1953-.1875-.22266-.14843-.25391-.10156-.28125-.04297-.30469.02343-.32422.10547-.29297.16797-.21484.21094-.17578.28125-.17578.3711-.63672.28124-.94922-3.32422"/><path fill="#fff" fill-opacity="0" fill-rule="evenodd" d="M263.03516 451.71875l7.66406 2 2.57422-9.86328-7.66797-2-2.57031 9.86328"/><path fill-rule="evenodd" d="M267.54688 444.2539l3.17968.83204-.1875.71484-2.55469-.66406-.67968 1.6875.26172-.10156.29296-.0586.33594-.0039.3789.0625.3086.10937.30469.16797.28516.22656.24609.28516.1914.35156.07032.19531.04687.21485.02344.23047v.24609l-.02734.25781-.0586.27735-.14843.42187-.20313.3789-.26562.32813-.31641.26953-.36719.19532-.20312.0664-.21485.04688-.22265.02344-.23828-.00391-.2461-.02735-.2539-.05078-.44141-.15234-.35938-.20313-.28515-.23828-.21094-.27734-.14844-.3086-.08984-.33202-.03906-.35157.0039-.36719.76172.19922.01953.2461.04297.22656.07422.20703.10156.1836.13282.16406.16015.13281.1875.10938.21875.07812.3125.05469h.28906l.26954-.05078.24218-.10938.21094-.16797.1875-.22265.14844-.28125.11719-.33985.04687-.25781.00781-.26953-.03906-.26563-.08203-.2578-.13672-.23829-.19531-.20703-.2539-.16797-.32032-.1211-.33594-.05077-.29687.03515-.3125.11328-.3711.1836-.67187-.17579 1.3164-3.19921"/><g clip-path="url(#f)"><path fill="none" stroke="#000" stroke-linecap="round" stroke-linejoin="round" stroke-miterlimit="10" stroke-width=".5" d="M147.45313 479.67188l-6.90625 1.3125"/></g><g clip-path="url(#g)"><path fill="none" stroke="#000" stroke-linecap="round" stroke-linejoin="round" stroke-miterlimit="10" stroke-width=".5" d="M147.45313 479.67188l1.53515 1.91406"/></g><g clip-path="url(#h)"><path fill="none" stroke="#000" stroke-linecap="round" stroke-linejoin="round" stroke-miterlimit="10" stroke-width=".5" d="M160.80469 479.92969l-6.98047.80078"/></g><g clip-path="url(#i)"><path fill="none" stroke="#000" stroke-linecap="round" stroke-linejoin="round" stroke-miterlimit="10" stroke-width=".5" d="M160.80469 479.92969l1.39062 2.01953"/></g><g clip-path="url(#j)"><path fill="none" stroke="#000" stroke-linecap="round" stroke-linejoin="round" stroke-miterlimit="10" stroke-width=".5" d="M174.14453 480.30078l-7.02734.05469"/></g><g clip-path="url(#k)"><path fill="none" stroke="#000" stroke-linecap="round" stroke-linejoin="round" stroke-miterlimit="10" stroke-width=".5" d="M174.14453 480.30078l1.16797 2.16016"/></g><g clip-path="url(#l)"><path fill="none" stroke="#000" stroke-linecap="round" stroke-linejoin="round" stroke-miterlimit="10" stroke-width=".5" d="M187.45313 480.51953l-7.01563-.38281"/></g><g clip-path="url(#m)"><path fill="none" stroke="#000" stroke-linecap="round" stroke-linejoin="round" stroke-miterlimit="10" stroke-width=".5" d="M186.4336 480.46484l.51562 1.11328"/></g><g clip-path="url(#n)"><path fill="none" stroke="#000" stroke-linecap="round" stroke-linejoin="round" stroke-miterlimit="10" stroke-width=".5" d="M200.69922 481.04688l-6.8789-1.4375"/></g><g clip-path="url(#o)"><path fill="none" stroke="#000" stroke-linecap="round" stroke-linejoin="round" stroke-miterlimit="10" stroke-width=".5" d="M199.69922 480.83984l.33984 1.17578"/></g><g clip-path="url(#p)"><path fill="none" stroke="#000" stroke-linecap="round" stroke-linejoin="round" stroke-miterlimit="10" stroke-width=".5" d="M214.01172 481.0586l-6.875-1.46094"/></g><g clip-path="url(#q)"><path fill="none" stroke="#000" stroke-linecap="round" stroke-linejoin="round" stroke-miterlimit="10" stroke-width=".5" d="M213.01172 480.84766l.33984 1.17578"/></g><g clip-path="url(#r)"><path fill="none" stroke="#000" stroke-linecap="round" stroke-linejoin="round" stroke-miterlimit="10" stroke-width=".5" d="M227.38281 480.70313l-6.98437-.7461"/></g><g clip-path="url(#s)"><path fill="none" stroke="#000" stroke-linecap="round" stroke-linejoin="round" stroke-miterlimit="10" stroke-width=".5" d="M226.36719 480.59375l.45703 1.13672"/></g><g clip-path="url(#t)"><path fill="none" stroke="#000" stroke-linecap="round" stroke-linejoin="round" stroke-miterlimit="10" stroke-width=".5" d="M240.66016 479.6914l-6.91016 1.27344"/></g><g clip-path="url(#u)"><path fill="none" stroke="#000" stroke-linecap="round" stroke-linejoin="round" stroke-miterlimit="10" stroke-width=".5" d="M239.65625 479.8789l.76172.96094"/></g><g clip-path="url(#v)"><path fill="none" stroke="#000" stroke-linecap="round" stroke-linejoin="round" stroke-miterlimit="10" stroke-width=".5" d="M253.85547 479.22266l-6.66797 2.21093"/></g><g clip-path="url(#w)"><path fill="none" stroke="#000" stroke-linecap="round" stroke-linejoin="round" stroke-miterlimit="10" stroke-width=".5" d="M266.69922 478.29297l-5.72656 4.07422"/></g><g clip-path="url(#x)"><path fill="none" stroke="#000" stroke-linecap="round" stroke-linejoin="round" stroke-miterlimit="10" stroke-width=".5" d="M275.38281 477.29297l3.53906 6.07031"/></g><g clip-path="url(#y)"><path fill="none" stroke="#000" stroke-linecap="round" stroke-linejoin="round" stroke-miterlimit="10" stroke-width=".5" d="M287.23438 478.94531l6.46093 2.76563"/></g><path fill="none" stroke="#000" stroke-linecap="round" stroke-linejoin="round" stroke-miterlimit="10" stroke-width=".5" d="M288.17578 479.34766l-.10547-1.22266"/><g clip-path="url(#z)"><path fill="none" stroke="#000" stroke-linecap="round" stroke-linejoin="round" stroke-miterlimit="10" stroke-width=".5" d="M300.79688 478.47656l5.96875 3.70313"/></g><path fill="none" stroke="#000" stroke-linecap="round" stroke-linejoin="round" stroke-miterlimit="10" stroke-width=".5" d="M301.66406 479.01563l.08203-1.22266"/><g clip-path="url(#A)"><path fill="none" stroke="#000" stroke-linecap="round" stroke-linejoin="round" stroke-miterlimit="10" stroke-width=".5" d="M314.0039 478.66016l6.1836 3.33593"/></g><path fill="none" stroke="#000" stroke-linecap="round" stroke-linejoin="round" stroke-miterlimit="10" stroke-width=".5" d="M314.90234 479.14453l.00782-1.22656"/><g clip-path="url(#B)"><path fill="none" stroke="#000" stroke-linecap="round" stroke-linejoin="round" stroke-miterlimit="10" stroke-width=".5" d="M327.22266 478.85547l6.3789 2.94531"/></g><path fill="none" stroke="#000" stroke-linecap="round" stroke-linejoin="round" stroke-miterlimit="10" stroke-width=".5" d="M328.14844 479.28516l-.0664-1.22657"/><g clip-path="url(#C)"><path fill="none" stroke="#000" stroke-linecap="round" stroke-linejoin="round" stroke-miterlimit="10" stroke-width=".5" d="M340.28516 479.60938l6.8789 1.4375"/></g><g clip-path="url(#D)"><path fill="none" stroke="#000" stroke-linecap="round" stroke-linejoin="round" stroke-miterlimit="10" stroke-width=".5" d="M341.28906 479.82031l-.34375-1.17969"/></g><g clip-path="url(#E)"><path fill="none" stroke="#000" stroke-linecap="round" stroke-linejoin="round" stroke-miterlimit="10" stroke-width=".5" d="M353.5664 479.79688l6.94923 1.0625"/></g><g clip-path="url(#F)"><path fill="none" stroke="#000" stroke-linecap="round" stroke-linejoin="round" stroke-miterlimit="10" stroke-width=".5" d="M353.5664 479.79688l-.80859-2.31641"/></g><g clip-path="url(#G)"><path fill="none" stroke="#000" stroke-linecap="round" stroke-linejoin="round" stroke-miterlimit="10" stroke-width=".5" d="M366.85156 480.07031l7.00781.51563"/></g><g clip-path="url(#H)"><path fill="none" stroke="#000" stroke-linecap="round" stroke-linejoin="round" stroke-miterlimit="10" stroke-width=".5" d="M366.85156 480.07031l-.98828-2.2461"/></g><g clip-path="url(#I)"><path fill="none" stroke="#000" stroke-linecap="round" stroke-linejoin="round" stroke-miterlimit="10" stroke-width=".5" d="M380.16797 480.57422l7.00781-.49219"/></g><g clip-path="url(#J)"><path fill="none" stroke="#000" stroke-linecap="round" stroke-linejoin="round" stroke-miterlimit="10" stroke-width=".5" d="M380.16797 480.57422l-1.30469-2.07813"/></g><g clip-path="url(#K)"><path fill="none" stroke="#000" stroke-linecap="round" stroke-linejoin="round" stroke-miterlimit="10" stroke-width=".5" d="M393.4961 480.73828l6.98046-.82031"/></g><g clip-path="url(#L)"><path fill="none" stroke="#000" stroke-linecap="round" stroke-linejoin="round" stroke-miterlimit="10" stroke-width=".5" d="M393.4961 480.73828l-1.39454-2.01953"/></g><g clip-path="url(#M)"><path fill="none" stroke="#000" stroke-linecap="round" stroke-linejoin="round" stroke-miterlimit="10" stroke-width=".5" d="M394.51172 480.61719l-.69922-1.00781"/></g><g clip-path="url(#N)"><path fill="none" stroke="#000" stroke-linecap="round" stroke-linejoin="round" stroke-miterlimit="10" stroke-width=".5" d="M406.88281 481.14063l6.83594-1.625"/></g><g clip-path="url(#O)"><path fill="none" stroke="#000" stroke-linecap="round" stroke-linejoin="round" stroke-miterlimit="10" stroke-width=".5" d="M406.88281 481.14063l-1.6211-1.83985"/></g><g clip-path="url(#P)"><path fill="none" stroke="#000" stroke-linecap="round" stroke-linejoin="round" stroke-miterlimit="10" stroke-width=".5" d="M407.8789 480.90625l-.8125-.92188"/></g><g clip-path="url(#Q)"><path fill="none" stroke="#000" stroke-linecap="round" stroke-linejoin="round" stroke-miterlimit="10" stroke-width=".5" d="M420.91406 482.57422l5.40235-4.49219"/></g><g clip-path="url(#R)"><path fill="none" stroke="#000" stroke-linecap="round" stroke-linejoin="round" stroke-miterlimit="10" stroke-width=".5" d="M434.46484 482.83203l4.9336-5.0039"/></g><g clip-path="url(#S)"><path fill="none" stroke="#000" stroke-linecap="round" stroke-linejoin="round" stroke-miterlimit="10" stroke-width=".5" d="M451.5039 483.60938l-2.51562-6.5625"/></g><g clip-path="url(#T)"><path fill="none" stroke="#000" stroke-linecap="round" stroke-linejoin="round" stroke-miterlimit="10" stroke-width=".5" d="M465.53516 483.23438l-3.94532-5.8125"/></g><g clip-path="url(#U)"><path fill="none" stroke="#000" stroke-linecap="round" stroke-linejoin="round" stroke-miterlimit="10" stroke-width=".5" d="M147.48438 466.55078l-6.96875.92578"/></g><path fill="none" stroke="#000" stroke-linecap="round" stroke-linejoin="round" stroke-miterlimit="10" stroke-width=".5" d="M146.46875 466.6836l.71484 1m13.62891-.33985l-6.9961-.66016m5.98048.5625l.46875 1.13282m13.84765-.89063l-6.96484-.94922m5.94922.8125l.42578 1.14844m13.91797-1.13281l-6.9922-.70703m5.97267.60546l.46484 1.13672m13.72266-.32812l-6.69922-2.1211m5.72656 1.8125l.21875 1.20704M213.9453 468l-6.74219-1.97266m5.76172 1.6875l.25 1.19922m14.08594-1.0625l-6.82031-1.67578m5.82812 1.4336l.30078 1.1875m14.0547-2.40626l-6.91798 1.2461m5.91016-1.0625l.75781.96094m13.16406-2.25l-6.11718 3.45703m5.22656-2.95313l1.03516.66016m12.5078-2.00781l-4.78905 5.14453m4.09375-4.39453l1.18359.3164m9.41406-1.85547l2.03516 6.72266m11.46094-6.77344l1.67578 6.82422m12.13281-6.91016l.6875 6.9961m-.58594-5.97656l1.01953-.6797m10.6875.17188L318.94531 470m-3.16015-5.10547l.61718-1.0586m11.27344.97266l5.46875 4.41016m-4.67187-3.76953l.23046-1.20313m12.04297.90625l5.96094 3.72266m-5.09375-3.17969l.08594-1.22656m12.51172.46484l5.66015 4.16016m-5.66015-4.16016l.35156-2.42968m12.58984 3.0703l6.41016 2.87891m-6.41016-2.8789l-.16406-2.44922m13.22266 3.28906l6.92187 1.19922m-6.92187-1.19922l-.76563-2.33203m14.10156 2.21484l6.87891 1.4336m-6.8789-1.4336l-.6836-2.35937m1.6836 2.5664l-.33985-1.17968m12.59766 2.03906l6.99218-.69922m-6.99218.69922l-1.35938-2.04297m14.80469 2.70313l6.73047-2.01953m-5.75 1.72656l-.86328-.8711m14.46484 2.96875l4.19922-5.6289m9.08594 5.60937l4.25781-5.58984m11.94922 6.22266l-1.52735-6.85547"/><g clip-path="url(#V)"><path fill="none" stroke="#000" stroke-linecap="round" stroke-linejoin="round" stroke-miterlimit="10" stroke-width=".5" d="M147.48047 453.20313l-6.96094.98828"/></g><path fill="none" stroke="#000" stroke-linecap="round" stroke-linejoin="round" stroke-miterlimit="10" stroke-width=".5" d="M146.46484 453.34766l.72266.99218m13.61328-.19921l-6.97266-.88672m17.53125 3.8828l-1.45703-6.875m13.07422.0586l1.9375 6.7539m10.94531-6.59765l2.80079 6.44532m-2.39453-5.50782l.76562-.96093m11.39453.46484l4.29688 5.5586m7.78125-3.71876l6.77343 1.88282m-5.78906-1.60938l-.26172-1.19531m12.58594.95312l6.78906 1.8164m-5.80078-1.55077l-.27734-1.19531m12.69922.625l6.59375 2.42578m-5.63282-2.07032l-.16797-1.21484m12.76954.32813l6.09765 3.49218m-5.20703-2.98437l.03516-1.22656m13.21484-.25391l4.44922 5.4375m-3.80078-4.64844l.47265-1.1289m13.66016-.3711l1.51953 6.85938m-1.30078-5.86328l.9336-.79688m12.30078-.23047l1.24218 6.91797m-1.0625-5.91016l.96485-.7578m11.88672-.1836l1.8125 6.78906m-1.55079-5.80078l.89844-.83594m12.03125-.11719l2.05469 6.71875m-1.7539-5.74218l.86718-.8672m10.8711.59766l4.60546 5.3047m-3.93359-4.53516l.4414-1.14453m12.28516.30468l4.4414 5.44531m-4.4414-5.4453l.95313-2.26173m12.4375 2.19922l4.28906 5.5664m-4.28906-5.5664l1.01562-2.23437m11.19922 3.67187l6.49219 2.6914m-6.49219-2.6914l-.23437-2.4414m13.41406 2.83203l6.76172 1.91015m-6.76172-1.91015l-.51953-2.39844m1.5039 2.67578l-.51953-2.39453m13.0664 1.55078l6.33204 3.04688m-6.33203-3.04688l-.10156-2.45312m13.72656 6.02343l5.71094-4.09375m13.0703-.30468l-5.22265 4.70312m5.22266-4.70312l2.30469.83984m9.61328-1.78516l-2.42969 6.59375m2.07813-5.6328l1.21484-.16798m9.1289-.30469l4.21875 5.6172"/><g clip-path="url(#W)"><path fill="none" stroke="#000" stroke-linecap="round" stroke-linejoin="round" stroke-miterlimit="10" stroke-width=".5" d="M147.50781 440.57422l-7.01562-.3789"/></g><path fill="none" stroke="#000" stroke-linecap="round" stroke-linejoin="round" stroke-miterlimit="10" stroke-width=".5" d="M146.48828 440.51953l.51563 1.10938m11.46875-4.5625l-2.31641 6.6328m12.66016-6.32421l3.625 6.01953m-3.09766-5.14453l.63281-1.05078m13.00781-.19531l1.92188 6.7578m-1.64453-5.77343l.88672-.85156m13.01953-.26563l.1836 7.02344m-.15626-6l1.0664-.60547m14.26563.17188l-3.90625 5.84375m3.33985-4.99219l1.21875.125m13.1875-.54688l-4.95313 4.98438m4.23438-4.25781l1.17187.35547m12.51563-1.38282l-4.26172 5.58594m3.64062-4.77344l1.21094.19922m11.0625-1.69922l-.9336 6.96485m.79688-5.95313L252 437.48828m11.07813-.53516l1.51562 6.85938m-1.29688-5.86328l.9336-.79297m12.30469-.23047l1.23046 6.91797m-1.05078-5.91406l.96485-.7539m12.24218-.26173l1.08985 6.9414m-.9336-5.93359l.98047-.73828m13.15235-.28906l-.85938 6.97656m.73438-5.96093l1.14453-.4375m13.11719-.3711l-2.50391 6.5664m2.5039-6.5664l2.4336-.30469m10.6914.23829l-2.12109 6.69921m2.1211-6.69921l2.41406-.44532m11.75.84766l-3.82422 5.89453m3.82422-5.89453l2.44531.21094m9.55078-.72657l-1.1836 6.92579m1.01173-5.91797l1.16406-.38672m9.75-.0625l3.96094 5.80469m-3.38282-4.96094l.57032-1.08594m11.08593 1.42188l6.125 3.44921m-6.125-3.44921l.0586-2.45313m.83203 2.95313l.03125-1.22657m12.69922.26954l5.51172 4.35937m-5.51172-4.35938l.4414-2.41406m.35938 3.05078l.4414-2.41406m12.05079 1.8086l5.5586 4.29687m-5.5586-4.29688l.41406-2.41796m.39453 3.04297l.20703-1.20704m17.92969.6797l-5.70703 4.10155m5.70703-4.10156l2.19922 1.08984m9.76953-2.21484l-3.01172 6.35156m3.01172-6.35156l2.44922-.11328M438 438.13281l1.22266-.0586m12.53515-.86327l-3.02344 6.34375m3.02344-6.34375l2.45313-.10547m-2.89063 1.03125l2.44922-.10938m-2.89062 1.03125l1.22656-.05468m13.875-1.16797l-4.83594 5.09765"/><g clip-path="url(#X)"><path fill="none" stroke="#000" stroke-linecap="round" stroke-linejoin="round" stroke-miterlimit="10" stroke-width=".5" d="M465.98047 437.83594l2.36328.65234"/></g><g clip-path="url(#Y)"><path fill="none" stroke="#000" stroke-linecap="round" stroke-linejoin="round" stroke-miterlimit="10" stroke-width=".5" d="M147.5039 426.8125l-7.0078.51172"/></g><path fill="none" stroke="#000" stroke-linecap="round" stroke-linejoin="round" stroke-miterlimit="10" stroke-width=".5" d="M146.48438 426.88672l.65234 1.03906m13.35547-2.35937l-6.35156 3.0039m5.42578-2.5664l.98437.73046m13.45313-.64843l-6.7461 1.96484m5.76563-1.67969l.85547.88282m13.54297-.6875l-6.95313 1.0039m5.9414-.85937l.72657.99218m13.63672-.51562l-7.02344-.23828m6 .20312l.53906 1.10547m13.4961-2.6211L207.36719 428.5m5.48437-2.44531l.96485.7539m7.40234-2.01953l5.34375 4.5586m7.19922-1.58594l6.88672-1.38672m12.67969-1.41797l-5.6172 4.22266m4.80079-3.60938l1.10937.51953m11.58985-2.2539l-2.75 6.46484m2.35156-5.52344l1.22266-.10547m12.6953-.74218l-3.16015 6.27734m2.69922-5.36328l1.22656-.02734m13.85547.24609l-5.76953 4.01172m4.92969-3.42969l1.08984.5625m12.80078-1.48047l-5.24218 4.6836m4.48047-4l1.14843.42187m12.40235-1.58203L315 429.88672m4.1914-5.63672l2.42579.36719m10.72265-.48438l-3.85546 5.8711m3.85546-5.8711l2.44141.22266m9.61328-.73438l-1.33984 6.89844m1.14453-5.89844l1.17578-.35547m12.17188-.67578l-1.01172 6.95703m.86328-5.9453l1.15625-.41407m10.34375-.3164l2.91406 6.39452m-2.48828-5.46484l.7461-.97266m10.16406 2.50782l6.87109 1.46484m-5.8711-1.2539l-.33593-1.1797m18.0664-1.20312l-3.95703 5.8086m3.95703-5.8086l2.4375.26563m-3.01562.57812l2.4414.26953m12.2422-.375l-5.53516 4.33203m5.53515-4.33203l2.24219.9961m-3.05078-.36328l2.24219.99609m-3.04688-.36719l1.1211.4961m12.83984-2.60938l-3.60156 6.03516m3.60156-6.03516l2.44922.125m-2.97266.7539l2.44922.1211m10.80469-1.27734l-2.4336 6.58984m2.4336-6.58984l2.4336-.32813m-2.78516 1.28516l2.42968-.32813m11.53125-.5039l-3.02343 6.34375m3.02343-6.34375l2.45313-.10938m-2.89453 1.03125l2.45312-.10937m-2.89062 1.03125l1.22656-.05469m13.73047-1.29688l-4.55078 5.35547"/><g clip-path="url(#Z)"><path fill="none" stroke="#000" stroke-linecap="round" stroke-linejoin="round" stroke-miterlimit="10" stroke-width=".5" d="M465.83594 424.39063l2.39844.52734"/></g><path fill="none" stroke="#000" stroke-linecap="round" stroke-linejoin="round" stroke-miterlimit="10" stroke-width=".5" d="M465.17578 425.17188l2.39453.52343m-3.0586.2539l1.19923.26173"/><g clip-path="url(#aa)"><path fill="none" stroke="#000" stroke-linecap="round" stroke-linejoin="round" stroke-miterlimit="10" stroke-width=".5" d="M146.78125 411.60547l-5.5625 4.29687"/></g><path fill="none" stroke="#000" stroke-linecap="round" stroke-linejoin="round" stroke-miterlimit="10" stroke-width=".5" d="M145.97266 412.23047l1.11718.5039m12.35547-1.77343l-4.26172 5.58594m3.64453-4.77344l1.21094.19922m13.70703.15625l-6.23047 3.24609m5.32422-2.77344l1.01172.69531m13.60156.29297l-7.01953.32422m7.01953-.32422l1.25391 2.11328m11.66016-3.58984l-6.21485 3.28125m6.21485-3.28125l2.03125 1.375m8.53515-3.23047l-.71484 6.99219m.60938-5.97656l1.13671-.46094m8.90625 1.14063l6.03516 3.60156m-5.15625-3.07813l.0625-1.22265m11.9414 1.85156l6.90626 1.29687m-5.90235-1.10937l-.36719-1.17188m16.23829-1.8789l-.21485 7.02344m10.46485-5.40625l5.91406 3.78906m-5.05469-3.23828l.09766-1.22266m15.03906-.9375l.55078 7.00781m-.47265-5.98828l1.03515-.66015m11.59375-.25782l1.76953 6.80078m12.67188-6.90234l-.48438 7.00781m15.83594-6.17578l-4.5586 5.34375m3.89454-4.5664l1.19922.26171m13.26562-.53906l-5.52734 4.33984m4.72265-3.70703l1.1211.4961m12.0625-1.95703l-3.66016 6m3.1289-5.12891l1.22657.07422m13.375-.32813l-5.16797 4.76563m5.16797-4.76563l2.3164.8125m8.65235-1.9375l-.47266 7.01172m.40235-5.98828l1.1211-.5039m14.04296.10937l-4.03125 5.75781m4.03125-5.75781l2.4336.30078m-3.01954.53906l1.21485.14844m13.48828-.20703l-5.63672 4.19531m5.63672-4.19531l2.21875 1.05078m-3.03906-.4414l2.21875 1.05078m11.02734-2.5l-3.85547 5.875m3.85547-5.875l2.4414.22265m-3.0039.63281l2.4414.22266m-3.0039.6289l1.22266.11329m13.16406-1.85547l-3.75 5.9414m3.75-5.9414l2.44922.1836m-2.9961.68359l2.44922.1836m-2.99219.67968l1.22266.08984m13.50781-1.58594l-4.40234 5.47657m4.40234-5.47657l2.41016.46094m-3.05078.33594l1.20703.23047m12.8164-.97266l-4.53906 5.36719m4.53907-5.36719l2.39843.51953m-3.0586.26172l2.39845.51953m11.5039-1.35937l-4.39062 5.48437"/><g clip-path="url(#ab)"><path fill="none" stroke="#000" stroke-linecap="round" stroke-linejoin="round" stroke-miterlimit="10" stroke-width=".5" d="M465.75781 411.01172l2.41016.45312"/></g><path fill="none" stroke="#000" stroke-linecap="round" stroke-linejoin="round" stroke-miterlimit="10" stroke-width=".5" d="M465.11719 411.8086l2.41015.45312"/><g clip-path="url(#ac)"><path fill="none" stroke="#000" stroke-linecap="round" stroke-linejoin="round" stroke-miterlimit="10" stroke-width=".5" d="M146.73047 398.22656l-5.46094 4.42578"/></g><path fill="none" stroke="#000" stroke-linecap="round" stroke-linejoin="round" stroke-miterlimit="10" stroke-width=".5" d="M146.73047 398.22656l2.25781.95703m11.125-.87109l-5.59375 4.2539m5.59375-4.2539l2.22656 1.02734m11.51953-.28125l-6.46093 2.76172m5.52344-2.35937l.95312.76953m13.44531-.76563l-6.75 1.94532m5.76953-1.66016l.85157.8789m11.72265-3.28906l-3.3086 6.19922m2.82813-5.29687h1.22657m13.42968-.25781l-5.03125 4.90625m4.30078-4.19141l1.16797.375m13.34375-.49219l-5.96093 3.71485m5.09375-3.17579l1.0625.61329m12.9414-1.41797l-5.60547 4.24218m5.60547-4.24218l2.22656 1.03515m-3.04296-.41797l1.11328.51954m13.46484-.34766l-6.5 2.66797m6.5-2.66797l1.89063 1.5664m-2.83594-1.17968l.94531.78515m13.26172-1.29687l-6.39453 2.91406m6.39453-2.91406l1.94922 1.4961m11.33594-1.5586l-6.33204 3.04297m6.33204-3.04297l1.97656 1.45312m10.85547-2.20312l-5.36328 4.53906m5.36328-4.53906l2.27734.91015m9.48828-1.96484l-2.26562 6.65235m2.26562-6.65235l2.42188-.39062m7.8711 6.67578l3.77734-5.92188m-3.23047 5.0625l-1.22266-.09765m12.71094-3.51954l6.33984 3.03125m-5.41797-2.58984l-.05468-1.22656m15.61718-1.21094v7.02735m0-6.00782l1.08203-.57422m14.42579.32422l-4.38672 5.48828m3.75-4.6914l1.20703.22656m13.55469-.10156l-6.00782 3.64453m6.00782-3.64453l2.10937 1.2539m-2.98437-.72656l2.10937 1.25781m11.54688-2.46093l-4.94141 4.99609m4.9414-4.9961l2.35157.70313m-3.07031.02344l2.35156.70312m11.78906-1.3203l-5.15234 4.77343m5.15234-4.77344l2.32031.8086m-3.07031-.11329l1.16016.40235m13.20703-.72266l-5.75781 4.02735m5.7578-4.02735l2.1875 1.11328m10.01563-2.13672l-3.53125 6.07422m3.53125-6.07422l2.45313.08985m-2.96875.79297l2.45312.09375m12.1875-.32813l-5.15234 4.77735m5.15234-4.77735l2.3164.80469m-3.0664-.10938l1.16016.40235m13.1289-.83203l-5.60156 4.24218m5.60157-4.24218l2.22656 1.03515m-3.03906-.41797l1.11328.51954m13.01172-1.14454l-5.59375 4.25782"/><g clip-path="url(#ad)"><path fill="none" stroke="#000" stroke-linecap="round" stroke-linejoin="round" stroke-miterlimit="10" stroke-width=".5" d="M466.35938 398.3086l2.22656 1.02734"/></g><g clip-path="url(#ae)"><path fill="none" stroke="#000" stroke-linecap="round" stroke-linejoin="round" stroke-miterlimit="10" stroke-width=".5" d="M465.54297 398.92969l2.23047 1.02734"/></g><g clip-path="url(#af)"><path fill="none" stroke="#000" stroke-linecap="round" stroke-linejoin="round" stroke-miterlimit="10" stroke-width=".5" d="M147.02344 385.33594l-6.04688 3.57422"/></g><path fill="none" stroke="#000" stroke-linecap="round" stroke-linejoin="round" stroke-miterlimit="10" stroke-width=".5" d="M146.14453 385.85547l1.04688.64062m13.46875-.44921l-6.69141 2.15234m6.6914-2.15235l1.75782 1.71094m9.97266-3.67578l-3.51954 6.08203m3.51953-6.08203l2.45313.08985m11.35156.2539l-4.5 5.39844m4.5-5.39844l2.40235.5m10.01172-1.04687l-2.69922 6.48828m2.69922-6.48828l2.4414-.23047m-2.83594 1.17578l1.22266-.11719m12.96484-.58203l-3.65625 6m3.65625-6l2.44922.14063m12.44531 3.72265l-6.8125-1.73047m5.82032 1.48047l.29297 1.1914m13.70703-3.45702l-6.19922 3.30078m5.29687-2.82031l1.01953.68359m13.29688-.96485l-6.39844 2.90235m6.39844-2.90235l1.94531 1.4961m10.89063-2.26953l-5.4375 4.44922m5.4375-4.44922l2.26562.94922m-3.05469-.30079l1.12891.47266m13.58203-.03125l-6.65234 2.26953m6.65234-2.26953l1.78907 1.67969m-2.75782-1.34766l.89453.83985m12.13672-2.875l-4.14453 5.67578m4.14453-5.67578l2.42578.34765m11.50391.22656l-5.375 4.52735m5.375-4.52735l2.27734.91407m-3.0625-.25781l1.14063.45703m13.60547.03906l-6.66797 2.22265m6.66797-2.22265l1.77734 1.6914m-2.7461-1.36718l.88673.84375m12.11718-2.90625l-4.10937 5.69922m4.10937-5.69922l2.4297.33203m-3.02735.4961l1.21484.16796m14.03516.9375l-6.78125 1.83203m6.78125-1.83203l1.67969 1.78906m-2.66407-1.52343l1.67578 1.79296m12.50782-2.41015l-6.55078 2.53515m6.55078-2.53515l1.85937 1.60547m-2.8125-1.23828l.92969.80468m13.01172-1.8164l-5.89453 3.82422m5.89453-3.82422l2.14453 1.1914m-3.0039-.63671l2.14452 1.1914m11.8047-2.05078l-5.44923 4.4336m5.44922-4.4336l2.26172.95313m-3.05469-.3086l2.26172.95313M399.875 385.125l-5.77734 3.9961m5.77734-3.9961l2.17969 1.125m-3.01953-.54297l2.17968 1.125m11.46875-2.28906l-4.76562 5.16015m4.76562-5.16015l2.375.6211m-3.0664.1289l1.1875.3125m11.85547-1.69531l-2.83594 6.42968m2.83594-6.42968l2.4453-.1836m11.42579.49219l-3.95312 5.8086m3.95312-5.8086l2.4414.26563m-3.01562.57812l1.21875.13281m13.41016-.30469l-5.42578 4.46485m5.42578-4.46485l2.26562.94141m11.20703-.73047l-5.74609 4.04297"/><g clip-path="url(#ag)"><path fill="none" stroke="#000" stroke-linecap="round" stroke-linejoin="round" stroke-miterlimit="10" stroke-width=".5" d="M466.4336 385.10156l2.1914 1.10547"/></g><path fill="none" stroke="#000" stroke-linecap="round" stroke-linejoin="round" stroke-miterlimit="10" stroke-width=".5" d="M465.59766 385.6875l1.09375.55469"/><g clip-path="url(#ah)"><path fill="none" stroke="#000" stroke-linecap="round" stroke-linejoin="round" stroke-miterlimit="10" stroke-width=".5" d="M145.78516 370.78125l-3.57032 6.05469"/></g><path fill="none" stroke="#000" stroke-linecap="round" stroke-linejoin="round" stroke-miterlimit="10" stroke-width=".5" d="M160.74219 373.03906l-6.85547 1.53906m5.85937-1.3164l.80078.92969m13.28907-1.82422l-6.41016 2.88281m5.47656-2.46484l.96875.7539m13.44922-.71094l-6.75 1.95704m6.75-1.95704l1.71094 1.76172m11.51172-2.03906l-6.5625 2.51563m6.5625-2.51563l1.84766 1.61328m11.38671-1.80469l-6.40234 2.89844m6.40234-2.89844l1.94141 1.5m11.59766-.83203l-6.85157 1.5625m6.85157-1.5625l1.60547 1.85547m-2.60157-1.6289l.80078.92578m13.46875.57422l-6.76953-1.89454m6.76953 1.89454l.52344 2.39843m12.77734-2.34765l-6.73828-1.99219m5.75782 1.70313l.24609 1.20312m13.91406-3.28125l-6.46875 2.74219m6.46875-2.74219l1.90625 1.54297m11.42969-1.4961l-6.51172 2.64844m6.51172-2.64844l1.88281 1.57032m11.45703-1.50781l-6.55859 2.52343m6.5586-2.52344l1.85156 1.60938m11.67187-.75l-6.98047.80469m6.98047-.80469l1.39453 2.01953m10.25-4.625l-3.63672 6.01563m3.63672-6.01563l2.44922.13281m-2.98047.7422l1.22656.0664M333 371.43359l-5.17969 4.75m5.17969-4.75l2.3125.82032m11.15625-.64454l-5.48438 4.39844m5.48438-4.39844l2.2539.96875m-3.05468-.32812l1.1289.48438m13.21094-.8086l-5.9336 3.76172m5.9336-3.76172l2.13281 1.21485m-2.99609-.66407l1.0664.60547M373.77344 373l-6.83593 1.61719M373.77344 373l1.6211 1.83984m11.10937-3.10937l-5.66797 4.15625m5.66797-4.15625l2.21093 1.0664m10.8672-1.35937l-5.19142 4.74219m5.19141-4.74219l2.3086.82422m-3.06641-.13281l1.15625.41015m12.5586-1.4375l-4.47657 5.41406m4.47656-5.41406l2.40625.49219m-3.0586.29297l1.20313.2461m12.22266-1.40235l-3.39063 6.15625m3.39063-6.15625l2.45313.03515m9.73437-.42578l-1.14063 6.9336m1.14063-6.9336l2.32813-.78515m10.70312.75l-.5664 7.0039m.5664-7.0039l2.25-.97266m12.78906 1.59375l-4.01562 5.76563m3.42969-4.92579l1.21875.14454"/><g clip-path="url(#ai)"><path fill="none" stroke="#000" stroke-linecap="round" stroke-linejoin="round" stroke-miterlimit="10" stroke-width=".5" d="M145.63672 357.38281l-3.27344 6.21875"/></g><path fill="none" stroke="#000" stroke-linecap="round" stroke-linejoin="round" stroke-miterlimit="10" stroke-width=".5" d="M158.125 363.91406l-1.61719-6.83984m1.3789 5.84375l-.92187.8086m13.41407.26952l.5039-7.0078m-.42969 5.98827l-1.125.5m11.65625-1.08984l5.92188-3.78906m-5.0586 3.23828l-1.0703-.60156m15.51952 2.63671l1.9297-6.7578m14.77734 5.91796l-4.85938-5.07422m19.24219 2.1836l-6.99219.70312m5.97266-.59766l.6836 1.01954m13.65624-1.07422l-7.0039.60546m5.98437-.51953l.66797 1.03125m12.80078 1.50782l-5.26953-4.64844m18.16016 5.05469l-4.42188-5.46094m3.77734 4.66797l-.48047 1.1289m13.89063.03125l-3.32031-6.1914m2.83594 5.28906l-.6836 1.01953m16.33203-3.07812l-7.02343-.26954m6 .23047l.53515 1.10547m13.55078.11328l-6.51562-2.6328m5.5664 2.25l.12891 1.21874m11.60938-5.58984l-1.46485 6.875m1.25-5.875l1.17969-.33594m14.00781.19922l-4.78125 5.14844m4.78125-5.14844l2.3711.6289m11.89843.875l-6.6914 2.14454m5.71875-1.83204l.8789.85547m13.53907.42188l-6.94922-1.03906m5.9375.89062l.41015 1.15625m13.57422-3.11719l-6.26562 3.1797m5.35547-2.71485l1.0039.70312m12.70313-1.92578l-5.23047 4.69531m5.23047-4.6953l2.30468.84374m10.46485-1.33594l-4.13672 5.6836m4.13672-5.6836l2.42969.34375m10.29687-.6914l-2.95703 6.375m2.95703-6.375l2.44922-.13281m-2.8789 1.0625l1.22265-.06641m12.35937-.92969l-2.63671 6.51172m2.63671-6.51172l2.44141-.25781m-2.82422 1.20312l1.22266-.125m12.44531-.83593l-2.57422 6.53906m2.57422-6.53906l2.4375-.27735m-2.8125 1.23047l1.21875-.14062m11.60156-1.03125l-.83593 6.97656m.83593-6.97656l2.28907-.88282m12.35546 1.32422l-3.49609 6.09375m2.98828-5.20703l1.22656.03906"/><g clip-path="url(#aj)"><path fill="none" stroke="#000" stroke-linecap="round" stroke-linejoin="round" stroke-miterlimit="10" stroke-width=".5" d="M146.98047 345.3164l-5.96094 3.72266"/></g><path fill="none" stroke="#000" stroke-linecap="round" stroke-linejoin="round" stroke-miterlimit="10" stroke-width=".5" d="M146.11328 345.85938l1.0625.61328m10.82031 4.15234l-1.35937-6.89453m12.1914 6.46484l3.60157-6.03515m-3.07422 5.15625l-1.22656-.0586m13.5.5625l4.6328-5.28515m-3.95702 4.51562l-1.19531-.28125m13.55078.77344l5.19922-4.73047m-4.44141 4.04297l-1.15625-.41406m13.13281.22656l6.36328-2.98047m-5.4375 2.54688l-.98047-.73438m13.12891.48047l6.84375-1.60547m-5.84766 1.3711l-.80859-.92188m13.03906.1875l7.01953.33203m-5.99609-.28516l-.52734-1.10546m12.8164 1.34765l7.02344-.24219m-6 .20704l-.61328-1.0625m13.39453 2.76562l6.04688-3.58203m-5.16797 3.0625l-1.04688-.63672m13.52344 1.22266l5.96484-3.71485m-5.09765 3.17578l-1.0586-.61718M289 350.37109l2.9336-6.38671m14.14453 5.85156l-4.59375-5.3164m12.42187 4.1328l6.3789-2.9453m-5.44921 2.51562l-.98047-.7422m14.16797-2.8789l4.77734 5.15235m-4.08203-4.40235l.40234-1.16015m17.5.99609l-5.78906 3.98047m5.78906-3.98047l2.17579 1.13281m11.64843-.00781l-6.8086 1.73047m6.8086-1.73047l1.65235 1.8164m9.37109-4.28515l-2.22266 6.66797m1.89844-5.69531l1.21094-.20704m12.46875-.75l-2.30469 6.63672m1.96875-5.67187l1.21094-.1875m11.75-.9414l-.92578 6.96484m.78906-5.95313l1.14844-.42578m12.1875-.59766l-.69531 6.9922m.6953-6.9922l2.26954-.93359m11.4414.99219l-1.48437 6.8711m1.48438-6.8711l2.35937-.66797m11.61719.88281l-2.8086 6.4414m2.8086-6.4414l2.44531-.1914m-2.85547 1.1289l1.22266-.09765m13.01172-.56641l-3.82813 5.89453m3.82813-5.89453l2.4453.21484m11.62892.45313l-5.34375 4.5625m4.5664-3.89844l1.14063.44922"/><g clip-path="url(#ak)"><path fill="none" stroke="#000" stroke-linecap="round" stroke-linejoin="round" stroke-miterlimit="10" stroke-width=".5" d="M146.83984 331.79688l-5.67968 4.1328"/></g><path fill="none" stroke="#000" stroke-linecap="round" stroke-linejoin="round" stroke-miterlimit="10" stroke-width=".5" d="M146.01563 332.39844l1.10156.53515m13.26562-.78515l-6.13672 3.42578m5.2422-2.92578l1.03124.66406m12.69531-1.82813l-5.16797 4.75782m4.41407-4.0664l1.16015.40624m13.28907-.60547l-5.9297 3.77344m5.06642-3.22266l1.0664.60157m7.69531-1.78516l4.90235 5.03906m10 .88672l1.73047-6.8125m-1.48047 5.82031l-1.1914.29297m15.01562.80469l.21093-7.02344m-.17968 6l-1.10157.54297m11.66407-.94531l5.65625-4.17188m-4.83594 3.5625l-1.10547-.52734m13.07813.11328l6.69921-2.125m6.48438 1.55078l6.96094-.97656m-5.94922.83203l-.71875-.99219m13.13281 1.64063l6.73828-1.98438m-5.75781 1.69532l-.85938-.875m13.38672 1.67578l6.35156-3.00781m-5.42578 2.5703l-.98437-.73437m15.04687 2.84375l3.00782-6.35156m-2.57032 5.42578l-1.22656.0586m12.48438-.69532l6.24609-3.22656m-5.33594 2.75781l-1.00781-.69922m13.02344-.39843l7.02734-.09375m-7.02734.09375l-1.1836-2.14844m14.64844 1.08203l6.72656 2.03906m-6.72656-2.03906l-.47266-2.40625m13.63672 3.42578h7.02735m-6.0039 0l-.57813-1.08203m13.04296 2.16797l6.6836-2.17188m7.27344 3.33594l5.39453-4.5039m-4.60938 3.85156l-1.13672-.46485m13.11328-2.46093l6.50391 2.65625m-5.5586-2.26954l-.125-1.21875m14.11329-.95312l3.26562 6.22266m-2.78906-5.31641l.6914-1.01172m14.5-.22265l-1.4375 6.8789m1.4375-6.8789l2.35548-.6836m11.66015.91016l-2.83984 6.42969m2.83984-6.4297l2.44531-.17968m-2.85937 1.11328l1.22266-.08984m13.375-.29297l-4.57813 5.32812m4.57813-5.32812l2.39453.53515m11.92187.89844l-6.58203 2.46094m5.625-2.10156l.91797.8125"/><g clip-path="url(#al)"><path fill="none" stroke="#000" stroke-linecap="round" stroke-linejoin="round" stroke-miterlimit="10" stroke-width=".5" d="M146.9961 318.71484l-5.9922 3.66407"/></g><path fill="none" stroke="#000" stroke-linecap="round" stroke-linejoin="round" stroke-miterlimit="10" stroke-width=".5" d="M146.9961 318.71484l2.11327 1.25m11.45704-.75l-6.50391 2.66797m5.5586-2.28125l.9414.78516m13.1289-1.5625l-6.125 3.44531m5.23438-2.9414l1.03516.66015m13.33594-.82812l-6.45313 2.77734m6.45313-2.77734l1.91406 1.53515m11.5039-1.26562l-6.66015 2.23437m5.6914-1.91015l.89063.84765m13.5664-.32422l-7.0039.54297m5.98437-.46484l.66016 1.03515m13.57813-1.71093l-6.8125 1.73437m5.8203-1.48047l.82423.90625m13.3828-1.48437l-6.61327 2.38281m5.65234-2.03515l.90625.82421m13.16016-1.64062l-6.19531 3.32031m5.29296-2.83594l1.01953.6836m12.95704-1.55078l-5.71485 4.08984m4.88672-3.4961l1.09766.54688m12.29297-1.91015l-4.20703 5.6289m12.98437-5.34765l4.8711 5.0664m10.04687.8789l1.66015-6.82812m-1.41796 5.83594l-1.1875.30469m12.49218-.36328l5.19922-4.72657m-4.4414 4.03907l-1.15625-.41407m12.8164-1.59765l6.99219.67578m-5.97656-.57813l-.46875-1.1328m12.77344.96483l6.98046.81641m-5.96484-.69922l-.44531-1.14062m12.72265 1.51562l7.02735-.17187m-6.0039.14844l-.60157-1.07032m13.75-1.29297l5.3125 4.60157m-4.53906-3.9297l.27343-1.19921m11.41797 2.60547l7.01172.44922m6.30469-.4375l7.01172.42187m-5.99219-.35937l-.51172-1.11719m13.3086-.55469l6.0078 3.64453m-5.1328-3.11328l.0703-1.22656m13.65235-.54688l3.4414 6.12891m-2.9375-5.23828l.66016-1.03125m13.44532-.28125l.85546 6.97266m-.85546-6.97266l2.0078-1.41016m12.08595 1.39844l-.70313 6.99219m.60156-5.97266l1.13672-.46484m15.27735 1.88281l-6.69922 2.11719m5.72656-1.8086l.875.85938"/><path fill="#00f" fill-rule="evenodd" d="M383.80078 436.57813h8.61719v-10.14454h-8.61719v10.14454"/><path fill="azure" fill-rule="evenodd" d="M385.63281 428.26563h.83203v2.82421h3.28907v-2.82421h.83203v6.48046h-.83203v-2.91406h-3.28907v2.91406h-.83203v-6.48046"/><path fill="#ff3030" fill-rule="evenodd" d="M202.52344 432.14063h7.6914v-10.14454h-7.6914v10.14454"/><path fill="azure" fill-rule="evenodd" d="M204.35547 423.82813h.83203v5.73828h3.19531v.74218h-4.02734v-6.48046"/><path fill="#00f" fill-rule="evenodd" d="M219.58203 418.82813h8.61719v-10.14844h-8.61719v10.14844"/><path fill="azure" fill-rule="evenodd" d="M221.41406 410.51172h.83203v2.82422h3.28907v-2.82422h.83203v6.48047h-.83203v-2.91406h-3.28907v2.91406h-.83203v-6.48047"/><path fill="#ff3030" fill-rule="evenodd" d="M300.16406 396.63281h7.69531v-10.14453h-7.6953v10.14453"/><path fill="azure" fill-rule="evenodd" d="M302 388.32031h.83203v5.74219h3.19531v.73828H302v-6.48047"/><path fill="#00f" fill-rule="evenodd" d="M370.48438 396.63281h8.62109v-10.14453h-8.6211v10.14453"/><path fill="azure" fill-rule="evenodd" d="M372.3164 388.32031h.83594v2.82422h3.28516v-2.82422h.83203v6.48047h-.83203v-2.91406h-3.28516v2.91406h-.83593v-6.48047"/><path fill="#00f" fill-rule="evenodd" d="M201.82813 392.19531h8.61718v-10.14453h-8.61719v10.14453"/><path fill="azure" fill-rule="evenodd" d="M203.66016 383.88281h.83203v2.82422h3.28906v-2.82422h.83203v6.48047h-.83203v-2.91406h-3.28906v2.91406h-.83203v-6.48047"/><path fill="#ffffe0" fill-rule="evenodd" d="M346.1836 366.58203h22.17968v-10.19531H346.1836v10.19531"/><path fill-rule="evenodd" d="M349.6836 358.22266h.5078v6.29296h-.78906v-4.48828h-1.38671v-.55468l.55859-.06641.2539-.05469.23047-.08984.20313-.14063.17187-.21093.14063-.29297.10937-.39453m4.8125 0l.23047.01953.21875.05469.20703.08984.19532.1211.18359.14843.17188.17578.30078.41797.24609.4961.17969.54296.10937.58203.03906.58985-.03906.59375-.10937.58203-.17969.55469-.2461.5039-.30077.42578-.17188.1797-.1836.15624-.1953.1211-.20704.09375-.21875.05468-.23047.01953-.23046-.01953-.21875-.05469-.20704-.09375-.1953-.12109-.1875-.15625-.16798-.17969-.30469-.42578-.24218-.5039-.17969-.5547-.11328-.58202-.03516-.59375h.83203l.02735.5625.08203.50781.1289.4414.16016.375.1914.30079.21094.22265.22266.13672.22656.04688.22657-.04688.22265-.13672.21094-.22265.1914-.30078.16016-.375.125-.44141.08203-.50781.03125-.5625-.03125-.5625-.08203-.5-.125-.4336-.16015-.36718-.19141-.29297-.21094-.21094-.22265-.13281-.22657-.04688-.22656.04688-.22265.13281-.21094.21094-.1914.29297-.16017.36718-.1289.4336-.08203.5-.02735.5625h-.83203l.03516-.58985.11328-.58203.17969-.54297.24219-.49609.30468-.41797.16797-.17578.1875-.14844.19531-.1211.20704-.08983.21875-.0547.23046-.01952m5.08985 0h.51172v6.29296h-.78907v-4.48828h-1.38671v-.55468l.55859-.06641.2539-.05469.22657-.08984.20312-.14063.17578-.21093.14063-.29297.10547-.39453m2.82422 2.17578h.78515l.02344-.3164.0586-.28907.09765-.25.14063-.21485.17968-.17578.22266-.1289.26562-.08203.3086-.02735.23828.02344.22265.0625.20704.10156.17578.13672.15234.17578.11328.20313.07031.23828.02344.26172-.01953.26953-.0664.22656-.10938.1914-.15625.17188-.19922.16016-.25.16797-.63281.38672-.53906.3125-.4375.3203-.34375.32423-.26563.33594-.1914.34765-.125.3711-.06641.39453-.02344.41796h4.21485v-.73828h-3.33204l.08204-.28515.11328-.23828.14843-.19922.1875-.1836.23047-.16796.27735-.17579.71875-.41796.41406-.20704.34765-.23046.28125-.25.21875-.26563.16407-.28125.10937-.28125.0625-.28516.02344-.28125-.04297-.3828-.1211-.34767-.1875-.30859-.25-.26562-.30468-.21094-.34375-.16016-.38281-.09765-.40625-.03125-.4336.03125-.39843.09765-.35547.16797-.30469.23438-.2461.30468-.1875.375-.11718.44532-.03906.51953"/><path fill="#ffffe0" fill-rule="evenodd" d="M235.22266 412.39844h22.17968v-10.1914h-22.17968v10.1914"/><path fill-rule="evenodd" d="M238.72266 404.03906h.5078v6.29688h-.78515v-4.49219h-1.39062v-.55469l.5625-.0664.25-.05079.23047-.08984.20312-.14453.17578-.20703.14063-.29688.10547-.39453m4.8125 0l.23047.01953.21875.0547.20703.08983.19922.1211.18359.14844.17187.17578.30078.42187.2422.49219.17968.54688.11328.57812.03906.58984-.03906.59375-.11328.58594-.17969.55469-.24219.5-.30078.42969-.17187.17968-.1836.15235-.19921.125-.20703.08984-.21875.0586-.23047.01953-.22657-.01954-.21875-.05859-.21093-.08984-.19532-.125-.18359-.15235-.17188-.17968-.30078-.4297-.24609-.5-.17969-.55468-.10937-.58594-.03906-.59375h.83203l.03125.56641.08203.5039.125.44141.16406.375.1875.30078.21094.22266.22265.13672.22657.04687.22656-.04687.22266-.13672.21093-.22266.1914-.30078.16407-.375.125-.4414.08203-.50391.02735-.5664-.02735-.5586-.08203-.5-.125-.4375-.16406-.36328-.1914-.29297-.21095-.21484-.22265-.13282-.22656-.04296-.22657.04296-.22265.13282-.21094.21484-.1875.29297-.16406.36328-.125.4375-.08203.5-.03125.5586h-.83203l.03906-.58985.10937-.57813.17969-.54687.2461-.49219.30077-.42187.17188-.17578.1836-.14844.1953-.1211.21094-.08984.21875-.05469.22657-.01953m5.09375 0h.5078v6.29688h-.78515v-4.49219h-1.39062v-.55469l.5586-.0664.2539-.05079.23047-.08984.20312-.14453.17188-.20703.14453-.29688.10547-.39453m2.82422 2.17578h.78515l.01953-.3164.0586-.28516.10156-.2539.13672-.21485.1836-.17578.22265-.1289.26562-.07813.3086-.02735.23828.01954.22265.0625.20313.10156.17969.14062.14843.17188.11328.20703.07032.23438.02734.26562-.02344.26953-.0664.22266-.10938.1914-.15625.17188-.19922.16406-.24609.16406-.63281.39063-.53906.3125-.4375.3164-.34766.32422-.26172.33594-.1914.35156-.125.3711-.07032.39062-.01953.42188h4.21094v-.74219h-3.33203l.08203-.28516.11328-.23437.14844-.20313.1875-.17968.23047-.17188.28125-.17578.71484-.41797.41797-.20312.34375-.23047.28125-.2539.21875-.26563.16406-.27735.11328-.28515.0625-.28516.01953-.28125-.04297-.38281-.11718-.34766-.19141-.3086-.25-.26171-.30078-.21485-.34766-.15625-.3789-.09765-.40625-.03516-.4375.03125-.39844.10156-.35156.16407-.3047.23437-.25.30469-.18358.375-.1172.44531-.03905.51953"/><path fill="#ffffe0" fill-rule="evenodd" d="M190.83984 335.24219h22.1797v-10.1914h-22.1797v10.1914"/><path fill-rule="evenodd" d="M194.33984 326.88281h.50782v6.29688h-.78516v-4.48828h-1.39063v-.5586l.5625-.0625.25-.05469.23047-.08984.20313-.14062.17578-.21094.14063-.29297.10546-.39844m4.8125 0l.23047.01953.21875.0586.20703.08594.19532.12109.1875.15234.16797.17578.30468.41797.24219.49219.17969.54688.11328.58203.03516.58984-.03516.59375-.11328.58203-.17969.55469-.24219.5039-.30469.42579-.16796.17968-.1875.15235-.19532.125-.20703.08984-.21875.0586-.23047.01953-.23047-.01954-.21875-.05859-.20703-.08984-.1953-.125-.1836-.15235-.17188-.17968-.30078-.42579-.2461-.5039-.17968-.55469-.10938-.58203-.03906-.59375h.83203l.03125.5625.08203.5039.125.44532.16016.375.1914.30078.21095.21875.22265.13672.22656.04687.22657-.04687.22265-.13672.21094-.21875.1914-.30078.16016-.375.1289-.44531.08204-.50391.02734-.5625-.02734-.5625-.08203-.5-.1289-.4336-.16016-.36718-.19141-.29297-.21094-.21484-.22265-.12891-.22657-.04688-.22656.04688-.22266.1289-.21093.21485-.1914.29297-.16017.36719-.125.43359-.08203.5-.03125.5625h-.83203l.03906-.58984.10938-.58204.17969-.54687.2461-.49219.30077-.41797.17188-.17578.1836-.15234.1953-.1211.20703-.08593.21875-.0586.23047-.01953m5.09375 0h.50782v6.29688h-.78907v-4.48828h-1.38672v-.5586l.5586-.0625.2539-.05469.23047-.08984.20313-.14062.17187-.21094.14063-.29297.10937-.39844m6.80078 1.6211h-.78515l-.05078-.21094-.08203-.1875-.10938-.16016-.1289-.1289-.14454-.10547-.16015-.07422-.16797-.04297-.17578-.01563-.32813.04297-.28515.1172-.2461.1953-.20312.26954-.16016.33984-.11719.40234-.0703.46875-.02345.52344.1875-.19922.1875-.16015.1836-.125.1875-.08594.1875-.0625.1914-.03516.40235-.02344.3086.03125.3203.08985.31641.15625.29297.21875.2539.28515.19922.35157.07422.19921.05078.21875.03125.23438.00391.25-.78906.04688-.02344-.25782-.07813-.2539-.125-.23438-.16015-.20703-.1914-.17969-.21876-.13672-.24219-.08984-.2539-.03125-.25781.03125-.23828.08984-.21875.13672-.19532.17969-.16015.20703-.1211.23438-.07812.2539-.02735.25781.02735.25782.07812.25.1211.23437.16015.21094.19531.17969.21875.13672.23829.08593.2578.03125.25392-.03125.24218-.08593.21875-.13672.1914-.17969.16017-.21094.125-.23437.07812-.25.02344-.25781.78906-.04688-.03125.3711-.09375.37109-.15625.35937-.22266.32813-.28906.28125-.17187.1211-.1875.10155-.20703.08204-.22266.0625-.24219.03906-.25781.01172-.28516-.01563-.25781-.04687-.23828-.07813-.21484-.10156-.19532-.13281-.17578-.15625-.15234-.1797-.13672-.20312-.11719-.22265-.09766-.24219-.14843-.53516-.08203-.59375-.02735-.64062.03906-.74219.11329-.66406.1875-.57813.11718-.2539.13672-.23047.15625-.20703.16797-.1836.1875-.15234.20313-.1289.21484-.10157.23438-.07422.24609-.04687.26172-.01563.36719.03516.33203.09765.29687.14844.2539.19922.21095.24219.16796.27344.11328.30468.0625.32032"/></g></defs><use xlink:href="#am"/></svg>