<svg xmlns="http://www.w3.org/2000/svg" role="img" xmlns:xlink="http://www.w3.org/1999/xlink" viewBox="142.45 309.95 326.84 171.84"><defs><clipPath id="a"><path d="M144 446h1v34.32813h-1zm0 0"/></clipPath><clipPath id="b"><path d="M144 311.67188h1V436h-1zm0 0"/></clipPath><clipPath id="c"><path d="M144 311.67188h324v168.65625H144zm0 0"/></clipPath><clipPath id="d"><path d="M390 477h6v3.32813h-6zm0 0"/></clipPath><clipPath id="e"><path d="M467 311.67188h1v168.65625h-1zm0 0"/></clipPath><clipPath id="f"><path d="M144 479h4v1.32813h-4zm0 0"/></clipPath><clipPath id="g"><path d="M147 479h3v1.32813h-3zm0 0"/></clipPath><clipPath id="h"><path d="M153 479h9v1.32813h-9zm0 0"/></clipPath><clipPath id="i"><path d="M160 479h3v1.32813h-3zm0 0"/></clipPath><clipPath id="j"><path d="M166 480h9v.32813h-9zm0 0"/></clipPath><clipPath id="k"><path d="M173 480h3v.32813h-3zm0 0"/></clipPath><clipPath id="l"><path d="M180 479h8v1.32813h-8zm0 0"/></clipPath><clipPath id="m"><path d="M186 480h2v.32813h-2zm0 0"/></clipPath><clipPath id="n"><path d="M193 479h9v1.32813h-9zm0 0"/></clipPath><clipPath id="o"><path d="M199 480h2v.32813h-2zm0 0"/></clipPath><clipPath id="p"><path d="M206 479h9v1.32813h-9zm0 0"/></clipPath><clipPath id="q"><path d="M212 480h2v.32813h-2zm0 0"/></clipPath><clipPath id="r"><path d="M220 479h8v1.32813h-8zm0 0"/></clipPath><clipPath id="s"><path d="M226 479h2v1.32813h-2zm0 0"/></clipPath><clipPath id="t"><path d="M233 479h8v1.32813h-8zm0 0"/></clipPath><clipPath id="u"><path d="M239 479h2v1.32813h-2zm0 0"/></clipPath><clipPath id="v"><path d="M246 479h9v1.32813h-9zm0 0"/></clipPath><clipPath id="w"><path d="M252 480h2v.32813h-2zm0 0"/></clipPath><clipPath id="x"><path d="M260 480h8v.32813h-8zm0 0"/></clipPath><clipPath id="y"><path d="M266 480h2v.32813h-2zm0 0"/></clipPath><clipPath id="z"><path d="M275 479h4v1.32813h-4zm0 0"/></clipPath><clipPath id="A"><path d="M287 477h6v3.32813h-6zm0 0"/></clipPath><clipPath id="B"><path d="M300 477h7v3.32813h-7zm0 0"/></clipPath><clipPath id="C"><path d="M314 477h7v3.32813h-7zm0 0"/></clipPath><clipPath id="D"><path d="M327 478h7v2.32813h-7zm0 0"/></clipPath><clipPath id="E"><path d="M340 479h8v1.32813h-8zm0 0"/></clipPath><clipPath id="F"><path d="M340 478h2v2.32813h-2zm0 0"/></clipPath><clipPath id="G"><path d="M353 479h8v1.32813h-8zm0 0"/></clipPath><clipPath id="H"><path d="M353 478h2v2.32813h-2zm0 0"/></clipPath><clipPath id="I"><path d="M366 479h9v1.32813h-9zm0 0"/></clipPath><clipPath id="J"><path d="M367 478h2v2.32813h-2zm0 0"/></clipPath><clipPath id="K"><path d="M379 479h9v1.32813h-9zm0 0"/></clipPath><clipPath id="L"><path d="M393 479h8v1.32813h-8zm0 0"/></clipPath><clipPath id="M"><path d="M391 478h3v2.32813h-3zm0 0"/></clipPath><clipPath id="N"><path d="M406 478h8v2.32813h-8zm0 0"/></clipPath><clipPath id="O"><path d="M421 476h5v4.32813h-5zm0 0"/></clipPath><clipPath id="P"><path d="M435 476h4v4.32813h-4zm0 0"/></clipPath><clipPath id="Q"><path d="M446 479h9v1.32813h-9zm0 0"/></clipPath><clipPath id="R"><path d="M452 479h2v1.32813h-2zm0 0"/></clipPath><clipPath id="S"><path d="M460 478h7v2.32813h-7zm0 0"/></clipPath><clipPath id="T"><path d="M144 466h4v2h-4zm0 0"/></clipPath><clipPath id="U"><path d="M144 453h4v2h-4zm0 0"/></clipPath><clipPath id="V"><path d="M466 451h2v3h-2zm0 0"/></clipPath><clipPath id="W"><path d="M144 440h4v1h-4zm0 0"/></clipPath><clipPath id="X"><path d="M144 426h4v2h-4zm0 0"/></clipPath><clipPath id="Y"><path d="M465 423h3v2h-3zm0 0"/></clipPath><clipPath id="Z"><path d="M144 412h4v4h-4zm0 0"/></clipPath><clipPath id="aa"><path d="M465 410h3v2h-3zm0 0"/></clipPath><clipPath id="ab"><path d="M144 398h4v5h-4zm0 0"/></clipPath><clipPath id="ac"><path d="M465 397h3v3h-3zm0 0"/></clipPath><clipPath id="ad"><path d="M144 384h3v6h-3zm0 0"/></clipPath><clipPath id="ae"><path d="M466 384h2v3h-2zm0 0"/></clipPath><clipPath id="af"><path d="M144 370h1v8h-1zm0 0"/></clipPath><clipPath id="ag"><path d="M144 356h1v9h-1zm0 0"/></clipPath><clipPath id="ah"><path d="M465 357h3v2h-3zm0 0"/></clipPath><clipPath id="ai"><path d="M144 344h3v6h-3zm0 0"/></clipPath><clipPath id="aj"><path d="M466 345h2v3h-2zm0 0"/></clipPath><clipPath id="ak"><path d="M144 331h4v6h-4zm0 0"/></clipPath><clipPath id="al"><path d="M466 332h2v4h-2zm0 0"/></clipPath><clipPath id="am"><path d="M144 318h3v6h-3zm0 0"/></clipPath><clipPath id="an"><path d="M466 319h2v3h-2zm0 0"/></clipPath><g id="ao" clip-path="url(#clip1)"><path fill="#fff" fill-opacity="0" fill-rule="evenodd" d="M0 0h1000v1000H0zm0 0"/><path fill="#d3d3d3" fill-opacity="0" fill-rule="evenodd" d="M162.15234 355.86719l-.23437.29297.0586.23437.11718.17188.17578.23437.29297.34766.11328.0586.11719-.17188.0586-.23438.17577-.17578.46485-.17578h.69922l.23437.29297.28906.8164.0586.17579.17578.23046.35156.23438.69922.69922.17188.17578.23437.34765.23438.41016.28906.58203.41015.46485.23047.23437.23438.17578.11719.23047.17578.29297.17187 1.16406v.23438l.0586.28906.05859.11719.11719.11719.34765.41015.11719.17188.17578.17578.17578.23437.11719.17188.17188.35156.05859.23438.23437.40625.23438-.0586-.17578.17578-.0586.92969h-.58203l-.23437-.11328-.34766.11328-.11719.11719-.05859.29297-.0586.17578-.11718.17187-.46484.29297-.0586.23438-.0586.11328v.64453l.0586.17187v.41016l.0586.0586v.40624l.05859.40625.11719.17579.05859.05859.23047.64062-.0586.29297v.69922l-.05859.58203v.23438l-.0586.23047-.05468.35156v1.92187l.05469.1172h.42578l-.36719.11718-.02344.35156.89063 1.16797 1.74219.53906 1.33984.35938v.53906l.08984.8086.53516.71484 1.51953.26953.89063-.08594.08984 1.16406.53516.1797 1.16015-.1797 2.05469-.98437 1.16016-.36328 1.8789-.17578 1.69531-.1797-.17968.71876-1.51563.08594-1.25.08984-.80469.26953-1.07421.8086.26953.71875.53515.89843-.17968.625-.26563.8086.26563 1.07812.625.89844.80468.17969 1.25-.1797-.26562.72267.09766.5039.05468.29297v.17188l.0586.29296v.40625l.17578.1172.35156.11718h.40625l.29297-.17578.11328-.11719.0586-.11719.11718-.23047.0586-.17578.35156-.46484.23047-.17578.17578-.0586.17578.0586.0586.17578.11718.98828.05469.46875.0586.17188.11718.23437.17578.0586.8164.05859h.28907l.11719.23437.05859.40625.0586.35156v1.10547l.11718.29297.11719.34766.28906.69922.17578.35156.58203.7539.35157.17579.17187.0586.46875.23437.64063.46484.34765.23438.29297.17578.29297.05468.23047.0625.8164.34766.29297.17578.11328.17188.35157.35156.11719.17578.52343.64063v.28906l.0586.35156v.34766l.05859.35156.0586.28906.11718.0586.17188.05859h.17578l.58203.23437.17578.1172.17578.28905.17578.23438.11328.23437.29297.23047.11719.11719v.41016l.0586.05468.28906.23438.23437.11719.0586.11718.11718.17188.0586.11719.23047.23437.05859.17578.23437.0586.1172.05859-.1172.11328-.05859.11719v.11719l-.11719.29296-.11719.28907v.58203l.17579.11719.11718.05859.0586.11719.11719.11719.11328.05859.17578.34765.0586.35157.05858.40625v.17578l-.05859.17578-.11719.69922v.17187l.1172.17579.29296.29296h.40625l.17578.1172.11719.17187.11719.29296v.23438h-.52735l-.23047-.23438h-.23437l-.17578.0586-.0586.69922.0586.34765.11719.17579.17578.41015.11718.23047.28907.46875.17578.05469h.52344l.23437.0586.75781.64062.0586.29296v.23438l.05859.0586.23047.34765v.35156l-.11719.17188v.29297l.29297.28906.29297.17578.17187.0586.29297.17577.29297.1172.58203.40624.28906.23438.29297.17578.21875.16015.01563.01172.23047.17579.64062.52343.17578.23438.1172.17578.17577.17578.11328.17188v.64062l.1172.17578.46874.11719.58203.11719.23438.05859.23047.11328.29297.11719.11328.0586.58593.35156.28907.17187.17578.0625.17578.05469.17578.0586.69922.35155.28906.17579.23438.05468.28906.17578.23437.1172.64063.40624.29297.11719.17187.0586.23438.05859.41015.05859.23047.0586.23438.11718.0586.17188-.41017.17578.46875.0586.0586.29296.11328.23438.17578.05468.23438.0586.17578.05859.40625.11719.64062.23437.11719.17188.0586.23437v.17578l-.0586.1172-.0586.40624.23438.23438.11719.05859.34766.11719.64062.23047.17578.11718.28906.1172.17578.17577.23438.46485.58203 1.10546.17578.17579.34766.17578.17578.11719.35156.11718 1.04688.52344.23437.0586.46485.11327.29297.0586.46484.17578.75781.58203.23438.23438.34765.46484.17578.17578.28907.23438.8164.69921.29297.17579.28906.28906.29297.17578.29297.28906.69531.64063.17578.17578.29297.23437.28907.23438.46875.28906.64062.58203.34766.23438.23437.29297.34766.34765.35156.46485.9336.99218.34765.40625.11719.17579.23437.05859.11328.11719.64454.17578.23047.11328.23437.0586.29297.17577.23047.1172.9336.69921.40624.40625.23438.17578.40625.17578.23437.11719.8164.34766.34766.23437.23438.11719.29297.28906.23047.11719.7578.35156.35157.17188.23047.05859.29297.11719.23437.0586.8711.17577h.8164l.46875.23047.17188.0586.875.69921.46484.1172.29297.05858.17578.0586.23047.0586.46875.05859.34766.05859.35156.0586.40625.05859h.29297l.17187.0586v.23046l.17578.17578h.29297l.34766.0586.35156.05859.69922.11719h.64063l.46484-.23438.29297-.17578.17187-.11719.41016-.17187.28906-.17578.9336-.46485.46875-.29297.52343-.29296.46485-.17188.46484-.17578 1.05078-.46485.28906-.11718.41016-.11719.28906-.11719.52735-.17578 1.51562-.69922.58203-.34765.28907-.0586.29297-.0586.34765-.11718.875-.23047.35156-.11719h.11329l.23437-.05859.875-.23437.23438-.0586h.8125l.35156-.0586.8164-.11718.17188-.0586.35156-.05468.29297-.0586.23047-.05859.8164-.17578.17579-.0586h.34765l.23438-.05859.46484-.11718.75781-.17188.23438-.0586h.34765l.41016-.11718.28906-.0586 1.28516-.05859h.28906l.41016-.0586.23047-.05858h.17578l.875-.1172h.40625l.41015-.11718h.34766l.35156-.11328.8711-.0586h1.75l1.04687.28907.41016.11719.28906.11718.35156.11719.28907.11719 1.05078.17187.28906.0586h.29297l.29297.05859.17187.0586.41016.05859.17187.0586.1172.05858h.11718l.11719.0586.35156.0586h.11328l.41016.0664 1.92187.39453 1.92578.39453 1.51953.44922 1.69532.71875 2.14453.80469 1.60547-.71875 1.42968-.80469 1.16016-1.07813 1.25-.44921 3.03516-.71875 1.875-.35938 2.14453-1.34765 2.23437-1.25391 2.5-1.25781 1.69531-.44922 1.78516-.17969 1.16016-.26953.625.53906 1.33984-.26953.71485-.98828.98437-1.34375.44531-.17969.80469-.35937 1.875-.53907 1.78516-.44921 1.25-.26954 1.16015-.08984 1.69922-.08984 1.96094-.26954 1.25-.08984h.53906l.625-.08984h.89063l2.14453-.17969 2.41015-.17969 2.58985-.08984 1.69531.17969 1.60938.08984 1.42968.35938 1.16016.71875 1.875.98828 1.16015 1.52734.26563.71484.6289.08985.35548.89844.53515.53906.53516 1.52734 1.07422.35938h.53515l-.80469.53515.08985 1.70703.71484 2.69532.89063.80468.89453.98829.71484 1.2578 1.78516.53907 1.51953-.17969.35547 1.34375 1.60937-.80469.98047-.53906.26953.26953.31641-.21484.21875-.14453.80078.44922.44922-.35938h.35547l.53515-.26953.53907-.71875.53515-.26953.625-.98828 1.16016.44922.83984.3711 1.39454.61718 1.6953-.17969h1.60548l1.78515.08985.17969-1.70704.53516-1.34375.80468.26954.4922.84765.40233.40625-.08984.53906v.35938l.71485.44922.71093-.26953h1.42969l.35938.98828.4453 1.25781.71485 1.34375 1.25.6289 1.69531.62891.71485-.17969.17969-.53906.98046-.08984.44922.35937.08594 1.25782-.26563.6289-.53515.17969v.53906l.71484.98438.26563.53906.98437.98828.80078 1.07813-.26562.35937-.08985.89844-.625 2.33203-.35546 2.0664-.08985 1.79298-.17969.71875-.08984.53906v1.4375l-.98047 1.88281-.35937 1.70703-.53516.89844-.80469 1.16797-.26562.53906 2.05469 1.2539.08593.35938-.35546.53906-.08985-.17968v.80859l.08985 1.4375-.44532.71484-1.07422.09375-.26562.71485.53515.89844.8047.71875 1.16015.80859 1.33984.26953.44531.35938-.35546.44921-1.78907-.08984-1.25-.44922-.71484-.71875-.625-.08984-.17578 3.58984-.1875 1.3086h89.35937V311.70313h-55.26953v49.08203l.76172.125 3.28906.54296 2.02344 2.83594v2.7539l2.35156.33204 2.34766.33203h4.05078l-1.3789 4.16016-2.02344.70703-2.02344.70312-.54297.34375-2.59375 1.6172-.1875.11718-2.02344-2.07813-.73046-2.74218-2.67188-2.07813-1.375-3.5-.0664-.08203-1.95704-2.67188 2.75-1.41796v-49.08204H294.42187v91.41407l.1172.03125.1328.01172.07422.07421.10547.04688.08985.0586.08593.05859.08985.0586.29687.29687.0586.08984.03125.11719.02734.11719.01563.13671-.03125.1172-.0586.08983-.0586.08594-.04296.10547-.04688.10156-.02734.1211v.14453l.17578.26953.14844.14844.07422.08594.07422.07421.04296.10547.0625.08985.0586.08593.04297.10547.0586.08985.04687.10156.04296.10547.0586.08594.11719.17968.07421.07422.0625.08594.0586.08984.04297.10547.0586.08985.05858.08593.0625.08985.0586.08984.04297.10156.11719.17969.07421.07422.0586.08594.07422.07421.08984.0586.10547.04687h.14844l.1328-.01562.13282.01562.10156-.04687.07422-.07422.04688-.10156-.01563-.13281v-.14844l-.04687-.10547-.02735-.11719-.04687-.10156-.02735-.1211-.04296-.10156-.0625-.08984-.04297-.10156-.04297-.10547-.03125-.11719-.01563-.13281-.01171-.13672.08593-.0586.0586-.08593.12109-.03125.04297.10547.01562.1328v.1172l.0586.10156.0586.08984.08983.0586.14844.14843.0586.08985.04296.10547-.01171.10156.08593.0586.10547.04687.08594.0586.08984.05858.07422.07422-.11719.02735-.10546.04687-.08594.0586-.07422.07421-.0586.08985-.0625.08594-.02734.12109-.04687.10156-.04297.10547-.03125.11719-.01172.13281-.01563.13281v.14844l.02735.11719.04687.10547.04297.10156.0586.08984.07421.07422.08985.0586.07422.07421.08984.0586.0586.08984.04296.10547.04688.10156.11719.03125.1328.01563h.14845l.11718-.03125.10547.04297.04297.10547.04688.10156.02734.1211L299.5 410l.02734.11719.03125.1211.02735.11718.10547.04297.10156.04687.13281-.01562.14844.14844.0625.08593.07422.07422.07031.07422.08984.0625.10547.04297.10156.04297.1172.03125.13671.01562.11719-.03125.07422-.07422.02734-.11718-.01172-.13282-.03125-.12109-.02734-.11719.04297-.10547h.11719l.08984.0625.11719.02735h.14843l.13282.01562h.14843l.13282.01563.1328-.01563h.14845l.1328-.01562.13282-.01172.13672.01172.11719-.02735.13281-.01562.1914-.0586-.05859.17579-.01562.1328-.02735.1211-.01562.13281-.0586.08594-.1328.01563-.10548.04687-.10546.04297-.1172.03125-.11718.02735-.26563.03125h-.14843l-.13281.01562-.07422.07422.05859.08594.14844.14843.11719.1797.07421.0703.08985.0625.08984.0586.08594.0586.08984.05858.10156.04297.10547.0625.10547.04297.08594.0586.10547.04687.10156.04297.17969.11719.0586.08984-.04298.10156-.04687.10547.01562.13281.22266.22266.0586.08985.04296.10156.03125.1211.04297.10155.01563.13282.03125.11718.01171.13672.03125.11719.14844.14844.10156.04297.10547.04296.1172.03125.1328.01563.13672.01563h.11719l.11719-.03125.08984-.0586.04297-.10547.04688-.10156.04296-.10547.03125-.11719.01172-.1328v-.14845l-.01172-.1328-.01562-.13282-.03125-.11719-.04297-.10547-.04688-.10547-.04296-.10156-.04297-.10547-.01563-.13281.01563-.13281.02734-.11719.03125-.11719.02735-.1211.04687-.10155.08984-.0586.08594-.0625.07422-.07422.08984-.05859.22266-.22266.0586-.08593.07421-.07422.11719-.17969.0586-.08594v-.14844l-.07423-.07421-.10156-.04688-.10547-.04297-.10156-.04297-.0586-.08984-.04687-.10547-.02734-.11719.08984-.05859.11719-.03125.10156-.04297.17969-.11719.14844-.14843.01172-.13282-.01172-.10546-.08985-.0586-.1328.01563h-.14845l-.1328.01562-.13282-.01562-.1211-.03125-.08593-.0586-.07422-.07422-.0586-.08984-.0625-.08594-.11718-.17969-.0586-.08593.03125-.1211.08594-.05859.1211-.03125.05859-.08594v-.1211l-.03125-.11718-.0586-.08984-.05859-.08594-.04687-.10547-.02735-.11719-.01562-.1328.0586-.08985.07421-.07422.08984-.0586.1172-.17968.07421-.07422.0586-.08594.14843-.14844.1211-.03125.1328-.01562.13282.01562.07422.07422.04297.10547.01562.13281-.03125.1172-.11719.03124-.1328.01172-.14844.14844-.04297.10547-.04688.10156-.02734.1211-.03125.11718v.14844l.03125.11719.04297.10546.05859.08985.07422.07031.07422.07422.11719.03125.12109.02734.11719-.02734.1328-.01563h.1172l.08984.0586.07422.07422.04687.10546.0586.08594.10156.04688.13281.01562.10547.04297.08594.0586-.01172.10546-.07422.07422-.17969.11719-.05859.08984-.08984.0586-.07032.07422-.07421.07421-.0625.08985-.02735.11719-.01562.1328.01562.13282-.01562.13281v.14844l.01562.13281.02735.1172.03125.12108.07421.07422.08985.0586.08594.0586.08984.05858.11719.03125v.08594l-.10157.04688-.08984.0586-.26563.03124-.11718.02735h-.14844l-.10547.04296-.10156.04688-.0586.08984-.0625.23438-.01171.13281-.03125.1211-.01563.1328v.29298l-.01172.1328.01172.13673.01563.1328.1328.01563.13282.01172.1211.03125.08593.0586.07422.07421.04688.10547.04296.10157.01563.1328v.44532l-.01563.13281v.44532l.03125.26562.02735.11719.01562.13281.03125.11719.08594.21094.03125.26562v.14844l-.03125.11719-.02734.11718-.03125.1211-.02735.11719-.03125.11718-.03125.1211-.01171.1328-.01563.13282.08984.0586.1172-.03125.10155.01562.04688.10547-.03125.26562v.44141l-.04297.10547-.04688.10547-.04296.10156-.04297.10547-.0586.08594-.03125.12109-.04296.11719-.03125.11719-.01563.1328.01563.13282.05859.08984.10547.04688.08594.0586.05859.08593-.01172.13672-.03125.11719-.04297.10156v.44531l-.01562.13281v.14844l-.03125.11719-.04297.10547-.02735.11719-.04687.10546-.04297.10157-.03125.12109-.02734.11719-.03125.13281-.03125.11719-.02735.11719-.04297.10546-.03125.1172-.03125.12108-.01171.13282-.01563.13281v.29688l.02734.11718v.14844l.04688.39844.02734.11719.0586.08984.12109.03125h.14844l.13281-.01563.0586.08985v.11719l-.0586.08984-.08984.0586-.10157.04296-.10546.04688-.08985.05859-.08594.0586-.13671.01562-.1172-.03125-.1328-.01563-.10157.04688-.0625.08594-.01172.13671-.01562.13282-.03125.11719-.02735.11718-.01562.13281-.03125.1211v.29687l.01563.13282.03125.11718v.14844l.01171.13281v.14844l-.02734.11719-.04688.10156-.02734.1211-.03125.11718-.0586.08985-.07421.07421-.10156.04297-.10547.04688-.11719.02734-.1211.03125-.10156-.04687.0586-.08594.10547-.04688.02734-.11718.03125-.11719.02734-.1211.03125-.11718v-.14844l.01563-.13281-.03125-.11719-.04297-.10547-.10547.01563-.07422.07422-.10156.04296-.08984.0625-.07422.07422-.04297.10157-.01563.1328-.03125.1172L304.25 426l-.03125.11719-.02734.11719-.03125.12109-.02735.11719-.03125.11718-.04297.10547-.08984.0586h-.08984l-.1172-.03125-.03124-.08594.01562-.13672-.03125-.11719v-.14844l-.01171-.1328v-.14844l-.0625-.23438-.02735-.1211-.04297-.10156-.04687-.10546-.0586-.08594-.05859-.08985-.04297-.10546-.0625-.08594-.14844-.14844-.0703-.07422-.10548-.04687-.10547-.04297-.10156-.04297-.29687-.29688-.08985-.07421-.08594-.0586-.10546-.04297-.08985-.0625-.08594-.0586-.10546-.04296-.08985-.0586-.08594-.0625-.07421-.0703-.10547-.04688-.08594-.0586-.10547-.04296-.08984-.0625-.10156-.04297-.10547-.04297-.08594-.0586-.10547-.04687-.10547-.04297-.10156-.04687-.08985-.0586-.10156-.04297-.10547-.04296-.08984-.0625-.11719-.02735-.13281-.01562-.13281.01562H299.75l-.13281.01563-.11719-.03125-.08984-.0586-.07422-.07422-.08985-.05859-.10156-.04688h-.14844l-.12109-.02734-.10156-.04297-.07422-.07422-.11719-.17968-.08984-.0586-.10156-.04297-.08985-.0625-.10547-.04296-.08984-.0586-.08594-.0586-.10547-.04687-.0586-.08594-.05858-.08984-.04297-.10547-.04688-.10156-.07422-.07422-.08594-.0586-.07421-.07421-.08985-.0586-.22265-.22265-.04297-.10547-.03125-.26563.10547-.04296h.14453l.10547.04296.07421.07422.08985.0586.08594.0586.10546.04687.08985.05859.14844.14844.0703.07422.14845.14843.0625.08594.07421.07422.08594.0586.07422.07421.08985.0625.08984.0586.08594.05859.26953.17578.10156.04688.10547.04296.10156.04297.04688-.07421.05859-.08594.07422-.07422.07031-.07422.10547.04297.07422.07422.0586.08984.04296.10156.04688.10547.04296.10547.1211.02735.11719-.02735.07421-.08984.04297-.10547.0586-.08985.07422-.07421.10546-.04297.1172-.02735.1328.01172.08985.0586.14844.14843.05859.08985.04297.10547.04687.10156.04297.10547.04297.10156.10547.04688.10547.04296.13281.01563.08594-.0586.0586-.08984.07421-.07422.10547-.04297.11719.02735.10547.04687.10156.04297.10547.04297.10156.04688.17969.11718v.11719l-.01563.13281.01563.13281.01562.13672.0586.08594.10156.04688.1211.02734.11718.03125h.14844l.11719-.03125.05859-.08984.17969-.1172.05859-.08983.07422-.07422.0586-.08594.11718-.17969.17969-.11719.11719.03125.08984.0586.04297.07422-.01563.1328v.1172l.08985.05859h.14843l.13282-.01563.1328-.01171.26563-.03125.10547-.04297.11719-.03125.1211-.02735.07421-.07421.07031-.07422.0625-.08985-.01562-.10547-.04688-.10156-.10156-.04297-.10547-.01562-.11718.02734-.26563.03125h-.14844l-.07421-.07422-.08985-.0586-.11719-.03124-.11718-.02735-.13282-.01562h-.14843l-.13282.01563h-.29687l-.10547-.04688-.14844-.14844-.04297-.10156-.05859-.08984.22266-.22266.08593-.0586.10547-.04296.11719-.03125.13281-.01563.13281.01563.13672.01562.10157.04297.1328-.01172.08985-.0625.10156-.04297.0625-.08984-.04687-.10156-.08984-.0586-.1172-.03125-.10155-.04296-.0586-.08985-.0625-.08984v-.11719l.01563-.13281.10547-.04688.07421-.07031v-.1211l-.08984-.05859-.03125-.11719.08985-.05859.07421-.07422.04297-.10547.0586-.08984.04687-.10156.01563-.13281v-.14844l-.04688-.10547-.04297-.10156-.08984-.0586-.13281-.01562-.10157-.04297-.13671-.01563-.1172-.03125h-.4453l-.13282-.01562-.13281-.01172-.13281-.01563-.11719-.03125h-.14844l-.13281-.01562-.13281-.01172-.26563-.03125-.1211-.04297-.08593-.0586-.07422-.07421v-.14844l.01172-.13281.10547-.04688.10156-.04296.13281-.01563h.15235l.13281-.01562h.29297l.1211.03125.10156.04296.08984.0586.23438.0625.12109-.04688.08984-.05859.10156-.04297.13282-.01562.10547.04296.10156.04688.13281.01172.1211-.02735h.14453l.12109-.03125.11719-.02734.10547-.04687.07421-.07422.08594-.0586.14844-.14843.0586-.08594.04687-.10547.02734-.11719.01563-.10547-.10156-.04296-.08985-.0586-.11719-.03125-.10546-.04297-.08985-.0625-.07422-.08594-.07422-.07421-.10156-.04297-.10547-.04688-.10156-.04297-.0586-.08984-.04687-.10156-.08594-.21094-.0625-.08594-.05859-.08984-.07422-.07422-.08594-.0586h-.26953l-.11719.03126-.08984.05859-.10156.04297-.13281.01562-.10547-.01562-.02735-.11719-.0625-.08984-.11718-.03125-.10157-.04297-.14843-.14844-.03125-.11719-.01563-.10546.07422-.07422.17969-.1172.11719-.02733.11718-.03125.13672.01562.10156.04297.10547.04297.10156.04687.10547.04297.1172.03125.1328.01563.1172.02734.1328.01563.10547-.01563.08985-.0586-.07422-.07421-.10547-.04297-.07422-.07422-.07422-.08984-.14844-.14844-.08593-.0586-.08985-.05859-.07422-.07422-.08984-.0586-.10156-.04687-.1211-.02734-.10156-.04688-.10547-.04296-.11719-.03125-.10156-.04297-.1211-.03125h-.14843l-.11719.03125-.10546.04297-.08594.0625-.17969.11718-.08594.0586-.08984.0586-.10547.04687-.08594.05859-.10547.04297-.10156.04297-.10547.04687-.07422.07422-.05859.08985-.0586.08593-.04687.10547-.0586.08594-.07421.07422-.13281-.01172-.1172-.03125h-.11718l-.07422.07422-.08984.0586-.07422.07421-.08984.0586-.08594.05859-.10547.04687-.10156.04297-.13672.01563-.10156-.04297-.14844-.14844-.10547-.04688h-.08594l-.10547.04688-.10156.04297-.1211.03125-.11718-.03125-.07422-.07422v-.11719l.03125-.1211.07422-.0703.0586-.08985.07421-.07422.11719-.03125.10547-.04296h.29297l.13281-.01563.13672-.01563.10156-.04296.08985-.0586.10156-.04687.08984-.0586.13281-.01171.08985.05859.13281.01172.08984-.0586.08594-.05859.10547-.04297.08984-.0586.08594-.0625.08985-.05859.14843-.14843.0586-.08594.05859-.08985.10547-.04296.13281-.01563.11719.02735.1211.03125.05859-.0586.05859-.08984.03125-.26563.02734-.11719.10547.01172.13281.01563.10157-.04297.08984-.0586.0586-.08984.07421-.07422.0586-.08984.04687-.10156.01172-.13281-.01172-.13282-.04687-.10547-.14844-.14843-.0586-.08985-.05859-.08594-.04297-.10546v-.44532l.01563-.1328v-.14845l.01172-.1328-.0586-.0586-.08984.0586-.10156-.04298-.17969-.11719-.08594-.05859-.0625-.08984-.0586-.08985-.07421-.07421-.08594-.0586-.1211.03125-.10155.01172-.10547.04688-.08594.05859-.10547.04297-.14844.14844-.08984.05859-.08594.0586-.08984.0625-.10547.04296-.13281.01563v-.1211l.10547-.04297.11718-.03125.07422-.0703.04297-.10548v-.14844l-.02734-.11718-.14844-.14844-.13281-.01563h-.14844l-.11719.03125-.10547.04297-.10156.04297-.08984.0625-.11719.02735-.07422-.07422.01172-.13281-.04297-.10157-.04297-.10547-.08984-.05859-.11719.02734-.1211.03125-.11718.03125-.10156.04297-.1211.03125-.10156.04297-.10547.04297-.08984.0586-.10156.01562v-.11719l.01562-.13281-.0586-.08985-.07421.04297-.14844.14844-.0586.08985-.07421.07421-.04688.10547-.04296.10156-.07422.07422-.0586.08985-.07422.07422-.05859.08593-.07422.07422-.08984.0625-.07422.07031-.07422.07422-.10156.01563-.13281.01562-.10547-.04296v-.1211l.14843-.14844.04297-.10156.0586-.08984.04687-.10156.04297-.10547.0586-.08985.03124-.11719.04297-.10156.03125-.1211.02735-.11718.04687-.10547.04297-.10156.04297-.10547.07422-.07031.08984-.0625.08985-.0586.10156-.04296h.29687l.26563-.03125.10547-.04297-.07422-.07422-.11719-.03125-.10547-.04297-.08984-.0586-.10156-.04687-.08985-.0586-.10156-.04296-.10547-.04297-.08984-.0625-.08594-.0586-.10547-.04296-.10156-.04297-.1211-.03125-.11718-.03125-.10157-.04297L297.5 410.25l-.10156-.04297-.08985-.0586-.04296-.10546-.01563-.13281.10156-.04297.13281-.01563.13672.01563.13282-.01563.10156-.04297.0586-.08984.01562-.10547-.08985-.0586-.07421-.07421-.10157-.04297-.08984-.0586-.14844-.14843-.04297-.10547-.01562-.13281v-.29297l-.0586-.08985-.08984-.05859-.07422-.07422-.04297-.10547-.03125-.11718-.0586-.08985-.07421-.07422-.11719-.02734-.07422-.07422-.08984-.0586-.08984-.0625-.08594-.05859-.07422-.07421-.0586-.08594-.04687-.10547-.08594-.0586-.14843-.14843-.19532-.0586-.1328.01563-.10157.04297-.07422.07422-.04688.10156-.04296.10547-.0586.08984-.0586.08594-.29687.29687-.08984.0586h-.08594l-.0625-.08594-.04297-.10547.03125-.11719.0586-.08984.02734-.11719-.01172-.13281-.08984-.0625-.10547.04688-.11719.02734-.11719.03125-.26953.17578-.10156.04688-.11719.02734-.10546.04687-.08985.0586-.10156.04297-.0586-.08594-.04687-.10547.01563-.13281.04687-.10547.07031-.07422.07422-.07031.0586-.08985v-.14843l-.04297-.10547h-.23829l-.10156.04687-.03125.11719-.02734.11719-.03125.1211-.07422.04296-.13281.01563-.07422-.04688-.04297-.10156-.04297-.10547-.04687-.10156-.04297-.10547-.1211.03125-.10156.04297-.13281.01562-.11719.03125-.10547.04297-.08984.0586-.10156.04687-.1211.02734-.13281.01563-.10156-.04297-.0586-.08985-.04687-.10546-.04297-.10157-.04297-.10546v-.1172l.0586-.08984.08593-.05859.17969-.11719.10156-.04687.10547-.04297.10547-.0586.10156-.04296.08985-.0625.10156-.04297.10547-.0586.10156-.04687.08984-.0586.10547-.04296.10156-.04297.08985-.0625.10156-.04297.13672-.01563.11719.03125.10156.04297.1211.03125.10156.04297.10546.04688.10157.04296.10547.04297.10156.04688.10547.04297.10156.04297.10547.04687.08594.0586.10546.04296.1172.03125.10546.04297.10156.04688.08985.0586.10547.04296.10156.04297.10547.04687.11719.02735.10156.04687.1211.02735h.14843l.08594-.0586.01562-.10156.0586-.08984-.02735-.1172-.07422-.07421-.11719-.17969-.07421-.07422-.08985-.07421-.17969-.1172-.08593-.05859-.10547-.04296-.10156-.04688-.26954-.17578-.05859-.08985-.07422-.07421-.0586-.08985-.04296-.10156-.03125-.11719-.01563-.13672v-.5625l-.01171-.1328-.01563-.13282-.03125-.11719-.01562-.13281-.01172-.13281-.03125-.1211-.22266-.22265-.0586-.08594-.01562-.10547.03125-.11719.13281-.01562v-91.41406H172.9922v1.45312l-.0586.23438-.35156 1.05078-.17187.52343-.1172.34766-.17577.41016-.11719.17187-.23438.29297-.23046.0586h-.35157l-.11718.05859-.23047.40625v.29297l.11719.17578.23046.23047.1172.23437.64062.75781.29297.46485.17578.23437.23047.35156.23437.34766.64063.8164.17578.46485.17187.41016.11719.69531.17578.46875.11719 1.39844.0586.46484v.875l.11718 1.04688v4.78125l-.0586.46484-.35156 1.28125-.17578.52344-.11328.41015-.35156.9297L172.93359 336l-.23437.58203-.11719.17578-.17187.34766-.17578.40625-.35157.8164-.0586.29297-.11327.29297-.11719.28906-.0586.17579-.11718.875-.0586.40625-.05859.11718-.0586.17579-.05859.17187-.23047.52734-.11718.17188v.23437l-.11719.23438-.0586.17187-.17577.58594v.28906l-.0586.17579v.29296l-.0586.11329-.05859.52734v.17187l-.05468.23438v2.6211l-.17578.8164-.1172.17578-.17577.23438-.1172.17187-.11327.23438-.58594.93359-.23047.28906-.29297.46485-.17578.23437-.28906.35156-.35156.69922-.11328.23047-.17579.41016-.17578.23046-.40625.52735-.8164.69922-.29297.17187-.28906.23438-.17579.11719-.17578.17578-.52344.40625-.52734.17578-.17187.17578-.23438.05469-.64062.17578h-.75782m12.21094 31.02344l-1.07422.44921.35938.89454 1.25-.71485.44531-.53906-.98047-.08985"/><path fill="#d3d3d3" fill-opacity="0" fill-rule="evenodd" d="M201.50781 416.59766h-.89453l.44922.6289.98047.35938.80469-.08985.4453-.98828-.17577.08985-.71485-.35547-.89453.35547m154.6211 59.0703l-.0586-.52343v-.29297l.11328-.29297.0586-.23046.46875-.46875h.11328l.11719-.11329.11718-.05859h.17579l.23437-.0586h.34766l.23437.0586.11719.0586.23047.17187.0586.17578.11718.58203v.29297l-.11719.17578-.17187.28906-.17579.17579-.52734.52343-.23047.23438-.11719.0586h-.17578l-.11718-.0586-.40625-.29297-.17579-.11719-.11718-.0586-.0586-.11327-.05468-.1172m6.64062-10.95702l-.0586-.17188v-1.10937l.0586-.17188.17578-.0586.17188-.05858h.17578l.23437-.0586.1172.0586.05858.69921-.05859.17188-.11719.17578-.11718.0586-.23438.52343-.11328.0586h-.23438l-.05859-.1172m9.61328-14.39062l-.11719-.17578v-.69922l.29297-.875.1172-.17187.17577-.35156.11328-.23047.1172-.29297.35155-.75781.1172-.23047.17187-.23438h.17578l.11719-.0586h.64062l.11719.0586.23437.23438.17188.11328.35156.29297.11719.11718.11328.17579v.11328l.11719.05859.11718.11719v.69922l-.05859.17578v.23047l-.0586.17578-.34765 1.05078-.11719.23047-.11719.23437-.11718.0586-.23047.23437-.64063.28906h-.875l-.41015-.11718-.64063-.46485"/><path fill="none" stroke="#bebebe" stroke-linecap="round" stroke-linejoin="round" stroke-miterlimit="10" stroke-width=".5" d="M467.95703 311.69531H144.02734v168.625h323.9297v-168.625"/><g clip-path="url(#a)"><path fill="#fff" fill-opacity="0" fill-rule="evenodd" d="M144 475.89063v4.4375h.0039H144v-33.92188 29.48438"/></g><g clip-path="url(#b)"><path fill="#fff" fill-opacity="0" fill-rule="evenodd" d="M144 431.50781v3.61328-123.44921h.0039H144V431.5078"/></g><path fill="#50fcfc" fill-rule="evenodd" d="M144 440.49219v5.91406h.0039v-5.92188l-.0039.00782"/><path fill="#00e8fc" fill-rule="evenodd" d="M144 440.30078v.1914l.0039-.0078v-.1797l-.0039-.0039"/><path fill="#50fcfc" fill-rule="evenodd" d="M144 435.1211v5.17968l.0039.0039V435.125l-.0039-.0039"/><g clip-path="url(#c)"><path fill="#fff" fill-opacity="0" fill-rule="evenodd" d="M144.0039 480.32813v-33.92188l1.72657-1.58594 1.27344-4.4375-2.16797-4.4375-.83203-.82031V311.67187h146.46093v107.2422l-3.89453 3.71484-.54297 3.82812-4.4375-2.30469-4.4375.07422-4.4414.53516-2.01953 2.3086-1.91016 4.4375 3.92969 3.72265 4.4414-.00781 1.12891.72265 1.79688 4.4375-1.78907 4.4375-1.13672 1.05469-.82421-1.05469-3.6172-3.44922-.73437-.98828-3.70312-2.875-3.9336 2.875.4375 4.4375-.9414 1.07422-.64844-1.07422-3.78906-3.40234-4.27735 3.40234-.16406.40235-3.0039-.40235-1.4336-.25-.1914-4.1875.1914-2.75 4.4375.19531 4.4414 1.9375 3.88673-3.8203-3.88672-4.0586-4.4414 1.4336-4.4375.6328-1.4297-2.4453-3.0078-2.9922-4.4375-.5-4.4375-.125-4.44142-.46093-1.45312-.35938-2.98438-2.58984-4.4375-.3789-4.4375-1.44532-4.4375 1.85938-4.4414-.76172-4.4375-.28907-3.03516-.83593-1.40234-1.33204-4.4375-1.40234-4.4414-.44922-4.4375 1.33594-3.08985 1.84766-1.34766.49218-4.4375 1.65235-3.47656 2.29687-.96484.33594-4.4375 1.60547-4.4375 1.5039-.9961.9922-3.4414 1.98827-2.65625 2.44922-1.53907 4.4375.92188 4.4375 2.09766 4.4414 1.17578 2.50392 1.4453 1.93359-1.4453 1.53906-1.30078 2.89844.43359 4.4375.86719.86719 2.08593-.8672 2.35157-3.3828 4.4375 1.10156 4.4375-1.0586 4.4414.6172 4.4375 1.04687 4.4375.1914 4.4375-.16015 4.4414.03125 4.4375-.0625 4.4375.45703 4.4375.4961 4.28126.72265.16016.07422 4.4375.58203 3.3789-.65625 1.0586-.0664.89062.0664 3.54688.78906 4.4375-.07812 2.0039-.71094 2.4375-.16797 4.4375-.51563 4.4375-.86718 4.4375-.05469 4.4375-1.26953 4.4414.63672 4.4375-.16797 4.0625-2.03125.375-.22656 4.4375-1.4961 4.44141-1.9336 1.1797-.78124 3.2578-1.32813 4.4375-2.72656 1.55079-.38281 2.88671-3.64063.85547-.80078-.85547-.1914-4.4375-.13672-3.53125-4.10938 3.53125-.7461 4.4375-.40233 3.15235-3.28907 1.28515-1.88281 4.44141.05078 4.4375-.71094 1.82422-1.89453.76953-4.4375-2.59375-3.50781-4.4375-.85938-.44531-.07421-3.9961-2.20704-4.4375-1.5078v-107.2422h22.19141v137.1836l-4.4375.20703-.25.19922.25.1914 4.4375-.12109.55078-.07031-.55078-.40625v-137.1836h35.50781v120.67579l-3.35547 3.59765 3.35547 3.20313 1.35938 1.23437 3.07812 2.97656 4.4414-.41796 4.01954-2.5586-4.01953-2.95703-3.28125-1.48047-1.16016-.9375-4.4375-2.66015V311.67187h31.07031v132.98438l-.26562.16406-4.17578 4.30078-.08203.14063.08203.125v6.71875l-1.92969 2.03125 1.92969 2.75781 2.92969-2.75781-2.9297-2.03125v-6.71875l.14063-.125 4.30079-4.17969 3.34765 4.17969 1.08985 1.61719.65625 2.8203-.65625.39063-4.10547 4.04688.07812 4.4375 4.02735 4.24219.4414.19921 3.9961 4.1211 3.28906-4.1211.89453-4.4414.2539-.61719 3.44141-3.82031.10547-4.4375-3.54688-4.10547-4.4375.72266-3.36328-1.0547-1.07421-.60937-4.3086-3.83203-.1289-.16406V311.67187h88.76171v168.65625H395.25l-2.70313-3.12109-2.40625 3.1211H144.00392"/></g><path fill="#50fcfc" fill-rule="evenodd" d="M145.73047 444.82031l-1.72656 1.58594v-5.92188l.04297-.10156-.04297-.07812V435.125l.83203.82031 2.16797 4.4375-1.27344 4.4375"/><path fill="#00e8fc" fill-rule="evenodd" d="M144.04688 440.38281l-.04297.10156v-.17968l.04297.07812"/><path fill="#50fcfc" fill-rule="evenodd" d="M158.48047 444.82031l-.92188-4.4375 1.53907-4.4375 2.65625-2.44922 3.4414-1.98828.9961-.99219 4.4375-1.5039 4.4375-1.60547.96484-.33594 3.47656-2.29687 4.4375-1.65235 1.34766-.49218 3.08984-1.84766 4.4375-1.33594v3.5625l-4.4375.85547-4.4375 1.65625-3.0664 1.55078-1.3711 1.17578-4.4414.89063-3.89063 2.3711-.54687.17968-4.4375.82031-4.15625 3.4375-.28125.85156-1.85547 3.58594 1.85547 3.83203.49218.60547 3.35157 4.4414.59375.67579 2.98437 3.76172 1.45313 1.375 3.8828-1.375.5547-.82031 4.4414-.13672 3.96485.95703.47265.2539 4.4375 3.42579 4.4375-.2461 4.4414.89453 4.4375-.38671 1.8125.49609 2.625.47656 4.4375.88672 4.44142 1.03906 4.4375.3711 4.4375-.33204 4.4375.65625 4.4375.41016 4.4414-.33594 4.4375-.6328 4.4375-1.98829 4.4375-.14063.92188-.41015 3.51562-1.44922 3.51172-2.98828.92969-1.08203 4.4375-2.65625 4.4375 3.58594 4.4375-.875 2.76562-3.41016-2.76562-3.44531-1.6875-.9961-2.2539-4.4375-.4961-.38672-.52735.38672-.3203 4.4375-3.58985 4.08594-2.46485-4.08594-1.97265-1.76953-2.22656 1.76953-1.53516 4.4414-.67969.57032-4.4375 1.57031-2.7539-2.14062-1.6836-3.375-.51172-1.0664.51172-.04688 3.94531-4.39063-.67968-4.4375-3.23438-4.4375-.03125-.03125-4.4375-1.42187-4.4375-.57813-4.4414-.77734-4.4375-.57422-3.1211 3.38281 3.1211 2.29297 1.49218 2.14453-1.49219 3.66016-4.4375-.10547-4.4375-.32422-3.92578-3.23047-.51172-2.10156-.82421-2.33594-.84766-4.4375-2.76953-1.51953-4.4375-.63281-4.4375-.98438-4.4375-.46875-4.4414-.45703v-3.5625l4.4414.44922 4.4375 1.40235 1.40234 1.33203 3.03516.83593 4.4375.28907 4.4414.76171 4.4375-1.85937 4.4375 1.44531v9.34766l-3.2578 2.4961 3.2578 1.27734 4.4375-.55079.29688-.72656-.29688-.42578-4.4375-2.07031v-9.34766l4.4375.3789 2.98438 2.58985 1.45313.35938 4.4414.46094 4.4375.125 4.4375.5 3.00781 2.99218 1.4297 2.44531 4.4375-.6328 4.4414-1.4336v1.03906l-3.73828 3.01953 3.73828 2.84375 2.89453-2.84375-2.89453-3.01953v-1.03906l3.88672 4.0586-3.88672 3.8203-4.4414-1.9375-4.4375-.1953-.19142 2.75.19141 4.1875 1.4336.25 3.0039.40234.16406-.40235 4.27735-3.40234 3.78906 3.40234.64844 1.07422.9414-1.07422-.4375-4.4375 3.9336-2.875 3.70312 2.875.73438.98828 3.61719 3.44922.82421 1.05469 1.13672-1.05469 1.78906-4.4375-1.79687-4.4375-1.1289-.72265-4.44141.0078-3.92969-3.72265 1.91016-4.4375 2.01953-2.3086 4.4414-.53515 4.4375-.07422 4.4375 2.3047.54297-3.82813 3.89453-3.71485v1.1836l-2.65234 2.53125-.59766 4.4414-1.1875.57422-3.65234-.57422-.78516-.48828-4.4375.4375-.1328.05078-4.3086.89453-2.76563 3.54297 2.76563 2.61719 4.4414-.00781 2.86329 1.82812 1.57421 2.3125 4.4375.21875 4.4375-1.26562 1.21485-1.26563 3.14062-4.4375.08203-.1289 4.44141.05078 4.35547-4.35938-4.35547-3.3789-4.4414-.65235-.60938-.41015-3.82813-2.53125v-1.1836l4.4375 1.50781 3.9961 2.20704.44531.07421 4.4375.85938 2.59375 3.50781-.76953 4.4375-1.82422 1.89453-4.4375.71094-4.4414-.05078-1.28516 1.88281-3.15235 3.28906-4.4375.40235-3.53125.7461 3.53125 4.10937 4.4375.13672.85547.1914-.85547.80078-2.88671 3.64063-1.55079.38281-4.4375 2.72656-3.2578 1.32813-1.1797.78125-4.4414 1.9336-4.4375 1.49609-.375.22656-4.0625 2.03125-4.4375.16797-4.4414-.63672-4.4375 1.26953-4.4375.05469-4.4375.86719-4.4375.51562-2.4375.16797-2.00392.71094-4.4375.07812-3.54687-.78906-.89063-.0664-1.05859.0664-3.3789.65625-4.4375-.58203-.16016-.07422-4.28125-.72266-4.4375-.4961-4.4375-.45702-4.4375.0625-4.4414-.03125-4.4375.16015-4.4375-.1914-4.4375-1.04688-4.44141-.61719-4.4375 1.0586-4.4375-1.10156-2.35157 3.3828-2.08593.8672-.8672-.8672-.43358-4.4375 1.30078-2.89843 1.4453-1.53906-1.4453-1.9336-1.17578-2.5039-2.09766-4.4414"/><path fill="#00e8fc" fill-rule="evenodd" d="M161.7539 444.21484l-1.85546-3.83203 1.85547-3.58594.28125-.85156 4.15625-3.4375 4.4375-.82031v1.55078l-4.4375 1.33203-1.66016 1.375-1.95313 4.4375 3.61329 3.77735 4.4375-.47657 3.54687-3.30078.2539-4.4375-3.80077-2.70703v-1.55078l.54687-.17969 3.89063-2.3711v15.53126l-.50782.15234.50782.38281.10547-.3828-.10547-.15235v-15.53125l4.4414-.89063 1.3711-1.17578 3.0664-1.55078 4.4375-1.65625 4.4375-.85547 4.4414.45703 4.4375.46875v2.96094l-2.34374.17578-2.09375.16406-4.4414.22657-4.4375.92969-2.08985 3.11718-.27734 4.4375-2.07032 3.21485-1.25781 1.22265.29297 4.4375.96484.89063 4.4375-.875.0625-.01563 4.375-.67578 4.4414-2.69922 4.4375 1.22266 4.4375-1.7539.57032-.53126 2.14063-4.4375-1.4922-4.4375-1.21874-3.11719-2.90234-1.3203-1.53516-.17579v-2.96094l4.4375.98438 4.4375.63281 2.76953 1.51953.84766 4.4375.82422 2.33594.51171 2.10156 3.92578 3.23047 4.4375.32422 4.4375.10547v2.3711l-4.4375.11718-4.4375 1.33594-2.16406 1.39062-2.27344 2.80078-4.4414 1.38282-1.08203.2578 1.08203.27735 4.4414 2.5664 1.44922 1.59376 2.98828 3.09375 4.4375.10547 2.5 1.23828 1.9375.48828 4.4375 1.23828 4.44141-.38281 4.4375-.83203 1.01172-.51172 3.42578-2.80469 2.1836-1.63281-2.1836-1.8125-4.4375-1.0625-4.4375-1.28516-.3125-.27734-1.8125-4.4414-2.3164-2.70313-4.4375-.14063v-2.3711l1.49218-3.66015-1.49219-2.14453-3.12109-2.29297 3.1211-3.38281 4.4375.57422v2.11719l-2.76172.6914 1.80859 4.4375.95313 1.83985 4.4414.85156 4.4375.7461.08984 1 4.34766 3.83202 3.4414-3.83203-3.39452-4.4375-.04688-.0625-4.4375-2-4.4375-1.71094-1.84375-.66406-2.59766-.6914v-2.1172l4.44141.77735 4.4375.57813 4.4375 1.42187.03125.03125 3.23438 4.4375.67968 4.4375-3.9453 4.39063-.51173.04687.51172 1.0664 1.6836 3.375 2.7539 2.14063 4.4375-1.5703.67969-.57032 1.53516-4.4414 2.22656-1.76954 1.97265 1.76953 2.46485 4.08594 3.58984-4.08594.32031-4.4375.52735-.38672.4961.38672 2.2539 4.4375 1.6875.9961 2.76562 3.4453-2.76562 3.41017-4.4375.875-4.4375-3.58594-4.4375 2.65625-.92969 1.08203-3.51172 2.98828-3.51562 1.44922-.92188.41015-4.4375.14063-4.4375 1.98828-4.4375.63281-4.4414.33594-4.4375-.41015-4.4375-.65625-4.4375.33203-4.4375-.3711-4.44141-1.03906-4.4375-.88672-2.625-.47656-1.8125-.4961-4.4375.38672-4.4414-.89453-4.4375.2461-4.4375-3.42579-.47266-.2539-3.96485-.95703-4.4414.13672-.5547.8203-3.8828 1.375-1.45313-1.375-2.98437-3.76171-.59375-.67578-3.35157-4.4414-.49218-.60548"/><path fill="#00d4fc" fill-rule="evenodd" d="M166.1914 444.16016l-3.61327-3.77735 1.95312-4.4375 1.66016-1.375 4.4375-1.33203v1.55469l-3.0586 1.15234-1.3789.90625-2.04297 3.53125 2.04297 2.13672 4.4375-.09375 2.1953-2.04297-.57421-4.4375-1.6211-1.15234v-1.55469l3.80079 2.70703-.2539 4.4375-3.54688 3.30078-4.4375.47657"/><path fill="#00c4fc" fill-rule="evenodd" d="M166.1914 442.51953l-2.04296-2.13672 2.04297-3.53125 1.3789-.90625 3.0586-1.15234v2.44922l-4.4375 2.32812-.46875.8125.46875.49219 4.4375.29297.84375-.78516-.84375-3.14062v-2.44922l1.62109 1.15234.57422 4.4375-2.19531 2.04297-4.4375.09375"/><path fill="#00b8fc" fill-rule="evenodd" d="M166.1914 440.875l-.46874-.49219.46875-.8125 4.4375-2.32812.84375 3.14062-.84375.78516-4.4375-.29297"/><path fill="#50fcfc" fill-rule="evenodd" d="M175.0664 444.66797l-.5078.15234.5078.38281.10548-.3828-.10547-.15235"/><path fill="#00d4fc" fill-rule="evenodd" d="M182.98047 444.82031l-.29297-4.4375 1.25781-1.22265 2.07031-3.21485.27735-4.4375 2.08984-3.11719 4.4375-.92968v2.78125l-1.92187 1.26562 1.92187 3.17969 4.4414.90625 4.4375-3.83203.10548-.2539-.10547-.08204-4.4375-1.03906-4.4414-.14453v-2.78125l4.4414-.22656 2.09375-.16407 2.34375-.17578 1.53516.17578 2.90234 1.32031 1.21875 3.1172 1.49219 4.4375-2.14063 4.4375-.57031.53124-4.4375 1.7539-4.4375-1.22265-4.4414 2.69922-4.375.67578-.0625.01563-4.4375.875-.96485-.89063"/><path fill="#00c4fc" fill-rule="evenodd" d="M192.82031 434.6875l-1.92187-3.17969 1.92187-1.26562 4.4414.14453 4.4375 1.03906.10548.08203-.10547.2539-4.4375 3.83204-4.4414-.90625"/><path fill="#00d4fc" fill-rule="evenodd" d="M210.57422 449.53906l-1.08203-.27734 1.08203-.25781 4.4414-1.38282 2.27344-2.80078 2.16406-1.39062 4.4375-1.33594 4.4375-.11719v1.89453l-4.4375.45313-1.17187.4961-1.88281 4.4414 3.05469 2.42969 3.0664 2.0078 1.3711.76173 4.4375 3.23047 4.03906-3.9922-4.03906-2.98437-.98047-1.45312.98047-3.07813.125-1.36328-.125-.14453-4.4375-.80469v-1.89453l4.4375.14063 2.3164 2.70312 1.8125 4.4414.3125.27735 4.4375 1.28516 4.4375 1.0625 2.1836 1.8125-2.1836 1.63281-3.42578 2.80469-1.01172.51172-4.4375.83203-4.4414.38281-4.4375-1.23828-1.9375-.48828-2.5-1.23828-4.4375-.10547-2.98829-3.09375-1.44922-1.59375-4.4414-2.5664"/><path fill="#fff" fill-opacity="0" fill-rule="evenodd" d="M223.89063 433.44922l-3.25782 2.4961 3.25781 1.27734 4.4375-.55079.29688-.72656-.29688-.42578-4.4375-2.07031"/><path fill="#00c4fc" fill-rule="evenodd" d="M223.89063 451.6914l-3.0547-2.42968 1.88282-4.4414 1.17188-.4961 4.4375-.45313 4.4375.8047.125.14452-.125 1.36328-.98047 3.07813.98047 1.45312 4.03906 2.98438-4.03906 3.99219-4.4375-3.23047-1.3711-.76172-3.0664-2.00781"/><path fill="#00d4fc" fill-rule="evenodd" d="M231.8125 435.94531l-1.8086-4.4375 2.76173-.6914 2.59765.6914 1.84375.66406v2.8711l-1.66797.90234 1.66797.64063 1.69922-.64063-1.69922-.90234v-2.8711l4.4375 1.71094 4.4375 2v.70313l-3.71094 3.79687 3.71094 3.27344 2.9414-3.27344-2.9414-3.79687v-.70313l.04688.0625 3.39453 4.4375-3.4414 3.83203-4.34767-3.83203-.08984-1-4.4375-.7461-4.4414-.85155-.95313-1.83985"/><path fill="#00c4fc" fill-rule="evenodd" d="M237.20703 436.58594l-1.66797-.64063 1.66797-.90234 1.69922.90234-1.69922.64063m8.875 7.07031l-3.71094-3.27344 3.71094-3.79687v.64844l-3.07812 3.14843 3.07812 2.71485 2.4375-2.71485-2.4375-3.14844v-.64843l2.9414 3.79687-2.9414 3.27344"/><path fill="#00b8fc" fill-rule="evenodd" d="M246.08203 443.09766l-3.07812-2.71485 3.07812-3.14844v.64844l-2.44531 2.5 2.44531 2.15625 1.9375-2.15625-1.9375-2.5v-.64844l2.4375 3.14844-2.4375 2.71485"/><path fill="#00a8fc" fill-rule="evenodd" d="M246.08203 442.53906l-2.44531-2.15625 2.44531-2.5v.64844l-1.8086 1.85156 1.8086 1.59766 1.4336-1.59766-1.4336-1.85156v-.64844l1.9375 2.5-1.9375 2.15625"/><path fill="#009800" fill-rule="evenodd" d="M246.08203 441.98047l-1.8086-1.59766 1.8086-1.85156v.64844l-1.17578 1.20312 1.17578 1.03906.92969-1.03906-.92969-1.20312v-.64844l1.4336 1.85156-1.4336 1.59766"/><path fill="#00ac00" fill-rule="evenodd" d="M246.08203 441.42188l-1.17578-1.03907 1.17578-1.20312v.64844l-.54297.55468.54297.47656.42969-.47656-.42969-.55469v-.64843l.92969 1.20312-.92969 1.03906"/><path fill="#00c800" fill-rule="evenodd" d="M246.08203 440.85938l-.54297-.47657.54297-.55469.42969.5547-.42969.47656"/><path fill="#00e8fc" fill-rule="evenodd" d="M259.39844 438.78906l-3.73828-2.84375 3.73828-3.01953v1.72656l-1.60156 1.29297 1.60156 1.21485 1.23828-1.21485-1.23828-1.29297v-1.72656l2.89453 3.01953-2.89453 2.84375"/><path fill="#00d4fc" fill-rule="evenodd" d="M259.39844 437.16016l-1.60156-1.21485 1.60156-1.29297 1.23828 1.29297-1.23828 1.21485"/><path fill="#00e8fc" fill-rule="evenodd" d="M272.71094 434.125l-2.76563-2.61719 2.76563-3.54297 4.3086-.89453.1328-.05078 4.4375-.4375.78516.48828 3.65234.57422 1.1875-.57422.59766-4.4414 2.65234-2.53125v1.97656l-.58203.55469-.53906 4.4414-3.3164 1.60547-4.4375 1.15625-4.4375.35938-4.44141.2578-.82422 1.0586.82422.78125 4.4414-.01172 4.4375 1.6211 2.63672 2.04687 1.80078.60156 1.47657-.60156 2.96093-1.03515 2.9297-3.40235 1.5078-2.26562 4.44141.0625 2.23438-2.23438-2.23438-1.73437-4.4414-.29688-3.59766-2.41015-.83985-.5547v-1.97655l3.82813 2.53125.60937.41015 4.44141.65235 4.35547 3.3789-4.35547 4.35938-4.4414-.05078-.08204.1289-3.14062 4.4375-1.21485 1.26563-4.4375 1.26562-4.4375-.21875-1.57421-2.3125-2.86329-1.82812-4.4414.00781"/><path fill="#00d4fc" fill-rule="evenodd" d="M272.71094 432.28906l-.82422-.78125.82422-1.0586 4.4414-.2578 4.4375-.35938 4.4375-1.15625 3.31641-1.60547.53906-4.4414.58203-.5547.83985.5547 3.59765 2.41015 4.44141.29688v1.64453l-4.4414.0586-.13673.03124-4.30078 1.3711-4.4375 1.26562-3.5039 1.80078 3.5039 3.1836 4.4375-1.4336 1.50782-1.75 2.92968-4.40625 4.44141.08203.11328-.11328-.11328-.08984v-1.64453l2.23438 1.73437-2.23438 2.23438-4.4414-.0625-1.50782 2.26562-2.92969 3.40235-2.96093 1.03515-1.47657.60156-1.80078-.60156-2.63672-2.04687-4.4375-1.6211-4.4414.01172"/><path fill="#00c4fc" fill-rule="evenodd" d="M286.02734 434.6914l-3.5039-3.18359 3.5039-1.80078v1.02735l-1.5.77343 1.5 1.35938 4.4375-1.26563.08204-.09375-.08204-.16797-4.4375-.60546v-1.02735l4.4375-1.26562 4.30079-1.3711.13671-.03125 4.44141-.0586.11328.08985-.11328.11328-4.4414-.08203-2.9297 4.40625-1.5078 1.75-4.4375 1.4336"/><path fill="#00b8fc" fill-rule="evenodd" d="M286.02734 432.86719l-1.5-1.35938 1.5-.77344 4.4375.60547.08204.16797-.08204.09375-4.4375 1.26563"/><path fill="#50fcfc" fill-rule="evenodd" d="M308.21875 449.45313l-.25-.19141.25-.19922 4.4375-.20703.55078.40625-.55078.07031-4.4375.1211m39.94531-10.3047l-3.35547-3.20312 3.35547-3.59765v2.45703l-1.0625 1.14062 1.0625 1.01563 3.77344 3.42187.66406.64453 2.83203-.64453-2.83203-1.08594-2.8711-3.35156-1.5664-1.14062v-2.45703l4.4375 2.66015 1.16016.9375 3.28125 1.48047 4.01953 2.95703-4.01953 2.5586-4.4414.41796-3.07813-2.97656-1.35938-1.23437"/><path fill="#00e8fc" fill-rule="evenodd" d="M348.16406 436.96094l-1.0625-1.01563 1.0625-1.14062 1.5664 1.14062 2.8711 3.35156 2.83203 1.08594-2.83203.64453-.66406-.64453-3.77344-3.42187"/><path fill="#50fcfc" fill-rule="evenodd" d="M374.79297 460.89453l-1.92969-2.75781 1.92969-2.03125 2.92969 2.03125-2.9297 2.75781m0-11.50781l-.08202-.125.08203-.14063 4.17578-4.30078.26563-.16406.1289.16406 4.3086 3.83203 1.07421.60938 3.36329 1.05469 4.4375-.72266v2.07813l-4.25 2.02734-.1875.03906-4.4375 2.70703-1.71875 1.6914-.92579 4.4375 2.64454 2.78907 3.73828 1.65235.69921.71875.57422-.71875 2.8125-4.44141 1.05079-2.54297 1.70703-1.89453.04296-4.4375-1.75-2.02735v-2.07812l3.54688 4.10547-.10547 4.4375-3.4414 3.82031-.25391.61719-.89453 4.4414-3.28906 4.1211-3.9961-4.1211-.4414-.19921-4.02735-4.2422-.07812-4.4375 4.10546-4.04687.65625-.39062-.65625-2.82031-1.08984-1.6172-3.34765-4.17968-4.30079 4.17969-.14062.125"/><path fill="#00e8fc" fill-rule="evenodd" d="M383.67188 465.36328l-2.64454-2.78906.92579-4.4375 1.71875-1.6914 4.4375-2.70704v1.58203l-3.36329 2.8164-1.07421 3.51563-.34375.92188.34375.36328 4.4375 2.48047 2.0625-2.84375 1.54687-4.4375-3.60938-2.8164v-1.58204l.1875-.03906 4.25-2.02735 1.75 2.02735-.04296 4.4375-1.70704 1.89453-1.05078 2.54297-2.8125 4.4414-.57421.71875-.69922-.71875-3.73829-1.65234"/><path fill="#00d4fc" fill-rule="evenodd" d="M383.67188 462.9375l-.34375-.36328.34375-.92188 1.07421-3.51562 3.36329-2.8164v1.58202l-1.47266 1.23438-.27735 4.4375 1.75 1.01562.73438-1.01562.84766-4.4375-1.58204-1.23438v-1.58203l3.60938 2.8164-1.54688 4.4375-2.0625 2.84376-4.4375-2.48047"/><path fill="#00c4fc" fill-rule="evenodd" d="M388.10938 463.58984l-1.75-1.01562.27734-4.4375 1.47265-1.23438 1.58204 1.23438-.84766 4.4375-.73438 1.01562"/><g clip-path="url(#d)"><path fill="#50fcfc" fill-rule="evenodd" d="M390.14063 480.32813H395.25l-2.70313-3.1211-2.40625 3.1211"/></g><g clip-path="url(#e)"><path fill="#fff" fill-opacity="0" fill-rule="evenodd" d="M467.9961 480.32813H468V311.67188h-.0039H468v168.65625h-.0039"/></g><path fill="#fff" fill-opacity="0" fill-rule="evenodd" d="M251.33984 443.70313l4.35938-3.89063-6.63281-7.42969-4.35938 3.88672 6.63281 7.4336"/><path fill-rule="evenodd" d="M248.53906 435.3086l.3789-.33985 4.19142 4.69922-.58594.52344-2.99219-3.35157-1.03516.92579-.36718-.41407.37109-.42187.15234-.20703.11328-.22266.0586-.23828-.01172-.27344-.08984-.3125-.1836-.36719"/><path fill="#fff" fill-opacity="0" fill-rule="evenodd" d="M285.30078 432.53906l5.1914-2.67578-4.55859-8.85547-5.1914 2.67578 4.5586 8.85547"/><path fill-rule="evenodd" d="M284.6914 423.71094l.45313-.23438 2.8789 5.59766-.69921.35937-2.05469-3.99218-1.23437.63671-.25391-.49218.46875-.3164.19922-.16407.16406-.1836.11328-.21875.0586-.26562-.00782-.32813-.08593-.39843"/><path fill="#fff" fill-opacity="0" fill-rule="evenodd" d="M206.47266 466.39844l5.78515.8125 1.38672-9.86328-5.78516-.8125-1.38671 9.86328"/><path fill-rule="evenodd" d="M211.07031 458.83594l.5039.07031-.875 6.23438-.78124-.10938.625-4.44531-1.375-.19531.07812-.54688.5625.01172.25782-.01953.23828-.05469.22265-.11328.19922-.1836.1836-.26953.16015-.3789"/><g clip-path="url(#f)"><path fill="none" stroke="#000" stroke-linecap="round" stroke-linejoin="round" stroke-miterlimit="10" stroke-width=".5" d="M147.48828 479.92188l-6.97656.8125"/></g><g clip-path="url(#g)"><path fill="none" stroke="#000" stroke-linecap="round" stroke-linejoin="round" stroke-miterlimit="10" stroke-width=".5" d="M147.48828 479.92188l1.39844 2.01953"/></g><g clip-path="url(#h)"><path fill="none" stroke="#000" stroke-linecap="round" stroke-linejoin="round" stroke-miterlimit="10" stroke-width=".5" d="M160.82422 480.16797l-7.01953.32422"/></g><g clip-path="url(#i)"><path fill="none" stroke="#000" stroke-linecap="round" stroke-linejoin="round" stroke-miterlimit="10" stroke-width=".5" d="M160.82422 480.16797l1.25 2.10937"/></g><g clip-path="url(#j)"><path fill="none" stroke="#000" stroke-linecap="round" stroke-linejoin="round" stroke-miterlimit="10" stroke-width=".5" d="M174.14453 480.26563l-7.02734.125"/></g><g clip-path="url(#k)"><path fill="none" stroke="#000" stroke-linecap="round" stroke-linejoin="round" stroke-miterlimit="10" stroke-width=".5" d="M174.14453 480.26563l1.1875 2.14843"/></g><g clip-path="url(#l)"><path fill="none" stroke="#000" stroke-linecap="round" stroke-linejoin="round" stroke-miterlimit="10" stroke-width=".5" d="M187.45703 480.44922l-7.02344-.23828"/></g><g clip-path="url(#m)"><path fill="none" stroke="#000" stroke-linecap="round" stroke-linejoin="round" stroke-miterlimit="10" stroke-width=".5" d="M186.4336 480.41406l.53906 1.10156"/></g><g clip-path="url(#n)"><path fill="none" stroke="#000" stroke-linecap="round" stroke-linejoin="round" stroke-miterlimit="10" stroke-width=".5" d="M200.7539 480.71875l-6.98437-.78125"/></g><g clip-path="url(#o)"><path fill="none" stroke="#000" stroke-linecap="round" stroke-linejoin="round" stroke-miterlimit="10" stroke-width=".5" d="M199.73438 480.60547l.45312 1.14062"/></g><g clip-path="url(#p)"><path fill="none" stroke="#000" stroke-linecap="round" stroke-linejoin="round" stroke-miterlimit="10" stroke-width=".5" d="M214.08594 480.42188l-7.02344-.1836"/></g><g clip-path="url(#q)"><path fill="none" stroke="#000" stroke-linecap="round" stroke-linejoin="round" stroke-miterlimit="10" stroke-width=".5" d="M213.0664 480.39453l.54688 1.09766"/></g><g clip-path="url(#r)"><path fill="none" stroke="#000" stroke-linecap="round" stroke-linejoin="round" stroke-miterlimit="10" stroke-width=".5" d="M227.36328 479.79297l-6.94531 1.07031"/></g><g clip-path="url(#s)"><path fill="none" stroke="#000" stroke-linecap="round" stroke-linejoin="round" stroke-miterlimit="10" stroke-width=".5" d="M226.35156 479.94922l.73438.98437"/></g><g clip-path="url(#t)"><path fill="none" stroke="#000" stroke-linecap="round" stroke-linejoin="round" stroke-miterlimit="10" stroke-width=".5" d="M240.67188 479.75l-6.9336 1.15625"/></g><g clip-path="url(#u)"><path fill="none" stroke="#000" stroke-linecap="round" stroke-linejoin="round" stroke-miterlimit="10" stroke-width=".5" d="M239.66406 479.91797l.7461.97656"/></g><g clip-path="url(#v)"><path fill="none" stroke="#000" stroke-linecap="round" stroke-linejoin="round" stroke-miterlimit="10" stroke-width=".5" d="M254.01953 480.6289l-7-.60156"/></g><g clip-path="url(#w)"><path fill="none" stroke="#000" stroke-linecap="round" stroke-linejoin="round" stroke-miterlimit="10" stroke-width=".5" d="M253.0039 480.54297l.48048 1.1289"/></g><g clip-path="url(#x)"><path fill="none" stroke="#000" stroke-linecap="round" stroke-linejoin="round" stroke-miterlimit="10" stroke-width=".5" d="M267.34766 480.39453l-7.02344-.1289"/></g><g clip-path="url(#y)"><path fill="none" stroke="#000" stroke-linecap="round" stroke-linejoin="round" stroke-miterlimit="10" stroke-width=".5" d="M266.32813 480.375l.55468 1.09375"/></g><g clip-path="url(#z)"><path fill="none" stroke="#000" stroke-linecap="round" stroke-linejoin="round" stroke-miterlimit="10" stroke-width=".5" d="M278.17188 480.32813l-.01954-.19922-.05859-.19141-.09375-.17578-.45703-.3789-.1914-.0586-.19923-.01953-.19922.01953-.1953.0586-.45704.3789-.09375.17578-.0586.1914-.01952.19923.01953.19921.0586.19141.09374.17969.45703.375.19532.0586.19921.01952.19922-.01953.1914-.0586.45704-.375.09375-.17968.0586-.1914.01953-.19922"/></g><g clip-path="url(#A)"><path fill="none" stroke="#000" stroke-linecap="round" stroke-linejoin="round" stroke-miterlimit="10" stroke-width=".5" d="M288.21484 477.6289l4.5 5.39844"/></g><g clip-path="url(#B)"><path fill="none" stroke="#000" stroke-linecap="round" stroke-linejoin="round" stroke-miterlimit="10" stroke-width=".5" d="M301.03906 478.1289l5.48047 4.39844"/></g><path fill="none" stroke="#000" stroke-linecap="round" stroke-linejoin="round" stroke-miterlimit="10" stroke-width=".5" d="M301.83984 478.76953l.22657-1.20703"/><g clip-path="url(#C)"><path fill="none" stroke="#000" stroke-linecap="round" stroke-linejoin="round" stroke-miterlimit="10" stroke-width=".5" d="M314.33594 478.15625l5.51953 4.34375"/></g><path fill="none" stroke="#000" stroke-linecap="round" stroke-linejoin="round" stroke-miterlimit="10" stroke-width=".5" d="M315.13672 478.78906l.21875-1.20703"/><g clip-path="url(#D)"><path fill="none" stroke="#000" stroke-linecap="round" stroke-linejoin="round" stroke-miterlimit="10" stroke-width=".5" d="M327.33594 478.625l6.14844 3.40625"/></g><path fill="none" stroke="#000" stroke-linecap="round" stroke-linejoin="round" stroke-miterlimit="10" stroke-width=".5" d="M328.23047 479.1211l.02344-1.22657"/><g clip-path="url(#E)"><path fill="none" stroke="#000" stroke-linecap="round" stroke-linejoin="round" stroke-miterlimit="10" stroke-width=".5" d="M340.3086 479.51563l6.83593 1.625"/></g><g clip-path="url(#F)"><path fill="none" stroke="#000" stroke-linecap="round" stroke-linejoin="round" stroke-miterlimit="10" stroke-width=".5" d="M341.30078 479.7539l-.3086-1.1875"/></g><g clip-path="url(#G)"><path fill="none" stroke="#000" stroke-linecap="round" stroke-linejoin="round" stroke-miterlimit="10" stroke-width=".5" d="M353.5664 479.8164l6.94923 1.02344"/></g><g clip-path="url(#H)"><path fill="none" stroke="#000" stroke-linecap="round" stroke-linejoin="round" stroke-miterlimit="10" stroke-width=".5" d="M354.57813 479.96484l-.41407-1.15625"/></g><g clip-path="url(#I)"><path fill="none" stroke="#000" stroke-linecap="round" stroke-linejoin="round" stroke-miterlimit="10" stroke-width=".5" d="M366.86719 479.91797l6.97656.82031"/></g><g clip-path="url(#J)"><path fill="none" stroke="#000" stroke-linecap="round" stroke-linejoin="round" stroke-miterlimit="10" stroke-width=".5" d="M367.88281 480.03906l-.44531-1.14453"/></g><g clip-path="url(#K)"><path fill="none" stroke="#000" stroke-linecap="round" stroke-linejoin="round" stroke-miterlimit="10" stroke-width=".5" d="M380.22656 479.6289l6.88672 1.39844"/></g><path fill="none" stroke="#000" stroke-linecap="round" stroke-linejoin="round" stroke-miterlimit="10" stroke-width=".5" d="M380.22656 479.6289l-.69531-2.35156"/><g clip-path="url(#L)"><path fill="none" stroke="#000" stroke-linecap="round" stroke-linejoin="round" stroke-miterlimit="10" stroke-width=".5" d="M393.49219 480.69531l6.98828-.73437"/></g><g clip-path="url(#M)"><path fill="none" stroke="#000" stroke-linecap="round" stroke-linejoin="round" stroke-miterlimit="10" stroke-width=".5" d="M393.49219 480.69531l-1.3711-2.03515"/></g><g clip-path="url(#N)"><path fill="none" stroke="#000" stroke-linecap="round" stroke-linejoin="round" stroke-miterlimit="10" stroke-width=".5" d="M407.16406 478.74219l6.27344 3.17187"/></g><path fill="none" stroke="#000" stroke-linecap="round" stroke-linejoin="round" stroke-miterlimit="10" stroke-width=".5" d="M408.07813 479.20313l-.02735-1.22657"/><g clip-path="url(#O)"><path fill="none" stroke="#000" stroke-linecap="round" stroke-linejoin="round" stroke-miterlimit="10" stroke-width=".5" d="M425.25781 477.22266l-3.28515 6.21093"/></g><path fill="none" stroke="#000" stroke-linecap="round" stroke-linejoin="round" stroke-miterlimit="10" stroke-width=".5" d="M424.78125 478.125h1.22656"/><g clip-path="url(#P)"><path fill="none" stroke="#000" stroke-linecap="round" stroke-linejoin="round" stroke-miterlimit="10" stroke-width=".5" d="M438.60156 483.41797l-3.33984-6.17969"/></g><g clip-path="url(#Q)"><path fill="none" stroke="#000" stroke-linecap="round" stroke-linejoin="round" stroke-miterlimit="10" stroke-width=".5" d="M453.7539 480.15625l-7.01562.34766"/></g><g clip-path="url(#R)"><path fill="none" stroke="#000" stroke-linecap="round" stroke-linejoin="round" stroke-miterlimit="10" stroke-width=".5" d="M452.73438 480.20703l.6289 1.05078"/></g><g clip-path="url(#S)"><path fill="none" stroke="#000" stroke-linecap="round" stroke-linejoin="round" stroke-miterlimit="10" stroke-width=".5" d="M466.39844 482.40234l-5.67578-4.14453"/></g><g clip-path="url(#T)"><path fill="none" stroke="#000" stroke-linecap="round" stroke-linejoin="round" stroke-miterlimit="10" stroke-width=".5" d="M147.5039 466.76953l-7.0078.48828"/></g><path fill="none" stroke="#000" stroke-linecap="round" stroke-linejoin="round" stroke-miterlimit="10" stroke-width=".5" d="M147.5039 466.76953l1.30079 2.08203m12.02344-1.76562l-7.02735-.14453m6.0039.125l.5547 1.09375m13.75-.64844l-6.95704-.9961m5.94532.85157l.41406 1.15625m13.9336-1.20313l-7-.61328m5.98046.52344l.48047 1.1289m13.86719-1.41796l-7.02735.14453m6.00391-.125l.59766 1.07422m13.72265-1.38672l-6.98828.73047m5.97266-.625l.6836 1.01953m13.66015-.94531l-7.01563.37109m5.9961-.3164l.6328 1.05077m13.69532-1.21484l-7.0039.58984m5.98437-.5039l.66406 1.03125m13.59375-1.60547l-6.84765 1.5664m5.85156-1.33984l.80469.92578m13.57422.01953l-6.98438-.77734m5.96875.66406l.45313 1.14063m13.88671-1.71485l-7.0039.60157m5.98437-.51563l.66797 1.03125m13.08594-2.76953l-5.84375 3.90234m4.99219-3.33593l1.08203.58203m12.14062-2.10156l-3.95312 5.80859m3.3789-4.96484l1.21875.13671m10.28907-1.5664l.80859 6.98047m-.6914-5.96485l1.01171-.69531m10.88672.09766l3.41016 6.14453m-2.91407-5.25l.66797-1.03125m10.98047 1.1875l5.75 4.04297m-4.91406-3.45313l.15234-1.21875m12.07813 1.04297l6.2461 3.21484m-5.33595-2.74609l-.01953-1.22656m12.79297.1836l5.50781 4.36327m-4.70703-3.72656l.22266-1.20703m12.45312.38281l5.1875 4.73828m-5.1875-4.73828l.61329-2.3789m12.15234 3.17578l6.28516 3.14453m-6.28516-3.14453l-.0625-2.45313m.97656 2.91016l-.03125-1.22656m14.11719-.85547l2.91797 6.39453m-2.4961-5.46485l.7461-.97265m15.58594.33984l-3.96094 5.80078m3.96094-5.80078l2.4375.26953m11.1914-.03125l-4.58984 5.32422m4.58984-5.32422l2.39063.54297m11.66015.33985l-6.0625 3.55859m6.0625-3.5586l2.08985 1.28516m11.70312.29297l-7.01562.40234m5.99218-.34375l.64063 1.04688"/><g clip-path="url(#U)"><path fill="none" stroke="#000" stroke-linecap="round" stroke-linejoin="round" stroke-miterlimit="10" stroke-width=".5" d="M147.5039 453.46094l-7.0078.47265"/></g><path fill="none" stroke="#000" stroke-linecap="round" stroke-linejoin="round" stroke-miterlimit="10" stroke-width=".5" d="M146.48438 453.53125l.64843 1.04297m13.60938-1.64453l-6.85547 1.53906m5.85937-1.3164l.80078.93359m6.59766-.82032l6.97266.8672m6.65625-1.94532l6.34375 3.01953m6.66406-1.9961l6.95703.97266m-5.94531-.82812l-.42188-1.15235m13.23438-.3828l5.9375 3.7578m7.0625-3.1289l6.57031 2.4961m7.13281-3.23829l5.79297 3.98047m-4.94922-3.39844l.14063-1.21875m12.01172 1.21485l6.4336 2.82421m-5.5-2.41406l-.08985-1.22265m12.5.74609l6.3711 2.96094m6.64452-1.03125l6.97266-.89844m11.67187-2.54297l-3.68359 5.98438m3.14453-5.11329l1.22656.07422m11.92188-1.27734l-2.27344 6.64844m1.9414-5.6836l1.21485-.1914m11.3125-.96485l-.03515 7.02735m.03125-6.0039l1.08593-.57032m10.83203-.16797l2.76954 6.46094m-2.3672-5.51953l.76954-.95704m10.96094.84766l5.1328 4.79688m-4.38671-4.10157l.32031-1.18359m12.48828.25l4.65235 5.26953m-4.65235-5.26953l.86329-2.29688m12.99609 1.90235l3.5625 6.0586m-3.04297-5.17579l.64063-1.04687m12.85546-.14844l2.16407 6.6875m-1.85157-5.71485l.85547-.8828m11.30078.3164l3.85547 5.875m-3.29687-5.01953l.58984-1.07813m13.3125-.26562l1.5664 6.85156m-1.33984-5.85547l.92579-.80078m16.30468 4.26172l-6.71875-2.0625m6.71875 2.0625l.46485 2.41015m12.64453-4.98828l-6.3086 3.08985m6.3086-3.08985l1.98828 1.44141m11.05078-1.91016l-5.75781 4.02735m5.75781-4.02735l2.1875 1.1172m11.38281-.69142l-6.26562 3.1797"/><g clip-path="url(#V)"><path fill="none" stroke="#000" stroke-linecap="round" stroke-linejoin="round" stroke-miterlimit="10" stroke-width=".5" d="M466.69531 452.10938l2.00781 1.41015"/></g><g clip-path="url(#W)"><path fill="none" stroke="#000" stroke-linecap="round" stroke-linejoin="round" stroke-miterlimit="10" stroke-width=".5" d="M147.51172 440.28516l-7.02344.1953"/></g><path fill="none" stroke="#000" stroke-linecap="round" stroke-linejoin="round" stroke-miterlimit="10" stroke-width=".5" d="M146.48828 440.3125l.60938 1.0664m13.20312-2.85156l-5.96875 3.71094m15.6914-5.3164l1.21095 6.92187m-1.03516-5.91406l.96875-.7539m11.39453-.02345l2.76563 6.46094m-2.36329-5.51953l.76953-.95703m11.75391.21094l3.54297 6.0703m-3.02734-5.1875l.64453-1.04296m12.44922.00781l2.95703 6.375m-2.52735-5.44531l.7422-.98047m13.62108-.27344v7.02735m0-6.00781l1.08204-.57422m10.1953.20312l4.07423 5.72656m-3.48047-4.89062l.54687-1.09766m12.80078-.08984l2.82422 6.4336m-2.41406-5.5l.76172-.96094m11.44531.43359l4.21875 5.6211m-3.60547-4.8047l.52344-1.10937m11.75.67188l5.07422 4.85937m-4.33594-4.15234l.33203-1.1797m11.37891 2.03517l6.8086 1.73437m-5.82032-1.48047l-.28906-1.19531m16.41797-1.67969l-.80078 6.98047m.6875-5.96484l1.14062-.44922m13.5625-.16797l-3.34765 6.17969m3.34765-6.1797l2.45313.01954m10.91797.01172l-3.45704 6.11719m3.45704-6.1172l2.45312.0625m9.52344-.49608l-.78516 6.98437m.67188-5.96875l1.14062-.44922m11.66016-.57812l.47265 7.01172m-.40234-5.9922l1.03906-.64843m10.61719.1289l3.64844 6.00782m-3.64844-6.00781l1.25781-2.10938m10.5625 3.96875l6.64063 2.29297m-6.64063-2.29297l-.38281-2.42578m14.28906 5.78125l5.45703-4.42187m-4.66406 3.78125l-1.1289-.48047m16.80468-4.57813l-.84765 6.97656m17.11718-4.45312l-6.7578 1.9336m6.7578-1.9336l1.70313 1.76562m-2.6875-1.48437l.85156.88281m13.44922-1.15625l-6.76172 1.91406m6.76172-1.91406l1.69922 1.77344m-2.6836-1.49219l.84766.88281m12.60156-2.64453l-5.05859 4.8789m5.0586-4.8789l2.33203.75782m9.83203-1.55079l-2.75782 6.46485m2.75782-6.46485l2.4453-.21093"/><g clip-path="url(#X)"><path fill="none" stroke="#000" stroke-linecap="round" stroke-linejoin="round" stroke-miterlimit="10" stroke-width=".5" d="M147.47266 426.52344l-6.94532 1.08984"/></g><path fill="none" stroke="#000" stroke-linecap="round" stroke-linejoin="round" stroke-miterlimit="10" stroke-width=".5" d="M146.46094 426.67969l.73828.98437m13.10156-2.44922l-5.96875 3.70703m5.09766-3.16796l1.0625.61718m12.53906-1.86718l-4.80078 5.1289m4.80078-5.1289l2.36719.63672m11.01953-.57032l-4.94531 4.9961m4.22656-4.26953l1.17187.35546m13.21875-.66797l-5.65625 4.16797m4.83203-3.5625l1.10547.53125m11.78907-2.1875l-3.16797 6.26953m3.16797-6.26953l2.45312-.05078m10.49219-.10937l-2.42969 6.58984m2.07813-5.63281l1.21484-.16406m12.59766-.73829l-2.71875 6.48047m2.3203-5.53906l1.22267-.10937m9.1914-.52344l3.875 5.86328m-3.3086-5.01172l.58595-1.07422m11.96484.36328l4.27344 5.58203m-3.65235-4.76953l.51172-1.11328m12.46484.10547l3.70704 5.97266m-3.16797-5.10157l.61718-1.0625m10.76954 1.82422l6.48437 2.70703m-5.53906-2.3125l-.11328-1.22265m14.41015-1.07422l2.63282 6.51563m-2.25-5.57032l.78906-.9375m13.99219-.22265l-1.06641 6.9453m1.0664-6.9453l2.31641-.8125m11.76172 1.01562l-2.58984 6.53516m2.58984-6.53516l2.4375-.26953m12.17188 1.16406l-5.1836 4.7461m5.1836-4.7461l2.3125.82032m11.11718-.6875l-5.41015 4.48046m4.625-3.82812l1.13281.46484m8.45312-1.89062l3.6172 6.02734m-3.08985-5.14844l.63281-1.05078m10.98047 1.32813l5.96484 3.71484m-5.96484-3.71484l.16797-2.44922m.69922 2.98828l.08593-1.22266m18.1836.47266l-5.67578 4.14063M399.82422 425l2.20703 1.07031M399 425.60156l2.20703 1.07032m11.89063-1.73047l-5.59375 4.2539m5.59375-4.2539l2.22656 1.02343m-3.03906-.40625l2.22656 1.02735m-3.04297-.40625l1.11719.51172m13.92187-1.6172l-5.78515 3.98829m5.78515-3.98828l2.17969 1.13281m-3.01953-.55078l2.17578 1.1289m-3.01953-.55077l1.08984.5664m12.58203-2.8789l-3.1289 6.29296m3.1289-6.29296l2.45313-.06641m-2.91016.98047l2.45313-.0664m10.90625-1.01954l-2.30469 6.63672m2.30469-6.63672l2.42578-.3789m-2.76172 1.34374l1.21484-.1875m13.375-.28515l-4.17968 5.65234"/><g clip-path="url(#Y)"><path fill="none" stroke="#000" stroke-linecap="round" stroke-linejoin="round" stroke-miterlimit="10" stroke-width=".5" d="M465.65234 424.24219l2.42579.36328"/></g><path fill="none" stroke="#000" stroke-linecap="round" stroke-linejoin="round" stroke-miterlimit="10" stroke-width=".5" d="M465.04297 425.0664l1.21484.1797"/><g clip-path="url(#Z)"><path fill="none" stroke="#000" stroke-linecap="round" stroke-linejoin="round" stroke-miterlimit="10" stroke-width=".5" d="M147.20313 412.30469l-6.40625 2.89453"/></g><path fill="none" stroke="#000" stroke-linecap="round" stroke-linejoin="round" stroke-miterlimit="10" stroke-width=".5" d="M146.26953 412.72656l.97266.75m13.10547-1.5l-6.06641 3.55078m5.1836-3.03125l1.04296.64063m12.70313-1.76953l-5.16016 4.76953m4.41016-4.07422l1.15625.40625m13.22265-.70313l-5.78906 3.97657m5.78906-3.97656l2.17578 1.1328m11.60547-.16406l-6.72265 2.03907m6.72265-2.03906l1.73438 1.73828m10.74219-3.16407l-5.04297 4.89063m4.3086-4.17969l1.16796.375m12.66016-1.29687l-4.60157 5.30859m3.9336-4.53516l1.19531.27344m13.9414.96875l-6.91015 1.28125m6.91016-1.28125l1.52734 1.91797m11.55078-2.6914l-6.4336 2.82421m6.4336-2.82422l1.92578 1.52344m11.44531-1.38672l-6.54687 2.55469m5.59375-2.1836l.92969.80079m8.46875-3.02344l3.1914 6.25781m15.17188-2.46875l-6.90235-1.32031m20.08204 1.8164l-6.63672-2.3125m5.67187 1.97657l.1875 1.21094m14.26172-2.46875l-6.97266.875m5.95704-.75l.70703 1.0039m13.07812-2.61328l-5.88281 3.84375m5.02734-3.28516l1.07422.59375m13.66797.8125l-7.02734-.08984m6.00781.07813l.5586 1.08984m13.17577.84375l-5.82421-3.9336m4.97656 3.36329l-.1289 1.21875m14.27734-4.60157l-5.79688 3.97266m5.79688-3.97266l2.17578 1.13672m-3.01953-.55859l1.08984.57031m12.71484-1.58203l-5.08984 4.84375m5.08984-4.84375l2.32813.77344m-3.0664-.07031l2.32812.77734m12.0039-1.14844l-5.64453 4.17969m5.64453-4.17969l2.21485 1.05469m-3.03516-.44922l2.21484 1.0586m11.10157-2.46094l-4.00782 5.77343m4.00782-5.77343l2.4375.28906m-3.01953.55078l1.21875.14453m13.53515-.13672l-5.72265 4.07813m5.72265-4.07813l2.19531 1.09766m-3.02734-.5039l1.09766.54687m12.71875-1.54297l-5.0586 4.88281m5.0586-4.88281l2.33203.75781m-3.07031-.04687l1.16796.3789m12.08985-1.70703l-3.46485 6.11328m3.46485-6.11328l2.45312.0664m-2.95703.82423l1.22656.03515m12.64844-.89062l-3.58203 6.04687"/><g clip-path="url(#aa)"><path fill="none" stroke="#000" stroke-linecap="round" stroke-linejoin="round" stroke-miterlimit="10" stroke-width=".5" d="M465.35156 410.73047l2.45313.11328"/></g><path fill="none" stroke="#000" stroke-linecap="round" stroke-linejoin="round" stroke-miterlimit="10" stroke-width=".5" d="M464.83203 411.60938l2.44922.11328"/><g clip-path="url(#ab)"><path fill="none" stroke="#000" stroke-linecap="round" stroke-linejoin="round" stroke-miterlimit="10" stroke-width=".5" d="M146.9375 398.51172l-5.875 3.85547"/></g><path fill="none" stroke="#000" stroke-linecap="round" stroke-linejoin="round" stroke-miterlimit="10" stroke-width=".5" d="M146.9375 398.51172l2.15234 1.17578m10.59766-1.84375l-4.74219 5.1875m4.74219-5.1875l2.375.61328m11.6875.36719l-6.24219 3.23047m6.24219-3.23047l2.01953 1.39453m11.6836.39844l-7.01563-.35938m7.01563.35938l1.03906 2.22265m12.14062-3.39062l-6.74219 1.97656m6.7422-1.97656l1.71484 1.7539m11.60156-1.74218l-6.75 1.95312m5.76953-1.66797l.85547.87891m13.42578-1.21875l-6.71875 2.0664m6.71875-2.0664l1.73828 1.73047m11.36328-2.26172l-6.29297 3.1289m5.37891-2.67577l.9961.71484m13.41406-.73047l-6.65625 2.25m6.65625-2.25l1.78515 1.6836m11.125-2.50782l-5.84375 3.89844m5.84375-3.89844l2.16016 1.16406m-3.00781-.59765l1.07812.58203m13.23438-.90235l-6.14454 3.41016m6.14454-3.41015l2.05859 1.33203m11.04688-1.66797l-5.72266 4.07812m5.72265-4.07812l2.19532 1.09765m10.48828-1.77343l-4.46094 5.42968m3.8125-4.63671l1.20313.24218m13.97265.98828l-6.88672 1.38672m5.88672-1.1875l.77735.94922m13.5664.07031l-6.94531-1.05468m6.94531 1.05468l.8164 2.31641m11.04688.03125l-4.03906-5.75m3.45313 4.91406l-.5547 1.09375m13.375.2539l-1.8789-6.77343m1.60547 5.78906l-.89062.84375m16.78515-4.58593l-6.49219 2.68359m6.4922-2.6836l1.89452 1.5625m-2.83593-1.17187l.9453.78125m12.60938-2.2539l-5.08593 4.84765m5.08593-4.84765l2.32813.77343m-3.0664-.07031l1.16406.38672m13.3203-.53516l-5.94921 3.73828m5.94922-3.73828l2.1289 1.22266m-2.99218-.67969l2.125 1.22266m12.03515-1.79688l-5.91406 3.79688m5.91406-3.79688l2.14063 1.19922m-3-.64453l1.07031.59766m12.32422-2.01172l-4.35156 5.51562m4.35156-5.51562l2.41406.4375m-3.04687.36719l1.20703.21484m12.54297-1.16406l-3.96094 5.80468m3.96094-5.80468l2.4414.26953m-3.01562.57422l2.4375.27343m12.24219-.3789l-5.53516 4.32812m5.53515-4.32812l2.2422 1m-3.04688-.3711l1.1211.5m12.78905-1.37109l-5.11718 4.8164"/><g clip-path="url(#ac)"><path fill="none" stroke="#000" stroke-linecap="round" stroke-linejoin="round" stroke-miterlimit="10" stroke-width=".5" d="M466.1211 398.03125l2.32421.78516"/></g><path fill="none" stroke="#000" stroke-linecap="round" stroke-linejoin="round" stroke-miterlimit="10" stroke-width=".5" d="M465.375 398.73047l1.16406.39453"/><g clip-path="url(#ad)"><path fill="none" stroke="#000" stroke-linecap="round" stroke-linejoin="round" stroke-miterlimit="10" stroke-width=".5" d="M146.72656 384.90625l-5.45312 4.4336"/></g><path fill="none" stroke="#000" stroke-linecap="round" stroke-linejoin="round" stroke-miterlimit="10" stroke-width=".5" d="M145.9336 385.55078l1.1289.47656m13.26953-.70703l-6.03516 3.60547m6.03516-3.60547l2.09766 1.26953m10.98047-1.61718l-5.5586 4.30078m5.5586-4.30078l2.23437 1.0078m-3.04297-.3828l1.11719.5039m11.76172-2.14062l-3.07031 6.32422m3.0703-6.32422l2.45313-.08985m6.63282 5.51172l5.38672-4.51562m14.07421 2.91797l-6.90234-1.32422m6.90234 1.32422l.71875 2.34765m12.46875-4.14453l-6.64843 2.26953m5.67968-1.9414l.89844.83984m12.46875-2.59375l-4.8125 5.1211m4.8125-5.1211l2.36719.64453m11.17187-.41015l-5.26562 4.65234m5.26562-4.65235l2.30078.86329m11.59375.03515l-6.42187 2.85547m6.42188-2.85547l1.93359 1.50781m10.90625-2.28515l-5.46875 4.41015m5.46875-4.41015l2.2539.96094m11.28516-.64844l-5.91797 3.78515m5.91797-3.78515l2.13672 1.20312m10.64844-1.84765l-4.85938 5.07422m4.85938-5.07422l2.35937.66406m11.58203.13672l-6.11328 3.47265m6.11328-3.47265l2.07032 1.3164m-2.96094-.80859l1.03515.65625m13.41016-.64453l-6.59375 2.4336m6.59375-2.4336l1.83203 1.63672m9.71875-3.58203l-3.0625 6.32422m2.61719-5.40235l1.22656-.04687m14.10938.64453l-6.21485 3.28515m6.21485-3.28515l2.03125 1.375m-2.9375-.89844l1.01562.6914m13.01953-1.48046l-5.83984 3.91015m5.83984-3.91015l2.16016 1.16015m-3.01172-.58984l1.08203.57813m12.9375-1.35157l-5.54687 4.31641m5.54687-4.3164l2.23828 1.0039m-3.04687-.375l1.1211.5m12.85937-1.30078l-5.26172 4.66015m5.26172-4.66015l2.29687.85547m-3.0625-.17969l1.14844.42969m12.875-1.16797l-5.14844 4.78515m5.14844-4.78515l2.3164.80078m-3.0664-.10547l1.16016.40235m12.65234-1.34375l-4.64063 5.27734m4.64063-5.27735l2.38672.56641m10.16797-1.07422l-3.1211 6.29297m3.1211-6.29297l2.45312-.07031m-2.90625.98438l1.22656-.03516m14.09375.63672l-6.22265 3.26172m6.22265-3.26172l2.02344 1.38281m10.92578-1.9414l-5.49609 4.3789"/><g clip-path="url(#ae)"><path fill="none" stroke="#000" stroke-linecap="round" stroke-linejoin="round" stroke-miterlimit="10" stroke-width=".5" d="M466.3086 384.9336l2.25.97656"/></g><path fill="none" stroke="#000" stroke-linecap="round" stroke-linejoin="round" stroke-miterlimit="10" stroke-width=".5" d="M465.50781 385.57031l1.1289.48828"/><g clip-path="url(#af)"><path fill="none" stroke="#000" stroke-linecap="round" stroke-linejoin="round" stroke-miterlimit="10" stroke-width=".5" d="M143.99219 370.29297l.01562 7.02734"/></g><path fill="none" stroke="#000" stroke-linecap="round" stroke-linejoin="round" stroke-miterlimit="10" stroke-width=".5" d="M160.50781 372.33594l-6.38281 2.9414m5.45313-2.51171l.97656.74218m12.3164-2.40625l-4.48437 5.41016m4.48437-5.41016l2.40625.4961m9.23047-1.25782l-1.125 6.9375m.96094-5.92968l1.16406-.39454m13.63281-.11328l-3.76171 5.9375m3.76172-5.9375l2.4453.1875m11.25.08985L208.31642 376.5m4.51953-5.38281l2.39844.51172m10.27734-.9375l-3.24219 6.23437m3.24219-6.23437l2.45312-.02344m12.4375 1.67969l-6.39453 2.92187m6.39453-2.92187l1.94532 1.49218m10.8125-2.34765l-5.28125 4.63281m4.51562-3.96094l1.14453.4375m12.11719-1.79687l-3.64063 6.00781m3.64063-6.00781l2.44922.13672m11.05469-.01563l-4.01563 5.76563m4.01563-5.76563l2.43359.29297m11.71875.53125l-5.69531 4.11719m5.69531-4.11719l2.20313 1.08203m11.26562-.85547l-6 3.66016m6-3.66016l2.10938 1.25m11.16796-1.30469l-5.92578 3.77344m5.0625-3.22656l1.07031.60547m12.70704-1.67188l-5.1211 4.8125m5.1211-4.8125l2.32421.79297m11.1211-.64453l-5.38281 4.51563m5.3828-4.51563l2.27345.91797m11.45312-.3086l-6.20703 3.29688m6.20703-3.29687l2.03125 1.375m-2.9336-.89454l1.01563.6875m13.4336-.625l-6.67188 2.21094m6.67188-2.21094l1.77343 1.69532m11.3047-2.25l-6.19532 3.32031m6.19531-3.32031l2.03906 1.36719m-2.9414-.88282l1.01953.6836m12.94531-1.56641l-5.6914 4.11719m5.6914-4.11719l2.20313 1.08203m-3.03125-.48437l1.10156.54296m13.07812-1.09375l-5.76171 4.02344m5.76171-4.02344l2.1836 1.1172m-3.02344-.53126l2.1836 1.11719m11.9453-1.73438l-5.71484 4.08594m5.71485-4.08594l2.19921 1.08985m-3.02734-.4961l1.09766.54688m12.50781-1.73828l-4.63672 5.28125m4.63672-5.28125l2.38672.5625m-3.0625.20703l1.19531.28125m11.34375-1.8164l-1.73047 6.8125m1.73047-6.8125l2.38281-.58204m11.88282.98047l-3.63672 6.01172m3.10937-5.13672l1.22656.07031"/><g clip-path="url(#ag)"><path fill="none" stroke="#000" stroke-linecap="round" stroke-linejoin="round" stroke-miterlimit="10" stroke-width=".5" d="M144.26563 356.98828l-.53125 7.00781"/></g><path fill="none" stroke="#000" stroke-linecap="round" stroke-linejoin="round" stroke-miterlimit="10" stroke-width=".5" d="M160.79688 360.96094l-6.96485-.9336m19.66016-1.5703l-5.72656 4.07421m5.72656-4.07422l2.19531 1.09766m10.26563-1.94531l-4.01563 5.76562m3.4336-4.92578l1.21484.14844m13.7461.1914l-6.14454 3.40625m5.25-2.91015l1.03125.66796m13.32813-.85937l-6.44532 2.80078m5.50781-2.39453l.96094.76563m13.08594-1.57813l-6.03125 3.60938m5.15234-3.08204l1.05078.63282m13.10547-1.22266l-5.95312 3.73438m5.08594-3.19141l1.0625.61328m13.0703-1.23047l-5.85546 3.88672m5.0039-3.32031l1.07813.58203m13.66016.50781l-7.0039.57031m5.98827-.48828l.66016 1.03516m12.76172-3.20313l-5.1836 4.7422m5.1836-4.7422l2.3125.82032m10.67187-1.13672l-4.52343 5.375m3.86718-4.59375l1.19922.25781m13.13281-.6914l-5.24218 4.67968m4.48047-4l1.14843.42578m11.21485-2.16015l-1.81641 6.78906m1.55469-5.80078l1.19531-.27344m14.6289 1.13281l-6.30859 3.09766m5.39063-2.64844l.99219.71875m13.59375.58985l-7.01563-.42188m5.99219.35938l.51172 1.11718m13.8203-1.5664l-7.0039.60156m7.0039-.60156l1.33204 2.0625m11.96484-2.23047l-6.96484.9375m6.96484-.9375l1.4297 1.99219m11.72265-2.67188l-6.64063 2.30078m6.64063-2.30078l1.79687 1.66797m11.24219-2.27344l-6.08984 3.50781m6.08984-3.5078l2.07813 1.30468m10.67578-2.03516l-4.96875 4.96875m4.96875-4.96875l2.34765.71875m10.83203-.84765l-4.6953 5.23046m4.6953-5.23046l2.37891.58984m-3.0625.17188l1.1914.29296m13.01954-.84375l-5.1211 4.8086m5.1211-4.8086l2.32422.78907m9.54687-1.71875l-2.23437 6.66406m1.91015-5.6914l1.21094-.20313m13.53516-.15625l-4.44922 5.4375"/><g clip-path="url(#ah)"><path fill="none" stroke="#000" stroke-linecap="round" stroke-linejoin="round" stroke-miterlimit="10" stroke-width=".5" d="M465.78516 357.77344l2.40625.48047"/></g><g clip-path="url(#ai)"><path fill="none" stroke="#000" stroke-linecap="round" stroke-linejoin="round" stroke-miterlimit="10" stroke-width=".5" d="M146.41797 344.6289l-4.83594 5.09766"/></g><path fill="none" stroke="#000" stroke-linecap="round" stroke-linejoin="round" stroke-miterlimit="10" stroke-width=".5" d="M145.71484 345.3711l1.1836.32812m13.83203 2.30469l-6.83203-1.65235m5.83984 1.41016l.30469 1.1914m12.0586 1.41407l-2.94141-6.3789m2.51172 5.45312l-.7422.97656m15.70704-.98047l-5.38281-4.51563m4.60156 3.85547l-.25781 1.20313m13.80078-.01563l-4.27735-5.57421m18.07032 5.1328l-5.23438-4.6914m13.8789 5.19922l4.10548-5.70313m8.04297 4.25l6.4453-2.80078m8.2422-1.58593l3.69921 5.97265m8.26563-4.4375l6.39844 2.90235m10.03125 2.0625l.16796-7.02735m16.22657 5.35156l-5.98828-3.67578m19.77343 2.41016l-6.92968-1.14453m5.92187.98047l.39063 1.16015m11.42578-4.94921l-1.91797 6.76171m1.63672-5.77734l1.19922-.25781m7.92578 2.71875l7.02734-.125m10.3164-3.41406l-1.03515 6.94921m.88672-5.9375l1.15625-.41015m15.08594 1.65625l-6.58985 2.4375m5.63282-2.08594l.91406.8164m13.55469.44532l-6.98438-.79297m5.96875.67578l.44922 1.14063m13.89844-1.61329l-7.01563.38672m5.9961-.33203l.6328 1.05078m13.5586-1.91796l-6.73047 2.01171m5.75391-1.71875l.85938.8711m12.08984-3.03125l-4.04297 5.7461m3.45313-4.91017l1.21875.15235m12.53515-1.08985l-3.74219 5.94922m3.7422-5.94921l2.4453.17968m10.71485-.26953l-3.4336 6.1289m3.4336-6.1289l2.45312.05469m10.92969-.01563l-3.5664 6.0547m3.5664-6.0547l2.44922.10547m12.375 1.70313l-6.58984 2.4336"/><g clip-path="url(#aj)"><path fill="none" stroke="#000" stroke-linecap="round" stroke-linejoin="round" stroke-miterlimit="10" stroke-width=".5" d="M466.85547 345.96094l1.83203 1.63281"/></g><g clip-path="url(#ak)"><path fill="none" stroke="#000" stroke-linecap="round" stroke-linejoin="round" stroke-miterlimit="10" stroke-width=".5" d="M146.91016 331.89453l-5.82032 3.9336"/></g><path fill="none" stroke="#000" stroke-linecap="round" stroke-linejoin="round" stroke-miterlimit="10" stroke-width=".5" d="M146.91016 331.89453l2.16797 1.15235m11.20703-1.0586l-5.94141 3.75m5.9414-3.75l2.13282 1.21875m11.47266-.64844l-6.52344 2.60938m5.57422-2.23047l.9375.79297m12.21484-2.64844l-4.29688 5.5625m3.67188-4.7539l1.20703.20703m13.33984-.41407l-5.51171 4.35938m19.11328-.42188l-6.08203-3.51562m17.91015 4.90625l-3.10937-6.30078m2.65625 5.38672l-.71485.99609m14.42578-.05078l-2.99218-6.35938m2.55469 5.4336l-.73438.98047m12.27344.20703l1.42969-6.88281m-1.21875 5.8789l-1.1797.34375m11.90235-1.125l6.19531-3.3125m-5.29687 2.82813l-1.01563-.6836m13.14454.44922l6.76953-1.875m-5.78516 1.60156l-.84375-.89062m14.20313 2.83203l4.71093-5.21094m-4.02344 4.45313l-1.1914-.29688m15.40625 1.8789l1.53906-6.85937m-1.3164 5.85938l-1.1836.32422m17.80078-4.9375l-5.50781 4.36328m4.70312-3.72656l1.125.49218m7.01563-.34375l6.44531 2.79688m6.94531.16015l6.29688-3.11718m-5.38281 2.66406l-.9961-.71484m15.44141 2.9453l2.20703-6.67187m-1.88672 5.69922l-1.20703.20703m11.79688-2.7539l7.01562.36719m-5.9961-.3125l-.51562-1.11329m14.3164 4.12891l4.00782-5.77344m-3.42578 4.9336l-1.21875-.14454m16.69922 1.53125l-1.48828-6.86718m1.27343 5.86719l-.9375.79296m16.01172-5.89453l-4.57422 5.33594m18.73829-4.2461l-6.27735 3.15626m5.36328-2.69922l1.00391.71094m11.57031-2.77344l-2.96484 6.36719m2.96484-6.3672l2.44922-.1328m11.90625.87109l-5.04687 4.89062m5.04687-4.89062l2.33594.75781M467 333.13672l-6.875 1.45312"/><g clip-path="url(#al)"><path fill="none" stroke="#000" stroke-linecap="round" stroke-linejoin="round" stroke-miterlimit="10" stroke-width=".5" d="M467 333.13672l1.57422 1.88281"/></g><g clip-path="url(#am)"><path fill="none" stroke="#000" stroke-linecap="round" stroke-linejoin="round" stroke-miterlimit="10" stroke-width=".5" d="M146.67578 318.26953l-5.35156 4.55469"/></g><path fill="none" stroke="#000" stroke-linecap="round" stroke-linejoin="round" stroke-miterlimit="10" stroke-width=".5" d="M146.67578 318.26953l2.28125.90625m11.23828-.64062l-5.75781 4.02734m5.75781-4.02734l2.1836 1.11328m11.20312-1.00781l-5.90234 3.8164m5.90234-3.8164l2.14063 1.1914m10.9375-1.51562l-5.4297 4.46093m5.4297-4.46093l2.26562.9414m10.92578-1.08594l-5.17969 4.75m4.42579-4.05859l1.15625.41016M214 319.76563l-6.85156 1.5625m5.85547-1.33204l.80078.92579m13.48047-1.28125l-6.78907 1.8164m5.80078-1.55469l.83594.89844m13.26953-1.70703l-6.39453 2.91016m5.46485-2.48829l.97265.7461m12.94531-1.73828l-5.74218 4.04687m4.91015-3.45703l1.09375.55469m12.79297-1.47266l-5.21875 4.70703m4.45703-4.02343l1.15625.41796m12.64844-1.375l-4.67187 5.25m3.99218-4.48437l1.19141.28906m12.94922-.91406l-4.96875 4.96875m4.2461-4.2461l1.17577.35938m13.47657-.2539l-6.19532 3.3164m19.78516-.67187l-6.7461-1.97657m13.9297-1.18359l5.51952 4.34766m-4.71875-3.71485l.21875-1.21094m11.66016 1.84375l6.78906 1.81641m-5.80078-1.55078l-.27734-1.19531m12.63672 2.85547l6.72265-2.03907m-5.74609 1.7422l-.86328-.8672m13.14844-.6875l6.82812 1.66797m-5.83203-1.42578l-.30469-1.1914m15.21094 5.1953l1.65625-6.82812m-1.41406 5.83594l-1.1914.30469m13.09765.16797l3.98828-5.78516m-3.98828 5.78516l-2.4375-.28125m16.02343.44921l3.44532-6.125m-2.9414 5.23438l-1.22657-.02734m16.78125 1.21875l-2.03906-6.72657m16.36718.5l-4.0664 5.73047m3.47656-4.89844l1.21484.16016m13.57032-.09375l-5.82422 3.9336m4.97656-3.36329l1.08203.57813m13.60156.08203l-6.87109 1.46875"/><g clip-path="url(#an)"><path fill="none" stroke="#000" stroke-linecap="round" stroke-linejoin="round" stroke-miterlimit="10" stroke-width=".5" d="M466.9961 319.8125l1.58202 1.8789"/></g><path fill="#00f" fill-rule="evenodd" d="M383.80078 472.08594h8.61719V461.9414h-8.61719v10.14453"/><path fill="azure" fill-rule="evenodd" d="M385.63281 463.77344h.83203v2.82422h3.28907v-2.82422h.83203v6.48047h-.83203v-2.91797h-3.28907v2.91797h-.83203v-6.48047"/><path fill="#00f" fill-rule="evenodd" d="M383.80078 436.57813h8.61719v-10.14454h-8.61719v10.14454"/><path fill="azure" fill-rule="evenodd" d="M385.63281 428.26563h.83203v2.82421h3.28907v-2.82421h.83203v6.48046h-.83203v-2.91406h-3.28907v2.91406h-.83203v-6.48046"/><path fill="#ff3030" fill-rule="evenodd" d="M375.61719 418.82813h7.69531v-10.14844h-7.69531v10.14844"/><path fill="azure" fill-rule="evenodd" d="M377.44922 410.51172h.83594v5.74219h3.1914v.73828h-4.02734v-6.48047"/><path fill="#00f" fill-rule="evenodd" d="M370.48438 396.63281h8.62109v-10.14453h-8.6211v10.14453"/><path fill="azure" fill-rule="evenodd" d="M372.3164 388.32031h.83594v2.82422h3.28516v-2.82422h.83203v6.48047h-.83203v-2.91406h-3.28516v2.91406h-.83593v-6.48047"/><path fill="#ff3030" fill-rule="evenodd" d="M189.20703 378.88281h7.6914v-10.14844h-7.6914v10.14844"/><path fill="azure" fill-rule="evenodd" d="M191.03906 370.5664h.83594v5.7422h3.1914v.73827h-4.02734v-6.48046"/><path fill="#ffffe0" fill-rule="evenodd" d="M405.50781 463.4414h22.17969V453.25h-22.17969v10.1914"/><path fill-rule="evenodd" d="M409.0039 455.08203h.51173v6.29688h-.78907v-4.4922h-1.38672v-.55468l.5586-.0664.2539-.05079.22657-.08984.20703-.14453.17187-.20703.14063-.29688.10547-.39453m4.8164 0l.22656.01953.22266.05469.20703.08984.19531.1211.1836.14844.17187.17578.30079.42187.24609.49219.17969.54687.10937.57813.03906.58984-.03906.59375-.10937.58594-.1797.55469-.24608.5-.30079.42969-.17187.17968-.1836.15235-.1953.125-.20704.08984-.22265.0586-.22657.01952-.23047-.01953-.21875-.05859-.20703-.08984-.19922-.125-.18359-.15235-.17188-.17969-.30078-.42968-.24218-.5-.1797-.55469-.11327-.58594-.03516-.59375h.83203l.02735.5664.08203.50392.125.4414.16406.375.1914.30078.21094.22266.22266.13672.22656.04687.22656-.04687.22266-.13672.21094-.22266.1875-.30078.16406-.375.125-.4414.08203-.50391.03125-.5664-.03125-.5586-.08203-.5-.125-.4375-.16406-.36328-.1875-.29297-.21094-.21485-.22265-.1328-.22657-.04298-.22656.04297-.22266.13281-.21093.21485-.19141.29297-.16406.36328-.125.4375-.08203.5-.02735.5586h-.83203l.03516-.58985.11328-.57813.17969-.54687.24218-.49219.30079-.42187.17187-.17579.1836-.14843.19921-.1211.20703-.08984.21875-.05469.23047-.01953m4.95313 0l.22656.01953.21875.05469.21094.08984.19531.1211.1836.14844.17187.17578.30078.42187.24219.49219.1836.54687.10937.57813.03906.58984-.03906.59375-.10938.58594-.1836.55469-.24218.5-.30078.42969-.17188.17968-.18359.15235-.19531.125-.21094.08984-.21875.0586-.22656.01952-.23047-.01953-.21875-.05859-.20703-.08984-.19922-.125-.1836-.15235-.17187-.17969-.30078-.42968-.24219-.5-.17969-.55469-.11328-.58594-.03906-.59375h.83594l.02734.5664.08203.50392.125.4414.16406.375.19141.30078.21094.22266.22265.13672.22657.04687.22656-.04687.22266-.13672.21093-.22266.1875-.30078.16407-.375.125-.4414.08203-.50391.03125-.5664-.03125-.5586-.08203-.5-.125-.4375-.16407-.36328-.1875-.29297-.21093-.21485-.22266-.1328-.22656-.04298-.22656.04297-.22266.13281-.21094.21485-.1914.29297-.16407.36328-.125.4375-.08203.5-.02734.5586h-.83594l.03906-.58985.11328-.57813.1797-.54687.24218-.49219.30078-.42187.17188-.17579.18359-.14843.19922-.1211.20703-.08984.21875-.05469.23047-.01953m4.94922 0l.39062.02735.35547.08203.32422.13671.28125.1875.22656.23829.17578.28515.10938.33203.03515.37891-.01953.27344-.0586.23437-.08593.19922-.11328.17188-.1289.14453-.14063.1211-.28516.1953.23047.1211.21094.14453.17969.17187.15234.19532.125.21093.08984.23047.0586.2461.01953.2539-.03516.3086-.10547.32812-.17187.32422-.23828.30469-.3086.26953-.37109.21484-.21484.08203-.22657.0625-.24609.03516-.25781.01563-.26172-.01563-.24219-.03516-.22265-.0625-.20704-.08203-.35546-.21484-.29297-.26953-.22266-.30469-.15625-.32422-.09375-.32812-.03125-.3086h.83594l.02734.2539.07813.23438.12109.21094.16016.1875.1914.15235.22266.11328.23828.07421.2539.02344.25782-.02344.23828-.07421.22266-.11329.1914-.15234.16016-.1875.1211-.21094.07812-.23437.02734-.2539-.02734-.25391-.07813-.23438-.1211-.21094-.16015-.1875-.1914-.14843-.22266-.1172-.23828-.0703-.25781-.02735-.25391.02735-.23828.0703-.22266.1172-.1914.14843-.16016.1875-.1211.21094-.07812.23438-.02734.2539h-.83594l.01953-.2539.0586-.23829.08984-.22656.1211-.20703.15624-.1914.17969-.17188.21094-.15234.23047-.13282-.28516-.1953-.14063-.1211-.1289-.14453-.11328-.17188-.08594-.19922-.0586-.23437-.01952-.27344h.78515l.02344.21484.0664.1875.10157.16797.14062.14063.16406.10937.1875.08203.20704.05079.21875.01562.22265-.01563.20703-.05078.1875-.08203.16407-.10937.14062-.14063.10156-.16797.06641-.1875.02344-.21484-.02344-.21484-.0664-.19141-.10157-.16797-.14062-.14062-.16407-.10938-.1875-.08203-.20703-.05078-.22265-.01563-.21875.01563-.20704.05078-.1875.08203-.16406.10938-.14062.14062-.10156.16797-.06641.1914-.02344.21485h-.78515l.03515-.3789.10938-.33204.17578-.28515.22656-.23829.28125-.1875.32422-.13671.35547-.08204.38672-.02734"/><path fill="#ffffe0" fill-rule="evenodd" d="M310.67578 353.64844h22.17969v-10.1914h-22.17969v10.1914"/><path fill-rule="evenodd" d="M314.17578 345.29297h.50781v6.29297h-.78515v-4.48828h-1.39063v-.5586l.5586-.0625.2539-.05469.23047-.08984.20313-.14062.17187-.21094.14453-.29297.10547-.39453m4.8125 0l.23047.01562.21875.0586.20703.08984.19531.11719.1836.15234.17187.17578.30469.41797.24219.49219.17969.54688.10937.58203.03906.58984-.03906.59375-.10938.58203-.17968.55469-.24219.5039-.30469.42579-.17187.17968-.1836.15235-.1953.125-.20704.09375-.21875.05469-.23047.01953-.23047-.01954-.21875-.05468-.20703-.09375-.19531-.125-.1836-.15235-.17187-.17968-.30469-.42579-.24219-.5039-.17968-.55469-.10938-.58203-.03906-.59375h.83203l.03125.5625.07813.50781.1289.4414.16016.375.1914.30079.21094.21875.22266.14063.22656.04687.22656-.04688.22266-.14062.21094-.21875.1914-.30078.16016-.375.1289-.4414.08204-.50782.02734-.5625-.02734-.5625-.08203-.5-.12891-.4336-.16016-.36718-.1914-.29297-.21094-.21484-.22266-.12891-.22656-.04688-.22656.04688-.22266.1289-.21094.21485-.1914.29297-.16016.36719-.1289.43359-.07813.5-.03125.5625h-.83203l.03906-.58984.10938-.58204.17969-.54687.24218-.49219.30469-.41797.17188-.17578.18359-.15234.19531-.11719.20703-.08984.21875-.0586.23047-.01562m5.08985 0h.51171v6.29297h-.78906v-4.48828h-1.38672v-.5586l.5586-.0625.2539-.05469.23047-.08984.20313-.14062.17187-.21094.14063-.29297.10546-.39453m2.82422 2.17187h.78907l.01953-.3125.0586-.28906.09765-.25.14062-.21875.1836-.17187.22265-.12891.26563-.08203.30469-.02735.23828.02344.22656.0625.20312.10156.1797.13672.14843.17579.11328.20312.07031.23828.02735.26172-.02344.26953-.0664.22656-.10938.19141-.15625.17188-.19922.16015-.2461.16797-.63671.38672-.53516.3125-.4375.3164-.34766.32813-.26562.33594-.1875.34765-.125.3711-.07031.39453-.01954.41797h4.21094v-.74219h-3.33203l.08203-.28125.11328-.23828.14844-.20313.1875-.17968.23047-.17188.27734-.17578.71875-.41406.41407-.20703.34765-.23047.28125-.25.21875-.26953.16406-.27735.10938-.28125.0664-.28515.01954-.28125-.04297-.38282-.1211-.35156-.1875-.30469-.25-.26562-.30468-.21094-.34375-.16015-.3789-.09766-.41017-.03125-.43359.03125-.39844.09765-.35546.16797-.3047.23438-.24609.30469-.1875.37109-.11328.44922-.04297.51562"/><path fill="#ffffe0" fill-rule="evenodd" d="M190.83984 362.96094h22.1797v-10.1914h-22.1797v10.1914"/><path fill-rule="evenodd" d="M194.33984 354.60156h.50782v6.29688h-.78516v-4.49219h-1.39063v-.55469l.5625-.0625.25-.05469.23047-.08984.20313-.14062.17578-.21094.14063-.29297.10546-.39844m4.8125 0l.23047.01953.21875.0547.20703.08983.19532.1211.1875.15234.16797.17578.30468.41797.24219.49219.17969.54688.11328.57812.03516.59375-.03516.59375-.11328.58203-.17969.55469-.24219.5039-.30469.42579-.16796.17968-.1875.15235-.19532.125-.20703.08984-.21875.0586-.23047.01953-.23047-.01954-.21875-.05859-.20703-.08984-.1953-.125-.1836-.15235-.17188-.17968-.30078-.42579-.2461-.5039-.17968-.55469-.10938-.58203-.03906-.59375h.83203l.03125.5625.08203.5039.125.44532.16016.375.1914.30078.21095.21875.22265.13672.22656.04687.22657-.04687.22265-.13672.21094-.21875.1914-.30078.16016-.375.1289-.44531.08204-.50391.02734-.5625-.02734-.5625-.08203-.5-.1289-.4336-.16016-.36718-.19141-.29297-.21094-.21484-.22265-.12891-.22657-.04688-.22656.04688-.22266.1289-.21093.21485-.1914.29297-.16017.36719-.125.43359-.08203.5-.03125.5625h-.83203l.03906-.59375.10938-.57813.17969-.54687.2461-.49219.30077-.41797.17188-.17578.1836-.15234.1953-.1211.20703-.08984.21875-.05469.23047-.01953m5.09375 0h.50782v6.29688h-.78907v-4.49219h-1.38672v-.55469l.5586-.0625.2539-.05469.23047-.08984.20313-.14062.17187-.21094.14063-.29297.10937-.39844m2.82032 2.17578h.78906l.01953-.3164.0586-.28516.09765-.2539.14063-.21485.18359-.17187.22266-.12891.26562-.08203.3086-.02735.23437.02344.22656.0625.20313.10156.17968.13672.14844.17188.11328.20703.07031.23828.02735.26172-.02344.26953-.0664.22266-.10938.19531-.15625.16797-.19922.16406-.2461.16406-.63671.39063-.53516.3125-.4375.3164-.34765.32422-.26563.33594-.1875.35156-.125.3711-.07031.39062-.01953.42188h4.21094v-.74219h-3.33204l.08203-.28516.11329-.23437.14843-.20313.1875-.17968.23047-.17188.28125-.17578.71485-.41406.41406-.20703.34766-.23047.28125-.25.21875-.26953.16406-.27735.10937-.28515.0664-.28516.01954-.28125-.04297-.38281-.1211-.34766-.1875-.3086-.25-.26171-.30468-.21094-.34375-.16015-.3789-.09766-.40626-.03516-.4375.03516-.39843.09765-.35547.16797-.30469.23438-.2461.30078-.1875.375-.11327.44531-.04297.51953"/><path fill="#ffffe0" fill-rule="evenodd" d="M213.03125 437.73047h22.17969v-10.19531h-22.17969v10.1953"/><path fill-rule="evenodd" d="M216.53125 429.3711h.50781v6.29296h-.78515v-4.48828h-1.39063v-.55469l.5625-.0664.25-.05469.23047-.08984.20313-.14063.17578-.21094.14062-.29296.10547-.39454m4.8125 0l.23047.01954.21875.05468.20703.08985.19922.12109.1836.14844.17187.17578.30078.41797.24219.4961.17968.54687.11328.57812.03516.58985-.03516.59375-.11328.58593-.17968.55078-.2422.50391-.30077.42578-.17188.17969-.1836.15625-.19921.1211-.20703.09374-.21875.05469-.23047.01953-.22656-.01953-.22266-.05469-.20703-.09375-.19531-.1211-.1836-.15624-.17187-.17969-.30078-.42578-.2461-.5039-.17968-.55079-.10938-.58594-.03906-.59375h.83203l.03125.5625.08203.50782.125.4414.16406.375.1875.30079.21094.22265.22266.13672.22656.04688.22656-.04688.22266-.13672.21094-.22265.1914-.30079.16406-.375.125-.4414.08204-.50781.02734-.5625-.02734-.5625-.08203-.5-.125-.4336-.16407-.36719-.1914-.29296-.21094-.21094-.22266-.13281-.22656-.04688-.22656.04688-.22266.1328-.21094.21094-.1875.29297-.16406.3672-.125.43358-.08203.5-.03125.5625h-.83203l.03906-.58984.10938-.57812.17968-.54688.2461-.4961.30078-.41796.17187-.17578.1836-.14844.19531-.1211.20703-.08984.22266-.05469.22656-.01953m5.09375 0h.50781v6.29297h-.78515v-4.48828h-1.39063v-.55469l.5586-.0664.2539-.05469.23047-.08984.20313-.14063.17187-.21094.14453-.29296.10547-.39454m2.82031 2.17579h.78906l.01954-.31641.05859-.28906.09766-.25.14062-.21485.1836-.17578.22265-.1289.26563-.08204.30859-.02734.23828.02344.22266.0625.20312.10156.17969.13672.14844.17578.11328.20313.07031.23828.02734.26562-.02343.26563-.0664.22656-.10938.1914-.15625.17188-.19922.16016-.2461.16796-.63672.38672-.53515.31641-.4375.3164-.34766.32423-.26172.33593-.1914.35156-.125.3672-.07031.39452-.01954.41797h4.21094v-.73828H230l.08203-.28515.11328-.23829.14844-.19921.1875-.1797.23047-.17187.28125-.17578.71484-.41797.41797-.20703.34375-.23047.28125-.25.21875-.26562.16406-.28125.11328-.28125.0625-.28516.01954-.28125-.04297-.38281-.11719-.34766-.1914-.3086-.25-.26171-.30079-.21484-.34765-.15625-.37891-.10157-.40625-.03125-.4375.03125-.39844.09766-.35156.16797-.30469.23437-.25.3047-.1875.375-.11328.4453-.04297.51954"/><path fill="#ffffe0" fill-rule="evenodd" d="M204.15625 336.35938h22.17969v-10.19532h-22.17969v10.19531"/><path fill-rule="evenodd" d="M207.65234 328h.51172v6.29297h-.78906v-4.48828h-1.38672V329.25l.5586-.0664.2539-.0547.23047-.08984.20313-.14062.17187-.21094.14063-.29297.10546-.39453m4.81641 0l.23047.01563.21875.05859.20703.08984.19531.1211.1836.14843.17187.17579.30078.41796.2461.4961.17968.54297.10938.58203.03906.58984-.03906.59375-.10938.58203-.17968.55469-.2461.5039-.30078.42579-.17187.17969-.1836.15625-.19531.12109-.20703.09375-.21875.05469-.23047.01953-.23047-.01953-.21875-.0547-.20703-.09374-.19531-.1211-.1875-.15625-.16797-.17968-.30469-.42578-.24219-.50391-.17968-.55469-.11328-.58203-.03516-.59375h.83203l.02734.5625.08203.50781.125.44141.16407.375.1914.30078.21094.22266.22266.13672.22656.04687.22656-.04687.22266-.13672.21094-.22266.1914-.30078.16016-.375.125-.4414.08203-.50782.03125-.5625-.03125-.5625-.08203-.5-.125-.4336-.16016-.36718-.1914-.29297-.21094-.21484-.22266-.1289-.22656-.04688-.22656.04687-.22266.1289-.21094.21485-.1914.29297-.16406.36719-.125.4336-.08204.5-.02734.5625h-.83203l.03516-.58985.11328-.58203.17968-.54297.2422-.4961.30468-.41796.16797-.17579.1875-.14843.19531-.1211.20703-.08984.21875-.0586.23047-.01562m5.08984 0h.51172v6.29297h-.78906v-4.48828h-1.38672V329.25l.5586-.0664.2539-.0547.22656-.08984.20313-.14062.17578-.21094.14063-.29297.10546-.39453m6.8047 1.61719h-.78517l-.05468-.21094-.07813-.1875-.10937-.15625-.1289-.13281-.14845-.10156-.16015-.07422-.16797-.04688-.17188-.01562-.32812.04296-.28516.1172-.2461.19921-.20702.26563-.16016.33984-.11328.40234-.07031.46875-.02344.52735.1875-.20313.1875-.16015.1836-.1211.1875-.08984.1875-.0586.1914-.03906.40234-.02344.3047.03125.3203.08985.31641.15625.29688.21875.2539.28515.19922.35157.07422.19922.05078.21875.02734.23437.00782.25-.78907.04688-.02734-.25782-.07813-.25-.12109-.23437-.16016-.21094-.1953-.17969-.21876-.13671-.23828-.08594-.25781-.03125-.2539.03125-.23829.08594-.22266.13671-.1914.1797-.16016.21093-.125.23437-.07422.25-.02734.25782.02734.2578.07422.25392.125.23437.16016.20703.1914.17969.22266.13672.23828.08984.2539.03125.25782-.03125.23828-.08984.21875-.13672.19531-.17969.16016-.20703.1211-.23438.07812-.2539.02734-.25781.78907-.04688-.03125.3711-.09375.37109-.15625.35937-.22266.32813-.28906.28125-.17188.1211-.1875.10156-.20703.08203-.22266.0625-.24218.03906-.26172.01172-.28125-.01563-.26172-.04687-.23828-.07422-.21484-.10547-.19532-.13281-.17187-.15625-.15625-.17969-.13281-.20313-.1172-.22265-.09765-.24219-.14844-.53515-.08593-.59375-.02735-.63672.03906-.7461.11329-.66406.1875-.57422.12109-.25781.13672-.23047.15234-.20703.17188-.17969.1836-.15625.20312-.1289.21875-.10157.23437-.07422.2461-.04687.26171-.01172.3672.03125.33202.09766.29297.14843.25781.20313.21094.23828.16406.27734.1172.30079.0625.3203"/></g></defs><use xlink:href="#ao"/></svg>