<svg xmlns="http://www.w3.org/2000/svg" role="img" xmlns:xlink="http://www.w3.org/1999/xlink" viewBox="142.45 309.95 326.84 171.84"><defs><clipPath id="a"><path d="M144 447h1v33.32813h-1zm0 0"/></clipPath><clipPath id="b"><path d="M144 311.67188h1V435h-1zm0 0"/></clipPath><clipPath id="c"><path d="M144 311.67188h324v168.65625H144zm0 0"/></clipPath><clipPath id="d"><path d="M390 477h6v3.32813h-6zm0 0"/></clipPath><clipPath id="e"><path d="M467 311.67188h1v168.65625h-1zm0 0"/></clipPath><clipPath id="f"><path d="M144 479h4v1.32813h-4zm0 0"/></clipPath><clipPath id="g"><path d="M147 479h3v1.32813h-3zm0 0"/></clipPath><clipPath id="h"><path d="M153 479h9v1.32813h-9zm0 0"/></clipPath><clipPath id="i"><path d="M160 479h3v1.32813h-3zm0 0"/></clipPath><clipPath id="j"><path d="M166 480h9v.32813h-9zm0 0"/></clipPath><clipPath id="k"><path d="M173 480h3v.32813h-3zm0 0"/></clipPath><clipPath id="l"><path d="M180 479h8v1.32813h-8zm0 0"/></clipPath><clipPath id="m"><path d="M186 480h2v.32813h-2zm0 0"/></clipPath><clipPath id="n"><path d="M193 479h8v1.32813h-8zm0 0"/></clipPath><clipPath id="o"><path d="M199 480h2v.32813h-2zm0 0"/></clipPath><clipPath id="p"><path d="M206 479h9v1.32813h-9zm0 0"/></clipPath><clipPath id="q"><path d="M212 480h2v.32813h-2zm0 0"/></clipPath><clipPath id="r"><path d="M220 479h8v1.32813h-8zm0 0"/></clipPath><clipPath id="s"><path d="M226 480h2v.32813h-2zm0 0"/></clipPath><clipPath id="t"><path d="M233 479h8v1.32813h-8zm0 0"/></clipPath><clipPath id="u"><path d="M239 480h2v.32813h-2zm0 0"/></clipPath><clipPath id="v"><path d="M246 479h9v1.32813h-9zm0 0"/></clipPath><clipPath id="w"><path d="M260 478h8v2.32813h-8zm0 0"/></clipPath><clipPath id="x"><path d="M273 478h8v2.32813h-8zm0 0"/></clipPath><clipPath id="y"><path d="M287 478h7v2.32813h-7zm0 0"/></clipPath><clipPath id="z"><path d="M300 477h7v3.32813h-7zm0 0"/></clipPath><clipPath id="A"><path d="M313 478h8v2.32813h-8zm0 0"/></clipPath><clipPath id="B"><path d="M327 478h7v2.32813h-7zm0 0"/></clipPath><clipPath id="C"><path d="M340 478h8v2.32813h-8zm0 0"/></clipPath><clipPath id="D"><path d="M353 479h8v1.32813h-8zm0 0"/></clipPath><clipPath id="E"><path d="M366 479h9v1.32813h-9zm0 0"/></clipPath><clipPath id="F"><path d="M379 479h9v1.32813h-9zm0 0"/></clipPath><clipPath id="G"><path d="M378 478h3v2.32813h-3zm0 0"/></clipPath><clipPath id="H"><path d="M393 479h8v1.32813h-8zm0 0"/></clipPath><clipPath id="I"><path d="M391 478h3v2.32813h-3zm0 0"/></clipPath><clipPath id="J"><path d="M392 478h3v2.32813h-3zm0 0"/></clipPath><clipPath id="K"><path d="M406 479h8v1.32813h-8zm0 0"/></clipPath><clipPath id="L"><path d="M404 479h4v1.32813h-4zm0 0"/></clipPath><clipPath id="M"><path d="M406 479h3v1.32813h-3zm0 0"/></clipPath><clipPath id="N"><path d="M423 476h1v4.32813h-1zm0 0"/></clipPath><clipPath id="O"><path d="M434 477h6v3.32813h-6zm0 0"/></clipPath><clipPath id="P"><path d="M447 477h7v3.32813h-7zm0 0"/></clipPath><clipPath id="Q"><path d="M460 478h7v2.32813h-7zm0 0"/></clipPath><clipPath id="R"><path d="M144 466h4v2h-4zm0 0"/></clipPath><clipPath id="S"><path d="M144 452h4v3h-4zm0 0"/></clipPath><clipPath id="T"><path d="M144 440h4v1h-4zm0 0"/></clipPath><clipPath id="U"><path d="M144 426h4v2h-4zm0 0"/></clipPath><clipPath id="V"><path d="M465 424h3v1h-3zm0 0"/></clipPath><clipPath id="W"><path d="M144 411h4v5h-4zm0 0"/></clipPath><clipPath id="X"><path d="M465 410h3v2h-3zm0 0"/></clipPath><clipPath id="Y"><path d="M144 397h3v6h-3zm0 0"/></clipPath><clipPath id="Z"><path d="M465 397h3v3h-3zm0 0"/></clipPath><clipPath id="aa"><path d="M144 385h4v4h-4zm0 0"/></clipPath><clipPath id="ab"><path d="M465 384h3v2h-3zm0 0"/></clipPath><clipPath id="ac"><path d="M144 370h2v8h-2zm0 0"/></clipPath><clipPath id="ad"><path d="M144 356h1v9h-1zm0 0"/></clipPath><clipPath id="ae"><path d="M144 344h4v6h-4zm0 0"/></clipPath><clipPath id="af"><path d="M144 331h4v6h-4zm0 0"/></clipPath><clipPath id="ag"><path d="M466 332h2v4h-2zm0 0"/></clipPath><clipPath id="ah"><path d="M144 318h4v5h-4zm0 0"/></clipPath><clipPath id="ai"><path d="M466 319h2v3h-2zm0 0"/></clipPath><g id="aj" clip-path="url(#clip1)"><path fill="#fff" fill-opacity="0" fill-rule="evenodd" d="M0 0h1000v1000H0zm0 0"/><path fill="#d3d3d3" fill-opacity="0" fill-rule="evenodd" d="M162.15234 355.86719l-.23437.29297.0586.23437.11718.17188.17578.23437.29297.34766.11328.0586.11719-.17188.0586-.23438.17577-.17578.46485-.17578h.69922l.23437.29297.28906.8164.0586.17579.17578.23046.35156.23438.69922.69922.17188.17578.23437.34765.23438.41016.28906.58203.41015.46485.23047.23437.23438.17578.11719.23047.17578.29297.17187 1.16406v.23438l.0586.28906.05859.11719.11719.11719.34765.41015.11719.17188.17578.17578.17578.23437.11719.17188.17188.35156.05859.23438.23437.40625.23438-.0586-.17578.17578-.0586.92969h-.58203l-.23437-.11328-.34766.11328-.11719.11719-.05859.29297-.0586.17578-.11718.17187-.46484.29297-.0586.23438-.0586.11328v.64453l.0586.17187v.41016l.0586.0586v.40624l.05859.40625.11719.17579.05859.05859.23047.64062-.0586.29297v.69922l-.05859.58203v.23438l-.0586.23047-.05468.35156v1.92187l.05469.1172h.42578l-.36719.11718-.02344.35156.89063 1.16797 1.74219.53906 1.33984.35938v.53906l.08984.8086.53516.71484 1.51953.26953.89063-.08594.08984 1.16406.53516.1797 1.16015-.1797 2.05469-.98437 1.16016-.36328 1.8789-.17578 1.69531-.1797-.17968.71876-1.51563.08594-1.25.08984-.80469.26953-1.07421.8086.26953.71875.53515.89843-.17968.625-.26563.8086.26563 1.07812.625.89844.80468.17969 1.25-.1797-.26562.72267.09766.5039.05468.29297v.17188l.0586.29296v.40625l.17578.1172.35156.11718h.40625l.29297-.17578.11328-.11719.0586-.11719.11718-.23047.0586-.17578.35156-.46484.23047-.17578.17578-.0586.17578.0586.0586.17578.11718.98828.05469.46875.0586.17188.11718.23437.17578.0586.8164.05859h.28907l.11719.23437.05859.40625.0586.35156v1.10547l.11718.29297.11719.34766.28906.69922.17578.35156.58203.7539.35157.17579.17187.0586.46875.23437.64063.46484.34765.23438.29297.17578.29297.05468.23047.0625.8164.34766.29297.17578.11328.17188.35157.35156.11719.17578.52343.64063v.28906l.0586.35156v.34766l.05859.35156.0586.28906.11718.0586.17188.05859h.17578l.58203.23437.17578.1172.17578.28905.17578.23438.11328.23437.29297.23047.11719.11719v.41016l.0586.05468.28906.23438.23437.11719.0586.11718.11718.17188.0586.11719.23047.23437.05859.17578.23437.0586.1172.05859-.1172.11328-.05859.11719v.11719l-.11719.29296-.11719.28907v.58203l.17579.11719.11718.05859.0586.11719.11719.11719.11328.05859.17578.34765.0586.35157.05858.40625v.17578l-.05859.17578-.11719.69922v.17187l.1172.17579.29296.29296h.40625l.17578.1172.11719.17187.11719.29296v.23438h-.52735l-.23047-.23438h-.23437l-.17578.0586-.0586.69922.0586.34765.11719.17579.17578.41015.11718.23047.28907.46875.17578.05469h.52344l.23437.0586.75781.64062.0586.29296v.23438l.05859.0586.23047.34765v.35156l-.11719.17188v.29297l.29297.28906.29297.17578.17187.0586.29297.17577.29297.1172.58203.40624.28906.23438.29297.17578.21875.16015.01563.01172.23047.17579.64062.52343.17578.23438.1172.17578.17577.17578.11328.17188v.64062l.1172.17578.46874.11719.58203.11719.23438.05859.23047.11328.29297.11719.11328.0586.58593.35156.28907.17187.17578.0625.17578.05469.17578.0586.69922.35155.28906.17579.23438.05468.28906.17578.23437.1172.64063.40624.29297.11719.17187.0586.23438.05859.41015.05859.23047.0586.23438.11718.0586.17188-.41017.17578.46875.0586.0586.29296.11328.23438.17578.05468.23438.0586.17578.05859.40625.11719.64062.23437.11719.17188.0586.23437v.17578l-.0586.1172-.0586.40624.23438.23438.11719.05859.34766.11719.64062.23047.17578.11718.28906.1172.17578.17577.23438.46485.58203 1.10546.17578.17579.34766.17578.17578.11719.35156.11718 1.04688.52344.23437.0586.46485.11327.29297.0586.46484.17578.75781.58203.23438.23438.34765.46484.17578.17578.28907.23438.8164.69921.29297.17579.28906.28906.29297.17578.29297.28906.69531.64063.17578.17578.29297.23437.28907.23438.46875.28906.64062.58203.34766.23438.23437.29297.34766.34765.35156.46485.9336.99218.34765.40625.11719.17579.23437.05859.11328.11719.64454.17578.23047.11328.23437.0586.29297.17577.23047.1172.9336.69921.40624.40625.23438.17578.40625.17578.23437.11719.8164.34766.34766.23437.23438.11719.29297.28906.23047.11719.7578.35156.35157.17188.23047.05859.29297.11719.23437.0586.8711.17577h.8164l.46875.23047.17188.0586.875.69921.46484.1172.29297.05858.17578.0586.23047.0586.46875.05859.34766.05859.35156.0586.40625.05859h.29297l.17187.0586v.23046l.17578.17578h.29297l.34766.0586.35156.05859.69922.11719h.64063l.46484-.23438.29297-.17578.17187-.11719.41016-.17187.28906-.17578.9336-.46485.46875-.29297.52343-.29296.46485-.17188.46484-.17578 1.05078-.46485.28906-.11718.41016-.11719.28906-.11719.52735-.17578 1.51562-.69922.58203-.34765.28907-.0586.29297-.0586.34765-.11718.875-.23047.35156-.11719h.11329l.23437-.05859.875-.23437.23438-.0586h.8125l.35156-.0586.8164-.11718.17188-.0586.35156-.05468.29297-.0586.23047-.05859.8164-.17578.17579-.0586h.34765l.23438-.05859.46484-.11718.75781-.17188.23438-.0586h.34765l.41016-.11718.28906-.0586 1.28516-.05859h.28906l.41016-.0586.23047-.05858h.17578l.875-.1172h.40625l.41015-.11718h.34766l.35156-.11328.8711-.0586h1.75l1.04687.28907.41016.11719.28906.11718.35156.11719.28907.11719 1.05078.17187.28906.0586h.29297l.29297.05859.17187.0586.41016.05859.17187.0586.1172.05858h.11718l.11719.0586.35156.0586h.11328l.41016.0664 1.92187.39453 1.92578.39453 1.51953.44922 1.69532.71875 2.14453.80469 1.60547-.71875 1.42968-.80469 1.16016-1.07813 1.25-.44921 3.03516-.71875 1.875-.35938 2.14453-1.34765 2.23437-1.25391 2.5-1.25781 1.69531-.44922 1.78516-.17969 1.16016-.26953.625.53906 1.33984-.26953.71485-.98828.98437-1.34375.44531-.17969.80469-.35937 1.875-.53907 1.78516-.44921 1.25-.26954 1.16015-.08984 1.69922-.08984 1.96094-.26954 1.25-.08984h.53906l.625-.08984h.89063l2.14453-.17969 2.41015-.17969 2.58985-.08984 1.69531.17969 1.60938.08984 1.42968.35938 1.16016.71875 1.875.98828 1.16015 1.52734.26563.71484.6289.08985.35548.89844.53515.53906.53516 1.52734 1.07422.35938h.53515l-.80469.53515.08985 1.70703.71484 2.69532.89063.80468.89453.98829.71484 1.2578 1.78516.53907 1.51953-.17969.35547 1.34375 1.60937-.80469.98047-.53906.26953.26953.31641-.21484.21875-.14453.80078.44922.44922-.35938h.35547l.53515-.26953.53907-.71875.53515-.26953.625-.98828 1.16016.44922.83984.3711 1.39454.61718 1.6953-.17969h1.60548l1.78515.08985.17969-1.70704.53516-1.34375.80468.26954.4922.84765.40233.40625-.08984.53906v.35938l.71485.44922.71093-.26953h1.42969l.35938.98828.4453 1.25781.71485 1.34375 1.25.6289 1.69531.62891.71485-.17969.17969-.53906.98046-.08984.44922.35937.08594 1.25782-.26563.6289-.53515.17969v.53906l.71484.98438.26563.53906.98437.98828.80078 1.07813-.26562.35937-.08985.89844-.625 2.33203-.35546 2.0664-.08985 1.79298-.17969.71875-.08984.53906v1.4375l-.98047 1.88281-.35937 1.70703-.53516.89844-.80469 1.16797-.26562.53906 2.05469 1.2539.08593.35938-.35546.53906-.08985-.17968v.80859l.08985 1.4375-.44532.71484-1.07422.09375-.26562.71485.53515.89844.8047.71875 1.16015.80859 1.33984.26953.44531.35938-.35546.44921-1.78907-.08984-1.25-.44922-.71484-.71875-.625-.08984-.17578 3.58984-.1875 1.3086h89.35937V311.70313h-55.26953v49.08203l.76172.125 3.28906.54296 2.02344 2.83594v2.7539l2.35156.33204 2.34766.33203h4.05078l-1.3789 4.16016-2.02344.70703-2.02344.70312-.54297.34375-2.59375 1.6172-.1875.11718-2.02344-2.07813-.73046-2.74218-2.67188-2.07813-1.375-3.5-.0664-.08203-1.95704-2.67188 2.75-1.41796v-49.08204H294.42187v91.41407l.1172.03125.1328.01172.07422.07421.10547.04688.08985.0586.08593.05859.08985.0586.29687.29687.0586.08984.03125.11719.02734.11719.01563.13671-.03125.1172-.0586.08983-.0586.08594-.04296.10547-.04688.10156-.02734.1211v.14453l.17578.26953.14844.14844.07422.08594.07422.07421.04296.10547.0625.08985.0586.08593.04297.10547.0586.08985.04687.10156.04296.10547.0586.08594.11719.17968.07421.07422.0625.08594.0586.08984.04297.10547.0586.08985.05858.08593.0625.08985.0586.08984.04297.10156.11719.17969.07421.07422.0586.08594.07422.07421.08984.0586.10547.04687h.14844l.1328-.01562.13282.01562.10156-.04687.07422-.07422.04688-.10156-.01563-.13281v-.14844l-.04687-.10547-.02735-.11719-.04687-.10156-.02735-.1211-.04296-.10156-.0625-.08984-.04297-.10156-.04297-.10547-.03125-.11719-.01563-.13281-.01171-.13672.08593-.0586.0586-.08593.12109-.03125.04297.10547.01562.1328v.1172l.0586.10156.0586.08984.08983.0586.14844.14843.0586.08985.04296.10547-.01171.10156.08593.0586.10547.04687.08594.0586.08984.05858.07422.07422-.11719.02735-.10546.04687-.08594.0586-.07422.07421-.0586.08985-.0625.08594-.02734.12109-.04687.10156-.04297.10547-.03125.11719-.01172.13281-.01563.13281v.14844l.02735.11719.04687.10547.04297.10156.0586.08984.07421.07422.08985.0586.07422.07421.08984.0586.0586.08984.04296.10547.04688.10156.11719.03125.1328.01563h.14845l.11718-.03125.10547.04297.04297.10547.04688.10156.02734.1211L299.5 410l.02734.11719.03125.1211.02735.11718.10547.04297.10156.04687.13281-.01562.14844.14844.0625.08593.07422.07422.07031.07422.08984.0625.10547.04297.10156.04297.1172.03125.13671.01562.11719-.03125.07422-.07422.02734-.11718-.01172-.13282-.03125-.12109-.02734-.11719.04297-.10547h.11719l.08984.0625.11719.02735h.14843l.13282.01562h.14843l.13282.01563.1328-.01563h.14845l.1328-.01562.13282-.01172.13672.01172.11719-.02735.13281-.01562.1914-.0586-.05859.17579-.01562.1328-.02735.1211-.01562.13281-.0586.08594-.1328.01563-.10548.04687-.10546.04297-.1172.03125-.11718.02735-.26563.03125h-.14843l-.13281.01562-.07422.07422.05859.08594.14844.14843.11719.1797.07421.0703.08985.0625.08984.0586.08594.0586.08984.05858.10156.04297.10547.0625.10547.04297.08594.0586.10547.04687.10156.04297.17969.11719.0586.08984-.04298.10156-.04687.10547.01562.13281.22266.22266.0586.08985.04296.10156.03125.1211.04297.10155.01563.13282.03125.11718.01171.13672.03125.11719.14844.14844.10156.04297.10547.04296.1172.03125.1328.01563.13672.01563h.11719l.11719-.03125.08984-.0586.04297-.10547.04688-.10156.04296-.10547.03125-.11719.01172-.1328v-.14845l-.01172-.1328-.01562-.13282-.03125-.11719-.04297-.10547-.04688-.10547-.04296-.10156-.04297-.10547-.01563-.13281.01563-.13281.02734-.11719.03125-.11719.02735-.1211.04687-.10155.08984-.0586.08594-.0625.07422-.07422.08984-.05859.22266-.22266.0586-.08593.07421-.07422.11719-.17969.0586-.08594v-.14844l-.07423-.07421-.10156-.04688-.10547-.04297-.10156-.04297-.0586-.08984-.04687-.10547-.02734-.11719.08984-.05859.11719-.03125.10156-.04297.17969-.11719.14844-.14843.01172-.13282-.01172-.10546-.08985-.0586-.1328.01563h-.14845l-.1328.01562-.13282-.01562-.1211-.03125-.08593-.0586-.07422-.07422-.0586-.08984-.0625-.08594-.11718-.17969-.0586-.08593.03125-.1211.08594-.05859.1211-.03125.05859-.08594v-.1211l-.03125-.11718-.0586-.08984-.05859-.08594-.04687-.10547-.02735-.11719-.01562-.1328.0586-.08985.07421-.07422.08984-.0586.1172-.17968.07421-.07422.0586-.08594.14843-.14844.1211-.03125.1328-.01562.13282.01562.07422.07422.04297.10547.01562.13281-.03125.1172-.11719.03124-.1328.01172-.14844.14844-.04297.10547-.04688.10156-.02734.1211-.03125.11718v.14844l.03125.11719.04297.10546.05859.08985.07422.07031.07422.07422.11719.03125.12109.02734.11719-.02734.1328-.01563h.1172l.08984.0586.07422.07422.04687.10546.0586.08594.10156.04688.13281.01562.10547.04297.08594.0586-.01172.10546-.07422.07422-.17969.11719-.05859.08984-.08984.0586-.07032.07422-.07421.07421-.0625.08985-.02735.11719-.01562.1328.01562.13282-.01562.13281v.14844l.01562.13281.02735.1172.03125.12108.07421.07422.08985.0586.08594.0586.08984.05858.11719.03125v.08594l-.10157.04688-.08984.0586-.26563.03124-.11718.02735h-.14844l-.10547.04296-.10156.04688-.0586.08984-.0625.23438-.01171.13281-.03125.1211-.01563.1328v.29298l-.01172.1328.01172.13673.01563.1328.1328.01563.13282.01172.1211.03125.08593.0586.07422.07421.04688.10547.04296.10157.01563.1328v.44532l-.01563.13281v.44532l.03125.26562.02735.11719.01562.13281.03125.11719.08594.21094.03125.26562v.14844l-.03125.11719-.02734.11718-.03125.1211-.02735.11719-.03125.11718-.03125.1211-.01171.1328-.01563.13282.08984.0586.1172-.03125.10155.01562.04688.10547-.03125.26562v.44141l-.04297.10547-.04688.10547-.04296.10156-.04297.10547-.0586.08594-.03125.12109-.04296.11719-.03125.11719-.01563.1328.01563.13282.05859.08984.10547.04688.08594.0586.05859.08593-.01172.13672-.03125.11719-.04297.10156v.44531l-.01562.13281v.14844l-.03125.11719-.04297.10547-.02735.11719-.04687.10546-.04297.10157-.03125.12109-.02734.11719-.03125.13281-.03125.11719-.02735.11719-.04297.10546-.03125.1172-.03125.12108-.01171.13282-.01563.13281v.29688l.02734.11718v.14844l.04688.39844.02734.11719.0586.08984.12109.03125h.14844l.13281-.01563.0586.08985v.11719l-.0586.08984-.08984.0586-.10157.04296-.10546.04688-.08985.05859-.08594.0586-.13671.01562-.1172-.03125-.1328-.01563-.10157.04688-.0625.08594-.01172.13671-.01562.13282-.03125.11719-.02735.11718-.01562.13281-.03125.1211v.29687l.01563.13282.03125.11718v.14844l.01171.13281v.14844l-.02734.11719-.04688.10156-.02734.1211-.03125.11718-.0586.08985-.07421.07421-.10156.04297-.10547.04688-.11719.02734-.1211.03125-.10156-.04687.0586-.08594.10547-.04688.02734-.11718.03125-.11719.02734-.1211.03125-.11718v-.14844l.01563-.13281-.03125-.11719-.04297-.10547-.10547.01563-.07422.07422-.10156.04296-.08984.0625-.07422.07422-.04297.10157-.01563.1328-.03125.1172L304.25 426l-.03125.11719-.02734.11719-.03125.12109-.02735.11719-.03125.11718-.04297.10547-.08984.0586h-.08984l-.1172-.03125-.03124-.08594.01562-.13672-.03125-.11719v-.14844l-.01171-.1328v-.14844l-.0625-.23438-.02735-.1211-.04297-.10156-.04687-.10546-.0586-.08594-.05859-.08985-.04297-.10546-.0625-.08594-.14844-.14844-.0703-.07422-.10548-.04687-.10547-.04297-.10156-.04297-.29687-.29688-.08985-.07421-.08594-.0586-.10546-.04297-.08985-.0625-.08594-.0586-.10546-.04296-.08985-.0586-.08594-.0625-.07421-.0703-.10547-.04688-.08594-.0586-.10547-.04296-.08984-.0625-.10156-.04297-.10547-.04297-.08594-.0586-.10547-.04687-.10547-.04297-.10156-.04687-.08985-.0586-.10156-.04297-.10547-.04296-.08984-.0625-.11719-.02735-.13281-.01562-.13281.01562H299.75l-.13281.01563-.11719-.03125-.08984-.0586-.07422-.07422-.08985-.05859-.10156-.04688h-.14844l-.12109-.02734-.10156-.04297-.07422-.07422-.11719-.17968-.08984-.0586-.10156-.04297-.08985-.0625-.10547-.04296-.08984-.0586-.08594-.0586-.10547-.04687-.0586-.08594-.05858-.08984-.04297-.10547-.04688-.10156-.07422-.07422-.08594-.0586-.07421-.07421-.08985-.0586-.22265-.22265-.04297-.10547-.03125-.26563.10547-.04296h.14453l.10547.04296.07421.07422.08985.0586.08594.0586.10546.04687.08985.05859.14844.14844.0703.07422.14845.14843.0625.08594.07421.07422.08594.0586.07422.07421.08985.0625.08984.0586.08594.05859.26953.17578.10156.04688.10547.04296.10156.04297.04688-.07421.05859-.08594.07422-.07422.07031-.07422.10547.04297.07422.07422.0586.08984.04296.10156.04688.10547.04296.10547.1211.02735.11719-.02735.07421-.08984.04297-.10547.0586-.08985.07422-.07421.10546-.04297.1172-.02735.1328.01172.08985.0586.14844.14843.05859.08985.04297.10547.04687.10156.04297.10547.04297.10156.10547.04688.10547.04296.13281.01563.08594-.0586.0586-.08984.07421-.07422.10547-.04297.11719.02735.10547.04687.10156.04297.10547.04297.10156.04688.17969.11718v.11719l-.01563.13281.01563.13281.01562.13672.0586.08594.10156.04688.1211.02734.11718.03125h.14844l.11719-.03125.05859-.08984.17969-.1172.05859-.08983.07422-.07422.0586-.08594.11718-.17969.17969-.11719.11719.03125.08984.0586.04297.07422-.01563.1328v.1172l.08985.05859h.14843l.13282-.01563.1328-.01171.26563-.03125.10547-.04297.11719-.03125.1211-.02735.07421-.07421.07031-.07422.0625-.08985-.01562-.10547-.04688-.10156-.10156-.04297-.10547-.01562-.11718.02734-.26563.03125h-.14844l-.07421-.07422-.08985-.0586-.11719-.03124-.11718-.02735-.13282-.01562h-.14843l-.13282.01563h-.29687l-.10547-.04688-.14844-.14844-.04297-.10156-.05859-.08984.22266-.22266.08593-.0586.10547-.04296.11719-.03125.13281-.01563.13281.01563.13672.01562.10157.04297.1328-.01172.08985-.0625.10156-.04297.0625-.08984-.04687-.10156-.08984-.0586-.1172-.03125-.10155-.04296-.0586-.08985-.0625-.08984v-.11719l.01563-.13281.10547-.04688.07421-.07031v-.1211l-.08984-.05859-.03125-.11719.08985-.05859.07421-.07422.04297-.10547.0586-.08984.04687-.10156.01563-.13281v-.14844l-.04688-.10547-.04297-.10156-.08984-.0586-.13281-.01562-.10157-.04297-.13671-.01563-.1172-.03125h-.4453l-.13282-.01562-.13281-.01172-.13281-.01563-.11719-.03125h-.14844l-.13281-.01562-.13281-.01172-.26563-.03125-.1211-.04297-.08593-.0586-.07422-.07421v-.14844l.01172-.13281.10547-.04688.10156-.04296.13281-.01563h.15235l.13281-.01562h.29297l.1211.03125.10156.04296.08984.0586.23438.0625.12109-.04688.08984-.05859.10156-.04297.13282-.01562.10547.04296.10156.04688.13281.01172.1211-.02735h.14453l.12109-.03125.11719-.02734.10547-.04687.07421-.07422.08594-.0586.14844-.14843.0586-.08594.04687-.10547.02734-.11719.01563-.10547-.10156-.04296-.08985-.0586-.11719-.03125-.10546-.04297-.08985-.0625-.07422-.08594-.07422-.07421-.10156-.04297-.10547-.04688-.10156-.04297-.0586-.08984-.04687-.10156-.08594-.21094-.0625-.08594-.05859-.08984-.07422-.07422-.08594-.0586h-.26953l-.11719.03126-.08984.05859-.10156.04297-.13281.01562-.10547-.01562-.02735-.11719-.0625-.08984-.11718-.03125-.10157-.04297-.14843-.14844-.03125-.11719-.01563-.10546.07422-.07422.17969-.1172.11719-.02733.11718-.03125.13672.01562.10156.04297.10547.04297.10156.04687.10547.04297.1172.03125.1328.01563.1172.02734.1328.01563.10547-.01563.08985-.0586-.07422-.07421-.10547-.04297-.07422-.07422-.07422-.08984-.14844-.14844-.08593-.0586-.08985-.05859-.07422-.07422-.08984-.0586-.10156-.04687-.1211-.02734-.10156-.04688-.10547-.04296-.11719-.03125-.10156-.04297-.1211-.03125h-.14843l-.11719.03125-.10546.04297-.08594.0625-.17969.11718-.08594.0586-.08984.0586-.10547.04687-.08594.05859-.10547.04297-.10156.04297-.10547.04687-.07422.07422-.05859.08985-.0586.08593-.04687.10547-.0586.08594-.07421.07422-.13281-.01172-.1172-.03125h-.11718l-.07422.07422-.08984.0586-.07422.07421-.08984.0586-.08594.05859-.10547.04687-.10156.04297-.13672.01563-.10156-.04297-.14844-.14844-.10547-.04688h-.08594l-.10547.04688-.10156.04297-.1211.03125-.11718-.03125-.07422-.07422v-.11719l.03125-.1211.07422-.0703.0586-.08985.07421-.07422.11719-.03125.10547-.04296h.29297l.13281-.01563.13672-.01563.10156-.04296.08985-.0586.10156-.04687.08984-.0586.13281-.01171.08985.05859.13281.01172.08984-.0586.08594-.05859.10547-.04297.08984-.0586.08594-.0625.08985-.05859.14843-.14843.0586-.08594.05859-.08985.10547-.04296.13281-.01563.11719.02735.1211.03125.05859-.0586.05859-.08984.03125-.26563.02734-.11719.10547.01172.13281.01563.10157-.04297.08984-.0586.0586-.08984.07421-.07422.0586-.08984.04687-.10156.01172-.13281-.01172-.13282-.04687-.10547-.14844-.14843-.0586-.08985-.05859-.08594-.04297-.10546v-.44532l.01563-.1328v-.14845l.01172-.1328-.0586-.0586-.08984.0586-.10156-.04298-.17969-.11719-.08594-.05859-.0625-.08984-.0586-.08985-.07421-.07421-.08594-.0586-.1211.03125-.10155.01172-.10547.04688-.08594.05859-.10547.04297-.14844.14844-.08984.05859-.08594.0586-.08984.0625-.10547.04296-.13281.01563v-.1211l.10547-.04297.11718-.03125.07422-.0703.04297-.10548v-.14844l-.02734-.11718-.14844-.14844-.13281-.01563h-.14844l-.11719.03125-.10547.04297-.10156.04297-.08984.0625-.11719.02735-.07422-.07422.01172-.13281-.04297-.10157-.04297-.10547-.08984-.05859-.11719.02734-.1211.03125-.11718.03125-.10156.04297-.1211.03125-.10156.04297-.10547.04297-.08984.0586-.10156.01562v-.11719l.01562-.13281-.0586-.08985-.07421.04297-.14844.14844-.0586.08985-.07421.07421-.04688.10547-.04296.10156-.07422.07422-.0586.08985-.07422.07422-.05859.08593-.07422.07422-.08984.0625-.07422.07031-.07422.07422-.10156.01563-.13281.01562-.10547-.04296v-.1211l.14843-.14844.04297-.10156.0586-.08984.04687-.10156.04297-.10547.0586-.08985.03124-.11719.04297-.10156.03125-.1211.02735-.11718.04687-.10547.04297-.10156.04297-.10547.07422-.07031.08984-.0625.08985-.0586.10156-.04296h.29687l.26563-.03125.10547-.04297-.07422-.07422-.11719-.03125-.10547-.04297-.08984-.0586-.10156-.04687-.08985-.0586-.10156-.04296-.10547-.04297-.08984-.0625-.08594-.0586-.10547-.04296-.10156-.04297-.1211-.03125-.11718-.03125-.10157-.04297L297.5 410.25l-.10156-.04297-.08985-.0586-.04296-.10546-.01563-.13281.10156-.04297.13281-.01563.13672.01563.13282-.01563.10156-.04297.0586-.08984.01562-.10547-.08985-.0586-.07421-.07421-.10157-.04297-.08984-.0586-.14844-.14843-.04297-.10547-.01562-.13281v-.29297l-.0586-.08985-.08984-.05859-.07422-.07422-.04297-.10547-.03125-.11718-.0586-.08985-.07421-.07422-.11719-.02734-.07422-.07422-.08984-.0586-.08984-.0625-.08594-.05859-.07422-.07421-.0586-.08594-.04687-.10547-.08594-.0586-.14843-.14843-.19532-.0586-.1328.01563-.10157.04297-.07422.07422-.04688.10156-.04296.10547-.0586.08984-.0586.08594-.29687.29687-.08984.0586h-.08594l-.0625-.08594-.04297-.10547.03125-.11719.0586-.08984.02734-.11719-.01172-.13281-.08984-.0625-.10547.04688-.11719.02734-.11719.03125-.26953.17578-.10156.04688-.11719.02734-.10546.04687-.08985.0586-.10156.04297-.0586-.08594-.04687-.10547.01563-.13281.04687-.10547.07031-.07422.07422-.07031.0586-.08985v-.14843l-.04297-.10547h-.23829l-.10156.04687-.03125.11719-.02734.11719-.03125.1211-.07422.04296-.13281.01563-.07422-.04688-.04297-.10156-.04297-.10547-.04687-.10156-.04297-.10547-.1211.03125-.10156.04297-.13281.01562-.11719.03125-.10547.04297-.08984.0586-.10156.04687-.1211.02734-.13281.01563-.10156-.04297-.0586-.08985-.04687-.10546-.04297-.10157-.04297-.10546v-.1172l.0586-.08984.08593-.05859.17969-.11719.10156-.04687.10547-.04297.10547-.0586.10156-.04296.08985-.0625.10156-.04297.10547-.0586.10156-.04687.08984-.0586.10547-.04296.10156-.04297.08985-.0625.10156-.04297.13672-.01563.11719.03125.10156.04297.1211.03125.10156.04297.10546.04688.10157.04296.10547.04297.10156.04688.10547.04297.10156.04297.10547.04687.08594.0586.10546.04296.1172.03125.10546.04297.10156.04688.08985.0586.10547.04296.10156.04297.10547.04687.11719.02735.10156.04687.1211.02735h.14843l.08594-.0586.01562-.10156.0586-.08984-.02735-.1172-.07422-.07421-.11719-.17969-.07421-.07422-.08985-.07421-.17969-.1172-.08593-.05859-.10547-.04296-.10156-.04688-.26954-.17578-.05859-.08985-.07422-.07421-.0586-.08985-.04296-.10156-.03125-.11719-.01563-.13672v-.5625l-.01171-.1328-.01563-.13282-.03125-.11719-.01562-.13281-.01172-.13281-.03125-.1211-.22266-.22265-.0586-.08594-.01562-.10547.03125-.11719.13281-.01562v-91.41406H172.9922v1.45312l-.0586.23438-.35156 1.05078-.17187.52343-.1172.34766-.17577.41016-.11719.17187-.23438.29297-.23046.0586h-.35157l-.11718.05859-.23047.40625v.29297l.11719.17578.23046.23047.1172.23437.64062.75781.29297.46485.17578.23437.23047.35156.23437.34766.64063.8164.17578.46485.17187.41016.11719.69531.17578.46875.11719 1.39844.0586.46484v.875l.11718 1.04688v4.78125l-.0586.46484-.35156 1.28125-.17578.52344-.11328.41015-.35156.9297L172.93359 336l-.23437.58203-.11719.17578-.17187.34766-.17578.40625-.35157.8164-.0586.29297-.11327.29297-.11719.28906-.0586.17579-.11718.875-.0586.40625-.05859.11718-.0586.17579-.05859.17187-.23047.52734-.11718.17188v.23437l-.11719.23438-.0586.17187-.17577.58594v.28906l-.0586.17579v.29296l-.0586.11329-.05859.52734v.17187l-.05468.23438v2.6211l-.17578.8164-.1172.17578-.17577.23438-.1172.17187-.11327.23438-.58594.93359-.23047.28906-.29297.46485-.17578.23437-.28906.35156-.35156.69922-.11328.23047-.17579.41016-.17578.23046-.40625.52735-.8164.69922-.29297.17187-.28906.23438-.17579.11719-.17578.17578-.52344.40625-.52734.17578-.17187.17578-.23438.05469-.64062.17578h-.75782m12.21094 31.02344l-1.07422.44921.35938.89454 1.25-.71485.44531-.53906-.98047-.08985"/><path fill="#d3d3d3" fill-opacity="0" fill-rule="evenodd" d="M201.50781 416.59766h-.89453l.44922.6289.98047.35938.80469-.08985.4453-.98828-.17577.08985-.71485-.35547-.89453.35547m154.6211 59.0703l-.0586-.52343v-.29297l.11328-.29297.0586-.23046.46875-.46875h.11328l.11719-.11329.11718-.05859h.17579l.23437-.0586h.34766l.23437.0586.11719.0586.23047.17187.0586.17578.11718.58203v.29297l-.11719.17578-.17187.28906-.17579.17579-.52734.52343-.23047.23438-.11719.0586h-.17578l-.11718-.0586-.40625-.29297-.17579-.11719-.11718-.0586-.0586-.11327-.05468-.1172m6.64062-10.95702l-.0586-.17188v-1.10937l.0586-.17188.17578-.0586.17188-.05858h.17578l.23437-.0586.1172.0586.05858.69921-.05859.17188-.11719.17578-.11718.0586-.23438.52343-.11328.0586h-.23438l-.05859-.1172m9.61328-14.39062l-.11719-.17578v-.69922l.29297-.875.1172-.17187.17577-.35156.11328-.23047.1172-.29297.35155-.75781.1172-.23047.17187-.23438h.17578l.11719-.0586h.64062l.11719.0586.23437.23438.17188.11328.35156.29297.11719.11718.11328.17579v.11328l.11719.05859.11718.11719v.69922l-.05859.17578v.23047l-.0586.17578-.34765 1.05078-.11719.23047-.11719.23437-.11718.0586-.23047.23437-.64063.28906h-.875l-.41015-.11718-.64063-.46485"/><path fill="none" stroke="#bebebe" stroke-linecap="round" stroke-linejoin="round" stroke-miterlimit="10" stroke-width=".5" d="M467.95703 311.69531H144.02734v168.625h323.9297v-168.625"/><g clip-path="url(#a)"><path fill="#fff" fill-opacity="0" fill-rule="evenodd" d="M144 475.89063v4.4375h.0039H144v-33.03907 28.60156"/></g><g clip-path="url(#b)"><path fill="#fff" fill-opacity="0" fill-rule="evenodd" d="M144 431.50781v3.42188-123.25781h.0039H144V431.5078"/></g><path fill="#50fcfc" fill-rule="evenodd" d="M144 443.80078v3.48828l.0039-.0039v-3.48829l-.0039.00391"/><path fill="#00e8fc" fill-rule="evenodd" d="M144 438.1289v5.67188l.0039-.0039v-5.66407l-.0039-.0039"/><path fill="#50fcfc" fill-rule="evenodd" d="M144 434.92969v3.19922l.0039.0039v-3.19922l-.0039-.0039"/><g clip-path="url(#c)"><path fill="#fff" fill-opacity="0" fill-rule="evenodd" d="M144.0039 480.32813v-33.04297l2.5625-2.46485.94923-4.4375-2.48438-4.4375-1.02734-1.01172V311.67188h146.46093v107.24218l-3.89453 3.71485-.54297 3.82812-4.4375-2.30469-4.4375.07422-4.4414.53516-2.01953 2.3086-1.91016 4.4375 3.92969 3.72265 4.4414-.00781 1.12891.72265 1.79297 4.4375-1.79297 4.4375-1.1289 1.01953-.82032-1.01953-3.6211-3.45312-.73437-.98438-3.70312-2.875-3.96485 2.875-.47265 4.4375v.0039-.0039l-4.4375-3.96484-4.4414.48047-4.4375 1.63672-.12892-2.58985.12891-2.32031 4.4375 1.32422 4.4414.6836 3.89063-4.125-3.89062-4.0586-4.4414 1.4336-4.4375.6328-1.4297-2.4453-3.0078-2.9922-4.4375-.5-4.4375-.125-4.44142-.46093-1.45312-.35938-2.98438-2.58984-4.4375-.3789-4.4375-1.44532-4.4375 1.85938-4.4414-.76172-4.4375-.28907-3.03516-.83593-1.40234-1.33204-4.4375-1.40234-4.4414-.44922-4.4375 1.33594-3.08985 1.84766-1.34766.48828-4.4375 1.65625-3.47656 2.29687-.96484.30469-4.4375 1.63281-4.4375 1.5039-1 .9961-3.4375 1.66797-2.96485 2.76953-1.47265 4.09375-.5625.34375.5625 1.09375.29687 3.34375.85938 4.4414 1.6914 4.4375-.36719 4.4375.64844 4.4375 1.3086 1.3047 4.4375-.96485 4.4375-.25 4.4375 1.42578 2.99218-1.51562 1.44922-.49219 4.4375-.07812 4.4375.16015 4.4375.35938 4.4414-.35156 4.4375.05078 4.4375.23046 1.45313.1211 2.98438.76172 4.4414 1.23828 4.4375-.01172 4.4375.78125 4.4375.15625 4.4375-.28906 4.35157-2.63672.08984-.01953 4.4375-.47656 4.4375-.34766 4.4375.05469 4.4375-.54688 4.4414.04688 4.4375-.06641 4.4375-1.89453 3.73829-1.1875.69922-.20313 1.34765.20313 3.09375.58594 4.4375-.05079.64454-.53515 3.79296-2.0664 3.3125-2.3711 1.125-1.48438 2.25782-2.95312-.88672-4.4414-1.3711-.35157-4.4375-.95313-3.5-3.1328 3.5-.72657 4.4375-.3789 3.16016-3.33204 1.27734-1.85937 4.44141.03125 4.4375-.70703 1.82422-1.90235.76953-4.4375-2.59375-3.50781-4.4375-.85938-.44531-.07421-3.9961-2.20704-4.4375-1.5078v-107.2422h22.19141v136.6172l-4.4375.60156-.46484.37109.46484.35937 4.4375-.17968 2.0664-.1797-2.0664-.97265V311.67187h35.50781v120.67579l-3.35547 3.59765 3.35547 3.21485 1.35156 1.22265 3.08594 3.0039 4.4414-.40624 4.01954-2.59766-4.01953-2.95703-3.28125-1.48047-1.16016-.9375-4.4375-2.66015V311.67187h13.3164v139.97266l-4.4375.82813-2.46093 1.22656 2.46094 1.04297 4.4375-.28125 1.80078 3.67578 2.63672 2.39062 3.25781-2.39062-2.2539-4.4375-1.00391-1.4961-4.4375-.55859V311.67188h17.7539v132.98437l-.30468.16406-4.13672 4.28125-.40235.16016.40235.16797v6.15234l-2.53125 2.55469 2.53125 2.95312 3.72265-2.95312-3.72265-2.55469v-6.15234l.14844-.16797 4.29296-4.16406 3 4.16406 1.4375 3.08984.25391 1.34766-.2539.14453-4.28516 4.29297.17969 4.4375 4.10546 4.2461.4375.1953 4 4.1211 3.28907-4.1211.89453-4.4414.2539-.60938 3.46094-3.82812.16406-4.4375-3.625-4.39453-4.4375.88672-2.90625-.9297-1.53125-.80858-4.30859-3.63282-.1289-.16406V311.67187h88.76171v168.65625H395.25l-2.70313-3.12109-2.40625 3.1211H144.00392"/></g><path fill="#50fcfc" fill-rule="evenodd" d="M146.5664 444.82031l-2.5625 2.46485v-3.48829l1.58985-3.41406-1.58984-2.25v-3.19922l1.02734 1.01172 2.48438 4.4375-.94922 4.4375"/><path fill="#00e8fc" fill-rule="evenodd" d="M145.59375 440.38281l-1.58984 3.41406v-5.66406l1.58984 2.25"/><path fill="#50fcfc" fill-rule="evenodd" d="M157.3164 441.47656l-.5625-1.09375.5625-.34375 1.47266-4.09375 2.96485-2.76953 3.4375-1.66797 1-.9961 4.4375-1.5039 4.4375-1.63281.96484-.30469 3.47656-2.29687 4.4375-1.65625 1.34766-.48828 3.08984-1.84766 4.4375-1.33594v3.5586l-4.4375.84375-4.4375 1.64843-3.08984 1.57422-1.34766.97266-4.4414.89844-3.97657 2.5664-.46093.14453-4.4375.82032-4.4375 3.23437-.25782.23828-2.86328 4.4375 1.11328 4.4375 2.00782 3.72656.98437.71485 3.45313 4.15234.10937.28516 1.23828 4.4375 3.08985 1.76562 4.4375-.24609 4.4414-.54297 4.4375.76172 4.4375.16016 4.4375.32812 4.4414.04297 4.4375-.08203 4.4375.29297 4.4375.46094 4.44142.78906 4.4375.08203 3.76953.625.66797.21484 4.4375.36719 3.99218-.58203.44531-.03125 4.44141-.90625 4.4375-.48047 4.4375-.8086 4.4375.16016 4.4375-1.30078 4.4414.13281 4.4375-.89453.5547-.3086 3.8828-2.51171 3.71876-1.92578.71875-.64453 2.83203-3.79297-2.83203-3.45703-1.64453-.98438-2.29688-4.4375-.4961-.38672-.53124.38672-.57031 4.4375-3.33594 1.54688-1.76953-1.54688-2.66797-2.38672-3.30469 2.38672-1.13672 1.11719-4.4375.6289-3.07812-1.74609 2.64062-4.4375-.73437-4.4375-3.23438-4.4375-.03125-.03125-4.4375-1.42187-4.4375-.57813-4.4414-.77734-4.4375-.57422-3.125 3.38281 3.125 2.58594 1.24218 1.85156-1.24219 2.46485-4.4375-.4922-4.4375-.36327-3.78515-1.60938-.65234-2.41406-.82422-2.02344-.84766-4.4375-2.76953-1.51953-4.4375-.63281-4.4375-.98438-4.4375-.47265-4.4414-.45703v-3.5586l4.4414.44922 4.4375 1.40235 1.40234 1.33203 3.03516.83593 4.4375.28907 4.4414.76171 4.4375-1.85937 4.4375 1.44531v9.375l-3.23828 2.46875 3.23828.70313 4.1211-.70313-4.1211-2.46875v-9.375l4.4375.3789 2.98438 2.58985 1.45313.35938 4.4414.46094 4.4375.125 4.4375.5 3.00781 2.99218 1.4297 2.44531 4.4375-.6328 4.4414-1.4336v1.03906l-3.73828 3.01953 3.73828 3.07031 2.89453-3.0703-2.89453-3.01954v-1.03906l3.89062 4.0586-3.89062 4.125-4.4414-.6836-4.4375-1.32422-.12892 2.32031.12891 2.58985 4.4375-1.63672 4.4414-.48047 4.4375 3.96484v.0039-.0039l.47266-4.4375 3.96485-2.875 3.70312 2.875.73438.98438 3.6211 3.45312.8203 1.01953 1.12891-1.01953 1.79297-4.4375-1.79297-4.4375-1.1289-.72265-4.44141.0078-3.92969-3.72265 1.91016-4.4375 2.01953-2.3086 4.4414-.53515 4.4375-.07422 4.4375 2.3047.54297-3.82813 3.89453-3.71485v1.1836l-2.65234 2.53125-.59766 4.4414-1.1875.57422-3.65234-.57422-.78516-.48828-4.4375.4375-.1328.05078-4.3086.89453-2.76563 3.54297 2.76563 2.61719 4.4414-.00781 2.86329 1.82812 1.57421 2.3125 4.4375.23438 4.4375-1.26172 1.21875-1.28516 3.14844-4.4375.07031-.10937 4.44141.03125 4.35547-4.35938-4.35547-3.3789-4.4414-.65235-.60938-.41015-3.82813-2.53125v-1.1836l4.4375 1.50781 3.9961 2.20704.44531.07421 4.4375.85938 2.59375 3.50781-.76953 4.4375-1.82422 1.90235-4.4375.70703-4.4414-.03125-1.27735 1.85937-3.16016 3.33203-4.4375.37891-3.5.72656 3.5 3.13281 4.4375.95313 1.3711.35156.88672 4.4414-2.25782 2.95313-1.125 1.48438-3.3125 2.3711-3.79296 2.0664-.64454.53515-4.4375.05079-3.09375-.58594-1.34765-.20313-.69922.20313-3.73828 1.1875-4.4375 1.89453-4.4375.0664-4.4414-.04687-4.4375.54688-4.4375-.0547-4.4375.34767-4.4375.47656-.08985.01953-4.35156 2.63672-4.4375.28906-4.4375-.15625-4.4375-.78125-4.4375.01172-4.44141-1.23828-2.98438-.76172-1.45312-.1211-4.4375-.23046-4.4375-.05079-4.4414.35157-4.4375-.35938-4.4375-.16015-4.4375.07812-1.44923.49219-2.99218 1.51562-4.4375-1.42578-4.4375.25-4.4375.96485-1.3086-1.3047-.64844-4.4375.3672-4.4375-1.69141-4.4375-.85938-4.4414-.29687-3.34375"/><path fill="#00e8fc" fill-rule="evenodd" d="M159.7461 444.82031l-1.11329-4.4375 2.86328-4.4375.25782-.23828 4.4375-3.23437 4.4375-.82032.46093-.14453 3.97657-2.5664 4.4414-.89844 1.34766-.97266 3.08984-1.57422 4.4375-1.64843 4.4375-.84375 4.4414.45703 4.4375.47265v2.95704l-2.51171.17968-1.92578.13672-4.4414.21875-4.4375.77735-2.55079 3.30468-1.65625 4.4375-.23047.25781-4.4375 2.00782-2.30469-2.26563-2.13671-4.22265-4.4375 1.21875-4.4375 1.52734-1.95313 1.47656-2.48437 3.22656-.81641 1.21094.8164 1.99219 2.91407 2.44531 1.52344 1.1914 1.96875-1.1914 2.46875-.30078v9.03125l-.08594.14844.08594.14453.17578-.14453-.17578-.14844v-9.03125l4.4375-3.90625 4.4414 2.73047 1.65625 1.47656 2.78125 3.57031 4.4375-2.14843 4.4375-1.35156.13281-.07032 4.3086-1.0664 4.4375-.37891 4.4375-.10547 1.65625 1.55078-1.65625 1.88281-3.66797 2.5586-.76953.6914-4.4375 2.39454-4.4414-.51563-2.14063 1.86719 2.14062 1.94531 4.4414-.54687 4.4375 1.125 4.4375.43359 4.07423 1.48047.36328.05078 4.4414 1.14453 4.4375.40235 4.4375.82421 4.4375-.08984 4.4375.17578 4.44141-.53906 4.4375-.48438 4.25781-1.48437.1797-.11719 1.15233.11719 3.28516.2461.64453-.2461 3.79297-1.73438 4.4414-1.3828 1.4922-1.32032 2.9453-3.58594 4.4375-.73047.13282-.1211-.13281-.09765-4.4375-.22656-4.4375-3.22656-3.71094 3.55078-.73047.28515-4.4375 1.03907-4.4375-.39453-4.4375-.19141-2.74219-.73828-1.6953-2.125-.44532-2.3164.44531-2.6797 2.07813-1.7578 2.35937-1 .08984 1 4.34766 3.96484 3.49219-3.96485-3.44531-4.4375-.04688-.0625-4.4375-2-4.4375-1.71094-1.84375-.66406-2.59766-.6914-2.76171.6914 1.72656 4.4375 1.03516 1.96485 3.66406 2.47265-3.66406 1.13672-4.4375-.17187-3.41407-.96485-1.02344-.34375-2.21875.34375-2.21875.46875-4.4375-.01562-1.30468-.45313-3.13672-1.34375-1.53906-3.09375-1.5-4.4375-1.39844-3.29297-2.88672-1.14453-1.55078-.17969v-2.95703l4.4375.98438 4.4375.63281 2.76953 1.51953.84766 4.4375.82422 2.02344.65234 2.41406 3.78516 1.60938 4.4375.36328 4.4375.49219 1.24218-2.46485-1.24219-1.85156-3.125-2.58594 3.125-3.38281 4.4375.57422 4.44141.77734 4.4375.57813 4.4375 1.42187.03125.03125 3.23438 4.4375.73437 4.4375-2.64062 4.4375 3.07812 1.7461 4.4375-.62891 1.13672-1.11719 3.30469-2.38672 2.66797 2.38672 1.76953 1.54688 3.33594-1.54688.5703-4.4375.53126-.38672.4961.38672 2.29687 4.4375 1.64453.98438 2.83203 3.45703-2.83203 3.79297-.71875.64453-3.71875 1.92578-3.88281 2.51172-.5547.3086-4.4375.89452-4.4414-.1328-4.4375 1.30077-4.4375-.16015-4.4375.80859-4.4375.48047-4.4414.90625-.44532.03125-3.99219.58203-4.4375-.36719-.66796-.21484-3.76953-.625-4.4375-.08203-4.44141-.78906-4.4375-.46094-4.4375-.29297-4.4375.08203-4.4414-.04297-4.4375-.32812-4.4375-.16016-4.4375-.76172-4.44141.54297-4.4375.2461-3.08985-1.76563-1.23828-4.4375-.10937-.28516-3.45313-4.15234-.98437-.71485-2.00782-3.72656"/><path fill="#00d4fc" fill-rule="evenodd" d="M161.7539 442.375l-.8164-1.99219.8164-1.21094 2.48438-3.22656 1.95313-1.47656 4.4375-1.52734v1.29296l-3.71485 1.71094-.72265.35547-3.64063 4.08203 3.64063 3.51953 4.4375-.44921 3.3164-3.07032-.41015-4.4375-2.90625-1.71094v-1.29296l4.4375-1.21875 2.13672 4.22265 2.30468 2.26563 4.4375-2.00781.23047-.25782 1.65625-4.4375 2.55078-3.30469 4.4375-.77734v2.66797l-2.20312 1.41406-1.91797 4.4375-.3164.08594-3.83985 4.35156 3.83984 2.1289 4.4375-.41405 2.94531-1.71485 1.4961-2.52344 2.38281-1.91406 2.05469-3.78125.22266-.65625-.22266-.16406-4.4375-1.14453-4.4414-.10547v-2.66797l4.4414-.21875 1.92578-.13672 2.51172-.17969 1.55078.1797 2.88672 1.14452 1.39844 3.29297 1.5 4.4375 1.53906 3.09375 3.13672 1.34375 1.30469.45313 4.4375.01562 2.21875-.46875 2.21875-.34375v2.82031l-4.4375.89844-1.67188 1.0625-2.76563 4.14063-.41796.30078.08203 4.4375.33594.42578 4.4375 2.94922 2.94921 1.0625 1.48828.29687 3.14063-.29687 1.29688-.26953.67578.26953 3.76172.61328 4.4414-.17578 3.97266-.4375.46484-.3086 4.4375-2.71484 3.35547-1.41406-3.35547-1.14844-4.4375.00781-4.4375-.07421-2.67969-3.22266-.04687-4.4414-1.71484-1.41407-8.875-.54688v-2.8203l1.02343.34374 3.41406.96485 4.4375.17187 3.66407-1.13672-3.66406-2.47265-1.03516-1.96485-1.72656-4.4375 2.76172-.6914 2.59765.6914 1.84375.66406v2.8711l-1.67187.90234 1.67187 1.17578 1.70313-1.17578-1.70313-.90234v-2.8711l4.4375 1.71094 4.4375 2v.70313l-3.71094 3.79687 3.71094 3.38672 2.98438-3.38672-2.98438-3.79687v-.70313l.04688.0625 3.4453 4.4375-3.49218 3.96485-4.34766-3.96485-.08984-1-2.35937 1-2.07813 1.75781-.44531 2.6797.44531 2.3164 1.69531 2.125 2.7422.73828 4.4375.1914 4.4375.39454 4.4375-1.03906v3.88671l-1.33595.26563 1.33594.17187.3789-.17187-.3789-.26563v-3.88671l.73047-.28516 3.71094-3.55078 4.4375 3.22656 4.4375.22656.13281.09766-.13281.1211-4.4375.73046-2.94531 3.58594-1.4922 1.32031-4.4414 1.38281-3.79297 1.73438-.64453.2461-3.28516-.2461-1.15234-.11719-.17969.11719-4.2578 1.48437-4.4375.48438-4.44142.53906-4.4375-.17578-4.4375.08984-4.4375-.82421-4.4375-.40235-4.4414-1.14453-.36328-.05078-4.07422-1.48047-4.4375-.4336-4.4375-1.125-4.4414.54688-2.14063-1.94531 2.14062-1.86719 4.4414.51563 4.4375-2.39454.76954-.6914 3.66797-2.5586 1.65625-1.8828-1.65625-1.55079-4.4375.10547-4.4375.3789-4.3086 1.06641-.1328.07031-4.4375 1.35157-4.4375 2.14844-2.78126-3.57032-1.65625-1.47656-4.4414-2.73047-4.4375 3.90625-2.46875.30078-1.96875 1.1914-1.52344-1.1914-2.91406-2.44531"/><path fill="#00c4fc" fill-rule="evenodd" d="M166.1914 443.90234l-3.64062-3.51953 3.64063-4.08203.72265-.35547 3.71485-1.71094v1.28907l-.91797.42187-3.51953 1.73828-2.40625 2.69922 2.40625 2.32813 4.4375-.32422 2.16406-2.0039-1.44531-4.4375-.71875-.42188v-1.28906l2.90625 1.71093.41015 4.4375-3.3164 3.07031-4.4375.44922"/><path fill="#00b8fc" fill-rule="evenodd" d="M166.1914 442.71094l-2.40624-2.32813 2.40625-2.69922 3.51953-1.73828.91797-.42187v2.34375l-4.4375 1.19922-1.17188 1.3164 1.17188 1.13672 4.4375-.19922 1.01172-.9375-1.01172-2.51562v-2.34375l.71875.42187 1.4453 4.4375-2.16405 2.0039-4.4375.32423"/><path fill="#00a8fc" fill-rule="evenodd" d="M166.1914 441.51953l-1.17187-1.13672 1.17188-1.3164 4.4375-1.19922 1.01172 2.51562-1.01172.9375-4.4375.19922"/><path fill="#00d4fc" fill-rule="evenodd" d="M170.6289 453.84375l-.08593-.14453.08594-.14844.17578.14844-.17578.14453"/><path fill="#00c4fc" fill-rule="evenodd" d="M188.38281 442.51172l-3.83984-2.1289 3.83984-4.35157.3164-.08594 1.91798-4.4375 2.20312-1.41406 4.4414.10547 4.4375 1.14453.22267.16406-.22266.65625-2.05469 3.78125-2.38281 1.91406-1.4961 2.52344-2.9453 1.71485-4.4375.41406m26.29687 11.1875l-.08203-4.4375.41797-.30078 2.76562-4.14063 1.67188-1.0625 4.4375-.89844v4.3086l-3.83985 2.09375 3.83984 2.44922 3.48829-2.44922-3.48828-2.09375v-4.3086l8.875.54688 1.71484 1.41406.04687 4.4414 2.6797 3.22267 4.4375.07421 4.4375-.0078 3.35546 1.14843-3.35547 1.41406-4.4375 2.71485-.46484.30859-3.97266.4375-4.4414.17578-3.76172-.61328-.67578-.26953-1.29688.26953-3.14063.29687-1.48828-.29687-2.94922-1.0625-4.4375-2.94922-.33593-.42578"/><path fill="#00b8fc" fill-rule="evenodd" d="M223.89063 451.71094l-3.83985-2.44922 3.83984-2.09375 3.48829 2.09375-3.48828 2.44922"/><path fill="#fff" fill-opacity="0" fill-rule="evenodd" d="M223.89063 433.47656l-3.23829 2.46875 3.23828.70313 4.1211-.70313-4.1211-2.46875"/><path fill="#00c4fc" fill-rule="evenodd" d="M237.20703 437.1211l-1.67187-1.17579 1.67187-.90234 1.70313.90234-1.70313 1.17578m8.875 6.64844l-3.71094-3.38672 3.71094-3.79687v.64844l-3.07812 3.14843 3.07812 2.8086 2.47266-2.8086-2.47266-3.14844v-.64843l2.98438 3.79687-2.98438 3.38672"/><path fill="#00b8fc" fill-rule="evenodd" d="M246.08203 443.1914l-3.07812-2.80859 3.07812-3.14844v.64844l-2.44531 2.5 2.44531 2.23047 1.96484-2.23047-1.96484-2.5v-.64844l2.47266 3.14844-2.47266 2.8086"/><path fill="#00a8fc" fill-rule="evenodd" d="M246.08203 442.61328l-2.44531-2.23047 2.44531-2.5v.64844l-1.8086 1.85156 1.8086 1.65235 1.45313-1.65235-1.45313-1.85156v-.64844l1.96484 2.5-1.96484 2.23047"/><path fill="#009800" fill-rule="evenodd" d="M246.08203 442.03516l-1.8086-1.65235 1.8086-1.85156v.64844l-1.17578 1.20312 1.17578 1.07422.94531-1.07422-.9453-1.20312v-.64844l1.45312 1.85156-1.45313 1.65235"/><path fill="#00ac00" fill-rule="evenodd" d="M246.08203 441.45703l-1.17578-1.07422 1.17578-1.20312v.64844l-.54297.55468.54297.4961.4336-.4961-.4336-.55469v-.64843l.94531 1.20312-.9453 1.07422"/><path fill="#00c800" fill-rule="evenodd" d="M246.08203 440.8789l-.54297-.49609.54297-.55469.4336.5547-.4336.49609"/><path fill="#00c4fc" fill-rule="evenodd" d="M254.95703 453.8711l-1.33594-.17188 1.33594-.26563.3789.26563-.3789.17187"/><path fill="#00e8fc" fill-rule="evenodd" d="M259.39844 439.01563l-3.73828-3.07032 3.73828-3.01953v1.72656l-1.60156 1.29297 1.60156 1.3125 1.23828-1.3125-1.23828-1.29297v-1.72656l2.89453 3.01953-2.89453 3.07031"/><path fill="#00d4fc" fill-rule="evenodd" d="M259.39844 437.25781l-1.60156-1.3125 1.60156-1.29297 1.23828 1.29297-1.23828 1.3125"/><path fill="#00e8fc" fill-rule="evenodd" d="M272.71094 434.125l-2.76563-2.61719 2.76563-3.54297 4.3086-.89453.1328-.05078 4.4375-.4375.78516.48828 3.65234.57422 1.1875-.57422.59766-4.4414 2.65234-2.53125v1.97656l-.58203.55469-.53906 4.4414-3.3164 1.60547-4.4375 1.15625-4.4375.35938-4.44141.2578-.82422 1.0586.82422.78125 4.4414-.01172 4.4375 1.6211 2.63672 2.04687 1.80078.60547 1.47657-.60547 2.96093-1.02734 2.94532-3.41016 1.49218-2.25781 4.44141.05469 2.23438-2.23438-2.23438-1.73437-4.4414-.29688-3.59766-2.41015-.83985-.5547v-1.97655l3.82813 2.53125.60937.41015 4.44141.65235 4.35547 3.3789-4.35547 4.35938-4.4414-.03125-.07032.10937-3.14844 4.4375-1.21875 1.28516-4.4375 1.26172-4.4375-.23438-1.57421-2.3125-2.86329-1.82812-4.4414.00781"/><path fill="#00d4fc" fill-rule="evenodd" d="M272.71094 432.28906l-.82422-.78125.82422-1.0586 4.4414-.2578 4.4375-.35938 4.4375-1.15625 3.31641-1.60547.53906-4.4414.58203-.5547.83985.5547 3.59765 2.41015 4.44141.29688v1.64453l-4.4414.0586-.13673.03124-4.30078 1.35938-4.4375 1.27734-3.5039 1.80078 3.5039 3.1836 4.4375-1.42188 1.52344-1.76172 2.91406-4.40625 4.44141.08203.11328-.11328-.11328-.08984v-1.64453l2.23438 1.73437-2.23438 2.23438-4.4414-.05469-1.4922 2.25781-2.9453 3.41016-2.96094 1.02734-1.47657.60547-1.80078-.60547-2.63672-2.04687-4.4375-1.6211-4.4414.01172"/><path fill="#00c4fc" fill-rule="evenodd" d="M286.02734 434.6914l-3.5039-3.18359 3.5039-1.80078v1.02735l-1.5.77343 1.5 1.35938 4.4375-1.2461.10157-.11328-.10157-.20312-4.4375-.57031v-1.02735l4.4375-1.27734 4.30079-1.35938.13671-.03125 4.44141-.0586.11328.08985-.11328.11328-4.4414-.08203-2.91407 4.40625-1.52344 1.76172-4.4375 1.42188"/><path fill="#00b8fc" fill-rule="evenodd" d="M286.02734 432.86719l-1.5-1.35938 1.5-.77344 4.4375.57032.10157.20312-.10157.11328-4.4375 1.2461"/><path fill="#50fcfc" fill-rule="evenodd" d="M308.21875 449.6211l-.46484-.35938.46484-.3711 4.4375-.60156 2.0664.97266-2.0664.17969-4.4375.17968m39.94531-10.46093l-3.35547-3.21485 3.35547-3.59765v2.45703l-1.0625 1.14062 1.0625 1.01563 3.77344 3.42187.66406.64844 2.83203-.64844-2.83203-1.08594-2.8711-3.35156-1.5664-1.14062v-2.45703l4.4375 2.66015 1.16016.9375 3.28125 1.48047 4.01953 2.95703-4.01953 2.59766-4.4414.40625-3.08594-3.0039-1.35157-1.22266"/><path fill="#00e8fc" fill-rule="evenodd" d="M348.16406 436.96094l-1.0625-1.01563 1.0625-1.14062 1.5664 1.14062 2.8711 3.35156 2.83203 1.08594-2.83203.64844-.66406-.64844-3.77344-3.42187"/><path fill="#50fcfc" fill-rule="evenodd" d="M357.04297 454.74219l-2.46094-1.04297 2.46094-1.22656 4.4375-.82813 4.4375.5586 1.0039 1.49609 2.25391 4.4375-3.25781 2.39062-2.63672-2.39062-1.80078-3.67578-4.4375.28125m17.75 6.34765l-2.53125-2.95312 2.53125-2.55469 3.72265 2.55469-3.72265 2.95312"/><path fill="#50fcfc" fill-rule="evenodd" d="M374.79297 449.42969l-.40235-.16797.40235-.16016 4.13672-4.28125.30469-.16406.1289.16406 4.3086 3.63281 1.53125.8086 2.90625.92969 4.4375-.88672v2.10547l-4.28907 2.28906-.14844.03515-4.4375 2.60547-1.79296 1.79688-.90235 4.4375 2.69531 2.78906 3.73829 1.65235.69921.71875.57422-.71875 2.8125-4.44141 1.05079-2.5039 1.74609-1.9336.14453-4.4375-1.89063-2.28906v-2.10547l3.625 4.39453-.16406 4.4375-3.46094 3.82812-.2539.60938-.89453 4.4414-3.28906 4.1211-4-4.1211-.4375-.1953-4.10547-4.2461-.1797-4.4375 4.28517-4.29297.2539-.14453-.2539-1.34766-1.4375-3.08984-3-4.16406-4.29297 4.16406-.14844.16797"/><path fill="#00e8fc" fill-rule="evenodd" d="M383.67188 465.36328l-2.69532-2.78906.90235-4.4375 1.79296-1.79688 4.4375-2.60546v1.58203l-3.36328 2.8203-1.07421 3.51563-.35157.92188.35156.36328 4.4375 2.48047 2.0625-2.84375 1.58204-4.4375-3.64454-2.82031v-1.58204l.14844-.03515 4.28906-2.28906 1.89063 2.28906-.14453 4.4375-1.7461 1.9336-1.05078 2.5039-2.8125 4.4414-.57421.71875-.69922-.71875-3.73829-1.65234"/><path fill="#00d4fc" fill-rule="evenodd" d="M383.67188 462.9375l-.35157-.36328.35156-.92188 1.07422-3.51562 3.36329-2.82031v1.58593l-1.47266 1.23438-.28125 4.4375 1.7539 1.01562.73829-1.01562.85937-4.4375-1.59765-1.23438v-1.58593l3.64453 2.8203-1.58204 4.4375-2.0625 2.84376-4.4375-2.48047"/><path fill="#00c4fc" fill-rule="evenodd" d="M388.10938 463.58984l-1.75391-1.01562.28125-4.4375 1.47265-1.23438 1.59766 1.23438-.85937 4.4375-.73829 1.01562"/><g clip-path="url(#d)"><path fill="#50fcfc" fill-rule="evenodd" d="M390.14063 480.32813l2.40625-3.1211 2.70312 3.1211h-5.10938"/></g><g clip-path="url(#e)"><path fill="#fff" fill-opacity="0" fill-rule="evenodd" d="M467.9961 480.32813H468V311.67188h-.0039H468v168.65625h-.0039"/></g><path fill="#fff" fill-opacity="0" fill-rule="evenodd" d="M245.22656 437.03125l5.26172 2.53906 4.32813-8.97265-5.26172-2.53907-4.32813 8.97266"/><path fill-rule="evenodd" d="M251.91016 431.23047l.45703.22265-2.73438 5.66797-.70703-.33984 1.94922-4.04297-1.25-.60547.24219-.5.53125.1836.25.0625.2461.01953.24608-.03906.2461-.11329.25781-.20312.26563-.3125"/><path fill="#fff" fill-opacity="0" fill-rule="evenodd" d="M294 426.30469l5.51953 1.90625 3.25781-9.41016-5.51953-1.91015L294 426.30469"/><path fill-rule="evenodd" d="M299.96484 419.76563l.48047.16796-2.0586 5.94922-.74218-.25781 1.46485-4.24219-1.3086-.45703.17969-.52344.55078.1211.2539.03125.2461-.00781.23828-.07032.23438-.14062.23046-.23047.23047-.33985"/><path fill="#fff" fill-opacity="0" fill-rule="evenodd" d="M205.95313 467.35547l5.64453 1.5039 2.5703-9.62109-5.64452-1.50781-2.57031 9.625"/><path fill-rule="evenodd" d="M211.42969 460.40234l.49219.13282-1.625 6.08203-.75782-.20313 1.15625-4.33594-1.33984-.35937.14453-.53906.55469.08203.25781.01562.2461-.02734.23437-.08594.22266-.15625.21093-.25.20313-.35547"/><path fill="#fff" fill-opacity="0" fill-rule="evenodd" d="M202.58984 434.25781l3.03907 7.3164 9.41406-3.91015L212 430.34766l-9.41016 3.91015"/><path fill-rule="evenodd" d="M211.26172 433.33984l1.26172 3.03516-.6875.28516-1.01172-2.4375-1.7539.48046.23827.14844.22266.19922.20703.26172.17969.33984.09766.3125.05078.34375-.00782.36329-.07812.37109-.16406.36328-.1172.17578-.14062.16406-.16797.16016-.1953.14844-.22657.13281-.2539.1211-.42188.13671-.42969.0664-.41797-.01171-.40625-.08984-.3789-.17579-.17578-.12109-.16797-.14062-.15235-.16407-.14062-.1914-.1289-.21094-.10938-.23438-.14844-.4453-.0586-.41016.02344-.3711.09375-.33594.15235-.30468.21093-.27344.25782-.24219.29297-.21875.30078.72656-.1836.16407-.15234.17578-.1211.1836-.08593.1914-.04688.20312-.01172.20704.02735.21875.07031.21875.14453.28125.17188.23437.20703.17969.23437.1289.26172.07032.28906.01171.3125-.05078.33985-.11328.23828-.1211.21875-.15624.1875-.1914.15625-.22266.10547-.25.04687-.28125-.01953-.3047-.09766-.32421-.16015-.29688-.21094-.21875-.27734-.17968-.36719-.1875-.26563-.64063 3.33985-.88672"/><path fill="#fff" fill-opacity="0" fill-rule="evenodd" d="M262.6875 452.79297l7.45703 2.67578 3.44531-9.58984-7.45703-2.6797-3.44531 9.59376"/><path fill-rule="evenodd" d="M267.84766 445.76172l3.09375 1.11328-.25.69531-2.48438-.89062-.82812 1.6211.26953-.07813.29687-.03125.33594.02343.3711.10157.29687.1328.28906.19532.26563.25.21875.3086.16015.36328.05078.20312.02735.21875.0039.23047-.02343.24219-.05079.25781-.08593.27344-.17969.40234-.24219.35938-.28906.30468-.33984.23829-.38672.16406-.20703.04687-.21485.02735-.22656.0039-.23438-.02344-.24218-.04687-.25-.07813-.42578-.1914-.34375-.23047-.25782-.26563-.1875-.29687-.12109-.32031-.0586-.33594-.0078-.35547.03515-.36328.74219.26563-.0039.24609.02733.23047.0547.21094.08593.1953.11328.17188.14844.14844.17969.125.21093.09766.3047.08203.28905.02734.26954-.02734.25-.08985.23046-.14453.20313-.20703.17578-.26562.14453-.32813.07031-.2539.03125-.26954-.01171-.26562-.0625-.26563-.1172-.24609-.17187-.22656-.23828-.1875-.3086-.14844-.32812-.08203-.30078.00781-.32031.08594-.38672.14844-.65234-.23438 1.59375-3.07031"/><g clip-path="url(#f)"><path fill="none" stroke="#000" stroke-linecap="round" stroke-linejoin="round" stroke-miterlimit="10" stroke-width=".5" d="M147.46484 479.74219l-6.92968 1.17187"/></g><g clip-path="url(#g)"><path fill="none" stroke="#000" stroke-linecap="round" stroke-linejoin="round" stroke-miterlimit="10" stroke-width=".5" d="M147.46484 479.74219l1.4961 1.94531"/></g><g clip-path="url(#h)"><path fill="none" stroke="#000" stroke-linecap="round" stroke-linejoin="round" stroke-miterlimit="10" stroke-width=".5" d="M160.8164 480.03906l-7.0039.57813"/></g><g clip-path="url(#i)"><path fill="none" stroke="#000" stroke-linecap="round" stroke-linejoin="round" stroke-miterlimit="10" stroke-width=".5" d="M160.8164 480.03906l1.32813 2.0625"/></g><g clip-path="url(#j)"><path fill="none" stroke="#000" stroke-linecap="round" stroke-linejoin="round" stroke-miterlimit="10" stroke-width=".5" d="M174.14453 480.32813h-7.02734"/></g><g clip-path="url(#k)"><path fill="none" stroke="#000" stroke-linecap="round" stroke-linejoin="round" stroke-miterlimit="10" stroke-width=".5" d="M174.14453 480.32813l1.15234 2.16796"/></g><g clip-path="url(#l)"><path fill="none" stroke="#000" stroke-linecap="round" stroke-linejoin="round" stroke-miterlimit="10" stroke-width=".5" d="M187.4414 480.66406l-6.99218-.66797"/></g><g clip-path="url(#m)"><path fill="none" stroke="#000" stroke-linecap="round" stroke-linejoin="round" stroke-miterlimit="10" stroke-width=".5" d="M186.42578 480.5664l.46875 1.13282"/></g><g clip-path="url(#n)"><path fill="none" stroke="#000" stroke-linecap="round" stroke-linejoin="round" stroke-miterlimit="10" stroke-width=".5" d="M200.64063 481.28906l-6.75782-1.92187"/></g><g clip-path="url(#o)"><path fill="none" stroke="#000" stroke-linecap="round" stroke-linejoin="round" stroke-miterlimit="10" stroke-width=".5" d="M199.65625 481.01172l.25781 1.19922"/></g><g clip-path="url(#p)"><path fill="none" stroke="#000" stroke-linecap="round" stroke-linejoin="round" stroke-miterlimit="10" stroke-width=".5" d="M214.01953 481.01563l-6.89062-1.375"/></g><g clip-path="url(#q)"><path fill="none" stroke="#000" stroke-linecap="round" stroke-linejoin="round" stroke-miterlimit="10" stroke-width=".5" d="M213.01953 480.8164l.35156 1.17579"/></g><g clip-path="url(#r)"><path fill="none" stroke="#000" stroke-linecap="round" stroke-linejoin="round" stroke-miterlimit="10" stroke-width=".5" d="M227.3789 480.75l-6.97656-.83984"/></g><g clip-path="url(#s)"><path fill="none" stroke="#000" stroke-linecap="round" stroke-linejoin="round" stroke-miterlimit="10" stroke-width=".5" d="M226.36328 480.625l.4414 1.14453"/></g><g clip-path="url(#t)"><path fill="none" stroke="#000" stroke-linecap="round" stroke-linejoin="round" stroke-miterlimit="10" stroke-width=".5" d="M240.71484 480.48438l-7.01953-.3125"/></g><g clip-path="url(#u)"><path fill="none" stroke="#000" stroke-linecap="round" stroke-linejoin="round" stroke-miterlimit="10" stroke-width=".5" d="M239.69531 480.4414l.52735 1.10548"/></g><g clip-path="url(#v)"><path fill="none" stroke="#000" stroke-linecap="round" stroke-linejoin="round" stroke-miterlimit="10" stroke-width=".5" d="M254.0039 480.79688l-6.96484-.9375"/></g><g clip-path="url(#w)"><path fill="none" stroke="#000" stroke-linecap="round" stroke-linejoin="round" stroke-miterlimit="10" stroke-width=".5" d="M267.02734 478.85547l-6.3828 2.94531"/></g><g clip-path="url(#x)"><path fill="none" stroke="#000" stroke-linecap="round" stroke-linejoin="round" stroke-miterlimit="10" stroke-width=".5" d="M273.82813 479.1875l6.64453 2.28125"/></g><g clip-path="url(#y)"><path fill="none" stroke="#000" stroke-linecap="round" stroke-linejoin="round" stroke-miterlimit="10" stroke-width=".5" d="M287.36328 478.67578l6.20313 3.30469"/></g><path fill="none" stroke="#000" stroke-linecap="round" stroke-linejoin="round" stroke-miterlimit="10" stroke-width=".5" d="M288.26563 479.15625l.0039-1.22656"/><g clip-path="url(#z)"><path fill="none" stroke="#000" stroke-linecap="round" stroke-linejoin="round" stroke-miterlimit="10" stroke-width=".5" d="M301.04297 478.1289l5.47656 4.39844"/></g><path fill="none" stroke="#000" stroke-linecap="round" stroke-linejoin="round" stroke-miterlimit="10" stroke-width=".5" d="M301.83984 478.76953l.22657-1.20703"/><g clip-path="url(#A)"><path fill="none" stroke="#000" stroke-linecap="round" stroke-linejoin="round" stroke-miterlimit="10" stroke-width=".5" d="M314.1211 478.45703l5.94921 3.74219"/></g><path fill="none" stroke="#000" stroke-linecap="round" stroke-linejoin="round" stroke-miterlimit="10" stroke-width=".5" d="M314.98828 479.0039l.08985-1.22656"/><g clip-path="url(#B)"><path fill="none" stroke="#000" stroke-linecap="round" stroke-linejoin="round" stroke-miterlimit="10" stroke-width=".5" d="M327.40234 478.51563l6.01954 3.625"/></g><path fill="none" stroke="#000" stroke-linecap="round" stroke-linejoin="round" stroke-miterlimit="10" stroke-width=".5" d="M328.27734 479.04297l.0625-1.22266"/><g clip-path="url(#C)"><path fill="none" stroke="#000" stroke-linecap="round" stroke-linejoin="round" stroke-miterlimit="10" stroke-width=".5" d="M340.44531 479.07422l6.5625 2.50781"/></g><path fill="none" stroke="#000" stroke-linecap="round" stroke-linejoin="round" stroke-miterlimit="10" stroke-width=".5" d="M341.39844 479.4375l-.15235-1.21484"/><g clip-path="url(#D)"><path fill="none" stroke="#000" stroke-linecap="round" stroke-linejoin="round" stroke-miterlimit="10" stroke-width=".5" d="M353.67188 479.33203l6.73828 1.99219"/></g><path fill="none" stroke="#000" stroke-linecap="round" stroke-linejoin="round" stroke-miterlimit="10" stroke-width=".5" d="M354.65234 479.6211l-.24609-1.19923"/><g clip-path="url(#E)"><path fill="none" stroke="#000" stroke-linecap="round" stroke-linejoin="round" stroke-miterlimit="10" stroke-width=".5" d="M366.92578 479.57813l6.86328 1.5039"/></g><path fill="none" stroke="#000" stroke-linecap="round" stroke-linejoin="round" stroke-miterlimit="10" stroke-width=".5" d="M366.92578 479.57813l-.66406-2.36329"/><g clip-path="url(#F)"><path fill="none" stroke="#000" stroke-linecap="round" stroke-linejoin="round" stroke-miterlimit="10" stroke-width=".5" d="M380.1836 480.76563l6.97265-.875"/></g><g clip-path="url(#G)"><path fill="none" stroke="#000" stroke-linecap="round" stroke-linejoin="round" stroke-miterlimit="10" stroke-width=".5" d="M380.1836 480.76563l-1.41016-2.00391"/></g><g clip-path="url(#H)"><path fill="none" stroke="#000" stroke-linecap="round" stroke-linejoin="round" stroke-miterlimit="10" stroke-width=".5" d="M393.5039 480.78906l6.96485-.92187"/></g><g clip-path="url(#I)"><path fill="none" stroke="#000" stroke-linecap="round" stroke-linejoin="round" stroke-miterlimit="10" stroke-width=".5" d="M393.5039 480.78906l-1.42577-1.9961"/></g><g clip-path="url(#J)"><path fill="none" stroke="#000" stroke-linecap="round" stroke-linejoin="round" stroke-miterlimit="10" stroke-width=".5" d="M394.51563 480.65625l-1.42579-1.9961"/></g><g clip-path="url(#K)"><path fill="none" stroke="#000" stroke-linecap="round" stroke-linejoin="round" stroke-miterlimit="10" stroke-width=".5" d="M406.92969 481.3125l6.7461-1.96875"/></g><g clip-path="url(#L)"><path fill="none" stroke="#000" stroke-linecap="round" stroke-linejoin="round" stroke-miterlimit="10" stroke-width=".5" d="M406.92969 481.3125l-1.71485-1.7539"/></g><g clip-path="url(#M)"><path fill="none" stroke="#000" stroke-linecap="round" stroke-linejoin="round" stroke-miterlimit="10" stroke-width=".5" d="M407.91016 481.02734l-.85547-.8789"/></g><g clip-path="url(#N)"><path fill="none" stroke="#000" stroke-linecap="round" stroke-linejoin="round" stroke-miterlimit="10" stroke-width=".5" d="M423.6914 483.83984l-.14843-7.02343"/></g><g clip-path="url(#O)"><path fill="none" stroke="#000" stroke-linecap="round" stroke-linejoin="round" stroke-miterlimit="10" stroke-width=".5" d="M434.76953 483.09766l4.32422-5.53907"/></g><g clip-path="url(#P)"><path fill="none" stroke="#000" stroke-linecap="round" stroke-linejoin="round" stroke-miterlimit="10" stroke-width=".5" d="M452.8164 482.72656l-5.13671-4.79687"/></g><g clip-path="url(#Q)"><path fill="none" stroke="#000" stroke-linecap="round" stroke-linejoin="round" stroke-miterlimit="10" stroke-width=".5" d="M466.65625 481.98828l-6.1914-3.32031"/></g><g clip-path="url(#R)"><path fill="none" stroke="#000" stroke-linecap="round" stroke-linejoin="round" stroke-miterlimit="10" stroke-width=".5" d="M147.51172 466.92969l-7.02344.16797"/></g><path fill="none" stroke="#000" stroke-linecap="round" stroke-linejoin="round" stroke-miterlimit="10" stroke-width=".5" d="M147.51172 466.92969l1.20312 2.14062m12.07813-1.5664l-6.95703-.98047m5.94531.83594l.41797 1.15625m13.94531-1.52344l-7.02734.04297m6.0039-.03516l.58203 1.07813m13.73047-.63282l-6.97656-.86328m5.96094.73828l.4375 1.14453m13.76953-.4414l-6.73047-2.01953m5.75 1.72656l.24219 1.20312m14.08594-1.01953l-6.79297-1.80078m5.80469 1.53906l.27734 1.19532m14.08594-1.20703l-6.91407-1.25m5.91016 1.0664l.3711 1.16797m14.0039-1.52344l-7.02734-.17578m6.0039.15235l.54688 1.09765m13.73828-1.77344l-6.92188 1.22266m5.91407-1.04297l.7578.96485m13.23438-2.12891l-6.26172 3.1914m19.6875-2.95312l-6.48046 2.71484m18.46484-4.30468l-3.82031 5.89453m15.4414-6.45313l-.42968 7.01172m.36718-5.99219l1.1172-.5078m9.93358.1875l4.22266 5.61327m-3.60937-4.79687l.51953-1.11328m11.5.97265l5.58984 4.26172m-4.77734-3.64062l.19922-1.21094m11.92968 1.20312l6.33594 3.03516m-5.41406-2.59375l-.05469-1.22656m12.6289.44922l5.97266 3.70703m-5.97265-3.70703l.16797-2.44922m13.11718 2.5l6.03125 3.60547m-6.03125-3.60547l.125-2.45313m12.91407 3.03125l6.58593 2.44922m-6.58593-2.44922l-.32422-2.4336m13.70703 2.26563l6.44922 2.78516m-6.44922-2.78516l-.20313-2.4453m13.23829 4.11327l7.0078-.55078m-7.0078.55078l-1.31641-2.07031m19.61328-1.39063l-2.95703 6.3711m2.52734-5.44531l1.22656-.06641m14.11329.6211l-6.14454 3.41015m5.25-2.91406l1.03125.66797m12.83204 2.7539l-5.45313-4.42578m18.95313 4.1836l-5.82032-3.94141m4.97266 3.36719l-.1289 1.21875"/><g clip-path="url(#S)"><path fill="none" stroke="#000" stroke-linecap="round" stroke-linejoin="round" stroke-miterlimit="10" stroke-width=".5" d="M147.47266 453.17188l-6.94532 1.05468"/></g><path fill="none" stroke="#000" stroke-linecap="round" stroke-linejoin="round" stroke-miterlimit="10" stroke-width=".5" d="M146.46484 453.32422l.73047.98437m13.63281-.66797l-7.02734.1172m6.0039-.10157l.59376 1.07422m10.2539 2.48047l-.04687-7.02735m11.11719.79297l4.4453 5.4414m8.94532-5.5l4.29297 5.5625m8.875-5.4453l4.58594 5.32421m7.75781-3.95312l6.53125 2.58594m-5.58203-2.21094l-.13672-1.21875m12.48047.89844l6.57812 2.47265m-5.62109-2.11328l-.16016-1.21484m12.40625 1.20312l6.79688 1.77735m-5.8086-1.51563l-.28125-1.19531m12.78125.42969l6.45313 2.78515m-5.51563-2.3789l-.09765-1.22266m14.25781-.99219l2.88672 6.40625m-2.46875-5.47656l.7539-.96875m13.125-.24219l.92188 6.96875m-.78515-5.95312l.99609-.71485m13.23047-.28125l-1.17188 6.9297m1-5.92188l1.16406-.38672m11.40625-.65625l.66016 6.9961m-.5664-5.97657l1.02734-.67578m10.88281.04687l3.28125 6.21485m-2.80078-5.3086l.6875-1.01562m10.85156 1.28906l5.8711 3.85938m-5.8711-3.85938l.23047-2.44531m12.82031 2.92969l6.40235 2.89062m-6.40235-2.89062l-.16015-2.44922m13.88281 1.76562l5.58984 4.25781m-5.58984-4.2578l.39453-2.42188m12.34766 3.55078l6.73437 2m-6.73437-2l-.48828-2.40625m13.73046 2.69531l6.87891 1.42188m-6.8789-1.42188l-.69141-2.35547m1.6914 2.5625l-.34375-1.17969m12.60547 2.07422l6.98438-.78515m-5.96875.67187l-.6914-1.01172m19.85546 1.72657l-6.74219-1.98829m5.75782 1.69922l.24609 1.20313m13.76172-3.59375l-6.16016 3.375m6.16016-3.375l2.05078 1.34375m11.01953-1.73047l-5.67187 4.14844m4.84765-3.54688l1.10547.53516m13.6875 1.36328l-6.97656-.85156"/><g clip-path="url(#T)"><path fill="none" stroke="#000" stroke-linecap="round" stroke-linejoin="round" stroke-miterlimit="10" stroke-width=".5" d="M147.51172 440.48047l-7.02344-.1914"/></g><path fill="none" stroke="#000" stroke-linecap="round" stroke-linejoin="round" stroke-miterlimit="10" stroke-width=".5" d="M146.49219 440.45313l.54297 1.09765m12.4453-3.9375l-4.32812 5.53906m13.8711-5.89453l3.21484 6.25m-2.7461-5.33984l.69923-1.00781m11.99218.18359l3.52344 6.07813m-3.01172-5.19532l.64844-1.03906m12.59375-.0586l2.64453 6.50782m-2.26172-5.5625l.78906-.9414m12.97657-.23048l.98047 6.96094m-.83985-5.94531l.9961-.72266m13.4453-.23828l-1.55468 6.85156m1.32813-5.85546l1.18359-.32032m10.65234-.63672l1.85547 6.77735m-1.58594-5.79297l.89063-.83984m11.69531.01562l2.77735 6.45313m-2.375-5.51563l.76953-.95703m11.65625.27344l3.7461 5.9453m-3.19923-5.07812l.60938-1.0664m12.61719-.04297l2.83593 6.42969m-2.42578-5.4922l.75781-.96483m10.8125 1.05468l5.5 4.375m-4.69921-3.73828l.22265-1.20703M303 436.95703l1.5625 6.85156m-1.33594-5.85546l.92969-.80079m14.33203.00391l-2.78515 6.45313m2.78515-6.45313l2.44531-.19922m10.56641.08594l-2.17969 6.67969m2.17969-6.6797l2.41797-.42187m10.92969.4336l-2.2422 6.66015m2.2422-6.66015l2.42187-.40235m9.98438.22266l-.42579 7.01563m.36329-5.9922l1.11718-.51171m10.28907-.04688l3.51562 6.08594m-3.0039-5.19922l.65234-1.03906m11.13281 1.04297l5.55469 4.30469m-5.55469-4.3047l.41797-2.41796m.39063 3.04297l.20703-1.20703m11.64843 1.95703l6.85547 1.5586m-6.85547-1.5586l-.64062-2.36719m1.64062 2.59375l-.64453-2.36719m13.46094.97657l5.85156 3.88672m-5.85156-3.88672L407.61328 436m18.96875 2.5l-5.92969 3.76953m5.9297-3.76953l2.1328 1.21094m-2.99609-.66406l1.0664.60546m11.71094-2.41406l-3.1289 6.29297m3.1289-6.29297l2.45313-.07031m-2.91016.98437l1.22656-.03515m12.50782-.89844l-3.05078 6.32813m3.05078-6.32813l2.44922-.09766m-2.89454 1.01954l1.22657-.05079m12.08594-1.05078l-2.16016 6.6875m2.16015-6.6875l2.41797-.42968"/><g clip-path="url(#U)"><path fill="none" stroke="#000" stroke-linecap="round" stroke-linejoin="round" stroke-miterlimit="10" stroke-width=".5" d="M147.4961 426.73438l-6.9922.66796"/></g><path fill="none" stroke="#000" stroke-linecap="round" stroke-linejoin="round" stroke-miterlimit="10" stroke-width=".5" d="M146.48047 426.83203l.67578 1.02344m13.22656-2.5l-6.13672 3.42578m5.2461-2.92578l1.02734.66406m12.73047-1.79297l-5.24219 4.6836m4.48047-4l1.15234.42187m13.33985-.53125l-6.07031 3.53516m5.1875-3.01953l1.04297.64453m13.53906-.19922l-6.83985 1.61328m5.84375-1.3789l.8125.92187m13.04688-2.23438l-5.9336 3.76953m5.07032-3.21875l1.0664.60547m11.70703-2.41797l-3.125 6.29297m2.66797-5.3789l1.22657-.03516m13.58984-.08594l-5.21484 4.70703m4.45703-4.02343l1.15234.41797m11.36328-2.10157l-2.10156 6.70703m1.79688-5.73046l1.20703-.22657m11.60547-.90234l-.48438 7.01172m.41406-5.99219l1.1211-.5m13.72656-.08594l-3.41016 6.14453m2.91407-5.25l1.22656.01954m10.60547-1.34375l.54687 7.0039m-.46484-5.98437l1.03515-.66016m14.32032.15234l-3.69532 5.98047m3.15625-5.10937l1.22266.07812m12.38281-1.08593l-3.19922 6.2539m2.73438-5.34375l1.22656-.01953m13.07422-.5664l-4.24219 5.60546m4.24219-5.60547l2.42188.39063m10.72656-.50781l-3.90625 5.83984m3.90625-5.83984l2.4414.2461m10.35157-.53517l-2.86328 6.41797m2.86328-6.41797l2.4453-.16796m8.58985-.03125l1.69922 6.8164m-1.45312-5.82422l.91015-.8203m9.52344 2.76952l6.96484.9336m-6.96484-.9336l-.85547-2.29687m20.22266.36718l-5.13672 4.79297m5.13672-4.79297l2.32031.79688m-3.0664-.10156l2.3203.79687m11.89063-1.32422l-5.4336 4.45703m5.4336-4.45703l2.26172.94532m-3.05469-.29688l2.26563.94531m-3.05469-.29687l1.13281.47265m13.45313-2.10156l-4.8125 5.1211m4.8125-5.1211l2.36719.64453m-3.07032.10157l2.3711.64062m10.41406-2.13672l-2.34766 6.6211m2.34766-6.6211l2.42969-.36328m-2.76953 1.32813l2.42578-.36329m11.04297-.66406l-1.97657 6.7461m1.97657-6.7461l2.40625-.49219m-2.69141 1.47657l2.40234-.4961m12.375.1172l-4.33203 5.53515"/><g clip-path="url(#V)"><path fill="none" stroke="#000" stroke-linecap="round" stroke-linejoin="round" stroke-miterlimit="10" stroke-width=".5" d="M465.72656 424.30078l2.41797.42969"/></g><path fill="none" stroke="#000" stroke-linecap="round" stroke-linejoin="round" stroke-miterlimit="10" stroke-width=".5" d="M465.09766 425.10547l2.41406.42969m-3.04297.3789l2.41406.42578"/><g clip-path="url(#W)"><path fill="none" stroke="#000" stroke-linecap="round" stroke-linejoin="round" stroke-miterlimit="10" stroke-width=".5" d="M147.13672 412.16797l-6.27344 3.17187"/></g><path fill="none" stroke="#000" stroke-linecap="round" stroke-linejoin="round" stroke-miterlimit="10" stroke-width=".5" d="M146.22266 412.6289l1.0039.70704m12.75781-1.86719l-5.33984 4.5664m4.5625-3.90234l1.14453.44922m13.42578-.39453l-6.29297 3.13281m5.375-2.67578l1 .71094m13.51954-.34375l-6.8672 1.48437m6.8672-1.48437l1.58203 1.875m11.55469-2.45703l-6.51172 2.64453m6.51172-2.64453l1.8828 1.57422m11.08595-2.21875l-5.82032 3.9375m4.97656-3.36328l1.08204.57421m9.3164-2.58984l1.70313 6.8164m-1.45703-5.82421l.91406-.82031m9.73437 4.52343l6.54297-2.57031m-5.58984 2.19531l-.9336-.79687m19.56641-1.94531l-5.9961 3.66406m5.1211-3.13281l1.0586.625m9.07421-2.67579l2.1172 6.69922m10.23046-6.21875l4.05078 5.74219m11.47656-6.3789l-.37109 7.01562m16.76563-4.80078l-6.53516 2.58203m19.71094-2.89063l-6.25391 3.20313m5.34375-2.73828l1.00781.70312m13.33985-.90234l-6.5 2.67187m5.55468-2.28125l.94532.78125m12.6328-2.23437l-5.1328 4.79687m4.38671-4.10156l1.16016.39844m13.51953-.17578l-6.3711 2.96094m5.44532-2.53125l.97656.73828m12.71485-2.01172l-5.27344 4.64844m5.27344-4.64844l2.29687.86328m-3.0625-.1875l1.14844.4336m12.8711-1.17579l-5.15235 4.77735m5.15234-4.77735l2.32032.8086m-3.06641-.11329l1.15625.40235m13.1289-.83203l-5.59765 4.25m5.59766-4.25l2.22656 1.02734m-3.04297-.41016l2.23047 1.02735m11.09375-2.41407l-3.98438 5.78907m3.98438-5.78907l2.4375.27735m-3.01563.5664l2.4375.27735m11.1836-1.29297l-3.4375 6.1289m3.4375-6.1289l2.45312.0586m-2.95312.83593l2.45312.05469m12.11328-.3789l-4.9414 4.99218m4.9414-4.99219l2.35157.70313m-3.07032.02343l1.17579.35157m12.11328-1.64453l-3.44922 6.125m3.44922-6.125l2.45312.0625m-2.95703.82812l1.22656.03125m12.79297-.79687l-3.85156 5.875"/><g clip-path="url(#X)"><path fill="none" stroke="#000" stroke-linecap="round" stroke-linejoin="round" stroke-miterlimit="10" stroke-width=".5" d="M465.48828 410.8164l2.4414.22266"/></g><path fill="none" stroke="#000" stroke-linecap="round" stroke-linejoin="round" stroke-miterlimit="10" stroke-width=".5" d="M464.92578 411.67188l2.44531.22265m-3.0039.6289l1.22265.11329"/><g clip-path="url(#Y)"><path fill="none" stroke="#000" stroke-linecap="round" stroke-linejoin="round" stroke-miterlimit="10" stroke-width=".5" d="M146.67188 398.15625l-5.34375 4.5664"/></g><path fill="none" stroke="#000" stroke-linecap="round" stroke-linejoin="round" stroke-miterlimit="10" stroke-width=".5" d="M146.67188 398.15625l2.28125.89844m10.86328-1.08203l-5.00391 4.92968m5.0039-4.92968l2.34376.73437m11.65625.2461l-6.3711 2.96875m6.3711-2.96875l1.95703 1.48046m11.67578-.26953l-7.00781.54688m7.0078-.54688l1.31642 2.07031m11.75-3.11718l-6.51172 2.64453m6.51172-2.64453l1.8828 1.57422m9.15626-3.625l-1.96094 6.74609m1.67578-5.76563l1.20313-.25m14.91015 2.26954l-6.98828.74218m5.97266-.6328l.6875 1.01562m12.7461-3.1211l-5.19142 4.73828m5.19141-4.73828l2.3125.82422m11.73438.41016l-6.65235 2.26562m6.65235-2.26562l1.78906 1.67969m-2.75781-1.34766l.89453.83984m13.08594-1.82812l-6.04688 3.58203m6.04688-3.58203l2.09375 1.27344m-2.97266-.75391l1.04687.63672m13.33985-.78125l-6.4336 2.82812m6.4336-2.82812l1.92578 1.51953m10.48437-2.75l-4.625 5.28906m4.625-5.28906l2.39063.5586m10.66406-.76563l-4.10547 5.70312m4.10547-5.70312l2.4336.33203m11.85156 4.3164l-6.04297-3.58984m5.16406 3.0664l-.0586 1.22657m13.19532.41406l-3.92578-5.82812m3.35547 4.98047l-.57813 1.08203m9.40625-4.8164l6.1875 3.33593m-5.28515-2.84766l.0039-1.23047m18.3711 4.4375l-5.73829-4.05468m4.90235 3.46484l-.15235 1.21875m14.125-4.91797l-5.3789 4.52344m5.3789-4.52344l2.27344.91797m-3.0586-.25781l2.27735.91797m11.39844-2l-4.53125 5.37109m4.53125-5.3711l2.39844.51563m-3.0586.26563l2.39844.51562m12.02734-.83984l-5.43359 4.45703m5.4336-4.45703l2.26562.9414m-3.05469-.29296l1.1289.47265m12.98829-1.10547l-5.46094 4.42188m5.46094-4.42188l2.25781.96094m-3.05078-.3164l1.1289.48046m12.5586-1.5586l-4.6211 5.29298m4.6211-5.29297l2.39063.55469m-3.0625.21484l1.1953.27734m12.66798-1.15234l-4.3711 5.5m4.3711-5.5l2.41406.44922m-3.05078.35156l2.41406.44922m12.07422-.72266l-5.4414 4.44532m5.4414-4.44532l2.26172.94922m-3.05469-.30078l1.13281.47266m12.83594-1.27735l-5.16797 4.76172"/><g clip-path="url(#Z)"><path fill="none" stroke="#000" stroke-linecap="round" stroke-linejoin="round" stroke-miterlimit="10" stroke-width=".5" d="M466.14453 398.0586l2.3164.8125"/></g><path fill="none" stroke="#000" stroke-linecap="round" stroke-linejoin="round" stroke-miterlimit="10" stroke-width=".5" d="M465.39453 398.75l2.3125.8125"/><g clip-path="url(#aa)"><path fill="none" stroke="#000" stroke-linecap="round" stroke-linejoin="round" stroke-miterlimit="10" stroke-width=".5" d="M147.26953 385.83984l-6.53906 2.56641"/></g><path fill="none" stroke="#000" stroke-linecap="round" stroke-linejoin="round" stroke-miterlimit="10" stroke-width=".5" d="M146.32031 386.21484l.92969.79688m13.40625-.96875l-6.6836 2.16015m6.6836-2.16015l1.76563 1.70703m-2.73829-1.39453l.88282.85547m12.70312-2.40625l-5.28125 4.63672m5.28125-4.63672l2.29688.8711m-3.0625-.19532l1.14453.4336m11.4336-2.1172l-2.27345 6.65235m2.27344-6.65235l2.42188-.38671m8.5.42968l2.51172 6.56641m-2.51172-6.5664l1.61328-1.84766m16.46484 4.90234l-7.01172.45703m5.99219-.39062l.64453 1.04297m13.6211-1.61329l-6.875 1.46485m5.875-1.25l.78906.9375m11.75781-3.51172l-3.33984 6.1836m2.85547-5.28516l1.22656.00781m14.01562.55469l-6.22265 3.26172m6.22265-3.26172l2.02735 1.38281m-2.9336-.91016l1.01172.69532m12.84766-1.72266l-5.5039 4.3711m5.5039-4.3711l2.25.98438m11.10937-.9297l-5.58984 4.26173m5.58984-4.26172l2.23047 1.02344m10.73047-1.42188l-4.8789 5.0586m4.8789-5.0586l2.35938.67578m10.40234-1.10937l-3.77344 5.92578m3.77344-5.92578l2.44531.1914m12.41406 2.01953l-6.86328 1.50391m6.86328-1.5039l1.58985 1.87109m-2.58594-1.65235l.79297.9375m12.32031-3.11718l-4.46484 5.42578m4.46484-5.42578l2.40235.48437m11.55468.20703l-5.75 4.04297m5.75-4.04297l2.1875 1.11328m-3.02344-.52343l1.09375.55468m13.50391-.26171l-6.64453 2.27734m6.64453-2.27735l1.79297 1.67579m-2.75781-1.34375l.89453.83593m12.76953-2.26953l-5.41406 4.48047m5.41406-4.48047l2.26953.9375m-3.05469-.28515l2.26563.9375m11.67578-1.76954l-5.09375 4.83985m5.09375-4.83985l2.32813.77735m-3.07032-.07422l2.32813.77734m11.84765-1.34765l-5.33203 4.57422m5.33203-4.57422l2.28516.89453M398.875 385.5l2.28516.89453m11.35156-2.0039l-4.42188 5.46484m4.42188-5.46485l2.41015.46875m-3.05468.32813l1.20703.23438m12.33203-1.32422l-3.57813 6.05078m3.57813-6.05078l2.44922.11328m10.85547-.11719l-3.5586 6.0586m3.5586-6.0586l2.45312.10547m-2.96875.77734l2.44922.10156m12.46485.00782l-5.72657 4.07422m5.72656-4.07422l2.19532 1.09765m10.92969-1.34375l-5.34375 4.56641"/><g clip-path="url(#ab)"><path fill="none" stroke="#000" stroke-linecap="round" stroke-linejoin="round" stroke-miterlimit="10" stroke-width=".5" d="M466.23438 384.83984l2.28125.89844"/></g><path fill="none" stroke="#000" stroke-linecap="round" stroke-linejoin="round" stroke-miterlimit="10" stroke-width=".5" d="M465.45703 385.5039l1.14063.44923"/><g clip-path="url(#ac)"><path fill="none" stroke="#000" stroke-linecap="round" stroke-linejoin="round" stroke-miterlimit="10" stroke-width=".5" d="M145.30469 370.54688l-2.60938 6.52343"/></g><path fill="none" stroke="#000" stroke-linecap="round" stroke-linejoin="round" stroke-miterlimit="10" stroke-width=".5" d="M160.82422 373.59766l-7.01563.42187m5.9922-.35937l.64062 1.04687m12.84765-3.19531l-5.32031 4.59375m5.32031-4.59375l2.28906.88672m9.77344-1.8125l-2.8125 6.4414m2.40235-5.5039l1.22265-.09375m13.8164.15234l-5.4375 4.45313m5.4375-4.45313l2.26173.94531m11.27734-.64062l-5.88672 3.83984m5.88672-3.83984l2.14844 1.1875m10.97266-1.45313l-5.5 4.3711m5.5-4.3711l2.25.98047m-3.05079-.34375l1.125.49219m13.75391.97656l-7.02734.16406m7.02734-.16406l1.20313 2.14063M239.6953 373.75l.60156 1.07031m13.72266-.67578l-6.9961-.67578m5.97657.57813l.46875 1.1328m12.98047-3.72265l-5.22656 4.70313m5.22656-4.70313l2.30469.83985m11.05078-.79297l-5.3086 4.60546m5.3086-4.60546l2.28906.8828m11.48828-.19921l-6.23437 3.24219m6.23437-3.24219l2.02344 1.39063m11.66797-.14844l-6.98438.75781m6.98438-.75781l1.3789 2.03125m9.97266-4.8164l-3.0586 6.32421m3.0586-6.32422l2.45312-.08984m11.44141.4414l-4.21484 5.6211m4.21484-5.6211l2.42578.37891m11.58203.3125l-5.60547 4.24219m5.60547-4.24219l2.22657 1.03516m-3.04297-.41797l1.11328.51562m13.16406-.92187l-5.89453 3.82031m5.89453-3.82031l2.14453 1.1914m-3-.63671l1.07031.59765m13.57813-.01953l-6.85156 1.55469m6.85156-1.55469l1.60547 1.85547m-2.60156-1.6289l.80078.92577m13.08984-2.1953l-6.00781 3.64062m6.00781-3.64063l2.10938 1.2539m11.01171-1.54296l-5.62109 4.21875m5.6211-4.21875l2.22265 1.04297m-3.03906-.42969l1.10937.52344M413 371.55859l-5.39844 4.5m5.39844-4.5l2.27344.92579m-3.0586-.26954l1.13672.46094m12.67578-1.42578l-4.8203 5.11719m4.8203-5.11719l2.3672.64844m10.13671-1.21875l-3.19922 6.25781m3.19922-6.25781l2.45312-.03906m9.97657-.27344l-1.42969 6.88281m1.42969-6.88281l2.35547-.6875m11.8828 1.01953l-3.27343 6.21875m2.79688-5.3164l1.22656-.00391"/><g clip-path="url(#ad)"><path fill="none" stroke="#000" stroke-linecap="round" stroke-linejoin="round" stroke-miterlimit="10" stroke-width=".5" d="M143.7461 356.98828l.5078 7.00781"/></g><path fill="none" stroke="#000" stroke-linecap="round" stroke-linejoin="round" stroke-miterlimit="10" stroke-width=".5" d="M160 362.75781l-5.3711-4.53125m4.58985 3.8711l-.25781 1.19921m15.0664-1.90625l-6.79297-1.79296m5.8047 1.53125l.28124 1.1953m13.96485-.73827l-6.6797-2.1875m20.03907 2.04297l-6.76562-1.89454m5.78125 1.6172l.26172 1.19921m13 .7461l-4.69141-5.23438m4.00781 4.47266l-.42187 1.15234m15.55078-3.51172L220.41406 361m20.07422-1.76172l-6.5664 2.51172m5.60937-2.14844l.92578.8086m13.2539 1.55468l-6.3828-2.9414m19.59375 3.15234L260.75 358.8125m5.27344 2.875l-.01563 1.22656m14.16797-.63281l-6.04687-3.57813m5.16406 3.0586l-.05469 1.22656m14.57031-3.58203l-6.68359 2.17188m5.71094-1.85547l.88281.85156M307 359.08203l-6.4375 2.82422m5.5-2.41406l.96094.76172m10.70312-3.21875l-1.26172 6.91406m1.07813-5.90625l1.16797-.3711m14.58594.81641L327.52734 362.5m4.9297-3.42969l1.08984.5625m13.42968-.47265l-6.5039 2.66406m5.55859-2.27344l.94531.78125m13.49219.9336l-6.85547-1.54297m5.85938 1.3164l.32422 1.1836m13.97265-2.5625l-6.82812 1.66406m6.82812-1.66406l1.63281 1.83203m11.33204-2.71875l-6.12891 3.4375m6.1289-3.4375l2.06641 1.32812m10.65235-2.10937l-4.9336 5.0039m4.9336-5.0039l2.35156.69922m10.38281-1.16407l-3.76953 5.9297m3.76953-5.9297l2.44531.19141m-2.9961.67188l1.22267.09375m12.36328-1.1172l-3.21094 6.25m3.21094-6.25l2.45312-.03515m-2.92187.94531l1.22656-.01953m12.26172-1.02344l-2.6211 6.51954m2.6211-6.51954l2.4414-.26171m10.09375.04687l-1.05859 6.94531m1.0586-6.9453l2.3125-.8125m12.4453 1.3789l-3.9453 5.8164m3.37109-4.97265l1.21875.13281"/><g clip-path="url(#ae)"><path fill="none" stroke="#000" stroke-linecap="round" stroke-linejoin="round" stroke-miterlimit="10" stroke-width=".5" d="M146.85938 345.13672l-5.71875 4.08203"/></g><path fill="none" stroke="#000" stroke-linecap="round" stroke-linejoin="round" stroke-miterlimit="10" stroke-width=".5" d="M146.02734 345.73047l1.09766.54687m12.38281 3.64844l-4.38281-5.4961m3.74219 4.69532l-.48438 1.125m11.23828.29297l2.01953-6.73047m-1.72656 5.75l-1.20312.24219m14.52344.8125l1.42187-6.8789m-1.21484 5.8789l-1.17578.34375m14.14843.625l1.69531-6.8164m-1.44921 5.82421l-1.19141.30078m12.57422-.28125l5.0625-4.8711m-4.32422 4.16407l-1.16797-.38281m14.07031 1.39062l4.41407-5.46875m-3.77344 4.67188l-1.20313-.23438m12.94922-.11719l6.26953-3.17187m-5.35547 2.70703l-1.0039-.70312m13.17578.60156l6.72656-2.03906m-5.7461 1.74218l-.86718-.87109m13.3125 1.47656l6.5039-2.66015m-5.55468 2.27343l-.94531-.78515m14.76172 2.85937l3.60547-6.03125m-3.08204 5.15235l-1.22265-.0625m14.55468 1.20312l2.52735-6.5586m-2.16016 5.60548l-1.21875.14843m18.45703-.6914l-6.05468-3.5664m5.17578 3.04687l-.05469 1.22656m11.3125-6.0039l-.1836 7.02734m10.41797-5.35938l5.98047 3.6914m-5.11328-3.15234l.07813-1.22656m17.85937.0664l-5 4.9336M345.5 345.4297l1.17187.36719m13.6211.05078l-6.5039 2.66015m6.5039-2.66015l1.88672 1.5703m10.54297-2.83593l-4.73047 5.19531m18.48437-4.71093l-5.61328 4.22656m4.79688-3.61328l1.11328.51953m12.51953-1.67188l-4.61328 5.30079m3.9414-4.53125l1.19532.27734m11.54296-1.7461l-2.11718 6.69922m1.8086-5.72265l1.20702-.22656m12.38672-.75782l-2.0586 6.71875m2.0586-6.71875l2.41016-.46875m11.28515.60938l-2.8203 6.4336m2.8203-6.4336l2.44922-.1875m-2.85937 1.1211l1.22656-.08985m12.88672-.64453l-3.59375 6.03906m3.59375-6.03906l2.44922.11718m12.16797 1.2461l-6.19922 3.3086m5.29687-2.82813l1.01953.68359"/><g clip-path="url(#af)"><path fill="none" stroke="#000" stroke-linecap="round" stroke-linejoin="round" stroke-miterlimit="10" stroke-width=".5" d="M146.9375 331.9375l-5.875 3.85156"/></g><path fill="none" stroke="#000" stroke-linecap="round" stroke-linejoin="round" stroke-miterlimit="10" stroke-width=".5" d="M146.9375 331.9375l2.15234 1.17969m11.4375-.67188l-6.42578 2.83594m5.49219-2.42578l.96484.75781m11.92578-2.73437l-3.70703 5.96875m3.16797-5.10157l1.22266.08204m13.5-.1836l-5.44531 4.4375m4.65234-3.79297l1.13281.47656m7.11719-.48828l6.26953 3.17188m8.92578 1.69531l2.51172-6.5625m12.79297 6.71875l-1.46875-6.875m1.2539 5.875l-.9375.78906m12.08204-.125l3.30078-6.20312m-2.82031 5.30078h-1.22657m12.77344-.27344l5.8789-3.85156m6.89063 2.36719l6.96875-.88281m-5.95703.7539l-.70703-1m13.0039 1.09375l6.98048-.8125m-5.96485.69531l-.69531-1.0078m13.17187 1.8828l6.62891-2.32812m-5.66406 1.98828l-.90235-.82813m15.25782 3.26563l2.61718-6.52344m-2.23828 5.57422l-1.21875.1289m14.72656.9922l1.47266-6.8711m9.10547 2.89844l6.94531 1.07812m-5.9336-.92187l-.40234-1.16016m12.69141 1.10156l6.97266.87891m-5.95703-.75l-.4336-1.14453m13.69922 3.90625l5.04297-4.89844m-4.3086 4.1836l-1.16796-.375m12.78515-1.80079l6.96875.88282m7.07032 1.73437l5.51953-4.35156m-4.71485 3.71875l-1.12109-.4961m13.3086.63673l6.16796-3.3711m-5.26953 2.88281l-1.02344-.67578m15.34375-3.82812l2.36328 6.61719m-2.01953-5.65625l.82422-.90625m14.40235-.08985l-2.15235 6.6875m1.83985-5.71484l1.20703-.21875m12.64453-.67578l-2.60156 6.52734m2.60156-6.52734l2.4414-.26563m12.2422 1.24219l-5.33204 4.57812m5.33203-4.57812l2.28516.89453M467 333.13281l-6.875 1.46094"/><g clip-path="url(#ag)"><path fill="none" stroke="#000" stroke-linecap="round" stroke-linejoin="round" stroke-miterlimit="10" stroke-width=".5" d="M467 333.13281l1.57422 1.8789"/></g><g clip-path="url(#ah)"><path fill="none" stroke="#000" stroke-linecap="round" stroke-linejoin="round" stroke-miterlimit="10" stroke-width=".5" d="M146.91797 318.59375l-5.83594 3.91016"/></g><path fill="none" stroke="#000" stroke-linecap="round" stroke-linejoin="round" stroke-miterlimit="10" stroke-width=".5" d="M146.91797 318.59375l2.16406 1.16016m11.4336-.65235l-6.40235 2.89453m6.40234-2.89453l1.94141 1.4961m11.29688-1.66016l-6.2461 3.21875m6.2461-3.21875l2.01562 1.39844m11.29297-1.41016l-6.23438 3.2461m6.23438-3.2461l2.01953 1.38672m11.28906-1.39844l-6.22265 3.26563m5.3164-2.78906l1.01563.6914m13.51562-.32812l-6.84375 1.58984M213 319.98437l.8086.92579m13.36718-1.60938l-6.57031 2.49219m5.61328-2.1289l.92188.80859m12.95312-1.9297l-5.77344 4.00782m4.9336-3.42187l1.08984.55859m12.85547-1.41016l-5.35938 4.54297m4.58203-3.88281l1.13672.45313M266 317.77733l-4.32813 5.53907m3.69922-4.73047l1.20703.21094m12.5-1.1875l-3.85546 5.875m15.10937-6.44922l.26953 7.02343m13.85157-.0625l-1.34375-6.89843m12.27734 6.51953l3.41797-6.14063m-2.92188 5.25l-1.22656-.02344m12.41016-3.23828l6.6875 2.16407m-5.71485-1.84766l-.21093-1.20703m12.40234 1.6289l6.99219.6875m-5.97657-.58593l-.46484-1.13672m12.82813 2.13281l6.86328-1.5039m-5.86328 1.28515l-.79688-.9336m13.4336-1.23827l6.21874 3.27343m-5.3125-2.79687l-.0039-1.22656m13.28906 5.10156l4.46484-5.42578m-3.8125 4.63672l-1.20312-.2461m12.7461-.6289l6.70702-2.09766m-5.73046 1.79297l-.875-.86328m13.05859.33594l7.01562-.4375m-5.99218.375l-.64453-1.04688m14.03515-1.66406l4.82031 5.11328m-4.12109-4.3711l.39453-1.16015m14.89063-.53125l-.51953 7.00781m.4414-5.98828l1.125-.49219m14 .08203l-3.98437 5.78907m3.40625-4.94532l1.21875.14063m14.08203 1.01953l-6.79688 1.78125"/><g clip-path="url(#ai)"><path fill="none" stroke="#000" stroke-linecap="round" stroke-linejoin="round" stroke-miterlimit="10" stroke-width=".5" d="M466.96094 319.65625l1.66406 1.80469"/></g><path fill="#00f" fill-rule="evenodd" d="M383.80078 436.57813h8.61719v-10.14454h-8.61719v10.14454"/><path fill="azure" fill-rule="evenodd" d="M385.63281 428.26563h.83203v2.82421h3.28907v-2.82421h.83203v6.48046h-.83203v-2.91406h-3.28907v2.91406h-.83203v-6.48046"/><path fill="#ff3030" fill-rule="evenodd" d="M384.4961 414.38672h7.6914v-10.14453h-7.6914v10.14453"/><path fill="azure" fill-rule="evenodd" d="M386.32813 406.07422h.83203v5.74219h3.1953v.73828h-4.02733v-6.48047"/><path fill="#ffffe0" fill-rule="evenodd" d="M332.86719 361.4375h22.17969v-10.1914h-22.1797v10.1914"/><path fill-rule="evenodd" d="M336.36719 353.07813h.50781v6.29296h-.78516v-4.48828h-1.39062v-.55469l.5625-.0664.25-.05469.23047-.08984.20312-.14063.17578-.21094.14063-.29296.10547-.39454m4.8125 0l.23047.01954.21875.05468.20703.08985.19531.1211.1875.14843.16797.17578.30469.41797.24218.4961.1797.54687.11327.57812.03516.58985-.03516.59375-.11328.58593-.17969.55079-.24218.5039-.3047.42969-.16796.17969-.1875.15234-.19531.1211-.20703.09374-.21875.0586-.23047.01953-.23047-.01953-.21875-.0586-.20703-.09375-.19531-.12109-.1836-.15234-.17187-.1797-.30079-.42968-.24609-.5039-.17969-.55079-.10937-.58593-.03906-.59375h.83203l.03125.5625.08203.5078.125.44142.16015.375.19141.30078.21094.22265.22265.13672.22657.04688.22656-.04688.22266-.13672.21093-.22265.19141-.30079.16016-.375.1289-.4414.08203-.50781.02735-.5625-.02735-.5586-.08203-.5039-.1289-.4336-.16016-.36719-.1914-.28906-.21094-.21484-.22266-.13281-.22656-.04297-.22656.04297-.22266.1328-.21094.21485-.1914.28906-.16016.3672-.125.43359-.08203.5039-.03125.5586h-.83203l.03906-.58985.10937-.57812.1797-.54688.24608-.4961.30079-.41796.17187-.17578.1836-.14844.1953-.1211.20704-.08984.21875-.05468.23047-.01954m5.09375 0h.50781v6.29297h-.78906v-4.48828h-1.38672v-.55469l.5586-.0664.2539-.05469.23047-.08984.20312-.14063.17188-.21094.14062-.29296.10938-.39454m2.82031 2.17579h.78906l.01953-.31641.0586-.28906.09765-.25.14063-.21485.1836-.17578.22265-.1289.26562-.07813.3086-.02734.23437.01953.22656.0625.20313.10156.17969.13672.14844.17578.11328.20313.0703.23828.02735.26562-.02344.26563-.0664.22656-.10938.1914-.15625.17188-.19921.16016-.2461.16797-.63672.38671-.53515.31641-.4375.3164-.34766.32423-.26172.33593-.1914.35157-.125.36718-.07032.39454-.01953.41796h4.21094v-.73828h-3.33203l.08203-.28515.11328-.23829.14844-.19921.1875-.1797.23047-.17187.28125-.17578.71484-.41797.41797-.20312.34375-.23438.28125-.25.21875-.26562.16406-.27735.10938-.28515.0664-.28516.01953-.28125-.04296-.38281-.1211-.34766-.1875-.30859-.25-.26172-.30078-.21484-.34766-.15625-.3789-.10156-.40625-.03125-.4375.03125-.39844.09765-.35547.16797-.30469.23438-.24609.30468-.1875.375-.11328.44531-.04297.51954"/><path fill="#ffffe0" fill-rule="evenodd" d="M236.05078 419.0586h22.17969v-10.19141h-22.17969v10.1914"/><path fill-rule="evenodd" d="M239.55078 410.69922h.50781v6.29297h-.78906v-4.48828h-1.38672v-.5547l.5586-.0664.2539-.05469.23047-.08984.20313-.14062.17187-.21094.14063-.29297.10937-.39453m4.8125 0l.23047.01953.21875.05469.20703.08984.19531.1211.1836.14843.17187.17578.30078.41797.2461.4961.17969.54687.10937.57813.03906.58984-.03906.59375-.10938.58594-.17968.55469-.2461.5-.30078.42968-.17187.17969-.1836.15234-.1953.1211-.20704.09375-.21875.0586-.23047.01952-.23047-.01953-.21875-.0586-.20703-.09374-.19531-.1211-.1875-.15234-.16797-.17969-.30469-.42969-.24219-.5-.17968-.55468-.11328-.58594-.03516-.59375h.83203l.02734.5625.08204.50781.125.4414.16406.375.1914.30079.21094.22266.22266.13671.22656.04688.22656-.04688.22266-.13671.21094-.22266.1914-.30078.16016-.375.125-.4414.08203-.50782.03125-.5625-.03125-.5586-.08203-.5039-.125-.4336-.16016-.36718-.1914-.28906-.21094-.21485-.22266-.13281-.22656-.04297-.22656.04297-.22266.13281-.21094.21485-.1914.28906-.16406.36719-.125.43359-.08203.5039-.02735.5586h-.83203l.03516-.58984.11328-.57813.17969-.54687.24218-.4961.30469-.41797.16797-.17578.1875-.14844.19531-.12109.20703-.08984.21875-.05469.23047-.01953m5.08984 0h.51172v6.29297h-.78906v-4.48828h-1.38672v-.5547l.5586-.0664.2539-.05469.22656-.08984.20313-.14062.17578-.21094.14063-.29297.10547-.39453m2.82421 2.17578h.78516l.01953-.3164.0625-.28516.09766-.2539.14062-.21485.17969-.17578.22266-.12891.26562-.07813.3086-.02734.23828.01953.22265.0625.20703.10156.17578.14063.15235.17188.10937.20703.07422.23437.02344.26563-.01953.26562-.0664.22656-.10938.19141-.15625.17188-.19922.16015-.25.16797-.63281.39063-.53907.3125-.4375.3164-.34375.32422-.26562.33594-.1914.35156-.125.36719-.06641.39453-.02344.41797h4.21484v-.73828h-3.33203l.08203-.28516.11328-.23828.14844-.19922.1875-.17969.23047-.17187.27734-.17578.71875-.41797.41407-.20313.34765-.23047.27735-.2539.22265-.26563.16406-.27734.10938-.28516.0625-.28515.02344-.28125-.04297-.38282-.1211-.34765-.1875-.3086-.25-.26171-.30468-.21485-.34375-.15625-.38281-.09765-.40625-.03516-.4336.03125-.39844.10156-.35547.16406-.30468.23438-.25.30469-.1836.375-.11718.4453-.03907.51954"/><path fill="#ffffe0" fill-rule="evenodd" d="M300.51953 459.0039h22.17969v-10.1914h-22.17969v10.1914"/><path fill-rule="evenodd" d="M304.01953 450.64453h.50781v6.29297h-.78515v-4.48828h-1.39063v-.55469l.5625-.0664.25-.0547.23047-.08984.20313-.14062.17578-.21094.14062-.29297.10547-.39453m4.8125 0l.23047.01953.21875.05469.20703.08984.19922.1211.1836.14844.17187.17578.30078.41796.24219.4961.17969.54687.11328.57813.03515.58984-.03515.59375-.11329.58594-.17968.55078-.24219.5039-.30078.4297-.17188.17968-.18359.15235-.19922.12109-.20703.09375-.21875.0586-.23047.01952-.22656-.01953-.22266-.05859-.20703-.09375-.19531-.1211-.1836-.15234-.17187-.17969-.30078-.42968-.2461-.5039-.17968-.55079-.10938-.58594-.03906-.59375h.83203l.03125.5625.08203.50781.125.44141.16406.375.1875.30078.21094.22266.22266.13672.22656.04687.22656-.04687.22266-.13672.21094-.22266.1914-.30078.16407-.375.125-.4414.08203-.50782.02734-.5625-.02734-.5586-.08203-.5039-.125-.4336-.16407-.36718-.1914-.28906-.21094-.21485-.22266-.1328-.22656-.04298-.22656.04297-.22266.13281-.21094.21485-.1875.28906-.16406.36719-.125.4336-.08203.5039-.03125.5586H306.75l.03906-.58985.10938-.57813.17969-.54687.24609-.4961.30078-.41796.17188-.17579.18359-.14843.19531-.1211.20703-.08984.22266-.05469.22656-.01953m5.09375 0h.50781v6.29297h-.78515v-4.48828h-1.39063v-.55469l.5586-.0664.2539-.0547.23047-.08984.20313-.14062.17187-.21094.14453-.29297.10547-.39453m2.82031 2.17578h.78907l.01953-.3164.0586-.28907.10155-.25.13672-.21484.1836-.17578.22265-.1289.26563-.07813.3086-.02735.23827.01954.22266.0625.20312.10156.1797.13672.14843.17578.11328.20703.07031.23437.02735.26563-.02344.26562-.0664.22657-.10938.1914-.15625.17188-.19922.16015-.2461.16797-.63671.38672-.53516.3164-.4375.31641-.34766.32422-.26171.33594-.19141.35156-.125.36719-.07031.39453-.01954.41797h4.21094v-.73828h-3.33203l.08203-.28516.11328-.23828.14844-.19922.1875-.17969.23047-.17187.28125-.17578.71484-.41797.41797-.20313.34375-.23437.28125-.25.21875-.26563.16406-.27734.11329-.28515.0625-.28516.01953-.28125-.04297-.38281-.11719-.34766-.1914-.3086-.25-.26171-.30079-.21485-.34765-.15625-.3789-.10156-.40626-.03125-.4375.03125-.39844.10156-.35156.16407-.30469.23437-.25.30469-.1875.375-.11328.44531-.04297.51953"/><path fill="#ffffe0" fill-rule="evenodd" d="M213.03125 345.71484h22.17969v-10.1914h-22.17969v10.1914"/><path fill-rule="evenodd" d="M216.53125 337.35547h.50781v6.29687h-.78515v-4.49218h-1.39063v-.5547l.5625-.0664.25-.05078.23047-.08984.20313-.14063.17578-.21094.14062-.29687.10547-.39453m4.8125 0l.23047.01953.21875.05469.20703.08984.19922.1211.1836.14843.17187.17578.30078.42188.24219.49219.17968.54687.11328.57813.03516.59375-.03516.58984-.11328.58594-.17968.55469-.2422.5-.30077.42968-.17188.17969-.1836.15234-.19921.125-.20703.08985-.21875.0586-.23047.01952-.22656-.01953-.22266-.0586-.20703-.08984-.19531-.125-.1836-.15234-.17187-.17969-.30078-.42969-.2461-.5-.17968-.55468-.10938-.58594-.03906-.58984h.83203l.03125.5625.08203.5039.125.44531.16406.375.1875.29688.21094.22266.22266.13671.22656.04688.22656-.04688.22266-.13671.21094-.22266.1914-.29688.16406-.375.125-.4453.08204-.50391.02734-.5625-.02734-.5625-.08203-.5-.125-.4375-.16407-.36329-.1914-.29296-.21094-.21485-.22266-.13281-.22656-.04297-.22656.04297-.22266.13281-.21094.21485-.1875.29296-.16406.36329-.125.4375-.08203.5-.03125.5625h-.83203l.03906-.59375.10938-.57813.17968-.54687.2461-.4922.30078-.42187.17187-.17578.1836-.14844.19531-.12109.20703-.08984.22266-.05469.22656-.01953m5.09375 0h.50781v6.29687h-.78515v-4.49218h-1.39063v-.5547l.5586-.0664.2539-.05078.23047-.08984.20313-.14063.17187-.21094.14453-.29687.10547-.39453m6.80078 1.6211h-.78516l-.05078-.21094-.08203-.1875-.10937-.16016-.1289-.1289-.14454-.10548-.16016-.07421-.16797-.04297-.17578-.01563-.32422.03906-.28906.1211-.2461.19531-.20312.26953-.16015.33594-.11719.40625-.07031.46484-.02344.52735.1875-.20313.1875-.16015.1875-.1211.1836-.08594.1875-.0625.1914-.03515.40234-.02344.3086.02734.32031.09375.3164.15625.29298.21875.2539.28516.19922.34766.07422.20312.05078.21485.03125.23437.0039.2539-.78515.04688-.02734-.26172-.07813-.25-.125-.23437-.16016-.21094-.1914-.17578-.21875-.13672-.24219-.08984-.2539-.03125-.25391.03125-.24219.08984-.21875.13672-.19531.17578-.16016.21094-.1211.23437-.07812.25-.02734.26172.02734.25781.07813.25.1211.23438.16015.21094.19531.17968.21875.13672.24219.08594.2539.03125.25391-.03125.24219-.08594.21875-.13672.1914-.17968.16016-.21094.125-.23438.07813-.25.02734-.2578.78516-.04688-.03125.37109-.09375.3711-.15625.35937-.22266.32812-.28906.28125-.17188.1211-.1875.10156-.20703.08203-.22266.0625-.24218.03906-.25781.01172-.28516-.01562-.25781-.04688-.23828-.07812-.21485-.10547-.19531-.1289-.17578-.15626-.15235-.17969-.13672-.20312-.11718-.22266-.09766-.24218-.14844-.53516-.08203-.59375-.02734-.64063.03906-.74218.11328-.66406.1875-.57813.11719-.2539.13672-.23048.15625-.20703.16797-.18359.1875-.15625.20312-.1289.21485-.10157.23437-.07031.2461-.04688.26171-.01562.3672.03515.33202.09375.29688.15235.2539.19922.21485.24219.16406.27343.11719.30078.0586.32422"/></g></defs><use xlink:href="#aj"/></svg>