<svg xmlns="http://www.w3.org/2000/svg" role="img" xmlns:xlink="http://www.w3.org/1999/xlink" viewBox="142.45 309.95 326.84 171.84"><defs><clipPath id="a"><path d="M144 441h1v39.32813h-1zm0 0"/></clipPath><clipPath id="b"><path d="M144 311.67188h1V440h-1zm0 0"/></clipPath><clipPath id="c"><path d="M144 311.67188h324v168.65625H144zm0 0"/></clipPath><clipPath id="d"><path d="M351 478h8v2.32813h-8zm0 0"/></clipPath><clipPath id="e"><path d="M409 479h2v1.32813h-2zm0 0"/></clipPath><clipPath id="f"><path d="M467 471h1v9.32813h-1zm0 0"/></clipPath><clipPath id="g"><path d="M467 311.67188h1V472h-1zm0 0"/></clipPath><clipPath id="h"><path d="M144 479h4v1.32813h-4zm0 0"/></clipPath><clipPath id="i"><path d="M147 480h2v.32813h-2zm0 0"/></clipPath><clipPath id="j"><path d="M153 479h8v1.32813h-8zm0 0"/></clipPath><clipPath id="k"><path d="M160 480h2v.32813h-2zm0 0"/></clipPath><clipPath id="l"><path d="M167 479h8v1.32813h-8zm0 0"/></clipPath><clipPath id="m"><path d="M180 479h8v1.32813h-8zm0 0"/></clipPath><clipPath id="n"><path d="M193 479h9v1.32813h-9zm0 0"/></clipPath><clipPath id="o"><path d="M200 480h2v.32813h-2zm0 0"/></clipPath><clipPath id="p"><path d="M206 479h9v1.32813h-9zm0 0"/></clipPath><clipPath id="q"><path d="M213 479h3v1.32813h-3zm0 0"/></clipPath><clipPath id="r"><path d="M220 479h8v1.32813h-8zm0 0"/></clipPath><clipPath id="s"><path d="M227 479h3v1.32813h-3zm0 0"/></clipPath><clipPath id="t"><path d="M233 479h8v1.32813h-8zm0 0"/></clipPath><clipPath id="u"><path d="M240 480h2v.32813h-2zm0 0"/></clipPath><clipPath id="v"><path d="M246 479h9v1.32813h-9zm0 0"/></clipPath><clipPath id="w"><path d="M252 480h2v.32813h-2zm0 0"/></clipPath><clipPath id="x"><path d="M260 479h8v1.32813h-8zm0 0"/></clipPath><clipPath id="y"><path d="M266 480h1v.32813h-1zm0 0"/></clipPath><clipPath id="z"><path d="M273 478h8v2.32813h-8zm0 0"/></clipPath><clipPath id="A"><path d="M286 479h9v1.32813h-9zm0 0"/></clipPath><clipPath id="B"><path d="M292 480h2v.32813h-2zm0 0"/></clipPath><clipPath id="C"><path d="M300 479h8v1.32813h-8zm0 0"/></clipPath><clipPath id="D"><path d="M306 480h1v.32813h-1zm0 0"/></clipPath><clipPath id="E"><path d="M313 479h8v1.32813h-8zm0 0"/></clipPath><clipPath id="F"><path d="M319 480h2v.32813h-2zm0 0"/></clipPath><clipPath id="G"><path d="M326 478h8v2.32813h-8zm0 0"/></clipPath><clipPath id="H"><path d="M332 480h2v.32813h-2zm0 0"/></clipPath><clipPath id="I"><path d="M340 478h8v2.32813h-8zm0 0"/></clipPath><clipPath id="J"><path d="M355 476h4v4.32813h-4zm0 0"/></clipPath><clipPath id="K"><path d="M369 476h2v4.32813h-2zm0 0"/></clipPath><clipPath id="L"><path d="M381 477h5v3.32813h-5zm0 0"/></clipPath><clipPath id="M"><path d="M394 477h6v3.32813h-6zm0 0"/></clipPath><clipPath id="N"><path d="M407 477h6v3.32813h-6zm0 0"/></clipPath><clipPath id="O"><path d="M420 477h7v3.32813h-7zm0 0"/></clipPath><clipPath id="P"><path d="M433 478h8v2.32813h-8zm0 0"/></clipPath><clipPath id="Q"><path d="M433 480h3v.32813h-3zm0 0"/></clipPath><clipPath id="R"><path d="M447 477h7v3.32813h-7zm0 0"/></clipPath><clipPath id="S"><path d="M460 477h7v3.32813h-7zm0 0"/></clipPath><clipPath id="T"><path d="M144 465h4v4h-4zm0 0"/></clipPath><clipPath id="U"><path d="M144 451h4v5h-4zm0 0"/></clipPath><clipPath id="V"><path d="M144 437h3v6h-3zm0 0"/></clipPath><clipPath id="W"><path d="M466 438h2v3h-2zm0 0"/></clipPath><clipPath id="X"><path d="M144 424h4v6h-4zm0 0"/></clipPath><clipPath id="Y"><path d="M466 424h2v3h-2zm0 0"/></clipPath><clipPath id="Z"><path d="M465 425h3v2h-3zm0 0"/></clipPath><clipPath id="aa"><path d="M144 411h4v5h-4zm0 0"/></clipPath><clipPath id="ab"><path d="M466 411h2v3h-2zm0 0"/></clipPath><clipPath id="ac"><path d="M465 412h3v2h-3zm0 0"/></clipPath><clipPath id="ad"><path d="M144 399h4v3h-4zm0 0"/></clipPath><clipPath id="ae"><path d="M466 398h2v3h-2zm0 0"/></clipPath><clipPath id="af"><path d="M465 399h3v2h-3zm0 0"/></clipPath><clipPath id="ag"><path d="M144 385h4v4h-4zm0 0"/></clipPath><clipPath id="ah"><path d="M466 385h2v4h-2zm0 0"/></clipPath><clipPath id="ai"><path d="M144 371h4v6h-4zm0 0"/></clipPath><clipPath id="aj"><path d="M466 372h2v3h-2zm0 0"/></clipPath><clipPath id="ak"><path d="M144 357h3v7h-3zm0 0"/></clipPath><clipPath id="al"><path d="M466 358h2v3h-2zm0 0"/></clipPath><clipPath id="am"><path d="M144 344h3v7h-3zm0 0"/></clipPath><clipPath id="an"><path d="M466 345h2v3h-2zm0 0"/></clipPath><clipPath id="ao"><path d="M465 345h3v3h-3zm0 0"/></clipPath><clipPath id="ap"><path d="M144 331h4v6h-4zm0 0"/></clipPath><clipPath id="aq"><path d="M466 332h2v3h-2zm0 0"/></clipPath><clipPath id="ar"><path d="M465 332h3v3h-3zm0 0"/></clipPath><clipPath id="as"><path d="M144 319h4v3h-4zm0 0"/></clipPath><clipPath id="at"><path d="M466 318h2v2h-2zm0 0"/></clipPath><clipPath id="au"><path d="M465 318h3v3h-3zm0 0"/></clipPath><g id="av" clip-path="url(#clip1)"><path fill="#fff" fill-opacity="0" fill-rule="evenodd" d="M0 0h1000v1000H0zm0 0"/><path fill="#d3d3d3" fill-opacity="0" fill-rule="evenodd" d="M162.15234 355.86719l-.23437.29297.0586.23437.11718.17188.17578.23437.29297.34766.11328.0586.11719-.17188.0586-.23438.17577-.17578.46485-.17578h.69922l.23437.29297.28906.8164.0586.17579.17578.23046.35156.23438.69922.69922.17188.17578.23437.34765.23438.41016.28906.58203.41015.46485.23047.23437.23438.17578.11719.23047.17578.29297.17187 1.16406v.23438l.0586.28906.05859.11719.11719.11719.34765.41015.11719.17188.17578.17578.17578.23437.11719.17188.17188.35156.05859.23438.23437.40625.23438-.0586-.17578.17578-.0586.92969h-.58203l-.23437-.11328-.34766.11328-.11719.11719-.05859.29297-.0586.17578-.11718.17187-.46484.29297-.0586.23438-.0586.11328v.64453l.0586.17187v.41016l.0586.0586v.40624l.05859.40625.11719.17579.05859.05859.23047.64062-.0586.29297v.69922l-.05859.58203v.23438l-.0586.23047-.05468.35156v1.92187l.05469.1172h.42578l-.36719.11718-.02344.35156.89063 1.16797 1.74219.53906 1.33984.35938v.53906l.08984.8086.53516.71484 1.51953.26953.89063-.08594.08984 1.16406.53516.1797 1.16015-.1797 2.05469-.98437 1.16016-.36328 1.8789-.17578 1.69531-.1797-.17968.71876-1.51563.08594-1.25.08984-.80469.26953-1.07421.8086.26953.71875.53515.89843-.17968.625-.26563.8086.26563 1.07812.625.89844.80468.17969 1.25-.1797-.26562.72267.09766.5039.05468.29297v.17188l.0586.29296v.40625l.17578.1172.35156.11718h.40625l.29297-.17578.11328-.11719.0586-.11719.11718-.23047.0586-.17578.35156-.46484.23047-.17578.17578-.0586.17578.0586.0586.17578.11718.98828.05469.46875.0586.17188.11718.23437.17578.0586.8164.05859h.28907l.11719.23437.05859.40625.0586.35156v1.10547l.11718.29297.11719.34766.28906.69922.17578.35156.58203.7539.35157.17579.17187.0586.46875.23437.64063.46484.34765.23438.29297.17578.29297.05468.23047.0625.8164.34766.29297.17578.11328.17188.35157.35156.11719.17578.52343.64063v.28906l.0586.35156v.34766l.05859.35156.0586.28906.11718.0586.17188.05859h.17578l.58203.23437.17578.1172.17578.28905.17578.23438.11328.23437.29297.23047.11719.11719v.41016l.0586.05468.28906.23438.23437.11719.0586.11718.11718.17188.0586.11719.23047.23437.05859.17578.23437.0586.1172.05859-.1172.11328-.05859.11719v.11719l-.11719.29296-.11719.28907v.58203l.17579.11719.11718.05859.0586.11719.11719.11719.11328.05859.17578.34765.0586.35157.05858.40625v.17578l-.05859.17578-.11719.69922v.17187l.1172.17579.29296.29296h.40625l.17578.1172.11719.17187.11719.29296v.23438h-.52735l-.23047-.23438h-.23437l-.17578.0586-.0586.69922.0586.34765.11719.17579.17578.41015.11718.23047.28907.46875.17578.05469h.52344l.23437.0586.75781.64062.0586.29296v.23438l.05859.0586.23047.34765v.35156l-.11719.17188v.29297l.29297.28906.29297.17578.17187.0586.29297.17577.29297.1172.58203.40624.28906.23438.29297.17578.21875.16015.01563.01172.23047.17579.64062.52343.17578.23438.1172.17578.17577.17578.11328.17188v.64062l.1172.17578.46874.11719.58203.11719.23438.05859.23047.11328.29297.11719.11328.0586.58593.35156.28907.17187.17578.0625.17578.05469.17578.0586.69922.35155.28906.17579.23438.05468.28906.17578.23437.1172.64063.40624.29297.11719.17187.0586.23438.05859.41015.05859.23047.0586.23438.11718.0586.17188-.41017.17578.46875.0586.0586.29296.11328.23438.17578.05468.23438.0586.17578.05859.40625.11719.64062.23437.11719.17188.0586.23437v.17578l-.0586.1172-.0586.40624.23438.23438.11719.05859.34766.11719.64062.23047.17578.11718.28906.1172.17578.17577.23438.46485.58203 1.10546.17578.17579.34766.17578.17578.11719.35156.11718 1.04688.52344.23437.0586.46485.11327.29297.0586.46484.17578.75781.58203.23438.23438.34765.46484.17578.17578.28907.23438.8164.69921.29297.17579.28906.28906.29297.17578.29297.28906.69531.64063.17578.17578.29297.23437.28907.23438.46875.28906.64062.58203.34766.23438.23437.29297.34766.34765.35156.46485.9336.99218.34765.40625.11719.17579.23437.05859.11328.11719.64454.17578.23047.11328.23437.0586.29297.17577.23047.1172.9336.69921.40624.40625.23438.17578.40625.17578.23437.11719.8164.34766.34766.23437.23438.11719.29297.28906.23047.11719.7578.35156.35157.17188.23047.05859.29297.11719.23437.0586.8711.17577h.8164l.46875.23047.17188.0586.875.69921.46484.1172.29297.05858.17578.0586.23047.0586.46875.05859.34766.05859.35156.0586.40625.05859h.29297l.17187.0586v.23046l.17578.17578h.29297l.34766.0586.35156.05859.69922.11719h.64063l.46484-.23438.29297-.17578.17187-.11719.41016-.17187.28906-.17578.9336-.46485.46875-.29297.52343-.29296.46485-.17188.46484-.17578 1.05078-.46485.28906-.11718.41016-.11719.28906-.11719.52735-.17578 1.51562-.69922.58203-.34765.28907-.0586.29297-.0586.34765-.11718.875-.23047.35156-.11719h.11329l.23437-.05859.875-.23437.23438-.0586h.8125l.35156-.0586.8164-.11718.17188-.0586.35156-.05468.29297-.0586.23047-.05859.8164-.17578.17579-.0586h.34765l.23438-.05859.46484-.11718.75781-.17188.23438-.0586h.34765l.41016-.11718.28906-.0586 1.28516-.05859h.28906l.41016-.0586.23047-.05858h.17578l.875-.1172h.40625l.41015-.11718h.34766l.35156-.11328.8711-.0586h1.75l1.04687.28907.41016.11719.28906.11718.35156.11719.28907.11719 1.05078.17187.28906.0586h.29297l.29297.05859.17187.0586.41016.05859.17187.0586.1172.05858h.11718l.11719.0586.35156.0586h.11328l.41016.0664 1.92187.39453 1.92578.39453 1.51953.44922 1.69532.71875 2.14453.80469 1.60547-.71875 1.42968-.80469 1.16016-1.07813 1.25-.44921 3.03516-.71875 1.875-.35938 2.14453-1.34765 2.23437-1.25391 2.5-1.25781 1.69531-.44922 1.78516-.17969 1.16016-.26953.625.53906 1.33984-.26953.71485-.98828.98437-1.34375.44531-.17969.80469-.35937 1.875-.53907 1.78516-.44921 1.25-.26954 1.16015-.08984 1.69922-.08984 1.96094-.26954 1.25-.08984h.53906l.625-.08984h.89063l2.14453-.17969 2.41015-.17969 2.58985-.08984 1.69531.17969 1.60938.08984 1.42968.35938 1.16016.71875 1.875.98828 1.16015 1.52734.26563.71484.6289.08985.35548.89844.53515.53906.53516 1.52734 1.07422.35938h.53515l-.80469.53515.08985 1.70703.71484 2.69532.89063.80468.89453.98829.71484 1.2578 1.78516.53907 1.51953-.17969.35547 1.34375 1.60937-.80469.98047-.53906.26953.26953.31641-.21484.21875-.14453.80078.44922.44922-.35938h.35547l.53515-.26953.53907-.71875.53515-.26953.625-.98828 1.16016.44922.83984.3711 1.39454.61718 1.6953-.17969h1.60548l1.78515.08985.17969-1.70704.53516-1.34375.80468.26954.4922.84765.40233.40625-.08984.53906v.35938l.71485.44922.71093-.26953h1.42969l.35938.98828.4453 1.25781.71485 1.34375 1.25.6289 1.69531.62891.71485-.17969.17969-.53906.98046-.08984.44922.35937.08594 1.25782-.26563.6289-.53515.17969v.53906l.71484.98438.26563.53906.98437.98828.80078 1.07813-.26562.35937-.08985.89844-.625 2.33203-.35546 2.0664-.08985 1.79298-.17969.71875-.08984.53906v1.4375l-.98047 1.88281-.35937 1.70703-.53516.89844-.80469 1.16797-.26562.53906 2.05469 1.2539.08593.35938-.35546.53906-.08985-.17968v.80859l.08985 1.4375-.44532.71484-1.07422.09375-.26562.71485.53515.89844.8047.71875 1.16015.80859 1.33984.26953.44531.35938-.35546.44921-1.78907-.08984-1.25-.44922-.71484-.71875-.625-.08984-.17578 3.58984-.1875 1.3086h89.35937V311.70313h-55.26953v49.08203l.76172.125 3.28906.54296 2.02344 2.83594v2.7539l2.35156.33204 2.34766.33203h4.05078l-1.3789 4.16016-2.02344.70703-2.02344.70312-.54297.34375-2.59375 1.6172-.1875.11718-2.02344-2.07813-.73046-2.74218-2.67188-2.07813-1.375-3.5-.0664-.08203-1.95704-2.67188 2.75-1.41796v-49.08204H294.42187v91.41407l.1172.03125.1328.01172.07422.07421.10547.04688.08985.0586.08593.05859.08985.0586.29687.29687.0586.08984.03125.11719.02734.11719.01563.13671-.03125.1172-.0586.08983-.0586.08594-.04296.10547-.04688.10156-.02734.1211v.14453l.17578.26953.14844.14844.07422.08594.07422.07421.04296.10547.0625.08985.0586.08593.04297.10547.0586.08985.04687.10156.04296.10547.0586.08594.11719.17968.07421.07422.0625.08594.0586.08984.04297.10547.0586.08985.05858.08593.0625.08985.0586.08984.04297.10156.11719.17969.07421.07422.0586.08594.07422.07421.08984.0586.10547.04687h.14844l.1328-.01562.13282.01562.10156-.04687.07422-.07422.04688-.10156-.01563-.13281v-.14844l-.04687-.10547-.02735-.11719-.04687-.10156-.02735-.1211-.04296-.10156-.0625-.08984-.04297-.10156-.04297-.10547-.03125-.11719-.01563-.13281-.01171-.13672.08593-.0586.0586-.08593.12109-.03125.04297.10547.01562.1328v.1172l.0586.10156.0586.08984.08983.0586.14844.14843.0586.08985.04296.10547-.01171.10156.08593.0586.10547.04687.08594.0586.08984.05858.07422.07422-.11719.02735-.10546.04687-.08594.0586-.07422.07421-.0586.08985-.0625.08594-.02734.12109-.04687.10156-.04297.10547-.03125.11719-.01172.13281-.01563.13281v.14844l.02735.11719.04687.10547.04297.10156.0586.08984.07421.07422.08985.0586.07422.07421.08984.0586.0586.08984.04296.10547.04688.10156.11719.03125.1328.01563h.14845l.11718-.03125.10547.04297.04297.10547.04688.10156.02734.1211L299.5 410l.02734.11719.03125.1211.02735.11718.10547.04297.10156.04687.13281-.01562.14844.14844.0625.08593.07422.07422.07031.07422.08984.0625.10547.04297.10156.04297.1172.03125.13671.01562.11719-.03125.07422-.07422.02734-.11718-.01172-.13282-.03125-.12109-.02734-.11719.04297-.10547h.11719l.08984.0625.11719.02735h.14843l.13282.01562h.14843l.13282.01563.1328-.01563h.14845l.1328-.01562.13282-.01172.13672.01172.11719-.02735.13281-.01562.1914-.0586-.05859.17579-.01562.1328-.02735.1211-.01562.13281-.0586.08594-.1328.01563-.10548.04687-.10546.04297-.1172.03125-.11718.02735-.26563.03125h-.14843l-.13281.01562-.07422.07422.05859.08594.14844.14843.11719.1797.07421.0703.08985.0625.08984.0586.08594.0586.08984.05858.10156.04297.10547.0625.10547.04297.08594.0586.10547.04687.10156.04297.17969.11719.0586.08984-.04298.10156-.04687.10547.01562.13281.22266.22266.0586.08985.04296.10156.03125.1211.04297.10155.01563.13282.03125.11718.01171.13672.03125.11719.14844.14844.10156.04297.10547.04296.1172.03125.1328.01563.13672.01563h.11719l.11719-.03125.08984-.0586.04297-.10547.04688-.10156.04296-.10547.03125-.11719.01172-.1328v-.14845l-.01172-.1328-.01562-.13282-.03125-.11719-.04297-.10547-.04688-.10547-.04296-.10156-.04297-.10547-.01563-.13281.01563-.13281.02734-.11719.03125-.11719.02735-.1211.04687-.10155.08984-.0586.08594-.0625.07422-.07422.08984-.05859.22266-.22266.0586-.08593.07421-.07422.11719-.17969.0586-.08594v-.14844l-.07423-.07421-.10156-.04688-.10547-.04297-.10156-.04297-.0586-.08984-.04687-.10547-.02734-.11719.08984-.05859.11719-.03125.10156-.04297.17969-.11719.14844-.14843.01172-.13282-.01172-.10546-.08985-.0586-.1328.01563h-.14845l-.1328.01562-.13282-.01562-.1211-.03125-.08593-.0586-.07422-.07422-.0586-.08984-.0625-.08594-.11718-.17969-.0586-.08593.03125-.1211.08594-.05859.1211-.03125.05859-.08594v-.1211l-.03125-.11718-.0586-.08984-.05859-.08594-.04687-.10547-.02735-.11719-.01562-.1328.0586-.08985.07421-.07422.08984-.0586.1172-.17968.07421-.07422.0586-.08594.14843-.14844.1211-.03125.1328-.01562.13282.01562.07422.07422.04297.10547.01562.13281-.03125.1172-.11719.03124-.1328.01172-.14844.14844-.04297.10547-.04688.10156-.02734.1211-.03125.11718v.14844l.03125.11719.04297.10546.05859.08985.07422.07031.07422.07422.11719.03125.12109.02734.11719-.02734.1328-.01563h.1172l.08984.0586.07422.07422.04687.10546.0586.08594.10156.04688.13281.01562.10547.04297.08594.0586-.01172.10546-.07422.07422-.17969.11719-.05859.08984-.08984.0586-.07032.07422-.07421.07421-.0625.08985-.02735.11719-.01562.1328.01562.13282-.01562.13281v.14844l.01562.13281.02735.1172.03125.12108.07421.07422.08985.0586.08594.0586.08984.05858.11719.03125v.08594l-.10157.04688-.08984.0586-.26563.03124-.11718.02735h-.14844l-.10547.04296-.10156.04688-.0586.08984-.0625.23438-.01171.13281-.03125.1211-.01563.1328v.29298l-.01172.1328.01172.13673.01563.1328.1328.01563.13282.01172.1211.03125.08593.0586.07422.07421.04688.10547.04296.10157.01563.1328v.44532l-.01563.13281v.44532l.03125.26562.02735.11719.01562.13281.03125.11719.08594.21094.03125.26562v.14844l-.03125.11719-.02734.11718-.03125.1211-.02735.11719-.03125.11718-.03125.1211-.01171.1328-.01563.13282.08984.0586.1172-.03125.10155.01562.04688.10547-.03125.26562v.44141l-.04297.10547-.04688.10547-.04296.10156-.04297.10547-.0586.08594-.03125.12109-.04296.11719-.03125.11719-.01563.1328.01563.13282.05859.08984.10547.04688.08594.0586.05859.08593-.01172.13672-.03125.11719-.04297.10156v.44531l-.01562.13281v.14844l-.03125.11719-.04297.10547-.02735.11719-.04687.10546-.04297.10157-.03125.12109-.02734.11719-.03125.13281-.03125.11719-.02735.11719-.04297.10546-.03125.1172-.03125.12108-.01171.13282-.01563.13281v.29688l.02734.11718v.14844l.04688.39844.02734.11719.0586.08984.12109.03125h.14844l.13281-.01563.0586.08985v.11719l-.0586.08984-.08984.0586-.10157.04296-.10546.04688-.08985.05859-.08594.0586-.13671.01562-.1172-.03125-.1328-.01563-.10157.04688-.0625.08594-.01172.13671-.01562.13282-.03125.11719-.02735.11718-.01562.13281-.03125.1211v.29687l.01563.13282.03125.11718v.14844l.01171.13281v.14844l-.02734.11719-.04688.10156-.02734.1211-.03125.11718-.0586.08985-.07421.07421-.10156.04297-.10547.04688-.11719.02734-.1211.03125-.10156-.04687.0586-.08594.10547-.04688.02734-.11718.03125-.11719.02734-.1211.03125-.11718v-.14844l.01563-.13281-.03125-.11719-.04297-.10547-.10547.01563-.07422.07422-.10156.04296-.08984.0625-.07422.07422-.04297.10157-.01563.1328-.03125.1172L304.25 426l-.03125.11719-.02734.11719-.03125.12109-.02735.11719-.03125.11718-.04297.10547-.08984.0586h-.08984l-.1172-.03125-.03124-.08594.01562-.13672-.03125-.11719v-.14844l-.01171-.1328v-.14844l-.0625-.23438-.02735-.1211-.04297-.10156-.04687-.10546-.0586-.08594-.05859-.08985-.04297-.10546-.0625-.08594-.14844-.14844-.0703-.07422-.10548-.04687-.10547-.04297-.10156-.04297-.29687-.29688-.08985-.07421-.08594-.0586-.10546-.04297-.08985-.0625-.08594-.0586-.10546-.04296-.08985-.0586-.08594-.0625-.07421-.0703-.10547-.04688-.08594-.0586-.10547-.04296-.08984-.0625-.10156-.04297-.10547-.04297-.08594-.0586-.10547-.04687-.10547-.04297-.10156-.04687-.08985-.0586-.10156-.04297-.10547-.04296-.08984-.0625-.11719-.02735-.13281-.01562-.13281.01562H299.75l-.13281.01563-.11719-.03125-.08984-.0586-.07422-.07422-.08985-.05859-.10156-.04688h-.14844l-.12109-.02734-.10156-.04297-.07422-.07422-.11719-.17968-.08984-.0586-.10156-.04297-.08985-.0625-.10547-.04296-.08984-.0586-.08594-.0586-.10547-.04687-.0586-.08594-.05858-.08984-.04297-.10547-.04688-.10156-.07422-.07422-.08594-.0586-.07421-.07421-.08985-.0586-.22265-.22265-.04297-.10547-.03125-.26563.10547-.04296h.14453l.10547.04296.07421.07422.08985.0586.08594.0586.10546.04687.08985.05859.14844.14844.0703.07422.14845.14843.0625.08594.07421.07422.08594.0586.07422.07421.08985.0625.08984.0586.08594.05859.26953.17578.10156.04688.10547.04296.10156.04297.04688-.07421.05859-.08594.07422-.07422.07031-.07422.10547.04297.07422.07422.0586.08984.04296.10156.04688.10547.04296.10547.1211.02735.11719-.02735.07421-.08984.04297-.10547.0586-.08985.07422-.07421.10546-.04297.1172-.02735.1328.01172.08985.0586.14844.14843.05859.08985.04297.10547.04687.10156.04297.10547.04297.10156.10547.04688.10547.04296.13281.01563.08594-.0586.0586-.08984.07421-.07422.10547-.04297.11719.02735.10547.04687.10156.04297.10547.04297.10156.04688.17969.11718v.11719l-.01563.13281.01563.13281.01562.13672.0586.08594.10156.04688.1211.02734.11718.03125h.14844l.11719-.03125.05859-.08984.17969-.1172.05859-.08983.07422-.07422.0586-.08594.11718-.17969.17969-.11719.11719.03125.08984.0586.04297.07422-.01563.1328v.1172l.08985.05859h.14843l.13282-.01563.1328-.01171.26563-.03125.10547-.04297.11719-.03125.1211-.02735.07421-.07421.07031-.07422.0625-.08985-.01562-.10547-.04688-.10156-.10156-.04297-.10547-.01562-.11718.02734-.26563.03125h-.14844l-.07421-.07422-.08985-.0586-.11719-.03124-.11718-.02735-.13282-.01562h-.14843l-.13282.01563h-.29687l-.10547-.04688-.14844-.14844-.04297-.10156-.05859-.08984.22266-.22266.08593-.0586.10547-.04296.11719-.03125.13281-.01563.13281.01563.13672.01562.10157.04297.1328-.01172.08985-.0625.10156-.04297.0625-.08984-.04687-.10156-.08984-.0586-.1172-.03125-.10155-.04296-.0586-.08985-.0625-.08984v-.11719l.01563-.13281.10547-.04688.07421-.07031v-.1211l-.08984-.05859-.03125-.11719.08985-.05859.07421-.07422.04297-.10547.0586-.08984.04687-.10156.01563-.13281v-.14844l-.04688-.10547-.04297-.10156-.08984-.0586-.13281-.01562-.10157-.04297-.13671-.01563-.1172-.03125h-.4453l-.13282-.01562-.13281-.01172-.13281-.01563-.11719-.03125h-.14844l-.13281-.01562-.13281-.01172-.26563-.03125-.1211-.04297-.08593-.0586-.07422-.07421v-.14844l.01172-.13281.10547-.04688.10156-.04296.13281-.01563h.15235l.13281-.01562h.29297l.1211.03125.10156.04296.08984.0586.23438.0625.12109-.04688.08984-.05859.10156-.04297.13282-.01562.10547.04296.10156.04688.13281.01172.1211-.02735h.14453l.12109-.03125.11719-.02734.10547-.04687.07421-.07422.08594-.0586.14844-.14843.0586-.08594.04687-.10547.02734-.11719.01563-.10547-.10156-.04296-.08985-.0586-.11719-.03125-.10546-.04297-.08985-.0625-.07422-.08594-.07422-.07421-.10156-.04297-.10547-.04688-.10156-.04297-.0586-.08984-.04687-.10156-.08594-.21094-.0625-.08594-.05859-.08984-.07422-.07422-.08594-.0586h-.26953l-.11719.03126-.08984.05859-.10156.04297-.13281.01562-.10547-.01562-.02735-.11719-.0625-.08984-.11718-.03125-.10157-.04297-.14843-.14844-.03125-.11719-.01563-.10546.07422-.07422.17969-.1172.11719-.02733.11718-.03125.13672.01562.10156.04297.10547.04297.10156.04687.10547.04297.1172.03125.1328.01563.1172.02734.1328.01563.10547-.01563.08985-.0586-.07422-.07421-.10547-.04297-.07422-.07422-.07422-.08984-.14844-.14844-.08593-.0586-.08985-.05859-.07422-.07422-.08984-.0586-.10156-.04687-.1211-.02734-.10156-.04688-.10547-.04296-.11719-.03125-.10156-.04297-.1211-.03125h-.14843l-.11719.03125-.10546.04297-.08594.0625-.17969.11718-.08594.0586-.08984.0586-.10547.04687-.08594.05859-.10547.04297-.10156.04297-.10547.04687-.07422.07422-.05859.08985-.0586.08593-.04687.10547-.0586.08594-.07421.07422-.13281-.01172-.1172-.03125h-.11718l-.07422.07422-.08984.0586-.07422.07421-.08984.0586-.08594.05859-.10547.04687-.10156.04297-.13672.01563-.10156-.04297-.14844-.14844-.10547-.04688h-.08594l-.10547.04688-.10156.04297-.1211.03125-.11718-.03125-.07422-.07422v-.11719l.03125-.1211.07422-.0703.0586-.08985.07421-.07422.11719-.03125.10547-.04296h.29297l.13281-.01563.13672-.01563.10156-.04296.08985-.0586.10156-.04687.08984-.0586.13281-.01171.08985.05859.13281.01172.08984-.0586.08594-.05859.10547-.04297.08984-.0586.08594-.0625.08985-.05859.14843-.14843.0586-.08594.05859-.08985.10547-.04296.13281-.01563.11719.02735.1211.03125.05859-.0586.05859-.08984.03125-.26563.02734-.11719.10547.01172.13281.01563.10157-.04297.08984-.0586.0586-.08984.07421-.07422.0586-.08984.04687-.10156.01172-.13281-.01172-.13282-.04687-.10547-.14844-.14843-.0586-.08985-.05859-.08594-.04297-.10546v-.44532l.01563-.1328v-.14845l.01172-.1328-.0586-.0586-.08984.0586-.10156-.04298-.17969-.11719-.08594-.05859-.0625-.08984-.0586-.08985-.07421-.07421-.08594-.0586-.1211.03125-.10155.01172-.10547.04688-.08594.05859-.10547.04297-.14844.14844-.08984.05859-.08594.0586-.08984.0625-.10547.04296-.13281.01563v-.1211l.10547-.04297.11718-.03125.07422-.0703.04297-.10548v-.14844l-.02734-.11718-.14844-.14844-.13281-.01563h-.14844l-.11719.03125-.10547.04297-.10156.04297-.08984.0625-.11719.02735-.07422-.07422.01172-.13281-.04297-.10157-.04297-.10547-.08984-.05859-.11719.02734-.1211.03125-.11718.03125-.10156.04297-.1211.03125-.10156.04297-.10547.04297-.08984.0586-.10156.01562v-.11719l.01562-.13281-.0586-.08985-.07421.04297-.14844.14844-.0586.08985-.07421.07421-.04688.10547-.04296.10156-.07422.07422-.0586.08985-.07422.07422-.05859.08593-.07422.07422-.08984.0625-.07422.07031-.07422.07422-.10156.01563-.13281.01562-.10547-.04296v-.1211l.14843-.14844.04297-.10156.0586-.08984.04687-.10156.04297-.10547.0586-.08985.03124-.11719.04297-.10156.03125-.1211.02735-.11718.04687-.10547.04297-.10156.04297-.10547.07422-.07031.08984-.0625.08985-.0586.10156-.04296h.29687l.26563-.03125.10547-.04297-.07422-.07422-.11719-.03125-.10547-.04297-.08984-.0586-.10156-.04687-.08985-.0586-.10156-.04296-.10547-.04297-.08984-.0625-.08594-.0586-.10547-.04296-.10156-.04297-.1211-.03125-.11718-.03125-.10157-.04297L297.5 410.25l-.10156-.04297-.08985-.0586-.04296-.10546-.01563-.13281.10156-.04297.13281-.01563.13672.01563.13282-.01563.10156-.04297.0586-.08984.01562-.10547-.08985-.0586-.07421-.07421-.10157-.04297-.08984-.0586-.14844-.14843-.04297-.10547-.01562-.13281v-.29297l-.0586-.08985-.08984-.05859-.07422-.07422-.04297-.10547-.03125-.11718-.0586-.08985-.07421-.07422-.11719-.02734-.07422-.07422-.08984-.0586-.08984-.0625-.08594-.05859-.07422-.07421-.0586-.08594-.04687-.10547-.08594-.0586-.14843-.14843-.19532-.0586-.1328.01563-.10157.04297-.07422.07422-.04688.10156-.04296.10547-.0586.08984-.0586.08594-.29687.29687-.08984.0586h-.08594l-.0625-.08594-.04297-.10547.03125-.11719.0586-.08984.02734-.11719-.01172-.13281-.08984-.0625-.10547.04688-.11719.02734-.11719.03125-.26953.17578-.10156.04688-.11719.02734-.10546.04687-.08985.0586-.10156.04297-.0586-.08594-.04687-.10547.01563-.13281.04687-.10547.07031-.07422.07422-.07031.0586-.08985v-.14843l-.04297-.10547h-.23829l-.10156.04687-.03125.11719-.02734.11719-.03125.1211-.07422.04296-.13281.01563-.07422-.04688-.04297-.10156-.04297-.10547-.04687-.10156-.04297-.10547-.1211.03125-.10156.04297-.13281.01562-.11719.03125-.10547.04297-.08984.0586-.10156.04687-.1211.02734-.13281.01563-.10156-.04297-.0586-.08985-.04687-.10546-.04297-.10157-.04297-.10546v-.1172l.0586-.08984.08593-.05859.17969-.11719.10156-.04687.10547-.04297.10547-.0586.10156-.04296.08985-.0625.10156-.04297.10547-.0586.10156-.04687.08984-.0586.10547-.04296.10156-.04297.08985-.0625.10156-.04297.13672-.01563.11719.03125.10156.04297.1211.03125.10156.04297.10546.04688.10157.04296.10547.04297.10156.04688.10547.04297.10156.04297.10547.04687.08594.0586.10546.04296.1172.03125.10546.04297.10156.04688.08985.0586.10547.04296.10156.04297.10547.04687.11719.02735.10156.04687.1211.02735h.14843l.08594-.0586.01562-.10156.0586-.08984-.02735-.1172-.07422-.07421-.11719-.17969-.07421-.07422-.08985-.07421-.17969-.1172-.08593-.05859-.10547-.04296-.10156-.04688-.26954-.17578-.05859-.08985-.07422-.07421-.0586-.08985-.04296-.10156-.03125-.11719-.01563-.13672v-.5625l-.01171-.1328-.01563-.13282-.03125-.11719-.01562-.13281-.01172-.13281-.03125-.1211-.22266-.22265-.0586-.08594-.01562-.10547.03125-.11719.13281-.01562v-91.41406H172.9922v1.45312l-.0586.23438-.35156 1.05078-.17187.52343-.1172.34766-.17577.41016-.11719.17187-.23438.29297-.23046.0586h-.35157l-.11718.05859-.23047.40625v.29297l.11719.17578.23046.23047.1172.23437.64062.75781.29297.46485.17578.23437.23047.35156.23437.34766.64063.8164.17578.46485.17187.41016.11719.69531.17578.46875.11719 1.39844.0586.46484v.875l.11718 1.04688v4.78125l-.0586.46484-.35156 1.28125-.17578.52344-.11328.41015-.35156.9297L172.93359 336l-.23437.58203-.11719.17578-.17187.34766-.17578.40625-.35157.8164-.0586.29297-.11327.29297-.11719.28906-.0586.17579-.11718.875-.0586.40625-.05859.11718-.0586.17579-.05859.17187-.23047.52734-.11718.17188v.23437l-.11719.23438-.0586.17187-.17577.58594v.28906l-.0586.17579v.29296l-.0586.11329-.05859.52734v.17187l-.05468.23438v2.6211l-.17578.8164-.1172.17578-.17577.23438-.1172.17187-.11327.23438-.58594.93359-.23047.28906-.29297.46485-.17578.23437-.28906.35156-.35156.69922-.11328.23047-.17579.41016-.17578.23046-.40625.52735-.8164.69922-.29297.17187-.28906.23438-.17579.11719-.17578.17578-.52344.40625-.52734.17578-.17187.17578-.23438.05469-.64062.17578h-.75782m12.21094 31.02344l-1.07422.44921.35938.89454 1.25-.71485.44531-.53906-.98047-.08985"/><path fill="#d3d3d3" fill-opacity="0" fill-rule="evenodd" d="M201.50781 416.59766h-.89453l.44922.6289.98047.35938.80469-.08985.4453-.98828-.17577.08985-.71485-.35547-.89453.35547m154.6211 59.0703l-.0586-.52343v-.29297l.11328-.29297.0586-.23046.46875-.46875h.11328l.11719-.11329.11718-.05859h.17579l.23437-.0586h.34766l.23437.0586.11719.0586.23047.17187.0586.17578.11718.58203v.29297l-.11719.17578-.17187.28906-.17579.17579-.52734.52343-.23047.23438-.11719.0586h-.17578l-.11718-.0586-.40625-.29297-.17579-.11719-.11718-.0586-.0586-.11327-.05468-.1172m6.64062-10.95702l-.0586-.17188v-1.10937l.0586-.17188.17578-.0586.17188-.05858h.17578l.23437-.0586.1172.0586.05858.69921-.05859.17188-.11719.17578-.11718.0586-.23438.52343-.11328.0586h-.23438l-.05859-.1172m9.61328-14.39062l-.11719-.17578v-.69922l.29297-.875.1172-.17187.17577-.35156.11328-.23047.1172-.29297.35155-.75781.1172-.23047.17187-.23438h.17578l.11719-.0586h.64062l.11719.0586.23437.23438.17188.11328.35156.29297.11719.11718.11328.17579v.11328l.11719.05859.11718.11719v.69922l-.05859.17578v.23047l-.0586.17578-.34765 1.05078-.11719.23047-.11719.23437-.11718.0586-.23047.23437-.64063.28906h-.875l-.41015-.11718-.64063-.46485"/><path fill="none" stroke="#bebebe" stroke-linecap="round" stroke-linejoin="round" stroke-miterlimit="10" stroke-width=".5" d="M467.95703 311.69531H144.02734v168.625h323.9297v-168.625"/><g clip-path="url(#a)"><path fill="#fff" fill-opacity="0" fill-rule="evenodd" d="M144 475.89063v4.4375h.0039H144V441.875v34.01563"/></g><g clip-path="url(#b)"><path fill="#fff" fill-opacity="0" fill-rule="evenodd" d="M144 435.94531v3.45313-127.72656h.0039H144V435.9453"/></g><path fill="#50fcfc" fill-rule="evenodd" d="M144 439.39844v2.47656l.0039-.0039v-2.47266H144"/><g clip-path="url(#c)"><path fill="#fff" fill-opacity="0" fill-rule="evenodd" d="M144.0039 480.32813v-38.45704l.86329-1.48828-.86328-.98437V311.67188h57.6953v114.22265l-1.74218 1.17578-2.69531 1.8789-4.14844 2.5586-.29297.2539-4.4375 2.16798-4.4375.50781L181 435.94531l-1.49219.63281-4.4414 3.04688-3.7422.75781-.6953.0625-4.4375.96094-4.4375 1.3164-4.4375.83204-4.44141.85937-1.48438.40625-2.95312.53125-2.70313 3.91016 2.35938 4.4375.34375.47656 1.84766-.47656 2.58984-.5039 1.21875.5039 3.22266 1.34765 3.55468 3.08985.88282 2.50781 3.98437-2.50781.45313-.04688 1.40625.04688 3.03125.2539 1.15234-.2539 2.5586-4.4375.72656-.76172.8125.76172 1.6328 4.4375 1.9961.78515 4.4375-.14062.53516-.64453 3.55078-4.4375.35156-.3086 1.71485.3086 2.72265.53906 1.05078-.53906 1.77344-4.4375 1.61719-1.86328 4.4375-.0625 3.29297-2.51563 1.14453-2.64062 1.0586 2.64062 3.3789 1.1289 1.92969-1.1289-1.9297-2.05469-3.74608-2.3828 3.74609-2.88282 4.4414-.03516 1.94141-1.51953-1.9414-1.5-4.44141.14844-4.4375-1.23438-.92578-1.85156.92578-1.92187.66016-2.51563-.66016-.71484-4.4375-.46094V311.67188h17.7539v108.02734l-4.4375 2.71875-.2539.21094.2539.33203 4.4375 2.76953 2.78516 1.33984 1.65234 1.6914 4.4375 1.45704.72266 1.28906 2.08594 4.4375 1.6289 1.41016 4.44141 2.34765 1.7539.6797 2.6836 2.49609 4.4375 1.04296 3.49219-3.53906.57812-4.4375-2.4375-4.4375-1.6328-.91797-4.4375-3.37109-.3672-.14844-4.0703-3.58203-3.3086-.85937-1.13281-.8125-1.46875.8125-2.96875.76562-1.55079-.76562-2.88672-2.6172-4.4375-.3125V311.67189h35.50391v115.98437l-3.82812 3.85156 3.82812 2.98047 3.72656 1.45703.71485.55078.52734-.55078 2.33594-4.4375-2.86328-3.3789-4.4414-.47266V311.67187h31.0703v106.91407l-4.4375 1.27734-4.28125 2.76563-.15625.0703-4.4414.59376-4.4375 3.5-1.47656.27734-1.35938 4.4375 2.83594 2.21094 4.4375-1.16406 4.4414.80469 4.4375 2.44921 2.71875.13672 1.71875.35547.71485-.35547 3.72265-3.70312.38672-.73438 1.30078-4.4375-1.6875-2.3789-.64453-2.0625-3.79297-4.04297V311.67188h13.31641v110.92578l-.04297.03125.04297.0664.0625-.0664-.0625-.03125V311.67187h4.4375v117.16016l-3.39844 2.67578 3.39844 2.5625 2.33594-2.5625-2.33594-2.67578V311.67188h17.7539v110.86328l-.10156.09375.10157.10937.41796-.10937-.41796-.09375V311.67187h8.875v110.0586l-2.16016.89844 2.16016.76953 1.4414-.76953-1.4414-.89844v-110.0586h48.82421v120.22266l-4.4414 1.75-1.67969 2.30078-2.75781 2.59766-2.89453 1.83984-1.54297 3.88672-1.22656-3.88672-3.21094-1.64062-4.4375-1.47266-4.4414-.04687-1.04688-1.27735-3.39063-3.1914-3.13281 3.1914 3.13281 3.25781 1.42969 1.1797 3.00781 2.85156 4.4414-.13672 4.4375.86718 3.61329.85547.82422.09766 4.4375 3.75.46484.59375-.2539 4.4375 1.35937 4.4375 2.86719 2.82422 3.8164 1.61328.625 1.20703 4.4375 2.89453 3.20313.33985 1.15625 4.4375.07813.08593.0703-.08594.53516-4.4375 3.78125-4.4414.05079-1.8125.71875-2.625 1.19921-4.4375-1.07812-4.4375-.03906-4.4414-.80079-.48438-.87109.48437-3.5664 2.71094-4.4375-.02734-1.53907-2.6836-2.89844-4.00781-.8828-.42969.8828-.47656 1.4336-3.96094-1.4336-4.05078V311.67188h88.76172v159.6875l-.08984.09375.08984.08984v8.78515h-57.27343l-.42188-.42578-.42187.42579h-50.9297l-1.90624-1.54297-4.4414.96093-.69532.58204H144.00391"/></g><path fill="#50fcfc" fill-rule="evenodd" d="M144.86719 440.38281l-.86328 1.48828v-2.47265l.86328.98437m3.22656 13.3164l-2.35938-4.4375 2.70313-3.91015 2.95313-.53125 1.48437-.40625 4.4414-.85937 4.4375-.83203 4.4375-1.31641 4.4375-.96094v2.96875l-3.0664 1.40625-1.3711 1.32422-4.4375-.15234-4.4375 2.97265-.53906.29688.53907.27344 2.4453 4.16406 1.9922 1.8711 4.4375-.9375 1.09375-.9336 2.0703-4.4375 1.27345-1.32422 2.09375-3.11719-2.09375-1.40625v-2.96875l.6953-.0625 3.7422-.75781 4.4414-3.04688 1.49219-.6328 2.94531-1.50782 4.4375-.50781 4.4375-2.16797.29297-.2539 4.14844-2.5586 2.69531-1.8789 1.74219-1.17579 4.4375.46094.66016.71484-.66016 2.51563-.92578 1.92187.92578 1.85156 4.4375 1.23438 4.4414-.14844 1.94141 1.5-1.9414 1.51953-4.44141.03516-3.7461 2.88281 3.7461 2.38281 1.92969 2.0547-1.9297 1.1289-3.3789-1.1289-1.0586-2.64063-1.14452 2.64062-3.29297 2.51563-4.4375.0625-1.61719 1.86328-1.77344 4.4375-1.05078.53906-2.72265-.53906-1.71485-.3086-.35156.3086-3.55078 4.4375-.53516.64453-4.4375.14063-1.9961-.78516-1.6328-4.4375-.8125-.76172-.72657.76172-2.55859 4.4375-1.15234.2539-3.03125-.2539-1.40625-.04688-.45313.04688-3.98437 2.50781-.88282-2.50781-3.55468-3.08985-3.22266-1.34765-1.21875-.5039-2.58984.5039-1.84766.47656-.34375-.47656"/><path fill="#00e8fc" fill-rule="evenodd" d="M157.3164 449.53516l-.53906-.27344.53907-.29688 4.4375-2.97265 4.4375.15234 1.37109-1.32422 3.0664-1.40625 2.09376 1.40625-2.09375 3.11719-1.27344 1.32422-2.07031 4.4375-1.09375.9336-4.4375.9375-1.9922-1.8711-2.4453-4.16406"/><path fill="#50fcfc" fill-rule="evenodd" d="M215.01563 422.96094l-.25391-.33203.2539-.21094 4.4375-2.71875 4.4375.3125 2.88672 2.61719 1.55078.76562 2.96875-.76562 1.46875-.8125v4.98437l-1.17968.26953-.41797 4.4375 1.59766 2.17969 1.93359 2.25781 2.50781 1.89063 4.4375 2.05078 1.04688.4961 3.39062 2.08593 2.0586-2.08594.60546-4.4375-2.66406-2.9961-1.54297-1.4414-2.89453-2.70703-4.21484-1.73047-.22266-.19922-4.4414-.0703v-4.98438l1.1328.8125 3.3086.85937 4.07031 3.58203.3672.14844 4.4375 3.3711 1.6328.91796 2.4375 4.4375-.57812 4.4375-3.49219 3.53906-4.4375-1.04296-2.6836-2.4961-1.7539-.67969-4.4414-2.34765-1.62891-1.41016-2.08594-4.4375-.72266-1.28906-4.4375-1.45703-1.65234-1.6914-2.78516-1.33985-4.4375-2.76953"/><path fill="#00e8fc" fill-rule="evenodd" d="M232.76563 433.6875l-1.59766-2.17969.41797-4.4375 1.17969-.26953 4.4414.07031v2.0586l-3.15234 2.57812 3.15234 3.42969 1.15625 1.00781 3.28125 2.07422 4.4375.1211.32031-2.19532-.3203-.35937-4.35548-4.07813-.08203-.07812-4.4375-2.5v-2.0586l.22266.19922 4.21484 1.73047 2.89453 2.70703 1.54297 1.4414 2.66406 2.9961-.60547 4.4375-2.05859 2.08594-3.39062-2.08594-1.04688-.4961-4.4375-2.05077-2.50781-1.89063-1.9336-2.25781"/><path fill="#00d4fc" fill-rule="evenodd" d="M237.20703 434.9375l-3.15234-3.42969 3.15234-2.57812v1.92578l-.79687.65234.79687.86719 4.11328 3.57031.32422.20313.5-.20313-.5-.44922-3.29297-3.98828-1.14453-.65234v-1.92578l4.4375 2.5.08203.07812 4.35547 4.07813.32031.35937-.3203 2.19531-4.4375-.12109-3.28126-2.07422-1.15625-1.00781"/><path fill="#00c4fc" fill-rule="evenodd" d="M237.20703 432.375l-.79687-.86719.79687-.65234 1.14453.65234 3.29297 3.98828.5.44922-.5.20313-.32422-.20313-4.11328-3.57031"/><path fill="#50fcfc" fill-rule="evenodd" d="M254.95703 434.48828l-3.82812-2.98047 3.82812-3.85156 4.4414.47266 2.86329 3.3789-2.33594 4.4375-.52734.55078-.71485-.55078-3.72656-1.45703m13.3164-.76953l-2.83593-2.21094 1.35938-4.4375 1.47656-.27734 4.4375-3.5 4.4414-.59375.15625-.07031 4.28125-2.76563v3.21485l-4.4375 1.80468-4.4414-.26562-2.91797 2.45312 2.91797 3.08985 4.4414-.25 1.15235 1.59765 3.28515 2.64844 3.48829-2.64844.94921-1.08203 2.73438-3.35547-2.73438-3.84375-4.4375-.14844v-3.21484l4.4375-1.27734 3.79297 4.04297.64453 2.0625 1.6875 2.3789-1.30078 4.4375-.38672.73438-3.72265 3.70312-.71485.35547-1.71875-.35547-2.71875-.13672-4.4375-2.44921-4.4414-.8047-4.4375 1.16407"/><path fill="#00e8fc" fill-rule="evenodd" d="M272.71094 430.16016l-2.91797-3.08985 2.91797-2.45312v2.20703l-.28906.2461.28906.30468.95703-.30469-.95703-.2461v-2.20702l4.4414.26562 4.4375-1.80469 4.4375.14844 2.73438 3.84375-2.73438 3.35547-.94921 1.08203-3.48829 2.64844-3.28515-2.64844-1.15235-1.59765-4.4414.25"/><path fill="#00d4fc" fill-rule="evenodd" d="M272.71094 427.375l-.28906-.30469.28906-.2461.95703.2461-.95703.30469"/><path fill="#50fcfc" fill-rule="evenodd" d="M299.34375 422.69531l-.04297-.0664.04297-.03125.0625.03125-.0625.0664m4.4375 11.375l-3.39844-2.5625 3.39844-2.67578 2.33594 2.67578-2.33594 2.5625m17.7539-11.33203l-.10156-.10937.10157-.09375.41796.09375-.41796.10937m8.875.66016l-2.16016-.76953 2.16016-.89844 1.4414.89844-1.4414.76953m17.7539 15.80469l-3.13281-3.25782 3.13281-3.1914v3.0703l-.11719.1211.1172.1211.1289-.1211-.1289-.1211v-3.0703l3.39062 3.1914 1.04687 1.27735 4.4414.04687 4.4375 1.47266 3.21095 1.64062 1.22656 3.88672 1.54297-3.88672 2.89453-1.83984 2.75781-2.59766 1.67969-2.30078 4.4414-1.75 1.4336 4.05078-1.4336 3.96094-.8828.47656.8828.42969v6.50781l-1.55078 1.9414 1.55079 1.48829 3.0664-1.48828-3.0664-1.9414v-6.50782l2.89843 4.00781 1.53906 2.6836 4.4375.02734v5.20313l-.27734.96484.27735.15625v3.51562l-2.06641.76563-2.3711.9961-2.10937 3.4414 2.10938 1.90234 4.4375 1.64844 3.46093-3.55078-2.60937-4.4375-.85156-.76563v-3.51562l.51953-.15625-.51954-.96485v-5.20312l3.56641-2.71094.8711-.48437.80078.48437.03906 4.4414 1.07812 4.4375-1.19921 4.4375-.71875 2.625-.05079 1.8125-3.78125 4.44142-.53515 4.4375-.07031.08593-.07813-.08594-1.15625-4.4375-3.20313-.33984-4.4375-2.89453-.625-1.20703-3.8164-1.61328-2.86719-2.82422-1.35937-4.4375.2539-4.4375-.46484-.59375-4.4375-3.75-.82422-.09766-3.61328-.85547-4.4375-.86718-4.4414.13671-3.00782-2.85156-1.42969-1.17969"/><path fill="#00e8fc" fill-rule="evenodd" d="M348.16406 436.0664l-.11719-.12109.1172-.1211.1289.1211-.1289.1211"/><g clip-path="url(#d)"><path fill="#50fcfc" fill-rule="evenodd" d="M351.90625 480.32813l.69531-.58204 4.4414-.96093 1.90626 1.54296h-7.04297"/></g><path fill="#fff" fill-opacity="0" fill-rule="evenodd" d="M379.23438 447.32031l-1.55079 1.9414 1.55079 1.48829 3.0664-1.48828-3.0664-1.9414"/><path fill="#00e8fc" fill-rule="evenodd" d="M383.67188 464.47656l-2.10938-1.90234 2.10938-3.4414 2.37109-.9961 2.0664-.76563v2.58594l-3.20312 2.61719 3.20313 1.97265 1.92187-1.97265-1.92188-2.61719v-2.58594l.85157.76563 2.60937 4.4375-3.46094 3.55078-4.4375-1.64844"/><path fill="#00d4fc" fill-rule="evenodd" d="M388.10938 464.54688l-3.20313-1.97266 3.20313-2.61719v2.09766l-.63672.51953.63671.39453.38282-.39453-.38281-.51953v-2.09766l1.92187 2.61719-1.92188 1.97265"/><path fill="#00c4fc" fill-rule="evenodd" d="M388.10938 462.96875l-.63672-.39453.63671-.51953.38282.51953-.38281.39453"/><path fill="#fff" fill-opacity="0" fill-rule="evenodd" d="M388.10938 452.73438l-.27735.96484.27735.15625.51953-.15625-.51954-.96485"/><g clip-path="url(#e)"><path fill="#50fcfc" fill-rule="evenodd" d="M409.8789 480.32813l.42188-.42579.42188.42579h-.84375"/></g><path fill="#50fcfc" fill-rule="evenodd" d="M467.9961 471.54297l-.08985-.08985.08984-.09375v.1836"/><g clip-path="url(#f)"><path fill="#fff" fill-opacity="0" fill-rule="evenodd" d="M467.9961 480.32813H468v-8.78125 8.78125h-.0039"/></g><path fill="#50fcfc" fill-rule="evenodd" d="M467.9961 471.35938v.18359l.0039.0039v-.1875h-.0039"/><g clip-path="url(#g)"><path fill="#fff" fill-opacity="0" fill-rule="evenodd" d="M467.9961 311.67188H468v159.6875-159.6875h-.0039"/></g><path fill="#fff" fill-opacity="0" fill-rule="evenodd" d="M387.24219 444.34766l2.88672 5.07812 8.66015-4.92578-2.89062-5.07422-8.65625 4.92188"/><path fill-rule="evenodd" d="M396.03516 443.3711l.2539.4414-5.47265 3.11328-.39063-.6836 3.90235-2.21874-.6836-1.20703.48047-.27344.33594.45312.16797.19141.1914.15625.22656.10547.26563.04687.32813-.01953.39453-.10547"/><path fill="#fff" fill-opacity="0" fill-rule="evenodd" d="M208.98438 443.41406l5.52343-1.90234-3.2461-9.41797-5.51952 1.90234 3.24219 9.41797"/><path fill-rule="evenodd" d="M209.64453 434.58984l.48438-.16796 2.04687 5.95312-.74219.2539-1.46093-4.24218-1.3125.45312-.1836-.52734.50781-.24219.22266-.13281.1875-.16016.14453-.19921.09766-.25782.03906-.32422-.03125-.40625"/><g clip-path="url(#h)"><path fill="none" stroke="#000" stroke-linecap="round" stroke-linejoin="round" stroke-miterlimit="10" stroke-width=".5" d="M147.46094 480.9414l-6.92188-1.22656"/></g><g clip-path="url(#i)"><path fill="none" stroke="#000" stroke-linecap="round" stroke-linejoin="round" stroke-miterlimit="10" stroke-width=".5" d="M147.46094 480.9414l.7539 2.33594"/></g><g clip-path="url(#j)"><path fill="none" stroke="#000" stroke-linecap="round" stroke-linejoin="round" stroke-miterlimit="10" stroke-width=".5" d="M160.75 481.0586l-6.8711-1.46094"/></g><g clip-path="url(#k)"><path fill="none" stroke="#000" stroke-linecap="round" stroke-linejoin="round" stroke-miterlimit="10" stroke-width=".5" d="M160.75 481.0586l.67969 2.35937"/></g><g clip-path="url(#l)"><path fill="none" stroke="#000" stroke-linecap="round" stroke-linejoin="round" stroke-miterlimit="10" stroke-width=".5" d="M174.0039 481.3125l-6.74609-1.96875"/></g><g clip-path="url(#m)"><path fill="none" stroke="#000" stroke-linecap="round" stroke-linejoin="round" stroke-miterlimit="10" stroke-width=".5" d="M187.29688 481.38281l-6.70313-2.10937"/></g><g clip-path="url(#n)"><path fill="none" stroke="#000" stroke-linecap="round" stroke-linejoin="round" stroke-miterlimit="10" stroke-width=".5" d="M200.76172 480.60938l-7.0039-.5625"/></g><g clip-path="url(#o)"><path fill="none" stroke="#000" stroke-linecap="round" stroke-linejoin="round" stroke-miterlimit="10" stroke-width=".5" d="M200.76172 480.60938l.97656 2.25"/></g><g clip-path="url(#p)"><path fill="none" stroke="#000" stroke-linecap="round" stroke-linejoin="round" stroke-miterlimit="10" stroke-width=".5" d="M214.05469 479.82813l-6.95703 1.0039"/></g><g clip-path="url(#q)"><path fill="none" stroke="#000" stroke-linecap="round" stroke-linejoin="round" stroke-miterlimit="10" stroke-width=".5" d="M214.05469 479.82813l1.44922 1.98046"/></g><g clip-path="url(#r)"><path fill="none" stroke="#000" stroke-linecap="round" stroke-linejoin="round" stroke-miterlimit="10" stroke-width=".5" d="M227.3789 479.91406l-6.97656.82813"/></g><g clip-path="url(#s)"><path fill="none" stroke="#000" stroke-linecap="round" stroke-linejoin="round" stroke-miterlimit="10" stroke-width=".5" d="M227.3789 479.91406l1.39844 2.01563"/></g><g clip-path="url(#t)"><path fill="none" stroke="#000" stroke-linecap="round" stroke-linejoin="round" stroke-miterlimit="10" stroke-width=".5" d="M240.66406 480.94922l-6.91797-1.24219"/></g><g clip-path="url(#u)"><path fill="none" stroke="#000" stroke-linecap="round" stroke-linejoin="round" stroke-miterlimit="10" stroke-width=".5" d="M240.66406 480.94922l.75 2.33594"/></g><g clip-path="url(#v)"><path fill="none" stroke="#000" stroke-linecap="round" stroke-linejoin="round" stroke-miterlimit="10" stroke-width=".5" d="M253.91016 481.2539l-6.77735-1.85156"/></g><g clip-path="url(#w)"><path fill="none" stroke="#000" stroke-linecap="round" stroke-linejoin="round" stroke-miterlimit="10" stroke-width=".5" d="M252.92188 480.98438l.27343 1.19921"/></g><g clip-path="url(#x)"><path fill="none" stroke="#000" stroke-linecap="round" stroke-linejoin="round" stroke-miterlimit="10" stroke-width=".5" d="M267.28516 480.98438l-6.90235-1.3125"/></g><g clip-path="url(#y)"><path fill="none" stroke="#000" stroke-linecap="round" stroke-linejoin="round" stroke-miterlimit="10" stroke-width=".5" d="M266.28125 480.79297l.36328 1.17187"/></g><g clip-path="url(#z)"><path fill="none" stroke="#000" stroke-linecap="round" stroke-linejoin="round" stroke-miterlimit="10" stroke-width=".5" d="M280.41016 481.64063l-6.51953-2.625"/></g><g clip-path="url(#A)"><path fill="none" stroke="#000" stroke-linecap="round" stroke-linejoin="round" stroke-miterlimit="10" stroke-width=".5" d="M293.8125 481.39453l-6.69531-2.13281"/></g><g clip-path="url(#B)"><path fill="none" stroke="#000" stroke-linecap="round" stroke-linejoin="round" stroke-miterlimit="10" stroke-width=".5" d="M292.83984 481.08594l.21875 1.20703"/></g><g clip-path="url(#C)"><path fill="none" stroke="#000" stroke-linecap="round" stroke-linejoin="round" stroke-miterlimit="10" stroke-width=".5" d="M307.28125 480.6289l-7-.60156"/></g><g clip-path="url(#D)"><path fill="none" stroke="#000" stroke-linecap="round" stroke-linejoin="round" stroke-miterlimit="10" stroke-width=".5" d="M306.26172 480.54297l.48047 1.1289"/></g><g clip-path="url(#E)"><path fill="none" stroke="#000" stroke-linecap="round" stroke-linejoin="round" stroke-miterlimit="10" stroke-width=".5" d="M320.55469 480.94531l-6.91797-1.23437"/></g><g clip-path="url(#F)"><path fill="none" stroke="#000" stroke-linecap="round" stroke-linejoin="round" stroke-miterlimit="10" stroke-width=".5" d="M319.54688 480.76563l.3789 1.16796"/></g><g clip-path="url(#G)"><path fill="none" stroke="#000" stroke-linecap="round" stroke-linejoin="round" stroke-miterlimit="10" stroke-width=".5" d="M333.69531 481.57813l-6.5664-2.5"/></g><g clip-path="url(#H)"><path fill="none" stroke="#000" stroke-linecap="round" stroke-linejoin="round" stroke-miterlimit="10" stroke-width=".5" d="M332.73828 481.21484l.15235 1.21875"/></g><g clip-path="url(#I)"><path fill="none" stroke="#000" stroke-linecap="round" stroke-linejoin="round" stroke-miterlimit="10" stroke-width=".5" d="M346.78516 482.05469l-6.1172-3.45313"/></g><g clip-path="url(#J)"><path fill="none" stroke="#000" stroke-linecap="round" stroke-linejoin="round" stroke-miterlimit="10" stroke-width=".5" d="M358.58594 483.48438l-3.08985-6.3125"/></g><g clip-path="url(#K)"><path fill="none" stroke="#000" stroke-linecap="round" stroke-linejoin="round" stroke-miterlimit="10" stroke-width=".5" d="M370.23438 483.83984l.24218-7.02343"/></g><g clip-path="url(#L)"><path fill="none" stroke="#000" stroke-linecap="round" stroke-linejoin="round" stroke-miterlimit="10" stroke-width=".5" d="M381.97656 483.40625l3.38672-6.15625"/></g><g clip-path="url(#M)"><path fill="none" stroke="#000" stroke-linecap="round" stroke-linejoin="round" stroke-miterlimit="10" stroke-width=".5" d="M394.625 482.92969l4.72266-5.20313"/></g><g clip-path="url(#N)"><path fill="none" stroke="#000" stroke-linecap="round" stroke-linejoin="round" stroke-miterlimit="10" stroke-width=".5" d="M408.22656 483.16406l4.14844-5.67187"/></g><g clip-path="url(#O)"><path fill="none" stroke="#000" stroke-linecap="round" stroke-linejoin="round" stroke-miterlimit="10" stroke-width=".5" d="M421.08594 482.76563l5.0625-4.875"/></g><g clip-path="url(#P)"><path fill="none" stroke="#000" stroke-linecap="round" stroke-linejoin="round" stroke-miterlimit="10" stroke-width=".5" d="M434.0039 482.27344l5.85548-3.88672"/></g><g clip-path="url(#Q)"><path fill="none" stroke="#000" stroke-linecap="round" stroke-linejoin="round" stroke-miterlimit="10" stroke-width=".5" d="M434.85547 481.70703l-1.07813-.58594"/></g><g clip-path="url(#R)"><path fill="none" stroke="#000" stroke-linecap="round" stroke-linejoin="round" stroke-miterlimit="10" stroke-width=".5" d="M447.59766 482.63672l5.29687-4.61719"/></g><g clip-path="url(#S)"><path fill="none" stroke="#000" stroke-linecap="round" stroke-linejoin="round" stroke-miterlimit="10" stroke-width=".5" d="M461.14453 482.8789l4.83594-5.10156"/></g><g clip-path="url(#T)"><path fill="none" stroke="#000" stroke-linecap="round" stroke-linejoin="round" stroke-miterlimit="10" stroke-width=".5" d="M147.39453 467.91406l-6.78906-1.80078"/></g><path fill="none" stroke="#000" stroke-linecap="round" stroke-linejoin="round" stroke-miterlimit="10" stroke-width=".5" d="M147.39453 467.91406l.5586 2.39063m12.84375-2.82813l-6.96485-.92578m6.96484.92578l.85547 2.30078m12.41016-2.01171l-6.86328-1.50391m6.86328 1.5039l.66016 2.36329m-1.66016-2.58203l.33203 1.18359m13.8086-.40234l-6.51563-2.62891m6.51563 2.6289l.26171 2.4375m13.19922-2.875l-6.80469-1.7539m6.8047 1.7539l.57421 2.38672m12.84375-3.46484l-7.01562.40234m7.01562-.40234l1.27734 2.09375m11.98047-2.55469l-6.89843 1.32422m6.89843-1.32422l1.53907 1.91016m11.8125-1.69922l-6.96875.90234m6.96875-.90234l1.41797 2M254 467.51172l-6.95703-.9961m6.95703.9961l.83203 2.30469m12.36328-1.78125l-6.72265-2.04297m5.74609 1.7461l.23438 1.20312m13.99218-.71094l-6.58984-2.4336m5.63281 2.07813l.16406 1.21875m14.32032-1.88672l-7.01563-.38672m5.9961.33203l.51562 1.11329m13.75-1.97657l-6.875 1.44922m5.875-1.23828l.78516.9414m13.32812-1.79296l-6.47266 2.73047m5.53125-2.33594l.95313.77734m13.51562-.47265l-6.89843 1.33203m5.89453-1.13672l.77344.95312m12.99609-2.46484l-5.79688 3.96484m4.95313-3.39062l1.08594.57031m11.83203-2.26172l-3.3164 6.19922m2.83202-5.29687l1.23047.0039m7.79297 3.8125l6.23828-3.23828m6.9961 3.07422l6.39843-2.91016m-5.46875 2.48829l-.97265-.75m13.66015 1.70703l5.79297-3.98047m-5.79297 3.98047l-2.17578-1.13282m15.23047.6836l6.3125-3.08203m-6.3125 3.08203l-1.98437-1.4414m14.9453-.17188l7.02345.14453m-7.02344-.14453l-1.10938-2.1875m14.42188 2.33984l7.02734-.16016m-6.0039.13672L433.83984 466m12.89453.98047l7.02735.0664m-7.02735-.0664l-1.1328-2.17969m14.8125 3.77344l6.29687-3.1211m-6.29688 3.1211l-1.9961-1.42969"/><g clip-path="url(#U)"><path fill="none" stroke="#000" stroke-linecap="round" stroke-linejoin="round" stroke-miterlimit="10" stroke-width=".5" d="M147.1875 455.17969l-6.375-2.96094"/></g><path fill="none" stroke="#000" stroke-linecap="round" stroke-linejoin="round" stroke-miterlimit="10" stroke-width=".5" d="M147.1875 455.17969l.1289 2.44922m12.63673-1.60938l-5.27735-4.64062m4.51172 3.96484l-.28516 1.1914m13.91797-.08984l-4.3789-5.4961m4.3789 5.4961l-.97656 2.2539m14.39453-2.33983l-4.58984-5.32032m3.92578 4.54688l-.44531 1.14453m15.13672-1.21094l-6.01172-3.64062m5.13672 3.10937l-.06641 1.22656m14.72656-1.99609l-6.94922-1.03906m5.9375.88672l.41016 1.15625m13.79297-2.57813l-6.70313 2.10938m5.72656-1.8047l.875.85938m13.32032-1.42578l-6.51172 2.63282m5.5664-2.25l.9375.78906m13.57032-.13672l-7.0039.5625m7.0039-.5625l1.32031 2.0664m11.9961-2.05859l-7.00782.54297m7.00781-.54297l1.3125 2.07422m12.01172-1.6914l-7.02344-.22266m6 .1914l.54297 1.10157m13.67188-2.10547l-6.77735 1.85156m6.77735-1.85156l1.6836 1.78515m11.48437-2.20703l-6.48828 2.69532m6.48828-2.69532l1.89843 1.55469m11.12891-2.10547l-5.91016 3.79688m5.91016-3.79688L322.19141 453m11.03125-1.41016l-5.6211 4.21875m4.80078-3.60546l1.11328.52343m12.9336-1.2461L341 455.91797m4.65625-3.79296l1.13281.47656m12.75-1.3711l-4.9961 4.9375m4.9961-4.9375l2.34375.73048m9.24219-1.6914l-1.53516 6.85937m1.53516-6.85938l2.36328-.64844m7.55078 1.75l5.26563 4.65625m-4.5-3.98046l.28515-1.19141m11.45703 2.1289l6.87891 1.42579m-6.8789-1.42578l-.6875-2.35547m1.6875 2.5625l-.34376-1.17578m12.66797 2.4453l6.85938-1.52343m-6.85938 1.52344l-1.59375-1.86719m14.8711.53906l6.9336 1.13281m-6.9336-1.1328l-.78516-2.32423m15.21094.28125l4.71094 5.21485m-4.71094-5.21485l.83594-2.30468m12.28906 2.49609l5.09375 4.83594m-5.09375-4.83594l.65625-2.36719m.08594 3.07031l.32812-1.18359m11.33594 2.26172l6.91015 1.27344m-6.91015-1.27344l-.73828-2.33984"/><g clip-path="url(#V)"><path fill="none" stroke="#000" stroke-linecap="round" stroke-linejoin="round" stroke-miterlimit="10" stroke-width=".5" d="M146.61328 442.73438l-5.22656-4.69922"/></g><path fill="none" stroke="#000" stroke-linecap="round" stroke-linejoin="round" stroke-miterlimit="10" stroke-width=".5" d="M146.61328 442.73438l-.59375 2.3789m13.39844-1.91406l-4.20703-5.6289m4.20703 5.6289l-1.04297 2.21875m14.3164-2.1875l-4.12109-5.6914m4.1211 5.6914l-1.07813 2.20312m13.27344-1.66406L183.0039 437m1.60937 5.78516l-.88672.84375m14.28906.1875l-1.51171-6.86328m1.29297 5.86328l-.9336.79687m15.89063-.47265l-4.35938-5.51172m3.72656 4.70703l-.49218 1.125m15.16406-1.09766l-5.80469-3.95703m4.96094 3.3789l-.13281 1.22266m14.6953-1.4375l-6.61327-2.375m20.13672 1.21485l-7.02735-.05078m6.0039.04296l.56642 1.08594m13.70312-1.79297l-6.89063 1.375m6.89063-1.375l1.55469 1.90235m11.55469-2.57422l-6.48047 2.72265m5.53906-2.32812l.94922.77734m13.57422 0l-7.01563.375m7.01563-.375l1.26953 2.10157m11.96484-2.69922l-6.85156 1.5703m6.85156-1.5703l1.60547 1.85547m11.3789-2.73047L314 442.04296m6.1914-3.3203l2.03907 1.36328m-2.9375-.8789l1.01953.67968m12.95703-1.54297l-5.71875 4.08203m5.71875-4.08203l2.19922 1.09375m-3.03125-.5l1.09766.54688m12.9453-1.28516l-5.5078 4.36719m5.5078-4.3672l2.2461.98438m10.47657-1.5703l-4.32422 5.53905m4.32422-5.53906l2.41796.42578m9.60547-1.0586l-1.73828 6.8086m1.73828-6.8086l2.38282-.58202m-2.63672 1.57031l1.1914-.28906m9.625-.26172l3.76563 5.92969m-3.76563-5.9297L383 435.28517m11.96875 2.22265l4.03516 5.7539m-4.03516-5.7539l1.11328-2.1875m-.52734 3.02344l.5586-1.09375m10.97655 1.70312l6.42188 2.85938m-6.42188-2.85938l-.17187-2.4453m1.10937 2.86327l-.08593-1.22265m12.22265 1.58203l6.90625 1.3086m-6.90625-1.3086l-.72656-2.34375m17.79297-.5039l-.59766 7m.59766-7l2.2539-.96485m12.04688 1.19531l-2.57031 6.53906m2.57031-6.53906l2.4375-.28125m-2.8125 1.23438l1.21875-.14063m14.4414 1.1289l-6.5078 2.65626"/><g clip-path="url(#W)"><path fill="none" stroke="#000" stroke-linecap="round" stroke-linejoin="round" stroke-miterlimit="10" stroke-width=".5" d="M466.8164 439.05469l1.88282 1.57031"/></g><g clip-path="url(#X)"><path fill="none" stroke="#000" stroke-linecap="round" stroke-linejoin="round" stroke-miterlimit="10" stroke-width=".5" d="M146.90234 429.04688l-5.80468-3.95704"/></g><path fill="none" stroke="#000" stroke-linecap="round" stroke-linejoin="round" stroke-miterlimit="10" stroke-width=".5" d="M146.90234 429.04688l-.26562 2.4375m13.80469-2.8125l-6.25-3.20704m6.25 3.20703l.03515 2.45313m13.26172-2.41797l-6.21875-3.27734m5.3164 2.80078l.00391 1.22656m14.4375-1.27344l-6.66406-2.23046m5.69531 1.90625l.20313 1.20703m14.22656-1.4922l-6.95312-1.01171m5.9414.86328l.41406 1.15625m13.89454-2.1211l-6.92188 1.21485m5.91406-1.03906l.75782.96875m13.55859-1.17578l-6.91016 1.27734m5.90625-1.08984l.76172.96094m13.17969 1.1875l-6.15234-3.39454m5.2578 2.90235L239.3672 429.5m14.28125-.83594l-6.25781-3.1914m5.34765 2.72656l.02344 1.23047m14.47266-1.46485l-6.79688-1.79296m5.8086 1.53125l.28124 1.1953m13.94922-2.96093l-6.65234 2.26172m5.6836-1.9336l.89452.83985m13.57422.08203l-7.02344-.23828m6.00391.20312l.53516 1.10547m13.76562-1.70703l-6.95312 1.03516m5.9414-.88281l.72657.98437m13.41796-1.83984l-6.58984 2.4414m6.58984-2.4414l1.83204 1.6289m-2.78907-1.27343l.91407.8164m13.13671-1.65234l-6.14843 3.40625m6.14843-3.40625l2.0586 1.33594m-2.95313-.84375l1.02735.67187m12.9414-1.54297l-5.66406 4.16016m5.66406-4.16016l2.21094 1.0664m10.92969-1.28515l-5.3164 4.59766m5.3164-4.59766l2.28906.88281m9.86328-1.76171l-2.99219 6.35546m2.9922-6.35546l2.45312-.1211m9.01172-.19531l.70703 6.98828m-.70703-6.98828l2.03906-1.36719m13.82422 2.11719l-4.38672 5.48828m4.38672-5.48828l2.41406.45312m-3.05078.34766l2.41015.45313m11.44532-1.32813l-4.1914 5.63672m4.1914-5.63672l2.42578.36719m-3.03516.45312l2.42578.36719m10.60547-1.67187l-2.40625 6.60546m2.40625-6.60546l2.42969-.33985m-2.78125 1.30078l2.42969-.33984m-2.77735 1.30078l2.4297-.33984m12.36327-1.1797l-3.96484 5.80079m3.96484-5.80078l2.4414.27344m-3.01562.5703l2.4375.27345m11.625-.9922l-4.3125 5.55079m4.3125-5.55078l2.41797.42187m-3.04687.38672l2.41797.41797m-3.04297.39063l1.20703.20703m14.02344-1.14844l-5.63282 4.19922"/><g clip-path="url(#Y)"><path fill="none" stroke="#000" stroke-linecap="round" stroke-linejoin="round" stroke-miterlimit="10" stroke-width=".5" d="M466.3789 424.96875l2.21876 1.04688"/></g><g clip-path="url(#Z)"><path fill="none" stroke="#000" stroke-linecap="round" stroke-linejoin="round" stroke-miterlimit="10" stroke-width=".5" d="M465.5586 425.57813l2.21874 1.05078"/></g><path fill="none" stroke="#000" stroke-linecap="round" stroke-linejoin="round" stroke-miterlimit="10" stroke-width=".5" d="M464.73828 426.1914l1.10938.52344"/><g clip-path="url(#aa)"><path fill="none" stroke="#000" stroke-linecap="round" stroke-linejoin="round" stroke-miterlimit="10" stroke-width=".5" d="M147.01563 415.55469l-6.03125-3.60156"/></g><path fill="none" stroke="#000" stroke-linecap="round" stroke-linejoin="round" stroke-miterlimit="10" stroke-width=".5" d="M147.01563 415.55469l-.1211 2.44922m13.6836-2.94922l-6.52735-2.60547m6.52734 2.60547l.26563 2.4414m13.30078-3.6953l-7.02734-.09766m6.0039.08593l.5625 1.08985m13.73047-1.6875l-6.9375 1.12109m5.92969-.95703l.73828.97656m13.625-.76562l-7.01953.37109m5.9961-.3164l.6328 1.05078m12.54298-3.53125l-4.69532 5.22656m4.01172-4.46875l1.1914.29687m6.9922 2.11719l6.9375-1.11719m6.77343 2.26172l6.14453-3.41015m-5.25 2.91406L234 414.29297m17.7539 2.75l-2.46874-6.57813m2.10937 5.6211l-.8125.91797m15.125-.27735l-3.74219-5.94922m3.19532 5.08594l-.60938 1.0625m16.10547-2.91406l-7.00781-.51563m7.00781.51563l.98828 2.24219m12.33594-2.47266l-7.02734-.05469m6.0039.04688l.5664 1.08594m13.76563-1.3086l-7.01562.40625m5.9961-.34765l.63671 1.05078m13.66016-1.45313l-6.94141 1.09375m6.9414-1.09375l1.47657 1.95703m11.52344-2.95312l-6.3125 3.08594m6.3125-3.08594l1.98828 1.4375M346.5 411.59766l-5.54687 4.3125m5.54687-4.3125l2.23828 1m11.25-.75782l-5.89453 3.82813m5.89453-3.82813l2.14453 1.19141m11.34766-.88672l-6.2461 3.21875m6.2461-3.21875l2.01562 1.39844m-2.92578-.92969l1.00782.69922m12.69921-1.91797l-5.21093 4.71875m5.21093-4.71875l2.3047.83203m-3.0625-.14453l2.30468.83203m-3.0625-.14843l1.15234.41796m13.61719-1.85156l-5.08984 4.84375m5.08984-4.84375l2.32813.77735m-3.06641-.07422l2.32422.77734m-3.0664-.07031l1.16405.38672m13.41797-2.00391l-4.66406 5.25781m4.66406-5.25781l2.38672.57813m-3.0625.1875l2.38281.57812m-3.0625.1875l2.38282.57422m11.97265-2.35156l-4.03515 5.75m4.03515-5.75l2.4375.30078m-3.02343.53515l2.43359.30079m-3.01953.53515l1.21484.15235m13.70703-1.46875l-4.90234 5.03515m4.90234-5.03515l2.35547.6875m-3.07031.04687l2.35547.6836m11.85547-1.22266l-5.26563 4.64844m5.26563-4.64844l2.30078.85937m-3.0664-.1836l2.29687.86329m12.14453-1.0586l-5.98438 3.6875"/><g clip-path="url(#ab)"><path fill="none" stroke="#000" stroke-linecap="round" stroke-linejoin="round" stroke-miterlimit="10" stroke-width=".5" d="M466.55469 411.91016l2.11719 1.23828"/></g><g clip-path="url(#ac)"><path fill="none" stroke="#000" stroke-linecap="round" stroke-linejoin="round" stroke-miterlimit="10" stroke-width=".5" d="M465.6836 412.44531l2.11718 1.24219"/></g><g clip-path="url(#ad)"><path fill="none" stroke="#000" stroke-linecap="round" stroke-linejoin="round" stroke-miterlimit="10" stroke-width=".5" d="M147.42188 401.22656l-6.84375-1.57812"/></g><path fill="none" stroke="#000" stroke-linecap="round" stroke-linejoin="round" stroke-miterlimit="10" stroke-width=".5" d="M147.42188 401.22656l.63671 2.3711m12.7422-2.71485l-6.97267-.88672m6.97266.88672l.86719 2.29297m12.4414-3.23828l-6.95703 1.0039m6.95703-1.0039l1.44922 1.97656m9.79688-4.69531l-2.82031 6.4375m2.41015-5.5l1.22266-.09375m9.1211-.53125l3.9414 5.8164m-3.36719-4.97265l.57422-1.08203m10.66797 3.69922l6.9375-1.10938m-5.92578.94922l-.74219-.98047m13.32422 2.05469l6.38281-2.9375m-5.45312 2.51172l-.97657-.7461m13.98828-2.6953l5.12891 4.80077m-4.38281-4.10156l.32031-1.1875m12.03125 5.03516l5.5625-4.29688m-5.5625 4.29688l-2.23437-1.01172m19.01562 2.3086l-1.36719-6.89063m1.16797 5.89062l-.94922.77344m17.0625-1.96875l-6.5664-2.4961m6.5664 2.4961l.3086 2.4336m12.9961-4.96094l-6.54688 2.55859m5.59375-2.1875l.92968.80078m7.09766 1.98828l5.9336-3.76172m13.80468 2.51563l-6.91015-1.27344m6.91015 1.27344l.74219 2.33984m9.51172-6.46875l-.78516 6.98438m.66797-5.96875l1.14063-.44922m15.29296 2.01953l-6.78906 1.8125m5.80078-1.54688l.83594.89454m13.53516.33203l-6.92578-1.17188m6.92578 1.17188l.77734 2.32812m12.24219-4.4336l-6.33594 3.04298m6.33594-3.04297l1.97656 1.45312m-2.89844-1.01171l1.97657 1.45312m11.36718-3.05078l-4.54687 5.35547m4.54687-5.35547l2.39844.52344m-3.0586.2539l2.39454.52344m-3.0586.25781l1.19922.26172m14.15235-.9961L394 402.29298m5.97266-3.70703l2.12109 1.23047m-2.99219-.69141l1.0625.61719m13.08203-1.21875l-5.89062 3.83203m5.89062-3.83203l2.14844 1.1875m-3.0039-.6289l1.07421.59374m12.73438-1.6211l-5.16406 4.76563m5.16406-4.76562l2.3164.8125m-3.0664-.11719l2.3125.8125m11.7461-1.51563l-5.15235 4.78125m5.15234-4.78125l2.3164.8047m-3.0664-.10938l2.3164.80469m12.08204-1.08204l-5.8164 3.94532m5.8164-3.94532l2.16797 1.14844m-3.01563-.57422l2.16797 1.14844m12.19532-1.3789l-6.22266 3.26171"/><g clip-path="url(#ae)"><path fill="none" stroke="#000" stroke-linecap="round" stroke-linejoin="round" stroke-miterlimit="10" stroke-width=".5" d="M466.67188 398.8086l2.02734 1.3828"/></g><g clip-path="url(#af)"><path fill="none" stroke="#000" stroke-linecap="round" stroke-linejoin="round" stroke-miterlimit="10" stroke-width=".5" d="M465.76953 399.28125l2.02344 1.38281"/></g><path fill="none" stroke="#000" stroke-linecap="round" stroke-linejoin="round" stroke-miterlimit="10" stroke-width=".5" d="M464.86328 399.75781l1.01172.6914"/><g clip-path="url(#ag)"><path fill="none" stroke="#000" stroke-linecap="round" stroke-linejoin="round" stroke-miterlimit="10" stroke-width=".5" d="M147.32422 388.25781l-6.64844-2.26953"/></g><path fill="none" stroke="#000" stroke-linecap="round" stroke-linejoin="round" stroke-miterlimit="10" stroke-width=".5" d="M147.32422 388.25781l.39062 2.42188m13.08985-3.13281l-6.97656-.84766m6.97656.84765l.8789 2.28907m-1.89453-2.41406l.4414 1.14453m13.66017-2.75l-6.52344 2.61328m6.52344-2.61328l1.875 1.58203m10.17187-3.16797l-3.98438 5.78515m3.98438-5.78515l2.4375.27734m-3.01563.5625l1.21875.14063m12.36329-1.17188l-3.35938 6.17188m3.35938-6.17188l2.45312.02344m-2.9414.8711l1.22656.01171m11.86328-1.19922l-1.9375 6.75391m1.9375-6.7539l2.40234-.51173m-2.6836 1.4961l1.19923-.25781m12.91406 5.83593l-2.96875-6.37109m2.53516 5.44531l-.73828.97656m15.71484-5.46875l-5.42578 4.46485m4.63672-3.8164l1.1328.46874m13.76954 1.22656l-7.02344-.22265m7.02344.22265l1.08203 2.20313m-2.10156-2.23438l.53906 1.10157m13.46875.3086l-6.36719-2.98048m6.3672 2.98047l.12109 2.44922m-1.05079-2.88281l.125 2.44922m14.19532-2.19532l-6.51954-2.62109m6.51954 2.6211l.2578 2.4414m-1.20702-2.82031l.26172 2.4375m14.15234-2.51563l-6.8164-1.70703m6.8164 1.70703l.58984 2.3789m-1.58203-2.6289l.29688 1.1914m14.07422-2.33593l-6.94532 1.08203m6.94532-1.08203l1.46875 1.96094m-2.48047-1.80469l.73437.98438m13.60938-.21094l-6.98047-.77735m6.98047.77735l.90625 2.28125m-1.92188-2.39453l.45313 1.14062m13.36719-3.27734l-5.96094 3.72265m5.96094-3.72265l2.125 1.22656m-2.9922-.6836l1.0625.61329m13.64454.94531l-7.01172-.48047m7.01172.48047l1.0039 2.23828m-2.02343-2.3086l.5 1.1211m13.69531-2.30469l-6.73047 2.02735m6.73047-2.02735l1.72656 1.7422m-2.70703-1.44923l.86328.8711m13.30078-1.52344l-6.46875 2.7461m6.46875-2.7461l1.90625 1.54297m-2.84765-1.14453l1.90625 1.54297m11.98437-2.60157l-5.73437 4.06641m5.73437-4.0664l2.1914 1.10156m-3.02733-.50782l2.1914 1.09766m12.01953-1.59766l-5.85547 3.87891m5.85547-3.8789l2.15625 1.16796m-3.00781-.60547l2.15625 1.17188m11.96875-1.80078l-5.76953 4.01172m5.76953-4.01172l2.17969 1.1211m-3.01953-.53517l1.08984.5586m12.73047-1.55469l-5.10156 4.83203m5.10156-4.83203l2.32422.78125m-3.0664-.07812l1.16405.39062m13.08594-.8711l-5.48828 4.38673m5.48828-4.38672l2.2539.97265m-3.05468-.33593l1.1289.48828m13.29688-.67188l-6.10547 3.48047m6.10547-3.48047l2.07031 1.3125m-2.96093-.80469l2.07421 1.3125m12.4297-1.13671l-6.70313 2.11328"/><g clip-path="url(#ah)"><path fill="none" stroke="#000" stroke-linecap="round" stroke-linejoin="round" stroke-miterlimit="10" stroke-width=".5" d="M466.91406 386.0664l1.75 1.72266"/></g><path fill="none" stroke="#000" stroke-linecap="round" stroke-linejoin="round" stroke-miterlimit="10" stroke-width=".5" d="M465.9375 386.375l1.75 1.71875m-2.72656-1.41016l.875.85938"/><g clip-path="url(#ai)"><path fill="none" stroke="#000" stroke-linecap="round" stroke-linejoin="round" stroke-miterlimit="10" stroke-width=".5" d="M146.78516 375.94922l-5.57032-4.28516"/></g><path fill="none" stroke="#000" stroke-linecap="round" stroke-linejoin="round" stroke-miterlimit="10" stroke-width=".5" d="M146.78516 375.94922l-.41016 2.42187m14.14063-3.11328l-6.40235-2.89844m6.40234 2.89844l.15235 2.44922m13.32422-2.8789l-6.72266-2.03907m5.7461 1.74219l.23437 1.20313m14.13672-2.64454l-6.88281 1.4336m6.8828-1.4336l1.56642 1.88672m11.10156-3.29687l-5.58985 4.25781m5.58985-4.25781l2.23047 1.02344m-3.04297-.40625l1.11328.51562m13.10547-1.00781l-5.77344 4.00781m5.77344-4.00781l2.1836 1.1211m-3.02345-.53907l1.08985.5625m13.67187 1.25l-6.98437-.78125m6.98437.78125l.90235 2.28125m-1.91797-2.39453l.44922 1.14062m13.71875-.29297l-6.65625-2.25m6.65625 2.25l.39453 2.42188m13.0039-4.3789l-6.82812 1.66015m6.82812-1.66016l1.63282 1.83594m11 1.20703l-5.46094-4.42187m5.46094 4.42187l-.46875 2.40625m13.64843-2.2461l-5.1914-4.74218m5.1914 4.74219l-.61328 2.375m14.77735-4.0625l-6.89063-1.36719m6.89063 1.36719l.71093 2.35156m12.64844-2.61719l-6.97656-.83594m6.97656.83594l.88672 2.28906m-1.90234-2.41015l.88672 2.28906m13.46484-2.78515l-7.01953.39453m7.01953-.39454l1.26953 2.10157m-2.29297-2.04297l.63672 1.05078m13.45313-2.22266l-6.51954 2.625m6.51954-2.625l1.875 1.58204m-2.82422-1.19922l.9375.78906m13.41797-.91797l-6.70313 2.11328m6.70313-2.11328l1.75 1.72266m-2.72657-1.41407l.875.85938m13.5-.85156l-6.8711 1.48046m6.8711-1.48046l1.58203 1.875m-2.58203-1.66016l.79297.9414m13.53125-1.10156l-6.89062 1.375m6.89062-1.375l1.55469 1.89844m-2.55469-1.69922l.77344.94922m13.51172-1.29687l-6.82813 1.66796m6.82813-1.66796l1.63281 1.83203m-2.6289-1.58985l.8164.91797m13.125-2.07812l-6.08984 3.50781m6.08984-3.50781l2.07813 1.30078m-2.96485-.79297l1.03906.65234m13.20704-1.08203l-6.1797 3.35156m6.1797-3.35156l2.04296 1.35547m-2.9414-.86719l1.02344.67579m12.91796-1.58985l-5.6328 4.19922m5.6328-4.19922l2.21875 1.05078m-3.03906-.4375l1.10938.52344m13.12109-1l-5.82422 3.92969m5.82422-3.92969l2.16797 1.15234m-3.01563-.58203l1.08204.57813m13.37109-.6289l-6.40625 2.89062m6.40625-2.89063l1.9414 1.5m-2.875-1.08203l.97266.75m13.375-.92578l-6.60156 2.40625"/><g clip-path="url(#aj)"><path fill="none" stroke="#000" stroke-linecap="round" stroke-linejoin="round" stroke-miterlimit="10" stroke-width=".5" d="M466.86328 372.60547l1.82422 1.64062"/></g><path fill="none" stroke="#000" stroke-linecap="round" stroke-linejoin="round" stroke-miterlimit="10" stroke-width=".5" d="M465.90234 372.95313l.91016.8203"/><g clip-path="url(#ak)"><path fill="none" stroke="#000" stroke-linecap="round" stroke-linejoin="round" stroke-miterlimit="10" stroke-width=".5" d="M146.23438 363.20313l-4.46875-5.42188"/></g><path fill="none" stroke="#000" stroke-linecap="round" stroke-linejoin="round" stroke-miterlimit="10" stroke-width=".5" d="M145.58594 362.41406l-.46875 1.13281m14.625-.51171l-4.85547-5.08204m4.14844 4.33985l-.38282 1.16797m14.2422-.28125l-4.53126-5.3711m4.53125 5.3711l-.91016 2.27734m15.29297-3.85156l-6.66406-2.22656m6.66406 2.22656l.40625 2.42187m13.04297-4.10546l-6.9336 1.14062m5.92579-.97266l.74219.97266m13.35156-1.9336l-6.47266 2.73048m6.47266-2.73047l1.90234 1.54687m11.66797-.55078l-6.98828.73438m6.98828-.73438l1.375 2.03516m-2.39062-1.9297l1.375 2.03517m12.97656-1.82032l-7.02734.09375m7.02734-.09375l1.17969 2.15235m-2.20313-2.13672l.58985 1.07422m13.74218-.83594l-7.01562-.41016m7.01562.41016l1.02344 2.23047m12.0664-1.17969l-6.5625-2.51172m6.5625 2.51172l.30079 2.4336m-1.25781-2.80079l.15234 1.21875m13.45703.23438l-5.23437-4.6875m5.23437 4.6875l-.58984 2.38281m-.17188-3.0625l-.29297 1.1914m15.01563-1.55468l-6.52734-2.60156m6.52734 2.60156l.26562 2.4414m-1.21484-2.8203l.13281 1.21874m14.1289-.83203l-6.52343-2.61328m6.52344 2.61328l.26172 2.4375m-1.21094-2.8164l.13281 1.21875m14.30469-1.40625l-6.8711-1.48047m6.8711 1.48046l.66797 2.35938m-1.66797-2.57422l.33594 1.17969m14.05078-1.52344l-7.01563-.36719m7.01563.3672l1.03906 2.22655m-2.0586-2.27734l.51954 1.10938m13.7461-1.97266l-6.875 1.46484m6.875-1.46484l1.57812 1.8789m11.78125-1.61718l-6.96485.9414m6.96485-.9414l1.42969 1.99219m11.89062-1.94532l-6.97656.84375m6.97656-.84375l1.40625 2.01172m-2.42187-1.88672l.70312 1.0039m13.35156-2.125l-6.42578 2.83985m6.42578-2.83984l1.92969 1.51562m-2.86328-1.10546L387.8789 361m12.3164-1.9375l-6.41797 2.85938m6.41797-2.85938l1.9336 1.51172m-2.8672-1.09375l.96876.7539m13.15234-1.42968l-6.16015 3.3789m6.16015-3.3789l2.05078 1.34375m-2.94921-.85156l1.02734.67187m12.97266-1.5039l-5.73438 4.05859m5.73438-4.0586l2.1914 1.10157m-3.02734-.51172l2.1914 1.10156m11.95704-1.69531l-5.73047 4.0625m5.73047-4.0625l2.1953 1.10156m-3.02734-.50781l2.19141 1.10156m12.22656-1.24219l-6.27343 3.16016m6.27343-3.16016l2.0039 1.41406m-2.91405-.95703l1 .71094m13.1953-1.23437l-6.21093 3.28906"/><g clip-path="url(#al)"><path fill="none" stroke="#000" stroke-linecap="round" stroke-linejoin="round" stroke-miterlimit="10" stroke-width=".5" d="M466.66797 358.84766l2.03125 1.375"/></g><path fill="none" stroke="#000" stroke-linecap="round" stroke-linejoin="round" stroke-miterlimit="10" stroke-width=".5" d="M465.76172 359.32813l1.01562.6875"/><g clip-path="url(#am)"><path fill="none" stroke="#000" stroke-linecap="round" stroke-linejoin="round" stroke-miterlimit="10" stroke-width=".5" d="M146.05078 350.03125l-4.10156-5.70703"/></g><path fill="none" stroke="#000" stroke-linecap="round" stroke-linejoin="round" stroke-miterlimit="10" stroke-width=".5" d="M145.45313 349.19922l-.54297 1.10156m13.8789.0664l-2.94531-6.3789m2.51563 5.45313l-.7422.97656m14.375 0l-2.72655-6.47656m2.72656 6.47656l-1.54688 1.90234m16.09766-2.77344l-5.19531-4.73437m5.1953 4.73438l-.60937 2.375m13.16016-1.7461l-3.66797-5.9961m3.13281 5.125l-.62109 1.0547m14.76172-.38282l-4.25-5.59765m3.63281 4.78125l-.51562 1.11718m15.83203-3.3164l-7.01563.4336m7.01563-.4336l1.28125 2.09375m12.02734-2.14844l-7.0039.54297m7.0039-.54297l1.3164 2.07031m-2.33593-1.99219l.66016 1.03907m13.61328-.13672l-6.88281-1.41797m6.8828 1.41797l.69141 2.35547m12.69141-2.83985l-7.01563-.44921m7.01563.44921l1.01172 2.23438m11.6914-.46875l-5.79296-3.97656m5.79297 3.97656l-.27735 2.4375m-.5664-3.01953l-.13672 1.22265m14.1875-.49218l-5.57422-4.27735m5.57422 4.27735l-.40625 2.42187m-.40625-3.04297l-.20313 1.21094m14.34375-.60938l-5.60547-4.23828m5.60547 4.23829l-.38672 2.42187m14.32813-3.76953l-6.85547-1.54297m6.85547 1.54297l.64844 2.36719m-1.64454-2.58985l.32422 1.1836m13.92188-.71485l-6.72656-2.03515m6.72656 2.03515l.47265 2.41016m12.88282-4.30469l-6.8047 1.7539m6.8047-1.7539l1.65625 1.8125m-2.64844-1.55469l.82812.90235m13.29688-1.6836l-6.4414 2.8047m6.4414-2.8047l1.92187 1.52344m-2.85937-1.11719l.96094.76172m13.5664-.14062l-6.98828.7461m6.98828-.7461l1.375 2.03125m-2.39453-1.92188l.6875 1.01563m13.55469-1.6211l-6.8086 1.7422m6.8086-1.7422l1.65234 1.8125m-2.64062-1.5625l1.65234 1.81641m12.25-3.02344l-6.0039 3.65625m6.0039-3.65625l2.10938 1.25m-2.98438-.71875l1.05469.625m13.08984-1.23047l-5.91015 3.80079m5.91015-3.80079l2.14063 1.19922m-3-.64453l2.14062 1.19531m11.98828-1.8164l-5.8203 3.9336m5.8203-3.9336l2.16797 1.14844m-3.01562-.57813l2.16797 1.15234m-3.01563-.57812l1.08594.57422m14.2539-1.11328l-6.48046 2.72265m6.48047-2.72265l1.89843 1.55078m-2.84375-1.15235l1.90235 1.55079m12.48828-1.57422l-6.74219 1.97656m6.74219-1.97656l1.71484 1.7539m-2.69531-1.46875l1.71484 1.7539m12.41797-2.48827l-6.41406 2.8711"/><g clip-path="url(#an)"><path fill="none" stroke="#000" stroke-linecap="round" stroke-linejoin="round" stroke-miterlimit="10" stroke-width=".5" d="M466.76953 345.74219l1.9375 1.50781"/></g><g clip-path="url(#ao)"><path fill="none" stroke="#000" stroke-linecap="round" stroke-linejoin="round" stroke-miterlimit="10" stroke-width=".5" d="M465.83594 346.16016l1.9375 1.5078"/></g><path fill="none" stroke="#000" stroke-linecap="round" stroke-linejoin="round" stroke-miterlimit="10" stroke-width=".5" d="M464.90234 346.57813l.96875.7539"/><g clip-path="url(#ap)"><path fill="none" stroke="#000" stroke-linecap="round" stroke-linejoin="round" stroke-miterlimit="10" stroke-width=".5" d="M146.78125 336.00781l-5.5625-4.28906"/></g><path fill="none" stroke="#000" stroke-linecap="round" stroke-linejoin="round" stroke-miterlimit="10" stroke-width=".5" d="M145.97266 335.38281l-.20703 1.21094m13.73437.01953l-4.3711-5.5m3.73438 4.69922l-.48828 1.125m14.1914-.14063l-3.87109-5.86718m3.3086 5.01172l-.58985 1.07812m14.17188-.04687l-3.28125-6.21875m3.28125 6.21875L184.20704 339m15.11327-2.29297l-4.1211-5.6914m4.1211 5.6914l-1.07812 2.20703m13.22656-1.65234l-1.78906-6.79688m1.53125 5.8086l-.90235.83203M225.46875 337l-3.15625-6.27734m2.69922 5.36718l-.71094 1m15.60547-.98046l-5.40234-4.4922m4.61718 3.83985l-.25 1.19922m14.21094-.38672l-5.1211-4.8125m4.375 4.11328l-.3203 1.1836m11.66406.62109l.3125-7.02344m-.26563 6l-1.10937.52735m17.52734-1.1797l-5.98828-3.67187m5.98828 3.67188l-.14844 2.44922m13.35547-2.28125l-5.76953-4.00781m5.76953 4.0078l-.28906 2.4375m12.5586-1.44921l-3.6836-5.98438m3.6836 5.98438l-1.23829 2.11719m.70313-2.98829l-.6211 1.0586m14.91407-.50781l-4.56641-5.34375m4.5664 5.34375l-.89843 2.28125m15.26953-3.85938l-6.67969-2.1875m6.67969 2.1875l.42188 2.41406m13.0664-3.59765l-7.02344.17969m7.02344-.1797l1.20703 2.13673m11.64453-3.79688l-6.09375 3.5m5.20704-2.99219l1.03906.65235m12.82812-1.64063l-5.42578 4.46094m4.63672-3.8125l1.13281.46875m13.76953 1.0664l-7.02734.09376m7.02734-.09375l1.1797 2.15234m11.91796-3.32813l-6.58984 2.44532m6.58984-2.44531l1.83203 1.6328m11.07422-2.41406l-5.77344 4.00782m5.77344-4.00781l2.1836 1.125m11.38671-.69141l-6.28515 3.14062m6.28515-3.14062l2 1.42187m-2.91406-.96484l2 1.42188m12.42188-1.42188l-6.66797 2.22266m6.66797-2.22266l1.77734 1.6914m-2.75-1.36718l1.78125 1.6914m12.5039-2.01953l-6.66406 2.23438m6.66407-2.23438l1.78125 1.6875m-2.75-1.36328l1.78125 1.6875m-2.75-1.36328l.89062.84375m14.19922-1.89062l-6.33984 3.03125"/><g clip-path="url(#aq)"><path fill="none" stroke="#000" stroke-linecap="round" stroke-linejoin="round" stroke-miterlimit="10" stroke-width=".5" d="M466.73047 332.34766l1.97656 1.45703"/></g><g clip-path="url(#ar)"><path fill="none" stroke="#000" stroke-linecap="round" stroke-linejoin="round" stroke-miterlimit="10" stroke-width=".5" d="M465.8086 332.78906l1.97265 1.45703"/></g><path fill="none" stroke="#000" stroke-linecap="round" stroke-linejoin="round" stroke-miterlimit="10" stroke-width=".5" d="M464.88672 333.23047l.98828.72656"/><g clip-path="url(#as)"><path fill="none" stroke="#000" stroke-linecap="round" stroke-linejoin="round" stroke-miterlimit="10" stroke-width=".5" d="M147.33594 321.65234l-6.67188-2.21093"/></g><path fill="none" stroke="#000" stroke-linecap="round" stroke-linejoin="round" stroke-miterlimit="10" stroke-width=".5" d="M147.33594 321.65234l.41015 2.41797m-1.3828-2.73828l.20702 1.20703m13.84375-.33203l-6.19531-3.3164m6.19531 3.3164l-.00781 2.45313m12.79688-1.71875l-5.14454-4.78516m4.39453 4.08984l-.3125 1.1836m13.89844-.0586l-4.1875-5.64453m4.1875 5.64453l-1.05469 2.21485m13.97657-1.96094l-3.39844-6.15234m3.39844 6.15234l-1.33985 2.05469m15.53907-2.75l-5.16797-4.76172m5.16797 4.76172l-.6211 2.375m14.60547-3.4336l-6.50781-2.64453m5.5625 2.25781l.125 1.22266m14.0039-.55078l-6.24609-3.21875m5.33984 2.75l.01563 1.22656m13.09375.51563l-4.01953-5.76563m3.4336 4.92578l-.5586 1.09375m13.48828.21875l-2.07813-6.71093m1.77735 5.73437l-.86328.8711m14.53906.08984l-2.19531-6.67578m1.875 5.70312l-.85157.88672m13.83985.23047l-.90235-6.96875m.90235 6.96875l-2 1.42188m16.36719-1.73047l-3.00782-6.35157m3.00782 6.35157l-1.46875 1.96875m13.88671-1.6836l-1.21484-6.92187m1.21484 6.92187l-1.93359 1.51172m14.94922-1.47265l-.61719-7m.52735 5.98437l-1.02735.66797m15.20703.1914l-2.16406-6.68359m1.84766 5.71094l-.85157.88281m15.41407-6.13281l-4.02735 5.75781m16.8047-6.0664l-2.95313 6.3789m18.21484-2.39453L380.25 319.75m5.84766 1.36328l.3164 1.1836m14.00781-1.01172l-6.87109-1.47657m5.8711 1.26172l.33593 1.17969m13.82813-2.94531l-6.57032 2.48828m5.6172-2.125l.92187.8086m12.66015-2.29298l-5.1953 4.73047m4.4375-4.04297l1.15624.41407m12.10938-1.75782l-3.58204 6.04297m3.0625-5.16406l1.22657.0586m13.60937-.04688l-5.58594 4.26172m5.58594-4.26172l2.23047 1.02344m11.11328-.98829l-5.64062 4.19141"/><g clip-path="url(#at)"><path fill="none" stroke="#000" stroke-linecap="round" stroke-linejoin="round" stroke-miterlimit="10" stroke-width=".5" d="M466.38281 318.45313l2.21485 1.05078"/></g><g clip-path="url(#au)"><path fill="none" stroke="#000" stroke-linecap="round" stroke-linejoin="round" stroke-miterlimit="10" stroke-width=".5" d="M465.5625 319.0625l2.21484 1.05078"/></g><path fill="none" stroke="#000" stroke-linecap="round" stroke-linejoin="round" stroke-miterlimit="10" stroke-width=".5" d="M464.74219 319.67188l1.10547.52343"/><path fill="#00f" fill-rule="evenodd" d="M277.28125 463.21094h8.61719V453.0625h-8.61719v10.14844"/><path fill="azure" fill-rule="evenodd" d="M279.11328 454.89844h.83203v2.82031h3.28516v-2.82031h.83594v6.48047h-.83594v-2.91797h-3.28516v2.91797h-.83203v-6.48047"/><path fill="#00f" fill-rule="evenodd" d="M392.67578 458.77344h8.6211V448.625h-8.6211v10.14844"/><path fill="azure" fill-rule="evenodd" d="M394.51172 450.45703h.83203v2.82422h3.28516v-2.82422h.83203v6.48047h-.83203v-2.91406h-3.28516v2.91406h-.83203v-6.48047"/><path fill="#ff3030" fill-rule="evenodd" d="M322.35938 436.57813h7.6914v-10.14454h-7.6914v10.14454"/><path fill="azure" fill-rule="evenodd" d="M324.1914 428.26563h.83204v5.74218h3.19531v.73828h-4.02734v-6.48046"/><path fill="#00f" fill-rule="evenodd" d="M383.80078 432.14063h8.61719v-10.14454h-8.61719v10.14454"/><path fill="azure" fill-rule="evenodd" d="M385.63281 423.82813h.83203v2.82421h3.28907v-2.82421h.83203v6.48046h-.83203v-2.91796h-3.28907v2.91796h-.83203v-6.48046"/><path fill="#ff3030" fill-rule="evenodd" d="M193.64453 423.26563h7.69531v-10.14844h-7.6953v10.14844"/><path fill="azure" fill-rule="evenodd" d="M195.47656 414.95313h.83594v5.73828h3.1914v.74218h-4.02734v-6.48046"/><path fill="#00f" fill-rule="evenodd" d="M224.01953 414.38672h8.61719v-10.14453h-8.61719v10.14453"/><path fill="azure" fill-rule="evenodd" d="M225.85156 406.07422h.83594v2.82422h3.28516v-2.82422h.83203v6.48047h-.83203v-2.91406h-3.28516v2.91406h-.83594v-6.48047"/><path fill="#ff3030" fill-rule="evenodd" d="M233.58984 387.75781h7.69532v-10.14453h-7.69532v10.14453"/><path fill="azure" fill-rule="evenodd" d="M235.42188 379.44531h.83593v5.73828h3.1914v.7422h-4.02733v-6.48048"/><path fill="#ffffe0" fill-rule="evenodd" d="M338.85938 379.11328h22.17968v-10.1914h-22.17969v10.1914"/><path fill-rule="evenodd" d="M342.35938 370.7539h.5078v6.29298h-.78515v-4.48829h-1.39062v-.55468l.55859-.06641.2539-.05469.23048-.08984.20312-.14063.17188-.21093.14453-.29297.10546-.39453m4.8125 0l.23047.01953.21875.05469.20704.08984.1953.1211.1836.14843.17188.17578.30468.42188.2422.49218.17968.54688.10937.57812.03907.58985-.03907.59375-.10937.58594-.17969.55468-.24219.5-.30468.42969-.17188.17969-.1836.15234-.1953.1211-.20704.09375-.21875.05859-.23046.01953-.23047-.01953-.21875-.0586-.20704-.09375-.1953-.12109-.1836-.15234-.17188-.17969-.30468-.42969-.2422-.5-.17968-.55469-.10937-.58593-.03907-.59375h.83204l.03125.5625.07812.50781.1289.4414.16016.375.1914.30079.21095.22265.22265.13672.22656.04688.22657-.04688.22265-.13672.21094-.22265.1914-.30078.16016-.375.12891-.44141.08203-.50781.02735-.5625-.02735-.5586-.08203-.5-.1289-.4375-.16016-.36718-.1914-.28907-.21095-.21484-.22265-.13281-.22656-.04297-.22657.04297-.22265.13281-.21094.21484-.1914.28907-.16016.36718-.12891.4375-.07813.5-.03125.5586h-.83203l.03907-.58985.10937-.57812.17969-.54688.24219-.49218.30468-.42188.17188-.17578.1836-.14844.1953-.1211.20704-.08983.21875-.0547.23046-.01952m5.08985 0h.51172v6.29296h-.78906v-4.48828h-1.38672v-.55468l.55859-.06641.2539-.05469.22657-.08984.20703-.14063.17188-.21093.14062-.29297.10547-.39453m2.82422 2.17578h.78906l.01953-.3164.0586-.28517.09765-.2539.14063-.21485.18359-.17578.22266-.1289.26562-.07813.30469-.02734.23828.01953.22656.0625.20313.10156.17969.14063.14843.17187.11328.20703.07032.23438.02734.26562-.02344.26954-.0664.22265-.10938.1914-.15625.17188-.19922.16406-.2461.16407-.63671.39062-.53516.3125-.4375.3164-.34765.32423-.26563.33594-.1875.35156-.125.36719-.07031.39453-.01953.41796h4.21094v-.73828h-3.33204l.08204-.28515.11328-.23828.14844-.19922.1875-.17969.23046-.17188.27735-.17578.71875-.41796.41406-.20313.34766-.23047.28125-.2539.21875-.26563.16406-.27734.10937-.28516.06641-.28516.01953-.28125-.04297-.3828-.1211-.34767-.1875-.30859-.25-.26172-.30468-.21484-.34375-.15625-.3789-.09766-.41016-.03515-.4336.03125-.39843.10156-.35547.16406-.30469.23438-.2461.30468-.1875.375-.11327.44532-.04297.51953"/><path fill="#ffffe0" fill-rule="evenodd" d="M195.27734 340.8789h22.1797v-10.1914h-22.1797v10.1914"/><path fill-rule="evenodd" d="M198.77734 332.51953h.50782v6.29688H198.5v-4.4922h-1.39063v-.55468l.5625-.0664.25-.05079.23047-.08984.20313-.14063.17578-.21093.14063-.29688.10546-.39453m4.8125 0l.23047.01953.21875.05469.20703.08984.19922.1211.1836.14844.17187.17578.30078.42187.24219.49219.17969.54687.11328.57813.03906.59375-.03906.58984-.11328.58594-.17969.55469-.24219.5-.30078.42969-.17187.17968-.1836.15235-.19922.125-.20703.08984-.21875.0586-.23047.01952-.22656-.01953-.21875-.05859-.21094-.08984-.1953-.125-.1836-.15235-.17188-.17969-.30078-.42968-.24219-.5-.18359-.55469-.10938-.58594-.03906-.58984h.83203l.03125.5625.08203.5039.125.44532.16407.3711.1875.30077.21094.22266.22265.13672.22656.04687.22657-.04687.22265-.13672.21094-.22266.1914-.30078.16407-.3711.125-.4453.08203-.50391.02734-.5625-.02734-.5625-.08203-.5-.125-.4375-.16406-.36328-.19141-.29297-.21094-.21485-.22265-.1328-.22657-.04298-.22656.04297-.22266.13281-.21093.21485-.1875.29297-.16406.36328-.125.4375-.08204.5-.03125.5625h-.83203l.03906-.59375.10938-.57813.1836-.54687.24218-.49219.30078-.42187.17188-.17579.1836-.14843.1953-.1211.21094-.08984.21875-.05469.22656-.01953m5.09375 0h.50782v6.29688h-.78516v-4.4922h-1.39063v-.55468l.5625-.0664.25-.05079.23047-.08984.20313-.14063.17187-.21093.14453-.29688.10547-.39453m2.82422 2.17578h.78516l.01953-.3164.0586-.28516.10156-.2539.13672-.21485.18359-.17188.22266-.1328.26562-.07813.3086-.02735.23827.01954.22266.0625.20313.10156.17968.14062.14844.17188.11328.20703.07031.23437.02735.26563-.02344.26953-.0664.22266-.10938.1914-.15234.17188-.20313.16406-.2461.16406-.6328.39063-.53907.3125-.4375.3164-.34765.32422-.26172.33594-.1914.35156-.125.3711-.07032.39062-.01953.42188h4.21094v-.7422h-3.33204l.08203-.28515.1172-.23437.14452-.20313.1875-.17969.23047-.17187.28125-.17578.71485-.41797.41797-.20313.34375-.23046.28125-.25391.21875-.26563.16406-.27734.11328-.28515.0625-.28516.01953-.28125-.04297-.38281-.11719-.34766-.1914-.3086-.25-.26171-.30078-.21094-.34766-.16016-.3789-.09765-.40626-.03516-.4375.03516-.39843.09765-.35157.16407-.30468.23437-.25.30469-.1836.375-.11719.44531-.03906.51953"/></g></defs><use xlink:href="#av"/></svg>