<svg xmlns="http://www.w3.org/2000/svg" role="img" xmlns:xlink="http://www.w3.org/1999/xlink" viewBox="142.45 309.95 326.84 171.84"><defs><clipPath id="a"><path d="M144 441h1v39.32813h-1zm0 0"/></clipPath><clipPath id="b"><path d="M144 311.67188h1V440h-1zm0 0"/></clipPath><clipPath id="c"><path d="M144 311.67188h324v168.65625H144zm0 0"/></clipPath><clipPath id="d"><path d="M351 478h8v2.32813h-8zm0 0"/></clipPath><clipPath id="e"><path d="M409 479h2v1.32813h-2zm0 0"/></clipPath><clipPath id="f"><path d="M467 471h1v9.32813h-1zm0 0"/></clipPath><clipPath id="g"><path d="M467 311.67188h1V472h-1zm0 0"/></clipPath><clipPath id="h"><path d="M144 479h4v1.32813h-4zm0 0"/></clipPath><clipPath id="i"><path d="M147 480h2v.32813h-2zm0 0"/></clipPath><clipPath id="j"><path d="M153 479h9v1.32813h-9zm0 0"/></clipPath><clipPath id="k"><path d="M160 480h2v.32813h-2zm0 0"/></clipPath><clipPath id="l"><path d="M166 479h9v1.32813h-9zm0 0"/></clipPath><clipPath id="m"><path d="M173 480h3v.32813h-3zm0 0"/></clipPath><clipPath id="n"><path d="M180 478h8v2.32813h-8zm0 0"/></clipPath><clipPath id="o"><path d="M193 478h8v2.32813h-8zm0 0"/></clipPath><clipPath id="p"><path d="M206 479h9v1.32813h-9zm0 0"/></clipPath><clipPath id="q"><path d="M213 479h3v1.32813h-3zm0 0"/></clipPath><clipPath id="r"><path d="M220 479h8v1.32813h-8zm0 0"/></clipPath><clipPath id="s"><path d="M227 479h3v1.32813h-3zm0 0"/></clipPath><clipPath id="t"><path d="M233 479h8v1.32813h-8zm0 0"/></clipPath><clipPath id="u"><path d="M240 480h2v.32813h-2zm0 0"/></clipPath><clipPath id="v"><path d="M247 478h7v2.32813h-7zm0 0"/></clipPath><clipPath id="w"><path d="M260 478h8v2.32813h-8zm0 0"/></clipPath><clipPath id="x"><path d="M273 478h8v2.32813h-8zm0 0"/></clipPath><clipPath id="y"><path d="M287 478h7v2.32813h-7zm0 0"/></clipPath><clipPath id="z"><path d="M300 478h8v2.32813h-8zm0 0"/></clipPath><clipPath id="A"><path d="M305 480h2v.32813h-2zm0 0"/></clipPath><clipPath id="B"><path d="M313 479h8v1.32813h-8zm0 0"/></clipPath><clipPath id="C"><path d="M319 480h1v.32813h-1zm0 0"/></clipPath><clipPath id="D"><path d="M326 479h9v1.32813h-9zm0 0"/></clipPath><clipPath id="E"><path d="M332 480h2v.32813h-2zm0 0"/></clipPath><clipPath id="F"><path d="M340 478h8v2.32813h-8zm0 0"/></clipPath><clipPath id="G"><path d="M355 476h4v4.32813h-4zm0 0"/></clipPath><clipPath id="H"><path d="M368 476h5v4.32813h-5zm0 0"/></clipPath><clipPath id="I"><path d="M380 477h7v3.32813h-7zm0 0"/></clipPath><clipPath id="J"><path d="M394 477h6v3.32813h-6zm0 0"/></clipPath><clipPath id="K"><path d="M408 477h5v3.32813h-5zm0 0"/></clipPath><clipPath id="L"><path d="M419 479h9v1.32813h-9zm0 0"/></clipPath><clipPath id="M"><path d="M420 479h2v1.32813h-2zm0 0"/></clipPath><clipPath id="N"><path d="M433 479h8v1.32813h-8zm0 0"/></clipPath><clipPath id="O"><path d="M433 479h2v1.32813h-2zm0 0"/></clipPath><clipPath id="P"><path d="M446 478h8v2.32813h-8zm0 0"/></clipPath><clipPath id="Q"><path d="M444 480h4v.32813h-4zm0 0"/></clipPath><clipPath id="R"><path d="M459 479h9v1.32813h-9zm0 0"/></clipPath><clipPath id="S"><path d="M460 479h2v1.32813h-2zm0 0"/></clipPath><clipPath id="T"><path d="M144 465h4v4h-4zm0 0"/></clipPath><clipPath id="U"><path d="M144 451h4v5h-4zm0 0"/></clipPath><clipPath id="V"><path d="M144 437h3v7h-3zm0 0"/></clipPath><clipPath id="W"><path d="M466 438h2v2h-2zm0 0"/></clipPath><clipPath id="X"><path d="M144 424h4v6h-4zm0 0"/></clipPath><clipPath id="Y"><path d="M465 424h3v2h-3zm0 0"/></clipPath><clipPath id="Z"><path d="M144 411h4v5h-4zm0 0"/></clipPath><clipPath id="aa"><path d="M465 410h3v3h-3zm0 0"/></clipPath><clipPath id="ab"><path d="M144 399h4v3h-4zm0 0"/></clipPath><clipPath id="ac"><path d="M465 397h3v3h-3zm0 0"/></clipPath><clipPath id="ad"><path d="M144 385h4v4h-4zm0 0"/></clipPath><clipPath id="ae"><path d="M466 385h2v2h-2zm0 0"/></clipPath><clipPath id="af"><path d="M465 385h3v3h-3zm0 0"/></clipPath><clipPath id="ag"><path d="M144 371h4v6h-4zm0 0"/></clipPath><clipPath id="ah"><path d="M466 371h2v2h-2zm0 0"/></clipPath><clipPath id="ai"><path d="M144 357h3v7h-3zm0 0"/></clipPath><clipPath id="aj"><path d="M466 358h2v2h-2zm0 0"/></clipPath><clipPath id="ak"><path d="M465 358h3v3h-3zm0 0"/></clipPath><clipPath id="al"><path d="M144 344h3v7h-3zm0 0"/></clipPath><clipPath id="am"><path d="M466 345h2v3h-2zm0 0"/></clipPath><clipPath id="an"><path d="M465 345h3v4h-3zm0 0"/></clipPath><clipPath id="ao"><path d="M144 333h4v2h-4zm0 0"/></clipPath><clipPath id="ap"><path d="M466 332h2v3h-2zm0 0"/></clipPath><clipPath id="aq"><path d="M465 332h3v3h-3zm0 0"/></clipPath><clipPath id="ar"><path d="M144 320h4v1h-4zm0 0"/></clipPath><clipPath id="as"><path d="M465 318h3v2h-3zm0 0"/></clipPath><clipPath id="at"><path d="M192 470h10v10.32813h-10zm0 0"/></clipPath><g id="au" clip-path="url(#clip1)"><path fill="#fff" fill-opacity="0" fill-rule="evenodd" d="M0 0h1000v1000H0zm0 0"/><path fill="#d3d3d3" fill-opacity="0" fill-rule="evenodd" d="M162.15234 355.86719l-.23437.29297.0586.23437.11718.17188.17578.23437.29297.34766.11328.0586.11719-.17188.0586-.23438.17577-.17578.46485-.17578h.69922l.23437.29297.28906.8164.0586.17579.17578.23046.35156.23438.69922.69922.17188.17578.23437.34765.23438.41016.28906.58203.41015.46485.23047.23437.23438.17578.11719.23047.17578.29297.17187 1.16406v.23438l.0586.28906.05859.11719.11719.11719.34765.41015.11719.17188.17578.17578.17578.23437.11719.17188.17188.35156.05859.23438.23437.40625.23438-.0586-.17578.17578-.0586.92969h-.58203l-.23437-.11328-.34766.11328-.11719.11719-.05859.29297-.0586.17578-.11718.17187-.46484.29297-.0586.23438-.0586.11328v.64453l.0586.17187v.41016l.0586.0586v.40624l.05859.40625.11719.17579.05859.05859.23047.64062-.0586.29297v.69922l-.05859.58203v.23438l-.0586.23047-.05468.35156v1.92187l.05469.1172h.42578l-.36719.11718-.02344.35156.89063 1.16797 1.74219.53906 1.33984.35938v.53906l.08984.8086.53516.71484 1.51953.26953.89063-.08594.08984 1.16406.53516.1797 1.16015-.1797 2.05469-.98437 1.16016-.36328 1.8789-.17578 1.69531-.1797-.17968.71876-1.51563.08594-1.25.08984-.80469.26953-1.07421.8086.26953.71875.53515.89843-.17968.625-.26563.8086.26563 1.07812.625.89844.80468.17969 1.25-.1797-.26562.72267.09766.5039.05468.29297v.17188l.0586.29296v.40625l.17578.1172.35156.11718h.40625l.29297-.17578.11328-.11719.0586-.11719.11718-.23047.0586-.17578.35156-.46484.23047-.17578.17578-.0586.17578.0586.0586.17578.11718.98828.05469.46875.0586.17188.11718.23437.17578.0586.8164.05859h.28907l.11719.23437.05859.40625.0586.35156v1.10547l.11718.29297.11719.34766.28906.69922.17578.35156.58203.7539.35157.17579.17187.0586.46875.23437.64063.46484.34765.23438.29297.17578.29297.05468.23047.0625.8164.34766.29297.17578.11328.17188.35157.35156.11719.17578.52343.64063v.28906l.0586.35156v.34766l.05859.35156.0586.28906.11718.0586.17188.05859h.17578l.58203.23437.17578.1172.17578.28905.17578.23438.11328.23437.29297.23047.11719.11719v.41016l.0586.05468.28906.23438.23437.11719.0586.11718.11718.17188.0586.11719.23047.23437.05859.17578.23437.0586.1172.05859-.1172.11328-.05859.11719v.11719l-.11719.29296-.11719.28907v.58203l.17579.11719.11718.05859.0586.11719.11719.11719.11328.05859.17578.34765.0586.35157.05858.40625v.17578l-.05859.17578-.11719.69922v.17187l.1172.17579.29296.29296h.40625l.17578.1172.11719.17187.11719.29296v.23438h-.52735l-.23047-.23438h-.23437l-.17578.0586-.0586.69922.0586.34765.11719.17579.17578.41015.11718.23047.28907.46875.17578.05469h.52344l.23437.0586.75781.64062.0586.29296v.23438l.05859.0586.23047.34765v.35156l-.11719.17188v.29297l.29297.28906.29297.17578.17187.0586.29297.17577.29297.1172.58203.40624.28906.23438.29297.17578.21875.16015.01563.01172.23047.17579.64062.52343.17578.23438.1172.17578.17577.17578.11328.17188v.64062l.1172.17578.46874.11719.58203.11719.23438.05859.23047.11328.29297.11719.11328.0586.58593.35156.28907.17187.17578.0625.17578.05469.17578.0586.69922.35155.28906.17579.23438.05468.28906.17578.23437.1172.64063.40624.29297.11719.17187.0586.23438.05859.41015.05859.23047.0586.23438.11718.0586.17188-.41017.17578.46875.0586.0586.29296.11328.23438.17578.05468.23438.0586.17578.05859.40625.11719.64062.23437.11719.17188.0586.23437v.17578l-.0586.1172-.0586.40624.23438.23438.11719.05859.34766.11719.64062.23047.17578.11718.28906.1172.17578.17577.23438.46485.58203 1.10546.17578.17579.34766.17578.17578.11719.35156.11718 1.04688.52344.23437.0586.46485.11327.29297.0586.46484.17578.75781.58203.23438.23438.34765.46484.17578.17578.28907.23438.8164.69921.29297.17579.28906.28906.29297.17578.29297.28906.69531.64063.17578.17578.29297.23437.28907.23438.46875.28906.64062.58203.34766.23438.23437.29297.34766.34765.35156.46485.9336.99218.34765.40625.11719.17579.23437.05859.11328.11719.64454.17578.23047.11328.23437.0586.29297.17577.23047.1172.9336.69921.40624.40625.23438.17578.40625.17578.23437.11719.8164.34766.34766.23437.23438.11719.29297.28906.23047.11719.7578.35156.35157.17188.23047.05859.29297.11719.23437.0586.8711.17577h.8164l.46875.23047.17188.0586.875.69921.46484.1172.29297.05858.17578.0586.23047.0586.46875.05859.34766.05859.35156.0586.40625.05859h.29297l.17187.0586v.23046l.17578.17578h.29297l.34766.0586.35156.05859.69922.11719h.64063l.46484-.23438.29297-.17578.17187-.11719.41016-.17187.28906-.17578.9336-.46485.46875-.29297.52343-.29296.46485-.17188.46484-.17578 1.05078-.46485.28906-.11718.41016-.11719.28906-.11719.52735-.17578 1.51562-.69922.58203-.34765.28907-.0586.29297-.0586.34765-.11718.875-.23047.35156-.11719h.11329l.23437-.05859.875-.23437.23438-.0586h.8125l.35156-.0586.8164-.11718.17188-.0586.35156-.05468.29297-.0586.23047-.05859.8164-.17578.17579-.0586h.34765l.23438-.05859.46484-.11718.75781-.17188.23438-.0586h.34765l.41016-.11718.28906-.0586 1.28516-.05859h.28906l.41016-.0586.23047-.05858h.17578l.875-.1172h.40625l.41015-.11718h.34766l.35156-.11328.8711-.0586h1.75l1.04687.28907.41016.11719.28906.11718.35156.11719.28907.11719 1.05078.17187.28906.0586h.29297l.29297.05859.17187.0586.41016.05859.17187.0586.1172.05858h.11718l.11719.0586.35156.0586h.11328l.41016.0664 1.92187.39453 1.92578.39453 1.51953.44922 1.69532.71875 2.14453.80469 1.60547-.71875 1.42968-.80469 1.16016-1.07813 1.25-.44921 3.03516-.71875 1.875-.35938 2.14453-1.34765 2.23437-1.25391 2.5-1.25781 1.69531-.44922 1.78516-.17969 1.16016-.26953.625.53906 1.33984-.26953.71485-.98828.98437-1.34375.44531-.17969.80469-.35937 1.875-.53907 1.78516-.44921 1.25-.26954 1.16015-.08984 1.69922-.08984 1.96094-.26954 1.25-.08984h.53906l.625-.08984h.89063l2.14453-.17969 2.41015-.17969 2.58985-.08984 1.69531.17969 1.60938.08984 1.42968.35938 1.16016.71875 1.875.98828 1.16015 1.52734.26563.71484.6289.08985.35548.89844.53515.53906.53516 1.52734 1.07422.35938h.53515l-.80469.53515.08985 1.70703.71484 2.69532.89063.80468.89453.98829.71484 1.2578 1.78516.53907 1.51953-.17969.35547 1.34375 1.60937-.80469.98047-.53906.26953.26953.31641-.21484.21875-.14453.80078.44922.44922-.35938h.35547l.53515-.26953.53907-.71875.53515-.26953.625-.98828 1.16016.44922.83984.3711 1.39454.61718 1.6953-.17969h1.60548l1.78515.08985.17969-1.70704.53516-1.34375.80468.26954.4922.84765.40233.40625-.08984.53906v.35938l.71485.44922.71093-.26953h1.42969l.35938.98828.4453 1.25781.71485 1.34375 1.25.6289 1.69531.62891.71485-.17969.17969-.53906.98046-.08984.44922.35937.08594 1.25782-.26563.6289-.53515.17969v.53906l.71484.98438.26563.53906.98437.98828.80078 1.07813-.26562.35937-.08985.89844-.625 2.33203-.35546 2.0664-.08985 1.79298-.17969.71875-.08984.53906v1.4375l-.98047 1.88281-.35937 1.70703-.53516.89844-.80469 1.16797-.26562.53906 2.05469 1.2539.08593.35938-.35546.53906-.08985-.17968v.80859l.08985 1.4375-.44532.71484-1.07422.09375-.26562.71485.53515.89844.8047.71875 1.16015.80859 1.33984.26953.44531.35938-.35546.44921-1.78907-.08984-1.25-.44922-.71484-.71875-.625-.08984-.17578 3.58984-.1875 1.3086h89.35937V311.70313h-55.26953v49.08203l.76172.125 3.28906.54296 2.02344 2.83594v2.7539l2.35156.33204 2.34766.33203h4.05078l-1.3789 4.16016-2.02344.70703-2.02344.70312-.54297.34375-2.59375 1.6172-.1875.11718-2.02344-2.07813-.73046-2.74218-2.67188-2.07813-1.375-3.5-.0664-.08203-1.95704-2.67188 2.75-1.41796v-49.08204H294.42187v91.41407l.1172.03125.1328.01172.07422.07421.10547.04688.08985.0586.08593.05859.08985.0586.29687.29687.0586.08984.03125.11719.02734.11719.01563.13671-.03125.1172-.0586.08983-.0586.08594-.04296.10547-.04688.10156-.02734.1211v.14453l.17578.26953.14844.14844.07422.08594.07422.07421.04296.10547.0625.08985.0586.08593.04297.10547.0586.08985.04687.10156.04296.10547.0586.08594.11719.17968.07421.07422.0625.08594.0586.08984.04297.10547.0586.08985.05858.08593.0625.08985.0586.08984.04297.10156.11719.17969.07421.07422.0586.08594.07422.07421.08984.0586.10547.04687h.14844l.1328-.01562.13282.01562.10156-.04687.07422-.07422.04688-.10156-.01563-.13281v-.14844l-.04687-.10547-.02735-.11719-.04687-.10156-.02735-.1211-.04296-.10156-.0625-.08984-.04297-.10156-.04297-.10547-.03125-.11719-.01563-.13281-.01171-.13672.08593-.0586.0586-.08593.12109-.03125.04297.10547.01562.1328v.1172l.0586.10156.0586.08984.08983.0586.14844.14843.0586.08985.04296.10547-.01171.10156.08593.0586.10547.04687.08594.0586.08984.05858.07422.07422-.11719.02735-.10546.04687-.08594.0586-.07422.07421-.0586.08985-.0625.08594-.02734.12109-.04687.10156-.04297.10547-.03125.11719-.01172.13281-.01563.13281v.14844l.02735.11719.04687.10547.04297.10156.0586.08984.07421.07422.08985.0586.07422.07421.08984.0586.0586.08984.04296.10547.04688.10156.11719.03125.1328.01563h.14845l.11718-.03125.10547.04297.04297.10547.04688.10156.02734.1211L299.5 410l.02734.11719.03125.1211.02735.11718.10547.04297.10156.04687.13281-.01562.14844.14844.0625.08593.07422.07422.07031.07422.08984.0625.10547.04297.10156.04297.1172.03125.13671.01562.11719-.03125.07422-.07422.02734-.11718-.01172-.13282-.03125-.12109-.02734-.11719.04297-.10547h.11719l.08984.0625.11719.02735h.14843l.13282.01562h.14843l.13282.01563.1328-.01563h.14845l.1328-.01562.13282-.01172.13672.01172.11719-.02735.13281-.01562.1914-.0586-.05859.17579-.01562.1328-.02735.1211-.01562.13281-.0586.08594-.1328.01563-.10548.04687-.10546.04297-.1172.03125-.11718.02735-.26563.03125h-.14843l-.13281.01562-.07422.07422.05859.08594.14844.14843.11719.1797.07421.0703.08985.0625.08984.0586.08594.0586.08984.05858.10156.04297.10547.0625.10547.04297.08594.0586.10547.04687.10156.04297.17969.11719.0586.08984-.04298.10156-.04687.10547.01562.13281.22266.22266.0586.08985.04296.10156.03125.1211.04297.10155.01563.13282.03125.11718.01171.13672.03125.11719.14844.14844.10156.04297.10547.04296.1172.03125.1328.01563.13672.01563h.11719l.11719-.03125.08984-.0586.04297-.10547.04688-.10156.04296-.10547.03125-.11719.01172-.1328v-.14845l-.01172-.1328-.01562-.13282-.03125-.11719-.04297-.10547-.04688-.10547-.04296-.10156-.04297-.10547-.01563-.13281.01563-.13281.02734-.11719.03125-.11719.02735-.1211.04687-.10155.08984-.0586.08594-.0625.07422-.07422.08984-.05859.22266-.22266.0586-.08593.07421-.07422.11719-.17969.0586-.08594v-.14844l-.07423-.07421-.10156-.04688-.10547-.04297-.10156-.04297-.0586-.08984-.04687-.10547-.02734-.11719.08984-.05859.11719-.03125.10156-.04297.17969-.11719.14844-.14843.01172-.13282-.01172-.10546-.08985-.0586-.1328.01563h-.14845l-.1328.01562-.13282-.01562-.1211-.03125-.08593-.0586-.07422-.07422-.0586-.08984-.0625-.08594-.11718-.17969-.0586-.08593.03125-.1211.08594-.05859.1211-.03125.05859-.08594v-.1211l-.03125-.11718-.0586-.08984-.05859-.08594-.04687-.10547-.02735-.11719-.01562-.1328.0586-.08985.07421-.07422.08984-.0586.1172-.17968.07421-.07422.0586-.08594.14843-.14844.1211-.03125.1328-.01562.13282.01562.07422.07422.04297.10547.01562.13281-.03125.1172-.11719.03124-.1328.01172-.14844.14844-.04297.10547-.04688.10156-.02734.1211-.03125.11718v.14844l.03125.11719.04297.10546.05859.08985.07422.07031.07422.07422.11719.03125.12109.02734.11719-.02734.1328-.01563h.1172l.08984.0586.07422.07422.04687.10546.0586.08594.10156.04688.13281.01562.10547.04297.08594.0586-.01172.10546-.07422.07422-.17969.11719-.05859.08984-.08984.0586-.07032.07422-.07421.07421-.0625.08985-.02735.11719-.01562.1328.01562.13282-.01562.13281v.14844l.01562.13281.02735.1172.03125.12108.07421.07422.08985.0586.08594.0586.08984.05858.11719.03125v.08594l-.10157.04688-.08984.0586-.26563.03124-.11718.02735h-.14844l-.10547.04296-.10156.04688-.0586.08984-.0625.23438-.01171.13281-.03125.1211-.01563.1328v.29298l-.01172.1328.01172.13673.01563.1328.1328.01563.13282.01172.1211.03125.08593.0586.07422.07421.04688.10547.04296.10157.01563.1328v.44532l-.01563.13281v.44532l.03125.26562.02735.11719.01562.13281.03125.11719.08594.21094.03125.26562v.14844l-.03125.11719-.02734.11718-.03125.1211-.02735.11719-.03125.11718-.03125.1211-.01171.1328-.01563.13282.08984.0586.1172-.03125.10155.01562.04688.10547-.03125.26562v.44141l-.04297.10547-.04688.10547-.04296.10156-.04297.10547-.0586.08594-.03125.12109-.04296.11719-.03125.11719-.01563.1328.01563.13282.05859.08984.10547.04688.08594.0586.05859.08593-.01172.13672-.03125.11719-.04297.10156v.44531l-.01562.13281v.14844l-.03125.11719-.04297.10547-.02735.11719-.04687.10546-.04297.10157-.03125.12109-.02734.11719-.03125.13281-.03125.11719-.02735.11719-.04297.10546-.03125.1172-.03125.12108-.01171.13282-.01563.13281v.29688l.02734.11718v.14844l.04688.39844.02734.11719.0586.08984.12109.03125h.14844l.13281-.01563.0586.08985v.11719l-.0586.08984-.08984.0586-.10157.04296-.10546.04688-.08985.05859-.08594.0586-.13671.01562-.1172-.03125-.1328-.01563-.10157.04688-.0625.08594-.01172.13671-.01562.13282-.03125.11719-.02735.11718-.01562.13281-.03125.1211v.29687l.01563.13282.03125.11718v.14844l.01171.13281v.14844l-.02734.11719-.04688.10156-.02734.1211-.03125.11718-.0586.08985-.07421.07421-.10156.04297-.10547.04688-.11719.02734-.1211.03125-.10156-.04687.0586-.08594.10547-.04688.02734-.11718.03125-.11719.02734-.1211.03125-.11718v-.14844l.01563-.13281-.03125-.11719-.04297-.10547-.10547.01563-.07422.07422-.10156.04296-.08984.0625-.07422.07422-.04297.10157-.01563.1328-.03125.1172L304.25 426l-.03125.11719-.02734.11719-.03125.12109-.02735.11719-.03125.11718-.04297.10547-.08984.0586h-.08984l-.1172-.03125-.03124-.08594.01562-.13672-.03125-.11719v-.14844l-.01171-.1328v-.14844l-.0625-.23438-.02735-.1211-.04297-.10156-.04687-.10546-.0586-.08594-.05859-.08985-.04297-.10546-.0625-.08594-.14844-.14844-.0703-.07422-.10548-.04687-.10547-.04297-.10156-.04297-.29687-.29688-.08985-.07421-.08594-.0586-.10546-.04297-.08985-.0625-.08594-.0586-.10546-.04296-.08985-.0586-.08594-.0625-.07421-.0703-.10547-.04688-.08594-.0586-.10547-.04296-.08984-.0625-.10156-.04297-.10547-.04297-.08594-.0586-.10547-.04687-.10547-.04297-.10156-.04687-.08985-.0586-.10156-.04297-.10547-.04296-.08984-.0625-.11719-.02735-.13281-.01562-.13281.01562H299.75l-.13281.01563-.11719-.03125-.08984-.0586-.07422-.07422-.08985-.05859-.10156-.04688h-.14844l-.12109-.02734-.10156-.04297-.07422-.07422-.11719-.17968-.08984-.0586-.10156-.04297-.08985-.0625-.10547-.04296-.08984-.0586-.08594-.0586-.10547-.04687-.0586-.08594-.05858-.08984-.04297-.10547-.04688-.10156-.07422-.07422-.08594-.0586-.07421-.07421-.08985-.0586-.22265-.22265-.04297-.10547-.03125-.26563.10547-.04296h.14453l.10547.04296.07421.07422.08985.0586.08594.0586.10546.04687.08985.05859.14844.14844.0703.07422.14845.14843.0625.08594.07421.07422.08594.0586.07422.07421.08985.0625.08984.0586.08594.05859.26953.17578.10156.04688.10547.04296.10156.04297.04688-.07421.05859-.08594.07422-.07422.07031-.07422.10547.04297.07422.07422.0586.08984.04296.10156.04688.10547.04296.10547.1211.02735.11719-.02735.07421-.08984.04297-.10547.0586-.08985.07422-.07421.10546-.04297.1172-.02735.1328.01172.08985.0586.14844.14843.05859.08985.04297.10547.04687.10156.04297.10547.04297.10156.10547.04688.10547.04296.13281.01563.08594-.0586.0586-.08984.07421-.07422.10547-.04297.11719.02735.10547.04687.10156.04297.10547.04297.10156.04688.17969.11718v.11719l-.01563.13281.01563.13281.01562.13672.0586.08594.10156.04688.1211.02734.11718.03125h.14844l.11719-.03125.05859-.08984.17969-.1172.05859-.08983.07422-.07422.0586-.08594.11718-.17969.17969-.11719.11719.03125.08984.0586.04297.07422-.01563.1328v.1172l.08985.05859h.14843l.13282-.01563.1328-.01171.26563-.03125.10547-.04297.11719-.03125.1211-.02735.07421-.07421.07031-.07422.0625-.08985-.01562-.10547-.04688-.10156-.10156-.04297-.10547-.01562-.11718.02734-.26563.03125h-.14844l-.07421-.07422-.08985-.0586-.11719-.03124-.11718-.02735-.13282-.01562h-.14843l-.13282.01563h-.29687l-.10547-.04688-.14844-.14844-.04297-.10156-.05859-.08984.22266-.22266.08593-.0586.10547-.04296.11719-.03125.13281-.01563.13281.01563.13672.01562.10157.04297.1328-.01172.08985-.0625.10156-.04297.0625-.08984-.04687-.10156-.08984-.0586-.1172-.03125-.10155-.04296-.0586-.08985-.0625-.08984v-.11719l.01563-.13281.10547-.04688.07421-.07031v-.1211l-.08984-.05859-.03125-.11719.08985-.05859.07421-.07422.04297-.10547.0586-.08984.04687-.10156.01563-.13281v-.14844l-.04688-.10547-.04297-.10156-.08984-.0586-.13281-.01562-.10157-.04297-.13671-.01563-.1172-.03125h-.4453l-.13282-.01562-.13281-.01172-.13281-.01563-.11719-.03125h-.14844l-.13281-.01562-.13281-.01172-.26563-.03125-.1211-.04297-.08593-.0586-.07422-.07421v-.14844l.01172-.13281.10547-.04688.10156-.04296.13281-.01563h.15235l.13281-.01562h.29297l.1211.03125.10156.04296.08984.0586.23438.0625.12109-.04688.08984-.05859.10156-.04297.13282-.01562.10547.04296.10156.04688.13281.01172.1211-.02735h.14453l.12109-.03125.11719-.02734.10547-.04687.07421-.07422.08594-.0586.14844-.14843.0586-.08594.04687-.10547.02734-.11719.01563-.10547-.10156-.04296-.08985-.0586-.11719-.03125-.10546-.04297-.08985-.0625-.07422-.08594-.07422-.07421-.10156-.04297-.10547-.04688-.10156-.04297-.0586-.08984-.04687-.10156-.08594-.21094-.0625-.08594-.05859-.08984-.07422-.07422-.08594-.0586h-.26953l-.11719.03126-.08984.05859-.10156.04297-.13281.01562-.10547-.01562-.02735-.11719-.0625-.08984-.11718-.03125-.10157-.04297-.14843-.14844-.03125-.11719-.01563-.10546.07422-.07422.17969-.1172.11719-.02733.11718-.03125.13672.01562.10156.04297.10547.04297.10156.04687.10547.04297.1172.03125.1328.01563.1172.02734.1328.01563.10547-.01563.08985-.0586-.07422-.07421-.10547-.04297-.07422-.07422-.07422-.08984-.14844-.14844-.08593-.0586-.08985-.05859-.07422-.07422-.08984-.0586-.10156-.04687-.1211-.02734-.10156-.04688-.10547-.04296-.11719-.03125-.10156-.04297-.1211-.03125h-.14843l-.11719.03125-.10546.04297-.08594.0625-.17969.11718-.08594.0586-.08984.0586-.10547.04687-.08594.05859-.10547.04297-.10156.04297-.10547.04687-.07422.07422-.05859.08985-.0586.08593-.04687.10547-.0586.08594-.07421.07422-.13281-.01172-.1172-.03125h-.11718l-.07422.07422-.08984.0586-.07422.07421-.08984.0586-.08594.05859-.10547.04687-.10156.04297-.13672.01563-.10156-.04297-.14844-.14844-.10547-.04688h-.08594l-.10547.04688-.10156.04297-.1211.03125-.11718-.03125-.07422-.07422v-.11719l.03125-.1211.07422-.0703.0586-.08985.07421-.07422.11719-.03125.10547-.04296h.29297l.13281-.01563.13672-.01563.10156-.04296.08985-.0586.10156-.04687.08984-.0586.13281-.01171.08985.05859.13281.01172.08984-.0586.08594-.05859.10547-.04297.08984-.0586.08594-.0625.08985-.05859.14843-.14843.0586-.08594.05859-.08985.10547-.04296.13281-.01563.11719.02735.1211.03125.05859-.0586.05859-.08984.03125-.26563.02734-.11719.10547.01172.13281.01563.10157-.04297.08984-.0586.0586-.08984.07421-.07422.0586-.08984.04687-.10156.01172-.13281-.01172-.13282-.04687-.10547-.14844-.14843-.0586-.08985-.05859-.08594-.04297-.10546v-.44532l.01563-.1328v-.14845l.01172-.1328-.0586-.0586-.08984.0586-.10156-.04298-.17969-.11719-.08594-.05859-.0625-.08984-.0586-.08985-.07421-.07421-.08594-.0586-.1211.03125-.10155.01172-.10547.04688-.08594.05859-.10547.04297-.14844.14844-.08984.05859-.08594.0586-.08984.0625-.10547.04296-.13281.01563v-.1211l.10547-.04297.11718-.03125.07422-.0703.04297-.10548v-.14844l-.02734-.11718-.14844-.14844-.13281-.01563h-.14844l-.11719.03125-.10547.04297-.10156.04297-.08984.0625-.11719.02735-.07422-.07422.01172-.13281-.04297-.10157-.04297-.10547-.08984-.05859-.11719.02734-.1211.03125-.11718.03125-.10156.04297-.1211.03125-.10156.04297-.10547.04297-.08984.0586-.10156.01562v-.11719l.01562-.13281-.0586-.08985-.07421.04297-.14844.14844-.0586.08985-.07421.07421-.04688.10547-.04296.10156-.07422.07422-.0586.08985-.07422.07422-.05859.08593-.07422.07422-.08984.0625-.07422.07031-.07422.07422-.10156.01563-.13281.01562-.10547-.04296v-.1211l.14843-.14844.04297-.10156.0586-.08984.04687-.10156.04297-.10547.0586-.08985.03124-.11719.04297-.10156.03125-.1211.02735-.11718.04687-.10547.04297-.10156.04297-.10547.07422-.07031.08984-.0625.08985-.0586.10156-.04296h.29687l.26563-.03125.10547-.04297-.07422-.07422-.11719-.03125-.10547-.04297-.08984-.0586-.10156-.04687-.08985-.0586-.10156-.04296-.10547-.04297-.08984-.0625-.08594-.0586-.10547-.04296-.10156-.04297-.1211-.03125-.11718-.03125-.10157-.04297L297.5 410.25l-.10156-.04297-.08985-.0586-.04296-.10546-.01563-.13281.10156-.04297.13281-.01563.13672.01563.13282-.01563.10156-.04297.0586-.08984.01562-.10547-.08985-.0586-.07421-.07421-.10157-.04297-.08984-.0586-.14844-.14843-.04297-.10547-.01562-.13281v-.29297l-.0586-.08985-.08984-.05859-.07422-.07422-.04297-.10547-.03125-.11718-.0586-.08985-.07421-.07422-.11719-.02734-.07422-.07422-.08984-.0586-.08984-.0625-.08594-.05859-.07422-.07421-.0586-.08594-.04687-.10547-.08594-.0586-.14843-.14843-.19532-.0586-.1328.01563-.10157.04297-.07422.07422-.04688.10156-.04296.10547-.0586.08984-.0586.08594-.29687.29687-.08984.0586h-.08594l-.0625-.08594-.04297-.10547.03125-.11719.0586-.08984.02734-.11719-.01172-.13281-.08984-.0625-.10547.04688-.11719.02734-.11719.03125-.26953.17578-.10156.04688-.11719.02734-.10546.04687-.08985.0586-.10156.04297-.0586-.08594-.04687-.10547.01563-.13281.04687-.10547.07031-.07422.07422-.07031.0586-.08985v-.14843l-.04297-.10547h-.23829l-.10156.04687-.03125.11719-.02734.11719-.03125.1211-.07422.04296-.13281.01563-.07422-.04688-.04297-.10156-.04297-.10547-.04687-.10156-.04297-.10547-.1211.03125-.10156.04297-.13281.01562-.11719.03125-.10547.04297-.08984.0586-.10156.04687-.1211.02734-.13281.01563-.10156-.04297-.0586-.08985-.04687-.10546-.04297-.10157-.04297-.10546v-.1172l.0586-.08984.08593-.05859.17969-.11719.10156-.04687.10547-.04297.10547-.0586.10156-.04296.08985-.0625.10156-.04297.10547-.0586.10156-.04687.08984-.0586.10547-.04296.10156-.04297.08985-.0625.10156-.04297.13672-.01563.11719.03125.10156.04297.1211.03125.10156.04297.10546.04688.10157.04296.10547.04297.10156.04688.10547.04297.10156.04297.10547.04687.08594.0586.10546.04296.1172.03125.10546.04297.10156.04688.08985.0586.10547.04296.10156.04297.10547.04687.11719.02735.10156.04687.1211.02735h.14843l.08594-.0586.01562-.10156.0586-.08984-.02735-.1172-.07422-.07421-.11719-.17969-.07421-.07422-.08985-.07421-.17969-.1172-.08593-.05859-.10547-.04296-.10156-.04688-.26954-.17578-.05859-.08985-.07422-.07421-.0586-.08985-.04296-.10156-.03125-.11719-.01563-.13672v-.5625l-.01171-.1328-.01563-.13282-.03125-.11719-.01562-.13281-.01172-.13281-.03125-.1211-.22266-.22265-.0586-.08594-.01562-.10547.03125-.11719.13281-.01562v-91.41406H172.9922v1.45312l-.0586.23438-.35156 1.05078-.17187.52343-.1172.34766-.17577.41016-.11719.17187-.23438.29297-.23046.0586h-.35157l-.11718.05859-.23047.40625v.29297l.11719.17578.23046.23047.1172.23437.64062.75781.29297.46485.17578.23437.23047.35156.23437.34766.64063.8164.17578.46485.17187.41016.11719.69531.17578.46875.11719 1.39844.0586.46484v.875l.11718 1.04688v4.78125l-.0586.46484-.35156 1.28125-.17578.52344-.11328.41015-.35156.9297L172.93359 336l-.23437.58203-.11719.17578-.17187.34766-.17578.40625-.35157.8164-.0586.29297-.11327.29297-.11719.28906-.0586.17579-.11718.875-.0586.40625-.05859.11718-.0586.17579-.05859.17187-.23047.52734-.11718.17188v.23437l-.11719.23438-.0586.17187-.17577.58594v.28906l-.0586.17579v.29296l-.0586.11329-.05859.52734v.17187l-.05468.23438v2.6211l-.17578.8164-.1172.17578-.17577.23438-.1172.17187-.11327.23438-.58594.93359-.23047.28906-.29297.46485-.17578.23437-.28906.35156-.35156.69922-.11328.23047-.17579.41016-.17578.23046-.40625.52735-.8164.69922-.29297.17187-.28906.23438-.17579.11719-.17578.17578-.52344.40625-.52734.17578-.17187.17578-.23438.05469-.64062.17578h-.75782m12.21094 31.02344l-1.07422.44921.35938.89454 1.25-.71485.44531-.53906-.98047-.08985"/><path fill="#d3d3d3" fill-opacity="0" fill-rule="evenodd" d="M201.50781 416.59766h-.89453l.44922.6289.98047.35938.80469-.08985.4453-.98828-.17577.08985-.71485-.35547-.89453.35547m154.6211 59.0703l-.0586-.52343v-.29297l.11328-.29297.0586-.23046.46875-.46875h.11328l.11719-.11329.11718-.05859h.17579l.23437-.0586h.34766l.23437.0586.11719.0586.23047.17187.0586.17578.11718.58203v.29297l-.11719.17578-.17187.28906-.17579.17579-.52734.52343-.23047.23438-.11719.0586h-.17578l-.11718-.0586-.40625-.29297-.17579-.11719-.11718-.0586-.0586-.11327-.05468-.1172m6.64062-10.95702l-.0586-.17188v-1.10937l.0586-.17188.17578-.0586.17188-.05858h.17578l.23437-.0586.1172.0586.05858.69921-.05859.17188-.11719.17578-.11718.0586-.23438.52343-.11328.0586h-.23438l-.05859-.1172m9.61328-14.39062l-.11719-.17578v-.69922l.29297-.875.1172-.17187.17577-.35156.11328-.23047.1172-.29297.35155-.75781.1172-.23047.17187-.23438h.17578l.11719-.0586h.64062l.11719.0586.23437.23438.17188.11328.35156.29297.11719.11718.11328.17579v.11328l.11719.05859.11718.11719v.69922l-.05859.17578v.23047l-.0586.17578-.34765 1.05078-.11719.23047-.11719.23437-.11718.0586-.23047.23437-.64063.28906h-.875l-.41015-.11718-.64063-.46485"/><path fill="none" stroke="#bebebe" stroke-linecap="round" stroke-linejoin="round" stroke-miterlimit="10" stroke-width=".5" d="M467.95703 311.69531H144.02734v168.625h323.9297v-168.625"/><g clip-path="url(#a)"><path fill="#fff" fill-opacity="0" fill-rule="evenodd" d="M144 475.89063v4.4375h.0039H144V441.5625v34.32813"/></g><g clip-path="url(#b)"><path fill="#fff" fill-opacity="0" fill-rule="evenodd" d="M144 435.94531v3.45313-127.72656h.0039H144V435.9453"/></g><path fill="#50fcfc" fill-rule="evenodd" d="M144 439.39844v2.16406l.0039-.0039v-2.16016H144"/><g clip-path="url(#c)"><path fill="#fff" fill-opacity="0" fill-rule="evenodd" d="M144.0039 480.32813v-38.76954l.86329-1.17578-.86328-.98437V311.67188h57.6953v114.22265l-1.74218 1.17578-2.69531 1.8789-4.14844 2.5586-.29297.26563-4.4375 2.1914-4.4375.47266L181 435.94531l-1.49219.66016-4.4414 3.02734-3.73047.75-.70703.07422-4.4375 1.01172-4.4375 1.2539-4.4375 1.25782-3.91016.83984-.53125.16797-4.4375.58985-2.5664 3.68359 2.47656 4.4375.08984.11719.35156-.1172 4.08594-1.03515 4.4414.66797.42188.36719 4.01563 4.0625 4.4375-.69531 3.83203-3.3672.60547-.6328 4.41015-3.8047.02735-.09765 4.4414-.47656.75.57422 1.77735 4.4375.95312 4.4375.95703.33594.27344-.33594.5586-4.4375 3.53124-4.4375.07422-.08594 4.24219-4.35547.19531-.11719 4.4414-3.60937 1.26173-.71094 3.17578-1.69531 2.3125-2.74219 1.17969-4.4375.9453-1.92578.66017-2.51172-.66016-.71484-4.4375-.46094V311.67188h17.7539v108.02734l-4.4375 2.71875-.2539.21094.2539.33203 4.4375 2.76953 2.78516 1.33984 1.65234 1.3711 4.4375 1.77734.72266 1.28906 2.39453 4.4375 1.32031 1.3086 4.44141 2.25 2.09375.8789 2.34375 2.49219 4.4375 1.03125 3.48828-3.52344.58203-4.4375-2.4375-4.4375-1.6328-.91797-4.4375-3.37109-.3672-.14844-4.0703-3.58203-3.3086-.85937-1.13281-.8125-1.46875.8125-2.96875.76562-1.55079-.76562-2.88672-2.6172-4.4375-.3125V311.67189h35.50391v115.98437l-3.82812 3.85156 3.82812 2.98047 3.72656 1.45703.71485.54688.52344-.54688 2.33984-4.4375-2.86328-3.3789-4.4414-.47266V311.67187h31.0703v106.91407l-4.4375 1.27734-4.28125 2.76563-.15625.0703-4.4414.59376-4.4375 3.5-1.47656.27734-1.35938 4.4375 2.83594 2.20313 4.4375-1.15625 4.4414.77734 4.4375 2.47656 2.71875.13672 1.71875.35547.71485-.35547 3.72265-3.70312.38672-.73438 1.30078-4.4375-1.6875-2.3789-.64453-2.0625-3.79297-4.04297V311.67188h13.31641v110.92578l-.04297.03125.04297.0664.0625-.0664-.0625-.03125V311.67187h4.4375v117.16016l-3.39844 2.67578 3.39844 2.52735 2.33594-2.52735-2.33594-2.67578V311.67188h17.7539v110.86328l-.10156.09375.10157.10937.41796-.10937-.41796-.09375V311.67187h8.875v110.0586l-2.16016.89844 2.16016.76953 1.4375-.76953-1.4375-.89844v-110.0586h48.82421V432.4336l-4.4414 1.34375-1.5586 2.16797-2.8789 2.76172-2.73828 1.67578-1.69922 3.95703-1.22656-3.95703-3.21094-1.64062-4.4375-1.47266-4.4414-.04687-1.04688-1.27735-3.39063-3.1875-3.125 3.1875 3.125 3.1875 1.50781 1.25 2.9297 2.82031 4.4414-.22265 4.4375.92969 3.75781.91015.67969.08203 4.4375 3.76563.46484.59375-.2539 4.4375 1.35937 4.4375 2.86719 2.82422 3.96875 1.61328.47265.94531 4.4375 3.15625 3.20313.33985 1.15625 4.4375.07813.08593.0703-.08594.53516-4.4375 3.78125-4.4414-.01562-4.4375.0664-.67578.69922-3.76172-.69921-1.9961-2.10547-2.4414-2.33204-1.53516-4.4375-.15625-1.59375-2.75-2.84375-3.51172-1.78906-.92578 1.78906-1.52344.91016-2.91406-.91015-3.51172V311.67188h88.76171v159.6875l-.08984.09375.08984.08984v8.78515h-57.27343l-.42188-.42578-.42187.42579h-50.9297l-1.90624-1.54297-4.4414.96093-.69532.58204H144.00391"/></g><path fill="#50fcfc" fill-rule="evenodd" d="M144.86719 440.38281l-.86328 1.17578v-2.16015l.86328.98437m3.48047 13.3164l-2.47657-4.4375 2.56641-3.68358 4.4375-.58985.53125-.16797 3.91016-.83984 4.4375-1.25781 4.4375-1.25391 4.4375-1.01172v3.49219l-2.12891.8711-2.3086 2.41796-4.4375-.9961-3.83202 3.01954 3.83203 3.51562 4.4375-1.76953 1.67187-1.7461 2.76563-2.66405 1.05468-1.77735-1.05468-.8711v-3.49218l.70703-.07422 3.73047-.75 4.4414-3.02734L181 435.9453l2.94531-1.50781 4.4375-.47266 4.4375-2.1914.29297-.26563 4.14844-2.5586 2.69531-1.8789 1.74219-1.17578 4.4375.46094.66016.71484-.66016 2.51172-.94531 1.92578-1.1797 4.4375-2.3125 2.74219-3.17577 1.69531-1.26172.71094-4.4414 3.60938-.19532.11718-4.24219 4.35547-.07422.08594-3.53125 4.4375-.55859 4.4375-.27344.33594-.95703-.33594-.95312-4.4375-1.77735-4.4375-.75-.57422-4.4414.47656-.02735.09766-4.41015 3.80469-.60547.6328-3.83203 3.3672-4.4375.6953-4.01563-4.0625-.42187-.36718-4.44141-.66797-4.08594 1.03516-.35156.11719-.08984-.1172"/><path fill="#00e8fc" fill-rule="evenodd" d="M161.7539 452.77734l-3.83202-3.51562 3.83203-3.01953 4.4375.9961L168.5 444.8203l2.1289-.8711 1.0547.8711-1.0547 1.77735-2.76562 2.66406-1.67187 1.7461-4.4375 1.76952"/><path fill="#50fcfc" fill-rule="evenodd" d="M215.01563 422.96094l-.25391-.33203.2539-.21094 4.4375-2.71875 4.4375.3125 2.88672 2.61719 1.55078.76562 2.96875-.76562 1.46875-.8125v4.98437l-1.17968.26953-.41797 4.4375 1.59766 2.17969 1.93359 2.25781 2.50781 1.78906 4.4375 2.15235 1.04688.4961 3.39062 2.07421 2.05469-2.07422.60937-4.4375-2.66406-2.9961-1.54297-1.4414-2.89453-2.70703-4.21484-1.73047-.22266-.19922-4.4414-.0703v-4.98438l1.1328.8125 3.3086.85937 4.07031 3.58203.3672.14844 4.4375 3.3711 1.6328.91796 2.4375 4.4375-.58203 4.4375-3.48828 3.52344-4.4375-1.03125-2.34375-2.49219-2.09375-.8789-4.4414-2.25-1.32032-1.3086-2.39453-4.4375-.72266-1.28906-4.4375-1.77734-1.65234-1.3711-2.78516-1.33984-4.4375-2.76953"/><path fill="#00e8fc" fill-rule="evenodd" d="M232.76563 433.6875l-1.59766-2.17969.41797-4.4375 1.17969-.26953 4.4414.07031v2.0586l-3.15234 2.57812 3.15234 3.42969 1.15625 1.00781 3.28125 2.07422 4.4375.1211.32031-2.19532-.3203-.35937-4.35548-4.07813-.08203-.07812-4.4375-2.5v-2.0586l.22266.19922 4.21484 1.73047 2.89453 2.70703 1.54297 1.4414 2.66406 2.9961-.60937 4.4375-2.05469 2.07422-3.39062-2.07422-1.04688-.4961-4.4375-2.15233-2.50781-1.78907-1.9336-2.25781"/><path fill="#00d4fc" fill-rule="evenodd" d="M237.20703 434.9375l-3.15234-3.42969 3.15234-2.57812v1.92578l-.79687.65234.79687.86719 4.11328 3.57031.32422.20313.5-.20313-.5-.44922-3.29297-3.98828-1.14453-.65234v-1.92578l4.4375 2.5.08203.07812 4.35547 4.07813.32031.35937-.3203 2.19531-4.4375-.12109-3.28126-2.07422-1.15625-1.00781"/><path fill="#00c4fc" fill-rule="evenodd" d="M237.20703 432.375l-.79687-.86719.79687-.65234 1.14453.65234 3.29297 3.98828.5.44922-.5.20313-.32422-.20313-4.11328-3.57031"/><path fill="#50fcfc" fill-rule="evenodd" d="M254.95703 434.48828l-3.82812-2.98047 3.82812-3.85156 4.4414.47266 2.86329 3.3789-2.33985 4.4375-.52343.54688-.71485-.54688-3.72656-1.45703m13.3164-.77734l-2.83593-2.20313 1.35938-4.4375 1.47656-.27734 4.4375-3.5 4.4414-.59375.15625-.07031 4.28125-2.76563v3.21875l-4.4375 1.80078-4.4414-.26562-2.91797 2.45312 2.91797 3.08985 4.4414-.25782 1.16016 1.60547 3.27734 2.64453 3.48438-2.64453.95312-1.08203 2.73438-3.35547-2.73438-3.84375-4.4375-.14453v-3.21875l4.4375-1.27734 3.79297 4.04297.64453 2.0625 1.6875 2.3789-1.30078 4.4375-.38672.73438-3.72265 3.70312-.71485.35547-1.71875-.35547-2.71875-.13672-4.4375-2.47656-4.4414-.77734-4.4375 1.15625"/><path fill="#00e8fc" fill-rule="evenodd" d="M272.71094 430.16016l-2.91797-3.08985 2.91797-2.45312v2.20703l-.28906.2461.28906.30468.95703-.30469-.95703-.2461v-2.20702l4.4414.26562 4.4375-1.80078 4.4375.14453 2.73438 3.84375-2.73438 3.35547-.95312 1.08203-3.48438 2.64453-3.27734-2.64453-1.16016-1.60547-4.4414.25782"/><path fill="#00d4fc" fill-rule="evenodd" d="M272.71094 427.375l-.28906-.30469.28906-.2461.95703.2461-.95703.30469"/><path fill="#50fcfc" fill-rule="evenodd" d="M299.34375 422.69531l-.04297-.0664.04297-.03125.0625.03125-.0625.0664m4.4375 11.33985l-3.39844-2.52735 3.39844-2.67578 2.33594 2.67578-2.33594 2.52735m17.7539-11.29688l-.10156-.10937.10157-.09375.41796.09375-.41796.10937m8.875.66016l-2.16016-.76953 2.16016-.89844 1.4375.89844-1.4375.76953m17.7539 15.73437l-3.125-3.1875 3.125-3.1875v3.0664l-.11719.1211.1172.1211.1289-.1211-.1289-.1211v-3.0664l3.39062 3.1875 1.04687 1.27735 4.4414.04687 4.4375 1.47266 3.21095 1.64062 1.22656 3.95703 1.69922-3.95703 2.73828-1.67578 2.8789-2.76172 1.5586-2.16797 4.4414-1.34375.91016 3.51172-.91015 2.91406-1.78907 1.52344 1.78906.92578v6.01172l-1.55078 1.9414 1.55079 1.54688 3.07421-1.54687-3.07421-1.9414v-6.01173l2.84375 3.51172 1.59375 2.75 4.4375.15625v4.58203l-.5 1.39063.5.22265v3.51954l-1.88672.6953-2.55079 1.0547-2.08984 3.3828 2.08985 1.89845 4.4375 1.64843 3.46093-3.54687-2.73828-4.4375-.72265-.69531v-3.51954l1.6953-.22265-1.6953-1.39063v-4.58203l2.33203 1.53516 2.10546 2.4414.69922 1.9961-.69921 3.76172-.06641.67578.01562 4.4375-3.78125 4.4414-.53515 4.4375-.07031.08594-.07813-.08594-1.15625-4.4375-3.20313-.33984-4.4375-3.15625-.47265-.94531-3.96875-1.61328-2.86719-2.82422-1.35937-4.4375.2539-4.4375-.46484-.59375-4.4375-3.76563-.67969-.08203-3.75781-.91015-4.4375-.9297-4.4414.22267-2.9297-2.82032-1.5078-1.25"/><path fill="#00e8fc" fill-rule="evenodd" d="M348.16406 436.0664l-.11719-.12109.1172-.1211.1289.1211-.1289.1211"/><g clip-path="url(#d)"><path fill="#50fcfc" fill-rule="evenodd" d="M351.90625 480.32813h7.04297l-1.90625-1.54297-4.4414.96093-.69532.58204"/></g><path fill="#fff" fill-opacity="0" fill-rule="evenodd" d="M379.23438 447.32031l-1.55079 1.9414 1.55079 1.54688 3.07421-1.54687-3.07421-1.9414"/><path fill="#00e8fc" fill-rule="evenodd" d="M383.67188 464.47266l-2.08985-1.89844 2.08985-3.38281 2.55078-1.0547 1.88671-.6953v2.53125l-3.19921 2.60156 3.19921 1.96875 1.92188-1.96875-1.92188-2.60156v-2.53125l.72266.6953 2.73828 4.4375-3.46094 3.54688-4.4375-1.64843"/><path fill="#00d4fc" fill-rule="evenodd" d="M388.10938 464.54297l-3.19922-1.96875 3.19921-2.60156v2.08593l-.63671.51563.63671.39453.38282-.39453-.38281-.51563v-2.08593l1.92187 2.60156-1.92188 1.96875"/><path fill="#00c4fc" fill-rule="evenodd" d="M388.10938 462.96875l-.63672-.39453.63671-.51563.38282.51563-.38281.39453"/><path fill="#fff" fill-opacity="0" fill-rule="evenodd" d="M388.10938 452.3086l-.5 1.39062.5.22265 1.6953-.22265-1.6953-1.39063"/><g clip-path="url(#e)"><path fill="#50fcfc" fill-rule="evenodd" d="M409.8789 480.32813h.84376l-.42188-.42579-.42187.42579"/></g><path fill="#50fcfc" fill-rule="evenodd" d="M467.9961 471.54297l-.08985-.08985.08984-.09375v.1836"/><g clip-path="url(#f)"><path fill="#fff" fill-opacity="0" fill-rule="evenodd" d="M467.9961 480.32813H468v-8.78125 8.78125h-.0039"/></g><path fill="#50fcfc" fill-rule="evenodd" d="M467.9961 471.35938v.18359l.0039.0039v-.1875h-.0039"/><g clip-path="url(#g)"><path fill="#fff" fill-opacity="0" fill-rule="evenodd" d="M467.9961 311.67188H468v159.6875-159.6875h-.0039"/></g><path fill="#fff" fill-opacity="0" fill-rule="evenodd" d="M396.07813 467.53906l2.0078-5.48437-9.35156-3.42578-2.0078 5.48437 9.35156 3.42578"/><path fill-rule="evenodd" d="M389.64844 461.46094l.17578-.48047 5.91015 2.16797-.26953.73828-4.21484-1.54688-.47656 1.3047-.52344-.19142.13281-.54687.03516-.2539-.0039-.25-.0625-.23829-.14063-.23437-.22656-.23438-.33594-.23437"/><path fill="#fff" fill-opacity="0" fill-rule="evenodd" d="M209.6914 434.57031l2.04298-5.47265-9.33204-3.48438-2.04297 5.47266 9.33204 3.48437"/><path fill-rule="evenodd" d="M203.30078 428.44922l.17578-.47656 5.89844 2.19921-.27344.73829-4.20703-1.57032-.48828 1.30079-.51953-.19141.13672-.55078.03515-.2539-.0039-.2461-.0586-.23828-.13672-.23829-.22656-.23437-.33203-.23828"/><g clip-path="url(#h)"><path fill="none" stroke="#000" stroke-linecap="round" stroke-linejoin="round" stroke-miterlimit="10" stroke-width=".5" d="M147.48438 480.79297l-6.96875-.92578"/></g><g clip-path="url(#i)"><path fill="none" stroke="#000" stroke-linecap="round" stroke-linejoin="round" stroke-miterlimit="10" stroke-width=".5" d="M147.48438 480.79297l.85546 2.29687"/></g><g clip-path="url(#j)"><path fill="none" stroke="#000" stroke-linecap="round" stroke-linejoin="round" stroke-miterlimit="10" stroke-width=".5" d="M160.80078 480.77344l-6.97266-.88672"/></g><g clip-path="url(#k)"><path fill="none" stroke="#000" stroke-linecap="round" stroke-linejoin="round" stroke-miterlimit="10" stroke-width=".5" d="M160.80078 480.77344l.86719 2.29297"/></g><g clip-path="url(#l)"><path fill="none" stroke="#000" stroke-linecap="round" stroke-linejoin="round" stroke-miterlimit="10" stroke-width=".5" d="M174.10938 480.82422l-6.95704-.99219"/></g><g clip-path="url(#m)"><path fill="none" stroke="#000" stroke-linecap="round" stroke-linejoin="round" stroke-miterlimit="10" stroke-width=".5" d="M174.10938 480.82422l.83203 2.3086"/></g><g clip-path="url(#n)"><path fill="none" stroke="#000" stroke-linecap="round" stroke-linejoin="round" stroke-miterlimit="10" stroke-width=".5" d="M187.23828 481.55078l-6.58984-2.4414"/></g><g clip-path="url(#o)"><path fill="none" stroke="#000" stroke-linecap="round" stroke-linejoin="round" stroke-miterlimit="10" stroke-width=".5" d="M200.54297 481.57813l-6.5664-2.4961"/></g><g clip-path="url(#p)"><path fill="none" stroke="#000" stroke-linecap="round" stroke-linejoin="round" stroke-miterlimit="10" stroke-width=".5" d="M214.08203 480.11719l-7.01562.42187"/></g><g clip-path="url(#q)"><path fill="none" stroke="#000" stroke-linecap="round" stroke-linejoin="round" stroke-miterlimit="10" stroke-width=".5" d="M214.08203 480.11719l1.28125 2.09375"/></g><g clip-path="url(#r)"><path fill="none" stroke="#000" stroke-linecap="round" stroke-linejoin="round" stroke-miterlimit="10" stroke-width=".5" d="M227.3789 479.92188l-6.97656.8164"/></g><g clip-path="url(#s)"><path fill="none" stroke="#000" stroke-linecap="round" stroke-linejoin="round" stroke-miterlimit="10" stroke-width=".5" d="M227.3789 479.92188l1.39844 2.01562"/></g><g clip-path="url(#t)"><path fill="none" stroke="#000" stroke-linecap="round" stroke-linejoin="round" stroke-miterlimit="10" stroke-width=".5" d="M240.6836 480.8164l-6.95704-.97265"/></g><g clip-path="url(#u)"><path fill="none" stroke="#000" stroke-linecap="round" stroke-linejoin="round" stroke-miterlimit="10" stroke-width=".5" d="M240.6836 480.8164l.84374 2.3047"/></g><g clip-path="url(#v)"><path fill="none" stroke="#000" stroke-linecap="round" stroke-linejoin="round" stroke-miterlimit="10" stroke-width=".5" d="M253.69922 481.82813l-6.35547-3"/></g><g clip-path="url(#w)"><path fill="none" stroke="#000" stroke-linecap="round" stroke-linejoin="round" stroke-miterlimit="10" stroke-width=".5" d="M267.05469 481.73828l-6.4375-2.8164"/></g><g clip-path="url(#x)"><path fill="none" stroke="#000" stroke-linecap="round" stroke-linejoin="round" stroke-miterlimit="10" stroke-width=".5" d="M280.23047 482.01563l-6.16016-3.375"/></g><g clip-path="url(#y)"><path fill="none" stroke="#000" stroke-linecap="round" stroke-linejoin="round" stroke-miterlimit="10" stroke-width=".5" d="M293.54297 482.02344l-6.15235-3.39063"/></g><g clip-path="url(#z)"><path fill="none" stroke="#000" stroke-linecap="round" stroke-linejoin="round" stroke-miterlimit="10" stroke-width=".5" d="M307.09766 481.48438l-6.63282-2.3125"/></g><g clip-path="url(#A)"><path fill="none" stroke="#000" stroke-linecap="round" stroke-linejoin="round" stroke-miterlimit="10" stroke-width=".5" d="M306.13281 481.14844l.1875 1.21094"/></g><g clip-path="url(#B)"><path fill="none" stroke="#000" stroke-linecap="round" stroke-linejoin="round" stroke-miterlimit="10" stroke-width=".5" d="M320.4414 481.40625l-6.6914-2.15234"/></g><g clip-path="url(#C)"><path fill="none" stroke="#000" stroke-linecap="round" stroke-linejoin="round" stroke-miterlimit="10" stroke-width=".5" d="M319.46875 481.09375l.21484 1.20703"/></g><g clip-path="url(#D)"><path fill="none" stroke="#000" stroke-linecap="round" stroke-linejoin="round" stroke-miterlimit="10" stroke-width=".5" d="M333.80078 481.2461l-6.78125-1.83594"/></g><g clip-path="url(#E)"><path fill="none" stroke="#000" stroke-linecap="round" stroke-linejoin="round" stroke-miterlimit="10" stroke-width=".5" d="M332.8164 480.98047l.27344 1.19531"/></g><g clip-path="url(#F)"><path fill="none" stroke="#000" stroke-linecap="round" stroke-linejoin="round" stroke-miterlimit="10" stroke-width=".5" d="M346.92578 481.78516l-6.39844-2.91016"/></g><g clip-path="url(#G)"><path fill="none" stroke="#000" stroke-linecap="round" stroke-linejoin="round" stroke-miterlimit="10" stroke-width=".5" d="M355.89844 483.65234l2.28515-6.64453"/></g><g clip-path="url(#H)"><path fill="none" stroke="#000" stroke-linecap="round" stroke-linejoin="round" stroke-miterlimit="10" stroke-width=".5" d="M368.67969 483.41797l3.35547-6.17578"/></g><g clip-path="url(#I)"><path fill="none" stroke="#000" stroke-linecap="round" stroke-linejoin="round" stroke-miterlimit="10" stroke-width=".5" d="M380.90234 482.49219l5.53907-4.32813"/></g><g clip-path="url(#J)"><path fill="none" stroke="#000" stroke-linecap="round" stroke-linejoin="round" stroke-miterlimit="10" stroke-width=".5" d="M394.32813 482.6289l5.3164-4.59765"/></g><g clip-path="url(#K)"><path fill="none" stroke="#000" stroke-linecap="round" stroke-linejoin="round" stroke-miterlimit="10" stroke-width=".5" d="M408.53906 483.3711l3.52344-6.08204"/></g><g clip-path="url(#L)"><path fill="none" stroke="#000" stroke-linecap="round" stroke-linejoin="round" stroke-miterlimit="10" stroke-width=".5" d="M420.10547 480.5l7.01953-.34375"/></g><g clip-path="url(#M)"><path fill="none" stroke="#000" stroke-linecap="round" stroke-linejoin="round" stroke-miterlimit="10" stroke-width=".5" d="M421.1289 480.44922l-.6289-1.05469"/></g><g clip-path="url(#N)"><path fill="none" stroke="#000" stroke-linecap="round" stroke-linejoin="round" stroke-miterlimit="10" stroke-width=".5" d="M433.55078 481.28516l6.76172-1.91407"/></g><g clip-path="url(#O)"><path fill="none" stroke="#000" stroke-linecap="round" stroke-linejoin="round" stroke-miterlimit="10" stroke-width=".5" d="M434.53516 481.00781l-.85157-.88672"/></g><g clip-path="url(#P)"><path fill="none" stroke="#000" stroke-linecap="round" stroke-linejoin="round" stroke-miterlimit="10" stroke-width=".5" d="M447.04297 481.76953l6.41015-2.8789"/></g><g clip-path="url(#Q)"><path fill="none" stroke="#000" stroke-linecap="round" stroke-linejoin="round" stroke-miterlimit="10" stroke-width=".5" d="M447.04297 481.76953l-1.9414-1.5039"/></g><g clip-path="url(#R)"><path fill="none" stroke="#000" stroke-linecap="round" stroke-linejoin="round" stroke-miterlimit="10" stroke-width=".5" d="M460.1914 481.32813l6.73829-1.9961"/></g><g clip-path="url(#S)"><path fill="none" stroke="#000" stroke-linecap="round" stroke-linejoin="round" stroke-miterlimit="10" stroke-width=".5" d="M461.17188 481.03516l-.85938-.875"/></g><g clip-path="url(#T)"><path fill="none" stroke="#000" stroke-linecap="round" stroke-linejoin="round" stroke-miterlimit="10" stroke-width=".5" d="M147.36328 468.03125l-6.72656-2.03516"/></g><path fill="none" stroke="#000" stroke-linecap="round" stroke-linejoin="round" stroke-miterlimit="10" stroke-width=".5" d="M147.36328 468.03125l.47656 2.40625m12.90235-2.65234l-6.85547-1.54297m6.85547 1.54297l.64844 2.36328m12.68359-2.4375l-6.88672-1.39453m6.88672 1.39453l.69922 2.35156m-1.70313-2.55469l.35156 1.17578m13.86329-.57812l-6.6797-2.1836m6.6797 2.1836l.42187 2.41797m12.83594-2.26172l-6.5664-2.4961m6.5664 2.4961l.3086 2.4336m13.21874-3.32032l-6.98828-.72266m5.97266.6172l.46094 1.13671m13.82421-2.0586l-6.89843 1.33204m6.89843-1.33203l1.54297 1.90625m11.76172-1.95703l-6.8789 1.43359m6.8789-1.4336l1.57031 1.88282m11.79297-.73047l-6.97265-.8711m6.97265.8711l.875 2.29297m11.8164-.6914l-5.72655-4.07423m4.89453 3.48047l-.16016 1.21875m14.22266-.51562l-5.5586-4.29297m4.75 3.66797l-.20703 1.21093m14.88281-1.60937l-6.66015-2.2461m5.6914 1.91797l.19922 1.21094m14.21094-1.38281l-6.91406-1.2461m5.91015 1.06641l.3711 1.16797m13.9961-1.83594l-7.01173.44922m5.9922-.38281l.64452 1.04297m13.67578-1.28906l-6.98046.80859m5.96484-.6914l.69531 1.01171m13.26172-2.34375l-6.23438 3.23828m5.32813-2.76562l1.00781.69531m11.47656-2.78125l-2.76171 6.46484m14.125-6.69921l1.14062 6.93359m9.23438-3.57422l7.02343.21484m-6.0039-.18359l-.53906-1.10156m12.95312 2.09375l6.78516-1.83203m-5.79688 1.5625l-.83984-.89453m13.09375-.32813l6.92969 1.15234m-5.92188-.98437l-.39063-1.16406m13.25-.39453l5.82422 3.93359m-4.97656-3.35938l.1289-1.22265m13.04298-.11719l4.41796 5.46484m-3.77734-4.66796l.48047-1.12891m11.4375 1.17969l5.92969 3.76953m-5.92969-3.76953l.1875-2.44532m12.58203 4.23829l7.02344.18359m-6.0039-.15625l-.54688-1.09766"/><g clip-path="url(#U)"><path fill="none" stroke="#000" stroke-linecap="round" stroke-linejoin="round" stroke-miterlimit="10" stroke-width=".5" d="M147.19531 455.15625l-6.39062-2.91797"/></g><path fill="none" stroke="#000" stroke-linecap="round" stroke-linejoin="round" stroke-miterlimit="10" stroke-width=".5" d="M147.19531 455.15625l.14844 2.44922m12.875-1.92578l-5.80469-3.96094m4.95703 3.38281l-.1328 1.22266m13.13671.42187l-3.49219-6.09765m3.49219 6.09765l-1.30469 2.07813m15.44531-2.73047l-5.14062-4.79297m4.39063 4.09766l-.31641 1.1836m14.63672-.79298l-5.65235-4.17968m4.82813 3.5703l-.17969 1.21485m14.6836-1.22265l-6.37891-2.94532m5.44922 2.51563l.07031 1.22656m14.28125-3.48438l-6.59375 2.42579m5.63281-2.07032l.91797.81641m13.28906-1.34375l-6.45703 2.77344m5.51953-2.3711l.95313.76953m13.5664-.15625l-6.98828.7422m5.96875-.63282l.6875 1.01563m13.66407-.76172l-7.02735.01562m6.00782-.01562l.57812 1.08203m13.22266.79297l-5.95703-3.73438m5.08984 3.1914l-.08594 1.22266m14.7539-1.96484L287 453.11328m5.92187 1l.38672 1.16406m13.94922-1.07421l-6.95312-1.00782m5.9414.85938l.41407 1.15625m13.9375-1.78125l-7.00391.53906m5.98437-.46094l.66016 1.03516m13.17969-2.66406l-6.01172 3.63672m5.13672-3.10547l1.05469.6289m12.77734-1.64843l-5.29688 4.61718m4.52344-3.94531l1.14844.4375m12.48047-1.55078l-4.3789 5.5m4.3789-5.5l2.41015.44922m9.4922-1.125l-1.5547 6.85156m1.32813-5.85547l1.1836-.32031m14.67968 1.09375l-6.19922 3.3125m13.08203-2.76563l6.66797 2.21875m-5.69922-1.89453l-.20312-1.21093m12.96484 3.95312l5.83594-3.91406m-4.98438 3.34375l-1.08203-.57813m13.16797-2.02734l6.59375 2.4375m-5.63281-2.08203l-.16797-1.21485m15.86719-1.4375l-.09766 7.02735m.08203-6.0039l1.09375-.5586m12.96094-.375l-1.54687 6.85156m1.54687-6.85156l2.36719-.64844m-2.58985 1.64453l1.1836-.32422m8.97656.39453l5.21094 4.71485m-4.45313-4.02735l.30078-1.1914"/><g clip-path="url(#V)"><path fill="none" stroke="#000" stroke-linecap="round" stroke-linejoin="round" stroke-miterlimit="10" stroke-width=".5" d="M146.58984 442.75781l-5.17968-4.75"/></g><path fill="none" stroke="#000" stroke-linecap="round" stroke-linejoin="round" stroke-miterlimit="10" stroke-width=".5" d="M146.58984 442.75781l-.61718 2.375m13.48047-1.96094l-4.27735-5.57421m4.27734 5.57422l-1.01562 2.23046m13.57031-1.78515l-2.7539-6.46485m2.7539 6.46485l-1.54297 1.90625m14.7422-1.85938l-2.52345-6.5586m2.52344 6.5586l-1.60937 1.85156m14.875-1.83593l-2.42578-6.59375m2.07421 5.63672l-.8203.91406m14.95312-.16406l-3.35547-6.17579m2.86719 5.27735l-.6797 1.02344m16.01173-1.78125l-6.41797-2.86329m5.48437 2.44532l.08594 1.22265m14.42188-2.80859l-6.9336 1.14062m5.92578-.97265l.74219.97265m13.60938-.19921l-6.98829-.7422m5.96875.63282l.46094 1.14063m13.71875-2.4961l-6.67969 2.1875m5.70704-1.86719l.8828.84766m13.5625-.41797l-6.99609.6875m5.97657-.58594l.67968 1.02344m13.5547.1211l-6.79298-1.80079m6.79297 1.80079l.5586 2.38671m12.79687-4.0039l-6.8789 1.42969m6.8789-1.4297l1.57031 1.88673m11.64844-2.25782l-6.6836 2.17188m6.6836-2.17188L322.20312 441m-2.73828-1.38672l.88282.85156m13.1328-1.78906l-6.14062 3.41797m6.14063-3.41797l2.0625 1.33203m-2.95703-.83594l1.03125.66407m12.70312-1.82422l-5.1875 4.74219m5.1875-4.7422l2.3125.82032m10.21875-1.46094l-3.6211 6.02344m3.6211-6.02344l2.44922.13282m9.26563-.62891l-.42188 7.01562m.42188-7.01562l2.23437-1.01953m-2.29297 2.04297l1.11328-.51172m9.97657.16015l4.14843 5.67188m-4.14843-5.67188l1.0664-2.20703m10.83203 5.45313l6.98047-.82031m-6.98047.8203l-1.39843-2.01562m14.77343 2.375l6.85938-1.53515m-5.85938 1.3086l-.80078-.9297m18.84375-2.27343l-4.59375 5.3203m4.59375-5.3203l2.39063.54687m9.70703-1.23047l-2.16016 6.6875m2.16016-6.6875l2.41406-.42969m-2.72656 1.40235l1.20703-.21485m11.95312-.875l-1.22265 6.92188m1.22265-6.92188l2.33204-.7578m13.16406 2.08593l-5.58594 4.26562"/><g clip-path="url(#W)"><path fill="none" stroke="#000" stroke-linecap="round" stroke-linejoin="round" stroke-miterlimit="10" stroke-width=".5" d="M466.35547 438.25l2.23047 1.02344"/></g><g clip-path="url(#X)"><path fill="none" stroke="#000" stroke-linecap="round" stroke-linejoin="round" stroke-miterlimit="10" stroke-width=".5" d="M146.92188 429.01953l-5.84375-3.90234"/></g><path fill="none" stroke="#000" stroke-linecap="round" stroke-linejoin="round" stroke-miterlimit="10" stroke-width=".5" d="M146.92188 429.01953l-.2461 2.4414m13.1289-1.91405l-4.98046-4.95704m4.25781 4.23438L158.72266 430m14.18359-.2539l-4.55078-5.35547m3.89062 4.57421l-.45312 1.14063m14.6914-.60547l-5.07812-4.86328m4.33984 4.15625l-.33593 1.17969m14.98437-1.3125l-6.26562-3.1797m5.35156 2.71485l.02344 1.22657m14.16015-4.03125l-6.17578 3.35546m5.27734-2.86718l1.02344.67578m12.39844-2.14453l-4.59375 5.3164m19.09766-3.11328l-6.96875.91016m5.95312-.77735l.71094 1m13.5039-1.66796l-6.74218 1.98046m17.71094-.98828l-.01954-.20312-.05859-.1914-.09375-.17579-.46094-.375-.1914-.0586-.19922-.01952-.19922.01953-.1914.05859-.46094.375-.09375.17578-.0586.1914-.01953.20313.01953.19922.0586.1914.09375.17579.46093.375.1914.0586.19923.01952.19922-.01953.1914-.0586.46094-.375.09375-.17577.0586-.1914.01952-.19923m10.85157-3.20703l2.8789 6.41016m-2.45703-5.47656l.75-.96875m16.53516 5.14453l-5.90625-3.8086m5.04687 3.2539l-.10156 1.22267m14.5625-3.9336l-6.47656 2.72266m5.53515-2.32422l.94922.77344m13.03907-1.6836l-5.94141 3.7461m5.9414-3.7461l2.13282 1.21875m11.27734-1.0625l-6.13281 3.4336m6.13281-3.4336l2.0625 1.32813m-2.95312-.82813l1.03125.66407m13.19531-1.12891l-6.17188 3.36328m6.17188-3.36328l2.04687 1.35156m-2.9453-.85937l1.02343.67578m12.50781-2.04688l-4.8086 5.1211m4.8086-5.1211l2.3711.64453m8.95703-1.57421l-.83594 6.98046m.83594-6.98046l2.28906-.88282m9.09766 1.19922l3.02343 6.34766m-3.02343-6.34766l1.46093-1.96875m16.03125 2.85156l-5.33203 4.58204m5.33203-4.58204l2.28516.89063m-3.0625-.22266l1.14453.44532M412.69922 424.5l-4.79688 5.13672m4.79688-5.13672l2.3711.63672M412 425.24609l2.3711.63672m11.3828-1.60547l-4.27343 5.58204m4.27344-5.58204l2.41796.40235m-3.03906.41015l1.20703.20313m12.6875-1.04297l-4.1914 5.63672m4.1914-5.63672l2.42578.36719m-3.03515.45312l2.42578.36719m10.84766-1.57031l-2.89063 6.40234m2.89063-6.40234l2.44921-.16016m-2.87109 1.08985l2.44922-.16016m12.21875-.15625l-4.7539 5.17578"/><g clip-path="url(#Y)"><path fill="none" stroke="#000" stroke-linecap="round" stroke-linejoin="round" stroke-miterlimit="10" stroke-width=".5" d="M465.9375 424.48047l2.375.6211"/></g><path fill="none" stroke="#000" stroke-linecap="round" stroke-linejoin="round" stroke-miterlimit="10" stroke-width=".5" d="M465.2461 425.23438l2.375.61718"/><g clip-path="url(#Z)"><path fill="none" stroke="#000" stroke-linecap="round" stroke-linejoin="round" stroke-miterlimit="10" stroke-width=".5" d="M147.01172 415.5586l-6.02344-3.61329"/></g><path fill="none" stroke="#000" stroke-linecap="round" stroke-linejoin="round" stroke-miterlimit="10" stroke-width=".5" d="M147.01172 415.5586l-.125 2.45312m13.72266-3.03906l-6.58985-2.4375m5.63281 2.08203l.16407 1.21875m14.32812-2.11719l-7.02734.07031m6.0039-.0625l.58594 1.07813m13.74219-1.32422l-7.00781.54687m5.98828-.46875l.65625 1.03516m13.44531-2.125l-6.54297 2.5664m5.58984-2.1914l.9336.79688m12.59766-2.32032l-5.07032 4.86719m4.33203-4.16016l1.16797.38282m6.95313.45312l6.79687 1.78125m9.50781 2.59766l.81641-6.98047m-.69531 5.96484l-1.14453.44922m14.85937.58984l-.22656-7.02343m.19531 6l-1.0664.61328m16.60547-.45313l-4.61329-5.30078m3.94532 4.53125l-.44141 1.14453m14.67578-5.43359l-5.11328 4.82031m4.36719-4.1211l1.16406.39454m13.0586 3.54297l-5.4375-4.45313m5.4375 4.45313l-.48048 2.40625m14.5547-4.125l-6.95313-1.01563m5.9414.8672l.41407 1.15624m13.69921-2.8164l-6.52734 2.60156m6.52734-2.60157l1.8711 1.58594m11.6875-.51562l-7.01172.45703m7.01172-.45703l1.28906 2.08984m-2.3086-2.02344l.64454 1.04688m13.61328-1.64453l-6.85938 1.51953m6.85938-1.51953l1.59375 1.86718m11.78906-.76953l-6.9961-.67187m6.9961.67187l.9375 2.26563m11.26172-5.1836l-4.76562 5.16407m4.76562-5.16407l2.375.6211m-3.0664.1289l2.37109.6211m11.04687-1.8086l-3.58593 6.03907m3.58593-6.03907l2.45313.11329m-2.97656.76562l2.45312.11328m12.0625-.47265l-4.9414 5m4.9414-5l2.34766.70312m-3.0664.02344l2.34765.70312m11.14453-1.86718l-3.85938 5.87109m3.85938-5.8711l2.44531.23047m-3.0039.625l2.4414.22657m10.64453-1.46875l-2.28515 6.64453m2.28515-6.64453l2.42578-.38282m-2.7578 1.35157l1.21093-.19532m13.67969-.03125l-4.76954 5.16016m4.76954-5.16016l2.37109.625m-3.0664.12891l2.375.6211m11.55468-1.44532l-4.60937 5.30469m4.60937-5.30469l2.39063.55469m-3.0586.21875l1.19531.27344m12.84375-.9961l-4.72265 5.20313"/><g clip-path="url(#aa)"><path fill="none" stroke="#000" stroke-linecap="round" stroke-linejoin="round" stroke-miterlimit="10" stroke-width=".5" d="M465.92188 411.15234l2.3789.60547"/></g><path fill="none" stroke="#000" stroke-linecap="round" stroke-linejoin="round" stroke-miterlimit="10" stroke-width=".5" d="M465.23828 411.91016l2.375.60156"/><g clip-path="url(#ab)"><path fill="none" stroke="#000" stroke-linecap="round" stroke-linejoin="round" stroke-miterlimit="10" stroke-width=".5" d="M147.40234 401.3125l-6.80468-1.75"/></g><path fill="none" stroke="#000" stroke-linecap="round" stroke-linejoin="round" stroke-miterlimit="10" stroke-width=".5" d="M147.40234 401.3125l.57813 2.38672m12.83984-3l-7.00781-.52344m7.00781.52344l.98438 2.2461m12.27344-3.1797l-6.89844 1.34375m6.89844-1.34375l1.54687 1.90625m11.3164-3.0703l-5.99218 3.67577m5.99219-3.67578l2.11328 1.24219m11.59375-.33203l-6.77735 1.85156m5.79297-1.58203l.83985.89453m13.1914-1.85547l-6.23828 3.23438m5.32813-2.76563l1.01172.69922m6.60546.85547l6.97657-.8125m-5.96485.69531l-.69531-1.00781m15.09375-2.5039l2.78906 6.44921m14.44531-.78125l-5.05078-4.88672m4.31641 4.17579l-.33984 1.17968m14.6914-.82812l-5.65625-4.17188m5.65625 4.17188l-.35937 2.42969m13.875-2.73438l-6.0586-3.5625m6.0586 3.5625l-.10547 2.45313m13.90234-4.0586l-7.01953-.35156m5.9961.30078l.52343 1.10938m13.07031.93359l-5.53125-4.33203m4.72657 3.69922l-.21485 1.21093m15.08203-2.78125l-7.02734.07422m7.02734-.07422l1.17579 2.15235m-2.19922-2.14453l.58984 1.07812m13.6836-.38281l-6.89844-1.33203m6.89843 1.33203l.72266 2.34375m-1.72656-2.53906l.36328 1.17187m13.60156-3.30469l-6.1914 3.32422m5.29296-2.83984l1.01954.67969m13.60546.23437l-7.0078.52344m7.0078-.52344l1.3086 2.07813m11.25-4.00391l-5.5 4.375m5.5-4.375l2.25.97656m-3.05078-.33984l2.25.97656m11.42968-2.07031l-4.625 5.29297m4.625-5.29297l2.38672.5586m-3.0625.21093l2.39063.5586m-3.0625.21093l1.19531.27735m13.53125-1.75782l-4.7539 5.17578m4.7539-5.17578l2.375.61328m-3.0664.13672l2.375.61719m12.34765-.44922l-6.1836 3.33594m6.1836-3.33594l2.04297 1.35938m-2.94531-.875l1.02343.67968m12.25391-2.27343l-4.30469 5.55468m4.3047-5.55468l2.41796.41796m-3.04688.39063l2.41797.41797m11.70703-1.07422l-4.67187 5.25m4.67187-5.25l2.38672.58203m-3.0664.1836l2.38672.57812m11.94921-.9961l-5.34765 4.5586m5.34765-4.5586l2.28125.90235m-3.05859-.23828l1.14063.44922M466.08984 398l-5.05468 4.8789"/><g clip-path="url(#ac)"><path fill="none" stroke="#000" stroke-linecap="round" stroke-linejoin="round" stroke-miterlimit="10" stroke-width=".5" d="M466.08984 398l2.33204.75781"/></g><path fill="none" stroke="#000" stroke-linecap="round" stroke-linejoin="round" stroke-miterlimit="10" stroke-width=".5" d="M465.35547 398.70703l2.33203.76172"/><g clip-path="url(#ad)"><path fill="none" stroke="#000" stroke-linecap="round" stroke-linejoin="round" stroke-miterlimit="10" stroke-width=".5" d="M147.32422 388.26563l-6.64844-2.28125"/></g><path fill="none" stroke="#000" stroke-linecap="round" stroke-linejoin="round" stroke-miterlimit="10" stroke-width=".5" d="M147.32422 388.26563l.38672 2.42187m13.10937-3.32813l-7.01172-.47265m7.01172.47265l1.0039 2.2422m-2.02343-2.3086l.5 1.11719m13.72266-2.20313l-6.78516 1.83203m6.78516-1.83203L175.69922 388m-2.66406-1.52344l.83984.89453m11.1836-3.57812l-2.22657 6.66406m2.22656-6.66406l2.42188-.40625m9.04297.30078L198 390.5586m-1.47656-6.8711l1.875-1.58203m13.5586 8.25l-2.76173-6.46485m17.72656 5.00782l-6.0625-3.55078m5.1797 3.03515l-.05079 1.22656m13.15625-5.41796l-3.8789 5.86328m18.64062-3.875l-6.76953 1.88672m6.76953-1.88672l1.6914 1.77734m11.75-.69922l-7.02343-.26562m7.02344.26562l1.0664 2.20703m12.21485-1.84765l-6.95703-.98828m6.95703.98828l.83593 2.30469m12.48438-3.25l-6.96875.90625m6.96875-.90625l1.42187 2m-2.43359-1.8711l.71094 1m13.24219-2.3086l-6.22266 3.26563m6.22266-3.26562l2.02734 1.38281m-2.92969-.91016l1.01172.69141m13.58984.10156l-6.98828.73047m6.98828-.73047l1.3711 2.03125m-2.38672-1.92578l.6836 1.01563m13.58984-1.48829l-6.8711 1.46485m6.8711-1.46485l1.57812 1.87891m11.7461-1.82422l-6.89454 1.35547m6.89454-1.35547l1.55078 1.90625m-2.55078-1.70703l.77343.94922m13.48047-1.41016l-6.76953 1.88282m6.76953-1.88282l1.6914 1.77735m-2.67577-1.5039l1.6914 1.77733m12.17188-3.01953l-5.89844 3.82032m5.89844-3.82032l2.14453 1.19141m-3.0039-.63672l2.14452 1.1914m11.77735-2.08984l-5.39453 4.50391m5.39453-4.5039l2.27344.92577m-3.0586-.26953l2.27344.92579m11.98828-1.375l-5.71484 4.09375m5.71484-4.09375l2.19531 1.08593m-3.02734-.49219l2.19922 1.08985m-3.03125-.4961l1.10156.54688m13.35547-2.3125l-4.67188 5.25m4.67188-5.25l2.38281.57813m-3.0625.18359l2.38281.57812m11.47266-1.45703l-4.39453 5.48438m4.39453-5.48438l2.41016.45313m-3.04688.34375l2.41016.45312m11.78906-1.03125l-4.89062 5.04297m4.89062-5.04297l2.35938.67969m-3.07032.05469l2.35938.67969m11.98437-1.06641l-5.52343 4.34765m5.52343-4.34765l2.2461.99219m-3.05078-.35938l1.125.4961m13.29296-.6836l-6.11718 3.45703"/><g clip-path="url(#ae)"><path fill="none" stroke="#000" stroke-linecap="round" stroke-linejoin="round" stroke-miterlimit="10" stroke-width=".5" d="M466.6211 385.39453l2.0664 1.32031"/></g><g clip-path="url(#af)"><path fill="none" stroke="#000" stroke-linecap="round" stroke-linejoin="round" stroke-miterlimit="10" stroke-width=".5" d="M465.73047 385.89844l2.07031 1.32031"/></g><path fill="none" stroke="#000" stroke-linecap="round" stroke-linejoin="round" stroke-miterlimit="10" stroke-width=".5" d="M464.83984 386.40234l1.03516.66016"/><g clip-path="url(#ag)"><path fill="none" stroke="#000" stroke-linecap="round" stroke-linejoin="round" stroke-miterlimit="10" stroke-width=".5" d="M146.83984 375.875l-5.67968-4.13281"/></g><path fill="none" stroke="#000" stroke-linecap="round" stroke-linejoin="round" stroke-miterlimit="10" stroke-width=".5" d="M146.83984 375.875l-.33984 2.42969m14.26172-3.8086l-6.89063-1.375m6.89063 1.375l.70312 2.35157m12.6211-3.66407l-6.91406 1.25m6.91406-1.25l1.51953 1.9297m11.19531-3.35157l-5.71484 4.08984m5.71484-4.08984L189 372.85547m10.8086-1.46485l-5.09766 4.83594m5.09765-4.83594l2.32813.78125m10.5-1.20703l-4.125 5.6875m4.125-5.6875l2.42969.33985m12.25 1.71875l-6.85157 1.57031m6.85157-1.57031l1.60547 1.85547m11.78515-1.35547l-7.0039.57031m5.98437-.48828l.66406 1.03515m13.5586.08985l-6.78125-1.84375m5.79687 1.57422l.26953 1.19531m13.64453-.02734l-6.01172-3.64063m6.01172 3.64063l-.1328 2.44921m13.30077-2.22265l-5.71094-4.09375m5.71094 4.09375l-.32812 2.4336m-.5039-3.03126l-.16407 1.21875m14.61719-1.13672l-6.32422-3.0625m6.32422 3.0625l.09375 2.45313m-1.01563-2.89844l.04688 1.22656m14.52343-2.65625l-6.99218.6836m6.99218-.6836l1.35938 2.04688m-2.375-1.94531l.67578 1.01953m13.60937-1.4414l-6.90234 1.32812m6.90234-1.32813l1.53907 1.91016m-2.54297-1.71485l.76953.95313m13.53906-1.20313l-6.8789 1.4375m6.8789-1.4375l1.57031 1.88282m11.76172-1.78907l-6.91406 1.25m6.91406-1.25l1.51953 1.92579m-2.52734-1.7422l.76172.96094m13.60547-.82421l-7.0039.60546m7.0039-.60546l1.33203 2.0625m-2.35156-1.97266l.66797 1.03125m13.57421-1.66016l-6.8203 1.6836m6.8203-1.6836l1.64063 1.82813m-2.63281-1.58203l.82031.91406m13.34375-1.60547l-6.53516 2.57813m6.53516-2.57813l1.86719 1.58985m-2.8164-1.21485l.93358.79688m13.34766-1.13282l-6.5664 2.5m6.5664-2.5l1.84766 1.6172m-2.80078-1.25392l.92187.8086m13.11719-1.66016l-6.10938 3.47656m6.10938-3.47656l2.07422 1.3125m-2.96485-.80469l1.03907.65625m13.30859-.88671l-6.39063 2.92187m6.39063-2.92187l1.94922 1.49218m-2.8789-1.0664l.97265.7461m12.94531-1.73829l-5.73828 4.05469m5.73828-4.05469l2.1914 1.10547m-3.02734-.51563l1.09766.5547m13.17187-.96485l-5.97656 3.69531m5.97656-3.69531l2.1211 1.23828m-2.98828-.69922l1.0586.61719m12.89062-1.49219l-5.50782 4.36719"/><g clip-path="url(#ah)"><path fill="none" stroke="#000" stroke-linecap="round" stroke-linejoin="round" stroke-miterlimit="10" stroke-width=".5" d="M466.3164 371.625l2.2461.98438"/></g><path fill="none" stroke="#000" stroke-linecap="round" stroke-linejoin="round" stroke-miterlimit="10" stroke-width=".5" d="M465.51563 372.26172l1.12109.49219"/><g clip-path="url(#ai)"><path fill="none" stroke="#000" stroke-linecap="round" stroke-linejoin="round" stroke-miterlimit="10" stroke-width=".5" d="M146.44922 363.01172l-4.89844-5.03906"/></g><path fill="none" stroke="#000" stroke-linecap="round" stroke-linejoin="round" stroke-miterlimit="10" stroke-width=".5" d="M145.73438 362.28125l-.375 1.16797m14.72656-.79688l-5.54297-4.3203m4.73828 3.6914l-.21094 1.21094m14.91797-1.70704l-6.71484-2.0664m6.71484 2.0664l.46484 2.41016m12.87891-4.375l-6.77344 1.85938m6.77344-1.85938l1.6875 1.78516m11.51953-2.11329l-6.5586 2.51954m6.5586-2.51954l1.85156 1.60938m10.14844-3.26172l-3.92969 5.82422m3.9297-5.82422l2.4414.2539m12.05078 1.08594l-6.28516 3.14063m6.28516-3.14063l2 1.42188m11.27344-1.5039l-6.19922 3.30859m6.19922-3.3086l2.03515 1.3672m-2.9375-.88673l1.01953.6836m9.29688 3.91015l1.60156-6.83984m15.58203 1.70703l-6.1328 3.42578m6.1328-3.42578l2.0625 1.32813M279.5 363.10546l-4.69531-5.22656m4.69531 5.22656l-.84375 2.30469m.16016-3.0625l-.42188 1.15234m14.88281-.90234l-5.625-4.21094m5.625 4.21094l-.375 2.42578m-.4414-3.03906l-.375 2.42578m15.03515-2.82422l-6.67968-2.1836m6.67968 2.1836L307.54297 364m-1.39453-2.73438l.21094 1.21094m14.14062-1.1211l-6.8086-1.72655m6.8086 1.72656l.58594 2.38281m-1.57422-2.63281l.29297 1.1914m14.10937-1.51171l-7.0039-.58204m7.0039.58204l.96875 2.2539m-1.98828-2.33984l.48438 1.125m13.85937-1.42578l-7.02344.1914m7.02344-.1914l1.21094 2.13281m-2.23438-2.10547l.60547 1.0664m13.71485-1.36327l-6.98828.72656m6.98828-.72656l1.37109 2.03515m-2.38672-1.92969l.6836 1.01954m13.66015-.94532l-7.01562.3711m7.01562-.3711l1.26563 2.10157m-2.28516-2.04688l.63281 1.05078m13.5586-1.9414l-6.72657 2.04296m6.72657-2.04296l1.73047 1.73828m-2.71094-1.4414l1.73047 1.73827m12.41406-2.4375l-6.42578 2.84375m6.42578-2.84375l1.92969 1.51563m-2.86328-1.10156L401.1953 361m12.39063-1.7539l-6.57031 2.49218m6.5703-2.49219l1.84766 1.6172m-2.80468-1.25392l.92578.8086m13.0664-1.75l-6.0078 3.64844m6.0078-3.64844l2.10938 1.2539m-2.98438-.72265l1.0547.6289m12.89843-1.5l-5.53516 4.33204m5.53516-4.33204l2.24219.9961m-3.04688-.36719l2.24219.9961m12.01172-1.44141l-5.80078 3.96484m5.80078-3.96484l2.17187 1.13672m-3.01562-.5625l2.17187 1.14062m11.98438-1.71875l-5.79688 3.97266"/><g clip-path="url(#aj)"><path fill="none" stroke="#000" stroke-linecap="round" stroke-linejoin="round" stroke-miterlimit="10" stroke-width=".5" d="M466.46094 358.50781l2.17187 1.13281"/></g><g clip-path="url(#ak)"><path fill="none" stroke="#000" stroke-linecap="round" stroke-linejoin="round" stroke-miterlimit="10" stroke-width=".5" d="M465.61719 359.08594l2.17578 1.13281"/></g><g clip-path="url(#al)"><path fill="none" stroke="#000" stroke-linecap="round" stroke-linejoin="round" stroke-miterlimit="10" stroke-width=".5" d="M146.3086 349.82813l-4.6172-5.29688"/></g><path fill="none" stroke="#000" stroke-linecap="round" stroke-linejoin="round" stroke-miterlimit="10" stroke-width=".5" d="M145.63672 349.05469l-.4375 1.14844m14.6289-.57032l-5.02734-4.91015m4.29688 4.1953l-.34375 1.17579m13.40625.2461l-3.0586-6.32423m2.61328 5.40625l-.72265.98829m16.03906-1.55079l-6.17188-3.36328m6.17188 3.36329l-.02734 2.45312m13.76953-4.03516l-7.02344-.19921m7.02344.19921l1.08984 2.19922m12.21875-2.52344l-7.01172.44922m5.99219-.3828l.64453 1.04296m13.69531-1.00781l-7.02343.2461m6-.21095l.61328 1.0625m13.6289-1.80078l-6.83203 1.65235m6.83203-1.65235l1.62891 1.83594m11.71484-1.69922l-6.89062 1.3789m6.89062-1.3789l1.5547 1.89844m-2.5547-1.69922l.77735.94922m12.5664 2.03515l-4.9453-4.98828m19.28515 2.82422l-6.9961-.66015m6.9961.66015l.9414 2.26563m11.8711-.76172l-5.99219-3.66797m5.99219 3.66797l-.14844 2.44922m-.72266-2.98438l-.07422 1.22656m14.39844-.93359l-6.26562-3.17969m6.26562 3.1797l.04688 2.45312m13.42578-2.8125l-6.58203-2.46485m6.58203 2.46485l.32031 2.43359m-1.27734-2.79297l.16015 1.21875m14.32813-1.86719l-7.01172-.44921m7.01172.44921l1.01172 2.23438m-2.03125-2.30078l.5039 1.11719m13.77735-1.91016l-6.91016 1.27344m6.91016-1.27344l1.52734 1.92187m11.57813-2.63671l-6.48829 2.70312m6.48829-2.70313l1.89453 1.5547m11.6289-.85548l-6.90625 1.30079m6.90625-1.30079l1.53516 1.91797m-2.53906-1.72656l.76562.95703m13.53516-1.24219l-6.86719 1.48829m6.86719-1.48829l1.58594 1.875m-2.58594-1.66015l.79297.9375m13.14843-2.13281l-6.12109 3.44921m6.1211-3.44921l2.0664 1.32421m-2.95703-.8203l1.03516.66015m13.0078-1.42578l-5.79296 3.97656m5.79297-3.97656l2.17578 1.1328m-3.01953-.55468l2.17578 1.13281m11.7539-2.0078l-5.33984 4.5664m5.33985-4.5664l2.28515.89843m-3.0625-.23438l2.28516.89844m11.69531-1.6914l-5.11328 4.82421m5.11328-4.82421l2.32422.78515m-3.07031-.08203l2.32422.78516m12.45703-.33985l-6.55469 2.52735m6.55469-2.52735l1.85547 1.60547m-2.8086-1.23828l1.85547 1.60547m12.38672-2.04688l-6.5 2.67579"/><g clip-path="url(#am)"><path fill="none" stroke="#000" stroke-linecap="round" stroke-linejoin="round" stroke-miterlimit="10" stroke-width=".5" d="M466.8125 345.83984l1.88672 1.56641"/></g><g clip-path="url(#an)"><path fill="none" stroke="#000" stroke-linecap="round" stroke-linejoin="round" stroke-miterlimit="10" stroke-width=".5" d="M465.86719 346.23047l1.88672 1.5664"/></g><g clip-path="url(#ao)"><path fill="none" stroke="#000" stroke-linecap="round" stroke-linejoin="round" stroke-miterlimit="10" stroke-width=".5" d="M147.47656 334.3711l-6.95312-1.01563"/></g><path fill="none" stroke="#000" stroke-linecap="round" stroke-linejoin="round" stroke-miterlimit="10" stroke-width=".5" d="M146.46484 334.22266l.41407 1.15625m13.63672-.06641l-6.40235-2.89844m5.47266 2.47656l.07812 1.22266m13.76563-.125l-5.59766-4.25m19.46094 3.1836l-6.69922-2.1211m5.72656 1.8125l.22266 1.20703m13.61719.02735l-5.80078-3.96875m5.80078 3.96875l-.26953 2.4375m13.82421-2.84375l-6.27734-3.15625m6.27734 3.15625l.0586 2.45312m13.11719-2.20312l-6-3.65625m5.125 3.125l-.07032 1.22656m13.6211.07812l-4.72266-5.20312m4.03516 4.44531l-.41407 1.15625m15.1797-1.39453l-6.25-3.21484m6.25 3.21484l.03515 2.45703m12.94922-1.92969l-5.58594-4.26562m5.58594 4.26562l-.39844 2.42188m10.19922-1.11719l1.4414-6.875m-1.23046 5.875l-1.1797.33985m17.91407-.8086l-5.82031-3.9375m5.82031 3.9375l-.25781 2.4375m12.91797-1.71094l-4.50782-5.39062m4.50782 5.39062l-.92578 2.27344m14.48437-2.4961l-4.99219-4.9453m4.99219 4.9453l-.70703 2.35157m14.73828-3.40234l-6.42578-2.84375m6.42578 2.84375l.17578 2.44921m13.32813-3.0039l-6.8086-1.73438m6.8086 1.73438l.58203 2.38281m12.83984-3.4414l-7.01953.3828m5.9961-.32812l.63671 1.05078m12.97657-3.05859l-5.56641 4.28906m5.5664-4.28906l2.23438 1.01172m11.73047.38281l-6.86719 1.5m6.86719-1.5l1.58594 1.8711M400.5 333.9453l-7.02734-.16406m7.02734.16406l1.10156 2.1914m12.11328-3.10937l-6.82812 1.67188m6.82812-1.67188l1.63282 1.83204m10.8164-3.41407l-5.09375 4.83594m5.09375-4.83594l2.32813.77735m-3.07031-.07422l1.16406.38672m13.23437-.67188l-5.77734 4m5.77734-4l2.17969 1.125m-3.01953-.54297l2.17969 1.125m12.35937-.98437l-6.54687 2.55469m6.54687-2.5547l1.85938 1.59766m-2.8125-1.22656l1.86328 1.60156m12.3711-2.0625l-6.47657 2.73438"/><g clip-path="url(#ap)"><path fill="none" stroke="#000" stroke-linecap="round" stroke-linejoin="round" stroke-miterlimit="10" stroke-width=".5" d="M466.80078 332.4961l1.90235 1.55077"/></g><g clip-path="url(#aq)"><path fill="none" stroke="#000" stroke-linecap="round" stroke-linejoin="round" stroke-miterlimit="10" stroke-width=".5" d="M465.85547 332.89453l1.90625 1.54688"/></g><path fill="none" stroke="#000" stroke-linecap="round" stroke-linejoin="round" stroke-miterlimit="10" stroke-width=".5" d="M464.91406 333.29297l.95313.77344"/><g clip-path="url(#ar)"><path fill="none" stroke="#000" stroke-linecap="round" stroke-linejoin="round" stroke-miterlimit="10" stroke-width=".5" d="M147.51172 320.51953l-7.02344.0586"/></g><path fill="none" stroke="#000" stroke-linecap="round" stroke-linejoin="round" stroke-miterlimit="10" stroke-width=".5" d="M147.51172 320.51953l1.17187 2.15625m-2.1914-2.14844l.58594 1.07813m13.75-1.0586h-7.02735m7.02734 0l1.15235 2.16797m12.16016-2.3164l-7.01954.30078m5.9961-.25781l.625 1.05859m13.5.26563l-6.59375-2.4336m6.59375 2.4336l.32812 2.42968m13-2.46484l-6.61719-2.36719m5.65235 2.02344l.17969 1.21484m14.22656-1.3164l-6.8711-1.47657m5.8711 1.26172l.33594 1.17969m14-2.32422l-6.91407 1.2461m6.91407-1.2461l1.51953 1.92578m11.83594-1.6211l-6.9961.63673m5.98047-.54297l.67188 1.02344m13.66015-.46875l-6.9961-.66016m5.97657.5625l.47266 1.13281m12.51562 1.41016l-4.30469-5.55469m3.67579 4.75l-.50391 1.11719m13.57422.1836l-2.5586-6.54298m2.1875 5.58985l-.80078.9336m11.92578.01952l2.5625-6.54297m-2.5625 6.54297l-2.4375.28125m17.97266-.16797l-1.875-6.77343m1.875 6.77343l-1.78125 1.6875M317.7461 324l-1.30079-6.90625M317.7461 324l-1.91406 1.53516m15.11719-1.51563l-1.07813-6.94531m.92188 5.9336l-.98047.73827m15.77344-.21875l-3.71875-5.96093m3.17578 5.09375l-.61328 1.0625m14.35156-.1211l-3.48047-6.10547m15.03516-.46093l.03906 7.02734m16.78906-3.88672l-6.98828.7461m5.97266-.63672l.6875 1.01562m13.61328-1.35547l-6.92578 1.20313m5.91797-1.02735l.7539.96875m13.58594-1.03906l-6.95703.99219m5.9414-.84766l.72657.99219m12.42187-3.29688l-4.59375 5.31641m3.92578-4.54297l1.19532.26953m11.71875-1.67578l-2.45704 6.58203m2.45704-6.58203l2.43359-.32422m11.84766.8711l-4.39063 5.48828m4.39063-5.48828l2.41015.45312m11.39063.01953l-5.35938 4.54297"/><g clip-path="url(#as)"><path fill="none" stroke="#000" stroke-linecap="round" stroke-linejoin="round" stroke-miterlimit="10" stroke-width=".5" d="M466.24219 318.27734l2.28125.90625"/></g><path fill="none" stroke="#000" stroke-linecap="round" stroke-linejoin="round" stroke-miterlimit="10" stroke-width=".5" d="M465.46094 318.9375l2.28125.90625m-3.0586-.2461l1.13672.45313"/><g clip-path="url(#at)"><path fill="#00f" fill-rule="evenodd" d="M192.94922 480.96484h8.6211v-10.14843h-8.6211v10.14843"/></g><path fill="azure" fill-rule="evenodd" d="M194.78516 472.65234h.83203v2.82032h3.28515v-2.82032h.83594v6.47657h-.83594v-2.91407h-3.28515v2.91407h-.83203v-6.47657"/><path fill="#00f" fill-rule="evenodd" d="M388.23828 472.08594h8.61719V461.9414h-8.61719v10.14453"/><path fill="azure" fill-rule="evenodd" d="M390.07031 463.77344h.83594v2.82422h3.28516v-2.82422h.83203v6.48047h-.83203v-2.91797h-3.28516v2.91797h-.83594v-6.48047"/><path fill="#00f" fill-rule="evenodd" d="M383.80078 436.57813h8.61719v-10.14454h-8.61719v10.14454"/><path fill="azure" fill-rule="evenodd" d="M385.63281 428.26563h.83203v2.82421h3.28907v-2.82421h.83203v6.48046h-.83203v-2.91406h-3.28907v2.91406h-.83203v-6.48046"/><path fill="#00f" fill-rule="evenodd" d="M281.71875 432.14063h8.61719v-10.14454h-8.61719v10.14454"/><path fill="azure" fill-rule="evenodd" d="M283.55078 423.82813h.83203v2.82421h3.28906v-2.82421h.83204v6.48046h-.83204v-2.91796h-3.28906v2.91796h-.83203v-6.48046"/><path fill="#00f" fill-rule="evenodd" d="M228.45703 427.70313h8.6211v-10.14454h-8.6211v10.14454"/><path fill="azure" fill-rule="evenodd" d="M230.28906 419.39063h.83594v2.82421h3.28516v-2.82421h.83203v6.48046h-.83203v-2.91796H231.125v2.91796h-.83594v-6.48046"/><path fill="#ff3030" fill-rule="evenodd" d="M375.61719 418.82813h7.69531v-10.14844h-7.69531v10.14844"/><path fill="azure" fill-rule="evenodd" d="M377.44922 410.51172h.83594v5.74219h3.1914v.73828h-4.02734v-6.48047"/><path fill="#ff3030" fill-rule="evenodd" d="M260.21875 401.07422h7.69531v-10.14844h-7.69531v10.14844"/><path fill="azure" fill-rule="evenodd" d="M262.05469 392.76172h.83203V398.5h3.19531v.73828h-4.02734v-6.47656"/><path fill="#ffffe0" fill-rule="evenodd" d="M359.4961 395.09375h22.17968v-10.1914H359.4961v10.1914"/><path fill-rule="evenodd" d="M362.9961 386.73438h.51171v6.29296h-.78906v-4.48828h-1.38672v-.55469l.5586-.0664.25-.05469.23046-.08984.20313-.14063.17578-.20703.14063-.29687.10546-.39454m4.8125 0l.23047.01954.21875.05468.20703.08985.19922.1211.1836.14843.17187.17578.30078.42188.24219.49218.17969.54688.11328.57812.03906.58985-.03906.59375-.11328.58593-.17969.5547-.24219.5-.30078.42968-.17187.17969-.1836.15234-.19922.1211-.20703.09374-.21875.0586-.23047.01953-.22656-.01953-.21875-.0586-.21094-.09375-.1953-.12109-.1836-.15234-.17188-.1797-.30078-.42968-.24219-.5-.17968-.55469-.11329-.58593-.03906-.59375h.83594l.02734.5625.08204.5078.125.44142.16406.375.1914.30078.21094.22265.22266.13672.22265.04688.22657-.04688.22265-.13672.21094-.22265.1914-.30079.16407-.375.125-.4414.08203-.50781.02734-.5625-.02734-.5586-.08203-.5-.125-.4375-.16406-.36719-.19141-.28906-.21094-.21484-.22265-.13281-.22657-.04297-.22265.04297-.22266.1328-.21094.21485-.1914.28906-.16406.3672-.125.4375-.08204.5-.02734.55859h-.83594l.03906-.58985.11329-.57812.17968-.54688.2422-.49219.30077-.42187.17188-.17578.1836-.14844.1953-.1211.21094-.08984.21875-.05468.22656-.01954m5.09375 0h.50782v6.29297h-.78516v-4.48828h-1.39063v-.55469l.5625-.0664.25-.05469.23047-.08984.20313-.14063.17578-.20703.14063-.29687.10546-.39454m2.82422 2.17579h.78516l.01953-.31641.0586-.28516.10156-.2539.14062-.21485.17969-.17578.22265-.1289.26563-.07813.3086-.02734.23827.01953.22266.0625.20313.10156.17968.14063.14844.17187.11328.20703.07422.23438.02344.26562-.02344.26953-.0625.22266-.11328.1914-.15234.17188-.20313.16406-.2461.16407-.6328.39062-.53907.3125-.4375.3164-.34765.32423-.26172.33593-.1914.35157-.125.36718-.06642.39454-.02343.41796h4.21094v-.73828h-3.33204l.08594-.28515.11328-.23829.14844-.19921.1875-.1797.23047-.17187.27734-.17578.71875-.41797.41406-.20312.34375-.23047.28125-.2539.21875-.26563.16407-.27735.11328-.28515.0625-.28516.01953-.28125-.03906-.38281-.1211-.34766-.1914-.30859-.25-.26172-.30078-.21484-.34766-.15625-.3789-.09766-.40626-.03515-.43359.03125-.39844.10156-.35547.16406-.30468.23438-.25.30468-.1836.375-.11719.44531-.03906.51954"/><path fill="#ffffe0" fill-rule="evenodd" d="M230.78516 345.40234h22.17968v-10.1914h-22.17968v10.1914"/><path fill-rule="evenodd" d="M234.28516 337.04297h.5078v6.29297h-.78515v-4.48828h-1.39062v-.5547l.5625-.0664.25-.05078.23047-.08984.20312-.14453.17188-.20704.14453-.29687.10547-.39453m4.8125 0l.23047.01953.21875.05469.20703.08984.1953.1211.1875.14843.16798.17578.30469.42188.24218.49219.17969.54687.11328.57813.03516.58984-.03516.59375-.11328.58594-.17969.55469-.24219.5-.30468.42968-.16797.17969-.1875.15234-.19531.125-.20703.08985-.21875.0586-.23047.01952-.23047-.01953-.21875-.0586-.20703-.08984-.19532-.125-.18359-.15234-.17188-.17969-.30078-.42969-.24609-.5-.17969-.55468-.10937-.58594-.03906-.59375h.83203l.03125.5664.08203.50391.125.4414.16015.375.19141.30079.21094.22266.22265.13671.22657.04688.22656-.04688.22266-.13671.21093-.22266.1914-.30078.16017-.375.1289-.4414.08203-.50391.02735-.56641-.02735-.5586-.08203-.5-.1289-.4375-.16016-.36327-.1914-.29297-.21095-.21485-.22265-.13281-.22656-.04297-.22657.04297-.22265.13281-.21094.21485-.1914.29296-.16016.36329-.125.4375-.08203.5-.03125.55859h-.83203l.03906-.58984.10937-.57813.17969-.54687.2461-.4922.30077-.42187.17188-.17578.1836-.14844.1953-.12109.20704-.08984.21875-.05469.23047-.01953m5.09375 0h.5078v6.29297h-.78905v-4.48828h-1.38672v-.5547l.5586-.0664.2539-.05078.23047-.08984.20312-.14453.17188-.20704.14062-.29687.10938-.39453m2.8203 2.17578h.78907l.01953-.3164.0586-.28516.09765-.2539.14063-.21485.1836-.17578.22265-.12891.26562-.07813.3086-.02734.23437.01953.22656.0625.20313.10156.17969.14063.14843.17188.11328.20703.07032.23437.02734.26563-.02344.26953-.0664.22265-.10938.19141-.15625.17188-.19922.16406-.24609.16406-.63672.39063-.53516.3125-.4375.3164-.34765.32422-.26563.33594-.1875.35156-.125.3711-.0703.39062-.01954.41797h4.21094v-.73828h-3.33203l.08203-.28516.11328-.23438.14844-.20312.1875-.17969.23047-.17187.28125-.17578.71484-.41797.41406-.20313.34766-.23047.28125-.2539.21875-.26563.16406-.27734.10938-.28516.0664-.28515.01953-.28125-.04297-.38282-.12109-.34765-.1875-.3086-.25-.26171-.30469-.21485-.34375-.15625-.3789-.09765-.40625-.03516-.4375.03125-.39844.10156-.35547.16406-.30469.23438-.2461.30469-.1875.375-.11327.4453-.04297.51954"/><path fill="#ffffe0" fill-rule="evenodd" d="M147.21484 419.0586h22.1797v-10.19141h-22.1797v10.1914"/><path fill-rule="evenodd" d="M150.71484 410.69922h.50782v6.29297h-.78516v-4.48828h-1.39063v-.5547l.5586-.0664.2539-.05469.23047-.08984.20313-.14062.17187-.21094.14453-.29297.10547-.39453m4.8125 0l.23047.01953.21875.05469.20703.08984.19532.1211.18359.14843.17188.17578.30468.41797.24219.4961.17969.54687.10937.57813.03906.58984-.03906.59375-.10937.58594-.17969.55469-.24219.5-.30469.42968-.17187.17969-.1836.15234-.1953.1211-.20704.09375-.21875.0586-.23047.01952-.23047-.01953-.21875-.0586-.20703-.09374-.1953-.1211-.1836-.15234-.17188-.17969-.30469-.42969-.24218-.5-.17969-.55468-.10938-.58594-.03906-.59375h.83203l.02735.5625.08203.50781.1289.4414.16016.375.1914.30079.21095.22266.22265.13671.22656.04688.22657-.04688.22265-.13671.21094-.22266.1914-.30078.16016-.375.1289-.4414.07813-.50782.03125-.5625-.03125-.5586-.07812-.5039-.1289-.4336-.16016-.36718-.19141-.28906-.21094-.21485-.22265-.13281-.22657-.04297-.22656.04297-.22266.13281-.21093.21485-.1914.28906-.16017.36719-.1289.43359-.08203.5039-.02735.5586h-.83203l.03906-.58984.10938-.57813.17969-.54687.24219-.4961.30468-.41797.17188-.17578.1836-.14844.1953-.12109.20703-.08984.21875-.05469.23047-.01953m5.08985 0h.51172v6.29297h-.78907v-4.48828h-1.38672v-.5547l.5586-.0664.2539-.05469.22657-.08984.20703-.14062.17187-.21094.14063-.29297.10547-.39453m2.82422 2.17578h.78906l.01953-.3164.0586-.28516.09765-.2539.14063-.21485.17968-.17578.22656-.12891.26563-.07813.30469-.02734.23828.01953.22656.0625.20313.10156.17968.14063.14844.17188.11328.20703.07031.23437.02344.26563-.01953.26562-.0664.22656-.10938.19141-.15625.17188-.19922.16015-.2461.16797-.63671.39063-.53516.3125-.4375.3164-.34765.32422-.26563.33594-.1875.35156-.125.36719-.07031.39453-.01953.41797h4.21094v-.73828h-3.33204l.08203-.28516.11329-.23828.14843-.19922.1875-.17969.23047-.17187.27735-.17578.71875-.41797.41406-.20313.34766-.23047.28125-.2539.21875-.26563.16406-.27734.10937-.28516.0664-.28515.01954-.28125-.04297-.38282-.1211-.34765-.1875-.3086-.25-.26171-.30468-.21485-.34375-.15625-.38281-.09765-.40625-.03516-.4336.03125-.39843.10156-.35547.16406-.30469.23438-.2461.30469-.1875.375-.11718.4453-.03906.51954"/></g></defs><use xlink:href="#au"/></svg>