<svg xmlns="http://www.w3.org/2000/svg" role="img" xmlns:xlink="http://www.w3.org/1999/xlink" viewBox="142.45 309.95 326.84 171.84"><defs><clipPath id="a"><path d="M144 441h1v39.32813h-1zm0 0"/></clipPath><clipPath id="b"><path d="M144 311.67188h1V440h-1zm0 0"/></clipPath><clipPath id="c"><path d="M144 311.67188h324v168.65625H144zm0 0"/></clipPath><clipPath id="d"><path d="M352 478h7v2.32813h-7zm0 0"/></clipPath><clipPath id="e"><path d="M409 479h2v1.32813h-2zm0 0"/></clipPath><clipPath id="f"><path d="M467 311.67188h1v168.65625h-1zm0 0"/></clipPath><clipPath id="g"><path d="M144 479h4v1.32813h-4zm0 0"/></clipPath><clipPath id="h"><path d="M147 480h2v.32813h-2zm0 0"/></clipPath><clipPath id="i"><path d="M153 479h9v1.32813h-9zm0 0"/></clipPath><clipPath id="j"><path d="M160 480h2v.32813h-2zm0 0"/></clipPath><clipPath id="k"><path d="M166 479h9v1.32813h-9zm0 0"/></clipPath><clipPath id="l"><path d="M173 480h3v.32813h-3zm0 0"/></clipPath><clipPath id="m"><path d="M180 478h8v2.32813h-8zm0 0"/></clipPath><clipPath id="n"><path d="M193 478h8v2.32813h-8zm0 0"/></clipPath><clipPath id="o"><path d="M207 478h7v2.32813h-7zm0 0"/></clipPath><clipPath id="p"><path d="M220 479h8v1.32813h-8zm0 0"/></clipPath><clipPath id="q"><path d="M227 479h2v1.32813h-2zm0 0"/></clipPath><clipPath id="r"><path d="M233 479h8v1.32813h-8zm0 0"/></clipPath><clipPath id="s"><path d="M240 479h3v1.32813h-3zm0 0"/></clipPath><clipPath id="t"><path d="M239 479h2v1.32813h-2zm0 0"/></clipPath><clipPath id="u"><path d="M246 479h9v1.32813h-9zm0 0"/></clipPath><clipPath id="v"><path d="M253 480h3v.32813h-3zm0 0"/></clipPath><clipPath id="w"><path d="M260 478h8v2.32813h-8zm0 0"/></clipPath><clipPath id="x"><path d="M273 479h8v1.32813h-8zm0 0"/></clipPath><clipPath id="y"><path d="M279 480h2v.32813h-2zm0 0"/></clipPath><clipPath id="z"><path d="M286 479h9v1.32813h-9zm0 0"/></clipPath><clipPath id="A"><path d="M293 480h2v.32813h-2zm0 0"/></clipPath><clipPath id="B"><path d="M300 479h8v1.32813h-8zm0 0"/></clipPath><clipPath id="C"><path d="M305 480h2v.32813h-2zm0 0"/></clipPath><clipPath id="D"><path d="M313 479h8v1.32813h-8zm0 0"/></clipPath><clipPath id="E"><path d="M319 480h2v.32813h-2zm0 0"/></clipPath><clipPath id="F"><path d="M327 478h7v2.32813h-7zm0 0"/></clipPath><clipPath id="G"><path d="M343 476h2v4.32813h-2zm0 0"/></clipPath><clipPath id="H"><path d="M356 476h2v4.32813h-2zm0 0"/></clipPath><clipPath id="I"><path d="M368 476h5v4.32813h-5zm0 0"/></clipPath><clipPath id="J"><path d="M379 480h9v.32813h-9zm0 0"/></clipPath><clipPath id="K"><path d="M393 479h8v1.32813h-8zm0 0"/></clipPath><clipPath id="L"><path d="M407 477h7v3.32813h-7zm0 0"/></clipPath><clipPath id="M"><path d="M420 478h8v2.32813h-8zm0 0"/></clipPath><clipPath id="N"><path d="M433 478h8v2.32813h-8zm0 0"/></clipPath><clipPath id="O"><path d="M446 478h8v2.32813h-8zm0 0"/></clipPath><clipPath id="P"><path d="M461 476h5v4.32813h-5zm0 0"/></clipPath><clipPath id="Q"><path d="M144 465h4v4h-4zm0 0"/></clipPath><clipPath id="R"><path d="M144 452h4v4h-4zm0 0"/></clipPath><clipPath id="S"><path d="M144 438h4v5h-4zm0 0"/></clipPath><clipPath id="T"><path d="M465 437h3v3h-3zm0 0"/></clipPath><clipPath id="U"><path d="M144 426h4v2h-4zm0 0"/></clipPath><clipPath id="V"><path d="M466 425h2v2h-2zm0 0"/></clipPath><clipPath id="W"><path d="M144 413h4v2h-4zm0 0"/></clipPath><clipPath id="X"><path d="M466 411h2v2h-2zm0 0"/></clipPath><clipPath id="Y"><path d="M144 399h4v2h-4zm0 0"/></clipPath><clipPath id="Z"><path d="M466 398h2v3h-2zm0 0"/></clipPath><clipPath id="aa"><path d="M144 386h4v3h-4zm0 0"/></clipPath><clipPath id="ab"><path d="M465 384h3v2h-3zm0 0"/></clipPath><clipPath id="ac"><path d="M144 372h4v3h-4zm0 0"/></clipPath><clipPath id="ad"><path d="M144 358h4v5h-4zm0 0"/></clipPath><clipPath id="ae"><path d="M465 357h3v2h-3zm0 0"/></clipPath><clipPath id="af"><path d="M144 346h4v2h-4zm0 0"/></clipPath><clipPath id="ag"><path d="M466 344h2v3h-2zm0 0"/></clipPath><clipPath id="ah"><path d="M144 332h4v4h-4zm0 0"/></clipPath><clipPath id="ai"><path d="M466 332h2v3h-2zm0 0"/></clipPath><clipPath id="aj"><path d="M465 332h3v3h-3zm0 0"/></clipPath><clipPath id="ak"><path d="M144 318h4v5h-4zm0 0"/></clipPath><clipPath id="al"><path d="M465 317h3v3h-3zm0 0"/></clipPath><g id="am" clip-path="url(#clip1)"><path fill="#fff" fill-opacity="0" fill-rule="evenodd" d="M0 0h1000v1000H0zm0 0"/><path fill="#d3d3d3" fill-opacity="0" fill-rule="evenodd" d="M162.15234 355.86719l-.23437.29297.0586.23437.11718.17188.17578.23437.29297.34766.11328.0586.11719-.17188.0586-.23438.17577-.17578.46485-.17578h.69922l.23437.29297.28906.8164.0586.17579.17578.23046.35156.23438.69922.69922.17188.17578.23437.34765.23438.41016.28906.58203.41015.46485.23047.23437.23438.17578.11719.23047.17578.29297.17187 1.16406v.23438l.0586.28906.05859.11719.11719.11719.34765.41015.11719.17188.17578.17578.17578.23437.11719.17188.17188.35156.05859.23438.23437.40625.23438-.0586-.17578.17578-.0586.92969h-.58203l-.23437-.11328-.34766.11328-.11719.11719-.05859.29297-.0586.17578-.11718.17187-.46484.29297-.0586.23438-.0586.11328v.64453l.0586.17187v.41016l.0586.0586v.40624l.05859.40625.11719.17579.05859.05859.23047.64062-.0586.29297v.69922l-.05859.58203v.23438l-.0586.23047-.05468.35156v1.92187l.05469.1172h.42578l-.36719.11718-.02344.35156.89063 1.16797 1.74219.53906 1.33984.35938v.53906l.08984.8086.53516.71484 1.51953.26953.89063-.08594.08984 1.16406.53516.1797 1.16015-.1797 2.05469-.98437 1.16016-.36328 1.8789-.17578 1.69531-.1797-.17968.71876-1.51563.08594-1.25.08984-.80469.26953-1.07421.8086.26953.71875.53515.89843-.17968.625-.26563.8086.26563 1.07812.625.89844.80468.17969 1.25-.1797-.26562.72267.09766.5039.05468.29297v.17188l.0586.29296v.40625l.17578.1172.35156.11718h.40625l.29297-.17578.11328-.11719.0586-.11719.11718-.23047.0586-.17578.35156-.46484.23047-.17578.17578-.0586.17578.0586.0586.17578.11718.98828.05469.46875.0586.17188.11718.23437.17578.0586.8164.05859h.28907l.11719.23437.05859.40625.0586.35156v1.10547l.11718.29297.11719.34766.28906.69922.17578.35156.58203.7539.35157.17579.17187.0586.46875.23437.64063.46484.34765.23438.29297.17578.29297.05468.23047.0625.8164.34766.29297.17578.11328.17188.35157.35156.11719.17578.52343.64063v.28906l.0586.35156v.34766l.05859.35156.0586.28906.11718.0586.17188.05859h.17578l.58203.23437.17578.1172.17578.28905.17578.23438.11328.23437.29297.23047.11719.11719v.41016l.0586.05468.28906.23438.23437.11719.0586.11718.11718.17188.0586.11719.23047.23437.05859.17578.23437.0586.1172.05859-.1172.11328-.05859.11719v.11719l-.11719.29296-.11719.28907v.58203l.17579.11719.11718.05859.0586.11719.11719.11719.11328.05859.17578.34765.0586.35157.05858.40625v.17578l-.05859.17578-.11719.69922v.17187l.1172.17579.29296.29296h.40625l.17578.1172.11719.17187.11719.29296v.23438h-.52735l-.23047-.23438h-.23437l-.17578.0586-.0586.69922.0586.34765.11719.17579.17578.41015.11718.23047.28907.46875.17578.05469h.52344l.23437.0586.75781.64062.0586.29296v.23438l.05859.0586.23047.34765v.35156l-.11719.17188v.29297l.29297.28906.29297.17578.17187.0586.29297.17577.29297.1172.58203.40624.28906.23438.29297.17578.21875.16015.01563.01172.23047.17579.64062.52343.17578.23438.1172.17578.17577.17578.11328.17188v.64062l.1172.17578.46874.11719.58203.11719.23438.05859.23047.11328.29297.11719.11328.0586.58593.35156.28907.17187.17578.0625.17578.05469.17578.0586.69922.35155.28906.17579.23438.05468.28906.17578.23437.1172.64063.40624.29297.11719.17187.0586.23438.05859.41015.05859.23047.0586.23438.11718.0586.17188-.41017.17578.46875.0586.0586.29296.11328.23438.17578.05468.23438.0586.17578.05859.40625.11719.64062.23437.11719.17188.0586.23437v.17578l-.0586.1172-.0586.40624.23438.23438.11719.05859.34766.11719.64062.23047.17578.11718.28906.1172.17578.17577.23438.46485.58203 1.10546.17578.17579.34766.17578.17578.11719.35156.11718 1.04688.52344.23437.0586.46485.11327.29297.0586.46484.17578.75781.58203.23438.23438.34765.46484.17578.17578.28907.23438.8164.69921.29297.17579.28906.28906.29297.17578.29297.28906.69531.64063.17578.17578.29297.23437.28907.23438.46875.28906.64062.58203.34766.23438.23437.29297.34766.34765.35156.46485.9336.99218.34765.40625.11719.17579.23437.05859.11328.11719.64454.17578.23047.11328.23437.0586.29297.17577.23047.1172.9336.69921.40624.40625.23438.17578.40625.17578.23437.11719.8164.34766.34766.23437.23438.11719.29297.28906.23047.11719.7578.35156.35157.17188.23047.05859.29297.11719.23437.0586.8711.17577h.8164l.46875.23047.17188.0586.875.69921.46484.1172.29297.05858.17578.0586.23047.0586.46875.05859.34766.05859.35156.0586.40625.05859h.29297l.17187.0586v.23046l.17578.17578h.29297l.34766.0586.35156.05859.69922.11719h.64063l.46484-.23438.29297-.17578.17187-.11719.41016-.17187.28906-.17578.9336-.46485.46875-.29297.52343-.29296.46485-.17188.46484-.17578 1.05078-.46485.28906-.11718.41016-.11719.28906-.11719.52735-.17578 1.51562-.69922.58203-.34765.28907-.0586.29297-.0586.34765-.11718.875-.23047.35156-.11719h.11329l.23437-.05859.875-.23437.23438-.0586h.8125l.35156-.0586.8164-.11718.17188-.0586.35156-.05468.29297-.0586.23047-.05859.8164-.17578.17579-.0586h.34765l.23438-.05859.46484-.11718.75781-.17188.23438-.0586h.34765l.41016-.11718.28906-.0586 1.28516-.05859h.28906l.41016-.0586.23047-.05858h.17578l.875-.1172h.40625l.41015-.11718h.34766l.35156-.11328.8711-.0586h1.75l1.04687.28907.41016.11719.28906.11718.35156.11719.28907.11719 1.05078.17187.28906.0586h.29297l.29297.05859.17187.0586.41016.05859.17187.0586.1172.05858h.11718l.11719.0586.35156.0586h.11328l.41016.0664 1.92187.39453 1.92578.39453 1.51953.44922 1.69532.71875 2.14453.80469 1.60547-.71875 1.42968-.80469 1.16016-1.07813 1.25-.44921 3.03516-.71875 1.875-.35938 2.14453-1.34765 2.23437-1.25391 2.5-1.25781 1.69531-.44922 1.78516-.17969 1.16016-.26953.625.53906 1.33984-.26953.71485-.98828.98437-1.34375.44531-.17969.80469-.35937 1.875-.53907 1.78516-.44921 1.25-.26954 1.16015-.08984 1.69922-.08984 1.96094-.26954 1.25-.08984h.53906l.625-.08984h.89063l2.14453-.17969 2.41015-.17969 2.58985-.08984 1.69531.17969 1.60938.08984 1.42968.35938 1.16016.71875 1.875.98828 1.16015 1.52734.26563.71484.6289.08985.35548.89844.53515.53906.53516 1.52734 1.07422.35938h.53515l-.80469.53515.08985 1.70703.71484 2.69532.89063.80468.89453.98829.71484 1.2578 1.78516.53907 1.51953-.17969.35547 1.34375 1.60937-.80469.98047-.53906.26953.26953.31641-.21484.21875-.14453.80078.44922.44922-.35938h.35547l.53515-.26953.53907-.71875.53515-.26953.625-.98828 1.16016.44922.83984.3711 1.39454.61718 1.6953-.17969h1.60548l1.78515.08985.17969-1.70704.53516-1.34375.80468.26954.4922.84765.40233.40625-.08984.53906v.35938l.71485.44922.71093-.26953h1.42969l.35938.98828.4453 1.25781.71485 1.34375 1.25.6289 1.69531.62891.71485-.17969.17969-.53906.98046-.08984.44922.35937.08594 1.25782-.26563.6289-.53515.17969v.53906l.71484.98438.26563.53906.98437.98828.80078 1.07813-.26562.35937-.08985.89844-.625 2.33203-.35546 2.0664-.08985 1.79298-.17969.71875-.08984.53906v1.4375l-.98047 1.88281-.35937 1.70703-.53516.89844-.80469 1.16797-.26562.53906 2.05469 1.2539.08593.35938-.35546.53906-.08985-.17968v.80859l.08985 1.4375-.44532.71484-1.07422.09375-.26562.71485.53515.89844.8047.71875 1.16015.80859 1.33984.26953.44531.35938-.35546.44921-1.78907-.08984-1.25-.44922-.71484-.71875-.625-.08984-.17578 3.58984-.1875 1.3086h89.35937V311.70313h-55.26953v49.08203l.76172.125 3.28906.54296 2.02344 2.83594v2.7539l2.35156.33204 2.34766.33203h4.05078l-1.3789 4.16016-2.02344.70703-2.02344.70312-.54297.34375-2.59375 1.6172-.1875.11718-2.02344-2.07813-.73046-2.74218-2.67188-2.07813-1.375-3.5-.0664-.08203-1.95704-2.67188 2.75-1.41796v-49.08204H294.42187v91.41407l.1172.03125.1328.01172.07422.07421.10547.04688.08985.0586.08593.05859.08985.0586.29687.29687.0586.08984.03125.11719.02734.11719.01563.13671-.03125.1172-.0586.08983-.0586.08594-.04296.10547-.04688.10156-.02734.1211v.14453l.17578.26953.14844.14844.07422.08594.07422.07421.04296.10547.0625.08985.0586.08593.04297.10547.0586.08985.04687.10156.04296.10547.0586.08594.11719.17968.07421.07422.0625.08594.0586.08984.04297.10547.0586.08985.05858.08593.0625.08985.0586.08984.04297.10156.11719.17969.07421.07422.0586.08594.07422.07421.08984.0586.10547.04687h.14844l.1328-.01562.13282.01562.10156-.04687.07422-.07422.04688-.10156-.01563-.13281v-.14844l-.04687-.10547-.02735-.11719-.04687-.10156-.02735-.1211-.04296-.10156-.0625-.08984-.04297-.10156-.04297-.10547-.03125-.11719-.01563-.13281-.01171-.13672.08593-.0586.0586-.08593.12109-.03125.04297.10547.01562.1328v.1172l.0586.10156.0586.08984.08983.0586.14844.14843.0586.08985.04296.10547-.01171.10156.08593.0586.10547.04687.08594.0586.08984.05858.07422.07422-.11719.02735-.10546.04687-.08594.0586-.07422.07421-.0586.08985-.0625.08594-.02734.12109-.04687.10156-.04297.10547-.03125.11719-.01172.13281-.01563.13281v.14844l.02735.11719.04687.10547.04297.10156.0586.08984.07421.07422.08985.0586.07422.07421.08984.0586.0586.08984.04296.10547.04688.10156.11719.03125.1328.01563h.14845l.11718-.03125.10547.04297.04297.10547.04688.10156.02734.1211L299.5 410l.02734.11719.03125.1211.02735.11718.10547.04297.10156.04687.13281-.01562.14844.14844.0625.08593.07422.07422.07031.07422.08984.0625.10547.04297.10156.04297.1172.03125.13671.01562.11719-.03125.07422-.07422.02734-.11718-.01172-.13282-.03125-.12109-.02734-.11719.04297-.10547h.11719l.08984.0625.11719.02735h.14843l.13282.01562h.14843l.13282.01563.1328-.01563h.14845l.1328-.01562.13282-.01172.13672.01172.11719-.02735.13281-.01562.1914-.0586-.05859.17579-.01562.1328-.02735.1211-.01562.13281-.0586.08594-.1328.01563-.10548.04687-.10546.04297-.1172.03125-.11718.02735-.26563.03125h-.14843l-.13281.01562-.07422.07422.05859.08594.14844.14843.11719.1797.07421.0703.08985.0625.08984.0586.08594.0586.08984.05858.10156.04297.10547.0625.10547.04297.08594.0586.10547.04687.10156.04297.17969.11719.0586.08984-.04298.10156-.04687.10547.01562.13281.22266.22266.0586.08985.04296.10156.03125.1211.04297.10155.01563.13282.03125.11718.01171.13672.03125.11719.14844.14844.10156.04297.10547.04296.1172.03125.1328.01563.13672.01563h.11719l.11719-.03125.08984-.0586.04297-.10547.04688-.10156.04296-.10547.03125-.11719.01172-.1328v-.14845l-.01172-.1328-.01562-.13282-.03125-.11719-.04297-.10547-.04688-.10547-.04296-.10156-.04297-.10547-.01563-.13281.01563-.13281.02734-.11719.03125-.11719.02735-.1211.04687-.10155.08984-.0586.08594-.0625.07422-.07422.08984-.05859.22266-.22266.0586-.08593.07421-.07422.11719-.17969.0586-.08594v-.14844l-.07423-.07421-.10156-.04688-.10547-.04297-.10156-.04297-.0586-.08984-.04687-.10547-.02734-.11719.08984-.05859.11719-.03125.10156-.04297.17969-.11719.14844-.14843.01172-.13282-.01172-.10546-.08985-.0586-.1328.01563h-.14845l-.1328.01562-.13282-.01562-.1211-.03125-.08593-.0586-.07422-.07422-.0586-.08984-.0625-.08594-.11718-.17969-.0586-.08593.03125-.1211.08594-.05859.1211-.03125.05859-.08594v-.1211l-.03125-.11718-.0586-.08984-.05859-.08594-.04687-.10547-.02735-.11719-.01562-.1328.0586-.08985.07421-.07422.08984-.0586.1172-.17968.07421-.07422.0586-.08594.14843-.14844.1211-.03125.1328-.01562.13282.01562.07422.07422.04297.10547.01562.13281-.03125.1172-.11719.03124-.1328.01172-.14844.14844-.04297.10547-.04688.10156-.02734.1211-.03125.11718v.14844l.03125.11719.04297.10546.05859.08985.07422.07031.07422.07422.11719.03125.12109.02734.11719-.02734.1328-.01563h.1172l.08984.0586.07422.07422.04687.10546.0586.08594.10156.04688.13281.01562.10547.04297.08594.0586-.01172.10546-.07422.07422-.17969.11719-.05859.08984-.08984.0586-.07032.07422-.07421.07421-.0625.08985-.02735.11719-.01562.1328.01562.13282-.01562.13281v.14844l.01562.13281.02735.1172.03125.12108.07421.07422.08985.0586.08594.0586.08984.05858.11719.03125v.08594l-.10157.04688-.08984.0586-.26563.03124-.11718.02735h-.14844l-.10547.04296-.10156.04688-.0586.08984-.0625.23438-.01171.13281-.03125.1211-.01563.1328v.29298l-.01172.1328.01172.13673.01563.1328.1328.01563.13282.01172.1211.03125.08593.0586.07422.07421.04688.10547.04296.10157.01563.1328v.44532l-.01563.13281v.44532l.03125.26562.02735.11719.01562.13281.03125.11719.08594.21094.03125.26562v.14844l-.03125.11719-.02734.11718-.03125.1211-.02735.11719-.03125.11718-.03125.1211-.01171.1328-.01563.13282.08984.0586.1172-.03125.10155.01562.04688.10547-.03125.26562v.44141l-.04297.10547-.04688.10547-.04296.10156-.04297.10547-.0586.08594-.03125.12109-.04296.11719-.03125.11719-.01563.1328.01563.13282.05859.08984.10547.04688.08594.0586.05859.08593-.01172.13672-.03125.11719-.04297.10156v.44531l-.01562.13281v.14844l-.03125.11719-.04297.10547-.02735.11719-.04687.10546-.04297.10157-.03125.12109-.02734.11719-.03125.13281-.03125.11719-.02735.11719-.04297.10546-.03125.1172-.03125.12108-.01171.13282-.01563.13281v.29688l.02734.11718v.14844l.04688.39844.02734.11719.0586.08984.12109.03125h.14844l.13281-.01563.0586.08985v.11719l-.0586.08984-.08984.0586-.10157.04296-.10546.04688-.08985.05859-.08594.0586-.13671.01562-.1172-.03125-.1328-.01563-.10157.04688-.0625.08594-.01172.13671-.01562.13282-.03125.11719-.02735.11718-.01562.13281-.03125.1211v.29687l.01563.13282.03125.11718v.14844l.01171.13281v.14844l-.02734.11719-.04688.10156-.02734.1211-.03125.11718-.0586.08985-.07421.07421-.10156.04297-.10547.04688-.11719.02734-.1211.03125-.10156-.04687.0586-.08594.10547-.04688.02734-.11718.03125-.11719.02734-.1211.03125-.11718v-.14844l.01563-.13281-.03125-.11719-.04297-.10547-.10547.01563-.07422.07422-.10156.04296-.08984.0625-.07422.07422-.04297.10157-.01563.1328-.03125.1172L304.25 426l-.03125.11719-.02734.11719-.03125.12109-.02735.11719-.03125.11718-.04297.10547-.08984.0586h-.08984l-.1172-.03125-.03124-.08594.01562-.13672-.03125-.11719v-.14844l-.01171-.1328v-.14844l-.0625-.23438-.02735-.1211-.04297-.10156-.04687-.10546-.0586-.08594-.05859-.08985-.04297-.10546-.0625-.08594-.14844-.14844-.0703-.07422-.10548-.04687-.10547-.04297-.10156-.04297-.29687-.29688-.08985-.07421-.08594-.0586-.10546-.04297-.08985-.0625-.08594-.0586-.10546-.04296-.08985-.0586-.08594-.0625-.07421-.0703-.10547-.04688-.08594-.0586-.10547-.04296-.08984-.0625-.10156-.04297-.10547-.04297-.08594-.0586-.10547-.04687-.10547-.04297-.10156-.04687-.08985-.0586-.10156-.04297-.10547-.04296-.08984-.0625-.11719-.02735-.13281-.01562-.13281.01562H299.75l-.13281.01563-.11719-.03125-.08984-.0586-.07422-.07422-.08985-.05859-.10156-.04688h-.14844l-.12109-.02734-.10156-.04297-.07422-.07422-.11719-.17968-.08984-.0586-.10156-.04297-.08985-.0625-.10547-.04296-.08984-.0586-.08594-.0586-.10547-.04687-.0586-.08594-.05858-.08984-.04297-.10547-.04688-.10156-.07422-.07422-.08594-.0586-.07421-.07421-.08985-.0586-.22265-.22265-.04297-.10547-.03125-.26563.10547-.04296h.14453l.10547.04296.07421.07422.08985.0586.08594.0586.10546.04687.08985.05859.14844.14844.0703.07422.14845.14843.0625.08594.07421.07422.08594.0586.07422.07421.08985.0625.08984.0586.08594.05859.26953.17578.10156.04688.10547.04296.10156.04297.04688-.07421.05859-.08594.07422-.07422.07031-.07422.10547.04297.07422.07422.0586.08984.04296.10156.04688.10547.04296.10547.1211.02735.11719-.02735.07421-.08984.04297-.10547.0586-.08985.07422-.07421.10546-.04297.1172-.02735.1328.01172.08985.0586.14844.14843.05859.08985.04297.10547.04687.10156.04297.10547.04297.10156.10547.04688.10547.04296.13281.01563.08594-.0586.0586-.08984.07421-.07422.10547-.04297.11719.02735.10547.04687.10156.04297.10547.04297.10156.04688.17969.11718v.11719l-.01563.13281.01563.13281.01562.13672.0586.08594.10156.04688.1211.02734.11718.03125h.14844l.11719-.03125.05859-.08984.17969-.1172.05859-.08983.07422-.07422.0586-.08594.11718-.17969.17969-.11719.11719.03125.08984.0586.04297.07422-.01563.1328v.1172l.08985.05859h.14843l.13282-.01563.1328-.01171.26563-.03125.10547-.04297.11719-.03125.1211-.02735.07421-.07421.07031-.07422.0625-.08985-.01562-.10547-.04688-.10156-.10156-.04297-.10547-.01562-.11718.02734-.26563.03125h-.14844l-.07421-.07422-.08985-.0586-.11719-.03124-.11718-.02735-.13282-.01562h-.14843l-.13282.01563h-.29687l-.10547-.04688-.14844-.14844-.04297-.10156-.05859-.08984.22266-.22266.08593-.0586.10547-.04296.11719-.03125.13281-.01563.13281.01563.13672.01562.10157.04297.1328-.01172.08985-.0625.10156-.04297.0625-.08984-.04687-.10156-.08984-.0586-.1172-.03125-.10155-.04296-.0586-.08985-.0625-.08984v-.11719l.01563-.13281.10547-.04688.07421-.07031v-.1211l-.08984-.05859-.03125-.11719.08985-.05859.07421-.07422.04297-.10547.0586-.08984.04687-.10156.01563-.13281v-.14844l-.04688-.10547-.04297-.10156-.08984-.0586-.13281-.01562-.10157-.04297-.13671-.01563-.1172-.03125h-.4453l-.13282-.01562-.13281-.01172-.13281-.01563-.11719-.03125h-.14844l-.13281-.01562-.13281-.01172-.26563-.03125-.1211-.04297-.08593-.0586-.07422-.07421v-.14844l.01172-.13281.10547-.04688.10156-.04296.13281-.01563h.15235l.13281-.01562h.29297l.1211.03125.10156.04296.08984.0586.23438.0625.12109-.04688.08984-.05859.10156-.04297.13282-.01562.10547.04296.10156.04688.13281.01172.1211-.02735h.14453l.12109-.03125.11719-.02734.10547-.04687.07421-.07422.08594-.0586.14844-.14843.0586-.08594.04687-.10547.02734-.11719.01563-.10547-.10156-.04296-.08985-.0586-.11719-.03125-.10546-.04297-.08985-.0625-.07422-.08594-.07422-.07421-.10156-.04297-.10547-.04688-.10156-.04297-.0586-.08984-.04687-.10156-.08594-.21094-.0625-.08594-.05859-.08984-.07422-.07422-.08594-.0586h-.26953l-.11719.03126-.08984.05859-.10156.04297-.13281.01562-.10547-.01562-.02735-.11719-.0625-.08984-.11718-.03125-.10157-.04297-.14843-.14844-.03125-.11719-.01563-.10546.07422-.07422.17969-.1172.11719-.02733.11718-.03125.13672.01562.10156.04297.10547.04297.10156.04687.10547.04297.1172.03125.1328.01563.1172.02734.1328.01563.10547-.01563.08985-.0586-.07422-.07421-.10547-.04297-.07422-.07422-.07422-.08984-.14844-.14844-.08593-.0586-.08985-.05859-.07422-.07422-.08984-.0586-.10156-.04687-.1211-.02734-.10156-.04688-.10547-.04296-.11719-.03125-.10156-.04297-.1211-.03125h-.14843l-.11719.03125-.10546.04297-.08594.0625-.17969.11718-.08594.0586-.08984.0586-.10547.04687-.08594.05859-.10547.04297-.10156.04297-.10547.04687-.07422.07422-.05859.08985-.0586.08593-.04687.10547-.0586.08594-.07421.07422-.13281-.01172-.1172-.03125h-.11718l-.07422.07422-.08984.0586-.07422.07421-.08984.0586-.08594.05859-.10547.04687-.10156.04297-.13672.01563-.10156-.04297-.14844-.14844-.10547-.04688h-.08594l-.10547.04688-.10156.04297-.1211.03125-.11718-.03125-.07422-.07422v-.11719l.03125-.1211.07422-.0703.0586-.08985.07421-.07422.11719-.03125.10547-.04296h.29297l.13281-.01563.13672-.01563.10156-.04296.08985-.0586.10156-.04687.08984-.0586.13281-.01171.08985.05859.13281.01172.08984-.0586.08594-.05859.10547-.04297.08984-.0586.08594-.0625.08985-.05859.14843-.14843.0586-.08594.05859-.08985.10547-.04296.13281-.01563.11719.02735.1211.03125.05859-.0586.05859-.08984.03125-.26563.02734-.11719.10547.01172.13281.01563.10157-.04297.08984-.0586.0586-.08984.07421-.07422.0586-.08984.04687-.10156.01172-.13281-.01172-.13282-.04687-.10547-.14844-.14843-.0586-.08985-.05859-.08594-.04297-.10546v-.44532l.01563-.1328v-.14845l.01172-.1328-.0586-.0586-.08984.0586-.10156-.04298-.17969-.11719-.08594-.05859-.0625-.08984-.0586-.08985-.07421-.07421-.08594-.0586-.1211.03125-.10155.01172-.10547.04688-.08594.05859-.10547.04297-.14844.14844-.08984.05859-.08594.0586-.08984.0625-.10547.04296-.13281.01563v-.1211l.10547-.04297.11718-.03125.07422-.0703.04297-.10548v-.14844l-.02734-.11718-.14844-.14844-.13281-.01563h-.14844l-.11719.03125-.10547.04297-.10156.04297-.08984.0625-.11719.02735-.07422-.07422.01172-.13281-.04297-.10157-.04297-.10547-.08984-.05859-.11719.02734-.1211.03125-.11718.03125-.10156.04297-.1211.03125-.10156.04297-.10547.04297-.08984.0586-.10156.01562v-.11719l.01562-.13281-.0586-.08985-.07421.04297-.14844.14844-.0586.08985-.07421.07421-.04688.10547-.04296.10156-.07422.07422-.0586.08985-.07422.07422-.05859.08593-.07422.07422-.08984.0625-.07422.07031-.07422.07422-.10156.01563-.13281.01562-.10547-.04296v-.1211l.14843-.14844.04297-.10156.0586-.08984.04687-.10156.04297-.10547.0586-.08985.03124-.11719.04297-.10156.03125-.1211.02735-.11718.04687-.10547.04297-.10156.04297-.10547.07422-.07031.08984-.0625.08985-.0586.10156-.04296h.29687l.26563-.03125.10547-.04297-.07422-.07422-.11719-.03125-.10547-.04297-.08984-.0586-.10156-.04687-.08985-.0586-.10156-.04296-.10547-.04297-.08984-.0625-.08594-.0586-.10547-.04296-.10156-.04297-.1211-.03125-.11718-.03125-.10157-.04297L297.5 410.25l-.10156-.04297-.08985-.0586-.04296-.10546-.01563-.13281.10156-.04297.13281-.01563.13672.01563.13282-.01563.10156-.04297.0586-.08984.01562-.10547-.08985-.0586-.07421-.07421-.10157-.04297-.08984-.0586-.14844-.14843-.04297-.10547-.01562-.13281v-.29297l-.0586-.08985-.08984-.05859-.07422-.07422-.04297-.10547-.03125-.11718-.0586-.08985-.07421-.07422-.11719-.02734-.07422-.07422-.08984-.0586-.08984-.0625-.08594-.05859-.07422-.07421-.0586-.08594-.04687-.10547-.08594-.0586-.14843-.14843-.19532-.0586-.1328.01563-.10157.04297-.07422.07422-.04688.10156-.04296.10547-.0586.08984-.0586.08594-.29687.29687-.08984.0586h-.08594l-.0625-.08594-.04297-.10547.03125-.11719.0586-.08984.02734-.11719-.01172-.13281-.08984-.0625-.10547.04688-.11719.02734-.11719.03125-.26953.17578-.10156.04688-.11719.02734-.10546.04687-.08985.0586-.10156.04297-.0586-.08594-.04687-.10547.01563-.13281.04687-.10547.07031-.07422.07422-.07031.0586-.08985v-.14843l-.04297-.10547h-.23829l-.10156.04687-.03125.11719-.02734.11719-.03125.1211-.07422.04296-.13281.01563-.07422-.04688-.04297-.10156-.04297-.10547-.04687-.10156-.04297-.10547-.1211.03125-.10156.04297-.13281.01562-.11719.03125-.10547.04297-.08984.0586-.10156.04687-.1211.02734-.13281.01563-.10156-.04297-.0586-.08985-.04687-.10546-.04297-.10157-.04297-.10546v-.1172l.0586-.08984.08593-.05859.17969-.11719.10156-.04687.10547-.04297.10547-.0586.10156-.04296.08985-.0625.10156-.04297.10547-.0586.10156-.04687.08984-.0586.10547-.04296.10156-.04297.08985-.0625.10156-.04297.13672-.01563.11719.03125.10156.04297.1211.03125.10156.04297.10546.04688.10157.04296.10547.04297.10156.04688.10547.04297.10156.04297.10547.04687.08594.0586.10546.04296.1172.03125.10546.04297.10156.04688.08985.0586.10547.04296.10156.04297.10547.04687.11719.02735.10156.04687.1211.02735h.14843l.08594-.0586.01562-.10156.0586-.08984-.02735-.1172-.07422-.07421-.11719-.17969-.07421-.07422-.08985-.07421-.17969-.1172-.08593-.05859-.10547-.04296-.10156-.04688-.26954-.17578-.05859-.08985-.07422-.07421-.0586-.08985-.04296-.10156-.03125-.11719-.01563-.13672v-.5625l-.01171-.1328-.01563-.13282-.03125-.11719-.01562-.13281-.01172-.13281-.03125-.1211-.22266-.22265-.0586-.08594-.01562-.10547.03125-.11719.13281-.01562v-91.41406H172.9922v1.45312l-.0586.23438-.35156 1.05078-.17187.52343-.1172.34766-.17577.41016-.11719.17187-.23438.29297-.23046.0586h-.35157l-.11718.05859-.23047.40625v.29297l.11719.17578.23046.23047.1172.23437.64062.75781.29297.46485.17578.23437.23047.35156.23437.34766.64063.8164.17578.46485.17187.41016.11719.69531.17578.46875.11719 1.39844.0586.46484v.875l.11718 1.04688v4.78125l-.0586.46484-.35156 1.28125-.17578.52344-.11328.41015-.35156.9297L172.93359 336l-.23437.58203-.11719.17578-.17187.34766-.17578.40625-.35157.8164-.0586.29297-.11327.29297-.11719.28906-.0586.17579-.11718.875-.0586.40625-.05859.11718-.0586.17579-.05859.17187-.23047.52734-.11718.17188v.23437l-.11719.23438-.0586.17187-.17577.58594v.28906l-.0586.17579v.29296l-.0586.11329-.05859.52734v.17187l-.05468.23438v2.6211l-.17578.8164-.1172.17578-.17577.23438-.1172.17187-.11327.23438-.58594.93359-.23047.28906-.29297.46485-.17578.23437-.28906.35156-.35156.69922-.11328.23047-.17579.41016-.17578.23046-.40625.52735-.8164.69922-.29297.17187-.28906.23438-.17579.11719-.17578.17578-.52344.40625-.52734.17578-.17187.17578-.23438.05469-.64062.17578h-.75782m12.21094 31.02344l-1.07422.44921.35938.89454 1.25-.71485.44531-.53906-.98047-.08985"/><path fill="#d3d3d3" fill-opacity="0" fill-rule="evenodd" d="M201.50781 416.59766h-.89453l.44922.6289.98047.35938.80469-.08985.4453-.98828-.17577.08985-.71485-.35547-.89453.35547m154.6211 59.0703l-.0586-.52343v-.29297l.11328-.29297.0586-.23046.46875-.46875h.11328l.11719-.11329.11718-.05859h.17579l.23437-.0586h.34766l.23437.0586.11719.0586.23047.17187.0586.17578.11718.58203v.29297l-.11719.17578-.17187.28906-.17579.17579-.52734.52343-.23047.23438-.11719.0586h-.17578l-.11718-.0586-.40625-.29297-.17579-.11719-.11718-.0586-.0586-.11327-.05468-.1172m6.64062-10.95702l-.0586-.17188v-1.10937l.0586-.17188.17578-.0586.17188-.05858h.17578l.23437-.0586.1172.0586.05858.69921-.05859.17188-.11719.17578-.11718.0586-.23438.52343-.11328.0586h-.23438l-.05859-.1172m9.61328-14.39062l-.11719-.17578v-.69922l.29297-.875.1172-.17187.17577-.35156.11328-.23047.1172-.29297.35155-.75781.1172-.23047.17187-.23438h.17578l.11719-.0586h.64062l.11719.0586.23437.23438.17188.11328.35156.29297.11719.11718.11328.17579v.11328l.11719.05859.11718.11719v.69922l-.05859.17578v.23047l-.0586.17578-.34765 1.05078-.11719.23047-.11719.23437-.11718.0586-.23047.23437-.64063.28906h-.875l-.41015-.11718-.64063-.46485"/><path fill="none" stroke="#bebebe" stroke-linecap="round" stroke-linejoin="round" stroke-miterlimit="10" stroke-width=".5" d="M467.95703 311.69531H144.02734v168.625h323.9297v-168.625"/><g clip-path="url(#a)"><path fill="#fff" fill-opacity="0" fill-rule="evenodd" d="M144 475.89063v4.4375h.0039H144V441.5078v34.38281"/></g><g clip-path="url(#b)"><path fill="#fff" fill-opacity="0" fill-rule="evenodd" d="M144 435.94531v3.45313-127.72656h.0039H144V435.9453"/></g><path fill="#50fcfc" fill-rule="evenodd" d="M144 439.39844v2.10937l.0039-.0039v-2.10547H144"/><g clip-path="url(#c)"><path fill="#fff" fill-opacity="0" fill-rule="evenodd" d="M144.0039 480.32813V441.5039l.86329-1.1211-.86328-.98437V311.67188h57.6953v114.22265l-1.74218 1.17578-2.69531 2.16406-4.0664 2.27344-.375.42188-4.4375 2.26562-4.4375.30078-2.88282 1.44922-1.55469.76953-4.4414 2.97266-2.9297.69531-1.5078.23047-4.4375 1.60156-4.4375 1.13282-4.4375 1.21875-.83203.2539-3.60938 2.07813-4.4375-.17969-1.76172 2.54297 1.76172 3.08984 4.4375-1.36328 4.4414.5586 4.4375 1.5703 4.4375-.83202 4.4375-2.94141.08985-.08203 3.52344-4.4414.82422-3.02735 4.4414 2.7539 4.4375-2.1328 4.4375-1.45704 4.4375.14844.85547-.72266 2.94531-4.4375.64063-.5664 4.4375-2.75782 2.02344-1.11328 2.41406-2.86328.66016-1.57422-.66016-.71484-4.4375-.46094V311.67188h31.0664v119.53906l-.35156.29687.35156 1.07031.51563 3.3672 3.92578 2.625 4.4375 1.05468.25.75781 4.1875 3.1289 3.10938-3.1289-2.47657-4.4375-.6328-.7539-4.4375-1.38282-4.4375-.77734-4.11329-1.52344-.32813-.29687V311.67188h39.94532V430.9453l-1.01172.5625 1.01172.51953.75-.51953-.75-.5625V311.67187h26.63281v110.92579l-.04297.03125.04297.04296.03125-.04296-.03125-.03125V311.67187h31.0664V421.9375l-1.17968.6914 1.17969.58985 1.0625-.58984-1.0625-.69141V311.67187h17.7539v122.25l-1.94922 2.02344 1.94922 1.86328 2.0625 2.57422 2.375 2.36719 3.51563-2.36719-3.51563-2.53515-2.41406-1.90235-2.02344-2.02344v-122.25h31.07031V432.4375l-4.4414 1.34375-1.55078 2.16406-2.88672 2.76172-1.4414 1.67578-2.9961 4.28516-.66797.15234.66797.08203 4.4375 3.76563.57812.59375-.36328 4.4375 1.86719 4.4375 2.35547 2.1836 4.03125 2.2539.41015.91797 4.4375.86719 4.4375.69921 1.89454-2.48437.42578-4.4375-2.32031-3.16797-.96875-1.26953.96875-2.25 2.16796-2.1875-2.16796-1.4961-4.4375 1.40625-3.32422-4.35156-1.11329-1.71094-2.20703-2.72656 2.20704-1.65234.91015-2.78516-.91015-3.50781V311.67187h88.76171v168.65625h-57.27343l-.42188-.42187-.42187.42188h-51.16016l-1.67578-1.40235-4.4414 1.07813-.36329.32421H144.00391"/></g><path fill="#50fcfc" fill-rule="evenodd" d="M144.86719 440.38281l-.86328 1.1211v-2.10547l.86328.98437m3.57031 11.96875l-1.76172-3.08984 1.76172-2.54297 4.4375.17969 3.60938-2.07813.83203-.2539 4.4375-1.21875v4.0703l-2.13282 1.84376 2.13282 1.32422 2.41015-1.32422-2.41015-1.84375v-4.07031l4.4375-1.13282 4.4375-1.60156 1.5078-.23047 2.9297-.69531 4.4414-2.97266 1.55469-.76953 2.88281-1.44922 4.4375-.30078 4.4375-2.26562.375-.42188 4.0664-2.27344 2.69532-2.16406 1.74219-1.17578 4.4375.46094.66016.71484-.66016 1.57422-2.41406 2.86328-2.02344 1.11328-4.4375 2.75782-.64063.5664-2.9453 4.4375-.85548.72266-4.4375-.14844-4.4375 1.45703-4.4375 2.13281-4.4414-2.7539-.82422 3.02734-3.52344 4.4414-.08984.08204-4.4375 2.9414-4.4375.83204-4.4375-1.57031-4.44141-.5586-4.4375 1.36328"/><path fill="#00e8fc" fill-rule="evenodd" d="M161.7539 450.58594l-2.1328-1.32422 2.1328-1.84375 2.41016 1.84375-2.41015 1.32422"/><path fill="#50fcfc" fill-rule="evenodd" d="M232.76563 432.57813l-.35157-1.07032.35156-.29687.32813.29687 4.11328 1.52344 4.4375.77734 4.4375 1.38282v3.48437l-1.5 1.70703 1.5 1.1211 1.11328-1.1211-1.11328-1.70703v-3.48437l.63281.7539 2.47657 4.4375-3.10938 3.1289-4.1875-3.1289-.25-.75781-4.4375-1.05469-3.92578-2.625-.51563-3.36719"/><path fill="#00e8fc" fill-rule="evenodd" d="M246.08203 441.5039l-1.5-1.12109 1.5-1.70703 1.11328 1.70703-1.11328 1.1211"/><path fill="#50fcfc" fill-rule="evenodd" d="M272.71094 432.02734l-1.01172-.51953 1.01172-.5625.75.5625-.75.51953m26.63281-9.35546l-.04297-.04297.04297-.03125.03125.03125-.03125.04296m31.0664.54688l-1.17968-.58984 1.17969-.69141 1.0625.6914-1.0625.58985m17.7539 14.58984l-1.94922-1.86328 1.94922-2.02344 2.02344 2.02344 2.41406 1.90235 3.51563 2.53515-3.51563 2.36719-2.375-2.36719-2.0625-2.57422"/><g clip-path="url(#d)"><path fill="#50fcfc" fill-rule="evenodd" d="M352.23828 480.32813l.36328-.32422 4.4414-1.07813 1.67579 1.40235h-6.48047"/></g><path fill="#50fcfc" fill-rule="evenodd" d="M365.91797 444.90234l-.66797-.08203.66797-.15234 2.9961-4.28516 1.4414-1.67578 2.88672-2.76172 1.55078-2.16406 4.4414-1.34375.91016 3.50781-.91015 2.78516-2.20704 1.65234 2.20704 2.72656v2.56641l-1.81641 3.58594 1.8164 1.5625 4.375-1.5625-4.375-3.58594v-2.5664l1.11329 1.71093 3.32421 4.35156 4.4375-1.40625 2.16797 1.4961-2.16796 2.1875-.96875 2.25.96875 1.26953 2.3203 3.16797-.42577 4.4375-1.89454 2.48437-4.4375-.69921-4.4375-.8672-.41015-.91796-4.03125-2.2539-2.35547-2.1836-1.86719-4.4375.36328-4.4375-.57812-.59375-4.4375-3.76563"/><path fill="#fff" fill-opacity="0" fill-rule="evenodd" d="M379.23438 445.67578l-1.81641 3.58594 1.8164 1.5625 4.375-1.5625-4.375-3.58594"/><g clip-path="url(#e)"><path fill="#50fcfc" fill-rule="evenodd" d="M409.8789 480.32813l.42188-.42188.42188.42188h-.84375"/></g><g clip-path="url(#f)"><path fill="#fff" fill-opacity="0" fill-rule="evenodd" d="M467.9961 480.32813H468V311.67188h-.0039H468v168.65625h-.0039"/></g><path fill="#fff" fill-opacity="0" fill-rule="evenodd" d="M164.92188 458.27344l5.41015-2.19531-3.74219-9.23047-5.41406 2.1953 3.7461 9.23048"/><path fill-rule="evenodd" d="M165.10938 449.42578l.46875-.1914 2.36718 5.83593-.73047.29297-1.6875-4.16015-1.28515.52343-.20703-.51562.49218-.26953.21485-.14454.17969-.17187.1328-.20703.08204-.25781.02344-.32813-.05078-.40625"/><g clip-path="url(#g)"><path fill="none" stroke="#000" stroke-linecap="round" stroke-linejoin="round" stroke-miterlimit="10" stroke-width=".5" d="M147.48828 480.75781l-6.97656-.85547"/></g><g clip-path="url(#h)"><path fill="none" stroke="#000" stroke-linecap="round" stroke-linejoin="round" stroke-miterlimit="10" stroke-width=".5" d="M147.48828 480.75781l.8789 2.28906"/></g><g clip-path="url(#i)"><path fill="none" stroke="#000" stroke-linecap="round" stroke-linejoin="round" stroke-miterlimit="10" stroke-width=".5" d="M160.76563 480.98828l-6.90235-1.32031"/></g><g clip-path="url(#j)"><path fill="none" stroke="#000" stroke-linecap="round" stroke-linejoin="round" stroke-miterlimit="10" stroke-width=".5" d="M160.76563 480.98828l.72656 2.34375"/></g><g clip-path="url(#k)"><path fill="none" stroke="#000" stroke-linecap="round" stroke-linejoin="round" stroke-miterlimit="10" stroke-width=".5" d="M174.1289 480.63672l-7-.61328"/></g><g clip-path="url(#l)"><path fill="none" stroke="#000" stroke-linecap="round" stroke-linejoin="round" stroke-miterlimit="10" stroke-width=".5" d="M174.1289 480.63672l.96094 2.25781"/></g><g clip-path="url(#m)"><path fill="none" stroke="#000" stroke-linecap="round" stroke-linejoin="round" stroke-miterlimit="10" stroke-width=".5" d="M187.28516 481.42578l-6.6797-2.19531"/></g><g clip-path="url(#n)"><path fill="none" stroke="#000" stroke-linecap="round" stroke-linejoin="round" stroke-miterlimit="10" stroke-width=".5" d="M200.42188 481.86328l-6.32032-3.07031"/></g><g clip-path="url(#o)"><path fill="none" stroke="#000" stroke-linecap="round" stroke-linejoin="round" stroke-miterlimit="10" stroke-width=".5" d="M213.69922 481.9336l-6.25-3.21094"/></g><g clip-path="url(#p)"><path fill="none" stroke="#000" stroke-linecap="round" stroke-linejoin="round" stroke-miterlimit="10" stroke-width=".5" d="M227.40234 480.21484l-7.02343.22657"/></g><g clip-path="url(#q)"><path fill="none" stroke="#000" stroke-linecap="round" stroke-linejoin="round" stroke-miterlimit="10" stroke-width=".5" d="M227.40234 480.21484l1.22266 2.12891"/></g><g clip-path="url(#r)"><path fill="none" stroke="#000" stroke-linecap="round" stroke-linejoin="round" stroke-miterlimit="10" stroke-width=".5" d="M240.71094 480.09375l-7.01172.46875"/></g><g clip-path="url(#s)"><path fill="none" stroke="#000" stroke-linecap="round" stroke-linejoin="round" stroke-miterlimit="10" stroke-width=".5" d="M240.71094 480.09375l1.29297 2.08594"/></g><g clip-path="url(#t)"><path fill="none" stroke="#000" stroke-linecap="round" stroke-linejoin="round" stroke-miterlimit="10" stroke-width=".5" d="M239.6914 480.16406l.64844 1.03906"/></g><g clip-path="url(#u)"><path fill="none" stroke="#000" stroke-linecap="round" stroke-linejoin="round" stroke-miterlimit="10" stroke-width=".5" d="M253.98438 480.91406l-6.9297-1.16797"/></g><g clip-path="url(#v)"><path fill="none" stroke="#000" stroke-linecap="round" stroke-linejoin="round" stroke-miterlimit="10" stroke-width=".5" d="M253.98438 480.91406l.77734 2.32422"/></g><g clip-path="url(#w)"><path fill="none" stroke="#000" stroke-linecap="round" stroke-linejoin="round" stroke-miterlimit="10" stroke-width=".5" d="M267.05078 481.75l-6.42969-2.83984"/></g><g clip-path="url(#x)"><path fill="none" stroke="#000" stroke-linecap="round" stroke-linejoin="round" stroke-miterlimit="10" stroke-width=".5" d="M280.59375 481.03516l-6.88281-1.41407"/></g><g clip-path="url(#y)"><path fill="none" stroke="#000" stroke-linecap="round" stroke-linejoin="round" stroke-miterlimit="10" stroke-width=".5" d="M279.58984 480.83203l.34766 1.17578"/></g><g clip-path="url(#z)"><path fill="none" stroke="#000" stroke-linecap="round" stroke-linejoin="round" stroke-miterlimit="10" stroke-width=".5" d="M293.88672 481.125l-6.84375-1.59375"/></g><g clip-path="url(#A)"><path fill="none" stroke="#000" stroke-linecap="round" stroke-linejoin="round" stroke-miterlimit="10" stroke-width=".5" d="M293.88672 481.125l.63281 2.3711"/></g><g clip-path="url(#B)"><path fill="none" stroke="#000" stroke-linecap="round" stroke-linejoin="round" stroke-miterlimit="10" stroke-width=".5" d="M307.20703 481.10547l-6.85156-1.55469"/></g><g clip-path="url(#C)"><path fill="none" stroke="#000" stroke-linecap="round" stroke-linejoin="round" stroke-miterlimit="10" stroke-width=".5" d="M306.21094 480.8789l.32031 1.1836"/></g><g clip-path="url(#D)"><path fill="none" stroke="#000" stroke-linecap="round" stroke-linejoin="round" stroke-miterlimit="10" stroke-width=".5" d="M320.55078 480.96875l-6.91015-1.27734"/></g><g clip-path="url(#E)"><path fill="none" stroke="#000" stroke-linecap="round" stroke-linejoin="round" stroke-miterlimit="10" stroke-width=".5" d="M319.54688 480.78125l.36718 1.17188"/></g><g clip-path="url(#F)"><path fill="none" stroke="#000" stroke-linecap="round" stroke-linejoin="round" stroke-miterlimit="10" stroke-width=".5" d="M333.4336 482.1211l-6.04688-3.58204"/></g><g clip-path="url(#G)"><path fill="none" stroke="#000" stroke-linecap="round" stroke-linejoin="round" stroke-miterlimit="10" stroke-width=".5" d="M343.78906 483.83984l-.125-7.02343"/></g><g clip-path="url(#H)"><path fill="none" stroke="#000" stroke-linecap="round" stroke-linejoin="round" stroke-miterlimit="10" stroke-width=".5" d="M356.36328 483.77734l1.35547-6.89453"/></g><g clip-path="url(#I)"><path fill="none" stroke="#000" stroke-linecap="round" stroke-linejoin="round" stroke-miterlimit="10" stroke-width=".5" d="M368.8789 483.51563l2.95313-6.375"/></g><g clip-path="url(#J)"><path fill="none" stroke="#000" stroke-linecap="round" stroke-linejoin="round" stroke-miterlimit="10" stroke-width=".5" d="M380.15625 480.27734l7.02734.10547"/></g><g clip-path="url(#K)"><path fill="none" stroke="#000" stroke-linecap="round" stroke-linejoin="round" stroke-miterlimit="10" stroke-width=".5" d="M393.48047 480.07813l7.01172.5"/></g><g clip-path="url(#L)"><path fill="none" stroke="#000" stroke-linecap="round" stroke-linejoin="round" stroke-miterlimit="10" stroke-width=".5" d="M407.83984 477.82422l4.92579 5.01172"/></g><g clip-path="url(#M)"><path fill="none" stroke="#000" stroke-linecap="round" stroke-linejoin="round" stroke-miterlimit="10" stroke-width=".5" d="M420.27734 479.24219l6.6797 2.17578"/></g><path fill="none" stroke="#000" stroke-linecap="round" stroke-linejoin="round" stroke-miterlimit="10" stroke-width=".5" d="M421.2461 479.5586l-.21094-1.21094"/><g clip-path="url(#N)"><path fill="none" stroke="#000" stroke-linecap="round" stroke-linejoin="round" stroke-miterlimit="10" stroke-width=".5" d="M433.59375 479.23438l6.67578 2.1914"/></g><g clip-path="url(#O)"><path fill="none" stroke="#000" stroke-linecap="round" stroke-linejoin="round" stroke-miterlimit="10" stroke-width=".5" d="M447.23828 478.51172l6.01563 3.63672"/></g><g clip-path="url(#P)"><path fill="none" stroke="#000" stroke-linecap="round" stroke-linejoin="round" stroke-miterlimit="10" stroke-width=".5" d="M464.91406 477.08594l-2.70312 6.48437"/></g><path fill="none" stroke="#000" stroke-linecap="round" stroke-linejoin="round" stroke-miterlimit="10" stroke-width=".5" d="M464.51953 478.02734l1.22266-.11328"/><g clip-path="url(#Q)"><path fill="none" stroke="#000" stroke-linecap="round" stroke-linejoin="round" stroke-miterlimit="10" stroke-width=".5" d="M147.40625 467.8711l-6.8125-1.71485"/></g><path fill="none" stroke="#000" stroke-linecap="round" stroke-linejoin="round" stroke-miterlimit="10" stroke-width=".5" d="M147.40625 467.8711l.58984 2.3828m12.60157-1.98828l-6.56641-2.5039m6.5664 2.5039l.3047 2.4336m13.05859-2.57031l-6.66406-2.23047m6.66406 2.23047l.40625 2.42187m12.98047-2.65625l-6.8047-1.76172m6.8047 1.76172l.5703 2.38672m12.69532-2.21875l-6.70703-2.09766m6.70703 2.09766l.45313 2.41406m12.8828-2.48047l-6.74608-1.96484m6.74609 1.96484l.5 2.40235m12.94531-3.63282l-7.00781.4961m7.00781-.4961l1.30078 2.08204m12.00781-2.15235l-6.99609.63672m6.9961-.63672l1.34375 2.05469m11.98437-1.84766l-7.02344.22266m7.02344-.22266l1.22266 2.12891m-2.2422-2.09766L253.6211 468m13.64453-.22266l-6.85937-1.52734m6.85938 1.52734l.65625 2.36328m12.73046-2.82812l-7.0039-.59766m7.0039.59766l.96094 2.25781m12.35547-2.3086l-7.00781-.49609m5.98828.42188l.5 1.1211m13.83594-1.04688l-7.00782-.4961m7.00782.4961l.99609 2.24219m12.30078-2.94141l-6.97265.90234m6.97265-.90234l1.41797 2m11.63281-2.94922l-6.44531 2.80078m6.44531-2.80078l1.92188 1.52735m11.52344-1.1836l-6.70313 2.11328m5.72656-1.80468l.875.85937m13.55469-.52344l-6.98047.82422m13.32422-.89844l6.96094.97266m7.10156 1.72266l5.46484-4.41797m-4.66796 3.77344l-1.12891-.48047m13.97265-3.64063l4.81641 5.11328m-4.11719-4.3711l.39454-1.16015m13.51562-.35547l2.23047 6.66016m-1.90625-5.6914l.84375-.89063m13.16406-.26172l.1914 7.02734m-.16406-6.0039l1.07032-.60547m11.15234-.21875l2.32422 6.6289m-1.98438-5.66406l.83204-.90234m12.58984-.1875l1.42969 6.8789m-1.22266-5.8789l.94531-.78516m13.20313-.27343l-.65235 6.99609m.5586-5.97656l1.13281-.47657"/><g clip-path="url(#R)"><path fill="none" stroke="#000" stroke-linecap="round" stroke-linejoin="round" stroke-miterlimit="10" stroke-width=".5" d="M147.2539 455.01953l-6.5078-2.64453"/></g><path fill="none" stroke="#000" stroke-linecap="round" stroke-linejoin="round" stroke-miterlimit="10" stroke-width=".5" d="M147.2539 455.01953l.25391 2.4414m12.98438-2.26562l-6.35547-2.9961m5.42969 2.5625l.0625 1.22657m13.72656-.07422l-5.45313-4.4336m4.66016 3.78907l-.23438 1.20313m14.95313-1.67188l-6.67188-2.20312m5.70313 1.8828l.20703 1.20704m14.04688-.80078l-6.61328-2.375m5.65234 2.03125l.17578 1.21094m14.22266-1.29297l-6.85938-1.52344m5.86328 1.30078l.32813 1.1836m13.54297-3.57422l-5.97657 3.69922m5.10547-3.16016l1.0586.61719m13.64843.84375l-7.01953-.29688m6 .2539l.52735 1.10548m13.74218-.51172l-6.88672-1.40235m5.88282 1.19922l.34765 1.17578m13.9922-1.08203l-6.9297-1.17969m6.9297 1.1797l.76952 2.32812m12.34766-1.6289l-6.53516-2.57813m6.53516 2.57812l.28125 2.4375m13.23047-3.1289l-6.92578-1.19532m6.92578 1.19531l.76562 2.32813m12.58594-2.6211l-7-.61328m7 .61329l.95703 2.26171m12.36719-2.71093l-7.01953.28906m7.01953-.28906l1.24219 2.11718m11.86328-3.17968l-6.60156 2.41406m6.60156-2.41406l1.82422 1.63672m10.83593-2.7422l-5.28906 4.625m4.51953-3.95312l1.14453.4336m12.32422-1.66407l-4.0586 5.73829m3.46876-4.90235l1.21484.15625m11.61719-1.5039l-1.91406 6.76171m14.4336-6.89062l-.32423 7.01953m.27735-5.9961l1.10937-.52734m12.1875-.49609l-.1914 7.02344m.16406-6.0039l1.09765-.54688m14.71875.64062l-5.13671 4.79688M412.12109 452l1.16016.39844m12.40234-1.53906l-4.13671 5.67968m3.53515-4.85547l1.21485.17188m8.6328-1.04297l4.00391 5.77344m-3.42187-4.9336l.5625-1.08984m10.8789 1.91406l6.58594 2.44531m-6.58593-2.4453l-.32813-2.4336m15.10938.65625l3.65625 6m-3.125-5.1289l.625-1.0547"/><g clip-path="url(#S)"><path fill="none" stroke="#000" stroke-linecap="round" stroke-linejoin="round" stroke-miterlimit="10" stroke-width=".5" d="M147.1836 441.8711l-6.3672-2.97266"/></g><path fill="none" stroke="#000" stroke-linecap="round" stroke-linejoin="round" stroke-miterlimit="10" stroke-width=".5" d="M147.1836 441.8711l.1289 2.44921m12.49219-1.45703l-4.98047-4.95703m4.98047 4.95703l-.71094 2.34766m12.88281-1.58203l-2.69531-6.48829m2.30469 5.54297l-.78125.94922m13.57031.23828l-.85938-6.97265m.73438 5.95703l-1.0039.70312m15.6914-.08593l-3.35547-6.17579m12.13672 1.03907l5.71094 4.09375m6.96875-2.4414l6.98437.78905m9.14453-3.83984l1.35547 6.89453m9.69531-5.3711l5.88282 3.84376m13.88672-1.76953l-7.02344-.3047m20.23047 1.02735l-6.8086-1.7461m5.81641 1.4922l.28906 1.1914m13.77344-3.34765l-6.32031 3.07421m5.40234-2.6289l.99219.72265m13.58984.20704l-7.01953.32421m7.01953-.32421l1.2539 2.10937m12.0547-2.25l-7.00391.60547m5.98438-.51953l.66796 1.03125m13.44922-2.0625l-6.57031 2.49219m6.57031-2.4922l1.84766 1.6172m10.60937-2.91016l-4.85156 5.08203m4.85156-5.08203l2.36329.66016m9.53906-1.48438l-2.02735 6.72656M357.76172 438l1.20312-.23828m10.19141-.67969l2.39844 6.60547m-2.39844-6.60547l1.64453-1.82422m9.79297 3.42969l6.15625 3.39062m13.58594-2.7539l-6.69922 2.11719m5.72656-1.8086l.875.85938m13.52735-.69922l-6.92579 1.1836m5.91797-1.01173l.75.96875m13.48047-1.53515l-6.7461 1.96875m6.7461-1.96875l1.71485 1.75781m10.96875-2.97266l-5.48047 4.39844m5.48047-4.39844l2.2539.96875m-3.05078-.32812l1.125.48437m12.3789-1.71875l-4.26171 5.58594m4.26172-5.58594l2.41797.39844m-3.03907.41406l1.21094.19922m13.26172-.5039l-5.33594 4.57421"/><g clip-path="url(#T)"><path fill="none" stroke="#000" stroke-linecap="round" stroke-linejoin="round" stroke-miterlimit="10" stroke-width=".5" d="M466.23047 438.09766l2.28515.89453"/></g><g clip-path="url(#U)"><path fill="none" stroke="#000" stroke-linecap="round" stroke-linejoin="round" stroke-miterlimit="10" stroke-width=".5" d="M147.4961 427.4375l-6.9922-.73828"/></g><path fill="none" stroke="#000" stroke-linecap="round" stroke-linejoin="round" stroke-miterlimit="10" stroke-width=".5" d="M147.4961 427.4375l.91796 2.27344m12.22266-1.4961l-6.64453-2.29297m5.67969 1.95704l.1914 1.21484m11.66797 1.3711l-1.80469-6.79298m1.54297 5.8047l-.89844.83593m15.5-.30469l-3.85156-5.8789m3.29297 5.02343l-.59375 1.07422m14.1875-.05468l-3.29297-6.20704m2.8164 5.3047l-.6875 1.01562m15.9922-1.6797l-6.31641-3.07421m5.39844 2.6289l.04297 1.22657m8.77734-5.01563l4.5039 5.39454m-3.84765-4.60938l.46484-1.13672m10.97656 3.58594l6.94532-1.07422m7.17187 2.82422l5.33594-4.57422m-4.5586 3.91016l-1.14062-.44922m13.23438.45703l6.22656-3.26172m-5.32031 2.78516l-1.01172-.69141m13.4336 1.1875l6.19921-3.30078m-5.29688 2.82031l-1.01953-.6836m17.48047 2.89454l-1.89844-6.76172m1.625 5.78125l-.88671.84375m15.54687-.3711l-4.04297-5.74609m3.45703 4.91016l-.55468 1.09375m14.97265-5.5625L314.5586 429.5m5.07422-4.86328l2.32813.76562m11.45312-.15625l-6.00781 3.64454m6.00781-3.64454l2.10938 1.25391m-2.98438-.72266l1.05469.625m13.16797-1.10546l-6.07031 3.54296m6.0703-3.54296l2.08595 1.28906m11.47656-.76953l-6.5664 2.5039m5.60937-2.14062l.92578.8086m12.63281-2.31641l-5.14062 4.79296m4.39453-4.09375l1.16015.39844m12.06641-1.75781l-3.46875 6.11328m3.46875-6.11328l2.45312.07031m12.6172 2.59375l-6.98048.78516m6.98047-.78516l1.38672 2.02735m11.875-2.36329l-6.875 1.45704m6.875-1.45704l1.57813 1.87891m11.10156-3.26953l-5.60156 4.23828m5.60156-4.23828l2.22656 1.03125m-3.04297-.41406l1.11328.51562m12.65625-1.54297l-4.8789 5.0586m4.8789-5.0586l2.35938.67578m-3.07031.0625l1.17968.33594m12.63282-1.26172l-4.45313 5.4375m4.45313-5.4375l2.40625.48047m-3.0547.3086l1.20313.24218m13.6172 0l-6.16407 3.3711"/><g clip-path="url(#V)"><path fill="none" stroke="#000" stroke-linecap="round" stroke-linejoin="round" stroke-miterlimit="10" stroke-width=".5" d="M466.64453 425.38281l2.05078 1.34766"/></g><path fill="none" stroke="#000" stroke-linecap="round" stroke-linejoin="round" stroke-miterlimit="10" stroke-width=".5" d="M465.7461 425.875l1.02734.67188"/><g clip-path="url(#W)"><path fill="none" stroke="#000" stroke-linecap="round" stroke-linejoin="round" stroke-miterlimit="10" stroke-width=".5" d="M147.48438 414.20313l-6.96875-.89844"/></g><path fill="none" stroke="#000" stroke-linecap="round" stroke-linejoin="round" stroke-miterlimit="10" stroke-width=".5" d="M147.48438 414.20313l.86718 2.29687m12.01563-4.48438l-6.10547 3.47657m5.21875-2.97266l1.03516.66016m6.60156.6289l7.02734-.11328m7.97656 3.0586l3.64844-6.00391m-3.11719 5.13281l-1.22656-.07031m13.58203.63672l4.5039-5.39063m7.69532 3.69922l6.73438-2.00781m-5.75391 1.71484l-.85938-.875m13.09766.75l6.92969-1.17187m-5.92188 1l-.74609-.97266m19.74219 1.95703l-6.44531-2.80078m5.5039 2.39453l.09766 1.22266m14.35547-1.41016l-6.83985-1.61328m17.75781.8086l-.01953-.19922-.05859-.1914-.09375-.1797-.46094-.375-.1914-.05859-.19922-.01953-.19922.01953-.1914.0586-.46094.375-.09375.17968-.0586.1914-.01953.19923.01953.19921.0586.19141.09375.17578.46093.3789.1914.0586.19923.01953.19922-.01953.1914-.0586.46094-.3789.09375-.17578.0586-.1914.01952-.19922m9.91797 2.58984l4.7461-5.1836m14.14843 4.03516l-6.41015-2.88281m5.47656 2.46094L292.82031 416m14.4414-1.75781l-6.96093-.98047m5.94531.83984l.42188 1.15235m13.88281-2.13672l-6.91016 1.26953m6.91016-1.26953l1.52344 1.92578m11.84765-1.46094l-7.01953.33984m7.01953-.33984l1.25391 2.10938m12.05469-2.1875l-7.00781.5m7.0078-.5l1.3047 2.07812m11.99609-2.23047l-6.98047.80469m6.98047-.80469l1.39453 2.01953m11.83594-2.48047l-6.8125 1.72657m6.8125-1.72656l1.64844 1.8164m11.02343-3.125l-5.52343 4.34375m5.52343-4.34375l2.2422.98828m10.68358-1.40625l-4.74609 5.17969m4.7461-5.17969l2.375.61328m-3.06641.14063l1.1875.30469m13.19531-.65625l-5.5 4.37109m5.5-4.3711l2.25.98048m-3.05078-.34375l1.125.48828m12.82031-1.32422l-5.15625 4.77344m5.15625-4.77344l2.3164.80469m11.05079-.75l-5.26172 4.66406m5.26172-4.66406l2.29687.85937m11.15625-.6914l-5.53906 4.32421m5.53906-4.32422l2.2422 1m-3.04688-.37109l1.1211.5m12.94921-1.1914l-5.4375 4.45312"/><g clip-path="url(#X)"><path fill="none" stroke="#000" stroke-linecap="round" stroke-linejoin="round" stroke-miterlimit="10" stroke-width=".5" d="M466.28125 411.52734l2.26172.94532"/></g><path fill="none" stroke="#000" stroke-linecap="round" stroke-linejoin="round" stroke-miterlimit="10" stroke-width=".5" d="M465.48828 412.17578l1.13281.47266"/><g clip-path="url(#Y)"><path fill="none" stroke="#000" stroke-linecap="round" stroke-linejoin="round" stroke-miterlimit="10" stroke-width=".5" d="M147.5039 400.71094l-7.0078-.54688"/></g><path fill="none" stroke="#000" stroke-linecap="round" stroke-linejoin="round" stroke-miterlimit="10" stroke-width=".5" d="M147.5039 400.71094l.98048 2.25m12.125-3.75l-6.58594 2.45312m6.58594-2.45312l1.83203 1.6289m10.80468-2.74609l-5.23437 4.6875m4.47266-4.0039l1.15234.42187m13.75781.57812l-6.89844 1.32032m5.89453-1.12891l.76954.95703m11.76953-3.57812l-3.33985 6.18359m11.57032-3.91406l6.83203 1.64062m-5.83985-1.40234l-.30859-1.1875m12.61328 2.52344l6.86328-1.50782m-5.86328 1.28907l-.79297-.9336m14.125 2.94922l4.83203-5.09765m14.35157 1.88671l-6.90235 1.32422m5.89844-1.13281l.76953.95703m13.60547-.71094l-7.01563.44922m5.9922-.38672l.64452 1.04688m13.67578-.4961l-6.98046-.78125m5.96484.66797l.45313 1.14063m13.78515-.52735l-6.79687-1.77734m5.80859 1.51953l.28516 1.1914m14.09375-1.30077l-6.94922-1.04688m5.9414.89453l.40625 1.15625m13.9336-1.125l-6.98047-.80468m6.98047.80468l.89844 2.28516m12.42187-3.02344l-6.99219.67578m6.99219-.67578l1.35547 2.04297m11.9414-1.21094l-6.95703-.99218m6.95704.99218l.83593 2.3086m12.51172-2.66016l-7.01953-.28906m6 .2461l.53125 1.10546m13.35938-2.92578l-6.12891 3.4375m6.1289-3.4375l2.0625 1.32422m11.00782-1.69922l-5.64063 4.1914m5.64063-4.1914l2.21484 1.05078m-3.03515-.4414l1.10546.52734m13.03907-1.125l-5.66016 4.16797m5.66016-4.16797l2.21093 1.0625m11.40235-.58203l-6.25781 3.20312m6.2578-3.20312l2.01173 1.40625m10.79296-2.14844L421 402.78515m5.23438-4.6914l2.30078.84375m-3.0625-.16016l1.15234.42188m12.88281-1.14844l-5.15234 4.77344m5.15234-4.77344l2.32031.80469m11.52735-.05469l-6.21875 3.27735m6.21875-3.27735l2.02734 1.3789m-2.9336-.90234l1.01563.6875m13.07813-1.38671l-5.96094 3.71875"/><g clip-path="url(#Z)"><path fill="none" stroke="#000" stroke-linecap="round" stroke-linejoin="round" stroke-miterlimit="10" stroke-width=".5" d="M466.54297 398.57813l2.125 1.22656"/></g><path fill="none" stroke="#000" stroke-linecap="round" stroke-linejoin="round" stroke-miterlimit="10" stroke-width=".5" d="M465.67578 399.1211l1.0625.61327"/><g clip-path="url(#aa)"><path fill="none" stroke="#000" stroke-linecap="round" stroke-linejoin="round" stroke-miterlimit="10" stroke-width=".5" d="M147.45313 387.76953l-6.90625-1.29297"/></g><path fill="none" stroke="#000" stroke-linecap="round" stroke-linejoin="round" stroke-miterlimit="10" stroke-width=".5" d="M147.45313 387.76953l.73437 2.33985m12.61328-3.4297l-6.97266.89063m6.97266-.89062l1.41797 2m11.84375-2.30078l-6.86719 1.48828m6.86719-1.48828l1.58594 1.875m11.72656-1.89454l-6.85938 1.52735m6.85938-1.52735l1.59375 1.8672m10.78516-3.57813l-4.98828 4.94922m4.26171-4.23047l1.17188.36328m13.79297.57031l-6.83203 1.64453m5.83593-1.40625l.81641.91797m13.42578.73828l-6.69531-2.14453m5.71875 1.83203l.21875 1.20703m13.59766.0586l-5.7461-4.05078m19.60156 2.85546l-6.82812-1.66015m5.83594 1.41797l.30468 1.1875m13.90625-.61328l-6.6328-2.32422m6.6328 2.32422l.3711 2.42578m13.1211-3.20703l-6.98829-.76172m6.98828.76172l.91016 2.27734m12.29297-1.70313l-6.76172-1.91015m6.76172 1.91015l.51953 2.39844m12.91015-2.99219l-6.99218-.72265m6.99218.72265l.92188 2.27344m12.39062-2.26953l-6.98828-.73047m6.98828.73047l.92188 2.27344m-1.9375-2.3789l.46094 1.13671m13.85937-.9375l-6.96875-.91797m6.96875.91797l.85938 2.29688m12.44921-2.26172l-6.95703-.98828m6.95703.98828l.83985 2.30469m12.42187-3.59375l-6.84765 1.58984m6.84765-1.58985l1.60938 1.84766m11.4961-2.47265l-6.42579 2.83984m6.42578-2.83985l1.92969 1.51563m-2.86719-1.10156l.96485.75781m12.91796-1.8164l-5.6875 4.1289m5.6875-4.1289l2.20313 1.07421m-3.03125-.47265l1.10156.53906m13.01563-1.17578l-5.63672 4.19922m5.63672-4.19922l2.21875 1.05078m-3.03907-.4375l1.10938.52344m12.92187-1.26954l-5.42968 4.46485m5.42968-4.46485l2.26563.94532m-3.05469-.29297l1.13281.46875m12.73438-1.3789l-4.95313 4.98437m4.95313-4.98438l2.34766.70703m-3.07032.01563l1.17578.35547m12.97266-.96485L434.34375 389.5m5.17578-4.7539l2.3125.8164m-3.0664-.125l1.15624.40625m13.0547-.9336l-5.46095 4.42579m5.46094-4.42578l2.25781.96093m-3.05078-.3164l1.12891.48047m12.76562-1.36329l-5.03125 4.90235"/><g clip-path="url(#ab)"><path fill="none" stroke="#000" stroke-linecap="round" stroke-linejoin="round" stroke-miterlimit="10" stroke-width=".5" d="M466.07813 384.67188l2.33593.74609"/></g><g clip-path="url(#ac)"><path fill="none" stroke="#000" stroke-linecap="round" stroke-linejoin="round" stroke-miterlimit="10" stroke-width=".5" d="M147.42578 374.59375l-6.85156-1.57031"/></g><path fill="none" stroke="#000" stroke-linecap="round" stroke-linejoin="round" stroke-miterlimit="10" stroke-width=".5" d="M146.42969 374.36719l.3164 1.1836m14.04297-1.21095l-6.94531-1.0664m5.9336.91406l.40624 1.15625m13.25391-3.64453l-5.61719 4.21875m5.61719-4.21875l2.22266 1.03906m10.60547-1.57031l-4.64063 5.27734m4.64063-5.27734l2.38671.5664m11.31641-.16406l-5.41797 4.47266m5.41797-4.47266l2.26953.9414m10.76563-1.24218l-4.85938 5.07813m4.85938-5.07813l2.36328.66797m12.03125 1.6836l-7.01563.37109m5.9961-.3164l.6328 1.05077m13.39063.54297l-6.39062-2.92187m5.46094 2.49609l.0703 1.22656m13.07032.5625l-4.1836-5.64844m3.57423 4.82422l-.52735 1.10938m14.99219-.78516l-5.26563-4.65234m5.26563 4.65234l-.57031 2.38672m14.1875-2.78125l-5.8711-3.85937m5.8711 3.85937l-.22657 2.44531m13.67579-2.66796l-6.14063-3.41407m6.14063 3.41406l-.04688 2.45313m-.84375-2.94922l-.02344 1.22656m14.51563-1.39843l-6.71094-2.08204m6.71094 2.08204l.45703 2.41015m-1.4336-2.71094l.23047 1.20313m14.16797-1.35156l-6.92578-1.17969m6.92578 1.17969l.77344 2.32812m12.51953-2.19922l-6.8789-1.4375m6.8789 1.4375l.6836 2.35547m-1.6875-2.5664l.34375 1.17968m14.04687-1.8164l-7.02344.25781m7.02344-.25781l1.23047 2.1211m-2.2539-2.08595l.61718 1.0625m13.67188-1.55468l-6.92579 1.17187m6.92579-1.17187l1.5 1.9414m-2.50782-1.77344l.75.97266m13.40235-1.78515l-6.58594 2.45703m6.58594-2.45704l1.83593 1.62891m-2.79296-1.26953l.91796.8125m12.85547-2.07422l-5.58593 4.26563m5.58593-4.26563l2.23047 1.02344m-3.04297-.40235l1.11328.51172m12.72657-1.46093l-5.01172 4.92187m5.01172-4.92187l2.33984.73828m-3.0664-.02344l1.16796.3711m12.83594-1.125l-4.9375 5m4.9375-5l2.35156.70312m-3.0703.02344l1.17577.35156m12.82031-1.11328l-4.86328 5.07031m4.86328-5.07031l2.36329.66406m-3.07032.07031l1.1797.33594m12.7578-1.14844l-4.6914 5.22656m4.6914-5.22656l2.38282.58985m-3.0625.16796l1.1875.29688m12.69921-1.15234l-4.47265 5.42187m4.47265-5.42187l2.40235.49218m-3.05469.29688l1.20313.2461m12.25-1.38673l-3.44922 6.125m3.44922-6.125l2.45312.0625"/><g clip-path="url(#ad)"><path fill="none" stroke="#000" stroke-linecap="round" stroke-linejoin="round" stroke-miterlimit="10" stroke-width=".5" d="M147.14063 362.0664l-6.28125-3.14843"/></g><path fill="none" stroke="#000" stroke-linecap="round" stroke-linejoin="round" stroke-miterlimit="10" stroke-width=".5" d="M146.22656 361.60938l.03125 1.22656m11.1875 1.16797l-.26172-7.02344m15.80078.90234l-4.70703 5.21875m4.02344-4.45703l1.1875.29688m13.02734-.84375l-5.14062 4.79296m4.39063-4.09765l1.16015.39844m13.15234-.79688l-5.63671 4.19531m4.8164-3.58203l1.10938.52344m13.10937-1.01953l-5.80078 3.96484m5.80078-3.96484l2.17188 1.14062m11.73828.47657l-6.99219.72656m5.97266-.6211l.6875 1.01954m13.64453-.40235l-6.98828-.71875m5.97265.61328l.46094 1.13672m12.95703.99219l-5.16406-4.76563m4.41406 4.07422l-.3125 1.1875m14.23047-.34375l-4.86719-5.0703m4.16016 4.33202l-.38281 1.16797m14.53906-.5625l-5.13281-4.80078m5.13281 4.80078l-.64063 2.36719m14.04688-2.47266l-5.3164-4.59375m5.3164 4.59375l-.54688 2.39453M307 361.89844l-6.4375-2.8125m6.4375 2.8125l.1875 2.44922m13.28125-2.8672l-6.7461-1.97655m6.7461 1.97656l.4961 2.40625m12.89843-2.74219l-6.90625-1.30469m6.90625 1.3047l.73047 2.34374m-1.73438-2.53125l.36329 1.16797m14.01562-1.51953l-7.02344-.22656m7.02344.22656l1.08203 2.20312m-2.10547-2.23437l.54297 1.10156m13.7461-1.78125l-6.92579 1.19531m6.92579-1.1953l1.5039 1.9414m-2.51172-1.76563l.75.96875m13.375-1.83984l-6.53125 2.58984m6.53125-2.58984l1.8711 1.58594m-2.82031-1.21094l.93359.79687m13.16406-1.53906l-6.19531 3.32031m6.19531-3.3203l2.03906 1.36718m-2.9414-.88281l1.01953.68359m13.05078-1.41406l-5.90234 3.8164m5.90234-3.8164l2.14453 1.1914m-3.0039-.63671l1.0703.59765m12.97657-1.33594l-5.64844 4.1836m5.64844-4.1836l2.21484 1.0547m-3.03515-.44532l2.21484 1.05469m11.96094-1.60547l-5.73047 4.0664m5.73047-4.0664l2.19531 1.09765m-3.02734-.5078l1.09765.55077m13.00782-1.20312l-5.64454 4.1875m5.64454-4.1875l2.21484 1.05469m-3.03516-.44532l1.10547.52735m12.77735-1.4375l-5.14063 4.79296m5.14063-4.79296l2.3203.79687m-3.0703-.10156l1.16015.39844m12.6914-1.3047l-4.71483 5.21095"/><g clip-path="url(#ae)"><path fill="none" stroke="#000" stroke-linecap="round" stroke-linejoin="round" stroke-miterlimit="10" stroke-width=".5" d="M465.91797 357.88672l2.3789.60156"/></g><path fill="none" stroke="#000" stroke-linecap="round" stroke-linejoin="round" stroke-miterlimit="10" stroke-width=".5" d="M465.23438 358.64453l1.1875.30078"/><g clip-path="url(#af)"><path fill="none" stroke="#000" stroke-linecap="round" stroke-linejoin="round" stroke-miterlimit="10" stroke-width=".5" d="M147.51172 347.23047l-7.02344-.10547"/></g><path fill="none" stroke="#000" stroke-linecap="round" stroke-linejoin="round" stroke-miterlimit="10" stroke-width=".5" d="M158.32031 343.8125l-2.01172 6.73047m17.1211-5.48438l-5.60156 4.2422M185 343.82811l-2.10938 6.70313m1.80079-5.73047l1.20703-.22265m12.25-.80079l-1.77735 6.80079m1.51953-5.8086l1.19532-.28515m14.48828.86328l-5.9961 3.66015m5.125-3.1289l1.0547.625m13.52734-.23829l-6.78907 1.82422m5.80078-1.55859l.83594.89844m13.27344-1.70313l-6.40234 2.90235m6.40234-2.90235l1.9414 1.5m11.6836.0586l-7.02344-.21485m6.0039.1836l.54298 1.10156m12.69922 1.3711l-4.83594-5.09766m4.13281 4.35546l-.39062 1.16407m14.19922-.23828l-4.41797-5.46485m3.77343 4.67188l-.48046 1.1289m13.90625.01954l-3.35157-6.17579m3.35156 6.17579l-1.35546 2.04687m15.55859-2.73047l-5.125-4.8086m5.125 4.8086l-.64063 2.36719m14.28516-2.77344l-5.78515-3.9961m5.78515 3.9961l-.28515 2.4375m14.09375-3.5l-6.77344-1.8711m6.77344 1.8711l.53515 2.39453m12.90625-3.20312l-7.02344-.2539m7.02344.2539l1.07031 2.20703m12.2461-2.40625l-7.02735.14844m7.02735-.14844l1.19531 2.14062m-2.21875-2.12109l.59766 1.07031m13.65625-1.77734l-6.85938 1.51953m6.85938-1.51953l1.59375 1.86719m11.53515-2.45704l-6.48437 2.70313m6.48437-2.70313l1.89844 1.5547m-2.83984-1.16407l.9453.78125m13.1172-1.57031l-6.09766 3.4961m6.09766-3.4961l2.07421 1.30469m-2.96093-.79688l1.03906.65234m13.13281-1.20703l-6.03906 3.59375m6.03906-3.59375l2.09766 1.26953m-2.97656-.75l1.05078.63672m13.26562-.9336l-6.28515 3.14454m6.28515-3.14453l2 1.42578m-2.91406-.96875l1 .71094m13.10547-1.39453l-6.03516 3.59765m6.03516-3.59765l2.09765 1.26953m-2.97656-.7461l1.05078.63282m12.94532-1.45313l-5.63672 4.19531m5.63672-4.1953l2.21484 1.04687m-3.03516-.4375l1.10938.52343m13.10547-1.02343l-5.79688 3.97265"/><g clip-path="url(#ag)"><path fill="none" stroke="#000" stroke-linecap="round" stroke-linejoin="round" stroke-miterlimit="10" stroke-width=".5" d="M466.46094 345.1914l2.17578 1.13673"/></g><path fill="none" stroke="#000" stroke-linecap="round" stroke-linejoin="round" stroke-miterlimit="10" stroke-width=".5" d="M465.61719 345.76953l1.08594.57031"/><g clip-path="url(#ah)"><path fill="none" stroke="#000" stroke-linecap="round" stroke-linejoin="round" stroke-miterlimit="10" stroke-width=".5" d="M147.16016 332.33203l-6.32032 3.0625"/></g><path fill="none" stroke="#000" stroke-linecap="round" stroke-linejoin="round" stroke-miterlimit="10" stroke-width=".5" d="M147.16016 332.33203l1.98437 1.44531m10.57031-2.48046l-4.79687 5.1328m4.09766-4.38671l1.18359.3164m13.86328.75l-6.86328 1.50782m5.86328-1.28906l.79688.9375M184.375 330.375l-.85938 6.97656m.73438-5.96094l1.14453-.4375m10.80078-.4375l2.1289 6.69532m-1.8203-5.72266l.85937-.875m12.96875-.2539l.48438 7.0078m-.41407-5.98827l1.04297-.65235m14.27735.13672l-3.66407 6m3.12891-5.125l1.22656.07031m14.13281.96875l-6.68359 2.17188m5.71094-1.85547l.88281.85156M254 333.375l-6.95703.97656m5.94531-.83594l.71875.9961m13.54688-1.46485l-6.83594 1.63282m5.83984-1.39453l.8125.91796m13.1914 1.29688l-6.21874-3.27344m5.3125 2.79688l.0039 1.22656m11.7422 1.07031l-1.26954-6.91406m1.26953 6.91406l-1.92187 1.52344m1.73437-2.53125l-.96093.76172m14.72265.1875l-1.78906-6.79688m1.78906 6.79688l-1.80469 1.66406m16.41016-2.3125l-4.3711-5.5039m4.3711 5.5039l-.98047 2.25m14.95703-2.9414l-5.69531-4.1172m5.69531 4.1172l-.33593 2.42968m14.22265-3.67187l-6.83594-1.63281m6.83594 1.6328l.61719 2.375m12.78516-2.92968l-7.00782-.52344m7.00782.52344l.98437 2.2461m12.33594-2.625l-7.02344.23046m7.02344-.23047l1.22265 2.12891m11.64454-3.73047l-6.125 3.4375m6.125-3.4375l2.0664 1.32422m11.29688-1.23828l-6.22266 3.26562m6.22266-3.26562l2.02734 1.38281m11.54297-.75l-6.73438 2m6.73438-2l1.72266 1.75m11.64843-1.53906l-6.84765 1.57812m6.84765-1.57812l1.60938 1.85156m-2.60547-1.6211l.80469.92579m13.25-1.88672l-6.33203 3.03906m6.33203-3.03906l1.97656 1.45313m-2.89844-1.01172l.98828.72656m13.21485-1.23828l-6.26563 3.17969m6.26563-3.1797l2.0078 1.41016m-2.91796-.94921l1.0039.70703m13.29688-1.01172l-6.41406 2.86719"/><g clip-path="url(#ai)"><path fill="none" stroke="#000" stroke-linecap="round" stroke-linejoin="round" stroke-miterlimit="10" stroke-width=".5" d="M466.76953 332.42969l1.9336 1.50781"/></g><g clip-path="url(#aj)"><path fill="none" stroke="#000" stroke-linecap="round" stroke-linejoin="round" stroke-miterlimit="10" stroke-width=".5" d="M465.83594 332.84766l1.9375 1.5078"/></g><g clip-path="url(#ak)"><path fill="none" stroke="#000" stroke-linecap="round" stroke-linejoin="round" stroke-miterlimit="10" stroke-width=".5" d="M146.9961 318.71094l-5.9922 3.67187"/></g><path fill="none" stroke="#000" stroke-linecap="round" stroke-linejoin="round" stroke-miterlimit="10" stroke-width=".5" d="M146.9961 318.71094l2.11327 1.2461m-2.98437-.71095l1.05469.6211m12.84765-1.55078l-5.42578 4.46484m5.42578-4.46484l2.26563.9414m10.85937-1.15625l-5.04297 4.89063m5.04297-4.89063l2.33594.7539m10.48047-1.17968l-4.04688 5.74219m3.45704-4.90625l1.21875.15234m11.3789-1.55469l-1.4336 6.87891m1.22267-5.8789l1.17968-.34375m13.20313-.35938l-3.14453 6.28516m2.68359-5.3711l1.22656-.03125m10.66016-1.24219l.63281 7m12.23828-6.92968l1.51953 6.86328m-1.29687-5.86328l.9336-.79688m13.9375-.13672l-2.03516 6.72657m14.87109.10937l-1.07813-6.94531m.92188 5.9336l-.98047.73827m15.89453-.29687l-3.96093-5.80469m3.3828 4.96094l-.5703 1.08594m13.05859.3203l-1.15625-6.92968m1.15625 6.92969l-1.94531 1.4961m15.08203-1.46876l-.79688-6.98047m.79688 6.98047l-2.02344 1.39063m1.90625-2.40625l-1.01172.69531m15.41016.0664l-2.72656-6.47656m2.72656 6.47657l-1.55078 1.90234m14.99218-1.95703l-2.98046-6.36328m2.98046 6.36328l-1.47656 1.96094m15.58985-2.47657l-4.57813-5.33203m3.91016 4.55469l-.44532 1.14453m15.64063-2.76562l-7.0039-.53516m5.98437.45703l.49219 1.125m13.17578-3.38672l-5.67188 4.14453m19.65625-2.33203l-7.00781.51953m5.98828-.4453l.65234 1.03905m13.22657-2.60156l-6.09766 3.4961m5.21094-2.98829l1.03906.65235m13.49219-.3789l-6.75781 1.92968m5.77343-1.64844l.85157.88281m13.5039.55079l-6.86719-1.5m20.125-.22266l-6.7539 1.94531m5.76953-1.66015l.85547.8828m13.39844-1.30859l-6.66407 2.23047m6.66407-2.23047l1.78125 1.6875m-2.75-1.36328l.89062.84375m12.6836-2.39062l-5.2461 4.67578"/><g clip-path="url(#al)"><path fill="none" stroke="#000" stroke-linecap="round" stroke-linejoin="round" stroke-miterlimit="10" stroke-width=".5" d="M466.1836 318.21094l2.30077.84765"/></g><path fill="none" stroke="#000" stroke-linecap="round" stroke-linejoin="round" stroke-miterlimit="10" stroke-width=".5" d="M465.42188 318.89063l2.30078.85156"/><path fill="#ff3030" fill-rule="evenodd" d="M291.28906 409.94922h7.6914v-10.14453h-7.6914v10.14453"/><path fill="azure" fill-rule="evenodd" d="M293.1211 401.63672h.83593v5.73828h3.1914v.74219h-4.02734v-6.48047"/><path fill="#ff3030" fill-rule="evenodd" d="M260.21875 374.4414h7.69531v-10.14452h-7.69531v10.14453"/><path fill="azure" fill-rule="evenodd" d="M262.05469 366.1289h.83203v5.7422h3.19531v.73827h-4.02734v-6.48046"/><path fill="#ffffe0" fill-rule="evenodd" d="M359.4961 426.78516h22.17968v-10.19141H359.4961v10.1914"/><path fill-rule="evenodd" d="M362.9961 418.42578h.51171v6.29688h-.78906v-4.4922h-1.38672v-.55468l.5586-.0625.25-.05469.23046-.08984.20313-.14063.17578-.21093.14063-.29297.10546-.39844m4.8125 0l.23047.01953.21875.05469.20703.08984.19922.1211.1836.15234.17187.17188.30078.42187.24219.49219.17969.54687.11328.57813.03906.59375-.03906.59375-.11328.58203-.17969.55469-.24219.5-.30078.42969-.17187.17968-.1836.15235-.19922.125-.20703.08984-.21875.0586-.23047.01952-.22656-.01953-.21875-.05859-.21094-.08984-.1953-.125-.1836-.15235-.17188-.17969-.30078-.42968-.24219-.5-.17968-.55469-.11329-.58203-.03906-.59375h.83594l.02734.5625.08204.5039.125.44532.16406.375.1914.30078.21094.21875.22266.13672.22265.04687.22657-.04687.22265-.13672.21094-.21875.1914-.30078.16407-.375.125-.44531.08203-.50391.02734-.5625-.02734-.5625-.08203-.5-.125-.4375-.16406-.36328-.19141-.29297-.21094-.21485-.22265-.1328-.22657-.04298-.22265.04297-.22266.13281-.21094.21485-.1914.29297-.16406.36328-.125.4375-.08204.5-.02734.5625h-.83594l.03906-.59375.11329-.57813.17968-.54687.2422-.49219.30077-.42187.17188-.17188.1836-.15234.1953-.1211.21094-.08984.21875-.05469.22656-.01953m4.95313 0l.23047.01953.21875.05469.20703.08984.19922.1211.1836.15234.17187.17188.30078.42187.24219.49219.17968.54687.11328.57813.03907.59375-.03907.59375-.11328.58203-.17969.55469-.24218.5-.30078.42969-.17188.17968-.1836.15235-.19921.125-.20703.08984-.21875.0586-.23047.01952-.22656-.01953-.21875-.05859-.21094-.08984-.19531-.125-.1836-.15235-.17187-.17969-.30078-.42968-.2461-.5-.17969-.55469-.10937-.58203-.03906-.59375h.83203l.03125.5625.08203.5039.125.44532.16406.375.1875.30078.21094.21875.22266.13672.22656.04687.22656-.04687.22266-.13672.21094-.21875.1914-.30078.16406-.375.125-.44531.08204-.50391.02734-.5625-.02735-.5625-.08203-.5-.125-.4375-.16406-.36328-.1914-.29297-.21094-.21485-.22266-.1328-.22656-.04298-.22656.04297-.22266.13281-.21094.21485-.1875.29297-.16406.36328-.125.4375-.08203.5-.03125.5625h-.83203l.03906-.59375.10938-.57813.17968-.54687.2461-.49219.30078-.42187.17187-.17188.1836-.15234.1953-.1211.21095-.08984.21875-.05469.22656-.01953m4.95312 0l.38672.02735.35938.08593.32422.13281.27734.1875.23047.23829.17187.28515.10938.33203.03906.37891-.01953.27344-.0586.23437-.08593.19922-.11328.17188-.1289.14453-.14063.1211-.28516.1953.23047.1211.20703.14453.1836.17187.15234.19532.125.21484.08984.22656.05469.2461.01953.2539-.03516.3125-.10156.32422-.17187.32422-.23829.3086-.30859.26952-.375.21485-.21094.07812-.22656.0625-.2461.03907-.26171.01171-.25781-.01171-.2422-.03907-.22265-.0625-.20703-.07812-.35937-.21485-.28907-.26953-.22265-.30859-.15625-.32422-.09375-.32422-.03125-.3125h.83203l.02734.2539.07813.23438.125.21485.16015.1836.19141.15233.21875.11329.24219.07421.2539.02344.25782-.02344.23828-.07421.21875-.11329.19531-.15234.16016-.1836.12109-.21484.07813-.23437.02734-.2539-.02735-.25-.07812-.23829-.1211-.21094-.16015-.18359-.19531-.15234-.21875-.1172-.23828-.0703-.25782-.02735-.2539.02735-.24219.0703-.21875.1172-.1914.15234-.16016.1836-.125.21093-.07813.23828-.02734.25h-.83203l.01953-.2539.05469-.23829.09375-.22265.12109-.21094.15625-.1875.17969-.17578.20703-.15234.23437-.13282-.28906-.1953-.13672-.1211-.13281-.14453-.10938-.17188-.08984-.19922-.05469-.23437-.02343-.27344h.78906l.02344.21484.0664.19141.10156.16406.13672.14063.16797.11328.1875.07812.20703.05079.21875.01953.22266-.01954.20703-.05078.1875-.07812.16406-.11328.13672-.14063.10547-.16406.0664-.1914.02344-.21485-.02343-.21484-.0664-.19141-.10548-.16797-.13672-.13672-.16406-.11328-.1875-.08203-.20703-.05078-.22266-.01563-.21875.01563-.20703.05078-.1875.08203-.16797.11328-.13671.13672-.10157.16797-.0664.1914-.02344.21485h-.78906l.03906-.3789.10937-.33204.17188-.28515.23047-.23829.28125-.1875.32031-.1328.35938-.08594.38671-.02735"/><path fill="#ffffe0" fill-rule="evenodd" d="M236.35547 401.30469h22.17969v-10.1914h-22.1797v10.1914"/><path fill-rule="evenodd" d="M239.85547 392.94531h.50781v6.29297h-.78516V394.75h-1.39062v-.55469l.5586-.0664.2539-.0547.23047-.08593.20312-.14453.17188-.20703.14453-.29688.10547-.39453m4.8125 0l.23047.01953.21875.0547.20703.08983.19531.1211.1836.14844.17187.17578.30469.42187.24219.49219.17968.54688.10938.57812.03906.58984-.03906.59375-.10938.58594-.17969.55469-.24218.5-.30469.42969-.17188.17968-.18359.15235-.19531.125-.20703.08984-.21875.0586-.23047.01953-.23047-.01954-.21875-.05859-.20703-.08984-.19531-.125-.1836-.15235-.17187-.17968-.30469-.4297-.24219-.5-.17969-.55468-.10937-.58594-.03906-.59375h.83203l.02734.56641.08203.5039.12891.44141.16016.375.1914.30078.21094.22266.22266.13672.22656.04687.22656-.04687.22266-.13672.21094-.22266.1914-.30078.16016-.375.1289-.4414.07813-.50391.03125-.5664-.03125-.5586-.07813-.5-.1289-.4375-.16016-.36719-.1914-.28906-.21094-.21484-.22266-.13282-.22656-.04296-.22656.04296-.22266.13282-.21094.21484-.1914.28906-.16016.36719-.1289.4375-.08204.5-.02734.5586h-.83203l.03906-.58985.10938-.57813.17968-.54687.24219-.49219.30469-.42187.17187-.17578.1836-.14844.1953-.1211.20704-.08984.21875-.05469.23047-.01953m4.95312 0l.23047.01953.21875.0547.20703.08983.19532.1211.18359.14844.17188.17578.30078.42187.24609.49219.17969.54688.10937.57812.03906.58984-.03906.59375-.10937.58594-.17969.55469-.2461.5-.30077.42969-.17188.17968-.1836.15235-.1953.125-.20704.08984-.21875.0586-.23047.01953-.23047-.01954-.21875-.05859-.20703-.08984-.1953-.125-.1875-.15235-.16798-.17968-.30469-.4297-.24218-.5-.17969-.55468-.11328-.58594-.03516-.59375h.83203l.02735.56641.08203.5039.1289.44141.16016.375.1914.30078.21095.22266.22265.13672.22656.04687.22657-.04687.22265-.13672.21094-.22266.1914-.30078.16016-.375.125-.4414.08203-.50391.03125-.5664-.03125-.5586-.08203-.5-.125-.4375-.16015-.36719-.19141-.28906-.21094-.21484-.22265-.13282-.22657-.04296-.22656.04296-.22266.13282-.21093.21484-.1914.28906-.16017.36719-.1289.4375-.08203.5-.02735.5586h-.83203l.03516-.58985.11328-.57813.17969-.54687.24219-.49219.30468-.42187.16797-.17578.1875-.14844.19531-.1211.20703-.08984.21875-.05469.23047-.01953m4.95313 0l.38672.02735.35937.08203.32031.13672.28125.1875.23047.23828.17188.28515.10937.33204.03516.3789-.01953.27344-.0586.23437-.08593.19922-.11328.17188-.12891.14453-.13672.1211-.28906.1953.23437.1211.20703.14453.1797.17188.15624.1953.1211.21094.08984.23047.0586.2461.01952.2539-.03515.3086-.10547.32812-.17188.32422-.23828.30469-.30859.26953-.3711.21484-.21093.08204-.23047.0625-.24219.03515-.26172.01563-.26172-.01563-.24218-.03515-.22266-.0625-.20312-.08204-.35938-.21484-.29297-.26953-.22265-.30469-.15625-.32422-.09375-.32812-.02735-.3086h.83203l.02735.25391.07812.23438.1211.21093.16015.1875.19531.15235.21875.11328.23829.07031.2578.02734.25392-.02734.24218-.07031.21875-.11328.1914-.15235.16017-.1875.125-.21094.07421-.23437.02735-.2539-.02735-.25391-.07422-.23438-.125-.21094-.16015-.1875-.1914-.15234-.21876-.11328-.24219-.07031-.2539-.02735-.25781.02735-.23828.07031-.21875.11328-.19532.15235-.16015.1875-.1211.21093-.07812.23438-.02735.2539h-.83203l.01953-.2539.0547-.23828.08983-.22657.125-.20703.15235-.1914.1836-.17188.20702-.15234.23047-.13281-.28515-.19532-.14063-.1211-.1289-.14452-.11329-.17188-.08593-.19922-.0586-.23437-.01953-.27344h.78516l.02344.21094.0664.1914.10547.16797.13672.14063.16406.10937.1875.08204.20703.05078.22266.01562.21875-.01562.20703-.05079.1875-.08203.16797-.10937.13672-.14063.10156-.16796.0664-.19141.02344-.21094-.02343-.21484-.06641-.1914-.10156-.16798-.13672-.14062-.16797-.10938-.1875-.08203-.20703-.05078-.21875-.01563-.22266.01563-.20703.05078-.1875.08203-.16406.10938-.13672.14062-.10547.16797-.0664.1914-.02344.21485h-.78516l.03906-.3789.10547-.33204.17578-.28515.23047-.23828.27735-.1875.32422-.13672.35937-.08203.38672-.02735"/><path fill="#ffffe0" fill-rule="evenodd" d="M332.86719 340.67969h22.17969v-10.1914h-22.1797v10.1914"/><path fill-rule="evenodd" d="M336.36719 332.32031h.50781v6.29688h-.78516V334.125h-1.39062v-.55469l.5625-.0664.25-.05079.23047-.08984.20312-.14062.17578-.21094.14063-.29688.10547-.39453m4.8125 0l.23047.01953.21875.0547.20703.08983.19531.1211.1875.14844.16797.17578.30469.42187.24218.49219.1797.54688.11327.57812.03516.59375-.03516.58984-.11328.58594-.17969.55469-.24218.5-.3047.42969-.16796.17968-.1875.15235-.19531.125-.20703.08984-.21875.0586-.23047.01953-.23047-.01954-.21875-.05859-.20703-.08984-.19531-.125-.1836-.15235-.17187-.17968-.30079-.4297-.24609-.5-.17969-.55468-.10937-.58594-.03906-.58984h.83203l.03125.5625.08203.5039.125.44532.16015.375.19141.29687.21094.22266.22265.13672.22657.04687.22656-.04687.22266-.13672.21093-.22266.19141-.29687.16016-.375.1289-.44531.08203-.50391.02735-.5625-.02735-.5625-.08203-.5-.1289-.4375-.16016-.36328-.1914-.29297-.21094-.21484-.22266-.13282-.22656-.04296-.22656.04296-.22266.13282-.21094.21484-.1914.29297-.16016.36328-.125.4375-.08203.5-.03125.5625h-.83203l.03906-.59375.10937-.57813.1797-.54687.24608-.49219.30079-.42187.17187-.17578.1836-.14844.1953-.1211.20704-.08984.21875-.05469.23047-.01953m5.09375 0h.50781v6.29688h-.78906V334.125h-1.38672v-.55469l.5586-.0664.2539-.05079.23047-.08984.20312-.14062.17188-.21094.14062-.29688.10938-.39453m2.82031 2.17578h.78906l.01953-.3164.0586-.28516.09765-.2539.14063-.21485.1836-.17187.22265-.12891.26562-.08203.3086-.02735.23437.01954.22656.0625.20313.10156.17969.14062.14844.17188.11328.20703.0703.23438.02735.26562-.02344.26953-.0664.22266-.10938.1914-.15625.17188-.19921.16406-.2461.16406-.63672.39063-.53515.3125-.4375.3164-.34766.32422-.26172.33594-.1914.35156-.125.3711-.07032.39062-.01953.42188h4.21094v-.74219h-3.33203l.08203-.28516.11328-.23437.14844-.20313.1875-.17968.23047-.17188.28125-.17578.71484-.41406.41797-.20703.34375-.23047.28125-.25.21875-.26953.16406-.27735.10938-.28515.0664-.28516.01953-.28125-.04296-.38281-.1211-.34766-.1875-.3086-.25-.26171-.30078-.21094-.34766-.16015-.3789-.09766-.40625-.03516-.4375.03516-.39844.09765-.35547.16407-.30469.23437-.24609.30469-.1875.375-.11328.44531-.04297.51953"/><path fill="#ffffe0" fill-rule="evenodd" d="M226.34766 336.9336h22.17968v-10.19141h-22.17968v10.1914"/><path fill-rule="evenodd" d="M229.84766 328.57422h.5078v6.29687h-.78905v-4.49218h-1.38672v-.5547l.5586-.0625.2539-.05468.23047-.08984.20312-.14063.17188-.21094.14453-.29296.10547-.39844m4.8125 0l.23047.01953.21875.05469.20703.08984.1953.1211.1836.15234.17188.17578.30078.41797.2461.49219.17968.54687.10938.57813.03906.59375-.03906.59375-.10938.58203-.17969.55469-.2461.5039-.30077.42578-.17188.17969-.1836.15234-.1953.125-.20703.08985-.21875.0586-.23047.01952-.23047-.01953-.21875-.0586-.20703-.08984-.19532-.125-.1875-.15234-.16797-.17969-.30468-.42578-.24219-.5039-.17969-.5547-.11328-.58202-.03516-.59375h.83204l.02734.5625.08203.5039.1289.44531.16016.375.19141.30079.21094.21875.22265.13671.22657.04688.22656-.04688.22266-.13671.21093-.21875.1914-.30079.16017-.375.1289-.4453.07813-.50391.03125-.5625-.03125-.5625-.07813-.5-.1289-.4336-.16016-.36719-.1914-.29296-.21095-.21485-.22265-.1289-.22656-.04688-.22657.04688-.22265.1289-.21094.21485-.1914.29296-.16016.3672-.1289.43359-.08204.5-.02734.5625h-.83203l.03515-.59375.11328-.57813.17969-.54687.24219-.4922.30469-.41796.16796-.17578.1875-.15235.19532-.12109.20703-.08984.21875-.05469.23047-.01953m5.08984 0h.51172v6.29687h-.78906v-4.49218h-1.38672v-.5547l.5586-.0625.2539-.05468.22656-.08984.20313-.14063.17578-.21094.14062-.29296.10547-.39844m2.82422 2.17578h.78906l.01953-.3164.0586-.28516.09765-.2539.14063-.21485.17969-.17188.22265-.1289.26563-.08204.30859-.02734.23828.02344.22266.0625.20703.10156.17969.13672.14843.17188.11328.20703.07032.23437.02344.26563-.01954.26953-.0664.22265-.10938.19532-.15625.16796-.19922.16407-.25.16406-.6328.39063-.53517.3125-.4414.3164-.34375.32422-.26563.33594-.1875.35156-.125.3711-.0703.39062-.01954.42187h4.21094v-.74218h-3.33203l.08203-.28516.11328-.23438.14844-.20312.1875-.17969.23047-.17187.27734-.17578.71875-.41407.41406-.20703.34766-.23047.28125-.25.21875-.26953.16406-.27734.10938-.28516.0625-.28515.02343-.28125-.04297-.38282-.12109-.34765-.1875-.3086-.25-.26171-.30469-.21094-.34375-.16016-.38281-.09765-.40625-.03516-.4336.03515-.39843.09766-.35547.16797-.30469.23438-.2461.30078-.1875.375-.11718.4453-.03906.51954"/></g></defs><use xlink:href="#am"/></svg>