<svg xmlns="http://www.w3.org/2000/svg" role="img" xmlns:xlink="http://www.w3.org/1999/xlink" viewBox="142.45 309.95 326.84 171.84"><defs><clipPath id="a"><path d="M144 441h1v39.32813h-1zm0 0"/></clipPath><clipPath id="b"><path d="M144 311.67188h1V440h-1zm0 0"/></clipPath><clipPath id="c"><path d="M144 311.67188h324v168.65625H144zm0 0"/></clipPath><clipPath id="d"><path d="M351 478h8v2.32813h-8zm0 0"/></clipPath><clipPath id="e"><path d="M409 479h2v1.32813h-2zm0 0"/></clipPath><clipPath id="f"><path d="M467 471h1v9.32813h-1zm0 0"/></clipPath><clipPath id="g"><path d="M467 311.67188h1V472h-1zm0 0"/></clipPath><clipPath id="h"><path d="M144 479h4v1.32813h-4zm0 0"/></clipPath><clipPath id="i"><path d="M147 480h2v.32813h-2zm0 0"/></clipPath><clipPath id="j"><path d="M153 479h8v1.32813h-8zm0 0"/></clipPath><clipPath id="k"><path d="M160 480h2v.32813h-2zm0 0"/></clipPath><clipPath id="l"><path d="M167 478h8v2.32813h-8zm0 0"/></clipPath><clipPath id="m"><path d="M180 479h8v1.32813h-8zm0 0"/></clipPath><clipPath id="n"><path d="M193 480h9v.32813h-9zm0 0"/></clipPath><clipPath id="o"><path d="M200 480h3v.32813h-3zm0 0"/></clipPath><clipPath id="p"><path d="M206 479h9v1.32813h-9zm0 0"/></clipPath><clipPath id="q"><path d="M213 479h3v1.32813h-3zm0 0"/></clipPath><clipPath id="r"><path d="M220 479h8v1.32813h-8zm0 0"/></clipPath><clipPath id="s"><path d="M227 479h3v1.32813h-3zm0 0"/></clipPath><clipPath id="t"><path d="M233 479h8v1.32813h-8zm0 0"/></clipPath><clipPath id="u"><path d="M240 480h2v.32813h-2zm0 0"/></clipPath><clipPath id="v"><path d="M246 479h9v1.32813h-9zm0 0"/></clipPath><clipPath id="w"><path d="M252 480h2v.32813h-2zm0 0"/></clipPath><clipPath id="x"><path d="M260 479h8v1.32813h-8zm0 0"/></clipPath><clipPath id="y"><path d="M266 480h2v.32813h-2zm0 0"/></clipPath><clipPath id="z"><path d="M273 478h8v2.32813h-8zm0 0"/></clipPath><clipPath id="A"><path d="M279 480h1v.32813h-1zm0 0"/></clipPath><clipPath id="B"><path d="M286 479h9v1.32813h-9zm0 0"/></clipPath><clipPath id="C"><path d="M292 480h2v.32813h-2zm0 0"/></clipPath><clipPath id="D"><path d="M300 479h8v1.32813h-8zm0 0"/></clipPath><clipPath id="E"><path d="M306 480h2v.32813h-2zm0 0"/></clipPath><clipPath id="F"><path d="M313 479h8v1.32813h-8zm0 0"/></clipPath><clipPath id="G"><path d="M319 480h2v.32813h-2zm0 0"/></clipPath><clipPath id="H"><path d="M326 478h8v2.32813h-8zm0 0"/></clipPath><clipPath id="I"><path d="M332 480h2v.32813h-2zm0 0"/></clipPath><clipPath id="J"><path d="M340 478h7v2.32813h-7zm0 0"/></clipPath><clipPath id="K"><path d="M354 477h6v3.32813h-6zm0 0"/></clipPath><clipPath id="L"><path d="M369 476h2v4.32813h-2zm0 0"/></clipPath><clipPath id="M"><path d="M381 476h5v4.32813h-5zm0 0"/></clipPath><clipPath id="N"><path d="M394 477h6v3.32813h-6zm0 0"/></clipPath><clipPath id="O"><path d="M407 477h6v3.32813h-6zm0 0"/></clipPath><clipPath id="P"><path d="M420 477h7v3.32813h-7zm0 0"/></clipPath><clipPath id="Q"><path d="M433 477h7v3.32813h-7zm0 0"/></clipPath><clipPath id="R"><path d="M447 477h7v3.32813h-7zm0 0"/></clipPath><clipPath id="S"><path d="M461 477h5v3.32813h-5zm0 0"/></clipPath><clipPath id="T"><path d="M144 465h4v4h-4zm0 0"/></clipPath><clipPath id="U"><path d="M144 451h4v5h-4zm0 0"/></clipPath><clipPath id="V"><path d="M144 437h3v6h-3zm0 0"/></clipPath><clipPath id="W"><path d="M466 439h2v3h-2zm0 0"/></clipPath><clipPath id="X"><path d="M144 424h4v6h-4zm0 0"/></clipPath><clipPath id="Y"><path d="M466 424h2v3h-2zm0 0"/></clipPath><clipPath id="Z"><path d="M465 425h3v3h-3zm0 0"/></clipPath><clipPath id="aa"><path d="M144 411h4v5h-4zm0 0"/></clipPath><clipPath id="ab"><path d="M466 411h2v3h-2zm0 0"/></clipPath><clipPath id="ac"><path d="M465 412h3v3h-3zm0 0"/></clipPath><clipPath id="ad"><path d="M144 399h4v3h-4zm0 0"/></clipPath><clipPath id="ae"><path d="M466 398h2v3h-2zm0 0"/></clipPath><clipPath id="af"><path d="M465 399h3v3h-3zm0 0"/></clipPath><clipPath id="ag"><path d="M144 385h4v4h-4zm0 0"/></clipPath><clipPath id="ah"><path d="M466 385h2v4h-2zm0 0"/></clipPath><clipPath id="ai"><path d="M144 371h4v6h-4zm0 0"/></clipPath><clipPath id="aj"><path d="M466 372h2v3h-2zm0 0"/></clipPath><clipPath id="ak"><path d="M144 357h3v7h-3zm0 0"/></clipPath><clipPath id="al"><path d="M466 358h2v3h-2zm0 0"/></clipPath><clipPath id="am"><path d="M144 344h3v7h-3zm0 0"/></clipPath><clipPath id="an"><path d="M466 345h2v3h-2zm0 0"/></clipPath><clipPath id="ao"><path d="M465 345h3v3h-3zm0 0"/></clipPath><clipPath id="ap"><path d="M144 331h3v6h-3zm0 0"/></clipPath><clipPath id="aq"><path d="M466 332h2v3h-2zm0 0"/></clipPath><clipPath id="ar"><path d="M465 332h3v3h-3zm0 0"/></clipPath><clipPath id="as"><path d="M144 318h4v5h-4zm0 0"/></clipPath><clipPath id="at"><path d="M466 318h2v2h-2zm0 0"/></clipPath><clipPath id="au"><path d="M465 318h3v3h-3zm0 0"/></clipPath><g id="av" clip-path="url(#clip1)"><path fill="#fff" fill-opacity="0" fill-rule="evenodd" d="M0 0h1000v1000H0zm0 0"/><path fill="#d3d3d3" fill-opacity="0" fill-rule="evenodd" d="M162.15234 355.86719l-.23437.29297.0586.23437.11718.17188.17578.23437.29297.34766.11328.0586.11719-.17188.0586-.23438.17577-.17578.46485-.17578h.69922l.23437.29297.28906.8164.0586.17579.17578.23046.35156.23438.69922.69922.17188.17578.23437.34765.23438.41016.28906.58203.41015.46485.23047.23437.23438.17578.11719.23047.17578.29297.17187 1.16406v.23438l.0586.28906.05859.11719.11719.11719.34765.41015.11719.17188.17578.17578.17578.23437.11719.17188.17188.35156.05859.23438.23437.40625.23438-.0586-.17578.17578-.0586.92969h-.58203l-.23437-.11328-.34766.11328-.11719.11719-.05859.29297-.0586.17578-.11718.17187-.46484.29297-.0586.23438-.0586.11328v.64453l.0586.17187v.41016l.0586.0586v.40624l.05859.40625.11719.17579.05859.05859.23047.64062-.0586.29297v.69922l-.05859.58203v.23438l-.0586.23047-.05468.35156v1.92187l.05469.1172h.42578l-.36719.11718-.02344.35156.89063 1.16797 1.74219.53906 1.33984.35938v.53906l.08984.8086.53516.71484 1.51953.26953.89063-.08594.08984 1.16406.53516.1797 1.16015-.1797 2.05469-.98437 1.16016-.36328 1.8789-.17578 1.69531-.1797-.17968.71876-1.51563.08594-1.25.08984-.80469.26953-1.07421.8086.26953.71875.53515.89843-.17968.625-.26563.8086.26563 1.07812.625.89844.80468.17969 1.25-.1797-.26562.72267.09766.5039.05468.29297v.17188l.0586.29296v.40625l.17578.1172.35156.11718h.40625l.29297-.17578.11328-.11719.0586-.11719.11718-.23047.0586-.17578.35156-.46484.23047-.17578.17578-.0586.17578.0586.0586.17578.11718.98828.05469.46875.0586.17188.11718.23437.17578.0586.8164.05859h.28907l.11719.23437.05859.40625.0586.35156v1.10547l.11718.29297.11719.34766.28906.69922.17578.35156.58203.7539.35157.17579.17187.0586.46875.23437.64063.46484.34765.23438.29297.17578.29297.05468.23047.0625.8164.34766.29297.17578.11328.17188.35157.35156.11719.17578.52343.64063v.28906l.0586.35156v.34766l.05859.35156.0586.28906.11718.0586.17188.05859h.17578l.58203.23437.17578.1172.17578.28905.17578.23438.11328.23437.29297.23047.11719.11719v.41016l.0586.05468.28906.23438.23437.11719.0586.11718.11718.17188.0586.11719.23047.23437.05859.17578.23437.0586.1172.05859-.1172.11328-.05859.11719v.11719l-.11719.29296-.11719.28907v.58203l.17579.11719.11718.05859.0586.11719.11719.11719.11328.05859.17578.34765.0586.35157.05858.40625v.17578l-.05859.17578-.11719.69922v.17187l.1172.17579.29296.29296h.40625l.17578.1172.11719.17187.11719.29296v.23438h-.52735l-.23047-.23438h-.23437l-.17578.0586-.0586.69922.0586.34765.11719.17579.17578.41015.11718.23047.28907.46875.17578.05469h.52344l.23437.0586.75781.64062.0586.29296v.23438l.05859.0586.23047.34765v.35156l-.11719.17188v.29297l.29297.28906.29297.17578.17187.0586.29297.17577.29297.1172.58203.40624.28906.23438.29297.17578.21875.16015.01563.01172.23047.17579.64062.52343.17578.23438.1172.17578.17577.17578.11328.17188v.64062l.1172.17578.46874.11719.58203.11719.23438.05859.23047.11328.29297.11719.11328.0586.58593.35156.28907.17187.17578.0625.17578.05469.17578.0586.69922.35155.28906.17579.23438.05468.28906.17578.23437.1172.64063.40624.29297.11719.17187.0586.23438.05859.41015.05859.23047.0586.23438.11718.0586.17188-.41017.17578.46875.0586.0586.29296.11328.23438.17578.05468.23438.0586.17578.05859.40625.11719.64062.23437.11719.17188.0586.23437v.17578l-.0586.1172-.0586.40624.23438.23438.11719.05859.34766.11719.64062.23047.17578.11718.28906.1172.17578.17577.23438.46485.58203 1.10546.17578.17579.34766.17578.17578.11719.35156.11718 1.04688.52344.23437.0586.46485.11327.29297.0586.46484.17578.75781.58203.23438.23438.34765.46484.17578.17578.28907.23438.8164.69921.29297.17579.28906.28906.29297.17578.29297.28906.69531.64063.17578.17578.29297.23437.28907.23438.46875.28906.64062.58203.34766.23438.23437.29297.34766.34765.35156.46485.9336.99218.34765.40625.11719.17579.23437.05859.11328.11719.64454.17578.23047.11328.23437.0586.29297.17577.23047.1172.9336.69921.40624.40625.23438.17578.40625.17578.23437.11719.8164.34766.34766.23437.23438.11719.29297.28906.23047.11719.7578.35156.35157.17188.23047.05859.29297.11719.23437.0586.8711.17577h.8164l.46875.23047.17188.0586.875.69921.46484.1172.29297.05858.17578.0586.23047.0586.46875.05859.34766.05859.35156.0586.40625.05859h.29297l.17187.0586v.23046l.17578.17578h.29297l.34766.0586.35156.05859.69922.11719h.64063l.46484-.23438.29297-.17578.17187-.11719.41016-.17187.28906-.17578.9336-.46485.46875-.29297.52343-.29296.46485-.17188.46484-.17578 1.05078-.46485.28906-.11718.41016-.11719.28906-.11719.52735-.17578 1.51562-.69922.58203-.34765.28907-.0586.29297-.0586.34765-.11718.875-.23047.35156-.11719h.11329l.23437-.05859.875-.23437.23438-.0586h.8125l.35156-.0586.8164-.11718.17188-.0586.35156-.05468.29297-.0586.23047-.05859.8164-.17578.17579-.0586h.34765l.23438-.05859.46484-.11718.75781-.17188.23438-.0586h.34765l.41016-.11718.28906-.0586 1.28516-.05859h.28906l.41016-.0586.23047-.05858h.17578l.875-.1172h.40625l.41015-.11718h.34766l.35156-.11328.8711-.0586h1.75l1.04687.28907.41016.11719.28906.11718.35156.11719.28907.11719 1.05078.17187.28906.0586h.29297l.29297.05859.17187.0586.41016.05859.17187.0586.1172.05858h.11718l.11719.0586.35156.0586h.11328l.41016.0664 1.92187.39453 1.92578.39453 1.51953.44922 1.69532.71875 2.14453.80469 1.60547-.71875 1.42968-.80469 1.16016-1.07813 1.25-.44921 3.03516-.71875 1.875-.35938 2.14453-1.34765 2.23437-1.25391 2.5-1.25781 1.69531-.44922 1.78516-.17969 1.16016-.26953.625.53906 1.33984-.26953.71485-.98828.98437-1.34375.44531-.17969.80469-.35937 1.875-.53907 1.78516-.44921 1.25-.26954 1.16015-.08984 1.69922-.08984 1.96094-.26954 1.25-.08984h.53906l.625-.08984h.89063l2.14453-.17969 2.41015-.17969 2.58985-.08984 1.69531.17969 1.60938.08984 1.42968.35938 1.16016.71875 1.875.98828 1.16015 1.52734.26563.71484.6289.08985.35548.89844.53515.53906.53516 1.52734 1.07422.35938h.53515l-.80469.53515.08985 1.70703.71484 2.69532.89063.80468.89453.98829.71484 1.2578 1.78516.53907 1.51953-.17969.35547 1.34375 1.60937-.80469.98047-.53906.26953.26953.31641-.21484.21875-.14453.80078.44922.44922-.35938h.35547l.53515-.26953.53907-.71875.53515-.26953.625-.98828 1.16016.44922.83984.3711 1.39454.61718 1.6953-.17969h1.60548l1.78515.08985.17969-1.70704.53516-1.34375.80468.26954.4922.84765.40233.40625-.08984.53906v.35938l.71485.44922.71093-.26953h1.42969l.35938.98828.4453 1.25781.71485 1.34375 1.25.6289 1.69531.62891.71485-.17969.17969-.53906.98046-.08984.44922.35937.08594 1.25782-.26563.6289-.53515.17969v.53906l.71484.98438.26563.53906.98437.98828.80078 1.07813-.26562.35937-.08985.89844-.625 2.33203-.35546 2.0664-.08985 1.79298-.17969.71875-.08984.53906v1.4375l-.98047 1.88281-.35937 1.70703-.53516.89844-.80469 1.16797-.26562.53906 2.05469 1.2539.08593.35938-.35546.53906-.08985-.17968v.80859l.08985 1.4375-.44532.71484-1.07422.09375-.26562.71485.53515.89844.8047.71875 1.16015.80859 1.33984.26953.44531.35938-.35546.44921-1.78907-.08984-1.25-.44922-.71484-.71875-.625-.08984-.17578 3.58984-.1875 1.3086h89.35937V311.70313h-55.26953v49.08203l.76172.125 3.28906.54296 2.02344 2.83594v2.7539l2.35156.33204 2.34766.33203h4.05078l-1.3789 4.16016-2.02344.70703-2.02344.70312-.54297.34375-2.59375 1.6172-.1875.11718-2.02344-2.07813-.73046-2.74218-2.67188-2.07813-1.375-3.5-.0664-.08203-1.95704-2.67188 2.75-1.41796v-49.08204H294.42187v91.41407l.1172.03125.1328.01172.07422.07421.10547.04688.08985.0586.08593.05859.08985.0586.29687.29687.0586.08984.03125.11719.02734.11719.01563.13671-.03125.1172-.0586.08983-.0586.08594-.04296.10547-.04688.10156-.02734.1211v.14453l.17578.26953.14844.14844.07422.08594.07422.07421.04296.10547.0625.08985.0586.08593.04297.10547.0586.08985.04687.10156.04296.10547.0586.08594.11719.17968.07421.07422.0625.08594.0586.08984.04297.10547.0586.08985.05858.08593.0625.08985.0586.08984.04297.10156.11719.17969.07421.07422.0586.08594.07422.07421.08984.0586.10547.04687h.14844l.1328-.01562.13282.01562.10156-.04687.07422-.07422.04688-.10156-.01563-.13281v-.14844l-.04687-.10547-.02735-.11719-.04687-.10156-.02735-.1211-.04296-.10156-.0625-.08984-.04297-.10156-.04297-.10547-.03125-.11719-.01563-.13281-.01171-.13672.08593-.0586.0586-.08593.12109-.03125.04297.10547.01562.1328v.1172l.0586.10156.0586.08984.08983.0586.14844.14843.0586.08985.04296.10547-.01171.10156.08593.0586.10547.04687.08594.0586.08984.05858.07422.07422-.11719.02735-.10546.04687-.08594.0586-.07422.07421-.0586.08985-.0625.08594-.02734.12109-.04687.10156-.04297.10547-.03125.11719-.01172.13281-.01563.13281v.14844l.02735.11719.04687.10547.04297.10156.0586.08984.07421.07422.08985.0586.07422.07421.08984.0586.0586.08984.04296.10547.04688.10156.11719.03125.1328.01563h.14845l.11718-.03125.10547.04297.04297.10547.04688.10156.02734.1211L299.5 410l.02734.11719.03125.1211.02735.11718.10547.04297.10156.04687.13281-.01562.14844.14844.0625.08593.07422.07422.07031.07422.08984.0625.10547.04297.10156.04297.1172.03125.13671.01562.11719-.03125.07422-.07422.02734-.11718-.01172-.13282-.03125-.12109-.02734-.11719.04297-.10547h.11719l.08984.0625.11719.02735h.14843l.13282.01562h.14843l.13282.01563.1328-.01563h.14845l.1328-.01562.13282-.01172.13672.01172.11719-.02735.13281-.01562.1914-.0586-.05859.17579-.01562.1328-.02735.1211-.01562.13281-.0586.08594-.1328.01563-.10548.04687-.10546.04297-.1172.03125-.11718.02735-.26563.03125h-.14843l-.13281.01562-.07422.07422.05859.08594.14844.14843.11719.1797.07421.0703.08985.0625.08984.0586.08594.0586.08984.05858.10156.04297.10547.0625.10547.04297.08594.0586.10547.04687.10156.04297.17969.11719.0586.08984-.04298.10156-.04687.10547.01562.13281.22266.22266.0586.08985.04296.10156.03125.1211.04297.10155.01563.13282.03125.11718.01171.13672.03125.11719.14844.14844.10156.04297.10547.04296.1172.03125.1328.01563.13672.01563h.11719l.11719-.03125.08984-.0586.04297-.10547.04688-.10156.04296-.10547.03125-.11719.01172-.1328v-.14845l-.01172-.1328-.01562-.13282-.03125-.11719-.04297-.10547-.04688-.10547-.04296-.10156-.04297-.10547-.01563-.13281.01563-.13281.02734-.11719.03125-.11719.02735-.1211.04687-.10155.08984-.0586.08594-.0625.07422-.07422.08984-.05859.22266-.22266.0586-.08593.07421-.07422.11719-.17969.0586-.08594v-.14844l-.07423-.07421-.10156-.04688-.10547-.04297-.10156-.04297-.0586-.08984-.04687-.10547-.02734-.11719.08984-.05859.11719-.03125.10156-.04297.17969-.11719.14844-.14843.01172-.13282-.01172-.10546-.08985-.0586-.1328.01563h-.14845l-.1328.01562-.13282-.01562-.1211-.03125-.08593-.0586-.07422-.07422-.0586-.08984-.0625-.08594-.11718-.17969-.0586-.08593.03125-.1211.08594-.05859.1211-.03125.05859-.08594v-.1211l-.03125-.11718-.0586-.08984-.05859-.08594-.04687-.10547-.02735-.11719-.01562-.1328.0586-.08985.07421-.07422.08984-.0586.1172-.17968.07421-.07422.0586-.08594.14843-.14844.1211-.03125.1328-.01562.13282.01562.07422.07422.04297.10547.01562.13281-.03125.1172-.11719.03124-.1328.01172-.14844.14844-.04297.10547-.04688.10156-.02734.1211-.03125.11718v.14844l.03125.11719.04297.10546.05859.08985.07422.07031.07422.07422.11719.03125.12109.02734.11719-.02734.1328-.01563h.1172l.08984.0586.07422.07422.04687.10546.0586.08594.10156.04688.13281.01562.10547.04297.08594.0586-.01172.10546-.07422.07422-.17969.11719-.05859.08984-.08984.0586-.07032.07422-.07421.07421-.0625.08985-.02735.11719-.01562.1328.01562.13282-.01562.13281v.14844l.01562.13281.02735.1172.03125.12108.07421.07422.08985.0586.08594.0586.08984.05858.11719.03125v.08594l-.10157.04688-.08984.0586-.26563.03124-.11718.02735h-.14844l-.10547.04296-.10156.04688-.0586.08984-.0625.23438-.01171.13281-.03125.1211-.01563.1328v.29298l-.01172.1328.01172.13673.01563.1328.1328.01563.13282.01172.1211.03125.08593.0586.07422.07421.04688.10547.04296.10157.01563.1328v.44532l-.01563.13281v.44532l.03125.26562.02735.11719.01562.13281.03125.11719.08594.21094.03125.26562v.14844l-.03125.11719-.02734.11718-.03125.1211-.02735.11719-.03125.11718-.03125.1211-.01171.1328-.01563.13282.08984.0586.1172-.03125.10155.01562.04688.10547-.03125.26562v.44141l-.04297.10547-.04688.10547-.04296.10156-.04297.10547-.0586.08594-.03125.12109-.04296.11719-.03125.11719-.01563.1328.01563.13282.05859.08984.10547.04688.08594.0586.05859.08593-.01172.13672-.03125.11719-.04297.10156v.44531l-.01562.13281v.14844l-.03125.11719-.04297.10547-.02735.11719-.04687.10546-.04297.10157-.03125.12109-.02734.11719-.03125.13281-.03125.11719-.02735.11719-.04297.10546-.03125.1172-.03125.12108-.01171.13282-.01563.13281v.29688l.02734.11718v.14844l.04688.39844.02734.11719.0586.08984.12109.03125h.14844l.13281-.01563.0586.08985v.11719l-.0586.08984-.08984.0586-.10157.04296-.10546.04688-.08985.05859-.08594.0586-.13671.01562-.1172-.03125-.1328-.01563-.10157.04688-.0625.08594-.01172.13671-.01562.13282-.03125.11719-.02735.11718-.01562.13281-.03125.1211v.29687l.01563.13282.03125.11718v.14844l.01171.13281v.14844l-.02734.11719-.04688.10156-.02734.1211-.03125.11718-.0586.08985-.07421.07421-.10156.04297-.10547.04688-.11719.02734-.1211.03125-.10156-.04687.0586-.08594.10547-.04688.02734-.11718.03125-.11719.02734-.1211.03125-.11718v-.14844l.01563-.13281-.03125-.11719-.04297-.10547-.10547.01563-.07422.07422-.10156.04296-.08984.0625-.07422.07422-.04297.10157-.01563.1328-.03125.1172L304.25 426l-.03125.11719-.02734.11719-.03125.12109-.02735.11719-.03125.11718-.04297.10547-.08984.0586h-.08984l-.1172-.03125-.03124-.08594.01562-.13672-.03125-.11719v-.14844l-.01171-.1328v-.14844l-.0625-.23438-.02735-.1211-.04297-.10156-.04687-.10546-.0586-.08594-.05859-.08985-.04297-.10546-.0625-.08594-.14844-.14844-.0703-.07422-.10548-.04687-.10547-.04297-.10156-.04297-.29687-.29688-.08985-.07421-.08594-.0586-.10546-.04297-.08985-.0625-.08594-.0586-.10546-.04296-.08985-.0586-.08594-.0625-.07421-.0703-.10547-.04688-.08594-.0586-.10547-.04296-.08984-.0625-.10156-.04297-.10547-.04297-.08594-.0586-.10547-.04687-.10547-.04297-.10156-.04687-.08985-.0586-.10156-.04297-.10547-.04296-.08984-.0625-.11719-.02735-.13281-.01562-.13281.01562H299.75l-.13281.01563-.11719-.03125-.08984-.0586-.07422-.07422-.08985-.05859-.10156-.04688h-.14844l-.12109-.02734-.10156-.04297-.07422-.07422-.11719-.17968-.08984-.0586-.10156-.04297-.08985-.0625-.10547-.04296-.08984-.0586-.08594-.0586-.10547-.04687-.0586-.08594-.05858-.08984-.04297-.10547-.04688-.10156-.07422-.07422-.08594-.0586-.07421-.07421-.08985-.0586-.22265-.22265-.04297-.10547-.03125-.26563.10547-.04296h.14453l.10547.04296.07421.07422.08985.0586.08594.0586.10546.04687.08985.05859.14844.14844.0703.07422.14845.14843.0625.08594.07421.07422.08594.0586.07422.07421.08985.0625.08984.0586.08594.05859.26953.17578.10156.04688.10547.04296.10156.04297.04688-.07421.05859-.08594.07422-.07422.07031-.07422.10547.04297.07422.07422.0586.08984.04296.10156.04688.10547.04296.10547.1211.02735.11719-.02735.07421-.08984.04297-.10547.0586-.08985.07422-.07421.10546-.04297.1172-.02735.1328.01172.08985.0586.14844.14843.05859.08985.04297.10547.04687.10156.04297.10547.04297.10156.10547.04688.10547.04296.13281.01563.08594-.0586.0586-.08984.07421-.07422.10547-.04297.11719.02735.10547.04687.10156.04297.10547.04297.10156.04688.17969.11718v.11719l-.01563.13281.01563.13281.01562.13672.0586.08594.10156.04688.1211.02734.11718.03125h.14844l.11719-.03125.05859-.08984.17969-.1172.05859-.08983.07422-.07422.0586-.08594.11718-.17969.17969-.11719.11719.03125.08984.0586.04297.07422-.01563.1328v.1172l.08985.05859h.14843l.13282-.01563.1328-.01171.26563-.03125.10547-.04297.11719-.03125.1211-.02735.07421-.07421.07031-.07422.0625-.08985-.01562-.10547-.04688-.10156-.10156-.04297-.10547-.01562-.11718.02734-.26563.03125h-.14844l-.07421-.07422-.08985-.0586-.11719-.03124-.11718-.02735-.13282-.01562h-.14843l-.13282.01563h-.29687l-.10547-.04688-.14844-.14844-.04297-.10156-.05859-.08984.22266-.22266.08593-.0586.10547-.04296.11719-.03125.13281-.01563.13281.01563.13672.01562.10157.04297.1328-.01172.08985-.0625.10156-.04297.0625-.08984-.04687-.10156-.08984-.0586-.1172-.03125-.10155-.04296-.0586-.08985-.0625-.08984v-.11719l.01563-.13281.10547-.04688.07421-.07031v-.1211l-.08984-.05859-.03125-.11719.08985-.05859.07421-.07422.04297-.10547.0586-.08984.04687-.10156.01563-.13281v-.14844l-.04688-.10547-.04297-.10156-.08984-.0586-.13281-.01562-.10157-.04297-.13671-.01563-.1172-.03125h-.4453l-.13282-.01562-.13281-.01172-.13281-.01563-.11719-.03125h-.14844l-.13281-.01562-.13281-.01172-.26563-.03125-.1211-.04297-.08593-.0586-.07422-.07421v-.14844l.01172-.13281.10547-.04688.10156-.04296.13281-.01563h.15235l.13281-.01562h.29297l.1211.03125.10156.04296.08984.0586.23438.0625.12109-.04688.08984-.05859.10156-.04297.13282-.01562.10547.04296.10156.04688.13281.01172.1211-.02735h.14453l.12109-.03125.11719-.02734.10547-.04687.07421-.07422.08594-.0586.14844-.14843.0586-.08594.04687-.10547.02734-.11719.01563-.10547-.10156-.04296-.08985-.0586-.11719-.03125-.10546-.04297-.08985-.0625-.07422-.08594-.07422-.07421-.10156-.04297-.10547-.04688-.10156-.04297-.0586-.08984-.04687-.10156-.08594-.21094-.0625-.08594-.05859-.08984-.07422-.07422-.08594-.0586h-.26953l-.11719.03126-.08984.05859-.10156.04297-.13281.01562-.10547-.01562-.02735-.11719-.0625-.08984-.11718-.03125-.10157-.04297-.14843-.14844-.03125-.11719-.01563-.10546.07422-.07422.17969-.1172.11719-.02733.11718-.03125.13672.01562.10156.04297.10547.04297.10156.04687.10547.04297.1172.03125.1328.01563.1172.02734.1328.01563.10547-.01563.08985-.0586-.07422-.07421-.10547-.04297-.07422-.07422-.07422-.08984-.14844-.14844-.08593-.0586-.08985-.05859-.07422-.07422-.08984-.0586-.10156-.04687-.1211-.02734-.10156-.04688-.10547-.04296-.11719-.03125-.10156-.04297-.1211-.03125h-.14843l-.11719.03125-.10546.04297-.08594.0625-.17969.11718-.08594.0586-.08984.0586-.10547.04687-.08594.05859-.10547.04297-.10156.04297-.10547.04687-.07422.07422-.05859.08985-.0586.08593-.04687.10547-.0586.08594-.07421.07422-.13281-.01172-.1172-.03125h-.11718l-.07422.07422-.08984.0586-.07422.07421-.08984.0586-.08594.05859-.10547.04687-.10156.04297-.13672.01563-.10156-.04297-.14844-.14844-.10547-.04688h-.08594l-.10547.04688-.10156.04297-.1211.03125-.11718-.03125-.07422-.07422v-.11719l.03125-.1211.07422-.0703.0586-.08985.07421-.07422.11719-.03125.10547-.04296h.29297l.13281-.01563.13672-.01563.10156-.04296.08985-.0586.10156-.04687.08984-.0586.13281-.01171.08985.05859.13281.01172.08984-.0586.08594-.05859.10547-.04297.08984-.0586.08594-.0625.08985-.05859.14843-.14843.0586-.08594.05859-.08985.10547-.04296.13281-.01563.11719.02735.1211.03125.05859-.0586.05859-.08984.03125-.26563.02734-.11719.10547.01172.13281.01563.10157-.04297.08984-.0586.0586-.08984.07421-.07422.0586-.08984.04687-.10156.01172-.13281-.01172-.13282-.04687-.10547-.14844-.14843-.0586-.08985-.05859-.08594-.04297-.10546v-.44532l.01563-.1328v-.14845l.01172-.1328-.0586-.0586-.08984.0586-.10156-.04298-.17969-.11719-.08594-.05859-.0625-.08984-.0586-.08985-.07421-.07421-.08594-.0586-.1211.03125-.10155.01172-.10547.04688-.08594.05859-.10547.04297-.14844.14844-.08984.05859-.08594.0586-.08984.0625-.10547.04296-.13281.01563v-.1211l.10547-.04297.11718-.03125.07422-.0703.04297-.10548v-.14844l-.02734-.11718-.14844-.14844-.13281-.01563h-.14844l-.11719.03125-.10547.04297-.10156.04297-.08984.0625-.11719.02735-.07422-.07422.01172-.13281-.04297-.10157-.04297-.10547-.08984-.05859-.11719.02734-.1211.03125-.11718.03125-.10156.04297-.1211.03125-.10156.04297-.10547.04297-.08984.0586-.10156.01562v-.11719l.01562-.13281-.0586-.08985-.07421.04297-.14844.14844-.0586.08985-.07421.07421-.04688.10547-.04296.10156-.07422.07422-.0586.08985-.07422.07422-.05859.08593-.07422.07422-.08984.0625-.07422.07031-.07422.07422-.10156.01563-.13281.01562-.10547-.04296v-.1211l.14843-.14844.04297-.10156.0586-.08984.04687-.10156.04297-.10547.0586-.08985.03124-.11719.04297-.10156.03125-.1211.02735-.11718.04687-.10547.04297-.10156.04297-.10547.07422-.07031.08984-.0625.08985-.0586.10156-.04296h.29687l.26563-.03125.10547-.04297-.07422-.07422-.11719-.03125-.10547-.04297-.08984-.0586-.10156-.04687-.08985-.0586-.10156-.04296-.10547-.04297-.08984-.0625-.08594-.0586-.10547-.04296-.10156-.04297-.1211-.03125-.11718-.03125-.10157-.04297L297.5 410.25l-.10156-.04297-.08985-.0586-.04296-.10546-.01563-.13281.10156-.04297.13281-.01563.13672.01563.13282-.01563.10156-.04297.0586-.08984.01562-.10547-.08985-.0586-.07421-.07421-.10157-.04297-.08984-.0586-.14844-.14843-.04297-.10547-.01562-.13281v-.29297l-.0586-.08985-.08984-.05859-.07422-.07422-.04297-.10547-.03125-.11718-.0586-.08985-.07421-.07422-.11719-.02734-.07422-.07422-.08984-.0586-.08984-.0625-.08594-.05859-.07422-.07421-.0586-.08594-.04687-.10547-.08594-.0586-.14843-.14843-.19532-.0586-.1328.01563-.10157.04297-.07422.07422-.04688.10156-.04296.10547-.0586.08984-.0586.08594-.29687.29687-.08984.0586h-.08594l-.0625-.08594-.04297-.10547.03125-.11719.0586-.08984.02734-.11719-.01172-.13281-.08984-.0625-.10547.04688-.11719.02734-.11719.03125-.26953.17578-.10156.04688-.11719.02734-.10546.04687-.08985.0586-.10156.04297-.0586-.08594-.04687-.10547.01563-.13281.04687-.10547.07031-.07422.07422-.07031.0586-.08985v-.14843l-.04297-.10547h-.23829l-.10156.04687-.03125.11719-.02734.11719-.03125.1211-.07422.04296-.13281.01563-.07422-.04688-.04297-.10156-.04297-.10547-.04687-.10156-.04297-.10547-.1211.03125-.10156.04297-.13281.01562-.11719.03125-.10547.04297-.08984.0586-.10156.04687-.1211.02734-.13281.01563-.10156-.04297-.0586-.08985-.04687-.10546-.04297-.10157-.04297-.10546v-.1172l.0586-.08984.08593-.05859.17969-.11719.10156-.04687.10547-.04297.10547-.0586.10156-.04296.08985-.0625.10156-.04297.10547-.0586.10156-.04687.08984-.0586.10547-.04296.10156-.04297.08985-.0625.10156-.04297.13672-.01563.11719.03125.10156.04297.1211.03125.10156.04297.10546.04688.10157.04296.10547.04297.10156.04688.10547.04297.10156.04297.10547.04687.08594.0586.10546.04296.1172.03125.10546.04297.10156.04688.08985.0586.10547.04296.10156.04297.10547.04687.11719.02735.10156.04687.1211.02735h.14843l.08594-.0586.01562-.10156.0586-.08984-.02735-.1172-.07422-.07421-.11719-.17969-.07421-.07422-.08985-.07421-.17969-.1172-.08593-.05859-.10547-.04296-.10156-.04688-.26954-.17578-.05859-.08985-.07422-.07421-.0586-.08985-.04296-.10156-.03125-.11719-.01563-.13672v-.5625l-.01171-.1328-.01563-.13282-.03125-.11719-.01562-.13281-.01172-.13281-.03125-.1211-.22266-.22265-.0586-.08594-.01562-.10547.03125-.11719.13281-.01562v-91.41406H172.9922v1.45312l-.0586.23438-.35156 1.05078-.17187.52343-.1172.34766-.17577.41016-.11719.17187-.23438.29297-.23046.0586h-.35157l-.11718.05859-.23047.40625v.29297l.11719.17578.23046.23047.1172.23437.64062.75781.29297.46485.17578.23437.23047.35156.23437.34766.64063.8164.17578.46485.17187.41016.11719.69531.17578.46875.11719 1.39844.0586.46484v.875l.11718 1.04688v4.78125l-.0586.46484-.35156 1.28125-.17578.52344-.11328.41015-.35156.9297L172.93359 336l-.23437.58203-.11719.17578-.17187.34766-.17578.40625-.35157.8164-.0586.29297-.11327.29297-.11719.28906-.0586.17579-.11718.875-.0586.40625-.05859.11718-.0586.17579-.05859.17187-.23047.52734-.11718.17188v.23437l-.11719.23438-.0586.17187-.17577.58594v.28906l-.0586.17579v.29296l-.0586.11329-.05859.52734v.17187l-.05468.23438v2.6211l-.17578.8164-.1172.17578-.17577.23438-.1172.17187-.11327.23438-.58594.93359-.23047.28906-.29297.46485-.17578.23437-.28906.35156-.35156.69922-.11328.23047-.17579.41016-.17578.23046-.40625.52735-.8164.69922-.29297.17187-.28906.23438-.17579.11719-.17578.17578-.52344.40625-.52734.17578-.17187.17578-.23438.05469-.64062.17578h-.75782m12.21094 31.02344l-1.07422.44921.35938.89454 1.25-.71485.44531-.53906-.98047-.08985"/><path fill="#d3d3d3" fill-opacity="0" fill-rule="evenodd" d="M201.50781 416.59766h-.89453l.44922.6289.98047.35938.80469-.08985.4453-.98828-.17577.08985-.71485-.35547-.89453.35547m154.6211 59.0703l-.0586-.52343v-.29297l.11328-.29297.0586-.23046.46875-.46875h.11328l.11719-.11329.11718-.05859h.17579l.23437-.0586h.34766l.23437.0586.11719.0586.23047.17187.0586.17578.11718.58203v.29297l-.11719.17578-.17187.28906-.17579.17579-.52734.52343-.23047.23438-.11719.0586h-.17578l-.11718-.0586-.40625-.29297-.17579-.11719-.11718-.0586-.0586-.11327-.05468-.1172m6.64062-10.95702l-.0586-.17188v-1.10937l.0586-.17188.17578-.0586.17188-.05858h.17578l.23437-.0586.1172.0586.05858.69921-.05859.17188-.11719.17578-.11718.0586-.23438.52343-.11328.0586h-.23438l-.05859-.1172m9.61328-14.39062l-.11719-.17578v-.69922l.29297-.875.1172-.17187.17577-.35156.11328-.23047.1172-.29297.35155-.75781.1172-.23047.17187-.23438h.17578l.11719-.0586h.64062l.11719.0586.23437.23438.17188.11328.35156.29297.11719.11718.11328.17579v.11328l.11719.05859.11718.11719v.69922l-.05859.17578v.23047l-.0586.17578-.34765 1.05078-.11719.23047-.11719.23437-.11718.0586-.23047.23437-.64063.28906h-.875l-.41015-.11718-.64063-.46485"/><path fill="none" stroke="#bebebe" stroke-linecap="round" stroke-linejoin="round" stroke-miterlimit="10" stroke-width=".5" d="M467.95703 311.69531H144.02734v168.625h323.9297v-168.625"/><g clip-path="url(#a)"><path fill="#fff" fill-opacity="0" fill-rule="evenodd" d="M144 475.89063v4.4375h.0039H144V441.9414v33.94921"/></g><g clip-path="url(#b)"><path fill="#fff" fill-opacity="0" fill-rule="evenodd" d="M144 435.94531v3.45313-127.72656h.0039H144V435.9453"/></g><path fill="#50fcfc" fill-rule="evenodd" d="M144 439.39844v2.54297l.0039-.00391v-2.53906H144"/><g clip-path="url(#c)"><path fill="#fff" fill-opacity="0" fill-rule="evenodd" d="M144.0039 480.32813V441.9375l.86329-1.55469-.86328-.98437V311.67188h57.6953v114.22265l-1.74218 1.17578-2.69531 1.8789-4.14844 2.5586-.29297.23828-4.4375 2.16797-4.4375.52344L181 435.94531l-1.49219.63281-4.4414 3.04688-3.7422.75781-.6953.0586-4.4375.96484-4.4375 1.3164-4.4375.76954-4.44141.8789-1.64063.44922-2.79687.50781-2.71484 3.9336 2.3203 4.4375.39454.57031 2.07422-.57031 2.36328-.46875 1.01172.46875 3.42969 1.53906 3.26562 2.89844 1.17188 3.0586 4.4375-2.80079 4.4375.2539 2.51172-.51171 1.92578-3.1875 1.3203 3.1875 3.1211 1.14453 4.4375-.48438.54688-.66015 3.5664-4.4375.32422-.23047 1.23438.23047 3.20312.82031 2.2461-.82031 1.28515-4.4375.91016-.78906 4.01953.78906.41797.08594.13672-.08594 4.30078-2.86328 4.4375.15234 2.53906-1.73047-2.53906-3.09765-2.08594-1.33985 2.08594-2.26953 4.4414-.5664 2.10157-1.60157-2.10156-1.53515-4.44141.07421-4.4375-1.15234-.92578-1.82422.92578-1.91797.66016-2.51953-.66016-.71484-4.4375-.46094V311.67188h17.7539v108.02734l-4.4375 2.71875-.2539.21094.2539.33203 4.4375 2.76953 2.78516 1.33984 1.65234 1.7461v19.95703l-1.1289.48828 1.1289.48047.92188-.48047-.92188-.48828V428.8164l4.4375 1.40234.72266 1.28906 1.51563 4.4375 2.19922 1.4375 4.4414 2.48438 1.42578.51562 3.01172 2.5039 4.4375 1.05079 3.51563-3.55469.55468-4.4375-2.4375-4.4375-1.6328-.91797-4.4375-3.37109-.3672-.14844-4.0703-3.58203-3.3086-.85937-1.13281-.8125-1.47266.8125-2.96484.76562-1.51954-.76562-2.91797-2.64844-4.4375-.28125V311.67187h35.50391v115.98438l-3.82812 3.85156 3.82812 2.98047 3.72656 1.45703.71485.55078.52734-.55078 2.33594-4.4375-2.86328-3.3789-4.4414-.47266V311.67187h31.0703v106.91407l-4.4375 1.27734-4.28125 2.76563-.15625.0703-4.4414.59376-4.4375 3.5-1.47656.27734-1.35938 4.4375 2.83594 2.21094 4.4375-1.16406 4.4414.80469 4.4375 2.44921 2.71875.13672 1.71875.35547.71485-.35547 3.72265-3.70312.38672-.73438 1.30078-4.4375-1.6875-2.3789-.64453-2.0625-3.79297-4.04297V311.67188h13.31641v110.92578l-.04297.03125.04297.0664.0625-.0664-.0625-.03125V311.67187h4.4375v117.16016l-3.39844 2.67578 3.39844 2.5625 2.33594-2.5625-2.33594-2.67578V311.67188h17.7539v110.86328l-.10156.09375.10157.10937.41796-.10937-.41796-.09375V311.67187h8.875v110.05079l-2.16016.90625 2.16016.76953 1.4414-.76953-1.4414-.90625V311.67187h48.82421v119.25391l-1.39453.58203-3.04687 1.71094-1.8789 2.72656-2.5586 2.41797-3.05078 2.01953-1.38672 3.82813-1.22656-3.82813-3.21094-1.64062-4.4375-1.47266-4.4414-.04687-1.04688-1.27735-3.39063-3.20312-3.15234 3.20312 3.15234 3.30469 1.375 1.13281 3.0625 2.85547 4.4414-.13281 4.4375.90625 3.48048.8086.95703.10937 4.4375 3.75.45703.58203-.2461 4.4375 1.35938 4.4375 2.86719 2.82422 3.63281 1.61328.8086 1.5039 4.4375 2.59766 3.20312.33985 1.15625 4.4375.07813.08593.0703-.08594.53516-4.4375 3.78125-4.4414.05079-1.20703 1.2539-3.23047.86328-4.4375-1.27734-4.4375.2539-4.4414-1.09375-.73048-1.26953.73047-3.16796 2.60156-4.4375-.14843-1.39844-2.45313-2.54688-4.4375 1.17188-4.4375-1.35938-4.4375-.30469-.58203v-119.2539h88.76172v159.6875l-.08984.09375.08984.08984v8.78515h-57.27343l-.42188-.42578-.42187.42579h-50.9297l-1.90624-1.54297-4.4414.96093-.69532.58204H144.00391"/></g><path fill="#50fcfc" fill-rule="evenodd" d="M144.86719 440.38281l-.86328 1.55469v-2.53906l.86328.98437m3.17578 13.3164l-2.32031-4.4375 2.71484-3.93358 2.79688-.50782 1.64062-.44922 4.4414-.8789 4.4375-.76953 4.4375-1.31641 4.4375-.96484v2.8125l-3.21484 1.5664-1.22265 1.17188-4.4375-.03125-4.4375 2.7461-.96485.55468.96485.53125 2.26953 3.90625 2.16797 2.05078 4.4375-.8789 1.46875-1.17188 1.9453-4.4375 1.02345-1.07031 2.32812-3.3711-2.32812-1.5664v-2.8125l.6953-.0586 3.7422-.75781 4.4414-3.04688 1.49219-.6328 2.94531-1.50782v10.59766l-.73828 4.22656.73828 1.1289 1.67969-1.1289-1.67969-4.22656V434.4375l4.4375-.52344 4.4375-2.16797v7.28516l-2.57031 1.35156 2.57031 1.28906 1.35938-1.28906-1.35938-1.35156v-7.28516l.29297-.23828 4.14844-2.5586 2.69531-1.8789 1.74219-1.17578 4.4375.46094.66016.71484-.66016 2.51953-.92578 1.91797.92578 1.82422 4.4375 1.15235 4.4414-.07422 2.10157 1.53515-2.10156 1.60156-4.44141.56641-2.08594 2.26953 2.08594 1.33985 2.53906 3.09765-2.53906 1.73047-4.4375-.15234-4.30078 2.86328-.13672.08594-.41797-.08594-4.01953-.78906-.91016.78906-1.28515 4.4375-2.2461.82031-3.20312-.82031-1.23438-.23047-.32422.23047-3.5664 4.4375-.54688.66015-4.4375.48438-3.1211-1.14453-1.3203-3.1875-1.92578 3.1875-2.51172.51172-4.4375-.2539-4.4375 2.80077-1.17188-3.0586-3.26562-2.89843-3.4297-1.53906-1.01171-.46875-2.36328.46875-2.07422.57031-.39453-.57031"/><path fill="#00e8fc" fill-rule="evenodd" d="M157.3164 449.79297l-.96484-.53125.96485-.55469 4.4375-2.7461 4.4375.03126 1.22265-1.17188 3.21485-1.5664 2.32812 1.5664-2.32812 3.3711-1.02344 1.0703-1.94531 4.4375-1.46875 1.17188-4.4375.87891-2.16797-2.05078-2.26953-3.90625m26.6289.59765l-.73828-1.1289.73828-4.22656 1.67969 4.22656-1.67969 1.1289m8.875-8.71875l-2.57031-1.28906 2.57031-1.35156 1.35938 1.35156-1.35938 1.28906"/><path fill="#50fcfc" fill-rule="evenodd" d="M215.01563 422.96094l-.25391-.33203.2539-.21094 4.4375-2.71875 4.4375.28125 2.91797 2.64844 1.51953.76562 2.96485-.76562 1.47266-.8125v4.97265l-1.21485.28125-.38281 4.4375 1.59766 2.17969 1.93359 2.25781 2.50781 1.97266 4.4375 1.96875 1.04688.4961 3.39062 2.09374 2.07031-2.09375.59375-4.4375-2.66406-2.9961-1.54297-1.4414-2.89453-2.70703-4.21484-1.73047-.22266-.19922-4.4414-.08203v-4.97265l1.1328.8125 3.3086.85937 4.07031 3.58203.3672.14844 4.4375 3.3711 1.6328.91796 2.4375 4.4375-.55468 4.4375-3.51563 3.55469-4.4375-1.05078-3.01172-2.5039-1.42578-.51563-4.4414-2.48438-2.19922-1.4375-1.51563-4.4375-.72266-1.28906-4.4375-1.40234-1.65234-1.7461-2.78516-1.33984-4.4375-2.76953m8.875 26.78125l-1.1289-.48047 1.1289-.48828.92188.48828-.92188.48047"/><path fill="#00e8fc" fill-rule="evenodd" d="M232.76563 433.6875l-1.59766-2.17969.38281-4.4375 1.21484-.28125 4.44141.08203v2.0586l-3.15234 2.57812 3.15234 3.42969 1.15625 1.00781 3.28125 2.07422 4.4375.1211.32031-2.19532-.3203-.35937-4.35548-4.07813-.08203-.07812-4.4375-2.5v-2.0586l.22266.19922 4.21484 1.73047 2.89453 2.70703 1.54297 1.4414 2.66406 2.9961-.59375 4.4375-2.0703 2.09375-3.39063-2.09375-1.04688-.4961-4.4375-1.96874-2.50781-1.97266-1.9336-2.25781"/><path fill="#00d4fc" fill-rule="evenodd" d="M237.20703 434.9375l-3.15234-3.42969 3.15234-2.57812v1.92578l-.79687.65234.79687.86719 4.11328 3.57031.32422.20313.5-.20313-.5-.44922-3.29297-3.98828-1.14453-.65234v-1.92578l4.4375 2.5.08203.07812 4.35547 4.07813.32031.35937-.3203 2.19531-4.4375-.12109-3.28126-2.07422-1.15625-1.00781"/><path fill="#00c4fc" fill-rule="evenodd" d="M237.20703 432.375l-.79687-.86719.79687-.65234 1.14453.65234 3.29297 3.98828.5.44922-.5.20313-.32422-.20313-4.11328-3.57031"/><path fill="#50fcfc" fill-rule="evenodd" d="M254.95703 434.48828l-3.82812-2.98047 3.82812-3.85156 4.4414.47266 2.86329 3.3789-2.33594 4.4375-.52734.55078-.71485-.55078-3.72656-1.45703m13.3164-.76953l-2.83593-2.21094 1.35938-4.4375 1.47656-.27734 4.4375-3.5 4.4414-.59375.15625-.07031 4.28125-2.76563v3.21485l-4.4375 1.80468-4.4414-.26562-2.91797 2.45312 2.91797 3.08985 4.4414-.25 1.15235 1.59765 3.28515 2.64844 3.48829-2.64844.94921-1.08203 2.73438-3.35547-2.73438-3.84375-4.4375-.14844v-3.21484l4.4375-1.27734 3.79297 4.04297.64453 2.0625 1.6875 2.3789-1.30078 4.4375-.38672.73438-3.72265 3.70312-.71485.35547-1.71875-.35547-2.71875-.13672-4.4375-2.44921-4.4414-.8047-4.4375 1.16407"/><path fill="#00e8fc" fill-rule="evenodd" d="M272.71094 430.16016l-2.91797-3.08985 2.91797-2.45312v2.20703l-.28906.2461.28906.30468.95703-.30469-.95703-.2461v-2.20702l4.4414.26562 4.4375-1.80469 4.4375.14844 2.73438 3.84375-2.73438 3.35547-.94921 1.08203-3.48829 2.64844-3.28515-2.64844-1.15235-1.59765-4.4414.25"/><path fill="#00d4fc" fill-rule="evenodd" d="M272.71094 427.375l-.28906-.30469.28906-.2461.95703.2461-.95703.30469"/><path fill="#50fcfc" fill-rule="evenodd" d="M299.34375 422.69531l-.04297-.0664.04297-.03125.0625.03125-.0625.0664m4.4375 11.375l-3.39844-2.5625 3.39844-2.67578 2.33594 2.67578-2.33594 2.5625m17.7539-11.33203l-.10156-.10937.10157-.09375.41796.09375-.41796.10937m8.875.66016l-2.16016-.76953 2.16016-.90625 1.4414.90625-1.4414.76953m17.7539 15.85156l-3.15234-3.30469 3.15234-3.20312v3.08203l-.11719.1211.1172.125.1289-.125-.1289-.1211v-3.08203l3.39062 3.20312 1.04687 1.27735 4.4414.04687 4.4375 1.47266 3.21095 1.64062 1.22656 3.82813 1.38672-3.82813 3.05078-2.01953 2.5586-2.41797 1.8789-2.72656 3.04687-1.71094 1.39454-.58203v16.41797l-1.55079 1.91797 1.55079 1.48828 2.97656-1.48828-2.97656-1.91797v-16.41797l.30468.58203 1.35938 4.4375-1.17188 4.4375 2.54688 4.4375 1.39844 2.45313 4.4375.14844v5.3125l-.26172.96484.26171.15625v3.5l-2.09375.78125-2.34375.98828-2.13671 3.44922 2.13671 1.91015 4.4375 1.64063 3.46094-3.55078-2.53515-4.4375-.92579-.78125v-3.5l.46485-.15625-.46485-.96485v-5.3125l3.16797-2.60156 1.26954-.73047 1.09375.73047-.25391 4.4414 1.27734 4.4375-.86328 4.4375-1.2539 3.23048-.05079 1.20703-3.78125 4.4414-.53515 4.4375-.07031.08594-.07813-.08594-1.15625-4.4375-3.20313-.33984-4.4375-2.59765-.80859-1.50391-3.63281-1.61328-2.86719-2.82422-1.35937-4.4375.24609-4.4375-.45703-.58203-4.4375-3.75-.95703-.10938-3.48047-.8086-4.4375-.90624-4.4414.13281-3.0625-2.85547-1.375-1.13281"/><path fill="#00e8fc" fill-rule="evenodd" d="M348.16406 436.07031l-.11719-.125.1172-.1211.1289.1211-.1289.125"/><g clip-path="url(#d)"><path fill="#50fcfc" fill-rule="evenodd" d="M351.90625 480.32813l.69531-.58204 4.4414-.96093 1.90626 1.54296h-7.04297"/></g><path fill="#fff" fill-opacity="0" fill-rule="evenodd" d="M379.23438 447.34375l-1.55079 1.91797 1.55079 1.48828 2.97656-1.48828-2.97656-1.91797"/><path fill="#00e8fc" fill-rule="evenodd" d="M383.67188 464.48438l-2.13672-1.91016 2.13671-3.44922 2.34375-.98828 2.09375-.78125v2.59765l-3.21093 2.6211 3.21094 1.97265 1.92187-1.97265-1.92188-2.6211v-2.59765l.92579.78125 2.53515 4.4375-3.46094 3.55078-4.4375-1.64063"/><path fill="#00d4fc" fill-rule="evenodd" d="M388.10938 464.54688l-3.21094-1.97266 3.21094-2.6211v2.09766l-.64063.52344.64063.39453.3828-.39453-.3828-.52344v-2.09765l1.92187 2.62109-1.92188 1.97265"/><path fill="#00c4fc" fill-rule="evenodd" d="M388.10938 462.96875l-.64063-.39453.64063-.52344.3828.52344-.3828.39453"/><path fill="#fff" fill-opacity="0" fill-rule="evenodd" d="M388.10938 452.73438l-.26172.96484.26171.15625.46485-.15625-.46485-.96485"/><g clip-path="url(#e)"><path fill="#50fcfc" fill-rule="evenodd" d="M409.8789 480.32813l.42188-.42579.42188.42579h-.84375"/></g><path fill="#50fcfc" fill-rule="evenodd" d="M467.9961 471.54297l-.08985-.08985.08984-.09375v.1836"/><g clip-path="url(#f)"><path fill="#fff" fill-opacity="0" fill-rule="evenodd" d="M467.9961 480.32813H468v-8.78125 8.78125h-.0039"/></g><path fill="#50fcfc" fill-rule="evenodd" d="M467.9961 471.35938v.18359l.0039.0039v-.1875h-.0039"/><g clip-path="url(#g)"><path fill="#fff" fill-opacity="0" fill-rule="evenodd" d="M467.9961 311.67188H468v159.6875-159.6875h-.0039"/></g><path fill="#fff" fill-opacity="0" fill-rule="evenodd" d="M374.28125 434.53125l5.4961 1.98438 3.3828-9.3672-5.49218-1.98437-3.38672 9.36719"/><path fill-rule="evenodd" d="M380.33594 428.07813l.48047.17187-2.14063 5.91797-.73828-.26563 1.52344-4.22265-1.30469-.47266.1875-.51953.55078.1289.2539.03516.2461-.00781.23828-.0625.23828-.14063.23047-.22656.23438-.33594"/><path fill="#fff" fill-opacity="0" fill-rule="evenodd" d="M217.64453 448.9414l.83203-5.78124-9.85937-1.42188-.83203 5.78125 9.85937 1.42188"/><path fill-rule="evenodd" d="M210.09766 444.3164l.07422-.5039 6.23046.89844-.11328.77734-4.44531-.63672-.19531 1.3711-.55078-.07813.01562-.5625-.01953-.25781-.05469-.23828-.10937-.22266-.1836-.20312-.27343-.1797-.375-.16405"/><g clip-path="url(#h)"><path fill="none" stroke="#000" stroke-linecap="round" stroke-linejoin="round" stroke-miterlimit="10" stroke-width=".5" d="M147.44922 480.9961l-6.89844-1.33594"/></g><g clip-path="url(#i)"><path fill="none" stroke="#000" stroke-linecap="round" stroke-linejoin="round" stroke-miterlimit="10" stroke-width=".5" d="M147.44922 480.9961l.71875 2.34374"/></g><g clip-path="url(#j)"><path fill="none" stroke="#000" stroke-linecap="round" stroke-linejoin="round" stroke-miterlimit="10" stroke-width=".5" d="M160.73047 481.15234l-6.83203-1.64843"/></g><g clip-path="url(#k)"><path fill="none" stroke="#000" stroke-linecap="round" stroke-linejoin="round" stroke-miterlimit="10" stroke-width=".5" d="M160.73047 481.15234l.61328 2.375"/></g><g clip-path="url(#l)"><path fill="none" stroke="#000" stroke-linecap="round" stroke-linejoin="round" stroke-miterlimit="10" stroke-width=".5" d="M173.95703 481.45313l-6.65625-2.25"/></g><g clip-path="url(#m)"><path fill="none" stroke="#000" stroke-linecap="round" stroke-linejoin="round" stroke-miterlimit="10" stroke-width=".5" d="M187.32422 481.29688l-6.75781-1.9375"/></g><g clip-path="url(#n)"><path fill="none" stroke="#000" stroke-linecap="round" stroke-linejoin="round" stroke-miterlimit="10" stroke-width=".5" d="M200.77344 480.40234l-7.02735-.14453"/></g><g clip-path="url(#o)"><path fill="none" stroke="#000" stroke-linecap="round" stroke-linejoin="round" stroke-miterlimit="10" stroke-width=".5" d="M200.77344 480.40234l1.10547 2.1875"/></g><g clip-path="url(#p)"><path fill="none" stroke="#000" stroke-linecap="round" stroke-linejoin="round" stroke-miterlimit="10" stroke-width=".5" d="M214.04297 479.76953l-6.9375 1.11719"/></g><g clip-path="url(#q)"><path fill="none" stroke="#000" stroke-linecap="round" stroke-linejoin="round" stroke-miterlimit="10" stroke-width=".5" d="M214.04297 479.76953l1.48437 1.95703"/></g><g clip-path="url(#r)"><path fill="none" stroke="#000" stroke-linecap="round" stroke-linejoin="round" stroke-miterlimit="10" stroke-width=".5" d="M227.375 479.875l-6.96875.90625"/></g><g clip-path="url(#s)"><path fill="none" stroke="#000" stroke-linecap="round" stroke-linejoin="round" stroke-miterlimit="10" stroke-width=".5" d="M227.375 479.875l1.42188 2"/></g><g clip-path="url(#t)"><path fill="none" stroke="#000" stroke-linecap="round" stroke-linejoin="round" stroke-miterlimit="10" stroke-width=".5" d="M240.67188 480.89844l-6.9336-1.13672"/></g><g clip-path="url(#u)"><path fill="none" stroke="#000" stroke-linecap="round" stroke-linejoin="round" stroke-miterlimit="10" stroke-width=".5" d="M240.67188 480.89844l.78906 2.32422"/></g><g clip-path="url(#v)"><path fill="none" stroke="#000" stroke-linecap="round" stroke-linejoin="round" stroke-miterlimit="10" stroke-width=".5" d="M253.97266 480.99219l-6.90235-1.32813"/></g><g clip-path="url(#w)"><path fill="none" stroke="#000" stroke-linecap="round" stroke-linejoin="round" stroke-miterlimit="10" stroke-width=".5" d="M252.96875 480.80078l.35938 1.17188"/></g><g clip-path="url(#x)"><path fill="none" stroke="#000" stroke-linecap="round" stroke-linejoin="round" stroke-miterlimit="10" stroke-width=".5" d="M267.32422 480.7461l-6.97656-.83594"/></g><g clip-path="url(#y)"><path fill="none" stroke="#000" stroke-linecap="round" stroke-linejoin="round" stroke-miterlimit="10" stroke-width=".5" d="M266.3086 480.625l.4453 1.14453"/></g><g clip-path="url(#z)"><path fill="none" stroke="#000" stroke-linecap="round" stroke-linejoin="round" stroke-miterlimit="10" stroke-width=".5" d="M280.47656 481.46094l-6.65234-2.26563"/></g><g clip-path="url(#A)"><path fill="none" stroke="#000" stroke-linecap="round" stroke-linejoin="round" stroke-miterlimit="10" stroke-width=".5" d="M279.50781 481.13281l.19531 1.21094"/></g><g clip-path="url(#B)"><path fill="none" stroke="#000" stroke-linecap="round" stroke-linejoin="round" stroke-miterlimit="10" stroke-width=".5" d="M293.89063 481.11719l-6.84766-1.57422"/></g><g clip-path="url(#C)"><path fill="none" stroke="#000" stroke-linecap="round" stroke-linejoin="round" stroke-miterlimit="10" stroke-width=".5" d="M292.89453 480.88672l.3164 1.1836"/></g><g clip-path="url(#D)"><path fill="none" stroke="#000" stroke-linecap="round" stroke-linejoin="round" stroke-miterlimit="10" stroke-width=".5" d="M307.29297 480.46094l-7.02344-.26563"/></g><g clip-path="url(#E)"><path fill="none" stroke="#000" stroke-linecap="round" stroke-linejoin="round" stroke-miterlimit="10" stroke-width=".5" d="M306.26953 480.42188l.53516 1.10546"/></g><g clip-path="url(#F)"><path fill="none" stroke="#000" stroke-linecap="round" stroke-linejoin="round" stroke-miterlimit="10" stroke-width=".5" d="M320.57813 480.80078l-6.96485-.94531"/></g><g clip-path="url(#G)"><path fill="none" stroke="#000" stroke-linecap="round" stroke-linejoin="round" stroke-miterlimit="10" stroke-width=".5" d="M319.5625 480.66406l.42578 1.15235"/></g><g clip-path="url(#H)"><path fill="none" stroke="#000" stroke-linecap="round" stroke-linejoin="round" stroke-miterlimit="10" stroke-width=".5" d="M333.6875 481.60156l-6.55078-2.54297"/></g><g clip-path="url(#I)"><path fill="none" stroke="#000" stroke-linecap="round" stroke-linejoin="round" stroke-miterlimit="10" stroke-width=".5" d="M332.73438 481.23047l.14453 1.21875"/></g><g clip-path="url(#J)"><path fill="none" stroke="#000" stroke-linecap="round" stroke-linejoin="round" stroke-miterlimit="10" stroke-width=".5" d="M346.69922 482.20313l-5.94531-3.7461"/></g><g clip-path="url(#K)"><path fill="none" stroke="#000" stroke-linecap="round" stroke-linejoin="round" stroke-miterlimit="10" stroke-width=".5" d="M358.84375 483.34375l-3.60547-6.03125"/></g><g clip-path="url(#L)"><path fill="none" stroke="#000" stroke-linecap="round" stroke-linejoin="round" stroke-miterlimit="10" stroke-width=".5" d="M370.48047 483.83984l-.25-7.02343"/></g><g clip-path="url(#M)"><path fill="none" stroke="#000" stroke-linecap="round" stroke-linejoin="round" stroke-miterlimit="10" stroke-width=".5" d="M382.125 483.48438l3.09375-6.3125"/></g><g clip-path="url(#N)"><path fill="none" stroke="#000" stroke-linecap="round" stroke-linejoin="round" stroke-miterlimit="10" stroke-width=".5" d="M394.65234 482.95313l4.66797-5.25"/></g><g clip-path="url(#O)"><path fill="none" stroke="#000" stroke-linecap="round" stroke-linejoin="round" stroke-miterlimit="10" stroke-width=".5" d="M408.10156 483.07031l4.39844-5.48047"/></g><g clip-path="url(#P)"><path fill="none" stroke="#000" stroke-linecap="round" stroke-linejoin="round" stroke-miterlimit="10" stroke-width=".5" d="M421.19531 482.875l4.84375-5.08984"/></g><g clip-path="url(#Q)"><path fill="none" stroke="#000" stroke-linecap="round" stroke-linejoin="round" stroke-miterlimit="10" stroke-width=".5" d="M434.11328 482.42578l5.63672-4.19531"/></g><g clip-path="url(#R)"><path fill="none" stroke="#000" stroke-linecap="round" stroke-linejoin="round" stroke-miterlimit="10" stroke-width=".5" d="M447.73828 482.78906l5.01563-4.91797"/></g><g clip-path="url(#S)"><path fill="none" stroke="#000" stroke-linecap="round" stroke-linejoin="round" stroke-miterlimit="10" stroke-width=".5" d="M461.45313 483.14063l4.21484-5.6211"/></g><g clip-path="url(#T)"><path fill="none" stroke="#000" stroke-linecap="round" stroke-linejoin="round" stroke-miterlimit="10" stroke-width=".5" d="M147.40625 467.8789l-6.8125-1.73046"/></g><path fill="none" stroke="#000" stroke-linecap="round" stroke-linejoin="round" stroke-miterlimit="10" stroke-width=".5" d="M147.40625 467.8789l.58203 2.38673m12.80469-2.75l-6.95703-1.00391m6.95703 1.0039l.83203 2.3086m12.4336-2.03906l-6.85548-1.54297m6.85547 1.54297l.64844 2.36718m-1.64453-2.59375l.32422 1.1836m13.82812-.4375l-6.53906-2.58203m6.53906 2.58203l.27344 2.4375m13.21484-3.02735l-6.88671-1.40234m6.88672 1.40234l.6953 2.35547m12.6797-3.33984l-7.00391.5664m7.0039-.5664l1.32032 2.07031m11.9336-2.5l-6.88282 1.42578m6.88281-1.42578l1.5664 1.89063m11.79298-1.62891l-6.96875.90234m6.96875-.90234l1.41797 2M254 467.4961l-6.96094-.96485m6.96094.96484l.84375 2.3047m12.4375-2.09376l-6.89063-1.38672m6.89063 1.38672l.69922 2.35156m12.6211-2.39453l-6.90235-1.30078m5.89844 1.11328l.36718 1.17188m14.01172-1.80078l-7.01953.33203m5.9961-.28516l.6289 1.05469m13.60156-1.8086l-6.80468 1.7461m5.8164-1.49219l.82422.90625m13.29688-1.6914l-6.44141 2.80859m5.5039-2.39844l.96094.76172m13.5-.53516l-6.85937 1.53516m5.86328-1.3125l.79687.9336m13.10157-2.19141l-6.03125 3.60547m5.15234-3.08204l1.05078.63282m11.88281-2.39453l-3.51171 6.08593m3-5.20312l1.22656.04297m7.38672 2.73047l6.91797-1.23047m6.5039 1.66797l6.70313-2.10547m-5.73047 1.80078l-.8711-.86328M393.80078 468.5l6.3711-2.97266m-6.3711 2.97266l-1.95703-1.47656m15.1914 1.28125l6.53516-2.58203m-6.53515 2.58203l-1.8672-1.59375m14.95313.67187l6.98828-.73828m-6.98828.73828l-1.37109-2.03515m14.67969 1.92968l7.0039-.52734m-7.0039.52734l-1.3125-2.07422m14.65234 2.31641l6.95313-1.01172m-6.95313 1.01172l-1.45312-1.97656m15.3164 3.41015l5.85938-3.8789m-5.85938 3.8789l-2.15625-1.17187"/><g clip-path="url(#U)"><path fill="none" stroke="#000" stroke-linecap="round" stroke-linejoin="round" stroke-miterlimit="10" stroke-width=".5" d="M147.1914 455.16406l-6.3828-2.9336"/></g><path fill="none" stroke="#000" stroke-linecap="round" stroke-linejoin="round" stroke-miterlimit="10" stroke-width=".5" d="M147.1914 455.16406l.14454 2.44922m12.61328-1.58984l-5.26953-4.64844m4.5039 3.97266l-.28515 1.1914m13.95312-.11718l-4.4414-5.44532m4.4414 5.44532l-.95312 2.26171m14.28906-2.27734l-4.48438-5.41406m4.48438 5.41406l-.9336 2.26563m15.01173-3.15235l-6.01172-3.64062m5.13672 3.10937l-.06641 1.22656m14.76562-2.45703l-7.02734-.1211m6.0039.10548l.5586 1.09375m13.6289-2.16016l-6.72656 2.04297m5.7461-1.7461l.86719.8711m13.34765-1.39844l-6.5664 2.5039m5.60937-2.13671l.92578.80469m13.5625-.21485l-7 .59375m7-.59375l1.33203 2.0586m11.97266-2.1836l-6.97656.83985m6.97656-.83985l1.40234 2.01563m11.9336-1.77344l-7.01954.35938m7.01954-.35938l1.26171 2.10547m11.95704-2.76562l-6.82422 1.67968m6.82422-1.67968l1.6328 1.82812m11.52735-2.30078l-6.51562 2.625m6.51562-2.625l1.8789 1.57812m11.16798-2.11328l-5.98047 3.69532m5.98047-3.69532l2.11718 1.23828m11.10547-1.375l-5.79687 3.96875m5.79687-3.96875l2.17578 1.13672m11.03907-1.28125l-5.59375 4.2539m5.59375-4.2539l2.22656 1.02735m10.86328-1.29297l-5.14453 4.78906m5.14453-4.78906l2.32031.80078m9.44141-1.76953l-2.03906 6.72656m2.03906-6.72656l2.40625-.47656m7.7461 1.05468l4.28515 5.57032m-4.28516-5.57032l1.01563-2.23437m11.08594 3.98047l6.71484 2.07812m-6.71484-2.07812l-.45704-2.41016m1.4336 2.71094l-.22656-1.20313m12.41406 2.13281l7.01562-.38671m-7.01562.38672l-1.26953-2.09766m14.58984 1.64844l7.00781.51171m-7.0078-.51171l-.9922-2.2422m15.08985.27735l5.4414 4.44532m-5.4414-4.44532l.47656-2.40625M435 452.125l.23828-1.20312m11.97656 1l6.0625 3.55468m-6.0625-3.55468l.10157-2.45313m.78125 2.96875l.05078-1.22266m11.92187 2.07813l6.98047.8125m-6.98047-.8125l-.89453-2.28516"/><g clip-path="url(#V)"><path fill="none" stroke="#000" stroke-linecap="round" stroke-linejoin="round" stroke-miterlimit="10" stroke-width=".5" d="M146.66406 442.67578l-5.32812-4.58594"/></g><path fill="none" stroke="#000" stroke-linecap="round" stroke-linejoin="round" stroke-miterlimit="10" stroke-width=".5" d="M146.66406 442.67578l-.54297 2.39453m13.44532-1.98828l-4.5-5.39844m4.5 5.39844l-.92578 2.27344m14.18359-2.22656l-4.38672-5.4922m4.38672 5.4922l-.97266 2.2539m13.1289-1.64062l-2.0703-6.71485m1.76953 5.73829l-.86328.86718m14.67187.04297l-2.45312-6.58594m2.09375 5.62891l-.8125.91797m15.53125-.57422l-4.54688-5.35937m3.88672 4.57812l-.45313 1.14063m14.94532-.89844l-5.57813-4.27735m4.76563 3.65235l-.20313 1.21094m14.48438-.8047l-5.88281-3.84374m19.76171 2.10937l-7.01562-.3711m5.9961.31642l.51952 1.11328m13.75391-1.92578l-6.89063 1.36328m6.89063-1.36328l1.55078 1.90234m11.59375-2.5l-6.54687 2.55469m6.54687-2.5547l1.85938 1.60157m11.6875-.51953l-7.01563.39453m7.01563-.39453l1.27343 2.09766m11.9336-2.78907l-6.79688 1.77735m6.79688-1.77735l1.66406 1.8047m-2.65234-1.54688l.83203.90234m13.17969-1.91797l-6.21094 3.28906m6.21094-3.28906l2.03125 1.3789m-2.9375-.89843l1.01562.6875m13.03906-1.44922l-5.8789 3.85156m5.8789-3.85156l2.14844 1.1836m-3.0039-.6211l1.07421.58985m12.95313-1.35157l-5.59766 4.25m5.59766-4.25l2.22656 1.03125m10.48828-1.64843l-4.39453 5.48437m4.39453-5.48437l2.41016.45703m9.78515-1.0586l-2.15234 6.6875m2.15234-6.6875l2.41407-.4336m8.19922.66407l3.25 6.23047m-3.25-6.23047l1.38671-2.02344m11.72266 2.13672l3.66016 6m-3.66016-6l1.25-2.10937m-.71484 2.98437l.625-1.0586m11.02343 1.29298l5.92188 3.78125m-5.92188-3.78125l.19532-2.44531m.66797 2.99609l.09765-1.22266m12.03516 1.30078l6.5586 2.52344m-6.5586-2.52344l-.29688-2.43359m17.19532.19531l-.60547 7m.60547-7l2.2578-.96093m12.6797 1.51953l-3.84766 5.8828m3.84766-5.8828l2.4414.22265m-3.0039.63282l1.22265.11328m14.10938 1.0078l-6.75782 1.9336"/><g clip-path="url(#W)"><path fill="none" stroke="#000" stroke-linecap="round" stroke-linejoin="round" stroke-miterlimit="10" stroke-width=".5" d="M466.9414 439.41797l1.70313 1.76562"/></g><path fill="none" stroke="#000" stroke-linecap="round" stroke-linejoin="round" stroke-miterlimit="10" stroke-width=".5" d="M465.95703 439.69922l.85156.88281"/><g clip-path="url(#X)"><path fill="none" stroke="#000" stroke-linecap="round" stroke-linejoin="round" stroke-miterlimit="10" stroke-width=".5" d="M146.92578 429.01563l-5.85156-3.89454"/></g><path fill="none" stroke="#000" stroke-linecap="round" stroke-linejoin="round" stroke-miterlimit="10" stroke-width=".5" d="M146.92578 429.01563l-.24219 2.4414m13.8672-3.01562l-6.46876-2.7461m6.46875 2.7461l.21484 2.4453m13.14454-2.55468l-6.5586-2.52734m5.60156 2.16015l.14844 1.21485m14.23828-1.20703l-6.78906-1.8086m6.78906 1.8086l.5586 2.38672m12.84765-2.86329l-6.97265-.85156m6.97265.85156l.88282 2.28907m12.43359-3.13672l-6.97656.83984m5.96094-.71875l.70312 1.00781m13.65234-.83203l-7.02343.2461m6-.21094l.61328 1.0664m12.96484 1.20704l-5.5039-4.3672m4.70312 3.73048l-.22266 1.20703m14.48828-.77344l-5.80468-3.96484m4.96094 3.38672l-.13672 1.21875m14.77734-1.67579l-6.76563-1.89453m5.78125 1.6172l.26172 1.19921m14.09766-2.57031l-6.88672 1.40234m5.88281-1.19922l.78125.94922m13.60547-.60156l-7.01953.30078m5.9961-.25781l.625 1.0586m13.70312-1.26563l-7 .6289m7-.6289l1.33984 2.05468m11.76563-2.96484l-6.58203 2.44922m6.58203-2.44922l1.83594 1.625m-2.79297-1.26953l.91797.8125m13.16406-1.59766l-6.20313 3.3086m6.20313-3.3086l2.03515 1.3711m11.03907-1.76172l-5.71875 4.08984m5.71875-4.08984l2.19531 1.09375m10.94922-1.3086l-5.3789 4.51953m5.3789-4.51953l2.27734.91797m9.82422-1.84765l-2.94922 6.3789m2.94922-6.3789l2.44922-.13672m8.89844-.15235l.98437 6.95703m-.98437-6.95703l1.98437-1.4453m-1.83984 2.45702l.99219-.72265m14.69921.3203l-4.05859 5.73829m4.0586-5.73828l2.43359.3125m-3.02344.52344l2.4336.3125m11.53515-1.10157l-4.1836 5.64453m4.1836-5.64453l2.42578.36328m-3.03515.45704l2.42578.36328m-3.03516.45703l1.21485.1836m12.51562-2.26954l-2.58203 6.53516m2.58203-6.53516l2.4375-.27734m-2.8125 1.22656l2.4375-.27344m-2.8125 1.22656l2.4375-.27734m12.27344-1.28906L434.99609 430m3.8711-5.86328l2.4414.23047m-3.0039.6211l2.4414.23437m11.9336-.6875l-4.86719 5.0664m4.86719-5.0664l2.36328.67187m-3.07031.0664l2.35937.66798m-3.0664.0664l1.17968.33594m14.10156-1.1289l-5.96875 3.70702"/><g clip-path="url(#Y)"><path fill="none" stroke="#000" stroke-linecap="round" stroke-linejoin="round" stroke-miterlimit="10" stroke-width=".5" d="M466.54688 425.21484l2.12109 1.23438"/></g><g clip-path="url(#Z)"><path fill="none" stroke="#000" stroke-linecap="round" stroke-linejoin="round" stroke-miterlimit="10" stroke-width=".5" d="M465.67969 425.7539l2.1211 1.23438"/></g><path fill="none" stroke="#000" stroke-linecap="round" stroke-linejoin="round" stroke-miterlimit="10" stroke-width=".5" d="M464.8086 426.29297l1.0625.61719"/><g clip-path="url(#aa)"><path fill="none" stroke="#000" stroke-linecap="round" stroke-linejoin="round" stroke-miterlimit="10" stroke-width=".5" d="M147.03516 415.52344l-6.07032-3.53906"/></g><path fill="none" stroke="#000" stroke-linecap="round" stroke-linejoin="round" stroke-miterlimit="10" stroke-width=".5" d="M147.03516 415.52344l-.09766 2.45312m13.65625-2.95703l-6.5586-2.53125m6.5586 2.53125l.29297 2.4336m13.2539-3.60547l-7.02343-.1875m6.0039.16015l.54688 1.09766m13.78516-1.34766l-7.01563.36719m5.9961-.3164l.6328 1.05468m13.67188-.41406l-6.95312-1.01563m5.9414.8672l.41016 1.15624m12.23828-4.53515l-3.59766 6.03515m16.13672-3.01562l-.01953-.19922-.0586-.1914-.09374-.1797-.46094-.375-.1914-.05859-.19923-.01953-.19921.01953-.19141.0586-.46094.375-.09375.17968-.0586.1914-.01952.19923.01953.19922.0586.1914.09374.17578.46094.3789.1914.0586.19923.01953.19921-.01953.19141-.0586.46094-.3789.09375-.17578.0586-.1914.01952-.19922m9.22656 1.71484l6.12891-3.4336m-5.23828 2.9336L234 414.30859m17.78125 2.72266l-2.52344-6.5586m2.15625 5.60548l-.80078.92578m15.13672-.3047l-3.82813-5.89452m3.26954 5.03906l-.59375 1.07031m16.03125-2.66015l-6.95703-1.00391m6.95703 1.0039l.82812 2.3125m12.4961-3.24218l-6.97266.85937m5.95703-.73437l.70313 1.0039m13.6328-1.09765l-6.98437.79297m6.98438-.79297l1.38672 2.02344m11.875-2.34375l-6.87891 1.4375m6.8789-1.4375l1.57032 1.8828m11.3086-2.99218l-6.00391 3.65625m6.0039-3.65625l2.10938 1.2539m10.90234-1.67187L341.02344 416m5.40234-4.49219l2.27344.92578m11.23437-.67187l-5.78515 3.98437m5.78515-3.98437l2.1797 1.1289m11.51562-.41406l-6.54688 2.55469m6.54688-2.55469l1.85937 1.59766m-2.8125-1.22656l1.86328 1.59765m11.71875-3.07031l-5.17187 4.75781m5.17187-4.75781l2.3164.8164m-3.0703-.125l2.3164.81641m-3.0664-.125l1.15625.41016m13.625-1.83203l-5.09766 4.83593m5.09766-4.83593l2.32812.78125m-3.07031-.07813l2.32812.78125m-3.0703-.07812l1.16405.39062m13.54297-1.89453l-4.91015 5.02734m4.91015-5.02734l2.35156.6914m-3.0664.04298l2.35547.6875m-3.07031.04296l2.35546.6875m-3.0703.04297l1.17577.34375m14.13281-2.67578l-4.60937 5.30469m4.60938-5.30469l2.39062.55078m-3.0625.21875l2.39063.55078m-3.0625.22266l1.1953.27734m13.6172-1.67968l-4.91797 5.02343m4.91796-5.02343l2.35157.6914m-3.0664.03907l2.35155.6914m-3.0664.03906l1.17578.34766m13.95312-1.35937l-5.6875 4.125m5.6875-4.125l2.20704 1.07421m-3.03516-.47656l2.20703 1.07813m-3.03516-.47657l1.10547.53907m14.15625-1.26953l-6.26562 3.1875"/><g clip-path="url(#ab)"><path fill="none" stroke="#000" stroke-linecap="round" stroke-linejoin="round" stroke-miterlimit="10" stroke-width=".5" d="M466.69531 412.16016l2.00781 1.41015"/></g><g clip-path="url(#ac)"><path fill="none" stroke="#000" stroke-linecap="round" stroke-linejoin="round" stroke-miterlimit="10" stroke-width=".5" d="M465.78125 412.625l2.01172 1.40625"/></g><g clip-path="url(#ad)"><path fill="none" stroke="#000" stroke-linecap="round" stroke-linejoin="round" stroke-miterlimit="10" stroke-width=".5" d="M147.4336 401.1914l-6.8672-1.5039"/></g><path fill="none" stroke="#000" stroke-linecap="round" stroke-linejoin="round" stroke-miterlimit="10" stroke-width=".5" d="M147.4336 401.1914l.66015 2.35938m12.70313-2.65625l-6.96485-.91406m6.96484.91406l.86329 2.30078m12.3828-3.59765l-6.82421 1.67968m6.82422-1.67968l1.63672 1.83203m9.59375-4.24219l-2.65625 6.5039m2.65625-6.5039l2.4414-.25m7.19532.89063l4.69922 5.22265m-4.01563-4.46484l.42188-1.15235m11.05468 3.2461l7.01172-.48438m-5.99219.41406l-.64843-1.03906m13.53515 2.82813l5.82813-3.92188m-4.98047 3.35156l-1.08203-.57812m15.58594-4.21484l1.7539 6.80468m9.63281-1.28515l5.61328-4.23047m-5.61328 4.23047l-2.22265-1.03906m18.98437 2.3789l-1.28515-6.91015m1.10156 5.90234l-.96094.76562m17.11328-1.99609l-6.58984-2.4375m6.58984 2.4375l.33203 2.4336m13.10157-4.48438l-6.82813 1.66406m5.83594-1.42187l.8164.91796m12.8125-2.53515l-5.46874 4.41406m19.54296-1.85156l-6.98828-.70703m6.98828.70703l.9297 2.26953m8.96874-6.13672l-.15625 7.02344m.13281-6l1.09766-.55469m15.60938 2.36719l-6.89454 1.35547m6.89454-1.35547l1.55078 1.90234m11.76562-.54297l-6.89453-1.36328m5.89063 1.16406l.35546 1.17579m13.73438-3.07032l-6.4336 2.82422m6.4336-2.82422l1.92578 1.51954m-2.86328-1.10938l.96484.75781m12.33594-2.4414l-4.53516 5.36718m4.53516-5.36718l2.39844.51953m-3.0586.26172l2.39844.51953m-3.0586.26172l1.19923.2578m14.3125-.70702l-6.28516 3.14062m6.28516-3.14062l2 1.42187m-2.91407-.96484l1 .71094m13.14844-1.32032l-6.125 3.44922m6.125-3.44922l2.0664 1.32422m-2.95702-.82422l1.03125.66407m12.84375-1.65235l-5.46094 4.42188m5.46094-4.42188l2.2578.96094m-3.05077-.3164l2.25781.96093m11.72656-1.7461l-5.21875 4.70704m5.21875-4.70703l2.3086.83594m-3.06641-.15235l2.30469.83985m12.2461-.85157l-6.17188 3.35938m6.17187-3.35938l2.04688 1.35156m-2.94532-.86328l2.04688 1.35157m12.29687-1.57422l-6.43359 2.82812"/><g clip-path="url(#ae)"><path fill="none" stroke="#000" stroke-linecap="round" stroke-linejoin="round" stroke-miterlimit="10" stroke-width=".5" d="M466.77734 399.02344l1.92579 1.51953"/></g><g clip-path="url(#af)"><path fill="none" stroke="#000" stroke-linecap="round" stroke-linejoin="round" stroke-miterlimit="10" stroke-width=".5" d="M465.84375 399.4375l1.92578 1.51953"/></g><path fill="none" stroke="#000" stroke-linecap="round" stroke-linejoin="round" stroke-miterlimit="10" stroke-width=".5" d="M464.90625 399.84766l.96484.7578"/><g clip-path="url(#ag)"><path fill="none" stroke="#000" stroke-linecap="round" stroke-linejoin="round" stroke-miterlimit="10" stroke-width=".5" d="M147.32813 388.2539l-6.65625-2.26171"/></g><path fill="none" stroke="#000" stroke-linecap="round" stroke-linejoin="round" stroke-miterlimit="10" stroke-width=".5" d="M147.32813 388.2539l.39062 2.42188m13.08594-3.15234l-6.98047-.80078m6.98047.80078l.89844 2.28515m-1.91407-2.40234l.44922 1.14453m13.67578-2.67969l-6.5664 2.50391m6.5664-2.5039l1.84766 1.61718m10.47266-3.03125l-4.57813 5.33203m4.57813-5.33203l2.39453.53906m-3.0625.23829l1.19922.26562m12.48046-1.27344l-3.97265 5.79688m3.97265-5.79688l2.4375.27344m-3.01562.57031l1.21875.13672m12.0625-1.3164l-2.75 6.46484m2.75-6.46485l2.44531-.21093m-2.84375 1.15234l1.22266-.10547m12.38281 5.67578l-2.53125-6.55468m2.16406 5.59765l-.80469.92969m16.41797-4.70703l-6.39453 2.91015m5.46485-2.48437l.97265.7461m13.5625.71874l-6.97265-.87109m6.97265.8711l.875 2.29296m-1.89062-2.42187l.4375 1.14844m13.2461.61328l-5.6836-4.13282m5.6836 4.13282l-.33985 2.42968m-.48438-3.03125l-.17187 1.21485m14.67187-1.23438l-6.40234-2.89453m6.40234 2.89453l.16016 2.44531m-1.08984-2.86718l.15625 2.44922m14.33984-2.82422l-6.90625-1.30078m6.90625 1.30078l.73047 2.34375m-1.73438-2.53125l.36328 1.17187m14.01563-1.74219l-7.02344.21485m7.02344-.21485l1.21484 2.13282m-2.23828-2.10156l.60938 1.0664m13.72265-1.21875l-7.01172.45703m7.01172-.45703l1.28907 2.08985m-2.3086-2.02344l.64453 1.04687m13.44922-2.17969l-6.53125 2.59375m6.53125-2.59375l1.8711 1.58594m-2.82032-1.21094l.9336.79297m13.57422.28125l-7.01954-.30859m7.01954.3086l1.05859 2.21484m12.13281-3.3164l-6.76953 1.89452m6.76953-1.89453l1.6914 1.77735m-2.67577-1.5l.84375.88671m13.30468-1.58984l-6.46875 2.7461m6.46875-2.7461l1.90625 1.54688m-2.84765-1.14454l1.90625 1.54297m12.0586-2.49219l-5.88282 3.83985m5.88281-3.83985l2.14844 1.1836m-3.0039-.625l2.14843 1.1836m12.01172-1.76173l-5.86328 3.87891m5.86328-3.8789l2.15625 1.17187m-3.01172-.60547l2.15625 1.16797m12.01563-1.72656l-5.8672 3.86328m5.8672-3.86328l2.15625 1.17578m-3.00782-.61328l1.07422.58593m12.75781-1.58203l-5.1953 4.73047m5.1953-4.73047l2.3086.82422m-3.0664-.13672l1.15624.41406m13.13672-.83203l-5.63672 4.19532m5.63672-4.19532l2.21875 1.04688m-3.03906-.4375l1.10937.52344m13.38282-.54297l-6.35157 3.01172m6.35157-3.01172l1.96875 1.46484m-2.89454-1.02734l1.96875 1.46484m12.4922-1.29687l-6.79298 1.80078"/><g clip-path="url(#ah)"><path fill="none" stroke="#000" stroke-linecap="round" stroke-linejoin="round" stroke-miterlimit="10" stroke-width=".5" d="M466.95703 386.22266l1.66797 1.80078"/></g><path fill="none" stroke="#000" stroke-linecap="round" stroke-linejoin="round" stroke-miterlimit="10" stroke-width=".5" d="M465.96875 386.48438l1.66797 1.80078m-2.65625-1.53907l.83594.90235"/><g clip-path="url(#ai)"><path fill="none" stroke="#000" stroke-linecap="round" stroke-linejoin="round" stroke-miterlimit="10" stroke-width=".5" d="M146.77734 375.96094l-5.55468-4.30469"/></g><path fill="none" stroke="#000" stroke-linecap="round" stroke-linejoin="round" stroke-miterlimit="10" stroke-width=".5" d="M146.77734 375.96094l-.41797 2.41797m14.07032-2.94922l-6.23047-3.2461m6.23047 3.2461l.02344 2.45312m13.3789-2.63281l-6.40625-2.88672m5.47656 2.46875l.07813 1.22266m14.4375-2.76953l-6.94531 1.04687m6.9453-1.04687l1.46485 1.96875m11.26172-3.44922l-5.76953 4.00781m5.76953-4.00781l2.1836 1.1211m-3.02344-.53907l1.09375.5625m13.28515-.78125l-6.21484 3.28125m6.21484-3.28125l2.02735 1.3789m-2.9336-.90234l2.03125 1.3789m12.46485.73048l-6.76563-1.89063m6.76563 1.89063l.52734 2.39453m-1.51172-2.67188l.26563 1.19922m13.88672-.4961l-6.47266-2.74218m6.47266 2.74219l.21484 2.4414M239.5 374.78125L239.60547 376m14.38281-2.7461l-6.9375 1.10938m6.9375-1.10937l1.48047 1.95703m11.0664.84765l-5.39843-4.5m5.39844 4.5l-.50391 2.40235m-.28125-3.0586l-.2539 1.20313m14.20702-.38672l-5.10546-4.82422m5.10547 4.82422l-.64844 2.36719m14.875-4.19922L287 373.23047m6.92969 1.15625l.78125 2.32422m-1.78906-2.49219l.39062 1.16406m13.94531-1.0586l-6.95312-1.03515m6.95312 1.03516l.82031 2.3125m-1.83203-2.46094l.82032 2.3125m13.54296-2.67969h-7.02734m7.02735 0l1.15234 2.16797m-2.17578-2.16797l.57812 1.08204m13.57422-2.21094l-6.65234 2.25781m6.65234-2.25781l1.78516 1.67969m-2.7539-1.35157l.89452.83985m13.39063-1.16797l-6.65625 2.2539m6.65625-2.2539l1.78515 1.6836m-2.7539-1.35548l.89453.84375m13.49219-.78906l-6.86329 1.49219m6.86329-1.49219l1.58593 1.8711m-2.58203-1.65626l.79297.9375m13.55078-.98828l-6.92969 1.16406m6.9297-1.16406l1.49609 1.94531m-2.50391-1.77734l.7461.97266m13.51562-1.4375l-6.80469 1.75781m6.80469-1.75781l1.65625 1.8086m-2.64844-1.5547l.82813.90625m13.10546-2.0625l-6.05859 3.5625m6.0586-3.5625l2.08984 1.28516m-2.97266-.76563l1.04688.64063m13.1875-1.09766l-6.1289 3.4375m6.1289-3.4375l2.0625 1.32422m-2.95703-.82422l1.03515.66407m12.94922-1.51172l-5.67969 4.13281m5.6797-4.13281l2.20702 1.07422m-3.03515-.47266l1.10546.53516m13.1797-.9297l-5.96485 3.71876m5.96484-3.71875l2.1211 1.23047m-2.98829-.6875l1.0625.61328m13.40625-.58594l-6.53906 2.57422m6.53906-2.57422l1.8672 1.59375m-2.81641-1.21875l.92968.79688m13.44532-.84766l-6.75782 1.92969"/><g clip-path="url(#aj)"><path fill="none" stroke="#000" stroke-linecap="round" stroke-linejoin="round" stroke-miterlimit="10" stroke-width=".5" d="M466.9414 372.84375l1.69923 1.76953"/></g><path fill="none" stroke="#000" stroke-linecap="round" stroke-linejoin="round" stroke-miterlimit="10" stroke-width=".5" d="M465.95703 373.125l.85156.88281"/><g clip-path="url(#ak)"><path fill="none" stroke="#000" stroke-linecap="round" stroke-linejoin="round" stroke-miterlimit="10" stroke-width=".5" d="M146.17188 363.2539l-4.34375-5.52343"/></g><path fill="none" stroke="#000" stroke-linecap="round" stroke-linejoin="round" stroke-miterlimit="10" stroke-width=".5" d="M145.53906 362.45313l-.4961 1.12109m14.50782-.3711l-4.46875-5.42187m3.8164 4.63281l-.46874 1.13672m14.28906-.23437l-4.17969-5.64844m4.17969 5.64844l-1.05469 2.21484m15.5586-3.77734l-6.5547-2.52344m5.60157 2.15625l.14844 1.21875m14.33594-2.48828l-6.98828.7539m5.97265-.64453l.6875 1.01563m13.39453-2.09375l-6.49219 2.6914m6.4922-2.6914l1.89452 1.5586m11.6836-.4375l-7.01563.4453m7.01563-.4453l1.28515 2.08983m-2.30859-2.02343l1.28906 2.08984m13.03906-1.60937l-6.99609-.64844m6.9961.64844l.94921 2.26562m-1.96484-2.35937l.47266 1.1328m13.875-1.41015l-7.02735.09375m7.02735-.09375l1.17968 2.15235m-2.20312-2.13672l.58984 1.07422m13 1.1289l-5.53125-4.33984m5.53125 4.33984l-.4336 2.41406m-.37109-3.04687l-.21875 1.20703m14.3086-.53906l-5.47266-4.41016m5.47266 4.41016l-.46094 2.40625m-.33594-3.05078l-.23047 1.20703m14.91016-1.57422l-6.60937-2.39063m6.60937 2.39063l.34766 2.42969m-1.3086-2.77735l.17188 1.21485m14.08594-.8125l-6.57032-2.4961m6.57032 2.4961l.30468 2.4336m-1.26171-2.79688l.15234 1.21484m14.25781-1.3125l-6.84765-1.57813m6.84765 1.57813l.63672 2.3711m-1.63281-2.59766l.3164 1.1836m14.08594-1.6797l-7.02734-.1328m7.02734.1328l1.10938 2.1875m12.14062-2.91406l-6.89844 1.32422m6.89844-1.32422l1.53906 1.91016m-2.54296-1.71875l.76953.95703m13.5625-1.08594l-6.92578 1.19531m6.92578-1.1953l1.5039 1.9414m-2.51172-1.76563l.75.96875m13.59766-.96875l-6.97656.84375m6.97656-.84375l1.40625 2.01172m-2.42187-1.88672l.70312 1.0039m13.34766-2.13671l-6.41797 2.85938m6.41797-2.85938l1.9375 1.51172m-2.8711-1.09375l1.9336 1.50781m12.34375-1.86328l-6.47266 2.73438m6.47266-2.73438l1.90625 1.54688m-2.84766-1.14844l.95313.77344m13.11718-1.54297l-6.10156 3.48046m6.10156-3.48046l2.07422 1.30859m-2.96094-.80469l2.07422 1.3125m11.98828-2.04297l-5.82421 3.9336m5.82421-3.9336l2.16797 1.15235m-3.01562-.58203l2.16797 1.15234m12.05859-1.625l-5.94922 3.73828m5.94922-3.73828l2.1289 1.21875m-2.99609-.67578l2.1289 1.22265m12.28517-1.33593l-6.41407 2.875m6.41407-2.875l1.9375 1.50781m-2.8711-1.08984l.96875.7539m13.24219-1.25l-6.33984 3.03125"/><g clip-path="url(#al)"><path fill="none" stroke="#000" stroke-linecap="round" stroke-linejoin="round" stroke-miterlimit="10" stroke-width=".5" d="M466.73047 358.97656l1.97656 1.46094"/></g><path fill="none" stroke="#000" stroke-linecap="round" stroke-linejoin="round" stroke-miterlimit="10" stroke-width=".5" d="M465.8086 359.41797l.98827.73047"/><g clip-path="url(#am)"><path fill="none" stroke="#000" stroke-linecap="round" stroke-linejoin="round" stroke-miterlimit="10" stroke-width=".5" d="M145.9414 350.10547l-3.8828-5.85547"/></g><path fill="none" stroke="#000" stroke-linecap="round" stroke-linejoin="round" stroke-miterlimit="10" stroke-width=".5" d="M145.3789 349.2539l-.58593 1.07813m13.83594.10547L156 343.91797m2.2461 5.57031l-.78907.9414m14.63281-.05468l-2.91797-6.39453m2.91797 6.39453l-1.49609 1.94531m15.5039-2.36719l-4.30468-5.55078m3.67969 4.7461l-.50391 1.11719m13.39844.24609l-2.21485-6.66797m1.89453 5.69922l-.84765.88672m16.13281-1.07031l-5.51172-4.36329m4.70703 3.72657l-.21875 1.20703m15.09375-2.83594l-7.02343.17188m7.02343-.17188l1.20313 2.13672m12.11328-2.1211l-7.02734.13672m7.02734-.13671l1.19531 2.14062m-2.21875-2.1211l.59766 1.07032m13.57812.03906l-6.69922-2.1211m6.69922 2.1211l.44532 2.41016m13.02734-3.30469l-7.01953-.33203m7.01953.33203l1.05078 2.21875m-2.07031-2.26563l.52344 1.10938m12.70312 1.33594l-4.80078-5.1289m4.80078 5.1289l-.79297 2.32422m.09375-3.07032l-.79297 2.32422m15.09766-1.88281l-5.38281-4.51953m5.38281 4.51953l-.50781 2.39844m-.27344-3.0586l-.2539 1.20313m14.45312-.67188l-5.58594-4.26171m5.58594 4.26171l-.39844 2.42188m-.41406-3.04297l-.19922 1.21094m14.9375-1.84766l-6.8086-1.7461m6.8086 1.7461l.57813 2.38672m-1.57032-2.64063l.28907 1.19141m14.07812-1.21484l-6.92578-1.1914m6.92578 1.1914l.76563 2.33203m12.53515-3.59766l-6.89844 1.34375m6.89844-1.34375l1.54297 1.90625m-2.54687-1.71094l.77343.95313m13.42578-1.59375l-6.66015 2.23047m6.66015-2.23047l1.78125 1.6875m-2.75-1.36328l.89063.84375m13.5664-.32813l-7.0078.55079m7.0078-.55079l1.31641 2.07032m-2.33594-1.98829l.66016 1.03516m13.55469-1.78125l-6.76953 1.88281m6.76953-1.8828l1.6914 1.77733m-2.67578-1.5039l.84766.88672m13.07031-2.04297L393.98438 349m6.0039-3.64453l2.10938 1.2539m-2.98047-.72265l1.05469.625m13.14843-1.13281l-6.03906 3.59765m6.03906-3.59765l2.09766 1.27343m-2.97656-.75l2.09765 1.27344m12.09766-1.79297l-6.03906 3.58985m6.03906-3.58985l2.09766 1.27344m-2.97657-.75l2.09766 1.27344m-2.97656-.7539l1.04687.64062m14.3125-1.07032l-6.61328 2.3672m6.61328-2.3672l1.8164 1.65235m-2.77734-1.3086l1.8125 1.65235m12.52735-1.80078l-6.74219 1.97265m6.74219-1.97265l1.71484 1.7539m-2.69531-1.46875l1.71484 1.75781m12.41407-2.5l-6.40625 2.88672"/><g clip-path="url(#an)"><path fill="none" stroke="#000" stroke-linecap="round" stroke-linejoin="round" stroke-miterlimit="10" stroke-width=".5" d="M466.76563 345.73438l1.9414 1.5"/></g><g clip-path="url(#ao)"><path fill="none" stroke="#000" stroke-linecap="round" stroke-linejoin="round" stroke-miterlimit="10" stroke-width=".5" d="M465.83203 346.15234l1.9414 1.50391"/></g><path fill="none" stroke="#000" stroke-linecap="round" stroke-linejoin="round" stroke-miterlimit="10" stroke-width=".5" d="M464.90234 346.57422l.96875.75"/><g clip-path="url(#ap)"><path fill="none" stroke="#000" stroke-linecap="round" stroke-linejoin="round" stroke-miterlimit="10" stroke-width=".5" d="M146.54688 336.28516l-5.09375-4.84375"/></g><path fill="none" stroke="#000" stroke-linecap="round" stroke-linejoin="round" stroke-miterlimit="10" stroke-width=".5" d="M145.80469 335.58203l-.32813 1.17969m13.73438.0586l-3.79297-5.91407m3.24219 5.05469l-.60157 1.07031m14.26172-.08984l-3.38281-6.16016m2.89063 5.26563l-.67188 1.02734m13.99219.08984l-2.40625-6.60156m2.40625 6.60156l-1.64453 1.82422m15.24609-1.9414l-2.98047-6.3672m2.54688 5.44141l-.73828.98047m13.09765.27344l-.20312-7.02344m.17578 6l-1.0664.60938m16.16796-.11719l-3.71875-5.96094m3.17578 5.09375l-.61328 1.0625m15.4336-1.08203l-5.64454-4.1875m4.82422 3.57813l-.1836 1.21093m13.88673-.11718l-4.77735-5.15625m4.08203 4.40625l-.40234 1.15625m14.32422-.32813l-4.60156-5.3125m3.93359 4.53906l-.4414 1.14454m15.02734-1.04688l-5.8086-3.96094m5.8086 3.96094l-.26953 2.4375m-.57422-3.01563l-.13672 1.21875m14.10547-.39062l-5.42969-4.46094m5.42969 4.46094L292.6953 338.5m12.82031-1.58203l-3.46875-6.11328m3.46875 6.11328l-1.3203 2.07031m.8125-2.95703l-.65626 1.03516m15.11719-.61329l-4.7461-5.18359m4.7461 5.1836l-.82031 2.3125m15.08984-3.77344l-6.65234-2.26172m6.65234 2.26172l.39063 2.42187m13.09375-3.875l-6.9961.64844m6.9961-.64844l1.34765 2.04688m11.45313-3.58203l-5.96485 3.71875m5.09766-3.1797l1.0586.6172m13.2578-.92188l-6.23046 3.25m5.32422-2.77734l1.01171.69531m13.60157.625l-7.01953-.33984m7.01953.33984l1.04687 2.22266m11.6211-4.4297l-5.72266 4.07813m4.89062-3.48437l1.09766.54687m13.20703-.90234l-6.03515 3.60156m6.03515-3.60156l2.09766 1.27344m-2.97656-.75l1.05078.63672m13.39062-.65235l-6.53125 2.58594m6.53125-2.58594l1.86719 1.58985m-2.8164-1.21485l1.86718 1.58985m12.48047-1.73829l-6.69922 2.13282m6.69922-2.13281l1.7539 1.71875m-2.73046-1.40625l1.7539 1.71484m12.53125-2.03906l-6.6875 2.15625m6.6875-2.15625l1.76172 1.71093m-2.73437-1.39453l1.76172 1.70703m-2.73438-1.39453l.8789.85547m14.20704-1.92578l-6.33594 3.03516"/><g clip-path="url(#aq)"><path fill="none" stroke="#000" stroke-linecap="round" stroke-linejoin="round" stroke-miterlimit="10" stroke-width=".5" d="M466.73047 332.34375l1.97656 1.45703"/></g><g clip-path="url(#ar)"><path fill="none" stroke="#000" stroke-linecap="round" stroke-linejoin="round" stroke-miterlimit="10" stroke-width=".5" d="M465.8086 332.78516l1.97265 1.45703"/></g><path fill="none" stroke="#000" stroke-linecap="round" stroke-linejoin="round" stroke-miterlimit="10" stroke-width=".5" d="M464.88672 333.23047l.98828.72656"/><g clip-path="url(#as)"><path fill="none" stroke="#000" stroke-linecap="round" stroke-linejoin="round" stroke-miterlimit="10" stroke-width=".5" d="M147.22266 321.94531l-6.44532-2.79297"/></g><path fill="none" stroke="#000" stroke-linecap="round" stroke-linejoin="round" stroke-miterlimit="10" stroke-width=".5" d="M147.22266 321.94531l.19922 2.44531m12.70312-1.73437l-5.6211-4.21875m5.6211 4.21875l-.3789 2.42578m13.21484-1.90234l-4.66016-5.26172m3.98047 4.4961l-.42969 1.14843m13.76953.07422l-3.35156-6.17578m3.35156 6.17578l-1.35156 2.04687m14.39063-1.91406l-2.80078-6.44531m2.80078 6.44531l-1.52735 1.92188m15.70703-2.45704l-4.52734-5.375m4.52734 5.375l-.91406 2.27735m15-3.1914l-6.07031-3.54298m5.1875 3.02735l-.05078 1.22656m14.19922-.63281l-5.97266-3.69922m5.10547 3.16015l-.08203 1.22266m12.82031.625l-3.08203-6.3164m2.63281 5.39453l-.72266.99609m13.75.1875l-1.60937-6.83984m1.375 5.84375l-.92578.80859m15.39453-.17188l-3.44922-6.12109m2.94922 5.23047l-.66016 1.03125m13.92578.10938l-2.35156-6.6211m2.35156 6.6211l-1.65625 1.80859m15.09375-1.85547l-2.59375-6.53125m2.59375 6.53125l-1.58593 1.8711m14.28125-1.6875l-1.35547-6.89454m1.35547 6.89453l-1.90235 1.54688m14.94922-1.5039l-.8164-6.98048m.8164 6.98047l-2.01953 1.39453m16.1289-1.58593l-2.40624-6.60157m15.88672.06641l-2.73829 6.46875m16.72657-6.09375l-4.08594 5.71875m18.70703-1.79688l-6.69922-2.12109m5.72656 1.8125l.22266 1.20703m14.125-1.10156l-6.8164-1.71484m5.82421 1.46484l.29297 1.1914m13.82422-3.20702l-6.4375 2.8164m5.5-2.40625l.96485.76172m12.9375-1.79688l-5.73438 4.0625m4.89844-3.47265l1.09765.55078m12.28907-1.92188l-4.20704 5.62891m3.59375-4.8086l1.21485.1875m13.66406.06641l-6.10937 3.47657m6.10937-3.47657l2.07031 1.31641m11.0547-1.61328l-5.72657 4.07422"/><g clip-path="url(#at)"><path fill="none" stroke="#000" stroke-linecap="round" stroke-linejoin="round" stroke-miterlimit="10" stroke-width=".5" d="M466.42578 318.51172l2.1914 1.09375"/></g><g clip-path="url(#au)"><path fill="none" stroke="#000" stroke-linecap="round" stroke-linejoin="round" stroke-miterlimit="10" stroke-width=".5" d="M465.58984 319.10156l2.19532 1.09766"/></g><path fill="none" stroke="#000" stroke-linecap="round" stroke-linejoin="round" stroke-miterlimit="10" stroke-width=".5" d="M464.75781 319.69531l1.09766.55078"/><path fill="#00f" fill-rule="evenodd" d="M392.67578 463.21094h8.6211V453.0625h-8.6211v10.14844"/><path fill="azure" fill-rule="evenodd" d="M394.51172 454.89844h.83203v2.82031h3.28516v-2.82031h.83203v6.48047h-.83203v-2.91797h-3.28516v2.91797h-.83203v-6.48047"/><path fill="#00f" fill-rule="evenodd" d="M277.28125 458.77344h8.61719V448.625h-8.61719v10.14844"/><path fill="azure" fill-rule="evenodd" d="M279.11328 450.45703h.83203v2.82422h3.28516v-2.82422h.83594v6.48047h-.83594v-2.91406h-3.28516v2.91406h-.83203v-6.48047"/><path fill="#ff3030" fill-rule="evenodd" d="M317.91797 436.57813h7.69531v-10.14454h-7.69531v10.14454"/><path fill="azure" fill-rule="evenodd" d="M319.7539 428.26563h.83204v5.74218h3.1914v.73828h-4.02343v-6.48046"/><path fill="#00f" fill-rule="evenodd" d="M383.80078 432.14063h8.61719v-10.14454h-8.61719v10.14454"/><path fill="azure" fill-rule="evenodd" d="M385.63281 423.82813h.83203v2.82421h3.28907v-2.82421h.83203v6.48046h-.83203v-2.91796h-3.28907v2.91796h-.83203v-6.48046"/><path fill="#ff3030" fill-rule="evenodd" d="M198.08203 427.70313h7.69531v-10.14454h-7.6953v10.14454"/><path fill="azure" fill-rule="evenodd" d="M199.91797 419.39063h.83203v5.73828h3.19531v.74218h-4.02734v-6.48046"/><path fill="#00f" fill-rule="evenodd" d="M224.01953 418.82813h8.61719v-10.14844h-8.61719v10.14844"/><path fill="azure" fill-rule="evenodd" d="M225.85156 410.51172h.83594v2.82422h3.28516v-2.82422h.83203v6.48047h-.83203v-2.91406h-3.28516v2.91406h-.83594v-6.48047"/><path fill="#ff3030" fill-rule="evenodd" d="M233.58984 387.75781h7.69532v-10.14453h-7.69532v10.14453"/><path fill="azure" fill-rule="evenodd" d="M235.42188 379.44531h.83593v5.73828h3.1914v.7422h-4.02733v-6.48048"/><path fill="#ffffe0" fill-rule="evenodd" d="M345.41797 392.42578h22.17969v-10.1914h-22.1797v10.1914"/><path fill-rule="evenodd" d="M348.91797 384.07031h.50781v6.29297h-.78515V385.875H347.25v-.5586l.5625-.0625.25-.05468.23047-.08985.20312-.14062.17579-.21094.14062-.29297.10547-.39453m4.8125 0l.23047.01563.21875.0586.20703.08983.19922.1172.1836.15234.17187.17578.30078.41797.24219.49218.17968.54688.11328.58203.03907.58984-.03907.59375-.11328.58204-.17969.55468-.24218.5039-.30078.42579-.17188.17969-.1836.15234-.19921.125-.20703.09375-.21875.05469-.23047.01953-.22656-.01953-.21875-.05469-.21094-.09375-.19531-.125-.1836-.15234-.17187-.17969-.30078-.42578-.2461-.5039-.17969-.5547-.10937-.58203-.03906-.59375h.83203l.03125.5625.08203.50782.125.4414.16406.375.1875.30078.21094.21875.22266.14063.22656.04687.22656-.04687.22266-.14063.21094-.21875.1914-.30078.16406-.375.125-.4414.08204-.50782.02734-.5625-.02735-.5625-.08203-.5-.125-.43359-.16406-.36719-.1914-.29297-.21094-.21484-.22266-.1289-.22656-.04688-.22656.04687-.22266.12891-.21094.21484-.1875.29297-.16406.36719-.125.4336-.08203.5-.03125.5625h-.83203l.03906-.58985.10938-.58203.17968-.54688.2461-.49218.30078-.41797.17187-.17578.1836-.15235.1953-.11719.21095-.08984.21875-.0586.22656-.01562m5.09375 0h.50781v6.29297h-.78515V385.875h-1.39063v-.5586l.5586-.0625.2539-.05468.23047-.08985.20312-.14062.17188-.21094.14453-.29297.10547-.39453m2.82422 2.17188h.78515l.01954-.3164.05859-.28517.10156-.25.13672-.21875.1836-.17187.22265-.1289.26563-.08204.30859-.02734.23828.02344.22266.0625.20312.10156.17969.13672.14844.17578.11328.20312.07031.23829.02734.26171-.02343.26954-.06641.22656-.10938.1914-.15625.17188-.19921.16015-.2461.16797-.63672.38672-.53515.3125-.4375.3164-.34766.32813-.26172.33204-.1914.35156-.125.3711-.07032.39452-.01953.41797h4.21094v-.74219h-3.33203l.08203-.28125.11328-.23828.14844-.20312.1875-.17969.23047-.17188.28125-.17578.71484-.41406.41797-.20703.34375-.23047.28125-.25.21875-.26953.16406-.27734.11328-.28125.0625-.28516.01954-.28125-.04297-.38281-.1172-.35156-.1914-.3047-.25-.26562-.30078-.21094-.34765-.16015-.37891-.09766-.40625-.03125-.4375.03125-.39844.09766-.35156.16797-.30469.23437-.25.30469-.1836.3711-.11718.44921-.03906.51563"/><path fill="#ffffe0" fill-rule="evenodd" d="M221.91016 342.85938h22.17968v-10.19141h-22.17968v10.1914"/><path fill-rule="evenodd" d="M225.40625 334.5h.51172v6.29688h-.78906v-4.48829h-1.38672V335.75l.5586-.0625.2539-.05469.22656-.08984.20313-.14063.17578-.21093.14062-.29297.10547-.39844m4.8164 0l.22657.01953.21875.0586.21094.08593.1953.1211.1836.15234.17188.17578.30078.41797.2461.49219.17968.54687.10938.58203.03906.58985-.03906.59375-.10938.58203-.17969.55469-.2461.5039-.30077.42578-.17188.1797-.1836.15233-.1953.125-.21094.09375-.21875.0547-.22656.01952-.23047-.01953-.21875-.05469-.20703-.09375-.19922-.125-.1836-.15234-.17187-.17969-.30078-.42578-.24219-.5039-.17969-.5547-.11328-.58202-.03906-.59375h.83594l.02734.5625.08203.50781.125.4414.16406.375.19141.30079.21094.21875.22265.13672.22657.04687.22656-.04687.22266-.13672.21093-.21875.1875-.30078.16406-.375.125-.44141.08204-.50781.03125-.5625-.03125-.5625-.08203-.5-.125-.4336-.16407-.36718-.1875-.29297-.21094-.21485-.22265-.1289-.22656-.04688-.22657.04688-.22265.1289-.21094.21485-.1914.29297-.16407.36718-.125.4336-.08203.5-.02734.5625h-.83594l.03906-.58985.11328-.58203.17969-.54687.24219-.49219.30078-.41797.17187-.17578.1836-.15234.19922-.1211.20703-.08594.21875-.05859.23047-.01953m5.08984 0h.50781v6.29688h-.78515v-4.48829h-1.38672V335.75l.5586-.0625.25-.05469.23046-.08984.20313-.14063.17578-.21093.14062-.29297.10547-.39844m2.82422 2.17578h.78516l.01953-.3164.0625-.28516.09765-.2539.14063-.21485.17969-.17188.22265-.1289.26563-.08203.30859-.02735.23828.02344.22266.0625.20312.10156.17969.13672.14844.17188.11328.20703.07422.23828.02344.26172-.01954.26953-.0664.22656-.10938.1914-.15625.16798-.20312.16406-.2461.16797-.6328.38672-.53907.3125-.4375.3164-.34375.32422-.26563.33594-.1914.35156-.125.3711-.0664.39453-.02345.41796h4.21485v-.74218H238.875l.08594-.28125.11328-.23828.14844-.20313.1875-.17969.23047-.17187.27734-.17578.71875-.41406.41406-.20704.34766-.23046.27734-.25.22266-.26954.16015-.27734.11328-.28125.0625-.28516.01954-.28125-.03907-.38671-.12109-.34766-.1914-.30469-.25-.26562-.30079-.21094-.34375-.16016-.38281-.09765-.40625-.03516-.4336.03516-.39843.09765-.35547.16797-.30469.23438-.25.30468-.1836.3711-.11718.44922-.03906.51562"/></g></defs><use xlink:href="#av"/></svg>