<svg xmlns="http://www.w3.org/2000/svg" role="img" xmlns:xlink="http://www.w3.org/1999/xlink" viewBox="142.45 309.95 326.84 171.84"><defs><clipPath id="a"><path d="M144 443h1v37.32813h-1zm0 0"/></clipPath><clipPath id="b"><path d="M144 311.67188h1V438h-1zm0 0"/></clipPath><clipPath id="c"><path d="M144 311.67188h324v168.65625H144zm0 0"/></clipPath><clipPath id="d"><path d="M351 478h8v2.32813h-8zm0 0"/></clipPath><clipPath id="e"><path d="M390 478h5v2.32813h-5zm0 0"/></clipPath><clipPath id="f"><path d="M409 479h2v1.32813h-2zm0 0"/></clipPath><clipPath id="g"><path d="M467 479h1v1.32813h-1zm0 0"/></clipPath><clipPath id="h"><path d="M467 311.67188h1V472h-1zm0 0"/></clipPath><clipPath id="i"><path d="M144 479h4v1.32813h-4zm0 0"/></clipPath><clipPath id="j"><path d="M146 480h1v.32813h-1zm0 0"/></clipPath><clipPath id="k"><path d="M153 479h9v1.32813h-9zm0 0"/></clipPath><clipPath id="l"><path d="M160 480h2v.32813h-2zm0 0"/></clipPath><clipPath id="m"><path d="M166 480h9v.32813h-9zm0 0"/></clipPath><clipPath id="n"><path d="M173 480h3v.32813h-3zm0 0"/></clipPath><clipPath id="o"><path d="M172 480h2v.32813h-2zm0 0"/></clipPath><clipPath id="p"><path d="M180 479h8v1.32813h-8zm0 0"/></clipPath><clipPath id="q"><path d="M187 479h2v1.32813h-2zm0 0"/></clipPath><clipPath id="r"><path d="M186 480h2v.32813h-2zm0 0"/></clipPath><clipPath id="s"><path d="M193 479h8v1.32813h-8zm0 0"/></clipPath><clipPath id="t"><path d="M200 480h2v.32813h-2zm0 0"/></clipPath><clipPath id="u"><path d="M199 480h2v.32813h-2zm0 0"/></clipPath><clipPath id="v"><path d="M206 479h9v1.32813h-9zm0 0"/></clipPath><clipPath id="w"><path d="M213 480h3v.32813h-3zm0 0"/></clipPath><clipPath id="x"><path d="M212 480h2v.32813h-2zm0 0"/></clipPath><clipPath id="y"><path d="M220 480h8v.32813h-8zm0 0"/></clipPath><clipPath id="z"><path d="M227 480h2v.32813h-2zm0 0"/></clipPath><clipPath id="A"><path d="M233 479h8v1.32813h-8zm0 0"/></clipPath><clipPath id="B"><path d="M240 479h3v1.32813h-3zm0 0"/></clipPath><clipPath id="C"><path d="M246 479h9v1.32813h-9zm0 0"/></clipPath><clipPath id="D"><path d="M253 479h3v1.32813h-3zm0 0"/></clipPath><clipPath id="E"><path d="M260 479h8v1.32813h-8zm0 0"/></clipPath><clipPath id="F"><path d="M267 479h2v1.32813h-2zm0 0"/></clipPath><clipPath id="G"><path d="M273 479h8v1.32813h-8zm0 0"/></clipPath><clipPath id="H"><path d="M280 479h3v1.32813h-3zm0 0"/></clipPath><clipPath id="I"><path d="M286 479h9v1.32813h-9zm0 0"/></clipPath><clipPath id="J"><path d="M293 479h3v1.32813h-3zm0 0"/></clipPath><clipPath id="K"><path d="M300 479h8v1.32813h-8zm0 0"/></clipPath><clipPath id="L"><path d="M307 480h2v.32813h-2zm0 0"/></clipPath><clipPath id="M"><path d="M313 480h8v.32813h-8zm0 0"/></clipPath><clipPath id="N"><path d="M319 480h2v.32813h-2zm0 0"/></clipPath><clipPath id="O"><path d="M326 479h9v1.32813h-9zm0 0"/></clipPath><clipPath id="P"><path d="M332 480h2v.32813h-2zm0 0"/></clipPath><clipPath id="Q"><path d="M340 479h8v1.32813h-8zm0 0"/></clipPath><clipPath id="R"><path d="M345 480h2v.32813h-2zm0 0"/></clipPath><clipPath id="S"><path d="M354 477h6v3.32813h-6zm0 0"/></clipPath><clipPath id="T"><path d="M368 476h4v4.32813h-4zm0 0"/></clipPath><clipPath id="U"><path d="M382 476h3v4.32813h-3zm0 0"/></clipPath><clipPath id="V"><path d="M393 478h8v2.32813h-8zm0 0"/></clipPath><clipPath id="W"><path d="M391 479h3v1.32813h-3zm0 0"/></clipPath><clipPath id="X"><path d="M407 478h7v2.32813h-7zm0 0"/></clipPath><clipPath id="Y"><path d="M420 478h8v2.32813h-8zm0 0"/></clipPath><clipPath id="Z"><path d="M420 480h2v.32813h-2zm0 0"/></clipPath><clipPath id="aa"><path d="M433 478h8v2.32813h-8zm0 0"/></clipPath><clipPath id="ab"><path d="M433 480h2v.32813h-2zm0 0"/></clipPath><clipPath id="ac"><path d="M446 479h9v1.32813h-9zm0 0"/></clipPath><clipPath id="ad"><path d="M446 479h3v1.32813h-3zm0 0"/></clipPath><clipPath id="ae"><path d="M459 479h9v1.32813h-9zm0 0"/></clipPath><clipPath id="af"><path d="M460 478h2v2.32813h-2zm0 0"/></clipPath><clipPath id="ag"><path d="M144 465h4v4h-4zm0 0"/></clipPath><clipPath id="ah"><path d="M144 452h4v4h-4zm0 0"/></clipPath><clipPath id="ai"><path d="M144 437h4v6h-4zm0 0"/></clipPath><clipPath id="aj"><path d="M144 425h4v4h-4zm0 0"/></clipPath><clipPath id="ak"><path d="M465 424h3v2h-3zm0 0"/></clipPath><clipPath id="al"><path d="M144 412h4v3h-4zm0 0"/></clipPath><clipPath id="am"><path d="M465 410h3v2h-3zm0 0"/></clipPath><clipPath id="an"><path d="M144 399h4v3h-4zm0 0"/></clipPath><clipPath id="ao"><path d="M466 397h2v3h-2zm0 0"/></clipPath><clipPath id="ap"><path d="M144 385h4v4h-4zm0 0"/></clipPath><clipPath id="aq"><path d="M466 385h2v4h-2zm0 0"/></clipPath><clipPath id="ar"><path d="M144 371h3v6h-3zm0 0"/></clipPath><clipPath id="as"><path d="M466 373h2v3h-2zm0 0"/></clipPath><clipPath id="at"><path d="M144 357h2v7h-2zm0 0"/></clipPath><clipPath id="au"><path d="M466 359h2v4h-2zm0 0"/></clipPath><clipPath id="av"><path d="M144 343h1v8h-1zm0 0"/></clipPath><clipPath id="aw"><path d="M144 349h1v2h-1zm0 0"/></clipPath><clipPath id="ax"><path d="M466 346h2v3h-2zm0 0"/></clipPath><clipPath id="ay"><path d="M144 330h1v8h-1zm0 0"/></clipPath><clipPath id="az"><path d="M144 336h1v2h-1zm0 0"/></clipPath><clipPath id="aA"><path d="M466 332h2v4h-2zm0 0"/></clipPath><clipPath id="aB"><path d="M144 316h1v9h-1zm0 0"/></clipPath><clipPath id="aC"><path d="M144 323h1v3h-1zm0 0"/></clipPath><clipPath id="aD"><path d="M466 319h2v3h-2zm0 0"/></clipPath><g id="aE" clip-path="url(#clip1)"><path fill="#fff" fill-opacity="0" fill-rule="evenodd" d="M0 0h1000v1000H0zm0 0"/><path fill="#d3d3d3" fill-opacity="0" fill-rule="evenodd" d="M162.15234 355.86719l-.23437.29297.0586.23437.11718.17188.17578.23437.29297.34766.11328.0586.11719-.17188.0586-.23438.17577-.17578.46485-.17578h.69922l.23437.29297.28906.8164.0586.17579.17578.23046.35156.23438.69922.69922.17188.17578.23437.34765.23438.41016.28906.58203.41015.46485.23047.23437.23438.17578.11719.23047.17578.29297.17187 1.16406v.23438l.0586.28906.05859.11719.11719.11719.34765.41015.11719.17188.17578.17578.17578.23437.11719.17188.17188.35156.05859.23438.23437.40625.23438-.0586-.17578.17578-.0586.92969h-.58203l-.23437-.11328-.34766.11328-.11719.11719-.05859.29297-.0586.17578-.11718.17187-.46484.29297-.0586.23438-.0586.11328v.64453l.0586.17187v.41016l.0586.0586v.40624l.05859.40625.11719.17579.05859.05859.23047.64062-.0586.29297v.69922l-.05859.58203v.23438l-.0586.23047-.05468.35156v1.92187l.05469.1172h.42578l-.36719.11718-.02344.35156.89063 1.16797 1.74219.53906 1.33984.35938v.53906l.08984.8086.53516.71484 1.51953.26953.89063-.08594.08984 1.16406.53516.1797 1.16015-.1797 2.05469-.98437 1.16016-.36328 1.8789-.17578 1.69531-.1797-.17968.71876-1.51563.08594-1.25.08984-.80469.26953-1.07421.8086.26953.71875.53515.89843-.17968.625-.26563.8086.26563 1.07812.625.89844.80468.17969 1.25-.1797-.26562.72267.09766.5039.05468.29297v.17188l.0586.29296v.40625l.17578.1172.35156.11718h.40625l.29297-.17578.11328-.11719.0586-.11719.11718-.23047.0586-.17578.35156-.46484.23047-.17578.17578-.0586.17578.0586.0586.17578.11718.98828.05469.46875.0586.17188.11718.23437.17578.0586.8164.05859h.28907l.11719.23437.05859.40625.0586.35156v1.10547l.11718.29297.11719.34766.28906.69922.17578.35156.58203.7539.35157.17579.17187.0586.46875.23437.64063.46484.34765.23438.29297.17578.29297.05468.23047.0625.8164.34766.29297.17578.11328.17188.35157.35156.11719.17578.52343.64063v.28906l.0586.35156v.34766l.05859.35156.0586.28906.11718.0586.17188.05859h.17578l.58203.23437.17578.1172.17578.28905.17578.23438.11328.23437.29297.23047.11719.11719v.41016l.0586.05468.28906.23438.23437.11719.0586.11718.11718.17188.0586.11719.23047.23437.05859.17578.23437.0586.1172.05859-.1172.11328-.05859.11719v.11719l-.11719.29296-.11719.28907v.58203l.17579.11719.11718.05859.0586.11719.11719.11719.11328.05859.17578.34765.0586.35157.05858.40625v.17578l-.05859.17578-.11719.69922v.17187l.1172.17579.29296.29296h.40625l.17578.1172.11719.17187.11719.29296v.23438h-.52735l-.23047-.23438h-.23437l-.17578.0586-.0586.69922.0586.34765.11719.17579.17578.41015.11718.23047.28907.46875.17578.05469h.52344l.23437.0586.75781.64062.0586.29296v.23438l.05859.0586.23047.34765v.35156l-.11719.17188v.29297l.29297.28906.29297.17578.17187.0586.29297.17577.29297.1172.58203.40624.28906.23438.29297.17578.21875.16015.01563.01172.23047.17579.64062.52343.17578.23438.1172.17578.17577.17578.11328.17188v.64062l.1172.17578.46874.11719.58203.11719.23438.05859.23047.11328.29297.11719.11328.0586.58593.35156.28907.17187.17578.0625.17578.05469.17578.0586.69922.35155.28906.17579.23438.05468.28906.17578.23437.1172.64063.40624.29297.11719.17187.0586.23438.05859.41015.05859.23047.0586.23438.11718.0586.17188-.41017.17578.46875.0586.0586.29296.11328.23438.17578.05468.23438.0586.17578.05859.40625.11719.64062.23437.11719.17188.0586.23437v.17578l-.0586.1172-.0586.40624.23438.23438.11719.05859.34766.11719.64062.23047.17578.11718.28906.1172.17578.17577.23438.46485.58203 1.10546.17578.17579.34766.17578.17578.11719.35156.11718 1.04688.52344.23437.0586.46485.11327.29297.0586.46484.17578.75781.58203.23438.23438.34765.46484.17578.17578.28907.23438.8164.69921.29297.17579.28906.28906.29297.17578.29297.28906.69531.64063.17578.17578.29297.23437.28907.23438.46875.28906.64062.58203.34766.23438.23437.29297.34766.34765.35156.46485.9336.99218.34765.40625.11719.17579.23437.05859.11328.11719.64454.17578.23047.11328.23437.0586.29297.17577.23047.1172.9336.69921.40624.40625.23438.17578.40625.17578.23437.11719.8164.34766.34766.23437.23438.11719.29297.28906.23047.11719.7578.35156.35157.17188.23047.05859.29297.11719.23437.0586.8711.17577h.8164l.46875.23047.17188.0586.875.69921.46484.1172.29297.05858.17578.0586.23047.0586.46875.05859.34766.05859.35156.0586.40625.05859h.29297l.17187.0586v.23046l.17578.17578h.29297l.34766.0586.35156.05859.69922.11719h.64063l.46484-.23438.29297-.17578.17187-.11719.41016-.17187.28906-.17578.9336-.46485.46875-.29297.52343-.29296.46485-.17188.46484-.17578 1.05078-.46485.28906-.11718.41016-.11719.28906-.11719.52735-.17578 1.51562-.69922.58203-.34765.28907-.0586.29297-.0586.34765-.11718.875-.23047.35156-.11719h.11329l.23437-.05859.875-.23437.23438-.0586h.8125l.35156-.0586.8164-.11718.17188-.0586.35156-.05468.29297-.0586.23047-.05859.8164-.17578.17579-.0586h.34765l.23438-.05859.46484-.11718.75781-.17188.23438-.0586h.34765l.41016-.11718.28906-.0586 1.28516-.05859h.28906l.41016-.0586.23047-.05858h.17578l.875-.1172h.40625l.41015-.11718h.34766l.35156-.11328.8711-.0586h1.75l1.04687.28907.41016.11719.28906.11718.35156.11719.28907.11719 1.05078.17187.28906.0586h.29297l.29297.05859.17187.0586.41016.05859.17187.0586.1172.05858h.11718l.11719.0586.35156.0586h.11328l.41016.0664 1.92187.39453 1.92578.39453 1.51953.44922 1.69532.71875 2.14453.80469 1.60547-.71875 1.42968-.80469 1.16016-1.07813 1.25-.44921 3.03516-.71875 1.875-.35938 2.14453-1.34765 2.23437-1.25391 2.5-1.25781 1.69531-.44922 1.78516-.17969 1.16016-.26953.625.53906 1.33984-.26953.71485-.98828.98437-1.34375.44531-.17969.80469-.35937 1.875-.53907 1.78516-.44921 1.25-.26954 1.16015-.08984 1.69922-.08984 1.96094-.26954 1.25-.08984h.53906l.625-.08984h.89063l2.14453-.17969 2.41015-.17969 2.58985-.08984 1.69531.17969 1.60938.08984 1.42968.35938 1.16016.71875 1.875.98828 1.16015 1.52734.26563.71484.6289.08985.35548.89844.53515.53906.53516 1.52734 1.07422.35938h.53515l-.80469.53515.08985 1.70703.71484 2.69532.89063.80468.89453.98829.71484 1.2578 1.78516.53907 1.51953-.17969.35547 1.34375 1.60937-.80469.98047-.53906.26953.26953.31641-.21484.21875-.14453.80078.44922.44922-.35938h.35547l.53515-.26953.53907-.71875.53515-.26953.625-.98828 1.16016.44922.83984.3711 1.39454.61718 1.6953-.17969h1.60548l1.78515.08985.17969-1.70704.53516-1.34375.80468.26954.4922.84765.40233.40625-.08984.53906v.35938l.71485.44922.71093-.26953h1.42969l.35938.98828.4453 1.25781.71485 1.34375 1.25.6289 1.69531.62891.71485-.17969.17969-.53906.98046-.08984.44922.35937.08594 1.25782-.26563.6289-.53515.17969v.53906l.71484.98438.26563.53906.98437.98828.80078 1.07813-.26562.35937-.08985.89844-.625 2.33203-.35546 2.0664-.08985 1.79298-.17969.71875-.08984.53906v1.4375l-.98047 1.88281-.35937 1.70703-.53516.89844-.80469 1.16797-.26562.53906 2.05469 1.2539.08593.35938-.35546.53906-.08985-.17968v.80859l.08985 1.4375-.44532.71484-1.07422.09375-.26562.71485.53515.89844.8047.71875 1.16015.80859 1.33984.26953.44531.35938-.35546.44921-1.78907-.08984-1.25-.44922-.71484-.71875-.625-.08984-.17578 3.58984-.1875 1.3086h89.35937V311.70313h-55.26953v49.08203l.76172.125 3.28906.54296 2.02344 2.83594v2.7539l2.35156.33204 2.34766.33203h4.05078l-1.3789 4.16016-2.02344.70703-2.02344.70312-.54297.34375-2.59375 1.6172-.1875.11718-2.02344-2.07813-.73046-2.74218-2.67188-2.07813-1.375-3.5-.0664-.08203-1.95704-2.67188 2.75-1.41796v-49.08204H294.42187v91.41407l.1172.03125.1328.01172.07422.07421.10547.04688.08985.0586.08593.05859.08985.0586.29687.29687.0586.08984.03125.11719.02734.11719.01563.13671-.03125.1172-.0586.08983-.0586.08594-.04296.10547-.04688.10156-.02734.1211v.14453l.17578.26953.14844.14844.07422.08594.07422.07421.04296.10547.0625.08985.0586.08593.04297.10547.0586.08985.04687.10156.04296.10547.0586.08594.11719.17968.07421.07422.0625.08594.0586.08984.04297.10547.0586.08985.05858.08593.0625.08985.0586.08984.04297.10156.11719.17969.07421.07422.0586.08594.07422.07421.08984.0586.10547.04687h.14844l.1328-.01562.13282.01562.10156-.04687.07422-.07422.04688-.10156-.01563-.13281v-.14844l-.04687-.10547-.02735-.11719-.04687-.10156-.02735-.1211-.04296-.10156-.0625-.08984-.04297-.10156-.04297-.10547-.03125-.11719-.01563-.13281-.01171-.13672.08593-.0586.0586-.08593.12109-.03125.04297.10547.01562.1328v.1172l.0586.10156.0586.08984.08983.0586.14844.14843.0586.08985.04296.10547-.01171.10156.08593.0586.10547.04687.08594.0586.08984.05858.07422.07422-.11719.02735-.10546.04687-.08594.0586-.07422.07421-.0586.08985-.0625.08594-.02734.12109-.04687.10156-.04297.10547-.03125.11719-.01172.13281-.01563.13281v.14844l.02735.11719.04687.10547.04297.10156.0586.08984.07421.07422.08985.0586.07422.07421.08984.0586.0586.08984.04296.10547.04688.10156.11719.03125.1328.01563h.14845l.11718-.03125.10547.04297.04297.10547.04688.10156.02734.1211L299.5 410l.02734.11719.03125.1211.02735.11718.10547.04297.10156.04687.13281-.01562.14844.14844.0625.08593.07422.07422.07031.07422.08984.0625.10547.04297.10156.04297.1172.03125.13671.01562.11719-.03125.07422-.07422.02734-.11718-.01172-.13282-.03125-.12109-.02734-.11719.04297-.10547h.11719l.08984.0625.11719.02735h.14843l.13282.01562h.14843l.13282.01563.1328-.01563h.14845l.1328-.01562.13282-.01172.13672.01172.11719-.02735.13281-.01562.1914-.0586-.05859.17579-.01562.1328-.02735.1211-.01562.13281-.0586.08594-.1328.01563-.10548.04687-.10546.04297-.1172.03125-.11718.02735-.26563.03125h-.14843l-.13281.01562-.07422.07422.05859.08594.14844.14843.11719.1797.07421.0703.08985.0625.08984.0586.08594.0586.08984.05858.10156.04297.10547.0625.10547.04297.08594.0586.10547.04687.10156.04297.17969.11719.0586.08984-.04298.10156-.04687.10547.01562.13281.22266.22266.0586.08985.04296.10156.03125.1211.04297.10155.01563.13282.03125.11718.01171.13672.03125.11719.14844.14844.10156.04297.10547.04296.1172.03125.1328.01563.13672.01563h.11719l.11719-.03125.08984-.0586.04297-.10547.04688-.10156.04296-.10547.03125-.11719.01172-.1328v-.14845l-.01172-.1328-.01562-.13282-.03125-.11719-.04297-.10547-.04688-.10547-.04296-.10156-.04297-.10547-.01563-.13281.01563-.13281.02734-.11719.03125-.11719.02735-.1211.04687-.10155.08984-.0586.08594-.0625.07422-.07422.08984-.05859.22266-.22266.0586-.08593.07421-.07422.11719-.17969.0586-.08594v-.14844l-.07423-.07421-.10156-.04688-.10547-.04297-.10156-.04297-.0586-.08984-.04687-.10547-.02734-.11719.08984-.05859.11719-.03125.10156-.04297.17969-.11719.14844-.14843.01172-.13282-.01172-.10546-.08985-.0586-.1328.01563h-.14845l-.1328.01562-.13282-.01562-.1211-.03125-.08593-.0586-.07422-.07422-.0586-.08984-.0625-.08594-.11718-.17969-.0586-.08593.03125-.1211.08594-.05859.1211-.03125.05859-.08594v-.1211l-.03125-.11718-.0586-.08984-.05859-.08594-.04687-.10547-.02735-.11719-.01562-.1328.0586-.08985.07421-.07422.08984-.0586.1172-.17968.07421-.07422.0586-.08594.14843-.14844.1211-.03125.1328-.01562.13282.01562.07422.07422.04297.10547.01562.13281-.03125.1172-.11719.03124-.1328.01172-.14844.14844-.04297.10547-.04688.10156-.02734.1211-.03125.11718v.14844l.03125.11719.04297.10546.05859.08985.07422.07031.07422.07422.11719.03125.12109.02734.11719-.02734.1328-.01563h.1172l.08984.0586.07422.07422.04687.10546.0586.08594.10156.04688.13281.01562.10547.04297.08594.0586-.01172.10546-.07422.07422-.17969.11719-.05859.08984-.08984.0586-.07032.07422-.07421.07421-.0625.08985-.02735.11719-.01562.1328.01562.13282-.01562.13281v.14844l.01562.13281.02735.1172.03125.12108.07421.07422.08985.0586.08594.0586.08984.05858.11719.03125v.08594l-.10157.04688-.08984.0586-.26563.03124-.11718.02735h-.14844l-.10547.04296-.10156.04688-.0586.08984-.0625.23438-.01171.13281-.03125.1211-.01563.1328v.29298l-.01172.1328.01172.13673.01563.1328.1328.01563.13282.01172.1211.03125.08593.0586.07422.07421.04688.10547.04296.10157.01563.1328v.44532l-.01563.13281v.44532l.03125.26562.02735.11719.01562.13281.03125.11719.08594.21094.03125.26562v.14844l-.03125.11719-.02734.11718-.03125.1211-.02735.11719-.03125.11718-.03125.1211-.01171.1328-.01563.13282.08984.0586.1172-.03125.10155.01562.04688.10547-.03125.26562v.44141l-.04297.10547-.04688.10547-.04296.10156-.04297.10547-.0586.08594-.03125.12109-.04296.11719-.03125.11719-.01563.1328.01563.13282.05859.08984.10547.04688.08594.0586.05859.08593-.01172.13672-.03125.11719-.04297.10156v.44531l-.01562.13281v.14844l-.03125.11719-.04297.10547-.02735.11719-.04687.10546-.04297.10157-.03125.12109-.02734.11719-.03125.13281-.03125.11719-.02735.11719-.04297.10546-.03125.1172-.03125.12108-.01171.13282-.01563.13281v.29688l.02734.11718v.14844l.04688.39844.02734.11719.0586.08984.12109.03125h.14844l.13281-.01563.0586.08985v.11719l-.0586.08984-.08984.0586-.10157.04296-.10546.04688-.08985.05859-.08594.0586-.13671.01562-.1172-.03125-.1328-.01563-.10157.04688-.0625.08594-.01172.13671-.01562.13282-.03125.11719-.02735.11718-.01562.13281-.03125.1211v.29687l.01563.13282.03125.11718v.14844l.01171.13281v.14844l-.02734.11719-.04688.10156-.02734.1211-.03125.11718-.0586.08985-.07421.07421-.10156.04297-.10547.04688-.11719.02734-.1211.03125-.10156-.04687.0586-.08594.10547-.04688.02734-.11718.03125-.11719.02734-.1211.03125-.11718v-.14844l.01563-.13281-.03125-.11719-.04297-.10547-.10547.01563-.07422.07422-.10156.04296-.08984.0625-.07422.07422-.04297.10157-.01563.1328-.03125.1172L304.25 426l-.03125.11719-.02734.11719-.03125.12109-.02735.11719-.03125.11718-.04297.10547-.08984.0586h-.08984l-.1172-.03125-.03124-.08594.01562-.13672-.03125-.11719v-.14844l-.01171-.1328v-.14844l-.0625-.23438-.02735-.1211-.04297-.10156-.04687-.10546-.0586-.08594-.05859-.08985-.04297-.10546-.0625-.08594-.14844-.14844-.0703-.07422-.10548-.04687-.10547-.04297-.10156-.04297-.29687-.29688-.08985-.07421-.08594-.0586-.10546-.04297-.08985-.0625-.08594-.0586-.10546-.04296-.08985-.0586-.08594-.0625-.07421-.0703-.10547-.04688-.08594-.0586-.10547-.04296-.08984-.0625-.10156-.04297-.10547-.04297-.08594-.0586-.10547-.04687-.10547-.04297-.10156-.04687-.08985-.0586-.10156-.04297-.10547-.04296-.08984-.0625-.11719-.02735-.13281-.01562-.13281.01562H299.75l-.13281.01563-.11719-.03125-.08984-.0586-.07422-.07422-.08985-.05859-.10156-.04688h-.14844l-.12109-.02734-.10156-.04297-.07422-.07422-.11719-.17968-.08984-.0586-.10156-.04297-.08985-.0625-.10547-.04296-.08984-.0586-.08594-.0586-.10547-.04687-.0586-.08594-.05858-.08984-.04297-.10547-.04688-.10156-.07422-.07422-.08594-.0586-.07421-.07421-.08985-.0586-.22265-.22265-.04297-.10547-.03125-.26563.10547-.04296h.14453l.10547.04296.07421.07422.08985.0586.08594.0586.10546.04687.08985.05859.14844.14844.0703.07422.14845.14843.0625.08594.07421.07422.08594.0586.07422.07421.08985.0625.08984.0586.08594.05859.26953.17578.10156.04688.10547.04296.10156.04297.04688-.07421.05859-.08594.07422-.07422.07031-.07422.10547.04297.07422.07422.0586.08984.04296.10156.04688.10547.04296.10547.1211.02735.11719-.02735.07421-.08984.04297-.10547.0586-.08985.07422-.07421.10546-.04297.1172-.02735.1328.01172.08985.0586.14844.14843.05859.08985.04297.10547.04687.10156.04297.10547.04297.10156.10547.04688.10547.04296.13281.01563.08594-.0586.0586-.08984.07421-.07422.10547-.04297.11719.02735.10547.04687.10156.04297.10547.04297.10156.04688.17969.11718v.11719l-.01563.13281.01563.13281.01562.13672.0586.08594.10156.04688.1211.02734.11718.03125h.14844l.11719-.03125.05859-.08984.17969-.1172.05859-.08983.07422-.07422.0586-.08594.11718-.17969.17969-.11719.11719.03125.08984.0586.04297.07422-.01563.1328v.1172l.08985.05859h.14843l.13282-.01563.1328-.01171.26563-.03125.10547-.04297.11719-.03125.1211-.02735.07421-.07421.07031-.07422.0625-.08985-.01562-.10547-.04688-.10156-.10156-.04297-.10547-.01562-.11718.02734-.26563.03125h-.14844l-.07421-.07422-.08985-.0586-.11719-.03124-.11718-.02735-.13282-.01562h-.14843l-.13282.01563h-.29687l-.10547-.04688-.14844-.14844-.04297-.10156-.05859-.08984.22266-.22266.08593-.0586.10547-.04296.11719-.03125.13281-.01563.13281.01563.13672.01562.10157.04297.1328-.01172.08985-.0625.10156-.04297.0625-.08984-.04687-.10156-.08984-.0586-.1172-.03125-.10155-.04296-.0586-.08985-.0625-.08984v-.11719l.01563-.13281.10547-.04688.07421-.07031v-.1211l-.08984-.05859-.03125-.11719.08985-.05859.07421-.07422.04297-.10547.0586-.08984.04687-.10156.01563-.13281v-.14844l-.04688-.10547-.04297-.10156-.08984-.0586-.13281-.01562-.10157-.04297-.13671-.01563-.1172-.03125h-.4453l-.13282-.01562-.13281-.01172-.13281-.01563-.11719-.03125h-.14844l-.13281-.01562-.13281-.01172-.26563-.03125-.1211-.04297-.08593-.0586-.07422-.07421v-.14844l.01172-.13281.10547-.04688.10156-.04296.13281-.01563h.15235l.13281-.01562h.29297l.1211.03125.10156.04296.08984.0586.23438.0625.12109-.04688.08984-.05859.10156-.04297.13282-.01562.10547.04296.10156.04688.13281.01172.1211-.02735h.14453l.12109-.03125.11719-.02734.10547-.04687.07421-.07422.08594-.0586.14844-.14843.0586-.08594.04687-.10547.02734-.11719.01563-.10547-.10156-.04296-.08985-.0586-.11719-.03125-.10546-.04297-.08985-.0625-.07422-.08594-.07422-.07421-.10156-.04297-.10547-.04688-.10156-.04297-.0586-.08984-.04687-.10156-.08594-.21094-.0625-.08594-.05859-.08984-.07422-.07422-.08594-.0586h-.26953l-.11719.03126-.08984.05859-.10156.04297-.13281.01562-.10547-.01562-.02735-.11719-.0625-.08984-.11718-.03125-.10157-.04297-.14843-.14844-.03125-.11719-.01563-.10546.07422-.07422.17969-.1172.11719-.02733.11718-.03125.13672.01562.10156.04297.10547.04297.10156.04687.10547.04297.1172.03125.1328.01563.1172.02734.1328.01563.10547-.01563.08985-.0586-.07422-.07421-.10547-.04297-.07422-.07422-.07422-.08984-.14844-.14844-.08593-.0586-.08985-.05859-.07422-.07422-.08984-.0586-.10156-.04687-.1211-.02734-.10156-.04688-.10547-.04296-.11719-.03125-.10156-.04297-.1211-.03125h-.14843l-.11719.03125-.10546.04297-.08594.0625-.17969.11718-.08594.0586-.08984.0586-.10547.04687-.08594.05859-.10547.04297-.10156.04297-.10547.04687-.07422.07422-.05859.08985-.0586.08593-.04687.10547-.0586.08594-.07421.07422-.13281-.01172-.1172-.03125h-.11718l-.07422.07422-.08984.0586-.07422.07421-.08984.0586-.08594.05859-.10547.04687-.10156.04297-.13672.01563-.10156-.04297-.14844-.14844-.10547-.04688h-.08594l-.10547.04688-.10156.04297-.1211.03125-.11718-.03125-.07422-.07422v-.11719l.03125-.1211.07422-.0703.0586-.08985.07421-.07422.11719-.03125.10547-.04296h.29297l.13281-.01563.13672-.01563.10156-.04296.08985-.0586.10156-.04687.08984-.0586.13281-.01171.08985.05859.13281.01172.08984-.0586.08594-.05859.10547-.04297.08984-.0586.08594-.0625.08985-.05859.14843-.14843.0586-.08594.05859-.08985.10547-.04296.13281-.01563.11719.02735.1211.03125.05859-.0586.05859-.08984.03125-.26563.02734-.11719.10547.01172.13281.01563.10157-.04297.08984-.0586.0586-.08984.07421-.07422.0586-.08984.04687-.10156.01172-.13281-.01172-.13282-.04687-.10547-.14844-.14843-.0586-.08985-.05859-.08594-.04297-.10546v-.44532l.01563-.1328v-.14845l.01172-.1328-.0586-.0586-.08984.0586-.10156-.04298-.17969-.11719-.08594-.05859-.0625-.08984-.0586-.08985-.07421-.07421-.08594-.0586-.1211.03125-.10155.01172-.10547.04688-.08594.05859-.10547.04297-.14844.14844-.08984.05859-.08594.0586-.08984.0625-.10547.04296-.13281.01563v-.1211l.10547-.04297.11718-.03125.07422-.0703.04297-.10548v-.14844l-.02734-.11718-.14844-.14844-.13281-.01563h-.14844l-.11719.03125-.10547.04297-.10156.04297-.08984.0625-.11719.02735-.07422-.07422.01172-.13281-.04297-.10157-.04297-.10547-.08984-.05859-.11719.02734-.1211.03125-.11718.03125-.10156.04297-.1211.03125-.10156.04297-.10547.04297-.08984.0586-.10156.01562v-.11719l.01562-.13281-.0586-.08985-.07421.04297-.14844.14844-.0586.08985-.07421.07421-.04688.10547-.04296.10156-.07422.07422-.0586.08985-.07422.07422-.05859.08593-.07422.07422-.08984.0625-.07422.07031-.07422.07422-.10156.01563-.13281.01562-.10547-.04296v-.1211l.14843-.14844.04297-.10156.0586-.08984.04687-.10156.04297-.10547.0586-.08985.03124-.11719.04297-.10156.03125-.1211.02735-.11718.04687-.10547.04297-.10156.04297-.10547.07422-.07031.08984-.0625.08985-.0586.10156-.04296h.29687l.26563-.03125.10547-.04297-.07422-.07422-.11719-.03125-.10547-.04297-.08984-.0586-.10156-.04687-.08985-.0586-.10156-.04296-.10547-.04297-.08984-.0625-.08594-.0586-.10547-.04296-.10156-.04297-.1211-.03125-.11718-.03125-.10157-.04297L297.5 410.25l-.10156-.04297-.08985-.0586-.04296-.10546-.01563-.13281.10156-.04297.13281-.01563.13672.01563.13282-.01563.10156-.04297.0586-.08984.01562-.10547-.08985-.0586-.07421-.07421-.10157-.04297-.08984-.0586-.14844-.14843-.04297-.10547-.01562-.13281v-.29297l-.0586-.08985-.08984-.05859-.07422-.07422-.04297-.10547-.03125-.11718-.0586-.08985-.07421-.07422-.11719-.02734-.07422-.07422-.08984-.0586-.08984-.0625-.08594-.05859-.07422-.07421-.0586-.08594-.04687-.10547-.08594-.0586-.14843-.14843-.19532-.0586-.1328.01563-.10157.04297-.07422.07422-.04688.10156-.04296.10547-.0586.08984-.0586.08594-.29687.29687-.08984.0586h-.08594l-.0625-.08594-.04297-.10547.03125-.11719.0586-.08984.02734-.11719-.01172-.13281-.08984-.0625-.10547.04688-.11719.02734-.11719.03125-.26953.17578-.10156.04688-.11719.02734-.10546.04687-.08985.0586-.10156.04297-.0586-.08594-.04687-.10547.01563-.13281.04687-.10547.07031-.07422.07422-.07031.0586-.08985v-.14843l-.04297-.10547h-.23829l-.10156.04687-.03125.11719-.02734.11719-.03125.1211-.07422.04296-.13281.01563-.07422-.04688-.04297-.10156-.04297-.10547-.04687-.10156-.04297-.10547-.1211.03125-.10156.04297-.13281.01562-.11719.03125-.10547.04297-.08984.0586-.10156.04687-.1211.02734-.13281.01563-.10156-.04297-.0586-.08985-.04687-.10546-.04297-.10157-.04297-.10546v-.1172l.0586-.08984.08593-.05859.17969-.11719.10156-.04687.10547-.04297.10547-.0586.10156-.04296.08985-.0625.10156-.04297.10547-.0586.10156-.04687.08984-.0586.10547-.04296.10156-.04297.08985-.0625.10156-.04297.13672-.01563.11719.03125.10156.04297.1211.03125.10156.04297.10546.04688.10157.04296.10547.04297.10156.04688.10547.04297.10156.04297.10547.04687.08594.0586.10546.04296.1172.03125.10546.04297.10156.04688.08985.0586.10547.04296.10156.04297.10547.04687.11719.02735.10156.04687.1211.02735h.14843l.08594-.0586.01562-.10156.0586-.08984-.02735-.1172-.07422-.07421-.11719-.17969-.07421-.07422-.08985-.07421-.17969-.1172-.08593-.05859-.10547-.04296-.10156-.04688-.26954-.17578-.05859-.08985-.07422-.07421-.0586-.08985-.04296-.10156-.03125-.11719-.01563-.13672v-.5625l-.01171-.1328-.01563-.13282-.03125-.11719-.01562-.13281-.01172-.13281-.03125-.1211-.22266-.22265-.0586-.08594-.01562-.10547.03125-.11719.13281-.01562v-91.41406H172.9922v1.45312l-.0586.23438-.35156 1.05078-.17187.52343-.1172.34766-.17577.41016-.11719.17187-.23438.29297-.23046.0586h-.35157l-.11718.05859-.23047.40625v.29297l.11719.17578.23046.23047.1172.23437.64062.75781.29297.46485.17578.23437.23047.35156.23437.34766.64063.8164.17578.46485.17187.41016.11719.69531.17578.46875.11719 1.39844.0586.46484v.875l.11718 1.04688v4.78125l-.0586.46484-.35156 1.28125-.17578.52344-.11328.41015-.35156.9297L172.93359 336l-.23437.58203-.11719.17578-.17187.34766-.17578.40625-.35157.8164-.0586.29297-.11327.29297-.11719.28906-.0586.17579-.11718.875-.0586.40625-.05859.11718-.0586.17579-.05859.17187-.23047.52734-.11718.17188v.23437l-.11719.23438-.0586.17187-.17577.58594v.28906l-.0586.17579v.29296l-.0586.11329-.05859.52734v.17187l-.05468.23438v2.6211l-.17578.8164-.1172.17578-.17577.23438-.1172.17187-.11327.23438-.58594.93359-.23047.28906-.29297.46485-.17578.23437-.28906.35156-.35156.69922-.11328.23047-.17579.41016-.17578.23046-.40625.52735-.8164.69922-.29297.17187-.28906.23438-.17579.11719-.17578.17578-.52344.40625-.52734.17578-.17187.17578-.23438.05469-.64062.17578h-.75782m12.21094 31.02344l-1.07422.44921.35938.89454 1.25-.71485.44531-.53906-.98047-.08985"/><path fill="#d3d3d3" fill-opacity="0" fill-rule="evenodd" d="M201.50781 416.59766h-.89453l.44922.6289.98047.35938.80469-.08985.4453-.98828-.17577.08985-.71485-.35547-.89453.35547m154.6211 59.0703l-.0586-.52343v-.29297l.11328-.29297.0586-.23046.46875-.46875h.11328l.11719-.11329.11718-.05859h.17579l.23437-.0586h.34766l.23437.0586.11719.0586.23047.17187.0586.17578.11718.58203v.29297l-.11719.17578-.17187.28906-.17579.17579-.52734.52343-.23047.23438-.11719.0586h-.17578l-.11718-.0586-.40625-.29297-.17579-.11719-.11718-.0586-.0586-.11327-.05468-.1172m6.64062-10.95702l-.0586-.17188v-1.10937l.0586-.17188.17578-.0586.17188-.05858h.17578l.23437-.0586.1172.0586.05858.69921-.05859.17188-.11719.17578-.11718.0586-.23438.52343-.11328.0586h-.23438l-.05859-.1172m9.61328-14.39062l-.11719-.17578v-.69922l.29297-.875.1172-.17187.17577-.35156.11328-.23047.1172-.29297.35155-.75781.1172-.23047.17187-.23438h.17578l.11719-.0586h.64062l.11719.0586.23437.23438.17188.11328.35156.29297.11719.11718.11328.17579v.11328l.11719.05859.11718.11719v.69922l-.05859.17578v.23047l-.0586.17578-.34765 1.05078-.11719.23047-.11719.23437-.11718.0586-.23047.23437-.64063.28906h-.875l-.41015-.11718-.64063-.46485"/><path fill="none" stroke="#bebebe" stroke-linecap="round" stroke-linejoin="round" stroke-miterlimit="10" stroke-width=".5" d="M467.95703 311.69531H144.02734v168.625h323.9297v-168.625"/><g clip-path="url(#a)"><path fill="#fff" fill-opacity="0" fill-rule="evenodd" d="M144 475.89063v4.4375h.0039H144v-36.45704 32.01954"/></g><g clip-path="url(#b)"><path fill="#fff" fill-opacity="0" fill-rule="evenodd" d="M144 435.94531v1.69922-125.97265h.0039H144V435.9453"/></g><path fill="#50fcfc" fill-rule="evenodd" d="M144 437.64453v6.22656h.0039v-6.22265l-.0039-.0039"/><g clip-path="url(#c)"><path fill="#fff" fill-opacity="0" fill-rule="evenodd" d="M144.0039 480.32813v-36.45704l3.3672.94922-1.89063 4.4414 1.82812 4.4375 1.12891 1.90626 4.4375-.29297 4.4414 2.65625.125.16797 3.78907 4.4375.52344.5 2.30078-.5 2.13672-.19531 4.4375-1.16016 4.4375-.71875 4.4414.35547 4.4375-1.99219.60547-.72656 3.83203-1.10547 4.4375-1.16797 4.4414-1.21484 1.38282-.94922 3.05469-1.07813 4.4375-1.6875 4.3711-1.67187.0664-.01953 4.4414-.6875.85157.70703-.85156 2.61328-2.19532 1.82422 2.19531.71875 1.96094-.71875 2.47656-.76563 4.4375.57813 4.4375-1.97656 4.4375-.39844 2.52735-1.875 1.91406-3.6211.76563-.8203 3.67187-.45704 4.4375-.13281 4.02344-3.84766.41406-2.05078 4.04688-2.38672.39062-.04297.29297.04297 4.14844 2.08203 2.14062-2.08203 2.29688-4.39844 4.4375 3.03516 4.4375-.52734 4.4414.2461 2.19922 1.64452 2.23828 2.09766 4.4375-.83594 2.125-1.26172 2.3125-3.64062.40625-.79688 1.50391-4.4375-1.54297-4.4414-.36719-.41797-4.4375-3.86719-4.4375 1.17578-4.4375 2.07422-1 1.03516-3.4414.40234-4.4375.69922-4.4375.99219-4.4375-1.13282-4.4414-.11718-3.9297 3.59765-.5078.58985-.31642-.58985-4.12109-3.83984-4.4375-.45703-.375-.14453-.28516-4.4375.66016-3.48047 4.4375 2.64453 4.4375.1875 4.4375.41015 3.44922-4.19921.99219-3.21485 1.10156-1.22265-1.10156-1.23438-4.15625-3.20703-.28516-.20703-1.67187-4.23047-2.76563-3.98438-.1836-.45312-4.2539-3.48047L242.58593 396l-.9414 2.97656-1.4375 1.46094-3 3.58594-.98047.85156-3.46094 1.67578-4.4375 1.83985-1.58593.92578-2.85156 2.98046-4.4375-1.68359-4.08204 3.14063-.35547 1.5625-3.48046-1.5625-.96094-.19922-.26953.19922-1.0625 4.4375 1.33203 1.05078 2.58984 3.38672-2.58984 1.36328-4.4375.10937-4.4375.05078-4.4375 1.71094-3.2461 1.20703-1.1953.52735-3.95704 3.91015-.48047.23828-4.4375.95704-4.34765 3.24218-.08985.0586-4.4414 2.03906-4.4375 1.03906-4.4375 1.28125-.02735.01953-4.41015 1.48438-4.4375.6836-4.44141.55468-4.4375 1.27734-1.94922-4-2.48437-2.73437V311.67188h155.33984V422.5664l-.07813.0625.07813.14062.11719-.14062-.11719-.0625V311.67187h4.4375v116.97657l-3.6914 2.85937 3.6914 2.6875 2.45703-2.6875-2.45703-2.85937V311.67188h8.875v140.21875l-1.51953 1.80859 1.51953 3.34765 4.4414-2.22265 1.4336-1.125-1.4336-1.24219-4.4414-.5664V311.67188h8.8789v110.11718l-.89843.83985.89844.96093 3.89062-.96093-3.89062-.83985V311.67187h8.875v108.72266l-4.21485 2.23438 4.21485 2.10937 3.4414-2.10937-3.4414-2.23438V311.67188h8.8789V417.6875l-1.23047.5039 1.23047 1.39454 1.92578 3.04297-1.92578 2.41015-.7461 2.03125.7461.53125 4.4375.82031 2.66406-1.35156 1.77344-2.85937.7461-1.58203-.7461-.57422-4.4375-1.46875-3.41406-2.39453-1.02344-.50391V311.67187h35.5039v114.9922l-.40233.40624-1.94532 4.4375-1.84375 4.4375-.2461.1836-4.4375 1.83203-4.4375-1.04297-4.4375-.75-4.4414-.1914-.02734-.03126-4.41016-4.14453-4.17969 4.14453-.2578 3.8086-.39844.6289-2.69141 4.4375 3.08984.15235 4.4375.04687.28125-.19922 4.15625-.47656 4.4414-.25 3.01563.72656 1.42188.96875 4.4375.1914 3.23437 3.28126-1.10156 4.4375 2.30469 2.3164 1.54687 2.1211 2.89063 2.83203 3.08594 1.60547 1.35546 2.4414 2.71094 2 1.72656 1.02344 2.07813 3.41406 2.35938 2.76563 2-2.76563.92968-4.4375 1.50781-2.74218.85938-1.69922 1.6836-4.4375-.23048-4.4375-.40625-4.4375.88672-4.4414-2.79296-1.87891-3.97266 1.8789-.46485.3164-1.39843-.3164-1.90235-4.4375-1.13671-.16406-2.0586-4.27344-.85156-4.4375-1.52735-3.07812-3.64843-1.35938-.79297-.40625V311.67187h93.20312v159.61329l-.16406.16796.16406.16797v8.33985l-.55468.36719h-56.6875l-.45313-.4336-.42187.4336h-14.91407l-2.41796-1.58594-2.07032 1.58594h-31.52734l-1.90625-1.54297-4.4414.96093-.69532.58204H144.00391"/></g><path fill="#50fcfc" fill-rule="evenodd" d="M147.3711 444.82031l-3.3672-.94922v-6.22265l2.48438 2.73437 1.94922 4v4.08985l-.5.78906.5.89844 3.26172-.89844-3.26172-.78906v-4.08985l4.4375-1.27734 4.4414-.55469 4.4375-.6836 4.41016-1.48437.02735-.01953 4.4375-1.28125 4.4375-1.03906 4.4414-2.03906.08985-.0586 4.34765-3.24219 4.4375-.95703.48047-.23828 3.95703-3.91015 1.19531-.52735 3.2461-1.20703 4.4375-1.71094 4.4375-.05078 4.4375-.10937 2.58984-1.36328-2.58984-3.38672-1.33203-1.05078 1.0625-4.4375.26953-.19922.96094.19922 3.48047 1.5625.35546-1.5625 4.08203-3.14063 4.4375 1.6836 2.85157-2.98047 1.58594-.92579 4.4375-1.83984 3.46093-1.67578.98047-.85156v2.57422l-4.13672 2.71875-.30469.17187-4.4375 1.15625-3.08593 3.10938-1.35156 4.30078-3.5-4.30078-.9375-.58204-.75782.58204.75781 2.4375 3.88282 2-3.88281.83593-2.35938 3.60157-2.07813 2.71875-3.79296 1.72265-.64844.67188-4.4375.04687-.91797-.71875-3.51953-.40625-.77734.40625-3.66016 2.89063-2.39844 1.54687-2.04297 1.89844-4.4375 1.36328-3.67969 1.17578-.7578.3125-4.4375 2.92578-1.69532 1.19922-1.89063 4.4375-.85546.48828-.1172-.48828-4.3203-2.4961-4.4375 1.84767-2.23438.64843-2.20312.125-4.4375.96094-4.17578 3.35547 2.86718 4.4375 1.3086 1.1289 2.42578 3.3086 2.01172 2.16797 4.4375-.39844 2.92578-1.76953 1.51172-.9961 4.4375-1.98046 1.9453-1.46094 2.4961-.19531.48047.1953 3.95703 3.04688 4.4375-2.51171 1.10938-.53516 3.32812-1.38281 4.42969-3.0547.01172-.04687.10547.04688 4.33203.375.63281-.375 1.46484-4.4414 2.33985-3.12891.86719-1.3086 3.5703-3.80078 4.44142.59375 4.4375.44922v2.41797l-1.47657.33984 1.47656.83985 2.75782-.83985-2.75781-.33984V437.625l4.4375.375 4.4375-.35156 4.4375 1.08984 4.4414 1.14453 1.3789.5 3.0586 2.2539 4.4375.39845 2.77344-2.65235 1.26172-4.4375-.17969-4.4375-2.75781-4.4375-1.09766-1.02344-4.4375-1.54296-4.4375-1.78125-.1211-.09375.1211-2.2461.34766-2.1914 3.32422-4.4375-.47657-4.4375-3.1953-2.71875v-2.57422l3-3.58594 1.4375-1.46094.9414-2.97656 3.4961-3.48047V394l-2.00782 2-.17578 4.4375 2.1836 2.16016 2.34765 2.27734-2.34766 1.10547-3.57031 3.33594 1.27734 4.4375 2.29297 1.80859 3.4375-1.8086 1-1.42968 1.9336 1.42969 2.5039 1.16015.95313-1.16015-.95313-1.73829-2.16797-2.69921-.52734-4.44141-1.74219-3.79688-.60547-.64062L248.52344 396l-2.4414-2v-1.48047L250.33593 396l.1836.45313 2.76562 3.98437 1.67187 4.23047.28516.20703 4.15625 3.20703 1.10156 1.23438-1.10156 1.22265-.99219 3.21485-3.44922 4.19921-4.4375-.41015-4.4375-.1875-4.4375-2.64453-.66016 3.48047.28516 4.4375.375.14453 4.4375.45703 4.1211 3.83984.3164.58985.50781-.58985 3.9297-3.59765 4.4414.11718v2.82422l-2.47266.65625-1.96875.25781-4.00781 4.1797 4.00781 3.28124 4.4414.30078 2.91798-3.58203-1.57813-4.4375-1.33984-.65625v-2.82422l4.4375 1.13282 4.4375-.9922 4.4375-.69921 3.4414-.40234 1-1.03516 4.4375-2.07422v3.16406l-4.4375 1.83985-4.4414-.42188-4.4375 2.15625-1.66016.8125.8164 4.4375.84376.58203 2.42969-.58203 2.0078-.28906 4.44141.28125v.00781l4.4375 3.78125 3.8047-3.78125.6328-.95312 2.8047-3.48438-2.8047-4.14844-4.4375-.23828v-3.16406l4.4375-1.17578 4.4375 3.86719.3672.41797 1.54296 4.4414-1.5039 4.4375-.40626.79688-2.3125 3.64062-2.125 1.26172-4.4375.83594-2.23828-2.09766-2.19922-1.64453-4.4414-.2461-4.4375.52735-4.4375-3.03515-2.29688 4.39843-2.14062 2.08203-4.14844-2.08203-.29297-.04297-.39062.04297-4.04688 2.38672-.41406 2.05078-4.02344 3.84766-4.4375.13281-3.67187.45703-.76563.82031-1.91406 3.6211-2.52734 1.875-4.4375.39844-4.4375 1.97656-4.4375-.57813-2.47657.76563-1.96094.71875-2.1953-.71875 2.1953-1.82422.85157-2.61328-.85156-.70703-4.44141.6875-.0664.01953-4.3711 1.67187-4.4375 1.6875-3.05469 1.07813-1.38281.94922-4.4414 1.21484-4.4375 1.16797-3.83204 1.10547-.60547.72656-4.4375 1.99219-4.4414-.35547-4.4375.71875-4.4375 1.16016-2.13672.1953-2.30078.5-.52344-.5-3.78906-4.4375-.125-.16796-4.44141-2.65625-4.4375.29297-1.1289-1.90625-1.82813-4.4375 1.89062-4.4414"/><path fill="#00e8fc" fill-rule="evenodd" d="M148.4375 450.16016l-.5-.89844.5-.78906 3.26172.78906-3.26172.89844m7.57031 3.53906l-2.86719-4.4375 4.17579-3.35547 4.4375-.96094v1.20703l-3.97266 3.10938 2.77734 4.4375 1.19532 1.67969 3.3164-1.6797.7461-4.4375-4.0625-3.10937v-1.20703l2.20312-.125 2.23438-.64844 4.4375-1.84765 4.3203 2.4961.1172.48827.85547-.48828 1.89062-4.4375 1.69531-1.19922v6.9375l-3.20703 3.14063 3.20703 2.9336 3.69531 1.5039.7422.57031.91796-.57031 2.00781-4.4375-2.92578-2.07031-4.4375-1.07032v-6.9375l4.4375-2.92578.75781-.3125 3.6797-1.17578 4.4375-1.36328 2.04296-1.89844 2.39844-1.54687 3.66016-2.89063.77734-.40625 3.51953.40625.91797.71875 4.4375-.04687.64844-.67188 3.79297-1.72265 2.07812-2.71875 2.35938-3.60157 3.8828-.83593-3.8828-2-.75782-2.4375.75781-.58204.9375.58204 3.5 4.30078 1.35157-4.30078 3.08594-3.10938 4.4375-1.15625.30468-.17187 4.13672-2.71875v3.17968l-4.4414 2.65625-4.4375.88672-.42579.4336-.5039 4.4375-3.50781 4.36718-.13282.07032.13281.07812 2.40625 4.36328-2.40625 3.72266-.85546.71484.85547 1.11328.98828-1.11328 3.44922-1.96484 1.07421 1.96484 3.36328 4.0039.47266.4336 3.96875 2.51953 4.4375 1.69922 1.75.21875 2.6875.66016.6914-.66016 2.2461-4.4375-2.14453-4.4375-.79297-1.10547-4.4375-3.1289-.23828-.20313-4.19922-2.88672-2.03125-1.55468.08594-4.4375 1.94531-1.5586 2.32813-2.8789-2.32813-3.97657v-3.17968l3.19531 2.71875.47657 4.4375-3.32422 4.4375-.34766 2.1914-.1211 2.2461.1211.09375 4.4375 1.78125 4.4375 1.54296 1.09766 1.02344 2.75781 4.4375.17969 4.4375-1.26172 4.4375-2.77344 2.65235-4.4375-.39844-3.0586-2.2539-1.3789-.5-4.4414-1.14454-4.4375-1.08984-4.4375.35156-4.4375-.375-4.4375-.44922-4.44141-.59375-3.57031 3.80078-.8672 1.3086-2.33983 3.1289-1.46485 4.4414-.63281.375-4.33203-.375-.10547-.04687-.01172.04688-4.42969 3.05469-3.32812 1.3828-1.10938.53517-4.4375 2.51171-3.95703-3.04687-.48047-.19531-2.4961.1953-1.9453 1.46095-4.4375 1.98046-1.51172.9961-2.92578 1.76953-4.4375.39844-2.01172-2.16797-2.42578-3.3086-1.3086-1.1289"/><path fill="#00d4fc" fill-rule="evenodd" d="M160.5586 453.69922l-2.77735-4.4375 3.97266-3.10938v1.21094l-2.42578 1.89844 2.42578 3.05469 2.48047-3.0547-2.48047-1.89843v-1.21094l4.0625 3.10938-.7461 4.4375-3.3164 1.67969-1.19532-1.6797"/><path fill="#00c4fc" fill-rule="evenodd" d="M161.7539 452.3164l-2.42577-3.05468 2.42578-1.89844v1.20703l-.88282.6914.88282 1.10548.89843-1.10547-.89843-.6914v-1.20704l2.48047 1.89844-2.48047 3.05469"/><path fill="#00b8fc" fill-rule="evenodd" d="M161.7539 450.36719l-.8828-1.10547.8828-.6914.89844.6914-.89843 1.10547"/><path fill="#00d4fc" fill-rule="evenodd" d="M179.50781 452.19531l-3.20703-2.9336 3.20703-3.14062v1.39454l-1.78125 1.74609 1.78125 1.6289 3.51172-1.6289-3.51172-1.7461v-1.39453l4.4375 1.07032 2.92578 2.0703-2.0078 4.4375-.91798.57032-.74219-.57031-3.6953-1.5039"/><path fill="#00c4fc" fill-rule="evenodd" d="M179.50781 450.89063l-1.78125-1.62891 1.78125-1.7461v1.39844l-.35547.34766.35547.32422.69531-.32422-.6953-.34766v-1.39844l3.51171 1.7461-3.51172 1.6289"/><path fill="#00b8fc" fill-rule="evenodd" d="M179.50781 449.58594l-.35547-.32422.35547-.34766.69531.34766-.6953.32422"/><path fill="#fff" fill-opacity="0" fill-rule="evenodd" d="M219.45313 440.04297l-1.47657.33984 1.47656.83985 2.75782-.83985-2.75781-.33984"/><path fill="#00d4fc" fill-rule="evenodd" d="M223.89063 432.6211l-.85547-1.11329.85547-.71484 2.40625-3.72266-2.40625-4.36328-.13282-.07812.13281-.07032 3.50782-4.36718.5039-4.4375.42578-.4336v6.51563l-4.28515 2.79297 4.28516 1.61328 1.15234-1.61328-1.15234-2.79297v-6.51563l4.4375-.88672 4.4414-2.65625v2.29688l-2.53516 1.67969-1.90625 3.23046-.96484 1.20704.28516 4.4375.67969 1.04296 2.08203 3.39844-2.08203 2.1211-1.625 2.3164 1.625 1.9336 2.70312 2.5039 1.73828 1.10156 4.4375 2.08985 4.4375-.01953 1.83984-3.17188-1.83984-3.07812-1.625-1.35938-2.8125-2.3789-2.3711-2.0586-2.0664-1.42187-3.9414-3.01953-.07422-4.4375 4.01562-3.22266.98438-1.21484-.98438-1.6797v-2.29687l2.32813 3.97657-2.32813 2.8789-1.94531 1.5586-.08594 4.4375 2.03125 1.55468 4.19922 2.88672.23828.20313 4.4375 3.1289.79297 1.10547 2.14453 4.4375-2.2461 4.4375-.6914.66016-2.6875-.66016-1.75-.21875-4.4375-1.69922-3.96875-2.51953-.47266-.4336-3.36328-4.0039-1.07422-1.96484-3.44921 1.96484-.98828 1.11328"/><path fill="#00e8fc" fill-rule="evenodd" d="M228.32813 419.83594l-4.28516 2.79297 4.28516 1.61328 1.15234-1.61328-1.15234-2.79297"/><path fill="#00c4fc" fill-rule="evenodd" d="M232.76563 433.4414l-1.625-1.93359 1.625-2.3164 2.08203-2.1211-2.08203-3.39844-.6797-1.04296-.28515-4.4375.96484-1.20704 1.90625-3.23046 2.53516-1.6797.98438 1.6797-.98438 1.21484-4.01562 3.22266.07422 4.4375 3.9414 3.01953v1.50781l-4.2461 4.35156 4.2461 3.83594.42188.60156 4.01562 2.16797 4.4375-.88672.74219-1.28125-.74219-1.24219-3.82031-3.1953-.61719-.52344-4.4375-3.82813v-1.50781l2.0664 1.42187 2.3711 2.0586 2.8125 2.3789 1.625 1.35938 1.83984 3.07812-1.83984 3.17188-4.4375.01953-4.4375-2.08985-1.73828-1.10156-2.70313-2.5039"/><path fill="#00b8fc" fill-rule="evenodd" d="M237.20703 435.34375l-4.2461-3.83594 4.2461-4.35156v3.05078l-1.26953 1.30078 1.26953 1.14453 2.3164 3.29297 2.1211 1.14453 3.4414-1.14453-3.4414-2.69922-2.78516-1.73828-1.65234-1.30078v-3.05078l4.4375 3.82813.61719.52343 3.82031 3.19531.74219 1.2422-.74219 1.28124-4.4375.88672-4.01562-2.16797-.42188-.60156"/><path fill="#00a8fc" fill-rule="evenodd" d="M237.20703 432.65234l-1.26953-1.14453 1.26953-1.30078 1.65234 1.30078 2.78516 1.73828v2.41407l-.22266.28515.22266.1211.35938-.1211-.35938-.28515v-2.41407l3.4414 2.69922-3.4414 1.14453-2.1211-1.14453-2.3164-3.29297"/><path fill="#009800" fill-rule="evenodd" d="M241.64453 436.0664l-.22266-.12109.22266-.28515.35938.28515-.35938.1211"/><path fill="#00e8fc" fill-rule="evenodd" d="M243.78906 413.7539l-1.27734-4.4375 3.57031-3.33593v2.60937l-.77734.72657.77734 1.83593 1.36328-1.83593-1.36328-.72657v-2.60937l2.34766-1.10547-2.34766-2.27734-2.1836-2.16016.17579-4.4375 2.00781-2 2.4414 2 1.39063 4.4375.60547.64063 1.74219 3.79687.52734 4.4414 2.16797 2.69923.95313 1.73828-.95313 1.16015-2.5039-1.16015-1.9336-1.4297-1 1.4297-3.4375 1.80859-2.29297-1.8086"/><path fill="#00d4fc" fill-rule="evenodd" d="M246.08203 411.15234l-.77734-1.83593.77734-.72657 1.36328.72657-1.36328 1.83593"/><path fill="#00e8fc" fill-rule="evenodd" d="M254.95703 434.78906l-4.00781-3.28125 4.00781-4.17969v2.36329l-1.73828 1.8164 1.73828 1.42578 4.4414-.96875.375-.45703-.375-.64844-4.4414-1.16796v-2.36329l1.96875-.2578 2.47266-.65626 1.33984.65625 1.57813 4.4375-2.91797 3.58203-4.4414-.30078"/><path fill="#00d4fc" fill-rule="evenodd" d="M254.95703 432.9336l-1.73828-1.42579 1.73828-1.8164 4.4414 1.16796.375.64844-.375.45703-4.4414.96875"/><path fill="#00e8fc" fill-rule="evenodd" d="M267.42969 431.50781l-.8164-4.4375 1.66015-.8125 4.4375-2.15625v1.78125l-2.0039 1.1875 2.0039 1.65625 3.1211-1.65625-3.1211-1.1875v-1.78125l4.4414.42188 4.4375-1.83985v5.3711l-1.25 3.45312 1.25 1.0625 1.07032-1.0625-1.07032-3.45312v-5.3711l4.4375.23829 2.8047 4.14843-2.8047 3.48438-.6328.95312-3.8047 3.78125-4.4375-3.78125V431.5l-4.4414-.28125-2.00781.28906-2.4297.58203-.84374-.58203"/><path fill="#00d4fc" fill-rule="evenodd" d="M272.71094 428.72656l-2.0039-1.65625 2.0039-1.1875 3.1211 1.1875-3.1211 1.65625m8.8789 3.84375l-1.25-1.0625 1.25-3.45312 1.07032 3.45312-1.07032 1.0625"/><path fill="#50fcfc" fill-rule="evenodd" d="M299.34375 422.76953l-.07813-.14062.07813-.0625.11719.0625-.11719.14062m4.4375 11.42578l-3.6914-2.6875 3.6914-2.85937 2.45703 2.85937-2.45703 2.6875m8.875 22.85156l-1.51953-3.34765 1.51953-1.8086 4.4414.56641 1.4336 1.24219-1.4336 1.125-4.4414 2.22265m8.8789-33.45703l-.89843-.96093.89844-.83985 3.89062.83985-3.89062.96093m8.875 1.14844l-4.21485-2.10937 4.21485-2.23438 3.4414 2.23438-3.4414 2.10937m8.8789-5.15234l-1.23047-1.39453 1.23047-.50391 1.02344.5039 3.41406 2.39454 4.4375 1.46875.7461.57422-.7461 1.58203-1.77344 2.85937-2.66406 1.35156-4.4375-.8203-.7461-.53126.7461-2.03125 1.92578-2.41015-1.92578-3.04297m4.4375 25.38672l-3.08984-.15235 2.6914-4.4375.39844-.6289.25781-3.8086 4.1797-4.14453v1.64844l-2.51954 2.4961 2.51953 2.57421v1.70313l-3.48828.16015 3.48828 3.65235.16016-3.65235-.16016-.16015v-1.70313l1.8789 1.86328 2.5586 2.3711 4.4414-1.42579 2.37892-.9453-2.37891-1.07032-4.4414-1.5664-1.78126-1.80079-2.65625-2.4961v-1.64843l4.41016 4.14453.02734.03125 4.4414.1914 4.4375.75 4.4375 1.04298 4.4375-1.83203.2461-.1836 1.84375-4.4375 1.94531-4.4375.40235-.40625v20.53906l-1.88672 2.0586 1.88672 2.61328 1.88672-2.61328-1.88672-2.0586v-20.53906l.79297.40625 3.64844 1.35938 1.52734 3.07812.85156 4.4375 2.0586 4.27344 1.13671.16406 1.90235 4.4375 1.39844.3164v10.97267l-3.76954 2.02734-.66796.27734-2.81641 4.16016 2.8164 2.7461 4.4375 1.16796 3.6836-3.91406-1.59375-4.4375-2.08985-2.02735v-10.97265l.46485-.3164 3.97265-1.87891 2.79297 1.8789-.88671 4.4414.40625 4.4375.23046 4.4375-1.68359 4.4375-.85938 1.69923-1.5078 2.74219-.9297 4.4375-2 2.76562-2.35937-2.76563-2.07813-3.41406-1.72656-1.02344-2.71094-2-1.35546-2.4414-3.08594-1.60547-2.89063-2.83203-1.54687-2.1211-2.30469-2.3164 1.10156-4.4375-3.23437-3.28125-4.4375-.1914-1.42188-.96876-3.01562-.72656-4.4414.25-4.15626.47656-.28125.19922-4.4375-.04687"/><path fill="#fff" fill-opacity="0" fill-rule="evenodd" d="M348.16406 440.22266l-3.48828.16015 3.48828 3.65235.16016-3.65235-.16016-.16015"/><path fill="#00e8fc" fill-rule="evenodd" d="M348.16406 438.51953l-2.51953-2.57422 2.51953-2.4961 2.65625 2.4961 1.78125 1.80078 4.4414 1.56641 2.37892 1.07031-2.37891.94531-4.4414 1.42579-2.5586-2.3711-1.8789-1.86328"/><g clip-path="url(#d)"><path fill="#50fcfc" fill-rule="evenodd" d="M351.90625 480.32813l.69531-.58204 4.4414-.96093 1.90626 1.54296h-7.04297"/></g><path fill="#00e8fc" fill-rule="evenodd" d="M374.79297 451.875l-1.88672-2.61328 1.88672-2.0586 1.88672 2.0586-1.88672 2.61328m8.8789 13.44531l-2.8164-2.7461 2.8164-4.16015.66797-.27734 3.76954-2.02735v3.3711l-4.19141 3.09375 4.1914 2.36328 2.22266-2.36328-2.22265-3.09375v-3.3711l2.08984 2.02735 1.59375 4.4375-3.6836 3.91406-4.4375-1.16797"/><path fill="#00d4fc" fill-rule="evenodd" d="M388.10938 464.9375l-4.19141-2.36328 4.1914-3.09375v2.03125l-1.4375 1.0625 1.4375.8125.76172-.8125-.76171-1.0625v-2.03125l2.22265 3.09375-2.22265 2.36328"/><path fill="#00c4fc" fill-rule="evenodd" d="M388.10938 463.38672l-1.4375-.8125 1.4375-1.0625.76171 1.0625-.76171.8125"/><g clip-path="url(#e)"><path fill="#50fcfc" fill-rule="evenodd" d="M390.47656 480.32813l2.07031-1.58594 2.41797 1.58594h-4.48828"/></g><g clip-path="url(#f)"><path fill="#50fcfc" fill-rule="evenodd" d="M409.8789 480.32813l.42188-.4336.45313.4336h-.875"/></g><path fill="#50fcfc" fill-rule="evenodd" d="M467.9961 471.6211l-.16407-.16798.16406-.16796v.33593"/><g clip-path="url(#g)"><path fill="#50fcfc" fill-rule="evenodd" d="M467.9961 479.96094v.36719h-.5547l.5547-.3672"/></g><path fill="#fff" fill-opacity="0" fill-rule="evenodd" d="M467.9961 471.6211v8.33984H468v-8.33985h-.0039"/><path fill="#50fcfc" fill-rule="evenodd" d="M467.9961 471.28516v.33593H468v-.33984l-.0039.0039"/><g clip-path="url(#h)"><path fill="#fff" fill-opacity="0" fill-rule="evenodd" d="M467.9961 311.67188H468v159.60937-159.60938h-.0039"/></g><path fill="#fff" fill-opacity="0" fill-rule="evenodd" d="M231.71484 412.58594l5.32813-2.39453-4.07813-9.08594-5.32812 2.39062 4.07812 9.08985"/><path fill-rule="evenodd" d="M231.57813 403.73828l.46484-.21094 2.57812 5.7422-.71875.32421-1.83593-4.09766-1.26953.57032-.22657-.50782.48438-.28906.20703-.15234.17578-.17578.125-.21094.07422-.26172.00781-.32813-.0664-.40234"/><path fill="#fff" fill-opacity="0" fill-rule="evenodd" d="M273.46484 437.63281l4.47657 3.75 6.39843-7.63672-4.48046-3.75-6.39454 7.63672"/><path fill-rule="evenodd" d="M281.36719 433.64844l.39062.32812-4.04297 4.82422-.60546-.5039 2.8828-3.44532-1.0625-.89062.35548-.42578.47265.30859.22656.1211.23438.08202.2461.01954.26952-.04688.29688-.13672.33594-.23437"/><path fill="#fff" fill-opacity="0" fill-rule="evenodd" d="M399.57031 462.3086l.90235-5.76954L390.6328 455l-.90234 5.76953 9.83984 1.53906"/><path fill-rule="evenodd" d="M392.08203 457.59766l.07813-.50391 6.21875.97266-.1211.77734-4.4336-.69531-.21483 1.3711-.55079-.08595.02344-.5625-.01562-.2578-.05079-.23829-.10937-.22266-.17969-.20703-.26953-.1836-.375-.16405"/><g clip-path="url(#i)"><path fill="none" stroke="#000" stroke-linecap="round" stroke-linejoin="round" stroke-miterlimit="10" stroke-width=".5" d="M147.34766 481.39063l-6.69532-2.125"/></g><g clip-path="url(#j)"><path fill="none" stroke="#000" stroke-linecap="round" stroke-linejoin="round" stroke-miterlimit="10" stroke-width=".5" d="M146.375 481.08203l.21875 1.20703"/></g><g clip-path="url(#k)"><path fill="none" stroke="#000" stroke-linecap="round" stroke-linejoin="round" stroke-miterlimit="10" stroke-width=".5" d="M160.78125 480.91016l-6.92969-1.16407"/></g><g clip-path="url(#l)"><path fill="none" stroke="#000" stroke-linecap="round" stroke-linejoin="round" stroke-miterlimit="10" stroke-width=".5" d="M160.78125 480.91016l.77344 2.32812"/></g><g clip-path="url(#m)"><path fill="none" stroke="#000" stroke-linecap="round" stroke-linejoin="round" stroke-miterlimit="10" stroke-width=".5" d="M174.14453 480.38281l-7.02734-.10937"/></g><g clip-path="url(#n)"><path fill="none" stroke="#000" stroke-linecap="round" stroke-linejoin="round" stroke-miterlimit="10" stroke-width=".5" d="M174.14453 480.38281l1.11719 2.1836"/></g><g clip-path="url(#o)"><path fill="none" stroke="#000" stroke-linecap="round" stroke-linejoin="round" stroke-miterlimit="10" stroke-width=".5" d="M173.1211 480.36719l.55859 1.09375"/></g><g clip-path="url(#p)"><path fill="none" stroke="#000" stroke-linecap="round" stroke-linejoin="round" stroke-miterlimit="10" stroke-width=".5" d="M187.45703 480.24219l-7.02344.17187"/></g><g clip-path="url(#q)"><path fill="none" stroke="#000" stroke-linecap="round" stroke-linejoin="round" stroke-miterlimit="10" stroke-width=".5" d="M187.45703 480.24219l1.20703 2.13672"/></g><g clip-path="url(#r)"><path fill="none" stroke="#000" stroke-linecap="round" stroke-linejoin="round" stroke-miterlimit="10" stroke-width=".5" d="M186.4375 480.26563l.60156 1.0703"/></g><g clip-path="url(#s)"><path fill="none" stroke="#000" stroke-linecap="round" stroke-linejoin="round" stroke-miterlimit="10" stroke-width=".5" d="M200.7461 480.75781l-6.97266-.85547"/></g><g clip-path="url(#t)"><path fill="none" stroke="#000" stroke-linecap="round" stroke-linejoin="round" stroke-miterlimit="10" stroke-width=".5" d="M200.7461 480.75781l.8828 2.28906"/></g><g clip-path="url(#u)"><path fill="none" stroke="#000" stroke-linecap="round" stroke-linejoin="round" stroke-miterlimit="10" stroke-width=".5" d="M199.73438 480.63281l.4375 1.14453"/></g><g clip-path="url(#v)"><path fill="none" stroke="#000" stroke-linecap="round" stroke-linejoin="round" stroke-miterlimit="10" stroke-width=".5" d="M214.07813 480.57813l-7.00782-.5"/></g><g clip-path="url(#w)"><path fill="none" stroke="#000" stroke-linecap="round" stroke-linejoin="round" stroke-miterlimit="10" stroke-width=".5" d="M214.07813 480.57813l.99609 2.24218"/></g><g clip-path="url(#x)"><path fill="none" stroke="#000" stroke-linecap="round" stroke-linejoin="round" stroke-miterlimit="10" stroke-width=".5" d="M213.0586 480.5039l.5 1.1211"/></g><g clip-path="url(#y)"><path fill="none" stroke="#000" stroke-linecap="round" stroke-linejoin="round" stroke-miterlimit="10" stroke-width=".5" d="M227.40234 480.3164l-7.02734.02344"/></g><g clip-path="url(#z)"><path fill="none" stroke="#000" stroke-linecap="round" stroke-linejoin="round" stroke-miterlimit="10" stroke-width=".5" d="M227.40234 480.3164l1.16016 2.16407"/></g><g clip-path="url(#A)"><path fill="none" stroke="#000" stroke-linecap="round" stroke-linejoin="round" stroke-miterlimit="10" stroke-width=".5" d="M240.71484 480.14063l-7.01953.3789"/></g><g clip-path="url(#B)"><path fill="none" stroke="#000" stroke-linecap="round" stroke-linejoin="round" stroke-miterlimit="10" stroke-width=".5" d="M240.71484 480.14063l1.26563 2.10156"/></g><g clip-path="url(#C)"><path fill="none" stroke="#000" stroke-linecap="round" stroke-linejoin="round" stroke-miterlimit="10" stroke-width=".5" d="M254.03125 480.20313l-7.02344.25"/></g><g clip-path="url(#D)"><path fill="none" stroke="#000" stroke-linecap="round" stroke-linejoin="round" stroke-miterlimit="10" stroke-width=".5" d="M254.03125 480.20313l1.22656 2.125"/></g><g clip-path="url(#E)"><path fill="none" stroke="#000" stroke-linecap="round" stroke-linejoin="round" stroke-miterlimit="10" stroke-width=".5" d="M267.34766 480.21094l-7.02344.23437"/></g><g clip-path="url(#F)"><path fill="none" stroke="#000" stroke-linecap="round" stroke-linejoin="round" stroke-miterlimit="10" stroke-width=".5" d="M267.34766 480.21094l1.22265 2.125"/></g><g clip-path="url(#G)"><path fill="none" stroke="#000" stroke-linecap="round" stroke-linejoin="round" stroke-miterlimit="10" stroke-width=".5" d="M280.64844 479.98828l-6.9961.67969"/></g><g clip-path="url(#H)"><path fill="none" stroke="#000" stroke-linecap="round" stroke-linejoin="round" stroke-miterlimit="10" stroke-width=".5" d="M280.64844 479.98828l1.35547 2.04688"/></g><g clip-path="url(#I)"><path fill="none" stroke="#000" stroke-linecap="round" stroke-linejoin="round" stroke-miterlimit="10" stroke-width=".5" d="M293.97656 480.1836l-7.01953.28906"/></g><g clip-path="url(#J)"><path fill="none" stroke="#000" stroke-linecap="round" stroke-linejoin="round" stroke-miterlimit="10" stroke-width=".5" d="M293.97656 480.1836l1.23828 2.11718"/></g><g clip-path="url(#K)"><path fill="none" stroke="#000" stroke-linecap="round" stroke-linejoin="round" stroke-miterlimit="10" stroke-width=".5" d="M307.29297 480.45313l-7.02344-.25"/></g><g clip-path="url(#L)"><path fill="none" stroke="#000" stroke-linecap="round" stroke-linejoin="round" stroke-miterlimit="10" stroke-width=".5" d="M307.29297 480.45313l1.07422 2.20703"/></g><g clip-path="url(#M)"><path fill="none" stroke="#000" stroke-linecap="round" stroke-linejoin="round" stroke-miterlimit="10" stroke-width=".5" d="M320.60938 480.38281l-7.02735-.10547"/></g><g clip-path="url(#N)"><path fill="none" stroke="#000" stroke-linecap="round" stroke-linejoin="round" stroke-miterlimit="10" stroke-width=".5" d="M319.58594 480.36719l.5625 1.08984"/></g><g clip-path="url(#O)"><path fill="none" stroke="#000" stroke-linecap="round" stroke-linejoin="round" stroke-miterlimit="10" stroke-width=".5" d="M333.90625 480.67578l-6.99219-.69531"/></g><g clip-path="url(#P)"><path fill="none" stroke="#000" stroke-linecap="round" stroke-linejoin="round" stroke-miterlimit="10" stroke-width=".5" d="M332.89063 480.57422l.46484 1.13672"/></g><g clip-path="url(#Q)"><path fill="none" stroke="#000" stroke-linecap="round" stroke-linejoin="round" stroke-miterlimit="10" stroke-width=".5" d="M347.14453 481.14453l-6.83594-1.63281"/></g><g clip-path="url(#R)"><path fill="none" stroke="#000" stroke-linecap="round" stroke-linejoin="round" stroke-miterlimit="10" stroke-width=".5" d="M346.14844 480.90625l.3086 1.1875"/></g><g clip-path="url(#S)"><path fill="none" stroke="#000" stroke-linecap="round" stroke-linejoin="round" stroke-miterlimit="10" stroke-width=".5" d="M359.3125 483.00781l-4.54297-5.35937"/></g><g clip-path="url(#T)"><path fill="none" stroke="#000" stroke-linecap="round" stroke-linejoin="round" stroke-miterlimit="10" stroke-width=".5" d="M371.6289 483.60547l-2.54296-6.55078"/></g><g clip-path="url(#U)"><path fill="none" stroke="#000" stroke-linecap="round" stroke-linejoin="round" stroke-miterlimit="10" stroke-width=".5" d="M382.92188 483.76172l1.5-6.86719"/></g><g clip-path="url(#V)"><path fill="none" stroke="#000" stroke-linecap="round" stroke-linejoin="round" stroke-miterlimit="10" stroke-width=".5" d="M393.71875 481.625l6.53516-2.59375"/></g><g clip-path="url(#W)"><path fill="none" stroke="#000" stroke-linecap="round" stroke-linejoin="round" stroke-miterlimit="10" stroke-width=".5" d="M393.71875 481.625l-1.86719-1.58984"/></g><g clip-path="url(#X)"><path fill="none" stroke="#000" stroke-linecap="round" stroke-linejoin="round" stroke-miterlimit="10" stroke-width=".5" d="M407.38672 482.29297l5.82812-3.92969"/></g><g clip-path="url(#Y)"><path fill="none" stroke="#000" stroke-linecap="round" stroke-linejoin="round" stroke-miterlimit="10" stroke-width=".5" d="M420.30078 481.4961l6.6289-2.33204"/></g><g clip-path="url(#Z)"><path fill="none" stroke="#000" stroke-linecap="round" stroke-linejoin="round" stroke-miterlimit="10" stroke-width=".5" d="M421.26563 481.15625l-.90235-.83203"/></g><g clip-path="url(#aa)"><path fill="none" stroke="#000" stroke-linecap="round" stroke-linejoin="round" stroke-miterlimit="10" stroke-width=".5" d="M433.7539 481.82422l6.35548-2.99219"/></g><g clip-path="url(#ab)"><path fill="none" stroke="#000" stroke-linecap="round" stroke-linejoin="round" stroke-miterlimit="10" stroke-width=".5" d="M434.67969 481.39063l-.98438-.73438"/></g><g clip-path="url(#ac)"><path fill="none" stroke="#000" stroke-linecap="round" stroke-linejoin="round" stroke-miterlimit="10" stroke-width=".5" d="M446.73828 480.52734l7.01563-.39453"/></g><g clip-path="url(#ad)"><path fill="none" stroke="#000" stroke-linecap="round" stroke-linejoin="round" stroke-miterlimit="10" stroke-width=".5" d="M447.75781 480.46875l-.63281-1.05078"/></g><g clip-path="url(#ae)"><path fill="none" stroke="#000" stroke-linecap="round" stroke-linejoin="round" stroke-miterlimit="10" stroke-width=".5" d="M460.14063 479.52734l6.83984 1.60547"/></g><g clip-path="url(#af)"><path fill="none" stroke="#000" stroke-linecap="round" stroke-linejoin="round" stroke-miterlimit="10" stroke-width=".5" d="M461.13672 479.75781l-.3125-1.1836"/></g><g clip-path="url(#ag)"><path fill="none" stroke="#000" stroke-linecap="round" stroke-linejoin="round" stroke-miterlimit="10" stroke-width=".5" d="M147.3125 468.1875l-6.625-2.34766"/></g><path fill="none" stroke="#000" stroke-linecap="round" stroke-linejoin="round" stroke-miterlimit="10" stroke-width=".5" d="M147.3125 468.1875l.36328 2.42578m13.04688-2.7461l-6.81641-1.70702m6.8164 1.70703l.58985 2.38281m12.83203-3.27344l-7.02734.07422m7.02734-.07422l1.17188 2.15625m12.13672-2.33984l-7.01563.4414m7.01563-.4414l1.28515 2.08594m-2.3086-2.02344l.64454 1.04687m13.6914-1.14453l-7.0078.51172m7.0078-.51172l1.3047 2.07813m-2.32423-2.0039l.65235 1.03905m13.6914-.92187l-7.02734.1289m7.02734-.1289l1.19141 2.14453m-2.21484-2.125l.59765 1.07031m13.73828-1.11719l-7.02343.1836m7.02343-.1836l1.20703 2.13672m-2.23046-2.10937l.60547 1.0664m13.71875-1.33984l-6.9961.67578m6.9961-.67578l1.35546 2.04688m-2.375-1.94922l.6797 1.02344m13.61718-1.39454l-6.91797 1.22266m6.91797-1.22266l1.51172 1.9336m-2.51953-1.75781l.7578.96875m13.60157-.8711l-6.99219.67578m6.9922-.67578l1.35546 2.04297m11.92188-2.32422l-6.91797 1.23828m6.91797-1.23828l1.51562 1.92578m11.74219-2.17968l-6.80469 1.74609m6.80469-1.7461l1.65625 1.8086m11.59375-2.04297l-6.67188 2.21484m6.67188-2.21484l1.77344 1.6914m11.69921-.96093l-6.98828.7539m5.97266-.64453l.6875 1.01563m13.65625-.54688l-7.01563-.40234m5.9961.34375l.51172 1.11328m13.72656-2.10156l-6.82031 1.6914m5.82812-1.4453l.82031.91015m13.05079-2.17578l-5.94922 3.73047m5.08593-3.1875l1.0625.60937m13.63672 1.0625l-6.99219-.69922m5.97657.59766l.46484 1.13672m7.53516.6875l5.67187-4.14453m7.15235 3.20312l6.65234-2.26172m-5.6836 1.9336l-.89452-.84375m13.4414-1.5625l6.2539 3.20703m-5.34374-2.73828l-.01953-1.22657m14.0039-.79296l3.09375 6.30859m-2.64453-5.39063l.71875-.99609m11.71875.32813l3.94922 5.80859m-3.375-4.96485l.57031-1.08593m11.25 5.14062l5.78906-3.98828m-4.9453 3.40625l-1.08985-.5625m12.95312-1.1289l7.00391.55859m-5.98438-.47656l-.48828-1.125"/><g clip-path="url(#ah)"><path fill="none" stroke="#000" stroke-linecap="round" stroke-linejoin="round" stroke-miterlimit="10" stroke-width=".5" d="M147.21875 455.10156l-6.4375-2.8086"/></g><path fill="none" stroke="#000" stroke-linecap="round" stroke-linejoin="round" stroke-miterlimit="10" stroke-width=".5" d="M147.21875 455.10156l.1914 2.44922m13.16798-2.55469l-6.52735-2.59765m5.57813 2.22265l.13672 1.21875m13.91406-.39453l-6.09766-3.49218m5.21094 2.98437l-.03906 1.22656m14.6953-2.22656l-7.0078-.48047m7.0078.48047l1.00392 2.24219m12.27343-3.04297l-6.9336 1.125m6.9336-1.125l1.48828 1.95312m11.86328-1.64453l-7.0078.5039m7.0078-.5039l1.3047 2.07813m-2.32423-2.0039l.65235 1.03905m13.6836-1.10156l-7.00782.48438m7.00781-.48438l1.30078 2.08203m-2.32031-2.01172l.64844 1.03907m13.6875-1.07813l-7.01172.42188m7.01172-.42188l1.28125 2.09375m-2.30078-2.03125l.64062 1.04688m13.6836-1.26563l-6.98829.73438m6.98828-.73438l1.3711 2.03516M253 453.4375l.6836 1.01953m13.61718-1.34766l-6.92969 1.17579m6.9297-1.17579l1.49609 1.94532m-2.50391-1.77344l1.4961 1.94531m12.79687-2.26172l-6.8711 1.46875m6.8711-1.46875l1.57812 1.87891m-2.57812-1.66406l1.57812 1.8789m12.64453-2.4375l-6.6875 2.15625m6.6875-2.15625l1.76172 1.70703m-2.73437-1.39453l.88281.85547m13.20312-1.66015l-6.28515 3.14062m6.28515-3.14062l2 1.42187m-2.91406-.96484l1 .71093m12.88672-1.72265l-5.59766 4.2461m5.59766-4.2461l2.22656 1.03125m10.6836-1.47656l-4.78907 5.14062m4.09375-4.39453l1.1836.3164m11.88672-1.6914l-2.90625 6.39844m2.48437-5.46875l1.22266-.07422M358.5 450.5039l-2.91797 6.39062m2.91797-6.39062l2.44922-.14844m10.53906.01562l-2.26172 6.65235m1.9336-5.6836l1.21093-.1953m14.4297 4.15624l-6.25782-3.20312m13.35547 3.27343l6.17578-3.34765m-5.27735 2.86328l-1.02343-.67969m13.02734-.79687l7.0039.57812m-5.98437-.4961l-.48437-1.125m17.30468 1.33204l-.01953-.19922-.05859-.1914-.09766-.1797-.45703-.375-.1914-.05859-.19922-.01953-.19922.01953-.1914.0586-.46095.375-.09375.17968-.05859.19141-.01953.19922.01953.19922.0586.1914.09374.17578.46094.37891.1914.0586.19923.01953.19922-.01954.1914-.05859.45703-.3789.09766-.17579.0586-.1914.01952-.19922m15.35157-1.72266l-6.1211 3.44531m6.1211-3.4453l2.0664 1.32421m11.60157-.4375l-6.82813 1.67188m13.22656-1.08594l7.00782.5"/><g clip-path="url(#ai)"><path fill="none" stroke="#000" stroke-linecap="round" stroke-linejoin="round" stroke-miterlimit="10" stroke-width=".5" d="M146.76563 442.54688l-5.53125-4.32813"/></g><path fill="none" stroke="#000" stroke-linecap="round" stroke-linejoin="round" stroke-miterlimit="10" stroke-width=".5" d="M146.76563 442.54688l-.42579 2.41796m13.83203-2.53515l-5.71484-4.08985m4.88281 3.4922l-.16015 1.21874m13.92969-.17578l-4.95704-4.98438m4.23438 4.25782l-.36328 1.17187m13.69922.09375l-3.5547-6.0625m3.03907 5.17969l-.64453 1.04688M200.0664 442.5l-5.60937-4.23047m4.79297 3.61328l-.19531 1.21094m14.85547-1.60156l-6.66797-2.21875m5.69531 1.89453l.20703 1.21094m14.1914-1.31641l-6.89452-1.35937m6.89453 1.35937l.71094 2.34766m12.67187-3.04297l-7.02734.03125m7.02734-.03125l1.16406 2.16015m12.14063-2.39843l-7.00781.51172m7.0078-.51172l1.3086 2.07812m11.9414-2.55469l-6.875 1.46094m6.875-1.46094l1.57813 1.87891m11.78125-1.60156l-6.96484.90625m6.96484-.90625l1.42578 2m-2.4375-1.86719l.71094 1m13.33984-2.11328l-6.41406 2.8711m6.41406-2.8711l1.9375 1.5039m-2.87109-1.08593l.96875.75m12.88281-1.83985l-5.62109 4.21485m5.6211-4.21485l2.22265 1.03907m-3.03906-.42578l2.22265 1.03906m11.56641-2.05078l-4.9336 5.0078m4.9336-5.0078l2.35156.69922m-3.07031.03125l2.35156.69921m11.6875-1.42187l-4.94531 4.99219m4.94531-4.9922l2.35156.70704m-3.0703.01953l1.17577.35156m12.40625-1.45312l-4.04296 5.7461m4.04296-5.7461l2.4375.30469m10.46485-.5547l-3.21485 6.2461m3.21485-6.2461l2.45312-.03515m9.10547-.35156l.30078 7.01953m-.30078-7.01953l2.11328-1.2461m9.60156 1.70704l3.5 6.09375m-3.5-6.09375l1.3047-2.07813m10.25 5.28516l7.01952-.32031m-7.01953.3203l-1.25-2.10937m16.80078-1.32421l2.54688 6.55078m-2.17578-5.59766l.80078-.92969m16.92578 3.03907l-7.01563.42187m5.9922-.35937l.64062 1.04687m12.29687 1.91406l-4.21484-5.6211m3.60156 4.80079l-.51953 1.11328m15.3164-4.97265l-5.95312 3.73437m5.08594-3.1914l1.0664.61328m10.02344-2.80079l.23047 7.02344m-.19531-6l1.0625-.61328"/><g clip-path="url(#aj)"><path fill="none" stroke="#000" stroke-linecap="round" stroke-linejoin="round" stroke-miterlimit="10" stroke-width=".5" d="M147.22266 428.46484l-6.44532-2.79297"/></g><path fill="none" stroke="#000" stroke-linecap="round" stroke-linejoin="round" stroke-miterlimit="10" stroke-width=".5" d="M146.28516 428.0586l.09765 1.22265m14.42969-1.88281l-6.9961-.66016m6.9961.66016l.9414 2.26562m12.39063-2.58593l-7.02734-.01954m6.0039.01563l.57422 1.08594m13.45313.34765l-6.40625-2.8789m5.47656 2.46093l.07813 1.22266m13.49218.19531l-5.0586-4.8789m4.32423 4.16797l-.33985 1.17968m14.75391-.91406l-5.78906-3.98828m4.94922 3.40625l-.14063 1.21875m14.82031-1.8125l-6.83593-1.63672m5.83984 1.39844l.3086 1.1875m14.07812-2.13672l-6.98828.73828m5.97265-.6289l.6875 1.01562m13.66016-.92969l-7.01953.34766m5.9961-.29688l.6289 1.05078m13.61328-1.75l-6.83203 1.64453m6.83203-1.64453l1.6289 1.83594m11.75391-1.4961l-6.96093.96485m6.96093-.96484l1.4375 1.98828m11.8789-1.96875l-6.96483.92578m6.96484-.92578l1.42578 1.9961m11.24219-3.60548l-5.67188 4.14453m5.67188-4.14453l2.20703 1.06641m-3.03125-.46484l1.10156.53515m12.57813-1.65234l-4.75391 5.17578m4.7539-5.17578l2.375.6211m-3.0664.1328l1.1875.3086m12.67188-1.1875l-4.46094 5.42578m4.46094-5.42578l2.40625.48437m-3.0547.3047l1.20313.24218m12.82032-.98438l-4.57813 5.33204m4.57813-5.33204l2.39453.53907m-3.0625.23828l1.19922.26953m12.76562-1.0625l-4.54297 5.36328m4.54297-5.36328l2.39844.51953m8.20312-1.32422l.88282 6.97266m-.88282-6.97266l2.00782-1.41406m9.92578 1.89844l3.64843 6.0039m-3.64843-6.0039l1.2539-2.10938m17.0625 3.60938l-6.35547 3.0039m6.35547-3.0039l1.96485 1.46875m-2.89063-1.03125l1.96875 1.46875m11.8711-2.5547l-5.5547 4.30079m5.5547-4.30078l2.23828 1.00781m-3.04688-.38281l2.23828 1.00781m11.32813-2.20703l-4.4375 5.44922m4.4375-5.44922l2.40625.47656m-3.05078.3164l1.20312.23829m12.76953-1.01953l-4.46484 5.42578m4.46484-5.42578l2.40625.48828m-3.05468.30078l2.40234.48828m11.23047-1.51953l-3.80469 5.91016m3.80469-5.91016l2.44531.20313m-3 .65625l2.44531.20703m-2.9961.65234l1.22267.10156m13.85156-1.27343l-5.11328 4.8164"/><g clip-path="url(#ak)"><path fill="none" stroke="#000" stroke-linecap="round" stroke-linejoin="round" stroke-miterlimit="10" stroke-width=".5" d="M466.11719 424.66016l2.32422.78515"/></g><path fill="none" stroke="#000" stroke-linecap="round" stroke-linejoin="round" stroke-miterlimit="10" stroke-width=".5" d="M465.375 425.35938l2.32422.78906m-3.07031-.08594l1.16406.39063"/><g clip-path="url(#al)"><path fill="none" stroke="#000" stroke-linecap="round" stroke-linejoin="round" stroke-miterlimit="10" stroke-width=".5" d="M147.47266 414.29688l-6.94532-1.08985"/></g><path fill="none" stroke="#000" stroke-linecap="round" stroke-linejoin="round" stroke-miterlimit="10" stroke-width=".5" d="M146.46094 414.14063l.40234 1.16015m13.94531-1.91406l-6.98828.73437m5.97266-.6289l.6875 1.01562m13.19531-2.5039l-6.08984 3.5m5.20312-2.9922l1.03906.65235m13.44922-.52343l-6.66406 2.22265m5.69531-1.89844l.89063.84766m13.54297-.54297l-6.96094.96875m5.94531-.82812l.72266.99218m13.6289-.35937l-7.0039-.57813m5.98437.4922l.48438 1.1289m13.85937-1.4414l-7.02343.21874m16.84765 3.40235l-.04297-7.02735m.03516 6.00781l-1.07813.58204m15.4297.27734l-2.09766-6.70703m1.79297 5.73047l-.86329.875m16.8672-2.51172l-6.8672-1.47657m5.8672 1.26172l.33593 1.1797m14.03516-2.10548l-6.98047.80078m5.96484-.68359l.69531 1.01172m12.60547 1.78125l-4.92187-5.01563m4.20703 4.28516l-.3711 1.17188m15.26954-4.08204l-6.65625 2.26172m6.65625-2.26172l1.78515 1.6836m-2.7539-1.35157l.89453.83985m12.84375-2.1875l-5.56641 4.29297m5.5664-4.29297l2.23438 1.01172m11.46485-.38282l-6.33594 3.03907m6.33594-3.03907l1.97656 1.45313m-2.89844-1.01172l.98828.72656m12.98438-1.625l-5.8086 3.95313m5.8086-3.95313l2.17187 1.14063m11.75.64453l-7.01953.3789m7.01953-.3789l1.26563 2.10156m10.87109-4.53906l-4.66016 5.25781m4.66016-5.25781l2.38281.57422m-3.0625.1914l2.38672.57422m11.42578-1.49218l-4.29687 5.5625m4.29687-5.5625l2.41797.41015m-3.04297.39844l2.41797.41406m12.38281-.25781l-6.01953 3.63281m6.01953-3.63281l2.10547 1.26172m-2.98047-.73438l2.10547 1.26172m11.55078-2.46484l-4.95312 4.98437m4.95312-4.98437l2.35157.71094m-3.07032.01562l2.34766.70703m11.17188-1.85547l-3.92579 5.82813m3.92579-5.82813l2.4414.25391m-3.01172.59375l2.4414.2539m12.31642-.26562l-5.66797 4.15625m5.66797-4.15625l2.21093 1.0664m-3.03515-.46093l2.21093 1.0664m11.0547-2.5078l-3.92188 5.82812m3.92187-5.82813l2.4414.25391m-3.01171.59375l2.4414.2539m11.6172-.98046l-4.26563 5.58593"/><g clip-path="url(#am)"><path fill="none" stroke="#000" stroke-linecap="round" stroke-linejoin="round" stroke-miterlimit="10" stroke-width=".5" d="M465.69531 410.96094l2.42188.40234"/></g><path fill="none" stroke="#000" stroke-linecap="round" stroke-linejoin="round" stroke-miterlimit="10" stroke-width=".5" d="M465.07422 411.77344l2.42187.40234"/><g clip-path="url(#an)"><path fill="none" stroke="#000" stroke-linecap="round" stroke-linejoin="round" stroke-miterlimit="10" stroke-width=".5" d="M147.4336 401.1836l-6.8672-1.48829"/></g><path fill="none" stroke="#000" stroke-linecap="round" stroke-linejoin="round" stroke-miterlimit="10" stroke-width=".5" d="M146.4336 400.96484l.33593 1.1836m13.91406-2.70703l-6.73828 1.99609m6.73828-1.9961l1.71875 1.75m11.3672-2.33202l-6.27735 3.16015m6.27734-3.16015l2.0039 1.41796m11.625-.48437l-6.90624 1.29297m6.90625-1.29297l1.53125 1.91406m11.82031-.85547l-6.98047-.82812m6.98047.82812l.88672 2.28906m6.375-.30078l5.1289-4.80468m-4.3828 4.10546l-1.16016-.39453m16.4375 2.20313l-.28907-7.01953m.2461 5.9961l-1.0586.62108m17.16016-1.10937l-5.77734-4m5.77734 4l-.28516 2.4375m14.05078-3.33594l-6.67578-2.19922m6.67578 2.19922l.41407 2.41797m11.76562-.78125l-4.40625-5.47265m4.40625 5.47265l-.96484 2.2539m15.27344-3.53124l-6.39063-2.92188m6.39063 2.92188l.14453 2.44922m13.38672-4.7461l-6.82422 1.67188m6.82422-1.67188l1.6328 1.82813m11.77735-1.19531l-7.01562.40625m7.01562-.40625l1.27344 2.09765m12.03906-2.14844l-7.01172.51172m7.01172-.51172l1.30469 2.07813m-2.32422-2.0039l.65234 1.03906m13.48438-2.04297l-6.61719 2.37109m6.61719-2.3711l1.8164 1.65235m9.76172-3.60938l-3.14062 6.28516m2.6836-5.3711l1.22656-.03124m14.32421 1.19531l-6.69921 2.125m5.72265-1.8164l.8789.85937m12.67579-2.45313l-5.22266 4.69922m5.22266-4.69922l2.30469.83594m-3.0664-.15234l2.30468.83984m11.26562-1.98828l-4.21093 5.625m4.21093-5.625l2.42578.3789m-3.03906.44141l2.42578.375m-3.03906.4414l1.21484.1875m14.16797-.92187l-5.89453 3.82032m5.89453-3.82032l2.14453 1.19141m-3-.63672l2.14454 1.19531m12.30078-1.23828l-6.44532 2.79688m6.44532-2.79688l1.92187 1.53125m-2.85937-1.125l1.91797 1.53125m11.91406-2.66015l-5.60156 4.24218m5.60156-4.24218l2.22656 1.03125m-3.04297-.41407l2.22656 1.03125m12.07813-1.39843l-5.94922 3.74218m5.94922-3.74218l2.1289 1.21875m-2.99609-.67579l2.1289 1.22266m12.0586-1.75781l-5.95703 3.72656m5.95703-3.72656l2.125 1.22656m-2.99219-.6836l2.125 1.22657m11.76954-2.16016l-5.38672 4.51172"/><g clip-path="url(#ao)"><path fill="none" stroke="#000" stroke-linecap="round" stroke-linejoin="round" stroke-miterlimit="10" stroke-width=".5" d="M466.2539 398.1836l2.27735.92187"/></g><path fill="none" stroke="#000" stroke-linecap="round" stroke-linejoin="round" stroke-miterlimit="10" stroke-width=".5" d="M465.47266 398.83984l2.27343.92188"/><g clip-path="url(#ap)"><path fill="none" stroke="#000" stroke-linecap="round" stroke-linejoin="round" stroke-miterlimit="10" stroke-width=".5" d="M147.14453 388.6914l-6.28906-3.13671"/></g><path fill="none" stroke="#000" stroke-linecap="round" stroke-linejoin="round" stroke-miterlimit="10" stroke-width=".5" d="M147.14453 388.6914l.0664 2.45313m13.60938-4.28125l-7.00781.51953m7.00781-.51953l1.3086 2.07422m11.5703-3.52734l-6.13671 3.42578m6.13672-3.42578l2.0586 1.32812m8.89062-3.0586l-1.40625 6.88673m1.40625-6.88672L187 382.98438m6.91016 5.1953l6.69922-2.11327m-5.72657 1.80859l-.875-.85938m16.88672 3.60547l-.64062-6.99609m.64062 6.9961l-2.05078 1.34765m18.2461-3.39453l-6.39844-2.89844m5.46875 2.47656l.07812 1.22266m13.39453.28906l-4.85547-5.08203m4.85547 5.08203l-.76953 2.32813m14.55078-2.875l-5.78515-3.98828m5.78515 3.98828l-.28125 2.4375m14.21485-4.5664l-7.02344.26952m7.02344-.26953l1.23437 2.1211m-2.25781-2.08204l.61719 1.0586m13.67578-.38672l-6.9336-1.15235m6.9336 1.15235l.78125 2.32812m-1.78906-2.49609l.38671 1.16406m13.97266-1.85937l-7.0039.57422m7.0039-.57422l1.32422 2.0664m-2.34375-1.98046l.66016 1.03125m13.58203-1.66797l-6.82422 1.67578m6.82422-1.67578l1.63672 1.82812m-2.62891-1.58594l.82031.91797m13.57422-.63281l-6.9961.6211m6.9961-.6211l1.33984 2.05469m-2.35546-1.96485l.66796 1.02735m13.03516-2.83203l-5.73828 4.05468m5.73828-4.05468l2.1914 1.10156m11.3711-.69922l-6.23437 3.2461m6.23437-3.2461l2.01953 1.39063m-2.92578-.91797l1.00781.6953m13.23828-1.11718l-6.28515 3.14453m6.28515-3.14453l2 1.42188m-2.91406-.96485l1 .71094m12.95703-1.6211l-5.74218 4.05079m5.74218-4.05078l2.1914 1.10546m-3.02733-.51562l1.09765.55078m12.82422-1.4336l-5.28125 4.63673m5.28125-4.63672l2.29297.86719m-3.0625-.19141l2.29687.86719m11.91797-1.38672l-5.54297 4.32422m5.54297-4.32422l2.23828 1.0039m-3.04687-.375l2.24219 1m12.1914-1.15625l-6.16406 3.37891m6.16406-3.3789l2.05078 1.34765m-2.94921-.85547l1.02734.67188m12.89844-1.60547l-5.58594 4.26562m5.58594-4.26562l2.23047 1.01953m-3.04297-.40235l2.23047 1.02344m12.05468-1.41406l-5.90234 3.8086m5.90234-3.8086l2.14453 1.19531m-3.0039-.64062l1.07422.59765m13.5625-.07421l-6.82813 1.65234m6.82813-1.65235l1.6289 1.83204m-2.6211-1.59375l1.62892 1.83593m12.64453-2.20703l-6.76172 1.91797"/><g clip-path="url(#aq)"><path fill="none" stroke="#000" stroke-linecap="round" stroke-linejoin="round" stroke-miterlimit="10" stroke-width=".5" d="M466.9414 386.16406l1.69923 1.76953"/></g><path fill="none" stroke="#000" stroke-linecap="round" stroke-linejoin="round" stroke-miterlimit="10" stroke-width=".5" d="M465.95703 386.44531l.85156.88281"/><g clip-path="url(#ar)"><path fill="none" stroke="#000" stroke-linecap="round" stroke-linejoin="round" stroke-miterlimit="10" stroke-width=".5" d="M146.59375 376.17969l-5.1875-4.74219"/></g><path fill="none" stroke="#000" stroke-linecap="round" stroke-linejoin="round" stroke-miterlimit="10" stroke-width=".5" d="M146.59375 376.17969l-.60938 2.375m14.84375-4.70313l-7.02734-.08594m7.02734.08594l1.125 2.17969m11-4.85938l-4.64453 5.27344m4.64453-5.27344l2.38672.56641m10.44141-.92578l-3.67188 5.99219m3.67188-5.99219l2.44922.15234m-2.98438.71875l1.22657.07813m13.65234.00781l-5.72656 4.07422m5.72656-4.07422l2.1914 1.09766m-3.02734-.5039l1.09766.55077m13.65625 1.45313l-6.9375-1.11719m6.9375 1.11719l.79297 2.32031m-1.80078-2.48438l.39453 1.16016m13.4375.3125l-5.95313-3.73828m5.95313 3.73828l-.17969 2.44922m13.82813-3.13672l-6.6172-2.36328m6.6172 2.36328l.35546 2.42969m12.85938-2.1836l-6.42188-2.85156m6.42188 2.85156l.17187 2.44922m-1.10547-2.86328l.08594 1.22266m13.82031-.20703l-5.73437-4.05469m5.73438 4.05469l-.3086 2.4336m13.96485-3.03126l-6.41797-2.85937m6.41797 2.85937l.17187 2.44531m13.2461-2.70703l-6.625-2.33594m6.625 2.33594l.36718 2.42578m-1.32812-2.76562l.17968 1.21484m14.22266-2.76953l-6.875 1.45313m6.875-1.45313l1.57422 1.88281m-2.57422-1.67187l.78516.9414m13.51562-1.21484l-6.84766 1.57813m6.84766-1.57813l1.60938 1.85547m-2.60547-1.625l.80468.92578m13.46485-1.32422l-6.76172 1.91406m6.76172-1.91406l1.69922 1.76953m-2.6836-1.49218l.84766.88671m13.4961-.99218l-6.85157 1.57031m6.85156-1.57031l1.60547 1.85547m-2.60156-1.625l1.60547 1.85156m12.71875-2.00781l-6.8789 1.42187m6.8789-1.42187l1.5664 1.88671m-2.5664-1.67968l1.5664 1.88672m12.67579-2.38672l-6.73438 2.00781m6.73438-2.00781l1.72265 1.7461m-2.70312-1.45313l.86328.87109m13.42187-1.20313l-6.71093 2.08594m6.71093-2.08594l1.7422 1.72657m-2.71876-1.42578l.8711.86328m13.41015-1.1914l-6.6914 2.14062m6.6914-2.14063l1.75781 1.71485m-2.73047-1.40235l.87891.85547m13.39063-1.23047l-6.65235 2.26563m6.65235-2.26563l1.78906 1.67969m-2.75781-1.35156l.89453.83984m13.41406-1.08984l-6.70313 2.10937m6.70313-2.10937l1.75 1.71875m-2.72656-1.41016l.875.85938m12.92187-2.15625l-5.71484 4.08593m5.71484-4.08594l2.19922 1.08985m-3.03125-.4961l1.09766.54688m13.65625.3164l-6.92969 1.17188m6.92969-1.17187l1.4961 1.9414m-2.50392-1.77344l.75.97266m13.60547-.90625l-6.99218.70313"/><g clip-path="url(#as)"><path fill="none" stroke="#000" stroke-linecap="round" stroke-linejoin="round" stroke-miterlimit="10" stroke-width=".5" d="M467.0586 373.45703l1.36327 2.03906"/></g><path fill="none" stroke="#000" stroke-linecap="round" stroke-linejoin="round" stroke-miterlimit="10" stroke-width=".5" d="M466.03906 373.5586l.6836 1.01952"/><g clip-path="url(#at)"><path fill="none" stroke="#000" stroke-linecap="round" stroke-linejoin="round" stroke-miterlimit="10" stroke-width=".5" d="M145.65234 363.59375l-3.30468-6.19922"/></g><path fill="none" stroke="#000" stroke-linecap="round" stroke-linejoin="round" stroke-miterlimit="10" stroke-width=".5" d="M145.17188 362.6914l-.6836 1.01954m16.1836-2.17578l-6.71094-2.08204m6.71094 2.08204l.45703 2.41015m12.97656-3.96484l-6.95313 1.02344m6.95313-1.02344l1.45703 1.97656m11.16016-3.61719l-5.5547 4.3047m5.5547-4.3047l2.23828 1.00782m-3.04688-.37891l1.11719.5m13.0625-1.05469l-5.66797 4.15625m5.66797-4.15625l2.21094 1.0664m-3.03516-.46093l1.10547.53516m13.66797.3789l-6.9375 1.1172m6.9375-1.1172l1.48437 1.95704m-2.49218-1.79297l.74218.97656m13.53125-1.39844l-6.83593 1.63672m6.83593-1.63672l1.625 1.83594m-2.62109-1.59766l1.625 1.83594m12.7461-.76172l-6.95704-.99219m6.95703.9922l.83594 2.30858m-1.84766-2.45312l.83204 2.3086m13.52734-2.51954l-7.02344-.27734m7.02344.27734l1.0664 2.21094m12.25-2.22656l-7.02343-.2461m7.02344.2461l1.07422 2.20703m-2.09766-2.24219l.53906 1.10156m13.71094-.40234l-6.84766-1.57813m6.84766 1.57813l.63672 2.3711m-1.63282-2.60157l.63672 2.3711m13.75782-2.70313l-7.01172-.45313m7.01172.45313l1.0078 2.23828m-2.02734-2.30469l.50391 1.1211m13.80469-1.76563l-6.96094.96875m6.96094-.96875l1.4375 1.98828m-2.44922-1.84765l.71875.9961m13.59375-1.21876l-6.9336 1.13281m6.9336-1.1328l1.48828 1.95312m-2.4961-1.78907l.7422.97657m13.61328-.91016l-6.9961.67578m6.9961-.67578l1.35156 2.04688m-2.3711-1.94922l.67579 1.02343m13.65234-.41406l-6.98828-.73828m6.98828.73828l.91797 2.27735m-1.9336-2.38672l.45704 1.14062m13.89062-1.53906l-7.01953.27734m7.01953-.27734l1.23828 2.11719m-2.25781-2.07813l.61719 1.0586m13.66406-1.58594l-6.91406 1.25m6.91406-1.25l1.51953 1.92969m-2.52344-1.7461l.75782.96485m13.37109-1.8125l-6.53516 2.58203m6.53516-2.58204l1.86719 1.58985m-2.8164-1.21485l1.86718 1.58985m12.42187-1.91016l-6.58203 2.46875m6.58203-2.46875l1.83985 1.625m-2.79688-1.26562l.91797.8125m13.52734-.52344l-6.92968 1.17188m6.92968-1.17188l1.4961 1.94531m-2.5039-1.77344l.75.97266m13.5039-1.46094l-6.78906 1.8086m6.78906-1.8086l1.67187 1.79688m-2.66015-1.53516l.83593.89844m13.46094-1.1875l-6.77734 1.86328m6.77734-1.86328l1.6836 1.78125m-2.67188-1.51172l.84375.89063m13.53516-.82032l-6.92578 1.1836m6.92578-1.1836l1.5 1.94141m-2.50782-1.76953l.75.96875m13.60547-.90235l-6.99218.70704"/><g clip-path="url(#au)"><path fill="none" stroke="#000" stroke-linecap="round" stroke-linejoin="round" stroke-miterlimit="10" stroke-width=".5" d="M467.0586 360.14063l1.36327 2.03906"/></g><path fill="none" stroke="#000" stroke-linecap="round" stroke-linejoin="round" stroke-miterlimit="10" stroke-width=".5" d="M466.03906 360.24219l.6836 1.01953"/><g clip-path="url(#av)"><path fill="none" stroke="#000" stroke-linecap="round" stroke-linejoin="round" stroke-miterlimit="10" stroke-width=".5" d="M144.39844 350.66797l-.79688-6.98047"/></g><g clip-path="url(#aw)"><path fill="none" stroke="#000" stroke-linecap="round" stroke-linejoin="round" stroke-miterlimit="10" stroke-width=".5" d="M144.28125 349.65234l-1.00781.69532"/></g><path fill="none" stroke="#000" stroke-linecap="round" stroke-linejoin="round" stroke-miterlimit="10" stroke-width=".5" d="M157.5586 350.6836l-.48829-7.01173m.41797 5.9922l-1.04297.64843m17.125-1.21094l-5.8789-3.84765m5.8789 3.84765l-.22265 2.44531m14.10937-4.5078l-7.02344.27734m7.02344-.27735l1.23438 2.11719m11.90234-3.09375l-6.66406 2.23047m6.66406-2.23047l1.77734 1.6875m11.71485-.70703l-7.02344.26953m7.02344-.26953l1.23437 2.1211m12.08203-2.05079l-7.02343.1289m7.02343-.1289l1.19141 2.14453m-2.21094-2.125l.59375 1.07031m13.71875-.625l-6.98047-.80078m6.98047.80079l.89844 2.28125m-1.91406-2.39844l.44922 1.14062m13.90625-1.42187h-7.02735m7.02735 0l1.15234 2.16406m12.1211-2.6875l-6.94923 1.04297m6.94922-1.04297l1.46094 1.96875m-2.46875-1.8164l.73047.98437m13.6289-.80469l-7.01952.3789m7.01953-.3789l1.26562 2.10156m-2.28906-2.04687l1.26953 2.10156m13.07422-2.0039l-7.02735.07421m7.02735-.07421l1.17187 2.15625m-2.1953-2.14454l.58593 1.07813m13.73437-.69922l-6.99218-.70313m6.99218.70313l.9297 2.26953m-1.94923-2.375l.46485 1.13672m13.86328-.96484l-6.97656-.83985m6.97656.83985l.88281 2.28906m12.15625-4.125l-6.42969 2.83203m6.42969-2.83203l1.92969 1.51562m-2.86328-1.10546l.96484.76171m13.19922-1.35546l-6.25781 3.19921m6.2578-3.19921l2.01173 1.40234m-2.92188-.9375l1.0039.70312m13.41017-.71875l-6.63672 2.30079m6.63671-2.30079l1.80079 1.67188m-2.76563-1.33594l.89844.83594m13.5039-.72656l-6.8828 1.41406m6.8828-1.41406l1.56641 1.88671m-2.5664-1.68359l.78125.94531m13.39843-1.63671l-6.60937 2.38671m6.60937-2.38671l1.82031 1.64843m-2.78125-1.30078l.91016.82422m13.33985-1.2461l-6.5586 2.53516m6.5586-2.53515l1.85156 1.60546m-2.8086-1.23437l.9297.80078m13.48437-.69922l-6.84375 1.59375m6.84375-1.59375l1.61328 1.84766m-2.60938-1.61719l.8086.92578m13.4375-1.39844l-6.71485 2.07422m6.71485-2.07421l1.74218 1.73046m-2.71875-1.42968l.8711.86718m13.48047-.9453l-6.83204 1.6289m6.83204-1.6289l1.625 1.83983m-2.6172-1.60156l.8125.91797m13.51173-1.08594l-6.86719 1.4922m6.86719-1.4922l1.58594 1.8711m-2.58594-1.65625l1.58594 1.8711m12.70312-2.19923l-6.8164 1.71485"/><g clip-path="url(#ax)"><path fill="none" stroke="#000" stroke-linecap="round" stroke-linejoin="round" stroke-miterlimit="10" stroke-width=".5" d="M466.96875 346.32031l1.64453 1.82031"/></g><path fill="none" stroke="#000" stroke-linecap="round" stroke-linejoin="round" stroke-miterlimit="10" stroke-width=".5" d="M465.97656 346.57031l1.64453 1.82031"/><g clip-path="url(#ay)"><path fill="none" stroke="#000" stroke-linecap="round" stroke-linejoin="round" stroke-miterlimit="10" stroke-width=".5" d="M143.99219 337.375l.01562-7.02734"/></g><g clip-path="url(#az)"><path fill="none" stroke="#000" stroke-linecap="round" stroke-linejoin="round" stroke-miterlimit="10" stroke-width=".5" d="M143.99219 336.35547l-1.08203.57031"/></g><path fill="none" stroke="#000" stroke-linecap="round" stroke-linejoin="round" stroke-miterlimit="10" stroke-width=".5" d="M157.91797 337.32422l-1.20703-6.92188m1.03125 5.91407l-.96875.7539m11.84375-.32812l4.02344-5.75781m14.6289 4.01953l-6.64844-2.28125m5.6797 1.94921l.1953 1.21094m14.27735-2.08203l-7.02735.125m7.02735-.125l1.1875 2.14844m12.01953-1.22656l-6.8125-1.71875m6.8125 1.71875l.58984 2.3828m12.54297-1.84374l-6.44531-2.80078m6.44531 2.80078l.1914 2.44922m-1.1289-2.85547l.09766 1.22265m13.79297-.17578l-5.72266-4.07812m5.72266 4.07812l-.31641 2.4297m-.51563-3.02345l-.15625 1.21485m13.94532-.19531l-5.00781-4.9297m5.0078 4.9297l-.69921 2.35156m14.27734-2.65235l-5.53125-4.33203m4.72656 3.70313l-.21484 1.20703m14.99219-1.94922l-6.84766-1.58594m6.84766 1.58594l.63281 2.3711m12.75781-3.5l-6.99609.67187m6.9961-.67188l1.35156 2.04297m11.9414-1.1914l-6.95312-1.03125m6.95312 1.03125l.82032 2.3125m12.48828-2.28516l-6.94141-1.08594m6.9414 1.08594l.8047 2.32031m12.55078-3.00781l-7.01954.28906m7.01954-.28906l1.23828 2.11719m12.0703-2.21094l-7.01171.47656m7.01172-.47656l1.29687 2.08594m11.78516-3.1289l-6.54297 2.5625m5.58985-2.19142l.93359.79688m12.90625-1.94922l-5.6875 4.125m5.6875-4.125l2.20703 1.07813m11.77344.78125l-7.01563.40625m7.01563-.40625l1.27344 2.09765m11.91796-2.84375l-6.76953 1.89844m6.76953-1.89844l1.69141 1.77735m11.61719-1.80079l-6.7539 1.94141m6.7539-1.9414l1.70312 1.76562m11.38282-2.35156l-6.29688 3.11719m6.29688-3.1172l1.99218 1.4297m-2.91015-.97657l.99609.71485m13.32813-.96485l-6.48047 2.71094m6.48047-2.71094l1.89843 1.55469m-2.83984-1.16016l.94922.77735m13.54297-.32422l-6.95313 1.01562m6.95313-1.01562l1.45312 1.97656m-2.46484-1.82812l.72656.98828m13.5586-1.375l-6.8672 1.49219"/><g clip-path="url(#aA)"><path fill="none" stroke="#000" stroke-linecap="round" stroke-linejoin="round" stroke-miterlimit="10" stroke-width=".5" d="M466.9961 333.11719l1.58593 1.8711"/></g><path fill="none" stroke="#000" stroke-linecap="round" stroke-linejoin="round" stroke-miterlimit="10" stroke-width=".5" d="M465.9961 333.33203l.79296.9375"/><g clip-path="url(#aB)"><path fill="none" stroke="#000" stroke-linecap="round" stroke-linejoin="round" stroke-miterlimit="10" stroke-width=".5" d="M144.22266 324.05469l-.44532-7.01172"/></g><g clip-path="url(#aC)"><path fill="none" stroke="#000" stroke-linecap="round" stroke-linejoin="round" stroke-miterlimit="10" stroke-width=".5" d="M144.22266 324.05469l-2.08985 1.28515"/></g><path fill="none" stroke="#000" stroke-linecap="round" stroke-linejoin="round" stroke-miterlimit="10" stroke-width=".5" d="M157.80469 324.02734l-.98047-6.95703m.98047 6.95703l-1.98047 1.44141m13.83984-1.54297l1.92969-6.75781m-1.92969 6.75781l-2.39844.51563m15.57032-.5586l2.21875-6.66797m-2.21875 6.66797l-2.42188.40625m17.55078-.29687l-1.40625-6.88672m1.19922 5.88281l-.94531.78125m17.21484-2.57031l-6.90625-1.30469m5.90235 1.11719l.36328 1.17187m13.96484-1.03515l-6.92187-1.20313m6.92187 1.20313l.76563 2.33203m12.53906-2.26563l-6.90234-1.33203m6.90234 1.33203l.71875 2.34375m12.39844-1.68359l-6.50781-2.65625m6.5078 2.65625l.25 2.4414m12.66798-1.71874L260.98047 318.5m5.71094 4.09766l-.32813 2.42968m13.44922-2.18359l-5.32422-4.58984m5.32422 4.58984l-.54297 2.39063m13.96875-2.52735l-5.54297-4.32031m4.73438 3.6914l-.21094 1.21094m14.84766-1.4961l-6.57032-2.48827m5.61329 2.125l.15625 1.21875m14.15625-.97266l-6.65235-2.2539m5.6875 1.92578l.19531 1.21093m14.13672-1.04687l-6.75781-1.92969m5.77344 1.64844l.25781 1.20312m14.125-1.27343l-6.92187-1.22657m17.78125-2.7539l-2.01172 6.73437m1.71875-5.7539l1.20312-.2422m12.66016-.64843l-2.51953 6.5586m2.15234-5.60547l1.21484-.14844m14.1875 4.33594l-5.96093-3.72266m19.79297 2.19531l-6.9961-.66797m19.91406-1.3164l-6.20312 3.29687m5.30078-2.8164l1.01953.6875m13.24219-1.08204l-6.29297 3.12891m5.3789-2.67578l.9961.71484m12.45313-2.20312l-4.73047 5.19531m4.73047-5.19531l2.3789.60547m11.91797.92578l-6.69531 2.13672m6.69531-2.13672l1.75781 1.71094m-2.73047-1.40235l.875.85938m13.45313-1.03125l-6.77734 1.85937"/><g clip-path="url(#aD)"><path fill="none" stroke="#000" stroke-linecap="round" stroke-linejoin="round" stroke-miterlimit="10" stroke-width=".5" d="M466.94922 319.61719l1.6836 1.78515"/></g><path fill="none" stroke="#000" stroke-linecap="round" stroke-linejoin="round" stroke-miterlimit="10" stroke-width=".5" d="M465.96484 319.88672l.83985.89453"/><path fill="#00f" fill-rule="evenodd" d="M277.28125 463.21094h8.61719V453.0625h-8.61719v10.14844"/><path fill="azure" fill-rule="evenodd" d="M279.11328 454.89844h.83203v2.82031h3.28516v-2.82031h.83594v6.48047h-.83594v-2.91797h-3.28516v2.91797h-.83203v-6.48047"/><path fill="#00f" fill-rule="evenodd" d="M383.80078 436.57813h8.61719v-10.14454h-8.61719v10.14454"/><path fill="azure" fill-rule="evenodd" d="M385.63281 428.26563h.83203v2.82421h3.28907v-2.82421h.83203v6.48046h-.83203v-2.91406h-3.28907v2.91406h-.83203v-6.48046"/><path fill="#ff3030" fill-rule="evenodd" d="M375.61719 418.82813h7.69531v-10.14844h-7.69531v10.14844"/><path fill="azure" fill-rule="evenodd" d="M377.44922 410.51172h.83594v5.74219h3.1914v.73828h-4.02734v-6.48047"/><path fill="#00f" fill-rule="evenodd" d="M232.89453 414.38672h8.6211v-10.14453h-8.6211v10.14453"/><path fill="azure" fill-rule="evenodd" d="M234.73047 406.07422h.83203v2.82422h3.28516v-2.82422h.83593v6.48047h-.83593v-2.91406h-3.28516v2.91406h-.83203v-6.48047"/><path fill="#ff3030" fill-rule="evenodd" d="M291.28906 405.51172h7.6914v-10.14453h-7.6914v10.14453"/><path fill="azure" fill-rule="evenodd" d="M293.1211 397.19922h.83593v5.73828h3.1914v.74219h-4.02734v-6.48047"/><path fill="#ff3030" fill-rule="evenodd" d="M198.08203 374.4414h7.69531v-10.14452h-7.6953v10.14453"/><path fill="azure" fill-rule="evenodd" d="M199.91797 366.1289h.83203v5.7422h3.19531v.73827h-4.02734v-6.48046"/><path fill="#ffffe0" fill-rule="evenodd" d="M390.5664 411.78125h22.1797v-10.19531h-22.1797v10.19531"/><path fill-rule="evenodd" d="M394.0664 403.42188h.50782v6.29296h-.78516v-4.48828h-1.39062v-.55469l.5586-.0664.2539-.05469.23047-.08984.20312-.14063.17188-.21094.14453-.29296.10547-.39454m4.8125 0l.23046.01954.21875.05468.20704.08985.1953.1211.1836.14843.17188.17578.30469.41797.24218.4961.17969.54687.10938.57812.03906.58985-.03906.59375-.10938.58593-.17969.55079-.24219.5039-.30468.42578-.17188.17969-.1836.15625-.1953.1211-.20704.09374-.21875.0547-.23046.01952-.23047-.01953-.21875-.05469-.20703-.09375-.19532-.12109-.18359-.15625-.17188-.17969-.30468-.42578-.24219-.5039-.17969-.55079-.10937-.58593-.03906-.59375h.83203l.03125.5625.07812.5078.1289.44142.16016.375.19141.30078.21094.22265.22265.13672.22657.04688.22656-.04688.22265-.13672.21094-.22265.1914-.30079.16017-.375.1289-.4414.08203-.50781.02735-.5625-.02735-.5625-.08203-.5-.1289-.4336-.16016-.36719-.1914-.29296-.21094-.21094-.22266-.13281-.22656-.04688-.22657.04688-.22265.1328-.21094.21095-.1914.29296-.16016.3672-.1289.43359-.07813.5-.03125.5625h-.83204l.03907-.58985.10937-.57812.17969-.54688.24219-.4961.30469-.41796.17187-.17578.1836-.14844.1953-.1211.20704-.08984.21875-.05468.23047-.01954m4.95312 0l.23047.01954.21875.05468.20703.08985.19531.1211.1836.14843.17187.17578.30078.41797.2461.4961.17969.54687.10937.57812.03906.58985-.03906.59375-.10938.58593-.17968.55079-.2461.5039-.30078.42578-.17187.17969-.1836.15625-.1953.1211-.20704.09374-.21875.0547-.23047.01952-.23047-.01953-.21875-.05469-.20703-.09375-.19531-.12109-.1875-.15625-.16797-.17969-.30469-.42578-.24219-.5039-.17968-.55079-.11328-.58593-.03516-.59375h.83203l.02735.5625.08203.5078.1289.44142.16016.375.1914.30078.21094.22265.22266.13672.22656.04688.22656-.04688.22266-.13672.21094-.22265.1914-.30079.16016-.375.125-.4414.08203-.50781.03125-.5625-.03125-.5625-.08203-.5-.125-.4336-.16016-.36719-.1914-.29296-.21094-.21094-.22266-.13281-.22656-.04688-.22656.04688-.22266.1328-.21094.21095-.1914.29296-.16016.3672-.1289.43359-.08204.5-.02734.5625H401.75l.03516-.58985.11328-.57812.17969-.54688.24218-.4961.30469-.41796.16797-.17578.1875-.14844.19531-.1211.20703-.08984.21875-.05468.23047-.01954m4.95313 0l.38671.02735.35938.08203.32031.13672.28125.1875.23047.23828.17188.28516.10937.33203.03906.375-.02343.27344-.0547.23828-.08983.19921-.11329.16797-.1289.14454-.13672.125-.28906.1953.23437.1172.20703.14843.17969.17188.15625.1914.1211.21485.09374.23047.0547.24218.01952.25782-.03515.30859-.10547.32422-.17188.32812-.23828.3047-.30469.26952-.375.21485-.21093.08203-.23047.0586-.24219.03905-.26172.01172-.26172-.01172-.23828-.03906-.22656-.0586-.20313-.08202-.35937-.21485-.28906-.26953-.22266-.30469-.16016-.32812-.08984-.32422-.03125-.3086h.83203l.02735.25391.07812.23438.1211.21094.16015.18359.19531.15234.21875.11719.23828.07031.25782.02735.2539-.02735.24219-.07031.21875-.11719.1914-.15234.16016-.1836.125-.21093.07813-.23438.02734-.2539-.02734-.25391-.07813-.23438-.125-.21484-.16015-.1836-.19141-.15234-.21875-.11328-.24219-.07422-.2539-.02343-.25782.02343-.23828.07422-.21875.11328-.19531.15235-.16016.1836-.12109.21483-.07813.23438-.02734.2539h-.83203l.01953-.2539.05469-.24219.08984-.22265.125-.20704.15235-.1914.18359-.17188.20703-.15234.23047-.13281-.28516-.19531-.14062-.125-.1289-.14454-.11329-.16796-.08594-.19922-.05859-.23829-.01953-.27343h.78515l.02344.21484.0664.1914.10548.16798.13672.13671.16406.11329.1875.08203.20703.05078.22266.01562.21875-.01562.20703-.05078.1875-.08203.16797-.11329.13671-.13671.10157-.16797.0664-.1914.02344-.21485-.02344-.21485-.0664-.1914-.10156-.16406-.13672-.14063-.16797-.10938-.1875-.08203-.20703-.05078-.21875-.01953-.22266.01953-.20703.05078-.1875.08204-.16406.10937-.13672.14063-.10547.16406-.0664.1914-.02344.21485h-.78516l.03906-.375.10938-.33203.17187-.28516.23047-.23828.27734-.1875.32422-.13672.35938-.08203.38672-.02735"/><path fill="#ffffe0" fill-rule="evenodd" d="M321.5625 348.04297h22.17969v-10.1914H321.5625v10.1914"/><path fill-rule="evenodd" d="M325.0625 339.6836h.50781v6.29687h-.78515v-4.49219h-1.39063v-.55469l.5586-.0625.2539-.05468.23047-.08985.20313-.14062.17187-.21094.14453-.29297.10547-.39844m4.8125 0l.23047.01954.21875.05468.20703.08985.19531.12109.1836.15234.17187.17579.30469.41796.24219.4922.17968.54687.10938.57812.03906.59375-.03906.59375-.10938.58203-.17968.55469-.2422.5-.30468.42969-.17187.17969-.1836.15234-.19531.125-.20703.08984-.21875.0586-.23047.01953-.23047-.01953-.21875-.0586-.20703-.08984-.19531-.125-.1836-.15235-.17187-.17968-.30469-.42969-.24219-.5-.17968-.55469-.10938-.58203-.03906-.59375h.83203l.03125.5625.07813.5039.1289.44532.16016.375.1914.30078.21094.21875.22266.13672.22656.04688.22656-.04688.22266-.13672.21094-.21875.1914-.30078.16016-.375.1289-.44531.08204-.5039.02734-.5625-.02734-.5625-.08204-.5-.1289-.4336-.16016-.36719-.1914-.29297-.21094-.21484-.22266-.1289-.22656-.04688-.22656.04687-.22266.1289-.21094.21485-.1914.29297-.16016.36719-.1289.4336-.07813.5-.03125.5625h-.83203l.03906-.59376.10938-.57812.17968-.54688.2422-.49219.30468-.41796.17187-.17579.1836-.15234.19531-.1211.20703-.08984.21875-.05469.23047-.01953m5.08984 0h.51172v6.29688h-.78906v-4.49219h-1.38672v-.55469l.5586-.0625.2539-.05468.22656-.08985.20704-.14062.17187-.21094.14063-.29297.10546-.39844m2.82422 2.17579h.78906l.01954-.31641.05859-.28516.09766-.2539.14062-.21485.1836-.17187.22265-.1289.26563-.08204.30468-.02734.23829.02343.22656.0625.20312.10157.17969.13671.14844.17188.11328.20703.07031.23438.02735.26562-.02344.26953-.0664.22266-.10938.19531-.15625.16797-.19922.16406-.2461.16406-.63671.39063-.53516.3125-.4375.3164-.34766.32423-.26562.33593-.1875.35156-.125.3711-.07031.39062-.01954.42188h4.21094v-.74219h-3.33203l.08203-.28515.11328-.23438.14844-.20313.1875-.17968.23047-.17188.27734-.17578.71875-.41406.41406-.20703.34766-.23047.28125-.25.21875-.26953.16406-.27735.10938-.28515.0664-.28516.01954-.28125-.04297-.38281-.1211-.34766-.1875-.3086-.25-.26171-.30468-.21094-.34375-.16015-.37891-.09766-.41016-.03516-.43359.03516-.39844.09766-.35547.16796-.30468.23438-.2461.30078-.1875.375-.11328.44531-.04297.51954"/><path fill="#ffffe0" fill-rule="evenodd" d="M197.79297 339.16797h22.17969v-10.1914h-22.1797v10.1914"/><path fill-rule="evenodd" d="M201.29297 330.8086h.50781v6.29296h-.78516v-4.48828H199.625v-.55469l.5625-.0664.25-.05469.23047-.08594.20312-.14453.17578-.20703.14063-.29688.10547-.39453m4.8125 0l.23047.01954.21875.05468.20703.08985.19922.12109.1836.14844.17187.17578.30078.42187.24219.4922.17968.54687.11328.57812.03907.58985-.03907.59375-.11328.58593-.17969.55469-.24218.5-.30078.42969-.17188.17969-.1836.15234-.19921.125-.20703.08984-.21875.0586-.23047.01953-.22656-.01953-.21875-.0586-.21094-.08984-.19531-.125-.1836-.15235-.17187-.17968-.30078-.42969-.2461-.5-.17969-.55469-.10937-.58594-.03906-.59375h.83203l.03125.56641.08203.5039.125.44141.16406.375.1875.30079.21094.22265.22266.13672.22656.04688.22656-.04688.22266-.13672.21094-.22265.1914-.30079.16406-.375.125-.4414.08203-.5039.02735-.56642-.02734-.55859-.08204-.5-.125-.4375-.16406-.36719-.1914-.28906-.21094-.21484-.22266-.13281-.22656-.04297-.22656.04296-.22266.13282-.21094.21484-.1875.28906-.16406.3672-.125.4375-.08203.5-.03125.55858h-.83203l.03906-.58984.10938-.57812.17968-.54688.2461-.49219.30078-.42187.17187-.17578.1836-.14844.1953-.1211.21095-.08984.21875-.05469.22656-.01953m5.09375 0h.50781v6.29297h-.78516v-4.48828h-1.39062v-.55469l.5586-.0664.2539-.05469.23047-.08594.20312-.14453.17188-.20703.14453-.29688.10547-.39453m2.82422 2.17579h.78515l.01953-.31641.0586-.28516.10156-.2539.13672-.21485.1836-.17578.22265-.1289.26563-.07813.30859-.02734.23828.01953.22266.0625.20312.10156.17969.14063.14844.17187.11328.20703.07031.23438.02734.26562-.02343.26953-.06641.22266-.10938.1914-.15625.17188-.19921.16406-.2461.16406-.63281.39063-.53906.3125-.4375.3164-.34766.32423-.26172.33593-.1914.35156-.125.3672-.07032.39452-.01953.41797h4.21094v-.73828h-3.33203l.08203-.28515.11328-.23829.14844-.19921.1875-.1797.23047-.17187.28125-.17578.71484-.41797.41797-.20312.34375-.23047.28125-.2539.21875-.26563.16406-.27735.11328-.28515.0625-.28516.01953-.28125-.04296-.38281-.1172-.34766-.1914-.3086-.25-.26171-.30078-.21484-.34766-.15625-.3789-.09766-.40625-.03516-.4375.03125-.39844.10157-.35156.16406-.30469.23437-.25.3047-.1836.375-.11718.4453-.03906.51954"/></g></defs><use xlink:href="#aE"/></svg>