<svg xmlns="http://www.w3.org/2000/svg" role="img" xmlns:xlink="http://www.w3.org/1999/xlink" viewBox="142.45 309.95 326.84 171.84"><defs><clipPath id="a"><path d="M144 441h1v39.32813h-1zm0 0"/></clipPath><clipPath id="b"><path d="M144 311.67188h1V321h-1zm0 0"/></clipPath><clipPath id="c"><path d="M144 311.67188h324v168.65625H144zm0 0"/></clipPath><clipPath id="d"><path d="M144 311.67188h8V321h-8zm0 0"/></clipPath><clipPath id="e"><path d="M382 456h16v24.32813h-16zm0 0"/></clipPath><clipPath id="f"><path d="M385 477h11v3.32813h-11zm0 0"/></clipPath><clipPath id="g"><path d="M467 311.67188h1v168.65625h-1zm0 0"/></clipPath><clipPath id="h"><path d="M144 480h4v.32813h-4zm0 0"/></clipPath><clipPath id="i"><path d="M147 480h2v.32813h-2zm0 0"/></clipPath><clipPath id="j"><path d="M153 480h9v.32813h-9zm0 0"/></clipPath><clipPath id="k"><path d="M160 480h3v.32813h-3zm0 0"/></clipPath><clipPath id="l"><path d="M166 480h9v.32813h-9zm0 0"/></clipPath><clipPath id="m"><path d="M173 480h3v.32813h-3zm0 0"/></clipPath><clipPath id="n"><path d="M180 479h8v1.32813h-8zm0 0"/></clipPath><clipPath id="o"><path d="M187 480h2v.32813h-2zm0 0"/></clipPath><clipPath id="p"><path d="M193 479h8v1.32813h-8zm0 0"/></clipPath><clipPath id="q"><path d="M200 480h2v.32813h-2zm0 0"/></clipPath><clipPath id="r"><path d="M206 479h9v1.32813h-9zm0 0"/></clipPath><clipPath id="s"><path d="M213 480h3v.32813h-3zm0 0"/></clipPath><clipPath id="t"><path d="M220 479h8v1.32813h-8zm0 0"/></clipPath><clipPath id="u"><path d="M227 480h2v.32813h-2zm0 0"/></clipPath><clipPath id="v"><path d="M233 479h8v1.32813h-8zm0 0"/></clipPath><clipPath id="w"><path d="M240 480h2v.32813h-2zm0 0"/></clipPath><clipPath id="x"><path d="M239 480h2v.32813h-2zm0 0"/></clipPath><clipPath id="y"><path d="M246 479h9v1.32813h-9zm0 0"/></clipPath><clipPath id="z"><path d="M253 480h2v.32813h-2zm0 0"/></clipPath><clipPath id="A"><path d="M252 480h2v.32813h-2zm0 0"/></clipPath><clipPath id="B"><path d="M260 479h8v1.32813h-8zm0 0"/></clipPath><clipPath id="C"><path d="M267 480h2v.32813h-2zm0 0"/></clipPath><clipPath id="D"><path d="M273 479h8v1.32813h-8zm0 0"/></clipPath><clipPath id="E"><path d="M280 480h2v.32813h-2zm0 0"/></clipPath><clipPath id="F"><path d="M286 479h9v1.32813h-9zm0 0"/></clipPath><clipPath id="G"><path d="M293 479h3v1.32813h-3zm0 0"/></clipPath><clipPath id="H"><path d="M300 479h8v1.32813h-8zm0 0"/></clipPath><clipPath id="I"><path d="M307 479h2v1.32813h-2zm0 0"/></clipPath><clipPath id="J"><path d="M313 479h8v1.32813h-8zm0 0"/></clipPath><clipPath id="K"><path d="M319 479h2v1.32813h-2zm0 0"/></clipPath><clipPath id="L"><path d="M326 479h9v1.32813h-9zm0 0"/></clipPath><clipPath id="M"><path d="M332 480h2v.32813h-2zm0 0"/></clipPath><clipPath id="N"><path d="M340 479h8v1.32813h-8zm0 0"/></clipPath><clipPath id="O"><path d="M345 480h2v.32813h-2zm0 0"/></clipPath><clipPath id="P"><path d="M353 478h8v2.32813h-8zm0 0"/></clipPath><clipPath id="Q"><path d="M367 478h7v2.32813h-7zm0 0"/></clipPath><clipPath id="R"><path d="M380 477h7v3.32813h-7zm0 0"/></clipPath><clipPath id="S"><path d="M393 478h8v2.32813h-8zm0 0"/></clipPath><clipPath id="T"><path d="M391 479h3v1.32813h-3zm0 0"/></clipPath><clipPath id="U"><path d="M406 479h8v1.32813h-8zm0 0"/></clipPath><clipPath id="V"><path d="M406 479h3v1.32813h-3zm0 0"/></clipPath><clipPath id="W"><path d="M420 477h7v3.32813h-7zm0 0"/></clipPath><clipPath id="X"><path d="M433 478h8v2.32813h-8zm0 0"/></clipPath><clipPath id="Y"><path d="M438 478h3v2.32813h-3zm0 0"/></clipPath><clipPath id="Z"><path d="M446 479h8v1.32813h-8zm0 0"/></clipPath><clipPath id="aa"><path d="M459 479h9v1.32813h-9zm0 0"/></clipPath><clipPath id="ab"><path d="M144 466h4v2h-4zm0 0"/></clipPath><clipPath id="ac"><path d="M144 453h4v2h-4zm0 0"/></clipPath><clipPath id="ad"><path d="M144 439h4v3h-4zm0 0"/></clipPath><clipPath id="ae"><path d="M144 425h4v4h-4zm0 0"/></clipPath><clipPath id="af"><path d="M465 424h3v2h-3zm0 0"/></clipPath><clipPath id="ag"><path d="M144 412h4v4h-4zm0 0"/></clipPath><clipPath id="ah"><path d="M465 410h3v2h-3zm0 0"/></clipPath><clipPath id="ai"><path d="M144 397h3v6h-3zm0 0"/></clipPath><clipPath id="aj"><path d="M466 398h2v2h-2zm0 0"/></clipPath><clipPath id="ak"><path d="M144 384h3v6h-3zm0 0"/></clipPath><clipPath id="al"><path d="M466 385h2v3h-2zm0 0"/></clipPath><clipPath id="am"><path d="M144 370h3v7h-3zm0 0"/></clipPath><clipPath id="an"><path d="M465 371h3v2h-3zm0 0"/></clipPath><clipPath id="ao"><path d="M144 357h2v7h-2zm0 0"/></clipPath><clipPath id="ap"><path d="M144 363h2v3h-2zm0 0"/></clipPath><clipPath id="aq"><path d="M466 358h2v3h-2zm0 0"/></clipPath><clipPath id="ar"><path d="M144 343h2v8h-2zm0 0"/></clipPath><clipPath id="as"><path d="M144 350h2v3h-2zm0 0"/></clipPath><clipPath id="at"><path d="M466 345h2v3h-2zm0 0"/></clipPath><clipPath id="au"><path d="M465 345h3v3h-3zm0 0"/></clipPath><clipPath id="av"><path d="M144 330h3v7h-3zm0 0"/></clipPath><clipPath id="aw"><path d="M466 331h2v3h-2zm0 0"/></clipPath><clipPath id="ax"><path d="M465 332h3v3h-3zm0 0"/></clipPath><clipPath id="ay"><path d="M144 317h2v7h-2zm0 0"/></clipPath><clipPath id="az"><path d="M466 318h2v2h-2zm0 0"/></clipPath><clipPath id="aA"><path d="M465 318h3v3h-3zm0 0"/></clipPath><g id="aB" clip-path="url(#clip1)"><path fill="#fff" fill-opacity="0" fill-rule="evenodd" d="M0 0h1000v1000H0zm0 0"/><path fill="#d3d3d3" fill-opacity="0" fill-rule="evenodd" d="M162.15234 355.86719l-.23437.29297.0586.23437.11718.17188.17578.23437.29297.34766.11328.0586.11719-.17188.0586-.23438.17577-.17578.46485-.17578h.69922l.23437.29297.28906.8164.0586.17579.17578.23046.35156.23438.69922.69922.17188.17578.23437.34765.23438.41016.28906.58203.41015.46485.23047.23437.23438.17578.11719.23047.17578.29297.17187 1.16406v.23438l.0586.28906.05859.11719.11719.11719.34765.41015.11719.17188.17578.17578.17578.23437.11719.17188.17188.35156.05859.23438.23437.40625.23438-.0586-.17578.17578-.0586.92969h-.58203l-.23437-.11328-.34766.11328-.11719.11719-.05859.29297-.0586.17578-.11718.17187-.46484.29297-.0586.23438-.0586.11328v.64453l.0586.17187v.41016l.0586.0586v.40624l.05859.40625.11719.17579.05859.05859.23047.64062-.0586.29297v.69922l-.05859.58203v.23438l-.0586.23047-.05468.35156v1.92187l.05469.1172h.42578l-.36719.11718-.02344.35156.89063 1.16797 1.74219.53906 1.33984.35938v.53906l.08984.8086.53516.71484 1.51953.26953.89063-.08594.08984 1.16406.53516.1797 1.16015-.1797 2.05469-.98437 1.16016-.36328 1.8789-.17578 1.69531-.1797-.17968.71876-1.51563.08594-1.25.08984-.80469.26953-1.07421.8086.26953.71875.53515.89843-.17968.625-.26563.8086.26563 1.07812.625.89844.80468.17969 1.25-.1797-.26562.72267.09766.5039.05468.29297v.17188l.0586.29296v.40625l.17578.1172.35156.11718h.40625l.29297-.17578.11328-.11719.0586-.11719.11718-.23047.0586-.17578.35156-.46484.23047-.17578.17578-.0586.17578.0586.0586.17578.11718.98828.05469.46875.0586.17188.11718.23437.17578.0586.8164.05859h.28907l.11719.23437.05859.40625.0586.35156v1.10547l.11718.29297.11719.34766.28906.69922.17578.35156.58203.7539.35157.17579.17187.0586.46875.23437.64063.46484.34765.23438.29297.17578.29297.05468.23047.0625.8164.34766.29297.17578.11328.17188.35157.35156.11719.17578.52343.64063v.28906l.0586.35156v.34766l.05859.35156.0586.28906.11718.0586.17188.05859h.17578l.58203.23437.17578.1172.17578.28905.17578.23438.11328.23437.29297.23047.11719.11719v.41016l.0586.05468.28906.23438.23437.11719.0586.11718.11718.17188.0586.11719.23047.23437.05859.17578.23437.0586.1172.05859-.1172.11328-.05859.11719v.11719l-.11719.29296-.11719.28907v.58203l.17579.11719.11718.05859.0586.11719.11719.11719.11328.05859.17578.34765.0586.35157.05858.40625v.17578l-.05859.17578-.11719.69922v.17187l.1172.17579.29296.29296h.40625l.17578.1172.11719.17187.11719.29296v.23438h-.52735l-.23047-.23438h-.23437l-.17578.0586-.0586.69922.0586.34765.11719.17579.17578.41015.11718.23047.28907.46875.17578.05469h.52344l.23437.0586.75781.64062.0586.29296v.23438l.05859.0586.23047.34765v.35156l-.11719.17188v.29297l.29297.28906.29297.17578.17187.0586.29297.17577.29297.1172.58203.40624.28906.23438.29297.17578.21875.16015.01563.01172.23047.17579.64062.52343.17578.23438.1172.17578.17577.17578.11328.17188v.64062l.1172.17578.46874.11719.58203.11719.23438.05859.23047.11328.29297.11719.11328.0586.58593.35156.28907.17187.17578.0625.17578.05469.17578.0586.69922.35155.28906.17579.23438.05468.28906.17578.23437.1172.64063.40624.29297.11719.17187.0586.23438.05859.41015.05859.23047.0586.23438.11718.0586.17188-.41017.17578.46875.0586.0586.29296.11328.23438.17578.05468.23438.0586.17578.05859.40625.11719.64062.23437.11719.17188.0586.23437v.17578l-.0586.1172-.0586.40624.23438.23438.11719.05859.34766.11719.64062.23047.17578.11718.28906.1172.17578.17577.23438.46485.58203 1.10546.17578.17579.34766.17578.17578.11719.35156.11718 1.04688.52344.23437.0586.46485.11327.29297.0586.46484.17578.75781.58203.23438.23438.34765.46484.17578.17578.28907.23438.8164.69921.29297.17579.28906.28906.29297.17578.29297.28906.69531.64063.17578.17578.29297.23437.28907.23438.46875.28906.64062.58203.34766.23438.23437.29297.34766.34765.35156.46485.9336.99218.34765.40625.11719.17579.23437.05859.11328.11719.64454.17578.23047.11328.23437.0586.29297.17577.23047.1172.9336.69921.40624.40625.23438.17578.40625.17578.23437.11719.8164.34766.34766.23437.23438.11719.29297.28906.23047.11719.7578.35156.35157.17188.23047.05859.29297.11719.23437.0586.8711.17577h.8164l.46875.23047.17188.0586.875.69921.46484.1172.29297.05858.17578.0586.23047.0586.46875.05859.34766.05859.35156.0586.40625.05859h.29297l.17187.0586v.23046l.17578.17578h.29297l.34766.0586.35156.05859.69922.11719h.64063l.46484-.23438.29297-.17578.17187-.11719.41016-.17187.28906-.17578.9336-.46485.46875-.29297.52343-.29296.46485-.17188.46484-.17578 1.05078-.46485.28906-.11718.41016-.11719.28906-.11719.52735-.17578 1.51562-.69922.58203-.34765.28907-.0586.29297-.0586.34765-.11718.875-.23047.35156-.11719h.11329l.23437-.05859.875-.23437.23438-.0586h.8125l.35156-.0586.8164-.11718.17188-.0586.35156-.05468.29297-.0586.23047-.05859.8164-.17578.17579-.0586h.34765l.23438-.05859.46484-.11718.75781-.17188.23438-.0586h.34765l.41016-.11718.28906-.0586 1.28516-.05859h.28906l.41016-.0586.23047-.05858h.17578l.875-.1172h.40625l.41015-.11718h.34766l.35156-.11328.8711-.0586h1.75l1.04687.28907.41016.11719.28906.11718.35156.11719.28907.11719 1.05078.17187.28906.0586h.29297l.29297.05859.17187.0586.41016.05859.17187.0586.1172.05858h.11718l.11719.0586.35156.0586h.11328l.41016.0664 1.92187.39453 1.92578.39453 1.51953.44922 1.69532.71875 2.14453.80469 1.60547-.71875 1.42968-.80469 1.16016-1.07813 1.25-.44921 3.03516-.71875 1.875-.35938 2.14453-1.34765 2.23437-1.25391 2.5-1.25781 1.69531-.44922 1.78516-.17969 1.16016-.26953.625.53906 1.33984-.26953.71485-.98828.98437-1.34375.44531-.17969.80469-.35937 1.875-.53907 1.78516-.44921 1.25-.26954 1.16015-.08984 1.69922-.08984 1.96094-.26954 1.25-.08984h.53906l.625-.08984h.89063l2.14453-.17969 2.41015-.17969 2.58985-.08984 1.69531.17969 1.60938.08984 1.42968.35938 1.16016.71875 1.875.98828 1.16015 1.52734.26563.71484.6289.08985.35548.89844.53515.53906.53516 1.52734 1.07422.35938h.53515l-.80469.53515.08985 1.70703.71484 2.69532.89063.80468.89453.98829.71484 1.2578 1.78516.53907 1.51953-.17969.35547 1.34375 1.60937-.80469.98047-.53906.26953.26953.31641-.21484.21875-.14453.80078.44922.44922-.35938h.35547l.53515-.26953.53907-.71875.53515-.26953.625-.98828 1.16016.44922.83984.3711 1.39454.61718 1.6953-.17969h1.60548l1.78515.08985.17969-1.70704.53516-1.34375.80468.26954.4922.84765.40233.40625-.08984.53906v.35938l.71485.44922.71093-.26953h1.42969l.35938.98828.4453 1.25781.71485 1.34375 1.25.6289 1.69531.62891.71485-.17969.17969-.53906.98046-.08984.44922.35937.08594 1.25782-.26563.6289-.53515.17969v.53906l.71484.98438.26563.53906.98437.98828.80078 1.07813-.26562.35937-.08985.89844-.625 2.33203-.35546 2.0664-.08985 1.79298-.17969.71875-.08984.53906v1.4375l-.98047 1.88281-.35937 1.70703-.53516.89844-.80469 1.16797-.26562.53906 2.05469 1.2539.08593.35938-.35546.53906-.08985-.17968v.80859l.08985 1.4375-.44532.71484-1.07422.09375-.26562.71485.53515.89844.8047.71875 1.16015.80859 1.33984.26953.44531.35938-.35546.44921-1.78907-.08984-1.25-.44922-.71484-.71875-.625-.08984-.17578 3.58984-.1875 1.3086h89.35937V311.70313h-55.26953v49.08203l.76172.125 3.28906.54296 2.02344 2.83594v2.7539l2.35156.33204 2.34766.33203h4.05078l-1.3789 4.16016-2.02344.70703-2.02344.70312-.54297.34375-2.59375 1.6172-.1875.11718-2.02344-2.07813-.73046-2.74218-2.67188-2.07813-1.375-3.5-.0664-.08203-1.95704-2.67188 2.75-1.41796v-49.08204H294.42187v91.41407l.1172.03125.1328.01172.07422.07421.10547.04688.08985.0586.08593.05859.08985.0586.29687.29687.0586.08984.03125.11719.02734.11719.01563.13671-.03125.1172-.0586.08983-.0586.08594-.04296.10547-.04688.10156-.02734.1211v.14453l.17578.26953.14844.14844.07422.08594.07422.07421.04296.10547.0625.08985.0586.08593.04297.10547.0586.08985.04687.10156.04296.10547.0586.08594.11719.17968.07421.07422.0625.08594.0586.08984.04297.10547.0586.08985.05858.08593.0625.08985.0586.08984.04297.10156.11719.17969.07421.07422.0586.08594.07422.07421.08984.0586.10547.04687h.14844l.1328-.01562.13282.01562.10156-.04687.07422-.07422.04688-.10156-.01563-.13281v-.14844l-.04687-.10547-.02735-.11719-.04687-.10156-.02735-.1211-.04296-.10156-.0625-.08984-.04297-.10156-.04297-.10547-.03125-.11719-.01563-.13281-.01171-.13672.08593-.0586.0586-.08593.12109-.03125.04297.10547.01562.1328v.1172l.0586.10156.0586.08984.08983.0586.14844.14843.0586.08985.04296.10547-.01171.10156.08593.0586.10547.04687.08594.0586.08984.05858.07422.07422-.11719.02735-.10546.04687-.08594.0586-.07422.07421-.0586.08985-.0625.08594-.02734.12109-.04687.10156-.04297.10547-.03125.11719-.01172.13281-.01563.13281v.14844l.02735.11719.04687.10547.04297.10156.0586.08984.07421.07422.08985.0586.07422.07421.08984.0586.0586.08984.04296.10547.04688.10156.11719.03125.1328.01563h.14845l.11718-.03125.10547.04297.04297.10547.04688.10156.02734.1211L299.5 410l.02734.11719.03125.1211.02735.11718.10547.04297.10156.04687.13281-.01562.14844.14844.0625.08593.07422.07422.07031.07422.08984.0625.10547.04297.10156.04297.1172.03125.13671.01562.11719-.03125.07422-.07422.02734-.11718-.01172-.13282-.03125-.12109-.02734-.11719.04297-.10547h.11719l.08984.0625.11719.02735h.14843l.13282.01562h.14843l.13282.01563.1328-.01563h.14845l.1328-.01562.13282-.01172.13672.01172.11719-.02735.13281-.01562.1914-.0586-.05859.17579-.01562.1328-.02735.1211-.01562.13281-.0586.08594-.1328.01563-.10548.04687-.10546.04297-.1172.03125-.11718.02735-.26563.03125h-.14843l-.13281.01562-.07422.07422.05859.08594.14844.14843.11719.1797.07421.0703.08985.0625.08984.0586.08594.0586.08984.05858.10156.04297.10547.0625.10547.04297.08594.0586.10547.04687.10156.04297.17969.11719.0586.08984-.04298.10156-.04687.10547.01562.13281.22266.22266.0586.08985.04296.10156.03125.1211.04297.10155.01563.13282.03125.11718.01171.13672.03125.11719.14844.14844.10156.04297.10547.04296.1172.03125.1328.01563.13672.01563h.11719l.11719-.03125.08984-.0586.04297-.10547.04688-.10156.04296-.10547.03125-.11719.01172-.1328v-.14845l-.01172-.1328-.01562-.13282-.03125-.11719-.04297-.10547-.04688-.10547-.04296-.10156-.04297-.10547-.01563-.13281.01563-.13281.02734-.11719.03125-.11719.02735-.1211.04687-.10155.08984-.0586.08594-.0625.07422-.07422.08984-.05859.22266-.22266.0586-.08593.07421-.07422.11719-.17969.0586-.08594v-.14844l-.07423-.07421-.10156-.04688-.10547-.04297-.10156-.04297-.0586-.08984-.04687-.10547-.02734-.11719.08984-.05859.11719-.03125.10156-.04297.17969-.11719.14844-.14843.01172-.13282-.01172-.10546-.08985-.0586-.1328.01563h-.14845l-.1328.01562-.13282-.01562-.1211-.03125-.08593-.0586-.07422-.07422-.0586-.08984-.0625-.08594-.11718-.17969-.0586-.08593.03125-.1211.08594-.05859.1211-.03125.05859-.08594v-.1211l-.03125-.11718-.0586-.08984-.05859-.08594-.04687-.10547-.02735-.11719-.01562-.1328.0586-.08985.07421-.07422.08984-.0586.1172-.17968.07421-.07422.0586-.08594.14843-.14844.1211-.03125.1328-.01562.13282.01562.07422.07422.04297.10547.01562.13281-.03125.1172-.11719.03124-.1328.01172-.14844.14844-.04297.10547-.04688.10156-.02734.1211-.03125.11718v.14844l.03125.11719.04297.10546.05859.08985.07422.07031.07422.07422.11719.03125.12109.02734.11719-.02734.1328-.01563h.1172l.08984.0586.07422.07422.04687.10546.0586.08594.10156.04688.13281.01562.10547.04297.08594.0586-.01172.10546-.07422.07422-.17969.11719-.05859.08984-.08984.0586-.07032.07422-.07421.07421-.0625.08985-.02735.11719-.01562.1328.01562.13282-.01562.13281v.14844l.01562.13281.02735.1172.03125.12108.07421.07422.08985.0586.08594.0586.08984.05858.11719.03125v.08594l-.10157.04688-.08984.0586-.26563.03124-.11718.02735h-.14844l-.10547.04296-.10156.04688-.0586.08984-.0625.23438-.01171.13281-.03125.1211-.01563.1328v.29298l-.01172.1328.01172.13673.01563.1328.1328.01563.13282.01172.1211.03125.08593.0586.07422.07421.04688.10547.04296.10157.01563.1328v.44532l-.01563.13281v.44532l.03125.26562.02735.11719.01562.13281.03125.11719.08594.21094.03125.26562v.14844l-.03125.11719-.02734.11718-.03125.1211-.02735.11719-.03125.11718-.03125.1211-.01171.1328-.01563.13282.08984.0586.1172-.03125.10155.01562.04688.10547-.03125.26562v.44141l-.04297.10547-.04688.10547-.04296.10156-.04297.10547-.0586.08594-.03125.12109-.04296.11719-.03125.11719-.01563.1328.01563.13282.05859.08984.10547.04688.08594.0586.05859.08593-.01172.13672-.03125.11719-.04297.10156v.44531l-.01562.13281v.14844l-.03125.11719-.04297.10547-.02735.11719-.04687.10546-.04297.10157-.03125.12109-.02734.11719-.03125.13281-.03125.11719-.02735.11719-.04297.10546-.03125.1172-.03125.12108-.01171.13282-.01563.13281v.29688l.02734.11718v.14844l.04688.39844.02734.11719.0586.08984.12109.03125h.14844l.13281-.01563.0586.08985v.11719l-.0586.08984-.08984.0586-.10157.04296-.10546.04688-.08985.05859-.08594.0586-.13671.01562-.1172-.03125-.1328-.01563-.10157.04688-.0625.08594-.01172.13671-.01562.13282-.03125.11719-.02735.11718-.01562.13281-.03125.1211v.29687l.01563.13282.03125.11718v.14844l.01171.13281v.14844l-.02734.11719-.04688.10156-.02734.1211-.03125.11718-.0586.08985-.07421.07421-.10156.04297-.10547.04688-.11719.02734-.1211.03125-.10156-.04687.0586-.08594.10547-.04688.02734-.11718.03125-.11719.02734-.1211.03125-.11718v-.14844l.01563-.13281-.03125-.11719-.04297-.10547-.10547.01563-.07422.07422-.10156.04296-.08984.0625-.07422.07422-.04297.10157-.01563.1328-.03125.1172L304.25 426l-.03125.11719-.02734.11719-.03125.12109-.02735.11719-.03125.11718-.04297.10547-.08984.0586h-.08984l-.1172-.03125-.03124-.08594.01562-.13672-.03125-.11719v-.14844l-.01171-.1328v-.14844l-.0625-.23438-.02735-.1211-.04297-.10156-.04687-.10546-.0586-.08594-.05859-.08985-.04297-.10546-.0625-.08594-.14844-.14844-.0703-.07422-.10548-.04687-.10547-.04297-.10156-.04297-.29687-.29688-.08985-.07421-.08594-.0586-.10546-.04297-.08985-.0625-.08594-.0586-.10546-.04296-.08985-.0586-.08594-.0625-.07421-.0703-.10547-.04688-.08594-.0586-.10547-.04296-.08984-.0625-.10156-.04297-.10547-.04297-.08594-.0586-.10547-.04687-.10547-.04297-.10156-.04687-.08985-.0586-.10156-.04297-.10547-.04296-.08984-.0625-.11719-.02735-.13281-.01562-.13281.01562H299.75l-.13281.01563-.11719-.03125-.08984-.0586-.07422-.07422-.08985-.05859-.10156-.04688h-.14844l-.12109-.02734-.10156-.04297-.07422-.07422-.11719-.17968-.08984-.0586-.10156-.04297-.08985-.0625-.10547-.04296-.08984-.0586-.08594-.0586-.10547-.04687-.0586-.08594-.05858-.08984-.04297-.10547-.04688-.10156-.07422-.07422-.08594-.0586-.07421-.07421-.08985-.0586-.22265-.22265-.04297-.10547-.03125-.26563.10547-.04296h.14453l.10547.04296.07421.07422.08985.0586.08594.0586.10546.04687.08985.05859.14844.14844.0703.07422.14845.14843.0625.08594.07421.07422.08594.0586.07422.07421.08985.0625.08984.0586.08594.05859.26953.17578.10156.04688.10547.04296.10156.04297.04688-.07421.05859-.08594.07422-.07422.07031-.07422.10547.04297.07422.07422.0586.08984.04296.10156.04688.10547.04296.10547.1211.02735.11719-.02735.07421-.08984.04297-.10547.0586-.08985.07422-.07421.10546-.04297.1172-.02735.1328.01172.08985.0586.14844.14843.05859.08985.04297.10547.04687.10156.04297.10547.04297.10156.10547.04688.10547.04296.13281.01563.08594-.0586.0586-.08984.07421-.07422.10547-.04297.11719.02735.10547.04687.10156.04297.10547.04297.10156.04688.17969.11718v.11719l-.01563.13281.01563.13281.01562.13672.0586.08594.10156.04688.1211.02734.11718.03125h.14844l.11719-.03125.05859-.08984.17969-.1172.05859-.08983.07422-.07422.0586-.08594.11718-.17969.17969-.11719.11719.03125.08984.0586.04297.07422-.01563.1328v.1172l.08985.05859h.14843l.13282-.01563.1328-.01171.26563-.03125.10547-.04297.11719-.03125.1211-.02735.07421-.07421.07031-.07422.0625-.08985-.01562-.10547-.04688-.10156-.10156-.04297-.10547-.01562-.11718.02734-.26563.03125h-.14844l-.07421-.07422-.08985-.0586-.11719-.03124-.11718-.02735-.13282-.01562h-.14843l-.13282.01563h-.29687l-.10547-.04688-.14844-.14844-.04297-.10156-.05859-.08984.22266-.22266.08593-.0586.10547-.04296.11719-.03125.13281-.01563.13281.01563.13672.01562.10157.04297.1328-.01172.08985-.0625.10156-.04297.0625-.08984-.04687-.10156-.08984-.0586-.1172-.03125-.10155-.04296-.0586-.08985-.0625-.08984v-.11719l.01563-.13281.10547-.04688.07421-.07031v-.1211l-.08984-.05859-.03125-.11719.08985-.05859.07421-.07422.04297-.10547.0586-.08984.04687-.10156.01563-.13281v-.14844l-.04688-.10547-.04297-.10156-.08984-.0586-.13281-.01562-.10157-.04297-.13671-.01563-.1172-.03125h-.4453l-.13282-.01562-.13281-.01172-.13281-.01563-.11719-.03125h-.14844l-.13281-.01562-.13281-.01172-.26563-.03125-.1211-.04297-.08593-.0586-.07422-.07421v-.14844l.01172-.13281.10547-.04688.10156-.04296.13281-.01563h.15235l.13281-.01562h.29297l.1211.03125.10156.04296.08984.0586.23438.0625.12109-.04688.08984-.05859.10156-.04297.13282-.01562.10547.04296.10156.04688.13281.01172.1211-.02735h.14453l.12109-.03125.11719-.02734.10547-.04687.07421-.07422.08594-.0586.14844-.14843.0586-.08594.04687-.10547.02734-.11719.01563-.10547-.10156-.04296-.08985-.0586-.11719-.03125-.10546-.04297-.08985-.0625-.07422-.08594-.07422-.07421-.10156-.04297-.10547-.04688-.10156-.04297-.0586-.08984-.04687-.10156-.08594-.21094-.0625-.08594-.05859-.08984-.07422-.07422-.08594-.0586h-.26953l-.11719.03126-.08984.05859-.10156.04297-.13281.01562-.10547-.01562-.02735-.11719-.0625-.08984-.11718-.03125-.10157-.04297-.14843-.14844-.03125-.11719-.01563-.10546.07422-.07422.17969-.1172.11719-.02733.11718-.03125.13672.01562.10156.04297.10547.04297.10156.04687.10547.04297.1172.03125.1328.01563.1172.02734.1328.01563.10547-.01563.08985-.0586-.07422-.07421-.10547-.04297-.07422-.07422-.07422-.08984-.14844-.14844-.08593-.0586-.08985-.05859-.07422-.07422-.08984-.0586-.10156-.04687-.1211-.02734-.10156-.04688-.10547-.04296-.11719-.03125-.10156-.04297-.1211-.03125h-.14843l-.11719.03125-.10546.04297-.08594.0625-.17969.11718-.08594.0586-.08984.0586-.10547.04687-.08594.05859-.10547.04297-.10156.04297-.10547.04687-.07422.07422-.05859.08985-.0586.08593-.04687.10547-.0586.08594-.07421.07422-.13281-.01172-.1172-.03125h-.11718l-.07422.07422-.08984.0586-.07422.07421-.08984.0586-.08594.05859-.10547.04687-.10156.04297-.13672.01563-.10156-.04297-.14844-.14844-.10547-.04688h-.08594l-.10547.04688-.10156.04297-.1211.03125-.11718-.03125-.07422-.07422v-.11719l.03125-.1211.07422-.0703.0586-.08985.07421-.07422.11719-.03125.10547-.04296h.29297l.13281-.01563.13672-.01563.10156-.04296.08985-.0586.10156-.04687.08984-.0586.13281-.01171.08985.05859.13281.01172.08984-.0586.08594-.05859.10547-.04297.08984-.0586.08594-.0625.08985-.05859.14843-.14843.0586-.08594.05859-.08985.10547-.04296.13281-.01563.11719.02735.1211.03125.05859-.0586.05859-.08984.03125-.26563.02734-.11719.10547.01172.13281.01563.10157-.04297.08984-.0586.0586-.08984.07421-.07422.0586-.08984.04687-.10156.01172-.13281-.01172-.13282-.04687-.10547-.14844-.14843-.0586-.08985-.05859-.08594-.04297-.10546v-.44532l.01563-.1328v-.14845l.01172-.1328-.0586-.0586-.08984.0586-.10156-.04298-.17969-.11719-.08594-.05859-.0625-.08984-.0586-.08985-.07421-.07421-.08594-.0586-.1211.03125-.10155.01172-.10547.04688-.08594.05859-.10547.04297-.14844.14844-.08984.05859-.08594.0586-.08984.0625-.10547.04296-.13281.01563v-.1211l.10547-.04297.11718-.03125.07422-.0703.04297-.10548v-.14844l-.02734-.11718-.14844-.14844-.13281-.01563h-.14844l-.11719.03125-.10547.04297-.10156.04297-.08984.0625-.11719.02735-.07422-.07422.01172-.13281-.04297-.10157-.04297-.10547-.08984-.05859-.11719.02734-.1211.03125-.11718.03125-.10156.04297-.1211.03125-.10156.04297-.10547.04297-.08984.0586-.10156.01562v-.11719l.01562-.13281-.0586-.08985-.07421.04297-.14844.14844-.0586.08985-.07421.07421-.04688.10547-.04296.10156-.07422.07422-.0586.08985-.07422.07422-.05859.08593-.07422.07422-.08984.0625-.07422.07031-.07422.07422-.10156.01563-.13281.01562-.10547-.04296v-.1211l.14843-.14844.04297-.10156.0586-.08984.04687-.10156.04297-.10547.0586-.08985.03124-.11719.04297-.10156.03125-.1211.02735-.11718.04687-.10547.04297-.10156.04297-.10547.07422-.07031.08984-.0625.08985-.0586.10156-.04296h.29687l.26563-.03125.10547-.04297-.07422-.07422-.11719-.03125-.10547-.04297-.08984-.0586-.10156-.04687-.08985-.0586-.10156-.04296-.10547-.04297-.08984-.0625-.08594-.0586-.10547-.04296-.10156-.04297-.1211-.03125-.11718-.03125-.10157-.04297L297.5 410.25l-.10156-.04297-.08985-.0586-.04296-.10546-.01563-.13281.10156-.04297.13281-.01563.13672.01563.13282-.01563.10156-.04297.0586-.08984.01562-.10547-.08985-.0586-.07421-.07421-.10157-.04297-.08984-.0586-.14844-.14843-.04297-.10547-.01562-.13281v-.29297l-.0586-.08985-.08984-.05859-.07422-.07422-.04297-.10547-.03125-.11718-.0586-.08985-.07421-.07422-.11719-.02734-.07422-.07422-.08984-.0586-.08984-.0625-.08594-.05859-.07422-.07421-.0586-.08594-.04687-.10547-.08594-.0586-.14843-.14843-.19532-.0586-.1328.01563-.10157.04297-.07422.07422-.04688.10156-.04296.10547-.0586.08984-.0586.08594-.29687.29687-.08984.0586h-.08594l-.0625-.08594-.04297-.10547.03125-.11719.0586-.08984.02734-.11719-.01172-.13281-.08984-.0625-.10547.04688-.11719.02734-.11719.03125-.26953.17578-.10156.04688-.11719.02734-.10546.04687-.08985.0586-.10156.04297-.0586-.08594-.04687-.10547.01563-.13281.04687-.10547.07031-.07422.07422-.07031.0586-.08985v-.14843l-.04297-.10547h-.23829l-.10156.04687-.03125.11719-.02734.11719-.03125.1211-.07422.04296-.13281.01563-.07422-.04688-.04297-.10156-.04297-.10547-.04687-.10156-.04297-.10547-.1211.03125-.10156.04297-.13281.01562-.11719.03125-.10547.04297-.08984.0586-.10156.04687-.1211.02734-.13281.01563-.10156-.04297-.0586-.08985-.04687-.10546-.04297-.10157-.04297-.10546v-.1172l.0586-.08984.08593-.05859.17969-.11719.10156-.04687.10547-.04297.10547-.0586.10156-.04296.08985-.0625.10156-.04297.10547-.0586.10156-.04687.08984-.0586.10547-.04296.10156-.04297.08985-.0625.10156-.04297.13672-.01563.11719.03125.10156.04297.1211.03125.10156.04297.10546.04688.10157.04296.10547.04297.10156.04688.10547.04297.10156.04297.10547.04687.08594.0586.10546.04296.1172.03125.10546.04297.10156.04688.08985.0586.10547.04296.10156.04297.10547.04687.11719.02735.10156.04687.1211.02735h.14843l.08594-.0586.01562-.10156.0586-.08984-.02735-.1172-.07422-.07421-.11719-.17969-.07421-.07422-.08985-.07421-.17969-.1172-.08593-.05859-.10547-.04296-.10156-.04688-.26954-.17578-.05859-.08985-.07422-.07421-.0586-.08985-.04296-.10156-.03125-.11719-.01563-.13672v-.5625l-.01171-.1328-.01563-.13282-.03125-.11719-.01562-.13281-.01172-.13281-.03125-.1211-.22266-.22265-.0586-.08594-.01562-.10547.03125-.11719.13281-.01562v-91.41406H172.9922v1.45312l-.0586.23438-.35156 1.05078-.17187.52343-.1172.34766-.17577.41016-.11719.17187-.23438.29297-.23046.0586h-.35157l-.11718.05859-.23047.40625v.29297l.11719.17578.23046.23047.1172.23437.64062.75781.29297.46485.17578.23437.23047.35156.23437.34766.64063.8164.17578.46485.17187.41016.11719.69531.17578.46875.11719 1.39844.0586.46484v.875l.11718 1.04688v4.78125l-.0586.46484-.35156 1.28125-.17578.52344-.11328.41015-.35156.9297L172.93359 336l-.23437.58203-.11719.17578-.17187.34766-.17578.40625-.35157.8164-.0586.29297-.11327.29297-.11719.28906-.0586.17579-.11718.875-.0586.40625-.05859.11718-.0586.17579-.05859.17187-.23047.52734-.11718.17188v.23437l-.11719.23438-.0586.17187-.17577.58594v.28906l-.0586.17579v.29296l-.0586.11329-.05859.52734v.17187l-.05468.23438v2.6211l-.17578.8164-.1172.17578-.17577.23438-.1172.17187-.11327.23438-.58594.93359-.23047.28906-.29297.46485-.17578.23437-.28906.35156-.35156.69922-.11328.23047-.17579.41016-.17578.23046-.40625.52735-.8164.69922-.29297.17187-.28906.23438-.17579.11719-.17578.17578-.52344.40625-.52734.17578-.17187.17578-.23438.05469-.64062.17578h-.75782m12.21094 31.02344l-1.07422.44921.35938.89454 1.25-.71485.44531-.53906-.98047-.08985"/><path fill="#d3d3d3" fill-opacity="0" fill-rule="evenodd" d="M201.50781 416.59766h-.89453l.44922.6289.98047.35938.80469-.08985.4453-.98828-.17577.08985-.71485-.35547-.89453.35547m154.6211 59.0703l-.0586-.52343v-.29297l.11328-.29297.0586-.23046.46875-.46875h.11328l.11719-.11329.11718-.05859h.17579l.23437-.0586h.34766l.23437.0586.11719.0586.23047.17187.0586.17578.11718.58203v.29297l-.11719.17578-.17187.28906-.17579.17579-.52734.52343-.23047.23438-.11719.0586h-.17578l-.11718-.0586-.40625-.29297-.17579-.11719-.11718-.0586-.0586-.11327-.05468-.1172m6.64062-10.95702l-.0586-.17188v-1.10937l.0586-.17188.17578-.0586.17188-.05858h.17578l.23437-.0586.1172.0586.05858.69921-.05859.17188-.11719.17578-.11718.0586-.23438.52343-.11328.0586h-.23438l-.05859-.1172m9.61328-14.39062l-.11719-.17578v-.69922l.29297-.875.1172-.17187.17577-.35156.11328-.23047.1172-.29297.35155-.75781.1172-.23047.17187-.23438h.17578l.11719-.0586h.64062l.11719.0586.23437.23438.17188.11328.35156.29297.11719.11718.11328.17579v.11328l.11719.05859.11718.11719v.69922l-.05859.17578v.23047l-.0586.17578-.34765 1.05078-.11719.23047-.11719.23437-.11718.0586-.23047.23437-.64063.28906h-.875l-.41015-.11718-.64063-.46485"/><path fill="none" stroke="#bebebe" stroke-linecap="round" stroke-linejoin="round" stroke-miterlimit="10" stroke-width=".5" d="M467.95703 311.69531H144.02734v168.625h323.9297v-168.625"/><g clip-path="url(#a)"><path fill="#fff" fill-opacity="0" fill-rule="evenodd" d="M144 475.89063v4.4375h.0039H144V441v34.89063"/></g><g clip-path="url(#b)"><path fill="#50fcfc" fill-rule="evenodd" d="M144 320.54688v.125-9h.0039H144v8.875"/></g><path fill="#50fcfc" fill-rule="evenodd" d="M144 439.72656V441l.0039-.0039v-1.26954H144"/><path fill="#fff" fill-opacity="0" fill-rule="evenodd" d="M144 320.67188v119.05468h.0039V320.67187H144"/><g clip-path="url(#c)"><path fill="#fff" fill-opacity="0" fill-rule="evenodd" d="M144.0039 480.32813v-39.33204l.63282-.61328-.63281-.65625V320.67187l.30859-.125 4.125-.85937 3.0586-3.57813-.15235-4.4375h76.98438v87.59375l-1.62891 1.17188-2.8086.21484-4.4375.28907L215.01563 402l-2.85546 2.875-1.58594 1.60938-3.15234 2.83203-1.28516 1.55468-3.46875 2.88282 1.42578 4.4375-2.39453 2.30859-4.4375-1.00781-4.4414.77734L190 422.62891l-1.61719 1.05468-4.35156 3.38672-.08594.0664-4.4375 1.91017-2.59375 2.46093-1.44531 4.4375-.40234 1.44922-2.4375 2.98828-2 .08203-.65625-.08203-3.78125-2.5586-2.91016 2.5586-1.52734.5-3.84766 3.9375 2.42969 4.4414 1.41797 2.08595V456.25l-1.27735 1.88672 1.27735 2.9336 2.30859-2.9336-2.3086-1.88672v-4.90234l4.4375 1.87109 3.78516-3.95703.65235-.20313 4.17578-4.23828.26172-3.2461 4.01562 3.2461.42578.6289.51953-.6289-.51953-1.57422-1.53515-2.86328 1.53515-.42969 4.4375-.61718 4.4375-1.3789v11.44921l-2.01953 4.29297 2.01953 2.15625 4.4375.99219 2.58203-3.14844-2.58203-1.55078-4.4375-2.74219v-11.44922l4.4375 2.27344 4.4414-1.57031 4.4375.52734 4.4375.84375v.91797l-2.58593 3.8711.0664 4.4414-.79296 4.4375 3.3125 1.61719 4.4375.77343 4.4414.66407 2.78125 1.3828 1.65625.39063.82813-.39062 3.60938-1.67969 4.4375-1.07422 4.3203-1.6836.03907-4.4375-4.35938-1.15624-4.4375.64453-4.4375-1.09766-2.77734-2.83203-1.66016-1.6875-4.4414-.20703-4.4375-1.97656v-.91797l3.88281-4.08594.4336-4.4375.12109-1.36328.70703-3.07422 3.73438-2 4.03515 2 .40234.3789 4.4375 3.52735 2.35157.53125 2.08594 1.66797 2.73437 2.76953 1.70313 2.38281 4.4414.92579 2.21875 1.1289 2.21875 1.91016 4.4375-.2461 1.4961-1.66406-1.4961-4.23047-.09766-.20703-4.33984-3.21484-.41406-1.22266-.65234-4.4375-3.3711-2.91015-4.4414-.73438-.47266-.79687.47266-3.7461.6289-.6914 3.8125-.4297 4.4375-1.27733 2.44531 1.70703 1.9922 1.44921 1.42187-1.44921-1.42188-1.69141-2.00781-2.7461-2.42969-2.77343-.46484-1.66406-3.89453-4.44141-.07813-.07813-4.4414-3.1914-2.85547-1.16797-1.58203-1.17188v-87.59375h26.6289V427.6836l-3.9336 3.82422 3.9336 4.3164 4.28125-4.3164-4.28125-3.82422V311.67188h26.63281v122.73046l-.36718 1.54297.36718.34766.50782-.34766-.50782-1.54297V311.67188h71.01172v127.97265l-.71484.73828.71484.75.8789-.75-.8789-.73828V311.67188h22.1914v133.38671l-2.54687 4.20313 2.54688 2.46875 3.09765-2.46875-3.09765-4.20313V311.67188h93.20312v168.65625h-70.75l-.26171-.7422-4.4375-3.41796-3.20704-.27735 3.20704-3.11718.49609-1.32031-.4961-.57813-3.49609-3.85938-.9414-1.93359-1.34766-2.50781 1.34765-1.11328 2.13672-3.32422-2.13671-2.04688-2.96094 2.04688-1.47656 1.7461-1.60157 2.6914 1.0664 4.4414.53517 4.3711 4.4375-2.38281 3.05859 2.44921-3.0586 3.15235-4.4375-2.30078-.03906 3.58594-.20703 4.4375H144.00391"/></g><path fill="#50fcfc" fill-rule="evenodd" d="M144.63672 440.38281l-.63281.61328v-1.26953l.6328.65625"/><g clip-path="url(#d)"><path fill="#50fcfc" fill-rule="evenodd" d="M144.3125 320.54688l-.3086.125v-9h4.4336v4.08984l-.39063.34765.39063.16407.14063-.16406-.14063-.34766v-4.08985h2.90625l.15234 4.4375-3.05859 3.57813-4.125.85938"/></g><path fill="#00e8fc" fill-rule="evenodd" d="M148.4375 316.27344l-.39063-.16406.39063-.34766.14063.34765-.14063.16407"/><path fill="#50fcfc" fill-rule="evenodd" d="M160.33594 449.26172l-2.42969-4.4414 3.84766-3.9375 1.52734-.5 2.91016-2.5586v2.88672l-4.4375 1.32812-2.71875 2.78125 2.71875 3.33985 1.85156 1.10156 2.58594 2.07812 1.98828-2.07812 2.44922-.76563 3.625-3.67578-3.625-3.78125-4.4375-.32812v-2.88672l3.78125 2.5586.65625.08202 2-.08203 2.4375-2.98828.40234-1.44922 1.44531-4.4375 2.59375-2.46094 4.4375-1.91015.08594-.0664 4.35156-3.38673L190 422.62891l2.82031-2.35938 4.4414-.77734v1.96484l-3.15624 1.17188-1.28516.8789-4.4375 2.61719-1.21484.94531-3.22266 2.5586-3.1289 1.8789 3.1289 4.1914 4.4375-1.01952 4.4375-.01953 4.4414-.04297 4.4375-1.92578 4.4375.98046 1.71095-2.16406-1.71094-3.95312-.47656-.48438-3.96094-2.75-1.8164-1.6914-2.6211-1.17188v-1.96484l4.4375 1.00781 2.39453-2.3086-1.42578-4.4375 3.46875-2.8828 1.28516-1.5547 3.15234-2.83202 1.58594-1.60938 2.85547-2.875 4.4375-1.0586 4.4375-.28906 2.80859-.21484 1.6289-1.17188v1.80079l-4.4375.1875-4.4375.52734-4.4375 2.8789-.21875.21485-4.22265 4.28906-.16797.15235-2.4414 4.4375 2.60937.96484v3.27734l-.4375.19532-4 2.02734-2.32422 2.41016 2.32422 1.83203 4.4375 1.875 1.94922-3.70703-1.875-4.4375-.07422-.19532v-3.27734l1.27344 3.47266 3.16797 3.96484.34375.47266 4.09375 3.54296 1.40625.89844 3.03125 2.6211 4.4375.52343 1.67968 1.29297 2.75781 2.77735 4.44141 1.24609 2.45313-4.02344-2.27735-4.4375-.17578-.15625-2.125.15625-2.3164.24219-.16407-.24219L230 422.62891l.9961-4.4375 1.76952-.39063 4.44141-1.90625 3.27344-2.14062-.60938-4.4375-2.66406-2.98829-4.23437-1.45312-.20703-.14844-4.4375-3.66015v-1.80079l1.58203 1.17188 2.85547 1.16797 4.4414 3.1914.07813.07813 3.89453 4.4414.46484 1.66407 2.42969 2.77344 2.00781 2.74609 1.42188 1.6914-1.42188 1.44923-1.99219-1.44922-2.4453-1.70704-4.4375 1.27735-3.8125.42969-.62892.6914-.47265 3.7461.47266.79687 4.4414.73438 3.3711 2.91015.65234 4.4375.41406 1.22266 4.33984 3.21484.09766.20703 1.4961 4.23047-1.4961 1.66406-4.4375.2461-2.21875-1.91016-2.21875-1.1289-4.4414-.92579-1.70313-2.3828-2.73438-2.76954-2.08593-1.66797-2.35156-.53125-4.4375-3.52734-.40235-.3789-4.03516-2-3.73437 2-.70703 3.07421-.1211 1.36328-.43359 4.4375-3.88281 4.08594-4.4375-.84375-4.4375-.52734-4.4414 1.5703-4.4375-2.27343-4.4375 1.3789-4.4375.6172-1.53516.42968 1.53515 2.86328.51953 1.57422-.51953.6289-.42578-.6289-4.01562-3.2461-.26172 3.2461-4.17578 4.23828-.65235.20313-3.78515 3.95703-4.4375-1.8711-1.41797-2.08593"/><path fill="#00e8fc" fill-rule="evenodd" d="M161.7539 448.16016l-2.71874-3.33985 2.71875-2.78125 4.4375-1.32812 4.4375.32812V442l-4.4375 1.7539-4.4375.21485-.83594.85156.83594 1.02735 4.4375 1.24218 4.4375.47657 2.70703-2.7461L170.6289 442v-.96094l3.625 3.78125-3.625 3.67578-2.44922.76563-1.98828 2.07812-2.58594-2.07812-1.85156-1.10156"/><path fill="#50fcfc" fill-rule="evenodd" d="M161.7539 461.07031l-1.27734-2.9336 1.27735-1.88671 2.30859 1.88672-2.3086 2.9336"/><path fill="#00d4fc" fill-rule="evenodd" d="M161.7539 445.84766l-.83593-1.02735.83594-.85156 4.4375-.21484L170.6289 442v.95703l-3.32813 1.86328 3.32813 1.8125 1.78906-1.8125-1.78906-1.86328V442l2.70703 2.82031-2.70703 2.7461-4.4375-.47657-4.4375-1.24218"/><path fill="#00c4fc" fill-rule="evenodd" d="M170.6289 446.63281l-3.32812-1.8125 3.32813-1.86328v.95703l-1.6172.90625 1.6172.88281.87109-.8828-.8711-.90626v-.95703l1.78907 1.86328-1.78906 1.8125"/><path fill="#00b8fc" fill-rule="evenodd" d="M170.6289 445.70313l-1.61718-.88282 1.61719-.90625.87109.90625-.8711.88281"/><path fill="#00e8fc" fill-rule="evenodd" d="M183.94531 435.69922l-3.1289-4.1914 3.1289-1.87891 3.22266-2.5586 1.21484-.94531 4.4375-2.61719v7.08985l-2.05078.91015 2.05078.29688 1.5-.29688-1.5-.91015v-7.08985l1.28516-.8789 3.15625-1.17188 2.6211 1.17188 1.8164 1.6914 3.96094 2.75.47656.48438 1.71094 3.95312-1.71094 2.16406-4.4375-.98046-4.4375 1.92578-4.4414.04297-4.4375.01953-4.4375 1.01953"/><path fill="#50fcfc" fill-rule="evenodd" d="M188.38281 455.85547l-2.01953-2.15625 2.01953-4.29297 4.4375 2.74219 2.58203 1.55078-2.58203 3.14844-4.4375-.9922"/><path fill="#00d4fc" fill-rule="evenodd" d="M192.82031 431.80469l-2.05078-.29688 2.05078-.91015 1.5.91015-1.5.29688"/><path fill="#50fcfc" fill-rule="evenodd" d="M206.13672 455.3164l-3.3125-1.61718.79297-4.4375-.0664-4.4414 2.58593-3.8711 4.4375 1.97656 4.4414.20703 1.66016 1.6875 2.77734 2.83203 4.4375 1.09766 4.4375-.64453 4.35938 1.15625-.03906 4.4375-4.32031 1.6836-4.4375 1.07421-3.60938 1.67969-.82813.39062-1.65625-.39062-2.78125-1.38281-4.4414-.66407-4.4375-.77343"/><path fill="#fff" fill-opacity="0" fill-rule="evenodd" d="M206.13672 420.21875l-2.32422 2.41016 2.32422 1.83203 4.4375 1.875 1.94922-3.70703-1.875-4.4375-.07422-.19532-.4375.19532-4 2.02734"/><path fill="#00e8fc" fill-rule="evenodd" d="M210.57422 414.71875l-2.60938-.96484 2.44141-4.4375.16797-.15235 4.22266-4.28906.21875-.21484 4.4375-2.87891 4.4375-.52734v1l-4.4375.92578-2.48829 1.69531-1.73437 4.4414 4.22266 3.84766 1.36328.58985-1.36328.72265-4.4375 1.71485-1.16407 2 1.16406 1.45312 2.17188 2.98438 2.26563 1.96093 3.88671 2.48047.55078.47656 3.32813-.47656-3.10547-4.4414 3.4336-4.4375.78125-.22657 4.4375-.83984 4.17968-3.3711.26172-2.58984.48438-1.84765-.48438-.54297-4.4414-2.83594-1.50391-1.0625-2.9336-2.49219-4.4375-.1289v-1l4.4375-.1875 4.4375 3.66015.20704.14844 4.23437 1.45313 2.66406 2.98828.60938 4.4375-3.27344 2.14062-4.4414 1.90625-1.76954.39063L230 422.6289l2.60156 4.4414.16406.24219 2.31641-.24219 2.125-.15625.17578.15625 2.27735 4.4375-2.45313 4.02344-4.4414-1.2461-2.75782-2.77734-1.67969-1.29297-4.4375-.52343-3.03125-2.6211-1.40625-.89844-4.09375-3.54296-.34375-.47266-3.16796-3.96484-1.27344-3.47266"/><path fill="#00d4fc" fill-rule="evenodd" d="M215.01563 419.64453l-1.16407-1.45312 1.16406-2 4.4375-1.71485 1.36329-.72265-1.36328-.58985-4.22266-3.84765 1.73437-4.44141 2.48828-1.69531 4.4375-.92578v1l-4.4375 1.32421-.4375.29688-2.35156 4.4414 2.78906 2.53907 4.38672 1.89844-4.38672 2.32812-3.36328 2.10938 2.9297 4.4375.43358.375.8672-.375 2.55077-4.4375 1.01953-4.25391 4.4375 2.28906 4.4375.21875 3.33985-2.6914-.10156-4.4375-3.23828-2.28907-3.05079-2.15234-1.38672-1.17578-4.4375-.44531v-1l4.4375.1289 2.9336 2.49219 1.5039 1.0625 4.44141 2.83594.48438.54297-.48438 1.84765-.26172 2.58985-4.17969 3.37109-4.4375.83984-.78125.22657-3.43359 4.4375 3.10547 4.4414-3.32813.47656-.55078-.47656-3.88672-2.48047-2.26562-1.96093-2.17188-2.98438"/><path fill="#00c4fc" fill-rule="evenodd" d="M219.01953 422.6289l-2.92969-4.4375 3.36328-2.10937v1.60938l-.80078.5.80078 1.28906.8125-1.28906-.8125-.5v-1.60938l4.38672-2.32812-4.38672-1.89844-2.78906-2.53906 2.35156-4.44141.4375-.29688 4.4375-1.32421v1l-1.95703.62109-2.48047 2.01953-1.35546 2.42188 1.35547 1.23437 4.4375 2.03906 3.10546 1.16407 1.33203.73046 4.4375 1.28516 2.5-2.01562-.80468-4.4375-1.69531-1.19922-4.4375-3.03516-.64063-.20703-3.79688-.6211v-1l4.4375.44532 1.38672 1.17578 3.05078 2.15234 3.23829 2.28907.10156 4.4375-3.33984 2.6914-4.4375-.21875-4.4375-2.28906-1.01954 4.2539-2.55078 4.4375-.86719.375-.43359-.375"/><path fill="#00b8fc" fill-rule="evenodd" d="M219.45313 410.55078l-1.35547-1.23437 1.35547-2.42188 2.48046-2.01953 1.95703-.6211v1.40626l-4.30468 3.65625 4.30469 2.09375 4.4375.85937 1.0078 1.48438 3.4297 1.33593 1.66015-1.33593-1.51172-4.4375-.14844-.10547-4.4375-2.16406-4.4375-1.38672v-1.40625l3.79688.62109.64063.20703 4.4375 3.03516 1.6953 1.19922.8047 4.4375-2.5 2.01562-4.4375-1.28515-1.33204-.73047-3.10547-1.16407-4.4375-2.03906m0 8.92969l-.80078-1.28906.80078-.5.8125.5-.8125 1.28906"/><path fill="#00a8fc" fill-rule="evenodd" d="M223.89063 411.41016l-4.3047-2.09375 4.3047-3.65625v2.0625l-1.875 1.59375 1.875.91015 4.4375-.51562 2.74218 4.04297 1.69531.66015.82032-.66015-.82031-2.3047-3.78907-2.1328-.64844-.3047-4.4375-1.28905v-2.0625l4.4375 1.38671 4.4375 2.16407.14844.10547 1.51172 4.4375-1.66016 1.33593-3.42968-1.33593-1.00781-1.48438-4.4375-.85937"/><path fill="#009800" fill-rule="evenodd" d="M223.89063 410.22656l-1.875-.91015 1.875-1.59375 4.4375 1.28906.64843.30469 3.78906 2.1328.82032 2.3047-.82031.66015-1.69532-.66015-2.74219-4.04297-4.4375.51562"/><path fill="#50fcfc" fill-rule="evenodd" d="M254.95703 435.82422l-3.9336-4.3164 3.9336-3.82423v1.25391l-2.64453 2.57031 2.64453 2.90235 2.8789-2.90235-2.8789-2.57031v-1.2539l4.28125 3.82421-4.28125 4.3164"/><path fill="#00e8fc" fill-rule="evenodd" d="M254.95703 434.41016l-2.64453-2.90235 2.64453-2.57031v2.08594l-.49219.48437.4922.54297.54296-.54297-.54297-.48437v-2.08594l2.8789 2.57031-2.8789 2.90235"/><path fill="#00d4fc" fill-rule="evenodd" d="M254.95703 432.05078l-.49219-.54297.4922-.48437.54296.48437-.54297.54297"/><path fill="#50fcfc" fill-rule="evenodd" d="M281.58984 436.29297l-.36718-.34766.36718-1.54297.50782 1.54297-.50782.34766m71.01172 4.83984l-.71484-.75.71484-.73828.8789.73828-.8789.75m22.1914 10.59766l-2.54687-2.46875 2.54688-4.20313 3.09765 4.20313-3.09765 2.46875"/><g clip-path="url(#e)"><path fill="#50fcfc" fill-rule="evenodd" d="M383.13672 467.01563l-1.0664-4.44141 1.60156-2.6914 1.47656-1.7461 2.96094-2.04688 2.13671 2.04688-2.13671 3.32422-1.34766 1.11328 1.34765 2.50781.94141 1.9336 3.4961 3.85937.49609.57813-.4961 1.3203-3.20703 3.1172 3.20704.27734 4.4375 3.41797.26171.74219h-2.0664l-2.63281-2.42579-4.4375-.08203-2.48047 2.50781h-2.20313l.20703-4.4375.03906-3.58593 4.4375 2.30078 3.0586-3.15235-3.0586-2.44921-4.4375 2.3828-.53515-4.37108"/></g><g clip-path="url(#f)"><path fill="#00e8fc" fill-rule="evenodd" d="M385.6289 480.32813l2.48048-2.50782 4.4375.08203 2.6328 2.42579h-9.55077"/></g><g clip-path="url(#g)"><path fill="#fff" fill-opacity="0" fill-rule="evenodd" d="M467.9961 480.32813H468V311.67188h-.0039H468v168.65625h-.0039"/></g><path fill="#fff" fill-opacity="0" fill-rule="evenodd" d="M235.49219 429.36328l1.3711 5.67578 9.68358-2.33203-1.37109-5.67969-9.6836 2.33594"/><path fill-rule="evenodd" d="M244.21484 430.85938l.1211.49218-6.1211 1.47656-.18359-.76562 4.36328-1.05078-.32422-1.35156.53906-.12891.19532.52734.10937.23438.14063.20312.1875.16407.24219.12109.3203.0664.41016.01173"/><path fill="#fff" fill-opacity="0" fill-rule="evenodd" d="M177.1914 445.6211l5.71485-1.19923-2.03906-9.75-5.71875 1.19922 2.04297 9.75"/><path fill-rule="evenodd" d="M178.94922 436.94922l.4961-.10547 1.29296 6.16016-.76953.16015-.92188-4.39453-1.35937.28516-.11328-.54297.53516-.17969.23437-.10156.20703-.13672.16797-.17969.1289-.24219.07813-.3164.02344-.40625"/><g clip-path="url(#h)"><path fill="none" stroke="#000" stroke-linecap="round" stroke-linejoin="round" stroke-miterlimit="10" stroke-width=".5" d="M147.51172 480.28906l-7.02344.08203"/></g><g clip-path="url(#i)"><path fill="none" stroke="#000" stroke-linecap="round" stroke-linejoin="round" stroke-miterlimit="10" stroke-width=".5" d="M147.51172 480.28906l1.17969 2.15235"/></g><g clip-path="url(#j)"><path fill="none" stroke="#000" stroke-linecap="round" stroke-linejoin="round" stroke-miterlimit="10" stroke-width=".5" d="M160.82813 480.375l-7.02735-.08984"/></g><g clip-path="url(#k)"><path fill="none" stroke="#000" stroke-linecap="round" stroke-linejoin="round" stroke-miterlimit="10" stroke-width=".5" d="M160.82813 480.375l1.125 2.17969"/></g><g clip-path="url(#l)"><path fill="none" stroke="#000" stroke-linecap="round" stroke-linejoin="round" stroke-miterlimit="10" stroke-width=".5" d="M174.14453 480.3125l-7.02734.03125"/></g><g clip-path="url(#m)"><path fill="none" stroke="#000" stroke-linecap="round" stroke-linejoin="round" stroke-miterlimit="10" stroke-width=".5" d="M174.14453 480.3125l1.16016 2.16016"/></g><g clip-path="url(#n)"><path fill="none" stroke="#000" stroke-linecap="round" stroke-linejoin="round" stroke-miterlimit="10" stroke-width=".5" d="M187.45313 480.53906l-7.01563-.42187"/></g><g clip-path="url(#o)"><path fill="none" stroke="#000" stroke-linecap="round" stroke-linejoin="round" stroke-miterlimit="10" stroke-width=".5" d="M187.45313 480.53906l1.01953 2.23438"/></g><g clip-path="url(#p)"><path fill="none" stroke="#000" stroke-linecap="round" stroke-linejoin="round" stroke-miterlimit="10" stroke-width=".5" d="M200.71094 480.98438l-6.90235-1.3125"/></g><g clip-path="url(#q)"><path fill="none" stroke="#000" stroke-linecap="round" stroke-linejoin="round" stroke-miterlimit="10" stroke-width=".5" d="M200.71094 480.98438l.72656 2.34375"/></g><g clip-path="url(#r)"><path fill="none" stroke="#000" stroke-linecap="round" stroke-linejoin="round" stroke-miterlimit="10" stroke-width=".5" d="M214.03125 480.97266l-6.91016-1.28907"/></g><g clip-path="url(#s)"><path fill="none" stroke="#000" stroke-linecap="round" stroke-linejoin="round" stroke-miterlimit="10" stroke-width=".5" d="M214.03125 480.97266l.73438 2.33984"/></g><g clip-path="url(#t)"><path fill="none" stroke="#000" stroke-linecap="round" stroke-linejoin="round" stroke-miterlimit="10" stroke-width=".5" d="M227.36328 480.86328l-6.94531-1.0664"/></g><g clip-path="url(#u)"><path fill="none" stroke="#000" stroke-linecap="round" stroke-linejoin="round" stroke-miterlimit="10" stroke-width=".5" d="M227.36328 480.86328l.8086 2.3164"/></g><g clip-path="url(#v)"><path fill="none" stroke="#000" stroke-linecap="round" stroke-linejoin="round" stroke-miterlimit="10" stroke-width=".5" d="M240.625 481.13281l-6.83984-1.60937"/></g><g clip-path="url(#w)"><path fill="none" stroke="#000" stroke-linecap="round" stroke-linejoin="round" stroke-miterlimit="10" stroke-width=".5" d="M240.625 481.13281l.625 2.3711"/></g><g clip-path="url(#x)"><path fill="none" stroke="#000" stroke-linecap="round" stroke-linejoin="round" stroke-miterlimit="10" stroke-width=".5" d="M239.6289 480.89844l.31641 1.1875"/></g><g clip-path="url(#y)"><path fill="none" stroke="#000" stroke-linecap="round" stroke-linejoin="round" stroke-miterlimit="10" stroke-width=".5" d="M253.95703 481.0586l-6.875-1.46094"/></g><g clip-path="url(#z)"><path fill="none" stroke="#000" stroke-linecap="round" stroke-linejoin="round" stroke-miterlimit="10" stroke-width=".5" d="M253.95703 481.0586l.67578 2.35937"/></g><g clip-path="url(#A)"><path fill="none" stroke="#000" stroke-linecap="round" stroke-linejoin="round" stroke-miterlimit="10" stroke-width=".5" d="M252.95703 480.84766l.33984 1.17968"/></g><g clip-path="url(#B)"><path fill="none" stroke="#000" stroke-linecap="round" stroke-linejoin="round" stroke-miterlimit="10" stroke-width=".5" d="M267.26953 481.0664l-6.86719-1.47656"/></g><g clip-path="url(#C)"><path fill="none" stroke="#000" stroke-linecap="round" stroke-linejoin="round" stroke-miterlimit="10" stroke-width=".5" d="M267.26953 481.0664l.67188 2.36329"/></g><g clip-path="url(#D)"><path fill="none" stroke="#000" stroke-linecap="round" stroke-linejoin="round" stroke-miterlimit="10" stroke-width=".5" d="M280.625 480.85156l-6.94922-1.04297"/></g><g clip-path="url(#E)"><path fill="none" stroke="#000" stroke-linecap="round" stroke-linejoin="round" stroke-miterlimit="10" stroke-width=".5" d="M280.625 480.85156l.8164 2.3125"/></g><g clip-path="url(#F)"><path fill="none" stroke="#000" stroke-linecap="round" stroke-linejoin="round" stroke-miterlimit="10" stroke-width=".5" d="M293.97656 480.21094l-7.02344.23437"/></g><g clip-path="url(#G)"><path fill="none" stroke="#000" stroke-linecap="round" stroke-linejoin="round" stroke-miterlimit="10" stroke-width=".5" d="M293.97656 480.21094l1.22266 2.1289"/></g><g clip-path="url(#H)"><path fill="none" stroke="#000" stroke-linecap="round" stroke-linejoin="round" stroke-miterlimit="10" stroke-width=".5" d="M307.26953 479.90625l-6.97656.84375"/></g><g clip-path="url(#I)"><path fill="none" stroke="#000" stroke-linecap="round" stroke-linejoin="round" stroke-miterlimit="10" stroke-width=".5" d="M307.26953 479.90625l1.40235 2.01172"/></g><g clip-path="url(#J)"><path fill="none" stroke="#000" stroke-linecap="round" stroke-linejoin="round" stroke-miterlimit="10" stroke-width=".5" d="M320.58594 479.9375l-6.98047.78125"/></g><g clip-path="url(#K)"><path fill="none" stroke="#000" stroke-linecap="round" stroke-linejoin="round" stroke-miterlimit="10" stroke-width=".5" d="M319.57031 480.05078l.69531 1.01172"/></g><g clip-path="url(#L)"><path fill="none" stroke="#000" stroke-linecap="round" stroke-linejoin="round" stroke-miterlimit="10" stroke-width=".5" d="M333.91797 480.52734l-7.01563-.39843"/></g><g clip-path="url(#M)"><path fill="none" stroke="#000" stroke-linecap="round" stroke-linejoin="round" stroke-miterlimit="10" stroke-width=".5" d="M332.89844 480.46875l.51172 1.11719"/></g><g clip-path="url(#N)"><path fill="none" stroke="#000" stroke-linecap="round" stroke-linejoin="round" stroke-miterlimit="10" stroke-width=".5" d="M347.17188 481.01953l-6.89063-1.3789"/></g><g clip-path="url(#O)"><path fill="none" stroke="#000" stroke-linecap="round" stroke-linejoin="round" stroke-miterlimit="10" stroke-width=".5" d="M346.16797 480.8164l.35156 1.17579"/></g><g clip-path="url(#P)"><path fill="none" stroke="#000" stroke-linecap="round" stroke-linejoin="round" stroke-miterlimit="10" stroke-width=".5" d="M360.25 481.76172l-6.41797-2.86328"/></g><g clip-path="url(#Q)"><path fill="none" stroke="#000" stroke-linecap="round" stroke-linejoin="round" stroke-miterlimit="10" stroke-width=".5" d="M373.3086 482.23438l-5.90626-3.8086"/></g><g clip-path="url(#R)"><path fill="none" stroke="#000" stroke-linecap="round" stroke-linejoin="round" stroke-miterlimit="10" stroke-width=".5" d="M381.13672 482.76563l5.0664-4.8711"/></g><g clip-path="url(#S)"><path fill="none" stroke="#000" stroke-linecap="round" stroke-linejoin="round" stroke-miterlimit="10" stroke-width=".5" d="M393.67969 481.51563l6.61328-2.375"/></g><g clip-path="url(#T)"><path fill="none" stroke="#000" stroke-linecap="round" stroke-linejoin="round" stroke-miterlimit="10" stroke-width=".5" d="M393.67969 481.51563l-1.8164-1.64844"/></g><g clip-path="url(#U)"><path fill="none" stroke="#000" stroke-linecap="round" stroke-linejoin="round" stroke-miterlimit="10" stroke-width=".5" d="M406.94922 481.38672l6.70312-2.11719"/></g><g clip-path="url(#V)"><path fill="none" stroke="#000" stroke-linecap="round" stroke-linejoin="round" stroke-miterlimit="10" stroke-width=".5" d="M407.92578 481.07813l-.875-.85938"/></g><g clip-path="url(#W)"><path fill="none" stroke="#000" stroke-linecap="round" stroke-linejoin="round" stroke-miterlimit="10" stroke-width=".5" d="M421.22266 482.89844l4.78906-5.14063"/></g><g clip-path="url(#X)"><path fill="none" stroke="#000" stroke-linecap="round" stroke-linejoin="round" stroke-miterlimit="10" stroke-width=".5" d="M440.08594 478.78125l-6.3086 3.09375"/></g><g clip-path="url(#Y)"><path fill="none" stroke="#000" stroke-linecap="round" stroke-linejoin="round" stroke-miterlimit="10" stroke-width=".5" d="M439.16797 479.23047l.9961.71875"/></g><g clip-path="url(#Z)"><path fill="none" stroke="#000" stroke-linecap="round" stroke-linejoin="round" stroke-miterlimit="10" stroke-width=".5" d="M453.6914 481.01172l-6.89062-1.36719"/></g><g clip-path="url(#aa)"><path fill="none" stroke="#000" stroke-linecap="round" stroke-linejoin="round" stroke-miterlimit="10" stroke-width=".5" d="M466.97656 481.15625L460.14844 479.5"/></g><g clip-path="url(#ab)"><path fill="none" stroke="#000" stroke-linecap="round" stroke-linejoin="round" stroke-miterlimit="10" stroke-width=".5" d="M147.48047 466.53516l-6.96094.95703"/></g><path fill="none" stroke="#000" stroke-linecap="round" stroke-linejoin="round" stroke-miterlimit="10" stroke-width=".5" d="M147.48047 466.53516l1.4375 1.99218m11.89062-1.89453l-6.98828.76172m6.98828-.76172l1.37891 2.03125m11.91797-2.16015l-6.95313 1.01953m6.95313-1.01953l1.45703 1.97656m11.89453-1.61719l-7.02344.30078m7.02344-.30078l1.24219 2.11328m-2.26563-2.07031l.6211 1.0586m13.69922-.59376l-6.98828-.71484m6.98828.71484l.92968 2.26954m12.33985-1.95313l-6.89453-1.34766m6.89453 1.34766l.71484 2.34766m12.625-2.4961l-6.94531-1.05078m6.94531 1.05078l.8164 2.3125m12.50782-2.3789l-6.96484-.91797m6.96484.91797l.86328 2.29687m12.41016-2.04687l-6.88281-1.41797m6.8828 1.41797l.69141 2.35547m12.63282-2.40235l-6.89844-1.32422m6.89844 1.32422l.72265 2.34375m12.64844-2.76172l-7.01172-.48828m7.01172.48828l1 2.24219m12.3086-2.8125l-6.9961.65234m6.9961-.65234l1.34765 2.05078m11.91016-2.4336l-6.88282 1.41798m6.88282-1.41797l1.5664 1.89062m11.4414-2.77343l-6.26562 3.18359m6.26563-3.1836l2.00781 1.41016m10.89063-2.04297l-5.4375 4.44922m4.64843-3.80078l1.13282.47266m12.58203-1.52735l-4.65625 5.26172m3.97656-4.4961l1.19531.28516m11.4414-1.79687l-1.9414 6.7539m1.66016-5.76953l1.19922-.2539m10.7539-.80078l1.34375 6.89453m9.50782-5.03516l6.26953 3.17578m-5.35547-2.71484l-.02344-1.22656m12.0664 1.98047l6.98829.74609m-5.97266-.63672l-.45703-1.14062m14.22656-1.46875l4.04688 5.74609m-3.45703-4.91016l.55469-1.09375m15.69921-.04687l-3.0078 6.35547m2.5703-5.4297l1.22266-.05858m14.49219 1.73828l-6.9336 1.14453m5.92579-.98047l.74218.97656m11.89063 2.46094l-3.55469-6.0586m18.04688 1.12891l-5.91016 3.80078m5.05078-3.2461l1.07031.59767"/><g clip-path="url(#ac)"><path fill="none" stroke="#000" stroke-linecap="round" stroke-linejoin="round" stroke-miterlimit="10" stroke-width=".5" d="M147.5 453.39063l-7 .61718"/></g><path fill="none" stroke="#000" stroke-linecap="round" stroke-linejoin="round" stroke-miterlimit="10" stroke-width=".5" d="M147.5 453.39063l1.33984 2.05468m11.97657-1.4336l-7-.6289m7 .6289l.95312 2.26173m12.375-2.57422h-7.02734m6.0039 0l.57422 1.08203m13.72266-.53906l-6.94531-1.08985m5.93359.9336l.40234 1.16015m13.80078-.48437l-6.69921-2.125m6.69922 2.125l.4414 2.41406m12.85156-2.35156l-6.65625-2.25m6.65625 2.25l.39844 2.42187m13.03516-2.85547l-6.89063-1.38671m6.89063 1.38672l.69922 2.35156m12.68359-3.15625l-7.02344.22656m7.02344-.22656l1.21875 2.1289m12.02734-1.32422l-6.89062-1.3828m6.89062 1.3828l.70313 2.35157m12.55469-2.10938l-6.77344-1.86719m6.77344 1.8672l.53515 2.39452m12.89844-3.0703l-7.00781-.51954m7.00781.51953l.98828 2.2461m12.32422-2.79297l-7.0039.57422m7.0039-.57422l1.32422 2.0664m11.69531-3.21484l-6.41406 2.8711m6.41406-2.8711l1.9375 1.50781m10.83594-2.35937l-5.33203 4.57422m5.33203-4.57422l2.28515.89453m10.01172-1.71094l-3.29296 6.20703m2.8125-5.30469h1.22656m11.7461-1.21093l-1.65235 6.82812m1.41406-5.83594l1.1875-.30468m12.30078-.70313l-1.51953 6.85938m1.51953-6.85938l2.36328-.66015m11.69531.91406l-3.0078 6.35156m2.5703-5.42578l1.22657-.0586m14.44922 1.53126l-6.85157 1.55468m5.85547-1.32812l.80078.92578m7.60157-2.85938l4.96484 4.96875m10.79688 1.02735l.07421-7.02735m-.0664 6.00782l-1.08594.5625m15.66016.23437l-2.46094-6.58203m18.02344 2.78906l-6.95704 1.00782m6.95704-1.00782l1.44921 1.98047m11.21485-3.5625l-5.65235 4.17188m5.65235-4.17188l2.21094 1.0586m10.75 3.51953l-4.94922-4.98828"/><g clip-path="url(#ad)"><path fill="none" stroke="#000" stroke-linecap="round" stroke-linejoin="round" stroke-miterlimit="10" stroke-width=".5" d="M147.35547 441.42969l-6.71094-2.09375"/></g><path fill="none" stroke="#000" stroke-linecap="round" stroke-linejoin="round" stroke-miterlimit="10" stroke-width=".5" d="M146.3789 441.125l.22657 1.20703m14.10937-1.0586l-6.79687-1.78124m5.8086 1.52344l.28124 1.1953m14.13281-1.73046l-7.02343-.19531m6.0039.16797l.54297 1.09765m13.35156.54297l-6.14062-3.42187m5.2461 2.92578l-.02344 1.22656m14.60156-1.72266l-6.8789-1.4375m5.8789 1.23047l.33984 1.17578m13.86719-.57422l-6.66406-2.22656m5.69531 1.90235l.20313 1.21093m13.6953-.08203l-5.89062-3.83594m5.03125 3.27735l-.10937 1.22265m14.6914-1.53515l-6.70703-2.09375m5.73047 1.78906l.22656 1.20703M254.01172 440l-6.98438.76953M254.01172 440l1.38281 2.02734m11.76953-2.76562l-6.65625 2.24219m6.65625-2.2422l1.78516 1.6875m11.25781-2.30077l-6.11328 3.46875m6.11328-3.46875l2.07031 1.3164M293.4336 438.5L287.5 442.26563m5.9336-3.76563l2.1328 1.21484m11.32813-.95703l-6.22656 3.2539m6.22656-3.2539l2.02344 1.38672m-2.92969-.91406l1.01172.6914m12.96484-1.5703l-5.73437 4.0625m5.73437-4.0625l2.19141 1.10156m-3.02734-.50782l1.09765.55078m12.78516-1.47265l-5.20313 4.71875m5.20313-4.71875l2.3086.83203m-3.0625-.14453l1.15234.41406m12.6289-1.38672l-4.625 5.28906m4.625-5.28906l2.39063.5586m10.44922-.91016l-3.67578 5.99219m3.67578-5.9922l2.44922.15235m8.74609-.65625l.5625 7.0039m-.5625-7.0039l2.0664-1.32422m8.63672 2.82813l5.78516 3.99219m-5.78516-3.9922l.28516-2.4375m12.78516 6.01173l6.27734-3.15625m-5.36328 2.69922l-1.0039-.71094m15.04296 2.76562l3-6.35156m-3 6.35156l-2.45312.1172m17.16797.21874l.19921-7.02344m-.19921 7.02344l-2.19922 1.08984m18.16015-2.17578l-5.08984-4.84765m5.08984 4.84765l-.66015 2.36328m14.9414-4.6289l-7.01953-.32031m5.9961.27343l.52734 1.10938m11.47656 2.08984l-2.35156-6.6211m2.00781 5.65626l-.82812.90625"/><g clip-path="url(#ae)"><path fill="none" stroke="#000" stroke-linecap="round" stroke-linejoin="round" stroke-miterlimit="10" stroke-width=".5" d="M147.39453 427.96875l-6.78906-1.80078"/></g><path fill="none" stroke="#000" stroke-linecap="round" stroke-linejoin="round" stroke-miterlimit="10" stroke-width=".5" d="M147.39453 427.96875l.5625 2.38672m12.84766-2.88672l-6.98047-.80078m5.96484.6836l.44922 1.14452m13.90625-1.36328l-7.02734-.1289m6.0039.10937l.5547 1.09375m12.67577 1.42188l-4.8125-5.1211m4.11328 4.375l-.39453 1.16406m14.84766-.91796l-5.6914-4.1211m4.86327 3.51953l-.16797 1.21875m14.73829-1.39453l-6.54297-2.5664m5.58984 2.1914l.14063 1.21875m14.34375-1.71875l-6.97657-.8125m5.96094.6914l.44922 1.14454m13.58984.02344l-6.39453-2.91016m5.46485 2.48438l.07812 1.22656m14.46875-2.57813l-6.9961.64454M253 426.83983l.67578 1.02735m13.59766-1.53125l-6.875 1.46484m6.875-1.46484l1.57812 1.875m11.66406-2.15235l-6.73046 2.01953m6.73047-2.01953l1.72656 1.7422m11.3789-2.28126l-6.30859 3.09766m6.3086-3.09766l1.98827 1.4375m10.98438-1.99219l-5.625 4.20703m5.625-4.20703l2.22266 1.04688m10.07421-1.96485l-3.58593 6.04297m3.58594-6.04297l2.44921.11329m11.64844.51953l-5.15234 4.77734m5.15234-4.77734l2.3164.80468m-3.0664-.10937l1.16016.40234m13.15234-.80078l-5.64844 4.1836m5.64844-4.1836l2.21485 1.0586m11.1289-1.01954l-5.70703 4.10547m5.70703-4.10547l2.19922 1.08594m7.46484-2.45312l1.59375 6.84375m-1.36328-5.85157l.92578-.80468m9.83204 1.625l6.25 3.21484m-6.25-3.21484l-.03125-2.45313m14.21093 6.75l4.51953-5.3789m-3.86328 4.59765l-1.19922-.25781m19.03516-3.60547l-5.83594 3.91406m5.83594-3.91406l2.16406 1.15625m10.5625-1.83203l-4.65625 5.26172m4.65625-5.26172l2.38672.57422m-3.0625.1914l1.1914.28516m12.08985-1.53906l-3.23828 6.23828m3.23828-6.23828l2.45313-.02344m-2.92579.9336l1.22657-.01172m13-.625l-4.11719 5.6914m4.11719-5.6914l2.42969.33593m11.39062.10547l-5.125 4.8086"/><g clip-path="url(#af)"><path fill="none" stroke="#000" stroke-linecap="round" stroke-linejoin="round" stroke-miterlimit="10" stroke-width=".5" d="M466.125 424.66406l2.32031.79297"/></g><path fill="none" stroke="#000" stroke-linecap="round" stroke-linejoin="round" stroke-miterlimit="10" stroke-width=".5" d="M465.3789 425.36328l2.32032.79297"/><g clip-path="url(#ag)"><path fill="none" stroke="#000" stroke-linecap="round" stroke-linejoin="round" stroke-miterlimit="10" stroke-width=".5" d="M147.33203 414.86328l-6.66406-2.22265"/></g><path fill="none" stroke="#000" stroke-linecap="round" stroke-linejoin="round" stroke-miterlimit="10" stroke-width=".5" d="M146.36328 414.54297l.20313 1.20703m14.24218-1.60547l-6.98437-.78125m5.96484.66797l.45313 1.14063m13.82422-2.14454l-6.875 1.45313m5.875-1.24219l.78906.9414m13.58594-.08984l-6.9922-.67187m5.97657.57422l.46875 1.13281m13.69922-2.48047l-6.66797 2.21875m5.69922-1.89453l.88672.84375m12.34766-2.72656l-4.57032 5.33593m3.90625-4.5625l1.19922.26954m11.98438-1.5586l-2.97657 6.36719m2.54297-5.4414l1.22656-.0625m12.11329 5.66406l-2.16016-6.6875m2.16016 6.6875l-1.71094 1.76171m15.97266-2.23437l-4.0547-5.74219m3.46485 4.90625l-.55078 1.09375m15.35547-1.1836l-5.85156-3.89062m5 3.32422l-.1211 1.22266m14.86328-2.33203l-7.0039-.54297m7.0039.54297l.98047 2.25m12.27735-3.20313l-6.89063 1.36719m6.89063-1.36719l1.55468 1.89844m11.80078-1.64844l-6.97265.86719m5.96094-.74219l.70312 1.0039m11.40234-3.97265l-2.52734 6.55469m2.16016-5.60156l1.21875-.14844m14.21093.66016l-6.02343 3.62109m6.02343-3.6211l2.10547 1.26563m11.63282-.1914l-6.8672 1.47656m6.8672-1.47657l1.58203 1.875m11.8125-1.20703l-7.02735.14063m7.02735-.14063l1.19531 2.14063m11.26172-4.375l-5.3086 4.60547m5.3086-4.60547l2.28906.88281m-3.0625-.21094l2.28906.88282m11.88672-1.44532l-5.48828 4.38672m5.48828-4.38672l2.2539.97266m-3.05077-.33203l2.2539.97265m12.1172-1.24609l-6.00392 3.65625m6.00391-3.65625l2.10938 1.25m-2.98438-.71875l2.11328 1.2539m11.73047-2.2578l-5.3125 4.59765m5.3125-4.59766l2.28906.88672m-3.05859-.21484l2.28516.88281m-3.0586-.21484l1.14063.4414m13.25-2.23046l-4.3789 5.49609m4.3789-5.4961l2.41406.44922m-3.05078.35157l1.20703.22265m12.65234-1.09375l-4.1914 5.64063m4.1914-5.64063l2.42578.3711m-3.03515.44922l1.21484.18359m12.46094-1.17188l-3.69531 5.97657m3.69531-5.97657l2.44922.16016m10.96875-.09766l-3.89844 5.84766"/><g clip-path="url(#ah)"><path fill="none" stroke="#000" stroke-linecap="round" stroke-linejoin="round" stroke-miterlimit="10" stroke-width=".5" d="M465.51172 410.82813l2.4414.24609"/></g><path fill="none" stroke="#000" stroke-linecap="round" stroke-linejoin="round" stroke-miterlimit="10" stroke-width=".5" d="M464.94531 411.67969l2.4414.2461"/><g clip-path="url(#ai)"><path fill="none" stroke="#000" stroke-linecap="round" stroke-linejoin="round" stroke-miterlimit="10" stroke-width=".5" d="M146.71094 402.67188l-5.42188-4.46875"/></g><path fill="none" stroke="#000" stroke-linecap="round" stroke-linejoin="round" stroke-miterlimit="10" stroke-width=".5" d="M145.92188 402.02344l-.2461 1.20312m14.96094-1.64062l-6.64063-2.29688m5.67188 1.96485l.1914 1.21093m11.0586-5.52734l-.57422 7.0039m11.96094-6.60937l3.28125 6.21485m15.13281-2.5l-6.91797-1.21875m16.09375 4.05859l1.35938-6.89453m-1.16016 5.89062l-1.17578.35547m18.05078-4.4961l-6.15625 3.39063m5.26172-2.89453l1.02344.66797m13.59375.98438l-6.96875-.90625m5.95312.77343l.4336 1.14844m10.96484 2l-1.10938-6.9375m.94922 5.92969l-.98047.73828m16.94141-1.4375l-6.07813-3.52344m5.19532 3.01172l-.04688 1.22656m14.64453-1.75781l-6.8789-1.4336m6.8789 1.4336l.6875 2.35547m-1.6875-2.5664l.34375 1.17968m14.04688-1.6211l-7.02735-.1328m7.02735.1328l1.10937 2.1875m11.9297-3.60937l-6.48048 2.71485m6.48047-2.71485l1.90234 1.55078m11.45704-1.44922l-6.56641 2.50782m6.5664-2.50782l1.84766 1.61329m11.64844-.94532l-6.92969 1.17188m5.92188-1l.75.97265m12.78125-2.83984l-5.34375 4.5625m18.58203.08594l-5.1914-4.73438m4.4375 4.04688l-.3047 1.1875m14.71875-4.78906l-5.8789 3.84765m5.8789-3.84765l2.14844 1.17968m-3.0039-.6211l1.07421.58985m12.86329-1.46484l-5.41407 4.48047m5.41407-4.48047l2.26562.9336m-3.05469-.28516l2.26953.9375m12.2461-.96875l-6.23828 3.24218m6.23828-3.24218l2.01953 1.39062m-2.92969-.91797l2.02344 1.39063m12.26953-1.72266l-6.375 2.96094m6.375-2.96094l1.95703 1.48047m-2.88281-1.04688l.97656.73829m13.08203-1.51172l-6.01172 3.64062m6.01172-3.64062l2.10938 1.25781m-2.98438-.72656l1.0547.6289m12.85937-1.55468l-5.45704 4.42968m5.45704-4.42968l2.2578.95703m-3.05077-.3125l1.1289.48047m13.42578-.41797l-6.34765 3.01562m6.34765-3.01562l1.96875 1.46484m-2.89453-1.02344l.98438.73047m12.84375-1.83203l-5.52735 4.33985"/><g clip-path="url(#aj)"><path fill="none" stroke="#000" stroke-linecap="round" stroke-linejoin="round" stroke-miterlimit="10" stroke-width=".5" d="M466.32422 398.26953l2.2461.99219"/></g><path fill="none" stroke="#000" stroke-linecap="round" stroke-linejoin="round" stroke-miterlimit="10" stroke-width=".5" d="M465.51953 398.89844l1.125.4961"/><g clip-path="url(#ak)"><path fill="none" stroke="#000" stroke-linecap="round" stroke-linejoin="round" stroke-miterlimit="10" stroke-width=".5" d="M146.57031 389.51563l-5.14062-4.78516"/></g><path fill="none" stroke="#000" stroke-linecap="round" stroke-linejoin="round" stroke-miterlimit="10" stroke-width=".5" d="M145.82422 388.82031l-.3164 1.1875m15.29296-2.42969l-6.96875-.90625m5.95313.77344l.43359 1.14844m13.20703-3.59766l-5.59375 4.25391m4.78125-3.63281l1.11328.51172m13.5664 2.05468l-6.6953-2.12109m13.15625.84375l7.01172.4375m-5.9922-.375l-.5078-1.11719m15.1914 4.60156l2.23828-6.66015m-2.23828 6.66015l-2.42187.40235m19.6289-1.57813l-5.54687-4.30859m4.74219 3.6836l-.21094 1.20702m15.0625-2.51562l-7.01172-.4414m5.99219.3789l.5078 1.11719m13.82032-1.57813l-7 .60547m7-.60547l1.33594 2.0586m-2.35156-1.97266l.66406 1.03125m13.67969-.96094l-7.02344.29297m7.02344-.29297l1.23828 2.11719m-2.26172-2.07422l.6211 1.0586m13.71484-1.08204l-7.01953.25391m7.01953-.2539l1.23047 2.125m-2.25-2.08594l.61328 1.05859m13.69922-1.40625l-6.97266.875m6.97265-.875l1.41016 2.0039m-2.42578-1.8789l.70703 1.0039m13.13672-2.51952l-6.0039 3.65234m6.0039-3.65235l2.11328 1.25391m11.67969.07813l-6.95703.98828m6.95703-.98828l1.44531 1.98437m-2.45703-1.83984l.72266.99219m12.9453-2.73829l-5.64062 4.19141m5.64063-4.1914l2.21875 1.05077m11.64062.03125l-6.72656 2.03125m6.72656-2.03125l1.73047 1.73829m-2.71094-1.44532l1.73047 1.7422m12.65625-1.65626l-6.91015 1.27344m6.91015-1.27344l1.52735 1.92188m-2.53125-1.73829l.76172.96094m13.1328-2.28906l-6.05858 3.5586m6.05859-3.5586l2.08984 1.28516m-2.97265-.76563l2.08984 1.28516m12.09766-1.82031l-6.03907 3.58984m6.03907-3.58985l2.09765 1.27344m-2.97656-.75l2.09766 1.27344m11.91406-2.07422l-5.67578 4.14453m5.67578-4.14453l2.20703 1.07031m-3.03516-.46875l2.21094 1.07032m11.91406-1.69532l-5.64062 4.19141m5.64062-4.1914l2.21875 1.05468m-3.03906-.44531l1.10938.52734m12.99609-1.17578l-5.58203 4.26953m5.58203-4.26953l2.23047 1.02344m-3.04297-.40235l1.11719.51172m12.96875-1.1875l-5.4961 4.37891m5.4961-4.3789l2.25.98046m-3.05078-.34375l1.1289.49219m13.60547.05078l-6.73047 2.01953m6.73047-2.01953l1.72656 1.74219m-2.70703-1.44922l.86328.8711m13.17579-1.78516l-6.22266 3.26172"/><g clip-path="url(#al)"><path fill="none" stroke="#000" stroke-linecap="round" stroke-linejoin="round" stroke-miterlimit="10" stroke-width=".5" d="M466.67188 385.49219l2.02734 1.38281"/></g><path fill="none" stroke="#000" stroke-linecap="round" stroke-linejoin="round" stroke-miterlimit="10" stroke-width=".5" d="M465.76953 385.96484l1.01172.69532"/><g clip-path="url(#am)"><path fill="none" stroke="#000" stroke-linecap="round" stroke-linejoin="round" stroke-miterlimit="10" stroke-width=".5" d="M146.1211 376.60938l-4.2422-5.60157"/></g><path fill="none" stroke="#000" stroke-linecap="round" stroke-linejoin="round" stroke-miterlimit="10" stroke-width=".5" d="M145.5039 375.79297l-.51562 1.11328m15.44922-1.48438l-6.24219-3.22656m6.24219 3.22656l.02734 2.45313m13.36328-5.52344l-6.39453 2.91406m5.46485-2.48828l.97265.7461m11.1797-3.05078l-2.21095 6.67187m1.89063-5.69922l1.21094-.20703m9.45703-.41015l3.72265 5.96093m-3.17968-5.09375l.61328-1.0625m16.96484 5.08985l-5.89062-3.83204m5.89062 3.83204l-.21484 2.4453m13.03125-1.83593l-4.89063-5.04687m4.89063 5.04687l-.7539 2.33594m.04296-3.07031l-.3789 1.16796m15.11718-1.41796l-6.3164-3.07813m6.3164 3.07813l.08594 2.45312m-1.0039-2.90234l.04296 1.22656m14.3711-1.22656l-6.6797-2.17969m6.6797 2.17969l.42187 2.41797m-1.39453-2.73438l.21484 1.20703m13.98047-.63672l-6.49219-2.6875m6.4922 2.6875l.23827 2.44141m-1.1836-2.83203l.1172 1.21875m14.38672-1.78125l-6.98047-.78516m6.98047.78516l.90234 2.28515m-1.91797-2.39843l.45313 1.14062m13.90234-1.38281l-7.02734-.07031m7.02734.07031l1.1289 2.17969m-2.15234-2.1914l1.1289 2.17968m13.14845-2.83985l-6.91016 1.27344m6.91016-1.27344l1.52734 1.92188m-2.53125-1.73828l.76172.96094m13.48437-1.46094l-6.76172 1.90625m6.76172-1.90625l1.69922 1.77344m-2.6836-1.4961l.85157.88672m13.3164-1.54297l-6.5 2.66406m6.5-2.66406l1.89063 1.5664m-2.83594-1.17968l.94532.78516m13.45312-.76953l-6.77344 1.85937m6.77344-1.85937l1.6836 1.78125m-2.66797-1.51172l1.68359 1.78515m12.6211-2.03515l-6.78516 1.8164m6.78515-1.8164l1.67579 1.79687m-2.66016-1.53125l1.67187 1.79688m12.60157-2.16406l-6.73047 2.01953m6.73047-2.01954l1.72656 1.7461m-2.70703-1.44922l1.72656 1.74219m12.53906-2.125l-6.67578 2.19531m6.67578-2.19531l1.77344 1.69922m-2.74219-1.37891l.88282.84766m13.4453-1.02735l-6.76171 1.91406m6.76172-1.91406l1.69922 1.76953m-2.6836-1.49218l1.69922 1.76953m12.57422-2.13281l-6.71094 2.08203m6.71094-2.08204l1.74219 1.73047m-2.71875-1.42578l1.74219 1.72656m12.41406-2.39453l-6.4414 2.8086m6.4414-2.8086l1.92187 1.52735m-2.85937-1.11719l.96094.76172m12.7578-2.03125l-5.37109 4.52734m5.3711-4.52734l2.27734.91406m-3.0586-.2539l1.14063.45703m12.89453-1.1875l-5.25 4.67187m5.25-4.67187l2.30079.85156m10.92578-.94531l-5.07422 4.85937"/><g clip-path="url(#an)"><path fill="none" stroke="#000" stroke-linecap="round" stroke-linejoin="round" stroke-miterlimit="10" stroke-width=".5" d="M466.09766 371.3789l2.33203.76563"/></g><g clip-path="url(#ao)"><path fill="none" stroke="#000" stroke-linecap="round" stroke-linejoin="round" stroke-miterlimit="10" stroke-width=".5" d="M145.58594 363.6289l-3.17188-6.27343"/></g><g clip-path="url(#ap)"><path fill="none" stroke="#000" stroke-linecap="round" stroke-linejoin="round" stroke-miterlimit="10" stroke-width=".5" d="M145.58594 363.6289l-1.41406 2.00391"/></g><path fill="none" stroke="#000" stroke-linecap="round" stroke-linejoin="round" stroke-miterlimit="10" stroke-width=".5" d="M159.74219 363.03516l-4.85156-5.08204m4.85156 5.08204l-.77344 2.32812m15.15234-4.46875l-6.98047-.80469m6.98047.8047l.89453 2.28515m11.97266-.92969l-6.08594-3.51172m5.19922 3l-.03906 1.22656m14.375-.97656l-6.35547-2.99219m6.35547 2.9922l.1211 2.45312m13.3164-2.73829l-6.59766-2.42187m6.59766 2.42188l.33203 2.43359m12.42188-1.4414l-5.47657-4.40235m5.47657 4.40234l-.45703 2.41016m-.33985-3.05078l-.23047 1.20312m14.54688-.84375l-5.88672-3.83984m5.88672 3.83984l-.21875 2.44531m-.63672-3.0039l-.10938 1.22265m14.65625-1.43359l-6.63672-2.30469m6.63672 2.3047l.375 2.42577m13.07813-2.95312l-6.91406-1.2461m6.91406 1.2461l.75 2.33594m-1.7539-2.51954l.74609 2.33985m13.59765-2.30078l-6.96094-.96094m6.96094.96094l.84375 2.30468m-1.85937-2.4414l.84375 2.30078m13.5039-2.3125l-6.99609-.66016m6.9961.66016l.9414 2.26562m-1.96094-2.36328l.94531 2.26563m13.39844-2.66797l-7.01953.33594m7.01953-.33594l1.2539 2.10937m-2.27343-2.05859l1.2539 2.10938m13.01563-2.6836l-6.88672 1.38281m6.88672-1.3828l1.5586 1.89843m-2.5586-1.69531l1.55469 1.89453m12.82812-1.55469l-7.01953.30078m7.01953-.30078l1.2422 2.11328m-2.26563-2.07031l1.2461 2.11719m13.0664-2.44532l-6.97266.8672m6.97266-.8672l1.41015 2.00782m-2.42187-1.87891l.70312 1.0039m13.6211-1.17187l-6.96485.94531m6.96485-.9453l1.4336 1.99218m-2.44923-1.85547l1.4336 1.99219m12.75-2.76172l-6.67188 2.21094m6.67188-2.21094l1.77343 1.69531m-2.74218-1.3711l1.77343 1.69141m-2.74609-1.37109l.88672.84766m14.17187-1.96485l-6.27734 3.16016m6.27734-3.16016l2.00391 1.41797m-2.91797-.96094l2.0039 1.41797m-2.91406-.95703l1 .71094m14.21485-1.47266l-6.42578 2.84766m6.42578-2.84766l1.92969 1.51563m-2.86329-1.10156L401.19532 361m12.36718-1.8125l-6.52344 2.61328m6.52344-2.61328l1.875 1.58203m-2.82422-1.20312l1.875 1.58203m12.44531-1.8164l-6.6328 2.3203m6.6328-2.3203l1.80078 1.66405m-2.76562-1.32421l1.80078 1.66406m12.11328-2.75l-5.90234 3.8125m5.90234-3.8125l2.14453 1.19531m-3.0039-.64063l1.07031.59766m13.3164-.77734l-6.32421 3.0625m6.32422-3.0625l1.98046 1.44922m-2.90234-1.00391l1.98047 1.44922m12.2539-1.89453l-6.32421 3.0625"/><g clip-path="url(#aq)"><path fill="none" stroke="#000" stroke-linecap="round" stroke-linejoin="round" stroke-miterlimit="10" stroke-width=".5" d="M466.72266 358.96094l1.98046 1.44922"/></g><path fill="none" stroke="#000" stroke-linecap="round" stroke-linejoin="round" stroke-miterlimit="10" stroke-width=".5" d="M465.80469 359.40625l.98828.72656"/><g clip-path="url(#ar)"><path fill="none" stroke="#000" stroke-linecap="round" stroke-linejoin="round" stroke-miterlimit="10" stroke-width=".5" d="M145.48047 350.36328l-2.96094-6.3711"/></g><g clip-path="url(#as)"><path fill="none" stroke="#000" stroke-linecap="round" stroke-linejoin="round" stroke-miterlimit="10" stroke-width=".5" d="M145.48047 350.36328L144 352.32031"/></g><path fill="none" stroke="#000" stroke-linecap="round" stroke-linejoin="round" stroke-miterlimit="10" stroke-width=".5" d="M160.15625 349.2461l-5.6836-4.13673m5.6836 4.13672l-.34375 2.4297m14.01172-3.03126l-6.38672-2.9336m6.38672 2.9336l.14062 2.44922m-1.0703-2.875l.0703 1.22266m13.6836-.01954l-5.41016-4.48437m5.41016 4.48438l-.49219 2.40234m14.5625-4.02735l-6.91797-1.23828m5.91016 1.0586l.3789 1.16797m13.8672-.64844l-6.76173-1.91797m6.76172 1.91797l.51563 2.39844m-1.5-2.67579l.2578 1.19922m13.94923-.64453l-6.57813-2.47265m6.57813 2.47265l.3125 2.4336m-1.26953-2.79297l.3125 2.4336m13.84765-1.8125l-6.35547-2.9961m6.35547 2.9961l.1211 2.44921m-1.04297-2.88672l.0586 1.22656m14.42577-1.5l-6.84765-1.57421m6.84765 1.57421l.63672 2.3672m-1.63281-2.59767l.32031 1.1836m13.99219-.95313l-6.85156-1.5703m6.85156 1.5703l.63672 2.3672m-1.63282-2.59767l.63672 2.3711m13.70703-2.3164l-6.91796-1.21876m6.91797 1.21875l.76171 2.33203m-1.76562-2.51171l.75781 2.33593m13.61328-2.61328l-7.01953-.3086m7.01953.3086l1.05469 2.21485m-2.07813-2.26172l1.0586 2.21484m13.28125-2.45703l-7.02344.26953m7.02344-.26953l1.23437 2.1211m-2.2578-2.08204l.61718 1.0586m13.72265-1.06641l-7.02734.20703m7.02734-.20703l1.21485 2.1289m-2.23828-2.09765l.60937 1.0625m13.69922-1.4375l-6.96875.89453m6.96875-.89453l1.41797 2.0039m-2.42969-1.87109l1.41797 2m12.8711-2.375l-6.89063 1.3789m6.89062-1.3789l1.5547 1.89844m-2.5586-1.69531l1.55469 1.89843m12.82812-1.61328l-7.01562.40235m7.01562-.40235l1.27344 2.09766m-2.29688-2.03906l1.27344 2.09765m13.04297-2.38672l-6.97266.86329m6.97266-.86329l1.41016 2.00782m-2.42579-1.88282l1.41016 2.00782m-2.42578-1.88282L372.51953 348m14.47656-1.95703l-6.65234 2.26953m6.65234-2.26953l1.78907 1.67969m-2.75782-1.34766l1.79297 1.67969m-2.75781-1.35156l.89453.83984M400.07422 345.5l-6.17578 3.35547m6.17578-3.35547l2.04687 1.35156m-2.9453-.86328l2.04687 1.35156m12.17187-1.83203l-6.1836 3.33985m6.1836-3.33985l2.04297 1.35938m-2.94531-.8711l2.04297 1.35938m-2.94141-.875l1.02344.67969m13.89453-1.97266l-5.78906 3.98047m5.78906-3.98047l2.17578 1.13281m-3.01953-.55469l2.17969 1.13282m-3.01954-.55078l1.08594.5664M439.6875 345l-5.51172 4.35547M439.6875 345l2.2461.98438m-3.04688-.35157l2.2461.98438m12.27343-.97266l-6.32031 3.07031m6.32031-3.0703l1.98437 1.4453m-2.90234-1l.99219.72266m13.28906-1.0664l-6.41797 2.86327"/><g clip-path="url(#at)"><path fill="none" stroke="#000" stroke-linecap="round" stroke-linejoin="round" stroke-miterlimit="10" stroke-width=".5" d="M466.76953 345.7461l1.9336 1.51171"/></g><g clip-path="url(#au)"><path fill="none" stroke="#000" stroke-linecap="round" stroke-linejoin="round" stroke-miterlimit="10" stroke-width=".5" d="M465.83594 346.16406l1.9336 1.50781"/></g><g clip-path="url(#av)"><path fill="none" stroke="#000" stroke-linecap="round" stroke-linejoin="round" stroke-miterlimit="10" stroke-width=".5" d="M146.29297 336.52734l-4.58594-5.32812"/></g><path fill="none" stroke="#000" stroke-linecap="round" stroke-linejoin="round" stroke-miterlimit="10" stroke-width=".5" d="M146.29297 336.52734l-.89063 2.28516m.22266-3.0625l-.44531 1.14453m15.26953-1.44531l-6.26953-3.17188m6.26953 3.17188l.05469 2.45312m-.96485-2.91406l.05078 2.45313m13.73828-1.32813l-5.39843-4.5m5.39844 4.5l-.50391 2.40235m-.28125-3.0586l-.25 1.20313m14.66797-.9961l-6.03125-3.60156m6.03125 3.60156l-.1211 2.45313m-.7578-2.97656l-.0586 1.22656m14.64844-1.65625l-6.82032-1.69531m6.82031 1.6953l.59375 2.37891m-1.58593-2.625l.29687 1.1875m14.09766-1.46484l-6.9961-.64844m6.9961.64844l.94922 2.26172m-1.96875-2.35938l.94922 2.26563m-1.96485-2.35938l.47266 1.13282m14.82422-.57813l-6.89063-1.375m6.89063 1.375l.70703 2.34766m-1.71094-2.54688l.70703 2.34766m13.39063-1.44531l-6.44922-2.78125m6.44922 2.78125l.20312 2.4453m-1.14062-2.84765l.19922 2.44531m14.10937-2.17187l-6.5586-2.52344m6.5586 2.52344l.29297 2.4375m-1.25-2.80469l.29688 2.4375m14.11718-2.53906l-6.84375-1.58984m6.84375 1.58984l.63281 2.3711m-1.6289-2.60157l.3164 1.1875m13.97657-.8711l-6.80469-1.7578m6.80469 1.7578l.57422 2.38282m-1.56641-2.64063l.28906 1.19532m14.07813-1.22656l-6.92578-1.1797m6.92578 1.1797l.76953 2.33203m-1.77734-2.50391l.38671 1.16406m13.96094-1.16015l-6.97656-.84375m6.97656.84375l.88281 2.28906m12.45704-2.8164l-7.02735.20702m7.02735-.20703l1.21484 2.13281m-2.23828-2.10156l.60937 1.0664m13.71875-.73046l-7.00781-.52344m7.00781.52344l.98828 2.25m-2.0078-2.32422l.49218 1.1211m13.82422-1.76954l-6.96875.91797m6.96875-.91797l1.42187 2m-2.4375-1.86328l.71485.9961m13.58593-.03516l-6.91015-1.27344m6.91015 1.27344l.7422 2.33984m12.58593-3.53515l-6.9375 1.11719m6.9375-1.1172l1.48047 1.95704m-2.48828-1.79297l.73828.97656m13.57031-1.22265l-6.91016 1.28125m6.91016-1.28125l1.52734 1.91796m-2.53125-1.73046l.76172.95703m13.55078-1.17969l-6.89453 1.35156m6.89453-1.35156l1.54688 1.90625m11.44531-2.83594l-6.25 3.21094m6.25-3.21094l2.01563 1.40235m-2.92578-.9336l1.0078.69922m13.04298-1.46875l-5.90235 3.8125m5.90235-3.8125l2.14453 1.19531m-3.0039-.64062l1.07421.59765m12.67969-1.6875l-5.0586 4.88282m5.0586-4.88281l2.33203.76171m-3.07031-.05078l2.33593.75781m12.27735-.69921l-6.17969 3.34375m6.17969-3.34375l2.04297 1.35546m-2.94141-.87109l2.04297 1.35547m12.1875-1.8086l-6.21484 3.28126"/><g clip-path="url(#aw)"><path fill="none" stroke="#000" stroke-linecap="round" stroke-linejoin="round" stroke-miterlimit="10" stroke-width=".5" d="M466.66797 332.22266l2.03125 1.3789"/></g><g clip-path="url(#ax)"><path fill="none" stroke="#000" stroke-linecap="round" stroke-linejoin="round" stroke-miterlimit="10" stroke-width=".5" d="M465.76563 332.69922l2.02734 1.3789"/></g><g clip-path="url(#ay)"><path fill="none" stroke="#000" stroke-linecap="round" stroke-linejoin="round" stroke-miterlimit="10" stroke-width=".5" d="M142.53516 323.74219l2.92968-6.38672"/></g><path fill="none" stroke="#000" stroke-linecap="round" stroke-linejoin="round" stroke-miterlimit="10" stroke-width=".5" d="M160.64844 321.66016l-6.66797-2.22266m6.66797 2.22266l.40625 2.41796m13.00781-2.77343l-6.86328-1.51172m6.86328 1.51172l.66016 2.36328m-1.66016-2.58594l.66016 2.36328m13.39843-1.39453l-6.35156-3.0039m6.35156 3.0039l.1172 2.44922m-1.03907-2.88672l.11328 2.44922m14.19922-2.17969l-6.5039-2.66797m6.5039 2.66797l.24219 2.4414m-1.1875-2.83202l.24218 2.4414m14.28125-3.4414l-7.02734.10937m7.02734-.10937l1.1836 2.14844m-2.20703-2.13282l1.18359 2.14844m13.1211-2.60156l-6.96094.98437m6.96093-.98437l1.44141 1.98437m-2.45703-1.83984l1.44531 1.98437m12.89844-1.26171l-6.98828-.75m6.98828.75l.91406 2.27734m-1.92969-2.38672l.91407 2.27734m13.3164-1.6289l-6.78515-1.82813m6.78515 1.82813l.54688 2.39062m-1.53516-2.65625l.27344 1.19531m13.98047-.76171l-6.6875-2.16407m6.6875 2.16407l.42969 2.41796m-1.40235-2.73046l.21485 1.20703m14.03906-.79297l-6.6211-2.36328m6.6211 2.36328l.35547 2.42578m-1.32032-2.76953l.1797 1.21094m14.27733-1.61329l-6.97265-.875m6.97265.875l.8711 2.29297m12.46484-2.89453l-7.01953.33203m7.01953-.33203l1.2539 2.10938m-2.27343-2.0625l.625 1.05469m13.71094-.76172l-7.01953-.34766m7.01953.34766l1.04297 2.21875m12.15625-3.30079l-6.78907 1.81641m6.78907-1.8164l1.67187 1.79296m11.29297-2.63671l-6.08984 3.5039m6.08984-3.5039l2.08203 1.30078m10.49219-2.20313l-4.60547 5.3086m4.60547-5.3086l2.39062.54688m11.8047.62109l-6.3672 2.97266m6.3672-2.97266l1.96093 1.47266m11.625-.62891l-6.90625 1.28516m6.90625-1.28516l1.52734 1.91797m11.35157-3.07813l-6.03516 3.60157m6.03516-3.60157l2.09765 1.26954m10.73828-1.89844l-5.07812 4.85937m5.07812-4.85937l2.32813.76953m10.51953-1.17578l-4.14063 5.67578m4.14063-5.67578l2.42969.34375m11.91406.83984l-6.19922 3.3086m5.29688-2.82813l1.01953.6836m13.38672-.75l-6.57813 2.47656m6.57813-2.47657l1.83984 1.6211m-2.79688-1.26172l1.83985 1.6211m11.98047-2.8125l-5.67578 4.14452"/><g clip-path="url(#az)"><path fill="none" stroke="#000" stroke-linecap="round" stroke-linejoin="round" stroke-miterlimit="10" stroke-width=".5" d="M466.39844 318.47656l2.20703 1.07031"/></g><g clip-path="url(#aA)"><path fill="none" stroke="#000" stroke-linecap="round" stroke-linejoin="round" stroke-miterlimit="10" stroke-width=".5" d="M465.57422 319.07813l2.20703 1.0703"/></g><path fill="#00f" fill-rule="evenodd" d="M383.80078 436.57813h8.61719v-10.14454h-8.61719v10.14454"/><path fill="azure" fill-rule="evenodd" d="M385.63281 428.26563h.83203v2.82421h3.28907v-2.82421h.83203v6.48046h-.83203v-2.91406h-3.28907v2.91406h-.83203v-6.48046"/><path fill="#ff3030" fill-rule="evenodd" d="M371.17969 418.82813h7.6914v-10.14844h-7.6914v10.14844"/><path fill="azure" fill-rule="evenodd" d="M373.01172 410.51172h.83594v5.74219h3.1914v.73828h-4.02734v-6.48047"/><path fill="#00f" fill-rule="evenodd" d="M219.58203 414.38672h8.61719v-10.14453h-8.61719v10.14453"/><path fill="azure" fill-rule="evenodd" d="M221.41406 406.07422h.83203v2.82422h3.28907v-2.82422h.83203v6.48047h-.83203v-2.91406h-3.28907v2.91406h-.83203v-6.48047"/><path fill="#ff3030" fill-rule="evenodd" d="M291.28906 409.94922h7.6914v-10.14453h-7.6914v10.14453"/><path fill="azure" fill-rule="evenodd" d="M293.1211 401.63672h.83593v5.73828h3.1914v.74219h-4.02734v-6.48047"/><path fill="#ff3030" fill-rule="evenodd" d="M202.52344 370.0039h7.6914v-10.14452h-7.6914v10.14453"/><path fill="azure" fill-rule="evenodd" d="M204.35547 361.6914h.83203v5.73829h3.19531v.74219h-4.02734v-6.48047"/><path fill="#ffffe0" fill-rule="evenodd" d="M341.74219 366.77734h22.1836v-10.1953h-22.1836v10.1953"/><path fill-rule="evenodd" d="M345.24219 358.41797h.51172v6.29297h-.78907v-4.48828h-1.38671v-.5547l.55859-.0664.2539-.05469.22657-.08984.20312-.14062.17578-.21094.14063-.29297.10547-.39453m4.8164 0l.22657.01953.21875.05469.21093.08984.19532.1211.18359.14843.17188.17578.30078.41797.24218.4961.1797.54687.11327.57813.03906.58984-.03906.59375-.11328.58594-.17969.55078-.24218.5039-.30079.42579-.17187.17968-.1836.15625-.1953.1211-.21094.09375-.21875.05469-.22657.01953-.23046-.01954-.21875-.05468-.20704-.09375-.19921-.1211-.1836-.15625-.17187-.17968-.30079-.42579-.24218-.5039-.17969-.55078-.11328-.58594-.03906-.59375h.83593l.02735.5625.08203.50781.125.4414.16406.375.1914.30079.21094.22266.22266.13671.22656.04688.22657-.04688.22265-.13671.21094-.22266.1875-.30078.16406-.375.125-.4414.08203-.50782.03125-.5625-.03125-.5625-.08203-.5-.125-.4336-.16406-.36718-.1875-.29297-.21094-.21094-.22265-.13281-.22657-.04688-.22656.04688-.22265.13281-.21094.21094-.1914.29297-.16407.36719-.125.43359-.08203.5-.02735.5625h-.83593l.03906-.58984.11328-.57813.17969-.54687.24219-.4961.30078-.41797.17187-.17578.1836-.14844.19921-.12109.20704-.08984.21875-.05469.23046-.01953m5.08985 0h.50781v6.29297h-.78516v-4.48828h-1.39062v-.5547l.5625-.0664.25-.05469.23047-.08984.20312-.14062.17578-.21094.14063-.29297.10547-.39453m2.82422 2.17578h.78515l.01953-.3164.0586-.28907.10156-.25.14063-.21484.17968-.17578.22266-.12891.26562-.08203.3086-.02735.23828.02344.22265.0625.20313.10156.17969.13672.14844.17579.11328.20312.07421.23828.02344.26563-.01953.26562-.0664.22656-.10938.19141-.15625.17188-.20313.16015-.24609.16797-.63281.38672-.53906.3164-.4375.31641-.34375.32422-.26563.33594-.1914.35156-.125.36719-.06641.39453-.02344.41797h4.21485v-.73828h-3.33594l.08594-.28516.11328-.23828.14843-.19922.1875-.17969.23047-.17187.27735-.17578.71875-.41797.41406-.20703.34375-.23047.28125-.25.22265-.26563.16016-.28125.11328-.28125.0625-.28515.01953-.28125-.03906-.38282-.1211-.34765-.1914-.3086-.25-.26171-.30078-.21485-.34766-.15625-.3789-.10156-.40625-.03125-.4336.03125-.39843.09765-.35547.16797-.30469.23438-.25.30469-.1836.375-.11718.4453-.03906.51954"/><path fill="#ffffe0" fill-rule="evenodd" d="M208.59375 335.23828h22.17969v-10.1914h-22.17969v10.1914"/><path fill-rule="evenodd" d="M212.09375 326.8789h.50781v6.29688h-.78515v-4.49219h-1.39063v-.55468l.5586-.06641.2539-.05078.23047-.08985.20313-.14453.17187-.20703.14453-.29687.10547-.39453m4.8125 0l.23047.01953.21875.05469.20703.08984.19531.1211.1836.14843.17187.17578.30469.42188.24219.49218.17968.54688.10938.57812.03906.59375-.03906.58985-.10938.58594-.17968.55468-.2422.5-.30468.42969-.17187.17969-.1836.15234-.19531.125-.20703.08985-.21875.05859-.23047.01953-.23047-.01953-.21875-.0586-.20703-.08984-.19531-.125-.1836-.15234-.17187-.17969-.30469-.42969-.24219-.5-.17968-.55469-.10938-.58593-.03906-.58985h.83203l.03125.5625.07813.50391.1289.44531.16016.3711.1914.30078.21094.22265.22266.13672.22656.04688.22656-.04688.22266-.13672.21094-.22265.1914-.30078.16016-.3711.1289-.44531.08204-.5039.02734-.5625-.02734-.5625-.08203-.5-.12891-.4375-.16016-.36329-.1914-.29297-.21094-.21484-.22266-.13281-.22656-.04297-.22656.04297-.22266.13281-.21094.21484-.1914.29297-.16016.36328-.1289.4375-.07813.5-.03125.5625h-.83203l.03906-.59375.10938-.57812.17968-.54688.2422-.49218.30468-.42188.17187-.17578.1836-.14844.19531-.1211.20703-.08983.21875-.0547.23047-.01952m5.08984 0h.51172v6.29687h-.78906v-4.49219h-1.38672v-.55468l.5586-.06641.2539-.05078.22656-.08985.20703-.14453.17188-.20703.14063-.29687.10546-.39453m2.82422 2.17578h.78906l.01954-.3164.05859-.28517.09766-.2539.14062-.21485.1836-.17578.22265-.1289.26563-.07813.30468-.02734.23828.01953.22657.0625.20312.10156.17969.14063.14844.17187.11328.20703.07031.23438.02734.26562-.02343.26954-.0664.22265-.10938.1914-.15625.17188-.19922.16406-.2461.16407-.63672.39062-.53515.3125-.4375.3164-.34766.32423-.26562.33594-.1875.35156-.125.3711-.07031.39062-.01954.42187h4.21094v-.74219h-3.33203l.08203-.28515.11328-.23438.14844-.20312.1875-.17969.23047-.17188.27734-.17578.71875-.41796.41406-.20313.34766-.23047.28125-.2539.21875-.26563.16406-.27734.10938-.28516.0664-.28516.01954-.28125-.04297-.3828-.1211-.34767-.1875-.30859-.25-.26172-.30468-.21484-.34375-.15625-.38282-.09766-.40625-.03515-.43359.03515-.39844.09766-.35547.16406-.30468.23438-.2461.30468-.1875.375-.11328.44532-.04297.51953"/></g></defs><use xlink:href="#aB"/></svg>