<svg xmlns="http://www.w3.org/2000/svg" role="img" xmlns:xlink="http://www.w3.org/1999/xlink" viewBox="142.45 309.95 326.84 171.84"><defs><clipPath id="a"><path d="M144 441h1v39.32813h-1zm0 0"/></clipPath><clipPath id="b"><path d="M144 311.67188h324v168.65625H144zm0 0"/></clipPath><clipPath id="c"><path d="M144 311.67188h8V321h-8zm0 0"/></clipPath><clipPath id="d"><path d="M144 311.67188h1V313h-1zm0 0"/></clipPath><clipPath id="e"><path d="M382 456h16v24.32813h-16zm0 0"/></clipPath><clipPath id="f"><path d="M385 477h11v3.32813h-11zm0 0"/></clipPath><clipPath id="g"><path d="M467 311.67188h1v168.65625h-1zm0 0"/></clipPath><clipPath id="h"><path d="M144 480h4v.32813h-4zm0 0"/></clipPath><clipPath id="i"><path d="M147 480h2v.32813h-2zm0 0"/></clipPath><clipPath id="j"><path d="M153 479h9v1.32813h-9zm0 0"/></clipPath><clipPath id="k"><path d="M160 480h3v.32813h-3zm0 0"/></clipPath><clipPath id="l"><path d="M166 480h9v.32813h-9zm0 0"/></clipPath><clipPath id="m"><path d="M173 480h3v.32813h-3zm0 0"/></clipPath><clipPath id="n"><path d="M180 479h8v1.32813h-8zm0 0"/></clipPath><clipPath id="o"><path d="M187 480h2v.32813h-2zm0 0"/></clipPath><clipPath id="p"><path d="M193 479h8v1.32813h-8zm0 0"/></clipPath><clipPath id="q"><path d="M200 480h2v.32813h-2zm0 0"/></clipPath><clipPath id="r"><path d="M206 479h9v1.32813h-9zm0 0"/></clipPath><clipPath id="s"><path d="M213 480h2v.32813h-2zm0 0"/></clipPath><clipPath id="t"><path d="M220 479h8v1.32813h-8zm0 0"/></clipPath><clipPath id="u"><path d="M227 480h2v.32813h-2zm0 0"/></clipPath><clipPath id="v"><path d="M233 479h8v1.32813h-8zm0 0"/></clipPath><clipPath id="w"><path d="M240 480h2v.32813h-2zm0 0"/></clipPath><clipPath id="x"><path d="M239 480h2v.32813h-2zm0 0"/></clipPath><clipPath id="y"><path d="M246 479h9v1.32813h-9zm0 0"/></clipPath><clipPath id="z"><path d="M253 480h3v.32813h-3zm0 0"/></clipPath><clipPath id="A"><path d="M252 480h2v.32813h-2zm0 0"/></clipPath><clipPath id="B"><path d="M260 479h8v1.32813h-8zm0 0"/></clipPath><clipPath id="C"><path d="M267 480h2v.32813h-2zm0 0"/></clipPath><clipPath id="D"><path d="M273 479h8v1.32813h-8zm0 0"/></clipPath><clipPath id="E"><path d="M280 480h2v.32813h-2zm0 0"/></clipPath><clipPath id="F"><path d="M286 479h9v1.32813h-9zm0 0"/></clipPath><clipPath id="G"><path d="M293 480h3v.32813h-3zm0 0"/></clipPath><clipPath id="H"><path d="M300 480h8v.32813h-8zm0 0"/></clipPath><clipPath id="I"><path d="M307 480h2v.32813h-2zm0 0"/></clipPath><clipPath id="J"><path d="M313 479h8v1.32813h-8zm0 0"/></clipPath><clipPath id="K"><path d="M319 479h2v1.32813h-2zm0 0"/></clipPath><clipPath id="L"><path d="M326 479h9v1.32813h-9zm0 0"/></clipPath><clipPath id="M"><path d="M332 480h2v.32813h-2zm0 0"/></clipPath><clipPath id="N"><path d="M340 479h8v1.32813h-8zm0 0"/></clipPath><clipPath id="O"><path d="M345 480h2v.32813h-2zm0 0"/></clipPath><clipPath id="P"><path d="M353 478h8v2.32813h-8zm0 0"/></clipPath><clipPath id="Q"><path d="M367 478h7v2.32813h-7zm0 0"/></clipPath><clipPath id="R"><path d="M379 479h9v1.32813h-9zm0 0"/></clipPath><clipPath id="S"><path d="M395 476h4v4.32813h-4zm0 0"/></clipPath><clipPath id="T"><path d="M409 476h2v4.32813h-2zm0 0"/></clipPath><clipPath id="U"><path d="M421 476h5v4.32813h-5zm0 0"/></clipPath><clipPath id="V"><path d="M433 479h8v1.32813h-8zm0 0"/></clipPath><clipPath id="W"><path d="M439 479h2v1.32813h-2zm0 0"/></clipPath><clipPath id="X"><path d="M446 479h9v1.32813h-9zm0 0"/></clipPath><clipPath id="Y"><path d="M452 479h2v1.32813h-2zm0 0"/></clipPath><clipPath id="Z"><path d="M460 478h7v2.32813h-7zm0 0"/></clipPath><clipPath id="aa"><path d="M144 466h4v2h-4zm0 0"/></clipPath><clipPath id="ab"><path d="M144 453h4v2h-4zm0 0"/></clipPath><clipPath id="ac"><path d="M144 439h4v3h-4zm0 0"/></clipPath><clipPath id="ad"><path d="M144 425h4v4h-4zm0 0"/></clipPath><clipPath id="ae"><path d="M466 424h2v3h-2zm0 0"/></clipPath><clipPath id="af"><path d="M144 412h4v4h-4zm0 0"/></clipPath><clipPath id="ag"><path d="M144 398h4v5h-4zm0 0"/></clipPath><clipPath id="ah"><path d="M466 398h2v2h-2zm0 0"/></clipPath><clipPath id="ai"><path d="M144 384h4v6h-4zm0 0"/></clipPath><clipPath id="aj"><path d="M466 385h2v3h-2zm0 0"/></clipPath><clipPath id="ak"><path d="M144 371h4v6h-4zm0 0"/></clipPath><clipPath id="al"><path d="M466 371h2v3h-2zm0 0"/></clipPath><clipPath id="am"><path d="M144 357h3v7h-3zm0 0"/></clipPath><clipPath id="an"><path d="M466 358h2v3h-2zm0 0"/></clipPath><clipPath id="ao"><path d="M144 344h3v7h-3zm0 0"/></clipPath><clipPath id="ap"><path d="M466 345h2v3h-2zm0 0"/></clipPath><clipPath id="aq"><path d="M465 345h3v3h-3zm0 0"/></clipPath><clipPath id="ar"><path d="M144 331h3v6h-3zm0 0"/></clipPath><clipPath id="as"><path d="M466 332h2v3h-2zm0 0"/></clipPath><clipPath id="at"><path d="M144 317h2v7h-2zm0 0"/></clipPath><clipPath id="au"><path d="M466 318h2v2h-2zm0 0"/></clipPath><clipPath id="av"><path d="M465 318h3v3h-3zm0 0"/></clipPath><g id="aw" clip-path="url(#clip1)"><path fill="#fff" fill-opacity="0" fill-rule="evenodd" d="M0 0h1000v1000H0zm0 0"/><path fill="#d3d3d3" fill-opacity="0" fill-rule="evenodd" d="M162.15234 355.86719l-.23437.29297.0586.23437.11718.17188.17578.23437.29297.34766.11328.0586.11719-.17188.0586-.23438.17577-.17578.46485-.17578h.69922l.23437.29297.28906.8164.0586.17579.17578.23046.35156.23438.69922.69922.17188.17578.23437.34765.23438.41016.28906.58203.41015.46485.23047.23437.23438.17578.11719.23047.17578.29297.17187 1.16406v.23438l.0586.28906.05859.11719.11719.11719.34765.41015.11719.17188.17578.17578.17578.23437.11719.17188.17188.35156.05859.23438.23437.40625.23438-.0586-.17578.17578-.0586.92969h-.58203l-.23437-.11328-.34766.11328-.11719.11719-.05859.29297-.0586.17578-.11718.17187-.46484.29297-.0586.23438-.0586.11328v.64453l.0586.17187v.41016l.0586.0586v.40624l.05859.40625.11719.17579.05859.05859.23047.64062-.0586.29297v.69922l-.05859.58203v.23438l-.0586.23047-.05468.35156v1.92187l.05469.1172h.42578l-.36719.11718-.02344.35156.89063 1.16797 1.74219.53906 1.33984.35938v.53906l.08984.8086.53516.71484 1.51953.26953.89063-.08594.08984 1.16406.53516.1797 1.16015-.1797 2.05469-.98437 1.16016-.36328 1.8789-.17578 1.69531-.1797-.17968.71876-1.51563.08594-1.25.08984-.80469.26953-1.07421.8086.26953.71875.53515.89843-.17968.625-.26563.8086.26563 1.07812.625.89844.80468.17969 1.25-.1797-.26562.72267.09766.5039.05468.29297v.17188l.0586.29296v.40625l.17578.1172.35156.11718h.40625l.29297-.17578.11328-.11719.0586-.11719.11718-.23047.0586-.17578.35156-.46484.23047-.17578.17578-.0586.17578.0586.0586.17578.11718.98828.05469.46875.0586.17188.11718.23437.17578.0586.8164.05859h.28907l.11719.23437.05859.40625.0586.35156v1.10547l.11718.29297.11719.34766.28906.69922.17578.35156.58203.7539.35157.17579.17187.0586.46875.23437.64063.46484.34765.23438.29297.17578.29297.05468.23047.0625.8164.34766.29297.17578.11328.17188.35157.35156.11719.17578.52343.64063v.28906l.0586.35156v.34766l.05859.35156.0586.28906.11718.0586.17188.05859h.17578l.58203.23437.17578.1172.17578.28905.17578.23438.11328.23437.29297.23047.11719.11719v.41016l.0586.05468.28906.23438.23437.11719.0586.11718.11718.17188.0586.11719.23047.23437.05859.17578.23437.0586.1172.05859-.1172.11328-.05859.11719v.11719l-.11719.29296-.11719.28907v.58203l.17579.11719.11718.05859.0586.11719.11719.11719.11328.05859.17578.34765.0586.35157.05858.40625v.17578l-.05859.17578-.11719.69922v.17187l.1172.17579.29296.29296h.40625l.17578.1172.11719.17187.11719.29296v.23438h-.52735l-.23047-.23438h-.23437l-.17578.0586-.0586.69922.0586.34765.11719.17579.17578.41015.11718.23047.28907.46875.17578.05469h.52344l.23437.0586.75781.64062.0586.29296v.23438l.05859.0586.23047.34765v.35156l-.11719.17188v.29297l.29297.28906.29297.17578.17187.0586.29297.17577.29297.1172.58203.40624.28906.23438.29297.17578.21875.16015.01563.01172.23047.17579.64062.52343.17578.23438.1172.17578.17577.17578.11328.17188v.64062l.1172.17578.46874.11719.58203.11719.23438.05859.23047.11328.29297.11719.11328.0586.58593.35156.28907.17187.17578.0625.17578.05469.17578.0586.69922.35155.28906.17579.23438.05468.28906.17578.23437.1172.64063.40624.29297.11719.17187.0586.23438.05859.41015.05859.23047.0586.23438.11718.0586.17188-.41017.17578.46875.0586.0586.29296.11328.23438.17578.05468.23438.0586.17578.05859.40625.11719.64062.23437.11719.17188.0586.23437v.17578l-.0586.1172-.0586.40624.23438.23438.11719.05859.34766.11719.64062.23047.17578.11718.28906.1172.17578.17577.23438.46485.58203 1.10546.17578.17579.34766.17578.17578.11719.35156.11718 1.04688.52344.23437.0586.46485.11327.29297.0586.46484.17578.75781.58203.23438.23438.34765.46484.17578.17578.28907.23438.8164.69921.29297.17579.28906.28906.29297.17578.29297.28906.69531.64063.17578.17578.29297.23437.28907.23438.46875.28906.64062.58203.34766.23438.23437.29297.34766.34765.35156.46485.9336.99218.34765.40625.11719.17579.23437.05859.11328.11719.64454.17578.23047.11328.23437.0586.29297.17577.23047.1172.9336.69921.40624.40625.23438.17578.40625.17578.23437.11719.8164.34766.34766.23437.23438.11719.29297.28906.23047.11719.7578.35156.35157.17188.23047.05859.29297.11719.23437.0586.8711.17577h.8164l.46875.23047.17188.0586.875.69921.46484.1172.29297.05858.17578.0586.23047.0586.46875.05859.34766.05859.35156.0586.40625.05859h.29297l.17187.0586v.23046l.17578.17578h.29297l.34766.0586.35156.05859.69922.11719h.64063l.46484-.23438.29297-.17578.17187-.11719.41016-.17187.28906-.17578.9336-.46485.46875-.29297.52343-.29296.46485-.17188.46484-.17578 1.05078-.46485.28906-.11718.41016-.11719.28906-.11719.52735-.17578 1.51562-.69922.58203-.34765.28907-.0586.29297-.0586.34765-.11718.875-.23047.35156-.11719h.11329l.23437-.05859.875-.23437.23438-.0586h.8125l.35156-.0586.8164-.11718.17188-.0586.35156-.05468.29297-.0586.23047-.05859.8164-.17578.17579-.0586h.34765l.23438-.05859.46484-.11718.75781-.17188.23438-.0586h.34765l.41016-.11718.28906-.0586 1.28516-.05859h.28906l.41016-.0586.23047-.05858h.17578l.875-.1172h.40625l.41015-.11718h.34766l.35156-.11328.8711-.0586h1.75l1.04687.28907.41016.11719.28906.11718.35156.11719.28907.11719 1.05078.17187.28906.0586h.29297l.29297.05859.17187.0586.41016.05859.17187.0586.1172.05858h.11718l.11719.0586.35156.0586h.11328l.41016.0664 1.92187.39453 1.92578.39453 1.51953.44922 1.69532.71875 2.14453.80469 1.60547-.71875 1.42968-.80469 1.16016-1.07813 1.25-.44921 3.03516-.71875 1.875-.35938 2.14453-1.34765 2.23437-1.25391 2.5-1.25781 1.69531-.44922 1.78516-.17969 1.16016-.26953.625.53906 1.33984-.26953.71485-.98828.98437-1.34375.44531-.17969.80469-.35937 1.875-.53907 1.78516-.44921 1.25-.26954 1.16015-.08984 1.69922-.08984 1.96094-.26954 1.25-.08984h.53906l.625-.08984h.89063l2.14453-.17969 2.41015-.17969 2.58985-.08984 1.69531.17969 1.60938.08984 1.42968.35938 1.16016.71875 1.875.98828 1.16015 1.52734.26563.71484.6289.08985.35548.89844.53515.53906.53516 1.52734 1.07422.35938h.53515l-.80469.53515.08985 1.70703.71484 2.69532.89063.80468.89453.98829.71484 1.2578 1.78516.53907 1.51953-.17969.35547 1.34375 1.60937-.80469.98047-.53906.26953.26953.31641-.21484.21875-.14453.80078.44922.44922-.35938h.35547l.53515-.26953.53907-.71875.53515-.26953.625-.98828 1.16016.44922.83984.3711 1.39454.61718 1.6953-.17969h1.60548l1.78515.08985.17969-1.70704.53516-1.34375.80468.26954.4922.84765.40233.40625-.08984.53906v.35938l.71485.44922.71093-.26953h1.42969l.35938.98828.4453 1.25781.71485 1.34375 1.25.6289 1.69531.62891.71485-.17969.17969-.53906.98046-.08984.44922.35937.08594 1.25782-.26563.6289-.53515.17969v.53906l.71484.98438.26563.53906.98437.98828.80078 1.07813-.26562.35937-.08985.89844-.625 2.33203-.35546 2.0664-.08985 1.79298-.17969.71875-.08984.53906v1.4375l-.98047 1.88281-.35937 1.70703-.53516.89844-.80469 1.16797-.26562.53906 2.05469 1.2539.08593.35938-.35546.53906-.08985-.17968v.80859l.08985 1.4375-.44532.71484-1.07422.09375-.26562.71485.53515.89844.8047.71875 1.16015.80859 1.33984.26953.44531.35938-.35546.44921-1.78907-.08984-1.25-.44922-.71484-.71875-.625-.08984-.17578 3.58984-.1875 1.3086h89.35937V311.70313h-55.26953v49.08203l.76172.125 3.28906.54296 2.02344 2.83594v2.7539l2.35156.33204 2.34766.33203h4.05078l-1.3789 4.16016-2.02344.70703-2.02344.70312-.54297.34375-2.59375 1.6172-.1875.11718-2.02344-2.07813-.73046-2.74218-2.67188-2.07813-1.375-3.5-.0664-.08203-1.95704-2.67188 2.75-1.41796v-49.08204H294.42187v91.41407l.1172.03125.1328.01172.07422.07421.10547.04688.08985.0586.08593.05859.08985.0586.29687.29687.0586.08984.03125.11719.02734.11719.01563.13671-.03125.1172-.0586.08983-.0586.08594-.04296.10547-.04688.10156-.02734.1211v.14453l.17578.26953.14844.14844.07422.08594.07422.07421.04296.10547.0625.08985.0586.08593.04297.10547.0586.08985.04687.10156.04296.10547.0586.08594.11719.17968.07421.07422.0625.08594.0586.08984.04297.10547.0586.08985.05858.08593.0625.08985.0586.08984.04297.10156.11719.17969.07421.07422.0586.08594.07422.07421.08984.0586.10547.04687h.14844l.1328-.01562.13282.01562.10156-.04687.07422-.07422.04688-.10156-.01563-.13281v-.14844l-.04687-.10547-.02735-.11719-.04687-.10156-.02735-.1211-.04296-.10156-.0625-.08984-.04297-.10156-.04297-.10547-.03125-.11719-.01563-.13281-.01171-.13672.08593-.0586.0586-.08593.12109-.03125.04297.10547.01562.1328v.1172l.0586.10156.0586.08984.08983.0586.14844.14843.0586.08985.04296.10547-.01171.10156.08593.0586.10547.04687.08594.0586.08984.05858.07422.07422-.11719.02735-.10546.04687-.08594.0586-.07422.07421-.0586.08985-.0625.08594-.02734.12109-.04687.10156-.04297.10547-.03125.11719-.01172.13281-.01563.13281v.14844l.02735.11719.04687.10547.04297.10156.0586.08984.07421.07422.08985.0586.07422.07421.08984.0586.0586.08984.04296.10547.04688.10156.11719.03125.1328.01563h.14845l.11718-.03125.10547.04297.04297.10547.04688.10156.02734.1211L299.5 410l.02734.11719.03125.1211.02735.11718.10547.04297.10156.04687.13281-.01562.14844.14844.0625.08593.07422.07422.07031.07422.08984.0625.10547.04297.10156.04297.1172.03125.13671.01562.11719-.03125.07422-.07422.02734-.11718-.01172-.13282-.03125-.12109-.02734-.11719.04297-.10547h.11719l.08984.0625.11719.02735h.14843l.13282.01562h.14843l.13282.01563.1328-.01563h.14845l.1328-.01562.13282-.01172.13672.01172.11719-.02735.13281-.01562.1914-.0586-.05859.17579-.01562.1328-.02735.1211-.01562.13281-.0586.08594-.1328.01563-.10548.04687-.10546.04297-.1172.03125-.11718.02735-.26563.03125h-.14843l-.13281.01562-.07422.07422.05859.08594.14844.14843.11719.1797.07421.0703.08985.0625.08984.0586.08594.0586.08984.05858.10156.04297.10547.0625.10547.04297.08594.0586.10547.04687.10156.04297.17969.11719.0586.08984-.04298.10156-.04687.10547.01562.13281.22266.22266.0586.08985.04296.10156.03125.1211.04297.10155.01563.13282.03125.11718.01171.13672.03125.11719.14844.14844.10156.04297.10547.04296.1172.03125.1328.01563.13672.01563h.11719l.11719-.03125.08984-.0586.04297-.10547.04688-.10156.04296-.10547.03125-.11719.01172-.1328v-.14845l-.01172-.1328-.01562-.13282-.03125-.11719-.04297-.10547-.04688-.10547-.04296-.10156-.04297-.10547-.01563-.13281.01563-.13281.02734-.11719.03125-.11719.02735-.1211.04687-.10155.08984-.0586.08594-.0625.07422-.07422.08984-.05859.22266-.22266.0586-.08593.07421-.07422.11719-.17969.0586-.08594v-.14844l-.07423-.07421-.10156-.04688-.10547-.04297-.10156-.04297-.0586-.08984-.04687-.10547-.02734-.11719.08984-.05859.11719-.03125.10156-.04297.17969-.11719.14844-.14843.01172-.13282-.01172-.10546-.08985-.0586-.1328.01563h-.14845l-.1328.01562-.13282-.01562-.1211-.03125-.08593-.0586-.07422-.07422-.0586-.08984-.0625-.08594-.11718-.17969-.0586-.08593.03125-.1211.08594-.05859.1211-.03125.05859-.08594v-.1211l-.03125-.11718-.0586-.08984-.05859-.08594-.04687-.10547-.02735-.11719-.01562-.1328.0586-.08985.07421-.07422.08984-.0586.1172-.17968.07421-.07422.0586-.08594.14843-.14844.1211-.03125.1328-.01562.13282.01562.07422.07422.04297.10547.01562.13281-.03125.1172-.11719.03124-.1328.01172-.14844.14844-.04297.10547-.04688.10156-.02734.1211-.03125.11718v.14844l.03125.11719.04297.10546.05859.08985.07422.07031.07422.07422.11719.03125.12109.02734.11719-.02734.1328-.01563h.1172l.08984.0586.07422.07422.04687.10546.0586.08594.10156.04688.13281.01562.10547.04297.08594.0586-.01172.10546-.07422.07422-.17969.11719-.05859.08984-.08984.0586-.07032.07422-.07421.07421-.0625.08985-.02735.11719-.01562.1328.01562.13282-.01562.13281v.14844l.01562.13281.02735.1172.03125.12108.07421.07422.08985.0586.08594.0586.08984.05858.11719.03125v.08594l-.10157.04688-.08984.0586-.26563.03124-.11718.02735h-.14844l-.10547.04296-.10156.04688-.0586.08984-.0625.23438-.01171.13281-.03125.1211-.01563.1328v.29298l-.01172.1328.01172.13673.01563.1328.1328.01563.13282.01172.1211.03125.08593.0586.07422.07421.04688.10547.04296.10157.01563.1328v.44532l-.01563.13281v.44532l.03125.26562.02735.11719.01562.13281.03125.11719.08594.21094.03125.26562v.14844l-.03125.11719-.02734.11718-.03125.1211-.02735.11719-.03125.11718-.03125.1211-.01171.1328-.01563.13282.08984.0586.1172-.03125.10155.01562.04688.10547-.03125.26562v.44141l-.04297.10547-.04688.10547-.04296.10156-.04297.10547-.0586.08594-.03125.12109-.04296.11719-.03125.11719-.01563.1328.01563.13282.05859.08984.10547.04688.08594.0586.05859.08593-.01172.13672-.03125.11719-.04297.10156v.44531l-.01562.13281v.14844l-.03125.11719-.04297.10547-.02735.11719-.04687.10546-.04297.10157-.03125.12109-.02734.11719-.03125.13281-.03125.11719-.02735.11719-.04297.10546-.03125.1172-.03125.12108-.01171.13282-.01563.13281v.29688l.02734.11718v.14844l.04688.39844.02734.11719.0586.08984.12109.03125h.14844l.13281-.01563.0586.08985v.11719l-.0586.08984-.08984.0586-.10157.04296-.10546.04688-.08985.05859-.08594.0586-.13671.01562-.1172-.03125-.1328-.01563-.10157.04688-.0625.08594-.01172.13671-.01562.13282-.03125.11719-.02735.11718-.01562.13281-.03125.1211v.29687l.01563.13282.03125.11718v.14844l.01171.13281v.14844l-.02734.11719-.04688.10156-.02734.1211-.03125.11718-.0586.08985-.07421.07421-.10156.04297-.10547.04688-.11719.02734-.1211.03125-.10156-.04687.0586-.08594.10547-.04688.02734-.11718.03125-.11719.02734-.1211.03125-.11718v-.14844l.01563-.13281-.03125-.11719-.04297-.10547-.10547.01563-.07422.07422-.10156.04296-.08984.0625-.07422.07422-.04297.10157-.01563.1328-.03125.1172L304.25 426l-.03125.11719-.02734.11719-.03125.12109-.02735.11719-.03125.11718-.04297.10547-.08984.0586h-.08984l-.1172-.03125-.03124-.08594.01562-.13672-.03125-.11719v-.14844l-.01171-.1328v-.14844l-.0625-.23438-.02735-.1211-.04297-.10156-.04687-.10546-.0586-.08594-.05859-.08985-.04297-.10546-.0625-.08594-.14844-.14844-.0703-.07422-.10548-.04687-.10547-.04297-.10156-.04297-.29687-.29688-.08985-.07421-.08594-.0586-.10546-.04297-.08985-.0625-.08594-.0586-.10546-.04296-.08985-.0586-.08594-.0625-.07421-.0703-.10547-.04688-.08594-.0586-.10547-.04296-.08984-.0625-.10156-.04297-.10547-.04297-.08594-.0586-.10547-.04687-.10547-.04297-.10156-.04687-.08985-.0586-.10156-.04297-.10547-.04296-.08984-.0625-.11719-.02735-.13281-.01562-.13281.01562H299.75l-.13281.01563-.11719-.03125-.08984-.0586-.07422-.07422-.08985-.05859-.10156-.04688h-.14844l-.12109-.02734-.10156-.04297-.07422-.07422-.11719-.17968-.08984-.0586-.10156-.04297-.08985-.0625-.10547-.04296-.08984-.0586-.08594-.0586-.10547-.04687-.0586-.08594-.05858-.08984-.04297-.10547-.04688-.10156-.07422-.07422-.08594-.0586-.07421-.07421-.08985-.0586-.22265-.22265-.04297-.10547-.03125-.26563.10547-.04296h.14453l.10547.04296.07421.07422.08985.0586.08594.0586.10546.04687.08985.05859.14844.14844.0703.07422.14845.14843.0625.08594.07421.07422.08594.0586.07422.07421.08985.0625.08984.0586.08594.05859.26953.17578.10156.04688.10547.04296.10156.04297.04688-.07421.05859-.08594.07422-.07422.07031-.07422.10547.04297.07422.07422.0586.08984.04296.10156.04688.10547.04296.10547.1211.02735.11719-.02735.07421-.08984.04297-.10547.0586-.08985.07422-.07421.10546-.04297.1172-.02735.1328.01172.08985.0586.14844.14843.05859.08985.04297.10547.04687.10156.04297.10547.04297.10156.10547.04688.10547.04296.13281.01563.08594-.0586.0586-.08984.07421-.07422.10547-.04297.11719.02735.10547.04687.10156.04297.10547.04297.10156.04688.17969.11718v.11719l-.01563.13281.01563.13281.01562.13672.0586.08594.10156.04688.1211.02734.11718.03125h.14844l.11719-.03125.05859-.08984.17969-.1172.05859-.08983.07422-.07422.0586-.08594.11718-.17969.17969-.11719.11719.03125.08984.0586.04297.07422-.01563.1328v.1172l.08985.05859h.14843l.13282-.01563.1328-.01171.26563-.03125.10547-.04297.11719-.03125.1211-.02735.07421-.07421.07031-.07422.0625-.08985-.01562-.10547-.04688-.10156-.10156-.04297-.10547-.01562-.11718.02734-.26563.03125h-.14844l-.07421-.07422-.08985-.0586-.11719-.03124-.11718-.02735-.13282-.01562h-.14843l-.13282.01563h-.29687l-.10547-.04688-.14844-.14844-.04297-.10156-.05859-.08984.22266-.22266.08593-.0586.10547-.04296.11719-.03125.13281-.01563.13281.01563.13672.01562.10157.04297.1328-.01172.08985-.0625.10156-.04297.0625-.08984-.04687-.10156-.08984-.0586-.1172-.03125-.10155-.04296-.0586-.08985-.0625-.08984v-.11719l.01563-.13281.10547-.04688.07421-.07031v-.1211l-.08984-.05859-.03125-.11719.08985-.05859.07421-.07422.04297-.10547.0586-.08984.04687-.10156.01563-.13281v-.14844l-.04688-.10547-.04297-.10156-.08984-.0586-.13281-.01562-.10157-.04297-.13671-.01563-.1172-.03125h-.4453l-.13282-.01562-.13281-.01172-.13281-.01563-.11719-.03125h-.14844l-.13281-.01562-.13281-.01172-.26563-.03125-.1211-.04297-.08593-.0586-.07422-.07421v-.14844l.01172-.13281.10547-.04688.10156-.04296.13281-.01563h.15235l.13281-.01562h.29297l.1211.03125.10156.04296.08984.0586.23438.0625.12109-.04688.08984-.05859.10156-.04297.13282-.01562.10547.04296.10156.04688.13281.01172.1211-.02735h.14453l.12109-.03125.11719-.02734.10547-.04687.07421-.07422.08594-.0586.14844-.14843.0586-.08594.04687-.10547.02734-.11719.01563-.10547-.10156-.04296-.08985-.0586-.11719-.03125-.10546-.04297-.08985-.0625-.07422-.08594-.07422-.07421-.10156-.04297-.10547-.04688-.10156-.04297-.0586-.08984-.04687-.10156-.08594-.21094-.0625-.08594-.05859-.08984-.07422-.07422-.08594-.0586h-.26953l-.11719.03126-.08984.05859-.10156.04297-.13281.01562-.10547-.01562-.02735-.11719-.0625-.08984-.11718-.03125-.10157-.04297-.14843-.14844-.03125-.11719-.01563-.10546.07422-.07422.17969-.1172.11719-.02733.11718-.03125.13672.01562.10156.04297.10547.04297.10156.04687.10547.04297.1172.03125.1328.01563.1172.02734.1328.01563.10547-.01563.08985-.0586-.07422-.07421-.10547-.04297-.07422-.07422-.07422-.08984-.14844-.14844-.08593-.0586-.08985-.05859-.07422-.07422-.08984-.0586-.10156-.04687-.1211-.02734-.10156-.04688-.10547-.04296-.11719-.03125-.10156-.04297-.1211-.03125h-.14843l-.11719.03125-.10546.04297-.08594.0625-.17969.11718-.08594.0586-.08984.0586-.10547.04687-.08594.05859-.10547.04297-.10156.04297-.10547.04687-.07422.07422-.05859.08985-.0586.08593-.04687.10547-.0586.08594-.07421.07422-.13281-.01172-.1172-.03125h-.11718l-.07422.07422-.08984.0586-.07422.07421-.08984.0586-.08594.05859-.10547.04687-.10156.04297-.13672.01563-.10156-.04297-.14844-.14844-.10547-.04688h-.08594l-.10547.04688-.10156.04297-.1211.03125-.11718-.03125-.07422-.07422v-.11719l.03125-.1211.07422-.0703.0586-.08985.07421-.07422.11719-.03125.10547-.04296h.29297l.13281-.01563.13672-.01563.10156-.04296.08985-.0586.10156-.04687.08984-.0586.13281-.01171.08985.05859.13281.01172.08984-.0586.08594-.05859.10547-.04297.08984-.0586.08594-.0625.08985-.05859.14843-.14843.0586-.08594.05859-.08985.10547-.04296.13281-.01563.11719.02735.1211.03125.05859-.0586.05859-.08984.03125-.26563.02734-.11719.10547.01172.13281.01563.10157-.04297.08984-.0586.0586-.08984.07421-.07422.0586-.08984.04687-.10156.01172-.13281-.01172-.13282-.04687-.10547-.14844-.14843-.0586-.08985-.05859-.08594-.04297-.10546v-.44532l.01563-.1328v-.14845l.01172-.1328-.0586-.0586-.08984.0586-.10156-.04298-.17969-.11719-.08594-.05859-.0625-.08984-.0586-.08985-.07421-.07421-.08594-.0586-.1211.03125-.10155.01172-.10547.04688-.08594.05859-.10547.04297-.14844.14844-.08984.05859-.08594.0586-.08984.0625-.10547.04296-.13281.01563v-.1211l.10547-.04297.11718-.03125.07422-.0703.04297-.10548v-.14844l-.02734-.11718-.14844-.14844-.13281-.01563h-.14844l-.11719.03125-.10547.04297-.10156.04297-.08984.0625-.11719.02735-.07422-.07422.01172-.13281-.04297-.10157-.04297-.10547-.08984-.05859-.11719.02734-.1211.03125-.11718.03125-.10156.04297-.1211.03125-.10156.04297-.10547.04297-.08984.0586-.10156.01562v-.11719l.01562-.13281-.0586-.08985-.07421.04297-.14844.14844-.0586.08985-.07421.07421-.04688.10547-.04296.10156-.07422.07422-.0586.08985-.07422.07422-.05859.08593-.07422.07422-.08984.0625-.07422.07031-.07422.07422-.10156.01563-.13281.01562-.10547-.04296v-.1211l.14843-.14844.04297-.10156.0586-.08984.04687-.10156.04297-.10547.0586-.08985.03124-.11719.04297-.10156.03125-.1211.02735-.11718.04687-.10547.04297-.10156.04297-.10547.07422-.07031.08984-.0625.08985-.0586.10156-.04296h.29687l.26563-.03125.10547-.04297-.07422-.07422-.11719-.03125-.10547-.04297-.08984-.0586-.10156-.04687-.08985-.0586-.10156-.04296-.10547-.04297-.08984-.0625-.08594-.0586-.10547-.04296-.10156-.04297-.1211-.03125-.11718-.03125-.10157-.04297L297.5 410.25l-.10156-.04297-.08985-.0586-.04296-.10546-.01563-.13281.10156-.04297.13281-.01563.13672.01563.13282-.01563.10156-.04297.0586-.08984.01562-.10547-.08985-.0586-.07421-.07421-.10157-.04297-.08984-.0586-.14844-.14843-.04297-.10547-.01562-.13281v-.29297l-.0586-.08985-.08984-.05859-.07422-.07422-.04297-.10547-.03125-.11718-.0586-.08985-.07421-.07422-.11719-.02734-.07422-.07422-.08984-.0586-.08984-.0625-.08594-.05859-.07422-.07421-.0586-.08594-.04687-.10547-.08594-.0586-.14843-.14843-.19532-.0586-.1328.01563-.10157.04297-.07422.07422-.04688.10156-.04296.10547-.0586.08984-.0586.08594-.29687.29687-.08984.0586h-.08594l-.0625-.08594-.04297-.10547.03125-.11719.0586-.08984.02734-.11719-.01172-.13281-.08984-.0625-.10547.04688-.11719.02734-.11719.03125-.26953.17578-.10156.04688-.11719.02734-.10546.04687-.08985.0586-.10156.04297-.0586-.08594-.04687-.10547.01563-.13281.04687-.10547.07031-.07422.07422-.07031.0586-.08985v-.14843l-.04297-.10547h-.23829l-.10156.04687-.03125.11719-.02734.11719-.03125.1211-.07422.04296-.13281.01563-.07422-.04688-.04297-.10156-.04297-.10547-.04687-.10156-.04297-.10547-.1211.03125-.10156.04297-.13281.01562-.11719.03125-.10547.04297-.08984.0586-.10156.04687-.1211.02734-.13281.01563-.10156-.04297-.0586-.08985-.04687-.10546-.04297-.10157-.04297-.10546v-.1172l.0586-.08984.08593-.05859.17969-.11719.10156-.04687.10547-.04297.10547-.0586.10156-.04296.08985-.0625.10156-.04297.10547-.0586.10156-.04687.08984-.0586.10547-.04296.10156-.04297.08985-.0625.10156-.04297.13672-.01563.11719.03125.10156.04297.1211.03125.10156.04297.10546.04688.10157.04296.10547.04297.10156.04688.10547.04297.10156.04297.10547.04687.08594.0586.10546.04296.1172.03125.10546.04297.10156.04688.08985.0586.10547.04296.10156.04297.10547.04687.11719.02735.10156.04687.1211.02735h.14843l.08594-.0586.01562-.10156.0586-.08984-.02735-.1172-.07422-.07421-.11719-.17969-.07421-.07422-.08985-.07421-.17969-.1172-.08593-.05859-.10547-.04296-.10156-.04688-.26954-.17578-.05859-.08985-.07422-.07421-.0586-.08985-.04296-.10156-.03125-.11719-.01563-.13672v-.5625l-.01171-.1328-.01563-.13282-.03125-.11719-.01562-.13281-.01172-.13281-.03125-.1211-.22266-.22265-.0586-.08594-.01562-.10547.03125-.11719.13281-.01562v-91.41406H172.9922v1.45312l-.0586.23438-.35156 1.05078-.17187.52343-.1172.34766-.17577.41016-.11719.17187-.23438.29297-.23046.0586h-.35157l-.11718.05859-.23047.40625v.29297l.11719.17578.23046.23047.1172.23437.64062.75781.29297.46485.17578.23437.23047.35156.23437.34766.64063.8164.17578.46485.17187.41016.11719.69531.17578.46875.11719 1.39844.0586.46484v.875l.11718 1.04688v4.78125l-.0586.46484-.35156 1.28125-.17578.52344-.11328.41015-.35156.9297L172.93359 336l-.23437.58203-.11719.17578-.17187.34766-.17578.40625-.35157.8164-.0586.29297-.11327.29297-.11719.28906-.0586.17579-.11718.875-.0586.40625-.05859.11718-.0586.17579-.05859.17187-.23047.52734-.11718.17188v.23437l-.11719.23438-.0586.17187-.17577.58594v.28906l-.0586.17579v.29296l-.0586.11329-.05859.52734v.17187l-.05468.23438v2.6211l-.17578.8164-.1172.17578-.17577.23438-.1172.17187-.11327.23438-.58594.93359-.23047.28906-.29297.46485-.17578.23437-.28906.35156-.35156.69922-.11328.23047-.17579.41016-.17578.23046-.40625.52735-.8164.69922-.29297.17187-.28906.23438-.17579.11719-.17578.17578-.52344.40625-.52734.17578-.17187.17578-.23438.05469-.64062.17578h-.75782m12.21094 31.02344l-1.07422.44921.35938.89454 1.25-.71485.44531-.53906-.98047-.08985"/><path fill="#d3d3d3" fill-opacity="0" fill-rule="evenodd" d="M201.50781 416.59766h-.89453l.44922.6289.98047.35938.80469-.08985.4453-.98828-.17577.08985-.71485-.35547-.89453.35547m154.6211 59.0703l-.0586-.52343v-.29297l.11328-.29297.0586-.23046.46875-.46875h.11328l.11719-.11329.11718-.05859h.17579l.23437-.0586h.34766l.23437.0586.11719.0586.23047.17187.0586.17578.11718.58203v.29297l-.11719.17578-.17187.28906-.17579.17579-.52734.52343-.23047.23438-.11719.0586h-.17578l-.11718-.0586-.40625-.29297-.17579-.11719-.11718-.0586-.0586-.11327-.05468-.1172m6.64062-10.95702l-.0586-.17188v-1.10937l.0586-.17188.17578-.0586.17188-.05858h.17578l.23437-.0586.1172.0586.05858.69921-.05859.17188-.11719.17578-.11718.0586-.23438.52343-.11328.0586h-.23438l-.05859-.1172m9.61328-14.39062l-.11719-.17578v-.69922l.29297-.875.1172-.17187.17577-.35156.11328-.23047.1172-.29297.35155-.75781.1172-.23047.17187-.23438h.17578l.11719-.0586h.64062l.11719.0586.23437.23438.17188.11328.35156.29297.11719.11718.11328.17579v.11328l.11719.05859.11718.11719v.69922l-.05859.17578v.23047l-.0586.17578-.34765 1.05078-.11719.23047-.11719.23437-.11718.0586-.23047.23437-.64063.28906h-.875l-.41015-.11718-.64063-.46485"/><path fill="none" stroke="#bebebe" stroke-linecap="round" stroke-linejoin="round" stroke-miterlimit="10" stroke-width=".5" d="M467.95703 311.69531H144.02734v168.625h323.9297v-168.625"/><g clip-path="url(#a)"><path fill="#fff" fill-opacity="0" fill-rule="evenodd" d="M144 475.89063v4.4375h.0039H144V441v34.89063"/></g><path fill="#50fcfc" fill-rule="evenodd" d="M144 439.72656V441l.0039-.0039v-1.26954H144"/><path fill="#fff" fill-opacity="0" fill-rule="evenodd" d="M144 320.39063v119.33593h.0039V320.39062H144"/><path fill="#50fcfc" fill-rule="evenodd" d="M144 312.40625v7.98438h.0039v-7.98829l-.0039.00391"/><g clip-path="url(#b)"><path fill="#fff" fill-opacity="0" fill-rule="evenodd" d="M144.0039 480.32813v-39.33204l.63282-.61328-.63281-.65625V320.39062l4.43359-1.33593 2.45313-2.94531.41015-4.4375h14.89063v126.6289l-2.27735 2.08203-2.16015 1.90235-2.48047 2.53515 2.11719 4.4414.36328.51563V457l-.875 1.13672.875 1.51562 1.33984-1.51562L161.75391 457v-7.22266l4.4375 2.98047 3.46875-3.4961.96875-.85155 3.35547-3.58985-3.35547-3.67969-1.67188-.7578-2.76562-2.08204v-126.6289h62.13672v87.59375l-1.60938 1.17187-2.82813.35938-4.4375.45312-4.4375.76172-2.83203 2.86328-1.60937 3.95313-.66016.48828-3.77734 1.55468-3.46875 2.88282 1.42578 4.4375-2.39453 2.30859-4.4375-1.00781-4.4414.77734L190 422.62891l-1.61719 1.08593-4.3125 3.35547-.125.09766-4.4375 2.13672-2.25 2.20312-1.71875 4.4375 3.96875 3.53125 4.4375-.36719 4.4375-1.29687v13.52734l-1.27734 2.35938 1.27734 1.3164 4.4375-.08984 1.03125-1.22656-1.03125-.6875-4.4375-1.67188V437.8125l4.4375.01563 4.4414.28125 4.4375-.78516 4.4375-.11328v9.08984l-1.03515 2.96094-.19531 4.4375 1.23047.82422 2.72656-.82422.96484-4.4375-3.6914-2.96094v-9.08984l1.41797-1.26563 2.8789-4.4375.14063-1.5.69531-2.9375 3.7461-2v23.77735l-2.07032.41406 2.07031 2.45703.53516 1.98047 3.90234 3.1211 4.4375-1.80079 4.4375-1.20312.23438-.1172-.23438-.33983-4.4375-2.39454-4.4375-.29296-3.2539-1.41016-1.1836-.41406V425.0703l4.03516 2 .40234.3789 4.4375 3.48048 2.35157.57812 2.08594 1.64453 2.76171 2.79297 1.67578 1.99219 4.44141 1.05469 2.52734 1.39062 1.91016 1.6875 4.4375-.05078 1.4961-1.63672-1.4961-4.23047-.09766-.20703-4.33984-3.20703-.4375-1.23047-1.03906-4.4375-2.96094-2.38281-3.4375 2.38281-1.0039.39063-.32032-.39063-.98828-4.4414 1.20703-4.4375.10156-.01954 4.44141-.58593 3.6836-3.83203-.54688-4.4375-3.13672-3.54688-.90234-.89453-3.53906-3.09375-3.04297-1.34375-1.39453-1.17188v-87.59375h17.7539v104.84766l-1.73047 1.67188 1.73047 1.44921 1.42188-1.44921-1.42188-1.67188V311.67188h8.875v116.01171l-3.9336 3.82422 3.9336 4.3164 4.28125-4.3164-4.28125-3.82422V311.67188h26.63281v122.73046l-.36718 1.54297.36718.34766.50782-.34766-.50782-1.54297V311.67188h71.01172v127.97265l-.70703.73828.70703.72656.8789-.72656-.8789-.73828V311.67188h22.1914v133.38671l-2.54687 4.20313 2.54688 2.46875 3.09765-2.46875-3.09765-4.20313V311.67188h93.20312v168.65625h-70.75l-.26171-.7422-4.4375-3.41796-3.20704-.27735 3.20704-3.11718.49609-1.32031-.4961-.57813-3.49609-3.85938-.9414-1.93359-1.34766-2.50781 1.34765-1.11328 2.13672-3.32422-2.13671-2.04688-2.96094 2.04688-1.47656 1.7461-1.60157 2.6914 1.0664 4.4414.53517 4.3711 4.4375-2.38281 3.05859 2.44921-3.0586 3.15235-4.4375-2.30078-.03906 3.58594-.20703 4.4375H144.00391"/></g><path fill="#50fcfc" fill-rule="evenodd" d="M144.63672 440.38281l-.63281.61328v-1.26953l.6328.65625"/><g clip-path="url(#c)"><path fill="#50fcfc" fill-rule="evenodd" d="M148.4375 319.05469l-4.4336 1.33594v-7.98829l.63673-.73046h6.66015l-.41016 4.4375-2.45312 2.9453"/></g><g clip-path="url(#d)"><path fill="#fff" fill-opacity="0" fill-rule="evenodd" d="M144.0039 312.40234v-.73046h.63673l-.63672.73046"/></g><path fill="#50fcfc" fill-rule="evenodd" d="M161.39063 449.26172l-2.1172-4.4414 2.48048-2.53516 2.16015-1.90235 2.27735-2.08203V441.5l-3.59766 3.32031 2.45313 4.4414 1.14453.875.86718-.875 3.57032-3.13671 1.21875-1.30469-1.21875-1.33594-4.4375-1.98437v-3.19922l2.76562 2.08203 1.67188.75781 3.35547 3.6797-3.35547 3.58984-.96875.85156-3.46875 3.4961-4.4375-2.98048-.36328-.51562m.36328 10.39062l-.875-1.51562.875-1.13672 1.33984 1.13672-1.33984 1.51562"/><path fill="#00e8fc" fill-rule="evenodd" d="M165.04688 449.26172l-2.45313-4.4414 3.59766-3.32032 4.4375 1.98438 1.21875 1.33593-1.21875 1.30469-3.57032 3.13672-.86718.875-1.14453-.875"/><path fill="#50fcfc" fill-rule="evenodd" d="M179.50781 439.47656l-3.96875-3.53125 1.71875-4.4375 2.25-2.20312 4.4375-2.13672.125-.09766 4.3125-3.35547L190 422.62891l2.82031-2.35938 4.4414-.77734v1.96484l-3.15624 1.17188-1.28516.91406-4.4375 2.6836-1.08594.84374-3.35156 2.71485-2.6211 1.72265 2.6211 3.875 4.4375-.8125 4.4375-.04297 4.4414-.08984 4.4375-2.10938 4.4375.97266 1.6211-1.79297-1.6211-3.91797-.51171-.51953-3.92578-2.66406-1.8164-1.77734-2.6211-1.17188v-1.96484l4.4375 1.00781 2.39453-2.3086-1.42578-4.4375 3.46875-2.8828 3.77734-1.5547.66016-.48827 1.60937-3.95313 2.83203-2.86328 4.4375-.76172 4.4375-.45313 2.82813-.35937 1.60938-1.17188v1.86329l-4.4375.65234-4.4375.82031-4.4375 2.09375-.1836.17969.1836.38281 2.09375 4.0586-2.09375 2.76562-4.44141.60547-2.60547 1.0664 2.60547.95704v3.28515l-.4375.19532-4 2.02734-2.32422 2.41016 2.32422 1.83203 4.4375 1.88672 1.94922-3.71875-1.875-4.4375-.07422-.19532v-3.28515l1.27344 3.48047 3.16797 3.96484.34375.47266 4.09375 3.54296 1.54296.89844 2.89453 2.46875 4.4375.66797 1.6797 1.30078 2.7578 2.77735 4.44141 1.20312 2.36328-3.98047-2.36328-3.625-4.4414 1.5586-1.94532-2.3711-2.27734-4.4414 1.85156-4.4375 2.3711-.50391 4.4414-1.96484 1.89063-1.96875-1.75-4.4375-.14063-.16016-4.3086-4.28125-.1328-.11328-4.4375-3.63281v-1.86329l1.39453 1.17188 3.04297 1.34375 3.53906 3.09375.90234.89453 3.13672 3.54688.54688 4.4375-3.6836 3.83203-4.4414.58594-.10157.01953-1.20703 4.4375.98828 4.4414.32031.39063 1.00391-.39063 3.4375-2.38281 2.96094 2.38281 1.03906 4.4375.4375 1.23047 4.33984 3.20703.09766.20703 1.4961 4.23047-1.4961 1.63672-4.4375.05078-1.91016-1.6875-2.52734-1.39062-4.4414-1.05469-1.67579-1.99219-2.76172-2.79297-2.08593-1.64453-2.35156-.57812-4.4375-3.48047-.40235-.3789-4.03516-2-3.74609 2-.69531 2.9375-.14063 1.5-2.8789 4.4375-1.41797 1.26562-4.4375.11328-4.4375.78515-4.4414-.28125-4.4375-.01562-4.4375 1.29688-4.4375.36718"/><path fill="#00e8fc" fill-rule="evenodd" d="M183.94531 435.38281l-2.6211-3.875 2.6211-1.72265 3.35156-2.71485 1.08594-.84375 4.4375-2.6836v7.3047l-1.45703.66015 1.45703.21094 1.08203-.21094-1.08203-.66015v-7.3047l1.28516-.91405 3.15625-1.17188 2.6211 1.17188 1.8164 1.77734 3.92578 2.66406.51172.51953 1.6211 3.91797-1.6211 1.79297-4.4375-.97265-4.4375 2.10937-4.4414.08984-4.4375.04297-4.4375.8125"/><path fill="#50fcfc" fill-rule="evenodd" d="M188.38281 455.01563l-1.27734-1.31641 1.27734-2.35938 4.4375 1.67188 1.03125.6875-1.03125 1.22656-4.4375.08985"/><path fill="#00d4fc" fill-rule="evenodd" d="M192.82031 431.71875l-1.45703-.21094 1.45703-.66015 1.08203.66015-1.08203.21094"/><path fill="#fff" fill-opacity="0" fill-rule="evenodd" d="M206.13672 420.21875l-2.32422 2.41016 2.32422 1.83203 4.4375 1.88672 1.94922-3.71875-1.875-4.4375-.07422-.19532-.4375.19532-4 2.02734"/><path fill="#50fcfc" fill-rule="evenodd" d="M206.13672 454.52344l-1.23047-.82422.19531-4.4375 1.03516-2.96094 3.6914 2.96094-.96484 4.4375-2.72656.82422"/><path fill="#00e8fc" fill-rule="evenodd" d="M210.57422 414.71094l-2.60547-.95703 2.60547-1.06641 4.4414-.60547 2.09375-2.76562-2.09375-4.0586-.18359-.38281.1836-.17969 4.4375-2.09375 4.4375-.82031 4.4375-.65234v1.4453l-4.4375.85157-4.4375 1.42578-.05079.02344.05078.09375v6.34375l-3.07421 2.4414 3.07422.71485 1.04296-.71484-1.04297-2.44141v-6.34375l.76563 4.34766 2.04297 4.4375-2.8086 1.92187-4.4375.5625-1.16406 1.95313 1.16406 1.45312 2.17188 2.98438 2.26563 1.96093 4.26562 2.48047.17188.14453 1.9453-.14453-1.83984-4.4414-.10547-.11329-1.33984-4.32421 1.33984-2.1875 4.4375 1.29296 4.4375-.41406 4.0586-3.1289-1.13672-4.4375-2.92188-2.91407-1.6875-1.52734-2.75-2.30078v-1.44531l4.4375 3.6328.13282.11329 4.3086 4.28125.14062.16016 1.75 4.4375-1.89063 1.96875-4.4414 1.96484-2.3711.5039-1.85156 4.4375 2.27734 4.44141 1.94531 2.3711 4.44141-1.5586 2.36328 3.625-2.36328 3.98047-4.4414-1.20312-2.75782-2.77735-1.67969-1.30078-4.4375-.66797-2.89453-2.46875-1.54297-.89844-4.09375-3.54296-.34375-.47266-3.16796-3.96484-1.27344-3.48047"/><path fill="#50fcfc" fill-rule="evenodd" d="M215.01563 451.71875l-2.07032-2.45703 2.07031-.41406 1.1836.41406 3.2539 1.41015 4.4375.29297 4.4375 2.39454.23438.33984-.23438.11719-4.4375 1.20312-4.4375 1.80078-3.90234-3.1211-.53516-1.98046"/><path fill="#00d4fc" fill-rule="evenodd" d="M215.01563 419.64453l-1.16407-1.45312 1.16406-1.95313 4.4375-.5625v1.21094l-3.1953 1.30469 2.76171 4.4375.4336.375.86328-.375.74609-4.4375-1.60938-1.3047v-1.21093l2.8086-1.92187-2.04297-4.4375-.76563-4.34766-.05078-.09375.05078-.02344 4.4375-1.42578 4.4375-.85156v1.44922l-3.70703.85156-.73047.32813-2.18359 4.11328 2.1836 4.21484.39062.22266 4.04688 1.57421 4.4375.7461 3.01171-2.32031-1.65234-4.4375-1.35938-1.35547-3.41796-3.08594-1.01953-.85156v-1.44922l2.75 2.30078 1.6875 1.52734 2.92187 2.91407 1.13672 4.4375-4.0586 3.1289-4.4375.41406-4.4375-1.29296-1.33984 2.1875 1.33984 4.32421.10547.11329 1.83985 4.4414-1.94531.14453-.17188-.14453-4.26563-2.48047-2.26562-1.96093-2.17188-2.98438"/><path fill="#00c4fc" fill-rule="evenodd" d="M219.01953 422.6289l-2.76172-4.4375 3.19531-1.30468v1.20703l-.24218.09766.24219.42578.12109-.42578-.1211-.09766v-1.20703l1.60938 1.30469-.7461 4.4375-.86327.375-.4336-.375"/><path fill="#50fcfc" fill-rule="evenodd" d="M219.45313 411.3125l-3.07422 2.4414 3.07422.71485 1.04296-.71484-1.04297-2.44141"/><path fill="#00b8fc" fill-rule="evenodd" d="M219.45313 418.61719l-.2422-.42578.2422-.09766.12109.09766-.1211.42578"/><path fill="#00c4fc" fill-rule="evenodd" d="M223.89063 413.53125l-2.1836-4.21484 2.1836-4.11329.73046-.32812 3.70703-.85156v2.67187l-4.4375 1.3125-.6953 1.3086.6953 1.33593 4.4375 1.97266.4297 1.1289 4.0078 1.51563 1.96875-1.51562-1.96875-4.14844-.80859-.28906-3.6289-2.6211v-2.67187l1.01953.85156 3.41797 3.08594 1.35937 1.35547 1.65234 4.4375-3.01172 2.3203-4.4375-.74608-4.04687-1.57422-.39063-.22266"/><path fill="#00b8fc" fill-rule="evenodd" d="M223.89063 410.65234l-.69532-1.33593.69531-1.3086 4.4375-1.3125 3.62891 2.6211.8086.28906v2.19922l-1.88282 1.94922 1.88281.71093.92579-.71093-.92578-1.94922v-2.19922l1.96875 4.14844-1.96875 1.51562-4.00782-1.51562-.42969-1.12891-4.4375-1.97266"/><path fill="#00a8fc" fill-rule="evenodd" d="M232.76563 414.46484l-1.88282-.71093 1.88281-1.94922.92579 1.94922-.92578.71093"/><path fill="#50fcfc" fill-rule="evenodd" d="M246.08203 419.64063l-1.73047-1.44922 1.73047-1.67188 1.42188 1.67188-1.42188 1.44921m8.875 16.1836l-3.9336-4.3164 3.9336-3.82423v1.25391l-2.64453 2.57031 2.64453 2.90235 2.8789-2.90235-2.8789-2.57031v-1.2539l4.28125 3.82421-4.28125 4.3164"/><path fill="#00e8fc" fill-rule="evenodd" d="M254.95703 434.41016l-2.64453-2.90235 2.64453-2.57031v2.08594l-.49219.48437.4922.54297.54296-.54297-.54297-.48437v-2.08594l2.8789 2.57031-2.8789 2.90235"/><path fill="#00d4fc" fill-rule="evenodd" d="M254.95703 432.05078l-.49219-.54297.4922-.48437.54296.48437-.54297.54297"/><path fill="#50fcfc" fill-rule="evenodd" d="M281.58984 436.29297l-.36718-.34766.36718-1.54297.50782 1.54297-.50782.34766m71.01172 4.8164l-.70703-.72656.70703-.73828.8789.73828-.8789.72656m22.1914 10.6211l-2.54687-2.46875 2.54688-4.20313 3.09765 4.20313-3.09765 2.46875"/><g clip-path="url(#e)"><path fill="#50fcfc" fill-rule="evenodd" d="M383.13672 467.01563l-1.0664-4.44141 1.60156-2.6914 1.47656-1.7461 2.96094-2.04688 2.13671 2.04688-2.13671 3.32422-1.34766 1.11328 1.34765 2.50781.94141 1.9336 3.4961 3.85937.49609.57813-.4961 1.3203-3.20703 3.1172 3.20704.27734 4.4375 3.41797.26171.74219h-2.0664l-2.63281-2.42579-4.4375-.08203-2.48047 2.50781h-2.20313l.20703-4.4375.03906-3.58593 4.4375 2.30078 3.0586-3.15235-3.0586-2.44921-4.4375 2.3828-.53515-4.37108"/></g><g clip-path="url(#f)"><path fill="#00e8fc" fill-rule="evenodd" d="M385.6289 480.32813l2.48048-2.50782 4.4375.08203 2.6328 2.42579h-9.55077"/></g><g clip-path="url(#g)"><path fill="#fff" fill-opacity="0" fill-rule="evenodd" d="M467.9961 480.32813H468V311.67188h-.0039H468v168.65625h-.0039"/></g><path fill="#fff" fill-opacity="0" fill-rule="evenodd" d="M205.8164 416.98828l5.00391-3.01172-5.13672-8.53515-5.0078 3.01171 5.14062 8.53516"/><path fill-rule="evenodd" d="M204.6211 408.21875l.4375-.26172 3.24609 5.39453-.67578.40625-2.31641-3.84765-1.1875.71484-.28516-.47656.44532-.34375.1875-.17578.14843-.19532.10157-.22656.04297-.26953-.03125-.32422-.11329-.39453"/><g clip-path="url(#h)"><path fill="none" stroke="#000" stroke-linecap="round" stroke-linejoin="round" stroke-miterlimit="10" stroke-width=".5" d="M147.51172 480.28906l-7.02344.07813"/></g><g clip-path="url(#i)"><path fill="none" stroke="#000" stroke-linecap="round" stroke-linejoin="round" stroke-miterlimit="10" stroke-width=".5" d="M147.51172 480.28906l1.17578 2.15625"/></g><g clip-path="url(#j)"><path fill="none" stroke="#000" stroke-linecap="round" stroke-linejoin="round" stroke-miterlimit="10" stroke-width=".5" d="M160.82422 480.52734l-7.01563-.39453"/></g><g clip-path="url(#k)"><path fill="none" stroke="#000" stroke-linecap="round" stroke-linejoin="round" stroke-miterlimit="10" stroke-width=".5" d="M160.82422 480.52734l1.02734 2.22657"/></g><g clip-path="url(#l)"><path fill="none" stroke="#000" stroke-linecap="round" stroke-linejoin="round" stroke-miterlimit="10" stroke-width=".5" d="M174.14453 480.40234l-7.02734-.14843"/></g><g clip-path="url(#m)"><path fill="none" stroke="#000" stroke-linecap="round" stroke-linejoin="round" stroke-miterlimit="10" stroke-width=".5" d="M174.14453 480.40234l1.10547 2.19141"/></g><g clip-path="url(#n)"><path fill="none" stroke="#000" stroke-linecap="round" stroke-linejoin="round" stroke-miterlimit="10" stroke-width=".5" d="M187.45703 480.4336l-7.02344-.21094"/></g><g clip-path="url(#o)"><path fill="none" stroke="#000" stroke-linecap="round" stroke-linejoin="round" stroke-miterlimit="10" stroke-width=".5" d="M187.45703 480.4336l1.08594 2.19921"/></g><g clip-path="url(#p)"><path fill="none" stroke="#000" stroke-linecap="round" stroke-linejoin="round" stroke-miterlimit="10" stroke-width=".5" d="M200.71875 480.95313l-6.91406-1.25"/></g><g clip-path="url(#q)"><path fill="none" stroke="#000" stroke-linecap="round" stroke-linejoin="round" stroke-miterlimit="10" stroke-width=".5" d="M200.71875 480.95313l.7461 2.33593"/></g><g clip-path="url(#r)"><path fill="none" stroke="#000" stroke-linecap="round" stroke-linejoin="round" stroke-miterlimit="10" stroke-width=".5" d="M214.01172 481.07031l-6.8711-1.48047"/></g><g clip-path="url(#s)"><path fill="none" stroke="#000" stroke-linecap="round" stroke-linejoin="round" stroke-miterlimit="10" stroke-width=".5" d="M214.01172 481.07031l.66797 2.35938"/></g><g clip-path="url(#t)"><path fill="none" stroke="#000" stroke-linecap="round" stroke-linejoin="round" stroke-miterlimit="10" stroke-width=".5" d="M227.36328 480.85938l-6.94531-1.0625"/></g><g clip-path="url(#u)"><path fill="none" stroke="#000" stroke-linecap="round" stroke-linejoin="round" stroke-miterlimit="10" stroke-width=".5" d="M227.36328 480.85938l.8125 2.3164"/></g><g clip-path="url(#v)"><path fill="none" stroke="#000" stroke-linecap="round" stroke-linejoin="round" stroke-miterlimit="10" stroke-width=".5" d="M240.66016 480.97266l-6.91016-1.28907"/></g><g clip-path="url(#w)"><path fill="none" stroke="#000" stroke-linecap="round" stroke-linejoin="round" stroke-miterlimit="10" stroke-width=".5" d="M240.66016 480.97266l.73437 2.33984"/></g><g clip-path="url(#x)"><path fill="none" stroke="#000" stroke-linecap="round" stroke-linejoin="round" stroke-miterlimit="10" stroke-width=".5" d="M239.65625 480.78516l.36719 1.17187"/></g><g clip-path="url(#y)"><path fill="none" stroke="#000" stroke-linecap="round" stroke-linejoin="round" stroke-miterlimit="10" stroke-width=".5" d="M253.98438 480.91406l-6.9297-1.16797"/></g><g clip-path="url(#z)"><path fill="none" stroke="#000" stroke-linecap="round" stroke-linejoin="round" stroke-miterlimit="10" stroke-width=".5" d="M253.98438 480.91406l.77734 2.32813"/></g><g clip-path="url(#A)"><path fill="none" stroke="#000" stroke-linecap="round" stroke-linejoin="round" stroke-miterlimit="10" stroke-width=".5" d="M252.97656 480.74219l.38672 1.16406"/></g><g clip-path="url(#B)"><path fill="none" stroke="#000" stroke-linecap="round" stroke-linejoin="round" stroke-miterlimit="10" stroke-width=".5" d="M267.25 481.16406l-6.82813-1.66797"/></g><g clip-path="url(#C)"><path fill="none" stroke="#000" stroke-linecap="round" stroke-linejoin="round" stroke-miterlimit="10" stroke-width=".5" d="M267.25 481.16406l.60156 2.3789"/></g><g clip-path="url(#D)"><path fill="none" stroke="#000" stroke-linecap="round" stroke-linejoin="round" stroke-miterlimit="10" stroke-width=".5" d="M280.5586 481.17969l-6.81641-1.70313"/></g><g clip-path="url(#E)"><path fill="none" stroke="#000" stroke-linecap="round" stroke-linejoin="round" stroke-miterlimit="10" stroke-width=".5" d="M280.5586 481.17969l.59374 2.38281"/></g><g clip-path="url(#F)"><path fill="none" stroke="#000" stroke-linecap="round" stroke-linejoin="round" stroke-miterlimit="10" stroke-width=".5" d="M293.96094 480.6836l-6.99219-.70704"/></g><g clip-path="url(#G)"><path fill="none" stroke="#000" stroke-linecap="round" stroke-linejoin="round" stroke-miterlimit="10" stroke-width=".5" d="M293.96094 480.6836l.92969 2.26952"/></g><g clip-path="url(#H)"><path fill="none" stroke="#000" stroke-linecap="round" stroke-linejoin="round" stroke-miterlimit="10" stroke-width=".5" d="M307.29297 480.27734l-7.02344.10157"/></g><g clip-path="url(#I)"><path fill="none" stroke="#000" stroke-linecap="round" stroke-linejoin="round" stroke-miterlimit="10" stroke-width=".5" d="M307.29297 480.27734l1.1836 2.14844"/></g><g clip-path="url(#J)"><path fill="none" stroke="#000" stroke-linecap="round" stroke-linejoin="round" stroke-miterlimit="10" stroke-width=".5" d="M320.59375 480.0039l-6.9961.64844"/></g><g clip-path="url(#K)"><path fill="none" stroke="#000" stroke-linecap="round" stroke-linejoin="round" stroke-miterlimit="10" stroke-width=".5" d="M319.57813 480.09766l.67187 1.02734"/></g><g clip-path="url(#L)"><path fill="none" stroke="#000" stroke-linecap="round" stroke-linejoin="round" stroke-miterlimit="10" stroke-width=".5" d="M333.89844 480.76563l-6.97266-.875"/></g><g clip-path="url(#M)"><path fill="none" stroke="#000" stroke-linecap="round" stroke-linejoin="round" stroke-miterlimit="10" stroke-width=".5" d="M332.88281 480.64063l.4375 1.14453"/></g><g clip-path="url(#N)"><path fill="none" stroke="#000" stroke-linecap="round" stroke-linejoin="round" stroke-miterlimit="10" stroke-width=".5" d="M347.10547 481.28516l-6.76172-1.91407"/></g><g clip-path="url(#O)"><path fill="none" stroke="#000" stroke-linecap="round" stroke-linejoin="round" stroke-miterlimit="10" stroke-width=".5" d="M346.1211 481.00781l.26171 1.19922"/></g><g clip-path="url(#P)"><path fill="none" stroke="#000" stroke-linecap="round" stroke-linejoin="round" stroke-miterlimit="10" stroke-width=".5" d="M360.1875 481.89063l-6.29297-3.125"/></g><g clip-path="url(#Q)"><path fill="none" stroke="#000" stroke-linecap="round" stroke-linejoin="round" stroke-miterlimit="10" stroke-width=".5" d="M373.28125 482.27344l-5.85156-3.89063"/></g><g clip-path="url(#R)"><path fill="none" stroke="#000" stroke-linecap="round" stroke-linejoin="round" stroke-miterlimit="10" stroke-width=".5" d="M387.1289 480.95313l-6.91406-1.25"/></g><g clip-path="url(#S)"><path fill="none" stroke="#000" stroke-linecap="round" stroke-linejoin="round" stroke-miterlimit="10" stroke-width=".5" d="M395.33203 483.42969l3.3086-6.19922"/></g><g clip-path="url(#T)"><path fill="none" stroke="#000" stroke-linecap="round" stroke-linejoin="round" stroke-miterlimit="10" stroke-width=".5" d="M410.23828 476.8164l.125 7.02344"/></g><g clip-path="url(#U)"><path fill="none" stroke="#000" stroke-linecap="round" stroke-linejoin="round" stroke-miterlimit="10" stroke-width=".5" d="M422.05469 483.47656l3.125-6.29297"/></g><g clip-path="url(#V)"><path fill="none" stroke="#000" stroke-linecap="round" stroke-linejoin="round" stroke-miterlimit="10" stroke-width=".5" d="M440.41406 479.84766l-6.96484.96093"/></g><g clip-path="url(#W)"><path fill="none" stroke="#000" stroke-linecap="round" stroke-linejoin="round" stroke-miterlimit="10" stroke-width=".5" d="M439.39844 479.98828l.71875.9961"/></g><g clip-path="url(#X)"><path fill="none" stroke="#000" stroke-linecap="round" stroke-linejoin="round" stroke-miterlimit="10" stroke-width=".5" d="M453.7539 480.13672l-7.01562.38281"/></g><g clip-path="url(#Y)"><path fill="none" stroke="#000" stroke-linecap="round" stroke-linejoin="round" stroke-miterlimit="10" stroke-width=".5" d="M452.73438 480.1914l.6328 1.05079"/></g><g clip-path="url(#Z)"><path fill="none" stroke="#000" stroke-linecap="round" stroke-linejoin="round" stroke-miterlimit="10" stroke-width=".5" d="M466.57813 482.1289l-6.03516-3.59765"/></g><g clip-path="url(#aa)"><path fill="none" stroke="#000" stroke-linecap="round" stroke-linejoin="round" stroke-miterlimit="10" stroke-width=".5" d="M147.5 466.71875l-7 .58984"/></g><path fill="none" stroke="#000" stroke-linecap="round" stroke-linejoin="round" stroke-miterlimit="10" stroke-width=".5" d="M147.5 466.71875l1.33203 2.0625m11.96875-2.21094l-6.97266.88672m6.97266-.88672l1.41406 2.0039m11.89063-2.0664l-6.95313 1.01172m6.95313-1.01172l1.45312 1.97657m11.89844-1.51563l-7.02344.08984m7.02344-.08984l1.17969 2.15234m12.1289-1.89453l-7.01171-.42578m7.01172.42578l1.01953 2.23047m12.24218-1.79687l-6.90625-1.29297m6.90625 1.29297L214.76172 470m12.58984-2.3789l-6.92187-1.21485m6.92187 1.21484l.75781 2.33203m12.58204-2.5078l-6.97266-.86329m6.97266.86328l.8789 2.29297m12.4375-2.30078l-6.97656-.84766m6.97656.84766l.88281 2.29297m12.41016-2.14063l-6.92969-1.15234m6.9297 1.15234l.78124 2.32422m12.57422-2.64453l-7.00781-.51172m7.00781.51172l.98828 2.2461m12.3164-2.87891l-6.98827.7539m6.98828-.7539l1.375 2.03125m11.875-2.41406l-6.85938 1.51953m6.85938-1.51953l1.59375 1.86718m11.36719-2.80468l-6.15235 3.39453m6.15235-3.39453l2.05468 1.34375m11.09375-1.6172l-5.8164 3.94141m4.96875-3.36718l1.08593.57422m12.96875-1.29688l-5.60156 4.23828m4.78516-3.6211l1.11328.51563m12.21484-1.90234l-3.9961 5.77734m3.41407-4.9375l1.21875.14063M370.32813 463.5l.05859 7.02734m9.85156-4.2539l6.86719 1.48047m-5.8711-1.26563l-.33203-1.17969m12.6211 1.10938l6.92578 1.1914m-5.91797-1.01953l-.38281-1.16406m15.77734-1.90625l.75 6.98828m-.64062-5.97265l1.01562-.6875m13.48828-.22266l-1.84765 6.77734m1.84765-6.77734l2.39453-.54297m13.36329 2.92578l-6.73047 2.01172m5.75-1.71875l.86328.8711M453.5 468.34374l-6.5039-2.66016m19.66796-.3164l-6.20703 3.29297m5.30469-2.8125l1.01562.6875"/><g clip-path="url(#ab)"><path fill="none" stroke="#000" stroke-linecap="round" stroke-linejoin="round" stroke-miterlimit="10" stroke-width=".5" d="M147.5 453.38672l-7 .6211"/></g><path fill="none" stroke="#000" stroke-linecap="round" stroke-linejoin="round" stroke-miterlimit="10" stroke-width=".5" d="M147.5 453.38672l1.33984 2.0586m11.97657-1.44141l-7-.60938m7 .60938l.96093 2.2578m12.35547-2.82812l-7.00781.53125m5.98828-.45703l.65625 1.03906m13.67969-.58593l-7.00781-.52344m5.98828.44531l.49219 1.125m13.76953-.54687l-6.85938-1.52344m6.85938 1.52344l.65234 2.36328m12.67188-2.41016l-6.87891-1.42969m6.8789 1.4297l.6875 2.35546m12.54688-2.04687l-6.72266-2.04688m6.72266 2.04688l.47266 2.40625m12.97265-3.01172l-6.97656-.83985m6.97656.83985l.88281 2.28906m12.3711-1.9375l-6.85547-1.54297m6.85547 1.54297l.64844 2.36719m12.60937-2.14844l-6.74219-1.98047m6.7422 1.98047l.49609 2.40625m12.91406-2.82813l-6.9336-1.1328m6.9336 1.1328l.78906 2.32422m12.57031-2.97656l-7.02344.16797m7.02344-.16797l1.20703 2.14063m11.82422-3.44532l-6.45312 2.78125m6.45312-2.78125l1.91406 1.53516m10.96094-2.28516l-5.57422 4.28125m4.76172-3.66015l1.11719.51172m12.04687-1.9961l-3.64843 6.00781m3.11718-5.1328l1.22657.0703m11.92187-1.26953l-2.25 6.65625m1.92188-5.6875l1.21093-.19922m11.94532-.89843l-1.27735 6.91015m1.27735-6.91015l2.33984-.73828m11.51172.8828l-2.35156 6.6211m2.01172-5.65625l1.21093-.17969m14.51172 1.17188l-6.48437 2.71094m5.53906-2.3164l.94922.77733m6.71875 1.2422l6.69922-2.1172m13.20703 2.41016l-6.48438-2.70312m16.85157 4.85156l-.58594-7m.5 5.98047l-1.03125.66406m17.57031-3.89453l-6.86328 1.4961m5.86719-1.27735l.79297.9375m11.58593-3.58594l-2.99609 6.35938m2.5586-5.4336l1.22656-.0586m14.5 1.77345l-6.94532 1.07812m5.9336-.92187l.73437.98046"/><g clip-path="url(#ac)"><path fill="none" stroke="#000" stroke-linecap="round" stroke-linejoin="round" stroke-miterlimit="10" stroke-width=".5" d="M147.41406 441.21484l-6.82812-1.66406"/></g><path fill="none" stroke="#000" stroke-linecap="round" stroke-linejoin="round" stroke-miterlimit="10" stroke-width=".5" d="M146.42188 440.97266l.30078 1.1914m13.53125.14453l-5.87891-3.85156m5.02344 3.29297l-.10938 1.21875m13.375.27734l-4.07031-5.72656m3.48047 4.89453l-.55078 1.09766m15.14062-.90234l-5.4375-4.44922m4.64844 3.80078l-.24219 1.20312m15.09766-2.22265l-6.9375-1.1172m5.92578.95313l.39844 1.16407m13.6914-.1836l-6.46484-2.75m6.46484 2.75l.21094 2.44532m12.73438-1.78516l-5.73047-4.0664m5.73047 4.0664l-.3125 2.4336m14.08203-3.3086l-6.63672-2.3164m5.67187 1.98046l.1836 1.21094m14.28906-2.16406l-7.02344.2578m7.02344-.2578l1.23047 2.12109m12.03516-2.59766l-6.92188 1.21485m6.92188-1.21485l1.5078 1.9336m11.67188-2.46485l-6.64844 2.27344m6.64844-2.27344l1.78906 1.67579m11.32813-2.14063l-6.2539 3.20313m6.2539-3.20313l2.01172 1.40234m11.26953-1.46875l-6.1875 3.33594m6.1875-3.33594l2.03906 1.35938m-2.9414-.875l1.02343.6836m13.21094-1.13282l-6.22265 3.26953m6.22265-3.26953l2.02735 1.38281m10.73437-2.15625l-5.11719 4.8125m5.11719-4.8125l2.32422.78906m10.46875-1.24609l-4.07031 5.72656m4.0703-5.72656l2.4336.3164m10.3125-.64452l-2.9336 6.38672m2.9336-6.38672l2.44922-.14453m8.51172-.0625l1.77344 6.79687m-1.77344-6.79688l1.80469-1.66406m10.38281 7.9414l4.03125-5.7578m-3.44531 4.92187l-1.21875-.15234m18.25.77734l-4.57422-5.33203m3.91015 4.55469l-.44921 1.14453m11.95703.47265l.36719-7.01562m-.3672 7.01562l-2.22265 1.03907m16.64453-1.15625l-1.84375-6.78125m1.84375 6.78125l-1.78906 1.67968m1.51953-2.66406l-.89453.83985m15.82031-.5586l-4.52734-5.3711m4.52734 5.3711l-.91015 2.27735m15.07812-3.34375l-6.23437-3.2422m5.32812 2.76954l.01172 1.22656m13.21875.42188l-4.2539-5.59375m3.63671 4.78125l-.51562 1.11328"/><g clip-path="url(#ad)"><path fill="none" stroke="#000" stroke-linecap="round" stroke-linejoin="round" stroke-miterlimit="10" stroke-width=".5" d="M147.35938 428.09375l-6.71875-2.04688"/></g><path fill="none" stroke="#000" stroke-linecap="round" stroke-linejoin="round" stroke-miterlimit="10" stroke-width=".5" d="M147.35938 428.09375l.47265 2.40625m12.92578-2.73047l-6.88672-1.40234m5.88672 1.19922l.34766 1.17578m13.98828-1.09375l-6.92969-1.16016m5.92188.99219l.39062 1.16406m13.11719.73438l-5.29688-4.6211m4.52735 3.94922l-.28125 1.19531m13.9414-.11328l-4.44921-5.4414m3.80078 4.64843l-.47266 1.13282m15.39063-1.56641l-6.35938-2.98828m5.4375 2.55469l.0586 1.22265m13.66406-4.57422l-5.32813 4.58203m18.78516-.17578l-5.61328-4.23047m4.79687 3.6172l-.1914 1.21093m14.92187-1.85156l-6.8125-1.72266m5.82422 1.47266l.29297 1.1914m13.97656-2.78906l-6.74219 1.97266m6.7422-1.97266l1.71484 1.7539m11.65234-1.55077l-6.84766 1.5664m6.84766-1.5664l1.60937 1.85547m11.60938-2.19532l-6.65625 2.2461m5.6914-1.91797l.89063.83984m12.91797-2.08984l-5.71094 4.08984m4.8789-3.4961l1.10157.54688m12.16406-2l-3.94922 5.8086m3.94922-5.8086l2.4414.26563m11.1211-.08203l-4.44531 5.4414m4.44531-5.4414l2.40625.48047m-3.05078.3125l1.20313.23828m13.3789-.375l-5.6875 4.1289m5.6875-4.1289l2.20313 1.07812m11.69922.22656l-6.86329 1.51954m5.86329-1.30079l.79687.9336m9.71485-3.88672l.74218 6.98828m-.63281-5.97266l1.01563-.6875m9.85546.92188l5.41016 4.48828m-5.41016-4.48828l.4961-2.40235m15.83984 8.14454l-.6289-6.9961m.6289 6.9961l-2.0586 1.34375m1.96485-2.35938l-1.02734.66797m17.6211-2.82422l-6.9961-.65234m6.9961.65234l.9453 2.26563m11.58594-4.82032l-5.42969 4.46094m5.4297-4.46094l2.26562.94141m-3.0547-.29297l2.26173.9414m10.75-2.47655l-3.2461 6.23046m3.2461-6.23046l2.45312-.02344m-2.92578.92969l1.22656-.01172m13.51954-.16407l-5.16407 4.76954m5.16406-4.76954l2.31641.8125m11.2539-.5l-5.67187 4.14454"/><g clip-path="url(#ae)"><path fill="none" stroke="#000" stroke-linecap="round" stroke-linejoin="round" stroke-miterlimit="10" stroke-width=".5" d="M466.39844 424.9961l2.20703 1.0703"/></g><g clip-path="url(#af)"><path fill="none" stroke="#000" stroke-linecap="round" stroke-linejoin="round" stroke-miterlimit="10" stroke-width=".5" d="M147.35156 414.8125l-6.70312-2.11719"/></g><path fill="none" stroke="#000" stroke-linecap="round" stroke-linejoin="round" stroke-miterlimit="10" stroke-width=".5" d="M146.375 414.5039l.22266 1.20704m14.16406-1.27735l-6.89453-1.35937m5.89062 1.16016l.35547 1.17578m13.8164-2.85938l-6.60155 2.40625m5.64062-2.0586l.91406.82032m13.57422.04688l-7.02344-.02344m6.00391.01953l.57031 1.08594m13.76172-.92188l-7.01953-.34375m6 .29297l.51953 1.10938m9.13281-4.54297l2.34375 6.625m11.35157-6.73438l1.58593 6.84375m14.90235-.83984l-4.76172-5.16797m4.76172 5.16797l-.8125 2.3164m14.58594-2.82812l-5.67579-4.14063m5.67578 4.14063l-.34765 2.42969m13.69531-2.47266l-5.74219-4.05469m5.7422 4.05469l-.3125 2.4336m14.1875-3.71094l-6.86329-1.5m6.86328 1.5l.66406 2.36328m12.71485-2.7539l-6.98828-.72266m6.98828.72265l.92187 2.27344m12.33985-1.92969l-6.88282-1.40625m6.88282 1.40625l.6953 2.35156m12.33985-4.58593l-6.32422 3.0625m5.40625-2.6172l.98829.72267m13.47656-.53907l-6.78906 1.80469m5.80468-1.54297l.83203.89844m13.53125.35937l-6.91796-1.23437m6.91796 1.23437l.75391 2.33594m12.58984-2.53125l-6.97265-.84375m6.97265.84375l.88282 2.28906m11.88672-4.63671l-5.87891 3.85156m5.8789-3.85156l2.14844 1.17968m-3.0039-.6211l1.07422.59376m12.47656-1.86328l-4.64063 5.27344m4.64063-5.27344l2.38672.5664m-3.0625.19922l2.38672.5664m11.99609-.92968l-5.42578 4.46485m5.42578-4.46485l2.26562.9414m-3.05468-.28905l2.26562.9414m11.8086-1.6289l-5.36329 4.53906m5.36329-4.53906l2.27734.90625m-3.0586-.2461l2.27735.91016m11.55469-1.84766l-4.83985 5.09375m4.83985-5.09375l2.36718.65625m-3.0703.08594l1.18359.32812m12.5078-1.34765l-4.18359 5.64844m4.1836-5.64844l2.42578.36328m11.34766.04297l-5.10157 4.83203m5.10157-4.83203l2.32812.78125m10.08203-1.46875l-3.28906 6.21094m3.28906-6.21094l2.45313-.0039m-2.9336.90624h1.22657"/><g clip-path="url(#ag)"><path fill="none" stroke="#000" stroke-linecap="round" stroke-linejoin="round" stroke-miterlimit="10" stroke-width=".5" d="M146.95703 402.33984l-5.91406-3.80078"/></g><path fill="none" stroke="#000" stroke-linecap="round" stroke-linejoin="round" stroke-miterlimit="10" stroke-width=".5" d="M146.09375 401.78516l-.09766 1.22265m14.77344-1.92969l-6.91016-1.28125m15.44922-2.61328l2.64453 6.51172m8.97657-5.0625l6.03125 3.60938m13.61328-2.96875l-6.6289 2.32812m13.16015-.60547l6.9375-1.11718m-5.92578.95703l-.74219-.98047m19.83984-.55469l-6.64843 2.27735m5.67968-1.94922l.89844.83984m13.57031-.20313l-7.01953.34375m7.01953-.34375l1.25782 2.10938m11.22656.33984l-5.35547-4.55078m5.35547 4.55078l-.52734 2.39454m14.58984-3.89063l-6.85156-1.5625m6.85156 1.5625l.64062 2.36719m12.76172-3.04297l-7.02344-.20703m7.02344.20703l1.08594 2.19922m12.22656-2.40235l-7.02344.19532m7.02344-.19532l1.21094 2.13672m11.97656-2.98828l-6.76562 1.89844m6.76562-1.89844l1.69531 1.77735m11.63672-1.71485l-6.80078 1.77344m6.80078-1.77344l1.66016 1.8086m11.6914-1.66016l-6.87109 1.48047m6.8711-1.48047l1.58203 1.875m10.9414 1.17578l-5.29297-4.625m4.52344 3.95313l-.27734 1.1953m14.67187-.93359l-5.91015-3.80468m5.05078 3.2539l-.10547 1.22266m14.57031-3.91406l-6.49219 2.68359m6.4922-2.6836l1.89452 1.5586m-2.83593-1.16797l.9453.78125m12.9961-1.76953l-5.85937 3.8789m5.85937-3.8789l2.15625 1.16797m-3.00781-.60547l1.07812.58594m13.3086-.76563l-6.30078 3.11328m6.30078-3.11328l1.99219 1.42969m-2.91016-.97656l1.99219 1.42969m12.23437-1.89844l-6.28515 3.14062m6.28515-3.14062l1.9961 1.42187m-2.91016-.96484l.9961.71094m12.77343-1.8672l-5.36719 4.53907m5.3672-4.53906l2.27733.91406m-3.05859-.2539l1.13672.45703m13.04297-1.00782l-5.53906 4.32422m5.53906-4.32422l2.24219.9961m-3.04688-.36719l1.1211.5m13.35937-.57031l-6.2539 3.20312m6.2539-3.20312l2.01172 1.40234m-2.92188-.9375l1.00391.70313m12.8711-1.71875l-5.5547 4.30468"/><g clip-path="url(#ah)"><path fill="none" stroke="#000" stroke-linecap="round" stroke-linejoin="round" stroke-miterlimit="10" stroke-width=".5" d="M466.33984 398.28516l2.23829 1.0078"/></g><path fill="none" stroke="#000" stroke-linecap="round" stroke-linejoin="round" stroke-miterlimit="10" stroke-width=".5" d="M465.53125 398.91406l1.11719.5039"/><g clip-path="url(#ai)"><path fill="none" stroke="#000" stroke-linecap="round" stroke-linejoin="round" stroke-miterlimit="10" stroke-width=".5" d="M146.9375 389.05078l-5.875-3.85547"/></g><path fill="none" stroke="#000" stroke-linecap="round" stroke-linejoin="round" stroke-miterlimit="10" stroke-width=".5" d="M146.08203 388.49219l-.11328 1.21875m14.82031-2.0586l-6.94922-1.05859m5.9375.90625l.40625 1.15625m13.47657-3.3086l-6.0625 3.55079m5.18359-3.03516l1.04297.64453m13.36328 1.96875l-6.48438-2.70703M194 388.4375l6.51953-2.6289m-5.57031 2.24609l-.9375-.78906m17.2539 3.30078l-1.3789-6.88672m1.17969 5.88672l-.94922.77734m16.35547-.83984l-5.16407-4.76172m4.41407 4.07031l-.3125 1.1875m14.9375-1.30078l-6.28516-3.14844m5.3711 2.6875l.02734 1.22656m14.49219-3.08593l-6.8672 1.48828m6.8672-1.48828l1.58593 1.87109m11.72656-1.89453l-6.85937 1.53515m6.85938-1.53515l1.59375 1.86328m-2.59375-1.63672l.80078.92969m13.59375-.55469l-7.01953.33203m7.01953-.33203l1.2539 2.10938m-2.27343-2.0625l.625 1.05468m13.6953-1.28515l-6.99218.69922m6.99219-.69922l1.36328 2.04297m-2.3789-1.94141l.67968 1.02344m13.32031-2.30078l-6.32812 3.05078m6.32812-3.05078l1.98047 1.44921m11.3086-1.5039l-6.27735 3.16015m6.27735-3.16015l2.0039 1.41406m11.42578-1.16015l-6.50781 2.65234m6.50781-2.65235l1.88672 1.57422m11.35156-1.75l-6.35156 3.00391m6.35156-3.0039l1.96875 1.46874m11.54688-.9375l-6.7539 1.94141m6.7539-1.9414l1.70703 1.76562m-2.6914-1.48438l1.70703 1.76563m12.1953-2.9414l-5.95702 3.73046m5.95703-3.73047l2.125 1.22656m-2.99219-.68359l1.0625.61328m13.08984-1.19531l-5.90234 3.8125m5.90234-3.8125l2.14454 1.1914m-3-.63671l2.14062 1.1914m11.86719-1.98046l-5.57422 4.27734m5.57422-4.27735L402.0078 386m-3.04687-.39453l1.11719.51172m13.15625-.92969l-5.86329 3.8711m5.86329-3.8711l2.15234 1.17188m-3.00781-.60938l1.07812.58594m12.96485-1.32813l-5.60938 4.23438m5.60938-4.23438l2.22265 1.03125m-3.03906-.41797l1.11328.51954m12.91406-1.26172l-5.40625 4.48828m5.40625-4.48828l2.27344.92968m-3.0586-.27734l1.13673.46484m13.64062.16016l-6.75781 1.9336m6.75781-1.9336l1.70313 1.76953m11.35546-2.41797l-6.24218 3.23047"/><g clip-path="url(#aj)"><path fill="none" stroke="#000" stroke-linecap="round" stroke-linejoin="round" stroke-miterlimit="10" stroke-width=".5" d="M466.6836 385.50781l2.01562 1.39453"/></g><path fill="none" stroke="#000" stroke-linecap="round" stroke-linejoin="round" stroke-miterlimit="10" stroke-width=".5" d="M465.77344 385.97656l1.01172.69922"/><g clip-path="url(#ak)"><path fill="none" stroke="#000" stroke-linecap="round" stroke-linejoin="round" stroke-miterlimit="10" stroke-width=".5" d="M146.8086 375.91797l-5.6172-4.21875"/></g><path fill="none" stroke="#000" stroke-linecap="round" stroke-linejoin="round" stroke-miterlimit="10" stroke-width=".5" d="M145.99219 375.30469l-.1914 1.21094m14.7539-1.34375l-6.47656-2.72657m6.47656 2.72656l.21875 2.44141m12.8789-5.59765l-6.04297 3.58593m6.04297-3.58594l2.09766 1.27735m9.58984-2.70703l-2.78906 6.44531m12.86719-.23047l3.6875-5.98437M213.8828 375l-6.61328-2.38281m5.64844 2.03515l.17578 1.21485m13.75781-.17188l-5.92578-3.77344m5.92578 3.77344l-.1914 2.44531m13.8789-3.22656l-6.66797-2.21094m6.66797 2.21094l.41406 2.41797m12.94922-2.57031l-6.76562-1.90625m6.76562 1.90625l.52344 2.39453m-1.50781-2.67188l.26172 1.19922m14.01953-.86328l-6.72656-2.02344m6.72656 2.02344l.48047 2.40625m-1.45703-2.69922l.23828 1.20313m14.1914-1.625l-7.0039-.59375m7.0039.59375l.96485 2.2539m-1.98438-2.33984l.48438 1.125m13.86328-1.36328l-7.02735.05469m7.02735-.05469l1.16797 2.15625m-2.1914-2.14844l.58202 1.07813m13.6836-1.76563l-6.88282 1.41406m6.88282-1.41406l1.5664 1.88672m-2.5664-1.6836l.78125.94532m13.46875-1.41797l-6.75391 1.94922m6.7539-1.94922l1.70704 1.76172m-2.6914-1.47656l.85546.88281m13.36328-1.41016l-6.58984 2.4375m6.58984-2.4375l1.83203 1.62891m-2.79297-1.27734l.91797.8164m13.41797-.98828l-6.71094 2.07813m6.71094-2.07813l1.74219 1.72656m-2.71875-1.42578l1.74219 1.73047m12.52343-2.11719l-6.66015 2.2461m6.66015-2.2461l1.78516 1.6875m-2.7539-1.35937l1.78515 1.6836m12.41016-2.2422l-6.48438 2.71094m6.48438-2.71094l1.89843 1.5547m-2.83984-1.16016l1.89844 1.55468m12.26562-2.14843l-6.30078 3.10937m6.30078-3.10937l1.99219 1.43359m-2.90625-.98047l1.99219 1.4336m12.38672-1.54297l-6.59766 2.42187m6.59766-2.42187l1.82812 1.63671m-2.78906-1.28515l1.82812 1.63672m12.23438-2.45703l-6.17188 3.35937m6.17188-3.35937l2.04687 1.35156m-2.9453-.86328l2.04687 1.35156m12.08593-1.98047l-6.01172 3.63672m6.01172-3.63672l2.10938 1.25781m-2.98047-.72656l1.05078.6289m12.60156-1.83593l-4.9414 4.99219m4.9414-4.99219l2.35157.70313m-3.07032.02343l1.17578.35156m13.00391-.92578l-5.23437 4.6875m4.47265-4.0039l1.15235.42187m13.21875-.72656l-5.82422 3.92969"/><g clip-path="url(#al)"><path fill="none" stroke="#000" stroke-linecap="round" stroke-linejoin="round" stroke-miterlimit="10" stroke-width=".5" d="M466.47266 371.84375l2.16796 1.15234"/></g><g clip-path="url(#am)"><path fill="none" stroke="#000" stroke-linecap="round" stroke-linejoin="round" stroke-miterlimit="10" stroke-width=".5" d="M146.21875 363.21484l-4.4375-5.4453"/></g><path fill="none" stroke="#000" stroke-linecap="round" stroke-linejoin="round" stroke-miterlimit="10" stroke-width=".5" d="M146.21875 363.21484l-.94922 2.26172m14.625-2.59765l-5.15625-4.77344m5.15625 4.77344l-.6289 2.375m14.86328-5.08985l-6.9961.65625m6.9961-.65625l1.34765 2.05078m11.91016-1.01562l-6.88281-1.41016m6.8828 1.41016l.69532 2.35547m12.57031-2.15235l-6.78515-1.8203m6.78515 1.8203l.55078 2.39454m12.69532-2.16407l-6.64844-2.27734m6.64844 2.27734l.39062 2.42188m12.75781-2.01563l-6.3125-3.08984m6.3125 3.08984l.08204 2.44922m-1-2.89844l.03906 1.22657m14.19922-.79297l-6.32422-3.0625m6.32422 3.0625l.09375 2.45312m-1.01563-2.89844l.04688 1.22657m14.3164-1.07031l-6.57422-2.48047m6.57422 2.48046l.3125 2.4336m13.22657-3.63672l-7.02735-.07422m7.02735.07422l1.1289 2.17578m-2.14843-2.1875l.5625 1.08985m13.76953-.92188l-7.01953-.38672m7.01953.38672l1.03125 2.22266m-2.0547-2.28125l.51563 1.11328m13.82422-1.33203l-7.02343.16796m7.02343-.16796l1.20313 2.13671m-2.22266-2.11328l1.20313 2.14063m13.09765-2.59375l-6.95312 1.02734m6.95312-1.02734l1.45703 1.97265m-2.46875-1.82421l1.45704 1.97265m12.82421-2.35937l-6.86328 1.5m6.86328-1.5l1.58985 1.8711m-2.58594-1.65235l1.58594 1.8711m12.6875-2.2461l-6.78906 1.8125m6.78906-1.8125l1.67187 1.79687m-2.66015-1.53125l1.67187 1.79297m12.67578-1.88281l-6.875 1.46094m6.875-1.46094l1.57422 1.8789m-2.57422-1.66406l1.57422 1.8789m12.71875-2.1914l-6.83203 1.65625m6.83203-1.65625l1.6289 1.83594m-2.625-1.59375l1.63282 1.83594m12.64063-2.22266l-6.75391 1.94531m6.7539-1.9453l1.70313 1.76562m-2.6875-1.48047l1.70703 1.76172m12.35547-2.64454l-6.28516 3.14454m6.28516-3.14454l2 1.42188m-2.91406-.96484l2 1.42187m-2.91406-.96484l1 .71094m14.19921-1.51172l-6.39453 2.91796m6.39453-2.91796l1.94532 1.49218m-2.875-1.0664l1.9453 1.49219m12.39845-1.67188l-6.59375 2.42578m6.59375-2.42578l1.83203 1.63672m-2.78906-1.28516l1.82812 1.63672m12.40625-2.08984l-6.51562 2.625m6.51562-2.625l1.8789 1.57812m-2.82812-1.19531l1.8789 1.57813m11.96876-2.71485l-5.6836 4.13672m5.6836-4.13672l2.20312 1.07422m-3.03125-.47266l2.20703 1.07422m12.08594-1.44922l-5.98437 3.6797m5.98437-3.6797l2.11719 1.2422m-2.98828-.70704l1.0586.6211m13.24609-.95313l-6.21875 3.27344"/><g clip-path="url(#an)"><path fill="none" stroke="#000" stroke-linecap="round" stroke-linejoin="round" stroke-miterlimit="10" stroke-width=".5" d="M466.67188 358.85547l2.02734 1.38281"/></g><path fill="none" stroke="#000" stroke-linecap="round" stroke-linejoin="round" stroke-miterlimit="10" stroke-width=".5" d="M465.76563 359.33203l1.01562.6914"/><g clip-path="url(#ao)"><path fill="none" stroke="#000" stroke-linecap="round" stroke-linejoin="round" stroke-miterlimit="10" stroke-width=".5" d="M146.13672 349.96875l-4.27344-5.57813"/></g><path fill="none" stroke="#000" stroke-linecap="round" stroke-linejoin="round" stroke-miterlimit="10" stroke-width=".5" d="M146.13672 349.96875l-1.01953 2.23047m.39844-3.04297l-.51172 1.11719m14.79297-.60938l-4.96485-4.97265m4.96484 4.97265l-.72265 2.34766m0-3.07031l-.35938 1.17187m15.42578-2.84375l-7.02343-.1836m7.02344.1836l1.09765 2.19531m-2.11719-2.22265l.54688 1.09765m13.78125-.89453l-7.00781-.53515m7.0078.53515l.98048 2.25m12.33984-2.34765l-7.01953-.33985m6 .28906l.52344 1.10938m13.8125-1.0625l-7.01953-.33203m7.01953.33203l1.04687 2.21875m12.1836-1.60156l-6.85157-1.5664m6.85157 1.5664l.63672 2.3711m-1.63282-2.59767l.3164 1.1836m13.875-.55078l-6.61327-2.3789m6.61328 2.3789l.35156 2.42969m-1.3125-2.77735l.17578 1.21485m14.2461-1.40625l-6.90625-1.30079m6.90625 1.30079l.73047 2.34375m-1.73438-2.53125l.36328 1.17187m13.98828-1.19531l-6.96875-.8789m6.96875.8789l.875 2.29297m-1.88672-2.42188l.4336 1.14844m13.88672-.96875l-6.95704-.98047m6.95704.98047l.83984 2.30469m-1.85156-2.44532l.83984 2.3047m13.51563-2.44142l-7.01563-.42578m7.01563.42579l1.01953 2.23046m-2.03907-2.29296l1.01954 2.23437m13.3203-2.38281h-7.02734m7.02735 0l1.15234 2.16406m-2.17187-2.16406l.57422 1.08203m13.72265-1.61719l-6.94922 1.0664m6.94922-1.0664l1.46485 1.96875m-2.47657-1.8125l.73438.98438m13.5586-1.32422l-6.87891 1.4336m6.8789-1.4336l1.57031 1.88672m-2.5703-1.6797l1.5664 1.88673m12.76562-2.00781l-6.91406 1.26171m6.91406-1.26171l1.51953 1.92187m-2.52734-1.73828l1.52344 1.92578m12.8164-1.98828l-6.94921 1.01953m6.94921-1.01953l1.45704 1.97656m-2.46485-1.82812l1.45313 1.97656m12.8164-2.41797l-6.83984 1.60938m6.83984-1.60938l1.6172 1.84375m-2.61329-1.60938l1.61719 1.84375m12.54687-2.54687l-6.54687 2.54688m6.54687-2.54688l1.85938 1.60156m-2.8125-1.23437l1.85937 1.60156m12.15625-2.49219l-6.04297 3.58985m6.04297-3.58985l2.09766 1.27344m-2.97656-.75l2.09765 1.27344m12.04688-1.875l-5.94532 3.7461m5.94532-3.7461l2.1289 1.21484m-2.99218-.67187l2.1289 1.21875m-2.9961-.67188l1.06641.60938m13.88282-1.84375l-5.7539 4.03515m5.7539-4.03515l2.1875 1.11328m-3.02344-.52735l2.1875 1.11329m-3.02344-.52344l1.09375.55469m13.84766-1.79297l-5.66016 4.16406m5.66016-4.16406l2.21094 1.0625m-3.03516-.45704l2.21094 1.0625m12.27734-1.08203l-6.35937 2.98829m6.35937-2.98829l1.96484 1.47266M452.5 346.11719l.98437.73828m13.29297-1.08985l-6.43359 2.82422"/><g clip-path="url(#ap)"><path fill="none" stroke="#000" stroke-linecap="round" stroke-linejoin="round" stroke-miterlimit="10" stroke-width=".5" d="M466.77734 345.76563l1.92579 1.51953"/></g><g clip-path="url(#aq)"><path fill="none" stroke="#000" stroke-linecap="round" stroke-linejoin="round" stroke-miterlimit="10" stroke-width=".5" d="M465.84375 346.17578l1.92578 1.52344"/></g><g clip-path="url(#ar)"><path fill="none" stroke="#000" stroke-linecap="round" stroke-linejoin="round" stroke-miterlimit="10" stroke-width=".5" d="M146.64063 336.17969l-5.28125-4.63281"/></g><path fill="none" stroke="#000" stroke-linecap="round" stroke-linejoin="round" stroke-miterlimit="10" stroke-width=".5" d="M146.64063 336.17969l-.5625 2.39062m-.20704-3.0625l-.28125 1.1914m14.64063-.875l-5.83203-3.92187m5.83203 3.92188l-.2539 2.4414m-.59376-3.01171l-.2539 2.4414m-.59375-3.01172l-.12891 1.21875m15.42578-.59375l-6.40625-2.89062m6.40625 2.89062l.16016 2.44532m-1.08985-2.8672l.07813 1.22267m14.25781-1.02735l-6.58594-2.4414m6.58594 2.4414l.32813 2.4336m-1.28516-2.78516l.32813 2.42969m14.16406-3.23829l-7.02735-.11718m7.02735.11719l1.11719 2.18359m-2.14063-2.20313l1.11719 2.1875m13.14844-2.92968l-6.88282 1.40625m6.88281-1.40625l1.56641 1.89062m-2.5664-1.6875l1.5625 1.89063m12.82421-1.27344l-7.02343-.23438m7.02343.23438l1.07813 2.20312m-2.10156-2.23828l1.08203 2.20313m13.17187-1.51953l-6.85547-1.53125m6.85547 1.53125l.65235 2.36718m-1.64844-2.58984l.32422 1.1836m13.94531-.79298l-6.77344-1.86718m6.77344 1.86719l.53516 2.39453m-1.51953-2.66797l.26953 1.19922m14.01562-.8672l-6.74219-1.98437m6.7422 1.98438l.49218 2.40234m-1.47266-2.6914l.2461 1.20312m14.10937-1.14844l-6.86328-1.51562m6.86328 1.51562l.65625 2.36329m-1.65625-2.58594l.33203 1.1836m14.02735-1.20313l-6.94922-1.03125m6.94922 1.03125l.8203 2.3125m-1.83202-2.46094l.41015 1.15625m13.94532-1.29688l-7.01172-.45312m7.01172.45312l1.01172 2.23438m-2.03125-2.30078l.5078 1.11719m13.83204-1.46875l-7.01953.3828m7.01953-.3828l1.26953 2.09765m-2.29297-2.04297l.63672 1.05078m13.67578-1.37109l-6.96875.91406m6.96875-.91406l1.42578 1.9961m-2.4414-1.86329l.71484.9961m13.5586-1.44532l-6.85547 1.54688m6.85546-1.54688l1.60157 1.86329m-2.59766-1.63672l.80078.92968m13.41797-1.48828l-6.66797 2.20703m6.66797-2.20703l1.77734 1.69531m11.64844-1.28515l-6.88672 1.39062m6.88672-1.39062l1.5586 1.89453m-2.5625-1.6914l1.55859 1.89452m12.6914-2.375l-6.75 1.94532m6.75-1.94531l1.70704 1.76171m-2.6875-1.48046l.85156.8828m13.53516-.7578l-6.9336 1.1328m6.9336-1.1328l1.48828 1.95312m-2.4961-1.78906l.74219.97656m13.42969-1.73828l-6.63281 2.32812m6.6328-2.32812l1.8047 1.66406m-2.76954-1.32422l.90235.83203m13.00781-1.92187l-5.89062 3.82812m5.89062-3.82812l2.14844 1.1875m-3.0039-.6289l1.0703.59374m12.6875-1.67578l-5.0664 4.8711m5.0664-4.8711l2.33204.76563m-3.07032-.0547l1.16797.38282m13.25-.64453l-5.79687 3.97656m5.79687-3.97656l2.17578 1.13672m-3.01953-.5586l2.17578 1.13672m12.2539-1.24218l-6.33983 3.03125"/><g clip-path="url(#as)"><path fill="none" stroke="#000" stroke-linecap="round" stroke-linejoin="round" stroke-miterlimit="10" stroke-width=".5" d="M466.73047 332.34766l1.97656 1.46093"/></g><path fill="none" stroke="#000" stroke-linecap="round" stroke-linejoin="round" stroke-miterlimit="10" stroke-width=".5" d="M465.8086 332.78906l.98827.73047"/><g clip-path="url(#at)"><path fill="none" stroke="#000" stroke-linecap="round" stroke-linejoin="round" stroke-miterlimit="10" stroke-width=".5" d="M142.53906 323.74219l2.92188-6.39063"/></g><path fill="none" stroke="#000" stroke-linecap="round" stroke-linejoin="round" stroke-miterlimit="10" stroke-width=".5" d="M160.5039 322.02734l-6.375-2.95703m6.375 2.95703l.13282 2.44922m13.48437-3.52734l-6.98047-.80078m6.98047.80078l.89844 2.28125m-1.91406-2.39844l.89844 2.28125M187.25 321.7461l-6.60938-2.39453m6.60938 2.39453l.34375 2.4297m-1.3086-2.77735l.34766 2.42969m14.1211-2.89454l-6.98438-.76953m6.98438.76953l.90625 2.28125m-1.92188-2.39453l.45313 1.14063M214 319.76172l-6.84766 1.57031M214 319.76172l1.60547 1.85547m-2.60156-1.625l1.60547 1.85547m12.6328-2.35547l-6.70312 2.11328m6.70313-2.11328l1.75 1.71875m-2.72656-1.41016l1.75 1.71875m12.6953-1.23047l-7.0078.51563m7.0078-.51563l1.3047 2.07813m-2.32422-2.0039l.65234 1.03905m13.6836-.64453l-7.01563-.42187m7.01562.42187l1.01953 2.23438m-2.03906-2.29297l.50781 1.11328m13.77735-.64844l-6.91797-1.23437m6.91797 1.23437l.7539 2.33594m-1.7578-2.51563l.375 1.16797m13.84765-.57812l-6.72266-2.05078m6.72266 2.05078l.46875 2.40625m-1.44531-2.70703l.23437 1.20703m14.20313-1.70313l-7.01172-.45703m7.01172.45703l1.0078 2.23829m12.29298-2.8672l-6.98438.80079m6.98438-.80078l1.39062 2.01953m11.92578-1.97656l-6.98828.71484m6.98828-.71484l1.3672 2.03906m11.84765-2.58985l-6.78907 1.81641m6.78907-1.8164l1.67187 1.79296m11.44922-2.33984L340.52734 322m6.39844-2.90625l1.94531 1.5m10.32422-2.82031l-4.3086 5.55078m4.3086-5.55078l2.41797.41797m11.51953.20312l-5.55469 4.30469m5.5547-4.30469l2.23827 1.00781m11.67578.17579l-6.7539 1.9375m6.7539-1.9375l1.70704 1.76562m11.33203-2.45313l-6.19922 3.3125m6.19922-3.3125l2.03515 1.3672m10.85938-1.98438l-5.35547 4.54687m5.35547-4.54687l2.28125.90625m10.01562-1.72656l-3.32422 6.1914m3.32422-6.1914l2.45313.0078m10.75781-.0625l-3.11328 6.29688m2.66016-5.3789l1.22656-.03907m14.11719.67579l-6.26563 3.1875m6.26563-3.1875l2.0078 1.41015m-2.91796-.94531l1.0039.70312m12.82422-1.78125l-5.46875 4.41407"/><g clip-path="url(#au)"><path fill="none" stroke="#000" stroke-linecap="round" stroke-linejoin="round" stroke-miterlimit="10" stroke-width=".5" d="M466.29688 318.33984l2.2578.96485"/></g><g clip-path="url(#av)"><path fill="none" stroke="#000" stroke-linecap="round" stroke-linejoin="round" stroke-miterlimit="10" stroke-width=".5" d="M465.5 318.98438l2.25781.96093"/></g><path fill="#00f" fill-rule="evenodd" d="M383.80078 467.64844h8.61719V457.5039h-8.61719v10.14453"/><path fill="azure" fill-rule="evenodd" d="M385.63281 459.33594h.83203v2.82422h3.28907v-2.82422h.83203v6.48047h-.83203v-2.91797h-3.28907v2.91797h-.83203v-6.48047"/><path fill="#00f" fill-rule="evenodd" d="M312.78516 458.77344h8.62109V448.625h-8.6211v10.14844"/><path fill="azure" fill-rule="evenodd" d="M314.6211 450.45703h.83202v2.82422h3.28516v-2.82422h.83203v6.48047h-.83203v-2.91406h-3.28515v2.91406h-.83204v-6.48047"/><path fill="#00f" fill-rule="evenodd" d="M383.80078 436.57813h8.61719v-10.14454h-8.61719v10.14454"/><path fill="azure" fill-rule="evenodd" d="M385.63281 428.26563h.83203v2.82421h3.28907v-2.82421h.83203v6.48046h-.83203v-2.91406h-3.28907v2.91406h-.83203v-6.48046"/><path fill="#ff3030" fill-rule="evenodd" d="M375.61719 418.82813h7.69531v-10.14844h-7.69531v10.14844"/><path fill="azure" fill-rule="evenodd" d="M377.44922 410.51172h.83594v5.74219h3.1914v.73828h-4.02734v-6.48047"/><path fill="#00f" fill-rule="evenodd" d="M224.01953 414.38672h8.61719v-10.14453h-8.61719v10.14453"/><path fill="azure" fill-rule="evenodd" d="M225.85156 406.07422h.83594v2.82422h3.28516v-2.82422h.83203v6.48047h-.83203v-2.91406h-3.28516v2.91406h-.83594v-6.48047"/><path fill="#ff3030" fill-rule="evenodd" d="M295.72656 409.94922h7.69531v-10.14453h-7.6953v10.14453"/><path fill="azure" fill-rule="evenodd" d="M297.5586 401.63672h.83593v5.73828h3.1914v.74219h-4.02734v-6.48047"/><path fill="#ff3030" fill-rule="evenodd" d="M202.52344 370.0039h7.6914v-10.14452h-7.6914v10.14453"/><path fill="azure" fill-rule="evenodd" d="M204.35547 361.6914h.83203v5.73829h3.19531v.74219h-4.02734v-6.48047"/><path fill="#ffffe0" fill-rule="evenodd" d="M310.67578 351.03906h22.17969v-10.1914h-22.17969v10.1914"/><path fill-rule="evenodd" d="M314.17578 342.67969h.50781v6.29687h-.78515v-4.48828h-1.39063v-.5586l.5586-.0625.2539-.05468.23047-.08984.20313-.14063.17187-.21094.14453-.29296.10547-.39844m4.8125 0l.23047.01953.21875.0586.20703.08593.19531.1211.1836.15234.17187.17578.30469.41797.24219.49219.17969.54687.10937.58203.03906.58985-.03906.59375-.10938.58203-.17968.55468-.24219.50391-.30469.42578-.17187.17969-.1836.15234-.1953.125-.20704.09375-.21875.05469-.23047.01953-.23047-.01953-.21875-.05469-.20703-.09375-.19531-.125-.1836-.15234-.17187-.17969-.30469-.42578-.24219-.5039-.17968-.5547-.10938-.58202-.03906-.59375h.83203l.03125.5625.07813.5078.1289.44141.16016.375.1914.30079.21094.21875.22266.13671.22656.04688.22656-.04688.22266-.13671.21094-.21875.1914-.30079.16016-.375.1289-.4414.08204-.50781.02734-.5625-.02734-.5625-.08203-.5-.12891-.4336-.16016-.36719-.1914-.29296-.21094-.21485-.22266-.1289-.22656-.04688-.22656.04688-.22266.1289-.21094.21485-.1914.29296-.16016.3672-.1289.43358-.07813.5-.03125.5625h-.83203l.03906-.58984.10938-.58203.17969-.54688.24218-.49218.30469-.41797.17188-.17578.18359-.15235.19531-.12109.20703-.08594.21875-.0586.23047-.01952m5.08985 0h.51171v6.29687h-.78906v-4.48828h-1.38672v-.5586l.5586-.0625.2539-.05468.23047-.08984.20313-.14063.17187-.21094.14063-.29296.10546-.39844m2.82422 2.17578h.78907l.01953-.3164.0586-.28516.09765-.25391.14062-.21484.1836-.17188.22265-.1289.26563-.08204.30469-.02734.23828.02344.22656.0625.20312.10156.1797.13672.14843.17187.11328.20704.07031.23828.02735.26171-.02344.26954-.0664.22656-.10938.1914-.15625.16797-.19922.16407-.2461.16796-.63671.38672-.53516.3125-.4375.31641-.34766.32422-.26562.33594-.1875.35156-.125.3711-.07031.39452-.01954.41797h4.21094v-.74219h-3.33203l.08203-.28125.11328-.23828.14844-.20312.1875-.17969.23047-.17187.27734-.17579.71875-.41406.41407-.20703.34765-.23047.28125-.25.21875-.26953.16406-.27734.10938-.28125.0664-.28516.01954-.28125-.04297-.38672-.1211-.34765-.1875-.3047-.25-.26562-.30468-.21093-.34375-.16016-.3789-.09766-.41017-.03515-.43359.03515-.39844.09766-.35546.16797-.3047.23437-.24609.30079-.1875.375-.11328.44921-.04297.51563"/><path fill="#ffffe0" fill-rule="evenodd" d="M217.46875 332.21094h22.17969v-10.1914h-22.17969v10.1914"/><path fill-rule="evenodd" d="M220.96875 323.85156h.50781v6.29688h-.78515v-4.49219h-1.38672v-.55469l.5586-.0664.25-.05079.23046-.08984.20313-.14453.17578-.20703.14062-.29688.10547-.39453m4.8125 0l.23047.01953.21875.0547.20703.08983.19922.1211.1836.14844.17187.17578.30078.42187.24219.49219.17968.54688.11328.57812.03907.58984-.03906.59375-.11329.58594-.17968.55469-.2422.5-.30077.42969-.17188.17968-.1836.15235-.19921.125-.20703.08984-.21875.0586-.23047.01953-.22656-.01954-.21875-.05859-.21094-.08984-.19531-.125-.1836-.15235-.17187-.17968-.30078-.4297-.24219-.5-.17969-.55468-.11328-.58594-.03906-.59375h.83594l.02734.56641.08203.5039.125.44141.16406.375.19141.30078.20703.22266.22266.13672.22656.04687.22656-.04687.22266-.13672.21094-.22266.1914-.30078.16406-.375.125-.4414.08204-.50391.02734-.5664-.02734-.5586-.08203-.5-.125-.4375-.16407-.36328-.1914-.29297-.21094-.21484-.22266-.13282-.22656-.04296-.22656.04296-.22266.13282-.20703.21484-.1914.29297-.16407.36328-.125.4375-.08203.5-.02734.5586h-.83594l.03906-.58985.11328-.57813.17969-.54687.24219-.49219.30078-.42187.17187-.17578.1836-.14844.19531-.1211.21094-.08984.21875-.05469.22656-.01953m5.09375 0h.50781v6.29688h-.78515v-4.49219h-1.39063v-.55469l.5625-.0664.25-.05079.23047-.08984.20313-.14453.17578-.20703.14062-.29688.10547-.39453m2.82422 2.17578h.78516l.01953-.3164.05859-.28516.10156-.2539.14063-.21485.17969-.17578.22265-.1289.26563-.07813.30859-.02735.23828.01954.22266.0625.20312.10156.17969.14062.14844.17188.11328.20703.07422.23438.02344.26562-.02344.26953-.0625.22266-.11328.1914-.15235.17188-.20312.16406-.2461.16406-.6328.39063-.53907.3125-.4375.3164-.34766.32422-.26172.33594-.1914.35156-.125.3711-.07031.39062-.01954.42188h4.21094v-.74219h-3.33203l.08594-.28516.11328-.23437.14844-.20313.1875-.17968.23047-.17188.27734-.17578.71875-.41797.41406-.20312.34375-.23047.28125-.2539.21875-.26563.16406-.27735.11328-.28515.0625-.28516.01954-.28125-.03907-.38281-.12109-.34766-.1914-.3086-.25-.26171-.30079-.21485-.34765-.15625-.37891-.09765-.40625-.03516-.4336.03125-.39843.10156-.35547.16407-.30469.23437-.25.30469-.1836.375-.11718.44531-.03906.51953"/></g></defs><use xlink:href="#aw"/></svg>