<svg xmlns="http://www.w3.org/2000/svg" role="img" xmlns:xlink="http://www.w3.org/1999/xlink" viewBox="142.45 309.95 326.84 171.84"><defs><clipPath id="a"><path d="M144 441h1v39.32813h-1zm0 0"/></clipPath><clipPath id="b"><path d="M144 311.67188h1V321h-1zm0 0"/></clipPath><clipPath id="c"><path d="M144 311.67188h324v168.65625H144zm0 0"/></clipPath><clipPath id="d"><path d="M144 311.67188h8V321h-8zm0 0"/></clipPath><clipPath id="e"><path d="M382 455h16v25.32813h-16zm0 0"/></clipPath><clipPath id="f"><path d="M385 477h11v3.32813h-11zm0 0"/></clipPath><clipPath id="g"><path d="M467 311.67188h1v168.65625h-1zm0 0"/></clipPath><clipPath id="h"><path d="M144 479h4v1.32813h-4zm0 0"/></clipPath><clipPath id="i"><path d="M147 479h3v1.32813h-3zm0 0"/></clipPath><clipPath id="j"><path d="M153 479h9v1.32813h-9zm0 0"/></clipPath><clipPath id="k"><path d="M160 479h3v1.32813h-3zm0 0"/></clipPath><clipPath id="l"><path d="M166 480h9v.32813h-9zm0 0"/></clipPath><clipPath id="m"><path d="M173 480h3v.32813h-3zm0 0"/></clipPath><clipPath id="n"><path d="M180 479h8v1.32813h-8zm0 0"/></clipPath><clipPath id="o"><path d="M187 480h2v.32813h-2zm0 0"/></clipPath><clipPath id="p"><path d="M193 479h9v1.32813h-9zm0 0"/></clipPath><clipPath id="q"><path d="M200 480h2v.32813h-2zm0 0"/></clipPath><clipPath id="r"><path d="M206 479h9v1.32813h-9zm0 0"/></clipPath><clipPath id="s"><path d="M213 480h3v.32813h-3zm0 0"/></clipPath><clipPath id="t"><path d="M220 479h8v1.32813h-8zm0 0"/></clipPath><clipPath id="u"><path d="M227 480h2v.32813h-2zm0 0"/></clipPath><clipPath id="v"><path d="M233 479h8v1.32813h-8zm0 0"/></clipPath><clipPath id="w"><path d="M240 480h2v.32813h-2zm0 0"/></clipPath><clipPath id="x"><path d="M239 480h2v.32813h-2zm0 0"/></clipPath><clipPath id="y"><path d="M246 479h9v1.32813h-9zm0 0"/></clipPath><clipPath id="z"><path d="M253 480h3v.32813h-3zm0 0"/></clipPath><clipPath id="A"><path d="M252 480h2v.32813h-2zm0 0"/></clipPath><clipPath id="B"><path d="M260 479h8v1.32813h-8zm0 0"/></clipPath><clipPath id="C"><path d="M267 480h2v.32813h-2zm0 0"/></clipPath><clipPath id="D"><path d="M273 480h8v.32813h-8zm0 0"/></clipPath><clipPath id="E"><path d="M280 480h3v.32813h-3zm0 0"/></clipPath><clipPath id="F"><path d="M286 479h9v1.32813h-9zm0 0"/></clipPath><clipPath id="G"><path d="M293 479h3v1.32813h-3zm0 0"/></clipPath><clipPath id="H"><path d="M300 479h8v1.32813h-8zm0 0"/></clipPath><clipPath id="I"><path d="M307 479h2v1.32813h-2zm0 0"/></clipPath><clipPath id="J"><path d="M313 479h8v1.32813h-8zm0 0"/></clipPath><clipPath id="K"><path d="M319 480h2v.32813h-2zm0 0"/></clipPath><clipPath id="L"><path d="M326 479h9v1.32813h-9zm0 0"/></clipPath><clipPath id="M"><path d="M332 480h2v.32813h-2zm0 0"/></clipPath><clipPath id="N"><path d="M340 479h8v1.32813h-8zm0 0"/></clipPath><clipPath id="O"><path d="M345 480h2v.32813h-2zm0 0"/></clipPath><clipPath id="P"><path d="M353 478h8v2.32813h-8zm0 0"/></clipPath><clipPath id="Q"><path d="M368 477h5v3.32813h-5zm0 0"/></clipPath><clipPath id="R"><path d="M380 477h7v3.32813h-7zm0 0"/></clipPath><clipPath id="S"><path d="M393 478h8v2.32813h-8zm0 0"/></clipPath><clipPath id="T"><path d="M391 480h4v.32813h-4zm0 0"/></clipPath><clipPath id="U"><path d="M407 477h6v3.32813h-6zm0 0"/></clipPath><clipPath id="V"><path d="M420 477h7v3.32813h-7zm0 0"/></clipPath><clipPath id="W"><path d="M433 478h8v2.32813h-8zm0 0"/></clipPath><clipPath id="X"><path d="M449 476h3v4.32813h-3zm0 0"/></clipPath><clipPath id="Y"><path d="M462 476h4v4.32813h-4zm0 0"/></clipPath><clipPath id="Z"><path d="M144 466h4v2h-4zm0 0"/></clipPath><clipPath id="aa"><path d="M144 453h4v2h-4zm0 0"/></clipPath><clipPath id="ab"><path d="M144 439h4v3h-4zm0 0"/></clipPath><clipPath id="ac"><path d="M144 425h4v4h-4zm0 0"/></clipPath><clipPath id="ad"><path d="M466 425h2v2h-2zm0 0"/></clipPath><clipPath id="ae"><path d="M465 425h3v3h-3zm0 0"/></clipPath><clipPath id="af"><path d="M144 412h4v4h-4zm0 0"/></clipPath><clipPath id="ag"><path d="M465 411h3v2h-3zm0 0"/></clipPath><clipPath id="ah"><path d="M144 398h4v5h-4zm0 0"/></clipPath><clipPath id="ai"><path d="M466 398h2v2h-2zm0 0"/></clipPath><clipPath id="aj"><path d="M144 384h3v7h-3zm0 0"/></clipPath><clipPath id="ak"><path d="M466 385h2v3h-2zm0 0"/></clipPath><clipPath id="al"><path d="M144 370h1v8h-1zm0 0"/></clipPath><clipPath id="am"><path d="M144 375h1v3h-1zm0 0"/></clipPath><clipPath id="an"><path d="M144 357h3v7h-3zm0 0"/></clipPath><clipPath id="ao"><path d="M466 359h2v3h-2zm0 0"/></clipPath><clipPath id="ap"><path d="M144 343h2v8h-2zm0 0"/></clipPath><clipPath id="aq"><path d="M144 350h2v3h-2zm0 0"/></clipPath><clipPath id="ar"><path d="M466 345h2v3h-2zm0 0"/></clipPath><clipPath id="as"><path d="M465 345h3v4h-3zm0 0"/></clipPath><clipPath id="at"><path d="M144 330h2v8h-2zm0 0"/></clipPath><clipPath id="au"><path d="M144 337h2v3h-2zm0 0"/></clipPath><clipPath id="av"><path d="M466 332h2v3h-2zm0 0"/></clipPath><clipPath id="aw"><path d="M465 332h3v3h-3zm0 0"/></clipPath><clipPath id="ax"><path d="M144 317h2v8h-2zm0 0"/></clipPath><clipPath id="ay"><path d="M466 318h2v3h-2zm0 0"/></clipPath><clipPath id="az"><path d="M465 319h3v2h-3zm0 0"/></clipPath><g id="aA" clip-path="url(#clip1)"><path fill="#fff" fill-opacity="0" fill-rule="evenodd" d="M0 0h1000v1000H0zm0 0"/><path fill="#d3d3d3" fill-opacity="0" fill-rule="evenodd" d="M162.15234 355.86719l-.23437.29297.0586.23437.11718.17188.17578.23437.29297.34766.11328.0586.11719-.17188.0586-.23438.17577-.17578.46485-.17578h.69922l.23437.29297.28906.8164.0586.17579.17578.23046.35156.23438.69922.69922.17188.17578.23437.34765.23438.41016.28906.58203.41015.46485.23047.23437.23438.17578.11719.23047.17578.29297.17187 1.16406v.23438l.0586.28906.05859.11719.11719.11719.34765.41015.11719.17188.17578.17578.17578.23437.11719.17188.17188.35156.05859.23438.23437.40625.23438-.0586-.17578.17578-.0586.92969h-.58203l-.23437-.11328-.34766.11328-.11719.11719-.05859.29297-.0586.17578-.11718.17187-.46484.29297-.0586.23438-.0586.11328v.64453l.0586.17187v.41016l.0586.0586v.40624l.05859.40625.11719.17579.05859.05859.23047.64062-.0586.29297v.69922l-.05859.58203v.23438l-.0586.23047-.05468.35156v1.92187l.05469.1172h.42578l-.36719.11718-.02344.35156.89063 1.16797 1.74219.53906 1.33984.35938v.53906l.08984.8086.53516.71484 1.51953.26953.89063-.08594.08984 1.16406.53516.1797 1.16015-.1797 2.05469-.98437 1.16016-.36328 1.8789-.17578 1.69531-.1797-.17968.71876-1.51563.08594-1.25.08984-.80469.26953-1.07421.8086.26953.71875.53515.89843-.17968.625-.26563.8086.26563 1.07812.625.89844.80468.17969 1.25-.1797-.26562.72267.09766.5039.05468.29297v.17188l.0586.29296v.40625l.17578.1172.35156.11718h.40625l.29297-.17578.11328-.11719.0586-.11719.11718-.23047.0586-.17578.35156-.46484.23047-.17578.17578-.0586.17578.0586.0586.17578.11718.98828.05469.46875.0586.17188.11718.23437.17578.0586.8164.05859h.28907l.11719.23437.05859.40625.0586.35156v1.10547l.11718.29297.11719.34766.28906.69922.17578.35156.58203.7539.35157.17579.17187.0586.46875.23437.64063.46484.34765.23438.29297.17578.29297.05468.23047.0625.8164.34766.29297.17578.11328.17188.35157.35156.11719.17578.52343.64063v.28906l.0586.35156v.34766l.05859.35156.0586.28906.11718.0586.17188.05859h.17578l.58203.23437.17578.1172.17578.28905.17578.23438.11328.23437.29297.23047.11719.11719v.41016l.0586.05468.28906.23438.23437.11719.0586.11718.11718.17188.0586.11719.23047.23437.05859.17578.23437.0586.1172.05859-.1172.11328-.05859.11719v.11719l-.11719.29296-.11719.28907v.58203l.17579.11719.11718.05859.0586.11719.11719.11719.11328.05859.17578.34765.0586.35157.05858.40625v.17578l-.05859.17578-.11719.69922v.17187l.1172.17579.29296.29296h.40625l.17578.1172.11719.17187.11719.29296v.23438h-.52735l-.23047-.23438h-.23437l-.17578.0586-.0586.69922.0586.34765.11719.17579.17578.41015.11718.23047.28907.46875.17578.05469h.52344l.23437.0586.75781.64062.0586.29296v.23438l.05859.0586.23047.34765v.35156l-.11719.17188v.29297l.29297.28906.29297.17578.17187.0586.29297.17577.29297.1172.58203.40624.28906.23438.29297.17578.21875.16015.01563.01172.23047.17579.64062.52343.17578.23438.1172.17578.17577.17578.11328.17188v.64062l.1172.17578.46874.11719.58203.11719.23438.05859.23047.11328.29297.11719.11328.0586.58593.35156.28907.17187.17578.0625.17578.05469.17578.0586.69922.35155.28906.17579.23438.05468.28906.17578.23437.1172.64063.40624.29297.11719.17187.0586.23438.05859.41015.05859.23047.0586.23438.11718.0586.17188-.41017.17578.46875.0586.0586.29296.11328.23438.17578.05468.23438.0586.17578.05859.40625.11719.64062.23437.11719.17188.0586.23437v.17578l-.0586.1172-.0586.40624.23438.23438.11719.05859.34766.11719.64062.23047.17578.11718.28906.1172.17578.17577.23438.46485.58203 1.10546.17578.17579.34766.17578.17578.11719.35156.11718 1.04688.52344.23437.0586.46485.11327.29297.0586.46484.17578.75781.58203.23438.23438.34765.46484.17578.17578.28907.23438.8164.69921.29297.17579.28906.28906.29297.17578.29297.28906.69531.64063.17578.17578.29297.23437.28907.23438.46875.28906.64062.58203.34766.23438.23437.29297.34766.34765.35156.46485.9336.99218.34765.40625.11719.17579.23437.05859.11328.11719.64454.17578.23047.11328.23437.0586.29297.17577.23047.1172.9336.69921.40624.40625.23438.17578.40625.17578.23437.11719.8164.34766.34766.23437.23438.11719.29297.28906.23047.11719.7578.35156.35157.17188.23047.05859.29297.11719.23437.0586.8711.17577h.8164l.46875.23047.17188.0586.875.69921.46484.1172.29297.05858.17578.0586.23047.0586.46875.05859.34766.05859.35156.0586.40625.05859h.29297l.17187.0586v.23046l.17578.17578h.29297l.34766.0586.35156.05859.69922.11719h.64063l.46484-.23438.29297-.17578.17187-.11719.41016-.17187.28906-.17578.9336-.46485.46875-.29297.52343-.29296.46485-.17188.46484-.17578 1.05078-.46485.28906-.11718.41016-.11719.28906-.11719.52735-.17578 1.51562-.69922.58203-.34765.28907-.0586.29297-.0586.34765-.11718.875-.23047.35156-.11719h.11329l.23437-.05859.875-.23437.23438-.0586h.8125l.35156-.0586.8164-.11718.17188-.0586.35156-.05468.29297-.0586.23047-.05859.8164-.17578.17579-.0586h.34765l.23438-.05859.46484-.11718.75781-.17188.23438-.0586h.34765l.41016-.11718.28906-.0586 1.28516-.05859h.28906l.41016-.0586.23047-.05858h.17578l.875-.1172h.40625l.41015-.11718h.34766l.35156-.11328.8711-.0586h1.75l1.04687.28907.41016.11719.28906.11718.35156.11719.28907.11719 1.05078.17187.28906.0586h.29297l.29297.05859.17187.0586.41016.05859.17187.0586.1172.05858h.11718l.11719.0586.35156.0586h.11328l.41016.0664 1.92187.39453 1.92578.39453 1.51953.44922 1.69532.71875 2.14453.80469 1.60547-.71875 1.42968-.80469 1.16016-1.07813 1.25-.44921 3.03516-.71875 1.875-.35938 2.14453-1.34765 2.23437-1.25391 2.5-1.25781 1.69531-.44922 1.78516-.17969 1.16016-.26953.625.53906 1.33984-.26953.71485-.98828.98437-1.34375.44531-.17969.80469-.35937 1.875-.53907 1.78516-.44921 1.25-.26954 1.16015-.08984 1.69922-.08984 1.96094-.26954 1.25-.08984h.53906l.625-.08984h.89063l2.14453-.17969 2.41015-.17969 2.58985-.08984 1.69531.17969 1.60938.08984 1.42968.35938 1.16016.71875 1.875.98828 1.16015 1.52734.26563.71484.6289.08985.35548.89844.53515.53906.53516 1.52734 1.07422.35938h.53515l-.80469.53515.08985 1.70703.71484 2.69532.89063.80468.89453.98829.71484 1.2578 1.78516.53907 1.51953-.17969.35547 1.34375 1.60937-.80469.98047-.53906.26953.26953.31641-.21484.21875-.14453.80078.44922.44922-.35938h.35547l.53515-.26953.53907-.71875.53515-.26953.625-.98828 1.16016.44922.83984.3711 1.39454.61718 1.6953-.17969h1.60548l1.78515.08985.17969-1.70704.53516-1.34375.80468.26954.4922.84765.40233.40625-.08984.53906v.35938l.71485.44922.71093-.26953h1.42969l.35938.98828.4453 1.25781.71485 1.34375 1.25.6289 1.69531.62891.71485-.17969.17969-.53906.98046-.08984.44922.35937.08594 1.25782-.26563.6289-.53515.17969v.53906l.71484.98438.26563.53906.98437.98828.80078 1.07813-.26562.35937-.08985.89844-.625 2.33203-.35546 2.0664-.08985 1.79298-.17969.71875-.08984.53906v1.4375l-.98047 1.88281-.35937 1.70703-.53516.89844-.80469 1.16797-.26562.53906 2.05469 1.2539.08593.35938-.35546.53906-.08985-.17968v.80859l.08985 1.4375-.44532.71484-1.07422.09375-.26562.71485.53515.89844.8047.71875 1.16015.80859 1.33984.26953.44531.35938-.35546.44921-1.78907-.08984-1.25-.44922-.71484-.71875-.625-.08984-.17578 3.58984-.1875 1.3086h89.35937V311.70313h-55.26953v49.08203l.76172.125 3.28906.54296 2.02344 2.83594v2.7539l2.35156.33204 2.34766.33203h4.05078l-1.3789 4.16016-2.02344.70703-2.02344.70312-.54297.34375-2.59375 1.6172-.1875.11718-2.02344-2.07813-.73046-2.74218-2.67188-2.07813-1.375-3.5-.0664-.08203-1.95704-2.67188 2.75-1.41796v-49.08204H294.42187v91.41407l.1172.03125.1328.01172.07422.07421.10547.04688.08985.0586.08593.05859.08985.0586.29687.29687.0586.08984.03125.11719.02734.11719.01563.13671-.03125.1172-.0586.08983-.0586.08594-.04296.10547-.04688.10156-.02734.1211v.14453l.17578.26953.14844.14844.07422.08594.07422.07421.04296.10547.0625.08985.0586.08593.04297.10547.0586.08985.04687.10156.04296.10547.0586.08594.11719.17968.07421.07422.0625.08594.0586.08984.04297.10547.0586.08985.05858.08593.0625.08985.0586.08984.04297.10156.11719.17969.07421.07422.0586.08594.07422.07421.08984.0586.10547.04687h.14844l.1328-.01562.13282.01562.10156-.04687.07422-.07422.04688-.10156-.01563-.13281v-.14844l-.04687-.10547-.02735-.11719-.04687-.10156-.02735-.1211-.04296-.10156-.0625-.08984-.04297-.10156-.04297-.10547-.03125-.11719-.01563-.13281-.01171-.13672.08593-.0586.0586-.08593.12109-.03125.04297.10547.01562.1328v.1172l.0586.10156.0586.08984.08983.0586.14844.14843.0586.08985.04296.10547-.01171.10156.08593.0586.10547.04687.08594.0586.08984.05858.07422.07422-.11719.02735-.10546.04687-.08594.0586-.07422.07421-.0586.08985-.0625.08594-.02734.12109-.04687.10156-.04297.10547-.03125.11719-.01172.13281-.01563.13281v.14844l.02735.11719.04687.10547.04297.10156.0586.08984.07421.07422.08985.0586.07422.07421.08984.0586.0586.08984.04296.10547.04688.10156.11719.03125.1328.01563h.14845l.11718-.03125.10547.04297.04297.10547.04688.10156.02734.1211L299.5 410l.02734.11719.03125.1211.02735.11718.10547.04297.10156.04687.13281-.01562.14844.14844.0625.08593.07422.07422.07031.07422.08984.0625.10547.04297.10156.04297.1172.03125.13671.01562.11719-.03125.07422-.07422.02734-.11718-.01172-.13282-.03125-.12109-.02734-.11719.04297-.10547h.11719l.08984.0625.11719.02735h.14843l.13282.01562h.14843l.13282.01563.1328-.01563h.14845l.1328-.01562.13282-.01172.13672.01172.11719-.02735.13281-.01562.1914-.0586-.05859.17579-.01562.1328-.02735.1211-.01562.13281-.0586.08594-.1328.01563-.10548.04687-.10546.04297-.1172.03125-.11718.02735-.26563.03125h-.14843l-.13281.01562-.07422.07422.05859.08594.14844.14843.11719.1797.07421.0703.08985.0625.08984.0586.08594.0586.08984.05858.10156.04297.10547.0625.10547.04297.08594.0586.10547.04687.10156.04297.17969.11719.0586.08984-.04298.10156-.04687.10547.01562.13281.22266.22266.0586.08985.04296.10156.03125.1211.04297.10155.01563.13282.03125.11718.01171.13672.03125.11719.14844.14844.10156.04297.10547.04296.1172.03125.1328.01563.13672.01563h.11719l.11719-.03125.08984-.0586.04297-.10547.04688-.10156.04296-.10547.03125-.11719.01172-.1328v-.14845l-.01172-.1328-.01562-.13282-.03125-.11719-.04297-.10547-.04688-.10547-.04296-.10156-.04297-.10547-.01563-.13281.01563-.13281.02734-.11719.03125-.11719.02735-.1211.04687-.10155.08984-.0586.08594-.0625.07422-.07422.08984-.05859.22266-.22266.0586-.08593.07421-.07422.11719-.17969.0586-.08594v-.14844l-.07423-.07421-.10156-.04688-.10547-.04297-.10156-.04297-.0586-.08984-.04687-.10547-.02734-.11719.08984-.05859.11719-.03125.10156-.04297.17969-.11719.14844-.14843.01172-.13282-.01172-.10546-.08985-.0586-.1328.01563h-.14845l-.1328.01562-.13282-.01562-.1211-.03125-.08593-.0586-.07422-.07422-.0586-.08984-.0625-.08594-.11718-.17969-.0586-.08593.03125-.1211.08594-.05859.1211-.03125.05859-.08594v-.1211l-.03125-.11718-.0586-.08984-.05859-.08594-.04687-.10547-.02735-.11719-.01562-.1328.0586-.08985.07421-.07422.08984-.0586.1172-.17968.07421-.07422.0586-.08594.14843-.14844.1211-.03125.1328-.01562.13282.01562.07422.07422.04297.10547.01562.13281-.03125.1172-.11719.03124-.1328.01172-.14844.14844-.04297.10547-.04688.10156-.02734.1211-.03125.11718v.14844l.03125.11719.04297.10546.05859.08985.07422.07031.07422.07422.11719.03125.12109.02734.11719-.02734.1328-.01563h.1172l.08984.0586.07422.07422.04687.10546.0586.08594.10156.04688.13281.01562.10547.04297.08594.0586-.01172.10546-.07422.07422-.17969.11719-.05859.08984-.08984.0586-.07032.07422-.07421.07421-.0625.08985-.02735.11719-.01562.1328.01562.13282-.01562.13281v.14844l.01562.13281.02735.1172.03125.12108.07421.07422.08985.0586.08594.0586.08984.05858.11719.03125v.08594l-.10157.04688-.08984.0586-.26563.03124-.11718.02735h-.14844l-.10547.04296-.10156.04688-.0586.08984-.0625.23438-.01171.13281-.03125.1211-.01563.1328v.29298l-.01172.1328.01172.13673.01563.1328.1328.01563.13282.01172.1211.03125.08593.0586.07422.07421.04688.10547.04296.10157.01563.1328v.44532l-.01563.13281v.44532l.03125.26562.02735.11719.01562.13281.03125.11719.08594.21094.03125.26562v.14844l-.03125.11719-.02734.11718-.03125.1211-.02735.11719-.03125.11718-.03125.1211-.01171.1328-.01563.13282.08984.0586.1172-.03125.10155.01562.04688.10547-.03125.26562v.44141l-.04297.10547-.04688.10547-.04296.10156-.04297.10547-.0586.08594-.03125.12109-.04296.11719-.03125.11719-.01563.1328.01563.13282.05859.08984.10547.04688.08594.0586.05859.08593-.01172.13672-.03125.11719-.04297.10156v.44531l-.01562.13281v.14844l-.03125.11719-.04297.10547-.02735.11719-.04687.10546-.04297.10157-.03125.12109-.02734.11719-.03125.13281-.03125.11719-.02735.11719-.04297.10546-.03125.1172-.03125.12108-.01171.13282-.01563.13281v.29688l.02734.11718v.14844l.04688.39844.02734.11719.0586.08984.12109.03125h.14844l.13281-.01563.0586.08985v.11719l-.0586.08984-.08984.0586-.10157.04296-.10546.04688-.08985.05859-.08594.0586-.13671.01562-.1172-.03125-.1328-.01563-.10157.04688-.0625.08594-.01172.13671-.01562.13282-.03125.11719-.02735.11718-.01562.13281-.03125.1211v.29687l.01563.13282.03125.11718v.14844l.01171.13281v.14844l-.02734.11719-.04688.10156-.02734.1211-.03125.11718-.0586.08985-.07421.07421-.10156.04297-.10547.04688-.11719.02734-.1211.03125-.10156-.04687.0586-.08594.10547-.04688.02734-.11718.03125-.11719.02734-.1211.03125-.11718v-.14844l.01563-.13281-.03125-.11719-.04297-.10547-.10547.01563-.07422.07422-.10156.04296-.08984.0625-.07422.07422-.04297.10157-.01563.1328-.03125.1172L304.25 426l-.03125.11719-.02734.11719-.03125.12109-.02735.11719-.03125.11718-.04297.10547-.08984.0586h-.08984l-.1172-.03125-.03124-.08594.01562-.13672-.03125-.11719v-.14844l-.01171-.1328v-.14844l-.0625-.23438-.02735-.1211-.04297-.10156-.04687-.10546-.0586-.08594-.05859-.08985-.04297-.10546-.0625-.08594-.14844-.14844-.0703-.07422-.10548-.04687-.10547-.04297-.10156-.04297-.29687-.29688-.08985-.07421-.08594-.0586-.10546-.04297-.08985-.0625-.08594-.0586-.10546-.04296-.08985-.0586-.08594-.0625-.07421-.0703-.10547-.04688-.08594-.0586-.10547-.04296-.08984-.0625-.10156-.04297-.10547-.04297-.08594-.0586-.10547-.04687-.10547-.04297-.10156-.04687-.08985-.0586-.10156-.04297-.10547-.04296-.08984-.0625-.11719-.02735-.13281-.01562-.13281.01562H299.75l-.13281.01563-.11719-.03125-.08984-.0586-.07422-.07422-.08985-.05859-.10156-.04688h-.14844l-.12109-.02734-.10156-.04297-.07422-.07422-.11719-.17968-.08984-.0586-.10156-.04297-.08985-.0625-.10547-.04296-.08984-.0586-.08594-.0586-.10547-.04687-.0586-.08594-.05858-.08984-.04297-.10547-.04688-.10156-.07422-.07422-.08594-.0586-.07421-.07421-.08985-.0586-.22265-.22265-.04297-.10547-.03125-.26563.10547-.04296h.14453l.10547.04296.07421.07422.08985.0586.08594.0586.10546.04687.08985.05859.14844.14844.0703.07422.14845.14843.0625.08594.07421.07422.08594.0586.07422.07421.08985.0625.08984.0586.08594.05859.26953.17578.10156.04688.10547.04296.10156.04297.04688-.07421.05859-.08594.07422-.07422.07031-.07422.10547.04297.07422.07422.0586.08984.04296.10156.04688.10547.04296.10547.1211.02735.11719-.02735.07421-.08984.04297-.10547.0586-.08985.07422-.07421.10546-.04297.1172-.02735.1328.01172.08985.0586.14844.14843.05859.08985.04297.10547.04687.10156.04297.10547.04297.10156.10547.04688.10547.04296.13281.01563.08594-.0586.0586-.08984.07421-.07422.10547-.04297.11719.02735.10547.04687.10156.04297.10547.04297.10156.04688.17969.11718v.11719l-.01563.13281.01563.13281.01562.13672.0586.08594.10156.04688.1211.02734.11718.03125h.14844l.11719-.03125.05859-.08984.17969-.1172.05859-.08983.07422-.07422.0586-.08594.11718-.17969.17969-.11719.11719.03125.08984.0586.04297.07422-.01563.1328v.1172l.08985.05859h.14843l.13282-.01563.1328-.01171.26563-.03125.10547-.04297.11719-.03125.1211-.02735.07421-.07421.07031-.07422.0625-.08985-.01562-.10547-.04688-.10156-.10156-.04297-.10547-.01562-.11718.02734-.26563.03125h-.14844l-.07421-.07422-.08985-.0586-.11719-.03124-.11718-.02735-.13282-.01562h-.14843l-.13282.01563h-.29687l-.10547-.04688-.14844-.14844-.04297-.10156-.05859-.08984.22266-.22266.08593-.0586.10547-.04296.11719-.03125.13281-.01563.13281.01563.13672.01562.10157.04297.1328-.01172.08985-.0625.10156-.04297.0625-.08984-.04687-.10156-.08984-.0586-.1172-.03125-.10155-.04296-.0586-.08985-.0625-.08984v-.11719l.01563-.13281.10547-.04688.07421-.07031v-.1211l-.08984-.05859-.03125-.11719.08985-.05859.07421-.07422.04297-.10547.0586-.08984.04687-.10156.01563-.13281v-.14844l-.04688-.10547-.04297-.10156-.08984-.0586-.13281-.01562-.10157-.04297-.13671-.01563-.1172-.03125h-.4453l-.13282-.01562-.13281-.01172-.13281-.01563-.11719-.03125h-.14844l-.13281-.01562-.13281-.01172-.26563-.03125-.1211-.04297-.08593-.0586-.07422-.07421v-.14844l.01172-.13281.10547-.04688.10156-.04296.13281-.01563h.15235l.13281-.01562h.29297l.1211.03125.10156.04296.08984.0586.23438.0625.12109-.04688.08984-.05859.10156-.04297.13282-.01562.10547.04296.10156.04688.13281.01172.1211-.02735h.14453l.12109-.03125.11719-.02734.10547-.04687.07421-.07422.08594-.0586.14844-.14843.0586-.08594.04687-.10547.02734-.11719.01563-.10547-.10156-.04296-.08985-.0586-.11719-.03125-.10546-.04297-.08985-.0625-.07422-.08594-.07422-.07421-.10156-.04297-.10547-.04688-.10156-.04297-.0586-.08984-.04687-.10156-.08594-.21094-.0625-.08594-.05859-.08984-.07422-.07422-.08594-.0586h-.26953l-.11719.03126-.08984.05859-.10156.04297-.13281.01562-.10547-.01562-.02735-.11719-.0625-.08984-.11718-.03125-.10157-.04297-.14843-.14844-.03125-.11719-.01563-.10546.07422-.07422.17969-.1172.11719-.02733.11718-.03125.13672.01562.10156.04297.10547.04297.10156.04687.10547.04297.1172.03125.1328.01563.1172.02734.1328.01563.10547-.01563.08985-.0586-.07422-.07421-.10547-.04297-.07422-.07422-.07422-.08984-.14844-.14844-.08593-.0586-.08985-.05859-.07422-.07422-.08984-.0586-.10156-.04687-.1211-.02734-.10156-.04688-.10547-.04296-.11719-.03125-.10156-.04297-.1211-.03125h-.14843l-.11719.03125-.10546.04297-.08594.0625-.17969.11718-.08594.0586-.08984.0586-.10547.04687-.08594.05859-.10547.04297-.10156.04297-.10547.04687-.07422.07422-.05859.08985-.0586.08593-.04687.10547-.0586.08594-.07421.07422-.13281-.01172-.1172-.03125h-.11718l-.07422.07422-.08984.0586-.07422.07421-.08984.0586-.08594.05859-.10547.04687-.10156.04297-.13672.01563-.10156-.04297-.14844-.14844-.10547-.04688h-.08594l-.10547.04688-.10156.04297-.1211.03125-.11718-.03125-.07422-.07422v-.11719l.03125-.1211.07422-.0703.0586-.08985.07421-.07422.11719-.03125.10547-.04296h.29297l.13281-.01563.13672-.01563.10156-.04296.08985-.0586.10156-.04687.08984-.0586.13281-.01171.08985.05859.13281.01172.08984-.0586.08594-.05859.10547-.04297.08984-.0586.08594-.0625.08985-.05859.14843-.14843.0586-.08594.05859-.08985.10547-.04296.13281-.01563.11719.02735.1211.03125.05859-.0586.05859-.08984.03125-.26563.02734-.11719.10547.01172.13281.01563.10157-.04297.08984-.0586.0586-.08984.07421-.07422.0586-.08984.04687-.10156.01172-.13281-.01172-.13282-.04687-.10547-.14844-.14843-.0586-.08985-.05859-.08594-.04297-.10546v-.44532l.01563-.1328v-.14845l.01172-.1328-.0586-.0586-.08984.0586-.10156-.04298-.17969-.11719-.08594-.05859-.0625-.08984-.0586-.08985-.07421-.07421-.08594-.0586-.1211.03125-.10155.01172-.10547.04688-.08594.05859-.10547.04297-.14844.14844-.08984.05859-.08594.0586-.08984.0625-.10547.04296-.13281.01563v-.1211l.10547-.04297.11718-.03125.07422-.0703.04297-.10548v-.14844l-.02734-.11718-.14844-.14844-.13281-.01563h-.14844l-.11719.03125-.10547.04297-.10156.04297-.08984.0625-.11719.02735-.07422-.07422.01172-.13281-.04297-.10157-.04297-.10547-.08984-.05859-.11719.02734-.1211.03125-.11718.03125-.10156.04297-.1211.03125-.10156.04297-.10547.04297-.08984.0586-.10156.01562v-.11719l.01562-.13281-.0586-.08985-.07421.04297-.14844.14844-.0586.08985-.07421.07421-.04688.10547-.04296.10156-.07422.07422-.0586.08985-.07422.07422-.05859.08593-.07422.07422-.08984.0625-.07422.07031-.07422.07422-.10156.01563-.13281.01562-.10547-.04296v-.1211l.14843-.14844.04297-.10156.0586-.08984.04687-.10156.04297-.10547.0586-.08985.03124-.11719.04297-.10156.03125-.1211.02735-.11718.04687-.10547.04297-.10156.04297-.10547.07422-.07031.08984-.0625.08985-.0586.10156-.04296h.29687l.26563-.03125.10547-.04297-.07422-.07422-.11719-.03125-.10547-.04297-.08984-.0586-.10156-.04687-.08985-.0586-.10156-.04296-.10547-.04297-.08984-.0625-.08594-.0586-.10547-.04296-.10156-.04297-.1211-.03125-.11718-.03125-.10157-.04297L297.5 410.25l-.10156-.04297-.08985-.0586-.04296-.10546-.01563-.13281.10156-.04297.13281-.01563.13672.01563.13282-.01563.10156-.04297.0586-.08984.01562-.10547-.08985-.0586-.07421-.07421-.10157-.04297-.08984-.0586-.14844-.14843-.04297-.10547-.01562-.13281v-.29297l-.0586-.08985-.08984-.05859-.07422-.07422-.04297-.10547-.03125-.11718-.0586-.08985-.07421-.07422-.11719-.02734-.07422-.07422-.08984-.0586-.08984-.0625-.08594-.05859-.07422-.07421-.0586-.08594-.04687-.10547-.08594-.0586-.14843-.14843-.19532-.0586-.1328.01563-.10157.04297-.07422.07422-.04688.10156-.04296.10547-.0586.08984-.0586.08594-.29687.29687-.08984.0586h-.08594l-.0625-.08594-.04297-.10547.03125-.11719.0586-.08984.02734-.11719-.01172-.13281-.08984-.0625-.10547.04688-.11719.02734-.11719.03125-.26953.17578-.10156.04688-.11719.02734-.10546.04687-.08985.0586-.10156.04297-.0586-.08594-.04687-.10547.01563-.13281.04687-.10547.07031-.07422.07422-.07031.0586-.08985v-.14843l-.04297-.10547h-.23829l-.10156.04687-.03125.11719-.02734.11719-.03125.1211-.07422.04296-.13281.01563-.07422-.04688-.04297-.10156-.04297-.10547-.04687-.10156-.04297-.10547-.1211.03125-.10156.04297-.13281.01562-.11719.03125-.10547.04297-.08984.0586-.10156.04687-.1211.02734-.13281.01563-.10156-.04297-.0586-.08985-.04687-.10546-.04297-.10157-.04297-.10546v-.1172l.0586-.08984.08593-.05859.17969-.11719.10156-.04687.10547-.04297.10547-.0586.10156-.04296.08985-.0625.10156-.04297.10547-.0586.10156-.04687.08984-.0586.10547-.04296.10156-.04297.08985-.0625.10156-.04297.13672-.01563.11719.03125.10156.04297.1211.03125.10156.04297.10546.04688.10157.04296.10547.04297.10156.04688.10547.04297.10156.04297.10547.04687.08594.0586.10546.04296.1172.03125.10546.04297.10156.04688.08985.0586.10547.04296.10156.04297.10547.04687.11719.02735.10156.04687.1211.02735h.14843l.08594-.0586.01562-.10156.0586-.08984-.02735-.1172-.07422-.07421-.11719-.17969-.07421-.07422-.08985-.07421-.17969-.1172-.08593-.05859-.10547-.04296-.10156-.04688-.26954-.17578-.05859-.08985-.07422-.07421-.0586-.08985-.04296-.10156-.03125-.11719-.01563-.13672v-.5625l-.01171-.1328-.01563-.13282-.03125-.11719-.01562-.13281-.01172-.13281-.03125-.1211-.22266-.22265-.0586-.08594-.01562-.10547.03125-.11719.13281-.01562v-91.41406H172.9922v1.45312l-.0586.23438-.35156 1.05078-.17187.52343-.1172.34766-.17577.41016-.11719.17187-.23438.29297-.23046.0586h-.35157l-.11718.05859-.23047.40625v.29297l.11719.17578.23046.23047.1172.23437.64062.75781.29297.46485.17578.23437.23047.35156.23437.34766.64063.8164.17578.46485.17187.41016.11719.69531.17578.46875.11719 1.39844.0586.46484v.875l.11718 1.04688v4.78125l-.0586.46484-.35156 1.28125-.17578.52344-.11328.41015-.35156.9297L172.93359 336l-.23437.58203-.11719.17578-.17187.34766-.17578.40625-.35157.8164-.0586.29297-.11327.29297-.11719.28906-.0586.17579-.11718.875-.0586.40625-.05859.11718-.0586.17579-.05859.17187-.23047.52734-.11718.17188v.23437l-.11719.23438-.0586.17187-.17577.58594v.28906l-.0586.17579v.29296l-.0586.11329-.05859.52734v.17187l-.05468.23438v2.6211l-.17578.8164-.1172.17578-.17577.23438-.1172.17187-.11327.23438-.58594.93359-.23047.28906-.29297.46485-.17578.23437-.28906.35156-.35156.69922-.11328.23047-.17579.41016-.17578.23046-.40625.52735-.8164.69922-.29297.17187-.28906.23438-.17579.11719-.17578.17578-.52344.40625-.52734.17578-.17187.17578-.23438.05469-.64062.17578h-.75782m12.21094 31.02344l-1.07422.44921.35938.89454 1.25-.71485.44531-.53906-.98047-.08985"/><path fill="#d3d3d3" fill-opacity="0" fill-rule="evenodd" d="M201.50781 416.59766h-.89453l.44922.6289.98047.35938.80469-.08985.4453-.98828-.17577.08985-.71485-.35547-.89453.35547m154.6211 59.0703l-.0586-.52343v-.29297l.11328-.29297.0586-.23046.46875-.46875h.11328l.11719-.11329.11718-.05859h.17579l.23437-.0586h.34766l.23437.0586.11719.0586.23047.17187.0586.17578.11718.58203v.29297l-.11719.17578-.17187.28906-.17579.17579-.52734.52343-.23047.23438-.11719.0586h-.17578l-.11718-.0586-.40625-.29297-.17579-.11719-.11718-.0586-.0586-.11327-.05468-.1172m6.64062-10.95702l-.0586-.17188v-1.10937l.0586-.17188.17578-.0586.17188-.05858h.17578l.23437-.0586.1172.0586.05858.69921-.05859.17188-.11719.17578-.11718.0586-.23438.52343-.11328.0586h-.23438l-.05859-.1172m9.61328-14.39062l-.11719-.17578v-.69922l.29297-.875.1172-.17187.17577-.35156.11328-.23047.1172-.29297.35155-.75781.1172-.23047.17187-.23438h.17578l.11719-.0586h.64062l.11719.0586.23437.23438.17188.11328.35156.29297.11719.11718.11328.17579v.11328l.11719.05859.11718.11719v.69922l-.05859.17578v.23047l-.0586.17578-.34765 1.05078-.11719.23047-.11719.23437-.11718.0586-.23047.23437-.64063.28906h-.875l-.41015-.11718-.64063-.46485"/><path fill="none" stroke="#bebebe" stroke-linecap="round" stroke-linejoin="round" stroke-miterlimit="10" stroke-width=".5" d="M467.95703 311.69531H144.02734v168.625h323.9297v-168.625"/><g clip-path="url(#a)"><path fill="#fff" fill-opacity="0" fill-rule="evenodd" d="M144 475.89063v4.4375h.0039H144V441.0039v34.88671"/></g><g clip-path="url(#b)"><path fill="#50fcfc" fill-rule="evenodd" d="M144 320.54688v.16796-9.04296h.0039H144v8.875"/></g><path fill="#50fcfc" fill-rule="evenodd" d="M144 439.71875v1.28516h.0039v-1.28125l-.0039-.00391"/><path fill="#fff" fill-opacity="0" fill-rule="evenodd" d="M144 320.71484v119.00391l.0039.0039v-119.0078H144"/><g clip-path="url(#c)"><path fill="#fff" fill-opacity="0" fill-rule="evenodd" d="M144.0039 480.32813V441.0039l.63673-.6211-.63672-.66015V320.71484l.55859-.16796 3.875-.58594 3.1836-3.85156-.26563-4.4375h76.97266v87.59375l-1.77344 1.17187-2.66406.16797-4.4375.30078-4.4375 1.08984-2.85547 2.87891-1.58594 1.60938-3.21094 2.83203-1.22656 1.48046-3.48047 2.95704 1.4375 4.4375-2.39453 2.30859-4.4375-1.00781-4.4414.77734L190 422.62891l-1.61719.98437-4.38672 3.45703-.05078.03906-4.4375 1.79297-2.79687 2.60547-1.61328 4.4375-.03125.10547-3.9922 4.33203-.4453.01172-.12891-.01172-4.3086-2.6914-3.03124 2.6914-1.40625.1875-4.25391 4.25.80078 4.4414 3.45313 3.9336 4.4375.44531 1.10156.0586-1.10156 3.7461-4.4375-2.00782-1.71875 2.69922 1.44922 4.4375.26953.23437.33984-.23437 4.09766-4.23438.38672-.20312 4.05078-1.72656 4.4375-2.66797.34765-.04297-.34765-.625-3.58594-3.8125 3.58594-4.4414v-.13282l.13672.13281 4.30468 2.35156 2.0586-2.35156-1.4297-4.4375 3.8086-.72265 4.4375-1.19532 1.8164 1.91797 2.6211 3.83203 3.33985-3.83203 1.10156-.57031 3.52344.57031.91406 4.1289.02734.3086-.02734.30469-4.4375.41406-4.30078 3.72266-.14063.09375-.54297-.09375-3.89453-1.67578-4.25781 1.67578-.05078 4.4375-.1289.35547-3.0586 4.08203 3.0586 1.16406 4.4375-1.125 4.4375.39453 2.40234-.4336 2.03906-.47655 2.01562.47656 2.42188.57031 1.4961-.57031 2.9414-.77735 3.39453.77735 1.04297.32422 4.4414 1.10547 4.4375-.01563 4.4375-1.29687.17188-.1172 4.26563-1.9414 4.4375-.6914 2.07421-1.8047 2.3672-3.17187 1.26171-1.26562-1.26172-3.82031-.65234-.6211.65234-1.25781 4.4375.47266 4.4375-1.61329 1.55469-2.03906-1.55469-4.23047-.09766-.20703-4.33984-3.21875-.41406-1.21875-.64453-4.4375-3.3789-3.01562-4.44142-.6289-.39843-.79688.39844-2.19141 2.85937-2.2461 1.58203-.22656 4.4375-.63671 2.1211.86328 2.3164 1.44921 1.42188-1.44921-1.42188-1.69141-1.32812-2.7461-3.10938-3.38671-.46484-1.05078-3.89453-4.44141-.07813-.07813-4.4414-3.1914-2.85547-1.16797-1.58203-1.17188v-87.59375h26.6289V427.6836l-3.9336 3.82422 3.9336 4.3164 4.28125-4.3164-4.28125-3.82422V311.67188h26.63281v122.73046l-.37109 1.54297.3711.34766.5078-.34766-.5078-1.54297V311.67188h31.0664v137.55078l-.07031.03906.07031.02734.04297-.02734-.04297-.03906V311.67187h39.94531v127.97266l-.73437.73828.73437.75.8789-.75-.8789-.73828V311.67188h22.1914v133.36328l-2.55077 4.22656 2.55078 2.46875 3.09765-2.46875-3.09765-4.22656V311.67187h93.20312v168.65625h-70.75l-.26171-.74218-4.4375-3.41797-3.20704-.27735 3.20704-3.11718.49609-1.32031-.4961-.57813-3.49609-3.85938-.9414-2.0039-1.28516-2.4375 1.28515-.98047 2.29297-3.45703-2.29296-2.16406-3.07422 2.16406-1.36329 1.72656-1.60156 2.71094 1.0664 4.4414.53517 4.3711 4.4375-2.38281 3.05859 2.44921-3.0586 3.15235-4.4375-2.30078-.03906 3.58594-.20703 4.4375H144.00391"/></g><path fill="#50fcfc" fill-rule="evenodd" d="M144.64063 440.38281l-.63672.6211v-1.28125l.63672.66015"/><g clip-path="url(#d)"><path fill="#50fcfc" fill-rule="evenodd" d="M144.5625 320.54688l-.5586.16796v-9.04296h4.4336v3.33593l-1.33984 1.10156 1.33984.59766.4961-.59765-.4961-1.10157v-3.33594h2.91797l.26562 4.4375-3.18359 3.85157-3.875.58594"/></g><path fill="#00e8fc" fill-rule="evenodd" d="M148.4375 316.70703l-1.33984-.59765 1.33984-1.10157.4961 1.10156-.4961.59766"/><path fill="#50fcfc" fill-rule="evenodd" d="M158.30078 449.26172l-.80078-4.4414 4.2539-4.25 1.40626-.1875 3.03125-2.69141v2.7578l-4.4375.5547-3.82032 3.8164 2.98438 4.4414.83594.94923 4.4375 2.72265 3.72656-3.67187.71094-.42188 4.01562-4.01953-4.01562-4.00781-4.4375-.36328v-2.75781l4.30859 2.6914.1289.01172.44532-.01172 3.99219-4.33203.03125-.10547 1.61328-4.4375 2.79687-2.60547 4.4375-1.79296.05078-.03907 4.38672-3.45703L190 422.62891l2.82031-2.35938 4.4414-.77734v1.96484l-3.15624 1.17188-1.28516.8203-4.4375 2.4336-1.5039 1.1875-2.9336 2.35547-3.57031 2.08203 1.01953 4.4375 2.55078.27735.61328-.27735 3.82422-.8711 4.4375.64454 1.9336.22656 2.5078.6875 4.4375.41016 4.4375-1.01953.0586-.07813 3.35547-4.4375-3.41406-4.26172-.46875-.17578-3.96875-2.75-1.8164-1.6914-2.6211-1.17188v-1.96484l4.4375 1.00781 2.39453-2.3086-1.4375-4.4375 3.48047-2.95702 1.22656-1.48047 3.21094-2.83204 1.58594-1.60937 2.85547-2.8789 4.4375-1.08985 4.4375-.30078 2.66406-.16797 1.77344-1.17188v1.78907l-4.4375.09375-4.4375.57812-4.4375 2.92969-.22266.21875-4.21875 4.28906-.17188.15235-2.55078 4.4375 2.72266 1.05859v3.3711l-.01563.0078-4.42187 2.02735-2.32422 2.41016 2.32422 1.82812 4.4375.96875 1.91797-2.79687-1.91406-4.4375-.00391-.00782v-3.37109l1.02734 3.3789 3.41406 4.08204.32032.35547 4.11719 3.54687v1.65625l-4.4336 3.67578-.0039.14453-.09766 4.29297.09766.23047 2.55078 4.20703 1.88672 2.45703 4.4375 1.62891 4.4375-1.1211 4.4375-.60156 3.21484-2.36328-3.21484-1.3711-1.97657-3.0664-2.46094-2.4961-4.4375 1.63673-3.41796-3.57813-1.01953-3.67578v-1.65625l1.40625.89453 3.03125 4.21485 4.4375-1.06641L230 431.50781l2.76563 2.78516 4.4414 1.23828 2.45313-4.02344-2.2422-4.4375-.21093-.1914-2.34375.1914-2.09766.23828-.16406-.23828-2.1875-4.4414.86719-4.4375 1.48438-.32422 4.4414-1.84766 4.4375-1.8164.39063-.44922-.39063-.42579-1.77344-4.01171-2.66406-2.98829-4.23437-1.45312-.20703-.14844-4.4375-3.67187v-1.78906l1.58203 1.17187 2.85547 1.16797 4.4414 3.1914.07813.07813 3.89453 4.4414.46484 1.05079 3.10938 3.38672 1.32812 2.74609 1.42188 1.6914-1.42188 1.44923-2.3164-1.44922-2.1211-.86329-4.4375.63672-1.58203.22657-2.85938 2.24609-.39843 2.1914.39844.79688 4.4414.6289 3.3789 3.01563.64454 4.4375.41406 1.21875 4.33984 3.21875.09766.20703 1.55469 4.23047-1.55469 2.03906-4.4375 1.61329-4.4375-.47266-.65234 1.25781.65234.6211 1.26172 3.8203-1.26172 1.26563-2.36719 3.17188-2.07422 1.80469-4.4375.6914-4.26562 1.9414-.17188.1172-4.4375 1.29687-4.4375.01563-4.4414-1.10547-1.04297-.32422-3.39453-.77735-2.9414.77735-1.4961.57031-2.42188-.57031-2.01562-.47656-2.03906.47656-2.40235.4336-4.4375-.39454-4.4375 1.125-3.0586-1.16406 3.0586-4.08203.1289-.35547.05079-4.4375 4.25781-1.67578 3.89453 1.67578.54297.09375.14063-.09375 4.30078-3.72266 4.4375-.41406.02734-.30469-.02734-.3086-.91406-4.1289-3.52344-.57031-1.10156.57031-3.33985 3.83203-2.6211-3.83203-1.8164-1.91797-4.4375 1.19532-3.8086.72265 1.4297 4.4375-2.0586 2.35156-4.30469-2.35156-.13671-.13281v.13281l-3.58594 4.4414 3.58594 3.8125.34765.625-.34765.04298-4.4375 2.66797-4.05078 1.72656-.38672.20312-4.09766 4.23438-.33984.23437-.26953-.23437-1.44922-4.4375 1.71875-2.69922 4.4375 2.00781 1.10156-3.7461-1.10156-.05858-4.4375-.44532-3.45313-3.9336"/><path fill="#00e8fc" fill-rule="evenodd" d="M160.91797 449.26172l-2.98438-4.4414 3.82032-3.81641 4.4375-.5547 4.4375.36329v.69922l-4.4375.47656-4.4375-.26172-3.09766 3.09375 3.09766 3.73438 1.22656.70703 3.21094 2.4961 2.53125-2.4961 1.90625-1.1211 3.3164-3.3203-3.3164-3.3086v-.69922l4.01562 4.00781-4.01562 4.01953-.71094.42188-3.72656 3.67187-4.4375-2.72265-.83594-.94922"/><path fill="#00d4fc" fill-rule="evenodd" d="M161.7539 448.55469l-3.09765-3.73438 3.09766-3.09375 4.4375.26172 4.4375-.47656v.69531l-4.4375 1.32422-4.4375-1.08594-2.375 2.375 2.375 2.86719 2.74218 1.57422 1.69532 1.3164 1.33593-1.3164 3.10157-1.82031 2.61718-2.6211-2.61718-2.61328v-.69531l3.3164 3.3086-3.3164 3.3203-1.90625 1.1211-2.53125 2.4961-3.21094-2.4961-1.22656-.70703"/><path fill="#00c4fc" fill-rule="evenodd" d="M161.7539 447.6875l-2.375-2.86719 2.375-2.375 4.4375 1.08594 4.4375-1.32422v.69922l-4.1914 1.91406-.2461 2.53906-.28906-2.53906-4.14843-1.65234-1.65235 1.65234 1.65235 1.9961 4.2578 2.4453.1797.14063.14453-.14062 4.29297-2.51953 1.92187-1.92188-1.92187-1.91406v-.69922l2.61718 2.61328-2.61718 2.6211-3.10157 1.8203-1.33593 1.31642-1.69532-1.31641-2.74218-1.57422"/><path fill="#00b8fc" fill-rule="evenodd" d="M161.7539 446.8164l-1.65234-1.99609 1.65235-1.65234v.72265l-.9297.9297.9297 1.125 2.33593-1.125-2.33593-.9297v-.72265l4.14843 1.65234.28907 2.53906.24609-2.53906 4.1914-1.91406v.69922l-2.66406 1.21484 2.66407 1.22266 1.22265-1.22266-1.22265-1.21484v-.69922l1.92187 1.91406-1.92187 1.92188-4.29297 2.51953-.14453.14062-.1797-.14062-4.2578-2.44531"/><path fill="#00a8fc" fill-rule="evenodd" d="M161.7539 445.94531l-.92968-1.125.92969-.92969v.72266l-.21094.20703.21094.2539.52343-.2539-.52343-.20703v-.72265l2.33593.92968-2.33593 1.125"/><path fill="#009800" fill-rule="evenodd" d="M161.7539 445.07422l-.21093-.2539.21094-.20704.52343.20703-.52343.2539"/><path fill="#00a8fc" fill-rule="evenodd" d="M170.6289 446.04297l-2.66406-1.22266 2.66407-1.21484v.69531l-1.13672.51953 1.13672.52344.52343-.52344-.52343-.51953v-.69531l1.22265 1.21484-1.22265 1.22266"/><path fill="#009800" fill-rule="evenodd" d="M170.6289 445.34375l-1.13671-.52344 1.13672-.51953.52343.51953-.52343.52344"/><path fill="#00e8fc" fill-rule="evenodd" d="M181.39453 435.94531l-1.01953-4.4375 3.57031-2.08203 2.9336-2.35547 1.5039-1.1875 4.4375-2.4336v4.90235l-4.4375 2.02344-1.4961 1.13281 1.4961.67578 4.4375 1.28125 4.4414-.39062 4.4375-1.26953 4.4375.3164.46876-.61328-.46875-.58594-4.4375.19141-4.4375-1.85937-4.4414-.90235v-4.90234l1.28515-.82031 3.15625-1.17188 2.6211 1.17188 1.8164 1.6914 3.96875 2.75.46875.17578 3.41406 4.26172-3.35547 4.4375-.0586.07813-4.4375 1.01953-4.4375-.41016-2.5078-.6875-1.9336-.22656-4.4375-.64453-3.82422.8711-.61328.27734-2.55078-.27735"/><path fill="#00d4fc" fill-rule="evenodd" d="M188.38281 432.1836l-1.4961-.67579 1.4961-1.13281 4.4375-2.02344 4.4414.90235 4.4375 1.85937 4.4375-.1914.46876.58593-.46875.61328-4.4375-.3164-4.4375 1.26953-4.4414.39062-4.4375-1.28125"/><path fill="#fff" fill-opacity="0" fill-rule="evenodd" d="M206.13672 420.21875l-2.32422 2.41016 2.32422 1.82812 4.4375.96875 1.91797-2.79687-1.91406-4.4375-.00391-.00782-.01563.00782-4.42187 2.02734"/><path fill="#00e8fc" fill-rule="evenodd" d="M210.57422 414.8125l-2.72266-1.0586 2.55078-4.4375.17188-.15234 4.21875-4.28906.22266-.21875 4.4375-2.92969 4.4375-.57812v.90234l-4.4375 1.04297-2.57032 1.78125-1.76562 4.4414 4.33594 4.34766.25.08985-.25.09765-4.4375 1.41797-1.70313 2.92188 1.70313 2.03515 2.14453 2.40235 2.29297 1.97265 3.88671 2.46875.55078.76563 3.36329-.76563-2.59766-4.4414 3.49219-4.4375.17969-.08985 4.4375-.92578 4.18359-3.42187.25781-2.5586.48438-1.8789-.48438-.54297-4.4414-2.83985-1.47266-1.05859-2.96484-2.52734-4.4375-.29688v-.90234l4.4375-.09375 4.4375 3.67187.20703.14844 4.23437 1.45313 2.66406 2.98828 1.77344 4.01171.39063.42579-.39063.44921-4.4375 1.81641-4.4414 1.84766-1.48438.32422-.86719 4.4375 2.1875 4.4414.16406.23828 2.09766-.23828 2.34375-.1914.21094.1914 2.24219 4.4375-2.45313 4.02344-4.4414-1.23828L230 431.5078l-1.67188-1.28906-4.4375 1.0664-3.03125-4.21484-1.40625-.89453-4.11718-3.54687-.32031-.35547-3.41407-4.08203-1.02734-3.37891"/><path fill="#00d4fc" fill-rule="evenodd" d="M215.01563 420.22656l-1.70313-2.03515 1.70313-2.92188 4.4375-1.41797.25-.09765-.25-.08985-4.33594-4.34765 1.76562-4.44141 2.57031-1.78125 4.4375-1.04297v.89844l-4.4375 1.50781-.60546.41797-2.29688 4.4414 2.90234 2.91016 4.20313 1.52735-4.20313 1.625-4.42968 2.8125 3.96484 4.4375.46484.39843.95313-.39843 3.48438-3.26954 1.05468-1.16796 3.38281-1.64844 4.4375-.05469 3.34375-2.73437-.10156-4.4375-3.24219-2.28907-2.98828-2.15234-1.44922-1.23438-4.4375-.6914v-.89844l4.4375.29688 2.96485 2.52734 1.47266 1.0586 4.4414 2.83984.48438.54297-.48438 1.8789-.25781 2.5586-4.1836 3.42187-4.4375.92578-.17968.08985-3.49219 4.4375 2.59766 4.4414-3.36328.76563-.55079-.76563-3.88672-2.46875-2.29296-1.97265-2.14453-2.40235"/><path fill="#fff" fill-opacity="0" fill-rule="evenodd" d="M215.01563 431.65234l-.09766 4.29297.09766.23047 2.55078 4.20703 1.88672 2.45703 4.4375 1.62891 4.4375-1.1211 4.4375-.60156 3.21484-2.36328-3.21484-1.3711-1.97657-3.0664-2.46094-2.4961-4.4375 1.63673-3.41796-3.57813-1.01953-3.67578-4.4336 3.67578-.0039.14453"/><path fill="#00c4fc" fill-rule="evenodd" d="M218.98828 422.6289l-3.96484-4.4375 4.42969-2.8125v1.53126l-2.01954 1.28125 2.01953 2.34765 2.46485-2.34765-2.46484-1.28125v-1.53125l4.20312-1.625-4.20313-1.52735-2.90234-2.91015 2.29688-4.44141.60547-.41797 4.4375-1.50781v.90234l-2.75782 1.02344-1.67969 1.79297-1.46875 2.64844 1.46875 1.47265 4.4375 1.94531 2.41797 1.01954 2.01953 1.22656 4.4375.82031 2.50391-2.04687-.80469-4.4375-1.69922-1.19922-4.4375-3.15235-.16796-.08984-4.26953-1.02344v-.90234l4.4375.6914 1.44921 1.23438 2.98828 2.15234 3.2422 2.28907.10155 4.4375-3.34375 2.73437-4.4375.05469-3.3828 1.64844-1.0547 1.16796-3.48437 3.26954-.95313.39843-.46484-.39843"/><path fill="#00b8fc" fill-rule="evenodd" d="M219.45313 420.53906l-2.01954-2.34765 2.01953-1.28125 2.46485 1.28125-2.46484 2.34765m0-9.75l-1.46875-1.47265 1.46875-2.64844 1.67968-1.79297 2.75781-1.02344v.90235l-.32812.12109-4.10938 4.375-.03515.0664.03516.03516 4.4375 2.29688 4.4375 1.41406.43359.6914 4.0039 1.35938 1.66407-1.35937-1.50781-4.4375-.15625-.10938-4.4375-2.22656-3.92579-2.10547-.51172-.1211v-.90234l4.26954 1.02344.16797.08984 4.4375 3.15235 1.69921 1.19922.8047 4.4375-2.50392 2.04687-4.4375-.82031-2.01953-1.22656-2.41797-1.01954-4.4375-1.9453"/><path fill="#00a8fc" fill-rule="evenodd" d="M219.45313 409.35156l-.03516-.03515.03516-.06641 4.10937-4.375.32813-.1211v2.02735l-2.40235 2.53516 2.40234 1.24609 4.4375-.72656 2.46094 3.91797 1.97656.67187.82422-.67187-.82422-2.3086L229 409.31641l-.67188-.32422-4.4375-2.21094v-2.02734l.51172.12109 3.92578 2.10547 4.4375 2.22656.15625.10938 1.50782 4.4375-1.66406 1.35937-4.00391-1.35937-.4336-.69141-4.4375-1.41406-4.4375-2.29688"/><path fill="#009800" fill-rule="evenodd" d="M223.89063 410.5625l-2.40235-1.2461 2.40234-2.53515v2.20313l-.3125.33203.3125.16015.67579-.16015-.67578-.33204v-2.20312l4.4375 2.21094.67187.32422 3.76563 2.1289.82421 2.3086-.82422.67187-1.97656-.67187-2.46094-3.91797-4.4375.72656"/><path fill="#00ac00" fill-rule="evenodd" d="M223.89063 409.47656l-.3125-.16015.3125-.33204.67578.33204-.67578.16015"/><path fill="#50fcfc" fill-rule="evenodd" d="M254.95703 435.82422l-3.9336-4.3164 3.9336-3.82423v1.25391l-2.64453 2.57031 2.64453 2.90235 2.8789-2.90235-2.8789-2.57031v-1.2539l4.28125 3.82421-4.28125 4.3164"/><path fill="#00e8fc" fill-rule="evenodd" d="M254.95703 434.41016l-2.64453-2.90235 2.64453-2.57031v2.08594l-.49219.48437.4922.54297.54296-.54297-.54297-.48437v-2.08594l2.8789 2.57031-2.8789 2.90235"/><path fill="#00d4fc" fill-rule="evenodd" d="M254.95703 432.05078l-.49219-.54297.4922-.48437.54296.48437-.54297.54297"/><path fill="#50fcfc" fill-rule="evenodd" d="M281.58984 436.29297l-.37109-.34766.3711-1.54297.5078 1.54297-.5078.34766m31.0664 12.9961l-.07031-.02735.07031-.03906.04297.03906-.04297.02734m39.94531-8.15625l-.73437-.75.73437-.73828.8789.73828-.8789.75m22.1914 10.59766l-2.55077-2.46875 2.55078-4.22656 3.09765 4.22656-3.09765 2.46875"/><g clip-path="url(#e)"><path fill="#50fcfc" fill-rule="evenodd" d="M383.13672 467.01563l-1.0664-4.44141 1.60156-2.71094 1.36328-1.72656 3.07421-2.16406 2.29297 2.16406-2.29296 3.45703-1.28516.98047 1.28515 2.4375.94141 2.0039 3.4961 3.85938.49609.57813-.4961 1.3203-3.20703 3.1172 3.20704.27734 4.4375 3.41797.26171.74219h-2.0664l-2.63281-2.42579-4.4375-.08203-2.48047 2.50781h-2.20313l.20703-4.4375.03906-3.58593 4.4375 2.30078 3.0586-3.15235-3.0586-2.44921-4.4375 2.3828-.53515-4.37108"/></g><g clip-path="url(#f)"><path fill="#00e8fc" fill-rule="evenodd" d="M385.6289 480.32813l2.48048-2.50782 4.4375.08203 2.6328 2.42579h-9.55077"/></g><g clip-path="url(#g)"><path fill="#fff" fill-opacity="0" fill-rule="evenodd" d="M467.9961 480.32813H468V311.67188h-.0039H468v168.65625h-.0039"/></g><path fill="#fff" fill-opacity="0" fill-rule="evenodd" d="M238.6289 413.76563l3.28516 4.83203L250.15234 413l-3.28125-4.83203-8.24218 5.59765"/><path fill-rule="evenodd" d="M247.32031 412.09375l.28516.42188-5.20703 3.53906-.4414-.65235 3.71483-2.52343-.78125-1.14844.46094-.3125.36719.42578.1836.17969.20312.14062.23437.08594.26953.02734.32422-.04687.38672-.13672"/><path fill="#fff" fill-opacity="0" fill-rule="evenodd" d="M175.0586 456.2539l1.625 5.61329 9.5664-2.77344-1.625-5.61328-9.5664 2.77344"/><path fill-rule="evenodd" d="M183.83984 457.35156l.14063.49219-6.04688 1.75-.21875-.7539 4.3125-1.25-.38672-1.33594.53516-.15235.21875.51953.1211.22657.14843.1953.19531.15626.25.10937.32032.0547.41015-.01173"/><g clip-path="url(#h)"><path fill="none" stroke="#000" stroke-linecap="round" stroke-linejoin="round" stroke-miterlimit="10" stroke-width=".5" d="M147.50781 480.09766l-7.01562.46093"/></g><g clip-path="url(#i)"><path fill="none" stroke="#000" stroke-linecap="round" stroke-linejoin="round" stroke-miterlimit="10" stroke-width=".5" d="M147.50781 480.09766l1.28906 2.08593"/></g><g clip-path="url(#j)"><path fill="none" stroke="#000" stroke-linecap="round" stroke-linejoin="round" stroke-miterlimit="10" stroke-width=".5" d="M160.82031 480.07031l-7.00781.51953"/></g><g clip-path="url(#k)"><path fill="none" stroke="#000" stroke-linecap="round" stroke-linejoin="round" stroke-miterlimit="10" stroke-width=".5" d="M160.82031 480.07031l1.3086 2.07422"/></g><g clip-path="url(#l)"><path fill="none" stroke="#000" stroke-linecap="round" stroke-linejoin="round" stroke-miterlimit="10" stroke-width=".5" d="M174.14453 480.28516l-7.02734.08984"/></g><g clip-path="url(#m)"><path fill="none" stroke="#000" stroke-linecap="round" stroke-linejoin="round" stroke-miterlimit="10" stroke-width=".5" d="M174.14453 480.28516l1.17969 2.14843"/></g><g clip-path="url(#n)"><path fill="none" stroke="#000" stroke-linecap="round" stroke-linejoin="round" stroke-miterlimit="10" stroke-width=".5" d="M187.45703 480.47266l-7.02344-.28516"/></g><g clip-path="url(#o)"><path fill="none" stroke="#000" stroke-linecap="round" stroke-linejoin="round" stroke-miterlimit="10" stroke-width=".5" d="M187.45703 480.47266l1.0625 2.21093"/></g><g clip-path="url(#p)"><path fill="none" stroke="#000" stroke-linecap="round" stroke-linejoin="round" stroke-miterlimit="10" stroke-width=".5" d="M200.75781 480.67969l-6.99219-.70313"/></g><g clip-path="url(#q)"><path fill="none" stroke="#000" stroke-linecap="round" stroke-linejoin="round" stroke-miterlimit="10" stroke-width=".5" d="M200.75781 480.67969l.92969 2.26953"/></g><g clip-path="url(#r)"><path fill="none" stroke="#000" stroke-linecap="round" stroke-linejoin="round" stroke-miterlimit="10" stroke-width=".5" d="M214.08203 480.57031l-7.01172-.48047"/></g><g clip-path="url(#s)"><path fill="none" stroke="#000" stroke-linecap="round" stroke-linejoin="round" stroke-miterlimit="10" stroke-width=".5" d="M214.08203 480.57031l1 2.23828"/></g><g clip-path="url(#t)"><path fill="none" stroke="#000" stroke-linecap="round" stroke-linejoin="round" stroke-miterlimit="10" stroke-width=".5" d="M227.40234 480.46094l-7.02343-.26563"/></g><g clip-path="url(#u)"><path fill="none" stroke="#000" stroke-linecap="round" stroke-linejoin="round" stroke-miterlimit="10" stroke-width=".5" d="M227.40234 480.46094l1.06641 2.21094"/></g><g clip-path="url(#v)"><path fill="none" stroke="#000" stroke-linecap="round" stroke-linejoin="round" stroke-miterlimit="10" stroke-width=".5" d="M240.6914 480.7539l-6.97265-.84765"/></g><g clip-path="url(#w)"><path fill="none" stroke="#000" stroke-linecap="round" stroke-linejoin="round" stroke-miterlimit="10" stroke-width=".5" d="M240.6914 480.7539l.88282 2.28907"/></g><g clip-path="url(#x)"><path fill="none" stroke="#000" stroke-linecap="round" stroke-linejoin="round" stroke-miterlimit="10" stroke-width=".5" d="M239.67969 480.6289l.4414 1.14454"/></g><g clip-path="url(#y)"><path fill="none" stroke="#000" stroke-linecap="round" stroke-linejoin="round" stroke-miterlimit="10" stroke-width=".5" d="M254.01563 480.6914l-6.98829-.72265"/></g><g clip-path="url(#z)"><path fill="none" stroke="#000" stroke-linecap="round" stroke-linejoin="round" stroke-miterlimit="10" stroke-width=".5" d="M254.01563 480.6914l.92187 2.27344"/></g><g clip-path="url(#A)"><path fill="none" stroke="#000" stroke-linecap="round" stroke-linejoin="round" stroke-miterlimit="10" stroke-width=".5" d="M253 480.58594l.46094 1.13672"/></g><g clip-path="url(#B)"><path fill="none" stroke="#000" stroke-linecap="round" stroke-linejoin="round" stroke-miterlimit="10" stroke-width=".5" d="M267.33203 480.67188l-6.99219-.6875"/></g><g clip-path="url(#C)"><path fill="none" stroke="#000" stroke-linecap="round" stroke-linejoin="round" stroke-miterlimit="10" stroke-width=".5" d="M267.33203 480.67188l.9336 2.26953"/></g><g clip-path="url(#D)"><path fill="none" stroke="#000" stroke-linecap="round" stroke-linejoin="round" stroke-miterlimit="10" stroke-width=".5" d="M280.66406 480.32031l-7.02734.01563"/></g><g clip-path="url(#E)"><path fill="none" stroke="#000" stroke-linecap="round" stroke-linejoin="round" stroke-miterlimit="10" stroke-width=".5" d="M280.66406 480.32031l1.15625 2.16406"/></g><g clip-path="url(#F)"><path fill="none" stroke="#000" stroke-linecap="round" stroke-linejoin="round" stroke-miterlimit="10" stroke-width=".5" d="M293.95703 479.9336l-6.98437.78906"/></g><g clip-path="url(#G)"><path fill="none" stroke="#000" stroke-linecap="round" stroke-linejoin="round" stroke-miterlimit="10" stroke-width=".5" d="M293.95703 479.9336l1.38672 2.02343"/></g><g clip-path="url(#H)"><path fill="none" stroke="#000" stroke-linecap="round" stroke-linejoin="round" stroke-miterlimit="10" stroke-width=".5" d="M307.26953 479.91406l-6.97656.82813"/></g><g clip-path="url(#I)"><path fill="none" stroke="#000" stroke-linecap="round" stroke-linejoin="round" stroke-miterlimit="10" stroke-width=".5" d="M307.26953 479.91406l1.39844 2.01563"/></g><g clip-path="url(#J)"><path fill="none" stroke="#000" stroke-linecap="round" stroke-linejoin="round" stroke-miterlimit="10" stroke-width=".5" d="M320.60938 480.23438l-7.02735.1875"/></g><g clip-path="url(#K)"><path fill="none" stroke="#000" stroke-linecap="round" stroke-linejoin="round" stroke-miterlimit="10" stroke-width=".5" d="M319.58594 480.26172l.60547 1.0664"/></g><g clip-path="url(#L)"><path fill="none" stroke="#000" stroke-linecap="round" stroke-linejoin="round" stroke-miterlimit="10" stroke-width=".5" d="M333.91016 480.625l-7-.59375"/></g><g clip-path="url(#M)"><path fill="none" stroke="#000" stroke-linecap="round" stroke-linejoin="round" stroke-miterlimit="10" stroke-width=".5" d="M332.89453 480.53906l.48047 1.1289"/></g><g clip-path="url(#N)"><path fill="none" stroke="#000" stroke-linecap="round" stroke-linejoin="round" stroke-miterlimit="10" stroke-width=".5" d="M347.10547 481.29297l-6.75781-1.92969"/></g><g clip-path="url(#O)"><path fill="none" stroke="#000" stroke-linecap="round" stroke-linejoin="round" stroke-miterlimit="10" stroke-width=".5" d="M346.1211 481.01172l.2578 1.19922"/></g><g clip-path="url(#P)"><path fill="none" stroke="#000" stroke-linecap="round" stroke-linejoin="round" stroke-miterlimit="10" stroke-width=".5" d="M359.90625 482.35938l-5.73047-4.0625"/></g><g clip-path="url(#Q)"><path fill="none" stroke="#000" stroke-linecap="round" stroke-linejoin="round" stroke-miterlimit="10" stroke-width=".5" d="M372.22656 483.30469l-3.73828-5.95313"/></g><g clip-path="url(#R)"><path fill="none" stroke="#000" stroke-linecap="round" stroke-linejoin="round" stroke-miterlimit="10" stroke-width=".5" d="M380.92578 482.52344l5.49219-4.38672"/></g><g clip-path="url(#S)"><path fill="none" stroke="#000" stroke-linecap="round" stroke-linejoin="round" stroke-miterlimit="10" stroke-width=".5" d="M393.95313 482.10156l6.0664-3.54297"/></g><g clip-path="url(#T)"><path fill="none" stroke="#000" stroke-linecap="round" stroke-linejoin="round" stroke-miterlimit="10" stroke-width=".5" d="M393.95313 482.10156l-2.08985-1.29297"/></g><g clip-path="url(#U)"><path fill="none" stroke="#000" stroke-linecap="round" stroke-linejoin="round" stroke-miterlimit="10" stroke-width=".5" d="M407.88672 482.88281l4.82812-5.10547"/></g><g clip-path="url(#V)"><path fill="none" stroke="#000" stroke-linecap="round" stroke-linejoin="round" stroke-miterlimit="10" stroke-width=".5" d="M421.16406 482.84375l4.90625-5.03125"/></g><g clip-path="url(#W)"><path fill="none" stroke="#000" stroke-linecap="round" stroke-linejoin="round" stroke-miterlimit="10" stroke-width=".5" d="M433.69922 478.94922l6.46484 2.76172"/></g><g clip-path="url(#X)"><path fill="none" stroke="#000" stroke-linecap="round" stroke-linejoin="round" stroke-miterlimit="10" stroke-width=".5" d="M449.40234 476.91797l1.6875 6.82031"/></g><g clip-path="url(#Y)"><path fill="none" stroke="#000" stroke-linecap="round" stroke-linejoin="round" stroke-miterlimit="10" stroke-width=".5" d="M464.83203 483.60547l-2.53906-6.55469"/></g><g clip-path="url(#Z)"><path fill="none" stroke="#000" stroke-linecap="round" stroke-linejoin="round" stroke-miterlimit="10" stroke-width=".5" d="M147.46094 466.41016l-6.92188 1.20703"/></g><path fill="none" stroke="#000" stroke-linecap="round" stroke-linejoin="round" stroke-miterlimit="10" stroke-width=".5" d="M147.46094 466.41016l1.50781 1.9375m11.84766-1.60938l-7.00391.55078m7.0039-.55078l1.32032 2.07031m11.97656-2.25l-6.96875.91016m6.96875-.91016l1.42188 2m11.92187-1.60547l-7.02344.1211m7.02344-.1211l1.1914 2.14844m-2.21093-2.1289l.59375 1.0703m13.73438-.77343l-7.00782-.51172m7.00781.51172l.9922 2.24219m-2.01173-2.3164l.4961 1.12109m13.84765-1.29297l-7.02734-.01953m7.02734.01953l1.14453 2.17187m12.16016-2.42187l-7.00781.48047m7.00781-.48047l1.30078 2.08203m12.02344-1.8125l-7.02734-.0586m7.02734.0586l1.13281 2.17578m12.17578-2.0039l-7.01562-.40235m7.01562.40234l1.02735 2.22657m12.29297-2.55078l-7.02344.24609m7.02344-.2461l1.22656 2.1211m12.07031-2.375l-6.98828.7539m6.98828-.7539l1.3789 2.02734m11.87891-2.38672l-6.87109 1.47266m6.8711-1.47266l1.57812 1.875m11.71094-1.97656l-6.82422 1.67578m6.82422-1.67578l1.63672 1.82813m11.42578-2.53125l-6.31641 3.08203m6.3164-3.08203l1.98438 1.4414m11.03906-1.9336l-5.73437 4.06642m4.89844-3.47266l1.09765.55078m12.47266-1.77734l-4.57031 5.33203m3.90625-4.5586l1.1953.26954m11.58204-1.71875l-2.16797 6.68359m1.85156-5.71094l1.21094-.21484m9.30469-.28125l4.0625 5.73047m8.0625-4.26172l6.44531 2.79297m-5.50781-2.38672l-.09766-1.22266m12.25 1.53125l6.89453 1.36328m-5.89062-1.16406l-.35547-1.17578m12.60547 1.85547l7.01562-.39453m-5.99609.33593l-.63281-1.04687m15.98828-2.57813l.89844 6.97266m-.76953-5.95703l1.0039-.71094m16.14063 2.99219l-7.01953.3789m5.99609-.32421l.63281 1.05468m10.47266 2.58204l-.55078-7.00391m17.01172 2.70312l-6.84375 1.59766m5.84765-1.36328l.80469.92187"/><g clip-path="url(#aa)"><path fill="none" stroke="#000" stroke-linecap="round" stroke-linejoin="round" stroke-miterlimit="10" stroke-width=".5" d="M147.48438 453.25l-6.96875.89844"/></g><path fill="none" stroke="#000" stroke-linecap="round" stroke-linejoin="round" stroke-miterlimit="10" stroke-width=".5" d="M147.48438 453.25l1.41796 2m11.90625-1.16406l-6.98437-.77344m6.98437.77344l.90625 2.27734m12.25391-1.57422l-6.67969-2.17968M173 454.47266l.21094 1.20703m13.9336-.52735l-6.39845-2.91015m5.46485 2.48828l.07812 1.22266m14.41797-1.57032l-6.89453-1.3711m5.89063 1.17188l.35546 1.17579m13.97657-1.04688l-6.91797-1.22656m5.91015 1.04687l.37891 1.16797m13.98828-1.35156l-7.00781-.5m5.98828.42578l.4961 1.125m13.76952-2.03516l-6.87109 1.46875m6.8711-1.46875l1.57812 1.87891m11.8086-1.33203l-7.01563.375m7.01562-.375l1.26953 2.10156m12.05079-2.04297l-7.02344.25782m7.02344-.25782l1.23047 2.125m12.03515-2.58593l-6.92578 1.17968m6.92578-1.17968l1.5 1.9414m11.54297-2.82031l-6.38281 2.9375m6.38281-2.9375l1.95313 1.48437m11.17968-1.83203l-6.01562 3.6289m6.01562-3.6289l2.10547 1.26172m10.83203-1.77734l-5.26172 4.66015m5.26172-4.66015l2.29688.85937m10.125-1.58203l-3.47656 6.10938m3.47656-6.10938l2.45312.07031m11.2461.1836l-4.2422 5.60156m4.2422-5.60156l2.42187.39062m11.4375.1211l-5.33203 4.57812m5.33203-4.57812l2.28516.89062m9.77734-1.82031l-2.82812 6.4336m2.82812-6.4336l2.44531-.1836m6.44922 1.58594l6.01563 3.63282m-5.14063-3.10547l.0664-1.22657m11.90235 2.01954l6.95703.99218m-6.95703-.99218l-.83594-2.3086m18.69141 6.15235l-2.1211-6.69922m17.88282 3.5625l-7.01563-.42188m7.01563.42188l1.01953 2.23047m12.29297-2.23438l-7.01172-.41406m7.01172.41406l1.02344 2.23047m12.17969-1.53125l-6.78907-1.8125m5.80078 1.54687l.27735 1.19532m12.27344 1.26953l-3.28125-6.21485m2.80078 5.3125l-.6875 1.01563"/><g clip-path="url(#ab)"><path fill="none" stroke="#000" stroke-linecap="round" stroke-linejoin="round" stroke-miterlimit="10" stroke-width=".5" d="M147.45703 441.01172l-6.91406-1.2539"/></g><path fill="none" stroke="#000" stroke-linecap="round" stroke-linejoin="round" stroke-miterlimit="10" stroke-width=".5" d="M146.45313 440.82813l.37109 1.16796m13.99219-1.90234l-7.00391.57813m5.98438-.4922l.66406 1.03126m13.66015-.4375l-6.98437-.78125m5.96875.66797l.45312 1.14062m13.66407-.14844l-6.5547-2.53906m5.60157 2.16797l.14453 1.21875m14.25-1.25l-6.8086-1.73438M199.67579 441l.28906 1.1914m14.08203-1.2539l-6.9414-1.10547m6.9414 1.10547l.79688 2.32031m12.41016-1.85937l-6.72657-2.02735m6.72657 2.02735l.47656 2.40625m12.66406-1.94532l-6.3789-2.95312m5.44921 2.52344l.07032 1.22656m14.47656-2.67578l-6.98047.8086m6.98047-.8086L255.40625 442m11.52344-3.28516l-6.1875 3.33594m6.1875-3.33594l2.03906 1.35938m11.19531-1.5l-6.02734 3.61719m6.02734-3.6172l2.10156 1.26563m11.3125-1.08984l-6.22265 3.26953m6.22265-3.26953l2.02735 1.38281m10.84765-2.03125l-5.34375 4.5625m5.34375-4.5625l2.28125.89844m-3.05859-.23438l1.14063.44922m12.6953-1.3828l-4.83202 5.10155m4.83203-5.10156l2.36719.65625m-3.07032.08594l1.1836.32812m12.9961-.90625l-5.15626 4.77344m5.15625-4.77344l2.3164.8086m-3.0664-.11328l1.16016.40234m12.76172-1.24219l-4.8672 5.0664m4.8672-5.0664l2.35937.66797m10.78125-.82812l-4.51953 5.3828m4.51953-5.3828l2.39844.51171m9.77344-1.15234l-2.23438 6.66406m2.23438-6.66406l2.42187-.40234m7.70313.89843l4.14453 5.67579m-4.14453-5.67579l1.07421-2.20703m11.39454 3.08594l5.83984 3.91406m-5.83984-3.91406l.25-2.4414m.60156 3.01171l.125-1.21875m11.83594 1.8086l6.84375 1.59375m-6.84375-1.59375l-.62891-2.3711m14.45313 5.13672l5.82421-3.9336m-4.97656 3.35938l-1.08203-.57422m14.95703-3.99218l3.01172 6.34765m-2.57422-5.42578l.73047-.98437m13.8711-.27344l-.4375 7.01562m.375-5.99218l1.11718-.50782m9.45313 5.3711l5.17578-4.7539"/><g clip-path="url(#ac)"><path fill="none" stroke="#000" stroke-linecap="round" stroke-linejoin="round" stroke-miterlimit="10" stroke-width=".5" d="M147.40234 427.95313l-6.80468-1.76954"/></g><path fill="none" stroke="#000" stroke-linecap="round" stroke-linejoin="round" stroke-miterlimit="10" stroke-width=".5" d="M147.40234 427.95313l.57032 2.38671m12.85156-3.47656l-7.01563.41016m5.9922-.34766l.64062 1.04688m13.61328-1.6875l-6.85156 1.5664m5.85546-1.33594l.8047.92579m13.58202-.6875l-7 .6289m5.98047-.53515l.67188 1.02734m13.61718-.17188l-6.91015-1.26953m5.90625 1.08594l.3711 1.16797m13.99218-1.3125l-7-.61328m5.98437.52344l.47657 1.1289m13.77734-.55469l-6.84375-1.58203m5.84766 1.35157l.3203 1.1875m13.6211-.00391l-6.10156-3.48438m5.21094 2.97657l-.03516 1.22656m14.67188-2.0039l-6.96485-.91798m5.95313.78516l.42578 1.14844m13.875-2.09766l-6.91406 1.25m6.91406-1.25l1.51953 1.92578m11.64063-2.5078l-6.60157 2.41015m6.60156-2.41016l1.82422 1.64063m11.32032-2.02735l-6.26563 3.1836m6.26563-3.1836l2.0078 1.41016m10.89063-2.04688l-5.42968 4.45703m5.42968-4.45703l2.26563.94141m-3.05469-.29297l1.13281.47266m12.38282-1.6875l-4.25391 5.58984m4.2539-5.58984l2.42188.39453m11.33203 0l-5.13281 4.80078m5.13281-4.80078l2.32031.79297m11.36329-.32422L340.79296 429m5.8672-3.86328l2.15234 1.17578m11.48437-.5625l-6.51171 2.64063m5.5664-2.25782l.9375.78516m12.0586-2.7461l-3.98047 5.79297m3.40234-4.94921l1.21875.14062m9.67578-1.45312l2.01563 6.73046m-1.72266-5.75l.875-.86328m16.375 1.84375l-6.4414 2.8086m6.4414-2.8086l1.92188 1.52344m-2.85938-1.11719l.96094.76563m13.5039-.51563l-6.86718 1.4961m6.86718-1.4961l1.58594 1.8711m-2.58594-1.65235l.79297.9336m12.77344-2.66797l-5.3711 4.52734m5.3711-4.52734l2.27734.91015m-3.05859-.2539l1.14063.45703m13.33203-.57422l-6.1211 3.44922m6.1211-3.44922l2.0664 1.32422m-2.95703-.82031l2.0664 1.3203m11.79298-2.32812l-5.42969 4.45704m5.42969-4.45704l2.26562.94141m-3.05469-.29297l2.26563.9414m12.20312-1.05468l-6.15625 3.38672"/><g clip-path="url(#ad)"><path fill="none" stroke="#000" stroke-linecap="round" stroke-linejoin="round" stroke-miterlimit="10" stroke-width=".5" d="M466.64063 425.375l2.05468 1.34375"/></g><g clip-path="url(#ae)"><path fill="none" stroke="#000" stroke-linecap="round" stroke-linejoin="round" stroke-miterlimit="10" stroke-width=".5" d="M465.7461 425.86719l2.05077 1.34375"/></g><g clip-path="url(#af)"><path fill="none" stroke="#000" stroke-linecap="round" stroke-linejoin="round" stroke-miterlimit="10" stroke-width=".5" d="M147.33984 414.84766l-6.67968-2.1875"/></g><path fill="none" stroke="#000" stroke-linecap="round" stroke-linejoin="round" stroke-miterlimit="10" stroke-width=".5" d="M146.36719 414.52734l.21094 1.21094m14.24609-1.80078l-7.01953-.36719m6 .3125l.51562 1.11328m13.76172-1.90234l-6.90234 1.32031m5.89844-1.1289l.76953.95312m13.57422.01172l-6.95704-.99219m5.94532.84766l.41797 1.15234m13.69921-2.79687l-6.53515 2.58203m5.58594-2.20313l.93359.79297m12.6836-2.22265l-5.23829 4.68359m4.47656-4l1.15235.42187m13.80078 1.58204l-6.99219-.6875m5.97656.58593l.46485 1.13672m11.92578 1.76953l-3.11328-6.30078m2.66015 5.38672l-.71484.9961m14.64453-.16407l-3.4336-6.13281m3.4336 6.13281l-1.32812 2.0625m16.42968-4.85156l-7.0078-.5586m5.98827.48047l.48828 1.125m13.84375-1.59765l-7.0039.54687m7.0039-.54687l1.32032 2.0664m11.61328-3.41015l-6.24219 3.23047m6.24219-3.23047l2.01953 1.39453m10.76562-2.15234l-5.17968 4.75m5.17968-4.75l2.3125.8203m10.40625-1.33984l-3.98437 5.78907m3.98437-5.78907l2.4375.28125m11.53907.3125l-5.3086 4.60157m4.53516-3.9336l1.14453.44141m12.71484-1.34766l-4.85547 5.07813m4.14844-4.33985l1.1836.33204m13.0039-.90625l-5.1836 4.74609m5.1836-4.7461l2.3125.82032m8.83985-1.9336l-.85547 6.97657m.73047-5.96094l1.14453-.4414m14.64062.7578l-5.55078 4.3125m5.55078-4.3125l2.23828 1.00391m11.3672-.57031l-6.12892 3.44531m6.12891-3.44531l2.0625 1.32422m-2.95703-.82422l2.0664 1.32422m11.78126-2.34766L407.59766 416m5.40625-4.49219l2.26953.92969m-3.05469-.27734l2.26953.93359m-3.0586-.27734l1.13673.46484m13.6875-1.84766l-5.27735 4.64063m5.27735-4.64063l2.29687.8672m-3.0625-.19142l2.29297.8672m11.14062-2.1172l-3.98046 5.78907m3.98046-5.78907l2.4375.27735m-3.01562.5664l1.21875.13672m13.10156-.63672l-4.83203 5.10157m4.83203-5.10157l2.36328.65235m-3.0664.08984l1.17968.32813m13.08204-.8125l-5.32422 4.58593"/><g clip-path="url(#ag)"><path fill="none" stroke="#000" stroke-linecap="round" stroke-linejoin="round" stroke-miterlimit="10" stroke-width=".5" d="M466.22266 411.46094l2.28906.89062"/></g><path fill="none" stroke="#000" stroke-linecap="round" stroke-linejoin="round" stroke-miterlimit="10" stroke-width=".5" d="M465.44922 412.1289l1.14453.44532"/><g clip-path="url(#ah)"><path fill="none" stroke="#000" stroke-linecap="round" stroke-linejoin="round" stroke-miterlimit="10" stroke-width=".5" d="M146.96875 402.3164l-5.9375-3.7578"/></g><path fill="none" stroke="#000" stroke-linecap="round" stroke-linejoin="round" stroke-miterlimit="10" stroke-width=".5" d="M146.10547 401.76953l-.09375 1.22656m14.60547-1.35546l-6.60156-2.40625m5.64062 2.05859l.16797 1.21484m13.00781-4.8086l-4.40234 5.47657m16.47656.64063l-1.92188-6.75782m12.41407 6.35938l3.72265-5.96094m-3.17968 5.09375l-1.22657-.08594m14.39063 1.16407l2.9414-6.38282m15.28516 2.48829l-6.88281 1.41015m5.88281-1.20703l.78125.94531m13.51953.32813l-6.85547-1.54688m5.85938 1.32031l.32422 1.1836m9.94531 1.73047l1.22656-6.91797m-1.04687 5.91015l-1.16797.37891m14.71484.67578l.40625-7.01562m-.34765 5.9961l-1.1172.51171m17.6211-1.2461l-6.08984-3.5078m5.20312 3l-.04296 1.22656m14.6953-2.84375l-6.98827.74609m6.98828-.7461l1.375 2.03126m11.48828-3.41407l-6.08594 3.50782m6.08594-3.50782l2.08203 1.30079m11.09766-1.51954l-5.81641 3.94532m5.8164-3.94532l2.16798 1.14454m8.28515-2.6836l-.09375 7.02735m.08203-6.00391l1.08985-.5625m15.25 1.32422l-6.1172 3.45703m5.22657-2.95703l1.03516.66015m13.09765-1.28515l-5.97265 3.70703m5.10156-3.16797l1.0625.61719m13.00781-1.32813l-5.74218 4.05078m5.74218-4.05078l2.1914 1.10547m-3.02733-.51562l2.1914 1.10546m11.78125-1.92968l-5.38281 4.51953m5.38281-4.51953l2.27344.91797m-3.0586-.26172l2.27735.91797m-3.0586-.26172l1.13672.46094m14.03125-1.37891l-5.95703 3.73047m5.95703-3.73047l2.125 1.22265m-2.99218-.67968l2.125 1.22265m12.46875-.8164l-6.78125 1.83203m6.78125-1.83203l1.67968 1.78906m-2.66406-1.52344l.83985.89453m12.74609-2.51953l-5.35547 4.55078m5.35547-4.55078l2.28125.90625m-3.0586-.2461l2.28126.90626m11.99218-1.33594l-5.71484 4.08594m5.71484-4.08594l2.19922 1.09375m-3.03125-.5l1.09766.54688m13.29687-.73829l-6.21093 3.28516m6.21093-3.28515l2.03125 1.375m-2.9336-.89844l1.01563.6875m12.94532-1.58203l-5.69532 4.11718"/><g clip-path="url(#ai)"><path fill="none" stroke="#000" stroke-linecap="round" stroke-linejoin="round" stroke-miterlimit="10" stroke-width=".5" d="M466.41016 398.3789l2.20312 1.08204"/></g><path fill="none" stroke="#000" stroke-linecap="round" stroke-linejoin="round" stroke-miterlimit="10" stroke-width=".5" d="M465.58203 398.98047l1.10156.53906"/><g clip-path="url(#aj)"><path fill="none" stroke="#000" stroke-linecap="round" stroke-linejoin="round" stroke-miterlimit="10" stroke-width=".5" d="M146.21484 389.85156l-4.42968-5.45703"/></g><path fill="none" stroke="#000" stroke-linecap="round" stroke-linejoin="round" stroke-miterlimit="10" stroke-width=".5" d="M145.57031 389.0586l-.47656 1.1289m15.55078-1.94531l-6.66016-2.23828m5.69141 1.91406l.20313 1.20703m14.25-2.3164l-7 .6289m17.5 3.13281l-1.3672-6.89453m10.63673 4.46875l6.72265-2.04297m-5.74609 1.7461l-.86328-.8672m13.98437 2.53126l5.15625-4.77735m-5.15625 4.77735l-2.3164-.8086m21.15234.33985l-5.88672-3.83985m5.03125 3.28125l-.10937 1.22266m14.73047-3.49219l-6.78516 1.82032m6.78516-1.82032l1.67578 1.79297m11.69531-.20312l-6.89453-1.36328m6.89453 1.36328l.70703 2.35156m-1.71094-2.55078l.70703 2.35156m13.57032-1.97656l-6.8125-1.71485m6.8125 1.71485l.58984 2.38281m-1.58203-2.63281l.58984 2.38281m13.75-2.27734l-6.8789-1.42578m6.8789 1.42578l.6875 2.35547m-1.6875-2.5625l.34375 1.17968m13.9961-2.26953L287 387.70703m6.92969-1.16797l1.4961 1.94531m11.83202-1.85937l-6.95703.9961m6.95703-.9961l1.44922 1.98438m11.5586-3l-6.33985 3.02734m6.33984-3.02735l1.97266 1.45704m-2.89453-1.01563l.98828.72656m13.47266-.5703l-6.78516 1.83202m6.78516-1.83203l1.67578 1.78906m-2.66406-1.52343l1.67578 1.79296m-2.66407-1.52734l.83985.89844m14.5625-.25l-7.00781-.52735m7.0078.52735l.98829 2.2461m-2.00781-2.32423l.49218 1.125m13.78907-1.96484l-6.90235 1.3086m6.90235-1.3086l1.53515 1.91406m-2.53906-1.72265l.76953.95703m13.21485-2.11328l-6.23438 3.23828m6.23438-3.23828l2.02343 1.39062m-2.92968-.92187l2.01953 1.39453m-2.92578-.92188l1.01171.69531m14.1211-1.6289l-6.24219 3.22656m6.24219-3.22656l2.01953 1.39453m-2.92969-.92578l2.01953 1.39453m12.22657-1.82422l-6.28516 3.14453m6.28516-3.14453l2 1.42188m-2.91407-.96485l2 1.42578m12.13282-2.05859l-6.09375 3.4961m6.09375-3.4961l2.07812 1.30469m-2.96484-.79688l1.03906.65235m13.02344-1.38672l-5.8125 3.94922m5.8125-3.94922l2.16797 1.14453m-3.01563-.57031l1.08594.57421m13.44531-.44921l-6.55078 2.55078m6.55078-2.55078l1.85938 1.60156m11.51562-1.42969l-6.67187 2.20703m6.67187-2.20703l1.77344 1.69531m11.50781-1.79687l-6.60156 2.41015"/><g clip-path="url(#ak)"><path fill="none" stroke="#000" stroke-linecap="round" stroke-linejoin="round" stroke-miterlimit="10" stroke-width=".5" d="M466.86328 385.91797l1.82422 1.63672"/></g><path fill="none" stroke="#000" stroke-linecap="round" stroke-linejoin="round" stroke-miterlimit="10" stroke-width=".5" d="M465.90234 386.26953l.91016.8164"/><g clip-path="url(#al)"><path fill="none" stroke="#000" stroke-linecap="round" stroke-linejoin="round" stroke-miterlimit="10" stroke-width=".5" d="M144.72656 377.2461l-1.45312-6.875"/></g><g clip-path="url(#am)"><path fill="none" stroke="#000" stroke-linecap="round" stroke-linejoin="round" stroke-miterlimit="10" stroke-width=".5" d="M144.51563 376.2461l-.94141.78515"/></g><path fill="none" stroke="#000" stroke-linecap="round" stroke-linejoin="round" stroke-miterlimit="10" stroke-width=".5" d="M158.34375 377.16797l-2.0586-6.71875m11.40626 1.4336l5.8789 3.85156m11.39844-1.92579l-.01953-.19921-.0586-.19141-.09375-.17578-.46093-.3789-.1914-.0586-.19923-.01953-.19922.01953-.1914.0586-.46094.3789-.09375.17578-.0586.1914-.01952.19922.01953.19922.05859.1914.09375.17579.46094.3789.1914.0586.19922.01953.19922-.01953.1914-.0586.46095-.3789.09375-.17578.05859-.1914.01953-.19923m9.19922-1.67187l6.1836 3.34375m-6.1836-3.34375l.01953-2.45313m14.22266 6.89063l4.33203-5.53125m-3.70313 4.72656l-1.20703-.21484m17.66797 1.375l-3.21875-6.2461m3.21875 6.2461l-1.39844 2.01953m.92969-2.92578l-.69922 1.00781m16.00781-1.63672l-6.26953-3.17578m6.26953 3.17578l.04688 2.45703m13.23437-2.39453l-6.20312-3.29687m6.20312 3.29687v2.45313m-.90234-2.9336v1.22656m14.42578-1.21484l-6.61719-2.35937m6.6172 2.35937l.35546 2.42969m-1.3164-2.77344l.17577 1.21485m14.1172-.91407l-6.64844-2.27344m6.64843 2.27344l.38672 2.42188m-1.35547-2.7539l.38672 2.42577m14.07813-3.0039l-7.01172-.45313m7.01172.45313l1.0078 2.23437m-2.02733-2.30078l.5039 1.11719m13.82813-1.51172l-7.01172.46875m7.01172-.46875l1.29297 2.08594m-2.3125-2.01954l1.29296 2.08594m12.94532-2.76953l-6.81641 1.70313m6.8164-1.70313l1.64454 1.82031m-2.63672-1.57421l.82422.91406m13.51953-.99219l-6.89063 1.36719m6.89063-1.36719l1.55469 1.89844m-2.5547-1.69922l.77345.94922m13.55468-1.08594l-6.91406 1.24219m6.91406-1.24219l1.51954 1.92578m-2.52344-1.7461l1.51562 1.9297m12.8125-2.0625l-6.9336 1.14843m6.9336-1.14844l1.48828 1.94922M359.5 373.40234l1.48828 1.94922m12.78125-2.375l-6.82812 1.66406m6.82812-1.66406l1.63281 1.82813m-2.625-1.58594l1.63282 1.82813m12.60937-2.30079l-6.69922 2.125m6.69922-2.125l1.7539 1.71485m-2.72655-1.40625l.875.85937m13.26562-1.55469l-6.40234 2.89844m6.40234-2.89844l1.9414 1.5m-2.87109-1.07812l1.9414 1.5m12.35548-1.80469l-6.5039 2.66406m6.5039-2.66406l1.88672 1.5664m-2.83594-1.17968l.94531.78516m12.96485-1.82813l-5.79688 3.97266m5.79688-3.97266l2.17578 1.13672m-3.01953-.5586l1.08593.57032m12.70703-1.59766l-5.0664 4.875m5.0664-4.875l2.33204.76172m-3.07032-.05078l1.16797.3789m13.51563-.17968l-6.32813 3.05469m6.32813-3.05469l1.98047 1.44922m11.42578-1.2461l-6.51172 2.64454m5.5664-2.25782l.94141.78516"/><g clip-path="url(#an)"><path fill="none" stroke="#000" stroke-linecap="round" stroke-linejoin="round" stroke-miterlimit="10" stroke-width=".5" d="M145.77344 363.52734l-3.54688-6.0664"/></g><path fill="none" stroke="#000" stroke-linecap="round" stroke-linejoin="round" stroke-miterlimit="10" stroke-width=".5" d="M145.25781 362.64453l-.64453 1.04297m15.79688-1.53125l-6.19141-3.32422m5.29297 2.83985l-.00781 1.22656m14.30468-.90625l-6.35547-3m6.35547 3l.1172 2.44922m11.46093-.7461l-2.88281-6.40625m2.46484 5.47656l-.7539.96875m14.83593-.21875l-3.58203-6.04296m3.0625 5.16406l-.63672 1.04687m15.20313-.74218l-5.04297-4.89454m5.04297 4.89454l-.6836 2.35546m-.05078-3.0664l-.6836 2.35547m14.48438-1.41406l-4.54687-5.35938m4.54687 5.35938l-.90625 2.28125m.2461-3.0586l-.91016 2.27735m15.01172-1.61329l-4.80078-5.1328m4.80078 5.1328l-.79688 2.32422m.09766-3.07031l-.39844 1.16016m15.14063-1.375l-6.2539-3.20704m6.2539 3.20704l.03515 2.45312m-.9453-2.92187l.03515 2.45312m14.08594-1.80078l-6.04688-3.57422m6.04688 3.57422l-.10938 2.44922m-.76953-2.96875l-.10938 2.44922m14.55078-2.4375l-6.54296-2.5625m6.54297 2.5625l.28125 2.4375m-1.23438-2.8086l.28516 2.4375m14.10937-2.44921l-6.79297-1.79297m6.79297 1.79296l.5625 2.38672m-1.55078-2.64843l.28125 1.1953m14.13672-1.8828l-7.02344.10546m7.02344-.10546l1.1836 2.14843m-2.20313-2.1328l1.1836 2.14843m13.10937-1.5664l-6.94141-1.08985m6.9414 1.08984l.80079 2.32031m-1.8086-2.48046l.80079 2.3203m13.55859-2.90624l-7.01563.39844m7.01563-.39844l1.27344 2.09765m-2.29297-2.03906l.63672 1.05078m13.6914-.59765l-7-.625m7 .625l.95313 2.26172m-1.97266-2.35157l.47656 1.12891m13.8672-1.51953l-7.01954.33594m7.01953-.33594l1.2539 2.10937m-2.27343-2.05859l1.2539 2.10938m-2.27734-2.0625l.6289 1.05468m14.66017-1.69922l-6.87891 1.4297m6.8789-1.4297l1.56641 1.88672m-2.5664-1.67969l1.5664 1.88672m-2.57031-1.67578l.78516.9414m14.4414-1.71093l-6.69531 2.13672m6.69531-2.13672l1.7539 1.71094m-2.73046-1.40235l1.75781 1.71485m-2.73047-1.40235l.8789.85547m14.39845-1.42578l-6.72266 2.03516m6.72266-2.03516l1.73047 1.73828m-2.70704-1.4414l1.73047 1.73828m12.53516-2.125l-6.67188 2.21094m6.67188-2.21094l1.77344 1.69531m-2.7461-1.3711l1.77735 1.69141m12.29687-2.51953l-6.24219 3.22266m6.2422-3.22266l2.01952 1.39453m-2.92578-.92578l2.01563 1.39453m12.23828-1.80078l-6.3086 3.09375m6.3086-3.09375l1.98828 1.4375m-2.90625-.98828l1.98828 1.4375m12.28125-1.8086l-6.38281 2.9375m6.38281-2.9375l1.95313 1.48829m-2.87891-1.0586l.97266.7422m13.37109-.92579l-6.58594 2.44922"/><g clip-path="url(#ao)"><path fill="none" stroke="#000" stroke-linecap="round" stroke-linejoin="round" stroke-miterlimit="10" stroke-width=".5" d="M466.85547 359.26953l1.83594 1.6289"/></g><path fill="none" stroke="#000" stroke-linecap="round" stroke-linejoin="round" stroke-miterlimit="10" stroke-width=".5" d="M465.89844 359.625l.91406.8164"/><g clip-path="url(#ap)"><path fill="none" stroke="#000" stroke-linecap="round" stroke-linejoin="round" stroke-miterlimit="10" stroke-width=".5" d="M145.55078 350.33203l-3.10156-6.3086"/></g><g clip-path="url(#aq)"><path fill="none" stroke="#000" stroke-linecap="round" stroke-linejoin="round" stroke-miterlimit="10" stroke-width=".5" d="M145.55078 350.33203l-1.4336 1.98828"/></g><path fill="none" stroke="#000" stroke-linecap="round" stroke-linejoin="round" stroke-miterlimit="10" stroke-width=".5" d="M160.41797 348.82813l-6.20703-3.30079m6.20703 3.30079v2.45312m13.02344-1.9961l-5.625-4.21093m5.625 4.21094l-.375 2.42187m13.99218-2.90234l-6.22656-3.2539m6.22656 3.2539l.01953 2.45312m13.63672-3.4336l-6.90625-1.29296m6.90625 1.29297l.73047 2.34375m11.6289-.51953l-4.99608-4.9414m4.99609 4.9414L212.36719 352m-.01953-3.07031l-.70703 2.35156m-.01954-3.07031l-.35547 1.17578m14.8672.4961l-4.48438-5.41016m4.48437 5.41015l-.9336 2.26953m.28126-3.05468l-.9336 2.26953m.28125-3.0586l-.46875 1.13672m15.79297-.35547l-5.89453-3.82421m5.89453 3.82421l-.21484 2.44532m-.64453-3l-.21094 2.4453m14.5664-2.20312l-6.2578-3.19921m6.2578 3.19921l.03907 2.45313m-.94922-2.91797l.03906 2.45313m14.28516-2.19922l-6.45313-2.77735m6.45313 2.77735l.20313 2.4453m-1.14063-2.85155l.20313 2.4453m-1.14454-2.84765l.10157 1.22266m15.28906-1.01953l-6.84766-1.5664m6.84766 1.5664l.64062 2.3711m-1.63672-2.59767l.64063 2.3672m13.69922-2.26954l-6.90235-1.3086m6.90235 1.3086l.72656 2.34375m-1.73047-2.53125l.36328 1.16797m13.98829-1.1836l-6.96875-.89843m6.96875.89844l.86718 2.29296M306.25 347.4961l.4336 1.14844m13.91796-1.21875l-7.01172-.4961m7.01172.4961l.9961 2.24219m-2.01563-2.3125l.9961 2.24219m-2.01563-2.31641l.4961 1.1211m14.78906-1.96094l-6.8711 1.47656m6.8711-1.47656l1.57812 1.875m-2.57812-1.66016l1.58203 1.875m12.65234-2.39063l-6.71484 2.07422m6.71484-2.07421l1.74219 1.73046m-2.71875-1.42968l.8711.86718m13.5664-.41015l-7.0039.5625m7.0039-.5625l1.32031 2.0664m-2.33984-1.98437l.66015 1.03125m13.67579-1.08985l-7.00782.51172m7.00781-.51171L375.16798 349m-2.32813-2.0039l1.3086 2.07812m12.89453-2.88281l-6.7461 1.97265m6.7461-1.97265l1.71484 1.7578m-2.69531-1.46874l1.71484 1.7539m12.48047-2.33984l-6.54297 2.5664m6.54297-2.5664l1.86328 1.59375m-2.8164-1.22265l1.86328 1.59765m12.33594-2.13281l-6.40235 2.89453m6.40235-2.89453l1.9414 1.5m-2.875-1.07813l1.9414 1.5m12.16017-2.20703l-6.10938 3.46875m6.10938-3.46875l2.0703 1.3125m-2.96093-.8086l2.07422 1.3125m-2.96094-.80858l1.03516.65625m13.97656-1.80079l-5.94922 3.7422m5.94922-3.7422l2.1289 1.21875m-2.99609-.67578l2.1289 1.21875m12.22267-1.46484l-6.28516 3.14453m6.28515-3.14453l1.9961 1.42578m-2.91016-.96875l.9961.71094m13.33984-.92578l-6.5039 2.66015"/><g clip-path="url(#ar)"><path fill="none" stroke="#000" stroke-linecap="round" stroke-linejoin="round" stroke-miterlimit="10" stroke-width=".5" d="M466.8125 345.84766l1.88672 1.5703"/></g><g clip-path="url(#as)"><path fill="none" stroke="#000" stroke-linecap="round" stroke-linejoin="round" stroke-miterlimit="10" stroke-width=".5" d="M465.86719 346.23438l1.88672 1.5703"/></g><g clip-path="url(#at)"><path fill="none" stroke="#000" stroke-linecap="round" stroke-linejoin="round" stroke-miterlimit="10" stroke-width=".5" d="M144.7539 337.29297l-1.5078-6.86328"/></g><g clip-path="url(#au)"><path fill="none" stroke="#000" stroke-linecap="round" stroke-linejoin="round" stroke-miterlimit="10" stroke-width=".5" d="M144.7539 337.29297l-1.87109 1.58984"/></g><path fill="none" stroke="#000" stroke-linecap="round" stroke-linejoin="round" stroke-miterlimit="10" stroke-width=".5" d="M160.07813 336.03125l-5.52735-4.33594m5.52734 4.33594l-.42968 2.41406m13.4414-2.07031l-4.91797-5.02344m4.91797 5.02344l-.74218 2.33594m.02734-3.0664l-.3711 1.16796m15.27735-1.83984l-6.67188-2.21875m6.67188 2.21875l.40625 2.41796m-1.3789-2.74218l.20702 1.21094m13.7461-.16797l-6.0039-3.65625m6.0039 3.65625l-.14453 2.44921m-.73047-2.98046l-.07031 1.22265m14.47656-1.10937l-6.4375-2.82031m6.4375 2.8203l.1875 2.44532m-1.1211-2.85547l.1836 2.44531m-1.1211-2.85546l.1875 2.4453m14.85938-1.33984l-6.15625-3.39062m6.15625 3.39062l-.03516 2.45313m-.85937-2.94531l-.03906 2.45312m-.85938-2.94922l-.01562 1.22656m14.92187.08594l-5.75-4.03906m5.75 4.03906l-.30469 2.4336m-.53515-3.02344l-.30078 2.4375m-.53516-3.02344l-.14844 1.21875m15.41797-.51562l-6.3125-3.09375m6.3125 3.09375l.08203 2.44921m-1-2.90234l.08203 2.45313m-1-2.90235l.03907 1.22656M267 335.39063l-6.32813-3.05468M267 335.39063l.09375 2.45312m-1.01563-2.89844l.09375 2.45313m-1.01562-2.89453l.05078 1.22265m15.125-.36719l-6.35937-2.99218m6.35937 2.99219l.11719 2.44921m-1.04297-2.88671l.11719 2.45312m14.16797-2.11719l-6.44922-2.78906m6.44922 2.78906l.1953 2.44531m-1.1328-2.85156l.09765 1.22266m14.4414-2.28516l-7.02343.14844m7.02344-.14844l1.19922 2.14453m-2.22266-2.12109l.60156 1.07031m13.69532-.48047l-6.94141-1.08203m6.9414 1.08203l.8047 2.32032m-1.8125-2.47657l.40234 1.16016m13.96094-1.70703l-7.01954.32812m7.01954-.32812l1.25 2.10937m-2.27344-2.0625l.625 1.0547m13.61719-1.76173l-6.83204 1.64453m6.83204-1.64453l1.6289 1.83985m11.71875-1.69141l-6.89453 1.35156m6.89453-1.35156l1.54688 1.90625m11.83203-1.39063l-7.01953.32032m7.01953-.32031l1.25 2.10937m-2.27344-2.0625l.625 1.05469m13.51953-2.10547l-6.63281 2.32812m6.63281-2.32812l1.80078 1.66406m10.98828-2.63672L394.19531 336m5.58203-4.27344l2.23047 1.01953m11.3711-.58203l-6.15235 3.39453m6.15235-3.39453l2.05468 1.34375m-2.94921-.84765l1.02734.66796m13.3086-.91015l-6.40626 2.89062m6.40625-2.89062l1.9414 1.5039m-2.875-1.08203l1.94142 1.5M440.16796 332.5l-6.47266 2.72656m6.47266-2.72656l1.90234 1.54688m-2.84375-1.15235l1.90235 1.55078m12.51171-1.4961l-6.78515 1.82813m6.78515-1.82812l1.67579 1.78906m-2.66407-1.52344l1.67579 1.78907m12.4375-2.58204l-6.41016 2.88282"/><g clip-path="url(#av)"><path fill="none" stroke="#000" stroke-linecap="round" stroke-linejoin="round" stroke-miterlimit="10" stroke-width=".5" d="M466.76563 332.42188l1.9414 1.5039"/></g><g clip-path="url(#aw)"><path fill="none" stroke="#000" stroke-linecap="round" stroke-linejoin="round" stroke-miterlimit="10" stroke-width=".5" d="M465.83203 332.83984l1.9414 1.50391"/></g><g clip-path="url(#ax)"><path fill="none" stroke="#000" stroke-linecap="round" stroke-linejoin="round" stroke-miterlimit="10" stroke-width=".5" d="M142.73047 323.82422l2.53906-6.55078"/></g><path fill="none" stroke="#000" stroke-linecap="round" stroke-linejoin="round" stroke-miterlimit="10" stroke-width=".5" d="M160.14453 322.6289l-5.66016-4.16406m5.66016 4.16407l-.35547 2.42968m14.08985-3.17187l-6.4961-2.67578m6.4961 2.67578l.23828 2.4414m-1.1836-2.83203l.1211 1.22266m13.85156-.28125l-5.92578-3.77734m5.92578 3.77734l-.1914 2.44531m-.66798-2.9961l-.1953 2.44532m14.55077-2.21094l-6.28515-3.14453m6.28515 3.14453l.0625 2.44922m-.97656-2.91015l.0625 2.45312m14.375-2.5039l-6.69922-2.1211m6.69922 2.1211l.4414 2.41406m-1.41796-2.72266l.44531 2.41406m-1.41797-2.72265l.22266 1.20703m15.08203-.73047L220.5 319.625m6.78125 1.84375l.54297 2.39453m-1.53125-2.66015l.54297 2.39062m-1.52735-2.66016l.26953 1.19532m14.81641-.10938l-6.3789-2.94531m6.3789 2.94531l.14063 2.44922m-1.06641-2.875l.13672 2.44922m-1.0664-2.8789l.0703 1.22265m15.02735-.21875l-6.23438-3.23828m6.23438 3.23828l.02734 2.45312m-.9336-2.92578l.02345 2.45313m14.32422-2.25l-6.48438-2.69922m6.48438 2.69922l.23046 2.4414m-1.17187-2.83593l.23047 2.4453m14.0664-2.14843l-6.5664-2.5039m6.5664 2.5039l.3047 2.4336m-1.26173-2.80079l.15235 1.21875m14.2539-1.28125l-6.83203-1.64843m6.83203 1.64843l.60938 2.375m-1.60547-2.61328l.3086 1.1875m14.0664-1.28515l-6.96094-.97266m6.96094.97266l.83984 2.30468m-1.85547-2.4453l.42188 1.15233m13.89844-.9453l-6.94141-1.10938m6.9414 1.10937l.79297 2.32031m-1.80468-2.48046l.39843 1.16015m13.84375-2.48828l-6.77343 1.8711m6.77343-1.8711l1.6875 1.78125m11.2422-2.67578l-6 3.65625m6-3.65625l2.10937 1.2539m11.45312-.76952l-6.4961 2.6875m5.55079-2.29688l.94531.78125m13.39063-.97266l-6.64453 2.28907m5.67578-1.95704l.89843.83594m13.54297-.5l-6.96093.95703m6.96093-.95703l1.4375 1.98828m11.02735-3.83593l-5.26172 4.65234m4.4961-3.97656l1.14843.42969m12.92187-1.1172l-5.24218 4.67579m5.24218-4.67578l2.3047.84765m11.59765.0586l-6.41797 2.86328m6.41797-2.86328l1.9375 1.50781m11.54297.90234l-6.7461-1.95703m6.7461 1.95703l.5039 2.39844m12.78516-4.4414l-6.69531 2.1289m6.69531-2.1289l1.7539 1.71484m-2.72656-1.40625l1.75391 1.71484m12.20312-2.76172l-6.03125 3.60547"/><g clip-path="url(#ay)"><path fill="none" stroke="#000" stroke-linecap="round" stroke-linejoin="round" stroke-miterlimit="10" stroke-width=".5" d="M466.57813 318.7461l2.09765 1.26562"/></g><g clip-path="url(#az)"><path fill="none" stroke="#000" stroke-linecap="round" stroke-linejoin="round" stroke-miterlimit="10" stroke-width=".5" d="M465.69922 319.26953l2.10156 1.26563"/></g><path fill="#ff3030" fill-rule="evenodd" d="M162.57813 467.64844h7.6914V457.5039h-7.6914v10.14453"/><path fill="azure" fill-rule="evenodd" d="M164.41016 459.33594h.83203v5.73828h3.19531v.74219h-4.02734v-6.48047"/><path fill="#ff3030" fill-rule="evenodd" d="M442.1914 463.21094h7.69532V453.0625h-7.69531v10.14844"/><path fill="azure" fill-rule="evenodd" d="M444.02734 454.89844h.83204v5.73828h3.1953v.74219h-4.02734v-6.48047"/><path fill="#ff3030" fill-rule="evenodd" d="M331.23438 441.01953h7.6914V430.8711h-7.6914v10.14844"/><path fill="azure" fill-rule="evenodd" d="M333.0664 432.70703h.83594v5.73828h3.19141v.73828h-4.02734v-6.47656"/><path fill="#00f" fill-rule="evenodd" d="M388.23828 436.57813h8.61719v-10.14454h-8.61719v10.14454"/><path fill="azure" fill-rule="evenodd" d="M390.07031 428.26563h.83594v2.82421h3.28516v-2.82421h.83203v6.48046h-.83203v-2.91406h-3.28516v2.91406h-.83594v-6.48046"/><path fill="#ff3030" fill-rule="evenodd" d="M442.1914 414.38672h7.69532v-10.14453h-7.69531v10.14453"/><path fill="azure" fill-rule="evenodd" d="M444.02734 406.07422h.83204v5.74219h3.1953v.73828h-4.02734v-6.48047"/><path fill="#00f" fill-rule="evenodd" d="M206.26563 401.07422h8.61718v-10.14844h-8.61719v10.14844"/><path fill="azure" fill-rule="evenodd" d="M208.09766 392.76172h.83593v2.82031h3.28516v-2.82031h.83203v6.47656h-.83203v-2.91406h-3.28516v2.91406h-.83593v-6.47656"/><path fill="#ff3030" fill-rule="evenodd" d="M206.96094 365.5664h7.6914v-10.14452h-7.6914v10.14453"/><path fill="azure" fill-rule="evenodd" d="M208.79297 357.2539h.83203v5.73829h3.19531v.74219h-4.02734v-6.48047"/><path fill="#ffffe0" fill-rule="evenodd" d="M331.26563 365.79688h22.17968v-10.19141h-22.17969v10.1914"/><path fill-rule="evenodd" d="M334.76563 357.4375h.5078v6.29688h-.78515v-4.4922h-1.39062v-.55468l.5625-.0664.25-.05079.23046-.08984.20313-.14063.17578-.21093.14063-.29688.10546-.39453m4.8125 0l.23047.01953.21875.05469.20704.08984.19921.1211.1836.14843.17187.17579.30078.42187.2422.49219.17968.54687.11328.57813.03906.59375-.03906.58984-.11328.58594-.17969.55469-.24219.5-.30078.42968-.17187.1797-.1836.15233-.19921.125-.20704.08985-.21875.0586-.23046.01952-.22657-.01953-.21875-.0586-.21094-.08983-.1953-.125-.1836-.15235-.17188-.17969-.30078-.42968-.2461-.5-.17968-.5547-.10937-.58593-.03907-.58984h.83204l.03125.5625.08203.5039.125.44532.16406.375.1875.29687.21094.22266.22265.13672.22656.04687.22657-.04687.22265-.13672.21094-.22266.1914-.29687.16407-.375.125-.44532.08203-.5039.02735-.5625-.02735-.5625-.08203-.5-.125-.4375-.16406-.36328-.1914-.29297-.21095-.21485-.22265-.1328-.22656-.04298-.22657.04297-.22265.13281-.21094.21485-.1875.29297-.16406.36328-.125.4375-.08204.5-.03125.5625h-.83203l.03907-.59375.10937-.57813.17969-.54687.2461-.49219.30077-.42188.17188-.17578.1836-.14843.1953-.1211.21094-.08984.21875-.05469.22656-.01953m5.09375 0h.50782v6.29688h-.78516v-4.4922h-1.39062v-.55468l.55859-.0664.2539-.05079.23048-.08984.20312-.14063.17188-.21093.14453-.29688.10546-.39453m2.82422 2.17578h.78516l.01953-.3164.0586-.28516.10156-.2539.13672-.21485.18359-.17188.22266-.1289.26562-.08203.3086-.02735.23828.01953.22265.0625.20313.10157.17969.14062.14843.17188.11328.20703.07032.23437.02734.26563-.02344.26953-.0664.22265-.10938.19141-.15625.17188-.19922.16406-.2461.16406-.6328.39063-.53907.3125-.4375.3164-.34765.32422-.26172.33594-.1914.35156-.125.3711-.07032.39062-.01953.42188h4.21094v-.7422h-3.33204l.08204-.28515.11328-.23437.14844-.20313.1875-.17969.23046-.17187.28125-.17578.71485-.41406.41797-.20704.34375-.23046.28125-.25.21875-.26954.16406-.27734.11328-.28516.0625-.28515.01953-.28125-.04297-.38281-.11719-.34766-.1914-.3086-.25-.26171-.30078-.21094-.34766-.16016-.3789-.09765-.40625-.03516-.4375.03516-.39844.09765-.35156.16406-.3047.23438-.25.30469-.18359.375-.11718.44531-.03907.51953"/><path fill="#ffffe0" fill-rule="evenodd" d="M186.40234 333.15234h22.1797v-10.1914h-22.1797v10.1914"/><path fill-rule="evenodd" d="M189.90234 324.79297h.50782v6.29297h-.78516v-4.48828h-1.39063v-.5547l.5586-.0664.2539-.05469.23047-.08984.20313-.14062.17187-.21094.14453-.29297.10547-.39453m4.8125 0l.23047.01953.21875.05469.20703.08984.19532.1211.18359.14843.17188.17578.30468.41797.24219.4961.17969.54687.10937.57813.03906.58984-.03906.59375-.10937.58594-.17969.55078-.24219.5039-.30469.4297-.17187.17968-.1836.15234-.1953.1211-.20704.09375-.21875.05469-.23047.01953-.23047-.01954-.21875-.05468-.20703-.09375-.1953-.1211-.1875-.15234-.16798-.17969-.30469-.42969-.24218-.5039-.17969-.55078-.10938-.58594-.03906-.59375h.83203l.02735.5625.08203.50781.1289.4414.16016.375.1914.30079.21095.22266.22265.13671.22656.04688.22657-.04688.22265-.13671.21094-.22266.1914-.30078.16016-.375.1289-.4414.07813-.50782.03125-.5625-.03125-.5586-.07812-.5039-.1289-.4336-.16016-.36718-.19141-.29297-.21094-.21094-.22265-.13281-.22657-.04688-.22656.04688-.22266.13281-.21093.21094-.1914.29297-.16017.36719-.1289.43359-.08203.5039-.02735.5586h-.83203l.03906-.58984.10938-.57813.17969-.54687.24219-.4961.30468-.41797.16797-.17578.1875-.14844.19531-.12109.20703-.08984.21875-.05469.23047-.01953m5.08985 0h.51172v6.29297h-.78907v-4.48828h-1.38672v-.5547l.5586-.0664.2539-.05469.22657-.08984.20312-.14062.17578-.21094.14063-.29297.10547-.39453m2.82422 2.17578h.78906l.01953-.3164.0586-.28907.09765-.25.14063-.21484.17968-.17578.22656-.12891.26172-.07813.3086-.03125.23828.02344.22266.0625.20703.10156.17968.13672.14844.17579.11328.20312.07031.23828.02344.26563-.01953.26562-.0664.22656-.10938.19141-.15625.17188-.19922.16015-.25.16797-.63281.38672-.53516.3164-.4375.31641-.34765.32422-.26563.33594-.1875.35156-.125.36719-.07031.39453-.01953.41797h4.21094v-.73828h-3.33204l.08203-.28516.11329-.23828.14843-.19922.1875-.17969.23047-.17187.27735-.17578.71875-.41797.41406-.20313.34766-.23437.28125-.25.21875-.26563.16406-.27734.10937-.28516.0664-.28515.01954-.28125-.04297-.38282-.1211-.34765-.1875-.3086-.25-.26171-.30468-.21485-.34375-.15625-.38281-.10156-.40625-.03125-.4336.03125-.39843.09765-.35547.16797-.30469.23438-.2461.30469-.1875.375-.11718.4453-.03906.51954"/></g></defs><use xlink:href="#aA"/></svg>