<svg xmlns="http://www.w3.org/2000/svg" role="img" xmlns:xlink="http://www.w3.org/1999/xlink" viewBox="142.45 309.95 326.84 171.84"><defs><clipPath id="a"><path d="M144 441h1v39.32813h-1zm0 0"/></clipPath><clipPath id="b"><path d="M144 311.67188h1V321h-1zm0 0"/></clipPath><clipPath id="c"><path d="M144 311.67188h324v168.65625H144zm0 0"/></clipPath><clipPath id="d"><path d="M144 311.67188h8V321h-8zm0 0"/></clipPath><clipPath id="e"><path d="M380 454h23v26.32813h-23zm0 0"/></clipPath><clipPath id="f"><path d="M385 476h11v4.32813h-11zm0 0"/></clipPath><clipPath id="g"><path d="M388 479h6v1.32813h-6zm0 0"/></clipPath><clipPath id="h"><path d="M467 311.67188h1v168.65625h-1zm0 0"/></clipPath><clipPath id="i"><path d="M144 479h4v1.32813h-4zm0 0"/></clipPath><clipPath id="j"><path d="M147 479h2v1.32813h-2zm0 0"/></clipPath><clipPath id="k"><path d="M153 480h9v.32813h-9zm0 0"/></clipPath><clipPath id="l"><path d="M160 480h3v.32813h-3zm0 0"/></clipPath><clipPath id="m"><path d="M166 479h9v1.32813h-9zm0 0"/></clipPath><clipPath id="n"><path d="M173 480h3v.32813h-3zm0 0"/></clipPath><clipPath id="o"><path d="M180 479h8v1.32813h-8zm0 0"/></clipPath><clipPath id="p"><path d="M187 480h2v.32813h-2zm0 0"/></clipPath><clipPath id="q"><path d="M186 480h2v.32813h-2zm0 0"/></clipPath><clipPath id="r"><path d="M193 479h9v1.32813h-9zm0 0"/></clipPath><clipPath id="s"><path d="M200 480h2v.32813h-2zm0 0"/></clipPath><clipPath id="t"><path d="M199 480h2v.32813h-2zm0 0"/></clipPath><clipPath id="u"><path d="M206 479h9v1.32813h-9zm0 0"/></clipPath><clipPath id="v"><path d="M213 480h3v.32813h-3zm0 0"/></clipPath><clipPath id="w"><path d="M212 480h2v.32813h-2zm0 0"/></clipPath><clipPath id="x"><path d="M220 479h8v1.32813h-8zm0 0"/></clipPath><clipPath id="y"><path d="M227 480h2v.32813h-2zm0 0"/></clipPath><clipPath id="z"><path d="M233 479h8v1.32813h-8zm0 0"/></clipPath><clipPath id="A"><path d="M240 480h2v.32813h-2zm0 0"/></clipPath><clipPath id="B"><path d="M246 479h9v1.32813h-9zm0 0"/></clipPath><clipPath id="C"><path d="M253 480h3v.32813h-3zm0 0"/></clipPath><clipPath id="D"><path d="M260 479h8v1.32813h-8zm0 0"/></clipPath><clipPath id="E"><path d="M267 479h3v1.32813h-3zm0 0"/></clipPath><clipPath id="F"><path d="M273 479h8v1.32813h-8zm0 0"/></clipPath><clipPath id="G"><path d="M280 479h3v1.32813h-3zm0 0"/></clipPath><clipPath id="H"><path d="M286 479h9v1.32813h-9zm0 0"/></clipPath><clipPath id="I"><path d="M293 479h3v1.32813h-3zm0 0"/></clipPath><clipPath id="J"><path d="M300 479h8v1.32813h-8zm0 0"/></clipPath><clipPath id="K"><path d="M306 479h3v1.32813h-3zm0 0"/></clipPath><clipPath id="L"><path d="M313 478h8v2.32813h-8zm0 0"/></clipPath><clipPath id="M"><path d="M319 479h2v1.32813h-2zm0 0"/></clipPath><clipPath id="N"><path d="M327 478h7v2.32813h-7zm0 0"/></clipPath><clipPath id="O"><path d="M340 477h7v3.32813h-7zm0 0"/></clipPath><clipPath id="P"><path d="M355 476h4v4.32813h-4zm0 0"/></clipPath><clipPath id="Q"><path d="M369 476h3v4.32813h-3zm0 0"/></clipPath><clipPath id="R"><path d="M381 477h6v3.32813h-6zm0 0"/></clipPath><clipPath id="S"><path d="M393 478h8v2.32813h-8zm0 0"/></clipPath><clipPath id="T"><path d="M407 477h7v3.32813h-7zm0 0"/></clipPath><clipPath id="U"><path d="M420 477h7v3.32813h-7zm0 0"/></clipPath><clipPath id="V"><path d="M434 477h5v3.32813h-5zm0 0"/></clipPath><clipPath id="W"><path d="M448 476h4v4.32813h-4zm0 0"/></clipPath><clipPath id="X"><path d="M463 476h1v4.32813h-1zm0 0"/></clipPath><clipPath id="Y"><path d="M144 466h4v2h-4zm0 0"/></clipPath><clipPath id="Z"><path d="M144 452h4v3h-4zm0 0"/></clipPath><clipPath id="aa"><path d="M144 439h4v3h-4zm0 0"/></clipPath><clipPath id="ab"><path d="M144 425h4v4h-4zm0 0"/></clipPath><clipPath id="ac"><path d="M465 423h3v2h-3zm0 0"/></clipPath><clipPath id="ad"><path d="M144 412h4v4h-4zm0 0"/></clipPath><clipPath id="ae"><path d="M144 399h4v3h-4zm0 0"/></clipPath><clipPath id="af"><path d="M465 397h3v3h-3zm0 0"/></clipPath><clipPath id="ag"><path d="M144 383h1v8h-1zm0 0"/></clipPath><clipPath id="ah"><path d="M466 384h2v3h-2zm0 0"/></clipPath><clipPath id="ai"><path d="M144 372h4v4h-4zm0 0"/></clipPath><clipPath id="aj"><path d="M144 358h4v5h-4zm0 0"/></clipPath><clipPath id="ak"><path d="M465 357h3v3h-3zm0 0"/></clipPath><clipPath id="al"><path d="M144 345h4v5h-4zm0 0"/></clipPath><clipPath id="am"><path d="M466 345h2v3h-2zm0 0"/></clipPath><clipPath id="an"><path d="M144 331h4v6h-4zm0 0"/></clipPath><clipPath id="ao"><path d="M466 332h2v3h-2zm0 0"/></clipPath><clipPath id="ap"><path d="M144 317h3v7h-3zm0 0"/></clipPath><clipPath id="aq"><path d="M466 318h2v2h-2zm0 0"/></clipPath><g id="ar" clip-path="url(#clip1)"><path fill="#fff" fill-opacity="0" fill-rule="evenodd" d="M0 0h1000v1000H0zm0 0"/><path fill="#d3d3d3" fill-opacity="0" fill-rule="evenodd" d="M162.15234 355.86719l-.23437.29297.0586.23437.11718.17188.17578.23437.29297.34766.11328.0586.11719-.17188.0586-.23438.17577-.17578.46485-.17578h.69922l.23437.29297.28906.8164.0586.17579.17578.23046.35156.23438.69922.69922.17188.17578.23437.34765.23438.41016.28906.58203.41015.46485.23047.23437.23438.17578.11719.23047.17578.29297.17187 1.16406v.23438l.0586.28906.05859.11719.11719.11719.34765.41015.11719.17188.17578.17578.17578.23437.11719.17188.17188.35156.05859.23438.23437.40625.23438-.0586-.17578.17578-.0586.92969h-.58203l-.23437-.11328-.34766.11328-.11719.11719-.05859.29297-.0586.17578-.11718.17187-.46484.29297-.0586.23438-.0586.11328v.64453l.0586.17187v.41016l.0586.0586v.40624l.05859.40625.11719.17579.05859.05859.23047.64062-.0586.29297v.69922l-.05859.58203v.23438l-.0586.23047-.05468.35156v1.92187l.05469.1172h.42578l-.36719.11718-.02344.35156.89063 1.16797 1.74219.53906 1.33984.35938v.53906l.08984.8086.53516.71484 1.51953.26953.89063-.08594.08984 1.16406.53516.1797 1.16015-.1797 2.05469-.98437 1.16016-.36328 1.8789-.17578 1.69531-.1797-.17968.71876-1.51563.08594-1.25.08984-.80469.26953-1.07421.8086.26953.71875.53515.89843-.17968.625-.26563.8086.26563 1.07812.625.89844.80468.17969 1.25-.1797-.26562.72267.09766.5039.05468.29297v.17188l.0586.29296v.40625l.17578.1172.35156.11718h.40625l.29297-.17578.11328-.11719.0586-.11719.11718-.23047.0586-.17578.35156-.46484.23047-.17578.17578-.0586.17578.0586.0586.17578.11718.98828.05469.46875.0586.17188.11718.23437.17578.0586.8164.05859h.28907l.11719.23437.05859.40625.0586.35156v1.10547l.11718.29297.11719.34766.28906.69922.17578.35156.58203.7539.35157.17579.17187.0586.46875.23437.64063.46484.34765.23438.29297.17578.29297.05468.23047.0625.8164.34766.29297.17578.11328.17188.35157.35156.11719.17578.52343.64063v.28906l.0586.35156v.34766l.05859.35156.0586.28906.11718.0586.17188.05859h.17578l.58203.23437.17578.1172.17578.28905.17578.23438.11328.23437.29297.23047.11719.11719v.41016l.0586.05468.28906.23438.23437.11719.0586.11718.11718.17188.0586.11719.23047.23437.05859.17578.23437.0586.1172.05859-.1172.11328-.05859.11719v.11719l-.11719.29296-.11719.28907v.58203l.17579.11719.11718.05859.0586.11719.11719.11719.11328.05859.17578.34765.0586.35157.05858.40625v.17578l-.05859.17578-.11719.69922v.17187l.1172.17579.29296.29296h.40625l.17578.1172.11719.17187.11719.29296v.23438h-.52735l-.23047-.23438h-.23437l-.17578.0586-.0586.69922.0586.34765.11719.17579.17578.41015.11718.23047.28907.46875.17578.05469h.52344l.23437.0586.75781.64062.0586.29296v.23438l.05859.0586.23047.34765v.35156l-.11719.17188v.29297l.29297.28906.29297.17578.17187.0586.29297.17577.29297.1172.58203.40624.28906.23438.29297.17578.21875.16015.01563.01172.23047.17579.64062.52343.17578.23438.1172.17578.17577.17578.11328.17188v.64062l.1172.17578.46874.11719.58203.11719.23438.05859.23047.11328.29297.11719.11328.0586.58593.35156.28907.17187.17578.0625.17578.05469.17578.0586.69922.35155.28906.17579.23438.05468.28906.17578.23437.1172.64063.40624.29297.11719.17187.0586.23438.05859.41015.05859.23047.0586.23438.11718.0586.17188-.41017.17578.46875.0586.0586.29296.11328.23438.17578.05468.23438.0586.17578.05859.40625.11719.64062.23437.11719.17188.0586.23437v.17578l-.0586.1172-.0586.40624.23438.23438.11719.05859.34766.11719.64062.23047.17578.11718.28906.1172.17578.17577.23438.46485.58203 1.10546.17578.17579.34766.17578.17578.11719.35156.11718 1.04688.52344.23437.0586.46485.11327.29297.0586.46484.17578.75781.58203.23438.23438.34765.46484.17578.17578.28907.23438.8164.69921.29297.17579.28906.28906.29297.17578.29297.28906.69531.64063.17578.17578.29297.23437.28907.23438.46875.28906.64062.58203.34766.23438.23437.29297.34766.34765.35156.46485.9336.99218.34765.40625.11719.17579.23437.05859.11328.11719.64454.17578.23047.11328.23437.0586.29297.17577.23047.1172.9336.69921.40624.40625.23438.17578.40625.17578.23437.11719.8164.34766.34766.23437.23438.11719.29297.28906.23047.11719.7578.35156.35157.17188.23047.05859.29297.11719.23437.0586.8711.17577h.8164l.46875.23047.17188.0586.875.69921.46484.1172.29297.05858.17578.0586.23047.0586.46875.05859.34766.05859.35156.0586.40625.05859h.29297l.17187.0586v.23046l.17578.17578h.29297l.34766.0586.35156.05859.69922.11719h.64063l.46484-.23438.29297-.17578.17187-.11719.41016-.17187.28906-.17578.9336-.46485.46875-.29297.52343-.29296.46485-.17188.46484-.17578 1.05078-.46485.28906-.11718.41016-.11719.28906-.11719.52735-.17578 1.51562-.69922.58203-.34765.28907-.0586.29297-.0586.34765-.11718.875-.23047.35156-.11719h.11329l.23437-.05859.875-.23437.23438-.0586h.8125l.35156-.0586.8164-.11718.17188-.0586.35156-.05468.29297-.0586.23047-.05859.8164-.17578.17579-.0586h.34765l.23438-.05859.46484-.11718.75781-.17188.23438-.0586h.34765l.41016-.11718.28906-.0586 1.28516-.05859h.28906l.41016-.0586.23047-.05858h.17578l.875-.1172h.40625l.41015-.11718h.34766l.35156-.11328.8711-.0586h1.75l1.04687.28907.41016.11719.28906.11718.35156.11719.28907.11719 1.05078.17187.28906.0586h.29297l.29297.05859.17187.0586.41016.05859.17187.0586.1172.05858h.11718l.11719.0586.35156.0586h.11328l.41016.0664 1.92187.39453 1.92578.39453 1.51953.44922 1.69532.71875 2.14453.80469 1.60547-.71875 1.42968-.80469 1.16016-1.07813 1.25-.44921 3.03516-.71875 1.875-.35938 2.14453-1.34765 2.23437-1.25391 2.5-1.25781 1.69531-.44922 1.78516-.17969 1.16016-.26953.625.53906 1.33984-.26953.71485-.98828.98437-1.34375.44531-.17969.80469-.35937 1.875-.53907 1.78516-.44921 1.25-.26954 1.16015-.08984 1.69922-.08984 1.96094-.26954 1.25-.08984h.53906l.625-.08984h.89063l2.14453-.17969 2.41015-.17969 2.58985-.08984 1.69531.17969 1.60938.08984 1.42968.35938 1.16016.71875 1.875.98828 1.16015 1.52734.26563.71484.6289.08985.35548.89844.53515.53906.53516 1.52734 1.07422.35938h.53515l-.80469.53515.08985 1.70703.71484 2.69532.89063.80468.89453.98829.71484 1.2578 1.78516.53907 1.51953-.17969.35547 1.34375 1.60937-.80469.98047-.53906.26953.26953.31641-.21484.21875-.14453.80078.44922.44922-.35938h.35547l.53515-.26953.53907-.71875.53515-.26953.625-.98828 1.16016.44922.83984.3711 1.39454.61718 1.6953-.17969h1.60548l1.78515.08985.17969-1.70704.53516-1.34375.80468.26954.4922.84765.40233.40625-.08984.53906v.35938l.71485.44922.71093-.26953h1.42969l.35938.98828.4453 1.25781.71485 1.34375 1.25.6289 1.69531.62891.71485-.17969.17969-.53906.98046-.08984.44922.35937.08594 1.25782-.26563.6289-.53515.17969v.53906l.71484.98438.26563.53906.98437.98828.80078 1.07813-.26562.35937-.08985.89844-.625 2.33203-.35546 2.0664-.08985 1.79298-.17969.71875-.08984.53906v1.4375l-.98047 1.88281-.35937 1.70703-.53516.89844-.80469 1.16797-.26562.53906 2.05469 1.2539.08593.35938-.35546.53906-.08985-.17968v.80859l.08985 1.4375-.44532.71484-1.07422.09375-.26562.71485.53515.89844.8047.71875 1.16015.80859 1.33984.26953.44531.35938-.35546.44921-1.78907-.08984-1.25-.44922-.71484-.71875-.625-.08984-.17578 3.58984-.1875 1.3086h89.35937V311.70313h-55.26953v49.08203l.76172.125 3.28906.54296 2.02344 2.83594v2.7539l2.35156.33204 2.34766.33203h4.05078l-1.3789 4.16016-2.02344.70703-2.02344.70312-.54297.34375-2.59375 1.6172-.1875.11718-2.02344-2.07813-.73046-2.74218-2.67188-2.07813-1.375-3.5-.0664-.08203-1.95704-2.67188 2.75-1.41796v-49.08204H294.42187v91.41407l.1172.03125.1328.01172.07422.07421.10547.04688.08985.0586.08593.05859.08985.0586.29687.29687.0586.08984.03125.11719.02734.11719.01563.13671-.03125.1172-.0586.08983-.0586.08594-.04296.10547-.04688.10156-.02734.1211v.14453l.17578.26953.14844.14844.07422.08594.07422.07421.04296.10547.0625.08985.0586.08593.04297.10547.0586.08985.04687.10156.04296.10547.0586.08594.11719.17968.07421.07422.0625.08594.0586.08984.04297.10547.0586.08985.05858.08593.0625.08985.0586.08984.04297.10156.11719.17969.07421.07422.0586.08594.07422.07421.08984.0586.10547.04687h.14844l.1328-.01562.13282.01562.10156-.04687.07422-.07422.04688-.10156-.01563-.13281v-.14844l-.04687-.10547-.02735-.11719-.04687-.10156-.02735-.1211-.04296-.10156-.0625-.08984-.04297-.10156-.04297-.10547-.03125-.11719-.01563-.13281-.01171-.13672.08593-.0586.0586-.08593.12109-.03125.04297.10547.01562.1328v.1172l.0586.10156.0586.08984.08983.0586.14844.14843.0586.08985.04296.10547-.01171.10156.08593.0586.10547.04687.08594.0586.08984.05858.07422.07422-.11719.02735-.10546.04687-.08594.0586-.07422.07421-.0586.08985-.0625.08594-.02734.12109-.04687.10156-.04297.10547-.03125.11719-.01172.13281-.01563.13281v.14844l.02735.11719.04687.10547.04297.10156.0586.08984.07421.07422.08985.0586.07422.07421.08984.0586.0586.08984.04296.10547.04688.10156.11719.03125.1328.01563h.14845l.11718-.03125.10547.04297.04297.10547.04688.10156.02734.1211L299.5 410l.02734.11719.03125.1211.02735.11718.10547.04297.10156.04687.13281-.01562.14844.14844.0625.08593.07422.07422.07031.07422.08984.0625.10547.04297.10156.04297.1172.03125.13671.01562.11719-.03125.07422-.07422.02734-.11718-.01172-.13282-.03125-.12109-.02734-.11719.04297-.10547h.11719l.08984.0625.11719.02735h.14843l.13282.01562h.14843l.13282.01563.1328-.01563h.14845l.1328-.01562.13282-.01172.13672.01172.11719-.02735.13281-.01562.1914-.0586-.05859.17579-.01562.1328-.02735.1211-.01562.13281-.0586.08594-.1328.01563-.10548.04687-.10546.04297-.1172.03125-.11718.02735-.26563.03125h-.14843l-.13281.01562-.07422.07422.05859.08594.14844.14843.11719.1797.07421.0703.08985.0625.08984.0586.08594.0586.08984.05858.10156.04297.10547.0625.10547.04297.08594.0586.10547.04687.10156.04297.17969.11719.0586.08984-.04298.10156-.04687.10547.01562.13281.22266.22266.0586.08985.04296.10156.03125.1211.04297.10155.01563.13282.03125.11718.01171.13672.03125.11719.14844.14844.10156.04297.10547.04296.1172.03125.1328.01563.13672.01563h.11719l.11719-.03125.08984-.0586.04297-.10547.04688-.10156.04296-.10547.03125-.11719.01172-.1328v-.14845l-.01172-.1328-.01562-.13282-.03125-.11719-.04297-.10547-.04688-.10547-.04296-.10156-.04297-.10547-.01563-.13281.01563-.13281.02734-.11719.03125-.11719.02735-.1211.04687-.10155.08984-.0586.08594-.0625.07422-.07422.08984-.05859.22266-.22266.0586-.08593.07421-.07422.11719-.17969.0586-.08594v-.14844l-.07423-.07421-.10156-.04688-.10547-.04297-.10156-.04297-.0586-.08984-.04687-.10547-.02734-.11719.08984-.05859.11719-.03125.10156-.04297.17969-.11719.14844-.14843.01172-.13282-.01172-.10546-.08985-.0586-.1328.01563h-.14845l-.1328.01562-.13282-.01562-.1211-.03125-.08593-.0586-.07422-.07422-.0586-.08984-.0625-.08594-.11718-.17969-.0586-.08593.03125-.1211.08594-.05859.1211-.03125.05859-.08594v-.1211l-.03125-.11718-.0586-.08984-.05859-.08594-.04687-.10547-.02735-.11719-.01562-.1328.0586-.08985.07421-.07422.08984-.0586.1172-.17968.07421-.07422.0586-.08594.14843-.14844.1211-.03125.1328-.01562.13282.01562.07422.07422.04297.10547.01562.13281-.03125.1172-.11719.03124-.1328.01172-.14844.14844-.04297.10547-.04688.10156-.02734.1211-.03125.11718v.14844l.03125.11719.04297.10546.05859.08985.07422.07031.07422.07422.11719.03125.12109.02734.11719-.02734.1328-.01563h.1172l.08984.0586.07422.07422.04687.10546.0586.08594.10156.04688.13281.01562.10547.04297.08594.0586-.01172.10546-.07422.07422-.17969.11719-.05859.08984-.08984.0586-.07032.07422-.07421.07421-.0625.08985-.02735.11719-.01562.1328.01562.13282-.01562.13281v.14844l.01562.13281.02735.1172.03125.12108.07421.07422.08985.0586.08594.0586.08984.05858.11719.03125v.08594l-.10157.04688-.08984.0586-.26563.03124-.11718.02735h-.14844l-.10547.04296-.10156.04688-.0586.08984-.0625.23438-.01171.13281-.03125.1211-.01563.1328v.29298l-.01172.1328.01172.13673.01563.1328.1328.01563.13282.01172.1211.03125.08593.0586.07422.07421.04688.10547.04296.10157.01563.1328v.44532l-.01563.13281v.44532l.03125.26562.02735.11719.01562.13281.03125.11719.08594.21094.03125.26562v.14844l-.03125.11719-.02734.11718-.03125.1211-.02735.11719-.03125.11718-.03125.1211-.01171.1328-.01563.13282.08984.0586.1172-.03125.10155.01562.04688.10547-.03125.26562v.44141l-.04297.10547-.04688.10547-.04296.10156-.04297.10547-.0586.08594-.03125.12109-.04296.11719-.03125.11719-.01563.1328.01563.13282.05859.08984.10547.04688.08594.0586.05859.08593-.01172.13672-.03125.11719-.04297.10156v.44531l-.01562.13281v.14844l-.03125.11719-.04297.10547-.02735.11719-.04687.10546-.04297.10157-.03125.12109-.02734.11719-.03125.13281-.03125.11719-.02735.11719-.04297.10546-.03125.1172-.03125.12108-.01171.13282-.01563.13281v.29688l.02734.11718v.14844l.04688.39844.02734.11719.0586.08984.12109.03125h.14844l.13281-.01563.0586.08985v.11719l-.0586.08984-.08984.0586-.10157.04296-.10546.04688-.08985.05859-.08594.0586-.13671.01562-.1172-.03125-.1328-.01563-.10157.04688-.0625.08594-.01172.13671-.01562.13282-.03125.11719-.02735.11718-.01562.13281-.03125.1211v.29687l.01563.13282.03125.11718v.14844l.01171.13281v.14844l-.02734.11719-.04688.10156-.02734.1211-.03125.11718-.0586.08985-.07421.07421-.10156.04297-.10547.04688-.11719.02734-.1211.03125-.10156-.04687.0586-.08594.10547-.04688.02734-.11718.03125-.11719.02734-.1211.03125-.11718v-.14844l.01563-.13281-.03125-.11719-.04297-.10547-.10547.01563-.07422.07422-.10156.04296-.08984.0625-.07422.07422-.04297.10157-.01563.1328-.03125.1172L304.25 426l-.03125.11719-.02734.11719-.03125.12109-.02735.11719-.03125.11718-.04297.10547-.08984.0586h-.08984l-.1172-.03125-.03124-.08594.01562-.13672-.03125-.11719v-.14844l-.01171-.1328v-.14844l-.0625-.23438-.02735-.1211-.04297-.10156-.04687-.10546-.0586-.08594-.05859-.08985-.04297-.10546-.0625-.08594-.14844-.14844-.0703-.07422-.10548-.04687-.10547-.04297-.10156-.04297-.29687-.29688-.08985-.07421-.08594-.0586-.10546-.04297-.08985-.0625-.08594-.0586-.10546-.04296-.08985-.0586-.08594-.0625-.07421-.0703-.10547-.04688-.08594-.0586-.10547-.04296-.08984-.0625-.10156-.04297-.10547-.04297-.08594-.0586-.10547-.04687-.10547-.04297-.10156-.04687-.08985-.0586-.10156-.04297-.10547-.04296-.08984-.0625-.11719-.02735-.13281-.01562-.13281.01562H299.75l-.13281.01563-.11719-.03125-.08984-.0586-.07422-.07422-.08985-.05859-.10156-.04688h-.14844l-.12109-.02734-.10156-.04297-.07422-.07422-.11719-.17968-.08984-.0586-.10156-.04297-.08985-.0625-.10547-.04296-.08984-.0586-.08594-.0586-.10547-.04687-.0586-.08594-.05858-.08984-.04297-.10547-.04688-.10156-.07422-.07422-.08594-.0586-.07421-.07421-.08985-.0586-.22265-.22265-.04297-.10547-.03125-.26563.10547-.04296h.14453l.10547.04296.07421.07422.08985.0586.08594.0586.10546.04687.08985.05859.14844.14844.0703.07422.14845.14843.0625.08594.07421.07422.08594.0586.07422.07421.08985.0625.08984.0586.08594.05859.26953.17578.10156.04688.10547.04296.10156.04297.04688-.07421.05859-.08594.07422-.07422.07031-.07422.10547.04297.07422.07422.0586.08984.04296.10156.04688.10547.04296.10547.1211.02735.11719-.02735.07421-.08984.04297-.10547.0586-.08985.07422-.07421.10546-.04297.1172-.02735.1328.01172.08985.0586.14844.14843.05859.08985.04297.10547.04687.10156.04297.10547.04297.10156.10547.04688.10547.04296.13281.01563.08594-.0586.0586-.08984.07421-.07422.10547-.04297.11719.02735.10547.04687.10156.04297.10547.04297.10156.04688.17969.11718v.11719l-.01563.13281.01563.13281.01562.13672.0586.08594.10156.04688.1211.02734.11718.03125h.14844l.11719-.03125.05859-.08984.17969-.1172.05859-.08983.07422-.07422.0586-.08594.11718-.17969.17969-.11719.11719.03125.08984.0586.04297.07422-.01563.1328v.1172l.08985.05859h.14843l.13282-.01563.1328-.01171.26563-.03125.10547-.04297.11719-.03125.1211-.02735.07421-.07421.07031-.07422.0625-.08985-.01562-.10547-.04688-.10156-.10156-.04297-.10547-.01562-.11718.02734-.26563.03125h-.14844l-.07421-.07422-.08985-.0586-.11719-.03124-.11718-.02735-.13282-.01562h-.14843l-.13282.01563h-.29687l-.10547-.04688-.14844-.14844-.04297-.10156-.05859-.08984.22266-.22266.08593-.0586.10547-.04296.11719-.03125.13281-.01563.13281.01563.13672.01562.10157.04297.1328-.01172.08985-.0625.10156-.04297.0625-.08984-.04687-.10156-.08984-.0586-.1172-.03125-.10155-.04296-.0586-.08985-.0625-.08984v-.11719l.01563-.13281.10547-.04688.07421-.07031v-.1211l-.08984-.05859-.03125-.11719.08985-.05859.07421-.07422.04297-.10547.0586-.08984.04687-.10156.01563-.13281v-.14844l-.04688-.10547-.04297-.10156-.08984-.0586-.13281-.01562-.10157-.04297-.13671-.01563-.1172-.03125h-.4453l-.13282-.01562-.13281-.01172-.13281-.01563-.11719-.03125h-.14844l-.13281-.01562-.13281-.01172-.26563-.03125-.1211-.04297-.08593-.0586-.07422-.07421v-.14844l.01172-.13281.10547-.04688.10156-.04296.13281-.01563h.15235l.13281-.01562h.29297l.1211.03125.10156.04296.08984.0586.23438.0625.12109-.04688.08984-.05859.10156-.04297.13282-.01562.10547.04296.10156.04688.13281.01172.1211-.02735h.14453l.12109-.03125.11719-.02734.10547-.04687.07421-.07422.08594-.0586.14844-.14843.0586-.08594.04687-.10547.02734-.11719.01563-.10547-.10156-.04296-.08985-.0586-.11719-.03125-.10546-.04297-.08985-.0625-.07422-.08594-.07422-.07421-.10156-.04297-.10547-.04688-.10156-.04297-.0586-.08984-.04687-.10156-.08594-.21094-.0625-.08594-.05859-.08984-.07422-.07422-.08594-.0586h-.26953l-.11719.03126-.08984.05859-.10156.04297-.13281.01562-.10547-.01562-.02735-.11719-.0625-.08984-.11718-.03125-.10157-.04297-.14843-.14844-.03125-.11719-.01563-.10546.07422-.07422.17969-.1172.11719-.02733.11718-.03125.13672.01562.10156.04297.10547.04297.10156.04687.10547.04297.1172.03125.1328.01563.1172.02734.1328.01563.10547-.01563.08985-.0586-.07422-.07421-.10547-.04297-.07422-.07422-.07422-.08984-.14844-.14844-.08593-.0586-.08985-.05859-.07422-.07422-.08984-.0586-.10156-.04687-.1211-.02734-.10156-.04688-.10547-.04296-.11719-.03125-.10156-.04297-.1211-.03125h-.14843l-.11719.03125-.10546.04297-.08594.0625-.17969.11718-.08594.0586-.08984.0586-.10547.04687-.08594.05859-.10547.04297-.10156.04297-.10547.04687-.07422.07422-.05859.08985-.0586.08593-.04687.10547-.0586.08594-.07421.07422-.13281-.01172-.1172-.03125h-.11718l-.07422.07422-.08984.0586-.07422.07421-.08984.0586-.08594.05859-.10547.04687-.10156.04297-.13672.01563-.10156-.04297-.14844-.14844-.10547-.04688h-.08594l-.10547.04688-.10156.04297-.1211.03125-.11718-.03125-.07422-.07422v-.11719l.03125-.1211.07422-.0703.0586-.08985.07421-.07422.11719-.03125.10547-.04296h.29297l.13281-.01563.13672-.01563.10156-.04296.08985-.0586.10156-.04687.08984-.0586.13281-.01171.08985.05859.13281.01172.08984-.0586.08594-.05859.10547-.04297.08984-.0586.08594-.0625.08985-.05859.14843-.14843.0586-.08594.05859-.08985.10547-.04296.13281-.01563.11719.02735.1211.03125.05859-.0586.05859-.08984.03125-.26563.02734-.11719.10547.01172.13281.01563.10157-.04297.08984-.0586.0586-.08984.07421-.07422.0586-.08984.04687-.10156.01172-.13281-.01172-.13282-.04687-.10547-.14844-.14843-.0586-.08985-.05859-.08594-.04297-.10546v-.44532l.01563-.1328v-.14845l.01172-.1328-.0586-.0586-.08984.0586-.10156-.04298-.17969-.11719-.08594-.05859-.0625-.08984-.0586-.08985-.07421-.07421-.08594-.0586-.1211.03125-.10155.01172-.10547.04688-.08594.05859-.10547.04297-.14844.14844-.08984.05859-.08594.0586-.08984.0625-.10547.04296-.13281.01563v-.1211l.10547-.04297.11718-.03125.07422-.0703.04297-.10548v-.14844l-.02734-.11718-.14844-.14844-.13281-.01563h-.14844l-.11719.03125-.10547.04297-.10156.04297-.08984.0625-.11719.02735-.07422-.07422.01172-.13281-.04297-.10157-.04297-.10547-.08984-.05859-.11719.02734-.1211.03125-.11718.03125-.10156.04297-.1211.03125-.10156.04297-.10547.04297-.08984.0586-.10156.01562v-.11719l.01562-.13281-.0586-.08985-.07421.04297-.14844.14844-.0586.08985-.07421.07421-.04688.10547-.04296.10156-.07422.07422-.0586.08985-.07422.07422-.05859.08593-.07422.07422-.08984.0625-.07422.07031-.07422.07422-.10156.01563-.13281.01562-.10547-.04296v-.1211l.14843-.14844.04297-.10156.0586-.08984.04687-.10156.04297-.10547.0586-.08985.03124-.11719.04297-.10156.03125-.1211.02735-.11718.04687-.10547.04297-.10156.04297-.10547.07422-.07031.08984-.0625.08985-.0586.10156-.04296h.29687l.26563-.03125.10547-.04297-.07422-.07422-.11719-.03125-.10547-.04297-.08984-.0586-.10156-.04687-.08985-.0586-.10156-.04296-.10547-.04297-.08984-.0625-.08594-.0586-.10547-.04296-.10156-.04297-.1211-.03125-.11718-.03125-.10157-.04297L297.5 410.25l-.10156-.04297-.08985-.0586-.04296-.10546-.01563-.13281.10156-.04297.13281-.01563.13672.01563.13282-.01563.10156-.04297.0586-.08984.01562-.10547-.08985-.0586-.07421-.07421-.10157-.04297-.08984-.0586-.14844-.14843-.04297-.10547-.01562-.13281v-.29297l-.0586-.08985-.08984-.05859-.07422-.07422-.04297-.10547-.03125-.11718-.0586-.08985-.07421-.07422-.11719-.02734-.07422-.07422-.08984-.0586-.08984-.0625-.08594-.05859-.07422-.07421-.0586-.08594-.04687-.10547-.08594-.0586-.14843-.14843-.19532-.0586-.1328.01563-.10157.04297-.07422.07422-.04688.10156-.04296.10547-.0586.08984-.0586.08594-.29687.29687-.08984.0586h-.08594l-.0625-.08594-.04297-.10547.03125-.11719.0586-.08984.02734-.11719-.01172-.13281-.08984-.0625-.10547.04688-.11719.02734-.11719.03125-.26953.17578-.10156.04688-.11719.02734-.10546.04687-.08985.0586-.10156.04297-.0586-.08594-.04687-.10547.01563-.13281.04687-.10547.07031-.07422.07422-.07031.0586-.08985v-.14843l-.04297-.10547h-.23829l-.10156.04687-.03125.11719-.02734.11719-.03125.1211-.07422.04296-.13281.01563-.07422-.04688-.04297-.10156-.04297-.10547-.04687-.10156-.04297-.10547-.1211.03125-.10156.04297-.13281.01562-.11719.03125-.10547.04297-.08984.0586-.10156.04687-.1211.02734-.13281.01563-.10156-.04297-.0586-.08985-.04687-.10546-.04297-.10157-.04297-.10546v-.1172l.0586-.08984.08593-.05859.17969-.11719.10156-.04687.10547-.04297.10547-.0586.10156-.04296.08985-.0625.10156-.04297.10547-.0586.10156-.04687.08984-.0586.10547-.04296.10156-.04297.08985-.0625.10156-.04297.13672-.01563.11719.03125.10156.04297.1211.03125.10156.04297.10546.04688.10157.04296.10547.04297.10156.04688.10547.04297.10156.04297.10547.04687.08594.0586.10546.04296.1172.03125.10546.04297.10156.04688.08985.0586.10547.04296.10156.04297.10547.04687.11719.02735.10156.04687.1211.02735h.14843l.08594-.0586.01562-.10156.0586-.08984-.02735-.1172-.07422-.07421-.11719-.17969-.07421-.07422-.08985-.07421-.17969-.1172-.08593-.05859-.10547-.04296-.10156-.04688-.26954-.17578-.05859-.08985-.07422-.07421-.0586-.08985-.04296-.10156-.03125-.11719-.01563-.13672v-.5625l-.01171-.1328-.01563-.13282-.03125-.11719-.01562-.13281-.01172-.13281-.03125-.1211-.22266-.22265-.0586-.08594-.01562-.10547.03125-.11719.13281-.01562v-91.41406H172.9922v1.45312l-.0586.23438-.35156 1.05078-.17187.52343-.1172.34766-.17577.41016-.11719.17187-.23438.29297-.23046.0586h-.35157l-.11718.05859-.23047.40625v.29297l.11719.17578.23046.23047.1172.23437.64062.75781.29297.46485.17578.23437.23047.35156.23437.34766.64063.8164.17578.46485.17187.41016.11719.69531.17578.46875.11719 1.39844.0586.46484v.875l.11718 1.04688v4.78125l-.0586.46484-.35156 1.28125-.17578.52344-.11328.41015-.35156.9297L172.93359 336l-.23437.58203-.11719.17578-.17187.34766-.17578.40625-.35157.8164-.0586.29297-.11327.29297-.11719.28906-.0586.17579-.11718.875-.0586.40625-.05859.11718-.0586.17579-.05859.17187-.23047.52734-.11718.17188v.23437l-.11719.23438-.0586.17187-.17577.58594v.28906l-.0586.17579v.29296l-.0586.11329-.05859.52734v.17187l-.05468.23438v2.6211l-.17578.8164-.1172.17578-.17577.23438-.1172.17187-.11327.23438-.58594.93359-.23047.28906-.29297.46485-.17578.23437-.28906.35156-.35156.69922-.11328.23047-.17579.41016-.17578.23046-.40625.52735-.8164.69922-.29297.17187-.28906.23438-.17579.11719-.17578.17578-.52344.40625-.52734.17578-.17187.17578-.23438.05469-.64062.17578h-.75782m12.21094 31.02344l-1.07422.44921.35938.89454 1.25-.71485.44531-.53906-.98047-.08985"/><path fill="#d3d3d3" fill-opacity="0" fill-rule="evenodd" d="M201.50781 416.59766h-.89453l.44922.6289.98047.35938.80469-.08985.4453-.98828-.17577.08985-.71485-.35547-.89453.35547m154.6211 59.0703l-.0586-.52343v-.29297l.11328-.29297.0586-.23046.46875-.46875h.11328l.11719-.11329.11718-.05859h.17579l.23437-.0586h.34766l.23437.0586.11719.0586.23047.17187.0586.17578.11718.58203v.29297l-.11719.17578-.17187.28906-.17579.17579-.52734.52343-.23047.23438-.11719.0586h-.17578l-.11718-.0586-.40625-.29297-.17579-.11719-.11718-.0586-.0586-.11327-.05468-.1172m6.64062-10.95702l-.0586-.17188v-1.10937l.0586-.17188.17578-.0586.17188-.05858h.17578l.23437-.0586.1172.0586.05858.69921-.05859.17188-.11719.17578-.11718.0586-.23438.52343-.11328.0586h-.23438l-.05859-.1172m9.61328-14.39062l-.11719-.17578v-.69922l.29297-.875.1172-.17187.17577-.35156.11328-.23047.1172-.29297.35155-.75781.1172-.23047.17187-.23438h.17578l.11719-.0586h.64062l.11719.0586.23437.23438.17188.11328.35156.29297.11719.11718.11328.17579v.11328l.11719.05859.11718.11719v.69922l-.05859.17578v.23047l-.0586.17578-.34765 1.05078-.11719.23047-.11719.23437-.11718.0586-.23047.23437-.64063.28906h-.875l-.41015-.11718-.64063-.46485"/><path fill="none" stroke="#bebebe" stroke-linecap="round" stroke-linejoin="round" stroke-miterlimit="10" stroke-width=".5" d="M467.95703 311.69531H144.02734v168.625h323.9297v-168.625"/><g clip-path="url(#a)"><path fill="#fff" fill-opacity="0" fill-rule="evenodd" d="M144 475.89063v4.4375h.0039H144v-39.10157 34.66406"/></g><g clip-path="url(#b)"><path fill="#50fcfc" fill-rule="evenodd" d="M144 320.54688v.16796-9.04296h.0039H144v8.875"/></g><path fill="#50fcfc" fill-rule="evenodd" d="M144 439.49219v1.73437l.0039-.0039v-1.72657l-.0039-.0039"/><path fill="#fff" fill-opacity="0" fill-rule="evenodd" d="M144 320.71484V439.4922l.0039.0039V320.71484H144"/><g clip-path="url(#c)"><path fill="#fff" fill-opacity="0" fill-rule="evenodd" d="M144.0039 480.32813v-39.10547l.88282-.83985-.88281-.88672V320.71484l.55859-.16796 3.875-.58594 3.1836-3.85156-.26563-4.4375h76.97266v87.26171l-2.48047 1.50391-1.95703.10938-4.4375.11718-4.4375 1.14844-3.17579 3.0625-1.26562.84766L206.5 409.3164l-.36328.5078-4.3086 3.9297 1.34766 4.4375-1.47656 1.8164-4.4375-.60937-4.4414.7539-3.03126 2.47657-1.40625.40234-4.4375.96875-3.5 3.07031-.9375.78125-4.4414 2.74219-1.16797.91406-3.26953 2.01172-3.2461 2.42578-1.1914.33203-4.4375.46094-3.8047 3.64453-.6328 1.79297-3.0625 2.64453-.15625 4.4414 3.21875 2.89845 1.74609 1.53906-.92969 4.4375.67969 4.4375 2.9414 2.61328 4.4375-.16016 4.4375-1.54687 4.4375-.22266 1.33594-.6836 3.10547-1.65233 4.4375-.07422 4.4375-.38672 4.4375-.14453 4.4414-.5 4.4375.30468 4.4375-.52343 4.4375.67968 4.44142.90235 4.4375-.46485 4.4375-.88671 2.67968-1.69141 1.75781-.90235 4.4375-.87109 3.71875-2.66406.72266-.60156 3.19922-3.83594 1.23828-2.35547 3.72656-2.08594.71094-.20703 3.52344-4.23047-.4414-4.4375-3.08204-2.42969-4.4375-1.74218-.10156-.26563-.0625-4.4375-4.27344-3.54687-4.4414-.83203-.03125-.0625.03125-.19141 4.4414-3.28125 1.82813-.96484 2.60937-.46485 1.30469.46485 3.13281 1.6875 1.53516-1.6875-1.53516-1.76954-1.32031-2.66796-3.11719-3.39844-.46094-1.03906-3.73047-4.44141-.24609-.25781-4.4414-3.19922-2.41016-.98047-2.02734-1.5039v-87.26173h26.6289V427.4922l-4.08203 4.01562.95703 4.4375 3.125 2.42969 4.4414-.01172 2.27735-2.41797.67188-4.4375-2.94922-1.19922-4.4414-2.8164V311.67188h13.3164v116.0078l-4.3086 3.82813 4.3086 3.41406 4.4375-1.01171 4.4414-.35547 2.2422 2.39062 2.1953 1.91406 2.96094-1.91406-2.08203-4.4375-.8789-.86328-4.4375-1.6914-4.44141-.69922-4.4375-.57422V311.67188h44.38281v136.96484l-1.22656.625 1.22656.54687.73438-.54687-.73438-.625V311.67187h35.50781v121.21875l-3.07422 3.0547 3.07422 3.1914 1.11328 1.2461 3.32422 3.1914 4.08203-3.1914-4.08203-3.26173-1.3125-1.17578-3.125-3.05469V311.67188h31.07031v120.28125l-3.28125 3.9922.38672 4.4375-1.54687 1.60156-1.82031 2.83593-1.71875 4.4414 3.53906 3.46876 4.02344-3.46875-2.79297-4.4414 3.21094-3.16016 2.18359-1.27735-1.11719-4.4375-1.0664-3.99219V311.67188h8.875V443.1797l-1.96485 1.64062-2.47265 2.33985-2.40625 2.10156 2.40625 2.14062 1.7578-2.14062 2.6797-2.8086 1.55859-1.6328-1.5586-1.64063V311.67188h79.88672v168.65625h-65.48828l-1.08203-1.58594-4.09765-2.85156-.34375-.4336-2.22266-4.0039-2.21485-3.33594-.6875-1.10156-2.1328-4.44141 2.8203-3.79688.82422-.64062-.82421-1.33203-4.4375-1.88672-4.1172 3.21875-.3203.32812-2.8125 4.10938.35546 4.4414.6836 4.4375.74219 4.4375.64453 4.4375H144.0039"/></g><path fill="#50fcfc" fill-rule="evenodd" d="M144.88672 440.38281l-.88281.83985v-1.72657l.8828.88672"/><g clip-path="url(#d)"><path fill="#50fcfc" fill-rule="evenodd" d="M144.5625 320.54688l-.5586.16796v-9.04296h4.4336v3.33593l-1.33984 1.10156 1.33984.59766.4961-.59765-.4961-1.10157v-3.33594h2.91797l.26562 4.4375-3.18359 3.85157-3.875.58594"/></g><path fill="#00e8fc" fill-rule="evenodd" d="M148.4375 316.70703l-1.33984-.59765 1.33984-1.10157.4961 1.10156-.4961.59766"/><path fill="#50fcfc" fill-rule="evenodd" d="M157.3164 452.16016l-3.21874-2.89844.15625-4.4414 3.0625-2.64454.6328-1.79297 3.8047-3.64453 4.4375-.46094 1.1914-.33203 3.2461-2.42578 3.26953-2.01172 1.16797-.91406 4.4414-2.74219.9375-.78125 3.5-3.07031 4.4375-.96875 1.40625-.40234 3.03125-2.47657 4.4414-.7539 4.4375.60937 1.47657-1.8164-1.34766-4.4375 4.3086-3.9297.36328-.5078 4.07422-3.59375 1.26562-.84766 3.17578-3.0625 4.4375-1.14844 4.4375-.11719 1.95704-.10937 2.48047-1.5039v2.04687l-4.4375.05078-4.4375.44922-4.4375 2.78515-.63282.60938-3.8086 2.54688-2.14452 1.89453-2.29297 3.23437-1.3164 1.20313.85155 4.4375.46485.45703.95312-.45703 3.48438-1.27735v3.16797l-4.4375 1.03125-1.86328 1.51563 1.86328.76953 4.4375.11328 1.01562-.88281-1.01562-2.54688v-3.16797l.66406 1.27735 2.70703 4.4375-3.3711 2.92578-4.4375-.91016-4.4375-1.82812-.73046-.1875-3.70703-1.38282-3.67578 1.38282-.76563.18359-4.4375 1.24219-4.4375 2.0039-1.15234 1.01172-3.28516 2.7461-2.2539 1.6914-2.1875 3.21094-1.86328 1.22656-2.57422.58985-4.4375 1.35937-4.4375.20313-2.38672 2.28515-1.97656 4.4375.60156 4.4414 3.76172 3.6875 4.4375.60548 4.4375-2 2.1953-2.29297 2.2422-3.72266 2.53515-.71875 1.90625-.48047 3.00781-3.95703 1.4297-.23047v3.96094l-.64454.70703.64453 1.1211 2.98047-1.1211-2.98047-.70703v-3.96094l4.4375-1.01171 3.52735 1.24218.91015.82813.9375-.82813 3.5039-1.66406v10.48438l-.08593.05859-4.35547 2.57422-3.67578 1.86328 3.67578 1.79297 3.17188-1.79297 1.26953-4.15625.0586-.28125-.0586-.0586v-10.48437l4.4375.60547 3.84375 1.0586-.46484 4.4375-.34766 4.4414-2.72266 4.4375 4.1289 1.52344 4.4375-1.03516 4.44142 1.38281 4.4375.78906 4.4375-.75 3.98437-1.91015.45313-1.02344 4.4375-.73828 3.71093-2.67578-3.71094-2.44531-4.4375.5-4.4375.48828-4.4375-.625-2.3789-2.35938-2.0586-2.13281-4.27734-2.30469 1.74219-4.4375 2.53516-.9414 4.4375-2.10157 4.4375.31641 4.4375-.44531v2.78906l-1.8086.38281 1.8086 2.1914.32421-2.1914-.32422-.38281v-2.78906l2.66016 3.17187 1.77734 2.16797 4.44141.875 1.91016 1.39453 2.52734 2.08985 4.4375-1.3125.64844-.77735-.64844-1.41797-3.07422-3.01953-1.36328-.73047-1.4375-3.70703-1.90234-4.4375-1.09766-.91406-4.4414-.1875-1.83594-3.33984.77344-4.4375 1.0625-.2461 4.4414-1.65625 4.4375-2.03125.39453-.5039-.39453-.4297-1.76562-4.0078-2.67188-3.01563-3.7461-1.42578-.6953-.52344-4.4375-3.3711v-2.04687l2.02734 1.50391 2.41016.98047 4.4414 3.19922.2461.25781 3.73046 4.4414.46094 1.03907 3.11719 3.39844 1.32031 2.66796 1.53516 1.76954-1.53516 1.6875-3.13281-1.6875-1.30469-.46485-2.60937.46485-1.82813.96484-4.4414 3.28125-.03125.1914.03125.0625 4.4414.83204 4.27344 3.54687.0625 4.4375.10156.26563 4.4375 1.74219 3.08203 2.42968.4414 4.4375-3.52343 4.23047-.71094.20703-3.72656 2.08594-1.23828 2.35547-3.19922 3.83594-.72266.60156-3.71875 2.66406-4.4375.8711-1.7578.90234-2.6797 1.6914-4.4375.88672-4.4375.46485-4.4414-.90235-4.4375-.67968-4.4375.52343-4.4375-.30468-4.4414.5-4.4375.14453-4.4375.38672-4.4375.07421-3.10548 1.65235-1.33593.6836-4.4375.22265-4.4375 1.54687-4.4375.16016-2.94141-2.61328-.67969-4.4375.92969-4.4375-1.7461-1.53906"/><path fill="#00e8fc" fill-rule="evenodd" d="M157.99219 449.26172l-.60156-4.4414 1.97656-4.4375 2.38672-2.28516 4.4375-.20313 4.4375-1.35937v2.23437l-4.01953 1.61328-.41797.07813-4.01953-.07813-.41797-.01562-.01953.01562-3.98829 4.4375 2.17578 4.4414 1.83204 1.79688 4.4375 1.47657 3.5078-3.27344.9297-.5664 3.80859-3.875-.08984-4.4375-3.71875-1.61329v-2.23437l2.57422-.58985 1.86328-1.22656 2.1875-3.21094 2.2539-1.6914 3.28516-2.7461 1.15234-1.01172 4.4375-2.0039 4.4375-1.24219.76563-.1836 3.67578-1.3828v2.80077l-4.4414.69532-4.4375 1.02344-2.3047 1.30468-2.1328 2.33985-2.51173 2.09765-1.92578 2.45703-1.44531 1.98047 1.44531 1.42578 4.4375.00782 4.4375-1.12891.55469-.30469 3.88281-1.58203 4.4414.97266 4.4375-.33985 4.4375-.92187 4.4375-2.3711v9.16407l-1.1914 3.95312 1.1914 1.33203 1.1172-1.33203-1.1172-3.95312v-9.16406l.63282-.19532-.63281-.29297-3.41406-4.14453-1.02344-.34765-4.4375-1.8086-4.4375-.86719v-2.80078l3.70703 1.38282.73047.1875 4.4375 1.82812 4.4375.91016 3.3711-2.92578-2.70704-4.4375-.66406-1.27735-3.48438 1.27735-.95312.45703-.46484-.45703-.85157-4.4375 1.3164-1.20313 2.29298-3.23437 2.14453-1.89454 3.8086-2.54687.6328-.60938 4.4375-2.78515 4.4375-.44922v.8086l-4.4375 1.0078-2.82421 2.02735-1.61328 2.07813-3.3047 2.36328-1.13671 4.30078-.0625.13672.0625.03125 2.28516 4.40625 2.15625 2.86718v4.76172l-.85938 1.25.85938.54297 3.28125-.54297-3.28125-1.25v-4.76172l1.33203 1.57032 3.10547 2.83203 2.80078 1.60937 1.63672 1.98047 4.4375-.92187 3.7578 3.3789.6797.86719 4.4414 1.21484.78125-2.08203-.78125-1.36719-4.4414.73829-3.44922-3.8086-.98828-2.79687-1.26563-1.64453 1.26563-2.36329.35546-2.07421 4.08203-.9375 4.21094-3.5.23047-2.42579.4961-2.01171-.4961-.5625-4.4414-2.88672-1.32422-.99219-3.11328-2.63281-4.4375-.40235v-.80859l4.4375-.05078 4.4375 3.3711.6953.52343 3.7461 1.42578 2.67188 3.01563 1.76562 4.0078.39453.4297-.39453.5039-4.4375 2.03125-4.4414 1.65625-1.0625.2461-.77344 4.4375 1.83594 3.33984 4.4414.1875 1.09766.91406 1.90234 4.4375 1.4375 3.70703 1.36328.73047 3.07422 3.01953.64844 1.41797-.64844.77735-4.4375 1.3125-2.52734-2.08985-1.91016-1.39453-4.4414-.875-1.77735-2.16797-2.66016-3.17187-4.4375.44531-4.4375-.3164-4.4375 2.10156-2.53515.9414-1.74219 4.4375 4.27734 2.30469v6.5l-.09375.07422.09375.10156.07032-.10156-.07031-.07422v-6.5l2.05859 2.13281 2.3789 2.35938 4.4375.625 4.4375-.48828 4.4375-.5 3.71094 2.4453-3.71094 2.67579-4.4375.73828-.45312 1.02344-3.98438 1.91015-4.4375.75-4.4375-.78906-4.4414-1.38281-4.4375 1.03516-4.1289-1.52344 2.72265-4.4375.34766-4.4414.46484-4.4375-3.84375-1.0586-4.4375-.60547-3.5039 1.66406-.9375.82813-.91016-.82813-3.52735-1.24219-4.4375 1.01172-1.42969.23047-3.0078 3.95703-1.90626.48047-2.53515.71875-2.2422 3.72266-2.1953 2.29297-4.4375 2-4.4375-.60547-3.76172-3.6875"/><path fill="#00d4fc" fill-rule="evenodd" d="M159.92188 449.26172l-2.17579-4.4414 3.98828-4.4375.01954-.01563.41797.01562 4.01953.07813.41797-.07813 4.01953-1.61328v1.85547l-4.4375.89844-4.4375-.7461-3.64844 4.04297 3.64844 4.41797.09375.02344 4.34375 2.25781 2.41797-2.25781 2.01953-1.22656 3.16015-3.21485-3.16015-4.19531v-1.85547l3.71875 1.61328.08984 4.4375-3.8086 3.875-.92968.5664-3.50781 3.27345-4.4375-1.47657-1.83203-1.79687"/><path fill="#00c4fc" fill-rule="evenodd" d="M161.7539 449.23828l-3.64843-4.41797 3.64844-4.04297v.39844l-3.28907 3.64453 3.28907 3.98438 2.05468.45703 2.38282 1.23828 1.32812-1.23828 3.10938-1.88281 2.51172-2.5586-2.51172-3.33594-4.4375 1.09766-4.4375-1.40625v-.39844l4.4375.7461 4.4375-.89844 3.16015 4.19531-3.16015 3.21485-2.01953 1.22656-2.41797 2.25781-4.34375-2.25781-.09375-.02344"/><path fill="#00b8fc" fill-rule="evenodd" d="M161.7539 448.80469l-3.28906-3.98438 3.28907-3.64453v.39844l-2.9297 3.2461 2.9297 3.55077 4.01172.89063.42578.21875.23828-.21875 4.19922-2.54297 1.86718-1.89844-1.86718-2.47265-4.4375 1.29296-4.4375-2.0664v-.39844l4.4375 1.40625 4.4375-1.09765 2.51172 3.33593-2.51172 2.5586-3.10938 1.8828-1.32812 1.23829-2.38282-1.23828-2.05468-.45703"/><path fill="#00a8fc" fill-rule="evenodd" d="M161.7539 448.3711l-2.92968-3.55079 2.92969-3.2461v.39845l-2.57032 2.84765 2.57032 3.11328 4.4375-2.55078 4.4375.67578 1.21484-1.23828-1.21484-1.61328-4.4375 1.4961-4.4375-2.73047v-.39844l4.4375 2.0664 4.4375-1.29296 1.86718 2.47265-1.86718 1.89844-4.19922 2.54297-.23828.21875-.42578-.21875-4.01172-.89063"/><path fill="#009800" fill-rule="evenodd" d="M161.7539 447.9336l-2.5703-3.11329 2.5703-2.84765v.39843l-2.21093 2.44922L161.7539 447.5l3.8789-2.67969-3.8789-2.44922v-.39843l4.4375 2.73046 4.4375-1.49609v.85938l-2.20313.7539 2.20313.57813.5703-.57813-.5703-.7539v-.85938l1.21484 1.61328-1.21484 1.23828-4.4375-.67578-4.4375 2.55078"/><path fill="#00ac00" fill-rule="evenodd" d="M161.7539 447.5l-2.21093-2.67969 2.21094-2.44922v.39844l-1.85157 2.05078 1.85157 2.2461 3.25-2.2461-3.25-2.05078v-.39844l3.8789 2.44922-3.8789 2.67969"/><path fill="#00c800" fill-rule="evenodd" d="M161.7539 447.0664l-1.85156-2.24609 1.85157-2.05078v.79297l-1.13672 1.25781 1.13672 1.375 1.98828-1.375-1.98828-1.25781v-.79297l3.25 2.05078-3.25 2.2461"/><path fill="#10cc00" fill-rule="evenodd" d="M161.7539 446.19531l-1.13671-1.375 1.13672-1.25781v.79688l-.41797.46093.41797.50781.73047-.5078-.73047-.46094v-.79688l1.98828 1.25781-1.98828 1.375"/><path fill="#24d000" fill-rule="evenodd" d="M161.7539 445.32813l-.41796-.50782.41797-.46094.73047.46094-.73047.50781"/><path fill="#00ac00" fill-rule="evenodd" d="M170.6289 445.39844l-2.20312-.57813 2.20313-.7539.5703.7539-.5703.57813"/><path fill="#00d4fc" fill-rule="evenodd" d="M179.50781 437.3711l-1.44531-1.42579 1.44531-1.98047 1.92578-2.45703 2.51172-2.09765 2.13281-2.33985 2.3047-1.30469 4.4375-1.02343 4.4414-.69531v2.57812l-4.4414.05078-2.04688.39453-2.39063 1.71094-2.24219 2.72656 2.2422 1.3125 4.4375-.60547 4.4414 1.13282 4.4375-.92579 4.3086-.91406-4.16407-4.4375-.14453-.0625-4.4375-.38281v-2.57813l4.4375.8672 4.4375 1.80859 1.02344.34765 3.41406 4.14453.63281.29297-.63281.19531-4.4375 2.3711-4.4375.92187-4.4375.33985-4.4414-.97266-3.88282 1.58203-.55469.30469-4.4375 1.1289-4.4375-.0078"/><path fill="#fff" fill-opacity="0" fill-rule="evenodd" d="M183.94531 444.11328l-.64453.70703.64453 1.1211 2.98047-1.1211-2.98047-.70703"/><path fill="#00c4fc" fill-rule="evenodd" d="M188.38281 432.82031l-2.24219-1.3125 2.2422-2.72656 2.39062-1.71094 2.04687-.39453 4.4414-.05078 4.4375.38281.14454.0625 4.16406 4.4375-4.3086.91406-4.4375.92579-4.4414-1.13282-4.4375.60547"/><path fill="#00e8fc" fill-rule="evenodd" d="M192.82031 455.49219l-3.67578-1.79297 3.67578-1.86328 4.35547-2.57422.08594-.0586.0586.0586-.0586.28125-1.26953 4.15625-3.17188 1.79297"/><path fill="#fff" fill-opacity="0" fill-rule="evenodd" d="M206.13672 421.11328l-1.86328 1.51563 1.86328.76953 4.4375.11328 1.01562-.88281-1.01562-2.54688-4.4375 1.03125"/><path fill="#50fcfc" fill-rule="evenodd" d="M210.57422 440.86719l-1.1914 3.95312 1.1914 1.33203 1.11719-1.33203-1.1172-3.95312"/><path fill="#00d4fc" fill-rule="evenodd" d="M210.57422 413.78516l-.0625-.03125.0625-.13672 1.13672-4.30078 3.30469-2.36329v5.85938l-4.26563.9414 4.26563.72657 3.29296-.72656-3.29297-.94141v-5.85938l1.61329-2.07812 2.82422-2.02734 4.4375-1.00782v.8125l-4.4375 1.5625-.92579.66016-3.45312 4.4414 4.3789 3.22266 3.3086 1.21485-3.3086 1.40234-4.4375 2.11719-.53515.91797.53516.71093 3.16015 3.72657 1.27734 1.16406 2.26954-1.16406 2.16797-2.41797 1.71484-2.01953 2.72266-1.40235 4.4375-.23047 3.375-2.80468-.1211-4.4375-3.2539-2.34375-2.8125-2.09766-1.625-1.375-4.4375-.84766v-.8125l4.4375.40235 3.11328 2.63281 1.32422.99219 4.4414 2.88672.4961.5625-.4961 2.01171-.23047 2.42579-4.21094 3.5-4.08203.9375-.35547 2.07421-1.26562 2.36329 1.26563 1.64453.98828 2.79687 3.44922 3.8086 4.4414-.73829.78125 1.3672-.78125 2.08202-4.4414-1.21484-.6797-.86719-3.7578-3.3789-4.4375.92187-1.63672-1.98047-2.80078-1.60937-3.10547-2.83203-1.33203-1.57032-2.15625-2.86718-2.28516-4.40625"/><path fill="#00e8fc" fill-rule="evenodd" d="M215.01563 412.8125l-4.26563.9414 4.26563.72657 3.29296-.72656-3.29297-.94141"/><path fill="#50fcfc" fill-rule="evenodd" d="M215.01563 425.82031l-.85938 1.25.85938.54297 3.28125-.54297-3.28125-1.25"/><path fill="#00c4fc" fill-rule="evenodd" d="M215.01563 418.90234l-.53516-.71093.53516-.91797 4.4375-2.11719v1.53906l-2.625 1.4961 2.625 3.3789 3.03906-3.3789-3.03906-1.4961v-1.53906l3.30859-1.40234-3.3086-1.21485-4.3789-3.22265 3.45312-4.44141.92578-.66016 4.4375-1.5625v.8086l-3.42968 1.41406-1.00781 1.1836-2.57032 3.2578 2.57031 1.89063 4.4375 1.89063 1.91407.65625 2.52344 1.4453 4.4375.66798 2.54296-2.11328-.82812-4.4375-1.71484-1.23438-4.30079-3.20703-.13672-.11328-4.4375-1.30078v-.8086l4.4375.84766 1.625 1.375 2.8125 2.09766 3.25391 2.34375.1211 4.4375-3.375 2.80468-4.4375.23047-2.72266 1.40235-1.71484 2.01953-2.16797 2.41797-2.26953 1.16406-1.27735-1.16406-3.16016-3.72657"/><path fill="#50fcfc" fill-rule="evenodd" d="M215.01563 449.1875l-.09375.07422.09375.10156.0703-.10156-.0703-.07422"/><path fill="#00b8fc" fill-rule="evenodd" d="M219.45313 421.57031l-2.625-3.3789 2.625-1.4961 3.03906 1.4961-3.03906 3.3789m0-10.36328l-2.57032-1.89062 2.57031-3.25782 1.00782-1.18359 3.42969-1.41406v.8086l-1.46875.60546-2.96875 3.47656-.76172.96485.76172.55859 4.4375 2.27344 4.4375 1.32422.1875.28125 4.25 1.41796 1.70703-1.41796-1.53125-4.4375-.17578-.12891-4.4375-2.5-2.4297-1.8125-2.0078-.60547v-.8086l4.4375 1.30079.13671.11328 4.30078 3.20703 1.71485 1.23438.82812 4.4375-2.54297 2.11328-4.4375-.66797-2.52343-1.44531-1.91406-.65625-4.4375-1.89063"/><path fill="#00a8fc" fill-rule="evenodd" d="M219.45313 409.875l-.76172-.5586.76172-.96484 2.96875-3.47656 1.46875-.60547v1.10547l-3.4336 3.9414 3.4336 1.88282 4.4375-.88672 2.26562 3.4414 2.17188.72266.87109-.72265-.8711-2.40235-3.26953-2.03515-1.16797-.63282-4.4375-3.30859v-1.10547l2.00782.60547 2.42969 1.8125 4.4375 2.5.17578.1289 1.53125 4.4375-1.70703 1.41798-4.25-1.41797-.1875-.28125-4.4375-1.32422-4.4375-2.27344"/><path fill="#009800" fill-rule="evenodd" d="M223.89063 411.19922l-3.4336-1.88281 3.4336-3.94141v1.98438l-1.70313 1.95703 1.70313.93359 2.62109-.9336-2.6211-1.95702V405.375l4.4375 3.3086 1.16797.6328 3.26953 2.03516v2.30078l-.08984.10157.08984.03125.03907-.03125-.03906-.10157v-2.30078l.87109 2.40235-.8711.72265-2.17187-.72265-2.26563-3.44141-4.4375.88672"/><path fill="#00ac00" fill-rule="evenodd" d="M223.89063 410.25l-1.70313-.9336 1.70313-1.95702 2.62109 1.95703-2.6211.93359"/><path fill="#fff" fill-opacity="0" fill-rule="evenodd" d="M228.32813 435.5625l-1.8086.38281 1.8086 2.1914.32421-2.1914-.32422-.38281"/><path fill="#00ac00" fill-rule="evenodd" d="M232.76563 413.78516l-.08985-.03125.08984-.10157.03907.10157-.03906.03125"/><path fill="#50fcfc" fill-rule="evenodd" d="M251.83203 435.94531l-.95703-4.4375 4.08203-4.01562v1.08203l-2.97656 2.9336 2.97656 3.80077 3.32422-3.80078-3.32422-2.9336v-1.08202l4.4414 2.8164 2.94923 1.19922-.67188 4.4375-2.27734 2.41797-4.4414.01172-3.125-2.42969"/><path fill="#00e8fc" fill-rule="evenodd" d="M254.95703 435.3086l-2.97656-3.80079 2.97656-2.9336v1.8086l-1.14062 1.125 1.14062 1.45703 1.27734-1.45703-1.27734-1.125v-1.8086l3.32422 2.9336-3.32422 3.80078"/><path fill="#00d4fc" fill-rule="evenodd" d="M254.95703 432.96484l-1.14062-1.45703 1.14062-1.125 1.27734 1.125-1.27734 1.45703"/><path fill="#50fcfc" fill-rule="evenodd" d="M268.27344 434.92188l-4.3086-3.41407 4.3086-3.82812v2.46484l-1.53516 1.36328 1.53516 1.21485 2.76562-1.21485-2.76562-1.36328v-2.46484l4.4375.57422 4.4414.69921 4.4375 1.69141.87891.86328 2.08203 4.4375-2.96094 1.91406-2.1953-1.91406-2.2422-2.39062-4.4414.35547-4.4375 1.01171"/><path fill="#00e8fc" fill-rule="evenodd" d="M268.27344 432.72266l-1.53516-1.21485 1.53516-1.36328 2.76562 1.36328-2.76562 1.21485"/><path fill="#50fcfc" fill-rule="evenodd" d="M312.65625 449.8086l-1.22656-.54688 1.22656-.625.73438.625-.73438.54687m35.50781-10.67187l-3.07422-3.1914 3.07422-3.0547v2.31641l-.7461.73828.7461.77344 3.27344 3.66406 1.16406 1.1211 1.4336-1.1211-1.4336-1.14453-3.67969-3.29297-.7578-.73828v-2.3164l3.125 3.05468 1.3125 1.17578 4.08202 3.26172-4.08203 3.1914-3.32422-3.1914-1.11328-1.2461"/><path fill="#00e8fc" fill-rule="evenodd" d="M348.16406 436.71875l-.7461-.77344.7461-.73828.75781.73828 3.6797 3.29297 1.43359 1.14453-1.4336 1.1211-1.16406-1.1211-3.27344-3.66406"/><path fill="#50fcfc" fill-rule="evenodd" d="M374.79297 452.73047l-3.53906-3.46875 1.71875-4.4414 1.8203-2.83594v4.9375l-1.7539 2.33984 1.7539 1.71484 1.9922-1.71484-1.9922-2.33985v-4.9375l1.54688-1.60156-.38671-4.4375 3.28125-3.99219 1.0664 3.9922 1.11719 4.4375-2.1836 1.27734-3.21093 3.16015 2.79297 4.4414-4.02344 3.46876"/><path fill="#00e8fc" fill-rule="evenodd" d="M374.79297 450.97656l-1.7539-1.71484 1.7539-2.33985 1.99219 2.33985-1.9922 1.71484"/><g clip-path="url(#e)"><path fill="#50fcfc" fill-rule="evenodd" d="M381.21484 467.01563l-.35546-4.44141 2.8125-4.10938.3203-.32812 4.1172-3.21875v2.88281l-.4336.33594-4.0039 4.07812-.25.35938.25 1.1914.47656-1.1914 3.96094-3.8711.49218-.5664-.49219-.33594v-2.88281l4.4375 1.88672.82422 1.33203-.82421.64062-2.82032 3.79688 2.13281 4.4414.6875 1.10157 2.21485 3.33594 2.22265 4.0039.34375.4336 4.09766 2.85156 1.08203 1.58594h-6.6914l-3.26954-3.375-4.4375.2578-2.84375 3.1172h-1.98046l-.64454-4.4375-.74218-4.4375-.6836-4.4375"/></g><path fill="#50fcfc" fill-rule="evenodd" d="M383.67188 451.40234l-2.40625-2.14062 2.40625-2.10156 2.47265-2.33985 1.96485-1.64062 1.55859 1.64062-1.5586 1.63281-2.67968 2.8086-1.75781 2.14062"/><path fill="#00e8fc" fill-rule="evenodd" d="M383.67188 463.76563l-.25-1.19141.25-.35938 4.0039-4.07812.4336-.33594.49218.33594-.49219.5664-3.96093 3.8711-.47656 1.1914"/><g clip-path="url(#f)"><path fill="#00e8fc" fill-rule="evenodd" d="M385.26563 480.32813h2.83593l.00781-.01172 4.4375-.72657.71875.73829h2.55079l-3.26954-3.375-4.4375.2578-2.84375 3.1172"/></g><g clip-path="url(#g)"><path fill="#00d4fc" fill-rule="evenodd" d="M388.10156 480.32813l.00781-.01172 4.4375-.72657.71875.73829h-5.16406"/></g><g clip-path="url(#h)"><path fill="#fff" fill-opacity="0" fill-rule="evenodd" d="M467.9961 480.32813H468V311.67188h-.0039H468v168.65625h-.0039"/></g><path fill="#fff" fill-opacity="0" fill-rule="evenodd" d="M239.95703 416.3789l3.23828 4.86329 8.29297-5.51953-3.23828-4.86329-8.29297 5.51954"/><path fill-rule="evenodd" d="M248.66406 414.78906l.28125.42188-5.23828 3.48828-.4375-.65235 3.73828-2.48828-.76953-1.15625.46094-.30859.36328.42969.1875.17969.19922.14062.23047.08984.27344.03125.32421-.04687.38672-.1289"/><g clip-path="url(#i)"><path fill="none" stroke="#000" stroke-linecap="round" stroke-linejoin="round" stroke-miterlimit="10" stroke-width=".5" d="M147.51172 480.23047l-7.02344.19922"/></g><g clip-path="url(#j)"><path fill="none" stroke="#000" stroke-linecap="round" stroke-linejoin="round" stroke-miterlimit="10" stroke-width=".5" d="M147.51172 480.23047l1.21484 2.13281"/></g><g clip-path="url(#k)"><path fill="none" stroke="#000" stroke-linecap="round" stroke-linejoin="round" stroke-miterlimit="10" stroke-width=".5" d="M160.82813 480.33594l-7.02735-.01563"/></g><g clip-path="url(#l)"><path fill="none" stroke="#000" stroke-linecap="round" stroke-linejoin="round" stroke-miterlimit="10" stroke-width=".5" d="M160.82813 480.33594l1.14843 2.16797"/></g><g clip-path="url(#m)"><path fill="none" stroke="#000" stroke-linecap="round" stroke-linejoin="round" stroke-miterlimit="10" stroke-width=".5" d="M174.11719 480.7461l-6.97656-.83594"/></g><g clip-path="url(#n)"><path fill="none" stroke="#000" stroke-linecap="round" stroke-linejoin="round" stroke-miterlimit="10" stroke-width=".5" d="M174.11719 480.7461l.88672 2.28906"/></g><g clip-path="url(#o)"><path fill="none" stroke="#000" stroke-linecap="round" stroke-linejoin="round" stroke-miterlimit="10" stroke-width=".5" d="M187.44531 480.61328l-7.0039-.57031"/></g><g clip-path="url(#p)"><path fill="none" stroke="#000" stroke-linecap="round" stroke-linejoin="round" stroke-miterlimit="10" stroke-width=".5" d="M187.44531 480.61328l.97266 2.2539"/></g><g clip-path="url(#q)"><path fill="none" stroke="#000" stroke-linecap="round" stroke-linejoin="round" stroke-miterlimit="10" stroke-width=".5" d="M186.42969 480.53125l.48437 1.125"/></g><g clip-path="url(#r)"><path fill="none" stroke="#000" stroke-linecap="round" stroke-linejoin="round" stroke-miterlimit="10" stroke-width=".5" d="M200.7539 480.71875l-6.98437-.77734"/></g><g clip-path="url(#s)"><path fill="none" stroke="#000" stroke-linecap="round" stroke-linejoin="round" stroke-miterlimit="10" stroke-width=".5" d="M200.7539 480.71875L201.65626 483"/></g><g clip-path="url(#t)"><path fill="none" stroke="#000" stroke-linecap="round" stroke-linejoin="round" stroke-miterlimit="10" stroke-width=".5" d="M199.73438 480.60547l.45312 1.14062"/></g><g clip-path="url(#u)"><path fill="none" stroke="#000" stroke-linecap="round" stroke-linejoin="round" stroke-miterlimit="10" stroke-width=".5" d="M214.04688 480.86328l-6.94532-1.07031"/></g><g clip-path="url(#v)"><path fill="none" stroke="#000" stroke-linecap="round" stroke-linejoin="round" stroke-miterlimit="10" stroke-width=".5" d="M214.04688 480.86328l.80859 2.3164"/></g><g clip-path="url(#w)"><path fill="none" stroke="#000" stroke-linecap="round" stroke-linejoin="round" stroke-miterlimit="10" stroke-width=".5" d="M213.03906 480.70703l.40235 1.16016"/></g><g clip-path="url(#x)"><path fill="none" stroke="#000" stroke-linecap="round" stroke-linejoin="round" stroke-miterlimit="10" stroke-width=".5" d="M227.39063 480.64063l-7-.625"/></g><g clip-path="url(#y)"><path fill="none" stroke="#000" stroke-linecap="round" stroke-linejoin="round" stroke-miterlimit="10" stroke-width=".5" d="M227.39063 480.64063l.95312 2.26171"/></g><g clip-path="url(#z)"><path fill="none" stroke="#000" stroke-linecap="round" stroke-linejoin="round" stroke-miterlimit="10" stroke-width=".5" d="M240.70703 480.6289l-7.0039-.60156"/></g><g clip-path="url(#A)"><path fill="none" stroke="#000" stroke-linecap="round" stroke-linejoin="round" stroke-miterlimit="10" stroke-width=".5" d="M240.70703 480.6289l.96094 2.25782"/></g><g clip-path="url(#B)"><path fill="none" stroke="#000" stroke-linecap="round" stroke-linejoin="round" stroke-miterlimit="10" stroke-width=".5" d="M254.02734 480.52734l-7.01562-.39453"/></g><g clip-path="url(#C)"><path fill="none" stroke="#000" stroke-linecap="round" stroke-linejoin="round" stroke-miterlimit="10" stroke-width=".5" d="M254.02734 480.52734l1.02735 2.22657"/></g><g clip-path="url(#D)"><path fill="none" stroke="#000" stroke-linecap="round" stroke-linejoin="round" stroke-miterlimit="10" stroke-width=".5" d="M267.3086 479.78906l-6.94532 1.07813"/></g><g clip-path="url(#E)"><path fill="none" stroke="#000" stroke-linecap="round" stroke-linejoin="round" stroke-miterlimit="10" stroke-width=".5" d="M267.3086 479.78906l1.46874 1.96485"/></g><g clip-path="url(#F)"><path fill="none" stroke="#000" stroke-linecap="round" stroke-linejoin="round" stroke-miterlimit="10" stroke-width=".5" d="M280.5664 479.50781l-6.83202 1.64063"/></g><g clip-path="url(#G)"><path fill="none" stroke="#000" stroke-linecap="round" stroke-linejoin="round" stroke-miterlimit="10" stroke-width=".5" d="M280.5664 479.50781l1.625 1.83985"/></g><g clip-path="url(#H)"><path fill="none" stroke="#000" stroke-linecap="round" stroke-linejoin="round" stroke-miterlimit="10" stroke-width=".5" d="M293.97266 480.11719l-7.01563.42187"/></g><g clip-path="url(#I)"><path fill="none" stroke="#000" stroke-linecap="round" stroke-linejoin="round" stroke-miterlimit="10" stroke-width=".5" d="M293.97266 480.11719l1.28125 2.09375"/></g><g clip-path="url(#J)"><path fill="none" stroke="#000" stroke-linecap="round" stroke-linejoin="round" stroke-miterlimit="10" stroke-width=".5" d="M307.24219 479.73047l-6.92188 1.19922"/></g><g clip-path="url(#K)"><path fill="none" stroke="#000" stroke-linecap="round" stroke-linejoin="round" stroke-miterlimit="10" stroke-width=".5" d="M307.24219 479.73047l1.5039 1.9375"/></g><g clip-path="url(#L)"><path fill="none" stroke="#000" stroke-linecap="round" stroke-linejoin="round" stroke-miterlimit="10" stroke-width=".5" d="M320.35156 479.00781l-6.51172 2.64063"/></g><g clip-path="url(#M)"><path fill="none" stroke="#000" stroke-linecap="round" stroke-linejoin="round" stroke-miterlimit="10" stroke-width=".5" d="M319.40625 479.39453l.9375.78516"/></g><g clip-path="url(#N)"><path fill="none" stroke="#000" stroke-linecap="round" stroke-linejoin="round" stroke-miterlimit="10" stroke-width=".5" d="M333.42578 478.52734l-6.03125 3.60547"/></g><path fill="none" stroke="#000" stroke-linecap="round" stroke-linejoin="round" stroke-miterlimit="10" stroke-width=".5" d="M332.55078 479.05078l1.04688.63281"/><g clip-path="url(#O)"><path fill="none" stroke="#000" stroke-linecap="round" stroke-linejoin="round" stroke-miterlimit="10" stroke-width=".5" d="M346.52344 478.19922l-5.59375 4.25781"/></g><path fill="none" stroke="#000" stroke-linecap="round" stroke-linejoin="round" stroke-miterlimit="10" stroke-width=".5" d="M345.70703 478.82031l1.11719.51172"/><g clip-path="url(#P)"><path fill="none" stroke="#000" stroke-linecap="round" stroke-linejoin="round" stroke-miterlimit="10" stroke-width=".5" d="M358.70703 477.23438l-3.33203 6.1875"/></g><g clip-path="url(#Q)"><path fill="none" stroke="#000" stroke-linecap="round" stroke-linejoin="round" stroke-miterlimit="10" stroke-width=".5" d="M369.69531 476.8789l1.32422 6.89844"/></g><g clip-path="url(#R)"><path fill="none" stroke="#000" stroke-linecap="round" stroke-linejoin="round" stroke-miterlimit="10" stroke-width=".5" d="M381.29297 477.74219l4.7539 5.17187"/></g><path fill="none" stroke="#000" stroke-linecap="round" stroke-linejoin="round" stroke-miterlimit="10" stroke-width=".5" d="M381.98438 478.4961l.41015-1.16016"/><g clip-path="url(#S)"><path fill="none" stroke="#000" stroke-linecap="round" stroke-linejoin="round" stroke-miterlimit="10" stroke-width=".5" d="M393.72266 479.02734l6.52734 2.60157"/></g><path fill="none" stroke="#000" stroke-linecap="round" stroke-linejoin="round" stroke-miterlimit="10" stroke-width=".5" d="M393.72266 479.02734l-.26954-2.4375"/><g clip-path="url(#T)"><path fill="none" stroke="#000" stroke-linecap="round" stroke-linejoin="round" stroke-miterlimit="10" stroke-width=".5" d="M407.75781 477.90234l5.08594 4.85157"/></g><path fill="none" stroke="#000" stroke-linecap="round" stroke-linejoin="round" stroke-miterlimit="10" stroke-width=".5" d="M408.5 478.60938l.32813-1.1797"/><g clip-path="url(#U)"><path fill="none" stroke="#000" stroke-linecap="round" stroke-linejoin="round" stroke-miterlimit="10" stroke-width=".5" d="M420.91797 478.07813l5.39844 4.5"/></g><path fill="none" stroke="#000" stroke-linecap="round" stroke-linejoin="round" stroke-miterlimit="10" stroke-width=".5" d="M421.70313 478.73438l.25-1.20313"/><g clip-path="url(#V)"><path fill="none" stroke="#000" stroke-linecap="round" stroke-linejoin="round" stroke-miterlimit="10" stroke-width=".5" d="M438.75 477.32422l-3.63672 6.01172"/></g><path fill="none" stroke="#000" stroke-linecap="round" stroke-linejoin="round" stroke-miterlimit="10" stroke-width=".5" d="M438.22266 478.19922l1.22265.0664"/><g clip-path="url(#W)"><path fill="none" stroke="#000" stroke-linecap="round" stroke-linejoin="round" stroke-miterlimit="10" stroke-width=".5" d="M449.16797 483.67188l2.16015-6.6875"/></g><g clip-path="url(#X)"><path fill="none" stroke="#000" stroke-linecap="round" stroke-linejoin="round" stroke-miterlimit="10" stroke-width=".5" d="M463.39453 483.83984l.33594-7.01953"/></g><g clip-path="url(#Y)"><path fill="none" stroke="#000" stroke-linecap="round" stroke-linejoin="round" stroke-miterlimit="10" stroke-width=".5" d="M147.51172 466.89844l-7.02344.23047"/></g><path fill="none" stroke="#000" stroke-linecap="round" stroke-linejoin="round" stroke-miterlimit="10" stroke-width=".5" d="M147.51172 466.89844l1.22266 2.125m12.09375-1.89453l-7.02344-.23047m7.02344.23047l1.07812 2.20312m12.23047-2.51953l-7.01563.40234m7.01563-.40234l1.27344 2.09766m-2.29297-2.03907l.63672 1.05079m13.70312-.75782l-7.02344-.30078m7.02344.30078l1.05469 2.21485m-2.07813-2.25782l.53125 1.10547m13.8047-1.0586l-7.01954-.30858m7.01953.30859l1.0586 2.21484M199.75 467.1211l.52734 1.10938m13.80078-.96094l-7.0078-.51172m7.0078.51172l.9922 2.24219m-2.01173-2.3164l.4961 1.12109m13.84375-1.1172l-7.01563-.37108m7.01563.37109l1.03906 2.22265m-2.0586-2.27734l.51954 1.10938m13.82031-1.26563l-7.02734.05078m7.02734-.05078l1.16797 2.16016m12.14844-2.1211L247.0078 467m7.02735.02734l1.14453 2.17188M267.3125 466.5l-6.95313 1.02734M267.3125 466.5l1.45703 1.97266m11.72266-2.53907l-6.6836 2.16016m6.6836-2.16016l1.76562 1.70704m11.39844-2.09375l-6.38281 2.93359m6.38281-2.9336l1.95313 1.48438m11.37109-1.46875l-6.39844 2.90234m6.39844-2.90234l1.94531 1.5m11.15235-1.90234l-5.96485 3.70703m5.96485-3.70703l2.125 1.23047m10.82421-1.72266l-5.23437 4.6914m5.23437-4.6914l2.3047.84375m10.36327-1.40625l-3.9375 5.8164m3.9375-5.8164l2.4414.25781m9.82032-.74219l-1.83203 6.78516m1.5664-5.79687l1.19532-.27344m11.8164-.82031l-.6914 6.99609m.58984-5.97656l1.13282-.46875m9.21484.72265l5.4414 4.44922m-4.64843-3.80078l.23828-1.20313m12.10156.80079l5.8086 3.95703m-4.96485-3.3789l.13281-1.22266m13.66797-.51563l3.15235 6.27734m-3.15235-6.27734l1.41797-2.0039M423.6172 463.5v7.02734m0-7.02734l2.16406-1.15234m11.73438 1.20312l-1.16797 6.92578m1.16797-6.92578l2.32812-.77734m8.88281 1.07422l3.03907 6.33203m-3.03907-6.33203l1.45703-1.97657m16.87891 5.4336l-7.0039-.58203m5.98437.49609l.48437 1.1289"/><g clip-path="url(#Z)"><path fill="none" stroke="#000" stroke-linecap="round" stroke-linejoin="round" stroke-miterlimit="10" stroke-width=".5" d="M147.47656 454.21875l-6.95312-1.03906"/></g><path fill="none" stroke="#000" stroke-linecap="round" stroke-linejoin="round" stroke-miterlimit="10" stroke-width=".5" d="M147.47656 454.21875l.8164 2.3125m12.51563-2.46094l-6.98828-.74219m6.98828.7422l.91797 2.27343m12.39844-2.99219l-6.99219.69531m5.97656-.59375l.6797 1.01954m13.66796-.8125l-7.02344.07422m7.02344-.07422l1.17578 2.15625m12.1289-1.83203l-7.0039-.57422m7.0039.57422l.97267 2.2539m12.32812-2.11719l-6.97656-.84765m6.97656.84765l.88281 2.28907m12.4414-2.35547l-6.99218-.71094m6.99219.71094l.92578 2.26953m12.39844-2.83984l-7.01172.42578m7.01172-.42578l1.28125 2.09375m11.96875-2.60157l-6.8789 1.44532m6.8789-1.44532l1.57031 1.88282m11.78125-1.67579l-6.95313 1.03125m6.95313-1.03125l1.45703 1.97266m11.72266-2.54297l-6.6836 2.17188m6.6836-2.17188l1.76562 1.70313m11.3164-2.25782l-6.21483 3.27735m6.21484-3.27735l2.02734 1.38282m-2.9336-.90625l1.01563.6914m13.21875-1.14062l-6.24218 3.22656m6.24218-3.22656l2.01954 1.39453m11.03906-1.8164l-5.73047 4.0703m5.73047-4.0703l2.1914 1.09765m11.0586-1.1836l-5.60156 4.2422m5.60156-4.2422l2.22656 1.03126m10.55469-1.59375l-4.53125 5.36718m4.53125-5.36718l2.39844.51562m9.88671-1.1211l-2.47265 6.57813m2.47265-6.57812l2.4336-.31641m-2.79297 1.27344l1.21875-.15625m12.0625-.92188l-1.6875 6.82032m1.6875-6.82032l2.3789-.59765m12.5586 1.5039l-4.92969 5.00782m4.21094-4.27735l1.17578.34766m7.61328-.72266l5.5586 4.29688m-4.75-3.67188l.20703-1.21094m18.3164 1.3711l-6.47656 2.72656m5.53516-2.32812l.94922.77343m12.3125-2.51172l-4.48829 5.40625m3.83594-4.62109l1.20313.25m13.71875.20703l-6.39453 2.92188m5.46093-2.4961l.97657.7461m11.39062-2.96875l-2.63281 6.51562m2.63281-6.51562l2.4414-.25782m10.95704.29297l-2.80078 6.44532m2.39453-5.50782l1.22265-.09765"/><g clip-path="url(#aa)"><path fill="none" stroke="#000" stroke-linecap="round" stroke-linejoin="round" stroke-miterlimit="10" stroke-width=".5" d="M147.38281 441.32813l-6.76562-1.88672"/></g><path fill="none" stroke="#000" stroke-linecap="round" stroke-linejoin="round" stroke-miterlimit="10" stroke-width=".5" d="M147.38281 441.32813l.52735 2.39453m12.84375-2.625l-6.87891-1.4297m6.8789 1.4297l.6875 2.35937m12.6797-2.66015l-6.98048-.82422m6.98047.82422l.88672 2.28515m12.44922-2.69922h-7.02344m7.02344 0l1.15234 2.16797m12.13282-1.71094l-6.96485-.91015m5.95313.77734l.42969 1.14844m13.5078.19531l-6.18358-3.33594m6.18359 3.33594l-.01563 2.45313m13.20313-2.23438l-5.92969-3.77344m5.92969 3.77344l-.1914 2.44922m13.97655-5.0664l-6.87109 1.46093m5.8711-1.25l.78906.9414m12.21484-3.22265l-4.2461 5.60156m3.625-4.78515l1.21485.19531m13.20313-.5664l-5.21094 4.71093m5.21094-4.71094l2.30859.83594m11.09375-.73437l-5.38672 4.51171m5.38672-4.51171l2.27344.92187m10.53906-1.41406l-4.38281 5.49219m4.38281-5.4922l2.41406.45313m11.47266.1211l-5.52344 4.34375m5.52344-4.34375l2.2461.99219m-3.05079-.35938l1.125.4961m13.10156-.98438l-5.73828 4.05469m5.73828-4.0547l2.19141 1.10548m-3.02344-.51563l1.09375.55469m12.79297-1.46875l-5.21875 4.70703m5.21875-4.70703l2.3086.83594m-3.06641-.15235l1.15234.41797m12.59375-1.42187l-4.5625 5.34375m4.5625-5.34375l2.39453.53515m10.10547-1.05468l-2.9336 6.38671m2.9336-6.38671l2.44922-.14453m8.90235-.14063l.99218 6.95703m-.99219-6.95703l1.98047-1.44922m8.96875 2.88672l5.72266 4.07813m-5.72266-4.07813l.32032-2.4336m12.34375 4.39844l7.02734.14844m6.29297-.2539l7.01562.35937m11.73438-3.11719l-3.85156 5.875m3.29296-5.01953l1.21875.11328m13.44532-.25781l-5.4336 4.45703m5.4336-4.45703l2.26562.94531m11.8164.83985l-6.96874.8828m5.95703-.7539l.70703 1m13.35156-2.10547l-6.42968 2.83594m5.49218-2.42187l.96485.7578"/><g clip-path="url(#ab)"><path fill="none" stroke="#000" stroke-linecap="round" stroke-linejoin="round" stroke-miterlimit="10" stroke-width=".5" d="M147.35156 428.125l-6.70312-2.10938"/></g><path fill="none" stroke="#000" stroke-linecap="round" stroke-linejoin="round" stroke-miterlimit="10" stroke-width=".5" d="M147.35156 428.125l.44922 2.41016m13.01563-3.15625l-7-.6211m7 .6211l.95703 2.2578m12.17969-1.42968l-6.64844-2.27734m6.64844 2.27734l.38671 2.42188m12.57032-1.67578l-5.9297-3.76954m5.9297 3.76953l-.1875 2.44532m12.79687-1.63672L195 424.375m3.86328 4.60156l-.46094 1.13672m15.6797-2.84375l-7.01563-.40234m5.99609.34375l.51172 1.11328m13.29687-3.11328l-5.96093 3.71484m5.09375-3.17578l1.0625.61328m13.58984 1.35938l-6.90234-1.3086m5.89843 1.11719l.3672 1.17188m13.64062-3.21094l-6.28125 3.15234m18.97265-4.02734l-5.03515 4.90234m4.30468-4.1875l1.16797.3711m13.47657-.26172l-6.23047 3.2539m6.23047-3.2539l2.02343 1.38672m10.54688-2.35157l-4.74219 5.1836m4.05469-4.4297l1.1875.3047m13.25781-.57032l-5.625 4.21094m4.80469-3.60156l1.11328.52344m12.08203-2.00391l-3.7461 5.94922m3.7461-5.94922l2.44531.17969m-2.99219.6875l1.22657.08984m12.98828-.70312l-4.44922 5.4414m4.44922-5.4414l2.40625.48047m-3.05469.3125l1.20313.23828m13.20703-.59375l-5.34375 4.5664m5.34375-4.5664l2.28125.89843m-3.0586-.23437l1.14063.44922m13.66797.23828L353.65234 428m5.79297-1.58984l.83985.89062m9.92578-3.74219l.28906 7.01954m-.28906-7.01954l2.11719-1.24218m11.04687 1.25l.59375 7.0039m-.59375-7.0039l2.0586-1.33203m-1.97266 2.35156l1.03125-.66406m14.30469.13671l-3.6211 6.01953m3.09375-5.14453L399.4961 425m13.84766.3125l-6.08594 3.51172m6.08594-3.51172l2.08203 1.30078m-2.96875-.78906l1.04297.64844m12.4336-2.04297l-4.63673 5.28125m4.63672-5.28125l2.39063.5625m-3.0625.20312l2.38672.5625m10.0625-2.11328l-1.5586 6.85156m1.5586-6.85156l2.3711-.64453m-2.59767 1.64063l1.1836-.32032m12.58594-.61719l-2.01563 6.73047m2.01563-6.73047l2.40625-.48046m-2.69922 1.46093l1.20312-.24218m13.28516-.33594l-3.77344 5.92578"/><g clip-path="url(#ac)"><path fill="none" stroke="#000" stroke-linecap="round" stroke-linejoin="round" stroke-miterlimit="10" stroke-width=".5" d="M465.44922 424.10547l2.44531.1914"/></g><g clip-path="url(#ad)"><path fill="none" stroke="#000" stroke-linecap="round" stroke-linejoin="round" stroke-miterlimit="10" stroke-width=".5" d="M147.36719 414.75781L140.6328 412.75"/></g><path fill="none" stroke="#000" stroke-linecap="round" stroke-linejoin="round" stroke-miterlimit="10" stroke-width=".5" d="M146.38672 414.46484l.24219 1.20313m13.95703-.625l-6.53906-2.57813m6.53906 2.57813l.27734 2.4375m13.04688-2.46875l-6.5625-2.51563m6.5625 2.51563l.30078 2.4336m13.0625-2.5625l-6.65625-2.25782m6.65625 2.25781l.39453 2.42188m13.10156-3.73438l-7.01953.36719m5.9961-.3164l.6328 1.05468m12.14454-3.84766l-3.89844 5.84766m3.33203-4.9961l1.22266.1211m12.14844 5.16016l-2.875-6.41406m16.30078 6.35937l-3.09766-6.3086m2.64844 5.39063l-.71875.9961m16.13672-1.78125l-6.40235-2.89844m6.40235 2.89844l.15234 2.44921m13.1211-2.35937l-6.32032-3.07813m6.32031 3.07813l.08594 2.45312m13.5664-3.65234l-6.99609-.6836m5.97657.58594l.46875 1.13282m13.85156-.92578l-6.96875-.89844m6.96875.89844l.86719 2.29687m12.23828-1.46875l-6.54688-2.5586m5.59375 2.1875l.14063 1.21876m13.95312-3.78516L314 415.41015m6.19531-3.3164l2.03516 1.36719m11.46875-.9414l-6.57813 2.46874m6.57813-2.46875l1.83984 1.625m11.6914-.66406l-7.0078.54687m7.0078-.54687l1.31641 2.07031m11.66407-.28515l-6.33985-3.02735m6.33985 3.02735l.10937 2.45312m13.33985-5.16016l-6.60938 2.38672m6.60938-2.38672l1.8203 1.64844m-2.78124-1.30078l.91015.82422m12.89063-2.0625l-5.65625 4.16797m5.65625-4.16797l2.21094 1.0625m-3.03516-.45313l1.10547.52735m12.0586-2.03907l-3.70704 5.97266m3.70703-5.97266l2.44532.16407m-2.98438.70703l1.22266.08203m13.07422-.625l-4.58985 5.32031m4.58985-5.32031l2.39062.54297m-3.0586.23047l1.19532.27343m12.98437-.86328l-4.98437 4.95313m4.98437-4.95313l2.34375.72266m9.64063-1.5625l-2.32422 6.63281m1.98438-5.66797l1.21484-.18359m12.51562-.7539l-2.47656 6.57812m2.47656-6.57813l2.4336-.3125m10.2461.14063l-1.20704 6.92187m1.20703-6.92187l2.33203-.76563m-2.5078 1.77344l1.16796-.38281"/><g clip-path="url(#ae)"><path fill="none" stroke="#000" stroke-linecap="round" stroke-linejoin="round" stroke-miterlimit="10" stroke-width=".5" d="M147.41406 401.26953l-6.82812-1.66015"/></g><path fill="none" stroke="#000" stroke-linecap="round" stroke-linejoin="round" stroke-miterlimit="10" stroke-width=".5" d="M146.42188 401.02734l.30468 1.1875m12.94531.83204l-4.71093-5.21485m4.02344 4.45313l-.41797 1.15625m14.29687-.29297l-4.46875-5.42188m3.82031 4.63281l-.46875 1.13672m15.53516-1.94921l-6.67188-2.21485m5.69922 1.89063l.20703 1.21093m14.17188-2.76562l-6.85547 1.53906m6.85547-1.53906l1.60156 1.85937m7.28906 2.28125l1.9961-6.73828m15.35547 5.13281l-6.07813-3.53125m5.1914 3.01954l-.04687 1.22656m14.3711-.94531l-6.32422-3.06641m5.40234 2.61719l.04688 1.22656m13.51953.16797l-4.98047-4.95703m4.98047 4.95703l-.71484 2.34765m14.67578-3.24609l-6.27344-3.16015m6.27344 3.16015l.05468 2.45313m13.6172-4.41797l-6.98438.76953m6.98437-.76953l1.38281 2.02734m11.91797-2.125l-6.96093.96094m6.96093-.96094l1.4375 1.98828m11.72657-2.6289l-6.65625 2.24609m5.6875-1.92188l.89453.84375m13.5703.08594l-7.01952-.26172m7.01953.26172l1.07031 2.20703m12.2461-2.24218l-7.02344-.19141m7.02344.1914l1.09375 2.19532m12.21484-2.04297l-7.00781-.4961m5.98828.42188l.5 1.1211m13.80469-.76954l-6.94922-1.05078m5.9375.89844l.40625 1.15625m13.6953-2.86719l-6.5 2.67188m6.5-2.67188l1.89063 1.5664m-2.83593-1.17577l.9453.78125m12.41017-2.45313l-4.6875 5.23438m4.6875-5.23438l2.3828.58985m11.15626-.3711l-5.13672 4.79688m5.13672-4.79688l2.32031.79688m11.25781-.48047l-5.66015 4.16406m5.66015-4.16406l2.21094 1.0625m10.45313-1.73438l-4.35938 5.51172m4.35938-5.51172l2.41406.4375m10.125-.90234l-2.8086 6.4414m2.8086-6.4414l2.44922-.1914m12.10547 1.09765l-5.28907 4.625m5.28907-4.625l2.29296.875m10.92188-.98438l-5.08984 4.84375"/><g clip-path="url(#af)"><path fill="none" stroke="#000" stroke-linecap="round" stroke-linejoin="round" stroke-miterlimit="10" stroke-width=".5" d="M466.10547 398.01563l2.32812.77734"/></g><g clip-path="url(#ag)"><path fill="none" stroke="#000" stroke-linecap="round" stroke-linejoin="round" stroke-miterlimit="10" stroke-width=".5" d="M144.11328 383.61328l-.22656 7.02344"/></g><path fill="none" stroke="#000" stroke-linecap="round" stroke-linejoin="round" stroke-miterlimit="10" stroke-width=".5" d="M158.09766 390.54688l-1.56641-6.84766m11.28516 5.52734l5.6289-4.20703m8.13281 4.69922l4.73438-5.1914m7.54688 3.47656l6.80078-1.76172m-5.8125 1.50781l-.82813-.90625m17.57422 3.64453l-2.03516-6.72656m1.73828 5.7461l-.87109.86327m15.30078-.25l-3.67187-5.99218m3.13672 5.11718l-.6211 1.0586m16.1211-2.7539l-6.97266-.85548m5.96094.73047l.4375 1.14844m13.76172-.41016l-6.71485-2.07812m5.73438 1.77344l.23047 1.20703m14.21484-1.73438l-7.01563-.41797m7.01563.41797l1.01953 2.23047m12.26953-1.96484l-6.96484-.94922m6.96484.94922l.84766 2.30078m12.4961-2.69922l-7.02344-.15235m7.02343.15235l1.10547 2.1914m11.98828-3.5039l-6.57812 2.47265m6.57812-2.47265l1.83985 1.6211m11.66015-.91407l-6.94922 1.0586m6.94922-1.0586l1.46485 1.96875m-2.47657-1.8125l.73047.98438m13.6211-.3086l-7-.60547m7 .60547l.96093 2.26172m11.82813-4.4336L340.75 388.9922m5.94922-3.73828l2.1289 1.22265m11.50782-.57422l-6.58985 2.44532m6.58985-2.44532l1.83203 1.62891m-2.79297-1.27344l.91797.8125m13.04297-1.8125l-5.95703 3.73047m5.95703-3.73047l2.125 1.22656m-2.99219-.68359l1.0625.61328m12.94531-1.40625l-5.60937 4.23047m5.60937-4.23047l2.22266 1.03516m-3.03906-.42188l1.11328.51954m12.73828-1.46094l-5.05078 4.88672m5.05078-4.88672l2.33203.7539m-3.0664-.04296l1.16406.375m12.5-1.4297l-4.28125 5.57423m4.28125-5.57422l2.42187.40625m-3.04297.40625l1.20703.20312m12.52735-1.16015l-3.875 5.86328m3.875-5.86328l2.4414.23437m10.30079-.53906l-2.73047 6.47265m2.73047-6.47265l2.4453-.21875m12.52345 1.65625l-6.03907 3.59765m6.03907-3.59765l2.09765 1.27344m10.99219-1.60157l-5.58984 4.25391"/><g clip-path="url(#ah)"><path fill="none" stroke="#000" stroke-linecap="round" stroke-linejoin="round" stroke-miterlimit="10" stroke-width=".5" d="M466.35547 384.9961l2.23047 1.02343"/></g><g clip-path="url(#ai)"><path fill="none" stroke="#000" stroke-linecap="round" stroke-linejoin="round" stroke-miterlimit="10" stroke-width=".5" d="M140.79688 372.36328l6.40625 2.89063"/></g><path fill="none" stroke="#000" stroke-linecap="round" stroke-linejoin="round" stroke-miterlimit="10" stroke-width=".5" d="M154.42969 371.80469l5.76953 4.00781m13.79687-1l-6.73437-2.00781m13.61719-.71485l6.1328 3.4375m-5.23827-2.9375l.02734-1.22656m12.01953 3.16016l6.8789-1.42969m-6.8789 1.42969l-1.5664-1.89063m15.3203-.65234l6.00392 3.65625m-5.12891-3.125l.07031-1.22266m18.57031 3.96875l-6.40234-2.89844m5.47266 2.47657l.07812 1.22265m13.75-.10546l-5.5664-4.28907m5.5664 4.28906l-.40625 2.41797m14.01172-2.85937l-6.14453-3.40625m5.25 2.91015l-.01953 1.22657m13.77344-.08985l-5.23438-4.6875m5.23438 4.6875l-.58985 2.38282m14.34375-2.9922l-6.11328-3.46874m6.11328 3.46875l-.0664 2.45312m13.76171-3.45703l-6.875-1.46094m6.875 1.46094l.67578 2.35938m12.70704-3.32813l-7.01172.47656m7.01172-.47656l1.29687 2.08594m11.8711-2.88281l-6.71485 2.07031m6.71484-2.07031l1.73829 1.73047m11.29296-2.39454l-6.14843 3.39844m6.14843-3.39844l2.0586 1.33594m11.3789-1.10156l-6.39062 2.92578m6.39062-2.92578l1.94922 1.49219m-2.8789-1.0664l.97265.74608m13.39063-.875l-6.6289 2.33594m6.6289-2.33594l1.80469 1.66016m-2.76954-1.32031l1.8086 1.66015m12.4414-2.08203l-6.5664 2.5m6.5664-2.5l1.84766 1.61329m-2.80469-1.25l1.84766 1.61328m12.11328-2.59766l-5.94531 3.74219m5.94531-3.74219l2.1289 1.21875m-2.99218-.67578l1.0625.60937m13.19922-1.01562l-6.11328 3.46484m6.11328-3.46484l2.07031 1.3164m-2.96094-.8125l1.03516.66016m13.02734-1.39062l-5.82812 3.92187m5.82812-3.92187L415.38281 373m-3.01562-.58203l1.08203.57812m13.03125-1.22265l-5.72656 4.07031m5.72656-4.07031l2.19531 1.09765m-3.02734-.5078l1.09375.55077m12.36328-1.86328l-4.34766 5.51563m4.34766-5.51563l2.41406.4336m-3.04687.36718l1.20703.21875m13.1289-.66797l-5.125 4.8086m5.125-4.8086l2.32422.79297m10.35156-1.32812l-3.84375 5.88281m3.28125-5.02734l1.22266.10937"/><g clip-path="url(#aj)"><path fill="none" stroke="#000" stroke-linecap="round" stroke-linejoin="round" stroke-miterlimit="10" stroke-width=".5" d="M140.85547 358.92578l6.28906 3.13281"/></g><path fill="none" stroke="#000" stroke-linecap="round" stroke-linejoin="round" stroke-miterlimit="10" stroke-width=".5" d="M154.10547 359.0625l6.41797 2.86328m-5.48438-2.44922l-.08203-1.22265m18.1289 4.7539l-4.91015-5.02734m14.67578-.82813l2.1875 6.6797m-1.86719-5.70704l.84766-.88281m9.92188 2.09375l6.63672 2.3164m-5.67188-1.98046l-.1836-1.21094m12.85548 3.86719l5.99218-3.67188m-5.1211 3.13672l-1.05468-.6211m15.83984 2.77344l1.3125-6.90234m-1.12109 5.89844l-1.17187.36328m17.1875-.10156l-4.47266-5.41797m4.47266 5.41796l-.9375 2.26563m14.25-2.26172l-4.46485-5.42578m4.46485 5.42578l-.94141 2.26563m15.30469-3.71875l-6.5625-2.51954m6.5625 2.51954l.29687 2.43359m13.13281-2.78906l-6.79296-1.8125m6.79297 1.8125l.55468 2.39062m-1.54297-2.65234l.27735 1.19531m14.11718-1.40625l-6.97265-.86719m6.97265.8672l.875 2.29296m-1.89062-2.41797l.4375 1.14453m13.89453-1.8789l-6.97656.85156m6.97656-.85156l1.40625 2.01171m-2.42187-1.88671l.70312 1.0039m13.60547-1.28515l-6.92969 1.16796m6.92969-1.16796l1.49219 1.9453m-2.5039-1.77733l.75.97265m13.5703-1.16015l-6.92187 1.20703m6.92187-1.20704l1.50782 1.9375m-2.51563-1.76171l.7539.96875m13.60938-.84766l-7 .61328m7-.61328l1.33594 2.05469m-2.35547-1.96875l.66797 1.03125m13.61328-1.48828l-6.89453 1.35156m6.89453-1.35156l1.54688 1.90625m-2.55079-1.70704l.77344.94922m13.5-1.35156l-6.80078 1.76172m6.80078-1.76172l1.65625 1.80469m-2.64453-1.55078l1.65625 1.8086m12.16406-3.14063l-5.83593 3.91796m5.83593-3.91796l2.16407 1.15625m-3.01563-.58594l2.16406 1.15625m11.65625-2.16016l-5.14453 4.78516m5.14453-4.78516l2.32032.80078m-3.06641-.10546l2.3164.80468m12.0586-1.11328l-5.77344 4.00781m5.77344-4.0078l2.1836 1.125m-3.02344-.54298l1.08984.5625m13.30078-.7539l-6.24219 3.22656m6.2422-3.22656l2.01562 1.39843m-2.92579-.92578l1.01172.69531m12.89454-1.67187l-5.60938 4.23438m5.60938-4.23438l2.22656 1.03906m-3.03906-.42187l1.10937.51953m13.35156-.59766l-6.27344 3.16016m6.27344-3.16016l2.0039 1.41406m10.7422-2.23437l-5.13672 4.79688"/><g clip-path="url(#ak)"><path fill="none" stroke="#000" stroke-linecap="round" stroke-linejoin="round" stroke-miterlimit="10" stroke-width=".5" d="M466.1289 358.09375l2.32032.79688"/></g><g clip-path="url(#al)"><path fill="none" stroke="#000" stroke-linecap="round" stroke-linejoin="round" stroke-miterlimit="10" stroke-width=".5" d="M146.98047 345.3164l-5.96094 3.72266"/></g><path fill="none" stroke="#000" stroke-linecap="round" stroke-linejoin="round" stroke-miterlimit="10" stroke-width=".5" d="M155.22266 344.35547L159.40625 350m13.10547-5.78906l-3.76563 5.9336m3.21875-5.07032l1.22266.09375m9.4961-1.26953l2.52343 6.5586m-2.15625-5.60548l.80469-.92578m10.00781 2.35938l6.79688 1.78515m-5.8086-1.52344l-.28125-1.1953m13.8086 4.5703l4.39062-5.48828m-4.39062 5.48829l-2.41016-.45313M223 350.57813l1.78125-6.80079m-1.51953 5.8125l-1.19531.28125m15.92578.73047l-1.57422-6.84765m1.57422 6.84765l-1.85156 1.60938m17.03906-2.73828l-5.32031-4.58985m5.3203 4.58985l-.54296 2.39453m14.48047-3.4375l-6.5664-2.5039m6.5664 2.5039l.3086 2.4336m13.05077-2.5547l-6.65234-2.26171m6.65234 2.26171l.39453 2.42188m-1.36328-2.75l.19922 1.21094m14.21094-1.35157l-6.90234-1.32421m6.90234 1.32421l.72266 2.34375m-1.72657-2.53515l.35938 1.17187m14.01172-1.41015l-7.01172-.46485m7.01172.46485l1.0078 2.23828m-2.02733-2.30469l.5039 1.11719m13.83203-1.49219l-7.01172.41797m7.01172-.41797l1.28125 2.09766m-2.30078-2.03516l.64063 1.04688m13.58593-1.80079l-6.79296 1.80079m6.79296-1.80079l1.66797 1.80079m-2.65625-1.53907l1.66797 1.80078m12.67578-1.8828l-6.8789 1.4414m6.8789-1.4414l1.57032 1.88671m-2.57032-1.67578l1.57032 1.88672m12.74609-2.09766l-6.8789 1.4414m6.8789-1.4414l1.57031 1.88672m-2.57031-1.67578l.78516.9414m13.49218-1.30468l-6.80468 1.7461m6.80468-1.7461l1.65625 1.8125m-2.64453-1.5586l1.65235 1.8125m12.37109-2.80468l-6.24219 3.22265m6.24219-3.22265l2.01953 1.39843m-2.92578-.92968l2.01562 1.39843m11.85547-2.41406l-5.54297 4.3164m5.54297-4.3164L402 346.02343m-3.04687-.375l2.23828 1.00391m11.54687-2.0039l-4.875 5.0586m4.875-5.0586l2.35938.67187m-3.06641.0625l2.35938.67578m12.0625-.95312l-5.67188 4.14453m5.67188-4.14453l2.20703 1.0664m-3.03125-.46484l2.20703 1.07031m11.82812-1.80859l-5.46484 4.41797m5.46484-4.41797l2.25782.96094m-3.05079-.3164l1.12891.48046m13.58984 0l-6.68359 2.16797m6.6836-2.16797l1.76171 1.70313m-2.73437-1.38672l.88281.85156m13.32813-1.375l-6.53516 2.58203"/><g clip-path="url(#am)"><path fill="none" stroke="#000" stroke-linecap="round" stroke-linejoin="round" stroke-miterlimit="10" stroke-width=".5" d="M466.82813 345.88672l1.86718 1.59375"/></g><path fill="none" stroke="#000" stroke-linecap="round" stroke-linejoin="round" stroke-miterlimit="10" stroke-width=".5" d="M465.8789 346.26172l.9336.79687"/><g clip-path="url(#an)"><path fill="none" stroke="#000" stroke-linecap="round" stroke-linejoin="round" stroke-miterlimit="10" stroke-width=".5" d="M141.20313 335.99219l5.59375-4.25781"/></g><path fill="none" stroke="#000" stroke-linecap="round" stroke-linejoin="round" stroke-miterlimit="10" stroke-width=".5" d="M160.54297 332.47266l-6.45313 2.78125m5.51172-2.37891l.95703.76953m11.26953 3.51953l-2.39843-6.60547m17.9336 4.125l-6.83595-1.64062m5.83985 1.40234l.3086 1.1875m13.99608-.9375l-6.82421-1.66406m6.82422 1.66406l.60546 2.3789m10.81641-.04296l-3.03516-6.33594m2.59375 5.41406l-.73047.98829m16.17579-1.80079l-6.41407-2.86718m5.48047 2.44922l.08203 1.22656m12.92578.66797l-3.93359-5.82031m3.36328 4.97265l-.57812 1.08594m14.90234-.58594l-4.8086-5.125m4.8086 5.125l-.79297 2.32031m14.4336-2.67187l-5.46094-4.42188m5.46094 4.42188l-.46875 2.41015m13.6328-2.23437l-5.16015-4.77344m5.16016 4.77344l-.6289 2.3711m14.48046-3.13282l-6.23047-3.25m6.23047 3.25l.01953 2.45313m-.92578-2.92579l.00781 1.22657m14.45313-1.34375l-6.71094-2.07422m6.71094 2.07422l.46094 2.41015m13.0078-3.32812l-7.01952-.23828m7.01953.23828l1.07812 2.20703m-2.09765-2.23828l.53906 1.10156m13.80078-1.25l-7.02734.125m7.02734-.125l1.1875 2.14844m-2.21094-2.1289l.59375 1.07421m13.69922-1.57812l-6.9414 1.09375m6.9414-1.09375l1.47657 1.96093m-2.48438-1.80078l.73828.98047m13.46094-1.66797l-6.6914 2.14844m6.6914-2.14844l1.75781 1.70703m11.66016-1.3125l-6.89453 1.35938m6.89453-1.35938l1.54687 1.90235m-2.55078-1.70313l.77344.94922m13.4375-1.5625l-6.67969 2.1875m6.67969-2.1875l1.76953 1.69922m-2.74219-1.38281l.88282.85156m13.32421-1.38281l-6.51953 2.61719m6.51953-2.6172l1.87891 1.58204m11.50781-1.38672l-6.66406 2.22266m6.66406-2.22266l1.78125 1.6914m11.4414-1.9414l-6.47655 2.72656m6.47656-2.72656l1.90234 1.55078m-2.84375-1.15625l.94922.77735m12.375-2.45704l-4.61328 5.29688m4.61328-5.29688l2.39063.5547m11.5078.09765l-5.78124 3.99219m5.78125-3.9922l2.17969 1.125m-3.01953-.54687l1.08984.5664m13.5-.28905l-6.64844 2.28125"/><g clip-path="url(#ao)"><path fill="none" stroke="#000" stroke-linecap="round" stroke-linejoin="round" stroke-miterlimit="10" stroke-width=".5" d="M466.88672 332.72266l1.79297 1.67578"/></g><path fill="none" stroke="#000" stroke-linecap="round" stroke-linejoin="round" stroke-miterlimit="10" stroke-width=".5" d="M465.91797 333.05469l.89453.83594"/><g clip-path="url(#ap)"><path fill="none" stroke="#000" stroke-linecap="round" stroke-linejoin="round" stroke-miterlimit="10" stroke-width=".5" d="M141.34766 322.85156l5.30468-4.60937"/></g><path fill="none" stroke="#000" stroke-linecap="round" stroke-linejoin="round" stroke-miterlimit="10" stroke-width=".5" d="M155.95313 323.78516l2.72265-6.47657m-2.32422 5.53516l-1.22265.11328m18.42187-4.35937L167.70703 322.5m4.9961-3.33594l1.07812.58203m13.46094-.41406l-6.59375 2.42969m6.59375-2.42969l1.82812 1.63672m11.36719 1.08203l-6.35156-3.00781m6.35156 3.00781l.11328 2.45313m-1.03906-2.89063l.0586 1.22656m14.30859-1.09375l-6.60547-2.39453m6.60547 2.39453l.34375 2.4297m-1.3047-2.77735l.17188 1.21094m14.25782-1.42579l-6.91407-1.26953m6.91407 1.26953l.73828 2.33985m12.4375-1.8164l-6.63672-2.31642m6.63672 2.31641l.3711 2.42578m11.98437-.98047l-4.71485-5.21093m4.71485 5.21093l-.83594 2.3086m14.03906-2.21094l-4.49219-5.40234m4.4922 5.40234l-.9297 2.26953m.27735-3.05469l-.46485 1.13282m14.73829-.63672l-5.10547-4.82813m5.10547 4.82813l-.64844 2.36719m-.09375-3.07032l-.32422 1.1836m14.78125-.98829l-5.90625-3.80859m5.90625 3.8086l-.20703 2.4453m13.77344-2.91015l-6.41016-2.8789m6.41016 2.8789l.16406 2.44922m13.38281-3.14844l-6.8711-1.48047m6.8711 1.48047l.66797 2.35938m-1.66797-2.57422l.33594 1.17969m14.05469-1.59766l-7.02344-.21484m7.02344.21484l1.08593 2.19922m12.0039-3.55078l-6.5703 2.48828m6.5703-2.48828l1.84376 1.61719m10.69922-2.82813l-5.02735 4.91016m5.02735-4.91016l2.33984.7461m11.41797-.19141l-5.91406 3.79687m5.05469-3.24219l1.0703.59766m13.28126-.83984l-6.26563 3.17578m6.26563-3.17578l2.00781 1.41015m10.57031-2.39453l-4.79297 5.14063m4.79297-5.14063l2.36719.63672m-3.0664.11328l1.1875.3164m12.99218-.89843l-5.125 4.80469m5.125-4.80469l2.32422.79297m11.01563-.76563l-5.17579 4.75391m4.42579-4.0625l1.15625.41016m12.33593-1.60547l-4.02734 5.75781m18.2539-4.82812l-5.84765 3.89843m5.84766-3.89843l2.16015 1.16406m10.96485-1.41797l-5.46875 4.41016"/><g clip-path="url(#aq)"><path fill="none" stroke="#000" stroke-linecap="round" stroke-linejoin="round" stroke-miterlimit="10" stroke-width=".5" d="M466.29688 318.34375l2.2578.96094"/></g><path fill="none" stroke="#000" stroke-linecap="round" stroke-linejoin="round" stroke-miterlimit="10" stroke-width=".5" d="M465.5 318.98438l1.1289.48046"/><path fill="#00f" fill-rule="evenodd" d="M312.78516 467.64844h8.62109V457.5039h-8.6211v10.14453"/><path fill="azure" fill-rule="evenodd" d="M314.6211 459.33594h.83202v2.82422h3.28516v-2.82422h.83203v6.48047h-.83203v-2.91797h-3.28515v2.91797h-.83204v-6.48047"/><path fill="#00f" fill-rule="evenodd" d="M232.89453 441.01953h8.6211V430.8711h-8.6211v10.14844"/><path fill="azure" fill-rule="evenodd" d="M234.73047 432.70703h.83203v2.82031h3.28516v-2.8203h.83593v6.47655h-.83593v-2.91406h-3.28516v2.91406h-.83203v-6.47656"/><path fill="#00f" fill-rule="evenodd" d="M383.80078 436.57813h8.61719v-10.14454h-8.61719v10.14454"/><path fill="azure" fill-rule="evenodd" d="M385.63281 428.26563h.83203v2.82421h3.28907v-2.82421h.83203v6.48046h-.83203v-2.91406h-3.28907v2.91406h-.83203v-6.48046"/><path fill="#00f" fill-rule="evenodd" d="M219.58203 414.38672h8.61719v-10.14453h-8.61719v10.14453"/><path fill="azure" fill-rule="evenodd" d="M221.41406 406.07422h.83203v2.82422h3.28907v-2.82422h.83203v6.48047h-.83203v-2.91406h-3.28907v2.91406h-.83203v-6.48047"/><path fill="#ff3030" fill-rule="evenodd" d="M384.4961 414.38672h7.6914v-10.14453h-7.6914v10.14453"/><path fill="azure" fill-rule="evenodd" d="M386.32813 406.07422h.83203v5.74219h3.1953v.73828h-4.02733v-6.48047"/><path fill="#ff3030" fill-rule="evenodd" d="M295.72656 409.94922h7.69531v-10.14453h-7.6953v10.14453"/><path fill="azure" fill-rule="evenodd" d="M297.5586 401.63672h.83593v5.73828h3.1914v.74219h-4.02734v-6.48047"/><path fill="#ff3030" fill-rule="evenodd" d="M206.96094 370.0039h7.6914v-10.14452h-7.6914v10.14453"/><path fill="azure" fill-rule="evenodd" d="M208.79297 361.6914h.83203v5.73829h3.19531v.74219h-4.02734v-6.48047"/><path fill="#ffffe0" fill-rule="evenodd" d="M330.85156 348.04297h22.1836v-10.1914h-22.1836v10.1914"/><path fill-rule="evenodd" d="M334.35156 339.6836h.51172v6.29687h-.78906v-4.49219h-1.38672v-.55469l.5586-.0625.2539-.05468.22656-.08985.20313-.14062.17578-.21094.14062-.29297.10547-.39844m4.8164 0l.22657.01954.21875.05468.21094.08985.19531.12109.1836.15234.17187.17579.30078.41796.24219.4922.17969.54687.11328.57812.03906.59375-.03906.59375-.11328.58203-.1797.55469-.24218.5-.30078.42969-.17188.17969-.18359.15234-.19531.125-.21094.08984-.21875.0586-.22656.01953-.23047-.01953-.21875-.0586-.20703-.08984-.19922-.125-.1836-.15235-.17187-.17968-.30078-.42969-.24219-.5-.17969-.55469-.11328-.58203-.03906-.59375h.83594l.02734.5625.08203.5039.125.44532.16407.375.1914.30078.21094.21875.22266.13672.22656.04688.22656-.04688.22266-.13672.20703-.21875.1914-.30078.16407-.375.125-.44531.08203-.5039.02734-.5625-.02734-.5625-.08203-.5-.125-.4336-.16406-.36719-.19141-.29297-.20703-.21484-.22266-.1289-.22656-.04688-.22656.04687-.22266.1289-.21094.21485-.1914.29297-.16407.36719-.125.4336-.08203.5-.02734.5625h-.83594l.03906-.59376.11329-.57812.17968-.54688.24219-.49219.30078-.41796.17188-.17579.18359-.15234.19922-.1211.20703-.08984.21875-.05469.23047-.01953m5.08984 0h.50781v6.29688h-.78515v-4.49219h-1.39063v-.55469l.5625-.0625.25-.05468.23047-.08985.20313-.14062.17578-.21094.14062-.29297.10547-.39844m2.82422 2.17579h.78516l.01953-.31641.0586-.28516.10156-.2539.14062-.21485.17969-.17187.22265-.1289.26563-.08204.3086-.02734.23827.02343.22266.0625.20313.10157.17968.13671.14844.17188.11328.20703.07422.23438.02344.26562-.02344.26953-.0625.22266-.11328.19531-.15235.16797-.20312.16406-.2461.16406-.6328.39063-.53907.3125-.4375.3164-.34765.32423-.26172.33593-.19141.35156-.125.3711-.0664.39062-.02344.42188h4.21484v-.74219h-3.33594l.08594-.28515.11328-.23438.14844-.20313.1875-.17968.23047-.17188.27734-.17578.71875-.41406.41406-.20703.34375-.23047.28125-.25.22266-.26953.16016-.27735.11328-.28515.0625-.28516.01953-.28125-.03906-.38281-.1211-.34766-.1914-.3086-.25-.26171-.30079-.21094-.34765-.16015-.3789-.09766-.40626-.03516-.4336.03516-.39843.09766-.35547.16796-.30469.23438-.25.30078-.18359.375-.11719.44531-.03906.51954"/><path fill="#ffffe0" fill-rule="evenodd" d="M177.52344 327.78125h22.1836v-10.1914h-22.1836v10.1914"/><path fill-rule="evenodd" d="M181.02344 319.42188h.51172v6.29687h-.78907v-4.49219h-1.38672v-.55469l.5586-.0664.25-.05078.23047-.08985.20312-.14453.17578-.20703.14063-.29687.10547-.39454m4.8125 0l.23047.01954.21875.05468.20703.08985.19922.1211.18359.14843.17188.17578.30078.42188.24218.49218.1797.54688.11327.57812.03906.59375-.03906.58985-.11328.58593-.17969.5547-.24218.5-.30078.42968-.17188.17969-.1836.15234-.19921.125-.20703.08984-.21875.0586-.23047.01953-.22656-.01953-.21875-.0586-.21094-.08984-.19531-.125-.1836-.15234-.17187-.1797-.30078-.42968-.2422-.5-.17968-.55469-.11328-.58593-.03906-.58985h.83593l.02735.5625.08203.5039.125.44532.16406.3711.1914.30078.21095.22265.22265.13672.22266.04688.22656-.04688.22266-.13672.21093-.22265.19141-.30079.16406-.37109.125-.44531.08203-.5039.02735-.5625-.02735-.5625-.08203-.5-.125-.4375-.16406-.36329-.1914-.29297-.21094-.21484-.22266-.13281-.22656-.04297-.22266.04297-.22266.1328-.21093.21485-.1914.29297-.16407.36328-.125.4375-.08203.5-.02735.5625h-.83593l.03906-.59375.11328-.57812.17969-.54688.24219-.49219.30078-.42187.17187-.17578.1836-.14844.1953-.1211.21095-.08984.21875-.05468.22656-.01954m5.09375 0h.50781v6.29688h-.78516v-4.49219h-1.39062v-.55469l.5625-.0664.25-.05078.23047-.08985.20312-.14453.17578-.20703.14063-.29687.10547-.39454m2.82422 2.17579h.78515l.01953-.31641.0586-.28516.10156-.2539.14063-.21485.17968-.17578.22266-.1289.26562-.07813.3086-.02734.23828.01953.22266.0625.20312.10156.17969.14063.14844.17187.11328.20703.07422.23438.02343.26562-.02344.26953-.0625.22266-.11328.1914-.15234.17188-.20313.16406-.24609.16407-.63281.39062-.53906.3125-.4375.3164-.34766.32423-.26172.33593-.1914.35157-.125.37109-.06641.39063-.02344.42187h4.21094v-.74219h-3.33203l.08594-.28515.11328-.23438.14843-.20312.1875-.1797.23047-.17187.27735-.17578.71875-.41797.41406-.20312.34375-.23047.28125-.2539.21875-.26563.16406-.27735.11328-.28515.0625-.28516.01953-.28125-.03906-.38281-.1211-.34766-.1914-.30859-.25-.26172-.30078-.21484-.34766-.15625-.3789-.09766-.40625-.03515-.4336.03125-.39843.10156-.35547.16406-.30469.23438-.25.30468-.1836.375-.11718.44531-.03906.51954"/></g></defs><use xlink:href="#ar"/></svg>