<svg xmlns="http://www.w3.org/2000/svg" role="img" xmlns:xlink="http://www.w3.org/1999/xlink" viewBox="142.45 309.95 326.84 171.84"><defs><clipPath id="a"><path d="M144 441h1v39.32813h-1zm0 0"/></clipPath><clipPath id="b"><path d="M144 311.67188h1V321h-1zm0 0"/></clipPath><clipPath id="c"><path d="M144 311.67188h324v168.65625H144zm0 0"/></clipPath><clipPath id="d"><path d="M144 311.67188h8V321h-8zm0 0"/></clipPath><clipPath id="e"><path d="M380 454h23v26.32813h-23zm0 0"/></clipPath><clipPath id="f"><path d="M385 476h11v4.32813h-11zm0 0"/></clipPath><clipPath id="g"><path d="M388 479h6v1.32813h-6zm0 0"/></clipPath><clipPath id="h"><path d="M467 311.67188h1v168.65625h-1zm0 0"/></clipPath><clipPath id="i"><path d="M144 479h4v1.32813h-4zm0 0"/></clipPath><clipPath id="j"><path d="M147 479h2v1.32813h-2zm0 0"/></clipPath><clipPath id="k"><path d="M153 480h9v.32813h-9zm0 0"/></clipPath><clipPath id="l"><path d="M160 480h3v.32813h-3zm0 0"/></clipPath><clipPath id="m"><path d="M166 479h9v1.32813h-9zm0 0"/></clipPath><clipPath id="n"><path d="M173 480h3v.32813h-3zm0 0"/></clipPath><clipPath id="o"><path d="M180 479h8v1.32813h-8zm0 0"/></clipPath><clipPath id="p"><path d="M187 480h2v.32813h-2zm0 0"/></clipPath><clipPath id="q"><path d="M186 480h2v.32813h-2zm0 0"/></clipPath><clipPath id="r"><path d="M193 479h9v1.32813h-9zm0 0"/></clipPath><clipPath id="s"><path d="M200 480h2v.32813h-2zm0 0"/></clipPath><clipPath id="t"><path d="M199 480h2v.32813h-2zm0 0"/></clipPath><clipPath id="u"><path d="M206 479h9v1.32813h-9zm0 0"/></clipPath><clipPath id="v"><path d="M213 480h3v.32813h-3zm0 0"/></clipPath><clipPath id="w"><path d="M212 480h2v.32813h-2zm0 0"/></clipPath><clipPath id="x"><path d="M220 479h8v1.32813h-8zm0 0"/></clipPath><clipPath id="y"><path d="M227 480h2v.32813h-2zm0 0"/></clipPath><clipPath id="z"><path d="M233 479h8v1.32813h-8zm0 0"/></clipPath><clipPath id="A"><path d="M240 480h2v.32813h-2zm0 0"/></clipPath><clipPath id="B"><path d="M246 479h9v1.32813h-9zm0 0"/></clipPath><clipPath id="C"><path d="M253 480h3v.32813h-3zm0 0"/></clipPath><clipPath id="D"><path d="M260 479h8v1.32813h-8zm0 0"/></clipPath><clipPath id="E"><path d="M267 479h3v1.32813h-3zm0 0"/></clipPath><clipPath id="F"><path d="M273 479h8v1.32813h-8zm0 0"/></clipPath><clipPath id="G"><path d="M280 479h3v1.32813h-3zm0 0"/></clipPath><clipPath id="H"><path d="M286 479h9v1.32813h-9zm0 0"/></clipPath><clipPath id="I"><path d="M293 479h3v1.32813h-3zm0 0"/></clipPath><clipPath id="J"><path d="M300 479h8v1.32813h-8zm0 0"/></clipPath><clipPath id="K"><path d="M306 479h3v1.32813h-3zm0 0"/></clipPath><clipPath id="L"><path d="M313 478h8v2.32813h-8zm0 0"/></clipPath><clipPath id="M"><path d="M319 479h2v1.32813h-2zm0 0"/></clipPath><clipPath id="N"><path d="M327 478h7v2.32813h-7zm0 0"/></clipPath><clipPath id="O"><path d="M340 477h7v3.32813h-7zm0 0"/></clipPath><clipPath id="P"><path d="M354 477h6v3.32813h-6zm0 0"/></clipPath><clipPath id="Q"><path d="M369 476h3v4.32813h-3zm0 0"/></clipPath><clipPath id="R"><path d="M381 477h6v3.32813h-6zm0 0"/></clipPath><clipPath id="S"><path d="M393 478h8v2.32813h-8zm0 0"/></clipPath><clipPath id="T"><path d="M407 477h6v3.32813h-6zm0 0"/></clipPath><clipPath id="U"><path d="M420 477h7v3.32813h-7zm0 0"/></clipPath><clipPath id="V"><path d="M434 477h6v3.32813h-6zm0 0"/></clipPath><clipPath id="W"><path d="M449 476h3v4.32813h-3zm0 0"/></clipPath><clipPath id="X"><path d="M463 476h1v4.32813h-1zm0 0"/></clipPath><clipPath id="Y"><path d="M144 466h4v2h-4zm0 0"/></clipPath><clipPath id="Z"><path d="M144 452h4v3h-4zm0 0"/></clipPath><clipPath id="aa"><path d="M144 439h4v3h-4zm0 0"/></clipPath><clipPath id="ab"><path d="M144 425h4v4h-4zm0 0"/></clipPath><clipPath id="ac"><path d="M144 412h4v4h-4zm0 0"/></clipPath><clipPath id="ad"><path d="M144 399h4v3h-4zm0 0"/></clipPath><clipPath id="ae"><path d="M465 397h3v3h-3zm0 0"/></clipPath><clipPath id="af"><path d="M144 383h1v8h-1zm0 0"/></clipPath><clipPath id="ag"><path d="M466 384h2v3h-2zm0 0"/></clipPath><clipPath id="ah"><path d="M144 372h4v4h-4zm0 0"/></clipPath><clipPath id="ai"><path d="M144 358h4v5h-4zm0 0"/></clipPath><clipPath id="aj"><path d="M144 345h4v5h-4zm0 0"/></clipPath><clipPath id="ak"><path d="M466 345h2v3h-2zm0 0"/></clipPath><clipPath id="al"><path d="M144 331h4v6h-4zm0 0"/></clipPath><clipPath id="am"><path d="M466 332h2v3h-2zm0 0"/></clipPath><clipPath id="an"><path d="M144 318h3v6h-3zm0 0"/></clipPath><clipPath id="ao"><path d="M466 318h2v2h-2zm0 0"/></clipPath><g id="ap" clip-path="url(#clip1)"><path fill="#fff" fill-opacity="0" fill-rule="evenodd" d="M0 0h1000v1000H0zm0 0"/><path fill="#d3d3d3" fill-opacity="0" fill-rule="evenodd" d="M162.15234 355.86719l-.23437.29297.0586.23437.11718.17188.17578.23437.29297.34766.11328.0586.11719-.17188.0586-.23438.17577-.17578.46485-.17578h.69922l.23437.29297.28906.8164.0586.17579.17578.23046.35156.23438.69922.69922.17188.17578.23437.34765.23438.41016.28906.58203.41015.46485.23047.23437.23438.17578.11719.23047.17578.29297.17187 1.16406v.23438l.0586.28906.05859.11719.11719.11719.34765.41015.11719.17188.17578.17578.17578.23437.11719.17188.17188.35156.05859.23438.23437.40625.23438-.0586-.17578.17578-.0586.92969h-.58203l-.23437-.11328-.34766.11328-.11719.11719-.05859.29297-.0586.17578-.11718.17187-.46484.29297-.0586.23438-.0586.11328v.64453l.0586.17187v.41016l.0586.0586v.40624l.05859.40625.11719.17579.05859.05859.23047.64062-.0586.29297v.69922l-.05859.58203v.23438l-.0586.23047-.05468.35156v1.92187l.05469.1172h.42578l-.36719.11718-.02344.35156.89063 1.16797 1.74219.53906 1.33984.35938v.53906l.08984.8086.53516.71484 1.51953.26953.89063-.08594.08984 1.16406.53516.1797 1.16015-.1797 2.05469-.98437 1.16016-.36328 1.8789-.17578 1.69531-.1797-.17968.71876-1.51563.08594-1.25.08984-.80469.26953-1.07421.8086.26953.71875.53515.89843-.17968.625-.26563.8086.26563 1.07812.625.89844.80468.17969 1.25-.1797-.26562.72267.09766.5039.05468.29297v.17188l.0586.29296v.40625l.17578.1172.35156.11718h.40625l.29297-.17578.11328-.11719.0586-.11719.11718-.23047.0586-.17578.35156-.46484.23047-.17578.17578-.0586.17578.0586.0586.17578.11718.98828.05469.46875.0586.17188.11718.23437.17578.0586.8164.05859h.28907l.11719.23437.05859.40625.0586.35156v1.10547l.11718.29297.11719.34766.28906.69922.17578.35156.58203.7539.35157.17579.17187.0586.46875.23437.64063.46484.34765.23438.29297.17578.29297.05468.23047.0625.8164.34766.29297.17578.11328.17188.35157.35156.11719.17578.52343.64063v.28906l.0586.35156v.34766l.05859.35156.0586.28906.11718.0586.17188.05859h.17578l.58203.23437.17578.1172.17578.28905.17578.23438.11328.23437.29297.23047.11719.11719v.41016l.0586.05468.28906.23438.23437.11719.0586.11718.11718.17188.0586.11719.23047.23437.05859.17578.23437.0586.1172.05859-.1172.11328-.05859.11719v.11719l-.11719.29296-.11719.28907v.58203l.17579.11719.11718.05859.0586.11719.11719.11719.11328.05859.17578.34765.0586.35157.05858.40625v.17578l-.05859.17578-.11719.69922v.17187l.1172.17579.29296.29296h.40625l.17578.1172.11719.17187.11719.29296v.23438h-.52735l-.23047-.23438h-.23437l-.17578.0586-.0586.69922.0586.34765.11719.17579.17578.41015.11718.23047.28907.46875.17578.05469h.52344l.23437.0586.75781.64062.0586.29296v.23438l.05859.0586.23047.34765v.35156l-.11719.17188v.29297l.29297.28906.29297.17578.17187.0586.29297.17577.29297.1172.58203.40624.28906.23438.29297.17578.21875.16015.01563.01172.23047.17579.64062.52343.17578.23438.1172.17578.17577.17578.11328.17188v.64062l.1172.17578.46874.11719.58203.11719.23438.05859.23047.11328.29297.11719.11328.0586.58593.35156.28907.17187.17578.0625.17578.05469.17578.0586.69922.35155.28906.17579.23438.05468.28906.17578.23437.1172.64063.40624.29297.11719.17187.0586.23438.05859.41015.05859.23047.0586.23438.11718.0586.17188-.41017.17578.46875.0586.0586.29296.11328.23438.17578.05468.23438.0586.17578.05859.40625.11719.64062.23437.11719.17188.0586.23437v.17578l-.0586.1172-.0586.40624.23438.23438.11719.05859.34766.11719.64062.23047.17578.11718.28906.1172.17578.17577.23438.46485.58203 1.10546.17578.17579.34766.17578.17578.11719.35156.11718 1.04688.52344.23437.0586.46485.11327.29297.0586.46484.17578.75781.58203.23438.23438.34765.46484.17578.17578.28907.23438.8164.69921.29297.17579.28906.28906.29297.17578.29297.28906.69531.64063.17578.17578.29297.23437.28907.23438.46875.28906.64062.58203.34766.23438.23437.29297.34766.34765.35156.46485.9336.99218.34765.40625.11719.17579.23437.05859.11328.11719.64454.17578.23047.11328.23437.0586.29297.17577.23047.1172.9336.69921.40624.40625.23438.17578.40625.17578.23437.11719.8164.34766.34766.23437.23438.11719.29297.28906.23047.11719.7578.35156.35157.17188.23047.05859.29297.11719.23437.0586.8711.17577h.8164l.46875.23047.17188.0586.875.69921.46484.1172.29297.05858.17578.0586.23047.0586.46875.05859.34766.05859.35156.0586.40625.05859h.29297l.17187.0586v.23046l.17578.17578h.29297l.34766.0586.35156.05859.69922.11719h.64063l.46484-.23438.29297-.17578.17187-.11719.41016-.17187.28906-.17578.9336-.46485.46875-.29297.52343-.29296.46485-.17188.46484-.17578 1.05078-.46485.28906-.11718.41016-.11719.28906-.11719.52735-.17578 1.51562-.69922.58203-.34765.28907-.0586.29297-.0586.34765-.11718.875-.23047.35156-.11719h.11329l.23437-.05859.875-.23437.23438-.0586h.8125l.35156-.0586.8164-.11718.17188-.0586.35156-.05468.29297-.0586.23047-.05859.8164-.17578.17579-.0586h.34765l.23438-.05859.46484-.11718.75781-.17188.23438-.0586h.34765l.41016-.11718.28906-.0586 1.28516-.05859h.28906l.41016-.0586.23047-.05858h.17578l.875-.1172h.40625l.41015-.11718h.34766l.35156-.11328.8711-.0586h1.75l1.04687.28907.41016.11719.28906.11718.35156.11719.28907.11719 1.05078.17187.28906.0586h.29297l.29297.05859.17187.0586.41016.05859.17187.0586.1172.05858h.11718l.11719.0586.35156.0586h.11328l.41016.0664 1.92187.39453 1.92578.39453 1.51953.44922 1.69532.71875 2.14453.80469 1.60547-.71875 1.42968-.80469 1.16016-1.07813 1.25-.44921 3.03516-.71875 1.875-.35938 2.14453-1.34765 2.23437-1.25391 2.5-1.25781 1.69531-.44922 1.78516-.17969 1.16016-.26953.625.53906 1.33984-.26953.71485-.98828.98437-1.34375.44531-.17969.80469-.35937 1.875-.53907 1.78516-.44921 1.25-.26954 1.16015-.08984 1.69922-.08984 1.96094-.26954 1.25-.08984h.53906l.625-.08984h.89063l2.14453-.17969 2.41015-.17969 2.58985-.08984 1.69531.17969 1.60938.08984 1.42968.35938 1.16016.71875 1.875.98828 1.16015 1.52734.26563.71484.6289.08985.35548.89844.53515.53906.53516 1.52734 1.07422.35938h.53515l-.80469.53515.08985 1.70703.71484 2.69532.89063.80468.89453.98829.71484 1.2578 1.78516.53907 1.51953-.17969.35547 1.34375 1.60937-.80469.98047-.53906.26953.26953.31641-.21484.21875-.14453.80078.44922.44922-.35938h.35547l.53515-.26953.53907-.71875.53515-.26953.625-.98828 1.16016.44922.83984.3711 1.39454.61718 1.6953-.17969h1.60548l1.78515.08985.17969-1.70704.53516-1.34375.80468.26954.4922.84765.40233.40625-.08984.53906v.35938l.71485.44922.71093-.26953h1.42969l.35938.98828.4453 1.25781.71485 1.34375 1.25.6289 1.69531.62891.71485-.17969.17969-.53906.98046-.08984.44922.35937.08594 1.25782-.26563.6289-.53515.17969v.53906l.71484.98438.26563.53906.98437.98828.80078 1.07813-.26562.35937-.08985.89844-.625 2.33203-.35546 2.0664-.08985 1.79298-.17969.71875-.08984.53906v1.4375l-.98047 1.88281-.35937 1.70703-.53516.89844-.80469 1.16797-.26562.53906 2.05469 1.2539.08593.35938-.35546.53906-.08985-.17968v.80859l.08985 1.4375-.44532.71484-1.07422.09375-.26562.71485.53515.89844.8047.71875 1.16015.80859 1.33984.26953.44531.35938-.35546.44921-1.78907-.08984-1.25-.44922-.71484-.71875-.625-.08984-.17578 3.58984-.1875 1.3086h89.35937V311.70313h-55.26953v49.08203l.76172.125 3.28906.54296 2.02344 2.83594v2.7539l2.35156.33204 2.34766.33203h4.05078l-1.3789 4.16016-2.02344.70703-2.02344.70312-.54297.34375-2.59375 1.6172-.1875.11718-2.02344-2.07813-.73046-2.74218-2.67188-2.07813-1.375-3.5-.0664-.08203-1.95704-2.67188 2.75-1.41796v-49.08204H294.42187v91.41407l.1172.03125.1328.01172.07422.07421.10547.04688.08985.0586.08593.05859.08985.0586.29687.29687.0586.08984.03125.11719.02734.11719.01563.13671-.03125.1172-.0586.08983-.0586.08594-.04296.10547-.04688.10156-.02734.1211v.14453l.17578.26953.14844.14844.07422.08594.07422.07421.04296.10547.0625.08985.0586.08593.04297.10547.0586.08985.04687.10156.04296.10547.0586.08594.11719.17968.07421.07422.0625.08594.0586.08984.04297.10547.0586.08985.05858.08593.0625.08985.0586.08984.04297.10156.11719.17969.07421.07422.0586.08594.07422.07421.08984.0586.10547.04687h.14844l.1328-.01562.13282.01562.10156-.04687.07422-.07422.04688-.10156-.01563-.13281v-.14844l-.04687-.10547-.02735-.11719-.04687-.10156-.02735-.1211-.04296-.10156-.0625-.08984-.04297-.10156-.04297-.10547-.03125-.11719-.01563-.13281-.01171-.13672.08593-.0586.0586-.08593.12109-.03125.04297.10547.01562.1328v.1172l.0586.10156.0586.08984.08983.0586.14844.14843.0586.08985.04296.10547-.01171.10156.08593.0586.10547.04687.08594.0586.08984.05858.07422.07422-.11719.02735-.10546.04687-.08594.0586-.07422.07421-.0586.08985-.0625.08594-.02734.12109-.04687.10156-.04297.10547-.03125.11719-.01172.13281-.01563.13281v.14844l.02735.11719.04687.10547.04297.10156.0586.08984.07421.07422.08985.0586.07422.07421.08984.0586.0586.08984.04296.10547.04688.10156.11719.03125.1328.01563h.14845l.11718-.03125.10547.04297.04297.10547.04688.10156.02734.1211L299.5 410l.02734.11719.03125.1211.02735.11718.10547.04297.10156.04687.13281-.01562.14844.14844.0625.08593.07422.07422.07031.07422.08984.0625.10547.04297.10156.04297.1172.03125.13671.01562.11719-.03125.07422-.07422.02734-.11718-.01172-.13282-.03125-.12109-.02734-.11719.04297-.10547h.11719l.08984.0625.11719.02735h.14843l.13282.01562h.14843l.13282.01563.1328-.01563h.14845l.1328-.01562.13282-.01172.13672.01172.11719-.02735.13281-.01562.1914-.0586-.05859.17579-.01562.1328-.02735.1211-.01562.13281-.0586.08594-.1328.01563-.10548.04687-.10546.04297-.1172.03125-.11718.02735-.26563.03125h-.14843l-.13281.01562-.07422.07422.05859.08594.14844.14843.11719.1797.07421.0703.08985.0625.08984.0586.08594.0586.08984.05858.10156.04297.10547.0625.10547.04297.08594.0586.10547.04687.10156.04297.17969.11719.0586.08984-.04298.10156-.04687.10547.01562.13281.22266.22266.0586.08985.04296.10156.03125.1211.04297.10155.01563.13282.03125.11718.01171.13672.03125.11719.14844.14844.10156.04297.10547.04296.1172.03125.1328.01563.13672.01563h.11719l.11719-.03125.08984-.0586.04297-.10547.04688-.10156.04296-.10547.03125-.11719.01172-.1328v-.14845l-.01172-.1328-.01562-.13282-.03125-.11719-.04297-.10547-.04688-.10547-.04296-.10156-.04297-.10547-.01563-.13281.01563-.13281.02734-.11719.03125-.11719.02735-.1211.04687-.10155.08984-.0586.08594-.0625.07422-.07422.08984-.05859.22266-.22266.0586-.08593.07421-.07422.11719-.17969.0586-.08594v-.14844l-.07423-.07421-.10156-.04688-.10547-.04297-.10156-.04297-.0586-.08984-.04687-.10547-.02734-.11719.08984-.05859.11719-.03125.10156-.04297.17969-.11719.14844-.14843.01172-.13282-.01172-.10546-.08985-.0586-.1328.01563h-.14845l-.1328.01562-.13282-.01562-.1211-.03125-.08593-.0586-.07422-.07422-.0586-.08984-.0625-.08594-.11718-.17969-.0586-.08593.03125-.1211.08594-.05859.1211-.03125.05859-.08594v-.1211l-.03125-.11718-.0586-.08984-.05859-.08594-.04687-.10547-.02735-.11719-.01562-.1328.0586-.08985.07421-.07422.08984-.0586.1172-.17968.07421-.07422.0586-.08594.14843-.14844.1211-.03125.1328-.01562.13282.01562.07422.07422.04297.10547.01562.13281-.03125.1172-.11719.03124-.1328.01172-.14844.14844-.04297.10547-.04688.10156-.02734.1211-.03125.11718v.14844l.03125.11719.04297.10546.05859.08985.07422.07031.07422.07422.11719.03125.12109.02734.11719-.02734.1328-.01563h.1172l.08984.0586.07422.07422.04687.10546.0586.08594.10156.04688.13281.01562.10547.04297.08594.0586-.01172.10546-.07422.07422-.17969.11719-.05859.08984-.08984.0586-.07032.07422-.07421.07421-.0625.08985-.02735.11719-.01562.1328.01562.13282-.01562.13281v.14844l.01562.13281.02735.1172.03125.12108.07421.07422.08985.0586.08594.0586.08984.05858.11719.03125v.08594l-.10157.04688-.08984.0586-.26563.03124-.11718.02735h-.14844l-.10547.04296-.10156.04688-.0586.08984-.0625.23438-.01171.13281-.03125.1211-.01563.1328v.29298l-.01172.1328.01172.13673.01563.1328.1328.01563.13282.01172.1211.03125.08593.0586.07422.07421.04688.10547.04296.10157.01563.1328v.44532l-.01563.13281v.44532l.03125.26562.02735.11719.01562.13281.03125.11719.08594.21094.03125.26562v.14844l-.03125.11719-.02734.11718-.03125.1211-.02735.11719-.03125.11718-.03125.1211-.01171.1328-.01563.13282.08984.0586.1172-.03125.10155.01562.04688.10547-.03125.26562v.44141l-.04297.10547-.04688.10547-.04296.10156-.04297.10547-.0586.08594-.03125.12109-.04296.11719-.03125.11719-.01563.1328.01563.13282.05859.08984.10547.04688.08594.0586.05859.08593-.01172.13672-.03125.11719-.04297.10156v.44531l-.01562.13281v.14844l-.03125.11719-.04297.10547-.02735.11719-.04687.10546-.04297.10157-.03125.12109-.02734.11719-.03125.13281-.03125.11719-.02735.11719-.04297.10546-.03125.1172-.03125.12108-.01171.13282-.01563.13281v.29688l.02734.11718v.14844l.04688.39844.02734.11719.0586.08984.12109.03125h.14844l.13281-.01563.0586.08985v.11719l-.0586.08984-.08984.0586-.10157.04296-.10546.04688-.08985.05859-.08594.0586-.13671.01562-.1172-.03125-.1328-.01563-.10157.04688-.0625.08594-.01172.13671-.01562.13282-.03125.11719-.02735.11718-.01562.13281-.03125.1211v.29687l.01563.13282.03125.11718v.14844l.01171.13281v.14844l-.02734.11719-.04688.10156-.02734.1211-.03125.11718-.0586.08985-.07421.07421-.10156.04297-.10547.04688-.11719.02734-.1211.03125-.10156-.04687.0586-.08594.10547-.04688.02734-.11718.03125-.11719.02734-.1211.03125-.11718v-.14844l.01563-.13281-.03125-.11719-.04297-.10547-.10547.01563-.07422.07422-.10156.04296-.08984.0625-.07422.07422-.04297.10157-.01563.1328-.03125.1172L304.25 426l-.03125.11719-.02734.11719-.03125.12109-.02735.11719-.03125.11718-.04297.10547-.08984.0586h-.08984l-.1172-.03125-.03124-.08594.01562-.13672-.03125-.11719v-.14844l-.01171-.1328v-.14844l-.0625-.23438-.02735-.1211-.04297-.10156-.04687-.10546-.0586-.08594-.05859-.08985-.04297-.10546-.0625-.08594-.14844-.14844-.0703-.07422-.10548-.04687-.10547-.04297-.10156-.04297-.29687-.29688-.08985-.07421-.08594-.0586-.10546-.04297-.08985-.0625-.08594-.0586-.10546-.04296-.08985-.0586-.08594-.0625-.07421-.0703-.10547-.04688-.08594-.0586-.10547-.04296-.08984-.0625-.10156-.04297-.10547-.04297-.08594-.0586-.10547-.04687-.10547-.04297-.10156-.04687-.08985-.0586-.10156-.04297-.10547-.04296-.08984-.0625-.11719-.02735-.13281-.01562-.13281.01562H299.75l-.13281.01563-.11719-.03125-.08984-.0586-.07422-.07422-.08985-.05859-.10156-.04688h-.14844l-.12109-.02734-.10156-.04297-.07422-.07422-.11719-.17968-.08984-.0586-.10156-.04297-.08985-.0625-.10547-.04296-.08984-.0586-.08594-.0586-.10547-.04687-.0586-.08594-.05858-.08984-.04297-.10547-.04688-.10156-.07422-.07422-.08594-.0586-.07421-.07421-.08985-.0586-.22265-.22265-.04297-.10547-.03125-.26563.10547-.04296h.14453l.10547.04296.07421.07422.08985.0586.08594.0586.10546.04687.08985.05859.14844.14844.0703.07422.14845.14843.0625.08594.07421.07422.08594.0586.07422.07421.08985.0625.08984.0586.08594.05859.26953.17578.10156.04688.10547.04296.10156.04297.04688-.07421.05859-.08594.07422-.07422.07031-.07422.10547.04297.07422.07422.0586.08984.04296.10156.04688.10547.04296.10547.1211.02735.11719-.02735.07421-.08984.04297-.10547.0586-.08985.07422-.07421.10546-.04297.1172-.02735.1328.01172.08985.0586.14844.14843.05859.08985.04297.10547.04687.10156.04297.10547.04297.10156.10547.04688.10547.04296.13281.01563.08594-.0586.0586-.08984.07421-.07422.10547-.04297.11719.02735.10547.04687.10156.04297.10547.04297.10156.04688.17969.11718v.11719l-.01563.13281.01563.13281.01562.13672.0586.08594.10156.04688.1211.02734.11718.03125h.14844l.11719-.03125.05859-.08984.17969-.1172.05859-.08983.07422-.07422.0586-.08594.11718-.17969.17969-.11719.11719.03125.08984.0586.04297.07422-.01563.1328v.1172l.08985.05859h.14843l.13282-.01563.1328-.01171.26563-.03125.10547-.04297.11719-.03125.1211-.02735.07421-.07421.07031-.07422.0625-.08985-.01562-.10547-.04688-.10156-.10156-.04297-.10547-.01562-.11718.02734-.26563.03125h-.14844l-.07421-.07422-.08985-.0586-.11719-.03124-.11718-.02735-.13282-.01562h-.14843l-.13282.01563h-.29687l-.10547-.04688-.14844-.14844-.04297-.10156-.05859-.08984.22266-.22266.08593-.0586.10547-.04296.11719-.03125.13281-.01563.13281.01563.13672.01562.10157.04297.1328-.01172.08985-.0625.10156-.04297.0625-.08984-.04687-.10156-.08984-.0586-.1172-.03125-.10155-.04296-.0586-.08985-.0625-.08984v-.11719l.01563-.13281.10547-.04688.07421-.07031v-.1211l-.08984-.05859-.03125-.11719.08985-.05859.07421-.07422.04297-.10547.0586-.08984.04687-.10156.01563-.13281v-.14844l-.04688-.10547-.04297-.10156-.08984-.0586-.13281-.01562-.10157-.04297-.13671-.01563-.1172-.03125h-.4453l-.13282-.01562-.13281-.01172-.13281-.01563-.11719-.03125h-.14844l-.13281-.01562-.13281-.01172-.26563-.03125-.1211-.04297-.08593-.0586-.07422-.07421v-.14844l.01172-.13281.10547-.04688.10156-.04296.13281-.01563h.15235l.13281-.01562h.29297l.1211.03125.10156.04296.08984.0586.23438.0625.12109-.04688.08984-.05859.10156-.04297.13282-.01562.10547.04296.10156.04688.13281.01172.1211-.02735h.14453l.12109-.03125.11719-.02734.10547-.04687.07421-.07422.08594-.0586.14844-.14843.0586-.08594.04687-.10547.02734-.11719.01563-.10547-.10156-.04296-.08985-.0586-.11719-.03125-.10546-.04297-.08985-.0625-.07422-.08594-.07422-.07421-.10156-.04297-.10547-.04688-.10156-.04297-.0586-.08984-.04687-.10156-.08594-.21094-.0625-.08594-.05859-.08984-.07422-.07422-.08594-.0586h-.26953l-.11719.03126-.08984.05859-.10156.04297-.13281.01562-.10547-.01562-.02735-.11719-.0625-.08984-.11718-.03125-.10157-.04297-.14843-.14844-.03125-.11719-.01563-.10546.07422-.07422.17969-.1172.11719-.02733.11718-.03125.13672.01562.10156.04297.10547.04297.10156.04687.10547.04297.1172.03125.1328.01563.1172.02734.1328.01563.10547-.01563.08985-.0586-.07422-.07421-.10547-.04297-.07422-.07422-.07422-.08984-.14844-.14844-.08593-.0586-.08985-.05859-.07422-.07422-.08984-.0586-.10156-.04687-.1211-.02734-.10156-.04688-.10547-.04296-.11719-.03125-.10156-.04297-.1211-.03125h-.14843l-.11719.03125-.10546.04297-.08594.0625-.17969.11718-.08594.0586-.08984.0586-.10547.04687-.08594.05859-.10547.04297-.10156.04297-.10547.04687-.07422.07422-.05859.08985-.0586.08593-.04687.10547-.0586.08594-.07421.07422-.13281-.01172-.1172-.03125h-.11718l-.07422.07422-.08984.0586-.07422.07421-.08984.0586-.08594.05859-.10547.04687-.10156.04297-.13672.01563-.10156-.04297-.14844-.14844-.10547-.04688h-.08594l-.10547.04688-.10156.04297-.1211.03125-.11718-.03125-.07422-.07422v-.11719l.03125-.1211.07422-.0703.0586-.08985.07421-.07422.11719-.03125.10547-.04296h.29297l.13281-.01563.13672-.01563.10156-.04296.08985-.0586.10156-.04687.08984-.0586.13281-.01171.08985.05859.13281.01172.08984-.0586.08594-.05859.10547-.04297.08984-.0586.08594-.0625.08985-.05859.14843-.14843.0586-.08594.05859-.08985.10547-.04296.13281-.01563.11719.02735.1211.03125.05859-.0586.05859-.08984.03125-.26563.02734-.11719.10547.01172.13281.01563.10157-.04297.08984-.0586.0586-.08984.07421-.07422.0586-.08984.04687-.10156.01172-.13281-.01172-.13282-.04687-.10547-.14844-.14843-.0586-.08985-.05859-.08594-.04297-.10546v-.44532l.01563-.1328v-.14845l.01172-.1328-.0586-.0586-.08984.0586-.10156-.04298-.17969-.11719-.08594-.05859-.0625-.08984-.0586-.08985-.07421-.07421-.08594-.0586-.1211.03125-.10155.01172-.10547.04688-.08594.05859-.10547.04297-.14844.14844-.08984.05859-.08594.0586-.08984.0625-.10547.04296-.13281.01563v-.1211l.10547-.04297.11718-.03125.07422-.0703.04297-.10548v-.14844l-.02734-.11718-.14844-.14844-.13281-.01563h-.14844l-.11719.03125-.10547.04297-.10156.04297-.08984.0625-.11719.02735-.07422-.07422.01172-.13281-.04297-.10157-.04297-.10547-.08984-.05859-.11719.02734-.1211.03125-.11718.03125-.10156.04297-.1211.03125-.10156.04297-.10547.04297-.08984.0586-.10156.01562v-.11719l.01562-.13281-.0586-.08985-.07421.04297-.14844.14844-.0586.08985-.07421.07421-.04688.10547-.04296.10156-.07422.07422-.0586.08985-.07422.07422-.05859.08593-.07422.07422-.08984.0625-.07422.07031-.07422.07422-.10156.01563-.13281.01562-.10547-.04296v-.1211l.14843-.14844.04297-.10156.0586-.08984.04687-.10156.04297-.10547.0586-.08985.03124-.11719.04297-.10156.03125-.1211.02735-.11718.04687-.10547.04297-.10156.04297-.10547.07422-.07031.08984-.0625.08985-.0586.10156-.04296h.29687l.26563-.03125.10547-.04297-.07422-.07422-.11719-.03125-.10547-.04297-.08984-.0586-.10156-.04687-.08985-.0586-.10156-.04296-.10547-.04297-.08984-.0625-.08594-.0586-.10547-.04296-.10156-.04297-.1211-.03125-.11718-.03125-.10157-.04297L297.5 410.25l-.10156-.04297-.08985-.0586-.04296-.10546-.01563-.13281.10156-.04297.13281-.01563.13672.01563.13282-.01563.10156-.04297.0586-.08984.01562-.10547-.08985-.0586-.07421-.07421-.10157-.04297-.08984-.0586-.14844-.14843-.04297-.10547-.01562-.13281v-.29297l-.0586-.08985-.08984-.05859-.07422-.07422-.04297-.10547-.03125-.11718-.0586-.08985-.07421-.07422-.11719-.02734-.07422-.07422-.08984-.0586-.08984-.0625-.08594-.05859-.07422-.07421-.0586-.08594-.04687-.10547-.08594-.0586-.14843-.14843-.19532-.0586-.1328.01563-.10157.04297-.07422.07422-.04688.10156-.04296.10547-.0586.08984-.0586.08594-.29687.29687-.08984.0586h-.08594l-.0625-.08594-.04297-.10547.03125-.11719.0586-.08984.02734-.11719-.01172-.13281-.08984-.0625-.10547.04688-.11719.02734-.11719.03125-.26953.17578-.10156.04688-.11719.02734-.10546.04687-.08985.0586-.10156.04297-.0586-.08594-.04687-.10547.01563-.13281.04687-.10547.07031-.07422.07422-.07031.0586-.08985v-.14843l-.04297-.10547h-.23829l-.10156.04687-.03125.11719-.02734.11719-.03125.1211-.07422.04296-.13281.01563-.07422-.04688-.04297-.10156-.04297-.10547-.04687-.10156-.04297-.10547-.1211.03125-.10156.04297-.13281.01562-.11719.03125-.10547.04297-.08984.0586-.10156.04687-.1211.02734-.13281.01563-.10156-.04297-.0586-.08985-.04687-.10546-.04297-.10157-.04297-.10546v-.1172l.0586-.08984.08593-.05859.17969-.11719.10156-.04687.10547-.04297.10547-.0586.10156-.04296.08985-.0625.10156-.04297.10547-.0586.10156-.04687.08984-.0586.10547-.04296.10156-.04297.08985-.0625.10156-.04297.13672-.01563.11719.03125.10156.04297.1211.03125.10156.04297.10546.04688.10157.04296.10547.04297.10156.04688.10547.04297.10156.04297.10547.04687.08594.0586.10546.04296.1172.03125.10546.04297.10156.04688.08985.0586.10547.04296.10156.04297.10547.04687.11719.02735.10156.04687.1211.02735h.14843l.08594-.0586.01562-.10156.0586-.08984-.02735-.1172-.07422-.07421-.11719-.17969-.07421-.07422-.08985-.07421-.17969-.1172-.08593-.05859-.10547-.04296-.10156-.04688-.26954-.17578-.05859-.08985-.07422-.07421-.0586-.08985-.04296-.10156-.03125-.11719-.01563-.13672v-.5625l-.01171-.1328-.01563-.13282-.03125-.11719-.01562-.13281-.01172-.13281-.03125-.1211-.22266-.22265-.0586-.08594-.01562-.10547.03125-.11719.13281-.01562v-91.41406H172.9922v1.45312l-.0586.23438-.35156 1.05078-.17187.52343-.1172.34766-.17577.41016-.11719.17187-.23438.29297-.23046.0586h-.35157l-.11718.05859-.23047.40625v.29297l.11719.17578.23046.23047.1172.23437.64062.75781.29297.46485.17578.23437.23047.35156.23437.34766.64063.8164.17578.46485.17187.41016.11719.69531.17578.46875.11719 1.39844.0586.46484v.875l.11718 1.04688v4.78125l-.0586.46484-.35156 1.28125-.17578.52344-.11328.41015-.35156.9297L172.93359 336l-.23437.58203-.11719.17578-.17187.34766-.17578.40625-.35157.8164-.0586.29297-.11327.29297-.11719.28906-.0586.17579-.11718.875-.0586.40625-.05859.11718-.0586.17579-.05859.17187-.23047.52734-.11718.17188v.23437l-.11719.23438-.0586.17187-.17577.58594v.28906l-.0586.17579v.29296l-.0586.11329-.05859.52734v.17187l-.05468.23438v2.6211l-.17578.8164-.1172.17578-.17577.23438-.1172.17187-.11327.23438-.58594.93359-.23047.28906-.29297.46485-.17578.23437-.28906.35156-.35156.69922-.11328.23047-.17579.41016-.17578.23046-.40625.52735-.8164.69922-.29297.17187-.28906.23438-.17579.11719-.17578.17578-.52344.40625-.52734.17578-.17187.17578-.23438.05469-.64062.17578h-.75782m12.21094 31.02344l-1.07422.44921.35938.89454 1.25-.71485.44531-.53906-.98047-.08985"/><path fill="#d3d3d3" fill-opacity="0" fill-rule="evenodd" d="M201.50781 416.59766h-.89453l.44922.6289.98047.35938.80469-.08985.4453-.98828-.17577.08985-.71485-.35547-.89453.35547m154.6211 59.0703l-.0586-.52343v-.29297l.11328-.29297.0586-.23046.46875-.46875h.11328l.11719-.11329.11718-.05859h.17579l.23437-.0586h.34766l.23437.0586.11719.0586.23047.17187.0586.17578.11718.58203v.29297l-.11719.17578-.17187.28906-.17579.17579-.52734.52343-.23047.23438-.11719.0586h-.17578l-.11718-.0586-.40625-.29297-.17579-.11719-.11718-.0586-.0586-.11327-.05468-.1172m6.64062-10.95702l-.0586-.17188v-1.10937l.0586-.17188.17578-.0586.17188-.05858h.17578l.23437-.0586.1172.0586.05858.69921-.05859.17188-.11719.17578-.11718.0586-.23438.52343-.11328.0586h-.23438l-.05859-.1172m9.61328-14.39062l-.11719-.17578v-.69922l.29297-.875.1172-.17187.17577-.35156.11328-.23047.1172-.29297.35155-.75781.1172-.23047.17187-.23438h.17578l.11719-.0586h.64062l.11719.0586.23437.23438.17188.11328.35156.29297.11719.11718.11328.17579v.11328l.11719.05859.11718.11719v.69922l-.05859.17578v.23047l-.0586.17578-.34765 1.05078-.11719.23047-.11719.23437-.11718.0586-.23047.23437-.64063.28906h-.875l-.41015-.11718-.64063-.46485"/><path fill="none" stroke="#bebebe" stroke-linecap="round" stroke-linejoin="round" stroke-miterlimit="10" stroke-width=".5" d="M467.95703 311.69531H144.02734v168.625h323.9297v-168.625"/><g clip-path="url(#a)"><path fill="#fff" fill-opacity="0" fill-rule="evenodd" d="M144 475.89063v4.4375h.0039H144v-39.10547 34.66796"/></g><g clip-path="url(#b)"><path fill="#50fcfc" fill-rule="evenodd" d="M144 320.54688v.16796-9.04296h.0039H144v8.875"/></g><path fill="#50fcfc" fill-rule="evenodd" d="M144 439.4961v1.72656h.0039v-1.72657H144"/><path fill="#fff" fill-opacity="0" fill-rule="evenodd" d="M144 320.71484V439.4961h.0039V320.71484H144"/><g clip-path="url(#c)"><path fill="#fff" fill-opacity="0" fill-rule="evenodd" d="M144.0039 480.32813v-39.10547l.87891-.83985-.8789-.88672V320.71484l.55859-.16796 3.875-.58594 3.1836-3.85156-.26563-4.4375h76.97266v87.3203l-2.47266 1.44532-1.96484.10938-4.4375.13671-4.4375 1.12891-3.17579 3.0625-1.26562.84766L206.5 409.3164l-.36328.5078-4.3086 3.9297 1.34766 4.4375-1.47656 1.8203-4.4375-.61327-4.4414.7539-3.03126 2.47657-1.40625.40234-4.4375.97266-3.5 3.0664-.9375.79297-4.4414 2.73828-1.16016.90625-3.27734 2.09375-3.1797 2.34375-1.2578.33985-4.4375.45703-3.80078 3.64062-.63672 1.8086-3.03125 2.6289-.1797 4.4414 3.21095 2.88673 1.83984 1.55078-.9961 4.4375.69532 4.4375 2.89844 2.58984 4.4375-.17578 4.4375-1.52734 4.4375-.23438 1.28906-.65234 3.15234-1.6875 4.4375-.04297 4.4375-.38672 4.4375-.17187 4.4414-.46875 4.4375.27343 4.4375-.49218 4.4375.67578 4.44142.90625 4.4375-.46485 4.4375-.88671 2.67187-1.69141 1.76563-.90625 4.4375-.86719 3.71875-2.66406.72265-.60156 3.19922-3.83594 1.23828-2.35547 3.72656-2.08594.71094-.20703 3.52344-4.23047-.4414-4.4375-3.08204-2.42969-4.4375-1.74218-.10547-.26563-.0586-4.4375-4.27343-3.54687-4.4414-.83203-.03125-.0625.03125-.19141 4.4414-3.28125 1.82813-.96484 2.60937-.46485 1.30469.46485 3.13281 1.6875 1.53516-1.6875-1.53516-1.76954-1.32031-2.66796-3.11719-3.39844-.46094-1.03906-3.73047-4.44141-.24609-.25781-4.4414-3.19922-2.42188-.98047-2.01563-1.44531v-87.32031h26.62891v115.8203l-4.08203 4.01563.95703 4.4375 3.125 2.42969 4.4414-.01172 2.27735-2.41797.67188-4.4375-2.94922-1.19922-4.4414-2.8164V311.67188h13.3164v116.0078l-4.3086 3.82813 4.3086 3.41406 4.4375-1.01171 4.4414-.35547 2.2422 2.39062 2.1953 1.91406 2.96094-1.91406-2.08203-4.4375-.8789-.86328-4.4375-1.6914-4.44141-.69922-4.4375-.57422V311.67188h44.38281v137.0625l-1.05078.52734 1.05078.45703.61719-.45703-.61719-.52735v-137.0625h35.50781v121.21875l-3.07422 3.0547 3.07422 3.1914 1.11328 1.2461 3.32422 3.1914 4.08203-3.1914-4.08203-3.26173-1.3125-1.17578-3.125-3.05469V311.67188h31.07031v120.28125l-3.28125 3.9922.38672 4.4375-1.54687 1.60156-1.82031 2.83593-1.71875 4.4414 3.53906 3.46876 4.02344-3.46875-2.79297-4.4414 3.21094-3.16016 2.18359-1.27735-1.11719-4.4375-1.0664-3.99219V311.67188h8.875V443.1797l-1.96485 1.64062-2.47265 2.33985-2.40625 2.10156 2.40625 2.14062 1.7578-2.14062 2.6797-2.8086 1.55859-1.6328-1.5586-1.64063V311.67188h79.88672v168.65625h-65.48828l-1.08203-1.58594-4.09765-2.85156-.34375-.4336-2.22266-4.0039-2.21485-3.33594-.6875-1.10156-2.1328-4.44141 2.8203-3.79688.82422-.64062-.82421-1.33203-4.4375-1.88672-4.1172 3.21875-.3203.32812-2.8125 4.10938.35546 4.4414.6836 4.4375.74219 4.4375.64453 4.4375H144.0039"/></g><path fill="#50fcfc" fill-rule="evenodd" d="M144.88281 440.38281l-.8789.83985v-1.72657l.8789.88672"/><g clip-path="url(#d)"><path fill="#50fcfc" fill-rule="evenodd" d="M144.5625 320.54688l-.5586.16796v-9.04296h4.4336v3.33593l-1.33984 1.10156 1.33984.59766.4961-.59765-.4961-1.10157v-3.33594h2.91797l.26562 4.4375-3.18359 3.85157-3.875.58594"/></g><path fill="#00e8fc" fill-rule="evenodd" d="M148.4375 316.70703l-1.33984-.59765 1.33984-1.10157.4961 1.10156-.4961.59766"/><path fill="#50fcfc" fill-rule="evenodd" d="M157.3164 452.14844l-3.21093-2.88672.17969-4.4414 3.03125-2.62891.63672-1.8086 3.80078-3.64062 4.4375-.45703 1.2578-.33985 3.1797-2.34375 3.27734-2.09375 1.16016-.90625 4.4414-2.73828.9375-.79297 3.5-3.0664 4.4375-.97266 1.40625-.40234 3.03125-2.47657 4.4414-.7539 4.4375.61328 1.47657-1.82031-1.34766-4.4375 4.3086-3.9297.36328-.5078 4.07422-3.59375 1.26562-.84766 3.17578-3.0625 4.4375-1.1289 4.4375-.13673 1.96485-.10937 2.47266-1.44531v1.99219l-4.4375.04687-4.4375.46484-4.4375 2.76954-.63282.60937-3.8086 2.54688-2.14452 1.89453-2.29297 3.23437-1.3164 1.20313.85155 4.4375.46485.45703.95312-.45703 3.48438-1.28516v3.17578l-4.4375 1.03125-1.86328 1.51563 1.86328.76953 4.4375.11328 1.01562-.88281-1.01562-2.54688v-3.17578l.66406 1.28516 2.70703 4.4375-3.3711 2.92578-4.4375-.91016-4.4375-1.82812-.73046-.1875-3.70703-1.38282-3.67578 1.38282-.76563.18359-4.4375 1.25-4.4375 2-1.15234 1.00781-3.28516 2.78516-2.21094 1.65234-2.23046 3.33203-1.625 1.10547-2.8125.63672-4.4375 1.34375-4.4375.17578-2.37891 2.28125-1.98438 4.4375.60938 4.4414 3.7539 3.65626 4.4375.63281 4.4375-2.08594 2.09766-2.20312 2.33985-3.7539 2.53515-.6875 1.90625-.48048 3.0039-3.95703 1.4336-.23437v3.96094l-.64453.71093.64453 1.1211 3.39063-1.1211-3.39063-.71094v-3.96093l4.4375-1.01563 3.52735 1.25.91015.82422.9336-.82422 3.5078-1.66797v10.4922l-.08202.05468-4.35938 2.60547-3.46484 1.83203 3.46484 1.73437 3.03516-1.73437 1.40625-4.19922.05469-.23828-.0547-.05469v-10.49219l4.4375.58594 3.85157 1.08203-.46875 4.4375-.35156 4.4414-2.57813 4.4375 3.98438 1.51563 4.4375-1.0625 4.4414 1.22266 4.4375.95703 4.4375-.73828 3.97266-1.89453.46484-1.03906 4.4375-.72266 3.71094-2.67578-3.71094-2.39844-4.4375.51563-4.4375.46093-4.4375-.55859-2.5625-2.46094-1.875-1.9961-4.27734-2.4414 1.73047-4.4375 2.54688-.9414 4.4375-2.10157 4.4375.3086 4.4375-.4375v2.78906l-1.83985.38281 1.83984 2.34375.32422-2.34375-.32422-.38281v-2.78906l2.66016 3.17187 1.77734 2.16406 4.44141.85547 1.9336 1.41797 2.5039 2.08985 4.4375-1.3125.64844-.77735-.64844-1.41797-3.07812-3.01953-1.35938-.73047-1.44531-3.70703-1.89453-4.4375-1.09766-.91406-4.4414-.1875-1.83594-3.33984.77344-4.4375 1.0625-.2461 4.4414-1.65625 4.4375-2.03125.39453-.5039-.39453-.4297-1.76562-4.0078-2.67188-3.01563-3.7461-1.42578-.6953-.52344-4.4375-3.36719v-1.99218l2.01562 1.44531 2.42188.98047 4.4414 3.19922.2461.25781 3.73046 4.4414.46094 1.03907 3.11719 3.39844 1.32031 2.66796 1.53516 1.76954-1.53516 1.6875-3.13281-1.6875-1.30469-.46485-2.60937.46485-1.82813.96484-4.4414 3.28125-.03125.1914.03125.0625 4.4414.83204 4.27344 3.54687.0586 4.4375.10546.26563 4.4375 1.74219 3.08203 2.42968.4414 4.4375-3.52343 4.23047-.71094.20703-3.72656 2.08594-1.23828 2.35547-3.19922 3.83594-.72266.60156-3.71875 2.66406-4.4375.86719-1.76562.90625-2.67188 1.6914-4.4375.88672-4.4375.46485-4.4414-.90625-4.4375-.67578-4.4375.49218-4.4375-.27343-4.4414.46875-4.4375.17187-4.4375.38672-4.4375.04297-3.15235 1.6875-1.28906.65234-4.4375.23438-4.4375 1.52734-4.4375.17578-2.89844-2.58984-.69531-4.4375.99609-4.4375-1.83984-1.55078"/><path fill="#00e8fc" fill-rule="evenodd" d="M158 449.26172l-.60938-4.4414 1.98438-4.4375 2.3789-2.28126 4.4375-.17578 4.4375-1.34375v2.23047l-3.8789 1.57031-.5586.10938-4.26171-.10938-.17578-.00781-.01172.00781-3.98438 4.4375 2.17188 4.4414 1.82422 1.77345 4.4375 1.49609 3.5-3.26953.9375-.57031 3.80859-3.8711-.14063-4.4375-3.66796-1.57031v-2.23047l2.8125-.63672 1.625-1.10547 2.23047-3.33203 2.21093-1.65234 3.28516-2.78516 1.15234-1.00781 4.4375-2 4.4375-1.25.76563-.1836 3.67578-1.3828v2.80468l-4.4414.69922-4.4375 1.03125-2.28516 1.28906-2.15235 2.3711-2.4414 2.0664-1.9961 2.57031-1.35156 1.8672 1.35156 1.36327 4.4375.03516 4.4375-1.11328.51953-.28516 3.91797-1.59375 4.4414.98047 4.4375-.35547 4.4375-.91015 4.4375-2.36329v9.15625l-1.20702 3.96094 1.20703 1.44531 1.23828-1.4453-1.23828-3.96094v-9.15625l.63281-.19532-.63281-.29297-3.41797-4.14453-1.01953-.34765-4.4375-1.8047-4.4375-.86718v-2.80469l3.70703 1.38282.73047.1875 4.4375 1.82812 4.4375.91016 3.3711-2.92578-2.70704-4.4375-.66406-1.28516-3.48438 1.28516-.95312.45703-.46484-.45703-.85157-4.4375 1.3164-1.20313 2.29298-3.23437 2.14453-1.89454 3.8086-2.54687.6328-.60938 4.4375-2.76953 4.4375-.46484v.8086l-4.4375 1.01562-2.82421 2.01953-1.61328 2.07813-3.3047 2.36328 3.3047 3.49218 3.29687.94532-3.29688.73046-2.15625 3.70704 2.15625 2.86718v4.76172l-.85937 1.25.85938.54297 3.28125-.54297-3.28125-1.25v-4.76172l1.33203 1.57032 3.10547 2.83203 2.80078 1.60937 1.63672 1.98047 4.4375-.92187 3.7578 3.3789.6797.86719 4.4414 1.1836.76172-2.05079-.76172-1.33984-4.4414.71094-3.44922-3.8086-.98828-2.79687-1.26563-1.64453 1.26563-2.36329.35546-2.07421 4.08203-.9375 4.21094-3.5.23047-2.42579.4961-2.01171-.4961-.5625-4.4414-2.88672-1.32422-.99219-3.11328-2.63281-4.4375-.40235v-.80859l4.4375-.04688 4.4375 3.3672.6953.52343 3.7461 1.42578 2.67188 3.01563 1.76562 4.0078.39453.4297-.39453.5039-4.4375 2.03125-4.4414 1.65625-1.0625.2461-.77344 4.4375 1.83594 3.33984 4.4414.1875 1.09766.91406 1.89453 4.4375 1.44531 3.70703 1.35938.73047 3.07812 3.01953.64844 1.41797-.64844.77735-4.4375 1.3125-2.5039-2.08985-1.9336-1.41797-4.4414-.85546-1.77735-2.16407-2.66016-3.17187-4.4375.4375-4.4375-.3086-4.4375 2.10157-2.54687.9414-1.73047 4.4375 4.27734 2.4414v6.34767l-.10937.08984.10938.1289.07812-.1289-.07813-.08985v-6.34765l1.875 1.9961 2.5625 2.46093 4.4375.5586 4.4375-.46094 4.4375-.51563 3.71094 2.39844-3.71094 2.67578-4.4375.72266-.46484 1.03906-3.97266 1.89453-4.4375.73828-4.4375-.95703-4.4414-1.22266-4.4375 1.0625-3.98438-1.51562 2.57813-4.4375.35156-4.4414.46875-4.4375-3.85156-1.08204-4.4375-.58594-3.50781 1.66797-.9336.82422-.91015-.82422-3.52735-1.25-4.4375 1.01563-1.4336.23437-3.0039 3.95703-1.90625.48047-2.53515.6875-2.33985 3.7539-2.09765 2.20313-4.4375 2.08594-4.4375-.63281L158 449.26172"/><path fill="#00d4fc" fill-rule="evenodd" d="M159.92969 449.26172l-2.17188-4.4414 3.98438-4.4375.01172-.00782.17578.00781 4.26172.10938.55859-.10938 3.8789-1.57031v1.82422l-4.4375.92187-4.4375-.76953-3.6289 4.03125 3.6289 4.41406.10938.02735 4.32813 2.25 2.41015-2.25 2.02735-1.23047 3.16015-3.21094-3.16015-4.1836v-1.82421l3.66797 1.57031.14062 4.4375-3.8086 3.8711-.9375.5703-3.5 3.26954-4.4375-1.4961-1.82421-1.77343"/><path fill="#00c4fc" fill-rule="evenodd" d="M161.7539 449.23438l-3.6289-4.41407 3.6289-4.03125v.40625l-3.26562 3.625 3.26563 3.96875 2.0703.47266 2.3672 1.23047 1.3203-1.23047 3.1172-1.89063 2.51172-2.55078-2.51172-3.32422-4.4375 1.125-4.4375-1.42578v-.40625l4.4375.76953 4.4375-.92187 3.16015 4.1836-3.16015 3.21093-2.02735 1.23047-2.41015 2.25-4.32813-2.25-.10937-.02735"/><path fill="#00b8fc" fill-rule="evenodd" d="M161.7539 448.78906l-3.26562-3.96875 3.26563-3.625v.40625l-2.89844 3.21875 2.89844 3.52344 4.03125.91797.40625.21094.22656-.21094 4.21094-2.55078 1.85937-1.89063-1.85937-2.46484-4.4375 1.33203-4.4375-2.08594v-.40625l4.4375 1.42578 4.4375-1.125 2.51172 3.32422-2.51172 2.55078-3.1172 1.89063-1.3203 1.23047-2.3672-1.23047-2.0703-.47266"/><path fill="#00a8fc" fill-rule="evenodd" d="M161.7539 448.34375l-2.89843-3.52344 2.89844-3.21875v.40625l-2.53125 2.8125 2.53125 3.08203 4.4375-2.74609 4.4375.89453 1.21093-1.23047-1.21093-1.60156-4.4375 1.53516-4.4375-2.7461v-.40625l4.4375 2.08594 4.4375-1.33203 1.85937 2.46484-1.85937 1.89063-4.21094 2.55078-.22656.21094-.40625-.21094-4.03125-.91797"/><path fill="#009800" fill-rule="evenodd" d="M161.7539 447.90234l-2.53124-3.08203 2.53125-2.8125v.40625l-2.16797 2.40625 2.16797 2.63672 3.83203-2.63672-3.83203-2.40625v-.40625l4.4375 2.7461 4.4375-1.53516v.85938l-2.12891.74218 2.1289.57031.5625-.5703-.5625-.7422v-.85937l1.21094 1.60156-1.21093 1.23047-4.4375-.89453-4.4375 2.7461"/><path fill="#00ac00" fill-rule="evenodd" d="M161.7539 447.45703l-2.16796-2.63672 2.16797-2.40625v.40625l-1.80078 2 1.80078 2.1914 3.18359-2.1914-3.1836-2v-.40625l3.83204 2.40625-3.83203 2.63672"/><path fill="#00c800" fill-rule="evenodd" d="M161.7539 447.01172l-1.80077-2.1914 1.80078-2v.8125l-1.07032 1.1875 1.07032 1.30077 1.89062-1.30078-1.89062-1.1875v-.8125l3.18359 2-3.1836 2.1914"/><path fill="#10cc00" fill-rule="evenodd" d="M161.7539 446.1211l-1.0703-1.30079 1.0703-1.1875v.8164l-.33593.3711.33594.41016.59765-.41016-.59765-.3711v-.8164l1.89062 1.1875-1.89062 1.30078"/><path fill="#24d000" fill-rule="evenodd" d="M161.7539 445.23047l-.33593-.41016.33594-.3711.59765.3711-.59765.41016"/><path fill="#00ac00" fill-rule="evenodd" d="M170.6289 445.39063l-2.1289-.57032 2.1289-.74219.5625.7422-.5625.5703"/><path fill="#00d4fc" fill-rule="evenodd" d="M179.50781 437.3086l-1.35156-1.36329 1.35156-1.86719 1.9961-2.5703 2.4414-2.06641 2.15235-2.3711 2.28515-1.28906 4.4375-1.03125 4.4414-.69922v2.58594l-4.4414.05078-1.95312.38281-2.48438 1.76953-2.19531 2.66797 2.19531 1.30469 4.4375-.60938 4.4414 1.14063 4.4375-.9414 4.27735-.89454-4.15234-4.4375-.125-.05078-4.4375-.38281v-2.58594l4.4375.86719 4.4375 1.80469 1.01953.34765 3.41797 4.14453.63281.29297-.63281.19531-4.4375 2.36329-4.4375.91015-4.4375.35547-4.4414-.98047-3.91798 1.59375-.51953.28516-4.4375 1.11328-4.4375-.03516"/><path fill="#fff" fill-opacity="0" fill-rule="evenodd" d="M183.94531 444.10938l-.64453.71093.64453 1.1211 3.39063-1.1211-3.39063-.71094"/><path fill="#00c4fc" fill-rule="evenodd" d="M188.38281 432.8125l-2.19531-1.30469 2.19531-2.66797 2.48438-1.76953 1.95312-.38281 4.4414-.05078 4.4375.38281.125.05078 4.15235 4.4375-4.27734.89453-4.4375.94141-4.4414-1.14063-4.4375.60938"/><path fill="#00e8fc" fill-rule="evenodd" d="M192.82031 455.4336l-3.46484-1.73438 3.46484-1.83203 4.35938-2.60547.08203-.05469.05469.05469-.0547.23828-1.40624 4.19922-3.03516 1.73437"/><path fill="#fff" fill-opacity="0" fill-rule="evenodd" d="M206.13672 421.11328l-1.86328 1.51563 1.86328.76953 4.4375.11328 1.01562-.88281-1.01562-2.54688-4.4375 1.03125"/><path fill="#50fcfc" fill-rule="evenodd" d="M210.57422 440.85938l-1.20703 3.96093 1.20703 1.44531 1.23828-1.4453-1.23828-3.96094"/><path fill="#00d4fc" fill-rule="evenodd" d="M215.01563 412.8086l-3.3047-3.4922 3.3047-2.36327 1.61328-2.07813 2.82422-2.01953 4.4375-1.01563v.8125l-4.4375 1.5625-.92579.66016-3.45312 4.4414 4.3789 3.22266 3.3086 1.21485-3.3086 1.40625-4.4375 2.11328-.53515.91797.53516.71093 3.16015 3.72657 1.27734 1.16406 2.26954-1.16406 2.16797-2.41797 1.71484-2.01953 2.72266-1.40625 4.4375-.22657 3.375-2.80468-.1211-4.4375-3.2539-2.34375-2.8125-2.09766-1.625-1.3711-4.4375-.85156v-.8125l4.4375.40235 3.11328 2.63281 1.32422.99219 4.4414 2.88672.4961.5625-.4961 2.01171-.23047 2.42579-4.21094 3.5-4.08203.9375-.35547 2.07421-1.26562 2.36329 1.26563 1.64453.98828 2.79687 3.44922 3.8086 4.4414-.71094.76172 1.33984-.76172 2.05078-4.4414-1.18359-.6797-.86719-3.7578-3.3789-4.4375.92187-1.63672-1.98047-2.80078-1.60937-3.10547-2.83203-1.33203-1.57032-2.15625-2.86718 2.15625-3.70704 3.29687-.73046-3.29688-.94532"/><path fill="#50fcfc" fill-rule="evenodd" d="M215.01563 425.82031l-.85938 1.25.85938.54297 3.28125-.54297-3.28125-1.25"/><path fill="#00c4fc" fill-rule="evenodd" d="M215.01563 418.90234l-.53516-.71093.53516-.91797 4.4375-2.11328v1.55078l-2.60938 1.48047 2.60938 3.36718 3.02734-3.36718-3.02734-1.48047v-1.55078l3.30859-1.40625-3.3086-1.21485-4.3789-3.22265 3.45312-4.44141.92578-.66016 4.4375-1.5625v.8086l-3.42968 1.41406-1.00781 1.1836-2.57032 3.2578 2.57031 1.89063 4.4375 1.89063 1.92188.65625 2.51563 1.4414 4.4375.67188 2.54296-2.11328-.82812-4.4375-1.71484-1.23438-4.30079-3.20703-.13672-.11328-4.4375-1.30078v-.8086l4.4375.85157 1.625 1.37109 2.8125 2.09766 3.25391 2.34375.1211 4.4375-3.375 2.80468-4.4375.22657-2.72266 1.40625-1.71484 2.01953-2.16797 2.41797-2.26953 1.16406-1.27735-1.16406-3.16016-3.72657"/><path fill="#50fcfc" fill-rule="evenodd" d="M215.01563 449.17188l-.10938.08984.10938.1289.07812-.1289-.07813-.08985"/><path fill="#00b8fc" fill-rule="evenodd" d="M219.45313 421.5586l-2.60938-3.3672 2.60938-1.48046 3.02734 1.48047-3.02734 3.36718m0-10.35156l-2.57032-1.89062 2.57031-3.25782 1.00782-1.18359 3.42969-1.41406v.8086l-1.46875.60546-2.96875 3.47656-.76172.96485.76172.55859 4.4375 2.27344 4.4375 1.30469.19921.30078 4.23828 1.41796 1.70704-1.41796-1.53125-4.4375-.17578-.12891-4.4375-2.5-2.4297-1.8125-2.0078-.60547v-.8086l4.4375 1.30079.13671.11328 4.30078 3.20703 1.71485 1.23438.82812 4.4375-2.54297 2.11328-4.4375-.67188-2.51562-1.4414-1.92188-.65625-4.4375-1.89063"/><path fill="#00a8fc" fill-rule="evenodd" d="M219.45313 409.875l-.76172-.5586.76172-.96484 2.96875-3.47656 1.46875-.60547v1.10547l-3.4336 3.9414 3.4336 1.88282 4.4375-.89063 2.27343 3.44532 2.16406.72265.8711-.72265-.8711-2.40235-3.26953-2.03515-1.16797-.63282-4.4375-3.30859v-1.10547l2.00782.60547 2.42969 1.8125 4.4375 2.5.17578.1289 1.53125 4.4375-1.70703 1.41798-4.23829-1.41797-.19922-.30079-4.4375-1.30468-4.4375-2.27344"/><path fill="#009800" fill-rule="evenodd" d="M223.89063 411.19922l-3.4336-1.88281 3.4336-3.94141v1.98438l-1.70313 1.95703 1.70313.93359 2.62109-.9336-2.6211-1.95702V405.375l4.4375 3.3086 1.16797.6328 3.26953 2.03516v2.30078l-.08984.10157.08984.03125.03907-.03125-.03906-.10157v-2.30078l.87109 2.40235-.8711.72265-2.16406-.72265-2.27344-3.44532-4.4375.89063"/><path fill="#00ac00" fill-rule="evenodd" d="M223.89063 410.25l-1.70313-.9336 1.70313-1.95702 2.62109 1.95703-2.6211.93359"/><path fill="#fff" fill-opacity="0" fill-rule="evenodd" d="M228.32813 435.5625l-1.83985.38281 1.83984 2.34375.32422-2.34375-.32422-.38281"/><path fill="#00ac00" fill-rule="evenodd" d="M232.76563 413.78516l-.08985-.03125.08984-.10157.03907.10157-.03906.03125"/><path fill="#50fcfc" fill-rule="evenodd" d="M251.83203 435.94531l-.95703-4.4375 4.08203-4.01562v1.08203l-2.97656 2.9336 2.97656 3.80077 3.32422-3.80078-3.32422-2.9336v-1.08202l4.4414 2.8164 2.94923 1.19922-.67188 4.4375-2.27734 2.41797-4.4414.01172-3.125-2.42969"/><path fill="#00e8fc" fill-rule="evenodd" d="M254.95703 435.3086l-2.97656-3.80079 2.97656-2.9336v1.8086l-1.14062 1.125 1.14062 1.45703 1.27734-1.45703-1.27734-1.125v-1.8086l3.32422 2.9336-3.32422 3.80078"/><path fill="#00d4fc" fill-rule="evenodd" d="M254.95703 432.96484l-1.14062-1.45703 1.14062-1.125 1.27734 1.125-1.27734 1.45703"/><path fill="#50fcfc" fill-rule="evenodd" d="M268.27344 434.92188l-4.3086-3.41407 4.3086-3.82812v2.46484l-1.53516 1.36328 1.53516 1.21485 2.76562-1.21485-2.76562-1.36328v-2.46484l4.4375.57422 4.4414.69921 4.4375 1.69141.87891.86328 2.08203 4.4375-2.96094 1.91406-2.1953-1.91406-2.2422-2.39062-4.4414.35547-4.4375 1.01171"/><path fill="#00e8fc" fill-rule="evenodd" d="M268.27344 432.72266l-1.53516-1.21485 1.53516-1.36328 2.76562 1.36328-2.76562 1.21485"/><path fill="#50fcfc" fill-rule="evenodd" d="M312.65625 449.71875l-1.05078-.45703 1.05078-.52735.61719.52735-.61719.45703m35.50781-10.58203l-3.07422-3.1914 3.07422-3.0547v2.31641l-.7461.73828.7461.77344 3.27344 3.66406 1.16406 1.1211 1.4336-1.1211-1.4336-1.14453-3.67969-3.29297-.7578-.73828v-2.3164l3.125 3.05468 1.3125 1.17578 4.08202 3.26172-4.08203 3.1914-3.32422-3.1914-1.11328-1.2461"/><path fill="#00e8fc" fill-rule="evenodd" d="M348.16406 436.71875l-.7461-.77344.7461-.73828.75781.73828 3.6797 3.29297 1.43359 1.14453-1.4336 1.1211-1.16406-1.1211-3.27344-3.66406"/><path fill="#50fcfc" fill-rule="evenodd" d="M374.79297 452.73047l-3.53906-3.46875 1.71875-4.4414 1.8203-2.83594v4.9375l-1.7539 2.33984 1.7539 1.71484 1.9922-1.71484-1.9922-2.33985v-4.9375l1.54688-1.60156-.38671-4.4375 3.28125-3.99219 1.0664 3.9922 1.11719 4.4375-2.1836 1.27734-3.21093 3.16015 2.79297 4.4414-4.02344 3.46876"/><path fill="#00e8fc" fill-rule="evenodd" d="M374.79297 450.97656l-1.7539-1.71484 1.7539-2.33985 1.99219 2.33985-1.9922 1.71484"/><g clip-path="url(#e)"><path fill="#50fcfc" fill-rule="evenodd" d="M381.21484 467.01563l-.35546-4.44141 2.8125-4.10938.3203-.32812 4.1172-3.21875v2.88281l-.4336.33594-4.0039 4.07812-.25.35938.25 1.1914.47656-1.1914 3.96094-3.8711.49218-.5664-.49219-.33594v-2.88281l4.4375 1.88672.82422 1.33203-.82421.64062-2.82032 3.79688 2.13281 4.4414.6875 1.10157 2.21485 3.33594 2.22265 4.0039.34375.4336 4.09766 2.85156 1.08203 1.58594h-6.6914l-3.26954-3.375-4.4375.2578-2.84375 3.1172h-1.98046l-.64454-4.4375-.74218-4.4375-.6836-4.4375"/></g><path fill="#50fcfc" fill-rule="evenodd" d="M383.67188 451.40234l-2.40625-2.14062 2.40625-2.10156 2.47265-2.33985 1.96485-1.64062 1.55859 1.64062-1.5586 1.63281-2.67968 2.8086-1.75781 2.14062"/><path fill="#00e8fc" fill-rule="evenodd" d="M383.67188 463.76563l-.25-1.19141.25-.35938 4.0039-4.07812.4336-.33594.49218.33594-.49219.5664-3.96093 3.8711-.47656 1.1914"/><g clip-path="url(#f)"><path fill="#00e8fc" fill-rule="evenodd" d="M385.26563 480.32813h2.83593l.00781-.01172 4.4375-.72657.71875.73829h2.55079l-3.26954-3.375-4.4375.2578-2.84375 3.1172"/></g><g clip-path="url(#g)"><path fill="#00d4fc" fill-rule="evenodd" d="M388.10156 480.32813l.00781-.01172 4.4375-.72657.71875.73829h-5.16406"/></g><g clip-path="url(#h)"><path fill="#fff" fill-opacity="0" fill-rule="evenodd" d="M467.9961 480.32813H468V311.67188h-.0039H468v168.65625h-.0039"/></g><path fill="#fff" fill-opacity="0" fill-rule="evenodd" d="M231.28516 406.1836l4.39843 3.83984 6.5547-7.5-4.40235-3.84375-6.55078 7.5039"/><path fill-rule="evenodd" d="M239.26563 402.36328l.38671.33203-4.14062 4.74219-.59375-.51563 2.95312-3.3828-1.04687-.91407.36719-.41797.46484.32031.22266.125.23437.08204.2461.02734.26953-.04297.29687-.1289.33984-.22657"/><path fill="#fff" fill-opacity="0" fill-rule="evenodd" d="M156.8125 468.78125l5.4961 1.97266 3.36718-9.375-5.5-1.97266-3.36328 9.375"/><path fill-rule="evenodd" d="M162.85156 462.3125l.47656.17188-2.125 5.92578-.73828-.26563 1.51563-4.22656-1.3086-.46875.1875-.52344.55079.1289.2539.03516.2461-.0078.23828-.06642.23828-.13671.23047-.23047.23437-.33594"/><g clip-path="url(#i)"><path fill="none" stroke="#000" stroke-linecap="round" stroke-linejoin="round" stroke-miterlimit="10" stroke-width=".5" d="M147.51172 480.21484l-7.02344.23047"/></g><g clip-path="url(#j)"><path fill="none" stroke="#000" stroke-linecap="round" stroke-linejoin="round" stroke-miterlimit="10" stroke-width=".5" d="M147.51172 480.21484l1.22266 2.125"/></g><g clip-path="url(#k)"><path fill="none" stroke="#000" stroke-linecap="round" stroke-linejoin="round" stroke-miterlimit="10" stroke-width=".5" d="M160.82813 480.32813h-7.02735"/></g><g clip-path="url(#l)"><path fill="none" stroke="#000" stroke-linecap="round" stroke-linejoin="round" stroke-miterlimit="10" stroke-width=".5" d="M160.82813 480.32813l1.15234 2.16796"/></g><g clip-path="url(#m)"><path fill="none" stroke="#000" stroke-linecap="round" stroke-linejoin="round" stroke-miterlimit="10" stroke-width=".5" d="M174.11719 480.7461l-6.97656-.83594"/></g><g clip-path="url(#n)"><path fill="none" stroke="#000" stroke-linecap="round" stroke-linejoin="round" stroke-miterlimit="10" stroke-width=".5" d="M174.11719 480.7461l.88672 2.28906"/></g><g clip-path="url(#o)"><path fill="none" stroke="#000" stroke-linecap="round" stroke-linejoin="round" stroke-miterlimit="10" stroke-width=".5" d="M187.44922 480.59766l-7.00781-.53907"/></g><g clip-path="url(#p)"><path fill="none" stroke="#000" stroke-linecap="round" stroke-linejoin="round" stroke-miterlimit="10" stroke-width=".5" d="M187.44922 480.59766l.98047 2.25"/></g><g clip-path="url(#q)"><path fill="none" stroke="#000" stroke-linecap="round" stroke-linejoin="round" stroke-miterlimit="10" stroke-width=".5" d="M186.42969 480.51953l.48828 1.125"/></g><g clip-path="url(#r)"><path fill="none" stroke="#000" stroke-linecap="round" stroke-linejoin="round" stroke-miterlimit="10" stroke-width=".5" d="M200.7539 480.70313l-6.98827-.7461"/></g><g clip-path="url(#s)"><path fill="none" stroke="#000" stroke-linecap="round" stroke-linejoin="round" stroke-miterlimit="10" stroke-width=".5" d="M200.7539 480.70313l.91407 2.27734"/></g><g clip-path="url(#t)"><path fill="none" stroke="#000" stroke-linecap="round" stroke-linejoin="round" stroke-miterlimit="10" stroke-width=".5" d="M199.73828 480.59375l.45703 1.13672"/></g><g clip-path="url(#u)"><path fill="none" stroke="#000" stroke-linecap="round" stroke-linejoin="round" stroke-miterlimit="10" stroke-width=".5" d="M214.04688 480.875l-6.94141-1.09375"/></g><g clip-path="url(#v)"><path fill="none" stroke="#000" stroke-linecap="round" stroke-linejoin="round" stroke-miterlimit="10" stroke-width=".5" d="M214.04688 480.875l.80078 2.32031"/></g><g clip-path="url(#w)"><path fill="none" stroke="#000" stroke-linecap="round" stroke-linejoin="round" stroke-miterlimit="10" stroke-width=".5" d="M213.03516 480.71484l.40234 1.16016"/></g><g clip-path="url(#x)"><path fill="none" stroke="#000" stroke-linecap="round" stroke-linejoin="round" stroke-miterlimit="10" stroke-width=".5" d="M227.39063 480.64453l-7-.6289"/></g><g clip-path="url(#y)"><path fill="none" stroke="#000" stroke-linecap="round" stroke-linejoin="round" stroke-miterlimit="10" stroke-width=".5" d="M227.39063 480.64453l.95312 2.25781"/></g><g clip-path="url(#z)"><path fill="none" stroke="#000" stroke-linecap="round" stroke-linejoin="round" stroke-miterlimit="10" stroke-width=".5" d="M240.70313 480.64844l-6.9961-.63672"/></g><g clip-path="url(#A)"><path fill="none" stroke="#000" stroke-linecap="round" stroke-linejoin="round" stroke-miterlimit="10" stroke-width=".5" d="M240.70313 480.64844l.95312 2.26172"/></g><g clip-path="url(#B)"><path fill="none" stroke="#000" stroke-linecap="round" stroke-linejoin="round" stroke-miterlimit="10" stroke-width=".5" d="M254.02734 480.53906l-7.01562-.42187"/></g><g clip-path="url(#C)"><path fill="none" stroke="#000" stroke-linecap="round" stroke-linejoin="round" stroke-miterlimit="10" stroke-width=".5" d="M254.02734 480.53906l1.01953 2.23438"/></g><g clip-path="url(#D)"><path fill="none" stroke="#000" stroke-linecap="round" stroke-linejoin="round" stroke-miterlimit="10" stroke-width=".5" d="M267.3086 479.78906l-6.94532 1.07813"/></g><g clip-path="url(#E)"><path fill="none" stroke="#000" stroke-linecap="round" stroke-linejoin="round" stroke-miterlimit="10" stroke-width=".5" d="M267.3086 479.78906l1.46874 1.96485"/></g><g clip-path="url(#F)"><path fill="none" stroke="#000" stroke-linecap="round" stroke-linejoin="round" stroke-miterlimit="10" stroke-width=".5" d="M280.57031 479.51953l-6.83984 1.61719"/></g><g clip-path="url(#G)"><path fill="none" stroke="#000" stroke-linecap="round" stroke-linejoin="round" stroke-miterlimit="10" stroke-width=".5" d="M280.57031 479.51953l1.61719 1.84375"/></g><g clip-path="url(#H)"><path fill="none" stroke="#000" stroke-linecap="round" stroke-linejoin="round" stroke-miterlimit="10" stroke-width=".5" d="M293.97266 480.1289l-7.01563.39844"/></g><g clip-path="url(#I)"><path fill="none" stroke="#000" stroke-linecap="round" stroke-linejoin="round" stroke-miterlimit="10" stroke-width=".5" d="M293.97266 480.1289l1.27343 2.09766"/></g><g clip-path="url(#J)"><path fill="none" stroke="#000" stroke-linecap="round" stroke-linejoin="round" stroke-miterlimit="10" stroke-width=".5" d="M307.24219 479.73828l-6.92578 1.1836"/></g><g clip-path="url(#K)"><path fill="none" stroke="#000" stroke-linecap="round" stroke-linejoin="round" stroke-miterlimit="10" stroke-width=".5" d="M307.24219 479.73828l1.5039 1.9414"/></g><g clip-path="url(#L)"><path fill="none" stroke="#000" stroke-linecap="round" stroke-linejoin="round" stroke-miterlimit="10" stroke-width=".5" d="M320.34766 478.9961l-6.50391 2.66796"/></g><g clip-path="url(#M)"><path fill="none" stroke="#000" stroke-linecap="round" stroke-linejoin="round" stroke-miterlimit="10" stroke-width=".5" d="M319.40234 479.38281l.94141.78516"/></g><g clip-path="url(#N)"><path fill="none" stroke="#000" stroke-linecap="round" stroke-linejoin="round" stroke-miterlimit="10" stroke-width=".5" d="M333.41797 478.51172l-6.01563 3.63281"/></g><path fill="none" stroke="#000" stroke-linecap="round" stroke-linejoin="round" stroke-miterlimit="10" stroke-width=".5" d="M332.54297 479.03906l1.05469.63281"/><g clip-path="url(#O)"><path fill="none" stroke="#000" stroke-linecap="round" stroke-linejoin="round" stroke-miterlimit="10" stroke-width=".5" d="M346.53125 478.21484l-5.61328 4.22657"/></g><path fill="none" stroke="#000" stroke-linecap="round" stroke-linejoin="round" stroke-miterlimit="10" stroke-width=".5" d="M345.71484 478.83203l1.11329.51953"/><g clip-path="url(#P)"><path fill="none" stroke="#000" stroke-linecap="round" stroke-linejoin="round" stroke-miterlimit="10" stroke-width=".5" d="M358.83594 477.3086l-3.58985 6.03906"/></g><g clip-path="url(#Q)"><path fill="none" stroke="#000" stroke-linecap="round" stroke-linejoin="round" stroke-miterlimit="10" stroke-width=".5" d="M369.82813 476.85547l1.05859 6.94531"/></g><g clip-path="url(#R)"><path fill="none" stroke="#000" stroke-linecap="round" stroke-linejoin="round" stroke-miterlimit="10" stroke-width=".5" d="M381.53516 477.53906l4.26953 5.58203"/></g><path fill="none" stroke="#000" stroke-linecap="round" stroke-linejoin="round" stroke-miterlimit="10" stroke-width=".5" d="M382.15625 478.35156l.51172-1.11719"/><g clip-path="url(#S)"><path fill="none" stroke="#000" stroke-linecap="round" stroke-linejoin="round" stroke-miterlimit="10" stroke-width=".5" d="M393.82031 478.8086l6.33203 3.03906"/></g><path fill="none" stroke="#000" stroke-linecap="round" stroke-linejoin="round" stroke-miterlimit="10" stroke-width=".5" d="M393.82031 478.8086l-.10156-2.45313"/><g clip-path="url(#T)"><path fill="none" stroke="#000" stroke-linecap="round" stroke-linejoin="round" stroke-miterlimit="10" stroke-width=".5" d="M408.01172 477.66406l4.58203 5.32813"/></g><path fill="none" stroke="#000" stroke-linecap="round" stroke-linejoin="round" stroke-miterlimit="10" stroke-width=".5" d="M408.67578 478.4414l.44531-1.14452"/><g clip-path="url(#U)"><path fill="none" stroke="#000" stroke-linecap="round" stroke-linejoin="round" stroke-miterlimit="10" stroke-width=".5" d="M421.04688 477.9336l5.14062 4.78906"/></g><path fill="none" stroke="#000" stroke-linecap="round" stroke-linejoin="round" stroke-miterlimit="10" stroke-width=".5" d="M421.79297 478.6289l.3164-1.18359"/><g clip-path="url(#V)"><path fill="none" stroke="#000" stroke-linecap="round" stroke-linejoin="round" stroke-miterlimit="10" stroke-width=".5" d="M438.83594 477.375l-3.8086 5.90625"/></g><path fill="none" stroke="#000" stroke-linecap="round" stroke-linejoin="round" stroke-miterlimit="10" stroke-width=".5" d="M438.28125 478.23438l1.22266.10546"/><g clip-path="url(#W)"><path fill="none" stroke="#000" stroke-linecap="round" stroke-linejoin="round" stroke-miterlimit="10" stroke-width=".5" d="M449.53906 483.76953l1.41406-6.88281"/></g><g clip-path="url(#X)"><path fill="none" stroke="#000" stroke-linecap="round" stroke-linejoin="round" stroke-miterlimit="10" stroke-width=".5" d="M463.41797 483.83984l.28906-7.02343"/></g><g clip-path="url(#Y)"><path fill="none" stroke="#000" stroke-linecap="round" stroke-linejoin="round" stroke-miterlimit="10" stroke-width=".5" d="M147.51172 466.89453l-7.02344.23828"/></g><path fill="none" stroke="#000" stroke-linecap="round" stroke-linejoin="round" stroke-miterlimit="10" stroke-width=".5" d="M147.51172 466.89453l1.22266 2.1289m12.09375-1.89452l-7.02344-.23047m7.02344.23047l1.07812 2.20312m12.23047-2.53906l-7.01172.4414m7.01172-.4414l1.28516 2.08984m-2.3047-2.02344l.64063 1.04297m13.69531-.72656l-7.01953-.32422m7.01953.32422l1.0547 2.21484m-2.07423-2.26171l.52735 1.10546m13.8086-1.08593l-7.01954-.26953m7.01953.26953l1.07031 2.21093m-2.08984-2.25l.53125 1.10547m13.79688-.9414l-7.00782-.51563m7.00781.51563l.9922 2.24218m-2.01173-2.3203l.4961 1.125m13.84375-1.10548l-7.01563-.40234m7.01563.40234l1.02344 2.23047m-2.04297-2.28906l.51172 1.11719m13.82812-1.25782h-7.02734m7.02734 0l1.15234 2.16407m12.16407-2.15235L247.0078 467m7.02735.02734l1.14453 2.17188m12.13281-2.70313l-6.95313 1.03516m6.95313-1.03516l1.45703 1.97657m11.72656-2.53516l-6.6914 2.15234m6.6914-2.15234l1.75782 1.71094m11.40234-2.10547l-6.38281 2.9414m6.38281-2.9414l1.95313 1.48437m11.3789-1.44922l-6.41406 2.8711m6.41406-2.8711l1.9375 1.50782m11.16406-1.91406l-5.98437 3.68359m5.98437-3.6836l2.11329 1.2422m10.82421-1.7461l-5.23046 4.6914m5.23046-4.6914l2.3047.84375m10.36327-1.41016l-3.9375 5.82422m3.9375-5.82422l2.4375.26172m9.82032-.74219l-1.82032 6.78516m1.55469-5.79688l1.19531-.27734m11.75-.82031l-.55468 7.0039m.47656-5.98437l1.125-.48828m9.27344.7461l5.4375 4.44921m-4.64844-3.80078l.24219-1.20313m12.23046.6211l5.54297 4.32031m-4.73437-3.69531l.21094-1.20703m13.5664-.4375l3.0039 6.35547m-3.0039-6.35547l1.46485-1.96485M423.61719 463.5v7.02734m0-7.02734l2.16406-1.15234m11.7461 1.20312l-1.19141 6.92578m1.1914-6.92578l2.32813-.76953m8.8711 1.0664l3.04296 6.33204m-3.04297-6.33203l1.45313-1.97657m16.89453 5.23047l-7.02344-.17578m6 .14844l.55078 1.09765"/><g clip-path="url(#Z)"><path fill="none" stroke="#000" stroke-linecap="round" stroke-linejoin="round" stroke-miterlimit="10" stroke-width=".5" d="M147.47656 454.21484l-6.95312-1.03125"/></g><path fill="none" stroke="#000" stroke-linecap="round" stroke-linejoin="round" stroke-miterlimit="10" stroke-width=".5" d="M147.47656 454.21484l.82031 2.3086m12.51563-2.48047l-6.99219-.6914m6.99219.6914l.9336 2.26953m12.3789-2.96094l-6.99219.6914m5.97656-.58984l.6797 1.02344m13.66796-.77734h-7.02344m7.02344 0l1.15234 2.16406m12.15235-1.85547l-7-.6211m7 .6211l.95312 2.26172m12.34375-2.10547l-6.96484-.9336m6.96484.9336l.85157 2.30078m12.47656-2.40234l-6.99219-.73047m6.99219.73047l.91797 2.27734m12.41015-2.78906l-7.01953.29688m7.01953-.29688l1.2422 2.11328m12.01562-2.625l-6.90235 1.32031m6.90235-1.3203l1.53515 1.91405m11.8086-1.72265l-6.96485.9336m6.96485-.9336l1.42968 1.9961m11.76172-2.5625l-6.71484 2.0703m6.71484-2.0703l1.73828 1.73046m11.32813-2.33594l-6.21484 3.28125m6.21484-3.28125l2.02734 1.37891m-2.9336-.90234l1.01563.6914m13.20704-1.16015l-6.21875 3.26562m6.21875-3.26562l2.02734 1.3828m11.03906-1.79296l-5.72265 4.08203m5.72265-4.08203l2.19531 1.09375m11.06641-1.16406l-5.61719 4.22265m5.61719-4.22265l2.22266 1.04297m10.57812-1.59375l-4.58594 5.32421m4.58594-5.32421l2.39453.54296m9.84766-1.17187l-2.4414 6.58594m2.4414-6.58594l2.4336-.32813m-2.78907 1.28516l1.21875-.16406m12.08203-.91016l-1.70312 6.8164m1.70312-6.8164l2.38281-.58984m12.58985 1.53906l-5.01563 4.92188m4.28516-4.20704l1.17187.3711m7.5586-.74219l5.61328 4.23047m-4.79688-3.61328l.19141-1.21094m18.39844 1.46484l-6.57031 2.4922m5.61328-2.12891l.92578.80468m12.4961-2.45312l-4.8711 5.0625m4.16406-4.32813l1.17969.33594m13.53515-.14062l-6.2539 3.20312m5.34375-2.73828l1.00781.70312m11.35938-2.84375l-2.53907 6.5547m2.53907-6.5547l2.4375-.29296m11.10156.39062l-2.98438 6.35938m2.55078-5.4336l1.22266-.0625"/><g clip-path="url(#aa)"><path fill="none" stroke="#000" stroke-linecap="round" stroke-linejoin="round" stroke-miterlimit="10" stroke-width=".5" d="M147.38281 441.32813l-6.76562-1.89063"/></g><path fill="none" stroke="#000" stroke-linecap="round" stroke-linejoin="round" stroke-miterlimit="10" stroke-width=".5" d="M147.38281 441.32813l.52735 2.39453m12.85156-2.65625l-6.89453-1.3672m6.89453 1.3672l.70703 2.35156m12.64844-2.59375l-6.97266-.88281m6.97266.8828l.8711 2.29298m12.46874-2.76172l-7.02344.05469m7.02344-.0547l1.17188 2.16017m12.12109-1.72266l-6.98047-.8164m5.96484.6953l.44532 1.14454m13.48437.23828l-6.17969-3.34375m6.1797 3.34375l-.01563 2.45312m13.1914-2.21484l-5.89843-3.82031m5.89843 3.8203l-.21093 2.44532m14.0039-5.125l-6.85547 1.53906m5.85938-1.3164l.79687.9336m12.21094-3.1836l-4.25 5.59375m3.63281-4.78125l1.21094.19922m13.25781-.50782l-5.32422 4.58594m5.32422-4.58594l2.28907.89063m11.11328-.78516l-5.4961 4.375m5.4961-4.375l2.25.97657m10.4961-1.54688l-4.35548 5.51563m4.35547-5.51563l2.41406.4414m11.50782.17579l-5.57032 4.28515m5.57032-4.28515l2.23437 1.01172m-3.04687-.39063l1.11718.50781m13.125-.96875l-5.80078 3.96094m5.80078-3.96094l2.17578 1.14063m-3.01953-.5625l1.08594.5664m12.80469-1.49218l-5.26172 4.65625m5.26172-4.65625l2.29687.85937m-3.0625-.17969l1.14844.42579m12.57031-1.45703l-4.54297 5.35937m4.54297-5.35938l2.39844.51954m10.10156-1.03516l-2.91015 6.39453m2.91015-6.39453l2.44922-.15234m8.8125-.11328l1.19922 6.92187m-1.19922-6.92188l1.9375-1.5039m8.95313 3.17187l6.04297 3.58594m-5.16407-3.0625l.0586-1.22656m11.9336 1.9336l6.93358 1.125m6.40235-1.2422l6.89453 1.35938m11.82812-3.59375l-3.92187 5.82812m3.35156-4.98046l1.21875.1289m13.5-.1914l-5.58984 4.2578m5.58984-4.2578l2.23047 1.02343m11.79688.8711l-7.01172.46875m5.98828-.40235l.64844 1.04297m13.43359-2.20312l-6.5039 2.65625m5.55859-2.26953l.94531.78515"/><g clip-path="url(#ab)"><path fill="none" stroke="#000" stroke-linecap="round" stroke-linejoin="round" stroke-miterlimit="10" stroke-width=".5" d="M147.34766 428.13672L140.65234 426"/></g><path fill="none" stroke="#000" stroke-linecap="round" stroke-linejoin="round" stroke-miterlimit="10" stroke-width=".5" d="M147.34766 428.13672l.4375 2.41797m13.03125-3.17188l-7-.6289m7 .6289l.95312 2.26172m12.19531-1.47266l-6.67187-2.20703m6.67187 2.20703l.41407 2.42188m12.53515-1.64453l-5.9375-3.76172m5.9375 3.76172l-.1875 2.44531m12.76172-1.60937l-4.45703-5.4336m3.8086 4.64453l-.47266 1.13282m15.70703-2.7461l-7-.6289m5.98047.53906l.47656 1.1289m13.41016-3.09765l-6.10157 3.48828m5.21485-2.98047l1.03515.65625m13.53516 1.39063l-6.83984-1.6211m5.84375 1.38281l.3125 1.1875m13.92187-2.83984l-6.6875 2.16016m19.20703-3.5l-5.09765 4.83984m4.35937-4.13281l1.16016.38672m13.46484-.29297l-6.23828 3.23828m6.23828-3.23828l2.01953 1.39062m10.71875-2.1953l-5.08593 4.84765m4.34765-4.14453l1.16406.38671m13.25-.64843l-5.80468 3.96484m4.96093-3.38672l1.08594.57031m12.03906-2.14062l-3.73828 5.94922m3.73828-5.94922l2.44922.17578m11.19922.0625l-4.40234 5.47656m4.40234-5.47656l2.41016.45703m-3.05078.33594l1.20312.23047m13.22266-.5664l-5.34375 4.55859m5.34375-4.5586l2.28125.89844m-3.0586-.23438l1.14063.44922m13.70703.40235l-6.85547 1.52734m5.85938-1.30469l.79687.9297m9.95703-3.89845l.25782 7.01953m-.25782-7.01953l2.125-1.23047m11.04688 1.23829l.54687 7.0039m-.54687-7.0039l2.07031-1.31641m-1.99219 2.33594l1.03516-.66016m14.63672.375l-4.32422 5.53516m3.69531-4.73047l1.20703.21484m13.67969.10156l-6.20703 3.29297m6.20703-3.29297l2.03125 1.3711m-2.9375-.89453l1.01953.6875m12.42969-2.14453l-4.66406 5.2539m4.66406-5.2539l2.38281.57421m-3.0625.19141l2.38672.57422m10.1289-2.1211l-1.70702 6.81641m1.70703-6.8164l2.3828-.58985m-2.6289 1.58203l1.1875-.29687m12.60547-.6289l-2.17187 6.68359m2.17187-6.6836l2.41797-.42578m-2.73437 1.39844l1.21093-.21094m13.39844-.26562l-4.125 5.6914m3.52344-4.86328l1.21484.17188"/><g clip-path="url(#ac)"><path fill="none" stroke="#000" stroke-linecap="round" stroke-linejoin="round" stroke-miterlimit="10" stroke-width=".5" d="M147.35938 414.77734l-6.71875-2.05078"/></g><path fill="none" stroke="#000" stroke-linecap="round" stroke-linejoin="round" stroke-miterlimit="10" stroke-width=".5" d="M146.38281 414.48047l.23438 1.20312m13.96484-.6328l-6.53125-2.59376m6.53125 2.59375l.26953 2.4375m13.04297-2.4414l-6.53125-2.58985m6.53125 2.58985l.27344 2.4414m13.10156-2.59765l-6.64844-2.27344m6.64844 2.27344l.38672 2.42187m13.11719-3.61719l-7.02735.11719m6.00391-.10156l.59375 1.07422m11.91797-4.11328l-3.3711 6.16406m16.3672.15625l-2.73438-6.47656m2.33594 5.53125l-.77344.95312m14.91015-.22266l-3.58203-6.04687m3.58203 6.04687l-1.27734 2.09375m15.96875-3.59765l-6.33594-3.03907m6.33594 3.03907l.10156 2.45312m13.20313-2.4336l-6.3125-3.08202m6.3125 3.08203l.08594 2.45312m13.55859-3.54687l-6.97266-.89063m5.95703.76172l.4336 1.14844m13.89062-.98438l-6.96094-.96093m6.96094.96093l.84766 2.30079m12.30078-1.60938l-6.625-2.34375m5.66016 2.0039l.18359 1.21094m13.96875-3.52343l-6.3711 2.96093m6.3711-2.96093l1.95703 1.48047m11.51563-1.07813l-6.6875 2.15625m6.6875-2.15625l1.76171 1.70703m11.71094-.94531l-7 .63281m7-.63281l1.33985 2.05469m11.66796-.27344l-6.38671-2.92969m6.38671 2.92969l.14454 2.44922m13.32421-4.98438l-6.6914 2.14063m6.6914-2.14063l1.75782 1.71094m-2.73047-1.39844l.8789.85547m12.89454-2.17578l-5.66407 4.15625m5.66407-4.15625l2.21093 1.0625m-3.03515-.45703l1.10547.53125m12.02343-2.0625l-3.64453 6.00781m3.64453-6.00781l2.44922.14062m-2.98047.73438l1.22657.07031m13.12109-.57812l-4.64453 5.27343m4.64453-5.27343l2.38672.5664m-3.0625.19922l1.1914.28516m12.98047-.8789l-5.0078 4.92968m5.0078-4.92969l2.33985.73828m9.79297-1.53125l-2.64454 6.51172m2.25782-5.5625l1.22265-.125m12.50782-.8125l-2.70313 6.48828m2.70313-6.48828l2.4414-.23047m10.04688.00391l-1.05078 6.94531m1.05078-6.94531l2.3164-.8164"/><g clip-path="url(#ad)"><path fill="none" stroke="#000" stroke-linecap="round" stroke-linejoin="round" stroke-miterlimit="10" stroke-width=".5" d="M147.42578 401.22656l-6.85156-1.57422"/></g><path fill="none" stroke="#000" stroke-linecap="round" stroke-linejoin="round" stroke-miterlimit="10" stroke-width=".5" d="M146.42578 400.9961l.32031 1.1875m12.80078.96874l-4.46484-5.42968m3.8164 4.64062l-.47265 1.13281m14.2461-.19921l-4.08594-5.71485m3.49219 4.88281l-.54688 1.09766m15.71484-1.92188l-6.60156-2.40625m5.64063 2.0586l.17187 1.21484m14.21094-2.92578l-6.8164 1.71094m6.8164-1.71094l1.64453 1.82031m6.84766 2.25391l2.82812-6.4336m14.9375 4.98438l-6.07031-3.53906m5.1875 3.02734l-.05078 1.22266m14.41406-1.03125l-6.40234-2.89453m5.47265 2.47265l.07813 1.22266m13.52344.16016l-5.1172-4.81641m5.1172 4.8164l-.64454 2.3672m14.51953-3.15235l-6.23437-3.2461m6.23438 3.2461l.01953 2.45313m13.67187-4.44141l-6.98828.73047m6.98828-.73047l1.3711 2.03515m11.93359-2.1328l-6.96485.92187m6.96485-.92188l1.42578 1.9961m11.74219-2.64063l-6.67188 2.21485m5.69922-1.89454l.88672.84766m13.57422.11719l-7.01953-.35938m7.01953.35938l1.03906 2.22265m12.27735-2.33203l-7.02344-.13672m7.02344.13672l1.11328 2.1875m12.17968-1.83203l-6.97656-.85156m5.96094.73047l.4414 1.14453m13.89454-1.09766l-6.98829-.70312m5.97266.60156l.46485 1.13672m13.6328-2.6875l-6.52343 2.60547m6.52344-2.60547l1.875 1.58203m-2.82422-1.20313l.9375.78907m12.46484-2.4336l-4.79687 5.13672m4.79687-5.13672l2.36719.63672m11.1211-.46094l-5.14454 4.78516m5.14453-4.78515l2.32032.80078m11.2578-.48438l-5.67187 4.15235m5.67188-4.15235l2.20703 1.0664m10.48047-1.72265l-4.41797 5.46485m4.41797-5.46485l2.41015.46485m10.13672-.9375l-2.8789 6.41015m2.8789-6.41015l2.44922-.16407m12.10938 1.10156l-5.36719 4.53125m5.36719-4.53125l2.28125.91407m10.90234-1.0664l-5.10156 4.83593"/><g clip-path="url(#ae)"><path fill="none" stroke="#000" stroke-linecap="round" stroke-linejoin="round" stroke-miterlimit="10" stroke-width=".5" d="M466.11328 398.01953l2.32422.78125"/></g><g clip-path="url(#af)"><path fill="none" stroke="#000" stroke-linecap="round" stroke-linejoin="round" stroke-miterlimit="10" stroke-width=".5" d="M143.76172 383.61719l.47656 7.01172"/></g><path fill="none" stroke="#000" stroke-linecap="round" stroke-linejoin="round" stroke-miterlimit="10" stroke-width=".5" d="M157.58203 390.625l-.53516-7.0039m10.72657 5.54687l5.71484-4.08985m8.05078 4.60547l4.8125-5.12109m7.74219 4.08203l6.33203-3.04297m-5.41016 2.60156l-.98828-.72656m17.78907 2.9336l-2.48438-6.57422m2.125 5.61719l-.8086.92187m15.26563-.3789l-4.04687-5.7461m3.45703 4.91016l-.55078 1.09375m15.91406-2.65235l-6.96484-.95703m5.94922.8164l.42578 1.15235m13.76172-.39453l-6.67579-2.1914m5.70313 1.87109l.21094 1.21094m14.24218-1.72266l-7.0078-.52735m7.0078.52735l.98438 2.2461m12.3125-2.0586l-6.96875-.90235m6.96875.90235l.86328 2.29687m12.47656-2.6328l-7.02344-.22657m7.02344.22656l1.08203 2.19922m12.03907-3.47656l-6.63282 2.32422m6.63282-2.32422l1.80468 1.66015m11.66016-1.07421l-6.9336 1.15234m6.9336-1.15235l1.49219 1.94532m-2.5-1.77735l.7461.97266m13.60155-.16406l-6.98046-.80078m6.98046.80078l.89844 2.28125m11.9414-4.48438l-6.03124 3.60547m6.03125-3.60547l2.10156 1.27344m11.48047-.72266l-6.5664 2.50391m6.5664-2.5039l1.84765 1.61718m-2.80468-1.25l.92578.80469m13.04297-1.78125l-5.96094 3.72265m5.96094-3.72265l2.125 1.23047m-2.99219-.6875l1.0625.61328m12.92969-1.4336l-5.57813 4.27735m5.57813-4.27735l2.23047 1.01954m-3.04297-.39844l1.11719.51172m12.7578-1.42188l-5.07421 4.85938m5.07422-4.85938l2.33203.76563m-3.07031-.0586l1.16406.38282m12.53515-1.41407l-4.36718 5.50391m4.36719-5.5039l2.41406.4414m-3.05078.35938l1.20703.21875m12.48047-1.21094l-3.83985 5.88672m3.83985-5.88672l2.4453.21875m10.32423-.50781l-2.7461 6.46875m2.7461-6.46875l2.44531-.21485m12.51563 1.65235l-6.03907 3.58984m6.03906-3.58985l2.09766 1.27344m11.03516-1.55078l-5.67578 4.14453"/><g clip-path="url(#ag)"><path fill="none" stroke="#000" stroke-linecap="round" stroke-linejoin="round" stroke-miterlimit="10" stroke-width=".5" d="M466.39844 385.05078l2.20703 1.07031"/></g><g clip-path="url(#ah)"><path fill="none" stroke="#000" stroke-linecap="round" stroke-linejoin="round" stroke-miterlimit="10" stroke-width=".5" d="M140.7539 372.46094l6.4922 2.6914"/></g><path fill="none" stroke="#000" stroke-linecap="round" stroke-linejoin="round" stroke-miterlimit="10" stroke-width=".5" d="M154.27734 372.04297l6.07813 3.52734m13.60937-.65625l-6.66797-2.21094m13.45704-.36328l6.3828 2.9336m-5.45702-2.5039l-.07031-1.22657m12.24609 3.13281l6.8086-1.73437m-6.8086 1.73437l-1.65234-1.8164m15.3203-.79297l6.10157 3.48437m-5.21094-2.98047l.03516-1.22265m18.57812 4.04296l-6.27343-3.16406m5.35937 2.70313l.02734 1.22656m13.8711-.23438l-5.61328-4.22656m5.61328 4.22656l-.38281 2.42188m13.95703-2.82031l-6.13281-3.42969m5.24218 2.92969l-.02734 1.22656m13.79687-.11328l-5.26172-4.65625m5.26172 4.65625l-.57422 2.38672m14.3086-2.96485l-6.09375-3.5m6.09375 3.5l-.08203 2.45313m13.78125-3.45703l-6.86719-1.4961m6.86719 1.4961l.66406 2.36328m12.72656-3.30078l-7.01562.3789m7.01562-.3789l1.26563 2.10156m11.92187-2.8711l-6.76172 1.92188m6.76172-1.92187l1.69922 1.76953m11.32813-2.48047l-6.1836 3.33984m6.1836-3.33984l2.04296 1.35937m11.3672-1.16796l-6.375 2.95703m6.375-2.95704l1.95702 1.48438m-2.88672-1.05078l.98047.73828m13.37891-.88672l-6.60547 2.39063m6.60547-2.39063l1.82031 1.64844m-2.78125-1.30078l1.82031 1.64453m12.42579-2.07813l-6.54297 2.5625m6.54297-2.5625l1.86328 1.59766m-2.8164-1.22656l1.86327 1.59765m12.08985-2.58593l-5.91407 3.79687m5.91407-3.79687l2.13671 1.19921m-3-.64843l1.07032.60156M400 372.0039l-6.03125 3.60548M400 372.0039l2.10156 1.26953m-2.97656-.74219l1.05078.63281m12.98828-1.39062l-5.72656 4.07031m5.72656-4.07031l2.19531 1.09765m-3.02734-.5078l1.09766.55077m12.98828-1.22656l-5.60156 4.24219m5.60156-4.24219l2.22656 1.02734m-3.04297-.41015l1.11328.51562m12.38282-1.77734l-4.33204 5.53125m4.33204-5.53125l2.41406.42578m-3.04297.3789l1.20703.21485m13.11719-.67188l-5.09375 4.83594m5.09375-4.83594l2.32812.77735M465.5 370.8789l-3.875 5.85937m3.3086-5.00781l1.22265.11719"/><g clip-path="url(#ai)"><path fill="none" stroke="#000" stroke-linecap="round" stroke-linejoin="round" stroke-miterlimit="10" stroke-width=".5" d="M140.8125 359.01172l6.375 2.96484"/></g><path fill="none" stroke="#000" stroke-linecap="round" stroke-linejoin="round" stroke-miterlimit="10" stroke-width=".5" d="M154.07031 359.14453l6.48828 2.69531m-5.54297-2.30078l-.11718-1.22265m18.47265 4.375l-5.48047-4.39844m14.83204-1.09375l2.4453 6.58594m-2.08983-5.62891l.8125-.91406m10.05078 2.10156l6.63672 2.30078m-5.67188-1.96875l-.1875-1.21094m12.91406 3.94922l5.88672-3.83984m-5.03125 3.28125l-1.07422-.59375m15.85938 2.6914l1.23437-6.91796m-1.05469 5.91015l-1.16796.3789m17.14453-.10937l-4.44922-5.4414m4.44922 5.4414l-.94922 2.26172m14.27344-2.26953l-4.46875-5.42578m4.46875 5.42578l-.9375 2.26563m15.28906-3.69141l-6.53906-2.57422m6.53906 2.57422l.27734 2.4375m13.17578-2.86719l-6.8164-1.71484m6.8164 1.71484l.58985 2.38281m12.80468-2.82421l-6.97656-.83204m6.97656.83204l.88672 2.28906m-1.90234-2.41016l.44531 1.14453m13.88281-1.89062l-6.96875.90234m6.96875-.90234l1.41797 2m-2.43359-1.86719l.71094 1m13.59375-1.30469l-6.91797 1.2422m6.91797-1.2422l1.51562 1.9297m-2.52344-1.7461l.75782.96094m13.57031-1.11329l-6.92969 1.1797m6.92969-1.1797l1.5 1.94532m-2.50781-1.77344l.75.97265m13.60547-.91406l-6.9922.72266m6.9922-.72266l1.36718 2.03516m-2.38672-1.92969l.6836 1.01563m13.58984-1.50782l-6.86719 1.4922m6.8672-1.4922l1.58202 1.875m-2.58203-1.65625l.79297.9375m13.48047-1.3125l-6.78906 1.8086m6.78906-1.8086l1.67187 1.79688m-2.66015-1.53516l1.67187 1.79688m12.15235-3.11719l-5.82813 3.92578m5.82813-3.92578l2.16406 1.15234m-3.01172-.58203l2.16406 1.15235m11.67578-2.13672l-5.18359 4.75m5.1836-4.75l2.3125.82031m-3.06641-.1289l2.3125.8203m12.04297-1.15234l-5.7539 4.03516m5.7539-4.03516l2.1875 1.11328m-3.02735-.52734l1.09375.5586m13.27735-.79298l-6.1875 3.33204m6.1875-3.33204l2.03906 1.35938m-2.9414-.875l1.02343.67969m12.89844-1.6211l-5.59766 4.2461m5.59766-4.2461l2.22656 1.02735m-3.03906-.41016l1.11328.51563m13.33203-.62891l-6.23437 3.23828m6.23437-3.23828l2.02344 1.39063m10.70312-2.21094l-5.05859 4.8789m4.32422-4.16796l1.16406.3789"/><g clip-path="url(#aj)"><path fill="none" stroke="#000" stroke-linecap="round" stroke-linejoin="round" stroke-miterlimit="10" stroke-width=".5" d="M147.07031 345.46875l-6.14062 3.42188"/></g><path fill="none" stroke="#000" stroke-linecap="round" stroke-linejoin="round" stroke-miterlimit="10" stroke-width=".5" d="M155.00781 344.52734l4.61328 5.30079m12.76563-5.69141l-3.51563 6.08203m3.00391-5.19922l1.22656.04297m9.4961-1.1289l2.6953 6.48827m-2.30077-5.54296l.77734-.94922m10.14063 2.1875l6.69922 2.1211m-5.72266-1.8125l-.22266-1.20704m13.78906 4.75781l4.2461-5.59765m-4.2461 5.59765l-2.42187-.39062m17.01172 1l1.69531-6.8164m-1.44922 5.82421l-1.1914.30078m15.86328.71485l-1.51172-6.86329m1.51172 6.86329l-1.86719 1.58984m17.0625-2.69922l-5.26953-4.64453m5.26953 4.64453l-.57031 2.38672m14.53906-3.46875l-6.57813-2.47656m6.57813 2.47656l.3125 2.4336m13.0586-2.59766l-6.69141-2.15235m6.6914 2.15235l.4336 2.41406m-1.40625-2.72656l.21484 1.20703m14.17969-1.32031l-6.90625-1.30079m6.90625 1.30079l.73047 2.34375m-1.73438-2.53125l.36328 1.17187m14.01172-1.41797l-7.01562-.4336m7.01562.4336l1.01563 2.23438m-2.03907-2.29688l.50782 1.11719m13.82812-1.53125l-7.00781.51953m7.00781-.51953l1.3086 2.07422m-2.32813-2l.65234 1.03906m13.56641-1.78125l-6.77734 1.85547m6.77734-1.85547l1.6836 1.78516m-2.67188-1.51563l.84375.89453m13.51172-.9375l-6.88281 1.40235m6.8828-1.40235l1.5625 1.89063m-2.5625-1.6875l1.5625 1.89453m12.75391-2.10156l-6.88671 1.41015m6.88671-1.41015l1.5625 1.89062m-2.5664-1.6875l.78125.94531m13.49219-1.33203l-6.79688 1.77735m6.79688-1.77735l1.66406 1.80469m-2.65235-1.54688l1.66407 1.8047m12.34375-2.82423l-6.20313 3.30079m6.20313-3.30079l2.03515 1.3711m-2.9375-.89063l2.03516 1.3711m11.83984-2.375l-5.51953 4.35156m5.51953-4.35156l2.2461.98437m-3.05078-.35156l2.24609.98828m11.55078-1.97656l-4.875 5.0625m4.875-5.0625l2.35938.67187m-3.07032.0625l2.36328.67188m12.07813-.92578l-5.70703 4.09765m5.70703-4.09765l2.19922 1.08593m-3.02735-.48828l2.19922 1.08594m11.875-1.78125l-5.5664 4.29297m5.5664-4.29297l2.23438 1.01172m-3.04688-.38672l1.1211.5039m13.5664-.0625l-6.6875 2.16016m6.6875-2.16015l1.76172 1.71093m-2.73437-1.39453l.88281.85156m13.32812-1.3789l-6.53515 2.58203"/><g clip-path="url(#ak)"><path fill="none" stroke="#000" stroke-linecap="round" stroke-linejoin="round" stroke-miterlimit="10" stroke-width=".5" d="M466.82813 345.88672l1.86718 1.59375"/></g><path fill="none" stroke="#000" stroke-linecap="round" stroke-linejoin="round" stroke-miterlimit="10" stroke-width=".5" d="M465.8789 346.26172l.9336.79687"/><g clip-path="url(#al)"><path fill="none" stroke="#000" stroke-linecap="round" stroke-linejoin="round" stroke-miterlimit="10" stroke-width=".5" d="M141.16016 335.92969l5.67968-4.13281"/></g><path fill="none" stroke="#000" stroke-linecap="round" stroke-linejoin="round" stroke-miterlimit="10" stroke-width=".5" d="M160.53906 332.46875l-6.44922 2.78906m5.51172-2.38281l.95703.76563m12.02735 3.14062l-3.91016-5.83594m18.72266 3.5625l-6.90625-1.28906m5.90234 1.10156l.36719 1.17188m13.96094-1.03125l-6.92578-1.19531m6.92578 1.1953l.76562 2.33204m10.70703.1875l-3.23828-6.23438m2.76563 5.32813l-.69532 1.01172m16.0586-1.76563l-6.39063-2.91406m5.46094 2.49219l.07422 1.22265m12.875.69532l-3.80078-5.90625m3.25 5.04687l-.60156 1.07031m14.96484-.59765l-4.79688-5.13672m4.79688 5.13672l-.79688 2.32031m14.48438-2.72656l-5.53906-4.32031m5.53906 4.3203l-.42188 2.41798m13.61328-2.26563l-5.29296-4.625m5.29297 4.625l-.5586 2.38672m14.35547-3.09766l-6.2539-3.20312m6.2539 3.20312l.03516 2.45313M292.68359 335l.01954 1.22656m14.45312-1.39062l-6.75-1.94531m6.75 1.9453l.50781 2.39844m12.9414-3.2539l-7.01952-.23828m7.01953.23828l1.07812 2.20703m-2.09765-2.23828l.53906 1.10156m13.79688-1.34765l-7.01954.3164m7.01954-.3164l1.24609 2.11328m-2.26953-2.06641l.625 1.0586m13.67187-1.51173l-6.9375 1.13282m6.9375-1.13281l1.48438 1.95312m-2.4961-1.78906l.7422.97656m13.42968-1.74219l-6.6289 2.33594m6.6289-2.33594l1.80469 1.65625m11.65234-1.11328l-6.91406 1.25m6.91406-1.25l1.51953 1.92578m-2.52344-1.74219l.75782.96094m13.4414-1.6211l-6.67187 2.20313m6.67187-2.20312l1.77344 1.69531m-2.7461-1.375l.88673.84766m13.3125-1.40625l-6.4961 2.67969m6.4961-2.6797l1.89062 1.5625m11.48438-1.40624l-6.6172 2.36719m6.6172-2.3672l1.8164 1.65235m11.41016-1.875l-6.4414 2.8125m6.4414-2.8125l1.92187 1.52735m-2.85937-1.1172l.96094.76173m12.51171-2.29297l-4.8789 5.05469m4.8789-5.0547l2.35938.67579m11.42187-.1211l-5.8125 3.94532m5.8125-3.94531l2.17188 1.14453m-3.01563-.57032l1.08204.57032m13.48437-.34375l-6.625 2.34375"/><g clip-path="url(#am)"><path fill="none" stroke="#000" stroke-linecap="round" stroke-linejoin="round" stroke-miterlimit="10" stroke-width=".5" d="M466.875 332.6914l1.8086 1.65626"/></g><path fill="none" stroke="#000" stroke-linecap="round" stroke-linejoin="round" stroke-miterlimit="10" stroke-width=".5" d="M465.91016 333.03125l.90234.82813"/><g clip-path="url(#an)"><path fill="none" stroke="#000" stroke-linecap="round" stroke-linejoin="round" stroke-miterlimit="10" stroke-width=".5" d="M141.3164 322.8164l5.3672-4.53906"/></g><path fill="none" stroke="#000" stroke-linecap="round" stroke-linejoin="round" stroke-miterlimit="10" stroke-width=".5" d="M155.84375 323.73828l2.94531-6.3789m-2.51953 5.44921l-1.22266.07032m18.51563-4.26563l-5.86719 3.86719m5.01563-3.30469l1.07812.58985m13.44922-.4375l-6.58594 2.4414m6.58594-2.4414l1.83594 1.6289m11.3789 1.05469l-6.38671-2.92578m6.38672 2.92578l.14453 2.44922m-1.07422-2.875l.07422 1.22265m14.30468-1.13671l-6.65625-2.25m6.65625 2.25l.39844 2.42187m-1.36719-2.75l.19922 1.21094m14.22266-1.41797l-6.92969-1.17969m6.92969 1.17969l.76953 2.32812m12.35547-1.64843l-6.55078-2.53516m6.55078 2.53516l.29297 2.4375m12.03125-1.03516l-4.57031-5.33984m4.5703 5.33984l-.89843 2.28125m14.16797-2.24219l-4.47656-5.41797m4.47656 5.41797l-.9375 2.26563m.28515-3.05469l-.46875 1.13281m14.77735-.66797l-5.16016-4.76953m5.16016 4.76953l-.625 2.3711m-.125-3.0664l-.3125 1.1875m14.7461-.96876l-5.89845-3.82031m5.89844 3.82031l-.21094 2.44531m13.80079-2.96093l-6.44922-2.78907m6.44922 2.78907l.19921 2.44921m13.33594-3.14453l-6.88672-1.39843m6.88672 1.39843l.69922 2.35157m-1.69922-2.5547l.34766 1.17579m14.03906-1.61719l-7.02734-.10547m7.02734.10547l1.11719 2.1836m11.96484-3.4922l-6.5625 2.51173m6.5625-2.51172l1.85156 1.60937m10.71485-2.78906l-5.0664 4.8711m5.0664-4.8711l2.33203.76172m11.41406-.21094l-5.92969 3.76953m5.06641-3.22265l1.07031.60547m13.27735-.85547l-6.26563 3.17578m6.26563-3.17578l2.00781 1.41015m10.58984-2.375l-4.83203 5.10157m4.83203-5.10157l2.3672.65625m-3.07032.08594l1.1836.32813m13.01952-.88282l-5.19922 4.73047m5.19922-4.73047l2.3086.82813m11.04297-.78516l-5.27344 4.64453m4.5039-3.96875l1.14844.4297m12.98438-1.04688l-5.375 4.52734m18.97265-4.14063l-5.9375 3.75391m5.9375-3.7539l2.13282 1.21484m10.95703-1.53516l-5.48828 4.39063"/><g clip-path="url(#ao)"><path fill="none" stroke="#000" stroke-linecap="round" stroke-linejoin="round" stroke-miterlimit="10" stroke-width=".5" d="M466.30469 318.35156l2.2539.97266"/></g><path fill="none" stroke="#000" stroke-linecap="round" stroke-linejoin="round" stroke-miterlimit="10" stroke-width=".5" d="M465.50781 318.99219l1.125.48437"/><path fill="#00f" fill-rule="evenodd" d="M317.22656 467.64844h8.61719V457.5039h-8.61719v10.14453"/><path fill="azure" fill-rule="evenodd" d="M319.0586 459.33594h.83202v2.82422h3.28516v-2.82422h.83594v6.48047h-.83594v-2.91797h-3.28515v2.91797h-.83204v-6.48047"/><path fill="#00f" fill-rule="evenodd" d="M383.80078 436.57813h8.61719v-10.14454h-8.61719v10.14454"/><path fill="azure" fill-rule="evenodd" d="M385.63281 428.26563h.83203v2.82421h3.28907v-2.82421h.83203v6.48046h-.83203v-2.91406h-3.28907v2.91406h-.83203v-6.48046"/><path fill="#ff3030" fill-rule="evenodd" d="M384.4961 414.38672h7.6914v-10.14453h-7.6914v10.14453"/><path fill="azure" fill-rule="evenodd" d="M386.32813 406.07422h.83203v5.74219h3.1953v.73828h-4.02733v-6.48047"/><path fill="#ff3030" fill-rule="evenodd" d="M295.72656 409.94922h7.69531v-10.14453h-7.6953v10.14453"/><path fill="azure" fill-rule="evenodd" d="M297.5586 401.63672h.83593v5.73828h3.1914v.74219h-4.02734v-6.48047"/><path fill="#ff3030" fill-rule="evenodd" d="M206.96094 365.5664h7.6914v-10.14452h-7.6914v10.14453"/><path fill="azure" fill-rule="evenodd" d="M208.79297 357.2539h.83203v5.73829h3.19531v.74219h-4.02734v-6.48047"/><path fill="#ffffe0" fill-rule="evenodd" d="M405.83984 454.5664h22.1797v-10.1953h-22.1797v10.1953"/><path fill-rule="evenodd" d="M409.33984 446.20703h.50782V452.5h-.78907v-4.48828h-1.38671v-.55469l.55859-.0664.2539-.0547.23047-.08984.20313-.14062.17187-.21094.14454-.29297.10546-.39453m4.8125 0l.23047.01563.21875.05859.20703.08984.19532.1211.18359.14844.17188.17578.30078.41796.24609.4961.17969.54297.10937.58203.03906.58984-.03906.59375-.10937.58203-.17969.5547-.2461.5039-.30077.42578-.17188.17969-.1836.15625-.1953.12109-.20704.09375-.21875.05469-.23047.01953-.23046-.01953-.21875-.05469-.20704-.09375-.1953-.1211-.1875-.15624-.16798-.1797-.30469-.42577-.24218-.5039-.17969-.5547-.11328-.58203-.03516-.59375h.83203l.02735.5625.08203.50781.1289.44141.16016.375.1914.30078.21094.22266.22266.13672.22656.04687.22657-.04687.22265-.13672.21094-.22266.1914-.30078.16016-.375.1289-.4414.07813-.50782.03125-.5625-.03125-.5625-.07812-.5-.1289-.4336-.16016-.36718-.19141-.29297-.21094-.21484-.22265-.1289-.22657-.04688-.22656.04687-.22265.1289-.21094.21485-.1914.29297-.16017.36719-.1289.4336-.08203.5-.02735.5625h-.83203l.03516-.58985.11328-.58203.17969-.54297.24219-.4961.30468-.41796.16797-.17579.1875-.14843.19531-.1211.20704-.08984.21875-.0586.23046-.01562m4.95313 0l.22656.01563.22266.05859.20703.08984.19531.1211.1836.14844.17187.17578.30078.41796.2461.4961.17968.54297.10938.58203.03906.58984-.03906.59375-.10938.58203-.17969.5547-.24609.5039-.30078.42578-.17188.17969-.18359.15625-.19531.12109-.20703.09375-.22266.05469-.22656.01953-.23047-.01953-.21875-.05469-.20703-.09375-.19922-.1211-.1836-.15624-.17187-.1797-.30078-.42577-.24219-.5039-.17969-.5547-.11328-.58203-.03515-.59375h.83203l.02734.5625.08203.50781.125.44141.16407.375.1914.30078.21094.22266.22266.13672.22656.04687.22656-.04687.22266-.13672.21094-.22266.1875-.30078.16406-.375.125-.4414.08203-.50782.03125-.5625-.03125-.5625-.08203-.5-.125-.4336-.16406-.36718-.1875-.29297-.21094-.21484-.22266-.1289-.22656-.04688-.22656.04687-.22266.1289-.21094.21485-.1914.29297-.16407.36719-.125.4336-.08203.5-.02734.5625h-.83203l.03515-.58985.11329-.58203.17968-.54297.24219-.4961.30078-.41796.17188-.17579.18359-.14843.19922-.1211.20703-.08984.21875-.0586.23047-.01562m4.95312 0l.38672.02735.35938.08203.32031.13671.28125.1875.23047.23438.17187.28906.10938.33203.03515.375-.01953.27344-.05859.23438-.08594.20312-.11328.16797-.1289.14453-.14063.1211-.28516.19921.23438.1172.20703.14843.17969.17187.15625.19141.1211.21484.08983.23047.0586.24219.01953.25781-.03516.3086-.10546.32421-.17188.32813-.23828.30469-.3086.26953-.37109.21484-.21094.08203-.23046.0586-.2422.03906-.26171.01172-.26172-.01172-.24219-.03906-.22265-.0586-.20313-.08203-.35937-.21484-.29297-.26953-.22266-.30469-.15625-.32813-.09375-.32421-.02734-.3086h.83203l.02734.25.07813.23828.1211.21094.16015.1836.19531.15234.21875.11719.23828.0703.25781.02735.25391-.02734.23828-.07031.22266-.1172.1914-.15233.16016-.1836.125-.21094.07422-.23828.02734-.25-.02734-.2539-.07422-.23438-.125-.21484-.16016-.1836-.1914-.15234-.22266-.11328-.23828-.07422-.2539-.02344-.25782.02344-.23828.07422-.21875.11328-.19531.15234-.16016.1836-.1211.21484-.07812.23438-.02734.2539h-.83203l.01562-.2539.0586-.2422.08984-.22265.125-.20703.15234-.1914.1836-.17188.20703-.15234.23047-.13282-.28516-.19921-.14062-.1211-.12891-.14453-.11328-.16797-.08594-.20312-.0586-.23438-.01952-.27344h.78515l.02344.21485.0664.1914.10548.16797.13671.13672.16407.11328.1875.08203.20703.05079.22265.01562.21875-.01563.20704-.05078.1875-.08203.16796-.11328.13672-.13672.10156-.16797.06641-.1914.02344-.21485-.02344-.21484-.0664-.1914-.10157-.16407-.13672-.14062-.16796-.11329-.1875-.07812-.20704-.05078-.21875-.01953-.22265.01953-.20703.05078-.1875.07813-.16407.11328-.13671.14062-.10547.16406-.06641.19141-.02344.21484h-.78515l.03906-.375.10547-.33203.17578-.28906.23047-.23438.27734-.1875.32422-.13671.35938-.08204.38671-.02734"/><path fill="#ffffe0" fill-rule="evenodd" d="M335.98438 352.48438h22.18359v-10.19532h-22.1836v10.19531"/><path fill-rule="evenodd" d="M339.48438 344.125h.51171v6.29297h-.78906v-4.48828h-1.38672v-.5586l.5586-.0625.2539-.05468.22656-.08985.20313-.14062.17578-.21094.14063-.29297.10546-.39453m4.81641 0l.22656.01563.21875.05859.21094.08984.19531.11719.1836.15234.17187.17579.30078.41796.2422.4961.17968.54297.11328.58203.03906.58984-.03906.59375-.11328.58203-.17969.55469-.24219.5039-.30078.42579-.17187.17969-.1836.15234-.1953.125-.21095.09375-.21875.05469-.22656.01953-.23047-.01953-.21875-.0547-.20703-.09374-.19922-.125-.1836-.15235-.17187-.17968-.30078-.42578-.24219-.50391-.17968-.55469-.11328-.58203-.03907-.59375h.83594l.02735.5625.08203.50781.125.44141.16406.375.1914.30078.21094.22266.22266.13672.22656.04687.22266-.04687.22265-.13672.21094-.22266.1914-.30078.16407-.375.125-.4414.08203-.50782.02735-.5625-.02735-.5625-.08203-.5-.125-.4336-.16406-.36718-.1914-.29297-.21095-.21484-.22265-.1289-.22266-.04688-.22656.04687-.22266.1289-.21094.21485-.1914.29297-.16406.36719-.125.4336-.08204.5-.02734.5625h-.83594l.03907-.58985.11328-.58203.17969-.54297.24218-.4961.30078-.41796.17188-.17579.1836-.15234.19921-.11719.20703-.08984.21875-.0586.23047-.01562m5.08985 0h.5078v6.29297h-.78515v-4.48828h-1.39062v-.5586l.5625-.0625.25-.05468.23046-.08985.20313-.14062.17578-.21094.14063-.29297.10546-.39453m2.82422 2.17188H353l.01953-.3125.0586-.28907.10156-.25.14062-.21875.17969-.17187.22266-.1289.26562-.08204.3086-.02734.23828.02343.22265.0625.20313.10157.17969.13671.14843.17579.11328.20312.07422.23828.02344.26172-.02344.26953-.0625.22656-.11328.19141-.15234.17188-.20313.16015-.2461.16797-.6328.38672-.53907.3125-.4375.3164-.34765.32813-.26172.33594-.1914.34765-.125.3711-.06641.39453-.02344.41797h4.21094v-.74219h-3.33204l.08594-.28125.11328-.23828.14844-.20313.1875-.17968.23047-.16797.27734-.17578.71875-.41797.41407-.20703.34375-.23047.28125-.25.21875-.26953.16406-.27735.11328-.28125.0625-.28515.01953-.28125-.03906-.38281-.1211-.35157-.1914-.30469-.25-.26562-.30078-.21094-.34766-.16015-.3789-.09766-.40625-.03125-.4336.03125-.39844.09766-.35546.16796-.3047.23438-.25.30469-.18359.3711-.11718.44921-.03907.51563"/><path fill="#ffffe0" fill-rule="evenodd" d="M177.52344 327.03906h22.1836v-10.1914h-22.1836v10.1914"/><path fill-rule="evenodd" d="M181.02344 318.67969h.51172v6.29297h-.78907v-4.48829h-1.38672v-.55468l.5586-.0664.25-.0547.23047-.08984.20312-.14063.17578-.21093.14063-.29297.10547-.39453m4.8125 0l.23047.01953.21875.05469.20703.08984.19922.1211.18359.14843.17188.17578.30078.41797.24218.4961.1797.54687.11327.57813.03906.58984-.03906.59375-.11328.58594-.17969.55468-.24218.5-.30078.4297-.17188.17968-.1836.15234-.19921.1211-.20703.09375-.21875.05859-.23047.01953-.22656-.01953-.21875-.0586-.21094-.09374-.19531-.1211-.1836-.15234-.17187-.17969-.30078-.42969-.2422-.5-.17968-.55468-.11328-.58594-.03906-.59375h.83593l.02735.5625.08203.50781.125.4414.16406.375.1914.30079.21095.22265.22265.13672.22266.04688.22656-.04688.22266-.13671.21093-.22266.19141-.30078.16406-.375.125-.4414.08203-.50782.02735-.5625-.02735-.5586-.08203-.5039-.125-.4336-.16406-.36718-.1914-.28906-.21094-.21485-.22266-.13281-.22656-.04297-.22266.04297-.22266.13281-.21093.21485-.1914.28906-.16407.36719-.125.43359-.08203.5039-.02735.5586h-.83593l.03906-.58985.11328-.57812.17969-.54688.24219-.49609.30078-.41797.17187-.17578.1836-.14844.1953-.12109.21095-.08984.21875-.0547.22656-.01952m5.09375 0h.50781v6.29297h-.78516v-4.48829h-1.39062v-.55468l.5625-.0664.25-.0547.23047-.08984.20312-.14063.17578-.21093.14063-.29297.10547-.39453m2.82422 2.17578h.78515l.01953-.3164.0586-.28516.10156-.25391.14063-.21484.17968-.17579.22266-.1289.26562-.07813.3086-.02734.23828.01953.22266.0625.20312.10156.17969.14063.14844.17187.11328.20704.07422.23437.02343.26563-.02344.26562-.0625.22656-.11328.1914-.15234.17188-.20313.16016-.24609.16797-.63281.39062-.53906.3125-.4375.31641-.34766.32422-.26172.33594-.1914.35156-.125.36719-.06641.39453-.02344.41797h4.21094v-.73829h-3.33203l.08594-.28515.11328-.23828.14843-.19922.1875-.17969.23047-.17187.27735-.17579.71875-.41796.41406-.20313.34375-.23047.28125-.2539.21875-.26563.16406-.27734.11328-.28516.0625-.28515.01953-.28125-.03906-.38282-.1211-.34765-.1914-.3086-.25-.26172-.30078-.21484-.34766-.15625-.3789-.09766-.40625-.03515-.4336.03125-.39843.10156-.35547.16406-.30469.23438-.25.30469-.1836.375-.11718.4453-.03906.51954"/></g></defs><use xlink:href="#ap"/></svg>