<svg xmlns="http://www.w3.org/2000/svg" role="img" xmlns:xlink="http://www.w3.org/1999/xlink" viewBox="142.45 309.95 326.84 171.84"><defs><clipPath id="a"><path d="M144 311.67188h324v168.65625H144zm0 0"/></clipPath><clipPath id="b"><path d="M144 480h4v.32813h-4zm0 0"/></clipPath><clipPath id="c"><path d="M147 480h2v.32813h-2zm0 0"/></clipPath><clipPath id="d"><path d="M146 480h2v.32813h-2zm0 0"/></clipPath><clipPath id="e"><path d="M153 479h9v1.32813h-9zm0 0"/></clipPath><clipPath id="f"><path d="M160 480h3v.32813h-3zm0 0"/></clipPath><clipPath id="g"><path d="M159 480h2v.32813h-2zm0 0"/></clipPath><clipPath id="h"><path d="M166 480h9v.32813h-9zm0 0"/></clipPath><clipPath id="i"><path d="M173 480h3v.32813h-3zm0 0"/></clipPath><clipPath id="j"><path d="M172 480h2v.32813h-2zm0 0"/></clipPath><clipPath id="k"><path d="M180 479h8v1.32813h-8zm0 0"/></clipPath><clipPath id="l"><path d="M187 479h2v1.32813h-2zm0 0"/></clipPath><clipPath id="m"><path d="M186 479h2v1.32813h-2zm0 0"/></clipPath><clipPath id="n"><path d="M193 479h9v1.32813h-9zm0 0"/></clipPath><clipPath id="o"><path d="M200 480h3v.32813h-3zm0 0"/></clipPath><clipPath id="p"><path d="M199 480h2v.32813h-2zm0 0"/></clipPath><clipPath id="q"><path d="M206 479h9v1.32813h-9zm0 0"/></clipPath><clipPath id="r"><path d="M220 479h8v1.32813h-8zm0 0"/></clipPath><clipPath id="s"><path d="M233 479h8v1.32813h-8zm0 0"/></clipPath><clipPath id="t"><path d="M239 480h2v.32813h-2zm0 0"/></clipPath><clipPath id="u"><path d="M246 479h9v1.32813h-9zm0 0"/></clipPath><clipPath id="v"><path d="M252 480h2v.32813h-2zm0 0"/></clipPath><clipPath id="w"><path d="M260 478h8v2.32813h-8zm0 0"/></clipPath><clipPath id="x"><path d="M273 478h8v2.32813h-8zm0 0"/></clipPath><clipPath id="y"><path d="M288 476h4v4.32813h-4zm0 0"/></clipPath><clipPath id="z"><path d="M302 476h4v4.32813h-4zm0 0"/></clipPath><clipPath id="A"><path d="M315 476h4v4.32813h-4zm0 0"/></clipPath><clipPath id="B"><path d="M328 477h5v3.32813h-5zm0 0"/></clipPath><clipPath id="C"><path d="M340 478h7v2.32813h-7zm0 0"/></clipPath><clipPath id="D"><path d="M353 478h8v2.32813h-8zm0 0"/></clipPath><clipPath id="E"><path d="M367 478h7v2.32813h-7zm0 0"/></clipPath><clipPath id="F"><path d="M380 477h7v3.32813h-7zm0 0"/></clipPath><clipPath id="G"><path d="M393 479h8v1.32813h-8zm0 0"/></clipPath><clipPath id="H"><path d="M407 477h7v3.32813h-7zm0 0"/></clipPath><clipPath id="I"><path d="M422 476h3v4.32813h-3zm0 0"/></clipPath><clipPath id="J"><path d="M435 476h4v4.32813h-4zm0 0"/></clipPath><clipPath id="K"><path d="M446 479h8v1.32813h-8zm0 0"/></clipPath><clipPath id="L"><path d="M463 476h2v4.32813h-2zm0 0"/></clipPath><clipPath id="M"><path d="M144 466h4v2h-4zm0 0"/></clipPath><clipPath id="N"><path d="M144 453h4v2h-4zm0 0"/></clipPath><clipPath id="O"><path d="M144 439h4v3h-4zm0 0"/></clipPath><clipPath id="P"><path d="M144 426h4v2h-4zm0 0"/></clipPath><clipPath id="Q"><path d="M144 412h4v4h-4zm0 0"/></clipPath><clipPath id="R"><path d="M144 398h4v5h-4zm0 0"/></clipPath><clipPath id="S"><path d="M465 397h3v2h-3zm0 0"/></clipPath><clipPath id="T"><path d="M144 385h4v4h-4zm0 0"/></clipPath><clipPath id="U"><path d="M466 385h2v4h-2zm0 0"/></clipPath><clipPath id="V"><path d="M144 372h4v3h-4zm0 0"/></clipPath><clipPath id="W"><path d="M144 359h4v3h-4zm0 0"/></clipPath><clipPath id="X"><path d="M144 345h4v5h-4zm0 0"/></clipPath><clipPath id="Y"><path d="M466 345h2v3h-2zm0 0"/></clipPath><clipPath id="Z"><path d="M144 331h3v6h-3zm0 0"/></clipPath><clipPath id="aa"><path d="M466 331h2v3h-2zm0 0"/></clipPath><clipPath id="ab"><path d="M144 318h4v5h-4zm0 0"/></clipPath><clipPath id="ac"><path d="M465 317h3v2h-3zm0 0"/></clipPath><g id="ad" clip-path="url(#clip1)"><path fill="#fff" fill-opacity="0" fill-rule="evenodd" d="M0 0h1000v1000H0zm0 0"/><path fill="#d3d3d3" fill-opacity="0" fill-rule="evenodd" d="M162.15234 355.86719l-.23437.29297.0586.23437.11718.17188.17578.23437.29297.34766.11328.0586.11719-.17188.0586-.23438.17577-.17578.46485-.17578h.69922l.23437.29297.28906.8164.0586.17579.17578.23046.35156.23438.69922.69922.17188.17578.23437.34765.23438.41016.28906.58203.41015.46485.23047.23437.23438.17578.11719.23047.17578.29297.17187 1.16406v.23438l.0586.28906.05859.11719.11719.11719.34765.41015.11719.17188.17578.17578.17578.23437.11719.17188.17188.35156.05859.23438.23437.40625.23438-.0586-.17578.17578-.0586.92969h-.58203l-.23437-.11328-.34766.11328-.11719.11719-.05859.29297-.0586.17578-.11718.17187-.46484.29297-.0586.23438-.0586.11328v.64453l.0586.17187v.41016l.0586.0586v.40624l.05859.40625.11719.17579.05859.05859.23047.64062-.0586.29297v.69922l-.05859.58203v.23438l-.0586.23047-.05468.35156v1.92187l.05469.1172h.42578l-.36719.11718-.02344.35156.89063 1.16797 1.74219.53906 1.33984.35938v.53906l.08984.8086.53516.71484 1.51953.26953.89063-.08594.08984 1.16406.53516.1797 1.16015-.1797 2.05469-.98437 1.16016-.36328 1.8789-.17578 1.69531-.1797-.17968.71876-1.51563.08594-1.25.08984-.80469.26953-1.07421.8086.26953.71875.53515.89843-.17968.625-.26563.8086.26563 1.07812.625.89844.80468.17969 1.25-.1797-.26562.72267.09766.5039.05468.29297v.17188l.0586.29296v.40625l.17578.1172.35156.11718h.40625l.29297-.17578.11328-.11719.0586-.11719.11718-.23047.0586-.17578.35156-.46484.23047-.17578.17578-.0586.17578.0586.0586.17578.11718.98828.05469.46875.0586.17188.11718.23437.17578.0586.8164.05859h.28907l.11719.23437.05859.40625.0586.35156v1.10547l.11718.29297.11719.34766.28906.69922.17578.35156.58203.7539.35157.17579.17187.0586.46875.23437.64063.46484.34765.23438.29297.17578.29297.05468.23047.0625.8164.34766.29297.17578.11328.17188.35157.35156.11719.17578.52343.64063v.28906l.0586.35156v.34766l.05859.35156.0586.28906.11718.0586.17188.05859h.17578l.58203.23437.17578.1172.17578.28905.17578.23438.11328.23437.29297.23047.11719.11719v.41016l.0586.05468.28906.23438.23437.11719.0586.11718.11718.17188.0586.11719.23047.23437.05859.17578.23437.0586.1172.05859-.1172.11328-.05859.11719v.11719l-.11719.29296-.11719.28907v.58203l.17579.11719.11718.05859.0586.11719.11719.11719.11328.05859.17578.34765.0586.35157.05858.40625v.17578l-.05859.17578-.11719.69922v.17187l.1172.17579.29296.29296h.40625l.17578.1172.11719.17187.11719.29296v.23438h-.52735l-.23047-.23438h-.23437l-.17578.0586-.0586.69922.0586.34765.11719.17579.17578.41015.11718.23047.28907.46875.17578.05469h.52344l.23437.0586.75781.64062.0586.29296v.23438l.05859.0586.23047.34765v.35156l-.11719.17188v.29297l.29297.28906.29297.17578.17187.0586.29297.17577.29297.1172.58203.40624.28906.23438.29297.17578.21875.16015.01563.01172.23047.17579.64062.52343.17578.23438.1172.17578.17577.17578.11328.17188v.64062l.1172.17578.46874.11719.58203.11719.23438.05859.23047.11328.29297.11719.11328.0586.58593.35156.28907.17187.17578.0625.17578.05469.17578.0586.69922.35155.28906.17579.23438.05468.28906.17578.23437.1172.64063.40624.29297.11719.17187.0586.23438.05859.41015.05859.23047.0586.23438.11718.0586.17188-.41017.17578.46875.0586.0586.29296.11328.23438.17578.05468.23438.0586.17578.05859.40625.11719.64062.23437.11719.17188.0586.23437v.17578l-.0586.1172-.0586.40624.23438.23438.11719.05859.34766.11719.64062.23047.17578.11718.28906.1172.17578.17577.23438.46485.58203 1.10546.17578.17579.34766.17578.17578.11719.35156.11718 1.04688.52344.23437.0586.46485.11327.29297.0586.46484.17578.75781.58203.23438.23438.34765.46484.17578.17578.28907.23438.8164.69921.29297.17579.28906.28906.29297.17578.29297.28906.69531.64063.17578.17578.29297.23437.28907.23438.46875.28906.64062.58203.34766.23438.23437.29297.34766.34765.35156.46485.9336.99218.34765.40625.11719.17579.23437.05859.11328.11719.64454.17578.23047.11328.23437.0586.29297.17577.23047.1172.9336.69921.40624.40625.23438.17578.40625.17578.23437.11719.8164.34766.34766.23437.23438.11719.29297.28906.23047.11719.7578.35156.35157.17188.23047.05859.29297.11719.23437.0586.8711.17577h.8164l.46875.23047.17188.0586.875.69921.46484.1172.29297.05858.17578.0586.23047.0586.46875.05859.34766.05859.35156.0586.40625.05859h.29297l.17187.0586v.23046l.17578.17578h.29297l.34766.0586.35156.05859.69922.11719h.64063l.46484-.23438.29297-.17578.17187-.11719.41016-.17187.28906-.17578.9336-.46485.46875-.29297.52343-.29296.46485-.17188.46484-.17578 1.05078-.46485.28906-.11718.41016-.11719.28906-.11719.52735-.17578 1.51562-.69922.58203-.34765.28907-.0586.29297-.0586.34765-.11718.875-.23047.35156-.11719h.11329l.23437-.05859.875-.23437.23438-.0586h.8125l.35156-.0586.8164-.11718.17188-.0586.35156-.05468.29297-.0586.23047-.05859.8164-.17578.17579-.0586h.34765l.23438-.05859.46484-.11718.75781-.17188.23438-.0586h.34765l.41016-.11718.28906-.0586 1.28516-.05859h.28906l.41016-.0586.23047-.05858h.17578l.875-.1172h.40625l.41015-.11718h.34766l.35156-.11328.8711-.0586h1.75l1.04687.28907.41016.11719.28906.11718.35156.11719.28907.11719 1.05078.17187.28906.0586h.29297l.29297.05859.17187.0586.41016.05859.17187.0586.1172.05858h.11718l.11719.0586.35156.0586h.11328l.41016.0664 1.92187.39453 1.92578.39453 1.51953.44922 1.69532.71875 2.14453.80469 1.60547-.71875 1.42968-.80469 1.16016-1.07813 1.25-.44921 3.03516-.71875 1.875-.35938 2.14453-1.34765 2.23437-1.25391 2.5-1.25781 1.69531-.44922 1.78516-.17969 1.16016-.26953.625.53906 1.33984-.26953.71485-.98828.98437-1.34375.44531-.17969.80469-.35937 1.875-.53907 1.78516-.44921 1.25-.26954 1.16015-.08984 1.69922-.08984 1.96094-.26954 1.25-.08984h.53906l.625-.08984h.89063l2.14453-.17969 2.41015-.17969 2.58985-.08984 1.69531.17969 1.60938.08984 1.42968.35938 1.16016.71875 1.875.98828 1.16015 1.52734.26563.71484.6289.08985.35548.89844.53515.53906.53516 1.52734 1.07422.35938h.53515l-.80469.53515.08985 1.70703.71484 2.69532.89063.80468.89453.98829.71484 1.2578 1.78516.53907 1.51953-.17969.35547 1.34375 1.60937-.80469.98047-.53906.26953.26953.31641-.21484.21875-.14453.80078.44922.44922-.35938h.35547l.53515-.26953.53907-.71875.53515-.26953.625-.98828 1.16016.44922.83984.3711 1.39454.61718 1.6953-.17969h1.60548l1.78515.08985.17969-1.70704.53516-1.34375.80468.26954.4922.84765.40233.40625-.08984.53906v.35938l.71485.44922.71093-.26953h1.42969l.35938.98828.4453 1.25781.71485 1.34375 1.25.6289 1.69531.62891.71485-.17969.17969-.53906.98046-.08984.44922.35937.08594 1.25782-.26563.6289-.53515.17969v.53906l.71484.98438.26563.53906.98437.98828.80078 1.07813-.26562.35937-.08985.89844-.625 2.33203-.35546 2.0664-.08985 1.79298-.17969.71875-.08984.53906v1.4375l-.98047 1.88281-.35937 1.70703-.53516.89844-.80469 1.16797-.26562.53906 2.05469 1.2539.08593.35938-.35546.53906-.08985-.17968v.80859l.08985 1.4375-.44532.71484-1.07422.09375-.26562.71485.53515.89844.8047.71875 1.16015.80859 1.33984.26953.44531.35938-.35546.44921-1.78907-.08984-1.25-.44922-.71484-.71875-.625-.08984-.17578 3.58984-.1875 1.3086h89.35937V311.70313h-55.26953v49.08203l.76172.125 3.28906.54296 2.02344 2.83594v2.7539l2.35156.33204 2.34766.33203h4.05078l-1.3789 4.16016-2.02344.70703-2.02344.70312-.54297.34375-2.59375 1.6172-.1875.11718-2.02344-2.07813-.73046-2.74218-2.67188-2.07813-1.375-3.5-.0664-.08203-1.95704-2.67188 2.75-1.41796v-49.08204H294.42187v91.41407l.1172.03125.1328.01172.07422.07421.10547.04688.08985.0586.08593.05859.08985.0586.29687.29687.0586.08984.03125.11719.02734.11719.01563.13671-.03125.1172-.0586.08983-.0586.08594-.04296.10547-.04688.10156-.02734.1211v.14453l.17578.26953.14844.14844.07422.08594.07422.07421.04296.10547.0625.08985.0586.08593.04297.10547.0586.08985.04687.10156.04296.10547.0586.08594.11719.17968.07421.07422.0625.08594.0586.08984.04297.10547.0586.08985.05858.08593.0625.08985.0586.08984.04297.10156.11719.17969.07421.07422.0586.08594.07422.07421.08984.0586.10547.04687h.14844l.1328-.01562.13282.01562.10156-.04687.07422-.07422.04688-.10156-.01563-.13281v-.14844l-.04687-.10547-.02735-.11719-.04687-.10156-.02735-.1211-.04296-.10156-.0625-.08984-.04297-.10156-.04297-.10547-.03125-.11719-.01563-.13281-.01171-.13672.08593-.0586.0586-.08593.12109-.03125.04297.10547.01562.1328v.1172l.0586.10156.0586.08984.08983.0586.14844.14843.0586.08985.04296.10547-.01171.10156.08593.0586.10547.04687.08594.0586.08984.05858.07422.07422-.11719.02735-.10546.04687-.08594.0586-.07422.07421-.0586.08985-.0625.08594-.02734.12109-.04687.10156-.04297.10547-.03125.11719-.01172.13281-.01563.13281v.14844l.02735.11719.04687.10547.04297.10156.0586.08984.07421.07422.08985.0586.07422.07421.08984.0586.0586.08984.04296.10547.04688.10156.11719.03125.1328.01563h.14845l.11718-.03125.10547.04297.04297.10547.04688.10156.02734.1211L299.5 410l.02734.11719.03125.1211.02735.11718.10547.04297.10156.04687.13281-.01562.14844.14844.0625.08593.07422.07422.07031.07422.08984.0625.10547.04297.10156.04297.1172.03125.13671.01562.11719-.03125.07422-.07422.02734-.11718-.01172-.13282-.03125-.12109-.02734-.11719.04297-.10547h.11719l.08984.0625.11719.02735h.14843l.13282.01562h.14843l.13282.01563.1328-.01563h.14845l.1328-.01562.13282-.01172.13672.01172.11719-.02735.13281-.01562.1914-.0586-.05859.17579-.01562.1328-.02735.1211-.01562.13281-.0586.08594-.1328.01563-.10548.04687-.10546.04297-.1172.03125-.11718.02735-.26563.03125h-.14843l-.13281.01562-.07422.07422.05859.08594.14844.14843.11719.1797.07421.0703.08985.0625.08984.0586.08594.0586.08984.05858.10156.04297.10547.0625.10547.04297.08594.0586.10547.04687.10156.04297.17969.11719.0586.08984-.04298.10156-.04687.10547.01562.13281.22266.22266.0586.08985.04296.10156.03125.1211.04297.10155.01563.13282.03125.11718.01171.13672.03125.11719.14844.14844.10156.04297.10547.04296.1172.03125.1328.01563.13672.01563h.11719l.11719-.03125.08984-.0586.04297-.10547.04688-.10156.04296-.10547.03125-.11719.01172-.1328v-.14845l-.01172-.1328-.01562-.13282-.03125-.11719-.04297-.10547-.04688-.10547-.04296-.10156-.04297-.10547-.01563-.13281.01563-.13281.02734-.11719.03125-.11719.02735-.1211.04687-.10155.08984-.0586.08594-.0625.07422-.07422.08984-.05859.22266-.22266.0586-.08593.07421-.07422.11719-.17969.0586-.08594v-.14844l-.07423-.07421-.10156-.04688-.10547-.04297-.10156-.04297-.0586-.08984-.04687-.10547-.02734-.11719.08984-.05859.11719-.03125.10156-.04297.17969-.11719.14844-.14843.01172-.13282-.01172-.10546-.08985-.0586-.1328.01563h-.14845l-.1328.01562-.13282-.01562-.1211-.03125-.08593-.0586-.07422-.07422-.0586-.08984-.0625-.08594-.11718-.17969-.0586-.08593.03125-.1211.08594-.05859.1211-.03125.05859-.08594v-.1211l-.03125-.11718-.0586-.08984-.05859-.08594-.04687-.10547-.02735-.11719-.01562-.1328.0586-.08985.07421-.07422.08984-.0586.1172-.17968.07421-.07422.0586-.08594.14843-.14844.1211-.03125.1328-.01562.13282.01562.07422.07422.04297.10547.01562.13281-.03125.1172-.11719.03124-.1328.01172-.14844.14844-.04297.10547-.04688.10156-.02734.1211-.03125.11718v.14844l.03125.11719.04297.10546.05859.08985.07422.07031.07422.07422.11719.03125.12109.02734.11719-.02734.1328-.01563h.1172l.08984.0586.07422.07422.04687.10546.0586.08594.10156.04688.13281.01562.10547.04297.08594.0586-.01172.10546-.07422.07422-.17969.11719-.05859.08984-.08984.0586-.07032.07422-.07421.07421-.0625.08985-.02735.11719-.01562.1328.01562.13282-.01562.13281v.14844l.01562.13281.02735.1172.03125.12108.07421.07422.08985.0586.08594.0586.08984.05858.11719.03125v.08594l-.10157.04688-.08984.0586-.26563.03124-.11718.02735h-.14844l-.10547.04296-.10156.04688-.0586.08984-.0625.23438-.01171.13281-.03125.1211-.01563.1328v.29298l-.01172.1328.01172.13673.01563.1328.1328.01563.13282.01172.1211.03125.08593.0586.07422.07421.04688.10547.04296.10157.01563.1328v.44532l-.01563.13281v.44532l.03125.26562.02735.11719.01562.13281.03125.11719.08594.21094.03125.26562v.14844l-.03125.11719-.02734.11718-.03125.1211-.02735.11719-.03125.11718-.03125.1211-.01171.1328-.01563.13282.08984.0586.1172-.03125.10155.01562.04688.10547-.03125.26562v.44141l-.04297.10547-.04688.10547-.04296.10156-.04297.10547-.0586.08594-.03125.12109-.04296.11719-.03125.11719-.01563.1328.01563.13282.05859.08984.10547.04688.08594.0586.05859.08593-.01172.13672-.03125.11719-.04297.10156v.44531l-.01562.13281v.14844l-.03125.11719-.04297.10547-.02735.11719-.04687.10546-.04297.10157-.03125.12109-.02734.11719-.03125.13281-.03125.11719-.02735.11719-.04297.10546-.03125.1172-.03125.12108-.01171.13282-.01563.13281v.29688l.02734.11718v.14844l.04688.39844.02734.11719.0586.08984.12109.03125h.14844l.13281-.01563.0586.08985v.11719l-.0586.08984-.08984.0586-.10157.04296-.10546.04688-.08985.05859-.08594.0586-.13671.01562-.1172-.03125-.1328-.01563-.10157.04688-.0625.08594-.01172.13671-.01562.13282-.03125.11719-.02735.11718-.01562.13281-.03125.1211v.29687l.01563.13282.03125.11718v.14844l.01171.13281v.14844l-.02734.11719-.04688.10156-.02734.1211-.03125.11718-.0586.08985-.07421.07421-.10156.04297-.10547.04688-.11719.02734-.1211.03125-.10156-.04687.0586-.08594.10547-.04688.02734-.11718.03125-.11719.02734-.1211.03125-.11718v-.14844l.01563-.13281-.03125-.11719-.04297-.10547-.10547.01563-.07422.07422-.10156.04296-.08984.0625-.07422.07422-.04297.10157-.01563.1328-.03125.1172L304.25 426l-.03125.11719-.02734.11719-.03125.12109-.02735.11719-.03125.11718-.04297.10547-.08984.0586h-.08984l-.1172-.03125-.03124-.08594.01562-.13672-.03125-.11719v-.14844l-.01171-.1328v-.14844l-.0625-.23438-.02735-.1211-.04297-.10156-.04687-.10546-.0586-.08594-.05859-.08985-.04297-.10546-.0625-.08594-.14844-.14844-.0703-.07422-.10548-.04687-.10547-.04297-.10156-.04297-.29687-.29688-.08985-.07421-.08594-.0586-.10546-.04297-.08985-.0625-.08594-.0586-.10546-.04296-.08985-.0586-.08594-.0625-.07421-.0703-.10547-.04688-.08594-.0586-.10547-.04296-.08984-.0625-.10156-.04297-.10547-.04297-.08594-.0586-.10547-.04687-.10547-.04297-.10156-.04687-.08985-.0586-.10156-.04297-.10547-.04296-.08984-.0625-.11719-.02735-.13281-.01562-.13281.01562H299.75l-.13281.01563-.11719-.03125-.08984-.0586-.07422-.07422-.08985-.05859-.10156-.04688h-.14844l-.12109-.02734-.10156-.04297-.07422-.07422-.11719-.17968-.08984-.0586-.10156-.04297-.08985-.0625-.10547-.04296-.08984-.0586-.08594-.0586-.10547-.04687-.0586-.08594-.05858-.08984-.04297-.10547-.04688-.10156-.07422-.07422-.08594-.0586-.07421-.07421-.08985-.0586-.22265-.22265-.04297-.10547-.03125-.26563.10547-.04296h.14453l.10547.04296.07421.07422.08985.0586.08594.0586.10546.04687.08985.05859.14844.14844.0703.07422.14845.14843.0625.08594.07421.07422.08594.0586.07422.07421.08985.0625.08984.0586.08594.05859.26953.17578.10156.04688.10547.04296.10156.04297.04688-.07421.05859-.08594.07422-.07422.07031-.07422.10547.04297.07422.07422.0586.08984.04296.10156.04688.10547.04296.10547.1211.02735.11719-.02735.07421-.08984.04297-.10547.0586-.08985.07422-.07421.10546-.04297.1172-.02735.1328.01172.08985.0586.14844.14843.05859.08985.04297.10547.04687.10156.04297.10547.04297.10156.10547.04688.10547.04296.13281.01563.08594-.0586.0586-.08984.07421-.07422.10547-.04297.11719.02735.10547.04687.10156.04297.10547.04297.10156.04688.17969.11718v.11719l-.01563.13281.01563.13281.01562.13672.0586.08594.10156.04688.1211.02734.11718.03125h.14844l.11719-.03125.05859-.08984.17969-.1172.05859-.08983.07422-.07422.0586-.08594.11718-.17969.17969-.11719.11719.03125.08984.0586.04297.07422-.01563.1328v.1172l.08985.05859h.14843l.13282-.01563.1328-.01171.26563-.03125.10547-.04297.11719-.03125.1211-.02735.07421-.07421.07031-.07422.0625-.08985-.01562-.10547-.04688-.10156-.10156-.04297-.10547-.01562-.11718.02734-.26563.03125h-.14844l-.07421-.07422-.08985-.0586-.11719-.03124-.11718-.02735-.13282-.01562h-.14843l-.13282.01563h-.29687l-.10547-.04688-.14844-.14844-.04297-.10156-.05859-.08984.22266-.22266.08593-.0586.10547-.04296.11719-.03125.13281-.01563.13281.01563.13672.01562.10157.04297.1328-.01172.08985-.0625.10156-.04297.0625-.08984-.04687-.10156-.08984-.0586-.1172-.03125-.10155-.04296-.0586-.08985-.0625-.08984v-.11719l.01563-.13281.10547-.04688.07421-.07031v-.1211l-.08984-.05859-.03125-.11719.08985-.05859.07421-.07422.04297-.10547.0586-.08984.04687-.10156.01563-.13281v-.14844l-.04688-.10547-.04297-.10156-.08984-.0586-.13281-.01562-.10157-.04297-.13671-.01563-.1172-.03125h-.4453l-.13282-.01562-.13281-.01172-.13281-.01563-.11719-.03125h-.14844l-.13281-.01562-.13281-.01172-.26563-.03125-.1211-.04297-.08593-.0586-.07422-.07421v-.14844l.01172-.13281.10547-.04688.10156-.04296.13281-.01563h.15235l.13281-.01562h.29297l.1211.03125.10156.04296.08984.0586.23438.0625.12109-.04688.08984-.05859.10156-.04297.13282-.01562.10547.04296.10156.04688.13281.01172.1211-.02735h.14453l.12109-.03125.11719-.02734.10547-.04687.07421-.07422.08594-.0586.14844-.14843.0586-.08594.04687-.10547.02734-.11719.01563-.10547-.10156-.04296-.08985-.0586-.11719-.03125-.10546-.04297-.08985-.0625-.07422-.08594-.07422-.07421-.10156-.04297-.10547-.04688-.10156-.04297-.0586-.08984-.04687-.10156-.08594-.21094-.0625-.08594-.05859-.08984-.07422-.07422-.08594-.0586h-.26953l-.11719.03126-.08984.05859-.10156.04297-.13281.01562-.10547-.01562-.02735-.11719-.0625-.08984-.11718-.03125-.10157-.04297-.14843-.14844-.03125-.11719-.01563-.10546.07422-.07422.17969-.1172.11719-.02733.11718-.03125.13672.01562.10156.04297.10547.04297.10156.04687.10547.04297.1172.03125.1328.01563.1172.02734.1328.01563.10547-.01563.08985-.0586-.07422-.07421-.10547-.04297-.07422-.07422-.07422-.08984-.14844-.14844-.08593-.0586-.08985-.05859-.07422-.07422-.08984-.0586-.10156-.04687-.1211-.02734-.10156-.04688-.10547-.04296-.11719-.03125-.10156-.04297-.1211-.03125h-.14843l-.11719.03125-.10546.04297-.08594.0625-.17969.11718-.08594.0586-.08984.0586-.10547.04687-.08594.05859-.10547.04297-.10156.04297-.10547.04687-.07422.07422-.05859.08985-.0586.08593-.04687.10547-.0586.08594-.07421.07422-.13281-.01172-.1172-.03125h-.11718l-.07422.07422-.08984.0586-.07422.07421-.08984.0586-.08594.05859-.10547.04687-.10156.04297-.13672.01563-.10156-.04297-.14844-.14844-.10547-.04688h-.08594l-.10547.04688-.10156.04297-.1211.03125-.11718-.03125-.07422-.07422v-.11719l.03125-.1211.07422-.0703.0586-.08985.07421-.07422.11719-.03125.10547-.04296h.29297l.13281-.01563.13672-.01563.10156-.04296.08985-.0586.10156-.04687.08984-.0586.13281-.01171.08985.05859.13281.01172.08984-.0586.08594-.05859.10547-.04297.08984-.0586.08594-.0625.08985-.05859.14843-.14843.0586-.08594.05859-.08985.10547-.04296.13281-.01563.11719.02735.1211.03125.05859-.0586.05859-.08984.03125-.26563.02734-.11719.10547.01172.13281.01563.10157-.04297.08984-.0586.0586-.08984.07421-.07422.0586-.08984.04687-.10156.01172-.13281-.01172-.13282-.04687-.10547-.14844-.14843-.0586-.08985-.05859-.08594-.04297-.10546v-.44532l.01563-.1328v-.14845l.01172-.1328-.0586-.0586-.08984.0586-.10156-.04298-.17969-.11719-.08594-.05859-.0625-.08984-.0586-.08985-.07421-.07421-.08594-.0586-.1211.03125-.10155.01172-.10547.04688-.08594.05859-.10547.04297-.14844.14844-.08984.05859-.08594.0586-.08984.0625-.10547.04296-.13281.01563v-.1211l.10547-.04297.11718-.03125.07422-.0703.04297-.10548v-.14844l-.02734-.11718-.14844-.14844-.13281-.01563h-.14844l-.11719.03125-.10547.04297-.10156.04297-.08984.0625-.11719.02735-.07422-.07422.01172-.13281-.04297-.10157-.04297-.10547-.08984-.05859-.11719.02734-.1211.03125-.11718.03125-.10156.04297-.1211.03125-.10156.04297-.10547.04297-.08984.0586-.10156.01562v-.11719l.01562-.13281-.0586-.08985-.07421.04297-.14844.14844-.0586.08985-.07421.07421-.04688.10547-.04296.10156-.07422.07422-.0586.08985-.07422.07422-.05859.08593-.07422.07422-.08984.0625-.07422.07031-.07422.07422-.10156.01563-.13281.01562-.10547-.04296v-.1211l.14843-.14844.04297-.10156.0586-.08984.04687-.10156.04297-.10547.0586-.08985.03124-.11719.04297-.10156.03125-.1211.02735-.11718.04687-.10547.04297-.10156.04297-.10547.07422-.07031.08984-.0625.08985-.0586.10156-.04296h.29687l.26563-.03125.10547-.04297-.07422-.07422-.11719-.03125-.10547-.04297-.08984-.0586-.10156-.04687-.08985-.0586-.10156-.04296-.10547-.04297-.08984-.0625-.08594-.0586-.10547-.04296-.10156-.04297-.1211-.03125-.11718-.03125-.10157-.04297L297.5 410.25l-.10156-.04297-.08985-.0586-.04296-.10546-.01563-.13281.10156-.04297.13281-.01563.13672.01563.13282-.01563.10156-.04297.0586-.08984.01562-.10547-.08985-.0586-.07421-.07421-.10157-.04297-.08984-.0586-.14844-.14843-.04297-.10547-.01562-.13281v-.29297l-.0586-.08985-.08984-.05859-.07422-.07422-.04297-.10547-.03125-.11718-.0586-.08985-.07421-.07422-.11719-.02734-.07422-.07422-.08984-.0586-.08984-.0625-.08594-.05859-.07422-.07421-.0586-.08594-.04687-.10547-.08594-.0586-.14843-.14843-.19532-.0586-.1328.01563-.10157.04297-.07422.07422-.04688.10156-.04296.10547-.0586.08984-.0586.08594-.29687.29687-.08984.0586h-.08594l-.0625-.08594-.04297-.10547.03125-.11719.0586-.08984.02734-.11719-.01172-.13281-.08984-.0625-.10547.04688-.11719.02734-.11719.03125-.26953.17578-.10156.04688-.11719.02734-.10546.04687-.08985.0586-.10156.04297-.0586-.08594-.04687-.10547.01563-.13281.04687-.10547.07031-.07422.07422-.07031.0586-.08985v-.14843l-.04297-.10547h-.23829l-.10156.04687-.03125.11719-.02734.11719-.03125.1211-.07422.04296-.13281.01563-.07422-.04688-.04297-.10156-.04297-.10547-.04687-.10156-.04297-.10547-.1211.03125-.10156.04297-.13281.01562-.11719.03125-.10547.04297-.08984.0586-.10156.04687-.1211.02734-.13281.01563-.10156-.04297-.0586-.08985-.04687-.10546-.04297-.10157-.04297-.10546v-.1172l.0586-.08984.08593-.05859.17969-.11719.10156-.04687.10547-.04297.10547-.0586.10156-.04296.08985-.0625.10156-.04297.10547-.0586.10156-.04687.08984-.0586.10547-.04296.10156-.04297.08985-.0625.10156-.04297.13672-.01563.11719.03125.10156.04297.1211.03125.10156.04297.10546.04688.10157.04296.10547.04297.10156.04688.10547.04297.10156.04297.10547.04687.08594.0586.10546.04296.1172.03125.10546.04297.10156.04688.08985.0586.10547.04296.10156.04297.10547.04687.11719.02735.10156.04687.1211.02735h.14843l.08594-.0586.01562-.10156.0586-.08984-.02735-.1172-.07422-.07421-.11719-.17969-.07421-.07422-.08985-.07421-.17969-.1172-.08593-.05859-.10547-.04296-.10156-.04688-.26954-.17578-.05859-.08985-.07422-.07421-.0586-.08985-.04296-.10156-.03125-.11719-.01563-.13672v-.5625l-.01171-.1328-.01563-.13282-.03125-.11719-.01562-.13281-.01172-.13281-.03125-.1211-.22266-.22265-.0586-.08594-.01562-.10547.03125-.11719.13281-.01562v-91.41406H172.9922v1.45312l-.0586.23438-.35156 1.05078-.17187.52343-.1172.34766-.17577.41016-.11719.17187-.23438.29297-.23046.0586h-.35157l-.11718.05859-.23047.40625v.29297l.11719.17578.23046.23047.1172.23437.64062.75781.29297.46485.17578.23437.23047.35156.23437.34766.64063.8164.17578.46485.17187.41016.11719.69531.17578.46875.11719 1.39844.0586.46484v.875l.11718 1.04688v4.78125l-.0586.46484-.35156 1.28125-.17578.52344-.11328.41015-.35156.9297L172.93359 336l-.23437.58203-.11719.17578-.17187.34766-.17578.40625-.35157.8164-.0586.29297-.11327.29297-.11719.28906-.0586.17579-.11718.875-.0586.40625-.05859.11718-.0586.17579-.05859.17187-.23047.52734-.11718.17188v.23437l-.11719.23438-.0586.17187-.17577.58594v.28906l-.0586.17579v.29296l-.0586.11329-.05859.52734v.17187l-.05468.23438v2.6211l-.17578.8164-.1172.17578-.17577.23438-.1172.17187-.11327.23438-.58594.93359-.23047.28906-.29297.46485-.17578.23437-.28906.35156-.35156.69922-.11328.23047-.17579.41016-.17578.23046-.40625.52735-.8164.69922-.29297.17187-.28906.23438-.17579.11719-.17578.17578-.52344.40625-.52734.17578-.17187.17578-.23438.05469-.64062.17578h-.75782m12.21094 31.02344l-1.07422.44921.35938.89454 1.25-.71485.44531-.53906-.98047-.08985"/><path fill="#d3d3d3" fill-opacity="0" fill-rule="evenodd" d="M201.50781 416.59766h-.89453l.44922.6289.98047.35938.80469-.08985.4453-.98828-.17577.08985-.71485-.35547-.89453.35547m154.6211 59.0703l-.0586-.52343v-.29297l.11328-.29297.0586-.23046.46875-.46875h.11328l.11719-.11329.11718-.05859h.17579l.23437-.0586h.34766l.23437.0586.11719.0586.23047.17187.0586.17578.11718.58203v.29297l-.11719.17578-.17187.28906-.17579.17579-.52734.52343-.23047.23438-.11719.0586h-.17578l-.11718-.0586-.40625-.29297-.17579-.11719-.11718-.0586-.0586-.11327-.05468-.1172m6.64062-10.95702l-.0586-.17188v-1.10937l.0586-.17188.17578-.0586.17188-.05858h.17578l.23437-.0586.1172.0586.05858.69921-.05859.17188-.11719.17578-.11718.0586-.23438.52343-.11328.0586h-.23438l-.05859-.1172m9.61328-14.39062l-.11719-.17578v-.69922l.29297-.875.1172-.17187.17577-.35156.11328-.23047.1172-.29297.35155-.75781.1172-.23047.17187-.23438h.17578l.11719-.0586h.64062l.11719.0586.23437.23438.17188.11328.35156.29297.11719.11718.11328.17579v.11328l.11719.05859.11718.11719v.69922l-.05859.17578v.23047l-.0586.17578-.34765 1.05078-.11719.23047-.11719.23437-.11718.0586-.23047.23437-.64063.28906h-.875l-.41015-.11718-.64063-.46485"/><path fill="none" stroke="#bebebe" stroke-linecap="round" stroke-linejoin="round" stroke-miterlimit="10" stroke-width=".5" d="M467.95703 311.69531H144.02734v168.625h323.9297v-168.625"/><g clip-path="url(#a)"><path fill="#fff" fill-opacity="0" fill-rule="evenodd" d="M144 311.67188v168.65625h324V311.67188H144"/></g><g clip-path="url(#b)"><path fill="none" stroke="#000" stroke-linecap="round" stroke-linejoin="round" stroke-miterlimit="10" stroke-width=".5" d="M147.51172 480.34766l-7.02344-.03516"/></g><g clip-path="url(#c)"><path fill="none" stroke="#000" stroke-linecap="round" stroke-linejoin="round" stroke-miterlimit="10" stroke-width=".5" d="M147.51172 480.34766l1.14062 2.17187"/></g><g clip-path="url(#d)"><path fill="none" stroke="#000" stroke-linecap="round" stroke-linejoin="round" stroke-miterlimit="10" stroke-width=".5" d="M146.49219 480.33984l.57031 1.08985"/></g><g clip-path="url(#e)"><path fill="none" stroke="#000" stroke-linecap="round" stroke-linejoin="round" stroke-miterlimit="10" stroke-width=".5" d="M160.82422 480.53125l-7.01563-.40625"/></g><g clip-path="url(#f)"><path fill="none" stroke="#000" stroke-linecap="round" stroke-linejoin="round" stroke-miterlimit="10" stroke-width=".5" d="M160.82422 480.53125l1.02344 2.23047"/></g><g clip-path="url(#g)"><path fill="none" stroke="#000" stroke-linecap="round" stroke-linejoin="round" stroke-miterlimit="10" stroke-width=".5" d="M159.80078 480.47266l.51563 1.11328"/></g><g clip-path="url(#h)"><path fill="none" stroke="#000" stroke-linecap="round" stroke-linejoin="round" stroke-miterlimit="10" stroke-width=".5" d="M174.14453 480.25781l-7.02734.14453"/></g><g clip-path="url(#i)"><path fill="none" stroke="#000" stroke-linecap="round" stroke-linejoin="round" stroke-miterlimit="10" stroke-width=".5" d="M174.14453 480.25781l1.19531 2.14063"/></g><g clip-path="url(#j)"><path fill="none" stroke="#000" stroke-linecap="round" stroke-linejoin="round" stroke-miterlimit="10" stroke-width=".5" d="M173.1211 480.27734l.59765 1.07032"/></g><g clip-path="url(#k)"><path fill="none" stroke="#000" stroke-linecap="round" stroke-linejoin="round" stroke-miterlimit="10" stroke-width=".5" d="M187.45703 480.1875l-7.02344.28516"/></g><g clip-path="url(#l)"><path fill="none" stroke="#000" stroke-linecap="round" stroke-linejoin="round" stroke-miterlimit="10" stroke-width=".5" d="M187.45703 480.1875l1.23828 2.11719"/></g><g clip-path="url(#m)"><path fill="none" stroke="#000" stroke-linecap="round" stroke-linejoin="round" stroke-miterlimit="10" stroke-width=".5" d="M186.4336 480.22656l.62109 1.0586"/></g><g clip-path="url(#n)"><path fill="none" stroke="#000" stroke-linecap="round" stroke-linejoin="round" stroke-miterlimit="10" stroke-width=".5" d="M200.77344 480.44531l-7.02344-.23437"/></g><g clip-path="url(#o)"><path fill="none" stroke="#000" stroke-linecap="round" stroke-linejoin="round" stroke-miterlimit="10" stroke-width=".5" d="M200.77344 480.44531l1.07812 2.20313"/></g><g clip-path="url(#p)"><path fill="none" stroke="#000" stroke-linecap="round" stroke-linejoin="round" stroke-miterlimit="10" stroke-width=".5" d="M199.75 480.41016l.53906 1.10156"/></g><g clip-path="url(#q)"><path fill="none" stroke="#000" stroke-linecap="round" stroke-linejoin="round" stroke-miterlimit="10" stroke-width=".5" d="M213.9414 481.33594l-6.73437-2.01172"/></g><g clip-path="url(#r)"><path fill="none" stroke="#000" stroke-linecap="round" stroke-linejoin="round" stroke-miterlimit="10" stroke-width=".5" d="M227.28125 481.2539L220.5 479.40626"/></g><g clip-path="url(#s)"><path fill="none" stroke="#000" stroke-linecap="round" stroke-linejoin="round" stroke-miterlimit="10" stroke-width=".5" d="M240.58594 481.28516l-6.76172-1.91407"/></g><g clip-path="url(#t)"><path fill="none" stroke="#000" stroke-linecap="round" stroke-linejoin="round" stroke-miterlimit="10" stroke-width=".5" d="M239.60156 481.00781l.25781 1.19922"/></g><g clip-path="url(#u)"><path fill="none" stroke="#000" stroke-linecap="round" stroke-linejoin="round" stroke-miterlimit="10" stroke-width=".5" d="M254.03125 480.49219l-7.01953-.32422"/></g><g clip-path="url(#v)"><path fill="none" stroke="#000" stroke-linecap="round" stroke-linejoin="round" stroke-miterlimit="10" stroke-width=".5" d="M253.00781 480.44531l.52735 1.10547"/></g><g clip-path="url(#w)"><path fill="none" stroke="#000" stroke-linecap="round" stroke-linejoin="round" stroke-miterlimit="10" stroke-width=".5" d="M266.83594 478.5l-6 3.65625"/></g><g clip-path="url(#x)"><path fill="none" stroke="#000" stroke-linecap="round" stroke-linejoin="round" stroke-miterlimit="10" stroke-width=".5" d="M280.35547 478.88672l-6.41016 2.88281"/></g><g clip-path="url(#y)"><path fill="none" stroke="#000" stroke-linecap="round" stroke-linejoin="round" stroke-miterlimit="10" stroke-width=".5" d="M291.75 477.0586l-2.5664 6.54296"/></g><g clip-path="url(#z)"><path fill="none" stroke="#000" stroke-linecap="round" stroke-linejoin="round" stroke-miterlimit="10" stroke-width=".5" d="M302.5 477.05469l2.5586 6.54687"/></g><path fill="none" stroke="#000" stroke-linecap="round" stroke-linejoin="round" stroke-miterlimit="10" stroke-width=".5" d="M302.875 478.00781l.79688-.92969"/><g clip-path="url(#A)"><path fill="none" stroke="#000" stroke-linecap="round" stroke-linejoin="round" stroke-miterlimit="10" stroke-width=".5" d="M316.10938 476.95703l1.97265 6.74219"/></g><path fill="none" stroke="#000" stroke-linecap="round" stroke-linejoin="round" stroke-miterlimit="10" stroke-width=".5" d="M316.39844 477.9375l.875-.85547"/><g clip-path="url(#B)"><path fill="none" stroke="#000" stroke-linecap="round" stroke-linejoin="round" stroke-miterlimit="10" stroke-width=".5" d="M328.64844 477.28906l3.52344 6.07813"/></g><path fill="none" stroke="#000" stroke-linecap="round" stroke-linejoin="round" stroke-miterlimit="10" stroke-width=".5" d="M329.16016 478.17188l.64843-1.03907"/><g clip-path="url(#C)"><path fill="none" stroke="#000" stroke-linecap="round" stroke-linejoin="round" stroke-miterlimit="10" stroke-width=".5" d="M340.7461 482.1914l5.96093-3.72656"/></g><g clip-path="url(#D)"><path fill="none" stroke="#000" stroke-linecap="round" stroke-linejoin="round" stroke-miterlimit="10" stroke-width=".5" d="M354.09766 478.40625l5.88671 3.84375"/></g><path fill="none" stroke="#000" stroke-linecap="round" stroke-linejoin="round" stroke-miterlimit="10" stroke-width=".5" d="M354.95313 478.96875l.11328-1.22266"/><g clip-path="url(#E)"><path fill="none" stroke="#000" stroke-linecap="round" stroke-linejoin="round" stroke-miterlimit="10" stroke-width=".5" d="M367.3789 478.46484l5.95704 3.72657"/></g><path fill="none" stroke="#000" stroke-linecap="round" stroke-linejoin="round" stroke-miterlimit="10" stroke-width=".5" d="M368.2461 479.00781l.08593-1.22265"/><g clip-path="url(#F)"><path fill="none" stroke="#000" stroke-linecap="round" stroke-linejoin="round" stroke-miterlimit="10" stroke-width=".5" d="M380.8711 478.20703l5.59765 4.2461"/></g><path fill="none" stroke="#000" stroke-linecap="round" stroke-linejoin="round" stroke-miterlimit="10" stroke-width=".5" d="M380.8711 478.20703l.39062-2.42578"/><g clip-path="url(#G)"><path fill="none" stroke="#000" stroke-linecap="round" stroke-linejoin="round" stroke-miterlimit="10" stroke-width=".5" d="M393.57813 479.46875l6.8164 1.71875"/></g><path fill="none" stroke="#000" stroke-linecap="round" stroke-linejoin="round" stroke-miterlimit="10" stroke-width=".5" d="M393.57813 479.46875l-.58594-2.3789"/><g clip-path="url(#H)"><path fill="none" stroke="#000" stroke-linecap="round" stroke-linejoin="round" stroke-miterlimit="10" stroke-width=".5" d="M407.8125 477.84766l4.97656 4.96093"/></g><path fill="none" stroke="#000" stroke-linecap="round" stroke-linejoin="round" stroke-miterlimit="10" stroke-width=".5" d="M408.53516 478.57031l.35937-1.17578"/><g clip-path="url(#I)"><path fill="none" stroke="#000" stroke-linecap="round" stroke-linejoin="round" stroke-miterlimit="10" stroke-width=".5" d="M424.14453 476.85547l-1.05469 6.94531"/></g><path fill="none" stroke="#000" stroke-linecap="round" stroke-linejoin="round" stroke-miterlimit="10" stroke-width=".5" d="M423.99219 477.86719l1.15625-.40625"/><g clip-path="url(#J)"><path fill="none" stroke="#000" stroke-linecap="round" stroke-linejoin="round" stroke-miterlimit="10" stroke-width=".5" d="M435.58594 477.08203l2.6914 6.49219"/></g><g clip-path="url(#K)"><path fill="none" stroke="#000" stroke-linecap="round" stroke-linejoin="round" stroke-miterlimit="10" stroke-width=".5" d="M453.6875 479.625l-6.88281 1.41016"/></g><g clip-path="url(#L)"><path fill="none" stroke="#000" stroke-linecap="round" stroke-linejoin="round" stroke-miterlimit="10" stroke-width=".5" d="M463.26172 476.82813l.59765 7"/></g><path fill="none" stroke="#000" stroke-linecap="round" stroke-linejoin="round" stroke-miterlimit="10" stroke-width=".5" d="M463.35156 477.84766l1.02735-.66797"/><g clip-path="url(#M)"><path fill="none" stroke="#000" stroke-linecap="round" stroke-linejoin="round" stroke-miterlimit="10" stroke-width=".5" d="M147.51172 466.91797l-7.02344.1914"/></g><path fill="none" stroke="#000" stroke-linecap="round" stroke-linejoin="round" stroke-miterlimit="10" stroke-width=".5" d="M147.51172 466.91797l1.21094 2.13281m-2.23438-2.10547l.60547 1.0664m13.73438-.90234l-7.02344-.1914m7.02344.1914l1.09375 2.19532m-2.1172-2.22266l.54688 1.09766m13.79297-1.09375l-7.02734-.14453m7.02734.14453l1.10547 2.1875m-2.1289-2.21094l.55468 1.09766m13.76953-1.44141l-7 .58984m7-.58984l1.33203 2.0586m-2.35156-1.97266l.66797 1.03125m13.67578-.99219l-7.01953.33984m7.01953-.33984l1.25781 2.10547m-2.27734-2.0586l.625 1.0547m13.71484-.91798L207.0625 467m7.02734.02734l1.14063 2.17188m-2.16406-2.17578l.5703 1.08593m13.76563-1.16796l-7.02343.14453m7.02343-.14453l1.19922 2.14062m-2.21875-2.1211l.59766 1.07423m13.72656-1.3047l-7.0039.56641m7.0039-.5664l1.32422 2.0664M253.88281 466l-6.72656 2.02734m5.75-1.73047l.86328.8711m13-2.08985l-5.86719 3.8711m5.01172-3.3086l1.07813.58985m11.8125-2.3164l-3.3086 6.19921m2.82813-5.29687h1.22656m11.8086-1.19922l-1.78516 6.79297m1.52344-5.8047l1.1953-.28124m12.46095-.6875l-1.94532 6.7539m1.66407-5.76953l1.19922-.2539m10.90625-.82813l1.03515 6.94922m-.88281-5.9375l.98828-.73047m11.90625-.23047l1.57422 6.84766m-1.34766-5.85156l.92969-.80469m9.9375 1.41406l6.01172 3.63672m-5.13672-3.10937l.07031-1.22266m12.58594.3789l5.58203 4.26954M355.0625 465.5l.20313-1.21094m12.7539.10156l4.67188 5.2461m-3.9922-4.48438l.42579-1.14843m11.59766 1.09765l5.89453 3.82422m-5.89453-3.82422l.21484-2.44531m12.71094 3.2539l6.67578 2.20704m-5.70313-1.88672l-.20703-1.20703m12.38672 2.30078l7-.6211m-5.98047.53125l-.67187-1.02734m15.80469-2.64453l1.32421 6.90234m-1.1289-5.89843l.95312-.76954m15.10938 5.89063l-4.5586-5.34766m17.91797.03907l-4.64843 5.26953m15.05859-6.10157l1.16406 6.9336m-.9961-5.92188l.97266-.75"/><g clip-path="url(#N)"><path fill="none" stroke="#000" stroke-linecap="round" stroke-linejoin="round" stroke-miterlimit="10" stroke-width=".5" d="M147.51172 453.85938l-7.02344-.32032"/></g><path fill="none" stroke="#000" stroke-linecap="round" stroke-linejoin="round" stroke-miterlimit="10" stroke-width=".5" d="M147.51172 453.85938l1.05078 2.21484m12.25-2.04297l-6.9961-.66406m6.9961.66406l.9414 2.26563m-1.95702-2.36329l.46875 1.13282m13.87109-1.13672l-7.01172-.46094m7.01172.46094l1.00781 2.23437m12.29297-2.84375l-6.98438.75781m6.98438-.7578l1.3789 2.03124m11.94141-1.32422l-6.9961-.65625m6.9961.65625l.94531 2.26172m-1.96093-2.35937l.47265 1.13281m13.8711-1.47266l-7.02344.21875m7.02344-.21875l1.21875 2.12891m-2.23828-2.09766l1.21875 2.12891m13.03515-2.80469l-6.86328 1.50781m6.86328-1.5078l1.58985 1.86718m-2.58594-1.64844l1.58984 1.8711m12.54297-2.66407l-6.5039 2.65625m6.5039-2.65625l1.88672 1.57032m-2.83203-1.1836l.9414.78516m12.92188-1.89063l-5.71094 4.09375m5.71094-4.09375l2.19922 1.08985m-3.02734-.4961l1.09765.54688M266.57422 451.5l-5.47656 4.39844m5.47656-4.39844l2.2539.96875m-3.05078-.32812l1.12891.48046m12.77344-1.35937l-5.0586 4.875m5.0586-4.875l2.33203.75781m10.51562-1.16406l-4.125 5.6875m4.125-5.6875l2.4297.33984m9.98046-.8164l-2.3125 6.63672m2.3125-6.63672l2.42578-.3711m9.54688.1836l.37109 7.01562m-.3164-5.9961l1.05077-.6328m11.92579-.35938l.9414 6.96094m-.80469-5.94922l.9961-.71484m12.40234-.32032l.5 7.00782m-.5-7.00782l2.07813-1.30468m11.46875 1.29296l.03515 7.02735m-.02734-6.0039l1.07812-.58204m11.45704-.35156l1.57812 6.84765m-1.57812-6.84765l1.85546-1.60938m9.5586 2.77344l5.3789 4.52344m-5.3789-4.52344l.51562-2.39844m12.9336 2.25l5.11328 4.82031m-5.11328-4.8203l.64843-2.3672m16.48438 1.4961l-2.51953 6.5625m2.15234-5.60938l1.21485-.14843m9.76171-.72657l2.89063 6.40625m-2.47266-5.47265l.75-.97266m16.91016 2.08203l-6.63672 2.32031m5.66797-1.98437l.90234.83203m12.33985-2.6836l-4.55469 5.35157m4.55469-5.35156l2.39453.52343m8.53515-1.35937l.21875 7.02344m-.1875-6.0039l1.0625-.60938"/><g clip-path="url(#O)"><path fill="none" stroke="#000" stroke-linecap="round" stroke-linejoin="round" stroke-miterlimit="10" stroke-width=".5" d="M147.46094 440.98047l-6.92188-1.1914"/></g><path fill="none" stroke="#000" stroke-linecap="round" stroke-linejoin="round" stroke-miterlimit="10" stroke-width=".5" d="M147.46094 440.98047l.76953 2.32812m12.55078-2.35156l-6.9336-1.14844m6.9336 1.14844l.78125 2.32813m12.53516-2.33204l-6.9336-1.14062m6.9336 1.14063l.78515 2.32421m12.4336-1.90625l-6.7422-1.97656m6.7422 1.97656l.49609 2.40235m12.96094-3.41016l-7.02735.04297m7.02735-.04297l1.16406 2.16016m-2.1875-2.15625l1.16797 2.16015m13.16406-1.9375l-7.01562-.41015m7.01562.41015l1.02344 2.22657m-2.04297-2.28907l.51172 1.1172m13.8125-1.625l-6.99219.72655m6.99219-.72656l1.36719 2.03516m11.55078-3.32813l-6.19922 3.3125m6.19922-3.3125l2.03515 1.36719m10.72657-2.13281l-5.08985 4.84375m5.08985-4.84375l2.32812.77343m9.72656-1.62109l-2.5703 6.53906m2.5703-6.53906l2.4375-.27734m10.63672.1914l-2.08984 6.71094m2.08984-6.71094l2.41016-.45312m12.41015 1.39453l-5.10156 4.83203m5.10156-4.83203l2.32813.78125m10.0625-1.48047l-3.25 6.23047m3.25-6.23047l2.45313-.01953m10.58593-.10938l-2.69922 6.48829m2.69922-6.48828l2.4414-.23438m11.50392.57422l-3.95704 5.8086m3.95704-5.8086l2.4375.26562m11.01171-.16797l-4.22656 5.61329m4.22656-5.61328l2.42188.3828m10.10547-.83202l-2.65235 6.5078m2.65235-6.5078l2.4414-.25m9.59375-.00782l-.08984 7.02735m.08984-7.02735l2.1797-1.125m8.73437 2.02735l4.70703 5.21875m-4.70703-5.21875l.83984-2.30469m-.15234 3.0664l.41796-1.15624m11.52735 1.24218l6.07422 3.52735m-6.07422-3.52735l.08984-2.45312m.79297 2.96484l.04688-1.22656m14.3125-.85547l2.22265 6.66406m-2.22265-6.66406l1.6914-1.77734m-1.3711 2.7461l.84767-.88673m15.95312.9961l-5.39063 4.51172m5.39063-4.51172l2.27344.92187m-3.0586-.26562l1.13672.46093m12.79297-1.30468l-5.05469 4.8828m5.0547-4.8828l2.33593.7578m9.4375-1.6875l-1.96875 6.7461m1.96875-6.7461l2.40234-.5m-2.6875 1.48048l1.19922-.25m10.58594-.77344l1.66015 6.82813m-1.41796-5.83204l.91796-.8164"/><g clip-path="url(#P)"><path fill="none" stroke="#000" stroke-linecap="round" stroke-linejoin="round" stroke-miterlimit="10" stroke-width=".5" d="M147.4961 426.71875l-6.9922.70313"/></g><path fill="none" stroke="#000" stroke-linecap="round" stroke-linejoin="round" stroke-miterlimit="10" stroke-width=".5" d="M147.4961 426.71875l1.36327 2.03906m11.87891-.90625l-6.84766-1.5664m6.84766 1.5664l.64063 2.3711m12.35937-1.51953l-6.21875-3.26954m6.21875 3.26953l.01172 2.45313m13.42188-2.69922l-6.45313-2.77734m6.45313 2.77734l.20312 2.44531m13.35547-3.27343l-6.9375-1.1211m6.9375 1.1211l.78906 2.32422m12.52734-2.34375l-6.9414-1.08204m6.9414 1.08203l.8047 2.32032m12.32812-1.6289l-6.57813-2.46485m6.57813 2.46484l.32031 2.4336m12.8789-5.17579l-6.34765 3.01953m6.34766-3.01953l1.96875 1.46485M253 424.57812l-4.95703 4.98047M253 424.57812l2.34766.71094m10.34765-1.20312l-3.71875 5.96484m3.71875-5.96484l2.44922.17187m11.17969.05078l-4.34766 5.51954m4.34766-5.51954l2.41406.4336m10.83203-.48438l-4.21093 5.6211m3.60156-4.8047l1.21094.1875m11.75-1.51562l-2.28125 6.64454m2.28125-6.64454l2.42578-.38672m10.15234.21875l-.8086 6.98047m.8086-6.98047l2.28516-.89453m12.01172 1.15625l-2.76954 6.45703m2.76954-6.45703l2.4414-.20703m12.50781 1.63672l-6.03906 3.59766m6.03906-3.59766l2.09766 1.27344m11.11719-1.42578l-5.83985 3.90625m5.83985-3.90625l2.16406 1.16015m10.2461-2.08593l-4.03126 5.7539m4.03125-5.7539l2.4375.30078M385.37891 424l-3.41797 6.13672M385.3789 424l2.45312.04688m-2.94922.84375l1.22657.02343m11.91015-1.20312l-2.0664 6.71484m2.0664-6.71484l2.41016-.46094m-2.71094 1.4375l1.20703-.23047m13.98047.2539l-5.21094 4.71485m5.21094-4.71484l2.3086.83203m-3.06641-.14844l1.15234.41797m12.77344-1.25781l-4.91406 5.02734m4.91406-5.02734l2.35156.6914m-3.0664.03907l2.35156.6914m10.73437-2.07812l-3.02734 6.33984m3.02734-6.33984l2.44922-.10938m-2.89062 1.03125l1.22656-.05468m11.01562-1.21094v7.02734m0-7.02734l2.16797-1.15235m-2.16797 2.17579L451.32813 424m13.05468-.34766l-1.64062 6.83204m1.64062-6.83204l2.375-.61718m-2.61328 1.60937l1.1875-.30469"/><g clip-path="url(#Q)"><path fill="none" stroke="#000" stroke-linecap="round" stroke-linejoin="round" stroke-miterlimit="10" stroke-width=".5" d="M147.34375 412.67578l-6.6875 2.15235"/></g><path fill="none" stroke="#000" stroke-linecap="round" stroke-linejoin="round" stroke-miterlimit="10" stroke-width=".5" d="M147.34375 412.67578l1.76172 1.71094m-2.73438-1.39844l.87891.85547m13.42578-1.11328l-6.72266 2.04297m6.72266-2.04297l1.73438 1.73828m11.72265-.99219l-7.0039.55078m7.0039-.55078l1.3164 2.07031m11.94923-2.4414l-6.90625 1.29687m6.90625-1.29687l1.53125 1.91406m11.83984-1.46484l-7.01562.39843m5.99218-.33984l.63672 1.04688m13.6875-.55079l-6.99219-.71093m5.97657.60547l.46094 1.13671m12.35156 1.51563l-3.95703-5.80469m3.3828 4.96094l-.5703 1.08594m15.8164-2.03125l-6.66797-2.22657m6.66797 2.22657l.40625 2.41797m13.07813-3.79297l-7.00781.51953m7.0078-.51953l1.3086 2.07812m12.01563-1.78125l-7.02735-.07031m7.02735.07031l1.1289 2.17969m11.88672-3.63672l-6.42578 2.83984m5.49219-2.42578l.96484.75782m13.4375-.75391l-6.73437 2.00781m5.7539-1.71484l.86328.875m9.9375-3.67578l.25391 7.02343m-.21484-6l1.0625-.61718m11.49218-.30469l1.69922 6.82031m-1.44922-5.82812l.91016-.82032m15.82422 1.14454l-5.64063 4.1875m4.82032-3.57813l1.10937.52344m13.02735-1.13281l-5.64063 4.1875m5.64063-4.1875l2.21484 1.05078m7.40234-2.35938l1.7539 6.80469m15.81642-4.3711l-6.75391 1.9375m5.76953-1.65624l.85156.8828m13.39063-1.33593l-6.64453 2.28125m6.64453-2.28125l1.79687 1.67188m-2.76172-1.33985l.89844.83594m12.8164-2.20703l-5.51171 4.35937m5.51172-4.35937l2.2461.98437m10.70312-1.3828l-4.77735 5.15233m4.77735-5.15234l2.37109.6289m-3.0664.1211l1.18359.3164m12.3789-1.41406l-3.88671 5.85157m3.88671-5.85157l2.44141.23829m9.78906-.71875l-1.71875 6.8125m1.71875-6.8125l2.38282-.58985m10.5664.51563l-.98437 6.95703m.98437-6.95703l2.3086-.83594m11.45312.92969l-1.875 6.77343m1.875-6.77343l2.39453-.53125"/><g clip-path="url(#R)"><path fill="none" stroke="#000" stroke-linecap="round" stroke-linejoin="round" stroke-miterlimit="10" stroke-width=".5" d="M147.2461 399.08984l-6.4922 2.69532"/></g><path fill="none" stroke="#000" stroke-linecap="round" stroke-linejoin="round" stroke-miterlimit="10" stroke-width=".5" d="M147.2461 399.08984l1.89452 1.5586m-2.83984-1.16406l.94531.77734m13.46094-.74219l-6.78516 1.83594m6.78516-1.83594l1.67578 1.78906M173.9375 399.25l-6.61328 2.375m6.61328-2.375l1.8164 1.65234m-2.77734-1.30468l.90625.82421m12.23047-2.74609l-4.33984 5.52735m4.33984-5.52735l2.41797.42969m-3.04688.375l1.20704.21484m12.05078-1.4414l-2.96485 6.37109m2.96485-6.3711l2.44922-.1328m12.83593 2.66796l-6.90625 1.29688m6.90625-1.29688l1.53516 1.91797m-2.53906-1.73047l.76562.96094m13.61328-.5664l-7.02343.13671m7.02343-.13672l1.19532 2.14454m-2.21485-2.125l.59375 1.0703m13.70313-1.53906l-6.94922 1.03516m6.94922-1.03515l1.46094 1.97265m11.875-1.83203l-6.98829.75m6.98828-.75l1.375 2.03516m11.8125-2.65625l-6.73828 1.99218m6.73828-1.99218l1.72266 1.75m11.72656-1.03907l-7.0039.57032m5.98437-.48438l.66407 1.03125m13.67968-.66406l-7.01953-.33594m5.9961.28906l.52343 1.10938m13.21094-3.20703l-5.8125 3.95312m5.8125-3.95312l2.16797 1.14453m11.25781 2.63281l-6.03515-3.60156m5.15625 3.07812l-.0586 1.22657m14.64453-1.66016L327 399.59765m5.82813 1.4375l.30078 1.19141m12.40625-4.80078l-3.6172 6.02344m12.26954-.96094l5.70703-4.10156m13.89844 1.32031l-6.875 1.46485m19.41406-3.02735l-5.32031 4.58985m5.32031-4.58985l2.28516.88672m11.78906.59375l-6.83984 1.625m6.83984-1.625l1.6211 1.84375m11.71874-.34766l-6.89062-1.36718m5.89062 1.16796l.35157 1.17579m13.8828-2.66797l-6.73046 2.01953m5.7539-1.72656l.86329.87109m11.71875-3.2539l-3.3086 6.19921m2.82813-5.29687h1.22656m13.78906.17578l-5.74609 4.04297m5.7461-4.04297l2.1875 1.10547m10.58593-1.71094l-4.66797 5.2539"/><g clip-path="url(#S)"><path fill="none" stroke="#000" stroke-linecap="round" stroke-linejoin="round" stroke-miterlimit="10" stroke-width=".5" d="M465.89453 397.8125l2.38672.57813"/></g><g clip-path="url(#T)"><path fill="none" stroke="#000" stroke-linecap="round" stroke-linejoin="round" stroke-miterlimit="10" stroke-width=".5" d="M147.23828 385.75781l-6.47656 2.73047"/></g><path fill="none" stroke="#000" stroke-linecap="round" stroke-linejoin="round" stroke-miterlimit="10" stroke-width=".5" d="M147.23828 385.75781l1.90234 1.54688m-2.84375-1.14844l.94922.77344m13.00782-1.73047l-5.87891 3.84765m5.8789-3.84765l2.15235 1.17969m-3.00781-.6211l1.07422.58985m13.36718-.65625l-6.41797 2.86328m6.41797-2.86328l1.9336 1.5078m10.8789-2.3164l-5.41406 4.48047m5.41406-4.48047l2.26953.9336m-3.05859-.28125L187 386.0039m13.53516-.15625l-6.54688 2.55078m6.54688-2.55078l1.85937 1.60156m-2.8125-1.23047l.92969.80078m13.57031-.13281l-7.01172.47265m7.01172-.47265l1.29297 2.08203m-2.3125-2.01172l.64453 1.03906m13.6914-.64453l-7.01562-.45703m7.01563.45703l1.00781 2.23828m12.21875-3.26953l-6.83984 1.60938m6.83984-1.60938l1.61719 1.84375m11.7539-1.54687l-6.95312 1.01172m6.95312-1.01172l1.45313 1.97656m11.89844-1.58984l-7.02344.23828m7.02344-.23828l1.22656 2.125m11.97656-2.88672L273.75 388.0078m6.80078-1.76562l1.66016 1.80469m11.76953-.89454l-7.02734-.05859m6.0039.05078l.5664 1.08594M307.25 386.5625l-6.9375 1.1211m20.23828-1.20704l-6.91015 1.29297m5.90234-1.10547l.76562.96094m13.58204-.97656l-6.96094.94922m5.94922-.8125l.71875.99609m10.52343 2.83203l-.78906-6.98047m16.29297 5.8711l-5.16797-4.76172m4.41797 4.07031l-.3125 1.1836m15.2539-3.48438l-6.92187 1.22265m6.92188-1.22265l1.51172 1.9336m-2.51954-1.75782l.75782.96875m12.95312-2.59375l-5.69531 4.1211m5.69531-4.1211l2.20313 1.08203m11.46875-.45703l-6.41016 2.8711m6.41016-2.8711l1.9375 1.50781m11.30078-1.66797l-6.25781 3.19141m6.2578-3.1914l2.01173 1.40624m10.93359-1.98828l-5.51562 4.35547m4.71093-3.72265l1.125.49609m13.44532-.3789l-6.41797 2.85546m5.48437-2.4414l.96875.7578m13.57813.0586l-7.01563.39453m5.9961-.33594l.63671 1.04688m13.57422-1.85547l-6.76562 1.89844"/><g clip-path="url(#U)"><path fill="none" stroke="#000" stroke-linecap="round" stroke-linejoin="round" stroke-miterlimit="10" stroke-width=".5" d="M466.94531 386.17578l1.69531 1.77344"/></g><g clip-path="url(#V)"><path fill="none" stroke="#000" stroke-linecap="round" stroke-linejoin="round" stroke-miterlimit="10" stroke-width=".5" d="M147.39844 372.91797l-6.79688 1.78125"/></g><path fill="none" stroke="#000" stroke-linecap="round" stroke-linejoin="round" stroke-miterlimit="10" stroke-width=".5" d="M147.39844 372.91797l1.66406 1.80469m-2.65234-1.54688l1.66406 1.80469m12.51953-2.42969l-6.5586 2.51563m6.5586-2.51563l1.85156 1.60938m-2.80469-1.2461l1.85157 1.61328m12.54687-1.57421l-6.8164 1.71093m6.8164-1.71094l1.64453 1.82032m-2.63672-1.57031l.82032.91015m13.51172-1.04687l-6.8672 1.48437m6.8672-1.48437l1.58593 1.875m11.80078-.90625l-7.01171-.45313m7.01172.45313l1.01171 2.23437m12.28907-2.0586l-6.98047-.80859m6.98047.8086l.89453 2.28515m-1.91016-2.40234l.44531 1.14453m13.875-1.89844l-6.96484.9336m6.96484-.9336l1.4297 1.9961m-2.44142-1.85938l.71485.9961m13.59766-.09766l-6.9336-1.13281m6.9336 1.13281l.78906 2.32422m12.57031-3.02735l-7.02344.26954m7.02344-.26954l1.23438 2.1211m12.03906-2.53906l-6.9375 1.10937m6.9375-1.10937l1.48047 1.95703m11.85937-1.01563l-6.98437-.77734m6.98437.77734l.90235 2.28125m12.41406-2.3125l-6.99219-.71484m5.97656.61328l.46094 1.13672m13.88672-1.3164l-7.02344-.14844m6 .1289l.55469 1.09375m13.75-.65625l-6.95703-.98437m6.95703.98437l.83984 2.30469m12.41797-2.0039l-6.84375-1.58594m5.84766 1.35546l.3164 1.1836m14.06641-1.35938l-6.98438-.77344m6.98438.77344l.90625 2.28125m12.375-2.0625l-6.91797-1.21484m6.91797 1.21484l.76172 2.33594m12.60937-2.90234l-7.02734-.07813m7.02734.07813l1.125 2.17968m-2.14843-2.1914l.5625 1.08984m13.72656-1.70312l-6.92969 1.17187m6.92969-1.17187l1.4961 1.9453m-2.50391-1.77343l.74609.97266m13.5664-1.19531l-6.91015 1.27343m6.91016-1.27344l1.52734 1.91797m-2.53125-1.73437l.76172.96094m13.36719-1.8047l-6.53125 2.58985m6.53125-2.58984l1.87109 1.58984m10.91797-2.49219l-5.48047 4.39844m4.6836-3.75781l1.1289.48438m13.51172-.21875l-6.53516 2.58593m5.58203-2.21094l.9375.79688m13.50391.83594l-6.88281-1.42969m5.88281 1.22266l.33984 1.17578m13.64454-.05078l-6.22266-3.26563"/><g clip-path="url(#W)"><path fill="none" stroke="#000" stroke-linecap="round" stroke-linejoin="round" stroke-miterlimit="10" stroke-width=".5" d="M147.38281 359.53906l-6.76562 1.91016"/></g><path fill="none" stroke="#000" stroke-linecap="round" stroke-linejoin="round" stroke-miterlimit="10" stroke-width=".5" d="M147.38281 359.53906l1.69531 1.76953m-2.67968-1.49218l1.69531 1.76953m12.64063-1.90625l-6.83594 1.6289m6.83594-1.6289l1.62109 1.83984m-2.61719-1.60547l.8125.92188m13.28516-1.77735l-6.41406 2.8711m6.41406-2.8711l1.9375 1.50391m-2.8711-1.08594l.96875.7539m13.32422-1.0703l-6.5 2.66796m6.5-2.66796l1.88672 1.5664m11.67578-.57422l-6.9961.6797m6.9961-.6797l1.35547 2.04297m11.51172.04297l-6.09766-3.48828m6.09766 3.48828l-.07422 2.45313m13.59766-2.88672l-6.51953-2.6211m5.57422 2.23829l.1289 1.22265m14.30469-1.39453l-6.86328-1.51563m5.86328 1.29688l.33203 1.17969m13.51953.16406l-5.9336-3.76563m5.9336 3.76563l-.1875 2.44531m13.94922-3.5039l-6.83203-1.64454m6.83203 1.64454l.61328 2.375m12.71094-2.41016l-6.84766-1.57813m6.84766 1.57813l.63672 2.3711m12.76953-3.20704l-7.02734.09766m7.02734-.09766l1.17969 2.15235M307.25 361.0625l-6.9375-1.13672m6.9375 1.13672l.78516 2.32031M320.57422 361l-6.95703-1.01172M320.57422 361l.82812 2.3086m-1.83984-2.45704l.41406 1.15625m13.91797-1.07031l-6.96875-.88672m6.96875.88672l.8711 2.29297m12.29687-1.63672l-6.67187-2.19922m6.67187 2.19922l.41406 2.41797m12.91016-2.4414l-6.6914-2.15235m6.6914 2.15234l.42969 2.41406m12.97656-2.76171l-6.875-1.45704m6.875 1.45704l.67578 2.35937m12.66797-3.67578l-6.92969 1.17188m6.92969-1.17188l1.4961 1.94531m11.49609-2.92969l-6.28516 3.14454m6.28516-3.14454l2 1.42188m10.91406-2.04688l-5.48438 4.39454m5.48438-4.39454l2.2539.96875m11.13672-.875l-5.6328 4.20313m5.6328-4.20313l2.21875 1.04688m10.95313-1.22656l-5.34766 4.5625m5.34766-4.5625l2.28125.90234m11.39062-.39844l-6.0625 3.5547m5.1797-3.03517l1.04687.64063m13.3203-.83203l-6.40233 2.89844m5.47265-2.47657l.96875.75"/><g clip-path="url(#X)"><path fill="none" stroke="#000" stroke-linecap="round" stroke-linejoin="round" stroke-miterlimit="10" stroke-width=".5" d="M147.13281 345.58984l-6.26562 3.17579"/></g><path fill="none" stroke="#000" stroke-linecap="round" stroke-linejoin="round" stroke-miterlimit="10" stroke-width=".5" d="M147.13281 345.58984l2.00781 1.41407m-2.91796-.95313l1.0039.70703m13.44922-.60547l-6.72266 2.05079m6.72266-2.05079l1.73438 1.73438m-2.71094-1.4375l.86719.8711m13.5-.88282l-6.8711 1.48047m6.8711-1.48047l1.58203 1.875m-2.58203-1.66016l.78906.9375m12.97266-2.41796l-5.76563 4.01171m5.76563-4.01171l2.18359 1.12109m-3.02344-.53906l1.09375.5625m12.6875-1.59766l-5.01953 4.91797m5.01953-4.91797l2.33984.74219m11.83594.71875l-6.73828 1.9961m5.75781-1.70313l.85938.875m13.5586-.55079l-6.98438.76172m6.98437-.76171l1.3789 2.02734m11.88673-2.34766l-6.88672 1.40235m5.88672-1.19922l.77734.94922m13.57813-.00391l-6.96875-.89453m6.96875.89453l.86718 2.29688m11.73438-.58594l-5.54297-4.3164m5.54297 4.3164l-.42188 2.41797m14.00391-2.8047l-6.07031-3.54296m6.07031 3.54297l-.09766 2.44922m13.66407-2.98047l-6.57422-2.48047m6.57422 2.48047l.3125 2.4336m-1.26954-2.79298l.15625 1.21485m14.08594-.78125l-6.51562-2.6289m6.51562 2.6289l.25781 2.4414m12.75391-1.85546l-5.91016-3.80079m5.91016 3.80079l-.20312 2.4453m-.65625-2.99609l-.10157 1.22266m14.82032-2.26953l-7-.60547m7 .60547l.96093 2.25781m-1.97656-2.34375l.48047 1.1289m13.78906-2.0664l-6.8789 1.4414m6.8789-1.4414l1.57422 1.88672m-2.57422-1.67578l.78516.9414m13.57031-.91796l-6.95703.97265m6.95703-.97265l1.4414 1.98828m-2.45312-1.84766l.72266.9961m13.63672-.71094l-7.02344.125m7.02344-.125l1.1914 2.14453m12.07813-2.65625l-6.9336 1.14453m6.9336-1.14453l1.49219 1.94922m11.70703-2.42969l-6.69922 2.10938m6.69922-2.10938l1.75 1.71875m11.1914-2.53125l-5.95312 3.73438m5.95312-3.73438l2.12891 1.22266m-2.9961-.6797l1.06641.60938m12.73438-1.65625l-5.1875 4.7422m5.1875-4.7422l2.3125.82032m-3.07032-.13282l1.15625.41016m12.64063-1.3711l-4.63672 5.28516m4.63672-5.28515l2.38672.5664m-3.0625.20313l1.19531.28125m12.66016-1.16016l-4.36328 5.50781m4.36328-5.5078l2.41406.4414m11.83984.70312l-6.24609 3.21875"/><g clip-path="url(#Y)"><path fill="none" stroke="#000" stroke-linecap="round" stroke-linejoin="round" stroke-miterlimit="10" stroke-width=".5" d="M466.6836 345.57031l2.01952 1.39453"/></g><g clip-path="url(#Z)"><path fill="none" stroke="#000" stroke-linecap="round" stroke-linejoin="round" stroke-miterlimit="10" stroke-width=".5" d="M146.59375 331.49219l-5.1875 4.74219"/></g><path fill="none" stroke="#000" stroke-linecap="round" stroke-linejoin="round" stroke-miterlimit="10" stroke-width=".5" d="M146.59375 331.49219l2.3125.82031m11.73828.42578l-6.65625 2.25m6.65625-2.25l1.78516 1.67969m11.71484-.61719l-7.02734.125m7.02734-.125l1.1875 2.14453m12.04297-2.85156l-6.85938 1.53906m6.85938-1.53906l1.59766 1.85938m11.17578-3.08985l-5.77735 4m5.77735-4l2.17969 1.125m11.5664-.27734l-6.64062 2.30078m6.64062-2.30078l1.79688 1.67187m11.58593-1.45312l-6.77343 1.86719m6.77343-1.8672l1.6875 1.78126m11.70703-1.42578l-6.93359 1.15625m6.9336-1.15625l1.49218 1.9453m11.79688-2.08593l-6.8789 1.4375m6.8789-1.4375l1.57031 1.88672m11.8164-1.32031l-7.02343.30469m7.02344-.3047l1.24218 2.11329m-2.26562-2.07031l.6211 1.05859m13.63671-.1875l-6.86328-1.52344m6.86328 1.52344l.65625 2.36328m-1.65625-2.58594l.32813 1.1836m13.87109-.5586l-6.6289-2.32812m6.6289 2.32812l.36719 2.42579m12.09375-1.08204l-4.92188-5.01562m4.92188 5.01562l-.74219 2.33985m14.10547-2.39063l-5.01953-4.91406m5.01953 4.91406l-.6914 2.35547M333.375 335.75l-5.92578-3.77344M333.375 335.75l-.1914 2.44531m-.67188-2.99219l-.09766 1.22266m14.76172-1.89453l-6.89844-1.33594m6.89844 1.33594l.71875 2.34375m12.0664-4.96484l-5.83984 3.90625m5.83985-3.90625l2.16406 1.16015m11.29688-.92187l-6.13282 3.42969m6.13281-3.4297l2.0625 1.32813m-2.95312-.82812l1.03125.66406m13.10938-1.27734l-6 3.65625m6-3.65625l2.10937 1.2539m-2.98047-.72265l1.05469.6289m12.80078-1.61719l-5.33984 4.57032m5.33984-4.57031l2.28125.89453m11.50781-.17579l-6.28906 3.13282m5.375-2.67578l1 .71484m12.9961-1.57031l-5.82423 3.92969m5.82422-3.9297l2.16797 1.14844m-3.01562-.57812l1.08594.57422m13.02734-1.21485l-5.72656 4.07032m5.72656-4.07031l2.19531 1.09765m-3.02734-.50781l2.19531 1.09765m11.90625-1.7539l-5.63281 4.20312m5.63281-4.20312l2.21875 1.05078m-3.03906-.4375l2.21875 1.04688m-3.03516-.4375l1.10938.52343m14.08203-1.3789l-6.11328 3.46875"/><g clip-path="url(#aa)"><path fill="none" stroke="#000" stroke-linecap="round" stroke-linejoin="round" stroke-miterlimit="10" stroke-width=".5" d="M466.61719 332.1289l2.07031 1.31641"/></g><path fill="none" stroke="#000" stroke-linecap="round" stroke-linejoin="round" stroke-miterlimit="10" stroke-width=".5" d="M465.73047 332.63281l1.03515.66016"/><g clip-path="url(#ab)"><path fill="none" stroke="#000" stroke-linecap="round" stroke-linejoin="round" stroke-miterlimit="10" stroke-width=".5" d="M146.96094 318.65625l-5.92188 3.78516"/></g><path fill="none" stroke="#000" stroke-linecap="round" stroke-linejoin="round" stroke-miterlimit="10" stroke-width=".5" d="M146.96094 318.65625l2.13672 1.20313m-3-.65235l1.0703.60156m13.50392-.29296l-6.71485 2.0664m6.71484-2.0664l1.73829 1.73046m11.65625-1.42968l-6.8711 1.46484m6.8711-1.46484l1.57812 1.8789m11.80469-1.42578l-7.00781.55469m7.0078-.55469l1.31642 2.07031m12-2.03125l-7.01172.47657m5.99218-.40625l.64844 1.04296m13.51563-1.97656l-6.67188 2.20313m6.67188-2.20313l1.77343 1.69922m11.61328-1.45312l-6.8125 1.71484m6.8125-1.71484l1.64844 1.8203m11.77344-1.0078l-7.02734.08593m7.02734-.08593l1.17969 2.15625m12.1211-2.41016l-7 .59766m7-.59766l1.33202 2.0625m-2.34765-1.97656l.66406 1.03125m13.67969-.79297l-7.02735-.05078m7.02735.05078l1.13672 2.17187m-2.15625-2.17968l.5664 1.08593m13.76563-.96093l-7.01953-.28907m7.01953.28907l1.0625 2.21093m-2.08203-2.2539l1.0625 2.21484m13.23437-2.84375l-6.94531 1.05469m6.94531-1.05469l1.46484 1.96875m-2.47265-1.8164l.73047.98828m13.62109-.9297l-7 .63673m7-.63672l1.34375 2.05078m-2.36328-1.95703l.67187 1.02344m13.54688.14843l-6.76563-1.89843m6.76563 1.89843L321 323.89453m-1.5039-2.67187l.26171 1.19921m13.96094-.6914l-6.61719-2.36719m6.61719 2.36719l.35547 2.42969m-1.3164-2.77344l.17577 1.21484m13.96094-.53515l-6.33594-3.03516m6.33594 3.03516L347 324.51562m11.02344-.59375l-1.96485-6.74609m17.07422 1.21875l-5.55469 4.30469m4.7461-3.67578l1.1211.5m13.29687-.6836l-6.14063 3.41407m6.14063-3.41407l2.0586 1.33594m-2.95313-.83594l1.03125.66407m12.89843-1.58985l-5.58203 4.26563m5.58203-4.26563l2.23047 1.02344m-3.04297-.40234l1.1172.51171m13.05077-1.07812l-5.66406 4.16016m5.66406-4.16016l2.21094 1.0625m11.77734.76563l-7.0078.5m5.98827-.42579l.65235 1.03907m11.76562-3.9961l-3.17578 6.26563m2.71484-5.35156l1.22657-.02344m12.20703-1.04297L449 323.83203m2.49219-6.57031l2.4336-.3086m11.79687.82422l-4.32032 5.54297"/><g clip-path="url(#ac)"><path fill="none" stroke="#000" stroke-linecap="round" stroke-linejoin="round" stroke-miterlimit="10" stroke-width=".5" d="M465.72266 317.77734l2.41796.42188"/></g><path fill="none" stroke="#000" stroke-linecap="round" stroke-linejoin="round" stroke-miterlimit="10" stroke-width=".5" d="M465.09375 318.58203l2.41797.42578m-3.04688.38281l1.20704.21094"/><path fill="#00f" fill-rule="evenodd" d="M153.00781 472.08594h8.61719V461.9414h-8.61719v10.14453"/><path fill="azure" fill-rule="evenodd" d="M154.83984 463.77344h.83203v2.82422h3.28516v-2.82422h.83594v6.48047h-.83594v-2.91797h-3.28516v2.91797h-.83203v-6.48047"/><path fill="#ff3030" fill-rule="evenodd" d="M260.21875 454.33203h7.69531V444.1875h-7.69531v10.14453"/><path fill="azure" fill-rule="evenodd" d="M262.05469 446.01953h.83203v5.73828h3.19531V452.5h-4.02734v-6.48047"/><path fill="#ff3030" fill-rule="evenodd" d="M331.23438 441.01953h7.6914V430.8711h-7.6914v10.14844"/><path fill="azure" fill-rule="evenodd" d="M333.0664 432.70703h.83594v5.73828h3.19141v.73828h-4.02734v-6.47656"/><path fill="#00f" fill-rule="evenodd" d="M388.23828 432.14063h8.61719v-10.14454h-8.61719v10.14454"/><path fill="azure" fill-rule="evenodd" d="M390.07031 423.82813h.83594v2.82421h3.28516v-2.82421h.83203v6.48046h-.83203v-2.91796h-3.28516v2.91796h-.83594v-6.48046"/><path fill="#00f" fill-rule="evenodd" d="M219.58203 418.82813h8.61719v-10.14844h-8.61719v10.14844"/><path fill="azure" fill-rule="evenodd" d="M221.41406 410.51172h.83203v2.82422h3.28907v-2.82422h.83203v6.48047h-.83203v-2.91406h-3.28907v2.91406h-.83203v-6.48047"/><path fill="#ff3030" fill-rule="evenodd" d="M175.89063 409.94922h7.6953v-10.14453h-7.6953v10.14453"/><path fill="azure" fill-rule="evenodd" d="M177.72656 401.63672h.83203v5.73828H181.75v.74219h-4.02344v-6.48047"/><path fill="#ffffe0" fill-rule="evenodd" d="M315.85938 365.79688h22.17968v-10.19141h-22.17969v10.1914"/><path fill-rule="evenodd" d="M319.35938 357.4375h.5078v6.29688h-.78515v-4.4922h-1.39062v-.55468l.5625-.0664.25-.05079.23046-.08984.20313-.14063.17578-.21093.14063-.29688.10546-.39453m4.8125 0l.23047.01953.21875.05469.20704.08984.19921.1211.1836.14843.17187.17579.30078.42187.2422.49219.17968.54687.11328.57813.03906.59375-.03906.58984-.11328.58594-.17969.55469-.24219.5-.30078.42968-.17187.1797-.1836.15233-.19921.125-.20704.08985-.21875.0586-.23046.01952-.22657-.01953-.21875-.0586-.21094-.08983-.1953-.125-.1836-.15235-.17188-.17969-.30078-.42968-.24219-.5-.18359-.5547-.10937-.58593-.03907-.58984h.83204l.03125.5625.08203.5039.125.44532.16406.375.1875.29687.21094.22266.22265.13672.22656.04687.22657-.04687.22265-.13672.21094-.22266.1914-.29687.16407-.375.125-.44532.08203-.5039.02735-.5625-.02735-.5625-.08203-.5-.125-.4375-.16406-.36328-.1914-.29297-.21095-.21485-.22265-.1328-.22656-.04298-.22657.04297-.22265.13281-.21094.21485-.1875.29297-.16406.36328-.125.4375-.08204.5-.03125.5625h-.83203l.03907-.59375.10937-.57813.1836-.54687.24218-.49219.30078-.42188.17188-.17578.1836-.14843.1953-.1211.21094-.08984.21875-.05469.22656-.01953m5.09375 0h.50782v6.29688h-.78516v-4.4922h-1.39062v-.55468l.5625-.0664.25-.05079.23046-.08984.20313-.14063.17188-.21093.14453-.29688.10546-.39453m6.8047 1.6211h-.78907l-.05078-.21094-.08203-.1875-.10547-.16016-.13281-.1289-.14454-.10548-.16015-.07421-.16797-.04297-.17188-.01563-.32812.03906-.28906.1211-.2461.19531-.20312.26953-.16016.33594-.11719.40625-.0703.46484-.02344.52735.1914-.20313.1836-.16015.1875-.1211.18359-.08594.1875-.0625.1914-.03515.40235-.02344.3086.02735.3203.09375.31641.15625.29297.21875.25781.28515.19531.34766.07422.20312.05079.21485.03125.23437.0039.2539-.78515.04688-.02735-.26172-.07812-.25-.1211-.23437-.16015-.21094-.19532-.17578-.21875-.13672-.24218-.08984-.25391-.03125-.2539.03125-.2422.08984-.21874.13672-.19532.17578-.16015.21094-.1211.23437-.07812.25-.02735.26172.02735.25781.07812.25.1211.23438.16015.21094.19532.17969.21875.13671.24218.08594.25391.03125.2539-.03125.2422-.08594.21874-.13671.19532-.1797.16015-.21093.1211-.23438.07812-.25.02735-.2578.78515-.04688-.03125.3711-.08984.37108-.16016.35938-.22265.32813-.28907.28125-.17187.12109-.1875.10156-.20313.08203-.22656.0625-.24219.03906-.25781.01172-.28516-.01562-.2578-.04688-.23829-.07812-.21484-.10547-.19532-.1289-.17578-.15626-.15234-.17968-.13672-.20313-.11719-.22265-.09765-.2422-.14844-.53515-.08203-.59375-.02735-.64062.03907-.7422.11328-.66405.1875-.57813.11719-.2539.13671-.23047.15625-.20704.16797-.18359.1875-.15625.20313-.1289.21875-.10157.23047-.07031.24609-.04688.26563-.01562.36328.03516.33203.09375.29687.15234.2539.19922.21485.24219.16406.27343.1172.30079.0625.32421"/><path fill="#ffffe0" fill-rule="evenodd" d="M235.22266 350.8789h22.17968v-10.1914h-22.17968v10.1914"/><path fill-rule="evenodd" d="M238.72266 342.51953h.5078v6.29297h-.78515v-4.48828h-1.39062v-.55469l.5625-.0664.25-.0547.23047-.08593.20312-.14453.17578-.20703.14063-.29688.10547-.39453m4.8125 0l.23047.01953.21875.05469.20703.08984.19922.1211.18359.14844.17187.17578.30078.42187.2422.49219.17968.54687.11328.57813.03906.58984-.03906.59375-.11328.58594-.17969.55469-.24219.5-.30078.42969-.17187.17968-.1836.15235-.19921.125-.20703.08984-.21875.0586-.23047.01952-.22657-.01953-.21875-.05859-.21093-.08984-.19532-.125-.18359-.15235-.17188-.17969-.30078-.42968-.24609-.5-.17969-.55469-.10937-.58594-.03906-.59375h.83203l.03125.5664.08203.50392.125.4414.16406.375.1875.30078.21094.22266.22265.13672.22657.04687.22656-.04687.22266-.13672.21093-.22266.1914-.30078.16407-.375.125-.4414.08203-.50391.02735-.5664-.02735-.5586-.08203-.5-.125-.4375-.16406-.36719-.1914-.28906-.21095-.21485-.22265-.1328-.22656-.04298-.22657.04297-.22265.13281-.21094.21485-.1875.28906-.16406.36719-.125.4375-.08203.5-.03125.5586h-.83203l.03906-.58985.10937-.57813.17969-.54687.2461-.49219.30077-.42187.17188-.17579.1836-.14843.1953-.1211.21094-.08984.21875-.05469.22657-.01953m5.09375 0h.5078v6.29297h-.78515v-4.48828h-1.39062v-.55469l.5586-.0664.2539-.0547.23047-.08593.20312-.14453.17188-.20703.14453-.29688.10547-.39453m6.80468 1.6211h-.78906l-.05078-.21485-.08203-.1836-.10938-.16015-.1289-.13281-.14453-.10156-.16016-.07422-.16797-.04297-.17578-.01563-.32422.03907-.28906.12109-.2461.19531-.20312.26953-.16016.33594-.11718.40625-.07032.46485-.02343.52734.1914-.20313.1836-.16015.1875-.1211.18359-.08984.1875-.0586.1914-.03906.40235-.02343.3086.03125.3203.09375.31641.15234.29297.22266.2539.28125.19923.35156.07422.19922.05078.21875.03125.23437.0039.2539-.78515.04298-.02735-.25781-.07812-.25-.1211-.23438-.16406-.21094-.1914-.17578-.21875-.13672-.2422-.08984-.2539-.03125-.2539.03125-.2422.08984-.21874.13672-.19531.17578-.16016.21094-.1211.23438-.07812.25-.02734.2578.02734.26173.07813.25.12109.23437.16016.21094.1953.17578.21876.13672.24219.08984.2539.03125.2539-.03125.2422-.08984.21875-.13672.1914-.17578.16406-.21094.1211-.23437.07812-.25.02735-.26172.78515-.04297-.03125.36719-.09375.375-.15625.35546-.22265.32813-.28907.28516-.17187.11718-.1875.10157-.20313.08593-.22656.0586-.24219.03906-.2578.01563-.28517-.01563-.2578-.05078-.23829-.07422-.21484-.10547-.19531-.13281-.17579-.15625-.15234-.17969-.13672-.19922-.11719-.22265-.09765-.2422-.14844-.53515-.08203-.59375-.02734-.64062.03906-.74219.11328-.66406.1875-.57813.11719-.2539.13672-.23438.15625-.20312.16796-.1836.1875-.15625.20313-.1289.21484-.10157.23438-.07421.2461-.04297.26171-.01563.36719.03516.33203.09375.29687.15234.25391.19922.21484.23828.16407.27735.11718.30078.0625.32421"/></g></defs><use xlink:href="#ad"/></svg>