<svg xmlns="http://www.w3.org/2000/svg" role="img" xmlns:xlink="http://www.w3.org/1999/xlink" viewBox="142.45 309.95 326.84 171.84"><defs><clipPath id="a"><path d="M144 311.67188h1v168.65625h-1zm0 0"/></clipPath><clipPath id="b"><path d="M144 311.67188h324v168.65625H144zm0 0"/></clipPath><clipPath id="c"><path d="M391 479h2v1.32813h-2zm0 0"/></clipPath><clipPath id="d"><path d="M467 311.67188h1v168.65625h-1zm0 0"/></clipPath><clipPath id="e"><path d="M144 478h4v2.32813h-4zm0 0"/></clipPath><clipPath id="f"><path d="M154 478h7v2.32813h-7zm0 0"/></clipPath><clipPath id="g"><path d="M167 478h8v2.32813h-8zm0 0"/></clipPath><clipPath id="h"><path d="M180 479h8v1.32813h-8zm0 0"/></clipPath><clipPath id="i"><path d="M186 480h2v.32813h-2zm0 0"/></clipPath><clipPath id="j"><path d="M193 479h9v1.32813h-9zm0 0"/></clipPath><clipPath id="k"><path d="M199 479h2v1.32813h-2zm0 0"/></clipPath><clipPath id="l"><path d="M206 478h9v2.32813h-9zm0 0"/></clipPath><clipPath id="m"><path d="M212 479h3v1.32813h-3zm0 0"/></clipPath><clipPath id="n"><path d="M220 478h8v2.32813h-8zm0 0"/></clipPath><clipPath id="o"><path d="M226 478h4v2.32813h-4zm0 0"/></clipPath><clipPath id="p"><path d="M234 477h7v3.32813h-7zm0 0"/></clipPath><clipPath id="q"><path d="M247 477h7v3.32813h-7zm0 0"/></clipPath><clipPath id="r"><path d="M261 477h6v3.32813h-6zm0 0"/></clipPath><clipPath id="s"><path d="M274 477h6v3.32813h-6zm0 0"/></clipPath><clipPath id="t"><path d="M288 477h5v3.32813h-5zm0 0"/></clipPath><clipPath id="u"><path d="M302 476h4v4.32813h-4zm0 0"/></clipPath><clipPath id="v"><path d="M315 476h4v4.32813h-4zm0 0"/></clipPath><clipPath id="w"><path d="M328 476h5v4.32813h-5zm0 0"/></clipPath><clipPath id="x"><path d="M342 476h4v4.32813h-4zm0 0"/></clipPath><clipPath id="y"><path d="M356 476h2v4.32813h-2zm0 0"/></clipPath><clipPath id="z"><path d="M368 476h5v4.32813h-5zm0 0"/></clipPath><clipPath id="A"><path d="M380 477h7v3.32813h-7zm0 0"/></clipPath><clipPath id="B"><path d="M396 476h2v4.32813h-2zm0 0"/></clipPath><clipPath id="C"><path d="M409 476h3v4.32813h-3zm0 0"/></clipPath><clipPath id="D"><path d="M420 477h7v3.32813h-7zm0 0"/></clipPath><clipPath id="E"><path d="M434 477h5v3.32813h-5zm0 0"/></clipPath><clipPath id="F"><path d="M448 476h4v4.32813h-4zm0 0"/></clipPath><clipPath id="G"><path d="M461 476h5v4.32813h-5zm0 0"/></clipPath><clipPath id="H"><path d="M144 466h4v2h-4zm0 0"/></clipPath><clipPath id="I"><path d="M144 452h4v4h-4zm0 0"/></clipPath><clipPath id="J"><path d="M144 438h4v5h-4zm0 0"/></clipPath><clipPath id="K"><path d="M465 437h3v3h-3zm0 0"/></clipPath><clipPath id="L"><path d="M144 425h4v4h-4zm0 0"/></clipPath><clipPath id="M"><path d="M465 424h3v2h-3zm0 0"/></clipPath><clipPath id="N"><path d="M144 412h4v4h-4zm0 0"/></clipPath><clipPath id="O"><path d="M465 410h3v2h-3zm0 0"/></clipPath><clipPath id="P"><path d="M144 399h4v3h-4zm0 0"/></clipPath><clipPath id="Q"><path d="M144 386h4v3h-4zm0 0"/></clipPath><clipPath id="R"><path d="M144 373h4v2h-4zm0 0"/></clipPath><clipPath id="S"><path d="M144 359h4v3h-4zm0 0"/></clipPath><clipPath id="T"><path d="M144 346h4v2h-4zm0 0"/></clipPath><clipPath id="U"><path d="M466 345h2v3h-2zm0 0"/></clipPath><clipPath id="V"><path d="M144 332h4v4h-4zm0 0"/></clipPath><clipPath id="W"><path d="M466 332h2v3h-2zm0 0"/></clipPath><clipPath id="X"><path d="M144 318h4v5h-4zm0 0"/></clipPath><clipPath id="Y"><path d="M466 318h2v2h-2zm0 0"/></clipPath><clipPath id="Z"><path d="M465 318h3v3h-3zm0 0"/></clipPath><g id="aa" clip-path="url(#clip1)"><path fill="#fff" fill-opacity="0" fill-rule="evenodd" d="M0 0h1000v1000H0zm0 0"/><path fill="#d3d3d3" fill-opacity="0" fill-rule="evenodd" d="M162.15234 355.86719l-.23437.29297.0586.23437.11718.17188.17578.23437.29297.34766.11328.0586.11719-.17188.0586-.23438.17577-.17578.46485-.17578h.69922l.23437.29297.28906.8164.0586.17579.17578.23046.35156.23438.69922.69922.17188.17578.23437.34765.23438.41016.28906.58203.41015.46485.23047.23437.23438.17578.11719.23047.17578.29297.17187 1.16406v.23438l.0586.28906.05859.11719.11719.11719.34765.41015.11719.17188.17578.17578.17578.23437.11719.17188.17188.35156.05859.23438.23437.40625.23438-.0586-.17578.17578-.0586.92969h-.58203l-.23437-.11328-.34766.11328-.11719.11719-.05859.29297-.0586.17578-.11718.17187-.46484.29297-.0586.23438-.0586.11328v.64453l.0586.17187v.41016l.0586.0586v.40624l.05859.40625.11719.17579.05859.05859.23047.64062-.0586.29297v.69922l-.05859.58203v.23438l-.0586.23047-.05468.35156v1.92187l.05469.1172h.42578l-.36719.11718-.02344.35156.89063 1.16797 1.74219.53906 1.33984.35938v.53906l.08984.8086.53516.71484 1.51953.26953.89063-.08594.08984 1.16406.53516.1797 1.16015-.1797 2.05469-.98437 1.16016-.36328 1.8789-.17578 1.69531-.1797-.17968.71876-1.51563.08594-1.25.08984-.80469.26953-1.07421.8086.26953.71875.53515.89843-.17968.625-.26563.8086.26563 1.07812.625.89844.80468.17969 1.25-.1797-.26562.72267.09766.5039.05468.29297v.17188l.0586.29296v.40625l.17578.1172.35156.11718h.40625l.29297-.17578.11328-.11719.0586-.11719.11718-.23047.0586-.17578.35156-.46484.23047-.17578.17578-.0586.17578.0586.0586.17578.11718.98828.05469.46875.0586.17188.11718.23437.17578.0586.8164.05859h.28907l.11719.23437.05859.40625.0586.35156v1.10547l.11718.29297.11719.34766.28906.69922.17578.35156.58203.7539.35157.17579.17187.0586.46875.23437.64063.46484.34765.23438.29297.17578.29297.05468.23047.0625.8164.34766.29297.17578.11328.17188.35157.35156.11719.17578.52343.64063v.28906l.0586.35156v.34766l.05859.35156.0586.28906.11718.0586.17188.05859h.17578l.58203.23437.17578.1172.17578.28905.17578.23438.11328.23437.29297.23047.11719.11719v.41016l.0586.05468.28906.23438.23437.11719.0586.11718.11718.17188.0586.11719.23047.23437.05859.17578.23437.0586.1172.05859-.1172.11328-.05859.11719v.11719l-.11719.29296-.11719.28907v.58203l.17579.11719.11718.05859.0586.11719.11719.11719.11328.05859.17578.34765.0586.35157.05858.40625v.17578l-.05859.17578-.11719.69922v.17187l.1172.17579.29296.29296h.40625l.17578.1172.11719.17187.11719.29296v.23438h-.52735l-.23047-.23438h-.23437l-.17578.0586-.0586.69922.0586.34765.11719.17579.17578.41015.11718.23047.28907.46875.17578.05469h.52344l.23437.0586.75781.64062.0586.29296v.23438l.05859.0586.23047.34765v.35156l-.11719.17188v.29297l.29297.28906.29297.17578.17187.0586.29297.17577.29297.1172.58203.40624.28906.23438.29297.17578.21875.16015.01563.01172.23047.17579.64062.52343.17578.23438.1172.17578.17577.17578.11328.17188v.64062l.1172.17578.46874.11719.58203.11719.23438.05859.23047.11328.29297.11719.11328.0586.58593.35156.28907.17187.17578.0625.17578.05469.17578.0586.69922.35155.28906.17579.23438.05468.28906.17578.23437.1172.64063.40624.29297.11719.17187.0586.23438.05859.41015.05859.23047.0586.23438.11718.0586.17188-.41017.17578.46875.0586.0586.29296.11328.23438.17578.05468.23438.0586.17578.05859.40625.11719.64062.23437.11719.17188.0586.23437v.17578l-.0586.1172-.0586.40624.23438.23438.11719.05859.34766.11719.64062.23047.17578.11718.28906.1172.17578.17577.23438.46485.58203 1.10546.17578.17579.34766.17578.17578.11719.35156.11718 1.04688.52344.23437.0586.46485.11327.29297.0586.46484.17578.75781.58203.23438.23438.34765.46484.17578.17578.28907.23438.8164.69921.29297.17579.28906.28906.29297.17578.29297.28906.69531.64063.17578.17578.29297.23437.28907.23438.46875.28906.64062.58203.34766.23438.23437.29297.34766.34765.35156.46485.9336.99218.34765.40625.11719.17579.23437.05859.11328.11719.64454.17578.23047.11328.23437.0586.29297.17577.23047.1172.9336.69921.40624.40625.23438.17578.40625.17578.23437.11719.8164.34766.34766.23437.23438.11719.29297.28906.23047.11719.7578.35156.35157.17188.23047.05859.29297.11719.23437.0586.8711.17577h.8164l.46875.23047.17188.0586.875.69921.46484.1172.29297.05858.17578.0586.23047.0586.46875.05859.34766.05859.35156.0586.40625.05859h.29297l.17187.0586v.23046l.17578.17578h.29297l.34766.0586.35156.05859.69922.11719h.64063l.46484-.23438.29297-.17578.17187-.11719.41016-.17187.28906-.17578.9336-.46485.46875-.29297.52343-.29296.46485-.17188.46484-.17578 1.05078-.46485.28906-.11718.41016-.11719.28906-.11719.52735-.17578 1.51562-.69922.58203-.34765.28907-.0586.29297-.0586.34765-.11718.875-.23047.35156-.11719h.11329l.23437-.05859.875-.23437.23438-.0586h.8125l.35156-.0586.8164-.11718.17188-.0586.35156-.05468.29297-.0586.23047-.05859.8164-.17578.17579-.0586h.34765l.23438-.05859.46484-.11718.75781-.17188.23438-.0586h.34765l.41016-.11718.28906-.0586 1.28516-.05859h.28906l.41016-.0586.23047-.05858h.17578l.875-.1172h.40625l.41015-.11718h.34766l.35156-.11328.8711-.0586h1.75l1.04687.28907.41016.11719.28906.11718.35156.11719.28907.11719 1.05078.17187.28906.0586h.29297l.29297.05859.17187.0586.41016.05859.17187.0586.1172.05858h.11718l.11719.0586.35156.0586h.11328l.41016.0664 1.92187.39453 1.92578.39453 1.51953.44922 1.69532.71875 2.14453.80469 1.60547-.71875 1.42968-.80469 1.16016-1.07813 1.25-.44921 3.03516-.71875 1.875-.35938 2.14453-1.34765 2.23437-1.25391 2.5-1.25781 1.69531-.44922 1.78516-.17969 1.16016-.26953.625.53906 1.33984-.26953.71485-.98828.98437-1.34375.44531-.17969.80469-.35937 1.875-.53907 1.78516-.44921 1.25-.26954 1.16015-.08984 1.69922-.08984 1.96094-.26954 1.25-.08984h.53906l.625-.08984h.89063l2.14453-.17969 2.41015-.17969 2.58985-.08984 1.69531.17969 1.60938.08984 1.42968.35938 1.16016.71875 1.875.98828 1.16015 1.52734.26563.71484.6289.08985.35548.89844.53515.53906.53516 1.52734 1.07422.35938h.53515l-.80469.53515.08985 1.70703.71484 2.69532.89063.80468.89453.98829.71484 1.2578 1.78516.53907 1.51953-.17969.35547 1.34375 1.60937-.80469.98047-.53906.26953.26953.31641-.21484.21875-.14453.80078.44922.44922-.35938h.35547l.53515-.26953.53907-.71875.53515-.26953.625-.98828 1.16016.44922.83984.3711 1.39454.61718 1.6953-.17969h1.60548l1.78515.08985.17969-1.70704.53516-1.34375.80468.26954.4922.84765.40233.40625-.08984.53906v.35938l.71485.44922.71093-.26953h1.42969l.35938.98828.4453 1.25781.71485 1.34375 1.25.6289 1.69531.62891.71485-.17969.17969-.53906.98046-.08984.44922.35937.08594 1.25782-.26563.6289-.53515.17969v.53906l.71484.98438.26563.53906.98437.98828.80078 1.07813-.26562.35937-.08985.89844-.625 2.33203-.35546 2.0664-.08985 1.79298-.17969.71875-.08984.53906v1.4375l-.98047 1.88281-.35937 1.70703-.53516.89844-.80469 1.16797-.26562.53906 2.05469 1.2539.08593.35938-.35546.53906-.08985-.17968v.80859l.08985 1.4375-.44532.71484-1.07422.09375-.26562.71485.53515.89844.8047.71875 1.16015.80859 1.33984.26953.44531.35938-.35546.44921-1.78907-.08984-1.25-.44922-.71484-.71875-.625-.08984-.17578 3.58984-.1875 1.3086h89.35937V311.70313h-55.26953v49.08203l.76172.125 3.28906.54296 2.02344 2.83594v2.7539l2.35156.33204 2.34766.33203h4.05078l-1.3789 4.16016-2.02344.70703-2.02344.70312-.54297.34375-2.59375 1.6172-.1875.11718-2.02344-2.07813-.73046-2.74218-2.67188-2.07813-1.375-3.5-.0664-.08203-1.95704-2.67188 2.75-1.41796v-49.08204H294.42187v91.41407l.1172.03125.1328.01172.07422.07421.10547.04688.08985.0586.08593.05859.08985.0586.29687.29687.0586.08984.03125.11719.02734.11719.01563.13671-.03125.1172-.0586.08983-.0586.08594-.04296.10547-.04688.10156-.02734.1211v.14453l.17578.26953.14844.14844.07422.08594.07422.07421.04296.10547.0625.08985.0586.08593.04297.10547.0586.08985.04687.10156.04296.10547.0586.08594.11719.17968.07421.07422.0625.08594.0586.08984.04297.10547.0586.08985.05858.08593.0625.08985.0586.08984.04297.10156.11719.17969.07421.07422.0586.08594.07422.07421.08984.0586.10547.04687h.14844l.1328-.01562.13282.01562.10156-.04687.07422-.07422.04688-.10156-.01563-.13281v-.14844l-.04687-.10547-.02735-.11719-.04687-.10156-.02735-.1211-.04296-.10156-.0625-.08984-.04297-.10156-.04297-.10547-.03125-.11719-.01563-.13281-.01171-.13672.08593-.0586.0586-.08593.12109-.03125.04297.10547.01562.1328v.1172l.0586.10156.0586.08984.08983.0586.14844.14843.0586.08985.04296.10547-.01171.10156.08593.0586.10547.04687.08594.0586.08984.05858.07422.07422-.11719.02735-.10546.04687-.08594.0586-.07422.07421-.0586.08985-.0625.08594-.02734.12109-.04687.10156-.04297.10547-.03125.11719-.01172.13281-.01563.13281v.14844l.02735.11719.04687.10547.04297.10156.0586.08984.07421.07422.08985.0586.07422.07421.08984.0586.0586.08984.04296.10547.04688.10156.11719.03125.1328.01563h.14845l.11718-.03125.10547.04297.04297.10547.04688.10156.02734.1211L299.5 410l.02734.11719.03125.1211.02735.11718.10547.04297.10156.04687.13281-.01562.14844.14844.0625.08593.07422.07422.07031.07422.08984.0625.10547.04297.10156.04297.1172.03125.13671.01562.11719-.03125.07422-.07422.02734-.11718-.01172-.13282-.03125-.12109-.02734-.11719.04297-.10547h.11719l.08984.0625.11719.02735h.14843l.13282.01562h.14843l.13282.01563.1328-.01563h.14845l.1328-.01562.13282-.01172.13672.01172.11719-.02735.13281-.01562.1914-.0586-.05859.17579-.01562.1328-.02735.1211-.01562.13281-.0586.08594-.1328.01563-.10548.04687-.10546.04297-.1172.03125-.11718.02735-.26563.03125h-.14843l-.13281.01562-.07422.07422.05859.08594.14844.14843.11719.1797.07421.0703.08985.0625.08984.0586.08594.0586.08984.05858.10156.04297.10547.0625.10547.04297.08594.0586.10547.04687.10156.04297.17969.11719.0586.08984-.04298.10156-.04687.10547.01562.13281.22266.22266.0586.08985.04296.10156.03125.1211.04297.10155.01563.13282.03125.11718.01171.13672.03125.11719.14844.14844.10156.04297.10547.04296.1172.03125.1328.01563.13672.01563h.11719l.11719-.03125.08984-.0586.04297-.10547.04688-.10156.04296-.10547.03125-.11719.01172-.1328v-.14845l-.01172-.1328-.01562-.13282-.03125-.11719-.04297-.10547-.04688-.10547-.04296-.10156-.04297-.10547-.01563-.13281.01563-.13281.02734-.11719.03125-.11719.02735-.1211.04687-.10155.08984-.0586.08594-.0625.07422-.07422.08984-.05859.22266-.22266.0586-.08593.07421-.07422.11719-.17969.0586-.08594v-.14844l-.07423-.07421-.10156-.04688-.10547-.04297-.10156-.04297-.0586-.08984-.04687-.10547-.02734-.11719.08984-.05859.11719-.03125.10156-.04297.17969-.11719.14844-.14843.01172-.13282-.01172-.10546-.08985-.0586-.1328.01563h-.14845l-.1328.01562-.13282-.01562-.1211-.03125-.08593-.0586-.07422-.07422-.0586-.08984-.0625-.08594-.11718-.17969-.0586-.08593.03125-.1211.08594-.05859.1211-.03125.05859-.08594v-.1211l-.03125-.11718-.0586-.08984-.05859-.08594-.04687-.10547-.02735-.11719-.01562-.1328.0586-.08985.07421-.07422.08984-.0586.1172-.17968.07421-.07422.0586-.08594.14843-.14844.1211-.03125.1328-.01562.13282.01562.07422.07422.04297.10547.01562.13281-.03125.1172-.11719.03124-.1328.01172-.14844.14844-.04297.10547-.04688.10156-.02734.1211-.03125.11718v.14844l.03125.11719.04297.10546.05859.08985.07422.07031.07422.07422.11719.03125.12109.02734.11719-.02734.1328-.01563h.1172l.08984.0586.07422.07422.04687.10546.0586.08594.10156.04688.13281.01562.10547.04297.08594.0586-.01172.10546-.07422.07422-.17969.11719-.05859.08984-.08984.0586-.07032.07422-.07421.07421-.0625.08985-.02735.11719-.01562.1328.01562.13282-.01562.13281v.14844l.01562.13281.02735.1172.03125.12108.07421.07422.08985.0586.08594.0586.08984.05858.11719.03125v.08594l-.10157.04688-.08984.0586-.26563.03124-.11718.02735h-.14844l-.10547.04296-.10156.04688-.0586.08984-.0625.23438-.01171.13281-.03125.1211-.01563.1328v.29298l-.01172.1328.01172.13673.01563.1328.1328.01563.13282.01172.1211.03125.08593.0586.07422.07421.04688.10547.04296.10157.01563.1328v.44532l-.01563.13281v.44532l.03125.26562.02735.11719.01562.13281.03125.11719.08594.21094.03125.26562v.14844l-.03125.11719-.02734.11718-.03125.1211-.02735.11719-.03125.11718-.03125.1211-.01171.1328-.01563.13282.08984.0586.1172-.03125.10155.01562.04688.10547-.03125.26562v.44141l-.04297.10547-.04688.10547-.04296.10156-.04297.10547-.0586.08594-.03125.12109-.04296.11719-.03125.11719-.01563.1328.01563.13282.05859.08984.10547.04688.08594.0586.05859.08593-.01172.13672-.03125.11719-.04297.10156v.44531l-.01562.13281v.14844l-.03125.11719-.04297.10547-.02735.11719-.04687.10546-.04297.10157-.03125.12109-.02734.11719-.03125.13281-.03125.11719-.02735.11719-.04297.10546-.03125.1172-.03125.12108-.01171.13282-.01563.13281v.29688l.02734.11718v.14844l.04688.39844.02734.11719.0586.08984.12109.03125h.14844l.13281-.01563.0586.08985v.11719l-.0586.08984-.08984.0586-.10157.04296-.10546.04688-.08985.05859-.08594.0586-.13671.01562-.1172-.03125-.1328-.01563-.10157.04688-.0625.08594-.01172.13671-.01562.13282-.03125.11719-.02735.11718-.01562.13281-.03125.1211v.29687l.01563.13282.03125.11718v.14844l.01171.13281v.14844l-.02734.11719-.04688.10156-.02734.1211-.03125.11718-.0586.08985-.07421.07421-.10156.04297-.10547.04688-.11719.02734-.1211.03125-.10156-.04687.0586-.08594.10547-.04688.02734-.11718.03125-.11719.02734-.1211.03125-.11718v-.14844l.01563-.13281-.03125-.11719-.04297-.10547-.10547.01563-.07422.07422-.10156.04296-.08984.0625-.07422.07422-.04297.10157-.01563.1328-.03125.1172L304.25 426l-.03125.11719-.02734.11719-.03125.12109-.02735.11719-.03125.11718-.04297.10547-.08984.0586h-.08984l-.1172-.03125-.03124-.08594.01562-.13672-.03125-.11719v-.14844l-.01171-.1328v-.14844l-.0625-.23438-.02735-.1211-.04297-.10156-.04687-.10546-.0586-.08594-.05859-.08985-.04297-.10546-.0625-.08594-.14844-.14844-.0703-.07422-.10548-.04687-.10547-.04297-.10156-.04297-.29687-.29688-.08985-.07421-.08594-.0586-.10546-.04297-.08985-.0625-.08594-.0586-.10546-.04296-.08985-.0586-.08594-.0625-.07421-.0703-.10547-.04688-.08594-.0586-.10547-.04296-.08984-.0625-.10156-.04297-.10547-.04297-.08594-.0586-.10547-.04687-.10547-.04297-.10156-.04687-.08985-.0586-.10156-.04297-.10547-.04296-.08984-.0625-.11719-.02735-.13281-.01562-.13281.01562H299.75l-.13281.01563-.11719-.03125-.08984-.0586-.07422-.07422-.08985-.05859-.10156-.04688h-.14844l-.12109-.02734-.10156-.04297-.07422-.07422-.11719-.17968-.08984-.0586-.10156-.04297-.08985-.0625-.10547-.04296-.08984-.0586-.08594-.0586-.10547-.04687-.0586-.08594-.05858-.08984-.04297-.10547-.04688-.10156-.07422-.07422-.08594-.0586-.07421-.07421-.08985-.0586-.22265-.22265-.04297-.10547-.03125-.26563.10547-.04296h.14453l.10547.04296.07421.07422.08985.0586.08594.0586.10546.04687.08985.05859.14844.14844.0703.07422.14845.14843.0625.08594.07421.07422.08594.0586.07422.07421.08985.0625.08984.0586.08594.05859.26953.17578.10156.04688.10547.04296.10156.04297.04688-.07421.05859-.08594.07422-.07422.07031-.07422.10547.04297.07422.07422.0586.08984.04296.10156.04688.10547.04296.10547.1211.02735.11719-.02735.07421-.08984.04297-.10547.0586-.08985.07422-.07421.10546-.04297.1172-.02735.1328.01172.08985.0586.14844.14843.05859.08985.04297.10547.04687.10156.04297.10547.04297.10156.10547.04688.10547.04296.13281.01563.08594-.0586.0586-.08984.07421-.07422.10547-.04297.11719.02735.10547.04687.10156.04297.10547.04297.10156.04688.17969.11718v.11719l-.01563.13281.01563.13281.01562.13672.0586.08594.10156.04688.1211.02734.11718.03125h.14844l.11719-.03125.05859-.08984.17969-.1172.05859-.08983.07422-.07422.0586-.08594.11718-.17969.17969-.11719.11719.03125.08984.0586.04297.07422-.01563.1328v.1172l.08985.05859h.14843l.13282-.01563.1328-.01171.26563-.03125.10547-.04297.11719-.03125.1211-.02735.07421-.07421.07031-.07422.0625-.08985-.01562-.10547-.04688-.10156-.10156-.04297-.10547-.01562-.11718.02734-.26563.03125h-.14844l-.07421-.07422-.08985-.0586-.11719-.03124-.11718-.02735-.13282-.01562h-.14843l-.13282.01563h-.29687l-.10547-.04688-.14844-.14844-.04297-.10156-.05859-.08984.22266-.22266.08593-.0586.10547-.04296.11719-.03125.13281-.01563.13281.01563.13672.01562.10157.04297.1328-.01172.08985-.0625.10156-.04297.0625-.08984-.04687-.10156-.08984-.0586-.1172-.03125-.10155-.04296-.0586-.08985-.0625-.08984v-.11719l.01563-.13281.10547-.04688.07421-.07031v-.1211l-.08984-.05859-.03125-.11719.08985-.05859.07421-.07422.04297-.10547.0586-.08984.04687-.10156.01563-.13281v-.14844l-.04688-.10547-.04297-.10156-.08984-.0586-.13281-.01562-.10157-.04297-.13671-.01563-.1172-.03125h-.4453l-.13282-.01562-.13281-.01172-.13281-.01563-.11719-.03125h-.14844l-.13281-.01562-.13281-.01172-.26563-.03125-.1211-.04297-.08593-.0586-.07422-.07421v-.14844l.01172-.13281.10547-.04688.10156-.04296.13281-.01563h.15235l.13281-.01562h.29297l.1211.03125.10156.04296.08984.0586.23438.0625.12109-.04688.08984-.05859.10156-.04297.13282-.01562.10547.04296.10156.04688.13281.01172.1211-.02735h.14453l.12109-.03125.11719-.02734.10547-.04687.07421-.07422.08594-.0586.14844-.14843.0586-.08594.04687-.10547.02734-.11719.01563-.10547-.10156-.04296-.08985-.0586-.11719-.03125-.10546-.04297-.08985-.0625-.07422-.08594-.07422-.07421-.10156-.04297-.10547-.04688-.10156-.04297-.0586-.08984-.04687-.10156-.08594-.21094-.0625-.08594-.05859-.08984-.07422-.07422-.08594-.0586h-.26953l-.11719.03126-.08984.05859-.10156.04297-.13281.01562-.10547-.01562-.02735-.11719-.0625-.08984-.11718-.03125-.10157-.04297-.14843-.14844-.03125-.11719-.01563-.10546.07422-.07422.17969-.1172.11719-.02733.11718-.03125.13672.01562.10156.04297.10547.04297.10156.04687.10547.04297.1172.03125.1328.01563.1172.02734.1328.01563.10547-.01563.08985-.0586-.07422-.07421-.10547-.04297-.07422-.07422-.07422-.08984-.14844-.14844-.08593-.0586-.08985-.05859-.07422-.07422-.08984-.0586-.10156-.04687-.1211-.02734-.10156-.04688-.10547-.04296-.11719-.03125-.10156-.04297-.1211-.03125h-.14843l-.11719.03125-.10546.04297-.08594.0625-.17969.11718-.08594.0586-.08984.0586-.10547.04687-.08594.05859-.10547.04297-.10156.04297-.10547.04687-.07422.07422-.05859.08985-.0586.08593-.04687.10547-.0586.08594-.07421.07422-.13281-.01172-.1172-.03125h-.11718l-.07422.07422-.08984.0586-.07422.07421-.08984.0586-.08594.05859-.10547.04687-.10156.04297-.13672.01563-.10156-.04297-.14844-.14844-.10547-.04688h-.08594l-.10547.04688-.10156.04297-.1211.03125-.11718-.03125-.07422-.07422v-.11719l.03125-.1211.07422-.0703.0586-.08985.07421-.07422.11719-.03125.10547-.04296h.29297l.13281-.01563.13672-.01563.10156-.04296.08985-.0586.10156-.04687.08984-.0586.13281-.01171.08985.05859.13281.01172.08984-.0586.08594-.05859.10547-.04297.08984-.0586.08594-.0625.08985-.05859.14843-.14843.0586-.08594.05859-.08985.10547-.04296.13281-.01563.11719.02735.1211.03125.05859-.0586.05859-.08984.03125-.26563.02734-.11719.10547.01172.13281.01563.10157-.04297.08984-.0586.0586-.08984.07421-.07422.0586-.08984.04687-.10156.01172-.13281-.01172-.13282-.04687-.10547-.14844-.14843-.0586-.08985-.05859-.08594-.04297-.10546v-.44532l.01563-.1328v-.14845l.01172-.1328-.0586-.0586-.08984.0586-.10156-.04298-.17969-.11719-.08594-.05859-.0625-.08984-.0586-.08985-.07421-.07421-.08594-.0586-.1211.03125-.10155.01172-.10547.04688-.08594.05859-.10547.04297-.14844.14844-.08984.05859-.08594.0586-.08984.0625-.10547.04296-.13281.01563v-.1211l.10547-.04297.11718-.03125.07422-.0703.04297-.10548v-.14844l-.02734-.11718-.14844-.14844-.13281-.01563h-.14844l-.11719.03125-.10547.04297-.10156.04297-.08984.0625-.11719.02735-.07422-.07422.01172-.13281-.04297-.10157-.04297-.10547-.08984-.05859-.11719.02734-.1211.03125-.11718.03125-.10156.04297-.1211.03125-.10156.04297-.10547.04297-.08984.0586-.10156.01562v-.11719l.01562-.13281-.0586-.08985-.07421.04297-.14844.14844-.0586.08985-.07421.07421-.04688.10547-.04296.10156-.07422.07422-.0586.08985-.07422.07422-.05859.08593-.07422.07422-.08984.0625-.07422.07031-.07422.07422-.10156.01563-.13281.01562-.10547-.04296v-.1211l.14843-.14844.04297-.10156.0586-.08984.04687-.10156.04297-.10547.0586-.08985.03124-.11719.04297-.10156.03125-.1211.02735-.11718.04687-.10547.04297-.10156.04297-.10547.07422-.07031.08984-.0625.08985-.0586.10156-.04296h.29687l.26563-.03125.10547-.04297-.07422-.07422-.11719-.03125-.10547-.04297-.08984-.0586-.10156-.04687-.08985-.0586-.10156-.04296-.10547-.04297-.08984-.0625-.08594-.0586-.10547-.04296-.10156-.04297-.1211-.03125-.11718-.03125-.10157-.04297L297.5 410.25l-.10156-.04297-.08985-.0586-.04296-.10546-.01563-.13281.10156-.04297.13281-.01563.13672.01563.13282-.01563.10156-.04297.0586-.08984.01562-.10547-.08985-.0586-.07421-.07421-.10157-.04297-.08984-.0586-.14844-.14843-.04297-.10547-.01562-.13281v-.29297l-.0586-.08985-.08984-.05859-.07422-.07422-.04297-.10547-.03125-.11718-.0586-.08985-.07421-.07422-.11719-.02734-.07422-.07422-.08984-.0586-.08984-.0625-.08594-.05859-.07422-.07421-.0586-.08594-.04687-.10547-.08594-.0586-.14843-.14843-.19532-.0586-.1328.01563-.10157.04297-.07422.07422-.04688.10156-.04296.10547-.0586.08984-.0586.08594-.29687.29687-.08984.0586h-.08594l-.0625-.08594-.04297-.10547.03125-.11719.0586-.08984.02734-.11719-.01172-.13281-.08984-.0625-.10547.04688-.11719.02734-.11719.03125-.26953.17578-.10156.04688-.11719.02734-.10546.04687-.08985.0586-.10156.04297-.0586-.08594-.04687-.10547.01563-.13281.04687-.10547.07031-.07422.07422-.07031.0586-.08985v-.14843l-.04297-.10547h-.23829l-.10156.04687-.03125.11719-.02734.11719-.03125.1211-.07422.04296-.13281.01563-.07422-.04688-.04297-.10156-.04297-.10547-.04687-.10156-.04297-.10547-.1211.03125-.10156.04297-.13281.01562-.11719.03125-.10547.04297-.08984.0586-.10156.04687-.1211.02734-.13281.01563-.10156-.04297-.0586-.08985-.04687-.10546-.04297-.10157-.04297-.10546v-.1172l.0586-.08984.08593-.05859.17969-.11719.10156-.04687.10547-.04297.10547-.0586.10156-.04296.08985-.0625.10156-.04297.10547-.0586.10156-.04687.08984-.0586.10547-.04296.10156-.04297.08985-.0625.10156-.04297.13672-.01563.11719.03125.10156.04297.1211.03125.10156.04297.10546.04688.10157.04296.10547.04297.10156.04688.10547.04297.10156.04297.10547.04687.08594.0586.10546.04296.1172.03125.10546.04297.10156.04688.08985.0586.10547.04296.10156.04297.10547.04687.11719.02735.10156.04687.1211.02735h.14843l.08594-.0586.01562-.10156.0586-.08984-.02735-.1172-.07422-.07421-.11719-.17969-.07421-.07422-.08985-.07421-.17969-.1172-.08593-.05859-.10547-.04296-.10156-.04688-.26954-.17578-.05859-.08985-.07422-.07421-.0586-.08985-.04296-.10156-.03125-.11719-.01563-.13672v-.5625l-.01171-.1328-.01563-.13282-.03125-.11719-.01562-.13281-.01172-.13281-.03125-.1211-.22266-.22265-.0586-.08594-.01562-.10547.03125-.11719.13281-.01562v-91.41406H172.9922v1.45312l-.0586.23438-.35156 1.05078-.17187.52343-.1172.34766-.17577.41016-.11719.17187-.23438.29297-.23046.0586h-.35157l-.11718.05859-.23047.40625v.29297l.11719.17578.23046.23047.1172.23437.64062.75781.29297.46485.17578.23437.23047.35156.23437.34766.64063.8164.17578.46485.17187.41016.11719.69531.17578.46875.11719 1.39844.0586.46484v.875l.11718 1.04688v4.78125l-.0586.46484-.35156 1.28125-.17578.52344-.11328.41015-.35156.9297L172.93359 336l-.23437.58203-.11719.17578-.17187.34766-.17578.40625-.35157.8164-.0586.29297-.11327.29297-.11719.28906-.0586.17579-.11718.875-.0586.40625-.05859.11718-.0586.17579-.05859.17187-.23047.52734-.11718.17188v.23437l-.11719.23438-.0586.17187-.17577.58594v.28906l-.0586.17579v.29296l-.0586.11329-.05859.52734v.17187l-.05468.23438v2.6211l-.17578.8164-.1172.17578-.17577.23438-.1172.17187-.11327.23438-.58594.93359-.23047.28906-.29297.46485-.17578.23437-.28906.35156-.35156.69922-.11328.23047-.17579.41016-.17578.23046-.40625.52735-.8164.69922-.29297.17187-.28906.23438-.17579.11719-.17578.17578-.52344.40625-.52734.17578-.17187.17578-.23438.05469-.64062.17578h-.75782m12.21094 31.02344l-1.07422.44921.35938.89454 1.25-.71485.44531-.53906-.98047-.08985"/><path fill="#d3d3d3" fill-opacity="0" fill-rule="evenodd" d="M201.50781 416.59766h-.89453l.44922.6289.98047.35938.80469-.08985.4453-.98828-.17577.08985-.71485-.35547-.89453.35547m154.6211 59.0703l-.0586-.52343v-.29297l.11328-.29297.0586-.23046.46875-.46875h.11328l.11719-.11329.11718-.05859h.17579l.23437-.0586h.34766l.23437.0586.11719.0586.23047.17187.0586.17578.11718.58203v.29297l-.11719.17578-.17187.28906-.17579.17579-.52734.52343-.23047.23438-.11719.0586h-.17578l-.11718-.0586-.40625-.29297-.17579-.11719-.11718-.0586-.0586-.11327-.05468-.1172m6.64062-10.95702l-.0586-.17188v-1.10937l.0586-.17188.17578-.0586.17188-.05858h.17578l.23437-.0586.1172.0586.05858.69921-.05859.17188-.11719.17578-.11718.0586-.23438.52343-.11328.0586h-.23438l-.05859-.1172m9.61328-14.39062l-.11719-.17578v-.69922l.29297-.875.1172-.17187.17577-.35156.11328-.23047.1172-.29297.35155-.75781.1172-.23047.17187-.23438h.17578l.11719-.0586h.64062l.11719.0586.23437.23438.17188.11328.35156.29297.11719.11718.11328.17579v.11328l.11719.05859.11718.11719v.69922l-.05859.17578v.23047l-.0586.17578-.34765 1.05078-.11719.23047-.11719.23437-.11718.0586-.23047.23437-.64063.28906h-.875l-.41015-.11718-.64063-.46485"/><path fill="none" stroke="#bebebe" stroke-linecap="round" stroke-linejoin="round" stroke-miterlimit="10" stroke-width=".5" d="M467.95703 311.69531H144.02734v168.625h323.9297v-168.625"/><g clip-path="url(#a)"><path fill="#fff" fill-opacity="0" fill-rule="evenodd" d="M144 475.89063v4.4375h.0039H144V311.67188h.0039H144v164.21875"/></g><g clip-path="url(#b)"><path fill="#fff" fill-opacity="0" fill-rule="evenodd" d="M144.0039 480.32813V311.67188h62.13282v105.3203l-1.7539 1.19923-2.6836 1.8164-4.4375.53516-3.34766 2.08594-1.09375 2.5-1.14844 1.9414 1.14844 2.57422.25781 1.86328 4.1836 4.35156 1.46094.08594-1.46094 1.04297-.90234 3.39453-3.53907 2.13672-4.4375-1.85156-.26562-.28516-3.96485-4.4375.14063-4.4375-.34766-.35156-4.4375-1.16406-2.63672-2.92188-1.80468-.86328-4.4375-1.02344-4.4375.30079-2.3125 1.58593-2.125.44922-3.69922 3.98828.26172 4.4375-.28125 4.4375-.1172 4.4375-.12108 4.4414.0664 4.4375-.01172 4.4375 2.41016 4.4375 1.49219 1.29688 1.3828-1.29687 3.0547-1.29688 4.4375.00391 4.4375-.45313 4.4414-1.19921 4.4375.26171 4.4375-.09765 4.4375 1.53125 4.4414-1.83594 4.4375-1.20703 4.4375.53125 1.98048-.67578 1.35156-4.4375-.55469-4.4375-2.77734-1.08594-4.4375-1.33594-4.4375-1.17187-1.48438-.84766 1.48438-3.01562.875-1.42188 3.5625-3.84765 3.33984-.58985 1.09766-.13281.88281.13281 3.55469.54688 1.23047-.54688 3.21094-.98437v24.6914l-1.76563 2.92188 1.76563 1.6289 1.76562-1.6289-1.76563-2.92188v-24.6914l4.4375-1.76563 4.4375.03906v24.90235l-.80859 4.4375.8086.70312 4.4375.9297 1.73437-1.63282-1.73438-3.16797-4.4375-1.26953v-24.90235l2.6172-1.72656-2.6172-2.3711-4.4375-1.68358-.16406-.38282-3.96484-4.4414-.3086-.47266-4.4414-2.34766-2.9961-1.61718-1.4414-1.19922V311.67188h22.1914v110.60156l-.3828.35547.3828.36328.70313-.36328-.70313-.35547V311.67188h4.4375v120.66406l-3.8789 3.60937 3.8789 3.0039 2.81641-3.0039-2.8164-3.60937V311.67188h8.8789v125.35156l-4.29687 3.35937 4.29687 3.30469 4.4375-1.98828 1.28516-1.3164-1.28516-1.33594-4.4375-2.02344V311.67188h39.94531v123.65625l-.5703.61718.5703.48438.5586-.48438-.5586-.61719V311.67188h106.51954v145.73438l-3.00782.73047-1.42969.21484-4.4375 1.27344-2.04296 2.94922 2.04296 1.875 4.00782 2.5664.42969 1.54297 2.83203 2.89454-2.83204 2.30078-.5039 2.13671.5039.57422 1.14844-.57421 3.28906-3.66016.89844-.77735 3.36328-4.4375.00782-4.4414-3.21094-4.4375-1.0586-.73047V311.67187h79.88672v168.65625h-75.01171l-.4375-.42968-.57422.42969H144.0039"/></g><path fill="#50fcfc" fill-rule="evenodd" d="M157.86328 453.69922l-.0664-4.4375.12109-4.4414.11719-4.4375.28125-4.4375-.26172-4.4375 3.69922-3.98829v1.33985l-2.45703 2.64843.89453 4.4375-.625 4.4375-.13672 4.4375-.0664 4.4414-.1836 4.4375.33203 4.4375 2.24219 2.8125 4.4375-2.39843 4.4375.38281 3.09375-.79687 1.34375-.47266 4.4414-2.2461 4.4375.6836 4.4375-1.96875.73438-.4336-.73438-.86718-3.21484-3.57031-1.22266-1.71485-1.47265-2.72656-2.96485-2.16797-2.80078-2.26953-1.64062-1.40625-4.4375-1.20312-4.4375-.64063-1.17188-1.1875 1.17188-3.46094 4.4375 1.66797 4.10156-2.64453-4.10156-2.64453-4.4375 2.1211-4.4375-2.125v-1.33985l2.125-.44922 2.3125-1.58594 4.4375-.30078 4.4375 1.02344 1.80468.86328 2.63672 2.92188 4.4375 1.16406.34766.35156-.14063 4.4375 3.96485 4.4375.26562.28516 4.4375 1.85156 3.53906-2.13672.90235-3.39453 1.46094-1.04297-1.46094-.08594-4.1836-4.35156-.2578-1.86328-1.14845-2.57422 1.14844-1.9414 1.09375-2.5 3.34766-2.08594v10.1914l-.58594.77344.58594.60938.91797-.60938-.91797-.77344v-10.1914l4.4375-.53516 2.6836-1.8164 1.7539-1.19922 1.4414 1.19922 2.9961 1.61718v6.91797l-.4961.34375.4961.13672.28125-.13672-.28125-.34375v-6.91797l4.4414 2.34766.3086.47266 3.96484 4.4414.16406.38281 4.4375 1.6836 2.6172 2.3711-2.6172 1.72656-4.4375-.03907-4.4375 1.76563-3.21093.98437-1.23047.54688-3.55469-.54688-.88281-.13281-1.09766.13281-3.33984.58985-3.5625 3.84765-.875 1.42188-1.48438 3.01562 1.48438.84766 4.4375 1.17187v6.125l-1.73438.73438 1.73438 4.25.8789-4.25-.8789-.73438v-6.125l4.4375 1.33594 2.77734 1.08594.55469 4.4375-1.35156 4.4375-1.98047.67578-4.4375-.53125-4.4375 1.20703-4.4414 1.83594-4.4375-1.53125-4.4375.09765-4.4375-.26171-4.44141 1.19921-4.4375.45313-4.4375-.0039-3.0547 1.29687-1.3828 1.29687-1.4922-1.29687-2.41015-4.4375.01172-4.4375"/><path fill="#00e8fc" fill-rule="evenodd" d="M159.51172 458.13672l-.33203-4.4375.1836-4.4375.0664-4.4414.13672-4.4375.625-4.4375-.89453-4.4375 2.45703-2.64844v2.23437l-.38672.41406.38672 1.20313v18.01172l-.37891 2.97656.3789 2.1211.76173-2.1211-.76172-2.97656v-18.01172l.72656-1.20313-.72656-.41406v-2.23438l4.4375 2.125 4.4375-2.12109 4.10156 2.64453-4.10156 2.64453-4.4375-1.66796-1.17188 3.46093 1.17188 1.1875 4.4375.64063 4.4375 1.20312 1.64062 1.40625 2.80078 2.26953 2.96485 2.16797 1.47265 2.72656 1.22266 1.71485 3.21484 3.57031.73438.86719-.73438.4336-4.4375 1.96874-4.4375-.6836-4.4414 2.2461-1.34375.47266-3.09375.79687-4.4375-.3828-4.4375 2.39843-2.2422-2.8125"/><path fill="#00d4fc" fill-rule="evenodd" d="M161.7539 432.71094l-.38671-1.20313.38672-.41406.72656.41406-.72656 1.20313m0 23.10937l-.37891-2.1211.3789-2.97655.76173 2.97656-.76172 2.1211"/><path fill="#00e8fc" fill-rule="evenodd" d="M197.26172 432.11719l-.58594-.60938.58594-.77344.91797.77344-.91797.60938"/><path fill="#fff" fill-opacity="0" fill-rule="evenodd" d="M201.69922 452.96484l-1.73438.73438 1.73438 4.25.8789-4.25-.8789-.73438"/><path fill="#00e8fc" fill-rule="evenodd" d="M210.57422 427.20703l-.4961-.13672.4961-.34375.28125.34375-.28125.13672"/><path fill="#50fcfc" fill-rule="evenodd" d="M215.01563 464.20313l-1.76563-1.62891 1.76563-2.92188 1.76562 2.92188-1.76563 1.6289m8.875-.92578l-.80859-.70312.8086-4.4375 4.4375 1.26953 1.73437 3.16797-1.73438 1.63281-4.4375-.92969m4.4375-40.28515l-.3828-.36328.3828-.35547.70313.35547-.70313.36328m4.4375 15.95703l-3.8789-3.0039 3.8789-3.60938 2.81641 3.60937-2.8164 3.0039m8.8789 4.73829l-4.29687-3.30469 4.29687-3.35937v1.96484l-1.78125 1.39453 1.78125 1.3711 2.17188-1.3711-2.17188-1.39453v-1.96484l4.4375 2.02344 1.28516 1.33593-1.28516 1.3164-4.4375 1.98829"/><path fill="#00e8fc" fill-rule="evenodd" d="M241.64453 441.7539l-1.78125-1.37109 1.78125-1.39453 2.17188 1.39453-2.17188 1.3711"/><path fill="#50fcfc" fill-rule="evenodd" d="M281.58984 436.42969l-.5703-.48438.5703-.61719.5586.6172-.5586.48437m97.64454 28.01953l-2.04297-1.875 2.04296-2.94922 4.4375-1.27344 1.4297-.21484 3.0078-.73047v2.44531l-3.92187 2.72266 3.92188 4.20703 2.52734-4.20703-2.52735-2.72266v-2.44531l1.0586.73047 3.21094 4.4375-.00782 4.4414-3.36328 4.4375-.89844.77735-3.28906 3.66015-1.14844.57422-.5039-.57421.5039-2.13672 2.83204-2.30079-2.83204-2.89453-.42968-1.54296-4.00781-2.56641"/><path fill="#00e8fc" fill-rule="evenodd" d="M388.10938 466.78125l-3.92188-4.20703 3.92188-2.72266 2.52734 2.72266-2.52735 4.20703"/><g clip-path="url(#c)"><path fill="#50fcfc" fill-rule="evenodd" d="M391.97266 480.32813l.57421-.4297.4375.4297h-1.01171"/></g><g clip-path="url(#d)"><path fill="#fff" fill-opacity="0" fill-rule="evenodd" d="M467.9961 480.32813H468V311.67188h-.0039H468v168.65625h-.0039"/></g><path fill="#fff" fill-opacity="0" fill-rule="evenodd" d="M207.84766 441.97656l5.78906-.77734-1.32031-9.8711-5.78907.77344 1.32032 9.875"/><path fill-rule="evenodd" d="M210.23828 433.45703l.5039-.07031.83595 6.24219-.78125.10156-.59375-4.44922-1.375.1836-.07422-.55079.54687-.13672.24219-.08593.21484-.1211.1836-.16797.14453-.23046.10156-.3086.05078-.40625"/><g clip-path="url(#e)"><path fill="none" stroke="#000" stroke-linecap="round" stroke-linejoin="round" stroke-miterlimit="10" stroke-width=".5" d="M147.09375 481.9961l-6.1875-3.33594"/></g><g clip-path="url(#f)"><path fill="none" stroke="#000" stroke-linecap="round" stroke-linejoin="round" stroke-miterlimit="10" stroke-width=".5" d="M160.23438 482.28516l-5.83985-3.91016"/></g><g clip-path="url(#g)"><path fill="none" stroke="#000" stroke-linecap="round" stroke-linejoin="round" stroke-miterlimit="10" stroke-width=".5" d="M173.88672 481.64844l-6.51172-2.64063"/></g><g clip-path="url(#h)"><path fill="none" stroke="#000" stroke-linecap="round" stroke-linejoin="round" stroke-miterlimit="10" stroke-width=".5" d="M187.44922 480.59375l-7.00781-.52734"/></g><g clip-path="url(#i)"><path fill="none" stroke="#000" stroke-linecap="round" stroke-linejoin="round" stroke-miterlimit="10" stroke-width=".5" d="M186.42969 480.51563l.49219 1.125"/></g><g clip-path="url(#j)"><path fill="none" stroke="#000" stroke-linecap="round" stroke-linejoin="round" stroke-miterlimit="10" stroke-width=".5" d="M200.76953 480.16406l-7.01953.32813"/></g><g clip-path="url(#k)"><path fill="none" stroke="#000" stroke-linecap="round" stroke-linejoin="round" stroke-miterlimit="10" stroke-width=".5" d="M199.75 480.21094l.625 1.05469"/></g><g clip-path="url(#l)"><path fill="none" stroke="#000" stroke-linecap="round" stroke-linejoin="round" stroke-miterlimit="10" stroke-width=".5" d="M213.91406 479.23047l-6.67578 2.19922"/></g><g clip-path="url(#m)"><path fill="none" stroke="#000" stroke-linecap="round" stroke-linejoin="round" stroke-miterlimit="10" stroke-width=".5" d="M212.9414 479.55078l.88673.84766"/></g><g clip-path="url(#n)"><path fill="none" stroke="#000" stroke-linecap="round" stroke-linejoin="round" stroke-miterlimit="10" stroke-width=".5" d="M226.96875 478.63672l-6.15625 3.38281"/></g><g clip-path="url(#o)"><path fill="none" stroke="#000" stroke-linecap="round" stroke-linejoin="round" stroke-miterlimit="10" stroke-width=".5" d="M226.96875 478.63672l2.05469 1.34375"/></g><g clip-path="url(#p)"><path fill="none" stroke="#000" stroke-linecap="round" stroke-linejoin="round" stroke-miterlimit="10" stroke-width=".5" d="M239.91016 478.08594L234.5 482.5703"/></g><path fill="none" stroke="#000" stroke-linecap="round" stroke-linejoin="round" stroke-miterlimit="10" stroke-width=".5" d="M239.91016 478.08594l2.26953.9336"/><g clip-path="url(#q)"><path fill="none" stroke="#000" stroke-linecap="round" stroke-linejoin="round" stroke-miterlimit="10" stroke-width=".5" d="M253.01172 477.85156l-4.98047 4.95703"/></g><path fill="none" stroke="#000" stroke-linecap="round" stroke-linejoin="round" stroke-miterlimit="10" stroke-width=".5" d="M253.01172 477.85156l2.34375.72266"/><g clip-path="url(#r)"><path fill="none" stroke="#000" stroke-linecap="round" stroke-linejoin="round" stroke-miterlimit="10" stroke-width=".5" d="M266.0039 477.5625l-4.33593 5.53125"/></g><path fill="none" stroke="#000" stroke-linecap="round" stroke-linejoin="round" stroke-miterlimit="10" stroke-width=".5" d="M266.0039 477.5625l2.41407.4336"/><g clip-path="url(#s)"><path fill="none" stroke="#000" stroke-linecap="round" stroke-linejoin="round" stroke-miterlimit="10" stroke-width=".5" d="M279.3125 477.5586l-4.32031 5.54296"/></g><path fill="none" stroke="#000" stroke-linecap="round" stroke-linejoin="round" stroke-miterlimit="10" stroke-width=".5" d="M279.3125 477.5586l2.41406.42187"/><g clip-path="url(#t)"><path fill="none" stroke="#000" stroke-linecap="round" stroke-linejoin="round" stroke-miterlimit="10" stroke-width=".5" d="M292.36328 477.3711l-3.79687 5.91406"/></g><path fill="none" stroke="#000" stroke-linecap="round" stroke-linejoin="round" stroke-miterlimit="10" stroke-width=".5" d="M292.36328 477.3711l2.44531.20312"/><g clip-path="url(#u)"><path fill="none" stroke="#000" stroke-linecap="round" stroke-linejoin="round" stroke-miterlimit="10" stroke-width=".5" d="M305.14453 477.08984l-2.73047 6.47657"/></g><path fill="none" stroke="#000" stroke-linecap="round" stroke-linejoin="round" stroke-miterlimit="10" stroke-width=".5" d="M305.14453 477.08984l2.44531-.21875"/><g clip-path="url(#v)"><path fill="none" stroke="#000" stroke-linecap="round" stroke-linejoin="round" stroke-miterlimit="10" stroke-width=".5" d="M318.46484 477.09375l-2.73828 6.46875"/></g><path fill="none" stroke="#000" stroke-linecap="round" stroke-linejoin="round" stroke-miterlimit="10" stroke-width=".5" d="M318.46484 477.09375l2.44532-.21484"/><g clip-path="url(#w)"><path fill="none" stroke="#000" stroke-linecap="round" stroke-linejoin="round" stroke-miterlimit="10" stroke-width=".5" d="M332 477.19531l-3.17578 6.26953"/></g><path fill="none" stroke="#000" stroke-linecap="round" stroke-linejoin="round" stroke-miterlimit="10" stroke-width=".5" d="M331.53516 478.10547l1.22656-.02344"/><g clip-path="url(#x)"><path fill="none" stroke="#000" stroke-linecap="round" stroke-linejoin="round" stroke-miterlimit="10" stroke-width=".5" d="M345.11719 477.10156l-2.78125 6.45313"/></g><path fill="none" stroke="#000" stroke-linecap="round" stroke-linejoin="round" stroke-miterlimit="10" stroke-width=".5" d="M344.71094 478.04297l1.22265-.10156"/><g clip-path="url(#y)"><path fill="none" stroke="#000" stroke-linecap="round" stroke-linejoin="round" stroke-miterlimit="10" stroke-width=".5" d="M356.875 476.82031l.33203 7.01953"/></g><path fill="none" stroke="#000" stroke-linecap="round" stroke-linejoin="round" stroke-miterlimit="10" stroke-width=".5" d="M356.92188 477.83984l1.05468-.625"/><g clip-path="url(#z)"><path fill="none" stroke="#000" stroke-linecap="round" stroke-linejoin="round" stroke-miterlimit="10" stroke-width=".5" d="M368.88281 477.14063l2.94922 6.3789"/></g><path fill="none" stroke="#000" stroke-linecap="round" stroke-linejoin="round" stroke-miterlimit="10" stroke-width=".5" d="M369.3086 478.0664l.74218-.97656"/><g clip-path="url(#A)"><path fill="none" stroke="#000" stroke-linecap="round" stroke-linejoin="round" stroke-miterlimit="10" stroke-width=".5" d="M381.10547 477.92969l5.13281 4.79687"/></g><g clip-path="url(#B)"><path fill="none" stroke="#000" stroke-linecap="round" stroke-linejoin="round" stroke-miterlimit="10" stroke-width=".5" d="M397.55469 476.86328l-1.13672 6.9336"/></g><path fill="none" stroke="#000" stroke-linecap="round" stroke-linejoin="round" stroke-miterlimit="10" stroke-width=".5" d="M397.39063 477.8711l1.16015-.39454"/><g clip-path="url(#C)"><path fill="none" stroke="#000" stroke-linecap="round" stroke-linejoin="round" stroke-miterlimit="10" stroke-width=".5" d="M411.3164 476.96484l-2.02734 6.72657"/></g><path fill="none" stroke="#000" stroke-linecap="round" stroke-linejoin="round" stroke-miterlimit="10" stroke-width=".5" d="M411.01953 477.94531l1.20313-.24219"/><g clip-path="url(#D)"><path fill="none" stroke="#000" stroke-linecap="round" stroke-linejoin="round" stroke-miterlimit="10" stroke-width=".5" d="M426.08984 477.83203l-4.9453 4.99219"/></g><g clip-path="url(#E)"><path fill="none" stroke="#000" stroke-linecap="round" stroke-linejoin="round" stroke-miterlimit="10" stroke-width=".5" d="M438.70313 477.29297l-3.54297 6.07031"/></g><path fill="none" stroke="#000" stroke-linecap="round" stroke-linejoin="round" stroke-miterlimit="10" stroke-width=".5" d="M438.1875 478.17578l1.22656.05078"/><g clip-path="url(#F)"><path fill="none" stroke="#000" stroke-linecap="round" stroke-linejoin="round" stroke-miterlimit="10" stroke-width=".5" d="M451.58203 477.07813l-2.67187 6.5"/></g><path fill="none" stroke="#000" stroke-linecap="round" stroke-linejoin="round" stroke-miterlimit="10" stroke-width=".5" d="M451.19531 478.02344l1.21875-.11719"/><g clip-path="url(#G)"><path fill="none" stroke="#000" stroke-linecap="round" stroke-linejoin="round" stroke-miterlimit="10" stroke-width=".5" d="M462.125 477.125l2.875 6.41016"/></g><path fill="none" stroke="#000" stroke-linecap="round" stroke-linejoin="round" stroke-miterlimit="10" stroke-width=".5" d="M462.54297 478.05469l.75-.96875"/><g clip-path="url(#H)"><path fill="none" stroke="#000" stroke-linecap="round" stroke-linejoin="round" stroke-miterlimit="10" stroke-width=".5" d="M147.47266 467.55469l-6.94532-1.08203"/></g><path fill="none" stroke="#000" stroke-linecap="round" stroke-linejoin="round" stroke-miterlimit="10" stroke-width=".5" d="M147.47266 467.55469l.80468 2.32031m12.34766-1.6875l-6.6211-2.34766m6.6211 2.34766l.36328 2.42969m12.91797-2.33985l-6.55469-2.52734m6.55469 2.52734l.29688 2.4375m13.2539-3.82422l-7.02344.2461m7.02344-.2461l1.22656 2.125m11.875-3.21484l-6.59375 2.42578m6.59375-2.42578l1.82813 1.63281m11.20703-2.21875l-6.03516 3.59766m6.03516-3.59766l2.09766 1.26953m10.95312-1.65234l-5.50781 4.36328m5.50781-4.36328l2.25.98438m10.8086-1.27344l-4.9961 4.9414m4.9961-4.9414l2.34375.73047m10.84765-.84766l-4.75 5.17578m4.75-5.17578l2.375.61328m10.67578-.83203l-4.22265 5.61328m4.22265-5.61328l2.42578.3789m10.9922-.30468l-4.42188 5.46484m4.42187-5.46484l2.40625.46875m-3.05078.32813l1.20313.23437m12.8203-.97656l-4.55077 5.35547m4.55078-5.35547l2.39453.52734m-3.0586.2539l1.19922.26173m12.78516-1.03907L301.5 469.6875m4.5625-5.34766l2.39453.53125m-3.0586.2461l1.19923.26562m12.86718-.96484l-4.73828 5.1914m4.73828-5.1914l2.375.60937m-3.0664.14453l1.1875.3047m12.8125-1.0625l-4.72656 5.19921m4.72656-5.19922l2.3789.60547m-3.0664.15235l1.1914.30078m12.44532-1.35157l-3.9922 5.78516m3.9922-5.78516l2.4375.28516m-3.01953.5586l1.21875.14062m12.39453-1.16016l-3.42578 6.13672m3.42578-6.13672l2.45312.05078m9.86328-.42187l-1.42968 6.8789m1.42968-6.8789l2.35547-.6875m10.8789.67187l-1.26562 6.91016m1.08203-5.90625l1.16797-.3711m13.67969-.07812l-3.96484 5.80078m3.38672-4.95703l1.21875.13281m12.60937-1.01953l-3.83594 5.88672m3.27735-5.03125l1.22265.10938m13.34766-.3711l-5.22656 4.69922m4.46484-4.01562l1.15234.42187m12.53516-1.47656l-4.44922 5.4414m3.80078-4.64843l1.20313.23828m11.46094-1.69922l-1.84766 6.77734m1.84766-6.77734l2.39062-.54297m11.07813.58985l-2.16016 6.68359m1.84766-5.71094l1.20703-.21484"/><g clip-path="url(#I)"><path fill="none" stroke="#000" stroke-linecap="round" stroke-linejoin="round" stroke-miterlimit="10" stroke-width=".5" d="M147.34375 454.78125l-6.6875-2.16797"/></g><path fill="none" stroke="#000" stroke-linecap="round" stroke-linejoin="round" stroke-miterlimit="10" stroke-width=".5" d="M147.34375 454.78125l.42578 2.41797m12.89063-2.42578l-6.69141-2.14844m6.6914 2.14844l.4336 2.41406m13.05078-3.5586l-7.02734.13672m7.02734-.13671l1.1914 2.14453m12.01173-2.95313l-6.8047 1.75781m6.8047-1.7578l1.65625 1.80859m11.58984-2.03516l-6.66797 2.21094m6.66797-2.21094l1.77734 1.6914m11.3672-2.11328l-6.32813 3.0547m6.32812-3.0547l1.98047 1.44922m10.83984-2.20703l-5.33593 4.57031m5.33593-4.5703l2.28516.89843m10.97266-.96484l-5.22266 4.69921m5.22266-4.69921l2.30468.83984m11.01953-.83203l-5.23828 4.6875m5.23828-4.6875l2.30079.84765m10.9375-.92578l-5.08594 4.84375m5.08594-4.84375l2.32812.77344m10.86328-.89844l-4.83984 5.09375m4.83984-5.09375l2.36719.66016m-3.07031.08203l1.1836.32813m12.9414-.96485l-5.05469 4.88281m5.05469-4.8828l2.33594.7578m-3.07032-.04687l1.16797.3789m13.05078-.89843l-5.39453 4.5m5.39453-4.5l2.27344.92187m-3.05469-.26953l2.26953.92578m11.84766-1.55859l-5.4336 4.46094m5.4336-4.46094l2.26563.94531m-3.0586-.29687l2.26563.94531m11.7578-1.69531l-5.26171 4.66015m5.26172-4.66015l2.29687.85937m-3.0625-.17969l1.14844.4297M346.2461 451.25l-5.04296 4.89453m5.04296-4.89453l2.33594.7539m-3.0664-.03906l1.16406.375m12.53125-1.40625l-4.33985 5.52735m4.33985-5.52735l2.41406.4336m-3.04687.3711l1.21093.21874m12.59375-1.1289l-4.05078 5.74218m4.05078-5.74219l2.4336.3086m11.23828-.01953l-4.76563 5.16406m4.76563-5.16406l2.3711.6211m11.42968-.06642l-5.73828 4.0547m4.90234-3.46485l1.09766.55078m13.32812-.6836l-6.28515 3.14063m5.37109-2.6836l.9961.71094m13.4453-.64062l-6.71093 2.08594m5.73437-1.78125l.8711.86328m12.77344-2.35938l-5.41797 4.46875m4.6289-3.8203l1.13672.46874m11.64844-2.10937l-2.78125 6.45312m2.3789-5.51562l1.22266-.09766m12.09766-.98438l-1.98828 6.7422m1.98828-6.7422l2.40234-.49218"/><g clip-path="url(#J)"><path fill="none" stroke="#000" stroke-linecap="round" stroke-linejoin="round" stroke-miterlimit="10" stroke-width=".5" d="M147.20313 441.82422l-6.40625-2.8789"/></g><path fill="none" stroke="#000" stroke-linecap="round" stroke-linejoin="round" stroke-miterlimit="10" stroke-width=".5" d="M147.20313 441.82422l.16406 2.44922m13.27734-2.76563l-6.65625-2.25m5.6875 1.92578l.19922 1.20703m14.22266-1.4453l-6.9375-1.125m6.9375 1.125l.78906 2.32421m12.57031-2.85937l-7.02344-.0547m7.02344.0547l1.13672 2.17578m12.07813-3.03906l-6.82422 1.67578m6.82422-1.67578l1.63671 1.82812m11.34766-2.6836l-6.16016 3.38282m6.16016-3.38281l2.05078 1.34375m10.92578-1.84766l-5.48437 4.39063m5.48437-4.39063l2.2539.97266m10.1875-1.75391l-3.73437 5.95313m3.73438-5.95313l2.44531.17578m10.32422-.45312l-2.64844 6.5078m2.64844-6.5078l2.4414-.25m11.66798.70312l-4.23438 5.60547m4.23438-5.60547l2.42578.38672m10.36718-.71484l-3.1875 6.26172m3.1875-6.26172l2.45313-.04688m11.21875.25781l-3.90625 5.83985m3.90625-5.83985l2.4414.2461m11.82422.69531l-5.80859 3.95313m5.8086-3.95313l2.17187 1.14063m-3.01563-.56641l2.17188 1.14453m12.17187-1.41797l-6.17578 3.35156m6.17578-3.35156l2.04688 1.35547m-2.94531-.86719l1.02343.67578m12.96875-1.52343l-5.73046 4.0703m5.73046-4.0703l2.19141 1.10156m-3.02734-.50781l1.09765.55078m12.89063-1.35156l-5.40625 4.48828m5.40625-4.48828l2.26953.92968m-3.05469-.27734l1.13281.46484m12.37891-1.67969l-4.23047 5.61329m3.61328-4.79688l1.21094.1914m12.47656-1.17577l-3.73828 5.94921m3.73828-5.94921l2.44532.17578m12.46093 3.39843l-6.92187-1.19921m5.91406 1.02343l.38281 1.16797m13.9336-2.22265l-6.91016 1.2578m5.90625-1.07421l.76172.96484m13.5-1.40625l-6.79688 1.77344m5.8086-1.51562l.83203.90234m13.58203-.05469l-7.01562-.4336m7.01562.4336l1.01563 2.23047m12.07812-3.6914l-6.57422 2.48828m6.57422-2.48829l1.84375 1.6172m10.6211-2.90626l-4.875 5.0625m4.875-5.0625l2.35937.67578m11.07812-.55078l-5.11718 4.8164"/><g clip-path="url(#K)"><path fill="none" stroke="#000" stroke-linecap="round" stroke-linejoin="round" stroke-miterlimit="10" stroke-width=".5" d="M466.1211 437.97656l2.32421.78516"/></g><g clip-path="url(#L)"><path fill="none" stroke="#000" stroke-linecap="round" stroke-linejoin="round" stroke-miterlimit="10" stroke-width=".5" d="M147.34375 428.14453l-6.6875-2.15234"/></g><path fill="none" stroke="#000" stroke-linecap="round" stroke-linejoin="round" stroke-miterlimit="10" stroke-width=".5" d="M146.3711 427.83203l.21484 1.20703m14.14453-1.15234l-6.83203-1.63672m5.83984 1.39844l.3086 1.1875m13.90234-.61719l-6.64063-2.30078m6.64063 2.30078l.38281 2.42188m13.1211-3.77344l-7.01563.40234m5.9961-.34375l.63671 1.04688m13.39844-2.33594L194.05078 428.5m5.48438-2.44531l.96875.7539m13.26953-1.1953l-6.39453 2.91015m6.39453-2.91016l1.94531 1.4961m10.28516-2.84766l-4.22657 5.61328m3.61328-4.79688l1.21094.19141m13.51563-.16406l-5.82422 3.92578m4.97656-3.35547l1.08594.57813m12.80078-1.51172l-5.26953 4.65234m5.26953-4.65234l2.29688.86328m10.95703-.92969l-5.14844 4.78516m5.14844-4.78516l2.3203.80469m10.8672-.9336l-4.89453 5.04297m4.89453-5.04297l2.35547.6797m9.98046-1.35157L289 430.26172m2.5039-5.45703l1.22657-.07032m13.9336.32422l-5.76563 4.01953m4.92578-3.43359l1.09375.5586m12.82422-1.44532l-5.29297 4.6211m5.29297-4.6211l2.29297.875m10.91797-.98828l-5.08594 4.84766m5.08594-4.84766l2.32812.76953m-3.0664-.0664l1.16406.38672m13.1953-.72266l-5.6953 4.11328m5.6953-4.11328l2.20313 1.08203m11.41016-.58984l-6.29297 3.1289m6.29297-3.1289l1.9961 1.42578m10.65624-2.34375l-4.96875 4.96875m4.96875-4.96875l2.34766.71484m10.5039-1.10547l-4.03906 5.7461m4.03907-5.7461l2.43359.30078m12.35156 2.17579l-6.98047.79296m6.98047-.79296l1.39063 2.02343m11.53515-3.28125l-6.19921 3.3086m5.29687-2.82813l1.01563.6875m12.7539-1.8164l-5.3086 4.60546m5.3086-4.60546l2.28906.8828m10.95313-.96093l-5.16406 4.76563m5.16406-4.76563l2.3164.8086m9.95313-1.58985l-3.0664 6.32422m3.0664-6.32422l2.44922-.08984m11.82031.77343l-4.98047 4.95704"/><g clip-path="url(#M)"><path fill="none" stroke="#000" stroke-linecap="round" stroke-linejoin="round" stroke-miterlimit="10" stroke-width=".5" d="M466.05078 424.58984l2.34766.72266"/></g><g clip-path="url(#N)"><path fill="none" stroke="#000" stroke-linecap="round" stroke-linejoin="round" stroke-miterlimit="10" stroke-width=".5" d="M147.23828 415.11328l-6.47656-2.72265"/></g><path fill="none" stroke="#000" stroke-linecap="round" stroke-linejoin="round" stroke-miterlimit="10" stroke-width=".5" d="M146.29688 414.71875l.10937 1.22266m14.2461-1.08985l-6.67579-2.19922m5.70313 1.87891l.21094 1.21094m13.8828-.41406l-6.28515-3.14844m6.28516 3.14844l.0586 2.45312m13.55468-3.32422l-6.88281-1.40625m6.8828 1.40625l.69532 2.35547m12.6914-3.17578l-7.02343.23437m7.02344-.23437l1.22265 2.1289m12.02344-2.69921l-6.89062 1.375m5.89062-1.17578l.77734.94921m13.28125-1.9414l-6.375 2.96094m5.44532-2.53125l.98047.74218m13.23828-1.22656l-6.32031 3.07031m5.39843-2.625l.99219.72266m13.17578-1.29688l-6.1875 3.32813m6.1875-3.32813l2.04297 1.35938m11.23047-1.4414l-6.10156 3.48827m6.10156-3.48828l2.07422 1.3086m11.01172-1.65625l-5.64454 4.18359m5.64454-4.1836l2.21484 1.0547m10.90625-1.29297l-5.2539 4.66406m5.2539-4.66406l2.30078.85546m10.61328-1.24218l-4.45312 5.4375m3.80468-4.64454l1.20313.23829m13.21094-.58985l-5.35547 4.55078m4.57422-3.88671l1.14062.45312m13.10547-.92578l-5.65625 4.17187m4.83594-3.5664l1.10547.53125m13.6875.5039l-6.96875.89063m5.95312-.76172l.71094 1m13.375-2.04297l-6.48047 2.71875m5.53906-2.32422l.94922.77735m13.02344-1.71485l-5.91016 3.80078m5.91016-3.80078l2.14062 1.19922m10.9375-1.52344l-5.4375 4.45313m5.4375-4.45313l2.26172.94532m10.70703-1.3125l-4.74609 5.1875m4.7461-5.1875l2.375.61328m11.10937-.44531l-5.08594 4.84765m5.08594-4.84765l2.32812.77343m10.36329-1.29297l-3.83594 5.89063m3.83594-5.89063l2.4414.21875m11.36719.17188l-4.82813 5.10547m4.12891-4.35938l1.17969.32422m12.38672-1.42969l-3.92969 5.82813m3.92969-5.82813l2.4414.25782m10.91016-.23438l-4 5.78125"/><g clip-path="url(#O)"><path fill="none" stroke="#000" stroke-linecap="round" stroke-linejoin="round" stroke-miterlimit="10" stroke-width=".5" d="M465.5625 410.86328l2.4336.28516"/></g><g clip-path="url(#P)"><path fill="none" stroke="#000" stroke-linecap="round" stroke-linejoin="round" stroke-miterlimit="10" stroke-width=".5" d="M147.47656 399.92578l-6.95312 1.02344"/></g><path fill="none" stroke="#000" stroke-linecap="round" stroke-linejoin="round" stroke-miterlimit="10" stroke-width=".5" d="M146.46484 400.07422l.72657.98828m13.53125.23828l-6.8125-1.72656m5.8203 1.47656l.29298 1.1914m13.26562.4961l-5.3164-4.59765m5.3164 4.59765l-.54687 2.39063m14.55469-3.64063l-6.70313-2.09765m5.73047 1.79296l.22266 1.20313m14.09765-2.89844l-6.76562 1.89844m5.78125-1.6211l.84765.88672m13.26953-1.65625l-6.40625 2.88672m5.47657-2.46875l.96875.7539m13.30468-1.11327l-6.46093 2.76562m5.51953-2.36328l.95703.76953m13.51172-.48047l-6.88672 1.38282m6.88672-1.38282l1.5586 1.89844m11.74218-1.96875l-6.85938 1.52735m6.85938-1.52735l1.59766 1.86328m11.6953-1.96094l-6.8125 1.72266m6.8125-1.72265l1.64844 1.8164m11.20704-2.8711l-5.89453 3.82813m5.89453-3.82812l2.14453 1.1914m10.94531-1.5l-5.4414 4.44532m5.4414-4.44532l2.26172.94922m10.86719-1.16015l-5.07032 4.86718m5.07032-4.86718l2.33203.76562m11.16406-.5586l-5.4336 4.45704m4.64454-3.8086l1.1289.47266m12.98438-1.10937l-5.45313 4.43359m4.66016-3.78906l1.1289.47656m13.21094-.80469l-5.91406 3.79688m5.05078-3.24219l1.07032.59766m12.51953-1.84766l-4.73828 5.1875m4.05078-4.42969l1.1875.30469M369 397.19531l2.71094 6.48438m-2.3164-5.53906l.77734-.94922m15.35546.26562l-3.71484 5.96485m3.71484-5.96485l2.44922.16406m10.6289-.30078l-3.23827 6.23828m2.76562-5.33203l1.22657-.01172m13.51171-.17187l-5.14062 4.79297m4.39453-4.09766l1.16016.40235m12.27734-1.62891l-3.89062 5.85156m3.32421-5l1.21875.1211m11.82032-1.38282l-2.20703 6.67188m1.88671-5.69922l1.20704-.20703m12.92187-.5586l-3.1914 6.26172m2.72656-5.35156l1.22656-.01953m13.64844-.01563l-5.38672 4.51172m4.60547-3.85547l1.13672.46094"/><g clip-path="url(#Q)"><path fill="none" stroke="#000" stroke-linecap="round" stroke-linejoin="round" stroke-miterlimit="10" stroke-width=".5" d="M147.41016 386.28125l-6.82032 1.6836"/></g><path fill="none" stroke="#000" stroke-linecap="round" stroke-linejoin="round" stroke-miterlimit="10" stroke-width=".5" d="M147.41016 386.28125l1.63672 1.82813m11.78125-.9375l-7.02735-.09766m7.02734.09765l1.1211 2.1836m11.97656-1.01172l-6.58984-2.4414m5.6289 2.08593l.16797 1.21485m14.09766-.83985l-6.57031-2.48047m5.61718 2.1211l.15625 1.21484m12.95313.70313l-4.25-5.59766m3.6289 4.78125l-.51171 1.11719m15.71093-2.17579l-6.78125-1.84765m6.78125 1.84765l.54297 2.39063m12.875-2.94531l-6.98437-.73828m6.98437.73828l.91797 2.27734m12.41797-2.52344L233.69531 387m7.02344.2461l1.07422 2.20312m11.98047-3.65625l-6.5039 2.66015m5.55858-2.27343l.94141.78515m12.97266-1.8164l-5.8125 3.94922m4.96484-3.375l1.08594.5703m12.54687-1.7578l-4.7539 5.17578m4.0625-4.42188l1.1875.3086m12.70703-1.16016l-4.53125 5.3711m3.8711-4.58985l1.19921.25781m12.78906-1.03125l-4.55468 5.35547m3.89062-4.57422l1.19922.26172m12.5625-1.21094l-4.1211 5.69141m3.51954-4.86328l1.21484.16797m12.7539-.96094l-4.22265 5.6211m3.60547-4.80079l1.21484.1875m11.9336-1.44922l-2.65625 6.50391m2.26953-5.5586l1.21875-.125m13.54297-.14452l-4.77735 5.15234m4.08204-4.40235l1.1875.3125m13.26171-.57421l-5.65234 4.17578m5.65234-4.17578l2.21094 1.05859m10.42578-1.75l-4.29687 5.5586m4.29687-5.5586l2.41797.41406m10.85938-.4414l-4.22266 5.61328m4.22266-5.61328l2.42578.3789m10.41015-.6836l-3.26562 6.22267m3.26562-6.22266L414.38672 384m10.71094-.0625l-2.96094 6.3711m2.96094-6.3711l2.44922-.13281m10.59765.01953l-2.42578 6.59765m2.07422-5.63671l1.21484-.16407m11.67969-.98437l-.88281 6.97265m.7539-5.95703l1.14844-.43359m14.70313.84766l-5.69532 4.11328m4.8672-3.51563l1.10155.53906"/><g clip-path="url(#R)"><path fill="none" stroke="#000" stroke-linecap="round" stroke-linejoin="round" stroke-miterlimit="10" stroke-width=".5" d="M147.51172 373.89844l-7.02344-.17969"/></g><path fill="none" stroke="#000" stroke-linecap="round" stroke-linejoin="round" stroke-miterlimit="10" stroke-width=".5" d="M147.51172 373.89844l1.09766 2.19531m12.20703-2.01563l-7.00391-.53906m7.0039.53906l.98438 2.25m-2-2.32812l.48828 1.125m13.83594-1.66797l-6.99219.70313m6.99219-.70313l1.36328 2.03906m11.96875-1.5664l-7.02344-.24219m7.02344.24219l1.07422 2.20703m12.14063-1.48047l-6.82032-1.69531m6.82031 1.69531l.59375 2.3789m12.50391-1.76562l-6.39062-2.92187m6.39062 2.92187l.14844 2.44922m13.46875-3.54688l-6.99219-.73046m6.99219.73046l.91797 2.27735m12.40234-2.91016l-7.0039.53516m7.0039-.53516l1.3164 2.07422m11.92188-2.59765l-6.84765 1.58203m5.85156-1.35157l.80469.92579m13.05078-2.2422l-5.9375 3.75782m5.07422-3.21094l1.0664.60547m12.6289-1.75781l-4.96874 4.96875m4.96875-4.96875l2.34375.71875m10.8125-.86719l-4.65625 5.26172m4.65625-5.26172l2.38672.57422m11.28906-.20703l-5.375 4.53125m5.375-4.53125l2.27734.91406m11.28516-.58203l-5.8711 3.86328m5.8711-3.86328l2.15234 1.17969m11.14844-1.19922l-5.83984 3.90625m4.98828-3.33985l1.08203.58204m13.2461-.88282l-6.16407 3.375m5.26563-2.8828l1.02734.67187m13.32031-.89063l-6.4336 2.82813m6.4336-2.82813l1.92578 1.51953m11.23438-1.82812l-6.125 3.4414m6.125-3.4414l2.0664 1.32812m10.6797-2.08203l-4.98829 4.94922m4.98828-4.94922l2.34375.72656m10.66407-1l-4.3711 5.5m4.3711-5.5l2.41406.44532m10.69531-.59766l-3.96094 5.80469m3.96094-5.80469l2.4414.27344m10.57032-.45703l-3.35547 6.17187m3.35547-6.17187l2.45312.01953m10.59766-.15235l-2.82422 6.4375m2.41406-5.5l1.22266-.09375m11.5586-1.10937l-.9375 6.96484m.80078-5.94922l1.15234-.42578m14.64453.78906l-5.6289 4.20704m4.8125-3.59375l1.10937.52343"/><g clip-path="url(#S)"><path fill="none" stroke="#000" stroke-linecap="round" stroke-linejoin="round" stroke-miterlimit="10" stroke-width=".5" d="M147.5 360.78125l-7-.57813"/></g><path fill="none" stroke="#000" stroke-linecap="round" stroke-linejoin="round" stroke-miterlimit="10" stroke-width=".5" d="M147.5 360.78125l.97266 2.2539m-1.98828-2.33593l.48437 1.125m13.85938-1.35547l-7.02735.05078m7.02734-.05078l1.16797 2.15625m12.14453-2l-7.02343-.26563m7.02344.26563l1.0703 2.21094m-2.08984-2.25l.53125 1.10547m13.8047-1.23047l-7.02345.0664m7.02344-.0664l1.17578 2.15625m-2.19531-2.14844l.58594 1.07813m13.66015-.26563l-6.84765-1.57422m6.84765 1.57422l.63672 2.36719m-1.63281-2.59766l.32031 1.1836m13.98828-.94532l-6.84375-1.58984m6.84375 1.58984l.63282 2.36719m12.76562-2.90234l-7.00781-.51954m7.00781.51954l.98828 2.24218m12.26953-3.1875l-6.89453 1.3672m6.89453-1.3672l1.55078 1.90235m11.73829-2.02735l-6.83985 1.6172m5.84375-1.38282l.8086.92187m13.16015-2.04296l-6.15625 3.39453m5.25781-2.90235l1.02735.67188m12.92187-1.57031l-5.6289 4.20312m5.6289-4.20313l2.21875 1.04688m11.32422-.70313l-6.08594 3.51563m6.08594-3.51563l2.08203 1.30079m11.59766-.39454l-6.8164 1.70313m6.8164-1.70313l1.64453 1.82422m11.57422-2.14453l-6.6211 2.34766m6.6211-2.34766l1.8125 1.65625m11.32812-2.0664l-6.27343 3.16406m5.36328-2.70313l1 .70704m13.50781-.39454l-6.83594 1.6172m6.83594-1.6172l1.6211 1.84375m11.72265-1.72265l-6.89062 1.3789m6.89062-1.3789l1.55078 1.89844m11.72656-2.0547l-6.8203 1.69141m6.8203-1.6914l1.64063 1.82422m11.36719-2.625l-6.20703 3.29296m6.20703-3.29296l2.03515 1.375m11.02735-1.78125l-5.69922 4.10546m5.69922-4.10546l2.20312 1.08203m11.0039-1.23047l-5.48046 4.39844m5.48047-4.39844l2.2539.96875m11.1211-.88672l-5.60547 4.23828m5.60547-4.23828l2.22656 1.03125m11.1289-.98047l-5.68359 4.13672m5.6836-4.13672l2.20312 1.07422m10.78125-1.46484l-5.02344 4.91406m5.02344-4.91406l2.33985.74218m11.10546-.60156l-5.28125 4.63672m4.51172-3.96094l1.14844.4336"/><g clip-path="url(#T)"><path fill="none" stroke="#000" stroke-linecap="round" stroke-linejoin="round" stroke-miterlimit="10" stroke-width=".5" d="M147.48828 347.59375l-6.97656-.83203"/></g><path fill="none" stroke="#000" stroke-linecap="round" stroke-linejoin="round" stroke-miterlimit="10" stroke-width=".5" d="M147.48828 347.59375l.88672 2.28906m-1.90234-2.41015l.4453 1.14453m13.90235-1.65625l-7.01172.4336m7.01172-.4336l1.28516 2.08984m-2.30469-2.02734l.64063 1.04687m13.64843-1.50781l-6.91797 1.23047m6.91797-1.23047l1.51172 1.9336m-2.51953-1.75391l1.51563 1.9336m12.82812-1.97267l-6.96094.94922m6.96094-.94921l1.4336 1.99218m-2.44532-1.85156l.71485.9961m13.64453-.59766l-7.02735-.1289m7.02735.1289l1.11328 2.1875m12.16016-1.71094l-6.94532-1.08203m6.94531 1.08203l.8047 2.3164m12.54296-2.58593l-7.00781-.54297m7.00781.54297l.98047 2.25m12.33984-2.70703l-7.01953.3711m7.01953-.3711l1.26563 2.10156m12-2.53516l-6.91797 1.23829m6.91797-1.23829l1.51562 1.9297m11.63672-2.52345l-6.59375 2.42579m6.59375-2.42579l1.82813 1.63672m11.5664-1.39062l-6.7539 1.9336m6.7539-1.9336l1.70703 1.76562m11.6875-1.4375l-6.91015 1.28125m6.91015-1.28125l1.52735 1.91797m11.83594-1.55078l-7.00782.54297m7.00782-.54297l1.3164 2.07031m11.92188-2.5664l-6.85547 1.53515m6.85547-1.53515l1.59765 1.86328m11.71875-1.85938l-6.85937 1.52735m6.85937-1.52735l1.59375 1.86719m-2.58984-1.64453l.79688.9336m13.57812-.78126l-6.98438.77735m6.98438-.77735l1.38281 2.02735m11.95313-1.5625l-7.02735-.15235m7.02735.15235l1.10547 2.1914m-2.12891-2.21484l.55469 1.09765m13.76562-1.49609l-6.99219.6914m6.9922-.6914l1.35937 2.03906m-2.375-1.9375l.67969 1.01954m13.51171-1.82032l-6.71093 2.08985m6.71093-2.08985l1.7422 1.72656m-2.71876-1.42187l.8711.86328m13.35937-1.34765l-6.58984 2.44921m6.58984-2.44921l1.83203 1.6289m-2.79297-1.27344l.91797.81641m13.3789-1.10938l-6.6328 2.32422m6.6328-2.32421l1.8047 1.66796m-2.76954-1.32812l1.8047 1.66406m12.3789-2.2461l-6.4414 2.8086m6.4414-2.8086l1.92187 1.52735m-2.85937-1.11719l1.92187 1.52344m12.29688-2.01172l-6.3711 2.96485m6.3711-2.96485l1.95703 1.48047m-2.88281-1.04687l.97656.73828m13.20703-1.28906l-6.25781 3.19921m6.25781-3.19921l2.01172 1.40625m11.39062-1.22266l-6.42968 2.83203"/><g clip-path="url(#U)"><path fill="none" stroke="#000" stroke-linecap="round" stroke-linejoin="round" stroke-miterlimit="10" stroke-width=".5" d="M466.77734 345.76172l1.92579 1.51953"/></g><g clip-path="url(#V)"><path fill="none" stroke="#000" stroke-linecap="round" stroke-linejoin="round" stroke-miterlimit="10" stroke-width=".5" d="M147.21875 335.26953l-6.4375-2.8125"/></g><path fill="none" stroke="#000" stroke-linecap="round" stroke-linejoin="round" stroke-miterlimit="10" stroke-width=".5" d="M147.21875 335.26953l.1875 2.44922m13.3086-4.73828l-6.80079 1.76562m6.80078-1.76562l1.66016 1.8086m11.13672-2.9375L167.75 335.875m5.76172-4.02344l2.1836 1.11719m-3.02345-.53125l1.09375.5586m13.1797-.96094l-6 3.65625m6-3.65625l2.11327 1.2539m-2.98437-.72265l1.05469.625m13.52343-.23829l-6.78515 1.82032m6.78515-1.82031l1.67578 1.79296m11.75-.60546l-7.0039-.5547m7.0039.5547l.97657 2.2539m-1.9961-2.33203l.48828 1.125m13.84766-1.5586l-7.01172.46876m7.01172-.46875l1.29297 2.08593m-2.3125-2.01562l.64844 1.04297m13.6836-1.16406l-7.00392.5703m7.00391-.5703l1.32422 2.0625m-2.34375-1.98047l.66406 1.03125m13.60156-1.57422l-6.86718 1.49219m6.86719-1.4922l1.58593 1.8711m11.7461-1.79687l-6.89844 1.34375m6.89844-1.34375l1.54297 1.90625m11.76171-1.95313l-6.8789 1.4375m6.8789-1.4375l1.57032 1.88281m11.78125-1.68359l-6.94922 1.03906m6.94922-1.03906l1.45703 1.97266m11.89062-1.67579l-7.01562.44532m7.01562-.44531l1.28516 2.08984m12.03515-1.84375l-7.02734-.04688m7.02734.04688l1.13672 2.17187m12.125-2.80859l-6.91797 1.22656m6.91797-1.22656l1.51172 1.92969m-2.51953-1.7539l.75781.96874m13.6172-.57812l-7.02735.09375m7.02734-.09375l1.17969 2.15234m12.05078-1.33594l-6.85547-1.53906m6.85547 1.53906l.65234 2.36328m12.72266-3.5625l-6.97656.85938m6.97656-.85938l1.40625 2.00782m-2.42188-1.88282l.70313 1.00391m13.16406-2.48828l-6.05078 3.57812m6.05078-3.57812l2.09375 1.28125m11.51172-.65235l-6.6289 2.32032m6.6289-2.32031l1.80469 1.66406m11.65625-1.1211l-6.91797 1.23438m6.91797-1.23438l1.51172 1.9297m11.63281-2.54298l-6.58203 2.45703m6.58203-2.45703l1.83984 1.6289m-2.79687-1.26952l.91797.8125m13.23047-1.46485l-6.33204 3.04688m6.33204-3.04688l1.97656 1.45313m-2.89844-1.01172l.98828.72656m13.26563-1.1289l-6.36719 2.96875m6.36719-2.96875l1.96093 1.47656m-2.88671-1.04688l.98046.7422m13.25782-1.1836l-6.35938 2.99219"/><g clip-path="url(#W)"><path fill="none" stroke="#000" stroke-linecap="round" stroke-linejoin="round" stroke-miterlimit="10" stroke-width=".5" d="M466.74219 332.36719l1.96484 1.46875"/></g><path fill="none" stroke="#000" stroke-linecap="round" stroke-linejoin="round" stroke-miterlimit="10" stroke-width=".5" d="M465.8164 332.80078l.98048.73828"/><g clip-path="url(#X)"><path fill="none" stroke="#000" stroke-linecap="round" stroke-linejoin="round" stroke-miterlimit="10" stroke-width=".5" d="M146.95313 322.44922l-5.90625-3.80078"/></g><path fill="none" stroke="#000" stroke-linecap="round" stroke-linejoin="round" stroke-miterlimit="10" stroke-width=".5" d="M146.95313 322.44922l-.20313 2.44531m-.65625-3l-.10156 1.22266m14.6914-1.5664l-6.73437-2.00782m6.73437 2.00781l.48438 2.40625m12.91797-4.03515l-6.91406 1.25m5.91015-1.06641l.75781.96094m13.60938-.78907l-7.00781.54297m7.0078-.54297l1.31642 2.07032m12-1.56641l-7.01172-.46484m7.01172.46484l1.0078 2.23828m-2.02734-2.3086l.50391 1.1211m13.83984-1.20312l-7.02734-.16407m7.02734.16407l1.09766 2.1953m-2.1211-2.21874l1.10157 2.1914m13.23437-2.33593l-7.02343.17187m7.02343-.17187l1.20703 2.13672m-2.23046-2.10938l.60547 1.0664m13.72656-1.24609l-7.01172.47657m7.01172-.47657l1.29687 2.08594m-2.3164-2.01562l.64843 1.04296M254 320.0625l-6.96094.96875M254 320.0625l1.4414 1.98828m-2.45312-1.84765l.71875.99609m13.63672-.84375l-7.01563.38281m7.01563-.38281l1.26953 2.10156m-2.28906-2.04297l.63281 1.05078m13.70313-1.09375l-7.01953.35157m7.01953-.35157l1.2578 2.10547m11.97267-2.70703l-6.85157 1.55469m6.85156-1.55469l1.60547 1.85938m11.78907-1.3086l-7.01172.45313m7.01172-.45313l1.28906 2.08985m12.02734-2.08594l-7.01172.44922m7.01172-.44922l1.28906 2.08594m-2.30859-2.02344l.64453 1.04687m13.5625-1.84375l-6.75781 1.91797m6.75781-1.91797l1.70313 1.76954m11.60937-1.79297l-6.75 1.96484m6.75-1.96484l1.71094 1.7578m11.66016-1.53124l-6.86329 1.50781m5.86329-1.28906l.79687.9375m13.38672-1.60156l-6.60156 2.40234m5.64453-2.05469l.91015.82422m12.75391-2.23047l-5.38281 4.51953m5.38281-4.51953l2.27344.91797m11.00781-.95703l-5.3164 4.59766m5.3164-4.59766l2.28516.88281m9.39453 1.41406l-.01953-.19921-.0586-.19141-.09375-.17578-.46093-.3789-.19141-.0547-.19922-.01953-.19922.01954-.1914.05468-.45704.3789-.09765.17579-.0586.1914-.01953.19923.01954.19921.05859.19141.09765.17969.45704.375.1914.0586.19922.01952.19922-.01953.1914-.0586.46094-.375.09375-.17968.0586-.1914.01953-.19923m9.28125-1.8125l6.01953 3.625m-5.14453-3.09765l.0664-1.22266m18.82422 1.78125l-6.8789 1.45313m5.875-1.23828l.78906.9375m13.42969-1.51172l-6.67969 2.17578m6.67969-2.17578l1.76953 1.70312m-2.73828-1.38672l.88281.85157m12.85156-2.21485l-5.58203 4.26953"/><g clip-path="url(#Y)"><path fill="none" stroke="#000" stroke-linecap="round" stroke-linejoin="round" stroke-miterlimit="10" stroke-width=".5" d="M466.35156 318.41406l2.23047 1.01953"/></g><g clip-path="url(#Z)"><path fill="none" stroke="#000" stroke-linecap="round" stroke-linejoin="round" stroke-miterlimit="10" stroke-width=".5" d="M465.53906 319.03516l2.23438 1.01953"/></g><path fill="#ff3030" fill-rule="evenodd" d="M442.1914 476.52344h7.69532V466.3789h-7.69531v10.14453"/><path fill="azure" fill-rule="evenodd" d="M444.02734 468.21094h.83204v5.74219h3.1953v.73828h-4.02734v-6.48047"/><path fill="#ff3030" fill-rule="evenodd" d="M366.74219 436.57813h7.6914v-10.14454h-7.6914v10.14454"/><path fill="azure" fill-rule="evenodd" d="M368.57422 428.26563h.83203v5.74218h3.19531v.73828h-4.02734v-6.48046"/><path fill="#ff3030" fill-rule="evenodd" d="M295.72656 418.82813h7.69531v-10.14844h-7.6953v10.14844"/><path fill="azure" fill-rule="evenodd" d="M297.5586 410.51172h.83593v5.74219h3.1914v.73828h-4.02734v-6.48047"/><path fill="#ff3030" fill-rule="evenodd" d="M189.20703 383.32031h7.6914v-10.14844h-7.6914v10.14844"/><path fill="azure" fill-rule="evenodd" d="M191.03906 375.00781h.83594v5.73828h3.1914v.7422h-4.02734v-6.48048"/><path fill="#ffffe0" fill-rule="evenodd" d="M323.99219 370.64844h22.17969v-10.1914h-22.1797v10.1914"/><path fill-rule="evenodd" d="M327.48828 362.28906H328v6.29688h-.78906v-4.49219h-1.38672v-.55469l.5586-.0625.2539-.05469.22656-.08984.20703-.14062.17188-.21094.14062-.29297.10547-.39844m4.8164 0l.22657.01953.21875.0547.21094.08983.19531.1211.1836.15234.17187.17578.30078.41797.2461.49219.17968.54688.10938.57812.03906.59375-.03906.59375-.10938.58203-.17969.55469-.24609.5-.30078.42969-.17188.17968-.18359.15235-.19531.125-.21094.08984-.21875.0586-.22656.01953-.23047-.01954-.21875-.05859-.20703-.08984-.19922-.125-.1836-.15235-.17187-.17968-.30078-.4297-.24219-.5-.17969-.55468-.11328-.58203-.03515-.59375h.83203l.02734.5625.08203.5039.125.44532.16406.375.19141.30078.21094.21875.22265.13672.22657.04687.22656-.04687.22266-.13672.21093-.21875.1875-.30078.16407-.375.125-.44531.08203-.50391.03125-.5625-.03125-.5625-.08203-.5-.125-.4336-.16407-.36718-.1875-.29297-.21093-.21484-.22266-.12891-.22656-.04688-.22656.04688-.22266.1289-.21094.21485-.1914.29297-.16407.36719-.125.43359-.08203.5-.02734.5625h-.83203l.03515-.59375.11328-.57813.1797-.54687.24218-.49219.30078-.41797.17188-.17578.18359-.15234.19922-.1211.20703-.08984.21875-.05469.23047-.01953m5.08984 0h.50781v6.29688h-.78515v-4.49219h-1.38672v-.55469l.5586-.0625.25-.05469.23046-.08984.20313-.14062.17578-.21094.14062-.29297.10547-.39844m2.82422 2.17578h.78516l.01953-.3164.0625-.28516.09765-.2539.14063-.21485.17969-.17187.22265-.12891.26563-.08203.3086-.02735.23827.02344.22266.0625.20703.10156.17578.13672.14844.17188.11328.20703.07422.23438.02344.26562-.01954.26953-.0664.22266-.10938.19531-.15625.16797-.20312.16406-.2461.16406-.6328.39063-.53907.3125-.4375.3164-.34375.32422-.26563.33594-.1914.35156-.125.3711-.0664.39062-.02344.42188h4.21484v-.74219h-3.33203l.08203-.28516.11328-.23437.14844-.20313.1875-.17968.23047-.17188.27734-.17578.71875-.41406.41406-.20703.34766-.23047.27734-.25.22266-.26953.16406-.27735.10938-.28515.0625-.28516.02343-.28125-.04296-.38281-.1211-.34766-.1875-.3086-.2539-.26171-.30079-.21094-.34375-.16015-.3828-.09766-.40626-.03516-.4336.03516-.39843.09765-.35547.16797-.30469.23438-.25.30078-.18359.375-.11719.44531-.03906.51953"/><path fill="#ffffe0" fill-rule="evenodd" d="M190.83984 356.72656h22.1797v-10.1914h-22.1797v10.1914"/><path fill-rule="evenodd" d="M194.33984 348.36719h.50782v6.29687h-.78516v-4.49219h-1.39063v-.55468l.5625-.0625.25-.05469.23047-.08984.20313-.14063.17578-.21094.14063-.29296.10546-.39844m4.8125 0l.23047.01953.21875.05469.20703.08984.19532.1211.1875.15234.16797.17578.30468.41797.24219.49219.17969.54687.11328.57813.03516.59375-.03516.59375-.11328.58203-.17969.55468-.24219.5-.30469.4297-.16796.17968-.1875.15234-.19532.125-.20703.08985-.21875.05859-.23047.01953-.23047-.01953-.21875-.0586-.20703-.08984-.1953-.125-.1836-.15234-.17188-.17969-.30078-.42969-.2461-.5-.17968-.55468-.10938-.58204-.03906-.59375h.83203l.03125.5625.08203.50391.125.44531.16016.375.1914.30079.21095.21875.22265.13671.22656.04688.22657-.04688.22265-.13671.21094-.21875.1914-.30079.16016-.375.1289-.4453.08204-.50392.02734-.5625-.02734-.5625-.08203-.5-.1289-.43359-.16016-.36719-.19141-.29296-.21094-.21485-.22265-.1289-.22657-.04688-.22656.04688-.22266.1289-.21093.21485-.1914.29296-.16017.3672-.125.43358-.08203.5-.03125.5625h-.83203l.03906-.59375.10938-.57812.17969-.54688.2461-.49218.30077-.41797.17188-.17578.1836-.15235.1953-.12109.20703-.08984.21875-.0547.23047-.01952m5.09375 0h.50782v6.29687h-.78907v-4.49219h-1.38672v-.55468l.5586-.0625.2539-.05469.23047-.08984.20313-.14063.17187-.21094.14063-.29296.10937-.39844m2.82032 2.17578h.78906l.01953-.3164.0586-.28516.09765-.25391.14063-.21484.18359-.17188.22266-.1289.26562-.08204.3086-.02734.23437.02344.22656.0625.20313.10156.17968.13672.14844.17187.11328.20704.07031.23437.02735.26563-.02344.26953-.0664.22265-.10938.19531-.15625.16797-.19922.16407-.2461.16406-.63671.39062-.53516.3125-.4375.31641-.34765.32422-.26563.33594-.1875.35156-.125.3711-.07031.39062-.01953.42187h4.21094v-.74219h-3.33204l.08203-.28515.11329-.23438.14843-.20312.1875-.17969.23047-.17187.28125-.17579.71485-.41406.41406-.20703.34766-.23047.28125-.25.21875-.26953.16406-.27734.10937-.28516.0664-.28515.01954-.28125-.04297-.38282-.1211-.34765-.1875-.3086-.25-.26172-.30468-.21093-.34375-.16016-.3789-.09766-.40626-.03515-.4375.03515-.39843.09766-.35547.16797-.30469.23437-.2461.30079-.1875.375-.11327.4453-.04297.51954"/><path fill="#ffffe0" fill-rule="evenodd" d="M323.99219 337.67578h22.17969v-10.1914h-22.1797v10.1914"/><path fill-rule="evenodd" d="M327.48828 329.3164H328v6.29298h-.78906v-4.48829h-1.38672v-.55468l.5586-.06641.2539-.05469.22656-.08594.20703-.14453.17188-.20703.14062-.29687.10547-.39453m4.8164 0l.22657.01953.21875.05469.21094.08984.19531.1211.1836.14843.17187.17578.30078.42188.2461.49218.17968.54688.10938.57812.03906.58985-.03906.59375-.10938.58594-.17969.55468-.24609.5-.30078.42969-.17188.17969-.18359.15234-.19531.125-.21094.08985-.21875.05859-.22656.01953-.23047-.01953-.21875-.0586-.20703-.08984-.19922-.125-.1836-.15234-.17187-.17969-.30078-.42969-.24219-.5-.17969-.55469-.11328-.58593-.03515-.59375h.83203l.02734.5664.08203.50391.125.4414.16406.375.19141.30079.21094.22265.22265.13672.22657.04688.22656-.04688.22266-.13672.21093-.22265.1875-.30078.16407-.375.125-.44141.08203-.5039.03125-.56641-.03125-.5586-.08203-.5-.125-.4375-.16407-.36718-.1875-.28907-.21093-.21484-.22266-.13281-.22656-.04297-.22656.04297-.22266.13281-.21094.21484-.1914.28907-.16407.36718-.125.4375-.08203.5-.02734.5586h-.83203l.03515-.58985.11328-.57812.1797-.54688.24218-.49218.30078-.42188.17188-.17578.18359-.14844.19922-.1211.20703-.08983.21875-.0547.23047-.01952m5.08984 0h.50781v6.29296h-.78515v-4.48828h-1.38672v-.55468l.5586-.06641.25-.05469.23046-.08594.20313-.14453.17578-.20703.14062-.29687.10547-.39453m6.80469 1.62109h-.78516l-.05469-.21484-.08203-.1836-.10546-.16015-.12891-.13282-.14844-.10156-.16015-.07422-.16797-.04297-.17188-.01562-.32812.03906-.28907.1211-.24609.1953-.20313.26954-.16015.33594-.11328.40625-.07031.46484-.02344.52734.1875-.20312.1875-.16016.1836-.1211.1875-.08983.1875-.0586.1914-.03906.40234-.02344.30469.03125.32031.09375.3164.15235.29688.22265.2539.28125.19923.35156.07031.20313.05469.21484.02734.23438.00781.2539-.78906.04297-.02734-.25781-.07813-.25-.1211-.23438-.16015-.21093-.19531-.17578-.21875-.13672-.23828-.08985-.25781-.03125-.25391.03125-.24219.08985-.21875.13672-.1914.17578-.16016.21094-.125.23437-.07813.25-.02343.25781.02344.26172.07812.25.125.23438.16016.21093.1914.17579.21875.13671.24219.08985.2539.03125.25782-.03125.23828-.08985.21875-.13671.19531-.17579.16016-.21093.1211-.23438.07812-.25.02734-.26172.78906-.04297-.03125.3672-.09375.375-.15625.35546-.22265.32813-.29297.28515-.16797.11719-.1875.10547-.20703.08203-.22266.0586-.24219.03906-.26171.01562-.28125-.01563-.26172-.04687-.23828-.07813-.21485-.10546-.19531-.13282-.17188-.15625-.15625-.17968-.1328-.19922-.1172-.22266-.10156-.24219-.14453-.53515-.08594-.59375-.02734-.64063.03906-.74219.11328-.66406.1875-.57812.1211-.2539.13672-.23438.15234-.20313.17188-.1836.18359-.15624.20312-.1289.21875-.10157.23047-.07422.25-.04297.26172-.01562.36719.03515.33203.09375.29297.15235.25781.19921.21094.2422.16406.27343.11719.30078.0625.32422"/></g></defs><use xlink:href="#aa"/></svg>