<svg xmlns="http://www.w3.org/2000/svg" role="img" xmlns:xlink="http://www.w3.org/1999/xlink" viewBox="142.45 309.95 326.84 171.84"><defs><clipPath id="a"><path d="M144 311.67188h1v168.65625h-1zm0 0"/></clipPath><clipPath id="b"><path d="M144 311.67188h324v168.65625H144zm0 0"/></clipPath><clipPath id="c"><path d="M392 479h1v1.32813h-1zm0 0"/></clipPath><clipPath id="d"><path d="M467 311.67188h1v168.65625h-1zm0 0"/></clipPath><clipPath id="e"><path d="M144 478h4v2.32813h-4zm0 0"/></clipPath><clipPath id="f"><path d="M154 478h7v2.32813h-7zm0 0"/></clipPath><clipPath id="g"><path d="M167 478h8v2.32813h-8zm0 0"/></clipPath><clipPath id="h"><path d="M180 479h8v1.32813h-8zm0 0"/></clipPath><clipPath id="i"><path d="M186 480h2v.32813h-2zm0 0"/></clipPath><clipPath id="j"><path d="M193 479h9v1.32813h-9zm0 0"/></clipPath><clipPath id="k"><path d="M199 479h2v1.32813h-2zm0 0"/></clipPath><clipPath id="l"><path d="M206 479h9v1.32813h-9zm0 0"/></clipPath><clipPath id="m"><path d="M212 479h3v1.32813h-3zm0 0"/></clipPath><clipPath id="n"><path d="M220 478h8v2.32813h-8zm0 0"/></clipPath><clipPath id="o"><path d="M226 478h4v2.32813h-4zm0 0"/></clipPath><clipPath id="p"><path d="M234 477h7v3.32813h-7zm0 0"/></clipPath><clipPath id="q"><path d="M247 477h7v3.32813h-7zm0 0"/></clipPath><clipPath id="r"><path d="M261 477h6v3.32813h-6zm0 0"/></clipPath><clipPath id="s"><path d="M274 477h6v3.32813h-6zm0 0"/></clipPath><clipPath id="t"><path d="M288 477h5v3.32813h-5zm0 0"/></clipPath><clipPath id="u"><path d="M302 476h4v4.32813h-4zm0 0"/></clipPath><clipPath id="v"><path d="M315 476h4v4.32813h-4zm0 0"/></clipPath><clipPath id="w"><path d="M328 477h5v3.32813h-5zm0 0"/></clipPath><clipPath id="x"><path d="M341 476h5v4.32813h-5zm0 0"/></clipPath><clipPath id="y"><path d="M356 476h2v4.32813h-2zm0 0"/></clipPath><clipPath id="z"><path d="M368 476h4v4.32813h-4zm0 0"/></clipPath><clipPath id="A"><path d="M380 477h7v3.32813h-7zm0 0"/></clipPath><clipPath id="B"><path d="M396 476h2v4.32813h-2zm0 0"/></clipPath><clipPath id="C"><path d="M408 476h4v4.32813h-4zm0 0"/></clipPath><clipPath id="D"><path d="M421 477h5v3.32813h-5zm0 0"/></clipPath><clipPath id="E"><path d="M435 476h4v4.32813h-4zm0 0"/></clipPath><clipPath id="F"><path d="M449 476h2v4.32813h-2zm0 0"/></clipPath><clipPath id="G"><path d="M461 477h5v3.32813h-5zm0 0"/></clipPath><clipPath id="H"><path d="M144 466h4v2h-4zm0 0"/></clipPath><clipPath id="I"><path d="M144 452h4v3h-4zm0 0"/></clipPath><clipPath id="J"><path d="M144 438h4v5h-4zm0 0"/></clipPath><clipPath id="K"><path d="M465 437h3v2h-3zm0 0"/></clipPath><clipPath id="L"><path d="M144 426h4v3h-4zm0 0"/></clipPath><clipPath id="M"><path d="M465 424h3v2h-3zm0 0"/></clipPath><clipPath id="N"><path d="M144 412h4v4h-4zm0 0"/></clipPath><clipPath id="O"><path d="M465 411h3v2h-3zm0 0"/></clipPath><clipPath id="P"><path d="M144 399h4v2h-4zm0 0"/></clipPath><clipPath id="Q"><path d="M144 386h4v3h-4zm0 0"/></clipPath><clipPath id="R"><path d="M144 373h4v2h-4zm0 0"/></clipPath><clipPath id="S"><path d="M144 359h4v2h-4zm0 0"/></clipPath><clipPath id="T"><path d="M144 346h4v2h-4zm0 0"/></clipPath><clipPath id="U"><path d="M466 345h2v3h-2zm0 0"/></clipPath><clipPath id="V"><path d="M144 331h4v5h-4zm0 0"/></clipPath><clipPath id="W"><path d="M466 332h2v2h-2zm0 0"/></clipPath><clipPath id="X"><path d="M144 318h4v5h-4zm0 0"/></clipPath><clipPath id="Y"><path d="M466 318h2v2h-2zm0 0"/></clipPath><clipPath id="Z"><path d="M465 318h3v3h-3zm0 0"/></clipPath><g id="aa" clip-path="url(#clip1)"><path fill="#fff" fill-opacity="0" fill-rule="evenodd" d="M0 0h1000v1000H0zm0 0"/><path fill="#d3d3d3" fill-opacity="0" fill-rule="evenodd" d="M162.15234 355.86719l-.23437.29297.0586.23437.11718.17188.17578.23437.29297.34766.11328.0586.11719-.17188.0586-.23438.17577-.17578.46485-.17578h.69922l.23437.29297.28906.8164.0586.17579.17578.23046.35156.23438.69922.69922.17188.17578.23437.34765.23438.41016.28906.58203.41015.46485.23047.23437.23438.17578.11719.23047.17578.29297.17187 1.16406v.23438l.0586.28906.05859.11719.11719.11719.34765.41015.11719.17188.17578.17578.17578.23437.11719.17188.17188.35156.05859.23438.23437.40625.23438-.0586-.17578.17578-.0586.92969h-.58203l-.23437-.11328-.34766.11328-.11719.11719-.05859.29297-.0586.17578-.11718.17187-.46484.29297-.0586.23438-.0586.11328v.64453l.0586.17187v.41016l.0586.0586v.40624l.05859.40625.11719.17579.05859.05859.23047.64062-.0586.29297v.69922l-.05859.58203v.23438l-.0586.23047-.05468.35156v1.92187l.05469.1172h.42578l-.36719.11718-.02344.35156.89063 1.16797 1.74219.53906 1.33984.35938v.53906l.08984.8086.53516.71484 1.51953.26953.89063-.08594.08984 1.16406.53516.1797 1.16015-.1797 2.05469-.98437 1.16016-.36328 1.8789-.17578 1.69531-.1797-.17968.71876-1.51563.08594-1.25.08984-.80469.26953-1.07421.8086.26953.71875.53515.89843-.17968.625-.26563.8086.26563 1.07812.625.89844.80468.17969 1.25-.1797-.26562.72267.09766.5039.05468.29297v.17188l.0586.29296v.40625l.17578.1172.35156.11718h.40625l.29297-.17578.11328-.11719.0586-.11719.11718-.23047.0586-.17578.35156-.46484.23047-.17578.17578-.0586.17578.0586.0586.17578.11718.98828.05469.46875.0586.17188.11718.23437.17578.0586.8164.05859h.28907l.11719.23437.05859.40625.0586.35156v1.10547l.11718.29297.11719.34766.28906.69922.17578.35156.58203.7539.35157.17579.17187.0586.46875.23437.64063.46484.34765.23438.29297.17578.29297.05468.23047.0625.8164.34766.29297.17578.11328.17188.35157.35156.11719.17578.52343.64063v.28906l.0586.35156v.34766l.05859.35156.0586.28906.11718.0586.17188.05859h.17578l.58203.23437.17578.1172.17578.28905.17578.23438.11328.23437.29297.23047.11719.11719v.41016l.0586.05468.28906.23438.23437.11719.0586.11718.11718.17188.0586.11719.23047.23437.05859.17578.23437.0586.1172.05859-.1172.11328-.05859.11719v.11719l-.11719.29296-.11719.28907v.58203l.17579.11719.11718.05859.0586.11719.11719.11719.11328.05859.17578.34765.0586.35157.05858.40625v.17578l-.05859.17578-.11719.69922v.17187l.1172.17579.29296.29296h.40625l.17578.1172.11719.17187.11719.29296v.23438h-.52735l-.23047-.23438h-.23437l-.17578.0586-.0586.69922.0586.34765.11719.17579.17578.41015.11718.23047.28907.46875.17578.05469h.52344l.23437.0586.75781.64062.0586.29296v.23438l.05859.0586.23047.34765v.35156l-.11719.17188v.29297l.29297.28906.29297.17578.17187.0586.29297.17577.29297.1172.58203.40624.28906.23438.29297.17578.21875.16015.01563.01172.23047.17579.64062.52343.17578.23438.1172.17578.17577.17578.11328.17188v.64062l.1172.17578.46874.11719.58203.11719.23438.05859.23047.11328.29297.11719.11328.0586.58593.35156.28907.17187.17578.0625.17578.05469.17578.0586.69922.35155.28906.17579.23438.05468.28906.17578.23437.1172.64063.40624.29297.11719.17187.0586.23438.05859.41015.05859.23047.0586.23438.11718.0586.17188-.41017.17578.46875.0586.0586.29296.11328.23438.17578.05468.23438.0586.17578.05859.40625.11719.64062.23437.11719.17188.0586.23437v.17578l-.0586.1172-.0586.40624.23438.23438.11719.05859.34766.11719.64062.23047.17578.11718.28906.1172.17578.17577.23438.46485.58203 1.10546.17578.17579.34766.17578.17578.11719.35156.11718 1.04688.52344.23437.0586.46485.11327.29297.0586.46484.17578.75781.58203.23438.23438.34765.46484.17578.17578.28907.23438.8164.69921.29297.17579.28906.28906.29297.17578.29297.28906.69531.64063.17578.17578.29297.23437.28907.23438.46875.28906.64062.58203.34766.23438.23437.29297.34766.34765.35156.46485.9336.99218.34765.40625.11719.17579.23437.05859.11328.11719.64454.17578.23047.11328.23437.0586.29297.17577.23047.1172.9336.69921.40624.40625.23438.17578.40625.17578.23437.11719.8164.34766.34766.23437.23438.11719.29297.28906.23047.11719.7578.35156.35157.17188.23047.05859.29297.11719.23437.0586.8711.17577h.8164l.46875.23047.17188.0586.875.69921.46484.1172.29297.05858.17578.0586.23047.0586.46875.05859.34766.05859.35156.0586.40625.05859h.29297l.17187.0586v.23046l.17578.17578h.29297l.34766.0586.35156.05859.69922.11719h.64063l.46484-.23438.29297-.17578.17187-.11719.41016-.17187.28906-.17578.9336-.46485.46875-.29297.52343-.29296.46485-.17188.46484-.17578 1.05078-.46485.28906-.11718.41016-.11719.28906-.11719.52735-.17578 1.51562-.69922.58203-.34765.28907-.0586.29297-.0586.34765-.11718.875-.23047.35156-.11719h.11329l.23437-.05859.875-.23437.23438-.0586h.8125l.35156-.0586.8164-.11718.17188-.0586.35156-.05468.29297-.0586.23047-.05859.8164-.17578.17579-.0586h.34765l.23438-.05859.46484-.11718.75781-.17188.23438-.0586h.34765l.41016-.11718.28906-.0586 1.28516-.05859h.28906l.41016-.0586.23047-.05858h.17578l.875-.1172h.40625l.41015-.11718h.34766l.35156-.11328.8711-.0586h1.75l1.04687.28907.41016.11719.28906.11718.35156.11719.28907.11719 1.05078.17187.28906.0586h.29297l.29297.05859.17187.0586.41016.05859.17187.0586.1172.05858h.11718l.11719.0586.35156.0586h.11328l.41016.0664 1.92187.39453 1.92578.39453 1.51953.44922 1.69532.71875 2.14453.80469 1.60547-.71875 1.42968-.80469 1.16016-1.07813 1.25-.44921 3.03516-.71875 1.875-.35938 2.14453-1.34765 2.23437-1.25391 2.5-1.25781 1.69531-.44922 1.78516-.17969 1.16016-.26953.625.53906 1.33984-.26953.71485-.98828.98437-1.34375.44531-.17969.80469-.35937 1.875-.53907 1.78516-.44921 1.25-.26954 1.16015-.08984 1.69922-.08984 1.96094-.26954 1.25-.08984h.53906l.625-.08984h.89063l2.14453-.17969 2.41015-.17969 2.58985-.08984 1.69531.17969 1.60938.08984 1.42968.35938 1.16016.71875 1.875.98828 1.16015 1.52734.26563.71484.6289.08985.35548.89844.53515.53906.53516 1.52734 1.07422.35938h.53515l-.80469.53515.08985 1.70703.71484 2.69532.89063.80468.89453.98829.71484 1.2578 1.78516.53907 1.51953-.17969.35547 1.34375 1.60937-.80469.98047-.53906.26953.26953.31641-.21484.21875-.14453.80078.44922.44922-.35938h.35547l.53515-.26953.53907-.71875.53515-.26953.625-.98828 1.16016.44922.83984.3711 1.39454.61718 1.6953-.17969h1.60548l1.78515.08985.17969-1.70704.53516-1.34375.80468.26954.4922.84765.40233.40625-.08984.53906v.35938l.71485.44922.71093-.26953h1.42969l.35938.98828.4453 1.25781.71485 1.34375 1.25.6289 1.69531.62891.71485-.17969.17969-.53906.98046-.08984.44922.35937.08594 1.25782-.26563.6289-.53515.17969v.53906l.71484.98438.26563.53906.98437.98828.80078 1.07813-.26562.35937-.08985.89844-.625 2.33203-.35546 2.0664-.08985 1.79298-.17969.71875-.08984.53906v1.4375l-.98047 1.88281-.35937 1.70703-.53516.89844-.80469 1.16797-.26562.53906 2.05469 1.2539.08593.35938-.35546.53906-.08985-.17968v.80859l.08985 1.4375-.44532.71484-1.07422.09375-.26562.71485.53515.89844.8047.71875 1.16015.80859 1.33984.26953.44531.35938-.35546.44921-1.78907-.08984-1.25-.44922-.71484-.71875-.625-.08984-.17578 3.58984-.1875 1.3086h89.35937V311.70313h-55.26953v49.08203l.76172.125 3.28906.54296 2.02344 2.83594v2.7539l2.35156.33204 2.34766.33203h4.05078l-1.3789 4.16016-2.02344.70703-2.02344.70312-.54297.34375-2.59375 1.6172-.1875.11718-2.02344-2.07813-.73046-2.74218-2.67188-2.07813-1.375-3.5-.0664-.08203-1.95704-2.67188 2.75-1.41796v-49.08204H294.42187v91.41407l.1172.03125.1328.01172.07422.07421.10547.04688.08985.0586.08593.05859.08985.0586.29687.29687.0586.08984.03125.11719.02734.11719.01563.13671-.03125.1172-.0586.08983-.0586.08594-.04296.10547-.04688.10156-.02734.1211v.14453l.17578.26953.14844.14844.07422.08594.07422.07421.04296.10547.0625.08985.0586.08593.04297.10547.0586.08985.04687.10156.04296.10547.0586.08594.11719.17968.07421.07422.0625.08594.0586.08984.04297.10547.0586.08985.05858.08593.0625.08985.0586.08984.04297.10156.11719.17969.07421.07422.0586.08594.07422.07421.08984.0586.10547.04687h.14844l.1328-.01562.13282.01562.10156-.04687.07422-.07422.04688-.10156-.01563-.13281v-.14844l-.04687-.10547-.02735-.11719-.04687-.10156-.02735-.1211-.04296-.10156-.0625-.08984-.04297-.10156-.04297-.10547-.03125-.11719-.01563-.13281-.01171-.13672.08593-.0586.0586-.08593.12109-.03125.04297.10547.01562.1328v.1172l.0586.10156.0586.08984.08983.0586.14844.14843.0586.08985.04296.10547-.01171.10156.08593.0586.10547.04687.08594.0586.08984.05858.07422.07422-.11719.02735-.10546.04687-.08594.0586-.07422.07421-.0586.08985-.0625.08594-.02734.12109-.04687.10156-.04297.10547-.03125.11719-.01172.13281-.01563.13281v.14844l.02735.11719.04687.10547.04297.10156.0586.08984.07421.07422.08985.0586.07422.07421.08984.0586.0586.08984.04296.10547.04688.10156.11719.03125.1328.01563h.14845l.11718-.03125.10547.04297.04297.10547.04688.10156.02734.1211L299.5 410l.02734.11719.03125.1211.02735.11718.10547.04297.10156.04687.13281-.01562.14844.14844.0625.08593.07422.07422.07031.07422.08984.0625.10547.04297.10156.04297.1172.03125.13671.01562.11719-.03125.07422-.07422.02734-.11718-.01172-.13282-.03125-.12109-.02734-.11719.04297-.10547h.11719l.08984.0625.11719.02735h.14843l.13282.01562h.14843l.13282.01563.1328-.01563h.14845l.1328-.01562.13282-.01172.13672.01172.11719-.02735.13281-.01562.1914-.0586-.05859.17579-.01562.1328-.02735.1211-.01562.13281-.0586.08594-.1328.01563-.10548.04687-.10546.04297-.1172.03125-.11718.02735-.26563.03125h-.14843l-.13281.01562-.07422.07422.05859.08594.14844.14843.11719.1797.07421.0703.08985.0625.08984.0586.08594.0586.08984.05858.10156.04297.10547.0625.10547.04297.08594.0586.10547.04687.10156.04297.17969.11719.0586.08984-.04298.10156-.04687.10547.01562.13281.22266.22266.0586.08985.04296.10156.03125.1211.04297.10155.01563.13282.03125.11718.01171.13672.03125.11719.14844.14844.10156.04297.10547.04296.1172.03125.1328.01563.13672.01563h.11719l.11719-.03125.08984-.0586.04297-.10547.04688-.10156.04296-.10547.03125-.11719.01172-.1328v-.14845l-.01172-.1328-.01562-.13282-.03125-.11719-.04297-.10547-.04688-.10547-.04296-.10156-.04297-.10547-.01563-.13281.01563-.13281.02734-.11719.03125-.11719.02735-.1211.04687-.10155.08984-.0586.08594-.0625.07422-.07422.08984-.05859.22266-.22266.0586-.08593.07421-.07422.11719-.17969.0586-.08594v-.14844l-.07423-.07421-.10156-.04688-.10547-.04297-.10156-.04297-.0586-.08984-.04687-.10547-.02734-.11719.08984-.05859.11719-.03125.10156-.04297.17969-.11719.14844-.14843.01172-.13282-.01172-.10546-.08985-.0586-.1328.01563h-.14845l-.1328.01562-.13282-.01562-.1211-.03125-.08593-.0586-.07422-.07422-.0586-.08984-.0625-.08594-.11718-.17969-.0586-.08593.03125-.1211.08594-.05859.1211-.03125.05859-.08594v-.1211l-.03125-.11718-.0586-.08984-.05859-.08594-.04687-.10547-.02735-.11719-.01562-.1328.0586-.08985.07421-.07422.08984-.0586.1172-.17968.07421-.07422.0586-.08594.14843-.14844.1211-.03125.1328-.01562.13282.01562.07422.07422.04297.10547.01562.13281-.03125.1172-.11719.03124-.1328.01172-.14844.14844-.04297.10547-.04688.10156-.02734.1211-.03125.11718v.14844l.03125.11719.04297.10546.05859.08985.07422.07031.07422.07422.11719.03125.12109.02734.11719-.02734.1328-.01563h.1172l.08984.0586.07422.07422.04687.10546.0586.08594.10156.04688.13281.01562.10547.04297.08594.0586-.01172.10546-.07422.07422-.17969.11719-.05859.08984-.08984.0586-.07032.07422-.07421.07421-.0625.08985-.02735.11719-.01562.1328.01562.13282-.01562.13281v.14844l.01562.13281.02735.1172.03125.12108.07421.07422.08985.0586.08594.0586.08984.05858.11719.03125v.08594l-.10157.04688-.08984.0586-.26563.03124-.11718.02735h-.14844l-.10547.04296-.10156.04688-.0586.08984-.0625.23438-.01171.13281-.03125.1211-.01563.1328v.29298l-.01172.1328.01172.13673.01563.1328.1328.01563.13282.01172.1211.03125.08593.0586.07422.07421.04688.10547.04296.10157.01563.1328v.44532l-.01563.13281v.44532l.03125.26562.02735.11719.01562.13281.03125.11719.08594.21094.03125.26562v.14844l-.03125.11719-.02734.11718-.03125.1211-.02735.11719-.03125.11718-.03125.1211-.01171.1328-.01563.13282.08984.0586.1172-.03125.10155.01562.04688.10547-.03125.26562v.44141l-.04297.10547-.04688.10547-.04296.10156-.04297.10547-.0586.08594-.03125.12109-.04296.11719-.03125.11719-.01563.1328.01563.13282.05859.08984.10547.04688.08594.0586.05859.08593-.01172.13672-.03125.11719-.04297.10156v.44531l-.01562.13281v.14844l-.03125.11719-.04297.10547-.02735.11719-.04687.10546-.04297.10157-.03125.12109-.02734.11719-.03125.13281-.03125.11719-.02735.11719-.04297.10546-.03125.1172-.03125.12108-.01171.13282-.01563.13281v.29688l.02734.11718v.14844l.04688.39844.02734.11719.0586.08984.12109.03125h.14844l.13281-.01563.0586.08985v.11719l-.0586.08984-.08984.0586-.10157.04296-.10546.04688-.08985.05859-.08594.0586-.13671.01562-.1172-.03125-.1328-.01563-.10157.04688-.0625.08594-.01172.13671-.01562.13282-.03125.11719-.02735.11718-.01562.13281-.03125.1211v.29687l.01563.13282.03125.11718v.14844l.01171.13281v.14844l-.02734.11719-.04688.10156-.02734.1211-.03125.11718-.0586.08985-.07421.07421-.10156.04297-.10547.04688-.11719.02734-.1211.03125-.10156-.04687.0586-.08594.10547-.04688.02734-.11718.03125-.11719.02734-.1211.03125-.11718v-.14844l.01563-.13281-.03125-.11719-.04297-.10547-.10547.01563-.07422.07422-.10156.04296-.08984.0625-.07422.07422-.04297.10157-.01563.1328-.03125.1172L304.25 426l-.03125.11719-.02734.11719-.03125.12109-.02735.11719-.03125.11718-.04297.10547-.08984.0586h-.08984l-.1172-.03125-.03124-.08594.01562-.13672-.03125-.11719v-.14844l-.01171-.1328v-.14844l-.0625-.23438-.02735-.1211-.04297-.10156-.04687-.10546-.0586-.08594-.05859-.08985-.04297-.10546-.0625-.08594-.14844-.14844-.0703-.07422-.10548-.04687-.10547-.04297-.10156-.04297-.29687-.29688-.08985-.07421-.08594-.0586-.10546-.04297-.08985-.0625-.08594-.0586-.10546-.04296-.08985-.0586-.08594-.0625-.07421-.0703-.10547-.04688-.08594-.0586-.10547-.04296-.08984-.0625-.10156-.04297-.10547-.04297-.08594-.0586-.10547-.04687-.10547-.04297-.10156-.04687-.08985-.0586-.10156-.04297-.10547-.04296-.08984-.0625-.11719-.02735-.13281-.01562-.13281.01562H299.75l-.13281.01563-.11719-.03125-.08984-.0586-.07422-.07422-.08985-.05859-.10156-.04688h-.14844l-.12109-.02734-.10156-.04297-.07422-.07422-.11719-.17968-.08984-.0586-.10156-.04297-.08985-.0625-.10547-.04296-.08984-.0586-.08594-.0586-.10547-.04687-.0586-.08594-.05858-.08984-.04297-.10547-.04688-.10156-.07422-.07422-.08594-.0586-.07421-.07421-.08985-.0586-.22265-.22265-.04297-.10547-.03125-.26563.10547-.04296h.14453l.10547.04296.07421.07422.08985.0586.08594.0586.10546.04687.08985.05859.14844.14844.0703.07422.14845.14843.0625.08594.07421.07422.08594.0586.07422.07421.08985.0625.08984.0586.08594.05859.26953.17578.10156.04688.10547.04296.10156.04297.04688-.07421.05859-.08594.07422-.07422.07031-.07422.10547.04297.07422.07422.0586.08984.04296.10156.04688.10547.04296.10547.1211.02735.11719-.02735.07421-.08984.04297-.10547.0586-.08985.07422-.07421.10546-.04297.1172-.02735.1328.01172.08985.0586.14844.14843.05859.08985.04297.10547.04687.10156.04297.10547.04297.10156.10547.04688.10547.04296.13281.01563.08594-.0586.0586-.08984.07421-.07422.10547-.04297.11719.02735.10547.04687.10156.04297.10547.04297.10156.04688.17969.11718v.11719l-.01563.13281.01563.13281.01562.13672.0586.08594.10156.04688.1211.02734.11718.03125h.14844l.11719-.03125.05859-.08984.17969-.1172.05859-.08983.07422-.07422.0586-.08594.11718-.17969.17969-.11719.11719.03125.08984.0586.04297.07422-.01563.1328v.1172l.08985.05859h.14843l.13282-.01563.1328-.01171.26563-.03125.10547-.04297.11719-.03125.1211-.02735.07421-.07421.07031-.07422.0625-.08985-.01562-.10547-.04688-.10156-.10156-.04297-.10547-.01562-.11718.02734-.26563.03125h-.14844l-.07421-.07422-.08985-.0586-.11719-.03124-.11718-.02735-.13282-.01562h-.14843l-.13282.01563h-.29687l-.10547-.04688-.14844-.14844-.04297-.10156-.05859-.08984.22266-.22266.08593-.0586.10547-.04296.11719-.03125.13281-.01563.13281.01563.13672.01562.10157.04297.1328-.01172.08985-.0625.10156-.04297.0625-.08984-.04687-.10156-.08984-.0586-.1172-.03125-.10155-.04296-.0586-.08985-.0625-.08984v-.11719l.01563-.13281.10547-.04688.07421-.07031v-.1211l-.08984-.05859-.03125-.11719.08985-.05859.07421-.07422.04297-.10547.0586-.08984.04687-.10156.01563-.13281v-.14844l-.04688-.10547-.04297-.10156-.08984-.0586-.13281-.01562-.10157-.04297-.13671-.01563-.1172-.03125h-.4453l-.13282-.01562-.13281-.01172-.13281-.01563-.11719-.03125h-.14844l-.13281-.01562-.13281-.01172-.26563-.03125-.1211-.04297-.08593-.0586-.07422-.07421v-.14844l.01172-.13281.10547-.04688.10156-.04296.13281-.01563h.15235l.13281-.01562h.29297l.1211.03125.10156.04296.08984.0586.23438.0625.12109-.04688.08984-.05859.10156-.04297.13282-.01562.10547.04296.10156.04688.13281.01172.1211-.02735h.14453l.12109-.03125.11719-.02734.10547-.04687.07421-.07422.08594-.0586.14844-.14843.0586-.08594.04687-.10547.02734-.11719.01563-.10547-.10156-.04296-.08985-.0586-.11719-.03125-.10546-.04297-.08985-.0625-.07422-.08594-.07422-.07421-.10156-.04297-.10547-.04688-.10156-.04297-.0586-.08984-.04687-.10156-.08594-.21094-.0625-.08594-.05859-.08984-.07422-.07422-.08594-.0586h-.26953l-.11719.03126-.08984.05859-.10156.04297-.13281.01562-.10547-.01562-.02735-.11719-.0625-.08984-.11718-.03125-.10157-.04297-.14843-.14844-.03125-.11719-.01563-.10546.07422-.07422.17969-.1172.11719-.02733.11718-.03125.13672.01562.10156.04297.10547.04297.10156.04687.10547.04297.1172.03125.1328.01563.1172.02734.1328.01563.10547-.01563.08985-.0586-.07422-.07421-.10547-.04297-.07422-.07422-.07422-.08984-.14844-.14844-.08593-.0586-.08985-.05859-.07422-.07422-.08984-.0586-.10156-.04687-.1211-.02734-.10156-.04688-.10547-.04296-.11719-.03125-.10156-.04297-.1211-.03125h-.14843l-.11719.03125-.10546.04297-.08594.0625-.17969.11718-.08594.0586-.08984.0586-.10547.04687-.08594.05859-.10547.04297-.10156.04297-.10547.04687-.07422.07422-.05859.08985-.0586.08593-.04687.10547-.0586.08594-.07421.07422-.13281-.01172-.1172-.03125h-.11718l-.07422.07422-.08984.0586-.07422.07421-.08984.0586-.08594.05859-.10547.04687-.10156.04297-.13672.01563-.10156-.04297-.14844-.14844-.10547-.04688h-.08594l-.10547.04688-.10156.04297-.1211.03125-.11718-.03125-.07422-.07422v-.11719l.03125-.1211.07422-.0703.0586-.08985.07421-.07422.11719-.03125.10547-.04296h.29297l.13281-.01563.13672-.01563.10156-.04296.08985-.0586.10156-.04687.08984-.0586.13281-.01171.08985.05859.13281.01172.08984-.0586.08594-.05859.10547-.04297.08984-.0586.08594-.0625.08985-.05859.14843-.14843.0586-.08594.05859-.08985.10547-.04296.13281-.01563.11719.02735.1211.03125.05859-.0586.05859-.08984.03125-.26563.02734-.11719.10547.01172.13281.01563.10157-.04297.08984-.0586.0586-.08984.07421-.07422.0586-.08984.04687-.10156.01172-.13281-.01172-.13282-.04687-.10547-.14844-.14843-.0586-.08985-.05859-.08594-.04297-.10546v-.44532l.01563-.1328v-.14845l.01172-.1328-.0586-.0586-.08984.0586-.10156-.04298-.17969-.11719-.08594-.05859-.0625-.08984-.0586-.08985-.07421-.07421-.08594-.0586-.1211.03125-.10155.01172-.10547.04688-.08594.05859-.10547.04297-.14844.14844-.08984.05859-.08594.0586-.08984.0625-.10547.04296-.13281.01563v-.1211l.10547-.04297.11718-.03125.07422-.0703.04297-.10548v-.14844l-.02734-.11718-.14844-.14844-.13281-.01563h-.14844l-.11719.03125-.10547.04297-.10156.04297-.08984.0625-.11719.02735-.07422-.07422.01172-.13281-.04297-.10157-.04297-.10547-.08984-.05859-.11719.02734-.1211.03125-.11718.03125-.10156.04297-.1211.03125-.10156.04297-.10547.04297-.08984.0586-.10156.01562v-.11719l.01562-.13281-.0586-.08985-.07421.04297-.14844.14844-.0586.08985-.07421.07421-.04688.10547-.04296.10156-.07422.07422-.0586.08985-.07422.07422-.05859.08593-.07422.07422-.08984.0625-.07422.07031-.07422.07422-.10156.01563-.13281.01562-.10547-.04296v-.1211l.14843-.14844.04297-.10156.0586-.08984.04687-.10156.04297-.10547.0586-.08985.03124-.11719.04297-.10156.03125-.1211.02735-.11718.04687-.10547.04297-.10156.04297-.10547.07422-.07031.08984-.0625.08985-.0586.10156-.04296h.29687l.26563-.03125.10547-.04297-.07422-.07422-.11719-.03125-.10547-.04297-.08984-.0586-.10156-.04687-.08985-.0586-.10156-.04296-.10547-.04297-.08984-.0625-.08594-.0586-.10547-.04296-.10156-.04297-.1211-.03125-.11718-.03125-.10157-.04297L297.5 410.25l-.10156-.04297-.08985-.0586-.04296-.10546-.01563-.13281.10156-.04297.13281-.01563.13672.01563.13282-.01563.10156-.04297.0586-.08984.01562-.10547-.08985-.0586-.07421-.07421-.10157-.04297-.08984-.0586-.14844-.14843-.04297-.10547-.01562-.13281v-.29297l-.0586-.08985-.08984-.05859-.07422-.07422-.04297-.10547-.03125-.11718-.0586-.08985-.07421-.07422-.11719-.02734-.07422-.07422-.08984-.0586-.08984-.0625-.08594-.05859-.07422-.07421-.0586-.08594-.04687-.10547-.08594-.0586-.14843-.14843-.19532-.0586-.1328.01563-.10157.04297-.07422.07422-.04688.10156-.04296.10547-.0586.08984-.0586.08594-.29687.29687-.08984.0586h-.08594l-.0625-.08594-.04297-.10547.03125-.11719.0586-.08984.02734-.11719-.01172-.13281-.08984-.0625-.10547.04688-.11719.02734-.11719.03125-.26953.17578-.10156.04688-.11719.02734-.10546.04687-.08985.0586-.10156.04297-.0586-.08594-.04687-.10547.01563-.13281.04687-.10547.07031-.07422.07422-.07031.0586-.08985v-.14843l-.04297-.10547h-.23829l-.10156.04687-.03125.11719-.02734.11719-.03125.1211-.07422.04296-.13281.01563-.07422-.04688-.04297-.10156-.04297-.10547-.04687-.10156-.04297-.10547-.1211.03125-.10156.04297-.13281.01562-.11719.03125-.10547.04297-.08984.0586-.10156.04687-.1211.02734-.13281.01563-.10156-.04297-.0586-.08985-.04687-.10546-.04297-.10157-.04297-.10546v-.1172l.0586-.08984.08593-.05859.17969-.11719.10156-.04687.10547-.04297.10547-.0586.10156-.04296.08985-.0625.10156-.04297.10547-.0586.10156-.04687.08984-.0586.10547-.04296.10156-.04297.08985-.0625.10156-.04297.13672-.01563.11719.03125.10156.04297.1211.03125.10156.04297.10546.04688.10157.04296.10547.04297.10156.04688.10547.04297.10156.04297.10547.04687.08594.0586.10546.04296.1172.03125.10546.04297.10156.04688.08985.0586.10547.04296.10156.04297.10547.04687.11719.02735.10156.04687.1211.02735h.14843l.08594-.0586.01562-.10156.0586-.08984-.02735-.1172-.07422-.07421-.11719-.17969-.07421-.07422-.08985-.07421-.17969-.1172-.08593-.05859-.10547-.04296-.10156-.04688-.26954-.17578-.05859-.08985-.07422-.07421-.0586-.08985-.04296-.10156-.03125-.11719-.01563-.13672v-.5625l-.01171-.1328-.01563-.13282-.03125-.11719-.01562-.13281-.01172-.13281-.03125-.1211-.22266-.22265-.0586-.08594-.01562-.10547.03125-.11719.13281-.01562v-91.41406H172.9922v1.45312l-.0586.23438-.35156 1.05078-.17187.52343-.1172.34766-.17577.41016-.11719.17187-.23438.29297-.23046.0586h-.35157l-.11718.05859-.23047.40625v.29297l.11719.17578.23046.23047.1172.23437.64062.75781.29297.46485.17578.23437.23047.35156.23437.34766.64063.8164.17578.46485.17187.41016.11719.69531.17578.46875.11719 1.39844.0586.46484v.875l.11718 1.04688v4.78125l-.0586.46484-.35156 1.28125-.17578.52344-.11328.41015-.35156.9297L172.93359 336l-.23437.58203-.11719.17578-.17187.34766-.17578.40625-.35157.8164-.0586.29297-.11327.29297-.11719.28906-.0586.17579-.11718.875-.0586.40625-.05859.11718-.0586.17579-.05859.17187-.23047.52734-.11718.17188v.23437l-.11719.23438-.0586.17187-.17577.58594v.28906l-.0586.17579v.29296l-.0586.11329-.05859.52734v.17187l-.05468.23438v2.6211l-.17578.8164-.1172.17578-.17577.23438-.1172.17187-.11327.23438-.58594.93359-.23047.28906-.29297.46485-.17578.23437-.28906.35156-.35156.69922-.11328.23047-.17579.41016-.17578.23046-.40625.52735-.8164.69922-.29297.17187-.28906.23438-.17579.11719-.17578.17578-.52344.40625-.52734.17578-.17187.17578-.23438.05469-.64062.17578h-.75782m12.21094 31.02344l-1.07422.44921.35938.89454 1.25-.71485.44531-.53906-.98047-.08985"/><path fill="#d3d3d3" fill-opacity="0" fill-rule="evenodd" d="M201.50781 416.59766h-.89453l.44922.6289.98047.35938.80469-.08985.4453-.98828-.17577.08985-.71485-.35547-.89453.35547m154.6211 59.0703l-.0586-.52343v-.29297l.11328-.29297.0586-.23046.46875-.46875h.11328l.11719-.11329.11718-.05859h.17579l.23437-.0586h.34766l.23437.0586.11719.0586.23047.17187.0586.17578.11718.58203v.29297l-.11719.17578-.17187.28906-.17579.17579-.52734.52343-.23047.23438-.11719.0586h-.17578l-.11718-.0586-.40625-.29297-.17579-.11719-.11718-.0586-.0586-.11327-.05468-.1172m6.64062-10.95702l-.0586-.17188v-1.10937l.0586-.17188.17578-.0586.17188-.05858h.17578l.23437-.0586.1172.0586.05858.69921-.05859.17188-.11719.17578-.11718.0586-.23438.52343-.11328.0586h-.23438l-.05859-.1172m9.61328-14.39062l-.11719-.17578v-.69922l.29297-.875.1172-.17187.17577-.35156.11328-.23047.1172-.29297.35155-.75781.1172-.23047.17187-.23438h.17578l.11719-.0586h.64062l.11719.0586.23437.23438.17188.11328.35156.29297.11719.11718.11328.17579v.11328l.11719.05859.11718.11719v.69922l-.05859.17578v.23047l-.0586.17578-.34765 1.05078-.11719.23047-.11719.23437-.11718.0586-.23047.23437-.64063.28906h-.875l-.41015-.11718-.64063-.46485"/><path fill="none" stroke="#bebebe" stroke-linecap="round" stroke-linejoin="round" stroke-miterlimit="10" stroke-width=".5" d="M467.95703 311.69531H144.02734v168.625h323.9297v-168.625"/><g clip-path="url(#a)"><path fill="#fff" fill-opacity="0" fill-rule="evenodd" d="M144 475.89063v4.4375h.0039H144V311.67188h.0039H144v164.21875"/></g><g clip-path="url(#b)"><path fill="#fff" fill-opacity="0" fill-rule="evenodd" d="M144.0039 480.32813V311.67188h26.625v113.67187l-4.4375.29688-2.0625 1.42968-2.375.48047-3.69921 3.95703.26172 4.4375-.28125 4.4375-.11328 4.4375-.125 4.4414.0664 4.4375-.00781 4.4375 2.42578 4.4375 1.47266 1.28126 1.36328-1.28125 3.07422-1.3086 4.4375.01172 4.4375-.44921 4.4414-1.19922 4.4375.26171 4.4375-.09765 4.4375 1.53125 4.4414-1.83594 4.4375-1.20703 4.4375.53125 1.97267-.67578 1.1875-4.4375-.89454-4.4375-2.26562-.95313-4.4375-1.4453-4.4375-1.13673-1.60156-.90625 1.60156-4.26953.08203-.16797-.08203-.13672-.08984.13672-4.35157 2.32422-4.4375-1.54297-.6875-.78125-3.75-3.60547-1.20703-.83203 1.20703-4.23828.03906-.19922-.03906-.02734-4.4375-.69531-4.28906-3.71485-.15234-.07812-4.4375-1.64844V311.67187h35.5078V417.1211l-1.59765 1.07032-2.83984 1.83593-4.4375 1.38282-1.77344 1.21875-.97266 4.4414.61329 4.4375 2.1328 2.5664 4.4375.46095 4.4375.69921 4.4375.54688 4.44142-.9375v24.8086l-1.76563 2.92187 1.76563 1.6289 1.76562-1.6289-1.76563-2.92188v-24.80859l4.4375-1.66797 4.4375.04688v24.91406l-.80859 4.4375.8086.70312 4.4375.9297 1.73046-1.63282-1.73047-3.16797-4.4375-1.26953v-24.91406l2.61329-1.71485-2.61328-2.3711-4.4375-1.4453-.27344-.6211-3.85547-4.4414-.3086-.47266-4.4414-2.34766-3.14063-1.61718-1.29687-1.07032V311.67188h22.1914v110.60156l-.3828.35547.3828.36328.70313-.36328-.70313-.35547V311.67188h4.4375v120.67578l-3.86718 3.59765 3.86719 2.95703 2.79296-2.95703-2.79297-3.59765V311.67187h8.87891v125.35938l-4.29687 3.35156 4.29687 3.29297 4.4375-1.98828 1.27344-1.30469-1.27344-1.32422-4.4375-2.02734V311.67187h146.46484v145.73438l-3.0078.73047-1.4297.21484-4.4375 1.3164-2.0039 2.90626 2.0039 1.85156 4.4375 2.09375.4961.4961 3.9414 3.80078 4.23438-3.80079.03516-4.4414-3.21094-4.4375-1.0586-.73047V311.67187h79.88672v168.65625h-75.08203l-.36719-.37109-.53906.3711h-248.0039"/></g><path fill="#50fcfc" fill-rule="evenodd" d="M157.86328 453.69922l-.0664-4.4375.125-4.4414.11328-4.4375.28125-4.4375-.26172-4.4375 3.69922-3.95704v1.32813l-2.45703 2.6289.89453 4.4375-.6211 4.4375-.1211 4.4375-.08593 4.4414-.17969 4.4375.32813 4.4375 2.24219 2.80079 4.4375-2.42188 4.4375.41797 3.08984-.79687 1.34766-.48047 4.4414-2.32422 4.4375.74219 4.4375-2 .63672-.375-.63672-.70703-3.45703-3.73047-.98047-1.28906-1.80469-3.15235-2.6328-2.0039-2.87891-2.4336-1.5625-1.30078-4.4375-1.29687-4.4375-.5547-1.26953-1.28515 1.26953-3.63281 4.4375 1.80469 3.99218-2.60938-3.99218-2.5-4.4375 2.0664-4.4375-2.1953v-1.32813l2.375-.48047 2.0625-1.42969 4.4375-.29687 4.4375 1.64844.15234.07812 4.28906 3.71485 4.4375.6953.03906.02735-.03906.19922-1.20703 4.23828 1.20703.83203 3.75 3.60547.6875.78125 4.4375 1.54297 4.35156-2.32422.08985-.13672.08203.13672-.08203.16797-1.60156 4.26953 1.60156.90625 4.4375 1.13672v6.07422l-1.76563.76172 1.76563 4.2539.91406-4.2539-.91406-.76172v-6.07422l4.4375 1.44531 2.26562.95313.89453 4.4375-1.1875 4.4375-1.97265.67578-4.4375-.53125-4.4375 1.20703-4.4414 1.83594-4.4375-1.53125-4.4375.09765-4.4375-.26171-4.44141 1.19921-4.4375.44922-4.4375-.01171-3.07422 1.30859-1.36328 1.28125-1.47266-1.28125-2.42578-4.4375.00781-4.4375"/><path fill="#00e8fc" fill-rule="evenodd" d="M159.51172 458.13672l-.32813-4.4375.1797-4.4375.08593-4.4414.1211-4.4375.62109-4.4375-.89453-4.4375 2.45703-2.62891v2.21484l-.38672.41406.38672 1.20313v18.02734l-.375 2.96094.375 2.09375.7539-2.09375-.7539-2.96094v-18.02734l.72265-1.20313-.72265-.41406v-2.21484l4.4375 2.1953 4.4375-2.0664 3.99218 2.5-3.99218 2.60938-4.4375-1.80469-1.26953 3.63281 1.26953 1.28516 4.4375.55469 4.4375 1.29687 1.5625 1.30078 2.8789 2.4336 2.63281 2.0039 1.8047 3.15235.98046 1.28906 3.45703 3.73047.63672.70703-.63672.375-4.4375 2-4.4375-.74219-4.4414 2.32422-1.34766.48047-3.08984.79687-4.4375-.41796-4.4375 2.42187-2.2422-2.80078"/><path fill="#00d4fc" fill-rule="evenodd" d="M161.7539 432.71094l-.38671-1.20313.38672-.41406.72265.41406-.72265 1.20313m0 23.08203l-.375-2.09375.375-2.96094.7539 2.96094-.7539 2.09375"/><path fill="#50fcfc" fill-rule="evenodd" d="M195.1289 431.50781l-.61327-4.4375.97265-4.4414 1.77344-1.21875 4.4375-1.38282 2.83984-1.83593 1.59766-1.07032 1.29687 1.07032 3.14063 1.61718v6.9336l-.45703.32812.45703.1289.27344-.1289-.27344-.32812v-6.9336l4.4414 2.34766.3086.47266 3.85547 4.4414.27344.6211 4.4375 1.4453 2.61328 2.3711-2.61328 1.71485-4.4375-.04688-4.4375 1.66797-4.44141.9375-4.4375-.54688-4.4375-.69921-4.4375-.46094-2.13281-2.5664"/><path fill="#fff" fill-opacity="0" fill-rule="evenodd" d="M201.69922 452.9375l-1.76563.76172 1.76563 4.2539.91406-4.2539-.91406-.76172"/><path fill="#00e8fc" fill-rule="evenodd" d="M210.57422 427.19922l-.45703-.1289.45703-.32813.27344.32812-.27344.1289"/><path fill="#50fcfc" fill-rule="evenodd" d="M215.01563 464.20313l-1.76563-1.62891 1.76563-2.92188 1.76562 2.92188-1.76563 1.6289m8.875-.92578l-.80859-.70312.8086-4.4375 4.4375 1.26953 1.73046 3.16797-1.73047 1.63281-4.4375-.92969m4.4375-40.28515l-.3828-.36328.3828-.35547.70313.35547-.70313.36328m4.4375 15.91015l-3.86718-2.95703 3.86719-3.59765 2.79296 3.59765-2.79297 2.95703m8.87891 4.77344l-4.29687-3.29297 4.29687-3.35156v1.98828l-1.75 1.36328 1.75 1.33985 2.13281-1.33985-2.1328-1.36328v-1.98828l4.4375 2.02734 1.27343 1.32422-1.27344 1.30469-4.4375 1.98828"/><path fill="#00e8fc" fill-rule="evenodd" d="M241.64453 441.72266l-1.75-1.33985 1.75-1.36328 2.13281 1.36328-2.1328 1.33985"/><path fill="#50fcfc" fill-rule="evenodd" d="M379.23438 464.42578l-2.00391-1.85156 2.0039-2.90625 4.4375-1.3164 1.4297-.21485 3.0078-.73047v2.44531l-3.89453 2.72266 3.89454 3.88672 2.52734-3.88672-2.52735-2.72266v-2.44531l1.0586.73047 3.21094 4.4375-.03516 4.4414-4.23438 3.80079-3.9414-3.80079-.4961-.49609-4.4375-2.09375"/><path fill="#00e8fc" fill-rule="evenodd" d="M388.10938 466.46094l-3.89454-3.88672 3.89454-2.72266 2.52734 2.72266-2.52735 3.88672"/><g clip-path="url(#c)"><path fill="#50fcfc" fill-rule="evenodd" d="M392.00781 480.32813l.53906-.3711.3672.3711h-.90626"/></g><g clip-path="url(#d)"><path fill="#fff" fill-opacity="0" fill-rule="evenodd" d="M467.9961 480.32813H468V311.67188h-.0039H468v168.65625h-.0039"/></g><path fill="#fff" fill-opacity="0" fill-rule="evenodd" d="M195.65234 465.39844l5.53125-1.88672-3.21875-9.42578-5.53125 1.88672 3.21875 9.42578"/><path fill-rule="evenodd" d="M196.33984 456.57813l.48047-.16407 2.03516 5.95703-.7461.25391-1.44921-4.25-1.31641.44922-.17969-.52735.51172-.24218.21875-.13281.1914-.15625.14454-.19922.09766-.25782.03906-.32421-.02735-.40625"/><g clip-path="url(#e)"><path fill="none" stroke="#000" stroke-linecap="round" stroke-linejoin="round" stroke-miterlimit="10" stroke-width=".5" d="M147.1875 481.80469l-6.375-2.95313"/></g><g clip-path="url(#f)"><path fill="none" stroke="#000" stroke-linecap="round" stroke-linejoin="round" stroke-miterlimit="10" stroke-width=".5" d="M160.1914 482.34375l-5.7539-4.03125"/></g><g clip-path="url(#g)"><path fill="none" stroke="#000" stroke-linecap="round" stroke-linejoin="round" stroke-miterlimit="10" stroke-width=".5" d="M173.85547 481.72266l-6.45313-2.78516"/></g><g clip-path="url(#h)"><path fill="none" stroke="#000" stroke-linecap="round" stroke-linejoin="round" stroke-miterlimit="10" stroke-width=".5" d="M187.42188 480.84766l-6.95313-1.03907"/></g><g clip-path="url(#i)"><path fill="none" stroke="#000" stroke-linecap="round" stroke-linejoin="round" stroke-miterlimit="10" stroke-width=".5" d="M186.41016 480.69531l.41015 1.16016"/></g><g clip-path="url(#j)"><path fill="none" stroke="#000" stroke-linecap="round" stroke-linejoin="round" stroke-miterlimit="10" stroke-width=".5" d="M200.76953 480.16797l-7.01953.32031"/></g><g clip-path="url(#k)"><path fill="none" stroke="#000" stroke-linecap="round" stroke-linejoin="round" stroke-miterlimit="10" stroke-width=".5" d="M199.75 480.21484l.625 1.0586"/></g><g clip-path="url(#l)"><path fill="none" stroke="#000" stroke-linecap="round" stroke-linejoin="round" stroke-miterlimit="10" stroke-width=".5" d="M213.92188 479.25781l-6.69532 2.14063"/></g><g clip-path="url(#m)"><path fill="none" stroke="#000" stroke-linecap="round" stroke-linejoin="round" stroke-miterlimit="10" stroke-width=".5" d="M212.94922 479.57031l.8789.85547"/></g><g clip-path="url(#n)"><path fill="none" stroke="#000" stroke-linecap="round" stroke-linejoin="round" stroke-miterlimit="10" stroke-width=".5" d="M226.94531 478.58984l-6.10937 3.47657"/></g><g clip-path="url(#o)"><path fill="none" stroke="#000" stroke-linecap="round" stroke-linejoin="round" stroke-miterlimit="10" stroke-width=".5" d="M226.94531 478.58984l2.07031 1.3125"/></g><g clip-path="url(#p)"><path fill="none" stroke="#000" stroke-linecap="round" stroke-linejoin="round" stroke-miterlimit="10" stroke-width=".5" d="M239.8711 478.03906l-5.33204 4.57813"/></g><path fill="none" stroke="#000" stroke-linecap="round" stroke-linejoin="round" stroke-miterlimit="10" stroke-width=".5" d="M239.8711 478.03906l2.28515.89453"/><g clip-path="url(#q)"><path fill="none" stroke="#000" stroke-linecap="round" stroke-linejoin="round" stroke-miterlimit="10" stroke-width=".5" d="M253.04297 477.88281L248 482.77734"/></g><path fill="none" stroke="#000" stroke-linecap="round" stroke-linejoin="round" stroke-miterlimit="10" stroke-width=".5" d="M253.04297 477.88281l2.33594.75"/><g clip-path="url(#r)"><path fill="none" stroke="#000" stroke-linecap="round" stroke-linejoin="round" stroke-miterlimit="10" stroke-width=".5" d="M266 477.5625l-4.32813 5.53125"/></g><path fill="none" stroke="#000" stroke-linecap="round" stroke-linejoin="round" stroke-miterlimit="10" stroke-width=".5" d="M266 477.5625l2.41797.42578"/><g clip-path="url(#s)"><path fill="none" stroke="#000" stroke-linecap="round" stroke-linejoin="round" stroke-miterlimit="10" stroke-width=".5" d="M279.45313 477.67578l-4.60547 5.30469"/></g><path fill="none" stroke="#000" stroke-linecap="round" stroke-linejoin="round" stroke-miterlimit="10" stroke-width=".5" d="M279.45313 477.67578l2.39062.55078"/><g clip-path="url(#t)"><path fill="none" stroke="#000" stroke-linecap="round" stroke-linejoin="round" stroke-miterlimit="10" stroke-width=".5" d="M292.44922 477.42578l-3.96485 5.80469"/></g><path fill="none" stroke="#000" stroke-linecap="round" stroke-linejoin="round" stroke-miterlimit="10" stroke-width=".5" d="M292.44922 477.42578l2.4375.27344"/><g clip-path="url(#u)"><path fill="none" stroke="#000" stroke-linecap="round" stroke-linejoin="round" stroke-miterlimit="10" stroke-width=".5" d="M305.17578 477.10547l-2.78906 6.44922"/></g><path fill="none" stroke="#000" stroke-linecap="round" stroke-linejoin="round" stroke-miterlimit="10" stroke-width=".5" d="M305.17578 477.10547l2.44531-.19922"/><g clip-path="url(#v)"><path fill="none" stroke="#000" stroke-linecap="round" stroke-linejoin="round" stroke-miterlimit="10" stroke-width=".5" d="M318.54297 477.125l-2.89453 6.40625"/></g><path fill="none" stroke="#000" stroke-linecap="round" stroke-linejoin="round" stroke-miterlimit="10" stroke-width=".5" d="M318.54297 477.125l2.44922-.15625"/><g clip-path="url(#w)"><path fill="none" stroke="#000" stroke-linecap="round" stroke-linejoin="round" stroke-miterlimit="10" stroke-width=".5" d="M332.19531 477.30078l-3.5664 6.05469"/></g><path fill="none" stroke="#000" stroke-linecap="round" stroke-linejoin="round" stroke-miterlimit="10" stroke-width=".5" d="M331.67578 478.1836l1.22656.05077"/><g clip-path="url(#x)"><path fill="none" stroke="#000" stroke-linecap="round" stroke-linejoin="round" stroke-miterlimit="10" stroke-width=".5" d="M345.33594 477.20703l-3.21875 6.2461"/></g><path fill="none" stroke="#000" stroke-linecap="round" stroke-linejoin="round" stroke-miterlimit="10" stroke-width=".5" d="M344.86719 478.11328l1.22656-.01562"/><g clip-path="url(#y)"><path fill="none" stroke="#000" stroke-linecap="round" stroke-linejoin="round" stroke-miterlimit="10" stroke-width=".5" d="M357.0586 476.8164l-.03516 7.02735"/></g><path fill="none" stroke="#000" stroke-linecap="round" stroke-linejoin="round" stroke-miterlimit="10" stroke-width=".5" d="M357.05078 477.83594l1.08594-.57031"/><g clip-path="url(#z)"><path fill="none" stroke="#000" stroke-linecap="round" stroke-linejoin="round" stroke-miterlimit="10" stroke-width=".5" d="M369.00781 477.08594l2.69922 6.48828"/></g><path fill="none" stroke="#000" stroke-linecap="round" stroke-linejoin="round" stroke-miterlimit="10" stroke-width=".5" d="M369.39844 478.02734l.78125-.9453"/><g clip-path="url(#A)"><path fill="none" stroke="#000" stroke-linecap="round" stroke-linejoin="round" stroke-miterlimit="10" stroke-width=".5" d="M381.10156 477.9336l5.14063 4.78906"/></g><g clip-path="url(#B)"><path fill="none" stroke="#000" stroke-linecap="round" stroke-linejoin="round" stroke-miterlimit="10" stroke-width=".5" d="M397.41406 476.83984l-.85547 6.97657"/></g><path fill="none" stroke="#000" stroke-linecap="round" stroke-linejoin="round" stroke-miterlimit="10" stroke-width=".5" d="M397.28906 477.85547l1.14453-.4375"/><g clip-path="url(#C)"><path fill="none" stroke="#000" stroke-linecap="round" stroke-linejoin="round" stroke-miterlimit="10" stroke-width=".5" d="M411.41016 476.9961l-2.21875 6.66796"/></g><path fill="none" stroke="#000" stroke-linecap="round" stroke-linejoin="round" stroke-miterlimit="10" stroke-width=".5" d="M411.08594 477.96484l1.21094-.20312"/><g clip-path="url(#D)"><path fill="none" stroke="#000" stroke-linecap="round" stroke-linejoin="round" stroke-miterlimit="10" stroke-width=".5" d="M425.33984 477.26953l-3.44921 6.1211"/></g><path fill="none" stroke="#000" stroke-linecap="round" stroke-linejoin="round" stroke-miterlimit="10" stroke-width=".5" d="M424.83984 478.16016l1.22657.02734"/><g clip-path="url(#E)"><path fill="none" stroke="#000" stroke-linecap="round" stroke-linejoin="round" stroke-miterlimit="10" stroke-width=".5" d="M438.5586 477.21484l-3.25391 6.23047"/></g><path fill="none" stroke="#000" stroke-linecap="round" stroke-linejoin="round" stroke-miterlimit="10" stroke-width=".5" d="M438.08594 478.1211l1.22656-.01173"/><g clip-path="url(#F)"><path fill="none" stroke="#000" stroke-linecap="round" stroke-linejoin="round" stroke-miterlimit="10" stroke-width=".5" d="M450.35547 476.8164l-.21875 7.02344"/></g><path fill="none" stroke="#000" stroke-linecap="round" stroke-linejoin="round" stroke-miterlimit="10" stroke-width=".5" d="M450.32422 477.83984l1.10156-.54297"/><g clip-path="url(#G)"><path fill="none" stroke="#000" stroke-linecap="round" stroke-linejoin="round" stroke-miterlimit="10" stroke-width=".5" d="M461.82813 477.27344l3.46875 6.10937"/></g><path fill="none" stroke="#000" stroke-linecap="round" stroke-linejoin="round" stroke-miterlimit="10" stroke-width=".5" d="M462.33203 478.16406l.65625-1.03906"/><g clip-path="url(#H)"><path fill="none" stroke="#000" stroke-linecap="round" stroke-linejoin="round" stroke-miterlimit="10" stroke-width=".5" d="M147.48828 467.4336l-6.97656-.83985"/></g><path fill="none" stroke="#000" stroke-linecap="round" stroke-linejoin="round" stroke-miterlimit="10" stroke-width=".5" d="M147.48828 467.4336l.88672 2.28515m12.3164-1.73828l-6.7539-1.9336m6.7539 1.9336l.51173 2.40234m12.6875-2.0625l-6.52344-2.61328m6.52344 2.61328l.26562 2.4414m13.30078-3.70702l-7.02344-.08203m7.02344.08203l1.1289 2.17968m11.96095-3.45703l-6.57422 2.47266m6.57422-2.47266l1.84375 1.6211m11.21484-2.16407l-6.0586 3.5586m6.0586-3.5586l2.08984 1.28516m11.07813-1.51172l-5.76953 4.01172m5.76953-4.01172l2.1836 1.1211m10.6875-1.64453l-4.87892 5.05859m4.87891-5.0586l2.35938.67579m10.93359-.69532l-4.83594 5.09766m4.83594-5.09766l2.36719.65625m10.60547-.9453l-4.14844 5.67577m4.14844-5.67578l2.42968.35156m11.0547-.21875l-4.48829 5.41016m4.48828-5.41016l2.40235.5m-3.0547.28907l1.19923.24609m12.78906-1.01953l-4.52734 5.3789m4.52734-5.3789l2.39844.51562m-3.0586.26953l1.19922.25782m12.77344-1.04297l-4.52344 5.3789m4.52344-5.3789l2.39844.51562m-3.0547.26953l2.39845.51172m11.6328-1.24218l-4.64452 5.26953m4.64453-5.26953l2.38672.5664m-3.0625.19922l1.19531.28516m12.85547-1l-4.76172 5.16797m4.76172-5.16797l2.3711.6211m-3.06641.1328l1.1875.3086m12.53906-1.29688l-4.19531 5.63672m4.1953-5.63672l2.42579.36719m-3.03516.45312l1.21094.1836m12.53906-1.125l-3.84765 5.8789m3.84765-5.8789l2.44532.22265m-3.00391.63282l1.22266.11328m11.6289-1.42578l-1.80468 6.79297m1.80468-6.79297l2.39063-.5586m10.83594.53907l-1.62891 6.83203m1.39453-5.83985l1.1875-.30859m13.27344-.32813l-3.44922 6.1211m2.94922-5.23047l1.22656.03125m12.85938-.7539l-3.9922 5.78515m3.41016-4.9414l1.21875.14062m13.15235-.59375l-4.9375 5.0039m4.21875-4.27343l1.17578.34765m12.42187-1.4414l-4.0664 5.73047m3.47656-4.89844l1.21484.16015m11.19141-1.59765l-1.07031 6.9414m1.07031-6.9414l2.32031-.8086m11.17188.83985l-1.42578 6.8789m1.21875-5.8789l1.17968-.34375"/><g clip-path="url(#I)"><path fill="none" stroke="#000" stroke-linecap="round" stroke-linejoin="round" stroke-miterlimit="10" stroke-width=".5" d="M147.39453 454.60156l-6.78906-1.80469"/></g><path fill="none" stroke="#000" stroke-linecap="round" stroke-linejoin="round" stroke-miterlimit="10" stroke-width=".5" d="M147.39453 454.60156l.5586 2.38672m12.6914-2.16015l-6.65625-2.25782m6.65625 2.25781l.39453 2.42188m13.09766-3.3086l-7.01172-.48437m7.01172.48438l.9961 2.24218m12.23827-3.2578l-6.85547 1.54296m5.85938-1.3164l.80078.92968m13.38672-1.57812l-6.60547 2.39062m6.60547-2.39062l1.82031 1.64453m11.36328-1.96485l-6.33984 3.02735m6.33984-3.02735l1.97266 1.46094m10.84375-2.22656l-5.34375 4.5625m5.34375-4.5625l2.28125.89844m10.78125-1.16407l-4.83984 5.09375m4.83984-5.09375l2.36328.65625m-3.0664.08203l1.17968.32813m12.96485-.94531l-5.08985 4.84765m5.08985-4.84765l2.32812.77734m-3.07031-.07031l1.16406.38672m12.91016-1.07422l-5.125 4.8086m5.125-4.8086l2.32031.79297m-3.0664-.09375l1.16015.39843m12.86328-1.1328l-5.05078 4.8828m5.05078-4.8828l2.33594.7578m-3.07031-.04687l1.16797.3789m12.73046-1.23828l-4.74609 5.1797m4.7461-5.1797l2.375.61329m-3.06641.14062l2.375.61328m11.77344-1.23047l-5.03125 4.90625m5.03125-4.90625l2.33593.7461m-3.07031-.03125l2.33984.7461m11.73829-1.4297l-5.08985 4.84375m5.08985-4.84375l2.32812.77344m-3.07031-.07031l2.32812.77344m11.86328-1.32813l-5.35937 4.54688m5.35937-4.54688l2.28125.90625m-3.0625-.2461l2.28125.90626m11.61329-1.78907l-4.95313 4.98829m4.95313-4.98829l2.34765.71094m-3.07031.01563l2.35156.71093m11.5-1.60546l-4.58203 5.32812m4.58203-5.32812l2.39453.53906m-3.0625.23437l1.19922.26953m12.19531-1.45312l-3.40625 6.14453m3.40625-6.14453l2.45313.04297m-2.94922.85156l1.22656.02344m12.5039-.96094l-3.24218 6.23438m3.24219-6.23438l2.45312-.02344m11.625.5586l-4.76953 5.16406m4.07422-4.41406l1.1875.3125m13.20313-.64844l-5.53125 4.33594m4.72656-3.70313l1.1211.4961m13.3125-.65235l-6.15626 3.38281m5.26172-2.89062l1.02344.67187m12.5664-1.98046l-4.91796 5.01562m4.20312-4.28516l1.17578.34375m11.25-1.97265l-1.71094 6.8125m1.46485-5.82422l1.1875-.29297m12.28906-.71875l-1.54297 6.85547m1.32031-5.85547l1.1836-.32422"/><g clip-path="url(#J)"><path fill="none" stroke="#000" stroke-linecap="round" stroke-linejoin="round" stroke-miterlimit="10" stroke-width=".5" d="M147.1875 441.86328l-6.375-2.96094"/></g><path fill="none" stroke="#000" stroke-linecap="round" stroke-linejoin="round" stroke-miterlimit="10" stroke-width=".5" d="M147.1875 441.86328l.1289 2.44922m13.29298-2.71094l-6.58985-2.4336m5.63281 2.07813l.16407 1.21485m14.28125-1.5l-6.9336-1.15235m6.9336 1.15235l.78125 2.32422m12.57812-2.87891l-7.02344-.04688m7.02344.04688l1.14063 2.17578m12.10156-2.91406l-6.8789 1.4336m6.8789-1.4336l1.57031 1.88672m11.46875-2.69532l-6.32812 3.05079m6.32812-3.05079l1.98047 1.44922m10.83984-2.21484l-5.33593 4.57812m5.33593-4.57812l2.28516.89453m10.44531-1.4336l-4.16797 5.65626m4.16797-5.65625l2.42969.35937m10.80469-.41797l-4.0039 5.77735m4.0039-5.77735l2.4336.28516m11.23046-.00781l-4.70313 5.21875m4.70313-5.21875l2.38281.59765m10.55469-.89453l-3.94922 5.8125m3.94922-5.8125l2.4375.26172m11.26172.03906l-4.71485 5.21094m4.71485-5.21094l2.3789.59766m-3.0664.16016l1.1914.30078m13.30079-.51172l-5.69532 4.11719m5.69532-4.1172l2.20312 1.08204m-3.03125-.48047l2.20313 1.07813m11.97265-1.63282l-5.76172 4.02344m5.76172-4.02344l2.1836 1.1172m-3.02344-.53126l2.1875 1.11719m11.83594-1.8789l-5.4961 4.3789m5.4961-4.3789l2.25.97656m-3.05079-.33985l1.125.48828m12.72266-1.42578l-4.96094 4.97656m4.96094-4.97656l2.34766.71094m-3.07031.01172l2.34765.71484m11.1836-1.85547l-3.94922 5.8125m3.94921-5.8125l2.44141.26953m11.07031-.125l-4.34375 5.52344m4.34375-5.52344l2.41407.4336m-3.04688.3711l1.21094.21484m13.9414.77343l-6.7539 1.9414m5.77344-1.66015l.85156.88281m13.22265-1.74218l-6.30859 3.09375m6.3086-3.09375l1.98828 1.4375m11.49609-1.03125l-6.64453 2.28515m6.64453-2.28515l1.79297 1.67187m11.6875-.94531l-6.97656.83203m6.97656-.83203l1.39844 2.01562m11.76562-2.6953l-6.67578 2.1914m6.67578-2.1914l1.76953 1.69921m10.33203-3.40234l-4.25 5.59765m4.25-5.59765l2.42188.39062m11.03515-.27734l-4.53515 5.36719"/><g clip-path="url(#K)"><path fill="none" stroke="#000" stroke-linecap="round" stroke-linejoin="round" stroke-miterlimit="10" stroke-width=".5" d="M465.82813 437.69922l2.39843.51953"/></g><g clip-path="url(#L)"><path fill="none" stroke="#000" stroke-linecap="round" stroke-linejoin="round" stroke-miterlimit="10" stroke-width=".5" d="M147.42578 427.84375l-6.85156-1.55078"/></g><path fill="none" stroke="#000" stroke-linecap="round" stroke-linejoin="round" stroke-miterlimit="10" stroke-width=".5" d="M147.42578 427.84375l.64453 2.36719m12.72656-2.66797l-6.96484-.94922m6.96484.94922l.84766 2.30469m12.42188-2.0547l-6.875-1.44921m6.875 1.44922l.67968 2.35937m12.70313-3.36328l-7.00781.5586m7.0078-.5586l1.32032 2.07031m11.7539-3.09765L194 428.375m5.57422-2.23047l.9375.78906m13.42969-.875l-6.73047 2.01954m5.75-1.72657l.86328.8711m12.6875-2.4922l-5.24219 4.67579m4.48047-3.9961l1.15234.42579m13.16407-.8086l-5.71875 4.08204m4.88672-3.48829l1.09765.54688m12.84375-1.39844l-5.3125 4.59766m5.3125-4.59766l2.28906.88281m-3.05859-.21484l1.14063.4414m12.68359-1.3789l-4.78906 5.13672m4.78906-5.13672l2.3711.63281m10.82812-.73828l-4.55469 5.34766m4.55469-5.34766l2.39453.52735m-3.0586.25l1.19922.26171m12.75-1.0664l-4.49609 5.40234m4.4961-5.40234l2.40234.5039m11.16797-.26953l-5.00782 4.9336m4.27735-4.21485l1.17187.36719m13.51563-.1836l-6.29297 3.12891m6.29297-3.1289l1.9961 1.42578m-2.91017-.96875l.9961.71093m13.0664-1.46875l-5.95703 3.73047m5.95703-3.73047l2.125 1.22657m-2.99218-.6836l1.0625.61328m13.00781-1.32421l-5.73438 4.0664m5.73438-4.0664l2.1914 1.10156m-3.02734-.50781l1.09766.55078m13.25-.83203l-6.1289 3.4414m6.1289-3.4414l2.0664 1.32812m-2.95703-.82812l1.03125.66406m12.9961-1.44531l-5.77344 4.0039m5.77344-4.0039l2.1836 1.125m-3.02345-.54297l1.08985.5625m12.82422-1.45703l-5.28907 4.6289m5.28907-4.6289l2.29296.87109m11.84766.89063l-6.9414 1.10546m6.9414-1.10547l1.47656 1.95704m11.64844-2.66407l-6.5586 2.51954m5.60157-2.15235l.92969.80078m12.94922-1.91015l-5.77344 4.0039m5.77344-4.0039l2.17968 1.125m10.60157-1.73438l-4.70704 5.22266m4.70704-5.22266l2.3789.59375m10.36719-1.00781l-3.57031 6.05078m3.57031-6.05078l2.45312.10937m11.73047.60938l-5.30468 4.61328"/><g clip-path="url(#M)"><path fill="none" stroke="#000" stroke-linecap="round" stroke-linejoin="round" stroke-miterlimit="10" stroke-width=".5" d="M466.21484 424.76172l2.28907.8789"/></g><g clip-path="url(#N)"><path fill="none" stroke="#000" stroke-linecap="round" stroke-linejoin="round" stroke-miterlimit="10" stroke-width=".5" d="M147.3086 414.9375l-6.6172-2.36719"/></g><path fill="none" stroke="#000" stroke-linecap="round" stroke-linejoin="round" stroke-miterlimit="10" stroke-width=".5" d="M146.34766 414.59375l.17578 1.21094m14.26562-1.53516l-6.94922-1.03125m5.94141.8789l.41016 1.15626m13.5625.08594l-6.25-3.21094m6.25 3.21094l.03515 2.45312m13.51953-3.04297l-6.72656-2.03125m6.72656 2.03125l.47657 2.40625m12.98437-3.2461l-7.01953-.35155m7.01953.35156l1.04297 2.22265m12.23438-2.9453l-6.94141 1.09374m5.92969-.9336l.73828.98048m12.97265-2.64063l-5.71093 4.09375m4.8789-3.5l1.10156.54688m12.71094-1.54297l-5.04297 4.89453m4.3086-4.17969l1.16797.375m13.20703-.70312l-5.6914 4.125m5.6914-4.125l2.20312 1.07812m11.07422-1.125l-5.6211 4.21875m5.6211-4.21875l2.22266 1.04297m10.8086-1.3789l-5.05079 4.89062m5.05078-4.89063l2.33203.75391m11.10157-.625l-5.28516 4.6289m5.28516-4.6289l2.29296.8711m10.89063-1.01172l-5.02344 4.91406m4.29297-4.19922l1.16797.3711m13.41406-.375L314.04688 415.5m5.21093-2.98437l1.03907.65234m12.77343-1.71094l-5.32031 4.58985m4.54688-3.92188l1.14453.44531m13.78125.84766l-6.9922.67187m5.97657-.57421l.67578 1.02343m13.60157-1.47656l-6.88672 1.38281m6.88672-1.38281l1.55859 1.89844m11.13281-3.30469l-5.63672 4.19531m5.63672-4.19531l2.21485 1.05078m11.4375-.4961l-6.3125 3.08595m6.3125-3.08594l1.98437 1.4375m11.21484-1.65235l-6.08203 3.51563m6.08203-3.51563l2.08204 1.29688m10.99218-1.66406l-5.59765 4.25m5.59765-4.25l2.22657 1.03125m10.72265-1.44141l-4.8711 5.0664m4.8711-5.0664l2.35938.67188m10.90625-.71485l-4.76953 5.15625m4.76953-5.15625l2.375.625m10.78125-.76562l-4.44922 5.4375m4.44922-5.4375l2.40625.48047m11.34375-.0547l-5.32422 4.58595"/><g clip-path="url(#O)"><path fill="none" stroke="#000" stroke-linecap="round" stroke-linejoin="round" stroke-miterlimit="10" stroke-width=".5" d="M466.22266 411.46094l2.28906.88672"/></g><g clip-path="url(#P)"><path fill="none" stroke="#000" stroke-linecap="round" stroke-linejoin="round" stroke-miterlimit="10" stroke-width=".5" d="M147.5039 400.20703l-7.0078.46485"/></g><path fill="none" stroke="#000" stroke-linecap="round" stroke-linejoin="round" stroke-miterlimit="10" stroke-width=".5" d="M146.48438 400.27344l.64843 1.04297m13.69531-.76954l-7.02343-.21484m6 .1836l.54297 1.09765m13.0039 1.04688l-5.4414-4.44532m5.4414 4.44532l-.48047 2.41015m14.40235-3.5039l-6.65625-2.25782m5.6875 1.9297l.19922 1.21093m14.16797-2.85547l-6.82032 1.6914m5.82813-1.4453l.8164.91015m12.83985-2.48438l-5.51953 4.34766m4.71484-3.71484l1.125.49219m13.32813-.6172l-6.1875 3.32813m5.28906-2.84375l1.01953.6836m13.59766.14843l-6.9922.69922m6.9922-.69922l1.35937 2.03907m11.96875-1.8711l-7.01953.35938m7.01953-.35938l1.25781 2.10547m12.0586-1.78906l-7.02344-.26953m7.02344.26953l1.0664 2.20703m11.97266-3.70703l-6.47266 2.73047m6.47266-2.73047l1.90625 1.54687m11.15625-2.03515l-5.96875 3.70703m5.96875-3.70703l2.1211 1.23047m11.40234-.85157l-6.38282 2.94532m6.38282-2.94532l1.95312 1.48438m11.4414-1.29688l-6.54296 2.57032m6.54297-2.57032l1.86328 1.59375m11.50781-1.43359l-6.65625 2.25m6.65625-2.25L335.52344 401m11.4961-1.78906l-6.58595 2.45312m6.58594-2.45312l1.83594 1.6289m11.63672-1.0664l-6.90235 1.33203m5.89844-1.14063l.76953.95313m10.51563-3.96875l-.83594 6.97656m16.03516-6.14062l-4.60547 5.30859m4.60547-5.3086l2.39453.55079m11.30469-.16406l-5.3711 4.53125m5.3711-4.53125l2.27734.91406m11.40234-.39453l-6.09765 3.49218m5.21093-2.98437l1.03516.65625m12.78516-1.70313l-5.33594 4.57422m4.5586-3.91015l1.14062.44921m11.9375-1.92578l-3.3086 6.19922m2.82813-5.29687h1.22656m12.85938-.73047l-3.89063 5.85156m3.32422-5l1.22266.1211m13.64062.01171l-5.85547 3.88282m5.0039-3.31641l1.07813.58203"/><g clip-path="url(#Q)"><path fill="none" stroke="#000" stroke-linecap="round" stroke-linejoin="round" stroke-miterlimit="10" stroke-width=".5" d="M147.44922 386.44922l-6.89844 1.35156"/></g><path fill="none" stroke="#000" stroke-linecap="round" stroke-linejoin="round" stroke-miterlimit="10" stroke-width=".5" d="M147.44922 386.44922l1.54687 1.90234m11.8125-1.59765l-6.98828.73828m6.98828-.73828l1.375 2.03515m11.73047-.41797l-6.57031-2.49609m5.61719 2.13281l.15234 1.21485m13.9961-.57422l-6.32813-3.05078m5.41016 2.60546l.04687 1.22657m13.08594.53515l-4.1289-5.68359m3.52734 4.85938l-.53516 1.10156m15.75781-2.125l-6.74219-1.98828m6.7422 1.98828l.49218 2.40234m12.91016-2.76172l-6.91407-1.26953m6.91407 1.26953l.73828 2.33985m-1.7461-2.52344l.3711 1.16797m13.97265-1.11328l-6.95703-1.01172m6.95703 1.01172l.82813 2.30859m-1.83984-2.45703l.41406 1.15625m13.9414-1.30078l-7.01562-.42188m7.01562.42188l1.01953 2.23047m12.30079-2.57032l-7.02344.25391m6-.21875l.61719 1.0625m13.45703-2.3086l-6.4961 2.67579m5.55079-2.28516l.9453.78125m13.14454-1.52734l-6.15625 3.38672m5.26172-2.89454l1.02734.67188m12.2461-2.25781l-4.28125 5.57422m3.65625-4.76172l1.21093.20312m13.78516.3164l-6.39453 2.91017m5.46484-2.48438l.97266.7461m13.44922-.69141l-6.75 1.94922m5.76953-1.66407l.85547.87891m12.94922-2.19531l-5.76563 4.01172m4.92578-3.4297l1.09375.5625m13.21875-.89452L354 388.8789m5.19922-3l1.03906.64843m13.28125-.92968l-6.32812 3.05468m6.32812-3.05468l1.98047 1.44921m10.76953-2.28515l-5.19922 4.72656m5.19922-4.72656l2.3125.82812m10.97656-.85937l-5.14453 4.78515m5.14453-4.78515l2.32032.80469m10.91406-.89063l-4.98438 4.95703m4.25782-4.23437l1.17578.36328m12.38672-1.48828l-4.02344 5.76172m3.4375-4.92188l1.21875.14844m12.79687-.90235l-4.2539 5.58985m3.63672-4.77735l1.21093.19922m11.94532-1.46093l-2.70313 6.48828m2.3086-5.54297l1.22265-.11719m14.40625 1.13281l-6.54297 2.56641m5.59375-2.1914l.92969.79687"/><g clip-path="url(#R)"><path fill="none" stroke="#000" stroke-linecap="round" stroke-linejoin="round" stroke-miterlimit="10" stroke-width=".5" d="M147.51172 373.84766l-7.02344-.07813"/></g><path fill="none" stroke="#000" stroke-linecap="round" stroke-linejoin="round" stroke-miterlimit="10" stroke-width=".5" d="M147.51172 373.84766l1.1289 2.17968m-2.14843-2.1914l.5625 1.08984m13.76953-.9336l-7.01953-.36718m7.01953.36719l1.03516 2.22265m-2.0547-2.27734l.51563 1.11328m13.82031-1.3711l-7.02343.25782m7.02344-.25781l1.23046 2.1211m-2.25-2.08595l.61328 1.0625m13.71875-.7539l-7.01562-.4336m7.01563.4336l1.01562 2.23437m-2.03906-2.29687l.51172 1.11719m13.62109-.07422l-6.60547-2.39063m6.60547 2.39063l.34766 2.42968m-1.3086-2.77734l.17578 1.21484m13.65625-.01953l-5.71875-4.08594m5.71875 4.08594l-.3203 2.42969m-.51173-3.02344l-.16015 1.21485m14.74609-1.45313l-6.59375-2.42187m6.59375 2.42187l.33594 2.42969m13.125-2.94531l-6.88672-1.39063m6.88672 1.39063l.70312 2.35156m12.67578-2.83203l-7.01172-.42969m7.01172.42969l1.01563 2.23437m12.28906-2.78125l-6.9961.66406m6.9961-.66406l1.35156 2.05078m11.66407-3.17578l-6.39453 2.91406m6.39453-2.91406l1.9453 1.49219m11.21095-1.80469l-6.07422 3.53516m6.07422-3.53516l2.08203 1.29688m11.34765-1.07813l-6.30468 3.10156m6.30468-3.10156l1.98829 1.4375m11.4414-1.17969l-6.53515 2.58594m6.53515-2.58594l1.86719 1.58985m11.48047-1.50781l-6.59766 2.42187m6.59766-2.42187l1.82812 1.63671m11.57032-1.3789l-6.76563 1.90625m6.76563-1.90625l1.6953 1.76953m11.67579-1.53516l-6.8789 1.4375m6.8789-1.4375l1.57031 1.88282m11.63281-2.28907l-6.65625 2.25m6.65625-2.25l1.78516 1.6836m11.19531-2.39844l-5.98828 3.67969m5.98828-3.67969l2.11719 1.2461m10.97266-1.57032l-5.53516 4.32813m5.53516-4.32813l2.24218.9961m10.9922-1.09375l-5.375 4.52343m5.375-4.52344l2.27734.91407m10.27343-1.59375l-3.84375 5.88281m3.28516-5.02734l1.22266.10937m11.57421-1.4336l-1.6914 6.82032m1.44531-5.82813l1.1914-.29687m13.1211-.41406l-3.19531 6.25781m2.73047-5.34766l1.22656-.02343m14.4375 1.7578l-6.96094.96876m5.94531-.82813l.72266.9922"/><g clip-path="url(#S)"><path fill="none" stroke="#000" stroke-linecap="round" stroke-linejoin="round" stroke-miterlimit="10" stroke-width=".5" d="M147.5039 360.73828l-7.0078-.49219"/></g><path fill="none" stroke="#000" stroke-linecap="round" stroke-linejoin="round" stroke-miterlimit="10" stroke-width=".5" d="M147.5039 360.73828l.9961 2.24219m-2.01563-2.3125l.5 1.1211m13.84375-1.40626l-7.02343.21875m7.02344-.21875l1.21875 2.1289m12.09375-1.83202l-7.01954-.3711m7.01953.3711l1.03516 2.22265m12.28125-2.29296l-7.02344-.23438m7.02344.23438l1.07813 2.20703m-2.10157-2.23829l.53907 1.10157m13.67187-.2461l-6.76953-1.8789m6.76953 1.8789l.53125 2.39454m-1.51562-2.66797l.26562 1.1953m13.64063-.01952l-5.98438-3.6836m5.98438 3.6836l-.15625 2.44922m-.71485-2.98438l-.07812 1.22266m14.32422-.78906l-6.10157-3.48438m6.10157 3.48438l-.07422 2.45312m13.78515-3.51563l-6.89453-1.35937m6.89453 1.35938l.71094 2.35156m12.66797-2.85938l-7.01953-.33984m5.9961.28906l.52343 1.10938M267.3125 360l-6.95703.98828M267.3125 360l1.44531 1.98438m11.55469-3.02344l-6.32422 3.0625m6.32422-3.0625l1.98047 1.44922m11.5-1.03907l-6.65625 2.2461m6.65625-2.2461l1.78515 1.6836m11.71485-.4336l-7.02344-.2578m7.02344.2578l1.07031 2.20704m12.23438-2.60547l-7.00391.53906m7.0039-.53906l1.31641 2.07421m11.9336-2.53125l-6.875 1.45704m6.875-1.45704l1.57812 1.87891m11.80469-1.42578l-7.00781.54688m7.0078-.54688l1.31641 2.07031m11.9961-2.0586l-7.0039.52735m7.0039-.52734l1.3125 2.07422m11.98047-2.29297l-6.96094.96484m6.96094-.96484L375.27344 362m11.64453-2.84766l-6.4961 2.6836m6.4961-2.6836l1.89062 1.5625m-2.83593-1.17187l.9453.78125m13.11329-1.58203l-6.08984 3.5039m6.08984-3.5039l2.07812 1.30078m11.01954-1.63281l-5.65625 4.16796m4.83203-3.5625l1.10937.53125m13.2539-.79687l-6.10155 3.48828m5.21484-2.98047l1.03516.65235m13.21875-1.06641l-6.20704 3.30078m5.3047-2.82031l1.01562.6836m13.03906-1.4375l-5.88281 3.84374m5.02734-3.28125l1.07422.58985m13.08984-1.16016l-5.87109 3.86328m5.01562-3.30078l1.07813.58594"/><g clip-path="url(#T)"><path fill="none" stroke="#000" stroke-linecap="round" stroke-linejoin="round" stroke-miterlimit="10" stroke-width=".5" d="M147.48047 347.66406l-6.96094-.96875"/></g><path fill="none" stroke="#000" stroke-linecap="round" stroke-linejoin="round" stroke-miterlimit="10" stroke-width=".5" d="M147.48047 347.66406l.83984 2.30469m-1.85156-2.44531l.41797 1.15234m13.9336-1.76172l-7.00782.52735m7.00781-.52735l1.3086 2.07422m-2.32813-1.9961l.65234 1.03516m13.53125-1.89843l-6.70703 2.09765m6.70703-2.09765l1.7461 1.72656m-2.72266-1.42188l1.7461 1.72657m12.58203-1.90235l-6.78125 1.83985m6.78125-1.83985l1.67969 1.79297m-2.66407-1.52344l.83594.89454m13.55469-.70704l-6.96485.92579m6.96485-.92579l1.42969 1.9961m11.8789-1.02344l-6.95312-1.01953m6.95312 1.01953l.82813 2.3086m12.51953-2.65626l-7.01953-.32421m7.01953.32421l1.05078 2.21875m12.2539-2.04296l-6.99609-.67579m5.97656.57813l.46875 1.13281m13.88282-1.32812l-7.02735-.08985m6.0039.07813l.5625 1.08984m13.6211-2.15625l-6.71875 2.0664m6.71875-2.0664l1.73828 1.73047m11.70313-1.14063l-6.97266.89063m6.97266-.89063l1.41797 2m11.92187-1.73046l-7.01953.34765m7.01953-.34765l1.2539 2.10937m12.03907-1.52344l-6.97656-.82421m6.97656.82421l.89063 2.28516m12.44921-2.66797l-7.02734-.0586m7.02734.0586l1.13282 2.17969m12.17578-2.40625l-7.01563.39453m7.01563-.39453l1.27344 2.09765m-2.29297-2.03906l.63672 1.04688m13.70312-.84766l-7.02344-.1211m7.02344.1211l1.11719 2.1836m-2.13672-2.20313l.55469 1.09375m13.73437-.57422l-6.9336-1.1211m6.9336 1.1211l.79297 2.32422M359.5 347.57812l.39453 1.16016m13.97656-1.6211l-7.02734.1211m7.02734-.1211l1.1875 2.14454m-2.21093-2.1289l1.1875 2.14843m13.05468-2.91406l-6.83593 1.6211m6.83593-1.6211l1.6211 1.84375m-2.61719-1.60938l.8125.92188m13.41406-1.44922l-6.66797 2.20703m6.66797-2.20703l1.77735 1.69531m-2.7461-1.375l1.77344 1.69531m12.5664-1.83593l-6.78124 1.84765m6.78125-1.84765l1.67968 1.78515m-2.66797-1.51562l1.6836 1.78515m12.55078-2.27343l-6.64453 2.28515m6.64453-2.28515l1.79687 1.67578m-2.76171-1.34375l1.79296 1.67578m12.51954-1.91797l-6.70704 2.10547m6.70704-2.10547l1.74609 1.72266m-2.72266-1.41797l.875.86328m13.35547-1.33594l-6.58594 2.44531m6.58594-2.4453l1.83594 1.6289m11.4375-1.74219l-6.5 2.66797"/><g clip-path="url(#U)"><path fill="none" stroke="#000" stroke-linecap="round" stroke-linejoin="round" stroke-miterlimit="10" stroke-width=".5" d="M466.8125 345.84375l1.88672 1.57031"/></g><g clip-path="url(#V)"><path fill="none" stroke="#000" stroke-linecap="round" stroke-linejoin="round" stroke-miterlimit="10" stroke-width=".5" d="M147.0625 335.58594l-6.125-3.44531"/></g><path fill="none" stroke="#000" stroke-linecap="round" stroke-linejoin="round" stroke-miterlimit="10" stroke-width=".5" d="M147.0625 335.58594l-.0586 2.45312m13.8047-4.55469l-6.98829.75782m6.98828-.75781l1.37891 2.03125m11.03516-4.02344l-5.1836 4.74219m5.1836-4.7422l2.3125.82032m11.16406-.63281l-5.50781 4.36719m5.5078-4.3672l2.2461.98048m-3.04687-.34375l1.125.48828m13.49219-.25781l-6.51172 2.6328m6.51172-2.6328l1.8828 1.57421m11.6836-.01171l-7.01172-.4922m7.01172.4922l.9961 2.24218m-2.01954-2.3125l.5 1.1211m13.84375-1.23047l-7.02343-.13281m7.02343.1328l1.10938 2.1875m12.20703-2.22265l-7.02734-.0625m7.02734.0625l1.13281 2.17578m12.17188-2.46875l-7.00781.52344m7.0078-.52344l1.3086 2.07813m11.98047-2.33203l-6.95313 1.02734m6.95313-1.02734l1.45703 1.97656m11.83203-2.1289l-6.89843 1.33593m6.89843-1.33594l1.54297 1.90625m11.8164-1.60937l-6.98827.74219m6.98828-.7422l1.3711 2.03516m-2.39063-1.92578l.6875 1.01563m13.64062-.33985l-6.97656-.82812m6.97656.82812l.89063 2.28516m12.43359-2.3789l-6.9961-.64063m6.9961.64062l.94922 2.26172m12.33594-3.14844l-6.9375 1.13282m6.9375-1.13281l1.48437 1.95312m-2.49219-1.78906l.7422.97656m13.625-.6875l-7.02345.22656m7.02344-.22656l1.22266 2.125m-2.2461-2.09375l.61329 1.0664m13.60937-.07812l-6.78906-1.8125m6.78906 1.8125l.55078 2.39063m-1.53906-2.65625l.27734 1.1953m14.14063-1.98437l-7.01953.29688m7.01953-.29688l1.24219 2.1172m-2.26563-2.07423l.6211 1.0586m13.39062-2.44141l-6.36719 2.97656m6.36719-2.97656l1.96094 1.47656m-2.88672-1.04297l.98047.73829m13.57812.01953l-7.0039.59375m7.0039-.59375l1.32813 2.0625m12-1.73829l-7.02735-.05468m7.02735.05469l1.1328 2.17578m12.0625-3.11329l-6.78905 1.81641m6.78906-1.8164l1.67187 1.79687m-2.66015-1.53125l.83594.89844m13.3125-1.61719l-6.48047 2.72656m6.48047-2.72656l1.89843 1.55078m-2.84375-1.15234l1.90235 1.55078m12.3789-1.89063l-6.52343 2.60938m6.52343-2.60938l1.875 1.58204m-2.82422-1.20313l1.875 1.58594m12.28125-2.21485l-6.30468 3.10938"/><g clip-path="url(#W)"><path fill="none" stroke="#000" stroke-linecap="round" stroke-linejoin="round" stroke-miterlimit="10" stroke-width=".5" d="M466.71484 332.3086l1.98829 1.43359"/></g><path fill="none" stroke="#000" stroke-linecap="round" stroke-linejoin="round" stroke-miterlimit="10" stroke-width=".5" d="M465.79688 332.76172l.99609.71875"/><g clip-path="url(#X)"><path fill="none" stroke="#000" stroke-linecap="round" stroke-linejoin="round" stroke-miterlimit="10" stroke-width=".5" d="M146.99219 322.38672l-5.98438-3.67578"/></g><path fill="none" stroke="#000" stroke-linecap="round" stroke-linejoin="round" stroke-miterlimit="10" stroke-width=".5" d="M146.99219 322.38672l-.14844 2.44922m-.72266-2.98438l-.07422 1.22266m14.51563-1.1836l-6.4961-2.68359m6.4961 2.6836l.23828 2.4414m13.3086-4.28515l-6.95704 1.0039m5.94141-.85937l.72656.98828m13.6211-.96094l-6.9961.66016m6.9961-.66016l1.35156 2.04688m11.98047-1.61329l-7.02344-.21093m7.02344.21093l1.08594 2.19922M199.75 320.6211l.54297 1.10157m13.79297-1.04297l-7.02344-.26563m7.02344.26563l1.07031 2.21094m-2.08984-2.25l1.0664 2.21093m13.25781-1.98047l-7-.64453m7 .64453l.94532 2.26172m-1.96485-2.35547l.94922 2.26172m13.39453-2.36328l-7.01953-.2539m7.01953.2539l1.07422 2.20313m-2.09375-2.2422l1.07422 2.20704m13.26172-2.42969l-7.02344.26953m7.02344-.26953l1.23438 2.1211m-2.25391-2.08204l.61328 1.0586m13.72266-.89063l-7.02344-.14453m7.02344.14453l1.10937 2.1875m-2.1289-2.21093l.55078 1.09765m13.78125-1.01562l-7.01953-.26172m7.01953.26172l1.07422 2.20703m12.20312-2.8711l-6.94531 1.0625m6.94531-1.0625l1.46875 1.96875m11.88281-1.27734l-7.01953-.3164m7.01953.3164l1.05469 2.21485m-2.07422-2.26172l.52735 1.10937m13.80859-1.03906l-7.01953-.36328m7.01953.36328l1.03906 2.22265m-2.0625-2.27734l.51953 1.11328m13.77344-1.82031l-6.92969 1.16016m6.92969-1.16016l1.4961 1.94531m-2.50391-1.77734l.7461.97265m13.58202-1.11328l-6.9414 1.10157m6.9414-1.10157l1.47656 1.96094m11.8125-.71094l-6.88671-1.39453m5.88671 1.1914l.34766 1.17579m13.92578-2.54297l-6.80469 1.7461m5.81641-1.4922l.82813.90626m12.99609-2.23828l-5.84766 3.89843m5.84766-3.89843l2.16016 1.16406m11.05859-1.30078l-5.65234 4.17578m5.65234-4.17578l2.21484 1.0586m8.30079 4.54296l-.05079-7.02734m9.82422 3.51171h7.02735m13.19921-.90234l-6.79296 1.80469m5.80468-1.54297l.83594.90234m13.42188-1.3164l-6.70313 2.10937m6.70313-2.10937l1.75 1.72265m-2.72657-1.41406l.875.85938m12.88282-2.21485l-5.63282 4.20313"/><g clip-path="url(#Y)"><path fill="none" stroke="#000" stroke-linecap="round" stroke-linejoin="round" stroke-miterlimit="10" stroke-width=".5" d="M466.3789 318.44531l2.21876 1.04688"/></g><g clip-path="url(#Z)"><path fill="none" stroke="#000" stroke-linecap="round" stroke-linejoin="round" stroke-miterlimit="10" stroke-width=".5" d="M465.5586 319.0586l2.21874 1.04687"/></g><path fill="#ff3030" fill-rule="evenodd" d="M371.17969 441.01953h7.6914V430.8711h-7.6914v10.14844"/><path fill="azure" fill-rule="evenodd" d="M373.01172 432.70703h.83594v5.73828h3.1914v.73828h-4.02734v-6.47656"/><path fill="#ff3030" fill-rule="evenodd" d="M180.33203 387.75781h7.6914v-10.14453h-7.6914v10.14453"/><path fill="azure" fill-rule="evenodd" d="M182.16406 379.44531h.83203v5.73828h3.19532v.7422h-4.02735v-6.48048"/><path fill="#ffffe0" fill-rule="evenodd" d="M341.74219 390.51953h22.1836v-10.19531h-22.1836v10.19531"/><path fill-rule="evenodd" d="M345.24219 382.16016h.51172v6.29296h-.78907v-4.48828h-1.38671v-.55468l.55859-.06641.2539-.05469.22657-.08984.20312-.14063.17578-.21093.14063-.29297.10547-.39453m4.8164 0l.22657.01953.21875.05469.21093.08984.19532.1211.18359.14843.17188.17578.30078.41797.24218.4961.1797.54687.11327.57812.03906.58985-.03906.59375-.11328.58594-.17969.55078-.24218.5039-.30079.42578-.17187.1797-.1836.15624-.1953.1211-.21094.09375-.21875.05468-.22657.01953-.23046-.01953-.21875-.05469-.20704-.09375-.19921-.12109-.1836-.15625-.17187-.17969-.30079-.42578-.24218-.5039-.17969-.55079-.11328-.58593-.03906-.59375h.83593l.02735.5625.08203.50781.125.4414.16406.375.1914.30079.21094.22265.22266.13672.22656.04688.22657-.04688.22265-.13672.21094-.22265.1875-.30078.16406-.375.125-.44141.08203-.50781.03125-.5625-.03125-.5625-.08203-.5-.125-.4336-.16406-.36718-.1875-.29297-.21094-.21094-.22265-.13281-.22657-.04688-.22656.04688-.22265.13281-.21094.21094-.1914.29297-.16407.36718-.125.4336-.08203.5-.02735.5625h-.83593l.03906-.58985.11328-.57812.17969-.54688.24219-.49609.30078-.41797.17187-.17578.1836-.14844.19921-.1211.20704-.08983.21875-.0547.23046-.01952m5.08985 0h.50781v6.29296h-.78516v-4.48828h-1.39062v-.55468l.5625-.06641.25-.05469.23047-.08984.20312-.14063.17578-.21093.14063-.29297.10547-.39453m2.82422 2.17578h.78515l.01953-.3164.0586-.28907.10156-.25.14063-.21485.17968-.17578.22266-.1289.26562-.07813.3086-.03125.23828.02344.22265.0625.20313.10156.17969.13672.14844.17578.11328.20313.07421.23828.02344.26562-.01953.26563-.0664.22656-.10938.1914-.15625.17188-.20313.16016-.24609.16797-.63281.38672-.53906.3164-.4375.3164-.34375.32423-.26563.33594-.1914.35156-.125.36719-.06641.39453-.02344.41796h4.21485v-.73828h-3.33594l.08594-.28515.11328-.23828.14843-.19922.1875-.17969.23047-.17188.27735-.17578.71875-.41796.41406-.20704.34375-.23046.28125-.25.22265-.26563.16016-.28125.11328-.28125.0625-.28516.01953-.28125-.03906-.3828-.1211-.34767-.1914-.30859-.25-.26172-.30078-.21484-.34766-.15625-.3789-.10156-.40625-.03125-.4336.03125-.39843.09765-.35547.16797-.30469.23438-.25.30468-.1836.375-.11718.44532-.03906.51953"/><path fill="#ffffe0" fill-rule="evenodd" d="M221.91016 421.19531h22.17968V411h-22.17968v10.19531"/><path fill-rule="evenodd" d="M225.40625 412.83594h.51172v6.29297h-.78906v-4.48829h-1.38672v-.55468l.5586-.0664.2539-.0547.22656-.08984.20313-.14063.17578-.21093.14062-.29297.10547-.39453m4.8164 0l.22657.01953.21875.05469.21094.08984.1953.1211.1836.14843.17188.17578.30078.41797.2461.4961.17968.54687.10938.57813.03906.58984-.03906.59375-.10938.58594-.17969.55078-.2461.5039-.30077.42579-.17188.17968-.1836.15625-.1953.1211-.21094.09375-.21875.05468-.22656.01954-.23047-.01954-.21875-.05468-.20703-.09375-.19922-.1211-.1836-.15625-.17187-.17969-.30078-.42578-.24219-.5039-.17969-.55078-.11328-.58594-.03906-.59375h.83594l.02734.5625.08203.50781.125.4414.16406.375.19141.30079.21094.22265.22265.13672.22657.04688.22656-.04688.22266-.13671.21093-.22266.1875-.30078.16406-.375.125-.4414.08204-.50782.03125-.5625-.03125-.5625-.08203-.5-.125-.4336-.16407-.36718-.1875-.29297-.21094-.21094-.22265-.13281-.22656-.04688-.22657.04688-.22265.13281-.21094.21094-.1914.29297-.16407.36719-.125.43359-.08203.5-.02734.5625h-.83594l.03906-.58985.11328-.57812.17969-.54688.24219-.49609.30078-.41797.17187-.17578.1836-.14844.19922-.12109.20703-.08984.21875-.0547.23047-.01952m5.08984 0h.50781v6.29297h-.78515v-4.48829h-1.38672v-.55468l.5586-.0664.25-.0547.23046-.08984.20313-.14063.17578-.21093.14062-.29297.10547-.39453m2.82422 2.17578h.78516l.01953-.3164.0625-.28907.09765-.25.14063-.21484.17969-.17579.22265-.1289.26563-.08203.30859-.02735.23828.02344.22266.0625.20312.10156.17969.13672.14844.17578.11328.20313.07422.23828.02344.26172-.01954.26953-.0664.22656-.10938.1914-.15625.17188-.20312.16016-.2461.16797-.6328.38672-.53907.3164-.4375.31641-.34375.32422-.26563.33594-.1914.35156-.125.36719-.0664.39453-.02345.41797h4.21485v-.73829H238.875l.08594-.28515.11328-.23828.14844-.19922.1875-.17969.23047-.17187.27734-.17579.71875-.41796.41406-.20704.34766-.23046.27734-.25.22266-.26563.16015-.28125.11328-.28125.0625-.28515.01954-.28125-.03907-.38282-.12109-.34765-.1914-.3086-.25-.26172-.30079-.21484-.34375-.15625-.38281-.10156-.40625-.03125-.4336.03125-.39843.09765-.35547.16797-.30469.23438-.25.30469-.1836.375-.11718.4453-.03906.51954"/><path fill="#ffffe0" fill-rule="evenodd" d="M164.21094 405.3711h22.17969v-10.19141h-22.1797v10.1914"/><path fill-rule="evenodd" d="M167.71094 397.01172h.50781v6.29687h-.78906v-4.49218h-1.38672v-.5547l.5586-.0625.2539-.05468.23047-.08984.20312-.14063.17188-.21094.14062-.29296.10938-.39844m4.8125 0l.23047.01953.21875.05469.20703.08984.19531.1211.1836.15234.17187.17578.30078.41797.2461.49219.17968.54687.10938.57813.03906.59375-.03906.59375-.10938.58203-.17969.55469-.24609.5-.30078.42968-.17188.17969-.18359.15234-.19531.125-.20703.08985-.21875.0586-.23047.01952-.23047-.01953-.21875-.0586-.20703-.08984-.19531-.125-.1875-.15234-.16797-.17969-.3047-.42969-.24218-.5-.17969-.55468-.11328-.58203-.03515-.59375h.83203l.02734.5625.08203.5039.1289.44531.16017.375.1914.30079.21094.21875.22266.13671.22656.04688.22656-.04688.22266-.13671.21093-.21875.19141-.30079.16016-.375.125-.4453.08203-.50391.03125-.5625-.03125-.5625-.08203-.5-.125-.4336-.16016-.36719-.1914-.29296-.21094-.21485-.22266-.1289-.22656-.04688-.22656.04688-.22266.1289-.21094.21485-.1914.29296-.16016.3672-.1289.43359-.08204.5-.02734.5625h-.83203l.03515-.59375.11328-.57813.1797-.54687.24218-.4922.30469-.41796.16797-.17578.1875-.15235.1953-.12109.20704-.08984.21875-.05469.23047-.01953m5.08984 0h.51172v6.29687h-.78906v-4.49218h-1.38672v-.5547l.5586-.0625.2539-.05468.22656-.08984.20313-.14063.17578-.21094.14062-.29296.10547-.39844m2.82422 2.17578h.78516l.01953-.3164.0625-.28516.09765-.2539.14063-.21485.17969-.17188.22265-.1289.26563-.08204.3086-.02734.23827.02344.22266.0625.20703.10156.17578.13672.15234.17188.11329.20703.0703.23437.02345.26563-.01953.26953-.06641.22265-.10938.19532-.15625.16796-.19922.16407-.25.16406-.6328.39063-.53907.3125-.4375.3164-.34375.32422-.26563.33594-.1914.35156-.125.3711-.0664.39062-.02345.42187h4.21485v-.74218h-3.33203l.08203-.28516.11328-.23438.14844-.20312.1875-.17969.23047-.17187.27734-.17578.71875-.41407.41406-.20703.34766-.23047.27734-.25.22266-.26953.16406-.27734.10938-.28516.0625-.28515.02343-.28125-.04297-.38282-.12109-.34765-.1875-.3086-.25-.26171-.30469-.21094-.34375-.16016-.3828-.09765-.40626-.03516-.4336.03515-.39843.09766-.35547.16797-.30469.23438-.24609.30078-.1875.375-.11719.4453-.03906.51954"/><path fill="#ffffe0" fill-rule="evenodd" d="M301.80078 345.8789h22.17969v-10.1914h-22.17969v10.1914"/><path fill-rule="evenodd" d="M305.29688 337.51953h.51171v6.29297h-.78906v-4.48828h-1.38672v-.55469l.5586-.0664.2539-.0547.22656-.08984.20313-.14062.17578-.21094.14063-.29297.10546-.39453m4.81641 0l.22656.01953.21875.05469.21094.08984.19531.1211.1836.14844.17187.17578.30078.41796.2422.4961.18358.54687.10938.57813.03906.58984-.03906.59375-.10938.58594-.18359.55469-.24219.5-.30078.42969-.17187.17968-.1836.15235-.1953.12109-.21095.09375-.21875.0586-.22656.01952-.23047-.01953-.21875-.05859-.20703-.09375-.19922-.1211-.1836-.15234-.17187-.17969-.30078-.42968-.24219-.5-.17968-.55469-.11328-.58594-.03907-.59375h.83594l.02735.5625.08203.50781.125.44141.16406.375.1914.30078.21094.22266.22266.13672.22656.04687.22656-.04687.22266-.13672.21094-.22266.1875-.30078.16406-.375.125-.4414.08203-.50782.03125-.5625-.03125-.5586-.08203-.5-.125-.4375-.16406-.36718-.1875-.28906-.21094-.21485-.22266-.1328-.22656-.04298-.22656.04297-.22266.13281-.21094.21485-.1914.28906-.16406.36719-.125.4375-.08204.5-.02734.5586h-.83594l.03907-.58985.11328-.57813.17969-.54687.24218-.4961.30078-.41796.17188-.17579.1836-.14843.19921-.1211.20703-.08984.21875-.05469.23047-.01953m5.08985 0h.5078v6.29297h-.78515v-4.48828h-1.39062v-.55469l.5625-.0664.25-.0547.23046-.08984.20313-.14062.17578-.21094.14063-.29297.10546-.39453m6.8047 1.6211h-.78907l-.05078-.21485-.08203-.1836-.10547-.16015-.1289-.13281-.14844-.10156-.16016-.07422-.16797-.04688-.17188-.01172-.32812.03907-.28906.12109-.2461.19531-.20312.26953-.16016.33594-.11719.40625-.0703.46485-.02344.52734.1914-.20313.1875-.16015.1836-.1211.18359-.08984.1914-.0586.19141-.03906.39844-.02343.3086.03125.3203.09375.31641.15234.29297.22266.25781.28125.19922.35156.07031.19922.0547.21875.02733.23437.00391.2539-.78515.04298-.02735-.25781-.07812-.25-.1211-.23438-.16015-.21094-.19532-.17578-.21875-.14062-.24218-.08594-.25391-.03125-.2539.03125-.2422.08594-.21874.14062-.19141.17578-.16016.21094-.125.23438-.07812.25-.02735.2578.02735.26173.07812.25.125.23437.16016.21094.1914.17578.21876.13672.24218.08984.25391.03125.2539-.03125.2422-.08984.21874-.13672.19532-.17578.16015-.21094.1211-.23437.07812-.25.02735-.26172.78515-.04297-.02734.36719-.09375.375-.15625.35546-.22266.32813-.29297.28516-.16797.11718-.1914.10157-.20313.08593-.22265.0586-.2422.03906-.26171.01563-.28125-.01954-.26172-.04687-.23828-.07422-.21484-.10547-.19532-.13281-.17187-.15625-.15625-.17969-.13281-.19922-.1172-.22265-.10155-.2422-.14454-.53515-.08593-.59375-.02735-.64062.03907-.74219.11328-.66406.1875-.57813.1211-.2539.13671-.23438.15234-.20703.17188-.17969.1836-.15625.20312-.1289.21875-.10157.23047-.07421.25-.04297.26171-.01563.36329.03125.33593.09766.29297.15234.25781.19922.21094.23828.16406.27735.1172.30078.0625.32421"/><path fill="#ffffe0" fill-rule="evenodd" d="M186.40234 328.85156h22.1797v-10.1914h-22.1797v10.1914"/><path fill-rule="evenodd" d="M189.90234 320.49219h.50782v6.29687h-.78516v-4.49219h-1.39063v-.55468l.5586-.0664.2539-.05079.23047-.08984.20313-.14454.17187-.20703.14453-.29687.10547-.39453m4.8125 0l.23047.01953.21875.05469.20703.08984.19532.1211.18359.14843.17188.17578.30468.42188.24219.49219.17969.54687.10937.57813.03906.58984-.03906.59375-.10937.58594-.17969.55468-.24219.5-.30469.4297-.17187.17968-.1836.15234-.1953.125-.20704.08985-.21875.05859-.23047.01953-.23047-.01953-.21875-.0586-.20703-.08984-.1953-.125-.1875-.15234-.16798-.17969-.30469-.42969-.24218-.5-.17969-.55468-.10938-.58594-.03906-.59375h.83203l.02735.5664.08203.50391.1289.4414.16016.375.1914.30079.21095.22265.22265.13672.22656.04688.22657-.04688.22265-.13671.21094-.22266.1914-.30078.16016-.375.1289-.4414.07813-.50392.03125-.5664-.03125-.5586-.07812-.5-.1289-.4375-.16016-.36328-.19141-.29296-.21094-.21485-.22265-.13281-.22657-.04297-.22656.04297-.22266.13281-.21093.21485-.1914.29296-.16017.36329-.1289.4375-.08203.5-.02735.55859h-.83203l.03906-.58985.10938-.57812.17969-.54688.24219-.49218.30468-.42188.16797-.17578.1875-.14844.19531-.12109.20703-.08984.21875-.0547.23047-.01952m5.08985 0h.51172v6.29687h-.78907v-4.49219h-1.38672v-.55468l.5586-.0664.2539-.05079.22657-.08984.20312-.14454.17578-.20703.14063-.29687.10547-.39453m6.80469 1.6211h-.78516l-.05078-.21485-.08203-.1836-.10938-.16015-.1289-.13281-.14844-.10157-.16016-.07422-.16797-.04296-.17187-.01563-.32813.03906-.28515.1211-.2461.1953-.20312.26954-.16406.33594-.11329.40625-.0703.46484-.02345.52735.1875-.20313.1875-.16016.1836-.12109.1875-.08984.1875-.0586.1914-.03906.40235-.02344.30469.03125.3203.09375.31641.15625.29688.21875.2539.28516.19922.34765.07422.20313.05078.21484.03125.23438.00391.2539-.78906.04688-.02735-.26172-.07812-.25-.1211-.23437-.16015-.21094-.1914-.17578-.22266-.13672-.23828-.08985-.25782-.03125-.2539.03125-.23828.08985-.22266.13672-.1914.17578-.16016.21094-.1211.23437-.07812.25-.02735.26172.02735.25781.07812.25.1211.23438.16015.21094.1914.17578.22267.13671.23828.08985.2539.03125.25781-.03125.23829-.08985.22265-.13671.1914-.17579.16017-.21093.12109-.23438.07812-.25.02735-.25781.78906-.04688-.03125.3711-.09375.3711-.15625.35937-.22266.32812-.28906.28125-.17187.11719-.1875.10547-.20703.08203-.22266.0625-.24219.03516-.26172.01562-.28125-.01562-.26172-.04688-.23437-.07812-.21875-.10547-.1914-.1289-.17579-.15626-.15625-.1836-.13281-.19921-.11719-.22266-.09766-.24219-.14843-.53515-.08594-.59375-.02734-.64063.03906-.74218.11328-.66407.1875-.57812.1211-.2539.13671-.23048.15235-.20703.17187-.1836.1875-.15624.19922-.1289.21875-.10157.23438-.07422.24609-.04297.26172-.01562.36719.03515.33203.09375.29687.15235.2539.19922.21095.24218.16796.27344.11328.30078.0625.32422"/></g></defs><use xlink:href="#aa"/></svg>