<svg xmlns="http://www.w3.org/2000/svg" role="img" xmlns:xlink="http://www.w3.org/1999/xlink" viewBox="142.45 309.95 326.84 171.84"><defs><clipPath id="a"><path d="M144 311.67188h1v168.65625h-1zm0 0"/></clipPath><clipPath id="b"><path d="M144 311.67188h324v168.65625H144zm0 0"/></clipPath><clipPath id="c"><path d="M391 479h2v1.32813h-2zm0 0"/></clipPath><clipPath id="d"><path d="M467 311.67188h1v168.65625h-1zm0 0"/></clipPath><clipPath id="e"><path d="M144 478h4v2.32813h-4zm0 0"/></clipPath><clipPath id="f"><path d="M153 479h9v1.32813h-9zm0 0"/></clipPath><clipPath id="g"><path d="M160 480h2v.32813h-2zm0 0"/></clipPath><clipPath id="h"><path d="M166 479h9v1.32813h-9zm0 0"/></clipPath><clipPath id="i"><path d="M173 479h3v1.32813h-3zm0 0"/></clipPath><clipPath id="j"><path d="M180 479h8v1.32813h-8zm0 0"/></clipPath><clipPath id="k"><path d="M186 479h2v1.32813h-2zm0 0"/></clipPath><clipPath id="l"><path d="M193 479h8v1.32813h-8zm0 0"/></clipPath><clipPath id="m"><path d="M199 479h2v1.32813h-2zm0 0"/></clipPath><clipPath id="n"><path d="M207 478h8v2.32813h-8zm0 0"/></clipPath><clipPath id="o"><path d="M212 479h3v1.32813h-3zm0 0"/></clipPath><clipPath id="p"><path d="M220 478h8v2.32813h-8zm0 0"/></clipPath><clipPath id="q"><path d="M234 477h7v3.32813h-7zm0 0"/></clipPath><clipPath id="r"><path d="M247 477h7v3.32813h-7zm0 0"/></clipPath><clipPath id="s"><path d="M261 477h6v3.32813h-6zm0 0"/></clipPath><clipPath id="t"><path d="M274 477h6v3.32813h-6zm0 0"/></clipPath><clipPath id="u"><path d="M288 477h5v3.32813h-5zm0 0"/></clipPath><clipPath id="v"><path d="M301 477h6v3.32813h-6zm0 0"/></clipPath><clipPath id="w"><path d="M314 477h6v3.32813h-6zm0 0"/></clipPath><clipPath id="x"><path d="M329 476h3v4.32813h-3zm0 0"/></clipPath><clipPath id="y"><path d="M342 476h3v4.32813h-3zm0 0"/></clipPath><clipPath id="z"><path d="M355 476h4v4.32813h-4zm0 0"/></clipPath><clipPath id="A"><path d="M368 476h4v4.32813h-4zm0 0"/></clipPath><clipPath id="B"><path d="M380 477h7v3.32813h-7zm0 0"/></clipPath><clipPath id="C"><path d="M393 478h8v2.32813h-8zm0 0"/></clipPath><clipPath id="D"><path d="M393 480h3v.32813h-3zm0 0"/></clipPath><clipPath id="E"><path d="M407 477h7v3.32813h-7zm0 0"/></clipPath><clipPath id="F"><path d="M422 476h3v4.32813h-3zm0 0"/></clipPath><clipPath id="G"><path d="M433 478h8v2.32813h-8zm0 0"/></clipPath><clipPath id="H"><path d="M446 479h8v1.32813h-8zm0 0"/></clipPath><clipPath id="I"><path d="M452 480h2v.32813h-2zm0 0"/></clipPath><clipPath id="J"><path d="M462 479h3v1.32813h-3zm0 0"/></clipPath><clipPath id="K"><path d="M144 466h4v2h-4zm0 0"/></clipPath><clipPath id="L"><path d="M144 452h4v3h-4zm0 0"/></clipPath><clipPath id="M"><path d="M144 439h4v3h-4zm0 0"/></clipPath><clipPath id="N"><path d="M144 425h4v4h-4zm0 0"/></clipPath><clipPath id="O"><path d="M144 412h4v3h-4zm0 0"/></clipPath><clipPath id="P"><path d="M144 399h4v2h-4zm0 0"/></clipPath><clipPath id="Q"><path d="M465 397h3v2h-3zm0 0"/></clipPath><clipPath id="R"><path d="M144 386h4v2h-4zm0 0"/></clipPath><clipPath id="S"><path d="M466 384h2v3h-2zm0 0"/></clipPath><clipPath id="T"><path d="M144 373h4v2h-4zm0 0"/></clipPath><clipPath id="U"><path d="M144 359h4v3h-4zm0 0"/></clipPath><clipPath id="V"><path d="M144 345h4v4h-4zm0 0"/></clipPath><clipPath id="W"><path d="M466 345h2v3h-2zm0 0"/></clipPath><clipPath id="X"><path d="M144 333h4v2h-4zm0 0"/></clipPath><clipPath id="Y"><path d="M466 332h2v3h-2zm0 0"/></clipPath><clipPath id="Z"><path d="M144 319h4v4h-4zm0 0"/></clipPath><clipPath id="aa"><path d="M466 318h2v2h-2zm0 0"/></clipPath><clipPath id="ab"><path d="M465 318h3v3h-3zm0 0"/></clipPath><g id="ac" clip-path="url(#clip1)"><path fill="#fff" fill-opacity="0" fill-rule="evenodd" d="M0 0h1000v1000H0zm0 0"/><path fill="#d3d3d3" fill-opacity="0" fill-rule="evenodd" d="M162.15234 355.86719l-.23437.29297.0586.23437.11718.17188.17578.23437.29297.34766.11328.0586.11719-.17188.0586-.23438.17577-.17578.46485-.17578h.69922l.23437.29297.28906.8164.0586.17579.17578.23046.35156.23438.69922.69922.17188.17578.23437.34765.23438.41016.28906.58203.41015.46485.23047.23437.23438.17578.11719.23047.17578.29297.17187 1.16406v.23438l.0586.28906.05859.11719.11719.11719.34765.41015.11719.17188.17578.17578.17578.23437.11719.17188.17188.35156.05859.23438.23437.40625.23438-.0586-.17578.17578-.0586.92969h-.58203l-.23437-.11328-.34766.11328-.11719.11719-.05859.29297-.0586.17578-.11718.17187-.46484.29297-.0586.23438-.0586.11328v.64453l.0586.17187v.41016l.0586.0586v.40624l.05859.40625.11719.17579.05859.05859.23047.64062-.0586.29297v.69922l-.05859.58203v.23438l-.0586.23047-.05468.35156v1.92187l.05469.1172h.42578l-.36719.11718-.02344.35156.89063 1.16797 1.74219.53906 1.33984.35938v.53906l.08984.8086.53516.71484 1.51953.26953.89063-.08594.08984 1.16406.53516.1797 1.16015-.1797 2.05469-.98437 1.16016-.36328 1.8789-.17578 1.69531-.1797-.17968.71876-1.51563.08594-1.25.08984-.80469.26953-1.07421.8086.26953.71875.53515.89843-.17968.625-.26563.8086.26563 1.07812.625.89844.80468.17969 1.25-.1797-.26562.72267.09766.5039.05468.29297v.17188l.0586.29296v.40625l.17578.1172.35156.11718h.40625l.29297-.17578.11328-.11719.0586-.11719.11718-.23047.0586-.17578.35156-.46484.23047-.17578.17578-.0586.17578.0586.0586.17578.11718.98828.05469.46875.0586.17188.11718.23437.17578.0586.8164.05859h.28907l.11719.23437.05859.40625.0586.35156v1.10547l.11718.29297.11719.34766.28906.69922.17578.35156.58203.7539.35157.17579.17187.0586.46875.23437.64063.46484.34765.23438.29297.17578.29297.05468.23047.0625.8164.34766.29297.17578.11328.17188.35157.35156.11719.17578.52343.64063v.28906l.0586.35156v.34766l.05859.35156.0586.28906.11718.0586.17188.05859h.17578l.58203.23437.17578.1172.17578.28905.17578.23438.11328.23437.29297.23047.11719.11719v.41016l.0586.05468.28906.23438.23437.11719.0586.11718.11718.17188.0586.11719.23047.23437.05859.17578.23437.0586.1172.05859-.1172.11328-.05859.11719v.11719l-.11719.29296-.11719.28907v.58203l.17579.11719.11718.05859.0586.11719.11719.11719.11328.05859.17578.34765.0586.35157.05858.40625v.17578l-.05859.17578-.11719.69922v.17187l.1172.17579.29296.29296h.40625l.17578.1172.11719.17187.11719.29296v.23438h-.52735l-.23047-.23438h-.23437l-.17578.0586-.0586.69922.0586.34765.11719.17579.17578.41015.11718.23047.28907.46875.17578.05469h.52344l.23437.0586.75781.64062.0586.29296v.23438l.05859.0586.23047.34765v.35156l-.11719.17188v.29297l.29297.28906.29297.17578.17187.0586.29297.17577.29297.1172.58203.40624.28906.23438.29297.17578.21875.16015.01563.01172.23047.17579.64062.52343.17578.23438.1172.17578.17577.17578.11328.17188v.64062l.1172.17578.46874.11719.58203.11719.23438.05859.23047.11328.29297.11719.11328.0586.58593.35156.28907.17187.17578.0625.17578.05469.17578.0586.69922.35155.28906.17579.23438.05468.28906.17578.23437.1172.64063.40624.29297.11719.17187.0586.23438.05859.41015.05859.23047.0586.23438.11718.0586.17188-.41017.17578.46875.0586.0586.29296.11328.23438.17578.05468.23438.0586.17578.05859.40625.11719.64062.23437.11719.17188.0586.23437v.17578l-.0586.1172-.0586.40624.23438.23438.11719.05859.34766.11719.64062.23047.17578.11718.28906.1172.17578.17577.23438.46485.58203 1.10546.17578.17579.34766.17578.17578.11719.35156.11718 1.04688.52344.23437.0586.46485.11327.29297.0586.46484.17578.75781.58203.23438.23438.34765.46484.17578.17578.28907.23438.8164.69921.29297.17579.28906.28906.29297.17578.29297.28906.69531.64063.17578.17578.29297.23437.28907.23438.46875.28906.64062.58203.34766.23438.23437.29297.34766.34765.35156.46485.9336.99218.34765.40625.11719.17579.23437.05859.11328.11719.64454.17578.23047.11328.23437.0586.29297.17577.23047.1172.9336.69921.40624.40625.23438.17578.40625.17578.23437.11719.8164.34766.34766.23437.23438.11719.29297.28906.23047.11719.7578.35156.35157.17188.23047.05859.29297.11719.23437.0586.8711.17577h.8164l.46875.23047.17188.0586.875.69921.46484.1172.29297.05858.17578.0586.23047.0586.46875.05859.34766.05859.35156.0586.40625.05859h.29297l.17187.0586v.23046l.17578.17578h.29297l.34766.0586.35156.05859.69922.11719h.64063l.46484-.23438.29297-.17578.17187-.11719.41016-.17187.28906-.17578.9336-.46485.46875-.29297.52343-.29296.46485-.17188.46484-.17578 1.05078-.46485.28906-.11718.41016-.11719.28906-.11719.52735-.17578 1.51562-.69922.58203-.34765.28907-.0586.29297-.0586.34765-.11718.875-.23047.35156-.11719h.11329l.23437-.05859.875-.23437.23438-.0586h.8125l.35156-.0586.8164-.11718.17188-.0586.35156-.05468.29297-.0586.23047-.05859.8164-.17578.17579-.0586h.34765l.23438-.05859.46484-.11718.75781-.17188.23438-.0586h.34765l.41016-.11718.28906-.0586 1.28516-.05859h.28906l.41016-.0586.23047-.05858h.17578l.875-.1172h.40625l.41015-.11718h.34766l.35156-.11328.8711-.0586h1.75l1.04687.28907.41016.11719.28906.11718.35156.11719.28907.11719 1.05078.17187.28906.0586h.29297l.29297.05859.17187.0586.41016.05859.17187.0586.1172.05858h.11718l.11719.0586.35156.0586h.11328l.41016.0664 1.92187.39453 1.92578.39453 1.51953.44922 1.69532.71875 2.14453.80469 1.60547-.71875 1.42968-.80469 1.16016-1.07813 1.25-.44921 3.03516-.71875 1.875-.35938 2.14453-1.34765 2.23437-1.25391 2.5-1.25781 1.69531-.44922 1.78516-.17969 1.16016-.26953.625.53906 1.33984-.26953.71485-.98828.98437-1.34375.44531-.17969.80469-.35937 1.875-.53907 1.78516-.44921 1.25-.26954 1.16015-.08984 1.69922-.08984 1.96094-.26954 1.25-.08984h.53906l.625-.08984h.89063l2.14453-.17969 2.41015-.17969 2.58985-.08984 1.69531.17969 1.60938.08984 1.42968.35938 1.16016.71875 1.875.98828 1.16015 1.52734.26563.71484.6289.08985.35548.89844.53515.53906.53516 1.52734 1.07422.35938h.53515l-.80469.53515.08985 1.70703.71484 2.69532.89063.80468.89453.98829.71484 1.2578 1.78516.53907 1.51953-.17969.35547 1.34375 1.60937-.80469.98047-.53906.26953.26953.31641-.21484.21875-.14453.80078.44922.44922-.35938h.35547l.53515-.26953.53907-.71875.53515-.26953.625-.98828 1.16016.44922.83984.3711 1.39454.61718 1.6953-.17969h1.60548l1.78515.08985.17969-1.70704.53516-1.34375.80468.26954.4922.84765.40233.40625-.08984.53906v.35938l.71485.44922.71093-.26953h1.42969l.35938.98828.4453 1.25781.71485 1.34375 1.25.6289 1.69531.62891.71485-.17969.17969-.53906.98046-.08984.44922.35937.08594 1.25782-.26563.6289-.53515.17969v.53906l.71484.98438.26563.53906.98437.98828.80078 1.07813-.26562.35937-.08985.89844-.625 2.33203-.35546 2.0664-.08985 1.79298-.17969.71875-.08984.53906v1.4375l-.98047 1.88281-.35937 1.70703-.53516.89844-.80469 1.16797-.26562.53906 2.05469 1.2539.08593.35938-.35546.53906-.08985-.17968v.80859l.08985 1.4375-.44532.71484-1.07422.09375-.26562.71485.53515.89844.8047.71875 1.16015.80859 1.33984.26953.44531.35938-.35546.44921-1.78907-.08984-1.25-.44922-.71484-.71875-.625-.08984-.17578 3.58984-.1875 1.3086h89.35937V311.70313h-55.26953v49.08203l.76172.125 3.28906.54296 2.02344 2.83594v2.7539l2.35156.33204 2.34766.33203h4.05078l-1.3789 4.16016-2.02344.70703-2.02344.70312-.54297.34375-2.59375 1.6172-.1875.11718-2.02344-2.07813-.73046-2.74218-2.67188-2.07813-1.375-3.5-.0664-.08203-1.95704-2.67188 2.75-1.41796v-49.08204H294.42187v91.41407l.1172.03125.1328.01172.07422.07421.10547.04688.08985.0586.08593.05859.08985.0586.29687.29687.0586.08984.03125.11719.02734.11719.01563.13671-.03125.1172-.0586.08983-.0586.08594-.04296.10547-.04688.10156-.02734.1211v.14453l.17578.26953.14844.14844.07422.08594.07422.07421.04296.10547.0625.08985.0586.08593.04297.10547.0586.08985.04687.10156.04296.10547.0586.08594.11719.17968.07421.07422.0625.08594.0586.08984.04297.10547.0586.08985.05858.08593.0625.08985.0586.08984.04297.10156.11719.17969.07421.07422.0586.08594.07422.07421.08984.0586.10547.04687h.14844l.1328-.01562.13282.01562.10156-.04687.07422-.07422.04688-.10156-.01563-.13281v-.14844l-.04687-.10547-.02735-.11719-.04687-.10156-.02735-.1211-.04296-.10156-.0625-.08984-.04297-.10156-.04297-.10547-.03125-.11719-.01563-.13281-.01171-.13672.08593-.0586.0586-.08593.12109-.03125.04297.10547.01562.1328v.1172l.0586.10156.0586.08984.08983.0586.14844.14843.0586.08985.04296.10547-.01171.10156.08593.0586.10547.04687.08594.0586.08984.05858.07422.07422-.11719.02735-.10546.04687-.08594.0586-.07422.07421-.0586.08985-.0625.08594-.02734.12109-.04687.10156-.04297.10547-.03125.11719-.01172.13281-.01563.13281v.14844l.02735.11719.04687.10547.04297.10156.0586.08984.07421.07422.08985.0586.07422.07421.08984.0586.0586.08984.04296.10547.04688.10156.11719.03125.1328.01563h.14845l.11718-.03125.10547.04297.04297.10547.04688.10156.02734.1211L299.5 410l.02734.11719.03125.1211.02735.11718.10547.04297.10156.04687.13281-.01562.14844.14844.0625.08593.07422.07422.07031.07422.08984.0625.10547.04297.10156.04297.1172.03125.13671.01562.11719-.03125.07422-.07422.02734-.11718-.01172-.13282-.03125-.12109-.02734-.11719.04297-.10547h.11719l.08984.0625.11719.02735h.14843l.13282.01562h.14843l.13282.01563.1328-.01563h.14845l.1328-.01562.13282-.01172.13672.01172.11719-.02735.13281-.01562.1914-.0586-.05859.17579-.01562.1328-.02735.1211-.01562.13281-.0586.08594-.1328.01563-.10548.04687-.10546.04297-.1172.03125-.11718.02735-.26563.03125h-.14843l-.13281.01562-.07422.07422.05859.08594.14844.14843.11719.1797.07421.0703.08985.0625.08984.0586.08594.0586.08984.05858.10156.04297.10547.0625.10547.04297.08594.0586.10547.04687.10156.04297.17969.11719.0586.08984-.04298.10156-.04687.10547.01562.13281.22266.22266.0586.08985.04296.10156.03125.1211.04297.10155.01563.13282.03125.11718.01171.13672.03125.11719.14844.14844.10156.04297.10547.04296.1172.03125.1328.01563.13672.01563h.11719l.11719-.03125.08984-.0586.04297-.10547.04688-.10156.04296-.10547.03125-.11719.01172-.1328v-.14845l-.01172-.1328-.01562-.13282-.03125-.11719-.04297-.10547-.04688-.10547-.04296-.10156-.04297-.10547-.01563-.13281.01563-.13281.02734-.11719.03125-.11719.02735-.1211.04687-.10155.08984-.0586.08594-.0625.07422-.07422.08984-.05859.22266-.22266.0586-.08593.07421-.07422.11719-.17969.0586-.08594v-.14844l-.07423-.07421-.10156-.04688-.10547-.04297-.10156-.04297-.0586-.08984-.04687-.10547-.02734-.11719.08984-.05859.11719-.03125.10156-.04297.17969-.11719.14844-.14843.01172-.13282-.01172-.10546-.08985-.0586-.1328.01563h-.14845l-.1328.01562-.13282-.01562-.1211-.03125-.08593-.0586-.07422-.07422-.0586-.08984-.0625-.08594-.11718-.17969-.0586-.08593.03125-.1211.08594-.05859.1211-.03125.05859-.08594v-.1211l-.03125-.11718-.0586-.08984-.05859-.08594-.04687-.10547-.02735-.11719-.01562-.1328.0586-.08985.07421-.07422.08984-.0586.1172-.17968.07421-.07422.0586-.08594.14843-.14844.1211-.03125.1328-.01562.13282.01562.07422.07422.04297.10547.01562.13281-.03125.1172-.11719.03124-.1328.01172-.14844.14844-.04297.10547-.04688.10156-.02734.1211-.03125.11718v.14844l.03125.11719.04297.10546.05859.08985.07422.07031.07422.07422.11719.03125.12109.02734.11719-.02734.1328-.01563h.1172l.08984.0586.07422.07422.04687.10546.0586.08594.10156.04688.13281.01562.10547.04297.08594.0586-.01172.10546-.07422.07422-.17969.11719-.05859.08984-.08984.0586-.07032.07422-.07421.07421-.0625.08985-.02735.11719-.01562.1328.01562.13282-.01562.13281v.14844l.01562.13281.02735.1172.03125.12108.07421.07422.08985.0586.08594.0586.08984.05858.11719.03125v.08594l-.10157.04688-.08984.0586-.26563.03124-.11718.02735h-.14844l-.10547.04296-.10156.04688-.0586.08984-.0625.23438-.01171.13281-.03125.1211-.01563.1328v.29298l-.01172.1328.01172.13673.01563.1328.1328.01563.13282.01172.1211.03125.08593.0586.07422.07421.04688.10547.04296.10157.01563.1328v.44532l-.01563.13281v.44532l.03125.26562.02735.11719.01562.13281.03125.11719.08594.21094.03125.26562v.14844l-.03125.11719-.02734.11718-.03125.1211-.02735.11719-.03125.11718-.03125.1211-.01171.1328-.01563.13282.08984.0586.1172-.03125.10155.01562.04688.10547-.03125.26562v.44141l-.04297.10547-.04688.10547-.04296.10156-.04297.10547-.0586.08594-.03125.12109-.04296.11719-.03125.11719-.01563.1328.01563.13282.05859.08984.10547.04688.08594.0586.05859.08593-.01172.13672-.03125.11719-.04297.10156v.44531l-.01562.13281v.14844l-.03125.11719-.04297.10547-.02735.11719-.04687.10546-.04297.10157-.03125.12109-.02734.11719-.03125.13281-.03125.11719-.02735.11719-.04297.10546-.03125.1172-.03125.12108-.01171.13282-.01563.13281v.29688l.02734.11718v.14844l.04688.39844.02734.11719.0586.08984.12109.03125h.14844l.13281-.01563.0586.08985v.11719l-.0586.08984-.08984.0586-.10157.04296-.10546.04688-.08985.05859-.08594.0586-.13671.01562-.1172-.03125-.1328-.01563-.10157.04688-.0625.08594-.01172.13671-.01562.13282-.03125.11719-.02735.11718-.01562.13281-.03125.1211v.29687l.01563.13282.03125.11718v.14844l.01171.13281v.14844l-.02734.11719-.04688.10156-.02734.1211-.03125.11718-.0586.08985-.07421.07421-.10156.04297-.10547.04688-.11719.02734-.1211.03125-.10156-.04687.0586-.08594.10547-.04688.02734-.11718.03125-.11719.02734-.1211.03125-.11718v-.14844l.01563-.13281-.03125-.11719-.04297-.10547-.10547.01563-.07422.07422-.10156.04296-.08984.0625-.07422.07422-.04297.10157-.01563.1328-.03125.1172L304.25 426l-.03125.11719-.02734.11719-.03125.12109-.02735.11719-.03125.11718-.04297.10547-.08984.0586h-.08984l-.1172-.03125-.03124-.08594.01562-.13672-.03125-.11719v-.14844l-.01171-.1328v-.14844l-.0625-.23438-.02735-.1211-.04297-.10156-.04687-.10546-.0586-.08594-.05859-.08985-.04297-.10546-.0625-.08594-.14844-.14844-.0703-.07422-.10548-.04687-.10547-.04297-.10156-.04297-.29687-.29688-.08985-.07421-.08594-.0586-.10546-.04297-.08985-.0625-.08594-.0586-.10546-.04296-.08985-.0586-.08594-.0625-.07421-.0703-.10547-.04688-.08594-.0586-.10547-.04296-.08984-.0625-.10156-.04297-.10547-.04297-.08594-.0586-.10547-.04687-.10547-.04297-.10156-.04687-.08985-.0586-.10156-.04297-.10547-.04296-.08984-.0625-.11719-.02735-.13281-.01562-.13281.01562H299.75l-.13281.01563-.11719-.03125-.08984-.0586-.07422-.07422-.08985-.05859-.10156-.04688h-.14844l-.12109-.02734-.10156-.04297-.07422-.07422-.11719-.17968-.08984-.0586-.10156-.04297-.08985-.0625-.10547-.04296-.08984-.0586-.08594-.0586-.10547-.04687-.0586-.08594-.05858-.08984-.04297-.10547-.04688-.10156-.07422-.07422-.08594-.0586-.07421-.07421-.08985-.0586-.22265-.22265-.04297-.10547-.03125-.26563.10547-.04296h.14453l.10547.04296.07421.07422.08985.0586.08594.0586.10546.04687.08985.05859.14844.14844.0703.07422.14845.14843.0625.08594.07421.07422.08594.0586.07422.07421.08985.0625.08984.0586.08594.05859.26953.17578.10156.04688.10547.04296.10156.04297.04688-.07421.05859-.08594.07422-.07422.07031-.07422.10547.04297.07422.07422.0586.08984.04296.10156.04688.10547.04296.10547.1211.02735.11719-.02735.07421-.08984.04297-.10547.0586-.08985.07422-.07421.10546-.04297.1172-.02735.1328.01172.08985.0586.14844.14843.05859.08985.04297.10547.04687.10156.04297.10547.04297.10156.10547.04688.10547.04296.13281.01563.08594-.0586.0586-.08984.07421-.07422.10547-.04297.11719.02735.10547.04687.10156.04297.10547.04297.10156.04688.17969.11718v.11719l-.01563.13281.01563.13281.01562.13672.0586.08594.10156.04688.1211.02734.11718.03125h.14844l.11719-.03125.05859-.08984.17969-.1172.05859-.08983.07422-.07422.0586-.08594.11718-.17969.17969-.11719.11719.03125.08984.0586.04297.07422-.01563.1328v.1172l.08985.05859h.14843l.13282-.01563.1328-.01171.26563-.03125.10547-.04297.11719-.03125.1211-.02735.07421-.07421.07031-.07422.0625-.08985-.01562-.10547-.04688-.10156-.10156-.04297-.10547-.01562-.11718.02734-.26563.03125h-.14844l-.07421-.07422-.08985-.0586-.11719-.03124-.11718-.02735-.13282-.01562h-.14843l-.13282.01563h-.29687l-.10547-.04688-.14844-.14844-.04297-.10156-.05859-.08984.22266-.22266.08593-.0586.10547-.04296.11719-.03125.13281-.01563.13281.01563.13672.01562.10157.04297.1328-.01172.08985-.0625.10156-.04297.0625-.08984-.04687-.10156-.08984-.0586-.1172-.03125-.10155-.04296-.0586-.08985-.0625-.08984v-.11719l.01563-.13281.10547-.04688.07421-.07031v-.1211l-.08984-.05859-.03125-.11719.08985-.05859.07421-.07422.04297-.10547.0586-.08984.04687-.10156.01563-.13281v-.14844l-.04688-.10547-.04297-.10156-.08984-.0586-.13281-.01562-.10157-.04297-.13671-.01563-.1172-.03125h-.4453l-.13282-.01562-.13281-.01172-.13281-.01563-.11719-.03125h-.14844l-.13281-.01562-.13281-.01172-.26563-.03125-.1211-.04297-.08593-.0586-.07422-.07421v-.14844l.01172-.13281.10547-.04688.10156-.04296.13281-.01563h.15235l.13281-.01562h.29297l.1211.03125.10156.04296.08984.0586.23438.0625.12109-.04688.08984-.05859.10156-.04297.13282-.01562.10547.04296.10156.04688.13281.01172.1211-.02735h.14453l.12109-.03125.11719-.02734.10547-.04687.07421-.07422.08594-.0586.14844-.14843.0586-.08594.04687-.10547.02734-.11719.01563-.10547-.10156-.04296-.08985-.0586-.11719-.03125-.10546-.04297-.08985-.0625-.07422-.08594-.07422-.07421-.10156-.04297-.10547-.04688-.10156-.04297-.0586-.08984-.04687-.10156-.08594-.21094-.0625-.08594-.05859-.08984-.07422-.07422-.08594-.0586h-.26953l-.11719.03126-.08984.05859-.10156.04297-.13281.01562-.10547-.01562-.02735-.11719-.0625-.08984-.11718-.03125-.10157-.04297-.14843-.14844-.03125-.11719-.01563-.10546.07422-.07422.17969-.1172.11719-.02733.11718-.03125.13672.01562.10156.04297.10547.04297.10156.04687.10547.04297.1172.03125.1328.01563.1172.02734.1328.01563.10547-.01563.08985-.0586-.07422-.07421-.10547-.04297-.07422-.07422-.07422-.08984-.14844-.14844-.08593-.0586-.08985-.05859-.07422-.07422-.08984-.0586-.10156-.04687-.1211-.02734-.10156-.04688-.10547-.04296-.11719-.03125-.10156-.04297-.1211-.03125h-.14843l-.11719.03125-.10546.04297-.08594.0625-.17969.11718-.08594.0586-.08984.0586-.10547.04687-.08594.05859-.10547.04297-.10156.04297-.10547.04687-.07422.07422-.05859.08985-.0586.08593-.04687.10547-.0586.08594-.07421.07422-.13281-.01172-.1172-.03125h-.11718l-.07422.07422-.08984.0586-.07422.07421-.08984.0586-.08594.05859-.10547.04687-.10156.04297-.13672.01563-.10156-.04297-.14844-.14844-.10547-.04688h-.08594l-.10547.04688-.10156.04297-.1211.03125-.11718-.03125-.07422-.07422v-.11719l.03125-.1211.07422-.0703.0586-.08985.07421-.07422.11719-.03125.10547-.04296h.29297l.13281-.01563.13672-.01563.10156-.04296.08985-.0586.10156-.04687.08984-.0586.13281-.01171.08985.05859.13281.01172.08984-.0586.08594-.05859.10547-.04297.08984-.0586.08594-.0625.08985-.05859.14843-.14843.0586-.08594.05859-.08985.10547-.04296.13281-.01563.11719.02735.1211.03125.05859-.0586.05859-.08984.03125-.26563.02734-.11719.10547.01172.13281.01563.10157-.04297.08984-.0586.0586-.08984.07421-.07422.0586-.08984.04687-.10156.01172-.13281-.01172-.13282-.04687-.10547-.14844-.14843-.0586-.08985-.05859-.08594-.04297-.10546v-.44532l.01563-.1328v-.14845l.01172-.1328-.0586-.0586-.08984.0586-.10156-.04298-.17969-.11719-.08594-.05859-.0625-.08984-.0586-.08985-.07421-.07421-.08594-.0586-.1211.03125-.10155.01172-.10547.04688-.08594.05859-.10547.04297-.14844.14844-.08984.05859-.08594.0586-.08984.0625-.10547.04296-.13281.01563v-.1211l.10547-.04297.11718-.03125.07422-.0703.04297-.10548v-.14844l-.02734-.11718-.14844-.14844-.13281-.01563h-.14844l-.11719.03125-.10547.04297-.10156.04297-.08984.0625-.11719.02735-.07422-.07422.01172-.13281-.04297-.10157-.04297-.10547-.08984-.05859-.11719.02734-.1211.03125-.11718.03125-.10156.04297-.1211.03125-.10156.04297-.10547.04297-.08984.0586-.10156.01562v-.11719l.01562-.13281-.0586-.08985-.07421.04297-.14844.14844-.0586.08985-.07421.07421-.04688.10547-.04296.10156-.07422.07422-.0586.08985-.07422.07422-.05859.08593-.07422.07422-.08984.0625-.07422.07031-.07422.07422-.10156.01563-.13281.01562-.10547-.04296v-.1211l.14843-.14844.04297-.10156.0586-.08984.04687-.10156.04297-.10547.0586-.08985.03124-.11719.04297-.10156.03125-.1211.02735-.11718.04687-.10547.04297-.10156.04297-.10547.07422-.07031.08984-.0625.08985-.0586.10156-.04296h.29687l.26563-.03125.10547-.04297-.07422-.07422-.11719-.03125-.10547-.04297-.08984-.0586-.10156-.04687-.08985-.0586-.10156-.04296-.10547-.04297-.08984-.0625-.08594-.0586-.10547-.04296-.10156-.04297-.1211-.03125-.11718-.03125-.10157-.04297L297.5 410.25l-.10156-.04297-.08985-.0586-.04296-.10546-.01563-.13281.10156-.04297.13281-.01563.13672.01563.13282-.01563.10156-.04297.0586-.08984.01562-.10547-.08985-.0586-.07421-.07421-.10157-.04297-.08984-.0586-.14844-.14843-.04297-.10547-.01562-.13281v-.29297l-.0586-.08985-.08984-.05859-.07422-.07422-.04297-.10547-.03125-.11718-.0586-.08985-.07421-.07422-.11719-.02734-.07422-.07422-.08984-.0586-.08984-.0625-.08594-.05859-.07422-.07421-.0586-.08594-.04687-.10547-.08594-.0586-.14843-.14843-.19532-.0586-.1328.01563-.10157.04297-.07422.07422-.04688.10156-.04296.10547-.0586.08984-.0586.08594-.29687.29687-.08984.0586h-.08594l-.0625-.08594-.04297-.10547.03125-.11719.0586-.08984.02734-.11719-.01172-.13281-.08984-.0625-.10547.04688-.11719.02734-.11719.03125-.26953.17578-.10156.04688-.11719.02734-.10546.04687-.08985.0586-.10156.04297-.0586-.08594-.04687-.10547.01563-.13281.04687-.10547.07031-.07422.07422-.07031.0586-.08985v-.14843l-.04297-.10547h-.23829l-.10156.04687-.03125.11719-.02734.11719-.03125.1211-.07422.04296-.13281.01563-.07422-.04688-.04297-.10156-.04297-.10547-.04687-.10156-.04297-.10547-.1211.03125-.10156.04297-.13281.01562-.11719.03125-.10547.04297-.08984.0586-.10156.04687-.1211.02734-.13281.01563-.10156-.04297-.0586-.08985-.04687-.10546-.04297-.10157-.04297-.10546v-.1172l.0586-.08984.08593-.05859.17969-.11719.10156-.04687.10547-.04297.10547-.0586.10156-.04296.08985-.0625.10156-.04297.10547-.0586.10156-.04687.08984-.0586.10547-.04296.10156-.04297.08985-.0625.10156-.04297.13672-.01563.11719.03125.10156.04297.1211.03125.10156.04297.10546.04688.10157.04296.10547.04297.10156.04688.10547.04297.10156.04297.10547.04687.08594.0586.10546.04296.1172.03125.10546.04297.10156.04688.08985.0586.10547.04296.10156.04297.10547.04687.11719.02735.10156.04687.1211.02735h.14843l.08594-.0586.01562-.10156.0586-.08984-.02735-.1172-.07422-.07421-.11719-.17969-.07421-.07422-.08985-.07421-.17969-.1172-.08593-.05859-.10547-.04296-.10156-.04688-.26954-.17578-.05859-.08985-.07422-.07421-.0586-.08985-.04296-.10156-.03125-.11719-.01563-.13672v-.5625l-.01171-.1328-.01563-.13282-.03125-.11719-.01562-.13281-.01172-.13281-.03125-.1211-.22266-.22265-.0586-.08594-.01562-.10547.03125-.11719.13281-.01562v-91.41406H172.9922v1.45312l-.0586.23438-.35156 1.05078-.17187.52343-.1172.34766-.17577.41016-.11719.17187-.23438.29297-.23046.0586h-.35157l-.11718.05859-.23047.40625v.29297l.11719.17578.23046.23047.1172.23437.64062.75781.29297.46485.17578.23437.23047.35156.23437.34766.64063.8164.17578.46485.17187.41016.11719.69531.17578.46875.11719 1.39844.0586.46484v.875l.11718 1.04688v4.78125l-.0586.46484-.35156 1.28125-.17578.52344-.11328.41015-.35156.9297L172.93359 336l-.23437.58203-.11719.17578-.17187.34766-.17578.40625-.35157.8164-.0586.29297-.11327.29297-.11719.28906-.0586.17579-.11718.875-.0586.40625-.05859.11718-.0586.17579-.05859.17187-.23047.52734-.11718.17188v.23437l-.11719.23438-.0586.17187-.17577.58594v.28906l-.0586.17579v.29296l-.0586.11329-.05859.52734v.17187l-.05468.23438v2.6211l-.17578.8164-.1172.17578-.17577.23438-.1172.17187-.11327.23438-.58594.93359-.23047.28906-.29297.46485-.17578.23437-.28906.35156-.35156.69922-.11328.23047-.17579.41016-.17578.23046-.40625.52735-.8164.69922-.29297.17187-.28906.23438-.17579.11719-.17578.17578-.52344.40625-.52734.17578-.17187.17578-.23438.05469-.64062.17578h-.75782m12.21094 31.02344l-1.07422.44921.35938.89454 1.25-.71485.44531-.53906-.98047-.08985"/><path fill="#d3d3d3" fill-opacity="0" fill-rule="evenodd" d="M201.50781 416.59766h-.89453l.44922.6289.98047.35938.80469-.08985.4453-.98828-.17577.08985-.71485-.35547-.89453.35547m154.6211 59.0703l-.0586-.52343v-.29297l.11328-.29297.0586-.23046.46875-.46875h.11328l.11719-.11329.11718-.05859h.17579l.23437-.0586h.34766l.23437.0586.11719.0586.23047.17187.0586.17578.11718.58203v.29297l-.11719.17578-.17187.28906-.17579.17579-.52734.52343-.23047.23438-.11719.0586h-.17578l-.11718-.0586-.40625-.29297-.17579-.11719-.11718-.0586-.0586-.11327-.05468-.1172m6.64062-10.95702l-.0586-.17188v-1.10937l.0586-.17188.17578-.0586.17188-.05858h.17578l.23437-.0586.1172.0586.05858.69921-.05859.17188-.11719.17578-.11718.0586-.23438.52343-.11328.0586h-.23438l-.05859-.1172m9.61328-14.39062l-.11719-.17578v-.69922l.29297-.875.1172-.17187.17577-.35156.11328-.23047.1172-.29297.35155-.75781.1172-.23047.17187-.23438h.17578l.11719-.0586h.64062l.11719.0586.23437.23438.17188.11328.35156.29297.11719.11718.11328.17579v.11328l.11719.05859.11718.11719v.69922l-.05859.17578v.23047l-.0586.17578-.34765 1.05078-.11719.23047-.11719.23437-.11718.0586-.23047.23437-.64063.28906h-.875l-.41015-.11718-.64063-.46485"/><path fill="none" stroke="#bebebe" stroke-linecap="round" stroke-linejoin="round" stroke-miterlimit="10" stroke-width=".5" d="M467.95703 311.69531H144.02734v168.625h323.9297v-168.625"/><g clip-path="url(#a)"><path fill="#fff" fill-opacity="0" fill-rule="evenodd" d="M144 475.89063v4.4375h.0039H144V311.67188h.0039H144v164.21875"/></g><g clip-path="url(#b)"><path fill="#fff" fill-opacity="0" fill-rule="evenodd" d="M144.0039 480.32813V311.67188h62.13282v103.8789l-3.20313 2.64063-1.23437 1.8125-4.4375.33593-4.4414 2.23438-4.4375-.0664-4.4375-.48048-2.25.60157-2.1875.40234-4.44141-.07813-4.4375 1.25-4.4375.36329-3.84766 2.5039-.58984.16797-3.76172 4.26953.26172 4.4375-.2422 4.4375-.11327 4.4375-.11719 4.4414.04297 4.4375-.0039 4.4375 2.42577 4.4375 1.50782 1.3125 1.39843-1.3125 3.03907-1.29687 4.4375.00391 4.4375-.45313 4.4414-1.1953 4.4375.26171 4.4375-.00781 4.4375 1.8164 4.4414-1.78125 4.4375.52735 4.4375-.90625 3.10548-1.40625 1.33203-1.57813 3.17187-2.85937 1.26953-.98828v6.88281l-1.84765 2.98047 1.84766 1.66797 1.82421-1.66797-1.82422-2.98047v-6.88281l4.4375.05078 4.4375-2.97656 4.4375 3.54296 1.4961-4.0664-1.4961-2.98438-4.4375 1.84375-3.22656-3.30078-1.21094-.4336-1.25.4336-3.1875 1.30469-4.4414 1.80469-4.4375-1.49219-4.4375-1.45703-.16797-.16016.16797-.21484 3.25-4.22266 1.1875-2.6875 4.4375.09766 2.82422-1.84766 1.61719-.8164 4.4375-1.9297 4.4375.03517 3.0625-1.72657-3.0625-2.3711-3.70313-2.0664-.73438-.7539-4.0078-3.6875-.4297-.64844-4.4414-2.1836-1.51563-1.60546-2.92187-2.64063v-103.8789h22.1914v110.60156l-.3828.35547.3828.36328.70313-.36328-.70313-.35547V311.67188h4.4375v120.4414l-4.03515 3.83203 4.03516 3.875v17.57422l-1.57032.74219-2.86719 1.07031-3.97265-1.07031-.46484-.23828-.29688.23828-.71484 4.4375 1.01172.8711 4.4375.89452 1.9414-1.76562 2.4961-3.90625 3.3125-.53125-3.3125-.74219v-17.57422l3.5.5625.9414.33594L241.64453 444l4.4375-2.14844 1.4375-1.46875-1.4375-1.49219-4.4375-2.16796-4.4375 3.26562-1.26562-4.04297-3.17578-3.83203v-120.4414h48.82421v122.0664l-2.10937 2.20703 2.10937 1.89844 2.76954-1.89844-2.76954-2.20703v-122.0664h106.51954v145.66796l-3.10547.79688-1.33204.1914-4.4375 1.29297-2.05078 2.95313 2.05079 1.875 3.26171 2.5664 1.17579 3.89063.57421.54688-.57421.33593-1.3125 4.10156 1.3125 1.45704 2.43359-1.45704 2.0039-2.65625 1.90625-1.78125 2.39454-4.4375-.03125-4.4414-3.125-4.4375-1.14454-.79688V311.67188h79.88672v168.65625h-75.01171l-.4375-.4297-.57422.4297H144.0039"/></g><path fill="#50fcfc" fill-rule="evenodd" d="M157.82422 453.69922l-.04297-4.4375.11719-4.4414.11328-4.4375.24219-4.4375-.26172-4.4375 3.76172-4.26954.58984-.16797 3.84766-2.5039 4.4375-.36329 4.4375-1.25v1.95313l-4.4375 1.84766-1.96875.3164-2.46875.55078-4.4375.91797-2.61328 2.96875.87109 4.4375-.51563 4.4375-.1328 4.4375-.06642 4.4414-.25 4.4375.33594 4.4375 2.3711 2.9336 4.4375-2.51172 4.4375.375 3.09375-.79687 1.34375-.45703 4.4414-1.86719 4.4375.77734 4.4375-.39453 4.4375-1 4.4414.1289 1.58204-1.625 1.57422-4.4375-3.15625-2.99608-2.82813-1.44532 2.82813-1.17187 2.83203-3.26563-2.83203-3.15234-4.4414 1.30078-4.37891-2.58594-.0586-.03125-4.4375-.40625-2.1836-4-1.92187-4.4375-.33203-.05078-4.4414-2.11328v-1.95313l4.4414.07813 2.1875-.40234 2.25-.60157 4.4375.48047v1.55469l-.13281 3.00781.13281.29688.26953-.29688-.26953-3.00781v-1.55469l4.4375.0664 4.4414-2.23437 4.4375-.33593v6.36718l-.77343.69922-3.66406 1.82813-2.09375 2.60937 2.09375 2.97266 3.09375-2.97266 1.34375-3.3086 1.78906-1.1289-1.78906-.69922v-6.36718l1.23437-1.8125 3.20313-2.64063 2.92187 2.64063 1.51563 1.60546v6.9297l-.50781.34374.5078.13672.28126-.13672-.28125-.34375v-6.92969l4.4414 2.1836.4297.64844 4.0078 3.6875.73438.7539 3.70313 2.0664 3.0625 2.3711-3.0625 1.72656-4.4375-.03515-4.4375 1.92969-1.6172.8164-2.82421 1.84766-4.4375-.09766-1.1875 2.6875-3.25 4.22266-.16797.21484.16797.16016 4.4375 1.45703 4.4375 1.49219 4.4414-1.80469 3.1875-1.30469 1.25-.4336 1.21094.4336 3.22656 3.30078 4.4375-1.84375 1.4961 2.98438-1.4961 4.0664-4.4375-3.54296-4.4375 2.97656-4.4375-.05078-1.26953.98828-3.17187 2.85937-1.33203 1.57813-3.10547 1.40625-4.4375.90625-4.4375-.52735-4.4414 1.78125-4.4375-1.8164-4.4375.00781-4.4375-.26172-4.44141 1.19531-4.4375.45313-4.4375-.0039-3.03907 1.29687-1.39843 1.3125-1.50782-1.3125-2.42578-4.4375.0039-4.4375"/><path fill="#00e8fc" fill-rule="evenodd" d="M159.38281 458.13672l-.33594-4.4375.25-4.4375.06641-4.4414.13281-4.4375.51563-4.4375-.8711-4.4375 2.61329-2.96876v2.16797l-.70703.80078.70703 2.11328v15.96485l-.66797 4.11328.66797 3.5 1.26172-3.5-1.26172-4.11328v-15.96485l2.26562-2.11328-2.26562-.80078v-2.16797l4.4375-.91797 2.46875-.55078 1.96875-.3164v3.74218l-1.9336 1.01172 1.9336 1.11719 2.92578-1.11719-2.92578-1.01172v-3.74218l4.4375-1.84766 4.4414 2.11328.33203.05078 1.92188 4.4375 2.1836 4v8.28125l-4.4375.36719-1.10548.66406-3.33593 3.80469-.53516.63672.53516.79297 4.4414-.3711 4.4375 1.02735 3.46485-1.44922-.19532-4.4414-3.26953-1.03126v-8.28125l4.4375.40625.0586.03125 4.3789 2.58594 4.4414-1.30078 2.83204 3.15234-2.83203 3.26563-2.82813 1.17187 2.82813 1.44531 3.15625 2.9961-1.57422 4.4375-1.58203 1.625-4.4414-.1289-4.4375 1-4.4375.39452-4.4375-.77734-4.44141 1.86719-1.34375.45703-3.09375.79687-4.4375-.375-4.4375 2.51172-2.3711-2.9336"/><path fill="#00d4fc" fill-rule="evenodd" d="M161.7539 433.6211l-.70702-2.11329.70703-.80078 2.26562.80078-2.26562 2.11328m0 23.57813l-.66797-3.5.66797-4.11328 1.26172 4.11328-1.26172 3.5m8.875-24.57422l-1.9336-1.11719 1.9336-1.01172 2.92578 1.01172-2.92578 1.11719m4.4375 17.42969l-.53516-.79297.53516-.63672 3.33593-3.80469 1.10547-.66406 4.4375-.36719 3.26953 1.03125.19532 4.4414-3.46485 1.44923-4.4375-1.02735-4.4414.3711"/><path fill="#fff" fill-opacity="0" fill-rule="evenodd" d="M188.38281 424.0625l-.13281 3.00781.13281.29688.26953-.29688-.26953-3.00781"/><path fill="#00e8fc" fill-rule="evenodd" d="M197.26172 434.48047l-2.09375-2.97266 2.09375-2.60937 3.66406-1.82813.77344-.69922 1.78906.69922-1.78906 1.1289-1.34375 3.3086-3.09375 2.97266m13.3125-7.27344l-.50781-.13672.5078-.34375.28126.34375-.28125.13672"/><path fill="#50fcfc" fill-rule="evenodd" d="M215.01563 464.24219l-1.84766-1.66797 1.84766-2.98047 1.82421 2.98047-1.82422 1.66797m8.875-.79688l-1.01171-.8711.71484-4.4375.29688-.23827.46484.23828 3.97266 1.07031 2.86718-1.07031 1.57031-.74219 3.3125.74219-3.3125.53125-2.49609 3.90625-1.9414 1.76562-4.4375-.89453m4.4375-40.45312l-.38282-.36328.38281-.35547.70313.35547-.70313.36328m4.4375 16.82812l-4.03515-3.875 4.03516-3.83203 3.17578 3.83203 1.26562 4.04297 4.4375-3.26562v1.41796l-2.7539 2.2422 2.7539 2.21874 3.08984-2.21875-3.08984-2.24219v-1.41796l4.4375 2.16796 1.4375 1.4922-1.4375 1.46874L241.64453 444l-4.4375-3.28125-.9414-.33594-3.5-.5625"/><path fill="#00e8fc" fill-rule="evenodd" d="M241.64453 442.60156l-2.7539-2.21875 2.7539-2.24219 3.08984 2.2422-3.08984 2.21874"/><path fill="#50fcfc" fill-rule="evenodd" d="M281.58984 437.84375l-2.10937-1.89844 2.10937-2.20703 2.76954 2.20703-2.76954 1.89844m97.64454 26.60547l-2.05079-1.875 2.05079-2.95313 4.4375-1.29296 1.33203-.19141 3.10546-.79688v2.5l-4.1914 2.73438 3.82812 4.4414.36329.35547.29687-.35546 2.23047-4.44141-2.52735-2.73438v-2.5l1.14454.79688 3.125 4.4375.03125 4.4414-2.39454 4.4375-1.90625 1.78125-2.0039 2.65625-2.4336 1.45704-1.3125-1.45704 1.3125-4.10156.57422-.33594-.57421-.54687-1.17579-3.89063-3.26171-2.5664"/><path fill="#00e8fc" fill-rule="evenodd" d="M387.7461 467.01563l-3.82813-4.44141 4.1914-2.73438 2.52735 2.73438-2.23047 4.4414-.29688.35547-.36328-.35546"/><g clip-path="url(#c)"><path fill="#50fcfc" fill-rule="evenodd" d="M391.97266 480.32813l.57421-.4297.4375.4297h-1.01171"/></g><g clip-path="url(#d)"><path fill="#fff" fill-opacity="0" fill-rule="evenodd" d="M467.9961 480.32813H468V311.67188h-.0039H468v168.65625h-.0039"/></g><path fill="#fff" fill-opacity="0" fill-rule="evenodd" d="M203.61719 450.42188l3.57031-4.625-7.88281-6.08985-3.57031 4.6211 7.8828 6.09375"/><path fill-rule="evenodd" d="M199.32422 442.6836l.3125-.40626 4.98047 3.85157-.48047.62109-3.55469-2.7461-.84766 1.10157-.4414-.33985.29297-.48437.10937-.23047.07031-.23828.01172-.2461-.05859-.26562-.14844-.29297-.2461-.32422"/><path fill="#fff" fill-opacity="0" fill-rule="evenodd" d="M163.05469 468.69922l4.89062-3.19531-5.44531-8.33985-4.89063 3.1914 5.44532 8.34376"/><path fill-rule="evenodd" d="M161.53906 459.98047l.42578-.28125 3.44141 5.27344-.65625.42968-2.45703-3.7578-1.16016.7578-.30469-.46484.4336-.36328.17969-.17969.14453-.20312.09375-.22657.03125-.27343-.04297-.32422-.1289-.38672"/><g clip-path="url(#e)"><path fill="none" stroke="#000" stroke-linecap="round" stroke-linejoin="round" stroke-miterlimit="10" stroke-width=".5" d="M147.32031 481.48047l-6.64062-2.30469"/></g><g clip-path="url(#f)"><path fill="none" stroke="#000" stroke-linecap="round" stroke-linejoin="round" stroke-miterlimit="10" stroke-width=".5" d="M160.77344 480.95703l-6.91406-1.25781"/></g><g clip-path="url(#g)"><path fill="none" stroke="#000" stroke-linecap="round" stroke-linejoin="round" stroke-miterlimit="10" stroke-width=".5" d="M160.77344 480.95703l.7461 2.33594"/></g><g clip-path="url(#h)"><path fill="none" stroke="#000" stroke-linecap="round" stroke-linejoin="round" stroke-miterlimit="10" stroke-width=".5" d="M174.14063 480.22656l-7.02344.20313"/></g><g clip-path="url(#i)"><path fill="none" stroke="#000" stroke-linecap="round" stroke-linejoin="round" stroke-miterlimit="10" stroke-width=".5" d="M174.14063 480.22656l1.21484 2.13281"/></g><g clip-path="url(#j)"><path fill="none" stroke="#000" stroke-linecap="round" stroke-linejoin="round" stroke-miterlimit="10" stroke-width=".5" d="M187.36719 479.52734l-6.84375 1.60157"/></g><g clip-path="url(#k)"><path fill="none" stroke="#000" stroke-linecap="round" stroke-linejoin="round" stroke-miterlimit="10" stroke-width=".5" d="M186.3711 479.76172l.80859.92187"/></g><g clip-path="url(#l)"><path fill="none" stroke="#000" stroke-linecap="round" stroke-linejoin="round" stroke-miterlimit="10" stroke-width=".5" d="M200.69531 479.59766l-6.8711 1.46484"/></g><g clip-path="url(#m)"><path fill="none" stroke="#000" stroke-linecap="round" stroke-linejoin="round" stroke-miterlimit="10" stroke-width=".5" d="M199.69531 479.8086l.78906.9414"/></g><g clip-path="url(#n)"><path fill="none" stroke="#000" stroke-linecap="round" stroke-linejoin="round" stroke-miterlimit="10" stroke-width=".5" d="M213.84375 479.03516l-6.53516 2.58593"/></g><g clip-path="url(#o)"><path fill="none" stroke="#000" stroke-linecap="round" stroke-linejoin="round" stroke-miterlimit="10" stroke-width=".5" d="M212.89063 479.41406l.93359.79297"/></g><g clip-path="url(#p)"><path fill="none" stroke="#000" stroke-linecap="round" stroke-linejoin="round" stroke-miterlimit="10" stroke-width=".5" d="M226.82813 478.40234l-5.875 3.85157"/></g><path fill="none" stroke="#000" stroke-linecap="round" stroke-linejoin="round" stroke-miterlimit="10" stroke-width=".5" d="M225.97266 478.96094l1.07812.58984"/><g clip-path="url(#q)"><path fill="none" stroke="#000" stroke-linecap="round" stroke-linejoin="round" stroke-miterlimit="10" stroke-width=".5" d="M240.01563 478.21875l-5.6211 4.21875"/></g><path fill="none" stroke="#000" stroke-linecap="round" stroke-linejoin="round" stroke-miterlimit="10" stroke-width=".5" d="M239.19922 478.83594l1.10937.51953"/><g clip-path="url(#r)"><path fill="none" stroke="#000" stroke-linecap="round" stroke-linejoin="round" stroke-miterlimit="10" stroke-width=".5" d="M253.08594 477.92578l-5.1289 4.80469"/></g><path fill="none" stroke="#000" stroke-linecap="round" stroke-linejoin="round" stroke-miterlimit="10" stroke-width=".5" d="M252.33984 478.625l1.16016.39844"/><g clip-path="url(#s)"><path fill="none" stroke="#000" stroke-linecap="round" stroke-linejoin="round" stroke-miterlimit="10" stroke-width=".5" d="M266.0586 477.60547l-4.44532 5.44531"/></g><path fill="none" stroke="#000" stroke-linecap="round" stroke-linejoin="round" stroke-miterlimit="10" stroke-width=".5" d="M265.41016 478.39844l1.20312.23828"/><g clip-path="url(#t)"><path fill="none" stroke="#000" stroke-linecap="round" stroke-linejoin="round" stroke-miterlimit="10" stroke-width=".5" d="M279.17188 477.45313l-4.04297 5.75"/></g><path fill="none" stroke="#000" stroke-linecap="round" stroke-linejoin="round" stroke-miterlimit="10" stroke-width=".5" d="M279.17188 477.45313l2.43359.30468"/><g clip-path="url(#u)"><path fill="none" stroke="#000" stroke-linecap="round" stroke-linejoin="round" stroke-miterlimit="10" stroke-width=".5" d="M292.5039 477.46484l-4.07421 5.72657"/></g><path fill="none" stroke="#000" stroke-linecap="round" stroke-linejoin="round" stroke-miterlimit="10" stroke-width=".5" d="M292.5039 477.46484l2.4336.32032"/><g clip-path="url(#v)"><path fill="none" stroke="#000" stroke-linecap="round" stroke-linejoin="round" stroke-miterlimit="10" stroke-width=".5" d="M305.78516 477.4414l-4.00782 5.77344"/></g><path fill="none" stroke="#000" stroke-linecap="round" stroke-linejoin="round" stroke-miterlimit="10" stroke-width=".5" d="M305.20313 478.28125l1.21484.14453"/><g clip-path="url(#w)"><path fill="none" stroke="#000" stroke-linecap="round" stroke-linejoin="round" stroke-miterlimit="10" stroke-width=".5" d="M319.19922 477.51563l-4.20703 5.6289"/></g><path fill="none" stroke="#000" stroke-linecap="round" stroke-linejoin="round" stroke-miterlimit="10" stroke-width=".5" d="M318.58594 478.33203l1.21484.1875"/><g clip-path="url(#x)"><path fill="none" stroke="#000" stroke-linecap="round" stroke-linejoin="round" stroke-miterlimit="10" stroke-width=".5" d="M331.46484 476.97656l-2.10937 6.70313"/></g><path fill="none" stroke="#000" stroke-linecap="round" stroke-linejoin="round" stroke-miterlimit="10" stroke-width=".5" d="M331.16016 477.95313l1.20703-.22266"/><g clip-path="url(#y)"><path fill="none" stroke="#000" stroke-linecap="round" stroke-linejoin="round" stroke-miterlimit="10" stroke-width=".5" d="M344.61328 476.92969l-1.77734 6.79687"/></g><path fill="none" stroke="#000" stroke-linecap="round" stroke-linejoin="round" stroke-miterlimit="10" stroke-width=".5" d="M344.35547 477.91797l1.19531-.28125"/><g clip-path="url(#z)"><path fill="none" stroke="#000" stroke-linecap="round" stroke-linejoin="round" stroke-miterlimit="10" stroke-width=".5" d="M358.03125 476.95703l-1.97656 6.74219"/></g><g clip-path="url(#A)"><path fill="none" stroke="#000" stroke-linecap="round" stroke-linejoin="round" stroke-miterlimit="10" stroke-width=".5" d="M371.64844 477.0625l-2.58203 6.53516"/></g><g clip-path="url(#B)"><path fill="none" stroke="#000" stroke-linecap="round" stroke-linejoin="round" stroke-miterlimit="10" stroke-width=".5" d="M381.07422 482.69531l5.19531-4.73047"/></g><g clip-path="url(#C)"><path fill="none" stroke="#000" stroke-linecap="round" stroke-linejoin="round" stroke-miterlimit="10" stroke-width=".5" d="M393.83984 481.89453l6.29297-3.1289"/></g><g clip-path="url(#D)"><path fill="none" stroke="#000" stroke-linecap="round" stroke-linejoin="round" stroke-miterlimit="10" stroke-width=".5" d="M394.7539 481.4375l-.99609-.71484"/></g><g clip-path="url(#E)"><path fill="none" stroke="#000" stroke-linecap="round" stroke-linejoin="round" stroke-miterlimit="10" stroke-width=".5" d="M407.7539 482.75l5.09376-4.84375"/></g><g clip-path="url(#F)"><path fill="none" stroke="#000" stroke-linecap="round" stroke-linejoin="round" stroke-miterlimit="10" stroke-width=".5" d="M422.69531 483.71875l1.84375-6.78125"/></g><g clip-path="url(#G)"><path fill="none" stroke="#000" stroke-linecap="round" stroke-linejoin="round" stroke-miterlimit="10" stroke-width=".5" d="M440.09375 481.86328l-6.32422-3.07031"/></g><g clip-path="url(#H)"><path fill="none" stroke="#000" stroke-linecap="round" stroke-linejoin="round" stroke-miterlimit="10" stroke-width=".5" d="M453.70313 480.96094l-6.91407-1.26563"/></g><g clip-path="url(#I)"><path fill="none" stroke="#000" stroke-linecap="round" stroke-linejoin="round" stroke-miterlimit="10" stroke-width=".5" d="M452.69531 480.77734l.3711 1.17188"/></g><g clip-path="url(#J)"><path fill="none" stroke="#000" stroke-linecap="round" stroke-linejoin="round" stroke-miterlimit="10" stroke-width=".5" d="M464.58594 480.32813l-.02344-.19922-.05469-.19141-.09765-.17578-.45704-.3789-.1914-.0586-.19922-.01953-.19922.01953-.1914.0586-.46094.3789-.09375.17578-.0586.1914-.01953.19923.01953.19921.0586.19141.09375.17969.46094.375.1914.0586.19922.01952.19922-.01953.1914-.0586.45704-.375.09765-.17968.05469-.1914.02344-.19922"/></g><g clip-path="url(#K)"><path fill="none" stroke="#000" stroke-linecap="round" stroke-linejoin="round" stroke-miterlimit="10" stroke-width=".5" d="M147.47266 467.54688l-6.94532-1.06641"/></g><path fill="none" stroke="#000" stroke-linecap="round" stroke-linejoin="round" stroke-miterlimit="10" stroke-width=".5" d="M146.46094 467.39063l.40625 1.16015m13.88672-.8164l-6.87891-1.44141m5.8789 1.23047l.33985 1.17968m14.02734-2.10156l-6.98047.82422m6.98047-.82422l1.39844 2.01563M187.25 465.8203l-6.60938 2.38672m6.60938-2.38672l1.82031 1.64453m11.41406-1.84765l-6.44921 2.79297m6.44922-2.79297l1.91796 1.53125m11.08594-2.09766l-5.82812 3.92578m5.82812-3.92578l2.16797 1.15234m11.0586-1.28125l-5.64844 4.1836m5.64843-4.1836l2.21485 1.0547m11.04687-1.125l-5.54297 4.32421m5.54297-4.32422l2.23828 1m10.91797-1.1875l-5.22265 4.69922m5.22265-4.69922l2.30469.83985m10.69531-1.14844l-4.59375 5.3164m4.59375-5.3164l2.39453.54687m11.03125-.44922l-4.8125 5.1211m4.8125-5.1211l2.3672.64454m11.05858-.53125l-5.03906 4.89453m5.03906-4.89453l2.33594.75m-3.0664-.03907l1.16796.375m13.0625-.8828l-5.40625 4.48827m5.40625-4.48828l2.26954.92969m11.13671-.8125l-5.58984 4.2539m5.58985-4.2539l2.23046 1.02344m11.05079-1.06641l-5.52344 4.34375m5.52344-4.34375l2.24609.98828m10.7461-1.34766l-4.875 5.0586m4.875-5.0586l2.35937.67188m10.42969-1.08984l-3.82422 5.89453m3.82421-5.89453l2.44532.21093m11.00781-.11718l-4.10156 5.70703m3.5039-4.875l1.21875.16406m8.14063-.60938l5.00781 4.9336m7.30469-2.67188l7.01172.41016m-5.99219-.35156l-.51172-1.11328m14.91406-1.96485l2.79688 6.44922m-2.39063-5.51172l.76563-.95703m15.33203.22266l-3.58203 6.04297m3.58203-6.04297l2.45313.11328m11.20703.11719l-4.26954 5.58203m4.26954-5.58203l2.42187.40234m10.40625-.71484l-3.29297 6.20703m2.8125-5.30469h1.22656m12.94532-.67187l-4.04688 5.74609m3.45703-4.91016l1.21875.15235"/><g clip-path="url(#L)"><path fill="none" stroke="#000" stroke-linecap="round" stroke-linejoin="round" stroke-miterlimit="10" stroke-width=".5" d="M147.4375 454.42578l-6.875-1.45312"/></g><path fill="none" stroke="#000" stroke-linecap="round" stroke-linejoin="round" stroke-miterlimit="10" stroke-width=".5" d="M147.4375 454.42578l.67969 2.35938m12.71094-3l-7.02735-.17578m7.02734.17578l1.09766 2.1953m12.17969-2.78515l-6.95313 1.00782m6.95313-1.00782l1.45312 1.97657m11.57813-2.94532l-6.38281 2.94532m5.45312-2.51563l.97656.73828m13.35547-.96094l-6.5586 2.52735m5.60548-2.15625l.92578.80078m12.96484-1.88672l-5.80469 3.96094m4.96094-3.38672l1.08594.57031m13.10938-1.09375l-5.875 3.85547m5.875-3.85547l2.15234 1.17969m11.1289-1.23047l-5.80468 3.96094m5.80469-3.96094l2.17187 1.14063m10.70313-1.66797l-4.92579 5.01172m4.92578-5.01172l2.35157.69922m-3.07031.03125l1.17578.34765m12.84765-1.08594l-4.90625 5.03125m4.90625-5.03125l2.35547.69141m11.2539-.36719l-5.49609 4.3789m5.4961-4.3789l2.25.98047m-3.05078-.33984l1.1289.48828m13-1.10938l-5.52343 4.34375m5.52343-4.34375l2.2461.9922m-3.04688-.35938l1.1211.49609m13.40234-.47656l-6.33594 3.03515m6.33594-3.03515l1.97656 1.45703m-2.89844-1.01563l.98829.73047m13.3125-1.02734l-6.46485 2.75m6.46485-2.75l1.91015 1.54297m11.21875-1.91797l-6.09375 3.5m6.09375-3.5l2.07813 1.30469m-2.96485-.79688l1.03907.65235m12.80078-1.6797l-5.3672 4.53907m5.3672-4.53906l2.27734.91015m10.625-1.32421l-4.54297 5.36328m4.54297-5.36328l2.39844.52343m-3.0586.25782l1.19922.26171m13.0039-.82812l-5 4.9375m5-4.9375l2.34376.73437m11.6914.32422l-6.4375 2.82032m6.4375-2.82032l1.92188 1.51953m10.61719-2.6328l-4.88672 5.04687m4.17578-4.3125l1.17969.33984m7.57422-.63281l5.66015 4.16406m13.94532-2.6914l-6.92188 1.21874m5.91406-1.04296l.7539.96484m12.8086-2.78125l-5.40234 4.4961m4.61719-3.83985l1.1328.46484m12.51954-1.5664l-4.50781 5.39062m4.50781-5.39062l2.40234.5039m11.32032-.10547l-5.32032 4.59375m4.54297-3.92578l1.14453.44532"/><g clip-path="url(#M)"><path fill="none" stroke="#000" stroke-linecap="round" stroke-linejoin="round" stroke-miterlimit="10" stroke-width=".5" d="M147.46875 440.95313l-6.9375-1.14063"/></g><path fill="none" stroke="#000" stroke-linecap="round" stroke-linejoin="round" stroke-miterlimit="10" stroke-width=".5" d="M146.45703 440.78906l.39453 1.16016m13.8711-.71485l-6.81641-1.69921m5.82422 1.44922l.30078 1.1914m13.98438-.85937l-6.77344-1.8672m5.78906 1.59767l.26563 1.1953m14.01171-2.8789l-6.72656 2.03906m5.7461-1.74218l.86718.87109m13.47266-1.0039l-6.8164 1.71484m6.8164-1.71485l1.64453 1.81641m11.4375-2.46484l-6.35156 3.0078m6.35156-3.0078l1.96875 1.46484m10.6289-2.46875l-4.91406 5.01953m4.91407-5.01953l2.35547.6914m11.3164-.28515l-5.6289 4.20313m5.6289-4.20313l2.22266 1.04688m9.71094-2.15235l-2.86329 6.41797m2.86328-6.41797l2.44922-.16797m10.9375.19922l-3.0078 6.35156m3.0078-6.35156l2.44922-.11328m10.51563-.02734l-2.3086 6.63672m2.3086-6.63672l2.42578-.375m11.79297.84375l-4.11328 5.6953m4.11328-5.6953l2.42968.33203m10.8125-.38281l-3.97265 5.79687m3.97265-5.79687l2.44141.27734m-3.01953.5664l1.22266.13672m12.84375-.85546l-4.31641 5.54687m4.3164-5.54687l2.41797.42187m-3.04687.38672l2.41797.42187m12.10156-.66406l-5.46484 4.41797m5.46484-4.41797l2.25781.96094m-3.05468-.32031l1.1289.48047m13.0664-1.01172l-5.63671 4.1953m5.63672-4.1953l2.21875 1.05078m-3.03906-.4414l1.10937.52734m12-2.0586l-3.58203 6.04297m3.58203-6.04297l2.45313.11328m-2.97266.76563l1.22656.05469m11.5586-1.34766l-1.48438 6.86719m1.48438-6.8672l2.35937-.66796m7.7461 1.60156l4.9375 5m-4.9375-5l.73046-2.33984m15.56641 8.3164l-1.02734-6.95312m.8789 5.9414l-.98828.73048m11.25-.9336l5.375-4.52344m-4.59375 3.8672l-1.13672-.46095m19.8711-1.10546l-7.02735-.07422m7.02735.07422l1.1289 2.17578m10.64063-5.125l-3.9336 5.8203m3.9336-5.8203l2.4414.2578m9.39844-.82421l-.98047 6.95703m.98047-6.95703l2.30469-.83984m13.50781 2.47265l-5.98047 3.6914m5.10938-3.15624l1.0625.6211"/><g clip-path="url(#N)"><path fill="none" stroke="#000" stroke-linecap="round" stroke-linejoin="round" stroke-miterlimit="10" stroke-width=".5" d="M147.24219 428.42578l-6.48438-2.71484"/></g><path fill="none" stroke="#000" stroke-linecap="round" stroke-linejoin="round" stroke-miterlimit="10" stroke-width=".5" d="M146.29688 428.03125l.11328 1.21875m14.1875-.9336l-6.56641-2.49609m5.61328 2.13282l.15234 1.21875m14.32813-1.7461l-6.98828-.71484m20.23437-.41406l-6.85156 1.54296m5.85547-1.3203l.80078.92968m13.36328-1.64453l-6.5586 2.52734m5.60548-2.16015l.92578.80468m13.14453-1.60156l-6.16016 3.38672m6.16016-3.38672l2.05078 1.34766m11.375-1.1211l-6.38281 2.9336m6.38281-2.9336l1.95313 1.48828m-2.87891-1.0625l.97266.7461m13.54687.83594l-6.9414-1.08204m6.9414 1.08204l.8086 2.3164m11.65625-5.19922l-5.2422 4.6836m5.2422-4.6836l2.30078.84766m10.64453-1.20313l-4.5 5.39454m4.5-5.39454l2.40234.5m-3.0586.28516l1.20313.25m13.16797-.64453L274.5 429.375m5.30078-4.61328l2.28906.875m-3.0625-.20313l1.14844.4375m12.08985-1.8203l-3.60157 6.03515m3.60156-6.03516l2.45313.1211m10.80078-.15625l-3.47656 6.10546m3.47656-6.10546l2.45313.0703m9.84765-.45702l-1.44922 6.8789m1.44922-6.8789l2.35547-.6797m-2.5664 1.6797l1.17968-.33985m13.57422-.14062l-3.90625 5.83984m3.90625-5.83984l2.4414.2461m-3.0078.60155l1.21875.125m13.6328 0l-5.84765 3.89454m5.84766-3.89454l2.16015 1.16016m-3.01171-.59375l1.08203.58203m12.64453-1.6875l-4.96485 4.97266m4.96485-4.97266l2.34765.71094m10.35157-1.20313l-3.73438 5.95704m3.73438-5.95704l2.44921.17579m10.83204-.19532l-3.66407 5.9961m3.66407-5.9961l2.44921.14453m-2.98437.72657l2.44922.14843M399 424.1875l-4.02734 5.76172M399 424.1875l2.4336.29688m-3.01954.54296l2.4336.29688m11.71875-.9414l-4.53125 5.37109m4.53125-5.3711l2.39843.51953m-3.05468.26172l2.39843.51953m11.20313-1.57421l-3.79297 5.91796m3.79297-5.91796l2.44531.20312m-2.9961.66016l2.44532.19922m11.14063-1.22266l-3.23047 6.23828m3.23046-6.23828L441 423.92188m-2.92188.93359l1.22657-.01172m11.03515-1.28906l-.1875 7.02734m.1875-7.02734l2.19922-1.08985m-2.22656 2.11329l1.09766-.54688m13.13671-.33594l-1.97265 6.7461m1.97265-6.7461l2.40235-.4961m-2.6875 1.47657l2.40234-.4961"/><g clip-path="url(#O)"><path fill="none" stroke="#000" stroke-linecap="round" stroke-linejoin="round" stroke-miterlimit="10" stroke-width=".5" d="M147.41406 414.58984l-6.82812-1.67578"/></g><path fill="none" stroke="#000" stroke-linecap="round" stroke-linejoin="round" stroke-miterlimit="10" stroke-width=".5" d="M146.41797 414.34766l.30078 1.1875m14.0039-.92578l-6.8164-1.71094m5.82422 1.46094l.29687 1.1914m14.10938-1.5664l-7.01172-.46094m7.01172.46094l1.00781 2.23828m12.29688-2.82813l-6.9922.71485m6.9922-.71485l1.36718 2.03906m11.6172-3.20703l-6.33204 3.05469m6.33203-3.05469l1.97656 1.45313m-2.89843-1.00781l.98828.72656m13.34765-.9414l-6.53125 2.59374m6.53125-2.59375l1.8711 1.58594m11.6875-.07813l-7.01563-.42578m20.1289-.97265l-6.61327 2.37109m6.61328-2.3711l1.8164 1.65235m11.61329-1.26953l-6.83985 1.60547m6.83985-1.60547l1.61718 1.84765m11.04297-3.21093l-5.53125 4.33594m5.53125-4.33594l2.24219.99219m11.3086-.64844l-6.00391 3.64844m6.0039-3.64844l2.10938 1.25m-2.98047-.71875l1.05469.625m12.96094-1.41406l-5.66016 4.16406m5.66015-4.16406l2.21094 1.0625m11.23438-.875l-5.92188 3.78906m5.0586-3.23828l1.0703.60156m11.53517-2.48438l-2.77735 6.45313m2.77735-6.45313l2.4453-.20312m12.08985 1.07812l-5.21875 4.70313m5.21875-4.70313l2.3086.83594m10.92968-.92187l-5.0625 4.87109m5.0625-4.8711l2.33203.76563m10.125-1.41797l-3.34765 6.17969m2.85937-5.28125l1.22656.01172m12.41407-.99219l-3.02344 6.34375m3.02344-6.34375l2.45312-.10937m11.98828.95703l-5.27343 4.64453m5.27343-4.64453l2.29688.86719m-3.0664-.19141l1.14843.4336m12.39844-1.60157l-4.20313 5.63281m4.20313-5.63281l2.42578.3711m-3.03516.44921l2.42578.3711m11.29688-1.33203l-3.79688 5.91406m3.79688-5.91406l2.44531.19921m-2.9961.66016l1.22266.10156m11.83204-1.34375l-2.17188 6.67969m2.17188-6.67969l2.41796-.42578m-2.73437 1.39453l1.20703-.21094m12.78906-.61718l-2.90234 6.39844m2.90234-6.39844l2.44922-.15625m-2.8711 1.08594l1.22266-.07813m11.89454-1.0664l-1.66407 6.82812m1.66406-6.82813l2.37891-.60547m11.10938.65235l-2.00782 6.73437m2.00782-6.73437l2.40625-.48438m-2.69922 1.46485l1.20312-.24219"/><g clip-path="url(#P)"><path fill="none" stroke="#000" stroke-linecap="round" stroke-linejoin="round" stroke-miterlimit="10" stroke-width=".5" d="M147.5039 400.17578l-7.0078.52735"/></g><path fill="none" stroke="#000" stroke-linecap="round" stroke-linejoin="round" stroke-miterlimit="10" stroke-width=".5" d="M146.48438 400.25l.65625 1.03906m13.54296.15235l-6.73437-2.00782m5.7539 1.71875l.2422 1.19922m14.16796-1.44531l-6.96484-.9336m6.96484.9336l.85547 2.29688m12.48047-3.01172l-7.00781.49218m7.0078-.49218l1.30079 2.08203m11.95313-2.53906l-6.88672 1.41015m6.88672-1.41015l1.5625 1.89062m10.45312-3.96875l-4.28906 5.5664m3.66797-4.7578l1.20703.20702m13.90234.60547l-6.63281 2.32032m6.63281-2.32032l1.80078 1.66797m-2.76562-1.32812l.90234.83203m13.3711-1.1875l-6.6211 2.35156m6.6211-2.35156l1.8125 1.65625m11.32421-2.07031l-6.26562 3.17968m6.26562-3.17968l2.00782 1.41406m11.0039-1.90625l-5.65625 4.16797m5.65625-4.16797l2.21094 1.0586m11.05078-1.13282l-5.54687 4.3125m5.54687-4.3125l2.23828 1.0039m-3.04687-.375l1.1211.5m13.01952-1.10156l-5.58593 4.26172m5.58593-4.26172l2.23047 1.02344m10.33985-1.75l-4.09375 5.71094m4.09375-5.71094l2.42968.32422m11.97657.95313l-6.27735 3.16015m6.27735-3.16015l2.0039 1.41406m10.41797-2.53906l-4.48828 5.40625m4.48828-5.40625l2.40234.49609m10.55079-.75781l-3.76563 5.93359m3.76563-5.9336l2.4453.1875m9.98829-.58984l-2.0039 6.73438m1.71093-5.7539l1.20313-.2422m14.17968.48047l-5.55468 4.30078m5.55468-4.30078l2.23828 1.00781m10.96094-1.15234l-5.32031 4.58985m5.32031-4.58985l2.28516.88672m-3.0586-.21875l1.14063.4414m12.76953-1.30077L394.5 402.92188m4.96875-4.96875l2.34766.71875m11.875.84375l-6.78125 1.84765m5.79297-1.58203l.84375.89453m12.4375-2.83594l-4.73438 5.19532m4.73438-5.19532l2.375.60938m-3.06641.14844l1.1914.30468m12.46485-1.33984l-4.03516 5.75m4.03516-5.75l2.4375.30078m11.08984-.14062l-4.45703 5.43359m4.45703-5.4336l2.40235.48438m-3.05078.30469l1.20312.24219m12.69531-1.08204l-4.33203 5.53125"/><g clip-path="url(#Q)"><path fill="none" stroke="#000" stroke-linecap="round" stroke-linejoin="round" stroke-miterlimit="10" stroke-width=".5" d="M465.72656 397.67188l2.41797.42968"/></g><g clip-path="url(#R)"><path fill="none" stroke="#000" stroke-linecap="round" stroke-linejoin="round" stroke-miterlimit="10" stroke-width=".5" d="M147.5 386.79688l-7 .65625"/></g><path fill="none" stroke="#000" stroke-linecap="round" stroke-linejoin="round" stroke-miterlimit="10" stroke-width=".5" d="M147.5 386.79688l1.34766 2.04687m11.97656-1.57422l-7.01953-.29297m7.01953.29297l1.0625 2.21094m12.03516-3.58985l-6.58204 2.46485m6.58203-2.46485l1.83594 1.625m10.14453-3.30859l-3.91406 5.83203m3.91406-5.83203l2.44141.25m9.13281-.83984l-.42969 7.01172m.3672-5.9922l1.11327-.5078m15.46875 2.1914l-6.83984 1.60547m6.83984-1.60547l1.6172 1.84375m11.77343-1.39062l-6.99219.69922m6.99219-.69922l1.35937 2.04297m11.16407-3.9375l-5.40625 4.48828m5.40625-4.48828l2.26953.92968m10.97265-1.01171l-5.26562 4.65234m5.26562-4.65235l2.30078.86329m-3.0664-.1875l1.14844.43359m12.59375-1.44531l-4.58594 5.32422m4.58594-5.32422l2.39453.53906m-3.0625.23438l1.19531.27343M278.75781 384l-3.21484 6.2461M278.7578 384l2.45313-.03125m-2.91797.9414l1.22656-.01952m12.97266-.63672l-4.05469 5.73828m4.05469-5.73828l2.4336.30859m11.1289-.11719l-4.55078 5.35547m3.89062-4.57422l1.19922.26172m12.60156-1.17969l-4.19922 5.63282m4.19922-5.63282l2.42578.3711m11.55079.26953l-5.51954 4.34765m5.51954-4.34765l2.24609.98828m10.71094-1.3789l-4.8047 5.1289m4.8047-5.1289l2.36718.64062m11.64844.27734l-6.20703 3.29297m6.20703-3.29297l2.03516 1.375m11.07422-1.71484l-5.79688 3.97265m5.79688-3.97265l2.17578 1.13672m-3.01953-.5586l1.08984.56641m13.11719-1.07031l-5.89453 3.82422m5.89453-3.82422l2.14844 1.1875m11.23046-1.08594l-6.01953 3.6211m6.01953-3.6211l2.10547 1.26172m10.22657-2.32031l-4.05079 5.74218m4.05079-5.74218l2.43359.30468m10.80469-.35937l-3.89844 5.84765M425 385.05079l1.21875.1211m12.85938-.82813l-4.29688 5.5586m4.29688-5.5586l2.42187.41406m10.29688-.78515l-3.10157 6.30078m2.65235-5.38672l1.22656-.03516m13.75.10156l-5.52734 4.33985"/><g clip-path="url(#S)"><path fill="none" stroke="#000" stroke-linecap="round" stroke-linejoin="round" stroke-miterlimit="10" stroke-width=".5" d="M466.32422 384.95313l2.2461.99609"/></g><g clip-path="url(#T)"><path fill="none" stroke="#000" stroke-linecap="round" stroke-linejoin="round" stroke-miterlimit="10" stroke-width=".5" d="M147.4961 374.17188l-6.9922-.72657"/></g><path fill="none" stroke="#000" stroke-linecap="round" stroke-linejoin="round" stroke-miterlimit="10" stroke-width=".5" d="M147.4961 374.17188l.92187 2.27343m-1.9414-2.3789l.46093 1.13671m13.89063-1.47656l-7.02735.16406m7.02734-.16406l1.20313 2.13672m-2.22656-2.11328l.60156 1.07031m13.54688-2.14844l-6.64844 2.27344m6.64844-2.27344l1.79296 1.67579m11.27344-2.23829l-6.14844 3.39844m6.14844-3.39844l2.0586 1.33985m11.55468-.63281l-6.74219 1.98046m6.7422-1.98046l1.71484 1.7539m-2.69532-1.46484l.85547.8789m13.09766-1.95703l-6.0586 3.5625m6.0586-3.5625l2.08984 1.28516m-2.97265-.76563l1.04687.64063m13.27734-.92188l-6.3125 3.08594m6.3125-3.08594l1.98829 1.4375m-2.90625-.98828l.99218.71875m13.42578-.71484l-6.68359 2.17969m6.6836-2.17969l1.76562 1.70313m-2.73828-1.38672l.88281.85156m12.9961-2.01172l-5.8672 3.86719m5.8672-3.86719l2.15625 1.17188m-3.00782-.60938l1.07422.58594m12.13281-2.125l-3.9453 5.82031m3.9453-5.82031l2.4375.26172m11.69922.51953l-5.58984 4.2539m5.58984-4.2539l2.23047 1.02734m11.29688-.71484l-6.01563 3.63281m6.01563-3.63281l2.10546 1.26172m11.5547-.5l-6.70313 2.10937m6.70312-2.10937l1.75 1.71875m11.38672-2.17188l-6.34766 3.01563m6.34766-3.01563l1.96875 1.46485m-2.89062-1.02735l.98437.73438m12.85938-1.8125l-5.5625 4.29687m5.5625-4.29687l2.23437 1.01171m11.09375-.99609l-5.58594 4.26172m5.58594-4.26172l2.23047 1.02735m11.66797.13671l-6.7539 1.9375m6.7539-1.9375l1.70312 1.76563m-2.68359-1.48438l.85156.88282m13.5-.94922l-6.86328 1.50781m6.86328-1.50781l1.58985 1.86719m11.66406-2.10547l-6.74219 1.98437m6.74219-1.98437l1.71484 1.7539m11.6875-1.3711l-6.91797 1.21485m5.91407-1.03515l.7539.96484m13.42578-1.6875l-6.64062 2.30469m6.64062-2.30469l1.79688 1.66797m11.52734-1.64453l-6.65625 2.25781m5.6875-1.92969l.89063.83985m13.20703-1.60938l-6.28516 3.14063m5.3711-2.6836l1 .71094m13.28906-1.03906l-6.40625 2.88281m5.47656-2.46484l.96875.75m13.45703-.66797l-6.76953 1.88281"/><g clip-path="url(#U)"><path fill="none" stroke="#000" stroke-linecap="round" stroke-linejoin="round" stroke-miterlimit="10" stroke-width=".5" d="M147.41406 361.32422l-6.82812-1.66406"/></g><path fill="none" stroke="#000" stroke-linecap="round" stroke-linejoin="round" stroke-miterlimit="10" stroke-width=".5" d="M147.41406 361.32422l.60547 2.3789m-1.59766-2.62109l.30079 1.1914m14.07422-1.29687l-6.96094-.96875m6.96094.96875l.83984 2.30469m-1.85547-2.44531l.42188 1.15234m13.875-.8125l-6.89454-1.36719m6.89453 1.3672l.70704 2.35155m-1.71094-2.55078l.35156 1.17578m14.02344-1.41406l-7.00781-.49219m7.0078.4922l1 2.24218m-2.01952-2.3125l.5 1.1211m13.80469-1.82032l-6.94922 1.05078m6.94922-1.05078l1.46093 1.96875m-2.47265-1.8164l.73047.98437m13.51953-1.50781l-6.79297 1.79296m6.79297-1.79296l1.66797 1.80078m11.58203-2.01953l-6.66407 2.23046m6.66407-2.23046l1.78125 1.6875m11.3164-2.19532l-6.23047 3.2461m6.23047-3.2461l2.02344 1.39063m11.27344-1.42578l-6.19531 3.3164m6.1953-3.3164l2.03907 1.36719m11.09375-1.66797l-5.83203 3.91796m5.83203-3.91796l2.16797 1.15234m11.48047-.53516l-6.4961 2.6836m6.4961-2.6836l1.89062 1.5625m11.30078-1.83203l-6.24609 3.21875m6.2461-3.21875l2.01562 1.39844m11.35937-1.27344l-6.36718 2.97266m6.36718-2.97266l1.96094 1.47266m11.52734-1.02735l-6.71484 2.08204m6.71484-2.08204l1.7422 1.72657m11.5703-1.73047l-6.71093 2.08984m6.71093-2.08984l1.7422 1.72656m-2.71876-1.42187l.8711.86328m13.57812.00781l-7.02344-.26172m7.02344.26172l1.07031 2.20703m12.2461-2.25781l-7.02735-.16016m7.02735.16016l1.10156 2.1914m12.10937-3.12109l-6.8203 1.69531m6.8203-1.6953l1.64063 1.82812m-2.63281-1.57813l.82031.91016m13.26953-1.78125l-6.38281 2.9375m6.38281-2.9375l1.95313 1.48828m-2.88282-1.0586l1.95313 1.48438m12.26172-1.98047l-6.32422 3.07031m6.32422-3.0703l1.98047 1.44921m-2.90235-1l.99219.72266m13.1836-1.28907l-6.19923 3.3086m6.19922-3.3086l2.03516 1.3711m11.49219-.88281l-6.6289 2.33203m6.6289-2.33204l1.8086 1.66016m11.53124-1.58984l-6.67578 2.1875m5.70703-1.86719l.88281.84766m13.04297-1.9336l-5.96094 3.71875m5.09375-3.17578l1.0625.61328m13.46875-.42578l-6.65625 2.25781m5.6875-1.92968l.89063.84375"/><g clip-path="url(#V)"><path fill="none" stroke="#000" stroke-linecap="round" stroke-linejoin="round" stroke-miterlimit="10" stroke-width=".5" d="M147.32031 348.32813l-6.64062-2.30079"/></g><path fill="none" stroke="#000" stroke-linecap="round" stroke-linejoin="round" stroke-miterlimit="10" stroke-width=".5" d="M147.32031 348.32813l.3789 2.42578m-1.34374-2.75782l.1875 1.21094m14.15625-1.08984l-6.76953-1.8789m6.76953 1.8789l.53516 2.39453m-1.51954-2.66797l.26563 1.19922m14.03906-.9414l-6.77734-1.84766m6.77734 1.84765l.54297 2.39453m12.74219-2.28515l-6.71875-2.0664m6.71875 2.0664l.46484 2.41015m12.98828-3.08984l-6.99219-.70703m5.97266.60547l.46484 1.13672m13.8711-1.72657l-6.9961.67579m5.97657-.57813l.67578 1.02344m13.58594-1.5625l-6.85157 1.5586m5.85547-1.33204l.80078.92969m13.25391-1.89453l-6.33984 3.03515m6.33984-3.03515l1.97266 1.45703m11.42578-1.26953l-6.5039 2.66015m6.5039-2.66015l1.88672 1.5703m11.3789-1.68358l-6.40625 2.88671m6.40625-2.88671l1.9414 1.5039m11.2422-1.76562l-6.14454 3.41015m6.14454-3.41015l2.05859 1.33593m11.66016-.14062l-6.95313 1.01953m6.95313-1.01953l1.45312 1.97656m-2.46484-1.82812l.72656.98828m13.38672-1.92969l-6.52344 2.60938m6.52344-2.60938l1.875 1.58203m11.6914-.25781l-7.02734-.03906m7.02735.03906l1.14062 2.17187m-2.16406-2.17968l.57031 1.08593m13.71484-1.70312l-6.92187 1.20703m6.92187-1.20703l1.50782 1.9375m-2.51563-1.76172l.7539.96875m13.3711-1.84375l-6.52344 2.60938m6.52344-2.60938l1.875 1.58203m-2.82422-1.20312l.9375.78906m13.47266-.72266l-6.8164 1.71485m6.8164-1.71485l1.64453 1.82031m-2.63672-1.5703l.82422.91015m13.58984-.33985l-7.02734.07422m7.02734-.07421l1.17579 2.15234m-2.19922-2.14063l1.17578 2.15235m13.0625-2.95703l-6.82813 1.66015m6.82813-1.66015l1.63281 1.83203m-2.6289-1.58985l1.6328 1.83204m12.23438-3.1211l-5.9414 3.7539m5.9414-3.7539l2.1289 1.21485m-2.99218-.66797l2.1289 1.21484m12.07032-1.73047l-5.98047 3.6914m5.98047-3.6914l2.11719 1.24219m-2.98828-.70313l2.11718 1.23829m-2.98828-.70313l1.0586.6211m13.70312-2.10548l-5.39062 4.51172m5.39062-4.51171l2.27344.92187m-3.0586-.26563l2.27344.92188m11.72266-1.69531l-5.1836 4.7461m5.1836-4.7461l2.3125.82031m-3.0664-.1289l1.15624.41015m13.46875-.29297l-6.29297 3.1289m6.29297-3.1289l1.9961 1.42969m11.45312-1.1211l-6.5625 2.51172"/><g clip-path="url(#W)"><path fill="none" stroke="#000" stroke-linecap="round" stroke-linejoin="round" stroke-miterlimit="10" stroke-width=".5" d="M466.84375 345.92188l1.84766 1.61328"/></g><g clip-path="url(#X)"><path fill="none" stroke="#000" stroke-linecap="round" stroke-linejoin="round" stroke-miterlimit="10" stroke-width=".5" d="M147.47656 334.38281l-6.95312-1.03906"/></g><path fill="none" stroke="#000" stroke-linecap="round" stroke-linejoin="round" stroke-miterlimit="10" stroke-width=".5" d="M147.47656 334.38281l.8164 2.3125m-1.82812-2.46484l.81641 2.3125m13.5-3.2539l-6.9336 1.14843m6.9336-1.14844l1.49219 1.94922m-2.5-1.78125l1.48828 1.94922m12.7539-2.48828l-6.76953 1.89062m6.76953-1.89062l1.69141 1.77734m-2.67578-1.5l.84375.88672m13.54688-.73437l-6.95313 1.03125m6.95313-1.03125l1.45703 1.97656m-2.46875-1.82813l.72656.98829m13.48047-1.65625l-6.71485 2.0703m6.71485-2.0703l1.73828 1.73046m11.73047-.54687l-7.01953-.29688m7.01953.29688l1.0586 2.21484m12.2578-2.48828l-7.02343.25m7.02343-.25l1.22657 2.125m11.98828-2.83984l-6.82422 1.67969m6.82422-1.6797l1.63672 1.83204m11.78125-1.01953l-7.02735.05469m7.02735-.0547l1.16797 2.16016m12.14453-2.27343l-7.02344.28125m7.02344-.28125l1.23437 2.11718m-2.25781-2.07812l.6211 1.0625m13.64843-1.66797l-6.88281 1.41406m6.88281-1.41406l1.5625 1.89063m-2.5664-1.6836l.78515.9414m13.5-1.28515l-6.82031 1.6875m6.82031-1.6875l1.64063 1.82813m-2.63282-1.58204l.82032.91407m13.33203-1.64063l-6.50782 2.64844m6.50782-2.64844l1.8828 1.57422m11.60157-1.03125l-6.84765 1.5625m6.84765-1.5625l1.60547 1.85156m-2.60156-1.625l.80469.92579m13.59375-.21875l-7.01954-.3047m7.01954.3047l1.05859 2.21093m-2.08203-2.25781l.53125 1.10938m13.80078-.94141l-7.00781-.54688m7.0078.54688l.97657 2.25m-1.9961-2.32813l.48829 1.125m13.83984-1.6328l-6.9961.625m6.9961-.625l1.33985 2.05858m-2.35547-1.96875l.66797 1.03125m13.41797-2.14062l-6.50391 2.66406m6.5039-2.66406l1.88672 1.57031m-2.83593-1.1836l.9453.78517m13.29688-1.21875l-6.46093 2.7578m6.46093-2.7578l1.91016 1.53906m11.6875-.19922l-7.02734.07812m7.02734-.07812l1.17578 2.15234m12.07031-2.79687l-6.89062 1.36719m6.89062-1.3672l1.5547 1.89844m11.44921-2.80078l-6.26953 3.17188m6.26953-3.17188l2.00781 1.41016m-2.91797-.94922l1.00391.70703m12.58594-2.05469l-4.9961 4.94532m4.9961-4.94531l2.33984.72656m-3.0664-.00781l1.16796.36328m13.48047-.25l-6.21093 3.28125m6.21093-3.28125l2.03125 1.375m-2.9336-.89844l1.01563.6875m13.4336-.6211l-6.67578 2.19532"/><g clip-path="url(#Y)"><path fill="none" stroke="#000" stroke-linecap="round" stroke-linejoin="round" stroke-miterlimit="10" stroke-width=".5" d="M466.89844 332.76563l1.77344 1.69921"/></g><path fill="none" stroke="#000" stroke-linecap="round" stroke-linejoin="round" stroke-miterlimit="10" stroke-width=".5" d="M465.92969 333.08594l.88281.84765"/><g clip-path="url(#Z)"><path fill="none" stroke="#000" stroke-linecap="round" stroke-linejoin="round" stroke-miterlimit="10" stroke-width=".5" d="M147.28516 321.79688l-6.57032-2.4961"/></g><path fill="none" stroke="#000" stroke-linecap="round" stroke-linejoin="round" stroke-miterlimit="10" stroke-width=".5" d="M147.28516 321.79688l.30859 2.43359m-1.26563-2.79688l.15625 1.21485m14.33985-2.26563l-7.01953.33203m7.01953-.33203l1.2539 2.10938m-2.27343-2.0625l.625 1.05469m13.67969-1.42188l-6.96094.97266m6.96094-.97266l1.4414 1.98438m-2.45312-1.84375l.71875.99218m13.59765-1.21094l-6.9375 1.125m6.9375-1.125l1.48438 1.95313m-2.4961-1.78906l.7422.97656m13.6289-.6836l-7.02344.21485m7.02344-.21484l1.21484 2.1289m-2.23828-2.09765l.60938 1.0625m13.64453-1.75391l-6.85547 1.53516m6.85547-1.53516l1.59765 1.86328m-2.59375-1.64062l.79688.92968m13.41406-1.51171l-6.65625 2.2539m6.65625-2.2539l1.78516 1.68359M226.25 319.75l.89453.83984m13.29688-1.41015l-6.47266 2.73828m6.47266-2.73828l1.90625 1.54687M239.5 319.57812l.95313.77344m13.35156-1.05078l-6.57031 2.49219m6.5703-2.49219l1.84766 1.61719m-2.80078-1.2539l.92188.80859m13.4375-.90235l-6.75 1.95703m6.75-1.95703l1.71094 1.75781m-2.69532-1.47265l.85547.8789m13.5-.9375l-6.86328 1.50391m6.86328-1.5039l1.58985 1.86718m-2.58594-1.64844l.79297.9336m13.51172-1.17578l-6.85157 1.55078m6.85156-1.55078l1.60547 1.85547m-2.60156-1.63282l.80078.9297M307 319.13671l-6.4375 2.82031M307 319.13672l1.92188 1.52344m-2.85938-1.11329l.96094.76172m13.35547-1.0078l-6.56641 2.49608m6.5664-2.49609l1.84766 1.61328m-2.80078-1.25l.92188.80469m13.40625-1.0039l-6.6836 2.16796m6.6836-2.16797l1.76171 1.70313m-2.73437-1.39063l.88281.85547m13.5-.80469l-6.875 1.44141m6.875-1.4414l1.57422 1.8828m11.1289-3.25l-5.65234 4.17188m4.83204-3.5625l1.10546.52735m12.9922-1.1875l-5.57813 4.27734m4.76562-3.65625l1.11719.51172m12.91797-1.2461l-5.39453 4.50391m5.39453-4.5039l2.27344.92578m-3.0586-.26954l1.13672.46094m12.79688-1.30469l-5.0625 4.875m5.0625-4.875l2.33593.76563m-3.07031-.05469l1.16406.38281m12.61328-1.34765l-4.51562 5.38672m3.85937-4.60547l1.19922.25781m10.51563-1.85937v7.02734m14.90625-6.64453l-3.1836 6.26172m2.72266-5.35156l1.22656-.02344M452.375 317.75l-4.2539 5.59375m4.2539-5.59375l2.41797.39453m11.55469.26172l-5.57422 4.28125"/><g clip-path="url(#aa)"><path fill="none" stroke="#000" stroke-linecap="round" stroke-linejoin="round" stroke-miterlimit="10" stroke-width=".5" d="M466.34766 318.40625l2.23437 1.01563"/></g><g clip-path="url(#ab)"><path fill="none" stroke="#000" stroke-linecap="round" stroke-linejoin="round" stroke-miterlimit="10" stroke-width=".5" d="M465.53906 319.03125l2.23047 1.01563"/></g><path fill="#00f" fill-rule="evenodd" d="M388.23828 472.08594h8.61719V461.9414h-8.61719v10.14453"/><path fill="azure" fill-rule="evenodd" d="M390.07031 463.77344h.83594v2.82422h3.28516v-2.82422h.83203v6.48047h-.83203v-2.91797h-3.28516v2.91797h-.83594v-6.48047"/><path fill="#ff3030" fill-rule="evenodd" d="M451.07031 458.77344h7.6914V448.625h-7.6914v10.14844"/><path fill="azure" fill-rule="evenodd" d="M452.90234 450.45703h.83204v5.74219h3.1953v.73828h-4.02734v-6.48047"/><path fill="#00f" fill-rule="evenodd" d="M383.80078 436.57813h8.61719v-10.14454h-8.61719v10.14454"/><path fill="azure" fill-rule="evenodd" d="M385.63281 428.26563h.83203v2.82421h3.28907v-2.82421h.83203v6.48046h-.83203v-2.91406h-3.28907v2.91406h-.83203v-6.48046"/><path fill="#ff3030" fill-rule="evenodd" d="M202.52344 423.26563h7.6914v-10.14844h-7.6914v10.14844"/><path fill="azure" fill-rule="evenodd" d="M204.35547 414.95313h.83203v5.73828h3.19531v.74218h-4.02734v-6.48046"/><path fill="#ff3030" fill-rule="evenodd" d="M371.17969 423.26563h7.6914v-10.14844h-7.6914v10.14844"/><path fill="azure" fill-rule="evenodd" d="M373.01172 414.95313h.83594v5.73828h3.1914v.74218h-4.02734v-6.48046"/><path fill="#00f" fill-rule="evenodd" d="M201.82813 392.19531h8.61718v-10.14453h-8.61719v10.14453"/><path fill="azure" fill-rule="evenodd" d="M203.66016 383.88281h.83203v2.82422h3.28906v-2.82422h.83203v6.48047h-.83203v-2.91406h-3.28906v2.91406h-.83203v-6.48047"/><path fill="#ff3030" fill-rule="evenodd" d="M189.20703 374.4414h7.6914v-10.14452h-7.6914v10.14453"/><path fill="azure" fill-rule="evenodd" d="M191.03906 366.1289h.83594v5.7422h3.1914v.73827h-4.02734v-6.48046"/><path fill="#ffffe0" fill-rule="evenodd" d="M332.86719 383.80469h22.17969v-10.1914h-22.1797v10.1914"/><path fill-rule="evenodd" d="M336.36719 375.44531h.50781v6.29688h-.78516v-4.48828h-1.39062v-.5586l.5625-.0625.25-.05469.23047-.08984.20312-.14062.17578-.21094.14063-.29297.10547-.39844m4.8125 0l.23047.01953.21875.0586.20703.08984.19531.11719.1875.15234.16797.17578.30469.41797.24218.49219.1797.54688.11327.58203.03516.58984-.03516.59375-.11328.58203-.17969.55469-.24218.5039-.3047.42579-.16796.17968-.1875.15235-.19531.125-.20703.09375-.21875.05469-.23047.01953-.23047-.01954-.21875-.05468-.20703-.09375-.19531-.125-.1836-.15235-.17187-.17968-.30079-.42579-.24609-.5039-.17969-.55469-.10937-.58203-.03906-.59375h.83203l.03125.5625.08203.50781.125.4414.16015.375.19141.30079.21094.21875.22265.13672.22657.04687.22656-.04687.22266-.13672.21093-.21875.19141-.30078.16016-.375.1289-.4414.08203-.50782.02735-.5625-.02735-.5625-.08203-.5-.1289-.4336-.16016-.36718-.1914-.29297-.21094-.21484-.22266-.12891-.22656-.04688-.22656.04688-.22266.1289-.21094.21485-.1914.29297-.16016.36719-.125.43359-.08203.5-.03125.5625h-.83203l.03906-.58984.10937-.58204.1797-.54687.24608-.49219.30079-.41797.17187-.17578.1836-.15234.1953-.11719.20704-.08984.21875-.0586.23047-.01953m5.09375 0h.50781v6.29688h-.78906v-4.48828h-1.38672v-.5586l.5586-.0625.2539-.05469.23047-.08984.20312-.14062.17188-.21094.14062-.29297.10938-.39844m2.82031 2.17578h.78906l.01953-.3164.0586-.28516.09765-.2539.14063-.21485.1836-.17187.22265-.12891.26562-.08203.3086-.02735.23437.02344.22656.0625.20313.10156.17969.13672.14844.17579.11328.20312.0703.23828.02735.26172-.02344.26953-.0664.22656-.10938.19141-.15625.17188-.19921.16015-.2461.16797-.63672.38672-.53515.3125-.4375.3164-.34766.32422-.26172.33594-.1914.35156-.125.3711-.07032.39453-.01953.41797h4.21094V381h-3.33203l.08203-.28125.11328-.23828.14844-.20313.1875-.17968.23047-.17188.28125-.17578.71484-.41406.41797-.20703.34375-.23047.28125-.25.21875-.26953.16406-.27735.10938-.28125.0664-.28515.01953-.28125-.04296-.38282-.1211-.35156-.1875-.30469-.25-.26562-.30078-.21094-.34766-.16015-.3789-.09766-.40625-.03516-.4375.03516-.39844.09765-.35547.16797-.30469.23438-.24609.30469-.1875.37109-.11328.44922-.04297.51562"/><path fill="#ffffe0" fill-rule="evenodd" d="M159.76953 362.8086h22.1836v-10.19141h-22.1836v10.1914"/><path fill-rule="evenodd" d="M163.26953 354.44922h.51172v6.29687h-.78906v-4.49218h-1.38672v-.5547l.5586-.0664.2539-.05078.22656-.08984.20313-.14453.17578-.20704.14062-.29687.10547-.39453m4.8164 0l.22657.01953.21875.05469.21094.08984.19531.1211.1836.14843.17187.17578.30078.42188.24219.49219.1836.54687.10937.57813.03906.58984-.03906.59375-.10938.58594-.1836.55469-.24218.5-.30078.42968-.17188.17969-.18359.15234-.19531.125-.21094.08985-.21875.0586-.22656.01952-.23047-.01953-.21875-.0586-.20703-.08984-.19922-.125-.1836-.15234-.17187-.17969-.30078-.42969-.24219-.5-.17969-.55468-.11328-.58594L166 357.6875h.83594l.02734.5664.08203.50391.125.4414.16406.375.19141.30079.21094.22266.22266.13671.22656.04688.22656-.04688.22266-.13671.21093-.22266.1875-.30078.16407-.375.125-.4414.08203-.50391.03125-.56641-.03125-.5586-.08203-.5-.125-.4375-.16407-.36327-.1875-.29297-.21093-.21485-.22266-.13281-.22656-.04297-.22656.04297-.22266.13281-.21094.21485-.1914.29296-.16407.36329-.125.4375-.08203.5-.02734.55859H166l.03906-.58984.11328-.57813.1797-.54687.24218-.4922.30078-.42187.17188-.17578.18359-.14844.19922-.12109.20703-.08984.21875-.05469.23047-.01953m5.08984 0h.50781v6.29687h-.78515v-4.49218h-1.39063v-.5547l.5625-.0664.25-.05078.23047-.08984.20313-.14453.17578-.20704.14062-.29687.10547-.39453M176 356.625h.78516l.01953-.3164.0586-.28516.10155-.2539.14063-.21485.17969-.17578.22265-.12891.26563-.07813.3086-.02734.23827.01953.22266.0625.20312.10156.1797.14063.14843.17188.11328.20703.07422.23437.02344.26563-.01953.26953-.06641.22265-.11328.19141-.15235.17188-.20312.16406-.2461.16406-.6328.39063-.53907.3125-.4375.3164-.34375.32422-.26563.33594-.1914.35156-.125.3711-.0664.39062-.02345.42187h4.21485v-.74218h-3.33594l.08594-.28516.11328-.23438.14844-.20312.1875-.17969.23047-.17187.27734-.17578.71875-.41797.41406-.20313.34375-.23047.28125-.2539.22266-.26563.16016-.27734.11328-.28516.0625-.28515.01953-.28125-.03906-.38282-.1211-.34765-.1914-.3086-.25-.26171-.30079-.21485-.34765-.15625-.3789-.09765-.40626-.03516-.4336.03125-.39843.10156-.35547.16406-.30469.23438-.25.30469-.18359.375-.11719.4453L176 356.625"/><path fill="#ffffe0" fill-rule="evenodd" d="M186.40234 439.47266h22.1797v-10.19141h-22.1797v10.1914"/><path fill-rule="evenodd" d="M189.90234 431.11328h.50782v6.29297h-.78516v-4.48828h-1.39063v-.55469l.5586-.0664.2539-.0547.23047-.08984.20313-.14062.17187-.21094.14453-.29297.10547-.39453m4.8125 0l.23047.01953.21875.05469.20703.08984.19532.1211.18359.14844.17188.17578.30468.41796.24219.4961.17969.54687.10937.57813.03906.58984-.03906.59375-.10937.58594-.17969.55078-.24219.5039-.30469.4297-.17187.17968-.1836.15235-.1953.12109-.20704.09375-.21875.05469-.23047.01953-.23047-.01953-.21875-.05469-.20703-.09375-.1953-.1211-.1875-.15234-.16798-.17969-.30469-.42968-.24218-.5039-.17969-.55079-.10938-.58594-.03906-.59375h.83203l.02735.5625.08203.50781.1289.44141.16016.375.1914.30078.21095.22266.22265.13672.22656.04687.22657-.04687.22265-.13672.21094-.22266.1914-.30078.16016-.375.1289-.4414.07813-.50782.03125-.5625-.03125-.5586-.07812-.5039-.1289-.4336-.16016-.36718-.19141-.29297-.21094-.21094-.22265-.1328-.22657-.04298-.22656.04297-.22266.13281-.21093.21094-.1914.29297-.16017.36719-.1289.4336-.08203.5039-.02735.5586h-.83203l.03906-.58985.10938-.57813.17969-.54687.24219-.4961.30468-.41796.16797-.17579.1875-.14843.19531-.1211.20703-.08984.21875-.05469.23047-.01953m5.08985 0h.51172v6.29297h-.78907v-4.48828h-1.38672v-.55469l.5586-.0664.2539-.0547.22657-.08984.20312-.14062.17578-.21094.14063-.29297.10547-.39453m2.82422 2.17578h.78906l.01953-.3164.0586-.28907.09765-.25.14063-.21484.17968-.17578.22656-.1289.26172-.07813.3086-.02735.23828.01954.22266.0625.20703.10156.17968.13672.14844.17578.11328.20312.07031.23828.02344.26563-.01953.26562-.0664.22657-.10938.1914-.15625.17188-.19922.16015-.25.16797-.63281.38672-.53516.3164-.4375.31641-.34765.32422-.26563.33594-.1875.35156-.125.36719-.07031.39453-.01953.41797h4.21094v-.73828h-3.33204l.08203-.28516.11329-.23828.14843-.19922.1875-.17969.23047-.17187.27735-.17578.71875-.41797.41406-.20313.34766-.23437.28125-.25.21875-.26563.16406-.27734.10937-.28515.0664-.28516.01954-.28125-.04297-.38281-.1211-.34766-.1875-.3086-.25-.26171-.30468-.21485-.34375-.15625-.38281-.10156-.40625-.03125-.4336.03125-.39843.09766-.35547.16797-.30469.23437-.2461.30469-.1875.375-.11718.44531-.03906.51953"/><path fill="#ffffe0" fill-rule="evenodd" d="M334.19531 339.16797H356.375v-10.1914h-22.17969v10.1914"/><path fill-rule="evenodd" d="M337.69531 330.8086h.50781v6.29296h-.78515v-4.48828h-1.38672v-.55469l.5586-.0664.25-.05469.23046-.08594.20313-.14453.17578-.20703.14062-.29688.10547-.39453m4.8125 0l.23047.01954.21875.05468.20703.08985.19922.12109.1836.14844.17187.17578.30078.42187.24219.4922.17969.54687.11328.57812.03906.58985-.03906.59375-.11328.58593-.1797.55469-.24218.5-.30078.42969-.17188.17969-.18359.15234-.19922.125-.20703.08984-.21875.0586-.23047.01953-.22656-.01953-.21875-.0586-.21094-.08984-.19531-.125-.1836-.15235-.17187-.17968-.30078-.42969-.24219-.5-.17969-.55469-.11328-.58594-.03906-.59375h.83594l.02734.56641.08203.5039.125.44141.16407.375.1914.30079.20703.22265.22266.13672.22656.04688.22656-.04688.22266-.13672.21094-.22265.1914-.30079.16407-.375.125-.4414.08203-.5039.02734-.56642-.02734-.55859-.08203-.5-.125-.4375-.16406-.36719-.19141-.28906-.21094-.21484-.22265-.13281-.22657-.04297-.22656.04296-.22266.13282-.20703.21484-.1914.28906-.16407.3672-.125.4375-.08203.5-.02734.55858h-.83594l.03906-.58984.11329-.57812.17968-.54688.24219-.49219.30078-.42187.17188-.17578.18359-.14844.19531-.1211.21094-.08984.21875-.05469.22656-.01953m5.09375 0h.50781v6.29297h-.78515v-4.48828h-1.39063v-.55469l.5625-.0664.25-.05469.23047-.08594.20313-.14453.17578-.20703.14062-.29688.10547-.39453m6.80469 1.6211h-.78906l-.05078-.21485-.08204-.18359-.10546-.16016-.13282-.1328-.14453-.10157-.16015-.07422-.16797-.04297-.17188-.01562-.32812.03906-.28906.1211-.2461.1953-.20312.26954-.16016.33593-.11719.40625-.07031.46485-.02344.52734.1914-.20312.1836-.16016.1875-.1211.1836-.08984.1875-.0586.1953-.03905.39845-.02344.30859.03125.32031.09375.3164.15234.29298.22266.25781.28125.19531.35156.07422.19922.05469.21875.02734.23438.0039.2539-.78515.04297-.02734-.25781-.07813-.25-.12109-.23438-.16016-.21094-.1953-.17578-.21876-.14062-.24219-.08594-.2539-.03125-.2539.03125-.2422.08594-.21875.14062-.1953.17579-.16017.21093-.12109.23438-.07812.25-.02735.25781.02735.26172.07812.25.1211.23437.16015.21094.19531.17578.21875.13672.2422.08985.2539.03125.2539-.03125.2422-.08985.21874-.13672.19531-.17578.16016-.21094.1211-.23437.07812-.25.02734-.26172.78516-.04297-.03125.36719-.08985.375-.16015.35547-.22266.32812-.28906.28516-.17188.11719-.1875.10156-.20312.08594-.22656.05859-.23828.03906-.26172.01563-.28516-.01563-.25781-.05078-.23828-.07422-.21485-.10547-.1953-.1328-.17188-.15626-.15625-.17969-.13672-.19921-.11328-.22266-.10157-.24219-.14843-.53515-.08204-.59375-.02734-.64063.03906-.74219.11329-.66406.1875-.57813.11718-.2539.14063-.23438.15234-.20703.16797-.17969.1875-.15625.20313-.1289.21875-.10156.23046-.07422.2461-.04297.26562-.01563.36328.03125.33204.09766.29687.15234.2539.19922.21485.23828.16406.27735.11719.30078.0625.32422"/></g></defs><use xlink:href="#ac"/></svg>