<svg xmlns="http://www.w3.org/2000/svg" role="img" xmlns:xlink="http://www.w3.org/1999/xlink" viewBox="142.45 309.95 326.84 171.84"><defs><clipPath id="a"><path d="M144 311.67188h1v168.65625h-1zm0 0"/></clipPath><clipPath id="b"><path d="M144 311.67188h324v168.65625H144zm0 0"/></clipPath><clipPath id="c"><path d="M392 480h1v.32813h-1zm0 0"/></clipPath><clipPath id="d"><path d="M467 311.67188h1v168.65625h-1zm0 0"/></clipPath><clipPath id="e"><path d="M144 479h4v1.32813h-4zm0 0"/></clipPath><clipPath id="f"><path d="M147 480h2v.32813h-2zm0 0"/></clipPath><clipPath id="g"><path d="M153 479h8v1.32813h-8zm0 0"/></clipPath><clipPath id="h"><path d="M160 480h2v.32813h-2zm0 0"/></clipPath><clipPath id="i"><path d="M167 478h8v2.32813h-8zm0 0"/></clipPath><clipPath id="j"><path d="M180 478h8v2.32813h-8zm0 0"/></clipPath><clipPath id="k"><path d="M193 479h8v1.32813h-8zm0 0"/></clipPath><clipPath id="l"><path d="M199 480h2v.32813h-2zm0 0"/></clipPath><clipPath id="m"><path d="M206 480h9v.32813h-9zm0 0"/></clipPath><clipPath id="n"><path d="M212 480h2v.32813h-2zm0 0"/></clipPath><clipPath id="o"><path d="M220 479h8v1.32813h-8zm0 0"/></clipPath><clipPath id="p"><path d="M226 479h2v1.32813h-2zm0 0"/></clipPath><clipPath id="q"><path d="M233 478h8v2.32813h-8zm0 0"/></clipPath><clipPath id="r"><path d="M239 478h2v2.32813h-2zm0 0"/></clipPath><clipPath id="s"><path d="M247 477h7v3.32813h-7zm0 0"/></clipPath><clipPath id="t"><path d="M261 477h6v3.32813h-6zm0 0"/></clipPath><clipPath id="u"><path d="M274 477h6v3.32813h-6zm0 0"/></clipPath><clipPath id="v"><path d="M288 476h5v4.32813h-5zm0 0"/></clipPath><clipPath id="w"><path d="M302 476h3v4.32813h-3zm0 0"/></clipPath><clipPath id="x"><path d="M316 476h2v4.32813h-2zm0 0"/></clipPath><clipPath id="y"><path d="M329 476h2v4.32813h-2zm0 0"/></clipPath><clipPath id="z"><path d="M342 476h3v4.32813h-3zm0 0"/></clipPath><clipPath id="A"><path d="M355 476h4v4.32813h-4zm0 0"/></clipPath><clipPath id="B"><path d="M368 476h5v4.32813h-5zm0 0"/></clipPath><clipPath id="C"><path d="M382 476h4v4.32813h-4zm0 0"/></clipPath><clipPath id="D"><path d="M393 478h8v2.32813h-8zm0 0"/></clipPath><clipPath id="E"><path d="M407 477h6v3.32813h-6zm0 0"/></clipPath><clipPath id="F"><path d="M419 479h9v1.32813h-9zm0 0"/></clipPath><clipPath id="G"><path d="M420 479h2v1.32813h-2zm0 0"/></clipPath><clipPath id="H"><path d="M434 477h6v3.32813h-6zm0 0"/></clipPath><clipPath id="I"><path d="M446 478h8v2.32813h-8zm0 0"/></clipPath><clipPath id="J"><path d="M452 479h2v1.32813h-2zm0 0"/></clipPath><clipPath id="K"><path d="M461 477h5v3.32813h-5zm0 0"/></clipPath><clipPath id="L"><path d="M144 466h4v2h-4zm0 0"/></clipPath><clipPath id="M"><path d="M465 464h3v2h-3zm0 0"/></clipPath><clipPath id="N"><path d="M144 453h4v2h-4zm0 0"/></clipPath><clipPath id="O"><path d="M144 440h4v1h-4zm0 0"/></clipPath><clipPath id="P"><path d="M144 425h4v4h-4zm0 0"/></clipPath><clipPath id="Q"><path d="M144 412h4v4h-4zm0 0"/></clipPath><clipPath id="R"><path d="M144 399h4v3h-4zm0 0"/></clipPath><clipPath id="S"><path d="M144 386h4v2h-4zm0 0"/></clipPath><clipPath id="T"><path d="M465 383h3v2h-3zm0 0"/></clipPath><clipPath id="U"><path d="M144 372h4v3h-4zm0 0"/></clipPath><clipPath id="V"><path d="M144 359h4v3h-4zm0 0"/></clipPath><clipPath id="W"><path d="M144 344h3v6h-3zm0 0"/></clipPath><clipPath id="X"><path d="M466 346h2v3h-2zm0 0"/></clipPath><clipPath id="Y"><path d="M144 333h4v2h-4zm0 0"/></clipPath><clipPath id="Z"><path d="M466 332h2v4h-2zm0 0"/></clipPath><clipPath id="aa"><path d="M144 319h4v3h-4zm0 0"/></clipPath><clipPath id="ab"><path d="M466 318h2v2h-2zm0 0"/></clipPath><clipPath id="ac"><path d="M465 318h3v3h-3zm0 0"/></clipPath><g id="ad" clip-path="url(#clip1)"><path fill="#fff" fill-opacity="0" fill-rule="evenodd" d="M0 0h1000v1000H0zm0 0"/><path fill="#d3d3d3" fill-opacity="0" fill-rule="evenodd" d="M162.15234 355.86719l-.23437.29297.0586.23437.11718.17188.17578.23437.29297.34766.11328.0586.11719-.17188.0586-.23438.17577-.17578.46485-.17578h.69922l.23437.29297.28906.8164.0586.17579.17578.23046.35156.23438.69922.69922.17188.17578.23437.34765.23438.41016.28906.58203.41015.46485.23047.23437.23438.17578.11719.23047.17578.29297.17187 1.16406v.23438l.0586.28906.05859.11719.11719.11719.34765.41015.11719.17188.17578.17578.17578.23437.11719.17188.17188.35156.05859.23438.23437.40625.23438-.0586-.17578.17578-.0586.92969h-.58203l-.23437-.11328-.34766.11328-.11719.11719-.05859.29297-.0586.17578-.11718.17187-.46484.29297-.0586.23438-.0586.11328v.64453l.0586.17187v.41016l.0586.0586v.40624l.05859.40625.11719.17579.05859.05859.23047.64062-.0586.29297v.69922l-.05859.58203v.23438l-.0586.23047-.05468.35156v1.92187l.05469.1172h.42578l-.36719.11718-.02344.35156.89063 1.16797 1.74219.53906 1.33984.35938v.53906l.08984.8086.53516.71484 1.51953.26953.89063-.08594.08984 1.16406.53516.1797 1.16015-.1797 2.05469-.98437 1.16016-.36328 1.8789-.17578 1.69531-.1797-.17968.71876-1.51563.08594-1.25.08984-.80469.26953-1.07421.8086.26953.71875.53515.89843-.17968.625-.26563.8086.26563 1.07812.625.89844.80468.17969 1.25-.1797-.26562.72267.09766.5039.05468.29297v.17188l.0586.29296v.40625l.17578.1172.35156.11718h.40625l.29297-.17578.11328-.11719.0586-.11719.11718-.23047.0586-.17578.35156-.46484.23047-.17578.17578-.0586.17578.0586.0586.17578.11718.98828.05469.46875.0586.17188.11718.23437.17578.0586.8164.05859h.28907l.11719.23437.05859.40625.0586.35156v1.10547l.11718.29297.11719.34766.28906.69922.17578.35156.58203.7539.35157.17579.17187.0586.46875.23437.64063.46484.34765.23438.29297.17578.29297.05468.23047.0625.8164.34766.29297.17578.11328.17188.35157.35156.11719.17578.52343.64063v.28906l.0586.35156v.34766l.05859.35156.0586.28906.11718.0586.17188.05859h.17578l.58203.23437.17578.1172.17578.28905.17578.23438.11328.23437.29297.23047.11719.11719v.41016l.0586.05468.28906.23438.23437.11719.0586.11718.11718.17188.0586.11719.23047.23437.05859.17578.23437.0586.1172.05859-.1172.11328-.05859.11719v.11719l-.11719.29296-.11719.28907v.58203l.17579.11719.11718.05859.0586.11719.11719.11719.11328.05859.17578.34765.0586.35157.05858.40625v.17578l-.05859.17578-.11719.69922v.17187l.1172.17579.29296.29296h.40625l.17578.1172.11719.17187.11719.29296v.23438h-.52735l-.23047-.23438h-.23437l-.17578.0586-.0586.69922.0586.34765.11719.17579.17578.41015.11718.23047.28907.46875.17578.05469h.52344l.23437.0586.75781.64062.0586.29296v.23438l.05859.0586.23047.34765v.35156l-.11719.17188v.29297l.29297.28906.29297.17578.17187.0586.29297.17577.29297.1172.58203.40624.28906.23438.29297.17578.21875.16015.01563.01172.23047.17579.64062.52343.17578.23438.1172.17578.17577.17578.11328.17188v.64062l.1172.17578.46874.11719.58203.11719.23438.05859.23047.11328.29297.11719.11328.0586.58593.35156.28907.17187.17578.0625.17578.05469.17578.0586.69922.35155.28906.17579.23438.05468.28906.17578.23437.1172.64063.40624.29297.11719.17187.0586.23438.05859.41015.05859.23047.0586.23438.11718.0586.17188-.41017.17578.46875.0586.0586.29296.11328.23438.17578.05468.23438.0586.17578.05859.40625.11719.64062.23437.11719.17188.0586.23437v.17578l-.0586.1172-.0586.40624.23438.23438.11719.05859.34766.11719.64062.23047.17578.11718.28906.1172.17578.17577.23438.46485.58203 1.10546.17578.17579.34766.17578.17578.11719.35156.11718 1.04688.52344.23437.0586.46485.11327.29297.0586.46484.17578.75781.58203.23438.23438.34765.46484.17578.17578.28907.23438.8164.69921.29297.17579.28906.28906.29297.17578.29297.28906.69531.64063.17578.17578.29297.23437.28907.23438.46875.28906.64062.58203.34766.23438.23437.29297.34766.34765.35156.46485.9336.99218.34765.40625.11719.17579.23437.05859.11328.11719.64454.17578.23047.11328.23437.0586.29297.17577.23047.1172.9336.69921.40624.40625.23438.17578.40625.17578.23437.11719.8164.34766.34766.23437.23438.11719.29297.28906.23047.11719.7578.35156.35157.17188.23047.05859.29297.11719.23437.0586.8711.17577h.8164l.46875.23047.17188.0586.875.69921.46484.1172.29297.05858.17578.0586.23047.0586.46875.05859.34766.05859.35156.0586.40625.05859h.29297l.17187.0586v.23046l.17578.17578h.29297l.34766.0586.35156.05859.69922.11719h.64063l.46484-.23438.29297-.17578.17187-.11719.41016-.17187.28906-.17578.9336-.46485.46875-.29297.52343-.29296.46485-.17188.46484-.17578 1.05078-.46485.28906-.11718.41016-.11719.28906-.11719.52735-.17578 1.51562-.69922.58203-.34765.28907-.0586.29297-.0586.34765-.11718.875-.23047.35156-.11719h.11329l.23437-.05859.875-.23437.23438-.0586h.8125l.35156-.0586.8164-.11718.17188-.0586.35156-.05468.29297-.0586.23047-.05859.8164-.17578.17579-.0586h.34765l.23438-.05859.46484-.11718.75781-.17188.23438-.0586h.34765l.41016-.11718.28906-.0586 1.28516-.05859h.28906l.41016-.0586.23047-.05858h.17578l.875-.1172h.40625l.41015-.11718h.34766l.35156-.11328.8711-.0586h1.75l1.04687.28907.41016.11719.28906.11718.35156.11719.28907.11719 1.05078.17187.28906.0586h.29297l.29297.05859.17187.0586.41016.05859.17187.0586.1172.05858h.11718l.11719.0586.35156.0586h.11328l.41016.0664 1.92187.39453 1.92578.39453 1.51953.44922 1.69532.71875 2.14453.80469 1.60547-.71875 1.42968-.80469 1.16016-1.07813 1.25-.44921 3.03516-.71875 1.875-.35938 2.14453-1.34765 2.23437-1.25391 2.5-1.25781 1.69531-.44922 1.78516-.17969 1.16016-.26953.625.53906 1.33984-.26953.71485-.98828.98437-1.34375.44531-.17969.80469-.35937 1.875-.53907 1.78516-.44921 1.25-.26954 1.16015-.08984 1.69922-.08984 1.96094-.26954 1.25-.08984h.53906l.625-.08984h.89063l2.14453-.17969 2.41015-.17969 2.58985-.08984 1.69531.17969 1.60938.08984 1.42968.35938 1.16016.71875 1.875.98828 1.16015 1.52734.26563.71484.6289.08985.35548.89844.53515.53906.53516 1.52734 1.07422.35938h.53515l-.80469.53515.08985 1.70703.71484 2.69532.89063.80468.89453.98829.71484 1.2578 1.78516.53907 1.51953-.17969.35547 1.34375 1.60937-.80469.98047-.53906.26953.26953.31641-.21484.21875-.14453.80078.44922.44922-.35938h.35547l.53515-.26953.53907-.71875.53515-.26953.625-.98828 1.16016.44922.83984.3711 1.39454.61718 1.6953-.17969h1.60548l1.78515.08985.17969-1.70704.53516-1.34375.80468.26954.4922.84765.40233.40625-.08984.53906v.35938l.71485.44922.71093-.26953h1.42969l.35938.98828.4453 1.25781.71485 1.34375 1.25.6289 1.69531.62891.71485-.17969.17969-.53906.98046-.08984.44922.35937.08594 1.25782-.26563.6289-.53515.17969v.53906l.71484.98438.26563.53906.98437.98828.80078 1.07813-.26562.35937-.08985.89844-.625 2.33203-.35546 2.0664-.08985 1.79298-.17969.71875-.08984.53906v1.4375l-.98047 1.88281-.35937 1.70703-.53516.89844-.80469 1.16797-.26562.53906 2.05469 1.2539.08593.35938-.35546.53906-.08985-.17968v.80859l.08985 1.4375-.44532.71484-1.07422.09375-.26562.71485.53515.89844.8047.71875 1.16015.80859 1.33984.26953.44531.35938-.35546.44921-1.78907-.08984-1.25-.44922-.71484-.71875-.625-.08984-.17578 3.58984-.1875 1.3086h89.35937V311.70313h-55.26953v49.08203l.76172.125 3.28906.54296 2.02344 2.83594v2.7539l2.35156.33204 2.34766.33203h4.05078l-1.3789 4.16016-2.02344.70703-2.02344.70312-.54297.34375-2.59375 1.6172-.1875.11718-2.02344-2.07813-.73046-2.74218-2.67188-2.07813-1.375-3.5-.0664-.08203-1.95704-2.67188 2.75-1.41796v-49.08204H294.42187v91.41407l.1172.03125.1328.01172.07422.07421.10547.04688.08985.0586.08593.05859.08985.0586.29687.29687.0586.08984.03125.11719.02734.11719.01563.13671-.03125.1172-.0586.08983-.0586.08594-.04296.10547-.04688.10156-.02734.1211v.14453l.17578.26953.14844.14844.07422.08594.07422.07421.04296.10547.0625.08985.0586.08593.04297.10547.0586.08985.04687.10156.04296.10547.0586.08594.11719.17968.07421.07422.0625.08594.0586.08984.04297.10547.0586.08985.05858.08593.0625.08985.0586.08984.04297.10156.11719.17969.07421.07422.0586.08594.07422.07421.08984.0586.10547.04687h.14844l.1328-.01562.13282.01562.10156-.04687.07422-.07422.04688-.10156-.01563-.13281v-.14844l-.04687-.10547-.02735-.11719-.04687-.10156-.02735-.1211-.04296-.10156-.0625-.08984-.04297-.10156-.04297-.10547-.03125-.11719-.01563-.13281-.01171-.13672.08593-.0586.0586-.08593.12109-.03125.04297.10547.01562.1328v.1172l.0586.10156.0586.08984.08983.0586.14844.14843.0586.08985.04296.10547-.01171.10156.08593.0586.10547.04687.08594.0586.08984.05858.07422.07422-.11719.02735-.10546.04687-.08594.0586-.07422.07421-.0586.08985-.0625.08594-.02734.12109-.04687.10156-.04297.10547-.03125.11719-.01172.13281-.01563.13281v.14844l.02735.11719.04687.10547.04297.10156.0586.08984.07421.07422.08985.0586.07422.07421.08984.0586.0586.08984.04296.10547.04688.10156.11719.03125.1328.01563h.14845l.11718-.03125.10547.04297.04297.10547.04688.10156.02734.1211L299.5 410l.02734.11719.03125.1211.02735.11718.10547.04297.10156.04687.13281-.01562.14844.14844.0625.08593.07422.07422.07031.07422.08984.0625.10547.04297.10156.04297.1172.03125.13671.01562.11719-.03125.07422-.07422.02734-.11718-.01172-.13282-.03125-.12109-.02734-.11719.04297-.10547h.11719l.08984.0625.11719.02735h.14843l.13282.01562h.14843l.13282.01563.1328-.01563h.14845l.1328-.01562.13282-.01172.13672.01172.11719-.02735.13281-.01562.1914-.0586-.05859.17579-.01562.1328-.02735.1211-.01562.13281-.0586.08594-.1328.01563-.10548.04687-.10546.04297-.1172.03125-.11718.02735-.26563.03125h-.14843l-.13281.01562-.07422.07422.05859.08594.14844.14843.11719.1797.07421.0703.08985.0625.08984.0586.08594.0586.08984.05858.10156.04297.10547.0625.10547.04297.08594.0586.10547.04687.10156.04297.17969.11719.0586.08984-.04298.10156-.04687.10547.01562.13281.22266.22266.0586.08985.04296.10156.03125.1211.04297.10155.01563.13282.03125.11718.01171.13672.03125.11719.14844.14844.10156.04297.10547.04296.1172.03125.1328.01563.13672.01563h.11719l.11719-.03125.08984-.0586.04297-.10547.04688-.10156.04296-.10547.03125-.11719.01172-.1328v-.14845l-.01172-.1328-.01562-.13282-.03125-.11719-.04297-.10547-.04688-.10547-.04296-.10156-.04297-.10547-.01563-.13281.01563-.13281.02734-.11719.03125-.11719.02735-.1211.04687-.10155.08984-.0586.08594-.0625.07422-.07422.08984-.05859.22266-.22266.0586-.08593.07421-.07422.11719-.17969.0586-.08594v-.14844l-.07423-.07421-.10156-.04688-.10547-.04297-.10156-.04297-.0586-.08984-.04687-.10547-.02734-.11719.08984-.05859.11719-.03125.10156-.04297.17969-.11719.14844-.14843.01172-.13282-.01172-.10546-.08985-.0586-.1328.01563h-.14845l-.1328.01562-.13282-.01562-.1211-.03125-.08593-.0586-.07422-.07422-.0586-.08984-.0625-.08594-.11718-.17969-.0586-.08593.03125-.1211.08594-.05859.1211-.03125.05859-.08594v-.1211l-.03125-.11718-.0586-.08984-.05859-.08594-.04687-.10547-.02735-.11719-.01562-.1328.0586-.08985.07421-.07422.08984-.0586.1172-.17968.07421-.07422.0586-.08594.14843-.14844.1211-.03125.1328-.01562.13282.01562.07422.07422.04297.10547.01562.13281-.03125.1172-.11719.03124-.1328.01172-.14844.14844-.04297.10547-.04688.10156-.02734.1211-.03125.11718v.14844l.03125.11719.04297.10546.05859.08985.07422.07031.07422.07422.11719.03125.12109.02734.11719-.02734.1328-.01563h.1172l.08984.0586.07422.07422.04687.10546.0586.08594.10156.04688.13281.01562.10547.04297.08594.0586-.01172.10546-.07422.07422-.17969.11719-.05859.08984-.08984.0586-.07032.07422-.07421.07421-.0625.08985-.02735.11719-.01562.1328.01562.13282-.01562.13281v.14844l.01562.13281.02735.1172.03125.12108.07421.07422.08985.0586.08594.0586.08984.05858.11719.03125v.08594l-.10157.04688-.08984.0586-.26563.03124-.11718.02735h-.14844l-.10547.04296-.10156.04688-.0586.08984-.0625.23438-.01171.13281-.03125.1211-.01563.1328v.29298l-.01172.1328.01172.13673.01563.1328.1328.01563.13282.01172.1211.03125.08593.0586.07422.07421.04688.10547.04296.10157.01563.1328v.44532l-.01563.13281v.44532l.03125.26562.02735.11719.01562.13281.03125.11719.08594.21094.03125.26562v.14844l-.03125.11719-.02734.11718-.03125.1211-.02735.11719-.03125.11718-.03125.1211-.01171.1328-.01563.13282.08984.0586.1172-.03125.10155.01562.04688.10547-.03125.26562v.44141l-.04297.10547-.04688.10547-.04296.10156-.04297.10547-.0586.08594-.03125.12109-.04296.11719-.03125.11719-.01563.1328.01563.13282.05859.08984.10547.04688.08594.0586.05859.08593-.01172.13672-.03125.11719-.04297.10156v.44531l-.01562.13281v.14844l-.03125.11719-.04297.10547-.02735.11719-.04687.10546-.04297.10157-.03125.12109-.02734.11719-.03125.13281-.03125.11719-.02735.11719-.04297.10546-.03125.1172-.03125.12108-.01171.13282-.01563.13281v.29688l.02734.11718v.14844l.04688.39844.02734.11719.0586.08984.12109.03125h.14844l.13281-.01563.0586.08985v.11719l-.0586.08984-.08984.0586-.10157.04296-.10546.04688-.08985.05859-.08594.0586-.13671.01562-.1172-.03125-.1328-.01563-.10157.04688-.0625.08594-.01172.13671-.01562.13282-.03125.11719-.02735.11718-.01562.13281-.03125.1211v.29687l.01563.13282.03125.11718v.14844l.01171.13281v.14844l-.02734.11719-.04688.10156-.02734.1211-.03125.11718-.0586.08985-.07421.07421-.10156.04297-.10547.04688-.11719.02734-.1211.03125-.10156-.04687.0586-.08594.10547-.04688.02734-.11718.03125-.11719.02734-.1211.03125-.11718v-.14844l.01563-.13281-.03125-.11719-.04297-.10547-.10547.01563-.07422.07422-.10156.04296-.08984.0625-.07422.07422-.04297.10157-.01563.1328-.03125.1172L304.25 426l-.03125.11719-.02734.11719-.03125.12109-.02735.11719-.03125.11718-.04297.10547-.08984.0586h-.08984l-.1172-.03125-.03124-.08594.01562-.13672-.03125-.11719v-.14844l-.01171-.1328v-.14844l-.0625-.23438-.02735-.1211-.04297-.10156-.04687-.10546-.0586-.08594-.05859-.08985-.04297-.10546-.0625-.08594-.14844-.14844-.0703-.07422-.10548-.04687-.10547-.04297-.10156-.04297-.29687-.29688-.08985-.07421-.08594-.0586-.10546-.04297-.08985-.0625-.08594-.0586-.10546-.04296-.08985-.0586-.08594-.0625-.07421-.0703-.10547-.04688-.08594-.0586-.10547-.04296-.08984-.0625-.10156-.04297-.10547-.04297-.08594-.0586-.10547-.04687-.10547-.04297-.10156-.04687-.08985-.0586-.10156-.04297-.10547-.04296-.08984-.0625-.11719-.02735-.13281-.01562-.13281.01562H299.75l-.13281.01563-.11719-.03125-.08984-.0586-.07422-.07422-.08985-.05859-.10156-.04688h-.14844l-.12109-.02734-.10156-.04297-.07422-.07422-.11719-.17968-.08984-.0586-.10156-.04297-.08985-.0625-.10547-.04296-.08984-.0586-.08594-.0586-.10547-.04687-.0586-.08594-.05858-.08984-.04297-.10547-.04688-.10156-.07422-.07422-.08594-.0586-.07421-.07421-.08985-.0586-.22265-.22265-.04297-.10547-.03125-.26563.10547-.04296h.14453l.10547.04296.07421.07422.08985.0586.08594.0586.10546.04687.08985.05859.14844.14844.0703.07422.14845.14843.0625.08594.07421.07422.08594.0586.07422.07421.08985.0625.08984.0586.08594.05859.26953.17578.10156.04688.10547.04296.10156.04297.04688-.07421.05859-.08594.07422-.07422.07031-.07422.10547.04297.07422.07422.0586.08984.04296.10156.04688.10547.04296.10547.1211.02735.11719-.02735.07421-.08984.04297-.10547.0586-.08985.07422-.07421.10546-.04297.1172-.02735.1328.01172.08985.0586.14844.14843.05859.08985.04297.10547.04687.10156.04297.10547.04297.10156.10547.04688.10547.04296.13281.01563.08594-.0586.0586-.08984.07421-.07422.10547-.04297.11719.02735.10547.04687.10156.04297.10547.04297.10156.04688.17969.11718v.11719l-.01563.13281.01563.13281.01562.13672.0586.08594.10156.04688.1211.02734.11718.03125h.14844l.11719-.03125.05859-.08984.17969-.1172.05859-.08983.07422-.07422.0586-.08594.11718-.17969.17969-.11719.11719.03125.08984.0586.04297.07422-.01563.1328v.1172l.08985.05859h.14843l.13282-.01563.1328-.01171.26563-.03125.10547-.04297.11719-.03125.1211-.02735.07421-.07421.07031-.07422.0625-.08985-.01562-.10547-.04688-.10156-.10156-.04297-.10547-.01562-.11718.02734-.26563.03125h-.14844l-.07421-.07422-.08985-.0586-.11719-.03124-.11718-.02735-.13282-.01562h-.14843l-.13282.01563h-.29687l-.10547-.04688-.14844-.14844-.04297-.10156-.05859-.08984.22266-.22266.08593-.0586.10547-.04296.11719-.03125.13281-.01563.13281.01563.13672.01562.10157.04297.1328-.01172.08985-.0625.10156-.04297.0625-.08984-.04687-.10156-.08984-.0586-.1172-.03125-.10155-.04296-.0586-.08985-.0625-.08984v-.11719l.01563-.13281.10547-.04688.07421-.07031v-.1211l-.08984-.05859-.03125-.11719.08985-.05859.07421-.07422.04297-.10547.0586-.08984.04687-.10156.01563-.13281v-.14844l-.04688-.10547-.04297-.10156-.08984-.0586-.13281-.01562-.10157-.04297-.13671-.01563-.1172-.03125h-.4453l-.13282-.01562-.13281-.01172-.13281-.01563-.11719-.03125h-.14844l-.13281-.01562-.13281-.01172-.26563-.03125-.1211-.04297-.08593-.0586-.07422-.07421v-.14844l.01172-.13281.10547-.04688.10156-.04296.13281-.01563h.15235l.13281-.01562h.29297l.1211.03125.10156.04296.08984.0586.23438.0625.12109-.04688.08984-.05859.10156-.04297.13282-.01562.10547.04296.10156.04688.13281.01172.1211-.02735h.14453l.12109-.03125.11719-.02734.10547-.04687.07421-.07422.08594-.0586.14844-.14843.0586-.08594.04687-.10547.02734-.11719.01563-.10547-.10156-.04296-.08985-.0586-.11719-.03125-.10546-.04297-.08985-.0625-.07422-.08594-.07422-.07421-.10156-.04297-.10547-.04688-.10156-.04297-.0586-.08984-.04687-.10156-.08594-.21094-.0625-.08594-.05859-.08984-.07422-.07422-.08594-.0586h-.26953l-.11719.03126-.08984.05859-.10156.04297-.13281.01562-.10547-.01562-.02735-.11719-.0625-.08984-.11718-.03125-.10157-.04297-.14843-.14844-.03125-.11719-.01563-.10546.07422-.07422.17969-.1172.11719-.02733.11718-.03125.13672.01562.10156.04297.10547.04297.10156.04687.10547.04297.1172.03125.1328.01563.1172.02734.1328.01563.10547-.01563.08985-.0586-.07422-.07421-.10547-.04297-.07422-.07422-.07422-.08984-.14844-.14844-.08593-.0586-.08985-.05859-.07422-.07422-.08984-.0586-.10156-.04687-.1211-.02734-.10156-.04688-.10547-.04296-.11719-.03125-.10156-.04297-.1211-.03125h-.14843l-.11719.03125-.10546.04297-.08594.0625-.17969.11718-.08594.0586-.08984.0586-.10547.04687-.08594.05859-.10547.04297-.10156.04297-.10547.04687-.07422.07422-.05859.08985-.0586.08593-.04687.10547-.0586.08594-.07421.07422-.13281-.01172-.1172-.03125h-.11718l-.07422.07422-.08984.0586-.07422.07421-.08984.0586-.08594.05859-.10547.04687-.10156.04297-.13672.01563-.10156-.04297-.14844-.14844-.10547-.04688h-.08594l-.10547.04688-.10156.04297-.1211.03125-.11718-.03125-.07422-.07422v-.11719l.03125-.1211.07422-.0703.0586-.08985.07421-.07422.11719-.03125.10547-.04296h.29297l.13281-.01563.13672-.01563.10156-.04296.08985-.0586.10156-.04687.08984-.0586.13281-.01171.08985.05859.13281.01172.08984-.0586.08594-.05859.10547-.04297.08984-.0586.08594-.0625.08985-.05859.14843-.14843.0586-.08594.05859-.08985.10547-.04296.13281-.01563.11719.02735.1211.03125.05859-.0586.05859-.08984.03125-.26563.02734-.11719.10547.01172.13281.01563.10157-.04297.08984-.0586.0586-.08984.07421-.07422.0586-.08984.04687-.10156.01172-.13281-.01172-.13282-.04687-.10547-.14844-.14843-.0586-.08985-.05859-.08594-.04297-.10546v-.44532l.01563-.1328v-.14845l.01172-.1328-.0586-.0586-.08984.0586-.10156-.04298-.17969-.11719-.08594-.05859-.0625-.08984-.0586-.08985-.07421-.07421-.08594-.0586-.1211.03125-.10155.01172-.10547.04688-.08594.05859-.10547.04297-.14844.14844-.08984.05859-.08594.0586-.08984.0625-.10547.04296-.13281.01563v-.1211l.10547-.04297.11718-.03125.07422-.0703.04297-.10548v-.14844l-.02734-.11718-.14844-.14844-.13281-.01563h-.14844l-.11719.03125-.10547.04297-.10156.04297-.08984.0625-.11719.02735-.07422-.07422.01172-.13281-.04297-.10157-.04297-.10547-.08984-.05859-.11719.02734-.1211.03125-.11718.03125-.10156.04297-.1211.03125-.10156.04297-.10547.04297-.08984.0586-.10156.01562v-.11719l.01562-.13281-.0586-.08985-.07421.04297-.14844.14844-.0586.08985-.07421.07421-.04688.10547-.04296.10156-.07422.07422-.0586.08985-.07422.07422-.05859.08593-.07422.07422-.08984.0625-.07422.07031-.07422.07422-.10156.01563-.13281.01562-.10547-.04296v-.1211l.14843-.14844.04297-.10156.0586-.08984.04687-.10156.04297-.10547.0586-.08985.03124-.11719.04297-.10156.03125-.1211.02735-.11718.04687-.10547.04297-.10156.04297-.10547.07422-.07031.08984-.0625.08985-.0586.10156-.04296h.29687l.26563-.03125.10547-.04297-.07422-.07422-.11719-.03125-.10547-.04297-.08984-.0586-.10156-.04687-.08985-.0586-.10156-.04296-.10547-.04297-.08984-.0625-.08594-.0586-.10547-.04296-.10156-.04297-.1211-.03125-.11718-.03125-.10157-.04297L297.5 410.25l-.10156-.04297-.08985-.0586-.04296-.10546-.01563-.13281.10156-.04297.13281-.01563.13672.01563.13282-.01563.10156-.04297.0586-.08984.01562-.10547-.08985-.0586-.07421-.07421-.10157-.04297-.08984-.0586-.14844-.14843-.04297-.10547-.01562-.13281v-.29297l-.0586-.08985-.08984-.05859-.07422-.07422-.04297-.10547-.03125-.11718-.0586-.08985-.07421-.07422-.11719-.02734-.07422-.07422-.08984-.0586-.08984-.0625-.08594-.05859-.07422-.07421-.0586-.08594-.04687-.10547-.08594-.0586-.14843-.14843-.19532-.0586-.1328.01563-.10157.04297-.07422.07422-.04688.10156-.04296.10547-.0586.08984-.0586.08594-.29687.29687-.08984.0586h-.08594l-.0625-.08594-.04297-.10547.03125-.11719.0586-.08984.02734-.11719-.01172-.13281-.08984-.0625-.10547.04688-.11719.02734-.11719.03125-.26953.17578-.10156.04688-.11719.02734-.10546.04687-.08985.0586-.10156.04297-.0586-.08594-.04687-.10547.01563-.13281.04687-.10547.07031-.07422.07422-.07031.0586-.08985v-.14843l-.04297-.10547h-.23829l-.10156.04687-.03125.11719-.02734.11719-.03125.1211-.07422.04296-.13281.01563-.07422-.04688-.04297-.10156-.04297-.10547-.04687-.10156-.04297-.10547-.1211.03125-.10156.04297-.13281.01562-.11719.03125-.10547.04297-.08984.0586-.10156.04687-.1211.02734-.13281.01563-.10156-.04297-.0586-.08985-.04687-.10546-.04297-.10157-.04297-.10546v-.1172l.0586-.08984.08593-.05859.17969-.11719.10156-.04687.10547-.04297.10547-.0586.10156-.04296.08985-.0625.10156-.04297.10547-.0586.10156-.04687.08984-.0586.10547-.04296.10156-.04297.08985-.0625.10156-.04297.13672-.01563.11719.03125.10156.04297.1211.03125.10156.04297.10546.04688.10157.04296.10547.04297.10156.04688.10547.04297.10156.04297.10547.04687.08594.0586.10546.04296.1172.03125.10546.04297.10156.04688.08985.0586.10547.04296.10156.04297.10547.04687.11719.02735.10156.04687.1211.02735h.14843l.08594-.0586.01562-.10156.0586-.08984-.02735-.1172-.07422-.07421-.11719-.17969-.07421-.07422-.08985-.07421-.17969-.1172-.08593-.05859-.10547-.04296-.10156-.04688-.26954-.17578-.05859-.08985-.07422-.07421-.0586-.08985-.04296-.10156-.03125-.11719-.01563-.13672v-.5625l-.01171-.1328-.01563-.13282-.03125-.11719-.01562-.13281-.01172-.13281-.03125-.1211-.22266-.22265-.0586-.08594-.01562-.10547.03125-.11719.13281-.01562v-91.41406H172.9922v1.45312l-.0586.23438-.35156 1.05078-.17187.52343-.1172.34766-.17577.41016-.11719.17187-.23438.29297-.23046.0586h-.35157l-.11718.05859-.23047.40625v.29297l.11719.17578.23046.23047.1172.23437.64062.75781.29297.46485.17578.23437.23047.35156.23437.34766.64063.8164.17578.46485.17187.41016.11719.69531.17578.46875.11719 1.39844.0586.46484v.875l.11718 1.04688v4.78125l-.0586.46484-.35156 1.28125-.17578.52344-.11328.41015-.35156.9297L172.93359 336l-.23437.58203-.11719.17578-.17187.34766-.17578.40625-.35157.8164-.0586.29297-.11327.29297-.11719.28906-.0586.17579-.11718.875-.0586.40625-.05859.11718-.0586.17579-.05859.17187-.23047.52734-.11718.17188v.23437l-.11719.23438-.0586.17187-.17577.58594v.28906l-.0586.17579v.29296l-.0586.11329-.05859.52734v.17187l-.05468.23438v2.6211l-.17578.8164-.1172.17578-.17577.23438-.1172.17187-.11327.23438-.58594.93359-.23047.28906-.29297.46485-.17578.23437-.28906.35156-.35156.69922-.11328.23047-.17579.41016-.17578.23046-.40625.52735-.8164.69922-.29297.17187-.28906.23438-.17579.11719-.17578.17578-.52344.40625-.52734.17578-.17187.17578-.23438.05469-.64062.17578h-.75782m12.21094 31.02344l-1.07422.44921.35938.89454 1.25-.71485.44531-.53906-.98047-.08985"/><path fill="#d3d3d3" fill-opacity="0" fill-rule="evenodd" d="M201.50781 416.59766h-.89453l.44922.6289.98047.35938.80469-.08985.4453-.98828-.17577.08985-.71485-.35547-.89453.35547m154.6211 59.0703l-.0586-.52343v-.29297l.11328-.29297.0586-.23046.46875-.46875h.11328l.11719-.11329.11718-.05859h.17579l.23437-.0586h.34766l.23437.0586.11719.0586.23047.17187.0586.17578.11718.58203v.29297l-.11719.17578-.17187.28906-.17579.17579-.52734.52343-.23047.23438-.11719.0586h-.17578l-.11718-.0586-.40625-.29297-.17579-.11719-.11718-.0586-.0586-.11327-.05468-.1172m6.64062-10.95702l-.0586-.17188v-1.10937l.0586-.17188.17578-.0586.17188-.05858h.17578l.23437-.0586.1172.0586.05858.69921-.05859.17188-.11719.17578-.11718.0586-.23438.52343-.11328.0586h-.23438l-.05859-.1172m9.61328-14.39062l-.11719-.17578v-.69922l.29297-.875.1172-.17187.17577-.35156.11328-.23047.1172-.29297.35155-.75781.1172-.23047.17187-.23438h.17578l.11719-.0586h.64062l.11719.0586.23437.23438.17188.11328.35156.29297.11719.11718.11328.17579v.11328l.11719.05859.11718.11719v.69922l-.05859.17578v.23047l-.0586.17578-.34765 1.05078-.11719.23047-.11719.23437-.11718.0586-.23047.23437-.64063.28906h-.875l-.41015-.11718-.64063-.46485"/><path fill="none" stroke="#bebebe" stroke-linecap="round" stroke-linejoin="round" stroke-miterlimit="10" stroke-width=".5" d="M467.95703 311.69531H144.02734v168.625h323.9297v-168.625"/><g clip-path="url(#a)"><path fill="#fff" fill-opacity="0" fill-rule="evenodd" d="M144 475.89063v4.4375h.0039H144V311.67188h.0039H144v164.21875"/></g><g clip-path="url(#b)"><path fill="#fff" fill-opacity="0" fill-rule="evenodd" d="M144.0039 480.32813V311.67188h22.1875V431.5l-.25.00781.25.01563.01563-.01563-.01562-.00781V311.67187h13.3164v119.4961l-4.4414.26953-.17578.07031-3.07422 4.4375 3.24218 4.4375-4.42968 3.92188-4.4375.48437-.58594.03125-3.85156.14844-2.10938 4.29297-.73437 4.4375-.32813 4.4375 3.17188 3.82812 4.4375-1.61718 4.4375-1.14063 4.4375-.54687 1.54297-.52344 2.89843-1.15625 4.4375.66406 4.4375-.5664 4.4375.5.78906.55859 3.65235 1.14453 4.1211-1.14453-4.1211-1.73047-2.26953-2.70703 2.26953-3.15235 2.39062-1.28515-2.39062-1.08985-4.4414-1.35156-4.4375-1.89844-.1797-.10156-4.2578-2.28125-4.4375-.5664-4.4336-1.58985 4.4336-4.25781.19921-.17969 4.23828-4.40234.02344-.03516-.02344-.01953-4.4375-.32031v-119.4961h26.6289v105.71875l-.9414.80079-3.20312 4.4375-.29297.16015-3.09375 4.28125 1.90234 4.4375 1.1914.78516 1.16407-.78516 2.80469-4.4375.46875-.8086.52344.8086 3.30078 4.4375.61328.71485 4.4414 1.08984 3.00391-1.80469-1.21094-4.4375-1.79297-2.02344-4.0078-2.41796-.4336-.12891-3.5039-4.3086-.9336-.80077V311.67188h26.6289v121.78906l-2.0625 2.48437 2.0625 1.9414 2.20313-1.9414-2.20313-2.48437V311.67188h8.87891v125.5078l-3.20312 3.20313 3.20312 3.23828 4.4375-1.96875 1.23828-1.26953-1.23828-1.29687-4.4375-1.90625V311.67188h146.46484v145.75l-1.61328.71484-2.82421.77344-4.4375 2.76953-.60157.89453.60156.55469 4.4375 2.3203 1.50391 1.56642 2.9336 3.05859 4.22265-3.0586-.02734-4.4414-3.14063-4.4375-1.05469-.71485v-145.75h79.88672v168.65625h-75.15625l-.29296-.3203-.35938.3203H144.0039"/></g><path fill="#50fcfc" fill-rule="evenodd" d="M161.7539 461.96484l-3.17187-3.82812.32813-4.4375.73437-4.4375 2.10938-4.29297 3.85156-.14844.58594-.03125 4.4375-.48437 4.42968-3.92188-3.24218-4.4375 3.07422-4.4375.17578-.07031 4.4414-.26953 4.4375.32031.02344.01953-.02344.03516-4.23828 4.40234-.19922.17969-4.4336 4.25781 4.4336 1.58985 4.4375.5664 4.25781 2.28125.1797.10156 4.4375 1.89844 4.4414 1.35156 2.39062 1.08985-2.39062 1.28515-2.26953 3.15235 2.26953 2.70703 4.1211 1.73047-4.1211 1.14453-3.65234-1.14453-.78907-.5586-4.4375-.5-4.4375.56641-4.4375-.66406-2.89844 1.15625-1.54296.52344-4.4375.54687-4.4375 1.14063-4.4375 1.61718m4.4375-30.4414l-.25-.01563.25-.00781.01562.00781-.01562.01563m34.3164-.01563l-1.90234-4.4375 3.09375-4.28125.29297-.16015 3.20312-4.4375.9414-.80079.9336.80079 3.5039 4.30859.4336.1289 4.00781 2.41798 1.79297 2.02343 1.21094 4.4375-3.0039 1.80469-4.44141-1.08984-.61328-.71485-3.30078-4.4375-.52344-.8086-.46875.8086-2.80469 4.4375-1.16406.78516-1.1914-.78516m32.2578 6.3789l-2.0625-1.9414 2.0625-2.48437 2.20313 2.48437-2.20313 1.9414m8.87891 5.73438l-3.20312-3.23828 3.20312-3.20312v2.02344l-1.17969 1.17968 1.1797 1.1914 1.94921-1.1914-1.94922-1.17969v-2.02343l4.4375 1.90625 1.23828 1.29687-1.23828 1.26953-4.4375 1.96875"/><path fill="#00e8fc" fill-rule="evenodd" d="M241.64453 441.57422l-1.17969-1.1914 1.1797-1.1797 1.94921 1.1797-1.94922 1.1914"/><path fill="#50fcfc" fill-rule="evenodd" d="M379.23438 463.1289l-.60157-.55468.60156-.89453 4.4375-2.76953 2.82422-.77344 1.61329-.71485v2.4336l-3.70313 2.71875 3.70313 3.80078 2.48046-3.80078-2.48046-2.71875v-2.4336l1.05468.71485 3.14063 4.4375.02734 4.4414-4.22265 3.0586-2.9336-3.0586-1.5039-1.5664-4.4375-2.32031"/><path fill="#00e8fc" fill-rule="evenodd" d="M388.10938 466.375l-3.70313-3.80078 3.70313-2.71875 2.48046 2.71875-2.48046 3.80078"/><g clip-path="url(#c)"><path fill="#50fcfc" fill-rule="evenodd" d="M392.1875 480.32813l.35938-.32032.29296.32031h-.65234"/></g><g clip-path="url(#d)"><path fill="#fff" fill-opacity="0" fill-rule="evenodd" d="M467.9961 480.32813H468V311.67188h-.0039H468v168.65625h-.0039"/></g><g clip-path="url(#e)"><path fill="none" stroke="#000" stroke-linecap="round" stroke-linejoin="round" stroke-miterlimit="10" stroke-width=".5" d="M147.46484 480.91797l-6.92968-1.17969"/></g><g clip-path="url(#f)"><path fill="none" stroke="#000" stroke-linecap="round" stroke-linejoin="round" stroke-miterlimit="10" stroke-width=".5" d="M147.46484 480.91797l.76953 2.33203"/></g><g clip-path="url(#g)"><path fill="none" stroke="#000" stroke-linecap="round" stroke-linejoin="round" stroke-miterlimit="10" stroke-width=".5" d="M160.73828 481.11719l-6.84766-1.57813"/></g><g clip-path="url(#h)"><path fill="none" stroke="#000" stroke-linecap="round" stroke-linejoin="round" stroke-miterlimit="10" stroke-width=".5" d="M160.73828 481.11719l.63672 2.3711"/></g><g clip-path="url(#i)"><path fill="none" stroke="#000" stroke-linecap="round" stroke-linejoin="round" stroke-miterlimit="10" stroke-width=".5" d="M173.92969 481.53906l-6.59766-2.42187"/></g><g clip-path="url(#j)"><path fill="none" stroke="#000" stroke-linecap="round" stroke-linejoin="round" stroke-miterlimit="10" stroke-width=".5" d="M187.0625 481.94922l-6.23438-3.24219"/></g><g clip-path="url(#k)"><path fill="none" stroke="#000" stroke-linecap="round" stroke-linejoin="round" stroke-miterlimit="10" stroke-width=".5" d="M200.69531 481.07422l-6.86719-1.48828"/></g><g clip-path="url(#l)"><path fill="none" stroke="#000" stroke-linecap="round" stroke-linejoin="round" stroke-miterlimit="10" stroke-width=".5" d="M199.69531 480.85547l.33203 1.17969"/></g><g clip-path="url(#m)"><path fill="none" stroke="#000" stroke-linecap="round" stroke-linejoin="round" stroke-miterlimit="10" stroke-width=".5" d="M214.08984 480.29297l-7.02734.07031"/></g><g clip-path="url(#n)"><path fill="none" stroke="#000" stroke-linecap="round" stroke-linejoin="round" stroke-miterlimit="10" stroke-width=".5" d="M213.0664 480.30469l.58594 1.07422"/></g><g clip-path="url(#o)"><path fill="none" stroke="#000" stroke-linecap="round" stroke-linejoin="round" stroke-miterlimit="10" stroke-width=".5" d="M227.36719 479.82813l-6.95313 1.0039"/></g><g clip-path="url(#p)"><path fill="none" stroke="#000" stroke-linecap="round" stroke-linejoin="round" stroke-miterlimit="10" stroke-width=".5" d="M226.35547 479.97266l.72656.98828"/></g><g clip-path="url(#q)"><path fill="none" stroke="#000" stroke-linecap="round" stroke-linejoin="round" stroke-miterlimit="10" stroke-width=".5" d="M240.33203 478.72656l-6.2539 3.20313"/></g><g clip-path="url(#r)"><path fill="none" stroke="#000" stroke-linecap="round" stroke-linejoin="round" stroke-miterlimit="10" stroke-width=".5" d="M239.42188 479.19531l1.0078.69922"/></g><g clip-path="url(#s)"><path fill="none" stroke="#000" stroke-linecap="round" stroke-linejoin="round" stroke-miterlimit="10" stroke-width=".5" d="M253.15625 478.0039l-5.26953 4.64844"/></g><path fill="none" stroke="#000" stroke-linecap="round" stroke-linejoin="round" stroke-miterlimit="10" stroke-width=".5" d="M252.39063 478.67969l1.14843.4336"/><g clip-path="url(#t)"><path fill="none" stroke="#000" stroke-linecap="round" stroke-linejoin="round" stroke-miterlimit="10" stroke-width=".5" d="M266.16406 477.69531l-4.65625 5.26563"/></g><path fill="none" stroke="#000" stroke-linecap="round" stroke-linejoin="round" stroke-miterlimit="10" stroke-width=".5" d="M265.48438 478.46094l1.1953.28906"/><g clip-path="url(#u)"><path fill="none" stroke="#000" stroke-linecap="round" stroke-linejoin="round" stroke-miterlimit="10" stroke-width=".5" d="M279.13672 477.42969l-3.97266 5.79687"/></g><path fill="none" stroke="#000" stroke-linecap="round" stroke-linejoin="round" stroke-miterlimit="10" stroke-width=".5" d="M278.5586 478.27344l1.21874.13672"/><g clip-path="url(#v)"><path fill="none" stroke="#000" stroke-linecap="round" stroke-linejoin="round" stroke-miterlimit="10" stroke-width=".5" d="M291.86719 477.10547l-2.80078 6.44531"/></g><path fill="none" stroke="#000" stroke-linecap="round" stroke-linejoin="round" stroke-miterlimit="10" stroke-width=".5" d="M291.45703 478.04297l1.22656-.09375"/><g clip-path="url(#w)"><path fill="none" stroke="#000" stroke-linecap="round" stroke-linejoin="round" stroke-miterlimit="10" stroke-width=".5" d="M304.6836 476.9336l-1.8047 6.79296"/></g><path fill="none" stroke="#000" stroke-linecap="round" stroke-linejoin="round" stroke-miterlimit="10" stroke-width=".5" d="M304.6836 476.9336l2.38671-.5586"/><g clip-path="url(#x)"><path fill="none" stroke="#000" stroke-linecap="round" stroke-linejoin="round" stroke-miterlimit="10" stroke-width=".5" d="M317.67188 476.86328l-1.15235 6.92969"/></g><path fill="none" stroke="#000" stroke-linecap="round" stroke-linejoin="round" stroke-miterlimit="10" stroke-width=".5" d="M317.5039 477.8711l1.16407-.39063"/><g clip-path="url(#y)"><path fill="none" stroke="#000" stroke-linecap="round" stroke-linejoin="round" stroke-miterlimit="10" stroke-width=".5" d="M330.65625 476.82422l-.48828 7.00781"/></g><path fill="none" stroke="#000" stroke-linecap="round" stroke-linejoin="round" stroke-miterlimit="10" stroke-width=".5" d="M330.58203 477.84375l1.1211-.5"/><g clip-path="url(#z)"><path fill="none" stroke="#000" stroke-linecap="round" stroke-linejoin="round" stroke-miterlimit="10" stroke-width=".5" d="M342.97656 476.89453l1.5 6.86719"/></g><path fill="none" stroke="#000" stroke-linecap="round" stroke-linejoin="round" stroke-miterlimit="10" stroke-width=".5" d="M343.19531 477.89453l.9336-.79297"/><g clip-path="url(#A)"><path fill="none" stroke="#000" stroke-linecap="round" stroke-linejoin="round" stroke-miterlimit="10" stroke-width=".5" d="M355.6836 477.08984l2.71484 6.48047"/></g><path fill="none" stroke="#000" stroke-linecap="round" stroke-linejoin="round" stroke-miterlimit="10" stroke-width=".5" d="M356.07813 478.03125l.77734-.94922"/><g clip-path="url(#B)"><path fill="none" stroke="#000" stroke-linecap="round" stroke-linejoin="round" stroke-miterlimit="10" stroke-width=".5" d="M368.91797 477.1211l2.875 6.41406"/></g><path fill="none" stroke="#000" stroke-linecap="round" stroke-linejoin="round" stroke-miterlimit="10" stroke-width=".5" d="M369.33594 478.05469l.7539-.96875"/><g clip-path="url(#C)"><path fill="none" stroke="#000" stroke-linecap="round" stroke-linejoin="round" stroke-miterlimit="10" stroke-width=".5" d="M382.35547 477.07031l2.63281 6.51563"/></g><path fill="none" stroke="#000" stroke-linecap="round" stroke-linejoin="round" stroke-miterlimit="10" stroke-width=".5" d="M382.73828 478.01953l.78906-.9414"/><g clip-path="url(#D)"><path fill="none" stroke="#000" stroke-linecap="round" stroke-linejoin="round" stroke-miterlimit="10" stroke-width=".5" d="M394.125 478.28906l5.72266 4.08203"/></g><path fill="none" stroke="#000" stroke-linecap="round" stroke-linejoin="round" stroke-miterlimit="10" stroke-width=".5" d="M394.95703 478.88281l.16016-1.21875"/><g clip-path="url(#E)"><path fill="none" stroke="#000" stroke-linecap="round" stroke-linejoin="round" stroke-miterlimit="10" stroke-width=".5" d="M407.99219 477.6836l4.6211 5.29296"/></g><path fill="none" stroke="#000" stroke-linecap="round" stroke-linejoin="round" stroke-miterlimit="10" stroke-width=".5" d="M408.66406 478.45313l.4375-1.14844"/><g clip-path="url(#F)"><path fill="none" stroke="#000" stroke-linecap="round" stroke-linejoin="round" stroke-miterlimit="10" stroke-width=".5" d="M420.17969 481.0625l6.875-1.46484"/></g><g clip-path="url(#G)"><path fill="none" stroke="#000" stroke-linecap="round" stroke-linejoin="round" stroke-miterlimit="10" stroke-width=".5" d="M421.17969 480.84766l-.78906-.94141"/></g><g clip-path="url(#H)"><path fill="none" stroke="#000" stroke-linecap="round" stroke-linejoin="round" stroke-miterlimit="10" stroke-width=".5" d="M434.3125 477.98438l5.23828 4.6875"/></g><path fill="none" stroke="#000" stroke-linecap="round" stroke-linejoin="round" stroke-miterlimit="10" stroke-width=".5" d="M435.07422 478.66797l.29297-1.1914"/><g clip-path="url(#I)"><path fill="none" stroke="#000" stroke-linecap="round" stroke-linejoin="round" stroke-miterlimit="10" stroke-width=".5" d="M453.57031 479.1875l-6.64453 2.28516"/></g><g clip-path="url(#J)"><path fill="none" stroke="#000" stroke-linecap="round" stroke-linejoin="round" stroke-miterlimit="10" stroke-width=".5" d="M452.60156 479.51953l.89844.83594"/></g><g clip-path="url(#K)"><path fill="none" stroke="#000" stroke-linecap="round" stroke-linejoin="round" stroke-miterlimit="10" stroke-width=".5" d="M465.2539 477.25l-3.3828 6.15625"/></g><path fill="none" stroke="#000" stroke-linecap="round" stroke-linejoin="round" stroke-miterlimit="10" stroke-width=".5" d="M464.76172 478.14453l1.22656.01953"/><g clip-path="url(#L)"><path fill="none" stroke="#000" stroke-linecap="round" stroke-linejoin="round" stroke-miterlimit="10" stroke-width=".5" d="M147.4961 467.34766l-6.9922-.66797"/></g><path fill="none" stroke="#000" stroke-linecap="round" stroke-linejoin="round" stroke-miterlimit="10" stroke-width=".5" d="M147.4961 467.34766l.9414 2.26562m12.38672-2.73828l-7.01953.27734m7.01953-.27734l1.23828 2.11719m12.08203-1.91797l-7.02734-.1211m7.02734.1211l1.11328 2.1875m12.16406-1.73047l-6.95312-1.03516m6.95313 1.03516l.8164 2.3164m12.53516-2.78515l-7.02735-.09766m7.02735.09766l1.1211 2.17969m12.17187-2.625l-6.98047.79297m6.98047-.79297l1.38672 2.02344m11.64453-3.0586l-6.41407 2.86328m6.41407-2.86328l1.9375 1.50781m10.98047-2.18359l-5.6211 4.21484m5.6211-4.21484l2.22265 1.04297m10.79297-1.39453l-5.01953 4.91797m5.01953-4.91797l2.33594.73828m10.65625-1.03125l-4.375 5.5039m4.375-5.5039l2.41015.44922m11.07422-.30078l-4.71484 5.20703m4.71484-5.20703l2.3789.59765m10.9961-.54297l-4.83594 5.09766m4.83594-5.09766l2.36328.65235m10.60157-.94532l-4.13282 5.6836m4.13282-5.6836l2.42968.33985m10.73828-.4414l-3.83984 5.88671m3.83984-5.88672l2.44141.21875m10.51953-.42187l-3.1289 6.29297m3.1289-6.29297l2.44922-.0664m10.98828.1328l-3.375 6.16016m3.375-6.16016l2.45313.02735m10.09375-.33985l-1.83985 6.78516m1.83985-6.78516l2.39062-.54297m10.60938.47266l-1.21094 6.92578m1.21094-6.92578l2.33203-.75781m10.0664.72265l.625 6.9961m-.625-6.9961l2.0547-1.34375m8.66015 2.875l5.82422 3.9336m-4.97657-3.35938l.12891-1.22265m13.95313-.64844l2.59375 6.52734M409.0039 463.75l1.58984-1.8711m12.1836 1.72266l1.67577 6.82422m-1.67578-6.82422l1.83203-1.63672m13.85547 1.88672l-3.0664 6.32422m3.0664-6.32422l2.45313-.08984m8.5039-.16406l1.65235 6.83203m-1.41406-5.83594l.91796-.8164m15.2422.54296l-4.51563 5.38672"/><g clip-path="url(#M)"><path fill="none" stroke="#000" stroke-linecap="round" stroke-linejoin="round" stroke-miterlimit="10" stroke-width=".5" d="M465.82031 464.32031l2.39844.51172"/></g><g clip-path="url(#N)"><path fill="none" stroke="#000" stroke-linecap="round" stroke-linejoin="round" stroke-miterlimit="10" stroke-width=".5" d="M147.51172 453.82813l-7.02344-.25782"/></g><path fill="none" stroke="#000" stroke-linecap="round" stroke-linejoin="round" stroke-miterlimit="10" stroke-width=".5" d="M147.51172 453.82813l1.07031 2.20703m12.17578-1.62891l-6.88281-1.41406m6.88281 1.41406l.6914 2.35547m12.69532-3.11719l-7.02734.10938m7.02734-.10938l1.1836 2.14844m12.12109-2.33985l-7.00781.4922m7.0078-.4922l1.30079 2.08204m11.83984-2.95703l-6.66015 2.24218m6.66015-2.24219l1.78516 1.6836m11.3789-2.0625l-6.35546 3m6.35547-3l1.96484 1.46875m11.3125-1.53906l-6.28516 3.14062m6.28516-3.14062l2 1.42187m11.02344-1.91016l-5.69531 4.1172m4.86718-3.51954l1.09766.54297m12.39062-1.82813l-4.38672 5.48829m4.38672-5.48828l2.41016.45312m11.0039-.3711l-4.58593 5.32423m4.58594-5.32422l2.39453.54297m11.28515-.17579l-5.3164 4.59375m5.3164-4.59375l2.28907.88672m10.77343-1.15234l-4.80859 5.125m4.8086-5.125l2.36718.64062m-3.0664.10547l1.18359.32031m12.94922-.94921l-5.04688 4.89062m5.04688-4.89062l2.33203.7539m-3.0664-.04297l1.16796.375m12.54297-1.39062l-4.3711 5.5m4.3711-5.5l2.41406.44531m10.1211-.91797l-2.8086 6.4414m2.39844-5.5039l1.22266-.09375m13.55859-.1289l-4.92187 5.01562m4.92187-5.01562l2.35156.6914m-3.07031.03516l1.17969.34765m11.75781-1.80468l-2.73047 6.47656m2.73047-6.47656l2.44531-.21875m-2.84375 1.16015l1.22266-.10937m12.57812-.79297l-2.90625 6.39844M371.8086 450.5l2.44922-.15234m11.7539.73047l-4.67968 5.24218m4.67969-5.24219l2.38281.58204m8.6914-1.47266l-.19921 7.02344m.19922-7.02344l2.19922-1.08984m11.14843 1.08984l-.26562 7.02344m.22656-6l1.10547-.53516m15.09766 1.16406l-5.96094 3.71875m5.09375-3.17968l1.0625.61328m13.6211.2461l-6.96485.92187m5.95312-.78907l.71094 1m11.39453-3.95312l-2.52343 6.5586m2.52343-6.5586l2.4375-.29297m-2.80468 1.25l1.21875-.14844m11.5-1.02734l-.59766 7m.51172-5.98438l1.1289-.48046"/><g clip-path="url(#O)"><path fill="none" stroke="#000" stroke-linecap="round" stroke-linejoin="round" stroke-miterlimit="10" stroke-width=".5" d="M147.51172 440.34375l-7.02344.07813"/></g><path fill="none" stroke="#000" stroke-linecap="round" stroke-linejoin="round" stroke-miterlimit="10" stroke-width=".5" d="M147.51172 440.34375L148.6875 442.5m12.14063-2.15625l-7.02735.08203m7.02734-.08203l1.17579 2.15234m12.13672-1.97656l-7.01954-.27344m6 .23438l.53125 1.10547m13.78125-.77735l-6.97656-.85156m5.96094.73047l.4414 1.14453m13.89844-1.76562l-6.9961.6328m6.9961-.6328l1.34375 2.05468m11.73828-3.03906l-6.52734 2.60547m6.52734-2.60547l1.8711 1.58203m10.57422-2.85156l-4.79297 5.14063m4.79297-5.14063l2.37109.63672m10.78906-.77344l-4.48047 5.41406m4.48047-5.41406l2.40235.49219m9.45312-1.21094l-1.5625 6.85156m1.5625-6.85156l2.36719-.64062m10.98828.65234l-1.64063 6.83203m1.64063-6.83203l2.375-.61719m11.5039.80469l-2.76952 6.45703m2.76953-6.45703l2.4453-.20703m10.65626.1211l-2.34375 6.625m2.34375-6.625l2.42578-.36329m11.39453.58985l-3.35156 6.17578m3.35156-6.17578l2.45313.01953m-2.94141.8789l1.22656.00782M319 437.42969l-3.8086 5.90625M319 437.42969l2.44531.20703m-3 .65234l1.22266.10547m13.51562-.16797l-5.54687 4.3125m5.54687-4.3125l2.2422 1.0039m-3.04688-.375l1.11718.5m12.89844-1.2578l-5.33594 4.57422m5.33594-4.57422l2.28516.89453m-3.0625-.23047l1.14062.44922m11.5625-2.10156l-2.5586 6.54687m2.5586-6.54687l2.4375-.28125m10.4961.15625l-1.79297 6.79687m1.79297-6.79687l2.38671-.5586m7.1211 1.98438l5.8164 3.9453m-5.8164-3.9453l.26562-2.4375m17.78516 7.41015l-3.65234-6m3.12109 5.1289l-.625 1.0547m10.59375-.32813l4.10156-5.70703m-3.5039 4.875l-1.21485-.16406m19.26172-.59375l-6.55469-2.53125m5.60157 2.16406l.14453 1.21875m13.05078-4.85156l-4.41016 5.47265m4.41016-5.47265l2.41015.46094m-3.05078.33593l1.20313.23047m11.07812-1.76562l-1.0625 6.9453m1.0625-6.9453l2.31641-.8125m-2.47266 1.82422l1.16016-.40625m12.98438-.4336l-2.41016 6.60156m2.0586-5.64062l1.21484-.16797"/><g clip-path="url(#P)"><path fill="none" stroke="#000" stroke-linecap="round" stroke-linejoin="round" stroke-miterlimit="10" stroke-width=".5" d="M147.3086 428.25l-6.6172-2.35938"/></g><path fill="none" stroke="#000" stroke-linecap="round" stroke-linejoin="round" stroke-miterlimit="10" stroke-width=".5" d="M147.3086 428.25l.35937 2.42578m13.11328-3.03906l-6.9336-1.13281m6.9336 1.1328l.78906 2.32032m12.5664-3.13281l-7.01171.48828m5.98828-.41797l.65234 1.03906M187.45703 427l-7.02344.13672m6.00391-.11719l.59766 1.07031m13.73047-1.26172l-7.01172.48047m7.01172-.48047l1.29687 2.08204m11.13281-4.1836l-5.23828 4.6836m5.23828-4.6836l2.30078.84375m11.07422-.77734l-5.35937 4.55078m5.35937-4.55078l2.27735.90625m-3.0586-.24219l1.14063.45313m13.78906 1.05078l-7.02344.21875m6-.1875l.60938 1.0625m12.55469-3.60938l-4.67579 5.2461m4.67578-5.2461l2.38282.58203m10.2461-1.05859l-3.3047 6.19922m3.3047-6.19922h2.45312m11.54297.47266l-4.66797 5.2539m4.66797-5.2539l2.3828.57812m10.05079-1.14844l-2.90625 6.39454m2.90625-6.39454l2.44922-.15234m11.26953.36719l-3.71094 5.96484m3.71094-5.96484l2.44922.16406m9.77343-.60937l-1.52734 6.85546m1.52734-6.85546l2.3672-.65235m12.08202 1.125l-3.79687 5.91016m3.79687-5.91016l2.44532.19922m-2.9961.66016l1.22266.10156m13.40625-.30078l-5.32031 4.58984m5.3203-4.58984l2.28516.88672m-3.05859-.21875l1.14063.4414m12.96875-1.08203l-5.36329 4.53516m5.36329-4.53516l2.28125.91016m8.67968-2.14063l-.65625 6.9961m.65625-6.9961l2.26563-.94531m12.19531 1.2539l-2.94531 6.37891m2.94531-6.3789l2.44922-.13672m-2.8789 1.0625l2.44921-.13672m11.32813-.77344l-3.01172 6.34766m3.01172-6.34766l2.45312-.10937m-2.89062 1.03125l1.22656-.0547m12.89453-.66405l-3.75 5.9414m3.75-5.9414l2.44922.18359m-2.99219.67969l2.44531.1836m11.53125-.96876l-3.98828 5.78516m3.98828-5.78516l2.4375.28125m-3.01562.5625l2.4375.28125m11.00781-1.38672l-3.08984 6.3086m3.08984-6.3086l2.45313-.08203m-2.90235 1l1.22657-.04297m11.61718-1.17968l-1.25 6.91796m1.25-6.91796l2.33594-.7461m-2.51562 1.7539l1.16796-.375m11.83594-.68359l-.26953 7.01954m.26953-7.01954l2.21094-1.0703m-2.25 2.08984l1.10547-.53125"/><g clip-path="url(#Q)"><path fill="none" stroke="#000" stroke-linecap="round" stroke-linejoin="round" stroke-miterlimit="10" stroke-width=".5" d="M147.29688 414.96875l-6.59375-2.42969"/></g><path fill="none" stroke="#000" stroke-linecap="round" stroke-linejoin="round" stroke-miterlimit="10" stroke-width=".5" d="M146.33594 414.61328l.16797 1.21875m14.3203-1.9414l-7.01952-.27344m7.01953.27344l1.07031 2.20703m11.52734-4.48047l-5.58203 4.27344m4.76953-3.65235l1.11329.51172m13.53906-.16016l-6.63281 2.32813m5.66797-1.98828l.90234.82812m13.50781-.67969l-6.89453 1.34766m6.89453-1.34766l1.54688 1.90625m11.70312-2.18359l-6.76172 1.90625m5.77735-1.6289l.84765.88671m6.57031.08985l7-.60547m13.32813.30469h-7.02734m7.02734 0l1.15234 2.16796m11.85547-3.60546l-6.41406 2.87109m6.41406-2.8711l1.9375 1.50782m11.51953-1.13281l-6.69922 2.12109M266.21094 413l.875.85937m13.05469-1.95312l-5.98047 3.69531m5.98047-3.69531l2.11718 1.23828m11.00781-1.51562l-5.59765 4.25m5.59765-4.25l2.22657 1.03125m11.64844.0664l-6.71875 2.05469m5.74218-1.75781l.86719.86718m12.32422-2.82812l-4.51953 5.3789m4.51953-5.3789l2.40234.51562m10.89844-.52734l-4.49219 5.40625m3.83985-4.6211l1.19921.25m13.46094-.2578l-5.8789 3.85156m5.02343-3.28907l1.07813.58985m11.84375-2.3086l-3.3789 6.16407m3.3789-6.16406l2.45312.03125m10.66407-.13282l-2.98047 6.36328m2.98047-6.36328l2.44921-.1211m11.35157.39845l-3.95313 5.80859m3.95313-5.8086l2.4375.26954m10.79687-.32031l-3.79297 5.91406m3.79297-5.91406l2.44531.19921m-2.99609.66016l1.22266.10156m12.5664-1.01172l-3.64062 6.01172m3.64062-6.01172l2.44922.13672m-2.98047.73828l1.22657.07032m11.8203-1.30078l-2.04296 6.72265m2.04297-6.72265l2.41015-.47266m-2.70703 1.45312l1.20313-.23828m12.36719-.7539l-1.95704 6.75m1.95704-6.75l2.40234-.50391m11.14453.58203l-2.42187 6.59375m2.42187-6.59375l2.4336-.33594m9.89843.125l-.45703 7.01172m.45703-7.01172l2.23828-1.0078m-2.30468 2.02734l1.12109-.50391"/><g clip-path="url(#R)"><path fill="none" stroke="#000" stroke-linecap="round" stroke-linejoin="round" stroke-miterlimit="10" stroke-width=".5" d="M147.47266 400.96484l-6.94532-1.05078"/></g><path fill="none" stroke="#000" stroke-linecap="round" stroke-linejoin="round" stroke-miterlimit="10" stroke-width=".5" d="M147.47266 400.96484l.8164 2.3125m12.35547-3.96093l-6.66016 2.24218m6.66016-2.24218l1.78516 1.6875m11.39062-2.04297l-6.3789 2.95312m6.3789-2.95312l1.95313 1.48437m11.66797.32813l-6.9922-.67188m6.9922.67188l.9414 2.26953m12.33594-3.21875l-6.91797 1.22656m6.91797-1.22656l1.51563 1.92969m11.67578-2.41797l-6.67188 2.20312m5.70313-1.88281l.88672.84766m13.32812-1.35938l-6.53125 2.58594m6.53125-2.58594l1.8711 1.58985m11.67968-.57813l-7.0039.5625m5.98437-.48047l.66016 1.03516m13.64843-1.35938l-6.94922 1.04688m6.94922-1.04688l1.46094 1.97266m11.55078-2.96094l-6.34375 3.02735m6.34375-3.02735l1.97266 1.45703m11.01953-2l-5.69922 4.10938M280 398.3828l2.20313 1.08594m10.95703-1.28516l-5.38672 4.51172m4.60156-3.85547l1.13672.46094m12.8711-1.22265l-5.20704 4.71875m5.20703-4.71875l2.3086.83203m11.55859-.01954l-6.3086 3.09375m6.3086-3.09375l1.98828 1.4375m10.85547-2.15625l-5.36719 4.53125m5.36719-4.53125l2.28125.91016m9.48828-1.96875l-2.27734 6.64844m1.94531-5.67969l1.21484-.19531m12.125-.86328l-1.66015 6.82812m1.41797-5.83203l1.1875-.30469m13.86718.08985l-4.65234 5.26562m4.65234-5.26562l2.38672.57031m10.63281-.80469l-4.0625 5.73438m4.0625-5.73438l2.4336.3125m-3.02735.52344l1.21875.15625m12.9375-.79688l-4.55859 5.34375m4.5586-5.34375l2.39843.53125m11.8711.76954l-6.46875 2.74609m5.52734-2.34766l.95313.77344m12.48046-2.35547l-4.82421 5.10938m4.82421-5.10938l2.3672.65235m10.80077-.78125l-4.52734 5.37109m3.8711-4.58984l1.19921.2578m12.44531-1.28515l-3.87109 5.86328m3.8711-5.86328l2.4414.23047m-3.00781.6211l1.22265.11718m12.44141-1.10156l-3.4375 6.1289m3.4375-6.1289l2.45313.05469"/><g clip-path="url(#S)"><path fill="none" stroke="#000" stroke-linecap="round" stroke-linejoin="round" stroke-miterlimit="10" stroke-width=".5" d="M147.51172 387.01953l-7.02344.20703"/></g><path fill="none" stroke="#000" stroke-linecap="round" stroke-linejoin="round" stroke-miterlimit="10" stroke-width=".5" d="M147.51172 387.01953l1.21484 2.13281m-2.23828-2.10156l.60938 1.0664m13.67578-1.62109l-6.91406 1.25391m6.91406-1.2539l1.51953 1.92968m-2.52734-1.7461l.76171.96485m13.37891-1.79297l-6.55078 2.54688m6.55078-2.54688l1.85547 1.60156m-2.8086-1.23437l.9297.80078m12.92187-1.9414l-5.71875 4.08984m4.88672-3.49219l1.09765.54688m13.46875 2.16796l-6.55469-2.53125m5.60157 2.16016l.14453 1.21875m14.35156-1.8789l-7.01172-.47266m5.99219.40625l.5 1.11719m13.83984-1.21875l-7.02343-.13672m7.02343.13672l1.10938 2.1914m11.59766-4.23828l-5.8086 3.95703m4.96484-3.38281l1.08594.57031m13.28516-.78515l-6.23438 3.23828m6.23438-3.23828l2.02344 1.39062m10.90234-1.98437l-5.45703 4.42578m5.45703-4.42578l2.26172.95703m10.71094-1.32422l-4.76954 5.16015m4.07422-4.41015l1.1875.3125m13.4961-.21485l-6.11328 3.46485m6.11328-3.46485l2.07031 1.31641m11.35547-1.10156l-6.33594 3.03515m5.41406-2.59375l.98828.72657m12.75782-1.92578l-5.35547 4.55078m4.57812-3.88672l1.13672.45312m13.38281-.48828l-6.20703 3.29297m6.20703-3.29297l2.03125 1.375m9.79688-2.84765l-3.23828 6.23828m2.76953-5.32813l1.22656-.01562m14.02735.54687l-6.17188 3.35938m6.17188-3.35938l2.04687 1.35156m11.45703-.9375l-6.55469 2.53125m6.5547-2.53125l1.85546 1.60547m11.4375-1.66406l-6.50781 2.64453m6.50781-2.64453l1.88281 1.57422m11.1875-2.0664l-6.01953 3.6289m6.01953-3.6289l2.10547 1.2578m10.20313-2.32812l-4.00782 5.76953m4.00782-5.76953l2.4375.28906m10.86718-.29687l-3.98437 5.78515m3.40234-4.9453l1.21875.14062m13.26953-.46875l-5.16796 4.76172m5.16796-4.76172l2.31641.8125m8.42969-1.94531l-.02735 7.02734m.02735-7.02735l2.16797-1.14453m13.09765 1.7461l-3.93359 5.82422"/><g clip-path="url(#T)"><path fill="none" stroke="#000" stroke-linecap="round" stroke-linejoin="round" stroke-miterlimit="10" stroke-width=".5" d="M465.52734 384.21094l2.44141.25781"/></g><g clip-path="url(#U)"><path fill="none" stroke="#000" stroke-linecap="round" stroke-linejoin="round" stroke-miterlimit="10" stroke-width=".5" d="M147.46875 373.24219l-6.9375 1.13281"/></g><path fill="none" stroke="#000" stroke-linecap="round" stroke-linejoin="round" stroke-miterlimit="10" stroke-width=".5" d="M147.46875 373.24219l1.48438 1.95312m11.86718-1.60547l-7.01172.4375m7.01172-.4375l1.28516 2.08985m-2.30469-2.02735l.64453 1.04688m13.42969-2.23438l-6.49219 2.6875m6.49219-2.6875l1.89453 1.5586m11.67969-.46094l-7.00781.49219m5.98828-.42188l.65234 1.03906m13.23828-2.58984l-6.1211 3.45313m6.1211-3.45313l2.0664 1.32031m10.71485-2.03515l-5.05469 4.88281m5.0547-4.88281l2.33593.75781m11.44922-.15234l-5.99219 3.67187m5.99219-3.67187L229 373.21875m11.54297-.5039l-6.67578 2.1875m6.67578-2.1875l1.76953 1.69921m11.44531-1.96875l-6.47656 2.72656m6.47656-2.72656l1.90235 1.55078m10.59375-2.73828l-4.83594 5.10156m4.83594-5.10156l2.36328.65235m11.51953.04687l-5.97266 3.70313m5.97266-3.70313l2.1211 1.23047m11.41406-.8164l-6.41016 2.875m6.41016-2.875l1.9375 1.5039m11.58203-.91406l-6.82032 1.69531m6.82032-1.69531l1.64062 1.82422M320.35547 372.5l-6.51953 2.61719m6.51953-2.61719l1.8789 1.58203m11.55079-1.2539l-6.75 1.96093m6.75-1.96094l1.71093 1.76172m11.73829-.59765l-7.01563-.3711m7.01563.3711l1.03515 2.22656m12.1875-3.23828l-6.83203 1.65625m6.83203-1.65625l1.6289 1.83594m-2.625-1.59375l.81641.91406m13.30079-1.73047l-6.44141 2.80469m6.4414-2.80469l1.92188 1.52344m-2.85937-1.11719l.96093.76563m13.13672-1.48438l-6.13281 3.42969m6.13281-3.42969l2.0625 1.33203m11.5586-.60547l-6.7461 1.97656m6.7461-1.97656l1.71484 1.7539m11.60937-1.71874l-6.76562 1.90625m6.76562-1.90625l1.69532 1.77344m11.35937-2.4336l-6.24219 3.22656m6.2422-3.22656l2.01562 1.39453m11.41015-1.16015l-6.46484 2.75781m6.46484-2.75781l1.91016 1.54297m9.48828-3.42188l-2.63281 6.51563m2.25-5.56641l1.21875-.1289m11.75781-1.02735l-1.1914 6.92578m1.01953-5.91797l1.16406-.38281"/><g clip-path="url(#V)"><path fill="none" stroke="#000" stroke-linecap="round" stroke-linejoin="round" stroke-miterlimit="10" stroke-width=".5" d="M147.3789 359.53516l-6.7578 1.91796"/></g><path fill="none" stroke="#000" stroke-linecap="round" stroke-linejoin="round" stroke-miterlimit="10" stroke-width=".5" d="M147.3789 359.53516l1.69923 1.76953m-2.6836-1.49219l.85156.88672m13.57422-.46875l-7.00781.52734m7.00781-.52734l1.3086 2.07422m-2.32813-1.9961l1.3086 2.07422m12.6289-3.53125l-6.21484 3.28125m6.21484-3.28125l2.02734 1.3789m-2.93359-.90233l1.01563.6914m13.51953-.32422l-6.84375 1.59766m6.84375-1.59766l1.61328 1.84766m11.77344-1.41016l-6.98828.71875m6.98828-.71875l1.37109 2.03516m11.7539-2.86719l-6.60937 2.38281m6.60938-2.3828l1.8203 1.64843m11.6875-.79688l-6.99218.6836m6.99219-.6836l1.35937 2.04297m11.84375-2.64062l-6.76953 1.875m6.76953-1.875l1.69141 1.78125m11.60938-1.83985l-6.73829 1.9961m5.75782-1.70703l.85937.875m13.03125-2.05079l-5.9336 3.76563m5.9336-3.76563l2.13672 1.21485m11.25-1.09766l-6.07422 3.53125m6.07422-3.53125l2.08594 1.29297m11.53906-.59375l-6.69531 2.13281m5.72265-1.8203l.87891.85546m13.55469-.46875l-6.98828.73438m5.97265-.625l.6875 1.01562m13.63281-.28906l-6.96484-.9336m6.96485.9336l.85546 2.30078m12.46875-3.16406l-6.98437.79296m6.98437-.79296l1.38672 2.02343m-2.40234-1.91015l.69531 1.01172m13.65625-.60157l-7.02344-.2539m7.02344.2539l1.07031 2.20704m12.15235-1.52344l-6.83985-1.6211m6.83985 1.6211l.6211 2.3711m12.78905-3.15626l-7.02734-.05469m7.02734.0547l1.13282 2.17577m11.59765-4.14062l-5.85937 3.8789m5.85937-3.8789l2.15625 1.16797m-3.00781-.60547l1.07813.58594m12.8164-1.50391l-5.3164 4.58984m5.3164-4.58984l2.28906.88672m10.85157-1.07813l-4.96875 4.96875m4.24609-4.2461l1.17188.35938m13.35546-.46875l-5.9453 3.7461m5.07812-3.20313l1.0664.60938m13.46485-.42578l-6.64454 2.29296m5.67579-1.96093l.89843.83594m13.42579-1.03516l-6.72657 2.02344m5.75-1.72657l.86328.8711m13.0625-1.98828l-5.99609 3.66406m5.125-3.1289l1.05469.625"/><g clip-path="url(#W)"><path fill="none" stroke="#000" stroke-linecap="round" stroke-linejoin="round" stroke-miterlimit="10" stroke-width=".5" d="M146.71484 344.94531l-5.42968 4.46485"/></g><path fill="none" stroke="#000" stroke-linecap="round" stroke-linejoin="round" stroke-miterlimit="10" stroke-width=".5" d="M145.92578 345.59766l1.13281.46875m13.6172.08984l-6.72267 2.04297m6.72266-2.04297l1.73438 1.74219m11.6875-1.27735l-6.9375 1.11329m6.9375-1.11329l1.48437 1.95704m11.59766-2.76954l-6.46875 2.7422m6.46875-2.7422l1.90625 1.54297m11.6875-.13281l-7.02735-.08203m7.02735.08203l1.125 2.17969m12.1211-1.53125l-6.89063-1.3789m5.89062 1.17968l.35156 1.17187m13.72266-.21484l-6.40625-2.89063m5.47266 2.46875l.08203 1.22266m14.45703-1.86328l-6.98438-.76953m5.96875.65625l.45313 1.14062m13.89062-1.17968l-7.01172-.46485m7.01172.46485l1.00391 2.23828m12.29688-2.10156l-6.98829-.73829m6.98828.73829l.92188 2.27343m12.41406-2.5664l-7.02734-.14844m6.0039.125l.5547 1.09765m13.73046-1.7578l-6.92187 1.21484m6.92187-1.21485l1.50781 1.9375m11.8086-1.9375l-6.92188 1.21485m6.92188-1.21485l1.50781 1.9375m11.82813-.85156l-6.96485-.95703m6.96485.95703l.84375 2.30469m-1.85938-2.4414l.42578 1.14843m13.91406-1.08203l-6.98046-.8164m6.98046.8164l.89063 2.28515m-1.90625-2.40234l.44531 1.14063m13.85156-2.05079l-6.91796 1.23829m6.91796-1.23829l1.51563 1.9297m-2.51953-1.75l.75781.96483m13.53516-1.27734l-6.86328 1.5039m6.86328-1.5039l1.58984 1.8711m-2.58984-1.65235l.79687.9336m13.54688-1.01172l-6.92188 1.22265m6.92188-1.22265l1.51172 1.93359m-2.51954-1.7539l.75782.96484m13.57812-1.07422l-6.94531 1.08203m6.94531-1.08203l1.46875 1.96094m-2.48047-1.8047l.73438.98438m13.23437-2.22265l-6.23047 3.2461m6.23047-3.2461l2.02344 1.38672m-2.92969-.91407l1.01172.69532m13.17969-1.22657l-6.16797 3.36329m6.16797-3.36329l2.04687 1.35157m-2.9453-.86329l2.04687 1.35157m12.29297-1.58203l-6.42579 2.84765m6.42579-2.84765l1.92968 1.51562m-2.86328-1.10156l.96485.75781m12.99609-1.69531l-5.84766 3.89844m5.84766-3.89844l2.16016 1.16406m11.66015.02344l-6.85937 1.51953m5.86328-1.29688l.79687.9297m13.55078-.98048l-6.92968 1.17579"/><g clip-path="url(#X)"><path fill="none" stroke="#000" stroke-linecap="round" stroke-linejoin="round" stroke-miterlimit="10" stroke-width=".5" d="M467.02734 346.58984l1.4961 1.94141"/></g><g clip-path="url(#Y)"><path fill="none" stroke="#000" stroke-linecap="round" stroke-linejoin="round" stroke-miterlimit="10" stroke-width=".5" d="M147.50781 333.64063l-7.01562.4453"/></g><path fill="none" stroke="#000" stroke-linecap="round" stroke-linejoin="round" stroke-miterlimit="10" stroke-width=".5" d="M146.48438 333.70313l.64453 1.04687m13.69922-.91016l-7.02735.04688m6.0039-.03906l.58595 1.07812m13.72265-1.51172l-6.96875.89844m5.95703-.76563l.70703 1m13.51563-1.64062l-6.75781 1.91406m5.77734-1.63672l.84766.88672m13.30468-1.57422l-6.47265 2.73438m6.47265-2.73438l1.90625 1.55079m11.6875-.14454l-7.02734-.07812m7.02734.07812l1.125 2.1797m-2.14843-2.19142l.5625 1.08985m13.76562-1.36719l-7.00781.5m7.00781-.5l1.30469 2.07813m-2.32422-2.00391l.65234 1.03906m13.66797-1.25781l-6.98047.78906m6.98047-.78906l1.39063 2.02344m11.9336-1.3125l-7-.63281m7 .6328l.95312 2.26173m12.34765-2.1211l-6.96875-.91406m6.96875.91406l.85938 2.29688m12.45312-3.20703l-6.96484.90625m6.96484-.90625l1.42578 1.99609m11.91797-1.66797l-7.02344.2461m7.02344-.2461l1.22656 2.125m12.04688-2.5625l-6.9375 1.125m6.9375-1.125l1.48437 1.95313m11.76954-2.2422l-6.81641 1.70313m6.8164-1.70312l1.64454 1.82031m11.76953-.73828l-7.01172-.46484m7.01172.46484l1.0039 2.23828m12.17188-1.46875l-6.73438-2m6.73438 2l.48828 2.40625m-1.46875-2.69531l.2461 1.19922m14.1914-2.03516l-7.01953.25m7.01953-.25l1.23047 2.1211m-2.25-2.08594l.61328 1.0625m13.45313-2.32422l-6.48438 2.70312m6.48438-2.70312l1.89843 1.5586m-2.83984-1.16407l.94922.77734m13.32422-1.14062l-6.51563 2.63672m6.51563-2.63672l1.8789 1.57812m-2.82812-1.1914l.9414.78515m13.57032.38672l-7.01172-.47656m7.01172.47656l1 2.24219m12.29297-2.95313l-6.96485.94141m6.96485-.9414l1.42968 1.99609m11.73047-2.64844l-6.65625 2.25m6.65625-2.25l1.78516 1.67969m-2.7539-1.35547l.89062.84375m13.03125-1.92578l-5.9336 3.76562m5.9336-3.76562l2.13281 1.21094m-2.9961-.66407l2.13282 1.21094m12.29297-1.29687l-6.42969 2.83984m6.42969-2.83984l1.92968 1.51953m-2.86718-1.10547l1.92968 1.51562m12.5547-1.18359l-6.89454 1.35156"/><g clip-path="url(#Z)"><path fill="none" stroke="#000" stroke-linecap="round" stroke-linejoin="round" stroke-miterlimit="10" stroke-width=".5" d="M467.00781 333.1875l1.55078 1.90234"/></g><path fill="none" stroke="#000" stroke-linecap="round" stroke-linejoin="round" stroke-miterlimit="10" stroke-width=".5" d="M466.00781 333.38281l.77344.95313"/><g clip-path="url(#aa)"><path fill="none" stroke="#000" stroke-linecap="round" stroke-linejoin="round" stroke-miterlimit="10" stroke-width=".5" d="M147.46094 319.9414l-6.92188 1.21485"/></g><path fill="none" stroke="#000" stroke-linecap="round" stroke-linejoin="round" stroke-miterlimit="10" stroke-width=".5" d="M147.46094 319.9414l1.50781 1.9336m11.85547-1.46875l-7.01953.28125m7.01953-.28125l1.23828 2.11719m12.01953-2.6289l-6.90625 1.30468m6.90625-1.30469l1.53516 1.91797m-2.53906-1.72656l.76562.95703m13.57422-1.02344l-6.94531 1.0586m6.9453-1.0586l1.46485 1.96485m11.88672-1.28907l-7.01953-.29687m7.01953.29687l1.0625 2.21485m12.2539-2.23829l-7.02343-.25m7.02344.25l1.07422 2.20704m-2.09375-2.2422l.53515 1.10157m13.70313-2.01953l-6.82813 1.65625m6.82813-1.65625l1.6289 1.83594m-2.62109-1.59375l.8125.91797m13.35156-1.61329l-6.54297 2.56641m6.54297-2.5664l1.86328 1.59765m-2.8164-1.22265l.9336.79687m13.3125-1.22656l-6.4961 2.67578m6.4961-2.67578l1.89062 1.5664m-2.83594-1.17578l.94531.78125m13.375-1.02344l-6.61719 2.375m6.6172-2.375l1.8125 1.65235m-2.77735-1.30469l.91015.82422m13.52344-.57813l-6.92578 1.19141m6.92578-1.1914l1.5039 1.9375m-2.51171-1.76563l.75.96875m13.58984-1.03516l-6.95703.98047m6.95703-.98047l1.4414 1.98438m11.8711-2.01172l-6.95312 1.03125m6.95312-1.03125l1.45703 1.97266m11.8086-2.22266l-6.85547 1.53516m6.85547-1.53516l1.59765 1.85938m11.71875-1.85157l-6.85937 1.51953m6.85937-1.51953l1.59375 1.86719m-2.58984-1.64453l.79688.92969m13.52343-1.1211l-6.875 1.45313m6.875-1.45313l1.57422 1.88281m-2.57422-1.67187l.78516.9414m13.52344.33594l-6.86328-1.51953m5.86328 1.29688l.32812 1.1836m13.39063-3.79688l-5.66797 4.15234m4.84375-3.55078l1.10156.53515m13.19531-.90625l-5.98437 3.6875m5.98437-3.6875l2.11719 1.2422m-2.98828-.70313l1.0586.61719m13.0664-1.2461l-5.86328 3.8711m5.86328-3.8711l2.15625 1.17188m-3.00781-.60938l1.07812.58594m12.58594-1.7539l-4.85547 5.07812m4.14844-4.33985l1.17969.33204m13.58203 2.98828l-6.33594-3.03516m19.32812-.54297l-5.6914 4.1211m4.86328-3.52344l1.10156.54297m12.46485-1.76172l-4.53907 5.36328m4.53907-5.36328l2.39843.51953m-3.0586.26172l1.19923.25781m13.2461-.5586l-5.47657 4.40235"/><g clip-path="url(#ab)"><path fill="none" stroke="#000" stroke-linecap="round" stroke-linejoin="round" stroke-miterlimit="10" stroke-width=".5" d="M466.30078 318.34766l2.2539.96484"/></g><g clip-path="url(#ac)"><path fill="none" stroke="#000" stroke-linecap="round" stroke-linejoin="round" stroke-miterlimit="10" stroke-width=".5" d="M465.5039 318.98828l2.25391.96485"/></g><path fill="none" stroke="#000" stroke-linecap="round" stroke-linejoin="round" stroke-miterlimit="10" stroke-width=".5" d="M464.70703 319.6289l1.1289.48438"/><path fill="#00f" fill-rule="evenodd" d="M388.23828 472.08594h8.61719V461.9414h-8.61719v10.14453"/><path fill="azure" fill-rule="evenodd" d="M390.07031 463.77344h.83594v2.82422h3.28516v-2.82422h.83203v6.48047h-.83203v-2.91797h-3.28516v2.91797h-.83594v-6.48047"/><path fill="#00f" fill-rule="evenodd" d="M321.66406 458.77344h8.61719V448.625h-8.61719v10.14844"/><path fill="azure" fill-rule="evenodd" d="M323.4961 450.45703h.83202v2.82422h3.28907v-2.82422h.83203v6.48047h-.83203v-2.91406h-3.28906v2.91406h-.83204v-6.48047"/><path fill="#00f" fill-rule="evenodd" d="M388.23828 432.14063h8.61719v-10.14454h-8.61719v10.14454"/><path fill="azure" fill-rule="evenodd" d="M390.07031 423.82813h.83594v2.82421h3.28516v-2.82421h.83203v6.48046h-.83203v-2.91796h-3.28516v2.91796h-.83594v-6.48046"/><path fill="#ff3030" fill-rule="evenodd" d="M366.74219 427.70313h7.6914v-10.14454h-7.6914v10.14454"/><path fill="azure" fill-rule="evenodd" d="M368.57422 419.39063h.83203v5.73828h3.19531v.74218h-4.02734v-6.48046"/><path fill="#ff3030" fill-rule="evenodd" d="M295.72656 414.38672h7.69531v-10.14453h-7.6953v10.14453"/><path fill="azure" fill-rule="evenodd" d="M297.5586 406.07422h.83593v5.74219h3.1914v.73828h-4.02734v-6.48047"/><path fill="#00f" fill-rule="evenodd" d="M201.82813 392.19531h8.61718v-10.14453h-8.61719v10.14453"/><path fill="azure" fill-rule="evenodd" d="M203.66016 383.88281h.83203v2.82422h3.28906v-2.82422h.83203v6.48047h-.83203v-2.91406h-3.28906v2.91406h-.83203v-6.48047"/><path fill="#ff3030" fill-rule="evenodd" d="M189.20703 378.88281h7.6914v-10.14844h-7.6914v10.14844"/><path fill="azure" fill-rule="evenodd" d="M191.03906 370.5664h.83594v5.7422h3.1914v.73827h-4.02734v-6.48046"/><path fill="#ffffe0" fill-rule="evenodd" d="M328.42969 390.32422h22.17969v-10.1914h-22.1797v10.1914"/><path fill-rule="evenodd" d="M331.92969 381.96484h.50781v6.29688h-.78516v-4.48828h-1.39062v-.5586l.5586-.0625.2539-.05468.23047-.08985.20312-.14062.17188-.21094.14453-.29297.10547-.39844m4.8125 0l.23047.01954.21875.05859.20703.08594.19531.12109.1836.15234.17187.17579.30469.41796.24218.4922.1797.54687.10937.58203.03906.58984-.03906.59375-.10938.58203-.17969.55469-.24218.5039-.3047.42579-.17187.17969-.18359.15234-.19531.125-.20703.09375-.21875.05469-.23047.01953-.23047-.01953-.21875-.0547-.20703-.09374-.19531-.125-.1836-.15235-.17187-.17968-.3047-.42578-.24218-.50391-.17969-.55469-.10937-.58203-.03906-.59375h.83203l.02734.5625.08203.5039.1289.44532.16017.375.1914.30078.21094.21875.22265.13672.22657.04688.22656-.04688.22266-.13672.21093-.21875.19141-.30078.16016-.375.1289-.44531.07813-.5039.03125-.5625-.03125-.5625-.07813-.5-.1289-.4336-.16016-.36719-.1914-.29297-.21094-.21484-.22266-.1289-.22656-.04688-.22656.04687-.22266.1289-.21094.21485-.1914.29297-.16016.36719-.1289.4336-.08204.5-.02734.5625h-.83203l.03906-.58985.10937-.58203.1797-.54688.24218-.49219.30469-.41796.17187-.17579.1836-.15234.1953-.1211.20704-.08593.21875-.0586.23047-.01953m5.08984 0h.51172v6.29688h-.78906v-4.48828h-1.38672v-.5586l.5586-.0625.2539-.05468.22656-.08985.20313-.14062.17578-.21094.14062-.29297.10547-.39844m2.82422 2.17579h.78906l.01953-.31641.0586-.28516.09765-.2539.14063-.21485.17969-.17187.22656-.1289.26172-.08204.3086-.02734.23827.02343.22266.0625.20703.10157.17969.13671.14844.17188.11328.20703.0703.23828.02345.26172-.01954.26953-.0664.22266-.10938.19531-.15625.16797-.19921.16406-.25.16406-.63282.39063-.53515.3125-.4375.3164-.34766.32423-.26563.33593-.1875.35156-.125.3711-.0703.39453-.01954.41797h4.21094v-.74219h-3.33203l.08203-.28125.11328-.23828.14844-.20313.1875-.17968.23047-.17188.27734-.17578.71875-.41406.41406-.20703.34766-.23047.28125-.25.21875-.26953.16406-.27735.10938-.28515.0664-.28125.01953-.28125-.04296-.38672-.1211-.34766-.1875-.30469-.25-.26562-.30469-.21094-.34375-.16015-.3828-.09766-.40626-.03516-.4336.03516-.39843.09766-.35547.16796-.30469.23438-.24609.30078-.1875.375-.11719.44922-.03906.51563"/><path fill="#ffffe0" fill-rule="evenodd" d="M195.27734 357.33594h22.1797v-10.1914h-22.1797v10.1914"/><path fill-rule="evenodd" d="M198.77734 348.97656h.50782v6.29688H198.5v-4.49219h-1.39063v-.55469l.5625-.0664.25-.05079.23047-.08984.20313-.14062.17578-.21094.14063-.29688.10546-.39453m4.8125 0l.23047.01953.21875.0547.20703.08983.19922.1211.1836.14844.17187.17578.30078.42187.24219.49219.17969.54688.11328.57812.03906.59375-.03906.58984-.11328.58594-.17969.55469-.24219.5-.30078.42969-.17187.17968-.1836.15235-.19922.125-.20703.08984-.21875.0586-.23047.01953-.22656-.01954-.21875-.05859-.21094-.08984-.1953-.125-.1836-.15235-.17188-.17968-.30078-.4297-.24219-.5-.18359-.55468-.10938-.58594-.03906-.58984h.83203l.03125.5625.08203.5039.125.44532.16407.3711.1875.30077.21094.22266.22265.13672.22656.04687.22657-.04687.22265-.13672.21094-.22266.1914-.30078.16407-.3711.125-.4453.08203-.50391.02734-.5625-.02734-.5625-.08203-.5-.125-.4375-.16406-.36328-.19141-.29297-.21094-.21484-.22265-.13282-.22657-.04296-.22656.04296-.22266.13282-.21093.21484-.1875.29297-.16406.36328-.125.4375-.08204.5-.03125.5625h-.83203l.03906-.59375.10938-.57813.1836-.54687.24218-.49219.30078-.42187.17188-.17578.1836-.14844.1953-.1211.21094-.08984.21875-.05469.22656-.01953m5.09375 0h.50782v6.29688h-.78516v-4.49219h-1.39063v-.55469l.5625-.0664.25-.05079.23047-.08984.20313-.14062.17187-.21094.14453-.29688.10547-.39453m2.82422 2.17578h.78516l.01953-.3164.0586-.28516.10156-.2539.13672-.21485.18359-.17578.22266-.1289.26562-.07813.3086-.02735.23827.01954.22266.0625.20313.10156.17968.14062.14844.17188.11328.20703.07031.23438.02735.26562-.02344.26953-.0664.22266-.10938.1914-.15234.17188-.20313.16406-.2461.16406-.6328.39063-.53907.3125-.4375.3164-.34765.32422-.26172.33594-.1914.35156-.125.3711-.07032.39062-.01953.42188h4.21094v-.74219h-3.33204l.08203-.28516.1172-.23437.14452-.20313.1875-.17968.23047-.17188.28125-.17578.71485-.41797.41797-.20312.34375-.23047.28125-.2539.21875-.26563.16406-.27735.11328-.28515.0625-.28516.01953-.28125-.04297-.38281-.11719-.34766-.1914-.3086-.25-.26171-.30078-.21485-.34766-.15625-.3789-.09765-.40626-.03516-.4375.03516-.39843.09765-.35157.16407-.30468.23437-.25.30469-.1836.375-.11719.44531-.03906.51953"/><path fill="#ffffe0" fill-rule="evenodd" d="M319.55078 343.20313h22.1836v-10.19141h-22.1836v10.1914"/><path fill-rule="evenodd" d="M323.05078 334.84375h.51172v6.29688h-.78906v-4.4922h-1.38672v-.55468l.5586-.0625.25-.05469.23046-.08984.20313-.14063.17578-.21093.14062-.29297.10547-.39844m4.8125 0l.23047.01953.21875.05469.21094.08984.19531.1211.1836.15234.17187.17188.30078.42187.24219.49219.17969.54687.11328.57813.03906.59375-.03906.59375-.11329.58203-.17968.55469-.24219.5-.30078.42968-.17188.1797-.18359.15233-.19531.125-.21094.08985-.21875.0586-.23047.01952-.22656-.01953-.21875-.0586-.21094-.08983-.19531-.125-.1836-.15235-.17187-.17969-.30078-.42968-.24219-.5-.17969-.5547-.11328-.58202-.03906-.59375h.83594l.02734.5625.08203.5039.125.44532.16406.375.19141.30078.21094.21875.22265.13672.22266.04687.22656-.04687.22266-.13672.21094-.21875.1914-.30078.16407-.375.125-.44532.08203-.5039.02734-.5625-.02734-.5625-.08203-.5-.125-.4375-.16407-.36328-.1914-.29297-.21094-.21485-.22266-.1328-.22656-.04298-.22265.04297-.22266.13281-.21094.21485-.1914.29297-.16407.36328-.125.4375-.08203.5-.02734.5625h-.83594l.03906-.59375.11328-.57813.1797-.54687.24218-.49219.30078-.42188.17188-.17187.18359-.15234.19531-.1211.21094-.08984.21875-.05469.22656-.01953m5.09375 0h.50781v6.29688h-.78515v-4.4922h-1.39063v-.55468l.5625-.0625.25-.05469.23047-.08984.20313-.14063.17578-.21093.14062-.29297.10547-.39844m6.80469 1.6211h-.78906l-.05079-.21094-.08203-.1875-.10546-.16016-.12891-.1289-.14844-.10548-.16015-.07421-.16797-.04297-.17188-.01563-.32812.03906-.28907.1211-.24609.19531-.20313.26953-.16015.33594-.11719.40625-.07031.46484-.02344.52735.1914-.20313.1836-.15625.1875-.125.1836-.08594.1875-.0625.1953-.03515.39844-.02344.3086.02735.32031.09375.3164.15625.29298.21875.2578.28515.19923.35156.07031.19922.05469.21485.02734.23828.0039.25-.78515.04687-.02734-.26172-.07813-.25-.1211-.23437-.16015-.21094-.19531-.17578-.21875-.13672-.24219-.08984-.2539-.03125-.25391.03125-.24219.08984-.21875.13672-.1914.17578-.16407.21094-.12109.23437-.07813.25-.02734.26172.02735.25781.07812.25.1211.23438.16406.21094.1914.17969.21875.13671.24219.08594.2539.03125.25391-.03125.24219-.08594.21875-.13671.19531-.1797.16016-.21093.1211-.23438.07812-.25.02734-.2578.78516-.04688-.03125.3711-.08985.37108-.16015.35938-.22266.32813-.28906.28125-.16797.12109-.1914.10156-.20313.08203-.22656.0625-.23829.03906-.26171.01172-.28125-.01562-.26172-.04688-.23828-.07812-.21485-.10547-.19531-.1289-.17188-.15626-.15625-.17968-.13671-.20313-.11329-.22265-.10156-.2422-.14453-.53515-.08594-.59375-.02734-.64062.03906-.7422.11328-.66405.1875-.57813.1211-.2539.13672-.23047.15234-.20704.16797-.18359.1875-.15234.20312-.13281.21875-.10157.23047-.07031.25-.04688.26172-.01562.36328.03516.33203.09375.29688.15234.25781.19922.21094.24219.16406.27343.11719.3047.0625.3203"/><path fill="#ffffe0" fill-rule="evenodd" d="M213.03125 328.67188h22.17969v-10.19532h-22.17969v10.19531"/><path fill-rule="evenodd" d="M216.53125 320.3125h.50781v6.29297h-.78515v-4.48828h-1.39063v-.5586l.5625-.0625.25-.05468.23047-.08985.20313-.14062.17578-.21094.14062-.29297.10547-.39453m4.8125 0l.23047.01563.21875.05859.20703.08984.19922.1211.1836.14843.17187.17579.30078.41796.24219.4961.17968.54297.11328.58203.03516.58984-.03516.59375-.11328.58203-.17968.55469-.2422.5039-.30077.42579-.17188.17969-.1836.15625-.19921.12109-.20703.09375-.21875.05469-.23047.01953-.22656-.01953-.22266-.0547-.20703-.09374-.19531-.1211-.1836-.15625-.17187-.17968-.30078-.42578-.2461-.50391-.17968-.55469-.10938-.58203-.03906-.59375h.83203l.03125.5625.08203.50781.125.44141.16406.375.1875.30078.21094.22266.22266.13672.22656.04687.22656-.04687.22266-.13672.21094-.22266.1914-.30078.16406-.375.125-.4414.08204-.50782.02734-.5625-.02734-.5625-.08203-.5-.125-.4336-.16407-.36718-.1914-.29297-.21094-.21484-.22266-.1289-.22656-.04688-.22656.04687-.22266.1289-.21094.21485-.1875.29297-.16406.36719-.125.4336-.08203.5-.03125.5625h-.83203l.03906-.58985.10938-.58203.17968-.54297.2461-.4961.30078-.41796.17187-.17579.1836-.14843.19531-.1211.20703-.08984.22266-.0586.22656-.01562m5.09375 0h.50781v6.29297h-.78515v-4.48828h-1.39063v-.5586l.5586-.0625.2539-.05468.23047-.08985.20313-.14062.17187-.21094.14453-.29297.10547-.39453m6.80078 1.61719h-.78516l-.05078-.21094-.08203-.1875-.10937-.15625-.1289-.13281-.14454-.10156-.16016-.07422-.16797-.04688-.17578-.01562-.32422.04296-.28906.1172-.2461.19921-.20312.26563-.16015.33984-.11719.40234-.07031.46875-.02344.52735.1875-.20313.1875-.16015.1875-.1211.1836-.08984.1875-.0625.1914-.03516.40234-.02344.3086.03125.32031.08985.3164.15625.29298.21875.2539.28515.19922.35157.07422.19922.05078.21875.03125.23437.0039.25-.78515.04688-.02734-.25782-.07813-.25-.125-.23437-.16016-.21094-.1914-.17969-.21875-.13671-.24219-.08594-.2539-.03125-.25391.03125-.24219.08594-.21875.13671-.19531.1797-.16016.21093-.1211.23437-.07812.25-.02734.25782.02734.2578.07813.25392.1211.23437.16015.20703.19531.17969.21875.13672.24219.08984.2539.03125.25391-.03125.24219-.08984.21875-.13672.1914-.17969.16016-.20703.125-.23438.07813-.2539.02734-.25781.78516-.04688-.03125.3711-.09375.37109-.15625.35937-.22266.32813-.28906.28125-.17188.1211-.1875.10156-.20703.08203-.22266.0625-.24218.03906-.25781.01172-.28516-.01563-.25781-.04687-.23828-.07422-.21485-.10547-.19531-.13281-.17578-.15625-.15235-.17969-.13672-.20313-.11718-.22265-.09766-.24219-.14844-.53515-.08203-.59375-.02734-.63672.03906-.7461.11328-.66406.1875-.57422.11719-.25781.13672-.23047.15625-.20703.16797-.17969.1875-.15625.20312-.1289.21485-.10157.23437-.07422.2461-.04687.26171-.01172.3672.03125.33202.09766.29688.14843.2539.20313.21485.23828.16406.27734.11719.30079.0586.3203"/></g></defs><use xlink:href="#ad"/></svg>