<svg xmlns="http://www.w3.org/2000/svg" role="img" xmlns:xlink="http://www.w3.org/1999/xlink" viewBox="142.45 309.95 326.84 171.84"><defs><clipPath id="a"><path d="M144 311.67188h1v168.65625h-1zm0 0"/></clipPath><clipPath id="b"><path d="M144 480h1v.32813h-1zm0 0"/></clipPath><clipPath id="c"><path d="M144 311.67188h324v168.65625H144zm0 0"/></clipPath><clipPath id="d"><path d="M429 476h7v4.32813h-7zm0 0"/></clipPath><clipPath id="e"><path d="M430 478h5v2.32813h-5zm0 0"/></clipPath><clipPath id="f"><path d="M457 479h4v1.32813h-4zm0 0"/></clipPath><clipPath id="g"><path d="M467 311.67188h1v168.65625h-1zm0 0"/></clipPath><clipPath id="h"><path d="M144 479h4v1.32813h-4zm0 0"/></clipPath><clipPath id="i"><path d="M147 479h3v1.32813h-3zm0 0"/></clipPath><clipPath id="j"><path d="M146 479h2v1.32813h-2zm0 0"/></clipPath><clipPath id="k"><path d="M153 479h9v1.32813h-9zm0 0"/></clipPath><clipPath id="l"><path d="M160 479h3v1.32813h-3zm0 0"/></clipPath><clipPath id="m"><path d="M159 479h2v1.32813h-2zm0 0"/></clipPath><clipPath id="n"><path d="M166 479h9v1.32813h-9zm0 0"/></clipPath><clipPath id="o"><path d="M173 479h3v1.32813h-3zm0 0"/></clipPath><clipPath id="p"><path d="M172 479h3v1.32813h-3zm0 0"/></clipPath><clipPath id="q"><path d="M180 479h8v1.32813h-8zm0 0"/></clipPath><clipPath id="r"><path d="M187 479h3v1.32813h-3zm0 0"/></clipPath><clipPath id="s"><path d="M193 479h9v1.32813h-9zm0 0"/></clipPath><clipPath id="t"><path d="M200 479h3v1.32813h-3zm0 0"/></clipPath><clipPath id="u"><path d="M206 480h9v.32813h-9zm0 0"/></clipPath><clipPath id="v"><path d="M213 480h3v.32813h-3zm0 0"/></clipPath><clipPath id="w"><path d="M220 480h8v.32813h-8zm0 0"/></clipPath><clipPath id="x"><path d="M227 480h2v.32813h-2zm0 0"/></clipPath><clipPath id="y"><path d="M233 479h8v1.32813h-8zm0 0"/></clipPath><clipPath id="z"><path d="M240 479h3v1.32813h-3zm0 0"/></clipPath><clipPath id="A"><path d="M246 479h9v1.32813h-9zm0 0"/></clipPath><clipPath id="B"><path d="M253 479h3v1.32813h-3zm0 0"/></clipPath><clipPath id="C"><path d="M260 480h8v.32813h-8zm0 0"/></clipPath><clipPath id="D"><path d="M266 480h2v.32813h-2zm0 0"/></clipPath><clipPath id="E"><path d="M273 479h8v1.32813h-8zm0 0"/></clipPath><clipPath id="F"><path d="M279 479h2v1.32813h-2zm0 0"/></clipPath><clipPath id="G"><path d="M286 479h9v1.32813h-9zm0 0"/></clipPath><clipPath id="H"><path d="M292 479h2v1.32813h-2zm0 0"/></clipPath><clipPath id="I"><path d="M300 478h8v2.32813h-8zm0 0"/></clipPath><clipPath id="J"><path d="M305 479h3v1.32813h-3zm0 0"/></clipPath><clipPath id="K"><path d="M313 478h8v2.32813h-8zm0 0"/></clipPath><clipPath id="L"><path d="M328 477h5v3.32813h-5zm0 0"/></clipPath><clipPath id="M"><path d="M342 476h4v4.32813h-4zm0 0"/></clipPath><clipPath id="N"><path d="M356 476h3v4.32813h-3zm0 0"/></clipPath><clipPath id="O"><path d="M369 476h3v4.32813h-3zm0 0"/></clipPath><clipPath id="P"><path d="M381 476h5v4.32813h-5zm0 0"/></clipPath><clipPath id="Q"><path d="M393 478h8v2.32813h-8zm0 0"/></clipPath><clipPath id="R"><path d="M406 478h8v2.32813h-8zm0 0"/></clipPath><clipPath id="S"><path d="M421 477h5v3.32813h-5zm0 0"/></clipPath><clipPath id="T"><path d="M433 479h8v1.32813h-8zm0 0"/></clipPath><clipPath id="U"><path d="M440 479h3v1.32813h-3zm0 0"/></clipPath><clipPath id="V"><path d="M446 479h9v1.32813h-9zm0 0"/></clipPath><clipPath id="W"><path d="M452 480h2v.32813h-2zm0 0"/></clipPath><clipPath id="X"><path d="M459 479h9v1.32813h-9zm0 0"/></clipPath><clipPath id="Y"><path d="M144 466h4v2h-4zm0 0"/></clipPath><clipPath id="Z"><path d="M144 453h4v2h-4zm0 0"/></clipPath><clipPath id="aa"><path d="M144 439h4v3h-4zm0 0"/></clipPath><clipPath id="ab"><path d="M144 426h4v2h-4zm0 0"/></clipPath><clipPath id="ac"><path d="M465 424h3v2h-3zm0 0"/></clipPath><clipPath id="ad"><path d="M144 411h4v6h-4zm0 0"/></clipPath><clipPath id="ae"><path d="M465 410h3v2h-3zm0 0"/></clipPath><clipPath id="af"><path d="M144 398h4v5h-4zm0 0"/></clipPath><clipPath id="ag"><path d="M466 398h2v2h-2zm0 0"/></clipPath><clipPath id="ah"><path d="M465 398h3v3h-3zm0 0"/></clipPath><clipPath id="ai"><path d="M144 385h4v5h-4zm0 0"/></clipPath><clipPath id="aj"><path d="M466 384h2v3h-2zm0 0"/></clipPath><clipPath id="ak"><path d="M465 385h3v2h-3zm0 0"/></clipPath><clipPath id="al"><path d="M144 371h4v6h-4zm0 0"/></clipPath><clipPath id="am"><path d="M465 370h3v3h-3zm0 0"/></clipPath><clipPath id="an"><path d="M144 359h4v3h-4zm0 0"/></clipPath><clipPath id="ao"><path d="M465 357h3v2h-3zm0 0"/></clipPath><clipPath id="ap"><path d="M144 344h4v6h-4zm0 0"/></clipPath><clipPath id="aq"><path d="M144 330h2v8h-2zm0 0"/></clipPath><clipPath id="ar"><path d="M466 332h2v3h-2zm0 0"/></clipPath><clipPath id="as"><path d="M144 316h1v9h-1zm0 0"/></clipPath><clipPath id="at"><path d="M144 315h2v3h-2zm0 0"/></clipPath><clipPath id="au"><path d="M466 319h2v3h-2zm0 0"/></clipPath><g id="av" clip-path="url(#clip1)"><path fill="#fff" fill-opacity="0" fill-rule="evenodd" d="M0 0h1000v1000H0zm0 0"/><path fill="#d3d3d3" fill-opacity="0" fill-rule="evenodd" d="M162.15234 355.86719l-.23437.29297.0586.23437.11718.17188.17578.23437.29297.34766.11328.0586.11719-.17188.0586-.23438.17577-.17578.46485-.17578h.69922l.23437.29297.28906.8164.0586.17579.17578.23046.35156.23438.69922.69922.17188.17578.23437.34765.23438.41016.28906.58203.41015.46485.23047.23437.23438.17578.11719.23047.17578.29297.17187 1.16406v.23438l.0586.28906.05859.11719.11719.11719.34765.41015.11719.17188.17578.17578.17578.23437.11719.17188.17188.35156.05859.23438.23437.40625.23438-.0586-.17578.17578-.0586.92969h-.58203l-.23437-.11328-.34766.11328-.11719.11719-.05859.29297-.0586.17578-.11718.17187-.46484.29297-.0586.23438-.0586.11328v.64453l.0586.17187v.41016l.0586.0586v.40624l.05859.40625.11719.17579.05859.05859.23047.64062-.0586.29297v.69922l-.05859.58203v.23438l-.0586.23047-.05468.35156v1.92187l.05469.1172h.42578l-.36719.11718-.02344.35156.89063 1.16797 1.74219.53906 1.33984.35938v.53906l.08984.8086.53516.71484 1.51953.26953.89063-.08594.08984 1.16406.53516.1797 1.16015-.1797 2.05469-.98437 1.16016-.36328 1.8789-.17578 1.69531-.1797-.17968.71876-1.51563.08594-1.25.08984-.80469.26953-1.07421.8086.26953.71875.53515.89843-.17968.625-.26563.8086.26563 1.07812.625.89844.80468.17969 1.25-.1797-.26562.72267.09766.5039.05468.29297v.17188l.0586.29296v.40625l.17578.1172.35156.11718h.40625l.29297-.17578.11328-.11719.0586-.11719.11718-.23047.0586-.17578.35156-.46484.23047-.17578.17578-.0586.17578.0586.0586.17578.11718.98828.05469.46875.0586.17188.11718.23437.17578.0586.8164.05859h.28907l.11719.23437.05859.40625.0586.35156v1.10547l.11718.29297.11719.34766.28906.69922.17578.35156.58203.7539.35157.17579.17187.0586.46875.23437.64063.46484.34765.23438.29297.17578.29297.05468.23047.0625.8164.34766.29297.17578.11328.17188.35157.35156.11719.17578.52343.64063v.28906l.0586.35156v.34766l.05859.35156.0586.28906.11718.0586.17188.05859h.17578l.58203.23437.17578.1172.17578.28905.17578.23438.11328.23437.29297.23047.11719.11719v.41016l.0586.05468.28906.23438.23437.11719.0586.11718.11718.17188.0586.11719.23047.23437.05859.17578.23437.0586.1172.05859-.1172.11328-.05859.11719v.11719l-.11719.29296-.11719.28907v.58203l.17579.11719.11718.05859.0586.11719.11719.11719.11328.05859.17578.34765.0586.35157.05858.40625v.17578l-.05859.17578-.11719.69922v.17187l.1172.17579.29296.29296h.40625l.17578.1172.11719.17187.11719.29296v.23438h-.52735l-.23047-.23438h-.23437l-.17578.0586-.0586.69922.0586.34765.11719.17579.17578.41015.11718.23047.28907.46875.17578.05469h.52344l.23437.0586.75781.64062.0586.29296v.23438l.05859.0586.23047.34765v.35156l-.11719.17188v.29297l.29297.28906.29297.17578.17187.0586.29297.17577.29297.1172.58203.40624.28906.23438.29297.17578.21875.16015.01563.01172.23047.17579.64062.52343.17578.23438.1172.17578.17577.17578.11328.17188v.64062l.1172.17578.46874.11719.58203.11719.23438.05859.23047.11328.29297.11719.11328.0586.58593.35156.28907.17187.17578.0625.17578.05469.17578.0586.69922.35155.28906.17579.23438.05468.28906.17578.23437.1172.64063.40624.29297.11719.17187.0586.23438.05859.41015.05859.23047.0586.23438.11718.0586.17188-.41017.17578.46875.0586.0586.29296.11328.23438.17578.05468.23438.0586.17578.05859.40625.11719.64062.23437.11719.17188.0586.23437v.17578l-.0586.1172-.0586.40624.23438.23438.11719.05859.34766.11719.64062.23047.17578.11718.28906.1172.17578.17577.23438.46485.58203 1.10546.17578.17579.34766.17578.17578.11719.35156.11718 1.04688.52344.23437.0586.46485.11327.29297.0586.46484.17578.75781.58203.23438.23438.34765.46484.17578.17578.28907.23438.8164.69921.29297.17579.28906.28906.29297.17578.29297.28906.69531.64063.17578.17578.29297.23437.28907.23438.46875.28906.64062.58203.34766.23438.23437.29297.34766.34765.35156.46485.9336.99218.34765.40625.11719.17579.23437.05859.11328.11719.64454.17578.23047.11328.23437.0586.29297.17577.23047.1172.9336.69921.40624.40625.23438.17578.40625.17578.23437.11719.8164.34766.34766.23437.23438.11719.29297.28906.23047.11719.7578.35156.35157.17188.23047.05859.29297.11719.23437.0586.8711.17577h.8164l.46875.23047.17188.0586.875.69921.46484.1172.29297.05858.17578.0586.23047.0586.46875.05859.34766.05859.35156.0586.40625.05859h.29297l.17187.0586v.23046l.17578.17578h.29297l.34766.0586.35156.05859.69922.11719h.64063l.46484-.23438.29297-.17578.17187-.11719.41016-.17187.28906-.17578.9336-.46485.46875-.29297.52343-.29296.46485-.17188.46484-.17578 1.05078-.46485.28906-.11718.41016-.11719.28906-.11719.52735-.17578 1.51562-.69922.58203-.34765.28907-.0586.29297-.0586.34765-.11718.875-.23047.35156-.11719h.11329l.23437-.05859.875-.23437.23438-.0586h.8125l.35156-.0586.8164-.11718.17188-.0586.35156-.05468.29297-.0586.23047-.05859.8164-.17578.17579-.0586h.34765l.23438-.05859.46484-.11718.75781-.17188.23438-.0586h.34765l.41016-.11718.28906-.0586 1.28516-.05859h.28906l.41016-.0586.23047-.05858h.17578l.875-.1172h.40625l.41015-.11718h.34766l.35156-.11328.8711-.0586h1.75l1.04687.28907.41016.11719.28906.11718.35156.11719.28907.11719 1.05078.17187.28906.0586h.29297l.29297.05859.17187.0586.41016.05859.17187.0586.1172.05858h.11718l.11719.0586.35156.0586h.11328l.41016.0664 1.92187.39453 1.92578.39453 1.51953.44922 1.69532.71875 2.14453.80469 1.60547-.71875 1.42968-.80469 1.16016-1.07813 1.25-.44921 3.03516-.71875 1.875-.35938 2.14453-1.34765 2.23437-1.25391 2.5-1.25781 1.69531-.44922 1.78516-.17969 1.16016-.26953.625.53906 1.33984-.26953.71485-.98828.98437-1.34375.44531-.17969.80469-.35937 1.875-.53907 1.78516-.44921 1.25-.26954 1.16015-.08984 1.69922-.08984 1.96094-.26954 1.25-.08984h.53906l.625-.08984h.89063l2.14453-.17969 2.41015-.17969 2.58985-.08984 1.69531.17969 1.60938.08984 1.42968.35938 1.16016.71875 1.875.98828 1.16015 1.52734.26563.71484.6289.08985.35548.89844.53515.53906.53516 1.52734 1.07422.35938h.53515l-.80469.53515.08985 1.70703.71484 2.69532.89063.80468.89453.98829.71484 1.2578 1.78516.53907 1.51953-.17969.35547 1.34375 1.60937-.80469.98047-.53906.26953.26953.31641-.21484.21875-.14453.80078.44922.44922-.35938h.35547l.53515-.26953.53907-.71875.53515-.26953.625-.98828 1.16016.44922.83984.3711 1.39454.61718 1.6953-.17969h1.60548l1.78515.08985.17969-1.70704.53516-1.34375.80468.26954.4922.84765.40233.40625-.08984.53906v.35938l.71485.44922.71093-.26953h1.42969l.35938.98828.4453 1.25781.71485 1.34375 1.25.6289 1.69531.62891.71485-.17969.17969-.53906.98046-.08984.44922.35937.08594 1.25782-.26563.6289-.53515.17969v.53906l.71484.98438.26563.53906.98437.98828.80078 1.07813-.26562.35937-.08985.89844-.625 2.33203-.35546 2.0664-.08985 1.79298-.17969.71875-.08984.53906v1.4375l-.98047 1.88281-.35937 1.70703-.53516.89844-.80469 1.16797-.26562.53906 2.05469 1.2539.08593.35938-.35546.53906-.08985-.17968v.80859l.08985 1.4375-.44532.71484-1.07422.09375-.26562.71485.53515.89844.8047.71875 1.16015.80859 1.33984.26953.44531.35938-.35546.44921-1.78907-.08984-1.25-.44922-.71484-.71875-.625-.08984-.17578 3.58984-.1875 1.3086h89.35937V311.70313h-55.26953v49.08203l.76172.125 3.28906.54296 2.02344 2.83594v2.7539l2.35156.33204 2.34766.33203h4.05078l-1.3789 4.16016-2.02344.70703-2.02344.70312-.54297.34375-2.59375 1.6172-.1875.11718-2.02344-2.07813-.73046-2.74218-2.67188-2.07813-1.375-3.5-.0664-.08203-1.95704-2.67188 2.75-1.41796v-49.08204H294.42187v91.41407l.1172.03125.1328.01172.07422.07421.10547.04688.08985.0586.08593.05859.08985.0586.29687.29687.0586.08984.03125.11719.02734.11719.01563.13671-.03125.1172-.0586.08983-.0586.08594-.04296.10547-.04688.10156-.02734.1211v.14453l.17578.26953.14844.14844.07422.08594.07422.07421.04296.10547.0625.08985.0586.08593.04297.10547.0586.08985.04687.10156.04296.10547.0586.08594.11719.17968.07421.07422.0625.08594.0586.08984.04297.10547.0586.08985.05858.08593.0625.08985.0586.08984.04297.10156.11719.17969.07421.07422.0586.08594.07422.07421.08984.0586.10547.04687h.14844l.1328-.01562.13282.01562.10156-.04687.07422-.07422.04688-.10156-.01563-.13281v-.14844l-.04687-.10547-.02735-.11719-.04687-.10156-.02735-.1211-.04296-.10156-.0625-.08984-.04297-.10156-.04297-.10547-.03125-.11719-.01563-.13281-.01171-.13672.08593-.0586.0586-.08593.12109-.03125.04297.10547.01562.1328v.1172l.0586.10156.0586.08984.08983.0586.14844.14843.0586.08985.04296.10547-.01171.10156.08593.0586.10547.04687.08594.0586.08984.05858.07422.07422-.11719.02735-.10546.04687-.08594.0586-.07422.07421-.0586.08985-.0625.08594-.02734.12109-.04687.10156-.04297.10547-.03125.11719-.01172.13281-.01563.13281v.14844l.02735.11719.04687.10547.04297.10156.0586.08984.07421.07422.08985.0586.07422.07421.08984.0586.0586.08984.04296.10547.04688.10156.11719.03125.1328.01563h.14845l.11718-.03125.10547.04297.04297.10547.04688.10156.02734.1211L299.5 410l.02734.11719.03125.1211.02735.11718.10547.04297.10156.04687.13281-.01562.14844.14844.0625.08593.07422.07422.07031.07422.08984.0625.10547.04297.10156.04297.1172.03125.13671.01562.11719-.03125.07422-.07422.02734-.11718-.01172-.13282-.03125-.12109-.02734-.11719.04297-.10547h.11719l.08984.0625.11719.02735h.14843l.13282.01562h.14843l.13282.01563.1328-.01563h.14845l.1328-.01562.13282-.01172.13672.01172.11719-.02735.13281-.01562.1914-.0586-.05859.17579-.01562.1328-.02735.1211-.01562.13281-.0586.08594-.1328.01563-.10548.04687-.10546.04297-.1172.03125-.11718.02735-.26563.03125h-.14843l-.13281.01562-.07422.07422.05859.08594.14844.14843.11719.1797.07421.0703.08985.0625.08984.0586.08594.0586.08984.05858.10156.04297.10547.0625.10547.04297.08594.0586.10547.04687.10156.04297.17969.11719.0586.08984-.04298.10156-.04687.10547.01562.13281.22266.22266.0586.08985.04296.10156.03125.1211.04297.10155.01563.13282.03125.11718.01171.13672.03125.11719.14844.14844.10156.04297.10547.04296.1172.03125.1328.01563.13672.01563h.11719l.11719-.03125.08984-.0586.04297-.10547.04688-.10156.04296-.10547.03125-.11719.01172-.1328v-.14845l-.01172-.1328-.01562-.13282-.03125-.11719-.04297-.10547-.04688-.10547-.04296-.10156-.04297-.10547-.01563-.13281.01563-.13281.02734-.11719.03125-.11719.02735-.1211.04687-.10155.08984-.0586.08594-.0625.07422-.07422.08984-.05859.22266-.22266.0586-.08593.07421-.07422.11719-.17969.0586-.08594v-.14844l-.07423-.07421-.10156-.04688-.10547-.04297-.10156-.04297-.0586-.08984-.04687-.10547-.02734-.11719.08984-.05859.11719-.03125.10156-.04297.17969-.11719.14844-.14843.01172-.13282-.01172-.10546-.08985-.0586-.1328.01563h-.14845l-.1328.01562-.13282-.01562-.1211-.03125-.08593-.0586-.07422-.07422-.0586-.08984-.0625-.08594-.11718-.17969-.0586-.08593.03125-.1211.08594-.05859.1211-.03125.05859-.08594v-.1211l-.03125-.11718-.0586-.08984-.05859-.08594-.04687-.10547-.02735-.11719-.01562-.1328.0586-.08985.07421-.07422.08984-.0586.1172-.17968.07421-.07422.0586-.08594.14843-.14844.1211-.03125.1328-.01562.13282.01562.07422.07422.04297.10547.01562.13281-.03125.1172-.11719.03124-.1328.01172-.14844.14844-.04297.10547-.04688.10156-.02734.1211-.03125.11718v.14844l.03125.11719.04297.10546.05859.08985.07422.07031.07422.07422.11719.03125.12109.02734.11719-.02734.1328-.01563h.1172l.08984.0586.07422.07422.04687.10546.0586.08594.10156.04688.13281.01562.10547.04297.08594.0586-.01172.10546-.07422.07422-.17969.11719-.05859.08984-.08984.0586-.07032.07422-.07421.07421-.0625.08985-.02735.11719-.01562.1328.01562.13282-.01562.13281v.14844l.01562.13281.02735.1172.03125.12108.07421.07422.08985.0586.08594.0586.08984.05858.11719.03125v.08594l-.10157.04688-.08984.0586-.26563.03124-.11718.02735h-.14844l-.10547.04296-.10156.04688-.0586.08984-.0625.23438-.01171.13281-.03125.1211-.01563.1328v.29298l-.01172.1328.01172.13673.01563.1328.1328.01563.13282.01172.1211.03125.08593.0586.07422.07421.04688.10547.04296.10157.01563.1328v.44532l-.01563.13281v.44532l.03125.26562.02735.11719.01562.13281.03125.11719.08594.21094.03125.26562v.14844l-.03125.11719-.02734.11718-.03125.1211-.02735.11719-.03125.11718-.03125.1211-.01171.1328-.01563.13282.08984.0586.1172-.03125.10155.01562.04688.10547-.03125.26562v.44141l-.04297.10547-.04688.10547-.04296.10156-.04297.10547-.0586.08594-.03125.12109-.04296.11719-.03125.11719-.01563.1328.01563.13282.05859.08984.10547.04688.08594.0586.05859.08593-.01172.13672-.03125.11719-.04297.10156v.44531l-.01562.13281v.14844l-.03125.11719-.04297.10547-.02735.11719-.04687.10546-.04297.10157-.03125.12109-.02734.11719-.03125.13281-.03125.11719-.02735.11719-.04297.10546-.03125.1172-.03125.12108-.01171.13282-.01563.13281v.29688l.02734.11718v.14844l.04688.39844.02734.11719.0586.08984.12109.03125h.14844l.13281-.01563.0586.08985v.11719l-.0586.08984-.08984.0586-.10157.04296-.10546.04688-.08985.05859-.08594.0586-.13671.01562-.1172-.03125-.1328-.01563-.10157.04688-.0625.08594-.01172.13671-.01562.13282-.03125.11719-.02735.11718-.01562.13281-.03125.1211v.29687l.01563.13282.03125.11718v.14844l.01171.13281v.14844l-.02734.11719-.04688.10156-.02734.1211-.03125.11718-.0586.08985-.07421.07421-.10156.04297-.10547.04688-.11719.02734-.1211.03125-.10156-.04687.0586-.08594.10547-.04688.02734-.11718.03125-.11719.02734-.1211.03125-.11718v-.14844l.01563-.13281-.03125-.11719-.04297-.10547-.10547.01563-.07422.07422-.10156.04296-.08984.0625-.07422.07422-.04297.10157-.01563.1328-.03125.1172L304.25 426l-.03125.11719-.02734.11719-.03125.12109-.02735.11719-.03125.11718-.04297.10547-.08984.0586h-.08984l-.1172-.03125-.03124-.08594.01562-.13672-.03125-.11719v-.14844l-.01171-.1328v-.14844l-.0625-.23438-.02735-.1211-.04297-.10156-.04687-.10546-.0586-.08594-.05859-.08985-.04297-.10546-.0625-.08594-.14844-.14844-.0703-.07422-.10548-.04687-.10547-.04297-.10156-.04297-.29687-.29688-.08985-.07421-.08594-.0586-.10546-.04297-.08985-.0625-.08594-.0586-.10546-.04296-.08985-.0586-.08594-.0625-.07421-.0703-.10547-.04688-.08594-.0586-.10547-.04296-.08984-.0625-.10156-.04297-.10547-.04297-.08594-.0586-.10547-.04687-.10547-.04297-.10156-.04687-.08985-.0586-.10156-.04297-.10547-.04296-.08984-.0625-.11719-.02735-.13281-.01562-.13281.01562H299.75l-.13281.01563-.11719-.03125-.08984-.0586-.07422-.07422-.08985-.05859-.10156-.04688h-.14844l-.12109-.02734-.10156-.04297-.07422-.07422-.11719-.17968-.08984-.0586-.10156-.04297-.08985-.0625-.10547-.04296-.08984-.0586-.08594-.0586-.10547-.04687-.0586-.08594-.05858-.08984-.04297-.10547-.04688-.10156-.07422-.07422-.08594-.0586-.07421-.07421-.08985-.0586-.22265-.22265-.04297-.10547-.03125-.26563.10547-.04296h.14453l.10547.04296.07421.07422.08985.0586.08594.0586.10546.04687.08985.05859.14844.14844.0703.07422.14845.14843.0625.08594.07421.07422.08594.0586.07422.07421.08985.0625.08984.0586.08594.05859.26953.17578.10156.04688.10547.04296.10156.04297.04688-.07421.05859-.08594.07422-.07422.07031-.07422.10547.04297.07422.07422.0586.08984.04296.10156.04688.10547.04296.10547.1211.02735.11719-.02735.07421-.08984.04297-.10547.0586-.08985.07422-.07421.10546-.04297.1172-.02735.1328.01172.08985.0586.14844.14843.05859.08985.04297.10547.04687.10156.04297.10547.04297.10156.10547.04688.10547.04296.13281.01563.08594-.0586.0586-.08984.07421-.07422.10547-.04297.11719.02735.10547.04687.10156.04297.10547.04297.10156.04688.17969.11718v.11719l-.01563.13281.01563.13281.01562.13672.0586.08594.10156.04688.1211.02734.11718.03125h.14844l.11719-.03125.05859-.08984.17969-.1172.05859-.08983.07422-.07422.0586-.08594.11718-.17969.17969-.11719.11719.03125.08984.0586.04297.07422-.01563.1328v.1172l.08985.05859h.14843l.13282-.01563.1328-.01171.26563-.03125.10547-.04297.11719-.03125.1211-.02735.07421-.07421.07031-.07422.0625-.08985-.01562-.10547-.04688-.10156-.10156-.04297-.10547-.01562-.11718.02734-.26563.03125h-.14844l-.07421-.07422-.08985-.0586-.11719-.03124-.11718-.02735-.13282-.01562h-.14843l-.13282.01563h-.29687l-.10547-.04688-.14844-.14844-.04297-.10156-.05859-.08984.22266-.22266.08593-.0586.10547-.04296.11719-.03125.13281-.01563.13281.01563.13672.01562.10157.04297.1328-.01172.08985-.0625.10156-.04297.0625-.08984-.04687-.10156-.08984-.0586-.1172-.03125-.10155-.04296-.0586-.08985-.0625-.08984v-.11719l.01563-.13281.10547-.04688.07421-.07031v-.1211l-.08984-.05859-.03125-.11719.08985-.05859.07421-.07422.04297-.10547.0586-.08984.04687-.10156.01563-.13281v-.14844l-.04688-.10547-.04297-.10156-.08984-.0586-.13281-.01562-.10157-.04297-.13671-.01563-.1172-.03125h-.4453l-.13282-.01562-.13281-.01172-.13281-.01563-.11719-.03125h-.14844l-.13281-.01562-.13281-.01172-.26563-.03125-.1211-.04297-.08593-.0586-.07422-.07421v-.14844l.01172-.13281.10547-.04688.10156-.04296.13281-.01563h.15235l.13281-.01562h.29297l.1211.03125.10156.04296.08984.0586.23438.0625.12109-.04688.08984-.05859.10156-.04297.13282-.01562.10547.04296.10156.04688.13281.01172.1211-.02735h.14453l.12109-.03125.11719-.02734.10547-.04687.07421-.07422.08594-.0586.14844-.14843.0586-.08594.04687-.10547.02734-.11719.01563-.10547-.10156-.04296-.08985-.0586-.11719-.03125-.10546-.04297-.08985-.0625-.07422-.08594-.07422-.07421-.10156-.04297-.10547-.04688-.10156-.04297-.0586-.08984-.04687-.10156-.08594-.21094-.0625-.08594-.05859-.08984-.07422-.07422-.08594-.0586h-.26953l-.11719.03126-.08984.05859-.10156.04297-.13281.01562-.10547-.01562-.02735-.11719-.0625-.08984-.11718-.03125-.10157-.04297-.14843-.14844-.03125-.11719-.01563-.10546.07422-.07422.17969-.1172.11719-.02733.11718-.03125.13672.01562.10156.04297.10547.04297.10156.04687.10547.04297.1172.03125.1328.01563.1172.02734.1328.01563.10547-.01563.08985-.0586-.07422-.07421-.10547-.04297-.07422-.07422-.07422-.08984-.14844-.14844-.08593-.0586-.08985-.05859-.07422-.07422-.08984-.0586-.10156-.04687-.1211-.02734-.10156-.04688-.10547-.04296-.11719-.03125-.10156-.04297-.1211-.03125h-.14843l-.11719.03125-.10546.04297-.08594.0625-.17969.11718-.08594.0586-.08984.0586-.10547.04687-.08594.05859-.10547.04297-.10156.04297-.10547.04687-.07422.07422-.05859.08985-.0586.08593-.04687.10547-.0586.08594-.07421.07422-.13281-.01172-.1172-.03125h-.11718l-.07422.07422-.08984.0586-.07422.07421-.08984.0586-.08594.05859-.10547.04687-.10156.04297-.13672.01563-.10156-.04297-.14844-.14844-.10547-.04688h-.08594l-.10547.04688-.10156.04297-.1211.03125-.11718-.03125-.07422-.07422v-.11719l.03125-.1211.07422-.0703.0586-.08985.07421-.07422.11719-.03125.10547-.04296h.29297l.13281-.01563.13672-.01563.10156-.04296.08985-.0586.10156-.04687.08984-.0586.13281-.01171.08985.05859.13281.01172.08984-.0586.08594-.05859.10547-.04297.08984-.0586.08594-.0625.08985-.05859.14843-.14843.0586-.08594.05859-.08985.10547-.04296.13281-.01563.11719.02735.1211.03125.05859-.0586.05859-.08984.03125-.26563.02734-.11719.10547.01172.13281.01563.10157-.04297.08984-.0586.0586-.08984.07421-.07422.0586-.08984.04687-.10156.01172-.13281-.01172-.13282-.04687-.10547-.14844-.14843-.0586-.08985-.05859-.08594-.04297-.10546v-.44532l.01563-.1328v-.14845l.01172-.1328-.0586-.0586-.08984.0586-.10156-.04298-.17969-.11719-.08594-.05859-.0625-.08984-.0586-.08985-.07421-.07421-.08594-.0586-.1211.03125-.10155.01172-.10547.04688-.08594.05859-.10547.04297-.14844.14844-.08984.05859-.08594.0586-.08984.0625-.10547.04296-.13281.01563v-.1211l.10547-.04297.11718-.03125.07422-.0703.04297-.10548v-.14844l-.02734-.11718-.14844-.14844-.13281-.01563h-.14844l-.11719.03125-.10547.04297-.10156.04297-.08984.0625-.11719.02735-.07422-.07422.01172-.13281-.04297-.10157-.04297-.10547-.08984-.05859-.11719.02734-.1211.03125-.11718.03125-.10156.04297-.1211.03125-.10156.04297-.10547.04297-.08984.0586-.10156.01562v-.11719l.01562-.13281-.0586-.08985-.07421.04297-.14844.14844-.0586.08985-.07421.07421-.04688.10547-.04296.10156-.07422.07422-.0586.08985-.07422.07422-.05859.08593-.07422.07422-.08984.0625-.07422.07031-.07422.07422-.10156.01563-.13281.01562-.10547-.04296v-.1211l.14843-.14844.04297-.10156.0586-.08984.04687-.10156.04297-.10547.0586-.08985.03124-.11719.04297-.10156.03125-.1211.02735-.11718.04687-.10547.04297-.10156.04297-.10547.07422-.07031.08984-.0625.08985-.0586.10156-.04296h.29687l.26563-.03125.10547-.04297-.07422-.07422-.11719-.03125-.10547-.04297-.08984-.0586-.10156-.04687-.08985-.0586-.10156-.04296-.10547-.04297-.08984-.0625-.08594-.0586-.10547-.04296-.10156-.04297-.1211-.03125-.11718-.03125-.10157-.04297L297.5 410.25l-.10156-.04297-.08985-.0586-.04296-.10546-.01563-.13281.10156-.04297.13281-.01563.13672.01563.13282-.01563.10156-.04297.0586-.08984.01562-.10547-.08985-.0586-.07421-.07421-.10157-.04297-.08984-.0586-.14844-.14843-.04297-.10547-.01562-.13281v-.29297l-.0586-.08985-.08984-.05859-.07422-.07422-.04297-.10547-.03125-.11718-.0586-.08985-.07421-.07422-.11719-.02734-.07422-.07422-.08984-.0586-.08984-.0625-.08594-.05859-.07422-.07421-.0586-.08594-.04687-.10547-.08594-.0586-.14843-.14843-.19532-.0586-.1328.01563-.10157.04297-.07422.07422-.04688.10156-.04296.10547-.0586.08984-.0586.08594-.29687.29687-.08984.0586h-.08594l-.0625-.08594-.04297-.10547.03125-.11719.0586-.08984.02734-.11719-.01172-.13281-.08984-.0625-.10547.04688-.11719.02734-.11719.03125-.26953.17578-.10156.04688-.11719.02734-.10546.04687-.08985.0586-.10156.04297-.0586-.08594-.04687-.10547.01563-.13281.04687-.10547.07031-.07422.07422-.07031.0586-.08985v-.14843l-.04297-.10547h-.23829l-.10156.04687-.03125.11719-.02734.11719-.03125.1211-.07422.04296-.13281.01563-.07422-.04688-.04297-.10156-.04297-.10547-.04687-.10156-.04297-.10547-.1211.03125-.10156.04297-.13281.01562-.11719.03125-.10547.04297-.08984.0586-.10156.04687-.1211.02734-.13281.01563-.10156-.04297-.0586-.08985-.04687-.10546-.04297-.10157-.04297-.10546v-.1172l.0586-.08984.08593-.05859.17969-.11719.10156-.04687.10547-.04297.10547-.0586.10156-.04296.08985-.0625.10156-.04297.10547-.0586.10156-.04687.08984-.0586.10547-.04296.10156-.04297.08985-.0625.10156-.04297.13672-.01563.11719.03125.10156.04297.1211.03125.10156.04297.10546.04688.10157.04296.10547.04297.10156.04688.10547.04297.10156.04297.10547.04687.08594.0586.10546.04296.1172.03125.10546.04297.10156.04688.08985.0586.10547.04296.10156.04297.10547.04687.11719.02735.10156.04687.1211.02735h.14843l.08594-.0586.01562-.10156.0586-.08984-.02735-.1172-.07422-.07421-.11719-.17969-.07421-.07422-.08985-.07421-.17969-.1172-.08593-.05859-.10547-.04296-.10156-.04688-.26954-.17578-.05859-.08985-.07422-.07421-.0586-.08985-.04296-.10156-.03125-.11719-.01563-.13672v-.5625l-.01171-.1328-.01563-.13282-.03125-.11719-.01562-.13281-.01172-.13281-.03125-.1211-.22266-.22265-.0586-.08594-.01562-.10547.03125-.11719.13281-.01562v-91.41406H172.9922v1.45312l-.0586.23438-.35156 1.05078-.17187.52343-.1172.34766-.17577.41016-.11719.17187-.23438.29297-.23046.0586h-.35157l-.11718.05859-.23047.40625v.29297l.11719.17578.23046.23047.1172.23437.64062.75781.29297.46485.17578.23437.23047.35156.23437.34766.64063.8164.17578.46485.17187.41016.11719.69531.17578.46875.11719 1.39844.0586.46484v.875l.11718 1.04688v4.78125l-.0586.46484-.35156 1.28125-.17578.52344-.11328.41015-.35156.9297L172.93359 336l-.23437.58203-.11719.17578-.17187.34766-.17578.40625-.35157.8164-.0586.29297-.11327.29297-.11719.28906-.0586.17579-.11718.875-.0586.40625-.05859.11718-.0586.17579-.05859.17187-.23047.52734-.11718.17188v.23437l-.11719.23438-.0586.17187-.17577.58594v.28906l-.0586.17579v.29296l-.0586.11329-.05859.52734v.17187l-.05468.23438v2.6211l-.17578.8164-.1172.17578-.17577.23438-.1172.17187-.11327.23438-.58594.93359-.23047.28906-.29297.46485-.17578.23437-.28906.35156-.35156.69922-.11328.23047-.17579.41016-.17578.23046-.40625.52735-.8164.69922-.29297.17187-.28906.23438-.17579.11719-.17578.17578-.52344.40625-.52734.17578-.17187.17578-.23438.05469-.64062.17578h-.75782m12.21094 31.02344l-1.07422.44921.35938.89454 1.25-.71485.44531-.53906-.98047-.08985"/><path fill="#d3d3d3" fill-opacity="0" fill-rule="evenodd" d="M201.50781 416.59766h-.89453l.44922.6289.98047.35938.80469-.08985.4453-.98828-.17577.08985-.71485-.35547-.89453.35547m154.6211 59.0703l-.0586-.52343v-.29297l.11328-.29297.0586-.23046.46875-.46875h.11328l.11719-.11329.11718-.05859h.17579l.23437-.0586h.34766l.23437.0586.11719.0586.23047.17187.0586.17578.11718.58203v.29297l-.11719.17578-.17187.28906-.17579.17579-.52734.52343-.23047.23438-.11719.0586h-.17578l-.11718-.0586-.40625-.29297-.17579-.11719-.11718-.0586-.0586-.11327-.05468-.1172m6.64062-10.95702l-.0586-.17188v-1.10937l.0586-.17188.17578-.0586.17188-.05858h.17578l.23437-.0586.1172.0586.05858.69921-.05859.17188-.11719.17578-.11718.0586-.23438.52343-.11328.0586h-.23438l-.05859-.1172m9.61328-14.39062l-.11719-.17578v-.69922l.29297-.875.1172-.17187.17577-.35156.11328-.23047.1172-.29297.35155-.75781.1172-.23047.17187-.23438h.17578l.11719-.0586h.64062l.11719.0586.23437.23438.17188.11328.35156.29297.11719.11718.11328.17579v.11328l.11719.05859.11718.11719v.69922l-.05859.17578v.23047l-.0586.17578-.34765 1.05078-.11719.23047-.11719.23437-.11718.0586-.23047.23437-.64063.28906h-.875l-.41015-.11718-.64063-.46485"/><path fill="none" stroke="#bebebe" stroke-linecap="round" stroke-linejoin="round" stroke-miterlimit="10" stroke-width=".5" d="M467.95703 311.69531H144.02734v168.625h323.9297v-168.625"/><g clip-path="url(#a)"><path fill="#fff" fill-opacity="0" fill-rule="evenodd" d="M144 475.89063v4.25-168.46875h.0039H144v164.21875"/></g><g clip-path="url(#b)"><path fill="#50fcfc" fill-rule="evenodd" d="M144.0039 480.32813v-.1836l.08594.1836h-.08593"/></g><g clip-path="url(#c)"><path fill="#fff" fill-opacity="0" fill-rule="evenodd" d="M144.0039 480.14453V311.67188h62.13282v106.2539l-.20703.26563.20703.22656.39062-.22656-.39062-.26563v-106.2539h26.6289v105.6289l-3.35156.89063-1.08594.5664-4.4375.60156-4.4375-.94921-4.4375.05859-2.8164 4.16016-1.625 3.23828-4.4375.28125-4.4375-3.39063-.67578-.1289-3.76172-.75391-4.4414.67188-.08985.08203-4.34766 1.3203-4.4375 1.48048-1.94922 1.64062-2.48828.69922-4.3789 3.73828-.0625.04688-4.4375 1.0586-3.84375 3.33202-.59375.24219-4.4375.75781-3.79688 3.4375-.64062 4.08203-.2422.35547-3.0078 4.4414-1.19141 3.00782-2.17188 1.42969 1.56641 4.4375.60547.64062 1.09375 3.79688 3.34766 2.54687 4.4375 1.11329 4.4375-.73047 4.4375.22265 4.4375-.5039 4.4414-.30079 4.4375.0625 4.4375-2.14062.48828-.26953 3.94922-.57813 4.4414-.28906 4.4375-.60156 4.4375-.67969 4.4375-1.51172 4.44142 1.04688 3.74609-1.82422.6914-.1875 4.4375-.33985 4.4375-2.07421 3.37891-1.83594 1.0586-.71094 4.4414.08594 1.61719-3.8125 2.82031-3.03125 1.14453-1.41016 3.29297-.875 3.52734-3.5625.91016-4.00781 4.4375 1.14063 4.4414.7578 2.25391-2.32812-2.24609-4.4375-.00781-.00781-4.4414-4.16797-3.94142 4.17578-.49609 2.71875-4.4375-2.42187-1.86719-.29688-2.5703-2.10937-4.4375-2.26953-.47267-.0586-1.86328-4.4414 1.03125-4.4375-3.13672-.89063v-105.6289h35.50782v117.05078l-3.13281 2.78515 3.1328 2.34375 3.75-2.34375-3.75-2.78515V311.67187h13.31641v116.35938l-3.79296 3.47656 1.80468 4.4375 1.98828 1.8086 2.27735-1.8086 1.92187-4.4375-4.19922-3.47656V311.67187h93.20313v134.33985l-3.15625 3.25 3.15625 3.82031 3.09375-3.82031-3.09375-3.25V311.67187h17.7539V451.9336l-1.05468 1.76563-3.38281.69922-4.4375 2.85937-1.12891.8789-2.65235 4.4375.45313 4.44142 2.16406 4.4375.98047 4.4375.1836.17578 1.24609-.17579 3.1914-.5625 4.4375.17579 4.4375-.94141 3.05079-3.10938.77734-4.4375-.16016-4.4414-.1289-4.4375-2.10938-4.4375-1.42969-1.61719-4.4375-.14844V311.67188h57.69922v145.4414l-1.53125 1.02344 1.53125 2.3086 1.01563-2.3086-1.01563-1.02344v-145.4414h17.75v168.65625h-7.67187l-1.19922-.81641-1.83984.8164h-21.44141l-3.35156-3.36718-3.29688 3.36719H144.08984l-.08593-.1836"/></g><path fill="#50fcfc" fill-rule="evenodd" d="M152.26953 458.13672l-1.5664-4.4375 2.17187-1.42969 1.1914-3.00781 3.00782-4.4414.24219-.35548.64062-4.08203 3.79688-3.4375 4.4375-.75781.59375-.24219 3.84375-3.33203 4.4375-1.0586.0625-.04687 4.3789-3.73828 2.48828-.69922 1.94922-1.64062 4.4375-1.48047 4.34766-1.32031.08984-.08204v2.3086l-4.4375 1.32031-1.7539.89453-2.6836.72266-4.4375 1.39844-2.71484 2.3164-1.72656 1.34375-4.4375 1.64453-1.67188 1.44922-2.76562 1.125-4.4375 1.46485-2.03907 1.84765-1.93359 4.4375-.39453 4.4414-.07031.8672-1.59375 3.5703.30468 4.4375 1.28907 2.41407.79297 2.02344 3.64453 2.19922 4.4375-2.10156 4.4375.87109 3.47265-.96875.96485-.14063 4.4414-.4414 4.4375.03125 4.4375-1.21094 4.4375-.53125 4.4414-1.65625 2.70313-.48828 1.73438-.21875 4.4375-.53906L210.57422 456l4.4414-.3125 4.39063-1.98828.04688-.03125.39843.03125 4.03906.23828.46875-.23828 3.96875-2.22656 2.9961-2.21094-2.9961-3.27735-4.4375-.46093-.88671-.70313-3.55078-2.875-1.89063-1.5625-1.66406-4.4375-.88281-1.3125-4.44141-1.5586-3.83594-1.5664-.60156-.23047-4.4375-3.1875-1.85156-1.01953-2.58594-1.28515-4.4414-.9297v-2.30858l4.4414-.67188 3.76172.7539.67578.12891 4.4375 3.39063 4.4375-.28125 1.625-3.23828 2.8164-4.16016 4.4375-.0586v2.26954l-3.71484 1.94922 1.34766 4.4414 2.36719 2.42578 4.4375.6836v5.30469l-.69532.46093.69531.40235 4.4375 2.71875.21485-3.1211-.21484-.3789-4.4375-.08204v-5.30468l2.17187 1.32812 2.26563 1.51563 1.65625 2.92187 2.78125 3.09766 4.4414.84765.3711.4922 4.0664 3.08202 4.4375-1.29296 1.77344-1.78907.3125-4.4375-2.08594-1.88672-4.4375-1.55859-1.17187-.99219-3.26563-3.04687-4.4414-.49219-2.1875-.89844-2.25-2.1289-4.4375-1.03125-1.71875-1.28125-2.71875-1.94922v-2.26953l4.4375.94921 4.4375-.60156 1.08593-.5664 3.35156-.89063 3.13672.89063-1.03125 4.4375 1.86328 4.4414.47266.0586 4.4375 2.26953 2.57031 2.10937 1.8672.29688 4.4375 2.42187.49608-2.71875 3.94141-4.17578 4.4414 4.16797.00782.00781 2.2461 4.4375-2.25391 2.32813-4.4414-.75781-4.4375-1.14063-.91017 4.00781-3.52734 3.5625-3.29297.875-1.14453 1.41016-2.82031 3.03125-1.61719 3.8125-4.4414-.08594-1.0586.71094-3.3789 1.83594-4.4375 2.07421-4.4375.33985-.69141.1875-3.7461 1.82422-4.4414-1.04688-4.4375 1.51172-4.4375.67969-4.4375.60156-4.4414.28906-3.94923.57813-.48828.26953-4.4375 2.14063-4.4375-.0625-4.4414.30078-4.4375.5039-4.4375-.22265-4.4375.73046-4.4375-1.11328-3.34766-2.54687-1.09375-3.79688-.60547-.64062"/><path fill="#00e8fc" fill-rule="evenodd" d="M156.02734 458.13672l-.30468-4.4375 1.59375-3.57031.0703-.8672.39454-4.4414 1.9336-4.4375 2.03906-1.84765 4.4375-1.46485 2.76562-1.125 1.67188-1.44922 4.4375-1.64453 1.72656-1.34375 2.71484-2.3164 4.4375-1.39844 2.6836-.72266 1.7539-.89453v3.52344l-4.4375.0664-4.33984 1.7422-.09766.0625-4.4414 3.4453-1.97266.9297-2.46484 1.28515-4.4375 1.3125-3.57032 1.83984-.86718.32031-3.16797 4.1172-.14844 4.4414-.30469 4.4375.23828 4.4375 3.38282 4.27344 4.4375-1.41797 4.4375.11719 4.4375-.60938 4.4414-1.28125 4.4375-.46875 2.63672-.61328 1.80078-.67188 4.4375-.42187 4.4414-1.98438 4.4375-.76171 4.15235-.59766.28516-.15235 4.4375-4.14843.27734-.13672-.27734-.34375-4.4375-2.98047-1.24219-1.11719-3.19531-3.23047-.5664-1.20703.5664-1.34375 2-3.09375-2-1.46094-4.02344-2.97656-.41406-.26953-2.0625.26953-2.3789.21485-.44141-.21485-3.9961-1.8086v-3.52343l4.4375-1.32031 4.4414.92969 2.58595 1.28515 1.85156 1.01953 4.4375 3.1875.60156.23047 3.83594 1.5664 4.4414 1.5586.88282 1.3125 1.66406 4.4375 1.89063 1.5625 3.55078 2.875.88672.70313 4.4375.46094 2.99609 3.27734-2.9961 2.21094-3.96875 2.22656-.46875.23828-4.03906-.23828-.39844-.03125-.04687.03125-4.39063 1.98828-4.4414.3125-4.4375 1.3789-4.4375.53907-1.73438.21875-2.70312.48828-4.4414 1.65625-4.4375.53125-4.4375 1.21094-4.4375-.03125-4.44141.4414-.96485.14063-3.47265.96875-4.4375-.8711-4.4375 2.10157-3.64453-2.19922-.79297-2.02344-1.28907-2.41406"/><path fill="#00d4fc" fill-rule="evenodd" d="M158.3711 458.13672l-.23829-4.4375.30469-4.4375.14844-4.4414 3.16797-4.1172.86718-.3203 3.57032-1.83985 4.4375-1.3125 2.46484-1.28516 1.97266-.92969 4.4414-3.4453v3.1875l-1.75781 1.1875-2.6836 2.62109-4.4375 1.0625-4.4375.3828-.71874.3711-3.71875 1.36328-2.3672 3.07422.09767 4.4414-.20704 4.4375.48047 4.4375 1.9961 2.52345 4.4375-1.28907 4.4375-.26171 4.4375-.53907 1.1953-.4336-.74218-4.4375 3.98828-1.98827 2.6914 1.98828 1.7461 1.01562 2.03125-1.01562 1.82031-4.4375.58594-.46094 3.42188-3.98047 1.01562-1.6836 2.3125-2.7539-1.35547-4.4375-.95703-.54297-.92969.54297-3.5078 2.9336-4.4375-.69141-1.44532-2.24219-2.99219-1.1875v-3.1875l.09766-.0625 4.33984-1.74219 4.4375-.0664 3.9961 1.8086.4414.21484 2.3789-.21485 2.0625-.26953.41407.26953 4.02344 2.97656 2 1.46094-2 3.09375-.5664 1.34375.5664 1.20703 3.19531 3.23047 1.24219 1.11719 4.4375 2.98047.27734.34375-.27734.13672-4.4375 4.14844-.28516.15234-4.15234.59765-4.4375.76172-4.4414 1.98438-4.4375.42187-1.80079.67188-2.63672.61328-4.4375.46875-4.4414 1.28125-4.4375.60938-4.4375-.1172-4.4375 1.41798-3.38282-4.27344"/><path fill="#00c4fc" fill-rule="evenodd" d="M159.75781 458.13672l-.48047-4.4375.20703-4.4375-.09765-4.4414 2.36719-3.07423v1.04297l-1.5625 2.03125.34375 4.4414-.1172 4.4375.72267 4.4375.61328.77345 2.89453-.77344 1.23828-4.4375-.32422-4.4375.6289-1.66797 4.4375-1.08984v4.41406l-3.82421 2.78125 3.82422 2.26953 1.59765-2.26953-1.59765-2.78125v-4.41406l.92187-1.6836-.92187-.98437-4.4375-.34375-4.4375-.70313v-1.04297l3.71875-1.36328.71875-.3711 4.4375-.3828 4.4375-1.0625 2.68359-2.6211 1.75781-1.1875 2.99219 1.1875 1.44531 2.24219 4.4375.6914 3.50781-2.93359.9297-.54297.95702.54297 1.35547 4.4375-2.3125 2.7539-1.01562 1.6836-3.42188 3.98047-.58594.46094-1.8203 4.4375-2.03126 1.01562-1.7461-1.01562-2.6914-1.98828-3.98828 1.98828.74219 4.4375-1.19531.4336-4.4375.53906-4.4375.26171-4.4375 1.28907-1.9961-2.52344"/><path fill="#00b8fc" fill-rule="evenodd" d="M160.53516 449.26172l-.34375-4.4414 1.5625-2.03126v1.04688l-.75782.98437.58594 4.4414-.01953 4.4375.1914 1.02735.59376-1.02734-.0586-4.4375 2.04297-4.4414-2.57812-.98438v-1.04688l4.4375.70313 4.4375.34375.92187.98437-.92187 1.6836-4.4375 1.08984-.62891 1.66797.32422 4.4375-1.23828 4.4375-2.89453.77344-.61328-.77344-.72266-4.4375.11719-4.4375"/><path fill="#00a8fc" fill-rule="evenodd" d="M161.58203 449.26172l-.58594-4.4414.75782-.98438 2.57812.98437-2.04297 4.4414.0586 4.4375-.59375 1.02735-.19141-1.02734.01953-4.4375"/><path fill="#00b8fc" fill-rule="evenodd" d="M170.6289 455.96875l-3.82421-2.26953 3.82422-2.78125 1.59765 2.78125-1.59765 2.26953"/><path fill="#50fcfc" fill-rule="evenodd" d="M206.13672 418.41797l-.20703-.22656.20703-.26563.39062.26563-.39062.22656"/><path fill="#00e8fc" fill-rule="evenodd" d="M217.08594 427.07031l-1.34766-4.4414 3.71484-1.94922 2.71875 1.94922 1.71875 1.28125 4.4375 1.03125 2.25 2.1289 2.1875.89844v2.38281l-1.91015 1.15625 1.53125 4.4375.3789.42188 2.1172-.42188 2.32421-1.42187.8789 1.42187 3.09376 4.4375.46484.35156 1.09375-.35156 1.5-4.4375-2.59375-1.42187-3.5586-3.01563-.8789-.82031-4.4414-.33594v-2.38281l4.4414.49219 3.26563 3.04687 1.17187.99219 4.4375 1.5586 2.08594 1.88671-.3125 4.4375-1.77344 1.78906-4.4375 1.29297-4.0664-3.08203-.3711-.49219-4.4414-.84765-2.78125-3.09766-1.65625-2.92187-2.26563-1.51563-2.17188-1.32812-4.4375-.6836-2.36718-2.42578"/><path fill="#fff" fill-opacity="0" fill-rule="evenodd" d="M223.89063 435.48438l-.69532.46093.69531.40235 4.4375 2.71875.21485-3.1211-.21484-.3789-4.4375-.08204"/><path fill="#00d4fc" fill-rule="evenodd" d="M232.38672 435.94531l-1.53125-4.4375 1.91016-1.15625 4.4414.33594.8789.82031 3.5586 3.01563 2.59375 1.42187-1.5 4.4375-1.09375.35156-.46484-.35156-3.09375-4.4375-.8789-1.42187-2.32423 1.42187-2.11719.42188-.3789-.42188"/><path fill="#50fcfc" fill-rule="evenodd" d="M268.27344 433.85156l-3.13281-2.34375 3.1328-2.78515 3.75 2.78515-3.75 2.34375m11.32813 2.09375l-1.80469-4.4375 3.79297-3.47656v1.95313l-1.66406 1.52343 1.66406 2.60156 1.83985-2.60156-1.83985-1.52344v-1.95312l4.19922 3.47656-1.92187 4.4375-2.27735 1.8086-1.98828-1.8086"/><path fill="#00e8fc" fill-rule="evenodd" d="M281.58984 434.10938l-1.66406-2.60157 1.66406-1.52344 1.83985 1.52344-1.83985 2.60156"/><path fill="#50fcfc" fill-rule="evenodd" d="M374.79297 453.08203l-3.15625-3.82031 3.15625-3.25v2.39062l-.83203.85938.83203 1.00781.82031-1.00781-.82031-.85938v-2.39062l3.09375 3.25-3.09375 3.82031"/><path fill="#00e8fc" fill-rule="evenodd" d="M374.79297 450.26953l-.83203-1.00781.83203-.85938.82031.85938-.82031 1.00781"/><path fill="#50fcfc" fill-rule="evenodd" d="M380.34375 467.01563l-.45313-4.44141 2.65235-4.4375 1.1289-.8789 4.4375-2.85938 3.38282-.69922 1.05469-1.76563v2.89454l-4.4375.92578-2.98829 2.3828-1.44921 1.1211-2.71094 3.3164 1.35547 4.44142 1.35546 2.0039 4.4375 1.39063.48829 1.04296 3.94921 3.26954 4.4375-2.33204.92188-.9375 1.07031-4.4375.14453-4.4414-1.01562-4.4375-1.1211-1.67969-4.4375-1.6289v-2.89454l4.4375.14844 1.4297 1.61719 2.10937 4.4375.1289 4.4375.16016 4.4414-.77734 4.4375-3.05079 3.10938-4.4375.9414-4.4375-.17577-3.1914.5625-1.2461.17578-.18359-.17579-.98047-4.4375-2.16406-4.4375"/><path fill="#00e8fc" fill-rule="evenodd" d="M382.3164 467.01563l-1.35546-4.44141 2.71094-3.3164 1.44921-1.1211 2.98829-2.38281 4.4375-.92579v2.23829l-4.4375.94921-.15235.1211-4.28515 3.30469-.92579 1.1328.92579 2.08204L388 467.01563l.10938.04687 2.05468 4.39063 2.38281 1.97265 2.98438-1.97265-.00781-4.4375 1.02344-4.44141-2.23047-4.4375-1.76954-1.07031v-2.23829l4.4375 1.62891 1.1211 1.67969 1.01562 4.4375-.14453 4.4414-1.07031 4.4375-.92188.9375-4.4375 2.33204-3.94921-3.26954-.48829-1.04296-4.4375-1.39063-1.35546-2.0039"/><path fill="#00d4fc" fill-rule="evenodd" d="M383.67188 464.65625l-.92579-2.08203.92579-1.13281 4.28515-3.3047.15235-.12108v1.3828l-3.69141 3.17579 3.6914 3.14062 4.4375-.32421v3.20312l-.8125 2.85938.8125.67187 1.02344-.67188-1.02344-2.85937v-3.20313l1.33204-2.8164-1.33204-2.16797-4.4375-1.00781v-1.38281l4.4375-.94922 1.76954 1.0703 2.23046 4.4375-1.02343 4.44142.00781 4.4375-2.98438 1.97265-2.3828-1.97265-2.0547-4.39063-.10937-.04688-4.32813-2.35937"/><path fill="#00c4fc" fill-rule="evenodd" d="M388.10938 465.71484l-3.69141-3.14062 3.6914-3.17578v1.33594l-2.14062 1.83984 2.14063 1.82031 3.2578-1.82031-3.2578-1.83985v-1.33593l4.4375 1.00781 1.33203 2.16797-1.33204 2.8164-4.4375.32422"/><path fill="#00b8fc" fill-rule="evenodd" d="M388.10938 464.39453l-2.14063-1.82031 2.14063-1.83985v1.33204l-.58985.5078.58985.50392.89843-.50391-.89844-.50781v-1.33204l3.25782 1.83985-3.25781 1.82031"/><path fill="#00a8fc" fill-rule="evenodd" d="M388.10938 463.07813l-.58985-.50391.58985-.50781.89843.5078-.89844.50392"/><path fill="#00c4fc" fill-rule="evenodd" d="M392.54688 472.125l-.8125-.67188.8125-2.85937 1.02343 2.85938-1.02344.67187"/><g clip-path="url(#d)"><path fill="#50fcfc" fill-rule="evenodd" d="M429.19531 480.32813h1.71094l1.58594-1.6172 1.61328 1.6172h1.73828l-3.35156-3.3672-3.29688 3.3672"/></g><g clip-path="url(#e)"><path fill="#00e8fc" fill-rule="evenodd" d="M430.90625 480.32813l1.58594-1.6172 1.61328 1.6172h-3.19922"/></g><path fill="#50fcfc" fill-rule="evenodd" d="M450.2461 460.44531l-1.53126-2.3086 1.53125-1.02343 1.01563 1.02344-1.01563 2.3086"/><g clip-path="url(#f)"><path fill="#50fcfc" fill-rule="evenodd" d="M457.28516 480.32813h3.03906l-1.19922-.81641-1.83984.8164"/></g><g clip-path="url(#g)"><path fill="#fff" fill-opacity="0" fill-rule="evenodd" d="M467.9961 480.32813H468V311.67188h-.0039H468v168.65625h-.0039"/></g><path fill="#fff" fill-opacity="0" fill-rule="evenodd" d="M253.99219 436.85938l2.64062-5.21485-8.89062-4.4961-2.63672 5.21094 8.88672 4.5"/><path fill-rule="evenodd" d="M248.32031 430.0664l.23047-.45702 5.61719 2.84375-.35547.70312-4.0039-2.02734-.62891 1.23828-.4961-.25.19532-.53125.0664-.2461.02344-.24609-.03516-.2461-.10937-.25-.19922-.2578-.30469-.27344"/><path fill="#fff" fill-opacity="0" fill-rule="evenodd" d="M176.21094 470.08203l5.83984-.15234-.26172-9.96094-5.83984.15625.26172 9.95703"/><path fill-rule="evenodd" d="M179.4961 461.86328l.5078-.01172.16798 6.29297-.78907.01953-.11719-4.48828-1.38671.03906-.01563-.55468.5586-.08204.25-.05859.22656-.09765.19922-.14454.16797-.21484.1328-.30078.09766-.39844"/><path fill="#fff" fill-opacity="0" fill-rule="evenodd" d="M156.35156 466.30469l7.57813 2.3125 2.97265-9.7461-7.57812-2.3125-2.97266 9.7461"/><path fill-rule="evenodd" d="M161.16016 459.03516l3.14453.95703-.21485.71094-2.52343-.76954-.75 1.65625.26562-.08984.29688-.04688.33593.01172.375.07813.3047.1211.29687.17968.27734.23828.23438.29688.17578.35546.05859.20313.03906.21484.01563.23047-.01172.24219-.03906.26172-.07032.27344-.16015.41406-.22266.3711-.27734.3164-.32813.2539-.375.1836-.20312.0586-.21485.03515-.22656.01562-.23437-.01171-.2461-.03516-.2539-.0664-.4336-.17188-.35156-.21094-.27344-.2539-.20312-.28516-.13281-.3125-.07813-.33594-.02344-.35547.01953-.36328.75.23047.01172.24219.03516.23046.0664.21094.09375.1875.125.16797.15235.14063.1836.11718.21874.08594.3086.0664.28906.01563.26953-.04297.2461-.10156.21874-.15625.19532-.21484.16015-.27735.1289-.33203.0586-.25781.01953-.26953-.02734-.26563-.07422-.26171-.125-.2422-.1875-.21484-.2461-.17968-.3125-.13282-.33593-.0625-.30078.02344-.3125.09766-.3789.16797-.66407-.20313 1.4414-3.14062"/><g clip-path="url(#h)"><path fill="none" stroke="#000" stroke-linecap="round" stroke-linejoin="round" stroke-miterlimit="10" stroke-width=".5" d="M147.48047 479.85156l-6.96094.95313"/></g><g clip-path="url(#i)"><path fill="none" stroke="#000" stroke-linecap="round" stroke-linejoin="round" stroke-miterlimit="10" stroke-width=".5" d="M147.48047 479.85156l1.4375 1.99219"/></g><g clip-path="url(#j)"><path fill="none" stroke="#000" stroke-linecap="round" stroke-linejoin="round" stroke-miterlimit="10" stroke-width=".5" d="M146.46875 479.99219l.71875.99219"/></g><g clip-path="url(#k)"><path fill="none" stroke="#000" stroke-linecap="round" stroke-linejoin="round" stroke-miterlimit="10" stroke-width=".5" d="M160.78125 479.76563l-6.9336 1.125"/></g><g clip-path="url(#l)"><path fill="none" stroke="#000" stroke-linecap="round" stroke-linejoin="round" stroke-miterlimit="10" stroke-width=".5" d="M160.78125 479.76563l1.48828 1.95312"/></g><g clip-path="url(#m)"><path fill="none" stroke="#000" stroke-linecap="round" stroke-linejoin="round" stroke-miterlimit="10" stroke-width=".5" d="M159.77344 479.92969l.74219.97656"/></g><g clip-path="url(#n)"><path fill="none" stroke="#000" stroke-linecap="round" stroke-linejoin="round" stroke-miterlimit="10" stroke-width=".5" d="M174.09375 479.73828l-6.92578 1.17969"/></g><g clip-path="url(#o)"><path fill="none" stroke="#000" stroke-linecap="round" stroke-linejoin="round" stroke-miterlimit="10" stroke-width=".5" d="M174.09375 479.73828l1.5 1.94531"/></g><g clip-path="url(#p)"><path fill="none" stroke="#000" stroke-linecap="round" stroke-linejoin="round" stroke-miterlimit="10" stroke-width=".5" d="M173.08594 479.91016l.75.97265"/></g><g clip-path="url(#q)"><path fill="none" stroke="#000" stroke-linecap="round" stroke-linejoin="round" stroke-miterlimit="10" stroke-width=".5" d="M187.42578 479.85156l-6.96094.95313"/></g><g clip-path="url(#r)"><path fill="none" stroke="#000" stroke-linecap="round" stroke-linejoin="round" stroke-miterlimit="10" stroke-width=".5" d="M187.42578 479.85156l1.4336 1.99219"/></g><g clip-path="url(#s)"><path fill="none" stroke="#000" stroke-linecap="round" stroke-linejoin="round" stroke-miterlimit="10" stroke-width=".5" d="M200.76563 480.08203l-7.01172.49219"/></g><g clip-path="url(#t)"><path fill="none" stroke="#000" stroke-linecap="round" stroke-linejoin="round" stroke-miterlimit="10" stroke-width=".5" d="M200.76563 480.08203l1.30078 2.08203"/></g><g clip-path="url(#u)"><path fill="none" stroke="#000" stroke-linecap="round" stroke-linejoin="round" stroke-miterlimit="10" stroke-width=".5" d="M214.08984 480.34375l-7.02734-.03125"/></g><g clip-path="url(#v)"><path fill="none" stroke="#000" stroke-linecap="round" stroke-linejoin="round" stroke-miterlimit="10" stroke-width=".5" d="M214.08984 480.34375l1.14063 2.17188"/></g><g clip-path="url(#w)"><path fill="none" stroke="#000" stroke-linecap="round" stroke-linejoin="round" stroke-miterlimit="10" stroke-width=".5" d="M227.40234 480.26172l-7.02343.13281"/></g><g clip-path="url(#x)"><path fill="none" stroke="#000" stroke-linecap="round" stroke-linejoin="round" stroke-miterlimit="10" stroke-width=".5" d="M227.40234 480.26172l1.19532 2.14453"/></g><g clip-path="url(#y)"><path fill="none" stroke="#000" stroke-linecap="round" stroke-linejoin="round" stroke-miterlimit="10" stroke-width=".5" d="M240.69531 479.91406l-6.98047.83203"/></g><g clip-path="url(#z)"><path fill="none" stroke="#000" stroke-linecap="round" stroke-linejoin="round" stroke-miterlimit="10" stroke-width=".5" d="M240.69531 479.91406l1.39844 2.01563"/></g><g clip-path="url(#A)"><path fill="none" stroke="#000" stroke-linecap="round" stroke-linejoin="round" stroke-miterlimit="10" stroke-width=".5" d="M254.02344 480.05078l-7.0039.5586"/></g><g clip-path="url(#B)"><path fill="none" stroke="#000" stroke-linecap="round" stroke-linejoin="round" stroke-miterlimit="10" stroke-width=".5" d="M254.02344 480.05078l1.32031 2.0664"/></g><g clip-path="url(#C)"><path fill="none" stroke="#000" stroke-linecap="round" stroke-linejoin="round" stroke-miterlimit="10" stroke-width=".5" d="M267.34766 480.32031l-7.02735.01953"/></g><g clip-path="url(#D)"><path fill="none" stroke="#000" stroke-linecap="round" stroke-linejoin="round" stroke-miterlimit="10" stroke-width=".5" d="M266.32813 480.32031l.57812 1.08203"/></g><g clip-path="url(#E)"><path fill="none" stroke="#000" stroke-linecap="round" stroke-linejoin="round" stroke-miterlimit="10" stroke-width=".5" d="M280.61719 479.75l-6.9336 1.15625"/></g><g clip-path="url(#F)"><path fill="none" stroke="#000" stroke-linecap="round" stroke-linejoin="round" stroke-miterlimit="10" stroke-width=".5" d="M279.60938 479.91797l.74609.97656"/></g><g clip-path="url(#G)"><path fill="none" stroke="#000" stroke-linecap="round" stroke-linejoin="round" stroke-miterlimit="10" stroke-width=".5" d="M293.96094 479.98828l-6.99219.67969"/></g><g clip-path="url(#H)"><path fill="none" stroke="#000" stroke-linecap="round" stroke-linejoin="round" stroke-miterlimit="10" stroke-width=".5" d="M292.94531 480.08984l.67969 1.01953"/></g><g clip-path="url(#I)"><path fill="none" stroke="#000" stroke-linecap="round" stroke-linejoin="round" stroke-miterlimit="10" stroke-width=".5" d="M307.09375 479.15625l-6.625 2.34375"/></g><g clip-path="url(#J)"><path fill="none" stroke="#000" stroke-linecap="round" stroke-linejoin="round" stroke-miterlimit="10" stroke-width=".5" d="M306.1289 479.4961l.90626.83202"/></g><g clip-path="url(#K)"><path fill="none" stroke="#000" stroke-linecap="round" stroke-linejoin="round" stroke-miterlimit="10" stroke-width=".5" d="M320.03516 478.40625l-5.87891 3.84375"/></g><g clip-path="url(#L)"><path fill="none" stroke="#000" stroke-linecap="round" stroke-linejoin="round" stroke-miterlimit="10" stroke-width=".5" d="M332.47266 477.48438l-4.1211 5.6914"/></g><g clip-path="url(#M)"><path fill="none" stroke="#000" stroke-linecap="round" stroke-linejoin="round" stroke-miterlimit="10" stroke-width=".5" d="M345.19922 477.14063l-2.94922 6.3789"/></g><g clip-path="url(#N)"><path fill="none" stroke="#000" stroke-linecap="round" stroke-linejoin="round" stroke-miterlimit="10" stroke-width=".5" d="M356.28906 476.89844l1.5039 6.86328"/></g><path fill="none" stroke="#000" stroke-linecap="round" stroke-linejoin="round" stroke-miterlimit="10" stroke-width=".5" d="M356.50781 477.89453l.9336-.79297"/><g clip-path="url(#O)"><path fill="none" stroke="#000" stroke-linecap="round" stroke-linejoin="round" stroke-miterlimit="10" stroke-width=".5" d="M369.4961 476.92188l1.71874 6.8125"/></g><g clip-path="url(#P)"><path fill="none" stroke="#000" stroke-linecap="round" stroke-linejoin="round" stroke-miterlimit="10" stroke-width=".5" d="M382.02734 477.22266l3.28516 6.21093"/></g><path fill="none" stroke="#000" stroke-linecap="round" stroke-linejoin="round" stroke-miterlimit="10" stroke-width=".5" d="M382.50781 478.125l.6875-1.01563"/><g clip-path="url(#Q)"><path fill="none" stroke="#000" stroke-linecap="round" stroke-linejoin="round" stroke-miterlimit="10" stroke-width=".5" d="M393.74219 478.98438l6.48828 2.6914"/></g><path fill="none" stroke="#000" stroke-linecap="round" stroke-linejoin="round" stroke-miterlimit="10" stroke-width=".5" d="M394.6836 479.375l-.1172-1.22266"/><g clip-path="url(#R)"><path fill="none" stroke="#000" stroke-linecap="round" stroke-linejoin="round" stroke-miterlimit="10" stroke-width=".5" d="M407.11328 478.85156l6.375 2.95313"/></g><g clip-path="url(#S)"><path fill="none" stroke="#000" stroke-linecap="round" stroke-linejoin="round" stroke-miterlimit="10" stroke-width=".5" d="M425.72656 477.51953l-4.22265 5.61719"/></g><path fill="none" stroke="#000" stroke-linecap="round" stroke-linejoin="round" stroke-miterlimit="10" stroke-width=".5" d="M425.11328 478.33594l1.21094.1914"/><g clip-path="url(#T)"><path fill="none" stroke="#000" stroke-linecap="round" stroke-linejoin="round" stroke-miterlimit="10" stroke-width=".5" d="M440.35547 479.53516l-6.84766 1.58593"/></g><g clip-path="url(#U)"><path fill="none" stroke="#000" stroke-linecap="round" stroke-linejoin="round" stroke-miterlimit="10" stroke-width=".5" d="M440.35547 479.53516l1.60937 1.85156"/></g><g clip-path="url(#V)"><path fill="none" stroke="#000" stroke-linecap="round" stroke-linejoin="round" stroke-miterlimit="10" stroke-width=".5" d="M453.7539 480.5664l-7.01171-.47656"/></g><g clip-path="url(#W)"><path fill="none" stroke="#000" stroke-linecap="round" stroke-linejoin="round" stroke-miterlimit="10" stroke-width=".5" d="M452.73047 480.4961l.5039 1.12109"/></g><g clip-path="url(#X)"><path fill="none" stroke="#000" stroke-linecap="round" stroke-linejoin="round" stroke-miterlimit="10" stroke-width=".5" d="M467.0625 480.03516l-7.0039.58593"/></g><g clip-path="url(#Y)"><path fill="none" stroke="#000" stroke-linecap="round" stroke-linejoin="round" stroke-miterlimit="10" stroke-width=".5" d="M147.5039 466.77344l-7.0078.48047"/></g><path fill="none" stroke="#000" stroke-linecap="round" stroke-linejoin="round" stroke-miterlimit="10" stroke-width=".5" d="M147.5039 466.77344l1.29688 2.08594m12.01953-2.07813l-7.01172.46484m7.01172-.46484l1.29297 2.08594m-2.3125-2.01563l.64453 1.04297m13.59766-1.72265l-6.82422 1.68359m6.82422-1.6836L175.67969 468m11.63672-1.96875l-6.7461 1.96484m6.7461-1.96484l1.71484 1.75781m11.67578-1.45312l-6.89453 1.35547m6.89453-1.35547l1.55078 1.90234m11.73828-2.02734l-6.83984 1.60547m6.83984-1.60547l1.6172 1.84765m11.29687-2.84375l-6.03907 3.59766m6.03907-3.59766l2.09765 1.27344m11.16016-1.36719l-5.92188 3.78516m5.92188-3.78516l2.13672 1.20704m11.05078-1.39063l-5.66797 4.15234m5.66797-4.15234l2.21094 1.07031m11.25-.85547l-5.96094 3.72266m5.96094-3.72266l2.125 1.23047m11.28906-1.0625l-6.15625 3.38672m6.15625-3.38672l2.05078 1.34375m11.03906-1.69922l-5.70703 4.09766m5.70703-4.09766l2.19922 1.08594m10.6836-1.58203l-4.84766 5.08984m4.14453-4.34765l1.17969.32812M319 464.0586l-3.8086 5.91016m3.25391-5.05078l1.22266.10547m11.71875-1.38672l-1.94922 6.7539m1.66406-5.76953l1.19922-.2539m12.32422-.75l-1.79687 6.79297m1.53515-5.8047l1.19531-.27733m12.0625-.78125l-1.16015 6.93359m.99219-5.92188l1.16406-.39062m13.9336.10156l-4.38673 5.48828m3.7461-4.6914l1.20703.22656m11.89453-1.52735l-2.67969 6.4961m2.28906-5.55078l1.22266-.1211m10.4961-1.03125l1.29296 6.91016m-1.10547-5.90234l.96094-.76563m10.15235.91797l5.3203 4.58984m-4.54687-3.92187l.27344-1.19531m15.98828-.52735l-2.1211 6.69922m2.1211-6.69922l2.41406-.44531m11.4375.66406l-3.1914 6.26172m3.1914-6.26172l2.45313-.03906m10.90625.0625l-3.28125 6.21484m3.28125-6.21484l2.45703-.0039m11.41016.36327l-4.38282 5.4961m3.7461-4.69531l1.20312.22656"/><g clip-path="url(#Z)"><path fill="none" stroke="#000" stroke-linecap="round" stroke-linejoin="round" stroke-miterlimit="10" stroke-width=".5" d="M147.4961 453.36328l-6.9922.67188"/></g><path fill="none" stroke="#000" stroke-linecap="round" stroke-linejoin="round" stroke-miterlimit="10" stroke-width=".5" d="M147.4961 453.36328l1.35546 2.04688m11.9336-2.25l-6.94141 1.07812m5.9336-.92187l.73437.98047m13.52734-1.44532l-6.82031 1.69531m5.82813-1.44921l.8203.91015m13.54298-.89453l-6.9297 1.17188m5.92188-1l.7461.97265m13.41797-1.75l-6.61328 2.38282m5.65234-2.03516l.90625.82031m13.34766-1.23047l-6.56641 2.50782m5.60937-2.14454l.92578.8086m13.23829-1.42578l-6.35157 3.01172m5.42578-2.57032l.98438.73047m12.34766-2.34765l-4.53516 5.36718m3.875-4.58594l1.19922.25782m12.52734-1.23438l-4.03515 5.7539m4.03515-5.7539l2.4336.30078m11.52734.28907l-5.33203 4.57812m5.33203-4.57812l2.28516.89453m11.27343-.57813l-5.8164 3.9414m5.8164-3.9414l2.16797 1.14844m11.25-.98828l-6.01953 3.625m6.01953-3.625l2.10157 1.26172m10.84765-1.76172l-5.29297 4.6211m5.29297-4.6211l2.29297.875m-3.0625-.20313l1.14844.4375m12.7461-1.3125l-4.91016 5.02735m4.91015-5.02735l2.35547.69141m10.40234-1.13281l-3.79296 5.91406m3.79296-5.91406l2.44532.19922m9.99609-.60157l-2.05078 6.71875m2.05078-6.71875l2.41016-.47265m10.78125.4336l-1.80078 6.79296m1.80078-6.79297l2.38672-.5586m10.14843.44532l-.23828 7.02344m.20313-6.0039l1.10156-.53907m15.40625 1.76562l-6.55469 2.52735m20.10156-1.13672l-7.01953-.25m6 .21484l.53516 1.10157m10.67187 2.30078l-.76562-6.98438m.65625 5.96875l-1.01563.6914m17.38672-2.04687l-6.65625-2.2461m5.6875 1.92188l.19922 1.21094M439 450.85938l-4.13672 5.67968m3.53516-4.85547l1.21484.17188m13.17578-.58203l-5.08593 4.84765m4.34765-4.14062l1.16406.38672m11.56641-1.96485l-2.4375 6.58985m2.08203-5.6289l1.21485-.16407"/><g clip-path="url(#aa)"><path fill="none" stroke="#000" stroke-linecap="round" stroke-linejoin="round" stroke-miterlimit="10" stroke-width=".5" d="M147.45313 441.02344l-6.90625-1.28125"/></g><path fill="none" stroke="#000" stroke-linecap="round" stroke-linejoin="round" stroke-miterlimit="10" stroke-width=".5" d="M146.44922 440.83594l.3711 1.17187m14.0078-1.55469l-7.02734-.14062m6.0039.1211l.5547 1.09374m12.72656-3.66015l-4.91016 5.03125m19.26172-2.13672l-6.98438-.75781m5.96875.64843l.45704 1.14063m13.74609-2.42188l-6.73047 2.02735m5.75-1.73438l.86328.8711m13.51172-.83985l-6.89062 1.375m5.89062-1.17578l.77734.94922m13.53907-1.14453l-6.89063 1.3711m5.88672-1.17188l.77734.94922m12.16016-3.3086l-4.1289 5.6875m3.52734-4.85937l1.21484.17187m12.1875-1.3086l-3.10156 6.3047m2.65234-5.38672l1.22657-.03907m12.5039-.89453l-3.03125 6.33985m3.03125-6.33985l2.45313-.10547m10.66797.01954l-2.64453 6.5078m2.64453-6.5078l2.4414-.25m11.66797.69921l-4.23437 5.60938m4.23437-5.60938l2.42578.38672m11.0664-.24218l-4.58593 5.32421m4.58594-5.32421l2.39062.53906m10.80079-.64063l-4.33985 5.52735m4.33985-5.52735l2.41406.4297m-3.04688.375l1.21094.21483m12.92969-.85546l-4.72656 5.19922m4.72656-5.19922l2.3789.60547m-3.0664.14843l2.3789.60938m11.15625-1.72656l-3.78906 5.92187m3.78906-5.92188l2.44532.19922m-2.9961.66407l1.22266.09765m11.61719-1.40234l-1.73828 6.8086m1.73828-6.8086l2.38672-.58203m9.29687.55468l1.52734 6.85938m-1.52734-6.85938l1.86328-1.59375m-1.64453 2.59375l.9336-.80078m10.41015.77735l5.03125 4.90625m-5.03125-4.90625l.6836-2.35547m12.10156 6.5664l6.08984-3.51171m-6.08984 3.51172l-2.07813-1.3047m2.96485.79298l-1.03907-.65235m14.48438-3.46093l4.05469 5.73828m14.80078-2.89063l-7.02735.03906m6.00782-.03515l.58203 1.08203m13.70312-.47656l-6.92578-1.17578m5.91797 1.0039l.38672 1.16406m13.46875-3.41796l-5.99219 3.67187m5.99219-3.67187l2.11328 1.24609m9.66016-2.60938l-2.91016 6.39844m2.91016-6.39844l2.44921-.14843m-2.87109 1.08203l1.22266-.07813"/><g clip-path="url(#ab)"><path fill="none" stroke="#000" stroke-linecap="round" stroke-linejoin="round" stroke-miterlimit="10" stroke-width=".5" d="M147.47266 426.54297l-6.94532 1.05078"/></g><path fill="none" stroke="#000" stroke-linecap="round" stroke-linejoin="round" stroke-miterlimit="10" stroke-width=".5" d="M146.46484 426.69531l.73047.98438m13.52735-1.46485l-6.81641 1.70703m5.82422-1.46093l.82422.91015m13.58984-.35156l-7.02734.09766m6.0039-.08203l.58985 1.07421m13.49219.27344l-6.51563-2.6289m17.08594 4.78906l-1.02735-6.94922m16.61328 1.33203l-5.5703 4.28516m4.76171-3.66016l1.11719.5039m13.1914-.86718l-5.9375 3.76172m5.07422-3.21485l1.06641.60938m13.60156.10938l-6.91797 1.23046m5.91016-1.05078l.75781.96485m11.35156-3.8125l-2.49218 6.5703m2.49219-6.5703l2.43359-.3086m12.16406 1.15235l-5.05469 4.8789m4.32032-4.17187l1.16406.3789m12.94531-1.02343l-5.17578 4.7539m5.17578-4.7539l2.3164.8203m9.26954-1.85155l-1.71875 6.8164m1.71875-6.8164l2.38281-.58594m13.01172 2.0664l-5.875 3.85547m5.01953-3.29687l1.07422.58984m12.02734-2.19531l-3.73828 5.94922m3.73828-5.94922l2.44532.17578m-2.98828.6875l1.22265.08984m13.1289-.58203l-4.72265 5.20703m4.72266-5.20703l2.3789.60547m-3.0664.15235l1.1875.30078m12.7539-1.10938l-4.60156 5.3125m4.60156-5.3125l2.39063.54688m-3.0625.22265l1.19531.27344m12.53125-1.25L355 429.9297m4.08203-5.72266l2.4336.32031m-3.02735.51172l1.21485.16016m10.28906-1.625l.72656 6.98828m-.72656-6.98828l2.03906-1.3711m10.5586 1.52344l2.16406 6.6836m-1.85157-5.71094l.85547-.88281m16.58985 2.22656l-6.72266 2.05078m6.72266-2.05078l1.73437 1.73828m-2.71094-1.4375l1.73047 1.73437m12.1914-2.85156l-5.98437 3.6836m5.98438-3.6836l2.11719 1.24219m-2.98828-.70703l2.11718 1.24219m-2.98828-.70313l1.0586.61719m13.67187-2.13672l-5.33203 4.57422m5.33203-4.57422l2.28516.89453m-3.0586-.23047l2.28516.89453m11.41406-1.94921l-4.55078 5.35546m4.55078-5.35546l2.39453.52343m-3.0586.2539l2.39845.52735m11.10937-1.64062l-3.60937 6.02734m3.60937-6.02734l2.44922.1211m-2.97266.7539l2.44922.125m11.82813-.6914l-4.48438 5.41015"/><g clip-path="url(#ac)"><path fill="none" stroke="#000" stroke-linecap="round" stroke-linejoin="round" stroke-miterlimit="10" stroke-width=".5" d="M465.80469 424.36328l2.40234.4961"/></g><path fill="none" stroke="#000" stroke-linecap="round" stroke-linejoin="round" stroke-miterlimit="10" stroke-width=".5" d="M465.15234 425.15234l2.40235.4922m-3.05469.29296l1.19922.2461"/><g clip-path="url(#ad)"><path fill="none" stroke="#000" stroke-linecap="round" stroke-linejoin="round" stroke-miterlimit="10" stroke-width=".5" d="M146.84766 411.69531l-5.69532 4.11328"/></g><path fill="none" stroke="#000" stroke-linecap="round" stroke-linejoin="round" stroke-miterlimit="10" stroke-width=".5" d="M146.01953 412.29688l1.10156.53906m11.90235-2.15235l-3.41797 6.14063m2.92187-5.2461l1.22657.02344m12.43359-.9961l-3.11328 6.29688m2.66016-5.3828l1.22656-.03517m13.3789-.30078l-4.78906 5.14063m4.09375-4.39453l1.1836.32031m13.58984-.03516l-6.3164 3.07813m5.39843-2.6289l.99219.71874m13.05078-1.50781l-5.9375 3.75781m5.07422-3.21094l1.0664.60547m11.16797.72657l-.01953-.19922-.0586-.1914-.09374-.1797-.46094-.375-.1914-.05859-.19923-.01953-.19921.01953-.19141.0586-.46094.375-.09375.17968-.0586.1914-.01952.19923.01953.19921.0586.19141.09374.17578.46094.3789.1914.0586.19923.01953.19921-.01953.19141-.0586.46094-.3789.09375-.17578.0586-.1914.01952-.19922m12.50781 3.5078l-.43359-7.01562m.4336 7.01563l-2.08985 1.28125M253.56641 412l-6.08985 3.50781m5.20313-2.9961l1.03906.64845m13.6289.67187l-7.02343-.15625m6.0039.13281l.55079 1.09375m11.29297-1.14843l-.01954-.19922-.05859-.1914-.09375-.1797-.45703-.375-.1914-.05859-.19923-.01953-.19922.01953-.1953.0586-.45704.375-.09375.17968-.0586.1914-.01952.19923.01953.19921.0586.19141.09374.17578.45703.3789.19532.0586.19921.01953.19922-.01953.1914-.0586.45704-.3789.09375-.17578.0586-.1914.01953-.19922m14.45703-2.76954l-4.32422 5.53907m4.32422-5.53907l2.41406.42579m9.5586 5.7578l-1.64454-6.83202m1.40625 5.83984l-.91797.8125m15.85157-5.97266l-4.40235 5.47657m4.40235-5.47657l2.41015.46094m11.91797.85547l-6.42578 2.84375m6.42578-2.84375l1.92969 1.51563m-2.86719-1.10157l.96484.75782m13.22657-1.30079l-6.3086 3.09766m6.3086-3.09766l1.98828 1.4375m11.5664-.80468l-6.78515 1.83593m6.78515-1.83593l1.67579 1.79297m-2.66407-1.52735l.83985.89844m12.84375-2.40625l-5.54688 4.3164m5.54688-4.3164l2.23828 1.0039m-3.04688-.375l2.24219 1.00391m11.74219-1.79687l-5.26953 4.64843m5.26953-4.64843l2.29687.86328m-3.0625-.1875l2.29688.86328m12.02734-1.23047l-5.7539 4.03125m5.7539-4.03125l2.1875 1.11328m-3.02344-.52734l2.1875 1.11328m-3.02343-.52734l1.08984.55859m13.52344-2.17969l-5.00781 4.92969m5.0078-4.92969l2.33985.73438m-3.0664-.01953l2.33984.73828m-3.07031-.01953l1.17187.36718m13.11328-2.21484l-4.03515 5.7539m4.03515-5.7539l2.4375.30469m-3.02343.53515l2.43359.30078m12.57031.1172l-6.23828 3.24218m6.23828-3.24219l2.01953 1.39063m-2.92968-.91797l2.02343 1.39062m11.3789-2.90234l-4.59374 5.32031m4.59375-5.32031l2.39062.54297m-3.05859.23047l1.19531.27343m12.65235-1.16015l-4.32032 5.54297"/><g clip-path="url(#ae)"><path fill="none" stroke="#000" stroke-linecap="round" stroke-linejoin="round" stroke-miterlimit="10" stroke-width=".5" d="M465.72266 410.98047l2.41406.42578"/></g><path fill="none" stroke="#000" stroke-linecap="round" stroke-linejoin="round" stroke-miterlimit="10" stroke-width=".5" d="M465.09375 411.78906l2.41406.42188"/><g clip-path="url(#af)"><path fill="none" stroke="#000" stroke-linecap="round" stroke-linejoin="round" stroke-miterlimit="10" stroke-width=".5" d="M146.9375 398.51172l-5.875 3.85547"/></g><path fill="none" stroke="#000" stroke-linecap="round" stroke-linejoin="round" stroke-miterlimit="10" stroke-width=".5" d="M146.9375 398.51172l2.15234 1.17578m10.65625-1.78516l-4.86328 5.07032m4.86328-5.07032l2.36328.66797m10.70313-.88672l-4.36328 5.50782m4.36328-5.50782l2.41406.44141m-3.05078.35938l1.20703.22265m12.7461-1.01953l-4.3672 5.5039m4.3672-5.5039l2.41406.44531m12.03516 1.14453l-6.63282 2.32032m5.66797-1.98438l.89844.83203m9.98437-3.51953l.15625 7.02344m-.1328-6l1.0703-.60156m14.45313.3125l-4.30469 5.55468m3.67578-4.74609l1.21094.20703m13.89844.60547l-6.63672 2.3125m5.67187-1.97656l.89844.83594m13.51563-.67579l-6.90235 1.32032m6.90235-1.32032l1.53906 1.91407m11.07422-3.44141l-5.5 4.375m4.69922-3.73828l1.125.48828m13.09375-.98828l-5.70313 4.10547m5.70313-4.10547l2.19922 1.08203m11.67187.11719l-6.8164 1.70312m5.82421-1.45312l.82031.91015m11.90235-3.30859l-3.64844 6.0039m3.11719-5.1328l1.22656.0703M320.5 399.57032l-6.8086 1.73438m6.8086-1.73438l1.65234 1.8164m11.75391-1.30468l-6.99219.71094m5.97656-.60547l.6797 1.01953m9.6953-4.2539l.91797 6.96875m15.9961-1.90625l-6.27735-3.15625m5.36328 2.69921l.03125 1.22657m14.02344-4.23438l-5.92969 3.77344m5.9297-3.77344l2.13671 1.21094m-3-.66016l2.13672 1.21094m12.01953-1.79297l-5.88672 3.83594m5.88672-3.83594l2.14844 1.1875m-3.0039-.6289l2.14843 1.1875m-3.0039-.62891l1.07421.59375m14.2539-1.13672l-6.48827 2.6914m6.48828-2.6914l1.89453 1.5586m-2.83594-1.16798l1.89063 1.5586M413.23437 398.5l-5.86328 3.875m5.86328-3.875l2.15235 1.17188m-3.00781-.60547l2.15625 1.17187m-3.00782-.60937l1.07813.58593m13.42578-2.32812l-4.82813 5.10547m4.82813-5.10547l2.36328.65234m-3.0664.08985l2.36718.65234m12.00781-1l-5.54296 4.3164m5.54296-4.3164l2.2422 1m-3.04688-.375l2.23828 1.0039m12.0625-1.375l-5.90625 3.8047m5.90625-3.8047l2.14453 1.19923m-3.0039-.64454l2.14452 1.19532m11.9297-1.89844l-5.70313 4.10547"/><g clip-path="url(#ag)"><path fill="none" stroke="#000" stroke-linecap="round" stroke-linejoin="round" stroke-miterlimit="10" stroke-width=".5" d="M466.41406 398.38672l2.19922 1.08594"/></g><g clip-path="url(#ah)"><path fill="none" stroke="#000" stroke-linecap="round" stroke-linejoin="round" stroke-miterlimit="10" stroke-width=".5" d="M465.58203 398.98438l2.20313 1.08593"/></g><g clip-path="url(#ai)"><path fill="none" stroke="#000" stroke-linecap="round" stroke-linejoin="round" stroke-miterlimit="10" stroke-width=".5" d="M146.98047 385.26172l-5.96094 3.72265"/></g><path fill="none" stroke="#000" stroke-linecap="round" stroke-linejoin="round" stroke-miterlimit="10" stroke-width=".5" d="M146.11328 385.80469l1.0625.61328m13.19531-1.02344l-6.11328 3.46094m6.11328-3.46094l2.07032 1.3164m11.12109-1.51952l-5.86719 3.86718m5.86719-3.86718l2.15625 1.17187m-3.00781-.60937l1.07812.58593m10.59375-2.70312l-.875 6.97265m.875-6.97265l2.28906-.875m8.6875 1.40625l3.80079 5.91015m-3.80078-5.91015l1.19921-2.14063m15.08203 8.44532l-2.1289-6.69922m1.82031 5.72265l-.85937.87891m16.90625-3.6836l-6.97657.86329m6.97657-.86328l1.40625 2.0078m11.60937-3.05077l-6.3789 2.94922m6.3789-2.94922l1.95313 1.48437m11.68359-.10156l-7.02344.1836m7.02344-.1836l1.21094 2.13281m11.97656-2.98828l-6.76563 1.89844m6.76563-1.89844l1.69531 1.77344m11.5-2.1289l-6.52734 2.60937m6.52734-2.60938l1.8711 1.58203m11.2539-1.98046l-6.14844 3.40234m6.14844-3.40235l2.0586 1.33594m10.60546-2.17969l-4.84375 5.08985M305.5 385.3203l1.17969.32813m13.09765-.79297l-5.36328 4.53515m5.36328-4.53515l2.28125.91015m11.78125.60157l-6.85937 1.51562m6.85937-1.51562l1.59375 1.86328m9.3047-4.47266l-2.02735 6.73047m2.02734-6.73047l2.41016-.47656m13.33593 3.14453l-6.88671 1.39453m6.88671-1.39453l1.5586 1.89453m-2.5586-1.6914l.77735.9453m13.20703-2.08202l-6.22266 3.26562m6.22266-3.26562l2.02344 1.38281m-2.92969-.91016l1.01172.69141m13.125-1.3164l-6.05469 3.5664m6.05469-3.5664l2.08984 1.28515m-2.97265-.76563l2.09375 1.28125m12.08203-1.83984l-6.01172 3.64453m6.01172-3.64453l2.10547 1.25781m-2.98047-.72656l2.10937 1.2539m11.80469-2.17577l-5.45703 4.42578m5.45703-4.42578l2.25781.95703m-3.05469-.3125l1.13282.47656m12.92187-1.1875l-5.34765 4.5586m5.34765-4.5586l2.28125.90234m-3.0586-.23828l2.28126.89844m11.7461-1.63672l-5.21485 4.70703m5.21484-4.70703l2.3086.83594m-3.06641-.15235l2.30469.83985m-3.0625-.15235l1.15234.41797m14.19922-1.03515l-6.25781 3.19922m6.25781-3.19922l2.01172 1.40625m-2.92188-.9414l1.00782.70312m12.875-1.71094l-5.57032 4.28515"/><g clip-path="url(#aj)"><path fill="none" stroke="#000" stroke-linecap="round" stroke-linejoin="round" stroke-miterlimit="10" stroke-width=".5" d="M466.34766 384.98047l2.23437 1.01562"/></g><g clip-path="url(#ak)"><path fill="none" stroke="#000" stroke-linecap="round" stroke-linejoin="round" stroke-miterlimit="10" stroke-width=".5" d="M465.53516 385.60547l2.23437 1.01562"/></g><g clip-path="url(#al)"><path fill="none" stroke="#000" stroke-linecap="round" stroke-linejoin="round" stroke-miterlimit="10" stroke-width=".5" d="M141.23047 371.64453l5.53906 4.32813"/></g><path fill="none" stroke="#000" stroke-linecap="round" stroke-linejoin="round" stroke-miterlimit="10" stroke-width=".5" d="M158.21484 370.41016l-1.80078 6.79296m16.98438-5.55859l-5.53516 4.32813m5.53516-4.32813l2.24219.9961m10.37109-1.67579l-4.13281 5.6836m4.1328-5.6836l2.4297.34375m11.0078-.25l-4.375 5.5m4.375-5.5l2.41017.44922m12.10156 1.35938L207.1914 374.75m6.76953-1.88281l1.6914 1.78125m-2.67578-1.50781l.84375.89062m13.47656-1.07813l-6.8125 1.71094m6.8125-1.71094l1.64454 1.82032m11.76953-1.22266l-7.00781.51563m7.0078-.51563l1.3086 2.07422m11.42188-3.76953l-5.83985 3.90625m5.83985-3.90625l2.16015 1.16015m11.01172-1.35937l-5.55469 4.30469m5.5547-4.30469l2.23827 1.0039m-3.04687-.3789l1.11719.5039m13.04687-1.07421l-5.63672 4.19531m5.63672-4.19531l2.21875 1.05078m-3.03906-.4414l1.10937.52734m13.17578-.92188L287.5 375.6875m5.9336-3.76172l2.1328 1.21485m-2.99609-.66797l1.0664.60937m13.40626-.58203l-6.52344 2.61719m6.52344-2.61719l1.875 1.58203m10.7539-2.66406l-5.15234 4.78125m5.15235-4.78125l2.3164.80469m10.0586-1.52344l-3.27344 6.21875m3.27344-6.21875l2.45312-.00781m11.45703.40234l-4.46094 5.42969m4.46094-5.42969l2.40235.48438m-3.05079.30468l1.19922.24219m13.70703.17578l-6.34765 3.01563m6.34765-3.01563l1.96875 1.46485m-2.89062-1.02735l.98437.73438m13.48829-.51172l-6.82032 1.69531m6.82031-1.69531l1.64063 1.82422m11.65625-1.89063l-6.78516 1.82813m6.78516-1.82813l1.67578 1.78906m11.60938-1.89453l-6.72266 2.03906m6.72266-2.03906l1.73046 1.74219m-2.70703-1.44531l.86329.8711m13.26953-1.59376l-6.40625 2.89063m6.40625-2.89063l1.9414 1.5m-2.875-1.08203l.97266.75m12.76172-1.98438l-5.375 4.52344m5.375-4.52344l2.27734.91407m10.77344-1.19922l-4.84766 5.08984m4.84766-5.08984l2.36328.66015m-3.07031.08204l1.1836.32812m12.82421-1.07812l-4.82031 5.10937m4.82031-5.10937l2.36719.64843m10.90625-.6914l-4.73438 5.1914"/><g clip-path="url(#am)"><path fill="none" stroke="#000" stroke-linecap="round" stroke-linejoin="round" stroke-miterlimit="10" stroke-width=".5" d="M465.92969 371.21094l2.3789.60937"/></g><path fill="none" stroke="#000" stroke-linecap="round" stroke-linejoin="round" stroke-miterlimit="10" stroke-width=".5" d="M465.24219 371.96875l1.1875.30469"/><g clip-path="url(#an)"><path fill="none" stroke="#000" stroke-linecap="round" stroke-linejoin="round" stroke-miterlimit="10" stroke-width=".5" d="M140.63281 359.48828L147.3672 361.5"/></g><path fill="none" stroke="#000" stroke-linecap="round" stroke-linejoin="round" stroke-miterlimit="10" stroke-width=".5" d="M153.8125 360.24219l7.00781.5039m-5.98828-.43359l-.5-1.1211m16.83594 4.77344l-1.07422-6.9453m16.72656 1.45702l-5.7539 4.03516m4.91797-3.44922l1.09375.5586m13.08984-1.09766l-5.8164 3.9414m4.97265-3.36718l1.08203.5703m13.21484-.92577l-6.08984 3.5039m5.20313-2.99609l1.03906.65234m13.625.375l-7.01563.4336m7.01563-.4336l1.28125 2.08985m12.02344-1.54297l-6.9961-.66016m6.9961.66016l.9414 2.26562m11.71484-.52734l-5.67968-4.13672m4.85547 3.53516l-.17188 1.21484m14.98047-2.88672l-7.01563.41016m5.9961-.35156l.63672 1.04687m13.41406-2.29687l-6.44922 2.78906m5.51172-2.38281l.95703.76562m12.51172-2.30469l-4.88281 5.0547m4.17187-4.31642l1.17969.33594m12.97656-.9414l-5.14062 4.78906m4.39453-4.08985l1.15625.39844m11.51562-2.01172l-2.36328 6.6172m2.36328-6.6172l2.4297-.35546m11.20702.48828l-3.0039 6.35156m3.0039-6.35156l2.44922-.11329m11.54688.53907l-4.3672 5.5039m4.3672-5.5039l2.41406.44531m12.21094 1.94531l-6.98829.71875m5.97266-.61328l.6836 1.01953m13.64843-.41406l-6.99219-.69922m6.9922.69922l.92968 2.26953m12.1836-3.83984l-6.58985 2.4414m6.58984-2.4414l1.83203 1.63281m11.04297-2.46484l-5.70703 4.10156m5.70703-4.10156l2.19922 1.08593m10.52735-1.72265l-4.52735 5.375m4.52735-5.375l2.39843.51562m10.63672-.72656l-3.96875 5.80078m3.96875-5.80078l2.4375.27344m10.36719-.5625l-2.94922 6.3789m2.94922-6.3789l2.44922-.13672m10.36719-.05078l-1.95313 6.75m1.95313-6.75l2.40234-.5039m11.98047 1.02343l-4.08985 5.71484"/><g clip-path="url(#ao)"><path fill="none" stroke="#000" stroke-linecap="round" stroke-linejoin="round" stroke-miterlimit="10" stroke-width=".5" d="M465.60547 357.63672l2.4336.32422"/></g><g clip-path="url(#ap)"><path fill="none" stroke="#000" stroke-linecap="round" stroke-linejoin="round" stroke-miterlimit="10" stroke-width=".5" d="M141.08203 345.21875l5.83594 3.91797"/></g><path fill="none" stroke="#000" stroke-linecap="round" stroke-linejoin="round" stroke-miterlimit="10" stroke-width=".5" d="M153.9336 346.22266l6.76171 1.91015M154.91797 346.5l-.26172-1.19922m13.13672 3.95313l5.67187-4.14844m-4.84375 3.54297l-1.10547-.53516m18.67579 1.76563l-4.4922-5.40235m3.83985 4.61719l-.46484 1.13672m11.76953.4375l.83594-6.97656m-.71485 5.96093l-1.14453.44141m16.50781.1289l-3.5039-6.08984m2.99219 5.20313l-.64844 1.03906m14.69922-.29297l-3.95703-5.8086m3.3828 4.96485l-.5703 1.08594m13.67578.16015l-2.38281-6.61328m2.03515 5.65235l-.82422.90625m15.29297-.35938l-3.9961-5.78125m16.33595 2.89063l-.01954-.19922-.05859-.19531-.09375-.17579-.46094-.375-.1914-.05859-.19922-.01953-.19922.01953-.1914.0586-.46094.375-.09375.17578-.0586.1953-.01953.19923.01953.19922.0586.1914.09375.17578.46093.375.1914.0586.19923.01953.19922-.01953.1914-.0586.46094-.375.09375-.17578.0586-.1914.01952-.19922m8.83985-.65235l6.90234 1.30079m6.6289-2.01563l6.47266 2.73438m-5.53125-2.33985l-.10937-1.21875m12.6914.40235l6.05079 3.57421m-5.16797-3.05468l.05469-1.22657m12.77343.16407l5.26172 4.66015m7.17188-2.46484l7.02344.26953m7.65625-2.91406l4.29687 5.5586m-4.29688-5.5586l1.01172-2.23828m16.82422 2.42968l-4.7461 5.1797m4.0547-4.4297l1.1914.3086m9.91406-1.94531l1.0586 6.94921m14.86328-6.30468l-4.15625 5.66406m17.33984-5.75781l-3.89453 5.84765m3.32813-4.9961l1.22265.1211m12.44532-1.10547l-3.46875 6.11329m3.46875-6.11329l2.45312.06641m10.69922-.15234l-3.14063 6.28515m3.14063-6.28515l2.45313-.0625m10.91796.08984l-3.2539 6.23047m3.2539-6.23047l2.45313-.01953m10.60937-.09766l-2.75 6.46485m2.75-6.46485l2.44532-.21094m12.34765 1.39454l-5.70703 4.10156m4.8789-3.50781l1.09766.54687"/><g clip-path="url(#aq)"><path fill="none" stroke="#000" stroke-linecap="round" stroke-linejoin="round" stroke-miterlimit="10" stroke-width=".5" d="M142.49219 330.6875l3.01562 6.34766"/></g><path fill="none" stroke="#000" stroke-linecap="round" stroke-linejoin="round" stroke-miterlimit="10" stroke-width=".5" d="M154.73047 331.48438l5.16797 4.7578m-4.41797-4.0664l.3125-1.1875m12.21484 5.21485l5.24219-4.6797m-4.48047 4l-1.14844-.42577m16.48047 2.27734l-.3125-7.02344m.26563 6l-1.05469.625m13.27734.26172l1.96485-6.75m-1.67969 5.76563l-1.19922.25m13.625.49609l3.17188-6.27344m-2.70703 5.35938l-1.22657.02734m14.9961 1.19922l1.33593-6.89844m-1.14062 5.89453l-1.17188.35938m13.63282.44922l2.65234-6.50781m-2.26563 5.5625l-1.21875.125m11.97266-2.73047l7.0039.59375m7.4297-2.87891l4.76562 5.16406m-4.07422-4.41406l.40625-1.15625m12.09375.52734l5.01172 4.92188m-4.28125-4.20703l.34766-1.17578m11.67578 1.20312l6.13281 3.4336m-6.13281-3.4336l.05469-2.45312m12.84765 3.6914l6.96094.96094m-5.94922-.82031l-.42187-1.15235m14.0039 4.23047l4.40235-5.47656m-3.76172 4.67969l-1.20313-.23047m13.1289.19531l5.90235-3.8125m-5.90234 3.8125l-2.14453-1.19531m15.46484 1.20312l5.89063-3.82812m-5.89063 3.82812l-2.14844-1.1875m15.75782 1.58204l5.30078-4.6172m8.14843 4.76173l5.03125-4.90625m-4.30078 4.1914l-1.16797-.375m15.26563 2.0039l2.0039-6.73437m-2.0039 6.73438l-2.40234.48828m16.14843-.39063l1.14453-6.93359m-.97656 5.92578l-1.16406.39453m17.65625-5.01171l-5.54297 4.3203m4.73438-3.6914l1.12109.5m13.17969-.8789l-5.89844 3.8164m5.03906-3.25781l1.07422.59375m12.20703-2.08985l-4.11328 5.69532m4.11328-5.69531l2.4336.33593m-3.03125.49219l1.21484.16797m13.34766-.39063l-5.41016 4.48438m5.41016-4.48438l2.26953.9336m11.53125-.16016l-6.38282 2.9375"/><g clip-path="url(#ar)"><path fill="none" stroke="#000" stroke-linecap="round" stroke-linejoin="round" stroke-miterlimit="10" stroke-width=".5" d="M466.7539 332.39453l1.95313 1.48438"/></g><g clip-path="url(#as)"><path fill="none" stroke="#000" stroke-linecap="round" stroke-linejoin="round" stroke-miterlimit="10" stroke-width=".5" d="M143.47656 317.07422l1.04688 6.94922"/></g><g clip-path="url(#at)"><path fill="none" stroke="#000" stroke-linecap="round" stroke-linejoin="round" stroke-miterlimit="10" stroke-width=".5" d="M143.47656 317.07422l1.97266-1.46094"/></g><path fill="none" stroke="#000" stroke-linecap="round" stroke-linejoin="round" stroke-miterlimit="10" stroke-width=".5" d="M157.85938 317.07813l-1.08594 6.9414m17.08203-2.07422l-6.44922-2.79297m5.50781 2.38672l.10156 1.22266m12.28516 1.02734l-2.71094-6.48437m2.31641 5.54297l-.77734.94921m13.62109.23047l-.97656-6.95703m.97656 6.95703l-1.98828 1.44141m17.1875-2.32813l-4.7461-5.18359m4.0547 4.42969l-.41016 1.15625m15.41015-1.99219l-6.73437-2.0039m5.7539 1.71093l.2461 1.20313m14.1914-2.10156l-7.01953.3789m7.01953-.3789l1.26563 2.10156m11.84766-3.10156l-6.61329 2.3789m6.61328-2.3789l1.81641 1.64843m10.92969-2.66015l-5.47656 4.40234m4.67968-3.76172l1.12891.48438m12.05078-1.9375l-3.61328 6.02734m3.61328-6.02734l2.44922.125m9.91797-.51954l-1.71875 6.8125m1.46875-5.8203l1.1914-.29298m12.1211-.7539l-1.21485 6.92187m1.03907-5.91406l1.16797-.3789M314 318.88671l6.1914 3.32031m6.98048-3.01953l6.47656 2.72266m-5.53516-2.32813l-.10937-1.22265m12.46093 3.49218l6.52344-2.60937m-6.52344 2.60937l-1.875-1.58203m16.13282 2.91797l4.63671-5.28125m-4.63671 5.28125l-2.38672-.5625m14.67578-.9961l6.6875-2.16015m-5.71485 1.84375l-.8789-.85156m15.17578 3.3125l2.78125-6.45313m-2.78125 6.45313l-2.44531.20312m2.84765-1.14062l-1.22265.10156M396.33204 324l1.30858-6.90234M396.33204 324l-2.34375.72656m17.9336-1.0625l-3.2422-6.23437m2.76954 5.32812l-.69531 1.01172m16.35937-3.57422l-6.99219.70703m5.97266-.60546l.6836 1.01953m12.66406-3.23047l-5.01954 4.92187m5.01954-4.92187l2.33984.74219m11.67578.29687l-6.42187 2.84766m6.42187-2.84766l1.9336 1.51172m-2.8672-1.09766l.96485.75781m13.35547-1l-6.5664 2.50391"/><g clip-path="url(#au)"><path fill="none" stroke="#000" stroke-linecap="round" stroke-linejoin="round" stroke-miterlimit="10" stroke-width=".5" d="M466.84375 319.29688l1.84766 1.61328"/></g><path fill="none" stroke="#000" stroke-linecap="round" stroke-linejoin="round" stroke-miterlimit="10" stroke-width=".5" d="M465.89063 319.66016l.92187.80468"/><path fill="#00f" fill-rule="evenodd" d="M388.23828 472.08594h8.61719V461.9414h-8.61719v10.14453"/><path fill="azure" fill-rule="evenodd" d="M390.07031 463.77344h.83594v2.82422h3.28516v-2.82422h.83203v6.48047h-.83203v-2.91797h-3.28516v2.91797h-.83594v-6.48047"/><path fill="#00f" fill-rule="evenodd" d="M383.80078 436.57813h8.61719v-10.14454h-8.61719v10.14454"/><path fill="azure" fill-rule="evenodd" d="M385.63281 428.26563h.83203v2.82421h3.28907v-2.82421h.83203v6.48046h-.83203v-2.91406h-3.28907v2.91406h-.83203v-6.48046"/><path fill="#ff3030" fill-rule="evenodd" d="M375.61719 418.82813h7.69531v-10.14844h-7.69531v10.14844"/><path fill="azure" fill-rule="evenodd" d="M377.44922 410.51172h.83594v5.74219h3.1914v.73828h-4.02734v-6.48047"/><path fill="#ff3030" fill-rule="evenodd" d="M295.72656 405.51172h7.69531v-10.14453h-7.6953v10.14453"/><path fill="azure" fill-rule="evenodd" d="M297.5586 397.19922h.83593v5.73828h3.1914v.74219h-4.02734v-6.48047"/><path fill="#00f" fill-rule="evenodd" d="M370.48438 396.63281h8.62109v-10.14453h-8.6211v10.14453"/><path fill="azure" fill-rule="evenodd" d="M372.3164 388.32031h.83594v2.82422h3.28516v-2.82422h.83203v6.48047h-.83203v-2.91406h-3.28516v2.91406h-.83593v-6.48047"/><path fill="#ff3030" fill-rule="evenodd" d="M198.08203 374.4414h7.69531v-10.14452h-7.6953v10.14453"/><path fill="azure" fill-rule="evenodd" d="M199.91797 366.1289h.83203v5.7422h3.19531v.73827h-4.02734v-6.48046"/><path fill="#ffffe0" fill-rule="evenodd" d="M323.99219 352.65234h22.17969v-10.1914h-22.1797v10.1914"/><path fill-rule="evenodd" d="M327.48828 344.29297H328v6.29297h-.78906v-4.48828h-1.38672v-.5547l.5586-.0664.2539-.05469.22656-.08984.20703-.14062.17188-.21094.14062-.29297.10547-.39453m4.8164 0l.22657.01953.21875.05469.21094.08984.19531.1211.1836.14843.17187.17578.30078.41797.2461.4961.17968.54687.10938.57813.03906.58984-.03906.59375-.10938.58594-.17969.55078-.24609.5039-.30078.4297-.17188.17968-.18359.15234-.19531.1211-.21094.09375-.21875.05469-.22656.01953-.23047-.01954-.21875-.05468-.20703-.09375-.19922-.1211-.1836-.15234-.17187-.17969-.30078-.42969-.24219-.5039-.17969-.55078-.11328-.58594-.03515-.59375h.83203l.02734.5625.08203.50781.125.4414.16406.375.19141.30079.21094.22266.22265.13671.22657.04688.22656-.04688.22266-.13671.21093-.22266.1875-.30078.16407-.375.125-.4414.08203-.50782.03125-.5625-.03125-.5586-.08203-.5039-.125-.4336-.16407-.36718-.1875-.29297-.21093-.21094-.22266-.13281-.22656-.04688-.22656.04688-.22266.13281-.21094.21094-.1914.29297-.16407.36719-.125.43359-.08203.5039-.02734.5586h-.83203l.03515-.58984.11328-.57813.1797-.54687.24218-.4961.30078-.41797.17188-.17578.18359-.14844.19922-.12109.20703-.08984.21875-.05469.23047-.01953m5.08984 0h.50781v6.29297h-.78515v-4.48828h-1.38672v-.5547l.5586-.0664.25-.05469.23046-.08984.20313-.14062.17578-.21094.14062-.29297.10547-.39453m2.82422 2.17578h.78516l.01953-.3164.0625-.28907.09765-.25.14063-.21484.17969-.17578.22265-.12891.26563-.07813.3086-.03125.23827.02344.22266.0625.20703.10156.17578.13672.14844.17579.11328.20312.07422.23828.02344.26563-.01954.26562-.0664.22656-.10938.19141-.15625.17188-.20312.16015-.2461.16797-.6328.38672-.53907.3164-.4375.31641-.34375.32422-.26563.33594-.1914.35156-.125.36719-.0664.39453-.02344.41797h4.21484v-.73828h-3.33203l.08203-.28516.11328-.23828.14844-.19922.1875-.17969.23047-.17187.27734-.17578.71875-.41797.41406-.20313.34766-.23437.27734-.25.22266-.26563.16406-.27734.10938-.28516.0625-.28515.02343-.28125-.04296-.38282-.1211-.34765-.1875-.3086-.2539-.26171-.30079-.21485-.34375-.15625-.3828-.10156-.40626-.03125-.4336.03125-.39843.09765-.35547.16797-.30469.23438-.25.30469-.18359.375-.11719.4453-.03906.51954"/><path fill="#ffffe0" fill-rule="evenodd" d="M168.64844 374.65234h22.17969v-10.1914h-22.1797v10.1914"/><path fill-rule="evenodd" d="M172.14844 366.29297h.50781v6.29297h-.78516v-4.48828h-1.39062v-.5547l.5586-.0664.2539-.05469.23047-.08984.20312-.14062.17188-.21094.14453-.29297.10547-.39453m4.8125 0l.23047.01953.21875.05469.20703.08984.19531.1211.1836.14843.17187.17578.30469.42188.24218.49219.1797.54687.10937.57813.03906.58984-.03906.59375-.10938.58594-.17969.55469-.24218.5-.3047.42968-.17187.17969-.18359.15234-.19531.1211-.20703.09375-.21875.0586-.23047.01952-.23047-.01953-.21875-.0586-.20703-.09374-.19531-.1211-.1836-.15234-.17187-.17969-.3047-.42969-.24218-.5-.17969-.55468-.10937-.58594-.03906-.59375h.83203l.03125.5625.07812.50781.1289.4414.16017.375.1914.30079.21094.22266.22266.13671.22656.04688.22656-.04688.22266-.13671.21093-.22266.19141-.30078.16016-.375.1289-.4414.08203-.50782.02735-.5625-.02735-.5586-.08203-.5-.1289-.4375-.16016-.36718-.1914-.28906-.21094-.21485-.22266-.13281-.22656-.04297-.22656.04297-.22266.13281-.21094.21485-.1914.28906-.16016.36719-.1289.4375-.07813.5-.03125.55859h-.83203l.03906-.58984.10937-.57813.1797-.54687.24218-.4922.30469-.42187.17187-.17578.1836-.14844.1953-.12109.20704-.08984.21875-.05469.23047-.01953m5.08984 0h.51172v6.29297h-.78906v-4.48828h-1.38672v-.5547l.5586-.0664.2539-.05469.22656-.08984.20703-.14062.17188-.21094.14062-.29297.10547-.39453m2.82422 2.17578h.78906l.01953-.3164.0586-.28516.09765-.2539.14063-.21485.1836-.17578.22265-.12891.26562-.07813.3047-.02734.23827.01953.22656.0625.20313.10156.17969.14063.14844.17188.11328.20703.0703.23437.02735.26563-.02344.26953-.0664.22265-.10938.19141-.15625.17188-.19922.16015-.24609.16797-.63672.39063-.53515.3125-.4375.3164-.34766.32422-.26563.33594-.1875.35156-.125.36719-.0703.39453-.01954.41797h4.21094v-.73828h-3.33203l.08203-.28516.11328-.23828.14844-.19922.1875-.17969.23047-.17187.27734-.17578.71875-.41797.41406-.20313.34766-.23047.28125-.2539.21875-.26563.16406-.27734.10938-.28516.0664-.28515.01953-.28125-.04297-.38282-.12109-.34765-.1875-.3086-.25-.26171-.30469-.21485-.34375-.15625-.3789-.09765-.41016-.03516-.4336.03125-.39843.10156-.35547.16406-.30469.23438-.24609.30469-.1875.375-.11328.4453-.04297.51954"/><path fill="#ffffe0" fill-rule="evenodd" d="M242.44922 441.25h22.17969v-10.1914h-22.1797V441.25"/><path fill-rule="evenodd" d="M245.94922 432.89063h.50781v6.29296h-.78516v-4.48828h-1.39062v-.55469l.5586-.0664.2539-.05469.23047-.08594.20312-.14453.17188-.20703.14453-.29687.10547-.39454m4.8125 0l.23047.01954.21875.05468.20703.08985.19531.1211.1875.14843.16797.17578.30469.42188.24219.49218.17968.54688.10938.57812.03906.58985-.03906.59375-.10938.58593-.17969.5547-.24218.5-.30469.42968-.16797.17969-.1875.15234-.19531.125-.20703.08984-.21875.0586-.23047.01953-.23047-.01953-.21875-.0586-.20703-.08984-.19531-.125-.1836-.15234-.17187-.1797-.30469-.42968-.24219-.5-.17969-.55469-.10937-.58593-.03906-.59375h.83203l.03125.5664.07812.5039.12891.44142.16016.375.1914.30078.21094.22265.22266.13672.22656.04688.22656-.04688.22266-.13672.21094-.22265.1914-.30079.16016-.375.1289-.4414.08203-.5039.02735-.56641-.02734-.5586-.08204-.5-.1289-.4375-.16016-.36719-.1914-.28906-.21094-.21484-.22266-.13281-.22656-.04297-.22656.04297-.22266.1328-.21094.21485-.1914.28906-.16016.3672-.1289.4375-.07813.5-.03125.55859h-.83203l.03906-.58985.10938-.57812.17968-.54688.24219-.49219.30469-.42187.17187-.17578.1836-.14844.1953-.1211.20704-.08984.21875-.05468.23047-.01954m5.08984 0h.51172v6.29297h-.78906v-4.48828h-1.38672v-.55469l.5586-.0664.2539-.05469.23047-.08594.20312-.14453.17188-.20703.14062-.29687.10547-.39454m2.82422 2.17579h.78906l.01954-.31641.05859-.28516.09765-.2539.14063-.21485.1836-.17578.22265-.1289.26563-.07813.30468-.02734.23828.01953.22657.0625.20312.10156.17969.14063.14844.17187.11328.20703.07031.23438.02734.26562-.02343.26953-.06641.22266-.10938.1914-.15625.17188-.19921.16406-.2461.16407-.63672.39062-.53515.3125-.4375.3164-.34766.32423-.26562.33593-.1875.35157-.125.36718-.07032.39454-.01953.41796H262.75v-.73828h-3.33203l.08203-.28515.11328-.23438.14844-.20312.1875-.1797.23047-.17187.27734-.17578.71875-.41797.41406-.20312.34766-.23047.28125-.2539.21875-.26563.16406-.27735.10938-.28515.0664-.28516.01954-.28125-.04297-.38281-.1211-.34766-.1875-.30859-.25-.26172-.30469-.21484-.34375-.15625-.3789-.09766-.41016-.03515-.4336.03125-.39843.10156-.35547.16406-.30469.23438-.24609.30468-.1875.375-.11328.44531-.04297.51954"/><path fill="#ffffe0" fill-rule="evenodd" d="M221.91016 339.20313h22.17968V329.0078h-22.17968v10.19531"/><path fill-rule="evenodd" d="M225.40625 330.84375h.51172v6.29297h-.78906v-4.48828h-1.38672v-.55469l.5586-.0664.2539-.0547.22656-.08984.20313-.14062.17578-.21094.14062-.29297.10547-.39453m4.8164 0l.22657.01953.21875.05469.21094.08984.1953.1211.1836.14843.17188.17579.30078.41796.2461.4961.17968.54687.10938.57813.03906.58984-.03906.59375-.10938.58203-.17969.55469-.2461.5039-.30077.42579-.17188.17969-.1836.15625-.1953.12109-.21094.09375-.21875.05469-.22656.01953-.23047-.01953-.21875-.0547-.20703-.09374-.19922-.1211-.1836-.15625-.17187-.17968-.30078-.42578-.24219-.50391-.17969-.55469-.11328-.58203-.03906-.59375h.83594l.02734.5625.08203.50781.125.44141.16406.375.19141.30078.21094.22266.22265.13672.22657.04687.22656-.04687.22266-.13672.21093-.22266.1875-.30078.16406-.375.125-.4414.08204-.50782.03125-.5625-.03125-.5625-.08203-.5-.125-.4336-.16407-.36718-.1875-.29297-.21094-.21094-.22265-.1328-.22656-.04688-.22657.04687-.22265.13281-.21094.21094-.1914.29297-.16407.36719-.125.4336-.08203.5-.02734.5625h-.83594l.03906-.58985.11328-.57813.17969-.54687.24219-.4961.30078-.41796.17187-.17579.1836-.14843.19922-.1211.20703-.08984.21875-.05469.23047-.01953m5.08984 0h.50781v6.29297h-.78515v-4.48828h-1.38672v-.55469l.5586-.0664.25-.0547.23046-.08984.20313-.14062.17578-.21094.14062-.29297.10547-.39453m6.80469 1.61719h-.78906l-.05079-.21094-.08203-.1875-.10547-.15625-.1289-.13281-.14844-.10156-.16016-.07422-.16797-.04688-.17187-.01562-.32813.04296-.28906.1172-.2461.19921-.20312.26563-.16015.33984-.11328.40234-.07032.46875-.02734.52735.1914-.20313.1875-.16015.1836-.1211.1875-.08984.1875-.0586.1914-.03906.39844-.02344.3086.03125.32031.08985.3164.15625.29298.21875.2578.28515.19923.35157.0703.19922.0547.21875.02734.23437.0039.25-.78515.04688-.02734-.25782-.07813-.25-.1211-.23437-.16015-.21094-.19531-.17969-.21875-.13671-.23828-.08594-.25781-.03125-.25391.03125-.24219.08594-.21875.13671-.1914.1797-.16016.21093-.125.23437-.07813.25-.02734.25782.02734.2578.07813.25392.125.23437.16016.21094.1914.17578.21875.13672.24219.08984.2539.03125.25782-.03125.23828-.08984.21875-.13672.19531-.17578.16016-.21094.1211-.23438.07812-.2539.02734-.25781.78516-.04688-.02735.3711-.09375.37109-.15625.35937-.22265.32813-.29297.28515-.16797.1172-.1875.10156-.20703.08203-.22266.0625-.24219.03906-.26172.01172-.28125-.01563-.26171-.04687-.23828-.07422-.21485-.10547-.19531-.13281-.17188-.15625-.15625-.17969-.1328-.20313-.1172-.22265-.10156-.24219-.14453-.53515-.08594-.58985-.02734-.64062.03906-.7461.11328-.66015.1875-.57813.1211-.25781.13672-.23047.15234-.20703.17187-.17969.1836-.15625.20312-.1289.21875-.10157.23047-.07422.25-.04687.26172-.01172.36719.03125.33203.09766.29297.14843.25781.20313.21094.23828.16406.27734.11719.30079.0625.3203"/></g></defs><use xlink:href="#av"/></svg>