<svg xmlns="http://www.w3.org/2000/svg" role="img" xmlns:xlink="http://www.w3.org/1999/xlink" viewBox="142.45 309.95 326.84 171.84"><defs><clipPath id="a"><path d="M144 311.67188h1v168.65625h-1zm0 0"/></clipPath><clipPath id="b"><path d="M144 480h1v.32813h-1zm0 0"/></clipPath><clipPath id="c"><path d="M144 311.67188h324v168.65625H144zm0 0"/></clipPath><clipPath id="d"><path d="M429 476h7v4.32813h-7zm0 0"/></clipPath><clipPath id="e"><path d="M430 478h5v2.32813h-5zm0 0"/></clipPath><clipPath id="f"><path d="M457 479h4v1.32813h-4zm0 0"/></clipPath><clipPath id="g"><path d="M467 311.67188h1v168.65625h-1zm0 0"/></clipPath><clipPath id="h"><path d="M144 480h4v.32813h-4zm0 0"/></clipPath><clipPath id="i"><path d="M147 480h2v.32813h-2zm0 0"/></clipPath><clipPath id="j"><path d="M146 480h2v.32813h-2zm0 0"/></clipPath><clipPath id="k"><path d="M153 479h9v1.32813h-9zm0 0"/></clipPath><clipPath id="l"><path d="M160 479h3v1.32813h-3zm0 0"/></clipPath><clipPath id="m"><path d="M159 480h2v.32813h-2zm0 0"/></clipPath><clipPath id="n"><path d="M166 480h9v.32813h-9zm0 0"/></clipPath><clipPath id="o"><path d="M173 480h3v.32813h-3zm0 0"/></clipPath><clipPath id="p"><path d="M172 480h2v.32813h-2zm0 0"/></clipPath><clipPath id="q"><path d="M180 480h8v.32813h-8zm0 0"/></clipPath><clipPath id="r"><path d="M187 480h2v.32813h-2zm0 0"/></clipPath><clipPath id="s"><path d="M186 480h2v.32813h-2zm0 0"/></clipPath><clipPath id="t"><path d="M193 479h9v1.32813h-9zm0 0"/></clipPath><clipPath id="u"><path d="M200 479h3v1.32813h-3zm0 0"/></clipPath><clipPath id="v"><path d="M199 479h2v1.32813h-2zm0 0"/></clipPath><clipPath id="w"><path d="M206 479h9v1.32813h-9zm0 0"/></clipPath><clipPath id="x"><path d="M213 480h3v.32813h-3zm0 0"/></clipPath><clipPath id="y"><path d="M212 480h2v.32813h-2zm0 0"/></clipPath><clipPath id="z"><path d="M220 479h8v1.32813h-8zm0 0"/></clipPath><clipPath id="A"><path d="M227 480h2v.32813h-2zm0 0"/></clipPath><clipPath id="B"><path d="M226 480h2v.32813h-2zm0 0"/></clipPath><clipPath id="C"><path d="M233 479h8v1.32813h-8zm0 0"/></clipPath><clipPath id="D"><path d="M240 480h2v.32813h-2zm0 0"/></clipPath><clipPath id="E"><path d="M239 480h2v.32813h-2zm0 0"/></clipPath><clipPath id="F"><path d="M246 480h9v.32813h-9zm0 0"/></clipPath><clipPath id="G"><path d="M253 480h3v.32813h-3zm0 0"/></clipPath><clipPath id="H"><path d="M260 479h8v1.32813h-8zm0 0"/></clipPath><clipPath id="I"><path d="M267 479h2v1.32813h-2zm0 0"/></clipPath><clipPath id="J"><path d="M273 479h8v1.32813h-8zm0 0"/></clipPath><clipPath id="K"><path d="M280 479h3v1.32813h-3zm0 0"/></clipPath><clipPath id="L"><path d="M286 479h9v1.32813h-9zm0 0"/></clipPath><clipPath id="M"><path d="M293 479h3v1.32813h-3zm0 0"/></clipPath><clipPath id="N"><path d="M300 479h8v1.32813h-8zm0 0"/></clipPath><clipPath id="O"><path d="M306 479h2v1.32813h-2zm0 0"/></clipPath><clipPath id="P"><path d="M313 479h8v1.32813h-8zm0 0"/></clipPath><clipPath id="Q"><path d="M319 480h2v.32813h-2zm0 0"/></clipPath><clipPath id="R"><path d="M326 480h9v.32813h-9zm0 0"/></clipPath><clipPath id="S"><path d="M332 480h2v.32813h-2zm0 0"/></clipPath><clipPath id="T"><path d="M340 479h8v1.32813h-8zm0 0"/></clipPath><clipPath id="U"><path d="M345 479h3v1.32813h-3zm0 0"/></clipPath><clipPath id="V"><path d="M353 478h8v2.32813h-8zm0 0"/></clipPath><clipPath id="W"><path d="M368 477h5v3.32813h-5zm0 0"/></clipPath><clipPath id="X"><path d="M383 476h2v4.32813h-2zm0 0"/></clipPath><clipPath id="Y"><path d="M396 476h2v4.32813h-2zm0 0"/></clipPath><clipPath id="Z"><path d="M409 479h3v1.32813h-3zm0 0"/></clipPath><clipPath id="aa"><path d="M419 479h9v1.32813h-9zm0 0"/></clipPath><clipPath id="ab"><path d="M425 479h3v1.32813h-3zm0 0"/></clipPath><clipPath id="ac"><path d="M433 480h8v.32813h-8zm0 0"/></clipPath><clipPath id="ad"><path d="M439 480h2v.32813h-2zm0 0"/></clipPath><clipPath id="ae"><path d="M446 479h8v1.32813h-8zm0 0"/></clipPath><clipPath id="af"><path d="M453 480h2v.32813h-2zm0 0"/></clipPath><clipPath id="ag"><path d="M459 479h9v1.32813h-9zm0 0"/></clipPath><clipPath id="ah"><path d="M465 480h2v.32813h-2zm0 0"/></clipPath><clipPath id="ai"><path d="M144 466h4v2h-4zm0 0"/></clipPath><clipPath id="aj"><path d="M144 453h4v2h-4zm0 0"/></clipPath><clipPath id="ak"><path d="M466 451h2v3h-2zm0 0"/></clipPath><clipPath id="al"><path d="M144 440h4v1h-4zm0 0"/></clipPath><clipPath id="am"><path d="M466 439h2v3h-2zm0 0"/></clipPath><clipPath id="an"><path d="M144 426h4v2h-4zm0 0"/></clipPath><clipPath id="ao"><path d="M144 413h4v2h-4zm0 0"/></clipPath><clipPath id="ap"><path d="M465 410h3v2h-3zm0 0"/></clipPath><clipPath id="aq"><path d="M144 398h4v5h-4zm0 0"/></clipPath><clipPath id="ar"><path d="M466 398h2v3h-2zm0 0"/></clipPath><clipPath id="as"><path d="M144 385h4v5h-4zm0 0"/></clipPath><clipPath id="at"><path d="M466 385h2v3h-2zm0 0"/></clipPath><clipPath id="au"><path d="M144 372h4v4h-4zm0 0"/></clipPath><clipPath id="av"><path d="M465 371h3v2h-3zm0 0"/></clipPath><clipPath id="aw"><path d="M144 359h4v3h-4zm0 0"/></clipPath><clipPath id="ax"><path d="M465 357h3v2h-3zm0 0"/></clipPath><clipPath id="ay"><path d="M144 346h4v3h-4zm0 0"/></clipPath><clipPath id="az"><path d="M144 331h3v6h-3zm0 0"/></clipPath><clipPath id="aA"><path d="M466 332h2v3h-2zm0 0"/></clipPath><clipPath id="aB"><path d="M144 317h3v7h-3zm0 0"/></clipPath><clipPath id="aC"><path d="M466 319h2v3h-2zm0 0"/></clipPath><g id="aD" clip-path="url(#clip1)"><path fill="#fff" fill-opacity="0" fill-rule="evenodd" d="M0 0h1000v1000H0zm0 0"/><path fill="#d3d3d3" fill-opacity="0" fill-rule="evenodd" d="M162.15234 355.86719l-.23437.29297.0586.23437.11718.17188.17578.23437.29297.34766.11328.0586.11719-.17188.0586-.23438.17577-.17578.46485-.17578h.69922l.23437.29297.28906.8164.0586.17579.17578.23046.35156.23438.69922.69922.17188.17578.23437.34765.23438.41016.28906.58203.41015.46485.23047.23437.23438.17578.11719.23047.17578.29297.17187 1.16406v.23438l.0586.28906.05859.11719.11719.11719.34765.41015.11719.17188.17578.17578.17578.23437.11719.17188.17188.35156.05859.23438.23437.40625.23438-.0586-.17578.17578-.0586.92969h-.58203l-.23437-.11328-.34766.11328-.11719.11719-.05859.29297-.0586.17578-.11718.17187-.46484.29297-.0586.23438-.0586.11328v.64453l.0586.17187v.41016l.0586.0586v.40624l.05859.40625.11719.17579.05859.05859.23047.64062-.0586.29297v.69922l-.05859.58203v.23438l-.0586.23047-.05468.35156v1.92187l.05469.1172h.42578l-.36719.11718-.02344.35156.89063 1.16797 1.74219.53906 1.33984.35938v.53906l.08984.8086.53516.71484 1.51953.26953.89063-.08594.08984 1.16406.53516.1797 1.16015-.1797 2.05469-.98437 1.16016-.36328 1.8789-.17578 1.69531-.1797-.17968.71876-1.51563.08594-1.25.08984-.80469.26953-1.07421.8086.26953.71875.53515.89843-.17968.625-.26563.8086.26563 1.07812.625.89844.80468.17969 1.25-.1797-.26562.72267.09766.5039.05468.29297v.17188l.0586.29296v.40625l.17578.1172.35156.11718h.40625l.29297-.17578.11328-.11719.0586-.11719.11718-.23047.0586-.17578.35156-.46484.23047-.17578.17578-.0586.17578.0586.0586.17578.11718.98828.05469.46875.0586.17188.11718.23437.17578.0586.8164.05859h.28907l.11719.23437.05859.40625.0586.35156v1.10547l.11718.29297.11719.34766.28906.69922.17578.35156.58203.7539.35157.17579.17187.0586.46875.23437.64063.46484.34765.23438.29297.17578.29297.05468.23047.0625.8164.34766.29297.17578.11328.17188.35157.35156.11719.17578.52343.64063v.28906l.0586.35156v.34766l.05859.35156.0586.28906.11718.0586.17188.05859h.17578l.58203.23437.17578.1172.17578.28905.17578.23438.11328.23437.29297.23047.11719.11719v.41016l.0586.05468.28906.23438.23437.11719.0586.11718.11718.17188.0586.11719.23047.23437.05859.17578.23437.0586.1172.05859-.1172.11328-.05859.11719v.11719l-.11719.29296-.11719.28907v.58203l.17579.11719.11718.05859.0586.11719.11719.11719.11328.05859.17578.34765.0586.35157.05858.40625v.17578l-.05859.17578-.11719.69922v.17187l.1172.17579.29296.29296h.40625l.17578.1172.11719.17187.11719.29296v.23438h-.52735l-.23047-.23438h-.23437l-.17578.0586-.0586.69922.0586.34765.11719.17579.17578.41015.11718.23047.28907.46875.17578.05469h.52344l.23437.0586.75781.64062.0586.29296v.23438l.05859.0586.23047.34765v.35156l-.11719.17188v.29297l.29297.28906.29297.17578.17187.0586.29297.17577.29297.1172.58203.40624.28906.23438.29297.17578.21875.16015.01563.01172.23047.17579.64062.52343.17578.23438.1172.17578.17577.17578.11328.17188v.64062l.1172.17578.46874.11719.58203.11719.23438.05859.23047.11328.29297.11719.11328.0586.58593.35156.28907.17187.17578.0625.17578.05469.17578.0586.69922.35155.28906.17579.23438.05468.28906.17578.23437.1172.64063.40624.29297.11719.17187.0586.23438.05859.41015.05859.23047.0586.23438.11718.0586.17188-.41017.17578.46875.0586.0586.29296.11328.23438.17578.05468.23438.0586.17578.05859.40625.11719.64062.23437.11719.17188.0586.23437v.17578l-.0586.1172-.0586.40624.23438.23438.11719.05859.34766.11719.64062.23047.17578.11718.28906.1172.17578.17577.23438.46485.58203 1.10546.17578.17579.34766.17578.17578.11719.35156.11718 1.04688.52344.23437.0586.46485.11327.29297.0586.46484.17578.75781.58203.23438.23438.34765.46484.17578.17578.28907.23438.8164.69921.29297.17579.28906.28906.29297.17578.29297.28906.69531.64063.17578.17578.29297.23437.28907.23438.46875.28906.64062.58203.34766.23438.23437.29297.34766.34765.35156.46485.9336.99218.34765.40625.11719.17579.23437.05859.11328.11719.64454.17578.23047.11328.23437.0586.29297.17577.23047.1172.9336.69921.40624.40625.23438.17578.40625.17578.23437.11719.8164.34766.34766.23437.23438.11719.29297.28906.23047.11719.7578.35156.35157.17188.23047.05859.29297.11719.23437.0586.8711.17577h.8164l.46875.23047.17188.0586.875.69921.46484.1172.29297.05858.17578.0586.23047.0586.46875.05859.34766.05859.35156.0586.40625.05859h.29297l.17187.0586v.23046l.17578.17578h.29297l.34766.0586.35156.05859.69922.11719h.64063l.46484-.23438.29297-.17578.17187-.11719.41016-.17187.28906-.17578.9336-.46485.46875-.29297.52343-.29296.46485-.17188.46484-.17578 1.05078-.46485.28906-.11718.41016-.11719.28906-.11719.52735-.17578 1.51562-.69922.58203-.34765.28907-.0586.29297-.0586.34765-.11718.875-.23047.35156-.11719h.11329l.23437-.05859.875-.23437.23438-.0586h.8125l.35156-.0586.8164-.11718.17188-.0586.35156-.05468.29297-.0586.23047-.05859.8164-.17578.17579-.0586h.34765l.23438-.05859.46484-.11718.75781-.17188.23438-.0586h.34765l.41016-.11718.28906-.0586 1.28516-.05859h.28906l.41016-.0586.23047-.05858h.17578l.875-.1172h.40625l.41015-.11718h.34766l.35156-.11328.8711-.0586h1.75l1.04687.28907.41016.11719.28906.11718.35156.11719.28907.11719 1.05078.17187.28906.0586h.29297l.29297.05859.17187.0586.41016.05859.17187.0586.1172.05858h.11718l.11719.0586.35156.0586h.11328l.41016.0664 1.92187.39453 1.92578.39453 1.51953.44922 1.69532.71875 2.14453.80469 1.60547-.71875 1.42968-.80469 1.16016-1.07813 1.25-.44921 3.03516-.71875 1.875-.35938 2.14453-1.34765 2.23437-1.25391 2.5-1.25781 1.69531-.44922 1.78516-.17969 1.16016-.26953.625.53906 1.33984-.26953.71485-.98828.98437-1.34375.44531-.17969.80469-.35937 1.875-.53907 1.78516-.44921 1.25-.26954 1.16015-.08984 1.69922-.08984 1.96094-.26954 1.25-.08984h.53906l.625-.08984h.89063l2.14453-.17969 2.41015-.17969 2.58985-.08984 1.69531.17969 1.60938.08984 1.42968.35938 1.16016.71875 1.875.98828 1.16015 1.52734.26563.71484.6289.08985.35548.89844.53515.53906.53516 1.52734 1.07422.35938h.53515l-.80469.53515.08985 1.70703.71484 2.69532.89063.80468.89453.98829.71484 1.2578 1.78516.53907 1.51953-.17969.35547 1.34375 1.60937-.80469.98047-.53906.26953.26953.31641-.21484.21875-.14453.80078.44922.44922-.35938h.35547l.53515-.26953.53907-.71875.53515-.26953.625-.98828 1.16016.44922.83984.3711 1.39454.61718 1.6953-.17969h1.60548l1.78515.08985.17969-1.70704.53516-1.34375.80468.26954.4922.84765.40233.40625-.08984.53906v.35938l.71485.44922.71093-.26953h1.42969l.35938.98828.4453 1.25781.71485 1.34375 1.25.6289 1.69531.62891.71485-.17969.17969-.53906.98046-.08984.44922.35937.08594 1.25782-.26563.6289-.53515.17969v.53906l.71484.98438.26563.53906.98437.98828.80078 1.07813-.26562.35937-.08985.89844-.625 2.33203-.35546 2.0664-.08985 1.79298-.17969.71875-.08984.53906v1.4375l-.98047 1.88281-.35937 1.70703-.53516.89844-.80469 1.16797-.26562.53906 2.05469 1.2539.08593.35938-.35546.53906-.08985-.17968v.80859l.08985 1.4375-.44532.71484-1.07422.09375-.26562.71485.53515.89844.8047.71875 1.16015.80859 1.33984.26953.44531.35938-.35546.44921-1.78907-.08984-1.25-.44922-.71484-.71875-.625-.08984-.17578 3.58984-.1875 1.3086h89.35937V311.70313h-55.26953v49.08203l.76172.125 3.28906.54296 2.02344 2.83594v2.7539l2.35156.33204 2.34766.33203h4.05078l-1.3789 4.16016-2.02344.70703-2.02344.70312-.54297.34375-2.59375 1.6172-.1875.11718-2.02344-2.07813-.73046-2.74218-2.67188-2.07813-1.375-3.5-.0664-.08203-1.95704-2.67188 2.75-1.41796v-49.08204H294.42187v91.41407l.1172.03125.1328.01172.07422.07421.10547.04688.08985.0586.08593.05859.08985.0586.29687.29687.0586.08984.03125.11719.02734.11719.01563.13671-.03125.1172-.0586.08983-.0586.08594-.04296.10547-.04688.10156-.02734.1211v.14453l.17578.26953.14844.14844.07422.08594.07422.07421.04296.10547.0625.08985.0586.08593.04297.10547.0586.08985.04687.10156.04296.10547.0586.08594.11719.17968.07421.07422.0625.08594.0586.08984.04297.10547.0586.08985.05858.08593.0625.08985.0586.08984.04297.10156.11719.17969.07421.07422.0586.08594.07422.07421.08984.0586.10547.04687h.14844l.1328-.01562.13282.01562.10156-.04687.07422-.07422.04688-.10156-.01563-.13281v-.14844l-.04687-.10547-.02735-.11719-.04687-.10156-.02735-.1211-.04296-.10156-.0625-.08984-.04297-.10156-.04297-.10547-.03125-.11719-.01563-.13281-.01171-.13672.08593-.0586.0586-.08593.12109-.03125.04297.10547.01562.1328v.1172l.0586.10156.0586.08984.08983.0586.14844.14843.0586.08985.04296.10547-.01171.10156.08593.0586.10547.04687.08594.0586.08984.05858.07422.07422-.11719.02735-.10546.04687-.08594.0586-.07422.07421-.0586.08985-.0625.08594-.02734.12109-.04687.10156-.04297.10547-.03125.11719-.01172.13281-.01563.13281v.14844l.02735.11719.04687.10547.04297.10156.0586.08984.07421.07422.08985.0586.07422.07421.08984.0586.0586.08984.04296.10547.04688.10156.11719.03125.1328.01563h.14845l.11718-.03125.10547.04297.04297.10547.04688.10156.02734.1211L299.5 410l.02734.11719.03125.1211.02735.11718.10547.04297.10156.04687.13281-.01562.14844.14844.0625.08593.07422.07422.07031.07422.08984.0625.10547.04297.10156.04297.1172.03125.13671.01562.11719-.03125.07422-.07422.02734-.11718-.01172-.13282-.03125-.12109-.02734-.11719.04297-.10547h.11719l.08984.0625.11719.02735h.14843l.13282.01562h.14843l.13282.01563.1328-.01563h.14845l.1328-.01562.13282-.01172.13672.01172.11719-.02735.13281-.01562.1914-.0586-.05859.17579-.01562.1328-.02735.1211-.01562.13281-.0586.08594-.1328.01563-.10548.04687-.10546.04297-.1172.03125-.11718.02735-.26563.03125h-.14843l-.13281.01562-.07422.07422.05859.08594.14844.14843.11719.1797.07421.0703.08985.0625.08984.0586.08594.0586.08984.05858.10156.04297.10547.0625.10547.04297.08594.0586.10547.04687.10156.04297.17969.11719.0586.08984-.04298.10156-.04687.10547.01562.13281.22266.22266.0586.08985.04296.10156.03125.1211.04297.10155.01563.13282.03125.11718.01171.13672.03125.11719.14844.14844.10156.04297.10547.04296.1172.03125.1328.01563.13672.01563h.11719l.11719-.03125.08984-.0586.04297-.10547.04688-.10156.04296-.10547.03125-.11719.01172-.1328v-.14845l-.01172-.1328-.01562-.13282-.03125-.11719-.04297-.10547-.04688-.10547-.04296-.10156-.04297-.10547-.01563-.13281.01563-.13281.02734-.11719.03125-.11719.02735-.1211.04687-.10155.08984-.0586.08594-.0625.07422-.07422.08984-.05859.22266-.22266.0586-.08593.07421-.07422.11719-.17969.0586-.08594v-.14844l-.07423-.07421-.10156-.04688-.10547-.04297-.10156-.04297-.0586-.08984-.04687-.10547-.02734-.11719.08984-.05859.11719-.03125.10156-.04297.17969-.11719.14844-.14843.01172-.13282-.01172-.10546-.08985-.0586-.1328.01563h-.14845l-.1328.01562-.13282-.01562-.1211-.03125-.08593-.0586-.07422-.07422-.0586-.08984-.0625-.08594-.11718-.17969-.0586-.08593.03125-.1211.08594-.05859.1211-.03125.05859-.08594v-.1211l-.03125-.11718-.0586-.08984-.05859-.08594-.04687-.10547-.02735-.11719-.01562-.1328.0586-.08985.07421-.07422.08984-.0586.1172-.17968.07421-.07422.0586-.08594.14843-.14844.1211-.03125.1328-.01562.13282.01562.07422.07422.04297.10547.01562.13281-.03125.1172-.11719.03124-.1328.01172-.14844.14844-.04297.10547-.04688.10156-.02734.1211-.03125.11718v.14844l.03125.11719.04297.10546.05859.08985.07422.07031.07422.07422.11719.03125.12109.02734.11719-.02734.1328-.01563h.1172l.08984.0586.07422.07422.04687.10546.0586.08594.10156.04688.13281.01562.10547.04297.08594.0586-.01172.10546-.07422.07422-.17969.11719-.05859.08984-.08984.0586-.07032.07422-.07421.07421-.0625.08985-.02735.11719-.01562.1328.01562.13282-.01562.13281v.14844l.01562.13281.02735.1172.03125.12108.07421.07422.08985.0586.08594.0586.08984.05858.11719.03125v.08594l-.10157.04688-.08984.0586-.26563.03124-.11718.02735h-.14844l-.10547.04296-.10156.04688-.0586.08984-.0625.23438-.01171.13281-.03125.1211-.01563.1328v.29298l-.01172.1328.01172.13673.01563.1328.1328.01563.13282.01172.1211.03125.08593.0586.07422.07421.04688.10547.04296.10157.01563.1328v.44532l-.01563.13281v.44532l.03125.26562.02735.11719.01562.13281.03125.11719.08594.21094.03125.26562v.14844l-.03125.11719-.02734.11718-.03125.1211-.02735.11719-.03125.11718-.03125.1211-.01171.1328-.01563.13282.08984.0586.1172-.03125.10155.01562.04688.10547-.03125.26562v.44141l-.04297.10547-.04688.10547-.04296.10156-.04297.10547-.0586.08594-.03125.12109-.04296.11719-.03125.11719-.01563.1328.01563.13282.05859.08984.10547.04688.08594.0586.05859.08593-.01172.13672-.03125.11719-.04297.10156v.44531l-.01562.13281v.14844l-.03125.11719-.04297.10547-.02735.11719-.04687.10546-.04297.10157-.03125.12109-.02734.11719-.03125.13281-.03125.11719-.02735.11719-.04297.10546-.03125.1172-.03125.12108-.01171.13282-.01563.13281v.29688l.02734.11718v.14844l.04688.39844.02734.11719.0586.08984.12109.03125h.14844l.13281-.01563.0586.08985v.11719l-.0586.08984-.08984.0586-.10157.04296-.10546.04688-.08985.05859-.08594.0586-.13671.01562-.1172-.03125-.1328-.01563-.10157.04688-.0625.08594-.01172.13671-.01562.13282-.03125.11719-.02735.11718-.01562.13281-.03125.1211v.29687l.01563.13282.03125.11718v.14844l.01171.13281v.14844l-.02734.11719-.04688.10156-.02734.1211-.03125.11718-.0586.08985-.07421.07421-.10156.04297-.10547.04688-.11719.02734-.1211.03125-.10156-.04687.0586-.08594.10547-.04688.02734-.11718.03125-.11719.02734-.1211.03125-.11718v-.14844l.01563-.13281-.03125-.11719-.04297-.10547-.10547.01563-.07422.07422-.10156.04296-.08984.0625-.07422.07422-.04297.10157-.01563.1328-.03125.1172L304.25 426l-.03125.11719-.02734.11719-.03125.12109-.02735.11719-.03125.11718-.04297.10547-.08984.0586h-.08984l-.1172-.03125-.03124-.08594.01562-.13672-.03125-.11719v-.14844l-.01171-.1328v-.14844l-.0625-.23438-.02735-.1211-.04297-.10156-.04687-.10546-.0586-.08594-.05859-.08985-.04297-.10546-.0625-.08594-.14844-.14844-.0703-.07422-.10548-.04687-.10547-.04297-.10156-.04297-.29687-.29688-.08985-.07421-.08594-.0586-.10546-.04297-.08985-.0625-.08594-.0586-.10546-.04296-.08985-.0586-.08594-.0625-.07421-.0703-.10547-.04688-.08594-.0586-.10547-.04296-.08984-.0625-.10156-.04297-.10547-.04297-.08594-.0586-.10547-.04687-.10547-.04297-.10156-.04687-.08985-.0586-.10156-.04297-.10547-.04296-.08984-.0625-.11719-.02735-.13281-.01562-.13281.01562H299.75l-.13281.01563-.11719-.03125-.08984-.0586-.07422-.07422-.08985-.05859-.10156-.04688h-.14844l-.12109-.02734-.10156-.04297-.07422-.07422-.11719-.17968-.08984-.0586-.10156-.04297-.08985-.0625-.10547-.04296-.08984-.0586-.08594-.0586-.10547-.04687-.0586-.08594-.05858-.08984-.04297-.10547-.04688-.10156-.07422-.07422-.08594-.0586-.07421-.07421-.08985-.0586-.22265-.22265-.04297-.10547-.03125-.26563.10547-.04296h.14453l.10547.04296.07421.07422.08985.0586.08594.0586.10546.04687.08985.05859.14844.14844.0703.07422.14845.14843.0625.08594.07421.07422.08594.0586.07422.07421.08985.0625.08984.0586.08594.05859.26953.17578.10156.04688.10547.04296.10156.04297.04688-.07421.05859-.08594.07422-.07422.07031-.07422.10547.04297.07422.07422.0586.08984.04296.10156.04688.10547.04296.10547.1211.02735.11719-.02735.07421-.08984.04297-.10547.0586-.08985.07422-.07421.10546-.04297.1172-.02735.1328.01172.08985.0586.14844.14843.05859.08985.04297.10547.04687.10156.04297.10547.04297.10156.10547.04688.10547.04296.13281.01563.08594-.0586.0586-.08984.07421-.07422.10547-.04297.11719.02735.10547.04687.10156.04297.10547.04297.10156.04688.17969.11718v.11719l-.01563.13281.01563.13281.01562.13672.0586.08594.10156.04688.1211.02734.11718.03125h.14844l.11719-.03125.05859-.08984.17969-.1172.05859-.08983.07422-.07422.0586-.08594.11718-.17969.17969-.11719.11719.03125.08984.0586.04297.07422-.01563.1328v.1172l.08985.05859h.14843l.13282-.01563.1328-.01171.26563-.03125.10547-.04297.11719-.03125.1211-.02735.07421-.07421.07031-.07422.0625-.08985-.01562-.10547-.04688-.10156-.10156-.04297-.10547-.01562-.11718.02734-.26563.03125h-.14844l-.07421-.07422-.08985-.0586-.11719-.03124-.11718-.02735-.13282-.01562h-.14843l-.13282.01563h-.29687l-.10547-.04688-.14844-.14844-.04297-.10156-.05859-.08984.22266-.22266.08593-.0586.10547-.04296.11719-.03125.13281-.01563.13281.01563.13672.01562.10157.04297.1328-.01172.08985-.0625.10156-.04297.0625-.08984-.04687-.10156-.08984-.0586-.1172-.03125-.10155-.04296-.0586-.08985-.0625-.08984v-.11719l.01563-.13281.10547-.04688.07421-.07031v-.1211l-.08984-.05859-.03125-.11719.08985-.05859.07421-.07422.04297-.10547.0586-.08984.04687-.10156.01563-.13281v-.14844l-.04688-.10547-.04297-.10156-.08984-.0586-.13281-.01562-.10157-.04297-.13671-.01563-.1172-.03125h-.4453l-.13282-.01562-.13281-.01172-.13281-.01563-.11719-.03125h-.14844l-.13281-.01562-.13281-.01172-.26563-.03125-.1211-.04297-.08593-.0586-.07422-.07421v-.14844l.01172-.13281.10547-.04688.10156-.04296.13281-.01563h.15235l.13281-.01562h.29297l.1211.03125.10156.04296.08984.0586.23438.0625.12109-.04688.08984-.05859.10156-.04297.13282-.01562.10547.04296.10156.04688.13281.01172.1211-.02735h.14453l.12109-.03125.11719-.02734.10547-.04687.07421-.07422.08594-.0586.14844-.14843.0586-.08594.04687-.10547.02734-.11719.01563-.10547-.10156-.04296-.08985-.0586-.11719-.03125-.10546-.04297-.08985-.0625-.07422-.08594-.07422-.07421-.10156-.04297-.10547-.04688-.10156-.04297-.0586-.08984-.04687-.10156-.08594-.21094-.0625-.08594-.05859-.08984-.07422-.07422-.08594-.0586h-.26953l-.11719.03126-.08984.05859-.10156.04297-.13281.01562-.10547-.01562-.02735-.11719-.0625-.08984-.11718-.03125-.10157-.04297-.14843-.14844-.03125-.11719-.01563-.10546.07422-.07422.17969-.1172.11719-.02733.11718-.03125.13672.01562.10156.04297.10547.04297.10156.04687.10547.04297.1172.03125.1328.01563.1172.02734.1328.01563.10547-.01563.08985-.0586-.07422-.07421-.10547-.04297-.07422-.07422-.07422-.08984-.14844-.14844-.08593-.0586-.08985-.05859-.07422-.07422-.08984-.0586-.10156-.04687-.1211-.02734-.10156-.04688-.10547-.04296-.11719-.03125-.10156-.04297-.1211-.03125h-.14843l-.11719.03125-.10546.04297-.08594.0625-.17969.11718-.08594.0586-.08984.0586-.10547.04687-.08594.05859-.10547.04297-.10156.04297-.10547.04687-.07422.07422-.05859.08985-.0586.08593-.04687.10547-.0586.08594-.07421.07422-.13281-.01172-.1172-.03125h-.11718l-.07422.07422-.08984.0586-.07422.07421-.08984.0586-.08594.05859-.10547.04687-.10156.04297-.13672.01563-.10156-.04297-.14844-.14844-.10547-.04688h-.08594l-.10547.04688-.10156.04297-.1211.03125-.11718-.03125-.07422-.07422v-.11719l.03125-.1211.07422-.0703.0586-.08985.07421-.07422.11719-.03125.10547-.04296h.29297l.13281-.01563.13672-.01563.10156-.04296.08985-.0586.10156-.04687.08984-.0586.13281-.01171.08985.05859.13281.01172.08984-.0586.08594-.05859.10547-.04297.08984-.0586.08594-.0625.08985-.05859.14843-.14843.0586-.08594.05859-.08985.10547-.04296.13281-.01563.11719.02735.1211.03125.05859-.0586.05859-.08984.03125-.26563.02734-.11719.10547.01172.13281.01563.10157-.04297.08984-.0586.0586-.08984.07421-.07422.0586-.08984.04687-.10156.01172-.13281-.01172-.13282-.04687-.10547-.14844-.14843-.0586-.08985-.05859-.08594-.04297-.10546v-.44532l.01563-.1328v-.14845l.01172-.1328-.0586-.0586-.08984.0586-.10156-.04298-.17969-.11719-.08594-.05859-.0625-.08984-.0586-.08985-.07421-.07421-.08594-.0586-.1211.03125-.10155.01172-.10547.04688-.08594.05859-.10547.04297-.14844.14844-.08984.05859-.08594.0586-.08984.0625-.10547.04296-.13281.01563v-.1211l.10547-.04297.11718-.03125.07422-.0703.04297-.10548v-.14844l-.02734-.11718-.14844-.14844-.13281-.01563h-.14844l-.11719.03125-.10547.04297-.10156.04297-.08984.0625-.11719.02735-.07422-.07422.01172-.13281-.04297-.10157-.04297-.10547-.08984-.05859-.11719.02734-.1211.03125-.11718.03125-.10156.04297-.1211.03125-.10156.04297-.10547.04297-.08984.0586-.10156.01562v-.11719l.01562-.13281-.0586-.08985-.07421.04297-.14844.14844-.0586.08985-.07421.07421-.04688.10547-.04296.10156-.07422.07422-.0586.08985-.07422.07422-.05859.08593-.07422.07422-.08984.0625-.07422.07031-.07422.07422-.10156.01563-.13281.01562-.10547-.04296v-.1211l.14843-.14844.04297-.10156.0586-.08984.04687-.10156.04297-.10547.0586-.08985.03124-.11719.04297-.10156.03125-.1211.02735-.11718.04687-.10547.04297-.10156.04297-.10547.07422-.07031.08984-.0625.08985-.0586.10156-.04296h.29687l.26563-.03125.10547-.04297-.07422-.07422-.11719-.03125-.10547-.04297-.08984-.0586-.10156-.04687-.08985-.0586-.10156-.04296-.10547-.04297-.08984-.0625-.08594-.0586-.10547-.04296-.10156-.04297-.1211-.03125-.11718-.03125-.10157-.04297L297.5 410.25l-.10156-.04297-.08985-.0586-.04296-.10546-.01563-.13281.10156-.04297.13281-.01563.13672.01563.13282-.01563.10156-.04297.0586-.08984.01562-.10547-.08985-.0586-.07421-.07421-.10157-.04297-.08984-.0586-.14844-.14843-.04297-.10547-.01562-.13281v-.29297l-.0586-.08985-.08984-.05859-.07422-.07422-.04297-.10547-.03125-.11718-.0586-.08985-.07421-.07422-.11719-.02734-.07422-.07422-.08984-.0586-.08984-.0625-.08594-.05859-.07422-.07421-.0586-.08594-.04687-.10547-.08594-.0586-.14843-.14843-.19532-.0586-.1328.01563-.10157.04297-.07422.07422-.04688.10156-.04296.10547-.0586.08984-.0586.08594-.29687.29687-.08984.0586h-.08594l-.0625-.08594-.04297-.10547.03125-.11719.0586-.08984.02734-.11719-.01172-.13281-.08984-.0625-.10547.04688-.11719.02734-.11719.03125-.26953.17578-.10156.04688-.11719.02734-.10546.04687-.08985.0586-.10156.04297-.0586-.08594-.04687-.10547.01563-.13281.04687-.10547.07031-.07422.07422-.07031.0586-.08985v-.14843l-.04297-.10547h-.23829l-.10156.04687-.03125.11719-.02734.11719-.03125.1211-.07422.04296-.13281.01563-.07422-.04688-.04297-.10156-.04297-.10547-.04687-.10156-.04297-.10547-.1211.03125-.10156.04297-.13281.01562-.11719.03125-.10547.04297-.08984.0586-.10156.04687-.1211.02734-.13281.01563-.10156-.04297-.0586-.08985-.04687-.10546-.04297-.10157-.04297-.10546v-.1172l.0586-.08984.08593-.05859.17969-.11719.10156-.04687.10547-.04297.10547-.0586.10156-.04296.08985-.0625.10156-.04297.10547-.0586.10156-.04687.08984-.0586.10547-.04296.10156-.04297.08985-.0625.10156-.04297.13672-.01563.11719.03125.10156.04297.1211.03125.10156.04297.10546.04688.10157.04296.10547.04297.10156.04688.10547.04297.10156.04297.10547.04687.08594.0586.10546.04296.1172.03125.10546.04297.10156.04688.08985.0586.10547.04296.10156.04297.10547.04687.11719.02735.10156.04687.1211.02735h.14843l.08594-.0586.01562-.10156.0586-.08984-.02735-.1172-.07422-.07421-.11719-.17969-.07421-.07422-.08985-.07421-.17969-.1172-.08593-.05859-.10547-.04296-.10156-.04688-.26954-.17578-.05859-.08985-.07422-.07421-.0586-.08985-.04296-.10156-.03125-.11719-.01563-.13672v-.5625l-.01171-.1328-.01563-.13282-.03125-.11719-.01562-.13281-.01172-.13281-.03125-.1211-.22266-.22265-.0586-.08594-.01562-.10547.03125-.11719.13281-.01562v-91.41406H172.9922v1.45312l-.0586.23438-.35156 1.05078-.17187.52343-.1172.34766-.17577.41016-.11719.17187-.23438.29297-.23046.0586h-.35157l-.11718.05859-.23047.40625v.29297l.11719.17578.23046.23047.1172.23437.64062.75781.29297.46485.17578.23437.23047.35156.23437.34766.64063.8164.17578.46485.17187.41016.11719.69531.17578.46875.11719 1.39844.0586.46484v.875l.11718 1.04688v4.78125l-.0586.46484-.35156 1.28125-.17578.52344-.11328.41015-.35156.9297L172.93359 336l-.23437.58203-.11719.17578-.17187.34766-.17578.40625-.35157.8164-.0586.29297-.11327.29297-.11719.28906-.0586.17579-.11718.875-.0586.40625-.05859.11718-.0586.17579-.05859.17187-.23047.52734-.11718.17188v.23437l-.11719.23438-.0586.17187-.17577.58594v.28906l-.0586.17579v.29296l-.0586.11329-.05859.52734v.17187l-.05468.23438v2.6211l-.17578.8164-.1172.17578-.17577.23438-.1172.17187-.11327.23438-.58594.93359-.23047.28906-.29297.46485-.17578.23437-.28906.35156-.35156.69922-.11328.23047-.17579.41016-.17578.23046-.40625.52735-.8164.69922-.29297.17187-.28906.23438-.17579.11719-.17578.17578-.52344.40625-.52734.17578-.17187.17578-.23438.05469-.64062.17578h-.75782m12.21094 31.02344l-1.07422.44921.35938.89454 1.25-.71485.44531-.53906-.98047-.08985"/><path fill="#d3d3d3" fill-opacity="0" fill-rule="evenodd" d="M201.50781 416.59766h-.89453l.44922.6289.98047.35938.80469-.08985.4453-.98828-.17577.08985-.71485-.35547-.89453.35547m154.6211 59.0703l-.0586-.52343v-.29297l.11328-.29297.0586-.23046.46875-.46875h.11328l.11719-.11329.11718-.05859h.17579l.23437-.0586h.34766l.23437.0586.11719.0586.23047.17187.0586.17578.11718.58203v.29297l-.11719.17578-.17187.28906-.17579.17579-.52734.52343-.23047.23438-.11719.0586h-.17578l-.11718-.0586-.40625-.29297-.17579-.11719-.11718-.0586-.0586-.11327-.05468-.1172m6.64062-10.95702l-.0586-.17188v-1.10937l.0586-.17188.17578-.0586.17188-.05858h.17578l.23437-.0586.1172.0586.05858.69921-.05859.17188-.11719.17578-.11718.0586-.23438.52343-.11328.0586h-.23438l-.05859-.1172m9.61328-14.39062l-.11719-.17578v-.69922l.29297-.875.1172-.17187.17577-.35156.11328-.23047.1172-.29297.35155-.75781.1172-.23047.17187-.23438h.17578l.11719-.0586h.64062l.11719.0586.23437.23438.17188.11328.35156.29297.11719.11718.11328.17579v.11328l.11719.05859.11718.11719v.69922l-.05859.17578v.23047l-.0586.17578-.34765 1.05078-.11719.23047-.11719.23437-.11718.0586-.23047.23437-.64063.28906h-.875l-.41015-.11718-.64063-.46485"/><path fill="none" stroke="#bebebe" stroke-linecap="round" stroke-linejoin="round" stroke-miterlimit="10" stroke-width=".5" d="M467.95703 311.69531H144.02734v168.625h323.9297v-168.625"/><g clip-path="url(#a)"><path fill="#fff" fill-opacity="0" fill-rule="evenodd" d="M144 475.89063v4.25-168.46875h.0039H144v164.21875"/></g><g clip-path="url(#b)"><path fill="#50fcfc" fill-rule="evenodd" d="M144.0039 480.32813v-.1797l.08204.1797h-.08203"/></g><g clip-path="url(#c)"><path fill="#fff" fill-opacity="0" fill-rule="evenodd" d="M144.0039 480.14844V311.67188h88.76173v105.6289l-3.35157.89063-1.08594.60937-4.4375.78125-4.4375-.4336-4.4375-.46874-2.40625 3.94922-2.03515 3.74218-4.4375.66016-4.4375-2.82031-3.17188-1.58203-1.26562-.33985-1.16016.33985-3.28125.46093-4.4375 2.31641-3.71484 1.66406-.72266.20313-4.4375 1.07812-3.88672 3.15625-.55468.35547-4.4375 1.16406-3.27735 2.91797-1.16015.4336-4.4375.76171-3.63672 3.2422-.80078 4.27734-.1172.16015-3.08593 4.4414-1.23828 3.01563-2.16016 1.42188 1.5625 4.4375.59766.6289 1.10938 3.8086 3.33203 2.52734 4.4375 1.08594 4.4375-.6875 4.4375.22266 4.4375-.50782 4.4414-.40625 4.4375-.80078 2.04688-1.4336 2.39062-.85937 4.4375-.33203 4.4414-1.02344 4.4375-.37109 4.4375-.54687 3.4375-1.3047 1-.18358 4.44142-.1172 4.4375-1.54687 4.4375-.36719 4.4375-1.41015 1.22265-.8125 3.21484-2.42188 3.4375-2.01562 1.00391-.98828 4.4375-3.03125.36328-.42188 4.07422-1.04297 3.375-3.39453 1.0625-4.28515 4.4375.33593 4.4414 1.82813 2.2422-2.3164-2.2422-3.42188-4.4414 1.64453-4.4375 1.14062-.65234.63672-3.78516.26953-.58594-.26953-3.85156-3.76172-2.4414-.67578-1.9961-3.10937-.57812-1.32813-1.8125-4.4414 1.07812-4.4375-3.1289-.89063v-105.6289h35.5078v117.05859l-3.125 2.77734 3.125 2.33594 3.27735-2.33594-3.27734-2.77734v-117.0586h13.3164V432.75l-1.7578 3.19531 1.7578 1.58594 2.03907-1.58594-2.03907-3.19531V311.67187h93.20313v134.3672l-3.1211 3.22265 3.1211 3.57812 3.0625-3.57812-3.0625-3.22266V311.67187h22.1914V453.375l-.55859.32422-3.8789 2.85547-4.4375-.60547-4.4375 1.90625-.36329.28125-3.21875 4.4375 1.35938 4.4414 2.22265 3.07813v5.5l-.12109.29688.1211.11718.62109-.11719-.6211-.29687v-5.5l4.4375.51172 3.08204-3.58985 1.35546-3.22265 1.14844-1.21875.09766-4.4375 3.1914-4.03125.26172-.40625-.26171-.32422V311.67187h53.26171v146.23829l-.28125.22656.28125.72265.21485-.72265-.21485-.22656V311.67187h17.75v168.65625h-7.67187l-1.19922-.8164-1.83984.8164h-21.44141l-3.35156-3.36718-3.29688 3.36719H144.08594l-.08203-.1797"/></g><path fill="#50fcfc" fill-rule="evenodd" d="M152.27734 458.13672l-1.5625-4.4375 2.16016-1.42188 1.23828-3.01562 3.08594-4.4414.11719-.16016.80078-4.27735 3.63672-3.24219 4.4375-.76171 1.16015-.4336 3.27735-2.91797 4.4375-1.16406.55468-.35547 3.88672-3.15625 4.4375-1.07812.72266-.20313 3.71484-1.66406 4.4375-2.3164v3.1875l-1.2539.79296-3.1836 2.14844-4.4375.90234-4.4375.67579-.875.71093-3.5664 2.29688-4.4375 1.67969-.51563.46093-3.92187 1.47266-4.4375 1.54687-1.58985 1.41797-2.29687 4.4375-.4336 4.4414-.11718 1.20704-1.4961 3.23047.3164 4.4375 1.1797 2.2461.89453 2.1914 3.54297 2.07422 4.4375-1.98438 4.4375.8711 3.4375-.96094 1-.15235 4.4414-.60937 4.4375-.7539 4.4375-1.89063 4.4375.01172 2.38672-1.04297 2.05469-.92578 4.4375-.52344 4.4375-.38281 4.4375-.78516 4.4414-.98828 1.44532-.83203 2.99219-2.34375 4.4375-.1875 4.42968-1.90625-4.42969-2.23047-1.95703-2.21094-2.48047-2.60156-2.2578-1.83594-1.625-4.4375-.5547-.86719-4.4414-1.5039-4.4375-1.73828-.40234-.32813-4.03516-2.125-4.4375-.98437-2.92188-1.32813-1.51953-.79297v-3.1875l3.28125-.46093 1.16016-.33985 1.26562.33985 3.17188 1.58203 4.4375 2.82031 4.4375-.66016 2.03516-3.74218 2.40625-3.94922 4.4375.46875v5.30078l-2.32422 2.6211 2.32422 2.39452 4.4375.08204v5.91015l-.73438.48828.73438.42188 4.4375 3.6914.36718-4.11328-.36719-.39453-4.4375-.09375v-5.91015l2.25782 1.96093 2.17969 1.4414 2.78906 2.9961 1.64844 1.64453v2.42188l-4.1172.3711 4.1172 1.11327.96484-1.11328-.96484-.3711v-2.42187l4.4414.8086 1.22266 1.98437 3.21484 2.44531 4.4375-1.11328 1.32422-1.33203-1.32422-1.63672-4.4375-1.89453-1.5664-.90625-2.8711-1.6875-4.4414-2.21094-.64063-.53906-3.79688-2.71094-1.45312-1.72656-2.98438-2.35547-4.4375-.26562v-5.30078l4.4375.4336 4.4375-.78126 1.08594-.60937 3.35156-.89063 3.12891.89063-1.07812 4.4375 1.8125 4.4414.57812 1.32813 1.9961 3.10937 2.4414.67578 3.85156 3.76172.58594.26953 3.78516-.26953.65234-.63672 4.4375-1.14062 4.4414-1.64453 2.2422 3.42187-2.2422 2.3164-4.4414-1.82812-4.4375-.33593-1.0625 4.28515-3.375 3.39453-4.07422 1.04297-.36328.42188-4.4375 3.03125-1.0039.98828-3.4375 2.01562-3.21485 2.42188-1.22266.8125-4.4375 1.41015-4.4375.3672-4.4375 1.54687-4.4414.11719-1 .18359-3.4375 1.30469-4.4375.54687-4.4375.3711-4.4414 1.02343-4.4375.33203-2.39063.85938-2.04688 1.4336-4.4375.80077-4.4414.40625-4.4375.50782-4.4375-.22266-4.4375.6875-4.4375-1.08594-3.33203-2.52734-1.10938-3.8086-.59766-.6289"/><path fill="#00e8fc" fill-rule="evenodd" d="M156.13672 458.13672l-.3164-4.4375 1.49609-3.23047.11718-1.20703.4336-4.4414 2.29687-4.4375 1.58985-1.41798 4.4375-1.54687 3.92187-1.47266.51563-.46094 4.4375-1.67968 3.5664-2.29688.875-.71094 4.4375-.67578 4.4375-.90234 3.1836-2.14844 1.2539-.79297v7.3047l-2.92187 2.36327-1.51563 1.98438-4.4375 1.54687-3.66406-3.53125-.77344-.42969-.92187.4297-3.51953 2.40234-4.4375 1.15234-4.4375-.35547-2.54688 1.23828-1.89062.64063-2.95313 3.79687-.13672 4.4414-.36719 4.4375.21094 4.4375 3.2461 4.07423 4.4375-1.25 4.4375.11719 4.4375-.64063 4.4414-1.70703 2.3086-.59375 2.1289-1.07422 4.4375-2.61719 4.4375-.6211 1.03906-.125 3.40235-2.78515.67969-1.65234 3.7578-4.29297 3.47657 4.29297.96094.63281 1.3164-.63281-1.3164-1.0664-4.26953-3.375-.16797-.13282-2.3711-4.30469 1.79688-4.4375-3.86328-.85156-4.4414-1.51172v-7.30469l1.51952.79297 2.92188 1.32813 4.4375.98437 4.03516 2.125.40234.32813 4.4375 1.73828 4.4414 1.5039.5547.8672 1.625 4.4375 2.2578 1.83593 2.48047 2.60156 1.95703 2.21094 4.4297 2.23047-4.4297 1.90625-4.4375.1875-2.99218 2.34375-1.44531.83203-4.44141.98828-4.4375.78516-4.4375.38281-4.4375.52344-2.05469.92578-2.38672 1.04297-4.4375-.01172-4.4375 1.89062-4.4375.75391-4.4414.60938-1 .15234-3.4375.96094-4.4375-.8711-4.4375 1.98438-3.54297-2.07422-.89453-2.1914-1.1797-2.2461"/><path fill="#00d4fc" fill-rule="evenodd" d="M158.50781 458.13672l-.21094-4.4375.3672-4.4375.13671-4.4414 2.95313-3.79688 1.89062-.64063 2.54688-1.23828v2.89844l-4.4375.1836-2.01953 2.59374.16015 4.4414-.26953 4.4375.38672 4.4375 1.74219 2.1836 4.4375-1.0039 4.4375-.26954 4.4375-.59375.73437-.3164-.73437-1.59375-.84766-2.84375-.66797-4.4375-1.84766-4.4414-1.07421-.96485-4.4375-1.8125v-2.89844l4.4375.35547 4.4375-1.15234 3.51953-2.40235.92187-.42969.77344.4297 3.66406 3.53124 4.4375-1.54687 1.51563-1.98438 2.92187-2.36328 4.4414 1.51172v8.63281l-1.28905 1.09375 1.28906 2.8164 3.9961-2.8164-3.9961-1.09375v-8.63281l3.86328.85156-1.79688 4.4375 2.3711 4.30469.16797.13281 4.26953 3.375 1.3164 1.0664-1.3164.63282-.96094-.63281-3.47656-4.29297-3.75781 4.29297-.6797 1.65234-3.40233 2.78516-1.03907.125-4.4375.6211-4.4375 2.61718-2.1289 1.07422-2.3086.59375-4.4414 1.70703-4.4375.64063-4.4375-.1172-4.4375 1.25-3.2461-4.07421"/><path fill="#00c4fc" fill-rule="evenodd" d="M160.01172 458.13672l-.38672-4.4375.26953-4.4375-.16016-4.4414 2.01954-2.59376v1.19922l-1.08594 1.39453.45703 4.4414-.17578 4.4375.57031 4.4375.23438.29298 1.5703-.29297 1.82032-4.4375-1.17969-4.4375.83985-4.4414-3.05078-1.39454v-1.19922l4.4375-.1836 4.4375 1.8125v8.875l-2.3125.96876 2.3125 1.19531.60937-1.19531-.60937-.96875v-8.875l1.07422.96484 1.84765 4.4414.66797 4.4375.84766 2.84376.73437 1.59375-.73437.3164-4.4375.59375-4.4375.26954-4.4375 1.0039-1.7422-2.1836"/><path fill="#00b8fc" fill-rule="evenodd" d="M161.125 449.26172l-.45703-4.4414 1.08594-1.39454v1.20313l-.15235.1914.15235 1.09766.42187-1.09766-.42187-.1914v-1.20313l3.05078 1.39453-.83985 4.4414 1.1797 4.4375-1.82032 4.4375-1.57031.29298-.23438-.29297-.57031-4.4375.17578-4.4375"/><path fill="#00a8fc" fill-rule="evenodd" d="M161.7539 445.91797l-.15234-1.09766.15235-.1914.42187.1914-.42187 1.09766"/><path fill="#00b8fc" fill-rule="evenodd" d="M170.6289 454.89453l-2.3125-1.19531 2.3125-.96875.60938.96875-.60937 1.19531"/><path fill="#00e8fc" fill-rule="evenodd" d="M197.26172 443.72656l-1.28906 1.09375 1.28906 2.8164 3.9961-2.8164-3.9961-1.09375m22.1914-14.26172l-2.32421-2.39453 2.32422-2.6211 4.4375.26563 2.98437 2.35547 1.45313 1.72656 3.79687 2.71094.64063.53906 4.4414 2.21094 2.8711 1.6875 1.5664.90625 4.4375 1.89453 1.32422 1.63672-1.32422 1.33203-4.4375 1.11329-3.21484-2.44532-1.22266-1.98437-4.4414-.8086-1.64844-1.64453-2.78906-2.9961-2.1797-1.4414-2.2578-1.96094-4.4375-.08203"/><path fill="#fff" fill-opacity="0" fill-rule="evenodd" d="M223.89063 435.45703l-.73438.48828.73438.42188 4.4375 3.6914.36718-4.11328-.36719-.39453-4.4375-.09375m8.875 4.55469l-4.11718.3711 4.11719 1.11327.96484-1.11328-.96484-.3711"/><path fill="#50fcfc" fill-rule="evenodd" d="M268.27344 433.84375l-3.125-2.33594 3.125-2.77734 3.27734 2.77734-3.27734 2.33594m13.3164 3.6875l-1.7578-1.58594 1.7578-3.19531 2.03907 3.19531-2.03907 1.58594m93.20313 15.3086l-3.1211-3.57813 3.1211-3.22266v2.44922l-.75.77344.75.85937.73828-.85937-.73828-.77344v-2.44922l3.0625 3.22266-3.0625 3.57812"/><path fill="#00e8fc" fill-rule="evenodd" d="M374.79297 450.1211l-.75-.85938.75-.77344.73828.77344-.73828.85937"/><path fill="#50fcfc" fill-rule="evenodd" d="M381.44922 467.01563l-1.35938-4.44141 3.21875-4.4375.36329-.28125 4.4375-1.90625v2.60937l-4.4375 1.26954-2.1797 2.74609 2.1797 3.46875 4.09375.97265.34375.125.10937-.125 3.66016-4.4414-3.76954-4.01563v-2.60937l4.4375.60547 3.87891-2.85547.5586-.32422.26171.32422-.26171.40625-3.19141 4.03125-.09766 4.4375-1.14844 1.21875-1.35546 3.22265-3.08204 3.58985-4.4375-.51172-2.22265-3.07813"/><path fill="#00e8fc" fill-rule="evenodd" d="M383.67188 466.04297l-2.1797-3.46875 2.1797-2.7461 4.4375-1.26953v1.4336l-4.28125 2.58203 4.28125 2.8789 2.42578-2.8789-2.42579-2.58203v-1.4336l3.76954 4.01563-3.66016 4.4414-.10938.125-.34375-.125-4.09375-.97265"/><path fill="#50fcfc" fill-rule="evenodd" d="M383.67188 476.00781l-.1211-.11719.1211-.29687.62109.29688-.6211.11718"/><path fill="#00d4fc" fill-rule="evenodd" d="M388.10938 465.45313l-4.28125-2.87891 4.28125-2.58203v1.42969l-1.90625 1.15234 1.90625 1.28515 1.08203-1.28515-1.08204-1.15235v-1.42968l2.42579 2.58203-2.42579 2.8789"/><path fill="#00c4fc" fill-rule="evenodd" d="M388.10938 463.85938l-1.90625-1.28516 1.90625-1.15235 1.08203 1.15235-1.08204 1.28515"/><g clip-path="url(#d)"><path fill="#50fcfc" fill-rule="evenodd" d="M429.19531 480.32813h1.71094l1.58594-1.6172 1.61328 1.6172h1.73828l-3.35156-3.3672-3.29688 3.3672"/></g><g clip-path="url(#e)"><path fill="#00e8fc" fill-rule="evenodd" d="M430.90625 480.32813l1.58594-1.6172 1.61328 1.6172h-3.19922"/></g><path fill="#50fcfc" fill-rule="evenodd" d="M450.2461 458.85938l-.28126-.72266.28125-.22656.21485.22656-.21485.72265"/><g clip-path="url(#f)"><path fill="#50fcfc" fill-rule="evenodd" d="M457.28516 480.32813l1.83984-.81641 1.19922.8164h-3.03906"/></g><g clip-path="url(#g)"><path fill="#fff" fill-opacity="0" fill-rule="evenodd" d="M467.9961 480.32813H468V311.67188h-.0039H468v168.65625h-.0039"/></g><path fill="#fff" fill-opacity="0" fill-rule="evenodd" d="M233.4336 433.55469l4.69921 3.46484 5.91016-8.01562-4.70313-3.46485-5.90625 8.01563"/><path fill-rule="evenodd" d="M241.07031 429.08984l.41016.30079-3.73438 5.0664-.6328-.46484 2.66405-3.61328-1.11718-.82422.32812-.44922.48828.28125.23438.10547.23828.0625.25.00781.26172-.0664.28906-.15235.32031-.2539"/><path fill="#fff" fill-opacity="0" fill-rule="evenodd" d="M158.10938 471.10938l5.83593.25.42969-9.94922-5.83594-.25391-.42969 9.95313"/><path fill-rule="evenodd" d="M161.95313 463.14063l.51171.01953-.27343 6.28906-.78516-.03125.1914-4.48828-1.38671-.0586.02344-.55468.5625-.04297.2539-.04297.23438-.07813.21093-.1328.1836-.20313.15234-.28516.1211-.39063"/><g clip-path="url(#h)"><path fill="none" stroke="#000" stroke-linecap="round" stroke-linejoin="round" stroke-miterlimit="10" stroke-width=".5" d="M147.51172 480.28125l-7.02344.09375"/></g><g clip-path="url(#i)"><path fill="none" stroke="#000" stroke-linecap="round" stroke-linejoin="round" stroke-miterlimit="10" stroke-width=".5" d="M147.51172 480.28125l1.1836 2.15234"/></g><g clip-path="url(#j)"><path fill="none" stroke="#000" stroke-linecap="round" stroke-linejoin="round" stroke-miterlimit="10" stroke-width=".5" d="M146.49219 480.29688l.58984 1.07421"/></g><g clip-path="url(#k)"><path fill="none" stroke="#000" stroke-linecap="round" stroke-linejoin="round" stroke-miterlimit="10" stroke-width=".5" d="M160.82813 480.21484l-7.02344.22657"/></g><g clip-path="url(#l)"><path fill="none" stroke="#000" stroke-linecap="round" stroke-linejoin="round" stroke-miterlimit="10" stroke-width=".5" d="M160.82813 480.21484l1.21875 2.12891"/></g><g clip-path="url(#m)"><path fill="none" stroke="#000" stroke-linecap="round" stroke-linejoin="round" stroke-miterlimit="10" stroke-width=".5" d="M159.80469 480.25l.60937 1.0625"/></g><g clip-path="url(#n)"><path fill="none" stroke="#000" stroke-linecap="round" stroke-linejoin="round" stroke-miterlimit="10" stroke-width=".5" d="M174.14453 480.33984l-7.02734-.01953"/></g><g clip-path="url(#o)"><path fill="none" stroke="#000" stroke-linecap="round" stroke-linejoin="round" stroke-miterlimit="10" stroke-width=".5" d="M174.14453 480.33984l1.14453 2.16797"/></g><g clip-path="url(#p)"><path fill="none" stroke="#000" stroke-linecap="round" stroke-linejoin="round" stroke-miterlimit="10" stroke-width=".5" d="M173.1211 480.33594l.57421 1.08594"/></g><g clip-path="url(#q)"><path fill="none" stroke="#000" stroke-linecap="round" stroke-linejoin="round" stroke-miterlimit="10" stroke-width=".5" d="M187.45703 480.27344l-7.02344.10937"/></g><g clip-path="url(#r)"><path fill="none" stroke="#000" stroke-linecap="round" stroke-linejoin="round" stroke-miterlimit="10" stroke-width=".5" d="M187.45703 480.27344l1.1875 2.14844"/></g><g clip-path="url(#s)"><path fill="none" stroke="#000" stroke-linecap="round" stroke-linejoin="round" stroke-miterlimit="10" stroke-width=".5" d="M186.4375 480.28906l.58984 1.07422"/></g><g clip-path="url(#t)"><path fill="none" stroke="#000" stroke-linecap="round" stroke-linejoin="round" stroke-miterlimit="10" stroke-width=".5" d="M200.76953 480.17969l-7.01953.29687"/></g><g clip-path="url(#u)"><path fill="none" stroke="#000" stroke-linecap="round" stroke-linejoin="round" stroke-miterlimit="10" stroke-width=".5" d="M200.76953 480.17969l1.24219 2.11719"/></g><g clip-path="url(#v)"><path fill="none" stroke="#000" stroke-linecap="round" stroke-linejoin="round" stroke-miterlimit="10" stroke-width=".5" d="M199.75 480.22266l.6211 1.05859"/></g><g clip-path="url(#w)"><path fill="none" stroke="#000" stroke-linecap="round" stroke-linejoin="round" stroke-miterlimit="10" stroke-width=".5" d="M214.08203 480.53125l-7.01562-.40625"/></g><g clip-path="url(#x)"><path fill="none" stroke="#000" stroke-linecap="round" stroke-linejoin="round" stroke-miterlimit="10" stroke-width=".5" d="M214.08203 480.53125l1.02734 2.23047"/></g><g clip-path="url(#y)"><path fill="none" stroke="#000" stroke-linecap="round" stroke-linejoin="round" stroke-miterlimit="10" stroke-width=".5" d="M213.0625 480.47266l.51172 1.11328"/></g><g clip-path="url(#z)"><path fill="none" stroke="#000" stroke-linecap="round" stroke-linejoin="round" stroke-miterlimit="10" stroke-width=".5" d="M227.39063 480.64063l-7-.625"/></g><g clip-path="url(#A)"><path fill="none" stroke="#000" stroke-linecap="round" stroke-linejoin="round" stroke-miterlimit="10" stroke-width=".5" d="M227.39063 480.64063l.95312 2.26171"/></g><g clip-path="url(#B)"><path fill="none" stroke="#000" stroke-linecap="round" stroke-linejoin="round" stroke-miterlimit="10" stroke-width=".5" d="M226.3711 480.55078l.47656 1.1289"/></g><g clip-path="url(#C)"><path fill="none" stroke="#000" stroke-linecap="round" stroke-linejoin="round" stroke-miterlimit="10" stroke-width=".5" d="M240.71094 480.5625l-7.01172-.46875"/></g><g clip-path="url(#D)"><path fill="none" stroke="#000" stroke-linecap="round" stroke-linejoin="round" stroke-miterlimit="10" stroke-width=".5" d="M240.71094 480.5625l1.0039 2.23828"/></g><g clip-path="url(#E)"><path fill="none" stroke="#000" stroke-linecap="round" stroke-linejoin="round" stroke-miterlimit="10" stroke-width=".5" d="M239.6914 480.4961l.50391 1.11718"/></g><g clip-path="url(#F)"><path fill="none" stroke="#000" stroke-linecap="round" stroke-linejoin="round" stroke-miterlimit="10" stroke-width=".5" d="M254.03516 480.32813h-7.02735"/></g><g clip-path="url(#G)"><path fill="none" stroke="#000" stroke-linecap="round" stroke-linejoin="round" stroke-miterlimit="10" stroke-width=".5" d="M254.03516 480.32813l1.15234 2.16796"/></g><g clip-path="url(#H)"><path fill="none" stroke="#000" stroke-linecap="round" stroke-linejoin="round" stroke-miterlimit="10" stroke-width=".5" d="M267.32422 479.92578l-6.98047.80469"/></g><g clip-path="url(#I)"><path fill="none" stroke="#000" stroke-linecap="round" stroke-linejoin="round" stroke-miterlimit="10" stroke-width=".5" d="M267.32422 479.92578l1.39453 2.01953"/></g><g clip-path="url(#J)"><path fill="none" stroke="#000" stroke-linecap="round" stroke-linejoin="round" stroke-miterlimit="10" stroke-width=".5" d="M280.65625 480.08984l-7.01172.47657"/></g><g clip-path="url(#K)"><path fill="none" stroke="#000" stroke-linecap="round" stroke-linejoin="round" stroke-miterlimit="10" stroke-width=".5" d="M280.65625 480.08984l1.29688 2.08203"/></g><g clip-path="url(#L)"><path fill="none" stroke="#000" stroke-linecap="round" stroke-linejoin="round" stroke-miterlimit="10" stroke-width=".5" d="M293.96484 479.9961l-6.99609.66796"/></g><g clip-path="url(#M)"><path fill="none" stroke="#000" stroke-linecap="round" stroke-linejoin="round" stroke-miterlimit="10" stroke-width=".5" d="M293.96484 479.9961l1.35157 2.04687"/></g><g clip-path="url(#N)"><path fill="none" stroke="#000" stroke-linecap="round" stroke-linejoin="round" stroke-miterlimit="10" stroke-width=".5" d="M307.27734 479.98438l-6.99218.6875"/></g><g clip-path="url(#O)"><path fill="none" stroke="#000" stroke-linecap="round" stroke-linejoin="round" stroke-miterlimit="10" stroke-width=".5" d="M306.26172 480.08594l.67578 1.01953"/></g><g clip-path="url(#P)"><path fill="none" stroke="#000" stroke-linecap="round" stroke-linejoin="round" stroke-miterlimit="10" stroke-width=".5" d="M320.59766 480.60547l-7.00391-.55469"/></g><g clip-path="url(#Q)"><path fill="none" stroke="#000" stroke-linecap="round" stroke-linejoin="round" stroke-miterlimit="10" stroke-width=".5" d="M319.57813 480.52734l.48828 1.125"/></g><g clip-path="url(#R)"><path fill="none" stroke="#000" stroke-linecap="round" stroke-linejoin="round" stroke-miterlimit="10" stroke-width=".5" d="M333.92188 480.25781l-7.02344.14453"/></g><g clip-path="url(#S)"><path fill="none" stroke="#000" stroke-linecap="round" stroke-linejoin="round" stroke-miterlimit="10" stroke-width=".5" d="M332.90234 480.27734l.59766 1.07032"/></g><g clip-path="url(#T)"><path fill="none" stroke="#000" stroke-linecap="round" stroke-linejoin="round" stroke-miterlimit="10" stroke-width=".5" d="M347.17188 479.64453l-6.89063 1.36719"/></g><g clip-path="url(#U)"><path fill="none" stroke="#000" stroke-linecap="round" stroke-linejoin="round" stroke-miterlimit="10" stroke-width=".5" d="M346.16797 479.84375l.77734.95313"/></g><g clip-path="url(#V)"><path fill="none" stroke="#000" stroke-linecap="round" stroke-linejoin="round" stroke-miterlimit="10" stroke-width=".5" d="M360.0625 478.53516l-6.04297 3.58593"/></g><path fill="none" stroke="#000" stroke-linecap="round" stroke-linejoin="round" stroke-miterlimit="10" stroke-width=".5" d="M359.1836 479.0586l1.04687.63671"/><g clip-path="url(#W)"><path fill="none" stroke="#000" stroke-linecap="round" stroke-linejoin="round" stroke-miterlimit="10" stroke-width=".5" d="M372.4336 477.4961l-4.15626 5.66406"/></g><g clip-path="url(#X)"><path fill="none" stroke="#000" stroke-linecap="round" stroke-linejoin="round" stroke-miterlimit="10" stroke-width=".5" d="M383.85547 476.82031l-.3711 7.01563"/></g><g clip-path="url(#Y)"><path fill="none" stroke="#000" stroke-linecap="round" stroke-linejoin="round" stroke-miterlimit="10" stroke-width=".5" d="M396.71875 476.82422l.53516 7.00781"/></g><g clip-path="url(#Z)"><path fill="none" stroke="#000" stroke-linecap="round" stroke-linejoin="round" stroke-miterlimit="10" stroke-width=".5" d="M411.32422 480.32813l-.01953-.19922-.0586-.19141-.09375-.17578-.46093-.3789-.19141-.0586-.19922-.01953-.19922.01953-.1914.0586-.45704.3789-.09765.17578-.0586.1914-.01953.19923.01954.19921.05859.19141.09765.17969.45704.375.1914.0586.19922.01952.19922-.01953.1914-.0586.46094-.375.09375-.17968.0586-.1914.01953-.19922"/></g><g clip-path="url(#aa)"><path fill="none" stroke="#000" stroke-linecap="round" stroke-linejoin="round" stroke-miterlimit="10" stroke-width=".5" d="M427.08594 479.78516l-6.9414 1.08593"/></g><g clip-path="url(#ab)"><path fill="none" stroke="#000" stroke-linecap="round" stroke-linejoin="round" stroke-miterlimit="10" stroke-width=".5" d="M426.07813 479.94531l.73437.98047"/></g><g clip-path="url(#ac)"><path fill="none" stroke="#000" stroke-linecap="round" stroke-linejoin="round" stroke-miterlimit="10" stroke-width=".5" d="M440.44531 480.34375l-7.02734-.03125"/></g><g clip-path="url(#ad)"><path fill="none" stroke="#000" stroke-linecap="round" stroke-linejoin="round" stroke-miterlimit="10" stroke-width=".5" d="M439.42188 480.33984l.5703 1.08594"/></g><g clip-path="url(#ae)"><path fill="none" stroke="#000" stroke-linecap="round" stroke-linejoin="round" stroke-miterlimit="10" stroke-width=".5" d="M453.71875 480.86328l-6.94531-1.0664"/></g><g clip-path="url(#af)"><path fill="none" stroke="#000" stroke-linecap="round" stroke-linejoin="round" stroke-miterlimit="10" stroke-width=".5" d="M453.71875 480.86328l.8086 2.3164"/></g><g clip-path="url(#ag)"><path fill="none" stroke="#000" stroke-linecap="round" stroke-linejoin="round" stroke-miterlimit="10" stroke-width=".5" d="M467.07031 480.48047l-7.01953-.30078"/></g><g clip-path="url(#ah)"><path fill="none" stroke="#000" stroke-linecap="round" stroke-linejoin="round" stroke-miterlimit="10" stroke-width=".5" d="M466.05078 480.4336l.52735 1.10937"/></g><g clip-path="url(#ai)"><path fill="none" stroke="#000" stroke-linecap="round" stroke-linejoin="round" stroke-miterlimit="10" stroke-width=".5" d="M147.51172 467.04297l-7.02344-.0586"/></g><path fill="none" stroke="#000" stroke-linecap="round" stroke-linejoin="round" stroke-miterlimit="10" stroke-width=".5" d="M147.51172 467.04297l1.13672 2.17578m-2.15625-2.1836l.5664 1.08594m13.76953-1.17968l-7.02734.14453m7.02734-.14453l1.19532 2.14062m12.11719-2.17187l-7.02344.20703m7.02344-.20703l1.21484 2.1328m12.09375-2.3125l-7.00781.56642m7.0078-.56641l1.32032 2.0664m11.95703-2.35156l-6.9336 1.13672m6.9336-1.13672l1.48828 1.94922m11.77344-2.20703l-6.82812 1.65234m6.82812-1.65234l1.63281 1.83203m-2.625-1.59375l.81641.91797m13.46484-1.26953l-6.77343 1.8789m6.77343-1.8789l1.6875 1.78125m-2.67187-1.50781l.84375.89062m13.3711-1.41797l-6.60548 2.38672m6.60547-2.38672l1.82031 1.64453m-2.78125-1.29687l.91016.82031m13.38672-1.11719l-6.64453 2.28516m6.64453-2.28516l1.79297 1.67578m-2.76172-1.34375l.89844.83985m13.42578-1.04688l-6.72656 2.03516m6.72656-2.03516l1.73047 1.73828m11.42578-2.16015l-6.41016 2.8789m6.41016-2.8789l1.9375 1.5039m11.40625-1.4375l-6.46875 2.7461m6.46875-2.7461l1.90625 1.54688m11.40234-1.5625l-6.45312 2.77734m6.45312-2.77734l1.91406 1.53516m11.39454-1.54688l-6.44141 2.80078m6.4414-2.80078l1.92188 1.52735m11.3164-1.69922l-6.28515 3.14453m6.28516-3.14453l2 1.42187m10.9375-2.01562l-5.53125 4.33203m5.53125-4.33203l2.24218.99218m10.57422-1.5078l-4.53515 5.36327m3.875-4.58203l1.19922.25781m10.99218-1.83593l-.96875 6.95703m.82813-5.94531l1.15234-.42188m8.73438 1.21094l6.17187 3.35547m11.25-1.67578l-.01953-.20313-.0586-.1914-.09374-.17579-.45703-.375-.19141-.0586-.20313-.01952-.19921.01953-.19141.0586-.45703.375-.09375.17577-.0586.19141-.01953.20313.01953.19921.0586.19141.09375.17578.45703.375.1914.0586.19922.01953.20313-.01953.1914-.0586.45704-.375.09375-.17578.0586-.1914.01952-.19923m15.80469.07032l-7.02344-.14063m19.46485-2.2539l-5.27344 4.64453m4.50781-3.96875l1.14453.4336m13.40235-.4336l-6.20704 3.29297m5.3047-2.8125l1.01562.6875m13.46875-.51172l-6.74219 1.98047m5.76172-1.69141l.85937.875m13.2422-1.67188l-6.35548 2.9961m5.4336-2.5586l.98046.73438"/><g clip-path="url(#aj)"><path fill="none" stroke="#000" stroke-linecap="round" stroke-linejoin="round" stroke-miterlimit="10" stroke-width=".5" d="M147.50781 453.49219l-7.01562.41406"/></g><path fill="none" stroke="#000" stroke-linecap="round" stroke-linejoin="round" stroke-miterlimit="10" stroke-width=".5" d="M147.50781 453.49219l1.27735 2.09375m12.0039-2.40235l-6.94922 1.03125m6.94922-1.03125l1.45703 1.97266m11.71485-2.57422l-6.66406 2.23047m5.6953-1.90625l.89063.84766m13.52344-.65625l-6.92188 1.20312m5.91407-1.02734l.7539.96875m13.39063-1.79688l-6.5664 2.50782m5.60937-2.14454l.92578.8086m13.40625-1.0039l-6.6836 2.16796m5.71094-1.85156l.88281.85156m12.78907-2.30078l-5.45313 4.4336m4.66016-3.78907l1.1289.48047m12.9922-1.10938l-5.47657 4.40235m4.67969-3.76172l1.125.48437m13.0586-1.02734l-5.625 4.21094m5.625-4.21094l2.22265 1.04297m11.32812-.6914l-6.09375 3.5039m6.09375-3.5039l2.07813 1.30468m11.2539-1.27344l-6.1289 3.44531m6.1289-3.4453l2.0625 1.32421m11.07422-1.60547l-5.77344 4.00781m5.77344-4.0078l2.1836 1.12109m-3.02344-.53907l1.08984.5625m13.20703-.92578l-6.05468 3.57031m6.05468-3.5703l2.08985 1.28124m-2.97266-.76172l1.04688.64063m13.10546-1.23047l-5.96484 3.71094m5.96484-3.71094l2.125 1.23047m-2.99218-.6914l1.0625.61718m13.10156-1.1836l-5.92969 3.76563m5.92969-3.76562l2.13672 1.21093m11.05469-1.39843l-5.6797 4.14062m5.6797-4.14062l2.20703 1.0703m10.1875-1.9414l-3.83985 5.88281m3.83985-5.8828l2.44531.21874m9.96875-.64062l-2.03906 6.72656m2.03906-6.72656l2.41016-.47266m10.46484.3711l-1.15625 6.92968m.98828-5.92187l1.16016-.39063m9.92968-.16406l3.62891 6.01953m-3.10156-5.14062l.63281-1.0547m17.10156 1.59766l-6.26562 3.1797m5.35547-2.71876l1.0039.70703m12.48438-2.14843l-4.78906 5.14062m4.08984-4.39453l1.1875.3164m13.66406.12891l-6.46484 2.75781m5.52344-2.35546l.95703.76953m12.73437-2.08203l-5.33594 4.57421m4.5586-3.90625l1.14453.44532m13.33203-.5664l-6.10547 3.48046"/><g clip-path="url(#ak)"><path fill="none" stroke="#000" stroke-linecap="round" stroke-linejoin="round" stroke-miterlimit="10" stroke-width=".5" d="M466.61328 451.95703l2.07422 1.3125"/></g><g clip-path="url(#al)"><path fill="none" stroke="#000" stroke-linecap="round" stroke-linejoin="round" stroke-miterlimit="10" stroke-width=".5" d="M147.51172 440.3711l-7.02344.02343"/></g><path fill="none" stroke="#000" stroke-linecap="round" stroke-linejoin="round" stroke-miterlimit="10" stroke-width=".5" d="M147.51172 440.3711l1.16016 2.16406m12.0039-3.17579l-6.72266 2.04688m5.7461-1.75l.86719.8711m13.32812-1.44532l-6.52734 2.60547m5.57812-2.22656l.9336.79297m13.51172-.5625L180.5 441.0742m5.88672-1.17968l.77734.94922m12.96485-2.48828l-5.73828 4.0586m4.90234-3.46876l1.09766.55078m12.76562-1.5l-5.16016 4.77344m4.40625-4.07812l1.16016.40625m13.52344-.17188l-6.39063 2.91797m5.46094-2.4961l.97266.7461m11.48828-2.92578l-2.82422 6.4336m2.41406-5.5l1.22266-.08985m11.20703-1.14063l-.23438 7.02344m.20313-6l1.10156-.53906m13.8711-.02344l-3.48438 6.10156m3.48438-6.10156l2.45312.07422m11.57422.46094l-4.91016 5.03125m4.91016-5.03125l2.35547.6914m10.79687-.83593l-4.58594 5.32421m4.58594-5.32421l2.39453.53906m11.28907-.17578l-5.32032 4.59375m5.32032-4.59375l2.28515.88672m-3.0586-.21875l1.14063.4453m13.1172-.89843l-5.66017 4.16406m5.66016-4.16406l2.21094 1.0625m-3.03516-.45703l1.10547.53125m12.90234-1.30469l-5.39843 4.5m5.39843-4.5l2.27344.92969m-3.0586-.27344l1.13673.46485m12.7461-1.35938l-4.96095 4.97656m4.96094-4.97656l2.34766.71094m-3.07032.01172l1.17188.35937m11.20703-2.00781l-1.64453 6.83203m1.64453-6.83203l2.3789-.61328m9.71876.53515l.78906 6.98438m-.78906-6.98438l2.02343-1.38671m9.21094 7.37109l4.95313-4.98438m14.20312 1.47657l-6.73047 2.03125m6.73047-2.03125l1.72656 1.74219m11.39063-2.25l-6.33203 3.04687m5.41015-2.60156l.98829.72656m13.14453-1.36719l-6.125 3.4414m5.23437-2.9414l1.03125.66406m13.625.66407l-7.02734-.21875m7.02734.21875l1.08203 2.20312m12.23047-2.46484l-7.01953.30469m7.01953-.3047L455 442.34376m11.92578-2.98047l-6.72656 2.03906"/><g clip-path="url(#am)"><path fill="none" stroke="#000" stroke-linecap="round" stroke-linejoin="round" stroke-miterlimit="10" stroke-width=".5" d="M466.92578 439.36328l1.73047 1.73828"/></g><g clip-path="url(#an)"><path fill="none" stroke="#000" stroke-linecap="round" stroke-linejoin="round" stroke-miterlimit="10" stroke-width=".5" d="M147.44531 427.75l-6.89062-1.36328"/></g><path fill="none" stroke="#000" stroke-linecap="round" stroke-linejoin="round" stroke-miterlimit="10" stroke-width=".5" d="M147.44531 427.75l.71094 2.34766m12.67188-2.94922l-7.02735-.16016m7.02734.16016l1.10157 2.1914m12.17187-2.8203l-6.9414 1.10155m5.92968-.9414l.73828.97656m13.5547.1289l-6.87891-1.43359m6.8789 1.4336l.6875 2.35547m12.58203-2.16407l-6.78515-1.8164m5.80078 1.55468l.27344 1.19532m13.77343-3.42188l-6.27734 3.16016m5.36328-2.69922l1 .71094m10.97656-2.9922l-1.77343 6.80079m1.51562-5.8125l1.19531-.28125m14.1797.4336l-5.37892 4.51953m4.59766-3.86329l1.13672.46094m12.85547-1.23437l-5.17188 4.7539m4.42188-4.0625l1.15625.40625m11.35547-2.07812l-2.0625 6.71484m15.9375-6.48828l-3.1836 6.26172m17.01953-5.9375l-4.22656 5.61328m3.61328-4.79688l1.21094.19141m14.07031 1.22656l-6.93359 1.14454m5.92578-.97657l.7461.97266m11.22265-3.90235l-2.22266 6.66797m2.22266-6.66797l2.41797-.40625m11.69922.79297l-3.82813 5.89453m3.82813-5.89453l2.44531.21875m-3 .64063l1.22266.10547m13.6211-.02344l-5.77345 4.01172m5.77344-4.01172l2.17969 1.125m11.39844-.67578l-6.30079 3.11328m5.38282-2.66016l.9961.71485m12.21093-2.41016l-4.2461 5.59766m3.62891-4.78516l1.21094.19922m13.00781-.76953l-4.82031 5.11328m4.82031-5.11328l2.36719.64844m-3.07031.09765l1.18359.32422m13.80469.53125l-6.76172 1.91016m6.76172-1.91016l1.69922 1.77344m-2.6836-1.4961l.84766.88672m13.5-.96875l-6.85938 1.51953m6.85938-1.51953l1.59375 1.8672m-2.58985-1.64454l1.59375 1.86719m12.48829-2.77735l-6.40235 2.89453m6.40235-2.89453l1.9453 1.5m-2.875-1.07812l1.94141 1.5M440 425.35547l-6.13672 3.42578M440 425.35547l2.0625 1.32812m-2.95703-.82812l1.03125.66406m13.48047-.4375l-6.74219 1.97266m6.74219-1.97266l1.71484 1.75781m11.44531-2.18359l-6.43359 2.82422m5.5-2.41406l.96094.76171"/><g clip-path="url(#ao)"><path fill="none" stroke="#000" stroke-linecap="round" stroke-linejoin="round" stroke-miterlimit="10" stroke-width=".5" d="M147.50781 413.53906l-7.01562.42969"/></g><path fill="none" stroke="#000" stroke-linecap="round" stroke-linejoin="round" stroke-miterlimit="10" stroke-width=".5" d="M146.48828 413.60156l.64063 1.04688m13.625-1.6211l-6.875 1.45313m5.875-1.24219l.78515.9414m13.44531-1.47656l-6.70703 2.10157m5.73047-1.79688l.8711.86328m12.53515-2.61718l-4.9375 5m4.21875-4.27344l1.17578.35156m13.37891-.42578l-5.97656 3.69531m5.10547-3.16015l1.05859.62109m13.2539 2.3125l-6.23437-3.24219m19.92969 1.96094l-6.99219-.67969m20.25781-.34765l-6.89453 1.37109m5.89063-1.17188l.77734.95313m13.50781-1.29297l-6.82812 1.65625m5.83594-1.41406l.8164.91797m13.4336-1.3711l-6.71094 2.07813m5.73437-1.77344l.8711.86328m12.7539-2.39062l-5.375 4.52344m4.58985-3.8672l1.14062.45704m13.34375-.5586l-6.14453 3.41407m5.25-2.91797l1.02735.66797m13.49609-.39844l-6.77344 1.8789m5.78516-1.60546l.84765.89062m13.51954-.88281l-6.90235 1.32031m6.90235-1.32031l1.53906 1.91016m11.79297-1.81641l-6.9336 1.13281m5.92578-.96875l.7422.97656m13.5703-1.19921l-6.91406 1.25m6.91406-1.25l1.51954 1.92968m11.84375-1.54687l-7.01172.48047m7.01172-.48047l1.29687 2.08594m11.86719-2.89453l-6.70703 2.10156m6.70703-2.10156l1.7461 1.72265m-2.72266-1.41797l.87109.86328m13.03906-1.98828l-5.94922 3.73828m5.94922-3.73828l2.1289 1.22266m-2.99218-.67578l1.0625.60937m13.38281-.64453l-6.48047 2.71875m6.48047-2.71875l1.89844 1.55078m-2.84375-1.15625l1.90234 1.55078m12.33985-1.99218l-6.4414 2.8125m6.4414-2.8125l1.92187 1.52734m-2.85937-1.11719l1.92187 1.52344m12.40625-1.74219l-6.59375 2.42969m6.59375-2.42969l1.82813 1.63282m-2.78906-1.28125l.91406.8164M440.21484 412.5l-6.5664 2.5039m6.5664-2.5039l1.84766 1.61328m-2.80469-1.2461l.92578.8047m13.2422-1.41407L447.0664 415.25m6.35937-2.99219l1.96485 1.46875M452.5 412.69141l.98438.73437m12.33984-2.35937l-4.52344 5.375"/><g clip-path="url(#ap)"><path fill="none" stroke="#000" stroke-linecap="round" stroke-linejoin="round" stroke-miterlimit="10" stroke-width=".5" d="M465.82422 411.0664l2.39844.51173"/></g><path fill="none" stroke="#000" stroke-linecap="round" stroke-linejoin="round" stroke-miterlimit="10" stroke-width=".5" d="M465.16406 411.84766l1.20313.2578"/><g clip-path="url(#aq)"><path fill="none" stroke="#000" stroke-linecap="round" stroke-linejoin="round" stroke-miterlimit="10" stroke-width=".5" d="M147.20703 399l-6.41406 2.875"/></g><path fill="none" stroke="#000" stroke-linecap="round" stroke-linejoin="round" stroke-miterlimit="10" stroke-width=".5" d="M147.20703 399l1.9375 1.50781m10.78516-2.41406l-5.23047 4.6914m5.23047-4.6914l2.30469.84375m10.625-1.21484l-4.45704 5.43359m3.8086-4.64453l1.20312.24219m11.34375-1.73438l-1.625 6.83594m17.59766-2.875l-6.9414-1.08203m16.49609-2.96094l.57812 7.0039m15.14844-6.30468l-4.24219 5.60156m3.625-4.78515l1.21094.1914m13.01562-.75781l-4.83203 5.10156m4.1289-4.35937l1.1836.32812m13.76953.42188l-6.69922 2.11718m5.72266-1.80859l.8789.85938m13.25-1.58594l-6.375 2.95312m5.44923-2.52344l.97656.7422m12.35156-2.3711l-4.55078 5.35156m3.89063-4.57031l1.19921.26172m13.1836-.63672l-5.36328 4.54297m4.58203-3.88281l1.14062.45312m13.69531.36719l-6.84375 1.58203m5.84766-1.35156l.80469.92187m13.55078-.9336l-6.9336 1.14063m5.92579-.97265l.74218.97265m13.52344-1.41797L327 401.28516m6.82031-1.69532l1.64063 1.82422m11.74218-.46094l-6.95312-1.02734m6.95312 1.02735l.82032 2.30859m12.3789-1.79297l-6.72265-2.0586m5.74218 1.75782l.23438 1.20312m14.09375-2.83984l-6.78906 1.8125m6.78906-1.8125l1.67187 1.79688m11.40625-2.4336l-6.3125 3.08985m6.3125-3.08985l1.98438 1.4375m-2.90234-.98828l.99218.71875m13.50782-.41797l-6.84766 1.58594m6.84766-1.58594l1.60937 1.85156m-2.60547-1.62109l.80469.92578m13.42578-1.44922l-6.6836 2.17188m6.6836-2.17188l1.76172 1.70703m-2.73438-1.39062l.88282.85547m13.22265-1.61719l-6.32422 3.0625m6.32422-3.0625l1.98047 1.44922m-2.89844-1.0039l.98829.72656m12.91015-1.72657l-5.65234 4.17188m5.65234-4.17188l2.21485 1.0625m11.44921-.47656l-6.35156 3.0039m6.35156-3.0039l1.96875 1.46484M452.5 399.375l.98437.73047m13.06641-1.51172l-5.98047 3.6875"/><g clip-path="url(#ar)"><path fill="none" stroke="#000" stroke-linecap="round" stroke-linejoin="round" stroke-miterlimit="10" stroke-width=".5" d="M466.55078 398.59375l2.11719 1.23828"/></g><path fill="none" stroke="#000" stroke-linecap="round" stroke-linejoin="round" stroke-miterlimit="10" stroke-width=".5" d="M465.6836 399.1289l1.05859.6211"/><g clip-path="url(#as)"><path fill="none" stroke="#000" stroke-linecap="round" stroke-linejoin="round" stroke-miterlimit="10" stroke-width=".5" d="M146.99219 385.27734l-5.98438 3.69141"/></g><path fill="none" stroke="#000" stroke-linecap="round" stroke-linejoin="round" stroke-miterlimit="10" stroke-width=".5" d="M146.1211 385.8164l1.05859.6172m12.46094-1.94141l-4.65235 5.26562m3.97656-4.5l1.19141.28516m12.84766-1.01172l-4.7461 5.1836m4.7461-5.1836l2.375.61328m10.30859-1.07422l-3.48438 6.10547m3.48438-6.10547l2.44922.07422m9.95703 6.39063l-1.66797-6.82422m17.5586 4.26953l-6.81641-1.71485m5.82422 1.46485l.29297 1.1914m14.11328-1.6289l-7.01563-.33985m7.01563.33985l1.04687 2.22265m12.26953-2.26562l-7.01953-.25m7.01953.25l1.07422 2.20313m12.24219-2.42579l-7.02344.19141m7.02344-.1914l1.21094 2.1328m12.09375-2.34374l-7 .61718m7-.61718l1.33594 2.05468m11.95703-2.24609l-6.95703.9961m6.95703-.9961l1.4453 1.98438m11.8047-2.32422l-6.82422 1.67578m6.82422-1.67578l1.6328 1.83203m11.50392-2.36719l-6.46875 2.7461m5.52734-2.34766l.95312.77344m13.26563-1.25391l-6.39453 2.91015m5.46484-2.48828l.97266.75m13.27734-1.16015l-6.40625 2.88672m5.47656-2.46485l.96875.75m13.58594.19922l-7.02344.14453m6-.125l.60157 1.07031m13.66406-1.73046l-6.8789 1.42578m5.8789-1.21875l.78516.94531m13.46484-1.41406l-6.75 1.95312m6.75-1.95312l1.71094 1.75781m11.3828-2.33594l-6.30468 3.10547m6.30469-3.10547l1.98828 1.4336m11.33594-1.41407l-6.32422 3.06641m6.32422-3.0664l1.98047 1.4453m-2.90235-1l.99219.72266m13.21875-1.22265l-6.26953 3.17578m6.26953-3.17578l2.0039 1.41015m-2.91796-.94922l1.0039.70704m12.96875-1.59375l-5.7578 4.02734m5.7578-4.02735l2.1836 1.11329m-3.02344-.52735l1.09375.55469m12.83594-1.42969l-5.3086 4.60547m5.3086-4.60547l2.28906.88281m-3.0625-.21093l1.14453.4414m13.08594-.9414l-5.58984 4.26172m5.58984-4.26172l2.22656 1.02734m11.55078-.20703l-6.51953 2.625"/><g clip-path="url(#at)"><path fill="none" stroke="#000" stroke-linecap="round" stroke-linejoin="round" stroke-miterlimit="10" stroke-width=".5" d="M466.82031 385.8125l1.8789 1.57813"/></g><g clip-path="url(#au)"><path fill="none" stroke="#000" stroke-linecap="round" stroke-linejoin="round" stroke-miterlimit="10" stroke-width=".5" d="M140.7461 372.48438l6.5078 2.64843"/></g><path fill="none" stroke="#000" stroke-linecap="round" stroke-linejoin="round" stroke-miterlimit="10" stroke-width=".5" d="M154.23828 372.11328l6.15625 3.39063m-5.26172-2.89844l.01563-1.22656m17.35547-.54297l-3.75 5.94531m3.20703-5.08203l1.22265.09375m13.14844-.5625l-4.77344 5.15625m4.07813-4.40625l1.1875.3125m13.6211.03125l-6.3711 2.96875m6.3711-2.96875l1.95702 1.48047m11.6836-.09375l-7.02344.1914m6.0039-.16015l.60548 1.0664m13.70703-.58593l-6.97657-.82813m5.96094.70703l.44531 1.14453m13.90625-1.23828l-7.01562-.39844m7.01562.39844l1.02344 2.23047m12.19531-3.26953l-6.82422 1.67969m6.82422-1.67969l1.63672 1.82422m11.45703-2.45703l-6.3828 2.9414m5.45312-2.51171l.97656.74218m13.25-1.21094l-6.34375 3.02344m5.41797-2.58594l.98828.73047m13.48047-.53125l-6.80469 1.75m5.8164-1.49609l.82813.90625m13.4961-1.08594l-6.84376 1.60156m5.84766-1.36718l.8086.92187m13.58984-.21094l-7.01953-.29296m6 .25l.53125 1.10937m13.79297-.89844l-7-.625m5.98046.53516l.48047 1.1289m13.67188-2.51562l-6.63281 2.32422m5.66796-1.98438l.90235.83204m13.4336-.98829l-6.7461 1.96094m6.7461-1.96094l1.71093 1.75782m11.72266-1.17578l-6.98047.79687m6.98047-.79687l1.39062 2.01953m11.58594-3.17188l-6.3086 3.09766m6.3086-3.09766l1.98828 1.4375m11.11328-1.8125l-5.8789 3.85156m5.8789-3.85156l2.14844 1.17969m11.08594-1.29688l-5.71875 4.08594m5.71875-4.08594l2.1953 1.09375m11-1.2539l-5.47655 4.40625m5.47656-4.40625l2.2539.96484m-3.05078-.32422l1.125.48438m12.47657-1.64063l-4.45704 5.4336m4.45704-5.4336l2.40625.48438m11.23437-.17969l-5.10937 4.82422m5.10937-4.82422l2.32422.78516m11.08594-.67969l-5.30078 4.61328"/><g clip-path="url(#av)"><path fill="none" stroke="#000" stroke-linecap="round" stroke-linejoin="round" stroke-miterlimit="10" stroke-width=".5" d="M466.21094 371.5l2.29297.8789"/></g><g clip-path="url(#aw)"><path fill="none" stroke="#000" stroke-linecap="round" stroke-linejoin="round" stroke-miterlimit="10" stroke-width=".5" d="M140.53125 361.05078l6.9375-1.11719"/></g><path fill="none" stroke="#000" stroke-linecap="round" stroke-linejoin="round" stroke-miterlimit="10" stroke-width=".5" d="M153.84766 361.07031l6.93359-1.15625m-5.92188.98828l-.74609-.97265m16.33203-2.94531l.3711 7.01562m16-5.53516l-5.7422 4.0547m4.90626-3.46485l1.09375.55469m13.58984.0078l-6.80469 1.75391m5.8125-1.5l.82813.90625m13.57031-.65234l-6.98828.73828m5.96875-.63281l.6875 1.01562m13.66406-.67968l-7.02343-.14454m6.0039.1211l.55078 1.09765m13.69141-1.94921l-6.83984 1.60156m5.84765-1.36719l.80469.92188m13.41406-1.47266l-6.66406 2.23438m5.69531-1.90625l.89063.84375m12.92578-2.08985l-5.72656 4.07422m5.72656-4.07422l2.19531 1.09766m10.4414-1.8125l-4.37109 5.5m4.3711-5.5l2.41406.44531m10.46875-.73828l-3.50781 6.08984m3.50781-6.08984l2.45312.08203m10.78516-.125l-3.35156 6.17578m2.86328-5.27734l1.22656.00781m11.76563-1.22656l-1.73047 6.8125m16.46484-.73438l-4.5664-5.33984m18.4453 4.72265l-5.69921-4.10937m4.8711 3.51172l-.16407 1.21484m14.7461-1.42578l-6.57422-2.49219m5.61718 2.12891l.15235 1.21875m14.24218-1.25781l-6.8203-1.6836m5.82812 1.4375l.30078 1.19141m14.0586-2.39453l-6.92188 1.21484m5.91406-1.03906l.7539.96875m13.07032-2.42578l-5.92578 3.77734m5.92578-3.77734l2.13672 1.20703m10.95703-1.51563l-5.48438 4.39454m5.48438-4.39454l2.2539.96875m10.85547-1.20312l-5.07422 4.85938m5.07422-4.85938l2.33203.76953m10.78516-.96094l-4.67578 5.2461m4.67578-5.2461l2.38281.58204m10.82032-.6797l-4.45313 5.4375m4.45313-5.4375l2.40625.48438m10.74609-.60937l-4.125 5.6875"/><g clip-path="url(#ax)"><path fill="none" stroke="#000" stroke-linecap="round" stroke-linejoin="round" stroke-miterlimit="10" stroke-width=".5" d="M465.625 357.64844l2.42969.33984"/></g><g clip-path="url(#ay)"><path fill="none" stroke="#000" stroke-linecap="round" stroke-linejoin="round" stroke-miterlimit="10" stroke-width=".5" d="M140.55078 346.50781l6.89844 1.33985"/></g><path fill="none" stroke="#000" stroke-linecap="round" stroke-linejoin="round" stroke-miterlimit="10" stroke-width=".5" d="M153.86328 347.83203l6.90234-1.3086m-5.89843 1.1172l-.76563-.95704m13.77344 2.67188L173.38672 345m-4.71094 3.72266l-1.125-.4922m16.3164 2.46095l.15626-7.02735m15.79687 5.91797l-5.1211-4.8086m19.02735 3.95704l-6.30469-3.10547m5.38672 2.65625l.03907 1.22266m14.10547-.60547l-6.125-3.4414m5.23437 2.9414l-.02734 1.22656m14.40234-3.82813l-6.46094 2.76172m5.51953-2.35937l.95703.76953m12.19922-2.58203l-4.26562 5.58594m3.64453-4.77344l1.21094.19922m10.60937-1.73438l-.03125 7.02735m.02735-6.00391l1.08593-.57031m11.40235-.35547l1.6289 6.83594m-1.39062-5.84375l.91797-.8086m11.91406-.11719l2.1211 6.69922m-1.8125-5.72265l.85937-.8789m12.17578-.10548l2.0586 6.71875m-1.75782-5.74219l.86719-.86718m11.65234.08203l3.05078 6.33203m-2.60546-5.41016l.72656-.98828m10.67969 5.07813l5.98046-3.6875m-5.11328 3.14844l-1.0586-.6172m13.01954-.17187l6.94922-1.03515m-5.9375.88671l-.73047-.98828m16.53516 4.13282l-.05078-7.02735m.04296 6.0039l-1.07812.58595m16.73047-.46875L368 344.5703m4.02734 4.45703l-.41796 1.15235m15.08203-1.20703l-6.03907-3.58985m5.16016 3.07031l-.0586 1.22266m14.73438-2.21094l-7.0039-.57421m5.98437.49218l.48438 1.125m12.99218-3.64453l-5.28515 4.6289m4.51562-3.95702l1.14453.4375m11.46094-2.10938l-2.33203 6.6289m2.33203-6.6289l2.42578-.36719m11.3789.58204l-3.30859 6.19921m3.3086-6.19921l2.45312.0039m11.57813.5l-4.73828 5.1914m4.04687-4.43359l1.1875.3047m13.39453-.37892l-5.89453 3.82422m5.03906-3.26562l1.07032.59375"/><g clip-path="url(#az)"><path fill="none" stroke="#000" stroke-linecap="round" stroke-linejoin="round" stroke-miterlimit="10" stroke-width=".5" d="M141.63281 331.26563l4.73438 5.1953"/></g><path fill="none" stroke="#000" stroke-linecap="round" stroke-linejoin="round" stroke-miterlimit="10" stroke-width=".5" d="M153.8086 334.0664l7.01562-.40624m-5.9961.34765l-.63671-1.04687m13.66797 3.0664l5.53906-4.32812m-4.73047 3.69922l-1.1211-.5m13.3711.7461l6.05469-3.5625m-5.17578 3.04687l-1.04297-.64454m19.83984.48829l-6.66797-2.21875m13.17188 1.61718l6.95312-1.01562m-5.9414.86719l-.72657-.98829m20.01172.85938l-7.01172-.46094m20.28125-.38672l-6.91797 1.23438m5.91016-1.05469l.75781.96485m12.65235-2.94922l-5.08985 4.84375m4.34766-4.14063l1.16406.38672m8.97656-1.90234l2.7422 6.46875m-2.34376-5.52735l.77344-.95312m11.09765.69531l4.83204 5.10156m-4.12891-4.35937l.39063-1.16406m12.23437.41015l4.8086 5.125m-4.8086-5.125l.78906-2.32031m12.21485 2.64844l5.42578 4.46875m-4.63672-3.81641l.2461-1.20313m14.0039-.58593l1.98047 6.74219m-1.6914-5.76172l.8789-.85938m10.09765 1.48828l6.07813 3.52344m-5.1914-3.01172l.04296-1.22656m13.07813 5.08984l4.6953-5.23047m-4.6953 5.23047l-2.38282-.58594m15.51563.41016l5.0625-4.875m-5.0625 4.875l-2.33594-.76172m18.23047 1.83594l-.09766-7.02344m.08204 6.0039l-1.07422.58985M385.25 337l-3.16016-6.27344M385.25 337l-1.41406 2.0039m15.92187-2.98046l-5.54297-4.32031m4.73438 3.6914l-.21094 1.20703m15.04688-2.27734l-6.96485-.92578m5.94922.79297l.42969 1.14843m13.82031-2.34765l-6.8086 1.74219m6.8086-1.7422l1.65235 1.8125m11.52734-2.23437l-6.53516 2.58594m6.53516-2.58594l1.86719 1.58985m11-2.39063l-5.64063 4.1875m5.64063-4.1875l2.21875 1.05078m11.53515-.26953l-6.51953 2.625"/><g clip-path="url(#aA)"><path fill="none" stroke="#000" stroke-linecap="round" stroke-linejoin="round" stroke-miterlimit="10" stroke-width=".5" d="M466.82031 332.55078l1.8789 1.58203"/></g><g clip-path="url(#aB)"><path fill="none" stroke="#000" stroke-linecap="round" stroke-linejoin="round" stroke-miterlimit="10" stroke-width=".5" d="M141.71094 317.88281l4.57812 5.33203"/></g><path fill="none" stroke="#000" stroke-linecap="round" stroke-linejoin="round" stroke-miterlimit="10" stroke-width=".5" d="M154.45313 318.51172l5.72656 4.07422m-4.89453-3.48047l.16015-1.21875m13.72656 5.85937l2.91407-6.39453m11.9414 6.70703l-.16406-7.02343m.14063 6.0039l-1.07032.60156m14.72266.39844l-.79297-6.98047m.67969 5.96485l-1.01172.69531m16.92578-1.16406l-5.76562-4.01563m4.92968 3.4336l-.14843 1.21875m14.92968-2.73047l-7.02343.17578m6-.15235l.60547 1.07032m13.67578-1.63672l-6.91016 1.26172m6.91016-1.26172l1.52343 1.92578m11.3672-3.07422l-6.0586 3.5586m6.0586-3.5586l2.08983 1.28516m10.3711-2.26563l-4.35156 5.51563m4.35156-5.51563l2.41406.4375m9.66016-1.0664l-1.8711 6.77343m1.8711-6.77343l2.39843-.53125m10.40625.42968l-.84765 6.97657m.72265-5.96094l1.14454-.4414m11.82422-.59766l.09375 7.02734m-.07813-6.0039l1.07422-.58985m13.23437-.30078l-1.92578 6.75781m1.64453-5.77344l1.19922-.2578m9.07422.05077l4.72266 5.20313m-4.03516-4.44531l.41406-1.15235m11.69532 5.01172l5.7578-4.02734m-4.92187 3.4414l-1.09375-.5586m13.89454 1.54298l5.11328-4.82422m-5.11329 4.82422l-2.32421-.78516m15.0039-.16015l6.38672-2.9336m-6.38672 2.9336l-1.95312-1.48829m18.03125 3.50782l.85937-6.97266m-.85937 6.97266l-2.29297.8789m17.0586-1.0039l-2.04298-6.72266m2.04297 6.72266l-1.74219 1.73046m16.36329-2.46093l-4.65625-5.26172m4.65625 5.26172l-.85547 2.29687M427 321.4922l-6.76953-1.88672m5.78515 1.61328l.26563 1.19531m14.05078-2.75l-6.80078 1.76953m5.8125-1.51171l.82813.90234m13.42187-1.34766l-6.6914 2.14453m6.6914-2.14453l1.75781 1.71094m11.58985-1.59766l-6.76172 1.91407"/><g clip-path="url(#aC)"><path fill="none" stroke="#000" stroke-linecap="round" stroke-linejoin="round" stroke-miterlimit="10" stroke-width=".5" d="M466.9414 319.58984l1.69923 1.77344"/></g><path fill="none" stroke="#000" stroke-linecap="round" stroke-linejoin="round" stroke-miterlimit="10" stroke-width=".5" d="M465.95703 319.8711l.85156.8828"/><path fill="#00f" fill-rule="evenodd" d="M419.3086 427.70313h8.61718v-10.14454h-8.61719v10.14454"/><path fill="azure" fill-rule="evenodd" d="M421.14063 419.39063h.83203v2.82421h3.28515v-2.82421h.83594v6.48046h-.83594v-2.91796h-3.28515v2.91796h-.83204v-6.48046"/><path fill="#ff3030" fill-rule="evenodd" d="M380.05469 418.82813H387.75v-10.14844h-7.69531v10.14844"/><path fill="azure" fill-rule="evenodd" d="M381.89063 410.51172h.83203v5.74219h3.1953v.73828h-4.02733v-6.48047"/><path fill="#00f" fill-rule="evenodd" d="M370.48438 396.63281h8.62109v-10.14453h-8.6211v10.14453"/><path fill="azure" fill-rule="evenodd" d="M372.3164 388.32031h.83594v2.82422h3.28516v-2.82422h.83203v6.48047h-.83203v-2.91406h-3.28516v2.91406h-.83593v-6.48047"/><path fill="#ff3030" fill-rule="evenodd" d="M189.20703 383.32031h7.6914v-10.14844h-7.6914v10.14844"/><path fill="azure" fill-rule="evenodd" d="M191.03906 375.00781h.83594v5.73828h3.1914v.7422h-4.02734v-6.48048"/><path fill="#ffffe0" fill-rule="evenodd" d="M341.74219 393.29297h22.1836v-10.1914h-22.1836v10.1914"/><path fill-rule="evenodd" d="M345.24219 384.9336h.51172v6.29687h-.78907v-4.48828h-1.38671v-.5586l.55859-.0625.2539-.05468.22657-.08985.20312-.14062.17578-.21094.14063-.29297.10547-.39844m4.8164 0l.22657.01954.21875.05859.21093.08984.19532.11719.18359.15234.17188.17579.30078.41796.24218.4922.1797.54687.11327.58203.03906.58984-.03906.59375-.11328.58203-.17969.55469-.24218.5039-.30079.42579-.17187.17969-.1836.15234-.1953.125-.21094.09375-.21875.05469-.22657.01953-.23046-.01953-.21875-.0547-.20704-.09374-.19921-.125-.1836-.15235-.17187-.17968-.30079-.42578-.24218-.50391-.17969-.55469-.11328-.58203-.03906-.59375h.83593l.02735.5625.08203.50781.125.44141.16406.375.1914.30078.21094.21875.22266.13672.22656.04688.22657-.04688.22265-.13672.21094-.21875.1875-.30078.16406-.375.125-.4414.08203-.50782.03125-.5625-.03125-.5625-.08203-.5-.125-.4336-.16406-.36718-.1875-.29297-.21094-.21484-.22265-.1289-.22657-.04688-.22656.04687-.22265.1289-.21094.21485-.1914.29297-.16407.36719-.125.4336-.08203.5-.02735.5625h-.83593l.03906-.58985.11328-.58203.17969-.54688.24219-.49219.30078-.41796.17187-.17579.1836-.15234.19921-.11719.20704-.08984.21875-.0586.23046-.01953m4.94922 0l.23047.01954.21875.05859.20703.08984.19922.11719.1836.15234.17187.17579.30078.41796.24219.4922.17969.54687.11328.58203.03906.58984-.03906.59375-.11328.58203-.1797.55469-.24218.5039-.30078.42579-.17188.17969-.18359.15234-.19922.125-.20703.09375-.21875.05469-.23047.01953-.22656-.01953-.21875-.0547-.21094-.09374-.19531-.125-.1836-.15235-.17187-.17968-.30078-.42578-.24219-.50391-.17969-.55469-.11328-.58203-.03906-.59375h.83594l.02734.5625.08203.50781.125.44141.16407.375.1914.30078.20703.21875.22266.13672.22656.04688.22656-.04688.22266-.13672.21094-.21875.1914-.30078.16407-.375.125-.4414.08203-.50782.02734-.5625-.02734-.5625-.08203-.5-.125-.4336-.16406-.36718-.19141-.29297-.21094-.21484-.22265-.1289-.22657-.04688-.22656.04687-.22266.1289-.20703.21485-.1914.29297-.16407.36719-.125.4336-.08203.5-.02734.5625h-.83594l.03906-.58985.11329-.58203.17968-.54688.24219-.49219.30078-.41796.17188-.17579.18359-.15234.19531-.11719.21094-.08984.21875-.0586.22656-.01953m4.95313 0l.38672.03125.35937.08204.32422.13671.27734.1875.23047.23438.17578.28515.10547.33204.03906.3789-.01953.27344-.05859.23438-.08594.20312-.11328.16797-.1289.14453-.14063.1211-.28516.19921.23047.11719.20703.14844.1836.17187.15234.1914.125.21485.08985.23047.05468.24219.01953.25781-.03125.3086-.10546.32421-.17188.32813-.23828.30469-.3086.26953-.375.21484-.21093.08203-.22656.0586-.2461.03906-.26172.01172-.25781-.01172-.24219-.03906-.22265-.0586-.20704-.08203-.35937-.21484-.28906-.26953-.22266-.3047-.15625-.32812-.09375-.32421-.03125-.3086h.83594l.02734.25.07422.23828.125.21094.16016.1836.1914.15234.22266.11328.23828.07422.2539.02344.25782-.02344.23828-.07422.21875-.11328.19531-.15235.16016-.18359.1211-.21094.07812-.23828.02734-.25-.02734-.2539-.07813-.23438-.12109-.21484-.16016-.1836-.1953-.15234-.21876-.11328-.23828-.07422-.25781-.02344-.2539.02344-.23829.07422-.22266.11328-.1914.15234-.16016.1836-.125.21484-.07422.23438-.02734.2539h-.83594l.01953-.2539.0586-.2422.08984-.22265.1211-.20703.15624-.1914.1797-.17188.20702-.15235.23438-.1328-.28906-.19923-.13672-.12109-.12891-.14453-.11328-.16797-.08594-.20313-.0586-.23437-.01952-.27344h.78515l.02344.21485.0664.1914.10157.16406.13672.14063.16797.11328.1875.08203.20703.05078.21875.01563.22265-.01563.20704-.05078.1875-.08203.16406-.11328.13672-.14063.10546-.16406.06641-.1914.02344-.21485-.02344-.21484-.0664-.1914-.10547-.16407-.13672-.14063-.16406-.11328-.1875-.08203-.20704-.04687-.22265-.01953-.21875.01953-.20703.04687-.1875.08203-.16797.11329-.13672.14062-.10156.16406-.06641.1914-.02344.21485h-.78515l.03515-.3789.10938-.33204.17187-.28515.23047-.23438.28125-.1875.32031-.13671.35938-.08204.38672-.03125"/><path fill="#ffffe0" fill-rule="evenodd" d="M410.05078 445.6875h22.17969v-10.1914h-22.17969v10.1914"/><path fill-rule="evenodd" d="M413.55078 437.32813h.50781v6.29687h-.78515v-4.49219h-1.38672v-.55469l.5586-.0664.25-.05078.23046-.08985.20313-.14062.17578-.21094.14062-.29687.10547-.39454m4.8125 0l.23047.01954.21875.05468.20703.08985.19922.1211.1836.14843.17187.17578.30078.42188.24219.49218.17969.54688.11328.57812.03906.59375-.03906.58985-.11329.58593-.17968.5547-.24219.5-.30078.42968-.17188.17969-.18359.15234-.19922.125-.20703.08984-.21875.0586-.23047.01953-.22656-.01953-.21875-.0586-.21094-.08984-.19531-.125-.1836-.15234-.17187-.1797-.30078-.42968-.24219-.5-.17969-.55469-.11328-.58593-.03906-.58985h.83203l.03125.5625.08203.5039.125.44532.16406.3711.1875.30078.21094.22265.22266.13672.22656.04688.22656-.04688.22266-.13672.21094-.22265.1914-.30079.16407-.37109.125-.44531.08203-.5039.02734-.5625-.02734-.5625-.08203-.5-.125-.4375-.16407-.36329-.1914-.29297-.21094-.21484-.22266-.13281-.22656-.04297-.22656.04297-.22266.1328-.21094.21485-.1875.29297-.16406.36328-.125.4375-.08203.5-.03125.5625h-.83203l.03906-.59375.11328-.57812.1797-.54688.24218-.49219.30078-.42187.17188-.17578.18359-.14844.19531-.1211.21094-.08984.21875-.05468.22656-.01954m4.95313 0l.23046.01954.21875.05468.20704.08985.19921.1211.1836.14843.17187.17578.30079.42188.24218.49218.17969.54688.11328.57812.03516.59375-.03516.58985-.11328.58593-.17969.5547-.24219.5-.30078.42968-.17187.17969-.1836.15234-.19921.125-.20704.08984-.21875.0586-.23046.01953-.22657-.01953-.21875-.0586-.21093-.08984-.19532-.125-.18359-.15234-.17188-.1797-.30078-.42968-.24609-.5-.17969-.55469-.10937-.58593-.03906-.58985h.83203l.03125.5625.08203.5039.125.44532.16406.3711.1875.30078.21094.22265.22265.13672.22657.04688.22656-.04688.22265-.13672.21094-.22265.1914-.30079.16407-.37109.125-.44531.08203-.5039.02735-.5625-.02735-.5625-.08203-.5-.125-.4375-.16406-.36329-.1914-.29297-.21094-.21484-.22266-.13281-.22656-.04297-.22657.04297-.22265.1328-.21094.21485-.1875.29297-.16406.36328-.125.4375-.08203.5-.03125.5625h-.83204l.03907-.59375.10937-.57812.17969-.54688.2461-.49219.30077-.42187.17188-.17578.1836-.14844.1953-.1211.21094-.08984.21875-.05468.22657-.01954m4.95312 0l.38672.02735.35938.08203.32421.13672.27735.1875.23047.23828.17187.28516.10938.33203.03906.3789-.01953.27344-.0586.23438-.08984.19921-.10938.17188-.1289.14453-.14063.1211-.28515.1953.23047.1211.20703.14453.1836.17188.15233.19531.125.21094.08985.23047.05469.24609.01953.2539-.03516.3086-.10156.32813-.17188.32421-.24218.3086-.3047.26953-.375.21094-.21093.08203-.22656.0625-.2461.03906-.26171.01172-.25782-.01172-.24218-.03906-.22266-.0625-.20703-.08203-.35938-.21094-.28906-.26953-.22265-.3086-.15625-.32421-.09375-.32813-.03125-.3086h.83203l.02734.25391.07813.23438.12109.21484.16406.1836.1914.15234.21876.11328.24219.07422.2539.02344.2539-.02344.2422-.07422.21875-.11328.1953-.15235.16016-.18359.1211-.21484.07812-.23438.02735-.2539-.02735-.25391-.07812-.23438-.1211-.21093-.16015-.1836-.19531-.15234-.21875-.11719-.2422-.07031-.2539-.02734-.2539.02734-.2422.07031-.21874.11719-.1914.15234-.16407.1836-.1211.21094-.07812.23437-.02734.2539h-.83204l.01954-.2539.05468-.23828.09375-.22266.1211-.21094.15234-.1914.1836-.17188.20703-.15234.23437-.13281-.28906-.19531-.14063-.1211-.1289-.14453-.10938-.17188-.08984-.19921-.05469-.23438-.02344-.27344h.78907l.02343.21485.06641.1914.10156.16407.13672.14062.16406.10938.19141.08203.20703.05078.21875.01953.22266-.01953.20703-.05078.1875-.08203.16406-.10938.13672-.14062.10547-.16407.0664-.1914.02344-.21485-.02344-.21484-.0664-.1914-.10547-.16798-.13672-.13671-.16406-.11329-.1875-.08203-.20703-.05078-.22266-.01562-.21875.01562-.20703.05078-.1914.08204-.16407.11328-.13672.13671-.10156.16797-.0664.19141-.02344.21484h-.78907l.03907-.3789.10937-.33203.17188-.28516.23046-.23828.28125-.1875.32032-.13672.35937-.08203.38672-.02735"/><path fill="#ffffe0" fill-rule="evenodd" d="M332.86719 334.47266h22.17969v-10.19141h-22.1797v10.1914"/><path fill-rule="evenodd" d="M336.36719 326.11328h.50781v6.29688h-.78516v-4.48829h-1.39062v-.55859l.5625-.0625.25-.05469.23047-.08984.20312-.14063.17578-.21093.14063-.29297.10547-.39844m4.8125 0l.23047.01953.21875.0586.20703.08593.19531.1211.1875.15234.16797.17578.30469.41797.24218.49219.1797.54687.11327.58204.03516.58984-.03516.59375-.11328.58203-.17969.55469-.24218.5039-.3047.42579-.16796.17968-.1875.15235-.19531.125-.20703.08984-.21875.0586-.23047.01952-.23047-.01953-.21875-.05859-.20703-.08984-.19531-.125-.1836-.15235-.17187-.17969-.30079-.42578-.24609-.5039-.17969-.55469-.10937-.58203-.03906-.59375h.83203l.03125.5625.08203.5039.125.44532.16015.375.19141.30078.21094.21875.22265.13672.22657.04687.22656-.04687.22266-.13672.21093-.21875.19141-.30078.16016-.375.1289-.44531.08203-.50391.02735-.5625-.02735-.5625-.08203-.5-.1289-.4336-.16016-.36718-.1914-.29297-.21094-.21485-.22266-.1289-.22656-.04688-.22656.04688-.22266.1289-.21094.21485-.1914.29297-.16016.36719-.125.43359-.08203.5-.03125.5625h-.83203l.03906-.58985.10937-.58203.1797-.54687.24608-.49219.30079-.41797.17187-.17578.1836-.15234.1953-.1211.20704-.08593.21875-.0586.23047-.01953m5.09375 0h.50781v6.29688h-.78906v-4.48829h-1.38672v-.55859l.5586-.0625.2539-.05469.23047-.08984.20312-.14063.17188-.21093.14062-.29297.10938-.39844m2.82031 2.17578h.78906l.01953-.3164.0586-.28516.09765-.2539.14063-.21485.1836-.17188.22265-.1289.26562-.08203.3086-.02735.23437.02344.22656.0625.20313.10156.17969.13672.14844.17188.11328.20703.0703.23828.02735.26172-.02344.26953-.0664.22266-.10938.1953-.15625.16798-.19921.16406-.2461.16406-.63672.39063-.53515.3125-.4375.3164-.34766.32422-.26172.33594-.1914.35156-.125.3711-.07032.39453-.01953.41797h4.21094v-.7422h-3.33203l.08203-.28124.11328-.23828.14844-.20313.1875-.17969.23047-.17187.28125-.17578.71484-.41406.41797-.20704.34375-.23046.28125-.25.21875-.26954.16406-.27734.10938-.28515.0664-.28125.01953-.28125-.04296-.38672-.1211-.34766-.1875-.30469-.25-.26562-.30078-.21094-.34766-.16016-.3789-.09765-.40625-.03516-.4375.03516-.39844.09765-.35547.16797-.30469.23438-.24609.30078-.1875.375-.11328.44922-.04297.51562"/><path fill="#ffffe0" fill-rule="evenodd" d="M186.40234 345.27344h22.1797v-10.1914h-22.1797v10.1914"/><path fill-rule="evenodd" d="M189.90234 336.91406h.50782v6.29688h-.78516v-4.49219h-1.39063v-.55469l.5586-.0625.2539-.05469.23047-.08984.20313-.14062.17187-.21094.14453-.29297.10547-.39844m4.8125 0l.23047.01953.21875.0547.20703.08983.19532.1211.18359.15234.17188.17578.30468.41797.24219.49219.17969.54688.10937.58203.03906.58984-.03906.59375-.10937.58203-.17969.55469-.24219.5039-.30469.42579-.17187.17968-.1836.15235-.1953.125-.20704.08984-.21875.0586-.23047.01953-.23047-.01954-.21875-.05859-.20703-.08984-.1953-.125-.1875-.15235-.16798-.17968-.30469-.42579-.24218-.5039-.17969-.55469-.10938-.58203-.03906-.59375h.83203l.02735.5625.08203.5039.1289.44532.16016.375.1914.30078.21095.21875.22265.13672.22656.04687.22657-.04687.22265-.13672.21094-.21875.1914-.30078.16016-.375.1289-.44531.07813-.50391.03125-.5625-.03125-.5625-.07812-.5-.1289-.4336-.16016-.36718L195.375 338l-.21094-.21484-.22265-.12891-.22657-.04688-.22656.04688-.22266.1289-.21093.21485-.1914.29297-.16017.36719-.1289.43359-.08203.5-.02735.5625h-.83203l.03906-.58984.10938-.58204.17969-.54687.24219-.49219.30468-.41797.16797-.17578.1875-.15234.19531-.1211.20703-.08984.21875-.05469.23047-.01953m5.08985 0h.51172v6.29688h-.78907v-4.49219h-1.38672v-.55469l.5586-.0625.2539-.05469.22657-.08984.20312-.14062.17578-.21094.14063-.29297.10547-.39844m2.82422 2.17578h.78906l.01953-.3164.0586-.28516.09765-.2539.14063-.21485.17968-.17187.22656-.12891.26172-.08203.3086-.02735.23828.02344.22266.0625.20703.10156.17968.13672.14844.17188.11328.20703.07031.23828.02344.26172-.01953.26953-.0664.22266-.10938.19531-.15625.16797-.19922.16406-.25.16406-.63281.39063-.53516.3125-.4375.3164-.34765.32422-.26563.33594-.1875.35156-.125.3711-.07031.39453-.01953.41797h4.21094v-.74219h-3.33204l.08203-.28125.11329-.23828.14843-.20313.1875-.17968.23047-.17188.27735-.17578.71875-.41406.41406-.20703.34766-.23047.28125-.25.21875-.26953.16406-.27735.10937-.28515.0664-.28516.01954-.28125-.04297-.38281-.1211-.34766-.1875-.30469-.25-.26562-.30468-.21094-.34375-.16015-.38281-.09766-.40625-.03516-.4336.03516-.39843.09765-.35547.16797-.30469.23438-.2461.30078-.1875.375-.11718.44531-.03906.51953"/><path fill="#ffffe0" fill-rule="evenodd" d="M153.13672 419.0586h22.17969v-10.19141h-22.1797v10.1914"/><path fill-rule="evenodd" d="M156.63672 410.69922h.50781v6.29297h-.78516v-4.48828h-1.39062v-.5547l.5625-.0664.25-.05469.23047-.08984.20312-.14062.17578-.21094.14063-.29297.10547-.39453m4.8125 0l.23047.01953.21875.05469.20703.08984.19531.1211.1875.14843.17188.17578.30078.41797.24219.4961.17968.54687.11328.57813.03516.58984-.03516.59375-.11328.58594-.17969.55469-.24218.5-.30078.42968-.17188.17969-.1875.15234-.19531.1211-.20703.09375-.21875.0586-.23047.01952-.22656-.01953-.22266-.0586-.20703-.09374-.19531-.1211-.1836-.15234-.17187-.17969-.30078-.42969-.2461-.5-.17969-.55468-.10937-.58594-.03906-.59375h.83203l.03125.5625.08203.50781.125.4414.16016.375.1914.30079.21094.22266.22266.13671.22656.04688.22656-.04688.22266-.13671.21094-.22266.1914-.30078.16406-.375.125-.4414.08203-.50782.02735-.5625-.02734-.5586-.08204-.5039-.125-.4336-.16406-.36718-.1914-.28906-.21094-.21485-.22266-.13281-.22656-.04297-.22656.04297-.22266.13281-.21094.21485-.1914.28906-.16016.36719-.125.43359-.08203.5039-.03125.5586h-.83203l.03906-.58984.10938-.57813.17968-.54687.2461-.4961.30078-.41797.17187-.17578.1836-.14844.1953-.12109.20704-.08984.22266-.05469.22656-.01953m5.09375 0h.50781v6.29297h-.78516v-4.48828H164.875v-.5547l.5586-.0664.2539-.05469.23047-.08984.20312-.14062.17188-.21094.14453-.29297.10547-.39453m2.82031 2.17578h.78906l.01953-.3164.0586-.28516.09766-.2539.14062-.21485.1836-.17578.22265-.12891.26563-.07813.30859-.02734.23437.01953.22657.0625.20312.10156.17969.14063.14844.17188.11328.20703.07031.23437.02734.26563-.02343.26562-.06641.22656-.10938.19141-.15625.17188-.19921.16015-.2461.16797-.63672.39063-.53515.3125-.4375.3164-.34766.32422-.26172.33594-.1914.35156-.125.36719-.07032.39453-.01953.41797h4.21094v-.73828h-3.33203l.08203-.28516.11328-.23828.14844-.19922.1875-.17969.23047-.17187.28125-.17578.71484-.41797.41797-.20313.34375-.23047.28125-.2539.21875-.26563.16406-.27734.11328-.28516.0625-.28515.01953-.28125-.04296-.38282-.1172-.34765-.1914-.3086-.25-.26171-.30078-.21485-.34766-.15625-.3789-.09765-.40625-.03516-.4375.03125-.39844.10156-.35156.16406-.3086.23438-.24609.30469-.1875.375-.11328.4453-.04297.51954"/></g></defs><use xlink:href="#aD"/></svg>